0, 0, Header, 1, 6, 384
1, 0, Start_track
1, 0, Time_signature, 4, 2, 96, 8
1, 0, Sequencer_specific, 3, 0, 0, 65
1, 0, Sequencer_specific, 5, 0, 0, 119, 14, 0
1, 0, Tempo, 357142
1, 101376, Tempo, 365853
1, 150144, Tempo, 384615
1, 161852, Tempo, 394736
1, 173952, Tempo, 384615
1, 186240, Tempo, 394736
1, 309504, Tempo, 600000
1, 310272, Tempo, 638297
1, 311808, Tempo, 666666
1, 313344, Time_signature, 2, 2, 96, 8
1, 313344, Tempo, 468750
1, 446976, Tempo, 500000
1, 446976, End_track
2, 0, Start_track
2, 0, Title_t, "Mozart - Piano"
2, 0, Control_c, 0, 0, 0
2, 0, Program_c, 0, 0
2, 0, Control_c, 0, 10, 63
2, 0, Control_c, 0, 91, 67
2, 0, Control_c, 0, 93, 51
2, 0, Key_signature, 1, "major"
2, 0, Control_c, 0, 121, 0
2, 480, Control_c, 0, 91, 63
2, 576, Control_c, 0, 93, 40
2, 672, Program_c, 0, 0
2, 51840, Note_on_c, 0, 71, 67
2, 52028, Note_off_c, 0, 71, 0
2, 52032, Note_on_c, 0, 72, 67
2, 52220, Note_off_c, 0, 72, 0
2, 52224, Note_on_c, 0, 73, 67
2, 52412, Note_off_c, 0, 73, 0
2, 52416, Note_on_c, 0, 74, 67
2, 52604, Note_off_c, 0, 74, 0
2, 52608, Note_on_c, 0, 76, 67
2, 52796, Note_off_c, 0, 76, 0
2, 52800, Note_on_c, 0, 74, 67
2, 52988, Note_off_c, 0, 74, 0
2, 52992, Note_on_c, 0, 74, 67
2, 53084, Note_off_c, 0, 74, 0
2, 53184, Note_on_c, 0, 83, 67
2, 53372, Note_off_c, 0, 83, 0
2, 53376, Note_on_c, 0, 81, 67
2, 53564, Note_off_c, 0, 81, 0
2, 53568, Note_on_c, 0, 79, 67
2, 53756, Note_off_c, 0, 79, 0
2, 53760, Note_on_c, 0, 79, 75
2, 53760, Note_on_c, 0, 72, 75
2, 53760, Note_on_c, 0, 62, 75
2, 53852, Note_off_c, 0, 79, 0
2, 53952, Note_on_c, 0, 84, 77
2, 54140, Note_off_c, 0, 84, 0
2, 54144, Note_on_c, 0, 83, 79
2, 54332, Note_off_c, 0, 83, 0
2, 54336, Note_on_c, 0, 81, 81
2, 54524, Note_off_c, 0, 72, 0
2, 54524, Note_off_c, 0, 62, 0
2, 54524, Note_off_c, 0, 81, 0
2, 54528, Note_on_c, 0, 79, 83
2, 54528, Note_on_c, 0, 64, 83
2, 54528, Note_on_c, 0, 71, 83
2, 54620, Note_off_c, 0, 79, 0
2, 54720, Note_on_c, 0, 86, 85
2, 54908, Note_off_c, 0, 71, 0
2, 54908, Note_off_c, 0, 86, 0
2, 54912, Note_on_c, 0, 84, 87
2, 54912, Note_on_c, 0, 67, 87
2, 55100, Note_off_c, 0, 84, 0
2, 55104, Note_on_c, 0, 83, 89
2, 55292, Note_off_c, 0, 64, 0
2, 55292, Note_off_c, 0, 67, 0
2, 55292, Note_off_c, 0, 83, 0
2, 55296, Note_on_c, 0, 81, 89
2, 55296, Note_on_c, 0, 67, 89
2, 55296, Note_on_c, 0, 60, 89
2, 55388, Note_off_c, 0, 81, 0
2, 55488, Note_on_c, 0, 88, 89
2, 55676, Note_off_c, 0, 88, 0
2, 55680, Note_on_c, 0, 86, 89
2, 55868, Note_off_c, 0, 86, 0
2, 55872, Note_on_c, 0, 84, 89
2, 56060, Note_off_c, 0, 67, 0
2, 56060, Note_off_c, 0, 60, 0
2, 56060, Note_off_c, 0, 84, 0
2, 56064, Note_on_c, 0, 83, 89
2, 56064, Note_on_c, 0, 66, 89
2, 56064, Note_on_c, 0, 62, 89
2, 56252, Note_off_c, 0, 83, 0
2, 56256, Note_on_c, 0, 81, 89
2, 56444, Note_off_c, 0, 81, 0
2, 56448, Note_on_c, 0, 86, 89
2, 56636, Note_off_c, 0, 86, 0
2, 56640, Note_on_c, 0, 84, 89
2, 56828, Note_off_c, 0, 66, 0
2, 56828, Note_off_c, 0, 62, 0
2, 56828, Note_off_c, 0, 84, 0
2, 56832, Note_on_c, 0, 82, 85
2, 57212, Note_off_c, 0, 82, 0
2, 57216, Note_on_c, 0, 83, 81
2, 57216, Note_on_c, 0, 67, 81
2, 57596, Note_off_c, 0, 83, 0
2, 57596, Note_off_c, 0, 67, 0
2, 57600, Note_on_c, 0, 55, 79
2, 57792, Note_on_c, 0, 74, 77
2, 57980, Note_off_c, 0, 55, 0
2, 57980, Note_off_c, 0, 74, 0
2, 57984, Note_on_c, 0, 86, 67
2, 58172, Note_off_c, 0, 86, 0
2, 58176, Note_on_c, 0, 83, 67
2, 58364, Note_off_c, 0, 83, 0
2, 58368, Note_on_c, 0, 83, 67
2, 58368, Note_on_c, 0, 71, 67
2, 58368, Note_on_c, 0, 66, 67
2, 58368, Note_on_c, 0, 75, 67
2, 58556, Note_off_c, 0, 83, 0
2, 58560, Note_on_c, 0, 80, 67
2, 58748, Note_off_c, 0, 80, 0
2, 58752, Note_on_c, 0, 81, 67
2, 58940, Note_off_c, 0, 81, 0
2, 58944, Note_on_c, 0, 83, 67
2, 59132, Note_off_c, 0, 83, 0
2, 59136, Note_on_c, 0, 86, 67
2, 59324, Note_off_c, 0, 86, 0
2, 59328, Note_on_c, 0, 84, 67
2, 59516, Note_off_c, 0, 84, 0
2, 59520, Note_on_c, 0, 83, 67
2, 59708, Note_off_c, 0, 83, 0
2, 59712, Note_on_c, 0, 81, 67
2, 59900, Note_off_c, 0, 71, 0
2, 59900, Note_off_c, 0, 66, 0
2, 59900, Note_off_c, 0, 75, 0
2, 59900, Note_off_c, 0, 81, 0
2, 59904, Note_on_c, 0, 81, 67
2, 59904, Note_on_c, 0, 74, 67
2, 59904, Note_on_c, 0, 64, 67
2, 60092, Note_off_c, 0, 81, 0
2, 60096, Note_on_c, 0, 80, 67
2, 60284, Note_off_c, 0, 74, 0
2, 60284, Note_off_c, 0, 64, 0
2, 60284, Note_off_c, 0, 80, 0
2, 60288, Note_on_c, 0, 83, 67
2, 60288, Note_on_c, 0, 73, 67
2, 60288, Note_on_c, 0, 69, 67
2, 60476, Note_off_c, 0, 83, 0
2, 60480, Note_on_c, 0, 81, 67
2, 60668, Note_off_c, 0, 73, 0
2, 60668, Note_off_c, 0, 69, 0
2, 60668, Note_off_c, 0, 81, 0
2, 60672, Note_on_c, 0, 79, 67
2, 60672, Note_on_c, 0, 72, 67
2, 60672, Note_on_c, 0, 62, 67
2, 60860, Note_off_c, 0, 79, 0
2, 60864, Note_on_c, 0, 78, 67
2, 61052, Note_off_c, 0, 72, 0
2, 61052, Note_off_c, 0, 62, 0
2, 61052, Note_off_c, 0, 78, 0
2, 61056, Note_on_c, 0, 81, 67
2, 61056, Note_on_c, 0, 67, 67
2, 61056, Note_on_c, 0, 71, 67
2, 61244, Note_off_c, 0, 81, 0
2, 61248, Note_on_c, 0, 79, 67
2, 61436, Note_off_c, 0, 67, 0
2, 61436, Note_off_c, 0, 71, 0
2, 61436, Note_off_c, 0, 79, 0
2, 61440, Note_on_c, 0, 78, 67
2, 61628, Note_off_c, 0, 78, 0
2, 61632, Note_on_c, 0, 76, 67
2, 61820, Note_off_c, 0, 76, 0
2, 61824, Note_on_c, 0, 75, 67
2, 62012, Note_off_c, 0, 75, 0
2, 62016, Note_on_c, 0, 76, 67
2, 62204, Note_off_c, 0, 76, 0
2, 62208, Note_on_c, 0, 78, 67
2, 62396, Note_off_c, 0, 78, 0
2, 62400, Note_on_c, 0, 76, 67
2, 62588, Note_off_c, 0, 76, 0
2, 62592, Note_on_c, 0, 79, 67
2, 62780, Note_off_c, 0, 79, 0
2, 62784, Note_on_c, 0, 73, 67
2, 62972, Note_off_c, 0, 73, 0
2, 62976, Note_on_c, 0, 76, 64
2, 63356, Note_off_c, 0, 76, 0
2, 63360, Note_on_c, 0, 74, 60
2, 63740, Note_off_c, 0, 74, 0
2, 64128, Note_on_c, 0, 71, 67
2, 64316, Note_off_c, 0, 71, 0
2, 64320, Note_on_c, 0, 72, 67
2, 64508, Note_off_c, 0, 72, 0
2, 64512, Note_on_c, 0, 73, 67
2, 64700, Note_off_c, 0, 73, 0
2, 64704, Note_on_c, 0, 74, 67
2, 64892, Note_off_c, 0, 74, 0
2, 64896, Note_on_c, 0, 76, 67
2, 65084, Note_off_c, 0, 76, 0
2, 65088, Note_on_c, 0, 74, 67
2, 65276, Note_off_c, 0, 74, 0
2, 65280, Note_on_c, 0, 74, 67
2, 65372, Note_off_c, 0, 74, 0
2, 65472, Note_on_c, 0, 83, 67
2, 65660, Note_off_c, 0, 83, 0
2, 65664, Note_on_c, 0, 81, 67
2, 65852, Note_off_c, 0, 81, 0
2, 65856, Note_on_c, 0, 79, 67
2, 66044, Note_off_c, 0, 79, 0
2, 66048, Note_on_c, 0, 79, 75
2, 66048, Note_on_c, 0, 72, 75
2, 66048, Note_on_c, 0, 62, 75
2, 66140, Note_off_c, 0, 79, 0
2, 66240, Note_on_c, 0, 84, 77
2, 66428, Note_off_c, 0, 84, 0
2, 66432, Note_on_c, 0, 83, 79
2, 66620, Note_off_c, 0, 83, 0
2, 66624, Note_on_c, 0, 81, 81
2, 66812, Note_off_c, 0, 72, 0
2, 66812, Note_off_c, 0, 62, 0
2, 66812, Note_off_c, 0, 81, 0
2, 66816, Note_on_c, 0, 79, 83
2, 66816, Note_on_c, 0, 64, 83
2, 66816, Note_on_c, 0, 71, 83
2, 66908, Note_off_c, 0, 79, 0
2, 67008, Note_on_c, 0, 86, 85
2, 67196, Note_off_c, 0, 71, 0
2, 67196, Note_off_c, 0, 86, 0
2, 67200, Note_on_c, 0, 84, 87
2, 67200, Note_on_c, 0, 67, 87
2, 67388, Note_off_c, 0, 84, 0
2, 67392, Note_on_c, 0, 83, 89
2, 67580, Note_off_c, 0, 64, 0
2, 67580, Note_off_c, 0, 67, 0
2, 67580, Note_off_c, 0, 83, 0
2, 67584, Note_on_c, 0, 81, 89
2, 67584, Note_on_c, 0, 67, 89
2, 67584, Note_on_c, 0, 60, 89
2, 67676, Note_off_c, 0, 81, 0
2, 67776, Note_on_c, 0, 88, 89
2, 67964, Note_off_c, 0, 88, 0
2, 67968, Note_on_c, 0, 86, 89
2, 68156, Note_off_c, 0, 86, 0
2, 68160, Note_on_c, 0, 84, 89
2, 68348, Note_off_c, 0, 67, 0
2, 68348, Note_off_c, 0, 60, 0
2, 68348, Note_off_c, 0, 84, 0
2, 68352, Note_on_c, 0, 83, 89
2, 68352, Note_on_c, 0, 66, 89
2, 68352, Note_on_c, 0, 62, 89
2, 68540, Note_off_c, 0, 83, 0
2, 68544, Note_on_c, 0, 81, 89
2, 68732, Note_off_c, 0, 81, 0
2, 68736, Note_on_c, 0, 86, 89
2, 68924, Note_off_c, 0, 86, 0
2, 68928, Note_on_c, 0, 84, 89
2, 69116, Note_off_c, 0, 66, 0
2, 69116, Note_off_c, 0, 62, 0
2, 69116, Note_off_c, 0, 84, 0
2, 69120, Note_on_c, 0, 82, 87
2, 69500, Note_off_c, 0, 82, 0
2, 69504, Note_on_c, 0, 83, 83
2, 69504, Note_on_c, 0, 67, 83
2, 69884, Note_off_c, 0, 83, 0
2, 69884, Note_off_c, 0, 67, 0
2, 69888, Note_on_c, 0, 55, 78
2, 70080, Note_on_c, 0, 74, 72
2, 70268, Note_off_c, 0, 55, 0
2, 70268, Note_off_c, 0, 74, 0
2, 70272, Note_on_c, 0, 86, 67
2, 70460, Note_off_c, 0, 86, 0
2, 70464, Note_on_c, 0, 83, 67
2, 70652, Note_off_c, 0, 83, 0
2, 70656, Note_on_c, 0, 83, 67
2, 70656, Note_on_c, 0, 71, 67
2, 70656, Note_on_c, 0, 66, 67
2, 70656, Note_on_c, 0, 75, 67
2, 70844, Note_off_c, 0, 83, 0
2, 70848, Note_on_c, 0, 80, 67
2, 71036, Note_off_c, 0, 80, 0
2, 71040, Note_on_c, 0, 81, 67
2, 71228, Note_off_c, 0, 81, 0
2, 71232, Note_on_c, 0, 83, 67
2, 71420, Note_off_c, 0, 83, 0
2, 71424, Note_on_c, 0, 86, 67
2, 71612, Note_off_c, 0, 86, 0
2, 71616, Note_on_c, 0, 84, 67
2, 71804, Note_off_c, 0, 84, 0
2, 71808, Note_on_c, 0, 83, 67
2, 71996, Note_off_c, 0, 83, 0
2, 72000, Note_on_c, 0, 81, 67
2, 72188, Note_off_c, 0, 71, 0
2, 72188, Note_off_c, 0, 66, 0
2, 72188, Note_off_c, 0, 75, 0
2, 72188, Note_off_c, 0, 81, 0
2, 72192, Note_on_c, 0, 81, 67
2, 72192, Note_on_c, 0, 74, 67
2, 72192, Note_on_c, 0, 64, 67
2, 72380, Note_off_c, 0, 81, 0
2, 72384, Note_on_c, 0, 80, 67
2, 72572, Note_off_c, 0, 74, 0
2, 72572, Note_off_c, 0, 64, 0
2, 72572, Note_off_c, 0, 80, 0
2, 72576, Note_on_c, 0, 83, 67
2, 72576, Note_on_c, 0, 73, 67
2, 72576, Note_on_c, 0, 69, 67
2, 72764, Note_off_c, 0, 83, 0
2, 72768, Note_on_c, 0, 81, 67
2, 72956, Note_off_c, 0, 73, 0
2, 72956, Note_off_c, 0, 69, 0
2, 72956, Note_off_c, 0, 81, 0
2, 72960, Note_on_c, 0, 79, 67
2, 72960, Note_on_c, 0, 72, 67
2, 72960, Note_on_c, 0, 62, 67
2, 73148, Note_off_c, 0, 79, 0
2, 73152, Note_on_c, 0, 78, 67
2, 73340, Note_off_c, 0, 72, 0
2, 73340, Note_off_c, 0, 62, 0
2, 73340, Note_off_c, 0, 78, 0
2, 73344, Note_on_c, 0, 81, 67
2, 73344, Note_on_c, 0, 67, 67
2, 73344, Note_on_c, 0, 71, 67
2, 73532, Note_off_c, 0, 81, 0
2, 73536, Note_on_c, 0, 79, 67
2, 73724, Note_off_c, 0, 67, 0
2, 73724, Note_off_c, 0, 71, 0
2, 73724, Note_off_c, 0, 79, 0
2, 73728, Note_on_c, 0, 78, 67
2, 73916, Note_off_c, 0, 78, 0
2, 73920, Note_on_c, 0, 76, 67
2, 74108, Note_off_c, 0, 76, 0
2, 74112, Note_on_c, 0, 75, 67
2, 74300, Note_off_c, 0, 75, 0
2, 74304, Note_on_c, 0, 76, 67
2, 74492, Note_off_c, 0, 76, 0
2, 74496, Note_on_c, 0, 78, 67
2, 74684, Note_off_c, 0, 78, 0
2, 74688, Note_on_c, 0, 76, 67
2, 74876, Note_off_c, 0, 76, 0
2, 74880, Note_on_c, 0, 79, 67
2, 75068, Note_off_c, 0, 79, 0
2, 75072, Note_on_c, 0, 73, 67
2, 75260, Note_off_c, 0, 73, 0
2, 75264, Note_on_c, 0, 76, 64
2, 75644, Note_off_c, 0, 76, 0
2, 75648, Note_on_c, 0, 74, 60
2, 76028, Note_off_c, 0, 74, 0
2, 76416, Note_on_c, 0, 78, 89
2, 76604, Note_off_c, 0, 78, 0
2, 76608, Note_on_c, 0, 74, 89
2, 76796, Note_off_c, 0, 74, 0
2, 76800, Note_on_c, 0, 69, 89
2, 76800, Note_on_c, 0, 64, 89
2, 76800, Note_on_c, 0, 61, 89
2, 76988, Note_off_c, 0, 69, 0
2, 76992, Note_on_c, 0, 81, 89
2, 77180, Note_off_c, 0, 81, 0
2, 77184, Note_on_c, 0, 81, 89
2, 77276, Note_off_c, 0, 81, 0
2, 77376, Note_on_c, 0, 81, 89
2, 77468, Note_off_c, 0, 81, 0
2, 77568, Note_on_c, 0, 80, 89
2, 77756, Note_off_c, 0, 80, 0
2, 77760, Note_on_c, 0, 81, 89
2, 77948, Note_off_c, 0, 81, 0
2, 77952, Note_on_c, 0, 83, 89
2, 78140, Note_off_c, 0, 83, 0
2, 78144, Note_on_c, 0, 81, 89
2, 78332, Note_off_c, 0, 64, 0
2, 78332, Note_off_c, 0, 61, 0
2, 78332, Note_off_c, 0, 81, 0
2, 78336, Note_on_c, 0, 79, 89
2, 78716, Note_off_c, 0, 79, 0
2, 78720, Note_on_c, 0, 78, 89
2, 78720, Note_on_c, 0, 69, 89
2, 78720, Note_on_c, 0, 62, 89
2, 79100, Note_off_c, 0, 78, 0
2, 79100, Note_off_c, 0, 69, 0
2, 79100, Note_off_c, 0, 62, 0
2, 79104, Note_on_c, 0, 69, 89
2, 79104, Note_on_c, 0, 62, 89
2, 79484, Note_off_c, 0, 69, 0
2, 79488, Note_on_c, 0, 78, 89
2, 79488, Note_on_c, 0, 66, 89
2, 79648, Note_on_c, 0, 74, 89
2, 79676, Note_off_c, 0, 78, 0
2, 79836, Note_off_c, 0, 74, 0
2, 79868, Note_off_c, 0, 62, 0
2, 79868, Note_off_c, 0, 66, 0
2, 79872, Note_on_c, 0, 69, 79
2, 79872, Note_on_c, 0, 64, 79
2, 79872, Note_on_c, 0, 61, 79
2, 80060, Note_off_c, 0, 69, 0
2, 80064, Note_on_c, 0, 81, 79
2, 80252, Note_off_c, 0, 81, 0
2, 80256, Note_on_c, 0, 81, 79
2, 80348, Note_off_c, 0, 81, 0
2, 80448, Note_on_c, 0, 81, 79
2, 80540, Note_off_c, 0, 81, 0
2, 80640, Note_on_c, 0, 80, 79
2, 80828, Note_off_c, 0, 80, 0
2, 80832, Note_on_c, 0, 81, 79
2, 81020, Note_off_c, 0, 81, 0
2, 81024, Note_on_c, 0, 83, 79
2, 81212, Note_off_c, 0, 83, 0
2, 81216, Note_on_c, 0, 81, 79
2, 81404, Note_off_c, 0, 64, 0
2, 81404, Note_off_c, 0, 61, 0
2, 81404, Note_off_c, 0, 81, 0
2, 81408, Note_on_c, 0, 79, 79
2, 81788, Note_off_c, 0, 79, 0
2, 81792, Note_on_c, 0, 78, 79
2, 81792, Note_on_c, 0, 62, 79
2, 81792, Note_on_c, 0, 60, 79
2, 82172, Note_off_c, 0, 78, 0
2, 82172, Note_off_c, 0, 62, 0
2, 82172, Note_off_c, 0, 60, 0
2, 82176, Note_on_c, 0, 62, 79
2, 82176, Note_on_c, 0, 60, 79
2, 82556, Note_off_c, 0, 62, 0
2, 82560, Note_on_c, 0, 81, 89
2, 82560, Note_on_c, 0, 66, 89
2, 82748, Note_off_c, 0, 81, 0
2, 82752, Note_on_c, 0, 78, 89
2, 82940, Note_off_c, 0, 60, 0
2, 82940, Note_off_c, 0, 66, 0
2, 82940, Note_off_c, 0, 78, 0
2, 82944, Note_on_c, 0, 74, 89
2, 82944, Note_on_c, 0, 67, 89
2, 82944, Note_on_c, 0, 59, 89
2, 83132, Note_off_c, 0, 74, 0
2, 83136, Note_on_c, 0, 86, 89
2, 83324, Note_off_c, 0, 59, 0
2, 83324, Note_off_c, 0, 86, 0
2, 83328, Note_on_c, 0, 86, 89
2, 83328, Note_on_c, 0, 59, 89
2, 83420, Note_off_c, 0, 86, 0
2, 83520, Note_on_c, 0, 86, 89
2, 83612, Note_off_c, 0, 86, 0
2, 83708, Note_off_c, 0, 59, 0
2, 83712, Note_on_c, 0, 86, 89
2, 83712, Note_on_c, 0, 57, 89
2, 83900, Note_off_c, 0, 86, 0
2, 83904, Note_on_c, 0, 85, 89
2, 84092, Note_off_c, 0, 67, 0
2, 84092, Note_off_c, 0, 57, 0
2, 84092, Note_off_c, 0, 85, 0
2, 84096, Note_on_c, 0, 88, 89
2, 84096, Note_on_c, 0, 67, 89
2, 84096, Note_on_c, 0, 62, 89
2, 84284, Note_off_c, 0, 88, 0
2, 84288, Note_on_c, 0, 86, 89
2, 84476, Note_off_c, 0, 67, 0
2, 84476, Note_off_c, 0, 62, 0
2, 84476, Note_off_c, 0, 86, 0
2, 84480, Note_on_c, 0, 84, 89
2, 84480, Note_on_c, 0, 55, 89
2, 84480, Note_on_c, 0, 65, 89
2, 84668, Note_off_c, 0, 84, 0
2, 84672, Note_on_c, 0, 83, 89
2, 84860, Note_off_c, 0, 55, 0
2, 84860, Note_off_c, 0, 65, 0
2, 84860, Note_off_c, 0, 83, 0
2, 84864, Note_on_c, 0, 86, 89
2, 84864, Note_on_c, 0, 64, 89
2, 84864, Note_on_c, 0, 60, 89
2, 85052, Note_off_c, 0, 86, 0
2, 85056, Note_on_c, 0, 84, 89
2, 85244, Note_off_c, 0, 64, 0
2, 85244, Note_off_c, 0, 60, 0
2, 85244, Note_off_c, 0, 84, 0
2, 85248, Note_on_c, 0, 83, 89
2, 85436, Note_off_c, 0, 83, 0
2, 85440, Note_on_c, 0, 81, 89
2, 85628, Note_off_c, 0, 81, 0
2, 85632, Note_on_c, 0, 84, 89
2, 85632, Note_on_c, 0, 72, 89
2, 85632, Note_on_c, 0, 62, 89
2, 85820, Note_off_c, 0, 84, 0
2, 85824, Note_on_c, 0, 83, 89
2, 86012, Note_off_c, 0, 72, 0
2, 86012, Note_off_c, 0, 62, 0
2, 86012, Note_off_c, 0, 83, 0
2, 86016, Note_on_c, 0, 81, 89
2, 86016, Note_on_c, 0, 71, 89
2, 86016, Note_on_c, 0, 64, 89
2, 86204, Note_off_c, 0, 81, 0
2, 86208, Note_on_c, 0, 79, 89
2, 86396, Note_off_c, 0, 64, 0
2, 86396, Note_off_c, 0, 79, 0
2, 86400, Note_on_c, 0, 79, 89
2, 86400, Note_on_c, 0, 61, 89
2, 86492, Note_off_c, 0, 79, 0
2, 86592, Note_on_c, 0, 79, 89
2, 86684, Note_off_c, 0, 79, 0
2, 86780, Note_off_c, 0, 71, 0
2, 86780, Note_off_c, 0, 61, 0
2, 86784, Note_on_c, 0, 79, 89
2, 86784, Note_on_c, 0, 62, 89
2, 86784, Note_on_c, 0, 71, 89
2, 86972, Note_off_c, 0, 79, 0
2, 86972, Note_off_c, 0, 71, 0
2, 86976, Note_on_c, 0, 83, 89
2, 86976, Note_on_c, 0, 67, 89
2, 87164, Note_off_c, 0, 83, 0
2, 87164, Note_off_c, 0, 67, 0
2, 87168, Note_on_c, 0, 84, 89
2, 87168, Note_on_c, 0, 69, 89
2, 87356, Note_off_c, 0, 84, 0
2, 87356, Note_off_c, 0, 69, 0
2, 87360, Note_on_c, 0, 81, 89
2, 87360, Note_on_c, 0, 66, 89
2, 87548, Note_off_c, 0, 62, 0
2, 87548, Note_off_c, 0, 81, 0
2, 87548, Note_off_c, 0, 66, 0
2, 87552, Note_on_c, 0, 79, 89
2, 87552, Note_on_c, 0, 67, 89
2, 87932, Note_off_c, 0, 79, 0
2, 87932, Note_off_c, 0, 67, 0
2, 87936, Note_on_c, 0, 62, 89
2, 88316, Note_off_c, 0, 62, 0
2, 88320, Note_on_c, 0, 55, 89
2, 88700, Note_off_c, 0, 55, 0
2, 88704, Note_on_c, 0, 78, 89
2, 88892, Note_off_c, 0, 78, 0
2, 88896, Note_on_c, 0, 74, 89
2, 89084, Note_off_c, 0, 74, 0
2, 89088, Note_on_c, 0, 69, 89
2, 89088, Note_on_c, 0, 64, 89
2, 89088, Note_on_c, 0, 61, 89
2, 89276, Note_off_c, 0, 69, 0
2, 89280, Note_on_c, 0, 81, 89
2, 89468, Note_off_c, 0, 81, 0
2, 89472, Note_on_c, 0, 81, 89
2, 89564, Note_off_c, 0, 81, 0
2, 89664, Note_on_c, 0, 81, 89
2, 89756, Note_off_c, 0, 81, 0
2, 89856, Note_on_c, 0, 80, 89
2, 90044, Note_off_c, 0, 80, 0
2, 90048, Note_on_c, 0, 81, 89
2, 90236, Note_off_c, 0, 81, 0
2, 90240, Note_on_c, 0, 83, 89
2, 90428, Note_off_c, 0, 83, 0
2, 90432, Note_on_c, 0, 81, 89
2, 90620, Note_off_c, 0, 64, 0
2, 90620, Note_off_c, 0, 61, 0
2, 90620, Note_off_c, 0, 81, 0
2, 90624, Note_on_c, 0, 79, 89
2, 91004, Note_off_c, 0, 79, 0
2, 91008, Note_on_c, 0, 78, 89
2, 91008, Note_on_c, 0, 69, 89
2, 91008, Note_on_c, 0, 62, 89
2, 91388, Note_off_c, 0, 78, 0
2, 91388, Note_off_c, 0, 69, 0
2, 91388, Note_off_c, 0, 62, 0
2, 91392, Note_on_c, 0, 69, 89
2, 91392, Note_on_c, 0, 62, 89
2, 91772, Note_off_c, 0, 69, 0
2, 91776, Note_on_c, 0, 78, 89
2, 91776, Note_on_c, 0, 66, 89
2, 91964, Note_off_c, 0, 78, 0
2, 91968, Note_on_c, 0, 74, 89
2, 92156, Note_off_c, 0, 62, 0
2, 92156, Note_off_c, 0, 66, 0
2, 92156, Note_off_c, 0, 74, 0
2, 92160, Note_on_c, 0, 69, 79
2, 92160, Note_on_c, 0, 64, 79
2, 92160, Note_on_c, 0, 61, 79
2, 92348, Note_off_c, 0, 69, 0
2, 92352, Note_on_c, 0, 81, 79
2, 92540, Note_off_c, 0, 81, 0
2, 92544, Note_on_c, 0, 81, 79
2, 92636, Note_off_c, 0, 81, 0
2, 92736, Note_on_c, 0, 81, 79
2, 92828, Note_off_c, 0, 81, 0
2, 92928, Note_on_c, 0, 80, 79
2, 93116, Note_off_c, 0, 80, 0
2, 93120, Note_on_c, 0, 81, 79
2, 93308, Note_off_c, 0, 81, 0
2, 93312, Note_on_c, 0, 83, 79
2, 93500, Note_off_c, 0, 83, 0
2, 93504, Note_on_c, 0, 81, 79
2, 93692, Note_off_c, 0, 64, 0
2, 93692, Note_off_c, 0, 61, 0
2, 93692, Note_off_c, 0, 81, 0
2, 93696, Note_on_c, 0, 79, 79
2, 94076, Note_off_c, 0, 79, 0
2, 94080, Note_on_c, 0, 78, 79
2, 94080, Note_on_c, 0, 62, 79
2, 94080, Note_on_c, 0, 60, 79
2, 94460, Note_off_c, 0, 78, 0
2, 94460, Note_off_c, 0, 62, 0
2, 94460, Note_off_c, 0, 60, 0
2, 94464, Note_on_c, 0, 62, 79
2, 94464, Note_on_c, 0, 60, 79
2, 94844, Note_off_c, 0, 62, 0
2, 94848, Note_on_c, 0, 81, 89
2, 94848, Note_on_c, 0, 66, 89
2, 95036, Note_off_c, 0, 81, 0
2, 95040, Note_on_c, 0, 78, 89
2, 95228, Note_off_c, 0, 60, 0
2, 95228, Note_off_c, 0, 66, 0
2, 95228, Note_off_c, 0, 78, 0
2, 95232, Note_on_c, 0, 74, 89
2, 95232, Note_on_c, 0, 67, 89
2, 95232, Note_on_c, 0, 59, 89
2, 95420, Note_off_c, 0, 74, 0
2, 95424, Note_on_c, 0, 86, 89
2, 95612, Note_off_c, 0, 59, 0
2, 95612, Note_off_c, 0, 86, 0
2, 95616, Note_on_c, 0, 86, 89
2, 95616, Note_on_c, 0, 59, 89
2, 95708, Note_off_c, 0, 86, 0
2, 95808, Note_on_c, 0, 86, 89
2, 95900, Note_off_c, 0, 86, 0
2, 95996, Note_off_c, 0, 59, 0
2, 96000, Note_on_c, 0, 86, 89
2, 96000, Note_on_c, 0, 57, 89
2, 96188, Note_off_c, 0, 86, 0
2, 96192, Note_on_c, 0, 85, 89
2, 96380, Note_off_c, 0, 67, 0
2, 96380, Note_off_c, 0, 57, 0
2, 96380, Note_off_c, 0, 85, 0
2, 96384, Note_on_c, 0, 88, 89
2, 96384, Note_on_c, 0, 67, 89
2, 96384, Note_on_c, 0, 62, 89
2, 96572, Note_off_c, 0, 88, 0
2, 96576, Note_on_c, 0, 86, 89
2, 96764, Note_off_c, 0, 67, 0
2, 96764, Note_off_c, 0, 62, 0
2, 96764, Note_off_c, 0, 86, 0
2, 96768, Note_on_c, 0, 84, 89
2, 96768, Note_on_c, 0, 55, 89
2, 96768, Note_on_c, 0, 65, 89
2, 96956, Note_off_c, 0, 84, 0
2, 96960, Note_on_c, 0, 83, 89
2, 97148, Note_off_c, 0, 55, 0
2, 97148, Note_off_c, 0, 65, 0
2, 97148, Note_off_c, 0, 83, 0
2, 97152, Note_on_c, 0, 86, 89
2, 97152, Note_on_c, 0, 64, 89
2, 97152, Note_on_c, 0, 60, 89
2, 97340, Note_off_c, 0, 86, 0
2, 97344, Note_on_c, 0, 84, 89
2, 97532, Note_off_c, 0, 64, 0
2, 97532, Note_off_c, 0, 60, 0
2, 97532, Note_off_c, 0, 84, 0
2, 97536, Note_on_c, 0, 83, 89
2, 97724, Note_off_c, 0, 83, 0
2, 97728, Note_on_c, 0, 81, 89
2, 97916, Note_off_c, 0, 81, 0
2, 97920, Note_on_c, 0, 84, 89
2, 97920, Note_on_c, 0, 72, 89
2, 97920, Note_on_c, 0, 62, 89
2, 98108, Note_off_c, 0, 84, 0
2, 98112, Note_on_c, 0, 83, 89
2, 98300, Note_off_c, 0, 72, 0
2, 98300, Note_off_c, 0, 62, 0
2, 98300, Note_off_c, 0, 83, 0
2, 98304, Note_on_c, 0, 81, 89
2, 98304, Note_on_c, 0, 71, 89
2, 98304, Note_on_c, 0, 64, 89
2, 98492, Note_off_c, 0, 81, 0
2, 98496, Note_on_c, 0, 79, 89
2, 98684, Note_off_c, 0, 64, 0
2, 98684, Note_off_c, 0, 79, 0
2, 98688, Note_on_c, 0, 79, 89
2, 98688, Note_on_c, 0, 61, 89
2, 98780, Note_off_c, 0, 79, 0
2, 98880, Note_on_c, 0, 79, 89
2, 98972, Note_off_c, 0, 79, 0
2, 99068, Note_off_c, 0, 71, 0
2, 99068, Note_off_c, 0, 61, 0
2, 99072, Note_on_c, 0, 79, 89
2, 99072, Note_on_c, 0, 62, 89
2, 99072, Note_on_c, 0, 71, 89
2, 99260, Note_off_c, 0, 79, 0
2, 99260, Note_off_c, 0, 71, 0
2, 99264, Note_on_c, 0, 83, 89
2, 99264, Note_on_c, 0, 67, 89
2, 99452, Note_off_c, 0, 83, 0
2, 99452, Note_off_c, 0, 67, 0
2, 99456, Note_on_c, 0, 84, 89
2, 99456, Note_on_c, 0, 69, 89
2, 99644, Note_off_c, 0, 84, 0
2, 99644, Note_off_c, 0, 69, 0
2, 99648, Note_on_c, 0, 81, 89
2, 99648, Note_on_c, 0, 66, 89
2, 99836, Note_off_c, 0, 62, 0
2, 99836, Note_off_c, 0, 81, 0
2, 99836, Note_off_c, 0, 66, 0
2, 99840, Note_on_c, 0, 79, 89
2, 99840, Note_on_c, 0, 67, 89
2, 100220, Note_off_c, 0, 79, 0
2, 100220, Note_off_c, 0, 67, 0
2, 100224, Note_on_c, 0, 62, 89
2, 100604, Note_off_c, 0, 62, 0
2, 100608, Note_on_c, 0, 55, 89
2, 100988, Note_off_c, 0, 55, 0
2, 101376, Note_on_c, 0, 79, 67
2, 101500, Note_off_c, 0, 79, 0
2, 101504, Note_on_c, 0, 83, 67
2, 101628, Note_off_c, 0, 83, 0
2, 101632, Note_on_c, 0, 81, 67
2, 101756, Note_off_c, 0, 81, 0
2, 101760, Note_on_c, 0, 79, 67
2, 101884, Note_off_c, 0, 79, 0
2, 101888, Note_on_c, 0, 78, 67
2, 102012, Note_off_c, 0, 78, 0
2, 102016, Note_on_c, 0, 76, 67
2, 102140, Note_off_c, 0, 76, 0
2, 102144, Note_on_c, 0, 74, 67
2, 102268, Note_off_c, 0, 74, 0
2, 102272, Note_on_c, 0, 76, 67
2, 102396, Note_off_c, 0, 76, 0
2, 102400, Note_on_c, 0, 72, 67
2, 102524, Note_off_c, 0, 72, 0
2, 102528, Note_on_c, 0, 71, 67
2, 102652, Note_off_c, 0, 71, 0
2, 102656, Note_on_c, 0, 69, 67
2, 102780, Note_off_c, 0, 69, 0
2, 102784, Note_on_c, 0, 67, 67
2, 102908, Note_off_c, 0, 67, 0
2, 102912, Note_on_c, 0, 72, 67
2, 103036, Note_off_c, 0, 72, 0
2, 103040, Note_on_c, 0, 69, 67
2, 103164, Note_off_c, 0, 69, 0
2, 103168, Note_on_c, 0, 66, 67
2, 103292, Note_off_c, 0, 66, 0
2, 103296, Note_on_c, 0, 62, 67
2, 103420, Note_off_c, 0, 62, 0
2, 103424, Note_on_c, 0, 64, 68
2, 103548, Note_off_c, 0, 64, 0
2, 103552, Note_on_c, 0, 60, 69
2, 103676, Note_off_c, 0, 60, 0
2, 103680, Note_on_c, 0, 59, 70
2, 103804, Note_off_c, 0, 59, 0
2, 103808, Note_on_c, 0, 71, 67
2, 103932, Note_off_c, 0, 71, 0
2, 103936, Note_on_c, 0, 69, 67
2, 104060, Note_off_c, 0, 69, 0
2, 104064, Note_on_c, 0, 67, 67
2, 104188, Note_off_c, 0, 67, 0
2, 104192, Note_on_c, 0, 69, 67
2, 104316, Note_off_c, 0, 69, 0
2, 104320, Note_on_c, 0, 66, 67
2, 104444, Note_off_c, 0, 66, 0
2, 104448, Note_on_c, 0, 64, 67
2, 104572, Note_off_c, 0, 64, 0
2, 104576, Note_on_c, 0, 72, 67
2, 104700, Note_off_c, 0, 72, 0
2, 104704, Note_on_c, 0, 71, 67
2, 104828, Note_off_c, 0, 71, 0
2, 104832, Note_on_c, 0, 69, 67
2, 104956, Note_off_c, 0, 69, 0
2, 104960, Note_on_c, 0, 71, 67
2, 105084, Note_off_c, 0, 71, 0
2, 105088, Note_on_c, 0, 67, 67
2, 105212, Note_off_c, 0, 67, 0
2, 105216, Note_on_c, 0, 66, 67
2, 105340, Note_off_c, 0, 66, 0
2, 105344, Note_on_c, 0, 69, 67
2, 105468, Note_off_c, 0, 69, 0
2, 105472, Note_on_c, 0, 67, 67
2, 105596, Note_off_c, 0, 67, 0
2, 105600, Note_on_c, 0, 66, 67
2, 105724, Note_off_c, 0, 66, 0
2, 105728, Note_on_c, 0, 64, 67
2, 105852, Note_off_c, 0, 64, 0
2, 105856, Note_on_c, 0, 66, 67
2, 105980, Note_off_c, 0, 66, 0
2, 105984, Note_on_c, 0, 67, 69
2, 106108, Note_off_c, 0, 67, 0
2, 106112, Note_on_c, 0, 71, 75
2, 106236, Note_off_c, 0, 71, 0
2, 106240, Note_on_c, 0, 72, 81
2, 106364, Note_off_c, 0, 72, 0
2, 106368, Note_on_c, 0, 74, 85
2, 106492, Note_off_c, 0, 74, 0
2, 106496, Note_on_c, 0, 76, 89
2, 106620, Note_off_c, 0, 76, 0
2, 106624, Note_on_c, 0, 78, 89
2, 106748, Note_off_c, 0, 78, 0
2, 106752, Note_on_c, 0, 79, 89
2, 106876, Note_off_c, 0, 79, 0
2, 106880, Note_on_c, 0, 83, 89
2, 107004, Note_off_c, 0, 83, 0
2, 107008, Note_on_c, 0, 81, 83
2, 107132, Note_off_c, 0, 81, 0
2, 107136, Note_on_c, 0, 79, 79
2, 107260, Note_off_c, 0, 79, 0
2, 107264, Note_on_c, 0, 78, 73
2, 107388, Note_off_c, 0, 78, 0
2, 107392, Note_on_c, 0, 79, 69
2, 107516, Note_off_c, 0, 79, 0
2, 107520, Note_on_c, 0, 78, 67
2, 107644, Note_off_c, 0, 78, 0
2, 107648, Note_on_c, 0, 81, 67
2, 107772, Note_off_c, 0, 81, 0
2, 107776, Note_on_c, 0, 79, 67
2, 107900, Note_off_c, 0, 79, 0
2, 107904, Note_on_c, 0, 78, 67
2, 108028, Note_off_c, 0, 78, 0
2, 108032, Note_on_c, 0, 79, 67
2, 108156, Note_off_c, 0, 79, 0
2, 108160, Note_on_c, 0, 76, 67
2, 108284, Note_off_c, 0, 76, 0
2, 108288, Note_on_c, 0, 75, 67
2, 108412, Note_off_c, 0, 75, 0
2, 108416, Note_on_c, 0, 76, 67
2, 108540, Note_off_c, 0, 76, 0
2, 108544, Note_on_c, 0, 73, 67
2, 108668, Note_off_c, 0, 73, 0
2, 108672, Note_on_c, 0, 75, 67
2, 108796, Note_off_c, 0, 75, 0
2, 108800, Note_on_c, 0, 73, 67
2, 108924, Note_off_c, 0, 73, 0
2, 108928, Note_on_c, 0, 75, 67
2, 109052, Note_off_c, 0, 75, 0
2, 109056, Note_on_c, 0, 76, 67
2, 109180, Note_off_c, 0, 76, 0
2, 109184, Note_on_c, 0, 74, 67
2, 109308, Note_off_c, 0, 74, 0
2, 109312, Note_on_c, 0, 76, 67
2, 109436, Note_off_c, 0, 76, 0
2, 109440, Note_on_c, 0, 73, 67
2, 109564, Note_off_c, 0, 73, 0
2, 109568, Note_on_c, 0, 71, 67
2, 109692, Note_off_c, 0, 71, 0
2, 109696, Note_on_c, 0, 73, 67
2, 109820, Note_off_c, 0, 73, 0
2, 109824, Note_on_c, 0, 74, 67
2, 109948, Note_off_c, 0, 74, 0
2, 109952, Note_on_c, 0, 78, 67
2, 110076, Note_off_c, 0, 78, 0
2, 110080, Note_on_c, 0, 76, 67
2, 110204, Note_off_c, 0, 76, 0
2, 110208, Note_on_c, 0, 74, 67
2, 110332, Note_off_c, 0, 74, 0
2, 110336, Note_on_c, 0, 76, 67
2, 110460, Note_off_c, 0, 76, 0
2, 110464, Note_on_c, 0, 73, 67
2, 110588, Note_off_c, 0, 73, 0
2, 110592, Note_on_c, 0, 71, 67
2, 110716, Note_off_c, 0, 71, 0
2, 110720, Note_on_c, 0, 72, 67
2, 110844, Note_off_c, 0, 72, 0
2, 110848, Note_on_c, 0, 69, 67
2, 110972, Note_off_c, 0, 69, 0
2, 110976, Note_on_c, 0, 67, 67
2, 111100, Note_off_c, 0, 67, 0
2, 111104, Note_on_c, 0, 69, 67
2, 111228, Note_off_c, 0, 69, 0
2, 111232, Note_on_c, 0, 66, 67
2, 111356, Note_off_c, 0, 66, 0
2, 111360, Note_on_c, 0, 64, 67
2, 111484, Note_off_c, 0, 64, 0
2, 111488, Note_on_c, 0, 67, 67
2, 111612, Note_off_c, 0, 67, 0
2, 111616, Note_on_c, 0, 66, 67
2, 111740, Note_off_c, 0, 66, 0
2, 111744, Note_on_c, 0, 67, 67
2, 111868, Note_off_c, 0, 67, 0
2, 111872, Note_on_c, 0, 64, 67
2, 111996, Note_off_c, 0, 64, 0
2, 112000, Note_on_c, 0, 69, 67
2, 112124, Note_off_c, 0, 69, 0
2, 112128, Note_on_c, 0, 66, 69
2, 112252, Note_off_c, 0, 66, 0
2, 112256, Note_on_c, 0, 69, 78
2, 112380, Note_off_c, 0, 69, 0
2, 112384, Note_on_c, 0, 74, 85
2, 112508, Note_off_c, 0, 74, 0
2, 112512, Note_on_c, 0, 78, 89
2, 112636, Note_off_c, 0, 78, 0
2, 112640, Note_on_c, 0, 81, 89
2, 112764, Note_off_c, 0, 81, 0
2, 112768, Note_on_c, 0, 85, 89
2, 112892, Note_off_c, 0, 85, 0
2, 112896, Note_on_c, 0, 86, 89
2, 113276, Note_off_c, 0, 86, 0
2, 113280, Note_on_c, 0, 71, 67
2, 113280, Note_on_c, 0, 67, 67
2, 113468, Note_off_c, 0, 71, 0
2, 113468, Note_off_c, 0, 67, 0
2, 113472, Note_on_c, 0, 72, 67
2, 113472, Note_on_c, 0, 69, 67
2, 113660, Note_off_c, 0, 72, 0
2, 113660, Note_off_c, 0, 69, 0
2, 113664, Note_on_c, 0, 74, 67
2, 113664, Note_on_c, 0, 71, 67
2, 114044, Note_off_c, 0, 74, 0
2, 114044, Note_off_c, 0, 71, 0
2, 114048, Note_on_c, 0, 74, 67
2, 114048, Note_on_c, 0, 71, 67
2, 114428, Note_off_c, 0, 74, 0
2, 114428, Note_off_c, 0, 71, 0
2, 114432, Note_on_c, 0, 74, 67
2, 114432, Note_on_c, 0, 71, 67
2, 114812, Note_off_c, 0, 74, 0
2, 114816, Note_on_c, 0, 79, 67
2, 115196, Note_off_c, 0, 71, 0
2, 115196, Note_off_c, 0, 79, 0
2, 115200, Note_on_c, 0, 79, 67
2, 115200, Note_on_c, 0, 74, 67
2, 115200, Note_on_c, 0, 69, 67
2, 115580, Note_off_c, 0, 79, 0
2, 115580, Note_off_c, 0, 74, 0
2, 115580, Note_off_c, 0, 69, 0
2, 115584, Note_on_c, 0, 78, 67
2, 115964, Note_off_c, 0, 78, 0
2, 115968, Note_on_c, 0, 74, 67
2, 115968, Note_on_c, 0, 71, 67
2, 115968, Note_on_c, 0, 79, 67
2, 116348, Note_off_c, 0, 74, 0
2, 116348, Note_off_c, 0, 71, 0
2, 116348, Note_off_c, 0, 79, 0
2, 116352, Note_on_c, 0, 79, 67
2, 116732, Note_off_c, 0, 79, 0
2, 116736, Note_on_c, 0, 81, 67
2, 116736, Note_on_c, 0, 79, 67
2, 116736, Note_on_c, 0, 76, 67
2, 117116, Note_off_c, 0, 81, 0
2, 117120, Note_on_c, 0, 81, 67
2, 117500, Note_off_c, 0, 79, 0
2, 117500, Note_off_c, 0, 76, 0
2, 117500, Note_off_c, 0, 81, 0
2, 117504, Note_on_c, 0, 81, 67
2, 117504, Note_on_c, 0, 78, 67
2, 117692, Note_off_c, 0, 81, 0
2, 117696, Note_on_c, 0, 83, 67
2, 117884, Note_off_c, 0, 78, 0
2, 117884, Note_off_c, 0, 83, 0
2, 117888, Note_on_c, 0, 84, 67
2, 118076, Note_off_c, 0, 84, 0
2, 118080, Note_on_c, 0, 81, 67
2, 118268, Note_off_c, 0, 81, 0
2, 118272, Note_on_c, 0, 79, 67
2, 118272, Note_on_c, 0, 83, 67
2, 119036, Note_off_c, 0, 79, 0
2, 119036, Note_off_c, 0, 83, 0
2, 119424, Note_on_c, 0, 83, 67
2, 119424, Note_on_c, 0, 86, 67
2, 119612, Note_off_c, 0, 83, 0
2, 119612, Note_off_c, 0, 86, 0
2, 119616, Note_on_c, 0, 79, 67
2, 119616, Note_on_c, 0, 83, 67
2, 119804, Note_off_c, 0, 79, 0
2, 119804, Note_off_c, 0, 83, 0
2, 119808, Note_on_c, 0, 81, 67
2, 119808, Note_on_c, 0, 78, 67
2, 120188, Note_off_c, 0, 81, 0
2, 120188, Note_off_c, 0, 78, 0
2, 120192, Note_on_c, 0, 81, 67
2, 120192, Note_on_c, 0, 78, 67
2, 120572, Note_off_c, 0, 81, 0
2, 120572, Note_off_c, 0, 78, 0
2, 120576, Note_on_c, 0, 81, 67
2, 120576, Note_on_c, 0, 78, 67
2, 120956, Note_off_c, 0, 81, 0
2, 120956, Note_off_c, 0, 78, 0
2, 120960, Note_on_c, 0, 83, 67
2, 120960, Note_on_c, 0, 75, 67
2, 121084, Note_off_c, 0, 75, 0
2, 121088, Note_on_c, 0, 76, 67
2, 121212, Note_off_c, 0, 76, 0
2, 121216, Note_on_c, 0, 78, 67
2, 121340, Note_off_c, 0, 83, 0
2, 121340, Note_off_c, 0, 78, 0
2, 121344, Note_on_c, 0, 79, 67
2, 121344, Note_on_c, 0, 76, 67
2, 121724, Note_off_c, 0, 79, 0
2, 121724, Note_off_c, 0, 76, 0
2, 121728, Note_on_c, 0, 81, 67
2, 122108, Note_off_c, 0, 81, 0
2, 122112, Note_on_c, 0, 78, 67
2, 122112, Note_on_c, 0, 74, 67
2, 122492, Note_off_c, 0, 78, 0
2, 122492, Note_off_c, 0, 74, 0
2, 122496, Note_on_c, 0, 74, 67
2, 122496, Note_on_c, 0, 66, 67
2, 122876, Note_off_c, 0, 74, 0
2, 122876, Note_off_c, 0, 66, 0
2, 122880, Note_on_c, 0, 76, 67
2, 122880, Note_on_c, 0, 71, 67
2, 122880, Note_on_c, 0, 67, 67
2, 123260, Note_off_c, 0, 76, 0
2, 123260, Note_off_c, 0, 71, 0
2, 123260, Note_off_c, 0, 67, 0
2, 123648, Note_on_c, 0, 73, 67
2, 123648, Note_on_c, 0, 67, 67
2, 123648, Note_on_c, 0, 64, 67
2, 124028, Note_off_c, 0, 73, 0
2, 124028, Note_off_c, 0, 67, 0
2, 124028, Note_off_c, 0, 64, 0
2, 124416, Note_on_c, 0, 74, 67
2, 124416, Note_on_c, 0, 69, 67
2, 124416, Note_on_c, 0, 66, 67
2, 124416, Note_on_c, 0, 62, 67
2, 124796, Note_off_c, 0, 74, 0
2, 124796, Note_off_c, 0, 69, 0
2, 124796, Note_off_c, 0, 66, 0
2, 124796, Note_off_c, 0, 62, 0
2, 125952, Note_on_c, 0, 79, 67
2, 126076, Note_off_c, 0, 79, 0
2, 126080, Note_on_c, 0, 78, 67
2, 126204, Note_off_c, 0, 78, 0
2, 126208, Note_on_c, 0, 76, 67
2, 126332, Note_off_c, 0, 76, 0
2, 126336, Note_on_c, 0, 74, 67
2, 126460, Note_off_c, 0, 74, 0
2, 126464, Note_on_c, 0, 73, 67
2, 126588, Note_off_c, 0, 73, 0
2, 126592, Note_on_c, 0, 71, 67
2, 126716, Note_off_c, 0, 71, 0
2, 126720, Note_on_c, 0, 69, 67
2, 126844, Note_off_c, 0, 69, 0
2, 126848, Note_on_c, 0, 71, 67
2, 126972, Note_off_c, 0, 71, 0
2, 126976, Note_on_c, 0, 69, 67
2, 127100, Note_off_c, 0, 69, 0
2, 127104, Note_on_c, 0, 67, 67
2, 127228, Note_off_c, 0, 67, 0
2, 127232, Note_on_c, 0, 66, 67
2, 127356, Note_off_c, 0, 66, 0
2, 127360, Note_on_c, 0, 64, 67
2, 127484, Note_off_c, 0, 64, 0
2, 127488, Note_on_c, 0, 62, 67
2, 127612, Note_off_c, 0, 62, 0
2, 127616, Note_on_c, 0, 66, 67
2, 127740, Note_off_c, 0, 66, 0
2, 127744, Note_on_c, 0, 67, 67
2, 127868, Note_off_c, 0, 67, 0
2, 127872, Note_on_c, 0, 69, 67
2, 127996, Note_off_c, 0, 69, 0
2, 128000, Note_on_c, 0, 71, 67
2, 128124, Note_off_c, 0, 71, 0
2, 128128, Note_on_c, 0, 73, 67
2, 128252, Note_off_c, 0, 73, 0
2, 128256, Note_on_c, 0, 74, 67
2, 128380, Note_off_c, 0, 74, 0
2, 128384, Note_on_c, 0, 69, 67
2, 128508, Note_off_c, 0, 69, 0
2, 128512, Note_on_c, 0, 78, 67
2, 128636, Note_off_c, 0, 78, 0
2, 128640, Note_on_c, 0, 74, 67
2, 128764, Note_off_c, 0, 74, 0
2, 128768, Note_on_c, 0, 81, 67
2, 128892, Note_off_c, 0, 81, 0
2, 128896, Note_on_c, 0, 78, 67
2, 129020, Note_off_c, 0, 78, 0
2, 129024, Note_on_c, 0, 79, 67
2, 129148, Note_off_c, 0, 79, 0
2, 129152, Note_on_c, 0, 78, 67
2, 129276, Note_off_c, 0, 78, 0
2, 129280, Note_on_c, 0, 76, 67
2, 129404, Note_off_c, 0, 76, 0
2, 129408, Note_on_c, 0, 74, 67
2, 129532, Note_off_c, 0, 74, 0
2, 129536, Note_on_c, 0, 73, 67
2, 129660, Note_off_c, 0, 73, 0
2, 129664, Note_on_c, 0, 71, 67
2, 129788, Note_off_c, 0, 71, 0
2, 129792, Note_on_c, 0, 69, 67
2, 129916, Note_off_c, 0, 69, 0
2, 129920, Note_on_c, 0, 71, 67
2, 130044, Note_off_c, 0, 71, 0
2, 130048, Note_on_c, 0, 69, 67
2, 130172, Note_off_c, 0, 69, 0
2, 130176, Note_on_c, 0, 67, 67
2, 130300, Note_off_c, 0, 67, 0
2, 130304, Note_on_c, 0, 66, 67
2, 130428, Note_off_c, 0, 66, 0
2, 130432, Note_on_c, 0, 64, 67
2, 130556, Note_off_c, 0, 64, 0
2, 130560, Note_on_c, 0, 62, 67
2, 130684, Note_off_c, 0, 62, 0
2, 130688, Note_on_c, 0, 66, 67
2, 130812, Note_off_c, 0, 66, 0
2, 130816, Note_on_c, 0, 67, 67
2, 130940, Note_off_c, 0, 67, 0
2, 130944, Note_on_c, 0, 69, 67
2, 131068, Note_off_c, 0, 69, 0
2, 131072, Note_on_c, 0, 71, 67
2, 131196, Note_off_c, 0, 71, 0
2, 131200, Note_on_c, 0, 72, 67
2, 131324, Note_off_c, 0, 72, 0
2, 131328, Note_on_c, 0, 74, 67
2, 131452, Note_off_c, 0, 74, 0
2, 131456, Note_on_c, 0, 76, 67
2, 131580, Note_off_c, 0, 76, 0
2, 131584, Note_on_c, 0, 74, 67
2, 131708, Note_off_c, 0, 74, 0
2, 131712, Note_on_c, 0, 72, 67
2, 131836, Note_off_c, 0, 72, 0
2, 131840, Note_on_c, 0, 71, 67
2, 131964, Note_off_c, 0, 71, 0
2, 131968, Note_on_c, 0, 69, 67
2, 132092, Note_off_c, 0, 69, 0
2, 132096, Note_on_c, 0, 67, 67
2, 132220, Note_off_c, 0, 67, 0
2, 132224, Note_on_c, 0, 71, 67
2, 132348, Note_off_c, 0, 71, 0
2, 132352, Note_on_c, 0, 69, 67
2, 132476, Note_off_c, 0, 69, 0
2, 132480, Note_on_c, 0, 68, 67
2, 132604, Note_off_c, 0, 68, 0
2, 132608, Note_on_c, 0, 66, 67
2, 132732, Note_off_c, 0, 66, 0
2, 132736, Note_on_c, 0, 68, 67
2, 132860, Note_off_c, 0, 68, 0
2, 132864, Note_on_c, 0, 69, 67
2, 132988, Note_off_c, 0, 69, 0
2, 132992, Note_on_c, 0, 71, 67
2, 133116, Note_off_c, 0, 71, 0
2, 133120, Note_on_c, 0, 67, 67
2, 133244, Note_off_c, 0, 67, 0
2, 133248, Note_on_c, 0, 66, 67
2, 133372, Note_off_c, 0, 66, 0
2, 133376, Note_on_c, 0, 64, 67
2, 133500, Note_off_c, 0, 64, 0
2, 133504, Note_on_c, 0, 66, 67
2, 133628, Note_off_c, 0, 66, 0
2, 133632, Note_on_c, 0, 67, 67
2, 133756, Note_off_c, 0, 67, 0
2, 133760, Note_on_c, 0, 71, 67
2, 133884, Note_off_c, 0, 71, 0
2, 133888, Note_on_c, 0, 72, 67
2, 134012, Note_off_c, 0, 72, 0
2, 134016, Note_on_c, 0, 74, 67
2, 134140, Note_off_c, 0, 74, 0
2, 134144, Note_on_c, 0, 71, 67
2, 134268, Note_off_c, 0, 71, 0
2, 134272, Note_on_c, 0, 76, 67
2, 134396, Note_off_c, 0, 76, 0
2, 134400, Note_on_c, 0, 72, 67
2, 134524, Note_off_c, 0, 72, 0
2, 134528, Note_on_c, 0, 69, 67
2, 134652, Note_off_c, 0, 69, 0
2, 134656, Note_on_c, 0, 71, 67
2, 134780, Note_off_c, 0, 71, 0
2, 134784, Note_on_c, 0, 72, 67
2, 134908, Note_off_c, 0, 72, 0
2, 134912, Note_on_c, 0, 69, 67
2, 135036, Note_off_c, 0, 69, 0
2, 135040, Note_on_c, 0, 74, 67
2, 135164, Note_off_c, 0, 74, 0
2, 135168, Note_on_c, 0, 71, 67
2, 135292, Note_off_c, 0, 71, 0
2, 135296, Note_on_c, 0, 67, 67
2, 135420, Note_off_c, 0, 67, 0
2, 135424, Note_on_c, 0, 69, 67
2, 135548, Note_off_c, 0, 69, 0
2, 135552, Note_on_c, 0, 70, 67
2, 135676, Note_off_c, 0, 70, 0
2, 135680, Note_on_c, 0, 69, 67
2, 135804, Note_off_c, 0, 69, 0
2, 135808, Note_on_c, 0, 71, 67
2, 135932, Note_off_c, 0, 71, 0
2, 135936, Note_on_c, 0, 72, 67
2, 136060, Note_off_c, 0, 72, 0
2, 136064, Note_on_c, 0, 69, 67
2, 136188, Note_off_c, 0, 69, 0
2, 136192, Note_on_c, 0, 71, 67
2, 136316, Note_off_c, 0, 71, 0
2, 136320, Note_on_c, 0, 72, 67
2, 136444, Note_off_c, 0, 72, 0
2, 136448, Note_on_c, 0, 69, 67
2, 136572, Note_off_c, 0, 69, 0
2, 136576, Note_on_c, 0, 74, 67
2, 136700, Note_off_c, 0, 74, 0
2, 136704, Note_on_c, 0, 71, 72
2, 136828, Note_off_c, 0, 71, 0
2, 136832, Note_on_c, 0, 74, 79
2, 136956, Note_off_c, 0, 74, 0
2, 136960, Note_on_c, 0, 78, 85
2, 137084, Note_off_c, 0, 78, 0
2, 137088, Note_on_c, 0, 79, 89
2, 137212, Note_off_c, 0, 79, 0
2, 137216, Note_on_c, 0, 83, 89
2, 137340, Note_off_c, 0, 83, 0
2, 137344, Note_on_c, 0, 86, 89
2, 137468, Note_off_c, 0, 86, 0
2, 137472, Note_on_c, 0, 91, 89
2, 137472, Note_on_c, 0, 79, 89
2, 137852, Note_off_c, 0, 91, 0
2, 137852, Note_off_c, 0, 79, 0
2, 137856, Note_on_c, 0, 78, 67
2, 138044, Note_off_c, 0, 78, 0
2, 138048, Note_on_c, 0, 74, 67
2, 138236, Note_off_c, 0, 74, 0
2, 138240, Note_on_c, 0, 81, 67
2, 138620, Note_off_c, 0, 81, 0
2, 138624, Note_on_c, 0, 69, 72
2, 138624, Note_on_c, 0, 73, 72
2, 138624, Note_on_c, 0, 81, 72
2, 139004, Note_off_c, 0, 69, 0
2, 139004, Note_off_c, 0, 73, 0
2, 139004, Note_off_c, 0, 81, 0
2, 139008, Note_on_c, 0, 81, 81
2, 139008, Note_on_c, 0, 76, 81
2, 139008, Note_on_c, 0, 73, 81
2, 139388, Note_off_c, 0, 81, 0
2, 139388, Note_off_c, 0, 76, 0
2, 139388, Note_off_c, 0, 73, 0
2, 139392, Note_on_c, 0, 81, 89
2, 139392, Note_on_c, 0, 79, 89
2, 139392, Note_on_c, 0, 76, 89
2, 139772, Note_off_c, 0, 81, 0
2, 139772, Note_off_c, 0, 79, 0
2, 139772, Note_off_c, 0, 76, 0
2, 139776, Note_on_c, 0, 79, 87
2, 139776, Note_on_c, 0, 76, 87
2, 139776, Note_on_c, 0, 69, 87
2, 140156, Note_off_c, 0, 79, 0
2, 140156, Note_off_c, 0, 76, 0
2, 140160, Note_on_c, 0, 78, 77
2, 140160, Note_on_c, 0, 74, 77
2, 140540, Note_off_c, 0, 69, 0
2, 140540, Note_off_c, 0, 78, 0
2, 140540, Note_off_c, 0, 74, 0
2, 140736, Note_on_c, 0, 74, 67
2, 140924, Note_off_c, 0, 74, 0
2, 140928, Note_on_c, 0, 78, 67
2, 141116, Note_off_c, 0, 78, 0
2, 141120, Note_on_c, 0, 74, 67
2, 141308, Note_off_c, 0, 74, 0
2, 141312, Note_on_c, 0, 81, 69
2, 141692, Note_off_c, 0, 81, 0
2, 141696, Note_on_c, 0, 81, 81
2, 141696, Note_on_c, 0, 72, 81
2, 141696, Note_on_c, 0, 69, 81
2, 142076, Note_off_c, 0, 81, 0
2, 142076, Note_off_c, 0, 72, 0
2, 142076, Note_off_c, 0, 69, 0
2, 142080, Note_on_c, 0, 81, 89
2, 142080, Note_on_c, 0, 76, 89
2, 142080, Note_on_c, 0, 72, 89
2, 142460, Note_off_c, 0, 81, 0
2, 142460, Note_off_c, 0, 76, 0
2, 142460, Note_off_c, 0, 72, 0
2, 142464, Note_on_c, 0, 81, 89
2, 142464, Note_on_c, 0, 79, 89
2, 142464, Note_on_c, 0, 76, 89
2, 142844, Note_off_c, 0, 81, 0
2, 142844, Note_off_c, 0, 79, 0
2, 142844, Note_off_c, 0, 76, 0
2, 142848, Note_on_c, 0, 79, 85
2, 142848, Note_on_c, 0, 76, 85
2, 142848, Note_on_c, 0, 69, 85
2, 143228, Note_off_c, 0, 79, 0
2, 143228, Note_off_c, 0, 76, 0
2, 143232, Note_on_c, 0, 78, 75
2, 143232, Note_on_c, 0, 74, 75
2, 143612, Note_off_c, 0, 69, 0
2, 143612, Note_off_c, 0, 78, 0
2, 143612, Note_off_c, 0, 74, 0
2, 144000, Note_on_c, 0, 81, 68
2, 144188, Note_off_c, 0, 81, 0
2, 144192, Note_on_c, 0, 78, 70
2, 144380, Note_off_c, 0, 78, 0
2, 144384, Note_on_c, 0, 86, 72
2, 144384, Note_on_c, 0, 74, 72
2, 144764, Note_off_c, 0, 86, 0
2, 144764, Note_off_c, 0, 74, 0
2, 144768, Note_on_c, 0, 86, 78
2, 145148, Note_off_c, 0, 86, 0
2, 145152, Note_on_c, 0, 84, 82
2, 145152, Note_on_c, 0, 78, 82
2, 145152, Note_on_c, 0, 74, 82
2, 145532, Note_off_c, 0, 84, 0
2, 145532, Note_off_c, 0, 78, 0
2, 145532, Note_off_c, 0, 74, 0
2, 145536, Note_on_c, 0, 84, 86
2, 145916, Note_off_c, 0, 84, 0
2, 145920, Note_on_c, 0, 83, 73
2, 145920, Note_on_c, 0, 79, 73
2, 145920, Note_on_c, 0, 74, 73
2, 146300, Note_off_c, 0, 83, 0
2, 146300, Note_off_c, 0, 79, 0
2, 146300, Note_off_c, 0, 74, 0
2, 146304, Note_on_c, 0, 83, 87
2, 146684, Note_off_c, 0, 83, 0
2, 146688, Note_on_c, 0, 81, 85
2, 146688, Note_on_c, 0, 76, 85
2, 146688, Note_on_c, 0, 72, 85
2, 147068, Note_off_c, 0, 81, 0
2, 147068, Note_off_c, 0, 76, 0
2, 147068, Note_off_c, 0, 72, 0
2, 147072, Note_on_c, 0, 81, 82
2, 147452, Note_off_c, 0, 81, 0
2, 147456, Note_on_c, 0, 79, 79
2, 147456, Note_on_c, 0, 74, 79
2, 147456, Note_on_c, 0, 71, 79
2, 147836, Note_off_c, 0, 79, 0
2, 147836, Note_off_c, 0, 74, 0
2, 147836, Note_off_c, 0, 71, 0
2, 147840, Note_on_c, 0, 79, 75
2, 148220, Note_off_c, 0, 79, 0
2, 148224, Note_on_c, 0, 78, 71
2, 148412, Note_off_c, 0, 78, 0
2, 148416, Note_on_c, 0, 79, 70
2, 148604, Note_off_c, 0, 79, 0
2, 148608, Note_on_c, 0, 81, 68
2, 148796, Note_off_c, 0, 81, 0
2, 148800, Note_on_c, 0, 78, 67
2, 148988, Note_off_c, 0, 78, 0
2, 148992, Note_on_c, 0, 79, 67
2, 149756, Note_off_c, 0, 79, 0
2, 162240, Note_on_c, 0, 71, 67
2, 162428, Note_off_c, 0, 71, 0
2, 162432, Note_on_c, 0, 72, 67
2, 162620, Note_off_c, 0, 72, 0
2, 162624, Note_on_c, 0, 73, 67
2, 162812, Note_off_c, 0, 73, 0
2, 162816, Note_on_c, 0, 76, 67
2, 163004, Note_off_c, 0, 76, 0
2, 163008, Note_on_c, 0, 74, 67
2, 163196, Note_off_c, 0, 74, 0
2, 163200, Note_on_c, 0, 74, 67
2, 163580, Note_off_c, 0, 74, 0
2, 163584, Note_on_c, 0, 74, 67
2, 163772, Note_off_c, 0, 74, 0
2, 163776, Note_on_c, 0, 83, 67
2, 163964, Note_off_c, 0, 83, 0
2, 163968, Note_on_c, 0, 81, 67
2, 164156, Note_off_c, 0, 81, 0
2, 164160, Note_on_c, 0, 79, 67
2, 164348, Note_off_c, 0, 79, 0
2, 164352, Note_on_c, 0, 78, 67
2, 164444, Note_off_c, 0, 78, 0
2, 164448, Note_on_c, 0, 79, 67
2, 164540, Note_off_c, 0, 79, 0
2, 164544, Note_on_c, 0, 81, 67
2, 164636, Note_off_c, 0, 81, 0
2, 164640, Note_on_c, 0, 79, 67
2, 164732, Note_off_c, 0, 79, 0
2, 164736, Note_on_c, 0, 78, 67
2, 165116, Note_off_c, 0, 78, 0
2, 165120, Note_on_c, 0, 78, 67
2, 165308, Note_off_c, 0, 78, 0
2, 165312, Note_on_c, 0, 78, 67
2, 165356, Note_off_c, 0, 78, 0
2, 165360, Note_on_c, 0, 79, 67
2, 165404, Note_off_c, 0, 79, 0
2, 165408, Note_on_c, 0, 78, 67
2, 165452, Note_off_c, 0, 78, 0
2, 165456, Note_on_c, 0, 76, 67
2, 165500, Note_off_c, 0, 76, 0
2, 165504, Note_on_c, 0, 79, 67
2, 165692, Note_off_c, 0, 79, 0
2, 165696, Note_on_c, 0, 76, 67
2, 165884, Note_off_c, 0, 76, 0
2, 165888, Note_on_c, 0, 76, 67
2, 166076, Note_off_c, 0, 76, 0
2, 166080, Note_on_c, 0, 74, 67
2, 166268, Note_off_c, 0, 74, 0
2, 166272, Note_on_c, 0, 74, 67
2, 166652, Note_off_c, 0, 74, 0
2, 166656, Note_on_c, 0, 74, 67
2, 166844, Note_off_c, 0, 74, 0
2, 166848, Note_on_c, 0, 76, 67
2, 166940, Note_off_c, 0, 76, 0
2, 166944, Note_on_c, 0, 75, 67
2, 167036, Note_off_c, 0, 75, 0
2, 167040, Note_on_c, 0, 78, 67
2, 167132, Note_off_c, 0, 78, 0
2, 167136, Note_on_c, 0, 76, 67
2, 167228, Note_off_c, 0, 76, 0
2, 167232, Note_on_c, 0, 74, 67
2, 167324, Note_off_c, 0, 74, 0
2, 167328, Note_on_c, 0, 72, 67
2, 167420, Note_off_c, 0, 72, 0
2, 167424, Note_on_c, 0, 70, 67
2, 167804, Note_off_c, 0, 70, 0
2, 167808, Note_on_c, 0, 71, 67
2, 168188, Note_off_c, 0, 71, 0
2, 168384, Note_on_c, 0, 74, 67
2, 168572, Note_off_c, 0, 74, 0
2, 168576, Note_on_c, 0, 79, 67
2, 168764, Note_off_c, 0, 79, 0
2, 168768, Note_on_c, 0, 83, 67
2, 168956, Note_off_c, 0, 83, 0
2, 168960, Note_on_c, 0, 83, 67
2, 169148, Note_off_c, 0, 83, 0
2, 169152, Note_on_c, 0, 81, 67
2, 169340, Note_off_c, 0, 81, 0
2, 169344, Note_on_c, 0, 81, 67
2, 169724, Note_off_c, 0, 81, 0
2, 169728, Note_on_c, 0, 81, 67
2, 169916, Note_off_c, 0, 81, 0
2, 169920, Note_on_c, 0, 84, 67
2, 170012, Note_off_c, 0, 84, 0
2, 170016, Note_on_c, 0, 83, 67
2, 170108, Note_off_c, 0, 83, 0
2, 170112, Note_on_c, 0, 86, 67
2, 170204, Note_off_c, 0, 86, 0
2, 170208, Note_on_c, 0, 84, 67
2, 170300, Note_off_c, 0, 84, 0
2, 170304, Note_on_c, 0, 83, 67
2, 170396, Note_off_c, 0, 83, 0
2, 170400, Note_on_c, 0, 81, 67
2, 170492, Note_off_c, 0, 81, 0
2, 170496, Note_on_c, 0, 81, 67
2, 170684, Note_off_c, 0, 81, 0
2, 170688, Note_on_c, 0, 80, 67
2, 170876, Note_off_c, 0, 80, 0
2, 170880, Note_on_c, 0, 79, 67
2, 171644, Note_off_c, 0, 79, 0
2, 171648, Note_on_c, 0, 78, 67
2, 172028, Note_off_c, 0, 78, 0
2, 172032, Note_on_c, 0, 78, 69
2, 172124, Note_off_c, 0, 78, 0
2, 172128, Note_on_c, 0, 76, 71
2, 172220, Note_off_c, 0, 76, 0
2, 172224, Note_on_c, 0, 79, 75
2, 172316, Note_off_c, 0, 79, 0
2, 172320, Note_on_c, 0, 78, 78
2, 172412, Note_off_c, 0, 78, 0
2, 172416, Note_on_c, 0, 81, 81
2, 172508, Note_off_c, 0, 81, 0
2, 172512, Note_on_c, 0, 79, 83
2, 172604, Note_off_c, 0, 79, 0
2, 172608, Note_on_c, 0, 83, 86
2, 172700, Note_off_c, 0, 83, 0
2, 172704, Note_on_c, 0, 81, 88
2, 172796, Note_off_c, 0, 81, 0
2, 172800, Note_on_c, 0, 85, 89
2, 172892, Note_off_c, 0, 85, 0
2, 172896, Note_on_c, 0, 83, 87
2, 172988, Note_off_c, 0, 83, 0
2, 172992, Note_on_c, 0, 81, 84
2, 173084, Note_off_c, 0, 81, 0
2, 173088, Note_on_c, 0, 79, 81
2, 173180, Note_off_c, 0, 79, 0
2, 173184, Note_on_c, 0, 78, 78
2, 173276, Note_off_c, 0, 78, 0
2, 173280, Note_on_c, 0, 76, 75
2, 173372, Note_off_c, 0, 76, 0
2, 173376, Note_on_c, 0, 74, 71
2, 173468, Note_off_c, 0, 74, 0
2, 173472, Note_on_c, 0, 73, 68
2, 173564, Note_off_c, 0, 73, 0
2, 173568, Note_on_c, 0, 76, 67
2, 173568, Note_on_c, 0, 67, 67
2, 173948, Note_off_c, 0, 76, 0
2, 173948, Note_off_c, 0, 67, 0
2, 173952, Note_on_c, 0, 74, 67
2, 173952, Note_on_c, 0, 66, 67
2, 174332, Note_off_c, 0, 74, 0
2, 174332, Note_off_c, 0, 66, 0
2, 186816, Note_on_c, 0, 74, 79
2, 187004, Note_off_c, 0, 74, 0
2, 187008, Note_on_c, 0, 79, 79
2, 187196, Note_off_c, 0, 79, 0
2, 187200, Note_on_c, 0, 83, 79
2, 187388, Note_off_c, 0, 83, 0
2, 187392, Note_on_c, 0, 57, 79
2, 187392, Note_on_c, 0, 83, 79
2, 187484, Note_off_c, 0, 57, 0
2, 187488, Note_on_c, 0, 67, 79
2, 187580, Note_off_c, 0, 83, 0
2, 187580, Note_off_c, 0, 67, 0
2, 187584, Note_on_c, 0, 61, 79
2, 187584, Note_on_c, 0, 81, 79
2, 187676, Note_off_c, 0, 61, 0
2, 187680, Note_on_c, 0, 67, 79
2, 187772, Note_off_c, 0, 81, 0
2, 187772, Note_off_c, 0, 67, 0
2, 187776, Note_on_c, 0, 59, 79
2, 187776, Note_on_c, 0, 81, 79
2, 187868, Note_off_c, 0, 59, 0
2, 187872, Note_on_c, 0, 67, 79
2, 187964, Note_off_c, 0, 81, 0
2, 187964, Note_off_c, 0, 67, 0
2, 187968, Note_on_c, 0, 62, 79
2, 187968, Note_on_c, 0, 81, 79
2, 188060, Note_off_c, 0, 62, 0
2, 188064, Note_on_c, 0, 67, 79
2, 188156, Note_off_c, 0, 81, 0
2, 188156, Note_off_c, 0, 67, 0
2, 188160, Note_on_c, 0, 61, 79
2, 188160, Note_on_c, 0, 81, 79
2, 188252, Note_off_c, 0, 61, 0
2, 188256, Note_on_c, 0, 67, 79
2, 188348, Note_off_c, 0, 81, 0
2, 188348, Note_off_c, 0, 67, 0
2, 188352, Note_on_c, 0, 64, 79
2, 188352, Note_on_c, 0, 81, 79
2, 188444, Note_off_c, 0, 64, 0
2, 188448, Note_on_c, 0, 67, 79
2, 188540, Note_off_c, 0, 81, 0
2, 188540, Note_off_c, 0, 67, 0
2, 188544, Note_on_c, 0, 57, 79
2, 188544, Note_on_c, 0, 81, 79
2, 188636, Note_off_c, 0, 57, 0
2, 188640, Note_on_c, 0, 67, 79
2, 188732, Note_off_c, 0, 81, 0
2, 188732, Note_off_c, 0, 67, 0
2, 188736, Note_on_c, 0, 61, 79
2, 188736, Note_on_c, 0, 81, 79
2, 188828, Note_off_c, 0, 61, 0
2, 188832, Note_on_c, 0, 67, 79
2, 188924, Note_off_c, 0, 81, 0
2, 188924, Note_off_c, 0, 67, 0
2, 188928, Note_on_c, 0, 62, 79
2, 188928, Note_on_c, 0, 81, 79
2, 188972, Note_off_c, 0, 81, 0
2, 188976, Note_on_c, 0, 83, 79
2, 189020, Note_off_c, 0, 62, 0
2, 189020, Note_off_c, 0, 83, 0
2, 189024, Note_on_c, 0, 69, 79
2, 189024, Note_on_c, 0, 81, 79
2, 189068, Note_off_c, 0, 81, 0
2, 189072, Note_on_c, 0, 80, 79
2, 189116, Note_off_c, 0, 69, 0
2, 189116, Note_off_c, 0, 80, 0
2, 189120, Note_on_c, 0, 66, 79
2, 189120, Note_on_c, 0, 81, 79
2, 189164, Note_off_c, 0, 81, 0
2, 189212, Note_off_c, 0, 66, 0
2, 189216, Note_on_c, 0, 69, 79
2, 189216, Note_on_c, 0, 86, 79
2, 189308, Note_off_c, 0, 69, 0
2, 189308, Note_off_c, 0, 86, 0
2, 189312, Note_on_c, 0, 64, 79
2, 189312, Note_on_c, 0, 81, 79
2, 189404, Note_off_c, 0, 64, 0
2, 189408, Note_on_c, 0, 69, 79
2, 189500, Note_off_c, 0, 69, 0
2, 189504, Note_on_c, 0, 67, 79
2, 189596, Note_off_c, 0, 67, 0
2, 189600, Note_on_c, 0, 69, 79
2, 189692, Note_off_c, 0, 81, 0
2, 189692, Note_off_c, 0, 69, 0
2, 189696, Note_on_c, 0, 66, 79
2, 189788, Note_off_c, 0, 66, 0
2, 189792, Note_on_c, 0, 69, 79
2, 189884, Note_off_c, 0, 69, 0
2, 189888, Note_on_c, 0, 68, 79
2, 189888, Note_on_c, 0, 74, 79
2, 189980, Note_off_c, 0, 68, 0
2, 189984, Note_on_c, 0, 69, 79
2, 190076, Note_off_c, 0, 74, 0
2, 190076, Note_off_c, 0, 69, 0
2, 190080, Note_on_c, 0, 62, 79
2, 190080, Note_on_c, 0, 78, 79
2, 190172, Note_off_c, 0, 62, 0
2, 190176, Note_on_c, 0, 69, 79
2, 190268, Note_off_c, 0, 78, 0
2, 190268, Note_off_c, 0, 69, 0
2, 190272, Note_on_c, 0, 66, 79
2, 190272, Note_on_c, 0, 81, 79
2, 190364, Note_off_c, 0, 66, 0
2, 190368, Note_on_c, 0, 69, 79
2, 190460, Note_off_c, 0, 81, 0
2, 190460, Note_off_c, 0, 69, 0
2, 190464, Note_on_c, 0, 57, 80
2, 190464, Note_on_c, 0, 83, 80
2, 190556, Note_off_c, 0, 57, 0
2, 190560, Note_on_c, 0, 67, 80
2, 190652, Note_off_c, 0, 83, 0
2, 190652, Note_off_c, 0, 67, 0
2, 190656, Note_on_c, 0, 61, 80
2, 190656, Note_on_c, 0, 81, 80
2, 190748, Note_off_c, 0, 61, 0
2, 190752, Note_on_c, 0, 67, 81
2, 190844, Note_off_c, 0, 81, 0
2, 190844, Note_off_c, 0, 67, 0
2, 190848, Note_on_c, 0, 59, 81
2, 190848, Note_on_c, 0, 81, 81
2, 190940, Note_off_c, 0, 59, 0
2, 190944, Note_on_c, 0, 67, 82
2, 191036, Note_off_c, 0, 81, 0
2, 191036, Note_off_c, 0, 67, 0
2, 191040, Note_on_c, 0, 62, 82
2, 191040, Note_on_c, 0, 81, 82
2, 191132, Note_off_c, 0, 62, 0
2, 191136, Note_on_c, 0, 67, 83
2, 191228, Note_off_c, 0, 81, 0
2, 191228, Note_off_c, 0, 67, 0
2, 191232, Note_on_c, 0, 61, 83
2, 191232, Note_on_c, 0, 81, 83
2, 191324, Note_off_c, 0, 61, 0
2, 191328, Note_on_c, 0, 67, 84
2, 191420, Note_off_c, 0, 81, 0
2, 191420, Note_off_c, 0, 67, 0
2, 191424, Note_on_c, 0, 64, 84
2, 191424, Note_on_c, 0, 81, 84
2, 191516, Note_off_c, 0, 64, 0
2, 191520, Note_on_c, 0, 67, 85
2, 191612, Note_off_c, 0, 81, 0
2, 191612, Note_off_c, 0, 67, 0
2, 191616, Note_on_c, 0, 57, 85
2, 191616, Note_on_c, 0, 81, 85
2, 191708, Note_off_c, 0, 57, 0
2, 191712, Note_on_c, 0, 67, 85
2, 191804, Note_off_c, 0, 81, 0
2, 191804, Note_off_c, 0, 67, 0
2, 191808, Note_on_c, 0, 61, 86
2, 191808, Note_on_c, 0, 81, 86
2, 191900, Note_off_c, 0, 61, 0
2, 191904, Note_on_c, 0, 67, 86
2, 191996, Note_off_c, 0, 81, 0
2, 191996, Note_off_c, 0, 67, 0
2, 192000, Note_on_c, 0, 62, 87
2, 192000, Note_on_c, 0, 81, 87
2, 192092, Note_off_c, 0, 62, 0
2, 192096, Note_on_c, 0, 69, 87
2, 192188, Note_off_c, 0, 81, 0
2, 192188, Note_off_c, 0, 69, 0
2, 192192, Note_on_c, 0, 66, 88
2, 192192, Note_on_c, 0, 86, 88
2, 192284, Note_off_c, 0, 66, 0
2, 192284, Note_off_c, 0, 86, 0
2, 192288, Note_on_c, 0, 69, 88
2, 192288, Note_on_c, 0, 84, 88
2, 192380, Note_off_c, 0, 69, 0
2, 192380, Note_off_c, 0, 84, 0
2, 192384, Note_on_c, 0, 64, 89
2, 192384, Note_on_c, 0, 84, 89
2, 192476, Note_off_c, 0, 64, 0
2, 192480, Note_on_c, 0, 69, 89
2, 192572, Note_off_c, 0, 69, 0
2, 192576, Note_on_c, 0, 67, 92
2, 192668, Note_off_c, 0, 67, 0
2, 192672, Note_on_c, 0, 69, 92
2, 192764, Note_off_c, 0, 84, 0
2, 192764, Note_off_c, 0, 69, 0
2, 192768, Note_on_c, 0, 66, 89
2, 192768, Note_on_c, 0, 84, 89
2, 192860, Note_off_c, 0, 66, 0
2, 192860, Note_off_c, 0, 84, 0
2, 192864, Note_on_c, 0, 69, 87
2, 192864, Note_on_c, 0, 83, 87
2, 192956, Note_off_c, 0, 69, 0
2, 192956, Note_off_c, 0, 83, 0
2, 192960, Note_on_c, 0, 68, 84
2, 192960, Note_on_c, 0, 81, 84
2, 193052, Note_off_c, 0, 68, 0
2, 193052, Note_off_c, 0, 81, 0
2, 193056, Note_on_c, 0, 69, 81
2, 193056, Note_on_c, 0, 79, 81
2, 193148, Note_off_c, 0, 69, 0
2, 193148, Note_off_c, 0, 79, 0
2, 193152, Note_on_c, 0, 62, 78
2, 193152, Note_on_c, 0, 78, 78
2, 193244, Note_off_c, 0, 62, 0
2, 193244, Note_off_c, 0, 78, 0
2, 193248, Note_on_c, 0, 69, 75
2, 193248, Note_on_c, 0, 76, 75
2, 193340, Note_off_c, 0, 69, 0
2, 193340, Note_off_c, 0, 76, 0
2, 193344, Note_on_c, 0, 66, 72
2, 193344, Note_on_c, 0, 74, 72
2, 193436, Note_off_c, 0, 66, 0
2, 193436, Note_off_c, 0, 74, 0
2, 193440, Note_on_c, 0, 69, 70
2, 193440, Note_on_c, 0, 72, 70
2, 193532, Note_off_c, 0, 69, 0
2, 193532, Note_off_c, 0, 72, 0
2, 193536, Note_on_c, 0, 71, 77
2, 193536, Note_on_c, 0, 55, 77
2, 193628, Note_off_c, 0, 71, 0
2, 193628, Note_off_c, 0, 55, 0
2, 193632, Note_on_c, 0, 74, 79
2, 193632, Note_on_c, 0, 67, 79
2, 193724, Note_off_c, 0, 74, 0
2, 193724, Note_off_c, 0, 67, 0
2, 193728, Note_on_c, 0, 79, 82
2, 193728, Note_on_c, 0, 62, 82
2, 193820, Note_off_c, 0, 79, 0
2, 193820, Note_off_c, 0, 62, 0
2, 193824, Note_on_c, 0, 83, 84
2, 193824, Note_on_c, 0, 67, 84
2, 193916, Note_off_c, 0, 83, 0
2, 193916, Note_off_c, 0, 67, 0
2, 193920, Note_on_c, 0, 86, 85
2, 193920, Note_on_c, 0, 56, 85
2, 194012, Note_off_c, 0, 56, 0
2, 194016, Note_on_c, 0, 64, 87
2, 194108, Note_off_c, 0, 64, 0
2, 194112, Note_on_c, 0, 59, 89
2, 194204, Note_off_c, 0, 59, 0
2, 194208, Note_on_c, 0, 64, 90
2, 194300, Note_off_c, 0, 86, 0
2, 194300, Note_off_c, 0, 64, 0
2, 194304, Note_on_c, 0, 86, 93
2, 194304, Note_on_c, 0, 57, 93
2, 194344, Note_off_c, 0, 86, 0
2, 194352, Note_on_c, 0, 88, 95
2, 194392, Note_off_c, 0, 88, 0
2, 194396, Note_off_c, 0, 57, 0
2, 194400, Note_on_c, 0, 86, 96
2, 194400, Note_on_c, 0, 64, 96
2, 194440, Note_off_c, 0, 86, 0
2, 194448, Note_on_c, 0, 84, 96
2, 194488, Note_off_c, 0, 84, 0
2, 194492, Note_off_c, 0, 64, 0
2, 194496, Note_on_c, 0, 86, 97
2, 194496, Note_on_c, 0, 60, 97
2, 194536, Note_off_c, 0, 86, 0
2, 194588, Note_off_c, 0, 60, 0
2, 194592, Note_on_c, 0, 88, 99
2, 194592, Note_on_c, 0, 64, 99
2, 194684, Note_off_c, 0, 88, 0
2, 194684, Note_off_c, 0, 64, 0
2, 194688, Note_on_c, 0, 84, 97
2, 194688, Note_on_c, 0, 54, 97
2, 194780, Note_off_c, 0, 54, 0
2, 194784, Note_on_c, 0, 62, 97
2, 194876, Note_off_c, 0, 62, 0
2, 194880, Note_on_c, 0, 57, 97
2, 194972, Note_off_c, 0, 57, 0
2, 194976, Note_on_c, 0, 62, 97
2, 195068, Note_off_c, 0, 84, 0
2, 195068, Note_off_c, 0, 62, 0
2, 195072, Note_on_c, 0, 84, 97
2, 195072, Note_on_c, 0, 55, 97
2, 195112, Note_off_c, 0, 84, 0
2, 195120, Note_on_c, 0, 86, 97
2, 195160, Note_off_c, 0, 86, 0
2, 195164, Note_off_c, 0, 55, 0
2, 195168, Note_on_c, 0, 84, 97
2, 195168, Note_on_c, 0, 62, 97
2, 195208, Note_off_c, 0, 84, 0
2, 195216, Note_on_c, 0, 83, 97
2, 195256, Note_off_c, 0, 83, 0
2, 195260, Note_off_c, 0, 62, 0
2, 195264, Note_on_c, 0, 84, 97
2, 195264, Note_on_c, 0, 59, 97
2, 195304, Note_off_c, 0, 84, 0
2, 195356, Note_off_c, 0, 59, 0
2, 195360, Note_on_c, 0, 86, 97
2, 195360, Note_on_c, 0, 62, 97
2, 195400, Note_off_c, 0, 86, 0
2, 195452, Note_off_c, 0, 62, 0
2, 195456, Note_on_c, 0, 83, 97
2, 195456, Note_on_c, 0, 59, 97
2, 195548, Note_off_c, 0, 59, 0
2, 195552, Note_on_c, 0, 67, 97
2, 195644, Note_off_c, 0, 67, 0
2, 195648, Note_on_c, 0, 62, 97
2, 195740, Note_off_c, 0, 62, 0
2, 195744, Note_on_c, 0, 67, 97
2, 195836, Note_off_c, 0, 83, 0
2, 195836, Note_off_c, 0, 67, 0
2, 195840, Note_on_c, 0, 83, 89
2, 195840, Note_on_c, 0, 59, 89
2, 195880, Note_off_c, 0, 83, 0
2, 195888, Note_on_c, 0, 84, 89
2, 195928, Note_off_c, 0, 84, 0
2, 195932, Note_off_c, 0, 59, 0
2, 195936, Note_on_c, 0, 83, 88
2, 195936, Note_on_c, 0, 69, 88
2, 195976, Note_off_c, 0, 83, 0
2, 195984, Note_on_c, 0, 81, 87
2, 196024, Note_off_c, 0, 81, 0
2, 196028, Note_off_c, 0, 69, 0
2, 196032, Note_on_c, 0, 83, 86
2, 196032, Note_on_c, 0, 64, 86
2, 196072, Note_off_c, 0, 83, 0
2, 196124, Note_off_c, 0, 64, 0
2, 196128, Note_on_c, 0, 84, 85
2, 196128, Note_on_c, 0, 69, 85
2, 196220, Note_off_c, 0, 84, 0
2, 196220, Note_off_c, 0, 69, 0
2, 196224, Note_on_c, 0, 81, 83
2, 196224, Note_on_c, 0, 62, 83
2, 196316, Note_off_c, 0, 62, 0
2, 196320, Note_on_c, 0, 72, 82
2, 196412, Note_off_c, 0, 72, 0
2, 196416, Note_on_c, 0, 66, 80
2, 196508, Note_off_c, 0, 66, 0
2, 196512, Note_on_c, 0, 72, 79
2, 196604, Note_off_c, 0, 81, 0
2, 196604, Note_off_c, 0, 72, 0
2, 196608, Note_on_c, 0, 81, 73
2, 196608, Note_on_c, 0, 71, 73
2, 196700, Note_off_c, 0, 81, 0
2, 196704, Note_on_c, 0, 79, 73
2, 196796, Note_off_c, 0, 79, 0
2, 196800, Note_on_c, 0, 78, 73
2, 196892, Note_off_c, 0, 78, 0
2, 196896, Note_on_c, 0, 79, 73
2, 196988, Note_off_c, 0, 71, 0
2, 196988, Note_off_c, 0, 79, 0
2, 196992, Note_on_c, 0, 78, 73
2, 196992, Note_on_c, 0, 70, 73
2, 196992, Note_on_c, 0, 61, 73
2, 197084, Note_off_c, 0, 78, 0
2, 197088, Note_on_c, 0, 79, 73
2, 197180, Note_off_c, 0, 79, 0
2, 197184, Note_on_c, 0, 78, 73
2, 197276, Note_off_c, 0, 78, 0
2, 197280, Note_on_c, 0, 79, 73
2, 197372, Note_off_c, 0, 70, 0
2, 197372, Note_off_c, 0, 61, 0
2, 197372, Note_off_c, 0, 79, 0
2, 197376, Note_on_c, 0, 78, 84
2, 197376, Note_on_c, 0, 71, 84
2, 197376, Note_on_c, 0, 62, 84
2, 197468, Note_off_c, 0, 78, 0
2, 197472, Note_on_c, 0, 79, 86
2, 197564, Note_off_c, 0, 79, 0
2, 197568, Note_on_c, 0, 83, 89
2, 197660, Note_off_c, 0, 83, 0
2, 197664, Note_on_c, 0, 86, 93
2, 197756, Note_off_c, 0, 71, 0
2, 197756, Note_off_c, 0, 86, 0
2, 197760, Note_on_c, 0, 86, 89
2, 197760, Note_on_c, 0, 72, 89
2, 197852, Note_off_c, 0, 86, 0
2, 197856, Note_on_c, 0, 84, 87
2, 197948, Note_off_c, 0, 84, 0
2, 197952, Note_on_c, 0, 83, 84
2, 198044, Note_off_c, 0, 83, 0
2, 198048, Note_on_c, 0, 81, 82
2, 198140, Note_off_c, 0, 62, 0
2, 198140, Note_off_c, 0, 72, 0
2, 198140, Note_off_c, 0, 81, 0
2, 198144, Note_on_c, 0, 81, 81
2, 198144, Note_on_c, 0, 72, 81
2, 198524, Note_off_c, 0, 81, 0
2, 198524, Note_off_c, 0, 72, 0
2, 198528, Note_on_c, 0, 79, 80
2, 198528, Note_on_c, 0, 71, 80
2, 198528, Note_on_c, 0, 67, 80
2, 198908, Note_off_c, 0, 79, 0
2, 198908, Note_off_c, 0, 71, 0
2, 198908, Note_off_c, 0, 67, 0
2, 198912, Note_on_c, 0, 55, 79
2, 199292, Note_off_c, 0, 55, 0
2, 211392, Note_on_c, 0, 66, 72
2, 211580, Note_off_c, 0, 66, 0
2, 211584, Note_on_c, 0, 67, 75
2, 211772, Note_off_c, 0, 67, 0
2, 211776, Note_on_c, 0, 70, 78
2, 211964, Note_off_c, 0, 70, 0
2, 211968, Note_on_c, 0, 73, 80
2, 212156, Note_off_c, 0, 73, 0
2, 212160, Note_on_c, 0, 74, 82
2, 212540, Note_off_c, 0, 74, 0
2, 212544, Note_on_c, 0, 82, 85
2, 212924, Note_off_c, 0, 82, 0
2, 212928, Note_on_c, 0, 81, 89
2, 213308, Note_off_c, 0, 81, 0
2, 213312, Note_on_c, 0, 79, 93
2, 213692, Note_off_c, 0, 79, 0
2, 213696, Note_on_c, 0, 78, 96
2, 214076, Note_off_c, 0, 78, 0
2, 214080, Note_on_c, 0, 87, 96
2, 214460, Note_off_c, 0, 87, 0
2, 214464, Note_on_c, 0, 69, 96
2, 214844, Note_off_c, 0, 69, 0
2, 214848, Note_on_c, 0, 84, 96
2, 215228, Note_off_c, 0, 84, 0
2, 215232, Note_on_c, 0, 62, 96
2, 215612, Note_off_c, 0, 62, 0
2, 215616, Note_on_c, 0, 81, 96
2, 215996, Note_off_c, 0, 81, 0
2, 216000, Note_on_c, 0, 69, 89
2, 216188, Note_off_c, 0, 69, 0
2, 216192, Note_on_c, 0, 75, 84
2, 216380, Note_off_c, 0, 75, 0
2, 216384, Note_on_c, 0, 74, 79
2, 216572, Note_off_c, 0, 74, 0
2, 216576, Note_on_c, 0, 72, 72
2, 216956, Note_off_c, 0, 72, 0
2, 216960, Note_on_c, 0, 70, 69
2, 217340, Note_off_c, 0, 70, 0
2, 217536, Note_on_c, 0, 74, 67
2, 217724, Note_off_c, 0, 74, 0
2, 217728, Note_on_c, 0, 79, 67
2, 217916, Note_off_c, 0, 79, 0
2, 217920, Note_on_c, 0, 82, 67
2, 218108, Note_off_c, 0, 82, 0
2, 218112, Note_on_c, 0, 80, 69
2, 218112, Note_on_c, 0, 66, 69
2, 218300, Note_off_c, 0, 80, 0
2, 218304, Note_on_c, 0, 81, 72
2, 218496, Note_on_c, 0, 74, 77
2, 218684, Note_off_c, 0, 81, 0
2, 218688, Note_on_c, 0, 85, 80
2, 218876, Note_off_c, 0, 66, 0
2, 218880, Note_on_c, 0, 65, 83
2, 219068, Note_off_c, 0, 85, 0
2, 219072, Note_on_c, 0, 86, 86
2, 219260, Note_off_c, 0, 74, 0
2, 219264, Note_on_c, 0, 74, 89
2, 219452, Note_off_c, 0, 86, 0
2, 219456, Note_on_c, 0, 89, 93
2, 219644, Note_off_c, 0, 65, 0
2, 219648, Note_on_c, 0, 64, 96
2, 219836, Note_off_c, 0, 89, 0
2, 219840, Note_on_c, 0, 79, 96
2, 220028, Note_off_c, 0, 74, 0
2, 220032, Note_on_c, 0, 73, 96
2, 220220, Note_off_c, 0, 79, 0
2, 220224, Note_on_c, 0, 88, 96
2, 220412, Note_off_c, 0, 64, 0
2, 220416, Note_on_c, 0, 62, 96
2, 220604, Note_off_c, 0, 88, 0
2, 220608, Note_on_c, 0, 77, 96
2, 220796, Note_off_c, 0, 73, 0
2, 220800, Note_on_c, 0, 74, 96
2, 220988, Note_off_c, 0, 77, 0
2, 220992, Note_on_c, 0, 86, 96
2, 221180, Note_off_c, 0, 62, 0
2, 221184, Note_on_c, 0, 67, 96
2, 221372, Note_off_c, 0, 86, 0
2, 221376, Note_on_c, 0, 76, 96
2, 221564, Note_off_c, 0, 74, 0
2, 221568, Note_on_c, 0, 70, 96
2, 221756, Note_off_c, 0, 76, 0
2, 221760, Note_on_c, 0, 82, 96
2, 221948, Note_off_c, 0, 67, 0
2, 221952, Note_on_c, 0, 57, 96
2, 222140, Note_off_c, 0, 82, 0
2, 222144, Note_on_c, 0, 73, 92
2, 222332, Note_off_c, 0, 70, 0
2, 222332, Note_off_c, 0, 73, 0
2, 222336, Note_on_c, 0, 64, 87
2, 222336, Note_on_c, 0, 79, 87
2, 222524, Note_off_c, 0, 79, 0
2, 222528, Note_on_c, 0, 73, 83
2, 222716, Note_off_c, 0, 57, 0
2, 222716, Note_off_c, 0, 64, 0
2, 222716, Note_off_c, 0, 73, 0
2, 222720, Note_on_c, 0, 76, 75
2, 223100, Note_off_c, 0, 76, 0
2, 223104, Note_on_c, 0, 74, 69
2, 223484, Note_off_c, 0, 74, 0
2, 235968, Note_on_c, 0, 67, 67
2, 236156, Note_off_c, 0, 67, 0
2, 236160, Note_on_c, 0, 69, 67
2, 236348, Note_off_c, 0, 69, 0
2, 236352, Note_on_c, 0, 70, 67
2, 236732, Note_off_c, 0, 70, 0
2, 236736, Note_on_c, 0, 69, 67
2, 237116, Note_off_c, 0, 69, 0
2, 237120, Note_on_c, 0, 82, 67
2, 237500, Note_off_c, 0, 82, 0
2, 237504, Note_on_c, 0, 81, 67
2, 237884, Note_off_c, 0, 81, 0
2, 237888, Note_on_c, 0, 79, 67
2, 238268, Note_off_c, 0, 79, 0
2, 238272, Note_on_c, 0, 77, 67
2, 238652, Note_off_c, 0, 77, 0
2, 238656, Note_on_c, 0, 58, 94
2, 239036, Note_off_c, 0, 58, 0
2, 239040, Note_on_c, 0, 57, 94
2, 239420, Note_off_c, 0, 57, 0
2, 239424, Note_on_c, 0, 56, 94
2, 239804, Note_off_c, 0, 56, 0
2, 239808, Note_on_c, 0, 57, 94
2, 240188, Note_off_c, 0, 57, 0
2, 240192, Note_on_c, 0, 82, 67
2, 240572, Note_off_c, 0, 82, 0
2, 240576, Note_on_c, 0, 81, 67
2, 240956, Note_off_c, 0, 81, 0
2, 240960, Note_on_c, 0, 79, 67
2, 241340, Note_off_c, 0, 79, 0
2, 241344, Note_on_c, 0, 78, 67
2, 241724, Note_off_c, 0, 78, 0
2, 241728, Note_on_c, 0, 63, 94
2, 242108, Note_off_c, 0, 63, 0
2, 242112, Note_on_c, 0, 62, 94
2, 242492, Note_off_c, 0, 62, 0
2, 242496, Note_on_c, 0, 61, 94
2, 242876, Note_off_c, 0, 61, 0
2, 242880, Note_on_c, 0, 62, 94
2, 243260, Note_off_c, 0, 62, 0
2, 243264, Note_on_c, 0, 87, 67
2, 243644, Note_off_c, 0, 87, 0
2, 243648, Note_on_c, 0, 86, 67
2, 244028, Note_off_c, 0, 86, 0
2, 244032, Note_on_c, 0, 84, 67
2, 244412, Note_off_c, 0, 84, 64
2, 244416, Note_on_c, 0, 82, 66
2, 244796, Note_off_c, 0, 82, 0
2, 244800, Note_on_c, 0, 80, 66
2, 245180, Note_off_c, 0, 80, 0
2, 245184, Note_on_c, 0, 79, 66
2, 245564, Note_off_c, 0, 79, 0
2, 245568, Note_on_c, 0, 79, 66
2, 245948, Note_off_c, 0, 79, 0
2, 245952, Note_on_c, 0, 73, 89
2, 246332, Note_off_c, 0, 73, 0
2, 246336, Note_on_c, 0, 74, 87
2, 246716, Note_off_c, 0, 74, 0
2, 246720, Note_on_c, 0, 75, 85
2, 247100, Note_off_c, 0, 75, 0
2, 247104, Note_on_c, 0, 66, 81
2, 247292, Note_off_c, 0, 66, 0
2, 247296, Note_on_c, 0, 69, 80
2, 247676, Note_off_c, 0, 69, 0
2, 247680, Note_on_c, 0, 67, 75
2, 248060, Note_off_c, 0, 67, 0
2, 260352, Note_on_c, 0, 74, 89
2, 260396, Note_off_c, 0, 74, 0
2, 260400, Note_on_c, 0, 86, 89
2, 260728, Note_off_c, 0, 86, 0
2, 260736, Note_on_c, 0, 86, 89
2, 260736, Note_on_c, 0, 59, 89
2, 260736, Note_on_c, 0, 55, 89
2, 260828, Note_off_c, 0, 59, 0
2, 260828, Note_off_c, 0, 55, 0
2, 260928, Note_on_c, 0, 60, 89
2, 260928, Note_on_c, 0, 57, 89
2, 261020, Note_off_c, 0, 60, 0
2, 261020, Note_off_c, 0, 57, 0
2, 261116, Note_off_c, 0, 86, 0
2, 261120, Note_on_c, 0, 86, 89
2, 261120, Note_on_c, 0, 62, 89
2, 261120, Note_on_c, 0, 59, 89
2, 261164, Note_off_c, 0, 86, 0
2, 261168, Note_on_c, 0, 88, 89
2, 261212, Note_off_c, 0, 88, 0
2, 261216, Note_on_c, 0, 86, 89
2, 261260, Note_off_c, 0, 86, 0
2, 261264, Note_on_c, 0, 88, 89
2, 261308, Note_off_c, 0, 88, 0
2, 261312, Note_on_c, 0, 86, 89
2, 261356, Note_off_c, 0, 86, 0
2, 261360, Note_on_c, 0, 88, 89
2, 261404, Note_off_c, 0, 88, 0
2, 261408, Note_on_c, 0, 86, 89
2, 261452, Note_off_c, 0, 86, 0
2, 261456, Note_on_c, 0, 88, 89
2, 261500, Note_off_c, 0, 62, 0
2, 261500, Note_off_c, 0, 59, 0
2, 261500, Note_off_c, 0, 88, 0
2, 261504, Note_on_c, 0, 86, 89
2, 261504, Note_on_c, 0, 62, 89
2, 261504, Note_on_c, 0, 59, 89
2, 261548, Note_off_c, 0, 86, 0
2, 261552, Note_on_c, 0, 88, 89
2, 261596, Note_off_c, 0, 88, 0
2, 261600, Note_on_c, 0, 86, 89
2, 261644, Note_off_c, 0, 86, 0
2, 261648, Note_on_c, 0, 88, 89
2, 261692, Note_off_c, 0, 88, 0
2, 261696, Note_on_c, 0, 86, 89
2, 261740, Note_off_c, 0, 86, 0
2, 261744, Note_on_c, 0, 88, 89
2, 261788, Note_off_c, 0, 88, 0
2, 261792, Note_on_c, 0, 86, 89
2, 261836, Note_off_c, 0, 86, 0
2, 261840, Note_on_c, 0, 88, 89
2, 261884, Note_off_c, 0, 62, 0
2, 261884, Note_off_c, 0, 59, 0
2, 261884, Note_off_c, 0, 88, 0
2, 261888, Note_on_c, 0, 86, 89
2, 261888, Note_on_c, 0, 62, 89
2, 261888, Note_on_c, 0, 59, 89
2, 261932, Note_off_c, 0, 86, 0
2, 261936, Note_on_c, 0, 88, 89
2, 261980, Note_off_c, 0, 88, 0
2, 261984, Note_on_c, 0, 86, 89
2, 262028, Note_off_c, 0, 86, 0
2, 262032, Note_on_c, 0, 88, 89
2, 262076, Note_off_c, 0, 88, 0
2, 262080, Note_on_c, 0, 86, 89
2, 262124, Note_off_c, 0, 86, 0
2, 262128, Note_on_c, 0, 88, 89
2, 262172, Note_off_c, 0, 88, 0
2, 262176, Note_on_c, 0, 86, 89
2, 262220, Note_off_c, 0, 86, 0
2, 262224, Note_on_c, 0, 88, 89
2, 262268, Note_off_c, 0, 62, 0
2, 262268, Note_off_c, 0, 88, 0
2, 262272, Note_on_c, 0, 86, 89
2, 262272, Note_on_c, 0, 67, 89
2, 262316, Note_off_c, 0, 86, 0
2, 262320, Note_on_c, 0, 88, 89
2, 262364, Note_off_c, 0, 88, 0
2, 262368, Note_on_c, 0, 86, 89
2, 262412, Note_off_c, 0, 86, 0
2, 262416, Note_on_c, 0, 88, 89
2, 262460, Note_off_c, 0, 88, 0
2, 262464, Note_on_c, 0, 86, 89
2, 262508, Note_off_c, 0, 86, 0
2, 262512, Note_on_c, 0, 88, 89
2, 262556, Note_off_c, 0, 88, 0
2, 262560, Note_on_c, 0, 86, 89
2, 262604, Note_off_c, 0, 86, 0
2, 262608, Note_on_c, 0, 88, 89
2, 262652, Note_off_c, 0, 59, 0
2, 262652, Note_off_c, 0, 67, 0
2, 262652, Note_off_c, 0, 88, 0
2, 262656, Note_on_c, 0, 86, 89
2, 262656, Note_on_c, 0, 67, 89
2, 262700, Note_off_c, 0, 86, 0
2, 262700, Note_off_c, 0, 67, 0
2, 262704, Note_on_c, 0, 88, 89
2, 262704, Note_on_c, 0, 66, 89
2, 262704, Note_on_c, 0, 60, 89
2, 262748, Note_off_c, 0, 88, 0
2, 262752, Note_on_c, 0, 86, 89
2, 262796, Note_off_c, 0, 86, 0
2, 262800, Note_on_c, 0, 88, 89
2, 262844, Note_off_c, 0, 88, 0
2, 262848, Note_on_c, 0, 86, 89
2, 262892, Note_off_c, 0, 86, 0
2, 262896, Note_on_c, 0, 88, 89
2, 262940, Note_off_c, 0, 88, 0
2, 262944, Note_on_c, 0, 86, 89
2, 262988, Note_off_c, 0, 86, 0
2, 262992, Note_on_c, 0, 88, 89
2, 263032, Note_off_c, 0, 66, 0
2, 263036, Note_off_c, 0, 88, 0
2, 263040, Note_on_c, 0, 86, 89
2, 263040, Note_on_c, 0, 66, 89
2, 263084, Note_off_c, 0, 86, 0
2, 263088, Note_on_c, 0, 88, 89
2, 263132, Note_off_c, 0, 88, 0
2, 263136, Note_on_c, 0, 86, 89
2, 263180, Note_off_c, 0, 86, 0
2, 263184, Note_on_c, 0, 88, 89
2, 263228, Note_off_c, 0, 88, 0
2, 263232, Note_on_c, 0, 86, 89
2, 263276, Note_off_c, 0, 86, 0
2, 263280, Note_on_c, 0, 88, 89
2, 263324, Note_off_c, 0, 88, 0
2, 263328, Note_on_c, 0, 86, 89
2, 263368, Note_off_c, 0, 66, 0
2, 263372, Note_off_c, 0, 86, 0
2, 263376, Note_on_c, 0, 88, 89
2, 263416, Note_off_c, 0, 60, 0
2, 263420, Note_off_c, 0, 88, 0
2, 263424, Note_on_c, 0, 86, 89
2, 263424, Note_on_c, 0, 69, 89
2, 263468, Note_off_c, 0, 86, 0
2, 263468, Note_off_c, 0, 69, 0
2, 263472, Note_on_c, 0, 88, 89
2, 263472, Note_on_c, 0, 67, 89
2, 263472, Note_on_c, 0, 59, 89
2, 263516, Note_off_c, 0, 88, 0
2, 263520, Note_on_c, 0, 86, 89
2, 263564, Note_off_c, 0, 86, 0
2, 263568, Note_on_c, 0, 88, 89
2, 263612, Note_off_c, 0, 88, 0
2, 263616, Note_on_c, 0, 86, 89
2, 263660, Note_off_c, 0, 86, 0
2, 263664, Note_on_c, 0, 88, 89
2, 263708, Note_off_c, 0, 88, 0
2, 263712, Note_on_c, 0, 86, 89
2, 263756, Note_off_c, 0, 86, 0
2, 263760, Note_on_c, 0, 88, 89
2, 263800, Note_off_c, 0, 67, 0
2, 263804, Note_off_c, 0, 88, 0
2, 263808, Note_on_c, 0, 86, 89
2, 263808, Note_on_c, 0, 67, 89
2, 263852, Note_off_c, 0, 86, 0
2, 263856, Note_on_c, 0, 88, 89
2, 263900, Note_off_c, 0, 88, 0
2, 263904, Note_on_c, 0, 86, 89
2, 263948, Note_off_c, 0, 86, 0
2, 263952, Note_on_c, 0, 88, 89
2, 263996, Note_off_c, 0, 88, 0
2, 264000, Note_on_c, 0, 86, 89
2, 264044, Note_off_c, 0, 86, 0
2, 264048, Note_on_c, 0, 88, 89
2, 264092, Note_off_c, 0, 88, 0
2, 264096, Note_on_c, 0, 86, 89
2, 264136, Note_off_c, 0, 67, 0
2, 264140, Note_off_c, 0, 86, 0
2, 264144, Note_on_c, 0, 88, 89
2, 264184, Note_off_c, 0, 59, 0
2, 264188, Note_off_c, 0, 88, 0
2, 264192, Note_on_c, 0, 86, 89
2, 264192, Note_on_c, 0, 71, 89
2, 264236, Note_off_c, 0, 86, 0
2, 264236, Note_off_c, 0, 71, 0
2, 264240, Note_on_c, 0, 88, 89
2, 264240, Note_on_c, 0, 69, 89
2, 264240, Note_on_c, 0, 66, 89
2, 264284, Note_off_c, 0, 88, 0
2, 264288, Note_on_c, 0, 86, 89
2, 264332, Note_off_c, 0, 86, 0
2, 264336, Note_on_c, 0, 88, 89
2, 264380, Note_off_c, 0, 88, 0
2, 264384, Note_on_c, 0, 86, 89
2, 264428, Note_off_c, 0, 86, 0
2, 264432, Note_on_c, 0, 88, 89
2, 264476, Note_off_c, 0, 88, 0
2, 264480, Note_on_c, 0, 86, 89
2, 264524, Note_off_c, 0, 86, 0
2, 264528, Note_on_c, 0, 88, 89
2, 264568, Note_off_c, 0, 69, 0
2, 264572, Note_off_c, 0, 88, 0
2, 264576, Note_on_c, 0, 86, 89
2, 264576, Note_on_c, 0, 69, 89
2, 264620, Note_off_c, 0, 86, 0
2, 264624, Note_on_c, 0, 88, 89
2, 264668, Note_off_c, 0, 88, 0
2, 264672, Note_on_c, 0, 86, 89
2, 264716, Note_off_c, 0, 86, 0
2, 264720, Note_on_c, 0, 88, 89
2, 264764, Note_off_c, 0, 88, 0
2, 264768, Note_on_c, 0, 86, 89
2, 264812, Note_off_c, 0, 86, 0
2, 264816, Note_on_c, 0, 88, 89
2, 264860, Note_off_c, 0, 88, 0
2, 264864, Note_on_c, 0, 86, 89
2, 264904, Note_off_c, 0, 69, 0
2, 264908, Note_off_c, 0, 86, 0
2, 264912, Note_on_c, 0, 88, 89
2, 264952, Note_off_c, 0, 66, 0
2, 264956, Note_off_c, 0, 88, 0
2, 264960, Note_on_c, 0, 86, 89
2, 264960, Note_on_c, 0, 66, 89
2, 264960, Note_on_c, 0, 69, 89
2, 265004, Note_off_c, 0, 86, 0
2, 265008, Note_on_c, 0, 88, 89
2, 265052, Note_off_c, 0, 88, 0
2, 265056, Note_on_c, 0, 86, 89
2, 265100, Note_off_c, 0, 86, 0
2, 265104, Note_on_c, 0, 88, 89
2, 265148, Note_off_c, 0, 69, 0
2, 265148, Note_off_c, 0, 88, 0
2, 265152, Note_on_c, 0, 86, 89
2, 265152, Note_on_c, 0, 71, 89
2, 265196, Note_off_c, 0, 86, 0
2, 265200, Note_on_c, 0, 88, 89
2, 265244, Note_off_c, 0, 88, 0
2, 265248, Note_on_c, 0, 86, 89
2, 265292, Note_off_c, 0, 86, 0
2, 265296, Note_on_c, 0, 88, 89
2, 265340, Note_off_c, 0, 71, 0
2, 265340, Note_off_c, 0, 88, 0
2, 265344, Note_on_c, 0, 86, 89
2, 265344, Note_on_c, 0, 72, 89
2, 265388, Note_off_c, 0, 86, 0
2, 265392, Note_on_c, 0, 88, 89
2, 265436, Note_off_c, 0, 88, 0
2, 265440, Note_on_c, 0, 86, 89
2, 265484, Note_off_c, 0, 86, 0
2, 265488, Note_on_c, 0, 88, 89
2, 265532, Note_off_c, 0, 72, 0
2, 265532, Note_off_c, 0, 88, 0
2, 265536, Note_on_c, 0, 86, 89
2, 265536, Note_on_c, 0, 69, 89
2, 265580, Note_off_c, 0, 86, 0
2, 265584, Note_on_c, 0, 88, 89
2, 265628, Note_off_c, 0, 88, 0
2, 265632, Note_on_c, 0, 86, 89
2, 265676, Note_off_c, 0, 86, 0
2, 265680, Note_on_c, 0, 88, 89
2, 265724, Note_off_c, 0, 66, 0
2, 265724, Note_off_c, 0, 69, 0
2, 265724, Note_off_c, 0, 88, 0
2, 265728, Note_on_c, 0, 86, 89
2, 265728, Note_on_c, 0, 71, 89
2, 265728, Note_on_c, 0, 67, 89
2, 265772, Note_off_c, 0, 86, 0
2, 265776, Note_on_c, 0, 88, 89
2, 265820, Note_off_c, 0, 88, 0
2, 265824, Note_on_c, 0, 86, 89
2, 265868, Note_off_c, 0, 86, 0
2, 265872, Note_on_c, 0, 88, 89
2, 265916, Note_off_c, 0, 88, 0
2, 265920, Note_on_c, 0, 86, 89
2, 265964, Note_off_c, 0, 86, 0
2, 265968, Note_on_c, 0, 88, 89
2, 266012, Note_off_c, 0, 88, 0
2, 266016, Note_on_c, 0, 86, 89
2, 266060, Note_off_c, 0, 86, 0
2, 266064, Note_on_c, 0, 88, 89
2, 266108, Note_off_c, 0, 88, 0
2, 266112, Note_on_c, 0, 86, 89
2, 266156, Note_off_c, 0, 86, 0
2, 266160, Note_on_c, 0, 88, 89
2, 266204, Note_off_c, 0, 88, 0
2, 266208, Note_on_c, 0, 86, 89
2, 266252, Note_off_c, 0, 86, 0
2, 266256, Note_on_c, 0, 88, 89
2, 266300, Note_off_c, 0, 88, 0
2, 266304, Note_on_c, 0, 86, 89
2, 266348, Note_off_c, 0, 86, 0
2, 266352, Note_on_c, 0, 88, 89
2, 266396, Note_off_c, 0, 88, 0
2, 266400, Note_on_c, 0, 86, 89
2, 266444, Note_off_c, 0, 86, 0
2, 266448, Note_on_c, 0, 88, 89
2, 266492, Note_off_c, 0, 71, 0
2, 266492, Note_off_c, 0, 67, 0
2, 266492, Note_off_c, 0, 88, 0
2, 266496, Note_on_c, 0, 86, 89
2, 266684, Note_off_c, 0, 86, 0
2, 266688, Note_on_c, 0, 85, 89
2, 266780, Note_off_c, 0, 85, 0
2, 266784, Note_on_c, 0, 86, 89
2, 266876, Note_off_c, 0, 86, 0
2, 266880, Note_on_c, 0, 88, 89
2, 266972, Note_off_c, 0, 88, 0
2, 266976, Note_on_c, 0, 86, 89
2, 267068, Note_off_c, 0, 86, 0
2, 267072, Note_on_c, 0, 85, 89
2, 267164, Note_off_c, 0, 85, 0
2, 267168, Note_on_c, 0, 83, 89
2, 267260, Note_off_c, 0, 83, 0
2, 267264, Note_on_c, 0, 83, 89
2, 267452, Note_off_c, 0, 83, 0
2, 267456, Note_on_c, 0, 81, 89
2, 267644, Note_off_c, 0, 81, 0
2, 267648, Note_on_c, 0, 81, 89
2, 267648, Note_on_c, 0, 74, 89
2, 267648, Note_on_c, 0, 66, 89
2, 268028, Note_off_c, 0, 81, 0
2, 268028, Note_off_c, 0, 74, 0
2, 268028, Note_off_c, 0, 66, 0
2, 268032, Note_on_c, 0, 81, 89
2, 268032, Note_on_c, 0, 66, 89
2, 268032, Note_on_c, 0, 74, 89
2, 268156, Note_off_c, 0, 81, 0
2, 268160, Note_on_c, 0, 86, 89
2, 268284, Note_off_c, 0, 86, 0
2, 268288, Note_on_c, 0, 85, 89
2, 268412, Note_off_c, 0, 66, 0
2, 268412, Note_off_c, 0, 74, 0
2, 268412, Note_off_c, 0, 85, 0
2, 268416, Note_on_c, 0, 86, 89
2, 268416, Note_on_c, 0, 69, 89
2, 268416, Note_on_c, 0, 66, 89
2, 268540, Note_off_c, 0, 86, 0
2, 268544, Note_on_c, 0, 84, 89
2, 268668, Note_off_c, 0, 84, 0
2, 268672, Note_on_c, 0, 83, 89
2, 268796, Note_off_c, 0, 69, 0
2, 268796, Note_off_c, 0, 66, 0
2, 268796, Note_off_c, 0, 83, 0
2, 268800, Note_on_c, 0, 81, 89
2, 268800, Note_on_c, 0, 72, 89
2, 268800, Note_on_c, 0, 64, 89
2, 268924, Note_off_c, 0, 81, 0
2, 268928, Note_on_c, 0, 79, 89
2, 269052, Note_off_c, 0, 79, 0
2, 269056, Note_on_c, 0, 88, 89
2, 269180, Note_off_c, 0, 88, 0
2, 269184, Note_on_c, 0, 86, 89
2, 269276, Note_off_c, 0, 86, 0
2, 269280, Note_on_c, 0, 85, 89
2, 269372, Note_off_c, 0, 85, 0
2, 269376, Note_on_c, 0, 83, 89
2, 269468, Note_off_c, 0, 83, 0
2, 269472, Note_on_c, 0, 81, 89
2, 269564, Note_off_c, 0, 72, 0
2, 269564, Note_off_c, 0, 64, 0
2, 269564, Note_off_c, 0, 81, 0
2, 269568, Note_on_c, 0, 79, 89
2, 269568, Note_on_c, 0, 74, 89
2, 269568, Note_on_c, 0, 62, 89
2, 269692, Note_off_c, 0, 79, 0
2, 269696, Note_on_c, 0, 78, 89
2, 269820, Note_off_c, 0, 78, 0
2, 269824, Note_on_c, 0, 86, 89
2, 269948, Note_off_c, 0, 86, 0
2, 269952, Note_on_c, 0, 85, 89
2, 270044, Note_off_c, 0, 85, 0
2, 270048, Note_on_c, 0, 83, 89
2, 270140, Note_off_c, 0, 83, 0
2, 270144, Note_on_c, 0, 81, 89
2, 270236, Note_off_c, 0, 81, 0
2, 270240, Note_on_c, 0, 79, 89
2, 270332, Note_off_c, 0, 74, 0
2, 270332, Note_off_c, 0, 62, 0
2, 270332, Note_off_c, 0, 79, 0
2, 270336, Note_on_c, 0, 78, 89
2, 270460, Note_off_c, 0, 78, 0
2, 270464, Note_on_c, 0, 76, 89
2, 270588, Note_off_c, 0, 76, 0
2, 270592, Note_on_c, 0, 83, 89
2, 270716, Note_off_c, 0, 83, 0
2, 270720, Note_on_c, 0, 81, 89
2, 270812, Note_off_c, 0, 81, 0
2, 270816, Note_on_c, 0, 79, 89
2, 270908, Note_off_c, 0, 79, 0
2, 270912, Note_on_c, 0, 78, 89
2, 271004, Note_off_c, 0, 78, 0
2, 271008, Note_on_c, 0, 76, 89
2, 271100, Note_off_c, 0, 76, 0
2, 271104, Note_on_c, 0, 74, 89
2, 271292, Note_off_c, 0, 74, 0
2, 271296, Note_on_c, 0, 73, 89
2, 271484, Note_off_c, 0, 73, 0
2, 271488, Note_on_c, 0, 79, 89
2, 271676, Note_off_c, 0, 79, 0
2, 271680, Note_on_c, 0, 73, 82
2, 271868, Note_off_c, 0, 73, 0
2, 271872, Note_on_c, 0, 76, 73
2, 272252, Note_off_c, 0, 76, 0
2, 272256, Note_on_c, 0, 74, 67
2, 272636, Note_off_c, 0, 74, 0
2, 285216, Note_on_c, 0, 71, 67
2, 285308, Note_off_c, 0, 71, 0
2, 285312, Note_on_c, 0, 79, 67
2, 285596, Note_off_c, 0, 79, 0
2, 285600, Note_on_c, 0, 76, 67
2, 285692, Note_off_c, 0, 76, 0
2, 285696, Note_on_c, 0, 83, 67
2, 285696, Note_on_c, 0, 88, 67
2, 285980, Note_off_c, 0, 83, 0
2, 285984, Note_on_c, 0, 81, 67
2, 286076, Note_off_c, 0, 81, 0
2, 286080, Note_on_c, 0, 81, 67
2, 286364, Note_off_c, 0, 81, 0
2, 286368, Note_on_c, 0, 81, 67
2, 286460, Note_off_c, 0, 81, 0
2, 286464, Note_on_c, 0, 81, 67
2, 286844, Note_off_c, 0, 81, 0
2, 286848, Note_on_c, 0, 81, 67
2, 287228, Note_off_c, 0, 88, 0
2, 287228, Note_off_c, 0, 81, 0
2, 287232, Note_on_c, 0, 81, 67
2, 287300, Note_off_c, 0, 81, 0
2, 287304, Note_on_c, 0, 83, 67
2, 287372, Note_off_c, 0, 83, 0
2, 287376, Note_on_c, 0, 81, 67
2, 287444, Note_off_c, 0, 81, 0
2, 287448, Note_on_c, 0, 80, 53
2, 287516, Note_off_c, 0, 80, 64
2, 287536, Note_on_c, 0, 81, 67
2, 287604, Note_off_c, 0, 81, 0
2, 287616, Note_on_c, 0, 86, 67
2, 287996, Note_off_c, 0, 86, 0
2, 288128, Note_on_c, 0, 74, 67
2, 288252, Note_off_c, 0, 74, 0
2, 288256, Note_on_c, 0, 73, 67
2, 288380, Note_off_c, 0, 73, 0
2, 288384, Note_on_c, 0, 74, 67
2, 288508, Note_off_c, 0, 74, 0
2, 288512, Note_on_c, 0, 78, 67
2, 288636, Note_off_c, 0, 78, 0
2, 288640, Note_on_c, 0, 74, 67
2, 288764, Note_off_c, 0, 74, 0
2, 288768, Note_on_c, 0, 83, 67
2, 288956, Note_off_c, 0, 83, 0
2, 288960, Note_on_c, 0, 81, 67
2, 289148, Note_off_c, 0, 81, 0
2, 289152, Note_on_c, 0, 81, 67
2, 289340, Note_off_c, 0, 81, 0
2, 289344, Note_on_c, 0, 81, 67
2, 289532, Note_off_c, 0, 81, 0
2, 289536, Note_on_c, 0, 80, 67
2, 289724, Note_off_c, 0, 80, 0
2, 289728, Note_on_c, 0, 81, 67
2, 289916, Note_off_c, 0, 81, 0
2, 289920, Note_on_c, 0, 80, 67
2, 290108, Note_off_c, 0, 80, 0
2, 290112, Note_on_c, 0, 81, 67
2, 290300, Note_off_c, 0, 81, 0
2, 290304, Note_on_c, 0, 81, 67
2, 290372, Note_off_c, 0, 81, 0
2, 290376, Note_on_c, 0, 83, 67
2, 290444, Note_off_c, 0, 83, 0
2, 290448, Note_on_c, 0, 81, 67
2, 290516, Note_off_c, 0, 81, 0
2, 290528, Note_on_c, 0, 80, 67
2, 290596, Note_off_c, 0, 80, 0
2, 290608, Note_on_c, 0, 81, 67
2, 290676, Note_off_c, 0, 81, 0
2, 290688, Note_on_c, 0, 86, 67
2, 291068, Note_off_c, 0, 86, 0
2, 291360, Note_on_c, 0, 81, 67
2, 291452, Note_off_c, 0, 81, 0
2, 291456, Note_on_c, 0, 83, 67
2, 291548, Note_off_c, 0, 83, 0
2, 291552, Note_on_c, 0, 81, 67
2, 291632, Note_on_c, 0, 83, 67
2, 291644, Note_off_c, 0, 81, 0
2, 291724, Note_off_c, 0, 83, 0
2, 291744, Note_on_c, 0, 84, 67
2, 291836, Note_off_c, 0, 84, 0
2, 291840, Note_on_c, 0, 86, 69
2, 292128, Note_on_c, 0, 79, 73
2, 292220, Note_off_c, 0, 79, 0
2, 292224, Note_on_c, 0, 81, 75
2, 292316, Note_off_c, 0, 81, 0
2, 292320, Note_on_c, 0, 79, 78
2, 292412, Note_off_c, 0, 86, 0
2, 292412, Note_off_c, 0, 79, 0
2, 292416, Note_on_c, 0, 81, 79
2, 292508, Note_off_c, 0, 81, 0
2, 292512, Note_on_c, 0, 83, 81
2, 292604, Note_off_c, 0, 83, 0
2, 292608, Note_on_c, 0, 84, 82
2, 292896, Note_on_c, 0, 78, 86
2, 292988, Note_off_c, 0, 78, 0
2, 292992, Note_on_c, 0, 79, 66
2, 293084, Note_off_c, 0, 79, 0
2, 293088, Note_on_c, 0, 78, 66
2, 293180, Note_off_c, 0, 84, 0
2, 293180, Note_off_c, 0, 78, 0
2, 293184, Note_on_c, 0, 79, 66
2, 293276, Note_off_c, 0, 79, 0
2, 293280, Note_on_c, 0, 81, 66
2, 293372, Note_off_c, 0, 81, 0
2, 293376, Note_on_c, 0, 83, 66
2, 293664, Note_on_c, 0, 76, 66
2, 293756, Note_off_c, 0, 76, 0
2, 293760, Note_on_c, 0, 78, 66
2, 293852, Note_off_c, 0, 78, 0
2, 293856, Note_on_c, 0, 76, 66
2, 293948, Note_off_c, 0, 83, 0
2, 293948, Note_off_c, 0, 76, 0
2, 293952, Note_on_c, 0, 78, 66
2, 294044, Note_off_c, 0, 78, 0
2, 294048, Note_on_c, 0, 79, 66
2, 294140, Note_off_c, 0, 79, 0
2, 294144, Note_on_c, 0, 81, 66
2, 294432, Note_on_c, 0, 74, 66
2, 294524, Note_off_c, 0, 74, 0
2, 294528, Note_on_c, 0, 76, 66
2, 294620, Note_off_c, 0, 76, 0
2, 294624, Note_on_c, 0, 74, 66
2, 294716, Note_off_c, 0, 81, 0
2, 294716, Note_off_c, 0, 74, 0
2, 294720, Note_on_c, 0, 76, 66
2, 294812, Note_off_c, 0, 76, 0
2, 294816, Note_on_c, 0, 78, 66
2, 294908, Note_off_c, 0, 78, 0
2, 294912, Note_on_c, 0, 79, 66
2, 295100, Note_off_c, 0, 79, 0
2, 295104, Note_on_c, 0, 71, 66
2, 295292, Note_off_c, 0, 71, 0
2, 295296, Note_on_c, 0, 69, 66
2, 295580, Note_off_c, 0, 69, 0
2, 295584, Note_on_c, 0, 76, 66
2, 295676, Note_off_c, 0, 76, 0
2, 295680, Note_on_c, 0, 67, 93
2, 296060, Note_off_c, 0, 67, 0
2, 296064, Note_on_c, 0, 69, 86
2, 296444, Note_off_c, 0, 69, 0
2, 296448, Note_on_c, 0, 72, 67
2, 296448, Note_on_c, 0, 69, 67
2, 296828, Note_off_c, 0, 72, 0
2, 296828, Note_off_c, 0, 69, 0
2, 296832, Note_on_c, 0, 71, 67
2, 296832, Note_on_c, 0, 67, 67
2, 297212, Note_off_c, 0, 71, 0
2, 297212, Note_off_c, 0, 67, 0
2, 297344, Note_on_c, 0, 69, 67
2, 297344, Note_on_c, 0, 81, 67
2, 297468, Note_off_c, 0, 69, 0
2, 297468, Note_off_c, 0, 81, 0
2, 297472, Note_on_c, 0, 82, 67
2, 297472, Note_on_c, 0, 70, 67
2, 297596, Note_off_c, 0, 82, 0
2, 297596, Note_off_c, 0, 70, 0
2, 297600, Note_on_c, 0, 83, 67
2, 297600, Note_on_c, 0, 71, 67
2, 297724, Note_off_c, 0, 83, 0
2, 297724, Note_off_c, 0, 71, 0
2, 297728, Note_on_c, 0, 84, 67
2, 297728, Note_on_c, 0, 72, 67
2, 297852, Note_off_c, 0, 84, 0
2, 297852, Note_off_c, 0, 72, 0
2, 297856, Note_on_c, 0, 85, 67
2, 297856, Note_on_c, 0, 73, 67
2, 297980, Note_off_c, 0, 85, 0
2, 297980, Note_off_c, 0, 73, 0
2, 297984, Note_on_c, 0, 86, 67
2, 297984, Note_on_c, 0, 74, 67
2, 298108, Note_off_c, 0, 86, 0
2, 298108, Note_off_c, 0, 74, 0
2, 298112, Note_on_c, 0, 79, 67
2, 298112, Note_on_c, 0, 67, 67
2, 298236, Note_off_c, 0, 79, 0
2, 298236, Note_off_c, 0, 67, 0
2, 298240, Note_on_c, 0, 80, 67
2, 298240, Note_on_c, 0, 68, 67
2, 298364, Note_off_c, 0, 80, 0
2, 298364, Note_off_c, 0, 68, 0
2, 298368, Note_on_c, 0, 81, 67
2, 298368, Note_on_c, 0, 69, 67
2, 298492, Note_off_c, 0, 81, 0
2, 298492, Note_off_c, 0, 69, 0
2, 298496, Note_on_c, 0, 82, 67
2, 298496, Note_on_c, 0, 70, 67
2, 298620, Note_off_c, 0, 82, 0
2, 298620, Note_off_c, 0, 70, 0
2, 298624, Note_on_c, 0, 83, 67
2, 298624, Note_on_c, 0, 71, 67
2, 298748, Note_off_c, 0, 83, 0
2, 298748, Note_off_c, 0, 71, 0
2, 298752, Note_on_c, 0, 84, 67
2, 298752, Note_on_c, 0, 72, 67
2, 298876, Note_off_c, 0, 84, 0
2, 298876, Note_off_c, 0, 72, 0
2, 298880, Note_on_c, 0, 78, 67
2, 298880, Note_on_c, 0, 66, 67
2, 299004, Note_off_c, 0, 78, 0
2, 299004, Note_off_c, 0, 66, 0
2, 299008, Note_on_c, 0, 79, 67
2, 299008, Note_on_c, 0, 67, 67
2, 299132, Note_off_c, 0, 79, 0
2, 299132, Note_off_c, 0, 67, 0
2, 299136, Note_on_c, 0, 80, 67
2, 299136, Note_on_c, 0, 68, 67
2, 299260, Note_off_c, 0, 80, 0
2, 299260, Note_off_c, 0, 68, 0
2, 299264, Note_on_c, 0, 81, 67
2, 299264, Note_on_c, 0, 69, 67
2, 299388, Note_off_c, 0, 81, 0
2, 299388, Note_off_c, 0, 69, 0
2, 299392, Note_on_c, 0, 82, 67
2, 299392, Note_on_c, 0, 70, 67
2, 299516, Note_off_c, 0, 82, 0
2, 299516, Note_off_c, 0, 70, 0
2, 299520, Note_on_c, 0, 83, 67
2, 299520, Note_on_c, 0, 71, 67
2, 299644, Note_off_c, 0, 83, 0
2, 299644, Note_off_c, 0, 71, 0
2, 299648, Note_on_c, 0, 76, 67
2, 299648, Note_on_c, 0, 64, 67
2, 299772, Note_off_c, 0, 76, 0
2, 299772, Note_off_c, 0, 64, 0
2, 299776, Note_on_c, 0, 77, 67
2, 299776, Note_on_c, 0, 65, 67
2, 299900, Note_off_c, 0, 77, 0
2, 299900, Note_off_c, 0, 65, 0
2, 299904, Note_on_c, 0, 78, 67
2, 299904, Note_on_c, 0, 66, 67
2, 300028, Note_off_c, 0, 78, 0
2, 300028, Note_off_c, 0, 66, 0
2, 300032, Note_on_c, 0, 79, 67
2, 300032, Note_on_c, 0, 67, 67
2, 300156, Note_off_c, 0, 79, 0
2, 300156, Note_off_c, 0, 67, 0
2, 300160, Note_on_c, 0, 80, 67
2, 300160, Note_on_c, 0, 68, 67
2, 300284, Note_off_c, 0, 80, 0
2, 300284, Note_off_c, 0, 68, 0
2, 300288, Note_on_c, 0, 81, 67
2, 300288, Note_on_c, 0, 69, 67
2, 300412, Note_off_c, 0, 81, 0
2, 300412, Note_off_c, 0, 69, 0
2, 300416, Note_on_c, 0, 74, 67
2, 300416, Note_on_c, 0, 62, 67
2, 300540, Note_off_c, 0, 74, 0
2, 300540, Note_off_c, 0, 62, 0
2, 300544, Note_on_c, 0, 75, 67
2, 300544, Note_on_c, 0, 63, 67
2, 300668, Note_off_c, 0, 75, 0
2, 300668, Note_off_c, 0, 63, 0
2, 300672, Note_on_c, 0, 76, 67
2, 300672, Note_on_c, 0, 64, 67
2, 300796, Note_off_c, 0, 76, 0
2, 300796, Note_off_c, 0, 64, 0
2, 300800, Note_on_c, 0, 77, 67
2, 300800, Note_on_c, 0, 65, 67
2, 300924, Note_off_c, 0, 77, 0
2, 300924, Note_off_c, 0, 65, 0
2, 300928, Note_on_c, 0, 78, 67
2, 300928, Note_on_c, 0, 66, 67
2, 301052, Note_off_c, 0, 78, 0
2, 301052, Note_off_c, 0, 66, 0
2, 301056, Note_on_c, 0, 79, 67
2, 301056, Note_on_c, 0, 67, 67
2, 301436, Note_off_c, 0, 79, 0
2, 301436, Note_off_c, 0, 67, 0
2, 301952, Note_on_c, 0, 72, 67
2, 301952, Note_on_c, 0, 60, 67
2, 302076, Note_off_c, 0, 72, 0
2, 302076, Note_off_c, 0, 60, 0
2, 302080, Note_on_c, 0, 61, 67
2, 302080, Note_on_c, 0, 73, 67
2, 302204, Note_off_c, 0, 61, 0
2, 302204, Note_off_c, 0, 73, 0
2, 302208, Note_on_c, 0, 74, 67
2, 302208, Note_on_c, 0, 62, 67
2, 302332, Note_off_c, 0, 74, 0
2, 302332, Note_off_c, 0, 62, 0
2, 302336, Note_on_c, 0, 75, 67
2, 302336, Note_on_c, 0, 63, 67
2, 302460, Note_off_c, 0, 75, 0
2, 302460, Note_off_c, 0, 63, 0
2, 302464, Note_on_c, 0, 76, 67
2, 302464, Note_on_c, 0, 64, 67
2, 302588, Note_off_c, 0, 76, 0
2, 302588, Note_off_c, 0, 64, 0
2, 302592, Note_on_c, 0, 77, 67
2, 302592, Note_on_c, 0, 65, 67
2, 302716, Note_off_c, 0, 77, 0
2, 302716, Note_off_c, 0, 65, 0
2, 302720, Note_on_c, 0, 71, 67
2, 302720, Note_on_c, 0, 59, 67
2, 302844, Note_off_c, 0, 71, 0
2, 302844, Note_off_c, 0, 59, 0
2, 302848, Note_on_c, 0, 72, 67
2, 302848, Note_on_c, 0, 60, 67
2, 302972, Note_off_c, 0, 72, 0
2, 302972, Note_off_c, 0, 60, 0
2, 302976, Note_on_c, 0, 73, 67
2, 302976, Note_on_c, 0, 61, 67
2, 303100, Note_off_c, 0, 73, 0
2, 303100, Note_off_c, 0, 61, 0
2, 303104, Note_on_c, 0, 74, 67
2, 303104, Note_on_c, 0, 62, 67
2, 303228, Note_off_c, 0, 74, 0
2, 303228, Note_off_c, 0, 62, 0
2, 303232, Note_on_c, 0, 75, 67
2, 303232, Note_on_c, 0, 63, 67
2, 303356, Note_off_c, 0, 75, 0
2, 303356, Note_off_c, 0, 63, 0
2, 303360, Note_on_c, 0, 76, 67
2, 303360, Note_on_c, 0, 64, 67
2, 303484, Note_off_c, 0, 76, 0
2, 303484, Note_off_c, 0, 64, 0
2, 303488, Note_on_c, 0, 69, 67
2, 303488, Note_on_c, 0, 57, 67
2, 303612, Note_off_c, 0, 69, 0
2, 303612, Note_off_c, 0, 57, 0
2, 303616, Note_on_c, 0, 70, 67
2, 303616, Note_on_c, 0, 58, 67
2, 303740, Note_off_c, 0, 70, 0
2, 303740, Note_off_c, 0, 58, 0
2, 303744, Note_on_c, 0, 71, 67
2, 303744, Note_on_c, 0, 59, 67
2, 303868, Note_off_c, 0, 71, 0
2, 303868, Note_off_c, 0, 59, 0
2, 303872, Note_on_c, 0, 72, 67
2, 303872, Note_on_c, 0, 60, 67
2, 303996, Note_off_c, 0, 72, 0
2, 303996, Note_off_c, 0, 60, 0
2, 304000, Note_on_c, 0, 73, 67
2, 304000, Note_on_c, 0, 61, 67
2, 304124, Note_off_c, 0, 73, 0
2, 304124, Note_off_c, 0, 61, 0
2, 304128, Note_on_c, 0, 74, 67
2, 304128, Note_on_c, 0, 62, 67
2, 304508, Note_off_c, 0, 74, 64
2, 304508, Note_off_c, 0, 62, 64
2, 305024, Note_on_c, 0, 67, 67
2, 305148, Note_off_c, 0, 67, 0
2, 305152, Note_on_c, 0, 68, 67
2, 305276, Note_off_c, 0, 68, 0
2, 305280, Note_on_c, 0, 69, 67
2, 305404, Note_off_c, 0, 69, 0
2, 305408, Note_on_c, 0, 70, 67
2, 305532, Note_off_c, 0, 70, 0
2, 305536, Note_on_c, 0, 71, 67
2, 305660, Note_off_c, 0, 71, 0
2, 305664, Note_on_c, 0, 72, 67
2, 305788, Note_off_c, 0, 72, 0
2, 305792, Note_on_c, 0, 66, 67
2, 305916, Note_off_c, 0, 66, 0
2, 305920, Note_on_c, 0, 67, 67
2, 306044, Note_off_c, 0, 67, 0
2, 306048, Note_on_c, 0, 68, 67
2, 306172, Note_off_c, 0, 68, 0
2, 306176, Note_on_c, 0, 69, 67
2, 306300, Note_off_c, 0, 69, 0
2, 306304, Note_on_c, 0, 70, 67
2, 306428, Note_off_c, 0, 70, 0
2, 306432, Note_on_c, 0, 71, 67
2, 306556, Note_off_c, 0, 71, 0
2, 306560, Note_on_c, 0, 64, 67
2, 306684, Note_off_c, 0, 64, 0
2, 306688, Note_on_c, 0, 65, 67
2, 306812, Note_off_c, 0, 65, 0
2, 306816, Note_on_c, 0, 66, 67
2, 306940, Note_off_c, 0, 66, 0
2, 306944, Note_on_c, 0, 67, 67
2, 307068, Note_off_c, 0, 67, 0
2, 307072, Note_on_c, 0, 68, 67
2, 307196, Note_off_c, 0, 68, 0
2, 307200, Note_on_c, 0, 69, 67
2, 307580, Note_off_c, 0, 69, 0
2, 307584, Note_on_c, 0, 78, 67
2, 307964, Note_off_c, 0, 78, 0
2, 307968, Note_on_c, 0, 76, 67
2, 308156, Note_off_c, 0, 76, 0
2, 308160, Note_on_c, 0, 74, 67
2, 308348, Note_off_c, 0, 74, 0
2, 308352, Note_on_c, 0, 73, 67
2, 308540, Note_off_c, 0, 73, 0
2, 308544, Note_on_c, 0, 71, 67
2, 308732, Note_off_c, 0, 71, 0
2, 308736, Note_on_c, 0, 69, 67
2, 309500, Note_off_c, 0, 69, 0
2, 309504, Note_on_c, 0, 69, 67
2, 309692, Note_off_c, 0, 69, 0
2, 309696, Note_on_c, 0, 67, 67
2, 309884, Note_off_c, 0, 67, 0
2, 309888, Note_on_c, 0, 66, 67
2, 310076, Note_off_c, 0, 66, 0
2, 310080, Note_on_c, 0, 67, 67
2, 310268, Note_off_c, 0, 67, 0
2, 310272, Note_on_c, 0, 69, 66
2, 310312, Note_off_c, 0, 69, 0
2, 310320, Note_on_c, 0, 67, 66
2, 310360, Note_off_c, 0, 67, 0
2, 310368, Note_on_c, 0, 69, 66
2, 310408, Note_off_c, 0, 69, 0
2, 310416, Note_on_c, 0, 67, 65
2, 310456, Note_off_c, 0, 67, 0
2, 310464, Note_on_c, 0, 69, 65
2, 310504, Note_off_c, 0, 69, 0
2, 310512, Note_on_c, 0, 67, 65
2, 310552, Note_off_c, 0, 67, 0
2, 310560, Note_on_c, 0, 69, 64
2, 310600, Note_off_c, 0, 69, 0
2, 310608, Note_on_c, 0, 67, 64
2, 310648, Note_off_c, 0, 67, 0
2, 310656, Note_on_c, 0, 69, 64
2, 310696, Note_off_c, 0, 69, 0
2, 310704, Note_on_c, 0, 67, 63
2, 310744, Note_off_c, 0, 67, 0
2, 310752, Note_on_c, 0, 69, 63
2, 310792, Note_off_c, 0, 69, 0
2, 310800, Note_on_c, 0, 67, 63
2, 310840, Note_off_c, 0, 67, 0
2, 310848, Note_on_c, 0, 69, 62
2, 310888, Note_off_c, 0, 69, 0
2, 310896, Note_on_c, 0, 67, 62
2, 310936, Note_off_c, 0, 67, 0
2, 310944, Note_on_c, 0, 69, 62
2, 310984, Note_off_c, 0, 69, 0
2, 310992, Note_on_c, 0, 67, 60
2, 311032, Note_off_c, 0, 67, 0
2, 311040, Note_on_c, 0, 69, 60
2, 311080, Note_off_c, 0, 69, 0
2, 311088, Note_on_c, 0, 67, 60
2, 311128, Note_off_c, 0, 67, 0
2, 311136, Note_on_c, 0, 69, 60
2, 311176, Note_off_c, 0, 69, 0
2, 311184, Note_on_c, 0, 67, 59
2, 311224, Note_off_c, 0, 67, 0
2, 311232, Note_on_c, 0, 69, 59
2, 311272, Note_off_c, 0, 69, 0
2, 311280, Note_on_c, 0, 67, 59
2, 311320, Note_off_c, 0, 67, 0
2, 311328, Note_on_c, 0, 69, 59
2, 311368, Note_off_c, 0, 69, 0
2, 311376, Note_on_c, 0, 67, 58
2, 311416, Note_off_c, 0, 67, 0
2, 311424, Note_on_c, 0, 69, 58
2, 311464, Note_off_c, 0, 69, 0
2, 311472, Note_on_c, 0, 67, 58
2, 311512, Note_off_c, 0, 67, 0
2, 311520, Note_on_c, 0, 69, 58
2, 311560, Note_off_c, 0, 69, 0
2, 311568, Note_on_c, 0, 67, 57
2, 311608, Note_off_c, 0, 67, 0
2, 311616, Note_on_c, 0, 66, 57
2, 311704, Note_off_c, 0, 66, 0
2, 311712, Note_on_c, 0, 67, 57
2, 311800, Note_off_c, 0, 67, 0
2, 311808, Note_on_c, 0, 66, 56
2, 312188, Note_off_c, 0, 66, 0
2, 331008, Note_on_c, 0, 67, 56
2, 331008, Note_on_c, 0, 59, 56
2, 331580, Note_off_c, 0, 67, 0
2, 331580, Note_off_c, 0, 59, 0
2, 331584, Note_on_c, 0, 66, 56
2, 331584, Note_on_c, 0, 58, 56
2, 331676, Note_off_c, 0, 66, 0
2, 331676, Note_off_c, 0, 58, 0
2, 331776, Note_on_c, 0, 59, 56
2, 331776, Note_on_c, 0, 67, 56
2, 331868, Note_off_c, 0, 59, 0
2, 331868, Note_off_c, 0, 67, 0
2, 331968, Note_on_c, 0, 60, 56
2, 331968, Note_on_c, 0, 69, 56
2, 332060, Note_off_c, 0, 60, 0
2, 332060, Note_off_c, 0, 69, 0
2, 332160, Note_on_c, 0, 71, 56
2, 332160, Note_on_c, 0, 62, 56
2, 332252, Note_off_c, 0, 71, 0
2, 332252, Note_off_c, 0, 62, 0
2, 332352, Note_on_c, 0, 60, 56
2, 332352, Note_on_c, 0, 69, 56
2, 332444, Note_off_c, 0, 60, 0
2, 332444, Note_off_c, 0, 69, 0
2, 332544, Note_on_c, 0, 59, 56
2, 332544, Note_on_c, 0, 67, 56
2, 332732, Note_off_c, 0, 59, 0
2, 332732, Note_off_c, 0, 67, 0
2, 334080, Note_on_c, 0, 71, 56
2, 334080, Note_on_c, 0, 67, 56
2, 334652, Note_off_c, 0, 71, 0
2, 334652, Note_off_c, 0, 67, 0
2, 334656, Note_on_c, 0, 66, 56
2, 334656, Note_on_c, 0, 70, 56
2, 334748, Note_off_c, 0, 66, 0
2, 334748, Note_off_c, 0, 70, 0
2, 334848, Note_on_c, 0, 71, 56
2, 334848, Note_on_c, 0, 67, 56
2, 334940, Note_off_c, 0, 71, 0
2, 334940, Note_off_c, 0, 67, 0
2, 335040, Note_on_c, 0, 72, 56
2, 335040, Note_on_c, 0, 69, 56
2, 335132, Note_off_c, 0, 72, 0
2, 335132, Note_off_c, 0, 69, 0
2, 335232, Note_on_c, 0, 74, 56
2, 335232, Note_on_c, 0, 71, 56
2, 335324, Note_off_c, 0, 74, 0
2, 335324, Note_off_c, 0, 71, 0
2, 335424, Note_on_c, 0, 72, 56
2, 335424, Note_on_c, 0, 69, 56
2, 335516, Note_off_c, 0, 72, 0
2, 335516, Note_off_c, 0, 69, 0
2, 335616, Note_on_c, 0, 71, 56
2, 335616, Note_on_c, 0, 67, 56
2, 335804, Note_off_c, 0, 71, 0
2, 335804, Note_off_c, 0, 67, 0
2, 337152, Note_on_c, 0, 86, 67
2, 337244, Note_off_c, 0, 86, 0
2, 337248, Note_on_c, 0, 83, 67
2, 337340, Note_off_c, 0, 83, 0
2, 337344, Note_on_c, 0, 79, 67
2, 337436, Note_off_c, 0, 79, 0
2, 337440, Note_on_c, 0, 74, 67
2, 337532, Note_off_c, 0, 74, 0
2, 337536, Note_on_c, 0, 86, 67
2, 337628, Note_off_c, 0, 86, 0
2, 337632, Note_on_c, 0, 74, 67
2, 337724, Note_off_c, 0, 74, 0
2, 337728, Note_on_c, 0, 86, 67
2, 337820, Note_off_c, 0, 86, 0
2, 337824, Note_on_c, 0, 74, 67
2, 337916, Note_off_c, 0, 74, 0
2, 337920, Note_on_c, 0, 86, 67
2, 337920, Note_on_c, 0, 60, 67
2, 338012, Note_off_c, 0, 86, 0
2, 338012, Note_off_c, 0, 60, 0
2, 338016, Note_on_c, 0, 81, 67
2, 338016, Note_on_c, 0, 66, 67
2, 338108, Note_off_c, 0, 81, 0
2, 338108, Note_off_c, 0, 66, 0
2, 338112, Note_on_c, 0, 78, 67
2, 338112, Note_on_c, 0, 69, 67
2, 338204, Note_off_c, 0, 78, 0
2, 338204, Note_off_c, 0, 69, 0
2, 338208, Note_on_c, 0, 74, 67
2, 338208, Note_on_c, 0, 72, 67
2, 338300, Note_off_c, 0, 74, 0
2, 338300, Note_off_c, 0, 72, 0
2, 338304, Note_on_c, 0, 86, 67
2, 338304, Note_on_c, 0, 60, 67
2, 338396, Note_off_c, 0, 86, 0
2, 338396, Note_off_c, 0, 60, 0
2, 338400, Note_on_c, 0, 74, 67
2, 338400, Note_on_c, 0, 72, 67
2, 338492, Note_off_c, 0, 74, 0
2, 338492, Note_off_c, 0, 72, 0
2, 338496, Note_on_c, 0, 86, 67
2, 338496, Note_on_c, 0, 60, 67
2, 338588, Note_off_c, 0, 86, 0
2, 338588, Note_off_c, 0, 60, 0
2, 338592, Note_on_c, 0, 74, 67
2, 338592, Note_on_c, 0, 72, 67
2, 338684, Note_off_c, 0, 74, 0
2, 338684, Note_off_c, 0, 72, 0
2, 338688, Note_on_c, 0, 86, 67
2, 338688, Note_on_c, 0, 59, 67
2, 338780, Note_off_c, 0, 86, 0
2, 338784, Note_on_c, 0, 83, 67
2, 338876, Note_off_c, 0, 59, 0
2, 338876, Note_off_c, 0, 83, 0
2, 338880, Note_on_c, 0, 79, 67
2, 338972, Note_off_c, 0, 79, 0
2, 338976, Note_on_c, 0, 74, 67
2, 339068, Note_off_c, 0, 74, 0
2, 339072, Note_on_c, 0, 86, 67
2, 339164, Note_off_c, 0, 86, 0
2, 339168, Note_on_c, 0, 74, 67
2, 339260, Note_off_c, 0, 74, 0
2, 339264, Note_on_c, 0, 86, 67
2, 339356, Note_off_c, 0, 86, 0
2, 339360, Note_on_c, 0, 74, 67
2, 339452, Note_off_c, 0, 74, 0
2, 339456, Note_on_c, 0, 86, 67
2, 339456, Note_on_c, 0, 60, 67
2, 339548, Note_off_c, 0, 86, 0
2, 339548, Note_off_c, 0, 60, 0
2, 339552, Note_on_c, 0, 83, 67
2, 339552, Note_on_c, 0, 66, 67
2, 339644, Note_off_c, 0, 83, 0
2, 339644, Note_off_c, 0, 66, 0
2, 339648, Note_on_c, 0, 79, 67
2, 339648, Note_on_c, 0, 69, 67
2, 339740, Note_off_c, 0, 79, 0
2, 339740, Note_off_c, 0, 69, 0
2, 339744, Note_on_c, 0, 74, 67
2, 339744, Note_on_c, 0, 72, 67
2, 339836, Note_off_c, 0, 74, 0
2, 339836, Note_off_c, 0, 72, 0
2, 339840, Note_on_c, 0, 86, 67
2, 339840, Note_on_c, 0, 60, 67
2, 339932, Note_off_c, 0, 86, 0
2, 339932, Note_off_c, 0, 60, 0
2, 339936, Note_on_c, 0, 74, 67
2, 339936, Note_on_c, 0, 72, 67
2, 340028, Note_off_c, 0, 74, 0
2, 340028, Note_off_c, 0, 72, 0
2, 340032, Note_on_c, 0, 86, 67
2, 340032, Note_on_c, 0, 60, 67
2, 340124, Note_off_c, 0, 86, 0
2, 340124, Note_off_c, 0, 60, 0
2, 340128, Note_on_c, 0, 72, 67
2, 340128, Note_on_c, 0, 74, 67
2, 340220, Note_off_c, 0, 72, 0
2, 340220, Note_off_c, 0, 74, 0
2, 340224, Note_on_c, 0, 86, 67
2, 340412, Note_off_c, 0, 86, 0
2, 340416, Note_on_c, 0, 79, 67
2, 340508, Note_off_c, 0, 79, 0
2, 340512, Note_on_c, 0, 81, 67
2, 340604, Note_off_c, 0, 81, 0
2, 340608, Note_on_c, 0, 83, 67
2, 340700, Note_off_c, 0, 83, 0
2, 340704, Note_on_c, 0, 79, 67
2, 340796, Note_off_c, 0, 79, 0
2, 340800, Note_on_c, 0, 83, 67
2, 340892, Note_off_c, 0, 83, 0
2, 340896, Note_on_c, 0, 79, 67
2, 340988, Note_off_c, 0, 79, 0
2, 340992, Note_on_c, 0, 76, 67
2, 341180, Note_off_c, 0, 76, 0
2, 341952, Note_on_c, 0, 81, 67
2, 342044, Note_off_c, 0, 81, 0
2, 342048, Note_on_c, 0, 83, 67
2, 342140, Note_off_c, 0, 83, 0
2, 342144, Note_on_c, 0, 84, 67
2, 342236, Note_off_c, 0, 84, 0
2, 342240, Note_on_c, 0, 81, 67
2, 342332, Note_off_c, 0, 81, 0
2, 342336, Note_on_c, 0, 84, 67
2, 342428, Note_off_c, 0, 84, 0
2, 342432, Note_on_c, 0, 81, 67
2, 342524, Note_off_c, 0, 81, 0
2, 342528, Note_on_c, 0, 78, 67
2, 342716, Note_off_c, 0, 78, 0
2, 343488, Note_on_c, 0, 83, 67
2, 343580, Note_off_c, 0, 83, 0
2, 343584, Note_on_c, 0, 84, 67
2, 343676, Note_off_c, 0, 84, 0
2, 343680, Note_on_c, 0, 86, 67
2, 343772, Note_off_c, 0, 86, 0
2, 343776, Note_on_c, 0, 83, 67
2, 343868, Note_off_c, 0, 83, 0
2, 343872, Note_on_c, 0, 86, 67
2, 343964, Note_off_c, 0, 86, 0
2, 343968, Note_on_c, 0, 83, 67
2, 344060, Note_off_c, 0, 83, 0
2, 344160, Note_on_c, 0, 72, 67
2, 344252, Note_off_c, 0, 72, 0
2, 344256, Note_on_c, 0, 79, 67
2, 344348, Note_off_c, 0, 79, 0
2, 344352, Note_on_c, 0, 84, 67
2, 344444, Note_off_c, 0, 84, 0
2, 344544, Note_on_c, 0, 74, 67
2, 344636, Note_off_c, 0, 74, 0
2, 344640, Note_on_c, 0, 78, 67
2, 344732, Note_off_c, 0, 78, 0
2, 344736, Note_on_c, 0, 83, 67
2, 344828, Note_off_c, 0, 83, 0
2, 344928, Note_on_c, 0, 69, 67
2, 345020, Note_off_c, 0, 69, 0
2, 345024, Note_on_c, 0, 76, 67
2, 345116, Note_off_c, 0, 76, 0
2, 345120, Note_on_c, 0, 81, 67
2, 345212, Note_off_c, 0, 81, 0
2, 345312, Note_on_c, 0, 72, 67
2, 345404, Note_off_c, 0, 72, 0
2, 345408, Note_on_c, 0, 76, 67
2, 345500, Note_off_c, 0, 76, 0
2, 345504, Note_on_c, 0, 79, 67
2, 345596, Note_off_c, 0, 79, 0
2, 345600, Note_on_c, 0, 78, 96
2, 345788, Note_off_c, 0, 78, 0
2, 345792, Note_on_c, 0, 81, 96
2, 345792, Note_on_c, 0, 78, 96
2, 345884, Note_off_c, 0, 78, 0
2, 345888, Note_on_c, 0, 74, 96
2, 345980, Note_off_c, 0, 81, 0
2, 345980, Note_off_c, 0, 74, 0
2, 345984, Note_on_c, 0, 81, 96
2, 345984, Note_on_c, 0, 78, 96
2, 346076, Note_off_c, 0, 78, 0
2, 346080, Note_on_c, 0, 74, 96
2, 346172, Note_off_c, 0, 81, 0
2, 346172, Note_off_c, 0, 74, 0
2, 346176, Note_on_c, 0, 83, 96
2, 346176, Note_on_c, 0, 79, 96
2, 346268, Note_off_c, 0, 79, 0
2, 346272, Note_on_c, 0, 74, 96
2, 346364, Note_off_c, 0, 83, 0
2, 346364, Note_off_c, 0, 74, 0
2, 346368, Note_on_c, 0, 81, 96
2, 346368, Note_on_c, 0, 78, 96
2, 346556, Note_off_c, 0, 81, 0
2, 346556, Note_off_c, 0, 78, 0
2, 347328, Note_on_c, 0, 78, 96
2, 347328, Note_on_c, 0, 81, 96
2, 347420, Note_off_c, 0, 78, 0
2, 347424, Note_on_c, 0, 74, 96
2, 347516, Note_off_c, 0, 81, 0
2, 347516, Note_off_c, 0, 74, 0
2, 347520, Note_on_c, 0, 78, 96
2, 347520, Note_on_c, 0, 81, 96
2, 347612, Note_off_c, 0, 78, 0
2, 347616, Note_on_c, 0, 74, 96
2, 347708, Note_off_c, 0, 81, 0
2, 347708, Note_off_c, 0, 74, 0
2, 347712, Note_on_c, 0, 79, 96
2, 347712, Note_on_c, 0, 83, 96
2, 347804, Note_off_c, 0, 79, 0
2, 347808, Note_on_c, 0, 74, 96
2, 347900, Note_off_c, 0, 83, 0
2, 347900, Note_off_c, 0, 74, 0
2, 347904, Note_on_c, 0, 81, 96
2, 347904, Note_on_c, 0, 78, 96
2, 348092, Note_off_c, 0, 81, 0
2, 348092, Note_off_c, 0, 78, 0
2, 348864, Note_on_c, 0, 78, 96
2, 348864, Note_on_c, 0, 81, 96
2, 348956, Note_off_c, 0, 78, 0
2, 348960, Note_on_c, 0, 74, 96
2, 349052, Note_off_c, 0, 81, 0
2, 349052, Note_off_c, 0, 74, 0
2, 349056, Note_on_c, 0, 78, 96
2, 349056, Note_on_c, 0, 81, 96
2, 349148, Note_off_c, 0, 78, 0
2, 349152, Note_on_c, 0, 74, 96
2, 349244, Note_off_c, 0, 81, 0
2, 349244, Note_off_c, 0, 74, 0
2, 349248, Note_on_c, 0, 79, 96
2, 349248, Note_on_c, 0, 83, 96
2, 349340, Note_off_c, 0, 79, 0
2, 349344, Note_on_c, 0, 74, 96
2, 349436, Note_off_c, 0, 83, 0
2, 349436, Note_off_c, 0, 74, 0
2, 349440, Note_on_c, 0, 78, 96
2, 349440, Note_on_c, 0, 81, 96
2, 349532, Note_off_c, 0, 78, 0
2, 349536, Note_on_c, 0, 74, 96
2, 349628, Note_off_c, 0, 81, 0
2, 349628, Note_off_c, 0, 74, 0
2, 349632, Note_on_c, 0, 79, 96
2, 349632, Note_on_c, 0, 83, 96
2, 349724, Note_off_c, 0, 79, 0
2, 349728, Note_on_c, 0, 74, 96
2, 349820, Note_off_c, 0, 83, 0
2, 349820, Note_off_c, 0, 74, 0
2, 349824, Note_on_c, 0, 78, 96
2, 349824, Note_on_c, 0, 81, 96
2, 349916, Note_off_c, 0, 78, 0
2, 349920, Note_on_c, 0, 74, 96
2, 350012, Note_off_c, 0, 81, 0
2, 350012, Note_off_c, 0, 74, 0
2, 350016, Note_on_c, 0, 79, 96
2, 350016, Note_on_c, 0, 83, 96
2, 350108, Note_off_c, 0, 79, 0
2, 350112, Note_on_c, 0, 74, 96
2, 350204, Note_off_c, 0, 83, 0
2, 350204, Note_off_c, 0, 74, 0
2, 350208, Note_on_c, 0, 81, 96
2, 350208, Note_on_c, 0, 78, 96
2, 350396, Note_off_c, 0, 81, 0
2, 350396, Note_off_c, 0, 78, 0
2, 354048, Note_on_c, 0, 66, 69
2, 354140, Note_off_c, 0, 66, 0
2, 354144, Note_on_c, 0, 67, 70
2, 354236, Note_off_c, 0, 67, 0
2, 354240, Note_on_c, 0, 69, 72
2, 354332, Note_off_c, 0, 69, 0
2, 354336, Note_on_c, 0, 71, 73
2, 354428, Note_off_c, 0, 71, 0
2, 354432, Note_on_c, 0, 72, 77
2, 354524, Note_off_c, 0, 72, 0
2, 354528, Note_on_c, 0, 74, 78
2, 354620, Note_off_c, 0, 74, 0
2, 354624, Note_on_c, 0, 76, 80
2, 354716, Note_off_c, 0, 76, 0
2, 354720, Note_on_c, 0, 78, 81
2, 354812, Note_off_c, 0, 78, 0
2, 354816, Note_on_c, 0, 79, 83
2, 354908, Note_off_c, 0, 79, 0
2, 354912, Note_on_c, 0, 81, 84
2, 355004, Note_off_c, 0, 81, 0
2, 355008, Note_on_c, 0, 83, 86
2, 355100, Note_off_c, 0, 83, 0
2, 355104, Note_on_c, 0, 84, 87
2, 355196, Note_off_c, 0, 84, 0
2, 355200, Note_on_c, 0, 86, 89
2, 355388, Note_off_c, 0, 86, 0
2, 355392, Note_on_c, 0, 86, 93
2, 355580, Note_off_c, 0, 86, 0
2, 355776, Note_on_c, 0, 72, 67
2, 355964, Note_off_c, 0, 72, 0
2, 355968, Note_on_c, 0, 74, 67
2, 356156, Note_off_c, 0, 74, 0
2, 356160, Note_on_c, 0, 75, 67
2, 356348, Note_off_c, 0, 75, 0
2, 356544, Note_on_c, 0, 69, 67
2, 356732, Note_off_c, 0, 69, 0
2, 356736, Note_on_c, 0, 70, 67
2, 356924, Note_off_c, 0, 70, 0
2, 356928, Note_on_c, 0, 72, 67
2, 357116, Note_off_c, 0, 72, 0
2, 357120, Note_on_c, 0, 66, 69
2, 357212, Note_off_c, 0, 66, 0
2, 357216, Note_on_c, 0, 67, 70
2, 357308, Note_off_c, 0, 67, 0
2, 357312, Note_on_c, 0, 69, 72
2, 357404, Note_off_c, 0, 69, 0
2, 357408, Note_on_c, 0, 71, 73
2, 357500, Note_off_c, 0, 71, 0
2, 357504, Note_on_c, 0, 72, 77
2, 357596, Note_off_c, 0, 72, 0
2, 357600, Note_on_c, 0, 74, 78
2, 357692, Note_off_c, 0, 74, 0
2, 357696, Note_on_c, 0, 76, 80
2, 357788, Note_off_c, 0, 76, 0
2, 357792, Note_on_c, 0, 78, 81
2, 357884, Note_off_c, 0, 78, 0
2, 357888, Note_on_c, 0, 79, 83
2, 357980, Note_off_c, 0, 79, 0
2, 357984, Note_on_c, 0, 81, 84
2, 358076, Note_off_c, 0, 81, 0
2, 358080, Note_on_c, 0, 83, 86
2, 358172, Note_off_c, 0, 83, 0
2, 358176, Note_on_c, 0, 84, 87
2, 358268, Note_off_c, 0, 84, 0
2, 358272, Note_on_c, 0, 86, 89
2, 358460, Note_off_c, 0, 86, 0
2, 358464, Note_on_c, 0, 86, 93
2, 358652, Note_off_c, 0, 86, 0
2, 358848, Note_on_c, 0, 72, 67
2, 359036, Note_off_c, 0, 72, 0
2, 359040, Note_on_c, 0, 74, 67
2, 359228, Note_off_c, 0, 74, 0
2, 359232, Note_on_c, 0, 75, 67
2, 359420, Note_off_c, 0, 75, 0
2, 359616, Note_on_c, 0, 69, 67
2, 359804, Note_off_c, 0, 69, 0
2, 359808, Note_on_c, 0, 70, 67
2, 359996, Note_off_c, 0, 70, 0
2, 360000, Note_on_c, 0, 72, 67
2, 360188, Note_off_c, 0, 72, 0
2, 360192, Note_on_c, 0, 66, 69
2, 360284, Note_off_c, 0, 66, 0
2, 360288, Note_on_c, 0, 67, 71
2, 360380, Note_off_c, 0, 67, 0
2, 360384, Note_on_c, 0, 69, 75
2, 360476, Note_off_c, 0, 69, 0
2, 360480, Note_on_c, 0, 71, 79
2, 360572, Note_off_c, 0, 71, 0
2, 360576, Note_on_c, 0, 72, 81
2, 360668, Note_off_c, 0, 72, 0
2, 360672, Note_on_c, 0, 74, 84
2, 360764, Note_off_c, 0, 74, 0
2, 360768, Note_on_c, 0, 76, 88
2, 360860, Note_off_c, 0, 76, 0
2, 360864, Note_on_c, 0, 78, 92
2, 360956, Note_off_c, 0, 78, 0
2, 360960, Note_on_c, 0, 79, 96
2, 361052, Note_off_c, 0, 79, 0
2, 361056, Note_on_c, 0, 74, 67
2, 361148, Note_off_c, 0, 74, 0
2, 361152, Note_on_c, 0, 71, 67
2, 361244, Note_off_c, 0, 71, 0
2, 361248, Note_on_c, 0, 74, 67
2, 361340, Note_off_c, 0, 74, 0
2, 361344, Note_on_c, 0, 67, 67
2, 361436, Note_off_c, 0, 67, 0
2, 361440, Note_on_c, 0, 71, 67
2, 361532, Note_off_c, 0, 71, 0
2, 361536, Note_on_c, 0, 62, 67
2, 361628, Note_off_c, 0, 62, 0
2, 361632, Note_on_c, 0, 67, 67
2, 361724, Note_off_c, 0, 67, 0
2, 361728, Note_on_c, 0, 69, 67
2, 361820, Note_off_c, 0, 69, 0
2, 361824, Note_on_c, 0, 72, 67
2, 361916, Note_off_c, 0, 72, 0
2, 361920, Note_on_c, 0, 66, 67
2, 362012, Note_off_c, 0, 66, 0
2, 362016, Note_on_c, 0, 69, 67
2, 362108, Note_off_c, 0, 69, 0
2, 362112, Note_on_c, 0, 60, 67
2, 362204, Note_off_c, 0, 60, 0
2, 362208, Note_on_c, 0, 66, 67
2, 362300, Note_off_c, 0, 66, 0
2, 362304, Note_on_c, 0, 57, 67
2, 362396, Note_off_c, 0, 57, 0
2, 362400, Note_on_c, 0, 60, 67
2, 362492, Note_off_c, 0, 60, 0
2, 362496, Note_on_c, 0, 53, 67
2, 362588, Note_off_c, 0, 53, 0
2, 362592, Note_on_c, 0, 65, 67
2, 362684, Note_off_c, 0, 65, 0
2, 362688, Note_on_c, 0, 62, 67
2, 362780, Note_off_c, 0, 62, 0
2, 362784, Note_on_c, 0, 65, 67
2, 362876, Note_off_c, 0, 65, 0
2, 362880, Note_on_c, 0, 59, 67
2, 362972, Note_off_c, 0, 59, 0
2, 362976, Note_on_c, 0, 62, 67
2, 363068, Note_off_c, 0, 62, 0
2, 363072, Note_on_c, 0, 53, 67
2, 363164, Note_off_c, 0, 53, 0
2, 363168, Note_on_c, 0, 65, 67
2, 363260, Note_off_c, 0, 65, 0
2, 363264, Note_on_c, 0, 55, 67
2, 363356, Note_off_c, 0, 55, 0
2, 363360, Note_on_c, 0, 67, 67
2, 363452, Note_off_c, 0, 67, 0
2, 363456, Note_on_c, 0, 64, 67
2, 363548, Note_off_c, 0, 64, 0
2, 363552, Note_on_c, 0, 67, 67
2, 363644, Note_off_c, 0, 67, 0
2, 363648, Note_on_c, 0, 60, 67
2, 363740, Note_off_c, 0, 60, 0
2, 363744, Note_on_c, 0, 64, 67
2, 363836, Note_off_c, 0, 64, 0
2, 363840, Note_on_c, 0, 55, 67
2, 363932, Note_off_c, 0, 55, 0
2, 363936, Note_on_c, 0, 67, 67
2, 364028, Note_off_c, 0, 67, 0
2, 364032, Note_on_c, 0, 60, 69
2, 364124, Note_off_c, 0, 60, 0
2, 364128, Note_on_c, 0, 72, 70
2, 364220, Note_off_c, 0, 72, 0
2, 364224, Note_on_c, 0, 69, 71
2, 364316, Note_off_c, 0, 69, 0
2, 364320, Note_on_c, 0, 72, 73
2, 364412, Note_off_c, 0, 72, 0
2, 364416, Note_on_c, 0, 66, 75
2, 364508, Note_off_c, 0, 66, 0
2, 364512, Note_on_c, 0, 69, 78
2, 364604, Note_off_c, 0, 69, 0
2, 364608, Note_on_c, 0, 60, 79
2, 364700, Note_off_c, 0, 60, 0
2, 364704, Note_on_c, 0, 72, 81
2, 364796, Note_off_c, 0, 72, 0
2, 364800, Note_on_c, 0, 65, 82
2, 364892, Note_off_c, 0, 65, 0
2, 364896, Note_on_c, 0, 77, 84
2, 364988, Note_off_c, 0, 77, 0
2, 364992, Note_on_c, 0, 74, 85
2, 365084, Note_off_c, 0, 74, 0
2, 365088, Note_on_c, 0, 77, 87
2, 365180, Note_off_c, 0, 77, 0
2, 365184, Note_on_c, 0, 71, 88
2, 365276, Note_off_c, 0, 71, 0
2, 365280, Note_on_c, 0, 74, 90
2, 365372, Note_off_c, 0, 74, 0
2, 365376, Note_on_c, 0, 65, 92
2, 365468, Note_off_c, 0, 65, 0
2, 365472, Note_on_c, 0, 77, 95
2, 365564, Note_off_c, 0, 77, 0
2, 365568, Note_on_c, 0, 67, 96
2, 365660, Note_off_c, 0, 67, 0
2, 365664, Note_on_c, 0, 79, 96
2, 365756, Note_off_c, 0, 79, 0
2, 365760, Note_on_c, 0, 76, 96
2, 365852, Note_off_c, 0, 76, 0
2, 365856, Note_on_c, 0, 79, 96
2, 365948, Note_off_c, 0, 79, 0
2, 365952, Note_on_c, 0, 72, 96
2, 366044, Note_off_c, 0, 72, 0
2, 366048, Note_on_c, 0, 76, 96
2, 366140, Note_off_c, 0, 76, 0
2, 366144, Note_on_c, 0, 67, 96
2, 366236, Note_off_c, 0, 67, 0
2, 366240, Note_on_c, 0, 79, 96
2, 366332, Note_off_c, 0, 79, 0
2, 366336, Note_on_c, 0, 72, 96
2, 366428, Note_off_c, 0, 72, 0
2, 366432, Note_on_c, 0, 84, 96
2, 366524, Note_off_c, 0, 84, 0
2, 366528, Note_on_c, 0, 81, 96
2, 366620, Note_off_c, 0, 81, 0
2, 366624, Note_on_c, 0, 84, 96
2, 366716, Note_off_c, 0, 84, 0
2, 366720, Note_on_c, 0, 78, 96
2, 366812, Note_off_c, 0, 78, 0
2, 366816, Note_on_c, 0, 81, 96
2, 366908, Note_off_c, 0, 81, 0
2, 366912, Note_on_c, 0, 72, 96
2, 367004, Note_off_c, 0, 72, 0
2, 367008, Note_on_c, 0, 84, 96
2, 367100, Note_off_c, 0, 84, 0
2, 367104, Note_on_c, 0, 71, 96
2, 367196, Note_off_c, 0, 71, 0
2, 367200, Note_on_c, 0, 74, 96
2, 367292, Note_off_c, 0, 74, 0
2, 367296, Note_on_c, 0, 79, 96
2, 367388, Note_off_c, 0, 79, 0
2, 367392, Note_on_c, 0, 83, 96
2, 367484, Note_off_c, 0, 83, 0
2, 367488, Note_on_c, 0, 74, 96
2, 367580, Note_off_c, 0, 74, 0
2, 367584, Note_on_c, 0, 78, 96
2, 367676, Note_off_c, 0, 78, 0
2, 367680, Note_on_c, 0, 81, 96
2, 367772, Note_off_c, 0, 81, 0
2, 367776, Note_on_c, 0, 86, 96
2, 367868, Note_off_c, 0, 86, 0
2, 367872, Note_on_c, 0, 67, 96
2, 367964, Note_off_c, 0, 67, 0
2, 367968, Note_on_c, 0, 71, 96
2, 368060, Note_off_c, 0, 71, 0
2, 368064, Note_on_c, 0, 76, 96
2, 368156, Note_off_c, 0, 76, 0
2, 368160, Note_on_c, 0, 79, 96
2, 368252, Note_off_c, 0, 79, 0
2, 368256, Note_on_c, 0, 71, 96
2, 368348, Note_off_c, 0, 71, 0
2, 368352, Note_on_c, 0, 74, 96
2, 368444, Note_off_c, 0, 74, 0
2, 368448, Note_on_c, 0, 78, 96
2, 368540, Note_off_c, 0, 78, 0
2, 368544, Note_on_c, 0, 83, 96
2, 368636, Note_off_c, 0, 83, 0
2, 368640, Note_on_c, 0, 64, 96
2, 368732, Note_off_c, 0, 64, 0
2, 368736, Note_on_c, 0, 67, 96
2, 368828, Note_off_c, 0, 67, 0
2, 368832, Note_on_c, 0, 72, 96
2, 368924, Note_off_c, 0, 72, 0
2, 368928, Note_on_c, 0, 76, 96
2, 369020, Note_off_c, 0, 76, 0
2, 369024, Note_on_c, 0, 67, 96
2, 369116, Note_off_c, 0, 67, 0
2, 369120, Note_on_c, 0, 71, 96
2, 369212, Note_off_c, 0, 71, 0
2, 369216, Note_on_c, 0, 74, 96
2, 369308, Note_off_c, 0, 74, 0
2, 369312, Note_on_c, 0, 79, 96
2, 369404, Note_off_c, 0, 79, 0
2, 369408, Note_on_c, 0, 73, 96
2, 369596, Note_off_c, 0, 73, 0
2, 370176, Note_on_c, 0, 84, 96
2, 370176, Note_on_c, 0, 81, 96
2, 370176, Note_on_c, 0, 78, 96
2, 370176, Note_on_c, 0, 72, 96
2, 370364, Note_off_c, 0, 81, 0
2, 370364, Note_off_c, 0, 78, 0
2, 370364, Note_off_c, 0, 72, 0
2, 370748, Note_off_c, 0, 84, 0
2, 370752, Note_on_c, 0, 78, 96
2, 370940, Note_off_c, 0, 78, 0
2, 370944, Note_on_c, 0, 81, 67
2, 370984, Note_off_c, 0, 81, 0
2, 370988, Note_on_c, 0, 79, 67
2, 371028, Note_off_c, 0, 79, 0
2, 371036, Note_on_c, 0, 78, 67
2, 371076, Note_off_c, 0, 78, 0
2, 371080, Note_on_c, 0, 79, 67
2, 371136, Note_on_c, 0, 83, 67
2, 371228, Note_off_c, 0, 83, 0
2, 371268, Note_off_c, 0, 79, 0
2, 371328, Note_on_c, 0, 78, 67
2, 371368, Note_off_c, 0, 78, 0
2, 371372, Note_on_c, 0, 76, 67
2, 371412, Note_off_c, 0, 76, 0
2, 371420, Note_on_c, 0, 75, 67
2, 371460, Note_off_c, 0, 75, 0
2, 371464, Note_on_c, 0, 76, 67
2, 371520, Note_on_c, 0, 79, 67
2, 371612, Note_off_c, 0, 79, 0
2, 371652, Note_off_c, 0, 76, 0
2, 371712, Note_on_c, 0, 72, 67
2, 371752, Note_off_c, 0, 72, 0
2, 371756, Note_on_c, 0, 71, 67
2, 371796, Note_off_c, 0, 71, 0
2, 371804, Note_on_c, 0, 69, 67
2, 371844, Note_off_c, 0, 69, 0
2, 371848, Note_on_c, 0, 71, 67
2, 371904, Note_on_c, 0, 74, 67
2, 371996, Note_off_c, 0, 74, 0
2, 372036, Note_off_c, 0, 71, 0
2, 372096, Note_on_c, 0, 67, 67
2, 372136, Note_off_c, 0, 67, 0
2, 372140, Note_on_c, 0, 66, 67
2, 372180, Note_off_c, 0, 66, 0
2, 372188, Note_on_c, 0, 64, 67
2, 372228, Note_off_c, 0, 64, 0
2, 372232, Note_on_c, 0, 66, 67
2, 372288, Note_on_c, 0, 69, 67
2, 372380, Note_off_c, 0, 69, 0
2, 372420, Note_off_c, 0, 66, 0
2, 372480, Note_on_c, 0, 67, 67
2, 372668, Note_off_c, 0, 67, 0
2, 373056, Note_on_c, 0, 71, 56
2, 373148, Note_off_c, 0, 71, 0
2, 373152, Note_on_c, 0, 72, 56
2, 373244, Note_off_c, 0, 72, 0
2, 373248, Note_on_c, 0, 74, 56
2, 373436, Note_off_c, 0, 74, 0
2, 373440, Note_on_c, 0, 74, 56
2, 373628, Note_off_c, 0, 74, 0
2, 373632, Note_on_c, 0, 74, 56
2, 373820, Note_off_c, 0, 74, 0
2, 373824, Note_on_c, 0, 79, 56
2, 374012, Note_off_c, 0, 79, 0
2, 374016, Note_on_c, 0, 79, 72
2, 374036, Note_off_c, 0, 79, 0
2, 374040, Note_on_c, 0, 78, 56
2, 374204, Note_off_c, 0, 78, 0
2, 374208, Note_on_c, 0, 78, 56
2, 374396, Note_off_c, 0, 78, 0
2, 374400, Note_on_c, 0, 81, 72
2, 374420, Note_off_c, 0, 81, 0
2, 374424, Note_on_c, 0, 79, 56
2, 374588, Note_off_c, 0, 79, 0
2, 374592, Note_on_c, 0, 79, 56
2, 374780, Note_off_c, 0, 79, 0
2, 374784, Note_on_c, 0, 83, 72
2, 374804, Note_off_c, 0, 83, 0
2, 374808, Note_on_c, 0, 81, 56
2, 374972, Note_off_c, 0, 81, 0
2, 374976, Note_on_c, 0, 81, 56
2, 375164, Note_off_c, 0, 81, 0
2, 375168, Note_on_c, 0, 81, 56
2, 375260, Note_off_c, 0, 81, 0
2, 375264, Note_on_c, 0, 83, 56
2, 375356, Note_off_c, 0, 83, 0
2, 375360, Note_on_c, 0, 84, 56
2, 375452, Note_off_c, 0, 84, 0
2, 375456, Note_on_c, 0, 81, 56
2, 375548, Note_off_c, 0, 81, 0
2, 375552, Note_on_c, 0, 83, 56
2, 375932, Note_off_c, 0, 83, 0
2, 376128, Note_on_c, 0, 83, 56
2, 376220, Note_off_c, 0, 83, 0
2, 376224, Note_on_c, 0, 84, 56
2, 376316, Note_off_c, 0, 84, 0
2, 376320, Note_on_c, 0, 86, 56
2, 376508, Note_off_c, 0, 86, 0
2, 376512, Note_on_c, 0, 86, 56
2, 376700, Note_off_c, 0, 86, 0
2, 376704, Note_on_c, 0, 86, 56
2, 376892, Note_off_c, 0, 86, 0
2, 376896, Note_on_c, 0, 88, 56
2, 377084, Note_off_c, 0, 88, 0
2, 377088, Note_on_c, 0, 86, 72
2, 377108, Note_off_c, 0, 86, 0
2, 377112, Note_on_c, 0, 84, 56
2, 377276, Note_off_c, 0, 84, 0
2, 377280, Note_on_c, 0, 84, 56
2, 377468, Note_off_c, 0, 84, 0
2, 377472, Note_on_c, 0, 84, 72
2, 377492, Note_off_c, 0, 84, 0
2, 377496, Note_on_c, 0, 83, 56
2, 377660, Note_off_c, 0, 83, 0
2, 377664, Note_on_c, 0, 83, 56
2, 377852, Note_off_c, 0, 83, 0
2, 377856, Note_on_c, 0, 83, 72
2, 377876, Note_off_c, 0, 83, 0
2, 377880, Note_on_c, 0, 81, 56
2, 378044, Note_off_c, 0, 81, 0
2, 378048, Note_on_c, 0, 81, 56
2, 378236, Note_off_c, 0, 81, 0
2, 378240, Note_on_c, 0, 81, 56
2, 378428, Note_off_c, 0, 81, 0
2, 378432, Note_on_c, 0, 83, 56
2, 378524, Note_off_c, 0, 83, 0
2, 378528, Note_on_c, 0, 79, 56
2, 378620, Note_off_c, 0, 79, 0
2, 378624, Note_on_c, 0, 74, 56
2, 379004, Note_off_c, 0, 74, 0
2, 379008, Note_on_c, 0, 74, 56
2, 379100, Note_off_c, 0, 74, 0
2, 379104, Note_on_c, 0, 72, 56
2, 379196, Note_off_c, 0, 72, 0
2, 379200, Note_on_c, 0, 71, 56
2, 379292, Note_off_c, 0, 71, 0
2, 379296, Note_on_c, 0, 69, 56
2, 379388, Note_off_c, 0, 69, 0
2, 379392, Note_on_c, 0, 71, 56
2, 379484, Note_off_c, 0, 71, 0
2, 379488, Note_on_c, 0, 67, 56
2, 379580, Note_off_c, 0, 67, 0
2, 379584, Note_on_c, 0, 62, 56
2, 379676, Note_off_c, 0, 62, 0
2, 379680, Note_on_c, 0, 67, 56
2, 379772, Note_off_c, 0, 67, 0
2, 379776, Note_on_c, 0, 71, 56
2, 379868, Note_off_c, 0, 71, 0
2, 379872, Note_on_c, 0, 67, 56
2, 379964, Note_off_c, 0, 67, 0
2, 379968, Note_on_c, 0, 74, 56
2, 380060, Note_off_c, 0, 74, 0
2, 380064, Note_on_c, 0, 71, 56
2, 380156, Note_off_c, 0, 71, 0
2, 380160, Note_on_c, 0, 72, 56
2, 380252, Note_off_c, 0, 72, 0
2, 380256, Note_on_c, 0, 69, 56
2, 380348, Note_off_c, 0, 69, 0
2, 380352, Note_on_c, 0, 62, 56
2, 380444, Note_off_c, 0, 62, 0
2, 380448, Note_on_c, 0, 72, 56
2, 380540, Note_off_c, 0, 72, 0
2, 380544, Note_on_c, 0, 71, 56
2, 380636, Note_off_c, 0, 71, 0
2, 380640, Note_on_c, 0, 67, 56
2, 380732, Note_off_c, 0, 67, 0
2, 380736, Note_on_c, 0, 62, 56
2, 380828, Note_off_c, 0, 62, 0
2, 380832, Note_on_c, 0, 71, 56
2, 380924, Note_off_c, 0, 71, 0
2, 380928, Note_on_c, 0, 69, 56
2, 381020, Note_off_c, 0, 69, 0
2, 381024, Note_on_c, 0, 67, 56
2, 381116, Note_off_c, 0, 67, 0
2, 381120, Note_on_c, 0, 64, 56
2, 381212, Note_off_c, 0, 64, 0
2, 381216, Note_on_c, 0, 67, 56
2, 381308, Note_off_c, 0, 67, 0
2, 381312, Note_on_c, 0, 66, 56
2, 381404, Note_off_c, 0, 66, 0
2, 381408, Note_on_c, 0, 67, 56
2, 381500, Note_off_c, 0, 67, 0
2, 381504, Note_on_c, 0, 69, 56
2, 381596, Note_off_c, 0, 69, 0
2, 381600, Note_on_c, 0, 66, 56
2, 381692, Note_off_c, 0, 66, 0
2, 381696, Note_on_c, 0, 67, 56
2, 381788, Note_off_c, 0, 67, 0
2, 381792, Note_on_c, 0, 62, 56
2, 381884, Note_off_c, 0, 62, 0
2, 381888, Note_on_c, 0, 64, 56
2, 381980, Note_off_c, 0, 64, 0
2, 381984, Note_on_c, 0, 66, 56
2, 382076, Note_off_c, 0, 66, 0
2, 382080, Note_on_c, 0, 67, 56
2, 382172, Note_off_c, 0, 67, 0
2, 382176, Note_on_c, 0, 66, 56
2, 382268, Note_off_c, 0, 66, 0
2, 382272, Note_on_c, 0, 67, 56
2, 382364, Note_off_c, 0, 67, 0
2, 382368, Note_on_c, 0, 69, 56
2, 382460, Note_off_c, 0, 69, 0
2, 382464, Note_on_c, 0, 71, 56
2, 382556, Note_off_c, 0, 71, 0
2, 382560, Note_on_c, 0, 72, 56
2, 382652, Note_off_c, 0, 72, 0
2, 382656, Note_on_c, 0, 71, 56
2, 382748, Note_off_c, 0, 71, 0
2, 382752, Note_on_c, 0, 69, 56
2, 382844, Note_off_c, 0, 69, 0
2, 382848, Note_on_c, 0, 68, 56
2, 382940, Note_off_c, 0, 68, 0
2, 382944, Note_on_c, 0, 69, 56
2, 383036, Note_off_c, 0, 69, 0
2, 383040, Note_on_c, 0, 71, 56
2, 383132, Note_off_c, 0, 71, 0
2, 383136, Note_on_c, 0, 68, 56
2, 383228, Note_off_c, 0, 68, 0
2, 383232, Note_on_c, 0, 64, 56
2, 383324, Note_off_c, 0, 64, 0
2, 383328, Note_on_c, 0, 69, 56
2, 383420, Note_off_c, 0, 69, 0
2, 383424, Note_on_c, 0, 62, 56
2, 383516, Note_off_c, 0, 62, 0
2, 383520, Note_on_c, 0, 69, 56
2, 383612, Note_off_c, 0, 69, 0
2, 383616, Note_on_c, 0, 62, 56
2, 383708, Note_off_c, 0, 62, 0
2, 383712, Note_on_c, 0, 67, 56
2, 383804, Note_off_c, 0, 67, 0
2, 383808, Note_on_c, 0, 64, 56
2, 383900, Note_off_c, 0, 64, 0
2, 383904, Note_on_c, 0, 67, 56
2, 383996, Note_off_c, 0, 67, 0
2, 384000, Note_on_c, 0, 57, 56
2, 384092, Note_off_c, 0, 57, 0
2, 384096, Note_on_c, 0, 67, 56
2, 384188, Note_off_c, 0, 67, 0
2, 384192, Note_on_c, 0, 64, 56
2, 384284, Note_off_c, 0, 64, 0
2, 384288, Note_on_c, 0, 67, 56
2, 384380, Note_off_c, 0, 67, 0
2, 384384, Note_on_c, 0, 57, 56
2, 384476, Note_off_c, 0, 57, 0
2, 384480, Note_on_c, 0, 67, 56
2, 384572, Note_off_c, 0, 67, 0
2, 384576, Note_on_c, 0, 64, 56
2, 384668, Note_off_c, 0, 64, 0
2, 384672, Note_on_c, 0, 67, 56
2, 384764, Note_off_c, 0, 67, 0
2, 384768, Note_on_c, 0, 66, 96
2, 384860, Note_off_c, 0, 66, 0
2, 384864, Note_on_c, 0, 62, 70
2, 384956, Note_off_c, 0, 62, 0
2, 384960, Note_on_c, 0, 66, 73
2, 385052, Note_off_c, 0, 66, 0
2, 385056, Note_on_c, 0, 69, 78
2, 385148, Note_off_c, 0, 69, 0
2, 385152, Note_on_c, 0, 74, 81
2, 385244, Note_off_c, 0, 74, 0
2, 385248, Note_on_c, 0, 78, 84
2, 385340, Note_off_c, 0, 78, 0
2, 385344, Note_on_c, 0, 81, 87
2, 385436, Note_off_c, 0, 81, 0
2, 385440, Note_on_c, 0, 86, 90
2, 385532, Note_off_c, 0, 86, 0
2, 385536, Note_on_c, 0, 85, 96
2, 385628, Note_off_c, 0, 85, 0
2, 385632, Note_on_c, 0, 61, 70
2, 385724, Note_off_c, 0, 61, 0
2, 385728, Note_on_c, 0, 64, 73
2, 385820, Note_off_c, 0, 64, 0
2, 385824, Note_on_c, 0, 67, 78
2, 385916, Note_off_c, 0, 67, 0
2, 385920, Note_on_c, 0, 73, 81
2, 386012, Note_off_c, 0, 73, 0
2, 386016, Note_on_c, 0, 76, 84
2, 386108, Note_off_c, 0, 76, 0
2, 386112, Note_on_c, 0, 79, 87
2, 386204, Note_off_c, 0, 79, 0
2, 386208, Note_on_c, 0, 85, 90
2, 386300, Note_off_c, 0, 85, 0
2, 386304, Note_on_c, 0, 84, 96
2, 386396, Note_off_c, 0, 84, 0
2, 386400, Note_on_c, 0, 60, 70
2, 386492, Note_off_c, 0, 60, 0
2, 386496, Note_on_c, 0, 66, 73
2, 386588, Note_off_c, 0, 66, 0
2, 386592, Note_on_c, 0, 69, 78
2, 386684, Note_off_c, 0, 69, 0
2, 386688, Note_on_c, 0, 72, 81
2, 386780, Note_off_c, 0, 72, 0
2, 386784, Note_on_c, 0, 78, 84
2, 386876, Note_off_c, 0, 78, 0
2, 386880, Note_on_c, 0, 81, 87
2, 386972, Note_off_c, 0, 81, 0
2, 386976, Note_on_c, 0, 84, 90
2, 387068, Note_off_c, 0, 84, 0
2, 387072, Note_on_c, 0, 83, 96
2, 387164, Note_off_c, 0, 83, 0
2, 387168, Note_on_c, 0, 59, 70
2, 387260, Note_off_c, 0, 59, 0
2, 387264, Note_on_c, 0, 62, 73
2, 387356, Note_off_c, 0, 62, 0
2, 387360, Note_on_c, 0, 67, 78
2, 387452, Note_off_c, 0, 67, 0
2, 387456, Note_on_c, 0, 71, 81
2, 387548, Note_off_c, 0, 71, 0
2, 387552, Note_on_c, 0, 74, 84
2, 387644, Note_off_c, 0, 74, 0
2, 387648, Note_on_c, 0, 79, 87
2, 387740, Note_off_c, 0, 79, 0
2, 387744, Note_on_c, 0, 83, 90
2, 387836, Note_off_c, 0, 83, 0
2, 387840, Note_on_c, 0, 84, 96
2, 387840, Note_on_c, 0, 69, 96
2, 387932, Note_off_c, 0, 84, 0
2, 387932, Note_off_c, 0, 69, 0
2, 387936, Note_on_c, 0, 83, 96
2, 387936, Note_on_c, 0, 67, 96
2, 388028, Note_off_c, 0, 83, 0
2, 388028, Note_off_c, 0, 67, 0
2, 388032, Note_on_c, 0, 81, 96
2, 388032, Note_on_c, 0, 66, 96
2, 388124, Note_off_c, 0, 81, 0
2, 388124, Note_off_c, 0, 66, 0
2, 388128, Note_on_c, 0, 83, 96
2, 388128, Note_on_c, 0, 67, 96
2, 388220, Note_off_c, 0, 83, 0
2, 388220, Note_off_c, 0, 67, 0
2, 388224, Note_on_c, 0, 84, 96
2, 388224, Note_on_c, 0, 69, 96
2, 388316, Note_off_c, 0, 84, 0
2, 388316, Note_off_c, 0, 69, 0
2, 388320, Note_on_c, 0, 83, 96
2, 388320, Note_on_c, 0, 67, 96
2, 388412, Note_off_c, 0, 83, 0
2, 388412, Note_off_c, 0, 67, 0
2, 388416, Note_on_c, 0, 81, 96
2, 388416, Note_on_c, 0, 66, 96
2, 388508, Note_off_c, 0, 81, 0
2, 388508, Note_off_c, 0, 66, 0
2, 388512, Note_on_c, 0, 83, 96
2, 388512, Note_on_c, 0, 67, 96
2, 388604, Note_off_c, 0, 83, 0
2, 388604, Note_off_c, 0, 67, 0
2, 388608, Note_on_c, 0, 84, 96
2, 388608, Note_on_c, 0, 69, 96
2, 388700, Note_off_c, 0, 84, 0
2, 388700, Note_off_c, 0, 69, 0
2, 388704, Note_on_c, 0, 83, 96
2, 388704, Note_on_c, 0, 67, 96
2, 388796, Note_off_c, 0, 83, 0
2, 388796, Note_off_c, 0, 67, 0
2, 388800, Note_on_c, 0, 81, 96
2, 388800, Note_on_c, 0, 66, 96
2, 388892, Note_off_c, 0, 81, 0
2, 388892, Note_off_c, 0, 66, 0
2, 388896, Note_on_c, 0, 83, 96
2, 388896, Note_on_c, 0, 67, 96
2, 388988, Note_off_c, 0, 83, 0
2, 388988, Note_off_c, 0, 67, 0
2, 388992, Note_on_c, 0, 84, 96
2, 388992, Note_on_c, 0, 69, 96
2, 389084, Note_off_c, 0, 84, 0
2, 389084, Note_off_c, 0, 69, 0
2, 389088, Note_on_c, 0, 83, 96
2, 389088, Note_on_c, 0, 67, 96
2, 389180, Note_off_c, 0, 83, 0
2, 389180, Note_off_c, 0, 67, 0
2, 389184, Note_on_c, 0, 81, 96
2, 389184, Note_on_c, 0, 66, 96
2, 389276, Note_off_c, 0, 81, 0
2, 389276, Note_off_c, 0, 66, 0
2, 389280, Note_on_c, 0, 83, 96
2, 389280, Note_on_c, 0, 67, 96
2, 389372, Note_off_c, 0, 83, 0
2, 389372, Note_off_c, 0, 67, 0
2, 389376, Note_on_c, 0, 84, 96
2, 389376, Note_on_c, 0, 69, 96
2, 389564, Note_off_c, 0, 84, 0
2, 389564, Note_off_c, 0, 69, 0
2, 391680, Note_on_c, 0, 63, 73
2, 392444, Note_off_c, 0, 63, 0
2, 392448, Note_on_c, 0, 60, 73
2, 393212, Note_off_c, 0, 60, 0
2, 393216, Note_on_c, 0, 72, 67
2, 393216, Note_on_c, 0, 69, 67
2, 393216, Note_on_c, 0, 66, 67
2, 393788, Note_off_c, 0, 72, 0
2, 393788, Note_off_c, 0, 69, 0
2, 393788, Note_off_c, 0, 66, 0
2, 393792, Note_on_c, 0, 72, 67
2, 393792, Note_on_c, 0, 69, 67
2, 393792, Note_on_c, 0, 66, 67
2, 393980, Note_off_c, 0, 72, 0
2, 393980, Note_off_c, 0, 69, 0
2, 393980, Note_off_c, 0, 66, 0
2, 393984, Note_on_c, 0, 72, 67
2, 393984, Note_on_c, 0, 69, 67
2, 393984, Note_on_c, 0, 66, 67
2, 394172, Note_off_c, 0, 72, 0
2, 394172, Note_off_c, 0, 69, 0
2, 394172, Note_off_c, 0, 66, 0
2, 394176, Note_on_c, 0, 71, 67
2, 394176, Note_on_c, 0, 67, 67
2, 394364, Note_off_c, 0, 71, 0
2, 394364, Note_off_c, 0, 67, 0
2, 394368, Note_on_c, 0, 71, 67
2, 394368, Note_on_c, 0, 67, 67
2, 394556, Note_off_c, 0, 71, 0
2, 394556, Note_off_c, 0, 67, 0
2, 396288, Note_on_c, 0, 78, 67
2, 396288, Note_on_c, 0, 74, 67
2, 396288, Note_on_c, 0, 72, 67
2, 396288, Note_on_c, 0, 69, 67
2, 396860, Note_off_c, 0, 78, 0
2, 396860, Note_off_c, 0, 74, 0
2, 396860, Note_off_c, 0, 72, 0
2, 396860, Note_off_c, 0, 69, 0
2, 396864, Note_on_c, 0, 78, 67
2, 396864, Note_on_c, 0, 74, 67
2, 396864, Note_on_c, 0, 72, 67
2, 396864, Note_on_c, 0, 69, 67
2, 397052, Note_off_c, 0, 78, 0
2, 397052, Note_off_c, 0, 74, 0
2, 397052, Note_off_c, 0, 72, 0
2, 397052, Note_off_c, 0, 69, 0
2, 397056, Note_on_c, 0, 78, 67
2, 397056, Note_on_c, 0, 72, 67
2, 397056, Note_on_c, 0, 69, 67
2, 397244, Note_off_c, 0, 78, 0
2, 397244, Note_off_c, 0, 72, 0
2, 397244, Note_off_c, 0, 69, 0
2, 397248, Note_on_c, 0, 79, 67
2, 397248, Note_on_c, 0, 71, 67
2, 397436, Note_off_c, 0, 79, 0
2, 397436, Note_off_c, 0, 71, 0
2, 397440, Note_on_c, 0, 79, 67
2, 397440, Note_on_c, 0, 74, 67
2, 397440, Note_on_c, 0, 71, 67
2, 397628, Note_off_c, 0, 79, 0
2, 397628, Note_off_c, 0, 74, 0
2, 397628, Note_off_c, 0, 71, 0
2, 399360, Note_on_c, 0, 84, 96
2, 399360, Note_on_c, 0, 81, 96
2, 399360, Note_on_c, 0, 78, 96
2, 399360, Note_on_c, 0, 74, 96
2, 399932, Note_off_c, 0, 84, 0
2, 399932, Note_off_c, 0, 81, 0
2, 399932, Note_off_c, 0, 78, 0
2, 399932, Note_off_c, 0, 74, 0
2, 399936, Note_on_c, 0, 84, 96
2, 399936, Note_on_c, 0, 81, 96
2, 399936, Note_on_c, 0, 78, 96
2, 399936, Note_on_c, 0, 74, 96
2, 400124, Note_off_c, 0, 84, 0
2, 400124, Note_off_c, 0, 81, 0
2, 400124, Note_off_c, 0, 78, 0
2, 400124, Note_off_c, 0, 74, 0
2, 400128, Note_on_c, 0, 83, 96
2, 400128, Note_on_c, 0, 79, 96
2, 400128, Note_on_c, 0, 74, 96
2, 400316, Note_off_c, 0, 83, 0
2, 400316, Note_off_c, 0, 79, 0
2, 400316, Note_off_c, 0, 74, 0
2, 402432, Note_on_c, 0, 55, 67
2, 402524, Note_off_c, 0, 55, 0
2, 402528, Note_on_c, 0, 67, 67
2, 402620, Note_off_c, 0, 67, 0
2, 402624, Note_on_c, 0, 64, 67
2, 402716, Note_off_c, 0, 64, 0
2, 402720, Note_on_c, 0, 67, 67
2, 402812, Note_off_c, 0, 67, 0
2, 402816, Note_on_c, 0, 60, 67
2, 402908, Note_off_c, 0, 60, 0
2, 402912, Note_on_c, 0, 64, 67
2, 403004, Note_off_c, 0, 64, 0
2, 403008, Note_on_c, 0, 55, 67
2, 403100, Note_off_c, 0, 55, 0
2, 403104, Note_on_c, 0, 67, 67
2, 403196, Note_off_c, 0, 67, 0
2, 403200, Note_on_c, 0, 60, 69
2, 403292, Note_off_c, 0, 60, 0
2, 403296, Note_on_c, 0, 72, 70
2, 403388, Note_off_c, 0, 72, 0
2, 403392, Note_on_c, 0, 69, 72
2, 403484, Note_off_c, 0, 69, 0
2, 403488, Note_on_c, 0, 72, 73
2, 403580, Note_off_c, 0, 72, 0
2, 403584, Note_on_c, 0, 66, 77
2, 403676, Note_off_c, 0, 66, 0
2, 403680, Note_on_c, 0, 69, 78
2, 403772, Note_off_c, 0, 69, 0
2, 403776, Note_on_c, 0, 60, 80
2, 403868, Note_off_c, 0, 60, 0
2, 403872, Note_on_c, 0, 72, 81
2, 403964, Note_off_c, 0, 72, 0
2, 403968, Note_on_c, 0, 65, 83
2, 404060, Note_off_c, 0, 65, 0
2, 404064, Note_on_c, 0, 77, 84
2, 404156, Note_off_c, 0, 77, 0
2, 404160, Note_on_c, 0, 74, 86
2, 404252, Note_off_c, 0, 74, 0
2, 404256, Note_on_c, 0, 77, 87
2, 404348, Note_off_c, 0, 77, 0
2, 404352, Note_on_c, 0, 71, 89
2, 404444, Note_off_c, 0, 71, 0
2, 404448, Note_on_c, 0, 74, 90
2, 404540, Note_off_c, 0, 74, 0
2, 404544, Note_on_c, 0, 65, 93
2, 404636, Note_off_c, 0, 65, 0
2, 404640, Note_on_c, 0, 77, 95
2, 404732, Note_off_c, 0, 77, 0
2, 404736, Note_on_c, 0, 67, 96
2, 404828, Note_off_c, 0, 67, 0
2, 404832, Note_on_c, 0, 79, 96
2, 404924, Note_off_c, 0, 79, 0
2, 404928, Note_on_c, 0, 76, 96
2, 405020, Note_off_c, 0, 76, 0
2, 405024, Note_on_c, 0, 79, 96
2, 405116, Note_off_c, 0, 79, 0
2, 405120, Note_on_c, 0, 72, 96
2, 405212, Note_off_c, 0, 72, 0
2, 405216, Note_on_c, 0, 76, 96
2, 405308, Note_off_c, 0, 76, 0
2, 405312, Note_on_c, 0, 67, 96
2, 405404, Note_off_c, 0, 67, 0
2, 405408, Note_on_c, 0, 79, 96
2, 405500, Note_off_c, 0, 79, 0
2, 405504, Note_on_c, 0, 72, 96
2, 405596, Note_off_c, 0, 72, 0
2, 405600, Note_on_c, 0, 84, 96
2, 405692, Note_off_c, 0, 84, 0
2, 405696, Note_on_c, 0, 81, 96
2, 405788, Note_off_c, 0, 81, 0
2, 405792, Note_on_c, 0, 84, 96
2, 405884, Note_off_c, 0, 84, 0
2, 405888, Note_on_c, 0, 78, 96
2, 405980, Note_off_c, 0, 78, 0
2, 405984, Note_on_c, 0, 81, 96
2, 406076, Note_off_c, 0, 81, 0
2, 406080, Note_on_c, 0, 72, 96
2, 406172, Note_off_c, 0, 72, 0
2, 406176, Note_on_c, 0, 84, 96
2, 406268, Note_off_c, 0, 84, 0
2, 406272, Note_on_c, 0, 71, 96
2, 406364, Note_off_c, 0, 71, 0
2, 406368, Note_on_c, 0, 74, 96
2, 406460, Note_off_c, 0, 74, 0
2, 406464, Note_on_c, 0, 79, 96
2, 406556, Note_off_c, 0, 79, 0
2, 406560, Note_on_c, 0, 83, 96
2, 406652, Note_off_c, 0, 83, 0
2, 406656, Note_on_c, 0, 74, 96
2, 406748, Note_off_c, 0, 74, 0
2, 406752, Note_on_c, 0, 78, 96
2, 406844, Note_off_c, 0, 78, 0
2, 406848, Note_on_c, 0, 81, 96
2, 406940, Note_off_c, 0, 81, 0
2, 406944, Note_on_c, 0, 86, 96
2, 407036, Note_off_c, 0, 86, 0
2, 407040, Note_on_c, 0, 67, 96
2, 407132, Note_off_c, 0, 67, 0
2, 407136, Note_on_c, 0, 71, 96
2, 407228, Note_off_c, 0, 71, 0
2, 407232, Note_on_c, 0, 76, 96
2, 407324, Note_off_c, 0, 76, 0
2, 407328, Note_on_c, 0, 79, 96
2, 407420, Note_off_c, 0, 79, 0
2, 407424, Note_on_c, 0, 71, 96
2, 407516, Note_off_c, 0, 71, 0
2, 407520, Note_on_c, 0, 74, 96
2, 407612, Note_off_c, 0, 74, 0
2, 407616, Note_on_c, 0, 78, 96
2, 407708, Note_off_c, 0, 78, 0
2, 407712, Note_on_c, 0, 83, 96
2, 407804, Note_off_c, 0, 83, 0
2, 407808, Note_on_c, 0, 64, 96
2, 407900, Note_off_c, 0, 64, 0
2, 407904, Note_on_c, 0, 67, 96
2, 407996, Note_off_c, 0, 67, 0
2, 408000, Note_on_c, 0, 72, 96
2, 408092, Note_off_c, 0, 72, 0
2, 408096, Note_on_c, 0, 76, 96
2, 408188, Note_off_c, 0, 76, 0
2, 408192, Note_on_c, 0, 67, 96
2, 408284, Note_off_c, 0, 67, 0
2, 408288, Note_on_c, 0, 71, 96
2, 408380, Note_off_c, 0, 71, 0
2, 408384, Note_on_c, 0, 74, 96
2, 408476, Note_off_c, 0, 74, 0
2, 408480, Note_on_c, 0, 79, 96
2, 408572, Note_off_c, 0, 79, 0
2, 408576, Note_on_c, 0, 73, 96
2, 408764, Note_off_c, 0, 73, 0
2, 409344, Note_on_c, 0, 84, 96
2, 409344, Note_on_c, 0, 81, 96
2, 409344, Note_on_c, 0, 78, 96
2, 409344, Note_on_c, 0, 72, 96
2, 409532, Note_off_c, 0, 81, 0
2, 409532, Note_off_c, 0, 78, 0
2, 409532, Note_off_c, 0, 72, 0
2, 409916, Note_off_c, 0, 84, 0
2, 409920, Note_on_c, 0, 78, 96
2, 410108, Note_off_c, 0, 78, 0
2, 410112, Note_on_c, 0, 81, 96
2, 410152, Note_off_c, 0, 81, 0
2, 410156, Note_on_c, 0, 79, 96
2, 410196, Note_off_c, 0, 79, 0
2, 410204, Note_on_c, 0, 78, 96
2, 410244, Note_off_c, 0, 78, 0
2, 410248, Note_on_c, 0, 79, 67
2, 410304, Note_on_c, 0, 83, 67
2, 410396, Note_off_c, 0, 83, 0
2, 410436, Note_off_c, 0, 79, 0
2, 410496, Note_on_c, 0, 78, 67
2, 410536, Note_off_c, 0, 78, 0
2, 410540, Note_on_c, 0, 76, 67
2, 410580, Note_off_c, 0, 76, 0
2, 410588, Note_on_c, 0, 74, 67
2, 410628, Note_off_c, 0, 74, 0
2, 410632, Note_on_c, 0, 76, 67
2, 410688, Note_on_c, 0, 79, 67
2, 410780, Note_off_c, 0, 79, 0
2, 410820, Note_off_c, 0, 76, 0
2, 410880, Note_on_c, 0, 72, 67
2, 410920, Note_off_c, 0, 72, 0
2, 410924, Note_on_c, 0, 71, 67
2, 410964, Note_off_c, 0, 71, 0
2, 410972, Note_on_c, 0, 69, 67
2, 411012, Note_off_c, 0, 69, 0
2, 411016, Note_on_c, 0, 72, 67
2, 411072, Note_on_c, 0, 74, 67
2, 411164, Note_off_c, 0, 74, 0
2, 411204, Note_off_c, 0, 72, 0
2, 411264, Note_on_c, 0, 67, 67
2, 411304, Note_off_c, 0, 67, 0
2, 411308, Note_on_c, 0, 66, 67
2, 411348, Note_off_c, 0, 66, 0
2, 411356, Note_on_c, 0, 64, 67
2, 411396, Note_off_c, 0, 64, 0
2, 411400, Note_on_c, 0, 66, 67
2, 411456, Note_on_c, 0, 69, 67
2, 411548, Note_off_c, 0, 69, 0
2, 411588, Note_off_c, 0, 66, 0
2, 411648, Note_on_c, 0, 71, 96
2, 411740, Note_off_c, 0, 71, 0
2, 411744, Note_on_c, 0, 74, 96
2, 411836, Note_off_c, 0, 74, 0
2, 411840, Note_on_c, 0, 79, 96
2, 411932, Note_off_c, 0, 79, 0
2, 411936, Note_on_c, 0, 83, 96
2, 412028, Note_off_c, 0, 83, 0
2, 412032, Note_on_c, 0, 74, 96
2, 412124, Note_off_c, 0, 74, 0
2, 412128, Note_on_c, 0, 78, 96
2, 412220, Note_off_c, 0, 78, 0
2, 412224, Note_on_c, 0, 81, 96
2, 412316, Note_off_c, 0, 81, 0
2, 412320, Note_on_c, 0, 86, 96
2, 412412, Note_off_c, 0, 86, 0
2, 412416, Note_on_c, 0, 67, 96
2, 412508, Note_off_c, 0, 67, 0
2, 412512, Note_on_c, 0, 71, 96
2, 412604, Note_off_c, 0, 71, 0
2, 412608, Note_on_c, 0, 76, 96
2, 412700, Note_off_c, 0, 76, 0
2, 412704, Note_on_c, 0, 79, 96
2, 412796, Note_off_c, 0, 79, 0
2, 412800, Note_on_c, 0, 71, 96
2, 412892, Note_off_c, 0, 71, 0
2, 412896, Note_on_c, 0, 74, 96
2, 412988, Note_off_c, 0, 74, 0
2, 412992, Note_on_c, 0, 78, 96
2, 413084, Note_off_c, 0, 78, 0
2, 413088, Note_on_c, 0, 83, 96
2, 413180, Note_off_c, 0, 83, 0
2, 413184, Note_on_c, 0, 64, 96
2, 413276, Note_off_c, 0, 64, 0
2, 413280, Note_on_c, 0, 67, 96
2, 413372, Note_off_c, 0, 67, 0
2, 413376, Note_on_c, 0, 72, 96
2, 413468, Note_off_c, 0, 72, 0
2, 413472, Note_on_c, 0, 76, 96
2, 413564, Note_off_c, 0, 76, 0
2, 413568, Note_on_c, 0, 67, 96
2, 413660, Note_off_c, 0, 67, 0
2, 413664, Note_on_c, 0, 71, 96
2, 413756, Note_off_c, 0, 71, 0
2, 413760, Note_on_c, 0, 74, 96
2, 413852, Note_off_c, 0, 74, 0
2, 413856, Note_on_c, 0, 79, 96
2, 413948, Note_off_c, 0, 79, 0
2, 413952, Note_on_c, 0, 73, 96
2, 414140, Note_off_c, 0, 73, 0
2, 414720, Note_on_c, 0, 81, 96
2, 414720, Note_on_c, 0, 78, 96
2, 414720, Note_on_c, 0, 72, 96
2, 414720, Note_on_c, 0, 84, 96
2, 414908, Note_off_c, 0, 81, 0
2, 414908, Note_off_c, 0, 78, 0
2, 414908, Note_off_c, 0, 72, 0
2, 415292, Note_off_c, 0, 84, 0
2, 415296, Note_on_c, 0, 78, 96
2, 415484, Note_off_c, 0, 78, 0
2, 415584, Note_on_c, 0, 79, 67
2, 415676, Note_off_c, 0, 79, 0
2, 415680, Note_on_c, 0, 83, 67
2, 415772, Note_off_c, 0, 83, 0
2, 415776, Note_on_c, 0, 79, 67
2, 415868, Note_off_c, 0, 79, 0
2, 415968, Note_on_c, 0, 76, 67
2, 416060, Note_off_c, 0, 76, 0
2, 416064, Note_on_c, 0, 79, 67
2, 416156, Note_off_c, 0, 79, 0
2, 416160, Note_on_c, 0, 76, 67
2, 416252, Note_off_c, 0, 76, 0
2, 416352, Note_on_c, 0, 71, 67
2, 416444, Note_off_c, 0, 71, 0
2, 416448, Note_on_c, 0, 74, 67
2, 416540, Note_off_c, 0, 74, 0
2, 416544, Note_on_c, 0, 71, 67
2, 416636, Note_off_c, 0, 71, 0
2, 416736, Note_on_c, 0, 66, 67
2, 416828, Note_off_c, 0, 66, 0
2, 416832, Note_on_c, 0, 69, 67
2, 416924, Note_off_c, 0, 69, 0
2, 416928, Note_on_c, 0, 66, 67
2, 417020, Note_off_c, 0, 66, 0
2, 417024, Note_on_c, 0, 67, 67
2, 417212, Note_off_c, 0, 67, 0
2, 417600, Note_on_c, 0, 71, 67
2, 417692, Note_off_c, 0, 71, 0
2, 417696, Note_on_c, 0, 67, 67
2, 417788, Note_off_c, 0, 67, 0
2, 417792, Note_on_c, 0, 72, 67
2, 417980, Note_off_c, 0, 72, 0
2, 417984, Note_on_c, 0, 72, 67
2, 418172, Note_off_c, 0, 72, 0
2, 418176, Note_on_c, 0, 72, 67
2, 418364, Note_off_c, 0, 72, 0
2, 418368, Note_on_c, 0, 72, 67
2, 418556, Note_off_c, 0, 72, 0
2, 418560, Note_on_c, 0, 71, 67
2, 418748, Note_off_c, 0, 71, 0
2, 419136, Note_on_c, 0, 74, 67
2, 419228, Note_off_c, 0, 74, 0
2, 419232, Note_on_c, 0, 71, 67
2, 419324, Note_off_c, 0, 71, 0
2, 419328, Note_on_c, 0, 77, 67
2, 419516, Note_off_c, 0, 77, 0
2, 419520, Note_on_c, 0, 77, 67
2, 419708, Note_off_c, 0, 77, 0
2, 419712, Note_on_c, 0, 77, 67
2, 419900, Note_off_c, 0, 77, 0
2, 419904, Note_on_c, 0, 77, 67
2, 420092, Note_off_c, 0, 77, 0
2, 420096, Note_on_c, 0, 76, 69
2, 420284, Note_off_c, 0, 76, 0
2, 420672, Note_on_c, 0, 76, 77
2, 420764, Note_off_c, 0, 76, 0
2, 420768, Note_on_c, 0, 72, 78
2, 420860, Note_off_c, 0, 72, 0
2, 420864, Note_on_c, 0, 79, 79
2, 421052, Note_off_c, 0, 79, 0
2, 421056, Note_on_c, 0, 79, 81
2, 421244, Note_off_c, 0, 79, 0
2, 421248, Note_on_c, 0, 79, 83
2, 421436, Note_off_c, 0, 79, 0
2, 421440, Note_on_c, 0, 79, 85
2, 421628, Note_off_c, 0, 79, 0
2, 421632, Note_on_c, 0, 78, 87
2, 421820, Note_off_c, 0, 78, 0
2, 422208, Note_on_c, 0, 81, 96
2, 422300, Note_off_c, 0, 81, 0
2, 422304, Note_on_c, 0, 78, 96
2, 422396, Note_off_c, 0, 78, 0
2, 422400, Note_on_c, 0, 84, 96
2, 422588, Note_off_c, 0, 84, 0
2, 422592, Note_on_c, 0, 84, 96
2, 422780, Note_off_c, 0, 84, 0
2, 422784, Note_on_c, 0, 84, 96
2, 422972, Note_off_c, 0, 84, 0
2, 422976, Note_on_c, 0, 84, 96
2, 423164, Note_off_c, 0, 84, 0
2, 423168, Note_on_c, 0, 83, 70
2, 423260, Note_off_c, 0, 83, 0
2, 423264, Note_on_c, 0, 79, 70
2, 423356, Note_off_c, 0, 79, 0
2, 423360, Note_on_c, 0, 74, 70
2, 423360, Note_on_c, 0, 71, 70
2, 423360, Note_on_c, 0, 67, 70
2, 423452, Note_off_c, 0, 74, 0
2, 423456, Note_on_c, 0, 86, 67
2, 423548, Note_off_c, 0, 71, 0
2, 423548, Note_off_c, 0, 67, 0
2, 423548, Note_off_c, 0, 86, 0
2, 423552, Note_on_c, 0, 81, 67
2, 423552, Note_on_c, 0, 69, 67
2, 423552, Note_on_c, 0, 62, 67
2, 423644, Note_off_c, 0, 81, 0
2, 423648, Note_on_c, 0, 78, 67
2, 423740, Note_off_c, 0, 69, 0
2, 423740, Note_off_c, 0, 62, 0
2, 423740, Note_off_c, 0, 78, 0
2, 423744, Note_on_c, 0, 74, 67
2, 423744, Note_on_c, 0, 69, 67
2, 423744, Note_on_c, 0, 62, 67
2, 423836, Note_off_c, 0, 74, 0
2, 423840, Note_on_c, 0, 86, 67
2, 423932, Note_off_c, 0, 69, 0
2, 423932, Note_off_c, 0, 62, 0
2, 423932, Note_off_c, 0, 86, 0
2, 423936, Note_on_c, 0, 83, 67
2, 423936, Note_on_c, 0, 67, 67
2, 423936, Note_on_c, 0, 71, 67
2, 424028, Note_off_c, 0, 83, 0
2, 424032, Note_on_c, 0, 79, 67
2, 424124, Note_off_c, 0, 67, 0
2, 424124, Note_off_c, 0, 71, 0
2, 424124, Note_off_c, 0, 79, 0
2, 424128, Note_on_c, 0, 74, 67
2, 424128, Note_on_c, 0, 67, 67
2, 424128, Note_on_c, 0, 71, 67
2, 424220, Note_off_c, 0, 74, 0
2, 424224, Note_on_c, 0, 86, 70
2, 424316, Note_off_c, 0, 67, 0
2, 424316, Note_off_c, 0, 71, 0
2, 424316, Note_off_c, 0, 86, 0
2, 424320, Note_on_c, 0, 81, 69
2, 424320, Note_on_c, 0, 69, 69
2, 424320, Note_on_c, 0, 62, 69
2, 424412, Note_off_c, 0, 81, 0
2, 424416, Note_on_c, 0, 78, 71
2, 424508, Note_off_c, 0, 69, 0
2, 424508, Note_off_c, 0, 62, 0
2, 424508, Note_off_c, 0, 78, 0
2, 424512, Note_on_c, 0, 74, 73
2, 424512, Note_on_c, 0, 69, 73
2, 424512, Note_on_c, 0, 62, 73
2, 424604, Note_off_c, 0, 74, 0
2, 424608, Note_on_c, 0, 86, 77
2, 424700, Note_off_c, 0, 69, 0
2, 424700, Note_off_c, 0, 62, 0
2, 424700, Note_off_c, 0, 86, 0
2, 424704, Note_on_c, 0, 83, 79
2, 424704, Note_on_c, 0, 71, 79
2, 424704, Note_on_c, 0, 67, 79
2, 424796, Note_off_c, 0, 83, 0
2, 424800, Note_on_c, 0, 79, 81
2, 424892, Note_off_c, 0, 71, 0
2, 424892, Note_off_c, 0, 67, 0
2, 424892, Note_off_c, 0, 79, 0
2, 424896, Note_on_c, 0, 74, 83
2, 424896, Note_on_c, 0, 71, 83
2, 424896, Note_on_c, 0, 67, 83
2, 424988, Note_off_c, 0, 74, 0
2, 424992, Note_on_c, 0, 86, 85
2, 425084, Note_off_c, 0, 71, 0
2, 425084, Note_off_c, 0, 67, 0
2, 425084, Note_off_c, 0, 86, 0
2, 425088, Note_on_c, 0, 69, 87
2, 425088, Note_on_c, 0, 62, 87
2, 425088, Note_on_c, 0, 81, 87
2, 425180, Note_off_c, 0, 81, 0
2, 425184, Note_on_c, 0, 78, 89
2, 425276, Note_off_c, 0, 69, 0
2, 425276, Note_off_c, 0, 62, 0
2, 425276, Note_off_c, 0, 78, 0
2, 425280, Note_on_c, 0, 74, 92
2, 425280, Note_on_c, 0, 69, 92
2, 425280, Note_on_c, 0, 62, 92
2, 425372, Note_off_c, 0, 74, 0
2, 425376, Note_on_c, 0, 86, 95
2, 425468, Note_off_c, 0, 69, 0
2, 425468, Note_off_c, 0, 62, 0
2, 425468, Note_off_c, 0, 86, 0
2, 425472, Note_on_c, 0, 83, 96
2, 425472, Note_on_c, 0, 71, 96
2, 425472, Note_on_c, 0, 67, 96
2, 425564, Note_off_c, 0, 83, 0
2, 425568, Note_on_c, 0, 79, 96
2, 425660, Note_off_c, 0, 71, 0
2, 425660, Note_off_c, 0, 67, 0
2, 425660, Note_off_c, 0, 79, 0
2, 425664, Note_on_c, 0, 74, 96
2, 425664, Note_on_c, 0, 71, 96
2, 425664, Note_on_c, 0, 67, 96
2, 425756, Note_off_c, 0, 74, 0
2, 425760, Note_on_c, 0, 86, 96
2, 425852, Note_off_c, 0, 71, 0
2, 425852, Note_off_c, 0, 67, 0
2, 425852, Note_off_c, 0, 86, 0
2, 425856, Note_on_c, 0, 81, 96
2, 425856, Note_on_c, 0, 69, 96
2, 425856, Note_on_c, 0, 62, 96
2, 425948, Note_off_c, 0, 81, 0
2, 425952, Note_on_c, 0, 78, 96
2, 426044, Note_off_c, 0, 69, 0
2, 426044, Note_off_c, 0, 62, 0
2, 426044, Note_off_c, 0, 78, 0
2, 426048, Note_on_c, 0, 74, 96
2, 426048, Note_on_c, 0, 69, 96
2, 426048, Note_on_c, 0, 62, 96
2, 426140, Note_off_c, 0, 74, 0
2, 426144, Note_on_c, 0, 86, 96
2, 426236, Note_off_c, 0, 69, 0
2, 426236, Note_off_c, 0, 62, 0
2, 426236, Note_off_c, 0, 86, 0
2, 426240, Note_on_c, 0, 74, 67
2, 426240, Note_on_c, 0, 67, 67
2, 426332, Note_off_c, 0, 74, 0
2, 426332, Note_off_c, 0, 67, 0
2, 426336, Note_on_c, 0, 86, 67
2, 426336, Note_on_c, 0, 71, 67
2, 426428, Note_off_c, 0, 86, 0
2, 426428, Note_off_c, 0, 71, 0
2, 426432, Note_on_c, 0, 85, 67
2, 426432, Note_on_c, 0, 70, 67
2, 426524, Note_off_c, 0, 85, 0
2, 426524, Note_off_c, 0, 70, 0
2, 426528, Note_on_c, 0, 86, 67
2, 426528, Note_on_c, 0, 71, 67
2, 426620, Note_off_c, 0, 86, 0
2, 426620, Note_off_c, 0, 71, 0
2, 426624, Note_on_c, 0, 76, 67
2, 426624, Note_on_c, 0, 60, 67
2, 426716, Note_off_c, 0, 76, 0
2, 426716, Note_off_c, 0, 60, 0
2, 426720, Note_on_c, 0, 84, 67
2, 426720, Note_on_c, 0, 69, 67
2, 426812, Note_off_c, 0, 84, 0
2, 426812, Note_off_c, 0, 69, 0
2, 426816, Note_on_c, 0, 83, 67
2, 426816, Note_on_c, 0, 68, 67
2, 426908, Note_off_c, 0, 83, 0
2, 426908, Note_off_c, 0, 68, 0
2, 426912, Note_on_c, 0, 84, 67
2, 426912, Note_on_c, 0, 69, 67
2, 427004, Note_off_c, 0, 84, 0
2, 427004, Note_off_c, 0, 69, 0
2, 427008, Note_on_c, 0, 74, 67
2, 427008, Note_on_c, 0, 62, 67
2, 427100, Note_off_c, 0, 74, 0
2, 427100, Note_off_c, 0, 62, 0
2, 427104, Note_on_c, 0, 83, 67
2, 427104, Note_on_c, 0, 67, 67
2, 427196, Note_off_c, 0, 83, 0
2, 427196, Note_off_c, 0, 67, 0
2, 427200, Note_on_c, 0, 81, 67
2, 427200, Note_on_c, 0, 66, 67
2, 427292, Note_off_c, 0, 81, 0
2, 427292, Note_off_c, 0, 66, 0
2, 427296, Note_on_c, 0, 83, 67
2, 427296, Note_on_c, 0, 67, 67
2, 427388, Note_off_c, 0, 83, 0
2, 427388, Note_off_c, 0, 67, 0
2, 427392, Note_on_c, 0, 74, 67
2, 427392, Note_on_c, 0, 62, 67
2, 427484, Note_off_c, 0, 74, 0
2, 427484, Note_off_c, 0, 62, 0
2, 427488, Note_on_c, 0, 81, 67
2, 427488, Note_on_c, 0, 66, 67
2, 427580, Note_off_c, 0, 81, 0
2, 427580, Note_off_c, 0, 66, 0
2, 427584, Note_on_c, 0, 79, 67
2, 427584, Note_on_c, 0, 64, 67
2, 427676, Note_off_c, 0, 79, 0
2, 427676, Note_off_c, 0, 64, 0
2, 427680, Note_on_c, 0, 81, 67
2, 427680, Note_on_c, 0, 66, 67
2, 427772, Note_off_c, 0, 81, 0
2, 427772, Note_off_c, 0, 66, 0
2, 427776, Note_on_c, 0, 83, 67
2, 427776, Note_on_c, 0, 71, 67
2, 427776, Note_on_c, 0, 67, 67
2, 427868, Note_off_c, 0, 83, 0
2, 427872, Note_on_c, 0, 79, 67
2, 427964, Note_off_c, 0, 71, 0
2, 427964, Note_off_c, 0, 67, 0
2, 427964, Note_off_c, 0, 79, 0
2, 427968, Note_on_c, 0, 74, 67
2, 427968, Note_on_c, 0, 71, 67
2, 427968, Note_on_c, 0, 67, 67
2, 428060, Note_off_c, 0, 74, 0
2, 428064, Note_on_c, 0, 86, 67
2, 428156, Note_off_c, 0, 71, 0
2, 428156, Note_off_c, 0, 67, 0
2, 428156, Note_off_c, 0, 86, 0
2, 428160, Note_on_c, 0, 81, 67
2, 428160, Note_on_c, 0, 69, 67
2, 428160, Note_on_c, 0, 62, 67
2, 428252, Note_off_c, 0, 81, 0
2, 428256, Note_on_c, 0, 78, 67
2, 428348, Note_off_c, 0, 69, 0
2, 428348, Note_off_c, 0, 62, 0
2, 428348, Note_off_c, 0, 78, 0
2, 428352, Note_on_c, 0, 74, 67
2, 428352, Note_on_c, 0, 69, 67
2, 428352, Note_on_c, 0, 62, 67
2, 428444, Note_off_c, 0, 74, 0
2, 428448, Note_on_c, 0, 86, 67
2, 428540, Note_off_c, 0, 69, 0
2, 428540, Note_off_c, 0, 62, 0
2, 428540, Note_off_c, 0, 86, 0
2, 428544, Note_on_c, 0, 83, 67
2, 428544, Note_on_c, 0, 71, 67
2, 428544, Note_on_c, 0, 67, 67
2, 428636, Note_off_c, 0, 83, 0
2, 428640, Note_on_c, 0, 79, 67
2, 428732, Note_off_c, 0, 71, 0
2, 428732, Note_off_c, 0, 67, 0
2, 428732, Note_off_c, 0, 79, 0
2, 428736, Note_on_c, 0, 74, 67
2, 428736, Note_on_c, 0, 67, 67
2, 428736, Note_on_c, 0, 71, 67
2, 428828, Note_off_c, 0, 74, 0
2, 428832, Note_on_c, 0, 86, 67
2, 428924, Note_off_c, 0, 67, 0
2, 428924, Note_off_c, 0, 71, 0
2, 428924, Note_off_c, 0, 86, 0
2, 428928, Note_on_c, 0, 69, 67
2, 428928, Note_on_c, 0, 62, 67
2, 428928, Note_on_c, 0, 81, 67
2, 429020, Note_off_c, 0, 81, 0
2, 429024, Note_on_c, 0, 78, 67
2, 429116, Note_off_c, 0, 69, 0
2, 429116, Note_off_c, 0, 62, 0
2, 429116, Note_off_c, 0, 78, 0
2, 429120, Note_on_c, 0, 74, 69
2, 429120, Note_on_c, 0, 69, 69
2, 429120, Note_on_c, 0, 62, 69
2, 429212, Note_off_c, 0, 74, 0
2, 429216, Note_on_c, 0, 86, 71
2, 429308, Note_off_c, 0, 69, 0
2, 429308, Note_off_c, 0, 62, 0
2, 429308, Note_off_c, 0, 86, 0
2, 429312, Note_on_c, 0, 83, 73
2, 429312, Note_on_c, 0, 71, 73
2, 429312, Note_on_c, 0, 67, 73
2, 429404, Note_off_c, 0, 83, 0
2, 429408, Note_on_c, 0, 79, 78
2, 429500, Note_off_c, 0, 71, 0
2, 429500, Note_off_c, 0, 67, 0
2, 429500, Note_off_c, 0, 79, 0
2, 429504, Note_on_c, 0, 74, 80
2, 429504, Note_on_c, 0, 71, 80
2, 429504, Note_on_c, 0, 67, 80
2, 429596, Note_off_c, 0, 74, 0
2, 429600, Note_on_c, 0, 86, 83
2, 429692, Note_off_c, 0, 71, 0
2, 429692, Note_off_c, 0, 67, 0
2, 429692, Note_off_c, 0, 86, 0
2, 429696, Note_on_c, 0, 81, 85
2, 429696, Note_on_c, 0, 62, 85
2, 429696, Note_on_c, 0, 69, 85
2, 429788, Note_off_c, 0, 81, 0
2, 429792, Note_on_c, 0, 78, 87
2, 429884, Note_off_c, 0, 62, 0
2, 429884, Note_off_c, 0, 69, 0
2, 429884, Note_off_c, 0, 78, 0
2, 429888, Note_on_c, 0, 74, 90
2, 429888, Note_on_c, 0, 69, 90
2, 429888, Note_on_c, 0, 62, 90
2, 429980, Note_off_c, 0, 74, 0
2, 429984, Note_on_c, 0, 86, 93
2, 430076, Note_off_c, 0, 69, 0
2, 430076, Note_off_c, 0, 62, 0
2, 430076, Note_off_c, 0, 86, 0
2, 430080, Note_on_c, 0, 83, 96
2, 430080, Note_on_c, 0, 71, 96
2, 430080, Note_on_c, 0, 67, 96
2, 430172, Note_off_c, 0, 83, 0
2, 430176, Note_on_c, 0, 79, 96
2, 430268, Note_off_c, 0, 71, 0
2, 430268, Note_off_c, 0, 67, 0
2, 430268, Note_off_c, 0, 79, 0
2, 430272, Note_on_c, 0, 74, 96
2, 430272, Note_on_c, 0, 71, 96
2, 430272, Note_on_c, 0, 67, 96
2, 430364, Note_off_c, 0, 74, 0
2, 430368, Note_on_c, 0, 86, 96
2, 430460, Note_off_c, 0, 71, 0
2, 430460, Note_off_c, 0, 67, 0
2, 430460, Note_off_c, 0, 86, 0
2, 430464, Note_on_c, 0, 81, 96
2, 430464, Note_on_c, 0, 69, 96
2, 430464, Note_on_c, 0, 62, 96
2, 430556, Note_off_c, 0, 81, 0
2, 430560, Note_on_c, 0, 78, 96
2, 430652, Note_off_c, 0, 69, 0
2, 430652, Note_off_c, 0, 62, 0
2, 430652, Note_off_c, 0, 78, 0
2, 430656, Note_on_c, 0, 74, 96
2, 430656, Note_on_c, 0, 69, 96
2, 430656, Note_on_c, 0, 62, 96
2, 430748, Note_off_c, 0, 74, 0
2, 430752, Note_on_c, 0, 86, 96
2, 430844, Note_off_c, 0, 69, 0
2, 430844, Note_off_c, 0, 62, 0
2, 430844, Note_off_c, 0, 86, 0
2, 430848, Note_on_c, 0, 74, 67
2, 430848, Note_on_c, 0, 67, 67
2, 430940, Note_off_c, 0, 74, 0
2, 430940, Note_off_c, 0, 67, 0
2, 430944, Note_on_c, 0, 86, 67
2, 430944, Note_on_c, 0, 71, 67
2, 431036, Note_off_c, 0, 86, 0
2, 431036, Note_off_c, 0, 71, 0
2, 431040, Note_on_c, 0, 85, 67
2, 431040, Note_on_c, 0, 70, 67
2, 431132, Note_off_c, 0, 85, 0
2, 431132, Note_off_c, 0, 70, 0
2, 431136, Note_on_c, 0, 86, 67
2, 431136, Note_on_c, 0, 71, 67
2, 431228, Note_off_c, 0, 86, 0
2, 431228, Note_off_c, 0, 71, 0
2, 431232, Note_on_c, 0, 76, 67
2, 431232, Note_on_c, 0, 60, 67
2, 431324, Note_off_c, 0, 76, 0
2, 431324, Note_off_c, 0, 60, 0
2, 431328, Note_on_c, 0, 84, 67
2, 431328, Note_on_c, 0, 69, 67
2, 431420, Note_off_c, 0, 84, 0
2, 431420, Note_off_c, 0, 69, 0
2, 431424, Note_on_c, 0, 83, 67
2, 431424, Note_on_c, 0, 68, 67
2, 431516, Note_off_c, 0, 83, 0
2, 431516, Note_off_c, 0, 68, 0
2, 431520, Note_on_c, 0, 84, 67
2, 431520, Note_on_c, 0, 69, 67
2, 431612, Note_off_c, 0, 84, 0
2, 431612, Note_off_c, 0, 69, 0
2, 431616, Note_on_c, 0, 74, 67
2, 431616, Note_on_c, 0, 62, 67
2, 431708, Note_off_c, 0, 74, 0
2, 431708, Note_off_c, 0, 62, 0
2, 431712, Note_on_c, 0, 83, 67
2, 431712, Note_on_c, 0, 67, 67
2, 431804, Note_off_c, 0, 83, 0
2, 431804, Note_off_c, 0, 67, 0
2, 431808, Note_on_c, 0, 66, 67
2, 431808, Note_on_c, 0, 81, 67
2, 431900, Note_off_c, 0, 66, 0
2, 431900, Note_off_c, 0, 81, 0
2, 431904, Note_on_c, 0, 83, 67
2, 431904, Note_on_c, 0, 67, 67
2, 431996, Note_off_c, 0, 83, 0
2, 431996, Note_off_c, 0, 67, 0
2, 432000, Note_on_c, 0, 74, 67
2, 432000, Note_on_c, 0, 60, 67
2, 432092, Note_off_c, 0, 74, 0
2, 432092, Note_off_c, 0, 60, 0
2, 432096, Note_on_c, 0, 81, 67
2, 432096, Note_on_c, 0, 66, 67
2, 432188, Note_off_c, 0, 81, 0
2, 432188, Note_off_c, 0, 66, 0
2, 432192, Note_on_c, 0, 79, 67
2, 432192, Note_on_c, 0, 64, 67
2, 432284, Note_off_c, 0, 79, 0
2, 432284, Note_off_c, 0, 64, 0
2, 432288, Note_on_c, 0, 81, 67
2, 432288, Note_on_c, 0, 66, 67
2, 432380, Note_off_c, 0, 81, 0
2, 432380, Note_off_c, 0, 66, 0
2, 432480, Note_on_c, 0, 74, 70
2, 432572, Note_off_c, 0, 74, 0
2, 432576, Note_on_c, 0, 83, 72
2, 432576, Note_on_c, 0, 86, 72
2, 432668, Note_off_c, 0, 83, 0
2, 432668, Note_off_c, 0, 86, 0
2, 432672, Note_on_c, 0, 74, 73
2, 432764, Note_off_c, 0, 74, 0
2, 432864, Note_on_c, 0, 72, 78
2, 432956, Note_off_c, 0, 72, 0
2, 432960, Note_on_c, 0, 81, 80
2, 432960, Note_on_c, 0, 84, 80
2, 433052, Note_off_c, 0, 81, 0
2, 433052, Note_off_c, 0, 84, 0
2, 433056, Note_on_c, 0, 72, 81
2, 433148, Note_off_c, 0, 72, 0
2, 433248, Note_on_c, 0, 71, 84
2, 433340, Note_off_c, 0, 71, 0
2, 433344, Note_on_c, 0, 79, 86
2, 433344, Note_on_c, 0, 83, 86
2, 433436, Note_off_c, 0, 79, 0
2, 433436, Note_off_c, 0, 83, 0
2, 433440, Note_on_c, 0, 71, 87
2, 433532, Note_off_c, 0, 71, 0
2, 433632, Note_on_c, 0, 69, 90
2, 433724, Note_off_c, 0, 69, 0
2, 433728, Note_on_c, 0, 78, 93
2, 433728, Note_on_c, 0, 81, 93
2, 433820, Note_off_c, 0, 78, 0
2, 433820, Note_off_c, 0, 81, 0
2, 433824, Note_on_c, 0, 69, 95
2, 433916, Note_off_c, 0, 69, 0
2, 433920, Note_on_c, 0, 86, 96
2, 433920, Note_on_c, 0, 79, 96
2, 433920, Note_on_c, 0, 74, 96
2, 434108, Note_off_c, 0, 86, 0
2, 434108, Note_off_c, 0, 79, 0
2, 434108, Note_off_c, 0, 74, 0
2, 434304, Note_on_c, 0, 84, 96
2, 434304, Note_on_c, 0, 81, 96
2, 434304, Note_on_c, 0, 76, 96
2, 434684, Note_off_c, 0, 84, 0
2, 434684, Note_off_c, 0, 81, 0
2, 434684, Note_off_c, 0, 76, 0
2, 434688, Note_on_c, 0, 83, 96
2, 434688, Note_on_c, 0, 79, 96
2, 434688, Note_on_c, 0, 74, 96
2, 435068, Note_off_c, 0, 83, 0
2, 435068, Note_off_c, 0, 79, 0
2, 435068, Note_off_c, 0, 74, 0
2, 435072, Note_on_c, 0, 81, 96
2, 435072, Note_on_c, 0, 78, 96
2, 435072, Note_on_c, 0, 74, 96
2, 435452, Note_off_c, 0, 81, 0
2, 435452, Note_off_c, 0, 78, 0
2, 435452, Note_off_c, 0, 74, 0
2, 435456, Note_on_c, 0, 79, 96
2, 435456, Note_on_c, 0, 71, 96
2, 435644, Note_off_c, 0, 79, 0
2, 435644, Note_off_c, 0, 71, 0
2, 436032, Note_on_c, 0, 71, 67
2, 436124, Note_off_c, 0, 71, 0
2, 436128, Note_on_c, 0, 72, 67
2, 436220, Note_off_c, 0, 72, 0
2, 436224, Note_on_c, 0, 74, 67
2, 436412, Note_off_c, 0, 74, 0
2, 436416, Note_on_c, 0, 74, 67
2, 436604, Note_off_c, 0, 74, 0
2, 436608, Note_on_c, 0, 74, 67
2, 436796, Note_off_c, 0, 74, 0
2, 436800, Note_on_c, 0, 79, 67
2, 436988, Note_off_c, 0, 79, 0
2, 436992, Note_on_c, 0, 79, 67
2, 437012, Note_off_c, 0, 79, 0
2, 437016, Note_on_c, 0, 78, 67
2, 437180, Note_off_c, 0, 78, 0
2, 437184, Note_on_c, 0, 78, 67
2, 437372, Note_off_c, 0, 78, 0
2, 437376, Note_on_c, 0, 81, 67
2, 437396, Note_off_c, 0, 81, 0
2, 437400, Note_on_c, 0, 79, 67
2, 437564, Note_off_c, 0, 79, 0
2, 437568, Note_on_c, 0, 79, 67
2, 437756, Note_off_c, 0, 79, 0
2, 437760, Note_on_c, 0, 83, 67
2, 437780, Note_off_c, 0, 83, 0
2, 437784, Note_on_c, 0, 81, 67
2, 437948, Note_off_c, 0, 81, 0
2, 437952, Note_on_c, 0, 81, 67
2, 438140, Note_off_c, 0, 81, 0
2, 438144, Note_on_c, 0, 81, 67
2, 438236, Note_off_c, 0, 81, 0
2, 438240, Note_on_c, 0, 83, 67
2, 438332, Note_off_c, 0, 83, 0
2, 438336, Note_on_c, 0, 84, 67
2, 438428, Note_off_c, 0, 84, 0
2, 438432, Note_on_c, 0, 81, 67
2, 438524, Note_off_c, 0, 81, 0
2, 438528, Note_on_c, 0, 83, 67
2, 438716, Note_off_c, 0, 83, 0
2, 440640, Note_on_c, 0, 83, 84
2, 440732, Note_off_c, 0, 83, 0
2, 440736, Note_on_c, 0, 84, 84
2, 440828, Note_off_c, 0, 84, 0
2, 440832, Note_on_c, 0, 86, 84
2, 441020, Note_off_c, 0, 86, 0
2, 441024, Note_on_c, 0, 86, 84
2, 441212, Note_off_c, 0, 86, 0
2, 441216, Note_on_c, 0, 86, 84
2, 441404, Note_off_c, 0, 86, 0
2, 441408, Note_on_c, 0, 88, 84
2, 441596, Note_off_c, 0, 88, 0
2, 441600, Note_on_c, 0, 86, 84
2, 441620, Note_off_c, 0, 86, 0
2, 441624, Note_on_c, 0, 84, 84
2, 441788, Note_off_c, 0, 84, 0
2, 441792, Note_on_c, 0, 84, 84
2, 441980, Note_off_c, 0, 84, 0
2, 441984, Note_on_c, 0, 84, 84
2, 442004, Note_off_c, 0, 84, 0
2, 442008, Note_on_c, 0, 83, 84
2, 442172, Note_off_c, 0, 83, 0
2, 442176, Note_on_c, 0, 83, 84
2, 442364, Note_off_c, 0, 83, 0
2, 442368, Note_on_c, 0, 83, 84
2, 442388, Note_off_c, 0, 83, 0
2, 442392, Note_on_c, 0, 81, 84
2, 442556, Note_off_c, 0, 81, 0
2, 442560, Note_on_c, 0, 81, 84
2, 442748, Note_off_c, 0, 81, 0
2, 442752, Note_on_c, 0, 81, 84
2, 442844, Note_off_c, 0, 81, 0
2, 442848, Note_on_c, 0, 83, 84
2, 442940, Note_off_c, 0, 83, 0
2, 442944, Note_on_c, 0, 84, 84
2, 443036, Note_off_c, 0, 84, 0
2, 443040, Note_on_c, 0, 81, 84
2, 443132, Note_off_c, 0, 81, 0
2, 443136, Note_on_c, 0, 79, 84
2, 443324, Note_off_c, 0, 79, 0
2, 445056, Note_on_c, 0, 74, 96
2, 445056, Note_on_c, 0, 62, 96
2, 445148, Note_off_c, 0, 74, 0
2, 445148, Note_off_c, 0, 62, 0
2, 445152, Note_on_c, 0, 76, 96
2, 445152, Note_on_c, 0, 64, 96
2, 445244, Note_off_c, 0, 76, 0
2, 445244, Note_off_c, 0, 64, 0
2, 445248, Note_on_c, 0, 78, 96
2, 445248, Note_on_c, 0, 66, 96
2, 445340, Note_off_c, 0, 78, 0
2, 445340, Note_off_c, 0, 66, 0
2, 445344, Note_on_c, 0, 74, 96
2, 445344, Note_on_c, 0, 62, 96
2, 445436, Note_off_c, 0, 74, 0
2, 445436, Note_off_c, 0, 62, 0
2, 445440, Note_on_c, 0, 79, 96
2, 445440, Note_on_c, 0, 67, 96
2, 445628, Note_off_c, 0, 79, 0
2, 445628, Note_off_c, 0, 67, 0
2, 446592, Note_on_c, 0, 74, 96
2, 446592, Note_on_c, 0, 62, 96
2, 446684, Note_off_c, 0, 74, 0
2, 446684, Note_off_c, 0, 62, 0
2, 446688, Note_on_c, 0, 76, 96
2, 446688, Note_on_c, 0, 64, 96
2, 446780, Note_off_c, 0, 76, 0
2, 446780, Note_off_c, 0, 64, 0
2, 446784, Note_on_c, 0, 78, 96
2, 446784, Note_on_c, 0, 66, 96
2, 446876, Note_off_c, 0, 78, 0
2, 446876, Note_off_c, 0, 66, 0
2, 446880, Note_on_c, 0, 74, 96
2, 446880, Note_on_c, 0, 62, 96
2, 446972, Note_off_c, 0, 74, 0
2, 446972, Note_off_c, 0, 62, 0
2, 446976, Note_on_c, 0, 79, 96
2, 446976, Note_on_c, 0, 67, 96
2, 447164, Note_off_c, 0, 79, 0
2, 447164, Note_off_c, 0, 67, 0
2, 447164, End_track
3, 0, Start_track
3, 0, Title_t, "Concerto  #17"
3, 0, Control_c, 1, 0, 0
3, 0, Program_c, 1, 0
3, 0, Control_c, 1, 7, 127
3, 0, Control_c, 1, 10, 63
3, 0, Control_c, 1, 91, 65
3, 0, Control_c, 1, 93, 56
3, 0, Key_signature, 1, "major"
3, 0, Control_c, 1, 121, 0
3, 384, Control_c, 1, 10, 63
3, 480, Control_c, 1, 91, 63
3, 576, Control_c, 1, 93, 40
3, 672, Program_c, 1, 0
3, 52224, Note_on_c, 1, 59, 67
3, 52224, Note_on_c, 1, 55, 67
3, 52988, Note_off_c, 1, 59, 0
3, 52988, Note_off_c, 1, 55, 0
3, 52992, Note_on_c, 1, 59, 67
3, 52992, Note_on_c, 1, 55, 67
3, 53372, Note_off_c, 1, 59, 0
3, 53372, Note_off_c, 1, 55, 0
3, 61440, Note_on_c, 1, 59, 67
3, 61440, Note_on_c, 1, 55, 67
3, 62204, Note_off_c, 1, 59, 0
3, 62204, Note_off_c, 1, 55, 0
3, 62592, Note_on_c, 1, 67, 67
3, 62592, Note_on_c, 1, 57, 67
3, 62972, Note_off_c, 1, 67, 0
3, 62972, Note_off_c, 1, 57, 0
3, 63360, Note_on_c, 1, 62, 67
3, 63360, Note_on_c, 1, 66, 67
3, 63740, Note_off_c, 1, 62, 0
3, 63740, Note_off_c, 1, 66, 0
3, 63744, Note_on_c, 1, 50, 67
3, 64124, Note_off_c, 1, 50, 0
3, 64512, Note_on_c, 1, 59, 67
3, 64512, Note_on_c, 1, 55, 67
3, 65276, Note_off_c, 1, 59, 0
3, 65276, Note_off_c, 1, 55, 0
3, 65280, Note_on_c, 1, 59, 67
3, 65280, Note_on_c, 1, 55, 67
3, 65660, Note_off_c, 1, 59, 0
3, 65660, Note_off_c, 1, 55, 0
3, 73728, Note_on_c, 1, 59, 67
3, 73728, Note_on_c, 1, 55, 67
3, 74492, Note_off_c, 1, 59, 0
3, 74492, Note_off_c, 1, 55, 0
3, 74880, Note_on_c, 1, 67, 67
3, 74880, Note_on_c, 1, 57, 67
3, 75260, Note_off_c, 1, 67, 0
3, 75260, Note_off_c, 1, 57, 0
3, 75648, Note_on_c, 1, 62, 67
3, 75648, Note_on_c, 1, 66, 67
3, 76028, Note_off_c, 1, 62, 0
3, 76028, Note_off_c, 1, 66, 0
3, 76032, Note_on_c, 1, 50, 67
3, 76412, Note_off_c, 1, 50, 0
3, 101376, Note_on_c, 1, 55, 60
3, 101376, Note_on_c, 1, 45, 60
3, 102140, Note_off_c, 1, 55, 0
3, 102140, Note_off_c, 1, 45, 0
3, 102912, Note_on_c, 1, 50, 60
3, 103676, Note_off_c, 1, 50, 0
3, 103680, Note_on_c, 1, 52, 60
3, 104444, Note_off_c, 1, 52, 0
3, 104448, Note_on_c, 1, 48, 60
3, 105212, Note_off_c, 1, 48, 0
3, 105216, Note_on_c, 1, 50, 60
3, 105980, Note_off_c, 1, 50, 0
3, 105984, Note_on_c, 1, 43, 63
3, 106748, Note_off_c, 1, 43, 0
3, 107520, Note_on_c, 1, 62, 60
3, 108284, Note_off_c, 1, 62, 0
3, 108288, Note_on_c, 1, 59, 60
3, 109052, Note_off_c, 1, 59, 0
3, 109056, Note_on_c, 1, 64, 60
3, 109436, Note_off_c, 1, 64, 0
3, 109440, Note_on_c, 1, 57, 60
3, 109820, Note_off_c, 1, 57, 0
3, 109824, Note_on_c, 1, 62, 60
3, 110204, Note_off_c, 1, 62, 0
3, 110208, Note_on_c, 1, 59, 60
3, 110588, Note_off_c, 1, 59, 0
3, 110592, Note_on_c, 1, 55, 60
3, 111356, Note_off_c, 1, 55, 0
3, 111360, Note_on_c, 1, 57, 60
3, 112124, Note_off_c, 1, 57, 0
3, 112128, Note_on_c, 1, 50, 63
3, 112892, Note_off_c, 1, 50, 0
3, 113664, Note_on_c, 1, 43, 66
3, 113788, Note_off_c, 1, 43, 0
3, 113792, Note_on_c, 1, 47, 66
3, 113916, Note_off_c, 1, 47, 0
3, 113920, Note_on_c, 1, 50, 66
3, 114044, Note_off_c, 1, 50, 0
3, 114048, Note_on_c, 1, 55, 66
3, 114172, Note_off_c, 1, 55, 0
3, 114176, Note_on_c, 1, 62, 66
3, 114300, Note_off_c, 1, 62, 0
3, 114304, Note_on_c, 1, 60, 66
3, 114428, Note_off_c, 1, 60, 0
3, 114432, Note_on_c, 1, 59, 66
3, 114556, Note_off_c, 1, 59, 0
3, 114560, Note_on_c, 1, 62, 66
3, 114684, Note_off_c, 1, 62, 0
3, 114688, Note_on_c, 1, 60, 66
3, 114812, Note_off_c, 1, 60, 0
3, 114816, Note_on_c, 1, 59, 66
3, 114940, Note_off_c, 1, 59, 0
3, 114944, Note_on_c, 1, 57, 66
3, 115068, Note_off_c, 1, 57, 0
3, 115072, Note_on_c, 1, 55, 66
3, 115196, Note_off_c, 1, 55, 0
3, 115200, Note_on_c, 1, 60, 66
3, 115324, Note_off_c, 1, 60, 0
3, 115328, Note_on_c, 1, 57, 66
3, 115452, Note_off_c, 1, 57, 0
3, 115456, Note_on_c, 1, 54, 66
3, 115580, Note_off_c, 1, 54, 0
3, 115584, Note_on_c, 1, 50, 66
3, 115708, Note_off_c, 1, 50, 0
3, 115712, Note_on_c, 1, 52, 66
3, 115836, Note_off_c, 1, 52, 0
3, 115840, Note_on_c, 1, 48, 66
3, 115964, Note_off_c, 1, 48, 0
3, 115968, Note_on_c, 1, 47, 66
3, 116092, Note_off_c, 1, 47, 0
3, 116096, Note_on_c, 1, 50, 66
3, 116220, Note_off_c, 1, 50, 0
3, 116224, Note_on_c, 1, 48, 66
3, 116348, Note_off_c, 1, 48, 0
3, 116352, Note_on_c, 1, 47, 66
3, 116476, Note_off_c, 1, 47, 0
3, 116480, Note_on_c, 1, 45, 66
3, 116604, Note_off_c, 1, 45, 0
3, 116608, Note_on_c, 1, 43, 66
3, 116732, Note_off_c, 1, 43, 0
3, 116736, Note_on_c, 1, 48, 66
3, 116860, Note_off_c, 1, 48, 0
3, 116864, Note_on_c, 1, 47, 66
3, 116988, Note_off_c, 1, 47, 0
3, 116992, Note_on_c, 1, 48, 66
3, 117116, Note_off_c, 1, 48, 0
3, 117120, Note_on_c, 1, 45, 66
3, 117244, Note_off_c, 1, 45, 0
3, 117248, Note_on_c, 1, 47, 66
3, 117372, Note_off_c, 1, 47, 0
3, 117376, Note_on_c, 1, 48, 66
3, 117500, Note_off_c, 1, 48, 0
3, 117504, Note_on_c, 1, 50, 66
3, 117628, Note_off_c, 1, 50, 0
3, 117632, Note_on_c, 1, 49, 66
3, 117756, Note_off_c, 1, 49, 0
3, 117760, Note_on_c, 1, 50, 66
3, 117884, Note_off_c, 1, 50, 0
3, 117888, Note_on_c, 1, 38, 74
3, 118012, Note_off_c, 1, 38, 0
3, 118016, Note_on_c, 1, 37, 77
3, 118140, Note_off_c, 1, 37, 0
3, 118144, Note_on_c, 1, 38, 74
3, 118268, Note_off_c, 1, 38, 0
3, 118272, Note_on_c, 1, 43, 70
3, 118396, Note_off_c, 1, 43, 0
3, 118400, Note_on_c, 1, 47, 68
3, 118524, Note_off_c, 1, 47, 0
3, 118528, Note_on_c, 1, 48, 67
3, 118652, Note_off_c, 1, 48, 0
3, 118656, Note_on_c, 1, 50, 66
3, 118780, Note_off_c, 1, 50, 0
3, 118784, Note_on_c, 1, 52, 66
3, 118908, Note_off_c, 1, 52, 0
3, 118912, Note_on_c, 1, 54, 66
3, 119036, Note_off_c, 1, 54, 0
3, 119040, Note_on_c, 1, 55, 66
3, 119420, Note_off_c, 1, 55, 0
3, 119808, Note_on_c, 1, 38, 72
3, 119932, Note_off_c, 1, 38, 0
3, 119936, Note_on_c, 1, 42, 70
3, 120060, Note_off_c, 1, 42, 0
3, 120064, Note_on_c, 1, 45, 67
3, 120188, Note_off_c, 1, 45, 0
3, 120192, Note_on_c, 1, 50, 66
3, 120316, Note_off_c, 1, 50, 0
3, 120320, Note_on_c, 1, 54, 66
3, 120444, Note_off_c, 1, 54, 0
3, 120448, Note_on_c, 1, 52, 66
3, 120572, Note_off_c, 1, 52, 0
3, 120576, Note_on_c, 1, 51, 66
3, 120700, Note_off_c, 1, 51, 0
3, 120704, Note_on_c, 1, 49, 66
3, 120828, Note_off_c, 1, 49, 0
3, 120832, Note_on_c, 1, 51, 66
3, 120956, Note_off_c, 1, 51, 0
3, 120960, Note_on_c, 1, 47, 66
3, 121084, Note_off_c, 1, 47, 0
3, 121088, Note_on_c, 1, 49, 66
3, 121212, Note_off_c, 1, 49, 0
3, 121216, Note_on_c, 1, 51, 66
3, 121340, Note_off_c, 1, 51, 0
3, 121344, Note_on_c, 1, 52, 66
3, 121468, Note_off_c, 1, 52, 0
3, 121472, Note_on_c, 1, 51, 66
3, 121596, Note_off_c, 1, 51, 0
3, 121600, Note_on_c, 1, 52, 66
3, 121724, Note_off_c, 1, 52, 0
3, 121728, Note_on_c, 1, 45, 66
3, 121852, Note_off_c, 1, 45, 0
3, 121856, Note_on_c, 1, 47, 66
3, 121980, Note_off_c, 1, 47, 0
3, 121984, Note_on_c, 1, 49, 66
3, 122108, Note_off_c, 1, 49, 0
3, 122112, Note_on_c, 1, 50, 66
3, 122236, Note_off_c, 1, 50, 0
3, 122240, Note_on_c, 1, 49, 66
3, 122364, Note_off_c, 1, 49, 0
3, 122368, Note_on_c, 1, 50, 66
3, 122492, Note_off_c, 1, 50, 0
3, 122496, Note_on_c, 1, 47, 66
3, 122620, Note_off_c, 1, 47, 0
3, 122624, Note_on_c, 1, 46, 66
3, 122748, Note_off_c, 1, 46, 0
3, 122752, Note_on_c, 1, 47, 66
3, 122876, Note_off_c, 1, 47, 0
3, 122880, Note_on_c, 1, 43, 66
3, 123004, Note_off_c, 1, 43, 0
3, 123008, Note_on_c, 1, 42, 66
3, 123132, Note_off_c, 1, 42, 0
3, 123136, Note_on_c, 1, 43, 66
3, 123260, Note_off_c, 1, 43, 0
3, 123264, Note_on_c, 1, 40, 66
3, 123388, Note_off_c, 1, 40, 0
3, 123392, Note_on_c, 1, 42, 66
3, 123516, Note_off_c, 1, 42, 0
3, 123520, Note_on_c, 1, 43, 66
3, 123644, Note_off_c, 1, 43, 0
3, 123648, Note_on_c, 1, 45, 66
3, 123772, Note_off_c, 1, 45, 0
3, 123776, Note_on_c, 1, 44, 66
3, 123900, Note_off_c, 1, 44, 0
3, 123904, Note_on_c, 1, 45, 67
3, 124028, Note_off_c, 1, 45, 0
3, 124032, Note_on_c, 1, 33, 75
3, 124156, Note_off_c, 1, 33, 0
3, 124160, Note_on_c, 1, 32, 78
3, 124284, Note_off_c, 1, 32, 0
3, 124288, Note_on_c, 1, 33, 75
3, 124412, Note_off_c, 1, 33, 0
3, 124416, Note_on_c, 1, 38, 72
3, 124540, Note_off_c, 1, 38, 0
3, 124544, Note_on_c, 1, 42, 70
3, 124668, Note_off_c, 1, 42, 0
3, 124672, Note_on_c, 1, 45, 68
3, 124796, Note_off_c, 1, 45, 0
3, 124800, Note_on_c, 1, 50, 67
3, 124924, Note_off_c, 1, 50, 0
3, 124928, Note_on_c, 1, 54, 66
3, 125052, Note_off_c, 1, 54, 0
3, 125056, Note_on_c, 1, 57, 66
3, 125180, Note_off_c, 1, 57, 0
3, 125184, Note_on_c, 1, 62, 66
3, 125564, Note_off_c, 1, 62, 0
3, 125952, Note_on_c, 1, 49, 66
3, 127484, Note_off_c, 1, 49, 0
3, 127488, Note_on_c, 1, 50, 66
3, 129020, Note_off_c, 1, 50, 0
3, 129024, Note_on_c, 1, 49, 66
3, 130556, Note_off_c, 1, 49, 0
3, 130560, Note_on_c, 1, 48, 66
3, 132092, Note_off_c, 1, 48, 0
3, 132096, Note_on_c, 1, 47, 66
3, 132476, Note_off_c, 1, 47, 0
3, 132480, Note_on_c, 1, 52, 66
3, 132860, Note_off_c, 1, 52, 0
3, 132864, Note_on_c, 1, 45, 66
3, 133244, Note_off_c, 1, 45, 0
3, 133248, Note_on_c, 1, 50, 66
3, 133628, Note_off_c, 1, 50, 0
3, 133632, Note_on_c, 1, 43, 66
3, 134012, Note_off_c, 1, 43, 0
3, 134016, Note_on_c, 1, 47, 66
3, 134396, Note_off_c, 1, 47, 0
3, 134400, Note_on_c, 1, 48, 66
3, 134780, Note_off_c, 1, 48, 0
3, 134784, Note_on_c, 1, 50, 66
3, 135164, Note_off_c, 1, 50, 0
3, 135168, Note_on_c, 1, 52, 66
3, 135548, Note_off_c, 1, 52, 0
3, 135552, Note_on_c, 1, 49, 66
3, 135932, Note_off_c, 1, 49, 0
3, 135936, Note_on_c, 1, 50, 66
3, 136700, Note_off_c, 1, 50, 0
3, 136704, Note_on_c, 1, 43, 73
3, 137468, Note_off_c, 1, 43, 0
3, 138240, Note_on_c, 1, 67, 66
3, 138364, Note_off_c, 1, 67, 0
3, 138368, Note_on_c, 1, 66, 67
3, 138492, Note_off_c, 1, 66, 0
3, 138496, Note_on_c, 1, 64, 70
3, 138620, Note_off_c, 1, 64, 0
3, 138624, Note_on_c, 1, 62, 72
3, 138748, Note_off_c, 1, 62, 0
3, 138752, Note_on_c, 1, 61, 74
3, 138876, Note_off_c, 1, 61, 0
3, 138880, Note_on_c, 1, 59, 77
3, 139004, Note_off_c, 1, 59, 0
3, 139008, Note_on_c, 1, 57, 80
3, 139132, Note_off_c, 1, 57, 0
3, 139136, Note_on_c, 1, 55, 82
3, 139260, Note_off_c, 1, 55, 0
3, 139264, Note_on_c, 1, 54, 84
3, 139388, Note_off_c, 1, 54, 0
3, 139392, Note_on_c, 1, 52, 86
3, 139516, Note_off_c, 1, 52, 0
3, 139520, Note_on_c, 1, 50, 87
3, 139644, Note_off_c, 1, 50, 0
3, 139648, Note_on_c, 1, 49, 89
3, 139772, Note_off_c, 1, 49, 0
3, 139776, Note_on_c, 1, 50, 87
3, 139900, Note_off_c, 1, 50, 0
3, 139904, Note_on_c, 1, 54, 85
3, 140028, Note_off_c, 1, 54, 0
3, 140032, Note_on_c, 1, 55, 82
3, 140156, Note_off_c, 1, 55, 0
3, 140160, Note_on_c, 1, 57, 75
3, 140284, Note_off_c, 1, 57, 0
3, 140288, Note_on_c, 1, 59, 72
3, 140412, Note_off_c, 1, 59, 0
3, 140416, Note_on_c, 1, 61, 68
3, 140540, Note_off_c, 1, 61, 0
3, 140544, Note_on_c, 1, 62, 66
3, 140668, Note_off_c, 1, 62, 0
3, 140672, Note_on_c, 1, 57, 66
3, 140796, Note_off_c, 1, 57, 0
3, 140800, Note_on_c, 1, 62, 66
3, 140924, Note_off_c, 1, 62, 0
3, 140928, Note_on_c, 1, 66, 66
3, 141052, Note_off_c, 1, 66, 0
3, 141056, Note_on_c, 1, 62, 66
3, 141180, Note_off_c, 1, 62, 0
3, 141184, Note_on_c, 1, 66, 66
3, 141308, Note_off_c, 1, 66, 0
3, 141312, Note_on_c, 1, 67, 68
3, 141436, Note_off_c, 1, 67, 0
3, 141440, Note_on_c, 1, 66, 72
3, 141564, Note_off_c, 1, 66, 0
3, 141568, Note_on_c, 1, 64, 75
3, 141692, Note_off_c, 1, 64, 0
3, 141696, Note_on_c, 1, 62, 82
3, 141820, Note_off_c, 1, 62, 0
3, 141824, Note_on_c, 1, 61, 85
3, 141948, Note_off_c, 1, 61, 0
3, 141952, Note_on_c, 1, 59, 87
3, 142076, Note_off_c, 1, 59, 0
3, 142080, Note_on_c, 1, 57, 89
3, 142204, Note_off_c, 1, 57, 0
3, 142208, Note_on_c, 1, 55, 89
3, 142332, Note_off_c, 1, 55, 0
3, 142336, Note_on_c, 1, 54, 89
3, 142460, Note_off_c, 1, 54, 0
3, 142464, Note_on_c, 1, 52, 89
3, 142588, Note_off_c, 1, 52, 0
3, 142592, Note_on_c, 1, 50, 89
3, 142716, Note_off_c, 1, 50, 0
3, 142720, Note_on_c, 1, 49, 89
3, 142844, Note_off_c, 1, 49, 0
3, 142848, Note_on_c, 1, 50, 86
3, 142972, Note_off_c, 1, 50, 0
3, 142976, Note_on_c, 1, 52, 83
3, 143100, Note_off_c, 1, 52, 0
3, 143104, Note_on_c, 1, 50, 78
3, 143228, Note_off_c, 1, 50, 0
3, 143232, Note_on_c, 1, 48, 74
3, 143356, Note_off_c, 1, 48, 0
3, 143360, Note_on_c, 1, 47, 71
3, 143484, Note_off_c, 1, 47, 0
3, 143488, Note_on_c, 1, 45, 67
3, 143612, Note_off_c, 1, 45, 0
3, 143616, Note_on_c, 1, 43, 66
3, 143740, Note_off_c, 1, 43, 0
3, 143744, Note_on_c, 1, 42, 67
3, 143868, Note_off_c, 1, 42, 0
3, 143872, Note_on_c, 1, 40, 72
3, 143996, Note_off_c, 1, 40, 0
3, 144000, Note_on_c, 1, 38, 74
3, 144124, Note_off_c, 1, 38, 0
3, 144128, Note_on_c, 1, 40, 72
3, 144252, Note_off_c, 1, 40, 0
3, 144256, Note_on_c, 1, 36, 79
3, 144380, Note_off_c, 1, 36, 0
3, 144384, Note_on_c, 1, 35, 82
3, 144508, Note_off_c, 1, 35, 0
3, 144512, Note_on_c, 1, 38, 79
3, 144636, Note_off_c, 1, 38, 0
3, 144640, Note_on_c, 1, 43, 77
3, 144764, Note_off_c, 1, 43, 0
3, 144768, Note_on_c, 1, 47, 77
3, 144892, Note_off_c, 1, 47, 0
3, 144896, Note_on_c, 1, 50, 78
3, 145020, Note_off_c, 1, 50, 0
3, 145024, Note_on_c, 1, 47, 82
3, 145148, Note_off_c, 1, 47, 0
3, 145152, Note_on_c, 1, 33, 87
3, 145276, Note_off_c, 1, 33, 0
3, 145280, Note_on_c, 1, 36, 90
3, 145404, Note_off_c, 1, 36, 0
3, 145408, Note_on_c, 1, 42, 88
3, 145532, Note_off_c, 1, 42, 0
3, 145536, Note_on_c, 1, 45, 86
3, 145660, Note_off_c, 1, 45, 0
3, 145664, Note_on_c, 1, 48, 88
3, 145788, Note_off_c, 1, 48, 0
3, 145792, Note_on_c, 1, 45, 89
3, 145916, Note_off_c, 1, 45, 0
3, 145920, Note_on_c, 1, 31, 94
3, 146044, Note_off_c, 1, 31, 0
3, 146048, Note_on_c, 1, 35, 90
3, 146176, Note_on_c, 1, 38, 88
3, 146300, Note_off_c, 1, 35, 0
3, 146304, Note_on_c, 1, 43, 87
3, 146428, Note_off_c, 1, 38, 0
3, 146428, Note_off_c, 1, 43, 0
3, 146432, Note_on_c, 1, 47, 87
3, 146556, Note_off_c, 1, 47, 0
3, 146560, Note_on_c, 1, 43, 86
3, 146684, Note_off_c, 1, 43, 0
3, 146688, Note_on_c, 1, 36, 86
3, 146812, Note_off_c, 1, 36, 0
3, 146816, Note_on_c, 1, 40, 85
3, 146940, Note_off_c, 1, 40, 0
3, 146944, Note_on_c, 1, 45, 84
3, 147068, Note_off_c, 1, 45, 0
3, 147072, Note_on_c, 1, 48, 83
3, 147196, Note_off_c, 1, 48, 0
3, 147200, Note_on_c, 1, 52, 82
3, 147324, Note_off_c, 1, 52, 0
3, 147328, Note_on_c, 1, 48, 80
3, 147452, Note_off_c, 1, 48, 0
3, 147456, Note_on_c, 1, 38, 82
3, 147580, Note_off_c, 1, 38, 0
3, 147584, Note_on_c, 1, 43, 79
3, 147708, Note_off_c, 1, 43, 0
3, 147712, Note_on_c, 1, 47, 75
3, 147836, Note_off_c, 1, 47, 0
3, 147840, Note_on_c, 1, 50, 74
3, 147964, Note_off_c, 1, 50, 0
3, 147968, Note_on_c, 1, 49, 73
3, 148092, Note_off_c, 1, 49, 0
3, 148096, Note_on_c, 1, 50, 72
3, 148220, Note_off_c, 1, 50, 0
3, 148224, Note_on_c, 1, 38, 75
3, 148348, Note_off_c, 1, 38, 0
3, 148352, Note_on_c, 1, 42, 73
3, 148476, Note_off_c, 1, 42, 0
3, 148480, Note_on_c, 1, 45, 71
3, 148604, Note_off_c, 1, 45, 0
3, 148608, Note_on_c, 1, 50, 67
3, 148732, Note_off_c, 1, 50, 0
3, 148736, Note_on_c, 1, 49, 66
3, 148860, Note_off_c, 1, 49, 0
3, 148864, Note_on_c, 1, 50, 65
3, 148988, Note_off_c, 1, 50, 0
3, 148992, Note_on_c, 1, 43, 66
3, 149116, Note_off_c, 1, 43, 0
3, 149120, Note_on_c, 1, 47, 66
3, 149244, Note_off_c, 1, 47, 0
3, 149248, Note_on_c, 1, 48, 66
3, 149372, Note_off_c, 1, 48, 0
3, 149376, Note_on_c, 1, 50, 66
3, 149500, Note_off_c, 1, 50, 0
3, 149504, Note_on_c, 1, 52, 66
3, 149628, Note_off_c, 1, 52, 0
3, 149632, Note_on_c, 1, 54, 66
3, 149756, Note_off_c, 1, 54, 0
3, 149760, Note_on_c, 1, 55, 60
3, 150140, Note_off_c, 1, 55, 0
3, 162816, Note_on_c, 1, 55, 60
3, 162908, Note_off_c, 1, 55, 0
3, 162912, Note_on_c, 1, 62, 60
3, 163004, Note_off_c, 1, 62, 0
3, 163008, Note_on_c, 1, 59, 60
3, 163100, Note_off_c, 1, 59, 0
3, 163104, Note_on_c, 1, 62, 60
3, 163196, Note_off_c, 1, 62, 0
3, 163200, Note_on_c, 1, 55, 60
3, 163292, Note_off_c, 1, 55, 0
3, 163296, Note_on_c, 1, 62, 60
3, 163388, Note_off_c, 1, 62, 0
3, 163392, Note_on_c, 1, 59, 60
3, 163484, Note_off_c, 1, 59, 0
3, 163488, Note_on_c, 1, 62, 60
3, 163580, Note_off_c, 1, 62, 0
3, 163584, Note_on_c, 1, 55, 60
3, 163676, Note_off_c, 1, 55, 0
3, 163680, Note_on_c, 1, 62, 60
3, 163772, Note_off_c, 1, 62, 0
3, 163776, Note_on_c, 1, 59, 60
3, 163868, Note_off_c, 1, 59, 0
3, 163872, Note_on_c, 1, 62, 60
3, 163964, Note_off_c, 1, 62, 0
3, 163968, Note_on_c, 1, 55, 60
3, 164060, Note_off_c, 1, 55, 0
3, 164064, Note_on_c, 1, 62, 60
3, 164156, Note_off_c, 1, 62, 0
3, 164160, Note_on_c, 1, 59, 60
3, 164252, Note_off_c, 1, 59, 0
3, 164256, Note_on_c, 1, 62, 60
3, 164348, Note_off_c, 1, 62, 0
3, 164352, Note_on_c, 1, 57, 60
3, 164444, Note_off_c, 1, 57, 0
3, 164448, Note_on_c, 1, 62, 60
3, 164540, Note_off_c, 1, 62, 0
3, 164544, Note_on_c, 1, 60, 60
3, 164636, Note_off_c, 1, 60, 0
3, 164640, Note_on_c, 1, 62, 60
3, 164732, Note_off_c, 1, 62, 0
3, 164736, Note_on_c, 1, 57, 60
3, 164828, Note_off_c, 1, 57, 0
3, 164832, Note_on_c, 1, 62, 60
3, 164924, Note_off_c, 1, 62, 0
3, 164928, Note_on_c, 1, 60, 60
3, 165020, Note_off_c, 1, 60, 0
3, 165024, Note_on_c, 1, 62, 60
3, 165116, Note_off_c, 1, 62, 0
3, 165120, Note_on_c, 1, 57, 60
3, 165212, Note_off_c, 1, 57, 0
3, 165216, Note_on_c, 1, 62, 60
3, 165308, Note_off_c, 1, 62, 0
3, 165312, Note_on_c, 1, 60, 60
3, 165404, Note_off_c, 1, 60, 0
3, 165408, Note_on_c, 1, 62, 60
3, 165500, Note_off_c, 1, 62, 0
3, 165504, Note_on_c, 1, 55, 60
3, 165596, Note_off_c, 1, 55, 0
3, 165600, Note_on_c, 1, 62, 60
3, 165692, Note_off_c, 1, 62, 0
3, 165696, Note_on_c, 1, 59, 60
3, 165788, Note_off_c, 1, 59, 0
3, 165792, Note_on_c, 1, 62, 60
3, 165884, Note_off_c, 1, 62, 0
3, 165888, Note_on_c, 1, 50, 60
3, 165980, Note_off_c, 1, 50, 0
3, 165984, Note_on_c, 1, 62, 60
3, 166076, Note_off_c, 1, 62, 0
3, 166080, Note_on_c, 1, 57, 60
3, 166172, Note_off_c, 1, 57, 0
3, 166176, Note_on_c, 1, 62, 60
3, 166268, Note_off_c, 1, 62, 0
3, 166272, Note_on_c, 1, 50, 60
3, 166364, Note_off_c, 1, 50, 0
3, 166368, Note_on_c, 1, 62, 60
3, 166460, Note_off_c, 1, 62, 0
3, 166464, Note_on_c, 1, 57, 60
3, 166556, Note_off_c, 1, 57, 0
3, 166560, Note_on_c, 1, 62, 60
3, 166652, Note_off_c, 1, 62, 0
3, 166656, Note_on_c, 1, 54, 60
3, 166748, Note_off_c, 1, 54, 0
3, 166752, Note_on_c, 1, 62, 60
3, 166844, Note_off_c, 1, 62, 0
3, 166848, Note_on_c, 1, 57, 60
3, 166940, Note_off_c, 1, 57, 0
3, 166944, Note_on_c, 1, 62, 60
3, 167036, Note_off_c, 1, 62, 0
3, 167040, Note_on_c, 1, 54, 60
3, 167132, Note_off_c, 1, 54, 0
3, 167136, Note_on_c, 1, 62, 60
3, 167228, Note_off_c, 1, 62, 0
3, 167232, Note_on_c, 1, 57, 60
3, 167324, Note_off_c, 1, 57, 0
3, 167328, Note_on_c, 1, 62, 60
3, 167420, Note_off_c, 1, 62, 0
3, 167424, Note_on_c, 1, 55, 60
3, 167516, Note_off_c, 1, 55, 0
3, 167520, Note_on_c, 1, 62, 60
3, 167612, Note_off_c, 1, 62, 0
3, 167616, Note_on_c, 1, 59, 60
3, 167708, Note_off_c, 1, 59, 0
3, 167712, Note_on_c, 1, 62, 60
3, 167804, Note_off_c, 1, 62, 0
3, 167808, Note_on_c, 1, 55, 60
3, 167900, Note_off_c, 1, 55, 0
3, 167904, Note_on_c, 1, 62, 60
3, 167996, Note_off_c, 1, 62, 0
3, 168000, Note_on_c, 1, 59, 60
3, 168092, Note_off_c, 1, 59, 0
3, 168096, Note_on_c, 1, 62, 60
3, 168188, Note_off_c, 1, 62, 0
3, 168192, Note_on_c, 1, 55, 60
3, 168284, Note_off_c, 1, 55, 0
3, 168288, Note_on_c, 1, 62, 60
3, 168380, Note_off_c, 1, 62, 0
3, 168384, Note_on_c, 1, 59, 60
3, 168476, Note_off_c, 1, 59, 0
3, 168480, Note_on_c, 1, 62, 60
3, 168572, Note_off_c, 1, 62, 0
3, 168576, Note_on_c, 1, 55, 60
3, 168668, Note_off_c, 1, 55, 0
3, 168672, Note_on_c, 1, 62, 60
3, 168764, Note_off_c, 1, 62, 0
3, 168768, Note_on_c, 1, 59, 60
3, 168860, Note_off_c, 1, 59, 0
3, 168864, Note_on_c, 1, 62, 60
3, 168956, Note_off_c, 1, 62, 0
3, 168960, Note_on_c, 1, 54, 60
3, 169052, Note_off_c, 1, 54, 0
3, 169056, Note_on_c, 1, 62, 60
3, 169148, Note_off_c, 1, 62, 0
3, 169152, Note_on_c, 1, 57, 60
3, 169244, Note_off_c, 1, 57, 0
3, 169248, Note_on_c, 1, 62, 60
3, 169340, Note_off_c, 1, 62, 0
3, 169344, Note_on_c, 1, 54, 60
3, 169436, Note_off_c, 1, 54, 0
3, 169440, Note_on_c, 1, 62, 60
3, 169532, Note_off_c, 1, 62, 0
3, 169536, Note_on_c, 1, 57, 60
3, 169628, Note_off_c, 1, 57, 0
3, 169632, Note_on_c, 1, 62, 60
3, 169724, Note_off_c, 1, 62, 0
3, 169728, Note_on_c, 1, 54, 60
3, 169820, Note_off_c, 1, 54, 0
3, 169824, Note_on_c, 1, 63, 60
3, 169916, Note_off_c, 1, 63, 0
3, 169920, Note_on_c, 1, 59, 60
3, 170012, Note_off_c, 1, 59, 0
3, 170016, Note_on_c, 1, 63, 60
3, 170108, Note_off_c, 1, 63, 0
3, 170112, Note_on_c, 1, 54, 60
3, 170204, Note_off_c, 1, 54, 0
3, 170208, Note_on_c, 1, 63, 60
3, 170300, Note_off_c, 1, 63, 0
3, 170304, Note_on_c, 1, 59, 60
3, 170396, Note_off_c, 1, 59, 0
3, 170400, Note_on_c, 1, 63, 60
3, 170492, Note_off_c, 1, 63, 0
3, 170496, Note_on_c, 1, 52, 60
3, 170588, Note_off_c, 1, 52, 0
3, 170592, Note_on_c, 1, 62, 60
3, 170684, Note_off_c, 1, 62, 0
3, 170688, Note_on_c, 1, 59, 60
3, 170780, Note_off_c, 1, 59, 0
3, 170784, Note_on_c, 1, 62, 60
3, 170876, Note_off_c, 1, 62, 0
3, 170880, Note_on_c, 1, 57, 60
3, 170972, Note_off_c, 1, 57, 0
3, 170976, Note_on_c, 1, 64, 60
3, 171068, Note_off_c, 1, 64, 0
3, 171072, Note_on_c, 1, 61, 60
3, 171164, Note_off_c, 1, 61, 0
3, 171168, Note_on_c, 1, 64, 60
3, 171260, Note_off_c, 1, 64, 0
3, 171264, Note_on_c, 1, 58, 60
3, 171356, Note_off_c, 1, 58, 0
3, 171360, Note_on_c, 1, 64, 60
3, 171452, Note_off_c, 1, 64, 0
3, 171456, Note_on_c, 1, 61, 60
3, 171548, Note_off_c, 1, 61, 0
3, 171552, Note_on_c, 1, 64, 60
3, 171644, Note_off_c, 1, 64, 0
3, 171648, Note_on_c, 1, 59, 60
3, 171740, Note_off_c, 1, 59, 0
3, 171744, Note_on_c, 1, 62, 60
3, 171836, Note_off_c, 1, 62, 0
3, 171840, Note_on_c, 1, 61, 60
3, 171932, Note_off_c, 1, 61, 0
3, 171936, Note_on_c, 1, 62, 60
3, 172028, Note_off_c, 1, 62, 0
3, 172032, Note_on_c, 1, 59, 63
3, 172032, Note_on_c, 1, 55, 63
3, 172412, Note_off_c, 1, 59, 0
3, 172412, Note_off_c, 1, 55, 0
3, 173184, Note_on_c, 1, 67, 67
3, 173184, Note_on_c, 1, 57, 67
3, 173564, Note_off_c, 1, 67, 0
3, 173564, Note_off_c, 1, 57, 0
3, 173952, Note_on_c, 1, 62, 67
3, 174332, Note_off_c, 1, 62, 0
3, 174336, Note_on_c, 1, 50, 67
3, 174716, Note_off_c, 1, 50, 0
3, 211968, Note_on_c, 1, 55, 73
3, 212352, Note_on_c, 1, 62, 77
3, 212732, Note_off_c, 1, 55, 0
3, 212736, Note_on_c, 1, 58, 80
3, 213116, Note_off_c, 1, 62, 0
3, 213120, Note_on_c, 1, 62, 84
3, 213500, Note_off_c, 1, 58, 0
3, 213504, Note_on_c, 1, 57, 88
3, 213884, Note_off_c, 1, 62, 0
3, 213888, Note_on_c, 1, 60, 88
3, 214268, Note_off_c, 1, 57, 0
3, 214272, Note_on_c, 1, 55, 88
3, 214652, Note_off_c, 1, 60, 0
3, 214656, Note_on_c, 1, 60, 88
3, 215036, Note_off_c, 1, 55, 0
3, 215040, Note_on_c, 1, 54, 88
3, 215040, Note_on_c, 1, 60, 88
3, 215420, Note_off_c, 1, 60, 0
3, 215420, Note_off_c, 1, 60, 0
3, 215424, Note_on_c, 1, 57, 88
3, 215804, Note_off_c, 1, 54, 0
3, 215808, Note_on_c, 1, 50, 88
3, 216188, Note_off_c, 1, 57, 0
3, 216192, Note_on_c, 1, 54, 82
3, 216572, Note_off_c, 1, 50, 0
3, 216572, Note_off_c, 1, 54, 0
3, 216960, Note_on_c, 1, 55, 67
3, 217340, Note_off_c, 1, 55, 0
3, 217344, Note_on_c, 1, 43, 82
3, 217724, Note_off_c, 1, 43, 0
3, 223104, Note_on_c, 1, 62, 71
3, 223484, Note_off_c, 1, 62, 0
3, 223488, Note_on_c, 1, 50, 60
3, 223868, Note_off_c, 1, 50, 0
3, 236544, Note_on_c, 1, 49, 60
3, 236928, Note_on_c, 1, 52, 60
3, 237308, Note_off_c, 1, 52, 0
3, 237312, Note_on_c, 1, 57, 60
3, 237692, Note_off_c, 1, 49, 0
3, 237696, Note_on_c, 1, 49, 60
3, 238076, Note_off_c, 1, 49, 0
3, 238080, Note_on_c, 1, 50, 60
3, 238460, Note_off_c, 1, 57, 0
3, 238464, Note_on_c, 1, 52, 60
3, 238844, Note_off_c, 1, 52, 0
3, 238848, Note_on_c, 1, 53, 88
3, 239228, Note_off_c, 1, 50, 0
3, 239232, Note_on_c, 1, 50, 88
3, 239612, Note_off_c, 1, 50, 0
3, 239616, Note_on_c, 1, 49, 88
3, 239996, Note_off_c, 1, 53, 64
3, 239996, Note_on_c, 1, 52, 88
3, 240376, Note_off_c, 1, 52, 0
3, 240384, Note_on_c, 1, 57, 60
3, 240764, Note_off_c, 1, 49, 0
3, 240768, Note_on_c, 1, 49, 60
3, 241148, Note_off_c, 1, 49, 0
3, 241152, Note_on_c, 1, 50, 60
3, 241532, Note_off_c, 1, 57, 0
3, 241536, Note_on_c, 1, 54, 60
3, 241916, Note_off_c, 1, 54, 0
3, 241920, Note_on_c, 1, 58, 88
3, 242300, Note_off_c, 1, 50, 0
3, 242304, Note_on_c, 1, 55, 88
3, 242684, Note_off_c, 1, 55, 0
3, 242688, Note_on_c, 1, 54, 88
3, 243068, Note_off_c, 1, 58, 0
3, 243072, Note_on_c, 1, 57, 88
3, 243452, Note_off_c, 1, 57, 0
3, 243456, Note_on_c, 1, 62, 60
3, 243836, Note_off_c, 1, 54, 0
3, 243840, Note_on_c, 1, 54, 60
3, 244220, Note_off_c, 1, 54, 0
3, 244224, Note_on_c, 1, 55, 58
3, 244604, Note_off_c, 1, 62, 0
3, 244604, Note_off_c, 1, 55, 0
3, 244608, Note_on_c, 1, 59, 58
3, 244608, Note_on_c, 1, 50, 58
3, 244988, Note_off_c, 1, 59, 0
3, 244988, Note_off_c, 1, 50, 0
3, 244992, Note_on_c, 1, 60, 67
3, 244992, Note_on_c, 1, 51, 67
3, 245372, Note_off_c, 1, 60, 0
3, 245372, Note_off_c, 1, 51, 0
3, 245376, Note_on_c, 1, 61, 67
3, 245376, Note_on_c, 1, 52, 67
3, 245756, Note_off_c, 1, 61, 0
3, 245756, Note_off_c, 1, 52, 0
3, 245760, Note_on_c, 1, 62, 67
3, 246140, Note_off_c, 1, 62, 0
3, 246144, Note_on_c, 1, 58, 83
3, 246524, Note_off_c, 1, 58, 0
3, 246528, Note_on_c, 1, 57, 79
3, 246908, Note_off_c, 1, 57, 0
3, 246912, Note_on_c, 1, 60, 77
3, 247292, Note_off_c, 1, 60, 0
3, 247680, Note_on_c, 1, 58, 73
3, 247680, Note_on_c, 1, 55, 73
3, 248060, Note_off_c, 1, 58, 0
3, 248060, Note_off_c, 1, 55, 0
3, 248064, Note_on_c, 1, 43, 68
3, 248444, Note_off_c, 1, 43, 0
3, 270336, Note_on_c, 1, 59, 82
3, 270336, Note_on_c, 1, 55, 82
3, 271100, Note_off_c, 1, 59, 0
3, 271100, Note_off_c, 1, 55, 0
3, 271488, Note_on_c, 1, 57, 82
3, 271488, Note_on_c, 1, 67, 82
3, 271868, Note_off_c, 1, 57, 0
3, 271868, Note_off_c, 1, 67, 0
3, 272256, Note_on_c, 1, 66, 60
3, 272256, Note_on_c, 1, 62, 60
3, 272636, Note_off_c, 1, 66, 0
3, 272636, Note_off_c, 1, 62, 0
3, 272640, Note_on_c, 1, 50, 60
3, 273020, Note_off_c, 1, 50, 0
3, 285696, Note_on_c, 1, 67, 60
3, 285696, Note_on_c, 1, 61, 60
3, 285696, Note_on_c, 1, 57, 60
3, 287228, Note_off_c, 1, 67, 0
3, 287228, Note_off_c, 1, 61, 0
3, 287228, Note_off_c, 1, 57, 0
3, 287232, Note_on_c, 1, 66, 60
3, 287232, Note_on_c, 1, 62, 60
3, 287996, Note_off_c, 1, 66, 0
3, 287996, Note_off_c, 1, 62, 0
3, 288768, Note_on_c, 1, 67, 60
3, 288768, Note_on_c, 1, 61, 60
3, 288768, Note_on_c, 1, 57, 60
3, 290300, Note_off_c, 1, 67, 0
3, 290300, Note_off_c, 1, 61, 0
3, 290300, Note_off_c, 1, 57, 0
3, 290304, Note_on_c, 1, 66, 60
3, 290304, Note_on_c, 1, 62, 60
3, 290304, Note_on_c, 1, 60, 60
3, 291068, Note_off_c, 1, 66, 0
3, 291068, Note_off_c, 1, 62, 0
3, 291068, Note_off_c, 1, 60, 0
3, 291456, Note_on_c, 1, 60, 60
3, 291836, Note_off_c, 1, 60, 0
3, 291840, Note_on_c, 1, 59, 63
3, 292604, Note_off_c, 1, 59, 0
3, 292608, Note_on_c, 1, 57, 75
3, 293372, Note_off_c, 1, 57, 0
3, 293376, Note_on_c, 1, 55, 59
3, 294140, Note_off_c, 1, 55, 0
3, 294144, Note_on_c, 1, 54, 59
3, 294908, Note_off_c, 1, 54, 0
3, 294912, Note_on_c, 1, 52, 59
3, 295292, Note_off_c, 1, 52, 0
3, 295296, Note_on_c, 1, 60, 59
3, 295296, Note_on_c, 1, 48, 59
3, 295676, Note_off_c, 1, 60, 0
3, 295676, Note_off_c, 1, 48, 0
3, 295680, Note_on_c, 1, 59, 85
3, 295680, Note_on_c, 1, 50, 85
3, 296060, Note_off_c, 1, 59, 0
3, 296064, Note_on_c, 1, 54, 79
3, 296444, Note_off_c, 1, 50, 0
3, 296444, Note_off_c, 1, 54, 0
3, 305024, Note_on_c, 1, 55, 60
3, 305148, Note_off_c, 1, 55, 0
3, 305152, Note_on_c, 1, 56, 60
3, 305276, Note_off_c, 1, 56, 0
3, 305280, Note_on_c, 1, 57, 60
3, 305404, Note_off_c, 1, 57, 0
3, 305408, Note_on_c, 1, 58, 60
3, 305532, Note_off_c, 1, 58, 0
3, 305536, Note_on_c, 1, 59, 60
3, 305660, Note_off_c, 1, 59, 0
3, 305664, Note_on_c, 1, 60, 60
3, 305788, Note_off_c, 1, 60, 0
3, 305792, Note_on_c, 1, 54, 60
3, 305916, Note_off_c, 1, 54, 0
3, 305920, Note_on_c, 1, 55, 60
3, 306044, Note_off_c, 1, 55, 0
3, 306048, Note_on_c, 1, 56, 60
3, 306172, Note_off_c, 1, 56, 0
3, 306176, Note_on_c, 1, 57, 60
3, 306300, Note_off_c, 1, 57, 0
3, 306304, Note_on_c, 1, 58, 60
3, 306428, Note_off_c, 1, 58, 0
3, 306432, Note_on_c, 1, 59, 60
3, 306556, Note_off_c, 1, 59, 0
3, 306560, Note_on_c, 1, 52, 60
3, 306684, Note_off_c, 1, 52, 0
3, 306688, Note_on_c, 1, 53, 60
3, 306812, Note_off_c, 1, 53, 0
3, 306816, Note_on_c, 1, 54, 60
3, 306940, Note_off_c, 1, 54, 0
3, 306944, Note_on_c, 1, 55, 60
3, 307068, Note_off_c, 1, 55, 0
3, 307072, Note_on_c, 1, 56, 60
3, 307196, Note_off_c, 1, 56, 0
3, 307200, Note_on_c, 1, 57, 60
3, 307200, Note_on_c, 1, 54, 60
3, 307964, Note_off_c, 1, 57, 0
3, 307968, Note_on_c, 1, 62, 60
3, 308732, Note_off_c, 1, 54, 0
3, 308732, Note_off_c, 1, 62, 0
3, 308736, Note_on_c, 1, 62, 60
3, 308736, Note_on_c, 1, 52, 60
3, 309500, Note_off_c, 1, 62, 0
3, 309504, Note_on_c, 1, 61, 60
3, 310268, Note_off_c, 1, 52, 0
3, 310268, Note_off_c, 1, 61, 0
3, 310272, Note_on_c, 1, 50, 58
3, 311804, Note_off_c, 1, 50, 0
3, 311808, Note_on_c, 1, 38, 51
3, 312188, Note_off_c, 1, 38, 0
3, 331008, Note_on_c, 1, 43, 51
3, 331100, Note_off_c, 1, 43, 0
3, 331104, Note_on_c, 1, 55, 51
3, 331196, Note_off_c, 1, 55, 0
3, 331200, Note_on_c, 1, 43, 51
3, 331292, Note_off_c, 1, 43, 0
3, 331296, Note_on_c, 1, 55, 51
3, 331388, Note_off_c, 1, 55, 0
3, 331392, Note_on_c, 1, 43, 51
3, 331484, Note_off_c, 1, 43, 0
3, 331488, Note_on_c, 1, 55, 51
3, 331580, Note_off_c, 1, 55, 0
3, 331584, Note_on_c, 1, 43, 51
3, 331676, Note_off_c, 1, 43, 0
3, 331680, Note_on_c, 1, 55, 51
3, 331772, Note_off_c, 1, 55, 0
3, 331776, Note_on_c, 1, 43, 51
3, 331868, Note_off_c, 1, 43, 0
3, 331872, Note_on_c, 1, 55, 51
3, 331964, Note_off_c, 1, 55, 0
3, 331968, Note_on_c, 1, 43, 51
3, 332060, Note_off_c, 1, 43, 0
3, 332064, Note_on_c, 1, 55, 51
3, 332156, Note_off_c, 1, 55, 0
3, 332160, Note_on_c, 1, 43, 51
3, 332252, Note_off_c, 1, 43, 0
3, 332256, Note_on_c, 1, 55, 51
3, 332348, Note_off_c, 1, 55, 0
3, 332352, Note_on_c, 1, 43, 51
3, 332444, Note_off_c, 1, 43, 0
3, 332448, Note_on_c, 1, 55, 51
3, 332540, Note_off_c, 1, 55, 0
3, 332544, Note_on_c, 1, 43, 51
3, 332636, Note_off_c, 1, 43, 0
3, 332640, Note_on_c, 1, 55, 51
3, 332732, Note_off_c, 1, 55, 0
3, 332736, Note_on_c, 1, 43, 51
3, 332828, Note_off_c, 1, 43, 0
3, 332832, Note_on_c, 1, 55, 51
3, 332924, Note_off_c, 1, 55, 0
3, 332928, Note_on_c, 1, 43, 51
3, 333020, Note_off_c, 1, 43, 0
3, 333024, Note_on_c, 1, 55, 51
3, 333116, Note_off_c, 1, 55, 0
3, 333120, Note_on_c, 1, 43, 51
3, 333212, Note_off_c, 1, 43, 0
3, 333216, Note_on_c, 1, 55, 51
3, 333308, Note_off_c, 1, 55, 0
3, 333312, Note_on_c, 1, 43, 51
3, 333404, Note_off_c, 1, 43, 0
3, 333408, Note_on_c, 1, 55, 51
3, 333500, Note_off_c, 1, 55, 0
3, 333504, Note_on_c, 1, 43, 51
3, 333596, Note_off_c, 1, 43, 0
3, 333600, Note_on_c, 1, 55, 51
3, 333692, Note_off_c, 1, 55, 0
3, 333696, Note_on_c, 1, 43, 51
3, 333788, Note_off_c, 1, 43, 0
3, 333792, Note_on_c, 1, 55, 51
3, 333884, Note_off_c, 1, 55, 0
3, 333888, Note_on_c, 1, 43, 51
3, 333980, Note_off_c, 1, 43, 0
3, 333984, Note_on_c, 1, 55, 51
3, 334076, Note_off_c, 1, 55, 0
3, 334080, Note_on_c, 1, 43, 51
3, 334172, Note_off_c, 1, 43, 0
3, 334176, Note_on_c, 1, 55, 51
3, 334268, Note_off_c, 1, 55, 0
3, 334272, Note_on_c, 1, 43, 51
3, 334364, Note_off_c, 1, 43, 0
3, 334368, Note_on_c, 1, 55, 51
3, 334460, Note_off_c, 1, 55, 0
3, 334464, Note_on_c, 1, 43, 51
3, 334556, Note_off_c, 1, 43, 0
3, 334560, Note_on_c, 1, 55, 51
3, 334652, Note_off_c, 1, 55, 0
3, 334656, Note_on_c, 1, 43, 51
3, 334748, Note_off_c, 1, 43, 0
3, 334752, Note_on_c, 1, 55, 51
3, 334844, Note_off_c, 1, 55, 0
3, 334848, Note_on_c, 1, 43, 51
3, 334940, Note_off_c, 1, 43, 0
3, 334944, Note_on_c, 1, 55, 51
3, 335036, Note_off_c, 1, 55, 0
3, 335040, Note_on_c, 1, 43, 51
3, 335132, Note_off_c, 1, 43, 0
3, 335136, Note_on_c, 1, 55, 51
3, 335228, Note_off_c, 1, 55, 0
3, 335232, Note_on_c, 1, 43, 51
3, 335324, Note_off_c, 1, 43, 0
3, 335328, Note_on_c, 1, 55, 51
3, 335420, Note_off_c, 1, 55, 0
3, 335424, Note_on_c, 1, 43, 51
3, 335516, Note_off_c, 1, 43, 0
3, 335520, Note_on_c, 1, 55, 51
3, 335612, Note_off_c, 1, 55, 0
3, 335616, Note_on_c, 1, 43, 51
3, 335708, Note_off_c, 1, 43, 0
3, 335712, Note_on_c, 1, 55, 51
3, 335804, Note_off_c, 1, 55, 0
3, 335808, Note_on_c, 1, 43, 51
3, 335900, Note_off_c, 1, 43, 0
3, 335904, Note_on_c, 1, 55, 51
3, 335996, Note_off_c, 1, 55, 0
3, 336000, Note_on_c, 1, 43, 51
3, 336092, Note_off_c, 1, 43, 0
3, 336096, Note_on_c, 1, 55, 51
3, 336188, Note_off_c, 1, 55, 0
3, 336192, Note_on_c, 1, 43, 51
3, 336284, Note_off_c, 1, 43, 0
3, 336288, Note_on_c, 1, 55, 51
3, 336380, Note_off_c, 1, 55, 0
3, 336384, Note_on_c, 1, 43, 51
3, 336476, Note_off_c, 1, 43, 0
3, 336480, Note_on_c, 1, 55, 51
3, 336572, Note_off_c, 1, 55, 0
3, 336576, Note_on_c, 1, 43, 51
3, 336668, Note_off_c, 1, 43, 0
3, 336672, Note_on_c, 1, 55, 51
3, 336764, Note_off_c, 1, 55, 0
3, 336768, Note_on_c, 1, 43, 51
3, 336860, Note_off_c, 1, 43, 0
3, 336864, Note_on_c, 1, 55, 51
3, 336956, Note_off_c, 1, 55, 0
3, 336960, Note_on_c, 1, 43, 51
3, 337052, Note_off_c, 1, 43, 0
3, 337056, Note_on_c, 1, 55, 51
3, 337148, Note_off_c, 1, 55, 0
3, 337152, Note_on_c, 1, 43, 60
3, 337340, Note_off_c, 1, 43, 0
3, 338688, Note_on_c, 1, 59, 60
3, 338780, Note_off_c, 1, 59, 0
3, 338784, Note_on_c, 1, 55, 60
3, 338876, Note_off_c, 1, 55, 0
3, 338880, Note_on_c, 1, 55, 60
3, 338972, Note_off_c, 1, 55, 0
3, 338976, Note_on_c, 1, 55, 60
3, 339068, Note_off_c, 1, 55, 0
3, 339072, Note_on_c, 1, 55, 60
3, 339260, Note_off_c, 1, 55, 0
3, 339456, Note_on_c, 1, 60, 60
3, 339836, Note_off_c, 1, 60, 0
3, 340032, Note_on_c, 1, 62, 60
3, 340124, Note_off_c, 1, 62, 0
3, 340128, Note_on_c, 1, 60, 60
3, 340220, Note_off_c, 1, 60, 0
3, 340224, Note_on_c, 1, 59, 60
3, 340316, Note_off_c, 1, 59, 0
3, 340320, Note_on_c, 1, 55, 60
3, 340412, Note_off_c, 1, 55, 0
3, 340416, Note_on_c, 1, 55, 60
3, 340508, Note_off_c, 1, 55, 0
3, 340512, Note_on_c, 1, 55, 60
3, 340604, Note_off_c, 1, 55, 0
3, 340608, Note_on_c, 1, 55, 60
3, 340796, Note_off_c, 1, 55, 0
3, 341184, Note_on_c, 1, 60, 60
3, 341276, Note_off_c, 1, 60, 0
3, 341280, Note_on_c, 1, 62, 60
3, 341372, Note_off_c, 1, 62, 0
3, 341376, Note_on_c, 1, 64, 60
3, 341464, Note_on_c, 1, 60, 60
3, 341468, Note_off_c, 1, 64, 0
3, 341556, Note_off_c, 1, 60, 0
3, 341568, Note_on_c, 1, 64, 60
3, 341660, Note_off_c, 1, 64, 0
3, 341664, Note_on_c, 1, 60, 60
3, 341756, Note_off_c, 1, 60, 0
3, 341760, Note_on_c, 1, 57, 60
3, 341948, Note_off_c, 1, 57, 0
3, 342720, Note_on_c, 1, 62, 60
3, 342812, Note_off_c, 1, 62, 0
3, 342816, Note_on_c, 1, 64, 60
3, 342908, Note_off_c, 1, 64, 0
3, 342912, Note_on_c, 1, 66, 60
3, 343004, Note_off_c, 1, 66, 0
3, 343008, Note_on_c, 1, 62, 60
3, 343100, Note_off_c, 1, 62, 0
3, 343104, Note_on_c, 1, 66, 60
3, 343196, Note_off_c, 1, 66, 0
3, 343200, Note_on_c, 1, 62, 60
3, 343292, Note_off_c, 1, 62, 0
3, 343296, Note_on_c, 1, 59, 60
3, 343484, Note_off_c, 1, 59, 0
3, 344064, Note_on_c, 1, 64, 60
3, 344064, Note_on_c, 1, 52, 60
3, 344444, Note_off_c, 1, 64, 0
3, 344444, Note_off_c, 1, 52, 0
3, 344448, Note_on_c, 1, 62, 60
3, 344448, Note_on_c, 1, 50, 60
3, 344828, Note_off_c, 1, 62, 0
3, 344828, Note_off_c, 1, 50, 0
3, 344832, Note_on_c, 1, 60, 60
3, 344832, Note_on_c, 1, 48, 60
3, 345212, Note_off_c, 1, 60, 0
3, 345212, Note_off_c, 1, 48, 0
3, 345216, Note_on_c, 1, 61, 60
3, 345216, Note_on_c, 1, 49, 60
3, 345596, Note_off_c, 1, 61, 0
3, 345596, Note_off_c, 1, 49, 0
3, 345600, Note_on_c, 1, 50, 88
3, 345692, Note_off_c, 1, 50, 0
3, 345696, Note_on_c, 1, 62, 88
3, 345788, Note_off_c, 1, 62, 0
3, 345792, Note_on_c, 1, 50, 88
3, 345884, Note_off_c, 1, 50, 0
3, 345888, Note_on_c, 1, 62, 88
3, 345980, Note_off_c, 1, 62, 0
3, 345984, Note_on_c, 1, 50, 88
3, 346076, Note_off_c, 1, 50, 0
3, 346080, Note_on_c, 1, 62, 88
3, 346172, Note_off_c, 1, 62, 0
3, 346176, Note_on_c, 1, 50, 88
3, 346268, Note_off_c, 1, 50, 0
3, 346272, Note_on_c, 1, 62, 88
3, 346364, Note_off_c, 1, 62, 0
3, 346368, Note_on_c, 1, 50, 88
3, 346556, Note_off_c, 1, 50, 0
3, 347328, Note_on_c, 1, 50, 88
3, 347420, Note_off_c, 1, 50, 0
3, 347424, Note_on_c, 1, 62, 88
3, 347516, Note_off_c, 1, 62, 0
3, 347520, Note_on_c, 1, 50, 88
3, 347612, Note_off_c, 1, 50, 0
3, 347616, Note_on_c, 1, 62, 88
3, 347708, Note_off_c, 1, 62, 0
3, 347712, Note_on_c, 1, 50, 88
3, 347804, Note_off_c, 1, 50, 0
3, 347808, Note_on_c, 1, 62, 88
3, 347900, Note_off_c, 1, 62, 0
3, 347904, Note_on_c, 1, 50, 88
3, 348092, Note_off_c, 1, 50, 0
3, 348864, Note_on_c, 1, 50, 88
3, 348956, Note_off_c, 1, 50, 0
3, 348960, Note_on_c, 1, 62, 88
3, 349052, Note_off_c, 1, 62, 0
3, 349056, Note_on_c, 1, 50, 88
3, 349148, Note_off_c, 1, 50, 0
3, 349152, Note_on_c, 1, 62, 88
3, 349244, Note_off_c, 1, 62, 0
3, 349248, Note_on_c, 1, 50, 88
3, 349340, Note_off_c, 1, 50, 0
3, 349344, Note_on_c, 1, 62, 88
3, 349436, Note_off_c, 1, 62, 0
3, 349440, Note_on_c, 1, 50, 88
3, 349532, Note_off_c, 1, 50, 0
3, 349536, Note_on_c, 1, 62, 88
3, 349628, Note_off_c, 1, 62, 0
3, 349632, Note_on_c, 1, 50, 88
3, 349724, Note_off_c, 1, 50, 0
3, 349728, Note_on_c, 1, 62, 88
3, 349820, Note_off_c, 1, 62, 0
3, 349824, Note_on_c, 1, 50, 88
3, 349916, Note_off_c, 1, 50, 0
3, 349920, Note_on_c, 1, 62, 88
3, 350012, Note_off_c, 1, 62, 0
3, 350016, Note_on_c, 1, 50, 88
3, 350108, Note_off_c, 1, 50, 0
3, 350112, Note_on_c, 1, 62, 88
3, 350204, Note_off_c, 1, 62, 0
3, 350208, Note_on_c, 1, 50, 88
3, 350396, Note_off_c, 1, 50, 0
3, 352512, Note_on_c, 1, 51, 60
3, 352512, Note_on_c, 1, 63, 60
3, 353276, Note_off_c, 1, 51, 0
3, 353276, Note_off_c, 1, 63, 0
3, 353280, Note_on_c, 1, 48, 60
3, 353280, Note_on_c, 1, 60, 60
3, 354044, Note_off_c, 1, 48, 0
3, 354044, Note_off_c, 1, 60, 0
3, 354048, Note_on_c, 1, 50, 63
3, 354048, Note_on_c, 1, 38, 63
3, 354812, Note_off_c, 1, 50, 0
3, 354812, Note_off_c, 1, 38, 0
3, 354816, Note_on_c, 1, 43, 77
3, 354816, Note_on_c, 1, 55, 77
3, 355580, Note_off_c, 1, 43, 0
3, 355580, Note_off_c, 1, 55, 0
3, 355584, Note_on_c, 1, 51, 60
3, 355584, Note_on_c, 1, 39, 60
3, 356348, Note_off_c, 1, 51, 0
3, 356348, Note_off_c, 1, 39, 0
3, 356352, Note_on_c, 1, 48, 60
3, 356352, Note_on_c, 1, 36, 60
3, 357116, Note_off_c, 1, 48, 0
3, 357116, Note_off_c, 1, 36, 0
3, 357120, Note_on_c, 1, 50, 63
3, 357120, Note_on_c, 1, 38, 63
3, 357884, Note_off_c, 1, 50, 0
3, 357884, Note_off_c, 1, 38, 0
3, 357888, Note_on_c, 1, 43, 77
3, 357888, Note_on_c, 1, 31, 77
3, 358652, Note_off_c, 1, 43, 0
3, 358652, Note_off_c, 1, 31, 0
3, 358656, Note_on_c, 1, 51, 60
3, 358656, Note_on_c, 1, 39, 60
3, 359420, Note_off_c, 1, 51, 0
3, 359420, Note_off_c, 1, 39, 0
3, 359424, Note_on_c, 1, 48, 60
3, 359424, Note_on_c, 1, 36, 60
3, 360188, Note_off_c, 1, 48, 0
3, 360188, Note_off_c, 1, 36, 0
3, 360192, Note_on_c, 1, 50, 63
3, 360956, Note_off_c, 1, 50, 0
3, 360960, Note_on_c, 1, 43, 85
3, 361148, Note_off_c, 1, 43, 0
3, 361728, Note_on_c, 1, 43, 60
3, 361916, Note_off_c, 1, 43, 0
3, 362496, Note_on_c, 1, 43, 60
3, 362684, Note_off_c, 1, 43, 0
3, 363264, Note_on_c, 1, 43, 60
3, 363452, Note_off_c, 1, 43, 0
3, 364032, Note_on_c, 1, 43, 63
3, 364220, Note_off_c, 1, 43, 0
3, 364800, Note_on_c, 1, 43, 75
3, 364988, Note_off_c, 1, 43, 0
3, 365568, Note_on_c, 1, 43, 88
3, 365756, Note_off_c, 1, 43, 0
3, 366336, Note_on_c, 1, 43, 88
3, 366524, Note_off_c, 1, 43, 0
3, 367104, Note_on_c, 1, 55, 88
3, 367196, Note_off_c, 1, 55, 0
3, 367200, Note_on_c, 1, 59, 88
3, 367292, Note_off_c, 1, 59, 0
3, 367296, Note_on_c, 1, 62, 88
3, 367388, Note_off_c, 1, 62, 0
3, 367392, Note_on_c, 1, 67, 88
3, 367484, Note_off_c, 1, 67, 0
3, 367488, Note_on_c, 1, 54, 88
3, 367580, Note_off_c, 1, 54, 0
3, 367584, Note_on_c, 1, 57, 88
3, 367676, Note_off_c, 1, 57, 0
3, 367680, Note_on_c, 1, 62, 88
3, 367772, Note_off_c, 1, 62, 0
3, 367776, Note_on_c, 1, 66, 88
3, 367868, Note_off_c, 1, 66, 0
3, 367872, Note_on_c, 1, 52, 88
3, 367964, Note_off_c, 1, 52, 0
3, 367968, Note_on_c, 1, 55, 88
3, 368060, Note_off_c, 1, 55, 0
3, 368064, Note_on_c, 1, 59, 88
3, 368156, Note_off_c, 1, 59, 0
3, 368160, Note_on_c, 1, 64, 88
3, 368252, Note_off_c, 1, 64, 0
3, 368256, Note_on_c, 1, 50, 88
3, 368348, Note_off_c, 1, 50, 0
3, 368352, Note_on_c, 1, 54, 88
3, 368444, Note_off_c, 1, 54, 0
3, 368448, Note_on_c, 1, 59, 88
3, 368540, Note_off_c, 1, 59, 0
3, 368544, Note_on_c, 1, 62, 88
3, 368636, Note_off_c, 1, 62, 0
3, 368640, Note_on_c, 1, 48, 88
3, 368732, Note_off_c, 1, 48, 0
3, 368736, Note_on_c, 1, 52, 88
3, 368828, Note_off_c, 1, 52, 0
3, 368832, Note_on_c, 1, 55, 88
3, 368924, Note_off_c, 1, 55, 0
3, 368928, Note_on_c, 1, 60, 88
3, 369020, Note_off_c, 1, 60, 0
3, 369024, Note_on_c, 1, 47, 88
3, 369116, Note_off_c, 1, 47, 0
3, 369120, Note_on_c, 1, 50, 88
3, 369212, Note_off_c, 1, 50, 0
3, 369216, Note_on_c, 1, 55, 88
3, 369308, Note_off_c, 1, 55, 0
3, 369312, Note_on_c, 1, 59, 88
3, 369404, Note_off_c, 1, 59, 0
3, 369408, Note_on_c, 1, 45, 88
3, 369596, Note_off_c, 1, 45, 0
3, 370176, Note_on_c, 1, 60, 88
3, 370176, Note_on_c, 1, 57, 88
3, 370176, Note_on_c, 1, 54, 88
3, 370176, Note_on_c, 1, 50, 88
3, 370940, Note_off_c, 1, 60, 0
3, 370940, Note_off_c, 1, 57, 0
3, 370940, Note_off_c, 1, 54, 0
3, 370940, Note_off_c, 1, 50, 0
3, 371136, Note_on_c, 1, 55, 60
3, 371136, Note_on_c, 1, 50, 60
3, 371136, Note_on_c, 1, 47, 60
3, 371324, Note_off_c, 1, 55, 0
3, 371324, Note_off_c, 1, 50, 0
3, 371324, Note_off_c, 1, 47, 0
3, 371520, Note_on_c, 1, 57, 60
3, 371520, Note_on_c, 1, 52, 60
3, 371520, Note_on_c, 1, 48, 60
3, 371708, Note_off_c, 1, 57, 0
3, 371708, Note_off_c, 1, 52, 0
3, 371708, Note_off_c, 1, 48, 0
3, 371904, Note_on_c, 1, 59, 60
3, 371904, Note_on_c, 1, 55, 60
3, 371904, Note_on_c, 1, 50, 60
3, 372092, Note_off_c, 1, 59, 0
3, 372092, Note_off_c, 1, 55, 0
3, 372092, Note_off_c, 1, 50, 0
3, 372288, Note_on_c, 1, 60, 60
3, 372288, Note_on_c, 1, 54, 60
3, 372288, Note_on_c, 1, 50, 60
3, 372476, Note_off_c, 1, 60, 0
3, 372476, Note_off_c, 1, 54, 0
3, 372476, Note_off_c, 1, 50, 0
3, 372480, Note_on_c, 1, 59, 60
3, 372480, Note_on_c, 1, 55, 60
3, 372668, Note_off_c, 1, 59, 0
3, 372668, Note_off_c, 1, 55, 0
3, 373248, Note_on_c, 1, 55, 51
3, 373436, Note_off_c, 1, 55, 0
3, 374016, Note_on_c, 1, 50, 51
3, 374204, Note_off_c, 1, 50, 0
3, 374784, Note_on_c, 1, 50, 51
3, 374972, Note_off_c, 1, 50, 0
3, 375552, Note_on_c, 1, 43, 51
3, 375740, Note_off_c, 1, 43, 0
3, 376320, Note_on_c, 1, 55, 51
3, 376508, Note_off_c, 1, 55, 0
3, 376704, Note_on_c, 1, 52, 51
3, 376892, Note_off_c, 1, 52, 0
3, 377088, Note_on_c, 1, 57, 54
3, 377276, Note_off_c, 1, 57, 0
3, 377280, Note_on_c, 1, 54, 54
3, 377468, Note_off_c, 1, 54, 0
3, 377472, Note_on_c, 1, 55, 54
3, 377660, Note_off_c, 1, 55, 0
3, 377664, Note_on_c, 1, 52, 54
3, 377852, Note_off_c, 1, 52, 0
3, 377856, Note_on_c, 1, 48, 54
3, 378236, Note_off_c, 1, 48, 0
3, 378240, Note_on_c, 1, 49, 54
3, 378620, Note_off_c, 1, 49, 0
3, 378624, Note_on_c, 1, 50, 54
3, 379004, Note_off_c, 1, 50, 0
3, 379392, Note_on_c, 1, 43, 54
3, 379772, Note_off_c, 1, 43, 0
3, 380160, Note_on_c, 1, 50, 54
3, 380540, Note_off_c, 1, 50, 0
3, 380544, Note_on_c, 1, 55, 54
3, 380924, Note_off_c, 1, 55, 0
3, 380928, Note_on_c, 1, 48, 54
3, 381308, Note_off_c, 1, 48, 0
3, 381312, Note_on_c, 1, 50, 54
3, 381692, Note_off_c, 1, 50, 0
3, 381696, Note_on_c, 1, 43, 54
3, 382076, Note_off_c, 1, 43, 0
3, 382464, Note_on_c, 1, 55, 54
3, 382844, Note_off_c, 1, 55, 0
3, 382848, Note_on_c, 1, 52, 54
3, 383228, Note_off_c, 1, 52, 0
3, 383232, Note_on_c, 1, 57, 54
3, 383420, Note_off_c, 1, 57, 0
3, 383424, Note_on_c, 1, 54, 54
3, 383612, Note_off_c, 1, 54, 0
3, 383616, Note_on_c, 1, 55, 54
3, 383804, Note_off_c, 1, 55, 0
3, 383808, Note_on_c, 1, 52, 54
3, 383996, Note_off_c, 1, 52, 0
3, 384000, Note_on_c, 1, 48, 54
3, 384380, Note_off_c, 1, 48, 0
3, 384384, Note_on_c, 1, 49, 54
3, 384764, Note_off_c, 1, 49, 0
3, 391680, Note_on_c, 1, 51, 67
3, 391680, Note_on_c, 1, 39, 67
3, 392444, Note_off_c, 1, 51, 0
3, 392444, Note_off_c, 1, 39, 0
3, 392448, Note_on_c, 1, 48, 67
3, 392448, Note_on_c, 1, 36, 67
3, 393212, Note_off_c, 1, 48, 0
3, 393212, Note_off_c, 1, 36, 0
3, 393216, Note_on_c, 1, 62, 60
3, 393216, Note_on_c, 1, 38, 60
3, 393216, Note_on_c, 1, 50, 60
3, 393980, Note_off_c, 1, 62, 0
3, 393980, Note_off_c, 1, 38, 0
3, 393980, Note_off_c, 1, 50, 0
3, 393984, Note_on_c, 1, 62, 60
3, 393984, Note_on_c, 1, 55, 60
3, 393984, Note_on_c, 1, 43, 60
3, 393984, Note_on_c, 1, 31, 60
3, 394556, Note_off_c, 1, 62, 0
3, 394556, Note_off_c, 1, 55, 0
3, 394748, Note_off_c, 1, 43, 0
3, 394748, Note_off_c, 1, 31, 0
3, 394752, Note_on_c, 1, 51, 60
3, 394752, Note_on_c, 1, 39, 60
3, 395516, Note_off_c, 1, 51, 0
3, 395516, Note_off_c, 1, 39, 0
3, 395520, Note_on_c, 1, 48, 60
3, 395520, Note_on_c, 1, 36, 60
3, 396284, Note_off_c, 1, 48, 0
3, 396284, Note_off_c, 1, 36, 0
3, 396288, Note_on_c, 1, 62, 60
3, 397052, Note_off_c, 1, 62, 0
3, 397056, Note_on_c, 1, 67, 60
3, 397056, Note_on_c, 1, 55, 60
3, 397628, Note_off_c, 1, 67, 0
3, 397628, Note_off_c, 1, 55, 0
3, 397824, Note_on_c, 1, 63, 67
3, 397824, Note_on_c, 1, 51, 67
3, 398588, Note_off_c, 1, 63, 0
3, 398588, Note_off_c, 1, 51, 0
3, 398592, Note_on_c, 1, 60, 67
3, 398592, Note_on_c, 1, 48, 67
3, 399356, Note_off_c, 1, 60, 0
3, 399356, Note_off_c, 1, 48, 0
3, 399360, Note_on_c, 1, 62, 88
3, 399360, Note_on_c, 1, 50, 88
3, 400124, Note_off_c, 1, 62, 0
3, 400124, Note_off_c, 1, 50, 0
3, 400128, Note_on_c, 1, 55, 88
3, 400128, Note_on_c, 1, 43, 88
3, 400316, Note_off_c, 1, 55, 0
3, 400316, Note_off_c, 1, 43, 0
3, 400896, Note_on_c, 1, 43, 60
3, 400896, Note_on_c, 1, 48, 60
3, 400988, Note_off_c, 1, 48, 0
3, 400992, Note_on_c, 1, 60, 60
3, 401084, Note_off_c, 1, 43, 0
3, 401084, Note_off_c, 1, 60, 0
3, 401088, Note_on_c, 1, 57, 60
3, 401180, Note_off_c, 1, 57, 0
3, 401192, Note_on_c, 1, 60, 60
3, 401280, Note_on_c, 1, 54, 60
3, 401284, Note_off_c, 1, 60, 0
3, 401372, Note_off_c, 1, 54, 0
3, 401376, Note_on_c, 1, 57, 60
3, 401468, Note_off_c, 1, 57, 0
3, 401472, Note_on_c, 1, 48, 60
3, 401564, Note_off_c, 1, 48, 0
3, 401568, Note_on_c, 1, 60, 60
3, 401660, Note_off_c, 1, 60, 0
3, 401664, Note_on_c, 1, 43, 60
3, 401664, Note_on_c, 1, 53, 60
3, 401756, Note_off_c, 1, 53, 0
3, 401760, Note_on_c, 1, 65, 60
3, 401852, Note_off_c, 1, 43, 0
3, 401852, Note_off_c, 1, 65, 0
3, 401856, Note_on_c, 1, 62, 60
3, 401948, Note_off_c, 1, 62, 0
3, 401952, Note_on_c, 1, 65, 60
3, 402044, Note_off_c, 1, 65, 0
3, 402048, Note_on_c, 1, 59, 60
3, 402140, Note_off_c, 1, 59, 0
3, 402144, Note_on_c, 1, 62, 60
3, 402236, Note_off_c, 1, 62, 0
3, 402240, Note_on_c, 1, 53, 60
3, 402332, Note_off_c, 1, 53, 0
3, 402336, Note_on_c, 1, 65, 60
3, 402428, Note_off_c, 1, 65, 0
3, 402432, Note_on_c, 1, 43, 60
3, 402620, Note_off_c, 1, 43, 0
3, 403200, Note_on_c, 1, 43, 63
3, 403388, Note_off_c, 1, 43, 0
3, 403968, Note_on_c, 1, 43, 77
3, 404156, Note_off_c, 1, 43, 0
3, 404736, Note_on_c, 1, 43, 88
3, 404924, Note_off_c, 1, 43, 0
3, 405504, Note_on_c, 1, 43, 88
3, 405692, Note_off_c, 1, 43, 0
3, 406272, Note_on_c, 1, 55, 88
3, 406364, Note_off_c, 1, 55, 0
3, 406368, Note_on_c, 1, 59, 88
3, 406460, Note_off_c, 1, 59, 0
3, 406464, Note_on_c, 1, 62, 88
3, 406556, Note_off_c, 1, 62, 0
3, 406560, Note_on_c, 1, 67, 88
3, 406652, Note_off_c, 1, 67, 0
3, 406656, Note_on_c, 1, 54, 88
3, 406748, Note_off_c, 1, 54, 0
3, 406752, Note_on_c, 1, 57, 88
3, 406844, Note_off_c, 1, 57, 0
3, 406848, Note_on_c, 1, 62, 88
3, 406940, Note_off_c, 1, 62, 0
3, 406944, Note_on_c, 1, 66, 88
3, 407036, Note_off_c, 1, 66, 0
3, 407040, Note_on_c, 1, 52, 88
3, 407132, Note_off_c, 1, 52, 0
3, 407136, Note_on_c, 1, 55, 88
3, 407228, Note_off_c, 1, 55, 0
3, 407232, Note_on_c, 1, 59, 88
3, 407324, Note_off_c, 1, 59, 0
3, 407328, Note_on_c, 1, 64, 88
3, 407420, Note_off_c, 1, 64, 0
3, 407424, Note_on_c, 1, 50, 88
3, 407516, Note_off_c, 1, 50, 0
3, 407520, Note_on_c, 1, 54, 88
3, 407612, Note_off_c, 1, 54, 0
3, 407616, Note_on_c, 1, 59, 88
3, 407708, Note_off_c, 1, 59, 0
3, 407712, Note_on_c, 1, 62, 88
3, 407804, Note_off_c, 1, 62, 0
3, 407808, Note_on_c, 1, 48, 88
3, 407900, Note_off_c, 1, 48, 0
3, 407904, Note_on_c, 1, 52, 88
3, 407996, Note_off_c, 1, 52, 0
3, 408000, Note_on_c, 1, 55, 88
3, 408092, Note_off_c, 1, 55, 0
3, 408096, Note_on_c, 1, 60, 88
3, 408188, Note_off_c, 1, 60, 0
3, 408192, Note_on_c, 1, 47, 88
3, 408284, Note_off_c, 1, 47, 0
3, 408288, Note_on_c, 1, 50, 88
3, 408380, Note_off_c, 1, 50, 0
3, 408384, Note_on_c, 1, 55, 88
3, 408476, Note_off_c, 1, 55, 0
3, 408480, Note_on_c, 1, 59, 88
3, 408572, Note_off_c, 1, 59, 0
3, 408576, Note_on_c, 1, 45, 88
3, 408764, Note_off_c, 1, 45, 0
3, 409344, Note_on_c, 1, 60, 88
3, 409344, Note_on_c, 1, 57, 88
3, 409344, Note_on_c, 1, 54, 88
3, 409344, Note_on_c, 1, 50, 88
3, 410108, Note_off_c, 1, 60, 0
3, 410108, Note_off_c, 1, 57, 0
3, 410108, Note_off_c, 1, 54, 0
3, 410108, Note_off_c, 1, 50, 0
3, 410304, Note_on_c, 1, 55, 60
3, 410304, Note_on_c, 1, 50, 60
3, 410304, Note_on_c, 1, 47, 60
3, 410492, Note_off_c, 1, 55, 0
3, 410492, Note_off_c, 1, 50, 0
3, 410492, Note_off_c, 1, 47, 0
3, 410688, Note_on_c, 1, 57, 60
3, 410688, Note_on_c, 1, 52, 60
3, 410688, Note_on_c, 1, 48, 60
3, 410876, Note_off_c, 1, 57, 0
3, 410876, Note_off_c, 1, 52, 0
3, 410876, Note_off_c, 1, 48, 0
3, 411072, Note_on_c, 1, 59, 60
3, 411072, Note_on_c, 1, 55, 60
3, 411072, Note_on_c, 1, 50, 60
3, 411260, Note_off_c, 1, 59, 0
3, 411260, Note_off_c, 1, 55, 0
3, 411260, Note_off_c, 1, 50, 0
3, 411456, Note_on_c, 1, 60, 60
3, 411456, Note_on_c, 1, 54, 60
3, 411456, Note_on_c, 1, 50, 60
3, 411644, Note_off_c, 1, 60, 0
3, 411644, Note_off_c, 1, 54, 0
3, 411644, Note_off_c, 1, 50, 0
3, 411648, Note_on_c, 1, 55, 88
3, 411740, Note_off_c, 1, 55, 0
3, 411744, Note_on_c, 1, 59, 88
3, 411836, Note_off_c, 1, 59, 0
3, 411840, Note_on_c, 1, 62, 88
3, 411932, Note_off_c, 1, 62, 0
3, 411936, Note_on_c, 1, 67, 88
3, 412028, Note_off_c, 1, 67, 0
3, 412032, Note_on_c, 1, 54, 88
3, 412124, Note_off_c, 1, 54, 0
3, 412128, Note_on_c, 1, 57, 88
3, 412220, Note_off_c, 1, 57, 0
3, 412224, Note_on_c, 1, 62, 88
3, 412316, Note_off_c, 1, 62, 0
3, 412320, Note_on_c, 1, 66, 88
3, 412412, Note_off_c, 1, 66, 0
3, 412416, Note_on_c, 1, 52, 88
3, 412508, Note_off_c, 1, 52, 0
3, 412512, Note_on_c, 1, 55, 88
3, 412604, Note_off_c, 1, 55, 0
3, 412608, Note_on_c, 1, 59, 88
3, 412700, Note_off_c, 1, 59, 0
3, 412704, Note_on_c, 1, 64, 88
3, 412796, Note_off_c, 1, 64, 0
3, 412800, Note_on_c, 1, 50, 88
3, 412892, Note_off_c, 1, 50, 0
3, 412896, Note_on_c, 1, 54, 88
3, 412988, Note_off_c, 1, 54, 0
3, 412992, Note_on_c, 1, 59, 88
3, 413084, Note_off_c, 1, 59, 0
3, 413088, Note_on_c, 1, 62, 88
3, 413180, Note_off_c, 1, 62, 0
3, 413184, Note_on_c, 1, 48, 88
3, 413276, Note_off_c, 1, 48, 0
3, 413280, Note_on_c, 1, 52, 88
3, 413372, Note_off_c, 1, 52, 0
3, 413376, Note_on_c, 1, 55, 88
3, 413468, Note_off_c, 1, 55, 0
3, 413472, Note_on_c, 1, 60, 88
3, 413564, Note_off_c, 1, 60, 0
3, 413568, Note_on_c, 1, 47, 88
3, 413660, Note_off_c, 1, 47, 0
3, 413664, Note_on_c, 1, 52, 88
3, 413756, Note_off_c, 1, 52, 0
3, 413760, Note_on_c, 1, 55, 88
3, 413852, Note_off_c, 1, 55, 0
3, 413856, Note_on_c, 1, 59, 88
3, 413948, Note_off_c, 1, 59, 0
3, 413952, Note_on_c, 1, 45, 88
3, 414140, Note_off_c, 1, 45, 0
3, 414720, Note_on_c, 1, 60, 88
3, 414720, Note_on_c, 1, 57, 88
3, 414720, Note_on_c, 1, 54, 88
3, 414720, Note_on_c, 1, 50, 88
3, 415484, Note_off_c, 1, 60, 0
3, 415484, Note_off_c, 1, 57, 0
3, 415484, Note_off_c, 1, 54, 0
3, 415484, Note_off_c, 1, 50, 0
3, 415488, Note_on_c, 1, 55, 60
3, 415488, Note_on_c, 1, 47, 60
3, 415676, Note_off_c, 1, 55, 0
3, 415676, Note_off_c, 1, 47, 0
3, 415872, Note_on_c, 1, 55, 60
3, 415872, Note_on_c, 1, 48, 60
3, 416060, Note_off_c, 1, 55, 0
3, 416060, Note_off_c, 1, 48, 0
3, 416256, Note_on_c, 1, 55, 60
3, 416256, Note_on_c, 1, 50, 60
3, 416444, Note_off_c, 1, 55, 0
3, 416444, Note_off_c, 1, 50, 0
3, 416640, Note_on_c, 1, 60, 60
3, 416640, Note_on_c, 1, 50, 60
3, 416828, Note_off_c, 1, 60, 0
3, 416828, Note_off_c, 1, 50, 0
3, 417024, Note_on_c, 1, 43, 60
3, 417116, Note_off_c, 1, 43, 0
3, 417120, Note_on_c, 1, 55, 60
3, 417212, Note_off_c, 1, 55, 0
3, 417216, Note_on_c, 1, 54, 60
3, 417308, Note_off_c, 1, 54, 0
3, 417312, Note_on_c, 1, 55, 60
3, 417404, Note_off_c, 1, 55, 0
3, 417408, Note_on_c, 1, 43, 60
3, 417500, Note_off_c, 1, 43, 0
3, 417504, Note_on_c, 1, 55, 60
3, 417596, Note_off_c, 1, 55, 0
3, 417600, Note_on_c, 1, 54, 60
3, 417692, Note_off_c, 1, 54, 0
3, 417696, Note_on_c, 1, 55, 60
3, 417788, Note_off_c, 1, 55, 0
3, 417792, Note_on_c, 1, 43, 60
3, 417884, Note_off_c, 1, 43, 0
3, 417888, Note_on_c, 1, 55, 60
3, 417980, Note_off_c, 1, 55, 0
3, 417984, Note_on_c, 1, 54, 60
3, 418076, Note_off_c, 1, 54, 0
3, 418080, Note_on_c, 1, 55, 60
3, 418172, Note_off_c, 1, 55, 0
3, 418176, Note_on_c, 1, 43, 60
3, 418268, Note_off_c, 1, 43, 0
3, 418272, Note_on_c, 1, 55, 60
3, 418364, Note_off_c, 1, 55, 0
3, 418368, Note_on_c, 1, 54, 60
3, 418460, Note_off_c, 1, 54, 0
3, 418464, Note_on_c, 1, 55, 60
3, 418556, Note_off_c, 1, 55, 0
3, 418560, Note_on_c, 1, 43, 60
3, 418652, Note_off_c, 1, 43, 0
3, 418656, Note_on_c, 1, 55, 60
3, 418748, Note_off_c, 1, 55, 0
3, 418752, Note_on_c, 1, 54, 60
3, 418844, Note_off_c, 1, 54, 0
3, 418848, Note_on_c, 1, 55, 60
3, 418940, Note_off_c, 1, 55, 0
3, 418944, Note_on_c, 1, 43, 60
3, 419036, Note_off_c, 1, 43, 0
3, 419040, Note_on_c, 1, 55, 60
3, 419132, Note_off_c, 1, 55, 0
3, 419136, Note_on_c, 1, 54, 60
3, 419228, Note_off_c, 1, 54, 0
3, 419232, Note_on_c, 1, 55, 60
3, 419324, Note_off_c, 1, 55, 0
3, 419328, Note_on_c, 1, 43, 60
3, 419420, Note_off_c, 1, 43, 0
3, 419424, Note_on_c, 1, 55, 60
3, 419516, Note_off_c, 1, 55, 0
3, 419520, Note_on_c, 1, 54, 60
3, 419612, Note_off_c, 1, 54, 0
3, 419616, Note_on_c, 1, 55, 60
3, 419708, Note_off_c, 1, 55, 0
3, 419712, Note_on_c, 1, 43, 60
3, 419804, Note_off_c, 1, 43, 0
3, 419808, Note_on_c, 1, 55, 60
3, 419900, Note_off_c, 1, 55, 0
3, 419904, Note_on_c, 1, 54, 60
3, 419996, Note_off_c, 1, 54, 0
3, 420000, Note_on_c, 1, 55, 60
3, 420092, Note_off_c, 1, 55, 0
3, 420096, Note_on_c, 1, 43, 63
3, 420188, Note_off_c, 1, 43, 0
3, 420192, Note_on_c, 1, 55, 64
3, 420284, Note_off_c, 1, 55, 0
3, 420288, Note_on_c, 1, 54, 65
3, 420380, Note_off_c, 1, 54, 0
3, 420384, Note_on_c, 1, 55, 66
3, 420476, Note_off_c, 1, 55, 0
3, 420480, Note_on_c, 1, 43, 67
3, 420572, Note_off_c, 1, 43, 0
3, 420576, Note_on_c, 1, 55, 68
3, 420668, Note_off_c, 1, 55, 0
3, 420672, Note_on_c, 1, 54, 69
3, 420764, Note_off_c, 1, 54, 0
3, 420768, Note_on_c, 1, 55, 70
3, 420860, Note_off_c, 1, 55, 0
3, 420864, Note_on_c, 1, 43, 71
3, 420956, Note_off_c, 1, 43, 0
3, 420960, Note_on_c, 1, 55, 73
3, 421052, Note_off_c, 1, 55, 0
3, 421056, Note_on_c, 1, 54, 74
3, 421148, Note_off_c, 1, 54, 0
3, 421152, Note_on_c, 1, 55, 75
3, 421244, Note_off_c, 1, 55, 0
3, 421248, Note_on_c, 1, 43, 77
3, 421340, Note_off_c, 1, 43, 0
3, 421344, Note_on_c, 1, 55, 78
3, 421436, Note_off_c, 1, 55, 0
3, 421440, Note_on_c, 1, 54, 79
3, 421532, Note_off_c, 1, 54, 0
3, 421536, Note_on_c, 1, 55, 79
3, 421628, Note_off_c, 1, 55, 0
3, 421632, Note_on_c, 1, 43, 80
3, 421724, Note_off_c, 1, 43, 0
3, 421728, Note_on_c, 1, 55, 81
3, 421820, Note_off_c, 1, 55, 0
3, 421824, Note_on_c, 1, 54, 82
3, 421916, Note_off_c, 1, 54, 0
3, 421920, Note_on_c, 1, 55, 83
3, 422012, Note_off_c, 1, 55, 0
3, 422016, Note_on_c, 1, 43, 84
3, 422108, Note_off_c, 1, 43, 0
3, 422112, Note_on_c, 1, 55, 85
3, 422204, Note_off_c, 1, 55, 0
3, 422208, Note_on_c, 1, 54, 88
3, 422300, Note_off_c, 1, 54, 0
3, 422304, Note_on_c, 1, 55, 88
3, 422396, Note_off_c, 1, 55, 0
3, 422400, Note_on_c, 1, 43, 88
3, 422492, Note_off_c, 1, 43, 0
3, 422496, Note_on_c, 1, 55, 88
3, 422588, Note_off_c, 1, 55, 0
3, 422592, Note_on_c, 1, 54, 88
3, 422684, Note_off_c, 1, 54, 0
3, 422688, Note_on_c, 1, 55, 88
3, 422780, Note_off_c, 1, 55, 0
3, 422784, Note_on_c, 1, 43, 88
3, 422876, Note_off_c, 1, 43, 0
3, 422880, Note_on_c, 1, 55, 88
3, 422972, Note_off_c, 1, 55, 0
3, 422976, Note_on_c, 1, 54, 88
3, 423068, Note_off_c, 1, 54, 0
3, 423072, Note_on_c, 1, 55, 88
3, 423164, Note_off_c, 1, 55, 0
3, 423168, Note_on_c, 1, 43, 63
3, 423356, Note_off_c, 1, 43, 0
3, 432384, Note_on_c, 1, 59, 63
3, 432384, Note_on_c, 1, 47, 63
3, 432764, Note_off_c, 1, 59, 0
3, 432764, Note_off_c, 1, 47, 0
3, 432768, Note_on_c, 1, 60, 69
3, 432768, Note_on_c, 1, 48, 69
3, 433148, Note_off_c, 1, 60, 0
3, 433148, Note_off_c, 1, 48, 0
3, 433152, Note_on_c, 1, 62, 77
3, 433152, Note_on_c, 1, 50, 77
3, 433532, Note_off_c, 1, 62, 0
3, 433532, Note_off_c, 1, 50, 0
3, 433536, Note_on_c, 1, 60, 82
3, 433536, Note_on_c, 1, 48, 82
3, 433916, Note_off_c, 1, 60, 0
3, 433916, Note_off_c, 1, 48, 0
3, 433920, Note_on_c, 1, 59, 88
3, 433920, Note_on_c, 1, 47, 88
3, 434108, Note_off_c, 1, 59, 0
3, 434108, Note_off_c, 1, 47, 0
3, 434112, Note_on_c, 1, 59, 88
3, 434112, Note_on_c, 1, 47, 88
3, 434300, Note_off_c, 1, 59, 0
3, 434300, Note_off_c, 1, 47, 0
3, 434304, Note_on_c, 1, 60, 88
3, 434304, Note_on_c, 1, 48, 88
3, 434492, Note_off_c, 1, 60, 0
3, 434492, Note_off_c, 1, 48, 0
3, 434496, Note_on_c, 1, 60, 88
3, 434496, Note_on_c, 1, 48, 88
3, 434684, Note_off_c, 1, 60, 0
3, 434684, Note_off_c, 1, 48, 0
3, 434688, Note_on_c, 1, 62, 88
3, 434688, Note_on_c, 1, 50, 88
3, 434876, Note_off_c, 1, 62, 0
3, 434876, Note_off_c, 1, 50, 0
3, 434880, Note_on_c, 1, 62, 88
3, 434880, Note_on_c, 1, 50, 88
3, 435068, Note_off_c, 1, 62, 0
3, 435068, Note_off_c, 1, 50, 0
3, 435072, Note_on_c, 1, 62, 88
3, 435072, Note_on_c, 1, 50, 88
3, 435260, Note_off_c, 1, 62, 0
3, 435260, Note_off_c, 1, 50, 0
3, 435264, Note_on_c, 1, 62, 88
3, 435264, Note_on_c, 1, 50, 88
3, 435452, Note_off_c, 1, 62, 0
3, 435452, Note_off_c, 1, 50, 0
3, 435456, Note_on_c, 1, 55, 88
3, 435644, Note_off_c, 1, 55, 0
3, 436224, Note_on_c, 1, 55, 60
3, 436604, Note_off_c, 1, 55, 0
3, 436992, Note_on_c, 1, 50, 60
3, 437180, Note_off_c, 1, 50, 0
3, 437376, Note_on_c, 1, 52, 60
3, 437564, Note_off_c, 1, 52, 0
3, 437760, Note_on_c, 1, 48, 60
3, 437948, Note_off_c, 1, 48, 0
3, 438144, Note_on_c, 1, 50, 60
3, 438332, Note_off_c, 1, 50, 0
3, 438528, Note_on_c, 1, 43, 60
3, 438716, Note_off_c, 1, 43, 0
3, 440832, Note_on_c, 1, 59, 78
3, 441020, Note_off_c, 1, 59, 0
3, 441600, Note_on_c, 1, 57, 78
3, 441788, Note_off_c, 1, 57, 0
3, 441984, Note_on_c, 1, 55, 78
3, 442172, Note_off_c, 1, 55, 0
3, 442368, Note_on_c, 1, 48, 78
3, 442556, Note_off_c, 1, 48, 0
3, 442752, Note_on_c, 1, 50, 78
3, 442940, Note_off_c, 1, 50, 0
3, 443136, Note_on_c, 1, 43, 78
3, 443324, Note_off_c, 1, 43, 0
3, 443904, Key_signature, 0, "major"
3, 443904, End_track
4, 0, Start_track
4, 0, Title_t, "K453 -c-Allegretto"
4, 0, Control_c, 2, 0, 0
4, 0, Program_c, 2, 48
4, 0, Control_c, 2, 7, 127
4, 0, Control_c, 2, 10, 35
4, 0, Control_c, 2, 91, 63
4, 0, Control_c, 2, 93, 0
4, 0, Key_signature, 1, "major"
4, 0, Control_c, 2, 121, 0
4, 384, Control_c, 2, 10, 53
4, 480, Control_c, 2, 91, 63
4, 672, Program_c, 2, 48
4, 2688, Note_on_c, 2, 71, 66
4, 2688, Note_on_c, 2, 67, 66
4, 2876, Note_off_c, 2, 71, 0
4, 2876, Note_off_c, 2, 67, 0
4, 2880, Note_on_c, 2, 72, 66
4, 2880, Note_on_c, 2, 69, 66
4, 3068, Note_off_c, 2, 72, 0
4, 3068, Note_off_c, 2, 69, 64
4, 3072, Note_on_c, 2, 74, 66
4, 3072, Note_on_c, 2, 71, 66
4, 3260, Note_off_c, 2, 71, 0
4, 3264, Note_on_c, 2, 67, 66
4, 3452, Note_off_c, 2, 74, 0
4, 3452, Note_off_c, 2, 67, 0
4, 3456, Note_on_c, 2, 74, 66
4, 3456, Note_on_c, 2, 62, 66
4, 3644, Note_off_c, 2, 74, 0
4, 3644, Note_off_c, 2, 62, 0
4, 3648, Note_on_c, 2, 67, 66
4, 3836, Note_off_c, 2, 67, 0
4, 3840, Note_on_c, 2, 74, 66
4, 3840, Note_on_c, 2, 71, 66
4, 4028, Note_off_c, 2, 71, 0
4, 4032, Note_on_c, 2, 67, 66
4, 4220, Note_off_c, 2, 74, 0
4, 4220, Note_off_c, 2, 67, 0
4, 4224, Note_on_c, 2, 79, 66
4, 4224, Note_on_c, 2, 74, 66
4, 4412, Note_off_c, 2, 74, 0
4, 4416, Note_on_c, 2, 71, 66
4, 4604, Note_off_c, 2, 79, 0
4, 4604, Note_off_c, 2, 71, 0
4, 4608, Note_on_c, 2, 79, 77
4, 4608, Note_on_c, 2, 72, 66
4, 4648, Note_off_c, 2, 79, 0
4, 4656, Note_on_c, 2, 78, 66
4, 4796, Note_off_c, 2, 72, 0
4, 4800, Note_on_c, 2, 69, 66
4, 4844, Note_off_c, 2, 78, 0
4, 4988, Note_off_c, 2, 69, 0
4, 4992, Note_on_c, 2, 78, 66
4, 4992, Note_on_c, 2, 74, 66
4, 5180, Note_off_c, 2, 78, 0
4, 5180, Note_off_c, 2, 74, 0
4, 5184, Note_on_c, 2, 72, 66
4, 5372, Note_off_c, 2, 72, 0
4, 5376, Note_on_c, 2, 81, 77
4, 5376, Note_on_c, 2, 71, 66
4, 5416, Note_off_c, 2, 81, 0
4, 5424, Note_on_c, 2, 79, 66
4, 5564, Note_off_c, 2, 71, 0
4, 5568, Note_on_c, 2, 67, 66
4, 5612, Note_off_c, 2, 79, 0
4, 5756, Note_off_c, 2, 67, 0
4, 5760, Note_on_c, 2, 79, 66
4, 5760, Note_on_c, 2, 74, 66
4, 5948, Note_off_c, 2, 79, 0
4, 5948, Note_off_c, 2, 74, 0
4, 5952, Note_on_c, 2, 71, 66
4, 6140, Note_off_c, 2, 71, 0
4, 6144, Note_on_c, 2, 83, 77
4, 6144, Note_on_c, 2, 76, 66
4, 6184, Note_off_c, 2, 83, 0
4, 6192, Note_on_c, 2, 81, 66
4, 6332, Note_off_c, 2, 76, 0
4, 6336, Note_on_c, 2, 72, 66
4, 6380, Note_off_c, 2, 81, 0
4, 6524, Note_off_c, 2, 72, 0
4, 6528, Note_on_c, 2, 81, 66
4, 6716, Note_off_c, 2, 81, 0
4, 6912, Note_on_c, 2, 81, 66
4, 6912, Note_on_c, 2, 74, 66
4, 7100, Note_off_c, 2, 81, 0
4, 7104, Note_on_c, 2, 83, 66
4, 7292, Note_off_c, 2, 83, 0
4, 7296, Note_on_c, 2, 84, 66
4, 7484, Note_off_c, 2, 84, 0
4, 7488, Note_on_c, 2, 81, 66
4, 7676, Note_off_c, 2, 74, 0
4, 7676, Note_off_c, 2, 81, 0
4, 7680, Note_on_c, 2, 74, 66
4, 7680, Note_on_c, 2, 83, 66
4, 8444, Note_off_c, 2, 74, 0
4, 8444, Note_off_c, 2, 83, 0
4, 8448, Note_on_c, 2, 67, 66
4, 8636, Note_off_c, 2, 67, 0
4, 8640, Note_on_c, 2, 62, 66
4, 8828, Note_off_c, 2, 62, 0
4, 8832, Note_on_c, 2, 71, 66
4, 8832, Note_on_c, 2, 86, 66
4, 9020, Note_off_c, 2, 71, 0
4, 9020, Note_off_c, 2, 86, 0
4, 9024, Note_on_c, 2, 67, 66
4, 9024, Note_on_c, 2, 83, 66
4, 9212, Note_off_c, 2, 67, 0
4, 9212, Note_off_c, 2, 83, 0
4, 9216, Note_on_c, 2, 81, 66
4, 9216, Note_on_c, 2, 66, 66
4, 9216, Note_on_c, 2, 62, 66
4, 9404, Note_off_c, 2, 81, 0
4, 9404, Note_off_c, 2, 66, 0
4, 9408, Note_on_c, 2, 67, 66
4, 9596, Note_off_c, 2, 67, 0
4, 9600, Note_on_c, 2, 81, 66
4, 9600, Note_on_c, 2, 69, 66
4, 9788, Note_off_c, 2, 81, 0
4, 9788, Note_off_c, 2, 69, 0
4, 9792, Note_on_c, 2, 67, 66
4, 9980, Note_off_c, 2, 67, 0
4, 9984, Note_on_c, 2, 81, 66
4, 9984, Note_on_c, 2, 66, 66
4, 10172, Note_off_c, 2, 66, 0
4, 10176, Note_on_c, 2, 64, 66
4, 10364, Note_off_c, 2, 62, 0
4, 10364, Note_off_c, 2, 81, 0
4, 10364, Note_off_c, 2, 64, 0
4, 10368, Note_on_c, 2, 63, 66
4, 10368, Note_on_c, 2, 59, 66
4, 10368, Note_on_c, 2, 83, 66
4, 10556, Note_off_c, 2, 63, 0
4, 10560, Note_on_c, 2, 66, 66
4, 10748, Note_off_c, 2, 59, 0
4, 10748, Note_off_c, 2, 83, 0
4, 10748, Note_off_c, 2, 66, 0
4, 10752, Note_on_c, 2, 81, 77
4, 10752, Note_on_c, 2, 64, 66
4, 10752, Note_on_c, 2, 79, 66
4, 10792, Note_off_c, 2, 81, 0
4, 10800, Note_on_c, 2, 64, 66
4, 10940, Note_off_c, 2, 64, 0
4, 10944, Note_on_c, 2, 62, 66
4, 10988, Note_off_c, 2, 64, 0
4, 11132, Note_off_c, 2, 79, 0
4, 11132, Note_off_c, 2, 62, 0
4, 11136, Note_on_c, 2, 79, 66
4, 11136, Note_on_c, 2, 61, 66
4, 11136, Note_on_c, 2, 57, 66
4, 11324, Note_off_c, 2, 79, 0
4, 11324, Note_off_c, 2, 61, 0
4, 11328, Note_on_c, 2, 64, 66
4, 11516, Note_off_c, 2, 57, 0
4, 11516, Note_off_c, 2, 64, 0
4, 11520, Note_on_c, 2, 79, 77
4, 11520, Note_on_c, 2, 62, 66
4, 11520, Note_on_c, 2, 62, 66
4, 11560, Note_off_c, 2, 79, 0
4, 11568, Note_on_c, 2, 78, 66
4, 11708, Note_off_c, 2, 62, 0
4, 11712, Note_on_c, 2, 69, 66
4, 11756, Note_off_c, 2, 78, 0
4, 11900, Note_off_c, 2, 62, 0
4, 11900, Note_off_c, 2, 69, 0
4, 11904, Note_on_c, 2, 78, 66
4, 11904, Note_on_c, 2, 62, 66
4, 11904, Note_on_c, 2, 59, 66
4, 12092, Note_off_c, 2, 78, 0
4, 12092, Note_off_c, 2, 62, 0
4, 12096, Note_on_c, 2, 66, 66
4, 12284, Note_off_c, 2, 59, 0
4, 12284, Note_off_c, 2, 66, 0
4, 12288, Note_on_c, 2, 78, 77
4, 12328, Note_off_c, 2, 78, 0
4, 12336, Note_on_c, 2, 76, 66
4, 12480, Note_on_c, 2, 71, 66
4, 12524, Note_off_c, 2, 76, 0
4, 12668, Note_off_c, 2, 71, 0
4, 12672, Note_on_c, 2, 76, 66
4, 12672, Note_on_c, 2, 67, 66
4, 12860, Note_off_c, 2, 76, 0
4, 12860, Note_off_c, 2, 67, 0
4, 12864, Note_on_c, 2, 66, 66
4, 13052, Note_off_c, 2, 66, 0
4, 13056, Note_on_c, 2, 73, 66
4, 13056, Note_on_c, 2, 64, 66
4, 13244, Note_off_c, 2, 73, 0
4, 13244, Note_off_c, 2, 64, 0
4, 13248, Note_on_c, 2, 74, 66
4, 13248, Note_on_c, 2, 66, 66
4, 13436, Note_off_c, 2, 74, 0
4, 13436, Note_off_c, 2, 66, 0
4, 13440, Note_on_c, 2, 76, 66
4, 13440, Note_on_c, 2, 67, 66
4, 13628, Note_off_c, 2, 76, 0
4, 13628, Note_off_c, 2, 67, 0
4, 13632, Note_on_c, 2, 73, 66
4, 13632, Note_on_c, 2, 64, 66
4, 13820, Note_off_c, 2, 73, 0
4, 13820, Note_off_c, 2, 64, 0
4, 13824, Note_on_c, 2, 74, 66
4, 13824, Note_on_c, 2, 66, 66
4, 14012, Note_off_c, 2, 66, 0
4, 14016, Note_on_c, 2, 67, 66
4, 14204, Note_off_c, 2, 67, 0
4, 14208, Note_on_c, 2, 69, 66
4, 14396, Note_off_c, 2, 69, 0
4, 14400, Note_on_c, 2, 66, 66
4, 14588, Note_off_c, 2, 74, 0
4, 14588, Note_off_c, 2, 66, 0
4, 14592, Note_on_c, 2, 62, 66
4, 14972, Note_off_c, 2, 62, 0
4, 14976, Note_on_c, 2, 67, 66
4, 14976, Note_on_c, 2, 71, 66
4, 15164, Note_off_c, 2, 67, 0
4, 15164, Note_off_c, 2, 71, 0
4, 15168, Note_on_c, 2, 72, 66
4, 15168, Note_on_c, 2, 69, 66
4, 15356, Note_off_c, 2, 72, 0
4, 15356, Note_off_c, 2, 69, 0
4, 15360, Note_on_c, 2, 74, 66
4, 15360, Note_on_c, 2, 71, 66
4, 15548, Note_off_c, 2, 71, 0
4, 15552, Note_on_c, 2, 67, 66
4, 15740, Note_off_c, 2, 74, 0
4, 15740, Note_off_c, 2, 67, 0
4, 15744, Note_on_c, 2, 62, 66
4, 15744, Note_on_c, 2, 74, 66
4, 15932, Note_off_c, 2, 62, 0
4, 15936, Note_on_c, 2, 67, 66
4, 16124, Note_off_c, 2, 74, 0
4, 16124, Note_off_c, 2, 67, 0
4, 16128, Note_on_c, 2, 74, 66
4, 16128, Note_on_c, 2, 71, 66
4, 16316, Note_off_c, 2, 71, 0
4, 16320, Note_on_c, 2, 67, 66
4, 16508, Note_off_c, 2, 74, 0
4, 16508, Note_off_c, 2, 67, 0
4, 16512, Note_on_c, 2, 79, 66
4, 16512, Note_on_c, 2, 74, 66
4, 16700, Note_off_c, 2, 74, 0
4, 16704, Note_on_c, 2, 71, 66
4, 16892, Note_off_c, 2, 79, 0
4, 16892, Note_off_c, 2, 71, 0
4, 16896, Note_on_c, 2, 79, 77
4, 16896, Note_on_c, 2, 72, 66
4, 16936, Note_off_c, 2, 79, 0
4, 16944, Note_on_c, 2, 78, 66
4, 17084, Note_off_c, 2, 72, 0
4, 17088, Note_on_c, 2, 69, 66
4, 17132, Note_off_c, 2, 78, 0
4, 17276, Note_off_c, 2, 69, 0
4, 17280, Note_on_c, 2, 78, 66
4, 17280, Note_on_c, 2, 74, 66
4, 17468, Note_off_c, 2, 78, 0
4, 17468, Note_off_c, 2, 74, 0
4, 17472, Note_on_c, 2, 72, 66
4, 17660, Note_off_c, 2, 72, 0
4, 17664, Note_on_c, 2, 81, 77
4, 17664, Note_on_c, 2, 71, 66
4, 17704, Note_off_c, 2, 81, 0
4, 17712, Note_on_c, 2, 79, 66
4, 17852, Note_off_c, 2, 71, 0
4, 17856, Note_on_c, 2, 67, 66
4, 17900, Note_off_c, 2, 79, 0
4, 18044, Note_off_c, 2, 67, 0
4, 18048, Note_on_c, 2, 79, 66
4, 18048, Note_on_c, 2, 74, 66
4, 18236, Note_off_c, 2, 79, 0
4, 18236, Note_off_c, 2, 74, 0
4, 18240, Note_on_c, 2, 71, 66
4, 18428, Note_off_c, 2, 71, 0
4, 18432, Note_on_c, 2, 83, 77
4, 18432, Note_on_c, 2, 76, 66
4, 18472, Note_off_c, 2, 83, 0
4, 18480, Note_on_c, 2, 81, 66
4, 18620, Note_off_c, 2, 76, 0
4, 18624, Note_on_c, 2, 72, 66
4, 18668, Note_off_c, 2, 81, 0
4, 18812, Note_off_c, 2, 72, 0
4, 18816, Note_on_c, 2, 81, 66
4, 19004, Note_off_c, 2, 81, 0
4, 19200, Note_on_c, 2, 81, 66
4, 19200, Note_on_c, 2, 74, 66
4, 19388, Note_off_c, 2, 81, 0
4, 19392, Note_on_c, 2, 83, 66
4, 19580, Note_off_c, 2, 83, 0
4, 19584, Note_on_c, 2, 84, 66
4, 19772, Note_off_c, 2, 84, 0
4, 19776, Note_on_c, 2, 81, 66
4, 19964, Note_off_c, 2, 74, 0
4, 19964, Note_off_c, 2, 81, 0
4, 19968, Note_on_c, 2, 74, 66
4, 19968, Note_on_c, 2, 83, 66
4, 20732, Note_off_c, 2, 74, 0
4, 20732, Note_off_c, 2, 83, 0
4, 20736, Note_on_c, 2, 67, 66
4, 20924, Note_off_c, 2, 67, 0
4, 20928, Note_on_c, 2, 62, 66
4, 21116, Note_off_c, 2, 62, 0
4, 21120, Note_on_c, 2, 71, 66
4, 21120, Note_on_c, 2, 86, 66
4, 21308, Note_off_c, 2, 71, 0
4, 21308, Note_off_c, 2, 86, 0
4, 21312, Note_on_c, 2, 67, 66
4, 21312, Note_on_c, 2, 83, 66
4, 21500, Note_off_c, 2, 67, 0
4, 21500, Note_off_c, 2, 83, 0
4, 21504, Note_on_c, 2, 81, 66
4, 21504, Note_on_c, 2, 66, 66
4, 21504, Note_on_c, 2, 62, 66
4, 21692, Note_off_c, 2, 81, 0
4, 21692, Note_off_c, 2, 66, 0
4, 21696, Note_on_c, 2, 67, 66
4, 21884, Note_off_c, 2, 67, 0
4, 21888, Note_on_c, 2, 81, 66
4, 21888, Note_on_c, 2, 69, 66
4, 22076, Note_off_c, 2, 81, 0
4, 22076, Note_off_c, 2, 69, 0
4, 22080, Note_on_c, 2, 67, 66
4, 22268, Note_off_c, 2, 67, 0
4, 22272, Note_on_c, 2, 81, 66
4, 22272, Note_on_c, 2, 66, 66
4, 22460, Note_off_c, 2, 66, 0
4, 22464, Note_on_c, 2, 64, 66
4, 22652, Note_off_c, 2, 62, 0
4, 22652, Note_off_c, 2, 81, 0
4, 22652, Note_off_c, 2, 64, 0
4, 22656, Note_on_c, 2, 63, 66
4, 22656, Note_on_c, 2, 59, 66
4, 22656, Note_on_c, 2, 83, 66
4, 22844, Note_off_c, 2, 63, 0
4, 22848, Note_on_c, 2, 66, 66
4, 23036, Note_off_c, 2, 59, 0
4, 23036, Note_off_c, 2, 83, 0
4, 23036, Note_off_c, 2, 66, 0
4, 23040, Note_on_c, 2, 81, 77
4, 23040, Note_on_c, 2, 64, 66
4, 23040, Note_on_c, 2, 64, 66
4, 23040, Note_on_c, 2, 79, 66
4, 23080, Note_off_c, 2, 81, 0
4, 23228, Note_off_c, 2, 64, 0
4, 23228, Note_off_c, 2, 64, 0
4, 23232, Note_on_c, 2, 62, 66
4, 23420, Note_off_c, 2, 79, 0
4, 23420, Note_off_c, 2, 62, 0
4, 23424, Note_on_c, 2, 79, 66
4, 23424, Note_on_c, 2, 60, 66
4, 23424, Note_on_c, 2, 57, 66
4, 23612, Note_off_c, 2, 79, 0
4, 23612, Note_off_c, 2, 60, 0
4, 23616, Note_on_c, 2, 64, 66
4, 23804, Note_off_c, 2, 57, 0
4, 23804, Note_off_c, 2, 64, 0
4, 23808, Note_on_c, 2, 79, 77
4, 23808, Note_on_c, 2, 62, 66
4, 23808, Note_on_c, 2, 62, 66
4, 23808, Note_on_c, 2, 78, 66
4, 23848, Note_off_c, 2, 79, 0
4, 23996, Note_off_c, 2, 62, 0
4, 23996, Note_off_c, 2, 78, 0
4, 24000, Note_on_c, 2, 69, 66
4, 24188, Note_off_c, 2, 62, 0
4, 24188, Note_off_c, 2, 69, 0
4, 24192, Note_on_c, 2, 78, 66
4, 24192, Note_on_c, 2, 62, 66
4, 24192, Note_on_c, 2, 59, 66
4, 24380, Note_off_c, 2, 78, 0
4, 24380, Note_off_c, 2, 62, 0
4, 24384, Note_on_c, 2, 66, 66
4, 24572, Note_off_c, 2, 59, 0
4, 24572, Note_off_c, 2, 66, 0
4, 24576, Note_on_c, 2, 78, 77
4, 24576, Note_on_c, 2, 76, 66
4, 24616, Note_off_c, 2, 78, 0
4, 24764, Note_off_c, 2, 76, 0
4, 24768, Note_on_c, 2, 71, 66
4, 24956, Note_off_c, 2, 71, 0
4, 24960, Note_on_c, 2, 76, 66
4, 24960, Note_on_c, 2, 67, 66
4, 25148, Note_off_c, 2, 76, 0
4, 25148, Note_off_c, 2, 67, 0
4, 25152, Note_on_c, 2, 66, 66
4, 25340, Note_off_c, 2, 66, 0
4, 25344, Note_on_c, 2, 73, 66
4, 25344, Note_on_c, 2, 64, 66
4, 25532, Note_off_c, 2, 73, 0
4, 25532, Note_off_c, 2, 64, 0
4, 25536, Note_on_c, 2, 74, 66
4, 25536, Note_on_c, 2, 66, 66
4, 25724, Note_off_c, 2, 74, 0
4, 25724, Note_off_c, 2, 66, 0
4, 25728, Note_on_c, 2, 76, 66
4, 25728, Note_on_c, 2, 67, 66
4, 25916, Note_off_c, 2, 76, 0
4, 25916, Note_off_c, 2, 67, 0
4, 25920, Note_on_c, 2, 73, 66
4, 25920, Note_on_c, 2, 64, 66
4, 26108, Note_off_c, 2, 73, 0
4, 26108, Note_off_c, 2, 64, 0
4, 26112, Note_on_c, 2, 74, 66
4, 26112, Note_on_c, 2, 66, 66
4, 26300, Note_off_c, 2, 66, 0
4, 26304, Note_on_c, 2, 67, 66
4, 26492, Note_off_c, 2, 67, 0
4, 26496, Note_on_c, 2, 69, 66
4, 26684, Note_off_c, 2, 69, 0
4, 26688, Note_on_c, 2, 66, 66
4, 26876, Note_off_c, 2, 74, 0
4, 26876, Note_off_c, 2, 66, 0
4, 26880, Note_on_c, 2, 62, 66
4, 27260, Note_off_c, 2, 62, 0
4, 27264, Note_on_c, 2, 74, 66
4, 27452, Note_off_c, 2, 74, 0
4, 27456, Note_on_c, 2, 78, 66
4, 27644, Note_off_c, 2, 78, 0
4, 27648, Note_on_c, 2, 81, 66
4, 28028, Note_off_c, 2, 81, 0
4, 28032, Note_on_c, 2, 81, 66
4, 28220, Note_off_c, 2, 81, 0
4, 28416, Note_on_c, 2, 81, 66
4, 28604, Note_off_c, 2, 81, 0
4, 28800, Note_on_c, 2, 81, 66
4, 28988, Note_off_c, 2, 81, 0
4, 29184, Note_on_c, 2, 79, 66
4, 29184, Note_on_c, 2, 69, 66
4, 29372, Note_off_c, 2, 69, 0
4, 29376, Note_on_c, 2, 73, 66
4, 29564, Note_off_c, 2, 79, 0
4, 29564, Note_off_c, 2, 73, 0
4, 29568, Note_on_c, 2, 78, 66
4, 29568, Note_on_c, 2, 74, 66
4, 29756, Note_off_c, 2, 74, 0
4, 29760, Note_on_c, 2, 69, 66
4, 29948, Note_off_c, 2, 78, 0
4, 29948, Note_off_c, 2, 69, 0
4, 29952, Note_on_c, 2, 66, 66
4, 30140, Note_off_c, 2, 66, 0
4, 30144, Note_on_c, 2, 69, 66
4, 30332, Note_off_c, 2, 69, 0
4, 30336, Note_on_c, 2, 66, 66
4, 30336, Note_on_c, 2, 74, 66
4, 30524, Note_off_c, 2, 66, 0
4, 30524, Note_off_c, 2, 74, 0
4, 30528, Note_on_c, 2, 69, 66
4, 30528, Note_on_c, 2, 78, 66
4, 30716, Note_off_c, 2, 69, 0
4, 30716, Note_off_c, 2, 78, 0
4, 30720, Note_on_c, 2, 80, 66
4, 30908, Note_off_c, 2, 80, 0
4, 30912, Note_on_c, 2, 81, 66
4, 31100, Note_off_c, 2, 81, 0
4, 31104, Note_on_c, 2, 80, 66
4, 31292, Note_off_c, 2, 80, 0
4, 31296, Note_on_c, 2, 81, 66
4, 31484, Note_off_c, 2, 81, 0
4, 31488, Note_on_c, 2, 80, 66
4, 31676, Note_off_c, 2, 80, 0
4, 31680, Note_on_c, 2, 81, 66
4, 31868, Note_off_c, 2, 81, 0
4, 31872, Note_on_c, 2, 83, 66
4, 32060, Note_off_c, 2, 83, 0
4, 32064, Note_on_c, 2, 81, 66
4, 32252, Note_off_c, 2, 81, 0
4, 32256, Note_on_c, 2, 79, 66
4, 32256, Note_on_c, 2, 69, 66
4, 32444, Note_off_c, 2, 69, 0
4, 32448, Note_on_c, 2, 74, 66
4, 32636, Note_off_c, 2, 79, 0
4, 32636, Note_off_c, 2, 74, 0
4, 32640, Note_on_c, 2, 78, 66
4, 32640, Note_on_c, 2, 69, 66
4, 32828, Note_off_c, 2, 69, 0
4, 32832, Note_on_c, 2, 74, 66
4, 33020, Note_off_c, 2, 78, 0
4, 33020, Note_off_c, 2, 74, 0
4, 33024, Note_on_c, 2, 69, 66
4, 33212, Note_off_c, 2, 69, 0
4, 33216, Note_on_c, 2, 74, 66
4, 33404, Note_off_c, 2, 74, 0
4, 33408, Note_on_c, 2, 81, 66
4, 33596, Note_off_c, 2, 81, 0
4, 33600, Note_on_c, 2, 74, 66
4, 33600, Note_on_c, 2, 69, 66
4, 33788, Note_off_c, 2, 74, 0
4, 33788, Note_off_c, 2, 69, 0
4, 33792, Note_on_c, 2, 71, 66
4, 33792, Note_on_c, 2, 86, 66
4, 34172, Note_off_c, 2, 86, 0
4, 34176, Note_on_c, 2, 86, 66
4, 34364, Note_off_c, 2, 86, 0
4, 34560, Note_on_c, 2, 86, 77
4, 34600, Note_off_c, 2, 86, 0
4, 34608, Note_on_c, 2, 84, 66
4, 34796, Note_off_c, 2, 84, 0
4, 34944, Note_on_c, 2, 84, 66
4, 35132, Note_off_c, 2, 84, 0
4, 35324, Note_off_c, 2, 71, 0
4, 35328, Note_on_c, 2, 84, 77
4, 35368, Note_off_c, 2, 84, 0
4, 35376, Note_on_c, 2, 83, 66
4, 35376, Note_on_c, 2, 74, 66
4, 35564, Note_off_c, 2, 83, 0
4, 35564, Note_off_c, 2, 74, 0
4, 35712, Note_on_c, 2, 74, 66
4, 35712, Note_on_c, 2, 83, 66
4, 35900, Note_off_c, 2, 74, 0
4, 35900, Note_off_c, 2, 83, 0
4, 36096, Note_on_c, 2, 83, 77
4, 36136, Note_off_c, 2, 83, 0
4, 36144, Note_on_c, 2, 72, 66
4, 36144, Note_on_c, 2, 81, 66
4, 36332, Note_off_c, 2, 72, 0
4, 36332, Note_off_c, 2, 81, 0
4, 36480, Note_on_c, 2, 81, 66
4, 36480, Note_on_c, 2, 72, 66
4, 36668, Note_off_c, 2, 81, 0
4, 36668, Note_off_c, 2, 72, 0
4, 36864, Note_on_c, 2, 81, 77
4, 36904, Note_off_c, 2, 81, 0
4, 36912, Note_on_c, 2, 71, 66
4, 36912, Note_on_c, 2, 79, 66
4, 37100, Note_off_c, 2, 71, 0
4, 37100, Note_off_c, 2, 79, 0
4, 37248, Note_on_c, 2, 79, 66
4, 37248, Note_on_c, 2, 71, 66
4, 37436, Note_off_c, 2, 79, 0
4, 37436, Note_off_c, 2, 71, 0
4, 37632, Note_on_c, 2, 78, 66
4, 37632, Note_on_c, 2, 69, 66
4, 37820, Note_off_c, 2, 78, 0
4, 37820, Note_off_c, 2, 69, 0
4, 37824, Note_on_c, 2, 79, 66
4, 37824, Note_on_c, 2, 71, 66
4, 38012, Note_off_c, 2, 79, 0
4, 38012, Note_off_c, 2, 71, 0
4, 38016, Note_on_c, 2, 81, 66
4, 38016, Note_on_c, 2, 72, 66
4, 38204, Note_off_c, 2, 81, 0
4, 38204, Note_off_c, 2, 72, 0
4, 38208, Note_on_c, 2, 78, 66
4, 38208, Note_on_c, 2, 69, 66
4, 38396, Note_off_c, 2, 78, 0
4, 38396, Note_off_c, 2, 69, 0
4, 38400, Note_on_c, 2, 79, 66
4, 38400, Note_on_c, 2, 71, 66
4, 39164, Note_off_c, 2, 79, 0
4, 39164, Note_off_c, 2, 71, 0
4, 39552, Note_on_c, 2, 74, 66
4, 39740, Note_off_c, 2, 74, 0
4, 39744, Note_on_c, 2, 78, 66
4, 39932, Note_off_c, 2, 78, 0
4, 39936, Note_on_c, 2, 81, 66
4, 40316, Note_off_c, 2, 81, 0
4, 40320, Note_on_c, 2, 81, 66
4, 40508, Note_off_c, 2, 81, 0
4, 40704, Note_on_c, 2, 81, 66
4, 40892, Note_off_c, 2, 81, 0
4, 41088, Note_on_c, 2, 81, 66
4, 41276, Note_off_c, 2, 81, 0
4, 41472, Note_on_c, 2, 79, 66
4, 41472, Note_on_c, 2, 69, 66
4, 41660, Note_off_c, 2, 69, 0
4, 41664, Note_on_c, 2, 73, 66
4, 41852, Note_off_c, 2, 79, 0
4, 41852, Note_off_c, 2, 73, 0
4, 41856, Note_on_c, 2, 78, 66
4, 41856, Note_on_c, 2, 74, 66
4, 42044, Note_off_c, 2, 74, 0
4, 42048, Note_on_c, 2, 69, 66
4, 42236, Note_off_c, 2, 78, 0
4, 42236, Note_off_c, 2, 69, 0
4, 42240, Note_on_c, 2, 66, 66
4, 42428, Note_off_c, 2, 66, 0
4, 42432, Note_on_c, 2, 69, 66
4, 42620, Note_off_c, 2, 69, 0
4, 42624, Note_on_c, 2, 66, 66
4, 42624, Note_on_c, 2, 74, 66
4, 42812, Note_off_c, 2, 66, 0
4, 42812, Note_off_c, 2, 74, 0
4, 42816, Note_on_c, 2, 69, 66
4, 42816, Note_on_c, 2, 78, 66
4, 43004, Note_off_c, 2, 69, 0
4, 43004, Note_off_c, 2, 78, 0
4, 43008, Note_on_c, 2, 80, 66
4, 43196, Note_off_c, 2, 80, 0
4, 43200, Note_on_c, 2, 81, 66
4, 43388, Note_off_c, 2, 81, 0
4, 43392, Note_on_c, 2, 80, 66
4, 43580, Note_off_c, 2, 80, 0
4, 43584, Note_on_c, 2, 81, 66
4, 43772, Note_off_c, 2, 81, 0
4, 43776, Note_on_c, 2, 80, 66
4, 43964, Note_off_c, 2, 80, 0
4, 43968, Note_on_c, 2, 81, 66
4, 44156, Note_off_c, 2, 81, 0
4, 44160, Note_on_c, 2, 83, 66
4, 44348, Note_off_c, 2, 83, 0
4, 44352, Note_on_c, 2, 81, 66
4, 44540, Note_off_c, 2, 81, 0
4, 44544, Note_on_c, 2, 79, 66
4, 44544, Note_on_c, 2, 69, 66
4, 44732, Note_off_c, 2, 69, 0
4, 44736, Note_on_c, 2, 74, 66
4, 44924, Note_off_c, 2, 79, 0
4, 44924, Note_off_c, 2, 74, 0
4, 44928, Note_on_c, 2, 78, 66
4, 44928, Note_on_c, 2, 69, 66
4, 45116, Note_off_c, 2, 69, 0
4, 45120, Note_on_c, 2, 74, 66
4, 45308, Note_off_c, 2, 78, 0
4, 45308, Note_off_c, 2, 74, 0
4, 45312, Note_on_c, 2, 69, 66
4, 45500, Note_off_c, 2, 69, 0
4, 45504, Note_on_c, 2, 74, 66
4, 45692, Note_off_c, 2, 74, 0
4, 45696, Note_on_c, 2, 81, 66
4, 45884, Note_off_c, 2, 81, 0
4, 45888, Note_on_c, 2, 74, 66
4, 45888, Note_on_c, 2, 69, 66
4, 46076, Note_off_c, 2, 74, 0
4, 46076, Note_off_c, 2, 69, 0
4, 46080, Note_on_c, 2, 71, 66
4, 46080, Note_on_c, 2, 86, 66
4, 46460, Note_off_c, 2, 86, 0
4, 46464, Note_on_c, 2, 86, 66
4, 46652, Note_off_c, 2, 86, 0
4, 46848, Note_on_c, 2, 86, 77
4, 46888, Note_off_c, 2, 86, 0
4, 46896, Note_on_c, 2, 84, 66
4, 47084, Note_off_c, 2, 84, 0
4, 47232, Note_on_c, 2, 84, 66
4, 47420, Note_off_c, 2, 84, 0
4, 47612, Note_off_c, 2, 71, 0
4, 47616, Note_on_c, 2, 84, 77
4, 47616, Note_on_c, 2, 74, 66
4, 47656, Note_off_c, 2, 84, 0
4, 47664, Note_on_c, 2, 83, 66
4, 47804, Note_off_c, 2, 74, 0
4, 47852, Note_off_c, 2, 83, 0
4, 48000, Note_on_c, 2, 83, 66
4, 48000, Note_on_c, 2, 74, 66
4, 48188, Note_off_c, 2, 83, 0
4, 48188, Note_off_c, 2, 74, 0
4, 48384, Note_on_c, 2, 83, 77
4, 48384, Note_on_c, 2, 72, 66
4, 48384, Note_on_c, 2, 81, 66
4, 48424, Note_off_c, 2, 83, 0
4, 48572, Note_off_c, 2, 72, 0
4, 48572, Note_off_c, 2, 81, 0
4, 48768, Note_on_c, 2, 81, 66
4, 48768, Note_on_c, 2, 72, 66
4, 48956, Note_off_c, 2, 81, 0
4, 48956, Note_off_c, 2, 72, 0
4, 49152, Note_on_c, 2, 81, 77
4, 49152, Note_on_c, 2, 71, 66
4, 49152, Note_on_c, 2, 79, 66
4, 49192, Note_off_c, 2, 81, 0
4, 49340, Note_off_c, 2, 71, 0
4, 49340, Note_off_c, 2, 79, 0
4, 49536, Note_on_c, 2, 79, 66
4, 49536, Note_on_c, 2, 71, 66
4, 49724, Note_off_c, 2, 79, 0
4, 49724, Note_off_c, 2, 71, 0
4, 49920, Note_on_c, 2, 78, 66
4, 49920, Note_on_c, 2, 69, 66
4, 50108, Note_off_c, 2, 78, 0
4, 50108, Note_off_c, 2, 69, 0
4, 50112, Note_on_c, 2, 79, 66
4, 50112, Note_on_c, 2, 71, 66
4, 50300, Note_off_c, 2, 79, 0
4, 50300, Note_off_c, 2, 71, 0
4, 50304, Note_on_c, 2, 81, 66
4, 50304, Note_on_c, 2, 72, 66
4, 50492, Note_off_c, 2, 81, 0
4, 50492, Note_off_c, 2, 72, 0
4, 50496, Note_on_c, 2, 78, 66
4, 50496, Note_on_c, 2, 69, 66
4, 50684, Note_off_c, 2, 78, 0
4, 50684, Note_off_c, 2, 69, 0
4, 50688, Note_on_c, 2, 79, 66
4, 50688, Note_on_c, 2, 71, 66
4, 51452, Note_off_c, 2, 79, 0
4, 51452, Note_off_c, 2, 71, 0
4, 58368, Note_on_c, 2, 75, 66
4, 58368, Note_on_c, 2, 71, 66
4, 59900, Note_off_c, 2, 75, 0
4, 59900, Note_off_c, 2, 71, 0
4, 59904, Note_on_c, 2, 74, 66
4, 59904, Note_on_c, 2, 71, 66
4, 60284, Note_off_c, 2, 74, 0
4, 60284, Note_off_c, 2, 71, 0
4, 60288, Note_on_c, 2, 73, 66
4, 60288, Note_on_c, 2, 69, 66
4, 60668, Note_off_c, 2, 73, 0
4, 60672, Note_on_c, 2, 72, 66
4, 61052, Note_off_c, 2, 69, 0
4, 61052, Note_off_c, 2, 72, 0
4, 61056, Note_on_c, 2, 71, 66
4, 61056, Note_on_c, 2, 67, 66
4, 61436, Note_off_c, 2, 71, 0
4, 61436, Note_off_c, 2, 67, 0
4, 70656, Note_on_c, 2, 75, 66
4, 70656, Note_on_c, 2, 71, 66
4, 72188, Note_off_c, 2, 75, 0
4, 72188, Note_off_c, 2, 71, 0
4, 72192, Note_on_c, 2, 74, 66
4, 72192, Note_on_c, 2, 71, 66
4, 72572, Note_off_c, 2, 74, 0
4, 72572, Note_off_c, 2, 71, 0
4, 72576, Note_on_c, 2, 73, 66
4, 72576, Note_on_c, 2, 69, 66
4, 72956, Note_off_c, 2, 73, 0
4, 72960, Note_on_c, 2, 72, 66
4, 73340, Note_off_c, 2, 69, 0
4, 73340, Note_off_c, 2, 72, 0
4, 73344, Note_on_c, 2, 71, 66
4, 73344, Note_on_c, 2, 67, 66
4, 73724, Note_off_c, 2, 71, 0
4, 73724, Note_off_c, 2, 67, 0
4, 78336, Note_on_c, 2, 62, 83
4, 78524, Note_off_c, 2, 62, 0
4, 78528, Note_on_c, 2, 74, 83
4, 78716, Note_off_c, 2, 74, 0
4, 78720, Note_on_c, 2, 74, 83
4, 78812, Note_off_c, 2, 74, 0
4, 78912, Note_on_c, 2, 74, 83
4, 79004, Note_off_c, 2, 74, 0
4, 79104, Note_on_c, 2, 73, 83
4, 79292, Note_off_c, 2, 73, 0
4, 79296, Note_on_c, 2, 74, 83
4, 79484, Note_off_c, 2, 74, 0
4, 79488, Note_on_c, 2, 78, 83
4, 79676, Note_off_c, 2, 78, 0
4, 79680, Note_on_c, 2, 74, 83
4, 79868, Note_off_c, 2, 74, 0
4, 79872, Note_on_c, 2, 69, 83
4, 80252, Note_off_c, 2, 69, 0
4, 81408, Note_on_c, 2, 62, 72
4, 81596, Note_off_c, 2, 62, 0
4, 81600, Note_on_c, 2, 74, 73
4, 81788, Note_off_c, 2, 74, 0
4, 81792, Note_on_c, 2, 74, 76
4, 81884, Note_off_c, 2, 74, 0
4, 81984, Note_on_c, 2, 74, 77
4, 82076, Note_off_c, 2, 74, 0
4, 82176, Note_on_c, 2, 73, 80
4, 82364, Note_off_c, 2, 73, 0
4, 82368, Note_on_c, 2, 74, 80
4, 82556, Note_off_c, 2, 74, 0
4, 82560, Note_on_c, 2, 78, 82
4, 82748, Note_off_c, 2, 78, 0
4, 82752, Note_on_c, 2, 74, 83
4, 82940, Note_off_c, 2, 74, 0
4, 82944, Note_on_c, 2, 79, 83
4, 82944, Note_on_c, 2, 67, 83
4, 84092, Note_off_c, 2, 79, 0
4, 84092, Note_off_c, 2, 67, 0
4, 84096, Note_on_c, 2, 78, 83
4, 84096, Note_on_c, 2, 66, 83
4, 84476, Note_off_c, 2, 78, 0
4, 84476, Note_off_c, 2, 66, 0
4, 84480, Note_on_c, 2, 77, 83
4, 84480, Note_on_c, 2, 65, 83
4, 84860, Note_off_c, 2, 77, 0
4, 84860, Note_off_c, 2, 65, 0
4, 84864, Note_on_c, 2, 76, 83
4, 84864, Note_on_c, 2, 64, 83
4, 85244, Note_off_c, 2, 76, 0
4, 85244, Note_off_c, 2, 64, 0
4, 85632, Note_on_c, 2, 78, 83
4, 85632, Note_on_c, 2, 69, 83
4, 86012, Note_off_c, 2, 78, 0
4, 86012, Note_off_c, 2, 69, 0
4, 86016, Note_on_c, 2, 79, 83
4, 86016, Note_on_c, 2, 67, 83
4, 86396, Note_off_c, 2, 79, 0
4, 86396, Note_off_c, 2, 67, 0
4, 87168, Note_on_c, 2, 66, 75
4, 87168, Note_on_c, 2, 60, 75
4, 87548, Note_off_c, 2, 66, 0
4, 87548, Note_off_c, 2, 60, 0
4, 87552, Note_on_c, 2, 67, 70
4, 87552, Note_on_c, 2, 59, 70
4, 87932, Note_off_c, 2, 67, 0
4, 87932, Note_off_c, 2, 59, 0
4, 90624, Note_on_c, 2, 62, 83
4, 90812, Note_off_c, 2, 62, 0
4, 90816, Note_on_c, 2, 74, 83
4, 91004, Note_off_c, 2, 74, 0
4, 91008, Note_on_c, 2, 74, 83
4, 91100, Note_off_c, 2, 74, 0
4, 91200, Note_on_c, 2, 74, 83
4, 91292, Note_off_c, 2, 74, 0
4, 91392, Note_on_c, 2, 73, 83
4, 91580, Note_off_c, 2, 73, 0
4, 91584, Note_on_c, 2, 74, 83
4, 91772, Note_off_c, 2, 74, 0
4, 91776, Note_on_c, 2, 78, 83
4, 91964, Note_off_c, 2, 78, 0
4, 91968, Note_on_c, 2, 74, 83
4, 92156, Note_off_c, 2, 74, 0
4, 92160, Note_on_c, 2, 69, 83
4, 92540, Note_off_c, 2, 69, 0
4, 93696, Note_on_c, 2, 62, 76
4, 93884, Note_off_c, 2, 62, 0
4, 93888, Note_on_c, 2, 74, 76
4, 94076, Note_off_c, 2, 74, 0
4, 94080, Note_on_c, 2, 74, 76
4, 94172, Note_off_c, 2, 74, 0
4, 94272, Note_on_c, 2, 74, 77
4, 94364, Note_off_c, 2, 74, 0
4, 94464, Note_on_c, 2, 73, 78
4, 94652, Note_off_c, 2, 73, 0
4, 94656, Note_on_c, 2, 74, 80
4, 94844, Note_off_c, 2, 74, 0
4, 94848, Note_on_c, 2, 78, 81
4, 95036, Note_off_c, 2, 78, 0
4, 95040, Note_on_c, 2, 74, 82
4, 95228, Note_off_c, 2, 74, 0
4, 95232, Note_on_c, 2, 79, 83
4, 95232, Note_on_c, 2, 67, 83
4, 96380, Note_off_c, 2, 79, 0
4, 96380, Note_off_c, 2, 67, 0
4, 96384, Note_on_c, 2, 78, 83
4, 96384, Note_on_c, 2, 66, 83
4, 96764, Note_off_c, 2, 78, 0
4, 96764, Note_off_c, 2, 66, 0
4, 96768, Note_on_c, 2, 77, 83
4, 96768, Note_on_c, 2, 65, 83
4, 97148, Note_off_c, 2, 77, 0
4, 97148, Note_off_c, 2, 65, 0
4, 97152, Note_on_c, 2, 76, 83
4, 97152, Note_on_c, 2, 64, 83
4, 97532, Note_off_c, 2, 76, 0
4, 97532, Note_off_c, 2, 64, 0
4, 97920, Note_on_c, 2, 78, 83
4, 97920, Note_on_c, 2, 69, 83
4, 98300, Note_off_c, 2, 78, 0
4, 98300, Note_off_c, 2, 69, 0
4, 98304, Note_on_c, 2, 79, 83
4, 98304, Note_on_c, 2, 67, 83
4, 98684, Note_off_c, 2, 79, 0
4, 98684, Note_off_c, 2, 67, 0
4, 99456, Note_on_c, 2, 66, 75
4, 99456, Note_on_c, 2, 60, 75
4, 99836, Note_off_c, 2, 66, 0
4, 99836, Note_off_c, 2, 60, 0
4, 99840, Note_on_c, 2, 67, 66
4, 99840, Note_on_c, 2, 59, 66
4, 100220, Note_off_c, 2, 67, 0
4, 100220, Note_off_c, 2, 59, 0
4, 100992, Note_on_c, 2, 71, 66
4, 100992, Note_on_c, 2, 67, 66
4, 101180, Note_off_c, 2, 71, 0
4, 101180, Note_off_c, 2, 67, 0
4, 101184, Note_on_c, 2, 72, 66
4, 101184, Note_on_c, 2, 69, 66
4, 101372, Note_off_c, 2, 72, 0
4, 101372, Note_off_c, 2, 69, 0
4, 101376, Note_on_c, 2, 74, 66
4, 101376, Note_on_c, 2, 71, 66
4, 101564, Note_off_c, 2, 74, 0
4, 101564, Note_off_c, 2, 71, 0
4, 101760, Note_on_c, 2, 74, 66
4, 101760, Note_on_c, 2, 71, 66
4, 101948, Note_off_c, 2, 74, 0
4, 101948, Note_off_c, 2, 71, 0
4, 102144, Note_on_c, 2, 74, 66
4, 102144, Note_on_c, 2, 71, 66
4, 102524, Note_off_c, 2, 74, 0
4, 102524, Note_off_c, 2, 71, 0
4, 102528, Note_on_c, 2, 79, 66
4, 102908, Note_off_c, 2, 79, 0
4, 102912, Note_on_c, 2, 79, 66
4, 102956, Note_off_c, 2, 79, 0
4, 102960, Note_on_c, 2, 78, 66
4, 102960, Note_on_c, 2, 72, 66
4, 103148, Note_off_c, 2, 78, 0
4, 103148, Note_off_c, 2, 72, 0
4, 103296, Note_on_c, 2, 78, 66
4, 103484, Note_off_c, 2, 78, 0
4, 103680, Note_on_c, 2, 81, 66
4, 103724, Note_off_c, 2, 81, 0
4, 103728, Note_on_c, 2, 79, 66
4, 103728, Note_on_c, 2, 71, 66
4, 103916, Note_off_c, 2, 79, 0
4, 103916, Note_off_c, 2, 71, 0
4, 104064, Note_on_c, 2, 79, 66
4, 104252, Note_off_c, 2, 79, 0
4, 104448, Note_on_c, 2, 83, 66
4, 104492, Note_off_c, 2, 83, 0
4, 104496, Note_on_c, 2, 81, 66
4, 104496, Note_on_c, 2, 79, 66
4, 104496, Note_on_c, 2, 76, 66
4, 104684, Note_off_c, 2, 81, 0
4, 104684, Note_off_c, 2, 79, 0
4, 104684, Note_off_c, 2, 76, 0
4, 104832, Note_on_c, 2, 81, 66
4, 105020, Note_off_c, 2, 81, 0
4, 105216, Note_on_c, 2, 81, 66
4, 105216, Note_on_c, 2, 78, 66
4, 105404, Note_off_c, 2, 81, 0
4, 105404, Note_off_c, 2, 78, 0
4, 105408, Note_on_c, 2, 83, 66
4, 105408, Note_on_c, 2, 79, 66
4, 105596, Note_off_c, 2, 83, 0
4, 105596, Note_off_c, 2, 79, 0
4, 105600, Note_on_c, 2, 84, 66
4, 105600, Note_on_c, 2, 81, 66
4, 105788, Note_off_c, 2, 84, 0
4, 105788, Note_off_c, 2, 81, 0
4, 105792, Note_on_c, 2, 81, 66
4, 105792, Note_on_c, 2, 78, 66
4, 105980, Note_off_c, 2, 81, 0
4, 105980, Note_off_c, 2, 78, 0
4, 105984, Note_on_c, 2, 83, 66
4, 105984, Note_on_c, 2, 79, 66
4, 106748, Note_off_c, 2, 83, 0
4, 106748, Note_off_c, 2, 79, 0
4, 107136, Note_on_c, 2, 86, 66
4, 107136, Note_on_c, 2, 83, 66
4, 107324, Note_off_c, 2, 86, 0
4, 107324, Note_off_c, 2, 83, 0
4, 107328, Note_on_c, 2, 83, 66
4, 107328, Note_on_c, 2, 79, 66
4, 107516, Note_off_c, 2, 83, 0
4, 107516, Note_off_c, 2, 79, 0
4, 107520, Note_on_c, 2, 81, 66
4, 107520, Note_on_c, 2, 78, 66
4, 107708, Note_off_c, 2, 81, 0
4, 107708, Note_off_c, 2, 78, 0
4, 107904, Note_on_c, 2, 81, 66
4, 107904, Note_on_c, 2, 78, 66
4, 108092, Note_off_c, 2, 81, 0
4, 108092, Note_off_c, 2, 78, 0
4, 108288, Note_on_c, 2, 81, 66
4, 108288, Note_on_c, 2, 78, 66
4, 108288, Note_on_c, 2, 75, 66
4, 108668, Note_off_c, 2, 81, 0
4, 108668, Note_off_c, 2, 78, 0
4, 108668, Note_off_c, 2, 75, 0
4, 108672, Note_on_c, 2, 83, 66
4, 109052, Note_off_c, 2, 83, 0
4, 109056, Note_on_c, 2, 81, 66
4, 109100, Note_off_c, 2, 81, 0
4, 109104, Note_on_c, 2, 79, 66
4, 109104, Note_on_c, 2, 76, 66
4, 109292, Note_off_c, 2, 79, 0
4, 109292, Note_off_c, 2, 76, 0
4, 109440, Note_on_c, 2, 79, 66
4, 109440, Note_on_c, 2, 76, 66
4, 109440, Note_on_c, 2, 73, 66
4, 109628, Note_off_c, 2, 79, 0
4, 109628, Note_off_c, 2, 76, 0
4, 109628, Note_off_c, 2, 73, 0
4, 109824, Note_on_c, 2, 79, 66
4, 109868, Note_off_c, 2, 79, 0
4, 109872, Note_on_c, 2, 78, 66
4, 109872, Note_on_c, 2, 74, 66
4, 110060, Note_off_c, 2, 78, 0
4, 110060, Note_off_c, 2, 74, 0
4, 110208, Note_on_c, 2, 78, 66
4, 110208, Note_on_c, 2, 74, 66
4, 110396, Note_off_c, 2, 78, 0
4, 110396, Note_off_c, 2, 74, 0
4, 110592, Note_on_c, 2, 78, 66
4, 110636, Note_off_c, 2, 78, 0
4, 110640, Note_on_c, 2, 76, 66
4, 110640, Note_on_c, 2, 74, 66
4, 110828, Note_off_c, 2, 76, 0
4, 110828, Note_off_c, 2, 74, 0
4, 110976, Note_on_c, 2, 76, 66
4, 110976, Note_on_c, 2, 74, 66
4, 111164, Note_off_c, 2, 76, 0
4, 111164, Note_off_c, 2, 74, 0
4, 111360, Note_on_c, 2, 76, 66
4, 111360, Note_on_c, 2, 73, 66
4, 111548, Note_off_c, 2, 76, 0
4, 111548, Note_off_c, 2, 73, 0
4, 111552, Note_on_c, 2, 78, 66
4, 111552, Note_on_c, 2, 74, 66
4, 111740, Note_off_c, 2, 78, 0
4, 111740, Note_off_c, 2, 74, 0
4, 111744, Note_on_c, 2, 79, 66
4, 111744, Note_on_c, 2, 76, 66
4, 111932, Note_off_c, 2, 79, 0
4, 111932, Note_off_c, 2, 76, 0
4, 111936, Note_on_c, 2, 76, 66
4, 111936, Note_on_c, 2, 73, 66
4, 112124, Note_off_c, 2, 76, 0
4, 112124, Note_off_c, 2, 73, 0
4, 112128, Note_on_c, 2, 74, 66
4, 112128, Note_on_c, 2, 66, 66
4, 112892, Note_off_c, 2, 74, 0
4, 112892, Note_off_c, 2, 66, 0
4, 113280, Note_on_c, 2, 59, 66
4, 113280, Note_on_c, 2, 55, 66
4, 113468, Note_off_c, 2, 59, 0
4, 113468, Note_off_c, 2, 55, 0
4, 113472, Note_on_c, 2, 60, 66
4, 113472, Note_on_c, 2, 57, 66
4, 113660, Note_off_c, 2, 60, 0
4, 113660, Note_off_c, 2, 57, 0
4, 113664, Note_on_c, 2, 62, 66
4, 113664, Note_on_c, 2, 59, 66
4, 114044, Note_off_c, 2, 62, 0
4, 114044, Note_off_c, 2, 59, 0
4, 114048, Note_on_c, 2, 62, 66
4, 114048, Note_on_c, 2, 59, 66
4, 114236, Note_off_c, 2, 62, 0
4, 114236, Note_off_c, 2, 59, 0
4, 114432, Note_on_c, 2, 62, 66
4, 114432, Note_on_c, 2, 59, 66
4, 114812, Note_off_c, 2, 62, 0
4, 114812, Note_off_c, 2, 59, 0
4, 114816, Note_on_c, 2, 67, 66
4, 115196, Note_off_c, 2, 67, 0
4, 115200, Note_on_c, 2, 67, 66
4, 115244, Note_off_c, 2, 67, 0
4, 115248, Note_on_c, 2, 66, 66
4, 115248, Note_on_c, 2, 62, 66
4, 115436, Note_off_c, 2, 66, 0
4, 115436, Note_off_c, 2, 62, 0
4, 115584, Note_on_c, 2, 66, 66
4, 115772, Note_off_c, 2, 66, 0
4, 115968, Note_on_c, 2, 69, 66
4, 116012, Note_off_c, 2, 69, 0
4, 116016, Note_on_c, 2, 67, 66
4, 116016, Note_on_c, 2, 62, 66
4, 116204, Note_off_c, 2, 67, 0
4, 116204, Note_off_c, 2, 62, 0
4, 116352, Note_on_c, 2, 67, 66
4, 116540, Note_off_c, 2, 67, 0
4, 116736, Note_on_c, 2, 71, 66
4, 116780, Note_off_c, 2, 71, 0
4, 116784, Note_on_c, 2, 69, 66
4, 116784, Note_on_c, 2, 67, 66
4, 116784, Note_on_c, 2, 64, 66
4, 116972, Note_off_c, 2, 69, 0
4, 117120, Note_on_c, 2, 69, 66
4, 117308, Note_off_c, 2, 69, 0
4, 117356, Note_off_c, 2, 67, 0
4, 117356, Note_off_c, 2, 64, 0
4, 117504, Note_on_c, 2, 62, 66
4, 117504, Note_on_c, 2, 66, 66
4, 117504, Note_on_c, 2, 69, 66
4, 117692, Note_off_c, 2, 66, 0
4, 117692, Note_off_c, 2, 69, 0
4, 117696, Note_on_c, 2, 67, 66
4, 117696, Note_on_c, 2, 71, 66
4, 117884, Note_off_c, 2, 67, 0
4, 117884, Note_off_c, 2, 71, 0
4, 117888, Note_on_c, 2, 69, 66
4, 117888, Note_on_c, 2, 72, 66
4, 118076, Note_off_c, 2, 69, 0
4, 118076, Note_off_c, 2, 72, 0
4, 118080, Note_on_c, 2, 66, 66
4, 118080, Note_on_c, 2, 69, 66
4, 118268, Note_off_c, 2, 62, 0
4, 118268, Note_off_c, 2, 66, 0
4, 118268, Note_off_c, 2, 69, 0
4, 118272, Note_on_c, 2, 71, 66
4, 118272, Note_on_c, 2, 67, 66
4, 118272, Note_on_c, 2, 62, 66
4, 119036, Note_off_c, 2, 71, 0
4, 119036, Note_off_c, 2, 67, 0
4, 119036, Note_off_c, 2, 62, 0
4, 119424, Note_on_c, 2, 74, 66
4, 119424, Note_on_c, 2, 71, 66
4, 119612, Note_off_c, 2, 74, 0
4, 119612, Note_off_c, 2, 71, 0
4, 119616, Note_on_c, 2, 71, 66
4, 119616, Note_on_c, 2, 67, 66
4, 119804, Note_off_c, 2, 71, 0
4, 119804, Note_off_c, 2, 67, 0
4, 119808, Note_on_c, 2, 69, 66
4, 119808, Note_on_c, 2, 66, 66
4, 119996, Note_off_c, 2, 69, 0
4, 119996, Note_off_c, 2, 66, 0
4, 120192, Note_on_c, 2, 69, 66
4, 120192, Note_on_c, 2, 66, 66
4, 120380, Note_off_c, 2, 69, 0
4, 120380, Note_off_c, 2, 66, 0
4, 120576, Note_on_c, 2, 69, 66
4, 120576, Note_on_c, 2, 66, 66
4, 120956, Note_off_c, 2, 69, 0
4, 120960, Note_on_c, 2, 63, 66
4, 120960, Note_on_c, 2, 71, 66
4, 121340, Note_off_c, 2, 66, 0
4, 121340, Note_off_c, 2, 63, 0
4, 121340, Note_off_c, 2, 71, 0
4, 121344, Note_on_c, 2, 69, 66
4, 121388, Note_off_c, 2, 69, 0
4, 121392, Note_on_c, 2, 64, 66
4, 121392, Note_on_c, 2, 67, 66
4, 121580, Note_off_c, 2, 67, 0
4, 121728, Note_on_c, 2, 67, 66
4, 121728, Note_on_c, 2, 61, 66
4, 121916, Note_off_c, 2, 67, 0
4, 121916, Note_off_c, 2, 61, 0
4, 122112, Note_on_c, 2, 67, 66
4, 122156, Note_off_c, 2, 64, 0
4, 122156, Note_off_c, 2, 67, 0
4, 122160, Note_on_c, 2, 66, 66
4, 122160, Note_on_c, 2, 62, 66
4, 122348, Note_off_c, 2, 66, 0
4, 122496, Note_on_c, 2, 66, 66
4, 122684, Note_off_c, 2, 66, 0
4, 122864, Note_off_c, 2, 62, 0
4, 122880, Note_on_c, 2, 66, 66
4, 122924, Note_off_c, 2, 66, 0
4, 122928, Note_on_c, 2, 64, 66
4, 122928, Note_on_c, 2, 62, 66
4, 122928, Note_on_c, 2, 59, 66
4, 123116, Note_off_c, 2, 64, 0
4, 123264, Note_on_c, 2, 64, 66
4, 123452, Note_off_c, 2, 64, 0
4, 123648, Note_on_c, 2, 64, 66
4, 123648, Note_on_c, 2, 61, 66
4, 123692, Note_off_c, 2, 62, 0
4, 123692, Note_off_c, 2, 59, 0
4, 123836, Note_off_c, 2, 64, 0
4, 123836, Note_off_c, 2, 61, 0
4, 123840, Note_on_c, 2, 66, 66
4, 123840, Note_on_c, 2, 62, 66
4, 124028, Note_off_c, 2, 66, 0
4, 124028, Note_off_c, 2, 62, 0
4, 124032, Note_on_c, 2, 67, 66
4, 124032, Note_on_c, 2, 64, 66
4, 124220, Note_off_c, 2, 67, 0
4, 124220, Note_off_c, 2, 64, 0
4, 124224, Note_on_c, 2, 64, 66
4, 124224, Note_on_c, 2, 61, 66
4, 124412, Note_off_c, 2, 64, 0
4, 124412, Note_off_c, 2, 61, 0
4, 124416, Note_on_c, 2, 66, 66
4, 124416, Note_on_c, 2, 62, 66
4, 125180, Note_off_c, 2, 66, 0
4, 125180, Note_off_c, 2, 62, 0
4, 125568, Note_on_c, 2, 78, 66
4, 125756, Note_off_c, 2, 78, 0
4, 125760, Note_on_c, 2, 74, 66
4, 125948, Note_off_c, 2, 74, 0
4, 125952, Note_on_c, 2, 81, 66
4, 125952, Note_on_c, 2, 69, 66
4, 126140, Note_off_c, 2, 81, 0
4, 126140, Note_off_c, 2, 69, 0
4, 126336, Note_on_c, 2, 81, 66
4, 126336, Note_on_c, 2, 69, 66
4, 126524, Note_off_c, 2, 81, 0
4, 126524, Note_off_c, 2, 69, 0
4, 126720, Note_on_c, 2, 81, 66
4, 126720, Note_on_c, 2, 69, 66
4, 126908, Note_off_c, 2, 81, 0
4, 126908, Note_off_c, 2, 69, 0
4, 127104, Note_on_c, 2, 81, 66
4, 127104, Note_on_c, 2, 76, 66
4, 127104, Note_on_c, 2, 69, 66
4, 127292, Note_off_c, 2, 81, 0
4, 127292, Note_off_c, 2, 76, 0
4, 127292, Note_off_c, 2, 69, 0
4, 127488, Note_on_c, 2, 79, 66
4, 127488, Note_on_c, 2, 76, 66
4, 127488, Note_on_c, 2, 69, 66
4, 127868, Note_off_c, 2, 79, 0
4, 127868, Note_off_c, 2, 76, 0
4, 127872, Note_on_c, 2, 78, 66
4, 127872, Note_on_c, 2, 74, 66
4, 128252, Note_off_c, 2, 69, 0
4, 128252, Note_off_c, 2, 78, 0
4, 128252, Note_off_c, 2, 74, 0
4, 128640, Note_on_c, 2, 78, 66
4, 128828, Note_off_c, 2, 78, 0
4, 128832, Note_on_c, 2, 74, 66
4, 129020, Note_off_c, 2, 74, 0
4, 129024, Note_on_c, 2, 81, 66
4, 129116, Note_off_c, 2, 81, 0
4, 129216, Note_on_c, 2, 81, 66
4, 129308, Note_off_c, 2, 81, 0
4, 129408, Note_on_c, 2, 81, 66
4, 129500, Note_off_c, 2, 81, 0
4, 129600, Note_on_c, 2, 81, 66
4, 129692, Note_off_c, 2, 81, 0
4, 129792, Note_on_c, 2, 81, 66
4, 129884, Note_off_c, 2, 81, 0
4, 129984, Note_on_c, 2, 81, 66
4, 130076, Note_off_c, 2, 81, 0
4, 130176, Note_on_c, 2, 81, 66
4, 130176, Note_on_c, 2, 76, 66
4, 130268, Note_off_c, 2, 81, 0
4, 130268, Note_off_c, 2, 76, 0
4, 130368, Note_on_c, 2, 81, 66
4, 130460, Note_off_c, 2, 81, 0
4, 130560, Note_on_c, 2, 79, 66
4, 130560, Note_on_c, 2, 74, 66
4, 130560, Note_on_c, 2, 69, 66
4, 130940, Note_off_c, 2, 79, 0
4, 130944, Note_on_c, 2, 78, 66
4, 131324, Note_off_c, 2, 74, 0
4, 131324, Note_off_c, 2, 69, 0
4, 131324, Note_off_c, 2, 78, 0
4, 131712, Note_on_c, 2, 81, 66
4, 131900, Note_off_c, 2, 81, 0
4, 131904, Note_on_c, 2, 74, 66
4, 132092, Note_off_c, 2, 74, 0
4, 132096, Note_on_c, 2, 86, 66
4, 132096, Note_on_c, 2, 83, 66
4, 132096, Note_on_c, 2, 79, 66
4, 132284, Note_off_c, 2, 86, 0
4, 132284, Note_off_c, 2, 83, 0
4, 132284, Note_off_c, 2, 79, 0
4, 132480, Note_on_c, 2, 86, 66
4, 132480, Note_on_c, 2, 83, 66
4, 132480, Note_on_c, 2, 80, 66
4, 132668, Note_off_c, 2, 86, 0
4, 132668, Note_off_c, 2, 83, 0
4, 132668, Note_off_c, 2, 80, 0
4, 132864, Note_on_c, 2, 86, 66
4, 132908, Note_off_c, 2, 86, 0
4, 132912, Note_on_c, 2, 84, 66
4, 132912, Note_on_c, 2, 81, 66
4, 132912, Note_on_c, 2, 76, 66
4, 133100, Note_off_c, 2, 84, 0
4, 133100, Note_off_c, 2, 81, 0
4, 133100, Note_off_c, 2, 76, 0
4, 133248, Note_on_c, 2, 84, 66
4, 133248, Note_on_c, 2, 81, 66
4, 133248, Note_on_c, 2, 78, 66
4, 133436, Note_off_c, 2, 84, 0
4, 133436, Note_off_c, 2, 81, 0
4, 133436, Note_off_c, 2, 78, 0
4, 133632, Note_on_c, 2, 84, 66
4, 133676, Note_off_c, 2, 84, 0
4, 133680, Note_on_c, 2, 79, 66
4, 133680, Note_on_c, 2, 74, 66
4, 133680, Note_on_c, 2, 83, 66
4, 133868, Note_off_c, 2, 79, 0
4, 133868, Note_off_c, 2, 74, 0
4, 133868, Note_off_c, 2, 83, 0
4, 134016, Note_on_c, 2, 79, 66
4, 134016, Note_on_c, 2, 74, 66
4, 134016, Note_on_c, 2, 83, 66
4, 134204, Note_off_c, 2, 79, 0
4, 134204, Note_off_c, 2, 74, 0
4, 134204, Note_off_c, 2, 83, 0
4, 134400, Note_on_c, 2, 83, 66
4, 134400, Note_on_c, 2, 72, 66
4, 134400, Note_on_c, 2, 76, 66
4, 134400, Note_on_c, 2, 81, 66
4, 134444, Note_off_c, 2, 83, 0
4, 134588, Note_off_c, 2, 76, 0
4, 134588, Note_off_c, 2, 81, 0
4, 134784, Note_on_c, 2, 81, 66
4, 134784, Note_on_c, 2, 78, 66
4, 134972, Note_off_c, 2, 81, 0
4, 134972, Note_off_c, 2, 78, 0
4, 135164, Note_off_c, 2, 72, 0
4, 135168, Note_on_c, 2, 81, 66
4, 135212, Note_off_c, 2, 81, 0
4, 135216, Note_on_c, 2, 79, 66
4, 135216, Note_on_c, 2, 76, 66
4, 135216, Note_on_c, 2, 71, 66
4, 135404, Note_off_c, 2, 79, 0
4, 135404, Note_off_c, 2, 76, 0
4, 135404, Note_off_c, 2, 71, 0
4, 135552, Note_on_c, 2, 79, 66
4, 135552, Note_on_c, 2, 76, 66
4, 135552, Note_on_c, 2, 70, 66
4, 135740, Note_off_c, 2, 79, 0
4, 135740, Note_off_c, 2, 76, 0
4, 135740, Note_off_c, 2, 70, 0
4, 135936, Note_on_c, 2, 74, 66
4, 135936, Note_on_c, 2, 69, 66
4, 135936, Note_on_c, 2, 78, 66
4, 136124, Note_off_c, 2, 69, 0
4, 136124, Note_off_c, 2, 78, 0
4, 136128, Note_on_c, 2, 79, 66
4, 136128, Note_on_c, 2, 71, 66
4, 136316, Note_off_c, 2, 74, 0
4, 136316, Note_off_c, 2, 79, 0
4, 136316, Note_off_c, 2, 71, 0
4, 136320, Note_on_c, 2, 74, 66
4, 136320, Note_on_c, 2, 81, 66
4, 136320, Note_on_c, 2, 72, 66
4, 136508, Note_off_c, 2, 81, 0
4, 136508, Note_off_c, 2, 72, 0
4, 136512, Note_on_c, 2, 78, 66
4, 136512, Note_on_c, 2, 69, 66
4, 136700, Note_off_c, 2, 74, 0
4, 136700, Note_off_c, 2, 78, 0
4, 136700, Note_off_c, 2, 69, 0
4, 136704, Note_on_c, 2, 79, 66
4, 136704, Note_on_c, 2, 74, 66
4, 136704, Note_on_c, 2, 71, 66
4, 137468, Note_off_c, 2, 79, 0
4, 137468, Note_off_c, 2, 74, 0
4, 137468, Note_off_c, 2, 71, 0
4, 137856, Note_on_c, 2, 66, 66
4, 138044, Note_off_c, 2, 66, 0
4, 138048, Note_on_c, 2, 62, 66
4, 138236, Note_off_c, 2, 62, 0
4, 138240, Note_on_c, 2, 69, 66
4, 138428, Note_off_c, 2, 69, 0
4, 138624, Note_on_c, 2, 69, 66
4, 138624, Note_on_c, 2, 61, 66
4, 138624, Note_on_c, 2, 57, 66
4, 138812, Note_off_c, 2, 69, 0
4, 138812, Note_off_c, 2, 61, 0
4, 138812, Note_off_c, 2, 57, 0
4, 139008, Note_on_c, 2, 69, 66
4, 139008, Note_on_c, 2, 64, 66
4, 139008, Note_on_c, 2, 61, 66
4, 139196, Note_off_c, 2, 69, 0
4, 139196, Note_off_c, 2, 64, 0
4, 139196, Note_off_c, 2, 61, 0
4, 139392, Note_on_c, 2, 69, 66
4, 139392, Note_on_c, 2, 67, 66
4, 139392, Note_on_c, 2, 64, 66
4, 139580, Note_off_c, 2, 69, 0
4, 139580, Note_off_c, 2, 67, 0
4, 139580, Note_off_c, 2, 64, 0
4, 139776, Note_on_c, 2, 67, 63
4, 139776, Note_on_c, 2, 64, 63
4, 140156, Note_off_c, 2, 67, 0
4, 140156, Note_off_c, 2, 64, 0
4, 140160, Note_on_c, 2, 66, 60
4, 140160, Note_on_c, 2, 62, 60
4, 140540, Note_off_c, 2, 66, 0
4, 140540, Note_off_c, 2, 62, 0
4, 140928, Note_on_c, 2, 66, 55
4, 141116, Note_off_c, 2, 66, 0
4, 141120, Note_on_c, 2, 62, 55
4, 141308, Note_off_c, 2, 62, 0
4, 141312, Note_on_c, 2, 69, 66
4, 141404, Note_off_c, 2, 69, 0
4, 141504, Note_on_c, 2, 69, 71
4, 141596, Note_off_c, 2, 69, 0
4, 141696, Note_on_c, 2, 69, 76
4, 141696, Note_on_c, 2, 61, 76
4, 141696, Note_on_c, 2, 57, 76
4, 141788, Note_off_c, 2, 69, 0
4, 141888, Note_on_c, 2, 69, 80
4, 141980, Note_off_c, 2, 69, 0
4, 142076, Note_off_c, 2, 61, 0
4, 142076, Note_off_c, 2, 57, 0
4, 142080, Note_on_c, 2, 69, 83
4, 142080, Note_on_c, 2, 64, 83
4, 142080, Note_on_c, 2, 61, 83
4, 142172, Note_off_c, 2, 69, 0
4, 142272, Note_on_c, 2, 69, 83
4, 142364, Note_off_c, 2, 69, 0
4, 142460, Note_off_c, 2, 64, 0
4, 142460, Note_off_c, 2, 61, 0
4, 142464, Note_on_c, 2, 69, 83
4, 142464, Note_on_c, 2, 67, 83
4, 142464, Note_on_c, 2, 64, 83
4, 142556, Note_off_c, 2, 69, 0
4, 142656, Note_on_c, 2, 69, 83
4, 142748, Note_off_c, 2, 69, 0
4, 142844, Note_off_c, 2, 67, 0
4, 142844, Note_off_c, 2, 64, 0
4, 142848, Note_on_c, 2, 67, 80
4, 142848, Note_on_c, 2, 64, 80
4, 142848, Note_on_c, 2, 57, 80
4, 143228, Note_off_c, 2, 67, 0
4, 143228, Note_off_c, 2, 64, 0
4, 143232, Note_on_c, 2, 66, 72
4, 143232, Note_on_c, 2, 62, 72
4, 143612, Note_off_c, 2, 57, 0
4, 143612, Note_off_c, 2, 66, 0
4, 143612, Note_off_c, 2, 62, 0
4, 144000, Note_on_c, 2, 66, 67
4, 144000, Note_on_c, 2, 69, 67
4, 144188, Note_off_c, 2, 69, 0
4, 144192, Note_on_c, 2, 62, 68
4, 144380, Note_off_c, 2, 66, 0
4, 144380, Note_off_c, 2, 62, 0
4, 144384, Note_on_c, 2, 74, 71
4, 144384, Note_on_c, 2, 67, 71
4, 144384, Note_on_c, 2, 62, 71
4, 144572, Note_off_c, 2, 74, 0
4, 144768, Note_on_c, 2, 74, 75
4, 144956, Note_off_c, 2, 74, 0
4, 145148, Note_off_c, 2, 67, 0
4, 145148, Note_off_c, 2, 62, 0
4, 145152, Note_on_c, 2, 74, 78
4, 145196, Note_off_c, 2, 74, 0
4, 145200, Note_on_c, 2, 72, 80
4, 145200, Note_on_c, 2, 62, 80
4, 145200, Note_on_c, 2, 66, 80
4, 145388, Note_off_c, 2, 72, 0
4, 145536, Note_on_c, 2, 72, 81
4, 145724, Note_off_c, 2, 72, 0
4, 145904, Note_off_c, 2, 62, 0
4, 145904, Note_off_c, 2, 66, 0
4, 145920, Note_on_c, 2, 72, 96
4, 145960, Note_off_c, 2, 72, 0
4, 145968, Note_on_c, 2, 71, 83
4, 145968, Note_on_c, 2, 67, 83
4, 145968, Note_on_c, 2, 62, 83
4, 146156, Note_off_c, 2, 71, 0
4, 146304, Note_on_c, 2, 71, 83
4, 146492, Note_off_c, 2, 71, 0
4, 146688, Note_on_c, 2, 71, 96
4, 146728, Note_off_c, 2, 71, 0
4, 146732, Note_off_c, 2, 67, 0
4, 146732, Note_off_c, 2, 62, 0
4, 146736, Note_on_c, 2, 69, 83
4, 146736, Note_on_c, 2, 64, 83
4, 146736, Note_on_c, 2, 60, 83
4, 146924, Note_off_c, 2, 69, 0
4, 147072, Note_on_c, 2, 69, 80
4, 147260, Note_off_c, 2, 69, 0
4, 147440, Note_off_c, 2, 64, 0
4, 147440, Note_off_c, 2, 60, 0
4, 147456, Note_on_c, 2, 69, 91
4, 147456, Note_on_c, 2, 62, 77
4, 147496, Note_off_c, 2, 69, 0
4, 147504, Note_on_c, 2, 67, 75
4, 147692, Note_off_c, 2, 67, 0
4, 147840, Note_on_c, 2, 67, 72
4, 148028, Note_off_c, 2, 67, 0
4, 148220, Note_off_c, 2, 62, 0
4, 148224, Note_on_c, 2, 62, 70
4, 148224, Note_on_c, 2, 66, 70
4, 148412, Note_off_c, 2, 66, 0
4, 148416, Note_on_c, 2, 67, 67
4, 148604, Note_off_c, 2, 67, 0
4, 148608, Note_on_c, 2, 69, 66
4, 148796, Note_off_c, 2, 69, 0
4, 148800, Note_on_c, 2, 66, 66
4, 148988, Note_off_c, 2, 62, 0
4, 148988, Note_off_c, 2, 66, 0
4, 148992, Note_on_c, 2, 67, 66
4, 148992, Note_on_c, 2, 62, 66
4, 148992, Note_on_c, 2, 59, 66
4, 149756, Note_off_c, 2, 67, 0
4, 149756, Note_off_c, 2, 62, 0
4, 149756, Note_off_c, 2, 59, 0
4, 150144, Note_on_c, 2, 71, 73
4, 150332, Note_off_c, 2, 71, 0
4, 150336, Note_on_c, 2, 72, 73
4, 150524, Note_off_c, 2, 72, 0
4, 150528, Note_on_c, 2, 76, 73
4, 150716, Note_off_c, 2, 76, 0
4, 150720, Note_on_c, 2, 74, 73
4, 150908, Note_off_c, 2, 74, 0
4, 150912, Note_on_c, 2, 74, 73
4, 151292, Note_off_c, 2, 74, 0
4, 151296, Note_on_c, 2, 74, 73
4, 151484, Note_off_c, 2, 74, 0
4, 151488, Note_on_c, 2, 76, 73
4, 151676, Note_off_c, 2, 76, 0
4, 151680, Note_on_c, 2, 78, 73
4, 151868, Note_off_c, 2, 78, 0
4, 151872, Note_on_c, 2, 79, 73
4, 152060, Note_off_c, 2, 79, 0
4, 152064, Note_on_c, 2, 81, 73
4, 152252, Note_off_c, 2, 81, 0
4, 152256, Note_on_c, 2, 79, 73
4, 152444, Note_off_c, 2, 79, 0
4, 152448, Note_on_c, 2, 78, 73
4, 153212, Note_off_c, 2, 78, 0
4, 153216, Note_on_c, 2, 78, 73
4, 153596, Note_off_c, 2, 78, 0
4, 153600, Note_on_c, 2, 80, 73
4, 153788, Note_off_c, 2, 80, 0
4, 153792, Note_on_c, 2, 81, 73
4, 153980, Note_off_c, 2, 81, 0
4, 153984, Note_on_c, 2, 81, 73
4, 154364, Note_off_c, 2, 81, 0
4, 154368, Note_on_c, 2, 81, 73
4, 154556, Note_off_c, 2, 81, 0
4, 154560, Note_on_c, 2, 88, 73
4, 154748, Note_off_c, 2, 88, 0
4, 154752, Note_on_c, 2, 86, 73
4, 154940, Note_off_c, 2, 86, 0
4, 154944, Note_on_c, 2, 84, 73
4, 155132, Note_off_c, 2, 84, 0
4, 155136, Note_on_c, 2, 86, 73
4, 155228, Note_off_c, 2, 86, 0
4, 155232, Note_on_c, 2, 84, 73
4, 155324, Note_off_c, 2, 84, 0
4, 155328, Note_on_c, 2, 83, 73
4, 155420, Note_off_c, 2, 83, 0
4, 155424, Note_on_c, 2, 84, 73
4, 155516, Note_off_c, 2, 84, 0
4, 155520, Note_on_c, 2, 83, 73
4, 155900, Note_off_c, 2, 83, 0
4, 156096, Note_on_c, 2, 62, 73
4, 156284, Note_off_c, 2, 62, 0
4, 156288, Note_on_c, 2, 67, 73
4, 156476, Note_off_c, 2, 67, 0
4, 156480, Note_on_c, 2, 71, 73
4, 156668, Note_off_c, 2, 71, 0
4, 156672, Note_on_c, 2, 71, 73
4, 156860, Note_off_c, 2, 71, 0
4, 156864, Note_on_c, 2, 69, 73
4, 157052, Note_off_c, 2, 69, 0
4, 157056, Note_on_c, 2, 69, 73
4, 157436, Note_off_c, 2, 69, 0
4, 157440, Note_on_c, 2, 69, 73
4, 157628, Note_off_c, 2, 69, 0
4, 157632, Note_on_c, 2, 78, 73
4, 157820, Note_off_c, 2, 78, 0
4, 157824, Note_on_c, 2, 74, 73
4, 158012, Note_off_c, 2, 74, 0
4, 158016, Note_on_c, 2, 71, 73
4, 158204, Note_off_c, 2, 71, 0
4, 158208, Note_on_c, 2, 69, 73
4, 158396, Note_off_c, 2, 69, 0
4, 158400, Note_on_c, 2, 67, 73
4, 158588, Note_off_c, 2, 67, 0
4, 158592, Note_on_c, 2, 79, 73
4, 158592, Note_on_c, 2, 76, 73
4, 158592, Note_on_c, 2, 69, 73
4, 159356, Note_off_c, 2, 79, 0
4, 159356, Note_off_c, 2, 76, 0
4, 159356, Note_off_c, 2, 69, 0
4, 159360, Note_on_c, 2, 69, 73
4, 159360, Note_on_c, 2, 78, 73
4, 159360, Note_on_c, 2, 74, 73
4, 159548, Note_off_c, 2, 69, 0
4, 159552, Note_on_c, 2, 70, 73
4, 159740, Note_off_c, 2, 78, 0
4, 159740, Note_off_c, 2, 74, 0
4, 159740, Note_off_c, 2, 70, 0
4, 159744, Note_on_c, 2, 75, 73
4, 159744, Note_on_c, 2, 71, 73
4, 159932, Note_off_c, 2, 75, 0
4, 159932, Note_off_c, 2, 71, 0
4, 159936, Note_on_c, 2, 76, 73
4, 159936, Note_on_c, 2, 79, 73
4, 160028, Note_off_c, 2, 76, 0
4, 160028, Note_off_c, 2, 79, 0
4, 160128, Note_on_c, 2, 79, 73
4, 160128, Note_on_c, 2, 83, 73
4, 160220, Note_off_c, 2, 83, 0
4, 160316, Note_off_c, 2, 79, 0
4, 160320, Note_on_c, 2, 88, 73
4, 160412, Note_off_c, 2, 88, 0
4, 160512, Note_on_c, 2, 91, 73
4, 160700, Note_off_c, 2, 91, 0
4, 160896, Note_on_c, 2, 85, 73
4, 160896, Note_on_c, 2, 79, 73
4, 160896, Note_on_c, 2, 76, 73
4, 161084, Note_off_c, 2, 85, 0
4, 161084, Note_off_c, 2, 79, 0
4, 161084, Note_off_c, 2, 76, 0
4, 161280, Note_on_c, 2, 88, 73
4, 161280, Note_on_c, 2, 79, 73
4, 161660, Note_off_c, 2, 88, 0
4, 161660, Note_off_c, 2, 79, 0
4, 161664, Note_on_c, 2, 86, 73
4, 161664, Note_on_c, 2, 78, 73
4, 162044, Note_off_c, 2, 86, 0
4, 162044, Note_off_c, 2, 78, 0
4, 163200, Note_on_c, 2, 74, 66
4, 163200, Note_on_c, 2, 71, 66
4, 163484, Note_off_c, 2, 74, 0
4, 163484, Note_off_c, 2, 71, 0
4, 163488, Note_on_c, 2, 71, 66
4, 163488, Note_on_c, 2, 67, 66
4, 163580, Note_off_c, 2, 71, 0
4, 163580, Note_off_c, 2, 67, 0
4, 163584, Note_on_c, 2, 74, 66
4, 163584, Note_on_c, 2, 71, 66
4, 163964, Note_off_c, 2, 74, 0
4, 163964, Note_off_c, 2, 71, 0
4, 163968, Note_on_c, 2, 74, 66
4, 163968, Note_on_c, 2, 71, 66
4, 164348, Note_off_c, 2, 74, 0
4, 164348, Note_off_c, 2, 71, 0
4, 164752, Note_on_c, 2, 74, 66
4, 164752, Note_on_c, 2, 72, 66
4, 165024, Note_on_c, 2, 72, 66
4, 165024, Note_on_c, 2, 62, 66
4, 165036, Note_off_c, 2, 74, 0
4, 165036, Note_off_c, 2, 72, 0
4, 165116, Note_off_c, 2, 72, 0
4, 165116, Note_off_c, 2, 62, 0
4, 165120, Note_on_c, 2, 74, 66
4, 165120, Note_on_c, 2, 72, 66
4, 165500, Note_off_c, 2, 74, 0
4, 165500, Note_off_c, 2, 72, 0
4, 165504, Note_on_c, 2, 74, 66
4, 165504, Note_on_c, 2, 72, 66
4, 165884, Note_off_c, 2, 74, 0
4, 165884, Note_off_c, 2, 72, 0
4, 166272, Note_on_c, 2, 74, 66
4, 166272, Note_on_c, 2, 69, 66
4, 166556, Note_off_c, 2, 74, 0
4, 166556, Note_off_c, 2, 69, 0
4, 166560, Note_on_c, 2, 69, 66
4, 166560, Note_on_c, 2, 62, 66
4, 166652, Note_off_c, 2, 69, 0
4, 166652, Note_off_c, 2, 62, 0
4, 166656, Note_on_c, 2, 74, 66
4, 166656, Note_on_c, 2, 69, 66
4, 167036, Note_off_c, 2, 74, 0
4, 167036, Note_off_c, 2, 69, 0
4, 167040, Note_on_c, 2, 74, 66
4, 167040, Note_on_c, 2, 69, 66
4, 167420, Note_off_c, 2, 74, 0
4, 167420, Note_off_c, 2, 69, 0
4, 167808, Note_on_c, 2, 74, 66
4, 167808, Note_on_c, 2, 69, 66
4, 168092, Note_off_c, 2, 74, 0
4, 168092, Note_off_c, 2, 69, 0
4, 168096, Note_on_c, 2, 69, 66
4, 168096, Note_on_c, 2, 62, 66
4, 168188, Note_off_c, 2, 69, 0
4, 168188, Note_off_c, 2, 62, 0
4, 168192, Note_on_c, 2, 74, 66
4, 168192, Note_on_c, 2, 71, 66
4, 168572, Note_off_c, 2, 74, 0
4, 168572, Note_off_c, 2, 71, 0
4, 168576, Note_on_c, 2, 74, 66
4, 168576, Note_on_c, 2, 71, 66
4, 168956, Note_off_c, 2, 74, 0
4, 168956, Note_off_c, 2, 71, 0
4, 169344, Note_on_c, 2, 74, 66
4, 169344, Note_on_c, 2, 69, 66
4, 169632, Note_on_c, 2, 69, 66
4, 169632, Note_on_c, 2, 62, 66
4, 169724, Note_off_c, 2, 69, 0
4, 169724, Note_off_c, 2, 62, 0
4, 169728, Note_on_c, 2, 75, 66
4, 169728, Note_on_c, 2, 69, 66
4, 169916, Note_off_c, 2, 74, 0
4, 169916, Note_off_c, 2, 69, 0
4, 170108, Note_off_c, 2, 75, 0
4, 170108, Note_off_c, 2, 69, 0
4, 170112, Note_on_c, 2, 75, 66
4, 170112, Note_on_c, 2, 69, 66
4, 170492, Note_off_c, 2, 75, 0
4, 170492, Note_off_c, 2, 69, 0
4, 170496, Note_on_c, 2, 74, 66
4, 170496, Note_on_c, 2, 68, 66
4, 170876, Note_off_c, 2, 74, 0
4, 170876, Note_off_c, 2, 68, 0
4, 170880, Note_on_c, 2, 67, 66
4, 170896, Note_on_c, 2, 73, 66
4, 171644, Note_off_c, 2, 67, 0
4, 171648, Note_on_c, 2, 74, 66
4, 171648, Note_on_c, 2, 66, 66
4, 171660, Note_off_c, 2, 73, 0
4, 172028, Note_off_c, 2, 74, 0
4, 172028, Note_off_c, 2, 66, 0
4, 172032, Note_on_c, 2, 71, 66
4, 172032, Note_on_c, 2, 67, 66
4, 172412, Note_off_c, 2, 71, 0
4, 172412, Note_off_c, 2, 67, 0
4, 174528, Note_on_c, 2, 74, 66
4, 174716, Note_off_c, 2, 74, 0
4, 174720, Note_on_c, 2, 78, 66
4, 174908, Note_off_c, 2, 78, 0
4, 174912, Note_on_c, 2, 74, 66
4, 175100, Note_off_c, 2, 74, 0
4, 175104, Note_on_c, 2, 69, 66
4, 175484, Note_off_c, 2, 69, 0
4, 175488, Note_on_c, 2, 81, 66
4, 175676, Note_off_c, 2, 81, 0
4, 175872, Note_on_c, 2, 81, 66
4, 176060, Note_off_c, 2, 81, 0
4, 176256, Note_on_c, 2, 81, 66
4, 176444, Note_off_c, 2, 81, 0
4, 176640, Note_on_c, 2, 79, 66
4, 177020, Note_off_c, 2, 79, 0
4, 177024, Note_on_c, 2, 78, 66
4, 177404, Note_off_c, 2, 78, 0
4, 177600, Note_on_c, 2, 74, 66
4, 177788, Note_off_c, 2, 74, 0
4, 177792, Note_on_c, 2, 78, 66
4, 177980, Note_off_c, 2, 78, 0
4, 177984, Note_on_c, 2, 74, 66
4, 178172, Note_off_c, 2, 74, 0
4, 178176, Note_on_c, 2, 69, 66
4, 178364, Note_off_c, 2, 69, 0
4, 178368, Note_on_c, 2, 81, 66
4, 178460, Note_off_c, 2, 81, 0
4, 178560, Note_on_c, 2, 81, 66
4, 178652, Note_off_c, 2, 81, 0
4, 178752, Note_on_c, 2, 81, 66
4, 178844, Note_off_c, 2, 81, 0
4, 178944, Note_on_c, 2, 81, 66
4, 179036, Note_off_c, 2, 81, 0
4, 179136, Note_on_c, 2, 81, 66
4, 179136, Note_on_c, 2, 73, 66
4, 179228, Note_off_c, 2, 81, 0
4, 179228, Note_off_c, 2, 73, 0
4, 179328, Note_on_c, 2, 81, 66
4, 179328, Note_on_c, 2, 76, 66
4, 179420, Note_off_c, 2, 81, 0
4, 179420, Note_off_c, 2, 76, 0
4, 179520, Note_on_c, 2, 81, 66
4, 179520, Note_on_c, 2, 73, 66
4, 179612, Note_off_c, 2, 81, 0
4, 179612, Note_off_c, 2, 73, 0
4, 179712, Note_on_c, 2, 79, 66
4, 179712, Note_on_c, 2, 69, 66
4, 180092, Note_off_c, 2, 79, 0
4, 180096, Note_on_c, 2, 78, 66
4, 180476, Note_off_c, 2, 69, 0
4, 180476, Note_off_c, 2, 78, 0
4, 180480, Note_on_c, 2, 78, 66
4, 180480, Note_on_c, 2, 60, 66
4, 180656, Note_on_c, 2, 60, 66
4, 180668, Note_off_c, 2, 78, 0
4, 180668, Note_off_c, 2, 60, 0
4, 180672, Note_on_c, 2, 79, 66
4, 180672, Note_on_c, 2, 62, 66
4, 180764, Note_off_c, 2, 79, 0
4, 180784, Note_on_c, 2, 81, 66
4, 180844, Note_off_c, 2, 60, 0
4, 180860, Note_off_c, 2, 62, 0
4, 180864, Note_on_c, 2, 79, 66
4, 180864, Note_on_c, 2, 69, 66
4, 180864, Note_on_c, 2, 60, 66
4, 180876, Note_off_c, 2, 81, 0
4, 180956, Note_off_c, 2, 79, 0
4, 180960, Note_on_c, 2, 78, 66
4, 181052, Note_off_c, 2, 69, 0
4, 181052, Note_off_c, 2, 60, 0
4, 181052, Note_off_c, 2, 78, 0
4, 181056, Note_on_c, 2, 76, 66
4, 181056, Note_on_c, 2, 66, 66
4, 181056, Note_on_c, 2, 60, 66
4, 181148, Note_off_c, 2, 76, 0
4, 181152, Note_on_c, 2, 74, 66
4, 181244, Note_off_c, 2, 66, 0
4, 181244, Note_off_c, 2, 60, 0
4, 181244, Note_off_c, 2, 74, 0
4, 181248, Note_on_c, 2, 79, 66
4, 181248, Note_on_c, 2, 86, 66
4, 181436, Note_off_c, 2, 79, 0
4, 181436, Note_off_c, 2, 86, 0
4, 181632, Note_on_c, 2, 86, 66
4, 182012, Note_off_c, 2, 86, 0
4, 182016, Note_on_c, 2, 86, 66
4, 182204, Note_off_c, 2, 86, 0
4, 182208, Note_on_c, 2, 87, 66
4, 182396, Note_off_c, 2, 87, 0
4, 182400, Note_on_c, 2, 88, 66
4, 182588, Note_off_c, 2, 88, 0
4, 182592, Note_on_c, 2, 84, 66
4, 182780, Note_off_c, 2, 84, 0
4, 182784, Note_on_c, 2, 71, 66
4, 182784, Note_on_c, 2, 84, 66
4, 182972, Note_off_c, 2, 71, 0
4, 182972, Note_off_c, 2, 84, 0
4, 182976, Note_on_c, 2, 83, 66
4, 183164, Note_off_c, 2, 83, 0
4, 183168, Note_on_c, 2, 83, 66
4, 183168, Note_on_c, 2, 74, 66
4, 183548, Note_off_c, 2, 83, 0
4, 183548, Note_off_c, 2, 74, 0
4, 183552, Note_on_c, 2, 83, 66
4, 183552, Note_on_c, 2, 74, 66
4, 183740, Note_off_c, 2, 83, 0
4, 183740, Note_off_c, 2, 74, 0
4, 183744, Note_on_c, 2, 75, 66
4, 183744, Note_on_c, 2, 81, 66
4, 183788, Note_off_c, 2, 81, 0
4, 183792, Note_on_c, 2, 83, 66
4, 183836, Note_off_c, 2, 83, 0
4, 183840, Note_on_c, 2, 81, 66
4, 183884, Note_off_c, 2, 81, 0
4, 183888, Note_on_c, 2, 83, 66
4, 183932, Note_off_c, 2, 75, 0
4, 183932, Note_off_c, 2, 83, 0
4, 183936, Note_on_c, 2, 84, 66
4, 183936, Note_on_c, 2, 76, 66
4, 184124, Note_off_c, 2, 84, 0
4, 184124, Note_off_c, 2, 76, 0
4, 184128, Note_on_c, 2, 81, 66
4, 184128, Note_on_c, 2, 72, 66
4, 184316, Note_off_c, 2, 81, 0
4, 184316, Note_off_c, 2, 72, 0
4, 184320, Note_on_c, 2, 81, 66
4, 184320, Note_on_c, 2, 72, 66
4, 184508, Note_off_c, 2, 81, 0
4, 184508, Note_off_c, 2, 72, 0
4, 184512, Note_on_c, 2, 79, 66
4, 184512, Note_on_c, 2, 71, 66
4, 184700, Note_off_c, 2, 79, 0
4, 184700, Note_off_c, 2, 71, 0
4, 184704, Note_on_c, 2, 79, 66
4, 184704, Note_on_c, 2, 71, 66
4, 185084, Note_off_c, 2, 79, 0
4, 185084, Note_off_c, 2, 71, 0
4, 185088, Note_on_c, 2, 79, 66
4, 185088, Note_on_c, 2, 71, 66
4, 185264, Note_on_c, 2, 69, 66
4, 185276, Note_off_c, 2, 79, 0
4, 185276, Note_off_c, 2, 71, 0
4, 185280, Note_on_c, 2, 78, 66
4, 185356, Note_off_c, 2, 69, 0
4, 185372, Note_off_c, 2, 78, 0
4, 185376, Note_on_c, 2, 79, 66
4, 185376, Note_on_c, 2, 71, 66
4, 185468, Note_off_c, 2, 79, 0
4, 185468, Note_off_c, 2, 71, 0
4, 185472, Note_on_c, 2, 81, 66
4, 185472, Note_on_c, 2, 72, 66
4, 185660, Note_off_c, 2, 81, 0
4, 185660, Note_off_c, 2, 72, 0
4, 185664, Note_on_c, 2, 78, 66
4, 185664, Note_on_c, 2, 69, 66
4, 185756, Note_off_c, 2, 78, 0
4, 185756, Note_off_c, 2, 69, 0
4, 185856, Note_on_c, 2, 79, 66
4, 185856, Note_on_c, 2, 71, 66
4, 186236, Note_off_c, 2, 79, 0
4, 186236, Note_off_c, 2, 71, 0
4, 187392, Note_on_c, 2, 69, 66
4, 187392, Note_on_c, 2, 81, 66
4, 188924, Note_off_c, 2, 69, 0
4, 188928, Note_on_c, 2, 81, 66
4, 188928, Note_on_c, 2, 69, 66
4, 188928, Note_on_c, 2, 66, 66
4, 189308, Note_off_c, 2, 69, 0
4, 189308, Note_off_c, 2, 66, 0
4, 189312, Note_on_c, 2, 67, 66
4, 189312, Note_on_c, 2, 64, 66
4, 189692, Note_off_c, 2, 81, 0
4, 189692, Note_off_c, 2, 67, 0
4, 189692, Note_off_c, 2, 64, 0
4, 189696, Note_on_c, 2, 66, 66
4, 189696, Note_on_c, 2, 62, 66
4, 190076, Note_off_c, 2, 66, 0
4, 190076, Note_off_c, 2, 62, 0
4, 190080, Note_on_c, 2, 69, 66
4, 190080, Note_on_c, 2, 66, 66
4, 190460, Note_off_c, 2, 69, 0
4, 190460, Note_off_c, 2, 66, 0
4, 190464, Note_on_c, 2, 69, 66
4, 191228, Note_off_c, 2, 81, 0
4, 191996, Note_off_c, 2, 69, 0
4, 192000, Note_on_c, 2, 84, 66
4, 192000, Note_on_c, 2, 81, 66
4, 192000, Note_on_c, 2, 69, 66
4, 192000, Note_on_c, 2, 66, 66
4, 192000, Note_on_c, 2, 62, 66
4, 192000, Note_on_c, 2, 88, 66
4, 192380, Note_off_c, 2, 84, 0
4, 192380, Note_off_c, 2, 81, 0
4, 192380, Note_off_c, 2, 69, 0
4, 192380, Note_off_c, 2, 66, 0
4, 192384, Note_on_c, 2, 79, 78
4, 192384, Note_on_c, 2, 76, 78
4, 192384, Note_on_c, 2, 67, 78
4, 192384, Note_on_c, 2, 64, 78
4, 192764, Note_off_c, 2, 79, 0
4, 192764, Note_off_c, 2, 76, 0
4, 192764, Note_off_c, 2, 67, 0
4, 192764, Note_off_c, 2, 64, 0
4, 192768, Note_on_c, 2, 78, 75
4, 192768, Note_on_c, 2, 74, 75
4, 192768, Note_on_c, 2, 66, 75
4, 192768, Note_on_c, 2, 62, 75
4, 193148, Note_off_c, 2, 62, 0
4, 193148, Note_off_c, 2, 78, 0
4, 193148, Note_off_c, 2, 74, 0
4, 193148, Note_off_c, 2, 66, 0
4, 193152, Note_on_c, 2, 81, 71
4, 193152, Note_on_c, 2, 78, 71
4, 193152, Note_on_c, 2, 69, 71
4, 193152, Note_on_c, 2, 66, 71
4, 193532, Note_off_c, 2, 88, 0
4, 193532, Note_off_c, 2, 62, 0
4, 193532, Note_off_c, 2, 81, 0
4, 193532, Note_off_c, 2, 78, 0
4, 193532, Note_off_c, 2, 69, 0
4, 193532, Note_off_c, 2, 66, 0
4, 193536, Note_on_c, 2, 83, 66
4, 193536, Note_on_c, 2, 79, 66
4, 193536, Note_on_c, 2, 74, 66
4, 193916, Note_off_c, 2, 83, 0
4, 193916, Note_off_c, 2, 79, 0
4, 193916, Note_off_c, 2, 74, 0
4, 193920, Note_on_c, 2, 64, 68
4, 194112, Note_on_c, 2, 71, 71
4, 194112, Note_on_c, 2, 74, 71
4, 194492, Note_off_c, 2, 71, 0
4, 194492, Note_off_c, 2, 74, 0
4, 194496, Note_on_c, 2, 72, 75
4, 194496, Note_on_c, 2, 69, 75
4, 194684, Note_off_c, 2, 64, 0
4, 194684, Note_off_c, 2, 72, 0
4, 194684, Note_off_c, 2, 69, 0
4, 194688, Note_on_c, 2, 62, 85
4, 194880, Note_on_c, 2, 72, 90
4, 194880, Note_on_c, 2, 69, 90
4, 195068, Note_off_c, 2, 62, 0
4, 195068, Note_off_c, 2, 72, 0
4, 195068, Note_off_c, 2, 69, 0
4, 195072, Note_on_c, 2, 62, 90
4, 195072, Note_on_c, 2, 72, 90
4, 195072, Note_on_c, 2, 69, 90
4, 195260, Note_off_c, 2, 72, 0
4, 195260, Note_off_c, 2, 69, 0
4, 195264, Note_on_c, 2, 71, 90
4, 195264, Note_on_c, 2, 67, 90
4, 195452, Note_off_c, 2, 62, 0
4, 195452, Note_off_c, 2, 71, 0
4, 195452, Note_off_c, 2, 67, 0
4, 195456, Note_on_c, 2, 62, 90
4, 195664, Note_on_c, 2, 71, 90
4, 195836, Note_off_c, 2, 62, 0
4, 195840, Note_on_c, 2, 64, 83
4, 196032, Note_on_c, 2, 69, 80
4, 196032, Note_on_c, 2, 60, 80
4, 196044, Note_off_c, 2, 71, 0
4, 196220, Note_off_c, 2, 64, 0
4, 196220, Note_off_c, 2, 69, 0
4, 196220, Note_off_c, 2, 60, 0
4, 196224, Note_on_c, 2, 66, 75
4, 196416, Note_on_c, 2, 69, 70
4, 196416, Note_on_c, 2, 60, 70
4, 196604, Note_off_c, 2, 66, 0
4, 196604, Note_off_c, 2, 69, 0
4, 196604, Note_off_c, 2, 60, 0
4, 196608, Note_on_c, 2, 69, 66
4, 196608, Note_on_c, 2, 66, 66
4, 196608, Note_on_c, 2, 60, 66
4, 196796, Note_off_c, 2, 69, 0
4, 196796, Note_off_c, 2, 66, 0
4, 196796, Note_off_c, 2, 60, 0
4, 196800, Note_on_c, 2, 67, 66
4, 196800, Note_on_c, 2, 59, 66
4, 196988, Note_off_c, 2, 67, 0
4, 196988, Note_off_c, 2, 59, 0
4, 199296, Note_on_c, 2, 67, 53
4, 199296, Note_on_c, 2, 55, 53
4, 200060, Note_off_c, 2, 55, 0
4, 200060, Note_off_c, 2, 67, 0
4, 200064, Note_on_c, 2, 74, 53
4, 200064, Note_on_c, 2, 62, 53
4, 200828, Note_off_c, 2, 74, 0
4, 200828, Note_off_c, 2, 62, 0
4, 200832, Note_on_c, 2, 67, 53
4, 200832, Note_on_c, 2, 79, 53
4, 201596, Note_off_c, 2, 67, 0
4, 201596, Note_off_c, 2, 79, 0
4, 201600, Note_on_c, 2, 65, 53
4, 201600, Note_on_c, 2, 77, 53
4, 202364, Note_off_c, 2, 65, 0
4, 202364, Note_off_c, 2, 77, 0
4, 202368, Note_on_c, 2, 63, 53
4, 202368, Note_on_c, 2, 75, 53
4, 203132, Note_off_c, 2, 63, 0
4, 203132, Note_off_c, 2, 75, 0
4, 203136, Note_on_c, 2, 74, 53
4, 203136, Note_on_c, 2, 62, 53
4, 203516, Note_off_c, 2, 74, 0
4, 203516, Note_off_c, 2, 62, 0
4, 203520, Note_on_c, 2, 73, 53
4, 203520, Note_on_c, 2, 61, 53
4, 203900, Note_off_c, 2, 73, 0
4, 203900, Note_off_c, 2, 61, 0
4, 203904, Note_on_c, 2, 72, 53
4, 203904, Note_on_c, 2, 60, 53
4, 204284, Note_off_c, 2, 72, 0
4, 204284, Note_off_c, 2, 60, 0
4, 204288, Note_on_c, 2, 69, 53
4, 204288, Note_on_c, 2, 57, 53
4, 204668, Note_off_c, 2, 69, 0
4, 204668, Note_off_c, 2, 57, 0
4, 204672, Note_on_c, 2, 70, 53
4, 204672, Note_on_c, 2, 58, 53
4, 205052, Note_off_c, 2, 70, 0
4, 205052, Note_off_c, 2, 58, 0
4, 205440, Note_on_c, 2, 70, 53
4, 205440, Note_on_c, 2, 82, 53
4, 206204, Note_off_c, 2, 70, 0
4, 206204, Note_off_c, 2, 82, 0
4, 206208, Note_on_c, 2, 69, 53
4, 206208, Note_on_c, 2, 81, 53
4, 206972, Note_off_c, 2, 69, 0
4, 206972, Note_off_c, 2, 81, 0
4, 206976, Note_on_c, 2, 80, 53
4, 206976, Note_on_c, 2, 68, 53
4, 207356, Note_off_c, 2, 80, 0
4, 207356, Note_off_c, 2, 68, 0
4, 207360, Note_on_c, 2, 81, 53
4, 207360, Note_on_c, 2, 69, 53
4, 207740, Note_off_c, 2, 81, 0
4, 207740, Note_off_c, 2, 69, 0
4, 207744, Note_on_c, 2, 79, 53
4, 207744, Note_on_c, 2, 67, 53
4, 208508, Note_off_c, 2, 79, 0
4, 208508, Note_off_c, 2, 67, 0
4, 208512, Note_on_c, 2, 77, 53
4, 208512, Note_on_c, 2, 65, 53
4, 208892, Note_off_c, 2, 77, 0
4, 208892, Note_off_c, 2, 65, 0
4, 208896, Note_on_c, 2, 75, 53
4, 208896, Note_on_c, 2, 63, 53
4, 209276, Note_off_c, 2, 75, 0
4, 209276, Note_off_c, 2, 63, 0
4, 209280, Note_on_c, 2, 74, 53
4, 209280, Note_on_c, 2, 62, 53
4, 210044, Note_off_c, 2, 74, 0
4, 210044, Note_off_c, 2, 62, 0
4, 210048, Note_on_c, 2, 73, 53
4, 210048, Note_on_c, 2, 61, 53
4, 210812, Note_off_c, 2, 61, 0
4, 210812, Note_off_c, 2, 73, 0
4, 210816, Note_on_c, 2, 74, 53
4, 210816, Note_on_c, 2, 62, 53
4, 211196, Note_off_c, 2, 74, 0
4, 211196, Note_off_c, 2, 62, 0
4, 223872, Note_on_c, 2, 69, 53
4, 223872, Note_on_c, 2, 57, 53
4, 224636, Note_off_c, 2, 57, 0
4, 224636, Note_off_c, 2, 69, 0
4, 224640, Note_on_c, 2, 70, 53
4, 224640, Note_on_c, 2, 82, 53
4, 225404, Note_off_c, 2, 70, 0
4, 225404, Note_off_c, 2, 82, 0
4, 225408, Note_on_c, 2, 81, 53
4, 225408, Note_on_c, 2, 69, 53
4, 225788, Note_off_c, 2, 81, 0
4, 225792, Note_on_c, 2, 79, 53
4, 226172, Note_off_c, 2, 69, 0
4, 226172, Note_off_c, 2, 79, 0
4, 226176, Note_on_c, 2, 77, 53
4, 226176, Note_on_c, 2, 68, 53
4, 226556, Note_off_c, 2, 77, 0
4, 226940, Note_off_c, 2, 68, 0
4, 226944, Note_on_c, 2, 69, 53
4, 226944, Note_on_c, 2, 57, 53
4, 227708, Note_off_c, 2, 57, 0
4, 227708, Note_off_c, 2, 69, 0
4, 227712, Note_on_c, 2, 82, 53
4, 227712, Note_on_c, 2, 70, 53
4, 228476, Note_off_c, 2, 82, 0
4, 228476, Note_off_c, 2, 70, 0
4, 228480, Note_on_c, 2, 81, 53
4, 228480, Note_on_c, 2, 69, 53
4, 228480, Note_on_c, 2, 75, 53
4, 228860, Note_off_c, 2, 81, 0
4, 228860, Note_off_c, 2, 69, 0
4, 228864, Note_on_c, 2, 79, 53
4, 228864, Note_on_c, 2, 67, 53
4, 229244, Note_off_c, 2, 75, 0
4, 229244, Note_off_c, 2, 79, 0
4, 229244, Note_off_c, 2, 67, 0
4, 229248, Note_on_c, 2, 87, 53
4, 229248, Note_on_c, 2, 78, 53
4, 229248, Note_on_c, 2, 75, 53
4, 230012, Note_off_c, 2, 87, 0
4, 230012, Note_off_c, 2, 78, 0
4, 230012, Note_off_c, 2, 75, 0
4, 230016, Note_on_c, 2, 86, 53
4, 230016, Note_on_c, 2, 77, 53
4, 230016, Note_on_c, 2, 74, 53
4, 230396, Note_off_c, 2, 86, 0
4, 230396, Note_off_c, 2, 77, 0
4, 230396, Note_off_c, 2, 74, 0
4, 230400, Note_on_c, 2, 84, 53
4, 230400, Note_on_c, 2, 74, 53
4, 230780, Note_off_c, 2, 84, 0
4, 230784, Note_on_c, 2, 83, 53
4, 230784, Note_on_c, 2, 80, 53
4, 231164, Note_off_c, 2, 83, 0
4, 231548, Note_off_c, 2, 80, 0
4, 231552, Note_on_c, 2, 83, 53
4, 231552, Note_on_c, 2, 79, 53
4, 231932, Note_off_c, 2, 74, 0
4, 231932, Note_off_c, 2, 83, 0
4, 231936, Note_on_c, 2, 86, 53
4, 232316, Note_off_c, 2, 79, 0
4, 232316, Note_off_c, 2, 86, 0
4, 232320, Note_on_c, 2, 85, 53
4, 232320, Note_on_c, 2, 81, 53
4, 232700, Note_off_c, 2, 85, 0
4, 232704, Note_on_c, 2, 85, 53
4, 232704, Note_on_c, 2, 91, 53
4, 233084, Note_off_c, 2, 81, 0
4, 233088, Note_on_c, 2, 82, 53
4, 233468, Note_off_c, 2, 85, 0
4, 233472, Note_on_c, 2, 86, 53
4, 233852, Note_off_c, 2, 82, 0
4, 233852, Note_off_c, 2, 91, 0
4, 233852, Note_off_c, 2, 86, 0
4, 233856, Note_on_c, 2, 86, 53
4, 233856, Note_on_c, 2, 82, 53
4, 233856, Note_on_c, 2, 74, 53
4, 234236, Note_off_c, 2, 86, 0
4, 234236, Note_off_c, 2, 82, 0
4, 234240, Note_on_c, 2, 79, 53
4, 234240, Note_on_c, 2, 82, 53
4, 234620, Note_off_c, 2, 74, 0
4, 234620, Note_off_c, 2, 79, 0
4, 234620, Note_off_c, 2, 82, 0
4, 234624, Note_on_c, 2, 81, 53
4, 234624, Note_on_c, 2, 78, 53
4, 234624, Note_on_c, 2, 74, 53
4, 235004, Note_off_c, 2, 81, 0
4, 235004, Note_off_c, 2, 78, 0
4, 235004, Note_off_c, 2, 74, 0
4, 235008, Note_on_c, 2, 78, 53
4, 235008, Note_on_c, 2, 72, 53
4, 235008, Note_on_c, 2, 69, 53
4, 235008, Note_on_c, 2, 74, 53
4, 235388, Note_off_c, 2, 78, 0
4, 235388, Note_off_c, 2, 72, 0
4, 235388, Note_off_c, 2, 69, 0
4, 235392, Note_on_c, 2, 79, 53
4, 235392, Note_on_c, 2, 70, 53
4, 235772, Note_off_c, 2, 74, 0
4, 235772, Note_off_c, 2, 79, 0
4, 235772, Note_off_c, 2, 70, 0
4, 238656, Note_on_c, 2, 82, 71
4, 238656, Note_on_c, 2, 70, 71
4, 239036, Note_off_c, 2, 82, 0
4, 239036, Note_off_c, 2, 70, 0
4, 239040, Note_on_c, 2, 81, 71
4, 239040, Note_on_c, 2, 69, 71
4, 239420, Note_off_c, 2, 81, 0
4, 239420, Note_off_c, 2, 69, 0
4, 239424, Note_on_c, 2, 80, 71
4, 239424, Note_on_c, 2, 68, 71
4, 239804, Note_off_c, 2, 68, 0
4, 239804, Note_off_c, 2, 80, 0
4, 239808, Note_on_c, 2, 81, 71
4, 239808, Note_on_c, 2, 69, 71
4, 239996, Note_off_c, 2, 81, 0
4, 239996, Note_off_c, 2, 69, 0
4, 241728, Note_on_c, 2, 75, 71
4, 241728, Note_on_c, 2, 87, 71
4, 242108, Note_off_c, 2, 75, 0
4, 242108, Note_off_c, 2, 87, 0
4, 242112, Note_on_c, 2, 86, 71
4, 242112, Note_on_c, 2, 74, 71
4, 242492, Note_off_c, 2, 86, 0
4, 242492, Note_off_c, 2, 74, 0
4, 242496, Note_on_c, 2, 73, 71
4, 242496, Note_on_c, 2, 85, 71
4, 242876, Note_off_c, 2, 73, 0
4, 242876, Note_off_c, 2, 85, 0
4, 242880, Note_on_c, 2, 86, 71
4, 242880, Note_on_c, 2, 74, 71
4, 243068, Note_off_c, 2, 86, 0
4, 243068, Note_off_c, 2, 74, 0
4, 248448, Note_on_c, 2, 74, 91
4, 248540, Note_off_c, 2, 74, 0
4, 248544, Note_on_c, 2, 72, 91
4, 248636, Note_off_c, 2, 72, 0
4, 248640, Note_on_c, 2, 71, 91
4, 248732, Note_off_c, 2, 71, 0
4, 248736, Note_on_c, 2, 69, 91
4, 248828, Note_off_c, 2, 69, 0
4, 248832, Note_on_c, 2, 67, 91
4, 249212, Note_off_c, 2, 67, 0
4, 249216, Note_on_c, 2, 79, 91
4, 249216, Note_on_c, 2, 74, 91
4, 249216, Note_on_c, 2, 71, 91
4, 249584, Note_on_c, 2, 74, 91
4, 249584, Note_on_c, 2, 71, 91
4, 249596, Note_off_c, 2, 79, 0
4, 249596, Note_off_c, 2, 74, 0
4, 249596, Note_off_c, 2, 71, 0
4, 249600, Note_on_c, 2, 83, 91
4, 249964, Note_off_c, 2, 74, 0
4, 249964, Note_off_c, 2, 71, 0
4, 249980, Note_off_c, 2, 83, 0
4, 249984, Note_on_c, 2, 79, 91
4, 249984, Note_on_c, 2, 74, 91
4, 249984, Note_on_c, 2, 71, 91
4, 250364, Note_off_c, 2, 79, 0
4, 250364, Note_off_c, 2, 74, 0
4, 250364, Note_off_c, 2, 71, 0
4, 250368, Note_on_c, 2, 78, 91
4, 250368, Note_on_c, 2, 74, 91
4, 250368, Note_on_c, 2, 69, 91
4, 250748, Note_off_c, 2, 78, 0
4, 250748, Note_off_c, 2, 74, 0
4, 250748, Note_off_c, 2, 69, 0
4, 251520, Note_on_c, 2, 79, 91
4, 251520, Note_on_c, 2, 74, 91
4, 251520, Note_on_c, 2, 71, 91
4, 251900, Note_off_c, 2, 79, 0
4, 251900, Note_off_c, 2, 74, 0
4, 251904, Note_on_c, 2, 81, 91
4, 251904, Note_on_c, 2, 84, 91
4, 251904, Note_on_c, 2, 74, 91
4, 251908, Note_off_c, 2, 71, 0
4, 252284, Note_off_c, 2, 81, 0
4, 252284, Note_off_c, 2, 84, 0
4, 252284, Note_off_c, 2, 74, 0
4, 253056, Note_on_c, 2, 86, 91
4, 253056, Note_on_c, 2, 78, 91
4, 253056, Note_on_c, 2, 74, 91
4, 253056, Note_on_c, 2, 81, 91
4, 253436, Note_off_c, 2, 86, 0
4, 253436, Note_off_c, 2, 78, 0
4, 253436, Note_off_c, 2, 74, 0
4, 253440, Note_on_c, 2, 83, 91
4, 253440, Note_on_c, 2, 79, 91
4, 253440, Note_on_c, 2, 74, 91
4, 253444, Note_off_c, 2, 81, 0
4, 253820, Note_off_c, 2, 83, 0
4, 253820, Note_off_c, 2, 79, 0
4, 253820, Note_off_c, 2, 74, 0
4, 254592, Note_on_c, 2, 83, 91
4, 254592, Note_on_c, 2, 79, 91
4, 254592, Note_on_c, 2, 74, 91
4, 254972, Note_off_c, 2, 83, 0
4, 254972, Note_off_c, 2, 79, 0
4, 254972, Note_off_c, 2, 74, 0
4, 254976, Note_on_c, 2, 81, 91
4, 254976, Note_on_c, 2, 78, 91
4, 254976, Note_on_c, 2, 74, 91
4, 255356, Note_off_c, 2, 81, 0
4, 255356, Note_off_c, 2, 78, 0
4, 255356, Note_off_c, 2, 74, 0
4, 256128, Note_on_c, 2, 83, 91
4, 256128, Note_on_c, 2, 78, 91
4, 256128, Note_on_c, 2, 75, 91
4, 256220, Note_off_c, 2, 75, 0
4, 256224, Note_on_c, 2, 71, 91
4, 256316, Note_off_c, 2, 71, 0
4, 256320, Note_on_c, 2, 75, 91
4, 256412, Note_off_c, 2, 75, 0
4, 256416, Note_on_c, 2, 71, 91
4, 256508, Note_off_c, 2, 83, 0
4, 256508, Note_off_c, 2, 78, 0
4, 256508, Note_off_c, 2, 71, 0
4, 256512, Note_on_c, 2, 79, 91
4, 256512, Note_on_c, 2, 76, 91
4, 256604, Note_off_c, 2, 76, 0
4, 256608, Note_on_c, 2, 71, 91
4, 256700, Note_off_c, 2, 71, 0
4, 256704, Note_on_c, 2, 76, 91
4, 256796, Note_off_c, 2, 76, 0
4, 256800, Note_on_c, 2, 71, 91
4, 256892, Note_off_c, 2, 79, 0
4, 256892, Note_off_c, 2, 71, 0
4, 256896, Note_on_c, 2, 81, 91
4, 256896, Note_on_c, 2, 76, 91
4, 256896, Note_on_c, 2, 73, 91
4, 256988, Note_off_c, 2, 76, 0
4, 256988, Note_off_c, 2, 73, 0
4, 256992, Note_on_c, 2, 69, 91
4, 257084, Note_off_c, 2, 69, 0
4, 257088, Note_on_c, 2, 73, 91
4, 257180, Note_off_c, 2, 73, 0
4, 257184, Note_on_c, 2, 69, 91
4, 257276, Note_off_c, 2, 81, 0
4, 257276, Note_off_c, 2, 69, 0
4, 257280, Note_on_c, 2, 78, 91
4, 257280, Note_on_c, 2, 74, 91
4, 257372, Note_off_c, 2, 74, 0
4, 257376, Note_on_c, 2, 69, 91
4, 257468, Note_off_c, 2, 69, 0
4, 257472, Note_on_c, 2, 74, 91
4, 257564, Note_off_c, 2, 74, 0
4, 257568, Note_on_c, 2, 69, 91
4, 257660, Note_off_c, 2, 78, 0
4, 257660, Note_off_c, 2, 69, 0
4, 257664, Note_on_c, 2, 86, 91
4, 257664, Note_on_c, 2, 81, 91
4, 257664, Note_on_c, 2, 78, 91
4, 257756, Note_off_c, 2, 81, 0
4, 257756, Note_off_c, 2, 78, 0
4, 257760, Note_on_c, 2, 74, 91
4, 257852, Note_off_c, 2, 74, 0
4, 257856, Note_on_c, 2, 78, 91
4, 257948, Note_off_c, 2, 78, 0
4, 257952, Note_on_c, 2, 74, 91
4, 258044, Note_off_c, 2, 86, 0
4, 258044, Note_off_c, 2, 74, 0
4, 258048, Note_on_c, 2, 79, 91
4, 258048, Note_on_c, 2, 76, 91
4, 258048, Note_on_c, 2, 71, 91
4, 258236, Note_off_c, 2, 79, 0
4, 258236, Note_off_c, 2, 76, 0
4, 258236, Note_off_c, 2, 71, 0
4, 258240, Note_on_c, 2, 79, 91
4, 258332, Note_off_c, 2, 79, 0
4, 258336, Note_on_c, 2, 81, 91
4, 258428, Note_off_c, 2, 81, 0
4, 258432, Note_on_c, 2, 83, 91
4, 258620, Note_off_c, 2, 83, 0
4, 258624, Note_on_c, 2, 79, 91
4, 258812, Note_off_c, 2, 79, 0
4, 258816, Note_on_c, 2, 76, 91
4, 258832, Note_on_c, 2, 67, 91
4, 259004, Note_off_c, 2, 76, 0
4, 259008, Note_on_c, 2, 73, 91
4, 259020, Note_off_c, 2, 67, 0
4, 259196, Note_off_c, 2, 73, 0
4, 259200, Note_on_c, 2, 69, 91
4, 259200, Note_on_c, 2, 67, 91
4, 259388, Note_off_c, 2, 69, 0
4, 259388, Note_off_c, 2, 67, 0
4, 259392, Note_on_c, 2, 81, 91
4, 259580, Note_off_c, 2, 81, 0
4, 259584, Note_on_c, 2, 74, 91
4, 259584, Note_on_c, 2, 69, 91
4, 259584, Note_on_c, 2, 66, 91
4, 259964, Note_off_c, 2, 74, 0
4, 259964, Note_off_c, 2, 69, 0
4, 259964, Note_off_c, 2, 66, 0
4, 259968, Note_on_c, 2, 86, 91
4, 259968, Note_on_c, 2, 78, 91
4, 259968, Note_on_c, 2, 74, 91
4, 260348, Note_off_c, 2, 86, 0
4, 260348, Note_off_c, 2, 78, 0
4, 260348, Note_off_c, 2, 74, 0
4, 273024, Note_on_c, 2, 78, 90
4, 273308, Note_off_c, 2, 78, 0
4, 273312, Note_on_c, 2, 74, 90
4, 273404, Note_off_c, 2, 74, 0
4, 273408, Note_on_c, 2, 69, 90
4, 273408, Note_on_c, 2, 64, 90
4, 273408, Note_on_c, 2, 61, 90
4, 273408, Note_on_c, 2, 57, 90
4, 273500, Note_off_c, 2, 64, 0
4, 273500, Note_off_c, 2, 61, 0
4, 273500, Note_off_c, 2, 57, 0
4, 273504, Note_on_c, 2, 67, 90
4, 273584, Note_on_c, 2, 57, 90
4, 273596, Note_off_c, 2, 69, 0
4, 273596, Note_off_c, 2, 67, 0
4, 273600, Note_on_c, 2, 71, 90
4, 273600, Note_on_c, 2, 64, 90
4, 273600, Note_on_c, 2, 61, 90
4, 273676, Note_off_c, 2, 57, 0
4, 273692, Note_off_c, 2, 71, 0
4, 273692, Note_off_c, 2, 64, 0
4, 273692, Note_off_c, 2, 61, 0
4, 273696, Note_on_c, 2, 73, 90
4, 273696, Note_on_c, 2, 67, 90
4, 273788, Note_off_c, 2, 73, 0
4, 273788, Note_off_c, 2, 67, 0
4, 273792, Note_on_c, 2, 74, 90
4, 273792, Note_on_c, 2, 64, 90
4, 273792, Note_on_c, 2, 61, 90
4, 273792, Note_on_c, 2, 57, 90
4, 273884, Note_off_c, 2, 74, 0
4, 273884, Note_off_c, 2, 64, 0
4, 273884, Note_off_c, 2, 61, 0
4, 273884, Note_off_c, 2, 57, 0
4, 273888, Note_on_c, 2, 76, 90
4, 273888, Note_on_c, 2, 67, 90
4, 273980, Note_off_c, 2, 76, 0
4, 273980, Note_off_c, 2, 67, 0
4, 273984, Note_on_c, 2, 78, 90
4, 273984, Note_on_c, 2, 64, 90
4, 273984, Note_on_c, 2, 61, 90
4, 273984, Note_on_c, 2, 57, 90
4, 274076, Note_off_c, 2, 78, 0
4, 274076, Note_off_c, 2, 64, 0
4, 274076, Note_off_c, 2, 61, 0
4, 274076, Note_off_c, 2, 57, 0
4, 274080, Note_on_c, 2, 79, 90
4, 274080, Note_on_c, 2, 67, 90
4, 274172, Note_off_c, 2, 79, 0
4, 274172, Note_off_c, 2, 67, 0
4, 274176, Note_on_c, 2, 81, 90
4, 274176, Note_on_c, 2, 64, 90
4, 274176, Note_on_c, 2, 61, 90
4, 274176, Note_on_c, 2, 57, 90
4, 274268, Note_off_c, 2, 64, 0
4, 274268, Note_off_c, 2, 61, 0
4, 274268, Note_off_c, 2, 57, 0
4, 274272, Note_on_c, 2, 67, 90
4, 274364, Note_off_c, 2, 81, 0
4, 274364, Note_off_c, 2, 67, 0
4, 274368, Note_on_c, 2, 69, 90
4, 274368, Note_on_c, 2, 64, 90
4, 274368, Note_on_c, 2, 61, 90
4, 274368, Note_on_c, 2, 57, 90
4, 274460, Note_off_c, 2, 64, 0
4, 274460, Note_off_c, 2, 61, 0
4, 274460, Note_off_c, 2, 57, 0
4, 274464, Note_on_c, 2, 67, 90
4, 274556, Note_off_c, 2, 69, 0
4, 274556, Note_off_c, 2, 67, 0
4, 274560, Note_on_c, 2, 64, 90
4, 274560, Note_on_c, 2, 61, 90
4, 274560, Note_on_c, 2, 57, 90
4, 274652, Note_off_c, 2, 64, 0
4, 274652, Note_off_c, 2, 61, 0
4, 274652, Note_off_c, 2, 57, 0
4, 274656, Note_on_c, 2, 67, 90
4, 274748, Note_off_c, 2, 67, 0
4, 274752, Note_on_c, 2, 64, 90
4, 274752, Note_on_c, 2, 61, 90
4, 274752, Note_on_c, 2, 57, 90
4, 274844, Note_off_c, 2, 64, 0
4, 274844, Note_off_c, 2, 61, 0
4, 274844, Note_off_c, 2, 57, 0
4, 274848, Note_on_c, 2, 67, 90
4, 274940, Note_off_c, 2, 67, 0
4, 274944, Note_on_c, 2, 66, 90
4, 274944, Note_on_c, 2, 62, 90
4, 275036, Note_off_c, 2, 66, 0
4, 275036, Note_off_c, 2, 62, 0
4, 275040, Note_on_c, 2, 69, 90
4, 275132, Note_off_c, 2, 69, 0
4, 275136, Note_on_c, 2, 66, 90
4, 275136, Note_on_c, 2, 62, 90
4, 275228, Note_off_c, 2, 66, 0
4, 275228, Note_off_c, 2, 62, 0
4, 275232, Note_on_c, 2, 69, 90
4, 275324, Note_off_c, 2, 69, 0
4, 275328, Note_on_c, 2, 66, 90
4, 275328, Note_on_c, 2, 62, 90
4, 275420, Note_off_c, 2, 66, 0
4, 275420, Note_off_c, 2, 62, 0
4, 275424, Note_on_c, 2, 69, 90
4, 275516, Note_off_c, 2, 69, 0
4, 275520, Note_on_c, 2, 66, 90
4, 275612, Note_off_c, 2, 66, 0
4, 275616, Note_on_c, 2, 69, 90
4, 275708, Note_off_c, 2, 69, 0
4, 275712, Note_on_c, 2, 66, 90
4, 275804, Note_off_c, 2, 66, 0
4, 275808, Note_on_c, 2, 69, 90
4, 275900, Note_off_c, 2, 69, 0
4, 275904, Note_on_c, 2, 66, 90
4, 275904, Note_on_c, 2, 62, 90
4, 275996, Note_off_c, 2, 66, 0
4, 275996, Note_off_c, 2, 62, 0
4, 276000, Note_on_c, 2, 69, 90
4, 276092, Note_off_c, 2, 69, 0
4, 276096, Note_on_c, 2, 66, 90
4, 276096, Note_on_c, 2, 62, 90
4, 276096, Note_on_c, 2, 78, 90
4, 276188, Note_off_c, 2, 66, 0
4, 276188, Note_off_c, 2, 62, 0
4, 276192, Note_on_c, 2, 69, 90
4, 276284, Note_off_c, 2, 69, 0
4, 276288, Note_on_c, 2, 66, 90
4, 276288, Note_on_c, 2, 62, 90
4, 276380, Note_off_c, 2, 78, 0
4, 276380, Note_off_c, 2, 66, 0
4, 276380, Note_off_c, 2, 62, 0
4, 276384, Note_on_c, 2, 69, 90
4, 276384, Note_on_c, 2, 74, 90
4, 276476, Note_off_c, 2, 69, 0
4, 276476, Note_off_c, 2, 74, 0
4, 276480, Note_on_c, 2, 69, 90
4, 276480, Note_on_c, 2, 64, 90
4, 276480, Note_on_c, 2, 61, 90
4, 276480, Note_on_c, 2, 57, 90
4, 276572, Note_off_c, 2, 64, 0
4, 276572, Note_off_c, 2, 61, 0
4, 276572, Note_off_c, 2, 57, 0
4, 276576, Note_on_c, 2, 67, 90
4, 276668, Note_off_c, 2, 69, 0
4, 276668, Note_off_c, 2, 67, 0
4, 276672, Note_on_c, 2, 71, 90
4, 276672, Note_on_c, 2, 64, 90
4, 276672, Note_on_c, 2, 61, 90
4, 276672, Note_on_c, 2, 57, 90
4, 276764, Note_off_c, 2, 71, 0
4, 276764, Note_off_c, 2, 64, 0
4, 276764, Note_off_c, 2, 61, 0
4, 276764, Note_off_c, 2, 57, 0
4, 276768, Note_on_c, 2, 73, 90
4, 276768, Note_on_c, 2, 67, 90
4, 276860, Note_off_c, 2, 73, 0
4, 276860, Note_off_c, 2, 67, 0
4, 276864, Note_on_c, 2, 74, 90
4, 276864, Note_on_c, 2, 64, 90
4, 276864, Note_on_c, 2, 61, 90
4, 276864, Note_on_c, 2, 57, 90
4, 276956, Note_off_c, 2, 74, 0
4, 276956, Note_off_c, 2, 64, 0
4, 276956, Note_off_c, 2, 61, 0
4, 276956, Note_off_c, 2, 57, 0
4, 276960, Note_on_c, 2, 76, 90
4, 276960, Note_on_c, 2, 67, 90
4, 277052, Note_off_c, 2, 76, 0
4, 277052, Note_off_c, 2, 67, 0
4, 277056, Note_on_c, 2, 78, 90
4, 277056, Note_on_c, 2, 64, 90
4, 277056, Note_on_c, 2, 61, 90
4, 277056, Note_on_c, 2, 57, 90
4, 277148, Note_off_c, 2, 78, 0
4, 277148, Note_off_c, 2, 64, 0
4, 277148, Note_off_c, 2, 61, 0
4, 277148, Note_off_c, 2, 57, 0
4, 277152, Note_on_c, 2, 79, 90
4, 277152, Note_on_c, 2, 67, 90
4, 277244, Note_off_c, 2, 79, 0
4, 277244, Note_off_c, 2, 67, 0
4, 277248, Note_on_c, 2, 81, 90
4, 277248, Note_on_c, 2, 64, 90
4, 277248, Note_on_c, 2, 61, 90
4, 277248, Note_on_c, 2, 57, 90
4, 277340, Note_off_c, 2, 64, 0
4, 277340, Note_off_c, 2, 61, 0
4, 277340, Note_off_c, 2, 57, 0
4, 277344, Note_on_c, 2, 67, 90
4, 277436, Note_off_c, 2, 81, 0
4, 277436, Note_off_c, 2, 67, 0
4, 277440, Note_on_c, 2, 69, 90
4, 277440, Note_on_c, 2, 64, 90
4, 277440, Note_on_c, 2, 61, 90
4, 277440, Note_on_c, 2, 57, 90
4, 277532, Note_off_c, 2, 64, 0
4, 277532, Note_off_c, 2, 61, 0
4, 277532, Note_off_c, 2, 57, 0
4, 277536, Note_on_c, 2, 67, 90
4, 277628, Note_off_c, 2, 69, 0
4, 277628, Note_off_c, 2, 67, 0
4, 277632, Note_on_c, 2, 64, 90
4, 277632, Note_on_c, 2, 61, 90
4, 277632, Note_on_c, 2, 57, 90
4, 277724, Note_off_c, 2, 64, 0
4, 277724, Note_off_c, 2, 61, 0
4, 277724, Note_off_c, 2, 57, 0
4, 277728, Note_on_c, 2, 67, 90
4, 277820, Note_off_c, 2, 67, 0
4, 277824, Note_on_c, 2, 64, 90
4, 277824, Note_on_c, 2, 61, 90
4, 277824, Note_on_c, 2, 57, 90
4, 277916, Note_off_c, 2, 64, 0
4, 277916, Note_off_c, 2, 61, 0
4, 277916, Note_off_c, 2, 57, 0
4, 277920, Note_on_c, 2, 67, 90
4, 278012, Note_off_c, 2, 67, 0
4, 278016, Note_on_c, 2, 66, 90
4, 278016, Note_on_c, 2, 62, 90
4, 278016, Note_on_c, 2, 60, 90
4, 278108, Note_off_c, 2, 66, 0
4, 278108, Note_off_c, 2, 62, 0
4, 278108, Note_off_c, 2, 60, 0
4, 278112, Note_on_c, 2, 69, 90
4, 278204, Note_off_c, 2, 69, 0
4, 278208, Note_on_c, 2, 66, 90
4, 278208, Note_on_c, 2, 62, 90
4, 278208, Note_on_c, 2, 60, 90
4, 278300, Note_off_c, 2, 66, 0
4, 278300, Note_off_c, 2, 62, 0
4, 278300, Note_off_c, 2, 60, 0
4, 278304, Note_on_c, 2, 69, 90
4, 278396, Note_off_c, 2, 69, 0
4, 278400, Note_on_c, 2, 66, 90
4, 278400, Note_on_c, 2, 62, 90
4, 278400, Note_on_c, 2, 60, 90
4, 278492, Note_off_c, 2, 66, 0
4, 278492, Note_off_c, 2, 62, 0
4, 278492, Note_off_c, 2, 60, 0
4, 278496, Note_on_c, 2, 69, 90
4, 278588, Note_off_c, 2, 69, 0
4, 278592, Note_on_c, 2, 66, 90
4, 278592, Note_on_c, 2, 62, 90
4, 278592, Note_on_c, 2, 60, 90
4, 278684, Note_off_c, 2, 66, 0
4, 278684, Note_off_c, 2, 62, 0
4, 278684, Note_off_c, 2, 60, 0
4, 278688, Note_on_c, 2, 69, 90
4, 278780, Note_off_c, 2, 69, 0
4, 278784, Note_on_c, 2, 66, 90
4, 278784, Note_on_c, 2, 62, 90
4, 278876, Note_off_c, 2, 66, 0
4, 278876, Note_off_c, 2, 62, 0
4, 278880, Note_on_c, 2, 69, 90
4, 278972, Note_off_c, 2, 69, 0
4, 278976, Note_on_c, 2, 66, 90
4, 278976, Note_on_c, 2, 62, 90
4, 279068, Note_off_c, 2, 66, 0
4, 279068, Note_off_c, 2, 62, 0
4, 279072, Note_on_c, 2, 69, 90
4, 279164, Note_off_c, 2, 69, 0
4, 279168, Note_on_c, 2, 66, 87
4, 279168, Note_on_c, 2, 62, 87
4, 279168, Note_on_c, 2, 60, 87
4, 279168, Note_on_c, 2, 78, 87
4, 279168, Note_on_c, 2, 74, 87
4, 279168, Note_on_c, 2, 81, 87
4, 279260, Note_off_c, 2, 66, 0
4, 279260, Note_off_c, 2, 62, 0
4, 279260, Note_off_c, 2, 60, 0
4, 279264, Note_on_c, 2, 69, 90
4, 279356, Note_off_c, 2, 69, 0
4, 279360, Note_on_c, 2, 66, 87
4, 279360, Note_on_c, 2, 62, 87
4, 279360, Note_on_c, 2, 60, 87
4, 279452, Note_off_c, 2, 81, 0
4, 279452, Note_off_c, 2, 66, 0
4, 279452, Note_off_c, 2, 62, 0
4, 279452, Note_off_c, 2, 60, 0
4, 279456, Note_on_c, 2, 69, 90
4, 279456, Note_on_c, 2, 83, 90
4, 279496, Note_off_c, 2, 83, 0
4, 279504, Note_on_c, 2, 84, 90
4, 279544, Note_off_c, 2, 84, 0
4, 279548, Note_off_c, 2, 78, 0
4, 279548, Note_off_c, 2, 74, 0
4, 279548, Note_off_c, 2, 69, 0
4, 279552, Note_on_c, 2, 86, 86
4, 279552, Note_on_c, 2, 83, 86
4, 279552, Note_on_c, 2, 79, 86
4, 279552, Note_on_c, 2, 76, 86
4, 280124, Note_off_c, 2, 86, 0
4, 280124, Note_off_c, 2, 83, 0
4, 280124, Note_off_c, 2, 79, 0
4, 280124, Note_off_c, 2, 76, 0
4, 280128, Note_on_c, 2, 79, 90
4, 280184, Note_off_c, 2, 79, 0
4, 280192, Note_on_c, 2, 81, 90
4, 280248, Note_off_c, 2, 81, 0
4, 280256, Note_on_c, 2, 83, 90
4, 280304, Note_on_c, 2, 72, 90
4, 280312, Note_off_c, 2, 83, 0
4, 280320, Note_on_c, 2, 81, 87
4, 280320, Note_on_c, 2, 84, 87
4, 280320, Note_on_c, 2, 79, 87
4, 280684, Note_off_c, 2, 72, 0
4, 280700, Note_off_c, 2, 81, 0
4, 280700, Note_off_c, 2, 84, 0
4, 280700, Note_off_c, 2, 79, 0
4, 280704, Note_on_c, 2, 78, 90
4, 280892, Note_off_c, 2, 78, 0
4, 280896, Note_on_c, 2, 78, 90
4, 280956, Note_off_c, 2, 78, 0
4, 280960, Note_on_c, 2, 79, 90
4, 281020, Note_off_c, 2, 79, 0
4, 281024, Note_on_c, 2, 81, 90
4, 281084, Note_off_c, 2, 81, 0
4, 281088, Note_on_c, 2, 79, 87
4, 281088, Note_on_c, 2, 83, 87
4, 281088, Note_on_c, 2, 71, 87
4, 281276, Note_off_c, 2, 79, 0
4, 281276, Note_off_c, 2, 83, 0
4, 281276, Note_off_c, 2, 71, 0
4, 281280, Note_on_c, 2, 76, 90
4, 281340, Note_off_c, 2, 76, 0
4, 281344, Note_on_c, 2, 78, 90
4, 281404, Note_off_c, 2, 78, 0
4, 281408, Note_on_c, 2, 79, 90
4, 281468, Note_off_c, 2, 79, 0
4, 281472, Note_on_c, 2, 81, 87
4, 281472, Note_on_c, 2, 76, 87
4, 281472, Note_on_c, 2, 72, 87
4, 281852, Note_off_c, 2, 81, 0
4, 281852, Note_off_c, 2, 76, 0
4, 281852, Note_off_c, 2, 72, 0
4, 281856, Note_on_c, 2, 74, 90
4, 281856, Note_on_c, 2, 71, 90
4, 282044, Note_off_c, 2, 74, 0
4, 282044, Note_off_c, 2, 71, 0
4, 282048, Note_on_c, 2, 74, 90
4, 282108, Note_off_c, 2, 74, 0
4, 282112, Note_on_c, 2, 76, 90
4, 282172, Note_off_c, 2, 76, 0
4, 282176, Note_on_c, 2, 78, 90
4, 282236, Note_off_c, 2, 78, 0
4, 282240, Note_on_c, 2, 79, 87
4, 282240, Note_on_c, 2, 76, 87
4, 282240, Note_on_c, 2, 67, 87
4, 282428, Note_off_c, 2, 79, 0
4, 282432, Note_on_c, 2, 72, 90
4, 282620, Note_off_c, 2, 76, 0
4, 282620, Note_off_c, 2, 67, 0
4, 282620, Note_off_c, 2, 72, 0
4, 282624, Note_on_c, 2, 72, 90
4, 282624, Note_on_c, 2, 69, 90
4, 282816, Note_on_c, 2, 81, 90
4, 282908, Note_off_c, 2, 81, 0
4, 283004, Note_off_c, 2, 72, 0
4, 283004, Note_off_c, 2, 69, 0
4, 283008, Note_on_c, 2, 71, 90
4, 283008, Note_on_c, 2, 71, 90
4, 283100, Note_off_c, 2, 71, 0
4, 283200, Note_on_c, 2, 79, 90
4, 283292, Note_off_c, 2, 79, 0
4, 283388, Note_off_c, 2, 71, 0
4, 283392, Note_on_c, 2, 69, 90
4, 283392, Note_on_c, 2, 69, 90
4, 283484, Note_off_c, 2, 69, 0
4, 283584, Note_on_c, 2, 79, 90
4, 283676, Note_off_c, 2, 79, 0
4, 283772, Note_off_c, 2, 69, 0
4, 283776, Note_on_c, 2, 69, 90
4, 283776, Note_on_c, 2, 69, 90
4, 283868, Note_off_c, 2, 69, 0
4, 283968, Note_on_c, 2, 78, 90
4, 284060, Note_off_c, 2, 78, 0
4, 284156, Note_off_c, 2, 69, 0
4, 284160, Note_on_c, 2, 79, 90
4, 284160, Note_on_c, 2, 67, 90
4, 284348, Note_off_c, 2, 79, 0
4, 284348, Note_off_c, 2, 67, 0
4, 284544, Note_on_c, 2, 79, 90
4, 284544, Note_on_c, 2, 71, 90
4, 284544, Note_on_c, 2, 74, 90
4, 284732, Note_off_c, 2, 79, 0
4, 284732, Note_off_c, 2, 71, 0
4, 284732, Note_off_c, 2, 74, 0
4, 296832, Note_on_c, 2, 62, 66
4, 297024, Note_on_c, 2, 71, 66
4, 297212, Note_off_c, 2, 62, 0
4, 297212, Note_off_c, 2, 71, 0
4, 297216, Note_on_c, 2, 64, 66
4, 297216, Note_on_c, 2, 71, 66
4, 297404, Note_off_c, 2, 71, 0
4, 297408, Note_on_c, 2, 69, 66
4, 297596, Note_off_c, 2, 64, 0
4, 297596, Note_off_c, 2, 69, 0
4, 297600, Note_on_c, 2, 76, 66
4, 297792, Note_on_c, 2, 69, 66
4, 297980, Note_off_c, 2, 76, 0
4, 297980, Note_off_c, 2, 69, 0
4, 297984, Note_on_c, 2, 74, 66
4, 297984, Note_on_c, 2, 69, 66
4, 298172, Note_off_c, 2, 69, 0
4, 298176, Note_on_c, 2, 67, 66
4, 298364, Note_off_c, 2, 74, 0
4, 298364, Note_off_c, 2, 67, 0
4, 298368, Note_on_c, 2, 62, 66
4, 298560, Note_on_c, 2, 67, 66
4, 298748, Note_off_c, 2, 62, 0
4, 298748, Note_off_c, 2, 67, 0
4, 298752, Note_on_c, 2, 60, 66
4, 298752, Note_on_c, 2, 67, 66
4, 298940, Note_off_c, 2, 67, 0
4, 298944, Note_on_c, 2, 66, 66
4, 299132, Note_off_c, 2, 60, 0
4, 299132, Note_off_c, 2, 66, 0
4, 299136, Note_on_c, 2, 72, 66
4, 299328, Note_on_c, 2, 66, 66
4, 299516, Note_off_c, 2, 72, 0
4, 299516, Note_off_c, 2, 66, 0
4, 299520, Note_on_c, 2, 66, 66
4, 299520, Note_on_c, 2, 71, 66
4, 299708, Note_off_c, 2, 66, 0
4, 299712, Note_on_c, 2, 64, 66
4, 299900, Note_off_c, 2, 71, 0
4, 299900, Note_off_c, 2, 64, 0
4, 299904, Note_on_c, 2, 60, 66
4, 300096, Note_on_c, 2, 64, 66
4, 300284, Note_off_c, 2, 60, 0
4, 300284, Note_off_c, 2, 64, 0
4, 300288, Note_on_c, 2, 57, 66
4, 300288, Note_on_c, 2, 64, 66
4, 300476, Note_off_c, 2, 64, 0
4, 300480, Note_on_c, 2, 62, 66
4, 300668, Note_off_c, 2, 57, 0
4, 300668, Note_off_c, 2, 62, 0
4, 300672, Note_on_c, 2, 69, 66
4, 300864, Note_on_c, 2, 62, 66
4, 301052, Note_off_c, 2, 69, 0
4, 301052, Note_off_c, 2, 62, 0
4, 301056, Note_on_c, 2, 67, 66
4, 301056, Note_on_c, 2, 62, 66
4, 301244, Note_off_c, 2, 62, 0
4, 301248, Note_on_c, 2, 60, 66
4, 301436, Note_off_c, 2, 67, 0
4, 301436, Note_off_c, 2, 60, 0
4, 302400, Note_on_c, 2, 72, 66
4, 302588, Note_off_c, 2, 72, 0
4, 302592, Note_on_c, 2, 72, 66
4, 302592, Note_on_c, 2, 65, 66
4, 302780, Note_off_c, 2, 72, 0
4, 302784, Note_on_c, 2, 71, 66
4, 302972, Note_off_c, 2, 65, 0
4, 302972, Note_off_c, 2, 71, 0
4, 302976, Note_on_c, 2, 78, 66
4, 303168, Note_on_c, 2, 71, 66
4, 303356, Note_off_c, 2, 78, 0
4, 303356, Note_off_c, 2, 71, 0
4, 303360, Note_on_c, 2, 76, 66
4, 303360, Note_on_c, 2, 71, 66
4, 303548, Note_off_c, 2, 71, 0
4, 303552, Note_on_c, 2, 69, 66
4, 303740, Note_off_c, 2, 76, 0
4, 303740, Note_off_c, 2, 69, 0
4, 303744, Note_on_c, 2, 64, 66
4, 303936, Note_on_c, 2, 69, 66
4, 304124, Note_off_c, 2, 64, 0
4, 304124, Note_off_c, 2, 69, 0
4, 304128, Note_on_c, 2, 69, 66
4, 304128, Note_on_c, 2, 62, 66
4, 304316, Note_off_c, 2, 69, 0
4, 304320, Note_on_c, 2, 67, 66
4, 304508, Note_off_c, 2, 62, 0
4, 304508, Note_off_c, 2, 67, 0
4, 305472, Note_on_c, 2, 67, 66
4, 305660, Note_off_c, 2, 67, 0
4, 305664, Note_on_c, 2, 60, 66
4, 305664, Note_on_c, 2, 67, 66
4, 305852, Note_off_c, 2, 67, 0
4, 305856, Note_on_c, 2, 66, 66
4, 306044, Note_off_c, 2, 60, 0
4, 306044, Note_off_c, 2, 66, 0
4, 306048, Note_on_c, 2, 72, 66
4, 306240, Note_on_c, 2, 66, 66
4, 306428, Note_off_c, 2, 72, 0
4, 306428, Note_off_c, 2, 66, 0
4, 306432, Note_on_c, 2, 71, 66
4, 306432, Note_on_c, 2, 66, 66
4, 306620, Note_off_c, 2, 66, 0
4, 306624, Note_on_c, 2, 64, 66
4, 306812, Note_off_c, 2, 71, 0
4, 306812, Note_off_c, 2, 64, 0
4, 306816, Note_on_c, 2, 59, 66
4, 307008, Note_on_c, 2, 64, 66
4, 307196, Note_off_c, 2, 59, 0
4, 307196, Note_off_c, 2, 64, 0
4, 307200, Note_on_c, 2, 64, 66
4, 307200, Note_on_c, 2, 57, 66
4, 307388, Note_off_c, 2, 64, 0
4, 307392, Note_on_c, 2, 62, 66
4, 307580, Note_off_c, 2, 57, 0
4, 307580, Note_off_c, 2, 62, 0
4, 307968, Note_on_c, 2, 62, 66
4, 307968, Note_on_c, 2, 57, 66
4, 308736, Note_on_c, 2, 59, 66
4, 309500, Note_off_c, 2, 57, 0
4, 309500, Note_off_c, 2, 62, 0
4, 309500, Note_off_c, 2, 59, 0
4, 309504, Note_on_c, 2, 64, 66
4, 309504, Note_on_c, 2, 61, 66
4, 310268, Note_off_c, 2, 64, 0
4, 310268, Note_off_c, 2, 61, 0
4, 310272, Note_on_c, 2, 64, 65
4, 310272, Note_on_c, 2, 61, 65
4, 310272, Note_on_c, 2, 57, 65
4, 311804, Note_off_c, 2, 64, 0
4, 311804, Note_off_c, 2, 61, 0
4, 311804, Note_off_c, 2, 57, 0
4, 311808, Note_on_c, 2, 66, 56
4, 311808, Note_on_c, 2, 62, 56
4, 311808, Note_on_c, 2, 57, 56
4, 312188, Note_off_c, 2, 66, 0
4, 312188, Note_off_c, 2, 62, 0
4, 312188, Note_off_c, 2, 57, 0
4, 313344, Note_on_c, 2, 67, 55
4, 313344, Note_on_c, 2, 59, 55
4, 313916, Note_off_c, 2, 67, 0
4, 313916, Note_off_c, 2, 59, 0
4, 313920, Note_on_c, 2, 66, 55
4, 313920, Note_on_c, 2, 58, 55
4, 314060, Note_off_c, 2, 66, 0
4, 314060, Note_off_c, 2, 58, 0
4, 314112, Note_on_c, 2, 67, 55
4, 314112, Note_on_c, 2, 59, 55
4, 314204, Note_off_c, 2, 67, 0
4, 314204, Note_off_c, 2, 59, 0
4, 314304, Note_on_c, 2, 69, 55
4, 314304, Note_on_c, 2, 60, 55
4, 314396, Note_off_c, 2, 69, 0
4, 314396, Note_off_c, 2, 60, 0
4, 314496, Note_on_c, 2, 71, 55
4, 314496, Note_on_c, 2, 62, 55
4, 314588, Note_off_c, 2, 71, 0
4, 314588, Note_off_c, 2, 62, 0
4, 314688, Note_on_c, 2, 69, 55
4, 314688, Note_on_c, 2, 60, 55
4, 314780, Note_off_c, 2, 69, 0
4, 314780, Note_off_c, 2, 60, 0
4, 314880, Note_on_c, 2, 67, 55
4, 314880, Note_on_c, 2, 59, 55
4, 315068, Note_off_c, 2, 67, 0
4, 315068, Note_off_c, 2, 59, 0
4, 315072, Note_on_c, 2, 62, 66
4, 315072, Note_on_c, 2, 59, 66
4, 315164, Note_off_c, 2, 62, 0
4, 315164, Note_off_c, 2, 59, 0
4, 315168, Note_on_c, 2, 62, 66
4, 315168, Note_on_c, 2, 59, 66
4, 315260, Note_off_c, 2, 62, 0
4, 315260, Note_off_c, 2, 59, 0
4, 315264, Note_on_c, 2, 62, 66
4, 315264, Note_on_c, 2, 59, 66
4, 315452, Note_off_c, 2, 62, 0
4, 315452, Note_off_c, 2, 59, 0
4, 315456, Note_on_c, 2, 62, 66
4, 315456, Note_on_c, 2, 59, 66
4, 315644, Note_off_c, 2, 62, 0
4, 315644, Note_off_c, 2, 59, 0
4, 315648, Note_on_c, 2, 62, 66
4, 315648, Note_on_c, 2, 59, 66
4, 315836, Note_off_c, 2, 62, 0
4, 315836, Note_off_c, 2, 59, 0
4, 315840, Note_on_c, 2, 59, 66
4, 315840, Note_on_c, 2, 55, 66
4, 315932, Note_off_c, 2, 59, 0
4, 315932, Note_off_c, 2, 55, 0
4, 316032, Note_on_c, 2, 62, 66
4, 316032, Note_on_c, 2, 59, 66
4, 316220, Note_off_c, 2, 62, 0
4, 316220, Note_off_c, 2, 59, 0
4, 316224, Note_on_c, 2, 59, 66
4, 316224, Note_on_c, 2, 55, 66
4, 316316, Note_off_c, 2, 59, 0
4, 316316, Note_off_c, 2, 55, 0
4, 316416, Note_on_c, 2, 71, 66
4, 316416, Note_on_c, 2, 67, 66
4, 316988, Note_off_c, 2, 71, 0
4, 316988, Note_off_c, 2, 67, 0
4, 316992, Note_on_c, 2, 70, 66
4, 316992, Note_on_c, 2, 66, 66
4, 317180, Note_off_c, 2, 70, 0
4, 317180, Note_off_c, 2, 66, 0
4, 317184, Note_on_c, 2, 71, 66
4, 317184, Note_on_c, 2, 67, 66
4, 317276, Note_off_c, 2, 71, 0
4, 317276, Note_off_c, 2, 67, 0
4, 317376, Note_on_c, 2, 72, 66
4, 317376, Note_on_c, 2, 69, 66
4, 317468, Note_off_c, 2, 72, 0
4, 317468, Note_off_c, 2, 69, 0
4, 317568, Note_on_c, 2, 74, 66
4, 317568, Note_on_c, 2, 71, 66
4, 317660, Note_off_c, 2, 74, 0
4, 317660, Note_off_c, 2, 71, 0
4, 317760, Note_on_c, 2, 72, 66
4, 317768, Note_on_c, 2, 69, 66
4, 317852, Note_off_c, 2, 72, 0
4, 317860, Note_off_c, 2, 69, 0
4, 317952, Note_on_c, 2, 71, 66
4, 317952, Note_on_c, 2, 67, 66
4, 318140, Note_off_c, 2, 71, 0
4, 318140, Note_off_c, 2, 67, 0
4, 318144, Note_on_c, 2, 74, 66
4, 318144, Note_on_c, 2, 71, 66
4, 318236, Note_off_c, 2, 74, 0
4, 318236, Note_off_c, 2, 71, 0
4, 318240, Note_on_c, 2, 74, 66
4, 318240, Note_on_c, 2, 71, 66
4, 318332, Note_off_c, 2, 74, 0
4, 318332, Note_off_c, 2, 71, 0
4, 318336, Note_on_c, 2, 74, 66
4, 318336, Note_on_c, 2, 71, 66
4, 318524, Note_off_c, 2, 74, 0
4, 318524, Note_off_c, 2, 71, 0
4, 318528, Note_on_c, 2, 74, 66
4, 318528, Note_on_c, 2, 71, 66
4, 318716, Note_off_c, 2, 74, 0
4, 318716, Note_off_c, 2, 71, 0
4, 318720, Note_on_c, 2, 74, 66
4, 318720, Note_on_c, 2, 71, 66
4, 318908, Note_off_c, 2, 74, 0
4, 318908, Note_off_c, 2, 71, 0
4, 318912, Note_on_c, 2, 71, 66
4, 318912, Note_on_c, 2, 67, 66
4, 319004, Note_off_c, 2, 71, 0
4, 319004, Note_off_c, 2, 67, 0
4, 319104, Note_on_c, 2, 74, 66
4, 319104, Note_on_c, 2, 71, 66
4, 319292, Note_off_c, 2, 74, 0
4, 319292, Note_off_c, 2, 71, 0
4, 319296, Note_on_c, 2, 71, 66
4, 319296, Note_on_c, 2, 67, 66
4, 319388, Note_off_c, 2, 71, 0
4, 319388, Note_off_c, 2, 67, 0
4, 319488, Note_on_c, 2, 79, 96
4, 319488, Note_on_c, 2, 74, 96
4, 319488, Note_on_c, 2, 71, 96
4, 319868, Note_off_c, 2, 79, 0
4, 319868, Note_off_c, 2, 74, 0
4, 319868, Note_off_c, 2, 71, 0
4, 319872, Note_on_c, 2, 79, 96
4, 319872, Note_on_c, 2, 74, 96
4, 319872, Note_on_c, 2, 71, 96
4, 319964, Note_off_c, 2, 79, 0
4, 319964, Note_off_c, 2, 74, 0
4, 319964, Note_off_c, 2, 71, 0
4, 319968, Note_on_c, 2, 83, 96
4, 320060, Note_off_c, 2, 83, 0
4, 320064, Note_on_c, 2, 81, 96
4, 320156, Note_off_c, 2, 81, 0
4, 320160, Note_on_c, 2, 79, 96
4, 320252, Note_off_c, 2, 79, 0
4, 320256, Note_on_c, 2, 81, 96
4, 320256, Note_on_c, 2, 78, 96
4, 320348, Note_off_c, 2, 78, 0
4, 320352, Note_on_c, 2, 74, 96
4, 320444, Note_off_c, 2, 74, 0
4, 320448, Note_on_c, 2, 74, 96
4, 320540, Note_off_c, 2, 74, 0
4, 320544, Note_on_c, 2, 74, 96
4, 320636, Note_off_c, 2, 74, 0
4, 320640, Note_on_c, 2, 74, 96
4, 320828, Note_off_c, 2, 81, 0
4, 320828, Note_off_c, 2, 74, 0
4, 320832, Note_on_c, 2, 78, 96
4, 320924, Note_off_c, 2, 78, 0
4, 320928, Note_on_c, 2, 74, 96
4, 321020, Note_off_c, 2, 74, 0
4, 321024, Note_on_c, 2, 79, 96
4, 321024, Note_on_c, 2, 74, 96
4, 321024, Note_on_c, 2, 71, 96
4, 321404, Note_off_c, 2, 79, 0
4, 321404, Note_off_c, 2, 74, 0
4, 321404, Note_off_c, 2, 71, 0
4, 321408, Note_on_c, 2, 79, 96
4, 321408, Note_on_c, 2, 74, 96
4, 321408, Note_on_c, 2, 71, 96
4, 321500, Note_off_c, 2, 79, 0
4, 321500, Note_off_c, 2, 74, 0
4, 321500, Note_off_c, 2, 71, 0
4, 321504, Note_on_c, 2, 83, 96
4, 321596, Note_off_c, 2, 83, 0
4, 321600, Note_on_c, 2, 81, 96
4, 321692, Note_off_c, 2, 81, 0
4, 321696, Note_on_c, 2, 79, 96
4, 321788, Note_off_c, 2, 79, 0
4, 321792, Note_on_c, 2, 81, 96
4, 321792, Note_on_c, 2, 78, 96
4, 321884, Note_off_c, 2, 78, 0
4, 321888, Note_on_c, 2, 74, 96
4, 321980, Note_off_c, 2, 74, 0
4, 321984, Note_on_c, 2, 74, 96
4, 322076, Note_off_c, 2, 74, 0
4, 322080, Note_on_c, 2, 74, 96
4, 322172, Note_off_c, 2, 74, 0
4, 322176, Note_on_c, 2, 74, 96
4, 322364, Note_off_c, 2, 81, 0
4, 322364, Note_off_c, 2, 74, 0
4, 322368, Note_on_c, 2, 78, 96
4, 322460, Note_off_c, 2, 78, 0
4, 322464, Note_on_c, 2, 74, 96
4, 322556, Note_off_c, 2, 74, 0
4, 322560, Note_on_c, 2, 78, 96
4, 322748, Note_off_c, 2, 78, 0
4, 322752, Note_on_c, 2, 79, 96
4, 322844, Note_off_c, 2, 79, 0
4, 322848, Note_on_c, 2, 81, 96
4, 322940, Note_off_c, 2, 81, 0
4, 322944, Note_on_c, 2, 83, 96
4, 323036, Note_off_c, 2, 83, 0
4, 323040, Note_on_c, 2, 79, 96
4, 323132, Note_off_c, 2, 79, 0
4, 323136, Note_on_c, 2, 83, 96
4, 323228, Note_off_c, 2, 83, 0
4, 323232, Note_on_c, 2, 79, 96
4, 323324, Note_off_c, 2, 79, 0
4, 323328, Note_on_c, 2, 76, 96
4, 323516, Note_off_c, 2, 76, 0
4, 323520, Note_on_c, 2, 64, 96
4, 323612, Note_off_c, 2, 64, 0
4, 323616, Note_on_c, 2, 66, 96
4, 323708, Note_off_c, 2, 66, 0
4, 323712, Note_on_c, 2, 67, 96
4, 323804, Note_off_c, 2, 67, 0
4, 323808, Note_on_c, 2, 64, 96
4, 323900, Note_off_c, 2, 64, 0
4, 323904, Note_on_c, 2, 67, 96
4, 323996, Note_off_c, 2, 67, 0
4, 324000, Note_on_c, 2, 64, 96
4, 324092, Note_off_c, 2, 64, 0
4, 324096, Note_on_c, 2, 60, 96
4, 324284, Note_off_c, 2, 60, 0
4, 324288, Note_on_c, 2, 81, 96
4, 324380, Note_off_c, 2, 81, 0
4, 324384, Note_on_c, 2, 83, 96
4, 324476, Note_off_c, 2, 83, 0
4, 324480, Note_on_c, 2, 84, 96
4, 324572, Note_off_c, 2, 84, 0
4, 324576, Note_on_c, 2, 81, 96
4, 324668, Note_off_c, 2, 81, 0
4, 324672, Note_on_c, 2, 84, 96
4, 324764, Note_off_c, 2, 84, 0
4, 324768, Note_on_c, 2, 81, 96
4, 324860, Note_off_c, 2, 81, 0
4, 324864, Note_on_c, 2, 78, 96
4, 325052, Note_off_c, 2, 78, 0
4, 325056, Note_on_c, 2, 66, 96
4, 325148, Note_off_c, 2, 66, 0
4, 325152, Note_on_c, 2, 67, 96
4, 325244, Note_off_c, 2, 67, 0
4, 325248, Note_on_c, 2, 69, 96
4, 325340, Note_off_c, 2, 69, 0
4, 325344, Note_on_c, 2, 66, 96
4, 325436, Note_off_c, 2, 66, 0
4, 325440, Note_on_c, 2, 69, 96
4, 325532, Note_off_c, 2, 69, 0
4, 325536, Note_on_c, 2, 66, 96
4, 325628, Note_off_c, 2, 66, 0
4, 325632, Note_on_c, 2, 62, 96
4, 325820, Note_off_c, 2, 62, 0
4, 325824, Note_on_c, 2, 83, 96
4, 325916, Note_off_c, 2, 83, 0
4, 325920, Note_on_c, 2, 84, 96
4, 326012, Note_off_c, 2, 84, 0
4, 326016, Note_on_c, 2, 86, 96
4, 326104, Note_on_c, 2, 83, 96
4, 326108, Note_off_c, 2, 86, 0
4, 326196, Note_off_c, 2, 83, 0
4, 326208, Note_on_c, 2, 86, 96
4, 326300, Note_off_c, 2, 86, 0
4, 326304, Note_on_c, 2, 83, 96
4, 326396, Note_off_c, 2, 83, 0
4, 326400, Note_on_c, 2, 79, 96
4, 326584, Note_on_c, 2, 79, 96
4, 326584, Note_on_c, 2, 72, 96
4, 326588, Note_off_c, 2, 79, 0
4, 326592, Note_on_c, 2, 84, 96
4, 326772, Note_off_c, 2, 79, 0
4, 326772, Note_off_c, 2, 72, 0
4, 326780, Note_off_c, 2, 84, 0
4, 326968, Note_on_c, 2, 78, 96
4, 326968, Note_on_c, 2, 74, 96
4, 326968, Note_on_c, 2, 83, 96
4, 327156, Note_off_c, 2, 78, 0
4, 327156, Note_off_c, 2, 74, 0
4, 327156, Note_off_c, 2, 83, 0
4, 327352, Note_on_c, 2, 76, 96
4, 327352, Note_on_c, 2, 69, 96
4, 327360, Note_on_c, 2, 81, 96
4, 327540, Note_off_c, 2, 76, 0
4, 327540, Note_off_c, 2, 69, 0
4, 327548, Note_off_c, 2, 81, 0
4, 327736, Note_on_c, 2, 76, 96
4, 327744, Note_on_c, 2, 79, 96
4, 327744, Note_on_c, 2, 69, 96
4, 327924, Note_off_c, 2, 76, 0
4, 327932, Note_off_c, 2, 79, 0
4, 327932, Note_off_c, 2, 69, 0
4, 327936, Note_on_c, 2, 78, 96
4, 327936, Note_on_c, 2, 74, 96
4, 327936, Note_on_c, 2, 69, 96
4, 328124, Note_off_c, 2, 78, 0
4, 328124, Note_off_c, 2, 74, 0
4, 328124, Note_off_c, 2, 69, 0
4, 328128, Note_on_c, 2, 81, 96
4, 328128, Note_on_c, 2, 78, 96
4, 328220, Note_off_c, 2, 81, 0
4, 328220, Note_off_c, 2, 78, 0
4, 328224, Note_on_c, 2, 74, 96
4, 328316, Note_off_c, 2, 74, 0
4, 328320, Note_on_c, 2, 86, 96
4, 328320, Note_on_c, 2, 83, 96
4, 328412, Note_off_c, 2, 86, 0
4, 328412, Note_off_c, 2, 83, 0
4, 328416, Note_on_c, 2, 74, 96
4, 328508, Note_off_c, 2, 74, 0
4, 328512, Note_on_c, 2, 83, 96
4, 328512, Note_on_c, 2, 79, 96
4, 328604, Note_off_c, 2, 83, 0
4, 328604, Note_off_c, 2, 79, 0
4, 328608, Note_on_c, 2, 74, 96
4, 328700, Note_off_c, 2, 74, 0
4, 328704, Note_on_c, 2, 81, 96
4, 328704, Note_on_c, 2, 78, 96
4, 328796, Note_off_c, 2, 81, 0
4, 328796, Note_off_c, 2, 78, 0
4, 328800, Note_on_c, 2, 74, 96
4, 328892, Note_off_c, 2, 74, 0
4, 328896, Note_on_c, 2, 81, 96
4, 328896, Note_on_c, 2, 78, 96
4, 328988, Note_off_c, 2, 81, 0
4, 328988, Note_off_c, 2, 78, 0
4, 328992, Note_on_c, 2, 74, 96
4, 329084, Note_off_c, 2, 74, 0
4, 329088, Note_on_c, 2, 86, 96
4, 329088, Note_on_c, 2, 83, 96
4, 329180, Note_off_c, 2, 86, 0
4, 329180, Note_off_c, 2, 83, 0
4, 329184, Note_on_c, 2, 74, 96
4, 329276, Note_off_c, 2, 74, 0
4, 329280, Note_on_c, 2, 83, 96
4, 329280, Note_on_c, 2, 79, 96
4, 329372, Note_off_c, 2, 83, 0
4, 329372, Note_off_c, 2, 79, 0
4, 329376, Note_on_c, 2, 74, 96
4, 329468, Note_off_c, 2, 74, 0
4, 329472, Note_on_c, 2, 81, 96
4, 329472, Note_on_c, 2, 78, 96
4, 329564, Note_off_c, 2, 81, 0
4, 329564, Note_off_c, 2, 78, 0
4, 329568, Note_on_c, 2, 74, 96
4, 329660, Note_off_c, 2, 74, 0
4, 329664, Note_on_c, 2, 83, 96
4, 329664, Note_on_c, 2, 79, 96
4, 329756, Note_off_c, 2, 83, 0
4, 329756, Note_off_c, 2, 79, 0
4, 329760, Note_on_c, 2, 74, 96
4, 329852, Note_off_c, 2, 74, 0
4, 329856, Note_on_c, 2, 81, 96
4, 329856, Note_on_c, 2, 78, 96
4, 329948, Note_off_c, 2, 81, 0
4, 329948, Note_off_c, 2, 78, 0
4, 329952, Note_on_c, 2, 74, 96
4, 330044, Note_off_c, 2, 74, 0
4, 330048, Note_on_c, 2, 83, 96
4, 330048, Note_on_c, 2, 79, 96
4, 330140, Note_off_c, 2, 83, 0
4, 330140, Note_off_c, 2, 79, 0
4, 330144, Note_on_c, 2, 74, 96
4, 330236, Note_off_c, 2, 74, 0
4, 330240, Note_on_c, 2, 81, 96
4, 330240, Note_on_c, 2, 78, 96
4, 330428, Note_off_c, 2, 81, 0
4, 330428, Note_off_c, 2, 78, 0
4, 332736, Note_on_c, 2, 62, 66
4, 332736, Note_on_c, 2, 59, 66
4, 332828, Note_off_c, 2, 62, 0
4, 332828, Note_off_c, 2, 59, 0
4, 332832, Note_on_c, 2, 62, 66
4, 332832, Note_on_c, 2, 59, 66
4, 332924, Note_off_c, 2, 62, 0
4, 332924, Note_off_c, 2, 59, 0
4, 332928, Note_on_c, 2, 62, 66
4, 332928, Note_on_c, 2, 59, 66
4, 333116, Note_off_c, 2, 62, 0
4, 333116, Note_off_c, 2, 59, 0
4, 333120, Note_on_c, 2, 62, 66
4, 333120, Note_on_c, 2, 59, 66
4, 333308, Note_off_c, 2, 62, 0
4, 333308, Note_off_c, 2, 59, 0
4, 333312, Note_on_c, 2, 62, 66
4, 333312, Note_on_c, 2, 59, 66
4, 333500, Note_off_c, 2, 62, 0
4, 333500, Note_off_c, 2, 59, 0
4, 333504, Note_on_c, 2, 59, 66
4, 333504, Note_on_c, 2, 55, 66
4, 333596, Note_off_c, 2, 59, 0
4, 333596, Note_off_c, 2, 55, 0
4, 333696, Note_on_c, 2, 62, 66
4, 333696, Note_on_c, 2, 59, 66
4, 333884, Note_off_c, 2, 62, 0
4, 333884, Note_off_c, 2, 59, 0
4, 333888, Note_on_c, 2, 59, 66
4, 333888, Note_on_c, 2, 55, 66
4, 333980, Note_off_c, 2, 59, 0
4, 333980, Note_off_c, 2, 55, 0
4, 335808, Note_on_c, 2, 74, 66
4, 335808, Note_on_c, 2, 71, 66
4, 335900, Note_off_c, 2, 74, 0
4, 335900, Note_off_c, 2, 71, 0
4, 335904, Note_on_c, 2, 74, 66
4, 335904, Note_on_c, 2, 71, 66
4, 335996, Note_off_c, 2, 74, 0
4, 335996, Note_off_c, 2, 71, 0
4, 336000, Note_on_c, 2, 74, 66
4, 336000, Note_on_c, 2, 71, 66
4, 336188, Note_off_c, 2, 74, 0
4, 336188, Note_off_c, 2, 71, 0
4, 336192, Note_on_c, 2, 74, 66
4, 336192, Note_on_c, 2, 71, 66
4, 336380, Note_off_c, 2, 74, 0
4, 336380, Note_off_c, 2, 71, 0
4, 336384, Note_on_c, 2, 74, 66
4, 336384, Note_on_c, 2, 71, 66
4, 336572, Note_off_c, 2, 74, 0
4, 336572, Note_off_c, 2, 71, 0
4, 336576, Note_on_c, 2, 71, 66
4, 336576, Note_on_c, 2, 67, 66
4, 336668, Note_off_c, 2, 71, 0
4, 336668, Note_off_c, 2, 67, 0
4, 336768, Note_on_c, 2, 74, 66
4, 336768, Note_on_c, 2, 71, 66
4, 336956, Note_off_c, 2, 74, 0
4, 336956, Note_off_c, 2, 71, 0
4, 336960, Note_on_c, 2, 71, 66
4, 336960, Note_on_c, 2, 67, 66
4, 337052, Note_off_c, 2, 71, 0
4, 337052, Note_off_c, 2, 67, 0
4, 337152, Note_on_c, 2, 79, 66
4, 337152, Note_on_c, 2, 71, 66
4, 337724, Note_off_c, 2, 79, 0
4, 337724, Note_off_c, 2, 71, 0
4, 337728, Note_on_c, 2, 83, 66
4, 337728, Note_on_c, 2, 74, 66
4, 337820, Note_off_c, 2, 83, 0
4, 337820, Note_off_c, 2, 74, 0
4, 337824, Note_on_c, 2, 79, 66
4, 337824, Note_on_c, 2, 71, 66
4, 337916, Note_off_c, 2, 79, 0
4, 337916, Note_off_c, 2, 71, 0
4, 337920, Note_on_c, 2, 81, 66
4, 337920, Note_on_c, 2, 78, 66
4, 337920, Note_on_c, 2, 69, 66
4, 338012, Note_off_c, 2, 78, 0
4, 338012, Note_off_c, 2, 69, 0
4, 338016, Note_on_c, 2, 74, 66
4, 338016, Note_on_c, 2, 66, 66
4, 338108, Note_off_c, 2, 74, 0
4, 338108, Note_off_c, 2, 66, 0
4, 338112, Note_on_c, 2, 74, 66
4, 338112, Note_on_c, 2, 66, 66
4, 338204, Note_off_c, 2, 74, 0
4, 338204, Note_off_c, 2, 66, 0
4, 338208, Note_on_c, 2, 74, 66
4, 338208, Note_on_c, 2, 66, 66
4, 338300, Note_off_c, 2, 74, 0
4, 338300, Note_off_c, 2, 66, 0
4, 338304, Note_on_c, 2, 74, 66
4, 338304, Note_on_c, 2, 66, 66
4, 338492, Note_off_c, 2, 81, 0
4, 338492, Note_off_c, 2, 74, 0
4, 338492, Note_off_c, 2, 66, 0
4, 338496, Note_on_c, 2, 78, 66
4, 338496, Note_on_c, 2, 62, 66
4, 338584, Note_on_c, 2, 60, 66
4, 338588, Note_off_c, 2, 78, 0
4, 338588, Note_off_c, 2, 62, 0
4, 338592, Note_on_c, 2, 74, 66
4, 338676, Note_off_c, 2, 60, 0
4, 338684, Note_off_c, 2, 74, 0
4, 338688, Note_on_c, 2, 86, 66
4, 338688, Note_on_c, 2, 79, 66
4, 338780, Note_off_c, 2, 86, 0
4, 338784, Note_on_c, 2, 83, 66
4, 338876, Note_off_c, 2, 83, 0
4, 338880, Note_on_c, 2, 83, 66
4, 338972, Note_off_c, 2, 83, 0
4, 338976, Note_on_c, 2, 83, 66
4, 339068, Note_off_c, 2, 83, 0
4, 339072, Note_on_c, 2, 83, 66
4, 339256, Note_on_c, 2, 74, 66
4, 339260, Note_off_c, 2, 79, 0
4, 339260, Note_off_c, 2, 83, 0
4, 339264, Note_on_c, 2, 83, 66
4, 339348, Note_off_c, 2, 74, 0
4, 339356, Note_off_c, 2, 83, 0
4, 339360, Note_on_c, 2, 79, 66
4, 339360, Note_on_c, 2, 71, 66
4, 339452, Note_off_c, 2, 79, 0
4, 339452, Note_off_c, 2, 71, 0
4, 339456, Note_on_c, 2, 81, 66
4, 339456, Note_on_c, 2, 78, 66
4, 339456, Note_on_c, 2, 69, 66
4, 339548, Note_off_c, 2, 78, 0
4, 339548, Note_off_c, 2, 69, 0
4, 339552, Note_on_c, 2, 74, 66
4, 339644, Note_off_c, 2, 74, 0
4, 339648, Note_on_c, 2, 74, 66
4, 339740, Note_off_c, 2, 74, 0
4, 339744, Note_on_c, 2, 74, 66
4, 339836, Note_off_c, 2, 74, 0
4, 339840, Note_on_c, 2, 74, 66
4, 340028, Note_off_c, 2, 81, 0
4, 340028, Note_off_c, 2, 74, 0
4, 340032, Note_on_c, 2, 78, 66
4, 340124, Note_off_c, 2, 78, 0
4, 340128, Note_on_c, 2, 74, 66
4, 340220, Note_off_c, 2, 74, 0
4, 340224, Note_on_c, 2, 86, 66
4, 340412, Note_off_c, 2, 86, 0
4, 340416, Note_on_c, 2, 79, 66
4, 340416, Note_on_c, 2, 71, 66
4, 340604, Note_off_c, 2, 79, 0
4, 340604, Note_off_c, 2, 71, 0
4, 340608, Note_on_c, 2, 83, 66
4, 340608, Note_on_c, 2, 74, 66
4, 340796, Note_off_c, 2, 83, 0
4, 340796, Note_off_c, 2, 74, 0
4, 340800, Note_on_c, 2, 79, 66
4, 340800, Note_on_c, 2, 71, 66
4, 340988, Note_off_c, 2, 79, 0
4, 340988, Note_off_c, 2, 71, 0
4, 340992, Note_on_c, 2, 76, 66
4, 341180, Note_off_c, 2, 76, 0
4, 341952, Note_on_c, 2, 81, 66
4, 341952, Note_on_c, 2, 72, 66
4, 342140, Note_off_c, 2, 81, 0
4, 342140, Note_off_c, 2, 72, 0
4, 342144, Note_on_c, 2, 84, 66
4, 342144, Note_on_c, 2, 76, 66
4, 342332, Note_off_c, 2, 84, 0
4, 342332, Note_off_c, 2, 76, 0
4, 342336, Note_on_c, 2, 81, 66
4, 342336, Note_on_c, 2, 72, 66
4, 342524, Note_off_c, 2, 81, 0
4, 342524, Note_off_c, 2, 72, 0
4, 342528, Note_on_c, 2, 78, 66
4, 342528, Note_on_c, 2, 69, 66
4, 342716, Note_off_c, 2, 78, 0
4, 342716, Note_off_c, 2, 69, 0
4, 343488, Note_on_c, 2, 83, 66
4, 343488, Note_on_c, 2, 74, 66
4, 343676, Note_off_c, 2, 83, 0
4, 343676, Note_off_c, 2, 74, 0
4, 343680, Note_on_c, 2, 86, 66
4, 343680, Note_on_c, 2, 78, 66
4, 343868, Note_off_c, 2, 86, 0
4, 343868, Note_off_c, 2, 78, 0
4, 343872, Note_on_c, 2, 83, 66
4, 343872, Note_on_c, 2, 74, 66
4, 344060, Note_off_c, 2, 83, 0
4, 344060, Note_off_c, 2, 74, 0
4, 344064, Note_on_c, 2, 79, 66
4, 344064, Note_on_c, 2, 71, 66
4, 344248, Note_on_c, 2, 79, 66
4, 344248, Note_on_c, 2, 72, 66
4, 344252, Note_off_c, 2, 79, 0
4, 344252, Note_off_c, 2, 71, 0
4, 344256, Note_on_c, 2, 84, 66
4, 344256, Note_on_c, 2, 76, 66
4, 344436, Note_off_c, 2, 79, 0
4, 344436, Note_off_c, 2, 72, 0
4, 344444, Note_off_c, 2, 84, 0
4, 344444, Note_off_c, 2, 76, 0
4, 344640, Note_on_c, 2, 83, 66
4, 344640, Note_on_c, 2, 78, 66
4, 344640, Note_on_c, 2, 74, 66
4, 344640, Note_on_c, 2, 71, 66
4, 344828, Note_off_c, 2, 83, 0
4, 344828, Note_off_c, 2, 78, 0
4, 344828, Note_off_c, 2, 74, 0
4, 344828, Note_off_c, 2, 71, 0
4, 345024, Note_on_c, 2, 81, 66
4, 345024, Note_on_c, 2, 76, 66
4, 345024, Note_on_c, 2, 72, 66
4, 345024, Note_on_c, 2, 69, 66
4, 345212, Note_off_c, 2, 81, 0
4, 345212, Note_off_c, 2, 76, 0
4, 345212, Note_off_c, 2, 72, 0
4, 345212, Note_off_c, 2, 69, 0
4, 345408, Note_on_c, 2, 79, 66
4, 345408, Note_on_c, 2, 76, 66
4, 345408, Note_on_c, 2, 69, 66
4, 345408, Note_on_c, 2, 67, 66
4, 345596, Note_off_c, 2, 79, 0
4, 345596, Note_off_c, 2, 76, 0
4, 345596, Note_off_c, 2, 69, 0
4, 345596, Note_off_c, 2, 67, 0
4, 345600, Note_on_c, 2, 78, 66
4, 345600, Note_on_c, 2, 74, 66
4, 345600, Note_on_c, 2, 69, 66
4, 345600, Note_on_c, 2, 66, 66
4, 345788, Note_off_c, 2, 78, 0
4, 345788, Note_off_c, 2, 74, 0
4, 345788, Note_off_c, 2, 69, 0
4, 345788, Note_off_c, 2, 66, 0
4, 346560, Note_on_c, 2, 81, 66
4, 346652, Note_off_c, 2, 81, 0
4, 346656, Note_on_c, 2, 78, 66
4, 346748, Note_off_c, 2, 78, 0
4, 346752, Note_on_c, 2, 81, 66
4, 346844, Note_off_c, 2, 81, 0
4, 346848, Note_on_c, 2, 78, 66
4, 346940, Note_off_c, 2, 78, 0
4, 346944, Note_on_c, 2, 83, 66
4, 347036, Note_off_c, 2, 83, 0
4, 347040, Note_on_c, 2, 79, 66
4, 347132, Note_off_c, 2, 79, 0
4, 347136, Note_on_c, 2, 78, 66
4, 347136, Note_on_c, 2, 81, 66
4, 347324, Note_off_c, 2, 78, 0
4, 347324, Note_off_c, 2, 81, 0
4, 348096, Note_on_c, 2, 81, 66
4, 348188, Note_off_c, 2, 81, 0
4, 348192, Note_on_c, 2, 78, 66
4, 348284, Note_off_c, 2, 78, 0
4, 348288, Note_on_c, 2, 81, 66
4, 348380, Note_off_c, 2, 81, 0
4, 348384, Note_on_c, 2, 78, 66
4, 348476, Note_off_c, 2, 78, 0
4, 348480, Note_on_c, 2, 83, 66
4, 348572, Note_off_c, 2, 83, 0
4, 348576, Note_on_c, 2, 79, 66
4, 348668, Note_off_c, 2, 79, 0
4, 348672, Note_on_c, 2, 81, 66
4, 348672, Note_on_c, 2, 78, 66
4, 348860, Note_off_c, 2, 81, 0
4, 348860, Note_off_c, 2, 78, 0
4, 350016, Note_on_c, 2, 79, 90
4, 350016, Note_on_c, 2, 83, 90
4, 350016, Note_on_c, 2, 86, 90
4, 350108, Note_off_c, 2, 79, 0
4, 350108, Note_off_c, 2, 83, 0
4, 350108, Note_off_c, 2, 86, 0
4, 350112, Note_on_c, 2, 74, 90
4, 350204, Note_off_c, 2, 74, 0
4, 350208, Note_on_c, 2, 86, 90
4, 350208, Note_on_c, 2, 81, 90
4, 350208, Note_on_c, 2, 78, 90
4, 350300, Note_off_c, 2, 86, 0
4, 350300, Note_off_c, 2, 81, 0
4, 350300, Note_off_c, 2, 78, 0
4, 350304, Note_on_c, 2, 74, 90
4, 350396, Note_off_c, 2, 74, 0
4, 350400, Note_on_c, 2, 86, 90
4, 350400, Note_on_c, 2, 83, 90
4, 350400, Note_on_c, 2, 79, 90
4, 350492, Note_off_c, 2, 86, 0
4, 350492, Note_off_c, 2, 83, 0
4, 350492, Note_off_c, 2, 79, 0
4, 350496, Note_on_c, 2, 74, 90
4, 350588, Note_off_c, 2, 74, 0
4, 350592, Note_on_c, 2, 86, 90
4, 350592, Note_on_c, 2, 81, 90
4, 350592, Note_on_c, 2, 78, 90
4, 350684, Note_off_c, 2, 86, 0
4, 350684, Note_off_c, 2, 81, 0
4, 350684, Note_off_c, 2, 78, 0
4, 350688, Note_on_c, 2, 74, 90
4, 350780, Note_off_c, 2, 74, 0
4, 350784, Note_on_c, 2, 86, 90
4, 350784, Note_on_c, 2, 83, 90
4, 350784, Note_on_c, 2, 79, 90
4, 350876, Note_off_c, 2, 86, 0
4, 350876, Note_off_c, 2, 83, 0
4, 350876, Note_off_c, 2, 79, 0
4, 350880, Note_on_c, 2, 74, 90
4, 350972, Note_off_c, 2, 74, 0
4, 350976, Note_on_c, 2, 86, 90
4, 350976, Note_on_c, 2, 81, 90
4, 350976, Note_on_c, 2, 78, 90
4, 351068, Note_off_c, 2, 86, 0
4, 351068, Note_off_c, 2, 81, 0
4, 351068, Note_off_c, 2, 78, 0
4, 351072, Note_on_c, 2, 74, 90
4, 351164, Note_off_c, 2, 74, 0
4, 351168, Note_on_c, 2, 86, 90
4, 351168, Note_on_c, 2, 83, 90
4, 351168, Note_on_c, 2, 79, 90
4, 351260, Note_off_c, 2, 86, 0
4, 351260, Note_off_c, 2, 83, 0
4, 351260, Note_off_c, 2, 79, 0
4, 351264, Note_on_c, 2, 74, 90
4, 351356, Note_off_c, 2, 74, 0
4, 351360, Note_on_c, 2, 86, 90
4, 351360, Note_on_c, 2, 81, 90
4, 351360, Note_on_c, 2, 78, 90
4, 351452, Note_off_c, 2, 86, 0
4, 351452, Note_off_c, 2, 81, 0
4, 351452, Note_off_c, 2, 78, 0
4, 351456, Note_on_c, 2, 74, 90
4, 351548, Note_off_c, 2, 74, 0
4, 351552, Note_on_c, 2, 86, 90
4, 351552, Note_on_c, 2, 83, 90
4, 351552, Note_on_c, 2, 79, 90
4, 351644, Note_off_c, 2, 86, 0
4, 351644, Note_off_c, 2, 83, 0
4, 351644, Note_off_c, 2, 79, 0
4, 351648, Note_on_c, 2, 74, 90
4, 351740, Note_off_c, 2, 74, 0
4, 351744, Note_on_c, 2, 86, 90
4, 351744, Note_on_c, 2, 81, 90
4, 351744, Note_on_c, 2, 78, 90
4, 351932, Note_off_c, 2, 86, 0
4, 351932, Note_off_c, 2, 81, 0
4, 351932, Note_off_c, 2, 78, 0
4, 354048, Note_on_c, 2, 72, 66
4, 354048, Note_on_c, 2, 69, 66
4, 354048, Note_on_c, 2, 66, 66
4, 354620, Note_off_c, 2, 72, 0
4, 354620, Note_off_c, 2, 69, 0
4, 354620, Note_off_c, 2, 66, 0
4, 354624, Note_on_c, 2, 72, 66
4, 354624, Note_on_c, 2, 69, 66
4, 354624, Note_on_c, 2, 66, 66
4, 354812, Note_off_c, 2, 72, 0
4, 354812, Note_off_c, 2, 69, 0
4, 354812, Note_off_c, 2, 66, 0
4, 354816, Note_on_c, 2, 72, 66
4, 354816, Note_on_c, 2, 69, 66
4, 354816, Note_on_c, 2, 66, 66
4, 355004, Note_off_c, 2, 72, 0
4, 355004, Note_off_c, 2, 69, 0
4, 355004, Note_off_c, 2, 66, 0
4, 355008, Note_on_c, 2, 71, 66
4, 355008, Note_on_c, 2, 67, 66
4, 355196, Note_off_c, 2, 71, 0
4, 355196, Note_off_c, 2, 67, 0
4, 355200, Note_on_c, 2, 71, 66
4, 355200, Note_on_c, 2, 67, 66
4, 355388, Note_off_c, 2, 71, 0
4, 355388, Note_off_c, 2, 67, 0
4, 357120, Note_on_c, 2, 78, 66
4, 357120, Note_on_c, 2, 72, 66
4, 357120, Note_on_c, 2, 69, 66
4, 357692, Note_off_c, 2, 78, 0
4, 357692, Note_off_c, 2, 72, 0
4, 357692, Note_off_c, 2, 69, 0
4, 357696, Note_on_c, 2, 78, 66
4, 357696, Note_on_c, 2, 72, 66
4, 357696, Note_on_c, 2, 69, 66
4, 357884, Note_off_c, 2, 78, 0
4, 357884, Note_off_c, 2, 72, 0
4, 357888, Note_on_c, 2, 78, 66
4, 357888, Note_on_c, 2, 72, 66
4, 357888, Note_on_c, 2, 69, 66
4, 357892, Note_off_c, 2, 69, 0
4, 358076, Note_off_c, 2, 78, 0
4, 358076, Note_off_c, 2, 72, 0
4, 358076, Note_off_c, 2, 69, 0
4, 358080, Note_on_c, 2, 79, 66
4, 358080, Note_on_c, 2, 71, 66
4, 358080, Note_on_c, 2, 67, 66
4, 358268, Note_off_c, 2, 79, 0
4, 358268, Note_off_c, 2, 71, 0
4, 358268, Note_off_c, 2, 67, 0
4, 358272, Note_on_c, 2, 79, 66
4, 358272, Note_on_c, 2, 71, 66
4, 358272, Note_on_c, 2, 67, 66
4, 358460, Note_off_c, 2, 79, 0
4, 358460, Note_off_c, 2, 71, 0
4, 358460, Note_off_c, 2, 67, 0
4, 360192, Note_on_c, 2, 84, 66
4, 360192, Note_on_c, 2, 81, 66
4, 360192, Note_on_c, 2, 78, 66
4, 360764, Note_off_c, 2, 84, 0
4, 360764, Note_off_c, 2, 81, 0
4, 360764, Note_off_c, 2, 78, 0
4, 360768, Note_on_c, 2, 84, 66
4, 360768, Note_on_c, 2, 81, 66
4, 360768, Note_on_c, 2, 78, 66
4, 360956, Note_off_c, 2, 84, 0
4, 360956, Note_off_c, 2, 81, 0
4, 360956, Note_off_c, 2, 78, 0
4, 360960, Note_on_c, 2, 83, 66
4, 360960, Note_on_c, 2, 79, 66
4, 361148, Note_off_c, 2, 83, 0
4, 361148, Note_off_c, 2, 79, 0
4, 361728, Note_on_c, 2, 60, 66
4, 362300, Note_off_c, 2, 60, 0
4, 362304, Note_on_c, 2, 60, 66
4, 362492, Note_off_c, 2, 60, 0
4, 362496, Note_on_c, 2, 65, 66
4, 362496, Note_on_c, 2, 62, 66
4, 362496, Note_on_c, 2, 60, 66
4, 362684, Note_off_c, 2, 60, 0
4, 362688, Note_on_c, 2, 59, 66
4, 362876, Note_off_c, 2, 59, 0
4, 362880, Note_on_c, 2, 59, 66
4, 363068, Note_off_c, 2, 65, 0
4, 363068, Note_off_c, 2, 62, 0
4, 363072, Note_on_c, 2, 65, 66
4, 363260, Note_off_c, 2, 59, 0
4, 363260, Note_off_c, 2, 65, 0
4, 363264, Note_on_c, 2, 65, 66
4, 363264, Note_on_c, 2, 62, 66
4, 363264, Note_on_c, 2, 59, 66
4, 363264, Note_on_c, 2, 67, 66
4, 363452, Note_off_c, 2, 65, 0
4, 363452, Note_off_c, 2, 62, 0
4, 363452, Note_off_c, 2, 59, 0
4, 363456, Note_on_c, 2, 64, 66
4, 363456, Note_on_c, 2, 60, 66
4, 363644, Note_off_c, 2, 64, 0
4, 363644, Note_off_c, 2, 60, 0
4, 363648, Note_on_c, 2, 64, 66
4, 363648, Note_on_c, 2, 60, 66
4, 363836, Note_off_c, 2, 67, 0
4, 363840, Note_on_c, 2, 67, 66
4, 364028, Note_off_c, 2, 64, 0
4, 364028, Note_off_c, 2, 60, 0
4, 364028, Note_off_c, 2, 67, 0
4, 364032, Note_on_c, 2, 67, 68
4, 364032, Note_on_c, 2, 63, 68
4, 364032, Note_on_c, 2, 72, 68
4, 364032, Note_on_c, 2, 69, 68
4, 364220, Note_off_c, 2, 67, 0
4, 364220, Note_off_c, 2, 63, 0
4, 364224, Note_on_c, 2, 66, 71
4, 364224, Note_on_c, 2, 62, 71
4, 364412, Note_off_c, 2, 66, 0
4, 364412, Note_off_c, 2, 62, 0
4, 364416, Note_on_c, 2, 66, 73
4, 364416, Note_on_c, 2, 62, 73
4, 364604, Note_off_c, 2, 72, 0
4, 364604, Note_off_c, 2, 69, 0
4, 364608, Note_on_c, 2, 72, 77
4, 364608, Note_on_c, 2, 69, 77
4, 364796, Note_off_c, 2, 66, 0
4, 364796, Note_off_c, 2, 62, 0
4, 364796, Note_off_c, 2, 72, 0
4, 364796, Note_off_c, 2, 69, 0
4, 364800, Note_on_c, 2, 72, 80
4, 364800, Note_on_c, 2, 69, 80
4, 364800, Note_on_c, 2, 77, 80
4, 364800, Note_on_c, 2, 74, 80
4, 364988, Note_off_c, 2, 72, 0
4, 364988, Note_off_c, 2, 69, 0
4, 364992, Note_on_c, 2, 71, 81
4, 364992, Note_on_c, 2, 67, 81
4, 365180, Note_off_c, 2, 71, 0
4, 365180, Note_off_c, 2, 67, 0
4, 365184, Note_on_c, 2, 71, 85
4, 365184, Note_on_c, 2, 67, 85
4, 365372, Note_off_c, 2, 77, 0
4, 365372, Note_off_c, 2, 74, 0
4, 365376, Note_on_c, 2, 77, 87
4, 365376, Note_on_c, 2, 74, 87
4, 365564, Note_off_c, 2, 71, 0
4, 365564, Note_off_c, 2, 67, 0
4, 365564, Note_off_c, 2, 77, 0
4, 365564, Note_off_c, 2, 74, 0
4, 365568, Note_on_c, 2, 77, 90
4, 365568, Note_on_c, 2, 74, 90
4, 365568, Note_on_c, 2, 71, 90
4, 365568, Note_on_c, 2, 79, 90
4, 365756, Note_off_c, 2, 77, 0
4, 365756, Note_off_c, 2, 74, 0
4, 365756, Note_off_c, 2, 71, 0
4, 365760, Note_on_c, 2, 76, 90
4, 365760, Note_on_c, 2, 72, 90
4, 365948, Note_off_c, 2, 76, 0
4, 365948, Note_off_c, 2, 72, 0
4, 365952, Note_on_c, 2, 72, 90
4, 365952, Note_on_c, 2, 76, 90
4, 366140, Note_off_c, 2, 79, 0
4, 366144, Note_on_c, 2, 79, 90
4, 366332, Note_off_c, 2, 72, 0
4, 366332, Note_off_c, 2, 76, 0
4, 366332, Note_off_c, 2, 79, 0
4, 366336, Note_on_c, 2, 79, 90
4, 366336, Note_on_c, 2, 75, 90
4, 366336, Note_on_c, 2, 84, 90
4, 366336, Note_on_c, 2, 81, 90
4, 366524, Note_off_c, 2, 79, 0
4, 366524, Note_off_c, 2, 75, 0
4, 366528, Note_on_c, 2, 78, 90
4, 366528, Note_on_c, 2, 74, 90
4, 366716, Note_off_c, 2, 78, 0
4, 366716, Note_off_c, 2, 74, 0
4, 366720, Note_on_c, 2, 78, 90
4, 366720, Note_on_c, 2, 74, 90
4, 366908, Note_off_c, 2, 84, 0
4, 366908, Note_off_c, 2, 81, 0
4, 366912, Note_on_c, 2, 81, 90
4, 366912, Note_on_c, 2, 84, 90
4, 367100, Note_off_c, 2, 78, 0
4, 367100, Note_off_c, 2, 74, 0
4, 367100, Note_off_c, 2, 81, 0
4, 367100, Note_off_c, 2, 84, 0
4, 367104, Note_on_c, 2, 83, 90
4, 367104, Note_on_c, 2, 79, 90
4, 367104, Note_on_c, 2, 74, 90
4, 367292, Note_off_c, 2, 83, 0
4, 367292, Note_off_c, 2, 79, 0
4, 367292, Note_off_c, 2, 74, 0
4, 367296, Note_on_c, 2, 83, 90
4, 367296, Note_on_c, 2, 79, 90
4, 367296, Note_on_c, 2, 74, 90
4, 367484, Note_off_c, 2, 83, 0
4, 367484, Note_off_c, 2, 79, 0
4, 367484, Note_off_c, 2, 74, 0
4, 367680, Note_on_c, 2, 81, 90
4, 367680, Note_on_c, 2, 74, 90
4, 367680, Note_on_c, 2, 78, 90
4, 367680, Note_on_c, 2, 86, 90
4, 367868, Note_off_c, 2, 81, 0
4, 367868, Note_off_c, 2, 74, 0
4, 367868, Note_off_c, 2, 86, 0
4, 367876, Note_off_c, 2, 78, 0
4, 368064, Note_on_c, 2, 79, 90
4, 368064, Note_on_c, 2, 76, 90
4, 368064, Note_on_c, 2, 71, 90
4, 368252, Note_off_c, 2, 79, 0
4, 368252, Note_off_c, 2, 76, 0
4, 368252, Note_off_c, 2, 71, 0
4, 368448, Note_on_c, 2, 83, 90
4, 368448, Note_on_c, 2, 78, 90
4, 368448, Note_on_c, 2, 74, 90
4, 368448, Note_on_c, 2, 71, 90
4, 368636, Note_off_c, 2, 83, 0
4, 368636, Note_off_c, 2, 78, 0
4, 368636, Note_off_c, 2, 74, 0
4, 368636, Note_off_c, 2, 71, 0
4, 368832, Note_on_c, 2, 76, 90
4, 368832, Note_on_c, 2, 72, 90
4, 368832, Note_on_c, 2, 67, 90
4, 369020, Note_off_c, 2, 76, 0
4, 369020, Note_off_c, 2, 72, 0
4, 369020, Note_off_c, 2, 67, 0
4, 369216, Note_on_c, 2, 79, 90
4, 369216, Note_on_c, 2, 74, 90
4, 369216, Note_on_c, 2, 67, 90
4, 369404, Note_off_c, 2, 79, 0
4, 369404, Note_off_c, 2, 74, 0
4, 369404, Note_off_c, 2, 67, 0
4, 369408, Note_on_c, 2, 73, 66
4, 369408, Note_on_c, 2, 69, 66
4, 369408, Note_on_c, 2, 67, 66
4, 369408, Note_on_c, 2, 64, 66
4, 370172, Note_off_c, 2, 73, 0
4, 370172, Note_off_c, 2, 69, 0
4, 370172, Note_off_c, 2, 67, 0
4, 370172, Note_off_c, 2, 64, 0
4, 370176, Note_on_c, 2, 72, 66
4, 370176, Note_on_c, 2, 69, 66
4, 370176, Note_on_c, 2, 66, 66
4, 370364, Note_off_c, 2, 72, 0
4, 370364, Note_off_c, 2, 69, 0
4, 370364, Note_off_c, 2, 66, 0
4, 372480, Note_on_c, 2, 62, 55
4, 372480, Note_on_c, 2, 59, 55
4, 372572, Note_off_c, 2, 62, 0
4, 372572, Note_off_c, 2, 59, 0
4, 372576, Note_on_c, 2, 55, 55
4, 372668, Note_off_c, 2, 55, 0
4, 372672, Note_on_c, 2, 62, 55
4, 372672, Note_on_c, 2, 59, 55
4, 372764, Note_off_c, 2, 62, 0
4, 372764, Note_off_c, 2, 59, 0
4, 372768, Note_on_c, 2, 55, 55
4, 372860, Note_off_c, 2, 55, 0
4, 372864, Note_on_c, 2, 62, 55
4, 372864, Note_on_c, 2, 59, 55
4, 372956, Note_off_c, 2, 62, 0
4, 372956, Note_off_c, 2, 59, 0
4, 372960, Note_on_c, 2, 55, 55
4, 373052, Note_off_c, 2, 55, 0
4, 373056, Note_on_c, 2, 62, 55
4, 373056, Note_on_c, 2, 59, 55
4, 373148, Note_off_c, 2, 62, 0
4, 373148, Note_off_c, 2, 59, 0
4, 373152, Note_on_c, 2, 55, 55
4, 373244, Note_off_c, 2, 55, 0
4, 373248, Note_on_c, 2, 62, 55
4, 373248, Note_on_c, 2, 59, 55
4, 373340, Note_off_c, 2, 62, 0
4, 373340, Note_off_c, 2, 59, 0
4, 373344, Note_on_c, 2, 55, 55
4, 373436, Note_off_c, 2, 55, 0
4, 373440, Note_on_c, 2, 62, 55
4, 373440, Note_on_c, 2, 59, 55
4, 373532, Note_off_c, 2, 62, 0
4, 373532, Note_off_c, 2, 59, 0
4, 373536, Note_on_c, 2, 55, 55
4, 373628, Note_off_c, 2, 55, 0
4, 373632, Note_on_c, 2, 62, 55
4, 373632, Note_on_c, 2, 59, 55
4, 373724, Note_off_c, 2, 62, 0
4, 373724, Note_off_c, 2, 59, 0
4, 373728, Note_on_c, 2, 55, 55
4, 373820, Note_off_c, 2, 55, 0
4, 373824, Note_on_c, 2, 62, 55
4, 373824, Note_on_c, 2, 59, 55
4, 373916, Note_off_c, 2, 62, 0
4, 373916, Note_off_c, 2, 59, 0
4, 373920, Note_on_c, 2, 55, 55
4, 374012, Note_off_c, 2, 55, 0
4, 374016, Note_on_c, 2, 62, 55
4, 374016, Note_on_c, 2, 60, 55
4, 374108, Note_off_c, 2, 62, 0
4, 374108, Note_off_c, 2, 60, 0
4, 374112, Note_on_c, 2, 57, 55
4, 374204, Note_off_c, 2, 57, 0
4, 374208, Note_on_c, 2, 62, 55
4, 374208, Note_on_c, 2, 60, 55
4, 374300, Note_off_c, 2, 62, 0
4, 374300, Note_off_c, 2, 60, 0
4, 374304, Note_on_c, 2, 57, 55
4, 374396, Note_off_c, 2, 57, 0
4, 374400, Note_on_c, 2, 62, 55
4, 374400, Note_on_c, 2, 59, 55
4, 374492, Note_off_c, 2, 62, 0
4, 374492, Note_off_c, 2, 59, 0
4, 374496, Note_on_c, 2, 57, 55
4, 374588, Note_off_c, 2, 57, 0
4, 374592, Note_on_c, 2, 62, 55
4, 374592, Note_on_c, 2, 59, 55
4, 374684, Note_off_c, 2, 62, 0
4, 374684, Note_off_c, 2, 59, 0
4, 374688, Note_on_c, 2, 57, 55
4, 374780, Note_off_c, 2, 57, 0
4, 374784, Note_on_c, 2, 62, 55
4, 374784, Note_on_c, 2, 57, 55
4, 374876, Note_off_c, 2, 62, 0
4, 374876, Note_off_c, 2, 57, 0
4, 374880, Note_on_c, 2, 54, 55
4, 374972, Note_off_c, 2, 54, 0
4, 374976, Note_on_c, 2, 62, 55
4, 374976, Note_on_c, 2, 57, 55
4, 375068, Note_off_c, 2, 62, 0
4, 375068, Note_off_c, 2, 57, 0
4, 375072, Note_on_c, 2, 54, 55
4, 375164, Note_off_c, 2, 54, 0
4, 375168, Note_on_c, 2, 62, 55
4, 375168, Note_on_c, 2, 57, 55
4, 375260, Note_off_c, 2, 62, 0
4, 375260, Note_off_c, 2, 57, 0
4, 375264, Note_on_c, 2, 54, 55
4, 375356, Note_off_c, 2, 54, 0
4, 375360, Note_on_c, 2, 62, 55
4, 375360, Note_on_c, 2, 57, 55
4, 375452, Note_off_c, 2, 62, 0
4, 375452, Note_off_c, 2, 57, 0
4, 375456, Note_on_c, 2, 54, 55
4, 375548, Note_off_c, 2, 54, 0
4, 375552, Note_on_c, 2, 62, 55
4, 375552, Note_on_c, 2, 59, 55
4, 375644, Note_off_c, 2, 62, 0
4, 375644, Note_off_c, 2, 59, 0
4, 375648, Note_on_c, 2, 55, 55
4, 375740, Note_off_c, 2, 55, 0
4, 375744, Note_on_c, 2, 62, 55
4, 375744, Note_on_c, 2, 59, 55
4, 375836, Note_off_c, 2, 62, 0
4, 375836, Note_off_c, 2, 59, 0
4, 375840, Note_on_c, 2, 55, 55
4, 375932, Note_off_c, 2, 55, 0
4, 375936, Note_on_c, 2, 62, 55
4, 375936, Note_on_c, 2, 59, 55
4, 376028, Note_off_c, 2, 62, 0
4, 376028, Note_off_c, 2, 59, 0
4, 376032, Note_on_c, 2, 55, 55
4, 376124, Note_off_c, 2, 55, 0
4, 376128, Note_on_c, 2, 62, 55
4, 376128, Note_on_c, 2, 59, 55
4, 376220, Note_off_c, 2, 62, 0
4, 376220, Note_off_c, 2, 59, 0
4, 376224, Note_on_c, 2, 55, 55
4, 376316, Note_off_c, 2, 55, 0
4, 376320, Note_on_c, 2, 71, 55
4, 376320, Note_on_c, 2, 67, 55
4, 376412, Note_off_c, 2, 71, 0
4, 376412, Note_off_c, 2, 67, 0
4, 376416, Note_on_c, 2, 62, 55
4, 376508, Note_off_c, 2, 62, 0
4, 376512, Note_on_c, 2, 71, 55
4, 376512, Note_on_c, 2, 67, 55
4, 376604, Note_off_c, 2, 71, 0
4, 376604, Note_off_c, 2, 67, 0
4, 376608, Note_on_c, 2, 62, 55
4, 376700, Note_off_c, 2, 62, 0
4, 376704, Note_on_c, 2, 68, 55
4, 376704, Note_on_c, 2, 64, 55
4, 376796, Note_off_c, 2, 68, 0
4, 376796, Note_off_c, 2, 64, 0
4, 376800, Note_on_c, 2, 59, 55
4, 376892, Note_off_c, 2, 59, 0
4, 376896, Note_on_c, 2, 68, 55
4, 376896, Note_on_c, 2, 64, 55
4, 376988, Note_off_c, 2, 68, 0
4, 376988, Note_off_c, 2, 64, 0
4, 376992, Note_on_c, 2, 59, 55
4, 377084, Note_off_c, 2, 59, 0
4, 377088, Note_on_c, 2, 69, 55
4, 377088, Note_on_c, 2, 64, 55
4, 377180, Note_off_c, 2, 69, 0
4, 377180, Note_off_c, 2, 64, 0
4, 377184, Note_on_c, 2, 57, 55
4, 377276, Note_off_c, 2, 57, 0
4, 377280, Note_on_c, 2, 69, 55
4, 377280, Note_on_c, 2, 62, 55
4, 377372, Note_off_c, 2, 69, 0
4, 377372, Note_off_c, 2, 62, 0
4, 377376, Note_on_c, 2, 57, 55
4, 377468, Note_off_c, 2, 57, 0
4, 377472, Note_on_c, 2, 67, 55
4, 377472, Note_on_c, 2, 62, 55
4, 377564, Note_off_c, 2, 67, 0
4, 377564, Note_off_c, 2, 62, 0
4, 377568, Note_on_c, 2, 59, 55
4, 377660, Note_off_c, 2, 59, 0
4, 377664, Note_on_c, 2, 67, 55
4, 377664, Note_on_c, 2, 64, 55
4, 377756, Note_off_c, 2, 67, 0
4, 377756, Note_off_c, 2, 64, 0
4, 377760, Note_on_c, 2, 59, 55
4, 377852, Note_off_c, 2, 59, 0
4, 377856, Note_on_c, 2, 67, 55
4, 377856, Note_on_c, 2, 64, 55
4, 377948, Note_off_c, 2, 67, 0
4, 377948, Note_off_c, 2, 64, 0
4, 377952, Note_on_c, 2, 60, 55
4, 378044, Note_off_c, 2, 60, 0
4, 378048, Note_on_c, 2, 64, 55
4, 378048, Note_on_c, 2, 67, 55
4, 378140, Note_off_c, 2, 64, 0
4, 378140, Note_off_c, 2, 67, 0
4, 378144, Note_on_c, 2, 60, 55
4, 378236, Note_off_c, 2, 60, 0
4, 378240, Note_on_c, 2, 64, 55
4, 378240, Note_on_c, 2, 67, 55
4, 378332, Note_off_c, 2, 64, 0
4, 378332, Note_off_c, 2, 67, 0
4, 378336, Note_on_c, 2, 57, 55
4, 378428, Note_off_c, 2, 57, 0
4, 378432, Note_on_c, 2, 64, 55
4, 378432, Note_on_c, 2, 67, 55
4, 378524, Note_off_c, 2, 64, 0
4, 378524, Note_off_c, 2, 67, 0
4, 378528, Note_on_c, 2, 57, 55
4, 378620, Note_off_c, 2, 57, 0
4, 378624, Note_on_c, 2, 74, 55
4, 378624, Note_on_c, 2, 66, 55
4, 378624, Note_on_c, 2, 62, 55
4, 379004, Note_off_c, 2, 74, 0
4, 379004, Note_off_c, 2, 66, 0
4, 379004, Note_off_c, 2, 62, 0
4, 379008, Note_on_c, 2, 74, 55
4, 379100, Note_off_c, 2, 74, 0
4, 379104, Note_on_c, 2, 72, 55
4, 379196, Note_off_c, 2, 72, 0
4, 379200, Note_on_c, 2, 71, 55
4, 379292, Note_off_c, 2, 71, 0
4, 379296, Note_on_c, 2, 72, 55
4, 379388, Note_off_c, 2, 72, 0
4, 379392, Note_on_c, 2, 74, 55
4, 379484, Note_off_c, 2, 74, 0
4, 379584, Note_on_c, 2, 74, 55
4, 379676, Note_off_c, 2, 74, 0
4, 379776, Note_on_c, 2, 74, 55
4, 379964, Note_off_c, 2, 74, 0
4, 379968, Note_on_c, 2, 79, 55
4, 380156, Note_off_c, 2, 79, 0
4, 380160, Note_on_c, 2, 79, 73
4, 380180, Note_off_c, 2, 79, 0
4, 380184, Note_on_c, 2, 78, 55
4, 380348, Note_off_c, 2, 78, 0
4, 380352, Note_on_c, 2, 78, 55
4, 380540, Note_off_c, 2, 78, 0
4, 380544, Note_on_c, 2, 81, 73
4, 380564, Note_off_c, 2, 81, 0
4, 380568, Note_on_c, 2, 79, 55
4, 380732, Note_off_c, 2, 79, 0
4, 380736, Note_on_c, 2, 79, 55
4, 380924, Note_off_c, 2, 79, 0
4, 380928, Note_on_c, 2, 83, 73
4, 380948, Note_off_c, 2, 83, 0
4, 380952, Note_on_c, 2, 81, 55
4, 381116, Note_off_c, 2, 81, 0
4, 381120, Note_on_c, 2, 81, 55
4, 381308, Note_off_c, 2, 81, 0
4, 381312, Note_on_c, 2, 81, 55
4, 381404, Note_off_c, 2, 81, 0
4, 381408, Note_on_c, 2, 83, 55
4, 381500, Note_off_c, 2, 83, 0
4, 381504, Note_on_c, 2, 84, 55
4, 381596, Note_off_c, 2, 84, 0
4, 381600, Note_on_c, 2, 81, 55
4, 381692, Note_off_c, 2, 81, 0
4, 381696, Note_on_c, 2, 83, 55
4, 382076, Note_off_c, 2, 83, 0
4, 382080, Note_on_c, 2, 83, 55
4, 382172, Note_off_c, 2, 83, 0
4, 382176, Note_on_c, 2, 81, 55
4, 382268, Note_off_c, 2, 81, 0
4, 382272, Note_on_c, 2, 83, 55
4, 382364, Note_off_c, 2, 83, 0
4, 382368, Note_on_c, 2, 84, 55
4, 382460, Note_off_c, 2, 84, 0
4, 382464, Note_on_c, 2, 86, 55
4, 382556, Note_off_c, 2, 86, 0
4, 382656, Note_on_c, 2, 86, 55
4, 382748, Note_off_c, 2, 86, 0
4, 382848, Note_on_c, 2, 86, 55
4, 383036, Note_off_c, 2, 86, 0
4, 383040, Note_on_c, 2, 88, 55
4, 383228, Note_off_c, 2, 88, 0
4, 383232, Note_on_c, 2, 86, 73
4, 383252, Note_off_c, 2, 86, 0
4, 383256, Note_on_c, 2, 84, 55
4, 383420, Note_off_c, 2, 84, 0
4, 383424, Note_on_c, 2, 84, 55
4, 383612, Note_off_c, 2, 84, 0
4, 383616, Note_on_c, 2, 84, 73
4, 383636, Note_off_c, 2, 84, 0
4, 383640, Note_on_c, 2, 83, 55
4, 383804, Note_off_c, 2, 83, 0
4, 383808, Note_on_c, 2, 83, 55
4, 383996, Note_off_c, 2, 83, 0
4, 384000, Note_on_c, 2, 83, 73
4, 384020, Note_off_c, 2, 83, 0
4, 384024, Note_on_c, 2, 81, 55
4, 384188, Note_off_c, 2, 81, 0
4, 384192, Note_on_c, 2, 81, 55
4, 384380, Note_off_c, 2, 81, 0
4, 384384, Note_on_c, 2, 81, 55
4, 384572, Note_off_c, 2, 81, 0
4, 384576, Note_on_c, 2, 83, 55
4, 384668, Note_off_c, 2, 83, 0
4, 384672, Note_on_c, 2, 79, 55
4, 384764, Note_off_c, 2, 79, 0
4, 384768, Note_on_c, 2, 74, 66
4, 385148, Note_off_c, 2, 74, 0
4, 385152, Note_on_c, 2, 74, 66
4, 385244, Note_off_c, 2, 74, 0
4, 385248, Note_on_c, 2, 78, 66
4, 385340, Note_off_c, 2, 78, 0
4, 385344, Note_on_c, 2, 81, 66
4, 385344, Note_on_c, 2, 78, 66
4, 385436, Note_off_c, 2, 81, 0
4, 385436, Note_off_c, 2, 78, 0
4, 385440, Note_on_c, 2, 78, 66
4, 385440, Note_on_c, 2, 74, 66
4, 385532, Note_off_c, 2, 78, 0
4, 385532, Note_off_c, 2, 74, 0
4, 385536, Note_on_c, 2, 76, 66
4, 385536, Note_on_c, 2, 73, 66
4, 385916, Note_off_c, 2, 76, 0
4, 385916, Note_off_c, 2, 73, 0
4, 385920, Note_on_c, 2, 76, 66
4, 385920, Note_on_c, 2, 73, 66
4, 386012, Note_off_c, 2, 76, 0
4, 386012, Note_off_c, 2, 73, 0
4, 386016, Note_on_c, 2, 79, 66
4, 386016, Note_on_c, 2, 76, 66
4, 386108, Note_off_c, 2, 79, 0
4, 386108, Note_off_c, 2, 76, 0
4, 386112, Note_on_c, 2, 83, 66
4, 386112, Note_on_c, 2, 79, 66
4, 386204, Note_off_c, 2, 83, 0
4, 386204, Note_off_c, 2, 79, 0
4, 386208, Note_on_c, 2, 79, 66
4, 386208, Note_on_c, 2, 76, 66
4, 386300, Note_off_c, 2, 79, 0
4, 386300, Note_off_c, 2, 76, 0
4, 386304, Note_on_c, 2, 78, 66
4, 386304, Note_on_c, 2, 72, 66
4, 386684, Note_off_c, 2, 78, 0
4, 386684, Note_off_c, 2, 72, 0
4, 386688, Note_on_c, 2, 78, 66
4, 386688, Note_on_c, 2, 72, 66
4, 386780, Note_off_c, 2, 78, 0
4, 386780, Note_off_c, 2, 72, 0
4, 386784, Note_on_c, 2, 81, 66
4, 386784, Note_on_c, 2, 78, 66
4, 386876, Note_off_c, 2, 81, 0
4, 386876, Note_off_c, 2, 78, 0
4, 386880, Note_on_c, 2, 84, 66
4, 386880, Note_on_c, 2, 81, 66
4, 386972, Note_off_c, 2, 84, 0
4, 386972, Note_off_c, 2, 81, 0
4, 386976, Note_on_c, 2, 81, 66
4, 386976, Note_on_c, 2, 78, 66
4, 387068, Note_off_c, 2, 81, 0
4, 387068, Note_off_c, 2, 78, 0
4, 387072, Note_on_c, 2, 79, 66
4, 387072, Note_on_c, 2, 74, 66
4, 387072, Note_on_c, 2, 71, 66
4, 387452, Note_off_c, 2, 79, 0
4, 387452, Note_off_c, 2, 74, 0
4, 387452, Note_off_c, 2, 71, 0
4, 387456, Note_on_c, 2, 79, 66
4, 387548, Note_off_c, 2, 79, 0
4, 387552, Note_on_c, 2, 83, 66
4, 387552, Note_on_c, 2, 79, 66
4, 387644, Note_off_c, 2, 83, 0
4, 387644, Note_off_c, 2, 79, 0
4, 387648, Note_on_c, 2, 86, 66
4, 387648, Note_on_c, 2, 83, 66
4, 387740, Note_off_c, 2, 86, 0
4, 387740, Note_off_c, 2, 83, 0
4, 387744, Note_on_c, 2, 83, 66
4, 387744, Note_on_c, 2, 79, 66
4, 387836, Note_off_c, 2, 83, 0
4, 387836, Note_off_c, 2, 79, 0
4, 387840, Note_on_c, 2, 84, 66
4, 387840, Note_on_c, 2, 81, 66
4, 388028, Note_off_c, 2, 84, 0
4, 388028, Note_off_c, 2, 81, 0
4, 389376, Note_on_c, 2, 81, 90
4, 389376, Note_on_c, 2, 84, 90
4, 389468, Note_off_c, 2, 81, 0
4, 389468, Note_off_c, 2, 84, 0
4, 389472, Note_on_c, 2, 79, 90
4, 389472, Note_on_c, 2, 83, 90
4, 389564, Note_off_c, 2, 79, 0
4, 389564, Note_off_c, 2, 83, 0
4, 389568, Note_on_c, 2, 81, 90
4, 389568, Note_on_c, 2, 78, 90
4, 389660, Note_off_c, 2, 81, 0
4, 389660, Note_off_c, 2, 78, 0
4, 389664, Note_on_c, 2, 79, 90
4, 389664, Note_on_c, 2, 83, 90
4, 389756, Note_off_c, 2, 79, 0
4, 389756, Note_off_c, 2, 83, 0
4, 389760, Note_on_c, 2, 84, 90
4, 389760, Note_on_c, 2, 81, 90
4, 389852, Note_off_c, 2, 84, 0
4, 389852, Note_off_c, 2, 81, 0
4, 389856, Note_on_c, 2, 83, 90
4, 389856, Note_on_c, 2, 79, 90
4, 389948, Note_off_c, 2, 83, 0
4, 389948, Note_off_c, 2, 79, 0
4, 389952, Note_on_c, 2, 81, 90
4, 389952, Note_on_c, 2, 78, 90
4, 390044, Note_off_c, 2, 81, 0
4, 390044, Note_off_c, 2, 78, 0
4, 390048, Note_on_c, 2, 83, 90
4, 390048, Note_on_c, 2, 79, 90
4, 390140, Note_off_c, 2, 83, 0
4, 390140, Note_off_c, 2, 79, 0
4, 390144, Note_on_c, 2, 84, 90
4, 390144, Note_on_c, 2, 81, 90
4, 390236, Note_off_c, 2, 84, 0
4, 390236, Note_off_c, 2, 81, 0
4, 390240, Note_on_c, 2, 83, 90
4, 390240, Note_on_c, 2, 79, 90
4, 390332, Note_off_c, 2, 83, 0
4, 390332, Note_off_c, 2, 79, 0
4, 390336, Note_on_c, 2, 81, 90
4, 390336, Note_on_c, 2, 78, 90
4, 390428, Note_off_c, 2, 81, 0
4, 390428, Note_off_c, 2, 78, 0
4, 390432, Note_on_c, 2, 79, 90
4, 390432, Note_on_c, 2, 83, 90
4, 390524, Note_off_c, 2, 79, 0
4, 390524, Note_off_c, 2, 83, 0
4, 390528, Note_on_c, 2, 84, 90
4, 390528, Note_on_c, 2, 81, 90
4, 390620, Note_off_c, 2, 84, 0
4, 390620, Note_off_c, 2, 81, 0
4, 390624, Note_on_c, 2, 83, 90
4, 390624, Note_on_c, 2, 79, 90
4, 390716, Note_off_c, 2, 83, 0
4, 390716, Note_off_c, 2, 79, 0
4, 390720, Note_on_c, 2, 81, 90
4, 390720, Note_on_c, 2, 78, 90
4, 390812, Note_off_c, 2, 81, 0
4, 390812, Note_off_c, 2, 78, 0
4, 390816, Note_on_c, 2, 83, 90
4, 390816, Note_on_c, 2, 79, 90
4, 390908, Note_off_c, 2, 83, 0
4, 390908, Note_off_c, 2, 79, 0
4, 390912, Note_on_c, 2, 84, 90
4, 390912, Note_on_c, 2, 81, 90
4, 391100, Note_off_c, 2, 84, 0
4, 391100, Note_off_c, 2, 81, 0
4, 391680, Note_on_c, 2, 63, 66
4, 392444, Note_off_c, 2, 63, 0
4, 392448, Note_on_c, 2, 60, 66
4, 393212, Note_off_c, 2, 60, 0
4, 393216, Note_on_c, 2, 66, 68
4, 393308, Note_off_c, 2, 66, 0
4, 393312, Note_on_c, 2, 67, 70
4, 393404, Note_off_c, 2, 67, 0
4, 393408, Note_on_c, 2, 69, 71
4, 393500, Note_off_c, 2, 69, 0
4, 393504, Note_on_c, 2, 71, 72
4, 393596, Note_off_c, 2, 71, 0
4, 393600, Note_on_c, 2, 72, 75
4, 393692, Note_off_c, 2, 72, 0
4, 393696, Note_on_c, 2, 74, 76
4, 393788, Note_off_c, 2, 74, 0
4, 393792, Note_on_c, 2, 76, 77
4, 393884, Note_off_c, 2, 76, 0
4, 393888, Note_on_c, 2, 78, 78
4, 393980, Note_off_c, 2, 78, 0
4, 393984, Note_on_c, 2, 79, 80
4, 394076, Note_off_c, 2, 79, 0
4, 394080, Note_on_c, 2, 81, 81
4, 394172, Note_off_c, 2, 81, 0
4, 394176, Note_on_c, 2, 83, 82
4, 394268, Note_off_c, 2, 83, 0
4, 394272, Note_on_c, 2, 84, 83
4, 394364, Note_off_c, 2, 84, 0
4, 394368, Note_on_c, 2, 86, 86
4, 394460, Note_off_c, 2, 86, 0
4, 394560, Note_on_c, 2, 86, 88
4, 394652, Note_off_c, 2, 86, 0
4, 394944, Note_on_c, 2, 72, 66
4, 395132, Note_off_c, 2, 72, 0
4, 395136, Note_on_c, 2, 74, 66
4, 395324, Note_off_c, 2, 74, 0
4, 395328, Note_on_c, 2, 75, 66
4, 395516, Note_off_c, 2, 75, 0
4, 395712, Note_on_c, 2, 69, 66
4, 395900, Note_off_c, 2, 69, 0
4, 395904, Note_on_c, 2, 70, 66
4, 396092, Note_off_c, 2, 70, 0
4, 396096, Note_on_c, 2, 72, 66
4, 396284, Note_off_c, 2, 72, 0
4, 398016, Note_on_c, 2, 84, 90
4, 398016, Note_on_c, 2, 72, 90
4, 398204, Note_off_c, 2, 84, 0
4, 398204, Note_off_c, 2, 72, 0
4, 398208, Note_on_c, 2, 86, 90
4, 398208, Note_on_c, 2, 74, 90
4, 398396, Note_off_c, 2, 86, 0
4, 398396, Note_off_c, 2, 74, 0
4, 398400, Note_on_c, 2, 87, 90
4, 398400, Note_on_c, 2, 75, 90
4, 398588, Note_off_c, 2, 87, 0
4, 398588, Note_off_c, 2, 75, 0
4, 398784, Note_on_c, 2, 81, 90
4, 398784, Note_on_c, 2, 69, 90
4, 398972, Note_off_c, 2, 81, 0
4, 398972, Note_off_c, 2, 69, 0
4, 398976, Note_on_c, 2, 82, 90
4, 398976, Note_on_c, 2, 70, 90
4, 399164, Note_off_c, 2, 82, 0
4, 399164, Note_off_c, 2, 70, 0
4, 399168, Note_on_c, 2, 84, 90
4, 399168, Note_on_c, 2, 72, 90
4, 399356, Note_off_c, 2, 84, 0
4, 399356, Note_off_c, 2, 72, 0
4, 399360, Note_on_c, 2, 78, 90
4, 399452, Note_off_c, 2, 78, 0
4, 399456, Note_on_c, 2, 79, 90
4, 399548, Note_off_c, 2, 79, 0
4, 399552, Note_on_c, 2, 81, 90
4, 399644, Note_off_c, 2, 81, 0
4, 399648, Note_on_c, 2, 83, 90
4, 399740, Note_off_c, 2, 83, 0
4, 399744, Note_on_c, 2, 84, 90
4, 399836, Note_off_c, 2, 84, 0
4, 399840, Note_on_c, 2, 86, 90
4, 399932, Note_off_c, 2, 86, 0
4, 399936, Note_on_c, 2, 88, 90
4, 400028, Note_off_c, 2, 88, 0
4, 400032, Note_on_c, 2, 90, 90
4, 400124, Note_off_c, 2, 90, 0
4, 400128, Note_on_c, 2, 91, 90
4, 400316, Note_off_c, 2, 91, 0
4, 402432, Note_on_c, 2, 65, 66
4, 402432, Note_on_c, 2, 62, 66
4, 402432, Note_on_c, 2, 59, 66
4, 402432, Note_on_c, 2, 67, 66
4, 402620, Note_off_c, 2, 65, 0
4, 402620, Note_off_c, 2, 62, 0
4, 402620, Note_off_c, 2, 59, 0
4, 402624, Note_on_c, 2, 64, 66
4, 402624, Note_on_c, 2, 60, 66
4, 402812, Note_off_c, 2, 64, 0
4, 402812, Note_off_c, 2, 60, 0
4, 402816, Note_on_c, 2, 64, 66
4, 402816, Note_on_c, 2, 60, 66
4, 403004, Note_off_c, 2, 67, 0
4, 403008, Note_on_c, 2, 67, 66
4, 403196, Note_off_c, 2, 64, 0
4, 403196, Note_off_c, 2, 60, 0
4, 403196, Note_off_c, 2, 67, 0
4, 403200, Note_on_c, 2, 67, 68
4, 403200, Note_on_c, 2, 63, 68
4, 403200, Note_on_c, 2, 72, 68
4, 403200, Note_on_c, 2, 69, 68
4, 403388, Note_off_c, 2, 67, 0
4, 403388, Note_off_c, 2, 63, 0
4, 403392, Note_on_c, 2, 66, 71
4, 403392, Note_on_c, 2, 62, 71
4, 403580, Note_off_c, 2, 66, 0
4, 403580, Note_off_c, 2, 62, 0
4, 403584, Note_on_c, 2, 66, 75
4, 403584, Note_on_c, 2, 62, 75
4, 403772, Note_off_c, 2, 72, 0
4, 403772, Note_off_c, 2, 69, 0
4, 403776, Note_on_c, 2, 69, 77
4, 403776, Note_on_c, 2, 72, 77
4, 403964, Note_off_c, 2, 66, 0
4, 403964, Note_off_c, 2, 62, 0
4, 403964, Note_off_c, 2, 69, 0
4, 403964, Note_off_c, 2, 72, 0
4, 403968, Note_on_c, 2, 72, 80
4, 403968, Note_on_c, 2, 69, 80
4, 403968, Note_on_c, 2, 77, 80
4, 403968, Note_on_c, 2, 74, 80
4, 404156, Note_off_c, 2, 72, 0
4, 404156, Note_off_c, 2, 69, 0
4, 404160, Note_on_c, 2, 71, 82
4, 404160, Note_on_c, 2, 67, 82
4, 404348, Note_off_c, 2, 71, 0
4, 404348, Note_off_c, 2, 67, 0
4, 404352, Note_on_c, 2, 71, 86
4, 404352, Note_on_c, 2, 67, 86
4, 404540, Note_off_c, 2, 77, 0
4, 404540, Note_off_c, 2, 74, 0
4, 404544, Note_on_c, 2, 77, 88
4, 404544, Note_on_c, 2, 74, 88
4, 404732, Note_off_c, 2, 71, 0
4, 404732, Note_off_c, 2, 67, 0
4, 404732, Note_off_c, 2, 77, 0
4, 404732, Note_off_c, 2, 74, 0
4, 404736, Note_on_c, 2, 77, 90
4, 404736, Note_on_c, 2, 74, 90
4, 404736, Note_on_c, 2, 71, 90
4, 404736, Note_on_c, 2, 79, 90
4, 404924, Note_off_c, 2, 77, 0
4, 404924, Note_off_c, 2, 74, 0
4, 404924, Note_off_c, 2, 71, 0
4, 404928, Note_on_c, 2, 76, 90
4, 404928, Note_on_c, 2, 72, 90
4, 405116, Note_off_c, 2, 76, 0
4, 405116, Note_off_c, 2, 72, 0
4, 405120, Note_on_c, 2, 76, 90
4, 405120, Note_on_c, 2, 72, 90
4, 405308, Note_off_c, 2, 79, 0
4, 405312, Note_on_c, 2, 79, 90
4, 405500, Note_off_c, 2, 76, 0
4, 405500, Note_off_c, 2, 72, 0
4, 405500, Note_off_c, 2, 79, 0
4, 405504, Note_on_c, 2, 79, 90
4, 405504, Note_on_c, 2, 75, 90
4, 405504, Note_on_c, 2, 84, 90
4, 405504, Note_on_c, 2, 81, 90
4, 405692, Note_off_c, 2, 79, 0
4, 405692, Note_off_c, 2, 75, 0
4, 405696, Note_on_c, 2, 78, 90
4, 405696, Note_on_c, 2, 74, 90
4, 405884, Note_off_c, 2, 78, 0
4, 405884, Note_off_c, 2, 74, 0
4, 405888, Note_on_c, 2, 78, 90
4, 405888, Note_on_c, 2, 74, 90
4, 406076, Note_off_c, 2, 84, 0
4, 406076, Note_off_c, 2, 81, 0
4, 406080, Note_on_c, 2, 81, 90
4, 406080, Note_on_c, 2, 84, 90
4, 406268, Note_off_c, 2, 78, 0
4, 406268, Note_off_c, 2, 74, 0
4, 406268, Note_off_c, 2, 81, 0
4, 406268, Note_off_c, 2, 84, 0
4, 406272, Note_on_c, 2, 83, 90
4, 406272, Note_on_c, 2, 79, 90
4, 406272, Note_on_c, 2, 74, 90
4, 406460, Note_off_c, 2, 83, 0
4, 406460, Note_off_c, 2, 79, 0
4, 406460, Note_off_c, 2, 74, 0
4, 406464, Note_on_c, 2, 83, 90
4, 406464, Note_on_c, 2, 79, 90
4, 406464, Note_on_c, 2, 74, 90
4, 406652, Note_off_c, 2, 83, 0
4, 406652, Note_off_c, 2, 79, 0
4, 406652, Note_off_c, 2, 74, 0
4, 406848, Note_on_c, 2, 86, 90
4, 406848, Note_on_c, 2, 81, 90
4, 406848, Note_on_c, 2, 78, 90
4, 406848, Note_on_c, 2, 74, 90
4, 407036, Note_off_c, 2, 86, 0
4, 407036, Note_off_c, 2, 81, 0
4, 407036, Note_off_c, 2, 78, 0
4, 407036, Note_off_c, 2, 74, 0
4, 407232, Note_on_c, 2, 79, 90
4, 407232, Note_on_c, 2, 76, 90
4, 407420, Note_off_c, 2, 79, 0
4, 407420, Note_off_c, 2, 76, 0
4, 407616, Note_on_c, 2, 83, 90
4, 407616, Note_on_c, 2, 78, 90
4, 407616, Note_on_c, 2, 74, 90
4, 407616, Note_on_c, 2, 71, 90
4, 407804, Note_off_c, 2, 83, 0
4, 407804, Note_off_c, 2, 78, 0
4, 407804, Note_off_c, 2, 74, 0
4, 407804, Note_off_c, 2, 71, 0
4, 408000, Note_on_c, 2, 79, 90
4, 408000, Note_on_c, 2, 76, 90
4, 408000, Note_on_c, 2, 71, 90
4, 408188, Note_off_c, 2, 79, 0
4, 408188, Note_off_c, 2, 76, 0
4, 408188, Note_off_c, 2, 71, 0
4, 408384, Note_on_c, 2, 83, 90
4, 408384, Note_on_c, 2, 74, 90
4, 408384, Note_on_c, 2, 71, 90
4, 408384, Note_on_c, 2, 78, 90
4, 408572, Note_off_c, 2, 83, 0
4, 408572, Note_off_c, 2, 74, 0
4, 408572, Note_off_c, 2, 71, 0
4, 408576, Note_on_c, 2, 73, 90
4, 408576, Note_on_c, 2, 69, 90
4, 408576, Note_on_c, 2, 67, 90
4, 408576, Note_on_c, 2, 64, 90
4, 408580, Note_off_c, 2, 78, 0
4, 409340, Note_off_c, 2, 73, 0
4, 409340, Note_off_c, 2, 69, 0
4, 409340, Note_off_c, 2, 67, 0
4, 409340, Note_off_c, 2, 64, 0
4, 409344, Note_on_c, 2, 72, 90
4, 409344, Note_on_c, 2, 69, 90
4, 409344, Note_on_c, 2, 66, 90
4, 409532, Note_off_c, 2, 72, 0
4, 409532, Note_off_c, 2, 69, 0
4, 409532, Note_off_c, 2, 66, 0
4, 411840, Note_on_c, 2, 83, 90
4, 411840, Note_on_c, 2, 79, 90
4, 411840, Note_on_c, 2, 74, 90
4, 411840, Note_on_c, 2, 71, 90
4, 412028, Note_off_c, 2, 83, 0
4, 412028, Note_off_c, 2, 79, 0
4, 412028, Note_off_c, 2, 74, 0
4, 412028, Note_off_c, 2, 71, 0
4, 412224, Note_on_c, 2, 86, 90
4, 412224, Note_on_c, 2, 81, 90
4, 412224, Note_on_c, 2, 78, 90
4, 412224, Note_on_c, 2, 74, 90
4, 412412, Note_off_c, 2, 86, 0
4, 412412, Note_off_c, 2, 81, 0
4, 412412, Note_off_c, 2, 78, 0
4, 412412, Note_off_c, 2, 74, 0
4, 412608, Note_on_c, 2, 79, 90
4, 412608, Note_on_c, 2, 76, 90
4, 412608, Note_on_c, 2, 71, 90
4, 412796, Note_off_c, 2, 79, 0
4, 412796, Note_off_c, 2, 76, 0
4, 412796, Note_off_c, 2, 71, 0
4, 412992, Note_on_c, 2, 83, 90
4, 412992, Note_on_c, 2, 78, 90
4, 412992, Note_on_c, 2, 74, 90
4, 412992, Note_on_c, 2, 71, 90
4, 413180, Note_off_c, 2, 83, 0
4, 413180, Note_off_c, 2, 78, 0
4, 413180, Note_off_c, 2, 74, 0
4, 413180, Note_off_c, 2, 71, 0
4, 413376, Note_on_c, 2, 76, 90
4, 413376, Note_on_c, 2, 72, 90
4, 413376, Note_on_c, 2, 67, 90
4, 413564, Note_off_c, 2, 76, 0
4, 413564, Note_off_c, 2, 72, 0
4, 413564, Note_off_c, 2, 67, 0
4, 413760, Note_on_c, 2, 79, 90
4, 413760, Note_on_c, 2, 74, 90
4, 413760, Note_on_c, 2, 71, 90
4, 413760, Note_on_c, 2, 67, 90
4, 413948, Note_off_c, 2, 79, 0
4, 413948, Note_off_c, 2, 74, 0
4, 413948, Note_off_c, 2, 71, 0
4, 413948, Note_off_c, 2, 67, 0
4, 413952, Note_on_c, 2, 73, 66
4, 413952, Note_on_c, 2, 69, 66
4, 413952, Note_on_c, 2, 67, 66
4, 413952, Note_on_c, 2, 64, 66
4, 414716, Note_off_c, 2, 73, 0
4, 414716, Note_off_c, 2, 69, 0
4, 414716, Note_off_c, 2, 67, 0
4, 414716, Note_off_c, 2, 64, 0
4, 414720, Note_on_c, 2, 72, 66
4, 414720, Note_on_c, 2, 69, 66
4, 414720, Note_on_c, 2, 66, 66
4, 414908, Note_off_c, 2, 72, 0
4, 414908, Note_off_c, 2, 69, 0
4, 414908, Note_off_c, 2, 66, 0
4, 418368, Note_on_c, 2, 66, 66
4, 418460, Note_off_c, 2, 66, 0
4, 418464, Note_on_c, 2, 62, 66
4, 418556, Note_off_c, 2, 62, 0
4, 418560, Note_on_c, 2, 66, 66
4, 418748, Note_off_c, 2, 66, 0
4, 418752, Note_on_c, 2, 66, 66
4, 418940, Note_off_c, 2, 66, 0
4, 418944, Note_on_c, 2, 66, 66
4, 419132, Note_off_c, 2, 66, 0
4, 419136, Note_on_c, 2, 66, 66
4, 419324, Note_off_c, 2, 66, 0
4, 419328, Note_on_c, 2, 62, 66
4, 419328, Note_on_c, 2, 59, 66
4, 419516, Note_off_c, 2, 62, 0
4, 419516, Note_off_c, 2, 59, 0
4, 419904, Note_on_c, 2, 71, 66
4, 419996, Note_off_c, 2, 71, 0
4, 420000, Note_on_c, 2, 67, 66
4, 420092, Note_off_c, 2, 67, 0
4, 420096, Note_on_c, 2, 72, 68
4, 420188, Note_off_c, 2, 72, 0
4, 420288, Note_on_c, 2, 72, 70
4, 420380, Note_off_c, 2, 72, 0
4, 420480, Note_on_c, 2, 72, 71
4, 420572, Note_off_c, 2, 72, 0
4, 420672, Note_on_c, 2, 72, 73
4, 420672, Note_on_c, 2, 72, 73
4, 420764, Note_off_c, 2, 72, 0
4, 420764, Note_off_c, 2, 72, 0
4, 420864, Note_on_c, 2, 64, 75
4, 420864, Note_on_c, 2, 64, 75
4, 420864, Note_on_c, 2, 60, 75
4, 420864, Note_on_c, 2, 60, 75
4, 421052, Note_off_c, 2, 64, 0
4, 421052, Note_off_c, 2, 64, 0
4, 421052, Note_off_c, 2, 60, 0
4, 421052, Note_off_c, 2, 60, 0
4, 421440, Note_on_c, 2, 72, 80
4, 421532, Note_off_c, 2, 72, 0
4, 421536, Note_on_c, 2, 69, 80
4, 421628, Note_off_c, 2, 69, 0
4, 421632, Note_on_c, 2, 75, 81
4, 421724, Note_off_c, 2, 75, 0
4, 421824, Note_on_c, 2, 75, 82
4, 421916, Note_off_c, 2, 75, 0
4, 422016, Note_on_c, 2, 75, 85
4, 422108, Note_off_c, 2, 75, 0
4, 422208, Note_on_c, 2, 75, 86
4, 422300, Note_off_c, 2, 75, 0
4, 422400, Note_on_c, 2, 74, 88
4, 422588, Note_off_c, 2, 74, 0
4, 422976, Note_on_c, 2, 78, 66
4, 423068, Note_off_c, 2, 78, 0
4, 423072, Note_on_c, 2, 74, 66
4, 423164, Note_off_c, 2, 74, 0
4, 423168, Note_on_c, 2, 79, 66
4, 423260, Note_off_c, 2, 79, 0
4, 423360, Note_on_c, 2, 83, 66
4, 423548, Note_off_c, 2, 83, 0
4, 423552, Note_on_c, 2, 86, 66
4, 423644, Note_off_c, 2, 86, 0
4, 423744, Note_on_c, 2, 78, 66
4, 423836, Note_off_c, 2, 78, 0
4, 423840, Note_on_c, 2, 74, 66
4, 423932, Note_off_c, 2, 74, 0
4, 423936, Note_on_c, 2, 79, 66
4, 424028, Note_off_c, 2, 79, 0
4, 424128, Note_on_c, 2, 83, 66
4, 424316, Note_off_c, 2, 83, 0
4, 424320, Note_on_c, 2, 86, 66
4, 424412, Note_off_c, 2, 86, 0
4, 424512, Note_on_c, 2, 78, 90
4, 424604, Note_off_c, 2, 78, 0
4, 424608, Note_on_c, 2, 74, 90
4, 424700, Note_off_c, 2, 74, 0
4, 424704, Note_on_c, 2, 79, 91
4, 424796, Note_off_c, 2, 79, 0
4, 424896, Note_on_c, 2, 83, 92
4, 425084, Note_off_c, 2, 83, 0
4, 425088, Note_on_c, 2, 86, 93
4, 425180, Note_off_c, 2, 86, 0
4, 425280, Note_on_c, 2, 78, 95
4, 425372, Note_off_c, 2, 78, 0
4, 425376, Note_on_c, 2, 74, 96
4, 425468, Note_off_c, 2, 74, 0
4, 425472, Note_on_c, 2, 79, 97
4, 425564, Note_off_c, 2, 79, 0
4, 425664, Note_on_c, 2, 83, 98
4, 425852, Note_off_c, 2, 83, 0
4, 425856, Note_on_c, 2, 86, 100
4, 425948, Note_off_c, 2, 86, 0
4, 426048, Note_on_c, 2, 78, 101
4, 426140, Note_off_c, 2, 78, 0
4, 426144, Note_on_c, 2, 74, 102
4, 426236, Note_off_c, 2, 74, 0
4, 426240, Note_on_c, 2, 86, 66
4, 426428, Note_off_c, 2, 86, 0
4, 426432, Note_on_c, 2, 74, 66
4, 426432, Note_on_c, 2, 71, 66
4, 426432, Note_on_c, 2, 67, 66
4, 426620, Note_off_c, 2, 74, 0
4, 426620, Note_off_c, 2, 71, 0
4, 426620, Note_off_c, 2, 67, 0
4, 426816, Note_on_c, 2, 72, 66
4, 426816, Note_on_c, 2, 69, 66
4, 426816, Note_on_c, 2, 64, 66
4, 427004, Note_off_c, 2, 72, 0
4, 427004, Note_off_c, 2, 69, 0
4, 427004, Note_off_c, 2, 64, 0
4, 427200, Note_on_c, 2, 71, 66
4, 427200, Note_on_c, 2, 67, 66
4, 427200, Note_on_c, 2, 62, 66
4, 427388, Note_off_c, 2, 71, 0
4, 427388, Note_off_c, 2, 67, 0
4, 427388, Note_off_c, 2, 62, 0
4, 427584, Note_on_c, 2, 78, 66
4, 427676, Note_off_c, 2, 78, 0
4, 427680, Note_on_c, 2, 74, 66
4, 427772, Note_off_c, 2, 74, 0
4, 427776, Note_on_c, 2, 79, 66
4, 427868, Note_off_c, 2, 79, 0
4, 427968, Note_on_c, 2, 83, 66
4, 428156, Note_off_c, 2, 83, 0
4, 428160, Note_on_c, 2, 86, 66
4, 428252, Note_off_c, 2, 86, 0
4, 428352, Note_on_c, 2, 78, 66
4, 428444, Note_off_c, 2, 78, 0
4, 428448, Note_on_c, 2, 74, 66
4, 428540, Note_off_c, 2, 74, 0
4, 428544, Note_on_c, 2, 79, 66
4, 428636, Note_off_c, 2, 79, 0
4, 428736, Note_on_c, 2, 83, 66
4, 428924, Note_off_c, 2, 83, 0
4, 428928, Note_on_c, 2, 86, 66
4, 429020, Note_off_c, 2, 86, 0
4, 429120, Note_on_c, 2, 78, 68
4, 429212, Note_off_c, 2, 78, 0
4, 429216, Note_on_c, 2, 74, 71
4, 429308, Note_off_c, 2, 74, 0
4, 429312, Note_on_c, 2, 79, 73
4, 429404, Note_off_c, 2, 79, 0
4, 429504, Note_on_c, 2, 83, 78
4, 429692, Note_off_c, 2, 83, 0
4, 429696, Note_on_c, 2, 86, 82
4, 429788, Note_off_c, 2, 86, 0
4, 429888, Note_on_c, 2, 78, 87
4, 429980, Note_off_c, 2, 78, 0
4, 429984, Note_on_c, 2, 74, 90
4, 430076, Note_off_c, 2, 74, 0
4, 430080, Note_on_c, 2, 79, 90
4, 430172, Note_off_c, 2, 79, 0
4, 430272, Note_on_c, 2, 83, 90
4, 430460, Note_off_c, 2, 83, 0
4, 430464, Note_on_c, 2, 86, 90
4, 430556, Note_off_c, 2, 86, 0
4, 430656, Note_on_c, 2, 78, 90
4, 430744, Note_on_c, 2, 74, 90
4, 430748, Note_off_c, 2, 78, 0
4, 430836, Note_off_c, 2, 74, 0
4, 430848, Note_on_c, 2, 79, 90
4, 430940, Note_off_c, 2, 79, 0
4, 431040, Note_on_c, 2, 74, 66
4, 431040, Note_on_c, 2, 71, 66
4, 431040, Note_on_c, 2, 67, 66
4, 431228, Note_off_c, 2, 74, 0
4, 431228, Note_off_c, 2, 71, 0
4, 431228, Note_off_c, 2, 67, 0
4, 431424, Note_on_c, 2, 72, 66
4, 431424, Note_on_c, 2, 69, 66
4, 431424, Note_on_c, 2, 64, 66
4, 431612, Note_off_c, 2, 72, 0
4, 431612, Note_off_c, 2, 69, 0
4, 431612, Note_off_c, 2, 64, 0
4, 431800, Note_on_c, 2, 67, 66
4, 431808, Note_on_c, 2, 71, 66
4, 431808, Note_on_c, 2, 62, 66
4, 431988, Note_off_c, 2, 67, 0
4, 431996, Note_off_c, 2, 71, 0
4, 431996, Note_off_c, 2, 62, 0
4, 432192, Note_on_c, 2, 69, 66
4, 432192, Note_on_c, 2, 66, 66
4, 432192, Note_on_c, 2, 62, 66
4, 432380, Note_off_c, 2, 69, 0
4, 432380, Note_off_c, 2, 66, 0
4, 432380, Note_off_c, 2, 62, 0
4, 432576, Note_on_c, 2, 74, 71
4, 432576, Note_on_c, 2, 67, 71
4, 432576, Note_on_c, 2, 62, 71
4, 432764, Note_off_c, 2, 74, 0
4, 432764, Note_off_c, 2, 67, 0
4, 432764, Note_off_c, 2, 62, 0
4, 432960, Note_on_c, 2, 72, 77
4, 432960, Note_on_c, 2, 69, 77
4, 432960, Note_on_c, 2, 64, 77
4, 433148, Note_off_c, 2, 72, 0
4, 433148, Note_off_c, 2, 69, 0
4, 433148, Note_off_c, 2, 64, 0
4, 433344, Note_on_c, 2, 71, 82
4, 433344, Note_on_c, 2, 67, 82
4, 433344, Note_on_c, 2, 62, 82
4, 433532, Note_off_c, 2, 71, 0
4, 433532, Note_off_c, 2, 67, 0
4, 433532, Note_off_c, 2, 62, 0
4, 433728, Note_on_c, 2, 69, 88
4, 433728, Note_on_c, 2, 66, 88
4, 433728, Note_on_c, 2, 62, 88
4, 433916, Note_off_c, 2, 69, 0
4, 433916, Note_off_c, 2, 66, 0
4, 433916, Note_off_c, 2, 62, 0
4, 433920, Note_on_c, 2, 83, 90
4, 433920, Note_on_c, 2, 86, 90
4, 434012, Note_off_c, 2, 83, 0
4, 434012, Note_off_c, 2, 86, 0
4, 434016, Note_on_c, 2, 79, 90
4, 434108, Note_off_c, 2, 79, 0
4, 434112, Note_on_c, 2, 83, 90
4, 434112, Note_on_c, 2, 86, 90
4, 434204, Note_off_c, 2, 83, 0
4, 434204, Note_off_c, 2, 86, 0
4, 434208, Note_on_c, 2, 79, 90
4, 434300, Note_off_c, 2, 79, 0
4, 434304, Note_on_c, 2, 81, 90
4, 434304, Note_on_c, 2, 84, 90
4, 434396, Note_off_c, 2, 81, 0
4, 434396, Note_off_c, 2, 84, 0
4, 434400, Note_on_c, 2, 76, 90
4, 434492, Note_off_c, 2, 76, 0
4, 434496, Note_on_c, 2, 81, 90
4, 434496, Note_on_c, 2, 84, 90
4, 434588, Note_off_c, 2, 81, 0
4, 434588, Note_off_c, 2, 84, 0
4, 434592, Note_on_c, 2, 76, 90
4, 434684, Note_off_c, 2, 76, 0
4, 434688, Note_on_c, 2, 79, 90
4, 434688, Note_on_c, 2, 83, 90
4, 434780, Note_off_c, 2, 79, 0
4, 434780, Note_off_c, 2, 83, 0
4, 434784, Note_on_c, 2, 74, 90
4, 434876, Note_off_c, 2, 74, 0
4, 434880, Note_on_c, 2, 79, 90
4, 434880, Note_on_c, 2, 83, 90
4, 434972, Note_off_c, 2, 79, 0
4, 434972, Note_off_c, 2, 83, 0
4, 434976, Note_on_c, 2, 74, 90
4, 435068, Note_off_c, 2, 74, 0
4, 435072, Note_on_c, 2, 78, 90
4, 435072, Note_on_c, 2, 81, 90
4, 435164, Note_off_c, 2, 78, 0
4, 435164, Note_off_c, 2, 81, 0
4, 435168, Note_on_c, 2, 74, 90
4, 435260, Note_off_c, 2, 74, 0
4, 435264, Note_on_c, 2, 78, 90
4, 435264, Note_on_c, 2, 81, 90
4, 435356, Note_off_c, 2, 78, 0
4, 435356, Note_off_c, 2, 81, 0
4, 435360, Note_on_c, 2, 74, 90
4, 435452, Note_off_c, 2, 74, 0
4, 435456, Note_on_c, 2, 79, 90
4, 435456, Note_on_c, 2, 71, 90
4, 435644, Note_off_c, 2, 79, 0
4, 435644, Note_off_c, 2, 71, 0
4, 436224, Note_on_c, 2, 74, 66
4, 436224, Note_on_c, 2, 71, 66
4, 436224, Note_on_c, 2, 67, 66
4, 436224, Note_on_c, 2, 62, 66
4, 436412, Note_off_c, 2, 74, 0
4, 436412, Note_off_c, 2, 71, 0
4, 436412, Note_off_c, 2, 67, 0
4, 436412, Note_off_c, 2, 62, 0
4, 436992, Note_on_c, 2, 78, 66
4, 436992, Note_on_c, 2, 74, 66
4, 436992, Note_on_c, 2, 72, 66
4, 436992, Note_on_c, 2, 69, 66
4, 437180, Note_off_c, 2, 78, 0
4, 437180, Note_off_c, 2, 74, 0
4, 437180, Note_off_c, 2, 72, 0
4, 437180, Note_off_c, 2, 69, 0
4, 437376, Note_on_c, 2, 71, 66
4, 437376, Note_on_c, 2, 67, 66
4, 437376, Note_on_c, 2, 79, 66
4, 437564, Note_off_c, 2, 71, 0
4, 437564, Note_off_c, 2, 67, 0
4, 437564, Note_off_c, 2, 79, 0
4, 437760, Note_on_c, 2, 79, 66
4, 437760, Note_on_c, 2, 76, 66
4, 437760, Note_on_c, 2, 69, 66
4, 437760, Note_on_c, 2, 67, 66
4, 437948, Note_off_c, 2, 79, 0
4, 437948, Note_off_c, 2, 76, 0
4, 437948, Note_off_c, 2, 69, 0
4, 437948, Note_off_c, 2, 67, 0
4, 438144, Note_on_c, 2, 78, 66
4, 438144, Note_on_c, 2, 74, 66
4, 438144, Note_on_c, 2, 72, 66
4, 438144, Note_on_c, 2, 69, 66
4, 438332, Note_off_c, 2, 78, 0
4, 438332, Note_off_c, 2, 74, 0
4, 438332, Note_off_c, 2, 72, 0
4, 438332, Note_off_c, 2, 69, 0
4, 438528, Note_on_c, 2, 79, 66
4, 438528, Note_on_c, 2, 74, 66
4, 438528, Note_on_c, 2, 71, 66
4, 438528, Note_on_c, 2, 67, 66
4, 438716, Note_off_c, 2, 79, 0
4, 438716, Note_off_c, 2, 74, 0
4, 438716, Note_off_c, 2, 71, 0
4, 438716, Note_off_c, 2, 67, 0
4, 438912, Note_on_c, 2, 81, 66
4, 439004, Note_off_c, 2, 81, 0
4, 439008, Note_on_c, 2, 83, 66
4, 439100, Note_off_c, 2, 83, 0
4, 439104, Note_on_c, 2, 84, 66
4, 439196, Note_off_c, 2, 84, 0
4, 439200, Note_on_c, 2, 81, 66
4, 439292, Note_off_c, 2, 81, 0
4, 439296, Note_on_c, 2, 83, 66
4, 439388, Note_off_c, 2, 83, 0
4, 439392, Note_on_c, 2, 84, 66
4, 439484, Note_off_c, 2, 84, 0
4, 439488, Note_on_c, 2, 86, 66
4, 439580, Note_off_c, 2, 86, 0
4, 439584, Note_on_c, 2, 83, 66
4, 439676, Note_off_c, 2, 83, 0
4, 439680, Note_on_c, 2, 84, 66
4, 439772, Note_off_c, 2, 84, 0
4, 439776, Note_on_c, 2, 86, 66
4, 439868, Note_off_c, 2, 86, 0
4, 439872, Note_on_c, 2, 88, 66
4, 439964, Note_off_c, 2, 88, 0
4, 439968, Note_on_c, 2, 84, 66
4, 440060, Note_off_c, 2, 84, 0
4, 440064, Note_on_c, 2, 86, 66
4, 440252, Note_off_c, 2, 86, 0
4, 440832, Note_on_c, 2, 79, 78
4, 440832, Note_on_c, 2, 74, 78
4, 440832, Note_on_c, 2, 67, 78
4, 441020, Note_off_c, 2, 79, 0
4, 441020, Note_off_c, 2, 74, 0
4, 441020, Note_off_c, 2, 67, 0
4, 441600, Note_on_c, 2, 78, 78
4, 441600, Note_on_c, 2, 74, 78
4, 441600, Note_on_c, 2, 72, 78
4, 441788, Note_off_c, 2, 78, 0
4, 441788, Note_off_c, 2, 74, 0
4, 441788, Note_off_c, 2, 72, 0
4, 441984, Note_on_c, 2, 79, 78
4, 441984, Note_on_c, 2, 74, 78
4, 441984, Note_on_c, 2, 71, 78
4, 442172, Note_off_c, 2, 79, 0
4, 442172, Note_off_c, 2, 74, 0
4, 442172, Note_off_c, 2, 71, 0
4, 442368, Note_on_c, 2, 79, 78
4, 442368, Note_on_c, 2, 76, 78
4, 442368, Note_on_c, 2, 69, 78
4, 442368, Note_on_c, 2, 67, 78
4, 442556, Note_off_c, 2, 79, 0
4, 442556, Note_off_c, 2, 76, 0
4, 442556, Note_off_c, 2, 69, 0
4, 442556, Note_off_c, 2, 67, 0
4, 442752, Note_on_c, 2, 78, 78
4, 442752, Note_on_c, 2, 74, 78
4, 442752, Note_on_c, 2, 72, 78
4, 442752, Note_on_c, 2, 69, 78
4, 442940, Note_off_c, 2, 78, 0
4, 442940, Note_off_c, 2, 74, 0
4, 442940, Note_off_c, 2, 72, 0
4, 442940, Note_off_c, 2, 69, 0
4, 443136, Note_on_c, 2, 79, 78
4, 443136, Note_on_c, 2, 74, 78
4, 443136, Note_on_c, 2, 71, 78
4, 443324, Note_off_c, 2, 79, 0
4, 443324, Note_off_c, 2, 74, 0
4, 443324, Note_off_c, 2, 71, 0
4, 443520, Note_on_c, 2, 84, 66
4, 443612, Note_off_c, 2, 84, 0
4, 443616, Note_on_c, 2, 86, 66
4, 443708, Note_off_c, 2, 86, 0
4, 443712, Note_on_c, 2, 88, 66
4, 443804, Note_off_c, 2, 88, 0
4, 443808, Note_on_c, 2, 84, 66
4, 443900, Note_off_c, 2, 84, 0
4, 443904, Note_on_c, 2, 83, 66
4, 443996, Note_off_c, 2, 83, 0
4, 444000, Note_on_c, 2, 84, 66
4, 444092, Note_off_c, 2, 84, 0
4, 444096, Note_on_c, 2, 86, 66
4, 444188, Note_off_c, 2, 86, 0
4, 444192, Note_on_c, 2, 83, 66
4, 444284, Note_off_c, 2, 83, 0
4, 444288, Note_on_c, 2, 81, 66
4, 444380, Note_off_c, 2, 81, 0
4, 444384, Note_on_c, 2, 83, 66
4, 444476, Note_off_c, 2, 83, 0
4, 444480, Note_on_c, 2, 84, 66
4, 444572, Note_off_c, 2, 84, 0
4, 444576, Note_on_c, 2, 81, 66
4, 444668, Note_off_c, 2, 81, 0
4, 444672, Note_on_c, 2, 79, 66
4, 444860, Note_off_c, 2, 79, 0
4, 445824, Note_on_c, 2, 86, 90
4, 445824, Note_on_c, 2, 81, 90
4, 445824, Note_on_c, 2, 78, 90
4, 445824, Note_on_c, 2, 74, 90
4, 446012, Note_off_c, 2, 86, 0
4, 446012, Note_off_c, 2, 81, 0
4, 446012, Note_off_c, 2, 78, 0
4, 446012, Note_off_c, 2, 74, 0
4, 446016, Note_on_c, 2, 86, 90
4, 446016, Note_on_c, 2, 81, 90
4, 446016, Note_on_c, 2, 78, 90
4, 446016, Note_on_c, 2, 74, 90
4, 446204, Note_off_c, 2, 86, 0
4, 446204, Note_off_c, 2, 81, 0
4, 446204, Note_off_c, 2, 78, 0
4, 446204, Note_off_c, 2, 74, 0
4, 446208, Note_on_c, 2, 83, 90
4, 446208, Note_on_c, 2, 79, 90
4, 446208, Note_on_c, 2, 74, 90
4, 446588, Note_off_c, 2, 83, 0
4, 446588, Note_off_c, 2, 79, 0
4, 446588, Note_off_c, 2, 74, 0
4, 447360, Note_on_c, 2, 78, 90
4, 447360, Note_on_c, 2, 74, 90
4, 447360, Note_on_c, 2, 86, 90
4, 447360, Note_on_c, 2, 81, 90
4, 447548, Note_off_c, 2, 78, 0
4, 447548, Note_off_c, 2, 74, 0
4, 447548, Note_off_c, 2, 86, 0
4, 447548, Note_off_c, 2, 81, 0
4, 447552, Note_on_c, 2, 86, 90
4, 447552, Note_on_c, 2, 81, 90
4, 447552, Note_on_c, 2, 78, 90
4, 447552, Note_on_c, 2, 74, 90
4, 447740, Note_off_c, 2, 86, 0
4, 447740, Note_off_c, 2, 81, 0
4, 447740, Note_off_c, 2, 78, 0
4, 447740, Note_off_c, 2, 74, 0
4, 447744, Note_on_c, 2, 79, 90
4, 447744, Note_on_c, 2, 74, 90
4, 447744, Note_on_c, 2, 71, 90
4, 448124, Note_off_c, 2, 79, 0
4, 448124, Note_off_c, 2, 74, 0
4, 448124, Note_off_c, 2, 71, 0
4, 448124, End_track
5, 0, Start_track
5, 0, Title_t, "Midi by:"
5, 0, Control_c, 3, 0, 0
5, 0, Program_c, 3, 48
5, 0, Control_c, 3, 7, 127
5, 0, Control_c, 3, 10, 96
5, 0, Control_c, 3, 91, 61
5, 0, Control_c, 3, 93, 0
5, 0, Key_signature, 1, "major"
5, 0, Control_c, 3, 121, 0
5, 384, Control_c, 3, 10, 73
5, 480, Control_c, 3, 91, 63
5, 672, Program_c, 3, 48
5, 3072, Note_on_c, 3, 55, 68
5, 4220, Note_off_c, 3, 55, 0
5, 4608, Note_on_c, 3, 50, 68
5, 5372, Note_off_c, 3, 50, 0
5, 5376, Note_on_c, 3, 55, 68
5, 6140, Note_off_c, 3, 55, 0
5, 6144, Note_on_c, 3, 48, 68
5, 6528, Note_on_c, 3, 57, 68
5, 6716, Note_off_c, 3, 57, 0
5, 6720, Note_on_c, 3, 55, 68
5, 6908, Note_off_c, 3, 48, 0
5, 6908, Note_off_c, 3, 55, 0
5, 6912, Note_on_c, 3, 50, 68
5, 6912, Note_on_c, 3, 54, 68
5, 7100, Note_off_c, 3, 54, 0
5, 7104, Note_on_c, 3, 55, 68
5, 7292, Note_off_c, 3, 55, 0
5, 7296, Note_on_c, 3, 57, 68
5, 7484, Note_off_c, 3, 57, 0
5, 7488, Note_on_c, 3, 54, 68
5, 7676, Note_off_c, 3, 50, 0
5, 7676, Note_off_c, 3, 54, 0
5, 7680, Note_on_c, 3, 55, 68
5, 7680, Note_on_c, 3, 55, 68
5, 7868, Note_off_c, 3, 55, 0
5, 7872, Note_on_c, 3, 62, 68
5, 8060, Note_off_c, 3, 62, 0
5, 8064, Note_on_c, 3, 59, 68
5, 8252, Note_off_c, 3, 59, 0
5, 8256, Note_on_c, 3, 62, 68
5, 8444, Note_off_c, 3, 55, 0
5, 8444, Note_off_c, 3, 62, 0
5, 8448, Note_on_c, 3, 55, 68
5, 8828, Note_off_c, 3, 55, 0
5, 12288, Note_on_c, 3, 55, 68
5, 12288, Note_on_c, 3, 59, 68
5, 12476, Note_off_c, 3, 59, 0
5, 13052, Note_off_c, 3, 55, 0
5, 13056, Note_on_c, 3, 57, 68
5, 13820, Note_off_c, 3, 57, 0
5, 13824, Note_on_c, 3, 50, 68
5, 14204, Note_off_c, 3, 50, 0
5, 14208, Note_on_c, 3, 62, 68
5, 14588, Note_off_c, 3, 62, 0
5, 14592, Note_on_c, 3, 50, 68
5, 14972, Note_off_c, 3, 50, 0
5, 15360, Note_on_c, 3, 55, 68
5, 16508, Note_off_c, 3, 55, 0
5, 16896, Note_on_c, 3, 50, 68
5, 17660, Note_off_c, 3, 50, 0
5, 17664, Note_on_c, 3, 55, 68
5, 18428, Note_off_c, 3, 55, 0
5, 18432, Note_on_c, 3, 48, 68
5, 18816, Note_on_c, 3, 57, 68
5, 19004, Note_off_c, 3, 57, 0
5, 19008, Note_on_c, 3, 55, 68
5, 19196, Note_off_c, 3, 48, 0
5, 19196, Note_off_c, 3, 55, 0
5, 19200, Note_on_c, 3, 50, 68
5, 19200, Note_on_c, 3, 54, 68
5, 19388, Note_off_c, 3, 54, 0
5, 19392, Note_on_c, 3, 55, 68
5, 19580, Note_off_c, 3, 55, 0
5, 19584, Note_on_c, 3, 57, 68
5, 19772, Note_off_c, 3, 57, 0
5, 19776, Note_on_c, 3, 54, 68
5, 19964, Note_off_c, 3, 50, 0
5, 19964, Note_off_c, 3, 54, 0
5, 19968, Note_on_c, 3, 55, 68
5, 19968, Note_on_c, 3, 55, 68
5, 20156, Note_off_c, 3, 55, 0
5, 20160, Note_on_c, 3, 62, 68
5, 20348, Note_off_c, 3, 62, 0
5, 20352, Note_on_c, 3, 59, 68
5, 20540, Note_off_c, 3, 59, 0
5, 20544, Note_on_c, 3, 62, 68
5, 20732, Note_off_c, 3, 55, 0
5, 20732, Note_off_c, 3, 62, 0
5, 20736, Note_on_c, 3, 55, 68
5, 21116, Note_off_c, 3, 55, 0
5, 24576, Note_on_c, 3, 55, 68
5, 24576, Note_on_c, 3, 59, 68
5, 24764, Note_off_c, 3, 59, 0
5, 25340, Note_off_c, 3, 55, 0
5, 25344, Note_on_c, 3, 57, 68
5, 26108, Note_off_c, 3, 57, 0
5, 26112, Note_on_c, 3, 50, 68
5, 26492, Note_off_c, 3, 50, 0
5, 26496, Note_on_c, 3, 62, 68
5, 26876, Note_off_c, 3, 62, 0
5, 26880, Note_on_c, 3, 50, 68
5, 27260, Note_off_c, 3, 50, 0
5, 27264, Note_on_c, 3, 66, 68
5, 27452, Note_off_c, 3, 66, 0
5, 27456, Note_on_c, 3, 62, 68
5, 27644, Note_off_c, 3, 62, 0
5, 27648, Note_on_c, 3, 67, 68
5, 27648, Note_on_c, 3, 61, 68
5, 27836, Note_off_c, 3, 67, 0
5, 27836, Note_off_c, 3, 61, 0
5, 27840, Note_on_c, 3, 64, 68
5, 28028, Note_off_c, 3, 64, 0
5, 28032, Note_on_c, 3, 61, 68
5, 28220, Note_off_c, 3, 61, 0
5, 28224, Note_on_c, 3, 64, 68
5, 28412, Note_off_c, 3, 64, 0
5, 28416, Note_on_c, 3, 57, 68
5, 28604, Note_off_c, 3, 57, 0
5, 28608, Note_on_c, 3, 61, 68
5, 28796, Note_off_c, 3, 61, 0
5, 28800, Note_on_c, 3, 64, 68
5, 28988, Note_off_c, 3, 64, 0
5, 28992, Note_on_c, 3, 61, 68
5, 29180, Note_off_c, 3, 61, 0
5, 29184, Note_on_c, 3, 60, 68
5, 29564, Note_off_c, 3, 60, 0
5, 29568, Note_on_c, 3, 60, 68
5, 29948, Note_off_c, 3, 60, 0
5, 29952, Note_on_c, 3, 60, 68
5, 30332, Note_off_c, 3, 60, 0
5, 30336, Note_on_c, 3, 60, 68
5, 30716, Note_off_c, 3, 60, 0
5, 30720, Note_on_c, 3, 64, 68
5, 30720, Note_on_c, 3, 61, 68
5, 30908, Note_off_c, 3, 64, 0
5, 30912, Note_on_c, 3, 67, 68
5, 31100, Note_off_c, 3, 67, 0
5, 31104, Note_on_c, 3, 64, 68
5, 31292, Note_off_c, 3, 64, 0
5, 31296, Note_on_c, 3, 67, 68
5, 31484, Note_off_c, 3, 67, 0
5, 31488, Note_on_c, 3, 64, 68
5, 31676, Note_off_c, 3, 64, 0
5, 31680, Note_on_c, 3, 67, 68
5, 31868, Note_off_c, 3, 61, 0
5, 31868, Note_off_c, 3, 67, 0
5, 31872, Note_on_c, 3, 64, 68
5, 31872, Note_on_c, 3, 61, 68
5, 32060, Note_off_c, 3, 64, 0
5, 32060, Note_off_c, 3, 61, 0
5, 32064, Note_on_c, 3, 57, 68
5, 32252, Note_off_c, 3, 57, 0
5, 32256, Note_on_c, 3, 59, 68
5, 32256, Note_on_c, 3, 62, 68
5, 32444, Note_off_c, 3, 59, 0
5, 32448, Note_on_c, 3, 60, 68
5, 32636, Note_off_c, 3, 60, 0
5, 32640, Note_on_c, 3, 59, 68
5, 32828, Note_off_c, 3, 59, 0
5, 32832, Note_on_c, 3, 60, 68
5, 33020, Note_off_c, 3, 60, 0
5, 33024, Note_on_c, 3, 59, 68
5, 33212, Note_off_c, 3, 59, 0
5, 33216, Note_on_c, 3, 60, 68
5, 33404, Note_off_c, 3, 62, 0
5, 33404, Note_off_c, 3, 60, 0
5, 33408, Note_on_c, 3, 62, 68
5, 33408, Note_on_c, 3, 66, 68
5, 33596, Note_off_c, 3, 62, 0
5, 33596, Note_off_c, 3, 66, 0
5, 33600, Note_on_c, 3, 60, 68
5, 33788, Note_off_c, 3, 60, 0
5, 33792, Note_on_c, 3, 62, 68
5, 33792, Note_on_c, 3, 59, 68
5, 34172, Note_off_c, 3, 62, 0
5, 34172, Note_off_c, 3, 59, 0
5, 34176, Note_on_c, 3, 56, 68
5, 34176, Note_on_c, 3, 62, 68
5, 34556, Note_off_c, 3, 56, 0
5, 34560, Note_on_c, 3, 57, 68
5, 34940, Note_off_c, 3, 62, 0
5, 34940, Note_off_c, 3, 57, 0
5, 34944, Note_on_c, 3, 54, 68
5, 34944, Note_on_c, 3, 62, 68
5, 35324, Note_off_c, 3, 54, 0
5, 35324, Note_off_c, 3, 62, 0
5, 35328, Note_on_c, 3, 55, 68
5, 35328, Note_on_c, 3, 62, 68
5, 35708, Note_off_c, 3, 55, 0
5, 35708, Note_off_c, 3, 62, 0
5, 35712, Note_on_c, 3, 50, 68
5, 35712, Note_on_c, 3, 47, 68
5, 36092, Note_off_c, 3, 50, 0
5, 36092, Note_off_c, 3, 47, 0
5, 36096, Note_on_c, 3, 52, 68
5, 36096, Note_on_c, 3, 48, 68
5, 36476, Note_off_c, 3, 52, 0
5, 36476, Note_off_c, 3, 48, 0
5, 36480, Note_on_c, 3, 54, 68
5, 36480, Note_on_c, 3, 50, 68
5, 36860, Note_off_c, 3, 54, 0
5, 36860, Note_off_c, 3, 50, 0
5, 36864, Note_on_c, 3, 52, 68
5, 36864, Note_on_c, 3, 55, 68
5, 37244, Note_off_c, 3, 52, 0
5, 37248, Note_on_c, 3, 49, 68
5, 37628, Note_off_c, 3, 55, 0
5, 37628, Note_off_c, 3, 49, 0
5, 37632, Note_on_c, 3, 50, 68
5, 37632, Note_on_c, 3, 62, 68
5, 38012, Note_off_c, 3, 62, 0
5, 38016, Note_on_c, 3, 62, 68
5, 38396, Note_off_c, 3, 50, 0
5, 38396, Note_off_c, 3, 62, 0
5, 38400, Note_on_c, 3, 62, 68
5, 38400, Note_on_c, 3, 55, 68
5, 38780, Note_off_c, 3, 55, 0
5, 38784, Note_on_c, 3, 55, 68
5, 39164, Note_off_c, 3, 62, 0
5, 39164, Note_off_c, 3, 55, 0
5, 39168, Note_on_c, 3, 43, 68
5, 39548, Note_off_c, 3, 43, 0
5, 39552, Note_on_c, 3, 66, 68
5, 39740, Note_off_c, 3, 66, 0
5, 39744, Note_on_c, 3, 62, 68
5, 39932, Note_off_c, 3, 62, 0
5, 39936, Note_on_c, 3, 67, 68
5, 39936, Note_on_c, 3, 61, 68
5, 40124, Note_off_c, 3, 67, 0
5, 40124, Note_off_c, 3, 61, 0
5, 40128, Note_on_c, 3, 64, 68
5, 40316, Note_off_c, 3, 64, 0
5, 40320, Note_on_c, 3, 61, 68
5, 40508, Note_off_c, 3, 61, 0
5, 40512, Note_on_c, 3, 64, 68
5, 40700, Note_off_c, 3, 64, 0
5, 40704, Note_on_c, 3, 57, 68
5, 40892, Note_off_c, 3, 57, 0
5, 40896, Note_on_c, 3, 61, 68
5, 41084, Note_off_c, 3, 61, 0
5, 41088, Note_on_c, 3, 64, 68
5, 41276, Note_off_c, 3, 64, 0
5, 41280, Note_on_c, 3, 61, 68
5, 41468, Note_off_c, 3, 61, 0
5, 41472, Note_on_c, 3, 60, 68
5, 41852, Note_off_c, 3, 60, 0
5, 41856, Note_on_c, 3, 60, 68
5, 42236, Note_off_c, 3, 60, 0
5, 42240, Note_on_c, 3, 60, 68
5, 42620, Note_off_c, 3, 60, 0
5, 42624, Note_on_c, 3, 60, 68
5, 43004, Note_off_c, 3, 60, 0
5, 43008, Note_on_c, 3, 64, 68
5, 43008, Note_on_c, 3, 61, 68
5, 43196, Note_off_c, 3, 64, 0
5, 43200, Note_on_c, 3, 67, 68
5, 43388, Note_off_c, 3, 67, 0
5, 43392, Note_on_c, 3, 64, 68
5, 43580, Note_off_c, 3, 64, 0
5, 43584, Note_on_c, 3, 67, 68
5, 43772, Note_off_c, 3, 67, 0
5, 43776, Note_on_c, 3, 64, 68
5, 43964, Note_off_c, 3, 64, 0
5, 43968, Note_on_c, 3, 67, 68
5, 44156, Note_off_c, 3, 61, 0
5, 44156, Note_off_c, 3, 67, 0
5, 44160, Note_on_c, 3, 64, 68
5, 44160, Note_on_c, 3, 61, 68
5, 44348, Note_off_c, 3, 64, 0
5, 44348, Note_off_c, 3, 61, 0
5, 44352, Note_on_c, 3, 57, 68
5, 44540, Note_off_c, 3, 57, 0
5, 44544, Note_on_c, 3, 59, 68
5, 44544, Note_on_c, 3, 62, 68
5, 44732, Note_off_c, 3, 59, 0
5, 44736, Note_on_c, 3, 60, 68
5, 44924, Note_off_c, 3, 60, 0
5, 44928, Note_on_c, 3, 59, 68
5, 45116, Note_off_c, 3, 59, 0
5, 45120, Note_on_c, 3, 60, 68
5, 45308, Note_off_c, 3, 60, 0
5, 45312, Note_on_c, 3, 59, 68
5, 45500, Note_off_c, 3, 59, 0
5, 45504, Note_on_c, 3, 60, 68
5, 45692, Note_off_c, 3, 62, 0
5, 45692, Note_off_c, 3, 60, 0
5, 45696, Note_on_c, 3, 62, 68
5, 45696, Note_on_c, 3, 66, 68
5, 45884, Note_off_c, 3, 62, 0
5, 45884, Note_off_c, 3, 66, 0
5, 45888, Note_on_c, 3, 60, 68
5, 46076, Note_off_c, 3, 60, 0
5, 46080, Note_on_c, 3, 62, 68
5, 46080, Note_on_c, 3, 59, 68
5, 46460, Note_off_c, 3, 62, 0
5, 46460, Note_off_c, 3, 59, 0
5, 46464, Note_on_c, 3, 56, 68
5, 46464, Note_on_c, 3, 62, 68
5, 46844, Note_off_c, 3, 56, 0
5, 46848, Note_on_c, 3, 57, 68
5, 47228, Note_off_c, 3, 62, 0
5, 47228, Note_off_c, 3, 57, 0
5, 47232, Note_on_c, 3, 54, 68
5, 47232, Note_on_c, 3, 62, 68
5, 47612, Note_off_c, 3, 54, 0
5, 47612, Note_off_c, 3, 62, 0
5, 47616, Note_on_c, 3, 55, 68
5, 47616, Note_on_c, 3, 62, 68
5, 47996, Note_off_c, 3, 55, 0
5, 47996, Note_off_c, 3, 62, 0
5, 48000, Note_on_c, 3, 50, 68
5, 48000, Note_on_c, 3, 47, 68
5, 48380, Note_off_c, 3, 50, 0
5, 48380, Note_off_c, 3, 47, 0
5, 48384, Note_on_c, 3, 52, 68
5, 48384, Note_on_c, 3, 48, 68
5, 48764, Note_off_c, 3, 52, 0
5, 48764, Note_off_c, 3, 48, 0
5, 48768, Note_on_c, 3, 54, 68
5, 48768, Note_on_c, 3, 50, 68
5, 49148, Note_off_c, 3, 54, 0
5, 49148, Note_off_c, 3, 50, 0
5, 49152, Note_on_c, 3, 52, 68
5, 49152, Note_on_c, 3, 55, 68
5, 49532, Note_off_c, 3, 52, 0
5, 49536, Note_on_c, 3, 49, 68
5, 49916, Note_off_c, 3, 55, 0
5, 49916, Note_off_c, 3, 49, 0
5, 49920, Note_on_c, 3, 50, 68
5, 49920, Note_on_c, 3, 62, 68
5, 50300, Note_off_c, 3, 62, 0
5, 50304, Note_on_c, 3, 62, 68
5, 50684, Note_off_c, 3, 50, 0
5, 50684, Note_off_c, 3, 62, 0
5, 50688, Note_on_c, 3, 62, 68
5, 50688, Note_on_c, 3, 55, 68
5, 51068, Note_off_c, 3, 55, 0
5, 51072, Note_on_c, 3, 55, 68
5, 51452, Note_off_c, 3, 62, 0
5, 51452, Note_off_c, 3, 55, 0
5, 51456, Note_on_c, 3, 43, 68
5, 51836, Note_off_c, 3, 43, 0
5, 58368, Note_on_c, 3, 66, 68
5, 58368, Note_on_c, 3, 54, 68
5, 59900, Note_off_c, 3, 66, 0
5, 59900, Note_off_c, 3, 54, 0
5, 59904, Note_on_c, 3, 64, 68
5, 59904, Note_on_c, 3, 52, 68
5, 60284, Note_off_c, 3, 52, 0
5, 60288, Note_on_c, 3, 57, 68
5, 60668, Note_off_c, 3, 64, 0
5, 60668, Note_off_c, 3, 57, 0
5, 60672, Note_on_c, 3, 62, 68
5, 60672, Note_on_c, 3, 50, 68
5, 61052, Note_off_c, 3, 50, 0
5, 61056, Note_on_c, 3, 55, 68
5, 61436, Note_off_c, 3, 62, 0
5, 61436, Note_off_c, 3, 55, 0
5, 70656, Note_on_c, 3, 66, 68
5, 70656, Note_on_c, 3, 54, 68
5, 72188, Note_off_c, 3, 66, 0
5, 72188, Note_off_c, 3, 54, 0
5, 72192, Note_on_c, 3, 64, 68
5, 72192, Note_on_c, 3, 52, 68
5, 72572, Note_off_c, 3, 52, 0
5, 72576, Note_on_c, 3, 57, 68
5, 72956, Note_off_c, 3, 64, 0
5, 72956, Note_off_c, 3, 57, 0
5, 72960, Note_on_c, 3, 62, 68
5, 72960, Note_on_c, 3, 50, 68
5, 73340, Note_off_c, 3, 50, 0
5, 73344, Note_on_c, 3, 55, 68
5, 73724, Note_off_c, 3, 62, 0
5, 73724, Note_off_c, 3, 55, 0
5, 82944, Note_on_c, 3, 59, 87
5, 82944, Note_on_c, 3, 62, 87
5, 83324, Note_off_c, 3, 59, 0
5, 83328, Note_on_c, 3, 58, 87
5, 83708, Note_off_c, 3, 62, 0
5, 83708, Note_off_c, 3, 58, 0
5, 83712, Note_on_c, 3, 57, 87
5, 83712, Note_on_c, 3, 64, 87
5, 84092, Note_off_c, 3, 57, 0
5, 84092, Note_off_c, 3, 64, 0
5, 84096, Note_on_c, 3, 62, 87
5, 84476, Note_off_c, 3, 62, 0
5, 84480, Note_on_c, 3, 62, 87
5, 84480, Note_on_c, 3, 55, 87
5, 84860, Note_off_c, 3, 62, 0
5, 84860, Note_off_c, 3, 55, 0
5, 84864, Note_on_c, 3, 60, 87
5, 85244, Note_off_c, 3, 60, 0
5, 86016, Note_on_c, 3, 64, 87
5, 86396, Note_off_c, 3, 64, 0
5, 86400, Note_on_c, 3, 61, 87
5, 86780, Note_off_c, 3, 61, 0
5, 86784, Note_on_c, 3, 62, 82
5, 87164, Note_off_c, 3, 62, 0
5, 87168, Note_on_c, 3, 50, 77
5, 87548, Note_off_c, 3, 50, 0
5, 87552, Note_on_c, 3, 55, 72
5, 87932, Note_off_c, 3, 55, 0
5, 95232, Note_on_c, 3, 59, 87
5, 95232, Note_on_c, 3, 62, 87
5, 95612, Note_off_c, 3, 59, 0
5, 95616, Note_on_c, 3, 58, 87
5, 95996, Note_off_c, 3, 62, 0
5, 95996, Note_off_c, 3, 58, 0
5, 96000, Note_on_c, 3, 57, 87
5, 96000, Note_on_c, 3, 64, 87
5, 96380, Note_off_c, 3, 57, 0
5, 96380, Note_off_c, 3, 64, 0
5, 96384, Note_on_c, 3, 62, 87
5, 96764, Note_off_c, 3, 62, 0
5, 96768, Note_on_c, 3, 62, 87
5, 96768, Note_on_c, 3, 55, 87
5, 97148, Note_off_c, 3, 62, 0
5, 97148, Note_off_c, 3, 55, 0
5, 97152, Note_on_c, 3, 60, 87
5, 97532, Note_off_c, 3, 60, 0
5, 98304, Note_on_c, 3, 64, 87
5, 98684, Note_off_c, 3, 64, 0
5, 98688, Note_on_c, 3, 61, 87
5, 99068, Note_off_c, 3, 61, 0
5, 99072, Note_on_c, 3, 62, 83
5, 99452, Note_off_c, 3, 62, 0
5, 99456, Note_on_c, 3, 50, 80
5, 99836, Note_off_c, 3, 50, 0
5, 99840, Note_on_c, 3, 55, 76
5, 100220, Note_off_c, 3, 55, 0
5, 101376, Note_on_c, 3, 59, 68
5, 101376, Note_on_c, 3, 55, 68
5, 101756, Note_off_c, 3, 59, 0
5, 101756, Note_off_c, 3, 55, 0
5, 101760, Note_on_c, 3, 59, 68
5, 101760, Note_on_c, 3, 55, 68
5, 102140, Note_off_c, 3, 59, 0
5, 102140, Note_off_c, 3, 55, 0
5, 102144, Note_on_c, 3, 59, 68
5, 102144, Note_on_c, 3, 55, 68
5, 102524, Note_off_c, 3, 59, 0
5, 102524, Note_off_c, 3, 55, 0
5, 102912, Note_on_c, 3, 62, 68
5, 102912, Note_on_c, 3, 50, 68
5, 103292, Note_off_c, 3, 62, 0
5, 103292, Note_off_c, 3, 50, 0
5, 103680, Note_on_c, 3, 64, 68
5, 103680, Note_on_c, 3, 52, 68
5, 104060, Note_off_c, 3, 64, 0
5, 104060, Note_off_c, 3, 52, 0
5, 104448, Note_on_c, 3, 57, 68
5, 104448, Note_on_c, 3, 55, 68
5, 104448, Note_on_c, 3, 48, 68
5, 104828, Note_off_c, 3, 57, 0
5, 104828, Note_off_c, 3, 55, 0
5, 104828, Note_off_c, 3, 48, 0
5, 105216, Note_on_c, 3, 62, 68
5, 105216, Note_on_c, 3, 50, 68
5, 105596, Note_off_c, 3, 62, 0
5, 105596, Note_off_c, 3, 50, 0
5, 105600, Note_on_c, 3, 50, 68
5, 105600, Note_on_c, 3, 62, 68
5, 105980, Note_off_c, 3, 50, 0
5, 105984, Note_on_c, 3, 62, 68
5, 105984, Note_on_c, 3, 55, 68
5, 105988, Note_off_c, 3, 62, 0
5, 106748, Note_off_c, 3, 62, 0
5, 106748, Note_off_c, 3, 55, 0
5, 107136, Note_on_c, 3, 62, 68
5, 107136, Note_on_c, 3, 55, 68
5, 107516, Note_off_c, 3, 62, 0
5, 107516, Note_off_c, 3, 55, 0
5, 107520, Note_on_c, 3, 62, 68
5, 107520, Note_on_c, 3, 50, 68
5, 107900, Note_off_c, 3, 62, 0
5, 107900, Note_off_c, 3, 50, 0
5, 107904, Note_on_c, 3, 62, 68
5, 107904, Note_on_c, 3, 50, 68
5, 108284, Note_off_c, 3, 62, 0
5, 108284, Note_off_c, 3, 50, 0
5, 108288, Note_on_c, 3, 59, 68
5, 108288, Note_on_c, 3, 47, 68
5, 108668, Note_off_c, 3, 59, 0
5, 108668, Note_off_c, 3, 47, 0
5, 109056, Note_on_c, 3, 59, 68
5, 109056, Note_on_c, 3, 52, 68
5, 109436, Note_off_c, 3, 59, 0
5, 109436, Note_off_c, 3, 52, 0
5, 109440, Note_on_c, 3, 57, 68
5, 109440, Note_on_c, 3, 45, 68
5, 109820, Note_off_c, 3, 57, 0
5, 109820, Note_off_c, 3, 45, 0
5, 109824, Note_on_c, 3, 57, 68
5, 109824, Note_on_c, 3, 50, 68
5, 110204, Note_off_c, 3, 57, 0
5, 110204, Note_off_c, 3, 50, 0
5, 110208, Note_on_c, 3, 59, 68
5, 110588, Note_off_c, 3, 59, 0
5, 110592, Note_on_c, 3, 59, 68
5, 110592, Note_on_c, 3, 55, 68
5, 110972, Note_off_c, 3, 59, 0
5, 110972, Note_off_c, 3, 55, 0
5, 111360, Note_on_c, 3, 57, 68
5, 111740, Note_off_c, 3, 57, 0
5, 111744, Note_on_c, 3, 45, 68
5, 112124, Note_off_c, 3, 45, 0
5, 112128, Note_on_c, 3, 50, 68
5, 112892, Note_off_c, 3, 50, 0
5, 113664, Note_on_c, 3, 43, 68
5, 114044, Note_off_c, 3, 43, 0
5, 114048, Note_on_c, 3, 43, 68
5, 114428, Note_off_c, 3, 43, 0
5, 114432, Note_on_c, 3, 43, 68
5, 114812, Note_off_c, 3, 43, 0
5, 115200, Note_on_c, 3, 57, 68
5, 115200, Note_on_c, 3, 50, 68
5, 115580, Note_off_c, 3, 57, 0
5, 115580, Note_off_c, 3, 50, 0
5, 115968, Note_on_c, 3, 59, 68
5, 115968, Note_on_c, 3, 47, 68
5, 116348, Note_off_c, 3, 59, 0
5, 116348, Note_off_c, 3, 47, 0
5, 116736, Note_on_c, 3, 48, 68
5, 117500, Note_off_c, 3, 48, 0
5, 117504, Note_on_c, 3, 50, 68
5, 118268, Note_off_c, 3, 50, 0
5, 118272, Note_on_c, 3, 43, 68
5, 119036, Note_off_c, 3, 43, 0
5, 119808, Note_on_c, 3, 62, 68
5, 119808, Note_on_c, 3, 50, 68
5, 120188, Note_off_c, 3, 62, 0
5, 120188, Note_off_c, 3, 50, 0
5, 120192, Note_on_c, 3, 62, 68
5, 120192, Note_on_c, 3, 50, 68
5, 120572, Note_off_c, 3, 62, 0
5, 120572, Note_off_c, 3, 50, 0
5, 120576, Note_on_c, 3, 59, 68
5, 120576, Note_on_c, 3, 51, 68
5, 120956, Note_off_c, 3, 59, 0
5, 120956, Note_off_c, 3, 51, 0
5, 120960, Note_on_c, 3, 47, 68
5, 121340, Note_off_c, 3, 47, 0
5, 121344, Note_on_c, 3, 52, 68
5, 121724, Note_off_c, 3, 52, 0
5, 121728, Note_on_c, 3, 45, 68
5, 122108, Note_off_c, 3, 45, 0
5, 122112, Note_on_c, 3, 57, 68
5, 122112, Note_on_c, 3, 50, 68
5, 122492, Note_off_c, 3, 57, 0
5, 122492, Note_off_c, 3, 50, 0
5, 122496, Note_on_c, 3, 59, 68
5, 122496, Note_on_c, 3, 47, 68
5, 122876, Note_off_c, 3, 59, 0
5, 122876, Note_off_c, 3, 47, 0
5, 122880, Note_on_c, 3, 43, 68
5, 123644, Note_off_c, 3, 43, 0
5, 123648, Note_on_c, 3, 57, 68
5, 123648, Note_on_c, 3, 45, 68
5, 124412, Note_off_c, 3, 57, 0
5, 124412, Note_off_c, 3, 45, 0
5, 124416, Note_on_c, 3, 57, 68
5, 124416, Note_on_c, 3, 50, 68
5, 125180, Note_off_c, 3, 57, 0
5, 125180, Note_off_c, 3, 50, 0
5, 127104, Note_on_c, 3, 61, 68
5, 127292, Note_off_c, 3, 61, 0
5, 127296, Note_on_c, 3, 57, 68
5, 127484, Note_off_c, 3, 57, 0
5, 127488, Note_on_c, 3, 62, 68
5, 127868, Note_off_c, 3, 62, 0
5, 127872, Note_on_c, 3, 62, 68
5, 128252, Note_off_c, 3, 62, 0
5, 128256, Note_on_c, 3, 62, 68
5, 128636, Note_off_c, 3, 62, 0
5, 128640, Note_on_c, 3, 62, 68
5, 129020, Note_off_c, 3, 62, 0
5, 129024, Note_on_c, 3, 61, 68
5, 129788, Note_off_c, 3, 61, 0
5, 130176, Note_on_c, 3, 61, 68
5, 130364, Note_off_c, 3, 61, 0
5, 130368, Note_on_c, 3, 57, 68
5, 130556, Note_off_c, 3, 57, 0
5, 130560, Note_on_c, 3, 60, 68
5, 130748, Note_off_c, 3, 60, 0
5, 130752, Note_on_c, 3, 60, 68
5, 130940, Note_off_c, 3, 60, 0
5, 130944, Note_on_c, 3, 60, 68
5, 131132, Note_off_c, 3, 60, 0
5, 131136, Note_on_c, 3, 60, 68
5, 131324, Note_off_c, 3, 60, 0
5, 131328, Note_on_c, 3, 60, 68
5, 131516, Note_off_c, 3, 60, 0
5, 131520, Note_on_c, 3, 60, 68
5, 131708, Note_off_c, 3, 60, 0
5, 131712, Note_on_c, 3, 60, 68
5, 131900, Note_off_c, 3, 60, 0
5, 131904, Note_on_c, 3, 60, 68
5, 132092, Note_off_c, 3, 60, 0
5, 132096, Note_on_c, 3, 59, 68
5, 132096, Note_on_c, 3, 47, 68
5, 132476, Note_off_c, 3, 59, 0
5, 132476, Note_off_c, 3, 47, 0
5, 132480, Note_on_c, 3, 64, 68
5, 132480, Note_on_c, 3, 52, 68
5, 132860, Note_off_c, 3, 64, 0
5, 132860, Note_off_c, 3, 52, 0
5, 132864, Note_on_c, 3, 57, 68
5, 132864, Note_on_c, 3, 45, 68
5, 133244, Note_off_c, 3, 57, 0
5, 133244, Note_off_c, 3, 45, 0
5, 133248, Note_on_c, 3, 62, 68
5, 133248, Note_on_c, 3, 50, 68
5, 133628, Note_off_c, 3, 62, 0
5, 133628, Note_off_c, 3, 50, 0
5, 133632, Note_on_c, 3, 55, 68
5, 133632, Note_on_c, 3, 43, 68
5, 134012, Note_off_c, 3, 55, 0
5, 134012, Note_off_c, 3, 43, 0
5, 134016, Note_on_c, 3, 59, 68
5, 134016, Note_on_c, 3, 47, 68
5, 134384, Note_on_c, 3, 48, 68
5, 134396, Note_off_c, 3, 59, 0
5, 134396, Note_off_c, 3, 47, 0
5, 134400, Note_on_c, 3, 60, 68
5, 134764, Note_off_c, 3, 48, 0
5, 134780, Note_off_c, 3, 60, 0
5, 134784, Note_on_c, 3, 62, 68
5, 134784, Note_on_c, 3, 50, 68
5, 135164, Note_off_c, 3, 62, 0
5, 135164, Note_off_c, 3, 50, 0
5, 135168, Note_on_c, 3, 64, 68
5, 135168, Note_on_c, 3, 52, 68
5, 135548, Note_off_c, 3, 64, 0
5, 135548, Note_off_c, 3, 52, 0
5, 135552, Note_on_c, 3, 61, 68
5, 135552, Note_on_c, 3, 49, 68
5, 135932, Note_off_c, 3, 61, 0
5, 135932, Note_off_c, 3, 49, 0
5, 135936, Note_on_c, 3, 62, 68
5, 135936, Note_on_c, 3, 50, 68
5, 136316, Note_off_c, 3, 62, 0
5, 136316, Note_off_c, 3, 50, 0
5, 136320, Note_on_c, 3, 62, 68
5, 136320, Note_on_c, 3, 50, 68
5, 136700, Note_off_c, 3, 62, 0
5, 136700, Note_off_c, 3, 50, 0
5, 136704, Note_on_c, 3, 55, 68
5, 136704, Note_on_c, 3, 43, 68
5, 137468, Note_off_c, 3, 55, 0
5, 137468, Note_off_c, 3, 43, 0
5, 138240, Note_on_c, 3, 49, 68
5, 139004, Note_off_c, 3, 49, 0
5, 139392, Note_on_c, 3, 49, 68
5, 139580, Note_off_c, 3, 49, 0
5, 139584, Note_on_c, 3, 45, 68
5, 139772, Note_off_c, 3, 45, 0
5, 139776, Note_on_c, 3, 50, 68
5, 140156, Note_off_c, 3, 50, 0
5, 140160, Note_on_c, 3, 50, 68
5, 140540, Note_off_c, 3, 50, 0
5, 140544, Note_on_c, 3, 50, 68
5, 140924, Note_off_c, 3, 50, 0
5, 140928, Note_on_c, 3, 50, 68
5, 141308, Note_off_c, 3, 50, 0
5, 141312, Note_on_c, 3, 49, 68
5, 142076, Note_off_c, 3, 49, 0
5, 142464, Note_on_c, 3, 49, 87
5, 142652, Note_off_c, 3, 49, 0
5, 142656, Note_on_c, 3, 45, 87
5, 142844, Note_off_c, 3, 45, 0
5, 142848, Note_on_c, 3, 50, 83
5, 143036, Note_off_c, 3, 50, 0
5, 143040, Note_on_c, 3, 50, 80
5, 143228, Note_off_c, 3, 50, 0
5, 143232, Note_on_c, 3, 50, 75
5, 143420, Note_off_c, 3, 50, 0
5, 143424, Note_on_c, 3, 50, 71
5, 143612, Note_off_c, 3, 50, 0
5, 143616, Note_on_c, 3, 50, 68
5, 143804, Note_off_c, 3, 50, 0
5, 143808, Note_on_c, 3, 50, 68
5, 143996, Note_off_c, 3, 50, 0
5, 144000, Note_on_c, 3, 50, 70
5, 144188, Note_off_c, 3, 50, 0
5, 144192, Note_on_c, 3, 48, 71
5, 144380, Note_off_c, 3, 48, 0
5, 144384, Note_on_c, 3, 47, 73
5, 145148, Note_off_c, 3, 47, 0
5, 145152, Note_on_c, 3, 45, 81
5, 145916, Note_off_c, 3, 45, 0
5, 145920, Note_on_c, 3, 43, 87
5, 146684, Note_off_c, 3, 43, 0
5, 146688, Note_on_c, 3, 48, 87
5, 147452, Note_off_c, 3, 48, 0
5, 147456, Note_on_c, 3, 59, 81
5, 147456, Note_on_c, 3, 50, 81
5, 148220, Note_off_c, 3, 59, 0
5, 148220, Note_off_c, 3, 50, 0
5, 148224, Note_on_c, 3, 50, 75
5, 148224, Note_on_c, 3, 57, 75
5, 148412, Note_off_c, 3, 57, 0
5, 148416, Note_on_c, 3, 59, 68
5, 148604, Note_off_c, 3, 59, 0
5, 148624, Note_on_c, 3, 60, 68
5, 148800, Note_on_c, 3, 57, 68
5, 148812, Note_off_c, 3, 60, 0
5, 148988, Note_off_c, 3, 50, 0
5, 148988, Note_off_c, 3, 57, 0
5, 148992, Note_on_c, 3, 43, 68
5, 149756, Note_off_c, 3, 43, 0
5, 150528, Note_on_c, 3, 55, 76
5, 150720, Note_on_c, 3, 62, 76
5, 150720, Note_on_c, 3, 59, 76
5, 150908, Note_off_c, 3, 55, 0
5, 150908, Note_off_c, 3, 62, 0
5, 150908, Note_off_c, 3, 59, 0
5, 150912, Note_on_c, 3, 62, 76
5, 150912, Note_on_c, 3, 59, 76
5, 151100, Note_off_c, 3, 62, 0
5, 151100, Note_off_c, 3, 59, 0
5, 151104, Note_on_c, 3, 62, 76
5, 151104, Note_on_c, 3, 59, 76
5, 151280, Note_on_c, 3, 59, 76
5, 151292, Note_off_c, 3, 62, 0
5, 151292, Note_off_c, 3, 59, 0
5, 151296, Note_on_c, 3, 62, 76
5, 151468, Note_off_c, 3, 59, 0
5, 151484, Note_off_c, 3, 62, 0
5, 151488, Note_on_c, 3, 62, 76
5, 151488, Note_on_c, 3, 59, 76
5, 151676, Note_off_c, 3, 62, 0
5, 151676, Note_off_c, 3, 59, 0
5, 151680, Note_on_c, 3, 62, 76
5, 151680, Note_on_c, 3, 59, 76
5, 151868, Note_off_c, 3, 62, 0
5, 151868, Note_off_c, 3, 59, 0
5, 151872, Note_on_c, 3, 62, 76
5, 151872, Note_on_c, 3, 59, 76
5, 152060, Note_off_c, 3, 62, 0
5, 152060, Note_off_c, 3, 59, 0
5, 152064, Note_on_c, 3, 50, 76
5, 152256, Note_on_c, 3, 62, 76
5, 152256, Note_on_c, 3, 60, 76
5, 152256, Note_on_c, 3, 57, 76
5, 152444, Note_off_c, 3, 50, 0
5, 152444, Note_off_c, 3, 62, 0
5, 152444, Note_off_c, 3, 60, 0
5, 152444, Note_off_c, 3, 57, 0
5, 152448, Note_on_c, 3, 62, 76
5, 152448, Note_on_c, 3, 60, 76
5, 152448, Note_on_c, 3, 57, 76
5, 152636, Note_off_c, 3, 62, 0
5, 152636, Note_off_c, 3, 60, 0
5, 152636, Note_off_c, 3, 57, 0
5, 152640, Note_on_c, 3, 62, 76
5, 152640, Note_on_c, 3, 57, 76
5, 152640, Note_on_c, 3, 60, 76
5, 152828, Note_off_c, 3, 62, 0
5, 152828, Note_off_c, 3, 57, 0
5, 152828, Note_off_c, 3, 60, 0
5, 152832, Note_on_c, 3, 62, 76
5, 152832, Note_on_c, 3, 60, 76
5, 152832, Note_on_c, 3, 57, 76
5, 153020, Note_off_c, 3, 62, 0
5, 153020, Note_off_c, 3, 60, 0
5, 153020, Note_off_c, 3, 57, 0
5, 153024, Note_on_c, 3, 62, 76
5, 153024, Note_on_c, 3, 60, 76
5, 153024, Note_on_c, 3, 57, 76
5, 153212, Note_off_c, 3, 62, 0
5, 153212, Note_off_c, 3, 60, 0
5, 153212, Note_off_c, 3, 57, 0
5, 153216, Note_on_c, 3, 62, 76
5, 153216, Note_on_c, 3, 60, 76
5, 153216, Note_on_c, 3, 57, 76
5, 153404, Note_off_c, 3, 62, 0
5, 153404, Note_off_c, 3, 60, 0
5, 153404, Note_off_c, 3, 57, 0
5, 153408, Note_on_c, 3, 62, 76
5, 153408, Note_on_c, 3, 57, 76
5, 153408, Note_on_c, 3, 60, 76
5, 153596, Note_off_c, 3, 62, 0
5, 153596, Note_off_c, 3, 57, 0
5, 153596, Note_off_c, 3, 60, 0
5, 153600, Note_on_c, 3, 50, 76
5, 153792, Note_on_c, 3, 54, 76
5, 153792, Note_on_c, 3, 62, 76
5, 153792, Note_on_c, 3, 57, 76
5, 153980, Note_off_c, 3, 50, 0
5, 153980, Note_off_c, 3, 54, 0
5, 153980, Note_off_c, 3, 62, 0
5, 153980, Note_off_c, 3, 57, 0
5, 153984, Note_on_c, 3, 62, 76
5, 153984, Note_on_c, 3, 57, 76
5, 153984, Note_on_c, 3, 54, 76
5, 154172, Note_off_c, 3, 62, 0
5, 154172, Note_off_c, 3, 57, 0
5, 154172, Note_off_c, 3, 54, 0
5, 154176, Note_on_c, 3, 62, 76
5, 154176, Note_on_c, 3, 57, 76
5, 154176, Note_on_c, 3, 54, 76
5, 154364, Note_off_c, 3, 62, 0
5, 154364, Note_off_c, 3, 57, 0
5, 154364, Note_off_c, 3, 54, 0
5, 154368, Note_on_c, 3, 62, 76
5, 154368, Note_on_c, 3, 57, 76
5, 154368, Note_on_c, 3, 54, 76
5, 154556, Note_off_c, 3, 62, 0
5, 154556, Note_off_c, 3, 57, 0
5, 154556, Note_off_c, 3, 54, 0
5, 154560, Note_on_c, 3, 62, 76
5, 154560, Note_on_c, 3, 57, 76
5, 154560, Note_on_c, 3, 54, 76
5, 154748, Note_off_c, 3, 62, 0
5, 154748, Note_off_c, 3, 57, 0
5, 154748, Note_off_c, 3, 54, 0
5, 154752, Note_on_c, 3, 62, 76
5, 154752, Note_on_c, 3, 57, 76
5, 154752, Note_on_c, 3, 54, 76
5, 154940, Note_off_c, 3, 62, 0
5, 154940, Note_off_c, 3, 57, 0
5, 154940, Note_off_c, 3, 54, 0
5, 154944, Note_on_c, 3, 62, 76
5, 154944, Note_on_c, 3, 57, 76
5, 154944, Note_on_c, 3, 54, 76
5, 155132, Note_off_c, 3, 62, 0
5, 155132, Note_off_c, 3, 57, 0
5, 155132, Note_off_c, 3, 54, 0
5, 155136, Note_on_c, 3, 43, 76
5, 155328, Note_on_c, 3, 59, 76
5, 155328, Note_on_c, 3, 62, 76
5, 155516, Note_off_c, 3, 43, 0
5, 155516, Note_off_c, 3, 59, 0
5, 155516, Note_off_c, 3, 62, 0
5, 155520, Note_on_c, 3, 59, 76
5, 155520, Note_on_c, 3, 62, 76
5, 155708, Note_off_c, 3, 59, 0
5, 155708, Note_off_c, 3, 62, 0
5, 155712, Note_on_c, 3, 59, 76
5, 155712, Note_on_c, 3, 62, 76
5, 155900, Note_off_c, 3, 59, 0
5, 155900, Note_off_c, 3, 62, 0
5, 155904, Note_on_c, 3, 55, 76
5, 156096, Note_on_c, 3, 59, 76
5, 156284, Note_off_c, 3, 55, 0
5, 156284, Note_off_c, 3, 59, 0
5, 156288, Note_on_c, 3, 59, 76
5, 156288, Note_on_c, 3, 62, 76
5, 156476, Note_off_c, 3, 59, 0
5, 156476, Note_off_c, 3, 62, 0
5, 156480, Note_on_c, 3, 59, 76
5, 156480, Note_on_c, 3, 62, 76
5, 156668, Note_off_c, 3, 59, 0
5, 156668, Note_off_c, 3, 62, 0
5, 156672, Note_on_c, 3, 54, 76
5, 156864, Note_on_c, 3, 62, 76
5, 156864, Note_on_c, 3, 66, 76
5, 156864, Note_on_c, 3, 57, 76
5, 157052, Note_off_c, 3, 54, 0
5, 157052, Note_off_c, 3, 62, 0
5, 157052, Note_off_c, 3, 66, 0
5, 157052, Note_off_c, 3, 57, 0
5, 157056, Note_on_c, 3, 57, 76
5, 157056, Note_on_c, 3, 62, 76
5, 157056, Note_on_c, 3, 66, 76
5, 157244, Note_off_c, 3, 57, 0
5, 157244, Note_off_c, 3, 62, 0
5, 157244, Note_off_c, 3, 66, 0
5, 157248, Note_on_c, 3, 57, 76
5, 157248, Note_on_c, 3, 62, 76
5, 157248, Note_on_c, 3, 66, 76
5, 157436, Note_off_c, 3, 57, 0
5, 157436, Note_off_c, 3, 62, 0
5, 157436, Note_off_c, 3, 66, 0
5, 157440, Note_on_c, 3, 57, 76
5, 157440, Note_on_c, 3, 62, 76
5, 157440, Note_on_c, 3, 66, 76
5, 157628, Note_off_c, 3, 57, 0
5, 157628, Note_off_c, 3, 62, 0
5, 157628, Note_off_c, 3, 66, 0
5, 157632, Note_on_c, 3, 57, 76
5, 157632, Note_on_c, 3, 62, 76
5, 157632, Note_on_c, 3, 66, 76
5, 157820, Note_off_c, 3, 57, 0
5, 157820, Note_off_c, 3, 62, 0
5, 157820, Note_off_c, 3, 66, 0
5, 157824, Note_on_c, 3, 57, 76
5, 157824, Note_on_c, 3, 62, 76
5, 157824, Note_on_c, 3, 66, 76
5, 158012, Note_off_c, 3, 57, 0
5, 158012, Note_off_c, 3, 62, 0
5, 158012, Note_off_c, 3, 66, 0
5, 158016, Note_on_c, 3, 57, 76
5, 158016, Note_on_c, 3, 62, 76
5, 158016, Note_on_c, 3, 66, 76
5, 158204, Note_off_c, 3, 57, 0
5, 158204, Note_off_c, 3, 62, 0
5, 158204, Note_off_c, 3, 66, 0
5, 158208, Note_on_c, 3, 49, 76
5, 158400, Note_on_c, 3, 64, 76
5, 158588, Note_off_c, 3, 64, 0
5, 158592, Note_on_c, 3, 64, 76
5, 158592, Note_on_c, 3, 67, 76
5, 158780, Note_off_c, 3, 64, 0
5, 158780, Note_off_c, 3, 67, 0
5, 158784, Note_on_c, 3, 64, 76
5, 158784, Note_on_c, 3, 67, 76
5, 158972, Note_off_c, 3, 49, 0
5, 158972, Note_off_c, 3, 64, 0
5, 158972, Note_off_c, 3, 67, 0
5, 158976, Note_on_c, 3, 50, 76
5, 159168, Note_on_c, 3, 64, 76
5, 159168, Note_on_c, 3, 67, 76
5, 159356, Note_off_c, 3, 64, 0
5, 159356, Note_off_c, 3, 67, 0
5, 159360, Note_on_c, 3, 66, 76
5, 159360, Note_on_c, 3, 62, 76
5, 159548, Note_off_c, 3, 66, 0
5, 159548, Note_off_c, 3, 62, 0
5, 159552, Note_on_c, 3, 66, 76
5, 159552, Note_on_c, 3, 62, 76
5, 159740, Note_off_c, 3, 50, 0
5, 159740, Note_off_c, 3, 66, 0
5, 159740, Note_off_c, 3, 62, 0
5, 159744, Note_on_c, 3, 64, 76
5, 159744, Note_on_c, 3, 59, 76
5, 159744, Note_on_c, 3, 55, 76
5, 160124, Note_off_c, 3, 64, 0
5, 160124, Note_off_c, 3, 59, 0
5, 160124, Note_off_c, 3, 55, 0
5, 160896, Note_on_c, 3, 64, 76
5, 160896, Note_on_c, 3, 57, 76
5, 161276, Note_off_c, 3, 64, 0
5, 161276, Note_off_c, 3, 57, 0
5, 161280, Note_on_c, 3, 61, 76
5, 161280, Note_on_c, 3, 57, 76
5, 161280, Note_on_c, 3, 50, 76
5, 161660, Note_off_c, 3, 61, 0
5, 161664, Note_on_c, 3, 62, 76
5, 162044, Note_off_c, 3, 57, 0
5, 162044, Note_off_c, 3, 50, 0
5, 162044, Note_off_c, 3, 62, 0
5, 162048, Note_on_c, 3, 50, 68
5, 162428, Note_off_c, 3, 50, 0
5, 162816, Note_on_c, 3, 62, 68
5, 162816, Note_on_c, 3, 55, 68
5, 163196, Note_off_c, 3, 55, 0
5, 164348, Note_off_c, 3, 62, 0
5, 164352, Note_on_c, 3, 62, 68
5, 164352, Note_on_c, 3, 57, 68
5, 164352, Note_on_c, 3, 62, 68
5, 164732, Note_off_c, 3, 57, 0
5, 165504, Note_on_c, 3, 55, 68
5, 165884, Note_off_c, 3, 62, 0
5, 165884, Note_off_c, 3, 55, 0
5, 165888, Note_on_c, 3, 62, 68
5, 165888, Note_on_c, 3, 54, 68
5, 166268, Note_off_c, 3, 54, 0
5, 166652, Note_off_c, 3, 62, 0
5, 167424, Note_on_c, 3, 55, 68
5, 167424, Note_on_c, 3, 62, 68
5, 167424, Note_on_c, 3, 55, 68
5, 167804, Note_off_c, 3, 55, 0
5, 167804, Note_off_c, 3, 55, 0
5, 168188, Note_off_c, 3, 62, 0
5, 168960, Note_on_c, 3, 54, 68
5, 169724, Note_off_c, 3, 62, 0
5, 169728, Note_on_c, 3, 59, 68
5, 170492, Note_off_c, 3, 54, 0
5, 170492, Note_off_c, 3, 59, 0
5, 170496, Note_on_c, 3, 59, 68
5, 170496, Note_on_c, 3, 52, 68
5, 170876, Note_off_c, 3, 59, 0
5, 170876, Note_off_c, 3, 52, 0
5, 170880, Note_on_c, 3, 57, 68
5, 170880, Note_on_c, 3, 57, 68
5, 171164, Note_off_c, 3, 57, 0
5, 171168, Note_on_c, 3, 61, 68
5, 171260, Note_off_c, 3, 57, 0
5, 171260, Note_off_c, 3, 61, 0
5, 171264, Note_on_c, 3, 58, 68
5, 171264, Note_on_c, 3, 64, 68
5, 171644, Note_off_c, 3, 58, 0
5, 171644, Note_off_c, 3, 64, 0
5, 171648, Note_on_c, 3, 59, 68
5, 171648, Note_on_c, 3, 62, 68
5, 172028, Note_off_c, 3, 59, 0
5, 172028, Note_off_c, 3, 62, 0
5, 172032, Note_on_c, 3, 64, 68
5, 172032, Note_on_c, 3, 55, 68
5, 172412, Note_off_c, 3, 64, 0
5, 172412, Note_off_c, 3, 55, 0
5, 176064, Note_on_c, 3, 57, 68
5, 176252, Note_off_c, 3, 57, 0
5, 176256, Note_on_c, 3, 61, 68
5, 176444, Note_off_c, 3, 61, 0
5, 176448, Note_on_c, 3, 57, 68
5, 176636, Note_off_c, 3, 57, 0
5, 176640, Note_on_c, 3, 50, 68
5, 177020, Note_off_c, 3, 50, 0
5, 177024, Note_on_c, 3, 62, 68
5, 177404, Note_off_c, 3, 62, 0
5, 177408, Note_on_c, 3, 62, 68
5, 177788, Note_off_c, 3, 62, 0
5, 177792, Note_on_c, 3, 62, 68
5, 178172, Note_off_c, 3, 62, 0
5, 178176, Note_on_c, 3, 61, 68
5, 178940, Note_off_c, 3, 61, 0
5, 179136, Note_on_c, 3, 57, 68
5, 179324, Note_off_c, 3, 57, 0
5, 179328, Note_on_c, 3, 61, 68
5, 179516, Note_off_c, 3, 61, 0
5, 179520, Note_on_c, 3, 57, 68
5, 179708, Note_off_c, 3, 57, 0
5, 179712, Note_on_c, 3, 48, 68
5, 179712, Note_on_c, 3, 48, 68
5, 179900, Note_off_c, 3, 48, 0
5, 179904, Note_on_c, 3, 60, 68
5, 180092, Note_off_c, 3, 60, 0
5, 180096, Note_on_c, 3, 60, 68
5, 180284, Note_off_c, 3, 60, 0
5, 180288, Note_on_c, 3, 60, 68
5, 180476, Note_off_c, 3, 48, 0
5, 180476, Note_off_c, 3, 60, 0
5, 181248, Note_on_c, 3, 59, 68
5, 181248, Note_on_c, 3, 62, 68
5, 182012, Note_off_c, 3, 59, 0
5, 182012, Note_off_c, 3, 62, 0
5, 182016, Note_on_c, 3, 54, 68
5, 182016, Note_on_c, 3, 60, 68
5, 182780, Note_off_c, 3, 54, 0
5, 182780, Note_off_c, 3, 60, 0
5, 182784, Note_on_c, 3, 62, 68
5, 182784, Note_on_c, 3, 59, 68
5, 182784, Note_on_c, 3, 55, 68
5, 183548, Note_off_c, 3, 62, 0
5, 183548, Note_off_c, 3, 59, 0
5, 183548, Note_off_c, 3, 55, 0
5, 183552, Note_on_c, 3, 57, 68
5, 183552, Note_on_c, 3, 52, 68
5, 183552, Note_on_c, 3, 48, 68
5, 184316, Note_off_c, 3, 57, 0
5, 184316, Note_off_c, 3, 52, 0
5, 184316, Note_off_c, 3, 48, 0
5, 184320, Note_on_c, 3, 59, 68
5, 184320, Note_on_c, 3, 55, 68
5, 184320, Note_on_c, 3, 50, 68
5, 184700, Note_off_c, 3, 50, 0
5, 184704, Note_on_c, 3, 50, 68
5, 185084, Note_off_c, 3, 59, 0
5, 185084, Note_off_c, 3, 55, 0
5, 185084, Note_off_c, 3, 50, 0
5, 185088, Note_on_c, 3, 60, 68
5, 185088, Note_on_c, 3, 50, 68
5, 185088, Note_on_c, 3, 57, 68
5, 185468, Note_off_c, 3, 50, 0
5, 185472, Note_on_c, 3, 50, 68
5, 185852, Note_off_c, 3, 60, 0
5, 185852, Note_off_c, 3, 57, 0
5, 185852, Note_off_c, 3, 50, 0
5, 185856, Note_on_c, 3, 59, 68
5, 185856, Note_on_c, 3, 55, 68
5, 186236, Note_off_c, 3, 59, 0
5, 186236, Note_off_c, 3, 55, 0
5, 186240, Note_on_c, 3, 55, 68
5, 186240, Note_on_c, 3, 43, 68
5, 186620, Note_off_c, 3, 55, 0
5, 186620, Note_off_c, 3, 43, 0
5, 186624, Note_on_c, 3, 43, 68
5, 186624, Note_on_c, 3, 31, 68
5, 187004, Note_off_c, 3, 43, 0
5, 187004, Note_off_c, 3, 31, 0
5, 187392, Note_on_c, 3, 67, 68
5, 187392, Note_on_c, 3, 64, 68
5, 187392, Note_on_c, 3, 61, 68
5, 187772, Note_off_c, 3, 64, 0
5, 187772, Note_off_c, 3, 61, 0
5, 187776, Note_on_c, 3, 59, 68
5, 187776, Note_on_c, 3, 62, 68
5, 188156, Note_off_c, 3, 59, 0
5, 188156, Note_off_c, 3, 62, 0
5, 188160, Note_on_c, 3, 57, 68
5, 188160, Note_on_c, 3, 61, 68
5, 188540, Note_off_c, 3, 57, 0
5, 188540, Note_off_c, 3, 61, 0
5, 188544, Note_on_c, 3, 61, 68
5, 188544, Note_on_c, 3, 64, 68
5, 188924, Note_off_c, 3, 67, 0
5, 188924, Note_off_c, 3, 61, 0
5, 188924, Note_off_c, 3, 64, 0
5, 190464, Note_on_c, 3, 67, 70
5, 190464, Note_on_c, 3, 64, 70
5, 190464, Note_on_c, 3, 61, 70
5, 190844, Note_off_c, 3, 64, 0
5, 190844, Note_off_c, 3, 61, 0
5, 190848, Note_on_c, 3, 59, 73
5, 190848, Note_on_c, 3, 62, 73
5, 191228, Note_off_c, 3, 59, 0
5, 191228, Note_off_c, 3, 62, 0
5, 191232, Note_on_c, 3, 57, 78
5, 191232, Note_on_c, 3, 61, 78
5, 191612, Note_off_c, 3, 57, 0
5, 191612, Note_off_c, 3, 61, 0
5, 191616, Note_on_c, 3, 61, 82
5, 191616, Note_on_c, 3, 64, 82
5, 191996, Note_off_c, 3, 67, 0
5, 191996, Note_off_c, 3, 61, 0
5, 191996, Note_off_c, 3, 64, 0
5, 193536, Note_on_c, 3, 67, 70
5, 193536, Note_on_c, 3, 62, 70
5, 193536, Note_on_c, 3, 59, 70
5, 193916, Note_off_c, 3, 67, 0
5, 193916, Note_off_c, 3, 62, 0
5, 193916, Note_off_c, 3, 59, 0
5, 193920, Note_on_c, 3, 56, 68
5, 194300, Note_off_c, 3, 56, 0
5, 194304, Note_on_c, 3, 57, 68
5, 194684, Note_off_c, 3, 57, 0
5, 194688, Note_on_c, 3, 54, 93
5, 195068, Note_off_c, 3, 54, 0
5, 195072, Note_on_c, 3, 55, 93
5, 195452, Note_off_c, 3, 55, 0
5, 195456, Note_on_c, 3, 47, 93
5, 195836, Note_off_c, 3, 47, 0
5, 195840, Note_on_c, 3, 48, 87
5, 196220, Note_off_c, 3, 48, 0
5, 196224, Note_on_c, 3, 50, 77
5, 196604, Note_off_c, 3, 50, 0
5, 196608, Note_on_c, 3, 52, 68
5, 196988, Note_off_c, 3, 52, 0
5, 199680, Note_on_c, 3, 43, 56
5, 200444, Note_off_c, 3, 43, 0
5, 200448, Note_on_c, 3, 58, 56
5, 201212, Note_off_c, 3, 58, 0
5, 201216, Note_on_c, 3, 60, 56
5, 201216, Note_on_c, 3, 57, 56
5, 201980, Note_off_c, 3, 60, 0
5, 201980, Note_off_c, 3, 57, 0
5, 201984, Note_on_c, 3, 58, 56
5, 201984, Note_on_c, 3, 55, 56
5, 202748, Note_off_c, 3, 58, 0
5, 202748, Note_off_c, 3, 55, 0
5, 202752, Note_on_c, 3, 57, 56
5, 202752, Note_on_c, 3, 54, 56
5, 204284, Note_off_c, 3, 57, 0
5, 204284, Note_off_c, 3, 54, 0
5, 204672, Note_on_c, 3, 55, 56
5, 204672, Note_on_c, 3, 55, 56
5, 205052, Note_off_c, 3, 55, 0
5, 205056, Note_on_c, 3, 51, 56
5, 205436, Note_off_c, 3, 55, 0
5, 205436, Note_off_c, 3, 51, 0
5, 205440, Note_on_c, 3, 53, 56
5, 205440, Note_on_c, 3, 50, 56
5, 205820, Note_off_c, 3, 53, 0
5, 205820, Note_off_c, 3, 50, 0
5, 205824, Note_on_c, 3, 52, 56
5, 205824, Note_on_c, 3, 49, 56
5, 206588, Note_off_c, 3, 52, 0
5, 206588, Note_off_c, 3, 49, 0
5, 206592, Note_on_c, 3, 53, 56
5, 206592, Note_on_c, 3, 50, 56
5, 207356, Note_off_c, 3, 53, 0
5, 207356, Note_off_c, 3, 50, 0
5, 207360, Note_on_c, 3, 61, 56
5, 207360, Note_on_c, 3, 52, 56
5, 208124, Note_off_c, 3, 61, 0
5, 208124, Note_off_c, 3, 52, 0
5, 208128, Note_on_c, 3, 62, 56
5, 208128, Note_on_c, 3, 53, 56
5, 208892, Note_off_c, 3, 62, 0
5, 208892, Note_off_c, 3, 53, 0
5, 208896, Note_on_c, 3, 55, 56
5, 208896, Note_on_c, 3, 43, 56
5, 209276, Note_off_c, 3, 55, 0
5, 209280, Note_on_c, 3, 53, 56
5, 209660, Note_off_c, 3, 43, 0
5, 209664, Note_on_c, 3, 45, 56
5, 210044, Note_off_c, 3, 53, 0
5, 210048, Note_on_c, 3, 52, 56
5, 210428, Note_off_c, 3, 45, 0
5, 210428, Note_off_c, 3, 52, 0
5, 210432, Note_on_c, 3, 52, 56
5, 210812, Note_off_c, 3, 52, 0
5, 210816, Note_on_c, 3, 50, 56
5, 210816, Note_on_c, 3, 38, 56
5, 211196, Note_off_c, 3, 50, 0
5, 211196, Note_off_c, 3, 38, 0
5, 211200, Note_on_c, 3, 38, 68
5, 211580, Note_off_c, 3, 38, 0
5, 224256, Note_on_c, 3, 52, 56
5, 224256, Note_on_c, 3, 49, 56
5, 224636, Note_off_c, 3, 52, 0
5, 224636, Note_off_c, 3, 49, 0
5, 225008, Note_on_c, 3, 49, 56
5, 225024, Note_on_c, 3, 52, 56
5, 225388, Note_off_c, 3, 49, 0
5, 225392, Note_on_c, 3, 57, 56
5, 225404, Note_off_c, 3, 52, 0
5, 225792, Note_on_c, 3, 50, 56
5, 226156, Note_off_c, 3, 57, 0
5, 226544, Note_on_c, 3, 50, 56
5, 226556, Note_off_c, 3, 50, 0
5, 226560, Note_on_c, 3, 53, 56
5, 227308, Note_off_c, 3, 50, 0
5, 227324, Note_off_c, 3, 53, 0
5, 227328, Note_on_c, 3, 49, 56
5, 227696, Note_on_c, 3, 55, 56
5, 228092, Note_off_c, 3, 49, 0
5, 228096, Note_on_c, 3, 48, 56
5, 228460, Note_off_c, 3, 55, 0
5, 228480, Note_on_c, 3, 54, 56
5, 228860, Note_off_c, 3, 48, 0
5, 228860, Note_off_c, 3, 54, 0
5, 228864, Note_on_c, 3, 55, 56
5, 228864, Note_on_c, 3, 48, 56
5, 228864, Note_on_c, 3, 45, 56
5, 229244, Note_off_c, 3, 55, 0
5, 229248, Note_on_c, 3, 54, 56
5, 229628, Note_off_c, 3, 48, 0
5, 229628, Note_off_c, 3, 45, 0
5, 229632, Note_on_c, 3, 44, 56
5, 230012, Note_off_c, 3, 54, 0
5, 230016, Note_on_c, 3, 53, 56
5, 230396, Note_off_c, 3, 44, 0
5, 230396, Note_off_c, 3, 53, 0
5, 230400, Note_on_c, 3, 50, 56
5, 230400, Note_on_c, 3, 43, 56
5, 231164, Note_off_c, 3, 50, 0
5, 231164, Note_off_c, 3, 43, 0
5, 231168, Note_on_c, 3, 62, 56
5, 231168, Note_on_c, 3, 53, 56
5, 231932, Note_off_c, 3, 62, 0
5, 231932, Note_off_c, 3, 53, 0
5, 231936, Note_on_c, 3, 64, 56
5, 231936, Note_on_c, 3, 52, 56
5, 232320, Note_on_c, 3, 55, 56
5, 232688, Note_on_c, 3, 55, 56
5, 232700, Note_off_c, 3, 64, 0
5, 232700, Note_off_c, 3, 52, 0
5, 232700, Note_off_c, 3, 55, 0
5, 232704, Note_on_c, 3, 51, 56
5, 233088, Note_on_c, 3, 61, 56
5, 233468, Note_off_c, 3, 51, 0
5, 233468, Note_off_c, 3, 61, 0
5, 233472, Note_on_c, 3, 62, 56
5, 233472, Note_on_c, 3, 50, 56
5, 234220, Note_off_c, 3, 55, 0
5, 234236, Note_off_c, 3, 62, 0
5, 234236, Note_off_c, 3, 50, 0
5, 234240, Note_on_c, 3, 50, 56
5, 234240, Note_on_c, 3, 62, 56
5, 235004, Note_off_c, 3, 50, 0
5, 235392, Note_on_c, 3, 55, 56
5, 235772, Note_off_c, 3, 62, 0
5, 235772, Note_off_c, 3, 55, 0
5, 235776, Note_on_c, 3, 43, 68
5, 236156, Note_off_c, 3, 43, 0
5, 238656, Note_on_c, 3, 58, 81
5, 239036, Note_off_c, 3, 58, 0
5, 239040, Note_on_c, 3, 57, 81
5, 239420, Note_off_c, 3, 57, 0
5, 239424, Note_on_c, 3, 56, 81
5, 239804, Note_off_c, 3, 56, 0
5, 239808, Note_on_c, 3, 57, 81
5, 239996, Note_off_c, 3, 57, 0
5, 241728, Note_on_c, 3, 63, 66
5, 242108, Note_off_c, 3, 63, 0
5, 242112, Note_on_c, 3, 62, 66
5, 242492, Note_off_c, 3, 62, 0
5, 242496, Note_on_c, 3, 61, 66
5, 242876, Note_off_c, 3, 61, 0
5, 242880, Note_on_c, 3, 62, 66
5, 243068, Note_off_c, 3, 62, 0
5, 248448, Note_on_c, 3, 50, 95
5, 248540, Note_off_c, 3, 50, 0
5, 248544, Note_on_c, 3, 48, 95
5, 248636, Note_off_c, 3, 48, 0
5, 248640, Note_on_c, 3, 47, 95
5, 248732, Note_off_c, 3, 47, 0
5, 248736, Note_on_c, 3, 45, 95
5, 248828, Note_off_c, 3, 45, 0
5, 248832, Note_on_c, 3, 43, 95
5, 249020, Note_off_c, 3, 43, 0
5, 249024, Note_on_c, 3, 59, 95
5, 249024, Note_on_c, 3, 55, 95
5, 249024, Note_on_c, 3, 50, 95
5, 249116, Note_off_c, 3, 59, 0
5, 249116, Note_off_c, 3, 55, 0
5, 249116, Note_off_c, 3, 50, 0
5, 249120, Note_on_c, 3, 62, 95
5, 249212, Note_off_c, 3, 62, 0
5, 249216, Note_on_c, 3, 59, 95
5, 249216, Note_on_c, 3, 55, 95
5, 249216, Note_on_c, 3, 50, 95
5, 249308, Note_off_c, 3, 59, 0
5, 249308, Note_off_c, 3, 55, 0
5, 249308, Note_off_c, 3, 50, 0
5, 249312, Note_on_c, 3, 62, 95
5, 249404, Note_off_c, 3, 62, 0
5, 249408, Note_on_c, 3, 59, 95
5, 249408, Note_on_c, 3, 55, 95
5, 249408, Note_on_c, 3, 50, 95
5, 249500, Note_off_c, 3, 59, 0
5, 249500, Note_off_c, 3, 55, 0
5, 249500, Note_off_c, 3, 50, 0
5, 249504, Note_on_c, 3, 62, 95
5, 249596, Note_off_c, 3, 62, 0
5, 249600, Note_on_c, 3, 59, 95
5, 249600, Note_on_c, 3, 55, 95
5, 249600, Note_on_c, 3, 50, 95
5, 249692, Note_off_c, 3, 59, 0
5, 249692, Note_off_c, 3, 55, 0
5, 249692, Note_off_c, 3, 50, 0
5, 249696, Note_on_c, 3, 62, 95
5, 249788, Note_off_c, 3, 62, 0
5, 249792, Note_on_c, 3, 59, 95
5, 249792, Note_on_c, 3, 55, 95
5, 249792, Note_on_c, 3, 50, 95
5, 249884, Note_off_c, 3, 59, 0
5, 249884, Note_off_c, 3, 55, 0
5, 249884, Note_off_c, 3, 50, 0
5, 249888, Note_on_c, 3, 62, 95
5, 249980, Note_off_c, 3, 62, 0
5, 249984, Note_on_c, 3, 59, 95
5, 249984, Note_on_c, 3, 55, 95
5, 249984, Note_on_c, 3, 50, 95
5, 250076, Note_off_c, 3, 59, 0
5, 250076, Note_off_c, 3, 55, 0
5, 250076, Note_off_c, 3, 50, 0
5, 250080, Note_on_c, 3, 62, 95
5, 250172, Note_off_c, 3, 62, 0
5, 250176, Note_on_c, 3, 59, 95
5, 250176, Note_on_c, 3, 55, 95
5, 250176, Note_on_c, 3, 50, 95
5, 250268, Note_off_c, 3, 59, 0
5, 250268, Note_off_c, 3, 55, 0
5, 250268, Note_off_c, 3, 50, 0
5, 250272, Note_on_c, 3, 62, 95
5, 250364, Note_off_c, 3, 62, 0
5, 250368, Note_on_c, 3, 50, 95
5, 250460, Note_off_c, 3, 50, 0
5, 250464, Note_on_c, 3, 62, 95
5, 250556, Note_off_c, 3, 62, 0
5, 250560, Note_on_c, 3, 60, 95
5, 250560, Note_on_c, 3, 57, 95
5, 250652, Note_off_c, 3, 60, 0
5, 250652, Note_off_c, 3, 57, 0
5, 250656, Note_on_c, 3, 62, 95
5, 250748, Note_off_c, 3, 62, 0
5, 250752, Note_on_c, 3, 60, 95
5, 250752, Note_on_c, 3, 57, 95
5, 250752, Note_on_c, 3, 45, 95
5, 250844, Note_off_c, 3, 60, 0
5, 250844, Note_off_c, 3, 57, 0
5, 250844, Note_off_c, 3, 45, 0
5, 250848, Note_on_c, 3, 62, 95
5, 250848, Note_on_c, 3, 43, 95
5, 250940, Note_off_c, 3, 62, 0
5, 250940, Note_off_c, 3, 43, 0
5, 250944, Note_on_c, 3, 60, 95
5, 250944, Note_on_c, 3, 57, 95
5, 250944, Note_on_c, 3, 42, 95
5, 251036, Note_off_c, 3, 60, 0
5, 251036, Note_off_c, 3, 57, 0
5, 251036, Note_off_c, 3, 42, 0
5, 251040, Note_on_c, 3, 62, 95
5, 251040, Note_on_c, 3, 40, 95
5, 251132, Note_off_c, 3, 62, 0
5, 251132, Note_off_c, 3, 40, 0
5, 251136, Note_on_c, 3, 50, 95
5, 251136, Note_on_c, 3, 38, 95
5, 251228, Note_off_c, 3, 50, 0
5, 251232, Note_on_c, 3, 62, 95
5, 251324, Note_off_c, 3, 62, 0
5, 251328, Note_on_c, 3, 60, 95
5, 251328, Note_on_c, 3, 57, 95
5, 251420, Note_off_c, 3, 60, 0
5, 251420, Note_off_c, 3, 57, 0
5, 251424, Note_on_c, 3, 62, 95
5, 251516, Note_off_c, 3, 38, 0
5, 251516, Note_off_c, 3, 62, 0
5, 251520, Note_on_c, 3, 50, 95
5, 251612, Note_off_c, 3, 50, 0
5, 251616, Note_on_c, 3, 62, 95
5, 251708, Note_off_c, 3, 62, 0
5, 251712, Note_on_c, 3, 60, 95
5, 251712, Note_on_c, 3, 57, 95
5, 251804, Note_off_c, 3, 60, 0
5, 251804, Note_off_c, 3, 57, 0
5, 251808, Note_on_c, 3, 62, 95
5, 251900, Note_off_c, 3, 62, 0
5, 251904, Note_on_c, 3, 50, 95
5, 251996, Note_off_c, 3, 50, 0
5, 252000, Note_on_c, 3, 62, 95
5, 252092, Note_off_c, 3, 62, 0
5, 252096, Note_on_c, 3, 57, 95
5, 252096, Note_on_c, 3, 54, 95
5, 252188, Note_off_c, 3, 57, 0
5, 252188, Note_off_c, 3, 54, 0
5, 252192, Note_on_c, 3, 62, 95
5, 252284, Note_off_c, 3, 62, 0
5, 252288, Note_on_c, 3, 50, 95
5, 252288, Note_on_c, 3, 45, 95
5, 252380, Note_off_c, 3, 50, 0
5, 252380, Note_off_c, 3, 45, 0
5, 252384, Note_on_c, 3, 62, 95
5, 252384, Note_on_c, 3, 43, 95
5, 252476, Note_off_c, 3, 62, 0
5, 252476, Note_off_c, 3, 43, 0
5, 252480, Note_on_c, 3, 57, 95
5, 252480, Note_on_c, 3, 54, 95
5, 252480, Note_on_c, 3, 42, 95
5, 252572, Note_off_c, 3, 57, 0
5, 252572, Note_off_c, 3, 54, 0
5, 252572, Note_off_c, 3, 42, 0
5, 252576, Note_on_c, 3, 62, 95
5, 252576, Note_on_c, 3, 40, 95
5, 252668, Note_off_c, 3, 62, 0
5, 252668, Note_off_c, 3, 40, 0
5, 252672, Note_on_c, 3, 50, 95
5, 252672, Note_on_c, 3, 38, 95
5, 252764, Note_off_c, 3, 50, 0
5, 252768, Note_on_c, 3, 62, 95
5, 252860, Note_off_c, 3, 62, 0
5, 252864, Note_on_c, 3, 57, 95
5, 252864, Note_on_c, 3, 54, 95
5, 252956, Note_off_c, 3, 57, 0
5, 252956, Note_off_c, 3, 54, 0
5, 252960, Note_on_c, 3, 62, 95
5, 253052, Note_off_c, 3, 38, 0
5, 253052, Note_off_c, 3, 62, 0
5, 253056, Note_on_c, 3, 50, 95
5, 253148, Note_off_c, 3, 50, 0
5, 253152, Note_on_c, 3, 62, 95
5, 253244, Note_off_c, 3, 62, 0
5, 253248, Note_on_c, 3, 57, 95
5, 253248, Note_on_c, 3, 54, 95
5, 253340, Note_off_c, 3, 57, 0
5, 253340, Note_off_c, 3, 54, 0
5, 253344, Note_on_c, 3, 62, 95
5, 253436, Note_off_c, 3, 62, 0
5, 253440, Note_on_c, 3, 50, 95
5, 253532, Note_off_c, 3, 50, 0
5, 253536, Note_on_c, 3, 62, 95
5, 253628, Note_off_c, 3, 62, 0
5, 253632, Note_on_c, 3, 59, 95
5, 253632, Note_on_c, 3, 55, 95
5, 253724, Note_off_c, 3, 59, 0
5, 253724, Note_off_c, 3, 55, 0
5, 253728, Note_on_c, 3, 62, 95
5, 253820, Note_off_c, 3, 62, 0
5, 253824, Note_on_c, 3, 59, 95
5, 253824, Note_on_c, 3, 55, 95
5, 253824, Note_on_c, 3, 50, 95
5, 253916, Note_off_c, 3, 59, 0
5, 253916, Note_off_c, 3, 55, 0
5, 253916, Note_off_c, 3, 50, 0
5, 253920, Note_on_c, 3, 62, 95
5, 253920, Note_on_c, 3, 48, 95
5, 254012, Note_off_c, 3, 62, 0
5, 254012, Note_off_c, 3, 48, 0
5, 254016, Note_on_c, 3, 59, 95
5, 254016, Note_on_c, 3, 55, 95
5, 254016, Note_on_c, 3, 47, 95
5, 254108, Note_off_c, 3, 59, 0
5, 254108, Note_off_c, 3, 55, 0
5, 254108, Note_off_c, 3, 47, 0
5, 254112, Note_on_c, 3, 45, 95
5, 254128, Note_on_c, 3, 62, 95
5, 254204, Note_off_c, 3, 45, 0
5, 254208, Note_on_c, 3, 50, 95
5, 254208, Note_on_c, 3, 43, 95
5, 254220, Note_off_c, 3, 62, 0
5, 254300, Note_off_c, 3, 50, 0
5, 254304, Note_on_c, 3, 62, 95
5, 254396, Note_off_c, 3, 62, 0
5, 254400, Note_on_c, 3, 59, 95
5, 254400, Note_on_c, 3, 55, 95
5, 254492, Note_off_c, 3, 59, 0
5, 254492, Note_off_c, 3, 55, 0
5, 254496, Note_on_c, 3, 62, 95
5, 254588, Note_off_c, 3, 43, 0
5, 254588, Note_off_c, 3, 62, 0
5, 254592, Note_on_c, 3, 50, 95
5, 254684, Note_off_c, 3, 50, 0
5, 254688, Note_on_c, 3, 62, 95
5, 254780, Note_off_c, 3, 62, 0
5, 254784, Note_on_c, 3, 59, 95
5, 254784, Note_on_c, 3, 55, 95
5, 254876, Note_off_c, 3, 59, 0
5, 254876, Note_off_c, 3, 55, 0
5, 254880, Note_on_c, 3, 62, 95
5, 254972, Note_off_c, 3, 62, 0
5, 254976, Note_on_c, 3, 50, 95
5, 255068, Note_off_c, 3, 50, 0
5, 255072, Note_on_c, 3, 62, 95
5, 255164, Note_off_c, 3, 62, 0
5, 255168, Note_on_c, 3, 57, 95
5, 255168, Note_on_c, 3, 54, 95
5, 255260, Note_off_c, 3, 57, 0
5, 255260, Note_off_c, 3, 54, 0
5, 255264, Note_on_c, 3, 62, 95
5, 255356, Note_off_c, 3, 62, 0
5, 255360, Note_on_c, 3, 57, 95
5, 255360, Note_on_c, 3, 54, 95
5, 255452, Note_off_c, 3, 57, 0
5, 255452, Note_off_c, 3, 54, 0
5, 255456, Note_on_c, 3, 62, 95
5, 255548, Note_off_c, 3, 62, 0
5, 255552, Note_on_c, 3, 57, 95
5, 255552, Note_on_c, 3, 54, 95
5, 255644, Note_off_c, 3, 57, 0
5, 255644, Note_off_c, 3, 54, 0
5, 255648, Note_on_c, 3, 62, 95
5, 255740, Note_off_c, 3, 62, 0
5, 255744, Note_on_c, 3, 50, 95
5, 255836, Note_off_c, 3, 50, 0
5, 255840, Note_on_c, 3, 62, 95
5, 255932, Note_off_c, 3, 62, 0
5, 255936, Note_on_c, 3, 57, 95
5, 255936, Note_on_c, 3, 54, 95
5, 256028, Note_off_c, 3, 57, 0
5, 256028, Note_off_c, 3, 54, 0
5, 256032, Note_on_c, 3, 62, 95
5, 256124, Note_off_c, 3, 62, 0
5, 256128, Note_on_c, 3, 59, 95
5, 256220, Note_off_c, 3, 59, 0
5, 256224, Note_on_c, 3, 57, 95
5, 256316, Note_off_c, 3, 57, 0
5, 256320, Note_on_c, 3, 55, 95
5, 256412, Note_off_c, 3, 55, 0
5, 256416, Note_on_c, 3, 54, 95
5, 256508, Note_off_c, 3, 54, 0
5, 256512, Note_on_c, 3, 52, 95
5, 256892, Note_off_c, 3, 52, 0
5, 256896, Note_on_c, 3, 57, 95
5, 256988, Note_off_c, 3, 57, 0
5, 256992, Note_on_c, 3, 55, 95
5, 257084, Note_off_c, 3, 55, 0
5, 257088, Note_on_c, 3, 54, 95
5, 257180, Note_off_c, 3, 54, 0
5, 257184, Note_on_c, 3, 52, 95
5, 257276, Note_off_c, 3, 52, 0
5, 257280, Note_on_c, 3, 50, 95
5, 257660, Note_off_c, 3, 50, 0
5, 257664, Note_on_c, 3, 50, 95
5, 257756, Note_off_c, 3, 50, 0
5, 257760, Note_on_c, 3, 49, 95
5, 257852, Note_off_c, 3, 49, 0
5, 257856, Note_on_c, 3, 47, 95
5, 257948, Note_off_c, 3, 47, 0
5, 257952, Note_on_c, 3, 45, 95
5, 258044, Note_off_c, 3, 45, 0
5, 258048, Note_on_c, 3, 43, 95
5, 258236, Note_off_c, 3, 43, 0
5, 258240, Note_on_c, 3, 55, 95
5, 258240, Note_on_c, 3, 59, 95
5, 258240, Note_on_c, 3, 62, 95
5, 258332, Note_off_c, 3, 55, 0
5, 258332, Note_off_c, 3, 59, 0
5, 258332, Note_off_c, 3, 62, 0
5, 258336, Note_on_c, 3, 64, 95
5, 258428, Note_off_c, 3, 64, 0
5, 258432, Note_on_c, 3, 62, 95
5, 258432, Note_on_c, 3, 59, 95
5, 258432, Note_on_c, 3, 55, 95
5, 258524, Note_off_c, 3, 62, 0
5, 258524, Note_off_c, 3, 59, 0
5, 258524, Note_off_c, 3, 55, 0
5, 258528, Note_on_c, 3, 64, 95
5, 258620, Note_off_c, 3, 64, 0
5, 258624, Note_on_c, 3, 62, 95
5, 258624, Note_on_c, 3, 59, 95
5, 258624, Note_on_c, 3, 55, 95
5, 258716, Note_off_c, 3, 62, 0
5, 258716, Note_off_c, 3, 59, 0
5, 258716, Note_off_c, 3, 55, 0
5, 258720, Note_on_c, 3, 64, 95
5, 258812, Note_off_c, 3, 64, 0
5, 258816, Note_on_c, 3, 61, 95
5, 258816, Note_on_c, 3, 57, 95
5, 258908, Note_off_c, 3, 61, 0
5, 258908, Note_off_c, 3, 57, 0
5, 258912, Note_on_c, 3, 64, 95
5, 259004, Note_off_c, 3, 64, 0
5, 259008, Note_on_c, 3, 61, 95
5, 259008, Note_on_c, 3, 57, 95
5, 259100, Note_off_c, 3, 61, 0
5, 259100, Note_off_c, 3, 57, 0
5, 259104, Note_on_c, 3, 64, 95
5, 259196, Note_off_c, 3, 64, 0
5, 259200, Note_on_c, 3, 61, 95
5, 259200, Note_on_c, 3, 57, 95
5, 259292, Note_off_c, 3, 61, 0
5, 259292, Note_off_c, 3, 57, 0
5, 259296, Note_on_c, 3, 64, 95
5, 259388, Note_off_c, 3, 64, 0
5, 259392, Note_on_c, 3, 61, 95
5, 259392, Note_on_c, 3, 57, 95
5, 259484, Note_off_c, 3, 61, 0
5, 259484, Note_off_c, 3, 57, 0
5, 259488, Note_on_c, 3, 64, 95
5, 259580, Note_off_c, 3, 64, 0
5, 259584, Note_on_c, 3, 62, 95
5, 259584, Note_on_c, 3, 57, 95
5, 259584, Note_on_c, 3, 50, 95
5, 259964, Note_off_c, 3, 62, 0
5, 259964, Note_off_c, 3, 57, 0
5, 259964, Note_off_c, 3, 50, 0
5, 259968, Note_on_c, 3, 50, 95
5, 259968, Note_on_c, 3, 38, 95
5, 260348, Note_off_c, 3, 50, 0
5, 260348, Note_off_c, 3, 38, 0
5, 274560, Note_on_c, 3, 49, 93
5, 274844, Note_off_c, 3, 49, 0
5, 274848, Note_on_c, 3, 45, 93
5, 274940, Note_off_c, 3, 45, 0
5, 274944, Note_on_c, 3, 50, 93
5, 275132, Note_off_c, 3, 50, 0
5, 275136, Note_on_c, 3, 52, 93
5, 275228, Note_off_c, 3, 52, 0
5, 275232, Note_on_c, 3, 54, 93
5, 275324, Note_off_c, 3, 54, 0
5, 275328, Note_on_c, 3, 55, 93
5, 275420, Note_off_c, 3, 55, 0
5, 275424, Note_on_c, 3, 57, 93
5, 275516, Note_off_c, 3, 57, 0
5, 275520, Note_on_c, 3, 59, 93
5, 275612, Note_off_c, 3, 59, 0
5, 275616, Note_on_c, 3, 61, 93
5, 275708, Note_off_c, 3, 61, 0
5, 275712, Note_on_c, 3, 62, 93
5, 275900, Note_off_c, 3, 62, 0
5, 275904, Note_on_c, 3, 50, 93
5, 276092, Note_off_c, 3, 50, 0
5, 277632, Note_on_c, 3, 49, 93
5, 277916, Note_off_c, 3, 49, 0
5, 277920, Note_on_c, 3, 45, 93
5, 278012, Note_off_c, 3, 45, 0
5, 278016, Note_on_c, 3, 48, 93
5, 278204, Note_off_c, 3, 48, 0
5, 278208, Note_on_c, 3, 50, 93
5, 278300, Note_off_c, 3, 50, 0
5, 278304, Note_on_c, 3, 52, 93
5, 278396, Note_off_c, 3, 52, 0
5, 278400, Note_on_c, 3, 54, 93
5, 278492, Note_off_c, 3, 54, 0
5, 278496, Note_on_c, 3, 55, 93
5, 278588, Note_off_c, 3, 55, 0
5, 278592, Note_on_c, 3, 57, 93
5, 278684, Note_off_c, 3, 57, 0
5, 278688, Note_on_c, 3, 59, 93
5, 278780, Note_off_c, 3, 59, 0
5, 278784, Note_on_c, 3, 60, 93
5, 278972, Note_off_c, 3, 60, 0
5, 278976, Note_on_c, 3, 48, 93
5, 279164, Note_off_c, 3, 48, 0
5, 279552, Note_on_c, 3, 59, 93
5, 279740, Note_off_c, 3, 59, 0
5, 279744, Note_on_c, 3, 59, 93
5, 279804, Note_off_c, 3, 59, 0
5, 279808, Note_on_c, 3, 60, 93
5, 279868, Note_off_c, 3, 60, 0
5, 279872, Note_on_c, 3, 62, 93
5, 279932, Note_off_c, 3, 62, 0
5, 279936, Note_on_c, 3, 64, 93
5, 280316, Note_off_c, 3, 64, 0
5, 280320, Note_on_c, 3, 64, 93
5, 280508, Note_off_c, 3, 64, 0
5, 280512, Note_on_c, 3, 57, 93
5, 280572, Note_off_c, 3, 57, 0
5, 280576, Note_on_c, 3, 59, 93
5, 280636, Note_off_c, 3, 59, 0
5, 280640, Note_on_c, 3, 60, 93
5, 280700, Note_off_c, 3, 60, 0
5, 280704, Note_on_c, 3, 62, 93
5, 281084, Note_off_c, 3, 62, 0
5, 281088, Note_on_c, 3, 62, 93
5, 281276, Note_off_c, 3, 62, 0
5, 281280, Note_on_c, 3, 55, 93
5, 281340, Note_off_c, 3, 55, 0
5, 281344, Note_on_c, 3, 57, 93
5, 281404, Note_off_c, 3, 57, 0
5, 281408, Note_on_c, 3, 59, 93
5, 281468, Note_off_c, 3, 59, 0
5, 281472, Note_on_c, 3, 60, 93
5, 281660, Note_off_c, 3, 60, 0
5, 281664, Note_on_c, 3, 54, 93
5, 281724, Note_off_c, 3, 54, 0
5, 281728, Note_on_c, 3, 55, 93
5, 281788, Note_off_c, 3, 55, 0
5, 281792, Note_on_c, 3, 57, 93
5, 281852, Note_off_c, 3, 57, 0
5, 281856, Note_on_c, 3, 59, 93
5, 282236, Note_off_c, 3, 59, 0
5, 282432, Note_on_c, 3, 52, 93
5, 282492, Note_off_c, 3, 52, 0
5, 282496, Note_on_c, 3, 54, 93
5, 282556, Note_off_c, 3, 54, 0
5, 282560, Note_on_c, 3, 55, 93
5, 282620, Note_off_c, 3, 55, 0
5, 282624, Note_on_c, 3, 57, 93
5, 282624, Note_on_c, 3, 57, 93
5, 282716, Note_off_c, 3, 57, 0
5, 282720, Note_on_c, 3, 62, 93
5, 282812, Note_off_c, 3, 57, 0
5, 282812, Note_off_c, 3, 62, 0
5, 282816, Note_on_c, 3, 50, 93
5, 282816, Note_on_c, 3, 50, 93
5, 282908, Note_off_c, 3, 50, 0
5, 282912, Note_on_c, 3, 62, 93
5, 283004, Note_off_c, 3, 50, 0
5, 283004, Note_off_c, 3, 62, 0
5, 283008, Note_on_c, 3, 55, 93
5, 283008, Note_on_c, 3, 55, 93
5, 283100, Note_off_c, 3, 55, 0
5, 283104, Note_on_c, 3, 59, 93
5, 283196, Note_off_c, 3, 55, 0
5, 283196, Note_off_c, 3, 59, 0
5, 283200, Note_on_c, 3, 52, 93
5, 283200, Note_on_c, 3, 52, 93
5, 283292, Note_off_c, 3, 52, 0
5, 283296, Note_on_c, 3, 59, 93
5, 283388, Note_off_c, 3, 52, 0
5, 283388, Note_off_c, 3, 59, 0
5, 283392, Note_on_c, 3, 48, 93
5, 283392, Note_on_c, 3, 48, 93
5, 283484, Note_off_c, 3, 48, 0
5, 283488, Note_on_c, 3, 57, 93
5, 283580, Note_off_c, 3, 57, 0
5, 283584, Note_on_c, 3, 55, 93
5, 283676, Note_off_c, 3, 55, 0
5, 283680, Note_on_c, 3, 57, 93
5, 283772, Note_off_c, 3, 48, 0
5, 283772, Note_off_c, 3, 57, 0
5, 283776, Note_on_c, 3, 50, 93
5, 283776, Note_on_c, 3, 50, 93
5, 283868, Note_off_c, 3, 50, 0
5, 283872, Note_on_c, 3, 62, 93
5, 283964, Note_off_c, 3, 62, 0
5, 283968, Note_on_c, 3, 60, 93
5, 283968, Note_on_c, 3, 57, 93
5, 284060, Note_off_c, 3, 60, 0
5, 284060, Note_off_c, 3, 57, 0
5, 284064, Note_on_c, 3, 62, 93
5, 284156, Note_off_c, 3, 50, 0
5, 284156, Note_off_c, 3, 62, 0
5, 284160, Note_on_c, 3, 59, 93
5, 284160, Note_on_c, 3, 55, 93
5, 284540, Note_off_c, 3, 59, 0
5, 284540, Note_off_c, 3, 55, 0
5, 284544, Note_on_c, 3, 55, 93
5, 284544, Note_on_c, 3, 43, 93
5, 284924, Note_off_c, 3, 55, 0
5, 284924, Note_off_c, 3, 43, 0
5, 296832, Note_on_c, 3, 55, 68
5, 297212, Note_off_c, 3, 55, 0
5, 297216, Note_on_c, 3, 60, 68
5, 297980, Note_off_c, 3, 60, 0
5, 297984, Note_on_c, 3, 59, 68
5, 298748, Note_off_c, 3, 59, 0
5, 298752, Note_on_c, 3, 57, 68
5, 299516, Note_off_c, 3, 57, 0
5, 299520, Note_on_c, 3, 55, 68
5, 300284, Note_off_c, 3, 55, 0
5, 300288, Note_on_c, 3, 54, 68
5, 301052, Note_off_c, 3, 54, 0
5, 301056, Note_on_c, 3, 52, 68
5, 301436, Note_off_c, 3, 52, 0
5, 302592, Note_on_c, 3, 50, 68
5, 303356, Note_off_c, 3, 50, 0
5, 303360, Note_on_c, 3, 48, 68
5, 304124, Note_off_c, 3, 48, 0
5, 304128, Note_on_c, 3, 47, 68
5, 304508, Note_off_c, 3, 47, 0
5, 305664, Note_on_c, 3, 57, 68
5, 306428, Note_off_c, 3, 57, 0
5, 306432, Note_on_c, 3, 55, 68
5, 307196, Note_off_c, 3, 55, 0
5, 307200, Note_on_c, 3, 54, 68
5, 308732, Note_off_c, 3, 54, 0
5, 308736, Note_on_c, 3, 52, 68
5, 308736, Note_on_c, 3, 40, 68
5, 309500, Note_off_c, 3, 52, 0
5, 309500, Note_off_c, 3, 40, 0
5, 309504, Note_on_c, 3, 45, 68
5, 310268, Note_off_c, 3, 45, 0
5, 310272, Note_on_c, 3, 50, 68
5, 310272, Note_on_c, 3, 38, 68
5, 311804, Note_off_c, 3, 50, 0
5, 311804, Note_off_c, 3, 38, 0
5, 311808, Note_on_c, 3, 50, 68
5, 311808, Note_on_c, 3, 38, 68
5, 312188, Note_off_c, 3, 50, 0
5, 312188, Note_off_c, 3, 38, 0
5, 313344, Note_on_c, 3, 43, 57
5, 313436, Note_off_c, 3, 43, 0
5, 313440, Note_on_c, 3, 55, 57
5, 313532, Note_off_c, 3, 55, 0
5, 313536, Note_on_c, 3, 43, 57
5, 313628, Note_off_c, 3, 43, 0
5, 313632, Note_on_c, 3, 55, 57
5, 313724, Note_off_c, 3, 55, 0
5, 313728, Note_on_c, 3, 43, 57
5, 313820, Note_off_c, 3, 43, 0
5, 313824, Note_on_c, 3, 55, 57
5, 313916, Note_off_c, 3, 55, 0
5, 313920, Note_on_c, 3, 43, 57
5, 314008, Note_on_c, 3, 55, 57
5, 314012, Note_off_c, 3, 43, 0
5, 314100, Note_off_c, 3, 55, 0
5, 314112, Note_on_c, 3, 43, 57
5, 314204, Note_off_c, 3, 43, 0
5, 314208, Note_on_c, 3, 55, 57
5, 314300, Note_off_c, 3, 55, 0
5, 314304, Note_on_c, 3, 43, 57
5, 314396, Note_off_c, 3, 43, 0
5, 314400, Note_on_c, 3, 55, 57
5, 314492, Note_off_c, 3, 55, 0
5, 314496, Note_on_c, 3, 43, 57
5, 314588, Note_off_c, 3, 43, 0
5, 314592, Note_on_c, 3, 55, 57
5, 314684, Note_off_c, 3, 55, 0
5, 314688, Note_on_c, 3, 43, 57
5, 314780, Note_off_c, 3, 43, 0
5, 314784, Note_on_c, 3, 55, 57
5, 314876, Note_off_c, 3, 55, 0
5, 314880, Note_on_c, 3, 43, 57
5, 314972, Note_off_c, 3, 43, 0
5, 314976, Note_on_c, 3, 55, 57
5, 315068, Note_off_c, 3, 55, 0
5, 315072, Note_on_c, 3, 43, 68
5, 315164, Note_off_c, 3, 43, 0
5, 315168, Note_on_c, 3, 55, 68
5, 315260, Note_off_c, 3, 55, 0
5, 315264, Note_on_c, 3, 43, 68
5, 315356, Note_off_c, 3, 43, 0
5, 315360, Note_on_c, 3, 55, 68
5, 315452, Note_off_c, 3, 55, 0
5, 315456, Note_on_c, 3, 43, 68
5, 315548, Note_off_c, 3, 43, 0
5, 315552, Note_on_c, 3, 55, 68
5, 315644, Note_off_c, 3, 55, 0
5, 315648, Note_on_c, 3, 43, 68
5, 315740, Note_off_c, 3, 43, 0
5, 315744, Note_on_c, 3, 55, 68
5, 315836, Note_off_c, 3, 55, 0
5, 315840, Note_on_c, 3, 43, 68
5, 315932, Note_off_c, 3, 43, 0
5, 315936, Note_on_c, 3, 55, 68
5, 316028, Note_off_c, 3, 55, 0
5, 316032, Note_on_c, 3, 43, 68
5, 316124, Note_off_c, 3, 43, 0
5, 316128, Note_on_c, 3, 55, 68
5, 316220, Note_off_c, 3, 55, 0
5, 316224, Note_on_c, 3, 43, 68
5, 316316, Note_off_c, 3, 43, 0
5, 316320, Note_on_c, 3, 55, 68
5, 316412, Note_off_c, 3, 55, 0
5, 316416, Note_on_c, 3, 43, 68
5, 316508, Note_off_c, 3, 43, 0
5, 316512, Note_on_c, 3, 55, 68
5, 316604, Note_off_c, 3, 55, 0
5, 316608, Note_on_c, 3, 43, 68
5, 316700, Note_off_c, 3, 43, 0
5, 316704, Note_on_c, 3, 55, 68
5, 316796, Note_off_c, 3, 55, 0
5, 316800, Note_on_c, 3, 43, 68
5, 316892, Note_off_c, 3, 43, 0
5, 316896, Note_on_c, 3, 55, 68
5, 316988, Note_off_c, 3, 55, 0
5, 316992, Note_on_c, 3, 43, 68
5, 317084, Note_off_c, 3, 43, 0
5, 317088, Note_on_c, 3, 55, 68
5, 317180, Note_off_c, 3, 55, 0
5, 317184, Note_on_c, 3, 43, 68
5, 317276, Note_off_c, 3, 43, 0
5, 317280, Note_on_c, 3, 55, 68
5, 317372, Note_off_c, 3, 55, 0
5, 317376, Note_on_c, 3, 43, 68
5, 317468, Note_off_c, 3, 43, 0
5, 317472, Note_on_c, 3, 55, 68
5, 317564, Note_off_c, 3, 55, 0
5, 317568, Note_on_c, 3, 43, 68
5, 317660, Note_off_c, 3, 43, 0
5, 317664, Note_on_c, 3, 55, 68
5, 317756, Note_off_c, 3, 55, 0
5, 317760, Note_on_c, 3, 43, 68
5, 317852, Note_off_c, 3, 43, 0
5, 317856, Note_on_c, 3, 55, 68
5, 317948, Note_off_c, 3, 55, 0
5, 317952, Note_on_c, 3, 43, 68
5, 318044, Note_off_c, 3, 43, 0
5, 318048, Note_on_c, 3, 55, 68
5, 318140, Note_off_c, 3, 55, 0
5, 318144, Note_on_c, 3, 43, 68
5, 318236, Note_off_c, 3, 43, 0
5, 318240, Note_on_c, 3, 55, 68
5, 318332, Note_off_c, 3, 55, 0
5, 318336, Note_on_c, 3, 43, 68
5, 318428, Note_off_c, 3, 43, 0
5, 318432, Note_on_c, 3, 55, 68
5, 318524, Note_off_c, 3, 55, 0
5, 318528, Note_on_c, 3, 43, 68
5, 318620, Note_off_c, 3, 43, 0
5, 318624, Note_on_c, 3, 55, 68
5, 318716, Note_off_c, 3, 55, 0
5, 318720, Note_on_c, 3, 43, 68
5, 318812, Note_off_c, 3, 43, 0
5, 318816, Note_on_c, 3, 55, 68
5, 318908, Note_off_c, 3, 55, 0
5, 318912, Note_on_c, 3, 43, 68
5, 319004, Note_off_c, 3, 43, 0
5, 319008, Note_on_c, 3, 55, 68
5, 319100, Note_off_c, 3, 55, 0
5, 319104, Note_on_c, 3, 43, 68
5, 319196, Note_off_c, 3, 43, 0
5, 319200, Note_on_c, 3, 55, 68
5, 319292, Note_off_c, 3, 55, 0
5, 319296, Note_on_c, 3, 43, 68
5, 319388, Note_off_c, 3, 43, 0
5, 319392, Note_on_c, 3, 55, 68
5, 319484, Note_off_c, 3, 55, 0
5, 319488, Note_on_c, 3, 50, 100
5, 319488, Note_on_c, 3, 43, 100
5, 319676, Note_off_c, 3, 50, 0
5, 319676, Note_off_c, 3, 43, 0
5, 320256, Note_on_c, 3, 57, 100
5, 320256, Note_on_c, 3, 54, 100
5, 320256, Note_on_c, 3, 48, 100
5, 320636, Note_off_c, 3, 57, 0
5, 320636, Note_off_c, 3, 54, 0
5, 320636, Note_off_c, 3, 48, 0
5, 320640, Note_on_c, 3, 57, 100
5, 320640, Note_on_c, 3, 54, 100
5, 320640, Note_on_c, 3, 48, 100
5, 320732, Note_off_c, 3, 57, 0
5, 320732, Note_off_c, 3, 54, 0
5, 320732, Note_off_c, 3, 48, 0
5, 320736, Note_on_c, 3, 52, 100
5, 320828, Note_off_c, 3, 52, 0
5, 320832, Note_on_c, 3, 50, 100
5, 320924, Note_off_c, 3, 50, 0
5, 320928, Note_on_c, 3, 48, 100
5, 321020, Note_off_c, 3, 48, 0
5, 321024, Note_on_c, 3, 55, 100
5, 321024, Note_on_c, 3, 47, 100
5, 321116, Note_off_c, 3, 47, 0
5, 321120, Note_on_c, 3, 43, 100
5, 321212, Note_off_c, 3, 55, 0
5, 321212, Note_off_c, 3, 43, 0
5, 321216, Note_on_c, 3, 55, 100
5, 321216, Note_on_c, 3, 43, 100
5, 321308, Note_off_c, 3, 55, 0
5, 321308, Note_off_c, 3, 43, 0
5, 321312, Note_on_c, 3, 55, 100
5, 321320, Note_on_c, 3, 43, 100
5, 321404, Note_off_c, 3, 55, 0
5, 321408, Note_on_c, 3, 55, 100
5, 321408, Note_on_c, 3, 43, 100
5, 321412, Note_off_c, 3, 43, 0
5, 321596, Note_off_c, 3, 55, 0
5, 321596, Note_off_c, 3, 43, 0
5, 321792, Note_on_c, 3, 57, 100
5, 321792, Note_on_c, 3, 54, 100
5, 321792, Note_on_c, 3, 48, 100
5, 322168, Note_on_c, 3, 54, 100
5, 322172, Note_off_c, 3, 57, 0
5, 322172, Note_off_c, 3, 54, 0
5, 322172, Note_off_c, 3, 48, 0
5, 322176, Note_on_c, 3, 57, 100
5, 322176, Note_on_c, 3, 48, 100
5, 322260, Note_off_c, 3, 54, 0
5, 322268, Note_off_c, 3, 57, 0
5, 322268, Note_off_c, 3, 48, 0
5, 322272, Note_on_c, 3, 52, 100
5, 322364, Note_off_c, 3, 52, 0
5, 322368, Note_on_c, 3, 50, 100
5, 322460, Note_off_c, 3, 50, 0
5, 322464, Note_on_c, 3, 48, 100
5, 322556, Note_off_c, 3, 48, 0
5, 322560, Note_on_c, 3, 55, 100
5, 322560, Note_on_c, 3, 47, 100
5, 322652, Note_off_c, 3, 47, 0
5, 322656, Note_on_c, 3, 43, 100
5, 322748, Note_off_c, 3, 55, 0
5, 322748, Note_off_c, 3, 43, 0
5, 322752, Note_on_c, 3, 55, 100
5, 322752, Note_on_c, 3, 43, 100
5, 322844, Note_off_c, 3, 55, 0
5, 322844, Note_off_c, 3, 43, 0
5, 322848, Note_on_c, 3, 55, 100
5, 322848, Note_on_c, 3, 43, 100
5, 322940, Note_off_c, 3, 55, 0
5, 322940, Note_off_c, 3, 43, 0
5, 322944, Note_on_c, 3, 55, 100
5, 322944, Note_on_c, 3, 43, 100
5, 323132, Note_off_c, 3, 55, 0
5, 323132, Note_off_c, 3, 43, 0
5, 323520, Note_on_c, 3, 48, 100
5, 323612, Note_off_c, 3, 48, 0
5, 323616, Note_on_c, 3, 50, 100
5, 323708, Note_off_c, 3, 50, 0
5, 323712, Note_on_c, 3, 52, 100
5, 323804, Note_off_c, 3, 52, 0
5, 323808, Note_on_c, 3, 48, 100
5, 323900, Note_off_c, 3, 48, 0
5, 323904, Note_on_c, 3, 52, 100
5, 323996, Note_off_c, 3, 52, 0
5, 324000, Note_on_c, 3, 48, 100
5, 324092, Note_off_c, 3, 48, 0
5, 324096, Note_on_c, 3, 45, 100
5, 324284, Note_off_c, 3, 45, 0
5, 324288, Note_on_c, 3, 60, 100
5, 324380, Note_off_c, 3, 60, 0
5, 324384, Note_on_c, 3, 62, 100
5, 324476, Note_off_c, 3, 62, 0
5, 324480, Note_on_c, 3, 64, 100
5, 324572, Note_off_c, 3, 64, 0
5, 324576, Note_on_c, 3, 60, 100
5, 324668, Note_off_c, 3, 60, 0
5, 324672, Note_on_c, 3, 64, 100
5, 324752, Note_on_c, 3, 60, 100
5, 324764, Note_off_c, 3, 64, 0
5, 324844, Note_off_c, 3, 60, 0
5, 324864, Note_on_c, 3, 57, 100
5, 325052, Note_off_c, 3, 57, 0
5, 325056, Note_on_c, 3, 45, 100
5, 325148, Note_off_c, 3, 45, 0
5, 325152, Note_on_c, 3, 47, 100
5, 325244, Note_off_c, 3, 47, 0
5, 325248, Note_on_c, 3, 48, 100
5, 325340, Note_off_c, 3, 48, 0
5, 325344, Note_on_c, 3, 45, 100
5, 325436, Note_off_c, 3, 45, 0
5, 325440, Note_on_c, 3, 48, 100
5, 325532, Note_off_c, 3, 48, 0
5, 325536, Note_on_c, 3, 45, 100
5, 325628, Note_off_c, 3, 45, 0
5, 325632, Note_on_c, 3, 42, 100
5, 325820, Note_off_c, 3, 42, 0
5, 325824, Note_on_c, 3, 62, 100
5, 325916, Note_off_c, 3, 62, 0
5, 325920, Note_on_c, 3, 64, 100
5, 326012, Note_off_c, 3, 64, 0
5, 326016, Note_on_c, 3, 66, 100
5, 326108, Note_off_c, 3, 66, 0
5, 326112, Note_on_c, 3, 62, 100
5, 326204, Note_off_c, 3, 62, 0
5, 326208, Note_on_c, 3, 66, 100
5, 326300, Note_off_c, 3, 66, 0
5, 326304, Note_on_c, 3, 62, 100
5, 326396, Note_off_c, 3, 62, 0
5, 326400, Note_on_c, 3, 64, 100
5, 326400, Note_on_c, 3, 52, 100
5, 326588, Note_off_c, 3, 64, 0
5, 326588, Note_off_c, 3, 52, 0
5, 326592, Note_on_c, 3, 64, 100
5, 326780, Note_off_c, 3, 64, 0
5, 326784, Note_on_c, 3, 62, 100
5, 326784, Note_on_c, 3, 50, 100
5, 326972, Note_off_c, 3, 62, 0
5, 326972, Note_off_c, 3, 50, 0
5, 326976, Note_on_c, 3, 62, 100
5, 327164, Note_off_c, 3, 62, 0
5, 327168, Note_on_c, 3, 60, 100
5, 327168, Note_on_c, 3, 48, 100
5, 327356, Note_off_c, 3, 60, 0
5, 327356, Note_off_c, 3, 48, 0
5, 327360, Note_on_c, 3, 60, 100
5, 327548, Note_off_c, 3, 60, 0
5, 327552, Note_on_c, 3, 61, 100
5, 327552, Note_on_c, 3, 49, 100
5, 327740, Note_off_c, 3, 61, 0
5, 327740, Note_off_c, 3, 49, 0
5, 327744, Note_on_c, 3, 61, 100
5, 327932, Note_off_c, 3, 61, 0
5, 327936, Note_on_c, 3, 50, 100
5, 328028, Note_off_c, 3, 50, 0
5, 328032, Note_on_c, 3, 62, 100
5, 328124, Note_off_c, 3, 62, 0
5, 328128, Note_on_c, 3, 50, 100
5, 328220, Note_off_c, 3, 50, 0
5, 328224, Note_on_c, 3, 62, 100
5, 328316, Note_off_c, 3, 62, 0
5, 328320, Note_on_c, 3, 50, 100
5, 328412, Note_off_c, 3, 50, 0
5, 328416, Note_on_c, 3, 62, 100
5, 328508, Note_off_c, 3, 62, 0
5, 328512, Note_on_c, 3, 50, 100
5, 328604, Note_off_c, 3, 50, 0
5, 328608, Note_on_c, 3, 62, 100
5, 328700, Note_off_c, 3, 62, 0
5, 328704, Note_on_c, 3, 50, 100
5, 328796, Note_off_c, 3, 50, 0
5, 328800, Note_on_c, 3, 62, 100
5, 328892, Note_off_c, 3, 62, 0
5, 328896, Note_on_c, 3, 50, 100
5, 328988, Note_off_c, 3, 50, 0
5, 328992, Note_on_c, 3, 62, 100
5, 329084, Note_off_c, 3, 62, 0
5, 329088, Note_on_c, 3, 50, 100
5, 329180, Note_off_c, 3, 50, 0
5, 329184, Note_on_c, 3, 62, 100
5, 329276, Note_off_c, 3, 62, 0
5, 329280, Note_on_c, 3, 50, 100
5, 329372, Note_off_c, 3, 50, 0
5, 329376, Note_on_c, 3, 62, 100
5, 329468, Note_off_c, 3, 62, 0
5, 329472, Note_on_c, 3, 50, 100
5, 329564, Note_off_c, 3, 50, 0
5, 329568, Note_on_c, 3, 62, 100
5, 329660, Note_off_c, 3, 62, 0
5, 329664, Note_on_c, 3, 50, 100
5, 329756, Note_off_c, 3, 50, 0
5, 329760, Note_on_c, 3, 62, 100
5, 329852, Note_off_c, 3, 62, 0
5, 329856, Note_on_c, 3, 50, 100
5, 329948, Note_off_c, 3, 50, 0
5, 329952, Note_on_c, 3, 62, 100
5, 330044, Note_off_c, 3, 62, 0
5, 330048, Note_on_c, 3, 50, 100
5, 330140, Note_off_c, 3, 50, 0
5, 330144, Note_on_c, 3, 62, 100
5, 330236, Note_off_c, 3, 62, 0
5, 330240, Note_on_c, 3, 50, 100
5, 330428, Note_off_c, 3, 50, 0
5, 331008, Note_on_c, 3, 43, 68
5, 331100, Note_off_c, 3, 43, 0
5, 331104, Note_on_c, 3, 55, 68
5, 331196, Note_off_c, 3, 55, 0
5, 331200, Note_on_c, 3, 43, 68
5, 331292, Note_off_c, 3, 43, 0
5, 331296, Note_on_c, 3, 55, 68
5, 331388, Note_off_c, 3, 55, 0
5, 331392, Note_on_c, 3, 43, 68
5, 331484, Note_off_c, 3, 43, 0
5, 331488, Note_on_c, 3, 55, 68
5, 331580, Note_off_c, 3, 55, 0
5, 331584, Note_on_c, 3, 43, 68
5, 331676, Note_off_c, 3, 43, 0
5, 331680, Note_on_c, 3, 55, 68
5, 331772, Note_off_c, 3, 55, 0
5, 331776, Note_on_c, 3, 43, 68
5, 331868, Note_off_c, 3, 43, 0
5, 331872, Note_on_c, 3, 55, 68
5, 331964, Note_off_c, 3, 55, 0
5, 331968, Note_on_c, 3, 43, 68
5, 332060, Note_off_c, 3, 43, 0
5, 332064, Note_on_c, 3, 55, 68
5, 332156, Note_off_c, 3, 55, 0
5, 332160, Note_on_c, 3, 43, 68
5, 332252, Note_off_c, 3, 43, 0
5, 332256, Note_on_c, 3, 55, 68
5, 332348, Note_off_c, 3, 55, 0
5, 332352, Note_on_c, 3, 43, 68
5, 332444, Note_off_c, 3, 43, 0
5, 332448, Note_on_c, 3, 55, 68
5, 332540, Note_off_c, 3, 55, 0
5, 332736, Note_on_c, 3, 50, 68
5, 332736, Note_on_c, 3, 47, 68
5, 332828, Note_off_c, 3, 50, 0
5, 332828, Note_off_c, 3, 47, 0
5, 332832, Note_on_c, 3, 50, 68
5, 332832, Note_on_c, 3, 47, 68
5, 332924, Note_off_c, 3, 50, 0
5, 332924, Note_off_c, 3, 47, 0
5, 332928, Note_on_c, 3, 50, 68
5, 332928, Note_on_c, 3, 47, 68
5, 333116, Note_off_c, 3, 50, 0
5, 333116, Note_off_c, 3, 47, 0
5, 333120, Note_on_c, 3, 50, 68
5, 333120, Note_on_c, 3, 47, 68
5, 333308, Note_off_c, 3, 50, 0
5, 333308, Note_off_c, 3, 47, 0
5, 333312, Note_on_c, 3, 50, 68
5, 333312, Note_on_c, 3, 47, 68
5, 333500, Note_off_c, 3, 50, 0
5, 333500, Note_off_c, 3, 47, 0
5, 333504, Note_on_c, 3, 47, 68
5, 333504, Note_on_c, 3, 43, 68
5, 333596, Note_off_c, 3, 47, 0
5, 333596, Note_off_c, 3, 43, 0
5, 333696, Note_on_c, 3, 50, 68
5, 333696, Note_on_c, 3, 47, 68
5, 333884, Note_off_c, 3, 50, 0
5, 333884, Note_off_c, 3, 47, 0
5, 333888, Note_on_c, 3, 43, 68
5, 333888, Note_on_c, 3, 47, 68
5, 333980, Note_off_c, 3, 43, 0
5, 333980, Note_off_c, 3, 47, 0
5, 334080, Note_on_c, 3, 43, 68
5, 334172, Note_off_c, 3, 43, 0
5, 334176, Note_on_c, 3, 55, 68
5, 334268, Note_off_c, 3, 55, 0
5, 334272, Note_on_c, 3, 43, 68
5, 334364, Note_off_c, 3, 43, 0
5, 334368, Note_on_c, 3, 55, 68
5, 334460, Note_off_c, 3, 55, 0
5, 334464, Note_on_c, 3, 43, 68
5, 334556, Note_off_c, 3, 43, 0
5, 334560, Note_on_c, 3, 55, 68
5, 334652, Note_off_c, 3, 55, 0
5, 334656, Note_on_c, 3, 43, 68
5, 334748, Note_off_c, 3, 43, 0
5, 334752, Note_on_c, 3, 55, 68
5, 334844, Note_off_c, 3, 55, 0
5, 334848, Note_on_c, 3, 43, 68
5, 334940, Note_off_c, 3, 43, 0
5, 334944, Note_on_c, 3, 55, 68
5, 335036, Note_off_c, 3, 55, 0
5, 335040, Note_on_c, 3, 43, 68
5, 335132, Note_off_c, 3, 43, 0
5, 335136, Note_on_c, 3, 55, 68
5, 335228, Note_off_c, 3, 55, 0
5, 335232, Note_on_c, 3, 43, 68
5, 335324, Note_off_c, 3, 43, 0
5, 335328, Note_on_c, 3, 55, 68
5, 335420, Note_off_c, 3, 55, 0
5, 335424, Note_on_c, 3, 43, 68
5, 335516, Note_off_c, 3, 43, 0
5, 335520, Note_on_c, 3, 55, 68
5, 335612, Note_off_c, 3, 55, 0
5, 335808, Note_on_c, 3, 62, 68
5, 335808, Note_on_c, 3, 59, 68
5, 335900, Note_off_c, 3, 62, 0
5, 335900, Note_off_c, 3, 59, 0
5, 335904, Note_on_c, 3, 62, 68
5, 335904, Note_on_c, 3, 59, 68
5, 335996, Note_off_c, 3, 62, 0
5, 335996, Note_off_c, 3, 59, 0
5, 336000, Note_on_c, 3, 59, 68
5, 336000, Note_on_c, 3, 62, 68
5, 336188, Note_off_c, 3, 59, 0
5, 336188, Note_off_c, 3, 62, 0
5, 336192, Note_on_c, 3, 59, 68
5, 336192, Note_on_c, 3, 62, 68
5, 336380, Note_off_c, 3, 59, 0
5, 336380, Note_off_c, 3, 62, 0
5, 336384, Note_on_c, 3, 59, 68
5, 336384, Note_on_c, 3, 62, 68
5, 336572, Note_off_c, 3, 59, 0
5, 336572, Note_off_c, 3, 62, 0
5, 336576, Note_on_c, 3, 55, 68
5, 336576, Note_on_c, 3, 59, 68
5, 336668, Note_off_c, 3, 55, 0
5, 336668, Note_off_c, 3, 59, 0
5, 336768, Note_on_c, 3, 59, 68
5, 336768, Note_on_c, 3, 62, 68
5, 336956, Note_off_c, 3, 59, 0
5, 336956, Note_off_c, 3, 62, 0
5, 336960, Note_on_c, 3, 55, 68
5, 336960, Note_on_c, 3, 59, 68
5, 337052, Note_off_c, 3, 55, 0
5, 337052, Note_off_c, 3, 59, 0
5, 338688, Note_on_c, 3, 59, 68
5, 338780, Note_off_c, 3, 59, 0
5, 338784, Note_on_c, 3, 55, 68
5, 338876, Note_off_c, 3, 55, 0
5, 338880, Note_on_c, 3, 55, 68
5, 338972, Note_off_c, 3, 55, 0
5, 338976, Note_on_c, 3, 55, 68
5, 339068, Note_off_c, 3, 55, 0
5, 339072, Note_on_c, 3, 55, 68
5, 339260, Note_off_c, 3, 55, 0
5, 339456, Note_on_c, 3, 60, 68
5, 340028, Note_off_c, 3, 60, 0
5, 340032, Note_on_c, 3, 62, 68
5, 340124, Note_off_c, 3, 62, 0
5, 340128, Note_on_c, 3, 60, 68
5, 340220, Note_off_c, 3, 60, 0
5, 340224, Note_on_c, 3, 59, 68
5, 340316, Note_off_c, 3, 59, 0
5, 340320, Note_on_c, 3, 55, 68
5, 340412, Note_off_c, 3, 55, 0
5, 340416, Note_on_c, 3, 55, 68
5, 340508, Note_off_c, 3, 55, 0
5, 340512, Note_on_c, 3, 55, 68
5, 340604, Note_off_c, 3, 55, 0
5, 340608, Note_on_c, 3, 55, 68
5, 340796, Note_off_c, 3, 55, 0
5, 341184, Note_on_c, 3, 60, 68
5, 341184, Note_on_c, 3, 64, 68
5, 341368, Note_on_c, 3, 67, 68
5, 341372, Note_off_c, 3, 60, 0
5, 341372, Note_off_c, 3, 64, 0
5, 341376, Note_on_c, 3, 64, 68
5, 341556, Note_off_c, 3, 67, 0
5, 341560, Note_on_c, 3, 60, 68
5, 341564, Note_off_c, 3, 64, 0
5, 341568, Note_on_c, 3, 64, 68
5, 341748, Note_off_c, 3, 60, 0
5, 341756, Note_off_c, 3, 64, 0
5, 341760, Note_on_c, 3, 60, 68
5, 341760, Note_on_c, 3, 57, 68
5, 341948, Note_off_c, 3, 60, 0
5, 341948, Note_off_c, 3, 57, 0
5, 342720, Note_on_c, 3, 62, 68
5, 342720, Note_on_c, 3, 66, 68
5, 342908, Note_off_c, 3, 62, 0
5, 342908, Note_off_c, 3, 66, 0
5, 342912, Note_on_c, 3, 66, 68
5, 342912, Note_on_c, 3, 69, 68
5, 343100, Note_off_c, 3, 66, 0
5, 343100, Note_off_c, 3, 69, 0
5, 343104, Note_on_c, 3, 62, 68
5, 343104, Note_on_c, 3, 66, 68
5, 343292, Note_off_c, 3, 62, 0
5, 343292, Note_off_c, 3, 66, 0
5, 343296, Note_on_c, 3, 59, 68
5, 343296, Note_on_c, 3, 62, 68
5, 343484, Note_off_c, 3, 59, 0
5, 343484, Note_off_c, 3, 62, 0
5, 344256, Note_on_c, 3, 64, 68
5, 344256, Note_on_c, 3, 52, 68
5, 344444, Note_off_c, 3, 64, 0
5, 344444, Note_off_c, 3, 52, 0
5, 344640, Note_on_c, 3, 62, 68
5, 344640, Note_on_c, 3, 50, 68
5, 344828, Note_off_c, 3, 62, 0
5, 344828, Note_off_c, 3, 50, 0
5, 345024, Note_on_c, 3, 60, 68
5, 345024, Note_on_c, 3, 48, 68
5, 345212, Note_off_c, 3, 60, 0
5, 345212, Note_off_c, 3, 48, 0
5, 345408, Note_on_c, 3, 61, 68
5, 345408, Note_on_c, 3, 49, 68
5, 345596, Note_off_c, 3, 61, 0
5, 345596, Note_off_c, 3, 49, 0
5, 345600, Note_on_c, 3, 62, 68
5, 345600, Note_on_c, 3, 50, 68
5, 345788, Note_off_c, 3, 62, 0
5, 345788, Note_off_c, 3, 50, 0
5, 346560, Note_on_c, 3, 50, 68
5, 346652, Note_off_c, 3, 50, 0
5, 346656, Note_on_c, 3, 62, 68
5, 346748, Note_off_c, 3, 62, 0
5, 346752, Note_on_c, 3, 50, 68
5, 346844, Note_off_c, 3, 50, 0
5, 346848, Note_on_c, 3, 62, 68
5, 346940, Note_off_c, 3, 62, 0
5, 346944, Note_on_c, 3, 50, 68
5, 347036, Note_off_c, 3, 50, 0
5, 347040, Note_on_c, 3, 62, 68
5, 347132, Note_off_c, 3, 62, 0
5, 347136, Note_on_c, 3, 50, 68
5, 347324, Note_off_c, 3, 50, 0
5, 348096, Note_on_c, 3, 50, 68
5, 348188, Note_off_c, 3, 50, 0
5, 348192, Note_on_c, 3, 62, 68
5, 348284, Note_off_c, 3, 62, 0
5, 348288, Note_on_c, 3, 50, 68
5, 348380, Note_off_c, 3, 50, 0
5, 348384, Note_on_c, 3, 62, 68
5, 348476, Note_off_c, 3, 62, 0
5, 348480, Note_on_c, 3, 50, 68
5, 348572, Note_off_c, 3, 50, 0
5, 348576, Note_on_c, 3, 62, 68
5, 348668, Note_off_c, 3, 62, 0
5, 348672, Note_on_c, 3, 50, 68
5, 348860, Note_off_c, 3, 50, 0
5, 350016, Note_on_c, 3, 50, 93
5, 350108, Note_off_c, 3, 50, 0
5, 350112, Note_on_c, 3, 62, 93
5, 350204, Note_off_c, 3, 62, 0
5, 350208, Note_on_c, 3, 38, 93
5, 350300, Note_off_c, 3, 38, 0
5, 350304, Note_on_c, 3, 50, 93
5, 350396, Note_off_c, 3, 50, 0
5, 350400, Note_on_c, 3, 38, 93
5, 350492, Note_off_c, 3, 38, 0
5, 350496, Note_on_c, 3, 50, 93
5, 350588, Note_off_c, 3, 50, 0
5, 350592, Note_on_c, 3, 38, 93
5, 350684, Note_off_c, 3, 38, 0
5, 350688, Note_on_c, 3, 50, 93
5, 350780, Note_off_c, 3, 50, 0
5, 350784, Note_on_c, 3, 38, 93
5, 350876, Note_off_c, 3, 38, 0
5, 350880, Note_on_c, 3, 50, 93
5, 350972, Note_off_c, 3, 50, 0
5, 350976, Note_on_c, 3, 38, 93
5, 351068, Note_off_c, 3, 38, 0
5, 351072, Note_on_c, 3, 50, 93
5, 351164, Note_off_c, 3, 50, 0
5, 351168, Note_on_c, 3, 38, 93
5, 351260, Note_off_c, 3, 38, 0
5, 351264, Note_on_c, 3, 50, 93
5, 351356, Note_off_c, 3, 50, 0
5, 351360, Note_on_c, 3, 38, 93
5, 351452, Note_off_c, 3, 38, 0
5, 351456, Note_on_c, 3, 50, 93
5, 351548, Note_off_c, 3, 50, 0
5, 351552, Note_on_c, 3, 38, 93
5, 351644, Note_off_c, 3, 38, 0
5, 351648, Note_on_c, 3, 50, 93
5, 351740, Note_off_c, 3, 50, 0
5, 351744, Note_on_c, 3, 38, 93
5, 351932, Note_off_c, 3, 38, 0
5, 352512, Note_on_c, 3, 51, 68
5, 352512, Note_on_c, 3, 63, 68
5, 353276, Note_off_c, 3, 51, 0
5, 353276, Note_off_c, 3, 63, 0
5, 353280, Note_on_c, 3, 48, 68
5, 353280, Note_on_c, 3, 60, 68
5, 354044, Note_off_c, 3, 48, 0
5, 354044, Note_off_c, 3, 60, 0
5, 354048, Note_on_c, 3, 62, 68
5, 354048, Note_on_c, 3, 50, 68
5, 354048, Note_on_c, 3, 38, 68
5, 354812, Note_off_c, 3, 62, 0
5, 354812, Note_off_c, 3, 50, 0
5, 354812, Note_off_c, 3, 38, 0
5, 354816, Note_on_c, 3, 55, 68
5, 354816, Note_on_c, 3, 43, 68
5, 355580, Note_off_c, 3, 55, 0
5, 355580, Note_off_c, 3, 43, 0
5, 355584, Note_on_c, 3, 51, 68
5, 355584, Note_on_c, 3, 39, 68
5, 356348, Note_off_c, 3, 51, 0
5, 356348, Note_off_c, 3, 39, 0
5, 356352, Note_on_c, 3, 48, 68
5, 356352, Note_on_c, 3, 36, 68
5, 357116, Note_off_c, 3, 48, 0
5, 357116, Note_off_c, 3, 36, 0
5, 357120, Note_on_c, 3, 50, 68
5, 357120, Note_on_c, 3, 38, 68
5, 357884, Note_off_c, 3, 50, 0
5, 357884, Note_off_c, 3, 38, 0
5, 357888, Note_on_c, 3, 43, 68
5, 357888, Note_on_c, 3, 31, 68
5, 358652, Note_off_c, 3, 43, 0
5, 358652, Note_off_c, 3, 31, 0
5, 358656, Note_on_c, 3, 51, 68
5, 358656, Note_on_c, 3, 39, 68
5, 359420, Note_off_c, 3, 51, 0
5, 359420, Note_off_c, 3, 39, 0
5, 359424, Note_on_c, 3, 48, 68
5, 359424, Note_on_c, 3, 36, 68
5, 360188, Note_off_c, 3, 48, 0
5, 360188, Note_off_c, 3, 36, 0
5, 360192, Note_on_c, 3, 50, 68
5, 360192, Note_on_c, 3, 38, 68
5, 360956, Note_off_c, 3, 50, 0
5, 360956, Note_off_c, 3, 38, 0
5, 360960, Note_on_c, 3, 55, 68
5, 360960, Note_on_c, 3, 55, 68
5, 361052, Note_off_c, 3, 55, 0
5, 361056, Note_on_c, 3, 43, 68
5, 361148, Note_off_c, 3, 43, 0
5, 361152, Note_on_c, 3, 31, 68
5, 361244, Note_off_c, 3, 31, 0
5, 361248, Note_on_c, 3, 43, 68
5, 361340, Note_off_c, 3, 43, 0
5, 361344, Note_on_c, 3, 31, 68
5, 361436, Note_off_c, 3, 31, 0
5, 361440, Note_on_c, 3, 43, 68
5, 361532, Note_off_c, 3, 55, 0
5, 361532, Note_off_c, 3, 43, 0
5, 361536, Note_on_c, 3, 55, 68
5, 361536, Note_on_c, 3, 31, 68
5, 361628, Note_off_c, 3, 31, 0
5, 361632, Note_on_c, 3, 43, 68
5, 361724, Note_off_c, 3, 55, 0
5, 361724, Note_off_c, 3, 43, 0
5, 361728, Note_on_c, 3, 55, 68
5, 361728, Note_on_c, 3, 31, 68
5, 361820, Note_off_c, 3, 31, 0
5, 361824, Note_on_c, 3, 43, 68
5, 361916, Note_off_c, 3, 55, 0
5, 361916, Note_off_c, 3, 43, 0
5, 361920, Note_on_c, 3, 54, 68
5, 361920, Note_on_c, 3, 31, 68
5, 362012, Note_off_c, 3, 31, 0
5, 362016, Note_on_c, 3, 43, 68
5, 362108, Note_off_c, 3, 54, 0
5, 362108, Note_off_c, 3, 43, 0
5, 362112, Note_on_c, 3, 54, 68
5, 362112, Note_on_c, 3, 31, 68
5, 362204, Note_off_c, 3, 31, 0
5, 362208, Note_on_c, 3, 43, 68
5, 362300, Note_off_c, 3, 43, 0
5, 362304, Note_on_c, 3, 31, 68
5, 362396, Note_off_c, 3, 31, 0
5, 362400, Note_on_c, 3, 43, 68
5, 362492, Note_off_c, 3, 54, 0
5, 362492, Note_off_c, 3, 43, 0
5, 362496, Note_on_c, 3, 31, 68
5, 362588, Note_off_c, 3, 31, 0
5, 362592, Note_on_c, 3, 43, 68
5, 362684, Note_off_c, 3, 43, 0
5, 362688, Note_on_c, 3, 31, 68
5, 362780, Note_off_c, 3, 31, 0
5, 362784, Note_on_c, 3, 43, 68
5, 362876, Note_off_c, 3, 43, 0
5, 362880, Note_on_c, 3, 31, 68
5, 362972, Note_off_c, 3, 31, 0
5, 362976, Note_on_c, 3, 43, 68
5, 363068, Note_off_c, 3, 43, 0
5, 363072, Note_on_c, 3, 31, 68
5, 363164, Note_off_c, 3, 31, 0
5, 363168, Note_on_c, 3, 43, 68
5, 363260, Note_off_c, 3, 43, 0
5, 363264, Note_on_c, 3, 31, 68
5, 363356, Note_off_c, 3, 31, 0
5, 363360, Note_on_c, 3, 43, 68
5, 363452, Note_off_c, 3, 43, 0
5, 363456, Note_on_c, 3, 31, 68
5, 363548, Note_off_c, 3, 31, 0
5, 363552, Note_on_c, 3, 43, 68
5, 363644, Note_off_c, 3, 43, 0
5, 363648, Note_on_c, 3, 31, 68
5, 363740, Note_off_c, 3, 31, 0
5, 363744, Note_on_c, 3, 43, 68
5, 363836, Note_off_c, 3, 43, 0
5, 363840, Note_on_c, 3, 31, 68
5, 363932, Note_off_c, 3, 31, 0
5, 363936, Note_on_c, 3, 43, 68
5, 364028, Note_off_c, 3, 43, 0
5, 364032, Note_on_c, 3, 31, 71
5, 364124, Note_off_c, 3, 31, 0
5, 364128, Note_on_c, 3, 43, 72
5, 364220, Note_off_c, 3, 43, 0
5, 364224, Note_on_c, 3, 31, 73
5, 364316, Note_off_c, 3, 31, 0
5, 364320, Note_on_c, 3, 43, 75
5, 364412, Note_off_c, 3, 43, 0
5, 364416, Note_on_c, 3, 31, 76
5, 364508, Note_off_c, 3, 31, 0
5, 364512, Note_on_c, 3, 43, 77
5, 364604, Note_off_c, 3, 43, 0
5, 364608, Note_on_c, 3, 31, 80
5, 364700, Note_off_c, 3, 31, 0
5, 364704, Note_on_c, 3, 43, 81
5, 364796, Note_off_c, 3, 43, 0
5, 364800, Note_on_c, 3, 31, 82
5, 364892, Note_off_c, 3, 31, 0
5, 364896, Note_on_c, 3, 43, 83
5, 364988, Note_off_c, 3, 43, 0
5, 364992, Note_on_c, 3, 31, 85
5, 365084, Note_off_c, 3, 31, 0
5, 365088, Note_on_c, 3, 43, 86
5, 365180, Note_off_c, 3, 43, 0
5, 365184, Note_on_c, 3, 31, 88
5, 365276, Note_off_c, 3, 31, 0
5, 365280, Note_on_c, 3, 43, 90
5, 365372, Note_off_c, 3, 43, 0
5, 365376, Note_on_c, 3, 31, 91
5, 365468, Note_off_c, 3, 31, 0
5, 365472, Note_on_c, 3, 43, 92
5, 365564, Note_off_c, 3, 43, 0
5, 365568, Note_on_c, 3, 31, 93
5, 365660, Note_off_c, 3, 31, 0
5, 365664, Note_on_c, 3, 43, 93
5, 365756, Note_off_c, 3, 43, 0
5, 365760, Note_on_c, 3, 31, 93
5, 365852, Note_off_c, 3, 31, 0
5, 365856, Note_on_c, 3, 43, 93
5, 365948, Note_off_c, 3, 43, 0
5, 365952, Note_on_c, 3, 31, 93
5, 366044, Note_off_c, 3, 31, 0
5, 366048, Note_on_c, 3, 43, 93
5, 366140, Note_off_c, 3, 43, 0
5, 366144, Note_on_c, 3, 31, 93
5, 366236, Note_off_c, 3, 31, 0
5, 366240, Note_on_c, 3, 43, 93
5, 366332, Note_off_c, 3, 43, 0
5, 366336, Note_on_c, 3, 31, 93
5, 366428, Note_off_c, 3, 31, 0
5, 366432, Note_on_c, 3, 43, 93
5, 366524, Note_off_c, 3, 43, 0
5, 366528, Note_on_c, 3, 31, 93
5, 366620, Note_off_c, 3, 31, 0
5, 366624, Note_on_c, 3, 43, 93
5, 366716, Note_off_c, 3, 43, 0
5, 366720, Note_on_c, 3, 31, 93
5, 366812, Note_off_c, 3, 31, 0
5, 366816, Note_on_c, 3, 43, 93
5, 366908, Note_off_c, 3, 43, 0
5, 366912, Note_on_c, 3, 31, 93
5, 367004, Note_off_c, 3, 31, 0
5, 367008, Note_on_c, 3, 43, 93
5, 367100, Note_off_c, 3, 43, 0
5, 367104, Note_on_c, 3, 67, 93
5, 367104, Note_on_c, 3, 62, 93
5, 367104, Note_on_c, 3, 59, 93
5, 367104, Note_on_c, 3, 55, 93
5, 367292, Note_off_c, 3, 67, 0
5, 367292, Note_off_c, 3, 62, 0
5, 367292, Note_off_c, 3, 59, 0
5, 367292, Note_off_c, 3, 55, 0
5, 367296, Note_on_c, 3, 67, 93
5, 367296, Note_on_c, 3, 55, 93
5, 367484, Note_off_c, 3, 67, 0
5, 367484, Note_off_c, 3, 55, 0
5, 367488, Note_on_c, 3, 66, 93
5, 367488, Note_on_c, 3, 62, 93
5, 367488, Note_on_c, 3, 57, 93
5, 367488, Note_on_c, 3, 54, 93
5, 367676, Note_off_c, 3, 66, 0
5, 367676, Note_off_c, 3, 62, 0
5, 367676, Note_off_c, 3, 57, 0
5, 367676, Note_off_c, 3, 54, 0
5, 367872, Note_on_c, 3, 64, 93
5, 367872, Note_on_c, 3, 59, 93
5, 367872, Note_on_c, 3, 55, 93
5, 367872, Note_on_c, 3, 52, 93
5, 368060, Note_off_c, 3, 64, 0
5, 368060, Note_off_c, 3, 59, 0
5, 368060, Note_off_c, 3, 55, 0
5, 368060, Note_off_c, 3, 52, 0
5, 368256, Note_on_c, 3, 62, 93
5, 368256, Note_on_c, 3, 59, 93
5, 368256, Note_on_c, 3, 54, 93
5, 368256, Note_on_c, 3, 50, 93
5, 368444, Note_off_c, 3, 62, 0
5, 368444, Note_off_c, 3, 59, 0
5, 368444, Note_off_c, 3, 54, 0
5, 368444, Note_off_c, 3, 50, 0
5, 368640, Note_on_c, 3, 60, 93
5, 368640, Note_on_c, 3, 55, 93
5, 368640, Note_on_c, 3, 52, 93
5, 368640, Note_on_c, 3, 48, 93
5, 368828, Note_off_c, 3, 60, 0
5, 368828, Note_off_c, 3, 55, 0
5, 368828, Note_off_c, 3, 52, 0
5, 368828, Note_off_c, 3, 48, 0
5, 369024, Note_on_c, 3, 59, 93
5, 369024, Note_on_c, 3, 55, 93
5, 369024, Note_on_c, 3, 50, 93
5, 369024, Note_on_c, 3, 47, 93
5, 369212, Note_off_c, 3, 59, 0
5, 369212, Note_off_c, 3, 55, 0
5, 369212, Note_off_c, 3, 50, 0
5, 369212, Note_off_c, 3, 47, 0
5, 369408, Note_on_c, 3, 57, 68
5, 369408, Note_on_c, 3, 45, 68
5, 370172, Note_off_c, 3, 57, 0
5, 370172, Note_off_c, 3, 45, 0
5, 370176, Note_on_c, 3, 57, 68
5, 370176, Note_on_c, 3, 50, 68
5, 370364, Note_off_c, 3, 57, 0
5, 370364, Note_off_c, 3, 50, 0
5, 373248, Note_on_c, 3, 43, 57
5, 373436, Note_off_c, 3, 43, 0
5, 374016, Note_on_c, 3, 50, 57
5, 374016, Note_on_c, 3, 38, 57
5, 374204, Note_off_c, 3, 50, 0
5, 374204, Note_off_c, 3, 38, 0
5, 374784, Note_on_c, 3, 38, 57
5, 374972, Note_off_c, 3, 38, 0
5, 375552, Note_on_c, 3, 43, 57
5, 375740, Note_off_c, 3, 43, 0
5, 376320, Note_on_c, 3, 43, 57
5, 376508, Note_off_c, 3, 43, 0
5, 376704, Note_on_c, 3, 52, 57
5, 376704, Note_on_c, 3, 40, 57
5, 376892, Note_off_c, 3, 52, 0
5, 376892, Note_off_c, 3, 40, 0
5, 377088, Note_on_c, 3, 45, 57
5, 377276, Note_off_c, 3, 45, 0
5, 377280, Note_on_c, 3, 42, 57
5, 377468, Note_off_c, 3, 42, 0
5, 377472, Note_on_c, 3, 43, 57
5, 377660, Note_off_c, 3, 43, 0
5, 377664, Note_on_c, 3, 40, 57
5, 377852, Note_off_c, 3, 40, 0
5, 377856, Note_on_c, 3, 48, 57
5, 377856, Note_on_c, 3, 36, 57
5, 378236, Note_off_c, 3, 48, 0
5, 378236, Note_off_c, 3, 36, 0
5, 378240, Note_on_c, 3, 49, 57
5, 378240, Note_on_c, 3, 37, 57
5, 378620, Note_off_c, 3, 49, 0
5, 378620, Note_off_c, 3, 37, 0
5, 378624, Note_on_c, 3, 50, 57
5, 378624, Note_on_c, 3, 38, 57
5, 379004, Note_off_c, 3, 50, 0
5, 379004, Note_off_c, 3, 38, 0
5, 379392, Note_on_c, 3, 43, 57
5, 379772, Note_off_c, 3, 43, 0
5, 380160, Note_on_c, 3, 50, 57
5, 380540, Note_off_c, 3, 50, 0
5, 380544, Note_on_c, 3, 55, 57
5, 380924, Note_off_c, 3, 55, 0
5, 380928, Note_on_c, 3, 48, 57
5, 381308, Note_off_c, 3, 48, 0
5, 381312, Note_on_c, 3, 50, 57
5, 381692, Note_off_c, 3, 50, 0
5, 381696, Note_on_c, 3, 43, 57
5, 382076, Note_off_c, 3, 43, 0
5, 382464, Note_on_c, 3, 55, 57
5, 382844, Note_off_c, 3, 55, 0
5, 382848, Note_on_c, 3, 52, 57
5, 383228, Note_off_c, 3, 52, 0
5, 383232, Note_on_c, 3, 57, 57
5, 383420, Note_off_c, 3, 57, 0
5, 383424, Note_on_c, 3, 54, 57
5, 383612, Note_off_c, 3, 54, 0
5, 383616, Note_on_c, 3, 55, 57
5, 383804, Note_off_c, 3, 55, 0
5, 383808, Note_on_c, 3, 52, 57
5, 383996, Note_off_c, 3, 52, 0
5, 384000, Note_on_c, 3, 48, 57
5, 384380, Note_off_c, 3, 48, 0
5, 384384, Note_on_c, 3, 49, 57
5, 384764, Note_off_c, 3, 49, 0
5, 384768, Note_on_c, 3, 62, 68
5, 384768, Note_on_c, 3, 57, 68
5, 384768, Note_on_c, 3, 54, 68
5, 384768, Note_on_c, 3, 50, 68
5, 385532, Note_off_c, 3, 62, 0
5, 385532, Note_off_c, 3, 57, 0
5, 385532, Note_off_c, 3, 54, 0
5, 385532, Note_off_c, 3, 50, 0
5, 385536, Note_on_c, 3, 61, 68
5, 385536, Note_on_c, 3, 55, 68
5, 385536, Note_on_c, 3, 52, 68
5, 385536, Note_on_c, 3, 50, 68
5, 386300, Note_off_c, 3, 61, 0
5, 386300, Note_off_c, 3, 55, 0
5, 386300, Note_off_c, 3, 52, 0
5, 386300, Note_off_c, 3, 50, 0
5, 386304, Note_on_c, 3, 60, 68
5, 386304, Note_on_c, 3, 57, 68
5, 386304, Note_on_c, 3, 54, 68
5, 386304, Note_on_c, 3, 50, 68
5, 387068, Note_off_c, 3, 60, 0
5, 387068, Note_off_c, 3, 57, 0
5, 387068, Note_off_c, 3, 54, 0
5, 387068, Note_off_c, 3, 50, 0
5, 387072, Note_on_c, 3, 59, 68
5, 387072, Note_on_c, 3, 55, 68
5, 387072, Note_on_c, 3, 50, 68
5, 387836, Note_off_c, 3, 59, 0
5, 387836, Note_off_c, 3, 55, 0
5, 387836, Note_off_c, 3, 50, 0
5, 387840, Note_on_c, 3, 62, 68
5, 387840, Note_on_c, 3, 57, 68
5, 387840, Note_on_c, 3, 54, 68
5, 387840, Note_on_c, 3, 50, 68
5, 388028, Note_off_c, 3, 62, 0
5, 388028, Note_off_c, 3, 57, 0
5, 388028, Note_off_c, 3, 54, 0
5, 388028, Note_off_c, 3, 50, 0
5, 389376, Note_on_c, 3, 50, 93
5, 389468, Note_off_c, 3, 50, 0
5, 389472, Note_on_c, 3, 62, 93
5, 389564, Note_off_c, 3, 62, 0
5, 389568, Note_on_c, 3, 50, 93
5, 389660, Note_off_c, 3, 50, 0
5, 389664, Note_on_c, 3, 62, 93
5, 389756, Note_off_c, 3, 62, 0
5, 389760, Note_on_c, 3, 50, 93
5, 389852, Note_off_c, 3, 50, 0
5, 389856, Note_on_c, 3, 62, 93
5, 389948, Note_off_c, 3, 62, 0
5, 389952, Note_on_c, 3, 50, 93
5, 390044, Note_off_c, 3, 50, 0
5, 390048, Note_on_c, 3, 62, 93
5, 390140, Note_off_c, 3, 62, 0
5, 390144, Note_on_c, 3, 50, 93
5, 390236, Note_off_c, 3, 50, 0
5, 390240, Note_on_c, 3, 62, 93
5, 390332, Note_off_c, 3, 62, 0
5, 390336, Note_on_c, 3, 50, 93
5, 390428, Note_off_c, 3, 50, 0
5, 390432, Note_on_c, 3, 62, 93
5, 390524, Note_off_c, 3, 62, 0
5, 390528, Note_on_c, 3, 50, 93
5, 390620, Note_off_c, 3, 50, 0
5, 390624, Note_on_c, 3, 62, 93
5, 390716, Note_off_c, 3, 62, 0
5, 390720, Note_on_c, 3, 50, 93
5, 390812, Note_off_c, 3, 50, 0
5, 390816, Note_on_c, 3, 62, 93
5, 390908, Note_off_c, 3, 62, 0
5, 390912, Note_on_c, 3, 62, 93
5, 390912, Note_on_c, 3, 50, 93
5, 391100, Note_off_c, 3, 62, 0
5, 391100, Note_off_c, 3, 50, 0
5, 391680, Note_on_c, 3, 51, 68
5, 391680, Note_on_c, 3, 39, 68
5, 392444, Note_off_c, 3, 51, 0
5, 392444, Note_off_c, 3, 39, 0
5, 392448, Note_on_c, 3, 48, 68
5, 392448, Note_on_c, 3, 36, 68
5, 393212, Note_off_c, 3, 48, 0
5, 393212, Note_off_c, 3, 36, 0
5, 393216, Note_on_c, 3, 50, 71
5, 393216, Note_on_c, 3, 38, 71
5, 393980, Note_off_c, 3, 50, 0
5, 393980, Note_off_c, 3, 38, 0
5, 393984, Note_on_c, 3, 43, 83
5, 393984, Note_on_c, 3, 31, 83
5, 393984, Note_on_c, 3, 55, 83
5, 394748, Note_off_c, 3, 43, 0
5, 394748, Note_off_c, 3, 31, 0
5, 394748, Note_off_c, 3, 55, 0
5, 394752, Note_on_c, 3, 51, 68
5, 394752, Note_on_c, 3, 39, 68
5, 395516, Note_off_c, 3, 51, 0
5, 395516, Note_off_c, 3, 39, 0
5, 395520, Note_on_c, 3, 48, 68
5, 395520, Note_on_c, 3, 36, 68
5, 396284, Note_off_c, 3, 48, 0
5, 396284, Note_off_c, 3, 36, 0
5, 396288, Note_on_c, 3, 42, 71
5, 396288, Note_on_c, 3, 38, 71
5, 396288, Note_on_c, 3, 62, 71
5, 396380, Note_off_c, 3, 42, 0
5, 396384, Note_on_c, 3, 43, 72
5, 396476, Note_off_c, 3, 43, 0
5, 396480, Note_on_c, 3, 45, 73
5, 396572, Note_off_c, 3, 45, 0
5, 396576, Note_on_c, 3, 47, 75
5, 396668, Note_off_c, 3, 47, 0
5, 396672, Note_on_c, 3, 48, 77
5, 396764, Note_off_c, 3, 48, 0
5, 396768, Note_on_c, 3, 50, 78
5, 396860, Note_off_c, 3, 50, 0
5, 396864, Note_on_c, 3, 52, 80
5, 396956, Note_off_c, 3, 52, 0
5, 396960, Note_on_c, 3, 54, 81
5, 397052, Note_off_c, 3, 38, 0
5, 397052, Note_off_c, 3, 62, 0
5, 397052, Note_off_c, 3, 54, 0
5, 397056, Note_on_c, 3, 55, 83
5, 397056, Note_on_c, 3, 43, 83
5, 397056, Note_on_c, 3, 31, 83
5, 397148, Note_off_c, 3, 55, 0
5, 397152, Note_on_c, 3, 57, 85
5, 397244, Note_off_c, 3, 57, 0
5, 397248, Note_on_c, 3, 59, 86
5, 397340, Note_off_c, 3, 59, 0
5, 397344, Note_on_c, 3, 60, 87
5, 397436, Note_off_c, 3, 60, 0
5, 397440, Note_on_c, 3, 62, 90
5, 397628, Note_off_c, 3, 62, 0
5, 397632, Note_on_c, 3, 62, 92
5, 397820, Note_off_c, 3, 43, 0
5, 397820, Note_off_c, 3, 31, 0
5, 397820, Note_off_c, 3, 62, 0
5, 397824, Note_on_c, 3, 63, 93
5, 397824, Note_on_c, 3, 51, 93
5, 398588, Note_off_c, 3, 63, 0
5, 398588, Note_off_c, 3, 51, 0
5, 398592, Note_on_c, 3, 60, 93
5, 398592, Note_on_c, 3, 48, 93
5, 399356, Note_off_c, 3, 60, 0
5, 399356, Note_off_c, 3, 48, 0
5, 399360, Note_on_c, 3, 62, 93
5, 399360, Note_on_c, 3, 50, 93
5, 400124, Note_off_c, 3, 62, 0
5, 400124, Note_off_c, 3, 50, 0
5, 400128, Note_on_c, 3, 31, 93
5, 400220, Note_off_c, 3, 31, 0
5, 400224, Note_on_c, 3, 43, 93
5, 400316, Note_off_c, 3, 43, 0
5, 400320, Note_on_c, 3, 31, 93
5, 400412, Note_off_c, 3, 31, 0
5, 400416, Note_on_c, 3, 43, 93
5, 400508, Note_off_c, 3, 43, 0
5, 400512, Note_on_c, 3, 31, 93
5, 400604, Note_off_c, 3, 31, 0
5, 400608, Note_on_c, 3, 43, 93
5, 400700, Note_off_c, 3, 43, 0
5, 400704, Note_on_c, 3, 31, 68
5, 400704, Note_on_c, 3, 55, 68
5, 400796, Note_off_c, 3, 31, 0
5, 400800, Note_on_c, 3, 43, 68
5, 400892, Note_off_c, 3, 55, 0
5, 400892, Note_off_c, 3, 43, 0
5, 400896, Note_on_c, 3, 31, 68
5, 400896, Note_on_c, 3, 55, 68
5, 400896, Note_on_c, 3, 60, 68
5, 400988, Note_off_c, 3, 31, 0
5, 400992, Note_on_c, 3, 43, 68
5, 401084, Note_off_c, 3, 55, 0
5, 401084, Note_off_c, 3, 43, 0
5, 401088, Note_on_c, 3, 31, 68
5, 401088, Note_on_c, 3, 54, 68
5, 401180, Note_off_c, 3, 31, 0
5, 401184, Note_on_c, 3, 43, 68
5, 401276, Note_off_c, 3, 54, 0
5, 401276, Note_off_c, 3, 43, 0
5, 401280, Note_on_c, 3, 31, 68
5, 401280, Note_on_c, 3, 54, 68
5, 401372, Note_off_c, 3, 31, 0
5, 401376, Note_on_c, 3, 43, 68
5, 401468, Note_off_c, 3, 60, 0
5, 401468, Note_off_c, 3, 43, 0
5, 401472, Note_on_c, 3, 31, 68
5, 401472, Note_on_c, 3, 60, 68
5, 401564, Note_off_c, 3, 31, 0
5, 401568, Note_on_c, 3, 43, 68
5, 401660, Note_off_c, 3, 54, 0
5, 401660, Note_off_c, 3, 60, 0
5, 401660, Note_off_c, 3, 43, 0
5, 401664, Note_on_c, 3, 31, 68
5, 401664, Note_on_c, 3, 60, 68
5, 401664, Note_on_c, 3, 65, 68
5, 401664, Note_on_c, 3, 62, 68
5, 401756, Note_off_c, 3, 31, 0
5, 401760, Note_on_c, 3, 43, 68
5, 401852, Note_off_c, 3, 60, 0
5, 401852, Note_off_c, 3, 43, 0
5, 401856, Note_on_c, 3, 31, 68
5, 401856, Note_on_c, 3, 59, 68
5, 401948, Note_off_c, 3, 31, 0
5, 401952, Note_on_c, 3, 43, 68
5, 402044, Note_off_c, 3, 59, 0
5, 402044, Note_off_c, 3, 43, 0
5, 402048, Note_on_c, 3, 31, 68
5, 402048, Note_on_c, 3, 59, 68
5, 402140, Note_off_c, 3, 31, 0
5, 402144, Note_on_c, 3, 43, 68
5, 402236, Note_off_c, 3, 65, 0
5, 402236, Note_off_c, 3, 62, 0
5, 402236, Note_off_c, 3, 43, 0
5, 402240, Note_on_c, 3, 31, 68
5, 402240, Note_on_c, 3, 62, 68
5, 402240, Note_on_c, 3, 65, 68
5, 402332, Note_off_c, 3, 31, 0
5, 402336, Note_on_c, 3, 43, 68
5, 402428, Note_off_c, 3, 59, 0
5, 402428, Note_off_c, 3, 62, 0
5, 402428, Note_off_c, 3, 65, 0
5, 402428, Note_off_c, 3, 43, 0
5, 402432, Note_on_c, 3, 31, 68
5, 402524, Note_off_c, 3, 31, 0
5, 402528, Note_on_c, 3, 43, 68
5, 402620, Note_off_c, 3, 43, 0
5, 402624, Note_on_c, 3, 31, 68
5, 402716, Note_off_c, 3, 31, 0
5, 402720, Note_on_c, 3, 43, 68
5, 402812, Note_off_c, 3, 43, 0
5, 402816, Note_on_c, 3, 31, 68
5, 402908, Note_off_c, 3, 31, 0
5, 402912, Note_on_c, 3, 43, 68
5, 403004, Note_off_c, 3, 43, 0
5, 403008, Note_on_c, 3, 31, 68
5, 403100, Note_off_c, 3, 31, 0
5, 403104, Note_on_c, 3, 43, 68
5, 403196, Note_off_c, 3, 43, 0
5, 403200, Note_on_c, 3, 31, 71
5, 403292, Note_off_c, 3, 31, 0
5, 403296, Note_on_c, 3, 43, 72
5, 403388, Note_off_c, 3, 43, 0
5, 403392, Note_on_c, 3, 31, 73
5, 403484, Note_off_c, 3, 31, 0
5, 403488, Note_on_c, 3, 43, 75
5, 403580, Note_off_c, 3, 43, 0
5, 403584, Note_on_c, 3, 31, 77
5, 403676, Note_off_c, 3, 31, 0
5, 403680, Note_on_c, 3, 43, 78
5, 403772, Note_off_c, 3, 43, 0
5, 403776, Note_on_c, 3, 31, 80
5, 403868, Note_off_c, 3, 31, 0
5, 403872, Note_on_c, 3, 43, 81
5, 403964, Note_off_c, 3, 43, 0
5, 403968, Note_on_c, 3, 31, 83
5, 404060, Note_off_c, 3, 31, 0
5, 404064, Note_on_c, 3, 43, 85
5, 404156, Note_off_c, 3, 43, 0
5, 404160, Note_on_c, 3, 31, 86
5, 404252, Note_off_c, 3, 31, 0
5, 404256, Note_on_c, 3, 43, 87
5, 404348, Note_off_c, 3, 43, 0
5, 404352, Note_on_c, 3, 31, 90
5, 404444, Note_off_c, 3, 31, 0
5, 404448, Note_on_c, 3, 43, 91
5, 404540, Note_off_c, 3, 43, 0
5, 404544, Note_on_c, 3, 31, 92
5, 404636, Note_off_c, 3, 31, 0
5, 404640, Note_on_c, 3, 43, 93
5, 404732, Note_off_c, 3, 43, 0
5, 404736, Note_on_c, 3, 31, 93
5, 404828, Note_off_c, 3, 31, 0
5, 404832, Note_on_c, 3, 43, 93
5, 404924, Note_off_c, 3, 43, 0
5, 404928, Note_on_c, 3, 31, 93
5, 405020, Note_off_c, 3, 31, 0
5, 405024, Note_on_c, 3, 43, 93
5, 405116, Note_off_c, 3, 43, 0
5, 405120, Note_on_c, 3, 31, 93
5, 405212, Note_off_c, 3, 31, 0
5, 405216, Note_on_c, 3, 43, 93
5, 405308, Note_off_c, 3, 43, 0
5, 405312, Note_on_c, 3, 31, 93
5, 405404, Note_off_c, 3, 31, 0
5, 405408, Note_on_c, 3, 43, 93
5, 405500, Note_off_c, 3, 43, 0
5, 405504, Note_on_c, 3, 31, 93
5, 405596, Note_off_c, 3, 31, 0
5, 405600, Note_on_c, 3, 43, 93
5, 405692, Note_off_c, 3, 43, 0
5, 405696, Note_on_c, 3, 31, 93
5, 405788, Note_off_c, 3, 31, 0
5, 405792, Note_on_c, 3, 43, 93
5, 405884, Note_off_c, 3, 43, 0
5, 405888, Note_on_c, 3, 31, 93
5, 405980, Note_off_c, 3, 31, 0
5, 405984, Note_on_c, 3, 43, 93
5, 406076, Note_off_c, 3, 43, 0
5, 406080, Note_on_c, 3, 31, 93
5, 406172, Note_off_c, 3, 31, 0
5, 406176, Note_on_c, 3, 43, 93
5, 406268, Note_off_c, 3, 43, 0
5, 406272, Note_on_c, 3, 67, 93
5, 406272, Note_on_c, 3, 62, 93
5, 406272, Note_on_c, 3, 59, 93
5, 406272, Note_on_c, 3, 55, 93
5, 406460, Note_off_c, 3, 67, 0
5, 406460, Note_off_c, 3, 62, 0
5, 406460, Note_off_c, 3, 59, 0
5, 406460, Note_off_c, 3, 55, 0
5, 406464, Note_on_c, 3, 67, 93
5, 406464, Note_on_c, 3, 55, 93
5, 406652, Note_off_c, 3, 67, 0
5, 406652, Note_off_c, 3, 55, 0
5, 406656, Note_on_c, 3, 66, 93
5, 406656, Note_on_c, 3, 62, 93
5, 406656, Note_on_c, 3, 57, 93
5, 406656, Note_on_c, 3, 54, 93
5, 406844, Note_off_c, 3, 66, 0
5, 406844, Note_off_c, 3, 62, 0
5, 406844, Note_off_c, 3, 57, 0
5, 406844, Note_off_c, 3, 54, 0
5, 407040, Note_on_c, 3, 64, 93
5, 407040, Note_on_c, 3, 59, 93
5, 407040, Note_on_c, 3, 55, 93
5, 407040, Note_on_c, 3, 52, 93
5, 407228, Note_off_c, 3, 64, 0
5, 407228, Note_off_c, 3, 59, 0
5, 407228, Note_off_c, 3, 55, 0
5, 407228, Note_off_c, 3, 52, 0
5, 407424, Note_on_c, 3, 62, 93
5, 407424, Note_on_c, 3, 59, 93
5, 407424, Note_on_c, 3, 54, 93
5, 407424, Note_on_c, 3, 50, 93
5, 407612, Note_off_c, 3, 62, 0
5, 407612, Note_off_c, 3, 59, 0
5, 407612, Note_off_c, 3, 54, 0
5, 407612, Note_off_c, 3, 50, 0
5, 407808, Note_on_c, 3, 60, 93
5, 407808, Note_on_c, 3, 55, 93
5, 407808, Note_on_c, 3, 52, 93
5, 407808, Note_on_c, 3, 48, 93
5, 407996, Note_off_c, 3, 60, 0
5, 407996, Note_off_c, 3, 55, 0
5, 407996, Note_off_c, 3, 52, 0
5, 407996, Note_off_c, 3, 48, 0
5, 408192, Note_on_c, 3, 59, 93
5, 408192, Note_on_c, 3, 55, 93
5, 408192, Note_on_c, 3, 50, 93
5, 408192, Note_on_c, 3, 47, 93
5, 408380, Note_off_c, 3, 59, 0
5, 408380, Note_off_c, 3, 55, 0
5, 408380, Note_off_c, 3, 50, 0
5, 408380, Note_off_c, 3, 47, 0
5, 408576, Note_on_c, 3, 57, 93
5, 408576, Note_on_c, 3, 45, 93
5, 409340, Note_off_c, 3, 57, 0
5, 409340, Note_off_c, 3, 45, 0
5, 409344, Note_on_c, 3, 50, 93
5, 409532, Note_off_c, 3, 50, 0
5, 411648, Note_on_c, 3, 62, 93
5, 411648, Note_on_c, 3, 59, 93
5, 411648, Note_on_c, 3, 55, 93
5, 411648, Note_on_c, 3, 67, 93
5, 411836, Note_off_c, 3, 62, 0
5, 411836, Note_off_c, 3, 59, 0
5, 411836, Note_off_c, 3, 55, 0
5, 411836, Note_off_c, 3, 67, 0
5, 411840, Note_on_c, 3, 55, 93
5, 411840, Note_on_c, 3, 67, 93
5, 412028, Note_off_c, 3, 55, 0
5, 412028, Note_off_c, 3, 67, 0
5, 412032, Note_on_c, 3, 66, 93
5, 412032, Note_on_c, 3, 62, 93
5, 412032, Note_on_c, 3, 57, 93
5, 412032, Note_on_c, 3, 54, 93
5, 412220, Note_off_c, 3, 66, 0
5, 412220, Note_off_c, 3, 62, 0
5, 412220, Note_off_c, 3, 57, 0
5, 412220, Note_off_c, 3, 54, 0
5, 412416, Note_on_c, 3, 64, 93
5, 412416, Note_on_c, 3, 59, 93
5, 412416, Note_on_c, 3, 55, 93
5, 412416, Note_on_c, 3, 52, 93
5, 412604, Note_off_c, 3, 64, 0
5, 412604, Note_off_c, 3, 59, 0
5, 412604, Note_off_c, 3, 55, 0
5, 412604, Note_off_c, 3, 52, 0
5, 412800, Note_on_c, 3, 62, 93
5, 412800, Note_on_c, 3, 59, 93
5, 412800, Note_on_c, 3, 54, 93
5, 412800, Note_on_c, 3, 50, 93
5, 412988, Note_off_c, 3, 62, 0
5, 412988, Note_off_c, 3, 59, 0
5, 412988, Note_off_c, 3, 54, 0
5, 412988, Note_off_c, 3, 50, 0
5, 413184, Note_on_c, 3, 60, 93
5, 413184, Note_on_c, 3, 55, 93
5, 413184, Note_on_c, 3, 52, 93
5, 413184, Note_on_c, 3, 48, 93
5, 413372, Note_off_c, 3, 60, 0
5, 413372, Note_off_c, 3, 55, 0
5, 413372, Note_off_c, 3, 52, 0
5, 413372, Note_off_c, 3, 48, 0
5, 413568, Note_on_c, 3, 59, 93
5, 413568, Note_on_c, 3, 55, 93
5, 413568, Note_on_c, 3, 50, 93
5, 413568, Note_on_c, 3, 47, 93
5, 413756, Note_off_c, 3, 59, 0
5, 413756, Note_off_c, 3, 55, 0
5, 413756, Note_off_c, 3, 50, 0
5, 413756, Note_off_c, 3, 47, 0
5, 413952, Note_on_c, 3, 57, 68
5, 413952, Note_on_c, 3, 45, 68
5, 414716, Note_off_c, 3, 57, 0
5, 414716, Note_off_c, 3, 45, 0
5, 414720, Note_on_c, 3, 50, 68
5, 414908, Note_off_c, 3, 50, 0
5, 417024, Note_on_c, 3, 55, 68
5, 417024, Note_on_c, 3, 50, 68
5, 417024, Note_on_c, 3, 47, 68
5, 417024, Note_on_c, 3, 43, 68
5, 417788, Note_off_c, 3, 55, 0
5, 417788, Note_off_c, 3, 50, 0
5, 417788, Note_off_c, 3, 47, 0
5, 417788, Note_off_c, 3, 43, 0
5, 417792, Note_on_c, 3, 54, 68
5, 417792, Note_on_c, 3, 50, 68
5, 417792, Note_on_c, 3, 45, 68
5, 417792, Note_on_c, 3, 43, 68
5, 418556, Note_off_c, 3, 54, 0
5, 418556, Note_off_c, 3, 50, 0
5, 418556, Note_off_c, 3, 45, 0
5, 418556, Note_off_c, 3, 43, 0
5, 418560, Note_on_c, 3, 54, 68
5, 418560, Note_on_c, 3, 50, 68
5, 418560, Note_on_c, 3, 47, 68
5, 418560, Note_on_c, 3, 43, 68
5, 419324, Note_off_c, 3, 54, 0
5, 419324, Note_off_c, 3, 50, 0
5, 419324, Note_off_c, 3, 47, 0
5, 419324, Note_off_c, 3, 43, 0
5, 419328, Note_on_c, 3, 55, 68
5, 419328, Note_on_c, 3, 50, 68
5, 419328, Note_on_c, 3, 43, 68
5, 420092, Note_off_c, 3, 55, 0
5, 420092, Note_off_c, 3, 50, 0
5, 420092, Note_off_c, 3, 43, 0
5, 420096, Note_on_c, 3, 55, 71
5, 420096, Note_on_c, 3, 52, 71
5, 420096, Note_on_c, 3, 43, 71
5, 420860, Note_off_c, 3, 55, 0
5, 420860, Note_off_c, 3, 52, 0
5, 420860, Note_off_c, 3, 43, 0
5, 420864, Note_on_c, 3, 55, 77
5, 420864, Note_on_c, 3, 52, 77
5, 420864, Note_on_c, 3, 48, 77
5, 420864, Note_on_c, 3, 43, 77
5, 421628, Note_off_c, 3, 55, 0
5, 421628, Note_off_c, 3, 52, 0
5, 421628, Note_off_c, 3, 48, 0
5, 421628, Note_off_c, 3, 43, 0
5, 421632, Note_on_c, 3, 51, 85
5, 421632, Note_on_c, 3, 48, 85
5, 421632, Note_on_c, 3, 45, 85
5, 421632, Note_on_c, 3, 43, 85
5, 422396, Note_off_c, 3, 51, 0
5, 422396, Note_off_c, 3, 48, 0
5, 422396, Note_off_c, 3, 45, 0
5, 422396, Note_off_c, 3, 43, 0
5, 422400, Note_on_c, 3, 54, 92
5, 422400, Note_on_c, 3, 50, 92
5, 422400, Note_on_c, 3, 45, 92
5, 422400, Note_on_c, 3, 43, 92
5, 423164, Note_off_c, 3, 54, 0
5, 423164, Note_off_c, 3, 50, 0
5, 423164, Note_off_c, 3, 45, 0
5, 423164, Note_off_c, 3, 43, 0
5, 423168, Note_on_c, 3, 55, 68
5, 423168, Note_on_c, 3, 50, 68
5, 423168, Note_on_c, 3, 47, 68
5, 423168, Note_on_c, 3, 43, 68
5, 423356, Note_off_c, 3, 55, 0
5, 423356, Note_off_c, 3, 50, 0
5, 423356, Note_off_c, 3, 47, 0
5, 423356, Note_off_c, 3, 43, 0
5, 423360, Note_on_c, 3, 59, 68
5, 423452, Note_off_c, 3, 59, 0
5, 423456, Note_on_c, 3, 55, 68
5, 423548, Note_off_c, 3, 55, 0
5, 423552, Note_on_c, 3, 50, 68
5, 423740, Note_off_c, 3, 50, 0
5, 423744, Note_on_c, 3, 62, 68
5, 423932, Note_off_c, 3, 62, 0
5, 423936, Note_on_c, 3, 59, 68
5, 424124, Note_off_c, 3, 59, 0
5, 424128, Note_on_c, 3, 59, 68
5, 424220, Note_off_c, 3, 59, 0
5, 424224, Note_on_c, 3, 55, 68
5, 424316, Note_off_c, 3, 55, 0
5, 424320, Note_on_c, 3, 50, 68
5, 424508, Note_off_c, 3, 50, 0
5, 424512, Note_on_c, 3, 62, 93
5, 424700, Note_off_c, 3, 62, 0
5, 424704, Note_on_c, 3, 59, 95
5, 424892, Note_off_c, 3, 59, 0
5, 424896, Note_on_c, 3, 59, 96
5, 424988, Note_off_c, 3, 59, 0
5, 424992, Note_on_c, 3, 55, 97
5, 425084, Note_off_c, 3, 55, 0
5, 425088, Note_on_c, 3, 50, 97
5, 425276, Note_off_c, 3, 50, 0
5, 425280, Note_on_c, 3, 62, 98
5, 425468, Note_off_c, 3, 62, 0
5, 425472, Note_on_c, 3, 59, 101
5, 425660, Note_off_c, 3, 59, 0
5, 425664, Note_on_c, 3, 59, 102
5, 425756, Note_off_c, 3, 59, 0
5, 425760, Note_on_c, 3, 55, 102
5, 425852, Note_off_c, 3, 55, 0
5, 425856, Note_on_c, 3, 50, 103
5, 426044, Note_off_c, 3, 50, 0
5, 426048, Note_on_c, 3, 62, 105
5, 426236, Note_off_c, 3, 62, 0
5, 426240, Note_on_c, 3, 55, 68
5, 426428, Note_off_c, 3, 55, 0
5, 426624, Note_on_c, 3, 48, 68
5, 426812, Note_off_c, 3, 48, 0
5, 427008, Note_on_c, 3, 50, 68
5, 427196, Note_off_c, 3, 50, 0
5, 427392, Note_on_c, 3, 50, 68
5, 427580, Note_off_c, 3, 50, 0
5, 427584, Note_on_c, 3, 62, 68
5, 427772, Note_off_c, 3, 62, 0
5, 427776, Note_on_c, 3, 59, 68
5, 427776, Note_on_c, 3, 55, 68
5, 427964, Note_off_c, 3, 59, 0
5, 427964, Note_off_c, 3, 55, 0
5, 427968, Note_on_c, 3, 59, 68
5, 428060, Note_off_c, 3, 59, 0
5, 428064, Note_on_c, 3, 55, 68
5, 428156, Note_off_c, 3, 55, 0
5, 428160, Note_on_c, 3, 50, 68
5, 428348, Note_off_c, 3, 50, 0
5, 428352, Note_on_c, 3, 62, 68
5, 428540, Note_off_c, 3, 62, 0
5, 428544, Note_on_c, 3, 59, 68
5, 428732, Note_off_c, 3, 59, 0
5, 428736, Note_on_c, 3, 59, 68
5, 428828, Note_off_c, 3, 59, 0
5, 428832, Note_on_c, 3, 55, 68
5, 428924, Note_off_c, 3, 55, 0
5, 428928, Note_on_c, 3, 50, 68
5, 429116, Note_off_c, 3, 50, 0
5, 429120, Note_on_c, 3, 62, 71
5, 429308, Note_off_c, 3, 62, 0
5, 429312, Note_on_c, 3, 59, 76
5, 429500, Note_off_c, 3, 59, 0
5, 429504, Note_on_c, 3, 59, 81
5, 429596, Note_off_c, 3, 59, 0
5, 429600, Note_on_c, 3, 55, 83
5, 429692, Note_off_c, 3, 55, 0
5, 429696, Note_on_c, 3, 50, 86
5, 429884, Note_off_c, 3, 50, 0
5, 429888, Note_on_c, 3, 62, 91
5, 430076, Note_off_c, 3, 62, 0
5, 430080, Note_on_c, 3, 59, 93
5, 430268, Note_off_c, 3, 59, 0
5, 430272, Note_on_c, 3, 59, 93
5, 430364, Note_off_c, 3, 59, 0
5, 430368, Note_on_c, 3, 55, 93
5, 430460, Note_off_c, 3, 55, 0
5, 430464, Note_on_c, 3, 50, 93
5, 430652, Note_off_c, 3, 50, 0
5, 430656, Note_on_c, 3, 62, 93
5, 430844, Note_off_c, 3, 62, 0
5, 430848, Note_on_c, 3, 55, 93
5, 431036, Note_off_c, 3, 55, 0
5, 431232, Note_on_c, 3, 48, 68
5, 431420, Note_off_c, 3, 48, 0
5, 431616, Note_on_c, 3, 50, 68
5, 431804, Note_off_c, 3, 50, 0
5, 432000, Note_on_c, 3, 48, 68
5, 432188, Note_off_c, 3, 48, 0
5, 432384, Note_on_c, 3, 47, 71
5, 432572, Note_off_c, 3, 47, 0
5, 432768, Note_on_c, 3, 48, 77
5, 432956, Note_off_c, 3, 48, 0
5, 433152, Note_on_c, 3, 50, 83
5, 433340, Note_off_c, 3, 50, 0
5, 433536, Note_on_c, 3, 48, 90
5, 433724, Note_off_c, 3, 48, 0
5, 433920, Note_on_c, 3, 47, 93
5, 434012, Note_off_c, 3, 47, 0
5, 434016, Note_on_c, 3, 59, 93
5, 434108, Note_off_c, 3, 59, 0
5, 434112, Note_on_c, 3, 47, 93
5, 434204, Note_off_c, 3, 47, 0
5, 434208, Note_on_c, 3, 59, 93
5, 434300, Note_off_c, 3, 59, 0
5, 434304, Note_on_c, 3, 48, 93
5, 434396, Note_off_c, 3, 48, 0
5, 434400, Note_on_c, 3, 60, 93
5, 434492, Note_off_c, 3, 60, 0
5, 434496, Note_on_c, 3, 48, 93
5, 434588, Note_off_c, 3, 48, 0
5, 434592, Note_on_c, 3, 60, 93
5, 434684, Note_off_c, 3, 60, 0
5, 434688, Note_on_c, 3, 50, 93
5, 434780, Note_off_c, 3, 50, 0
5, 434784, Note_on_c, 3, 62, 93
5, 434876, Note_off_c, 3, 62, 0
5, 434880, Note_on_c, 3, 50, 93
5, 434972, Note_off_c, 3, 50, 0
5, 434976, Note_on_c, 3, 62, 93
5, 435068, Note_off_c, 3, 62, 0
5, 435072, Note_on_c, 3, 50, 93
5, 435164, Note_off_c, 3, 50, 0
5, 435168, Note_on_c, 3, 62, 93
5, 435260, Note_off_c, 3, 62, 0
5, 435264, Note_on_c, 3, 50, 93
5, 435356, Note_off_c, 3, 50, 0
5, 435360, Note_on_c, 3, 62, 93
5, 435452, Note_off_c, 3, 62, 0
5, 435456, Note_on_c, 3, 55, 93
5, 435456, Note_on_c, 3, 43, 93
5, 435644, Note_off_c, 3, 55, 0
5, 435644, Note_off_c, 3, 43, 0
5, 436224, Note_on_c, 3, 55, 68
5, 436412, Note_off_c, 3, 55, 0
5, 436992, Note_on_c, 3, 50, 68
5, 437180, Note_off_c, 3, 50, 0
5, 437376, Note_on_c, 3, 52, 68
5, 437564, Note_off_c, 3, 52, 0
5, 437760, Note_on_c, 3, 48, 68
5, 437948, Note_off_c, 3, 48, 0
5, 438144, Note_on_c, 3, 50, 68
5, 438332, Note_off_c, 3, 50, 0
5, 438528, Note_on_c, 3, 55, 68
5, 438528, Note_on_c, 3, 43, 68
5, 438716, Note_off_c, 3, 55, 0
5, 438716, Note_off_c, 3, 43, 0
5, 438912, Note_on_c, 3, 57, 68
5, 438912, Note_on_c, 3, 54, 68
5, 438912, Note_on_c, 3, 62, 68
5, 439096, Note_on_c, 3, 57, 68
5, 439100, Note_off_c, 3, 57, 0
5, 439100, Note_off_c, 3, 54, 0
5, 439100, Note_off_c, 3, 62, 0
5, 439104, Note_on_c, 3, 62, 68
5, 439104, Note_on_c, 3, 54, 68
5, 439284, Note_off_c, 3, 57, 0
5, 439292, Note_off_c, 3, 62, 0
5, 439292, Note_off_c, 3, 54, 0
5, 439296, Note_on_c, 3, 62, 68
5, 439296, Note_on_c, 3, 59, 68
5, 439296, Note_on_c, 3, 55, 68
5, 439484, Note_off_c, 3, 62, 0
5, 439484, Note_off_c, 3, 59, 0
5, 439484, Note_off_c, 3, 55, 0
5, 439488, Note_on_c, 3, 62, 68
5, 439488, Note_on_c, 3, 59, 68
5, 439488, Note_on_c, 3, 55, 68
5, 439676, Note_off_c, 3, 62, 0
5, 439676, Note_off_c, 3, 59, 0
5, 439676, Note_off_c, 3, 55, 0
5, 439680, Note_on_c, 3, 62, 68
5, 439680, Note_on_c, 3, 60, 68
5, 439680, Note_on_c, 3, 57, 68
5, 439868, Note_off_c, 3, 62, 0
5, 439868, Note_off_c, 3, 60, 0
5, 439868, Note_off_c, 3, 57, 0
5, 439872, Note_on_c, 3, 62, 68
5, 439872, Note_on_c, 3, 60, 68
5, 439872, Note_on_c, 3, 57, 68
5, 440060, Note_off_c, 3, 62, 0
5, 440060, Note_off_c, 3, 60, 0
5, 440060, Note_off_c, 3, 57, 0
5, 440064, Note_on_c, 3, 62, 68
5, 440064, Note_on_c, 3, 59, 68
5, 440252, Note_off_c, 3, 62, 0
5, 440252, Note_off_c, 3, 59, 0
5, 440832, Note_on_c, 3, 59, 81
5, 441020, Note_off_c, 3, 59, 0
5, 441600, Note_on_c, 3, 57, 81
5, 441788, Note_off_c, 3, 57, 0
5, 441984, Note_on_c, 3, 55, 81
5, 442172, Note_off_c, 3, 55, 0
5, 442368, Note_on_c, 3, 48, 81
5, 442556, Note_off_c, 3, 48, 0
5, 442752, Note_on_c, 3, 50, 81
5, 442940, Note_off_c, 3, 50, 0
5, 443136, Note_on_c, 3, 55, 81
5, 443136, Note_on_c, 3, 43, 81
5, 443324, Note_off_c, 3, 55, 0
5, 443324, Note_off_c, 3, 43, 0
5, 443520, Note_on_c, 3, 62, 68
5, 443520, Note_on_c, 3, 60, 68
5, 443520, Note_on_c, 3, 57, 68
5, 443708, Note_off_c, 3, 62, 0
5, 443708, Note_off_c, 3, 60, 0
5, 443708, Note_off_c, 3, 57, 0
5, 443712, Note_on_c, 3, 57, 68
5, 443712, Note_on_c, 3, 62, 68
5, 443712, Note_on_c, 3, 60, 68
5, 443900, Note_off_c, 3, 57, 0
5, 443900, Note_off_c, 3, 62, 0
5, 443900, Note_off_c, 3, 60, 0
5, 443904, Note_on_c, 3, 62, 68
5, 443904, Note_on_c, 3, 59, 68
5, 443904, Note_on_c, 3, 55, 68
5, 444092, Note_off_c, 3, 62, 0
5, 444092, Note_off_c, 3, 59, 0
5, 444092, Note_off_c, 3, 55, 0
5, 444096, Note_on_c, 3, 62, 68
5, 444096, Note_on_c, 3, 59, 68
5, 444096, Note_on_c, 3, 55, 68
5, 444284, Note_off_c, 3, 62, 0
5, 444284, Note_off_c, 3, 59, 0
5, 444284, Note_off_c, 3, 55, 0
5, 444288, Note_on_c, 3, 62, 68
5, 444288, Note_on_c, 3, 57, 68
5, 444288, Note_on_c, 3, 54, 68
5, 444476, Note_off_c, 3, 62, 0
5, 444476, Note_off_c, 3, 57, 0
5, 444476, Note_off_c, 3, 54, 0
5, 444480, Note_on_c, 3, 62, 68
5, 444480, Note_on_c, 3, 57, 68
5, 444480, Note_on_c, 3, 54, 68
5, 444668, Note_off_c, 3, 62, 0
5, 444668, Note_off_c, 3, 57, 0
5, 444668, Note_off_c, 3, 54, 0
5, 444672, Note_on_c, 3, 62, 68
5, 444672, Note_on_c, 3, 59, 68
5, 444672, Note_on_c, 3, 55, 68
5, 444860, Note_off_c, 3, 62, 0
5, 444860, Note_off_c, 3, 59, 0
5, 444860, Note_off_c, 3, 55, 0
5, 445824, Note_on_c, 3, 50, 93
5, 445916, Note_off_c, 3, 50, 0
5, 445920, Note_on_c, 3, 52, 93
5, 446012, Note_off_c, 3, 52, 0
5, 446016, Note_on_c, 3, 54, 93
5, 446108, Note_off_c, 3, 54, 0
5, 446112, Note_on_c, 3, 50, 93
5, 446204, Note_off_c, 3, 50, 0
5, 446208, Note_on_c, 3, 55, 93
5, 446396, Note_off_c, 3, 55, 0
5, 447360, Note_on_c, 3, 50, 93
5, 447452, Note_off_c, 3, 50, 0
5, 447456, Note_on_c, 3, 52, 93
5, 447548, Note_off_c, 3, 52, 0
5, 447552, Note_on_c, 3, 54, 93
5, 447644, Note_off_c, 3, 54, 0
5, 447648, Note_on_c, 3, 50, 93
5, 447740, Note_off_c, 3, 50, 0
5, 447744, Note_on_c, 3, 55, 93
5, 447744, Note_on_c, 3, 43, 93
5, 448124, Note_off_c, 3, 55, 0
5, 448124, Note_off_c, 3, 43, 0
5, 448124, End_track
6, 0, Start_track
6, 0, Title_t, "B.Fisher"
6, 0, Control_c, 6, 7, 127
6, 0, Control_c, 6, 10, 83
6, 0, Control_c, 6, 91, 0
6, 0, Control_c, 6, 93, 0
6, 0, Key_signature, 1, "major"
6, 1536, Key_signature, 0, "major"
6, 1536, End_track
0, 0, End_of_file
