0, 0, Header, 1, 17, 384
1, 0, Start_track
1, 0, Time_signature, 4, 2, 96, 8
1, 0, Sequencer_specific, 3, 0, 0, 65
1, 0, Sequencer_specific, 5, 0, 0, 119, 14, 0
1, 0, Tempo, 666666
1, 1152, Tempo, 1714285
1, 9984, Tempo, 1578947
1, 10368, Tempo, 1714285
1, 16128, Tempo, 1578947
1, 16512, Tempo, 1714285
1, 28416, Tempo, 1578947
1, 29184, Tempo, 1714285
1, 39744, Tempo, 1578947
1, 39936, Tempo, 1714285
1, 45312, Tempo, 1578947
1, 45696, Tempo, 1714285
1, 51456, Tempo, 1578947
1, 51840, Tempo, 1714285
1, 62784, Tempo, 1578947
1, 62976, Tempo, 1714285
1, 65280, Tempo, 1578947
1, 66048, Tempo, 1714285
1, 66432, Tempo, 1935483
1, 66816, Tempo, 2068965
1, 67584, Tempo, 2222222
1, 67968, Tempo, 1714285
1, 80640, Tempo, 1578947
1, 81408, Tempo, 1714285
1, 83712, Tempo, 1578947
1, 84480, Tempo, 1714285
1, 84480, End_track
2, 0, Start_track
2, 0, Title_t, "Mozart - Violin"
2, 0, Control_c, 0, 0, 0
2, 0, Program_c, 0, 40
2, 0, Control_c, 0, 7, 100
2, 0, Control_c, 0, 10, 66
2, 0, Control_c, 0, 91, 67
2, 0, Control_c, 0, 93, 47
2, 0, Key_signature, 2, "major"
2, 0, Control_c, 0, 121, 0
2, 192, Control_c, 0, 10, 63
2, 384, Control_c, 0, 91, 73
2, 480, Control_c, 0, 93, 35
2, 576, Program_c, 0, 40
2, 672, Control_c, 0, 1, 55
2, 7296, Control_c, 0, 1, 55
2, 7488, Note_on_c, 0, 81, 72
2, 7676, Note_off_c, 0, 81, 64
2, 7680, Note_on_c, 0, 78, 72
2, 7868, Note_off_c, 0, 78, 64
2, 7872, Note_on_c, 0, 81, 72
2, 8060, Note_off_c, 0, 81, 64
2, 8064, Note_on_c, 0, 86, 72
2, 8252, Note_off_c, 0, 86, 64
2, 8256, Note_on_c, 0, 90, 72
2, 8444, Note_off_c, 0, 90, 64
2, 8448, Note_on_c, 0, 88, 72
2, 8540, Note_off_c, 0, 88, 64
2, 8544, Note_on_c, 0, 86, 72
2, 8636, Note_off_c, 0, 86, 64
2, 8640, Note_on_c, 0, 86, 72
2, 9020, Note_off_c, 0, 86, 64
2, 9024, Note_on_c, 0, 88, 72
2, 9068, Note_off_c, 0, 88, 64
2, 9072, Note_on_c, 0, 86, 72
2, 9116, Note_off_c, 0, 86, 64
2, 9120, Note_on_c, 0, 85, 72
2, 9164, Note_off_c, 0, 85, 64
2, 9168, Note_on_c, 0, 83, 72
2, 9212, Note_off_c, 0, 83, 64
2, 9216, Note_on_c, 0, 83, 72
2, 9308, Note_off_c, 0, 83, 64
2, 9312, Note_on_c, 0, 81, 72
2, 9404, Note_off_c, 0, 81, 64
2, 9408, Note_on_c, 0, 81, 72
2, 9788, Note_off_c, 0, 81, 64
2, 9792, Note_on_c, 0, 81, 72
2, 9852, Note_off_c, 0, 81, 64
2, 9856, Note_on_c, 0, 83, 72
2, 9916, Note_off_c, 0, 83, 64
2, 9920, Note_on_c, 0, 79, 72
2, 9980, Note_off_c, 0, 79, 64
2, 9984, Note_on_c, 0, 81, 72
2, 10064, Note_off_c, 0, 81, 64
2, 10064, Note_on_c, 0, 79, 72
2, 10076, Note_off_c, 0, 79, 64
2, 10080, Note_on_c, 0, 81, 72
2, 10092, Note_off_c, 0, 81, 64
2, 10096, Note_on_c, 0, 79, 72
2, 10108, Note_off_c, 0, 79, 64
2, 10112, Note_on_c, 0, 81, 72
2, 10124, Note_off_c, 0, 81, 64
2, 10128, Note_on_c, 0, 79, 72
2, 10140, Note_off_c, 0, 79, 64
2, 10144, Note_on_c, 0, 81, 72
2, 10156, Note_off_c, 0, 81, 64
2, 10160, Note_on_c, 0, 79, 72
2, 10172, Note_off_c, 0, 79, 64
2, 10176, Note_on_c, 0, 81, 72
2, 10188, Note_off_c, 0, 81, 64
2, 10192, Note_on_c, 0, 79, 72
2, 10204, Note_off_c, 0, 79, 64
2, 10208, Note_on_c, 0, 81, 72
2, 10220, Note_off_c, 0, 81, 64
2, 10224, Note_on_c, 0, 79, 72
2, 10236, Note_off_c, 0, 79, 64
2, 10240, Note_on_c, 0, 81, 72
2, 10252, Note_off_c, 0, 81, 64
2, 10256, Note_on_c, 0, 79, 72
2, 10268, Note_off_c, 0, 79, 64
2, 10272, Note_on_c, 0, 81, 72
2, 10284, Note_off_c, 0, 81, 64
2, 10288, Note_on_c, 0, 79, 72
2, 10300, Note_off_c, 0, 79, 64
2, 10304, Note_on_c, 0, 81, 72
2, 10316, Note_off_c, 0, 81, 64
2, 10320, Note_on_c, 0, 79, 72
2, 10332, Note_off_c, 0, 79, 64
2, 10336, Note_on_c, 0, 81, 72
2, 10348, Note_off_c, 0, 81, 64
2, 10352, Note_on_c, 0, 79, 72
2, 10364, Note_off_c, 0, 79, 64
2, 10368, Note_on_c, 0, 78, 72
2, 10556, Note_off_c, 0, 78, 64
2, 10560, Note_on_c, 0, 74, 72
2, 10748, Note_off_c, 0, 74, 64
2, 10752, Note_on_c, 0, 73, 72
2, 10844, Note_off_c, 0, 73, 64
2, 10848, Note_on_c, 0, 71, 72
2, 11228, Note_off_c, 0, 71, 64
2, 11232, Note_on_c, 0, 83, 72
2, 11324, Note_off_c, 0, 83, 64
2, 11328, Note_on_c, 0, 79, 72
2, 11420, Note_off_c, 0, 79, 64
2, 11424, Note_on_c, 0, 76, 72
2, 11516, Note_off_c, 0, 76, 64
2, 11520, Note_on_c, 0, 74, 72
2, 11996, Note_off_c, 0, 74, 64
2, 12000, Note_on_c, 0, 73, 72
2, 12092, Note_off_c, 0, 73, 64
2, 12096, Note_on_c, 0, 74, 72
2, 12188, Note_off_c, 0, 74, 64
2, 12192, Note_on_c, 0, 71, 72
2, 12284, Note_off_c, 0, 71, 64
2, 12288, Note_on_c, 0, 69, 72
2, 12476, Note_off_c, 0, 69, 64
2, 12480, Note_on_c, 0, 70, 72
2, 12540, Note_off_c, 0, 70, 64
2, 12544, Note_on_c, 0, 71, 72
2, 12604, Note_off_c, 0, 71, 64
2, 12608, Note_on_c, 0, 67, 72
2, 12668, Note_off_c, 0, 67, 64
2, 12672, Note_on_c, 0, 66, 72
2, 12860, Note_off_c, 0, 66, 64
2, 12864, Note_on_c, 0, 69, 72
2, 12908, Note_off_c, 0, 69, 64
2, 12912, Note_on_c, 0, 67, 72
2, 12956, Note_off_c, 0, 67, 64
2, 12960, Note_on_c, 0, 66, 72
2, 13004, Note_off_c, 0, 66, 64
2, 13008, Note_on_c, 0, 64, 72
2, 13052, Note_off_c, 0, 64, 64
2, 13056, Note_on_c, 0, 62, 72
2, 13436, Note_off_c, 0, 62, 64
2, 13440, Control_c, 0, 1, 55
2, 13824, Note_on_c, 0, 62, 72
2, 14204, Note_off_c, 0, 62, 64
2, 14208, Note_on_c, 0, 78, 72
2, 14588, Note_off_c, 0, 78, 64
2, 14592, Note_on_c, 0, 78, 72
2, 14604, Note_off_c, 0, 78, 64
2, 14608, Note_on_c, 0, 79, 72
2, 14620, Note_off_c, 0, 79, 64
2, 14624, Note_on_c, 0, 78, 72
2, 14636, Note_off_c, 0, 78, 64
2, 14640, Note_on_c, 0, 79, 72
2, 14652, Note_off_c, 0, 79, 64
2, 14656, Note_on_c, 0, 78, 72
2, 14668, Note_off_c, 0, 78, 64
2, 14672, Note_on_c, 0, 79, 72
2, 14684, Note_off_c, 0, 79, 64
2, 14688, Note_on_c, 0, 76, 72
2, 14784, Note_off_c, 0, 76, 64
2, 14784, Note_on_c, 0, 76, 72
2, 15164, Note_off_c, 0, 76, 64
2, 15168, Note_on_c, 0, 81, 72
2, 15356, Note_off_c, 0, 81, 64
2, 15360, Note_on_c, 0, 81, 72
2, 15548, Note_off_c, 0, 81, 64
2, 15552, Note_on_c, 0, 80, 72
2, 15840, Note_off_c, 0, 80, 64
2, 15840, Note_on_c, 0, 81, 72
2, 15932, Note_off_c, 0, 81, 64
2, 15936, Note_on_c, 0, 83, 72
2, 16032, Note_on_c, 0, 74, 72
2, 16076, Note_off_c, 0, 83, 64
2, 16124, Note_off_c, 0, 74, 64
2, 16128, Note_on_c, 0, 76, 72
2, 16208, Note_off_c, 0, 76, 64
2, 16208, Note_on_c, 0, 74, 72
2, 16220, Note_off_c, 0, 74, 64
2, 16224, Note_on_c, 0, 76, 72
2, 16236, Note_off_c, 0, 76, 64
2, 16240, Note_on_c, 0, 74, 72
2, 16252, Note_off_c, 0, 74, 64
2, 16256, Note_on_c, 0, 76, 72
2, 16268, Note_off_c, 0, 76, 64
2, 16272, Note_on_c, 0, 74, 72
2, 16284, Note_off_c, 0, 74, 64
2, 16288, Note_on_c, 0, 76, 72
2, 16300, Note_off_c, 0, 76, 64
2, 16304, Note_on_c, 0, 74, 72
2, 16316, Note_off_c, 0, 74, 64
2, 16320, Note_on_c, 0, 76, 72
2, 16332, Note_off_c, 0, 76, 64
2, 16336, Note_on_c, 0, 74, 72
2, 16348, Note_off_c, 0, 74, 64
2, 16352, Note_on_c, 0, 76, 72
2, 16364, Note_off_c, 0, 76, 64
2, 16368, Note_on_c, 0, 74, 72
2, 16380, Note_off_c, 0, 74, 64
2, 16384, Note_on_c, 0, 76, 72
2, 16396, Note_off_c, 0, 76, 64
2, 16400, Note_on_c, 0, 74, 72
2, 16412, Note_off_c, 0, 74, 64
2, 16416, Note_on_c, 0, 73, 72
2, 16460, Note_off_c, 0, 73, 64
2, 16464, Note_on_c, 0, 74, 72
2, 16508, Note_off_c, 0, 74, 64
2, 16512, Note_on_c, 0, 73, 72
2, 16700, Note_off_c, 0, 73, 64
2, 16704, Note_on_c, 0, 81, 72
2, 16892, Note_off_c, 0, 81, 64
2, 16896, Note_on_c, 0, 80, 72
2, 16944, Note_off_c, 0, 80, 64
2, 16944, Note_on_c, 0, 78, 72
2, 16992, Note_off_c, 0, 78, 64
2, 17088, Note_on_c, 0, 78, 72
2, 17280, Note_off_c, 0, 78, 64
2, 17280, Note_on_c, 0, 78, 72
2, 17328, Note_off_c, 0, 78, 64
2, 17328, Note_on_c, 0, 76, 72
2, 17376, Note_off_c, 0, 76, 64
2, 17472, Note_on_c, 0, 76, 72
2, 17664, Note_off_c, 0, 76, 64
2, 17664, Note_on_c, 0, 75, 72
2, 18044, Note_off_c, 0, 75, 64
2, 18048, Note_on_c, 0, 74, 72
2, 18428, Note_off_c, 0, 74, 64
2, 18432, Note_on_c, 0, 73, 72
2, 18812, Note_off_c, 0, 73, 64
2, 18816, Note_on_c, 0, 78, 72
2, 19196, Note_off_c, 0, 78, 64
2, 19200, Note_on_c, 0, 69, 72
2, 19580, Note_off_c, 0, 69, 64
2, 19584, Note_on_c, 0, 68, 72
2, 19772, Note_off_c, 0, 68, 64
2, 21120, Control_c, 0, 1, 55
2, 21312, Note_on_c, 0, 76, 72
2, 21452, Note_off_c, 0, 76, 64
2, 21456, Note_on_c, 0, 74, 72
2, 21500, Note_off_c, 0, 74, 64
2, 21504, Note_on_c, 0, 74, 72
2, 21596, Note_off_c, 0, 74, 64
2, 21600, Note_on_c, 0, 73, 72
2, 21692, Note_off_c, 0, 73, 64
2, 21696, Note_on_c, 0, 71, 72
2, 21756, Note_off_c, 0, 71, 64
2, 21760, Note_on_c, 0, 74, 72
2, 21820, Note_off_c, 0, 74, 64
2, 21824, Note_on_c, 0, 78, 72
2, 21884, Note_off_c, 0, 78, 64
2, 21888, Note_on_c, 0, 69, 72
2, 22076, Note_off_c, 0, 69, 64
2, 22080, Note_on_c, 0, 71, 72
2, 22268, Note_off_c, 0, 71, 64
2, 22272, Note_on_c, 0, 71, 72
2, 22556, Note_off_c, 0, 71, 64
2, 22560, Note_on_c, 0, 72, 72
2, 22652, Note_off_c, 0, 72, 64
2, 22656, Note_on_c, 0, 73, 72
2, 22844, Note_off_c, 0, 73, 64
2, 24192, Control_c, 0, 1, 55
2, 24384, Note_on_c, 0, 76, 72
2, 24528, Note_off_c, 0, 76, 64
2, 24528, Note_on_c, 0, 74, 72
2, 24576, Note_off_c, 0, 74, 64
2, 24576, Note_on_c, 0, 74, 72
2, 24620, Note_off_c, 0, 74, 64
2, 24624, Note_on_c, 0, 73, 72
2, 24668, Note_off_c, 0, 73, 64
2, 24672, Note_on_c, 0, 76, 72
2, 24716, Note_off_c, 0, 76, 64
2, 24720, Note_on_c, 0, 73, 72
2, 24764, Note_off_c, 0, 73, 64
2, 24768, Note_on_c, 0, 73, 72
2, 24812, Note_off_c, 0, 73, 64
2, 24816, Note_on_c, 0, 71, 72
2, 24860, Note_off_c, 0, 71, 64
2, 24864, Note_on_c, 0, 74, 72
2, 24908, Note_off_c, 0, 74, 64
2, 24912, Note_on_c, 0, 78, 72
2, 24956, Note_off_c, 0, 78, 64
2, 24960, Note_on_c, 0, 78, 72
2, 24992, Note_off_c, 0, 78, 64
2, 24996, Note_on_c, 0, 69, 72
2, 25148, Note_off_c, 0, 69, 64
2, 25152, Note_on_c, 0, 68, 72
2, 25340, Note_off_c, 0, 68, 64
2, 25344, Note_on_c, 0, 76, 72
2, 25388, Note_off_c, 0, 76, 64
2, 25392, Note_on_c, 0, 75, 72
2, 25728, Note_off_c, 0, 75, 64
2, 25728, Note_on_c, 0, 74, 72
2, 26108, Note_off_c, 0, 74, 64
2, 26112, Note_on_c, 0, 73, 72
2, 26300, Note_off_c, 0, 73, 64
2, 26304, Note_on_c, 0, 73, 72
2, 26364, Note_off_c, 0, 73, 64
2, 26368, Note_on_c, 0, 76, 72
2, 26428, Note_off_c, 0, 76, 64
2, 26432, Note_on_c, 0, 74, 72
2, 26492, Note_off_c, 0, 74, 64
2, 26496, Note_on_c, 0, 71, 72
2, 26556, Note_off_c, 0, 71, 64
2, 26560, Note_on_c, 0, 68, 72
2, 26620, Note_off_c, 0, 68, 64
2, 26624, Note_on_c, 0, 69, 72
2, 26684, Note_off_c, 0, 69, 64
2, 26688, Note_on_c, 0, 73, 72
2, 26748, Note_off_c, 0, 73, 64
2, 26752, Note_on_c, 0, 76, 72
2, 26812, Note_off_c, 0, 76, 64
2, 26816, Note_on_c, 0, 74, 72
2, 26876, Note_off_c, 0, 74, 64
2, 26880, Note_on_c, 0, 71, 72
2, 26940, Note_off_c, 0, 71, 64
2, 26944, Note_on_c, 0, 68, 72
2, 27004, Note_off_c, 0, 68, 64
2, 27008, Note_on_c, 0, 69, 72
2, 27068, Note_off_c, 0, 69, 64
2, 27072, Note_on_c, 0, 85, 72
2, 27132, Note_off_c, 0, 85, 64
2, 27136, Note_on_c, 0, 88, 72
2, 27196, Note_off_c, 0, 88, 64
2, 27200, Note_on_c, 0, 86, 72
2, 27260, Note_off_c, 0, 86, 64
2, 27264, Note_on_c, 0, 85, 72
2, 27324, Note_off_c, 0, 85, 64
2, 27328, Note_on_c, 0, 80, 72
2, 27388, Note_off_c, 0, 80, 64
2, 27392, Note_on_c, 0, 81, 72
2, 27452, Note_off_c, 0, 81, 64
2, 27456, Note_on_c, 0, 78, 72
2, 27516, Note_off_c, 0, 78, 64
2, 27520, Note_on_c, 0, 75, 72
2, 27580, Note_off_c, 0, 75, 64
2, 27584, Note_on_c, 0, 76, 72
2, 27644, Note_off_c, 0, 76, 64
2, 27648, Note_on_c, 0, 76, 72
2, 27740, Note_off_c, 0, 76, 64
2, 27744, Note_on_c, 0, 78, 72
2, 27836, Note_off_c, 0, 78, 64
2, 27840, Note_on_c, 0, 78, 72
2, 28124, Note_off_c, 0, 78, 64
2, 28128, Note_on_c, 0, 81, 72
2, 28220, Note_off_c, 0, 81, 64
2, 28224, Note_on_c, 0, 78, 72
2, 28316, Note_off_c, 0, 78, 64
2, 28320, Note_on_c, 0, 74, 72
2, 28412, Note_off_c, 0, 74, 64
2, 28416, Note_on_c, 0, 73, 72
2, 28508, Note_off_c, 0, 73, 64
2, 28512, Note_on_c, 0, 76, 72
2, 28604, Note_off_c, 0, 76, 64
2, 28608, Note_on_c, 0, 73, 72
2, 28700, Note_off_c, 0, 73, 64
2, 28704, Note_on_c, 0, 69, 72
2, 28796, Note_off_c, 0, 69, 64
2, 28800, Note_on_c, 0, 71, 72
2, 28812, Note_off_c, 0, 71, 64
2, 28816, Note_on_c, 0, 73, 72
2, 28828, Note_off_c, 0, 73, 64
2, 28832, Note_on_c, 0, 71, 72
2, 28844, Note_off_c, 0, 71, 64
2, 28848, Note_on_c, 0, 73, 72
2, 28860, Note_off_c, 0, 73, 64
2, 28864, Note_on_c, 0, 71, 72
2, 28876, Note_off_c, 0, 71, 64
2, 28880, Note_on_c, 0, 73, 72
2, 28892, Note_off_c, 0, 73, 64
2, 28896, Note_on_c, 0, 71, 72
2, 28908, Note_off_c, 0, 71, 64
2, 28912, Note_on_c, 0, 73, 72
2, 28924, Note_off_c, 0, 73, 64
2, 28928, Note_on_c, 0, 71, 72
2, 28940, Note_off_c, 0, 71, 64
2, 28944, Note_on_c, 0, 73, 72
2, 28956, Note_off_c, 0, 73, 64
2, 28960, Note_on_c, 0, 71, 72
2, 28972, Note_off_c, 0, 71, 64
2, 28976, Note_on_c, 0, 73, 72
2, 28988, Note_off_c, 0, 73, 64
2, 28992, Note_on_c, 0, 71, 72
2, 29004, Note_off_c, 0, 71, 64
2, 29008, Note_on_c, 0, 73, 72
2, 29020, Note_off_c, 0, 73, 64
2, 29024, Note_on_c, 0, 71, 72
2, 29036, Note_off_c, 0, 71, 64
2, 29040, Note_on_c, 0, 73, 72
2, 29052, Note_off_c, 0, 73, 64
2, 29056, Note_on_c, 0, 71, 72
2, 29068, Note_off_c, 0, 71, 64
2, 29072, Note_on_c, 0, 73, 72
2, 29084, Note_off_c, 0, 73, 64
2, 29088, Note_on_c, 0, 69, 72
2, 29132, Note_off_c, 0, 69, 64
2, 29136, Note_on_c, 0, 71, 72
2, 29180, Note_off_c, 0, 71, 64
2, 29184, Note_on_c, 0, 69, 72
2, 29564, Note_off_c, 0, 69, 64
2, 31872, Control_c, 0, 1, 55
2, 32064, Note_on_c, 0, 76, 72
2, 32252, Note_off_c, 0, 76, 64
2, 32256, Note_on_c, 0, 73, 72
2, 32444, Note_off_c, 0, 73, 64
2, 32448, Note_on_c, 0, 76, 72
2, 32636, Note_off_c, 0, 76, 64
2, 32640, Note_on_c, 0, 81, 72
2, 32828, Note_off_c, 0, 81, 64
2, 32832, Note_on_c, 0, 85, 72
2, 33020, Note_off_c, 0, 85, 64
2, 33024, Note_on_c, 0, 83, 72
2, 33116, Note_off_c, 0, 83, 64
2, 33120, Note_on_c, 0, 82, 72
2, 33212, Note_off_c, 0, 82, 64
2, 33216, Note_on_c, 0, 82, 72
2, 33596, Note_off_c, 0, 82, 64
2, 33600, Note_on_c, 0, 83, 72
2, 33788, Note_off_c, 0, 83, 64
2, 33792, Note_on_c, 0, 85, 72
2, 33980, Note_off_c, 0, 85, 64
2, 33984, Note_on_c, 0, 88, 72
2, 34172, Note_off_c, 0, 88, 64
2, 34176, Note_on_c, 0, 79, 72
2, 34364, Note_off_c, 0, 79, 64
2, 34368, Note_on_c, 0, 78, 72
2, 34460, Note_off_c, 0, 78, 64
2, 34464, Note_on_c, 0, 76, 72
2, 34556, Note_off_c, 0, 76, 64
2, 34560, Note_on_c, 0, 76, 72
2, 34604, Note_off_c, 0, 76, 64
2, 34608, Note_on_c, 0, 74, 72
2, 34652, Note_off_c, 0, 74, 64
2, 34656, Note_on_c, 0, 73, 72
2, 34700, Note_off_c, 0, 73, 64
2, 34704, Note_on_c, 0, 71, 72
2, 34748, Note_off_c, 0, 71, 64
2, 34752, Note_on_c, 0, 71, 72
2, 34940, Note_off_c, 0, 71, 64
2, 35136, Note_on_c, 0, 71, 72
2, 35324, Note_off_c, 0, 71, 64
2, 35328, Note_on_c, 0, 74, 72
2, 35516, Note_off_c, 0, 74, 64
2, 35520, Note_on_c, 0, 78, 72
2, 35708, Note_off_c, 0, 78, 64
2, 35712, Note_on_c, 0, 83, 72
2, 35900, Note_off_c, 0, 83, 64
2, 35904, Note_on_c, 0, 86, 72
2, 36092, Note_off_c, 0, 86, 64
2, 36096, Note_on_c, 0, 86, 72
2, 36188, Note_off_c, 0, 86, 64
2, 36192, Note_on_c, 0, 84, 72
2, 36284, Note_off_c, 0, 84, 64
2, 36288, Note_on_c, 0, 84, 72
2, 36668, Note_off_c, 0, 84, 64
2, 36672, Note_on_c, 0, 84, 72
2, 37052, Note_off_c, 0, 84, 64
2, 37056, Note_on_c, 0, 81, 72
2, 37244, Note_off_c, 0, 81, 64
2, 37248, Note_on_c, 0, 78, 72
2, 37436, Note_off_c, 0, 78, 64
2, 37440, Note_on_c, 0, 72, 72
2, 37628, Note_off_c, 0, 72, 64
2, 37632, Note_on_c, 0, 72, 72
2, 37724, Note_off_c, 0, 72, 64
2, 37728, Note_on_c, 0, 71, 72
2, 37820, Note_off_c, 0, 71, 64
2, 37824, Note_on_c, 0, 71, 72
2, 38204, Note_off_c, 0, 71, 64
2, 38208, Note_on_c, 0, 71, 72
2, 38588, Note_off_c, 0, 71, 64
2, 38592, Note_on_c, 0, 83, 72
2, 38780, Note_off_c, 0, 83, 64
2, 38784, Note_on_c, 0, 81, 72
2, 38876, Note_off_c, 0, 81, 64
2, 38880, Note_on_c, 0, 79, 72
2, 38972, Note_off_c, 0, 79, 64
2, 38976, Note_on_c, 0, 78, 72
2, 39068, Note_off_c, 0, 78, 64
2, 39072, Note_on_c, 0, 76, 72
2, 39164, Note_off_c, 0, 76, 64
2, 39168, Note_on_c, 0, 74, 72
2, 39260, Note_off_c, 0, 74, 64
2, 39264, Note_on_c, 0, 73, 72
2, 39356, Note_off_c, 0, 73, 64
2, 39360, Note_on_c, 0, 73, 72
2, 39740, Note_off_c, 0, 73, 64
2, 39744, Note_on_c, 0, 73, 72
2, 39756, Note_off_c, 0, 73, 64
2, 39760, Note_on_c, 0, 74, 72
2, 39772, Note_off_c, 0, 74, 64
2, 39776, Note_on_c, 0, 73, 72
2, 39788, Note_off_c, 0, 73, 64
2, 39792, Note_on_c, 0, 74, 72
2, 39804, Note_off_c, 0, 74, 64
2, 39808, Note_on_c, 0, 73, 72
2, 39820, Note_off_c, 0, 73, 64
2, 39824, Note_on_c, 0, 74, 72
2, 39836, Note_off_c, 0, 74, 64
2, 39840, Note_on_c, 0, 73, 72
2, 39852, Note_off_c, 0, 73, 64
2, 39856, Note_on_c, 0, 74, 72
2, 39868, Note_off_c, 0, 74, 64
2, 39872, Note_on_c, 0, 73, 72
2, 39884, Note_off_c, 0, 73, 64
2, 39888, Note_on_c, 0, 74, 72
2, 39900, Note_off_c, 0, 74, 64
2, 39904, Note_on_c, 0, 71, 72
2, 39916, Note_off_c, 0, 71, 64
2, 39920, Note_on_c, 0, 73, 72
2, 39932, Note_off_c, 0, 73, 64
2, 39936, Note_on_c, 0, 74, 72
2, 40124, Note_off_c, 0, 74, 64
2, 40128, Note_on_c, 0, 77, 72
2, 40508, Note_off_c, 0, 77, 64
2, 40512, Note_on_c, 0, 76, 72
2, 40604, Note_off_c, 0, 76, 64
2, 40608, Note_on_c, 0, 74, 72
2, 40700, Note_off_c, 0, 74, 64
2, 40704, Note_on_c, 0, 74, 72
2, 40764, Note_off_c, 0, 74, 64
2, 40768, Note_on_c, 0, 80, 72
2, 40828, Note_off_c, 0, 80, 64
2, 40832, Note_on_c, 0, 81, 72
2, 40892, Note_off_c, 0, 81, 64
2, 40960, Note_on_c, 0, 75, 72
2, 41020, Note_off_c, 0, 75, 64
2, 41024, Note_on_c, 0, 76, 72
2, 41084, Note_off_c, 0, 76, 64
2, 41152, Note_on_c, 0, 72, 72
2, 41212, Note_off_c, 0, 72, 64
2, 41216, Note_on_c, 0, 73, 72
2, 41276, Note_off_c, 0, 73, 64
2, 41344, Note_on_c, 0, 68, 72
2, 41404, Note_off_c, 0, 68, 64
2, 41408, Note_on_c, 0, 69, 72
2, 41468, Note_off_c, 0, 69, 64
2, 41472, Note_on_c, 0, 57, 72
2, 41852, Note_off_c, 0, 57, 64
2, 42624, Control_c, 0, 1, 55
2, 42816, Note_on_c, 0, 81, 72
2, 43004, Note_off_c, 0, 81, 64
2, 43008, Note_on_c, 0, 78, 72
2, 43196, Note_off_c, 0, 78, 64
2, 43200, Note_on_c, 0, 81, 72
2, 43388, Note_off_c, 0, 81, 64
2, 43392, Note_on_c, 0, 86, 72
2, 43580, Note_off_c, 0, 86, 64
2, 43584, Note_on_c, 0, 90, 72
2, 43772, Note_off_c, 0, 90, 64
2, 43776, Note_on_c, 0, 88, 72
2, 43868, Note_off_c, 0, 88, 64
2, 43872, Note_on_c, 0, 86, 72
2, 43964, Note_off_c, 0, 86, 64
2, 43968, Note_on_c, 0, 86, 72
2, 44348, Note_off_c, 0, 86, 64
2, 44352, Note_on_c, 0, 88, 72
2, 44396, Note_off_c, 0, 88, 64
2, 44400, Note_on_c, 0, 86, 72
2, 44444, Note_off_c, 0, 86, 64
2, 44448, Note_on_c, 0, 85, 72
2, 44492, Note_off_c, 0, 85, 64
2, 44496, Note_on_c, 0, 83, 72
2, 44540, Note_off_c, 0, 83, 64
2, 44544, Note_on_c, 0, 83, 72
2, 44636, Note_off_c, 0, 83, 64
2, 44640, Note_on_c, 0, 81, 72
2, 44732, Note_off_c, 0, 81, 64
2, 44736, Note_on_c, 0, 81, 72
2, 45116, Note_off_c, 0, 81, 64
2, 45120, Note_on_c, 0, 81, 72
2, 45180, Note_off_c, 0, 81, 64
2, 45184, Note_on_c, 0, 83, 72
2, 45244, Note_off_c, 0, 83, 64
2, 45248, Note_on_c, 0, 79, 72
2, 45308, Note_off_c, 0, 79, 64
2, 45312, Note_on_c, 0, 81, 72
2, 45392, Note_off_c, 0, 81, 64
2, 45392, Note_on_c, 0, 79, 72
2, 45404, Note_off_c, 0, 79, 64
2, 45408, Note_on_c, 0, 81, 72
2, 45420, Note_off_c, 0, 81, 64
2, 45424, Note_on_c, 0, 79, 72
2, 45436, Note_off_c, 0, 79, 64
2, 45440, Note_on_c, 0, 81, 72
2, 45452, Note_off_c, 0, 81, 64
2, 45456, Note_on_c, 0, 79, 72
2, 45468, Note_off_c, 0, 79, 64
2, 45472, Note_on_c, 0, 81, 72
2, 45484, Note_off_c, 0, 81, 64
2, 45488, Note_on_c, 0, 79, 72
2, 45500, Note_off_c, 0, 79, 64
2, 45504, Note_on_c, 0, 81, 72
2, 45516, Note_off_c, 0, 81, 64
2, 45520, Note_on_c, 0, 79, 72
2, 45532, Note_off_c, 0, 79, 64
2, 45536, Note_on_c, 0, 81, 72
2, 45548, Note_off_c, 0, 81, 64
2, 45552, Note_on_c, 0, 79, 72
2, 45564, Note_off_c, 0, 79, 64
2, 45568, Note_on_c, 0, 81, 72
2, 45580, Note_off_c, 0, 81, 64
2, 45584, Note_on_c, 0, 79, 72
2, 45596, Note_off_c, 0, 79, 64
2, 45600, Note_on_c, 0, 81, 72
2, 45612, Note_off_c, 0, 81, 64
2, 45624, Note_on_c, 0, 79, 72
2, 45632, Note_on_c, 0, 81, 72
2, 45636, Note_off_c, 0, 79, 64
2, 45644, Note_off_c, 0, 81, 64
2, 45648, Note_on_c, 0, 79, 72
2, 45660, Note_off_c, 0, 79, 64
2, 45664, Note_on_c, 0, 81, 72
2, 45676, Note_off_c, 0, 81, 64
2, 45680, Note_on_c, 0, 79, 72
2, 45692, Note_off_c, 0, 79, 64
2, 45696, Note_on_c, 0, 78, 72
2, 45884, Note_off_c, 0, 78, 64
2, 45888, Note_on_c, 0, 74, 72
2, 46076, Note_off_c, 0, 74, 64
2, 46080, Note_on_c, 0, 73, 72
2, 46172, Note_off_c, 0, 73, 64
2, 46192, Note_on_c, 0, 71, 72
2, 46560, Note_on_c, 0, 83, 72
2, 46572, Note_off_c, 0, 71, 64
2, 46652, Note_off_c, 0, 83, 64
2, 46656, Note_on_c, 0, 81, 72
2, 46700, Note_off_c, 0, 81, 64
2, 46704, Note_on_c, 0, 79, 72
2, 46748, Note_off_c, 0, 79, 64
2, 46752, Note_on_c, 0, 78, 72
2, 46796, Note_off_c, 0, 78, 64
2, 46800, Note_on_c, 0, 76, 72
2, 46844, Note_off_c, 0, 76, 64
2, 46848, Note_on_c, 0, 74, 72
2, 47324, Note_off_c, 0, 74, 64
2, 47328, Note_on_c, 0, 73, 72
2, 47420, Note_off_c, 0, 73, 64
2, 47424, Note_on_c, 0, 74, 72
2, 47516, Note_off_c, 0, 74, 64
2, 47520, Note_on_c, 0, 71, 72
2, 47612, Note_off_c, 0, 71, 64
2, 47616, Note_on_c, 0, 69, 72
2, 47804, Note_off_c, 0, 69, 64
2, 47808, Note_on_c, 0, 70, 72
2, 47868, Note_off_c, 0, 70, 64
2, 47872, Note_on_c, 0, 71, 72
2, 47932, Note_off_c, 0, 71, 64
2, 47936, Note_on_c, 0, 67, 72
2, 47996, Note_off_c, 0, 67, 64
2, 48000, Note_on_c, 0, 66, 72
2, 48188, Note_off_c, 0, 66, 64
2, 48192, Note_on_c, 0, 69, 72
2, 48236, Note_off_c, 0, 69, 64
2, 48240, Note_on_c, 0, 67, 72
2, 48284, Note_off_c, 0, 67, 64
2, 48288, Note_on_c, 0, 66, 72
2, 48332, Note_off_c, 0, 66, 64
2, 48336, Note_on_c, 0, 64, 72
2, 48380, Note_off_c, 0, 64, 64
2, 48384, Note_on_c, 0, 62, 72
2, 48764, Note_off_c, 0, 62, 64
2, 48768, Control_c, 0, 1, 55
2, 49152, Note_on_c, 0, 55, 72
2, 49532, Note_off_c, 0, 55, 64
2, 49536, Note_on_c, 0, 83, 72
2, 49916, Note_off_c, 0, 83, 64
2, 49920, Note_on_c, 0, 83, 72
2, 49932, Note_off_c, 0, 83, 64
2, 49936, Note_on_c, 0, 85, 72
2, 49948, Note_off_c, 0, 85, 64
2, 49952, Note_on_c, 0, 83, 72
2, 49964, Note_off_c, 0, 83, 64
2, 49968, Note_on_c, 0, 85, 72
2, 49980, Note_off_c, 0, 85, 64
2, 49984, Note_on_c, 0, 83, 72
2, 49996, Note_off_c, 0, 83, 64
2, 50000, Note_on_c, 0, 85, 72
2, 50012, Note_off_c, 0, 85, 64
2, 50016, Note_on_c, 0, 81, 72
2, 50108, Note_off_c, 0, 81, 64
2, 50112, Note_on_c, 0, 81, 72
2, 50492, Note_off_c, 0, 81, 64
2, 50496, Note_on_c, 0, 86, 72
2, 50684, Note_off_c, 0, 86, 64
2, 50688, Note_on_c, 0, 86, 72
2, 50876, Note_off_c, 0, 86, 64
2, 50880, Note_on_c, 0, 85, 72
2, 51164, Note_off_c, 0, 85, 64
2, 51168, Note_on_c, 0, 86, 72
2, 51260, Note_off_c, 0, 86, 64
2, 51264, Note_on_c, 0, 88, 72
2, 51356, Note_off_c, 0, 88, 64
2, 51360, Note_on_c, 0, 79, 72
2, 51452, Note_off_c, 0, 79, 64
2, 51456, Note_on_c, 0, 81, 72
2, 51536, Note_off_c, 0, 81, 64
2, 51536, Note_on_c, 0, 79, 72
2, 51548, Note_off_c, 0, 79, 64
2, 51552, Note_on_c, 0, 81, 72
2, 51564, Note_off_c, 0, 81, 64
2, 51568, Note_on_c, 0, 79, 72
2, 51580, Note_off_c, 0, 79, 64
2, 51584, Note_on_c, 0, 81, 72
2, 51596, Note_off_c, 0, 81, 64
2, 51600, Note_on_c, 0, 79, 72
2, 51612, Note_off_c, 0, 79, 64
2, 51616, Note_on_c, 0, 81, 72
2, 51628, Note_off_c, 0, 81, 64
2, 51632, Note_on_c, 0, 79, 72
2, 51644, Note_off_c, 0, 79, 64
2, 51648, Note_on_c, 0, 81, 72
2, 51660, Note_off_c, 0, 81, 64
2, 51664, Note_on_c, 0, 79, 72
2, 51676, Note_off_c, 0, 79, 64
2, 51680, Note_on_c, 0, 81, 72
2, 51692, Note_off_c, 0, 81, 64
2, 51696, Note_on_c, 0, 79, 72
2, 51708, Note_off_c, 0, 79, 64
2, 51712, Note_on_c, 0, 81, 72
2, 51724, Note_off_c, 0, 81, 64
2, 51728, Note_on_c, 0, 79, 72
2, 51740, Note_off_c, 0, 79, 64
2, 51744, Note_on_c, 0, 81, 72
2, 51756, Note_off_c, 0, 81, 64
2, 51760, Note_on_c, 0, 79, 72
2, 51772, Note_off_c, 0, 79, 64
2, 51776, Note_on_c, 0, 81, 72
2, 51788, Note_off_c, 0, 81, 64
2, 51792, Note_on_c, 0, 79, 72
2, 51804, Note_off_c, 0, 79, 64
2, 51808, Note_on_c, 0, 81, 72
2, 51820, Note_off_c, 0, 81, 64
2, 51824, Note_on_c, 0, 79, 72
2, 51836, Note_off_c, 0, 79, 64
2, 51840, Note_on_c, 0, 78, 72
2, 52028, Note_off_c, 0, 78, 64
2, 52032, Note_on_c, 0, 86, 72
2, 52220, Note_off_c, 0, 86, 64
2, 52224, Note_on_c, 0, 85, 72
2, 52268, Note_off_c, 0, 85, 64
2, 52272, Note_on_c, 0, 83, 72
2, 52412, Note_off_c, 0, 83, 64
2, 52416, Note_on_c, 0, 83, 72
2, 52604, Note_off_c, 0, 83, 64
2, 52608, Note_on_c, 0, 83, 72
2, 52652, Note_off_c, 0, 83, 64
2, 52656, Note_on_c, 0, 81, 72
2, 52796, Note_off_c, 0, 81, 64
2, 52800, Note_on_c, 0, 81, 72
2, 52988, Note_off_c, 0, 81, 64
2, 52992, Note_on_c, 0, 80, 72
2, 53372, Note_off_c, 0, 80, 64
2, 53376, Note_on_c, 0, 79, 72
2, 53756, Note_off_c, 0, 79, 64
2, 53760, Note_on_c, 0, 78, 72
2, 54140, Note_off_c, 0, 78, 64
2, 54144, Note_on_c, 0, 83, 72
2, 54524, Note_off_c, 0, 83, 64
2, 54528, Note_on_c, 0, 74, 72
2, 54908, Note_off_c, 0, 74, 64
2, 54912, Note_on_c, 0, 73, 72
2, 55100, Note_off_c, 0, 73, 64
2, 56448, Control_c, 0, 1, 55
2, 56640, Note_on_c, 0, 81, 72
2, 56780, Note_off_c, 0, 81, 64
2, 56784, Note_on_c, 0, 79, 72
2, 56828, Note_off_c, 0, 79, 64
2, 56832, Note_on_c, 0, 79, 72
2, 56924, Note_off_c, 0, 79, 64
2, 56928, Note_on_c, 0, 78, 72
2, 57020, Note_off_c, 0, 78, 64
2, 57024, Note_on_c, 0, 76, 72
2, 57084, Note_off_c, 0, 76, 64
2, 57088, Note_on_c, 0, 79, 72
2, 57148, Note_off_c, 0, 79, 64
2, 57152, Note_on_c, 0, 83, 72
2, 57212, Note_off_c, 0, 83, 64
2, 57216, Note_on_c, 0, 74, 72
2, 57404, Note_off_c, 0, 74, 64
2, 57408, Note_on_c, 0, 76, 72
2, 57596, Note_off_c, 0, 76, 64
2, 57600, Note_on_c, 0, 76, 72
2, 57884, Note_off_c, 0, 76, 64
2, 57888, Note_on_c, 0, 77, 72
2, 57980, Note_off_c, 0, 77, 64
2, 57984, Note_on_c, 0, 78, 72
2, 58172, Note_off_c, 0, 78, 64
2, 59520, Control_c, 0, 1, 55
2, 59712, Note_on_c, 0, 69, 72
2, 59852, Note_off_c, 0, 69, 64
2, 59856, Note_on_c, 0, 67, 72
2, 59900, Note_off_c, 0, 67, 64
2, 59904, Note_on_c, 0, 66, 72
2, 59948, Note_off_c, 0, 66, 64
2, 59952, Note_on_c, 0, 69, 72
2, 59996, Note_off_c, 0, 69, 64
2, 60000, Note_on_c, 0, 67, 72
2, 60044, Note_off_c, 0, 67, 64
2, 60048, Note_on_c, 0, 66, 72
2, 60092, Note_off_c, 0, 66, 64
2, 60096, Note_on_c, 0, 64, 72
2, 60140, Note_off_c, 0, 64, 64
2, 60144, Note_on_c, 0, 67, 72
2, 60188, Note_off_c, 0, 67, 64
2, 60192, Note_on_c, 0, 69, 72
2, 60236, Note_off_c, 0, 69, 64
2, 60240, Note_on_c, 0, 71, 72
2, 60284, Note_off_c, 0, 71, 64
2, 60288, Note_on_c, 0, 62, 72
2, 60476, Note_off_c, 0, 62, 64
2, 60480, Note_on_c, 0, 61, 72
2, 60620, Note_off_c, 0, 61, 64
2, 60624, Note_on_c, 0, 81, 72
2, 60648, Note_off_c, 0, 81, 64
2, 60672, Note_on_c, 0, 80, 72
2, 61052, Note_off_c, 0, 80, 64
2, 61056, Note_on_c, 0, 79, 72
2, 61244, Note_off_c, 0, 79, 64
2, 61440, Note_on_c, 0, 78, 72
2, 61500, Note_off_c, 0, 78, 64
2, 61504, Note_on_c, 0, 81, 72
2, 61564, Note_off_c, 0, 81, 64
2, 61568, Note_on_c, 0, 81, 72
2, 61600, Note_off_c, 0, 81, 64
2, 61632, Note_on_c, 0, 81, 72
2, 61692, Note_off_c, 0, 81, 64
2, 61696, Note_on_c, 0, 78, 72
2, 61756, Note_off_c, 0, 78, 64
2, 61760, Note_on_c, 0, 74, 72
2, 61792, Note_off_c, 0, 74, 64
2, 61824, Note_on_c, 0, 74, 72
2, 61884, Note_off_c, 0, 74, 64
2, 61888, Note_on_c, 0, 86, 72
2, 61948, Note_off_c, 0, 86, 64
2, 61952, Note_on_c, 0, 86, 72
2, 61984, Note_off_c, 0, 86, 64
2, 62016, Note_on_c, 0, 86, 72
2, 62076, Note_off_c, 0, 86, 64
2, 62080, Note_on_c, 0, 83, 72
2, 62140, Note_off_c, 0, 83, 64
2, 62144, Note_on_c, 0, 79, 72
2, 62204, Note_off_c, 0, 79, 64
2, 62208, Note_on_c, 0, 78, 72
2, 62300, Note_off_c, 0, 78, 64
2, 62304, Note_on_c, 0, 79, 72
2, 62396, Note_off_c, 0, 79, 64
2, 62400, Note_on_c, 0, 80, 72
2, 62492, Note_off_c, 0, 80, 64
2, 62496, Note_on_c, 0, 81, 72
2, 62588, Note_off_c, 0, 81, 64
2, 62592, Note_on_c, 0, 74, 72
2, 62632, Note_off_c, 0, 74, 64
2, 62640, Note_on_c, 0, 76, 72
2, 62680, Note_off_c, 0, 76, 64
2, 62688, Note_on_c, 0, 78, 72
2, 62728, Note_off_c, 0, 78, 64
2, 62736, Note_on_c, 0, 76, 72
2, 62748, Note_off_c, 0, 76, 64
2, 62752, Note_on_c, 0, 78, 72
2, 62764, Note_off_c, 0, 78, 64
2, 62768, Note_on_c, 0, 76, 72
2, 62780, Note_off_c, 0, 76, 64
2, 62784, Note_on_c, 0, 78, 72
2, 62796, Note_off_c, 0, 78, 64
2, 62800, Note_on_c, 0, 76, 72
2, 62812, Note_off_c, 0, 76, 64
2, 62816, Note_on_c, 0, 78, 72
2, 62828, Note_off_c, 0, 78, 64
2, 62832, Note_on_c, 0, 76, 72
2, 62844, Note_off_c, 0, 76, 64
2, 62848, Note_on_c, 0, 78, 72
2, 62860, Note_off_c, 0, 78, 64
2, 62864, Note_on_c, 0, 76, 72
2, 62876, Note_off_c, 0, 76, 64
2, 62880, Note_on_c, 0, 74, 72
2, 62924, Note_off_c, 0, 74, 64
2, 62928, Note_on_c, 0, 76, 72
2, 62972, Note_off_c, 0, 76, 64
2, 62976, Note_on_c, 0, 78, 72
2, 63228, Note_off_c, 0, 78, 64
2, 63232, Note_on_c, 0, 81, 72
2, 63292, Note_off_c, 0, 81, 64
2, 63296, Note_on_c, 0, 79, 72
2, 63356, Note_off_c, 0, 79, 64
2, 63360, Note_on_c, 0, 76, 72
2, 63420, Note_off_c, 0, 76, 64
2, 63424, Note_on_c, 0, 73, 72
2, 63484, Note_off_c, 0, 73, 64
2, 63488, Note_on_c, 0, 74, 72
2, 63548, Note_off_c, 0, 74, 64
2, 63552, Note_on_c, 0, 78, 72
2, 63612, Note_off_c, 0, 78, 64
2, 63616, Note_on_c, 0, 81, 72
2, 63676, Note_off_c, 0, 81, 64
2, 63680, Note_on_c, 0, 79, 72
2, 63740, Note_off_c, 0, 79, 64
2, 63744, Note_on_c, 0, 76, 72
2, 63804, Note_off_c, 0, 76, 64
2, 63808, Note_on_c, 0, 73, 72
2, 63868, Note_off_c, 0, 73, 64
2, 63872, Note_on_c, 0, 74, 72
2, 63932, Note_off_c, 0, 74, 64
2, 63936, Note_on_c, 0, 86, 72
2, 63996, Note_off_c, 0, 86, 64
2, 64000, Note_on_c, 0, 84, 72
2, 64060, Note_off_c, 0, 84, 64
2, 64064, Note_on_c, 0, 85, 72
2, 64124, Note_off_c, 0, 85, 64
2, 64128, Note_on_c, 0, 83, 72
2, 64188, Note_off_c, 0, 83, 64
2, 64192, Note_on_c, 0, 80, 72
2, 64252, Note_off_c, 0, 80, 64
2, 64256, Note_on_c, 0, 81, 72
2, 64316, Note_off_c, 0, 81, 64
2, 64320, Note_on_c, 0, 79, 72
2, 64380, Note_off_c, 0, 79, 64
2, 64384, Note_on_c, 0, 76, 72
2, 64444, Note_off_c, 0, 76, 64
2, 64448, Note_on_c, 0, 78, 72
2, 64508, Note_off_c, 0, 78, 64
2, 64512, Note_on_c, 0, 69, 72
2, 64604, Note_off_c, 0, 69, 64
2, 64608, Note_on_c, 0, 81, 72
2, 64700, Note_off_c, 0, 81, 64
2, 64704, Note_on_c, 0, 81, 72
2, 64992, Note_off_c, 0, 81, 64
2, 64992, Note_on_c, 0, 83, 72
2, 65084, Note_off_c, 0, 83, 64
2, 65088, Note_on_c, 0, 85, 72
2, 65180, Note_off_c, 0, 85, 64
2, 65184, Note_on_c, 0, 86, 72
2, 65276, Note_off_c, 0, 86, 64
2, 65280, Note_on_c, 0, 76, 72
2, 65292, Note_off_c, 0, 76, 64
2, 65296, Note_on_c, 0, 78, 72
2, 65308, Note_off_c, 0, 78, 64
2, 65312, Note_on_c, 0, 76, 72
2, 65324, Note_off_c, 0, 76, 64
2, 65328, Note_on_c, 0, 78, 72
2, 65340, Note_off_c, 0, 78, 64
2, 65344, Note_on_c, 0, 76, 72
2, 65356, Note_off_c, 0, 76, 64
2, 65360, Note_on_c, 0, 78, 72
2, 65372, Note_off_c, 0, 78, 64
2, 65376, Note_on_c, 0, 76, 72
2, 65388, Note_off_c, 0, 76, 64
2, 65392, Note_on_c, 0, 78, 72
2, 65404, Note_off_c, 0, 78, 64
2, 65408, Note_on_c, 0, 76, 72
2, 65420, Note_off_c, 0, 76, 64
2, 65424, Note_on_c, 0, 78, 72
2, 65436, Note_off_c, 0, 78, 64
2, 65440, Note_on_c, 0, 76, 72
2, 65452, Note_off_c, 0, 76, 64
2, 65456, Note_on_c, 0, 78, 72
2, 65468, Note_off_c, 0, 78, 64
2, 65472, Note_on_c, 0, 76, 72
2, 65484, Note_off_c, 0, 76, 64
2, 65488, Note_on_c, 0, 78, 72
2, 65500, Note_off_c, 0, 78, 64
2, 65504, Note_on_c, 0, 76, 72
2, 65516, Note_off_c, 0, 76, 64
2, 65520, Note_on_c, 0, 78, 72
2, 65532, Note_off_c, 0, 78, 64
2, 65536, Note_on_c, 0, 76, 72
2, 65548, Note_off_c, 0, 76, 64
2, 65552, Note_on_c, 0, 78, 72
2, 65564, Note_off_c, 0, 78, 64
2, 65568, Note_on_c, 0, 76, 72
2, 65580, Note_off_c, 0, 76, 64
2, 65584, Note_on_c, 0, 78, 72
2, 65596, Note_off_c, 0, 78, 64
2, 65600, Note_on_c, 0, 76, 72
2, 65612, Note_off_c, 0, 76, 64
2, 65616, Note_on_c, 0, 78, 72
2, 65628, Note_off_c, 0, 78, 64
2, 65632, Note_on_c, 0, 76, 72
2, 65644, Note_off_c, 0, 76, 64
2, 65648, Note_on_c, 0, 78, 72
2, 65660, Note_off_c, 0, 78, 64
2, 65664, Note_on_c, 0, 76, 72
2, 65676, Note_off_c, 0, 76, 64
2, 65680, Note_on_c, 0, 78, 72
2, 65692, Note_off_c, 0, 78, 64
2, 65696, Note_on_c, 0, 76, 72
2, 65708, Note_off_c, 0, 76, 64
2, 65712, Note_on_c, 0, 78, 72
2, 65724, Note_off_c, 0, 78, 64
2, 65728, Note_on_c, 0, 76, 72
2, 65740, Note_off_c, 0, 76, 64
2, 65744, Note_on_c, 0, 78, 72
2, 65756, Note_off_c, 0, 78, 64
2, 65760, Note_on_c, 0, 76, 72
2, 65772, Note_off_c, 0, 76, 64
2, 65776, Note_on_c, 0, 78, 72
2, 65788, Note_off_c, 0, 78, 64
2, 65792, Note_on_c, 0, 76, 72
2, 65804, Note_off_c, 0, 76, 64
2, 65808, Note_on_c, 0, 78, 72
2, 65820, Note_off_c, 0, 78, 64
2, 65824, Note_on_c, 0, 76, 72
2, 65836, Note_off_c, 0, 76, 64
2, 65840, Note_on_c, 0, 78, 72
2, 65852, Note_off_c, 0, 78, 64
2, 65856, Note_on_c, 0, 76, 72
2, 65868, Note_off_c, 0, 76, 64
2, 65872, Note_on_c, 0, 78, 72
2, 65884, Note_off_c, 0, 78, 64
2, 65888, Note_on_c, 0, 76, 72
2, 65900, Note_off_c, 0, 76, 64
2, 65904, Note_on_c, 0, 78, 72
2, 65916, Note_off_c, 0, 78, 64
2, 65920, Note_on_c, 0, 76, 72
2, 65932, Note_off_c, 0, 76, 64
2, 65936, Note_on_c, 0, 78, 72
2, 65948, Note_off_c, 0, 78, 64
2, 65952, Note_on_c, 0, 74, 72
2, 65996, Note_off_c, 0, 74, 64
2, 66000, Note_on_c, 0, 76, 72
2, 66044, Note_off_c, 0, 76, 64
2, 66048, Note_on_c, 0, 74, 72
2, 66428, Note_off_c, 0, 74, 64
2, 66816, Control_c, 0, 1, 55
2, 67200, Note_on_c, 0, 74, 72
2, 67388, Note_off_c, 0, 74, 64
2, 67392, Note_on_c, 0, 83, 72
2, 67580, Note_off_c, 0, 83, 64
2, 67584, Note_on_c, 0, 81, 72
2, 67964, Note_off_c, 0, 81, 64
2, 68352, Note_on_c, 0, 57, 72
2, 68540, Note_off_c, 0, 57, 64
2, 68544, Note_on_c, 0, 62, 72
2, 68636, Note_off_c, 0, 62, 64
2, 68640, Note_on_c, 0, 66, 72
2, 68732, Note_off_c, 0, 66, 64
2, 68736, Note_on_c, 0, 68, 72
2, 68828, Note_off_c, 0, 68, 64
2, 68832, Note_on_c, 0, 69, 72
2, 68924, Note_off_c, 0, 69, 64
2, 68928, Note_on_c, 0, 74, 72
2, 69020, Note_off_c, 0, 74, 64
2, 69024, Note_on_c, 0, 78, 72
2, 69116, Note_off_c, 0, 78, 64
2, 69120, Note_on_c, 0, 76, 72
2, 69404, Note_off_c, 0, 76, 64
2, 69408, Note_on_c, 0, 74, 72
2, 69500, Note_off_c, 0, 74, 64
2, 69504, Note_on_c, 0, 69, 72
2, 69596, Note_off_c, 0, 69, 64
2, 69600, Note_on_c, 0, 81, 72
2, 70076, Note_off_c, 0, 81, 64
2, 70080, Note_on_c, 0, 69, 72
2, 70172, Note_off_c, 0, 69, 64
2, 70176, Note_on_c, 0, 74, 72
2, 70268, Note_off_c, 0, 74, 64
2, 70272, Note_on_c, 0, 78, 72
2, 70364, Note_off_c, 0, 78, 64
2, 70368, Note_on_c, 0, 81, 72
2, 70460, Note_off_c, 0, 81, 64
2, 70464, Note_on_c, 0, 86, 72
2, 70556, Note_off_c, 0, 86, 64
2, 70560, Note_on_c, 0, 90, 72
2, 70652, Note_off_c, 0, 90, 64
2, 70656, Note_on_c, 0, 88, 72
2, 70940, Note_off_c, 0, 88, 64
2, 70944, Note_on_c, 0, 86, 72
2, 71036, Note_off_c, 0, 86, 64
2, 71040, Note_on_c, 0, 93, 72
2, 71420, Note_off_c, 0, 93, 64
2, 71424, Note_on_c, 0, 93, 72
2, 71516, Note_off_c, 0, 93, 64
2, 71520, Note_on_c, 0, 90, 72
2, 71612, Note_off_c, 0, 90, 64
2, 71616, Note_on_c, 0, 86, 72
2, 71708, Note_off_c, 0, 86, 64
2, 71712, Note_on_c, 0, 81, 72
2, 71804, Note_off_c, 0, 81, 64
2, 71808, Note_on_c, 0, 79, 72
2, 71900, Note_off_c, 0, 79, 64
2, 71904, Note_on_c, 0, 82, 72
2, 71996, Note_off_c, 0, 82, 64
2, 72000, Note_on_c, 0, 85, 72
2, 72092, Note_off_c, 0, 85, 64
2, 72096, Note_on_c, 0, 88, 72
2, 72188, Note_off_c, 0, 88, 64
2, 72192, Note_on_c, 0, 86, 72
2, 72284, Note_off_c, 0, 86, 64
2, 72288, Note_on_c, 0, 81, 72
2, 72380, Note_off_c, 0, 81, 64
2, 72384, Note_on_c, 0, 78, 72
2, 72476, Note_off_c, 0, 78, 64
2, 72480, Note_on_c, 0, 74, 72
2, 72572, Note_off_c, 0, 74, 64
2, 72576, Note_on_c, 0, 73, 72
2, 72668, Note_off_c, 0, 73, 64
2, 72672, Note_on_c, 0, 76, 72
2, 72764, Note_off_c, 0, 76, 64
2, 72768, Note_on_c, 0, 79, 72
2, 72860, Note_off_c, 0, 79, 64
2, 72864, Note_on_c, 0, 82, 72
2, 72956, Note_off_c, 0, 82, 64
2, 72960, Note_on_c, 0, 81, 72
2, 73052, Note_off_c, 0, 81, 64
2, 73056, Note_on_c, 0, 78, 72
2, 73148, Note_off_c, 0, 78, 64
2, 73152, Note_on_c, 0, 74, 72
2, 73244, Note_off_c, 0, 74, 64
2, 73248, Note_on_c, 0, 69, 72
2, 73340, Note_off_c, 0, 69, 64
2, 73344, Note_on_c, 0, 67, 72
2, 73436, Note_off_c, 0, 67, 64
2, 73440, Note_on_c, 0, 70, 72
2, 73532, Note_off_c, 0, 70, 64
2, 73536, Note_on_c, 0, 73, 72
2, 73628, Note_off_c, 0, 73, 64
2, 73632, Note_on_c, 0, 76, 72
2, 73724, Note_off_c, 0, 76, 64
2, 73728, Note_on_c, 0, 74, 72
2, 73820, Note_off_c, 0, 74, 64
2, 73824, Note_on_c, 0, 69, 72
2, 73916, Note_off_c, 0, 69, 64
2, 73920, Note_on_c, 0, 66, 72
2, 74012, Note_off_c, 0, 66, 64
2, 74016, Note_on_c, 0, 62, 72
2, 74108, Note_off_c, 0, 62, 64
2, 74112, Note_on_c, 0, 61, 72
2, 74204, Note_off_c, 0, 61, 64
2, 74208, Note_on_c, 0, 64, 72
2, 74300, Note_off_c, 0, 64, 64
2, 74304, Note_on_c, 0, 67, 72
2, 74396, Note_off_c, 0, 67, 64
2, 74400, Note_on_c, 0, 70, 72
2, 74492, Note_off_c, 0, 70, 64
2, 74496, Note_on_c, 0, 71, 72
2, 74684, Note_off_c, 0, 71, 64
2, 74688, Note_on_c, 0, 68, 72
2, 74876, Note_off_c, 0, 68, 64
2, 74880, Note_on_c, 0, 65, 72
2, 75068, Note_off_c, 0, 65, 64
2, 75072, Note_on_c, 0, 62, 72
2, 75260, Note_off_c, 0, 62, 64
2, 75264, Note_on_c, 0, 57, 72
2, 75644, Note_off_c, 0, 57, 64
2, 75648, Note_on_c, 0, 61, 72
2, 76028, Note_off_c, 0, 61, 64
2, 76032, Note_on_c, 0, 62, 72
2, 76220, Note_off_c, 0, 62, 64
2, 76224, Note_on_c, 0, 64, 72
2, 76412, Note_off_c, 0, 64, 64
2, 76416, Note_on_c, 0, 66, 72
2, 76604, Note_off_c, 0, 66, 64
2, 76608, Note_on_c, 0, 71, 72
2, 76796, Note_off_c, 0, 71, 64
2, 76800, Note_on_c, 0, 68, 72
2, 76924, Note_off_c, 0, 68, 64
2, 76928, Note_on_c, 0, 69, 72
2, 77052, Note_off_c, 0, 69, 64
2, 77056, Note_on_c, 0, 73, 72
2, 77180, Note_off_c, 0, 73, 64
2, 77184, Note_on_c, 0, 74, 72
2, 77276, Note_off_c, 0, 74, 64
2, 77280, Note_on_c, 0, 76, 72
2, 77372, Note_off_c, 0, 76, 64
2, 77376, Note_on_c, 0, 78, 72
2, 77468, Note_off_c, 0, 78, 64
2, 77472, Note_on_c, 0, 83, 72
2, 77564, Note_off_c, 0, 83, 64
2, 77568, Note_on_c, 0, 80, 72
2, 77692, Note_off_c, 0, 80, 64
2, 77696, Note_on_c, 0, 81, 72
2, 77820, Note_off_c, 0, 81, 64
2, 77824, Note_on_c, 0, 85, 72
2, 77948, Note_off_c, 0, 85, 64
2, 77952, Note_on_c, 0, 86, 72
2, 78044, Note_off_c, 0, 86, 64
2, 78048, Note_on_c, 0, 88, 72
2, 78140, Note_off_c, 0, 88, 64
2, 78144, Note_on_c, 0, 90, 72
2, 78236, Note_off_c, 0, 90, 64
2, 78240, Note_on_c, 0, 95, 72
2, 78332, Note_off_c, 0, 95, 64
2, 78336, Note_on_c, 0, 93, 72
2, 78716, Note_off_c, 0, 93, 64
2, 78720, Note_on_c, 0, 92, 72
2, 79100, Note_off_c, 0, 92, 64
2, 79104, Note_on_c, 0, 91, 72
2, 79484, Note_off_c, 0, 91, 64
2, 79488, Note_on_c, 0, 90, 72
2, 79868, Note_off_c, 0, 90, 64
2, 79872, Note_on_c, 0, 88, 72
2, 80544, Note_off_c, 0, 88, 64
2, 80544, Note_on_c, 0, 78, 72
2, 80640, Note_off_c, 0, 78, 64
2, 80640, Note_on_c, 0, 76, 72
2, 80656, Note_off_c, 0, 76, 64
2, 80656, Note_on_c, 0, 78, 72
2, 80672, Note_off_c, 0, 78, 64
2, 80672, Note_on_c, 0, 76, 72
2, 80688, Note_off_c, 0, 76, 64
2, 80688, Note_on_c, 0, 78, 72
2, 80704, Note_off_c, 0, 78, 64
2, 80704, Note_on_c, 0, 76, 72
2, 80720, Note_off_c, 0, 76, 64
2, 80720, Note_on_c, 0, 78, 72
2, 80736, Note_off_c, 0, 78, 64
2, 80736, Note_on_c, 0, 76, 72
2, 80752, Note_off_c, 0, 76, 64
2, 80752, Note_on_c, 0, 78, 72
2, 80768, Note_off_c, 0, 78, 64
2, 80768, Note_on_c, 0, 76, 72
2, 80784, Note_off_c, 0, 76, 64
2, 80784, Note_on_c, 0, 78, 72
2, 80800, Note_off_c, 0, 78, 64
2, 80800, Note_on_c, 0, 76, 72
2, 80816, Note_off_c, 0, 76, 64
2, 80816, Note_on_c, 0, 78, 72
2, 80832, Note_off_c, 0, 78, 64
2, 80832, Note_on_c, 0, 76, 72
2, 80848, Note_off_c, 0, 76, 64
2, 80848, Note_on_c, 0, 78, 72
2, 80864, Note_off_c, 0, 78, 64
2, 80864, Note_on_c, 0, 76, 72
2, 80880, Note_off_c, 0, 76, 64
2, 80880, Note_on_c, 0, 78, 72
2, 80896, Note_off_c, 0, 78, 64
2, 80896, Note_on_c, 0, 76, 72
2, 80912, Note_off_c, 0, 76, 64
2, 80912, Note_on_c, 0, 78, 72
2, 80928, Note_off_c, 0, 78, 64
2, 80928, Note_on_c, 0, 76, 72
2, 80944, Note_off_c, 0, 76, 64
2, 80944, Note_on_c, 0, 78, 72
2, 80960, Note_off_c, 0, 78, 64
2, 80960, Note_on_c, 0, 76, 72
2, 80976, Note_off_c, 0, 76, 64
2, 80976, Note_on_c, 0, 78, 72
2, 80992, Note_off_c, 0, 78, 64
2, 80992, Note_on_c, 0, 76, 72
2, 81008, Note_off_c, 0, 76, 64
2, 81008, Note_on_c, 0, 78, 72
2, 81024, Note_off_c, 0, 78, 64
2, 81024, Note_on_c, 0, 76, 72
2, 81040, Note_off_c, 0, 76, 64
2, 81040, Note_on_c, 0, 78, 72
2, 81056, Note_off_c, 0, 78, 64
2, 81056, Note_on_c, 0, 76, 72
2, 81072, Note_off_c, 0, 76, 64
2, 81072, Note_on_c, 0, 78, 72
2, 81088, Note_off_c, 0, 78, 64
2, 81088, Note_on_c, 0, 76, 72
2, 81104, Note_off_c, 0, 76, 64
2, 81104, Note_on_c, 0, 78, 72
2, 81120, Note_off_c, 0, 78, 64
2, 81120, Note_on_c, 0, 76, 72
2, 81136, Note_off_c, 0, 76, 64
2, 81136, Note_on_c, 0, 78, 72
2, 81152, Note_off_c, 0, 78, 64
2, 81152, Note_on_c, 0, 76, 72
2, 81168, Note_off_c, 0, 76, 64
2, 81168, Note_on_c, 0, 78, 72
2, 81184, Note_off_c, 0, 78, 64
2, 81184, Note_on_c, 0, 76, 72
2, 81200, Note_off_c, 0, 76, 64
2, 81200, Note_on_c, 0, 78, 72
2, 81216, Note_off_c, 0, 78, 64
2, 81216, Note_on_c, 0, 74, 72
2, 81264, Note_off_c, 0, 74, 64
2, 81264, Note_on_c, 0, 76, 72
2, 81312, Note_off_c, 0, 76, 64
2, 81312, Note_on_c, 0, 64, 72
2, 81408, Note_off_c, 0, 64, 64
2, 81408, Note_on_c, 0, 64, 72
2, 81408, Note_on_c, 0, 57, 72
2, 81500, Note_off_c, 0, 64, 64
2, 81500, Note_off_c, 0, 57, 64
2, 81504, Note_on_c, 0, 64, 72
2, 81504, Note_on_c, 0, 57, 72
2, 81596, Note_off_c, 0, 64, 64
2, 81596, Note_off_c, 0, 57, 64
2, 81600, Note_on_c, 0, 66, 72
2, 81600, Note_on_c, 0, 61, 72
2, 81692, Note_off_c, 0, 66, 64
2, 81692, Note_off_c, 0, 61, 64
2, 81696, Note_on_c, 0, 66, 72
2, 81696, Note_on_c, 0, 61, 72
2, 81788, Note_off_c, 0, 66, 64
2, 81788, Note_off_c, 0, 61, 64
2, 81792, Note_on_c, 0, 67, 72
2, 81792, Note_on_c, 0, 61, 72
2, 81884, Note_off_c, 0, 67, 64
2, 81884, Note_off_c, 0, 61, 64
2, 81888, Note_on_c, 0, 67, 72
2, 81888, Note_on_c, 0, 61, 72
2, 81980, Note_off_c, 0, 67, 64
2, 81980, Note_off_c, 0, 61, 64
2, 81984, Note_on_c, 0, 64, 72
2, 81984, Note_on_c, 0, 68, 72
2, 82076, Note_off_c, 0, 64, 64
2, 82076, Note_off_c, 0, 68, 64
2, 82080, Note_on_c, 0, 64, 72
2, 82080, Note_on_c, 0, 68, 72
2, 82172, Note_off_c, 0, 64, 64
2, 82172, Note_off_c, 0, 68, 64
2, 82176, Note_on_c, 0, 69, 72
2, 82176, Note_on_c, 0, 64, 72
2, 82268, Note_off_c, 0, 69, 64
2, 82268, Note_off_c, 0, 64, 64
2, 82272, Note_on_c, 0, 69, 72
2, 82272, Note_on_c, 0, 64, 72
2, 82364, Note_off_c, 0, 69, 64
2, 82364, Note_off_c, 0, 64, 64
2, 82368, Note_on_c, 0, 71, 72
2, 82368, Note_on_c, 0, 68, 72
2, 82460, Note_off_c, 0, 71, 64
2, 82460, Note_off_c, 0, 68, 64
2, 82464, Note_on_c, 0, 71, 72
2, 82464, Note_on_c, 0, 67, 72
2, 82556, Note_off_c, 0, 71, 64
2, 82556, Note_off_c, 0, 67, 64
2, 82560, Note_on_c, 0, 73, 72
2, 82560, Note_on_c, 0, 67, 72
2, 82652, Note_off_c, 0, 73, 64
2, 82652, Note_off_c, 0, 67, 64
2, 82656, Note_on_c, 0, 64, 72
2, 82748, Note_off_c, 0, 64, 64
2, 82752, Note_on_c, 0, 74, 72
2, 82752, Note_on_c, 0, 71, 72
2, 82844, Note_off_c, 0, 74, 64
2, 82844, Note_off_c, 0, 71, 64
2, 82848, Note_on_c, 0, 67, 72
2, 82940, Note_off_c, 0, 67, 64
2, 82944, Note_on_c, 0, 69, 72
2, 82944, Note_on_c, 0, 67, 72
2, 83040, Note_on_c, 0, 73, 72
2, 83040, Note_on_c, 0, 76, 72
2, 83712, Note_off_c, 0, 69, 64
2, 83712, Note_off_c, 0, 67, 64
2, 83716, Note_off_c, 0, 73, 64
2, 83716, Note_off_c, 0, 76, 64
2, 83808, Note_on_c, 0, 64, 72
2, 83904, Note_off_c, 0, 64, 64
2, 83904, Note_on_c, 0, 76, 72
2, 83916, Note_off_c, 0, 76, 64
2, 83920, Note_on_c, 0, 78, 72
2, 83932, Note_off_c, 0, 78, 64
2, 83936, Note_on_c, 0, 76, 72
2, 83948, Note_off_c, 0, 76, 64
2, 83952, Note_on_c, 0, 78, 72
2, 83964, Note_off_c, 0, 78, 64
2, 83968, Note_on_c, 0, 76, 72
2, 83980, Note_off_c, 0, 76, 64
2, 83984, Note_on_c, 0, 78, 72
2, 83996, Note_off_c, 0, 78, 64
2, 84000, Note_on_c, 0, 76, 72
2, 84012, Note_off_c, 0, 76, 64
2, 84016, Note_on_c, 0, 78, 72
2, 84028, Note_off_c, 0, 78, 64
2, 84032, Note_on_c, 0, 76, 72
2, 84044, Note_off_c, 0, 76, 64
2, 84048, Note_on_c, 0, 78, 72
2, 84060, Note_off_c, 0, 78, 64
2, 84064, Note_on_c, 0, 76, 72
2, 84076, Note_off_c, 0, 76, 64
2, 84080, Note_on_c, 0, 78, 72
2, 84092, Note_off_c, 0, 78, 64
2, 84096, Note_on_c, 0, 76, 72
2, 84108, Note_off_c, 0, 76, 64
2, 84112, Note_on_c, 0, 78, 72
2, 84124, Note_off_c, 0, 78, 64
2, 84128, Note_on_c, 0, 76, 72
2, 84140, Note_off_c, 0, 76, 64
2, 84144, Note_on_c, 0, 78, 72
2, 84156, Note_off_c, 0, 78, 64
2, 84160, Note_on_c, 0, 76, 72
2, 84172, Note_off_c, 0, 76, 64
2, 84176, Note_on_c, 0, 78, 72
2, 84188, Note_off_c, 0, 78, 64
2, 84192, Note_on_c, 0, 76, 72
2, 84204, Note_off_c, 0, 76, 64
2, 84208, Note_on_c, 0, 78, 72
2, 84220, Note_off_c, 0, 78, 64
2, 84224, Note_on_c, 0, 76, 72
2, 84236, Note_off_c, 0, 76, 64
2, 84240, Note_on_c, 0, 78, 72
2, 84252, Note_off_c, 0, 78, 64
2, 84256, Note_on_c, 0, 76, 72
2, 84268, Note_off_c, 0, 76, 64
2, 84272, Note_on_c, 0, 78, 72
2, 84284, Note_off_c, 0, 78, 64
2, 84288, Note_on_c, 0, 76, 72
2, 84300, Note_off_c, 0, 76, 64
2, 84304, Note_on_c, 0, 78, 72
2, 84316, Note_off_c, 0, 78, 64
2, 84320, Note_on_c, 0, 76, 72
2, 84332, Note_off_c, 0, 76, 64
2, 84336, Note_on_c, 0, 78, 72
2, 84348, Note_off_c, 0, 78, 64
2, 84352, Note_on_c, 0, 76, 72
2, 84364, Note_off_c, 0, 76, 64
2, 84368, Note_on_c, 0, 78, 72
2, 84380, Note_off_c, 0, 78, 64
2, 84384, Note_on_c, 0, 74, 72
2, 84428, Note_off_c, 0, 74, 64
2, 84432, Note_on_c, 0, 76, 72
2, 84476, Note_off_c, 0, 76, 64
2, 84480, Note_on_c, 0, 74, 72
2, 84860, Note_off_c, 0, 74, 64
2, 87168, Control_c, 0, 1, 55
2, 87360, Note_on_c, 0, 81, 72
2, 87548, Note_off_c, 0, 81, 64
2, 87552, Note_on_c, 0, 78, 72
2, 87740, Note_off_c, 0, 78, 64
2, 87744, Note_on_c, 0, 81, 72
2, 87932, Note_off_c, 0, 81, 64
2, 87936, Note_on_c, 0, 86, 72
2, 88124, Note_off_c, 0, 86, 64
2, 88128, Note_on_c, 0, 90, 72
2, 88316, Note_off_c, 0, 90, 64
2, 88320, Note_on_c, 0, 88, 72
2, 88412, Note_off_c, 0, 88, 64
2, 88416, Note_on_c, 0, 86, 72
2, 88508, Note_off_c, 0, 86, 64
2, 88512, Note_on_c, 0, 86, 72
2, 88892, Note_off_c, 0, 86, 64
2, 88896, Note_on_c, 0, 88, 72
2, 88940, Note_off_c, 0, 88, 64
2, 88944, Note_on_c, 0, 86, 72
2, 88988, Note_off_c, 0, 86, 64
2, 88992, Note_on_c, 0, 85, 72
2, 89036, Note_off_c, 0, 85, 64
2, 89040, Note_on_c, 0, 83, 72
2, 89084, Note_off_c, 0, 83, 64
2, 89088, Note_on_c, 0, 83, 72
2, 89180, Note_off_c, 0, 83, 64
2, 89184, Note_on_c, 0, 81, 72
2, 89276, Note_off_c, 0, 81, 64
2, 89280, Note_on_c, 0, 81, 72
2, 89532, Note_off_c, 0, 81, 64
2, 89536, Note_on_c, 0, 83, 72
2, 89596, Note_off_c, 0, 83, 64
2, 89600, Note_on_c, 0, 81, 72
2, 89660, Note_off_c, 0, 81, 64
2, 89664, Note_on_c, 0, 81, 72
2, 89708, Note_off_c, 0, 81, 64
2, 89712, Note_on_c, 0, 79, 72
2, 89756, Note_off_c, 0, 79, 64
2, 89760, Note_on_c, 0, 78, 72
2, 89804, Note_off_c, 0, 78, 64
2, 89808, Note_on_c, 0, 76, 72
2, 89852, Note_off_c, 0, 76, 64
2, 89856, Note_on_c, 0, 76, 72
2, 90236, Note_off_c, 0, 76, 64
2, 90240, Note_on_c, 0, 74, 72
2, 90428, Note_off_c, 0, 74, 64
2, 90428, End_track
3, 0, Start_track
3, 0, Title_t, "Concerto #3"
3, 0, Control_c, 1, 0, 0
3, 0, Program_c, 1, 48
3, 0, Control_c, 1, 7, 88
3, 0, Control_c, 1, 10, 38
3, 0, Control_c, 1, 91, 67
3, 0, Control_c, 1, 93, 48
3, 0, Key_signature, 2, "major"
3, 0, Control_c, 1, 121, 0
3, 192, Control_c, 1, 10, 53
3, 384, Control_c, 1, 91, 73
3, 576, Program_c, 1, 48
3, 1344, Note_on_c, 1, 69, 76
3, 1440, Note_off_c, 1, 69, 64
3, 1536, Note_on_c, 1, 66, 83
3, 1724, Note_off_c, 1, 66, 64
3, 1728, Note_on_c, 1, 69, 83
3, 1916, Note_off_c, 1, 69, 64
3, 1920, Note_on_c, 1, 74, 83
3, 2108, Note_off_c, 1, 74, 64
3, 2112, Note_on_c, 1, 78, 83
3, 2300, Note_off_c, 1, 78, 64
3, 2304, Note_on_c, 1, 76, 83
3, 2304, Note_on_c, 1, 62, 83
3, 2364, Note_off_c, 1, 62, 64
3, 2368, Note_on_c, 1, 69, 83
3, 2368, Note_on_c, 1, 66, 83
3, 2396, Note_off_c, 1, 76, 64
3, 2400, Note_on_c, 1, 74, 83
3, 2428, Note_off_c, 1, 69, 64
3, 2428, Note_off_c, 1, 66, 64
3, 2432, Note_on_c, 1, 69, 83
3, 2432, Note_on_c, 1, 66, 83
3, 2464, Note_off_c, 1, 69, 64
3, 2464, Note_off_c, 1, 66, 64
3, 2492, Note_off_c, 1, 74, 64
3, 2496, Note_on_c, 1, 62, 83
3, 2496, Note_on_c, 1, 74, 83
3, 2556, Note_off_c, 1, 62, 64
3, 2560, Note_on_c, 1, 69, 83
3, 2560, Note_on_c, 1, 66, 83
3, 2620, Note_off_c, 1, 69, 64
3, 2620, Note_off_c, 1, 66, 64
3, 2624, Note_on_c, 1, 69, 83
3, 2624, Note_on_c, 1, 66, 83
3, 2656, Note_off_c, 1, 69, 64
3, 2656, Note_off_c, 1, 66, 64
3, 2688, Note_on_c, 1, 55, 83
3, 2748, Note_off_c, 1, 55, 64
3, 2752, Note_on_c, 1, 67, 83
3, 2752, Note_on_c, 1, 62, 83
3, 2752, Note_on_c, 1, 59, 83
3, 2812, Note_off_c, 1, 67, 64
3, 2812, Note_off_c, 1, 62, 64
3, 2812, Note_off_c, 1, 59, 64
3, 2816, Note_on_c, 1, 67, 83
3, 2816, Note_on_c, 1, 62, 83
3, 2816, Note_on_c, 1, 59, 83
3, 2848, Note_off_c, 1, 67, 64
3, 2848, Note_off_c, 1, 62, 64
3, 2848, Note_off_c, 1, 59, 64
3, 2876, Note_off_c, 1, 74, 64
3, 2880, Note_on_c, 1, 76, 83
3, 2880, Note_on_c, 1, 55, 83
3, 2924, Note_off_c, 1, 76, 64
3, 2928, Note_on_c, 1, 74, 83
3, 2940, Note_off_c, 1, 55, 64
3, 2944, Note_on_c, 1, 67, 83
3, 2944, Note_on_c, 1, 62, 83
3, 2944, Note_on_c, 1, 59, 83
3, 2972, Note_off_c, 1, 74, 64
3, 2976, Note_on_c, 1, 73, 83
3, 3004, Note_off_c, 1, 67, 64
3, 3004, Note_off_c, 1, 62, 64
3, 3004, Note_off_c, 1, 59, 64
3, 3008, Note_on_c, 1, 67, 83
3, 3008, Note_on_c, 1, 62, 83
3, 3008, Note_on_c, 1, 59, 83
3, 3020, Note_off_c, 1, 73, 64
3, 3024, Note_on_c, 1, 71, 83
3, 3040, Note_off_c, 1, 67, 64
3, 3040, Note_off_c, 1, 62, 64
3, 3044, Note_off_c, 1, 59, 64
3, 3068, Note_off_c, 1, 71, 64
3, 3072, Note_on_c, 1, 71, 83
3, 3072, Note_on_c, 1, 57, 83
3, 3132, Note_off_c, 1, 57, 64
3, 3136, Note_on_c, 1, 62, 83
3, 3148, Note_on_c, 1, 66, 83
3, 3164, Note_off_c, 1, 71, 64
3, 3168, Note_on_c, 1, 69, 83
3, 3196, Note_off_c, 1, 62, 64
3, 3200, Note_on_c, 1, 66, 83
3, 3200, Note_on_c, 1, 62, 83
3, 3208, Note_off_c, 1, 66, 64
3, 3232, Note_off_c, 1, 66, 64
3, 3232, Note_off_c, 1, 62, 64
3, 3260, Note_off_c, 1, 69, 64
3, 3264, Note_on_c, 1, 57, 83
3, 3264, Note_on_c, 1, 69, 83
3, 3324, Note_off_c, 1, 57, 64
3, 3328, Note_on_c, 1, 66, 83
3, 3328, Note_on_c, 1, 62, 83
3, 3388, Note_off_c, 1, 66, 64
3, 3388, Note_off_c, 1, 62, 64
3, 3392, Note_on_c, 1, 66, 83
3, 3392, Note_on_c, 1, 62, 83
3, 3424, Note_off_c, 1, 66, 64
3, 3424, Note_off_c, 1, 62, 64
3, 3456, Note_on_c, 1, 57, 83
3, 3516, Note_off_c, 1, 57, 64
3, 3520, Note_on_c, 1, 64, 83
3, 3520, Note_on_c, 1, 61, 83
3, 3580, Note_off_c, 1, 64, 64
3, 3580, Note_off_c, 1, 61, 64
3, 3584, Note_on_c, 1, 64, 83
3, 3584, Note_on_c, 1, 61, 83
3, 3616, Note_off_c, 1, 64, 64
3, 3616, Note_off_c, 1, 61, 64
3, 3644, Note_off_c, 1, 69, 64
3, 3648, Note_on_c, 1, 69, 83
3, 3648, Note_on_c, 1, 57, 83
3, 3708, Note_off_c, 1, 69, 64
3, 3708, Note_off_c, 1, 57, 64
3, 3712, Note_on_c, 1, 71, 83
3, 3712, Note_on_c, 1, 64, 83
3, 3712, Note_on_c, 1, 61, 83
3, 3772, Note_off_c, 1, 71, 64
3, 3772, Note_off_c, 1, 64, 64
3, 3772, Note_off_c, 1, 61, 64
3, 3776, Note_on_c, 1, 67, 83
3, 3776, Note_on_c, 1, 64, 83
3, 3776, Note_on_c, 1, 61, 83
3, 3808, Note_off_c, 1, 64, 64
3, 3808, Note_off_c, 1, 61, 64
3, 3836, Note_off_c, 1, 67, 64
3, 3840, Note_on_c, 1, 67, 83
3, 3840, Note_on_c, 1, 57, 83
3, 3900, Note_off_c, 1, 57, 64
3, 3904, Note_on_c, 1, 64, 83
3, 3904, Note_on_c, 1, 61, 83
3, 3964, Note_off_c, 1, 64, 64
3, 3964, Note_off_c, 1, 61, 64
3, 3968, Note_on_c, 1, 64, 83
3, 3968, Note_on_c, 1, 61, 83
3, 4000, Note_off_c, 1, 64, 64
3, 4000, Note_off_c, 1, 61, 64
3, 4032, Note_on_c, 1, 57, 83
3, 4092, Note_off_c, 1, 57, 64
3, 4096, Note_on_c, 1, 64, 83
3, 4096, Note_on_c, 1, 61, 83
3, 4156, Note_off_c, 1, 64, 64
3, 4156, Note_off_c, 1, 61, 64
3, 4160, Note_on_c, 1, 64, 83
3, 4160, Note_on_c, 1, 61, 83
3, 4192, Note_off_c, 1, 64, 64
3, 4192, Note_off_c, 1, 61, 64
3, 4220, Note_off_c, 1, 67, 64
3, 4224, Note_on_c, 1, 66, 83
3, 4412, Note_off_c, 1, 66, 64
3, 4416, Note_on_c, 1, 74, 63
3, 4416, Note_on_c, 1, 62, 63
3, 4476, Note_off_c, 1, 62, 64
3, 4480, Note_on_c, 1, 69, 63
3, 4480, Note_on_c, 1, 66, 63
3, 4540, Note_off_c, 1, 69, 64
3, 4540, Note_off_c, 1, 66, 64
3, 4544, Note_on_c, 1, 69, 63
3, 4544, Note_on_c, 1, 66, 63
3, 4576, Note_off_c, 1, 69, 64
3, 4576, Note_off_c, 1, 66, 64
3, 4604, Note_off_c, 1, 74, 64
3, 4608, Note_on_c, 1, 73, 63
3, 4608, Note_on_c, 1, 62, 63
3, 4652, Note_off_c, 1, 73, 64
3, 4656, Note_on_c, 1, 67, 63
3, 4668, Note_off_c, 1, 62, 64
3, 4700, Note_off_c, 1, 67, 64
3, 4704, Note_on_c, 1, 71, 63
3, 4736, Note_on_c, 1, 67, 63
3, 4768, Note_off_c, 1, 67, 64
3, 4800, Note_off_c, 1, 71, 64
3, 4800, Note_on_c, 1, 71, 63
3, 4800, Note_on_c, 1, 62, 63
3, 4860, Note_off_c, 1, 62, 64
3, 4864, Note_on_c, 1, 67, 63
3, 4896, Note_off_c, 1, 71, 64
3, 4924, Note_off_c, 1, 67, 64
3, 4928, Note_on_c, 1, 67, 63
3, 4960, Note_off_c, 1, 67, 64
3, 4992, Note_on_c, 1, 71, 63
3, 4992, Note_on_c, 1, 62, 63
3, 5036, Note_off_c, 1, 71, 64
3, 5040, Note_on_c, 1, 66, 63
3, 5052, Note_off_c, 1, 62, 64
3, 5084, Note_off_c, 1, 66, 64
3, 5088, Note_on_c, 1, 69, 63
3, 5120, Note_on_c, 1, 66, 63
3, 5152, Note_off_c, 1, 66, 64
3, 5184, Note_off_c, 1, 69, 64
3, 5184, Note_on_c, 1, 69, 63
3, 5184, Note_on_c, 1, 62, 63
3, 5244, Note_off_c, 1, 62, 64
3, 5248, Note_on_c, 1, 66, 63
3, 5280, Note_off_c, 1, 69, 64
3, 5308, Note_off_c, 1, 66, 64
3, 5312, Note_on_c, 1, 66, 63
3, 5344, Note_off_c, 1, 66, 64
3, 5376, Note_on_c, 1, 68, 63
3, 5756, Note_off_c, 1, 68, 64
3, 5760, Note_on_c, 1, 67, 64
3, 6140, Note_off_c, 1, 67, 64
3, 6144, Note_on_c, 1, 66, 71
3, 6524, Note_off_c, 1, 66, 64
3, 6528, Note_on_c, 1, 71, 77
3, 6908, Note_off_c, 1, 71, 64
3, 6912, Note_on_c, 1, 62, 83
3, 7292, Note_off_c, 1, 62, 64
3, 7296, Note_on_c, 1, 61, 83
3, 7356, Note_off_c, 1, 61, 64
3, 7424, Note_on_c, 1, 64, 83
3, 7424, Note_on_c, 1, 61, 83
3, 7456, Note_on_c, 1, 66, 83
3, 7456, Note_on_c, 1, 62, 83
3, 7484, Note_off_c, 1, 64, 64
3, 7484, Note_off_c, 1, 61, 64
3, 7488, Note_on_c, 1, 67, 83
3, 7488, Note_on_c, 1, 64, 83
3, 7516, Note_off_c, 1, 66, 64
3, 7516, Note_off_c, 1, 62, 64
3, 7548, Note_off_c, 1, 67, 64
3, 7548, Note_off_c, 1, 64, 64
3, 7552, Note_on_c, 1, 66, 83
3, 7552, Note_on_c, 1, 62, 83
3, 7612, Note_off_c, 1, 66, 64
3, 7612, Note_off_c, 1, 62, 64
3, 7616, Note_on_c, 1, 64, 83
3, 7616, Note_on_c, 1, 61, 83
3, 7676, Note_off_c, 1, 64, 64
3, 7676, Note_off_c, 1, 61, 64
3, 7680, Note_on_c, 1, 66, 83
3, 7680, Note_on_c, 1, 62, 83
3, 7868, Note_off_c, 1, 66, 64
3, 7868, Note_off_c, 1, 62, 64
3, 8448, Note_on_c, 1, 66, 63
3, 8448, Note_on_c, 1, 62, 63
3, 8508, Note_off_c, 1, 66, 64
3, 8508, Note_off_c, 1, 62, 64
3, 8512, Note_on_c, 1, 69, 63
3, 8512, Note_on_c, 1, 66, 63
3, 8572, Note_off_c, 1, 69, 64
3, 8572, Note_off_c, 1, 66, 64
3, 8576, Note_on_c, 1, 69, 63
3, 8576, Note_on_c, 1, 66, 63
3, 8608, Note_off_c, 1, 69, 64
3, 8608, Note_off_c, 1, 66, 64
3, 8640, Note_on_c, 1, 66, 63
3, 8640, Note_on_c, 1, 62, 63
3, 8700, Note_off_c, 1, 66, 64
3, 8700, Note_off_c, 1, 62, 64
3, 8704, Note_on_c, 1, 69, 63
3, 8704, Note_on_c, 1, 66, 63
3, 8764, Note_off_c, 1, 69, 64
3, 8764, Note_off_c, 1, 66, 64
3, 8768, Note_on_c, 1, 69, 63
3, 8768, Note_on_c, 1, 66, 63
3, 8800, Note_off_c, 1, 69, 64
3, 8800, Note_off_c, 1, 66, 64
3, 8832, Note_on_c, 1, 67, 63
3, 8832, Note_on_c, 1, 62, 63
3, 8892, Note_off_c, 1, 67, 64
3, 8892, Note_off_c, 1, 62, 64
3, 8896, Note_on_c, 1, 71, 63
3, 8896, Note_on_c, 1, 67, 63
3, 8956, Note_off_c, 1, 71, 64
3, 8956, Note_off_c, 1, 67, 64
3, 8960, Note_on_c, 1, 71, 63
3, 8960, Note_on_c, 1, 67, 63
3, 8992, Note_off_c, 1, 71, 64
3, 8992, Note_off_c, 1, 67, 64
3, 9024, Note_on_c, 1, 62, 63
3, 9024, Note_on_c, 1, 59, 63
3, 9084, Note_off_c, 1, 62, 64
3, 9084, Note_off_c, 1, 59, 64
3, 9088, Note_on_c, 1, 67, 63
3, 9088, Note_on_c, 1, 62, 63
3, 9148, Note_off_c, 1, 67, 64
3, 9148, Note_off_c, 1, 62, 64
3, 9152, Note_on_c, 1, 67, 63
3, 9152, Note_on_c, 1, 62, 63
3, 9184, Note_off_c, 1, 67, 64
3, 9184, Note_off_c, 1, 62, 64
3, 9216, Note_on_c, 1, 62, 63
3, 9216, Note_on_c, 1, 57, 63
3, 9216, Note_on_c, 1, 57, 63
3, 9276, Note_off_c, 1, 62, 64
3, 9276, Note_off_c, 1, 57, 64
3, 9276, Note_off_c, 1, 57, 64
3, 9280, Note_on_c, 1, 62, 63
3, 9280, Note_on_c, 1, 66, 63
3, 9340, Note_off_c, 1, 62, 64
3, 9340, Note_off_c, 1, 66, 64
3, 9344, Note_on_c, 1, 66, 63
3, 9344, Note_on_c, 1, 62, 63
3, 9376, Note_off_c, 1, 66, 64
3, 9376, Note_off_c, 1, 62, 64
3, 9408, Note_on_c, 1, 62, 63
3, 9408, Note_on_c, 1, 57, 63
3, 9468, Note_off_c, 1, 62, 64
3, 9468, Note_off_c, 1, 57, 64
3, 9472, Note_on_c, 1, 66, 63
3, 9472, Note_on_c, 1, 62, 63
3, 9532, Note_off_c, 1, 66, 64
3, 9532, Note_off_c, 1, 62, 64
3, 9536, Note_on_c, 1, 66, 63
3, 9536, Note_on_c, 1, 62, 63
3, 9568, Note_off_c, 1, 66, 64
3, 9568, Note_off_c, 1, 62, 64
3, 9600, Note_on_c, 1, 61, 63
3, 9600, Note_on_c, 1, 57, 63
3, 9660, Note_off_c, 1, 61, 64
3, 9660, Note_off_c, 1, 57, 64
3, 9664, Note_on_c, 1, 64, 63
3, 9664, Note_on_c, 1, 61, 63
3, 9724, Note_off_c, 1, 64, 64
3, 9724, Note_off_c, 1, 61, 64
3, 9728, Note_on_c, 1, 64, 63
3, 9728, Note_on_c, 1, 61, 63
3, 9760, Note_off_c, 1, 64, 64
3, 9760, Note_off_c, 1, 61, 64
3, 9792, Note_on_c, 1, 61, 63
3, 9792, Note_on_c, 1, 57, 63
3, 9852, Note_off_c, 1, 61, 64
3, 9852, Note_off_c, 1, 57, 64
3, 9856, Note_on_c, 1, 64, 63
3, 9856, Note_on_c, 1, 61, 63
3, 9916, Note_off_c, 1, 64, 64
3, 9916, Note_off_c, 1, 61, 64
3, 9920, Note_on_c, 1, 64, 63
3, 9920, Note_on_c, 1, 61, 63
3, 9952, Note_off_c, 1, 64, 64
3, 9952, Note_off_c, 1, 61, 64
3, 9984, Note_on_c, 1, 61, 63
3, 9984, Note_on_c, 1, 57, 63
3, 10044, Note_off_c, 1, 61, 64
3, 10044, Note_off_c, 1, 57, 64
3, 10048, Note_on_c, 1, 64, 63
3, 10048, Note_on_c, 1, 61, 63
3, 10108, Note_off_c, 1, 64, 64
3, 10108, Note_off_c, 1, 61, 64
3, 10112, Note_on_c, 1, 64, 63
3, 10112, Note_on_c, 1, 61, 63
3, 10144, Note_off_c, 1, 64, 64
3, 10144, Note_off_c, 1, 61, 64
3, 10176, Note_on_c, 1, 64, 63
3, 10176, Note_on_c, 1, 61, 63
3, 10236, Note_off_c, 1, 64, 64
3, 10236, Note_off_c, 1, 61, 64
3, 10240, Note_on_c, 1, 73, 63
3, 10240, Note_on_c, 1, 64, 63
3, 10300, Note_off_c, 1, 73, 64
3, 10300, Note_off_c, 1, 64, 64
3, 10304, Note_on_c, 1, 73, 63
3, 10304, Note_on_c, 1, 64, 63
3, 10336, Note_off_c, 1, 73, 64
3, 10336, Note_off_c, 1, 64, 64
3, 10368, Note_on_c, 1, 74, 63
3, 10368, Note_on_c, 1, 62, 63
3, 10428, Note_off_c, 1, 74, 64
3, 10428, Note_off_c, 1, 62, 64
3, 10432, Note_on_c, 1, 69, 63
3, 10432, Note_on_c, 1, 66, 63
3, 10492, Note_off_c, 1, 69, 64
3, 10492, Note_off_c, 1, 66, 64
3, 10496, Note_on_c, 1, 69, 63
3, 10496, Note_on_c, 1, 66, 63
3, 10528, Note_off_c, 1, 69, 64
3, 10528, Note_off_c, 1, 66, 64
3, 10560, Note_on_c, 1, 69, 63
3, 10560, Note_on_c, 1, 66, 63
3, 10620, Note_off_c, 1, 69, 64
3, 10620, Note_off_c, 1, 66, 64
3, 10624, Note_on_c, 1, 66, 63
3, 10624, Note_on_c, 1, 62, 63
3, 10684, Note_off_c, 1, 66, 64
3, 10684, Note_off_c, 1, 62, 64
3, 10688, Note_on_c, 1, 66, 63
3, 10688, Note_on_c, 1, 62, 63
3, 10720, Note_off_c, 1, 66, 64
3, 10720, Note_off_c, 1, 62, 64
3, 10752, Note_on_c, 1, 67, 63
3, 10752, Note_on_c, 1, 62, 63
3, 10812, Note_off_c, 1, 67, 64
3, 10812, Note_off_c, 1, 62, 64
3, 10816, Note_on_c, 1, 62, 63
3, 10816, Note_on_c, 1, 59, 63
3, 10876, Note_off_c, 1, 62, 64
3, 10876, Note_off_c, 1, 59, 64
3, 10880, Note_on_c, 1, 62, 63
3, 10880, Note_on_c, 1, 59, 63
3, 10912, Note_off_c, 1, 62, 64
3, 10912, Note_off_c, 1, 59, 64
3, 10944, Note_on_c, 1, 62, 63
3, 10944, Note_on_c, 1, 59, 63
3, 11004, Note_off_c, 1, 62, 64
3, 11004, Note_off_c, 1, 59, 64
3, 11008, Note_on_c, 1, 67, 63
3, 11008, Note_on_c, 1, 62, 63
3, 11068, Note_off_c, 1, 67, 64
3, 11068, Note_off_c, 1, 62, 64
3, 11072, Note_on_c, 1, 67, 63
3, 11072, Note_on_c, 1, 62, 63
3, 11104, Note_off_c, 1, 67, 64
3, 11104, Note_off_c, 1, 62, 64
3, 11136, Note_on_c, 1, 67, 63
3, 11136, Note_on_c, 1, 62, 63
3, 11196, Note_off_c, 1, 67, 64
3, 11196, Note_off_c, 1, 62, 64
3, 11200, Note_on_c, 1, 71, 63
3, 11200, Note_on_c, 1, 67, 63
3, 11260, Note_off_c, 1, 71, 64
3, 11260, Note_off_c, 1, 67, 64
3, 11264, Note_on_c, 1, 71, 63
3, 11264, Note_on_c, 1, 67, 63
3, 11296, Note_off_c, 1, 71, 64
3, 11296, Note_off_c, 1, 67, 64
3, 11328, Note_on_c, 1, 71, 63
3, 11328, Note_on_c, 1, 67, 63
3, 11388, Note_off_c, 1, 71, 64
3, 11388, Note_off_c, 1, 67, 64
3, 11392, Note_on_c, 1, 67, 63
3, 11392, Note_on_c, 1, 64, 63
3, 11452, Note_off_c, 1, 67, 64
3, 11452, Note_off_c, 1, 64, 64
3, 11456, Note_on_c, 1, 67, 63
3, 11456, Note_on_c, 1, 64, 63
3, 11488, Note_off_c, 1, 67, 64
3, 11488, Note_off_c, 1, 64, 64
3, 11520, Note_on_c, 1, 66, 63
3, 11520, Note_on_c, 1, 62, 63
3, 11580, Note_off_c, 1, 66, 64
3, 11580, Note_off_c, 1, 62, 64
3, 11584, Note_on_c, 1, 69, 63
3, 11584, Note_on_c, 1, 66, 63
3, 11644, Note_off_c, 1, 69, 64
3, 11644, Note_off_c, 1, 66, 64
3, 11648, Note_on_c, 1, 69, 63
3, 11648, Note_on_c, 1, 66, 63
3, 11680, Note_off_c, 1, 69, 64
3, 11680, Note_off_c, 1, 66, 64
3, 11712, Note_on_c, 1, 69, 63
3, 11712, Note_on_c, 1, 66, 63
3, 11772, Note_off_c, 1, 69, 64
3, 11772, Note_off_c, 1, 66, 64
3, 11776, Note_on_c, 1, 66, 63
3, 11776, Note_on_c, 1, 62, 63
3, 11836, Note_off_c, 1, 66, 64
3, 11836, Note_off_c, 1, 62, 64
3, 11840, Note_on_c, 1, 66, 63
3, 11840, Note_on_c, 1, 62, 63
3, 11872, Note_off_c, 1, 66, 64
3, 11872, Note_off_c, 1, 62, 64
3, 11904, Note_on_c, 1, 64, 63
3, 11904, Note_on_c, 1, 57, 63
3, 11964, Note_off_c, 1, 64, 64
3, 11964, Note_off_c, 1, 57, 64
3, 11968, Note_on_c, 1, 69, 63
3, 11968, Note_on_c, 1, 64, 63
3, 12028, Note_off_c, 1, 69, 64
3, 12028, Note_off_c, 1, 64, 64
3, 12032, Note_on_c, 1, 69, 63
3, 12032, Note_on_c, 1, 64, 63
3, 12064, Note_off_c, 1, 69, 64
3, 12064, Note_off_c, 1, 64, 64
3, 12096, Note_on_c, 1, 71, 63
3, 12096, Note_on_c, 1, 67, 63
3, 12156, Note_off_c, 1, 71, 64
3, 12156, Note_off_c, 1, 67, 64
3, 12160, Note_on_c, 1, 62, 63
3, 12160, Note_on_c, 1, 59, 63
3, 12220, Note_off_c, 1, 62, 64
3, 12220, Note_off_c, 1, 59, 64
3, 12224, Note_on_c, 1, 62, 63
3, 12224, Note_on_c, 1, 59, 63
3, 12256, Note_off_c, 1, 62, 64
3, 12256, Note_off_c, 1, 59, 64
3, 12288, Note_on_c, 1, 62, 63
3, 12288, Note_on_c, 1, 57, 63
3, 12348, Note_off_c, 1, 62, 64
3, 12348, Note_off_c, 1, 57, 64
3, 12352, Note_on_c, 1, 69, 63
3, 12352, Note_on_c, 1, 62, 63
3, 12412, Note_off_c, 1, 69, 64
3, 12412, Note_off_c, 1, 62, 64
3, 12416, Note_on_c, 1, 69, 63
3, 12416, Note_on_c, 1, 62, 63
3, 12448, Note_off_c, 1, 69, 64
3, 12448, Note_off_c, 1, 62, 64
3, 12480, Note_on_c, 1, 62, 63
3, 12480, Note_on_c, 1, 55, 63
3, 12540, Note_off_c, 1, 62, 64
3, 12540, Note_off_c, 1, 55, 64
3, 12544, Note_on_c, 1, 67, 63
3, 12544, Note_on_c, 1, 62, 63
3, 12604, Note_off_c, 1, 67, 64
3, 12604, Note_off_c, 1, 62, 64
3, 12608, Note_on_c, 1, 71, 63
3, 12608, Note_on_c, 1, 62, 63
3, 12640, Note_off_c, 1, 71, 64
3, 12640, Note_off_c, 1, 62, 64
3, 12672, Note_on_c, 1, 69, 63
3, 12672, Note_on_c, 1, 62, 63
3, 12732, Note_off_c, 1, 69, 64
3, 12732, Note_off_c, 1, 62, 64
3, 12736, Note_on_c, 1, 62, 63
3, 12736, Note_on_c, 1, 57, 63
3, 12796, Note_off_c, 1, 62, 64
3, 12796, Note_off_c, 1, 57, 64
3, 12800, Note_on_c, 1, 62, 63
3, 12800, Note_on_c, 1, 57, 63
3, 12832, Note_off_c, 1, 62, 64
3, 12832, Note_off_c, 1, 57, 64
3, 12864, Note_on_c, 1, 61, 63
3, 12864, Note_on_c, 1, 55, 63
3, 12924, Note_off_c, 1, 61, 64
3, 12924, Note_off_c, 1, 55, 64
3, 12928, Note_on_c, 1, 64, 63
3, 12928, Note_on_c, 1, 61, 63
3, 12988, Note_off_c, 1, 64, 64
3, 12988, Note_off_c, 1, 61, 64
3, 12992, Note_on_c, 1, 67, 63
3, 12992, Note_on_c, 1, 61, 63
3, 13024, Note_off_c, 1, 67, 64
3, 13024, Note_off_c, 1, 61, 64
3, 13056, Note_on_c, 1, 66, 83
3, 13056, Note_on_c, 1, 62, 83
3, 13088, Note_off_c, 1, 66, 64
3, 13088, Note_off_c, 1, 62, 64
3, 13120, Note_on_c, 1, 66, 83
3, 13120, Note_on_c, 1, 62, 83
3, 13180, Note_off_c, 1, 66, 64
3, 13180, Note_off_c, 1, 62, 64
3, 13184, Note_on_c, 1, 67, 83
3, 13184, Note_on_c, 1, 64, 83
3, 13244, Note_off_c, 1, 67, 64
3, 13244, Note_off_c, 1, 64, 64
3, 13248, Note_on_c, 1, 69, 83
3, 13248, Note_on_c, 1, 66, 83
3, 13308, Note_off_c, 1, 69, 64
3, 13308, Note_off_c, 1, 66, 64
3, 13312, Note_on_c, 1, 67, 83
3, 13312, Note_on_c, 1, 64, 83
3, 13372, Note_off_c, 1, 67, 64
3, 13372, Note_off_c, 1, 64, 64
3, 13376, Note_on_c, 1, 66, 83
3, 13376, Note_on_c, 1, 62, 83
3, 13436, Note_off_c, 1, 66, 64
3, 13436, Note_off_c, 1, 62, 64
3, 13440, Note_on_c, 1, 64, 83
3, 13440, Note_on_c, 1, 61, 83
3, 13472, Note_off_c, 1, 64, 64
3, 13472, Note_off_c, 1, 61, 64
3, 13504, Note_on_c, 1, 67, 83
3, 13504, Note_on_c, 1, 64, 83
3, 13564, Note_off_c, 1, 67, 64
3, 13564, Note_off_c, 1, 64, 64
3, 13568, Note_on_c, 1, 69, 83
3, 13568, Note_on_c, 1, 66, 83
3, 13628, Note_off_c, 1, 69, 64
3, 13628, Note_off_c, 1, 66, 64
3, 13632, Note_on_c, 1, 71, 83
3, 13632, Note_on_c, 1, 67, 83
3, 13692, Note_off_c, 1, 71, 64
3, 13692, Note_off_c, 1, 67, 64
3, 13696, Note_on_c, 1, 69, 83
3, 13696, Note_on_c, 1, 66, 83
3, 13756, Note_off_c, 1, 69, 64
3, 13756, Note_off_c, 1, 66, 64
3, 13760, Note_on_c, 1, 67, 83
3, 13760, Note_on_c, 1, 64, 83
3, 13820, Note_off_c, 1, 67, 64
3, 13820, Note_off_c, 1, 64, 64
3, 13824, Note_on_c, 1, 66, 63
3, 13824, Note_on_c, 1, 62, 63
3, 13884, Note_off_c, 1, 66, 64
3, 13884, Note_off_c, 1, 62, 64
3, 13888, Note_on_c, 1, 69, 63
3, 13888, Note_on_c, 1, 66, 63
3, 13948, Note_off_c, 1, 69, 64
3, 13948, Note_off_c, 1, 66, 64
3, 13952, Note_on_c, 1, 69, 63
3, 13952, Note_on_c, 1, 66, 63
3, 13984, Note_off_c, 1, 69, 64
3, 13984, Note_off_c, 1, 66, 64
3, 14016, Note_on_c, 1, 66, 63
3, 14016, Note_on_c, 1, 62, 63
3, 14076, Note_off_c, 1, 66, 64
3, 14076, Note_off_c, 1, 62, 64
3, 14080, Note_on_c, 1, 69, 63
3, 14080, Note_on_c, 1, 66, 63
3, 14140, Note_off_c, 1, 69, 64
3, 14140, Note_off_c, 1, 66, 64
3, 14144, Note_on_c, 1, 69, 63
3, 14144, Note_on_c, 1, 66, 63
3, 14176, Note_off_c, 1, 69, 64
3, 14176, Note_off_c, 1, 66, 64
3, 14208, Note_on_c, 1, 66, 63
3, 14208, Note_on_c, 1, 62, 63
3, 14268, Note_off_c, 1, 66, 64
3, 14268, Note_off_c, 1, 62, 64
3, 14272, Note_on_c, 1, 69, 63
3, 14272, Note_on_c, 1, 66, 63
3, 14332, Note_off_c, 1, 69, 64
3, 14332, Note_off_c, 1, 66, 64
3, 14336, Note_on_c, 1, 69, 63
3, 14336, Note_on_c, 1, 66, 63
3, 14368, Note_off_c, 1, 69, 64
3, 14368, Note_off_c, 1, 66, 64
3, 14400, Note_on_c, 1, 66, 63
3, 14400, Note_on_c, 1, 62, 63
3, 14460, Note_off_c, 1, 66, 64
3, 14460, Note_off_c, 1, 62, 64
3, 14464, Note_on_c, 1, 69, 63
3, 14464, Note_on_c, 1, 66, 63
3, 14524, Note_off_c, 1, 69, 64
3, 14524, Note_off_c, 1, 66, 64
3, 14528, Note_on_c, 1, 69, 63
3, 14528, Note_on_c, 1, 66, 63
3, 14560, Note_off_c, 1, 69, 64
3, 14560, Note_off_c, 1, 66, 64
3, 14592, Note_on_c, 1, 64, 63
3, 14592, Note_on_c, 1, 57, 63
3, 14652, Note_off_c, 1, 64, 64
3, 14652, Note_off_c, 1, 57, 64
3, 14656, Note_on_c, 1, 69, 63
3, 14656, Note_on_c, 1, 64, 63
3, 14716, Note_off_c, 1, 69, 64
3, 14716, Note_off_c, 1, 64, 64
3, 14720, Note_on_c, 1, 69, 63
3, 14720, Note_on_c, 1, 64, 63
3, 14752, Note_off_c, 1, 69, 64
3, 14752, Note_off_c, 1, 64, 64
3, 14784, Note_on_c, 1, 64, 63
3, 14784, Note_on_c, 1, 61, 63
3, 14844, Note_off_c, 1, 64, 64
3, 14844, Note_off_c, 1, 61, 64
3, 14848, Note_on_c, 1, 69, 63
3, 14848, Note_on_c, 1, 64, 63
3, 14908, Note_off_c, 1, 69, 64
3, 14908, Note_off_c, 1, 64, 64
3, 14912, Note_on_c, 1, 69, 63
3, 14912, Note_on_c, 1, 64, 63
3, 14944, Note_off_c, 1, 69, 64
3, 14944, Note_off_c, 1, 64, 64
3, 14976, Note_on_c, 1, 69, 63
3, 14976, Note_on_c, 1, 64, 63
3, 15036, Note_off_c, 1, 69, 64
3, 15036, Note_off_c, 1, 64, 64
3, 15040, Note_on_c, 1, 73, 63
3, 15040, Note_on_c, 1, 69, 63
3, 15100, Note_off_c, 1, 73, 64
3, 15100, Note_off_c, 1, 69, 64
3, 15104, Note_on_c, 1, 73, 63
3, 15104, Note_on_c, 1, 69, 63
3, 15136, Note_off_c, 1, 73, 64
3, 15136, Note_off_c, 1, 69, 64
3, 15168, Note_on_c, 1, 73, 63
3, 15168, Note_on_c, 1, 69, 63
3, 15228, Note_off_c, 1, 73, 64
3, 15228, Note_off_c, 1, 69, 64
3, 15232, Note_on_c, 1, 76, 63
3, 15232, Note_on_c, 1, 73, 63
3, 15292, Note_off_c, 1, 76, 64
3, 15292, Note_off_c, 1, 73, 64
3, 15296, Note_on_c, 1, 76, 63
3, 15296, Note_on_c, 1, 73, 63
3, 15328, Note_off_c, 1, 76, 64
3, 15328, Note_off_c, 1, 73, 64
3, 15360, Note_on_c, 1, 66, 63
3, 15360, Note_on_c, 1, 62, 63
3, 15420, Note_off_c, 1, 66, 64
3, 15420, Note_off_c, 1, 62, 64
3, 15424, Note_on_c, 1, 74, 63
3, 15424, Note_on_c, 1, 71, 63
3, 15484, Note_off_c, 1, 74, 64
3, 15484, Note_off_c, 1, 71, 64
3, 15488, Note_on_c, 1, 74, 63
3, 15488, Note_on_c, 1, 71, 63
3, 15520, Note_off_c, 1, 74, 64
3, 15520, Note_off_c, 1, 71, 64
3, 15552, Note_on_c, 1, 68, 63
3, 15552, Note_on_c, 1, 64, 63
3, 15612, Note_off_c, 1, 68, 64
3, 15612, Note_off_c, 1, 64, 64
3, 15616, Note_on_c, 1, 74, 63
3, 15616, Note_on_c, 1, 71, 63
3, 15676, Note_off_c, 1, 74, 64
3, 15676, Note_off_c, 1, 71, 64
3, 15680, Note_on_c, 1, 74, 63
3, 15680, Note_on_c, 1, 71, 63
3, 15712, Note_off_c, 1, 74, 64
3, 15712, Note_off_c, 1, 71, 64
3, 15744, Note_on_c, 1, 71, 63
3, 15744, Note_on_c, 1, 62, 63
3, 15804, Note_off_c, 1, 71, 64
3, 15804, Note_off_c, 1, 62, 64
3, 15808, Note_on_c, 1, 74, 63
3, 15808, Note_on_c, 1, 71, 63
3, 15868, Note_off_c, 1, 74, 64
3, 15868, Note_off_c, 1, 71, 64
3, 15872, Note_on_c, 1, 74, 63
3, 15872, Note_on_c, 1, 71, 63
3, 15904, Note_off_c, 1, 74, 64
3, 15904, Note_off_c, 1, 71, 64
3, 15936, Note_on_c, 1, 68, 63
3, 15936, Note_on_c, 1, 59, 63
3, 15996, Note_off_c, 1, 68, 64
3, 15996, Note_off_c, 1, 59, 64
3, 16000, Note_on_c, 1, 71, 63
3, 16000, Note_on_c, 1, 68, 63
3, 16060, Note_off_c, 1, 71, 64
3, 16060, Note_off_c, 1, 68, 64
3, 16064, Note_on_c, 1, 71, 63
3, 16064, Note_on_c, 1, 68, 63
3, 16096, Note_off_c, 1, 71, 64
3, 16096, Note_off_c, 1, 68, 64
3, 16128, Note_on_c, 1, 68, 63
3, 16128, Note_on_c, 1, 59, 63
3, 16188, Note_off_c, 1, 68, 64
3, 16188, Note_off_c, 1, 59, 64
3, 16192, Note_on_c, 1, 71, 63
3, 16192, Note_on_c, 1, 68, 63
3, 16252, Note_off_c, 1, 71, 64
3, 16252, Note_off_c, 1, 68, 64
3, 16256, Note_on_c, 1, 71, 63
3, 16256, Note_on_c, 1, 68, 63
3, 16288, Note_off_c, 1, 71, 64
3, 16288, Note_off_c, 1, 68, 64
3, 16320, Note_on_c, 1, 69, 63
3, 16320, Note_on_c, 1, 64, 63
3, 16380, Note_off_c, 1, 69, 64
3, 16380, Note_off_c, 1, 64, 64
3, 16384, Note_on_c, 1, 71, 63
3, 16384, Note_on_c, 1, 68, 63
3, 16444, Note_off_c, 1, 71, 64
3, 16444, Note_off_c, 1, 68, 64
3, 16448, Note_on_c, 1, 71, 63
3, 16448, Note_on_c, 1, 68, 63
3, 16480, Note_off_c, 1, 71, 64
3, 16480, Note_off_c, 1, 68, 64
3, 16512, Note_on_c, 1, 69, 63
3, 16512, Note_on_c, 1, 64, 63
3, 16572, Note_off_c, 1, 69, 64
3, 16572, Note_off_c, 1, 64, 64
3, 16576, Note_on_c, 1, 73, 63
3, 16576, Note_on_c, 1, 69, 63
3, 16636, Note_off_c, 1, 73, 64
3, 16636, Note_off_c, 1, 69, 64
3, 16640, Note_on_c, 1, 73, 63
3, 16640, Note_on_c, 1, 69, 63
3, 16672, Note_off_c, 1, 73, 64
3, 16672, Note_off_c, 1, 69, 64
3, 16704, Note_on_c, 1, 73, 63
3, 16704, Note_on_c, 1, 69, 63
3, 16764, Note_off_c, 1, 73, 64
3, 16764, Note_off_c, 1, 69, 64
3, 16768, Note_on_c, 1, 76, 63
3, 16768, Note_on_c, 1, 73, 63
3, 16828, Note_off_c, 1, 76, 64
3, 16828, Note_off_c, 1, 73, 64
3, 16832, Note_on_c, 1, 76, 63
3, 16832, Note_on_c, 1, 73, 63
3, 16864, Note_off_c, 1, 76, 64
3, 16864, Note_off_c, 1, 73, 64
3, 16896, Note_on_c, 1, 69, 63
3, 16956, Note_off_c, 1, 69, 64
3, 16960, Note_on_c, 1, 74, 63
3, 17020, Note_off_c, 1, 74, 64
3, 17024, Note_on_c, 1, 74, 63
3, 17056, Note_off_c, 1, 74, 64
3, 17088, Note_on_c, 1, 69, 63
3, 17148, Note_off_c, 1, 69, 64
3, 17152, Note_on_c, 1, 74, 63
3, 17212, Note_off_c, 1, 74, 64
3, 17216, Note_on_c, 1, 74, 63
3, 17248, Note_off_c, 1, 74, 64
3, 17280, Note_on_c, 1, 69, 63
3, 17340, Note_off_c, 1, 69, 64
3, 17344, Note_on_c, 1, 73, 63
3, 17404, Note_off_c, 1, 73, 64
3, 17408, Note_on_c, 1, 73, 63
3, 17440, Note_off_c, 1, 73, 64
3, 17472, Note_on_c, 1, 69, 63
3, 17532, Note_off_c, 1, 69, 64
3, 17536, Note_on_c, 1, 73, 63
3, 17596, Note_off_c, 1, 73, 64
3, 17600, Note_on_c, 1, 73, 63
3, 17632, Note_off_c, 1, 73, 64
3, 17664, Note_on_c, 1, 69, 63
3, 17664, Note_on_c, 1, 66, 63
3, 17696, Note_off_c, 1, 69, 64
3, 17696, Note_off_c, 1, 66, 64
3, 17728, Note_on_c, 1, 69, 63
3, 17728, Note_on_c, 1, 66, 63
3, 17728, Note_on_c, 1, 59, 63
3, 17760, Note_off_c, 1, 69, 64
3, 17760, Note_off_c, 1, 66, 64
3, 17760, Note_off_c, 1, 59, 64
3, 17792, Note_on_c, 1, 69, 63
3, 17792, Note_on_c, 1, 66, 63
3, 17792, Note_on_c, 1, 59, 63
3, 17824, Note_off_c, 1, 69, 64
3, 17824, Note_off_c, 1, 66, 64
3, 17824, Note_off_c, 1, 59, 64
3, 17856, Note_on_c, 1, 69, 63
3, 17856, Note_on_c, 1, 66, 63
3, 17856, Note_on_c, 1, 59, 63
3, 17888, Note_off_c, 1, 69, 64
3, 17888, Note_off_c, 1, 66, 64
3, 17888, Note_off_c, 1, 59, 64
3, 17920, Note_on_c, 1, 69, 63
3, 17920, Note_on_c, 1, 66, 63
3, 17920, Note_on_c, 1, 59, 63
3, 17952, Note_off_c, 1, 69, 64
3, 17952, Note_off_c, 1, 66, 64
3, 17952, Note_off_c, 1, 59, 64
3, 17984, Note_on_c, 1, 69, 63
3, 17984, Note_on_c, 1, 66, 63
3, 17984, Note_on_c, 1, 59, 63
3, 18016, Note_off_c, 1, 69, 64
3, 18016, Note_off_c, 1, 66, 64
3, 18016, Note_off_c, 1, 59, 64
3, 18048, Note_on_c, 1, 68, 63
3, 18048, Note_on_c, 1, 64, 63
3, 18048, Note_on_c, 1, 59, 63
3, 18080, Note_off_c, 1, 68, 64
3, 18080, Note_off_c, 1, 64, 64
3, 18080, Note_off_c, 1, 59, 64
3, 18112, Note_on_c, 1, 68, 63
3, 18112, Note_on_c, 1, 59, 63
3, 18144, Note_off_c, 1, 68, 64
3, 18144, Note_off_c, 1, 59, 64
3, 18176, Note_on_c, 1, 68, 63
3, 18176, Note_on_c, 1, 59, 63
3, 18208, Note_off_c, 1, 68, 64
3, 18208, Note_off_c, 1, 59, 64
3, 18240, Note_on_c, 1, 68, 63
3, 18240, Note_on_c, 1, 59, 63
3, 18272, Note_off_c, 1, 68, 64
3, 18272, Note_off_c, 1, 59, 64
3, 18304, Note_on_c, 1, 68, 63
3, 18304, Note_on_c, 1, 59, 63
3, 18336, Note_off_c, 1, 68, 64
3, 18336, Note_off_c, 1, 59, 64
3, 18368, Note_on_c, 1, 68, 63
3, 18368, Note_on_c, 1, 59, 63
3, 18400, Note_off_c, 1, 68, 64
3, 18400, Note_off_c, 1, 59, 64
3, 18432, Note_on_c, 1, 69, 63
3, 18432, Note_on_c, 1, 57, 63
3, 18464, Note_off_c, 1, 69, 64
3, 18464, Note_off_c, 1, 57, 64
3, 18496, Note_on_c, 1, 69, 63
3, 18496, Note_on_c, 1, 57, 63
3, 18528, Note_off_c, 1, 69, 64
3, 18528, Note_off_c, 1, 57, 64
3, 18560, Note_on_c, 1, 69, 63
3, 18560, Note_on_c, 1, 57, 63
3, 18592, Note_off_c, 1, 69, 64
3, 18592, Note_off_c, 1, 57, 64
3, 18624, Note_on_c, 1, 69, 63
3, 18624, Note_on_c, 1, 57, 63
3, 18656, Note_off_c, 1, 69, 64
3, 18656, Note_off_c, 1, 57, 64
3, 18688, Note_on_c, 1, 69, 63
3, 18688, Note_on_c, 1, 57, 63
3, 18720, Note_off_c, 1, 69, 64
3, 18720, Note_off_c, 1, 57, 64
3, 18752, Note_on_c, 1, 69, 63
3, 18752, Note_on_c, 1, 57, 63
3, 18784, Note_off_c, 1, 69, 64
3, 18784, Note_off_c, 1, 57, 64
3, 18816, Note_on_c, 1, 69, 63
3, 18816, Note_on_c, 1, 62, 63
3, 18848, Note_off_c, 1, 69, 64
3, 18848, Note_off_c, 1, 62, 64
3, 18880, Note_on_c, 1, 69, 63
3, 18880, Note_on_c, 1, 62, 63
3, 18912, Note_off_c, 1, 69, 64
3, 18912, Note_off_c, 1, 62, 64
3, 18944, Note_on_c, 1, 69, 63
3, 18944, Note_on_c, 1, 62, 63
3, 18976, Note_off_c, 1, 69, 64
3, 18976, Note_off_c, 1, 62, 64
3, 19008, Note_on_c, 1, 69, 63
3, 19008, Note_on_c, 1, 62, 63
3, 19040, Note_off_c, 1, 69, 64
3, 19040, Note_off_c, 1, 62, 64
3, 19072, Note_on_c, 1, 69, 63
3, 19072, Note_on_c, 1, 62, 63
3, 19104, Note_off_c, 1, 69, 64
3, 19104, Note_off_c, 1, 62, 64
3, 19136, Note_on_c, 1, 66, 63
3, 19136, Note_on_c, 1, 62, 63
3, 19168, Note_off_c, 1, 66, 64
3, 19168, Note_off_c, 1, 62, 64
3, 19200, Note_on_c, 1, 64, 63
3, 19200, Note_on_c, 1, 61, 63
3, 19260, Note_off_c, 1, 64, 64
3, 19260, Note_off_c, 1, 61, 64
3, 19264, Note_on_c, 1, 64, 63
3, 19264, Note_on_c, 1, 61, 63
3, 19324, Note_off_c, 1, 64, 64
3, 19324, Note_off_c, 1, 61, 64
3, 19328, Note_on_c, 1, 64, 63
3, 19328, Note_on_c, 1, 61, 63
3, 19388, Note_off_c, 1, 64, 64
3, 19388, Note_off_c, 1, 61, 64
3, 19392, Note_on_c, 1, 64, 63
3, 19392, Note_on_c, 1, 61, 63
3, 19452, Note_off_c, 1, 64, 64
3, 19452, Note_off_c, 1, 61, 64
3, 19456, Note_on_c, 1, 64, 63
3, 19456, Note_on_c, 1, 61, 63
3, 19516, Note_off_c, 1, 64, 64
3, 19516, Note_off_c, 1, 61, 64
3, 19520, Note_on_c, 1, 64, 63
3, 19520, Note_on_c, 1, 61, 63
3, 19580, Note_off_c, 1, 64, 64
3, 19580, Note_off_c, 1, 61, 64
3, 19584, Note_on_c, 1, 64, 63
3, 19584, Note_on_c, 1, 61, 63
3, 19772, Note_off_c, 1, 64, 64
3, 19772, Note_off_c, 1, 61, 64
3, 19776, Note_on_c, 1, 76, 63
3, 19916, Note_off_c, 1, 76, 64
3, 19920, Note_on_c, 1, 74, 63
3, 19964, Note_off_c, 1, 74, 64
3, 19968, Note_on_c, 1, 73, 63
3, 20068, Note_off_c, 1, 73, 64
3, 20160, Note_on_c, 1, 74, 63
3, 20260, Note_off_c, 1, 74, 64
3, 20352, Note_on_c, 1, 71, 63
3, 20452, Note_off_c, 1, 71, 64
3, 20544, Note_on_c, 1, 76, 63
3, 20588, Note_off_c, 1, 76, 64
3, 20592, Note_on_c, 1, 75, 63
3, 20636, Note_off_c, 1, 75, 64
3, 20640, Note_on_c, 1, 76, 63
3, 20684, Note_off_c, 1, 76, 64
3, 20688, Note_on_c, 1, 74, 63
3, 20732, Note_off_c, 1, 74, 64
3, 20736, Note_on_c, 1, 73, 63
3, 20836, Note_off_c, 1, 73, 64
3, 20928, Note_on_c, 1, 74, 63
3, 21028, Note_off_c, 1, 74, 64
3, 21120, Note_on_c, 1, 71, 63
3, 21220, Note_off_c, 1, 71, 64
3, 21312, Note_on_c, 1, 68, 63
3, 21412, Note_off_c, 1, 68, 64
3, 21504, Note_on_c, 1, 69, 63
3, 21564, Note_off_c, 1, 69, 64
3, 21568, Note_on_c, 1, 69, 63
3, 21628, Note_off_c, 1, 69, 64
3, 21632, Note_on_c, 1, 69, 63
3, 21692, Note_off_c, 1, 69, 64
3, 21760, Note_on_c, 1, 66, 63
3, 21820, Note_off_c, 1, 66, 64
3, 21824, Note_on_c, 1, 66, 63
3, 21884, Note_off_c, 1, 66, 64
3, 21952, Note_on_c, 1, 66, 63
3, 22012, Note_off_c, 1, 66, 64
3, 22016, Note_on_c, 1, 66, 63
3, 22076, Note_off_c, 1, 66, 64
3, 22144, Note_on_c, 1, 68, 63
3, 22204, Note_off_c, 1, 68, 64
3, 22208, Note_on_c, 1, 68, 63
3, 22268, Note_off_c, 1, 68, 64
3, 22336, Note_on_c, 1, 68, 63
3, 22336, Note_on_c, 1, 64, 63
3, 22396, Note_off_c, 1, 68, 64
3, 22396, Note_off_c, 1, 64, 64
3, 22400, Note_on_c, 1, 68, 63
3, 22400, Note_on_c, 1, 64, 63
3, 22460, Note_off_c, 1, 68, 64
3, 22460, Note_off_c, 1, 64, 64
3, 22464, Note_on_c, 1, 68, 63
3, 22464, Note_on_c, 1, 64, 63
3, 22524, Note_off_c, 1, 68, 64
3, 22524, Note_off_c, 1, 64, 64
3, 22528, Note_on_c, 1, 68, 63
3, 22528, Note_on_c, 1, 64, 63
3, 22588, Note_off_c, 1, 68, 64
3, 22588, Note_off_c, 1, 64, 64
3, 22592, Note_on_c, 1, 68, 63
3, 22592, Note_on_c, 1, 64, 63
3, 22652, Note_off_c, 1, 68, 64
3, 22652, Note_off_c, 1, 64, 64
3, 22656, Note_on_c, 1, 64, 63
3, 22656, Note_on_c, 1, 69, 63
3, 22704, Note_off_c, 1, 64, 64
3, 22704, Note_off_c, 1, 69, 64
3, 22752, Note_on_c, 1, 69, 63
3, 22844, Note_off_c, 1, 69, 64
3, 22848, Note_on_c, 1, 76, 63
3, 22940, Note_off_c, 1, 76, 64
3, 22944, Note_on_c, 1, 74, 63
3, 23036, Note_off_c, 1, 74, 64
3, 23040, Note_on_c, 1, 73, 63
3, 23140, Note_off_c, 1, 73, 64
3, 23232, Note_on_c, 1, 74, 63
3, 23332, Note_off_c, 1, 74, 64
3, 23424, Note_on_c, 1, 71, 63
3, 23468, Note_off_c, 1, 71, 64
3, 23472, Note_on_c, 1, 73, 63
3, 23516, Note_off_c, 1, 73, 64
3, 23520, Note_on_c, 1, 74, 63
3, 23564, Note_off_c, 1, 74, 64
3, 23568, Note_on_c, 1, 75, 63
3, 23612, Note_off_c, 1, 75, 64
3, 23616, Note_on_c, 1, 76, 63
3, 23660, Note_off_c, 1, 76, 64
3, 23664, Note_on_c, 1, 75, 63
3, 23708, Note_off_c, 1, 75, 64
3, 23712, Note_on_c, 1, 76, 63
3, 23756, Note_off_c, 1, 76, 64
3, 23760, Note_on_c, 1, 74, 63
3, 23804, Note_off_c, 1, 74, 64
3, 23808, Note_on_c, 1, 73, 63
3, 23856, Note_off_c, 1, 73, 64
3, 23904, Note_on_c, 1, 73, 63
3, 23952, Note_off_c, 1, 73, 64
3, 24000, Note_on_c, 1, 74, 63
3, 24048, Note_off_c, 1, 74, 64
3, 24096, Note_on_c, 1, 74, 63
3, 24144, Note_off_c, 1, 74, 64
3, 24192, Note_on_c, 1, 71, 63
3, 24240, Note_off_c, 1, 71, 64
3, 24288, Note_on_c, 1, 64, 63
3, 24380, Note_off_c, 1, 64, 64
3, 24384, Note_on_c, 1, 68, 63
3, 24476, Note_off_c, 1, 68, 64
3, 24480, Note_on_c, 1, 71, 63
3, 24572, Note_off_c, 1, 71, 64
3, 24640, Note_on_c, 1, 69, 63
3, 24700, Note_off_c, 1, 69, 64
3, 24704, Note_on_c, 1, 69, 63
3, 24764, Note_off_c, 1, 69, 64
3, 24832, Note_on_c, 1, 66, 63
3, 24892, Note_off_c, 1, 66, 64
3, 24896, Note_on_c, 1, 66, 63
3, 24956, Note_off_c, 1, 66, 64
3, 24960, Note_on_c, 1, 71, 63
3, 25020, Note_off_c, 1, 71, 64
3, 25024, Note_on_c, 1, 64, 63
3, 25084, Note_off_c, 1, 64, 64
3, 25088, Note_on_c, 1, 66, 63
3, 25148, Note_off_c, 1, 66, 64
3, 25216, Note_on_c, 1, 62, 63
3, 25276, Note_off_c, 1, 62, 64
3, 25280, Note_on_c, 1, 62, 63
3, 25340, Note_off_c, 1, 62, 64
3, 25408, Note_on_c, 1, 69, 63
3, 25408, Note_on_c, 1, 59, 63
3, 25468, Note_off_c, 1, 69, 64
3, 25468, Note_off_c, 1, 59, 64
3, 25472, Note_on_c, 1, 69, 63
3, 25472, Note_on_c, 1, 59, 63
3, 25532, Note_off_c, 1, 69, 64
3, 25532, Note_off_c, 1, 59, 64
3, 25536, Note_on_c, 1, 71, 63
3, 25536, Note_on_c, 1, 59, 63
3, 25596, Note_off_c, 1, 71, 64
3, 25596, Note_off_c, 1, 59, 64
3, 25600, Note_on_c, 1, 71, 63
3, 25600, Note_on_c, 1, 59, 63
3, 25660, Note_off_c, 1, 71, 64
3, 25660, Note_off_c, 1, 59, 64
3, 25664, Note_on_c, 1, 71, 63
3, 25664, Note_on_c, 1, 61, 63
3, 25724, Note_off_c, 1, 71, 64
3, 25724, Note_off_c, 1, 61, 64
3, 25792, Note_on_c, 1, 71, 63
3, 25792, Note_on_c, 1, 64, 63
3, 25852, Note_off_c, 1, 71, 64
3, 25852, Note_off_c, 1, 64, 64
3, 25856, Note_on_c, 1, 71, 63
3, 25856, Note_on_c, 1, 64, 63
3, 25916, Note_off_c, 1, 71, 64
3, 25916, Note_off_c, 1, 64, 64
3, 25920, Note_on_c, 1, 71, 63
3, 25920, Note_on_c, 1, 64, 63
3, 25980, Note_off_c, 1, 71, 64
3, 25980, Note_off_c, 1, 64, 64
3, 25984, Note_on_c, 1, 71, 63
3, 25984, Note_on_c, 1, 64, 63
3, 26044, Note_off_c, 1, 71, 64
3, 26044, Note_off_c, 1, 64, 64
3, 26048, Note_on_c, 1, 71, 63
3, 26048, Note_on_c, 1, 64, 63
3, 26108, Note_off_c, 1, 71, 64
3, 26108, Note_off_c, 1, 64, 64
3, 26112, Note_on_c, 1, 69, 63
3, 26112, Note_on_c, 1, 64, 63
3, 26172, Note_off_c, 1, 69, 64
3, 26172, Note_off_c, 1, 64, 64
3, 26176, Note_on_c, 1, 64, 63
3, 26236, Note_off_c, 1, 64, 64
3, 26240, Note_on_c, 1, 64, 63
3, 26300, Note_off_c, 1, 64, 64
3, 26304, Note_on_c, 1, 64, 63
3, 26492, Note_off_c, 1, 64, 64
3, 26496, Note_on_c, 1, 64, 63
3, 26684, Note_off_c, 1, 64, 64
3, 26688, Note_on_c, 1, 64, 63
3, 26876, Note_off_c, 1, 64, 64
3, 26880, Note_on_c, 1, 64, 63
3, 27068, Note_off_c, 1, 64, 64
3, 27072, Note_on_c, 1, 69, 63
3, 27132, Note_off_c, 1, 69, 64
3, 27136, Note_on_c, 1, 73, 63
3, 27196, Note_off_c, 1, 73, 64
3, 27200, Note_on_c, 1, 71, 63
3, 27260, Note_off_c, 1, 71, 64
3, 27264, Note_on_c, 1, 68, 63
3, 27324, Note_off_c, 1, 68, 64
3, 27328, Note_on_c, 1, 65, 63
3, 27388, Note_off_c, 1, 65, 64
3, 27392, Note_on_c, 1, 66, 63
3, 27452, Note_off_c, 1, 66, 64
3, 27456, Note_on_c, 1, 62, 63
3, 27516, Note_off_c, 1, 62, 64
3, 27520, Note_on_c, 1, 60, 63
3, 27580, Note_off_c, 1, 60, 64
3, 27584, Note_on_c, 1, 61, 63
3, 27644, Note_off_c, 1, 61, 64
3, 27648, Note_on_c, 1, 62, 63
3, 27648, Note_on_c, 1, 59, 63
3, 27708, Note_off_c, 1, 62, 64
3, 27708, Note_off_c, 1, 59, 64
3, 27712, Note_on_c, 1, 69, 63
3, 27712, Note_on_c, 1, 66, 63
3, 27772, Note_off_c, 1, 69, 64
3, 27772, Note_off_c, 1, 66, 64
3, 27776, Note_on_c, 1, 69, 63
3, 27776, Note_on_c, 1, 66, 63
3, 27808, Note_off_c, 1, 69, 64
3, 27808, Note_off_c, 1, 66, 64
3, 27840, Note_on_c, 1, 66, 63
3, 27840, Note_on_c, 1, 62, 63
3, 27900, Note_off_c, 1, 66, 64
3, 27900, Note_off_c, 1, 62, 64
3, 27904, Note_on_c, 1, 69, 63
3, 27904, Note_on_c, 1, 66, 63
3, 27964, Note_off_c, 1, 69, 64
3, 27964, Note_off_c, 1, 66, 64
3, 27968, Note_on_c, 1, 69, 63
3, 27968, Note_on_c, 1, 66, 63
3, 28000, Note_off_c, 1, 69, 64
3, 28000, Note_off_c, 1, 66, 64
3, 28032, Note_on_c, 1, 66, 63
3, 28032, Note_on_c, 1, 57, 63
3, 28092, Note_off_c, 1, 66, 64
3, 28092, Note_off_c, 1, 57, 64
3, 28096, Note_on_c, 1, 69, 63
3, 28096, Note_on_c, 1, 66, 63
3, 28156, Note_off_c, 1, 69, 64
3, 28156, Note_off_c, 1, 66, 64
3, 28160, Note_on_c, 1, 69, 63
3, 28160, Note_on_c, 1, 66, 63
3, 28192, Note_off_c, 1, 69, 64
3, 28192, Note_off_c, 1, 66, 64
3, 28224, Note_on_c, 1, 66, 63
3, 28224, Note_on_c, 1, 62, 63
3, 28284, Note_off_c, 1, 66, 64
3, 28284, Note_off_c, 1, 62, 64
3, 28288, Note_on_c, 1, 69, 63
3, 28288, Note_on_c, 1, 66, 63
3, 28348, Note_off_c, 1, 69, 64
3, 28348, Note_off_c, 1, 66, 64
3, 28352, Note_on_c, 1, 69, 63
3, 28352, Note_on_c, 1, 66, 63
3, 28384, Note_off_c, 1, 69, 64
3, 28384, Note_off_c, 1, 66, 64
3, 28416, Note_on_c, 1, 69, 64
3, 28416, Note_on_c, 1, 61, 64
3, 28476, Note_off_c, 1, 69, 64
3, 28476, Note_off_c, 1, 61, 64
3, 28480, Note_on_c, 1, 73, 65
3, 28480, Note_on_c, 1, 69, 65
3, 28540, Note_off_c, 1, 73, 64
3, 28540, Note_off_c, 1, 69, 64
3, 28544, Note_on_c, 1, 73, 67
3, 28544, Note_on_c, 1, 69, 67
3, 28576, Note_off_c, 1, 73, 64
3, 28576, Note_off_c, 1, 69, 64
3, 28608, Note_on_c, 1, 61, 70
3, 28608, Note_on_c, 1, 57, 70
3, 28668, Note_off_c, 1, 61, 64
3, 28668, Note_off_c, 1, 57, 64
3, 28672, Note_on_c, 1, 69, 71
3, 28672, Note_on_c, 1, 61, 71
3, 28732, Note_off_c, 1, 69, 64
3, 28732, Note_off_c, 1, 61, 64
3, 28736, Note_on_c, 1, 69, 72
3, 28736, Note_on_c, 1, 61, 72
3, 28768, Note_off_c, 1, 69, 64
3, 28768, Note_off_c, 1, 61, 64
3, 28800, Note_on_c, 1, 68, 74
3, 28800, Note_on_c, 1, 62, 74
3, 28860, Note_off_c, 1, 68, 64
3, 28860, Note_off_c, 1, 62, 64
3, 28864, Note_on_c, 1, 68, 75
3, 28864, Note_on_c, 1, 62, 75
3, 28924, Note_off_c, 1, 68, 64
3, 28924, Note_off_c, 1, 62, 64
3, 28928, Note_on_c, 1, 68, 77
3, 28928, Note_on_c, 1, 62, 77
3, 28988, Note_off_c, 1, 68, 64
3, 28988, Note_off_c, 1, 62, 64
3, 28992, Note_on_c, 1, 68, 80
3, 28992, Note_on_c, 1, 62, 80
3, 29052, Note_off_c, 1, 68, 64
3, 29052, Note_off_c, 1, 62, 64
3, 29056, Note_on_c, 1, 68, 81
3, 29056, Note_on_c, 1, 62, 81
3, 29116, Note_off_c, 1, 68, 64
3, 29116, Note_off_c, 1, 62, 64
3, 29120, Note_on_c, 1, 68, 82
3, 29120, Note_on_c, 1, 62, 82
3, 29180, Note_off_c, 1, 68, 64
3, 29180, Note_off_c, 1, 62, 64
3, 29184, Note_on_c, 1, 69, 83
3, 29184, Note_on_c, 1, 61, 83
3, 29216, Note_off_c, 1, 69, 64
3, 29216, Note_off_c, 1, 61, 64
3, 29248, Note_on_c, 1, 69, 83
3, 29248, Note_on_c, 1, 57, 83
3, 29308, Note_off_c, 1, 69, 64
3, 29308, Note_off_c, 1, 57, 64
3, 29312, Note_on_c, 1, 69, 83
3, 29312, Note_on_c, 1, 59, 83
3, 29372, Note_off_c, 1, 69, 64
3, 29372, Note_off_c, 1, 59, 64
3, 29376, Note_on_c, 1, 69, 83
3, 29376, Note_on_c, 1, 61, 83
3, 29408, Note_off_c, 1, 69, 64
3, 29408, Note_off_c, 1, 61, 64
3, 29440, Note_on_c, 1, 69, 83
3, 29440, Note_on_c, 1, 61, 83
3, 29500, Note_off_c, 1, 69, 64
3, 29500, Note_off_c, 1, 61, 64
3, 29504, Note_on_c, 1, 69, 83
3, 29504, Note_on_c, 1, 62, 83
3, 29564, Note_off_c, 1, 69, 64
3, 29564, Note_off_c, 1, 62, 64
3, 29568, Note_on_c, 1, 69, 83
3, 29568, Note_on_c, 1, 64, 83
3, 29600, Note_off_c, 1, 69, 64
3, 29600, Note_off_c, 1, 64, 64
3, 29632, Note_on_c, 1, 69, 83
3, 29632, Note_on_c, 1, 64, 83
3, 29692, Note_off_c, 1, 69, 64
3, 29692, Note_off_c, 1, 64, 64
3, 29696, Note_on_c, 1, 69, 83
3, 29696, Note_on_c, 1, 66, 83
3, 29696, Note_on_c, 1, 62, 83
3, 29756, Note_off_c, 1, 69, 64
3, 29756, Note_off_c, 1, 66, 64
3, 29756, Note_off_c, 1, 62, 64
3, 29760, Note_on_c, 1, 69, 83
3, 29760, Note_on_c, 1, 67, 83
3, 29760, Note_on_c, 1, 61, 83
3, 29792, Note_off_c, 1, 69, 64
3, 29792, Note_off_c, 1, 67, 64
3, 29792, Note_off_c, 1, 61, 64
3, 29824, Note_on_c, 1, 69, 83
3, 29824, Note_on_c, 1, 67, 83
3, 29824, Note_on_c, 1, 61, 83
3, 29856, Note_off_c, 1, 69, 64
3, 29856, Note_off_c, 1, 67, 64
3, 29856, Note_off_c, 1, 61, 64
3, 29888, Note_on_c, 1, 69, 83
3, 29888, Note_on_c, 1, 67, 83
3, 29888, Note_on_c, 1, 61, 83
3, 29920, Note_off_c, 1, 69, 64
3, 29920, Note_off_c, 1, 67, 64
3, 29920, Note_off_c, 1, 61, 64
3, 29952, Note_on_c, 1, 69, 63
3, 29952, Note_on_c, 1, 66, 63
3, 29952, Note_on_c, 1, 62, 63
3, 30012, Note_off_c, 1, 69, 64
3, 30012, Note_off_c, 1, 66, 64
3, 30012, Note_off_c, 1, 62, 64
3, 30016, Note_on_c, 1, 80, 63
3, 30016, Note_on_c, 1, 76, 63
3, 30076, Note_off_c, 1, 80, 64
3, 30076, Note_off_c, 1, 76, 64
3, 30080, Note_on_c, 1, 81, 63
3, 30080, Note_on_c, 1, 78, 63
3, 30140, Note_off_c, 1, 81, 64
3, 30140, Note_off_c, 1, 78, 64
3, 30208, Note_on_c, 1, 76, 63
3, 30208, Note_on_c, 1, 73, 63
3, 30268, Note_off_c, 1, 76, 64
3, 30268, Note_off_c, 1, 73, 64
3, 30272, Note_on_c, 1, 78, 63
3, 30272, Note_on_c, 1, 74, 63
3, 30332, Note_off_c, 1, 78, 64
3, 30332, Note_off_c, 1, 74, 64
3, 30400, Note_on_c, 1, 75, 63
3, 30400, Note_on_c, 1, 73, 63
3, 30460, Note_off_c, 1, 75, 64
3, 30460, Note_off_c, 1, 73, 64
3, 30464, Note_on_c, 1, 76, 63
3, 30464, Note_on_c, 1, 73, 63
3, 30524, Note_off_c, 1, 76, 64
3, 30524, Note_off_c, 1, 73, 64
3, 30592, Note_on_c, 1, 74, 63
3, 30592, Note_on_c, 1, 71, 63
3, 30652, Note_off_c, 1, 74, 64
3, 30652, Note_off_c, 1, 71, 64
3, 30656, Note_on_c, 1, 71, 63
3, 30656, Note_on_c, 1, 68, 63
3, 30716, Note_off_c, 1, 71, 64
3, 30716, Note_off_c, 1, 68, 64
3, 30720, Note_on_c, 1, 69, 83
3, 30720, Note_on_c, 1, 61, 83
3, 30752, Note_off_c, 1, 69, 64
3, 30752, Note_off_c, 1, 61, 64
3, 30784, Note_on_c, 1, 69, 83
3, 30784, Note_on_c, 1, 57, 83
3, 30844, Note_off_c, 1, 69, 64
3, 30844, Note_off_c, 1, 57, 64
3, 30848, Note_on_c, 1, 69, 83
3, 30848, Note_on_c, 1, 59, 83
3, 30908, Note_off_c, 1, 69, 64
3, 30908, Note_off_c, 1, 59, 64
3, 30912, Note_on_c, 1, 69, 83
3, 30912, Note_on_c, 1, 61, 83
3, 30944, Note_off_c, 1, 69, 64
3, 30944, Note_off_c, 1, 61, 64
3, 30976, Note_on_c, 1, 69, 83
3, 30976, Note_on_c, 1, 61, 83
3, 31036, Note_off_c, 1, 69, 64
3, 31036, Note_off_c, 1, 61, 64
3, 31040, Note_on_c, 1, 69, 83
3, 31040, Note_on_c, 1, 62, 83
3, 31100, Note_off_c, 1, 69, 64
3, 31100, Note_off_c, 1, 62, 64
3, 31104, Note_on_c, 1, 69, 83
3, 31104, Note_on_c, 1, 64, 83
3, 31136, Note_off_c, 1, 69, 64
3, 31136, Note_off_c, 1, 64, 64
3, 31168, Note_on_c, 1, 69, 83
3, 31168, Note_on_c, 1, 64, 83
3, 31228, Note_off_c, 1, 69, 64
3, 31228, Note_off_c, 1, 64, 64
3, 31232, Note_on_c, 1, 69, 83
3, 31232, Note_on_c, 1, 69, 83
3, 31232, Note_on_c, 1, 66, 83
3, 31232, Note_on_c, 1, 62, 83
3, 31292, Note_off_c, 1, 69, 64
3, 31292, Note_off_c, 1, 69, 64
3, 31292, Note_off_c, 1, 66, 64
3, 31292, Note_off_c, 1, 62, 64
3, 31296, Note_on_c, 1, 69, 83
3, 31296, Note_on_c, 1, 67, 83
3, 31296, Note_on_c, 1, 61, 83
3, 31328, Note_off_c, 1, 69, 64
3, 31328, Note_off_c, 1, 67, 64
3, 31328, Note_off_c, 1, 61, 64
3, 31360, Note_on_c, 1, 69, 83
3, 31360, Note_on_c, 1, 67, 83
3, 31360, Note_on_c, 1, 61, 83
3, 31392, Note_off_c, 1, 69, 64
3, 31392, Note_off_c, 1, 67, 64
3, 31392, Note_off_c, 1, 61, 64
3, 31424, Note_on_c, 1, 69, 83
3, 31424, Note_on_c, 1, 67, 83
3, 31424, Note_on_c, 1, 61, 83
3, 31456, Note_off_c, 1, 69, 64
3, 31456, Note_off_c, 1, 67, 64
3, 31456, Note_off_c, 1, 61, 64
3, 31488, Note_on_c, 1, 69, 63
3, 31488, Note_on_c, 1, 66, 63
3, 31488, Note_on_c, 1, 62, 63
3, 31548, Note_off_c, 1, 69, 64
3, 31548, Note_off_c, 1, 66, 64
3, 31548, Note_off_c, 1, 62, 64
3, 31552, Note_on_c, 1, 80, 63
3, 31552, Note_on_c, 1, 76, 63
3, 31612, Note_off_c, 1, 80, 64
3, 31612, Note_off_c, 1, 76, 64
3, 31616, Note_on_c, 1, 81, 63
3, 31616, Note_on_c, 1, 78, 63
3, 31676, Note_off_c, 1, 81, 64
3, 31676, Note_off_c, 1, 78, 64
3, 31744, Note_on_c, 1, 76, 63
3, 31744, Note_on_c, 1, 73, 63
3, 31804, Note_off_c, 1, 76, 64
3, 31804, Note_off_c, 1, 73, 64
3, 31808, Note_on_c, 1, 78, 63
3, 31808, Note_on_c, 1, 74, 63
3, 31868, Note_off_c, 1, 78, 64
3, 31868, Note_off_c, 1, 74, 64
3, 31936, Note_on_c, 1, 75, 63
3, 31936, Note_on_c, 1, 73, 63
3, 31996, Note_off_c, 1, 75, 64
3, 31996, Note_off_c, 1, 73, 64
3, 32000, Note_on_c, 1, 76, 63
3, 32000, Note_on_c, 1, 73, 63
3, 32060, Note_off_c, 1, 76, 64
3, 32060, Note_off_c, 1, 73, 64
3, 32128, Note_on_c, 1, 74, 63
3, 32128, Note_on_c, 1, 71, 63
3, 32188, Note_off_c, 1, 74, 64
3, 32188, Note_off_c, 1, 71, 64
3, 32192, Note_on_c, 1, 71, 63
3, 32192, Note_on_c, 1, 68, 63
3, 32252, Note_off_c, 1, 71, 64
3, 32252, Note_off_c, 1, 68, 64
3, 32256, Note_on_c, 1, 69, 63
3, 32444, Note_off_c, 1, 69, 64
3, 33024, Note_on_c, 1, 64, 63
3, 33024, Note_on_c, 1, 73, 63
3, 33084, Note_off_c, 1, 64, 64
3, 33084, Note_off_c, 1, 73, 64
3, 33088, Note_on_c, 1, 76, 63
3, 33088, Note_on_c, 1, 73, 63
3, 33148, Note_off_c, 1, 76, 64
3, 33148, Note_off_c, 1, 73, 64
3, 33152, Note_on_c, 1, 76, 63
3, 33152, Note_on_c, 1, 73, 63
3, 33184, Note_off_c, 1, 76, 64
3, 33184, Note_off_c, 1, 73, 64
3, 33216, Note_on_c, 1, 73, 63
3, 33216, Note_on_c, 1, 64, 63
3, 33276, Note_off_c, 1, 73, 64
3, 33276, Note_off_c, 1, 64, 64
3, 33280, Note_on_c, 1, 76, 63
3, 33280, Note_on_c, 1, 73, 63
3, 33340, Note_off_c, 1, 76, 64
3, 33340, Note_off_c, 1, 73, 64
3, 33344, Note_on_c, 1, 76, 63
3, 33344, Note_on_c, 1, 73, 63
3, 33376, Note_off_c, 1, 76, 64
3, 33376, Note_off_c, 1, 73, 64
3, 33408, Note_on_c, 1, 73, 63
3, 33408, Note_on_c, 1, 64, 63
3, 33468, Note_off_c, 1, 73, 64
3, 33468, Note_off_c, 1, 64, 64
3, 33472, Note_on_c, 1, 76, 63
3, 33472, Note_on_c, 1, 73, 63
3, 33532, Note_off_c, 1, 76, 64
3, 33532, Note_off_c, 1, 73, 64
3, 33536, Note_on_c, 1, 76, 63
3, 33536, Note_on_c, 1, 73, 63
3, 33568, Note_off_c, 1, 76, 64
3, 33568, Note_off_c, 1, 73, 64
3, 33600, Note_on_c, 1, 71, 63
3, 33600, Note_on_c, 1, 62, 63
3, 33660, Note_off_c, 1, 71, 64
3, 33660, Note_off_c, 1, 62, 64
3, 33664, Note_on_c, 1, 74, 63
3, 33664, Note_on_c, 1, 71, 63
3, 33724, Note_off_c, 1, 74, 64
3, 33724, Note_off_c, 1, 71, 64
3, 33728, Note_on_c, 1, 74, 63
3, 33728, Note_on_c, 1, 71, 63
3, 33760, Note_off_c, 1, 74, 64
3, 33760, Note_off_c, 1, 71, 64
3, 33792, Note_on_c, 1, 70, 63
3, 33792, Note_on_c, 1, 61, 63
3, 33852, Note_off_c, 1, 70, 64
3, 33852, Note_off_c, 1, 61, 64
3, 33856, Note_on_c, 1, 73, 63
3, 33856, Note_on_c, 1, 70, 63
3, 33916, Note_off_c, 1, 73, 64
3, 33916, Note_off_c, 1, 70, 64
3, 33920, Note_on_c, 1, 73, 63
3, 33920, Note_on_c, 1, 70, 63
3, 33952, Note_off_c, 1, 73, 64
3, 33952, Note_off_c, 1, 70, 64
3, 33984, Note_on_c, 1, 70, 63
3, 33984, Note_on_c, 1, 61, 63
3, 34044, Note_off_c, 1, 70, 64
3, 34044, Note_off_c, 1, 61, 64
3, 34048, Note_on_c, 1, 73, 63
3, 34048, Note_on_c, 1, 70, 63
3, 34108, Note_off_c, 1, 73, 64
3, 34108, Note_off_c, 1, 70, 64
3, 34112, Note_on_c, 1, 73, 63
3, 34112, Note_on_c, 1, 70, 63
3, 34144, Note_off_c, 1, 73, 64
3, 34144, Note_off_c, 1, 70, 64
3, 34176, Note_on_c, 1, 70, 63
3, 34176, Note_on_c, 1, 61, 63
3, 34236, Note_off_c, 1, 70, 64
3, 34236, Note_off_c, 1, 61, 64
3, 34240, Note_on_c, 1, 73, 63
3, 34240, Note_on_c, 1, 70, 63
3, 34300, Note_off_c, 1, 73, 64
3, 34300, Note_off_c, 1, 70, 64
3, 34304, Note_on_c, 1, 73, 63
3, 34304, Note_on_c, 1, 70, 63
3, 34336, Note_off_c, 1, 73, 64
3, 34336, Note_off_c, 1, 70, 64
3, 34368, Note_on_c, 1, 70, 63
3, 34368, Note_on_c, 1, 61, 63
3, 34428, Note_off_c, 1, 70, 64
3, 34428, Note_off_c, 1, 61, 64
3, 34432, Note_on_c, 1, 73, 63
3, 34432, Note_on_c, 1, 70, 63
3, 34492, Note_off_c, 1, 73, 64
3, 34492, Note_off_c, 1, 70, 64
3, 34496, Note_on_c, 1, 73, 63
3, 34496, Note_on_c, 1, 70, 63
3, 34528, Note_off_c, 1, 73, 64
3, 34528, Note_off_c, 1, 70, 64
3, 34560, Note_on_c, 1, 71, 63
3, 34592, Note_off_c, 1, 71, 64
3, 34624, Note_on_c, 1, 77, 63
3, 34624, Note_on_c, 1, 73, 63
3, 34684, Note_off_c, 1, 77, 64
3, 34684, Note_off_c, 1, 73, 64
3, 34688, Note_on_c, 1, 78, 63
3, 34688, Note_on_c, 1, 74, 63
3, 34748, Note_off_c, 1, 78, 64
3, 34748, Note_off_c, 1, 74, 64
3, 34816, Note_on_c, 1, 77, 63
3, 34816, Note_on_c, 1, 73, 63
3, 34876, Note_off_c, 1, 77, 64
3, 34876, Note_off_c, 1, 73, 64
3, 34880, Note_on_c, 1, 78, 63
3, 34880, Note_on_c, 1, 74, 63
3, 34940, Note_off_c, 1, 78, 64
3, 34940, Note_off_c, 1, 74, 64
3, 35008, Note_on_c, 1, 77, 63
3, 35008, Note_on_c, 1, 73, 63
3, 35068, Note_off_c, 1, 77, 64
3, 35068, Note_off_c, 1, 73, 64
3, 35072, Note_on_c, 1, 78, 63
3, 35072, Note_on_c, 1, 74, 63
3, 35132, Note_off_c, 1, 78, 64
3, 35132, Note_off_c, 1, 74, 64
3, 35200, Note_on_c, 1, 77, 63
3, 35200, Note_on_c, 1, 73, 63
3, 35260, Note_off_c, 1, 77, 64
3, 35260, Note_off_c, 1, 73, 64
3, 35264, Note_on_c, 1, 78, 63
3, 35264, Note_on_c, 1, 74, 63
3, 35324, Note_off_c, 1, 78, 64
3, 35324, Note_off_c, 1, 74, 64
3, 35392, Note_on_c, 1, 77, 63
3, 35392, Note_on_c, 1, 73, 63
3, 35452, Note_off_c, 1, 77, 64
3, 35452, Note_off_c, 1, 73, 64
3, 35456, Note_on_c, 1, 78, 63
3, 35456, Note_on_c, 1, 74, 63
3, 35516, Note_off_c, 1, 78, 64
3, 35516, Note_off_c, 1, 74, 64
3, 35584, Note_on_c, 1, 77, 63
3, 35584, Note_on_c, 1, 73, 63
3, 35644, Note_off_c, 1, 77, 64
3, 35644, Note_off_c, 1, 73, 64
3, 35648, Note_on_c, 1, 78, 63
3, 35648, Note_on_c, 1, 74, 63
3, 35708, Note_off_c, 1, 78, 64
3, 35708, Note_off_c, 1, 74, 64
3, 35776, Note_on_c, 1, 77, 63
3, 35776, Note_on_c, 1, 73, 63
3, 35836, Note_off_c, 1, 77, 64
3, 35836, Note_off_c, 1, 73, 64
3, 35840, Note_on_c, 1, 78, 63
3, 35840, Note_on_c, 1, 74, 63
3, 35900, Note_off_c, 1, 78, 64
3, 35900, Note_off_c, 1, 74, 64
3, 35968, Note_on_c, 1, 77, 63
3, 35968, Note_on_c, 1, 73, 63
3, 36028, Note_off_c, 1, 77, 64
3, 36028, Note_off_c, 1, 73, 64
3, 36032, Note_on_c, 1, 78, 63
3, 36032, Note_on_c, 1, 74, 63
3, 36092, Note_off_c, 1, 78, 64
3, 36092, Note_off_c, 1, 74, 64
3, 36160, Note_on_c, 1, 77, 63
3, 36160, Note_on_c, 1, 73, 63
3, 36220, Note_off_c, 1, 77, 64
3, 36220, Note_off_c, 1, 73, 64
3, 36224, Note_on_c, 1, 78, 63
3, 36224, Note_on_c, 1, 74, 63
3, 36284, Note_off_c, 1, 78, 64
3, 36284, Note_off_c, 1, 74, 64
3, 36352, Note_on_c, 1, 77, 63
3, 36352, Note_on_c, 1, 73, 63
3, 36412, Note_off_c, 1, 77, 64
3, 36412, Note_off_c, 1, 73, 64
3, 36416, Note_on_c, 1, 78, 63
3, 36416, Note_on_c, 1, 74, 63
3, 36476, Note_off_c, 1, 78, 64
3, 36476, Note_off_c, 1, 74, 64
3, 36544, Note_on_c, 1, 80, 63
3, 36544, Note_on_c, 1, 77, 63
3, 36604, Note_off_c, 1, 80, 64
3, 36604, Note_off_c, 1, 77, 64
3, 36608, Note_on_c, 1, 81, 63
3, 36608, Note_on_c, 1, 78, 63
3, 36668, Note_off_c, 1, 81, 64
3, 36668, Note_off_c, 1, 78, 64
3, 36736, Note_on_c, 1, 80, 63
3, 36736, Note_on_c, 1, 77, 63
3, 36796, Note_off_c, 1, 80, 64
3, 36796, Note_off_c, 1, 77, 64
3, 36800, Note_on_c, 1, 81, 63
3, 36800, Note_on_c, 1, 78, 63
3, 36860, Note_off_c, 1, 81, 64
3, 36860, Note_off_c, 1, 78, 64
3, 36928, Note_on_c, 1, 77, 63
3, 36928, Note_on_c, 1, 80, 63
3, 36988, Note_off_c, 1, 77, 64
3, 36988, Note_off_c, 1, 80, 64
3, 36992, Note_on_c, 1, 78, 63
3, 36992, Note_on_c, 1, 81, 63
3, 37052, Note_off_c, 1, 78, 64
3, 37052, Note_off_c, 1, 81, 64
3, 37120, Note_on_c, 1, 80, 63
3, 37120, Note_on_c, 1, 77, 63
3, 37180, Note_off_c, 1, 80, 64
3, 37180, Note_off_c, 1, 77, 64
3, 37184, Note_on_c, 1, 81, 63
3, 37184, Note_on_c, 1, 78, 63
3, 37244, Note_off_c, 1, 81, 64
3, 37244, Note_off_c, 1, 78, 64
3, 37312, Note_on_c, 1, 80, 63
3, 37312, Note_on_c, 1, 77, 63
3, 37372, Note_off_c, 1, 80, 64
3, 37372, Note_off_c, 1, 77, 64
3, 37376, Note_on_c, 1, 81, 63
3, 37376, Note_on_c, 1, 78, 63
3, 37436, Note_off_c, 1, 81, 64
3, 37436, Note_off_c, 1, 78, 64
3, 37504, Note_on_c, 1, 80, 63
3, 37504, Note_on_c, 1, 77, 63
3, 37564, Note_off_c, 1, 80, 64
3, 37564, Note_off_c, 1, 77, 64
3, 37568, Note_on_c, 1, 81, 63
3, 37568, Note_on_c, 1, 78, 63
3, 37628, Note_off_c, 1, 81, 64
3, 37628, Note_off_c, 1, 78, 64
3, 37696, Note_on_c, 1, 80, 63
3, 37696, Note_on_c, 1, 77, 63
3, 37756, Note_off_c, 1, 80, 64
3, 37756, Note_off_c, 1, 77, 64
3, 37760, Note_on_c, 1, 81, 63
3, 37760, Note_on_c, 1, 78, 63
3, 37820, Note_off_c, 1, 81, 64
3, 37820, Note_off_c, 1, 78, 64
3, 37888, Note_on_c, 1, 80, 63
3, 37888, Note_on_c, 1, 77, 63
3, 37948, Note_off_c, 1, 80, 64
3, 37948, Note_off_c, 1, 77, 64
3, 37952, Note_on_c, 1, 81, 63
3, 37952, Note_on_c, 1, 78, 63
3, 38012, Note_off_c, 1, 81, 64
3, 38012, Note_off_c, 1, 78, 64
3, 38080, Note_on_c, 1, 80, 63
3, 38080, Note_on_c, 1, 77, 63
3, 38140, Note_off_c, 1, 80, 64
3, 38140, Note_off_c, 1, 77, 64
3, 38144, Note_on_c, 1, 81, 63
3, 38144, Note_on_c, 1, 78, 63
3, 38204, Note_off_c, 1, 81, 64
3, 38204, Note_off_c, 1, 78, 64
3, 38272, Note_on_c, 1, 80, 63
3, 38272, Note_on_c, 1, 77, 63
3, 38332, Note_off_c, 1, 80, 64
3, 38332, Note_off_c, 1, 77, 64
3, 38336, Note_on_c, 1, 81, 63
3, 38336, Note_on_c, 1, 78, 63
3, 38396, Note_off_c, 1, 81, 64
3, 38396, Note_off_c, 1, 78, 64
3, 38464, Note_on_c, 1, 78, 63
3, 38464, Note_on_c, 1, 75, 63
3, 38524, Note_off_c, 1, 78, 64
3, 38524, Note_off_c, 1, 75, 64
3, 38528, Note_on_c, 1, 79, 63
3, 38528, Note_on_c, 1, 76, 63
3, 38588, Note_off_c, 1, 79, 64
3, 38588, Note_off_c, 1, 76, 64
3, 38656, Note_on_c, 1, 78, 63
3, 38656, Note_on_c, 1, 75, 63
3, 38716, Note_off_c, 1, 78, 64
3, 38716, Note_off_c, 1, 75, 64
3, 38720, Note_on_c, 1, 79, 63
3, 38720, Note_on_c, 1, 76, 63
3, 38780, Note_off_c, 1, 79, 64
3, 38780, Note_off_c, 1, 76, 64
3, 38848, Note_on_c, 1, 78, 63
3, 38848, Note_on_c, 1, 75, 63
3, 38908, Note_off_c, 1, 78, 64
3, 38908, Note_off_c, 1, 75, 64
3, 38912, Note_on_c, 1, 79, 63
3, 38912, Note_on_c, 1, 76, 63
3, 38972, Note_off_c, 1, 79, 64
3, 38972, Note_off_c, 1, 76, 64
3, 39040, Note_on_c, 1, 78, 63
3, 39040, Note_on_c, 1, 75, 63
3, 39100, Note_off_c, 1, 78, 64
3, 39100, Note_off_c, 1, 75, 64
3, 39104, Note_on_c, 1, 79, 63
3, 39104, Note_on_c, 1, 76, 63
3, 39164, Note_off_c, 1, 79, 64
3, 39164, Note_off_c, 1, 76, 64
3, 39232, Note_on_c, 1, 78, 63
3, 39232, Note_on_c, 1, 75, 63
3, 39292, Note_off_c, 1, 78, 64
3, 39292, Note_off_c, 1, 75, 64
3, 39296, Note_on_c, 1, 79, 63
3, 39296, Note_on_c, 1, 75, 63
3, 39356, Note_off_c, 1, 79, 64
3, 39356, Note_off_c, 1, 75, 64
3, 39424, Note_on_c, 1, 78, 63
3, 39424, Note_on_c, 1, 75, 63
3, 39484, Note_off_c, 1, 78, 64
3, 39484, Note_off_c, 1, 75, 64
3, 39488, Note_on_c, 1, 79, 63
3, 39488, Note_on_c, 1, 76, 63
3, 39548, Note_off_c, 1, 79, 64
3, 39548, Note_off_c, 1, 76, 64
3, 39616, Note_on_c, 1, 78, 63
3, 39616, Note_on_c, 1, 75, 63
3, 39676, Note_off_c, 1, 78, 64
3, 39676, Note_off_c, 1, 75, 64
3, 39680, Note_on_c, 1, 79, 63
3, 39680, Note_on_c, 1, 76, 63
3, 39740, Note_off_c, 1, 79, 64
3, 39740, Note_off_c, 1, 76, 64
3, 39808, Note_on_c, 1, 78, 63
3, 39808, Note_on_c, 1, 75, 63
3, 39868, Note_off_c, 1, 78, 64
3, 39868, Note_off_c, 1, 75, 64
3, 39872, Note_on_c, 1, 79, 63
3, 39872, Note_on_c, 1, 76, 63
3, 39932, Note_off_c, 1, 79, 64
3, 39932, Note_off_c, 1, 76, 64
3, 40000, Note_on_c, 1, 76, 63
3, 40000, Note_on_c, 1, 73, 63
3, 40060, Note_off_c, 1, 76, 64
3, 40060, Note_off_c, 1, 73, 64
3, 40064, Note_on_c, 1, 77, 63
3, 40064, Note_on_c, 1, 74, 63
3, 40124, Note_off_c, 1, 77, 64
3, 40124, Note_off_c, 1, 74, 64
3, 40192, Note_on_c, 1, 76, 63
3, 40192, Note_on_c, 1, 73, 63
3, 40252, Note_off_c, 1, 76, 64
3, 40252, Note_off_c, 1, 73, 64
3, 40256, Note_on_c, 1, 77, 63
3, 40256, Note_on_c, 1, 74, 63
3, 40316, Note_off_c, 1, 77, 64
3, 40316, Note_off_c, 1, 74, 64
3, 40384, Note_on_c, 1, 76, 63
3, 40384, Note_on_c, 1, 73, 63
3, 40444, Note_off_c, 1, 76, 64
3, 40444, Note_off_c, 1, 73, 64
3, 40448, Note_on_c, 1, 77, 63
3, 40448, Note_on_c, 1, 74, 63
3, 40508, Note_off_c, 1, 77, 64
3, 40508, Note_off_c, 1, 74, 64
3, 40576, Note_on_c, 1, 76, 63
3, 40576, Note_on_c, 1, 73, 63
3, 40636, Note_off_c, 1, 76, 64
3, 40636, Note_off_c, 1, 73, 64
3, 40640, Note_on_c, 1, 77, 63
3, 40640, Note_on_c, 1, 74, 63
3, 40700, Note_off_c, 1, 77, 64
3, 40700, Note_off_c, 1, 74, 64
3, 40704, Note_on_c, 1, 76, 63
3, 40752, Note_on_c, 1, 73, 63
3, 40892, Note_off_c, 1, 76, 64
3, 40896, Note_on_c, 1, 64, 63
3, 40896, Note_on_c, 1, 61, 63
3, 40896, Note_on_c, 1, 57, 63
3, 40940, Note_off_c, 1, 73, 64
3, 41084, Note_off_c, 1, 64, 64
3, 41084, Note_off_c, 1, 61, 64
3, 41084, Note_off_c, 1, 57, 64
3, 41088, Note_on_c, 1, 64, 63
3, 41088, Note_on_c, 1, 61, 63
3, 41088, Note_on_c, 1, 57, 63
3, 41276, Note_off_c, 1, 64, 64
3, 41276, Note_off_c, 1, 61, 64
3, 41276, Note_off_c, 1, 57, 64
3, 41280, Note_on_c, 1, 64, 63
3, 41280, Note_on_c, 1, 61, 63
3, 41280, Note_on_c, 1, 57, 63
3, 41468, Note_off_c, 1, 64, 64
3, 41468, Note_off_c, 1, 61, 64
3, 41468, Note_off_c, 1, 57, 64
3, 41472, Note_on_c, 1, 64, 63
3, 41472, Note_on_c, 1, 61, 63
3, 41472, Note_on_c, 1, 57, 63
3, 41660, Note_off_c, 1, 64, 64
3, 41660, Note_off_c, 1, 61, 64
3, 41660, Note_off_c, 1, 57, 64
3, 41664, Note_on_c, 1, 69, 63
3, 41664, Note_on_c, 1, 64, 63
3, 41664, Note_on_c, 1, 61, 63
3, 41852, Note_off_c, 1, 69, 64
3, 41852, Note_off_c, 1, 64, 64
3, 41852, Note_off_c, 1, 61, 64
3, 41856, Note_on_c, 1, 66, 64
3, 41856, Note_on_c, 1, 63, 64
3, 41856, Note_on_c, 1, 71, 64
3, 42044, Note_off_c, 1, 66, 64
3, 42044, Note_off_c, 1, 63, 64
3, 42048, Note_on_c, 1, 64, 66
3, 42048, Note_on_c, 1, 67, 66
3, 42236, Note_off_c, 1, 71, 64
3, 42236, Note_off_c, 1, 64, 64
3, 42240, Note_on_c, 1, 61, 70
3, 42240, Note_on_c, 1, 69, 70
3, 42428, Note_off_c, 1, 67, 64
3, 42428, Note_off_c, 1, 61, 64
3, 42432, Note_on_c, 1, 62, 72
3, 42432, Note_on_c, 1, 66, 72
3, 42620, Note_off_c, 1, 69, 64
3, 42620, Note_off_c, 1, 62, 64
3, 42624, Note_on_c, 1, 59, 74
3, 42624, Note_on_c, 1, 69, 74
3, 42812, Note_off_c, 1, 66, 64
3, 42812, Note_off_c, 1, 59, 64
3, 42816, Note_on_c, 1, 61, 76
3, 42816, Note_on_c, 1, 64, 76
3, 43004, Note_off_c, 1, 69, 64
3, 43004, Note_off_c, 1, 61, 64
3, 43004, Note_off_c, 1, 64, 64
3, 43008, Note_on_c, 1, 66, 80
3, 43008, Note_on_c, 1, 62, 80
3, 43196, Note_off_c, 1, 66, 64
3, 43196, Note_off_c, 1, 62, 64
3, 43776, Note_on_c, 1, 66, 63
3, 43776, Note_on_c, 1, 62, 63
3, 43836, Note_off_c, 1, 66, 64
3, 43836, Note_off_c, 1, 62, 64
3, 43840, Note_on_c, 1, 69, 63
3, 43840, Note_on_c, 1, 66, 63
3, 43900, Note_off_c, 1, 69, 64
3, 43900, Note_off_c, 1, 66, 64
3, 43904, Note_on_c, 1, 69, 63
3, 43904, Note_on_c, 1, 66, 63
3, 43936, Note_off_c, 1, 69, 64
3, 43936, Note_off_c, 1, 66, 64
3, 43968, Note_on_c, 1, 66, 63
3, 43968, Note_on_c, 1, 62, 63
3, 44028, Note_off_c, 1, 66, 64
3, 44028, Note_off_c, 1, 62, 64
3, 44032, Note_on_c, 1, 69, 63
3, 44032, Note_on_c, 1, 66, 63
3, 44092, Note_off_c, 1, 69, 64
3, 44092, Note_off_c, 1, 66, 64
3, 44096, Note_on_c, 1, 69, 63
3, 44096, Note_on_c, 1, 66, 63
3, 44128, Note_off_c, 1, 69, 64
3, 44128, Note_off_c, 1, 66, 64
3, 44160, Note_on_c, 1, 69, 63
3, 44160, Note_on_c, 1, 62, 63
3, 44220, Note_off_c, 1, 69, 64
3, 44220, Note_off_c, 1, 62, 64
3, 44224, Note_on_c, 1, 71, 63
3, 44224, Note_on_c, 1, 67, 63
3, 44284, Note_off_c, 1, 71, 64
3, 44284, Note_off_c, 1, 67, 64
3, 44288, Note_on_c, 1, 71, 63
3, 44288, Note_on_c, 1, 67, 63
3, 44320, Note_off_c, 1, 71, 64
3, 44320, Note_off_c, 1, 67, 64
3, 44352, Note_on_c, 1, 62, 63
3, 44352, Note_on_c, 1, 59, 63
3, 44412, Note_off_c, 1, 62, 64
3, 44412, Note_off_c, 1, 59, 64
3, 44416, Note_on_c, 1, 67, 63
3, 44416, Note_on_c, 1, 62, 63
3, 44476, Note_off_c, 1, 67, 64
3, 44476, Note_off_c, 1, 62, 64
3, 44480, Note_on_c, 1, 67, 63
3, 44480, Note_on_c, 1, 62, 63
3, 44512, Note_off_c, 1, 67, 64
3, 44512, Note_off_c, 1, 62, 64
3, 44544, Note_on_c, 1, 62, 63
3, 44544, Note_on_c, 1, 57, 63
3, 44604, Note_off_c, 1, 62, 64
3, 44604, Note_off_c, 1, 57, 64
3, 44608, Note_on_c, 1, 66, 63
3, 44608, Note_on_c, 1, 62, 63
3, 44668, Note_off_c, 1, 66, 64
3, 44668, Note_off_c, 1, 62, 64
3, 44672, Note_on_c, 1, 66, 63
3, 44672, Note_on_c, 1, 62, 63
3, 44704, Note_off_c, 1, 66, 64
3, 44704, Note_off_c, 1, 62, 64
3, 44736, Note_on_c, 1, 62, 63
3, 44736, Note_on_c, 1, 57, 63
3, 44796, Note_off_c, 1, 62, 64
3, 44796, Note_off_c, 1, 57, 64
3, 44800, Note_on_c, 1, 66, 63
3, 44800, Note_on_c, 1, 62, 63
3, 44860, Note_off_c, 1, 66, 64
3, 44860, Note_off_c, 1, 62, 64
3, 44864, Note_on_c, 1, 66, 63
3, 44864, Note_on_c, 1, 62, 63
3, 44896, Note_off_c, 1, 66, 64
3, 44896, Note_off_c, 1, 62, 64
3, 44928, Note_on_c, 1, 61, 63
3, 44928, Note_on_c, 1, 57, 63
3, 44988, Note_off_c, 1, 61, 64
3, 44988, Note_off_c, 1, 57, 64
3, 44992, Note_on_c, 1, 64, 63
3, 44992, Note_on_c, 1, 61, 63
3, 45052, Note_off_c, 1, 64, 64
3, 45052, Note_off_c, 1, 61, 64
3, 45056, Note_on_c, 1, 64, 63
3, 45056, Note_on_c, 1, 61, 63
3, 45088, Note_off_c, 1, 64, 64
3, 45088, Note_off_c, 1, 61, 64
3, 45120, Note_on_c, 1, 61, 63
3, 45120, Note_on_c, 1, 57, 63
3, 45180, Note_off_c, 1, 61, 64
3, 45180, Note_off_c, 1, 57, 64
3, 45184, Note_on_c, 1, 64, 63
3, 45184, Note_on_c, 1, 61, 63
3, 45244, Note_off_c, 1, 64, 64
3, 45244, Note_off_c, 1, 61, 64
3, 45248, Note_on_c, 1, 64, 63
3, 45248, Note_on_c, 1, 61, 63
3, 45280, Note_off_c, 1, 64, 64
3, 45280, Note_off_c, 1, 61, 64
3, 45312, Note_on_c, 1, 61, 63
3, 45312, Note_on_c, 1, 57, 63
3, 45372, Note_off_c, 1, 61, 64
3, 45372, Note_off_c, 1, 57, 64
3, 45376, Note_on_c, 1, 64, 63
3, 45376, Note_on_c, 1, 61, 63
3, 45436, Note_off_c, 1, 64, 64
3, 45436, Note_off_c, 1, 61, 64
3, 45440, Note_on_c, 1, 64, 63
3, 45440, Note_on_c, 1, 61, 63
3, 45472, Note_off_c, 1, 64, 64
3, 45472, Note_off_c, 1, 61, 64
3, 45504, Note_on_c, 1, 64, 63
3, 45504, Note_on_c, 1, 61, 63
3, 45564, Note_off_c, 1, 64, 64
3, 45564, Note_off_c, 1, 61, 64
3, 45568, Note_on_c, 1, 73, 63
3, 45568, Note_on_c, 1, 64, 63
3, 45628, Note_off_c, 1, 73, 64
3, 45628, Note_off_c, 1, 64, 64
3, 45632, Note_on_c, 1, 73, 63
3, 45632, Note_on_c, 1, 64, 63
3, 45664, Note_off_c, 1, 73, 64
3, 45664, Note_off_c, 1, 64, 64
3, 45696, Note_on_c, 1, 74, 63
3, 45696, Note_on_c, 1, 62, 63
3, 45756, Note_off_c, 1, 74, 64
3, 45756, Note_off_c, 1, 62, 64
3, 45760, Note_on_c, 1, 69, 63
3, 45760, Note_on_c, 1, 66, 63
3, 45820, Note_off_c, 1, 69, 64
3, 45820, Note_off_c, 1, 66, 64
3, 45824, Note_on_c, 1, 69, 63
3, 45824, Note_on_c, 1, 66, 63
3, 45856, Note_off_c, 1, 69, 64
3, 45856, Note_off_c, 1, 66, 64
3, 45888, Note_on_c, 1, 69, 63
3, 45888, Note_on_c, 1, 66, 63
3, 45948, Note_off_c, 1, 69, 64
3, 45948, Note_off_c, 1, 66, 64
3, 45952, Note_on_c, 1, 66, 63
3, 45952, Note_on_c, 1, 62, 63
3, 46012, Note_off_c, 1, 66, 64
3, 46012, Note_off_c, 1, 62, 64
3, 46016, Note_on_c, 1, 66, 63
3, 46016, Note_on_c, 1, 62, 63
3, 46048, Note_off_c, 1, 66, 64
3, 46048, Note_off_c, 1, 62, 64
3, 46080, Note_on_c, 1, 67, 63
3, 46080, Note_on_c, 1, 62, 63
3, 46140, Note_off_c, 1, 67, 64
3, 46140, Note_off_c, 1, 62, 64
3, 46144, Note_on_c, 1, 62, 63
3, 46144, Note_on_c, 1, 59, 63
3, 46204, Note_off_c, 1, 62, 64
3, 46204, Note_off_c, 1, 59, 64
3, 46208, Note_on_c, 1, 62, 63
3, 46208, Note_on_c, 1, 59, 63
3, 46240, Note_off_c, 1, 62, 64
3, 46240, Note_off_c, 1, 59, 64
3, 46272, Note_on_c, 1, 62, 63
3, 46272, Note_on_c, 1, 59, 63
3, 46332, Note_off_c, 1, 62, 64
3, 46332, Note_off_c, 1, 59, 64
3, 46336, Note_on_c, 1, 67, 63
3, 46336, Note_on_c, 1, 62, 63
3, 46396, Note_off_c, 1, 67, 64
3, 46396, Note_off_c, 1, 62, 64
3, 46400, Note_on_c, 1, 67, 63
3, 46400, Note_on_c, 1, 62, 63
3, 46432, Note_off_c, 1, 67, 64
3, 46432, Note_off_c, 1, 62, 64
3, 46464, Note_on_c, 1, 67, 63
3, 46464, Note_on_c, 1, 62, 63
3, 46524, Note_off_c, 1, 67, 64
3, 46524, Note_off_c, 1, 62, 64
3, 46528, Note_on_c, 1, 71, 63
3, 46528, Note_on_c, 1, 67, 63
3, 46588, Note_off_c, 1, 71, 64
3, 46588, Note_off_c, 1, 67, 64
3, 46592, Note_on_c, 1, 71, 63
3, 46592, Note_on_c, 1, 67, 63
3, 46624, Note_off_c, 1, 71, 64
3, 46624, Note_off_c, 1, 67, 64
3, 46656, Note_on_c, 1, 71, 63
3, 46656, Note_on_c, 1, 67, 63
3, 46716, Note_off_c, 1, 71, 64
3, 46716, Note_off_c, 1, 67, 64
3, 46720, Note_on_c, 1, 67, 63
3, 46720, Note_on_c, 1, 64, 63
3, 46780, Note_off_c, 1, 67, 64
3, 46780, Note_off_c, 1, 64, 64
3, 46784, Note_on_c, 1, 67, 63
3, 46784, Note_on_c, 1, 64, 63
3, 46816, Note_off_c, 1, 67, 64
3, 46816, Note_off_c, 1, 64, 64
3, 46848, Note_on_c, 1, 66, 63
3, 46848, Note_on_c, 1, 62, 63
3, 46908, Note_off_c, 1, 66, 64
3, 46908, Note_off_c, 1, 62, 64
3, 46912, Note_on_c, 1, 69, 63
3, 46912, Note_on_c, 1, 66, 63
3, 46972, Note_off_c, 1, 69, 64
3, 46972, Note_off_c, 1, 66, 64
3, 46976, Note_on_c, 1, 69, 63
3, 46976, Note_on_c, 1, 66, 63
3, 47008, Note_off_c, 1, 69, 64
3, 47008, Note_off_c, 1, 66, 64
3, 47040, Note_on_c, 1, 69, 63
3, 47040, Note_on_c, 1, 66, 63
3, 47100, Note_off_c, 1, 69, 64
3, 47100, Note_off_c, 1, 66, 64
3, 47104, Note_on_c, 1, 66, 63
3, 47104, Note_on_c, 1, 62, 63
3, 47164, Note_off_c, 1, 66, 64
3, 47164, Note_off_c, 1, 62, 64
3, 47168, Note_on_c, 1, 66, 63
3, 47168, Note_on_c, 1, 62, 63
3, 47200, Note_off_c, 1, 66, 64
3, 47200, Note_off_c, 1, 62, 64
3, 47232, Note_on_c, 1, 64, 63
3, 47232, Note_on_c, 1, 57, 63
3, 47292, Note_off_c, 1, 64, 64
3, 47292, Note_off_c, 1, 57, 64
3, 47296, Note_on_c, 1, 69, 63
3, 47296, Note_on_c, 1, 64, 63
3, 47356, Note_off_c, 1, 69, 64
3, 47356, Note_off_c, 1, 64, 64
3, 47360, Note_on_c, 1, 69, 63
3, 47360, Note_on_c, 1, 64, 63
3, 47392, Note_off_c, 1, 69, 64
3, 47392, Note_off_c, 1, 64, 64
3, 47424, Note_on_c, 1, 71, 63
3, 47424, Note_on_c, 1, 67, 63
3, 47484, Note_off_c, 1, 71, 64
3, 47484, Note_off_c, 1, 67, 64
3, 47488, Note_on_c, 1, 62, 63
3, 47488, Note_on_c, 1, 59, 63
3, 47548, Note_off_c, 1, 62, 64
3, 47548, Note_off_c, 1, 59, 64
3, 47552, Note_on_c, 1, 62, 63
3, 47552, Note_on_c, 1, 59, 63
3, 47584, Note_off_c, 1, 62, 64
3, 47584, Note_off_c, 1, 59, 64
3, 47616, Note_on_c, 1, 62, 63
3, 47616, Note_on_c, 1, 57, 63
3, 47676, Note_off_c, 1, 62, 64
3, 47676, Note_off_c, 1, 57, 64
3, 47680, Note_on_c, 1, 69, 63
3, 47680, Note_on_c, 1, 62, 63
3, 47740, Note_off_c, 1, 69, 64
3, 47740, Note_off_c, 1, 62, 64
3, 47744, Note_on_c, 1, 69, 63
3, 47744, Note_on_c, 1, 62, 63
3, 47776, Note_off_c, 1, 69, 64
3, 47776, Note_off_c, 1, 62, 64
3, 47808, Note_on_c, 1, 62, 63
3, 47808, Note_on_c, 1, 55, 63
3, 47868, Note_off_c, 1, 62, 64
3, 47868, Note_off_c, 1, 55, 64
3, 47872, Note_on_c, 1, 67, 63
3, 47872, Note_on_c, 1, 62, 63
3, 47932, Note_off_c, 1, 67, 64
3, 47932, Note_off_c, 1, 62, 64
3, 47936, Note_on_c, 1, 71, 63
3, 47936, Note_on_c, 1, 62, 63
3, 47968, Note_off_c, 1, 71, 64
3, 47968, Note_off_c, 1, 62, 64
3, 48000, Note_on_c, 1, 69, 63
3, 48000, Note_on_c, 1, 62, 63
3, 48060, Note_off_c, 1, 69, 64
3, 48060, Note_off_c, 1, 62, 64
3, 48064, Note_on_c, 1, 62, 63
3, 48064, Note_on_c, 1, 57, 63
3, 48124, Note_off_c, 1, 62, 64
3, 48124, Note_off_c, 1, 57, 64
3, 48128, Note_on_c, 1, 62, 63
3, 48128, Note_on_c, 1, 57, 63
3, 48160, Note_off_c, 1, 62, 64
3, 48160, Note_off_c, 1, 57, 64
3, 48192, Note_on_c, 1, 61, 63
3, 48192, Note_on_c, 1, 55, 63
3, 48252, Note_off_c, 1, 61, 64
3, 48252, Note_off_c, 1, 55, 64
3, 48256, Note_on_c, 1, 64, 63
3, 48256, Note_on_c, 1, 61, 63
3, 48316, Note_off_c, 1, 64, 64
3, 48316, Note_off_c, 1, 61, 64
3, 48320, Note_on_c, 1, 71, 63
3, 48320, Note_on_c, 1, 61, 63
3, 48352, Note_off_c, 1, 71, 64
3, 48352, Note_off_c, 1, 61, 64
3, 48384, Note_on_c, 1, 66, 83
3, 48384, Note_on_c, 1, 62, 83
3, 48444, Note_off_c, 1, 66, 64
3, 48444, Note_off_c, 1, 62, 64
3, 48448, Note_on_c, 1, 66, 83
3, 48448, Note_on_c, 1, 62, 83
3, 48508, Note_off_c, 1, 66, 64
3, 48508, Note_off_c, 1, 62, 64
3, 48512, Note_on_c, 1, 67, 83
3, 48512, Note_on_c, 1, 64, 83
3, 48572, Note_off_c, 1, 67, 64
3, 48572, Note_off_c, 1, 64, 64
3, 48576, Note_on_c, 1, 69, 83
3, 48576, Note_on_c, 1, 66, 83
3, 48636, Note_off_c, 1, 69, 64
3, 48636, Note_off_c, 1, 66, 64
3, 48640, Note_on_c, 1, 67, 83
3, 48640, Note_on_c, 1, 64, 83
3, 48700, Note_off_c, 1, 67, 64
3, 48700, Note_off_c, 1, 64, 64
3, 48704, Note_on_c, 1, 66, 83
3, 48704, Note_on_c, 1, 62, 83
3, 48764, Note_off_c, 1, 66, 64
3, 48764, Note_off_c, 1, 62, 64
3, 48768, Note_on_c, 1, 69, 83
3, 48768, Note_on_c, 1, 66, 83
3, 48800, Note_off_c, 1, 69, 64
3, 48800, Note_off_c, 1, 66, 64
3, 48832, Note_on_c, 1, 72, 83
3, 48832, Note_on_c, 1, 69, 83
3, 48892, Note_off_c, 1, 72, 64
3, 48892, Note_off_c, 1, 69, 64
3, 48896, Note_on_c, 1, 74, 83
3, 48896, Note_on_c, 1, 71, 83
3, 48956, Note_off_c, 1, 74, 64
3, 48956, Note_off_c, 1, 71, 64
3, 48960, Note_on_c, 1, 76, 83
3, 48960, Note_on_c, 1, 72, 83
3, 49020, Note_off_c, 1, 76, 64
3, 49020, Note_off_c, 1, 72, 64
3, 49024, Note_on_c, 1, 74, 83
3, 49024, Note_on_c, 1, 71, 83
3, 49084, Note_off_c, 1, 74, 64
3, 49084, Note_off_c, 1, 71, 64
3, 49088, Note_on_c, 1, 72, 83
3, 49088, Note_on_c, 1, 69, 83
3, 49148, Note_off_c, 1, 72, 64
3, 49148, Note_off_c, 1, 69, 64
3, 49152, Note_on_c, 1, 71, 63
3, 49152, Note_on_c, 1, 67, 63
3, 49212, Note_off_c, 1, 71, 64
3, 49212, Note_off_c, 1, 67, 64
3, 49216, Note_on_c, 1, 74, 63
3, 49216, Note_on_c, 1, 71, 63
3, 49276, Note_off_c, 1, 74, 64
3, 49276, Note_off_c, 1, 71, 64
3, 49280, Note_on_c, 1, 74, 63
3, 49280, Note_on_c, 1, 71, 63
3, 49312, Note_off_c, 1, 74, 64
3, 49312, Note_off_c, 1, 71, 64
3, 49344, Note_on_c, 1, 71, 63
3, 49344, Note_on_c, 1, 67, 63
3, 49404, Note_off_c, 1, 71, 64
3, 49404, Note_off_c, 1, 67, 64
3, 49408, Note_on_c, 1, 74, 63
3, 49408, Note_on_c, 1, 71, 63
3, 49468, Note_off_c, 1, 74, 64
3, 49468, Note_off_c, 1, 71, 64
3, 49472, Note_on_c, 1, 74, 63
3, 49472, Note_on_c, 1, 71, 63
3, 49504, Note_off_c, 1, 74, 64
3, 49504, Note_off_c, 1, 71, 64
3, 49536, Note_on_c, 1, 71, 63
3, 49536, Note_on_c, 1, 62, 63
3, 49596, Note_off_c, 1, 71, 64
3, 49596, Note_off_c, 1, 62, 64
3, 49600, Note_on_c, 1, 74, 63
3, 49600, Note_on_c, 1, 71, 63
3, 49660, Note_off_c, 1, 74, 64
3, 49660, Note_off_c, 1, 71, 64
3, 49664, Note_on_c, 1, 74, 63
3, 49664, Note_on_c, 1, 71, 63
3, 49696, Note_off_c, 1, 74, 64
3, 49696, Note_off_c, 1, 71, 64
3, 49728, Note_on_c, 1, 71, 63
3, 49728, Note_on_c, 1, 67, 63
3, 49788, Note_off_c, 1, 71, 64
3, 49788, Note_off_c, 1, 67, 64
3, 49792, Note_on_c, 1, 74, 63
3, 49792, Note_on_c, 1, 71, 63
3, 49852, Note_off_c, 1, 74, 64
3, 49852, Note_off_c, 1, 71, 64
3, 49856, Note_on_c, 1, 74, 63
3, 49856, Note_on_c, 1, 71, 63
3, 49888, Note_off_c, 1, 74, 64
3, 49888, Note_off_c, 1, 71, 64
3, 49920, Note_on_c, 1, 69, 63
3, 49920, Note_on_c, 1, 62, 63
3, 49980, Note_off_c, 1, 69, 64
3, 49980, Note_off_c, 1, 62, 64
3, 49984, Note_on_c, 1, 74, 63
3, 49984, Note_on_c, 1, 69, 63
3, 50044, Note_off_c, 1, 74, 64
3, 50044, Note_off_c, 1, 69, 64
3, 50048, Note_on_c, 1, 74, 63
3, 50048, Note_on_c, 1, 69, 63
3, 50080, Note_off_c, 1, 74, 64
3, 50080, Note_off_c, 1, 69, 64
3, 50112, Note_on_c, 1, 69, 63
3, 50112, Note_on_c, 1, 66, 63
3, 50172, Note_off_c, 1, 69, 64
3, 50172, Note_off_c, 1, 66, 64
3, 50176, Note_on_c, 1, 74, 63
3, 50176, Note_on_c, 1, 69, 63
3, 50236, Note_off_c, 1, 74, 64
3, 50236, Note_off_c, 1, 69, 64
3, 50240, Note_on_c, 1, 74, 63
3, 50240, Note_on_c, 1, 69, 63
3, 50272, Note_off_c, 1, 74, 64
3, 50272, Note_off_c, 1, 69, 64
3, 50304, Note_on_c, 1, 66, 63
3, 50304, Note_on_c, 1, 62, 63
3, 50364, Note_off_c, 1, 66, 64
3, 50364, Note_off_c, 1, 62, 64
3, 50368, Note_on_c, 1, 69, 63
3, 50368, Note_on_c, 1, 66, 63
3, 50428, Note_off_c, 1, 69, 64
3, 50428, Note_off_c, 1, 66, 64
3, 50432, Note_on_c, 1, 69, 63
3, 50432, Note_on_c, 1, 66, 63
3, 50464, Note_off_c, 1, 69, 64
3, 50464, Note_off_c, 1, 66, 64
3, 50496, Note_on_c, 1, 62, 63
3, 50496, Note_on_c, 1, 57, 63
3, 50556, Note_off_c, 1, 62, 64
3, 50556, Note_off_c, 1, 57, 64
3, 50560, Note_on_c, 1, 69, 63
3, 50560, Note_on_c, 1, 62, 63
3, 50620, Note_off_c, 1, 69, 64
3, 50620, Note_off_c, 1, 62, 64
3, 50624, Note_on_c, 1, 69, 63
3, 50624, Note_on_c, 1, 62, 63
3, 50656, Note_off_c, 1, 69, 64
3, 50656, Note_off_c, 1, 62, 64
3, 50688, Note_on_c, 1, 59, 63
3, 50688, Note_on_c, 1, 55, 63
3, 50748, Note_off_c, 1, 59, 64
3, 50748, Note_off_c, 1, 55, 64
3, 50752, Note_on_c, 1, 67, 63
3, 50752, Note_on_c, 1, 64, 63
3, 50812, Note_off_c, 1, 67, 64
3, 50812, Note_off_c, 1, 64, 64
3, 50816, Note_on_c, 1, 67, 63
3, 50816, Note_on_c, 1, 64, 63
3, 50848, Note_off_c, 1, 67, 64
3, 50848, Note_off_c, 1, 64, 64
3, 50880, Note_on_c, 1, 61, 63
3, 50880, Note_on_c, 1, 57, 63
3, 50940, Note_off_c, 1, 61, 64
3, 50940, Note_off_c, 1, 57, 64
3, 50944, Note_on_c, 1, 67, 63
3, 50944, Note_on_c, 1, 64, 63
3, 51004, Note_off_c, 1, 67, 64
3, 51004, Note_off_c, 1, 64, 64
3, 51008, Note_on_c, 1, 67, 63
3, 51008, Note_on_c, 1, 64, 63
3, 51040, Note_off_c, 1, 67, 64
3, 51040, Note_off_c, 1, 64, 64
3, 51072, Note_on_c, 1, 55, 63
3, 51072, Note_on_c, 1, 64, 63
3, 51132, Note_off_c, 1, 55, 64
3, 51132, Note_off_c, 1, 64, 64
3, 51136, Note_on_c, 1, 67, 63
3, 51136, Note_on_c, 1, 64, 63
3, 51196, Note_off_c, 1, 67, 64
3, 51196, Note_off_c, 1, 64, 64
3, 51200, Note_on_c, 1, 64, 63
3, 51200, Note_on_c, 1, 67, 63
3, 51232, Note_off_c, 1, 64, 64
3, 51232, Note_off_c, 1, 67, 64
3, 51264, Note_on_c, 1, 61, 63
3, 51264, Note_on_c, 1, 57, 63
3, 51324, Note_off_c, 1, 61, 64
3, 51324, Note_off_c, 1, 57, 64
3, 51328, Note_on_c, 1, 64, 63
3, 51328, Note_on_c, 1, 61, 63
3, 51388, Note_off_c, 1, 64, 64
3, 51388, Note_off_c, 1, 61, 64
3, 51392, Note_on_c, 1, 64, 63
3, 51392, Note_on_c, 1, 61, 63
3, 51424, Note_off_c, 1, 64, 64
3, 51424, Note_off_c, 1, 61, 64
3, 51456, Note_on_c, 1, 61, 63
3, 51456, Note_on_c, 1, 57, 63
3, 51516, Note_off_c, 1, 61, 64
3, 51516, Note_off_c, 1, 57, 64
3, 51520, Note_on_c, 1, 64, 63
3, 51520, Note_on_c, 1, 61, 63
3, 51580, Note_off_c, 1, 64, 64
3, 51580, Note_off_c, 1, 61, 64
3, 51584, Note_on_c, 1, 64, 63
3, 51584, Note_on_c, 1, 61, 63
3, 51616, Note_off_c, 1, 64, 64
3, 51616, Note_off_c, 1, 61, 64
3, 51648, Note_on_c, 1, 64, 63
3, 51648, Note_on_c, 1, 61, 63
3, 51708, Note_off_c, 1, 64, 64
3, 51708, Note_off_c, 1, 61, 64
3, 51712, Note_on_c, 1, 73, 63
3, 51712, Note_on_c, 1, 64, 63
3, 51772, Note_off_c, 1, 73, 64
3, 51772, Note_off_c, 1, 64, 64
3, 51776, Note_on_c, 1, 73, 63
3, 51776, Note_on_c, 1, 64, 63
3, 51808, Note_off_c, 1, 73, 64
3, 51808, Note_off_c, 1, 64, 64
3, 51840, Note_on_c, 1, 74, 63
3, 51840, Note_on_c, 1, 62, 63
3, 51900, Note_off_c, 1, 74, 64
3, 51900, Note_off_c, 1, 62, 64
3, 51904, Note_on_c, 1, 69, 63
3, 51904, Note_on_c, 1, 66, 63
3, 51964, Note_off_c, 1, 69, 64
3, 51964, Note_off_c, 1, 66, 64
3, 51968, Note_on_c, 1, 69, 63
3, 51968, Note_on_c, 1, 66, 63
3, 52000, Note_off_c, 1, 69, 64
3, 52000, Note_off_c, 1, 66, 64
3, 52032, Note_on_c, 1, 69, 63
3, 52032, Note_on_c, 1, 66, 63
3, 52092, Note_off_c, 1, 69, 64
3, 52092, Note_off_c, 1, 66, 64
3, 52096, Note_on_c, 1, 66, 63
3, 52096, Note_on_c, 1, 62, 63
3, 52156, Note_off_c, 1, 66, 64
3, 52156, Note_off_c, 1, 62, 64
3, 52160, Note_on_c, 1, 66, 63
3, 52160, Note_on_c, 1, 62, 63
3, 52192, Note_off_c, 1, 66, 64
3, 52192, Note_off_c, 1, 62, 64
3, 52224, Note_on_c, 1, 62, 63
3, 52284, Note_off_c, 1, 62, 64
3, 52288, Note_on_c, 1, 67, 63
3, 52348, Note_off_c, 1, 67, 64
3, 52352, Note_on_c, 1, 67, 63
3, 52384, Note_off_c, 1, 67, 64
3, 52416, Note_on_c, 1, 62, 63
3, 52476, Note_off_c, 1, 62, 64
3, 52480, Note_on_c, 1, 67, 63
3, 52540, Note_off_c, 1, 67, 64
3, 52544, Note_on_c, 1, 67, 63
3, 52576, Note_off_c, 1, 67, 64
3, 52608, Note_on_c, 1, 62, 63
3, 52668, Note_off_c, 1, 62, 64
3, 52672, Note_on_c, 1, 66, 63
3, 52732, Note_off_c, 1, 66, 64
3, 52736, Note_on_c, 1, 66, 63
3, 52768, Note_off_c, 1, 66, 64
3, 52800, Note_on_c, 1, 62, 63
3, 52860, Note_off_c, 1, 62, 64
3, 52864, Note_on_c, 1, 66, 63
3, 52924, Note_off_c, 1, 66, 64
3, 52928, Note_on_c, 1, 66, 63
3, 52960, Note_off_c, 1, 66, 64
3, 52992, Note_on_c, 1, 74, 63
3, 52992, Note_on_c, 1, 71, 63
3, 53024, Note_off_c, 1, 74, 64
3, 53024, Note_off_c, 1, 71, 64
3, 53056, Note_on_c, 1, 74, 63
3, 53056, Note_on_c, 1, 71, 63
3, 53056, Note_on_c, 1, 64, 63
3, 53088, Note_off_c, 1, 74, 64
3, 53088, Note_off_c, 1, 71, 64
3, 53088, Note_off_c, 1, 64, 64
3, 53120, Note_on_c, 1, 74, 63
3, 53120, Note_on_c, 1, 71, 63
3, 53120, Note_on_c, 1, 64, 63
3, 53152, Note_off_c, 1, 74, 64
3, 53152, Note_off_c, 1, 71, 64
3, 53152, Note_off_c, 1, 64, 64
3, 53184, Note_on_c, 1, 74, 63
3, 53184, Note_on_c, 1, 71, 63
3, 53184, Note_on_c, 1, 64, 63
3, 53216, Note_off_c, 1, 74, 64
3, 53216, Note_off_c, 1, 71, 64
3, 53216, Note_off_c, 1, 64, 64
3, 53248, Note_on_c, 1, 74, 63
3, 53248, Note_on_c, 1, 71, 63
3, 53248, Note_on_c, 1, 64, 63
3, 53280, Note_off_c, 1, 74, 64
3, 53280, Note_off_c, 1, 71, 64
3, 53280, Note_off_c, 1, 64, 64
3, 53312, Note_on_c, 1, 74, 63
3, 53312, Note_on_c, 1, 71, 63
3, 53312, Note_on_c, 1, 64, 63
3, 53344, Note_off_c, 1, 74, 64
3, 53344, Note_off_c, 1, 71, 64
3, 53344, Note_off_c, 1, 64, 64
3, 53376, Note_on_c, 1, 73, 63
3, 53376, Note_on_c, 1, 69, 63
3, 53376, Note_on_c, 1, 64, 63
3, 53408, Note_off_c, 1, 73, 64
3, 53408, Note_off_c, 1, 69, 64
3, 53408, Note_off_c, 1, 64, 64
3, 53440, Note_on_c, 1, 73, 63
3, 53440, Note_on_c, 1, 64, 63
3, 53472, Note_off_c, 1, 73, 64
3, 53472, Note_off_c, 1, 64, 64
3, 53504, Note_on_c, 1, 73, 63
3, 53504, Note_on_c, 1, 64, 63
3, 53536, Note_off_c, 1, 73, 64
3, 53536, Note_off_c, 1, 64, 64
3, 53568, Note_on_c, 1, 73, 63
3, 53568, Note_on_c, 1, 64, 63
3, 53600, Note_off_c, 1, 73, 64
3, 53600, Note_off_c, 1, 64, 64
3, 53632, Note_on_c, 1, 73, 63
3, 53632, Note_on_c, 1, 64, 63
3, 53664, Note_off_c, 1, 73, 64
3, 53664, Note_off_c, 1, 64, 64
3, 53696, Note_on_c, 1, 73, 63
3, 53696, Note_on_c, 1, 64, 63
3, 53728, Note_off_c, 1, 73, 64
3, 53728, Note_off_c, 1, 64, 64
3, 53760, Note_on_c, 1, 62, 63
3, 53760, Note_on_c, 1, 74, 63
3, 53792, Note_off_c, 1, 62, 64
3, 53792, Note_off_c, 1, 74, 64
3, 53824, Note_on_c, 1, 74, 63
3, 53824, Note_on_c, 1, 62, 63
3, 53856, Note_off_c, 1, 74, 64
3, 53856, Note_off_c, 1, 62, 64
3, 53888, Note_on_c, 1, 74, 63
3, 53888, Note_on_c, 1, 62, 63
3, 53920, Note_off_c, 1, 74, 64
3, 53920, Note_off_c, 1, 62, 64
3, 53952, Note_on_c, 1, 74, 63
3, 53952, Note_on_c, 1, 62, 63
3, 53984, Note_off_c, 1, 74, 64
3, 53984, Note_off_c, 1, 62, 64
3, 54016, Note_on_c, 1, 74, 63
3, 54016, Note_on_c, 1, 62, 63
3, 54048, Note_off_c, 1, 74, 64
3, 54048, Note_off_c, 1, 62, 64
3, 54080, Note_on_c, 1, 74, 63
3, 54080, Note_on_c, 1, 62, 63
3, 54112, Note_off_c, 1, 74, 64
3, 54112, Note_off_c, 1, 62, 64
3, 54144, Note_on_c, 1, 74, 63
3, 54144, Note_on_c, 1, 67, 63
3, 54176, Note_off_c, 1, 74, 64
3, 54176, Note_off_c, 1, 67, 64
3, 54208, Note_on_c, 1, 74, 63
3, 54208, Note_on_c, 1, 67, 63
3, 54240, Note_off_c, 1, 74, 64
3, 54240, Note_off_c, 1, 67, 64
3, 54272, Note_on_c, 1, 74, 63
3, 54272, Note_on_c, 1, 67, 63
3, 54304, Note_off_c, 1, 74, 64
3, 54304, Note_off_c, 1, 67, 64
3, 54336, Note_on_c, 1, 74, 63
3, 54336, Note_on_c, 1, 67, 63
3, 54368, Note_off_c, 1, 74, 64
3, 54368, Note_off_c, 1, 67, 64
3, 54400, Note_on_c, 1, 74, 63
3, 54400, Note_on_c, 1, 67, 63
3, 54432, Note_off_c, 1, 74, 64
3, 54432, Note_off_c, 1, 67, 64
3, 54464, Note_on_c, 1, 71, 63
3, 54464, Note_on_c, 1, 67, 63
3, 54496, Note_off_c, 1, 71, 64
3, 54496, Note_off_c, 1, 67, 64
3, 54528, Note_on_c, 1, 69, 63
3, 54528, Note_on_c, 1, 66, 63
3, 54560, Note_off_c, 1, 69, 64
3, 54560, Note_off_c, 1, 66, 64
3, 54592, Note_on_c, 1, 69, 63
3, 54592, Note_on_c, 1, 66, 63
3, 54624, Note_off_c, 1, 69, 64
3, 54624, Note_off_c, 1, 66, 64
3, 54656, Note_on_c, 1, 69, 63
3, 54656, Note_on_c, 1, 66, 63
3, 54688, Note_off_c, 1, 69, 64
3, 54688, Note_off_c, 1, 66, 64
3, 54720, Note_on_c, 1, 69, 63
3, 54720, Note_on_c, 1, 66, 63
3, 54752, Note_off_c, 1, 69, 64
3, 54752, Note_off_c, 1, 66, 64
3, 54784, Note_on_c, 1, 69, 63
3, 54784, Note_on_c, 1, 66, 63
3, 54816, Note_off_c, 1, 69, 64
3, 54816, Note_off_c, 1, 66, 64
3, 54848, Note_on_c, 1, 69, 63
3, 54848, Note_on_c, 1, 66, 63
3, 54880, Note_off_c, 1, 69, 64
3, 54880, Note_off_c, 1, 66, 64
3, 54912, Note_on_c, 1, 69, 63
3, 54912, Note_on_c, 1, 64, 63
3, 55100, Note_off_c, 1, 69, 64
3, 55100, Note_off_c, 1, 64, 64
3, 55104, Note_on_c, 1, 69, 63
3, 55244, Note_off_c, 1, 69, 64
3, 55248, Note_on_c, 1, 67, 63
3, 55292, Note_off_c, 1, 67, 64
3, 55296, Note_on_c, 1, 66, 63
3, 55396, Note_off_c, 1, 66, 64
3, 55488, Note_on_c, 1, 67, 63
3, 55588, Note_off_c, 1, 67, 64
3, 55680, Note_on_c, 1, 64, 63
3, 55780, Note_off_c, 1, 64, 64
3, 55872, Note_on_c, 1, 69, 63
3, 55916, Note_off_c, 1, 69, 64
3, 55920, Note_on_c, 1, 68, 63
3, 55964, Note_off_c, 1, 68, 64
3, 55968, Note_on_c, 1, 69, 63
3, 56012, Note_off_c, 1, 69, 64
3, 56016, Note_on_c, 1, 67, 63
3, 56060, Note_off_c, 1, 67, 64
3, 56064, Note_on_c, 1, 66, 63
3, 56164, Note_off_c, 1, 66, 64
3, 56256, Note_on_c, 1, 67, 63
3, 56356, Note_off_c, 1, 67, 64
3, 56448, Note_on_c, 1, 64, 63
3, 56548, Note_off_c, 1, 64, 64
3, 56640, Note_on_c, 1, 73, 63
3, 56828, Note_off_c, 1, 73, 64
3, 56832, Note_on_c, 1, 74, 63
3, 56892, Note_off_c, 1, 74, 64
3, 56896, Note_on_c, 1, 74, 63
3, 56956, Note_off_c, 1, 74, 64
3, 56960, Note_on_c, 1, 74, 63
3, 57020, Note_off_c, 1, 74, 64
3, 57088, Note_on_c, 1, 71, 63
3, 57148, Note_off_c, 1, 71, 64
3, 57152, Note_on_c, 1, 71, 63
3, 57212, Note_off_c, 1, 71, 64
3, 57280, Note_on_c, 1, 69, 63
3, 57340, Note_off_c, 1, 69, 64
3, 57344, Note_on_c, 1, 69, 63
3, 57404, Note_off_c, 1, 69, 64
3, 57472, Note_on_c, 1, 73, 63
3, 57532, Note_off_c, 1, 73, 64
3, 57536, Note_on_c, 1, 73, 63
3, 57596, Note_off_c, 1, 73, 64
3, 57664, Note_on_c, 1, 73, 63
3, 57664, Note_on_c, 1, 69, 63
3, 57724, Note_off_c, 1, 73, 64
3, 57724, Note_off_c, 1, 69, 64
3, 57728, Note_on_c, 1, 73, 63
3, 57728, Note_on_c, 1, 69, 63
3, 57788, Note_off_c, 1, 73, 64
3, 57788, Note_off_c, 1, 69, 64
3, 57792, Note_on_c, 1, 73, 63
3, 57792, Note_on_c, 1, 69, 63
3, 57852, Note_off_c, 1, 73, 64
3, 57852, Note_off_c, 1, 69, 64
3, 57856, Note_on_c, 1, 73, 63
3, 57856, Note_on_c, 1, 69, 63
3, 57916, Note_off_c, 1, 73, 64
3, 57916, Note_off_c, 1, 69, 64
3, 57920, Note_on_c, 1, 73, 63
3, 57920, Note_on_c, 1, 69, 63
3, 57980, Note_off_c, 1, 73, 64
3, 57980, Note_off_c, 1, 69, 64
3, 57984, Note_on_c, 1, 74, 63
3, 57984, Note_on_c, 1, 69, 63
3, 58076, Note_off_c, 1, 74, 64
3, 58076, Note_off_c, 1, 69, 64
3, 58080, Note_on_c, 1, 62, 63
3, 58172, Note_off_c, 1, 62, 64
3, 58176, Note_on_c, 1, 69, 63
3, 58268, Note_off_c, 1, 69, 64
3, 58272, Note_on_c, 1, 67, 63
3, 58364, Note_off_c, 1, 67, 64
3, 58368, Note_on_c, 1, 66, 63
3, 58468, Note_off_c, 1, 66, 64
3, 58560, Note_on_c, 1, 67, 63
3, 58660, Note_off_c, 1, 67, 64
3, 58752, Note_on_c, 1, 64, 63
3, 58796, Note_off_c, 1, 64, 64
3, 58800, Note_on_c, 1, 66, 63
3, 58844, Note_off_c, 1, 66, 64
3, 58848, Note_on_c, 1, 67, 63
3, 58892, Note_off_c, 1, 67, 64
3, 58896, Note_on_c, 1, 68, 63
3, 58940, Note_off_c, 1, 68, 64
3, 58944, Note_on_c, 1, 69, 63
3, 58988, Note_off_c, 1, 69, 64
3, 58992, Note_on_c, 1, 68, 63
3, 59036, Note_off_c, 1, 68, 64
3, 59040, Note_on_c, 1, 69, 63
3, 59084, Note_off_c, 1, 69, 64
3, 59088, Note_on_c, 1, 67, 63
3, 59132, Note_off_c, 1, 67, 64
3, 59136, Note_on_c, 1, 66, 63
3, 59184, Note_off_c, 1, 66, 64
3, 59232, Note_on_c, 1, 66, 63
3, 59280, Note_off_c, 1, 66, 64
3, 59328, Note_on_c, 1, 67, 63
3, 59376, Note_off_c, 1, 67, 64
3, 59424, Note_on_c, 1, 67, 63
3, 59472, Note_off_c, 1, 67, 64
3, 59520, Note_on_c, 1, 64, 63
3, 59568, Note_off_c, 1, 64, 64
3, 59616, Note_on_c, 1, 57, 63
3, 59708, Note_off_c, 1, 57, 64
3, 59712, Note_on_c, 1, 61, 63
3, 59804, Note_off_c, 1, 61, 64
3, 59808, Note_on_c, 1, 64, 63
3, 59900, Note_off_c, 1, 64, 64
3, 59968, Note_on_c, 1, 62, 63
3, 60028, Note_off_c, 1, 62, 64
3, 60032, Note_on_c, 1, 62, 63
3, 60092, Note_off_c, 1, 62, 64
3, 60160, Note_on_c, 1, 64, 63
3, 60220, Note_off_c, 1, 64, 64
3, 60224, Note_on_c, 1, 67, 63
3, 60284, Note_off_c, 1, 67, 64
3, 60352, Note_on_c, 1, 66, 63
3, 60412, Note_off_c, 1, 66, 64
3, 60416, Note_on_c, 1, 66, 63
3, 60476, Note_off_c, 1, 66, 64
3, 60544, Note_on_c, 1, 64, 63
3, 60604, Note_off_c, 1, 64, 64
3, 60608, Note_on_c, 1, 64, 63
3, 60668, Note_off_c, 1, 64, 64
3, 60736, Note_on_c, 1, 65, 63
3, 60736, Note_on_c, 1, 62, 63
3, 60768, Note_off_c, 1, 65, 64
3, 60768, Note_off_c, 1, 62, 64
3, 60800, Note_on_c, 1, 65, 63
3, 60800, Note_on_c, 1, 62, 63
3, 60832, Note_off_c, 1, 65, 64
3, 60832, Note_off_c, 1, 62, 64
3, 60864, Note_on_c, 1, 65, 63
3, 60864, Note_on_c, 1, 62, 63
3, 60896, Note_off_c, 1, 65, 64
3, 60896, Note_off_c, 1, 62, 64
3, 60928, Note_on_c, 1, 65, 63
3, 60928, Note_on_c, 1, 62, 63
3, 60960, Note_off_c, 1, 65, 64
3, 60960, Note_off_c, 1, 62, 64
3, 60992, Note_on_c, 1, 65, 63
3, 60992, Note_on_c, 1, 62, 63
3, 61024, Note_off_c, 1, 65, 64
3, 61024, Note_off_c, 1, 62, 64
3, 61120, Note_on_c, 1, 70, 63
3, 61120, Note_on_c, 1, 67, 63
3, 61120, Note_on_c, 1, 64, 63
3, 61152, Note_off_c, 1, 70, 64
3, 61152, Note_off_c, 1, 67, 64
3, 61152, Note_off_c, 1, 64, 64
3, 61184, Note_on_c, 1, 70, 63
3, 61184, Note_on_c, 1, 67, 63
3, 61184, Note_on_c, 1, 64, 63
3, 61216, Note_off_c, 1, 70, 64
3, 61216, Note_off_c, 1, 67, 64
3, 61216, Note_off_c, 1, 64, 64
3, 61248, Note_on_c, 1, 70, 63
3, 61248, Note_on_c, 1, 67, 63
3, 61248, Note_on_c, 1, 64, 63
3, 61280, Note_off_c, 1, 70, 64
3, 61280, Note_off_c, 1, 67, 64
3, 61280, Note_off_c, 1, 64, 64
3, 61312, Note_on_c, 1, 70, 63
3, 61312, Note_on_c, 1, 67, 63
3, 61312, Note_on_c, 1, 64, 63
3, 61344, Note_off_c, 1, 70, 64
3, 61344, Note_off_c, 1, 67, 64
3, 61344, Note_off_c, 1, 64, 64
3, 61376, Note_on_c, 1, 70, 63
3, 61376, Note_on_c, 1, 67, 63
3, 61376, Note_on_c, 1, 64, 63
3, 61408, Note_off_c, 1, 70, 64
3, 61408, Note_off_c, 1, 67, 64
3, 61408, Note_off_c, 1, 64, 64
3, 61440, Note_on_c, 1, 69, 63
3, 61440, Note_on_c, 1, 66, 63
3, 61440, Note_on_c, 1, 57, 63
3, 61500, Note_off_c, 1, 69, 64
3, 61500, Note_off_c, 1, 66, 64
3, 61500, Note_off_c, 1, 57, 64
3, 61504, Note_on_c, 1, 74, 63
3, 61504, Note_on_c, 1, 66, 63
3, 61564, Note_off_c, 1, 74, 64
3, 61564, Note_off_c, 1, 66, 64
3, 61568, Note_on_c, 1, 74, 63
3, 61568, Note_on_c, 1, 66, 63
3, 61600, Note_off_c, 1, 74, 64
3, 61600, Note_off_c, 1, 66, 64
3, 61632, Note_on_c, 1, 69, 63
3, 61632, Note_on_c, 1, 66, 63
3, 61692, Note_off_c, 1, 69, 64
3, 61692, Note_off_c, 1, 66, 64
3, 61696, Note_on_c, 1, 74, 63
3, 61696, Note_on_c, 1, 69, 63
3, 61756, Note_off_c, 1, 74, 64
3, 61756, Note_off_c, 1, 69, 64
3, 61760, Note_on_c, 1, 74, 63
3, 61760, Note_on_c, 1, 66, 63
3, 61792, Note_off_c, 1, 74, 64
3, 61792, Note_off_c, 1, 66, 64
3, 61824, Note_on_c, 1, 62, 63
3, 61824, Note_on_c, 1, 59, 63
3, 61884, Note_off_c, 1, 62, 64
3, 61884, Note_off_c, 1, 59, 64
3, 61888, Note_on_c, 1, 71, 63
3, 61888, Note_on_c, 1, 67, 63
3, 61948, Note_off_c, 1, 71, 64
3, 61948, Note_off_c, 1, 67, 64
3, 61952, Note_on_c, 1, 71, 63
3, 61952, Note_on_c, 1, 67, 63
3, 61984, Note_off_c, 1, 71, 64
3, 61984, Note_off_c, 1, 67, 64
3, 62016, Note_on_c, 1, 62, 63
3, 62016, Note_on_c, 1, 59, 63
3, 62076, Note_off_c, 1, 62, 64
3, 62076, Note_off_c, 1, 59, 64
3, 62080, Note_on_c, 1, 71, 63
3, 62080, Note_on_c, 1, 67, 63
3, 62140, Note_off_c, 1, 71, 64
3, 62140, Note_off_c, 1, 67, 64
3, 62144, Note_on_c, 1, 71, 63
3, 62144, Note_on_c, 1, 67, 63
3, 62176, Note_off_c, 1, 71, 64
3, 62176, Note_off_c, 1, 67, 64
3, 62208, Note_on_c, 1, 66, 63
3, 62208, Note_on_c, 1, 62, 63
3, 62268, Note_off_c, 1, 66, 64
3, 62268, Note_off_c, 1, 62, 64
3, 62272, Note_on_c, 1, 69, 63
3, 62272, Note_on_c, 1, 66, 63
3, 62332, Note_off_c, 1, 69, 64
3, 62332, Note_off_c, 1, 66, 64
3, 62336, Note_on_c, 1, 69, 63
3, 62336, Note_on_c, 1, 66, 63
3, 62368, Note_off_c, 1, 69, 64
3, 62368, Note_off_c, 1, 66, 64
3, 62400, Note_on_c, 1, 66, 63
3, 62400, Note_on_c, 1, 62, 63
3, 62460, Note_off_c, 1, 66, 64
3, 62460, Note_off_c, 1, 62, 64
3, 62464, Note_on_c, 1, 69, 63
3, 62464, Note_on_c, 1, 66, 63
3, 62524, Note_off_c, 1, 69, 64
3, 62524, Note_off_c, 1, 66, 64
3, 62528, Note_on_c, 1, 69, 63
3, 62528, Note_on_c, 1, 66, 63
3, 62560, Note_off_c, 1, 69, 64
3, 62560, Note_off_c, 1, 66, 64
3, 62592, Note_on_c, 1, 64, 63
3, 62592, Note_on_c, 1, 61, 63
3, 62652, Note_off_c, 1, 64, 64
3, 62652, Note_off_c, 1, 61, 64
3, 62656, Note_on_c, 1, 67, 63
3, 62656, Note_on_c, 1, 61, 63
3, 62716, Note_off_c, 1, 67, 64
3, 62716, Note_off_c, 1, 61, 64
3, 62720, Note_on_c, 1, 67, 63
3, 62720, Note_on_c, 1, 61, 63
3, 62752, Note_off_c, 1, 67, 64
3, 62752, Note_off_c, 1, 61, 64
3, 62784, Note_on_c, 1, 64, 63
3, 62784, Note_on_c, 1, 61, 63
3, 62844, Note_off_c, 1, 64, 64
3, 62844, Note_off_c, 1, 61, 64
3, 62848, Note_on_c, 1, 67, 63
3, 62848, Note_on_c, 1, 61, 63
3, 62908, Note_off_c, 1, 67, 64
3, 62908, Note_off_c, 1, 61, 64
3, 62912, Note_on_c, 1, 67, 63
3, 62912, Note_on_c, 1, 61, 63
3, 62944, Note_off_c, 1, 67, 64
3, 62944, Note_off_c, 1, 61, 64
3, 62976, Note_on_c, 1, 66, 63
3, 62976, Note_on_c, 1, 62, 63
3, 63036, Note_off_c, 1, 66, 64
3, 63036, Note_off_c, 1, 62, 64
3, 63040, Note_on_c, 1, 69, 63
3, 63100, Note_off_c, 1, 69, 64
3, 63104, Note_on_c, 1, 69, 63
3, 63136, Note_off_c, 1, 69, 64
3, 63168, Note_on_c, 1, 69, 63
3, 63356, Note_off_c, 1, 69, 64
3, 63360, Note_on_c, 1, 69, 63
3, 63548, Note_off_c, 1, 69, 64
3, 63552, Note_on_c, 1, 69, 63
3, 63740, Note_off_c, 1, 69, 64
3, 63744, Note_on_c, 1, 69, 63
3, 63932, Note_off_c, 1, 69, 64
3, 63936, Note_on_c, 1, 71, 63
3, 63996, Note_off_c, 1, 71, 64
3, 64000, Note_on_c, 1, 68, 63
3, 64060, Note_off_c, 1, 68, 64
3, 64064, Note_on_c, 1, 69, 63
3, 64124, Note_off_c, 1, 69, 64
3, 64128, Note_on_c, 1, 67, 63
3, 64188, Note_off_c, 1, 67, 64
3, 64192, Note_on_c, 1, 65, 63
3, 64252, Note_off_c, 1, 65, 64
3, 64256, Note_on_c, 1, 66, 63
3, 64316, Note_off_c, 1, 66, 64
3, 64320, Note_on_c, 1, 64, 63
3, 64380, Note_off_c, 1, 64, 64
3, 64384, Note_on_c, 1, 61, 63
3, 64444, Note_off_c, 1, 61, 64
3, 64448, Note_on_c, 1, 62, 63
3, 64508, Note_off_c, 1, 62, 64
3, 64512, Note_on_c, 1, 66, 63
3, 64512, Note_on_c, 1, 62, 63
3, 64572, Note_off_c, 1, 66, 64
3, 64572, Note_off_c, 1, 62, 64
3, 64576, Note_on_c, 1, 69, 63
3, 64576, Note_on_c, 1, 66, 63
3, 64636, Note_off_c, 1, 69, 64
3, 64636, Note_off_c, 1, 66, 64
3, 64640, Note_on_c, 1, 69, 63
3, 64640, Note_on_c, 1, 66, 63
3, 64672, Note_off_c, 1, 69, 64
3, 64672, Note_off_c, 1, 66, 64
3, 64704, Note_on_c, 1, 69, 63
3, 64704, Note_on_c, 1, 66, 63
3, 64764, Note_off_c, 1, 69, 64
3, 64764, Note_off_c, 1, 66, 64
3, 64768, Note_on_c, 1, 74, 63
3, 64768, Note_on_c, 1, 69, 63
3, 64828, Note_off_c, 1, 74, 64
3, 64828, Note_off_c, 1, 69, 64
3, 64832, Note_on_c, 1, 74, 63
3, 64832, Note_on_c, 1, 69, 63
3, 64864, Note_off_c, 1, 74, 64
3, 64864, Note_off_c, 1, 69, 64
3, 64896, Note_on_c, 1, 78, 63
3, 64896, Note_on_c, 1, 74, 63
3, 64956, Note_off_c, 1, 78, 64
3, 64956, Note_off_c, 1, 74, 64
3, 64960, Note_on_c, 1, 74, 63
3, 64960, Note_on_c, 1, 69, 63
3, 65020, Note_off_c, 1, 74, 64
3, 65020, Note_off_c, 1, 69, 64
3, 65024, Note_on_c, 1, 74, 63
3, 65024, Note_on_c, 1, 69, 63
3, 65056, Note_off_c, 1, 74, 64
3, 65056, Note_off_c, 1, 69, 64
3, 65088, Note_on_c, 1, 69, 63
3, 65088, Note_on_c, 1, 66, 63
3, 65148, Note_off_c, 1, 69, 64
3, 65148, Note_off_c, 1, 66, 64
3, 65152, Note_on_c, 1, 66, 63
3, 65152, Note_on_c, 1, 62, 63
3, 65212, Note_off_c, 1, 66, 64
3, 65212, Note_off_c, 1, 62, 64
3, 65216, Note_on_c, 1, 66, 63
3, 65216, Note_on_c, 1, 62, 63
3, 65248, Note_off_c, 1, 66, 64
3, 65248, Note_off_c, 1, 62, 64
3, 65280, Note_on_c, 1, 64, 64
3, 65280, Note_on_c, 1, 61, 64
3, 65340, Note_off_c, 1, 64, 64
3, 65340, Note_off_c, 1, 61, 64
3, 65344, Note_on_c, 1, 67, 65
3, 65344, Note_on_c, 1, 64, 65
3, 65404, Note_off_c, 1, 67, 64
3, 65404, Note_off_c, 1, 64, 64
3, 65408, Note_on_c, 1, 67, 67
3, 65408, Note_on_c, 1, 64, 67
3, 65440, Note_off_c, 1, 67, 64
3, 65440, Note_off_c, 1, 64, 64
3, 65472, Note_on_c, 1, 67, 70
3, 65472, Note_on_c, 1, 64, 70
3, 65532, Note_off_c, 1, 67, 64
3, 65532, Note_off_c, 1, 64, 64
3, 65536, Note_on_c, 1, 73, 71
3, 65536, Note_on_c, 1, 69, 71
3, 65536, Note_on_c, 1, 67, 71
3, 65596, Note_off_c, 1, 73, 64
3, 65596, Note_off_c, 1, 69, 64
3, 65596, Note_off_c, 1, 67, 64
3, 65600, Note_on_c, 1, 73, 72
3, 65600, Note_on_c, 1, 69, 72
3, 65600, Note_on_c, 1, 67, 72
3, 65660, Note_off_c, 1, 73, 64
3, 65660, Note_off_c, 1, 69, 64
3, 65660, Note_off_c, 1, 67, 64
3, 65664, Note_on_c, 1, 73, 74
3, 65664, Note_on_c, 1, 69, 74
3, 65664, Note_on_c, 1, 67, 74
3, 65724, Note_off_c, 1, 73, 64
3, 65724, Note_off_c, 1, 69, 64
3, 65724, Note_off_c, 1, 67, 64
3, 65728, Note_on_c, 1, 73, 75
3, 65728, Note_on_c, 1, 69, 75
3, 65728, Note_on_c, 1, 67, 75
3, 65788, Note_off_c, 1, 73, 64
3, 65788, Note_off_c, 1, 69, 64
3, 65788, Note_off_c, 1, 67, 64
3, 65792, Note_on_c, 1, 73, 77
3, 65792, Note_on_c, 1, 69, 77
3, 65792, Note_on_c, 1, 67, 77
3, 65852, Note_off_c, 1, 73, 64
3, 65852, Note_off_c, 1, 69, 64
3, 65852, Note_off_c, 1, 67, 64
3, 65856, Note_on_c, 1, 73, 80
3, 65856, Note_on_c, 1, 69, 80
3, 65856, Note_on_c, 1, 67, 80
3, 65916, Note_off_c, 1, 73, 64
3, 65916, Note_off_c, 1, 69, 64
3, 65916, Note_off_c, 1, 67, 64
3, 65920, Note_on_c, 1, 73, 81
3, 65920, Note_on_c, 1, 69, 81
3, 65920, Note_on_c, 1, 67, 81
3, 65980, Note_off_c, 1, 73, 64
3, 65980, Note_off_c, 1, 69, 64
3, 65980, Note_off_c, 1, 67, 64
3, 65984, Note_on_c, 1, 73, 82
3, 65984, Note_on_c, 1, 69, 82
3, 65984, Note_on_c, 1, 67, 82
3, 66044, Note_off_c, 1, 73, 64
3, 66044, Note_off_c, 1, 69, 64
3, 66044, Note_off_c, 1, 67, 64
3, 66048, Note_on_c, 1, 74, 83
3, 66048, Note_on_c, 1, 69, 83
3, 66048, Note_on_c, 1, 66, 83
3, 66428, Note_off_c, 1, 74, 64
3, 66428, Note_off_c, 1, 69, 64
3, 66428, Note_off_c, 1, 66, 64
3, 66432, Note_on_c, 1, 84, 83
3, 66432, Note_on_c, 1, 72, 83
3, 66812, Note_off_c, 1, 84, 64
3, 66812, Note_off_c, 1, 72, 64
3, 66816, Note_on_c, 1, 83, 83
3, 66816, Note_on_c, 1, 71, 83
3, 67196, Note_off_c, 1, 83, 64
3, 67196, Note_off_c, 1, 71, 64
3, 67200, Note_on_c, 1, 86, 83
3, 67200, Note_on_c, 1, 74, 83
3, 67580, Note_off_c, 1, 86, 64
3, 67580, Note_off_c, 1, 74, 64
3, 67584, Note_on_c, 1, 69, 83
3, 67964, Note_off_c, 1, 69, 64
3, 84480, Note_on_c, 1, 62, 83
3, 84480, Note_on_c, 1, 74, 83
3, 84512, Note_off_c, 1, 62, 64
3, 84512, Note_off_c, 1, 74, 64
3, 84544, Note_on_c, 1, 62, 83
3, 84544, Note_on_c, 1, 74, 83
3, 84604, Note_off_c, 1, 62, 64
3, 84604, Note_off_c, 1, 74, 64
3, 84608, Note_on_c, 1, 64, 83
3, 84608, Note_on_c, 1, 74, 83
3, 84668, Note_off_c, 1, 64, 64
3, 84668, Note_off_c, 1, 74, 64
3, 84672, Note_on_c, 1, 66, 83
3, 84672, Note_on_c, 1, 74, 83
3, 84704, Note_off_c, 1, 66, 64
3, 84704, Note_off_c, 1, 74, 64
3, 84736, Note_on_c, 1, 66, 83
3, 84736, Note_on_c, 1, 74, 83
3, 84796, Note_off_c, 1, 66, 64
3, 84796, Note_off_c, 1, 74, 64
3, 84800, Note_on_c, 1, 67, 83
3, 84800, Note_on_c, 1, 74, 83
3, 84860, Note_off_c, 1, 67, 64
3, 84860, Note_off_c, 1, 74, 64
3, 84864, Note_on_c, 1, 69, 83
3, 84864, Note_on_c, 1, 74, 83
3, 84896, Note_off_c, 1, 69, 64
3, 84896, Note_off_c, 1, 74, 64
3, 84928, Note_on_c, 1, 69, 83
3, 84928, Note_on_c, 1, 74, 83
3, 84988, Note_off_c, 1, 69, 64
3, 84988, Note_off_c, 1, 74, 64
3, 84992, Note_on_c, 1, 67, 83
3, 84992, Note_on_c, 1, 71, 83
3, 84992, Note_on_c, 1, 74, 83
3, 85052, Note_off_c, 1, 67, 64
3, 85052, Note_off_c, 1, 71, 64
3, 85052, Note_off_c, 1, 74, 64
3, 85056, Note_on_c, 1, 66, 83
3, 85056, Note_on_c, 1, 72, 83
3, 85056, Note_on_c, 1, 74, 83
3, 85088, Note_off_c, 1, 66, 64
3, 85088, Note_off_c, 1, 72, 64
3, 85088, Note_off_c, 1, 74, 64
3, 85120, Note_on_c, 1, 66, 83
3, 85120, Note_on_c, 1, 72, 83
3, 85120, Note_on_c, 1, 74, 83
3, 85152, Note_off_c, 1, 66, 64
3, 85152, Note_off_c, 1, 72, 64
3, 85152, Note_off_c, 1, 74, 64
3, 85184, Note_on_c, 1, 66, 83
3, 85184, Note_on_c, 1, 72, 83
3, 85184, Note_on_c, 1, 74, 83
3, 85216, Note_off_c, 1, 66, 64
3, 85216, Note_off_c, 1, 72, 64
3, 85216, Note_off_c, 1, 74, 64
3, 85248, Note_on_c, 1, 67, 83
3, 85248, Note_on_c, 1, 71, 83
3, 85248, Note_on_c, 1, 74, 83
3, 85308, Note_off_c, 1, 67, 64
3, 85308, Note_off_c, 1, 71, 64
3, 85308, Note_off_c, 1, 74, 64
3, 85312, Note_on_c, 1, 82, 63
3, 85312, Note_on_c, 1, 85, 63
3, 85372, Note_off_c, 1, 82, 64
3, 85372, Note_off_c, 1, 85, 64
3, 85376, Note_on_c, 1, 83, 63
3, 85376, Note_on_c, 1, 86, 63
3, 85436, Note_off_c, 1, 83, 64
3, 85436, Note_off_c, 1, 86, 64
3, 85504, Note_on_c, 1, 78, 63
3, 85504, Note_on_c, 1, 82, 63
3, 85564, Note_off_c, 1, 78, 64
3, 85564, Note_off_c, 1, 82, 64
3, 85568, Note_on_c, 1, 79, 63
3, 85568, Note_on_c, 1, 83, 63
3, 85628, Note_off_c, 1, 79, 64
3, 85628, Note_off_c, 1, 83, 64
3, 85696, Note_on_c, 1, 76, 63
3, 85696, Note_on_c, 1, 80, 63
3, 85756, Note_off_c, 1, 76, 64
3, 85756, Note_off_c, 1, 80, 64
3, 85760, Note_on_c, 1, 78, 63
3, 85760, Note_on_c, 1, 81, 63
3, 85820, Note_off_c, 1, 78, 64
3, 85820, Note_off_c, 1, 81, 64
3, 85888, Note_on_c, 1, 76, 63
3, 85888, Note_on_c, 1, 79, 63
3, 85948, Note_off_c, 1, 76, 64
3, 85948, Note_off_c, 1, 79, 64
3, 85952, Note_on_c, 1, 73, 63
3, 85952, Note_on_c, 1, 76, 63
3, 86012, Note_off_c, 1, 73, 64
3, 86012, Note_off_c, 1, 76, 64
3, 86016, Note_on_c, 1, 62, 83
3, 86016, Note_on_c, 1, 74, 83
3, 86048, Note_off_c, 1, 62, 64
3, 86048, Note_off_c, 1, 74, 64
3, 86080, Note_on_c, 1, 62, 83
3, 86080, Note_on_c, 1, 74, 83
3, 86140, Note_off_c, 1, 62, 64
3, 86140, Note_off_c, 1, 74, 64
3, 86144, Note_on_c, 1, 64, 83
3, 86144, Note_on_c, 1, 74, 83
3, 86204, Note_off_c, 1, 64, 64
3, 86204, Note_off_c, 1, 74, 64
3, 86208, Note_on_c, 1, 66, 83
3, 86208, Note_on_c, 1, 74, 83
3, 86240, Note_off_c, 1, 66, 64
3, 86240, Note_off_c, 1, 74, 64
3, 86272, Note_on_c, 1, 66, 83
3, 86272, Note_on_c, 1, 74, 83
3, 86332, Note_off_c, 1, 66, 64
3, 86332, Note_off_c, 1, 74, 64
3, 86336, Note_on_c, 1, 67, 83
3, 86336, Note_on_c, 1, 74, 83
3, 86396, Note_off_c, 1, 67, 64
3, 86396, Note_off_c, 1, 74, 64
3, 86400, Note_on_c, 1, 69, 83
3, 86400, Note_on_c, 1, 74, 83
3, 86432, Note_off_c, 1, 69, 64
3, 86432, Note_off_c, 1, 74, 64
3, 86464, Note_on_c, 1, 69, 83
3, 86464, Note_on_c, 1, 74, 83
3, 86524, Note_off_c, 1, 69, 64
3, 86524, Note_off_c, 1, 74, 64
3, 86528, Note_on_c, 1, 67, 83
3, 86528, Note_on_c, 1, 71, 83
3, 86528, Note_on_c, 1, 74, 83
3, 86588, Note_off_c, 1, 67, 64
3, 86588, Note_off_c, 1, 71, 64
3, 86588, Note_off_c, 1, 74, 64
3, 86592, Note_on_c, 1, 66, 83
3, 86592, Note_on_c, 1, 72, 83
3, 86592, Note_on_c, 1, 74, 83
3, 86624, Note_off_c, 1, 66, 64
3, 86624, Note_off_c, 1, 72, 64
3, 86624, Note_off_c, 1, 74, 64
3, 86656, Note_on_c, 1, 66, 83
3, 86656, Note_on_c, 1, 72, 83
3, 86656, Note_on_c, 1, 74, 83
3, 86688, Note_off_c, 1, 66, 64
3, 86688, Note_off_c, 1, 72, 64
3, 86688, Note_off_c, 1, 74, 64
3, 86720, Note_on_c, 1, 66, 83
3, 86720, Note_on_c, 1, 72, 83
3, 86720, Note_on_c, 1, 74, 83
3, 86752, Note_off_c, 1, 66, 64
3, 86752, Note_off_c, 1, 72, 64
3, 86752, Note_off_c, 1, 74, 64
3, 86784, Note_on_c, 1, 67, 83
3, 86784, Note_on_c, 1, 71, 83
3, 86784, Note_on_c, 1, 74, 83
3, 86844, Note_off_c, 1, 67, 64
3, 86844, Note_off_c, 1, 71, 64
3, 86844, Note_off_c, 1, 74, 64
3, 86848, Note_on_c, 1, 82, 63
3, 86848, Note_on_c, 1, 85, 63
3, 86908, Note_off_c, 1, 82, 64
3, 86908, Note_off_c, 1, 85, 64
3, 86912, Note_on_c, 1, 83, 63
3, 86912, Note_on_c, 1, 86, 63
3, 86972, Note_off_c, 1, 83, 64
3, 86972, Note_off_c, 1, 86, 64
3, 87040, Note_on_c, 1, 78, 63
3, 87040, Note_on_c, 1, 82, 63
3, 87100, Note_off_c, 1, 78, 64
3, 87100, Note_off_c, 1, 82, 64
3, 87104, Note_on_c, 1, 79, 63
3, 87104, Note_on_c, 1, 83, 63
3, 87164, Note_off_c, 1, 79, 64
3, 87164, Note_off_c, 1, 83, 64
3, 87232, Note_on_c, 1, 76, 63
3, 87232, Note_on_c, 1, 80, 63
3, 87292, Note_off_c, 1, 76, 64
3, 87292, Note_off_c, 1, 80, 64
3, 87296, Note_on_c, 1, 78, 63
3, 87296, Note_on_c, 1, 81, 63
3, 87356, Note_off_c, 1, 78, 64
3, 87356, Note_off_c, 1, 81, 64
3, 87424, Note_on_c, 1, 76, 63
3, 87424, Note_on_c, 1, 79, 63
3, 87484, Note_off_c, 1, 76, 64
3, 87484, Note_off_c, 1, 79, 64
3, 87488, Note_on_c, 1, 76, 63
3, 87488, Note_on_c, 1, 73, 63
3, 87548, Note_off_c, 1, 76, 64
3, 87548, Note_off_c, 1, 73, 64
3, 87552, Note_on_c, 1, 74, 63
3, 87740, Note_off_c, 1, 74, 64
3, 88320, Note_on_c, 1, 66, 63
3, 88320, Note_on_c, 1, 62, 63
3, 88380, Note_off_c, 1, 66, 64
3, 88380, Note_off_c, 1, 62, 64
3, 88384, Note_on_c, 1, 69, 63
3, 88384, Note_on_c, 1, 66, 63
3, 88444, Note_off_c, 1, 69, 64
3, 88444, Note_off_c, 1, 66, 64
3, 88448, Note_on_c, 1, 69, 63
3, 88448, Note_on_c, 1, 66, 63
3, 88480, Note_off_c, 1, 69, 64
3, 88480, Note_off_c, 1, 66, 64
3, 88512, Note_on_c, 1, 66, 63
3, 88512, Note_on_c, 1, 62, 63
3, 88572, Note_off_c, 1, 66, 64
3, 88572, Note_off_c, 1, 62, 64
3, 88576, Note_on_c, 1, 69, 63
3, 88576, Note_on_c, 1, 66, 63
3, 88636, Note_off_c, 1, 69, 64
3, 88636, Note_off_c, 1, 66, 64
3, 88640, Note_on_c, 1, 69, 63
3, 88640, Note_on_c, 1, 66, 63
3, 88672, Note_off_c, 1, 69, 64
3, 88672, Note_off_c, 1, 66, 64
3, 88704, Note_on_c, 1, 67, 63
3, 88704, Note_on_c, 1, 62, 63
3, 88764, Note_off_c, 1, 67, 64
3, 88764, Note_off_c, 1, 62, 64
3, 88768, Note_on_c, 1, 71, 63
3, 88768, Note_on_c, 1, 67, 63
3, 88828, Note_off_c, 1, 71, 64
3, 88828, Note_off_c, 1, 67, 64
3, 88832, Note_on_c, 1, 71, 63
3, 88832, Note_on_c, 1, 67, 63
3, 88864, Note_off_c, 1, 71, 64
3, 88864, Note_off_c, 1, 67, 64
3, 88896, Note_on_c, 1, 62, 63
3, 88896, Note_on_c, 1, 59, 63
3, 88956, Note_off_c, 1, 62, 64
3, 88956, Note_off_c, 1, 59, 64
3, 88960, Note_on_c, 1, 67, 63
3, 88960, Note_on_c, 1, 62, 63
3, 89020, Note_off_c, 1, 67, 64
3, 89020, Note_off_c, 1, 62, 64
3, 89024, Note_on_c, 1, 67, 63
3, 89024, Note_on_c, 1, 62, 63
3, 89056, Note_off_c, 1, 67, 64
3, 89056, Note_off_c, 1, 62, 64
3, 89088, Note_on_c, 1, 64, 63
3, 89088, Note_on_c, 1, 57, 63
3, 89148, Note_off_c, 1, 64, 64
3, 89148, Note_off_c, 1, 57, 64
3, 89152, Note_on_c, 1, 66, 63
3, 89152, Note_on_c, 1, 62, 63
3, 89212, Note_off_c, 1, 66, 64
3, 89212, Note_off_c, 1, 62, 64
3, 89216, Note_on_c, 1, 66, 63
3, 89216, Note_on_c, 1, 62, 63
3, 89248, Note_off_c, 1, 66, 64
3, 89248, Note_off_c, 1, 62, 64
3, 89280, Note_on_c, 1, 62, 63
3, 89280, Note_on_c, 1, 57, 63
3, 89340, Note_off_c, 1, 62, 64
3, 89340, Note_off_c, 1, 57, 64
3, 89344, Note_on_c, 1, 66, 63
3, 89344, Note_on_c, 1, 62, 63
3, 89404, Note_off_c, 1, 66, 64
3, 89404, Note_off_c, 1, 62, 64
3, 89408, Note_on_c, 1, 66, 63
3, 89408, Note_on_c, 1, 62, 63
3, 89440, Note_off_c, 1, 66, 64
3, 89440, Note_off_c, 1, 62, 64
3, 89472, Note_on_c, 1, 61, 63
3, 89472, Note_on_c, 1, 57, 63
3, 89532, Note_off_c, 1, 61, 64
3, 89532, Note_off_c, 1, 57, 64
3, 89536, Note_on_c, 1, 64, 63
3, 89536, Note_on_c, 1, 61, 63
3, 89596, Note_off_c, 1, 64, 64
3, 89596, Note_off_c, 1, 61, 64
3, 89600, Note_on_c, 1, 64, 63
3, 89600, Note_on_c, 1, 61, 63
3, 89632, Note_off_c, 1, 64, 64
3, 89632, Note_off_c, 1, 61, 64
3, 89664, Note_on_c, 1, 64, 63
3, 89664, Note_on_c, 1, 61, 63
3, 89724, Note_off_c, 1, 64, 64
3, 89724, Note_off_c, 1, 61, 64
3, 89728, Note_on_c, 1, 67, 63
3, 89728, Note_on_c, 1, 61, 63
3, 89788, Note_off_c, 1, 67, 64
3, 89788, Note_off_c, 1, 61, 64
3, 89792, Note_on_c, 1, 67, 63
3, 89792, Note_on_c, 1, 61, 63
3, 89824, Note_off_c, 1, 67, 64
3, 89824, Note_off_c, 1, 61, 64
3, 89856, Note_on_c, 1, 61, 63
3, 89856, Note_on_c, 1, 57, 63
3, 89856, Note_on_c, 1, 67, 63
3, 90236, Note_off_c, 1, 61, 64
3, 90236, Note_off_c, 1, 57, 64
3, 90236, Note_off_c, 1, 67, 64
3, 90240, Note_on_c, 1, 66, 63
3, 90240, Note_on_c, 1, 62, 63
3, 90240, Note_on_c, 1, 57, 63
3, 90428, Note_off_c, 1, 66, 64
3, 90428, Note_off_c, 1, 62, 64
3, 90428, Note_off_c, 1, 57, 64
3, 90428, End_track
4, 0, Start_track
4, 0, Title_t, "K216 -b-Andante"
4, 0, Control_c, 2, 0, 0
4, 0, Program_c, 2, 48
4, 0, Control_c, 2, 7, 88
4, 0, Control_c, 2, 10, 91
4, 0, Control_c, 2, 91, 67
4, 0, Control_c, 2, 93, 45
4, 0, Key_signature, 2, "major"
4, 0, Control_c, 2, 121, 0
4, 192, Control_c, 2, 10, 73
4, 384, Control_c, 2, 91, 73
4, 576, Program_c, 2, 48
4, 4224, Note_on_c, 2, 50, 83
4, 4284, Note_off_c, 2, 50, 64
4, 4288, Note_on_c, 2, 57, 83
4, 4288, Note_on_c, 2, 62, 83
4, 4348, Note_off_c, 2, 57, 64
4, 4348, Note_off_c, 2, 62, 64
4, 4352, Note_on_c, 2, 57, 83
4, 4352, Note_on_c, 2, 62, 83
4, 4384, Note_off_c, 2, 57, 64
4, 4384, Note_off_c, 2, 62, 64
4, 5376, Note_on_c, 2, 52, 63
4, 5436, Note_off_c, 2, 52, 64
4, 5440, Note_on_c, 2, 59, 63
4, 5440, Note_on_c, 2, 62, 63
4, 5500, Note_off_c, 2, 59, 64
4, 5500, Note_off_c, 2, 62, 64
4, 5504, Note_on_c, 2, 59, 63
4, 5504, Note_on_c, 2, 62, 63
4, 5564, Note_off_c, 2, 59, 64
4, 5564, Note_off_c, 2, 62, 64
4, 5568, Note_on_c, 2, 52, 63
4, 5628, Note_off_c, 2, 52, 64
4, 5632, Note_on_c, 2, 59, 63
4, 5632, Note_on_c, 2, 62, 63
4, 5692, Note_off_c, 2, 59, 64
4, 5692, Note_off_c, 2, 62, 64
4, 5696, Note_on_c, 2, 59, 63
4, 5696, Note_on_c, 2, 62, 63
4, 5756, Note_off_c, 2, 59, 64
4, 5756, Note_off_c, 2, 62, 64
4, 5760, Note_on_c, 2, 57, 64
4, 5820, Note_off_c, 2, 57, 64
4, 5824, Note_on_c, 2, 61, 65
4, 5824, Note_on_c, 2, 64, 65
4, 5884, Note_off_c, 2, 61, 64
4, 5884, Note_off_c, 2, 64, 64
4, 5888, Note_on_c, 2, 61, 66
4, 5888, Note_on_c, 2, 64, 66
4, 5948, Note_off_c, 2, 61, 64
4, 5948, Note_off_c, 2, 64, 64
4, 5952, Note_on_c, 2, 57, 67
4, 6012, Note_off_c, 2, 57, 64
4, 6016, Note_on_c, 2, 61, 69
4, 6016, Note_on_c, 2, 64, 69
4, 6076, Note_off_c, 2, 61, 64
4, 6076, Note_off_c, 2, 64, 64
4, 6080, Note_on_c, 2, 61, 70
4, 6080, Note_on_c, 2, 64, 70
4, 6140, Note_off_c, 2, 61, 64
4, 6140, Note_off_c, 2, 64, 64
4, 6144, Note_on_c, 2, 50, 71
4, 6204, Note_off_c, 2, 50, 64
4, 6208, Note_on_c, 2, 57, 72
4, 6208, Note_on_c, 2, 62, 72
4, 6268, Note_off_c, 2, 57, 64
4, 6268, Note_off_c, 2, 62, 64
4, 6272, Note_on_c, 2, 57, 72
4, 6272, Note_on_c, 2, 62, 72
4, 6332, Note_off_c, 2, 57, 64
4, 6332, Note_off_c, 2, 62, 64
4, 6336, Note_on_c, 2, 50, 74
4, 6396, Note_off_c, 2, 50, 64
4, 6400, Note_on_c, 2, 57, 75
4, 6400, Note_on_c, 2, 62, 75
4, 6460, Note_off_c, 2, 57, 64
4, 6460, Note_off_c, 2, 62, 64
4, 6464, Note_on_c, 2, 62, 76
4, 6464, Note_on_c, 2, 57, 76
4, 6524, Note_off_c, 2, 62, 64
4, 6524, Note_off_c, 2, 57, 64
4, 6528, Note_on_c, 2, 43, 77
4, 6588, Note_off_c, 2, 43, 64
4, 6592, Note_on_c, 2, 55, 79
4, 6592, Note_on_c, 2, 62, 79
4, 6652, Note_off_c, 2, 55, 64
4, 6652, Note_off_c, 2, 62, 64
4, 6656, Note_on_c, 2, 55, 80
4, 6656, Note_on_c, 2, 62, 80
4, 6716, Note_off_c, 2, 55, 64
4, 6716, Note_off_c, 2, 62, 64
4, 6720, Note_on_c, 2, 43, 81
4, 6780, Note_off_c, 2, 43, 64
4, 6784, Note_on_c, 2, 55, 81
4, 6784, Note_on_c, 2, 62, 81
4, 6844, Note_off_c, 2, 55, 64
4, 6844, Note_off_c, 2, 62, 64
4, 6848, Note_on_c, 2, 55, 82
4, 6848, Note_on_c, 2, 59, 82
4, 6908, Note_off_c, 2, 55, 64
4, 6908, Note_off_c, 2, 59, 64
4, 6912, Note_on_c, 2, 45, 83
4, 6972, Note_off_c, 2, 45, 64
4, 6976, Note_on_c, 2, 54, 83
4, 6976, Note_on_c, 2, 57, 83
4, 7036, Note_off_c, 2, 54, 64
4, 7036, Note_off_c, 2, 57, 64
4, 7040, Note_on_c, 2, 54, 83
4, 7040, Note_on_c, 2, 57, 83
4, 7100, Note_off_c, 2, 54, 64
4, 7100, Note_off_c, 2, 57, 64
4, 7104, Note_on_c, 2, 45, 83
4, 7164, Note_off_c, 2, 45, 64
4, 7168, Note_on_c, 2, 54, 83
4, 7168, Note_on_c, 2, 57, 83
4, 7228, Note_off_c, 2, 54, 64
4, 7228, Note_off_c, 2, 57, 64
4, 7232, Note_on_c, 2, 57, 83
4, 7232, Note_on_c, 2, 54, 83
4, 7292, Note_off_c, 2, 57, 64
4, 7292, Note_off_c, 2, 54, 64
4, 7296, Note_on_c, 2, 57, 83
4, 7296, Note_on_c, 2, 52, 83
4, 7296, Note_on_c, 2, 45, 83
4, 7484, Note_off_c, 2, 57, 64
4, 7484, Note_off_c, 2, 52, 64
4, 7484, Note_off_c, 2, 45, 64
4, 8448, Note_on_c, 2, 38, 63
4, 8636, Note_off_c, 2, 38, 64
4, 8640, Note_on_c, 2, 50, 63
4, 8828, Note_off_c, 2, 50, 64
4, 8832, Note_on_c, 2, 31, 63
4, 9020, Note_off_c, 2, 31, 64
4, 9024, Note_on_c, 2, 50, 63
4, 9212, Note_off_c, 2, 50, 64
4, 9216, Note_on_c, 2, 33, 63
4, 9404, Note_off_c, 2, 33, 64
4, 9408, Note_on_c, 2, 45, 63
4, 9596, Note_off_c, 2, 45, 64
4, 9600, Note_on_c, 2, 33, 63
4, 9788, Note_off_c, 2, 33, 64
4, 9792, Note_on_c, 2, 45, 63
4, 9980, Note_off_c, 2, 45, 64
4, 9984, Note_on_c, 2, 33, 63
4, 10172, Note_off_c, 2, 33, 64
4, 10176, Note_on_c, 2, 45, 63
4, 10364, Note_off_c, 2, 45, 64
4, 10368, Note_on_c, 2, 38, 63
4, 10556, Note_off_c, 2, 38, 64
4, 10560, Note_on_c, 2, 50, 63
4, 10748, Note_off_c, 2, 50, 64
4, 10752, Note_on_c, 2, 31, 63
4, 10940, Note_off_c, 2, 31, 64
4, 10944, Note_on_c, 2, 43, 63
4, 11132, Note_off_c, 2, 43, 64
4, 11136, Note_on_c, 2, 31, 63
4, 11324, Note_off_c, 2, 31, 64
4, 11328, Note_on_c, 2, 43, 63
4, 11516, Note_off_c, 2, 43, 64
4, 11520, Note_on_c, 2, 33, 63
4, 11708, Note_off_c, 2, 33, 64
4, 11712, Note_on_c, 2, 45, 63
4, 11900, Note_off_c, 2, 45, 64
4, 11904, Note_on_c, 2, 45, 63
4, 12092, Note_off_c, 2, 45, 64
4, 12096, Note_on_c, 2, 43, 63
4, 12284, Note_off_c, 2, 43, 64
4, 12288, Note_on_c, 2, 42, 63
4, 12380, Note_off_c, 2, 42, 64
4, 12480, Note_on_c, 2, 43, 63
4, 12572, Note_off_c, 2, 43, 64
4, 12672, Note_on_c, 2, 45, 63
4, 12764, Note_off_c, 2, 45, 64
4, 12864, Note_on_c, 2, 45, 63
4, 12956, Note_off_c, 2, 45, 64
4, 13056, Note_on_c, 2, 50, 83
4, 13436, Note_off_c, 2, 50, 64
4, 13440, Note_on_c, 2, 45, 83
4, 13820, Note_off_c, 2, 45, 64
4, 13824, Note_on_c, 2, 38, 63
4, 14012, Note_off_c, 2, 38, 64
4, 14016, Note_on_c, 2, 50, 63
4, 14204, Note_off_c, 2, 50, 64
4, 14208, Note_on_c, 2, 38, 63
4, 14396, Note_off_c, 2, 38, 64
4, 14400, Note_on_c, 2, 50, 63
4, 14588, Note_off_c, 2, 50, 64
4, 14592, Note_on_c, 2, 37, 63
4, 14780, Note_off_c, 2, 37, 64
4, 14784, Note_on_c, 2, 49, 63
4, 14972, Note_off_c, 2, 49, 64
4, 14976, Note_on_c, 2, 37, 63
4, 15164, Note_off_c, 2, 37, 64
4, 15168, Note_on_c, 2, 47, 63
4, 15356, Note_off_c, 2, 47, 64
4, 15360, Note_on_c, 2, 35, 63
4, 15548, Note_off_c, 2, 35, 64
4, 15552, Note_on_c, 2, 47, 63
4, 15740, Note_off_c, 2, 47, 64
4, 15744, Note_on_c, 2, 40, 63
4, 15932, Note_off_c, 2, 40, 64
4, 15936, Note_on_c, 2, 52, 63
4, 16124, Note_off_c, 2, 52, 64
4, 16128, Note_on_c, 2, 40, 63
4, 16316, Note_off_c, 2, 40, 64
4, 16320, Note_on_c, 2, 52, 63
4, 16508, Note_off_c, 2, 52, 64
4, 16512, Note_on_c, 2, 33, 63
4, 16700, Note_off_c, 2, 33, 64
4, 16704, Note_on_c, 2, 45, 63
4, 16892, Note_off_c, 2, 45, 64
4, 17664, Note_on_c, 2, 47, 63
4, 17852, Note_off_c, 2, 47, 64
4, 18048, Note_on_c, 2, 40, 63
4, 18236, Note_off_c, 2, 40, 64
4, 18432, Note_on_c, 2, 45, 63
4, 18532, Note_off_c, 2, 45, 64
4, 18624, Note_on_c, 2, 42, 63
4, 18724, Note_off_c, 2, 42, 64
4, 18816, Note_on_c, 2, 38, 63
4, 18916, Note_off_c, 2, 38, 64
4, 19008, Note_on_c, 2, 35, 63
4, 19108, Note_off_c, 2, 35, 64
4, 19200, Note_on_c, 2, 40, 63
4, 19388, Note_off_c, 2, 40, 64
4, 19392, Note_on_c, 2, 52, 63
4, 19580, Note_off_c, 2, 52, 64
4, 19584, Note_on_c, 2, 40, 63
4, 19644, Note_off_c, 2, 40, 64
4, 19648, Note_on_c, 2, 64, 63
4, 19680, Note_off_c, 2, 64, 64
4, 19712, Note_on_c, 2, 64, 63
4, 19744, Note_off_c, 2, 64, 64
4, 19776, Note_on_c, 2, 64, 63
4, 19808, Note_off_c, 2, 64, 64
4, 19840, Note_on_c, 2, 64, 63
4, 19872, Note_off_c, 2, 64, 64
4, 19904, Note_on_c, 2, 64, 63
4, 19936, Note_off_c, 2, 64, 64
4, 19968, Note_on_c, 2, 57, 63
4, 19968, Note_on_c, 2, 57, 63
4, 20000, Note_off_c, 2, 57, 64
4, 20032, Note_on_c, 2, 64, 63
4, 20064, Note_off_c, 2, 64, 64
4, 20068, Note_off_c, 2, 57, 64
4, 20096, Note_on_c, 2, 64, 63
4, 20128, Note_off_c, 2, 64, 64
4, 20160, Note_on_c, 2, 64, 63
4, 20160, Note_on_c, 2, 59, 63
4, 20192, Note_off_c, 2, 64, 64
4, 20224, Note_on_c, 2, 64, 63
4, 20256, Note_off_c, 2, 64, 64
4, 20260, Note_off_c, 2, 59, 64
4, 20288, Note_on_c, 2, 64, 63
4, 20320, Note_off_c, 2, 64, 64
4, 20352, Note_on_c, 2, 64, 63
4, 20352, Note_on_c, 2, 56, 63
4, 20384, Note_off_c, 2, 64, 64
4, 20416, Note_on_c, 2, 64, 63
4, 20448, Note_off_c, 2, 64, 64
4, 20452, Note_off_c, 2, 56, 64
4, 20480, Note_on_c, 2, 64, 63
4, 20512, Note_off_c, 2, 64, 64
4, 20544, Note_on_c, 2, 64, 63
4, 20576, Note_off_c, 2, 64, 64
4, 20608, Note_on_c, 2, 64, 63
4, 20640, Note_off_c, 2, 64, 64
4, 20672, Note_on_c, 2, 64, 63
4, 20704, Note_off_c, 2, 64, 64
4, 20736, Note_on_c, 2, 64, 63
4, 20736, Note_on_c, 2, 57, 63
4, 20768, Note_off_c, 2, 64, 64
4, 20800, Note_on_c, 2, 64, 63
4, 20832, Note_off_c, 2, 64, 64
4, 20836, Note_off_c, 2, 57, 64
4, 20864, Note_on_c, 2, 64, 63
4, 20896, Note_off_c, 2, 64, 64
4, 20928, Note_on_c, 2, 64, 63
4, 20928, Note_on_c, 2, 59, 63
4, 20960, Note_off_c, 2, 64, 64
4, 20992, Note_on_c, 2, 64, 63
4, 21024, Note_off_c, 2, 64, 64
4, 21028, Note_off_c, 2, 59, 64
4, 21056, Note_on_c, 2, 64, 63
4, 21088, Note_off_c, 2, 64, 64
4, 21120, Note_on_c, 2, 64, 63
4, 21120, Note_on_c, 2, 56, 63
4, 21152, Note_off_c, 2, 64, 64
4, 21184, Note_on_c, 2, 64, 63
4, 21216, Note_off_c, 2, 64, 64
4, 21220, Note_off_c, 2, 56, 64
4, 21248, Note_on_c, 2, 64, 63
4, 21280, Note_off_c, 2, 64, 64
4, 21312, Note_on_c, 2, 64, 63
4, 21344, Note_off_c, 2, 64, 64
4, 21376, Note_on_c, 2, 64, 63
4, 21408, Note_off_c, 2, 64, 64
4, 21440, Note_on_c, 2, 64, 63
4, 21472, Note_off_c, 2, 64, 64
4, 21504, Note_on_c, 2, 64, 63
4, 21692, Note_off_c, 2, 64, 64
4, 21696, Note_on_c, 2, 62, 63
4, 21696, Note_on_c, 2, 50, 63
4, 21884, Note_off_c, 2, 62, 64
4, 21884, Note_off_c, 2, 50, 64
4, 21888, Note_on_c, 2, 61, 63
4, 21888, Note_on_c, 2, 52, 63
4, 22076, Note_off_c, 2, 61, 64
4, 22076, Note_off_c, 2, 52, 64
4, 22080, Note_on_c, 2, 62, 63
4, 22080, Note_on_c, 2, 52, 63
4, 22268, Note_off_c, 2, 62, 64
4, 22268, Note_off_c, 2, 52, 64
4, 22272, Note_on_c, 2, 57, 63
4, 22460, Note_off_c, 2, 57, 64
4, 22464, Note_on_c, 2, 52, 63
4, 22652, Note_off_c, 2, 52, 64
4, 22656, Note_on_c, 2, 57, 63
4, 22716, Note_off_c, 2, 57, 64
4, 22720, Note_on_c, 2, 64, 63
4, 22752, Note_off_c, 2, 64, 64
4, 22784, Note_on_c, 2, 64, 63
4, 22816, Note_off_c, 2, 64, 64
4, 22848, Note_on_c, 2, 64, 63
4, 22880, Note_off_c, 2, 64, 64
4, 22912, Note_on_c, 2, 64, 63
4, 22944, Note_off_c, 2, 64, 64
4, 22976, Note_on_c, 2, 64, 63
4, 23008, Note_off_c, 2, 64, 64
4, 23040, Note_on_c, 2, 64, 63
4, 23040, Note_on_c, 2, 57, 63
4, 23072, Note_off_c, 2, 64, 64
4, 23104, Note_on_c, 2, 64, 63
4, 23136, Note_off_c, 2, 64, 64
4, 23140, Note_off_c, 2, 57, 64
4, 23168, Note_on_c, 2, 64, 63
4, 23200, Note_off_c, 2, 64, 64
4, 23232, Note_on_c, 2, 64, 63
4, 23232, Note_on_c, 2, 59, 63
4, 23264, Note_off_c, 2, 64, 64
4, 23296, Note_on_c, 2, 64, 63
4, 23328, Note_off_c, 2, 64, 64
4, 23332, Note_off_c, 2, 59, 64
4, 23360, Note_on_c, 2, 64, 63
4, 23392, Note_off_c, 2, 64, 64
4, 23424, Note_on_c, 2, 64, 63
4, 23424, Note_on_c, 2, 56, 63
4, 23456, Note_off_c, 2, 64, 64
4, 23488, Note_on_c, 2, 64, 63
4, 23520, Note_off_c, 2, 64, 64
4, 23524, Note_off_c, 2, 56, 64
4, 23552, Note_on_c, 2, 64, 63
4, 23584, Note_off_c, 2, 64, 64
4, 23616, Note_on_c, 2, 64, 63
4, 23648, Note_off_c, 2, 64, 64
4, 23680, Note_on_c, 2, 64, 63
4, 23712, Note_off_c, 2, 64, 64
4, 23744, Note_on_c, 2, 64, 63
4, 23776, Note_off_c, 2, 64, 64
4, 23808, Note_on_c, 2, 64, 63
4, 23808, Note_on_c, 2, 57, 63
4, 23840, Note_off_c, 2, 64, 64
4, 23872, Note_on_c, 2, 64, 63
4, 23904, Note_off_c, 2, 64, 64
4, 23908, Note_off_c, 2, 57, 64
4, 23936, Note_on_c, 2, 64, 63
4, 23968, Note_off_c, 2, 64, 64
4, 24000, Note_on_c, 2, 64, 63
4, 24000, Note_on_c, 2, 59, 63
4, 24032, Note_off_c, 2, 64, 64
4, 24064, Note_on_c, 2, 64, 63
4, 24096, Note_off_c, 2, 64, 64
4, 24100, Note_off_c, 2, 59, 64
4, 24128, Note_on_c, 2, 64, 63
4, 24160, Note_off_c, 2, 64, 64
4, 24192, Note_on_c, 2, 64, 63
4, 24192, Note_on_c, 2, 56, 63
4, 24224, Note_off_c, 2, 64, 64
4, 24256, Note_on_c, 2, 64, 63
4, 24288, Note_off_c, 2, 64, 64
4, 24292, Note_off_c, 2, 56, 64
4, 24320, Note_on_c, 2, 64, 63
4, 24352, Note_off_c, 2, 64, 64
4, 24384, Note_on_c, 2, 64, 63
4, 24416, Note_off_c, 2, 64, 64
4, 24448, Note_on_c, 2, 64, 63
4, 24480, Note_off_c, 2, 64, 64
4, 24512, Note_on_c, 2, 64, 63
4, 24544, Note_off_c, 2, 64, 64
4, 24576, Note_on_c, 2, 57, 63
4, 24576, Note_on_c, 2, 64, 63
4, 24764, Note_off_c, 2, 57, 64
4, 24764, Note_off_c, 2, 64, 64
4, 24768, Note_on_c, 2, 62, 63
4, 24768, Note_on_c, 2, 50, 63
4, 24956, Note_off_c, 2, 62, 64
4, 24956, Note_off_c, 2, 50, 64
4, 24960, Note_on_c, 2, 62, 63
4, 24960, Note_on_c, 2, 52, 63
4, 25148, Note_off_c, 2, 62, 64
4, 25148, Note_off_c, 2, 52, 64
4, 25344, Note_on_c, 2, 59, 63
4, 25344, Note_on_c, 2, 59, 63
4, 25344, Note_on_c, 2, 52, 63
4, 25344, Note_on_c, 2, 52, 63
4, 25532, Note_off_c, 2, 59, 64
4, 25532, Note_off_c, 2, 59, 64
4, 25532, Note_off_c, 2, 52, 64
4, 25532, Note_off_c, 2, 52, 64
4, 25536, Note_on_c, 2, 54, 63
4, 25724, Note_off_c, 2, 54, 64
4, 25728, Note_on_c, 2, 56, 63
4, 25916, Note_off_c, 2, 56, 64
4, 26112, Note_on_c, 2, 57, 63
4, 26172, Note_off_c, 2, 57, 64
4, 26176, Note_on_c, 2, 57, 63
4, 26236, Note_off_c, 2, 57, 64
4, 26240, Note_on_c, 2, 57, 63
4, 26300, Note_off_c, 2, 57, 64
4, 26304, Note_on_c, 2, 57, 63
4, 26364, Note_off_c, 2, 57, 64
4, 26368, Note_on_c, 2, 61, 63
4, 26428, Note_off_c, 2, 61, 64
4, 26432, Note_on_c, 2, 59, 63
4, 26492, Note_off_c, 2, 59, 64
4, 26496, Note_on_c, 2, 62, 63
4, 26556, Note_off_c, 2, 62, 64
4, 26560, Note_on_c, 2, 59, 63
4, 26620, Note_off_c, 2, 59, 64
4, 26624, Note_on_c, 2, 61, 63
4, 26684, Note_off_c, 2, 61, 64
4, 26688, Note_on_c, 2, 57, 63
4, 26748, Note_off_c, 2, 57, 64
4, 26752, Note_on_c, 2, 61, 63
4, 26812, Note_off_c, 2, 61, 64
4, 26816, Note_on_c, 2, 59, 63
4, 26876, Note_off_c, 2, 59, 64
4, 26880, Note_on_c, 2, 62, 63
4, 26940, Note_off_c, 2, 62, 64
4, 26944, Note_on_c, 2, 59, 63
4, 27004, Note_off_c, 2, 59, 64
4, 27008, Note_on_c, 2, 61, 63
4, 27068, Note_off_c, 2, 61, 64
4, 27648, Note_on_c, 2, 38, 63
4, 27836, Note_off_c, 2, 38, 64
4, 27840, Note_on_c, 2, 50, 63
4, 28028, Note_off_c, 2, 50, 64
4, 28032, Note_on_c, 2, 38, 63
4, 28220, Note_off_c, 2, 38, 64
4, 28224, Note_on_c, 2, 50, 63
4, 28412, Note_off_c, 2, 50, 64
4, 28416, Note_on_c, 2, 38, 64
4, 28604, Note_off_c, 2, 38, 64
4, 28608, Note_on_c, 2, 52, 70
4, 28796, Note_off_c, 2, 52, 64
4, 28800, Note_on_c, 2, 40, 74
4, 28988, Note_off_c, 2, 40, 64
4, 28992, Note_on_c, 2, 52, 80
4, 29180, Note_off_c, 2, 52, 64
4, 29184, Note_on_c, 2, 52, 83
4, 29184, Note_on_c, 2, 45, 83
4, 29372, Note_off_c, 2, 52, 64
4, 29372, Note_off_c, 2, 45, 64
4, 29440, Note_on_c, 2, 45, 83
4, 29500, Note_off_c, 2, 45, 64
4, 29504, Note_on_c, 2, 47, 83
4, 29564, Note_off_c, 2, 47, 64
4, 29568, Note_on_c, 2, 49, 83
4, 29600, Note_off_c, 2, 49, 64
4, 29632, Note_on_c, 2, 49, 83
4, 29692, Note_off_c, 2, 49, 64
4, 29696, Note_on_c, 2, 50, 83
4, 29756, Note_off_c, 2, 50, 64
4, 29760, Note_on_c, 2, 52, 83
4, 29792, Note_off_c, 2, 52, 64
4, 29824, Note_on_c, 2, 52, 83
4, 29856, Note_off_c, 2, 52, 64
4, 29888, Note_on_c, 2, 52, 83
4, 29920, Note_off_c, 2, 52, 64
4, 29952, Note_on_c, 2, 50, 63
4, 30140, Note_off_c, 2, 50, 64
4, 30144, Note_on_c, 2, 50, 63
4, 30332, Note_off_c, 2, 50, 64
4, 30336, Note_on_c, 2, 52, 63
4, 30524, Note_off_c, 2, 52, 64
4, 30528, Note_on_c, 2, 52, 63
4, 30716, Note_off_c, 2, 52, 64
4, 30720, Note_on_c, 2, 52, 83
4, 30720, Note_on_c, 2, 45, 83
4, 30908, Note_off_c, 2, 52, 64
4, 30908, Note_off_c, 2, 45, 64
4, 30976, Note_on_c, 2, 45, 83
4, 31036, Note_off_c, 2, 45, 64
4, 31040, Note_on_c, 2, 47, 83
4, 31100, Note_off_c, 2, 47, 64
4, 31104, Note_on_c, 2, 49, 83
4, 31136, Note_off_c, 2, 49, 64
4, 31168, Note_on_c, 2, 49, 83
4, 31228, Note_off_c, 2, 49, 64
4, 31232, Note_on_c, 2, 50, 83
4, 31292, Note_off_c, 2, 50, 64
4, 31296, Note_on_c, 2, 52, 83
4, 31328, Note_off_c, 2, 52, 64
4, 31360, Note_on_c, 2, 52, 83
4, 31392, Note_off_c, 2, 52, 64
4, 31424, Note_on_c, 2, 52, 83
4, 31456, Note_off_c, 2, 52, 64
4, 31488, Note_on_c, 2, 50, 63
4, 31612, Note_off_c, 2, 50, 64
4, 31680, Note_on_c, 2, 50, 63
4, 31868, Note_off_c, 2, 50, 64
4, 31872, Note_on_c, 2, 52, 63
4, 32060, Note_off_c, 2, 52, 64
4, 32064, Note_on_c, 2, 52, 63
4, 32252, Note_off_c, 2, 52, 64
4, 32256, Note_on_c, 2, 52, 63
4, 32256, Note_on_c, 2, 45, 63
4, 32444, Note_off_c, 2, 52, 64
4, 32444, Note_off_c, 2, 45, 64
4, 33024, Note_on_c, 2, 42, 63
4, 33212, Note_off_c, 2, 42, 64
4, 33216, Note_on_c, 2, 54, 63
4, 33404, Note_off_c, 2, 54, 64
4, 33408, Note_on_c, 2, 42, 63
4, 33596, Note_off_c, 2, 42, 64
4, 33600, Note_on_c, 2, 54, 63
4, 33788, Note_off_c, 2, 54, 64
4, 33792, Note_on_c, 2, 42, 63
4, 33980, Note_off_c, 2, 42, 64
4, 33984, Note_on_c, 2, 54, 63
4, 34172, Note_off_c, 2, 54, 64
4, 34176, Note_on_c, 2, 42, 63
4, 34364, Note_off_c, 2, 42, 64
4, 34368, Note_on_c, 2, 54, 63
4, 34556, Note_off_c, 2, 54, 64
4, 34560, Note_on_c, 2, 59, 63
4, 34560, Note_on_c, 2, 62, 63
4, 34660, Note_off_c, 2, 59, 64
4, 34660, Note_off_c, 2, 62, 64
4, 34752, Note_on_c, 2, 59, 63
4, 34752, Note_on_c, 2, 62, 63
4, 34852, Note_off_c, 2, 59, 64
4, 34852, Note_off_c, 2, 62, 64
4, 34944, Note_on_c, 2, 59, 63
4, 34944, Note_on_c, 2, 62, 63
4, 35044, Note_off_c, 2, 59, 64
4, 35044, Note_off_c, 2, 62, 64
4, 35136, Note_on_c, 2, 59, 63
4, 35136, Note_on_c, 2, 62, 63
4, 35236, Note_off_c, 2, 59, 64
4, 35236, Note_off_c, 2, 62, 64
4, 35328, Note_on_c, 2, 59, 63
4, 35328, Note_on_c, 2, 62, 63
4, 35516, Note_off_c, 2, 59, 64
4, 35516, Note_off_c, 2, 62, 64
4, 35520, Note_on_c, 2, 59, 63
4, 35520, Note_on_c, 2, 62, 63
4, 35708, Note_off_c, 2, 59, 64
4, 35708, Note_off_c, 2, 62, 64
4, 35712, Note_on_c, 2, 59, 63
4, 35712, Note_on_c, 2, 62, 63
4, 35900, Note_off_c, 2, 59, 64
4, 35900, Note_off_c, 2, 62, 64
4, 35904, Note_on_c, 2, 59, 63
4, 35904, Note_on_c, 2, 62, 63
4, 36092, Note_off_c, 2, 59, 64
4, 36092, Note_off_c, 2, 62, 64
4, 36096, Note_on_c, 2, 62, 63
4, 36096, Note_on_c, 2, 60, 63
4, 36096, Note_on_c, 2, 57, 63
4, 36284, Note_off_c, 2, 62, 64
4, 36284, Note_off_c, 2, 60, 64
4, 36284, Note_off_c, 2, 57, 64
4, 36288, Note_on_c, 2, 62, 63
4, 36288, Note_on_c, 2, 60, 63
4, 36288, Note_on_c, 2, 57, 63
4, 36476, Note_off_c, 2, 62, 64
4, 36476, Note_off_c, 2, 60, 64
4, 36476, Note_off_c, 2, 57, 64
4, 36480, Note_on_c, 2, 62, 63
4, 36480, Note_on_c, 2, 60, 63
4, 36480, Note_on_c, 2, 57, 63
4, 36668, Note_off_c, 2, 62, 64
4, 36668, Note_off_c, 2, 60, 64
4, 36668, Note_off_c, 2, 57, 64
4, 36672, Note_on_c, 2, 62, 63
4, 36672, Note_on_c, 2, 60, 63
4, 36672, Note_on_c, 2, 57, 63
4, 36860, Note_off_c, 2, 62, 64
4, 36860, Note_off_c, 2, 60, 64
4, 36860, Note_off_c, 2, 57, 64
4, 36864, Note_on_c, 2, 62, 63
4, 36864, Note_on_c, 2, 60, 63
4, 36864, Note_on_c, 2, 50, 63
4, 37052, Note_off_c, 2, 62, 64
4, 37052, Note_off_c, 2, 60, 64
4, 37052, Note_off_c, 2, 50, 64
4, 37056, Note_on_c, 2, 62, 63
4, 37056, Note_on_c, 2, 60, 63
4, 37056, Note_on_c, 2, 50, 63
4, 37244, Note_off_c, 2, 62, 64
4, 37244, Note_off_c, 2, 60, 64
4, 37244, Note_off_c, 2, 50, 64
4, 37248, Note_on_c, 2, 62, 63
4, 37248, Note_on_c, 2, 60, 63
4, 37248, Note_on_c, 2, 50, 63
4, 37436, Note_off_c, 2, 62, 64
4, 37436, Note_off_c, 2, 60, 64
4, 37436, Note_off_c, 2, 50, 64
4, 37440, Note_on_c, 2, 62, 63
4, 37440, Note_on_c, 2, 60, 63
4, 37440, Note_on_c, 2, 50, 63
4, 37628, Note_off_c, 2, 62, 64
4, 37628, Note_off_c, 2, 60, 64
4, 37628, Note_off_c, 2, 50, 64
4, 37632, Note_on_c, 2, 66, 63
4, 37632, Note_on_c, 2, 59, 63
4, 37632, Note_on_c, 2, 51, 63
4, 37820, Note_off_c, 2, 66, 64
4, 37820, Note_off_c, 2, 59, 64
4, 37820, Note_off_c, 2, 51, 64
4, 37824, Note_on_c, 2, 66, 63
4, 37824, Note_on_c, 2, 59, 63
4, 37824, Note_on_c, 2, 51, 63
4, 38012, Note_off_c, 2, 66, 64
4, 38012, Note_off_c, 2, 59, 64
4, 38012, Note_off_c, 2, 51, 64
4, 38016, Note_on_c, 2, 66, 63
4, 38016, Note_on_c, 2, 59, 63
4, 38016, Note_on_c, 2, 51, 63
4, 38204, Note_off_c, 2, 66, 64
4, 38204, Note_off_c, 2, 59, 64
4, 38204, Note_off_c, 2, 51, 64
4, 38208, Note_on_c, 2, 66, 63
4, 38208, Note_on_c, 2, 59, 63
4, 38208, Note_on_c, 2, 51, 63
4, 38396, Note_off_c, 2, 66, 64
4, 38396, Note_off_c, 2, 59, 64
4, 38396, Note_off_c, 2, 51, 64
4, 38400, Note_on_c, 2, 67, 63
4, 38400, Note_on_c, 2, 59, 63
4, 38400, Note_on_c, 2, 52, 63
4, 38588, Note_off_c, 2, 67, 64
4, 38588, Note_off_c, 2, 59, 64
4, 38588, Note_off_c, 2, 52, 64
4, 38592, Note_on_c, 2, 67, 63
4, 38592, Note_on_c, 2, 59, 63
4, 38592, Note_on_c, 2, 52, 63
4, 38780, Note_off_c, 2, 67, 64
4, 38780, Note_off_c, 2, 59, 64
4, 38780, Note_off_c, 2, 52, 64
4, 38784, Note_on_c, 2, 67, 63
4, 38784, Note_on_c, 2, 59, 63
4, 38784, Note_on_c, 2, 52, 63
4, 38972, Note_off_c, 2, 67, 64
4, 38972, Note_off_c, 2, 59, 64
4, 38972, Note_off_c, 2, 52, 64
4, 38976, Note_on_c, 2, 67, 63
4, 38976, Note_on_c, 2, 59, 63
4, 38976, Note_on_c, 2, 52, 63
4, 39164, Note_off_c, 2, 67, 64
4, 39164, Note_off_c, 2, 59, 64
4, 39164, Note_off_c, 2, 52, 64
4, 39168, Note_on_c, 2, 55, 63
4, 39168, Note_on_c, 2, 49, 63
4, 39168, Note_on_c, 2, 45, 63
4, 39356, Note_off_c, 2, 55, 64
4, 39356, Note_off_c, 2, 49, 64
4, 39356, Note_off_c, 2, 45, 64
4, 39360, Note_on_c, 2, 55, 63
4, 39360, Note_on_c, 2, 45, 63
4, 39360, Note_on_c, 2, 49, 63
4, 39548, Note_off_c, 2, 55, 64
4, 39548, Note_off_c, 2, 45, 64
4, 39548, Note_off_c, 2, 49, 64
4, 39552, Note_on_c, 2, 55, 63
4, 39552, Note_on_c, 2, 49, 63
4, 39552, Note_on_c, 2, 45, 63
4, 39740, Note_off_c, 2, 55, 64
4, 39740, Note_off_c, 2, 49, 64
4, 39740, Note_off_c, 2, 45, 64
4, 39744, Note_on_c, 2, 55, 63
4, 39744, Note_on_c, 2, 49, 63
4, 39744, Note_on_c, 2, 45, 63
4, 39932, Note_off_c, 2, 55, 64
4, 39932, Note_off_c, 2, 49, 64
4, 39932, Note_off_c, 2, 45, 64
4, 39936, Note_on_c, 2, 53, 63
4, 39936, Note_on_c, 2, 50, 63
4, 39936, Note_on_c, 2, 45, 63
4, 40124, Note_off_c, 2, 53, 64
4, 40124, Note_off_c, 2, 50, 64
4, 40124, Note_off_c, 2, 45, 64
4, 40128, Note_on_c, 2, 53, 63
4, 40128, Note_on_c, 2, 50, 63
4, 40128, Note_on_c, 2, 45, 63
4, 40316, Note_off_c, 2, 53, 64
4, 40316, Note_off_c, 2, 50, 64
4, 40316, Note_off_c, 2, 45, 64
4, 40320, Note_on_c, 2, 50, 63
4, 40320, Note_on_c, 2, 47, 63
4, 40320, Note_on_c, 2, 45, 63
4, 40320, Note_on_c, 2, 56, 63
4, 40508, Note_off_c, 2, 50, 64
4, 40508, Note_off_c, 2, 47, 64
4, 40508, Note_off_c, 2, 45, 64
4, 40508, Note_off_c, 2, 56, 64
4, 40512, Note_on_c, 2, 56, 63
4, 40512, Note_on_c, 2, 50, 63
4, 40512, Note_on_c, 2, 47, 63
4, 40512, Note_on_c, 2, 45, 63
4, 40700, Note_off_c, 2, 56, 64
4, 40700, Note_off_c, 2, 50, 64
4, 40700, Note_off_c, 2, 47, 64
4, 40700, Note_off_c, 2, 45, 64
4, 40704, Note_on_c, 2, 57, 63
4, 40704, Note_on_c, 2, 52, 63
4, 40704, Note_on_c, 2, 49, 63
4, 40704, Note_on_c, 2, 45, 63
4, 40892, Note_off_c, 2, 57, 64
4, 40892, Note_off_c, 2, 52, 64
4, 40892, Note_off_c, 2, 49, 64
4, 40892, Note_off_c, 2, 45, 64
4, 41536, Note_on_c, 2, 44, 63
4, 41596, Note_off_c, 2, 44, 64
4, 41600, Note_on_c, 2, 45, 63
4, 41660, Note_off_c, 2, 45, 64
4, 41728, Note_on_c, 2, 44, 63
4, 41788, Note_off_c, 2, 44, 64
4, 41792, Note_on_c, 2, 45, 63
4, 41852, Note_off_c, 2, 45, 64
4, 41920, Note_on_c, 2, 44, 64
4, 41980, Note_off_c, 2, 44, 64
4, 41984, Note_on_c, 2, 45, 65
4, 42044, Note_off_c, 2, 45, 64
4, 42112, Note_on_c, 2, 44, 67
4, 42172, Note_off_c, 2, 44, 64
4, 42176, Note_on_c, 2, 45, 69
4, 42236, Note_off_c, 2, 45, 64
4, 42304, Note_on_c, 2, 44, 70
4, 42364, Note_off_c, 2, 44, 64
4, 42368, Note_on_c, 2, 45, 71
4, 42428, Note_off_c, 2, 45, 64
4, 42496, Note_on_c, 2, 44, 72
4, 42556, Note_off_c, 2, 44, 64
4, 42560, Note_on_c, 2, 45, 73
4, 42620, Note_off_c, 2, 45, 64
4, 42688, Note_on_c, 2, 44, 74
4, 42748, Note_off_c, 2, 44, 64
4, 42752, Note_on_c, 2, 45, 75
4, 42812, Note_off_c, 2, 45, 64
4, 42880, Note_on_c, 2, 44, 77
4, 42940, Note_off_c, 2, 44, 64
4, 42944, Note_on_c, 2, 45, 79
4, 43004, Note_off_c, 2, 45, 64
4, 43008, Note_on_c, 2, 38, 80
4, 43196, Note_off_c, 2, 38, 64
4, 43776, Note_on_c, 2, 38, 63
4, 43964, Note_off_c, 2, 38, 64
4, 43968, Note_on_c, 2, 50, 63
4, 44156, Note_off_c, 2, 50, 64
4, 44160, Note_on_c, 2, 31, 63
4, 44348, Note_off_c, 2, 31, 64
4, 44352, Note_on_c, 2, 43, 63
4, 44540, Note_off_c, 2, 43, 64
4, 44544, Note_on_c, 2, 33, 63
4, 44732, Note_off_c, 2, 33, 64
4, 44736, Note_on_c, 2, 45, 63
4, 44924, Note_off_c, 2, 45, 64
4, 44928, Note_on_c, 2, 33, 63
4, 45116, Note_off_c, 2, 33, 64
4, 45120, Note_on_c, 2, 45, 63
4, 45308, Note_off_c, 2, 45, 64
4, 45312, Note_on_c, 2, 33, 63
4, 45500, Note_off_c, 2, 33, 64
4, 45504, Note_on_c, 2, 45, 63
4, 45692, Note_off_c, 2, 45, 64
4, 45696, Note_on_c, 2, 38, 63
4, 45884, Note_off_c, 2, 38, 64
4, 45888, Note_on_c, 2, 50, 63
4, 46076, Note_off_c, 2, 50, 64
4, 46080, Note_on_c, 2, 43, 63
4, 46268, Note_off_c, 2, 43, 64
4, 46272, Note_on_c, 2, 55, 63
4, 46460, Note_off_c, 2, 55, 64
4, 46464, Note_on_c, 2, 43, 63
4, 46652, Note_off_c, 2, 43, 64
4, 46656, Note_on_c, 2, 55, 63
4, 46844, Note_off_c, 2, 55, 64
4, 46848, Note_on_c, 2, 45, 63
4, 47036, Note_off_c, 2, 45, 64
4, 47040, Note_on_c, 2, 57, 63
4, 47228, Note_off_c, 2, 57, 64
4, 47232, Note_on_c, 2, 45, 63
4, 47420, Note_off_c, 2, 45, 64
4, 47424, Note_on_c, 2, 43, 63
4, 47612, Note_off_c, 2, 43, 64
4, 47616, Note_on_c, 2, 42, 63
4, 47804, Note_off_c, 2, 42, 64
4, 47808, Note_on_c, 2, 43, 63
4, 47996, Note_off_c, 2, 43, 64
4, 48000, Note_on_c, 2, 45, 63
4, 48188, Note_off_c, 2, 45, 64
4, 48192, Note_on_c, 2, 45, 63
4, 48380, Note_off_c, 2, 45, 64
4, 48384, Note_on_c, 2, 50, 83
4, 48764, Note_off_c, 2, 50, 64
4, 48768, Note_on_c, 2, 50, 83
4, 49148, Note_off_c, 2, 50, 64
4, 49152, Note_on_c, 2, 50, 63
4, 49152, Note_on_c, 2, 43, 63
4, 49340, Note_off_c, 2, 50, 64
4, 49340, Note_off_c, 2, 43, 64
4, 49344, Note_on_c, 2, 55, 63
4, 49532, Note_off_c, 2, 55, 64
4, 49536, Note_on_c, 2, 43, 63
4, 49724, Note_off_c, 2, 43, 64
4, 49728, Note_on_c, 2, 55, 63
4, 49916, Note_off_c, 2, 55, 64
4, 49920, Note_on_c, 2, 42, 63
4, 50108, Note_off_c, 2, 42, 64
4, 50112, Note_on_c, 2, 54, 63
4, 50300, Note_off_c, 2, 54, 64
4, 50304, Note_on_c, 2, 42, 63
4, 50492, Note_off_c, 2, 42, 64
4, 50496, Note_on_c, 2, 54, 63
4, 50684, Note_off_c, 2, 54, 64
4, 50688, Note_on_c, 2, 40, 63
4, 50876, Note_off_c, 2, 40, 64
4, 50880, Note_on_c, 2, 52, 63
4, 51068, Note_off_c, 2, 52, 64
4, 51072, Note_on_c, 2, 33, 63
4, 51260, Note_off_c, 2, 33, 64
4, 51264, Note_on_c, 2, 45, 63
4, 51452, Note_off_c, 2, 45, 64
4, 51456, Note_on_c, 2, 33, 63
4, 51644, Note_off_c, 2, 33, 64
4, 51648, Note_on_c, 2, 45, 63
4, 51836, Note_off_c, 2, 45, 64
4, 51840, Note_on_c, 2, 38, 63
4, 52028, Note_off_c, 2, 38, 64
4, 52032, Note_on_c, 2, 50, 63
4, 52220, Note_off_c, 2, 50, 64
4, 52992, Note_on_c, 2, 40, 63
4, 53180, Note_off_c, 2, 40, 64
4, 53376, Note_on_c, 2, 45, 63
4, 53564, Note_off_c, 2, 45, 64
4, 53760, Note_on_c, 2, 50, 63
4, 53860, Note_off_c, 2, 50, 64
4, 53952, Note_on_c, 2, 47, 63
4, 54052, Note_off_c, 2, 47, 64
4, 54144, Note_on_c, 2, 43, 63
4, 54244, Note_off_c, 2, 43, 64
4, 54336, Note_on_c, 2, 40, 63
4, 54436, Note_off_c, 2, 40, 64
4, 54528, Note_on_c, 2, 45, 63
4, 54716, Note_off_c, 2, 45, 64
4, 54720, Note_on_c, 2, 57, 63
4, 54908, Note_off_c, 2, 57, 64
4, 54912, Note_on_c, 2, 45, 63
4, 54972, Note_off_c, 2, 45, 64
4, 54976, Note_on_c, 2, 57, 63
4, 55008, Note_off_c, 2, 57, 64
4, 55040, Note_on_c, 2, 57, 63
4, 55072, Note_off_c, 2, 57, 64
4, 55104, Note_on_c, 2, 57, 63
4, 55136, Note_off_c, 2, 57, 64
4, 55168, Note_on_c, 2, 57, 63
4, 55200, Note_off_c, 2, 57, 64
4, 55232, Note_on_c, 2, 57, 63
4, 55264, Note_off_c, 2, 57, 64
4, 55296, Note_on_c, 2, 57, 63
4, 55296, Note_on_c, 2, 50, 63
4, 55328, Note_off_c, 2, 57, 64
4, 55360, Note_on_c, 2, 57, 63
4, 55392, Note_off_c, 2, 57, 64
4, 55396, Note_off_c, 2, 50, 64
4, 55424, Note_on_c, 2, 57, 63
4, 55456, Note_off_c, 2, 57, 64
4, 55488, Note_on_c, 2, 57, 63
4, 55488, Note_on_c, 2, 52, 63
4, 55520, Note_off_c, 2, 57, 64
4, 55552, Note_on_c, 2, 57, 63
4, 55584, Note_off_c, 2, 57, 64
4, 55588, Note_off_c, 2, 52, 64
4, 55616, Note_on_c, 2, 57, 63
4, 55648, Note_off_c, 2, 57, 64
4, 55680, Note_on_c, 2, 57, 63
4, 55680, Note_on_c, 2, 49, 63
4, 55712, Note_off_c, 2, 57, 64
4, 55744, Note_on_c, 2, 57, 63
4, 55776, Note_off_c, 2, 57, 64
4, 55780, Note_off_c, 2, 49, 64
4, 55808, Note_on_c, 2, 57, 63
4, 55840, Note_off_c, 2, 57, 64
4, 55872, Note_on_c, 2, 57, 63
4, 55904, Note_off_c, 2, 57, 64
4, 55936, Note_on_c, 2, 57, 63
4, 55968, Note_off_c, 2, 57, 64
4, 56000, Note_on_c, 2, 57, 63
4, 56032, Note_off_c, 2, 57, 64
4, 56064, Note_on_c, 2, 57, 63
4, 56064, Note_on_c, 2, 50, 63
4, 56096, Note_off_c, 2, 57, 64
4, 56128, Note_on_c, 2, 57, 63
4, 56160, Note_off_c, 2, 57, 64
4, 56164, Note_off_c, 2, 50, 64
4, 56192, Note_on_c, 2, 57, 63
4, 56224, Note_off_c, 2, 57, 64
4, 56256, Note_on_c, 2, 57, 63
4, 56256, Note_on_c, 2, 52, 63
4, 56288, Note_off_c, 2, 57, 64
4, 56320, Note_on_c, 2, 57, 63
4, 56352, Note_off_c, 2, 57, 64
4, 56356, Note_off_c, 2, 52, 64
4, 56384, Note_on_c, 2, 57, 63
4, 56416, Note_off_c, 2, 57, 64
4, 56448, Note_on_c, 2, 57, 63
4, 56448, Note_on_c, 2, 49, 63
4, 56480, Note_off_c, 2, 57, 64
4, 56512, Note_on_c, 2, 57, 63
4, 56544, Note_off_c, 2, 57, 64
4, 56548, Note_off_c, 2, 49, 64
4, 56576, Note_on_c, 2, 57, 63
4, 56608, Note_off_c, 2, 57, 64
4, 56640, Note_on_c, 2, 57, 63
4, 56672, Note_off_c, 2, 57, 64
4, 56704, Note_on_c, 2, 57, 63
4, 56736, Note_off_c, 2, 57, 64
4, 56768, Note_on_c, 2, 57, 63
4, 56800, Note_off_c, 2, 57, 64
4, 56832, Note_on_c, 2, 57, 63
4, 57020, Note_off_c, 2, 57, 64
4, 57024, Note_on_c, 2, 55, 63
4, 57024, Note_on_c, 2, 67, 63
4, 57212, Note_off_c, 2, 55, 64
4, 57212, Note_off_c, 2, 67, 64
4, 57216, Note_on_c, 2, 57, 63
4, 57216, Note_on_c, 2, 66, 63
4, 57404, Note_off_c, 2, 57, 64
4, 57404, Note_off_c, 2, 66, 64
4, 57408, Note_on_c, 2, 57, 63
4, 57408, Note_on_c, 2, 67, 63
4, 57596, Note_off_c, 2, 57, 64
4, 57596, Note_off_c, 2, 67, 64
4, 57600, Note_on_c, 2, 62, 63
4, 57788, Note_off_c, 2, 62, 64
4, 57792, Note_on_c, 2, 57, 63
4, 57980, Note_off_c, 2, 57, 64
4, 57984, Note_on_c, 2, 50, 63
4, 58044, Note_off_c, 2, 50, 64
4, 58048, Note_on_c, 2, 57, 63
4, 58080, Note_off_c, 2, 57, 64
4, 58112, Note_on_c, 2, 57, 63
4, 58144, Note_off_c, 2, 57, 64
4, 58176, Note_on_c, 2, 57, 63
4, 58208, Note_off_c, 2, 57, 64
4, 58240, Note_on_c, 2, 57, 63
4, 58272, Note_off_c, 2, 57, 64
4, 58304, Note_on_c, 2, 57, 63
4, 58336, Note_off_c, 2, 57, 64
4, 58368, Note_on_c, 2, 57, 63
4, 58368, Note_on_c, 2, 50, 63
4, 58400, Note_off_c, 2, 57, 64
4, 58432, Note_on_c, 2, 57, 63
4, 58464, Note_off_c, 2, 57, 64
4, 58468, Note_off_c, 2, 50, 64
4, 58496, Note_on_c, 2, 57, 63
4, 58528, Note_off_c, 2, 57, 64
4, 58560, Note_on_c, 2, 57, 63
4, 58560, Note_on_c, 2, 52, 63
4, 58592, Note_off_c, 2, 57, 64
4, 58624, Note_on_c, 2, 57, 63
4, 58656, Note_off_c, 2, 57, 64
4, 58660, Note_off_c, 2, 52, 64
4, 58688, Note_on_c, 2, 57, 63
4, 58720, Note_off_c, 2, 57, 64
4, 58752, Note_on_c, 2, 57, 63
4, 58752, Note_on_c, 2, 49, 63
4, 58784, Note_off_c, 2, 57, 64
4, 58816, Note_on_c, 2, 57, 63
4, 58848, Note_off_c, 2, 57, 64
4, 58852, Note_off_c, 2, 49, 64
4, 58880, Note_on_c, 2, 57, 63
4, 58912, Note_off_c, 2, 57, 64
4, 58944, Note_on_c, 2, 57, 63
4, 58976, Note_off_c, 2, 57, 64
4, 59008, Note_on_c, 2, 57, 63
4, 59040, Note_off_c, 2, 57, 64
4, 59072, Note_on_c, 2, 57, 63
4, 59104, Note_off_c, 2, 57, 64
4, 59136, Note_on_c, 2, 57, 63
4, 59136, Note_on_c, 2, 50, 63
4, 59168, Note_off_c, 2, 57, 64
4, 59200, Note_on_c, 2, 57, 63
4, 59232, Note_off_c, 2, 57, 64
4, 59236, Note_off_c, 2, 50, 64
4, 59264, Note_on_c, 2, 57, 63
4, 59296, Note_off_c, 2, 57, 64
4, 59328, Note_on_c, 2, 57, 63
4, 59328, Note_on_c, 2, 52, 63
4, 59360, Note_off_c, 2, 57, 64
4, 59392, Note_on_c, 2, 57, 63
4, 59424, Note_off_c, 2, 57, 64
4, 59428, Note_off_c, 2, 52, 64
4, 59456, Note_on_c, 2, 57, 63
4, 59488, Note_off_c, 2, 57, 64
4, 59520, Note_on_c, 2, 57, 63
4, 59520, Note_on_c, 2, 49, 63
4, 59552, Note_off_c, 2, 57, 64
4, 59584, Note_on_c, 2, 57, 63
4, 59616, Note_off_c, 2, 57, 64
4, 59620, Note_off_c, 2, 49, 64
4, 59648, Note_on_c, 2, 57, 63
4, 59680, Note_off_c, 2, 57, 64
4, 59712, Note_on_c, 2, 57, 63
4, 59744, Note_off_c, 2, 57, 64
4, 59776, Note_on_c, 2, 57, 63
4, 59808, Note_off_c, 2, 57, 64
4, 59840, Note_on_c, 2, 57, 63
4, 59872, Note_off_c, 2, 57, 64
4, 59904, Note_on_c, 2, 57, 63
4, 59904, Note_on_c, 2, 50, 63
4, 60092, Note_off_c, 2, 57, 64
4, 60092, Note_off_c, 2, 50, 64
4, 60096, Note_on_c, 2, 59, 63
4, 60096, Note_on_c, 2, 55, 63
4, 60284, Note_off_c, 2, 59, 64
4, 60284, Note_off_c, 2, 55, 64
4, 60288, Note_on_c, 2, 57, 63
4, 60476, Note_off_c, 2, 57, 64
4, 60480, Note_on_c, 2, 45, 63
4, 60668, Note_off_c, 2, 45, 64
4, 60672, Note_on_c, 2, 47, 63
4, 60860, Note_off_c, 2, 47, 64
4, 61056, Note_on_c, 2, 49, 63
4, 61244, Note_off_c, 2, 49, 64
4, 61440, Note_on_c, 2, 50, 63
4, 61628, Note_off_c, 2, 50, 64
4, 61632, Note_on_c, 2, 62, 63
4, 61820, Note_off_c, 2, 62, 64
4, 61824, Note_on_c, 2, 43, 63
4, 62012, Note_off_c, 2, 43, 64
4, 62016, Note_on_c, 2, 55, 63
4, 62204, Note_off_c, 2, 55, 64
4, 62208, Note_on_c, 2, 45, 63
4, 62396, Note_off_c, 2, 45, 64
4, 62400, Note_on_c, 2, 57, 63
4, 62588, Note_off_c, 2, 57, 64
4, 62592, Note_on_c, 2, 45, 63
4, 62692, Note_off_c, 2, 45, 64
4, 62784, Note_on_c, 2, 57, 63
4, 62884, Note_off_c, 2, 57, 64
4, 62976, Note_on_c, 2, 50, 63
4, 63036, Note_off_c, 2, 50, 64
4, 63040, Note_on_c, 2, 62, 63
4, 63072, Note_off_c, 2, 62, 64
4, 63104, Note_on_c, 2, 62, 63
4, 63136, Note_off_c, 2, 62, 64
4, 63168, Note_on_c, 2, 62, 63
4, 63228, Note_off_c, 2, 62, 64
4, 63232, Note_on_c, 2, 66, 63
4, 63292, Note_off_c, 2, 66, 64
4, 63296, Note_on_c, 2, 64, 63
4, 63356, Note_off_c, 2, 64, 64
4, 63360, Note_on_c, 2, 67, 63
4, 63420, Note_off_c, 2, 67, 64
4, 63424, Note_on_c, 2, 64, 63
4, 63484, Note_off_c, 2, 64, 64
4, 63488, Note_on_c, 2, 66, 63
4, 63548, Note_off_c, 2, 66, 64
4, 63552, Note_on_c, 2, 62, 63
4, 63612, Note_off_c, 2, 62, 64
4, 63616, Note_on_c, 2, 66, 63
4, 63676, Note_off_c, 2, 66, 64
4, 63680, Note_on_c, 2, 64, 63
4, 63740, Note_off_c, 2, 64, 64
4, 63744, Note_on_c, 2, 67, 63
4, 63804, Note_off_c, 2, 67, 64
4, 63808, Note_on_c, 2, 64, 63
4, 63868, Note_off_c, 2, 64, 64
4, 63872, Note_on_c, 2, 66, 63
4, 63932, Note_off_c, 2, 66, 64
4, 64512, Note_on_c, 2, 45, 63
4, 64700, Note_off_c, 2, 45, 64
4, 64704, Note_on_c, 2, 57, 63
4, 64892, Note_off_c, 2, 57, 64
4, 64896, Note_on_c, 2, 45, 63
4, 65084, Note_off_c, 2, 45, 64
4, 65088, Note_on_c, 2, 57, 63
4, 65276, Note_off_c, 2, 57, 64
4, 65280, Note_on_c, 2, 45, 64
4, 65468, Note_off_c, 2, 45, 64
4, 65472, Note_on_c, 2, 57, 70
4, 65660, Note_off_c, 2, 57, 64
4, 65664, Note_on_c, 2, 45, 74
4, 65852, Note_off_c, 2, 45, 64
4, 65856, Note_on_c, 2, 57, 80
4, 66044, Note_off_c, 2, 57, 64
4, 66048, Note_on_c, 2, 50, 83
4, 66108, Note_off_c, 2, 50, 64
4, 66112, Note_on_c, 2, 57, 83
4, 66112, Note_on_c, 2, 54, 83
4, 66172, Note_off_c, 2, 57, 64
4, 66172, Note_off_c, 2, 54, 64
4, 66176, Note_on_c, 2, 57, 83
4, 66176, Note_on_c, 2, 54, 83
4, 66236, Note_off_c, 2, 57, 64
4, 66236, Note_off_c, 2, 54, 64
4, 66240, Note_on_c, 2, 50, 83
4, 66300, Note_off_c, 2, 50, 64
4, 66304, Note_on_c, 2, 57, 83
4, 66304, Note_on_c, 2, 54, 83
4, 66364, Note_off_c, 2, 57, 64
4, 66364, Note_off_c, 2, 54, 64
4, 66368, Note_on_c, 2, 57, 83
4, 66368, Note_on_c, 2, 54, 83
4, 66428, Note_off_c, 2, 57, 64
4, 66428, Note_off_c, 2, 54, 64
4, 66432, Note_on_c, 2, 54, 83
4, 66492, Note_off_c, 2, 54, 64
4, 66496, Note_on_c, 2, 57, 83
4, 66496, Note_on_c, 2, 62, 83
4, 66556, Note_off_c, 2, 57, 64
4, 66556, Note_off_c, 2, 62, 64
4, 66560, Note_on_c, 2, 57, 83
4, 66560, Note_on_c, 2, 62, 83
4, 66620, Note_off_c, 2, 57, 64
4, 66620, Note_off_c, 2, 62, 64
4, 66624, Note_on_c, 2, 54, 83
4, 66684, Note_off_c, 2, 54, 64
4, 66688, Note_on_c, 2, 57, 83
4, 66688, Note_on_c, 2, 62, 83
4, 66748, Note_off_c, 2, 57, 64
4, 66748, Note_off_c, 2, 62, 64
4, 66752, Note_on_c, 2, 57, 83
4, 66752, Note_on_c, 2, 62, 83
4, 66812, Note_off_c, 2, 57, 64
4, 66812, Note_off_c, 2, 62, 64
4, 66816, Note_on_c, 2, 55, 83
4, 66876, Note_off_c, 2, 55, 64
4, 66880, Note_on_c, 2, 59, 83
4, 66880, Note_on_c, 2, 62, 83
4, 66940, Note_off_c, 2, 59, 64
4, 66940, Note_off_c, 2, 62, 64
4, 66944, Note_on_c, 2, 59, 83
4, 66944, Note_on_c, 2, 62, 83
4, 67004, Note_off_c, 2, 59, 64
4, 67004, Note_off_c, 2, 62, 64
4, 67008, Note_on_c, 2, 55, 83
4, 67068, Note_off_c, 2, 55, 64
4, 67072, Note_on_c, 2, 59, 83
4, 67072, Note_on_c, 2, 62, 83
4, 67132, Note_off_c, 2, 59, 64
4, 67132, Note_off_c, 2, 62, 64
4, 67136, Note_on_c, 2, 59, 83
4, 67136, Note_on_c, 2, 62, 83
4, 67196, Note_off_c, 2, 59, 64
4, 67196, Note_off_c, 2, 62, 64
4, 67200, Note_on_c, 2, 56, 83
4, 67260, Note_off_c, 2, 56, 64
4, 67264, Note_on_c, 2, 59, 83
4, 67264, Note_on_c, 2, 62, 83
4, 67264, Note_on_c, 2, 64, 83
4, 67324, Note_off_c, 2, 59, 64
4, 67324, Note_off_c, 2, 62, 64
4, 67324, Note_off_c, 2, 64, 64
4, 67328, Note_on_c, 2, 59, 83
4, 67328, Note_on_c, 2, 62, 83
4, 67328, Note_on_c, 2, 64, 83
4, 67388, Note_off_c, 2, 59, 64
4, 67388, Note_off_c, 2, 62, 64
4, 67388, Note_off_c, 2, 64, 64
4, 67392, Note_on_c, 2, 56, 83
4, 67452, Note_off_c, 2, 56, 64
4, 67456, Note_on_c, 2, 59, 83
4, 67456, Note_on_c, 2, 62, 83
4, 67456, Note_on_c, 2, 64, 83
4, 67516, Note_off_c, 2, 59, 64
4, 67516, Note_off_c, 2, 62, 64
4, 67516, Note_off_c, 2, 64, 64
4, 67520, Note_on_c, 2, 59, 83
4, 67520, Note_on_c, 2, 62, 83
4, 67520, Note_on_c, 2, 64, 83
4, 67580, Note_off_c, 2, 59, 64
4, 67580, Note_off_c, 2, 62, 64
4, 67580, Note_off_c, 2, 64, 64
4, 67584, Note_on_c, 2, 66, 83
4, 67584, Note_on_c, 2, 62, 83
4, 67584, Note_on_c, 2, 57, 83
4, 67964, Note_off_c, 2, 66, 64
4, 67964, Note_off_c, 2, 62, 64
4, 67964, Note_off_c, 2, 57, 64
4, 84480, Note_on_c, 2, 50, 83
4, 84668, Note_off_c, 2, 50, 64
4, 84736, Note_on_c, 2, 50, 83
4, 84796, Note_off_c, 2, 50, 64
4, 84800, Note_on_c, 2, 52, 83
4, 84860, Note_off_c, 2, 52, 64
4, 84864, Note_on_c, 2, 54, 83
4, 84896, Note_off_c, 2, 54, 64
4, 84928, Note_on_c, 2, 54, 83
4, 84988, Note_off_c, 2, 54, 64
4, 84992, Note_on_c, 2, 55, 83
4, 85052, Note_off_c, 2, 55, 64
4, 85056, Note_on_c, 2, 57, 83
4, 85088, Note_off_c, 2, 57, 64
4, 85120, Note_on_c, 2, 57, 83
4, 85152, Note_off_c, 2, 57, 64
4, 85184, Note_on_c, 2, 57, 83
4, 85216, Note_off_c, 2, 57, 64
4, 85248, Note_on_c, 2, 55, 83
4, 85348, Note_off_c, 2, 55, 64
4, 85440, Note_on_c, 2, 55, 63
4, 85540, Note_off_c, 2, 55, 64
4, 85632, Note_on_c, 2, 57, 63
4, 85732, Note_off_c, 2, 57, 64
4, 85824, Note_on_c, 2, 45, 63
4, 85924, Note_off_c, 2, 45, 64
4, 86016, Note_on_c, 2, 50, 83
4, 86204, Note_off_c, 2, 50, 64
4, 86272, Note_on_c, 2, 50, 83
4, 86332, Note_off_c, 2, 50, 64
4, 86336, Note_on_c, 2, 52, 83
4, 86396, Note_off_c, 2, 52, 64
4, 86400, Note_on_c, 2, 54, 83
4, 86432, Note_off_c, 2, 54, 64
4, 86464, Note_on_c, 2, 54, 83
4, 86524, Note_off_c, 2, 54, 64
4, 86528, Note_on_c, 2, 55, 83
4, 86588, Note_off_c, 2, 55, 64
4, 86592, Note_on_c, 2, 57, 83
4, 86624, Note_off_c, 2, 57, 64
4, 86656, Note_on_c, 2, 57, 83
4, 86688, Note_off_c, 2, 57, 64
4, 86720, Note_on_c, 2, 57, 83
4, 86752, Note_off_c, 2, 57, 64
4, 86784, Note_on_c, 2, 55, 83
4, 86884, Note_off_c, 2, 55, 64
4, 86976, Note_on_c, 2, 55, 63
4, 87076, Note_off_c, 2, 55, 64
4, 87168, Note_on_c, 2, 57, 63
4, 87268, Note_off_c, 2, 57, 64
4, 87360, Note_on_c, 2, 45, 63
4, 87360, Note_on_c, 2, 57, 63
4, 87460, Note_off_c, 2, 45, 64
4, 87460, Note_off_c, 2, 57, 64
4, 87552, Note_on_c, 2, 57, 63
4, 87552, Note_on_c, 2, 50, 63
4, 87740, Note_off_c, 2, 57, 64
4, 87740, Note_off_c, 2, 50, 64
4, 88320, Note_on_c, 2, 38, 63
4, 88508, Note_off_c, 2, 38, 64
4, 88512, Note_on_c, 2, 50, 63
4, 88700, Note_off_c, 2, 50, 64
4, 88704, Note_on_c, 2, 33, 63
4, 88892, Note_off_c, 2, 33, 64
4, 88896, Note_on_c, 2, 43, 63
4, 89084, Note_off_c, 2, 43, 64
4, 89088, Note_on_c, 2, 33, 63
4, 89276, Note_off_c, 2, 33, 64
4, 89280, Note_on_c, 2, 45, 63
4, 89468, Note_off_c, 2, 45, 64
4, 89472, Note_on_c, 2, 33, 63
4, 89660, Note_off_c, 2, 33, 64
4, 89664, Note_on_c, 2, 45, 63
4, 89852, Note_off_c, 2, 45, 64
4, 89856, Note_on_c, 2, 50, 63
4, 89856, Note_on_c, 2, 38, 63
4, 89956, Note_off_c, 2, 50, 64
4, 89956, Note_off_c, 2, 38, 64
4, 90048, Note_on_c, 2, 50, 63
4, 90048, Note_on_c, 2, 38, 63
4, 90148, Note_off_c, 2, 50, 64
4, 90148, Note_off_c, 2, 38, 64
4, 90240, Note_on_c, 2, 38, 63
4, 90240, Note_on_c, 2, 50, 63
4, 90340, Note_off_c, 2, 38, 64
4, 90340, Note_off_c, 2, 50, 64
4, 90340, End_track
5, 0, Start_track
5, 0, Title_t, "Midi by:"
5, 0, Key_signature, 0, "major"
5, 0, End_track
6, 0, Start_track
6, 0, Title_t, "B.Fisher"
6, 0, Key_signature, 0, "major"
6, 0, End_track
7, 0, Start_track
7, 0, Key_signature, 0, "major"
7, 0, End_track
8, 0, Start_track
8, 0, Key_signature, 0, "major"
8, 0, End_track
9, 0, Start_track
9, 0, Key_signature, 0, "major"
9, 0, End_track
10, 0, Start_track
10, 0, Key_signature, 0, "major"
10, 0, End_track
11, 0, Start_track
11, 0, Key_signature, 0, "major"
11, 0, End_track
12, 0, Start_track
12, 0, Key_signature, 0, "major"
12, 0, End_track
13, 0, Start_track
13, 0, Key_signature, 0, "major"
13, 0, End_track
14, 0, Start_track
14, 0, Key_signature, 0, "major"
14, 0, End_track
15, 0, Start_track
15, 0, Key_signature, 0, "major"
15, 0, End_track
16, 0, Start_track
16, 0, Key_signature, 0, "major"
16, 0, End_track
17, 0, Start_track
17, 0, Key_signature, 0, "major"
17, 0, End_track
0, 0, End_of_file
