0, 0, Header, 1, 17, 384
1, 0, Start_track
1, 0, Time_signature, 2, 2, 96, 8
1, 0, Sequencer_specific, 3, 0, 0, 65
1, 0, Tempo, 500000
1, 0, End_track
2, 0, Start_track
2, 0, Title_t, "Mozart - Piano"
2, 0, Control_c, 0, 0, 0
2, 0, Program_c, 0, 0
2, 0, Control_c, 0, 7, 85
2, 0, Control_c, 0, 10, 75
2, 0, Control_c, 0, 91, 49
2, 0, Control_c, 0, 93, 46
2, 0, Key_signature, 0, "major"
2, 0, Control_c, 0, 121, 0
2, 4, Control_c, 0, 10, 73
2, 8, Control_c, 0, 91, 63
2, 8, Control_c, 0, 93, 40
2, 1152, Note_on_c, 0, 71, 59
2, 1244, Note_off_c, 0, 71, 0
2, 1248, Note_on_c, 0, 69, 59
2, 1340, Note_off_c, 0, 69, 0
2, 1344, Note_on_c, 0, 68, 59
2, 1436, Note_off_c, 0, 68, 0
2, 1440, Note_on_c, 0, 69, 59
2, 1532, Note_off_c, 0, 69, 0
2, 1536, Note_on_c, 0, 72, 59
2, 1724, Note_off_c, 0, 72, 0
2, 1920, Note_on_c, 0, 74, 59
2, 2012, Note_off_c, 0, 74, 0
2, 2016, Note_on_c, 0, 72, 59
2, 2108, Note_off_c, 0, 72, 0
2, 2112, Note_on_c, 0, 71, 59
2, 2204, Note_off_c, 0, 71, 0
2, 2208, Note_on_c, 0, 72, 59
2, 2300, Note_off_c, 0, 72, 0
2, 2304, Note_on_c, 0, 76, 59
2, 2492, Note_off_c, 0, 76, 0
2, 2688, Note_on_c, 0, 77, 59
2, 2780, Note_off_c, 0, 77, 0
2, 2784, Note_on_c, 0, 76, 59
2, 2876, Note_off_c, 0, 76, 0
2, 2880, Note_on_c, 0, 75, 59
2, 2972, Note_off_c, 0, 75, 0
2, 2976, Note_on_c, 0, 76, 59
2, 3068, Note_off_c, 0, 76, 0
2, 3072, Note_on_c, 0, 83, 59
2, 3164, Note_off_c, 0, 83, 0
2, 3168, Note_on_c, 0, 81, 59
2, 3260, Note_off_c, 0, 81, 0
2, 3264, Note_on_c, 0, 80, 59
2, 3356, Note_off_c, 0, 80, 0
2, 3360, Note_on_c, 0, 81, 59
2, 3452, Note_off_c, 0, 81, 0
2, 3456, Note_on_c, 0, 83, 59
2, 3548, Note_off_c, 0, 83, 0
2, 3552, Note_on_c, 0, 81, 59
2, 3644, Note_off_c, 0, 81, 0
2, 3648, Note_on_c, 0, 80, 59
2, 3740, Note_off_c, 0, 80, 0
2, 3744, Note_on_c, 0, 81, 59
2, 3836, Note_off_c, 0, 81, 0
2, 3840, Note_on_c, 0, 84, 59
2, 4220, Note_off_c, 0, 84, 0
2, 4224, Note_on_c, 0, 81, 59
2, 4412, Note_off_c, 0, 81, 0
2, 4416, Note_on_c, 0, 84, 59
2, 4604, Note_off_c, 0, 84, 0
2, 4608, Note_on_c, 0, 79, 59
2, 4640, Note_off_c, 0, 79, 0
2, 4640, Note_on_c, 0, 81, 59
2, 4672, Note_off_c, 0, 81, 0
2, 4672, Note_on_c, 0, 83, 59
2, 4800, Note_on_c, 0, 78, 59
2, 4800, Note_on_c, 0, 81, 59
2, 4860, Note_off_c, 0, 83, 0
2, 4988, Note_off_c, 0, 78, 0
2, 4988, Note_off_c, 0, 81, 0
2, 4992, Note_on_c, 0, 76, 59
2, 4992, Note_on_c, 0, 79, 59
2, 5180, Note_off_c, 0, 76, 0
2, 5180, Note_off_c, 0, 79, 0
2, 5184, Note_on_c, 0, 78, 59
2, 5184, Note_on_c, 0, 81, 59
2, 5372, Note_off_c, 0, 78, 0
2, 5372, Note_off_c, 0, 81, 0
2, 5376, Note_on_c, 0, 79, 59
2, 5408, Note_off_c, 0, 79, 0
2, 5408, Note_on_c, 0, 81, 59
2, 5440, Note_off_c, 0, 81, 0
2, 5440, Note_on_c, 0, 83, 59
2, 5568, Note_on_c, 0, 78, 59
2, 5568, Note_on_c, 0, 81, 59
2, 5628, Note_off_c, 0, 83, 0
2, 5756, Note_off_c, 0, 78, 0
2, 5756, Note_off_c, 0, 81, 0
2, 5760, Note_on_c, 0, 76, 59
2, 5760, Note_on_c, 0, 79, 59
2, 5948, Note_off_c, 0, 76, 0
2, 5948, Note_off_c, 0, 79, 0
2, 5952, Note_on_c, 0, 81, 59
2, 5952, Note_on_c, 0, 78, 59
2, 6140, Note_off_c, 0, 81, 0
2, 6140, Note_off_c, 0, 78, 0
2, 6144, Note_on_c, 0, 79, 59
2, 6176, Note_off_c, 0, 79, 0
2, 6176, Note_on_c, 0, 81, 59
2, 6208, Note_off_c, 0, 81, 0
2, 6208, Note_on_c, 0, 83, 59
2, 6336, Note_on_c, 0, 78, 59
2, 6336, Note_on_c, 0, 81, 59
2, 6396, Note_off_c, 0, 83, 0
2, 6524, Note_off_c, 0, 78, 0
2, 6524, Note_off_c, 0, 81, 0
2, 6528, Note_on_c, 0, 76, 59
2, 6528, Note_on_c, 0, 79, 59
2, 6716, Note_off_c, 0, 76, 0
2, 6716, Note_off_c, 0, 79, 0
2, 6720, Note_on_c, 0, 78, 59
2, 6720, Note_on_c, 0, 75, 59
2, 6908, Note_off_c, 0, 78, 0
2, 6908, Note_off_c, 0, 75, 0
2, 6912, Note_on_c, 0, 76, 59
2, 7292, Note_off_c, 0, 76, 0
2, 7296, Note_on_c, 0, 71, 59
2, 7388, Note_off_c, 0, 71, 0
2, 7392, Note_on_c, 0, 69, 59
2, 7484, Note_off_c, 0, 69, 0
2, 7488, Note_on_c, 0, 68, 59
2, 7580, Note_off_c, 0, 68, 0
2, 7584, Note_on_c, 0, 69, 59
2, 7676, Note_off_c, 0, 69, 0
2, 7680, Note_on_c, 0, 72, 59
2, 7868, Note_off_c, 0, 72, 0
2, 8064, Note_on_c, 0, 74, 59
2, 8156, Note_off_c, 0, 74, 0
2, 8160, Note_on_c, 0, 72, 59
2, 8252, Note_off_c, 0, 72, 0
2, 8256, Note_on_c, 0, 71, 59
2, 8348, Note_off_c, 0, 71, 0
2, 8352, Note_on_c, 0, 72, 59
2, 8444, Note_off_c, 0, 72, 0
2, 8448, Note_on_c, 0, 76, 59
2, 8636, Note_off_c, 0, 76, 0
2, 8832, Note_on_c, 0, 77, 59
2, 8924, Note_off_c, 0, 77, 0
2, 8928, Note_on_c, 0, 76, 59
2, 9020, Note_off_c, 0, 76, 0
2, 9024, Note_on_c, 0, 75, 59
2, 9116, Note_off_c, 0, 75, 0
2, 9120, Note_on_c, 0, 76, 59
2, 9212, Note_off_c, 0, 76, 0
2, 9216, Note_on_c, 0, 83, 59
2, 9308, Note_off_c, 0, 83, 0
2, 9312, Note_on_c, 0, 81, 59
2, 9404, Note_off_c, 0, 81, 0
2, 9408, Note_on_c, 0, 80, 59
2, 9500, Note_off_c, 0, 80, 0
2, 9504, Note_on_c, 0, 81, 59
2, 9596, Note_off_c, 0, 81, 0
2, 9600, Note_on_c, 0, 83, 59
2, 9692, Note_off_c, 0, 83, 0
2, 9696, Note_on_c, 0, 81, 59
2, 9788, Note_off_c, 0, 81, 0
2, 9792, Note_on_c, 0, 80, 59
2, 9884, Note_off_c, 0, 80, 0
2, 9888, Note_on_c, 0, 81, 59
2, 9980, Note_off_c, 0, 81, 0
2, 9984, Note_on_c, 0, 84, 59
2, 10364, Note_off_c, 0, 84, 0
2, 10368, Note_on_c, 0, 81, 59
2, 10556, Note_off_c, 0, 81, 0
2, 10560, Note_on_c, 0, 84, 59
2, 10748, Note_off_c, 0, 84, 0
2, 10752, Note_on_c, 0, 79, 59
2, 10784, Note_off_c, 0, 79, 0
2, 10784, Note_on_c, 0, 81, 59
2, 10816, Note_off_c, 0, 81, 0
2, 10816, Note_on_c, 0, 83, 59
2, 10944, Note_on_c, 0, 78, 59
2, 10944, Note_on_c, 0, 81, 59
2, 11004, Note_off_c, 0, 83, 0
2, 11132, Note_off_c, 0, 78, 0
2, 11132, Note_off_c, 0, 81, 0
2, 11136, Note_on_c, 0, 76, 59
2, 11136, Note_on_c, 0, 79, 59
2, 11324, Note_off_c, 0, 76, 0
2, 11324, Note_off_c, 0, 79, 0
2, 11328, Note_on_c, 0, 78, 59
2, 11328, Note_on_c, 0, 81, 59
2, 11516, Note_off_c, 0, 78, 0
2, 11516, Note_off_c, 0, 81, 0
2, 11520, Note_on_c, 0, 79, 59
2, 11552, Note_off_c, 0, 79, 0
2, 11552, Note_on_c, 0, 81, 59
2, 11584, Note_off_c, 0, 81, 0
2, 11584, Note_on_c, 0, 83, 59
2, 11712, Note_on_c, 0, 78, 59
2, 11712, Note_on_c, 0, 81, 59
2, 11772, Note_off_c, 0, 83, 0
2, 11900, Note_off_c, 0, 78, 0
2, 11900, Note_off_c, 0, 81, 0
2, 11904, Note_on_c, 0, 76, 59
2, 11904, Note_on_c, 0, 79, 59
2, 12092, Note_off_c, 0, 76, 0
2, 12092, Note_off_c, 0, 79, 0
2, 12096, Note_on_c, 0, 81, 59
2, 12096, Note_on_c, 0, 78, 59
2, 12284, Note_off_c, 0, 81, 0
2, 12284, Note_off_c, 0, 78, 0
2, 12288, Note_on_c, 0, 79, 59
2, 12320, Note_off_c, 0, 79, 0
2, 12320, Note_on_c, 0, 81, 59
2, 12352, Note_off_c, 0, 81, 0
2, 12352, Note_on_c, 0, 83, 59
2, 12480, Note_on_c, 0, 78, 59
2, 12480, Note_on_c, 0, 81, 59
2, 12540, Note_off_c, 0, 83, 0
2, 12668, Note_off_c, 0, 78, 0
2, 12668, Note_off_c, 0, 81, 0
2, 12672, Note_on_c, 0, 76, 59
2, 12672, Note_on_c, 0, 79, 59
2, 12860, Note_off_c, 0, 76, 0
2, 12860, Note_off_c, 0, 79, 0
2, 12864, Note_on_c, 0, 78, 59
2, 12864, Note_on_c, 0, 75, 59
2, 13052, Note_off_c, 0, 78, 0
2, 13052, Note_off_c, 0, 75, 0
2, 13056, Note_on_c, 0, 76, 66
2, 13436, Note_off_c, 0, 76, 0
2, 13440, Note_on_c, 0, 76, 66
2, 13440, Note_on_c, 0, 72, 66
2, 13628, Note_off_c, 0, 76, 0
2, 13628, Note_off_c, 0, 72, 0
2, 13632, Note_on_c, 0, 77, 66
2, 13632, Note_on_c, 0, 74, 66
2, 13820, Note_off_c, 0, 77, 0
2, 13820, Note_off_c, 0, 74, 0
2, 13824, Note_on_c, 0, 79, 66
2, 13824, Note_on_c, 0, 76, 66
2, 14012, Note_off_c, 0, 79, 0
2, 14012, Note_off_c, 0, 76, 0
2, 14016, Note_on_c, 0, 79, 66
2, 14016, Note_on_c, 0, 76, 66
2, 14204, Note_off_c, 0, 79, 0
2, 14204, Note_off_c, 0, 76, 0
2, 14208, Note_on_c, 0, 81, 66
2, 14300, Note_off_c, 0, 81, 0
2, 14304, Note_on_c, 0, 79, 66
2, 14396, Note_off_c, 0, 79, 0
2, 14400, Note_on_c, 0, 77, 66
2, 14492, Note_off_c, 0, 77, 0
2, 14496, Note_on_c, 0, 76, 66
2, 14588, Note_off_c, 0, 76, 0
2, 14592, Note_on_c, 0, 74, 66
2, 14592, Note_on_c, 0, 71, 66
2, 14780, Note_off_c, 0, 71, 0
2, 14784, Note_on_c, 0, 67, 66
2, 14972, Note_off_c, 0, 74, 0
2, 14972, Note_off_c, 0, 67, 0
2, 14976, Note_on_c, 0, 76, 66
2, 14976, Note_on_c, 0, 72, 66
2, 15164, Note_off_c, 0, 76, 0
2, 15164, Note_off_c, 0, 72, 0
2, 15168, Note_on_c, 0, 77, 66
2, 15168, Note_on_c, 0, 74, 66
2, 15356, Note_off_c, 0, 77, 0
2, 15356, Note_off_c, 0, 74, 0
2, 15360, Note_on_c, 0, 79, 66
2, 15360, Note_on_c, 0, 76, 66
2, 15548, Note_off_c, 0, 79, 0
2, 15548, Note_off_c, 0, 76, 0
2, 15552, Note_on_c, 0, 79, 66
2, 15552, Note_on_c, 0, 76, 66
2, 15740, Note_off_c, 0, 79, 0
2, 15740, Note_off_c, 0, 76, 0
2, 15744, Note_on_c, 0, 81, 66
2, 15836, Note_off_c, 0, 81, 0
2, 15840, Note_on_c, 0, 79, 66
2, 15932, Note_off_c, 0, 79, 0
2, 15936, Note_on_c, 0, 77, 66
2, 16028, Note_off_c, 0, 77, 0
2, 16032, Note_on_c, 0, 76, 66
2, 16124, Note_off_c, 0, 76, 0
2, 16128, Note_on_c, 0, 74, 66
2, 16128, Note_on_c, 0, 71, 66
2, 16508, Note_off_c, 0, 74, 0
2, 16508, Note_off_c, 0, 71, 0
2, 16512, Note_on_c, 0, 72, 66
2, 16512, Note_on_c, 0, 69, 66
2, 16700, Note_off_c, 0, 72, 0
2, 16700, Note_off_c, 0, 69, 0
2, 16704, Note_on_c, 0, 74, 66
2, 16704, Note_on_c, 0, 71, 66
2, 16892, Note_off_c, 0, 74, 0
2, 16892, Note_off_c, 0, 71, 0
2, 16896, Note_on_c, 0, 76, 66
2, 16896, Note_on_c, 0, 72, 66
2, 17084, Note_off_c, 0, 76, 0
2, 17084, Note_off_c, 0, 72, 0
2, 17088, Note_on_c, 0, 76, 66
2, 17088, Note_on_c, 0, 72, 66
2, 17276, Note_off_c, 0, 76, 0
2, 17276, Note_off_c, 0, 72, 0
2, 17280, Note_on_c, 0, 77, 66
2, 17372, Note_off_c, 0, 77, 0
2, 17376, Note_on_c, 0, 76, 66
2, 17468, Note_off_c, 0, 76, 0
2, 17472, Note_on_c, 0, 74, 66
2, 17564, Note_off_c, 0, 74, 0
2, 17568, Note_on_c, 0, 72, 66
2, 17660, Note_off_c, 0, 72, 0
2, 17664, Note_on_c, 0, 71, 66
2, 17664, Note_on_c, 0, 68, 66
2, 17852, Note_off_c, 0, 68, 0
2, 17856, Note_on_c, 0, 64, 66
2, 18044, Note_off_c, 0, 71, 0
2, 18044, Note_off_c, 0, 64, 0
2, 18048, Note_on_c, 0, 72, 66
2, 18048, Note_on_c, 0, 69, 66
2, 18236, Note_off_c, 0, 72, 0
2, 18236, Note_off_c, 0, 69, 0
2, 18240, Note_on_c, 0, 74, 66
2, 18240, Note_on_c, 0, 71, 66
2, 18428, Note_off_c, 0, 74, 0
2, 18428, Note_off_c, 0, 71, 0
2, 18432, Note_on_c, 0, 76, 66
2, 18432, Note_on_c, 0, 72, 66
2, 18620, Note_off_c, 0, 76, 0
2, 18620, Note_off_c, 0, 72, 0
2, 18624, Note_on_c, 0, 76, 66
2, 18624, Note_on_c, 0, 72, 66
2, 18812, Note_off_c, 0, 76, 0
2, 18812, Note_off_c, 0, 72, 0
2, 18816, Note_on_c, 0, 77, 66
2, 18908, Note_off_c, 0, 77, 0
2, 18912, Note_on_c, 0, 76, 66
2, 19004, Note_off_c, 0, 76, 0
2, 19008, Note_on_c, 0, 74, 66
2, 19100, Note_off_c, 0, 74, 0
2, 19104, Note_on_c, 0, 72, 66
2, 19196, Note_off_c, 0, 72, 0
2, 19200, Note_on_c, 0, 71, 66
2, 19200, Note_on_c, 0, 68, 66
2, 19580, Note_off_c, 0, 71, 0
2, 19580, Note_off_c, 0, 68, 0
2, 19584, Note_on_c, 0, 71, 59
2, 19676, Note_off_c, 0, 71, 0
2, 19680, Note_on_c, 0, 69, 59
2, 19772, Note_off_c, 0, 69, 0
2, 19776, Note_on_c, 0, 68, 59
2, 19868, Note_off_c, 0, 68, 0
2, 19872, Note_on_c, 0, 69, 59
2, 19964, Note_off_c, 0, 69, 0
2, 19968, Note_on_c, 0, 72, 59
2, 20156, Note_off_c, 0, 72, 0
2, 20352, Note_on_c, 0, 74, 59
2, 20444, Note_off_c, 0, 74, 0
2, 20448, Note_on_c, 0, 72, 59
2, 20540, Note_off_c, 0, 72, 0
2, 20544, Note_on_c, 0, 71, 59
2, 20636, Note_off_c, 0, 71, 0
2, 20640, Note_on_c, 0, 72, 59
2, 20732, Note_off_c, 0, 72, 0
2, 20736, Note_on_c, 0, 76, 59
2, 20924, Note_off_c, 0, 76, 0
2, 21120, Note_on_c, 0, 77, 59
2, 21212, Note_off_c, 0, 77, 0
2, 21216, Note_on_c, 0, 76, 59
2, 21308, Note_off_c, 0, 76, 0
2, 21312, Note_on_c, 0, 75, 59
2, 21404, Note_off_c, 0, 75, 0
2, 21408, Note_on_c, 0, 76, 59
2, 21500, Note_off_c, 0, 76, 0
2, 21504, Note_on_c, 0, 83, 61
2, 21596, Note_off_c, 0, 83, 0
2, 21600, Note_on_c, 0, 81, 62
2, 21692, Note_off_c, 0, 81, 0
2, 21696, Note_on_c, 0, 80, 65
2, 21788, Note_off_c, 0, 80, 0
2, 21792, Note_on_c, 0, 81, 67
2, 21884, Note_off_c, 0, 81, 0
2, 21888, Note_on_c, 0, 83, 70
2, 21980, Note_off_c, 0, 83, 0
2, 21984, Note_on_c, 0, 81, 71
2, 22076, Note_off_c, 0, 81, 0
2, 22080, Note_on_c, 0, 80, 74
2, 22172, Note_off_c, 0, 80, 0
2, 22176, Note_on_c, 0, 81, 78
2, 22268, Note_off_c, 0, 81, 0
2, 22272, Note_on_c, 0, 84, 82
2, 22652, Note_off_c, 0, 84, 0
2, 22656, Note_on_c, 0, 81, 59
2, 22844, Note_off_c, 0, 81, 0
2, 22848, Note_on_c, 0, 83, 59
2, 23036, Note_off_c, 0, 83, 0
2, 23040, Note_on_c, 0, 84, 59
2, 23228, Note_off_c, 0, 84, 0
2, 23232, Note_on_c, 0, 83, 59
2, 23420, Note_off_c, 0, 83, 0
2, 23424, Note_on_c, 0, 81, 59
2, 23612, Note_off_c, 0, 81, 0
2, 23616, Note_on_c, 0, 80, 59
2, 23804, Note_off_c, 0, 80, 0
2, 23808, Note_on_c, 0, 81, 59
2, 23996, Note_off_c, 0, 81, 0
2, 24000, Note_on_c, 0, 76, 59
2, 24188, Note_off_c, 0, 76, 0
2, 24192, Note_on_c, 0, 77, 59
2, 24380, Note_off_c, 0, 77, 0
2, 24384, Note_on_c, 0, 74, 59
2, 24572, Note_off_c, 0, 74, 0
2, 24576, Note_on_c, 0, 72, 59
2, 24956, Note_off_c, 0, 72, 0
2, 24976, Note_on_c, 0, 71, 59
2, 25248, Note_on_c, 0, 69, 59
2, 25260, Note_off_c, 0, 71, 0
2, 25292, Note_off_c, 0, 69, 0
2, 25296, Note_on_c, 0, 71, 59
2, 25340, Note_off_c, 0, 71, 0
2, 25344, Note_on_c, 0, 69, 66
2, 25724, Note_off_c, 0, 69, 0
2, 25728, Note_on_c, 0, 76, 66
2, 25728, Note_on_c, 0, 72, 66
2, 25916, Note_off_c, 0, 76, 0
2, 25916, Note_off_c, 0, 72, 0
2, 25920, Note_on_c, 0, 77, 66
2, 25920, Note_on_c, 0, 74, 66
2, 26108, Note_off_c, 0, 77, 0
2, 26108, Note_off_c, 0, 74, 0
2, 26112, Note_on_c, 0, 79, 66
2, 26112, Note_on_c, 0, 76, 66
2, 26300, Note_off_c, 0, 79, 0
2, 26300, Note_off_c, 0, 76, 0
2, 26304, Note_on_c, 0, 79, 66
2, 26304, Note_on_c, 0, 76, 66
2, 26492, Note_off_c, 0, 79, 0
2, 26492, Note_off_c, 0, 76, 0
2, 26496, Note_on_c, 0, 81, 66
2, 26588, Note_off_c, 0, 81, 0
2, 26592, Note_on_c, 0, 79, 66
2, 26684, Note_off_c, 0, 79, 0
2, 26688, Note_on_c, 0, 77, 66
2, 26780, Note_off_c, 0, 77, 0
2, 26784, Note_on_c, 0, 76, 66
2, 26876, Note_off_c, 0, 76, 0
2, 26880, Note_on_c, 0, 74, 66
2, 26880, Note_on_c, 0, 71, 66
2, 27068, Note_off_c, 0, 71, 0
2, 27072, Note_on_c, 0, 67, 66
2, 27260, Note_off_c, 0, 74, 0
2, 27260, Note_off_c, 0, 67, 0
2, 27264, Note_on_c, 0, 76, 66
2, 27264, Note_on_c, 0, 72, 66
2, 27452, Note_off_c, 0, 76, 0
2, 27452, Note_off_c, 0, 72, 0
2, 27456, Note_on_c, 0, 77, 66
2, 27456, Note_on_c, 0, 74, 66
2, 27644, Note_off_c, 0, 77, 0
2, 27644, Note_off_c, 0, 74, 0
2, 27648, Note_on_c, 0, 79, 66
2, 27648, Note_on_c, 0, 76, 66
2, 27836, Note_off_c, 0, 79, 0
2, 27836, Note_off_c, 0, 76, 0
2, 27840, Note_on_c, 0, 79, 66
2, 27840, Note_on_c, 0, 76, 66
2, 28028, Note_off_c, 0, 79, 0
2, 28028, Note_off_c, 0, 76, 0
2, 28032, Note_on_c, 0, 81, 66
2, 28124, Note_off_c, 0, 81, 0
2, 28128, Note_on_c, 0, 79, 66
2, 28220, Note_off_c, 0, 79, 0
2, 28224, Note_on_c, 0, 77, 66
2, 28316, Note_off_c, 0, 77, 0
2, 28320, Note_on_c, 0, 76, 66
2, 28412, Note_off_c, 0, 76, 0
2, 28416, Note_on_c, 0, 74, 66
2, 28416, Note_on_c, 0, 71, 66
2, 28796, Note_off_c, 0, 74, 0
2, 28796, Note_off_c, 0, 71, 0
2, 28800, Note_on_c, 0, 72, 66
2, 28800, Note_on_c, 0, 69, 66
2, 28988, Note_off_c, 0, 72, 0
2, 28988, Note_off_c, 0, 69, 0
2, 28992, Note_on_c, 0, 74, 66
2, 28992, Note_on_c, 0, 71, 66
2, 29180, Note_off_c, 0, 74, 0
2, 29180, Note_off_c, 0, 71, 0
2, 29184, Note_on_c, 0, 76, 66
2, 29184, Note_on_c, 0, 72, 66
2, 29372, Note_off_c, 0, 76, 0
2, 29372, Note_off_c, 0, 72, 0
2, 29376, Note_on_c, 0, 76, 66
2, 29376, Note_on_c, 0, 72, 66
2, 29564, Note_off_c, 0, 76, 0
2, 29564, Note_off_c, 0, 72, 0
2, 29568, Note_on_c, 0, 77, 66
2, 29660, Note_off_c, 0, 77, 0
2, 29664, Note_on_c, 0, 76, 66
2, 29756, Note_off_c, 0, 76, 0
2, 29760, Note_on_c, 0, 74, 66
2, 29852, Note_off_c, 0, 74, 0
2, 29856, Note_on_c, 0, 72, 66
2, 29948, Note_off_c, 0, 72, 0
2, 29952, Note_on_c, 0, 71, 66
2, 29952, Note_on_c, 0, 68, 66
2, 30140, Note_off_c, 0, 68, 0
2, 30144, Note_on_c, 0, 64, 66
2, 30332, Note_off_c, 0, 71, 0
2, 30332, Note_off_c, 0, 64, 0
2, 30336, Note_on_c, 0, 72, 66
2, 30336, Note_on_c, 0, 69, 66
2, 30524, Note_off_c, 0, 72, 0
2, 30524, Note_off_c, 0, 69, 0
2, 30528, Note_on_c, 0, 74, 66
2, 30528, Note_on_c, 0, 71, 66
2, 30716, Note_off_c, 0, 74, 0
2, 30716, Note_off_c, 0, 71, 0
2, 30720, Note_on_c, 0, 76, 66
2, 30720, Note_on_c, 0, 72, 66
2, 30908, Note_off_c, 0, 76, 0
2, 30908, Note_off_c, 0, 72, 0
2, 30912, Note_on_c, 0, 76, 66
2, 30912, Note_on_c, 0, 72, 66
2, 31100, Note_off_c, 0, 76, 0
2, 31100, Note_off_c, 0, 72, 0
2, 31104, Note_on_c, 0, 77, 66
2, 31196, Note_off_c, 0, 77, 0
2, 31200, Note_on_c, 0, 76, 66
2, 31292, Note_off_c, 0, 76, 0
2, 31296, Note_on_c, 0, 74, 66
2, 31388, Note_off_c, 0, 74, 0
2, 31392, Note_on_c, 0, 72, 66
2, 31484, Note_off_c, 0, 72, 0
2, 31488, Note_on_c, 0, 71, 66
2, 31488, Note_on_c, 0, 68, 66
2, 31868, Note_off_c, 0, 71, 0
2, 31868, Note_off_c, 0, 68, 0
2, 31872, Note_on_c, 0, 71, 59
2, 31964, Note_off_c, 0, 71, 0
2, 31968, Note_on_c, 0, 69, 59
2, 32060, Note_off_c, 0, 69, 0
2, 32064, Note_on_c, 0, 68, 59
2, 32156, Note_off_c, 0, 68, 0
2, 32160, Note_on_c, 0, 69, 59
2, 32252, Note_off_c, 0, 69, 0
2, 32256, Note_on_c, 0, 72, 59
2, 32444, Note_off_c, 0, 72, 0
2, 32640, Note_on_c, 0, 74, 59
2, 32732, Note_off_c, 0, 74, 0
2, 32736, Note_on_c, 0, 72, 59
2, 32828, Note_off_c, 0, 72, 0
2, 32832, Note_on_c, 0, 71, 59
2, 32924, Note_off_c, 0, 71, 0
2, 32928, Note_on_c, 0, 72, 59
2, 33020, Note_off_c, 0, 72, 0
2, 33024, Note_on_c, 0, 76, 59
2, 33212, Note_off_c, 0, 76, 0
2, 33408, Note_on_c, 0, 77, 59
2, 33500, Note_off_c, 0, 77, 0
2, 33504, Note_on_c, 0, 76, 59
2, 33596, Note_off_c, 0, 76, 0
2, 33600, Note_on_c, 0, 75, 59
2, 33692, Note_off_c, 0, 75, 0
2, 33696, Note_on_c, 0, 76, 59
2, 33788, Note_off_c, 0, 76, 0
2, 33792, Note_on_c, 0, 83, 61
2, 33884, Note_off_c, 0, 83, 0
2, 33888, Note_on_c, 0, 81, 62
2, 33980, Note_off_c, 0, 81, 0
2, 33984, Note_on_c, 0, 80, 65
2, 34076, Note_off_c, 0, 80, 0
2, 34080, Note_on_c, 0, 81, 67
2, 34172, Note_off_c, 0, 81, 0
2, 34176, Note_on_c, 0, 83, 70
2, 34268, Note_off_c, 0, 83, 0
2, 34272, Note_on_c, 0, 81, 71
2, 34364, Note_off_c, 0, 81, 0
2, 34368, Note_on_c, 0, 80, 74
2, 34460, Note_off_c, 0, 80, 0
2, 34464, Note_on_c, 0, 81, 78
2, 34556, Note_off_c, 0, 81, 0
2, 34560, Note_on_c, 0, 84, 82
2, 34940, Note_off_c, 0, 84, 0
2, 34944, Note_on_c, 0, 81, 59
2, 35132, Note_off_c, 0, 81, 0
2, 35136, Note_on_c, 0, 83, 59
2, 35324, Note_off_c, 0, 83, 0
2, 35328, Note_on_c, 0, 84, 59
2, 35516, Note_off_c, 0, 84, 0
2, 35520, Note_on_c, 0, 83, 59
2, 35708, Note_off_c, 0, 83, 0
2, 35712, Note_on_c, 0, 81, 59
2, 35900, Note_off_c, 0, 81, 0
2, 35904, Note_on_c, 0, 80, 59
2, 36092, Note_off_c, 0, 80, 0
2, 36096, Note_on_c, 0, 81, 59
2, 36284, Note_off_c, 0, 81, 0
2, 36288, Note_on_c, 0, 76, 59
2, 36476, Note_off_c, 0, 76, 0
2, 36480, Note_on_c, 0, 77, 59
2, 36668, Note_off_c, 0, 77, 0
2, 36672, Note_on_c, 0, 74, 59
2, 36860, Note_off_c, 0, 74, 0
2, 36864, Note_on_c, 0, 72, 59
2, 37244, Note_off_c, 0, 72, 0
2, 37264, Note_on_c, 0, 71, 59
2, 37536, Note_on_c, 0, 69, 59
2, 37548, Note_off_c, 0, 71, 0
2, 37580, Note_off_c, 0, 69, 0
2, 37584, Note_on_c, 0, 71, 59
2, 37628, Note_off_c, 0, 71, 0
2, 37632, Key_signature, 3, "major"
2, 37632, Note_on_c, 0, 69, 59
2, 38012, Note_off_c, 0, 69, 0
2, 38016, Note_on_c, 0, 81, 79
2, 38016, Note_on_c, 0, 69, 79
2, 38204, Note_off_c, 0, 81, 0
2, 38204, Note_off_c, 0, 69, 0
2, 38208, Note_on_c, 0, 83, 79
2, 38208, Note_on_c, 0, 71, 79
2, 38396, Note_off_c, 0, 83, 0
2, 38396, Note_off_c, 0, 71, 0
2, 38400, Note_on_c, 0, 85, 79
2, 38400, Note_on_c, 0, 73, 79
2, 38588, Note_off_c, 0, 85, 0
2, 38588, Note_off_c, 0, 73, 0
2, 38784, Note_on_c, 0, 81, 79
2, 38784, Note_on_c, 0, 69, 79
2, 38972, Note_off_c, 0, 81, 0
2, 38972, Note_off_c, 0, 69, 0
2, 38976, Note_on_c, 0, 83, 79
2, 38976, Note_on_c, 0, 71, 79
2, 39164, Note_off_c, 0, 83, 0
2, 39164, Note_off_c, 0, 71, 0
2, 39168, Note_on_c, 0, 85, 79
2, 39168, Note_on_c, 0, 73, 79
2, 39356, Note_off_c, 0, 85, 0
2, 39356, Note_off_c, 0, 73, 0
2, 39360, Note_on_c, 0, 83, 79
2, 39360, Note_on_c, 0, 71, 79
2, 39548, Note_off_c, 0, 83, 0
2, 39548, Note_off_c, 0, 71, 0
2, 39552, Note_on_c, 0, 81, 79
2, 39552, Note_on_c, 0, 69, 79
2, 39740, Note_off_c, 0, 81, 0
2, 39740, Note_off_c, 0, 69, 0
2, 39744, Note_on_c, 0, 80, 79
2, 39744, Note_on_c, 0, 68, 79
2, 39932, Note_off_c, 0, 80, 0
2, 39932, Note_off_c, 0, 68, 0
2, 39936, Note_on_c, 0, 78, 79
2, 39936, Note_on_c, 0, 66, 79
2, 40124, Note_off_c, 0, 78, 0
2, 40124, Note_off_c, 0, 66, 0
2, 40128, Note_on_c, 0, 80, 79
2, 40128, Note_on_c, 0, 68, 79
2, 40316, Note_off_c, 0, 80, 0
2, 40316, Note_off_c, 0, 68, 0
2, 40320, Note_on_c, 0, 81, 79
2, 40320, Note_on_c, 0, 69, 79
2, 40508, Note_off_c, 0, 81, 0
2, 40508, Note_off_c, 0, 69, 0
2, 40512, Note_on_c, 0, 83, 79
2, 40512, Note_on_c, 0, 71, 79
2, 40700, Note_off_c, 0, 83, 0
2, 40700, Note_off_c, 0, 71, 0
2, 40704, Note_on_c, 0, 80, 79
2, 40704, Note_on_c, 0, 68, 79
2, 40892, Note_off_c, 0, 80, 0
2, 40892, Note_off_c, 0, 68, 0
2, 40896, Note_on_c, 0, 76, 79
2, 40896, Note_on_c, 0, 64, 79
2, 41084, Note_off_c, 0, 76, 0
2, 41084, Note_off_c, 0, 64, 0
2, 41088, Note_on_c, 0, 81, 79
2, 41088, Note_on_c, 0, 69, 79
2, 41276, Note_off_c, 0, 81, 0
2, 41276, Note_off_c, 0, 69, 0
2, 41280, Note_on_c, 0, 83, 79
2, 41280, Note_on_c, 0, 71, 79
2, 41468, Note_off_c, 0, 83, 0
2, 41468, Note_off_c, 0, 71, 0
2, 41472, Note_on_c, 0, 85, 79
2, 41472, Note_on_c, 0, 73, 79
2, 41852, Note_off_c, 0, 85, 0
2, 41852, Note_off_c, 0, 73, 0
2, 41856, Note_on_c, 0, 81, 79
2, 41856, Note_on_c, 0, 69, 79
2, 42044, Note_off_c, 0, 81, 0
2, 42044, Note_off_c, 0, 69, 0
2, 42048, Note_on_c, 0, 83, 79
2, 42048, Note_on_c, 0, 71, 79
2, 42236, Note_off_c, 0, 83, 0
2, 42236, Note_off_c, 0, 71, 0
2, 42240, Note_on_c, 0, 85, 79
2, 42240, Note_on_c, 0, 73, 79
2, 42428, Note_off_c, 0, 85, 0
2, 42428, Note_off_c, 0, 73, 0
2, 42432, Note_on_c, 0, 83, 79
2, 42432, Note_on_c, 0, 71, 79
2, 42620, Note_off_c, 0, 83, 0
2, 42620, Note_off_c, 0, 71, 0
2, 42624, Note_on_c, 0, 81, 79
2, 42624, Note_on_c, 0, 69, 79
2, 42812, Note_off_c, 0, 81, 0
2, 42812, Note_off_c, 0, 69, 0
2, 42816, Note_on_c, 0, 80, 79
2, 42816, Note_on_c, 0, 68, 79
2, 43004, Note_off_c, 0, 80, 0
2, 43004, Note_off_c, 0, 68, 0
2, 43008, Note_on_c, 0, 78, 79
2, 43008, Note_on_c, 0, 66, 79
2, 43196, Note_off_c, 0, 78, 0
2, 43196, Note_off_c, 0, 66, 0
2, 43200, Note_on_c, 0, 83, 79
2, 43200, Note_on_c, 0, 71, 79
2, 43388, Note_off_c, 0, 83, 0
2, 43388, Note_off_c, 0, 71, 0
2, 43392, Note_on_c, 0, 80, 79
2, 43392, Note_on_c, 0, 68, 79
2, 43580, Note_off_c, 0, 80, 0
2, 43580, Note_off_c, 0, 68, 0
2, 43584, Note_on_c, 0, 76, 79
2, 43584, Note_on_c, 0, 64, 79
2, 43772, Note_off_c, 0, 76, 0
2, 43772, Note_off_c, 0, 64, 0
2, 43776, Note_on_c, 0, 81, 79
2, 43776, Note_on_c, 0, 69, 79
2, 44156, Note_off_c, 0, 81, 0
2, 44156, Note_off_c, 0, 69, 0
2, 44160, Note_on_c, 0, 81, 79
2, 44160, Note_on_c, 0, 69, 79
2, 44348, Note_off_c, 0, 81, 0
2, 44348, Note_off_c, 0, 69, 0
2, 44352, Note_on_c, 0, 83, 79
2, 44352, Note_on_c, 0, 71, 79
2, 44540, Note_off_c, 0, 83, 0
2, 44540, Note_off_c, 0, 71, 0
2, 44544, Note_on_c, 0, 85, 79
2, 44544, Note_on_c, 0, 73, 79
2, 44732, Note_off_c, 0, 85, 0
2, 44732, Note_off_c, 0, 73, 0
2, 44928, Note_on_c, 0, 81, 79
2, 44928, Note_on_c, 0, 69, 79
2, 45116, Note_off_c, 0, 81, 0
2, 45116, Note_off_c, 0, 69, 0
2, 45120, Note_on_c, 0, 83, 79
2, 45120, Note_on_c, 0, 71, 79
2, 45308, Note_off_c, 0, 83, 0
2, 45308, Note_off_c, 0, 71, 0
2, 45312, Note_on_c, 0, 85, 79
2, 45312, Note_on_c, 0, 73, 79
2, 45500, Note_off_c, 0, 85, 0
2, 45500, Note_off_c, 0, 73, 0
2, 45504, Note_on_c, 0, 83, 79
2, 45504, Note_on_c, 0, 71, 79
2, 45692, Note_off_c, 0, 83, 0
2, 45692, Note_off_c, 0, 71, 0
2, 45696, Note_on_c, 0, 81, 79
2, 45696, Note_on_c, 0, 69, 79
2, 45884, Note_off_c, 0, 81, 0
2, 45884, Note_off_c, 0, 69, 0
2, 45888, Note_on_c, 0, 80, 79
2, 45888, Note_on_c, 0, 68, 79
2, 46076, Note_off_c, 0, 80, 0
2, 46076, Note_off_c, 0, 68, 0
2, 46080, Note_on_c, 0, 78, 79
2, 46080, Note_on_c, 0, 66, 79
2, 46268, Note_off_c, 0, 78, 0
2, 46268, Note_off_c, 0, 66, 0
2, 46272, Note_on_c, 0, 80, 79
2, 46272, Note_on_c, 0, 68, 79
2, 46460, Note_off_c, 0, 80, 0
2, 46460, Note_off_c, 0, 68, 0
2, 46464, Note_on_c, 0, 81, 79
2, 46464, Note_on_c, 0, 69, 79
2, 46652, Note_off_c, 0, 81, 0
2, 46652, Note_off_c, 0, 69, 0
2, 46656, Note_on_c, 0, 83, 79
2, 46656, Note_on_c, 0, 71, 79
2, 46844, Note_off_c, 0, 83, 0
2, 46844, Note_off_c, 0, 71, 0
2, 46848, Note_on_c, 0, 80, 79
2, 46848, Note_on_c, 0, 68, 79
2, 47036, Note_off_c, 0, 80, 0
2, 47036, Note_off_c, 0, 68, 0
2, 47040, Note_on_c, 0, 76, 79
2, 47040, Note_on_c, 0, 64, 79
2, 47228, Note_off_c, 0, 76, 0
2, 47228, Note_off_c, 0, 64, 0
2, 47232, Note_on_c, 0, 81, 79
2, 47232, Note_on_c, 0, 69, 79
2, 47420, Note_off_c, 0, 81, 0
2, 47420, Note_off_c, 0, 69, 0
2, 47424, Note_on_c, 0, 83, 79
2, 47424, Note_on_c, 0, 71, 79
2, 47612, Note_off_c, 0, 83, 0
2, 47612, Note_off_c, 0, 71, 0
2, 47616, Note_on_c, 0, 85, 79
2, 47616, Note_on_c, 0, 73, 79
2, 47996, Note_off_c, 0, 85, 0
2, 47996, Note_off_c, 0, 73, 0
2, 48000, Note_on_c, 0, 81, 79
2, 48000, Note_on_c, 0, 69, 79
2, 48188, Note_off_c, 0, 81, 0
2, 48188, Note_off_c, 0, 69, 0
2, 48192, Note_on_c, 0, 83, 79
2, 48192, Note_on_c, 0, 71, 79
2, 48380, Note_off_c, 0, 83, 0
2, 48380, Note_off_c, 0, 71, 0
2, 48384, Note_on_c, 0, 85, 79
2, 48384, Note_on_c, 0, 73, 79
2, 48572, Note_off_c, 0, 85, 0
2, 48572, Note_off_c, 0, 73, 0
2, 48576, Note_on_c, 0, 83, 79
2, 48576, Note_on_c, 0, 71, 79
2, 48764, Note_off_c, 0, 83, 0
2, 48764, Note_off_c, 0, 71, 0
2, 48768, Note_on_c, 0, 81, 79
2, 48768, Note_on_c, 0, 69, 79
2, 48956, Note_off_c, 0, 81, 0
2, 48956, Note_off_c, 0, 69, 0
2, 48960, Note_on_c, 0, 80, 79
2, 48960, Note_on_c, 0, 68, 79
2, 49148, Note_off_c, 0, 80, 0
2, 49148, Note_off_c, 0, 68, 0
2, 49152, Note_on_c, 0, 78, 79
2, 49152, Note_on_c, 0, 66, 79
2, 49340, Note_off_c, 0, 78, 0
2, 49340, Note_off_c, 0, 66, 0
2, 49344, Note_on_c, 0, 83, 79
2, 49344, Note_on_c, 0, 71, 79
2, 49532, Note_off_c, 0, 83, 0
2, 49532, Note_off_c, 0, 71, 0
2, 49536, Note_on_c, 0, 80, 79
2, 49536, Note_on_c, 0, 68, 79
2, 49724, Note_off_c, 0, 80, 0
2, 49724, Note_off_c, 0, 68, 0
2, 49728, Note_on_c, 0, 76, 79
2, 49728, Note_on_c, 0, 64, 79
2, 49916, Note_off_c, 0, 76, 0
2, 49916, Note_off_c, 0, 64, 0
2, 49920, Note_on_c, 0, 81, 79
2, 49920, Note_on_c, 0, 69, 79
2, 50300, Note_off_c, 0, 81, 0
2, 50300, Note_off_c, 0, 69, 0
2, 50304, Note_on_c, 0, 85, 59
2, 50396, Note_off_c, 0, 85, 0
2, 50400, Note_on_c, 0, 86, 59
2, 50492, Note_off_c, 0, 86, 0
2, 50496, Note_on_c, 0, 85, 59
2, 50588, Note_off_c, 0, 85, 0
2, 50592, Note_on_c, 0, 83, 59
2, 50684, Note_off_c, 0, 83, 0
2, 50688, Note_on_c, 0, 81, 59
2, 50780, Note_off_c, 0, 81, 0
2, 50784, Note_on_c, 0, 83, 59
2, 50876, Note_off_c, 0, 83, 0
2, 50880, Note_on_c, 0, 81, 59
2, 50972, Note_off_c, 0, 81, 0
2, 50976, Note_on_c, 0, 80, 59
2, 51068, Note_off_c, 0, 80, 0
2, 51072, Note_on_c, 0, 78, 59
2, 51164, Note_off_c, 0, 78, 0
2, 51168, Note_on_c, 0, 81, 59
2, 51260, Note_off_c, 0, 81, 0
2, 51264, Note_on_c, 0, 80, 59
2, 51356, Note_off_c, 0, 80, 0
2, 51360, Note_on_c, 0, 78, 59
2, 51452, Note_off_c, 0, 78, 0
2, 51456, Note_on_c, 0, 77, 59
2, 51548, Note_off_c, 0, 77, 0
2, 51552, Note_on_c, 0, 78, 59
2, 51644, Note_off_c, 0, 78, 0
2, 51648, Note_on_c, 0, 80, 59
2, 51740, Note_off_c, 0, 80, 0
2, 51744, Note_on_c, 0, 77, 59
2, 51836, Note_off_c, 0, 77, 0
2, 51840, Note_on_c, 0, 73, 59
2, 51932, Note_off_c, 0, 73, 0
2, 51936, Note_on_c, 0, 75, 59
2, 52028, Note_off_c, 0, 75, 0
2, 52032, Note_on_c, 0, 77, 59
2, 52124, Note_off_c, 0, 77, 0
2, 52128, Note_on_c, 0, 73, 59
2, 52220, Note_off_c, 0, 73, 0
2, 52224, Note_on_c, 0, 78, 59
2, 52316, Note_off_c, 0, 78, 0
2, 52320, Note_on_c, 0, 77, 59
2, 52412, Note_off_c, 0, 77, 0
2, 52416, Note_on_c, 0, 78, 59
2, 52508, Note_off_c, 0, 78, 0
2, 52512, Note_on_c, 0, 80, 59
2, 52604, Note_off_c, 0, 80, 0
2, 52608, Note_on_c, 0, 81, 59
2, 52700, Note_off_c, 0, 81, 0
2, 52704, Note_on_c, 0, 80, 59
2, 52796, Note_off_c, 0, 80, 0
2, 52800, Note_on_c, 0, 81, 59
2, 52892, Note_off_c, 0, 81, 0
2, 52896, Note_on_c, 0, 83, 59
2, 52988, Note_off_c, 0, 83, 0
2, 52992, Note_on_c, 0, 85, 59
2, 53084, Note_off_c, 0, 85, 0
2, 53088, Note_on_c, 0, 84, 59
2, 53180, Note_off_c, 0, 84, 0
2, 53184, Note_on_c, 0, 85, 59
2, 53276, Note_off_c, 0, 85, 0
2, 53280, Note_on_c, 0, 84, 59
2, 53372, Note_off_c, 0, 84, 0
2, 53376, Note_on_c, 0, 85, 59
2, 53468, Note_off_c, 0, 85, 0
2, 53472, Note_on_c, 0, 86, 59
2, 53564, Note_off_c, 0, 86, 0
2, 53568, Note_on_c, 0, 85, 59
2, 53660, Note_off_c, 0, 85, 0
2, 53664, Note_on_c, 0, 83, 59
2, 53756, Note_off_c, 0, 83, 0
2, 53760, Note_on_c, 0, 81, 59
2, 53852, Note_off_c, 0, 81, 0
2, 53856, Note_on_c, 0, 83, 59
2, 53948, Note_off_c, 0, 83, 0
2, 53952, Note_on_c, 0, 81, 59
2, 54044, Note_off_c, 0, 81, 0
2, 54048, Note_on_c, 0, 80, 59
2, 54140, Note_off_c, 0, 80, 0
2, 54144, Note_on_c, 0, 78, 59
2, 54236, Note_off_c, 0, 78, 0
2, 54240, Note_on_c, 0, 81, 59
2, 54332, Note_off_c, 0, 81, 0
2, 54336, Note_on_c, 0, 80, 59
2, 54428, Note_off_c, 0, 80, 0
2, 54432, Note_on_c, 0, 78, 59
2, 54524, Note_off_c, 0, 78, 0
2, 54528, Note_on_c, 0, 76, 59
2, 54620, Note_off_c, 0, 76, 0
2, 54624, Note_on_c, 0, 78, 59
2, 54716, Note_off_c, 0, 78, 0
2, 54720, Note_on_c, 0, 80, 59
2, 54812, Note_off_c, 0, 80, 0
2, 54816, Note_on_c, 0, 76, 59
2, 54908, Note_off_c, 0, 76, 0
2, 54912, Note_on_c, 0, 73, 59
2, 55004, Note_off_c, 0, 73, 0
2, 55008, Note_on_c, 0, 75, 59
2, 55100, Note_off_c, 0, 75, 0
2, 55104, Note_on_c, 0, 76, 59
2, 55196, Note_off_c, 0, 76, 0
2, 55200, Note_on_c, 0, 73, 59
2, 55292, Note_off_c, 0, 73, 0
2, 55296, Note_on_c, 0, 75, 59
2, 55388, Note_off_c, 0, 75, 0
2, 55392, Note_on_c, 0, 76, 59
2, 55484, Note_off_c, 0, 76, 0
2, 55488, Note_on_c, 0, 78, 59
2, 55580, Note_off_c, 0, 78, 0
2, 55584, Note_on_c, 0, 75, 59
2, 55676, Note_off_c, 0, 75, 0
2, 55680, Note_on_c, 0, 72, 59
2, 55772, Note_off_c, 0, 72, 0
2, 55776, Note_on_c, 0, 73, 59
2, 55868, Note_off_c, 0, 73, 0
2, 55872, Note_on_c, 0, 75, 59
2, 55964, Note_off_c, 0, 75, 0
2, 55968, Note_on_c, 0, 72, 59
2, 56060, Note_off_c, 0, 72, 0
2, 56064, Note_on_c, 0, 73, 59
2, 56444, Note_off_c, 0, 73, 0
2, 56448, Note_on_c, 0, 85, 59
2, 56540, Note_off_c, 0, 85, 0
2, 56544, Note_on_c, 0, 86, 59
2, 56636, Note_off_c, 0, 86, 0
2, 56640, Note_on_c, 0, 85, 59
2, 56732, Note_off_c, 0, 85, 0
2, 56736, Note_on_c, 0, 83, 59
2, 56828, Note_off_c, 0, 83, 0
2, 56832, Note_on_c, 0, 81, 59
2, 56924, Note_off_c, 0, 81, 0
2, 56928, Note_on_c, 0, 83, 59
2, 57020, Note_off_c, 0, 83, 0
2, 57024, Note_on_c, 0, 81, 59
2, 57116, Note_off_c, 0, 81, 0
2, 57120, Note_on_c, 0, 80, 59
2, 57212, Note_off_c, 0, 80, 0
2, 57216, Note_on_c, 0, 78, 59
2, 57308, Note_off_c, 0, 78, 0
2, 57312, Note_on_c, 0, 81, 59
2, 57404, Note_off_c, 0, 81, 0
2, 57408, Note_on_c, 0, 80, 59
2, 57500, Note_off_c, 0, 80, 0
2, 57504, Note_on_c, 0, 78, 59
2, 57596, Note_off_c, 0, 78, 0
2, 57600, Note_on_c, 0, 77, 59
2, 57692, Note_off_c, 0, 77, 0
2, 57696, Note_on_c, 0, 78, 59
2, 57788, Note_off_c, 0, 78, 0
2, 57792, Note_on_c, 0, 80, 59
2, 57884, Note_off_c, 0, 80, 0
2, 57888, Note_on_c, 0, 77, 59
2, 57980, Note_off_c, 0, 77, 0
2, 57984, Note_on_c, 0, 73, 59
2, 58076, Note_off_c, 0, 73, 0
2, 58080, Note_on_c, 0, 75, 59
2, 58172, Note_off_c, 0, 75, 0
2, 58176, Note_on_c, 0, 77, 59
2, 58268, Note_off_c, 0, 77, 0
2, 58272, Note_on_c, 0, 73, 59
2, 58364, Note_off_c, 0, 73, 0
2, 58368, Note_on_c, 0, 78, 59
2, 58460, Note_off_c, 0, 78, 0
2, 58464, Note_on_c, 0, 77, 59
2, 58556, Note_off_c, 0, 77, 0
2, 58560, Note_on_c, 0, 78, 59
2, 58652, Note_off_c, 0, 78, 0
2, 58656, Note_on_c, 0, 80, 59
2, 58748, Note_off_c, 0, 80, 0
2, 58752, Note_on_c, 0, 81, 59
2, 58844, Note_off_c, 0, 81, 0
2, 58848, Note_on_c, 0, 80, 59
2, 58940, Note_off_c, 0, 80, 0
2, 58944, Note_on_c, 0, 81, 59
2, 59036, Note_off_c, 0, 81, 0
2, 59040, Note_on_c, 0, 83, 59
2, 59132, Note_off_c, 0, 83, 0
2, 59136, Note_on_c, 0, 85, 59
2, 59228, Note_off_c, 0, 85, 0
2, 59232, Note_on_c, 0, 84, 59
2, 59324, Note_off_c, 0, 84, 0
2, 59328, Note_on_c, 0, 85, 59
2, 59420, Note_off_c, 0, 85, 0
2, 59424, Note_on_c, 0, 84, 59
2, 59516, Note_off_c, 0, 84, 0
2, 59520, Note_on_c, 0, 85, 59
2, 59612, Note_off_c, 0, 85, 0
2, 59616, Note_on_c, 0, 86, 59
2, 59708, Note_off_c, 0, 86, 0
2, 59712, Note_on_c, 0, 85, 59
2, 59804, Note_off_c, 0, 85, 0
2, 59808, Note_on_c, 0, 83, 59
2, 59900, Note_off_c, 0, 83, 0
2, 59904, Note_on_c, 0, 81, 59
2, 59996, Note_off_c, 0, 81, 0
2, 60000, Note_on_c, 0, 83, 59
2, 60092, Note_off_c, 0, 83, 0
2, 60096, Note_on_c, 0, 81, 59
2, 60188, Note_off_c, 0, 81, 0
2, 60192, Note_on_c, 0, 80, 59
2, 60284, Note_off_c, 0, 80, 0
2, 60288, Note_on_c, 0, 78, 59
2, 60380, Note_off_c, 0, 78, 0
2, 60384, Note_on_c, 0, 81, 59
2, 60476, Note_off_c, 0, 81, 0
2, 60480, Note_on_c, 0, 80, 59
2, 60572, Note_off_c, 0, 80, 0
2, 60576, Note_on_c, 0, 78, 59
2, 60668, Note_off_c, 0, 78, 0
2, 60672, Note_on_c, 0, 76, 59
2, 60764, Note_off_c, 0, 76, 0
2, 60768, Note_on_c, 0, 78, 59
2, 60860, Note_off_c, 0, 78, 0
2, 60864, Note_on_c, 0, 80, 59
2, 60956, Note_off_c, 0, 80, 0
2, 60960, Note_on_c, 0, 76, 59
2, 61052, Note_off_c, 0, 76, 0
2, 61056, Note_on_c, 0, 73, 59
2, 61148, Note_off_c, 0, 73, 0
2, 61152, Note_on_c, 0, 75, 59
2, 61244, Note_off_c, 0, 75, 0
2, 61248, Note_on_c, 0, 76, 59
2, 61340, Note_off_c, 0, 76, 0
2, 61344, Note_on_c, 0, 73, 59
2, 61436, Note_off_c, 0, 73, 0
2, 61440, Note_on_c, 0, 75, 59
2, 61532, Note_off_c, 0, 75, 0
2, 61536, Note_on_c, 0, 76, 59
2, 61628, Note_off_c, 0, 76, 0
2, 61632, Note_on_c, 0, 78, 59
2, 61724, Note_off_c, 0, 78, 0
2, 61728, Note_on_c, 0, 75, 59
2, 61820, Note_off_c, 0, 75, 0
2, 61824, Note_on_c, 0, 72, 59
2, 61916, Note_off_c, 0, 72, 0
2, 61920, Note_on_c, 0, 73, 59
2, 62012, Note_off_c, 0, 73, 0
2, 62016, Note_on_c, 0, 75, 59
2, 62108, Note_off_c, 0, 75, 0
2, 62112, Note_on_c, 0, 72, 59
2, 62204, Note_off_c, 0, 72, 0
2, 62208, Note_on_c, 0, 73, 59
2, 62588, Note_off_c, 0, 73, 0
2, 62592, Note_on_c, 0, 76, 79
2, 62684, Note_off_c, 0, 76, 0
2, 62688, Note_on_c, 0, 74, 79
2, 62780, Note_off_c, 0, 74, 0
2, 62784, Note_on_c, 0, 73, 79
2, 62848, Note_on_c, 0, 71, 79
2, 62876, Note_off_c, 0, 73, 0
2, 62940, Note_off_c, 0, 71, 0
2, 62976, Note_on_c, 0, 69, 79
2, 63068, Note_off_c, 0, 69, 0
2, 63072, Note_on_c, 0, 71, 79
2, 63164, Note_off_c, 0, 71, 0
2, 63168, Note_on_c, 0, 73, 79
2, 63260, Note_off_c, 0, 73, 0
2, 63264, Note_on_c, 0, 74, 79
2, 63356, Note_off_c, 0, 74, 0
2, 63360, Note_on_c, 0, 76, 79
2, 63452, Note_off_c, 0, 76, 0
2, 63456, Note_on_c, 0, 78, 79
2, 63548, Note_off_c, 0, 78, 0
2, 63552, Note_on_c, 0, 80, 79
2, 63644, Note_off_c, 0, 80, 0
2, 63648, Note_on_c, 0, 81, 79
2, 63740, Note_off_c, 0, 81, 0
2, 63744, Note_on_c, 0, 81, 79
2, 63836, Note_off_c, 0, 81, 0
2, 63840, Note_on_c, 0, 80, 79
2, 63932, Note_off_c, 0, 80, 0
2, 63936, Note_on_c, 0, 78, 79
2, 64028, Note_off_c, 0, 78, 0
2, 64032, Note_on_c, 0, 76, 79
2, 64124, Note_off_c, 0, 76, 0
2, 64128, Note_on_c, 0, 76, 79
2, 64220, Note_off_c, 0, 76, 0
2, 64224, Note_on_c, 0, 74, 79
2, 64316, Note_off_c, 0, 74, 0
2, 64320, Note_on_c, 0, 73, 79
2, 64412, Note_off_c, 0, 73, 0
2, 64416, Note_on_c, 0, 71, 79
2, 64508, Note_off_c, 0, 71, 0
2, 64512, Note_on_c, 0, 69, 79
2, 64604, Note_off_c, 0, 69, 0
2, 64608, Note_on_c, 0, 71, 79
2, 64700, Note_off_c, 0, 71, 0
2, 64704, Note_on_c, 0, 73, 79
2, 64796, Note_off_c, 0, 73, 0
2, 64800, Note_on_c, 0, 74, 79
2, 64892, Note_off_c, 0, 74, 0
2, 64896, Note_on_c, 0, 76, 79
2, 64988, Note_off_c, 0, 76, 0
2, 64992, Note_on_c, 0, 78, 79
2, 65084, Note_off_c, 0, 78, 0
2, 65088, Note_on_c, 0, 80, 79
2, 65180, Note_off_c, 0, 80, 0
2, 65184, Note_on_c, 0, 81, 79
2, 65276, Note_off_c, 0, 81, 0
2, 65280, Note_on_c, 0, 82, 79
2, 65468, Note_off_c, 0, 82, 0
2, 65472, Note_on_c, 0, 83, 79
2, 65660, Note_off_c, 0, 83, 0
2, 65664, Note_on_c, 0, 76, 79
2, 65756, Note_off_c, 0, 76, 0
2, 65760, Note_on_c, 0, 74, 79
2, 65852, Note_off_c, 0, 74, 0
2, 65856, Note_on_c, 0, 73, 79
2, 65948, Note_off_c, 0, 73, 0
2, 65952, Note_on_c, 0, 71, 79
2, 66044, Note_off_c, 0, 71, 0
2, 66048, Note_on_c, 0, 69, 79
2, 66140, Note_off_c, 0, 69, 0
2, 66144, Note_on_c, 0, 71, 79
2, 66236, Note_off_c, 0, 71, 0
2, 66240, Note_on_c, 0, 73, 79
2, 66332, Note_off_c, 0, 73, 0
2, 66336, Note_on_c, 0, 74, 79
2, 66428, Note_off_c, 0, 74, 0
2, 66432, Note_on_c, 0, 76, 79
2, 66524, Note_off_c, 0, 76, 0
2, 66528, Note_on_c, 0, 78, 79
2, 66620, Note_off_c, 0, 78, 0
2, 66624, Note_on_c, 0, 80, 79
2, 66716, Note_off_c, 0, 80, 0
2, 66720, Note_on_c, 0, 81, 79
2, 66812, Note_off_c, 0, 81, 0
2, 66816, Note_on_c, 0, 81, 79
2, 66908, Note_off_c, 0, 81, 0
2, 66912, Note_on_c, 0, 80, 79
2, 67004, Note_off_c, 0, 80, 0
2, 67008, Note_on_c, 0, 78, 79
2, 67100, Note_off_c, 0, 78, 0
2, 67104, Note_on_c, 0, 76, 79
2, 67196, Note_off_c, 0, 76, 0
2, 67200, Note_on_c, 0, 76, 79
2, 67292, Note_off_c, 0, 76, 0
2, 67296, Note_on_c, 0, 74, 79
2, 67388, Note_off_c, 0, 74, 0
2, 67392, Note_on_c, 0, 73, 79
2, 67484, Note_off_c, 0, 73, 0
2, 67488, Note_on_c, 0, 71, 79
2, 67580, Note_off_c, 0, 71, 0
2, 67584, Note_on_c, 0, 73, 79
2, 67676, Note_off_c, 0, 73, 0
2, 67680, Note_on_c, 0, 76, 79
2, 67772, Note_off_c, 0, 76, 0
2, 67776, Note_on_c, 0, 69, 79
2, 67868, Note_off_c, 0, 69, 0
2, 67872, Note_on_c, 0, 73, 79
2, 67964, Note_off_c, 0, 73, 0
2, 67968, Note_on_c, 0, 71, 79
2, 68060, Note_off_c, 0, 71, 0
2, 68064, Note_on_c, 0, 74, 79
2, 68156, Note_off_c, 0, 74, 0
2, 68160, Note_on_c, 0, 68, 79
2, 68252, Note_off_c, 0, 68, 0
2, 68256, Note_on_c, 0, 71, 79
2, 68348, Note_off_c, 0, 71, 0
2, 68352, Note_on_c, 0, 69, 79
2, 68732, Note_off_c, 0, 69, 0
2, 68736, Note_on_c, 0, 85, 59
2, 68828, Note_off_c, 0, 85, 0
2, 68832, Note_on_c, 0, 86, 59
2, 68924, Note_off_c, 0, 86, 0
2, 68928, Note_on_c, 0, 85, 59
2, 69020, Note_off_c, 0, 85, 0
2, 69024, Note_on_c, 0, 83, 59
2, 69116, Note_off_c, 0, 83, 0
2, 69120, Note_on_c, 0, 81, 59
2, 69212, Note_off_c, 0, 81, 0
2, 69216, Note_on_c, 0, 83, 59
2, 69308, Note_off_c, 0, 83, 0
2, 69312, Note_on_c, 0, 81, 59
2, 69404, Note_off_c, 0, 81, 0
2, 69408, Note_on_c, 0, 80, 59
2, 69500, Note_off_c, 0, 80, 0
2, 69504, Note_on_c, 0, 78, 59
2, 69596, Note_off_c, 0, 78, 0
2, 69600, Note_on_c, 0, 81, 59
2, 69692, Note_off_c, 0, 81, 0
2, 69696, Note_on_c, 0, 80, 59
2, 69788, Note_off_c, 0, 80, 0
2, 69792, Note_on_c, 0, 78, 59
2, 69884, Note_off_c, 0, 78, 0
2, 69888, Note_on_c, 0, 77, 59
2, 69980, Note_off_c, 0, 77, 0
2, 69984, Note_on_c, 0, 78, 59
2, 70076, Note_off_c, 0, 78, 0
2, 70080, Note_on_c, 0, 80, 59
2, 70172, Note_off_c, 0, 80, 0
2, 70176, Note_on_c, 0, 77, 59
2, 70268, Note_off_c, 0, 77, 0
2, 70272, Note_on_c, 0, 73, 59
2, 70364, Note_off_c, 0, 73, 0
2, 70368, Note_on_c, 0, 75, 59
2, 70460, Note_off_c, 0, 75, 0
2, 70464, Note_on_c, 0, 77, 59
2, 70556, Note_off_c, 0, 77, 0
2, 70560, Note_on_c, 0, 73, 59
2, 70652, Note_off_c, 0, 73, 0
2, 70656, Note_on_c, 0, 78, 59
2, 70748, Note_off_c, 0, 78, 0
2, 70752, Note_on_c, 0, 77, 59
2, 70844, Note_off_c, 0, 77, 0
2, 70848, Note_on_c, 0, 78, 59
2, 70940, Note_off_c, 0, 78, 0
2, 70944, Note_on_c, 0, 80, 59
2, 71036, Note_off_c, 0, 80, 0
2, 71040, Note_on_c, 0, 81, 59
2, 71132, Note_off_c, 0, 81, 0
2, 71136, Note_on_c, 0, 80, 59
2, 71228, Note_off_c, 0, 80, 0
2, 71232, Note_on_c, 0, 81, 59
2, 71324, Note_off_c, 0, 81, 0
2, 71328, Note_on_c, 0, 83, 59
2, 71420, Note_off_c, 0, 83, 0
2, 71424, Note_on_c, 0, 85, 59
2, 71516, Note_off_c, 0, 85, 0
2, 71520, Note_on_c, 0, 84, 59
2, 71612, Note_off_c, 0, 84, 0
2, 71616, Note_on_c, 0, 85, 59
2, 71708, Note_off_c, 0, 85, 0
2, 71712, Note_on_c, 0, 84, 59
2, 71804, Note_off_c, 0, 84, 0
2, 71808, Note_on_c, 0, 85, 61
2, 71900, Note_off_c, 0, 85, 0
2, 71904, Note_on_c, 0, 84, 65
2, 71996, Note_off_c, 0, 84, 0
2, 72000, Note_on_c, 0, 85, 70
2, 72092, Note_off_c, 0, 85, 0
2, 72096, Note_on_c, 0, 82, 74
2, 72188, Note_off_c, 0, 82, 0
2, 72192, Note_on_c, 0, 86, 79
2, 72284, Note_off_c, 0, 86, 0
2, 72288, Note_on_c, 0, 85, 79
2, 72380, Note_off_c, 0, 85, 0
2, 72384, Note_on_c, 0, 86, 78
2, 72476, Note_off_c, 0, 86, 0
2, 72480, Note_on_c, 0, 85, 77
2, 72572, Note_off_c, 0, 85, 0
2, 72576, Note_on_c, 0, 86, 75
2, 72668, Note_off_c, 0, 86, 0
2, 72672, Note_on_c, 0, 85, 74
2, 72764, Note_off_c, 0, 85, 0
2, 72768, Note_on_c, 0, 86, 73
2, 72860, Note_off_c, 0, 86, 0
2, 72864, Note_on_c, 0, 85, 71
2, 72956, Note_off_c, 0, 85, 0
2, 72960, Note_on_c, 0, 86, 70
2, 73052, Note_off_c, 0, 86, 0
2, 73056, Note_on_c, 0, 85, 69
2, 73148, Note_off_c, 0, 85, 0
2, 73152, Note_on_c, 0, 83, 67
2, 73244, Note_off_c, 0, 83, 0
2, 73248, Note_on_c, 0, 81, 66
2, 73340, Note_off_c, 0, 81, 0
2, 73344, Note_on_c, 0, 80, 65
2, 73436, Note_off_c, 0, 80, 0
2, 73440, Note_on_c, 0, 81, 63
2, 73532, Note_off_c, 0, 81, 0
2, 73536, Note_on_c, 0, 83, 62
2, 73628, Note_off_c, 0, 83, 0
2, 73632, Note_on_c, 0, 80, 61
2, 73724, Note_off_c, 0, 80, 0
2, 73728, Note_on_c, 0, 81, 59
2, 73820, Note_off_c, 0, 81, 0
2, 73824, Note_on_c, 0, 83, 59
2, 73916, Note_off_c, 0, 83, 0
2, 73920, Note_on_c, 0, 85, 59
2, 74012, Note_off_c, 0, 85, 0
2, 74016, Note_on_c, 0, 78, 59
2, 74108, Note_off_c, 0, 78, 0
2, 74112, Note_on_c, 0, 77, 59
2, 74204, Note_off_c, 0, 77, 0
2, 74208, Note_on_c, 0, 78, 59
2, 74300, Note_off_c, 0, 78, 0
2, 74304, Note_on_c, 0, 80, 59
2, 74396, Note_off_c, 0, 80, 0
2, 74400, Note_on_c, 0, 77, 59
2, 74492, Note_off_c, 0, 77, 0
2, 74496, Note_on_c, 0, 78, 59
2, 74876, Note_off_c, 0, 78, 0
2, 74880, Note_on_c, 0, 76, 79
2, 74972, Note_off_c, 0, 76, 0
2, 74976, Note_on_c, 0, 74, 79
2, 75068, Note_off_c, 0, 74, 0
2, 75072, Note_on_c, 0, 73, 79
2, 75164, Note_off_c, 0, 73, 0
2, 75168, Note_on_c, 0, 71, 79
2, 75260, Note_off_c, 0, 71, 0
2, 75264, Note_on_c, 0, 69, 79
2, 75356, Note_off_c, 0, 69, 0
2, 75360, Note_on_c, 0, 71, 79
2, 75452, Note_off_c, 0, 71, 0
2, 75456, Note_on_c, 0, 73, 79
2, 75548, Note_off_c, 0, 73, 0
2, 75552, Note_on_c, 0, 74, 79
2, 75644, Note_off_c, 0, 74, 0
2, 75648, Note_on_c, 0, 76, 79
2, 75740, Note_off_c, 0, 76, 0
2, 75744, Note_on_c, 0, 78, 79
2, 75836, Note_off_c, 0, 78, 0
2, 75840, Note_on_c, 0, 80, 79
2, 75932, Note_off_c, 0, 80, 0
2, 75936, Note_on_c, 0, 81, 79
2, 76028, Note_off_c, 0, 81, 0
2, 76032, Note_on_c, 0, 81, 79
2, 76124, Note_off_c, 0, 81, 0
2, 76128, Note_on_c, 0, 80, 79
2, 76220, Note_off_c, 0, 80, 0
2, 76224, Note_on_c, 0, 78, 79
2, 76316, Note_off_c, 0, 78, 0
2, 76320, Note_on_c, 0, 76, 79
2, 76412, Note_off_c, 0, 76, 0
2, 76416, Note_on_c, 0, 76, 79
2, 76508, Note_off_c, 0, 76, 0
2, 76512, Note_on_c, 0, 74, 79
2, 76604, Note_off_c, 0, 74, 0
2, 76608, Note_on_c, 0, 73, 79
2, 76700, Note_off_c, 0, 73, 0
2, 76704, Note_on_c, 0, 71, 79
2, 76796, Note_off_c, 0, 71, 0
2, 76800, Note_on_c, 0, 69, 79
2, 76892, Note_off_c, 0, 69, 0
2, 76896, Note_on_c, 0, 71, 79
2, 76988, Note_off_c, 0, 71, 0
2, 76992, Note_on_c, 0, 73, 79
2, 77084, Note_off_c, 0, 73, 0
2, 77088, Note_on_c, 0, 74, 79
2, 77180, Note_off_c, 0, 74, 0
2, 77184, Note_on_c, 0, 76, 79
2, 77276, Note_off_c, 0, 76, 0
2, 77280, Note_on_c, 0, 78, 79
2, 77372, Note_off_c, 0, 78, 0
2, 77376, Note_on_c, 0, 80, 79
2, 77468, Note_off_c, 0, 80, 0
2, 77472, Note_on_c, 0, 81, 79
2, 77564, Note_off_c, 0, 81, 0
2, 77568, Note_on_c, 0, 82, 79
2, 77756, Note_off_c, 0, 82, 0
2, 77760, Note_on_c, 0, 83, 79
2, 77948, Note_off_c, 0, 83, 0
2, 77952, Note_on_c, 0, 76, 79
2, 78044, Note_off_c, 0, 76, 0
2, 78048, Note_on_c, 0, 74, 79
2, 78140, Note_off_c, 0, 74, 0
2, 78144, Note_on_c, 0, 73, 79
2, 78236, Note_off_c, 0, 73, 0
2, 78240, Note_on_c, 0, 71, 79
2, 78332, Note_off_c, 0, 71, 0
2, 78336, Note_on_c, 0, 69, 79
2, 78428, Note_off_c, 0, 69, 0
2, 78432, Note_on_c, 0, 71, 79
2, 78524, Note_off_c, 0, 71, 0
2, 78528, Note_on_c, 0, 73, 79
2, 78620, Note_off_c, 0, 73, 0
2, 78624, Note_on_c, 0, 74, 79
2, 78716, Note_off_c, 0, 74, 0
2, 78720, Note_on_c, 0, 76, 79
2, 78812, Note_off_c, 0, 76, 0
2, 78816, Note_on_c, 0, 78, 79
2, 78908, Note_off_c, 0, 78, 0
2, 78912, Note_on_c, 0, 80, 79
2, 79004, Note_off_c, 0, 80, 0
2, 79008, Note_on_c, 0, 81, 79
2, 79100, Note_off_c, 0, 81, 0
2, 79104, Note_on_c, 0, 81, 79
2, 79196, Note_off_c, 0, 81, 0
2, 79200, Note_on_c, 0, 80, 79
2, 79292, Note_off_c, 0, 80, 0
2, 79296, Note_on_c, 0, 78, 79
2, 79388, Note_off_c, 0, 78, 0
2, 79392, Note_on_c, 0, 76, 79
2, 79484, Note_off_c, 0, 76, 0
2, 79488, Note_on_c, 0, 76, 79
2, 79580, Note_off_c, 0, 76, 0
2, 79584, Note_on_c, 0, 74, 79
2, 79676, Note_off_c, 0, 74, 0
2, 79680, Note_on_c, 0, 73, 79
2, 79772, Note_off_c, 0, 73, 0
2, 79776, Note_on_c, 0, 71, 79
2, 79868, Note_off_c, 0, 71, 0
2, 79872, Note_on_c, 0, 73, 79
2, 79964, Note_off_c, 0, 73, 0
2, 79968, Note_on_c, 0, 76, 79
2, 80060, Note_off_c, 0, 76, 0
2, 80064, Note_on_c, 0, 69, 79
2, 80156, Note_off_c, 0, 69, 0
2, 80160, Note_on_c, 0, 73, 79
2, 80252, Note_off_c, 0, 73, 0
2, 80256, Note_on_c, 0, 71, 79
2, 80348, Note_off_c, 0, 71, 0
2, 80352, Note_on_c, 0, 74, 79
2, 80444, Note_off_c, 0, 74, 0
2, 80448, Note_on_c, 0, 68, 79
2, 80540, Note_off_c, 0, 68, 0
2, 80544, Note_on_c, 0, 71, 79
2, 80636, Note_off_c, 0, 71, 0
2, 80640, Note_on_c, 0, 69, 79
2, 81020, Note_off_c, 0, 69, 0
2, 81024, Note_on_c, 0, 85, 59
2, 81116, Note_off_c, 0, 85, 0
2, 81120, Note_on_c, 0, 86, 59
2, 81212, Note_off_c, 0, 86, 0
2, 81216, Note_on_c, 0, 85, 59
2, 81308, Note_off_c, 0, 85, 0
2, 81312, Note_on_c, 0, 83, 59
2, 81404, Note_off_c, 0, 83, 0
2, 81408, Note_on_c, 0, 81, 59
2, 81500, Note_off_c, 0, 81, 0
2, 81504, Note_on_c, 0, 83, 59
2, 81596, Note_off_c, 0, 83, 0
2, 81600, Note_on_c, 0, 81, 59
2, 81692, Note_off_c, 0, 81, 0
2, 81696, Note_on_c, 0, 80, 59
2, 81788, Note_off_c, 0, 80, 0
2, 81792, Note_on_c, 0, 78, 59
2, 81884, Note_off_c, 0, 78, 0
2, 81888, Note_on_c, 0, 81, 59
2, 81980, Note_off_c, 0, 81, 0
2, 81984, Note_on_c, 0, 80, 59
2, 82076, Note_off_c, 0, 80, 0
2, 82080, Note_on_c, 0, 78, 59
2, 82172, Note_off_c, 0, 78, 0
2, 82176, Note_on_c, 0, 77, 59
2, 82268, Note_off_c, 0, 77, 0
2, 82272, Note_on_c, 0, 78, 59
2, 82364, Note_off_c, 0, 78, 0
2, 82368, Note_on_c, 0, 80, 59
2, 82460, Note_off_c, 0, 80, 0
2, 82464, Note_on_c, 0, 77, 59
2, 82556, Note_off_c, 0, 77, 0
2, 82560, Note_on_c, 0, 73, 59
2, 82652, Note_off_c, 0, 73, 0
2, 82656, Note_on_c, 0, 75, 59
2, 82748, Note_off_c, 0, 75, 0
2, 82752, Note_on_c, 0, 77, 59
2, 82844, Note_off_c, 0, 77, 0
2, 82848, Note_on_c, 0, 73, 59
2, 82940, Note_off_c, 0, 73, 0
2, 82944, Note_on_c, 0, 78, 59
2, 83036, Note_off_c, 0, 78, 0
2, 83040, Note_on_c, 0, 77, 59
2, 83132, Note_off_c, 0, 77, 0
2, 83136, Note_on_c, 0, 78, 59
2, 83228, Note_off_c, 0, 78, 0
2, 83232, Note_on_c, 0, 80, 59
2, 83324, Note_off_c, 0, 80, 0
2, 83328, Note_on_c, 0, 81, 59
2, 83420, Note_off_c, 0, 81, 0
2, 83424, Note_on_c, 0, 80, 59
2, 83516, Note_off_c, 0, 80, 0
2, 83520, Note_on_c, 0, 81, 59
2, 83612, Note_off_c, 0, 81, 0
2, 83616, Note_on_c, 0, 83, 59
2, 83708, Note_off_c, 0, 83, 0
2, 83712, Note_on_c, 0, 85, 59
2, 83804, Note_off_c, 0, 85, 0
2, 83808, Note_on_c, 0, 84, 59
2, 83900, Note_off_c, 0, 84, 0
2, 83904, Note_on_c, 0, 85, 59
2, 83996, Note_off_c, 0, 85, 0
2, 84000, Note_on_c, 0, 84, 59
2, 84092, Note_off_c, 0, 84, 0
2, 84096, Note_on_c, 0, 85, 61
2, 84188, Note_off_c, 0, 85, 0
2, 84192, Note_on_c, 0, 84, 65
2, 84284, Note_off_c, 0, 84, 0
2, 84288, Note_on_c, 0, 85, 70
2, 84380, Note_off_c, 0, 85, 0
2, 84384, Note_on_c, 0, 82, 74
2, 84476, Note_off_c, 0, 82, 0
2, 84480, Note_on_c, 0, 86, 79
2, 84572, Note_off_c, 0, 86, 0
2, 84576, Note_on_c, 0, 85, 79
2, 84668, Note_off_c, 0, 85, 0
2, 84672, Note_on_c, 0, 86, 78
2, 84764, Note_off_c, 0, 86, 0
2, 84768, Note_on_c, 0, 85, 77
2, 84860, Note_off_c, 0, 85, 0
2, 84864, Note_on_c, 0, 86, 75
2, 84956, Note_off_c, 0, 86, 0
2, 84960, Note_on_c, 0, 85, 74
2, 85052, Note_off_c, 0, 85, 0
2, 85056, Note_on_c, 0, 86, 73
2, 85148, Note_off_c, 0, 86, 0
2, 85152, Note_on_c, 0, 85, 71
2, 85244, Note_off_c, 0, 85, 0
2, 85248, Note_on_c, 0, 86, 70
2, 85340, Note_off_c, 0, 86, 0
2, 85344, Note_on_c, 0, 85, 69
2, 85436, Note_off_c, 0, 85, 0
2, 85440, Note_on_c, 0, 83, 67
2, 85532, Note_off_c, 0, 83, 0
2, 85536, Note_on_c, 0, 81, 66
2, 85628, Note_off_c, 0, 81, 0
2, 85632, Note_on_c, 0, 80, 65
2, 85724, Note_off_c, 0, 80, 0
2, 85728, Note_on_c, 0, 81, 63
2, 85820, Note_off_c, 0, 81, 0
2, 85824, Note_on_c, 0, 83, 62
2, 85916, Note_off_c, 0, 83, 0
2, 85920, Note_on_c, 0, 80, 61
2, 86012, Note_off_c, 0, 80, 0
2, 86016, Note_on_c, 0, 81, 59
2, 86108, Note_off_c, 0, 81, 0
2, 86112, Note_on_c, 0, 83, 59
2, 86204, Note_off_c, 0, 83, 0
2, 86208, Note_on_c, 0, 85, 59
2, 86300, Note_off_c, 0, 85, 0
2, 86304, Note_on_c, 0, 78, 59
2, 86396, Note_off_c, 0, 78, 0
2, 86400, Note_on_c, 0, 77, 59
2, 86492, Note_off_c, 0, 77, 0
2, 86496, Note_on_c, 0, 78, 59
2, 86588, Note_off_c, 0, 78, 0
2, 86592, Note_on_c, 0, 80, 59
2, 86684, Note_off_c, 0, 80, 0
2, 86688, Note_on_c, 0, 77, 59
2, 86780, Note_off_c, 0, 77, 0
2, 86784, Note_on_c, 0, 78, 59
2, 87164, Note_off_c, 0, 78, 0
2, 87168, Note_on_c, 0, 81, 79
2, 87168, Note_on_c, 0, 69, 79
2, 87356, Note_off_c, 0, 81, 0
2, 87356, Note_off_c, 0, 69, 0
2, 87360, Note_on_c, 0, 83, 79
2, 87360, Note_on_c, 0, 71, 79
2, 87548, Note_off_c, 0, 83, 0
2, 87548, Note_off_c, 0, 71, 0
2, 87552, Note_on_c, 0, 85, 79
2, 87552, Note_on_c, 0, 73, 79
2, 87740, Note_off_c, 0, 85, 0
2, 87740, Note_off_c, 0, 73, 0
2, 87936, Note_on_c, 0, 81, 79
2, 87936, Note_on_c, 0, 69, 79
2, 88124, Note_off_c, 0, 81, 0
2, 88124, Note_off_c, 0, 69, 0
2, 88128, Note_on_c, 0, 83, 79
2, 88128, Note_on_c, 0, 71, 79
2, 88316, Note_off_c, 0, 83, 0
2, 88316, Note_off_c, 0, 71, 0
2, 88320, Note_on_c, 0, 85, 79
2, 88320, Note_on_c, 0, 73, 79
2, 88508, Note_off_c, 0, 85, 0
2, 88508, Note_off_c, 0, 73, 0
2, 88512, Note_on_c, 0, 83, 79
2, 88512, Note_on_c, 0, 71, 79
2, 88700, Note_off_c, 0, 83, 0
2, 88700, Note_off_c, 0, 71, 0
2, 88704, Note_on_c, 0, 81, 79
2, 88704, Note_on_c, 0, 69, 79
2, 88892, Note_off_c, 0, 81, 0
2, 88892, Note_off_c, 0, 69, 0
2, 88896, Note_on_c, 0, 80, 79
2, 88896, Note_on_c, 0, 68, 79
2, 89084, Note_off_c, 0, 80, 0
2, 89084, Note_off_c, 0, 68, 0
2, 89088, Note_on_c, 0, 78, 79
2, 89088, Note_on_c, 0, 66, 79
2, 89276, Note_off_c, 0, 78, 0
2, 89276, Note_off_c, 0, 66, 0
2, 89280, Note_on_c, 0, 80, 79
2, 89280, Note_on_c, 0, 68, 79
2, 89468, Note_off_c, 0, 80, 0
2, 89468, Note_off_c, 0, 68, 0
2, 89472, Note_on_c, 0, 81, 79
2, 89472, Note_on_c, 0, 69, 79
2, 89660, Note_off_c, 0, 81, 0
2, 89660, Note_off_c, 0, 69, 0
2, 89664, Note_on_c, 0, 83, 79
2, 89664, Note_on_c, 0, 71, 79
2, 89852, Note_off_c, 0, 83, 0
2, 89852, Note_off_c, 0, 71, 0
2, 89856, Note_on_c, 0, 80, 79
2, 89856, Note_on_c, 0, 68, 79
2, 90044, Note_off_c, 0, 80, 0
2, 90044, Note_off_c, 0, 68, 0
2, 90048, Note_on_c, 0, 76, 79
2, 90048, Note_on_c, 0, 64, 79
2, 90236, Note_off_c, 0, 76, 0
2, 90236, Note_off_c, 0, 64, 0
2, 90240, Note_on_c, 0, 81, 79
2, 90240, Note_on_c, 0, 69, 79
2, 90428, Note_off_c, 0, 81, 0
2, 90428, Note_off_c, 0, 69, 0
2, 90432, Note_on_c, 0, 83, 79
2, 90432, Note_on_c, 0, 71, 79
2, 90620, Note_off_c, 0, 83, 0
2, 90620, Note_off_c, 0, 71, 0
2, 90624, Note_on_c, 0, 85, 79
2, 90624, Note_on_c, 0, 73, 79
2, 91004, Note_off_c, 0, 85, 0
2, 91004, Note_off_c, 0, 73, 0
2, 91008, Note_on_c, 0, 81, 79
2, 91008, Note_on_c, 0, 69, 79
2, 91196, Note_off_c, 0, 81, 0
2, 91196, Note_off_c, 0, 69, 0
2, 91200, Note_on_c, 0, 83, 79
2, 91200, Note_on_c, 0, 71, 79
2, 91388, Note_off_c, 0, 83, 0
2, 91388, Note_off_c, 0, 71, 0
2, 91392, Note_on_c, 0, 85, 79
2, 91392, Note_on_c, 0, 73, 79
2, 91580, Note_off_c, 0, 85, 0
2, 91580, Note_off_c, 0, 73, 0
2, 91584, Note_on_c, 0, 83, 79
2, 91584, Note_on_c, 0, 71, 79
2, 91772, Note_off_c, 0, 83, 0
2, 91772, Note_off_c, 0, 71, 0
2, 91776, Note_on_c, 0, 81, 79
2, 91776, Note_on_c, 0, 69, 79
2, 91964, Note_off_c, 0, 81, 0
2, 91964, Note_off_c, 0, 69, 0
2, 91968, Note_on_c, 0, 80, 79
2, 91968, Note_on_c, 0, 68, 79
2, 92156, Note_off_c, 0, 80, 0
2, 92156, Note_off_c, 0, 68, 0
2, 92160, Note_on_c, 0, 78, 79
2, 92160, Note_on_c, 0, 66, 79
2, 92348, Note_off_c, 0, 78, 0
2, 92348, Note_off_c, 0, 66, 0
2, 92352, Note_on_c, 0, 83, 79
2, 92352, Note_on_c, 0, 71, 79
2, 92540, Note_off_c, 0, 83, 0
2, 92540, Note_off_c, 0, 71, 0
2, 92544, Note_on_c, 0, 80, 79
2, 92544, Note_on_c, 0, 68, 79
2, 92732, Note_off_c, 0, 80, 0
2, 92732, Note_off_c, 0, 68, 0
2, 92736, Note_on_c, 0, 76, 79
2, 92736, Note_on_c, 0, 64, 79
2, 92924, Note_off_c, 0, 76, 0
2, 92924, Note_off_c, 0, 64, 0
2, 92928, Note_on_c, 0, 81, 79
2, 92928, Note_on_c, 0, 69, 79
2, 93308, Note_off_c, 0, 81, 0
2, 93308, Note_off_c, 0, 69, 0
2, 93312, Note_on_c, 0, 81, 79
2, 93312, Note_on_c, 0, 69, 79
2, 93500, Note_off_c, 0, 81, 0
2, 93500, Note_off_c, 0, 69, 0
2, 93504, Note_on_c, 0, 83, 79
2, 93504, Note_on_c, 0, 71, 79
2, 93692, Note_off_c, 0, 83, 0
2, 93692, Note_off_c, 0, 71, 0
2, 93696, Note_on_c, 0, 85, 79
2, 93696, Note_on_c, 0, 73, 79
2, 93884, Note_off_c, 0, 85, 0
2, 93884, Note_off_c, 0, 73, 0
2, 94080, Note_on_c, 0, 81, 79
2, 94080, Note_on_c, 0, 69, 79
2, 94268, Note_off_c, 0, 81, 0
2, 94268, Note_off_c, 0, 69, 0
2, 94272, Note_on_c, 0, 83, 79
2, 94272, Note_on_c, 0, 71, 79
2, 94460, Note_off_c, 0, 83, 0
2, 94460, Note_off_c, 0, 71, 0
2, 94464, Note_on_c, 0, 85, 79
2, 94464, Note_on_c, 0, 73, 79
2, 94652, Note_off_c, 0, 85, 0
2, 94652, Note_off_c, 0, 73, 0
2, 94656, Note_on_c, 0, 83, 79
2, 94656, Note_on_c, 0, 71, 79
2, 94844, Note_off_c, 0, 83, 0
2, 94844, Note_off_c, 0, 71, 0
2, 94848, Note_on_c, 0, 81, 79
2, 94848, Note_on_c, 0, 69, 79
2, 95036, Note_off_c, 0, 81, 0
2, 95036, Note_off_c, 0, 69, 0
2, 95040, Note_on_c, 0, 80, 79
2, 95040, Note_on_c, 0, 68, 79
2, 95228, Note_off_c, 0, 80, 0
2, 95228, Note_off_c, 0, 68, 0
2, 95232, Note_on_c, 0, 78, 79
2, 95232, Note_on_c, 0, 66, 79
2, 95420, Note_off_c, 0, 78, 0
2, 95420, Note_off_c, 0, 66, 0
2, 95424, Note_on_c, 0, 80, 79
2, 95424, Note_on_c, 0, 68, 79
2, 95612, Note_off_c, 0, 80, 0
2, 95612, Note_off_c, 0, 68, 0
2, 95616, Note_on_c, 0, 81, 79
2, 95616, Note_on_c, 0, 69, 79
2, 95804, Note_off_c, 0, 81, 0
2, 95804, Note_off_c, 0, 69, 0
2, 95808, Note_on_c, 0, 83, 79
2, 95808, Note_on_c, 0, 71, 79
2, 95996, Note_off_c, 0, 83, 0
2, 95996, Note_off_c, 0, 71, 0
2, 96000, Note_on_c, 0, 80, 79
2, 96000, Note_on_c, 0, 68, 79
2, 96188, Note_off_c, 0, 80, 0
2, 96188, Note_off_c, 0, 68, 0
2, 96192, Note_on_c, 0, 76, 79
2, 96192, Note_on_c, 0, 64, 79
2, 96380, Note_off_c, 0, 76, 0
2, 96380, Note_off_c, 0, 64, 0
2, 96384, Note_on_c, 0, 81, 79
2, 96384, Note_on_c, 0, 69, 79
2, 96572, Note_off_c, 0, 81, 0
2, 96572, Note_off_c, 0, 69, 0
2, 96576, Note_on_c, 0, 83, 79
2, 96576, Note_on_c, 0, 71, 79
2, 96764, Note_off_c, 0, 83, 0
2, 96764, Note_off_c, 0, 71, 0
2, 96768, Note_on_c, 0, 85, 79
2, 96768, Note_on_c, 0, 73, 79
2, 97148, Note_off_c, 0, 85, 0
2, 97148, Note_off_c, 0, 73, 0
2, 97152, Note_on_c, 0, 81, 79
2, 97152, Note_on_c, 0, 69, 79
2, 97340, Note_off_c, 0, 81, 0
2, 97340, Note_off_c, 0, 69, 0
2, 97344, Note_on_c, 0, 83, 79
2, 97344, Note_on_c, 0, 71, 79
2, 97532, Note_off_c, 0, 83, 0
2, 97532, Note_off_c, 0, 71, 0
2, 97536, Note_on_c, 0, 85, 79
2, 97536, Note_on_c, 0, 73, 79
2, 97724, Note_off_c, 0, 85, 0
2, 97724, Note_off_c, 0, 73, 0
2, 97728, Note_on_c, 0, 83, 79
2, 97728, Note_on_c, 0, 71, 79
2, 97916, Note_off_c, 0, 83, 0
2, 97916, Note_off_c, 0, 71, 0
2, 97920, Note_on_c, 0, 81, 79
2, 97920, Note_on_c, 0, 69, 79
2, 98108, Note_off_c, 0, 81, 0
2, 98108, Note_off_c, 0, 69, 0
2, 98112, Note_on_c, 0, 80, 79
2, 98112, Note_on_c, 0, 68, 79
2, 98300, Note_off_c, 0, 80, 0
2, 98300, Note_off_c, 0, 68, 0
2, 98304, Note_on_c, 0, 78, 79
2, 98304, Note_on_c, 0, 66, 79
2, 98492, Note_off_c, 0, 78, 0
2, 98492, Note_off_c, 0, 66, 0
2, 98496, Note_on_c, 0, 83, 79
2, 98496, Note_on_c, 0, 71, 79
2, 98684, Note_off_c, 0, 83, 0
2, 98684, Note_off_c, 0, 71, 0
2, 98688, Note_on_c, 0, 80, 79
2, 98688, Note_on_c, 0, 68, 79
2, 98876, Note_off_c, 0, 80, 0
2, 98876, Note_off_c, 0, 68, 0
2, 98880, Note_on_c, 0, 76, 79
2, 98880, Note_on_c, 0, 64, 79
2, 99068, Note_off_c, 0, 76, 0
2, 99068, Note_off_c, 0, 64, 0
2, 99072, Key_signature, 0, "major"
2, 99072, Note_on_c, 0, 81, 79
2, 99072, Note_on_c, 0, 69, 79
2, 99452, Note_off_c, 0, 81, 0
2, 99452, Note_off_c, 0, 69, 0
2, 99456, Note_on_c, 0, 71, 59
2, 99548, Note_off_c, 0, 71, 0
2, 99552, Note_on_c, 0, 69, 59
2, 99644, Note_off_c, 0, 69, 0
2, 99648, Note_on_c, 0, 68, 59
2, 99740, Note_off_c, 0, 68, 0
2, 99744, Note_on_c, 0, 69, 59
2, 99836, Note_off_c, 0, 69, 0
2, 99840, Note_on_c, 0, 72, 59
2, 100028, Note_off_c, 0, 72, 0
2, 100224, Note_on_c, 0, 74, 59
2, 100316, Note_off_c, 0, 74, 0
2, 100320, Note_on_c, 0, 72, 59
2, 100412, Note_off_c, 0, 72, 0
2, 100416, Note_on_c, 0, 71, 59
2, 100508, Note_off_c, 0, 71, 0
2, 100512, Note_on_c, 0, 72, 59
2, 100604, Note_off_c, 0, 72, 0
2, 100608, Note_on_c, 0, 76, 59
2, 100796, Note_off_c, 0, 76, 0
2, 100992, Note_on_c, 0, 77, 59
2, 101084, Note_off_c, 0, 77, 0
2, 101088, Note_on_c, 0, 76, 59
2, 101180, Note_off_c, 0, 76, 0
2, 101184, Note_on_c, 0, 75, 59
2, 101276, Note_off_c, 0, 75, 0
2, 101280, Note_on_c, 0, 76, 59
2, 101372, Note_off_c, 0, 76, 0
2, 101376, Note_on_c, 0, 83, 59
2, 101468, Note_off_c, 0, 83, 0
2, 101472, Note_on_c, 0, 81, 59
2, 101564, Note_off_c, 0, 81, 0
2, 101568, Note_on_c, 0, 80, 59
2, 101660, Note_off_c, 0, 80, 0
2, 101664, Note_on_c, 0, 81, 59
2, 101756, Note_off_c, 0, 81, 0
2, 101760, Note_on_c, 0, 83, 59
2, 101852, Note_off_c, 0, 83, 0
2, 101856, Note_on_c, 0, 81, 59
2, 101948, Note_off_c, 0, 81, 0
2, 101952, Note_on_c, 0, 80, 59
2, 102044, Note_off_c, 0, 80, 0
2, 102048, Note_on_c, 0, 81, 59
2, 102140, Note_off_c, 0, 81, 0
2, 102144, Note_on_c, 0, 84, 59
2, 102524, Note_off_c, 0, 84, 0
2, 102528, Note_on_c, 0, 81, 59
2, 102716, Note_off_c, 0, 81, 0
2, 102720, Note_on_c, 0, 84, 59
2, 102908, Note_off_c, 0, 84, 0
2, 102912, Note_on_c, 0, 79, 59
2, 102944, Note_off_c, 0, 79, 0
2, 102944, Note_on_c, 0, 81, 59
2, 102976, Note_off_c, 0, 81, 0
2, 102976, Note_on_c, 0, 83, 59
2, 103104, Note_on_c, 0, 78, 59
2, 103104, Note_on_c, 0, 81, 59
2, 103164, Note_off_c, 0, 83, 0
2, 103292, Note_off_c, 0, 78, 0
2, 103292, Note_off_c, 0, 81, 0
2, 103296, Note_on_c, 0, 76, 59
2, 103296, Note_on_c, 0, 79, 59
2, 103484, Note_off_c, 0, 76, 0
2, 103484, Note_off_c, 0, 79, 0
2, 103488, Note_on_c, 0, 78, 59
2, 103488, Note_on_c, 0, 81, 59
2, 103676, Note_off_c, 0, 78, 0
2, 103676, Note_off_c, 0, 81, 0
2, 103680, Note_on_c, 0, 79, 59
2, 103712, Note_off_c, 0, 79, 0
2, 103712, Note_on_c, 0, 81, 59
2, 103744, Note_off_c, 0, 81, 0
2, 103744, Note_on_c, 0, 83, 59
2, 103872, Note_on_c, 0, 78, 59
2, 103872, Note_on_c, 0, 81, 59
2, 103932, Note_off_c, 0, 83, 0
2, 104060, Note_off_c, 0, 78, 0
2, 104060, Note_off_c, 0, 81, 0
2, 104064, Note_on_c, 0, 76, 59
2, 104064, Note_on_c, 0, 79, 59
2, 104252, Note_off_c, 0, 76, 0
2, 104252, Note_off_c, 0, 79, 0
2, 104256, Note_on_c, 0, 81, 59
2, 104256, Note_on_c, 0, 78, 59
2, 104444, Note_off_c, 0, 81, 0
2, 104444, Note_off_c, 0, 78, 0
2, 104448, Note_on_c, 0, 79, 59
2, 104480, Note_off_c, 0, 79, 0
2, 104480, Note_on_c, 0, 81, 59
2, 104512, Note_off_c, 0, 81, 0
2, 104512, Note_on_c, 0, 83, 59
2, 104640, Note_on_c, 0, 78, 59
2, 104640, Note_on_c, 0, 81, 59
2, 104700, Note_off_c, 0, 83, 0
2, 104828, Note_off_c, 0, 78, 0
2, 104828, Note_off_c, 0, 81, 0
2, 104832, Note_on_c, 0, 76, 59
2, 104832, Note_on_c, 0, 79, 59
2, 105020, Note_off_c, 0, 76, 0
2, 105020, Note_off_c, 0, 79, 0
2, 105024, Note_on_c, 0, 78, 59
2, 105024, Note_on_c, 0, 75, 59
2, 105212, Note_off_c, 0, 78, 0
2, 105212, Note_off_c, 0, 75, 0
2, 105216, Note_on_c, 0, 76, 59
2, 105596, Note_off_c, 0, 76, 0
2, 105600, Note_on_c, 0, 71, 59
2, 105692, Note_off_c, 0, 71, 0
2, 105696, Note_on_c, 0, 69, 59
2, 105788, Note_off_c, 0, 69, 0
2, 105792, Note_on_c, 0, 68, 59
2, 105884, Note_off_c, 0, 68, 0
2, 105888, Note_on_c, 0, 69, 59
2, 105980, Note_off_c, 0, 69, 0
2, 105984, Note_on_c, 0, 72, 59
2, 106172, Note_off_c, 0, 72, 0
2, 106368, Note_on_c, 0, 74, 59
2, 106460, Note_off_c, 0, 74, 0
2, 106464, Note_on_c, 0, 72, 59
2, 106556, Note_off_c, 0, 72, 0
2, 106560, Note_on_c, 0, 71, 59
2, 106652, Note_off_c, 0, 71, 0
2, 106656, Note_on_c, 0, 72, 59
2, 106748, Note_off_c, 0, 72, 0
2, 106752, Note_on_c, 0, 76, 59
2, 106940, Note_off_c, 0, 76, 0
2, 107136, Note_on_c, 0, 77, 59
2, 107228, Note_off_c, 0, 77, 0
2, 107232, Note_on_c, 0, 76, 59
2, 107324, Note_off_c, 0, 76, 0
2, 107328, Note_on_c, 0, 75, 59
2, 107420, Note_off_c, 0, 75, 0
2, 107424, Note_on_c, 0, 76, 59
2, 107516, Note_off_c, 0, 76, 0
2, 107520, Note_on_c, 0, 83, 59
2, 107612, Note_off_c, 0, 83, 0
2, 107616, Note_on_c, 0, 81, 59
2, 107708, Note_off_c, 0, 81, 0
2, 107712, Note_on_c, 0, 80, 59
2, 107804, Note_off_c, 0, 80, 0
2, 107808, Note_on_c, 0, 81, 59
2, 107900, Note_off_c, 0, 81, 0
2, 107904, Note_on_c, 0, 83, 59
2, 107996, Note_off_c, 0, 83, 0
2, 108000, Note_on_c, 0, 81, 59
2, 108092, Note_off_c, 0, 81, 0
2, 108096, Note_on_c, 0, 80, 59
2, 108188, Note_off_c, 0, 80, 0
2, 108192, Note_on_c, 0, 81, 59
2, 108284, Note_off_c, 0, 81, 0
2, 108288, Note_on_c, 0, 84, 59
2, 108668, Note_off_c, 0, 84, 0
2, 108672, Note_on_c, 0, 81, 59
2, 108860, Note_off_c, 0, 81, 0
2, 108864, Note_on_c, 0, 84, 59
2, 109052, Note_off_c, 0, 84, 0
2, 109056, Note_on_c, 0, 79, 59
2, 109088, Note_off_c, 0, 79, 0
2, 109088, Note_on_c, 0, 81, 59
2, 109120, Note_off_c, 0, 81, 0
2, 109120, Note_on_c, 0, 83, 59
2, 109248, Note_on_c, 0, 78, 59
2, 109248, Note_on_c, 0, 81, 59
2, 109308, Note_off_c, 0, 83, 0
2, 109436, Note_off_c, 0, 78, 0
2, 109436, Note_off_c, 0, 81, 0
2, 109440, Note_on_c, 0, 76, 59
2, 109440, Note_on_c, 0, 79, 59
2, 109628, Note_off_c, 0, 76, 0
2, 109628, Note_off_c, 0, 79, 0
2, 109632, Note_on_c, 0, 78, 59
2, 109632, Note_on_c, 0, 81, 59
2, 109820, Note_off_c, 0, 78, 0
2, 109820, Note_off_c, 0, 81, 0
2, 109824, Note_on_c, 0, 79, 59
2, 109856, Note_off_c, 0, 79, 0
2, 109856, Note_on_c, 0, 81, 59
2, 109888, Note_off_c, 0, 81, 0
2, 109888, Note_on_c, 0, 83, 59
2, 110016, Note_on_c, 0, 78, 59
2, 110016, Note_on_c, 0, 81, 59
2, 110076, Note_off_c, 0, 83, 0
2, 110204, Note_off_c, 0, 78, 0
2, 110204, Note_off_c, 0, 81, 0
2, 110208, Note_on_c, 0, 76, 59
2, 110208, Note_on_c, 0, 79, 59
2, 110396, Note_off_c, 0, 76, 0
2, 110396, Note_off_c, 0, 79, 0
2, 110400, Note_on_c, 0, 81, 59
2, 110400, Note_on_c, 0, 78, 59
2, 110588, Note_off_c, 0, 81, 0
2, 110588, Note_off_c, 0, 78, 0
2, 110592, Note_on_c, 0, 79, 59
2, 110624, Note_off_c, 0, 79, 0
2, 110624, Note_on_c, 0, 81, 59
2, 110656, Note_off_c, 0, 81, 0
2, 110656, Note_on_c, 0, 83, 59
2, 110784, Note_on_c, 0, 78, 59
2, 110784, Note_on_c, 0, 81, 59
2, 110844, Note_off_c, 0, 83, 0
2, 110972, Note_off_c, 0, 78, 0
2, 110972, Note_off_c, 0, 81, 0
2, 110976, Note_on_c, 0, 76, 59
2, 110976, Note_on_c, 0, 79, 59
2, 111164, Note_off_c, 0, 76, 0
2, 111164, Note_off_c, 0, 79, 0
2, 111168, Note_on_c, 0, 78, 59
2, 111168, Note_on_c, 0, 75, 59
2, 111356, Note_off_c, 0, 78, 0
2, 111356, Note_off_c, 0, 75, 0
2, 111360, Note_on_c, 0, 76, 59
2, 111740, Note_off_c, 0, 76, 0
2, 111744, Note_on_c, 0, 76, 66
2, 111744, Note_on_c, 0, 72, 66
2, 111932, Note_off_c, 0, 76, 0
2, 111932, Note_off_c, 0, 72, 0
2, 111936, Note_on_c, 0, 77, 66
2, 111936, Note_on_c, 0, 74, 66
2, 112124, Note_off_c, 0, 77, 0
2, 112124, Note_off_c, 0, 74, 0
2, 112128, Note_on_c, 0, 79, 66
2, 112128, Note_on_c, 0, 76, 66
2, 112316, Note_off_c, 0, 79, 0
2, 112316, Note_off_c, 0, 76, 0
2, 112320, Note_on_c, 0, 79, 66
2, 112320, Note_on_c, 0, 76, 66
2, 112508, Note_off_c, 0, 79, 0
2, 112508, Note_off_c, 0, 76, 0
2, 112512, Note_on_c, 0, 81, 66
2, 112604, Note_off_c, 0, 81, 0
2, 112608, Note_on_c, 0, 79, 66
2, 112700, Note_off_c, 0, 79, 0
2, 112704, Note_on_c, 0, 77, 66
2, 112796, Note_off_c, 0, 77, 0
2, 112800, Note_on_c, 0, 76, 66
2, 112892, Note_off_c, 0, 76, 0
2, 112896, Note_on_c, 0, 74, 66
2, 112896, Note_on_c, 0, 71, 66
2, 113084, Note_off_c, 0, 71, 0
2, 113088, Note_on_c, 0, 67, 66
2, 113276, Note_off_c, 0, 74, 0
2, 113276, Note_off_c, 0, 67, 0
2, 113280, Note_on_c, 0, 76, 66
2, 113280, Note_on_c, 0, 72, 66
2, 113468, Note_off_c, 0, 76, 0
2, 113468, Note_off_c, 0, 72, 0
2, 113472, Note_on_c, 0, 77, 66
2, 113472, Note_on_c, 0, 74, 66
2, 113660, Note_off_c, 0, 77, 0
2, 113660, Note_off_c, 0, 74, 0
2, 113664, Note_on_c, 0, 79, 66
2, 113664, Note_on_c, 0, 76, 66
2, 113852, Note_off_c, 0, 79, 0
2, 113852, Note_off_c, 0, 76, 0
2, 113856, Note_on_c, 0, 79, 66
2, 113856, Note_on_c, 0, 76, 66
2, 114044, Note_off_c, 0, 79, 0
2, 114044, Note_off_c, 0, 76, 0
2, 114048, Note_on_c, 0, 81, 66
2, 114140, Note_off_c, 0, 81, 0
2, 114144, Note_on_c, 0, 79, 66
2, 114236, Note_off_c, 0, 79, 0
2, 114240, Note_on_c, 0, 77, 66
2, 114332, Note_off_c, 0, 77, 0
2, 114336, Note_on_c, 0, 76, 66
2, 114428, Note_off_c, 0, 76, 0
2, 114432, Note_on_c, 0, 74, 66
2, 114432, Note_on_c, 0, 71, 66
2, 114812, Note_off_c, 0, 74, 0
2, 114812, Note_off_c, 0, 71, 0
2, 114816, Note_on_c, 0, 72, 66
2, 114816, Note_on_c, 0, 69, 66
2, 115004, Note_off_c, 0, 72, 0
2, 115004, Note_off_c, 0, 69, 0
2, 115008, Note_on_c, 0, 74, 66
2, 115008, Note_on_c, 0, 71, 66
2, 115196, Note_off_c, 0, 74, 0
2, 115196, Note_off_c, 0, 71, 0
2, 115200, Note_on_c, 0, 76, 66
2, 115200, Note_on_c, 0, 72, 66
2, 115388, Note_off_c, 0, 76, 0
2, 115388, Note_off_c, 0, 72, 0
2, 115392, Note_on_c, 0, 76, 66
2, 115392, Note_on_c, 0, 72, 66
2, 115580, Note_off_c, 0, 76, 0
2, 115580, Note_off_c, 0, 72, 0
2, 115584, Note_on_c, 0, 77, 66
2, 115676, Note_off_c, 0, 77, 0
2, 115680, Note_on_c, 0, 76, 66
2, 115772, Note_off_c, 0, 76, 0
2, 115776, Note_on_c, 0, 74, 66
2, 115868, Note_off_c, 0, 74, 0
2, 115872, Note_on_c, 0, 72, 66
2, 115964, Note_off_c, 0, 72, 0
2, 115968, Note_on_c, 0, 71, 66
2, 115968, Note_on_c, 0, 68, 66
2, 116156, Note_off_c, 0, 68, 0
2, 116160, Note_on_c, 0, 64, 66
2, 116348, Note_off_c, 0, 71, 0
2, 116348, Note_off_c, 0, 64, 0
2, 116352, Note_on_c, 0, 72, 66
2, 116352, Note_on_c, 0, 69, 66
2, 116540, Note_off_c, 0, 72, 0
2, 116540, Note_off_c, 0, 69, 0
2, 116544, Note_on_c, 0, 74, 66
2, 116544, Note_on_c, 0, 71, 66
2, 116732, Note_off_c, 0, 74, 0
2, 116732, Note_off_c, 0, 71, 0
2, 116736, Note_on_c, 0, 76, 66
2, 116736, Note_on_c, 0, 72, 66
2, 116924, Note_off_c, 0, 76, 0
2, 116924, Note_off_c, 0, 72, 0
2, 116928, Note_on_c, 0, 76, 66
2, 116928, Note_on_c, 0, 72, 66
2, 117116, Note_off_c, 0, 76, 0
2, 117116, Note_off_c, 0, 72, 0
2, 117120, Note_on_c, 0, 77, 66
2, 117212, Note_off_c, 0, 77, 0
2, 117216, Note_on_c, 0, 76, 66
2, 117308, Note_off_c, 0, 76, 0
2, 117312, Note_on_c, 0, 74, 66
2, 117404, Note_off_c, 0, 74, 0
2, 117408, Note_on_c, 0, 72, 66
2, 117500, Note_off_c, 0, 72, 0
2, 117504, Note_on_c, 0, 71, 59
2, 117504, Note_on_c, 0, 68, 59
2, 117884, Note_off_c, 0, 71, 0
2, 117884, Note_off_c, 0, 68, 0
2, 117888, Note_on_c, 0, 71, 59
2, 117980, Note_off_c, 0, 71, 0
2, 117984, Note_on_c, 0, 69, 59
2, 118076, Note_off_c, 0, 69, 0
2, 118080, Note_on_c, 0, 68, 59
2, 118172, Note_off_c, 0, 68, 0
2, 118176, Note_on_c, 0, 69, 59
2, 118268, Note_off_c, 0, 69, 0
2, 118272, Note_on_c, 0, 72, 59
2, 118460, Note_off_c, 0, 72, 0
2, 118656, Note_on_c, 0, 74, 59
2, 118748, Note_off_c, 0, 74, 0
2, 118752, Note_on_c, 0, 72, 59
2, 118844, Note_off_c, 0, 72, 0
2, 118848, Note_on_c, 0, 71, 59
2, 118940, Note_off_c, 0, 71, 0
2, 118944, Note_on_c, 0, 72, 59
2, 119036, Note_off_c, 0, 72, 0
2, 119040, Note_on_c, 0, 76, 59
2, 119228, Note_off_c, 0, 76, 0
2, 119424, Note_on_c, 0, 77, 59
2, 119516, Note_off_c, 0, 77, 0
2, 119520, Note_on_c, 0, 76, 59
2, 119612, Note_off_c, 0, 76, 0
2, 119616, Note_on_c, 0, 75, 59
2, 119708, Note_off_c, 0, 75, 0
2, 119712, Note_on_c, 0, 76, 59
2, 119804, Note_off_c, 0, 76, 0
2, 119808, Note_on_c, 0, 83, 61
2, 119900, Note_off_c, 0, 83, 0
2, 119904, Note_on_c, 0, 81, 62
2, 119996, Note_off_c, 0, 81, 0
2, 120000, Note_on_c, 0, 80, 65
2, 120092, Note_off_c, 0, 80, 0
2, 120096, Note_on_c, 0, 81, 67
2, 120188, Note_off_c, 0, 81, 0
2, 120192, Note_on_c, 0, 83, 70
2, 120284, Note_off_c, 0, 83, 0
2, 120288, Note_on_c, 0, 81, 71
2, 120380, Note_off_c, 0, 81, 0
2, 120384, Note_on_c, 0, 80, 74
2, 120476, Note_off_c, 0, 80, 0
2, 120480, Note_on_c, 0, 81, 77
2, 120572, Note_off_c, 0, 81, 0
2, 120576, Note_on_c, 0, 84, 79
2, 120956, Note_off_c, 0, 84, 0
2, 120960, Note_on_c, 0, 81, 59
2, 121148, Note_off_c, 0, 81, 0
2, 121152, Note_on_c, 0, 83, 59
2, 121340, Note_off_c, 0, 83, 0
2, 121344, Note_on_c, 0, 84, 59
2, 121532, Note_off_c, 0, 84, 0
2, 121536, Note_on_c, 0, 83, 59
2, 121724, Note_off_c, 0, 83, 0
2, 121728, Note_on_c, 0, 81, 59
2, 121916, Note_off_c, 0, 81, 0
2, 121920, Note_on_c, 0, 80, 59
2, 122108, Note_off_c, 0, 80, 0
2, 122112, Note_on_c, 0, 81, 59
2, 122300, Note_off_c, 0, 81, 0
2, 122304, Note_on_c, 0, 76, 59
2, 122492, Note_off_c, 0, 76, 0
2, 122496, Note_on_c, 0, 77, 59
2, 122684, Note_off_c, 0, 77, 0
2, 122688, Note_on_c, 0, 74, 59
2, 122876, Note_off_c, 0, 74, 0
2, 122880, Note_on_c, 0, 72, 59
2, 123260, Note_off_c, 0, 72, 0
2, 123264, Note_on_c, 0, 71, 59
2, 123548, Note_off_c, 0, 71, 0
2, 123552, Note_on_c, 0, 69, 59
2, 123596, Note_off_c, 0, 69, 0
2, 123600, Note_on_c, 0, 71, 59
2, 123644, Note_off_c, 0, 71, 0
2, 123648, Note_on_c, 0, 69, 59
2, 124028, Note_off_c, 0, 69, 0
2, 124032, Note_on_c, 0, 76, 66
2, 124032, Note_on_c, 0, 72, 66
2, 124220, Note_off_c, 0, 76, 0
2, 124220, Note_off_c, 0, 72, 0
2, 124224, Note_on_c, 0, 77, 66
2, 124224, Note_on_c, 0, 74, 66
2, 124412, Note_off_c, 0, 77, 0
2, 124412, Note_off_c, 0, 74, 0
2, 124416, Note_on_c, 0, 79, 66
2, 124416, Note_on_c, 0, 76, 66
2, 124604, Note_off_c, 0, 79, 0
2, 124604, Note_off_c, 0, 76, 0
2, 124608, Note_on_c, 0, 79, 66
2, 124608, Note_on_c, 0, 76, 66
2, 124796, Note_off_c, 0, 79, 0
2, 124796, Note_off_c, 0, 76, 0
2, 124800, Note_on_c, 0, 81, 66
2, 124892, Note_off_c, 0, 81, 0
2, 124896, Note_on_c, 0, 79, 66
2, 124988, Note_off_c, 0, 79, 0
2, 124992, Note_on_c, 0, 77, 66
2, 125084, Note_off_c, 0, 77, 0
2, 125088, Note_on_c, 0, 76, 66
2, 125180, Note_off_c, 0, 76, 0
2, 125184, Note_on_c, 0, 74, 66
2, 125184, Note_on_c, 0, 71, 66
2, 125372, Note_off_c, 0, 71, 0
2, 125376, Note_on_c, 0, 67, 66
2, 125564, Note_off_c, 0, 74, 0
2, 125564, Note_off_c, 0, 67, 0
2, 125568, Note_on_c, 0, 76, 66
2, 125568, Note_on_c, 0, 72, 66
2, 125756, Note_off_c, 0, 76, 0
2, 125756, Note_off_c, 0, 72, 0
2, 125760, Note_on_c, 0, 77, 66
2, 125760, Note_on_c, 0, 74, 66
2, 125948, Note_off_c, 0, 77, 0
2, 125948, Note_off_c, 0, 74, 0
2, 125952, Note_on_c, 0, 79, 66
2, 125952, Note_on_c, 0, 76, 66
2, 126140, Note_off_c, 0, 79, 0
2, 126140, Note_off_c, 0, 76, 0
2, 126144, Note_on_c, 0, 79, 66
2, 126144, Note_on_c, 0, 76, 66
2, 126332, Note_off_c, 0, 79, 0
2, 126332, Note_off_c, 0, 76, 0
2, 126336, Note_on_c, 0, 81, 66
2, 126428, Note_off_c, 0, 81, 0
2, 126432, Note_on_c, 0, 79, 66
2, 126524, Note_off_c, 0, 79, 0
2, 126528, Note_on_c, 0, 77, 66
2, 126620, Note_off_c, 0, 77, 0
2, 126624, Note_on_c, 0, 76, 66
2, 126716, Note_off_c, 0, 76, 0
2, 126720, Note_on_c, 0, 74, 66
2, 126720, Note_on_c, 0, 71, 66
2, 127100, Note_off_c, 0, 74, 0
2, 127100, Note_off_c, 0, 71, 0
2, 127104, Note_on_c, 0, 72, 66
2, 127104, Note_on_c, 0, 69, 66
2, 127292, Note_off_c, 0, 72, 0
2, 127292, Note_off_c, 0, 69, 0
2, 127296, Note_on_c, 0, 74, 66
2, 127296, Note_on_c, 0, 71, 66
2, 127484, Note_off_c, 0, 74, 0
2, 127484, Note_off_c, 0, 71, 0
2, 127488, Note_on_c, 0, 76, 66
2, 127488, Note_on_c, 0, 72, 66
2, 127676, Note_off_c, 0, 76, 0
2, 127676, Note_off_c, 0, 72, 0
2, 127680, Note_on_c, 0, 76, 66
2, 127680, Note_on_c, 0, 72, 66
2, 127868, Note_off_c, 0, 76, 0
2, 127868, Note_off_c, 0, 72, 0
2, 127872, Note_on_c, 0, 77, 66
2, 127964, Note_off_c, 0, 77, 0
2, 127968, Note_on_c, 0, 76, 66
2, 128060, Note_off_c, 0, 76, 0
2, 128064, Note_on_c, 0, 74, 66
2, 128156, Note_off_c, 0, 74, 0
2, 128160, Note_on_c, 0, 72, 66
2, 128252, Note_off_c, 0, 72, 0
2, 128256, Note_on_c, 0, 71, 66
2, 128256, Note_on_c, 0, 68, 66
2, 128444, Note_off_c, 0, 68, 0
2, 128448, Note_on_c, 0, 64, 66
2, 128636, Note_off_c, 0, 71, 0
2, 128636, Note_off_c, 0, 64, 0
2, 128640, Note_on_c, 0, 72, 66
2, 128640, Note_on_c, 0, 69, 66
2, 128828, Note_off_c, 0, 72, 0
2, 128828, Note_off_c, 0, 69, 0
2, 128832, Note_on_c, 0, 74, 66
2, 128832, Note_on_c, 0, 71, 66
2, 129020, Note_off_c, 0, 74, 0
2, 129020, Note_off_c, 0, 71, 0
2, 129024, Note_on_c, 0, 76, 66
2, 129024, Note_on_c, 0, 72, 66
2, 129212, Note_off_c, 0, 76, 0
2, 129212, Note_off_c, 0, 72, 0
2, 129216, Note_on_c, 0, 76, 66
2, 129216, Note_on_c, 0, 72, 66
2, 129404, Note_off_c, 0, 76, 0
2, 129404, Note_off_c, 0, 72, 0
2, 129408, Note_on_c, 0, 77, 66
2, 129500, Note_off_c, 0, 77, 0
2, 129504, Note_on_c, 0, 76, 66
2, 129596, Note_off_c, 0, 76, 0
2, 129600, Note_on_c, 0, 74, 66
2, 129692, Note_off_c, 0, 74, 0
2, 129696, Note_on_c, 0, 72, 66
2, 129788, Note_off_c, 0, 72, 0
2, 129792, Note_on_c, 0, 71, 59
2, 129792, Note_on_c, 0, 68, 59
2, 130172, Note_off_c, 0, 71, 0
2, 130172, Note_off_c, 0, 68, 0
2, 130176, Note_on_c, 0, 71, 59
2, 130268, Note_off_c, 0, 71, 0
2, 130272, Note_on_c, 0, 69, 59
2, 130364, Note_off_c, 0, 69, 0
2, 130368, Note_on_c, 0, 68, 59
2, 130460, Note_off_c, 0, 68, 0
2, 130464, Note_on_c, 0, 69, 59
2, 130556, Note_off_c, 0, 69, 0
2, 130560, Note_on_c, 0, 72, 59
2, 130748, Note_off_c, 0, 72, 0
2, 130944, Note_on_c, 0, 74, 59
2, 131036, Note_off_c, 0, 74, 0
2, 131040, Note_on_c, 0, 72, 59
2, 131132, Note_off_c, 0, 72, 0
2, 131136, Note_on_c, 0, 71, 59
2, 131228, Note_off_c, 0, 71, 0
2, 131232, Note_on_c, 0, 72, 59
2, 131324, Note_off_c, 0, 72, 0
2, 131328, Note_on_c, 0, 76, 59
2, 131516, Note_off_c, 0, 76, 0
2, 131712, Note_on_c, 0, 77, 59
2, 131804, Note_off_c, 0, 77, 0
2, 131808, Note_on_c, 0, 76, 59
2, 131900, Note_off_c, 0, 76, 0
2, 131904, Note_on_c, 0, 75, 59
2, 131996, Note_off_c, 0, 75, 0
2, 132000, Note_on_c, 0, 76, 59
2, 132092, Note_off_c, 0, 76, 0
2, 132096, Note_on_c, 0, 83, 61
2, 132188, Note_off_c, 0, 83, 0
2, 132192, Note_on_c, 0, 81, 62
2, 132284, Note_off_c, 0, 81, 0
2, 132288, Note_on_c, 0, 80, 65
2, 132380, Note_off_c, 0, 80, 0
2, 132384, Note_on_c, 0, 81, 67
2, 132476, Note_off_c, 0, 81, 0
2, 132480, Note_on_c, 0, 83, 70
2, 132572, Note_off_c, 0, 83, 0
2, 132576, Note_on_c, 0, 81, 71
2, 132668, Note_off_c, 0, 81, 0
2, 132672, Note_on_c, 0, 80, 74
2, 132764, Note_off_c, 0, 80, 0
2, 132768, Note_on_c, 0, 81, 77
2, 132860, Note_off_c, 0, 81, 0
2, 132864, Note_on_c, 0, 84, 79
2, 133244, Note_off_c, 0, 84, 0
2, 133248, Note_on_c, 0, 81, 59
2, 133436, Note_off_c, 0, 81, 0
2, 133440, Note_on_c, 0, 83, 59
2, 133628, Note_off_c, 0, 83, 0
2, 133632, Note_on_c, 0, 84, 59
2, 133820, Note_off_c, 0, 84, 0
2, 133824, Note_on_c, 0, 83, 59
2, 134012, Note_off_c, 0, 83, 0
2, 134016, Note_on_c, 0, 81, 59
2, 134204, Note_off_c, 0, 81, 0
2, 134208, Note_on_c, 0, 80, 59
2, 134396, Note_off_c, 0, 80, 0
2, 134400, Note_on_c, 0, 81, 59
2, 134588, Note_off_c, 0, 81, 0
2, 134592, Note_on_c, 0, 76, 59
2, 134780, Note_off_c, 0, 76, 0
2, 134784, Note_on_c, 0, 77, 59
2, 134972, Note_off_c, 0, 77, 0
2, 134976, Note_on_c, 0, 74, 59
2, 135164, Note_off_c, 0, 74, 0
2, 135168, Note_on_c, 0, 72, 59
2, 135548, Note_off_c, 0, 72, 0
2, 135568, Note_on_c, 0, 71, 59
2, 135840, Note_on_c, 0, 69, 59
2, 135852, Note_off_c, 0, 71, 0
2, 135884, Note_off_c, 0, 69, 0
2, 135888, Note_on_c, 0, 71, 59
2, 135932, Note_off_c, 0, 71, 0
2, 135936, Key_signature, 3, "major"
2, 135936, Note_on_c, 0, 69, 59
2, 136316, Note_off_c, 0, 69, 0
2, 136320, Note_on_c, 0, 69, 79
2, 136412, Note_off_c, 0, 69, 0
2, 136416, Note_on_c, 0, 81, 79
2, 136508, Note_off_c, 0, 81, 0
2, 136512, Note_on_c, 0, 71, 79
2, 136604, Note_off_c, 0, 71, 0
2, 136608, Note_on_c, 0, 83, 79
2, 136700, Note_off_c, 0, 83, 0
2, 136704, Note_on_c, 0, 73, 79
2, 136796, Note_off_c, 0, 73, 0
2, 136800, Note_on_c, 0, 85, 79
2, 136892, Note_off_c, 0, 85, 0
2, 137088, Note_on_c, 0, 69, 79
2, 137180, Note_off_c, 0, 69, 0
2, 137184, Note_on_c, 0, 81, 79
2, 137276, Note_off_c, 0, 81, 0
2, 137280, Note_on_c, 0, 71, 79
2, 137372, Note_off_c, 0, 71, 0
2, 137376, Note_on_c, 0, 83, 79
2, 137468, Note_off_c, 0, 83, 0
2, 137472, Note_on_c, 0, 73, 79
2, 137564, Note_off_c, 0, 73, 0
2, 137568, Note_on_c, 0, 85, 79
2, 137660, Note_off_c, 0, 85, 0
2, 137664, Note_on_c, 0, 71, 79
2, 137756, Note_off_c, 0, 71, 0
2, 137760, Note_on_c, 0, 83, 79
2, 137852, Note_off_c, 0, 83, 0
2, 137856, Note_on_c, 0, 69, 79
2, 137948, Note_off_c, 0, 69, 0
2, 137952, Note_on_c, 0, 81, 79
2, 138044, Note_off_c, 0, 81, 0
2, 138048, Note_on_c, 0, 68, 79
2, 138140, Note_off_c, 0, 68, 0
2, 138144, Note_on_c, 0, 80, 79
2, 138236, Note_off_c, 0, 80, 0
2, 138240, Note_on_c, 0, 66, 79
2, 138332, Note_off_c, 0, 66, 0
2, 138336, Note_on_c, 0, 78, 79
2, 138428, Note_off_c, 0, 78, 0
2, 138432, Note_on_c, 0, 68, 79
2, 138524, Note_off_c, 0, 68, 0
2, 138528, Note_on_c, 0, 80, 79
2, 138620, Note_off_c, 0, 80, 0
2, 138624, Note_on_c, 0, 69, 79
2, 138716, Note_off_c, 0, 69, 0
2, 138720, Note_on_c, 0, 81, 79
2, 138812, Note_off_c, 0, 81, 0
2, 138816, Note_on_c, 0, 71, 79
2, 138908, Note_off_c, 0, 71, 0
2, 138912, Note_on_c, 0, 83, 79
2, 139004, Note_off_c, 0, 83, 0
2, 139008, Note_on_c, 0, 68, 79
2, 139100, Note_off_c, 0, 68, 0
2, 139104, Note_on_c, 0, 80, 79
2, 139196, Note_off_c, 0, 80, 0
2, 139200, Note_on_c, 0, 64, 79
2, 139292, Note_off_c, 0, 64, 0
2, 139296, Note_on_c, 0, 76, 79
2, 139388, Note_off_c, 0, 76, 0
2, 139392, Note_on_c, 0, 69, 79
2, 139484, Note_off_c, 0, 69, 0
2, 139488, Note_on_c, 0, 81, 79
2, 139580, Note_off_c, 0, 81, 0
2, 139584, Note_on_c, 0, 71, 79
2, 139676, Note_off_c, 0, 71, 0
2, 139680, Note_on_c, 0, 83, 79
2, 139772, Note_off_c, 0, 83, 0
2, 139776, Note_on_c, 0, 73, 79
2, 139868, Note_off_c, 0, 73, 0
2, 139872, Note_on_c, 0, 85, 79
2, 139964, Note_off_c, 0, 85, 0
2, 140160, Note_on_c, 0, 69, 79
2, 140252, Note_off_c, 0, 69, 0
2, 140256, Note_on_c, 0, 81, 79
2, 140348, Note_off_c, 0, 81, 0
2, 140352, Note_on_c, 0, 71, 79
2, 140444, Note_off_c, 0, 71, 0
2, 140448, Note_on_c, 0, 83, 79
2, 140540, Note_off_c, 0, 83, 0
2, 140544, Note_on_c, 0, 73, 79
2, 140636, Note_off_c, 0, 73, 0
2, 140640, Note_on_c, 0, 85, 79
2, 140732, Note_off_c, 0, 85, 0
2, 140736, Note_on_c, 0, 71, 79
2, 140828, Note_off_c, 0, 71, 0
2, 140832, Note_on_c, 0, 83, 79
2, 140924, Note_off_c, 0, 83, 0
2, 140928, Note_on_c, 0, 69, 79
2, 141020, Note_off_c, 0, 69, 0
2, 141024, Note_on_c, 0, 81, 79
2, 141116, Note_off_c, 0, 81, 0
2, 141120, Note_on_c, 0, 68, 79
2, 141212, Note_off_c, 0, 68, 0
2, 141216, Note_on_c, 0, 80, 79
2, 141308, Note_off_c, 0, 80, 0
2, 141312, Note_on_c, 0, 66, 79
2, 141404, Note_off_c, 0, 66, 0
2, 141408, Note_on_c, 0, 78, 79
2, 141488, Note_on_c, 0, 71, 79
2, 141500, Note_off_c, 0, 78, 0
2, 141580, Note_off_c, 0, 71, 0
2, 141600, Note_on_c, 0, 83, 79
2, 141692, Note_off_c, 0, 83, 0
2, 141696, Note_on_c, 0, 68, 79
2, 141788, Note_off_c, 0, 68, 0
2, 141792, Note_on_c, 0, 80, 79
2, 141884, Note_off_c, 0, 80, 0
2, 141888, Note_on_c, 0, 64, 79
2, 141980, Note_off_c, 0, 64, 0
2, 141984, Note_on_c, 0, 76, 79
2, 142076, Note_off_c, 0, 76, 0
2, 142080, Note_on_c, 0, 81, 79
2, 142080, Note_on_c, 0, 69, 79
2, 142460, Note_off_c, 0, 81, 0
2, 142460, Note_off_c, 0, 69, 0
2, 142464, Note_on_c, 0, 69, 79
2, 142556, Note_off_c, 0, 69, 0
2, 142560, Note_on_c, 0, 81, 79
2, 142652, Note_off_c, 0, 81, 0
2, 142656, Note_on_c, 0, 71, 79
2, 142748, Note_off_c, 0, 71, 0
2, 142752, Note_on_c, 0, 83, 79
2, 142844, Note_off_c, 0, 83, 0
2, 142848, Note_on_c, 0, 73, 79
2, 142940, Note_off_c, 0, 73, 0
2, 142944, Note_on_c, 0, 85, 79
2, 143036, Note_off_c, 0, 85, 0
2, 143232, Note_on_c, 0, 69, 79
2, 143324, Note_off_c, 0, 69, 0
2, 143328, Note_on_c, 0, 81, 79
2, 143420, Note_off_c, 0, 81, 0
2, 143424, Note_on_c, 0, 71, 79
2, 143516, Note_off_c, 0, 71, 0
2, 143520, Note_on_c, 0, 83, 79
2, 143612, Note_off_c, 0, 83, 0
2, 143616, Note_on_c, 0, 73, 79
2, 143708, Note_off_c, 0, 73, 0
2, 143712, Note_on_c, 0, 85, 79
2, 143804, Note_off_c, 0, 85, 0
2, 143808, Note_on_c, 0, 71, 79
2, 143900, Note_off_c, 0, 71, 0
2, 143904, Note_on_c, 0, 83, 79
2, 143996, Note_off_c, 0, 83, 0
2, 144000, Note_on_c, 0, 69, 79
2, 144092, Note_off_c, 0, 69, 0
2, 144096, Note_on_c, 0, 81, 79
2, 144188, Note_off_c, 0, 81, 0
2, 144192, Note_on_c, 0, 68, 79
2, 144284, Note_off_c, 0, 68, 0
2, 144288, Note_on_c, 0, 80, 79
2, 144380, Note_off_c, 0, 80, 0
2, 144384, Note_on_c, 0, 66, 79
2, 144476, Note_off_c, 0, 66, 0
2, 144480, Note_on_c, 0, 78, 79
2, 144572, Note_off_c, 0, 78, 0
2, 144576, Note_on_c, 0, 68, 79
2, 144668, Note_off_c, 0, 68, 0
2, 144672, Note_on_c, 0, 80, 79
2, 144764, Note_off_c, 0, 80, 0
2, 144768, Note_on_c, 0, 69, 79
2, 144860, Note_off_c, 0, 69, 0
2, 144864, Note_on_c, 0, 81, 79
2, 144956, Note_off_c, 0, 81, 0
2, 144960, Note_on_c, 0, 71, 79
2, 145052, Note_off_c, 0, 71, 0
2, 145056, Note_on_c, 0, 83, 79
2, 145148, Note_off_c, 0, 83, 0
2, 145152, Note_on_c, 0, 68, 79
2, 145244, Note_off_c, 0, 68, 0
2, 145248, Note_on_c, 0, 80, 79
2, 145340, Note_off_c, 0, 80, 0
2, 145344, Note_on_c, 0, 64, 79
2, 145436, Note_off_c, 0, 64, 0
2, 145440, Note_on_c, 0, 76, 79
2, 145532, Note_off_c, 0, 76, 0
2, 145536, Note_on_c, 0, 69, 79
2, 145628, Note_off_c, 0, 69, 0
2, 145632, Note_on_c, 0, 81, 79
2, 145724, Note_off_c, 0, 81, 0
2, 145728, Note_on_c, 0, 71, 79
2, 145820, Note_off_c, 0, 71, 0
2, 145824, Note_on_c, 0, 83, 79
2, 145916, Note_off_c, 0, 83, 0
2, 145920, Note_on_c, 0, 73, 79
2, 146012, Note_off_c, 0, 73, 0
2, 146016, Note_on_c, 0, 85, 79
2, 146108, Note_off_c, 0, 85, 0
2, 146304, Note_on_c, 0, 69, 79
2, 146396, Note_off_c, 0, 69, 0
2, 146400, Note_on_c, 0, 81, 79
2, 146492, Note_off_c, 0, 81, 0
2, 146496, Note_on_c, 0, 71, 79
2, 146588, Note_off_c, 0, 71, 0
2, 146592, Note_on_c, 0, 83, 79
2, 146684, Note_off_c, 0, 83, 0
2, 146688, Note_on_c, 0, 73, 79
2, 146780, Note_off_c, 0, 73, 0
2, 146784, Note_on_c, 0, 85, 79
2, 146876, Note_off_c, 0, 85, 0
2, 146880, Note_on_c, 0, 71, 79
2, 146972, Note_off_c, 0, 71, 0
2, 146976, Note_on_c, 0, 83, 79
2, 147068, Note_off_c, 0, 83, 0
2, 147072, Note_on_c, 0, 69, 79
2, 147164, Note_off_c, 0, 69, 0
2, 147168, Note_on_c, 0, 81, 79
2, 147260, Note_off_c, 0, 81, 0
2, 147264, Note_on_c, 0, 68, 79
2, 147356, Note_off_c, 0, 68, 0
2, 147360, Note_on_c, 0, 80, 79
2, 147452, Note_off_c, 0, 80, 0
2, 147456, Note_on_c, 0, 66, 79
2, 147548, Note_off_c, 0, 66, 0
2, 147552, Note_on_c, 0, 78, 79
2, 147632, Note_on_c, 0, 71, 79
2, 147644, Note_off_c, 0, 78, 0
2, 147724, Note_off_c, 0, 71, 0
2, 147744, Note_on_c, 0, 83, 79
2, 147836, Note_off_c, 0, 83, 0
2, 147840, Note_on_c, 0, 68, 79
2, 147932, Note_off_c, 0, 68, 0
2, 147936, Note_on_c, 0, 80, 79
2, 148028, Note_off_c, 0, 80, 0
2, 148032, Note_on_c, 0, 64, 79
2, 148124, Note_off_c, 0, 64, 0
2, 148128, Note_on_c, 0, 76, 79
2, 148220, Note_off_c, 0, 76, 0
2, 148224, Note_on_c, 0, 81, 79
2, 148224, Note_on_c, 0, 69, 79
2, 148604, Note_off_c, 0, 81, 0
2, 148604, Note_off_c, 0, 69, 0
2, 148608, Note_on_c, 0, 73, 79
2, 148608, Note_on_c, 0, 85, 79
2, 148796, Note_off_c, 0, 73, 0
2, 148892, Note_off_c, 0, 85, 0
2, 148896, Note_on_c, 0, 85, 79
2, 148988, Note_off_c, 0, 85, 0
2, 148992, Note_on_c, 0, 73, 79
2, 149004, Note_on_c, 0, 76, 79
2, 149020, Note_on_c, 0, 81, 79
2, 149036, Note_on_c, 0, 85, 79
2, 149368, Note_off_c, 0, 76, 0
2, 149368, Note_off_c, 0, 81, 0
2, 149372, Note_off_c, 0, 73, 0
2, 149752, Note_off_c, 0, 85, 0
2, 149760, Note_on_c, 0, 73, 79
2, 149772, Note_on_c, 0, 76, 79
2, 149788, Note_on_c, 0, 81, 79
2, 149804, Note_on_c, 0, 85, 79
2, 150136, Note_off_c, 0, 76, 0
2, 150136, Note_off_c, 0, 81, 0
2, 150140, Note_off_c, 0, 73, 0
2, 150520, Note_off_c, 0, 85, 0
2, 150528, Note_on_c, 0, 86, 79
2, 150620, Note_off_c, 0, 86, 0
2, 150624, Note_on_c, 0, 85, 79
2, 150716, Note_off_c, 0, 85, 0
2, 150720, Note_on_c, 0, 83, 79
2, 150812, Note_off_c, 0, 83, 0
2, 150816, Note_on_c, 0, 85, 79
2, 150908, Note_off_c, 0, 85, 0
2, 150912, Note_on_c, 0, 86, 79
2, 151004, Note_off_c, 0, 86, 0
2, 151008, Note_on_c, 0, 85, 79
2, 151100, Note_off_c, 0, 85, 0
2, 151104, Note_on_c, 0, 83, 79
2, 151196, Note_off_c, 0, 83, 0
2, 151200, Note_on_c, 0, 85, 79
2, 151292, Note_off_c, 0, 85, 0
2, 151296, Note_on_c, 0, 86, 79
2, 151296, Note_on_c, 0, 81, 79
2, 151296, Note_on_c, 0, 78, 79
2, 152060, Note_off_c, 0, 86, 0
2, 152060, Note_off_c, 0, 81, 0
2, 152060, Note_off_c, 0, 78, 0
2, 152064, Note_on_c, 0, 86, 79
2, 152096, Note_off_c, 0, 86, 0
2, 152096, Note_on_c, 0, 85, 79
2, 152096, Note_on_c, 0, 81, 79
2, 152096, Note_on_c, 0, 76, 79
2, 152256, Note_on_c, 0, 86, 79
2, 152284, Note_off_c, 0, 85, 0
2, 152284, Note_off_c, 0, 81, 0
2, 152284, Note_off_c, 0, 76, 0
2, 152288, Note_off_c, 0, 86, 0
2, 152292, Note_on_c, 0, 85, 79
2, 152292, Note_on_c, 0, 81, 79
2, 152292, Note_on_c, 0, 76, 79
2, 152448, Note_on_c, 0, 86, 79
2, 152480, Note_off_c, 0, 85, 0
2, 152480, Note_off_c, 0, 81, 0
2, 152480, Note_off_c, 0, 76, 0
2, 152480, Note_off_c, 0, 86, 0
2, 152480, Note_on_c, 0, 81, 79
2, 152480, Note_on_c, 0, 76, 79
2, 152480, Note_on_c, 0, 85, 79
2, 152640, Note_on_c, 0, 86, 79
2, 152668, Note_off_c, 0, 81, 0
2, 152668, Note_off_c, 0, 76, 0
2, 152668, Note_off_c, 0, 85, 0
2, 152672, Note_off_c, 0, 86, 0
2, 152676, Note_on_c, 0, 76, 79
2, 152676, Note_on_c, 0, 81, 79
2, 152676, Note_on_c, 0, 85, 79
2, 152832, Note_on_c, 0, 76, 79
2, 152832, Note_on_c, 0, 80, 79
2, 152832, Note_on_c, 0, 83, 79
2, 152860, Note_off_c, 0, 76, 0
2, 152860, Note_off_c, 0, 81, 0
2, 152860, Note_off_c, 0, 85, 0
2, 153404, Note_off_c, 0, 83, 0
2, 153408, Note_on_c, 0, 88, 79
2, 153596, Note_off_c, 0, 76, 0
2, 153596, Note_off_c, 0, 80, 0
2, 153596, Note_off_c, 0, 88, 0
2, 153600, Note_on_c, 0, 73, 79
2, 153612, Note_on_c, 0, 76, 79
2, 153628, Note_on_c, 0, 81, 79
2, 153644, Note_on_c, 0, 85, 79
2, 153976, Note_off_c, 0, 76, 0
2, 153976, Note_off_c, 0, 81, 0
2, 153980, Note_off_c, 0, 73, 0
2, 154360, Note_off_c, 0, 85, 0
2, 154368, Note_on_c, 0, 73, 79
2, 154380, Note_on_c, 0, 76, 79
2, 154396, Note_on_c, 0, 81, 79
2, 154412, Note_on_c, 0, 85, 79
2, 154744, Note_off_c, 0, 76, 0
2, 154744, Note_off_c, 0, 81, 0
2, 154748, Note_off_c, 0, 73, 0
2, 155128, Note_off_c, 0, 85, 0
2, 155136, Note_on_c, 0, 86, 79
2, 155228, Note_off_c, 0, 86, 0
2, 155232, Note_on_c, 0, 85, 79
2, 155324, Note_off_c, 0, 85, 0
2, 155328, Note_on_c, 0, 83, 79
2, 155420, Note_off_c, 0, 83, 0
2, 155424, Note_on_c, 0, 85, 79
2, 155516, Note_off_c, 0, 85, 0
2, 155520, Note_on_c, 0, 86, 79
2, 155612, Note_off_c, 0, 86, 0
2, 155616, Note_on_c, 0, 85, 79
2, 155708, Note_off_c, 0, 85, 0
2, 155712, Note_on_c, 0, 83, 79
2, 155804, Note_off_c, 0, 83, 0
2, 155808, Note_on_c, 0, 85, 79
2, 155900, Note_off_c, 0, 85, 0
2, 155904, Note_on_c, 0, 86, 79
2, 155904, Note_on_c, 0, 81, 79
2, 155904, Note_on_c, 0, 78, 79
2, 156668, Note_off_c, 0, 86, 0
2, 156668, Note_off_c, 0, 81, 0
2, 156668, Note_off_c, 0, 78, 0
2, 156672, Note_on_c, 0, 86, 79
2, 156704, Note_off_c, 0, 86, 0
2, 156704, Note_on_c, 0, 85, 79
2, 156704, Note_on_c, 0, 76, 79
2, 156704, Note_on_c, 0, 81, 79
2, 157440, Note_off_c, 0, 85, 64
2, 157440, Note_off_c, 0, 76, 64
2, 157440, Note_off_c, 0, 81, 64
2, 157440, Note_on_c, 0, 85, 79
2, 157472, Note_off_c, 0, 85, 0
2, 157472, Note_on_c, 0, 80, 79
2, 157472, Note_on_c, 0, 83, 79
2, 157472, Note_on_c, 0, 76, 79
2, 157632, Note_on_c, 0, 85, 79
2, 157660, Note_off_c, 0, 80, 0
2, 157660, Note_off_c, 0, 83, 0
2, 157660, Note_off_c, 0, 76, 0
2, 157664, Note_off_c, 0, 85, 0
2, 157668, Note_on_c, 0, 80, 79
2, 157668, Note_on_c, 0, 76, 79
2, 157668, Note_on_c, 0, 83, 79
2, 157824, Note_on_c, 0, 85, 79
2, 157856, Note_off_c, 0, 80, 0
2, 157856, Note_off_c, 0, 76, 0
2, 157856, Note_off_c, 0, 83, 0
2, 157856, Note_off_c, 0, 85, 0
2, 157856, Note_on_c, 0, 80, 79
2, 157856, Note_on_c, 0, 76, 79
2, 157856, Note_on_c, 0, 83, 79
2, 158016, Note_on_c, 0, 85, 79
2, 158044, Note_off_c, 0, 80, 0
2, 158044, Note_off_c, 0, 76, 0
2, 158044, Note_off_c, 0, 83, 0
2, 158048, Note_off_c, 0, 85, 0
2, 158052, Note_on_c, 0, 80, 79
2, 158052, Note_on_c, 0, 76, 79
2, 158052, Note_on_c, 0, 83, 79
2, 158208, Note_on_c, 0, 81, 59
2, 158236, Note_off_c, 0, 76, 0
2, 158236, Note_off_c, 0, 80, 0
2, 158236, Note_off_c, 0, 83, 0
2, 158588, Note_off_c, 0, 81, 0
2, 158592, Note_on_c, 0, 76, 59
2, 158628, Note_off_c, 0, 76, 0
2, 158628, Note_on_c, 0, 81, 59
2, 158664, Note_off_c, 0, 81, 0
2, 158664, Note_on_c, 0, 85, 59
2, 158880, Note_on_c, 0, 85, 59
2, 158948, Note_off_c, 0, 85, 0
2, 158972, Note_off_c, 0, 85, 0
2, 158976, Note_on_c, 0, 76, 59
2, 159012, Note_off_c, 0, 76, 0
2, 159012, Note_on_c, 0, 81, 59
2, 159048, Note_off_c, 0, 81, 0
2, 159048, Note_on_c, 0, 85, 59
2, 159740, Note_off_c, 0, 85, 64
2, 159744, Note_on_c, 0, 76, 59
2, 159780, Note_off_c, 0, 76, 0
2, 159780, Note_on_c, 0, 81, 59
2, 159816, Note_off_c, 0, 81, 0
2, 159816, Note_on_c, 0, 85, 59
2, 160512, Note_on_c, 0, 86, 59
2, 160540, Note_off_c, 0, 85, 0
2, 160604, Note_off_c, 0, 86, 0
2, 160608, Note_on_c, 0, 85, 59
2, 160700, Note_off_c, 0, 85, 0
2, 160704, Note_on_c, 0, 83, 59
2, 160796, Note_off_c, 0, 83, 0
2, 160800, Note_on_c, 0, 85, 59
2, 160892, Note_off_c, 0, 85, 0
2, 160896, Note_on_c, 0, 86, 59
2, 160988, Note_off_c, 0, 86, 0
2, 160992, Note_on_c, 0, 85, 59
2, 161084, Note_off_c, 0, 85, 0
2, 161088, Note_on_c, 0, 83, 59
2, 161180, Note_off_c, 0, 83, 0
2, 161184, Note_on_c, 0, 85, 59
2, 161276, Note_off_c, 0, 85, 0
2, 161280, Note_on_c, 0, 86, 59
2, 162044, Note_off_c, 0, 86, 0
2, 162048, Note_on_c, 0, 86, 59
2, 162080, Note_off_c, 0, 86, 0
2, 162080, Note_on_c, 0, 85, 59
2, 162240, Note_on_c, 0, 86, 59
2, 162268, Note_off_c, 0, 85, 0
2, 162272, Note_off_c, 0, 86, 0
2, 162276, Note_on_c, 0, 85, 59
2, 162432, Note_on_c, 0, 86, 59
2, 162464, Note_off_c, 0, 85, 0
2, 162464, Note_off_c, 0, 86, 0
2, 162464, Note_on_c, 0, 85, 59
2, 162624, Note_on_c, 0, 86, 59
2, 162652, Note_off_c, 0, 85, 0
2, 162656, Note_off_c, 0, 86, 0
2, 162660, Note_on_c, 0, 85, 59
2, 162816, Note_on_c, 0, 83, 59
2, 162844, Note_off_c, 0, 85, 0
2, 163388, Note_off_c, 0, 83, 0
2, 163392, Note_on_c, 0, 88, 59
2, 163580, Note_off_c, 0, 88, 0
2, 163584, Note_on_c, 0, 73, 79
2, 163596, Note_on_c, 0, 76, 79
2, 163612, Note_on_c, 0, 81, 79
2, 163628, Note_on_c, 0, 85, 79
2, 163960, Note_off_c, 0, 76, 0
2, 163960, Note_off_c, 0, 81, 0
2, 163964, Note_off_c, 0, 73, 0
2, 164344, Note_off_c, 0, 85, 0
2, 164352, Note_on_c, 0, 73, 79
2, 164364, Note_on_c, 0, 76, 79
2, 164380, Note_on_c, 0, 81, 79
2, 164396, Note_on_c, 0, 85, 79
2, 164728, Note_off_c, 0, 76, 0
2, 164728, Note_off_c, 0, 81, 0
2, 164732, Note_off_c, 0, 73, 0
2, 165112, Note_off_c, 0, 85, 0
2, 165120, Note_on_c, 0, 86, 79
2, 165212, Note_off_c, 0, 86, 0
2, 165216, Note_on_c, 0, 85, 79
2, 165308, Note_off_c, 0, 85, 0
2, 165312, Note_on_c, 0, 83, 79
2, 165404, Note_off_c, 0, 83, 0
2, 165408, Note_on_c, 0, 85, 79
2, 165500, Note_off_c, 0, 85, 0
2, 165504, Note_on_c, 0, 86, 79
2, 165596, Note_off_c, 0, 86, 0
2, 165600, Note_on_c, 0, 85, 79
2, 165692, Note_off_c, 0, 85, 0
2, 165696, Note_on_c, 0, 83, 79
2, 165788, Note_off_c, 0, 83, 0
2, 165792, Note_on_c, 0, 85, 79
2, 165884, Note_off_c, 0, 85, 0
2, 165888, Note_on_c, 0, 86, 79
2, 165888, Note_on_c, 0, 81, 79
2, 165888, Note_on_c, 0, 78, 79
2, 166652, Note_off_c, 0, 86, 0
2, 166652, Note_off_c, 0, 81, 0
2, 166652, Note_off_c, 0, 78, 0
2, 166656, Note_on_c, 0, 86, 79
2, 166688, Note_off_c, 0, 86, 0
2, 166688, Note_on_c, 0, 85, 79
2, 166688, Note_on_c, 0, 81, 79
2, 166688, Note_on_c, 0, 76, 79
2, 167424, Note_off_c, 0, 85, 64
2, 167424, Note_off_c, 0, 81, 64
2, 167424, Note_off_c, 0, 76, 64
2, 167424, Note_on_c, 0, 85, 79
2, 167456, Note_off_c, 0, 85, 0
2, 167456, Note_on_c, 0, 76, 79
2, 167456, Note_on_c, 0, 80, 79
2, 167456, Note_on_c, 0, 83, 79
2, 167616, Note_off_c, 0, 76, 0
2, 167616, Note_off_c, 0, 80, 0
2, 167616, Note_off_c, 0, 83, 0
2, 167616, Note_on_c, 0, 85, 79
2, 167648, Note_off_c, 0, 85, 0
2, 167648, Note_on_c, 0, 83, 79
2, 167648, Note_on_c, 0, 80, 79
2, 167648, Note_on_c, 0, 76, 79
2, 167808, Note_off_c, 0, 83, 0
2, 167808, Note_off_c, 0, 80, 0
2, 167808, Note_off_c, 0, 76, 0
2, 167808, Note_on_c, 0, 85, 79
2, 167840, Note_off_c, 0, 85, 0
2, 167840, Note_on_c, 0, 83, 79
2, 167840, Note_on_c, 0, 76, 79
2, 167840, Note_on_c, 0, 80, 79
2, 168000, Note_off_c, 0, 83, 0
2, 168000, Note_off_c, 0, 76, 0
2, 168000, Note_off_c, 0, 80, 0
2, 168000, Note_on_c, 0, 85, 79
2, 168032, Note_off_c, 0, 85, 0
2, 168032, Note_on_c, 0, 83, 79
2, 168032, Note_on_c, 0, 80, 79
2, 168032, Note_on_c, 0, 76, 79
2, 168192, Note_off_c, 0, 83, 64
2, 168192, Note_off_c, 0, 80, 64
2, 168192, Note_on_c, 0, 81, 79
2, 168192, Note_on_c, 0, 76, 79
2, 168192, Note_on_c, 0, 73, 79
2, 168192, Note_on_c, 0, 69, 79
2, 168196, Note_off_c, 0, 76, 64
2, 168764, Note_off_c, 0, 81, 0
2, 168764, Note_off_c, 0, 76, 0
2, 168764, Note_off_c, 0, 73, 0
2, 168764, Note_off_c, 0, 69, 0
2, 168768, Note_on_c, 0, 85, 79
2, 168768, Note_on_c, 0, 73, 79
2, 168956, Note_off_c, 0, 85, 0
2, 168956, Note_off_c, 0, 73, 0
2, 168960, Note_on_c, 0, 81, 79
2, 168960, Note_on_c, 0, 69, 79
2, 169532, Note_off_c, 0, 81, 0
2, 169532, Note_off_c, 0, 69, 0
2, 169536, Note_on_c, 0, 88, 79
2, 169536, Note_on_c, 0, 76, 79
2, 169724, Note_off_c, 0, 88, 0
2, 169724, Note_off_c, 0, 76, 0
2, 169728, Note_on_c, 0, 81, 79
2, 169728, Note_on_c, 0, 69, 79
2, 170300, Note_off_c, 0, 81, 0
2, 170300, Note_off_c, 0, 69, 0
2, 170304, Note_on_c, 0, 85, 79
2, 170304, Note_on_c, 0, 73, 79
2, 170396, Note_off_c, 0, 85, 0
2, 170396, Note_off_c, 0, 73, 0
2, 170496, Note_on_c, 0, 81, 79
2, 170496, Note_on_c, 0, 69, 79
2, 170684, Note_off_c, 0, 81, 0
2, 170684, Note_off_c, 0, 69, 0
2, 170688, Note_on_c, 0, 85, 79
2, 170688, Note_on_c, 0, 73, 79
2, 170876, Note_off_c, 0, 85, 0
2, 170876, Note_off_c, 0, 73, 0
2, 170880, Note_on_c, 0, 81, 79
2, 170880, Note_on_c, 0, 69, 79
2, 171068, Note_off_c, 0, 81, 0
2, 171068, Note_off_c, 0, 69, 0
2, 171072, Note_on_c, 0, 88, 79
2, 171072, Note_on_c, 0, 76, 79
2, 171260, Note_off_c, 0, 88, 0
2, 171260, Note_off_c, 0, 76, 0
2, 171264, Note_on_c, 0, 81, 79
2, 171264, Note_on_c, 0, 69, 79
2, 171644, Note_off_c, 0, 81, 0
2, 171644, Note_off_c, 0, 69, 0
2, 171648, Note_on_c, 0, 81, 93
2, 171648, Note_on_c, 0, 76, 93
2, 171648, Note_on_c, 0, 73, 93
2, 171648, Note_on_c, 0, 69, 93
2, 172028, Note_off_c, 0, 81, 0
2, 172028, Note_off_c, 0, 76, 0
2, 172028, Note_off_c, 0, 73, 0
2, 172028, Note_off_c, 0, 69, 0
2, 172032, Note_on_c, 0, 81, 93
2, 172032, Note_on_c, 0, 76, 93
2, 172032, Note_on_c, 0, 73, 93
2, 172032, Note_on_c, 0, 69, 93
2, 172412, Note_off_c, 0, 81, 0
2, 172412, Note_off_c, 0, 76, 0
2, 172412, Note_off_c, 0, 73, 0
2, 172412, Note_off_c, 0, 69, 0
2, 172412, End_track
3, 0, Start_track
3, 0, Title_t, "Sonata  #16"
3, 0, Control_c, 1, 0, 0
3, 0, Program_c, 1, 0
3, 0, Control_c, 1, 7, 85
3, 0, Control_c, 1, 10, 55
3, 0, Control_c, 1, 91, 77
3, 0, Control_c, 1, 93, 49
3, 0, Key_signature, 0, "major"
3, 0, Control_c, 1, 121, 0
3, 4, Control_c, 1, 10, 53
3, 8, Control_c, 1, 91, 63
3, 8, Control_c, 1, 93, 40
3, 1536, Note_on_c, 1, 57, 59
3, 1724, Note_off_c, 1, 57, 0
3, 1728, Note_on_c, 1, 60, 59
3, 1728, Note_on_c, 1, 64, 59
3, 1916, Note_off_c, 1, 60, 0
3, 1916, Note_off_c, 1, 64, 0
3, 1920, Note_on_c, 1, 60, 59
3, 1920, Note_on_c, 1, 64, 59
3, 2108, Note_off_c, 1, 60, 0
3, 2108, Note_off_c, 1, 64, 0
3, 2112, Note_on_c, 1, 60, 59
3, 2112, Note_on_c, 1, 64, 59
3, 2300, Note_off_c, 1, 60, 0
3, 2300, Note_off_c, 1, 64, 0
3, 2304, Note_on_c, 1, 57, 59
3, 2492, Note_off_c, 1, 57, 0
3, 2496, Note_on_c, 1, 60, 59
3, 2496, Note_on_c, 1, 64, 59
3, 2684, Note_off_c, 1, 60, 0
3, 2684, Note_off_c, 1, 64, 0
3, 2688, Note_on_c, 1, 60, 59
3, 2688, Note_on_c, 1, 64, 59
3, 2876, Note_off_c, 1, 60, 0
3, 2876, Note_off_c, 1, 64, 0
3, 2880, Note_on_c, 1, 60, 59
3, 2880, Note_on_c, 1, 64, 59
3, 3068, Note_off_c, 1, 60, 0
3, 3068, Note_off_c, 1, 64, 0
3, 3072, Note_on_c, 1, 57, 59
3, 3260, Note_off_c, 1, 57, 0
3, 3264, Note_on_c, 1, 60, 59
3, 3264, Note_on_c, 1, 64, 59
3, 3452, Note_off_c, 1, 60, 0
3, 3452, Note_off_c, 1, 64, 0
3, 3456, Note_on_c, 1, 57, 59
3, 3644, Note_off_c, 1, 57, 0
3, 3648, Note_on_c, 1, 60, 59
3, 3648, Note_on_c, 1, 64, 59
3, 3836, Note_off_c, 1, 60, 0
3, 3836, Note_off_c, 1, 64, 0
3, 3840, Note_on_c, 1, 57, 59
3, 4028, Note_off_c, 1, 57, 0
3, 4032, Note_on_c, 1, 64, 59
3, 4032, Note_on_c, 1, 60, 59
3, 4220, Note_off_c, 1, 64, 0
3, 4220, Note_off_c, 1, 60, 0
3, 4224, Note_on_c, 1, 60, 59
3, 4224, Note_on_c, 1, 64, 59
3, 4412, Note_off_c, 1, 60, 0
3, 4412, Note_off_c, 1, 64, 0
3, 4416, Note_on_c, 1, 60, 59
3, 4416, Note_on_c, 1, 64, 59
3, 4604, Note_off_c, 1, 60, 0
3, 4604, Note_off_c, 1, 64, 0
3, 4608, Note_on_c, 1, 52, 59
3, 4796, Note_off_c, 1, 52, 0
3, 4800, Note_on_c, 1, 59, 59
3, 4800, Note_on_c, 1, 64, 59
3, 4988, Note_off_c, 1, 59, 0
3, 4988, Note_off_c, 1, 64, 0
3, 4992, Note_on_c, 1, 59, 59
3, 4992, Note_on_c, 1, 64, 59
3, 5180, Note_off_c, 1, 59, 0
3, 5180, Note_off_c, 1, 64, 0
3, 5184, Note_on_c, 1, 59, 59
3, 5184, Note_on_c, 1, 64, 59
3, 5372, Note_off_c, 1, 59, 0
3, 5372, Note_off_c, 1, 64, 0
3, 5376, Note_on_c, 1, 52, 59
3, 5564, Note_off_c, 1, 52, 0
3, 5568, Note_on_c, 1, 59, 59
3, 5568, Note_on_c, 1, 64, 59
3, 5756, Note_off_c, 1, 59, 0
3, 5756, Note_off_c, 1, 64, 0
3, 5760, Note_on_c, 1, 59, 59
3, 5760, Note_on_c, 1, 64, 59
3, 5948, Note_off_c, 1, 59, 0
3, 5948, Note_off_c, 1, 64, 0
3, 5952, Note_on_c, 1, 59, 59
3, 5952, Note_on_c, 1, 64, 59
3, 6140, Note_off_c, 1, 59, 0
3, 6140, Note_off_c, 1, 64, 0
3, 6144, Note_on_c, 1, 52, 59
3, 6332, Note_off_c, 1, 52, 0
3, 6336, Note_on_c, 1, 59, 59
3, 6336, Note_on_c, 1, 64, 59
3, 6524, Note_off_c, 1, 59, 0
3, 6524, Note_off_c, 1, 64, 0
3, 6528, Note_on_c, 1, 47, 59
3, 6716, Note_off_c, 1, 47, 0
3, 6720, Note_on_c, 1, 59, 59
3, 6908, Note_off_c, 1, 59, 0
3, 6912, Note_on_c, 1, 52, 59
3, 7292, Note_off_c, 1, 52, 0
3, 7680, Note_on_c, 1, 57, 59
3, 7868, Note_off_c, 1, 57, 0
3, 7872, Note_on_c, 1, 60, 59
3, 7872, Note_on_c, 1, 64, 59
3, 8060, Note_off_c, 1, 60, 0
3, 8060, Note_off_c, 1, 64, 0
3, 8064, Note_on_c, 1, 60, 59
3, 8064, Note_on_c, 1, 64, 59
3, 8252, Note_off_c, 1, 60, 0
3, 8252, Note_off_c, 1, 64, 0
3, 8256, Note_on_c, 1, 60, 59
3, 8256, Note_on_c, 1, 64, 59
3, 8444, Note_off_c, 1, 60, 0
3, 8444, Note_off_c, 1, 64, 0
3, 8448, Note_on_c, 1, 57, 59
3, 8636, Note_off_c, 1, 57, 0
3, 8640, Note_on_c, 1, 60, 59
3, 8640, Note_on_c, 1, 64, 59
3, 8828, Note_off_c, 1, 60, 0
3, 8828, Note_off_c, 1, 64, 0
3, 8832, Note_on_c, 1, 60, 59
3, 8832, Note_on_c, 1, 64, 59
3, 9020, Note_off_c, 1, 60, 0
3, 9020, Note_off_c, 1, 64, 0
3, 9024, Note_on_c, 1, 60, 59
3, 9024, Note_on_c, 1, 64, 59
3, 9212, Note_off_c, 1, 60, 0
3, 9212, Note_off_c, 1, 64, 0
3, 9216, Note_on_c, 1, 57, 59
3, 9404, Note_off_c, 1, 57, 0
3, 9408, Note_on_c, 1, 60, 59
3, 9408, Note_on_c, 1, 64, 59
3, 9596, Note_off_c, 1, 60, 0
3, 9596, Note_off_c, 1, 64, 0
3, 9600, Note_on_c, 1, 57, 59
3, 9788, Note_off_c, 1, 57, 0
3, 9792, Note_on_c, 1, 60, 59
3, 9792, Note_on_c, 1, 64, 59
3, 9980, Note_off_c, 1, 60, 0
3, 9980, Note_off_c, 1, 64, 0
3, 9984, Note_on_c, 1, 57, 59
3, 10172, Note_off_c, 1, 57, 0
3, 10176, Note_on_c, 1, 64, 59
3, 10176, Note_on_c, 1, 60, 59
3, 10364, Note_off_c, 1, 64, 0
3, 10364, Note_off_c, 1, 60, 0
3, 10368, Note_on_c, 1, 60, 59
3, 10368, Note_on_c, 1, 64, 59
3, 10556, Note_off_c, 1, 60, 0
3, 10556, Note_off_c, 1, 64, 0
3, 10560, Note_on_c, 1, 60, 59
3, 10560, Note_on_c, 1, 64, 59
3, 10748, Note_off_c, 1, 60, 0
3, 10748, Note_off_c, 1, 64, 0
3, 10752, Note_on_c, 1, 52, 59
3, 10940, Note_off_c, 1, 52, 0
3, 10944, Note_on_c, 1, 59, 59
3, 10944, Note_on_c, 1, 64, 59
3, 11132, Note_off_c, 1, 59, 0
3, 11132, Note_off_c, 1, 64, 0
3, 11136, Note_on_c, 1, 59, 59
3, 11136, Note_on_c, 1, 64, 59
3, 11324, Note_off_c, 1, 59, 0
3, 11324, Note_off_c, 1, 64, 0
3, 11328, Note_on_c, 1, 59, 59
3, 11328, Note_on_c, 1, 64, 59
3, 11516, Note_off_c, 1, 59, 0
3, 11516, Note_off_c, 1, 64, 0
3, 11520, Note_on_c, 1, 52, 59
3, 11708, Note_off_c, 1, 52, 0
3, 11712, Note_on_c, 1, 59, 59
3, 11712, Note_on_c, 1, 64, 59
3, 11900, Note_off_c, 1, 59, 0
3, 11900, Note_off_c, 1, 64, 0
3, 11904, Note_on_c, 1, 59, 59
3, 11904, Note_on_c, 1, 64, 59
3, 12092, Note_off_c, 1, 59, 0
3, 12092, Note_off_c, 1, 64, 0
3, 12096, Note_on_c, 1, 59, 59
3, 12096, Note_on_c, 1, 64, 59
3, 12284, Note_off_c, 1, 59, 0
3, 12284, Note_off_c, 1, 64, 0
3, 12288, Note_on_c, 1, 52, 59
3, 12476, Note_off_c, 1, 52, 0
3, 12480, Note_on_c, 1, 59, 59
3, 12480, Note_on_c, 1, 64, 59
3, 12668, Note_off_c, 1, 59, 0
3, 12668, Note_off_c, 1, 64, 0
3, 12672, Note_on_c, 1, 47, 59
3, 12860, Note_off_c, 1, 47, 0
3, 12864, Note_on_c, 1, 59, 59
3, 13052, Note_off_c, 1, 59, 0
3, 13056, Note_on_c, 1, 52, 66
3, 13244, Note_off_c, 1, 52, 0
3, 13824, Note_on_c, 1, 48, 66
3, 14012, Note_off_c, 1, 48, 0
3, 14016, Note_on_c, 1, 60, 66
3, 14204, Note_off_c, 1, 60, 0
3, 14208, Note_on_c, 1, 52, 66
3, 14396, Note_off_c, 1, 52, 0
3, 14400, Note_on_c, 1, 64, 66
3, 14588, Note_off_c, 1, 64, 0
3, 14592, Note_on_c, 1, 55, 66
3, 15356, Note_off_c, 1, 55, 0
3, 15360, Note_on_c, 1, 48, 66
3, 15548, Note_off_c, 1, 48, 0
3, 15552, Note_on_c, 1, 60, 66
3, 15740, Note_off_c, 1, 60, 0
3, 15744, Note_on_c, 1, 52, 66
3, 15932, Note_off_c, 1, 52, 0
3, 15936, Note_on_c, 1, 64, 66
3, 16124, Note_off_c, 1, 64, 0
3, 16128, Note_on_c, 1, 55, 66
3, 16892, Note_off_c, 1, 55, 0
3, 16896, Note_on_c, 1, 45, 66
3, 17084, Note_off_c, 1, 45, 0
3, 17088, Note_on_c, 1, 57, 66
3, 17276, Note_off_c, 1, 57, 0
3, 17280, Note_on_c, 1, 48, 66
3, 17468, Note_off_c, 1, 48, 0
3, 17472, Note_on_c, 1, 60, 66
3, 17660, Note_off_c, 1, 60, 0
3, 17664, Note_on_c, 1, 52, 66
3, 18428, Note_off_c, 1, 52, 0
3, 18432, Note_on_c, 1, 45, 66
3, 18620, Note_off_c, 1, 45, 0
3, 18624, Note_on_c, 1, 57, 66
3, 18812, Note_off_c, 1, 57, 0
3, 18816, Note_on_c, 1, 48, 66
3, 19004, Note_off_c, 1, 48, 0
3, 19008, Note_on_c, 1, 60, 66
3, 19196, Note_off_c, 1, 60, 0
3, 19200, Note_on_c, 1, 52, 66
3, 19964, Note_off_c, 1, 52, 0
3, 19968, Note_on_c, 1, 57, 59
3, 20156, Note_off_c, 1, 57, 0
3, 20160, Note_on_c, 1, 60, 59
3, 20160, Note_on_c, 1, 64, 59
3, 20348, Note_off_c, 1, 60, 0
3, 20348, Note_off_c, 1, 64, 0
3, 20352, Note_on_c, 1, 60, 59
3, 20352, Note_on_c, 1, 64, 59
3, 20540, Note_off_c, 1, 60, 0
3, 20540, Note_off_c, 1, 64, 0
3, 20544, Note_on_c, 1, 60, 59
3, 20544, Note_on_c, 1, 64, 59
3, 20732, Note_off_c, 1, 60, 0
3, 20732, Note_off_c, 1, 64, 0
3, 20736, Note_on_c, 1, 57, 59
3, 20924, Note_off_c, 1, 57, 0
3, 20928, Note_on_c, 1, 60, 59
3, 20928, Note_on_c, 1, 64, 59
3, 21116, Note_off_c, 1, 60, 0
3, 21116, Note_off_c, 1, 64, 0
3, 21120, Note_on_c, 1, 60, 59
3, 21120, Note_on_c, 1, 64, 59
3, 21308, Note_off_c, 1, 60, 0
3, 21308, Note_off_c, 1, 64, 0
3, 21312, Note_on_c, 1, 60, 59
3, 21312, Note_on_c, 1, 64, 59
3, 21500, Note_off_c, 1, 60, 0
3, 21500, Note_off_c, 1, 64, 0
3, 21504, Note_on_c, 1, 57, 59
3, 21692, Note_off_c, 1, 57, 0
3, 21696, Note_on_c, 1, 60, 59
3, 21696, Note_on_c, 1, 64, 59
3, 21884, Note_off_c, 1, 60, 0
3, 21884, Note_off_c, 1, 64, 0
3, 21888, Note_on_c, 1, 57, 59
3, 22076, Note_off_c, 1, 57, 0
3, 22080, Note_on_c, 1, 60, 59
3, 22080, Note_on_c, 1, 64, 59
3, 22268, Note_off_c, 1, 60, 0
3, 22268, Note_off_c, 1, 64, 0
3, 22272, Note_on_c, 1, 53, 59
3, 22460, Note_off_c, 1, 53, 0
3, 22464, Note_on_c, 1, 57, 59
3, 22464, Note_on_c, 1, 63, 59
3, 22652, Note_off_c, 1, 57, 0
3, 22652, Note_off_c, 1, 63, 0
3, 22656, Note_on_c, 1, 57, 59
3, 22656, Note_on_c, 1, 63, 59
3, 22844, Note_off_c, 1, 57, 0
3, 22844, Note_off_c, 1, 63, 0
3, 22848, Note_on_c, 1, 57, 59
3, 22848, Note_on_c, 1, 63, 59
3, 23036, Note_off_c, 1, 57, 0
3, 23036, Note_off_c, 1, 63, 0
3, 23040, Note_on_c, 1, 53, 59
3, 23228, Note_off_c, 1, 53, 0
3, 23232, Note_on_c, 1, 57, 59
3, 23232, Note_on_c, 1, 64, 59
3, 23420, Note_off_c, 1, 57, 0
3, 23420, Note_off_c, 1, 64, 0
3, 23424, Note_on_c, 1, 50, 59
3, 23612, Note_off_c, 1, 50, 0
3, 23616, Note_on_c, 1, 53, 59
3, 23616, Note_on_c, 1, 59, 59
3, 23804, Note_off_c, 1, 53, 0
3, 23804, Note_off_c, 1, 59, 0
3, 23808, Note_on_c, 1, 48, 59
3, 23996, Note_off_c, 1, 48, 0
3, 24000, Note_on_c, 1, 57, 59
3, 24000, Note_on_c, 1, 52, 59
3, 24188, Note_off_c, 1, 57, 0
3, 24188, Note_off_c, 1, 52, 0
3, 24192, Note_on_c, 1, 50, 59
3, 24380, Note_off_c, 1, 50, 0
3, 24384, Note_on_c, 1, 59, 59
3, 24384, Note_on_c, 1, 53, 59
3, 24572, Note_off_c, 1, 59, 0
3, 24572, Note_off_c, 1, 53, 0
3, 24576, Note_on_c, 1, 57, 59
3, 24576, Note_on_c, 1, 52, 59
3, 24764, Note_off_c, 1, 57, 0
3, 24764, Note_off_c, 1, 52, 0
3, 24768, Note_on_c, 1, 57, 59
3, 24768, Note_on_c, 1, 52, 59
3, 24956, Note_off_c, 1, 57, 0
3, 24956, Note_off_c, 1, 52, 0
3, 24960, Note_on_c, 1, 56, 59
3, 24960, Note_on_c, 1, 52, 59
3, 25148, Note_off_c, 1, 56, 0
3, 25148, Note_off_c, 1, 52, 0
3, 25152, Note_on_c, 1, 56, 59
3, 25152, Note_on_c, 1, 52, 59
3, 25340, Note_off_c, 1, 56, 0
3, 25340, Note_off_c, 1, 52, 0
3, 25344, Note_on_c, 1, 57, 66
3, 25344, Note_on_c, 1, 45, 66
3, 25724, Note_off_c, 1, 57, 0
3, 25724, Note_off_c, 1, 45, 0
3, 26112, Note_on_c, 1, 48, 66
3, 26300, Note_off_c, 1, 48, 0
3, 26304, Note_on_c, 1, 60, 66
3, 26492, Note_off_c, 1, 60, 0
3, 26496, Note_on_c, 1, 52, 66
3, 26684, Note_off_c, 1, 52, 0
3, 26688, Note_on_c, 1, 64, 66
3, 26876, Note_off_c, 1, 64, 0
3, 26880, Note_on_c, 1, 55, 66
3, 27644, Note_off_c, 1, 55, 0
3, 27648, Note_on_c, 1, 48, 66
3, 27836, Note_off_c, 1, 48, 0
3, 27840, Note_on_c, 1, 60, 66
3, 28028, Note_off_c, 1, 60, 0
3, 28032, Note_on_c, 1, 52, 66
3, 28220, Note_off_c, 1, 52, 0
3, 28224, Note_on_c, 1, 64, 66
3, 28412, Note_off_c, 1, 64, 0
3, 28416, Note_on_c, 1, 55, 66
3, 29180, Note_off_c, 1, 55, 0
3, 29184, Note_on_c, 1, 45, 66
3, 29372, Note_off_c, 1, 45, 0
3, 29376, Note_on_c, 1, 57, 66
3, 29564, Note_off_c, 1, 57, 0
3, 29568, Note_on_c, 1, 48, 66
3, 29756, Note_off_c, 1, 48, 0
3, 29760, Note_on_c, 1, 60, 66
3, 29948, Note_off_c, 1, 60, 0
3, 29952, Note_on_c, 1, 52, 66
3, 30716, Note_off_c, 1, 52, 0
3, 30720, Note_on_c, 1, 45, 66
3, 30908, Note_off_c, 1, 45, 0
3, 30912, Note_on_c, 1, 57, 66
3, 31100, Note_off_c, 1, 57, 0
3, 31104, Note_on_c, 1, 48, 66
3, 31292, Note_off_c, 1, 48, 0
3, 31296, Note_on_c, 1, 60, 66
3, 31484, Note_off_c, 1, 60, 0
3, 31488, Note_on_c, 1, 52, 66
3, 32252, Note_off_c, 1, 52, 0
3, 32256, Note_on_c, 1, 57, 59
3, 32444, Note_off_c, 1, 57, 0
3, 32448, Note_on_c, 1, 60, 59
3, 32448, Note_on_c, 1, 64, 59
3, 32636, Note_off_c, 1, 60, 0
3, 32636, Note_off_c, 1, 64, 0
3, 32640, Note_on_c, 1, 60, 59
3, 32640, Note_on_c, 1, 64, 59
3, 32828, Note_off_c, 1, 60, 0
3, 32828, Note_off_c, 1, 64, 0
3, 32832, Note_on_c, 1, 60, 59
3, 32832, Note_on_c, 1, 64, 59
3, 33020, Note_off_c, 1, 60, 0
3, 33020, Note_off_c, 1, 64, 0
3, 33024, Note_on_c, 1, 57, 59
3, 33212, Note_off_c, 1, 57, 0
3, 33216, Note_on_c, 1, 60, 59
3, 33216, Note_on_c, 1, 64, 59
3, 33404, Note_off_c, 1, 60, 0
3, 33404, Note_off_c, 1, 64, 0
3, 33408, Note_on_c, 1, 60, 59
3, 33408, Note_on_c, 1, 64, 59
3, 33596, Note_off_c, 1, 60, 0
3, 33596, Note_off_c, 1, 64, 0
3, 33600, Note_on_c, 1, 60, 59
3, 33600, Note_on_c, 1, 64, 59
3, 33788, Note_off_c, 1, 60, 0
3, 33788, Note_off_c, 1, 64, 0
3, 33792, Note_on_c, 1, 57, 59
3, 33980, Note_off_c, 1, 57, 0
3, 33984, Note_on_c, 1, 60, 59
3, 33984, Note_on_c, 1, 64, 59
3, 34172, Note_off_c, 1, 60, 0
3, 34172, Note_off_c, 1, 64, 0
3, 34176, Note_on_c, 1, 57, 59
3, 34364, Note_off_c, 1, 57, 0
3, 34368, Note_on_c, 1, 60, 59
3, 34368, Note_on_c, 1, 64, 59
3, 34556, Note_off_c, 1, 60, 0
3, 34556, Note_off_c, 1, 64, 0
3, 34560, Note_on_c, 1, 53, 59
3, 34748, Note_off_c, 1, 53, 0
3, 34752, Note_on_c, 1, 57, 59
3, 34752, Note_on_c, 1, 63, 59
3, 34940, Note_off_c, 1, 57, 0
3, 34940, Note_off_c, 1, 63, 0
3, 34944, Note_on_c, 1, 57, 59
3, 34944, Note_on_c, 1, 63, 59
3, 35132, Note_off_c, 1, 57, 0
3, 35132, Note_off_c, 1, 63, 0
3, 35136, Note_on_c, 1, 57, 59
3, 35136, Note_on_c, 1, 63, 59
3, 35324, Note_off_c, 1, 57, 0
3, 35324, Note_off_c, 1, 63, 0
3, 35328, Note_on_c, 1, 52, 59
3, 35516, Note_off_c, 1, 52, 0
3, 35520, Note_on_c, 1, 57, 59
3, 35520, Note_on_c, 1, 64, 59
3, 35708, Note_off_c, 1, 57, 0
3, 35708, Note_off_c, 1, 64, 0
3, 35712, Note_on_c, 1, 50, 59
3, 35900, Note_off_c, 1, 50, 0
3, 35904, Note_on_c, 1, 53, 59
3, 35904, Note_on_c, 1, 59, 59
3, 36092, Note_off_c, 1, 53, 0
3, 36092, Note_off_c, 1, 59, 0
3, 36096, Note_on_c, 1, 48, 59
3, 36284, Note_off_c, 1, 48, 0
3, 36288, Note_on_c, 1, 57, 59
3, 36288, Note_on_c, 1, 52, 59
3, 36476, Note_off_c, 1, 57, 0
3, 36476, Note_off_c, 1, 52, 0
3, 36480, Note_on_c, 1, 50, 59
3, 36668, Note_off_c, 1, 50, 0
3, 36672, Note_on_c, 1, 59, 59
3, 36672, Note_on_c, 1, 53, 59
3, 36860, Note_off_c, 1, 59, 0
3, 36860, Note_off_c, 1, 53, 0
3, 36864, Note_on_c, 1, 57, 59
3, 36864, Note_on_c, 1, 52, 59
3, 37052, Note_off_c, 1, 57, 0
3, 37052, Note_off_c, 1, 52, 0
3, 37056, Note_on_c, 1, 57, 59
3, 37056, Note_on_c, 1, 52, 59
3, 37244, Note_off_c, 1, 57, 0
3, 37244, Note_off_c, 1, 52, 0
3, 37248, Note_on_c, 1, 56, 59
3, 37248, Note_on_c, 1, 52, 59
3, 37436, Note_off_c, 1, 56, 0
3, 37436, Note_off_c, 1, 52, 0
3, 37440, Note_on_c, 1, 56, 59
3, 37440, Note_on_c, 1, 52, 59
3, 37628, Note_off_c, 1, 56, 0
3, 37628, Note_off_c, 1, 52, 0
3, 37632, Key_signature, 3, "major"
3, 37632, Note_on_c, 1, 57, 59
3, 37632, Note_on_c, 1, 45, 59
3, 38012, Note_off_c, 1, 57, 0
3, 38012, Note_off_c, 1, 45, 0
3, 38400, Note_on_c, 1, 45, 79
3, 38432, Note_off_c, 1, 45, 0
3, 38432, Note_on_c, 1, 49, 79
3, 38464, Note_off_c, 1, 49, 0
3, 38464, Note_on_c, 1, 52, 79
3, 38496, Note_off_c, 1, 52, 0
3, 38496, Note_on_c, 1, 57, 79
3, 38592, Note_on_c, 1, 57, 79
3, 38780, Note_off_c, 1, 57, 0
3, 38784, Note_on_c, 1, 57, 79
3, 38972, Note_off_c, 1, 57, 0
3, 38976, Note_on_c, 1, 57, 79
3, 39068, Note_off_c, 1, 57, 0
3, 39164, Note_off_c, 1, 57, 0
3, 39168, Note_on_c, 1, 45, 79
3, 39200, Note_off_c, 1, 45, 0
3, 39200, Note_on_c, 1, 49, 79
3, 39232, Note_off_c, 1, 49, 0
3, 39232, Note_on_c, 1, 52, 79
3, 39264, Note_off_c, 1, 52, 0
3, 39264, Note_on_c, 1, 57, 79
3, 39360, Note_on_c, 1, 57, 79
3, 39548, Note_off_c, 1, 57, 0
3, 39552, Note_on_c, 1, 57, 79
3, 39740, Note_off_c, 1, 57, 0
3, 39744, Note_on_c, 1, 57, 79
3, 39836, Note_off_c, 1, 57, 0
3, 39932, Note_off_c, 1, 57, 0
3, 39936, Note_on_c, 1, 38, 79
3, 39968, Note_off_c, 1, 38, 0
3, 39968, Note_on_c, 1, 42, 79
3, 40000, Note_off_c, 1, 42, 0
3, 40000, Note_on_c, 1, 45, 79
3, 40032, Note_off_c, 1, 45, 0
3, 40032, Note_on_c, 1, 50, 79
3, 40128, Note_on_c, 1, 50, 79
3, 40220, Note_off_c, 1, 50, 0
3, 40316, Note_off_c, 1, 50, 0
3, 40320, Note_on_c, 1, 39, 79
3, 40352, Note_off_c, 1, 39, 0
3, 40352, Note_on_c, 1, 42, 79
3, 40384, Note_off_c, 1, 42, 0
3, 40384, Note_on_c, 1, 45, 79
3, 40416, Note_off_c, 1, 45, 0
3, 40416, Note_on_c, 1, 51, 79
3, 40512, Note_on_c, 1, 51, 79
3, 40604, Note_off_c, 1, 51, 0
3, 40700, Note_off_c, 1, 51, 0
3, 40704, Note_on_c, 1, 40, 79
3, 40736, Note_off_c, 1, 40, 0
3, 40736, Note_on_c, 1, 44, 79
3, 40768, Note_off_c, 1, 44, 0
3, 40768, Note_on_c, 1, 47, 79
3, 40800, Note_off_c, 1, 47, 0
3, 40800, Note_on_c, 1, 52, 79
3, 40896, Note_on_c, 1, 52, 79
3, 40988, Note_off_c, 1, 52, 0
3, 41084, Note_off_c, 1, 52, 0
3, 41088, Note_on_c, 1, 52, 79
3, 41276, Note_off_c, 1, 52, 0
3, 41280, Note_on_c, 1, 52, 79
3, 41468, Note_off_c, 1, 52, 0
3, 41472, Note_on_c, 1, 45, 79
3, 41504, Note_off_c, 1, 45, 0
3, 41504, Note_on_c, 1, 49, 79
3, 41536, Note_off_c, 1, 49, 0
3, 41536, Note_on_c, 1, 52, 79
3, 41568, Note_off_c, 1, 52, 0
3, 41568, Note_on_c, 1, 57, 79
3, 41664, Note_on_c, 1, 57, 79
3, 41756, Note_off_c, 1, 57, 0
3, 41852, Note_off_c, 1, 57, 0
3, 41856, Note_on_c, 1, 57, 79
3, 42044, Note_off_c, 1, 57, 0
3, 42048, Note_on_c, 1, 57, 79
3, 42236, Note_off_c, 1, 57, 0
3, 42240, Note_on_c, 1, 45, 79
3, 42272, Note_off_c, 1, 45, 0
3, 42272, Note_on_c, 1, 49, 79
3, 42304, Note_off_c, 1, 49, 0
3, 42304, Note_on_c, 1, 52, 79
3, 42336, Note_off_c, 1, 52, 0
3, 42336, Note_on_c, 1, 57, 79
3, 42432, Note_on_c, 1, 57, 79
3, 42524, Note_off_c, 1, 57, 0
3, 42620, Note_off_c, 1, 57, 0
3, 42624, Note_on_c, 1, 57, 79
3, 42812, Note_off_c, 1, 57, 0
3, 42816, Note_on_c, 1, 57, 79
3, 43004, Note_off_c, 1, 57, 0
3, 43008, Note_on_c, 1, 38, 79
3, 43040, Note_off_c, 1, 38, 0
3, 43040, Note_on_c, 1, 42, 79
3, 43072, Note_off_c, 1, 42, 0
3, 43072, Note_on_c, 1, 45, 79
3, 43104, Note_off_c, 1, 45, 0
3, 43104, Note_on_c, 1, 50, 79
3, 43200, Note_on_c, 1, 50, 79
3, 43292, Note_off_c, 1, 50, 0
3, 43388, Note_off_c, 1, 50, 0
3, 43392, Note_on_c, 1, 40, 79
3, 43424, Note_off_c, 1, 40, 0
3, 43424, Note_on_c, 1, 44, 79
3, 43456, Note_off_c, 1, 44, 0
3, 43456, Note_on_c, 1, 47, 79
3, 43488, Note_off_c, 1, 47, 0
3, 43488, Note_on_c, 1, 52, 79
3, 43584, Note_on_c, 1, 52, 79
3, 43684, Note_off_c, 1, 52, 0
3, 43776, Note_on_c, 1, 45, 79
3, 43780, Note_off_c, 1, 52, 0
3, 44156, Note_off_c, 1, 45, 0
3, 44544, Note_on_c, 1, 45, 79
3, 44576, Note_off_c, 1, 45, 0
3, 44576, Note_on_c, 1, 49, 79
3, 44608, Note_off_c, 1, 49, 0
3, 44608, Note_on_c, 1, 52, 79
3, 44640, Note_off_c, 1, 52, 0
3, 44640, Note_on_c, 1, 57, 79
3, 44736, Note_on_c, 1, 57, 79
3, 44924, Note_off_c, 1, 57, 0
3, 44928, Note_on_c, 1, 57, 79
3, 45116, Note_off_c, 1, 57, 0
3, 45120, Note_on_c, 1, 57, 79
3, 45212, Note_off_c, 1, 57, 0
3, 45308, Note_off_c, 1, 57, 0
3, 45312, Note_on_c, 1, 45, 79
3, 45344, Note_off_c, 1, 45, 0
3, 45344, Note_on_c, 1, 49, 79
3, 45376, Note_off_c, 1, 49, 0
3, 45376, Note_on_c, 1, 52, 79
3, 45408, Note_off_c, 1, 52, 0
3, 45408, Note_on_c, 1, 57, 79
3, 45504, Note_on_c, 1, 57, 79
3, 45692, Note_off_c, 1, 57, 0
3, 45696, Note_on_c, 1, 57, 79
3, 45884, Note_off_c, 1, 57, 0
3, 45888, Note_on_c, 1, 57, 79
3, 45980, Note_off_c, 1, 57, 0
3, 46076, Note_off_c, 1, 57, 0
3, 46080, Note_on_c, 1, 38, 79
3, 46112, Note_off_c, 1, 38, 0
3, 46112, Note_on_c, 1, 42, 79
3, 46144, Note_off_c, 1, 42, 0
3, 46144, Note_on_c, 1, 45, 79
3, 46176, Note_off_c, 1, 45, 0
3, 46176, Note_on_c, 1, 50, 79
3, 46272, Note_on_c, 1, 50, 79
3, 46364, Note_off_c, 1, 50, 0
3, 46460, Note_off_c, 1, 50, 0
3, 46464, Note_on_c, 1, 39, 79
3, 46496, Note_off_c, 1, 39, 0
3, 46496, Note_on_c, 1, 42, 79
3, 46528, Note_off_c, 1, 42, 0
3, 46528, Note_on_c, 1, 45, 79
3, 46560, Note_off_c, 1, 45, 0
3, 46560, Note_on_c, 1, 51, 79
3, 46656, Note_on_c, 1, 51, 79
3, 46748, Note_off_c, 1, 51, 0
3, 46844, Note_off_c, 1, 51, 0
3, 46848, Note_on_c, 1, 40, 79
3, 46880, Note_off_c, 1, 40, 0
3, 46880, Note_on_c, 1, 44, 79
3, 46912, Note_off_c, 1, 44, 0
3, 46912, Note_on_c, 1, 47, 79
3, 46944, Note_off_c, 1, 47, 0
3, 46944, Note_on_c, 1, 52, 79
3, 47040, Note_on_c, 1, 52, 79
3, 47132, Note_off_c, 1, 52, 0
3, 47228, Note_off_c, 1, 52, 0
3, 47232, Note_on_c, 1, 52, 79
3, 47420, Note_off_c, 1, 52, 0
3, 47424, Note_on_c, 1, 52, 79
3, 47612, Note_off_c, 1, 52, 0
3, 47616, Note_on_c, 1, 45, 79
3, 47648, Note_off_c, 1, 45, 0
3, 47648, Note_on_c, 1, 49, 79
3, 47680, Note_off_c, 1, 49, 0
3, 47680, Note_on_c, 1, 52, 79
3, 47712, Note_off_c, 1, 52, 0
3, 47712, Note_on_c, 1, 57, 79
3, 47808, Note_on_c, 1, 57, 79
3, 47900, Note_off_c, 1, 57, 0
3, 47996, Note_off_c, 1, 57, 0
3, 48000, Note_on_c, 1, 57, 79
3, 48188, Note_off_c, 1, 57, 0
3, 48192, Note_on_c, 1, 57, 79
3, 48380, Note_off_c, 1, 57, 0
3, 48384, Note_on_c, 1, 45, 79
3, 48416, Note_off_c, 1, 45, 0
3, 48416, Note_on_c, 1, 49, 79
3, 48448, Note_off_c, 1, 49, 0
3, 48448, Note_on_c, 1, 52, 79
3, 48480, Note_off_c, 1, 52, 0
3, 48480, Note_on_c, 1, 57, 79
3, 48576, Note_on_c, 1, 57, 79
3, 48668, Note_off_c, 1, 57, 0
3, 48764, Note_off_c, 1, 57, 0
3, 48768, Note_on_c, 1, 57, 79
3, 48956, Note_off_c, 1, 57, 0
3, 48960, Note_on_c, 1, 57, 79
3, 49148, Note_off_c, 1, 57, 0
3, 49152, Note_on_c, 1, 38, 79
3, 49184, Note_off_c, 1, 38, 0
3, 49184, Note_on_c, 1, 42, 79
3, 49216, Note_off_c, 1, 42, 0
3, 49216, Note_on_c, 1, 45, 79
3, 49248, Note_off_c, 1, 45, 0
3, 49248, Note_on_c, 1, 50, 79
3, 49344, Note_on_c, 1, 50, 79
3, 49436, Note_off_c, 1, 50, 0
3, 49532, Note_off_c, 1, 50, 0
3, 49536, Note_on_c, 1, 40, 79
3, 49568, Note_off_c, 1, 40, 0
3, 49568, Note_on_c, 1, 44, 79
3, 49600, Note_off_c, 1, 44, 0
3, 49600, Note_on_c, 1, 47, 79
3, 49632, Note_off_c, 1, 47, 0
3, 49632, Note_on_c, 1, 52, 79
3, 49728, Note_on_c, 1, 52, 79
3, 49828, Note_off_c, 1, 52, 0
3, 49920, Note_on_c, 1, 45, 79
3, 49924, Note_off_c, 1, 52, 0
3, 50300, Note_off_c, 1, 45, 0
3, 50688, Note_on_c, 1, 54, 59
3, 50876, Note_off_c, 1, 54, 0
3, 50880, Note_on_c, 1, 61, 59
3, 50880, Note_on_c, 1, 57, 59
3, 51068, Note_off_c, 1, 61, 0
3, 51068, Note_off_c, 1, 57, 0
3, 51072, Note_on_c, 1, 61, 59
3, 51072, Note_on_c, 1, 57, 59
3, 51260, Note_off_c, 1, 61, 0
3, 51260, Note_off_c, 1, 57, 0
3, 51264, Note_on_c, 1, 61, 59
3, 51264, Note_on_c, 1, 57, 59
3, 51452, Note_off_c, 1, 61, 0
3, 51452, Note_off_c, 1, 57, 0
3, 51456, Note_on_c, 1, 56, 59
3, 51644, Note_off_c, 1, 56, 0
3, 51648, Note_on_c, 1, 59, 59
3, 51648, Note_on_c, 1, 61, 59
3, 51836, Note_off_c, 1, 59, 0
3, 51836, Note_off_c, 1, 61, 0
3, 51840, Note_on_c, 1, 59, 59
3, 51840, Note_on_c, 1, 61, 59
3, 52028, Note_off_c, 1, 59, 0
3, 52028, Note_off_c, 1, 61, 0
3, 52032, Note_on_c, 1, 59, 59
3, 52032, Note_on_c, 1, 61, 59
3, 52220, Note_off_c, 1, 59, 0
3, 52220, Note_off_c, 1, 61, 0
3, 52224, Note_on_c, 1, 54, 59
3, 52412, Note_off_c, 1, 54, 0
3, 52416, Note_on_c, 1, 57, 59
3, 52416, Note_on_c, 1, 61, 59
3, 52604, Note_off_c, 1, 57, 0
3, 52604, Note_off_c, 1, 61, 0
3, 52608, Note_on_c, 1, 57, 59
3, 52608, Note_on_c, 1, 61, 59
3, 52796, Note_off_c, 1, 57, 0
3, 52796, Note_off_c, 1, 61, 0
3, 52800, Note_on_c, 1, 57, 59
3, 52800, Note_on_c, 1, 61, 59
3, 52988, Note_off_c, 1, 57, 0
3, 52988, Note_off_c, 1, 61, 0
3, 52992, Note_on_c, 1, 53, 59
3, 53084, Note_off_c, 1, 53, 0
3, 53184, Note_on_c, 1, 56, 59
3, 53184, Note_on_c, 1, 61, 59
3, 53276, Note_off_c, 1, 56, 0
3, 53276, Note_off_c, 1, 61, 0
3, 53376, Note_on_c, 1, 56, 59
3, 53376, Note_on_c, 1, 61, 59
3, 53468, Note_off_c, 1, 56, 0
3, 53468, Note_off_c, 1, 61, 0
3, 53568, Note_on_c, 1, 56, 59
3, 53568, Note_on_c, 1, 61, 59
3, 53756, Note_off_c, 1, 56, 0
3, 53756, Note_off_c, 1, 61, 0
3, 53760, Note_on_c, 1, 54, 59
3, 53948, Note_off_c, 1, 54, 0
3, 53952, Note_on_c, 1, 57, 59
3, 53952, Note_on_c, 1, 61, 59
3, 54140, Note_off_c, 1, 57, 0
3, 54140, Note_off_c, 1, 61, 0
3, 54144, Note_on_c, 1, 57, 59
3, 54144, Note_on_c, 1, 61, 59
3, 54332, Note_off_c, 1, 57, 0
3, 54332, Note_off_c, 1, 61, 0
3, 54336, Note_on_c, 1, 57, 59
3, 54336, Note_on_c, 1, 61, 59
3, 54524, Note_off_c, 1, 57, 0
3, 54524, Note_off_c, 1, 61, 0
3, 54528, Note_on_c, 1, 56, 59
3, 54716, Note_off_c, 1, 56, 0
3, 54720, Note_on_c, 1, 61, 59
3, 54720, Note_on_c, 1, 64, 59
3, 54908, Note_off_c, 1, 61, 0
3, 54908, Note_off_c, 1, 64, 0
3, 54912, Note_on_c, 1, 61, 59
3, 54912, Note_on_c, 1, 64, 59
3, 55100, Note_off_c, 1, 61, 0
3, 55100, Note_off_c, 1, 64, 0
3, 55104, Note_on_c, 1, 61, 59
3, 55104, Note_on_c, 1, 64, 59
3, 55292, Note_off_c, 1, 61, 0
3, 55292, Note_off_c, 1, 64, 0
3, 55296, Note_on_c, 1, 56, 59
3, 55484, Note_off_c, 1, 56, 0
3, 55488, Note_on_c, 1, 66, 59
3, 55488, Note_on_c, 1, 63, 59
3, 55676, Note_off_c, 1, 66, 0
3, 55676, Note_off_c, 1, 63, 0
3, 55680, Note_on_c, 1, 63, 59
3, 55680, Note_on_c, 1, 66, 59
3, 55868, Note_off_c, 1, 63, 0
3, 55868, Note_off_c, 1, 66, 0
3, 55872, Note_on_c, 1, 63, 59
3, 55872, Note_on_c, 1, 66, 59
3, 56060, Note_off_c, 1, 63, 0
3, 56060, Note_off_c, 1, 66, 0
3, 56064, Note_on_c, 1, 61, 59
3, 56064, Note_on_c, 1, 64, 59
3, 56444, Note_off_c, 1, 61, 0
3, 56444, Note_off_c, 1, 64, 0
3, 56832, Note_on_c, 1, 54, 59
3, 57020, Note_off_c, 1, 54, 0
3, 57024, Note_on_c, 1, 61, 59
3, 57024, Note_on_c, 1, 57, 59
3, 57212, Note_off_c, 1, 61, 0
3, 57212, Note_off_c, 1, 57, 0
3, 57216, Note_on_c, 1, 61, 59
3, 57216, Note_on_c, 1, 57, 59
3, 57404, Note_off_c, 1, 61, 0
3, 57404, Note_off_c, 1, 57, 0
3, 57408, Note_on_c, 1, 61, 59
3, 57408, Note_on_c, 1, 57, 59
3, 57596, Note_off_c, 1, 61, 0
3, 57596, Note_off_c, 1, 57, 0
3, 57600, Note_on_c, 1, 56, 59
3, 57788, Note_off_c, 1, 56, 0
3, 57792, Note_on_c, 1, 59, 59
3, 57792, Note_on_c, 1, 61, 59
3, 57980, Note_off_c, 1, 59, 0
3, 57980, Note_off_c, 1, 61, 0
3, 57984, Note_on_c, 1, 59, 59
3, 57984, Note_on_c, 1, 61, 59
3, 58172, Note_off_c, 1, 59, 0
3, 58172, Note_off_c, 1, 61, 0
3, 58176, Note_on_c, 1, 59, 59
3, 58176, Note_on_c, 1, 61, 59
3, 58364, Note_off_c, 1, 59, 0
3, 58364, Note_off_c, 1, 61, 0
3, 58368, Note_on_c, 1, 54, 59
3, 58556, Note_off_c, 1, 54, 0
3, 58560, Note_on_c, 1, 57, 59
3, 58560, Note_on_c, 1, 61, 59
3, 58748, Note_off_c, 1, 57, 0
3, 58748, Note_off_c, 1, 61, 0
3, 58752, Note_on_c, 1, 57, 59
3, 58752, Note_on_c, 1, 61, 59
3, 58940, Note_off_c, 1, 57, 0
3, 58940, Note_off_c, 1, 61, 0
3, 58944, Note_on_c, 1, 57, 59
3, 58944, Note_on_c, 1, 61, 59
3, 59132, Note_off_c, 1, 57, 0
3, 59132, Note_off_c, 1, 61, 0
3, 59136, Note_on_c, 1, 53, 59
3, 59228, Note_off_c, 1, 53, 0
3, 59328, Note_on_c, 1, 56, 59
3, 59328, Note_on_c, 1, 61, 59
3, 59420, Note_off_c, 1, 56, 0
3, 59420, Note_off_c, 1, 61, 0
3, 59520, Note_on_c, 1, 56, 59
3, 59520, Note_on_c, 1, 61, 59
3, 59612, Note_off_c, 1, 56, 0
3, 59612, Note_off_c, 1, 61, 0
3, 59712, Note_on_c, 1, 56, 59
3, 59712, Note_on_c, 1, 61, 59
3, 59900, Note_off_c, 1, 56, 0
3, 59900, Note_off_c, 1, 61, 0
3, 59904, Note_on_c, 1, 54, 59
3, 60092, Note_off_c, 1, 54, 0
3, 60096, Note_on_c, 1, 57, 59
3, 60096, Note_on_c, 1, 61, 59
3, 60284, Note_off_c, 1, 57, 0
3, 60284, Note_off_c, 1, 61, 0
3, 60288, Note_on_c, 1, 57, 59
3, 60288, Note_on_c, 1, 61, 59
3, 60476, Note_off_c, 1, 57, 0
3, 60476, Note_off_c, 1, 61, 0
3, 60480, Note_on_c, 1, 57, 59
3, 60480, Note_on_c, 1, 61, 59
3, 60668, Note_off_c, 1, 57, 0
3, 60668, Note_off_c, 1, 61, 0
3, 60672, Note_on_c, 1, 56, 59
3, 60860, Note_off_c, 1, 56, 0
3, 60864, Note_on_c, 1, 61, 59
3, 60864, Note_on_c, 1, 64, 59
3, 61052, Note_off_c, 1, 61, 0
3, 61052, Note_off_c, 1, 64, 0
3, 61056, Note_on_c, 1, 61, 59
3, 61056, Note_on_c, 1, 64, 59
3, 61244, Note_off_c, 1, 61, 0
3, 61244, Note_off_c, 1, 64, 0
3, 61248, Note_on_c, 1, 61, 59
3, 61248, Note_on_c, 1, 64, 59
3, 61436, Note_off_c, 1, 61, 0
3, 61436, Note_off_c, 1, 64, 0
3, 61440, Note_on_c, 1, 56, 59
3, 61628, Note_off_c, 1, 56, 0
3, 61632, Note_on_c, 1, 66, 59
3, 61632, Note_on_c, 1, 63, 59
3, 61820, Note_off_c, 1, 66, 0
3, 61820, Note_off_c, 1, 63, 0
3, 61824, Note_on_c, 1, 63, 59
3, 61824, Note_on_c, 1, 66, 59
3, 62012, Note_off_c, 1, 63, 0
3, 62012, Note_off_c, 1, 66, 0
3, 62016, Note_on_c, 1, 63, 59
3, 62016, Note_on_c, 1, 66, 59
3, 62204, Note_off_c, 1, 63, 0
3, 62204, Note_off_c, 1, 66, 0
3, 62208, Note_on_c, 1, 61, 59
3, 62208, Note_on_c, 1, 64, 59
3, 62588, Note_off_c, 1, 61, 0
3, 62588, Note_off_c, 1, 64, 0
3, 62976, Note_on_c, 1, 57, 79
3, 63164, Note_off_c, 1, 57, 0
3, 63168, Note_on_c, 1, 61, 79
3, 63168, Note_on_c, 1, 64, 79
3, 63356, Note_off_c, 1, 61, 0
3, 63356, Note_off_c, 1, 64, 0
3, 63360, Note_on_c, 1, 61, 79
3, 63360, Note_on_c, 1, 64, 79
3, 63548, Note_off_c, 1, 61, 0
3, 63548, Note_off_c, 1, 64, 0
3, 63552, Note_on_c, 1, 61, 79
3, 63552, Note_on_c, 1, 64, 79
3, 63740, Note_off_c, 1, 61, 0
3, 63740, Note_off_c, 1, 64, 0
3, 63744, Note_on_c, 1, 59, 79
3, 63932, Note_off_c, 1, 59, 0
3, 63936, Note_on_c, 1, 62, 79
3, 63936, Note_on_c, 1, 64, 79
3, 64124, Note_off_c, 1, 62, 0
3, 64124, Note_off_c, 1, 64, 0
3, 64128, Note_on_c, 1, 56, 79
3, 64316, Note_off_c, 1, 56, 0
3, 64320, Note_on_c, 1, 62, 79
3, 64320, Note_on_c, 1, 64, 79
3, 64508, Note_off_c, 1, 62, 0
3, 64508, Note_off_c, 1, 64, 0
3, 64512, Note_on_c, 1, 57, 79
3, 64700, Note_off_c, 1, 57, 0
3, 64704, Note_on_c, 1, 61, 79
3, 64704, Note_on_c, 1, 64, 79
3, 64892, Note_off_c, 1, 61, 0
3, 64892, Note_off_c, 1, 64, 0
3, 64896, Note_on_c, 1, 61, 79
3, 64896, Note_on_c, 1, 64, 79
3, 65084, Note_off_c, 1, 61, 0
3, 65084, Note_off_c, 1, 64, 0
3, 65088, Note_on_c, 1, 61, 79
3, 65088, Note_on_c, 1, 64, 79
3, 65276, Note_off_c, 1, 61, 0
3, 65276, Note_off_c, 1, 64, 0
3, 65280, Note_on_c, 1, 52, 79
3, 65468, Note_off_c, 1, 52, 0
3, 65472, Note_on_c, 1, 56, 79
3, 65472, Note_on_c, 1, 62, 79
3, 65660, Note_off_c, 1, 56, 0
3, 65660, Note_off_c, 1, 62, 0
3, 65664, Note_on_c, 1, 56, 79
3, 65664, Note_on_c, 1, 62, 79
3, 65852, Note_off_c, 1, 56, 0
3, 65852, Note_off_c, 1, 62, 0
3, 65856, Note_on_c, 1, 56, 79
3, 65856, Note_on_c, 1, 62, 79
3, 66044, Note_off_c, 1, 56, 0
3, 66044, Note_off_c, 1, 62, 0
3, 66048, Note_on_c, 1, 57, 79
3, 66236, Note_off_c, 1, 57, 0
3, 66240, Note_on_c, 1, 61, 79
3, 66240, Note_on_c, 1, 64, 79
3, 66428, Note_off_c, 1, 61, 0
3, 66428, Note_off_c, 1, 64, 0
3, 66432, Note_on_c, 1, 61, 79
3, 66432, Note_on_c, 1, 64, 79
3, 66620, Note_off_c, 1, 61, 0
3, 66620, Note_off_c, 1, 64, 0
3, 66624, Note_on_c, 1, 61, 79
3, 66624, Note_on_c, 1, 64, 79
3, 66812, Note_off_c, 1, 61, 0
3, 66812, Note_off_c, 1, 64, 0
3, 66816, Note_on_c, 1, 59, 79
3, 67004, Note_off_c, 1, 59, 0
3, 67008, Note_on_c, 1, 62, 79
3, 67008, Note_on_c, 1, 64, 79
3, 67196, Note_off_c, 1, 62, 0
3, 67196, Note_off_c, 1, 64, 0
3, 67200, Note_on_c, 1, 56, 79
3, 67388, Note_off_c, 1, 56, 0
3, 67392, Note_on_c, 1, 62, 79
3, 67392, Note_on_c, 1, 64, 79
3, 67580, Note_off_c, 1, 62, 0
3, 67580, Note_off_c, 1, 64, 0
3, 67584, Note_on_c, 1, 57, 79
3, 67772, Note_off_c, 1, 57, 0
3, 67776, Note_on_c, 1, 54, 79
3, 67964, Note_off_c, 1, 54, 0
3, 67968, Note_on_c, 1, 50, 79
3, 68156, Note_off_c, 1, 50, 0
3, 68160, Note_on_c, 1, 52, 79
3, 68348, Note_off_c, 1, 52, 0
3, 68352, Note_on_c, 1, 45, 79
3, 68540, Note_off_c, 1, 45, 0
3, 68544, Note_on_c, 1, 57, 79
3, 68732, Note_off_c, 1, 57, 0
3, 69120, Note_on_c, 1, 54, 59
3, 69308, Note_off_c, 1, 54, 0
3, 69312, Note_on_c, 1, 57, 59
3, 69312, Note_on_c, 1, 61, 59
3, 69500, Note_off_c, 1, 57, 0
3, 69500, Note_off_c, 1, 61, 0
3, 69504, Note_on_c, 1, 57, 59
3, 69504, Note_on_c, 1, 61, 59
3, 69692, Note_off_c, 1, 57, 0
3, 69692, Note_off_c, 1, 61, 0
3, 69696, Note_on_c, 1, 57, 59
3, 69696, Note_on_c, 1, 61, 59
3, 69884, Note_off_c, 1, 57, 0
3, 69884, Note_off_c, 1, 61, 0
3, 69888, Note_on_c, 1, 56, 59
3, 70076, Note_off_c, 1, 56, 0
3, 70080, Note_on_c, 1, 59, 59
3, 70080, Note_on_c, 1, 61, 59
3, 70268, Note_off_c, 1, 59, 0
3, 70268, Note_off_c, 1, 61, 0
3, 70272, Note_on_c, 1, 59, 59
3, 70272, Note_on_c, 1, 61, 59
3, 70460, Note_off_c, 1, 59, 0
3, 70460, Note_off_c, 1, 61, 0
3, 70464, Note_on_c, 1, 59, 59
3, 70464, Note_on_c, 1, 61, 59
3, 70652, Note_off_c, 1, 59, 0
3, 70652, Note_off_c, 1, 61, 0
3, 70656, Note_on_c, 1, 54, 59
3, 70844, Note_off_c, 1, 54, 0
3, 70848, Note_on_c, 1, 57, 59
3, 70848, Note_on_c, 1, 61, 59
3, 71036, Note_off_c, 1, 57, 0
3, 71036, Note_off_c, 1, 61, 0
3, 71040, Note_on_c, 1, 57, 59
3, 71040, Note_on_c, 1, 61, 59
3, 71228, Note_off_c, 1, 57, 0
3, 71228, Note_off_c, 1, 61, 0
3, 71232, Note_on_c, 1, 57, 59
3, 71232, Note_on_c, 1, 61, 59
3, 71420, Note_off_c, 1, 57, 0
3, 71420, Note_off_c, 1, 61, 0
3, 71424, Note_on_c, 1, 49, 59
3, 71612, Note_off_c, 1, 49, 0
3, 71616, Note_on_c, 1, 56, 59
3, 71616, Note_on_c, 1, 61, 59
3, 71804, Note_off_c, 1, 56, 0
3, 71804, Note_off_c, 1, 61, 0
3, 71808, Note_on_c, 1, 56, 61
3, 71808, Note_on_c, 1, 61, 61
3, 71996, Note_off_c, 1, 56, 0
3, 71996, Note_off_c, 1, 61, 0
3, 72000, Note_on_c, 1, 56, 70
3, 72000, Note_on_c, 1, 61, 70
3, 72188, Note_off_c, 1, 56, 0
3, 72188, Note_off_c, 1, 61, 0
3, 72192, Note_on_c, 1, 47, 79
3, 72380, Note_off_c, 1, 47, 0
3, 72384, Note_on_c, 1, 54, 78
3, 72384, Note_on_c, 1, 59, 78
3, 72572, Note_off_c, 1, 54, 0
3, 72572, Note_off_c, 1, 59, 0
3, 72576, Note_on_c, 1, 54, 75
3, 72576, Note_on_c, 1, 59, 75
3, 72764, Note_off_c, 1, 54, 0
3, 72764, Note_off_c, 1, 59, 0
3, 72768, Note_on_c, 1, 54, 73
3, 72768, Note_on_c, 1, 59, 73
3, 72956, Note_off_c, 1, 54, 0
3, 72956, Note_off_c, 1, 59, 0
3, 72960, Note_on_c, 1, 47, 70
3, 73148, Note_off_c, 1, 47, 0
3, 73152, Note_on_c, 1, 56, 67
3, 73152, Note_on_c, 1, 59, 67
3, 73340, Note_off_c, 1, 56, 0
3, 73340, Note_off_c, 1, 59, 0
3, 73344, Note_on_c, 1, 56, 65
3, 73344, Note_on_c, 1, 59, 65
3, 73532, Note_off_c, 1, 56, 0
3, 73532, Note_off_c, 1, 59, 0
3, 73536, Note_on_c, 1, 56, 62
3, 73536, Note_on_c, 1, 59, 62
3, 73724, Note_off_c, 1, 56, 0
3, 73724, Note_off_c, 1, 59, 0
3, 73728, Note_on_c, 1, 49, 59
3, 73916, Note_off_c, 1, 49, 0
3, 73920, Note_on_c, 1, 57, 59
3, 73920, Note_on_c, 1, 54, 59
3, 74108, Note_off_c, 1, 57, 0
3, 74108, Note_off_c, 1, 54, 0
3, 74112, Note_on_c, 1, 57, 59
3, 74112, Note_on_c, 1, 54, 59
3, 74300, Note_off_c, 1, 57, 0
3, 74300, Note_off_c, 1, 54, 0
3, 74304, Note_on_c, 1, 57, 59
3, 74304, Note_on_c, 1, 54, 59
3, 74492, Note_off_c, 1, 57, 0
3, 74492, Note_off_c, 1, 54, 0
3, 74496, Note_on_c, 1, 57, 59
3, 74496, Note_on_c, 1, 54, 59
3, 74876, Note_off_c, 1, 57, 0
3, 74876, Note_off_c, 1, 54, 0
3, 75264, Note_on_c, 1, 57, 79
3, 75452, Note_off_c, 1, 57, 0
3, 75456, Note_on_c, 1, 61, 79
3, 75456, Note_on_c, 1, 64, 79
3, 75644, Note_off_c, 1, 61, 0
3, 75644, Note_off_c, 1, 64, 0
3, 75648, Note_on_c, 1, 61, 79
3, 75648, Note_on_c, 1, 64, 79
3, 75836, Note_off_c, 1, 61, 0
3, 75836, Note_off_c, 1, 64, 0
3, 75840, Note_on_c, 1, 61, 79
3, 75840, Note_on_c, 1, 64, 79
3, 76028, Note_off_c, 1, 61, 0
3, 76028, Note_off_c, 1, 64, 0
3, 76032, Note_on_c, 1, 59, 79
3, 76220, Note_off_c, 1, 59, 0
3, 76224, Note_on_c, 1, 62, 79
3, 76224, Note_on_c, 1, 64, 79
3, 76412, Note_off_c, 1, 62, 0
3, 76412, Note_off_c, 1, 64, 0
3, 76416, Note_on_c, 1, 56, 79
3, 76604, Note_off_c, 1, 56, 0
3, 76608, Note_on_c, 1, 62, 79
3, 76608, Note_on_c, 1, 64, 79
3, 76796, Note_off_c, 1, 62, 0
3, 76796, Note_off_c, 1, 64, 0
3, 76800, Note_on_c, 1, 57, 79
3, 76988, Note_off_c, 1, 57, 0
3, 76992, Note_on_c, 1, 61, 79
3, 76992, Note_on_c, 1, 64, 79
3, 77180, Note_off_c, 1, 61, 0
3, 77180, Note_off_c, 1, 64, 0
3, 77184, Note_on_c, 1, 61, 79
3, 77184, Note_on_c, 1, 64, 79
3, 77372, Note_off_c, 1, 61, 0
3, 77372, Note_off_c, 1, 64, 0
3, 77376, Note_on_c, 1, 61, 79
3, 77376, Note_on_c, 1, 64, 79
3, 77564, Note_off_c, 1, 61, 0
3, 77564, Note_off_c, 1, 64, 0
3, 77568, Note_on_c, 1, 52, 79
3, 77756, Note_off_c, 1, 52, 0
3, 77760, Note_on_c, 1, 56, 79
3, 77760, Note_on_c, 1, 62, 79
3, 77948, Note_off_c, 1, 56, 0
3, 77948, Note_off_c, 1, 62, 0
3, 77952, Note_on_c, 1, 56, 79
3, 77952, Note_on_c, 1, 62, 79
3, 78140, Note_off_c, 1, 56, 0
3, 78140, Note_off_c, 1, 62, 0
3, 78144, Note_on_c, 1, 56, 79
3, 78144, Note_on_c, 1, 62, 79
3, 78332, Note_off_c, 1, 56, 0
3, 78332, Note_off_c, 1, 62, 0
3, 78336, Note_on_c, 1, 57, 79
3, 78524, Note_off_c, 1, 57, 0
3, 78528, Note_on_c, 1, 61, 79
3, 78528, Note_on_c, 1, 64, 79
3, 78716, Note_off_c, 1, 61, 0
3, 78716, Note_off_c, 1, 64, 0
3, 78720, Note_on_c, 1, 61, 79
3, 78720, Note_on_c, 1, 64, 79
3, 78908, Note_off_c, 1, 61, 0
3, 78908, Note_off_c, 1, 64, 0
3, 78912, Note_on_c, 1, 61, 79
3, 78912, Note_on_c, 1, 64, 79
3, 79100, Note_off_c, 1, 61, 0
3, 79100, Note_off_c, 1, 64, 0
3, 79104, Note_on_c, 1, 59, 79
3, 79292, Note_off_c, 1, 59, 0
3, 79296, Note_on_c, 1, 62, 79
3, 79296, Note_on_c, 1, 64, 79
3, 79484, Note_off_c, 1, 62, 0
3, 79484, Note_off_c, 1, 64, 0
3, 79488, Note_on_c, 1, 56, 79
3, 79676, Note_off_c, 1, 56, 0
3, 79680, Note_on_c, 1, 62, 79
3, 79680, Note_on_c, 1, 64, 79
3, 79868, Note_off_c, 1, 62, 0
3, 79868, Note_off_c, 1, 64, 0
3, 79872, Note_on_c, 1, 57, 79
3, 80060, Note_off_c, 1, 57, 0
3, 80064, Note_on_c, 1, 54, 79
3, 80252, Note_off_c, 1, 54, 0
3, 80256, Note_on_c, 1, 50, 79
3, 80444, Note_off_c, 1, 50, 0
3, 80448, Note_on_c, 1, 52, 79
3, 80636, Note_off_c, 1, 52, 0
3, 80640, Note_on_c, 1, 45, 79
3, 80828, Note_off_c, 1, 45, 0
3, 80832, Note_on_c, 1, 57, 79
3, 81020, Note_off_c, 1, 57, 0
3, 81408, Note_on_c, 1, 54, 59
3, 81596, Note_off_c, 1, 54, 0
3, 81600, Note_on_c, 1, 57, 59
3, 81600, Note_on_c, 1, 61, 59
3, 81788, Note_off_c, 1, 57, 0
3, 81788, Note_off_c, 1, 61, 0
3, 81792, Note_on_c, 1, 57, 59
3, 81792, Note_on_c, 1, 61, 59
3, 81980, Note_off_c, 1, 57, 0
3, 81980, Note_off_c, 1, 61, 0
3, 81984, Note_on_c, 1, 57, 59
3, 81984, Note_on_c, 1, 61, 59
3, 82172, Note_off_c, 1, 57, 0
3, 82172, Note_off_c, 1, 61, 0
3, 82176, Note_on_c, 1, 56, 59
3, 82364, Note_off_c, 1, 56, 0
3, 82368, Note_on_c, 1, 59, 59
3, 82368, Note_on_c, 1, 61, 59
3, 82556, Note_off_c, 1, 59, 0
3, 82556, Note_off_c, 1, 61, 0
3, 82560, Note_on_c, 1, 59, 59
3, 82560, Note_on_c, 1, 61, 59
3, 82748, Note_off_c, 1, 59, 0
3, 82748, Note_off_c, 1, 61, 0
3, 82752, Note_on_c, 1, 59, 59
3, 82752, Note_on_c, 1, 61, 59
3, 82940, Note_off_c, 1, 59, 0
3, 82940, Note_off_c, 1, 61, 0
3, 82944, Note_on_c, 1, 54, 59
3, 83132, Note_off_c, 1, 54, 0
3, 83136, Note_on_c, 1, 57, 59
3, 83136, Note_on_c, 1, 61, 59
3, 83324, Note_off_c, 1, 57, 0
3, 83324, Note_off_c, 1, 61, 0
3, 83328, Note_on_c, 1, 57, 59
3, 83328, Note_on_c, 1, 61, 59
3, 83516, Note_off_c, 1, 57, 0
3, 83516, Note_off_c, 1, 61, 0
3, 83520, Note_on_c, 1, 57, 59
3, 83520, Note_on_c, 1, 61, 59
3, 83708, Note_off_c, 1, 57, 0
3, 83708, Note_off_c, 1, 61, 0
3, 83712, Note_on_c, 1, 49, 59
3, 83900, Note_off_c, 1, 49, 0
3, 83904, Note_on_c, 1, 56, 59
3, 83904, Note_on_c, 1, 61, 59
3, 84092, Note_off_c, 1, 56, 0
3, 84092, Note_off_c, 1, 61, 0
3, 84096, Note_on_c, 1, 56, 61
3, 84096, Note_on_c, 1, 61, 61
3, 84284, Note_off_c, 1, 56, 0
3, 84284, Note_off_c, 1, 61, 0
3, 84288, Note_on_c, 1, 56, 70
3, 84288, Note_on_c, 1, 61, 70
3, 84476, Note_off_c, 1, 56, 0
3, 84476, Note_off_c, 1, 61, 0
3, 84480, Note_on_c, 1, 47, 79
3, 84668, Note_off_c, 1, 47, 0
3, 84672, Note_on_c, 1, 54, 78
3, 84672, Note_on_c, 1, 59, 78
3, 84860, Note_off_c, 1, 54, 0
3, 84860, Note_off_c, 1, 59, 0
3, 84864, Note_on_c, 1, 54, 75
3, 84864, Note_on_c, 1, 59, 75
3, 85052, Note_off_c, 1, 54, 0
3, 85052, Note_off_c, 1, 59, 0
3, 85056, Note_on_c, 1, 54, 73
3, 85056, Note_on_c, 1, 59, 73
3, 85244, Note_off_c, 1, 54, 0
3, 85244, Note_off_c, 1, 59, 0
3, 85248, Note_on_c, 1, 47, 70
3, 85436, Note_off_c, 1, 47, 0
3, 85440, Note_on_c, 1, 56, 67
3, 85440, Note_on_c, 1, 59, 67
3, 85628, Note_off_c, 1, 56, 0
3, 85628, Note_off_c, 1, 59, 0
3, 85632, Note_on_c, 1, 56, 65
3, 85632, Note_on_c, 1, 59, 65
3, 85820, Note_off_c, 1, 56, 0
3, 85820, Note_off_c, 1, 59, 0
3, 85824, Note_on_c, 1, 56, 62
3, 85824, Note_on_c, 1, 59, 62
3, 86012, Note_off_c, 1, 56, 0
3, 86012, Note_off_c, 1, 59, 0
3, 86016, Note_on_c, 1, 49, 59
3, 86204, Note_off_c, 1, 49, 0
3, 86208, Note_on_c, 1, 57, 59
3, 86208, Note_on_c, 1, 54, 59
3, 86396, Note_off_c, 1, 57, 0
3, 86396, Note_off_c, 1, 54, 0
3, 86400, Note_on_c, 1, 57, 59
3, 86400, Note_on_c, 1, 54, 59
3, 86588, Note_off_c, 1, 57, 0
3, 86588, Note_off_c, 1, 54, 0
3, 86592, Note_on_c, 1, 57, 59
3, 86592, Note_on_c, 1, 54, 59
3, 86780, Note_off_c, 1, 57, 0
3, 86780, Note_off_c, 1, 54, 0
3, 86784, Note_on_c, 1, 57, 59
3, 86784, Note_on_c, 1, 54, 59
3, 87164, Note_off_c, 1, 57, 0
3, 87164, Note_off_c, 1, 54, 0
3, 87552, Note_on_c, 1, 45, 79
3, 87584, Note_off_c, 1, 45, 0
3, 87584, Note_on_c, 1, 49, 79
3, 87616, Note_off_c, 1, 49, 0
3, 87616, Note_on_c, 1, 52, 79
3, 87648, Note_off_c, 1, 52, 0
3, 87648, Note_on_c, 1, 57, 79
3, 87744, Note_on_c, 1, 57, 79
3, 87932, Note_off_c, 1, 57, 0
3, 87936, Note_on_c, 1, 57, 79
3, 88124, Note_off_c, 1, 57, 0
3, 88128, Note_on_c, 1, 57, 79
3, 88220, Note_off_c, 1, 57, 0
3, 88316, Note_off_c, 1, 57, 0
3, 88320, Note_on_c, 1, 45, 79
3, 88352, Note_off_c, 1, 45, 0
3, 88352, Note_on_c, 1, 49, 79
3, 88384, Note_off_c, 1, 49, 0
3, 88384, Note_on_c, 1, 52, 79
3, 88416, Note_off_c, 1, 52, 0
3, 88416, Note_on_c, 1, 57, 79
3, 88512, Note_on_c, 1, 57, 79
3, 88700, Note_off_c, 1, 57, 0
3, 88704, Note_on_c, 1, 57, 79
3, 88892, Note_off_c, 1, 57, 0
3, 88896, Note_on_c, 1, 57, 79
3, 88988, Note_off_c, 1, 57, 0
3, 89084, Note_off_c, 1, 57, 0
3, 89088, Note_on_c, 1, 38, 79
3, 89120, Note_off_c, 1, 38, 0
3, 89120, Note_on_c, 1, 42, 79
3, 89152, Note_off_c, 1, 42, 0
3, 89152, Note_on_c, 1, 45, 79
3, 89184, Note_off_c, 1, 45, 0
3, 89184, Note_on_c, 1, 50, 79
3, 89280, Note_on_c, 1, 50, 79
3, 89372, Note_off_c, 1, 50, 0
3, 89468, Note_off_c, 1, 50, 0
3, 89472, Note_on_c, 1, 39, 79
3, 89504, Note_off_c, 1, 39, 0
3, 89504, Note_on_c, 1, 42, 79
3, 89536, Note_off_c, 1, 42, 0
3, 89536, Note_on_c, 1, 45, 79
3, 89568, Note_off_c, 1, 45, 0
3, 89568, Note_on_c, 1, 51, 79
3, 89664, Note_on_c, 1, 51, 79
3, 89756, Note_off_c, 1, 51, 0
3, 89852, Note_off_c, 1, 51, 0
3, 89856, Note_on_c, 1, 40, 79
3, 89888, Note_off_c, 1, 40, 0
3, 89888, Note_on_c, 1, 44, 79
3, 89920, Note_off_c, 1, 44, 0
3, 89920, Note_on_c, 1, 47, 79
3, 89952, Note_off_c, 1, 47, 0
3, 89952, Note_on_c, 1, 52, 79
3, 90048, Note_on_c, 1, 52, 79
3, 90140, Note_off_c, 1, 52, 0
3, 90236, Note_off_c, 1, 52, 0
3, 90240, Note_on_c, 1, 52, 79
3, 90428, Note_off_c, 1, 52, 0
3, 90432, Note_on_c, 1, 52, 79
3, 90620, Note_off_c, 1, 52, 0
3, 90624, Note_on_c, 1, 45, 79
3, 90656, Note_off_c, 1, 45, 0
3, 90656, Note_on_c, 1, 49, 79
3, 90688, Note_off_c, 1, 49, 0
3, 90688, Note_on_c, 1, 52, 79
3, 90720, Note_off_c, 1, 52, 0
3, 90720, Note_on_c, 1, 57, 79
3, 90720, Note_on_c, 1, 57, 79
3, 90816, Note_on_c, 1, 57, 79
3, 90908, Note_off_c, 1, 57, 0
3, 91004, Note_off_c, 1, 57, 0
3, 91008, Note_on_c, 1, 57, 79
3, 91196, Note_off_c, 1, 57, 0
3, 91200, Note_on_c, 1, 57, 79
3, 91292, Note_off_c, 1, 57, 0
3, 91388, Note_off_c, 1, 57, 0
3, 91392, Note_on_c, 1, 45, 79
3, 91424, Note_off_c, 1, 45, 0
3, 91424, Note_on_c, 1, 49, 79
3, 91456, Note_off_c, 1, 49, 0
3, 91456, Note_on_c, 1, 52, 79
3, 91488, Note_off_c, 1, 52, 0
3, 91488, Note_on_c, 1, 57, 79
3, 91488, Note_on_c, 1, 57, 79
3, 91584, Note_on_c, 1, 57, 79
3, 91676, Note_off_c, 1, 57, 0
3, 91772, Note_off_c, 1, 57, 0
3, 91776, Note_on_c, 1, 57, 79
3, 91964, Note_off_c, 1, 57, 0
3, 91968, Note_on_c, 1, 57, 79
3, 92060, Note_off_c, 1, 57, 0
3, 92156, Note_off_c, 1, 57, 0
3, 92160, Note_on_c, 1, 38, 79
3, 92192, Note_off_c, 1, 38, 0
3, 92192, Note_on_c, 1, 42, 79
3, 92224, Note_off_c, 1, 42, 0
3, 92224, Note_on_c, 1, 45, 79
3, 92256, Note_off_c, 1, 45, 0
3, 92256, Note_on_c, 1, 50, 79
3, 92352, Note_on_c, 1, 50, 79
3, 92444, Note_off_c, 1, 50, 0
3, 92540, Note_off_c, 1, 50, 0
3, 92544, Note_on_c, 1, 40, 79
3, 92576, Note_off_c, 1, 40, 0
3, 92576, Note_on_c, 1, 44, 79
3, 92608, Note_off_c, 1, 44, 0
3, 92608, Note_on_c, 1, 47, 79
3, 92640, Note_off_c, 1, 47, 0
3, 92640, Note_on_c, 1, 52, 79
3, 92736, Note_on_c, 1, 52, 79
3, 92836, Note_off_c, 1, 52, 0
3, 92916, Note_off_c, 1, 52, 0
3, 92928, Note_on_c, 1, 45, 79
3, 93308, Note_off_c, 1, 45, 0
3, 93696, Note_on_c, 1, 45, 79
3, 93728, Note_off_c, 1, 45, 0
3, 93728, Note_on_c, 1, 49, 79
3, 93760, Note_off_c, 1, 49, 0
3, 93760, Note_on_c, 1, 52, 79
3, 93792, Note_off_c, 1, 52, 0
3, 93792, Note_on_c, 1, 57, 79
3, 93792, Note_on_c, 1, 57, 79
3, 93888, Note_on_c, 1, 57, 79
3, 93980, Note_off_c, 1, 57, 0
3, 94076, Note_off_c, 1, 57, 0
3, 94080, Note_on_c, 1, 57, 79
3, 94268, Note_off_c, 1, 57, 0
3, 94272, Note_on_c, 1, 57, 79
3, 94364, Note_off_c, 1, 57, 0
3, 94460, Note_off_c, 1, 57, 0
3, 94464, Note_on_c, 1, 45, 79
3, 94496, Note_off_c, 1, 45, 0
3, 94496, Note_on_c, 1, 49, 79
3, 94528, Note_off_c, 1, 49, 0
3, 94528, Note_on_c, 1, 52, 79
3, 94560, Note_off_c, 1, 52, 0
3, 94560, Note_on_c, 1, 57, 79
3, 94560, Note_on_c, 1, 57, 79
3, 94656, Note_on_c, 1, 57, 79
3, 94748, Note_off_c, 1, 57, 0
3, 94844, Note_off_c, 1, 57, 0
3, 94848, Note_on_c, 1, 57, 79
3, 95036, Note_off_c, 1, 57, 0
3, 95040, Note_on_c, 1, 57, 79
3, 95132, Note_off_c, 1, 57, 0
3, 95228, Note_off_c, 1, 57, 0
3, 95232, Note_on_c, 1, 38, 79
3, 95264, Note_off_c, 1, 38, 0
3, 95264, Note_on_c, 1, 42, 79
3, 95296, Note_off_c, 1, 42, 0
3, 95296, Note_on_c, 1, 45, 79
3, 95328, Note_off_c, 1, 45, 0
3, 95328, Note_on_c, 1, 50, 79
3, 95424, Note_on_c, 1, 50, 79
3, 95516, Note_off_c, 1, 50, 0
3, 95612, Note_off_c, 1, 50, 0
3, 95616, Note_on_c, 1, 39, 79
3, 95648, Note_off_c, 1, 39, 0
3, 95648, Note_on_c, 1, 42, 79
3, 95680, Note_off_c, 1, 42, 0
3, 95680, Note_on_c, 1, 45, 79
3, 95712, Note_off_c, 1, 45, 0
3, 95712, Note_on_c, 1, 51, 79
3, 95808, Note_on_c, 1, 51, 79
3, 95900, Note_off_c, 1, 51, 0
3, 95996, Note_off_c, 1, 51, 0
3, 96000, Note_on_c, 1, 40, 79
3, 96032, Note_off_c, 1, 40, 0
3, 96032, Note_on_c, 1, 44, 79
3, 96064, Note_off_c, 1, 44, 0
3, 96064, Note_on_c, 1, 47, 79
3, 96096, Note_off_c, 1, 47, 0
3, 96096, Note_on_c, 1, 52, 79
3, 96096, Note_on_c, 1, 52, 79
3, 96192, Note_on_c, 1, 52, 79
3, 96284, Note_off_c, 1, 52, 0
3, 96380, Note_off_c, 1, 52, 0
3, 96384, Note_on_c, 1, 52, 79
3, 96572, Note_off_c, 1, 52, 0
3, 96576, Note_on_c, 1, 52, 79
3, 96668, Note_off_c, 1, 52, 0
3, 96764, Note_off_c, 1, 52, 0
3, 96768, Note_on_c, 1, 45, 79
3, 96800, Note_off_c, 1, 45, 0
3, 96800, Note_on_c, 1, 49, 79
3, 96832, Note_off_c, 1, 49, 0
3, 96832, Note_on_c, 1, 52, 79
3, 96864, Note_off_c, 1, 52, 0
3, 96864, Note_on_c, 1, 57, 79
3, 96864, Note_on_c, 1, 57, 79
3, 96960, Note_on_c, 1, 57, 79
3, 97052, Note_off_c, 1, 57, 0
3, 97148, Note_off_c, 1, 57, 0
3, 97152, Note_on_c, 1, 57, 79
3, 97340, Note_off_c, 1, 57, 0
3, 97344, Note_on_c, 1, 57, 79
3, 97436, Note_off_c, 1, 57, 0
3, 97532, Note_off_c, 1, 57, 0
3, 97536, Note_on_c, 1, 45, 79
3, 97568, Note_off_c, 1, 45, 0
3, 97568, Note_on_c, 1, 49, 79
3, 97600, Note_off_c, 1, 49, 0
3, 97600, Note_on_c, 1, 52, 79
3, 97632, Note_off_c, 1, 52, 0
3, 97632, Note_on_c, 1, 57, 79
3, 97632, Note_on_c, 1, 57, 79
3, 97728, Note_on_c, 1, 57, 79
3, 97820, Note_off_c, 1, 57, 0
3, 97916, Note_off_c, 1, 57, 0
3, 97920, Note_on_c, 1, 57, 79
3, 98108, Note_off_c, 1, 57, 0
3, 98112, Note_on_c, 1, 57, 79
3, 98204, Note_off_c, 1, 57, 0
3, 98300, Note_off_c, 1, 57, 0
3, 98304, Note_on_c, 1, 38, 79
3, 98336, Note_off_c, 1, 38, 0
3, 98336, Note_on_c, 1, 42, 79
3, 98368, Note_off_c, 1, 42, 0
3, 98368, Note_on_c, 1, 45, 79
3, 98400, Note_off_c, 1, 45, 0
3, 98400, Note_on_c, 1, 50, 79
3, 98496, Note_on_c, 1, 50, 79
3, 98588, Note_off_c, 1, 50, 0
3, 98684, Note_off_c, 1, 50, 0
3, 98688, Note_on_c, 1, 40, 79
3, 98720, Note_off_c, 1, 40, 0
3, 98720, Note_on_c, 1, 44, 79
3, 98752, Note_off_c, 1, 44, 0
3, 98752, Note_on_c, 1, 47, 79
3, 98784, Note_off_c, 1, 47, 0
3, 98784, Note_on_c, 1, 52, 79
3, 98880, Note_on_c, 1, 52, 79
3, 98980, Note_off_c, 1, 52, 0
3, 99060, Note_off_c, 1, 52, 0
3, 99072, Key_signature, 0, "major"
3, 99072, Note_on_c, 1, 45, 79
3, 99452, Note_off_c, 1, 45, 0
3, 99840, Note_on_c, 1, 57, 59
3, 100028, Note_off_c, 1, 57, 0
3, 100032, Note_on_c, 1, 60, 59
3, 100032, Note_on_c, 1, 64, 59
3, 100220, Note_off_c, 1, 60, 0
3, 100220, Note_off_c, 1, 64, 0
3, 100224, Note_on_c, 1, 60, 59
3, 100224, Note_on_c, 1, 64, 59
3, 100412, Note_off_c, 1, 60, 0
3, 100412, Note_off_c, 1, 64, 0
3, 100416, Note_on_c, 1, 60, 59
3, 100416, Note_on_c, 1, 64, 59
3, 100604, Note_off_c, 1, 60, 0
3, 100604, Note_off_c, 1, 64, 0
3, 100608, Note_on_c, 1, 57, 59
3, 100796, Note_off_c, 1, 57, 0
3, 100800, Note_on_c, 1, 60, 59
3, 100800, Note_on_c, 1, 64, 59
3, 100988, Note_off_c, 1, 60, 0
3, 100988, Note_off_c, 1, 64, 0
3, 100992, Note_on_c, 1, 60, 59
3, 100992, Note_on_c, 1, 64, 59
3, 101180, Note_off_c, 1, 60, 0
3, 101180, Note_off_c, 1, 64, 0
3, 101184, Note_on_c, 1, 60, 59
3, 101184, Note_on_c, 1, 64, 59
3, 101372, Note_off_c, 1, 60, 0
3, 101372, Note_off_c, 1, 64, 0
3, 101376, Note_on_c, 1, 57, 59
3, 101564, Note_off_c, 1, 57, 0
3, 101568, Note_on_c, 1, 60, 59
3, 101568, Note_on_c, 1, 64, 59
3, 101756, Note_off_c, 1, 60, 0
3, 101756, Note_off_c, 1, 64, 0
3, 101760, Note_on_c, 1, 57, 59
3, 101948, Note_off_c, 1, 57, 0
3, 101952, Note_on_c, 1, 60, 59
3, 101952, Note_on_c, 1, 64, 59
3, 102140, Note_off_c, 1, 60, 0
3, 102140, Note_off_c, 1, 64, 0
3, 102144, Note_on_c, 1, 57, 59
3, 102332, Note_off_c, 1, 57, 0
3, 102336, Note_on_c, 1, 64, 59
3, 102336, Note_on_c, 1, 60, 59
3, 102524, Note_off_c, 1, 64, 0
3, 102524, Note_off_c, 1, 60, 0
3, 102528, Note_on_c, 1, 60, 59
3, 102528, Note_on_c, 1, 64, 59
3, 102716, Note_off_c, 1, 60, 0
3, 102716, Note_off_c, 1, 64, 0
3, 102720, Note_on_c, 1, 60, 59
3, 102720, Note_on_c, 1, 64, 59
3, 102908, Note_off_c, 1, 60, 0
3, 102908, Note_off_c, 1, 64, 0
3, 102912, Note_on_c, 1, 52, 59
3, 103100, Note_off_c, 1, 52, 0
3, 103104, Note_on_c, 1, 59, 59
3, 103104, Note_on_c, 1, 64, 59
3, 103292, Note_off_c, 1, 59, 0
3, 103292, Note_off_c, 1, 64, 0
3, 103296, Note_on_c, 1, 59, 59
3, 103296, Note_on_c, 1, 64, 59
3, 103484, Note_off_c, 1, 59, 0
3, 103484, Note_off_c, 1, 64, 0
3, 103488, Note_on_c, 1, 59, 59
3, 103488, Note_on_c, 1, 64, 59
3, 103676, Note_off_c, 1, 59, 0
3, 103676, Note_off_c, 1, 64, 0
3, 103680, Note_on_c, 1, 52, 59
3, 103868, Note_off_c, 1, 52, 0
3, 103872, Note_on_c, 1, 59, 59
3, 103872, Note_on_c, 1, 64, 59
3, 104060, Note_off_c, 1, 59, 0
3, 104060, Note_off_c, 1, 64, 0
3, 104064, Note_on_c, 1, 59, 59
3, 104064, Note_on_c, 1, 64, 59
3, 104252, Note_off_c, 1, 59, 0
3, 104252, Note_off_c, 1, 64, 0
3, 104256, Note_on_c, 1, 59, 59
3, 104256, Note_on_c, 1, 64, 59
3, 104444, Note_off_c, 1, 59, 0
3, 104444, Note_off_c, 1, 64, 0
3, 104448, Note_on_c, 1, 52, 59
3, 104636, Note_off_c, 1, 52, 0
3, 104640, Note_on_c, 1, 59, 59
3, 104640, Note_on_c, 1, 64, 59
3, 104828, Note_off_c, 1, 59, 0
3, 104828, Note_off_c, 1, 64, 0
3, 104832, Note_on_c, 1, 47, 59
3, 105020, Note_off_c, 1, 47, 0
3, 105024, Note_on_c, 1, 59, 59
3, 105212, Note_off_c, 1, 59, 0
3, 105216, Note_on_c, 1, 52, 59
3, 105596, Note_off_c, 1, 52, 0
3, 105984, Note_on_c, 1, 57, 59
3, 106172, Note_off_c, 1, 57, 0
3, 106176, Note_on_c, 1, 60, 59
3, 106176, Note_on_c, 1, 64, 59
3, 106364, Note_off_c, 1, 60, 0
3, 106364, Note_off_c, 1, 64, 0
3, 106368, Note_on_c, 1, 60, 59
3, 106368, Note_on_c, 1, 64, 59
3, 106556, Note_off_c, 1, 60, 0
3, 106556, Note_off_c, 1, 64, 0
3, 106560, Note_on_c, 1, 60, 59
3, 106560, Note_on_c, 1, 64, 59
3, 106748, Note_off_c, 1, 60, 0
3, 106748, Note_off_c, 1, 64, 0
3, 106752, Note_on_c, 1, 57, 59
3, 106940, Note_off_c, 1, 57, 0
3, 106944, Note_on_c, 1, 60, 59
3, 106944, Note_on_c, 1, 64, 59
3, 107132, Note_off_c, 1, 60, 0
3, 107132, Note_off_c, 1, 64, 0
3, 107136, Note_on_c, 1, 60, 59
3, 107136, Note_on_c, 1, 64, 59
3, 107324, Note_off_c, 1, 60, 0
3, 107324, Note_off_c, 1, 64, 0
3, 107328, Note_on_c, 1, 60, 59
3, 107328, Note_on_c, 1, 64, 59
3, 107516, Note_off_c, 1, 60, 0
3, 107516, Note_off_c, 1, 64, 0
3, 107520, Note_on_c, 1, 57, 59
3, 107708, Note_off_c, 1, 57, 0
3, 107712, Note_on_c, 1, 60, 59
3, 107712, Note_on_c, 1, 64, 59
3, 107900, Note_off_c, 1, 60, 0
3, 107900, Note_off_c, 1, 64, 0
3, 107904, Note_on_c, 1, 57, 59
3, 108092, Note_off_c, 1, 57, 0
3, 108096, Note_on_c, 1, 60, 59
3, 108096, Note_on_c, 1, 64, 59
3, 108284, Note_off_c, 1, 60, 0
3, 108284, Note_off_c, 1, 64, 0
3, 108288, Note_on_c, 1, 57, 59
3, 108476, Note_off_c, 1, 57, 0
3, 108480, Note_on_c, 1, 64, 59
3, 108480, Note_on_c, 1, 60, 59
3, 108668, Note_off_c, 1, 64, 0
3, 108668, Note_off_c, 1, 60, 0
3, 108672, Note_on_c, 1, 60, 59
3, 108672, Note_on_c, 1, 64, 59
3, 108860, Note_off_c, 1, 60, 0
3, 108860, Note_off_c, 1, 64, 0
3, 108864, Note_on_c, 1, 60, 59
3, 108864, Note_on_c, 1, 64, 59
3, 109052, Note_off_c, 1, 60, 0
3, 109052, Note_off_c, 1, 64, 0
3, 109056, Note_on_c, 1, 52, 59
3, 109244, Note_off_c, 1, 52, 0
3, 109248, Note_on_c, 1, 59, 59
3, 109248, Note_on_c, 1, 64, 59
3, 109436, Note_off_c, 1, 59, 0
3, 109436, Note_off_c, 1, 64, 0
3, 109440, Note_on_c, 1, 59, 59
3, 109440, Note_on_c, 1, 64, 59
3, 109628, Note_off_c, 1, 59, 0
3, 109628, Note_off_c, 1, 64, 0
3, 109632, Note_on_c, 1, 59, 59
3, 109632, Note_on_c, 1, 64, 59
3, 109820, Note_off_c, 1, 59, 0
3, 109820, Note_off_c, 1, 64, 0
3, 109824, Note_on_c, 1, 52, 59
3, 110012, Note_off_c, 1, 52, 0
3, 110016, Note_on_c, 1, 59, 59
3, 110016, Note_on_c, 1, 64, 59
3, 110204, Note_off_c, 1, 59, 0
3, 110204, Note_off_c, 1, 64, 0
3, 110208, Note_on_c, 1, 59, 59
3, 110208, Note_on_c, 1, 64, 59
3, 110396, Note_off_c, 1, 59, 0
3, 110396, Note_off_c, 1, 64, 0
3, 110400, Note_on_c, 1, 59, 59
3, 110400, Note_on_c, 1, 64, 59
3, 110588, Note_off_c, 1, 59, 0
3, 110588, Note_off_c, 1, 64, 0
3, 110592, Note_on_c, 1, 52, 59
3, 110780, Note_off_c, 1, 52, 0
3, 110784, Note_on_c, 1, 59, 59
3, 110784, Note_on_c, 1, 64, 59
3, 110972, Note_off_c, 1, 59, 0
3, 110972, Note_off_c, 1, 64, 0
3, 110976, Note_on_c, 1, 47, 59
3, 111164, Note_off_c, 1, 47, 0
3, 111168, Note_on_c, 1, 59, 59
3, 111356, Note_off_c, 1, 59, 0
3, 111360, Note_on_c, 1, 52, 59
3, 111548, Note_off_c, 1, 52, 0
3, 112128, Note_on_c, 1, 48, 59
3, 112316, Note_off_c, 1, 48, 0
3, 112320, Note_on_c, 1, 60, 59
3, 112508, Note_off_c, 1, 60, 0
3, 112512, Note_on_c, 1, 52, 59
3, 112700, Note_off_c, 1, 52, 0
3, 112704, Note_on_c, 1, 64, 59
3, 112892, Note_off_c, 1, 64, 0
3, 112896, Note_on_c, 1, 55, 59
3, 113660, Note_off_c, 1, 55, 0
3, 113664, Note_on_c, 1, 48, 59
3, 113852, Note_off_c, 1, 48, 0
3, 113856, Note_on_c, 1, 60, 59
3, 114044, Note_off_c, 1, 60, 0
3, 114048, Note_on_c, 1, 52, 59
3, 114236, Note_off_c, 1, 52, 0
3, 114240, Note_on_c, 1, 64, 59
3, 114428, Note_off_c, 1, 64, 0
3, 114432, Note_on_c, 1, 55, 59
3, 115196, Note_off_c, 1, 55, 0
3, 115200, Note_on_c, 1, 45, 59
3, 115388, Note_off_c, 1, 45, 0
3, 115392, Note_on_c, 1, 57, 59
3, 115580, Note_off_c, 1, 57, 0
3, 115584, Note_on_c, 1, 48, 59
3, 115772, Note_off_c, 1, 48, 0
3, 115776, Note_on_c, 1, 60, 59
3, 115964, Note_off_c, 1, 60, 0
3, 115968, Note_on_c, 1, 52, 59
3, 116732, Note_off_c, 1, 52, 0
3, 116736, Note_on_c, 1, 45, 59
3, 116924, Note_off_c, 1, 45, 0
3, 116928, Note_on_c, 1, 57, 59
3, 117116, Note_off_c, 1, 57, 0
3, 117120, Note_on_c, 1, 48, 59
3, 117308, Note_off_c, 1, 48, 0
3, 117312, Note_on_c, 1, 60, 59
3, 117500, Note_off_c, 1, 60, 0
3, 117504, Note_on_c, 1, 52, 59
3, 118268, Note_off_c, 1, 52, 0
3, 118272, Note_on_c, 1, 57, 59
3, 118460, Note_off_c, 1, 57, 0
3, 118464, Note_on_c, 1, 60, 59
3, 118464, Note_on_c, 1, 64, 59
3, 118652, Note_off_c, 1, 60, 0
3, 118652, Note_off_c, 1, 64, 0
3, 118656, Note_on_c, 1, 60, 59
3, 118656, Note_on_c, 1, 64, 59
3, 118844, Note_off_c, 1, 60, 0
3, 118844, Note_off_c, 1, 64, 0
3, 118848, Note_on_c, 1, 60, 59
3, 118848, Note_on_c, 1, 64, 59
3, 119036, Note_off_c, 1, 60, 0
3, 119036, Note_off_c, 1, 64, 0
3, 119040, Note_on_c, 1, 57, 59
3, 119228, Note_off_c, 1, 57, 0
3, 119232, Note_on_c, 1, 60, 59
3, 119232, Note_on_c, 1, 64, 59
3, 119420, Note_off_c, 1, 60, 0
3, 119420, Note_off_c, 1, 64, 0
3, 119424, Note_on_c, 1, 60, 59
3, 119424, Note_on_c, 1, 64, 59
3, 119612, Note_off_c, 1, 60, 0
3, 119612, Note_off_c, 1, 64, 0
3, 119616, Note_on_c, 1, 60, 59
3, 119616, Note_on_c, 1, 64, 59
3, 119804, Note_off_c, 1, 60, 0
3, 119804, Note_off_c, 1, 64, 0
3, 119808, Note_on_c, 1, 57, 61
3, 119996, Note_off_c, 1, 57, 0
3, 120000, Note_on_c, 1, 60, 65
3, 120000, Note_on_c, 1, 64, 65
3, 120188, Note_off_c, 1, 60, 0
3, 120188, Note_off_c, 1, 64, 0
3, 120192, Note_on_c, 1, 57, 70
3, 120380, Note_off_c, 1, 57, 0
3, 120384, Note_on_c, 1, 60, 74
3, 120384, Note_on_c, 1, 64, 74
3, 120572, Note_off_c, 1, 60, 0
3, 120572, Note_off_c, 1, 64, 0
3, 120576, Note_on_c, 1, 53, 59
3, 120764, Note_off_c, 1, 53, 0
3, 120768, Note_on_c, 1, 57, 59
3, 120768, Note_on_c, 1, 63, 59
3, 120956, Note_off_c, 1, 57, 0
3, 120956, Note_off_c, 1, 63, 0
3, 120960, Note_on_c, 1, 57, 59
3, 120960, Note_on_c, 1, 63, 59
3, 121148, Note_off_c, 1, 57, 0
3, 121148, Note_off_c, 1, 63, 0
3, 121152, Note_on_c, 1, 57, 59
3, 121152, Note_on_c, 1, 63, 59
3, 121340, Note_off_c, 1, 57, 0
3, 121340, Note_off_c, 1, 63, 0
3, 121344, Note_on_c, 1, 52, 59
3, 121532, Note_off_c, 1, 52, 0
3, 121536, Note_on_c, 1, 57, 59
3, 121536, Note_on_c, 1, 64, 59
3, 121724, Note_off_c, 1, 57, 0
3, 121724, Note_off_c, 1, 64, 0
3, 121728, Note_on_c, 1, 50, 59
3, 121916, Note_off_c, 1, 50, 0
3, 121920, Note_on_c, 1, 53, 59
3, 121920, Note_on_c, 1, 59, 59
3, 122108, Note_off_c, 1, 53, 0
3, 122108, Note_off_c, 1, 59, 0
3, 122112, Note_on_c, 1, 48, 59
3, 122300, Note_off_c, 1, 48, 0
3, 122304, Note_on_c, 1, 57, 59
3, 122304, Note_on_c, 1, 52, 59
3, 122492, Note_off_c, 1, 57, 0
3, 122492, Note_off_c, 1, 52, 0
3, 122496, Note_on_c, 1, 50, 59
3, 122684, Note_off_c, 1, 50, 0
3, 122688, Note_on_c, 1, 59, 59
3, 122688, Note_on_c, 1, 53, 59
3, 122876, Note_off_c, 1, 59, 0
3, 122876, Note_off_c, 1, 53, 0
3, 122880, Note_on_c, 1, 57, 59
3, 122880, Note_on_c, 1, 52, 59
3, 123068, Note_off_c, 1, 57, 0
3, 123068, Note_off_c, 1, 52, 0
3, 123072, Note_on_c, 1, 57, 59
3, 123072, Note_on_c, 1, 52, 59
3, 123260, Note_off_c, 1, 57, 0
3, 123260, Note_off_c, 1, 52, 0
3, 123264, Note_on_c, 1, 56, 59
3, 123264, Note_on_c, 1, 52, 59
3, 123452, Note_off_c, 1, 56, 0
3, 123452, Note_off_c, 1, 52, 0
3, 123456, Note_on_c, 1, 56, 59
3, 123456, Note_on_c, 1, 52, 59
3, 123644, Note_off_c, 1, 56, 0
3, 123644, Note_off_c, 1, 52, 0
3, 123648, Note_on_c, 1, 57, 59
3, 123648, Note_on_c, 1, 45, 59
3, 124028, Note_off_c, 1, 57, 0
3, 124028, Note_off_c, 1, 45, 0
3, 124416, Note_on_c, 1, 48, 66
3, 124604, Note_off_c, 1, 48, 0
3, 124608, Note_on_c, 1, 60, 66
3, 124796, Note_off_c, 1, 60, 0
3, 124800, Note_on_c, 1, 52, 66
3, 124988, Note_off_c, 1, 52, 0
3, 124992, Note_on_c, 1, 64, 66
3, 125180, Note_off_c, 1, 64, 0
3, 125184, Note_on_c, 1, 55, 66
3, 125948, Note_off_c, 1, 55, 0
3, 125952, Note_on_c, 1, 48, 66
3, 126140, Note_off_c, 1, 48, 0
3, 126144, Note_on_c, 1, 60, 66
3, 126332, Note_off_c, 1, 60, 0
3, 126336, Note_on_c, 1, 52, 66
3, 126524, Note_off_c, 1, 52, 0
3, 126528, Note_on_c, 1, 64, 66
3, 126716, Note_off_c, 1, 64, 0
3, 126720, Note_on_c, 1, 55, 66
3, 127484, Note_off_c, 1, 55, 0
3, 127488, Note_on_c, 1, 45, 66
3, 127676, Note_off_c, 1, 45, 0
3, 127680, Note_on_c, 1, 57, 66
3, 127868, Note_off_c, 1, 57, 0
3, 127872, Note_on_c, 1, 48, 66
3, 128060, Note_off_c, 1, 48, 0
3, 128064, Note_on_c, 1, 60, 66
3, 128252, Note_off_c, 1, 60, 0
3, 128256, Note_on_c, 1, 52, 66
3, 129020, Note_off_c, 1, 52, 0
3, 129024, Note_on_c, 1, 45, 66
3, 129212, Note_off_c, 1, 45, 0
3, 129216, Note_on_c, 1, 57, 66
3, 129404, Note_off_c, 1, 57, 0
3, 129408, Note_on_c, 1, 48, 66
3, 129596, Note_off_c, 1, 48, 0
3, 129600, Note_on_c, 1, 60, 66
3, 129788, Note_off_c, 1, 60, 0
3, 129792, Note_on_c, 1, 52, 59
3, 130556, Note_off_c, 1, 52, 0
3, 130560, Note_on_c, 1, 57, 59
3, 130748, Note_off_c, 1, 57, 0
3, 130752, Note_on_c, 1, 60, 59
3, 130752, Note_on_c, 1, 64, 59
3, 130940, Note_off_c, 1, 60, 0
3, 130940, Note_off_c, 1, 64, 0
3, 130944, Note_on_c, 1, 60, 59
3, 130944, Note_on_c, 1, 64, 59
3, 131132, Note_off_c, 1, 60, 0
3, 131132, Note_off_c, 1, 64, 0
3, 131136, Note_on_c, 1, 60, 59
3, 131136, Note_on_c, 1, 64, 59
3, 131324, Note_off_c, 1, 60, 0
3, 131324, Note_off_c, 1, 64, 0
3, 131328, Note_on_c, 1, 57, 59
3, 131516, Note_off_c, 1, 57, 0
3, 131520, Note_on_c, 1, 60, 59
3, 131520, Note_on_c, 1, 64, 59
3, 131708, Note_off_c, 1, 60, 0
3, 131708, Note_off_c, 1, 64, 0
3, 131712, Note_on_c, 1, 60, 59
3, 131712, Note_on_c, 1, 64, 59
3, 131900, Note_off_c, 1, 60, 0
3, 131900, Note_off_c, 1, 64, 0
3, 131904, Note_on_c, 1, 60, 59
3, 131904, Note_on_c, 1, 64, 59
3, 132092, Note_off_c, 1, 60, 0
3, 132092, Note_off_c, 1, 64, 0
3, 132096, Note_on_c, 1, 57, 59
3, 132284, Note_off_c, 1, 57, 0
3, 132288, Note_on_c, 1, 60, 59
3, 132288, Note_on_c, 1, 64, 59
3, 132476, Note_off_c, 1, 60, 0
3, 132476, Note_off_c, 1, 64, 0
3, 132480, Note_on_c, 1, 57, 59
3, 132668, Note_off_c, 1, 57, 0
3, 132672, Note_on_c, 1, 60, 59
3, 132672, Note_on_c, 1, 64, 59
3, 132860, Note_off_c, 1, 60, 0
3, 132860, Note_off_c, 1, 64, 0
3, 132864, Note_on_c, 1, 53, 59
3, 133052, Note_off_c, 1, 53, 0
3, 133056, Note_on_c, 1, 57, 59
3, 133056, Note_on_c, 1, 63, 59
3, 133244, Note_off_c, 1, 57, 0
3, 133244, Note_off_c, 1, 63, 0
3, 133248, Note_on_c, 1, 57, 59
3, 133248, Note_on_c, 1, 63, 59
3, 133436, Note_off_c, 1, 57, 0
3, 133436, Note_off_c, 1, 63, 0
3, 133440, Note_on_c, 1, 57, 59
3, 133440, Note_on_c, 1, 63, 59
3, 133628, Note_off_c, 1, 57, 0
3, 133628, Note_off_c, 1, 63, 0
3, 133632, Note_on_c, 1, 52, 59
3, 133820, Note_off_c, 1, 52, 0
3, 133824, Note_on_c, 1, 57, 59
3, 133824, Note_on_c, 1, 64, 59
3, 134012, Note_off_c, 1, 57, 0
3, 134012, Note_off_c, 1, 64, 0
3, 134016, Note_on_c, 1, 50, 59
3, 134204, Note_off_c, 1, 50, 0
3, 134208, Note_on_c, 1, 53, 59
3, 134208, Note_on_c, 1, 59, 59
3, 134396, Note_off_c, 1, 53, 0
3, 134396, Note_off_c, 1, 59, 0
3, 134400, Note_on_c, 1, 48, 59
3, 134588, Note_off_c, 1, 48, 0
3, 134592, Note_on_c, 1, 57, 59
3, 134592, Note_on_c, 1, 52, 59
3, 134780, Note_off_c, 1, 57, 0
3, 134780, Note_off_c, 1, 52, 0
3, 134784, Note_on_c, 1, 50, 59
3, 134972, Note_off_c, 1, 50, 0
3, 134976, Note_on_c, 1, 59, 59
3, 134976, Note_on_c, 1, 53, 59
3, 135164, Note_off_c, 1, 59, 0
3, 135164, Note_off_c, 1, 53, 0
3, 135168, Note_on_c, 1, 57, 59
3, 135168, Note_on_c, 1, 52, 59
3, 135356, Note_off_c, 1, 57, 0
3, 135356, Note_off_c, 1, 52, 0
3, 135360, Note_on_c, 1, 57, 59
3, 135360, Note_on_c, 1, 52, 59
3, 135548, Note_off_c, 1, 57, 0
3, 135548, Note_off_c, 1, 52, 0
3, 135552, Note_on_c, 1, 56, 59
3, 135552, Note_on_c, 1, 52, 59
3, 135740, Note_off_c, 1, 56, 0
3, 135740, Note_off_c, 1, 52, 0
3, 135744, Note_on_c, 1, 56, 59
3, 135744, Note_on_c, 1, 52, 59
3, 135932, Note_off_c, 1, 56, 0
3, 135932, Note_off_c, 1, 52, 0
3, 135936, Key_signature, 3, "major"
3, 135936, Note_on_c, 1, 57, 59
3, 135936, Note_on_c, 1, 45, 59
3, 136316, Note_off_c, 1, 57, 0
3, 136316, Note_off_c, 1, 45, 0
3, 136704, Note_on_c, 1, 45, 79
3, 136736, Note_off_c, 1, 45, 0
3, 136736, Note_on_c, 1, 49, 79
3, 136768, Note_off_c, 1, 49, 0
3, 136768, Note_on_c, 1, 52, 79
3, 136800, Note_off_c, 1, 52, 0
3, 136800, Note_on_c, 1, 57, 79
3, 136800, Note_on_c, 1, 57, 79
3, 136896, Note_on_c, 1, 57, 79
3, 136988, Note_off_c, 1, 57, 0
3, 137084, Note_off_c, 1, 57, 0
3, 137088, Note_on_c, 1, 57, 79
3, 137276, Note_off_c, 1, 57, 0
3, 137280, Note_on_c, 1, 57, 79
3, 137372, Note_off_c, 1, 57, 0
3, 137468, Note_off_c, 1, 57, 0
3, 137472, Note_on_c, 1, 44, 79
3, 137504, Note_off_c, 1, 44, 0
3, 137504, Note_on_c, 1, 45, 79
3, 137536, Note_off_c, 1, 45, 0
3, 137536, Note_on_c, 1, 49, 79
3, 137568, Note_off_c, 1, 49, 0
3, 137568, Note_on_c, 1, 57, 79
3, 137568, Note_on_c, 1, 57, 79
3, 137664, Note_on_c, 1, 57, 79
3, 137756, Note_off_c, 1, 57, 0
3, 137852, Note_off_c, 1, 57, 0
3, 137856, Note_on_c, 1, 57, 79
3, 138044, Note_off_c, 1, 57, 0
3, 138048, Note_on_c, 1, 57, 79
3, 138140, Note_off_c, 1, 57, 0
3, 138236, Note_off_c, 1, 57, 0
3, 138240, Note_on_c, 1, 38, 79
3, 138272, Note_off_c, 1, 38, 0
3, 138272, Note_on_c, 1, 42, 79
3, 138304, Note_off_c, 1, 42, 0
3, 138304, Note_on_c, 1, 45, 79
3, 138336, Note_off_c, 1, 45, 0
3, 138336, Note_on_c, 1, 50, 79
3, 138432, Note_on_c, 1, 50, 79
3, 138524, Note_off_c, 1, 50, 0
3, 138620, Note_off_c, 1, 50, 0
3, 138624, Note_on_c, 1, 38, 79
3, 138656, Note_off_c, 1, 38, 0
3, 138656, Note_on_c, 1, 42, 79
3, 138688, Note_off_c, 1, 42, 0
3, 138688, Note_on_c, 1, 45, 79
3, 138720, Note_off_c, 1, 45, 0
3, 138720, Note_on_c, 1, 50, 79
3, 138816, Note_on_c, 1, 50, 79
3, 138908, Note_off_c, 1, 50, 0
3, 139004, Note_off_c, 1, 50, 0
3, 139008, Note_on_c, 1, 40, 79
3, 139040, Note_off_c, 1, 40, 0
3, 139040, Note_on_c, 1, 44, 79
3, 139072, Note_off_c, 1, 44, 0
3, 139072, Note_on_c, 1, 47, 79
3, 139104, Note_off_c, 1, 47, 0
3, 139104, Note_on_c, 1, 52, 79
3, 139104, Note_on_c, 1, 52, 79
3, 139200, Note_on_c, 1, 52, 79
3, 139292, Note_off_c, 1, 52, 0
3, 139388, Note_off_c, 1, 52, 0
3, 139392, Note_on_c, 1, 52, 79
3, 139580, Note_off_c, 1, 52, 0
3, 139584, Note_on_c, 1, 52, 79
3, 139676, Note_off_c, 1, 52, 0
3, 139772, Note_off_c, 1, 52, 0
3, 139776, Note_on_c, 1, 45, 79
3, 139808, Note_off_c, 1, 45, 0
3, 139808, Note_on_c, 1, 49, 79
3, 139840, Note_off_c, 1, 49, 0
3, 139840, Note_on_c, 1, 52, 79
3, 139872, Note_off_c, 1, 52, 0
3, 139872, Note_on_c, 1, 57, 79
3, 139872, Note_on_c, 1, 57, 79
3, 139968, Note_on_c, 1, 57, 79
3, 140060, Note_off_c, 1, 57, 0
3, 140156, Note_off_c, 1, 57, 0
3, 140160, Note_on_c, 1, 57, 79
3, 140348, Note_off_c, 1, 57, 0
3, 140352, Note_on_c, 1, 57, 79
3, 140444, Note_off_c, 1, 57, 0
3, 140540, Note_off_c, 1, 57, 0
3, 140544, Note_on_c, 1, 45, 79
3, 140576, Note_off_c, 1, 45, 0
3, 140576, Note_on_c, 1, 49, 79
3, 140608, Note_off_c, 1, 49, 0
3, 140608, Note_on_c, 1, 52, 79
3, 140640, Note_off_c, 1, 52, 0
3, 140640, Note_on_c, 1, 57, 79
3, 140640, Note_on_c, 1, 57, 79
3, 140736, Note_on_c, 1, 57, 79
3, 140828, Note_off_c, 1, 57, 0
3, 140924, Note_off_c, 1, 57, 0
3, 140928, Note_on_c, 1, 57, 79
3, 141116, Note_off_c, 1, 57, 0
3, 141120, Note_on_c, 1, 57, 79
3, 141212, Note_off_c, 1, 57, 0
3, 141308, Note_off_c, 1, 57, 0
3, 141312, Note_on_c, 1, 38, 79
3, 141344, Note_off_c, 1, 38, 0
3, 141344, Note_on_c, 1, 42, 79
3, 141376, Note_off_c, 1, 42, 0
3, 141376, Note_on_c, 1, 50, 79
3, 141408, Note_on_c, 1, 45, 79
3, 141440, Note_off_c, 1, 45, 0
3, 141504, Note_on_c, 1, 50, 79
3, 141564, Note_off_c, 1, 50, 0
3, 141692, Note_off_c, 1, 50, 0
3, 141696, Note_on_c, 1, 40, 79
3, 141728, Note_off_c, 1, 40, 0
3, 141728, Note_on_c, 1, 44, 79
3, 141760, Note_off_c, 1, 44, 0
3, 141760, Note_on_c, 1, 47, 79
3, 141792, Note_off_c, 1, 47, 0
3, 141792, Note_on_c, 1, 50, 79
3, 141888, Note_on_c, 1, 50, 79
3, 141980, Note_off_c, 1, 50, 0
3, 142076, Note_off_c, 1, 50, 0
3, 142080, Note_on_c, 1, 45, 79
3, 142460, Note_off_c, 1, 45, 0
3, 142848, Note_on_c, 1, 45, 79
3, 142880, Note_off_c, 1, 45, 0
3, 142880, Note_on_c, 1, 49, 79
3, 142912, Note_off_c, 1, 49, 0
3, 142912, Note_on_c, 1, 52, 79
3, 142944, Note_off_c, 1, 52, 0
3, 142944, Note_on_c, 1, 57, 79
3, 142944, Note_on_c, 1, 57, 79
3, 143040, Note_on_c, 1, 57, 79
3, 143132, Note_off_c, 1, 57, 0
3, 143228, Note_off_c, 1, 57, 0
3, 143232, Note_on_c, 1, 57, 79
3, 143420, Note_off_c, 1, 57, 0
3, 143424, Note_on_c, 1, 57, 79
3, 143516, Note_off_c, 1, 57, 0
3, 143612, Note_off_c, 1, 57, 0
3, 143616, Note_on_c, 1, 44, 79
3, 143648, Note_off_c, 1, 44, 0
3, 143648, Note_on_c, 1, 45, 79
3, 143680, Note_off_c, 1, 45, 0
3, 143680, Note_on_c, 1, 49, 79
3, 143712, Note_off_c, 1, 49, 0
3, 143712, Note_on_c, 1, 57, 79
3, 143712, Note_on_c, 1, 57, 79
3, 143808, Note_on_c, 1, 57, 79
3, 143900, Note_off_c, 1, 57, 0
3, 143996, Note_off_c, 1, 57, 0
3, 144000, Note_on_c, 1, 57, 79
3, 144188, Note_off_c, 1, 57, 0
3, 144192, Note_on_c, 1, 57, 79
3, 144284, Note_off_c, 1, 57, 0
3, 144380, Note_off_c, 1, 57, 0
3, 144384, Note_on_c, 1, 38, 79
3, 144416, Note_off_c, 1, 38, 0
3, 144416, Note_on_c, 1, 42, 79
3, 144448, Note_off_c, 1, 42, 0
3, 144448, Note_on_c, 1, 45, 79
3, 144480, Note_off_c, 1, 45, 0
3, 144480, Note_on_c, 1, 50, 79
3, 144576, Note_on_c, 1, 50, 79
3, 144668, Note_off_c, 1, 50, 0
3, 144764, Note_off_c, 1, 50, 0
3, 144768, Note_on_c, 1, 38, 79
3, 144800, Note_off_c, 1, 38, 0
3, 144800, Note_on_c, 1, 42, 79
3, 144832, Note_off_c, 1, 42, 0
3, 144832, Note_on_c, 1, 45, 79
3, 144864, Note_off_c, 1, 45, 0
3, 144864, Note_on_c, 1, 50, 79
3, 144960, Note_on_c, 1, 50, 79
3, 145052, Note_off_c, 1, 50, 0
3, 145148, Note_off_c, 1, 50, 0
3, 145152, Note_on_c, 1, 40, 79
3, 145184, Note_off_c, 1, 40, 0
3, 145184, Note_on_c, 1, 44, 79
3, 145216, Note_off_c, 1, 44, 0
3, 145216, Note_on_c, 1, 47, 79
3, 145248, Note_off_c, 1, 47, 0
3, 145248, Note_on_c, 1, 52, 79
3, 145248, Note_on_c, 1, 52, 79
3, 145344, Note_on_c, 1, 52, 79
3, 145436, Note_off_c, 1, 52, 0
3, 145532, Note_off_c, 1, 52, 0
3, 145536, Note_on_c, 1, 52, 79
3, 145724, Note_off_c, 1, 52, 0
3, 145728, Note_on_c, 1, 52, 79
3, 145820, Note_off_c, 1, 52, 0
3, 145916, Note_off_c, 1, 52, 0
3, 145920, Note_on_c, 1, 45, 79
3, 145952, Note_off_c, 1, 45, 0
3, 145952, Note_on_c, 1, 49, 79
3, 145984, Note_off_c, 1, 49, 0
3, 145984, Note_on_c, 1, 52, 79
3, 146016, Note_off_c, 1, 52, 0
3, 146016, Note_on_c, 1, 57, 79
3, 146016, Note_on_c, 1, 57, 79
3, 146112, Note_on_c, 1, 57, 79
3, 146204, Note_off_c, 1, 57, 0
3, 146300, Note_off_c, 1, 57, 0
3, 146304, Note_on_c, 1, 57, 79
3, 146492, Note_off_c, 1, 57, 0
3, 146496, Note_on_c, 1, 57, 79
3, 146588, Note_off_c, 1, 57, 0
3, 146684, Note_off_c, 1, 57, 0
3, 146688, Note_on_c, 1, 45, 79
3, 146720, Note_off_c, 1, 45, 0
3, 146720, Note_on_c, 1, 49, 79
3, 146752, Note_off_c, 1, 49, 0
3, 146752, Note_on_c, 1, 52, 79
3, 146784, Note_off_c, 1, 52, 0
3, 146784, Note_on_c, 1, 57, 79
3, 146784, Note_on_c, 1, 57, 79
3, 146880, Note_on_c, 1, 57, 79
3, 146972, Note_off_c, 1, 57, 0
3, 147068, Note_off_c, 1, 57, 0
3, 147072, Note_on_c, 1, 57, 79
3, 147260, Note_off_c, 1, 57, 0
3, 147264, Note_on_c, 1, 57, 79
3, 147356, Note_off_c, 1, 57, 0
3, 147452, Note_off_c, 1, 57, 0
3, 147456, Note_on_c, 1, 38, 79
3, 147488, Note_off_c, 1, 38, 0
3, 147488, Note_on_c, 1, 42, 79
3, 147520, Note_off_c, 1, 42, 0
3, 147520, Note_on_c, 1, 50, 79
3, 147552, Note_on_c, 1, 45, 79
3, 147584, Note_off_c, 1, 45, 0
3, 147648, Note_on_c, 1, 50, 79
3, 147708, Note_off_c, 1, 50, 0
3, 147836, Note_off_c, 1, 50, 0
3, 147840, Note_on_c, 1, 40, 79
3, 147872, Note_off_c, 1, 40, 0
3, 147872, Note_on_c, 1, 44, 79
3, 147904, Note_off_c, 1, 44, 0
3, 147904, Note_on_c, 1, 47, 79
3, 147936, Note_off_c, 1, 47, 0
3, 147936, Note_on_c, 1, 50, 79
3, 148032, Note_on_c, 1, 50, 79
3, 148124, Note_off_c, 1, 50, 0
3, 148220, Note_off_c, 1, 50, 0
3, 148224, Note_on_c, 1, 45, 79
3, 148256, Note_off_c, 1, 45, 0
3, 148256, Note_on_c, 1, 49, 79
3, 148288, Note_off_c, 1, 49, 0
3, 148288, Note_on_c, 1, 52, 79
3, 148320, Note_off_c, 1, 52, 0
3, 148320, Note_on_c, 1, 57, 79
3, 148320, Note_on_c, 1, 57, 79
3, 148416, Note_on_c, 1, 57, 79
3, 148508, Note_off_c, 1, 57, 0
3, 148604, Note_off_c, 1, 57, 0
3, 148608, Note_on_c, 1, 57, 79
3, 148796, Note_off_c, 1, 57, 0
3, 148800, Note_on_c, 1, 57, 79
3, 148892, Note_off_c, 1, 57, 0
3, 148988, Note_off_c, 1, 57, 0
3, 148992, Note_on_c, 1, 45, 79
3, 149024, Note_off_c, 1, 45, 0
3, 149024, Note_on_c, 1, 49, 79
3, 149056, Note_off_c, 1, 49, 0
3, 149056, Note_on_c, 1, 52, 79
3, 149088, Note_off_c, 1, 52, 0
3, 149088, Note_on_c, 1, 57, 79
3, 149088, Note_on_c, 1, 57, 79
3, 149184, Note_on_c, 1, 57, 79
3, 149276, Note_off_c, 1, 57, 0
3, 149372, Note_off_c, 1, 57, 0
3, 149376, Note_on_c, 1, 57, 79
3, 149564, Note_off_c, 1, 57, 0
3, 149568, Note_on_c, 1, 57, 79
3, 149660, Note_off_c, 1, 57, 0
3, 149756, Note_off_c, 1, 57, 0
3, 149760, Note_on_c, 1, 45, 79
3, 149792, Note_off_c, 1, 45, 0
3, 149792, Note_on_c, 1, 49, 79
3, 149824, Note_off_c, 1, 49, 0
3, 149824, Note_on_c, 1, 52, 79
3, 149856, Note_off_c, 1, 52, 0
3, 149856, Note_on_c, 1, 57, 79
3, 149856, Note_on_c, 1, 57, 79
3, 149952, Note_on_c, 1, 57, 79
3, 150044, Note_off_c, 1, 57, 0
3, 150140, Note_off_c, 1, 57, 0
3, 150144, Note_on_c, 1, 57, 79
3, 150332, Note_off_c, 1, 57, 0
3, 150336, Note_on_c, 1, 57, 79
3, 150428, Note_off_c, 1, 57, 0
3, 150524, Note_off_c, 1, 57, 0
3, 150528, Note_on_c, 1, 45, 79
3, 150560, Note_off_c, 1, 45, 0
3, 150560, Note_on_c, 1, 49, 79
3, 150592, Note_off_c, 1, 49, 0
3, 150592, Note_on_c, 1, 52, 79
3, 150624, Note_off_c, 1, 52, 0
3, 150624, Note_on_c, 1, 57, 79
3, 150624, Note_on_c, 1, 57, 79
3, 150720, Note_on_c, 1, 57, 79
3, 150812, Note_off_c, 1, 57, 0
3, 150908, Note_off_c, 1, 57, 0
3, 150912, Note_on_c, 1, 57, 79
3, 151100, Note_off_c, 1, 57, 0
3, 151104, Note_on_c, 1, 57, 79
3, 151196, Note_off_c, 1, 57, 0
3, 151292, Note_off_c, 1, 57, 0
3, 151296, Note_on_c, 1, 38, 79
3, 151328, Note_off_c, 1, 38, 0
3, 151328, Note_on_c, 1, 42, 79
3, 151360, Note_off_c, 1, 42, 0
3, 151360, Note_on_c, 1, 45, 79
3, 151392, Note_off_c, 1, 45, 0
3, 151392, Note_on_c, 1, 50, 79
3, 151392, Note_on_c, 1, 50, 79
3, 151488, Note_on_c, 1, 50, 79
3, 151580, Note_off_c, 1, 50, 0
3, 151676, Note_off_c, 1, 50, 0
3, 151680, Note_on_c, 1, 50, 79
3, 151868, Note_off_c, 1, 50, 0
3, 151872, Note_on_c, 1, 50, 79
3, 151964, Note_off_c, 1, 50, 0
3, 152060, Note_off_c, 1, 50, 0
3, 152064, Note_on_c, 1, 45, 79
3, 152096, Note_off_c, 1, 45, 0
3, 152096, Note_on_c, 1, 49, 79
3, 152128, Note_off_c, 1, 49, 0
3, 152128, Note_on_c, 1, 52, 79
3, 152160, Note_off_c, 1, 52, 0
3, 152160, Note_on_c, 1, 57, 79
3, 152160, Note_on_c, 1, 57, 79
3, 152256, Note_on_c, 1, 57, 79
3, 152348, Note_off_c, 1, 57, 0
3, 152444, Note_off_c, 1, 57, 0
3, 152448, Note_on_c, 1, 57, 79
3, 152636, Note_off_c, 1, 57, 0
3, 152640, Note_on_c, 1, 57, 79
3, 152732, Note_off_c, 1, 57, 0
3, 152828, Note_off_c, 1, 57, 0
3, 152832, Note_on_c, 1, 40, 79
3, 152864, Note_off_c, 1, 40, 0
3, 152864, Note_on_c, 1, 44, 79
3, 152896, Note_off_c, 1, 44, 0
3, 152896, Note_on_c, 1, 47, 79
3, 152928, Note_off_c, 1, 47, 0
3, 152928, Note_on_c, 1, 52, 79
3, 152928, Note_on_c, 1, 52, 79
3, 153024, Note_on_c, 1, 52, 79
3, 153116, Note_off_c, 1, 52, 0
3, 153212, Note_off_c, 1, 52, 0
3, 153216, Note_on_c, 1, 52, 79
3, 153404, Note_off_c, 1, 52, 0
3, 153408, Note_on_c, 1, 52, 79
3, 153500, Note_off_c, 1, 52, 0
3, 153596, Note_off_c, 1, 52, 0
3, 153600, Note_on_c, 1, 45, 79
3, 153632, Note_off_c, 1, 45, 0
3, 153632, Note_on_c, 1, 49, 79
3, 153664, Note_off_c, 1, 49, 0
3, 153664, Note_on_c, 1, 52, 79
3, 153696, Note_off_c, 1, 52, 0
3, 153696, Note_on_c, 1, 57, 79
3, 153696, Note_on_c, 1, 57, 79
3, 153792, Note_on_c, 1, 57, 79
3, 153884, Note_off_c, 1, 57, 0
3, 153980, Note_off_c, 1, 57, 0
3, 153984, Note_on_c, 1, 57, 79
3, 154172, Note_off_c, 1, 57, 0
3, 154176, Note_on_c, 1, 57, 79
3, 154268, Note_off_c, 1, 57, 0
3, 154364, Note_off_c, 1, 57, 0
3, 154368, Note_on_c, 1, 45, 79
3, 154400, Note_off_c, 1, 45, 0
3, 154400, Note_on_c, 1, 49, 79
3, 154432, Note_off_c, 1, 49, 0
3, 154432, Note_on_c, 1, 52, 79
3, 154464, Note_off_c, 1, 52, 0
3, 154464, Note_on_c, 1, 57, 79
3, 154464, Note_on_c, 1, 57, 79
3, 154560, Note_on_c, 1, 57, 79
3, 154652, Note_off_c, 1, 57, 0
3, 154748, Note_off_c, 1, 57, 0
3, 154752, Note_on_c, 1, 57, 79
3, 154940, Note_off_c, 1, 57, 0
3, 154944, Note_on_c, 1, 57, 79
3, 155036, Note_off_c, 1, 57, 0
3, 155132, Note_off_c, 1, 57, 0
3, 155136, Note_on_c, 1, 45, 79
3, 155168, Note_off_c, 1, 45, 0
3, 155168, Note_on_c, 1, 49, 79
3, 155200, Note_off_c, 1, 49, 0
3, 155200, Note_on_c, 1, 52, 79
3, 155232, Note_off_c, 1, 52, 0
3, 155232, Note_on_c, 1, 57, 79
3, 155232, Note_on_c, 1, 57, 79
3, 155328, Note_on_c, 1, 57, 79
3, 155420, Note_off_c, 1, 57, 0
3, 155516, Note_off_c, 1, 57, 0
3, 155520, Note_on_c, 1, 57, 79
3, 155708, Note_off_c, 1, 57, 0
3, 155712, Note_on_c, 1, 57, 79
3, 155804, Note_off_c, 1, 57, 0
3, 155900, Note_off_c, 1, 57, 0
3, 155904, Note_on_c, 1, 38, 79
3, 155936, Note_off_c, 1, 38, 0
3, 155936, Note_on_c, 1, 42, 79
3, 155968, Note_off_c, 1, 42, 0
3, 155968, Note_on_c, 1, 45, 79
3, 156000, Note_off_c, 1, 45, 0
3, 156000, Note_on_c, 1, 50, 79
3, 156000, Note_on_c, 1, 50, 79
3, 156096, Note_on_c, 1, 50, 79
3, 156188, Note_off_c, 1, 50, 0
3, 156284, Note_off_c, 1, 50, 0
3, 156288, Note_on_c, 1, 50, 79
3, 156476, Note_off_c, 1, 50, 0
3, 156480, Note_on_c, 1, 50, 79
3, 156572, Note_off_c, 1, 50, 0
3, 156668, Note_off_c, 1, 50, 0
3, 156672, Note_on_c, 1, 45, 79
3, 156704, Note_off_c, 1, 45, 0
3, 156704, Note_on_c, 1, 49, 79
3, 156736, Note_off_c, 1, 49, 0
3, 156736, Note_on_c, 1, 52, 79
3, 156768, Note_off_c, 1, 52, 0
3, 156768, Note_on_c, 1, 57, 79
3, 156768, Note_on_c, 1, 57, 79
3, 156864, Note_on_c, 1, 57, 79
3, 156956, Note_off_c, 1, 57, 0
3, 157052, Note_off_c, 1, 57, 0
3, 157056, Note_on_c, 1, 57, 79
3, 157244, Note_off_c, 1, 57, 0
3, 157248, Note_on_c, 1, 57, 79
3, 157340, Note_off_c, 1, 57, 0
3, 157436, Note_off_c, 1, 57, 0
3, 157440, Note_on_c, 1, 40, 79
3, 157472, Note_off_c, 1, 40, 0
3, 157472, Note_on_c, 1, 44, 79
3, 157504, Note_off_c, 1, 44, 0
3, 157504, Note_on_c, 1, 47, 79
3, 157536, Note_off_c, 1, 47, 0
3, 157536, Note_on_c, 1, 52, 79
3, 157536, Note_on_c, 1, 52, 79
3, 157632, Note_on_c, 1, 52, 79
3, 157724, Note_off_c, 1, 52, 0
3, 157820, Note_off_c, 1, 52, 0
3, 157824, Note_on_c, 1, 52, 79
3, 158012, Note_off_c, 1, 52, 0
3, 158016, Note_on_c, 1, 52, 79
3, 158108, Note_off_c, 1, 52, 0
3, 158204, Note_off_c, 1, 52, 0
3, 158208, Note_on_c, 1, 57, 59
3, 158300, Note_off_c, 1, 57, 0
3, 158304, Note_on_c, 1, 64, 59
3, 158396, Note_off_c, 1, 64, 0
3, 158400, Note_on_c, 1, 61, 59
3, 158492, Note_off_c, 1, 61, 0
3, 158496, Note_on_c, 1, 64, 59
3, 158588, Note_off_c, 1, 64, 0
3, 158592, Note_on_c, 1, 57, 59
3, 158684, Note_off_c, 1, 57, 0
3, 158688, Note_on_c, 1, 64, 59
3, 158780, Note_off_c, 1, 64, 0
3, 158784, Note_on_c, 1, 61, 59
3, 158876, Note_off_c, 1, 61, 0
3, 158880, Note_on_c, 1, 64, 59
3, 158972, Note_off_c, 1, 64, 0
3, 158976, Note_on_c, 1, 57, 59
3, 159068, Note_off_c, 1, 57, 0
3, 159072, Note_on_c, 1, 64, 59
3, 159164, Note_off_c, 1, 64, 0
3, 159168, Note_on_c, 1, 61, 59
3, 159260, Note_off_c, 1, 61, 0
3, 159264, Note_on_c, 1, 64, 59
3, 159356, Note_off_c, 1, 64, 0
3, 159360, Note_on_c, 1, 57, 59
3, 159452, Note_off_c, 1, 57, 0
3, 159456, Note_on_c, 1, 64, 59
3, 159548, Note_off_c, 1, 64, 0
3, 159552, Note_on_c, 1, 61, 59
3, 159644, Note_off_c, 1, 61, 0
3, 159648, Note_on_c, 1, 64, 59
3, 159740, Note_off_c, 1, 64, 0
3, 159744, Note_on_c, 1, 57, 59
3, 159836, Note_off_c, 1, 57, 0
3, 159840, Note_on_c, 1, 64, 59
3, 159932, Note_off_c, 1, 64, 0
3, 159936, Note_on_c, 1, 61, 59
3, 160028, Note_off_c, 1, 61, 0
3, 160032, Note_on_c, 1, 64, 59
3, 160124, Note_off_c, 1, 64, 0
3, 160128, Note_on_c, 1, 57, 59
3, 160220, Note_off_c, 1, 57, 0
3, 160224, Note_on_c, 1, 64, 59
3, 160316, Note_off_c, 1, 64, 0
3, 160320, Note_on_c, 1, 61, 59
3, 160412, Note_off_c, 1, 61, 0
3, 160416, Note_on_c, 1, 64, 59
3, 160508, Note_off_c, 1, 64, 0
3, 160512, Note_on_c, 1, 57, 59
3, 160576, Note_on_c, 1, 64, 59
3, 160604, Note_off_c, 1, 57, 0
3, 160668, Note_off_c, 1, 64, 0
3, 160704, Note_on_c, 1, 61, 59
3, 160796, Note_off_c, 1, 61, 0
3, 160800, Note_on_c, 1, 64, 59
3, 160892, Note_off_c, 1, 64, 0
3, 160896, Note_on_c, 1, 57, 59
3, 160988, Note_off_c, 1, 57, 0
3, 160992, Note_on_c, 1, 64, 59
3, 161084, Note_off_c, 1, 64, 0
3, 161088, Note_on_c, 1, 61, 59
3, 161180, Note_off_c, 1, 61, 0
3, 161184, Note_on_c, 1, 64, 59
3, 161276, Note_off_c, 1, 64, 0
3, 161280, Note_on_c, 1, 57, 59
3, 161360, Note_on_c, 1, 66, 59
3, 161372, Note_off_c, 1, 57, 0
3, 161452, Note_off_c, 1, 66, 0
3, 161472, Note_on_c, 1, 62, 59
3, 161564, Note_off_c, 1, 62, 0
3, 161568, Note_on_c, 1, 66, 59
3, 161660, Note_off_c, 1, 66, 0
3, 161664, Note_on_c, 1, 57, 59
3, 161756, Note_off_c, 1, 57, 0
3, 161760, Note_on_c, 1, 66, 59
3, 161852, Note_off_c, 1, 66, 0
3, 161856, Note_on_c, 1, 62, 59
3, 161948, Note_off_c, 1, 62, 0
3, 161952, Note_on_c, 1, 66, 59
3, 162044, Note_off_c, 1, 66, 0
3, 162048, Note_on_c, 1, 57, 59
3, 162140, Note_off_c, 1, 57, 0
3, 162144, Note_on_c, 1, 64, 59
3, 162236, Note_off_c, 1, 64, 0
3, 162240, Note_on_c, 1, 61, 59
3, 162332, Note_off_c, 1, 61, 0
3, 162336, Note_on_c, 1, 64, 59
3, 162428, Note_off_c, 1, 64, 0
3, 162432, Note_on_c, 1, 57, 59
3, 162524, Note_off_c, 1, 57, 0
3, 162528, Note_on_c, 1, 64, 59
3, 162620, Note_off_c, 1, 64, 0
3, 162624, Note_on_c, 1, 61, 59
3, 162716, Note_off_c, 1, 61, 0
3, 162720, Note_on_c, 1, 64, 59
3, 162812, Note_off_c, 1, 64, 0
3, 162816, Note_on_c, 1, 52, 59
3, 162908, Note_off_c, 1, 52, 0
3, 162912, Note_on_c, 1, 64, 59
3, 163004, Note_off_c, 1, 64, 0
3, 163008, Note_on_c, 1, 56, 59
3, 163100, Note_off_c, 1, 56, 0
3, 163104, Note_on_c, 1, 64, 59
3, 163196, Note_off_c, 1, 64, 0
3, 163200, Note_on_c, 1, 52, 59
3, 163292, Note_off_c, 1, 52, 0
3, 163296, Note_on_c, 1, 64, 59
3, 163388, Note_off_c, 1, 64, 0
3, 163392, Note_on_c, 1, 56, 59
3, 163484, Note_off_c, 1, 56, 0
3, 163488, Note_on_c, 1, 64, 59
3, 163580, Note_off_c, 1, 64, 0
3, 163584, Note_on_c, 1, 45, 79
3, 163616, Note_off_c, 1, 45, 0
3, 163616, Note_on_c, 1, 49, 79
3, 163648, Note_off_c, 1, 49, 0
3, 163648, Note_on_c, 1, 52, 79
3, 163680, Note_off_c, 1, 52, 0
3, 163680, Note_on_c, 1, 57, 79
3, 163680, Note_on_c, 1, 57, 79
3, 163776, Note_on_c, 1, 57, 79
3, 163868, Note_off_c, 1, 57, 0
3, 163964, Note_off_c, 1, 57, 0
3, 163968, Note_on_c, 1, 57, 79
3, 164156, Note_off_c, 1, 57, 0
3, 164160, Note_on_c, 1, 57, 79
3, 164252, Note_off_c, 1, 57, 0
3, 164348, Note_off_c, 1, 57, 0
3, 164352, Note_on_c, 1, 45, 79
3, 164384, Note_off_c, 1, 45, 0
3, 164384, Note_on_c, 1, 49, 79
3, 164416, Note_off_c, 1, 49, 0
3, 164416, Note_on_c, 1, 52, 79
3, 164448, Note_off_c, 1, 52, 0
3, 164448, Note_on_c, 1, 57, 79
3, 164448, Note_on_c, 1, 57, 79
3, 164544, Note_on_c, 1, 57, 79
3, 164636, Note_off_c, 1, 57, 0
3, 164732, Note_off_c, 1, 57, 0
3, 164736, Note_on_c, 1, 57, 79
3, 164924, Note_off_c, 1, 57, 0
3, 164928, Note_on_c, 1, 57, 79
3, 165020, Note_off_c, 1, 57, 0
3, 165116, Note_off_c, 1, 57, 0
3, 165120, Note_on_c, 1, 45, 79
3, 165152, Note_off_c, 1, 45, 0
3, 165152, Note_on_c, 1, 49, 79
3, 165184, Note_off_c, 1, 49, 0
3, 165184, Note_on_c, 1, 52, 79
3, 165216, Note_off_c, 1, 52, 0
3, 165216, Note_on_c, 1, 57, 79
3, 165216, Note_on_c, 1, 57, 79
3, 165312, Note_on_c, 1, 57, 79
3, 165404, Note_off_c, 1, 57, 0
3, 165500, Note_off_c, 1, 57, 0
3, 165504, Note_on_c, 1, 57, 79
3, 165692, Note_off_c, 1, 57, 0
3, 165696, Note_on_c, 1, 57, 79
3, 165788, Note_off_c, 1, 57, 0
3, 165884, Note_off_c, 1, 57, 0
3, 165888, Note_on_c, 1, 38, 79
3, 165920, Note_off_c, 1, 38, 0
3, 165920, Note_on_c, 1, 42, 79
3, 165952, Note_off_c, 1, 42, 0
3, 165952, Note_on_c, 1, 45, 79
3, 165984, Note_off_c, 1, 45, 0
3, 165984, Note_on_c, 1, 50, 79
3, 165984, Note_on_c, 1, 50, 79
3, 166080, Note_on_c, 1, 50, 79
3, 166172, Note_off_c, 1, 50, 0
3, 166268, Note_off_c, 1, 50, 0
3, 166272, Note_on_c, 1, 50, 79
3, 166460, Note_off_c, 1, 50, 0
3, 166464, Note_on_c, 1, 50, 79
3, 166556, Note_off_c, 1, 50, 0
3, 166652, Note_off_c, 1, 50, 0
3, 166656, Note_on_c, 1, 45, 79
3, 166688, Note_off_c, 1, 45, 0
3, 166688, Note_on_c, 1, 49, 79
3, 166720, Note_off_c, 1, 49, 0
3, 166720, Note_on_c, 1, 52, 79
3, 166752, Note_off_c, 1, 52, 0
3, 166752, Note_on_c, 1, 57, 79
3, 166752, Note_on_c, 1, 57, 79
3, 166848, Note_on_c, 1, 57, 79
3, 166940, Note_off_c, 1, 57, 0
3, 167036, Note_off_c, 1, 57, 0
3, 167040, Note_on_c, 1, 57, 79
3, 167228, Note_off_c, 1, 57, 0
3, 167232, Note_on_c, 1, 57, 79
3, 167324, Note_off_c, 1, 57, 0
3, 167420, Note_off_c, 1, 57, 0
3, 167424, Note_on_c, 1, 40, 79
3, 167456, Note_off_c, 1, 40, 0
3, 167456, Note_on_c, 1, 44, 79
3, 167488, Note_off_c, 1, 44, 0
3, 167488, Note_on_c, 1, 47, 79
3, 167520, Note_off_c, 1, 47, 0
3, 167520, Note_on_c, 1, 52, 79
3, 167520, Note_on_c, 1, 52, 79
3, 167616, Note_on_c, 1, 52, 79
3, 167708, Note_off_c, 1, 52, 0
3, 167804, Note_off_c, 1, 52, 0
3, 167808, Note_on_c, 1, 52, 79
3, 167996, Note_off_c, 1, 52, 0
3, 168000, Note_on_c, 1, 52, 79
3, 168092, Note_off_c, 1, 52, 0
3, 168188, Note_off_c, 1, 52, 0
3, 168192, Note_on_c, 1, 45, 79
3, 168224, Note_off_c, 1, 45, 0
3, 168224, Note_on_c, 1, 49, 79
3, 168256, Note_off_c, 1, 49, 0
3, 168256, Note_on_c, 1, 52, 79
3, 168288, Note_off_c, 1, 52, 0
3, 168288, Note_on_c, 1, 57, 79
3, 168288, Note_on_c, 1, 57, 79
3, 168384, Note_on_c, 1, 57, 79
3, 168476, Note_off_c, 1, 57, 0
3, 168572, Note_off_c, 1, 57, 0
3, 168576, Note_on_c, 1, 57, 79
3, 168764, Note_off_c, 1, 57, 0
3, 168768, Note_on_c, 1, 57, 79
3, 168860, Note_off_c, 1, 57, 0
3, 168956, Note_off_c, 1, 57, 0
3, 168960, Note_on_c, 1, 45, 79
3, 168992, Note_off_c, 1, 45, 0
3, 168992, Note_on_c, 1, 49, 79
3, 169024, Note_off_c, 1, 49, 0
3, 169024, Note_on_c, 1, 52, 79
3, 169056, Note_off_c, 1, 52, 0
3, 169056, Note_on_c, 1, 57, 79
3, 169056, Note_on_c, 1, 57, 79
3, 169152, Note_on_c, 1, 57, 79
3, 169244, Note_off_c, 1, 57, 0
3, 169340, Note_off_c, 1, 57, 0
3, 169344, Note_on_c, 1, 57, 79
3, 169532, Note_off_c, 1, 57, 0
3, 169536, Note_on_c, 1, 57, 79
3, 169628, Note_off_c, 1, 57, 0
3, 169724, Note_off_c, 1, 57, 0
3, 169728, Note_on_c, 1, 45, 79
3, 169760, Note_off_c, 1, 45, 0
3, 169760, Note_on_c, 1, 49, 79
3, 169792, Note_off_c, 1, 49, 0
3, 169792, Note_on_c, 1, 52, 79
3, 169824, Note_off_c, 1, 52, 0
3, 169824, Note_on_c, 1, 57, 79
3, 169824, Note_on_c, 1, 57, 79
3, 169920, Note_on_c, 1, 57, 79
3, 170012, Note_off_c, 1, 57, 0
3, 170108, Note_off_c, 1, 57, 0
3, 170112, Note_on_c, 1, 57, 79
3, 170300, Note_off_c, 1, 57, 0
3, 170304, Note_on_c, 1, 57, 79
3, 170396, Note_off_c, 1, 57, 0
3, 170492, Note_off_c, 1, 57, 0
3, 170496, Note_on_c, 1, 45, 79
3, 170528, Note_off_c, 1, 45, 0
3, 170528, Note_on_c, 1, 49, 79
3, 170560, Note_off_c, 1, 49, 0
3, 170560, Note_on_c, 1, 52, 79
3, 170592, Note_off_c, 1, 52, 0
3, 170592, Note_on_c, 1, 57, 79
3, 170688, Note_on_c, 1, 57, 79
3, 170780, Note_off_c, 1, 57, 0
3, 170876, Note_off_c, 1, 57, 0
3, 170880, Note_on_c, 1, 45, 79
3, 170912, Note_off_c, 1, 45, 0
3, 170912, Note_on_c, 1, 49, 79
3, 170944, Note_off_c, 1, 49, 0
3, 170944, Note_on_c, 1, 52, 79
3, 170976, Note_off_c, 1, 52, 0
3, 170976, Note_on_c, 1, 57, 79
3, 171072, Note_on_c, 1, 57, 79
3, 171164, Note_off_c, 1, 57, 0
3, 171260, Note_off_c, 1, 57, 0
3, 171264, Note_on_c, 1, 45, 79
3, 171644, Note_off_c, 1, 45, 0
3, 171648, Note_on_c, 1, 57, 93
3, 171648, Note_on_c, 1, 52, 93
3, 171648, Note_on_c, 1, 49, 93
3, 171648, Note_on_c, 1, 45, 93
3, 172028, Note_off_c, 1, 57, 0
3, 172028, Note_off_c, 1, 52, 0
3, 172028, Note_off_c, 1, 49, 0
3, 172028, Note_off_c, 1, 45, 0
3, 172032, Note_on_c, 1, 57, 93
3, 172032, Note_on_c, 1, 52, 93
3, 172032, Note_on_c, 1, 49, 93
3, 172032, Note_on_c, 1, 45, 93
3, 172412, Note_off_c, 1, 57, 0
3, 172412, Note_off_c, 1, 52, 0
3, 172412, Note_off_c, 1, 49, 0
3, 172412, Note_off_c, 1, 45, 0
3, 172412, End_track
4, 0, Start_track
4, 0, Title_t, "K331-c-RondoAllaTurca"
4, 0, Control_c, 2, 7, 85
4, 0, Control_c, 2, 10, 67
4, 0, Control_c, 2, 91, 0
4, 0, Control_c, 2, 93, 0
4, 0, Key_signature, 0, "major"
4, 37632, Key_signature, 3, "major"
4, 99072, Key_signature, 0, "major"
4, 135936, Key_signature, 3, "major"
4, 135936, End_track
5, 0, Start_track
5, 0, Title_t, "Midi by: "
5, 0, Key_signature, 0, "major"
5, 37632, Key_signature, 3, "major"
5, 99072, Key_signature, 0, "major"
5, 135936, Key_signature, 3, "major"
5, 135936, End_track
6, 0, Start_track
6, 0, Title_t, "B.Fisher"
6, 0, Key_signature, 0, "major"
6, 0, End_track
7, 0, Start_track
7, 0, Key_signature, 0, "major"
7, 0, End_track
8, 0, Start_track
8, 0, Key_signature, 0, "major"
8, 0, End_track
9, 0, Start_track
9, 0, Key_signature, 0, "major"
9, 0, End_track
10, 0, Start_track
10, 0, Key_signature, 0, "major"
10, 0, End_track
11, 0, Start_track
11, 0, Key_signature, 0, "major"
11, 0, End_track
12, 0, Start_track
12, 0, Key_signature, 0, "major"
12, 0, End_track
13, 0, Start_track
13, 0, Key_signature, 0, "major"
13, 0, End_track
14, 0, Start_track
14, 0, Key_signature, 0, "major"
14, 0, End_track
15, 0, Start_track
15, 0, Key_signature, 0, "major"
15, 0, End_track
16, 0, Start_track
16, 0, Key_signature, 0, "major"
16, 0, End_track
17, 0, Start_track
17, 0, Key_signature, 0, "major"
17, 0, End_track
0, 0, End_of_file
