0, 0, Header, 1, 8, 384
1, 0, Start_track
1, 0, Time_signature, 4, 2, 96, 8
1, 0, Sequencer_specific, 3, 0, 0, 65
1, 0, Tempo, 517241
1, 64512, Tempo, 517241
1, 75648, Tempo, 545454
1, 79872, Tempo, 517241
1, 322560, Tempo, 566037
1, 324096, Tempo, 689655
1, 325632, Tempo, 937500
1, 326784, Tempo, 612244
1, 329472, Tempo, 566037
1, 332160, Tempo, 618556
1, 332928, Tempo, 566037
1, 344832, Tempo, 779220
1, 345216, Tempo, 566037
1, 348672, Tempo, 618556
1, 351744, Tempo, 517241
1, 371712, Tempo, 476190
1, 388224, Tempo, 625000
1, 389760, Tempo, 517241
1, 407040, Tempo, 625000
1, 408576, Tempo, 535714
1, 409916, Tempo, 1500000
1, 410112, Tempo, 517241
1, 420864, Tempo, 566037
1, 421248, Tempo, 697674
1, 421248, End_track
2, 0, Start_track
2, 0, Title_t, "Mozart Violin Concerto"
2, 0, Control_c, 0, 0, 0
2, 0, Program_c, 0, 40
2, 0, Control_c, 0, 10, 67
2, 0, Control_c, 0, 91, 66
2, 0, Control_c, 0, 93, 32
2, 0, Key_signature, 2, "major"
2, 0, Control_c, 0, 121, 0
2, 144, Control_c, 0, 10, 63
2, 192, Control_c, 0, 91, 73
2, 240, Control_c, 0, 93, 35
2, 288, Program_c, 0, 40
2, 328, Control_c, 0, 1, 55
2, 64504, Control_c, 0, 1, 55
2, 64512, Note_on_c, 0, 88, 80
2, 64600, Note_off_c, 0, 88, 0
2, 64608, Note_on_c, 0, 86, 71
2, 64884, Note_off_c, 0, 86, 0
2, 64896, Note_on_c, 0, 86, 71
2, 65184, Note_off_c, 0, 86, 0
2, 65184, Note_on_c, 0, 86, 83
2, 65272, Note_off_c, 0, 86, 0
2, 65280, Note_on_c, 0, 86, 78
2, 65656, Note_off_c, 0, 86, 0
2, 65664, Note_on_c, 0, 86, 78
2, 66040, Note_off_c, 0, 86, 0
2, 66048, Note_on_c, 0, 86, 78
2, 66424, Note_off_c, 0, 86, 0
2, 66624, Note_on_c, 0, 90, 83
2, 66712, Note_off_c, 0, 90, 0
2, 66816, Note_on_c, 0, 93, 78
2, 67200, Note_off_c, 0, 93, 0
2, 67392, Note_on_c, 0, 90, 73
2, 67484, Note_off_c, 0, 90, 0
2, 67584, Note_on_c, 0, 86, 72
2, 67676, Note_off_c, 0, 86, 0
2, 67776, Note_on_c, 0, 90, 73
2, 67868, Note_off_c, 0, 90, 0
2, 67968, Note_on_c, 0, 93, 74
2, 68060, Note_off_c, 0, 93, 0
2, 68160, Note_on_c, 0, 90, 73
2, 68252, Note_off_c, 0, 90, 0
2, 68352, Note_on_c, 0, 86, 72
2, 68444, Note_off_c, 0, 86, 0
2, 68544, Note_on_c, 0, 90, 74
2, 68636, Note_off_c, 0, 90, 0
2, 68736, Note_on_c, 0, 93, 73
2, 68828, Note_off_c, 0, 93, 0
2, 68928, Note_on_c, 0, 90, 72
2, 69020, Note_off_c, 0, 90, 0
2, 69120, Note_on_c, 0, 86, 71
2, 69504, Note_off_c, 0, 86, 0
2, 69888, Control_c, 0, 1, 55
2, 70272, Note_on_c, 0, 86, 53
2, 70464, Note_off_c, 0, 86, 0
2, 70464, Note_on_c, 0, 85, 53
2, 70644, Note_off_c, 0, 85, 0
2, 70656, Note_on_c, 0, 86, 55
2, 70748, Note_off_c, 0, 86, 0
2, 71040, Note_on_c, 0, 85, 59
2, 71132, Note_off_c, 0, 85, 0
2, 71424, Note_on_c, 0, 83, 63
2, 71516, Note_off_c, 0, 83, 0
2, 71808, Note_on_c, 0, 81, 69
2, 71900, Note_off_c, 0, 81, 0
2, 72192, Note_on_c, 0, 83, 73
2, 72236, Note_off_c, 0, 83, 0
2, 72240, Note_on_c, 0, 85, 71
2, 72284, Note_off_c, 0, 85, 0
2, 72288, Note_on_c, 0, 83, 69
2, 72332, Note_off_c, 0, 83, 0
2, 72336, Note_on_c, 0, 85, 68
2, 72380, Note_off_c, 0, 85, 0
2, 72384, Note_on_c, 0, 83, 64
2, 72428, Note_off_c, 0, 83, 0
2, 72432, Note_on_c, 0, 85, 62
2, 72476, Note_off_c, 0, 85, 0
2, 72480, Note_on_c, 0, 81, 61
2, 72524, Note_off_c, 0, 81, 0
2, 72528, Note_on_c, 0, 83, 59
2, 72572, Note_off_c, 0, 83, 0
2, 72576, Note_on_c, 0, 81, 56
2, 73144, Note_off_c, 0, 81, 0
2, 73152, Note_on_c, 0, 82, 53
2, 73344, Note_off_c, 0, 82, 0
2, 73344, Note_on_c, 0, 83, 53
2, 73532, Note_off_c, 0, 83, 0
2, 73536, Note_on_c, 0, 82, 53
2, 73716, Note_off_c, 0, 82, 0
2, 73728, Note_on_c, 0, 83, 53
2, 73824, Note_off_c, 0, 83, 0
2, 73824, Note_on_c, 0, 85, 53
2, 73916, Note_off_c, 0, 85, 0
2, 73920, Note_on_c, 0, 86, 53
2, 74012, Note_off_c, 0, 86, 0
2, 74016, Note_on_c, 0, 83, 53
2, 74096, Note_off_c, 0, 83, 0
2, 74112, Note_on_c, 0, 81, 55
2, 74208, Note_off_c, 0, 81, 0
2, 74208, Note_on_c, 0, 83, 56
2, 74300, Note_off_c, 0, 83, 0
2, 74304, Note_on_c, 0, 85, 57
2, 74396, Note_off_c, 0, 85, 0
2, 74400, Note_on_c, 0, 81, 58
2, 74480, Note_off_c, 0, 81, 0
2, 74496, Note_on_c, 0, 79, 59
2, 74592, Note_off_c, 0, 79, 0
2, 74592, Note_on_c, 0, 81, 59
2, 74684, Note_off_c, 0, 81, 0
2, 74688, Note_on_c, 0, 83, 61
2, 74780, Note_off_c, 0, 83, 0
2, 74784, Note_on_c, 0, 79, 62
2, 74864, Note_off_c, 0, 79, 0
2, 74880, Note_on_c, 0, 78, 64
2, 74976, Note_off_c, 0, 78, 0
2, 74976, Note_on_c, 0, 79, 67
2, 75068, Note_off_c, 0, 79, 0
2, 75072, Note_on_c, 0, 81, 69
2, 75164, Note_off_c, 0, 81, 0
2, 75168, Note_on_c, 0, 78, 71
2, 75248, Note_off_c, 0, 78, 0
2, 75264, Note_on_c, 0, 79, 82
2, 75308, Note_off_c, 0, 79, 0
2, 75312, Note_on_c, 0, 81, 70
2, 75356, Note_off_c, 0, 81, 0
2, 75360, Note_on_c, 0, 79, 69
2, 75404, Note_off_c, 0, 79, 0
2, 75408, Note_on_c, 0, 81, 68
2, 75452, Note_off_c, 0, 81, 0
2, 75456, Note_on_c, 0, 79, 66
2, 75500, Note_off_c, 0, 79, 0
2, 75504, Note_on_c, 0, 81, 63
2, 75548, Note_off_c, 0, 81, 0
2, 75552, Note_on_c, 0, 78, 61
2, 75596, Note_off_c, 0, 78, 0
2, 75600, Note_on_c, 0, 79, 59
2, 75644, Note_off_c, 0, 79, 0
2, 75648, Note_on_c, 0, 78, 56
2, 76028, Note_off_c, 0, 78, 0
2, 76032, Note_on_c, 0, 86, 53
2, 76224, Note_off_c, 0, 86, 0
2, 76224, Note_on_c, 0, 81, 53
2, 76404, Note_off_c, 0, 81, 0
2, 76416, Note_on_c, 0, 81, 53
2, 76608, Note_off_c, 0, 81, 0
2, 76608, Note_on_c, 0, 78, 53
2, 76788, Note_off_c, 0, 78, 0
2, 76800, Note_on_c, 0, 78, 52
2, 76992, Note_off_c, 0, 78, 0
2, 76992, Note_on_c, 0, 79, 52
2, 77172, Note_off_c, 0, 79, 0
2, 77184, Note_on_c, 0, 79, 52
2, 77564, Note_off_c, 0, 79, 0
2, 77568, Note_on_c, 0, 79, 52
2, 77760, Note_off_c, 0, 79, 0
2, 77760, Note_on_c, 0, 76, 52
2, 77940, Note_off_c, 0, 76, 0
2, 77952, Note_on_c, 0, 76, 52
2, 78144, Note_off_c, 0, 76, 0
2, 78144, Note_on_c, 0, 73, 52
2, 78324, Note_off_c, 0, 73, 0
2, 78336, Note_on_c, 0, 73, 51
2, 78528, Note_off_c, 0, 73, 0
2, 78528, Note_on_c, 0, 74, 52
2, 78708, Note_off_c, 0, 74, 0
2, 78720, Note_on_c, 0, 74, 52
2, 79100, Note_off_c, 0, 74, 0
2, 79104, Note_on_c, 0, 71, 52
2, 79296, Note_off_c, 0, 71, 0
2, 79296, Note_on_c, 0, 74, 51
2, 79476, Note_off_c, 0, 74, 0
2, 79488, Note_on_c, 0, 79, 51
2, 79680, Note_off_c, 0, 79, 0
2, 79680, Note_on_c, 0, 83, 49
2, 79860, Note_off_c, 0, 83, 0
2, 79872, Note_on_c, 0, 83, 50
2, 79968, Note_off_c, 0, 83, 0
2, 79968, Note_on_c, 0, 81, 51
2, 80048, Note_off_c, 0, 81, 0
2, 80064, Note_on_c, 0, 79, 51
2, 80156, Note_off_c, 0, 79, 0
2, 80160, Note_on_c, 0, 78, 52
2, 80252, Note_off_c, 0, 78, 0
2, 80256, Note_on_c, 0, 79, 55
2, 80348, Note_off_c, 0, 79, 0
2, 80352, Note_on_c, 0, 81, 55
2, 80444, Note_off_c, 0, 81, 0
2, 80448, Note_on_c, 0, 83, 56
2, 80540, Note_off_c, 0, 83, 0
2, 80544, Note_on_c, 0, 85, 57
2, 80636, Note_off_c, 0, 85, 0
2, 80640, Note_on_c, 0, 86, 58
2, 80736, Note_off_c, 0, 86, 0
2, 80736, Note_on_c, 0, 85, 59
2, 80816, Note_off_c, 0, 85, 0
2, 80832, Note_on_c, 0, 83, 59
2, 80924, Note_off_c, 0, 83, 0
2, 80928, Note_on_c, 0, 81, 60
2, 81020, Note_off_c, 0, 81, 0
2, 81024, Note_on_c, 0, 83, 60
2, 81116, Note_off_c, 0, 83, 0
2, 81120, Note_on_c, 0, 85, 61
2, 81212, Note_off_c, 0, 85, 0
2, 81216, Note_on_c, 0, 86, 62
2, 81308, Note_off_c, 0, 86, 0
2, 81312, Note_on_c, 0, 88, 63
2, 81404, Note_off_c, 0, 88, 0
2, 81408, Note_on_c, 0, 90, 64
2, 81504, Note_off_c, 0, 90, 0
2, 81504, Note_on_c, 0, 88, 66
2, 81584, Note_off_c, 0, 88, 0
2, 81600, Note_on_c, 0, 86, 67
2, 81692, Note_off_c, 0, 86, 0
2, 81696, Note_on_c, 0, 85, 67
2, 81788, Note_off_c, 0, 85, 0
2, 81792, Note_on_c, 0, 86, 68
2, 81884, Note_off_c, 0, 86, 0
2, 81888, Note_on_c, 0, 88, 69
2, 81980, Note_off_c, 0, 88, 0
2, 81984, Note_on_c, 0, 90, 69
2, 82076, Note_off_c, 0, 90, 0
2, 82080, Note_on_c, 0, 91, 70
2, 82172, Note_off_c, 0, 91, 0
2, 82176, Note_on_c, 0, 93, 71
2, 82464, Note_off_c, 0, 93, 0
2, 82464, Note_on_c, 0, 90, 81
2, 82548, Note_off_c, 0, 90, 0
2, 82560, Note_on_c, 0, 93, 74
2, 82848, Note_off_c, 0, 93, 0
2, 82848, Note_on_c, 0, 90, 84
2, 82932, Note_off_c, 0, 90, 0
2, 82944, Note_on_c, 0, 93, 82
2, 83036, Note_off_c, 0, 93, 0
2, 83136, Note_on_c, 0, 90, 80
2, 83228, Note_off_c, 0, 90, 0
2, 83328, Note_on_c, 0, 86, 79
2, 83420, Note_off_c, 0, 86, 0
2, 83520, Note_on_c, 0, 81, 77
2, 83612, Note_off_c, 0, 81, 0
2, 83712, Note_on_c, 0, 86, 80
2, 83804, Note_off_c, 0, 86, 0
2, 83904, Note_on_c, 0, 81, 79
2, 83996, Note_off_c, 0, 81, 0
2, 84096, Note_on_c, 0, 78, 77
2, 84188, Note_off_c, 0, 78, 0
2, 84288, Note_on_c, 0, 74, 74
2, 84380, Note_off_c, 0, 74, 0
2, 84480, Note_on_c, 0, 69, 79
2, 85244, Note_off_c, 0, 69, 0
2, 85248, Note_on_c, 0, 76, 79
2, 85292, Note_off_c, 0, 76, 0
2, 85296, Note_on_c, 0, 78, 71
2, 85340, Note_off_c, 0, 78, 0
2, 85344, Note_on_c, 0, 76, 71
2, 85388, Note_off_c, 0, 76, 0
2, 85392, Note_on_c, 0, 78, 71
2, 85436, Note_off_c, 0, 78, 0
2, 85440, Note_on_c, 0, 76, 71
2, 85484, Note_off_c, 0, 76, 0
2, 85488, Note_on_c, 0, 78, 71
2, 85532, Note_off_c, 0, 78, 0
2, 85536, Note_on_c, 0, 76, 71
2, 85580, Note_off_c, 0, 76, 0
2, 85584, Note_on_c, 0, 78, 71
2, 85628, Note_off_c, 0, 78, 0
2, 85632, Note_on_c, 0, 76, 71
2, 85676, Note_off_c, 0, 76, 0
2, 85680, Note_on_c, 0, 78, 71
2, 85724, Note_off_c, 0, 78, 0
2, 85728, Note_on_c, 0, 76, 71
2, 85772, Note_off_c, 0, 76, 0
2, 85776, Note_on_c, 0, 78, 71
2, 85820, Note_off_c, 0, 78, 0
2, 85824, Note_on_c, 0, 74, 71
2, 85912, Note_off_c, 0, 74, 0
2, 85920, Note_on_c, 0, 76, 70
2, 86008, Note_off_c, 0, 76, 0
2, 86016, Note_on_c, 0, 74, 72
2, 86588, Note_off_c, 0, 74, 0
2, 88320, Control_c, 0, 1, 55
2, 88704, Note_on_c, 0, 57, 53
2, 88896, Note_off_c, 0, 57, 0
2, 88896, Note_on_c, 0, 66, 53
2, 89076, Note_off_c, 0, 66, 0
2, 89088, Note_on_c, 0, 64, 53
2, 89280, Note_off_c, 0, 64, 0
2, 89280, Note_on_c, 0, 62, 53
2, 89460, Note_off_c, 0, 62, 0
2, 89472, Note_on_c, 0, 66, 53
2, 89664, Note_off_c, 0, 66, 0
2, 89664, Note_on_c, 0, 69, 53
2, 89844, Note_off_c, 0, 69, 0
2, 89856, Note_on_c, 0, 67, 53
2, 90048, Note_off_c, 0, 67, 0
2, 90048, Note_on_c, 0, 66, 53
2, 90228, Note_off_c, 0, 66, 0
2, 90240, Note_on_c, 0, 74, 53
2, 90432, Note_off_c, 0, 74, 0
2, 90432, Note_on_c, 0, 78, 53
2, 90612, Note_off_c, 0, 78, 0
2, 90624, Note_on_c, 0, 78, 53
2, 90816, Note_off_c, 0, 78, 0
2, 90816, Note_on_c, 0, 79, 53
2, 90996, Note_off_c, 0, 79, 0
2, 91008, Note_on_c, 0, 79, 53
2, 91580, Note_off_c, 0, 79, 0
2, 91584, Note_on_c, 0, 78, 53
2, 91680, Note_off_c, 0, 78, 0
2, 91680, Note_on_c, 0, 79, 53
2, 91772, Note_off_c, 0, 79, 0
2, 91776, Note_on_c, 0, 81, 53
2, 91868, Note_off_c, 0, 81, 0
2, 91872, Note_on_c, 0, 79, 53
2, 91964, Note_off_c, 0, 79, 0
2, 91968, Note_on_c, 0, 78, 53
2, 92060, Note_off_c, 0, 78, 0
2, 92064, Note_on_c, 0, 76, 53
2, 92144, Note_off_c, 0, 76, 0
2, 92160, Note_on_c, 0, 74, 55
2, 92256, Note_off_c, 0, 74, 0
2, 92256, Note_on_c, 0, 73, 55
2, 92348, Note_off_c, 0, 73, 0
2, 92352, Note_on_c, 0, 76, 56
2, 92444, Note_off_c, 0, 76, 0
2, 92448, Note_on_c, 0, 74, 56
2, 92540, Note_off_c, 0, 74, 0
2, 92544, Note_on_c, 0, 78, 57
2, 92636, Note_off_c, 0, 78, 0
2, 92640, Note_on_c, 0, 76, 58
2, 92732, Note_off_c, 0, 76, 0
2, 92736, Note_on_c, 0, 74, 58
2, 92828, Note_off_c, 0, 74, 0
2, 92832, Note_on_c, 0, 73, 59
2, 92912, Note_off_c, 0, 73, 0
2, 92928, Note_on_c, 0, 71, 59
2, 93024, Note_off_c, 0, 71, 0
2, 93024, Note_on_c, 0, 69, 59
2, 93116, Note_off_c, 0, 69, 0
2, 93120, Note_on_c, 0, 73, 60
2, 93212, Note_off_c, 0, 73, 0
2, 93216, Note_on_c, 0, 71, 60
2, 93308, Note_off_c, 0, 71, 0
2, 93312, Note_on_c, 0, 74, 61
2, 93404, Note_off_c, 0, 74, 0
2, 93408, Note_on_c, 0, 73, 62
2, 93500, Note_off_c, 0, 73, 0
2, 93504, Note_on_c, 0, 71, 62
2, 93596, Note_off_c, 0, 71, 0
2, 93600, Note_on_c, 0, 69, 63
2, 93680, Note_off_c, 0, 69, 0
2, 93696, Note_on_c, 0, 67, 63
2, 93888, Note_off_c, 0, 67, 0
2, 93888, Note_on_c, 0, 66, 61
2, 94068, Note_off_c, 0, 66, 0
2, 94080, Note_on_c, 0, 66, 59
2, 94844, Note_off_c, 0, 66, 0
2, 94848, Note_on_c, 0, 66, 58
2, 95232, Note_off_c, 0, 66, 0
2, 95232, Note_on_c, 0, 64, 56
2, 95320, Note_off_c, 0, 64, 0
2, 95328, Note_on_c, 0, 66, 53
2, 95424, Note_off_c, 0, 66, 0
2, 95424, Note_on_c, 0, 67, 53
2, 95516, Note_off_c, 0, 67, 0
2, 95520, Note_on_c, 0, 66, 53
2, 95612, Note_off_c, 0, 66, 0
2, 95616, Note_on_c, 0, 67, 53
2, 95696, Note_off_c, 0, 67, 0
2, 95712, Note_on_c, 0, 70, 53
2, 95808, Note_off_c, 0, 70, 0
2, 95808, Note_on_c, 0, 71, 53
2, 95900, Note_off_c, 0, 71, 0
2, 95904, Note_on_c, 0, 70, 53
2, 95996, Note_off_c, 0, 70, 0
2, 96000, Note_on_c, 0, 71, 53
2, 96092, Note_off_c, 0, 71, 0
2, 96096, Note_on_c, 0, 75, 53
2, 96188, Note_off_c, 0, 75, 0
2, 96192, Note_on_c, 0, 76, 53
2, 96284, Note_off_c, 0, 76, 0
2, 96288, Note_on_c, 0, 75, 53
2, 96380, Note_off_c, 0, 75, 0
2, 96384, Note_on_c, 0, 76, 53
2, 96464, Note_off_c, 0, 76, 0
2, 96480, Note_on_c, 0, 78, 53
2, 96576, Note_off_c, 0, 78, 0
2, 96576, Note_on_c, 0, 79, 53
2, 96668, Note_off_c, 0, 79, 0
2, 96672, Note_on_c, 0, 78, 53
2, 96764, Note_off_c, 0, 78, 0
2, 96768, Note_on_c, 0, 79, 55
2, 96848, Note_off_c, 0, 79, 0
2, 96864, Note_on_c, 0, 82, 56
2, 96960, Note_off_c, 0, 82, 0
2, 96960, Note_on_c, 0, 83, 57
2, 97052, Note_off_c, 0, 83, 0
2, 97056, Note_on_c, 0, 82, 58
2, 97148, Note_off_c, 0, 82, 0
2, 97152, Note_on_c, 0, 83, 59
2, 97616, Note_off_c, 0, 83, 0
2, 97632, Note_on_c, 0, 82, 55
2, 97728, Note_off_c, 0, 82, 0
2, 97728, Note_on_c, 0, 83, 56
2, 97820, Note_off_c, 0, 83, 0
2, 97824, Note_on_c, 0, 82, 58
2, 97916, Note_off_c, 0, 82, 0
2, 97920, Note_on_c, 0, 83, 67
2, 98400, Note_off_c, 0, 83, 0
2, 98400, Note_on_c, 0, 85, 62
2, 98480, Note_off_c, 0, 85, 0
2, 98496, Note_on_c, 0, 86, 61
2, 98592, Note_off_c, 0, 86, 0
2, 98592, Note_on_c, 0, 85, 60
2, 98684, Note_off_c, 0, 85, 0
2, 98688, Note_on_c, 0, 83, 59
2, 98780, Note_off_c, 0, 83, 0
2, 98784, Note_on_c, 0, 81, 59
2, 98876, Note_off_c, 0, 81, 0
2, 98880, Note_on_c, 0, 79, 58
2, 98972, Note_off_c, 0, 79, 0
2, 98976, Note_on_c, 0, 78, 56
2, 99056, Note_off_c, 0, 78, 0
2, 99072, Note_on_c, 0, 76, 53
2, 99452, Note_off_c, 0, 76, 0
2, 99456, Note_on_c, 0, 78, 53
2, 99836, Note_off_c, 0, 78, 0
2, 99840, Note_on_c, 0, 78, 53
2, 99884, Note_off_c, 0, 78, 0
2, 99888, Note_on_c, 0, 79, 53
2, 99932, Note_off_c, 0, 79, 0
2, 99936, Note_on_c, 0, 78, 53
2, 99980, Note_off_c, 0, 78, 0
2, 99984, Note_on_c, 0, 79, 53
2, 100028, Note_off_c, 0, 79, 0
2, 100032, Note_on_c, 0, 78, 53
2, 100076, Note_off_c, 0, 78, 0
2, 100080, Note_on_c, 0, 79, 53
2, 100124, Note_off_c, 0, 79, 0
2, 100128, Note_on_c, 0, 76, 53
2, 100172, Note_off_c, 0, 76, 0
2, 100176, Note_on_c, 0, 78, 53
2, 100220, Note_off_c, 0, 78, 0
2, 100224, Note_on_c, 0, 76, 55
2, 100608, Control_c, 0, 1, 55
2, 100796, Note_off_c, 0, 76, 0
2, 101376, Note_on_c, 0, 69, 53
2, 101376, Note_on_c, 0, 64, 53
2, 101376, Note_on_c, 0, 57, 53
2, 101756, Note_off_c, 0, 69, 0
2, 101756, Note_off_c, 0, 64, 0
2, 101756, Note_off_c, 0, 57, 0
2, 101760, Note_on_c, 0, 85, 63
2, 102332, Note_off_c, 0, 85, 0
2, 102336, Note_on_c, 0, 76, 53
2, 102432, Note_off_c, 0, 76, 0
2, 102432, Note_on_c, 0, 85, 58
2, 102512, Note_off_c, 0, 85, 0
2, 102528, Note_on_c, 0, 76, 53
2, 102624, Note_off_c, 0, 76, 0
2, 102624, Note_on_c, 0, 85, 58
2, 102704, Note_off_c, 0, 85, 0
2, 102720, Note_on_c, 0, 76, 53
2, 102816, Note_off_c, 0, 76, 0
2, 102816, Note_on_c, 0, 85, 58
2, 102896, Note_off_c, 0, 85, 0
2, 102912, Note_on_c, 0, 68, 51
2, 103100, Note_off_c, 0, 68, 0
2, 103104, Note_on_c, 0, 76, 53
2, 103292, Note_off_c, 0, 76, 0
2, 103296, Note_on_c, 0, 86, 63
2, 103868, Note_off_c, 0, 86, 0
2, 103872, Note_on_c, 0, 76, 53
2, 103968, Note_off_c, 0, 76, 0
2, 103968, Note_on_c, 0, 86, 58
2, 104048, Note_off_c, 0, 86, 0
2, 104064, Note_on_c, 0, 76, 53
2, 104160, Note_off_c, 0, 76, 0
2, 104160, Note_on_c, 0, 86, 58
2, 104240, Note_off_c, 0, 86, 0
2, 104256, Note_on_c, 0, 76, 53
2, 104352, Note_off_c, 0, 76, 0
2, 104352, Note_on_c, 0, 86, 58
2, 104432, Note_off_c, 0, 86, 0
2, 104448, Note_on_c, 0, 64, 50
2, 104640, Note_off_c, 0, 64, 0
2, 104640, Note_on_c, 0, 68, 51
2, 104820, Note_off_c, 0, 68, 0
2, 104832, Note_on_c, 0, 71, 52
2, 105024, Note_off_c, 0, 71, 0
2, 105024, Note_on_c, 0, 76, 53
2, 105216, Note_off_c, 0, 76, 0
2, 105216, Note_on_c, 0, 80, 55
2, 105408, Note_off_c, 0, 80, 0
2, 105408, Note_on_c, 0, 83, 56
2, 105596, Note_off_c, 0, 83, 0
2, 105600, Note_on_c, 0, 86, 57
2, 105780, Note_off_c, 0, 86, 0
2, 105792, Note_on_c, 0, 74, 52
2, 105984, Note_off_c, 0, 74, 0
2, 105984, Note_on_c, 0, 76, 59
2, 106072, Note_off_c, 0, 76, 0
2, 106080, Note_on_c, 0, 74, 53
2, 106124, Note_off_c, 0, 74, 0
2, 106128, Note_on_c, 0, 76, 53
2, 106172, Note_off_c, 0, 76, 0
2, 106176, Note_on_c, 0, 74, 53
2, 106220, Note_off_c, 0, 74, 0
2, 106224, Note_on_c, 0, 76, 53
2, 106268, Note_off_c, 0, 76, 0
2, 106272, Note_on_c, 0, 74, 53
2, 106316, Note_off_c, 0, 74, 0
2, 106320, Note_on_c, 0, 76, 53
2, 106364, Note_off_c, 0, 76, 0
2, 106368, Note_on_c, 0, 74, 53
2, 106412, Note_off_c, 0, 74, 0
2, 106416, Note_on_c, 0, 76, 53
2, 106460, Note_off_c, 0, 76, 0
2, 106464, Note_on_c, 0, 74, 53
2, 106508, Note_off_c, 0, 74, 0
2, 106512, Note_on_c, 0, 76, 53
2, 106556, Note_off_c, 0, 76, 0
2, 106560, Note_on_c, 0, 73, 53
2, 106648, Note_off_c, 0, 73, 0
2, 106656, Note_on_c, 0, 74, 53
2, 106744, Note_off_c, 0, 74, 0
2, 106752, Note_on_c, 0, 73, 55
2, 107132, Note_off_c, 0, 73, 0
2, 107616, Note_on_c, 0, 81, 53
2, 107712, Note_off_c, 0, 81, 0
2, 107712, Note_on_c, 0, 80, 53
2, 107804, Note_off_c, 0, 80, 0
2, 107808, Note_on_c, 0, 81, 53
2, 107900, Note_off_c, 0, 81, 0
2, 107904, Note_on_c, 0, 83, 53
2, 107996, Note_off_c, 0, 83, 0
2, 108000, Note_on_c, 0, 81, 53
2, 108092, Note_off_c, 0, 81, 0
2, 108096, Note_on_c, 0, 80, 53
2, 108188, Note_off_c, 0, 80, 0
2, 108192, Note_on_c, 0, 81, 53
2, 108272, Note_off_c, 0, 81, 0
2, 108384, Note_on_c, 0, 79, 53
2, 108480, Note_off_c, 0, 79, 0
2, 108480, Note_on_c, 0, 78, 53
2, 108572, Note_off_c, 0, 78, 0
2, 108576, Note_on_c, 0, 79, 53
2, 108668, Note_off_c, 0, 79, 0
2, 108672, Note_on_c, 0, 81, 53
2, 108764, Note_off_c, 0, 81, 0
2, 108768, Note_on_c, 0, 79, 53
2, 108860, Note_off_c, 0, 79, 0
2, 108864, Note_on_c, 0, 78, 53
2, 108956, Note_off_c, 0, 78, 0
2, 108960, Note_on_c, 0, 79, 53
2, 109040, Note_off_c, 0, 79, 0
2, 109152, Note_on_c, 0, 78, 52
2, 109248, Note_off_c, 0, 78, 0
2, 109248, Note_on_c, 0, 76, 52
2, 109340, Note_off_c, 0, 76, 0
2, 109344, Note_on_c, 0, 78, 52
2, 109436, Note_off_c, 0, 78, 0
2, 109440, Note_on_c, 0, 79, 52
2, 109532, Note_off_c, 0, 79, 0
2, 109536, Note_on_c, 0, 78, 52
2, 109628, Note_off_c, 0, 78, 0
2, 109632, Note_on_c, 0, 76, 52
2, 109724, Note_off_c, 0, 76, 0
2, 109728, Note_on_c, 0, 78, 52
2, 109808, Note_off_c, 0, 78, 0
2, 109920, Note_on_c, 0, 76, 52
2, 110016, Note_off_c, 0, 76, 0
2, 110016, Note_on_c, 0, 75, 52
2, 110108, Note_off_c, 0, 75, 0
2, 110112, Note_on_c, 0, 76, 52
2, 110204, Note_off_c, 0, 76, 0
2, 110208, Note_on_c, 0, 78, 52
2, 110300, Note_off_c, 0, 78, 0
2, 110304, Note_on_c, 0, 76, 52
2, 110396, Note_off_c, 0, 76, 0
2, 110400, Note_on_c, 0, 75, 52
2, 110492, Note_off_c, 0, 75, 0
2, 110496, Note_on_c, 0, 76, 52
2, 110576, Note_off_c, 0, 76, 0
2, 110592, Note_on_c, 0, 75, 52
2, 110976, Note_off_c, 0, 75, 0
2, 110976, Note_on_c, 0, 84, 56
2, 111360, Note_off_c, 0, 84, 0
2, 111360, Note_on_c, 0, 83, 55
2, 111740, Note_off_c, 0, 83, 0
2, 111744, Note_on_c, 0, 81, 53
2, 112116, Note_off_c, 0, 81, 0
2, 112128, Note_on_c, 0, 80, 73
2, 112224, Note_off_c, 0, 80, 0
2, 112224, Note_on_c, 0, 81, 73
2, 112304, Note_off_c, 0, 81, 0
2, 112320, Note_on_c, 0, 83, 73
2, 112416, Note_off_c, 0, 83, 0
2, 112416, Note_on_c, 0, 81, 73
2, 112512, Note_off_c, 0, 81, 0
2, 112512, Note_on_c, 0, 80, 73
2, 112608, Note_off_c, 0, 80, 0
2, 112608, Note_on_c, 0, 78, 73
2, 112688, Note_off_c, 0, 78, 0
2, 112704, Note_on_c, 0, 76, 73
2, 112800, Note_off_c, 0, 76, 0
2, 112800, Note_on_c, 0, 75, 73
2, 112896, Note_off_c, 0, 75, 0
2, 112896, Note_on_c, 0, 76, 73
2, 112992, Note_off_c, 0, 76, 0
2, 112992, Note_on_c, 0, 78, 73
2, 113072, Note_off_c, 0, 78, 0
2, 113088, Note_on_c, 0, 76, 73
2, 113184, Note_off_c, 0, 76, 0
2, 113184, Note_on_c, 0, 78, 73
2, 113264, Note_off_c, 0, 78, 0
2, 113280, Note_on_c, 0, 76, 73
2, 113376, Note_off_c, 0, 76, 0
2, 113376, Note_on_c, 0, 74, 73
2, 113472, Note_off_c, 0, 74, 0
2, 113472, Note_on_c, 0, 73, 73
2, 113568, Note_off_c, 0, 73, 0
2, 113568, Note_on_c, 0, 71, 73
2, 113664, Note_off_c, 0, 71, 0
2, 113664, Note_on_c, 0, 69, 73
2, 113760, Note_off_c, 0, 69, 0
2, 113760, Note_on_c, 0, 64, 73
2, 113856, Note_off_c, 0, 64, 0
2, 113856, Note_on_c, 0, 61, 73
2, 113952, Note_off_c, 0, 61, 0
2, 113952, Note_on_c, 0, 57, 73
2, 114048, Note_off_c, 0, 57, 0
2, 114048, Note_on_c, 0, 61, 73
2, 114144, Note_off_c, 0, 61, 0
2, 114144, Note_on_c, 0, 64, 73
2, 114240, Note_off_c, 0, 64, 0
2, 114240, Note_on_c, 0, 69, 73
2, 114336, Note_off_c, 0, 69, 0
2, 114336, Note_on_c, 0, 73, 73
2, 114432, Note_off_c, 0, 73, 0
2, 114432, Note_on_c, 0, 71, 73
2, 114528, Note_off_c, 0, 71, 0
2, 114528, Note_on_c, 0, 68, 73
2, 114624, Note_off_c, 0, 68, 0
2, 114624, Note_on_c, 0, 64, 73
2, 114720, Note_off_c, 0, 64, 0
2, 114720, Note_on_c, 0, 59, 73
2, 114816, Note_off_c, 0, 59, 0
2, 114816, Note_on_c, 0, 64, 73
2, 114912, Note_off_c, 0, 64, 0
2, 114912, Note_on_c, 0, 68, 73
2, 115008, Note_off_c, 0, 68, 0
2, 115008, Note_on_c, 0, 71, 73
2, 115104, Note_off_c, 0, 71, 0
2, 115104, Note_on_c, 0, 74, 73
2, 115200, Note_off_c, 0, 74, 0
2, 115200, Note_on_c, 0, 73, 73
2, 115296, Note_off_c, 0, 73, 0
2, 115296, Note_on_c, 0, 69, 73
2, 115376, Note_off_c, 0, 69, 0
2, 115392, Note_on_c, 0, 81, 73
2, 115488, Note_off_c, 0, 81, 0
2, 115488, Note_on_c, 0, 80, 73
2, 115584, Note_off_c, 0, 80, 0
2, 115584, Note_on_c, 0, 83, 73
2, 115680, Note_off_c, 0, 83, 0
2, 115680, Note_on_c, 0, 81, 73
2, 115772, Note_off_c, 0, 81, 0
2, 115776, Note_on_c, 0, 80, 73
2, 115868, Note_off_c, 0, 80, 0
2, 115872, Note_on_c, 0, 78, 73
2, 115952, Note_off_c, 0, 78, 0
2, 115968, Note_on_c, 0, 75, 73
2, 116064, Note_off_c, 0, 75, 0
2, 116064, Note_on_c, 0, 76, 73
2, 116144, Note_off_c, 0, 76, 0
2, 116160, Note_on_c, 0, 78, 73
2, 116256, Note_off_c, 0, 78, 0
2, 116256, Note_on_c, 0, 76, 73
2, 116352, Note_off_c, 0, 76, 0
2, 116352, Note_on_c, 0, 76, 73
2, 116448, Note_off_c, 0, 76, 0
2, 116448, Note_on_c, 0, 74, 73
2, 116540, Note_off_c, 0, 74, 0
2, 116544, Note_on_c, 0, 73, 73
2, 116636, Note_off_c, 0, 73, 0
2, 116640, Note_on_c, 0, 71, 73
2, 116720, Note_off_c, 0, 71, 0
2, 116736, Note_on_c, 0, 69, 52
2, 116792, Note_off_c, 0, 69, 0
2, 116832, Note_on_c, 0, 64, 52
2, 116888, Note_off_c, 0, 64, 0
2, 116928, Note_on_c, 0, 61, 52
2, 116984, Note_off_c, 0, 61, 0
2, 117024, Note_on_c, 0, 57, 52
2, 117080, Note_off_c, 0, 57, 0
2, 117120, Note_on_c, 0, 61, 52
2, 117176, Note_off_c, 0, 61, 0
2, 117216, Note_on_c, 0, 64, 52
2, 117272, Note_off_c, 0, 64, 0
2, 117312, Note_on_c, 0, 69, 52
2, 117368, Note_off_c, 0, 69, 0
2, 117408, Note_on_c, 0, 73, 52
2, 117464, Note_off_c, 0, 73, 0
2, 117504, Note_on_c, 0, 71, 52
2, 117560, Note_off_c, 0, 71, 0
2, 117600, Note_on_c, 0, 68, 52
2, 117656, Note_off_c, 0, 68, 0
2, 117696, Note_on_c, 0, 64, 52
2, 117752, Note_off_c, 0, 64, 0
2, 117792, Note_on_c, 0, 59, 52
2, 117848, Note_off_c, 0, 59, 0
2, 117888, Note_on_c, 0, 64, 52
2, 117944, Note_off_c, 0, 64, 0
2, 117984, Note_on_c, 0, 68, 52
2, 118040, Note_off_c, 0, 68, 0
2, 118080, Note_on_c, 0, 71, 52
2, 118136, Note_off_c, 0, 71, 0
2, 118176, Note_on_c, 0, 74, 52
2, 118232, Note_off_c, 0, 74, 0
2, 118272, Note_on_c, 0, 73, 52
2, 118368, Note_off_c, 0, 73, 0
2, 118368, Note_on_c, 0, 69, 52
2, 118448, Note_off_c, 0, 69, 0
2, 118464, Note_on_c, 0, 81, 52
2, 118520, Note_off_c, 0, 81, 0
2, 118560, Note_on_c, 0, 80, 52
2, 118616, Note_off_c, 0, 80, 0
2, 118656, Note_on_c, 0, 83, 52
2, 118752, Note_off_c, 0, 83, 0
2, 118752, Note_on_c, 0, 81, 52
2, 118844, Note_off_c, 0, 81, 0
2, 118848, Note_on_c, 0, 80, 52
2, 118940, Note_off_c, 0, 80, 0
2, 118944, Note_on_c, 0, 78, 52
2, 119024, Note_off_c, 0, 78, 0
2, 119040, Note_on_c, 0, 75, 52
2, 119136, Note_off_c, 0, 75, 0
2, 119136, Note_on_c, 0, 76, 52
2, 119216, Note_off_c, 0, 76, 0
2, 119232, Note_on_c, 0, 78, 52
2, 119288, Note_off_c, 0, 78, 0
2, 119328, Note_on_c, 0, 76, 52
2, 119384, Note_off_c, 0, 76, 0
2, 119424, Note_on_c, 0, 76, 52
2, 119520, Note_off_c, 0, 76, 0
2, 119520, Note_on_c, 0, 74, 52
2, 119612, Note_off_c, 0, 74, 0
2, 119616, Note_on_c, 0, 73, 52
2, 119708, Note_off_c, 0, 73, 0
2, 119712, Note_on_c, 0, 71, 52
2, 119792, Note_off_c, 0, 71, 0
2, 119808, Note_on_c, 0, 73, 55
2, 119904, Note_off_c, 0, 73, 0
2, 119904, Note_on_c, 0, 69, 56
2, 119984, Note_off_c, 0, 69, 0
2, 120000, Note_on_c, 0, 73, 57
2, 120096, Note_off_c, 0, 73, 0
2, 120096, Note_on_c, 0, 76, 58
2, 120192, Note_off_c, 0, 76, 0
2, 120192, Note_on_c, 0, 81, 59
2, 120288, Note_off_c, 0, 81, 0
2, 120288, Note_on_c, 0, 73, 59
2, 120380, Note_off_c, 0, 73, 0
2, 120384, Note_on_c, 0, 76, 60
2, 120476, Note_off_c, 0, 76, 0
2, 120480, Note_on_c, 0, 81, 63
2, 120560, Note_off_c, 0, 81, 0
2, 120576, Note_on_c, 0, 85, 66
2, 120672, Note_off_c, 0, 85, 0
2, 120672, Note_on_c, 0, 76, 67
2, 120768, Note_off_c, 0, 76, 0
2, 120768, Note_on_c, 0, 81, 68
2, 120864, Note_off_c, 0, 81, 0
2, 120864, Note_on_c, 0, 85, 69
2, 120960, Note_off_c, 0, 85, 0
2, 120960, Note_on_c, 0, 88, 69
2, 121056, Note_off_c, 0, 88, 0
2, 121056, Note_on_c, 0, 81, 71
2, 121152, Note_off_c, 0, 81, 0
2, 121152, Note_on_c, 0, 85, 72
2, 121248, Note_off_c, 0, 85, 0
2, 121248, Note_on_c, 0, 88, 73
2, 121344, Note_off_c, 0, 88, 0
2, 121344, Note_on_c, 0, 91, 74
2, 122108, Note_off_c, 0, 91, 0
2, 122112, Note_on_c, 0, 67, 83
2, 122156, Note_off_c, 0, 67, 0
2, 122160, Note_on_c, 0, 69, 73
2, 122204, Note_off_c, 0, 69, 0
2, 122208, Note_on_c, 0, 67, 73
2, 122252, Note_off_c, 0, 67, 0
2, 122256, Note_on_c, 0, 69, 73
2, 122300, Note_off_c, 0, 69, 0
2, 122304, Note_on_c, 0, 67, 73
2, 122348, Note_off_c, 0, 67, 0
2, 122352, Note_on_c, 0, 69, 73
2, 122396, Note_off_c, 0, 69, 0
2, 122400, Note_on_c, 0, 67, 73
2, 122444, Note_off_c, 0, 67, 0
2, 122448, Note_on_c, 0, 69, 73
2, 122492, Note_off_c, 0, 69, 0
2, 122496, Note_on_c, 0, 67, 73
2, 122540, Note_off_c, 0, 67, 0
2, 122544, Note_on_c, 0, 69, 73
2, 122588, Note_off_c, 0, 69, 0
2, 122592, Note_on_c, 0, 67, 73
2, 122636, Note_off_c, 0, 67, 0
2, 122640, Note_on_c, 0, 69, 73
2, 122684, Note_off_c, 0, 69, 0
2, 122688, Note_on_c, 0, 66, 73
2, 122776, Note_off_c, 0, 66, 0
2, 122784, Note_on_c, 0, 67, 73
2, 122872, Note_off_c, 0, 67, 0
2, 122880, Note_on_c, 0, 66, 73
2, 123260, Note_off_c, 0, 66, 0
2, 123456, Note_on_c, 0, 77, 52
2, 123552, Note_off_c, 0, 77, 0
2, 123552, Note_on_c, 0, 78, 53
2, 123632, Note_off_c, 0, 78, 0
2, 123648, Note_on_c, 0, 76, 52
2, 124032, Note_off_c, 0, 76, 0
2, 124224, Note_on_c, 0, 75, 53
2, 124320, Note_off_c, 0, 75, 0
2, 124320, Note_on_c, 0, 76, 52
2, 124400, Note_off_c, 0, 76, 0
2, 124416, Note_on_c, 0, 74, 52
2, 124800, Note_off_c, 0, 74, 0
2, 124992, Note_on_c, 0, 73, 52
2, 125088, Note_off_c, 0, 73, 0
2, 125088, Note_on_c, 0, 74, 53
2, 125168, Note_off_c, 0, 74, 0
2, 125184, Note_on_c, 0, 73, 52
2, 125568, Note_off_c, 0, 73, 0
2, 125760, Note_on_c, 0, 72, 52
2, 125856, Note_off_c, 0, 72, 0
2, 125856, Note_on_c, 0, 73, 53
2, 125936, Note_off_c, 0, 73, 0
2, 125952, Note_on_c, 0, 71, 55
2, 126048, Note_off_c, 0, 71, 0
2, 126048, Note_on_c, 0, 73, 55
2, 126128, Note_off_c, 0, 73, 0
2, 126144, Note_on_c, 0, 74, 56
2, 126240, Note_off_c, 0, 74, 0
2, 126240, Note_on_c, 0, 74, 56
2, 126336, Note_off_c, 0, 74, 0
2, 126336, Note_on_c, 0, 74, 57
2, 126432, Note_off_c, 0, 74, 0
2, 126432, Note_on_c, 0, 76, 57
2, 126512, Note_off_c, 0, 76, 0
2, 126528, Note_on_c, 0, 78, 58
2, 126624, Note_off_c, 0, 78, 0
2, 126624, Note_on_c, 0, 78, 58
2, 126720, Note_off_c, 0, 78, 0
2, 126720, Note_on_c, 0, 78, 59
2, 126816, Note_off_c, 0, 78, 0
2, 126816, Note_on_c, 0, 80, 59
2, 126896, Note_off_c, 0, 80, 0
2, 126912, Note_on_c, 0, 81, 59
2, 127008, Note_off_c, 0, 81, 0
2, 127008, Note_on_c, 0, 81, 60
2, 127104, Note_off_c, 0, 81, 0
2, 127104, Note_on_c, 0, 81, 60
2, 127200, Note_off_c, 0, 81, 0
2, 127200, Note_on_c, 0, 83, 61
2, 127280, Note_off_c, 0, 83, 0
2, 127296, Note_on_c, 0, 84, 61
2, 127392, Note_off_c, 0, 84, 0
2, 127392, Note_on_c, 0, 84, 62
2, 127488, Note_off_c, 0, 84, 0
2, 127488, Note_on_c, 0, 85, 63
2, 127584, Note_off_c, 0, 85, 0
2, 127584, Note_on_c, 0, 83, 63
2, 127664, Note_off_c, 0, 83, 0
2, 127680, Note_on_c, 0, 81, 64
2, 127776, Note_off_c, 0, 81, 0
2, 127776, Note_on_c, 0, 81, 64
2, 127872, Note_off_c, 0, 81, 0
2, 127872, Note_on_c, 0, 81, 66
2, 127968, Note_off_c, 0, 81, 0
2, 127968, Note_on_c, 0, 80, 66
2, 128048, Note_off_c, 0, 80, 0
2, 128064, Note_on_c, 0, 78, 67
2, 128160, Note_off_c, 0, 78, 0
2, 128160, Note_on_c, 0, 78, 67
2, 128256, Note_off_c, 0, 78, 0
2, 128256, Note_on_c, 0, 78, 68
2, 128352, Note_off_c, 0, 78, 0
2, 128352, Note_on_c, 0, 76, 69
2, 128432, Note_off_c, 0, 76, 0
2, 128448, Note_on_c, 0, 75, 69
2, 128544, Note_off_c, 0, 75, 0
2, 128544, Note_on_c, 0, 75, 69
2, 128640, Note_off_c, 0, 75, 0
2, 128640, Note_on_c, 0, 75, 69
2, 128736, Note_off_c, 0, 75, 0
2, 128736, Note_on_c, 0, 73, 70
2, 128816, Note_off_c, 0, 73, 0
2, 128832, Note_on_c, 0, 71, 71
2, 128928, Note_off_c, 0, 71, 0
2, 128928, Note_on_c, 0, 71, 72
2, 129024, Note_off_c, 0, 71, 0
2, 129024, Note_on_c, 0, 73, 73
2, 129312, Note_off_c, 0, 73, 0
2, 129312, Note_on_c, 0, 69, 73
2, 129400, Note_off_c, 0, 69, 0
2, 129408, Note_on_c, 0, 74, 73
2, 129696, Note_off_c, 0, 74, 0
2, 129696, Note_on_c, 0, 71, 73
2, 129784, Note_off_c, 0, 71, 0
2, 129792, Note_on_c, 0, 73, 73
2, 129888, Note_off_c, 0, 73, 0
2, 129888, Note_on_c, 0, 69, 73
2, 129980, Note_off_c, 0, 69, 0
2, 129984, Note_on_c, 0, 74, 73
2, 130076, Note_off_c, 0, 74, 0
2, 130080, Note_on_c, 0, 71, 73
2, 130172, Note_off_c, 0, 71, 0
2, 130176, Note_on_c, 0, 73, 73
2, 130268, Note_off_c, 0, 73, 0
2, 130272, Note_on_c, 0, 69, 73
2, 130364, Note_off_c, 0, 69, 0
2, 130368, Note_on_c, 0, 74, 73
2, 130460, Note_off_c, 0, 74, 0
2, 130464, Note_on_c, 0, 71, 73
2, 130544, Note_off_c, 0, 71, 0
2, 130560, Note_on_c, 0, 73, 74
2, 130656, Note_off_c, 0, 73, 0
2, 130656, Note_on_c, 0, 69, 75
2, 130748, Note_off_c, 0, 69, 0
2, 130752, Note_on_c, 0, 74, 77
2, 130844, Note_off_c, 0, 74, 0
2, 130848, Note_on_c, 0, 71, 78
2, 130940, Note_off_c, 0, 71, 0
2, 130944, Note_on_c, 0, 76, 79
2, 131036, Note_off_c, 0, 76, 0
2, 131040, Note_on_c, 0, 73, 79
2, 131132, Note_off_c, 0, 73, 0
2, 131136, Note_on_c, 0, 78, 80
2, 131228, Note_off_c, 0, 78, 0
2, 131232, Note_on_c, 0, 74, 81
2, 131312, Note_off_c, 0, 74, 0
2, 131328, Note_on_c, 0, 71, 86
2, 131372, Note_off_c, 0, 71, 0
2, 131376, Note_on_c, 0, 73, 73
2, 131420, Note_off_c, 0, 73, 0
2, 131424, Note_on_c, 0, 71, 73
2, 131468, Note_off_c, 0, 71, 0
2, 131472, Note_on_c, 0, 73, 73
2, 131516, Note_off_c, 0, 73, 0
2, 131520, Note_on_c, 0, 71, 73
2, 131564, Note_off_c, 0, 71, 0
2, 131568, Note_on_c, 0, 73, 73
2, 131612, Note_off_c, 0, 73, 0
2, 131616, Note_on_c, 0, 71, 73
2, 131660, Note_off_c, 0, 71, 0
2, 131664, Note_on_c, 0, 73, 73
2, 131708, Note_off_c, 0, 73, 0
2, 131712, Note_on_c, 0, 71, 73
2, 131756, Note_off_c, 0, 71, 0
2, 131760, Note_on_c, 0, 73, 73
2, 131804, Note_off_c, 0, 73, 0
2, 131808, Note_on_c, 0, 71, 73
2, 131852, Note_off_c, 0, 71, 0
2, 131856, Note_on_c, 0, 73, 73
2, 131900, Note_off_c, 0, 73, 0
2, 131904, Note_on_c, 0, 69, 73
2, 131996, Note_off_c, 0, 69, 0
2, 132000, Note_on_c, 0, 71, 73
2, 132092, Note_off_c, 0, 71, 0
2, 132096, Note_on_c, 0, 69, 74
2, 132668, Note_off_c, 0, 69, 0
2, 133056, Note_on_c, 0, 64, 59
2, 133248, Note_off_c, 0, 64, 0
2, 133248, Note_on_c, 0, 63, 59
2, 133436, Note_off_c, 0, 63, 0
2, 133440, Note_on_c, 0, 64, 60
2, 133620, Note_off_c, 0, 64, 0
2, 133632, Note_on_c, 0, 66, 63
2, 133824, Note_off_c, 0, 66, 0
2, 133824, Note_on_c, 0, 64, 64
2, 134012, Note_off_c, 0, 64, 0
2, 134016, Note_on_c, 0, 63, 66
2, 134204, Note_off_c, 0, 63, 0
2, 134208, Note_on_c, 0, 64, 67
2, 134388, Note_off_c, 0, 64, 0
2, 134400, Note_on_c, 0, 62, 68
2, 134592, Note_off_c, 0, 62, 0
2, 134592, Note_on_c, 0, 61, 69
2, 134780, Note_off_c, 0, 61, 0
2, 134784, Note_on_c, 0, 59, 69
2, 134972, Note_off_c, 0, 59, 0
2, 134976, Note_on_c, 0, 57, 70
2, 135156, Note_off_c, 0, 57, 0
2, 135168, Note_on_c, 0, 56, 63
2, 135260, Note_off_c, 0, 56, 0
2, 135360, Note_on_c, 0, 59, 62
2, 135452, Note_off_c, 0, 59, 0
2, 135552, Note_on_c, 0, 62, 61
2, 135740, Note_off_c, 0, 62, 0
2, 136128, Note_on_c, 0, 61, 53
2, 136220, Note_off_c, 0, 61, 0
2, 136224, Note_on_c, 0, 62, 53
2, 136316, Note_off_c, 0, 62, 0
2, 136320, Note_on_c, 0, 64, 53
2, 136416, Note_off_c, 0, 64, 0
2, 136416, Note_on_c, 0, 62, 53
2, 136496, Note_off_c, 0, 62, 0
2, 136512, Note_on_c, 0, 61, 53
2, 136568, Note_off_c, 0, 61, 0
2, 136608, Note_on_c, 0, 59, 53
2, 136664, Note_off_c, 0, 59, 0
2, 136704, Note_on_c, 0, 57, 55
2, 136896, Note_off_c, 0, 57, 0
2, 136896, Note_on_c, 0, 58, 57
2, 137084, Note_off_c, 0, 58, 0
2, 137088, Note_on_c, 0, 59, 59
2, 137276, Note_off_c, 0, 59, 0
2, 137280, Note_on_c, 0, 60, 60
2, 137468, Note_off_c, 0, 60, 0
2, 137472, Note_on_c, 0, 61, 60
2, 137652, Note_off_c, 0, 61, 0
2, 137664, Note_on_c, 0, 57, 59
2, 137856, Note_off_c, 0, 57, 0
2, 137856, Note_on_c, 0, 62, 57
2, 138044, Note_off_c, 0, 62, 0
2, 138048, Note_on_c, 0, 61, 55
2, 138228, Note_off_c, 0, 61, 0
2, 138240, Note_on_c, 0, 61, 55
2, 139008, Note_off_c, 0, 61, 0
2, 139008, Note_on_c, 0, 59, 55
2, 139188, Note_off_c, 0, 59, 0
2, 139200, Note_on_c, 0, 76, 53
2, 139392, Note_off_c, 0, 76, 0
2, 139392, Note_on_c, 0, 75, 53
2, 139580, Note_off_c, 0, 75, 0
2, 139584, Note_on_c, 0, 76, 53
2, 139764, Note_off_c, 0, 76, 0
2, 139776, Note_on_c, 0, 75, 53
2, 139968, Note_off_c, 0, 75, 0
2, 139968, Note_on_c, 0, 76, 53
2, 140156, Note_off_c, 0, 76, 0
2, 140160, Note_on_c, 0, 77, 53
2, 140348, Note_off_c, 0, 77, 0
2, 140352, Note_on_c, 0, 76, 53
2, 140532, Note_off_c, 0, 76, 0
2, 140544, Note_on_c, 0, 74, 53
2, 140736, Note_off_c, 0, 74, 0
2, 140736, Note_on_c, 0, 72, 53
2, 140924, Note_off_c, 0, 72, 0
2, 140928, Note_on_c, 0, 71, 53
2, 141116, Note_off_c, 0, 71, 0
2, 141120, Note_on_c, 0, 69, 53
2, 141300, Note_off_c, 0, 69, 0
2, 141312, Note_on_c, 0, 68, 73
2, 141404, Note_off_c, 0, 68, 0
2, 141504, Note_on_c, 0, 71, 73
2, 141596, Note_off_c, 0, 71, 0
2, 141696, Note_on_c, 0, 74, 73
2, 141884, Note_off_c, 0, 74, 0
2, 142272, Note_on_c, 0, 76, 53
2, 142328, Note_off_c, 0, 76, 0
2, 142368, Note_on_c, 0, 74, 53
2, 142424, Note_off_c, 0, 74, 0
2, 142464, Note_on_c, 0, 72, 53
2, 142560, Note_off_c, 0, 72, 0
2, 142560, Note_on_c, 0, 71, 53
2, 142652, Note_off_c, 0, 71, 0
2, 142656, Note_on_c, 0, 69, 53
2, 142748, Note_off_c, 0, 69, 0
2, 142752, Note_on_c, 0, 68, 53
2, 142832, Note_off_c, 0, 68, 0
2, 142848, Note_on_c, 0, 69, 73
2, 142940, Note_off_c, 0, 69, 0
2, 143040, Note_on_c, 0, 81, 73
2, 143232, Note_off_c, 0, 81, 0
2, 143232, Note_on_c, 0, 80, 73
2, 143412, Note_off_c, 0, 80, 0
2, 143424, Note_on_c, 0, 79, 70
2, 143616, Note_off_c, 0, 79, 0
2, 143616, Note_on_c, 0, 78, 68
2, 143796, Note_off_c, 0, 78, 0
2, 143808, Note_on_c, 0, 77, 64
2, 144000, Note_off_c, 0, 77, 0
2, 144000, Note_on_c, 0, 76, 61
2, 144180, Note_off_c, 0, 76, 0
2, 144192, Note_on_c, 0, 75, 59
2, 144284, Note_off_c, 0, 75, 0
2, 144384, Note_on_c, 0, 75, 74
2, 145152, Note_off_c, 0, 75, 0
2, 145152, Note_on_c, 0, 76, 70
2, 145332, Note_off_c, 0, 76, 0
2, 145344, Note_on_c, 0, 71, 52
2, 145400, Note_off_c, 0, 71, 0
2, 145440, Note_on_c, 0, 76, 52
2, 145496, Note_off_c, 0, 76, 0
2, 145536, Note_on_c, 0, 73, 52
2, 145592, Note_off_c, 0, 73, 0
2, 145632, Note_on_c, 0, 76, 52
2, 145688, Note_off_c, 0, 76, 0
2, 145728, Note_on_c, 0, 74, 52
2, 145784, Note_off_c, 0, 74, 0
2, 145824, Note_on_c, 0, 76, 52
2, 145880, Note_off_c, 0, 76, 0
2, 145920, Note_on_c, 0, 73, 52
2, 146016, Note_off_c, 0, 73, 0
2, 146016, Note_on_c, 0, 76, 52
2, 146096, Note_off_c, 0, 76, 0
2, 146112, Note_on_c, 0, 81, 52
2, 146204, Note_off_c, 0, 81, 0
2, 146208, Note_on_c, 0, 76, 52
2, 146300, Note_off_c, 0, 76, 0
2, 146304, Note_on_c, 0, 83, 52
2, 146396, Note_off_c, 0, 83, 0
2, 146400, Note_on_c, 0, 76, 52
2, 146492, Note_off_c, 0, 76, 0
2, 146496, Note_on_c, 0, 85, 52
2, 146588, Note_off_c, 0, 85, 0
2, 146592, Note_on_c, 0, 76, 52
2, 146684, Note_off_c, 0, 76, 0
2, 146688, Note_on_c, 0, 86, 52
2, 146784, Note_off_c, 0, 86, 0
2, 146784, Note_on_c, 0, 76, 52
2, 146864, Note_off_c, 0, 76, 0
2, 146880, Note_on_c, 0, 71, 52
2, 146972, Note_off_c, 0, 71, 0
2, 146976, Note_on_c, 0, 76, 52
2, 147068, Note_off_c, 0, 76, 0
2, 147072, Note_on_c, 0, 73, 52
2, 147164, Note_off_c, 0, 73, 0
2, 147168, Note_on_c, 0, 76, 52
2, 147260, Note_off_c, 0, 76, 0
2, 147264, Note_on_c, 0, 74, 52
2, 147356, Note_off_c, 0, 74, 0
2, 147360, Note_on_c, 0, 76, 52
2, 147452, Note_off_c, 0, 76, 0
2, 147456, Note_on_c, 0, 73, 52
2, 147552, Note_off_c, 0, 73, 0
2, 147552, Note_on_c, 0, 76, 52
2, 147632, Note_off_c, 0, 76, 0
2, 147648, Note_on_c, 0, 81, 52
2, 147740, Note_off_c, 0, 81, 0
2, 147744, Note_on_c, 0, 76, 52
2, 147836, Note_off_c, 0, 76, 0
2, 147840, Note_on_c, 0, 83, 52
2, 147932, Note_off_c, 0, 83, 0
2, 147936, Note_on_c, 0, 76, 52
2, 148028, Note_off_c, 0, 76, 0
2, 148032, Note_on_c, 0, 85, 52
2, 148124, Note_off_c, 0, 85, 0
2, 148128, Note_on_c, 0, 76, 52
2, 148220, Note_off_c, 0, 76, 0
2, 148224, Note_on_c, 0, 86, 56
2, 148412, Note_off_c, 0, 86, 0
2, 148416, Note_on_c, 0, 76, 59
2, 148512, Note_off_c, 0, 76, 0
2, 148608, Note_on_c, 0, 76, 61
2, 148700, Note_off_c, 0, 76, 0
2, 148800, Note_on_c, 0, 76, 64
2, 148880, Note_off_c, 0, 76, 0
2, 148992, Note_on_c, 0, 81, 64
2, 149376, Note_off_c, 0, 81, 0
2, 149376, Note_on_c, 0, 76, 53
2, 149556, Note_off_c, 0, 76, 0
2, 151296, Control_c, 0, 1, 55
2, 151488, Note_on_c, 0, 88, 59
2, 151680, Note_off_c, 0, 88, 0
2, 151680, Note_on_c, 0, 88, 63
2, 151872, Note_off_c, 0, 88, 0
2, 151872, Note_on_c, 0, 88, 69
2, 152064, Note_off_c, 0, 88, 0
2, 152064, Note_on_c, 0, 93, 73
2, 152256, Note_off_c, 0, 93, 0
2, 152256, Note_on_c, 0, 92, 69
2, 152436, Note_off_c, 0, 92, 0
2, 152448, Note_on_c, 0, 90, 73
2, 152496, Note_off_c, 0, 90, 0
2, 152496, Note_on_c, 0, 92, 73
2, 152540, Note_off_c, 0, 92, 0
2, 152544, Note_on_c, 0, 88, 73
2, 152588, Note_off_c, 0, 88, 0
2, 152592, Note_on_c, 0, 90, 73
2, 152636, Note_off_c, 0, 90, 0
2, 152640, Note_on_c, 0, 88, 73
2, 152820, Note_off_c, 0, 88, 0
2, 152832, Note_on_c, 0, 86, 73
2, 152880, Note_off_c, 0, 86, 0
2, 152880, Note_on_c, 0, 88, 73
2, 152924, Note_off_c, 0, 88, 0
2, 152928, Note_on_c, 0, 85, 73
2, 152972, Note_off_c, 0, 85, 0
2, 152976, Note_on_c, 0, 86, 73
2, 153020, Note_off_c, 0, 86, 0
2, 153024, Note_on_c, 0, 85, 73
2, 153204, Note_off_c, 0, 85, 0
2, 153216, Note_on_c, 0, 83, 73
2, 153264, Note_off_c, 0, 83, 0
2, 153264, Note_on_c, 0, 85, 73
2, 153308, Note_off_c, 0, 85, 0
2, 153312, Note_on_c, 0, 81, 73
2, 153356, Note_off_c, 0, 81, 0
2, 153360, Note_on_c, 0, 83, 73
2, 153404, Note_off_c, 0, 83, 0
2, 153408, Note_on_c, 0, 81, 73
2, 153588, Note_off_c, 0, 81, 0
2, 153600, Note_on_c, 0, 90, 73
2, 153792, Note_off_c, 0, 90, 0
2, 153792, Note_on_c, 0, 88, 73
2, 153972, Note_off_c, 0, 88, 0
2, 153984, Note_on_c, 0, 88, 73
2, 154556, Note_off_c, 0, 88, 0
2, 154560, Note_on_c, 0, 88, 73
2, 154752, Note_off_c, 0, 88, 0
2, 154752, Note_on_c, 0, 90, 73
2, 154940, Note_off_c, 0, 90, 0
2, 154944, Note_on_c, 0, 91, 73
2, 155124, Note_off_c, 0, 91, 0
2, 155136, Note_on_c, 0, 89, 73
2, 155328, Note_off_c, 0, 89, 0
2, 155328, Note_on_c, 0, 90, 73
2, 155508, Note_off_c, 0, 90, 0
2, 155520, Note_on_c, 0, 90, 73
2, 156092, Note_off_c, 0, 90, 0
2, 156096, Note_on_c, 0, 92, 73
2, 156188, Note_off_c, 0, 92, 0
2, 156192, Note_on_c, 0, 93, 73
2, 156284, Note_off_c, 0, 93, 0
2, 156288, Note_on_c, 0, 92, 73
2, 156384, Note_off_c, 0, 92, 0
2, 156384, Note_on_c, 0, 90, 73
2, 156476, Note_off_c, 0, 90, 0
2, 156480, Note_on_c, 0, 88, 73
2, 156572, Note_off_c, 0, 88, 0
2, 156576, Note_on_c, 0, 86, 73
2, 156656, Note_off_c, 0, 86, 0
2, 156672, Note_on_c, 0, 85, 73
2, 156768, Note_off_c, 0, 85, 0
2, 156768, Note_on_c, 0, 81, 73
2, 156848, Note_off_c, 0, 81, 0
2, 156864, Note_on_c, 0, 86, 73
2, 156960, Note_off_c, 0, 86, 0
2, 156960, Note_on_c, 0, 83, 73
2, 157056, Note_off_c, 0, 83, 0
2, 157056, Note_on_c, 0, 85, 73
2, 157152, Note_off_c, 0, 85, 0
2, 157152, Note_on_c, 0, 81, 73
2, 157232, Note_off_c, 0, 81, 0
2, 157248, Note_on_c, 0, 86, 73
2, 157344, Note_off_c, 0, 86, 0
2, 157344, Note_on_c, 0, 83, 73
2, 157440, Note_off_c, 0, 83, 0
2, 157440, Note_on_c, 0, 83, 73
2, 157484, Note_off_c, 0, 83, 0
2, 157488, Note_on_c, 0, 85, 73
2, 157532, Note_off_c, 0, 85, 0
2, 157536, Note_on_c, 0, 83, 73
2, 157580, Note_off_c, 0, 83, 0
2, 157584, Note_on_c, 0, 85, 73
2, 157628, Note_off_c, 0, 85, 0
2, 157632, Note_on_c, 0, 83, 73
2, 157676, Note_off_c, 0, 83, 0
2, 157680, Note_on_c, 0, 85, 73
2, 157724, Note_off_c, 0, 85, 0
2, 157728, Note_on_c, 0, 83, 73
2, 157772, Note_off_c, 0, 83, 0
2, 157776, Note_on_c, 0, 85, 73
2, 157820, Note_off_c, 0, 85, 0
2, 157824, Note_on_c, 0, 83, 73
2, 157868, Note_off_c, 0, 83, 0
2, 157872, Note_on_c, 0, 85, 73
2, 157916, Note_off_c, 0, 85, 0
2, 157920, Note_on_c, 0, 83, 73
2, 157964, Note_off_c, 0, 83, 0
2, 157968, Note_on_c, 0, 85, 73
2, 158012, Note_off_c, 0, 85, 0
2, 158016, Note_on_c, 0, 81, 73
2, 158104, Note_off_c, 0, 81, 0
2, 158112, Note_on_c, 0, 83, 73
2, 158200, Note_off_c, 0, 83, 0
2, 158208, Note_on_c, 0, 85, 73
2, 158300, Note_off_c, 0, 85, 0
2, 158400, Note_on_c, 0, 88, 55
2, 158496, Note_off_c, 0, 88, 0
2, 158496, Note_on_c, 0, 85, 52
2, 158576, Note_off_c, 0, 85, 0
2, 158784, Note_on_c, 0, 85, 55
2, 158880, Note_off_c, 0, 85, 0
2, 158880, Note_on_c, 0, 81, 52
2, 158960, Note_off_c, 0, 81, 0
2, 159168, Note_on_c, 0, 81, 55
2, 159264, Note_off_c, 0, 81, 0
2, 159264, Note_on_c, 0, 76, 52
2, 159344, Note_off_c, 0, 76, 0
2, 159552, Note_on_c, 0, 76, 55
2, 159648, Note_off_c, 0, 76, 0
2, 159648, Note_on_c, 0, 73, 52
2, 159728, Note_off_c, 0, 73, 0
2, 159936, Note_on_c, 0, 74, 52
2, 160032, Note_off_c, 0, 74, 0
2, 160032, Note_on_c, 0, 78, 55
2, 160112, Note_off_c, 0, 78, 0
2, 160320, Note_on_c, 0, 78, 52
2, 160416, Note_off_c, 0, 78, 0
2, 160416, Note_on_c, 0, 81, 55
2, 160496, Note_off_c, 0, 81, 0
2, 160704, Note_on_c, 0, 81, 53
2, 160800, Note_off_c, 0, 81, 0
2, 160800, Note_on_c, 0, 86, 56
2, 160880, Note_off_c, 0, 86, 0
2, 161088, Note_on_c, 0, 86, 56
2, 161184, Note_off_c, 0, 86, 0
2, 161184, Note_on_c, 0, 90, 58
2, 161264, Note_off_c, 0, 90, 0
2, 161280, Note_on_c, 0, 93, 60
2, 161372, Note_off_c, 0, 93, 0
2, 161472, Note_on_c, 0, 93, 62
2, 161564, Note_off_c, 0, 93, 0
2, 161664, Note_on_c, 0, 93, 64
2, 161756, Note_off_c, 0, 93, 0
2, 161856, Note_on_c, 0, 93, 67
2, 161948, Note_off_c, 0, 93, 0
2, 162048, Note_on_c, 0, 93, 68
2, 162240, Note_off_c, 0, 93, 0
2, 162240, Note_on_c, 0, 93, 69
2, 162432, Note_off_c, 0, 93, 0
2, 162432, Note_on_c, 0, 93, 70
2, 162624, Note_off_c, 0, 93, 0
2, 162624, Note_on_c, 0, 93, 71
2, 162816, Note_off_c, 0, 93, 0
2, 162816, Note_on_c, 0, 93, 74
2, 162908, Note_off_c, 0, 93, 0
2, 163008, Note_on_c, 0, 93, 74
2, 163200, Note_off_c, 0, 93, 0
2, 163200, Note_on_c, 0, 88, 73
2, 163380, Note_off_c, 0, 88, 0
2, 163392, Note_on_c, 0, 88, 73
2, 163584, Note_off_c, 0, 88, 0
2, 163584, Note_on_c, 0, 85, 73
2, 163764, Note_off_c, 0, 85, 0
2, 163776, Note_on_c, 0, 85, 73
2, 163968, Note_off_c, 0, 85, 0
2, 163968, Note_on_c, 0, 81, 73
2, 164148, Note_off_c, 0, 81, 0
2, 164160, Note_on_c, 0, 81, 73
2, 164348, Note_off_c, 0, 81, 0
2, 164352, Note_on_c, 0, 76, 73
2, 164352, Control_c, 0, 1, 55
2, 164540, Note_off_c, 0, 76, 0
2, 164736, Note_on_c, 0, 88, 83
2, 165500, Note_off_c, 0, 88, 0
2, 165504, Note_on_c, 0, 86, 77
2, 165600, Note_off_c, 0, 86, 0
2, 165600, Note_on_c, 0, 85, 75
2, 165692, Note_off_c, 0, 85, 0
2, 165696, Note_on_c, 0, 83, 74
2, 165788, Note_off_c, 0, 83, 0
2, 165792, Note_on_c, 0, 81, 73
2, 165872, Note_off_c, 0, 81, 0
2, 165888, Note_on_c, 0, 83, 73
2, 165932, Note_off_c, 0, 83, 0
2, 165936, Note_on_c, 0, 85, 73
2, 165980, Note_off_c, 0, 85, 0
2, 165984, Note_on_c, 0, 83, 73
2, 166028, Note_off_c, 0, 83, 0
2, 166032, Note_on_c, 0, 85, 73
2, 166076, Note_off_c, 0, 85, 0
2, 166080, Note_on_c, 0, 83, 73
2, 166124, Note_off_c, 0, 83, 0
2, 166128, Note_on_c, 0, 85, 73
2, 166172, Note_off_c, 0, 85, 0
2, 166176, Note_on_c, 0, 83, 73
2, 166220, Note_off_c, 0, 83, 0
2, 166224, Note_on_c, 0, 85, 73
2, 166268, Note_off_c, 0, 85, 0
2, 166272, Note_on_c, 0, 83, 73
2, 166316, Note_off_c, 0, 83, 0
2, 166320, Note_on_c, 0, 85, 73
2, 166364, Note_off_c, 0, 85, 0
2, 166368, Note_on_c, 0, 83, 73
2, 166412, Note_off_c, 0, 83, 0
2, 166416, Note_on_c, 0, 85, 73
2, 166460, Note_off_c, 0, 85, 0
2, 166464, Note_on_c, 0, 83, 73
2, 166508, Note_off_c, 0, 83, 0
2, 166512, Note_on_c, 0, 85, 73
2, 166556, Note_off_c, 0, 85, 0
2, 166560, Note_on_c, 0, 83, 73
2, 166604, Note_off_c, 0, 83, 0
2, 166608, Note_on_c, 0, 85, 73
2, 166652, Note_off_c, 0, 85, 0
2, 166656, Note_on_c, 0, 83, 73
2, 166700, Note_off_c, 0, 83, 0
2, 166704, Note_on_c, 0, 85, 73
2, 166748, Note_off_c, 0, 85, 0
2, 166752, Note_on_c, 0, 83, 73
2, 166796, Note_off_c, 0, 83, 0
2, 166800, Note_on_c, 0, 85, 73
2, 166844, Note_off_c, 0, 85, 0
2, 166848, Note_on_c, 0, 83, 73
2, 166892, Note_off_c, 0, 83, 0
2, 166896, Note_on_c, 0, 85, 73
2, 166940, Note_off_c, 0, 85, 0
2, 166944, Note_on_c, 0, 83, 73
2, 166988, Note_off_c, 0, 83, 0
2, 166992, Note_on_c, 0, 85, 73
2, 167036, Note_off_c, 0, 85, 0
2, 167040, Note_on_c, 0, 83, 73
2, 167084, Note_off_c, 0, 83, 0
2, 167088, Note_on_c, 0, 85, 73
2, 167132, Note_off_c, 0, 85, 0
2, 167136, Note_on_c, 0, 83, 73
2, 167180, Note_off_c, 0, 83, 0
2, 167184, Note_on_c, 0, 85, 73
2, 167228, Note_off_c, 0, 85, 0
2, 167232, Note_on_c, 0, 81, 73
2, 167320, Note_off_c, 0, 81, 0
2, 167328, Note_on_c, 0, 83, 73
2, 167416, Note_off_c, 0, 83, 0
2, 167424, Note_on_c, 0, 81, 83
2, 167996, Note_off_c, 0, 81, 0
2, 175872, Control_c, 0, 1, 55
2, 177024, Note_on_c, 0, 85, 58
2, 177116, Note_off_c, 0, 85, 0
2, 177216, Note_on_c, 0, 85, 58
2, 177308, Note_off_c, 0, 85, 0
2, 177408, Note_on_c, 0, 85, 58
2, 177600, Note_off_c, 0, 85, 0
2, 177600, Note_on_c, 0, 86, 58
2, 177780, Note_off_c, 0, 86, 0
2, 177792, Note_on_c, 0, 83, 58
2, 177984, Note_off_c, 0, 83, 0
2, 177984, Note_on_c, 0, 80, 58
2, 178164, Note_off_c, 0, 80, 0
2, 178176, Note_on_c, 0, 81, 58
2, 178368, Note_off_c, 0, 81, 0
2, 178368, Note_on_c, 0, 85, 58
2, 178548, Note_off_c, 0, 85, 0
2, 178560, Note_on_c, 0, 88, 58
2, 178752, Note_off_c, 0, 88, 0
2, 178752, Note_on_c, 0, 85, 58
2, 178944, Note_off_c, 0, 85, 0
2, 178944, Note_on_c, 0, 85, 58
2, 179136, Note_off_c, 0, 85, 0
2, 179136, Note_on_c, 0, 86, 58
2, 179316, Note_off_c, 0, 86, 0
2, 179328, Note_on_c, 0, 83, 58
2, 179520, Note_off_c, 0, 83, 0
2, 179520, Note_on_c, 0, 80, 58
2, 179700, Note_off_c, 0, 80, 0
2, 179712, Note_on_c, 0, 79, 73
2, 179900, Note_off_c, 0, 79, 0
2, 180096, Note_on_c, 0, 79, 83
2, 180668, Note_off_c, 0, 79, 0
2, 180672, Note_on_c, 0, 78, 73
2, 180768, Note_off_c, 0, 78, 0
2, 180768, Note_on_c, 0, 79, 73
2, 180864, Note_off_c, 0, 79, 0
2, 180864, Note_on_c, 0, 81, 73
2, 180960, Note_off_c, 0, 81, 0
2, 180960, Note_on_c, 0, 79, 73
2, 181052, Note_off_c, 0, 79, 0
2, 181056, Note_on_c, 0, 78, 73
2, 181148, Note_off_c, 0, 78, 0
2, 181152, Note_on_c, 0, 76, 73
2, 181232, Note_off_c, 0, 76, 0
2, 181248, Note_on_c, 0, 74, 73
2, 181344, Note_off_c, 0, 74, 0
2, 181344, Note_on_c, 0, 73, 73
2, 181424, Note_off_c, 0, 73, 0
2, 181440, Note_on_c, 0, 76, 73
2, 181536, Note_off_c, 0, 76, 0
2, 181536, Note_on_c, 0, 74, 73
2, 181632, Note_off_c, 0, 74, 0
2, 181632, Note_on_c, 0, 78, 73
2, 181728, Note_off_c, 0, 78, 0
2, 181728, Note_on_c, 0, 76, 73
2, 181820, Note_off_c, 0, 76, 0
2, 181824, Note_on_c, 0, 74, 73
2, 181916, Note_off_c, 0, 74, 0
2, 181920, Note_on_c, 0, 73, 73
2, 182000, Note_off_c, 0, 73, 0
2, 182016, Note_on_c, 0, 71, 73
2, 182112, Note_off_c, 0, 71, 0
2, 182112, Note_on_c, 0, 70, 73
2, 182192, Note_off_c, 0, 70, 0
2, 182208, Note_on_c, 0, 73, 73
2, 182304, Note_off_c, 0, 73, 0
2, 182304, Note_on_c, 0, 71, 73
2, 182400, Note_off_c, 0, 71, 0
2, 182400, Note_on_c, 0, 74, 73
2, 182496, Note_off_c, 0, 74, 0
2, 182496, Note_on_c, 0, 73, 73
2, 182588, Note_off_c, 0, 73, 0
2, 182592, Note_on_c, 0, 71, 73
2, 182684, Note_off_c, 0, 71, 0
2, 182688, Note_on_c, 0, 70, 73
2, 182768, Note_off_c, 0, 70, 0
2, 182784, Note_on_c, 0, 73, 73
2, 182976, Note_off_c, 0, 73, 0
2, 182976, Note_on_c, 0, 71, 73
2, 183156, Note_off_c, 0, 71, 0
2, 183168, Note_on_c, 0, 71, 72
2, 183744, Note_off_c, 0, 71, 0
2, 183744, Note_on_c, 0, 78, 70
2, 183924, Note_off_c, 0, 78, 0
2, 183936, Note_on_c, 0, 78, 69
2, 184128, Note_off_c, 0, 78, 0
2, 184128, Note_on_c, 0, 78, 67
2, 184320, Note_off_c, 0, 78, 0
2, 184320, Note_on_c, 0, 78, 64
2, 184512, Note_off_c, 0, 78, 0
2, 184512, Note_on_c, 0, 73, 64
2, 184692, Note_off_c, 0, 73, 0
2, 184704, Note_on_c, 0, 73, 64
2, 185280, Note_off_c, 0, 73, 0
2, 185280, Note_on_c, 0, 78, 64
2, 185460, Note_off_c, 0, 78, 0
2, 185472, Note_on_c, 0, 78, 64
2, 185664, Note_off_c, 0, 78, 0
2, 185664, Note_on_c, 0, 78, 64
2, 185856, Note_off_c, 0, 78, 0
2, 185856, Note_on_c, 0, 78, 64
2, 186048, Note_off_c, 0, 78, 0
2, 186048, Note_on_c, 0, 74, 64
2, 186228, Note_off_c, 0, 74, 0
2, 186240, Note_on_c, 0, 74, 64
2, 186816, Note_off_c, 0, 74, 0
2, 186816, Note_on_c, 0, 83, 64
2, 186996, Note_off_c, 0, 83, 0
2, 187008, Note_on_c, 0, 83, 64
2, 187200, Note_off_c, 0, 83, 0
2, 187200, Note_on_c, 0, 83, 64
2, 187392, Note_off_c, 0, 83, 0
2, 187392, Note_on_c, 0, 86, 64
2, 187776, Note_off_c, 0, 86, 0
2, 187776, Note_on_c, 0, 83, 64
2, 188156, Note_off_c, 0, 83, 0
2, 188160, Note_on_c, 0, 79, 64
2, 188540, Note_off_c, 0, 79, 0
2, 188544, Note_on_c, 0, 77, 64
2, 188916, Note_off_c, 0, 77, 0
2, 188928, Note_on_c, 0, 77, 64
2, 189120, Note_off_c, 0, 77, 0
2, 189120, Note_on_c, 0, 78, 64
2, 189300, Note_off_c, 0, 78, 0
2, 189312, Note_on_c, 0, 78, 64
2, 189884, Note_off_c, 0, 78, 0
2, 189888, Note_on_c, 0, 85, 67
2, 190076, Note_off_c, 0, 85, 0
2, 190080, Note_on_c, 0, 90, 69
2, 190272, Note_off_c, 0, 90, 0
2, 190272, Note_on_c, 0, 88, 71
2, 190452, Note_off_c, 0, 88, 0
2, 190464, Note_on_c, 0, 86, 73
2, 190556, Note_off_c, 0, 86, 0
2, 190656, Note_on_c, 0, 83, 72
2, 190848, Note_off_c, 0, 83, 0
2, 190848, Note_on_c, 0, 82, 71
2, 191028, Note_off_c, 0, 82, 0
2, 191040, Note_on_c, 0, 81, 70
2, 191232, Note_off_c, 0, 81, 0
2, 191232, Note_on_c, 0, 80, 69
2, 191412, Note_off_c, 0, 80, 0
2, 191424, Note_on_c, 0, 79, 69
2, 191616, Note_off_c, 0, 79, 0
2, 191616, Note_on_c, 0, 78, 68
2, 191796, Note_off_c, 0, 78, 0
2, 191808, Note_on_c, 0, 77, 67
2, 191992, Control_c, 0, 1, 55
2, 191996, Note_off_c, 0, 77, 0
2, 192000, Note_on_c, 0, 77, 73
2, 192768, Note_off_c, 0, 77, 0
2, 192768, Note_on_c, 0, 78, 73
2, 193148, Note_off_c, 0, 78, 0
2, 193536, Note_on_c, 0, 74, 73
2, 193632, Note_off_c, 0, 74, 0
2, 193632, Note_on_c, 0, 78, 73
2, 193712, Note_off_c, 0, 78, 0
2, 193728, Note_on_c, 0, 83, 73
2, 193824, Note_off_c, 0, 83, 0
2, 193824, Note_on_c, 0, 86, 73
2, 193920, Note_off_c, 0, 86, 0
2, 193920, Note_on_c, 0, 85, 73
2, 194016, Note_off_c, 0, 85, 0
2, 194016, Note_on_c, 0, 83, 73
2, 194096, Note_off_c, 0, 83, 0
2, 194112, Note_on_c, 0, 82, 73
2, 194208, Note_off_c, 0, 82, 0
2, 194208, Note_on_c, 0, 83, 73
2, 194304, Note_off_c, 0, 83, 0
2, 194304, Note_on_c, 0, 74, 73
2, 194400, Note_off_c, 0, 74, 0
2, 194400, Note_on_c, 0, 78, 73
2, 194480, Note_off_c, 0, 78, 0
2, 194496, Note_on_c, 0, 83, 73
2, 194592, Note_off_c, 0, 83, 0
2, 194592, Note_on_c, 0, 86, 73
2, 194688, Note_off_c, 0, 86, 0
2, 194688, Note_on_c, 0, 85, 73
2, 194784, Note_off_c, 0, 85, 0
2, 194784, Note_on_c, 0, 83, 73
2, 194864, Note_off_c, 0, 83, 0
2, 194880, Note_on_c, 0, 82, 73
2, 194976, Note_off_c, 0, 82, 0
2, 194976, Note_on_c, 0, 83, 73
2, 195072, Note_off_c, 0, 83, 0
2, 195072, Note_on_c, 0, 79, 61
2, 195132, Note_off_c, 0, 79, 0
2, 195168, Note_on_c, 0, 83, 61
2, 195228, Note_off_c, 0, 83, 0
2, 195264, Note_on_c, 0, 78, 61
2, 195324, Note_off_c, 0, 78, 0
2, 195360, Note_on_c, 0, 83, 61
2, 195420, Note_off_c, 0, 83, 0
2, 195456, Note_on_c, 0, 79, 61
2, 195516, Note_off_c, 0, 79, 0
2, 195552, Note_on_c, 0, 83, 61
2, 195612, Note_off_c, 0, 83, 0
2, 195648, Note_on_c, 0, 78, 61
2, 195708, Note_off_c, 0, 78, 0
2, 195744, Note_on_c, 0, 83, 61
2, 195804, Note_off_c, 0, 83, 0
2, 195840, Note_on_c, 0, 79, 61
2, 195900, Note_off_c, 0, 79, 0
2, 195936, Note_on_c, 0, 83, 61
2, 195996, Note_off_c, 0, 83, 0
2, 196032, Note_on_c, 0, 78, 61
2, 196092, Note_off_c, 0, 78, 0
2, 196128, Note_on_c, 0, 83, 61
2, 196188, Note_off_c, 0, 83, 0
2, 196224, Note_on_c, 0, 79, 61
2, 196284, Note_off_c, 0, 79, 0
2, 196320, Note_on_c, 0, 83, 61
2, 196380, Note_off_c, 0, 83, 0
2, 196416, Note_on_c, 0, 78, 61
2, 196476, Note_off_c, 0, 78, 0
2, 196512, Note_on_c, 0, 83, 61
2, 196572, Note_off_c, 0, 83, 0
2, 196608, Note_on_c, 0, 67, 73
2, 196704, Note_off_c, 0, 67, 0
2, 196704, Note_on_c, 0, 71, 73
2, 196784, Note_off_c, 0, 71, 0
2, 196800, Note_on_c, 0, 76, 73
2, 196896, Note_off_c, 0, 76, 0
2, 196896, Note_on_c, 0, 79, 73
2, 196992, Note_off_c, 0, 79, 0
2, 196992, Note_on_c, 0, 78, 73
2, 197088, Note_off_c, 0, 78, 0
2, 197088, Note_on_c, 0, 76, 73
2, 197168, Note_off_c, 0, 76, 0
2, 197184, Note_on_c, 0, 75, 73
2, 197280, Note_off_c, 0, 75, 0
2, 197280, Note_on_c, 0, 76, 73
2, 197376, Note_off_c, 0, 76, 0
2, 197376, Note_on_c, 0, 67, 73
2, 197472, Note_off_c, 0, 67, 0
2, 197472, Note_on_c, 0, 71, 73
2, 197552, Note_off_c, 0, 71, 0
2, 197568, Note_on_c, 0, 76, 73
2, 197664, Note_off_c, 0, 76, 0
2, 197664, Note_on_c, 0, 79, 73
2, 197760, Note_off_c, 0, 79, 0
2, 197760, Note_on_c, 0, 78, 73
2, 197856, Note_off_c, 0, 78, 0
2, 197856, Note_on_c, 0, 76, 73
2, 197936, Note_off_c, 0, 76, 0
2, 197952, Note_on_c, 0, 75, 73
2, 198048, Note_off_c, 0, 75, 0
2, 198048, Note_on_c, 0, 76, 73
2, 198144, Note_off_c, 0, 76, 0
2, 198144, Note_on_c, 0, 73, 61
2, 198204, Note_off_c, 0, 73, 0
2, 198240, Note_on_c, 0, 76, 61
2, 198300, Note_off_c, 0, 76, 0
2, 198336, Note_on_c, 0, 71, 61
2, 198396, Note_off_c, 0, 71, 0
2, 198432, Note_on_c, 0, 76, 61
2, 198492, Note_off_c, 0, 76, 0
2, 198528, Note_on_c, 0, 73, 61
2, 198588, Note_off_c, 0, 73, 0
2, 198624, Note_on_c, 0, 76, 61
2, 198684, Note_off_c, 0, 76, 0
2, 198720, Note_on_c, 0, 71, 61
2, 198780, Note_off_c, 0, 71, 0
2, 198816, Note_on_c, 0, 76, 61
2, 198876, Note_off_c, 0, 76, 0
2, 198912, Note_on_c, 0, 73, 61
2, 198972, Note_off_c, 0, 73, 0
2, 199008, Note_on_c, 0, 76, 61
2, 199068, Note_off_c, 0, 76, 0
2, 199104, Note_on_c, 0, 71, 61
2, 199164, Note_off_c, 0, 71, 0
2, 199200, Note_on_c, 0, 76, 61
2, 199260, Note_off_c, 0, 76, 0
2, 199296, Note_on_c, 0, 73, 61
2, 199356, Note_off_c, 0, 73, 0
2, 199392, Note_on_c, 0, 76, 61
2, 199452, Note_off_c, 0, 76, 0
2, 199488, Note_on_c, 0, 71, 61
2, 199548, Note_off_c, 0, 71, 0
2, 199584, Note_on_c, 0, 76, 61
2, 199644, Note_off_c, 0, 76, 0
2, 199680, Note_on_c, 0, 69, 73
2, 199776, Note_off_c, 0, 69, 0
2, 199776, Note_on_c, 0, 76, 73
2, 199856, Note_off_c, 0, 76, 0
2, 199872, Note_on_c, 0, 81, 73
2, 199968, Note_off_c, 0, 81, 0
2, 199968, Note_on_c, 0, 85, 73
2, 200064, Note_off_c, 0, 85, 0
2, 200064, Note_on_c, 0, 83, 73
2, 200160, Note_off_c, 0, 83, 0
2, 200160, Note_on_c, 0, 81, 73
2, 200240, Note_off_c, 0, 81, 0
2, 200256, Note_on_c, 0, 80, 73
2, 200352, Note_off_c, 0, 80, 0
2, 200352, Note_on_c, 0, 81, 73
2, 200448, Note_off_c, 0, 81, 0
2, 200448, Note_on_c, 0, 73, 73
2, 200544, Note_off_c, 0, 73, 0
2, 200544, Note_on_c, 0, 76, 73
2, 200624, Note_off_c, 0, 76, 0
2, 200640, Note_on_c, 0, 81, 73
2, 200736, Note_off_c, 0, 81, 0
2, 200736, Note_on_c, 0, 85, 73
2, 200832, Note_off_c, 0, 85, 0
2, 200832, Note_on_c, 0, 83, 73
2, 200928, Note_off_c, 0, 83, 0
2, 200928, Note_on_c, 0, 81, 73
2, 201008, Note_off_c, 0, 81, 0
2, 201024, Note_on_c, 0, 80, 73
2, 201120, Note_off_c, 0, 80, 0
2, 201120, Note_on_c, 0, 81, 73
2, 201216, Note_off_c, 0, 81, 0
2, 201216, Note_on_c, 0, 78, 61
2, 201276, Note_off_c, 0, 78, 0
2, 201312, Note_on_c, 0, 81, 61
2, 201372, Note_off_c, 0, 81, 0
2, 201408, Note_on_c, 0, 76, 61
2, 201468, Note_off_c, 0, 76, 0
2, 201504, Note_on_c, 0, 81, 61
2, 201564, Note_off_c, 0, 81, 0
2, 201600, Note_on_c, 0, 78, 61
2, 201660, Note_off_c, 0, 78, 0
2, 201696, Note_on_c, 0, 81, 61
2, 201756, Note_off_c, 0, 81, 0
2, 201792, Note_on_c, 0, 76, 61
2, 201852, Note_off_c, 0, 76, 0
2, 201888, Note_on_c, 0, 81, 61
2, 201948, Note_off_c, 0, 81, 0
2, 201984, Note_on_c, 0, 78, 61
2, 202044, Note_off_c, 0, 78, 0
2, 202080, Note_on_c, 0, 81, 61
2, 202140, Note_off_c, 0, 81, 0
2, 202176, Note_on_c, 0, 76, 61
2, 202236, Note_off_c, 0, 76, 0
2, 202272, Note_on_c, 0, 81, 61
2, 202332, Note_off_c, 0, 81, 0
2, 202368, Note_on_c, 0, 78, 61
2, 202428, Note_off_c, 0, 78, 0
2, 202464, Note_on_c, 0, 81, 61
2, 202524, Note_off_c, 0, 81, 0
2, 202560, Note_on_c, 0, 76, 61
2, 202620, Note_off_c, 0, 76, 0
2, 202656, Note_on_c, 0, 81, 61
2, 202716, Note_off_c, 0, 81, 0
2, 202752, Note_on_c, 0, 66, 73
2, 202848, Note_off_c, 0, 66, 0
2, 202848, Note_on_c, 0, 69, 73
2, 202928, Note_off_c, 0, 69, 0
2, 202944, Note_on_c, 0, 74, 73
2, 203040, Note_off_c, 0, 74, 0
2, 203040, Note_on_c, 0, 78, 73
2, 203136, Note_off_c, 0, 78, 0
2, 203136, Note_on_c, 0, 76, 73
2, 203232, Note_off_c, 0, 76, 0
2, 203232, Note_on_c, 0, 74, 73
2, 203312, Note_off_c, 0, 74, 0
2, 203328, Note_on_c, 0, 73, 73
2, 203424, Note_off_c, 0, 73, 0
2, 203424, Note_on_c, 0, 74, 73
2, 203520, Note_off_c, 0, 74, 0
2, 203520, Note_on_c, 0, 66, 73
2, 203616, Note_off_c, 0, 66, 0
2, 203616, Note_on_c, 0, 69, 73
2, 203696, Note_off_c, 0, 69, 0
2, 203712, Note_on_c, 0, 74, 73
2, 203808, Note_off_c, 0, 74, 0
2, 203808, Note_on_c, 0, 78, 73
2, 203904, Note_off_c, 0, 78, 0
2, 203904, Note_on_c, 0, 76, 73
2, 204000, Note_off_c, 0, 76, 0
2, 204000, Note_on_c, 0, 74, 73
2, 204080, Note_off_c, 0, 74, 0
2, 204096, Note_on_c, 0, 73, 73
2, 204192, Note_off_c, 0, 73, 0
2, 204192, Note_on_c, 0, 74, 73
2, 204288, Note_off_c, 0, 74, 0
2, 204288, Note_on_c, 0, 71, 61
2, 204348, Note_off_c, 0, 71, 0
2, 204384, Note_on_c, 0, 74, 61
2, 204444, Note_off_c, 0, 74, 0
2, 204480, Note_on_c, 0, 69, 61
2, 204540, Note_off_c, 0, 69, 0
2, 204576, Note_on_c, 0, 74, 61
2, 204636, Note_off_c, 0, 74, 0
2, 204672, Note_on_c, 0, 71, 61
2, 204732, Note_off_c, 0, 71, 0
2, 204768, Note_on_c, 0, 74, 61
2, 204828, Note_off_c, 0, 74, 0
2, 204864, Note_on_c, 0, 69, 61
2, 204924, Note_off_c, 0, 69, 0
2, 204960, Note_on_c, 0, 74, 61
2, 205020, Note_off_c, 0, 74, 0
2, 205056, Note_on_c, 0, 71, 61
2, 205116, Note_off_c, 0, 71, 0
2, 205152, Note_on_c, 0, 74, 61
2, 205212, Note_off_c, 0, 74, 0
2, 205248, Note_on_c, 0, 69, 61
2, 205308, Note_off_c, 0, 69, 0
2, 205344, Note_on_c, 0, 74, 61
2, 205404, Note_off_c, 0, 74, 0
2, 205440, Note_on_c, 0, 71, 61
2, 205500, Note_off_c, 0, 71, 0
2, 205536, Note_on_c, 0, 74, 61
2, 205596, Note_off_c, 0, 74, 0
2, 205632, Note_on_c, 0, 69, 61
2, 205692, Note_off_c, 0, 69, 0
2, 205728, Note_on_c, 0, 74, 61
2, 205788, Note_off_c, 0, 74, 0
2, 205824, Note_on_c, 0, 71, 73
2, 206012, Note_off_c, 0, 71, 0
2, 206208, Note_on_c, 0, 55, 83
2, 206688, Note_off_c, 0, 55, 0
2, 206688, Note_on_c, 0, 59, 73
2, 206768, Note_off_c, 0, 59, 0
2, 206784, Note_on_c, 0, 62, 73
2, 206880, Note_off_c, 0, 62, 0
2, 206880, Note_on_c, 0, 67, 73
2, 206976, Note_off_c, 0, 67, 0
2, 206976, Note_on_c, 0, 71, 73
2, 207072, Note_off_c, 0, 71, 0
2, 207072, Note_on_c, 0, 74, 73
2, 207168, Note_off_c, 0, 74, 0
2, 207168, Note_on_c, 0, 79, 73
2, 207264, Note_off_c, 0, 79, 0
2, 207264, Note_on_c, 0, 83, 73
2, 207360, Note_off_c, 0, 83, 0
2, 207360, Note_on_c, 0, 81, 73
2, 207548, Note_off_c, 0, 81, 0
2, 207744, Note_on_c, 0, 57, 83
2, 208224, Note_off_c, 0, 57, 0
2, 208224, Note_on_c, 0, 61, 73
2, 208304, Note_off_c, 0, 61, 0
2, 208320, Note_on_c, 0, 62, 73
2, 208416, Note_off_c, 0, 62, 0
2, 208416, Note_on_c, 0, 66, 73
2, 208512, Note_off_c, 0, 66, 0
2, 208512, Note_on_c, 0, 69, 73
2, 208608, Note_off_c, 0, 69, 0
2, 208608, Note_on_c, 0, 74, 73
2, 208704, Note_off_c, 0, 74, 0
2, 208704, Note_on_c, 0, 78, 73
2, 208800, Note_off_c, 0, 78, 0
2, 208800, Note_on_c, 0, 81, 73
2, 208896, Note_off_c, 0, 81, 0
2, 208896, Note_on_c, 0, 84, 73
2, 209084, Note_off_c, 0, 84, 0
2, 209280, Note_on_c, 0, 60, 83
2, 209760, Note_off_c, 0, 60, 0
2, 209760, Note_on_c, 0, 62, 73
2, 209840, Note_off_c, 0, 62, 0
2, 209856, Note_on_c, 0, 66, 73
2, 209952, Note_off_c, 0, 66, 0
2, 209952, Note_on_c, 0, 69, 73
2, 210048, Note_off_c, 0, 69, 0
2, 210048, Note_on_c, 0, 73, 73
2, 210144, Note_off_c, 0, 73, 0
2, 210144, Note_on_c, 0, 78, 73
2, 210240, Note_off_c, 0, 78, 0
2, 210240, Note_on_c, 0, 81, 73
2, 210336, Note_off_c, 0, 81, 0
2, 210336, Note_on_c, 0, 84, 73
2, 210432, Note_off_c, 0, 84, 0
2, 210432, Note_on_c, 0, 83, 73
2, 210620, Note_off_c, 0, 83, 0
2, 210816, Note_on_c, 0, 59, 83
2, 211296, Note_off_c, 0, 59, 0
2, 211296, Note_on_c, 0, 62, 73
2, 211376, Note_off_c, 0, 62, 0
2, 211392, Note_on_c, 0, 66, 73
2, 211488, Note_off_c, 0, 66, 0
2, 211488, Note_on_c, 0, 67, 73
2, 211584, Note_off_c, 0, 67, 0
2, 211584, Note_on_c, 0, 71, 73
2, 211680, Note_off_c, 0, 71, 0
2, 211680, Note_on_c, 0, 74, 73
2, 211776, Note_off_c, 0, 74, 0
2, 211776, Note_on_c, 0, 79, 73
2, 211872, Note_off_c, 0, 79, 0
2, 211872, Note_on_c, 0, 83, 73
2, 211968, Note_off_c, 0, 83, 0
2, 211968, Note_on_c, 0, 81, 73
2, 212156, Note_off_c, 0, 81, 0
2, 212352, Note_on_c, 0, 59, 83
2, 212832, Note_off_c, 0, 59, 0
2, 212832, Note_on_c, 0, 63, 73
2, 212912, Note_off_c, 0, 63, 0
2, 212928, Note_on_c, 0, 66, 73
2, 213024, Note_off_c, 0, 66, 0
2, 213024, Note_on_c, 0, 70, 73
2, 213120, Note_off_c, 0, 70, 0
2, 213120, Note_on_c, 0, 71, 73
2, 213216, Note_off_c, 0, 71, 0
2, 213216, Note_on_c, 0, 75, 73
2, 213312, Note_off_c, 0, 75, 0
2, 213312, Note_on_c, 0, 78, 73
2, 213408, Note_off_c, 0, 78, 0
2, 213408, Note_on_c, 0, 81, 73
2, 213504, Note_off_c, 0, 81, 0
2, 213504, Note_on_c, 0, 79, 73
2, 213692, Note_off_c, 0, 79, 0
2, 213888, Note_on_c, 0, 55, 83
2, 214368, Note_off_c, 0, 55, 0
2, 214368, Note_on_c, 0, 59, 73
2, 214448, Note_off_c, 0, 59, 0
2, 214464, Note_on_c, 0, 63, 73
2, 214560, Note_off_c, 0, 63, 0
2, 214560, Note_on_c, 0, 64, 73
2, 214656, Note_off_c, 0, 64, 0
2, 214656, Note_on_c, 0, 67, 73
2, 214752, Note_off_c, 0, 67, 0
2, 214752, Note_on_c, 0, 71, 73
2, 214848, Note_off_c, 0, 71, 0
2, 214848, Note_on_c, 0, 76, 73
2, 214944, Note_off_c, 0, 76, 0
2, 214944, Note_on_c, 0, 78, 73
2, 215040, Note_off_c, 0, 78, 0
2, 215040, Note_on_c, 0, 79, 73
2, 215228, Note_off_c, 0, 79, 0
2, 215424, Note_on_c, 0, 57, 83
2, 215904, Note_off_c, 0, 57, 0
2, 215904, Note_on_c, 0, 60, 73
2, 215984, Note_off_c, 0, 60, 0
2, 216000, Note_on_c, 0, 64, 73
2, 216096, Note_off_c, 0, 64, 0
2, 216096, Note_on_c, 0, 68, 73
2, 216192, Note_off_c, 0, 68, 0
2, 216192, Note_on_c, 0, 69, 73
2, 216288, Note_off_c, 0, 69, 0
2, 216288, Note_on_c, 0, 73, 73
2, 216384, Note_off_c, 0, 73, 0
2, 216384, Note_on_c, 0, 76, 73
2, 216480, Note_off_c, 0, 76, 0
2, 216480, Note_on_c, 0, 79, 73
2, 216576, Note_off_c, 0, 79, 0
2, 216576, Note_on_c, 0, 78, 73
2, 216764, Note_off_c, 0, 78, 0
2, 216960, Note_on_c, 0, 62, 73
2, 217440, Note_off_c, 0, 62, 0
2, 217440, Note_on_c, 0, 66, 73
2, 217520, Note_off_c, 0, 66, 0
2, 217536, Note_on_c, 0, 69, 73
2, 217632, Note_off_c, 0, 69, 0
2, 217632, Note_on_c, 0, 73, 73
2, 217728, Note_off_c, 0, 73, 0
2, 217728, Note_on_c, 0, 74, 73
2, 217824, Note_off_c, 0, 74, 0
2, 217824, Note_on_c, 0, 78, 73
2, 217920, Note_off_c, 0, 78, 0
2, 217920, Note_on_c, 0, 81, 73
2, 218016, Note_off_c, 0, 81, 0
2, 218016, Note_on_c, 0, 86, 73
2, 218112, Note_off_c, 0, 86, 0
2, 218112, Note_on_c, 0, 85, 77
2, 218156, Note_off_c, 0, 85, 0
2, 218160, Note_on_c, 0, 83, 75
2, 218204, Note_off_c, 0, 83, 0
2, 218208, Note_on_c, 0, 85, 74
2, 218252, Note_off_c, 0, 85, 0
2, 218256, Note_on_c, 0, 83, 74
2, 218300, Note_off_c, 0, 83, 0
2, 218304, Note_on_c, 0, 85, 73
2, 218348, Note_off_c, 0, 85, 0
2, 218352, Note_on_c, 0, 83, 73
2, 218396, Note_off_c, 0, 83, 0
2, 218400, Note_on_c, 0, 81, 72
2, 218492, Note_off_c, 0, 81, 0
2, 218496, Note_on_c, 0, 81, 77
2, 218540, Note_off_c, 0, 81, 0
2, 218544, Note_on_c, 0, 79, 75
2, 218588, Note_off_c, 0, 79, 0
2, 218592, Note_on_c, 0, 81, 74
2, 218636, Note_off_c, 0, 81, 0
2, 218640, Note_on_c, 0, 79, 74
2, 218684, Note_off_c, 0, 79, 0
2, 218688, Note_on_c, 0, 81, 73
2, 218732, Note_off_c, 0, 81, 0
2, 218736, Note_on_c, 0, 79, 73
2, 218780, Note_off_c, 0, 79, 0
2, 218784, Note_on_c, 0, 78, 72
2, 218876, Note_off_c, 0, 78, 0
2, 218880, Note_on_c, 0, 78, 77
2, 218924, Note_off_c, 0, 78, 0
2, 218928, Note_on_c, 0, 76, 75
2, 218972, Note_off_c, 0, 76, 0
2, 218976, Note_on_c, 0, 78, 74
2, 219020, Note_off_c, 0, 78, 0
2, 219024, Note_on_c, 0, 76, 74
2, 219068, Note_off_c, 0, 76, 0
2, 219072, Note_on_c, 0, 78, 73
2, 219116, Note_off_c, 0, 78, 0
2, 219120, Note_on_c, 0, 76, 73
2, 219164, Note_off_c, 0, 76, 0
2, 219168, Note_on_c, 0, 74, 72
2, 219260, Note_off_c, 0, 74, 0
2, 219264, Note_on_c, 0, 74, 77
2, 219308, Note_off_c, 0, 74, 0
2, 219312, Note_on_c, 0, 73, 75
2, 219356, Note_off_c, 0, 73, 0
2, 219360, Note_on_c, 0, 74, 74
2, 219404, Note_off_c, 0, 74, 0
2, 219408, Note_on_c, 0, 73, 74
2, 219452, Note_off_c, 0, 73, 0
2, 219456, Note_on_c, 0, 74, 73
2, 219500, Note_off_c, 0, 74, 0
2, 219504, Note_on_c, 0, 73, 73
2, 219548, Note_off_c, 0, 73, 0
2, 219552, Note_on_c, 0, 71, 72
2, 219640, Control_c, 0, 1, 55
2, 219644, Note_off_c, 0, 71, 0
2, 219648, Note_on_c, 0, 69, 83
2, 219736, Note_off_c, 0, 69, 0
2, 219744, Note_on_c, 0, 81, 73
2, 221568, Note_off_c, 0, 81, 64
2, 221568, Note_on_c, 0, 69, 69
2, 221944, Note_off_c, 0, 69, 0
2, 221952, Note_on_c, 0, 69, 69
2, 223100, Note_off_c, 0, 69, 64
2, 223104, Note_on_c, 0, 57, 64
2, 223872, Note_off_c, 0, 57, 0
2, 223872, Note_on_c, 0, 57, 64
2, 224064, Note_off_c, 0, 57, 0
2, 224064, Note_on_c, 0, 66, 63
2, 224244, Note_off_c, 0, 66, 0
2, 224256, Note_on_c, 0, 64, 58
2, 224448, Note_off_c, 0, 64, 0
2, 224448, Note_on_c, 0, 62, 53
2, 224628, Note_off_c, 0, 62, 0
2, 224640, Note_on_c, 0, 66, 55
2, 224832, Note_off_c, 0, 66, 0
2, 224832, Note_on_c, 0, 69, 53
2, 225012, Note_off_c, 0, 69, 0
2, 225024, Note_on_c, 0, 67, 53
2, 225216, Note_off_c, 0, 67, 0
2, 225216, Note_on_c, 0, 66, 53
2, 225396, Note_off_c, 0, 66, 0
2, 225408, Note_on_c, 0, 74, 57
2, 225600, Note_off_c, 0, 74, 0
2, 225600, Note_on_c, 0, 78, 58
2, 225780, Note_off_c, 0, 78, 0
2, 225792, Note_on_c, 0, 78, 58
2, 225984, Note_off_c, 0, 78, 0
2, 225984, Note_on_c, 0, 79, 58
2, 226164, Note_off_c, 0, 79, 0
2, 226176, Note_on_c, 0, 79, 58
2, 226748, Note_off_c, 0, 79, 0
2, 226752, Note_on_c, 0, 78, 53
2, 226796, Note_off_c, 0, 78, 0
2, 226848, Note_on_c, 0, 79, 53
2, 226892, Note_off_c, 0, 79, 0
2, 226944, Note_on_c, 0, 81, 53
2, 227040, Note_off_c, 0, 81, 0
2, 227040, Note_on_c, 0, 79, 53
2, 227132, Note_off_c, 0, 79, 0
2, 227136, Note_on_c, 0, 78, 53
2, 227228, Note_off_c, 0, 78, 0
2, 227232, Note_on_c, 0, 76, 53
2, 227312, Note_off_c, 0, 76, 0
2, 227328, Note_on_c, 0, 74, 53
2, 227424, Note_off_c, 0, 74, 0
2, 227424, Note_on_c, 0, 73, 53
2, 227516, Note_off_c, 0, 73, 0
2, 227520, Note_on_c, 0, 76, 53
2, 227612, Note_off_c, 0, 76, 0
2, 227616, Note_on_c, 0, 74, 53
2, 227708, Note_off_c, 0, 74, 0
2, 227712, Note_on_c, 0, 78, 55
2, 227804, Note_off_c, 0, 78, 0
2, 227808, Note_on_c, 0, 76, 55
2, 227900, Note_off_c, 0, 76, 0
2, 227904, Note_on_c, 0, 74, 56
2, 227996, Note_off_c, 0, 74, 0
2, 228000, Note_on_c, 0, 73, 57
2, 228080, Note_off_c, 0, 73, 0
2, 228096, Note_on_c, 0, 71, 58
2, 228192, Note_off_c, 0, 71, 0
2, 228192, Note_on_c, 0, 69, 59
2, 228284, Note_off_c, 0, 69, 0
2, 228288, Note_on_c, 0, 73, 59
2, 228380, Note_off_c, 0, 73, 0
2, 228384, Note_on_c, 0, 71, 59
2, 228476, Note_off_c, 0, 71, 0
2, 228480, Note_on_c, 0, 74, 60
2, 228572, Note_off_c, 0, 74, 0
2, 228576, Note_on_c, 0, 73, 61
2, 228668, Note_off_c, 0, 73, 0
2, 228672, Note_on_c, 0, 71, 62
2, 228764, Note_off_c, 0, 71, 0
2, 228768, Note_on_c, 0, 69, 63
2, 228848, Note_off_c, 0, 69, 0
2, 228856, Control_c, 0, 1, 55
2, 228864, Note_on_c, 0, 67, 64
2, 229056, Note_off_c, 0, 67, 0
2, 229056, Note_on_c, 0, 66, 60
2, 229236, Note_off_c, 0, 66, 0
2, 229248, Note_on_c, 0, 66, 58
2, 230016, Note_off_c, 0, 66, 0
2, 230016, Note_on_c, 0, 66, 53
2, 230388, Note_off_c, 0, 66, 0
2, 230400, Note_on_c, 0, 64, 52
2, 230496, Note_off_c, 0, 64, 0
2, 230496, Note_on_c, 0, 66, 52
2, 230588, Note_off_c, 0, 66, 0
2, 230592, Note_on_c, 0, 67, 52
2, 230684, Note_off_c, 0, 67, 0
2, 230688, Note_on_c, 0, 66, 52
2, 230780, Note_off_c, 0, 66, 0
2, 230784, Note_on_c, 0, 67, 52
2, 230864, Note_off_c, 0, 67, 0
2, 230880, Note_on_c, 0, 70, 52
2, 230976, Note_off_c, 0, 70, 0
2, 230976, Note_on_c, 0, 71, 52
2, 231068, Note_off_c, 0, 71, 0
2, 231072, Note_on_c, 0, 70, 52
2, 231164, Note_off_c, 0, 70, 0
2, 231168, Note_on_c, 0, 71, 52
2, 231248, Note_off_c, 0, 71, 0
2, 231264, Note_on_c, 0, 75, 52
2, 231360, Note_off_c, 0, 75, 0
2, 231360, Note_on_c, 0, 76, 52
2, 231452, Note_off_c, 0, 76, 0
2, 231456, Note_on_c, 0, 75, 52
2, 231548, Note_off_c, 0, 75, 0
2, 231552, Note_on_c, 0, 76, 52
2, 231632, Note_off_c, 0, 76, 0
2, 231648, Note_on_c, 0, 78, 52
2, 231744, Note_off_c, 0, 78, 0
2, 231744, Note_on_c, 0, 79, 52
2, 231836, Note_off_c, 0, 79, 0
2, 231840, Note_on_c, 0, 78, 52
2, 231932, Note_off_c, 0, 78, 0
2, 231936, Note_on_c, 0, 79, 53
2, 232016, Note_off_c, 0, 79, 0
2, 232032, Note_on_c, 0, 82, 55
2, 232128, Note_off_c, 0, 82, 0
2, 232128, Note_on_c, 0, 83, 56
2, 232220, Note_off_c, 0, 83, 0
2, 232224, Note_on_c, 0, 82, 57
2, 232304, Note_off_c, 0, 82, 0
2, 232320, Note_on_c, 0, 83, 58
2, 232800, Note_off_c, 0, 83, 0
2, 232800, Note_on_c, 0, 82, 62
2, 232896, Note_off_c, 0, 82, 0
2, 232896, Note_on_c, 0, 83, 63
2, 232988, Note_off_c, 0, 83, 0
2, 232992, Note_on_c, 0, 82, 64
2, 233072, Note_off_c, 0, 82, 0
2, 233088, Note_on_c, 0, 83, 67
2, 233568, Note_off_c, 0, 83, 0
2, 233568, Note_on_c, 0, 85, 75
2, 233660, Note_off_c, 0, 85, 0
2, 233664, Note_on_c, 0, 86, 77
2, 233756, Note_off_c, 0, 86, 0
2, 233760, Note_on_c, 0, 85, 74
2, 233840, Note_off_c, 0, 85, 0
2, 233856, Note_on_c, 0, 88, 77
2, 233952, Note_off_c, 0, 88, 0
2, 233952, Note_on_c, 0, 86, 75
2, 234044, Note_off_c, 0, 86, 0
2, 234048, Note_on_c, 0, 85, 74
2, 234140, Note_off_c, 0, 85, 0
2, 234144, Note_on_c, 0, 83, 73
2, 234224, Note_off_c, 0, 83, 0
2, 234240, Note_on_c, 0, 83, 74
2, 234336, Note_off_c, 0, 83, 0
2, 234336, Note_on_c, 0, 81, 73
2, 234428, Note_off_c, 0, 81, 0
2, 234432, Note_on_c, 0, 79, 72
2, 234524, Note_off_c, 0, 79, 0
2, 234528, Note_on_c, 0, 78, 71
2, 234608, Note_off_c, 0, 78, 0
2, 234624, Note_on_c, 0, 78, 72
2, 234720, Note_off_c, 0, 78, 0
2, 234720, Note_on_c, 0, 76, 71
2, 234812, Note_off_c, 0, 76, 0
2, 234816, Note_on_c, 0, 74, 70
2, 234908, Note_off_c, 0, 74, 0
2, 234912, Note_on_c, 0, 73, 69
2, 234992, Note_off_c, 0, 73, 0
2, 235008, Note_on_c, 0, 74, 71
2, 235392, Note_off_c, 0, 74, 0
2, 238460, Control_c, 0, 1, 55
2, 238656, Note_on_c, 0, 78, 52
2, 238848, Note_off_c, 0, 78, 0
2, 238848, Note_on_c, 0, 79, 53
2, 239028, Note_off_c, 0, 79, 0
2, 239040, Note_on_c, 0, 79, 53
2, 239132, Note_off_c, 0, 79, 0
2, 239424, Note_on_c, 0, 78, 52
2, 239616, Note_off_c, 0, 78, 0
2, 239616, Note_on_c, 0, 76, 52
2, 239796, Note_off_c, 0, 76, 0
2, 239808, Note_on_c, 0, 76, 52
2, 239900, Note_off_c, 0, 76, 0
2, 240192, Note_on_c, 0, 74, 51
2, 240284, Note_off_c, 0, 74, 0
2, 240384, Note_on_c, 0, 73, 50
2, 240476, Note_off_c, 0, 73, 0
2, 240576, Note_on_c, 0, 74, 50
2, 240668, Note_off_c, 0, 74, 0
2, 240768, Note_on_c, 0, 78, 55
2, 240864, Note_off_c, 0, 78, 0
2, 240864, Note_on_c, 0, 76, 53
2, 240956, Note_off_c, 0, 76, 0
2, 240960, Note_on_c, 0, 74, 52
2, 241052, Note_off_c, 0, 74, 0
2, 241056, Note_on_c, 0, 73, 51
2, 241136, Note_off_c, 0, 73, 0
2, 241152, Note_on_c, 0, 74, 70
2, 241340, Note_off_c, 0, 74, 0
2, 241536, Note_on_c, 0, 86, 83
2, 242108, Note_off_c, 0, 86, 0
2, 242112, Note_on_c, 0, 78, 69
2, 242208, Note_off_c, 0, 78, 0
2, 242208, Note_on_c, 0, 86, 73
2, 242288, Note_off_c, 0, 86, 0
2, 242304, Note_on_c, 0, 78, 69
2, 242400, Note_off_c, 0, 78, 0
2, 242400, Note_on_c, 0, 86, 73
2, 242480, Note_off_c, 0, 86, 0
2, 242496, Note_on_c, 0, 78, 69
2, 242592, Note_off_c, 0, 78, 0
2, 242592, Note_on_c, 0, 86, 73
2, 242672, Note_off_c, 0, 86, 0
2, 242688, Note_on_c, 0, 66, 69
2, 242780, Note_off_c, 0, 66, 0
2, 242880, Note_on_c, 0, 74, 73
2, 242972, Note_off_c, 0, 74, 0
2, 243072, Note_on_c, 0, 84, 83
2, 243644, Note_off_c, 0, 84, 0
2, 243648, Note_on_c, 0, 74, 69
2, 243744, Note_off_c, 0, 74, 0
2, 243744, Note_on_c, 0, 84, 73
2, 243824, Note_off_c, 0, 84, 0
2, 243840, Note_on_c, 0, 74, 69
2, 243936, Note_off_c, 0, 74, 0
2, 243936, Note_on_c, 0, 84, 73
2, 244016, Note_off_c, 0, 84, 0
2, 244032, Note_on_c, 0, 74, 69
2, 244128, Note_off_c, 0, 74, 0
2, 244128, Note_on_c, 0, 84, 73
2, 244208, Note_off_c, 0, 84, 0
2, 244224, Note_on_c, 0, 62, 69
2, 244416, Note_off_c, 0, 62, 0
2, 244416, Note_on_c, 0, 66, 70
2, 244596, Note_off_c, 0, 66, 0
2, 244608, Note_on_c, 0, 69, 71
2, 244800, Note_off_c, 0, 69, 0
2, 244800, Note_on_c, 0, 74, 72
2, 244992, Note_off_c, 0, 74, 0
2, 244992, Note_on_c, 0, 78, 73
2, 245184, Note_off_c, 0, 78, 0
2, 245184, Note_on_c, 0, 81, 74
2, 245372, Note_off_c, 0, 81, 0
2, 245376, Note_on_c, 0, 84, 75
2, 245556, Note_off_c, 0, 84, 0
2, 245568, Note_on_c, 0, 72, 72
2, 245660, Note_off_c, 0, 72, 0
2, 245760, Note_on_c, 0, 74, 80
2, 245804, Note_off_c, 0, 74, 0
2, 245808, Note_on_c, 0, 72, 73
2, 245852, Note_off_c, 0, 72, 0
2, 245856, Note_on_c, 0, 74, 73
2, 245900, Note_off_c, 0, 74, 0
2, 245904, Note_on_c, 0, 72, 73
2, 245948, Note_off_c, 0, 72, 0
2, 245952, Note_on_c, 0, 74, 73
2, 245996, Note_off_c, 0, 74, 0
2, 246000, Note_on_c, 0, 72, 73
2, 246044, Note_off_c, 0, 72, 0
2, 246048, Note_on_c, 0, 74, 73
2, 246092, Note_off_c, 0, 74, 0
2, 246096, Note_on_c, 0, 72, 73
2, 246140, Note_off_c, 0, 72, 0
2, 246144, Note_on_c, 0, 74, 73
2, 246188, Note_off_c, 0, 74, 0
2, 246192, Note_on_c, 0, 72, 73
2, 246236, Note_off_c, 0, 72, 0
2, 246240, Note_on_c, 0, 74, 73
2, 246284, Note_off_c, 0, 74, 0
2, 246288, Note_on_c, 0, 72, 73
2, 246332, Note_off_c, 0, 72, 0
2, 246336, Note_on_c, 0, 71, 73
2, 246424, Note_off_c, 0, 71, 0
2, 246432, Note_on_c, 0, 72, 73
2, 246520, Note_off_c, 0, 72, 0
2, 246528, Note_on_c, 0, 71, 73
2, 246912, Note_off_c, 0, 71, 0
2, 247392, Note_on_c, 0, 83, 52
2, 247488, Note_off_c, 0, 83, 0
2, 247488, Note_on_c, 0, 82, 52
2, 247580, Note_off_c, 0, 82, 0
2, 247584, Note_on_c, 0, 83, 52
2, 247676, Note_off_c, 0, 83, 0
2, 247680, Note_on_c, 0, 84, 52
2, 247772, Note_off_c, 0, 84, 0
2, 247776, Note_on_c, 0, 83, 52
2, 247868, Note_off_c, 0, 83, 0
2, 247872, Note_on_c, 0, 82, 52
2, 247964, Note_off_c, 0, 82, 0
2, 247968, Note_on_c, 0, 83, 52
2, 248048, Note_off_c, 0, 83, 0
2, 248160, Note_on_c, 0, 81, 52
2, 248256, Note_off_c, 0, 81, 0
2, 248256, Note_on_c, 0, 80, 52
2, 248348, Note_off_c, 0, 80, 0
2, 248352, Note_on_c, 0, 81, 52
2, 248444, Note_off_c, 0, 81, 0
2, 248448, Note_on_c, 0, 83, 52
2, 248544, Note_off_c, 0, 83, 0
2, 248544, Note_on_c, 0, 81, 52
2, 248636, Note_off_c, 0, 81, 0
2, 248640, Note_on_c, 0, 80, 52
2, 248732, Note_off_c, 0, 80, 0
2, 248736, Note_on_c, 0, 81, 52
2, 248816, Note_off_c, 0, 81, 0
2, 248928, Note_on_c, 0, 80, 52
2, 249024, Note_off_c, 0, 80, 0
2, 249024, Note_on_c, 0, 78, 52
2, 249116, Note_off_c, 0, 78, 0
2, 249120, Note_on_c, 0, 80, 52
2, 249212, Note_off_c, 0, 80, 0
2, 249216, Note_on_c, 0, 81, 52
2, 249308, Note_off_c, 0, 81, 0
2, 249312, Note_on_c, 0, 80, 52
2, 249404, Note_off_c, 0, 80, 0
2, 249408, Note_on_c, 0, 78, 52
2, 249500, Note_off_c, 0, 78, 0
2, 249504, Note_on_c, 0, 80, 52
2, 249584, Note_off_c, 0, 80, 0
2, 249696, Note_on_c, 0, 79, 52
2, 249792, Note_off_c, 0, 79, 0
2, 249792, Note_on_c, 0, 78, 52
2, 249884, Note_off_c, 0, 78, 0
2, 249888, Note_on_c, 0, 79, 52
2, 249980, Note_off_c, 0, 79, 0
2, 249984, Note_on_c, 0, 81, 52
2, 250076, Note_off_c, 0, 81, 0
2, 250080, Note_on_c, 0, 79, 52
2, 250172, Note_off_c, 0, 79, 0
2, 250176, Note_on_c, 0, 78, 52
2, 250268, Note_off_c, 0, 78, 0
2, 250272, Note_on_c, 0, 79, 52
2, 250352, Note_off_c, 0, 79, 0
2, 250360, Control_c, 0, 1, 55
2, 250368, Note_on_c, 0, 78, 56
2, 250752, Note_off_c, 0, 78, 0
2, 250752, Note_on_c, 0, 77, 59
2, 251132, Note_off_c, 0, 77, 0
2, 251136, Note_on_c, 0, 76, 61
2, 251516, Note_off_c, 0, 76, 0
2, 251520, Note_on_c, 0, 74, 64
2, 251900, Note_off_c, 0, 74, 0
2, 251904, Note_on_c, 0, 73, 64
2, 252000, Note_off_c, 0, 73, 0
2, 252000, Note_on_c, 0, 76, 64
2, 252080, Note_off_c, 0, 76, 0
2, 252096, Note_on_c, 0, 74, 64
2, 252192, Note_off_c, 0, 74, 0
2, 252192, Note_on_c, 0, 73, 64
2, 252288, Note_off_c, 0, 73, 0
2, 252288, Note_on_c, 0, 73, 64
2, 252384, Note_off_c, 0, 73, 0
2, 252384, Note_on_c, 0, 76, 64
2, 252464, Note_off_c, 0, 76, 0
2, 252480, Note_on_c, 0, 78, 64
2, 252576, Note_off_c, 0, 78, 0
2, 252576, Note_on_c, 0, 80, 64
2, 252672, Note_off_c, 0, 80, 0
2, 252672, Note_on_c, 0, 81, 64
2, 252768, Note_off_c, 0, 81, 0
2, 252768, Note_on_c, 0, 83, 64
2, 252848, Note_off_c, 0, 83, 0
2, 252864, Note_on_c, 0, 81, 64
2, 252960, Note_off_c, 0, 81, 0
2, 252960, Note_on_c, 0, 83, 64
2, 253056, Note_off_c, 0, 83, 0
2, 253056, Note_on_c, 0, 81, 64
2, 253152, Note_off_c, 0, 81, 0
2, 253152, Note_on_c, 0, 79, 64
2, 253232, Note_off_c, 0, 79, 0
2, 253248, Note_on_c, 0, 78, 64
2, 253344, Note_off_c, 0, 78, 0
2, 253344, Note_on_c, 0, 76, 64
2, 253440, Note_off_c, 0, 76, 0
2, 253440, Note_on_c, 0, 74, 64
2, 253536, Note_off_c, 0, 74, 0
2, 253536, Note_on_c, 0, 69, 64
2, 253632, Note_off_c, 0, 69, 0
2, 253632, Note_on_c, 0, 66, 64
2, 253728, Note_off_c, 0, 66, 0
2, 253728, Note_on_c, 0, 62, 64
2, 253824, Note_off_c, 0, 62, 0
2, 253824, Note_on_c, 0, 66, 64
2, 253920, Note_off_c, 0, 66, 0
2, 253920, Note_on_c, 0, 69, 64
2, 254016, Note_off_c, 0, 69, 0
2, 254016, Note_on_c, 0, 74, 64
2, 254112, Note_off_c, 0, 74, 0
2, 254112, Note_on_c, 0, 78, 64
2, 254208, Note_off_c, 0, 78, 0
2, 254208, Note_on_c, 0, 76, 64
2, 254304, Note_off_c, 0, 76, 0
2, 254304, Note_on_c, 0, 73, 64
2, 254400, Note_off_c, 0, 73, 0
2, 254400, Note_on_c, 0, 69, 64
2, 254496, Note_off_c, 0, 69, 0
2, 254496, Note_on_c, 0, 64, 64
2, 254592, Note_off_c, 0, 64, 0
2, 254592, Note_on_c, 0, 69, 64
2, 254688, Note_off_c, 0, 69, 0
2, 254688, Note_on_c, 0, 73, 64
2, 254784, Note_off_c, 0, 73, 0
2, 254784, Note_on_c, 0, 76, 64
2, 254880, Note_off_c, 0, 76, 0
2, 254880, Note_on_c, 0, 79, 64
2, 254976, Note_off_c, 0, 79, 0
2, 254976, Note_on_c, 0, 78, 64
2, 255072, Note_off_c, 0, 78, 0
2, 255072, Note_on_c, 0, 74, 64
2, 255152, Note_off_c, 0, 74, 0
2, 255168, Note_on_c, 0, 86, 64
2, 255264, Note_off_c, 0, 86, 0
2, 255264, Note_on_c, 0, 85, 64
2, 255360, Note_off_c, 0, 85, 0
2, 255360, Note_on_c, 0, 88, 64
2, 255456, Note_off_c, 0, 88, 0
2, 255456, Note_on_c, 0, 86, 64
2, 255548, Note_off_c, 0, 86, 0
2, 255552, Note_on_c, 0, 85, 64
2, 255644, Note_off_c, 0, 85, 0
2, 255648, Note_on_c, 0, 83, 64
2, 255728, Note_off_c, 0, 83, 0
2, 255744, Note_on_c, 0, 80, 64
2, 255840, Note_off_c, 0, 80, 0
2, 255840, Note_on_c, 0, 81, 64
2, 255920, Note_off_c, 0, 81, 0
2, 255936, Note_on_c, 0, 83, 64
2, 256032, Note_off_c, 0, 83, 0
2, 256032, Note_on_c, 0, 81, 64
2, 256128, Note_off_c, 0, 81, 0
2, 256128, Note_on_c, 0, 81, 64
2, 256224, Note_off_c, 0, 81, 0
2, 256224, Note_on_c, 0, 79, 64
2, 256316, Note_off_c, 0, 79, 0
2, 256320, Note_on_c, 0, 78, 64
2, 256412, Note_off_c, 0, 78, 0
2, 256416, Note_on_c, 0, 76, 64
2, 256496, Note_off_c, 0, 76, 0
2, 256512, Note_on_c, 0, 74, 53
2, 256568, Note_off_c, 0, 74, 0
2, 256608, Note_on_c, 0, 69, 53
2, 256664, Note_off_c, 0, 69, 0
2, 256704, Note_on_c, 0, 66, 53
2, 256760, Note_off_c, 0, 66, 0
2, 256800, Note_on_c, 0, 62, 53
2, 256856, Note_off_c, 0, 62, 0
2, 256896, Note_on_c, 0, 66, 53
2, 256952, Note_off_c, 0, 66, 0
2, 256992, Note_on_c, 0, 69, 53
2, 257048, Note_off_c, 0, 69, 0
2, 257088, Note_on_c, 0, 74, 53
2, 257144, Note_off_c, 0, 74, 0
2, 257184, Note_on_c, 0, 78, 53
2, 257240, Note_off_c, 0, 78, 0
2, 257280, Note_on_c, 0, 76, 53
2, 257336, Note_off_c, 0, 76, 0
2, 257376, Note_on_c, 0, 73, 53
2, 257432, Note_off_c, 0, 73, 0
2, 257472, Note_on_c, 0, 69, 53
2, 257528, Note_off_c, 0, 69, 0
2, 257568, Note_on_c, 0, 64, 53
2, 257624, Note_off_c, 0, 64, 0
2, 257664, Note_on_c, 0, 69, 53
2, 257720, Note_off_c, 0, 69, 0
2, 257760, Note_on_c, 0, 73, 53
2, 257816, Note_off_c, 0, 73, 0
2, 257856, Note_on_c, 0, 76, 53
2, 257912, Note_off_c, 0, 76, 0
2, 257952, Note_on_c, 0, 79, 53
2, 258008, Note_off_c, 0, 79, 0
2, 258048, Note_on_c, 0, 78, 53
2, 258144, Note_off_c, 0, 78, 0
2, 258144, Note_on_c, 0, 81, 53
2, 258224, Note_off_c, 0, 81, 0
2, 258240, Note_on_c, 0, 73, 53
2, 258296, Note_off_c, 0, 73, 0
2, 258336, Note_on_c, 0, 76, 53
2, 258392, Note_off_c, 0, 76, 0
2, 258432, Note_on_c, 0, 74, 53
2, 258528, Note_off_c, 0, 74, 0
2, 258528, Note_on_c, 0, 78, 53
2, 258608, Note_off_c, 0, 78, 0
2, 258624, Note_on_c, 0, 70, 53
2, 258680, Note_off_c, 0, 70, 0
2, 258720, Note_on_c, 0, 73, 53
2, 258776, Note_off_c, 0, 73, 0
2, 258816, Note_on_c, 0, 71, 53
2, 258912, Note_off_c, 0, 71, 0
2, 258912, Note_on_c, 0, 74, 53
2, 258992, Note_off_c, 0, 74, 0
2, 259008, Note_on_c, 0, 66, 53
2, 259064, Note_off_c, 0, 66, 0
2, 259104, Note_on_c, 0, 69, 53
2, 259160, Note_off_c, 0, 69, 0
2, 259200, Note_on_c, 0, 67, 53
2, 259296, Note_off_c, 0, 67, 0
2, 259296, Note_on_c, 0, 71, 53
2, 259376, Note_off_c, 0, 71, 0
2, 259392, Note_on_c, 0, 64, 53
2, 259448, Note_off_c, 0, 64, 0
2, 259488, Note_on_c, 0, 67, 53
2, 259544, Note_off_c, 0, 67, 0
2, 259584, Note_on_c, 0, 66, 53
2, 259680, Note_off_c, 0, 66, 0
2, 259680, Note_on_c, 0, 62, 53
2, 259760, Note_off_c, 0, 62, 0
2, 259776, Note_on_c, 0, 66, 53
2, 259872, Note_off_c, 0, 66, 0
2, 259872, Note_on_c, 0, 69, 53
2, 259968, Note_off_c, 0, 69, 0
2, 259968, Note_on_c, 0, 74, 53
2, 260064, Note_off_c, 0, 74, 0
2, 260064, Note_on_c, 0, 66, 53
2, 260160, Note_off_c, 0, 66, 0
2, 260160, Note_on_c, 0, 69, 56
2, 260240, Note_on_c, 0, 74, 58
2, 260256, Note_off_c, 0, 69, 0
2, 260336, Note_off_c, 0, 74, 0
2, 260352, Note_on_c, 0, 78, 58
2, 260448, Note_off_c, 0, 78, 0
2, 260448, Note_on_c, 0, 69, 61
2, 260544, Note_off_c, 0, 69, 0
2, 260544, Note_on_c, 0, 74, 63
2, 260640, Note_off_c, 0, 74, 0
2, 260640, Note_on_c, 0, 78, 64
2, 260736, Note_off_c, 0, 78, 0
2, 260736, Note_on_c, 0, 81, 66
2, 260832, Note_off_c, 0, 81, 0
2, 260832, Note_on_c, 0, 74, 68
2, 260928, Note_off_c, 0, 74, 0
2, 260928, Note_on_c, 0, 78, 69
2, 261024, Note_off_c, 0, 78, 0
2, 261024, Note_on_c, 0, 81, 71
2, 261112, Control_c, 0, 1, 55
2, 261120, Note_off_c, 0, 81, 0
2, 261120, Note_on_c, 0, 84, 83
2, 261884, Note_off_c, 0, 84, 0
2, 261888, Note_on_c, 0, 60, 73
2, 261932, Note_off_c, 0, 60, 0
2, 261936, Note_on_c, 0, 62, 73
2, 261980, Note_off_c, 0, 62, 0
2, 261984, Note_on_c, 0, 60, 73
2, 262028, Note_off_c, 0, 60, 0
2, 262032, Note_on_c, 0, 62, 73
2, 262076, Note_off_c, 0, 62, 0
2, 262080, Note_on_c, 0, 60, 73
2, 262124, Note_off_c, 0, 60, 0
2, 262128, Note_on_c, 0, 62, 73
2, 262172, Note_off_c, 0, 62, 0
2, 262176, Note_on_c, 0, 60, 73
2, 262220, Note_off_c, 0, 60, 0
2, 262224, Note_on_c, 0, 62, 73
2, 262268, Note_off_c, 0, 62, 0
2, 262272, Note_on_c, 0, 60, 73
2, 262316, Note_off_c, 0, 60, 0
2, 262320, Note_on_c, 0, 62, 73
2, 262364, Note_off_c, 0, 62, 0
2, 262368, Note_on_c, 0, 60, 73
2, 262412, Note_off_c, 0, 60, 0
2, 262416, Note_on_c, 0, 62, 73
2, 262460, Note_off_c, 0, 62, 0
2, 262464, Note_on_c, 0, 59, 75
2, 262552, Note_off_c, 0, 59, 0
2, 262560, Note_on_c, 0, 60, 74
2, 262648, Note_off_c, 0, 60, 0
2, 262656, Note_on_c, 0, 59, 77
2, 262844, Note_off_c, 0, 59, 0
2, 263232, Note_on_c, 0, 82, 53
2, 263328, Note_off_c, 0, 82, 0
2, 263328, Note_on_c, 0, 83, 56
2, 263408, Note_off_c, 0, 83, 0
2, 263424, Note_on_c, 0, 81, 53
2, 263612, Note_off_c, 0, 81, 0
2, 264000, Note_on_c, 0, 80, 52
2, 264096, Note_off_c, 0, 80, 0
2, 264096, Note_on_c, 0, 81, 55
2, 264176, Note_off_c, 0, 81, 0
2, 264192, Note_on_c, 0, 79, 52
2, 264380, Note_off_c, 0, 79, 0
2, 264768, Note_on_c, 0, 78, 51
2, 264864, Note_off_c, 0, 78, 0
2, 264864, Note_on_c, 0, 79, 53
2, 264944, Note_off_c, 0, 79, 0
2, 264960, Note_on_c, 0, 78, 51
2, 265148, Note_off_c, 0, 78, 0
2, 265536, Note_on_c, 0, 77, 50
2, 265632, Note_off_c, 0, 77, 0
2, 265632, Note_on_c, 0, 78, 52
2, 265720, Note_off_c, 0, 78, 0
2, 265728, Note_on_c, 0, 76, 55
2, 265824, Note_off_c, 0, 76, 0
2, 265824, Note_on_c, 0, 78, 55
2, 265904, Note_off_c, 0, 78, 0
2, 265920, Note_on_c, 0, 79, 56
2, 266016, Note_off_c, 0, 79, 0
2, 266016, Note_on_c, 0, 79, 56
2, 266112, Note_off_c, 0, 79, 0
2, 266112, Note_on_c, 0, 79, 57
2, 266208, Note_off_c, 0, 79, 0
2, 266208, Note_on_c, 0, 81, 58
2, 266288, Note_off_c, 0, 81, 0
2, 266304, Note_on_c, 0, 83, 58
2, 266384, Note_on_c, 0, 83, 59
2, 266400, Note_off_c, 0, 83, 0
2, 266480, Note_off_c, 0, 83, 0
2, 266496, Note_on_c, 0, 83, 59
2, 266592, Note_off_c, 0, 83, 0
2, 266592, Note_on_c, 0, 85, 59
2, 266672, Note_off_c, 0, 85, 0
2, 266688, Note_on_c, 0, 86, 60
2, 266784, Note_off_c, 0, 86, 0
2, 266784, Note_on_c, 0, 86, 60
2, 266880, Note_off_c, 0, 86, 0
2, 266880, Note_on_c, 0, 86, 61
2, 266976, Note_off_c, 0, 86, 0
2, 266976, Note_on_c, 0, 88, 62
2, 267056, Note_off_c, 0, 88, 0
2, 267072, Note_on_c, 0, 89, 62
2, 267168, Note_off_c, 0, 89, 0
2, 267168, Note_on_c, 0, 89, 63
2, 267264, Note_off_c, 0, 89, 0
2, 267264, Note_on_c, 0, 90, 64
2, 267360, Note_off_c, 0, 90, 0
2, 267360, Note_on_c, 0, 88, 64
2, 267440, Note_off_c, 0, 88, 0
2, 267456, Note_on_c, 0, 86, 66
2, 267552, Note_off_c, 0, 86, 0
2, 267552, Note_on_c, 0, 86, 66
2, 267648, Note_off_c, 0, 86, 0
2, 267648, Note_on_c, 0, 86, 67
2, 267744, Note_off_c, 0, 86, 0
2, 267744, Note_on_c, 0, 85, 68
2, 267824, Note_off_c, 0, 85, 0
2, 267840, Note_on_c, 0, 83, 68
2, 267936, Note_off_c, 0, 83, 0
2, 267936, Note_on_c, 0, 83, 69
2, 268032, Note_off_c, 0, 83, 0
2, 268032, Note_on_c, 0, 83, 69
2, 268128, Note_off_c, 0, 83, 0
2, 268128, Note_on_c, 0, 81, 69
2, 268208, Note_off_c, 0, 81, 0
2, 268224, Note_on_c, 0, 80, 70
2, 268320, Note_off_c, 0, 80, 0
2, 268320, Note_on_c, 0, 80, 70
2, 268416, Note_off_c, 0, 80, 0
2, 268416, Note_on_c, 0, 80, 71
2, 268512, Note_off_c, 0, 80, 0
2, 268512, Note_on_c, 0, 78, 72
2, 268592, Note_off_c, 0, 78, 0
2, 268608, Note_on_c, 0, 76, 72
2, 268704, Note_off_c, 0, 76, 0
2, 268704, Note_on_c, 0, 76, 73
2, 268800, Note_off_c, 0, 76, 0
2, 268800, Note_on_c, 0, 78, 73
2, 269088, Note_off_c, 0, 78, 0
2, 269088, Note_on_c, 0, 74, 73
2, 269172, Note_off_c, 0, 74, 0
2, 269184, Note_on_c, 0, 79, 73
2, 269472, Note_off_c, 0, 79, 0
2, 269472, Note_on_c, 0, 76, 73
2, 269556, Note_off_c, 0, 76, 0
2, 269568, Note_on_c, 0, 78, 73
2, 269664, Note_off_c, 0, 78, 0
2, 269664, Note_on_c, 0, 74, 73
2, 269756, Note_off_c, 0, 74, 0
2, 269760, Note_on_c, 0, 79, 73
2, 269852, Note_off_c, 0, 79, 0
2, 269856, Note_on_c, 0, 76, 73
2, 269948, Note_off_c, 0, 76, 0
2, 269952, Note_on_c, 0, 78, 73
2, 270044, Note_off_c, 0, 78, 0
2, 270048, Note_on_c, 0, 74, 73
2, 270140, Note_off_c, 0, 74, 0
2, 270144, Note_on_c, 0, 79, 73
2, 270236, Note_off_c, 0, 79, 0
2, 270240, Note_on_c, 0, 76, 73
2, 270320, Note_off_c, 0, 76, 0
2, 270336, Note_on_c, 0, 78, 73
2, 270432, Note_off_c, 0, 78, 0
2, 270432, Note_on_c, 0, 74, 73
2, 270524, Note_off_c, 0, 74, 0
2, 270528, Note_on_c, 0, 79, 73
2, 270620, Note_off_c, 0, 79, 0
2, 270624, Note_on_c, 0, 76, 73
2, 270716, Note_off_c, 0, 76, 0
2, 270720, Note_on_c, 0, 81, 73
2, 270812, Note_off_c, 0, 81, 0
2, 270816, Note_on_c, 0, 78, 73
2, 270908, Note_off_c, 0, 78, 0
2, 270912, Note_on_c, 0, 83, 73
2, 271004, Note_off_c, 0, 83, 0
2, 271008, Note_on_c, 0, 79, 73
2, 271088, Note_off_c, 0, 79, 0
2, 271104, Note_on_c, 0, 76, 77
2, 271148, Note_off_c, 0, 76, 0
2, 271152, Note_on_c, 0, 78, 73
2, 271196, Note_off_c, 0, 78, 0
2, 271200, Note_on_c, 0, 76, 73
2, 271244, Note_off_c, 0, 76, 0
2, 271248, Note_on_c, 0, 78, 73
2, 271292, Note_off_c, 0, 78, 0
2, 271296, Note_on_c, 0, 76, 73
2, 271340, Note_off_c, 0, 76, 0
2, 271344, Note_on_c, 0, 78, 73
2, 271388, Note_off_c, 0, 78, 0
2, 271392, Note_on_c, 0, 76, 73
2, 271436, Note_off_c, 0, 76, 0
2, 271440, Note_on_c, 0, 78, 73
2, 271484, Note_off_c, 0, 78, 0
2, 271488, Note_on_c, 0, 76, 73
2, 271532, Note_off_c, 0, 76, 0
2, 271536, Note_on_c, 0, 78, 73
2, 271580, Note_off_c, 0, 78, 0
2, 271584, Note_on_c, 0, 76, 73
2, 271628, Note_off_c, 0, 76, 0
2, 271632, Note_on_c, 0, 78, 73
2, 271676, Note_off_c, 0, 78, 0
2, 271680, Note_on_c, 0, 74, 73
2, 271768, Note_off_c, 0, 74, 0
2, 271776, Note_on_c, 0, 76, 73
2, 271864, Note_off_c, 0, 76, 0
2, 271864, Control_c, 0, 1, 55
2, 271872, Note_on_c, 0, 74, 73
2, 272256, Note_off_c, 0, 74, 0
2, 277440, Note_on_c, 0, 69, 56
2, 277632, Note_off_c, 0, 69, 0
2, 277632, Note_on_c, 0, 68, 56
2, 277820, Note_off_c, 0, 68, 0
2, 277824, Note_on_c, 0, 69, 56
2, 278012, Note_off_c, 0, 69, 0
2, 278016, Note_on_c, 0, 71, 56
2, 278204, Note_off_c, 0, 71, 0
2, 278208, Note_on_c, 0, 69, 56
2, 278396, Note_off_c, 0, 69, 0
2, 278400, Note_on_c, 0, 68, 56
2, 278588, Note_off_c, 0, 68, 0
2, 278592, Note_on_c, 0, 69, 56
2, 278772, Note_off_c, 0, 69, 0
2, 278784, Note_on_c, 0, 67, 56
2, 278976, Note_off_c, 0, 67, 0
2, 278976, Note_on_c, 0, 66, 55
2, 279164, Note_off_c, 0, 66, 0
2, 279168, Note_on_c, 0, 64, 53
2, 279356, Note_off_c, 0, 64, 0
2, 279360, Note_on_c, 0, 62, 52
2, 279540, Note_off_c, 0, 62, 0
2, 279552, Note_on_c, 0, 61, 75
2, 279740, Note_off_c, 0, 61, 0
2, 279744, Note_on_c, 0, 64, 74
2, 279932, Note_off_c, 0, 64, 0
2, 279936, Note_on_c, 0, 67, 73
2, 280124, Note_off_c, 0, 67, 0
2, 280512, Note_on_c, 0, 66, 73
2, 280604, Note_off_c, 0, 66, 0
2, 280608, Note_on_c, 0, 67, 73
2, 280700, Note_off_c, 0, 67, 0
2, 280704, Note_on_c, 0, 69, 73
2, 280800, Note_off_c, 0, 69, 0
2, 280800, Note_on_c, 0, 67, 73
2, 280892, Note_off_c, 0, 67, 0
2, 280896, Note_on_c, 0, 66, 73
2, 280988, Note_off_c, 0, 66, 0
2, 280992, Note_on_c, 0, 64, 73
2, 281072, Note_off_c, 0, 64, 0
2, 281088, Note_on_c, 0, 62, 73
2, 281280, Note_off_c, 0, 62, 0
2, 281280, Note_on_c, 0, 63, 75
2, 281468, Note_off_c, 0, 63, 0
2, 281472, Note_on_c, 0, 64, 78
2, 281660, Note_off_c, 0, 64, 0
2, 281664, Note_on_c, 0, 65, 79
2, 281852, Note_off_c, 0, 65, 0
2, 281856, Note_on_c, 0, 66, 79
2, 282036, Note_off_c, 0, 66, 0
2, 282048, Note_on_c, 0, 62, 78
2, 282240, Note_off_c, 0, 62, 0
2, 282240, Note_on_c, 0, 67, 75
2, 282428, Note_off_c, 0, 67, 0
2, 282432, Note_on_c, 0, 66, 73
2, 282612, Note_off_c, 0, 66, 0
2, 282624, Note_on_c, 0, 66, 57
2, 283392, Note_off_c, 0, 66, 0
2, 283392, Note_on_c, 0, 64, 53
2, 283576, Note_off_c, 0, 64, 0
2, 283584, Note_on_c, 0, 69, 53
2, 283776, Note_off_c, 0, 69, 0
2, 283776, Note_on_c, 0, 68, 53
2, 283964, Note_off_c, 0, 68, 0
2, 283968, Note_on_c, 0, 69, 53
2, 284148, Note_off_c, 0, 69, 0
2, 284160, Note_on_c, 0, 70, 53
2, 284352, Note_off_c, 0, 70, 0
2, 284352, Note_on_c, 0, 69, 53
2, 284540, Note_off_c, 0, 69, 0
2, 284544, Note_on_c, 0, 68, 53
2, 284732, Note_off_c, 0, 68, 0
2, 284736, Note_on_c, 0, 69, 53
2, 284924, Note_off_c, 0, 69, 0
2, 284928, Note_on_c, 0, 67, 53
2, 285108, Note_off_c, 0, 67, 0
2, 285120, Note_on_c, 0, 65, 53
2, 285312, Note_off_c, 0, 65, 0
2, 285312, Note_on_c, 0, 64, 53
2, 285500, Note_off_c, 0, 64, 0
2, 285504, Note_on_c, 0, 62, 53
2, 285684, Note_off_c, 0, 62, 0
2, 285696, Note_on_c, 0, 61, 73
2, 285788, Note_off_c, 0, 61, 0
2, 285888, Note_on_c, 0, 64, 73
2, 285980, Note_off_c, 0, 64, 0
2, 286080, Note_on_c, 0, 67, 73
2, 286268, Note_off_c, 0, 67, 0
2, 286656, Note_on_c, 0, 81, 83
2, 286712, Note_off_c, 0, 81, 0
2, 286752, Note_on_c, 0, 79, 81
2, 286808, Note_off_c, 0, 79, 0
2, 286848, Note_on_c, 0, 77, 78
2, 286944, Note_off_c, 0, 77, 0
2, 286944, Note_on_c, 0, 76, 77
2, 287036, Note_off_c, 0, 76, 0
2, 287040, Note_on_c, 0, 74, 75
2, 287132, Note_off_c, 0, 74, 0
2, 287136, Note_on_c, 0, 73, 74
2, 287216, Note_off_c, 0, 73, 0
2, 287232, Note_on_c, 0, 74, 73
2, 287324, Note_off_c, 0, 74, 0
2, 287424, Note_on_c, 0, 86, 72
2, 287616, Note_off_c, 0, 86, 0
2, 287616, Note_on_c, 0, 85, 70
2, 287796, Note_off_c, 0, 85, 0
2, 287808, Note_on_c, 0, 84, 69
2, 288000, Note_off_c, 0, 84, 0
2, 288000, Note_on_c, 0, 83, 68
2, 288180, Note_off_c, 0, 83, 0
2, 288192, Note_on_c, 0, 82, 66
2, 288384, Note_off_c, 0, 82, 0
2, 288384, Note_on_c, 0, 81, 63
2, 288564, Note_off_c, 0, 81, 0
2, 288576, Note_on_c, 0, 80, 62
2, 288668, Note_off_c, 0, 80, 0
2, 288768, Note_on_c, 0, 80, 83
2, 289536, Note_off_c, 0, 80, 0
2, 289536, Note_on_c, 0, 81, 73
2, 289724, Note_off_c, 0, 81, 0
2, 289728, Note_on_c, 0, 76, 53
2, 289784, Note_off_c, 0, 76, 0
2, 289824, Note_on_c, 0, 81, 53
2, 289880, Note_off_c, 0, 81, 0
2, 289920, Note_on_c, 0, 78, 53
2, 289976, Note_off_c, 0, 78, 0
2, 290016, Note_on_c, 0, 81, 53
2, 290072, Note_off_c, 0, 81, 0
2, 290112, Note_on_c, 0, 79, 53
2, 290168, Note_off_c, 0, 79, 0
2, 290208, Note_on_c, 0, 81, 53
2, 290264, Note_off_c, 0, 81, 0
2, 290304, Note_on_c, 0, 78, 53
2, 290400, Note_off_c, 0, 78, 0
2, 290400, Note_on_c, 0, 81, 53
2, 290480, Note_off_c, 0, 81, 0
2, 290496, Note_on_c, 0, 86, 53
2, 290552, Note_off_c, 0, 86, 0
2, 290592, Note_on_c, 0, 81, 53
2, 290648, Note_off_c, 0, 81, 0
2, 290688, Note_on_c, 0, 85, 55
2, 290744, Note_off_c, 0, 85, 0
2, 290784, Note_on_c, 0, 81, 55
2, 290840, Note_off_c, 0, 81, 0
2, 290880, Note_on_c, 0, 86, 56
2, 290936, Note_off_c, 0, 86, 0
2, 290976, Note_on_c, 0, 81, 57
2, 291032, Note_off_c, 0, 81, 0
2, 291072, Note_on_c, 0, 88, 58
2, 291168, Note_off_c, 0, 88, 0
2, 291168, Note_on_c, 0, 81, 59
2, 291248, Note_off_c, 0, 81, 0
2, 291264, Note_on_c, 0, 76, 59
2, 291320, Note_off_c, 0, 76, 0
2, 291360, Note_on_c, 0, 81, 60
2, 291416, Note_off_c, 0, 81, 0
2, 291456, Note_on_c, 0, 78, 61
2, 291512, Note_off_c, 0, 78, 0
2, 291552, Note_on_c, 0, 81, 62
2, 291608, Note_off_c, 0, 81, 0
2, 291648, Note_on_c, 0, 79, 63
2, 291704, Note_off_c, 0, 79, 0
2, 291744, Note_on_c, 0, 81, 64
2, 291800, Note_off_c, 0, 81, 0
2, 291840, Note_on_c, 0, 78, 66
2, 291936, Note_off_c, 0, 78, 0
2, 291936, Note_on_c, 0, 81, 67
2, 292016, Note_off_c, 0, 81, 0
2, 292032, Note_on_c, 0, 86, 69
2, 292088, Note_off_c, 0, 86, 0
2, 292128, Note_on_c, 0, 81, 69
2, 292184, Note_off_c, 0, 81, 0
2, 292224, Note_on_c, 0, 85, 71
2, 292280, Note_off_c, 0, 85, 0
2, 292320, Note_on_c, 0, 81, 70
2, 292376, Note_off_c, 0, 81, 0
2, 292416, Note_on_c, 0, 86, 73
2, 292472, Note_off_c, 0, 86, 0
2, 292512, Note_on_c, 0, 81, 72
2, 292568, Note_off_c, 0, 81, 0
2, 292608, Note_on_c, 0, 88, 79
2, 292796, Note_off_c, 0, 88, 0
2, 292800, Note_on_c, 0, 69, 53
2, 292896, Note_off_c, 0, 69, 0
2, 292992, Note_on_c, 0, 69, 53
2, 293084, Note_off_c, 0, 69, 0
2, 293184, Note_on_c, 0, 69, 53
2, 293264, Note_off_c, 0, 69, 0
2, 293368, Control_c, 0, 1, 55
2, 293376, Note_on_c, 0, 74, 53
2, 293760, Note_off_c, 0, 74, 0
2, 293760, Note_on_c, 0, 69, 49
2, 293940, Note_off_c, 0, 69, 0
2, 295872, Note_on_c, 0, 81, 61
2, 295968, Note_off_c, 0, 81, 0
2, 296064, Note_on_c, 0, 81, 66
2, 296156, Note_off_c, 0, 81, 0
2, 296256, Note_on_c, 0, 81, 69
2, 296336, Note_off_c, 0, 81, 0
2, 296448, Note_on_c, 0, 86, 73
2, 296640, Note_off_c, 0, 86, 0
2, 296640, Note_on_c, 0, 85, 73
2, 296820, Note_off_c, 0, 85, 0
2, 296832, Note_on_c, 0, 83, 73
2, 296880, Note_off_c, 0, 83, 0
2, 296880, Note_on_c, 0, 85, 73
2, 296924, Note_off_c, 0, 85, 0
2, 296928, Note_on_c, 0, 83, 73
2, 296972, Note_off_c, 0, 83, 0
2, 296976, Note_on_c, 0, 85, 73
2, 297020, Note_off_c, 0, 85, 0
2, 297024, Note_on_c, 0, 81, 73
2, 297204, Note_off_c, 0, 81, 0
2, 297216, Note_on_c, 0, 79, 73
2, 297264, Note_off_c, 0, 79, 0
2, 297264, Note_on_c, 0, 81, 73
2, 297308, Note_off_c, 0, 81, 0
2, 297312, Note_on_c, 0, 79, 73
2, 297356, Note_off_c, 0, 79, 0
2, 297360, Note_on_c, 0, 81, 73
2, 297404, Note_off_c, 0, 81, 0
2, 297408, Note_on_c, 0, 78, 73
2, 297588, Note_off_c, 0, 78, 0
2, 297600, Note_on_c, 0, 76, 73
2, 297648, Note_off_c, 0, 76, 0
2, 297648, Note_on_c, 0, 78, 73
2, 297692, Note_off_c, 0, 78, 0
2, 297696, Note_on_c, 0, 76, 73
2, 297740, Note_off_c, 0, 76, 0
2, 297744, Note_on_c, 0, 78, 73
2, 297788, Note_off_c, 0, 78, 0
2, 297792, Note_on_c, 0, 74, 73
2, 297972, Note_off_c, 0, 74, 0
2, 297984, Note_on_c, 0, 83, 73
2, 298176, Note_off_c, 0, 83, 0
2, 298176, Note_on_c, 0, 81, 73
2, 298356, Note_off_c, 0, 81, 0
2, 298368, Note_on_c, 0, 81, 73
2, 298936, Note_off_c, 0, 81, 0
2, 298944, Note_on_c, 0, 81, 73
2, 299136, Note_off_c, 0, 81, 0
2, 299136, Note_on_c, 0, 83, 73
2, 299324, Note_off_c, 0, 83, 0
2, 299328, Note_on_c, 0, 84, 73
2, 299508, Note_off_c, 0, 84, 0
2, 299520, Note_on_c, 0, 82, 73
2, 299712, Note_off_c, 0, 82, 0
2, 299712, Note_on_c, 0, 83, 73
2, 299888, Note_on_c, 0, 83, 73
2, 299892, Note_off_c, 0, 83, 0
2, 300456, Note_off_c, 0, 83, 0
2, 300480, Note_on_c, 0, 85, 73
2, 300576, Note_off_c, 0, 85, 0
2, 300576, Note_on_c, 0, 86, 73
2, 300672, Note_off_c, 0, 86, 0
2, 300672, Note_on_c, 0, 85, 73
2, 300768, Note_off_c, 0, 85, 0
2, 300768, Note_on_c, 0, 83, 73
2, 300860, Note_off_c, 0, 83, 0
2, 300864, Note_on_c, 0, 81, 73
2, 300956, Note_off_c, 0, 81, 0
2, 300960, Note_on_c, 0, 79, 73
2, 301040, Note_off_c, 0, 79, 0
2, 301056, Note_on_c, 0, 78, 73
2, 301152, Note_off_c, 0, 78, 0
2, 301152, Note_on_c, 0, 74, 73
2, 301232, Note_off_c, 0, 74, 0
2, 301248, Note_on_c, 0, 79, 73
2, 301344, Note_off_c, 0, 79, 0
2, 301344, Note_on_c, 0, 76, 73
2, 301440, Note_off_c, 0, 76, 0
2, 301440, Note_on_c, 0, 78, 73
2, 301536, Note_off_c, 0, 78, 0
2, 301536, Note_on_c, 0, 74, 73
2, 301616, Note_off_c, 0, 74, 0
2, 301632, Note_on_c, 0, 79, 73
2, 301728, Note_off_c, 0, 79, 0
2, 301728, Note_on_c, 0, 76, 73
2, 301824, Note_off_c, 0, 76, 0
2, 301824, Note_on_c, 0, 76, 79
2, 301868, Note_off_c, 0, 76, 0
2, 301872, Note_on_c, 0, 78, 73
2, 301916, Note_off_c, 0, 78, 0
2, 301920, Note_on_c, 0, 76, 73
2, 301964, Note_off_c, 0, 76, 0
2, 301968, Note_on_c, 0, 78, 73
2, 302012, Note_off_c, 0, 78, 0
2, 302016, Note_on_c, 0, 76, 73
2, 302060, Note_off_c, 0, 76, 0
2, 302064, Note_on_c, 0, 78, 73
2, 302108, Note_off_c, 0, 78, 0
2, 302112, Note_on_c, 0, 76, 73
2, 302156, Note_off_c, 0, 76, 0
2, 302160, Note_on_c, 0, 78, 73
2, 302204, Note_off_c, 0, 78, 0
2, 302208, Note_on_c, 0, 76, 73
2, 302252, Note_off_c, 0, 76, 0
2, 302256, Note_on_c, 0, 78, 73
2, 302300, Note_off_c, 0, 78, 0
2, 302304, Note_on_c, 0, 76, 73
2, 302348, Note_off_c, 0, 76, 0
2, 302352, Note_on_c, 0, 78, 73
2, 302396, Note_off_c, 0, 78, 0
2, 302400, Note_on_c, 0, 74, 75
2, 302488, Note_off_c, 0, 74, 0
2, 302496, Note_on_c, 0, 76, 75
2, 302584, Note_off_c, 0, 76, 0
2, 302592, Note_on_c, 0, 74, 73
2, 302684, Note_off_c, 0, 74, 0
2, 302784, Note_on_c, 0, 81, 59
2, 302880, Note_off_c, 0, 81, 0
2, 302880, Note_on_c, 0, 78, 53
2, 302960, Note_off_c, 0, 78, 0
2, 303168, Note_on_c, 0, 78, 59
2, 303264, Note_off_c, 0, 78, 0
2, 303264, Note_on_c, 0, 74, 53
2, 303344, Note_off_c, 0, 74, 0
2, 303552, Note_on_c, 0, 74, 59
2, 303648, Note_off_c, 0, 74, 0
2, 303648, Note_on_c, 0, 69, 53
2, 303728, Note_off_c, 0, 69, 0
2, 303936, Note_on_c, 0, 69, 59
2, 304032, Note_off_c, 0, 69, 0
2, 304032, Note_on_c, 0, 66, 53
2, 304112, Note_off_c, 0, 66, 0
2, 304320, Note_on_c, 0, 71, 53
2, 304416, Note_off_c, 0, 71, 0
2, 304416, Note_on_c, 0, 74, 59
2, 304496, Note_off_c, 0, 74, 0
2, 304704, Note_on_c, 0, 74, 53
2, 304800, Note_off_c, 0, 74, 0
2, 304800, Note_on_c, 0, 79, 59
2, 304880, Note_off_c, 0, 79, 0
2, 305088, Note_on_c, 0, 79, 55
2, 305184, Note_off_c, 0, 79, 0
2, 305184, Note_on_c, 0, 83, 59
2, 305264, Note_off_c, 0, 83, 0
2, 305472, Note_on_c, 0, 83, 53
2, 305568, Note_off_c, 0, 83, 0
2, 305568, Note_on_c, 0, 86, 59
2, 305648, Note_off_c, 0, 86, 0
2, 305664, Note_on_c, 0, 69, 73
2, 306432, Note_off_c, 0, 69, 0
2, 306432, Note_on_c, 0, 76, 57
2, 306476, Note_off_c, 0, 76, 0
2, 306480, Note_on_c, 0, 78, 49
2, 306524, Note_off_c, 0, 78, 0
2, 306528, Note_on_c, 0, 76, 50
2, 306572, Note_off_c, 0, 76, 0
2, 306576, Note_on_c, 0, 78, 51
2, 306620, Note_off_c, 0, 78, 0
2, 306624, Note_on_c, 0, 76, 53
2, 306668, Note_off_c, 0, 76, 0
2, 306672, Note_on_c, 0, 78, 56
2, 306716, Note_off_c, 0, 78, 0
2, 306720, Note_on_c, 0, 76, 58
2, 306764, Note_off_c, 0, 76, 0
2, 306768, Note_on_c, 0, 78, 59
2, 306812, Note_off_c, 0, 78, 0
2, 306816, Note_on_c, 0, 76, 61
2, 306860, Note_off_c, 0, 76, 0
2, 306864, Note_on_c, 0, 78, 63
2, 306908, Note_off_c, 0, 78, 0
2, 306912, Note_on_c, 0, 76, 66
2, 306956, Note_off_c, 0, 76, 0
2, 306960, Note_on_c, 0, 78, 68
2, 307004, Note_off_c, 0, 78, 0
2, 307008, Note_on_c, 0, 74, 69
2, 307100, Note_off_c, 0, 74, 0
2, 307104, Note_on_c, 0, 76, 71
2, 307196, Note_off_c, 0, 76, 0
2, 307200, Note_on_c, 0, 78, 73
2, 307296, Note_off_c, 0, 78, 0
2, 307296, Note_on_c, 0, 74, 73
2, 307376, Note_off_c, 0, 74, 0
2, 307392, Note_on_c, 0, 81, 73
2, 307488, Note_off_c, 0, 81, 0
2, 307488, Note_on_c, 0, 81, 74
2, 307584, Note_off_c, 0, 81, 0
2, 307584, Note_on_c, 0, 81, 74
2, 307680, Note_off_c, 0, 81, 0
2, 307680, Note_on_c, 0, 78, 74
2, 307760, Note_off_c, 0, 78, 0
2, 307776, Note_on_c, 0, 86, 75
2, 307872, Note_off_c, 0, 86, 0
2, 307872, Note_on_c, 0, 86, 75
2, 307968, Note_off_c, 0, 86, 0
2, 307968, Note_on_c, 0, 86, 75
2, 308064, Note_off_c, 0, 86, 0
2, 308064, Note_on_c, 0, 81, 74
2, 308144, Note_off_c, 0, 81, 0
2, 308160, Note_on_c, 0, 78, 73
2, 308256, Note_off_c, 0, 78, 0
2, 308256, Note_on_c, 0, 74, 72
2, 308352, Note_off_c, 0, 74, 0
2, 308352, Note_on_c, 0, 81, 75
2, 308448, Note_off_c, 0, 81, 0
2, 308448, Note_on_c, 0, 78, 74
2, 308528, Note_off_c, 0, 78, 0
2, 308544, Note_on_c, 0, 74, 73
2, 308640, Note_off_c, 0, 74, 0
2, 308640, Note_on_c, 0, 69, 72
2, 308736, Note_off_c, 0, 69, 0
2, 308736, Note_on_c, 0, 71, 74
2, 308832, Note_off_c, 0, 71, 0
2, 308832, Note_on_c, 0, 67, 72
2, 308912, Note_off_c, 0, 67, 0
2, 308928, Note_on_c, 0, 74, 75
2, 309024, Note_off_c, 0, 74, 0
2, 309024, Note_on_c, 0, 71, 73
2, 309120, Note_off_c, 0, 71, 0
2, 309120, Note_on_c, 0, 79, 77
2, 309216, Note_off_c, 0, 79, 0
2, 309216, Note_on_c, 0, 74, 74
2, 309296, Note_off_c, 0, 74, 0
2, 309312, Note_on_c, 0, 83, 78
2, 309408, Note_off_c, 0, 83, 0
2, 309408, Note_on_c, 0, 79, 75
2, 309504, Note_off_c, 0, 79, 0
2, 309504, Note_on_c, 0, 86, 79
2, 309884, Note_off_c, 0, 86, 0
2, 309888, Note_on_c, 0, 56, 89
2, 310272, Note_off_c, 0, 56, 0
2, 310272, Note_on_c, 0, 57, 83
2, 310456, Note_off_c, 0, 57, 0
2, 310464, Note_on_c, 0, 59, 81
2, 310556, Note_off_c, 0, 59, 0
2, 310560, Note_on_c, 0, 61, 80
2, 310652, Note_off_c, 0, 61, 0
2, 310656, Note_on_c, 0, 62, 79
2, 310748, Note_off_c, 0, 62, 0
2, 310752, Note_on_c, 0, 64, 79
2, 310844, Note_off_c, 0, 64, 0
2, 310848, Note_on_c, 0, 66, 78
2, 310940, Note_off_c, 0, 66, 0
2, 310944, Note_on_c, 0, 67, 75
2, 311036, Note_off_c, 0, 67, 0
2, 311040, Note_on_c, 0, 69, 74
2, 311228, Note_off_c, 0, 69, 0
2, 311232, Note_on_c, 0, 71, 73
2, 311324, Note_off_c, 0, 71, 0
2, 311328, Note_on_c, 0, 73, 73
2, 311420, Note_off_c, 0, 73, 0
2, 311424, Note_on_c, 0, 74, 73
2, 311516, Note_off_c, 0, 74, 0
2, 311520, Note_on_c, 0, 76, 73
2, 311612, Note_off_c, 0, 76, 0
2, 311616, Note_on_c, 0, 78, 74
2, 311708, Note_off_c, 0, 78, 0
2, 311712, Note_on_c, 0, 79, 75
2, 311804, Note_off_c, 0, 79, 0
2, 311808, Note_on_c, 0, 83, 83
2, 311904, Note_off_c, 0, 83, 0
2, 311904, Note_on_c, 0, 81, 73
2, 311984, Note_off_c, 0, 81, 0
2, 312000, Note_on_c, 0, 79, 73
2, 312096, Note_off_c, 0, 79, 0
2, 312096, Note_on_c, 0, 78, 73
2, 312192, Note_off_c, 0, 78, 0
2, 312192, Note_on_c, 0, 79, 73
2, 312288, Note_off_c, 0, 79, 0
2, 312288, Note_on_c, 0, 81, 73
2, 312384, Note_off_c, 0, 81, 0
2, 312384, Note_on_c, 0, 83, 73
2, 312480, Note_off_c, 0, 83, 0
2, 312480, Note_on_c, 0, 85, 73
2, 312576, Note_off_c, 0, 85, 0
2, 312576, Note_on_c, 0, 86, 83
2, 312672, Note_off_c, 0, 86, 0
2, 312672, Note_on_c, 0, 85, 73
2, 312752, Note_off_c, 0, 85, 0
2, 312768, Note_on_c, 0, 83, 73
2, 312864, Note_off_c, 0, 83, 0
2, 312864, Note_on_c, 0, 81, 73
2, 312960, Note_off_c, 0, 81, 0
2, 312960, Note_on_c, 0, 83, 73
2, 313056, Note_off_c, 0, 83, 0
2, 313056, Note_on_c, 0, 85, 73
2, 313152, Note_off_c, 0, 85, 0
2, 313152, Note_on_c, 0, 86, 73
2, 313248, Note_off_c, 0, 86, 0
2, 313248, Note_on_c, 0, 88, 73
2, 313344, Note_off_c, 0, 88, 0
2, 313344, Note_on_c, 0, 90, 74
2, 313440, Note_off_c, 0, 90, 0
2, 313440, Note_on_c, 0, 88, 73
2, 313520, Note_off_c, 0, 88, 0
2, 313536, Note_on_c, 0, 86, 72
2, 313632, Note_off_c, 0, 86, 0
2, 313632, Note_on_c, 0, 85, 73
2, 313728, Note_off_c, 0, 85, 0
2, 313728, Note_on_c, 0, 86, 74
2, 313824, Note_off_c, 0, 86, 0
2, 313824, Note_on_c, 0, 88, 75
2, 313920, Note_off_c, 0, 88, 0
2, 313920, Note_on_c, 0, 90, 77
2, 314016, Note_off_c, 0, 90, 0
2, 314016, Note_on_c, 0, 91, 78
2, 314108, Note_off_c, 0, 91, 0
2, 314112, Note_on_c, 0, 93, 77
2, 314304, Note_off_c, 0, 93, 0
2, 314304, Note_on_c, 0, 93, 77
2, 314496, Note_off_c, 0, 93, 0
2, 314496, Note_on_c, 0, 93, 77
2, 314688, Note_off_c, 0, 93, 0
2, 314688, Note_on_c, 0, 93, 77
2, 314868, Note_off_c, 0, 93, 0
2, 314880, Note_on_c, 0, 92, 77
2, 315072, Note_off_c, 0, 92, 0
2, 315072, Note_on_c, 0, 93, 78
2, 315252, Note_off_c, 0, 93, 0
2, 315264, Note_on_c, 0, 89, 75
2, 315456, Note_off_c, 0, 89, 0
2, 315456, Note_on_c, 0, 90, 77
2, 315636, Note_off_c, 0, 90, 0
2, 315648, Note_on_c, 0, 85, 74
2, 315840, Note_off_c, 0, 85, 0
2, 315840, Note_on_c, 0, 86, 75
2, 316020, Note_off_c, 0, 86, 0
2, 316032, Note_on_c, 0, 80, 73
2, 316224, Note_off_c, 0, 80, 0
2, 316224, Note_on_c, 0, 81, 74
2, 316404, Note_off_c, 0, 81, 0
2, 316416, Note_on_c, 0, 69, 73
2, 316796, Note_off_c, 0, 69, 0
2, 316800, Note_on_c, 0, 81, 83
2, 317372, Note_off_c, 0, 81, 0
2, 317376, Note_on_c, 0, 83, 74
2, 317468, Note_off_c, 0, 83, 0
2, 317472, Note_on_c, 0, 85, 75
2, 317564, Note_off_c, 0, 85, 0
2, 317568, Note_on_c, 0, 86, 77
2, 317660, Note_off_c, 0, 86, 0
2, 317664, Note_on_c, 0, 81, 75
2, 317756, Note_off_c, 0, 81, 0
2, 317760, Note_on_c, 0, 78, 74
2, 317852, Note_off_c, 0, 78, 0
2, 317856, Note_on_c, 0, 74, 73
2, 317948, Note_off_c, 0, 74, 0
2, 317952, Note_on_c, 0, 76, 78
2, 317996, Note_off_c, 0, 76, 0
2, 318000, Note_on_c, 0, 78, 73
2, 318044, Note_off_c, 0, 78, 0
2, 318048, Note_on_c, 0, 76, 73
2, 318092, Note_off_c, 0, 76, 0
2, 318096, Note_on_c, 0, 78, 73
2, 318140, Note_off_c, 0, 78, 0
2, 318144, Note_on_c, 0, 76, 73
2, 318188, Note_off_c, 0, 76, 0
2, 318192, Note_on_c, 0, 78, 73
2, 318236, Note_off_c, 0, 78, 0
2, 318240, Note_on_c, 0, 76, 73
2, 318284, Note_off_c, 0, 76, 0
2, 318288, Note_on_c, 0, 78, 73
2, 318332, Note_off_c, 0, 78, 0
2, 318336, Note_on_c, 0, 76, 73
2, 318380, Note_off_c, 0, 76, 0
2, 318384, Note_on_c, 0, 78, 73
2, 318428, Note_off_c, 0, 78, 0
2, 318432, Note_on_c, 0, 76, 73
2, 318476, Note_off_c, 0, 76, 0
2, 318480, Note_on_c, 0, 78, 73
2, 318524, Note_off_c, 0, 78, 0
2, 318528, Note_on_c, 0, 76, 73
2, 318572, Note_off_c, 0, 76, 0
2, 318576, Note_on_c, 0, 78, 73
2, 318620, Note_off_c, 0, 78, 0
2, 318624, Note_on_c, 0, 76, 73
2, 318668, Note_off_c, 0, 76, 0
2, 318672, Note_on_c, 0, 78, 73
2, 318716, Note_off_c, 0, 78, 0
2, 318720, Note_on_c, 0, 76, 73
2, 318764, Note_off_c, 0, 76, 0
2, 318768, Note_on_c, 0, 78, 73
2, 318812, Note_off_c, 0, 78, 0
2, 318816, Note_on_c, 0, 76, 73
2, 318860, Note_off_c, 0, 76, 0
2, 318864, Note_on_c, 0, 78, 73
2, 318908, Note_off_c, 0, 78, 0
2, 318912, Note_on_c, 0, 76, 73
2, 318956, Note_off_c, 0, 76, 0
2, 318960, Note_on_c, 0, 78, 73
2, 319004, Note_off_c, 0, 78, 0
2, 319008, Note_on_c, 0, 76, 73
2, 319052, Note_off_c, 0, 76, 0
2, 319056, Note_on_c, 0, 78, 73
2, 319100, Note_off_c, 0, 78, 0
2, 319104, Note_on_c, 0, 76, 73
2, 319148, Note_off_c, 0, 76, 0
2, 319152, Note_on_c, 0, 78, 73
2, 319196, Note_off_c, 0, 78, 0
2, 319200, Note_on_c, 0, 76, 73
2, 319244, Note_off_c, 0, 76, 0
2, 319248, Note_on_c, 0, 78, 73
2, 319292, Note_off_c, 0, 78, 0
2, 319296, Note_on_c, 0, 74, 75
2, 319384, Note_off_c, 0, 74, 0
2, 319392, Note_on_c, 0, 76, 75
2, 319480, Note_off_c, 0, 76, 0
2, 319488, Note_on_c, 0, 74, 75
2, 319872, Note_off_c, 0, 74, 0
2, 326776, Control_c, 0, 1, 55
2, 326784, Note_on_c, 0, 57, 63
2, 326972, Note_off_c, 0, 57, 0
2, 326976, Note_on_c, 0, 66, 63
2, 327164, Note_off_c, 0, 66, 0
2, 327168, Note_on_c, 0, 64, 63
2, 327356, Note_off_c, 0, 64, 0
2, 327360, Note_on_c, 0, 62, 63
2, 327548, Note_off_c, 0, 62, 0
2, 327552, Note_on_c, 0, 66, 63
2, 327552, Note_on_c, 0, 57, 63
2, 327740, Note_off_c, 0, 66, 0
2, 327740, Note_off_c, 0, 57, 0
2, 327744, Note_on_c, 0, 69, 63
2, 327744, Note_on_c, 0, 66, 63
2, 327932, Note_off_c, 0, 69, 0
2, 327932, Note_off_c, 0, 66, 0
2, 327936, Note_on_c, 0, 67, 63
2, 327936, Note_on_c, 0, 64, 63
2, 328124, Note_off_c, 0, 67, 0
2, 328124, Note_off_c, 0, 64, 0
2, 328128, Note_on_c, 0, 66, 63
2, 328128, Note_on_c, 0, 62, 63
2, 328316, Note_off_c, 0, 66, 0
2, 328316, Note_off_c, 0, 62, 0
2, 328320, Note_on_c, 0, 74, 63
2, 328320, Note_on_c, 0, 66, 63
2, 328508, Note_off_c, 0, 74, 0
2, 328508, Note_off_c, 0, 66, 0
2, 328512, Note_on_c, 0, 78, 63
2, 328512, Note_on_c, 0, 74, 63
2, 328700, Note_off_c, 0, 78, 0
2, 328700, Note_off_c, 0, 74, 0
2, 328704, Note_on_c, 0, 78, 63
2, 328704, Note_on_c, 0, 75, 63
2, 328892, Note_off_c, 0, 78, 0
2, 328892, Note_off_c, 0, 75, 0
2, 328896, Note_on_c, 0, 79, 63
2, 328896, Note_on_c, 0, 76, 63
2, 329076, Note_off_c, 0, 79, 0
2, 329076, Note_off_c, 0, 76, 0
2, 329088, Note_on_c, 0, 79, 63
2, 329088, Note_on_c, 0, 76, 63
2, 329660, Note_off_c, 0, 79, 0
2, 329660, Note_off_c, 0, 76, 0
2, 329664, Note_on_c, 0, 78, 66
2, 329756, Note_off_c, 0, 78, 0
2, 329760, Note_on_c, 0, 79, 68
2, 329852, Note_off_c, 0, 79, 0
2, 329856, Note_on_c, 0, 81, 69
2, 329948, Note_off_c, 0, 81, 0
2, 329952, Note_on_c, 0, 79, 70
2, 330044, Note_off_c, 0, 79, 0
2, 330048, Note_on_c, 0, 78, 71
2, 330140, Note_off_c, 0, 78, 0
2, 330144, Note_on_c, 0, 76, 72
2, 330236, Note_off_c, 0, 76, 0
2, 330240, Note_on_c, 0, 74, 73
2, 330332, Note_off_c, 0, 74, 0
2, 330336, Note_on_c, 0, 73, 73
2, 330428, Note_off_c, 0, 73, 0
2, 330432, Note_on_c, 0, 76, 73
2, 330524, Note_off_c, 0, 76, 0
2, 330528, Note_on_c, 0, 74, 73
2, 330620, Note_off_c, 0, 74, 0
2, 330624, Note_on_c, 0, 78, 73
2, 330716, Note_off_c, 0, 78, 0
2, 330720, Note_on_c, 0, 76, 73
2, 330812, Note_off_c, 0, 76, 0
2, 330816, Note_on_c, 0, 74, 73
2, 330908, Note_off_c, 0, 74, 0
2, 330912, Note_on_c, 0, 73, 73
2, 331004, Note_off_c, 0, 73, 0
2, 331008, Note_on_c, 0, 71, 72
2, 331100, Note_off_c, 0, 71, 0
2, 331104, Note_on_c, 0, 69, 71
2, 331196, Note_off_c, 0, 69, 0
2, 331200, Note_on_c, 0, 73, 70
2, 331292, Note_off_c, 0, 73, 0
2, 331296, Note_on_c, 0, 71, 69
2, 331388, Note_off_c, 0, 71, 0
2, 331392, Note_on_c, 0, 74, 69
2, 331484, Note_off_c, 0, 74, 0
2, 331488, Note_on_c, 0, 73, 68
2, 331580, Note_off_c, 0, 73, 0
2, 331584, Note_on_c, 0, 71, 67
2, 331676, Note_off_c, 0, 71, 0
2, 331680, Note_on_c, 0, 69, 66
2, 331772, Note_off_c, 0, 69, 0
2, 331776, Note_on_c, 0, 62, 73
2, 331836, Note_off_c, 0, 62, 0
2, 331836, Note_on_c, 0, 67, 67
2, 331968, Note_on_c, 0, 66, 67
2, 331976, Note_off_c, 0, 67, 0
2, 332156, Note_off_c, 0, 66, 0
2, 332160, Note_on_c, 0, 65, 67
2, 332540, Note_off_c, 0, 65, 0
2, 332736, Note_on_c, 0, 69, 53
2, 332736, Note_on_c, 0, 65, 53
2, 332924, Note_off_c, 0, 69, 0
2, 332924, Note_off_c, 0, 65, 0
2, 332928, Note_on_c, 0, 72, 53
2, 332928, Note_on_c, 0, 69, 53
2, 333116, Note_off_c, 0, 72, 0
2, 333116, Note_off_c, 0, 69, 0
2, 333120, Note_on_c, 0, 77, 53
2, 333120, Note_on_c, 0, 72, 53
2, 333308, Note_off_c, 0, 77, 0
2, 333308, Note_off_c, 0, 72, 0
2, 333312, Note_on_c, 0, 77, 53
2, 333312, Note_on_c, 0, 72, 53
2, 333312, Note_on_c, 0, 67, 53
2, 333500, Note_off_c, 0, 77, 0
2, 333500, Note_off_c, 0, 72, 0
2, 333500, Note_off_c, 0, 67, 0
2, 333504, Note_on_c, 0, 76, 53
2, 333504, Note_on_c, 0, 72, 53
2, 333692, Note_off_c, 0, 76, 0
2, 333692, Note_off_c, 0, 72, 0
2, 333696, Note_on_c, 0, 76, 53
2, 333696, Note_on_c, 0, 72, 53
2, 334268, Note_off_c, 0, 76, 0
2, 334268, Note_off_c, 0, 72, 0
2, 334272, Note_on_c, 0, 72, 56
2, 334272, Note_on_c, 0, 70, 56
2, 334460, Note_off_c, 0, 72, 0
2, 334460, Note_off_c, 0, 70, 0
2, 334464, Note_on_c, 0, 76, 59
2, 334464, Note_on_c, 0, 72, 59
2, 334652, Note_off_c, 0, 76, 0
2, 334652, Note_off_c, 0, 72, 0
2, 334656, Note_on_c, 0, 79, 63
2, 334656, Note_on_c, 0, 70, 63
2, 334844, Note_off_c, 0, 79, 0
2, 334844, Note_off_c, 0, 70, 0
2, 334848, Note_on_c, 0, 79, 53
2, 334848, Note_on_c, 0, 69, 53
2, 335036, Note_off_c, 0, 79, 0
2, 335036, Note_off_c, 0, 69, 0
2, 335040, Note_on_c, 0, 77, 53
2, 335040, Note_on_c, 0, 69, 55
2, 335228, Note_off_c, 0, 77, 0
2, 335228, Note_off_c, 0, 69, 0
2, 335232, Note_on_c, 0, 77, 53
2, 335232, Note_on_c, 0, 69, 53
2, 335804, Note_off_c, 0, 77, 0
2, 335804, Note_off_c, 0, 69, 0
2, 335808, Note_on_c, 0, 77, 53
2, 335808, Note_on_c, 0, 69, 53
2, 335996, Note_off_c, 0, 77, 0
2, 335996, Note_off_c, 0, 69, 0
2, 336000, Note_on_c, 0, 81, 53
2, 336000, Note_on_c, 0, 74, 53
2, 336188, Note_off_c, 0, 81, 0
2, 336188, Note_off_c, 0, 74, 0
2, 336192, Note_on_c, 0, 86, 53
2, 336192, Note_on_c, 0, 77, 53
2, 336380, Note_off_c, 0, 86, 0
2, 336380, Note_off_c, 0, 77, 0
2, 336384, Note_on_c, 0, 89, 53
2, 336384, Note_on_c, 0, 77, 53
2, 336768, Note_off_c, 0, 89, 0
2, 336768, Note_off_c, 0, 77, 0
2, 336768, Note_on_c, 0, 86, 53
2, 336768, Note_on_c, 0, 77, 53
2, 337152, Note_off_c, 0, 86, 0
2, 337152, Note_off_c, 0, 77, 0
2, 337152, Note_on_c, 0, 82, 53
2, 337152, Note_on_c, 0, 74, 53
2, 337536, Note_off_c, 0, 82, 0
2, 337536, Note_off_c, 0, 74, 0
2, 337536, Note_on_c, 0, 80, 53
2, 337536, Note_on_c, 0, 70, 53
2, 337920, Note_off_c, 0, 80, 0
2, 337920, Note_off_c, 0, 70, 0
2, 337920, Note_on_c, 0, 80, 53
2, 337920, Note_on_c, 0, 70, 53
2, 338108, Note_off_c, 0, 80, 0
2, 338108, Note_off_c, 0, 70, 0
2, 338112, Note_on_c, 0, 81, 53
2, 338112, Note_on_c, 0, 69, 53
2, 338300, Note_off_c, 0, 81, 0
2, 338300, Note_off_c, 0, 69, 0
2, 338304, Note_on_c, 0, 81, 53
2, 338304, Note_on_c, 0, 69, 53
2, 338876, Note_off_c, 0, 81, 0
2, 338876, Note_off_c, 0, 69, 0
2, 338880, Note_on_c, 0, 88, 53
2, 339068, Note_off_c, 0, 88, 0
2, 339072, Note_on_c, 0, 93, 53
2, 339260, Note_off_c, 0, 93, 0
2, 339264, Note_on_c, 0, 91, 53
2, 339452, Note_off_c, 0, 91, 0
2, 339456, Note_on_c, 0, 89, 63
2, 339548, Note_off_c, 0, 89, 0
2, 339552, Note_on_c, 0, 86, 53
2, 339644, Note_off_c, 0, 86, 0
2, 339648, Note_on_c, 0, 84, 53
2, 339740, Note_off_c, 0, 84, 0
2, 339744, Note_on_c, 0, 82, 53
2, 339836, Note_off_c, 0, 82, 0
2, 339840, Note_on_c, 0, 86, 63
2, 339932, Note_off_c, 0, 86, 0
2, 339936, Note_on_c, 0, 82, 53
2, 340028, Note_off_c, 0, 82, 0
2, 340032, Note_on_c, 0, 79, 53
2, 340124, Note_off_c, 0, 79, 0
2, 340128, Note_on_c, 0, 77, 53
2, 340220, Note_off_c, 0, 77, 0
2, 340224, Note_on_c, 0, 82, 63
2, 340316, Note_off_c, 0, 82, 0
2, 340320, Note_on_c, 0, 77, 53
2, 340412, Note_off_c, 0, 77, 0
2, 340416, Note_on_c, 0, 75, 53
2, 340508, Note_off_c, 0, 75, 0
2, 340512, Note_on_c, 0, 74, 53
2, 340604, Note_off_c, 0, 74, 0
2, 340608, Note_on_c, 0, 73, 63
2, 340700, Note_off_c, 0, 73, 0
2, 340704, Note_on_c, 0, 74, 53
2, 340796, Note_off_c, 0, 74, 0
2, 340800, Note_on_c, 0, 76, 53
2, 340892, Note_off_c, 0, 76, 0
2, 340896, Note_on_c, 0, 77, 53
2, 340988, Note_off_c, 0, 77, 0
2, 340992, Note_on_c, 0, 82, 53
2, 341084, Note_off_c, 0, 82, 0
2, 341088, Note_on_c, 0, 77, 53
2, 341180, Note_off_c, 0, 77, 0
2, 341184, Note_on_c, 0, 75, 53
2, 341276, Note_off_c, 0, 75, 0
2, 341280, Note_on_c, 0, 74, 53
2, 341372, Note_off_c, 0, 74, 0
2, 341376, Note_on_c, 0, 77, 53
2, 341468, Note_off_c, 0, 77, 0
2, 341472, Note_on_c, 0, 74, 53
2, 341564, Note_off_c, 0, 74, 0
2, 341568, Note_on_c, 0, 72, 53
2, 341660, Note_off_c, 0, 72, 0
2, 341664, Note_on_c, 0, 70, 53
2, 341756, Note_off_c, 0, 70, 0
2, 341760, Note_on_c, 0, 74, 53
2, 341852, Note_off_c, 0, 74, 0
2, 341856, Note_on_c, 0, 70, 53
2, 341948, Note_off_c, 0, 70, 0
2, 341952, Note_on_c, 0, 68, 53
2, 342044, Note_off_c, 0, 68, 0
2, 342048, Note_on_c, 0, 65, 53
2, 342140, Note_off_c, 0, 65, 0
2, 342144, Note_on_c, 0, 62, 53
2, 342236, Note_off_c, 0, 62, 0
2, 342240, Note_on_c, 0, 63, 53
2, 342332, Note_off_c, 0, 63, 0
2, 342336, Note_on_c, 0, 64, 53
2, 342428, Note_off_c, 0, 64, 0
2, 342432, Note_on_c, 0, 65, 53
2, 342524, Note_off_c, 0, 65, 0
2, 342528, Note_on_c, 0, 70, 53
2, 342620, Note_off_c, 0, 70, 0
2, 342624, Note_on_c, 0, 55, 59
2, 342716, Note_off_c, 0, 55, 0
2, 342720, Note_on_c, 0, 58, 58
2, 342812, Note_off_c, 0, 58, 0
2, 342816, Note_on_c, 0, 63, 57
2, 342908, Note_off_c, 0, 63, 0
2, 342912, Note_on_c, 0, 67, 56
2, 343004, Note_off_c, 0, 67, 0
2, 343008, Note_on_c, 0, 70, 55
2, 343100, Note_off_c, 0, 70, 0
2, 343104, Note_on_c, 0, 75, 53
2, 343196, Note_off_c, 0, 75, 0
2, 343200, Note_on_c, 0, 79, 55
2, 343292, Note_off_c, 0, 79, 0
2, 343296, Note_on_c, 0, 82, 53
2, 343388, Note_off_c, 0, 82, 0
2, 343392, Note_on_c, 0, 75, 55
2, 343484, Note_off_c, 0, 75, 0
2, 343488, Note_on_c, 0, 79, 56
2, 343580, Note_off_c, 0, 79, 0
2, 343584, Note_on_c, 0, 82, 57
2, 343676, Note_off_c, 0, 82, 0
2, 343680, Note_on_c, 0, 87, 53
2, 343772, Note_off_c, 0, 87, 0
2, 343776, Note_on_c, 0, 79, 55
2, 343868, Note_off_c, 0, 79, 0
2, 343872, Note_on_c, 0, 82, 56
2, 343964, Note_off_c, 0, 82, 0
2, 343968, Note_on_c, 0, 87, 57
2, 344060, Note_off_c, 0, 87, 0
2, 344064, Note_on_c, 0, 91, 58
2, 344156, Note_off_c, 0, 91, 0
2, 344160, Note_on_c, 0, 82, 55
2, 344252, Note_off_c, 0, 82, 0
2, 344256, Note_on_c, 0, 87, 57
2, 344348, Note_off_c, 0, 87, 0
2, 344352, Note_on_c, 0, 91, 58
2, 344444, Note_off_c, 0, 91, 0
2, 344448, Note_on_c, 0, 82, 56
2, 344540, Note_off_c, 0, 82, 0
2, 344544, Note_on_c, 0, 75, 53
2, 344636, Note_off_c, 0, 75, 0
2, 344640, Note_on_c, 0, 79, 55
2, 344732, Note_off_c, 0, 79, 0
2, 344736, Note_on_c, 0, 82, 56
2, 344828, Note_off_c, 0, 82, 0
2, 344832, Note_on_c, 0, 99, 83
2, 345212, Note_off_c, 0, 99, 0
2, 345216, Note_on_c, 0, 58, 53
2, 345404, Note_off_c, 0, 58, 0
2, 345408, Note_on_c, 0, 67, 53
2, 345596, Note_off_c, 0, 67, 0
2, 345600, Note_on_c, 0, 65, 53
2, 345600, Note_on_c, 0, 55, 53
2, 345788, Note_off_c, 0, 65, 0
2, 345788, Note_off_c, 0, 55, 0
2, 345792, Note_on_c, 0, 63, 53
2, 345980, Note_off_c, 0, 63, 0
2, 345984, Note_on_c, 0, 58, 53
2, 346172, Note_off_c, 0, 58, 0
2, 346176, Note_on_c, 0, 70, 53
2, 346364, Note_off_c, 0, 70, 0
2, 346368, Note_on_c, 0, 68, 53
2, 346368, Note_on_c, 0, 65, 53
2, 346556, Note_off_c, 0, 68, 0
2, 346556, Note_off_c, 0, 65, 0
2, 346560, Note_on_c, 0, 67, 53
2, 346560, Note_on_c, 0, 64, 53
2, 346748, Note_off_c, 0, 67, 0
2, 346748, Note_off_c, 0, 64, 0
2, 346752, Note_on_c, 0, 60, 53
2, 346940, Note_off_c, 0, 60, 0
2, 346944, Note_on_c, 0, 72, 53
2, 346944, Note_on_c, 0, 68, 53
2, 347132, Note_off_c, 0, 72, 0
2, 347132, Note_off_c, 0, 68, 0
2, 347136, Note_on_c, 0, 70, 53
2, 347136, Note_on_c, 0, 67, 53
2, 347324, Note_off_c, 0, 70, 0
2, 347324, Note_off_c, 0, 67, 0
2, 347328, Note_on_c, 0, 69, 53
2, 347328, Note_on_c, 0, 66, 53
2, 347516, Note_off_c, 0, 69, 0
2, 347516, Note_off_c, 0, 66, 0
2, 347520, Note_on_c, 0, 62, 53
2, 347520, Note_on_c, 0, 57, 53
2, 347708, Note_off_c, 0, 62, 0
2, 347708, Note_off_c, 0, 57, 0
2, 347712, Note_on_c, 0, 75, 53
2, 347712, Note_on_c, 0, 72, 53
2, 347900, Note_off_c, 0, 75, 0
2, 347900, Note_off_c, 0, 72, 0
2, 347904, Note_on_c, 0, 75, 53
2, 347904, Note_on_c, 0, 72, 53
2, 348092, Note_off_c, 0, 75, 0
2, 348092, Note_off_c, 0, 72, 0
2, 348096, Note_on_c, 0, 74, 53
2, 348096, Note_on_c, 0, 70, 53
2, 348276, Note_off_c, 0, 74, 0
2, 348276, Note_off_c, 0, 70, 0
2, 348288, Note_on_c, 0, 74, 53
2, 348288, Note_on_c, 0, 70, 53
2, 348468, Note_off_c, 0, 74, 0
2, 348468, Note_off_c, 0, 70, 0
2, 348480, Note_on_c, 0, 72, 53
2, 348480, Note_on_c, 0, 69, 53
2, 348668, Note_off_c, 0, 72, 0
2, 348668, Note_off_c, 0, 69, 0
2, 348672, Note_on_c, 0, 70, 71
2, 348672, Note_on_c, 0, 62, 69
2, 348672, Note_on_c, 0, 55, 72
2, 348764, Note_off_c, 0, 70, 0
2, 348764, Note_off_c, 0, 62, 0
2, 348764, Note_off_c, 0, 55, 0
2, 348768, Note_on_c, 0, 74, 72
2, 348860, Note_off_c, 0, 74, 0
2, 348864, Note_on_c, 0, 79, 74
2, 348956, Note_off_c, 0, 79, 0
2, 348960, Note_on_c, 0, 74, 72
2, 349052, Note_off_c, 0, 74, 0
2, 349056, Note_on_c, 0, 82, 75
2, 349244, Note_off_c, 0, 82, 0
2, 349440, Note_on_c, 0, 70, 71
2, 349440, Note_on_c, 0, 65, 71
2, 349440, Note_on_c, 0, 55, 73
2, 349532, Note_off_c, 0, 70, 0
2, 349532, Note_off_c, 0, 65, 0
2, 349532, Note_off_c, 0, 55, 0
2, 349536, Note_on_c, 0, 73, 72
2, 349628, Note_off_c, 0, 73, 0
2, 349632, Note_on_c, 0, 78, 73
2, 349724, Note_off_c, 0, 78, 0
2, 349728, Note_on_c, 0, 73, 72
2, 349820, Note_off_c, 0, 73, 0
2, 349824, Note_on_c, 0, 82, 75
2, 350012, Note_off_c, 0, 82, 0
2, 350208, Note_on_c, 0, 60, 73
2, 350396, Note_off_c, 0, 60, 0
2, 350592, Note_on_c, 0, 82, 83
2, 350592, Note_on_c, 0, 72, 83
2, 350592, Note_on_c, 0, 64, 83
2, 350592, Note_on_c, 0, 60, 83
2, 350972, Note_off_c, 0, 82, 0
2, 350972, Note_off_c, 0, 72, 0
2, 350972, Note_off_c, 0, 64, 0
2, 350972, Note_off_c, 0, 60, 0
2, 351024, Note_on_c, 0, 82, 83
2, 351068, Note_off_c, 0, 82, 0
2, 351072, Note_on_c, 0, 81, 83
2, 351116, Note_off_c, 0, 81, 0
2, 351120, Note_on_c, 0, 79, 83
2, 351164, Note_off_c, 0, 79, 0
2, 351168, Note_on_c, 0, 77, 83
2, 351212, Note_off_c, 0, 77, 0
2, 351216, Note_on_c, 0, 76, 83
2, 351260, Note_off_c, 0, 76, 0
2, 351264, Note_on_c, 0, 74, 83
2, 351308, Note_off_c, 0, 74, 0
2, 351312, Note_on_c, 0, 72, 83
2, 351356, Note_off_c, 0, 72, 0
2, 351360, Note_on_c, 0, 70, 83
2, 351404, Note_off_c, 0, 70, 0
2, 351408, Note_on_c, 0, 69, 83
2, 351452, Note_off_c, 0, 69, 0
2, 351456, Note_on_c, 0, 67, 83
2, 351500, Note_off_c, 0, 67, 0
2, 351504, Note_on_c, 0, 65, 83
2, 351548, Note_off_c, 0, 65, 0
2, 351552, Note_on_c, 0, 64, 83
2, 351596, Note_off_c, 0, 64, 0
2, 351600, Note_on_c, 0, 62, 83
2, 351644, Note_off_c, 0, 62, 0
2, 351648, Note_on_c, 0, 61, 83
2, 351692, Note_off_c, 0, 61, 0
2, 351696, Note_on_c, 0, 58, 83
2, 351740, Note_off_c, 0, 58, 0
2, 351744, Note_on_c, 0, 81, 73
2, 351744, Note_on_c, 0, 72, 73
2, 351744, Note_on_c, 0, 65, 73
2, 351744, Note_on_c, 0, 57, 73
2, 352124, Note_off_c, 0, 81, 0
2, 352124, Note_off_c, 0, 72, 0
2, 352124, Note_off_c, 0, 65, 0
2, 352124, Note_off_c, 0, 57, 0
2, 352128, Note_on_c, 0, 81, 73
2, 352128, Note_on_c, 0, 72, 73
2, 352128, Note_on_c, 0, 65, 73
2, 352416, Note_off_c, 0, 81, 0
2, 352416, Note_off_c, 0, 72, 0
2, 352416, Note_off_c, 0, 65, 0
2, 352416, Note_on_c, 0, 81, 79
2, 352416, Note_on_c, 0, 72, 79
2, 352416, Note_on_c, 0, 65, 79
2, 352496, Note_off_c, 0, 81, 0
2, 352496, Note_off_c, 0, 72, 0
2, 352496, Note_off_c, 0, 65, 0
2, 352512, Note_on_c, 0, 81, 73
2, 352512, Note_on_c, 0, 72, 73
2, 352512, Note_on_c, 0, 65, 73
2, 352892, Note_off_c, 0, 81, 0
2, 352892, Note_off_c, 0, 72, 0
2, 352892, Note_off_c, 0, 65, 0
2, 352896, Note_on_c, 0, 81, 73
2, 352896, Note_on_c, 0, 72, 73
2, 352896, Note_on_c, 0, 65, 73
2, 353276, Note_off_c, 0, 81, 0
2, 353276, Note_off_c, 0, 72, 0
2, 353276, Note_off_c, 0, 65, 0
2, 353280, Note_on_c, 0, 81, 73
2, 353280, Note_on_c, 0, 72, 73
2, 353280, Note_on_c, 0, 65, 73
2, 353852, Note_off_c, 0, 81, 0
2, 353852, Note_off_c, 0, 72, 0
2, 353852, Note_off_c, 0, 65, 0
2, 353856, Note_on_c, 0, 77, 73
2, 353856, Note_on_c, 0, 84, 73
2, 354044, Note_off_c, 0, 77, 0
2, 354044, Note_off_c, 0, 84, 0
2, 354048, Note_on_c, 0, 81, 83
2, 354048, Note_on_c, 0, 89, 83
2, 354620, Note_off_c, 0, 81, 0
2, 354620, Note_off_c, 0, 89, 0
2, 354624, Note_on_c, 0, 84, 73
2, 354624, Note_on_c, 0, 77, 73
2, 354812, Note_off_c, 0, 84, 0
2, 354812, Note_off_c, 0, 77, 0
2, 354816, Note_on_c, 0, 81, 74
2, 354816, Note_on_c, 0, 72, 74
2, 355004, Note_off_c, 0, 81, 0
2, 355004, Note_off_c, 0, 72, 0
2, 355008, Note_on_c, 0, 84, 75
2, 355008, Note_on_c, 0, 77, 75
2, 355196, Note_off_c, 0, 84, 0
2, 355196, Note_off_c, 0, 77, 0
2, 355200, Note_on_c, 0, 89, 77
2, 355200, Note_on_c, 0, 81, 77
2, 355388, Note_off_c, 0, 89, 0
2, 355388, Note_off_c, 0, 81, 0
2, 355392, Note_on_c, 0, 84, 74
2, 355392, Note_on_c, 0, 77, 74
2, 355580, Note_off_c, 0, 84, 0
2, 355580, Note_off_c, 0, 77, 0
2, 355584, Note_on_c, 0, 81, 74
2, 355584, Note_on_c, 0, 72, 74
2, 355772, Note_off_c, 0, 81, 0
2, 355772, Note_off_c, 0, 72, 0
2, 355776, Note_on_c, 0, 84, 75
2, 355776, Note_on_c, 0, 77, 75
2, 355964, Note_off_c, 0, 84, 0
2, 355964, Note_off_c, 0, 77, 0
2, 355968, Note_on_c, 0, 89, 77
2, 355968, Note_on_c, 0, 81, 77
2, 356156, Note_off_c, 0, 89, 0
2, 356156, Note_off_c, 0, 81, 0
2, 356160, Note_on_c, 0, 84, 74
2, 356160, Note_on_c, 0, 77, 74
2, 356348, Note_off_c, 0, 84, 0
2, 356348, Note_off_c, 0, 77, 0
2, 356352, Note_on_c, 0, 81, 73
2, 356352, Note_on_c, 0, 72, 73
2, 356444, Note_off_c, 0, 81, 0
2, 356444, Note_off_c, 0, 72, 0
2, 356448, Note_on_c, 0, 84, 75
2, 356448, Note_on_c, 0, 77, 75
2, 356540, Note_off_c, 0, 84, 0
2, 356540, Note_off_c, 0, 77, 0
2, 356544, Note_on_c, 0, 81, 73
2, 356544, Note_on_c, 0, 72, 73
2, 356636, Note_off_c, 0, 81, 0
2, 356636, Note_off_c, 0, 72, 0
2, 356640, Note_on_c, 0, 84, 75
2, 356640, Note_on_c, 0, 77, 75
2, 356732, Note_off_c, 0, 84, 0
2, 356732, Note_off_c, 0, 77, 0
2, 356736, Note_on_c, 0, 77, 73
2, 356736, Note_on_c, 0, 69, 73
2, 356828, Note_off_c, 0, 77, 0
2, 356828, Note_off_c, 0, 69, 0
2, 356832, Note_on_c, 0, 81, 74
2, 356832, Note_on_c, 0, 72, 74
2, 356924, Note_off_c, 0, 81, 0
2, 356924, Note_off_c, 0, 72, 0
2, 356928, Note_on_c, 0, 77, 73
2, 356928, Note_on_c, 0, 69, 73
2, 357020, Note_off_c, 0, 77, 0
2, 357020, Note_off_c, 0, 69, 0
2, 357024, Note_on_c, 0, 81, 74
2, 357024, Note_on_c, 0, 72, 74
2, 357116, Note_off_c, 0, 81, 0
2, 357116, Note_off_c, 0, 72, 0
2, 357120, Note_on_c, 0, 72, 72
2, 357120, Note_on_c, 0, 65, 72
2, 357212, Note_off_c, 0, 72, 0
2, 357212, Note_off_c, 0, 65, 0
2, 357216, Note_on_c, 0, 77, 74
2, 357216, Note_on_c, 0, 69, 74
2, 357308, Note_off_c, 0, 77, 0
2, 357308, Note_off_c, 0, 69, 0
2, 357312, Note_on_c, 0, 72, 72
2, 357312, Note_on_c, 0, 65, 72
2, 357404, Note_off_c, 0, 72, 0
2, 357404, Note_off_c, 0, 65, 0
2, 357408, Note_on_c, 0, 77, 74
2, 357408, Note_on_c, 0, 69, 74
2, 357500, Note_off_c, 0, 77, 0
2, 357500, Note_off_c, 0, 69, 0
2, 357504, Note_on_c, 0, 69, 70
2, 357504, Note_on_c, 0, 60, 70
2, 357596, Note_off_c, 0, 69, 0
2, 357596, Note_off_c, 0, 60, 0
2, 357600, Note_on_c, 0, 72, 73
2, 357600, Note_on_c, 0, 65, 73
2, 357692, Note_off_c, 0, 72, 0
2, 357692, Note_off_c, 0, 65, 0
2, 357696, Note_on_c, 0, 69, 70
2, 357696, Note_on_c, 0, 60, 70
2, 357788, Note_off_c, 0, 69, 0
2, 357788, Note_off_c, 0, 60, 0
2, 357792, Note_on_c, 0, 72, 73
2, 357792, Note_on_c, 0, 65, 73
2, 357884, Note_off_c, 0, 72, 0
2, 357884, Note_off_c, 0, 65, 0
2, 357888, Note_on_c, 0, 81, 75
2, 357888, Note_on_c, 0, 72, 73
2, 357888, Note_on_c, 0, 63, 74
2, 358268, Note_off_c, 0, 81, 0
2, 358268, Note_off_c, 0, 72, 0
2, 358268, Note_off_c, 0, 63, 0
2, 358272, Note_on_c, 0, 81, 73
2, 358272, Note_on_c, 0, 72, 73
2, 358272, Note_on_c, 0, 63, 73
2, 358560, Note_off_c, 0, 81, 0
2, 358560, Note_off_c, 0, 72, 0
2, 358560, Note_off_c, 0, 63, 0
2, 358560, Note_on_c, 0, 81, 79
2, 358560, Note_on_c, 0, 72, 79
2, 358560, Note_on_c, 0, 63, 79
2, 358640, Note_off_c, 0, 81, 0
2, 358640, Note_off_c, 0, 72, 0
2, 358640, Note_off_c, 0, 63, 0
2, 358656, Note_on_c, 0, 81, 73
2, 358656, Note_on_c, 0, 72, 73
2, 358656, Note_on_c, 0, 63, 73
2, 359036, Note_off_c, 0, 81, 0
2, 359036, Note_off_c, 0, 72, 0
2, 359036, Note_off_c, 0, 63, 0
2, 359040, Note_on_c, 0, 81, 73
2, 359040, Note_on_c, 0, 72, 73
2, 359040, Note_on_c, 0, 63, 73
2, 359420, Note_off_c, 0, 81, 0
2, 359420, Note_off_c, 0, 72, 0
2, 359420, Note_off_c, 0, 63, 0
2, 359424, Note_on_c, 0, 81, 73
2, 359424, Note_on_c, 0, 72, 73
2, 359424, Note_on_c, 0, 63, 73
2, 359996, Note_off_c, 0, 81, 0
2, 359996, Note_off_c, 0, 72, 0
2, 359996, Note_off_c, 0, 63, 0
2, 360000, Note_on_c, 0, 84, 74
2, 360000, Note_on_c, 0, 77, 74
2, 360188, Note_off_c, 0, 84, 0
2, 360188, Note_off_c, 0, 77, 0
2, 360192, Note_on_c, 0, 89, 75
2, 360192, Note_on_c, 0, 81, 75
2, 360764, Note_off_c, 0, 89, 0
2, 360764, Note_off_c, 0, 81, 0
2, 360768, Note_on_c, 0, 84, 74
2, 360768, Note_on_c, 0, 77, 74
2, 360956, Note_off_c, 0, 84, 0
2, 360956, Note_off_c, 0, 77, 0
2, 360960, Note_on_c, 0, 81, 74
2, 360960, Note_on_c, 0, 72, 74
2, 361148, Note_off_c, 0, 81, 0
2, 361148, Note_off_c, 0, 72, 0
2, 361152, Note_on_c, 0, 84, 75
2, 361152, Note_on_c, 0, 77, 75
2, 361340, Note_off_c, 0, 84, 0
2, 361340, Note_off_c, 0, 77, 0
2, 361344, Note_on_c, 0, 89, 77
2, 361344, Note_on_c, 0, 81, 77
2, 361532, Note_off_c, 0, 89, 0
2, 361532, Note_off_c, 0, 81, 0
2, 361536, Note_on_c, 0, 84, 75
2, 361536, Note_on_c, 0, 77, 75
2, 361724, Note_off_c, 0, 84, 0
2, 361724, Note_off_c, 0, 77, 0
2, 361728, Note_on_c, 0, 81, 74
2, 361728, Note_on_c, 0, 72, 74
2, 361916, Note_off_c, 0, 81, 0
2, 361916, Note_off_c, 0, 72, 0
2, 361920, Note_on_c, 0, 84, 75
2, 361920, Note_on_c, 0, 77, 75
2, 362108, Note_off_c, 0, 84, 0
2, 362108, Note_off_c, 0, 77, 0
2, 362112, Note_on_c, 0, 89, 77
2, 362112, Note_on_c, 0, 81, 77
2, 362300, Note_off_c, 0, 89, 0
2, 362300, Note_off_c, 0, 81, 0
2, 362304, Note_on_c, 0, 84, 75
2, 362304, Note_on_c, 0, 77, 75
2, 362492, Note_off_c, 0, 84, 0
2, 362492, Note_off_c, 0, 77, 0
2, 362496, Note_on_c, 0, 81, 74
2, 362496, Note_on_c, 0, 72, 74
2, 362588, Note_off_c, 0, 81, 0
2, 362588, Note_off_c, 0, 72, 0
2, 362592, Note_on_c, 0, 84, 75
2, 362592, Note_on_c, 0, 77, 75
2, 362684, Note_off_c, 0, 84, 0
2, 362684, Note_off_c, 0, 77, 0
2, 362688, Note_on_c, 0, 81, 74
2, 362688, Note_on_c, 0, 72, 74
2, 362780, Note_off_c, 0, 81, 0
2, 362780, Note_off_c, 0, 72, 0
2, 362784, Note_on_c, 0, 84, 75
2, 362784, Note_on_c, 0, 77, 75
2, 362876, Note_off_c, 0, 84, 0
2, 362876, Note_off_c, 0, 77, 0
2, 362880, Note_on_c, 0, 77, 73
2, 362880, Note_on_c, 0, 69, 73
2, 362972, Note_off_c, 0, 77, 0
2, 362972, Note_off_c, 0, 69, 0
2, 362976, Note_on_c, 0, 81, 74
2, 362976, Note_on_c, 0, 72, 74
2, 363068, Note_off_c, 0, 81, 0
2, 363068, Note_off_c, 0, 72, 0
2, 363072, Note_on_c, 0, 77, 73
2, 363072, Note_on_c, 0, 69, 73
2, 363164, Note_off_c, 0, 77, 0
2, 363164, Note_off_c, 0, 69, 0
2, 363168, Note_on_c, 0, 81, 74
2, 363168, Note_on_c, 0, 72, 74
2, 363260, Note_off_c, 0, 81, 0
2, 363260, Note_off_c, 0, 72, 0
2, 363264, Note_on_c, 0, 72, 72
2, 363264, Note_on_c, 0, 65, 72
2, 363356, Note_off_c, 0, 72, 0
2, 363356, Note_off_c, 0, 65, 0
2, 363360, Note_on_c, 0, 77, 73
2, 363360, Note_on_c, 0, 69, 73
2, 363452, Note_off_c, 0, 77, 0
2, 363452, Note_off_c, 0, 69, 0
2, 363456, Note_on_c, 0, 72, 72
2, 363456, Note_on_c, 0, 65, 72
2, 363548, Note_off_c, 0, 72, 0
2, 363548, Note_off_c, 0, 65, 0
2, 363552, Note_on_c, 0, 77, 73
2, 363552, Note_on_c, 0, 69, 73
2, 363644, Note_off_c, 0, 77, 0
2, 363644, Note_off_c, 0, 69, 0
2, 363648, Note_on_c, 0, 69, 71
2, 363648, Note_on_c, 0, 60, 71
2, 363740, Note_off_c, 0, 69, 0
2, 363740, Note_off_c, 0, 60, 0
2, 363744, Note_on_c, 0, 72, 72
2, 363744, Note_on_c, 0, 65, 72
2, 363836, Note_off_c, 0, 72, 0
2, 363836, Note_off_c, 0, 65, 0
2, 363840, Note_on_c, 0, 69, 71
2, 363840, Note_on_c, 0, 60, 71
2, 363932, Note_off_c, 0, 69, 0
2, 363932, Note_off_c, 0, 60, 0
2, 363936, Note_on_c, 0, 72, 72
2, 363936, Note_on_c, 0, 65, 72
2, 364028, Note_off_c, 0, 72, 0
2, 364028, Note_off_c, 0, 65, 0
2, 364032, Note_on_c, 0, 78, 73
2, 364032, Note_on_c, 0, 69, 73
2, 364124, Note_off_c, 0, 78, 0
2, 364124, Note_off_c, 0, 69, 0
2, 364128, Note_on_c, 0, 81, 74
2, 364128, Note_on_c, 0, 72, 74
2, 364220, Note_off_c, 0, 81, 0
2, 364220, Note_off_c, 0, 72, 0
2, 364224, Note_on_c, 0, 78, 73
2, 364224, Note_on_c, 0, 69, 73
2, 364316, Note_off_c, 0, 78, 0
2, 364316, Note_off_c, 0, 69, 0
2, 364320, Note_on_c, 0, 81, 74
2, 364320, Note_on_c, 0, 72, 74
2, 364412, Note_off_c, 0, 81, 0
2, 364412, Note_off_c, 0, 72, 0
2, 364416, Note_on_c, 0, 72, 73
2, 364416, Note_on_c, 0, 63, 73
2, 364508, Note_off_c, 0, 72, 0
2, 364508, Note_off_c, 0, 63, 0
2, 364512, Note_on_c, 0, 75, 74
2, 364512, Note_on_c, 0, 66, 74
2, 364604, Note_off_c, 0, 75, 0
2, 364604, Note_off_c, 0, 66, 0
2, 364608, Note_on_c, 0, 72, 73
2, 364608, Note_on_c, 0, 63, 73
2, 364700, Note_off_c, 0, 72, 0
2, 364700, Note_off_c, 0, 63, 0
2, 364704, Note_on_c, 0, 75, 74
2, 364704, Note_on_c, 0, 66, 74
2, 364796, Note_off_c, 0, 75, 0
2, 364796, Note_off_c, 0, 66, 0
2, 364800, Note_on_c, 0, 69, 72
2, 364800, Note_on_c, 0, 61, 72
2, 364892, Note_off_c, 0, 69, 0
2, 364892, Note_off_c, 0, 61, 0
2, 364896, Note_on_c, 0, 72, 73
2, 364896, Note_on_c, 0, 63, 73
2, 364988, Note_off_c, 0, 72, 0
2, 364988, Note_off_c, 0, 63, 0
2, 364992, Note_on_c, 0, 69, 72
2, 364992, Note_on_c, 0, 61, 72
2, 365084, Note_off_c, 0, 69, 0
2, 365084, Note_off_c, 0, 61, 0
2, 365088, Note_on_c, 0, 72, 73
2, 365088, Note_on_c, 0, 63, 73
2, 365180, Note_off_c, 0, 72, 0
2, 365180, Note_off_c, 0, 63, 0
2, 365184, Note_on_c, 0, 66, 71
2, 365184, Note_on_c, 0, 57, 71
2, 365276, Note_off_c, 0, 66, 0
2, 365276, Note_off_c, 0, 57, 0
2, 365280, Note_on_c, 0, 69, 72
2, 365280, Note_on_c, 0, 61, 72
2, 365372, Note_off_c, 0, 69, 0
2, 365372, Note_off_c, 0, 61, 0
2, 365376, Note_on_c, 0, 66, 71
2, 365376, Note_on_c, 0, 57, 71
2, 365468, Note_off_c, 0, 66, 0
2, 365468, Note_off_c, 0, 57, 0
2, 365472, Note_on_c, 0, 69, 72
2, 365472, Note_on_c, 0, 61, 72
2, 365560, Control_c, 0, 1, 55
2, 365564, Note_off_c, 0, 69, 0
2, 365564, Note_off_c, 0, 61, 0
2, 365568, Note_on_c, 0, 72, 80
2, 365568, Note_on_c, 0, 66, 80
2, 365568, Note_on_c, 0, 57, 80
2, 365856, Note_off_c, 0, 72, 0
2, 365856, Note_off_c, 0, 66, 0
2, 365856, Note_off_c, 0, 57, 0
2, 365856, Note_on_c, 0, 72, 83
2, 365856, Note_on_c, 0, 66, 83
2, 365936, Note_off_c, 0, 72, 0
2, 365936, Note_off_c, 0, 66, 0
2, 365952, Note_on_c, 0, 72, 73
2, 365952, Note_on_c, 0, 66, 73
2, 365952, Note_on_c, 0, 57, 73
2, 366332, Note_off_c, 0, 72, 0
2, 366332, Note_off_c, 0, 66, 0
2, 366332, Note_off_c, 0, 57, 0
2, 366720, Note_on_c, 0, 75, 73
2, 366720, Note_on_c, 0, 66, 73
2, 366720, Note_on_c, 0, 57, 73
2, 367100, Note_off_c, 0, 75, 0
2, 367100, Note_off_c, 0, 66, 0
2, 367100, Note_off_c, 0, 57, 0
2, 367488, Note_on_c, 0, 78, 73
2, 367488, Note_on_c, 0, 72, 73
2, 367488, Note_on_c, 0, 63, 73
2, 367868, Note_off_c, 0, 78, 0
2, 367868, Note_off_c, 0, 72, 0
2, 367868, Note_off_c, 0, 63, 0
2, 367872, Note_on_c, 0, 81, 74
2, 367872, Note_on_c, 0, 75, 74
2, 367872, Note_on_c, 0, 66, 74
2, 368252, Note_off_c, 0, 81, 0
2, 368252, Note_off_c, 0, 75, 0
2, 368252, Note_off_c, 0, 66, 0
2, 368256, Note_on_c, 0, 84, 75
2, 368256, Note_on_c, 0, 78, 75
2, 368256, Note_on_c, 0, 69, 75
2, 368636, Note_off_c, 0, 84, 0
2, 368636, Note_off_c, 0, 78, 0
2, 368636, Note_off_c, 0, 69, 0
2, 368640, Note_on_c, 0, 78, 77
2, 368640, Note_on_c, 0, 87, 77
2, 368640, Note_on_c, 0, 69, 77
2, 368928, Note_off_c, 0, 78, 0
2, 368928, Note_off_c, 0, 87, 0
2, 368928, Note_off_c, 0, 69, 0
2, 368928, Note_on_c, 0, 87, 83
2, 368928, Note_on_c, 0, 78, 83
2, 369008, Note_off_c, 0, 87, 0
2, 369008, Note_off_c, 0, 78, 0
2, 369024, Note_on_c, 0, 87, 77
2, 369024, Note_on_c, 0, 78, 77
2, 369024, Note_on_c, 0, 69, 77
2, 369404, Note_off_c, 0, 87, 0
2, 369404, Note_off_c, 0, 78, 0
2, 369404, Note_off_c, 0, 69, 0
2, 370176, Note_on_c, 0, 86, 74
2, 370176, Note_on_c, 0, 78, 73
2, 370176, Note_on_c, 0, 69, 73
2, 370176, Note_on_c, 0, 62, 73
2, 370464, Note_off_c, 0, 86, 0
2, 370464, Note_off_c, 0, 78, 0
2, 370464, Note_off_c, 0, 69, 0
2, 370464, Note_off_c, 0, 62, 0
2, 370464, Note_on_c, 0, 78, 83
2, 370464, Note_on_c, 0, 86, 82
2, 370464, Note_on_c, 0, 69, 82
2, 370544, Note_off_c, 0, 78, 0
2, 370544, Note_off_c, 0, 86, 0
2, 370544, Note_off_c, 0, 69, 0
2, 370560, Note_on_c, 0, 86, 74
2, 370560, Note_on_c, 0, 78, 73
2, 370560, Note_on_c, 0, 69, 73
2, 370940, Note_off_c, 0, 86, 0
2, 370940, Note_off_c, 0, 78, 0
2, 370940, Note_off_c, 0, 69, 0
2, 371712, Note_on_c, 0, 70, 52
2, 371804, Note_off_c, 0, 70, 0
2, 371808, Note_on_c, 0, 74, 52
2, 371900, Note_off_c, 0, 74, 0
2, 371904, Note_on_c, 0, 79, 52
2, 371996, Note_off_c, 0, 79, 0
2, 372000, Note_on_c, 0, 82, 52
2, 372092, Note_off_c, 0, 82, 0
2, 372096, Note_on_c, 0, 81, 52
2, 372188, Note_off_c, 0, 81, 0
2, 372192, Note_on_c, 0, 79, 52
2, 372284, Note_off_c, 0, 79, 0
2, 372288, Note_on_c, 0, 78, 52
2, 372380, Note_off_c, 0, 78, 0
2, 372384, Note_on_c, 0, 79, 52
2, 372476, Note_off_c, 0, 79, 0
2, 372480, Note_on_c, 0, 70, 52
2, 372572, Note_off_c, 0, 70, 0
2, 372576, Note_on_c, 0, 74, 52
2, 372668, Note_off_c, 0, 74, 0
2, 372672, Note_on_c, 0, 79, 52
2, 372764, Note_off_c, 0, 79, 0
2, 372768, Note_on_c, 0, 82, 52
2, 372860, Note_off_c, 0, 82, 0
2, 372864, Note_on_c, 0, 81, 52
2, 372956, Note_off_c, 0, 81, 0
2, 372960, Note_on_c, 0, 79, 52
2, 373052, Note_off_c, 0, 79, 0
2, 373056, Note_on_c, 0, 78, 52
2, 373148, Note_off_c, 0, 78, 0
2, 373152, Note_on_c, 0, 79, 52
2, 373244, Note_off_c, 0, 79, 0
2, 373248, Note_on_c, 0, 75, 52
2, 373340, Note_off_c, 0, 75, 0
2, 373344, Note_on_c, 0, 79, 52
2, 373436, Note_off_c, 0, 79, 0
2, 373440, Note_on_c, 0, 74, 52
2, 373532, Note_off_c, 0, 74, 0
2, 373536, Note_on_c, 0, 79, 52
2, 373628, Note_off_c, 0, 79, 0
2, 373632, Note_on_c, 0, 75, 52
2, 373724, Note_off_c, 0, 75, 0
2, 373728, Note_on_c, 0, 79, 52
2, 373820, Note_off_c, 0, 79, 0
2, 373824, Note_on_c, 0, 74, 52
2, 373916, Note_off_c, 0, 74, 0
2, 373920, Note_on_c, 0, 79, 52
2, 374012, Note_off_c, 0, 79, 0
2, 374016, Note_on_c, 0, 75, 52
2, 374108, Note_off_c, 0, 75, 0
2, 374112, Note_on_c, 0, 79, 52
2, 374204, Note_off_c, 0, 79, 0
2, 374208, Note_on_c, 0, 74, 52
2, 374300, Note_off_c, 0, 74, 0
2, 374304, Note_on_c, 0, 79, 52
2, 374396, Note_off_c, 0, 79, 0
2, 374400, Note_on_c, 0, 75, 52
2, 374492, Note_off_c, 0, 75, 0
2, 374496, Note_on_c, 0, 79, 52
2, 374588, Note_off_c, 0, 79, 0
2, 374592, Note_on_c, 0, 74, 52
2, 374684, Note_off_c, 0, 74, 0
2, 374688, Note_on_c, 0, 79, 52
2, 374780, Note_off_c, 0, 79, 0
2, 374784, Note_on_c, 0, 75, 52
2, 374876, Note_off_c, 0, 75, 0
2, 374880, Note_on_c, 0, 79, 52
2, 374972, Note_off_c, 0, 79, 0
2, 374976, Note_on_c, 0, 84, 52
2, 375068, Note_off_c, 0, 84, 0
2, 375072, Note_on_c, 0, 87, 52
2, 375164, Note_off_c, 0, 87, 0
2, 375168, Note_on_c, 0, 86, 52
2, 375260, Note_off_c, 0, 86, 0
2, 375264, Note_on_c, 0, 84, 52
2, 375356, Note_off_c, 0, 84, 0
2, 375360, Note_on_c, 0, 83, 52
2, 375452, Note_off_c, 0, 83, 0
2, 375456, Note_on_c, 0, 84, 52
2, 375548, Note_off_c, 0, 84, 0
2, 375552, Note_on_c, 0, 75, 52
2, 375644, Note_off_c, 0, 75, 0
2, 375648, Note_on_c, 0, 79, 52
2, 375740, Note_off_c, 0, 79, 0
2, 375744, Note_on_c, 0, 84, 52
2, 375836, Note_off_c, 0, 84, 0
2, 375840, Note_on_c, 0, 87, 52
2, 375932, Note_off_c, 0, 87, 0
2, 375936, Note_on_c, 0, 86, 52
2, 376028, Note_off_c, 0, 86, 0
2, 376032, Note_on_c, 0, 84, 52
2, 376124, Note_off_c, 0, 84, 0
2, 376128, Note_on_c, 0, 83, 52
2, 376220, Note_off_c, 0, 83, 0
2, 376224, Note_on_c, 0, 84, 52
2, 376316, Note_off_c, 0, 84, 0
2, 376320, Note_on_c, 0, 80, 52
2, 376412, Note_off_c, 0, 80, 0
2, 376416, Note_on_c, 0, 84, 52
2, 376508, Note_off_c, 0, 84, 0
2, 376512, Note_on_c, 0, 79, 52
2, 376604, Note_off_c, 0, 79, 0
2, 376608, Note_on_c, 0, 84, 52
2, 376700, Note_off_c, 0, 84, 0
2, 376704, Note_on_c, 0, 80, 52
2, 376796, Note_off_c, 0, 80, 0
2, 376800, Note_on_c, 0, 84, 52
2, 376892, Note_off_c, 0, 84, 0
2, 376896, Note_on_c, 0, 79, 52
2, 376988, Note_off_c, 0, 79, 0
2, 376992, Note_on_c, 0, 84, 52
2, 377084, Note_off_c, 0, 84, 0
2, 377088, Note_on_c, 0, 80, 52
2, 377180, Note_off_c, 0, 80, 0
2, 377184, Note_on_c, 0, 84, 52
2, 377276, Note_off_c, 0, 84, 0
2, 377280, Note_on_c, 0, 79, 52
2, 377372, Note_off_c, 0, 79, 0
2, 377376, Note_on_c, 0, 84, 52
2, 377468, Note_off_c, 0, 84, 0
2, 377472, Note_on_c, 0, 80, 52
2, 377564, Note_off_c, 0, 80, 0
2, 377568, Note_on_c, 0, 84, 52
2, 377660, Note_off_c, 0, 84, 0
2, 377664, Note_on_c, 0, 79, 52
2, 377756, Note_off_c, 0, 79, 0
2, 377760, Note_on_c, 0, 84, 52
2, 377852, Note_off_c, 0, 84, 0
2, 377856, Note_on_c, 0, 80, 52
2, 377948, Note_off_c, 0, 80, 0
2, 377952, Note_on_c, 0, 84, 52
2, 378044, Note_off_c, 0, 84, 0
2, 378048, Note_on_c, 0, 89, 52
2, 378140, Note_off_c, 0, 89, 0
2, 378144, Note_on_c, 0, 92, 52
2, 378236, Note_off_c, 0, 92, 0
2, 378240, Note_on_c, 0, 91, 52
2, 378332, Note_off_c, 0, 91, 0
2, 378336, Note_on_c, 0, 89, 52
2, 378428, Note_off_c, 0, 89, 0
2, 378432, Note_on_c, 0, 88, 52
2, 378524, Note_off_c, 0, 88, 0
2, 378528, Note_on_c, 0, 89, 52
2, 378620, Note_off_c, 0, 89, 0
2, 378624, Note_on_c, 0, 77, 52
2, 378716, Note_off_c, 0, 77, 0
2, 378720, Note_on_c, 0, 80, 52
2, 378812, Note_off_c, 0, 80, 0
2, 378816, Note_on_c, 0, 86, 52
2, 378908, Note_off_c, 0, 86, 0
2, 378912, Note_on_c, 0, 89, 52
2, 379004, Note_off_c, 0, 89, 0
2, 379008, Note_on_c, 0, 87, 52
2, 379100, Note_off_c, 0, 87, 0
2, 379104, Note_on_c, 0, 86, 52
2, 379196, Note_off_c, 0, 86, 0
2, 379200, Note_on_c, 0, 85, 52
2, 379292, Note_off_c, 0, 85, 0
2, 379296, Note_on_c, 0, 86, 52
2, 379388, Note_off_c, 0, 86, 0
2, 379392, Note_on_c, 0, 79, 52
2, 379484, Note_off_c, 0, 79, 0
2, 379488, Note_on_c, 0, 82, 52
2, 379580, Note_off_c, 0, 82, 0
2, 379584, Note_on_c, 0, 87, 52
2, 379676, Note_off_c, 0, 87, 0
2, 379680, Note_on_c, 0, 91, 52
2, 379772, Note_off_c, 0, 91, 0
2, 379776, Note_on_c, 0, 75, 52
2, 379868, Note_off_c, 0, 75, 0
2, 379872, Note_on_c, 0, 79, 52
2, 379964, Note_off_c, 0, 79, 0
2, 379968, Note_on_c, 0, 84, 52
2, 380060, Note_off_c, 0, 84, 0
2, 380064, Note_on_c, 0, 87, 52
2, 380156, Note_off_c, 0, 87, 0
2, 380160, Note_on_c, 0, 72, 52
2, 380252, Note_off_c, 0, 72, 0
2, 380256, Note_on_c, 0, 75, 52
2, 380348, Note_off_c, 0, 75, 0
2, 380352, Note_on_c, 0, 81, 52
2, 380444, Note_off_c, 0, 81, 0
2, 380448, Note_on_c, 0, 84, 52
2, 380540, Note_off_c, 0, 84, 0
2, 380544, Note_on_c, 0, 75, 52
2, 380636, Note_off_c, 0, 75, 0
2, 380640, Note_on_c, 0, 78, 52
2, 380732, Note_off_c, 0, 78, 0
2, 380736, Note_on_c, 0, 84, 52
2, 380828, Note_off_c, 0, 84, 0
2, 380832, Note_on_c, 0, 87, 52
2, 380924, Note_off_c, 0, 87, 0
2, 380928, Note_on_c, 0, 77, 52
2, 381020, Note_off_c, 0, 77, 0
2, 381024, Note_on_c, 0, 80, 52
2, 381116, Note_off_c, 0, 80, 0
2, 381120, Note_on_c, 0, 85, 52
2, 381212, Note_off_c, 0, 85, 0
2, 381216, Note_on_c, 0, 89, 52
2, 381308, Note_off_c, 0, 89, 0
2, 381312, Note_on_c, 0, 74, 52
2, 381404, Note_off_c, 0, 74, 0
2, 381408, Note_on_c, 0, 77, 52
2, 381500, Note_off_c, 0, 77, 0
2, 381504, Note_on_c, 0, 82, 52
2, 381596, Note_off_c, 0, 82, 0
2, 381600, Note_on_c, 0, 85, 52
2, 381692, Note_off_c, 0, 85, 0
2, 381696, Note_on_c, 0, 70, 52
2, 381788, Note_off_c, 0, 70, 0
2, 381792, Note_on_c, 0, 74, 52
2, 381884, Note_off_c, 0, 74, 0
2, 381888, Note_on_c, 0, 79, 52
2, 381980, Note_off_c, 0, 79, 0
2, 381984, Note_on_c, 0, 82, 52
2, 382076, Note_off_c, 0, 82, 0
2, 382080, Note_on_c, 0, 74, 52
2, 382172, Note_off_c, 0, 74, 0
2, 382176, Note_on_c, 0, 75, 52
2, 382268, Note_off_c, 0, 75, 0
2, 382272, Note_on_c, 0, 82, 52
2, 382364, Note_off_c, 0, 82, 0
2, 382368, Note_on_c, 0, 85, 52
2, 382460, Note_off_c, 0, 85, 0
2, 382464, Note_on_c, 0, 76, 52
2, 382556, Note_off_c, 0, 76, 0
2, 382560, Note_on_c, 0, 80, 52
2, 382652, Note_off_c, 0, 80, 0
2, 382656, Note_on_c, 0, 85, 52
2, 382748, Note_off_c, 0, 85, 0
2, 382752, Note_on_c, 0, 88, 52
2, 382844, Note_off_c, 0, 88, 0
2, 382848, Note_on_c, 0, 73, 52
2, 382940, Note_off_c, 0, 73, 0
2, 382944, Note_on_c, 0, 76, 52
2, 383036, Note_off_c, 0, 76, 0
2, 383040, Note_on_c, 0, 81, 52
2, 383132, Note_off_c, 0, 81, 0
2, 383136, Note_on_c, 0, 85, 52
2, 383228, Note_off_c, 0, 85, 0
2, 383232, Note_on_c, 0, 73, 52
2, 383324, Note_off_c, 0, 73, 0
2, 383328, Note_on_c, 0, 76, 52
2, 383420, Note_off_c, 0, 76, 0
2, 383424, Note_on_c, 0, 81, 52
2, 383516, Note_off_c, 0, 81, 0
2, 383520, Note_on_c, 0, 85, 52
2, 383612, Note_off_c, 0, 85, 0
2, 383616, Note_on_c, 0, 69, 52
2, 383708, Note_off_c, 0, 69, 0
2, 383712, Note_on_c, 0, 73, 52
2, 383804, Note_off_c, 0, 73, 0
2, 383808, Note_on_c, 0, 76, 52
2, 383900, Note_off_c, 0, 76, 0
2, 383904, Note_on_c, 0, 81, 52
2, 383996, Note_off_c, 0, 81, 0
2, 384000, Note_on_c, 0, 69, 52
2, 384092, Note_off_c, 0, 69, 0
2, 384096, Note_on_c, 0, 73, 52
2, 384188, Note_off_c, 0, 73, 0
2, 384192, Note_on_c, 0, 76, 53
2, 384284, Note_off_c, 0, 76, 0
2, 384288, Note_on_c, 0, 81, 53
2, 384380, Note_off_c, 0, 81, 0
2, 384384, Note_on_c, 0, 64, 53
2, 384476, Note_off_c, 0, 64, 0
2, 384480, Note_on_c, 0, 69, 55
2, 384572, Note_off_c, 0, 69, 0
2, 384576, Note_on_c, 0, 73, 55
2, 384668, Note_off_c, 0, 73, 0
2, 384672, Note_on_c, 0, 76, 56
2, 384764, Note_off_c, 0, 76, 0
2, 384768, Note_on_c, 0, 64, 56
2, 384860, Note_off_c, 0, 64, 0
2, 384864, Note_on_c, 0, 69, 57
2, 384956, Note_off_c, 0, 69, 0
2, 384960, Note_on_c, 0, 73, 57
2, 385052, Note_off_c, 0, 73, 0
2, 385056, Note_on_c, 0, 76, 58
2, 385148, Note_off_c, 0, 76, 0
2, 385152, Note_on_c, 0, 61, 58
2, 385244, Note_off_c, 0, 61, 0
2, 385248, Note_on_c, 0, 64, 58
2, 385340, Note_off_c, 0, 64, 0
2, 385344, Note_on_c, 0, 69, 59
2, 385436, Note_off_c, 0, 69, 0
2, 385440, Note_on_c, 0, 73, 59
2, 385532, Note_off_c, 0, 73, 0
2, 385536, Note_on_c, 0, 57, 59
2, 385628, Note_off_c, 0, 57, 0
2, 385632, Note_on_c, 0, 73, 59
2, 385724, Note_off_c, 0, 73, 0
2, 385728, Note_on_c, 0, 72, 60
2, 385820, Note_off_c, 0, 72, 0
2, 385824, Note_on_c, 0, 73, 60
2, 385916, Note_off_c, 0, 73, 0
2, 385920, Note_on_c, 0, 74, 60
2, 386012, Note_off_c, 0, 74, 0
2, 386016, Note_on_c, 0, 73, 61
2, 386108, Note_off_c, 0, 73, 0
2, 386112, Note_on_c, 0, 72, 61
2, 386204, Note_off_c, 0, 72, 0
2, 386208, Note_on_c, 0, 73, 62
2, 386300, Note_off_c, 0, 73, 0
2, 386304, Note_on_c, 0, 61, 62
2, 386396, Note_off_c, 0, 61, 0
2, 386400, Note_on_c, 0, 76, 63
2, 386492, Note_off_c, 0, 76, 0
2, 386496, Note_on_c, 0, 75, 63
2, 386588, Note_off_c, 0, 75, 0
2, 386592, Note_on_c, 0, 76, 63
2, 386684, Note_off_c, 0, 76, 0
2, 386688, Note_on_c, 0, 78, 64
2, 386780, Note_off_c, 0, 78, 0
2, 386784, Note_on_c, 0, 76, 64
2, 386876, Note_off_c, 0, 76, 0
2, 386880, Note_on_c, 0, 75, 66
2, 386972, Note_off_c, 0, 75, 0
2, 386976, Note_on_c, 0, 76, 66
2, 387068, Note_off_c, 0, 76, 0
2, 387072, Note_on_c, 0, 64, 67
2, 387164, Note_off_c, 0, 64, 0
2, 387168, Note_on_c, 0, 81, 67
2, 387260, Note_off_c, 0, 81, 0
2, 387264, Note_on_c, 0, 79, 67
2, 387356, Note_off_c, 0, 79, 0
2, 387360, Note_on_c, 0, 81, 68
2, 387452, Note_off_c, 0, 81, 0
2, 387456, Note_on_c, 0, 69, 68
2, 387548, Note_off_c, 0, 69, 0
2, 387552, Note_on_c, 0, 85, 69
2, 387644, Note_off_c, 0, 85, 0
2, 387648, Note_on_c, 0, 83, 69
2, 387740, Note_off_c, 0, 83, 0
2, 387744, Note_on_c, 0, 85, 69
2, 387836, Note_off_c, 0, 85, 0
2, 387840, Note_on_c, 0, 73, 69
2, 387932, Note_off_c, 0, 73, 0
2, 387936, Note_on_c, 0, 88, 69
2, 388028, Note_off_c, 0, 88, 0
2, 388032, Note_on_c, 0, 86, 70
2, 388124, Note_off_c, 0, 86, 0
2, 388128, Note_on_c, 0, 88, 71
2, 388220, Note_off_c, 0, 88, 0
2, 388224, Note_on_c, 0, 93, 79
2, 388412, Note_off_c, 0, 93, 0
2, 388608, Note_on_c, 0, 81, 79
2, 388792, Note_off_c, 0, 81, 0
2, 388992, Note_on_c, 0, 69, 79
2, 389176, Note_off_c, 0, 69, 0
2, 389376, Note_on_c, 0, 57, 81
2, 389756, Note_off_c, 0, 57, 0
2, 389760, Note_on_c, 0, 69, 52
2, 389940, Note_off_c, 0, 69, 0
2, 389952, Note_on_c, 0, 69, 52
2, 390132, Note_off_c, 0, 69, 0
2, 390144, Note_on_c, 0, 69, 52
2, 390144, Note_on_c, 0, 60, 52
2, 390332, Note_off_c, 0, 69, 0
2, 390332, Note_off_c, 0, 60, 0
2, 390336, Note_on_c, 0, 70, 52
2, 390336, Note_on_c, 0, 61, 52
2, 390524, Note_off_c, 0, 70, 0
2, 390524, Note_off_c, 0, 61, 0
2, 390528, Note_on_c, 0, 67, 52
2, 390528, Note_on_c, 0, 58, 52
2, 390716, Note_off_c, 0, 67, 0
2, 390716, Note_off_c, 0, 58, 0
2, 390720, Note_on_c, 0, 64, 52
2, 390720, Note_on_c, 0, 55, 52
2, 390908, Note_off_c, 0, 64, 0
2, 390908, Note_off_c, 0, 55, 0
2, 390912, Note_on_c, 0, 65, 52
2, 390912, Note_on_c, 0, 57, 52
2, 391100, Note_off_c, 0, 65, 0
2, 391100, Note_off_c, 0, 57, 0
2, 391104, Note_on_c, 0, 65, 52
2, 391104, Note_on_c, 0, 72, 52
2, 391292, Note_off_c, 0, 65, 0
2, 391292, Note_off_c, 0, 72, 0
2, 391296, Note_on_c, 0, 77, 52
2, 391296, Note_on_c, 0, 69, 52
2, 391484, Note_off_c, 0, 77, 0
2, 391484, Note_off_c, 0, 69, 0
2, 391488, Note_on_c, 0, 81, 52
2, 391488, Note_on_c, 0, 72, 52
2, 391676, Note_off_c, 0, 81, 0
2, 391676, Note_off_c, 0, 72, 0
2, 391680, Note_on_c, 0, 81, 52
2, 391680, Note_on_c, 0, 72, 52
2, 391868, Note_off_c, 0, 81, 0
2, 391868, Note_off_c, 0, 72, 0
2, 391872, Note_on_c, 0, 82, 52
2, 391872, Note_on_c, 0, 73, 52
2, 392060, Note_off_c, 0, 82, 0
2, 392060, Note_off_c, 0, 73, 0
2, 392064, Note_on_c, 0, 79, 52
2, 392064, Note_on_c, 0, 70, 52
2, 392252, Note_off_c, 0, 79, 0
2, 392252, Note_off_c, 0, 70, 0
2, 392256, Note_on_c, 0, 76, 52
2, 392256, Note_on_c, 0, 67, 52
2, 392444, Note_off_c, 0, 76, 0
2, 392444, Note_off_c, 0, 67, 0
2, 392448, Note_on_c, 0, 77, 52
2, 392448, Note_on_c, 0, 69, 52
2, 392636, Note_off_c, 0, 77, 0
2, 392636, Note_off_c, 0, 69, 0
2, 392640, Note_on_c, 0, 72, 52
2, 392828, Note_off_c, 0, 72, 0
2, 392832, Note_on_c, 0, 65, 52
2, 392832, Note_on_c, 0, 57, 52
2, 393020, Note_off_c, 0, 65, 0
2, 393020, Note_off_c, 0, 57, 0
2, 393024, Note_on_c, 0, 65, 52
2, 393024, Note_on_c, 0, 57, 52
2, 393212, Note_off_c, 0, 65, 0
2, 393212, Note_off_c, 0, 57, 0
2, 393216, Note_on_c, 0, 65, 53
2, 393216, Note_on_c, 0, 57, 53
2, 393404, Note_off_c, 0, 65, 0
2, 393408, Note_on_c, 0, 67, 53
2, 393596, Note_off_c, 0, 67, 0
2, 393600, Note_on_c, 0, 64, 55
2, 393788, Note_off_c, 0, 57, 0
2, 393788, Note_off_c, 0, 64, 0
2, 393792, Note_on_c, 0, 61, 56
2, 393980, Note_off_c, 0, 61, 0
2, 393984, Note_on_c, 0, 62, 57
2, 394108, Note_off_c, 0, 62, 0
2, 394112, Note_on_c, 0, 57, 58
2, 394236, Note_off_c, 0, 57, 0
2, 394240, Note_on_c, 0, 62, 59
2, 394364, Note_off_c, 0, 62, 0
2, 394368, Note_on_c, 0, 66, 59
2, 394492, Note_off_c, 0, 66, 0
2, 394496, Note_on_c, 0, 69, 60
2, 394620, Note_off_c, 0, 69, 0
2, 394624, Note_on_c, 0, 74, 61
2, 394748, Note_off_c, 0, 74, 0
2, 394752, Note_on_c, 0, 78, 62
2, 394752, Note_on_c, 0, 69, 62
2, 394940, Note_off_c, 0, 78, 0
2, 394940, Note_off_c, 0, 69, 0
2, 394944, Note_on_c, 0, 79, 63
2, 394944, Note_on_c, 0, 70, 63
2, 395132, Note_off_c, 0, 79, 0
2, 395132, Note_off_c, 0, 70, 0
2, 395136, Note_on_c, 0, 76, 64
2, 395136, Note_on_c, 0, 67, 64
2, 395324, Note_off_c, 0, 76, 0
2, 395324, Note_off_c, 0, 67, 0
2, 395328, Note_on_c, 0, 73, 67
2, 395328, Note_on_c, 0, 64, 67
2, 395516, Note_off_c, 0, 73, 0
2, 395516, Note_off_c, 0, 64, 0
2, 395520, Note_on_c, 0, 74, 68
2, 395520, Note_on_c, 0, 66, 68
2, 395644, Note_off_c, 0, 74, 0
2, 395644, Note_off_c, 0, 66, 0
2, 395648, Note_on_c, 0, 66, 69
2, 395648, Note_on_c, 0, 57, 69
2, 395772, Note_off_c, 0, 66, 0
2, 395772, Note_off_c, 0, 57, 0
2, 395776, Note_on_c, 0, 69, 69
2, 395776, Note_on_c, 0, 66, 69
2, 395900, Note_off_c, 0, 69, 0
2, 395900, Note_off_c, 0, 66, 0
2, 395904, Note_on_c, 0, 74, 70
2, 395904, Note_on_c, 0, 69, 70
2, 396028, Note_off_c, 0, 74, 0
2, 396028, Note_off_c, 0, 69, 0
2, 396032, Note_on_c, 0, 78, 71
2, 396032, Note_on_c, 0, 74, 71
2, 396156, Note_off_c, 0, 78, 0
2, 396156, Note_off_c, 0, 74, 0
2, 396160, Note_on_c, 0, 81, 72
2, 396160, Note_on_c, 0, 78, 72
2, 396284, Note_off_c, 0, 81, 0
2, 396284, Note_off_c, 0, 78, 0
2, 396288, Note_on_c, 0, 82, 73
2, 396288, Note_on_c, 0, 78, 73
2, 396476, Note_off_c, 0, 82, 0
2, 396476, Note_off_c, 0, 78, 0
2, 396480, Note_on_c, 0, 83, 73
2, 396480, Note_on_c, 0, 79, 73
2, 396668, Note_off_c, 0, 83, 0
2, 396668, Note_off_c, 0, 79, 0
2, 396672, Note_on_c, 0, 69, 73
2, 396860, Note_off_c, 0, 69, 0
2, 396864, Note_on_c, 0, 79, 73
2, 396864, Note_on_c, 0, 83, 73
2, 397052, Note_off_c, 0, 79, 0
2, 397052, Note_off_c, 0, 83, 0
2, 397056, Note_on_c, 0, 77, 73
2, 397056, Note_on_c, 0, 80, 73
2, 397244, Note_off_c, 0, 77, 0
2, 397244, Note_off_c, 0, 80, 0
2, 397248, Note_on_c, 0, 78, 73
2, 397248, Note_on_c, 0, 81, 73
2, 397436, Note_off_c, 0, 78, 0
2, 397436, Note_off_c, 0, 81, 0
2, 397440, Note_on_c, 0, 69, 73
2, 397628, Note_off_c, 0, 69, 0
2, 397632, Note_on_c, 0, 78, 73
2, 397632, Note_on_c, 0, 81, 73
2, 397820, Note_off_c, 0, 78, 0
2, 397820, Note_off_c, 0, 81, 0
2, 397824, Note_on_c, 0, 78, 73
2, 397824, Note_on_c, 0, 75, 73
2, 398012, Note_off_c, 0, 78, 0
2, 398012, Note_off_c, 0, 75, 0
2, 398016, Note_on_c, 0, 79, 73
2, 398016, Note_on_c, 0, 76, 73
2, 398204, Note_off_c, 0, 79, 0
2, 398204, Note_off_c, 0, 76, 0
2, 398208, Note_on_c, 0, 58, 73
2, 398396, Note_off_c, 0, 58, 0
2, 398400, Note_on_c, 0, 76, 73
2, 398400, Note_on_c, 0, 79, 73
2, 398588, Note_off_c, 0, 76, 0
2, 398588, Note_off_c, 0, 79, 0
2, 398592, Note_on_c, 0, 77, 73
2, 398592, Note_on_c, 0, 73, 73
2, 398780, Note_off_c, 0, 77, 0
2, 398780, Note_off_c, 0, 73, 0
2, 398784, Note_on_c, 0, 78, 73
2, 398784, Note_on_c, 0, 74, 73
2, 398972, Note_off_c, 0, 78, 0
2, 398972, Note_off_c, 0, 74, 0
2, 398976, Note_on_c, 0, 59, 73
2, 399164, Note_off_c, 0, 59, 0
2, 399168, Note_on_c, 0, 78, 73
2, 399168, Note_on_c, 0, 74, 73
2, 399356, Note_off_c, 0, 78, 0
2, 399356, Note_off_c, 0, 74, 0
2, 399360, Note_on_c, 0, 74, 52
2, 399360, Note_on_c, 0, 67, 52
2, 399360, Note_on_c, 0, 76, 62
2, 399452, Note_off_c, 0, 76, 0
2, 399456, Note_on_c, 0, 78, 52
2, 399548, Note_off_c, 0, 78, 0
2, 399552, Note_on_c, 0, 76, 52
2, 399644, Note_off_c, 0, 76, 0
2, 399648, Note_on_c, 0, 78, 52
2, 399740, Note_off_c, 0, 74, 0
2, 399740, Note_off_c, 0, 67, 0
2, 399740, Note_off_c, 0, 78, 0
2, 399744, Note_on_c, 0, 74, 52
2, 399744, Note_on_c, 0, 67, 52
2, 399744, Note_on_c, 0, 76, 62
2, 399836, Note_off_c, 0, 76, 0
2, 399840, Note_on_c, 0, 78, 52
2, 399932, Note_off_c, 0, 78, 0
2, 399936, Note_on_c, 0, 76, 52
2, 400028, Note_off_c, 0, 76, 0
2, 400032, Note_on_c, 0, 78, 52
2, 400124, Note_off_c, 0, 74, 0
2, 400124, Note_off_c, 0, 67, 0
2, 400124, Note_off_c, 0, 78, 0
2, 400128, Note_on_c, 0, 74, 52
2, 400128, Note_on_c, 0, 67, 52
2, 400128, Note_on_c, 0, 76, 62
2, 400220, Note_off_c, 0, 76, 0
2, 400224, Note_on_c, 0, 78, 52
2, 400316, Note_off_c, 0, 78, 0
2, 400320, Note_on_c, 0, 76, 52
2, 400412, Note_off_c, 0, 76, 0
2, 400416, Note_on_c, 0, 78, 52
2, 400508, Note_off_c, 0, 74, 0
2, 400508, Note_off_c, 0, 67, 0
2, 400508, Note_off_c, 0, 78, 0
2, 400512, Note_on_c, 0, 74, 52
2, 400512, Note_on_c, 0, 67, 52
2, 400512, Note_on_c, 0, 76, 62
2, 400604, Note_off_c, 0, 76, 0
2, 400608, Note_on_c, 0, 78, 52
2, 400700, Note_off_c, 0, 78, 0
2, 400704, Note_on_c, 0, 76, 52
2, 400796, Note_off_c, 0, 76, 0
2, 400800, Note_on_c, 0, 78, 52
2, 400892, Note_off_c, 0, 74, 0
2, 400892, Note_off_c, 0, 67, 0
2, 400892, Note_off_c, 0, 78, 0
2, 400896, Note_on_c, 0, 74, 58
2, 400896, Note_on_c, 0, 76, 58
2, 400896, Note_on_c, 0, 68, 58
2, 400940, Note_off_c, 0, 76, 0
2, 400944, Note_on_c, 0, 78, 68
2, 400988, Note_off_c, 0, 78, 0
2, 400992, Note_on_c, 0, 76, 58
2, 401036, Note_off_c, 0, 76, 0
2, 401040, Note_on_c, 0, 78, 58
2, 401084, Note_off_c, 0, 78, 0
2, 401088, Note_on_c, 0, 76, 58
2, 401132, Note_off_c, 0, 76, 0
2, 401136, Note_on_c, 0, 78, 58
2, 401180, Note_off_c, 0, 78, 0
2, 401184, Note_on_c, 0, 76, 58
2, 401228, Note_off_c, 0, 76, 0
2, 401232, Note_on_c, 0, 78, 58
2, 401276, Note_off_c, 0, 68, 0
2, 401276, Note_off_c, 0, 78, 0
2, 401280, Note_on_c, 0, 76, 58
2, 401324, Note_off_c, 0, 76, 0
2, 401328, Note_on_c, 0, 78, 58
2, 401372, Note_off_c, 0, 78, 0
2, 401376, Note_on_c, 0, 76, 58
2, 401420, Note_off_c, 0, 76, 0
2, 401424, Note_on_c, 0, 78, 58
2, 401468, Note_off_c, 0, 78, 0
2, 401472, Note_on_c, 0, 76, 58
2, 401516, Note_off_c, 0, 76, 0
2, 401520, Note_on_c, 0, 78, 58
2, 401564, Note_off_c, 0, 78, 0
2, 401568, Note_on_c, 0, 76, 58
2, 401612, Note_off_c, 0, 76, 0
2, 401616, Note_on_c, 0, 78, 58
2, 401660, Note_off_c, 0, 74, 0
2, 401660, Note_off_c, 0, 78, 0
2, 401664, Note_on_c, 0, 74, 58
2, 401664, Note_on_c, 0, 68, 58
2, 401664, Note_on_c, 0, 76, 68
2, 401708, Note_off_c, 0, 76, 0
2, 401712, Note_on_c, 0, 78, 58
2, 401756, Note_off_c, 0, 78, 0
2, 401760, Note_on_c, 0, 76, 58
2, 401804, Note_off_c, 0, 76, 0
2, 401808, Note_on_c, 0, 78, 58
2, 401852, Note_off_c, 0, 78, 0
2, 401856, Note_on_c, 0, 76, 58
2, 401900, Note_off_c, 0, 76, 0
2, 401904, Note_on_c, 0, 78, 58
2, 401948, Note_off_c, 0, 78, 0
2, 401952, Note_on_c, 0, 76, 58
2, 401996, Note_off_c, 0, 76, 0
2, 402000, Note_on_c, 0, 78, 58
2, 402044, Note_off_c, 0, 68, 0
2, 402044, Note_off_c, 0, 78, 0
2, 402048, Note_on_c, 0, 76, 58
2, 402092, Note_off_c, 0, 76, 0
2, 402096, Note_on_c, 0, 78, 58
2, 402140, Note_off_c, 0, 78, 0
2, 402144, Note_on_c, 0, 76, 58
2, 402188, Note_off_c, 0, 76, 0
2, 402192, Note_on_c, 0, 78, 58
2, 402236, Note_off_c, 0, 78, 0
2, 402240, Note_on_c, 0, 76, 58
2, 402284, Note_off_c, 0, 76, 0
2, 402288, Note_on_c, 0, 78, 58
2, 402332, Note_off_c, 0, 78, 0
2, 402336, Note_on_c, 0, 76, 58
2, 402380, Note_off_c, 0, 76, 0
2, 402384, Note_on_c, 0, 78, 58
2, 402428, Note_off_c, 0, 74, 0
2, 402428, Note_off_c, 0, 78, 0
2, 402432, Note_on_c, 0, 74, 64
2, 402432, Note_on_c, 0, 68, 64
2, 402432, Note_on_c, 0, 59, 64
2, 402432, Note_on_c, 0, 76, 74
2, 402524, Note_off_c, 0, 76, 0
2, 402528, Note_on_c, 0, 78, 64
2, 402620, Note_off_c, 0, 78, 0
2, 402624, Note_on_c, 0, 76, 64
2, 402716, Note_off_c, 0, 76, 0
2, 402720, Note_on_c, 0, 78, 64
2, 402800, Note_on_c, 0, 68, 64
2, 402812, Note_off_c, 0, 74, 0
2, 402812, Note_off_c, 0, 68, 0
2, 402812, Note_off_c, 0, 59, 0
2, 402812, Note_off_c, 0, 78, 0
2, 402816, Note_on_c, 0, 74, 64
2, 402816, Note_on_c, 0, 76, 74
2, 402908, Note_off_c, 0, 76, 0
2, 402912, Note_on_c, 0, 78, 64
2, 403004, Note_off_c, 0, 78, 0
2, 403008, Note_on_c, 0, 76, 64
2, 403100, Note_off_c, 0, 76, 0
2, 403104, Note_on_c, 0, 78, 64
2, 403180, Note_off_c, 0, 68, 0
2, 403184, Note_on_c, 0, 68, 64
2, 403196, Note_off_c, 0, 74, 0
2, 403196, Note_off_c, 0, 78, 0
2, 403200, Note_on_c, 0, 74, 64
2, 403200, Note_on_c, 0, 76, 74
2, 403292, Note_off_c, 0, 76, 0
2, 403296, Note_on_c, 0, 78, 64
2, 403388, Note_off_c, 0, 78, 0
2, 403392, Note_on_c, 0, 76, 64
2, 403484, Note_off_c, 0, 76, 0
2, 403488, Note_on_c, 0, 78, 64
2, 403564, Note_off_c, 0, 68, 0
2, 403568, Note_on_c, 0, 68, 64
2, 403580, Note_off_c, 0, 74, 0
2, 403580, Note_off_c, 0, 78, 0
2, 403584, Note_on_c, 0, 74, 64
2, 403584, Note_on_c, 0, 76, 74
2, 403676, Note_off_c, 0, 76, 0
2, 403680, Note_on_c, 0, 78, 64
2, 403772, Note_off_c, 0, 78, 0
2, 403776, Note_on_c, 0, 76, 64
2, 403868, Note_off_c, 0, 76, 0
2, 403872, Note_on_c, 0, 78, 64
2, 403948, Note_off_c, 0, 68, 0
2, 403964, Note_off_c, 0, 74, 0
2, 403964, Note_off_c, 0, 78, 0
2, 403968, Note_on_c, 0, 59, 73
2, 403968, Note_on_c, 0, 68, 73
2, 403968, Note_on_c, 0, 74, 73
2, 403968, Note_on_c, 0, 76, 83
2, 404012, Note_off_c, 0, 76, 0
2, 404016, Note_on_c, 0, 78, 73
2, 404060, Note_off_c, 0, 78, 0
2, 404064, Note_on_c, 0, 76, 73
2, 404108, Note_off_c, 0, 76, 0
2, 404112, Note_on_c, 0, 78, 73
2, 404156, Note_off_c, 0, 78, 0
2, 404160, Note_on_c, 0, 76, 73
2, 404204, Note_off_c, 0, 76, 0
2, 404208, Note_on_c, 0, 78, 73
2, 404252, Note_off_c, 0, 78, 0
2, 404256, Note_on_c, 0, 76, 73
2, 404300, Note_off_c, 0, 76, 0
2, 404304, Note_on_c, 0, 78, 73
2, 404348, Note_off_c, 0, 59, 0
2, 404348, Note_off_c, 0, 68, 0
2, 404348, Note_off_c, 0, 78, 0
2, 404352, Note_on_c, 0, 76, 73
2, 404396, Note_off_c, 0, 76, 0
2, 404400, Note_on_c, 0, 78, 73
2, 404444, Note_off_c, 0, 78, 0
2, 404448, Note_on_c, 0, 76, 73
2, 404492, Note_off_c, 0, 76, 0
2, 404496, Note_on_c, 0, 78, 73
2, 404540, Note_off_c, 0, 78, 0
2, 404544, Note_on_c, 0, 76, 73
2, 404588, Note_off_c, 0, 76, 0
2, 404592, Note_on_c, 0, 78, 73
2, 404636, Note_off_c, 0, 78, 0
2, 404640, Note_on_c, 0, 76, 73
2, 404684, Note_off_c, 0, 76, 0
2, 404688, Note_on_c, 0, 78, 73
2, 404732, Note_off_c, 0, 74, 0
2, 404732, Note_off_c, 0, 78, 0
2, 404736, Note_on_c, 0, 74, 73
2, 404736, Note_on_c, 0, 68, 73
2, 404736, Note_on_c, 0, 76, 83
2, 404780, Note_off_c, 0, 76, 0
2, 404784, Note_on_c, 0, 78, 73
2, 404828, Note_off_c, 0, 78, 0
2, 404832, Note_on_c, 0, 76, 73
2, 404876, Note_off_c, 0, 76, 0
2, 404880, Note_on_c, 0, 78, 73
2, 404924, Note_off_c, 0, 78, 0
2, 404928, Note_on_c, 0, 76, 73
2, 404972, Note_off_c, 0, 76, 0
2, 404976, Note_on_c, 0, 78, 73
2, 405020, Note_off_c, 0, 78, 0
2, 405024, Note_on_c, 0, 76, 73
2, 405068, Note_off_c, 0, 76, 0
2, 405072, Note_on_c, 0, 78, 73
2, 405116, Note_off_c, 0, 68, 0
2, 405116, Note_off_c, 0, 78, 0
2, 405120, Note_on_c, 0, 76, 73
2, 405164, Note_off_c, 0, 76, 0
2, 405168, Note_on_c, 0, 78, 73
2, 405212, Note_off_c, 0, 78, 0
2, 405216, Note_on_c, 0, 76, 73
2, 405260, Note_off_c, 0, 76, 0
2, 405264, Note_on_c, 0, 78, 73
2, 405308, Note_off_c, 0, 78, 0
2, 405312, Note_on_c, 0, 76, 73
2, 405356, Note_off_c, 0, 76, 0
2, 405360, Note_on_c, 0, 78, 73
2, 405404, Note_off_c, 0, 78, 0
2, 405408, Note_on_c, 0, 76, 73
2, 405452, Note_off_c, 0, 76, 0
2, 405456, Note_on_c, 0, 78, 73
2, 405500, Note_off_c, 0, 74, 0
2, 405500, Note_off_c, 0, 78, 0
2, 405504, Note_on_c, 0, 64, 55
2, 405504, Note_on_c, 0, 57, 55
2, 405504, Note_on_c, 0, 74, 55
2, 405504, Note_on_c, 0, 76, 55
2, 405548, Note_off_c, 0, 76, 0
2, 405552, Note_on_c, 0, 78, 55
2, 405596, Note_off_c, 0, 78, 0
2, 405600, Note_on_c, 0, 76, 55
2, 405644, Note_off_c, 0, 76, 0
2, 405648, Note_on_c, 0, 78, 55
2, 405692, Note_off_c, 0, 64, 0
2, 405692, Note_off_c, 0, 57, 0
2, 405692, Note_off_c, 0, 74, 0
2, 405692, Note_off_c, 0, 78, 0
2, 405696, Note_on_c, 0, 64, 56
2, 405696, Note_on_c, 0, 57, 56
2, 405696, Note_on_c, 0, 76, 56
2, 405740, Note_off_c, 0, 76, 0
2, 405744, Note_on_c, 0, 78, 56
2, 405788, Note_off_c, 0, 78, 0
2, 405792, Note_on_c, 0, 76, 56
2, 405836, Note_off_c, 0, 76, 0
2, 405840, Note_on_c, 0, 78, 57
2, 405884, Note_off_c, 0, 78, 0
2, 405888, Note_on_c, 0, 76, 57
2, 405932, Note_off_c, 0, 76, 0
2, 405936, Note_on_c, 0, 78, 57
2, 405980, Note_off_c, 0, 78, 0
2, 405984, Note_on_c, 0, 76, 57
2, 406028, Note_off_c, 0, 76, 0
2, 406032, Note_on_c, 0, 78, 58
2, 406076, Note_off_c, 0, 64, 0
2, 406076, Note_off_c, 0, 57, 0
2, 406076, Note_off_c, 0, 78, 0
2, 406080, Note_on_c, 0, 69, 58
2, 406080, Note_on_c, 0, 61, 58
2, 406080, Note_on_c, 0, 76, 58
2, 406124, Note_off_c, 0, 76, 0
2, 406128, Note_on_c, 0, 78, 58
2, 406172, Note_off_c, 0, 78, 0
2, 406176, Note_on_c, 0, 76, 59
2, 406220, Note_off_c, 0, 76, 0
2, 406224, Note_on_c, 0, 78, 59
2, 406268, Note_off_c, 0, 78, 0
2, 406272, Note_on_c, 0, 76, 59
2, 406316, Note_off_c, 0, 76, 0
2, 406320, Note_on_c, 0, 78, 59
2, 406364, Note_off_c, 0, 78, 0
2, 406368, Note_on_c, 0, 76, 59
2, 406412, Note_off_c, 0, 76, 0
2, 406416, Note_on_c, 0, 78, 59
2, 406460, Note_off_c, 0, 69, 0
2, 406460, Note_off_c, 0, 61, 0
2, 406460, Note_off_c, 0, 78, 0
2, 406464, Note_on_c, 0, 73, 59
2, 406464, Note_on_c, 0, 64, 59
2, 406464, Note_on_c, 0, 76, 59
2, 406508, Note_off_c, 0, 76, 0
2, 406512, Note_on_c, 0, 78, 60
2, 406556, Note_off_c, 0, 78, 0
2, 406560, Note_on_c, 0, 76, 60
2, 406604, Note_off_c, 0, 76, 0
2, 406608, Note_on_c, 0, 78, 60
2, 406652, Note_off_c, 0, 78, 0
2, 406656, Note_on_c, 0, 76, 61
2, 406700, Note_off_c, 0, 76, 0
2, 406704, Note_on_c, 0, 78, 61
2, 406748, Note_off_c, 0, 78, 0
2, 406752, Note_on_c, 0, 76, 61
2, 406796, Note_off_c, 0, 76, 0
2, 406800, Note_on_c, 0, 78, 62
2, 406844, Note_off_c, 0, 73, 0
2, 406844, Note_off_c, 0, 64, 0
2, 406844, Note_off_c, 0, 78, 0
2, 406848, Note_on_c, 0, 76, 62
2, 406848, Note_on_c, 0, 67, 62
2, 406896, Note_on_c, 0, 78, 62
2, 406940, Note_off_c, 0, 78, 0
2, 406944, Note_on_c, 0, 76, 62
2, 406988, Note_off_c, 0, 76, 0
2, 406992, Note_on_c, 0, 78, 63
2, 407036, Note_off_c, 0, 78, 64
2, 407372, Note_off_c, 0, 67, 64
2, 407372, Note_off_c, 0, 76, 0
2, 407424, Note_on_c, 0, 73, 66
2, 407424, Note_on_c, 0, 81, 66
2, 407468, Note_off_c, 0, 81, 0
2, 407472, Note_on_c, 0, 83, 67
2, 407516, Note_off_c, 0, 83, 0
2, 407520, Note_on_c, 0, 81, 67
2, 407564, Note_off_c, 0, 81, 0
2, 407568, Note_on_c, 0, 83, 67
2, 407612, Note_off_c, 0, 73, 0
2, 407612, Note_off_c, 0, 83, 0
2, 407616, Note_on_c, 0, 69, 68
2, 407804, Note_off_c, 0, 69, 0
2, 407808, Note_on_c, 0, 76, 69
2, 407808, Note_on_c, 0, 85, 69
2, 407852, Note_off_c, 0, 85, 0
2, 407856, Note_on_c, 0, 86, 69
2, 407900, Note_off_c, 0, 86, 0
2, 407904, Note_on_c, 0, 85, 69
2, 407948, Note_off_c, 0, 85, 0
2, 407952, Note_on_c, 0, 86, 69
2, 407996, Note_off_c, 0, 76, 0
2, 407996, Note_off_c, 0, 86, 0
2, 408000, Note_on_c, 0, 69, 69
2, 408188, Note_off_c, 0, 69, 0
2, 408192, Note_on_c, 0, 79, 70
2, 408192, Note_on_c, 0, 88, 70
2, 408236, Note_off_c, 0, 88, 0
2, 408240, Note_on_c, 0, 90, 70
2, 408284, Note_off_c, 0, 90, 0
2, 408288, Note_on_c, 0, 88, 71
2, 408332, Note_off_c, 0, 88, 0
2, 408336, Note_on_c, 0, 90, 71
2, 408380, Note_off_c, 0, 79, 0
2, 408380, Note_off_c, 0, 90, 0
2, 408384, Note_on_c, 0, 69, 71
2, 408572, Note_off_c, 0, 69, 0
2, 408576, Note_on_c, 0, 79, 79
2, 408576, Note_on_c, 0, 88, 79
2, 408620, Note_off_c, 0, 88, 0
2, 408624, Note_on_c, 0, 90, 79
2, 408668, Note_off_c, 0, 90, 0
2, 408672, Note_on_c, 0, 88, 79
2, 408716, Note_off_c, 0, 88, 0
2, 408720, Note_on_c, 0, 90, 79
2, 408764, Note_off_c, 0, 90, 0
2, 408768, Note_on_c, 0, 88, 79
2, 408812, Note_off_c, 0, 88, 0
2, 408816, Note_on_c, 0, 90, 79
2, 408860, Note_off_c, 0, 90, 0
2, 408864, Note_on_c, 0, 88, 79
2, 408908, Note_off_c, 0, 88, 0
2, 408912, Note_on_c, 0, 90, 79
2, 408956, Note_off_c, 0, 90, 0
2, 408960, Note_on_c, 0, 88, 79
2, 409004, Note_off_c, 0, 88, 0
2, 409008, Note_on_c, 0, 90, 79
2, 409052, Note_off_c, 0, 90, 0
2, 409056, Note_on_c, 0, 88, 79
2, 409100, Note_off_c, 0, 88, 0
2, 409104, Note_on_c, 0, 90, 79
2, 409148, Note_off_c, 0, 90, 0
2, 409152, Note_on_c, 0, 88, 79
2, 409196, Note_off_c, 0, 88, 0
2, 409200, Note_on_c, 0, 90, 79
2, 409244, Note_off_c, 0, 90, 0
2, 409248, Note_on_c, 0, 88, 79
2, 409292, Note_off_c, 0, 88, 0
2, 409296, Note_on_c, 0, 90, 79
2, 409340, Note_off_c, 0, 90, 0
2, 409344, Note_on_c, 0, 88, 79
2, 409388, Note_off_c, 0, 88, 0
2, 409392, Note_on_c, 0, 90, 79
2, 409436, Note_off_c, 0, 90, 0
2, 409440, Note_on_c, 0, 88, 79
2, 409484, Note_off_c, 0, 88, 0
2, 409488, Note_on_c, 0, 90, 79
2, 409532, Note_off_c, 0, 90, 0
2, 409536, Note_on_c, 0, 88, 79
2, 409580, Note_off_c, 0, 88, 0
2, 409584, Note_on_c, 0, 90, 79
2, 409628, Note_off_c, 0, 90, 0
2, 409632, Note_on_c, 0, 88, 79
2, 409676, Note_off_c, 0, 88, 0
2, 409680, Note_on_c, 0, 90, 79
2, 409724, Note_off_c, 0, 90, 0
2, 409728, Note_on_c, 0, 88, 79
2, 409772, Note_off_c, 0, 88, 0
2, 409776, Note_on_c, 0, 90, 79
2, 409820, Note_off_c, 0, 90, 0
2, 409824, Note_on_c, 0, 88, 79
2, 409868, Note_off_c, 0, 88, 0
2, 409872, Note_on_c, 0, 90, 79
2, 409916, Note_off_c, 0, 90, 0
2, 409920, Note_on_c, 0, 86, 81
2, 409920, Note_on_c, 0, 79, 80
2, 410012, Note_off_c, 0, 86, 0
2, 410016, Note_on_c, 0, 88, 82
2, 410108, Note_off_c, 0, 79, 0
2, 410108, Note_off_c, 0, 79, 0
2, 410108, Note_off_c, 0, 88, 0
2, 410112, Note_on_c, 0, 78, 79
2, 410112, Note_on_c, 0, 86, 81
2, 410684, Note_off_c, 0, 78, 0
2, 410684, Note_off_c, 0, 86, 0
2, 410684, End_track
3, 0, Start_track
3, 0, Title_t, " #4  K218a    Midi by:"
3, 0, Control_c, 1, 0, 0
3, 0, Program_c, 1, 48
3, 0, Control_c, 1, 10, 45
3, 0, Control_c, 1, 91, 66
3, 0, Control_c, 1, 93, 2
3, 0, Key_signature, 2, "major"
3, 0, Control_c, 1, 121, 0
3, 144, Control_c, 1, 10, 53
3, 192, Control_c, 1, 91, 73
3, 288, Program_c, 1, 48
3, 1536, Note_on_c, 1, 62, 96
3, 1912, Note_off_c, 1, 62, 0
3, 1920, Note_on_c, 1, 62, 96
3, 2200, Note_off_c, 1, 62, 0
3, 2208, Note_on_c, 1, 62, 108
3, 2296, Note_off_c, 1, 62, 0
3, 2304, Note_on_c, 1, 62, 96
3, 2680, Note_off_c, 1, 62, 0
3, 2688, Note_on_c, 1, 62, 96
3, 3064, Note_off_c, 1, 62, 0
3, 3072, Note_on_c, 1, 62, 96
3, 3448, Note_off_c, 1, 62, 0
3, 3648, Note_on_c, 1, 66, 96
3, 3740, Note_off_c, 1, 66, 0
3, 3840, Note_on_c, 1, 69, 96
3, 4216, Note_off_c, 1, 69, 0
3, 4416, Note_on_c, 1, 66, 96
3, 4508, Note_off_c, 1, 66, 0
3, 4608, Note_on_c, 1, 62, 96
3, 4700, Note_off_c, 1, 62, 0
3, 4800, Note_on_c, 1, 66, 96
3, 4892, Note_off_c, 1, 66, 0
3, 4992, Note_on_c, 1, 69, 96
3, 5084, Note_off_c, 1, 69, 0
3, 5184, Note_on_c, 1, 66, 96
3, 5276, Note_off_c, 1, 66, 0
3, 5376, Note_on_c, 1, 62, 96
3, 5468, Note_off_c, 1, 62, 0
3, 5568, Note_on_c, 1, 66, 96
3, 5660, Note_off_c, 1, 66, 0
3, 5760, Note_on_c, 1, 69, 96
3, 5852, Note_off_c, 1, 69, 0
3, 5952, Note_on_c, 1, 66, 96
3, 6044, Note_off_c, 1, 66, 0
3, 6144, Note_on_c, 1, 62, 96
3, 6520, Note_off_c, 1, 62, 0
3, 7296, Note_on_c, 1, 83, 69
3, 7296, Note_on_c, 1, 86, 69
3, 7488, Note_off_c, 1, 83, 0
3, 7488, Note_off_c, 1, 86, 0
3, 7488, Note_on_c, 1, 85, 69
3, 7488, Note_on_c, 1, 82, 69
3, 7668, Note_off_c, 1, 85, 0
3, 7668, Note_off_c, 1, 82, 0
3, 7680, Note_on_c, 1, 86, 69
3, 7680, Note_on_c, 1, 83, 69
3, 7772, Note_off_c, 1, 86, 0
3, 7772, Note_off_c, 1, 83, 0
3, 8064, Note_on_c, 1, 85, 69
3, 8064, Note_on_c, 1, 81, 69
3, 8156, Note_off_c, 1, 85, 0
3, 8156, Note_off_c, 1, 81, 0
3, 8448, Note_on_c, 1, 83, 69
3, 8448, Note_on_c, 1, 79, 69
3, 8540, Note_off_c, 1, 83, 0
3, 8540, Note_off_c, 1, 79, 0
3, 8832, Note_on_c, 1, 81, 69
3, 8832, Note_on_c, 1, 78, 69
3, 8924, Note_off_c, 1, 81, 0
3, 8924, Note_off_c, 1, 78, 0
3, 9216, Note_on_c, 1, 79, 96
3, 9216, Note_on_c, 1, 83, 103
3, 9256, Note_off_c, 1, 83, 0
3, 9264, Note_on_c, 1, 85, 103
3, 9304, Note_off_c, 1, 85, 0
3, 9312, Note_on_c, 1, 83, 103
3, 9352, Note_off_c, 1, 83, 0
3, 9360, Note_on_c, 1, 85, 103
3, 9400, Note_off_c, 1, 85, 0
3, 9408, Note_on_c, 1, 83, 103
3, 9448, Note_off_c, 1, 83, 0
3, 9456, Note_on_c, 1, 85, 103
3, 9496, Note_off_c, 1, 85, 0
3, 9504, Note_on_c, 1, 81, 103
3, 9544, Note_off_c, 1, 81, 0
3, 9552, Note_on_c, 1, 83, 103
3, 9592, Note_off_c, 1, 79, 0
3, 9592, Note_off_c, 1, 83, 0
3, 9600, Note_on_c, 1, 78, 96
3, 9600, Note_on_c, 1, 81, 96
3, 9980, Note_off_c, 1, 78, 0
3, 9980, Note_off_c, 1, 81, 0
3, 10368, Note_on_c, 1, 83, 69
3, 10368, Note_on_c, 1, 74, 69
3, 10560, Note_off_c, 1, 83, 0
3, 10560, Note_off_c, 1, 74, 0
3, 10560, Note_on_c, 1, 82, 69
3, 10560, Note_on_c, 1, 73, 69
3, 10740, Note_off_c, 1, 82, 0
3, 10740, Note_off_c, 1, 73, 0
3, 10752, Note_on_c, 1, 83, 69
3, 10752, Note_on_c, 1, 74, 69
3, 10844, Note_off_c, 1, 83, 0
3, 10844, Note_off_c, 1, 74, 0
3, 11136, Note_on_c, 1, 81, 69
3, 11136, Note_on_c, 1, 73, 69
3, 11228, Note_off_c, 1, 81, 0
3, 11228, Note_off_c, 1, 73, 0
3, 11520, Note_on_c, 1, 79, 69
3, 11520, Note_on_c, 1, 71, 69
3, 11612, Note_off_c, 1, 79, 0
3, 11612, Note_off_c, 1, 71, 0
3, 11904, Note_on_c, 1, 78, 69
3, 11904, Note_on_c, 1, 69, 69
3, 11996, Note_off_c, 1, 78, 0
3, 11996, Note_off_c, 1, 69, 0
3, 12288, Note_on_c, 1, 71, 96
3, 12288, Note_on_c, 1, 79, 103
3, 12328, Note_off_c, 1, 79, 0
3, 12336, Note_on_c, 1, 81, 103
3, 12376, Note_off_c, 1, 81, 0
3, 12384, Note_on_c, 1, 79, 103
3, 12424, Note_off_c, 1, 79, 0
3, 12432, Note_on_c, 1, 81, 103
3, 12472, Note_off_c, 1, 81, 0
3, 12480, Note_on_c, 1, 79, 103
3, 12520, Note_off_c, 1, 79, 0
3, 12528, Note_on_c, 1, 81, 103
3, 12568, Note_off_c, 1, 81, 0
3, 12576, Note_on_c, 1, 78, 103
3, 12616, Note_off_c, 1, 78, 0
3, 12624, Note_on_c, 1, 79, 103
3, 12664, Note_off_c, 1, 71, 0
3, 12664, Note_off_c, 1, 79, 0
3, 12672, Note_on_c, 1, 69, 96
3, 12672, Note_on_c, 1, 78, 96
3, 13048, Note_off_c, 1, 69, 0
3, 13048, Note_off_c, 1, 78, 0
3, 13056, Note_on_c, 1, 86, 96
3, 13152, Note_off_c, 1, 86, 0
3, 13152, Note_on_c, 1, 74, 96
3, 13244, Note_off_c, 1, 74, 0
3, 13248, Note_on_c, 1, 73, 96
3, 13340, Note_off_c, 1, 73, 0
3, 13344, Note_on_c, 1, 74, 96
3, 13424, Note_off_c, 1, 74, 0
3, 13440, Note_on_c, 1, 88, 96
3, 13536, Note_off_c, 1, 88, 0
3, 13536, Note_on_c, 1, 86, 96
3, 13628, Note_off_c, 1, 86, 0
3, 13632, Note_on_c, 1, 85, 96
3, 13724, Note_off_c, 1, 85, 0
3, 13728, Note_on_c, 1, 86, 96
3, 13808, Note_off_c, 1, 86, 0
3, 13824, Note_on_c, 1, 81, 96
3, 13920, Note_on_c, 1, 74, 96
3, 14012, Note_off_c, 1, 74, 0
3, 14016, Note_on_c, 1, 73, 96
3, 14108, Note_off_c, 1, 73, 0
3, 14112, Note_on_c, 1, 74, 96
3, 14204, Note_off_c, 1, 74, 0
3, 14208, Note_on_c, 1, 76, 96
3, 14300, Note_off_c, 1, 76, 0
3, 14304, Note_on_c, 1, 74, 96
3, 14396, Note_off_c, 1, 81, 0
3, 14396, Note_off_c, 1, 74, 0
3, 14400, Note_on_c, 1, 82, 96
3, 14400, Note_on_c, 1, 73, 96
3, 14492, Note_off_c, 1, 73, 0
3, 14496, Note_on_c, 1, 74, 96
3, 14588, Note_off_c, 1, 82, 0
3, 14588, Note_off_c, 1, 74, 0
3, 14592, Note_on_c, 1, 83, 96
3, 14688, Note_off_c, 1, 83, 0
3, 14688, Note_on_c, 1, 74, 96
3, 14780, Note_off_c, 1, 74, 0
3, 14784, Note_on_c, 1, 73, 96
3, 14876, Note_off_c, 1, 73, 0
3, 14880, Note_on_c, 1, 74, 96
3, 14960, Note_off_c, 1, 74, 0
3, 14976, Note_on_c, 1, 85, 96
3, 15072, Note_off_c, 1, 85, 0
3, 15072, Note_on_c, 1, 83, 96
3, 15164, Note_off_c, 1, 83, 0
3, 15168, Note_on_c, 1, 82, 96
3, 15260, Note_off_c, 1, 82, 0
3, 15264, Note_on_c, 1, 83, 96
3, 15344, Note_off_c, 1, 83, 0
3, 15360, Note_on_c, 1, 76, 96
3, 15456, Note_off_c, 1, 76, 0
3, 15456, Note_on_c, 1, 74, 96
3, 15548, Note_off_c, 1, 74, 0
3, 15552, Note_on_c, 1, 73, 96
3, 15644, Note_off_c, 1, 73, 0
3, 15648, Note_on_c, 1, 74, 96
3, 15728, Note_off_c, 1, 74, 0
3, 15744, Note_on_c, 1, 76, 96
3, 15840, Note_off_c, 1, 76, 0
3, 15840, Note_on_c, 1, 74, 96
3, 15932, Note_off_c, 1, 74, 0
3, 15936, Note_on_c, 1, 78, 96
3, 16028, Note_off_c, 1, 78, 0
3, 16032, Note_on_c, 1, 74, 96
3, 16112, Note_off_c, 1, 74, 0
3, 16128, Note_on_c, 1, 79, 69
3, 16224, Note_off_c, 1, 79, 0
3, 16224, Note_on_c, 1, 74, 69
3, 16316, Note_off_c, 1, 74, 0
3, 16320, Note_on_c, 1, 79, 69
3, 16320, Note_on_c, 1, 73, 69
3, 16412, Note_off_c, 1, 79, 0
3, 16412, Note_off_c, 1, 73, 0
3, 16416, Note_on_c, 1, 74, 69
3, 16496, Note_off_c, 1, 74, 0
3, 16512, Note_on_c, 1, 74, 69
3, 16608, Note_off_c, 1, 74, 0
3, 16608, Note_on_c, 1, 73, 69
3, 16700, Note_off_c, 1, 73, 0
3, 16704, Note_on_c, 1, 78, 69
3, 16704, Note_on_c, 1, 71, 69
3, 16796, Note_off_c, 1, 78, 0
3, 16796, Note_off_c, 1, 71, 0
3, 16800, Note_on_c, 1, 73, 69
3, 16880, Note_off_c, 1, 73, 0
3, 16896, Note_on_c, 1, 76, 69
3, 16992, Note_off_c, 1, 76, 0
3, 16992, Note_on_c, 1, 71, 69
3, 17084, Note_off_c, 1, 71, 0
3, 17088, Note_on_c, 1, 76, 69
3, 17088, Note_on_c, 1, 70, 69
3, 17180, Note_off_c, 1, 76, 0
3, 17180, Note_off_c, 1, 70, 0
3, 17184, Note_on_c, 1, 71, 69
3, 17264, Note_off_c, 1, 71, 0
3, 17280, Note_on_c, 1, 71, 69
3, 17376, Note_off_c, 1, 71, 0
3, 17376, Note_on_c, 1, 69, 69
3, 17468, Note_off_c, 1, 69, 0
3, 17472, Note_on_c, 1, 74, 69
3, 17472, Note_on_c, 1, 68, 69
3, 17564, Note_off_c, 1, 74, 0
3, 17564, Note_off_c, 1, 68, 0
3, 17568, Note_on_c, 1, 69, 69
3, 17648, Note_off_c, 1, 69, 0
3, 17664, Note_on_c, 1, 67, 69
3, 17664, Note_on_c, 1, 73, 69
3, 17756, Note_off_c, 1, 67, 0
3, 17756, Note_off_c, 1, 73, 0
3, 17856, Note_on_c, 1, 74, 69
3, 17856, Note_on_c, 1, 66, 69
3, 17948, Note_off_c, 1, 74, 0
3, 17948, Note_off_c, 1, 66, 0
3, 18048, Note_on_c, 1, 78, 69
3, 18048, Note_on_c, 1, 69, 69
3, 18144, Note_off_c, 1, 78, 0
3, 18144, Note_off_c, 1, 69, 0
3, 18144, Note_on_c, 1, 76, 69
3, 18144, Note_on_c, 1, 67, 69
3, 18236, Note_off_c, 1, 76, 0
3, 18236, Note_off_c, 1, 67, 0
3, 18240, Note_on_c, 1, 74, 69
3, 18240, Note_on_c, 1, 66, 69
3, 18332, Note_off_c, 1, 74, 0
3, 18332, Note_off_c, 1, 66, 0
3, 18336, Note_on_c, 1, 73, 69
3, 18336, Note_on_c, 1, 64, 69
3, 18416, Note_off_c, 1, 73, 0
3, 18416, Note_off_c, 1, 64, 0
3, 18432, Note_on_c, 1, 74, 69
3, 18432, Note_on_c, 1, 66, 69
3, 18616, Note_off_c, 1, 74, 0
3, 18616, Note_off_c, 1, 66, 0
3, 18624, Note_on_c, 1, 76, 69
3, 18716, Note_off_c, 1, 76, 0
3, 18720, Note_on_c, 1, 78, 72
3, 18812, Note_off_c, 1, 78, 0
3, 18816, Note_on_c, 1, 79, 77
3, 18908, Note_off_c, 1, 79, 0
3, 18912, Note_on_c, 1, 81, 81
3, 19004, Note_off_c, 1, 81, 0
3, 19008, Note_on_c, 1, 83, 86
3, 19100, Note_off_c, 1, 83, 0
3, 19104, Note_on_c, 1, 85, 92
3, 19196, Note_off_c, 1, 85, 0
3, 19200, Note_on_c, 1, 86, 96
3, 19296, Note_off_c, 1, 86, 0
3, 19296, Note_on_c, 1, 74, 96
3, 19388, Note_off_c, 1, 74, 0
3, 19392, Note_on_c, 1, 73, 96
3, 19484, Note_off_c, 1, 73, 0
3, 19488, Note_on_c, 1, 74, 96
3, 19568, Note_off_c, 1, 74, 0
3, 19584, Note_on_c, 1, 88, 96
3, 19680, Note_off_c, 1, 88, 0
3, 19680, Note_on_c, 1, 86, 96
3, 19772, Note_off_c, 1, 86, 0
3, 19776, Note_on_c, 1, 85, 96
3, 19868, Note_off_c, 1, 85, 0
3, 19872, Note_on_c, 1, 86, 96
3, 19952, Note_off_c, 1, 86, 0
3, 19968, Note_on_c, 1, 81, 96
3, 19968, Note_on_c, 1, 81, 96
3, 20060, Note_off_c, 1, 81, 0
3, 20064, Note_on_c, 1, 74, 96
3, 20156, Note_off_c, 1, 74, 0
3, 20160, Note_on_c, 1, 73, 96
3, 20252, Note_off_c, 1, 73, 0
3, 20256, Note_on_c, 1, 74, 96
3, 20348, Note_off_c, 1, 74, 0
3, 20352, Note_on_c, 1, 76, 96
3, 20444, Note_off_c, 1, 76, 0
3, 20448, Note_on_c, 1, 74, 96
3, 20536, Note_off_c, 1, 81, 0
3, 20540, Note_off_c, 1, 74, 0
3, 20544, Note_on_c, 1, 82, 96
3, 20544, Note_on_c, 1, 73, 96
3, 20636, Note_off_c, 1, 73, 0
3, 20640, Note_on_c, 1, 74, 96
3, 20728, Note_off_c, 1, 82, 0
3, 20732, Note_off_c, 1, 74, 0
3, 20736, Note_on_c, 1, 83, 96
3, 20832, Note_off_c, 1, 83, 0
3, 20832, Note_on_c, 1, 74, 96
3, 20924, Note_off_c, 1, 74, 0
3, 20928, Note_on_c, 1, 73, 96
3, 21020, Note_off_c, 1, 73, 0
3, 21024, Note_on_c, 1, 74, 96
3, 21104, Note_off_c, 1, 74, 0
3, 21120, Note_on_c, 1, 85, 96
3, 21216, Note_off_c, 1, 85, 0
3, 21216, Note_on_c, 1, 83, 96
3, 21308, Note_off_c, 1, 83, 0
3, 21312, Note_on_c, 1, 82, 96
3, 21404, Note_off_c, 1, 82, 0
3, 21408, Note_on_c, 1, 83, 96
3, 21488, Note_off_c, 1, 83, 0
3, 21504, Note_on_c, 1, 76, 96
3, 21600, Note_off_c, 1, 76, 0
3, 21600, Note_on_c, 1, 74, 96
3, 21692, Note_off_c, 1, 74, 0
3, 21696, Note_on_c, 1, 73, 96
3, 21788, Note_off_c, 1, 73, 0
3, 21792, Note_on_c, 1, 74, 96
3, 21872, Note_off_c, 1, 74, 0
3, 21888, Note_on_c, 1, 76, 96
3, 21984, Note_off_c, 1, 76, 0
3, 21984, Note_on_c, 1, 74, 96
3, 22076, Note_off_c, 1, 74, 0
3, 22080, Note_on_c, 1, 78, 96
3, 22172, Note_off_c, 1, 78, 0
3, 22176, Note_on_c, 1, 74, 96
3, 22256, Note_off_c, 1, 74, 0
3, 22272, Note_on_c, 1, 79, 69
3, 22368, Note_off_c, 1, 79, 0
3, 22368, Note_on_c, 1, 74, 69
3, 22460, Note_off_c, 1, 74, 0
3, 22464, Note_on_c, 1, 79, 69
3, 22464, Note_on_c, 1, 73, 69
3, 22556, Note_off_c, 1, 79, 0
3, 22556, Note_off_c, 1, 73, 0
3, 22560, Note_on_c, 1, 74, 69
3, 22640, Note_off_c, 1, 74, 0
3, 22656, Note_on_c, 1, 76, 69
3, 22752, Note_off_c, 1, 76, 0
3, 22752, Note_on_c, 1, 74, 69
3, 22844, Note_off_c, 1, 74, 0
3, 22848, Note_on_c, 1, 73, 69
3, 22848, Note_on_c, 1, 78, 69
3, 22940, Note_off_c, 1, 73, 0
3, 22940, Note_off_c, 1, 78, 0
3, 22944, Note_on_c, 1, 74, 69
3, 23024, Note_off_c, 1, 74, 0
3, 23040, Note_on_c, 1, 83, 69
3, 23132, Note_off_c, 1, 83, 0
3, 23136, Note_on_c, 1, 74, 69
3, 23228, Note_off_c, 1, 74, 0
3, 23232, Note_on_c, 1, 83, 69
3, 23232, Note_on_c, 1, 73, 69
3, 23324, Note_off_c, 1, 83, 0
3, 23324, Note_off_c, 1, 73, 0
3, 23328, Note_on_c, 1, 74, 69
3, 23420, Note_off_c, 1, 74, 0
3, 23424, Note_on_c, 1, 76, 69
3, 23516, Note_off_c, 1, 76, 0
3, 23520, Note_on_c, 1, 74, 69
3, 23612, Note_off_c, 1, 74, 0
3, 23616, Note_on_c, 1, 73, 69
3, 23616, Note_on_c, 1, 81, 69
3, 23708, Note_off_c, 1, 73, 0
3, 23708, Note_off_c, 1, 81, 0
3, 23712, Note_on_c, 1, 74, 69
3, 23804, Note_off_c, 1, 74, 0
3, 23808, Note_on_c, 1, 79, 69
3, 23900, Note_off_c, 1, 79, 0
3, 23904, Note_on_c, 1, 73, 69
3, 23996, Note_off_c, 1, 73, 0
3, 24000, Note_on_c, 1, 71, 69
3, 24000, Note_on_c, 1, 79, 69
3, 24092, Note_off_c, 1, 71, 0
3, 24092, Note_off_c, 1, 79, 0
3, 24096, Note_on_c, 1, 73, 69
3, 24188, Note_off_c, 1, 73, 0
3, 24192, Note_on_c, 1, 73, 69
3, 24284, Note_off_c, 1, 73, 0
3, 24288, Note_on_c, 1, 74, 69
3, 24380, Note_off_c, 1, 74, 0
3, 24384, Note_on_c, 1, 76, 69
3, 24384, Note_on_c, 1, 78, 69
3, 24476, Note_off_c, 1, 76, 0
3, 24476, Note_off_c, 1, 78, 0
3, 24480, Note_on_c, 1, 74, 69
3, 24572, Note_off_c, 1, 74, 0
3, 24576, Note_on_c, 1, 76, 69
3, 24576, Note_on_c, 1, 73, 69
3, 24760, Note_off_c, 1, 76, 0
3, 24760, Note_off_c, 1, 73, 0
3, 24768, Note_on_c, 1, 69, 96
3, 24860, Note_off_c, 1, 69, 0
3, 24864, Note_on_c, 1, 71, 96
3, 24956, Note_off_c, 1, 71, 0
3, 24960, Note_on_c, 1, 74, 96
3, 25056, Note_off_c, 1, 74, 0
3, 25056, Note_on_c, 1, 73, 96
3, 25136, Note_off_c, 1, 73, 0
3, 25152, Note_on_c, 1, 71, 96
3, 25244, Note_off_c, 1, 71, 0
3, 25248, Note_on_c, 1, 69, 96
3, 25340, Note_off_c, 1, 69, 0
3, 25344, Note_on_c, 1, 79, 96
3, 25440, Note_off_c, 1, 79, 0
3, 25440, Note_on_c, 1, 78, 96
3, 25520, Note_off_c, 1, 78, 0
3, 25536, Note_on_c, 1, 76, 96
3, 25628, Note_off_c, 1, 76, 0
3, 25632, Note_on_c, 1, 74, 96
3, 25724, Note_off_c, 1, 74, 0
3, 25728, Note_on_c, 1, 86, 108
3, 25728, Note_on_c, 1, 81, 108
3, 25728, Note_on_c, 1, 78, 108
3, 26104, Note_off_c, 1, 86, 0
3, 26104, Note_off_c, 1, 81, 0
3, 26104, Note_off_c, 1, 78, 0
3, 26112, Note_on_c, 1, 81, 108
3, 26112, Note_on_c, 1, 85, 108
3, 26112, Note_on_c, 1, 76, 108
3, 26300, Note_off_c, 1, 81, 0
3, 26300, Note_off_c, 1, 85, 0
3, 26300, Note_off_c, 1, 76, 0
3, 26304, Note_on_c, 1, 69, 96
3, 26396, Note_off_c, 1, 69, 0
3, 26400, Note_on_c, 1, 71, 96
3, 26492, Note_off_c, 1, 71, 0
3, 26496, Note_on_c, 1, 74, 96
3, 26592, Note_off_c, 1, 74, 0
3, 26592, Note_on_c, 1, 73, 96
3, 26672, Note_off_c, 1, 73, 0
3, 26688, Note_on_c, 1, 71, 96
3, 26780, Note_off_c, 1, 71, 0
3, 26784, Note_on_c, 1, 69, 96
3, 26876, Note_off_c, 1, 69, 0
3, 26880, Note_on_c, 1, 79, 96
3, 26976, Note_off_c, 1, 79, 0
3, 26976, Note_on_c, 1, 78, 96
3, 27056, Note_off_c, 1, 78, 0
3, 27072, Note_on_c, 1, 76, 96
3, 27164, Note_off_c, 1, 76, 0
3, 27168, Note_on_c, 1, 74, 96
3, 27260, Note_off_c, 1, 74, 0
3, 27264, Note_on_c, 1, 86, 108
3, 27264, Note_on_c, 1, 81, 108
3, 27264, Note_on_c, 1, 78, 108
3, 27644, Note_off_c, 1, 86, 0
3, 27644, Note_off_c, 1, 81, 0
3, 27644, Note_off_c, 1, 78, 0
3, 27648, Note_on_c, 1, 85, 108
3, 27648, Note_on_c, 1, 81, 108
3, 27648, Note_on_c, 1, 76, 110
3, 27832, Note_off_c, 1, 85, 0
3, 27832, Note_off_c, 1, 81, 0
3, 27832, Note_off_c, 1, 76, 0
3, 28032, Note_on_c, 1, 69, 96
3, 28216, Note_off_c, 1, 69, 0
3, 28608, Note_on_c, 1, 69, 69
3, 28800, Note_off_c, 1, 69, 0
3, 28800, Note_on_c, 1, 68, 69
3, 28984, Note_off_c, 1, 68, 0
3, 28992, Note_on_c, 1, 69, 69
3, 29176, Note_off_c, 1, 69, 0
3, 29184, Note_on_c, 1, 71, 69
3, 29368, Note_off_c, 1, 71, 0
3, 29376, Note_on_c, 1, 69, 69
3, 29560, Note_off_c, 1, 69, 0
3, 29568, Note_on_c, 1, 68, 69
3, 29752, Note_off_c, 1, 68, 0
3, 29760, Note_on_c, 1, 69, 69
3, 29932, Note_off_c, 1, 69, 0
3, 29952, Note_on_c, 1, 67, 69
3, 30144, Note_off_c, 1, 67, 0
3, 30144, Note_on_c, 1, 66, 69
3, 30328, Note_off_c, 1, 66, 0
3, 30336, Note_on_c, 1, 64, 69
3, 30520, Note_off_c, 1, 64, 0
3, 30528, Note_on_c, 1, 62, 69
3, 30700, Note_off_c, 1, 62, 0
3, 30720, Note_on_c, 1, 61, 96
3, 30720, Note_on_c, 1, 57, 96
3, 30904, Note_off_c, 1, 61, 0
3, 30904, Note_off_c, 1, 57, 0
3, 30912, Note_on_c, 1, 64, 96
3, 30912, Note_on_c, 1, 61, 96
3, 31096, Note_off_c, 1, 64, 0
3, 31096, Note_off_c, 1, 61, 0
3, 31104, Note_on_c, 1, 67, 96
3, 31104, Note_on_c, 1, 64, 96
3, 31480, Note_off_c, 1, 67, 0
3, 31480, Note_off_c, 1, 64, 0
3, 31680, Note_on_c, 1, 66, 69
3, 31776, Note_off_c, 1, 66, 0
3, 31776, Note_on_c, 1, 67, 69
3, 31856, Note_off_c, 1, 67, 0
3, 31872, Note_on_c, 1, 69, 69
3, 31968, Note_off_c, 1, 69, 0
3, 31968, Note_on_c, 1, 67, 69
3, 32048, Note_off_c, 1, 67, 0
3, 32064, Note_on_c, 1, 66, 69
3, 32156, Note_off_c, 1, 66, 0
3, 32160, Note_on_c, 1, 64, 69
3, 32252, Note_off_c, 1, 64, 0
3, 32256, Note_on_c, 1, 62, 69
3, 32448, Note_off_c, 1, 62, 0
3, 32448, Note_on_c, 1, 63, 69
3, 32632, Note_off_c, 1, 63, 0
3, 32640, Note_on_c, 1, 64, 69
3, 32824, Note_off_c, 1, 64, 0
3, 32832, Note_on_c, 1, 65, 69
3, 33000, Note_off_c, 1, 65, 0
3, 33024, Note_on_c, 1, 66, 69
3, 33216, Note_off_c, 1, 66, 0
3, 33216, Note_on_c, 1, 62, 69
3, 33400, Note_off_c, 1, 62, 0
3, 33408, Note_on_c, 1, 67, 69
3, 33408, Note_on_c, 1, 64, 69
3, 33408, Note_on_c, 1, 59, 69
3, 33592, Note_off_c, 1, 67, 0
3, 33592, Note_off_c, 1, 64, 0
3, 33592, Note_off_c, 1, 59, 0
3, 33600, Note_on_c, 1, 66, 69
3, 33600, Note_on_c, 1, 62, 69
3, 33768, Note_off_c, 1, 66, 0
3, 33768, Note_off_c, 1, 62, 0
3, 33792, Note_on_c, 1, 66, 69
3, 33792, Note_on_c, 1, 62, 69
3, 34552, Note_off_c, 1, 66, 0
3, 34552, Note_off_c, 1, 62, 0
3, 34560, Note_on_c, 1, 64, 69
3, 34560, Note_on_c, 1, 61, 69
3, 34744, Note_off_c, 1, 64, 0
3, 34744, Note_off_c, 1, 61, 0
3, 34752, Note_on_c, 1, 69, 69
3, 34944, Note_off_c, 1, 69, 0
3, 34944, Note_on_c, 1, 68, 69
3, 35128, Note_off_c, 1, 68, 0
3, 35136, Note_on_c, 1, 69, 69
3, 35320, Note_off_c, 1, 69, 0
3, 35328, Note_on_c, 1, 71, 69
3, 35512, Note_off_c, 1, 71, 0
3, 35520, Note_on_c, 1, 69, 69
3, 35704, Note_off_c, 1, 69, 0
3, 35712, Note_on_c, 1, 68, 69
3, 35896, Note_off_c, 1, 68, 0
3, 35904, Note_on_c, 1, 69, 69
3, 36076, Note_off_c, 1, 69, 0
3, 36096, Note_on_c, 1, 67, 69
3, 36288, Note_off_c, 1, 67, 0
3, 36288, Note_on_c, 1, 66, 69
3, 36472, Note_off_c, 1, 66, 0
3, 36480, Note_on_c, 1, 64, 69
3, 36664, Note_off_c, 1, 64, 0
3, 36672, Note_on_c, 1, 62, 69
3, 36844, Note_off_c, 1, 62, 0
3, 36864, Note_on_c, 1, 61, 96
3, 36864, Note_on_c, 1, 57, 96
3, 37048, Note_off_c, 1, 61, 0
3, 37048, Note_off_c, 1, 57, 0
3, 37056, Note_on_c, 1, 64, 96
3, 37056, Note_on_c, 1, 61, 96
3, 37240, Note_off_c, 1, 64, 0
3, 37240, Note_off_c, 1, 61, 0
3, 37248, Note_on_c, 1, 64, 96
3, 37248, Note_on_c, 1, 67, 96
3, 37624, Note_off_c, 1, 64, 0
3, 37624, Note_off_c, 1, 67, 0
3, 37824, Note_on_c, 1, 66, 69
3, 37920, Note_off_c, 1, 66, 0
3, 37920, Note_on_c, 1, 67, 69
3, 38000, Note_off_c, 1, 67, 0
3, 38016, Note_on_c, 1, 69, 69
3, 38112, Note_off_c, 1, 69, 0
3, 38112, Note_on_c, 1, 67, 69
3, 38192, Note_off_c, 1, 67, 0
3, 38208, Note_on_c, 1, 66, 69
3, 38300, Note_off_c, 1, 66, 0
3, 38304, Note_on_c, 1, 64, 69
3, 38396, Note_off_c, 1, 64, 0
3, 38400, Note_on_c, 1, 69, 69
3, 38400, Note_on_c, 1, 62, 69
3, 38592, Note_off_c, 1, 69, 0
3, 38592, Note_on_c, 1, 70, 69
3, 38776, Note_off_c, 1, 70, 0
3, 38784, Note_on_c, 1, 71, 69
3, 38968, Note_off_c, 1, 62, 0
3, 38968, Note_off_c, 1, 71, 0
3, 38976, Note_on_c, 1, 64, 69
3, 38976, Note_on_c, 1, 62, 69
3, 39148, Note_off_c, 1, 64, 0
3, 39148, Note_off_c, 1, 62, 0
3, 39168, Note_on_c, 1, 62, 69
3, 39168, Note_on_c, 1, 66, 69
3, 39544, Note_off_c, 1, 62, 0
3, 39544, Note_off_c, 1, 66, 0
3, 39552, Note_on_c, 1, 61, 69
3, 39552, Note_on_c, 1, 66, 69
3, 39736, Note_off_c, 1, 66, 0
3, 39744, Note_on_c, 1, 64, 69
3, 39928, Note_off_c, 1, 64, 0
3, 39932, Note_off_c, 1, 61, 0
3, 39936, Note_on_c, 1, 62, 69
3, 40124, Note_off_c, 1, 62, 0
3, 40128, Note_on_c, 1, 69, 69
3, 40224, Note_off_c, 1, 69, 0
3, 40224, Note_on_c, 1, 71, 69
3, 40304, Note_off_c, 1, 71, 0
3, 40320, Note_on_c, 1, 67, 69
3, 40412, Note_off_c, 1, 67, 0
3, 40512, Note_on_c, 1, 67, 69
3, 40608, Note_off_c, 1, 67, 0
3, 40608, Note_on_c, 1, 69, 69
3, 40688, Note_off_c, 1, 69, 0
3, 40704, Note_on_c, 1, 66, 69
3, 40796, Note_off_c, 1, 66, 0
3, 40896, Note_on_c, 1, 66, 69
3, 40896, Note_on_c, 1, 69, 69
3, 40992, Note_off_c, 1, 66, 0
3, 40992, Note_off_c, 1, 69, 0
3, 40992, Note_on_c, 1, 67, 69
3, 41080, Note_off_c, 1, 67, 0
3, 41088, Note_on_c, 1, 64, 69
3, 41088, Note_on_c, 1, 69, 69
3, 41132, Note_off_c, 1, 64, 0
3, 41180, Note_off_c, 1, 69, 0
3, 41184, Note_on_c, 1, 66, 69
3, 41228, Note_off_c, 1, 66, 0
3, 41280, Note_on_c, 1, 67, 69
3, 41280, Note_on_c, 1, 69, 69
3, 41324, Note_off_c, 1, 67, 0
3, 41372, Note_off_c, 1, 69, 0
3, 41376, Note_on_c, 1, 64, 69
3, 41420, Note_off_c, 1, 64, 0
3, 41472, Note_on_c, 1, 66, 69
3, 41472, Note_on_c, 1, 74, 69
3, 41660, Note_off_c, 1, 66, 0
3, 41664, Note_on_c, 1, 66, 69
3, 41760, Note_off_c, 1, 66, 0
3, 41760, Note_on_c, 1, 67, 69
3, 41848, Note_off_c, 1, 67, 0
3, 41856, Note_off_c, 1, 74, 0
3, 41856, Note_on_c, 1, 64, 69
3, 41856, Note_on_c, 1, 69, 69
3, 41948, Note_off_c, 1, 64, 0
3, 42028, Note_off_c, 1, 69, 0
3, 42048, Note_on_c, 1, 64, 69
3, 42144, Note_off_c, 1, 64, 0
3, 42144, Note_on_c, 1, 66, 69
3, 42232, Note_off_c, 1, 66, 0
3, 42240, Note_on_c, 1, 62, 69
3, 42332, Note_off_c, 1, 62, 0
3, 42432, Note_on_c, 1, 62, 69
3, 42432, Note_on_c, 1, 69, 69
3, 42528, Note_off_c, 1, 62, 0
3, 42528, Note_off_c, 1, 69, 0
3, 42528, Note_on_c, 1, 64, 69
3, 42616, Note_off_c, 1, 64, 0
3, 42624, Note_on_c, 1, 61, 69
3, 42624, Note_on_c, 1, 69, 69
3, 42668, Note_off_c, 1, 61, 0
3, 42716, Note_off_c, 1, 69, 0
3, 42720, Note_on_c, 1, 62, 69
3, 42764, Note_off_c, 1, 62, 0
3, 42816, Note_on_c, 1, 64, 69
3, 42816, Note_on_c, 1, 69, 69
3, 42860, Note_off_c, 1, 64, 0
3, 42908, Note_off_c, 1, 69, 0
3, 42912, Note_on_c, 1, 61, 69
3, 42956, Note_off_c, 1, 61, 0
3, 43008, Note_on_c, 1, 62, 69
3, 43008, Note_on_c, 1, 74, 69
3, 43100, Note_off_c, 1, 62, 0
3, 43200, Note_on_c, 1, 69, 69
3, 43296, Note_off_c, 1, 69, 0
3, 43296, Note_on_c, 1, 71, 69
3, 43384, Note_off_c, 1, 71, 0
3, 43392, Note_off_c, 1, 74, 0
3, 43392, Note_on_c, 1, 67, 69
3, 43392, Note_on_c, 1, 69, 69
3, 43484, Note_off_c, 1, 67, 0
3, 43564, Note_off_c, 1, 69, 0
3, 43584, Note_on_c, 1, 67, 69
3, 43680, Note_off_c, 1, 67, 0
3, 43680, Note_on_c, 1, 69, 69
3, 43768, Note_off_c, 1, 69, 0
3, 43776, Note_on_c, 1, 66, 69
3, 43868, Note_off_c, 1, 66, 0
3, 43968, Note_on_c, 1, 66, 69
3, 43968, Note_on_c, 1, 69, 69
3, 44064, Note_off_c, 1, 66, 0
3, 44064, Note_off_c, 1, 69, 0
3, 44064, Note_on_c, 1, 67, 69
3, 44152, Note_off_c, 1, 67, 0
3, 44160, Note_on_c, 1, 64, 69
3, 44160, Note_on_c, 1, 69, 69
3, 44204, Note_off_c, 1, 64, 0
3, 44252, Note_off_c, 1, 69, 0
3, 44256, Note_on_c, 1, 66, 69
3, 44300, Note_off_c, 1, 66, 0
3, 44352, Note_on_c, 1, 67, 69
3, 44352, Note_on_c, 1, 69, 69
3, 44396, Note_off_c, 1, 67, 0
3, 44444, Note_off_c, 1, 69, 0
3, 44448, Note_on_c, 1, 64, 69
3, 44492, Note_off_c, 1, 64, 0
3, 44544, Note_on_c, 1, 66, 69
3, 44544, Note_on_c, 1, 74, 69
3, 44636, Note_off_c, 1, 66, 0
3, 44736, Note_on_c, 1, 66, 69
3, 44832, Note_off_c, 1, 66, 0
3, 44832, Note_on_c, 1, 67, 69
3, 44920, Note_off_c, 1, 67, 0
3, 44928, Note_off_c, 1, 74, 0
3, 44928, Note_on_c, 1, 64, 69
3, 44928, Note_on_c, 1, 69, 69
3, 45020, Note_off_c, 1, 64, 0
3, 45100, Note_off_c, 1, 69, 0
3, 45120, Note_on_c, 1, 64, 69
3, 45216, Note_off_c, 1, 64, 0
3, 45216, Note_on_c, 1, 66, 69
3, 45304, Note_off_c, 1, 66, 0
3, 45312, Note_on_c, 1, 62, 69
3, 45404, Note_off_c, 1, 62, 0
3, 45504, Note_on_c, 1, 62, 69
3, 45504, Note_on_c, 1, 69, 69
3, 45600, Note_off_c, 1, 62, 0
3, 45600, Note_off_c, 1, 69, 0
3, 45600, Note_on_c, 1, 64, 69
3, 45688, Note_off_c, 1, 64, 0
3, 45696, Note_on_c, 1, 61, 69
3, 45696, Note_on_c, 1, 69, 69
3, 45788, Note_off_c, 1, 61, 0
3, 45788, Note_off_c, 1, 69, 0
3, 45792, Note_on_c, 1, 62, 69
3, 45884, Note_off_c, 1, 62, 0
3, 45888, Note_on_c, 1, 64, 69
3, 45888, Note_on_c, 1, 69, 69
3, 45980, Note_off_c, 1, 64, 0
3, 45980, Note_off_c, 1, 69, 0
3, 45984, Note_on_c, 1, 61, 69
3, 46076, Note_off_c, 1, 61, 0
3, 46080, Note_on_c, 1, 74, 69
3, 46080, Note_on_c, 1, 62, 69
3, 46172, Note_off_c, 1, 62, 0
3, 46176, Note_on_c, 1, 64, 69
3, 46268, Note_off_c, 1, 64, 0
3, 46272, Note_on_c, 1, 66, 69
3, 46364, Note_off_c, 1, 66, 0
3, 46368, Note_on_c, 1, 67, 69
3, 46460, Note_off_c, 1, 67, 0
3, 46464, Note_off_c, 1, 74, 0
3, 46464, Note_on_c, 1, 69, 69
3, 46464, Note_on_c, 1, 69, 69
3, 46556, Note_off_c, 1, 69, 0
3, 46560, Note_on_c, 1, 71, 70
3, 46640, Note_off_c, 1, 69, 0
3, 46652, Note_off_c, 1, 71, 0
3, 46656, Note_on_c, 1, 73, 72
3, 46748, Note_off_c, 1, 73, 0
3, 46752, Note_on_c, 1, 74, 73
3, 46844, Note_off_c, 1, 74, 0
3, 46848, Note_on_c, 1, 74, 86
3, 46940, Note_off_c, 1, 74, 0
3, 46944, Note_on_c, 1, 76, 88
3, 47036, Note_off_c, 1, 76, 0
3, 47040, Note_on_c, 1, 78, 89
3, 47132, Note_off_c, 1, 78, 0
3, 47136, Note_on_c, 1, 79, 90
3, 47228, Note_off_c, 1, 79, 0
3, 47232, Note_on_c, 1, 81, 92
3, 47324, Note_off_c, 1, 81, 0
3, 47328, Note_on_c, 1, 83, 92
3, 47420, Note_off_c, 1, 83, 0
3, 47424, Note_on_c, 1, 85, 93
3, 47516, Note_off_c, 1, 85, 0
3, 47520, Note_on_c, 1, 86, 94
3, 47612, Note_off_c, 1, 86, 0
3, 47616, Note_on_c, 1, 85, 96
3, 47616, Note_on_c, 1, 76, 96
3, 47708, Note_off_c, 1, 85, 0
3, 47708, Note_off_c, 1, 76, 0
3, 47808, Note_on_c, 1, 85, 69
3, 47808, Note_on_c, 1, 76, 69
3, 47900, Note_off_c, 1, 85, 0
3, 47900, Note_off_c, 1, 76, 0
3, 48000, Note_on_c, 1, 83, 69
3, 48000, Note_on_c, 1, 74, 69
3, 48092, Note_off_c, 1, 83, 0
3, 48092, Note_off_c, 1, 74, 0
3, 48192, Note_on_c, 1, 83, 69
3, 48192, Note_on_c, 1, 74, 69
3, 48284, Note_off_c, 1, 83, 0
3, 48284, Note_off_c, 1, 74, 0
3, 48384, Note_on_c, 1, 81, 69
3, 48384, Note_on_c, 1, 73, 69
3, 48476, Note_off_c, 1, 81, 0
3, 48476, Note_off_c, 1, 73, 0
3, 48576, Note_on_c, 1, 81, 69
3, 48576, Note_on_c, 1, 73, 69
3, 48668, Note_off_c, 1, 81, 0
3, 48668, Note_off_c, 1, 73, 0
3, 48768, Note_on_c, 1, 79, 69
3, 48768, Note_on_c, 1, 71, 69
3, 48860, Note_off_c, 1, 79, 0
3, 48860, Note_off_c, 1, 71, 0
3, 48960, Note_on_c, 1, 79, 69
3, 48960, Note_on_c, 1, 71, 69
3, 49052, Note_off_c, 1, 79, 0
3, 49052, Note_off_c, 1, 71, 0
3, 49152, Note_on_c, 1, 78, 69
3, 49152, Note_on_c, 1, 72, 69
3, 49152, Note_on_c, 1, 69, 69
3, 49244, Note_off_c, 1, 78, 0
3, 49244, Note_off_c, 1, 72, 0
3, 49244, Note_off_c, 1, 69, 0
3, 49344, Note_on_c, 1, 78, 69
3, 49344, Note_on_c, 1, 72, 69
3, 49344, Note_on_c, 1, 69, 69
3, 49436, Note_off_c, 1, 78, 0
3, 49436, Note_off_c, 1, 72, 0
3, 49436, Note_off_c, 1, 69, 0
3, 49536, Note_on_c, 1, 69, 69
3, 49536, Note_on_c, 1, 72, 69
3, 49536, Note_on_c, 1, 66, 69
3, 49536, Note_on_c, 1, 60, 69
3, 49628, Note_off_c, 1, 69, 0
3, 49628, Note_off_c, 1, 72, 0
3, 49628, Note_off_c, 1, 66, 0
3, 49628, Note_off_c, 1, 60, 0
3, 49728, Note_on_c, 1, 69, 69
3, 49728, Note_on_c, 1, 66, 69
3, 49728, Note_on_c, 1, 60, 69
3, 49820, Note_off_c, 1, 69, 0
3, 49820, Note_off_c, 1, 66, 0
3, 49820, Note_off_c, 1, 60, 0
3, 49920, Note_on_c, 1, 68, 69
3, 49920, Note_on_c, 1, 64, 69
3, 49920, Note_on_c, 1, 59, 69
3, 50012, Note_off_c, 1, 68, 0
3, 50012, Note_off_c, 1, 64, 0
3, 50012, Note_off_c, 1, 59, 0
3, 50112, Note_on_c, 1, 68, 69
3, 50112, Note_on_c, 1, 64, 69
3, 50112, Note_on_c, 1, 59, 69
3, 50204, Note_off_c, 1, 68, 0
3, 50204, Note_off_c, 1, 64, 0
3, 50204, Note_off_c, 1, 59, 0
3, 50304, Note_on_c, 1, 67, 69
3, 50304, Note_on_c, 1, 64, 69
3, 50304, Note_on_c, 1, 58, 69
3, 50396, Note_off_c, 1, 67, 0
3, 50396, Note_off_c, 1, 64, 0
3, 50396, Note_off_c, 1, 58, 0
3, 50496, Note_on_c, 1, 67, 69
3, 50496, Note_on_c, 1, 64, 69
3, 50496, Note_on_c, 1, 58, 69
3, 50588, Note_off_c, 1, 67, 0
3, 50588, Note_off_c, 1, 64, 0
3, 50588, Note_off_c, 1, 58, 0
3, 50688, Note_on_c, 1, 66, 69
3, 50688, Note_on_c, 1, 62, 69
3, 50688, Note_on_c, 1, 57, 69
3, 50780, Note_off_c, 1, 66, 0
3, 50780, Note_off_c, 1, 62, 0
3, 50780, Note_off_c, 1, 57, 0
3, 50880, Note_on_c, 1, 66, 69
3, 50880, Note_on_c, 1, 62, 69
3, 50880, Note_on_c, 1, 57, 69
3, 50972, Note_off_c, 1, 66, 0
3, 50972, Note_off_c, 1, 62, 0
3, 50972, Note_off_c, 1, 57, 0
3, 51072, Note_on_c, 1, 67, 69
3, 51072, Note_on_c, 1, 64, 69
3, 51072, Note_on_c, 1, 59, 69
3, 51164, Note_off_c, 1, 67, 0
3, 51164, Note_off_c, 1, 64, 0
3, 51164, Note_off_c, 1, 59, 0
3, 51264, Note_on_c, 1, 67, 69
3, 51264, Note_on_c, 1, 64, 69
3, 51264, Note_on_c, 1, 59, 69
3, 51356, Note_off_c, 1, 67, 0
3, 51356, Note_off_c, 1, 64, 0
3, 51356, Note_off_c, 1, 59, 0
3, 51456, Note_on_c, 1, 66, 69
3, 51456, Note_on_c, 1, 62, 69
3, 51456, Note_on_c, 1, 57, 69
3, 51548, Note_off_c, 1, 66, 0
3, 51548, Note_off_c, 1, 62, 0
3, 51548, Note_off_c, 1, 57, 0
3, 51648, Note_on_c, 1, 66, 69
3, 51648, Note_on_c, 1, 62, 69
3, 51648, Note_on_c, 1, 57, 69
3, 51740, Note_off_c, 1, 66, 0
3, 51740, Note_off_c, 1, 62, 0
3, 51740, Note_off_c, 1, 57, 0
3, 51840, Note_on_c, 1, 64, 69
3, 51840, Note_on_c, 1, 61, 69
3, 51840, Note_on_c, 1, 55, 69
3, 51932, Note_off_c, 1, 64, 0
3, 51932, Note_off_c, 1, 61, 0
3, 51932, Note_off_c, 1, 55, 0
3, 52032, Note_on_c, 1, 64, 69
3, 52032, Note_on_c, 1, 61, 69
3, 52032, Note_on_c, 1, 55, 69
3, 52124, Note_off_c, 1, 64, 0
3, 52124, Note_off_c, 1, 61, 0
3, 52124, Note_off_c, 1, 55, 0
3, 52224, Note_on_c, 1, 62, 96
3, 52224, Note_on_c, 1, 54, 96
3, 52600, Note_off_c, 1, 62, 0
3, 52600, Note_off_c, 1, 54, 0
3, 52608, Note_on_c, 1, 62, 96
3, 52704, Note_off_c, 1, 62, 0
3, 52704, Note_on_c, 1, 60, 96
3, 52784, Note_off_c, 1, 60, 0
3, 52800, Note_on_c, 1, 59, 96
3, 52892, Note_off_c, 1, 59, 0
3, 52896, Note_on_c, 1, 60, 96
3, 52988, Note_off_c, 1, 60, 0
3, 52992, Note_on_c, 1, 62, 96
3, 53088, Note_off_c, 1, 62, 0
3, 53088, Note_on_c, 1, 60, 96
3, 53168, Note_off_c, 1, 60, 0
3, 53184, Note_on_c, 1, 59, 96
3, 53276, Note_off_c, 1, 59, 0
3, 53280, Note_on_c, 1, 60, 96
3, 53372, Note_off_c, 1, 60, 0
3, 53376, Note_on_c, 1, 62, 96
3, 53472, Note_off_c, 1, 62, 0
3, 53472, Note_on_c, 1, 60, 96
3, 53552, Note_off_c, 1, 60, 0
3, 53568, Note_on_c, 1, 59, 96
3, 53660, Note_off_c, 1, 59, 0
3, 53664, Note_on_c, 1, 60, 96
3, 53756, Note_off_c, 1, 60, 0
3, 53760, Note_on_c, 1, 59, 96
3, 54136, Note_off_c, 1, 59, 0
3, 54144, Note_on_c, 1, 75, 96
3, 54240, Note_off_c, 1, 75, 0
3, 54240, Note_on_c, 1, 76, 96
3, 54320, Note_off_c, 1, 76, 0
3, 54336, Note_on_c, 1, 79, 96
3, 54336, Note_on_c, 1, 76, 96
3, 54428, Note_off_c, 1, 79, 0
3, 54428, Note_off_c, 1, 76, 0
3, 54432, Note_on_c, 1, 79, 96
3, 54432, Note_on_c, 1, 83, 96
3, 54524, Note_off_c, 1, 79, 0
3, 54524, Note_off_c, 1, 83, 0
3, 54528, Note_on_c, 1, 83, 96
3, 54528, Note_on_c, 1, 79, 96
3, 54608, Note_off_c, 1, 79, 0
3, 54624, Note_off_c, 1, 83, 0
3, 54624, Note_on_c, 1, 81, 96
3, 54624, Note_on_c, 1, 78, 96
3, 54716, Note_off_c, 1, 81, 0
3, 54716, Note_off_c, 1, 78, 0
3, 54720, Note_on_c, 1, 79, 96
3, 54720, Note_on_c, 1, 76, 96
3, 54812, Note_off_c, 1, 79, 0
3, 54812, Note_off_c, 1, 76, 0
3, 54816, Note_on_c, 1, 78, 96
3, 54816, Note_on_c, 1, 74, 96
3, 54908, Note_off_c, 1, 78, 0
3, 54908, Note_off_c, 1, 74, 0
3, 54912, Note_on_c, 1, 81, 96
3, 54912, Note_on_c, 1, 78, 96
3, 54992, Note_off_c, 1, 78, 0
3, 55008, Note_off_c, 1, 81, 0
3, 55008, Note_on_c, 1, 79, 96
3, 55008, Note_on_c, 1, 76, 96
3, 55100, Note_off_c, 1, 79, 0
3, 55100, Note_off_c, 1, 76, 0
3, 55104, Note_on_c, 1, 78, 96
3, 55104, Note_on_c, 1, 74, 96
3, 55196, Note_off_c, 1, 78, 0
3, 55196, Note_off_c, 1, 74, 0
3, 55200, Note_on_c, 1, 76, 96
3, 55200, Note_on_c, 1, 73, 96
3, 55292, Note_off_c, 1, 76, 0
3, 55292, Note_off_c, 1, 73, 0
3, 55296, Note_on_c, 1, 74, 96
3, 55672, Note_off_c, 1, 74, 0
3, 55680, Note_on_c, 1, 62, 96
3, 55776, Note_off_c, 1, 62, 0
3, 55776, Note_on_c, 1, 60, 96
3, 55856, Note_off_c, 1, 60, 0
3, 55872, Note_on_c, 1, 59, 96
3, 55964, Note_off_c, 1, 59, 0
3, 55968, Note_on_c, 1, 60, 96
3, 56060, Note_off_c, 1, 60, 0
3, 56064, Note_on_c, 1, 62, 96
3, 56160, Note_off_c, 1, 62, 0
3, 56160, Note_on_c, 1, 60, 96
3, 56240, Note_off_c, 1, 60, 0
3, 56256, Note_on_c, 1, 59, 96
3, 56348, Note_off_c, 1, 59, 0
3, 56352, Note_on_c, 1, 60, 96
3, 56444, Note_off_c, 1, 60, 0
3, 56448, Note_on_c, 1, 62, 96
3, 56544, Note_off_c, 1, 62, 0
3, 56544, Note_on_c, 1, 60, 96
3, 56624, Note_off_c, 1, 60, 0
3, 56640, Note_on_c, 1, 59, 96
3, 56732, Note_off_c, 1, 59, 0
3, 56736, Note_on_c, 1, 60, 96
3, 56828, Note_off_c, 1, 60, 0
3, 56832, Note_on_c, 1, 59, 96
3, 57208, Note_off_c, 1, 59, 0
3, 57216, Note_on_c, 1, 75, 96
3, 57312, Note_off_c, 1, 75, 0
3, 57312, Note_on_c, 1, 76, 96
3, 57392, Note_off_c, 1, 76, 0
3, 57408, Note_on_c, 1, 83, 96
3, 57500, Note_off_c, 1, 83, 0
3, 57504, Note_on_c, 1, 86, 96
3, 57596, Note_off_c, 1, 86, 0
3, 57600, Note_on_c, 1, 86, 96
3, 57696, Note_off_c, 1, 86, 0
3, 57696, Note_on_c, 1, 85, 96
3, 57776, Note_off_c, 1, 85, 0
3, 57792, Note_on_c, 1, 83, 96
3, 57884, Note_off_c, 1, 83, 0
3, 57888, Note_on_c, 1, 81, 96
3, 57980, Note_off_c, 1, 81, 0
3, 57984, Note_on_c, 1, 81, 96
3, 57984, Note_on_c, 1, 78, 96
3, 58080, Note_off_c, 1, 81, 0
3, 58080, Note_off_c, 1, 78, 0
3, 58080, Note_on_c, 1, 79, 96
3, 58080, Note_on_c, 1, 76, 96
3, 58160, Note_off_c, 1, 79, 0
3, 58160, Note_off_c, 1, 76, 0
3, 58160, Note_on_c, 1, 78, 96
3, 58176, Note_on_c, 1, 74, 96
3, 58252, Note_off_c, 1, 78, 0
3, 58268, Note_off_c, 1, 74, 0
3, 58272, Note_on_c, 1, 76, 96
3, 58272, Note_on_c, 1, 73, 96
3, 58364, Note_off_c, 1, 76, 0
3, 58364, Note_off_c, 1, 73, 0
3, 58368, Note_on_c, 1, 74, 96
3, 58744, Note_off_c, 1, 74, 0
3, 58752, Note_on_c, 1, 66, 69
3, 58752, Note_on_c, 1, 57, 69
3, 58844, Note_off_c, 1, 66, 0
3, 58844, Note_off_c, 1, 57, 0
3, 58944, Note_on_c, 1, 66, 69
3, 58944, Note_on_c, 1, 57, 69
3, 59036, Note_off_c, 1, 66, 0
3, 59036, Note_off_c, 1, 57, 0
3, 59136, Note_on_c, 1, 66, 69
3, 59136, Note_on_c, 1, 57, 69
3, 59328, Note_off_c, 1, 66, 0
3, 59328, Note_on_c, 1, 67, 69
3, 59500, Note_off_c, 1, 67, 0
3, 59520, Note_on_c, 1, 64, 69
3, 59712, Note_off_c, 1, 64, 0
3, 59712, Note_on_c, 1, 61, 69
3, 59884, Note_off_c, 1, 61, 0
3, 59904, Note_on_c, 1, 62, 69
3, 60096, Note_off_c, 1, 57, 0
3, 60096, Note_off_c, 1, 62, 0
3, 60096, Note_on_c, 1, 66, 69
3, 60276, Note_off_c, 1, 66, 0
3, 60288, Note_on_c, 1, 69, 69
3, 60288, Note_on_c, 1, 57, 69
3, 60380, Note_off_c, 1, 69, 0
3, 60480, Note_on_c, 1, 66, 69
3, 60572, Note_off_c, 1, 66, 0
3, 60672, Note_on_c, 1, 66, 69
3, 60864, Note_off_c, 1, 66, 0
3, 60864, Note_on_c, 1, 67, 69
3, 61036, Note_off_c, 1, 67, 0
3, 61052, Note_off_c, 1, 57, 0
3, 61056, Note_on_c, 1, 64, 69
3, 61056, Note_on_c, 1, 57, 69
3, 61248, Note_off_c, 1, 64, 0
3, 61248, Note_on_c, 1, 61, 69
3, 61420, Note_off_c, 1, 61, 0
3, 61432, Note_off_c, 1, 57, 0
3, 61440, Note_on_c, 1, 62, 69
3, 61440, Note_on_c, 1, 57, 69
3, 61820, Note_off_c, 1, 62, 0
3, 61820, Note_off_c, 1, 57, 0
3, 61824, Note_on_c, 1, 78, 96
3, 61920, Note_off_c, 1, 78, 0
3, 61920, Note_on_c, 1, 74, 96
3, 62000, Note_off_c, 1, 74, 0
3, 62016, Note_on_c, 1, 78, 96
3, 62096, Note_on_c, 1, 74, 96
3, 62108, Note_off_c, 1, 78, 0
3, 62188, Note_off_c, 1, 74, 0
3, 62208, Note_on_c, 1, 81, 96
3, 62392, Note_off_c, 1, 81, 0
3, 62592, Note_on_c, 1, 81, 96
3, 62688, Note_off_c, 1, 81, 0
3, 62688, Note_on_c, 1, 78, 96
3, 62768, Note_off_c, 1, 78, 0
3, 62784, Note_on_c, 1, 81, 96
3, 62876, Note_off_c, 1, 81, 0
3, 62880, Note_on_c, 1, 78, 96
3, 62972, Note_off_c, 1, 78, 0
3, 62976, Note_on_c, 1, 86, 96
3, 63356, Note_off_c, 1, 86, 0
3, 63360, Note_on_c, 1, 62, 96
3, 63640, Note_off_c, 1, 62, 0
3, 63648, Note_on_c, 1, 62, 108
3, 63736, Note_off_c, 1, 62, 0
3, 63744, Note_on_c, 1, 62, 96
3, 64124, Note_off_c, 1, 62, 0
3, 64512, Note_on_c, 1, 66, 82
3, 64700, Note_off_c, 1, 66, 0
3, 64896, Note_on_c, 1, 71, 82
3, 65280, Note_off_c, 1, 71, 0
3, 65280, Note_on_c, 1, 69, 82
3, 65660, Note_off_c, 1, 69, 0
3, 65664, Note_on_c, 1, 67, 82
3, 66036, Note_off_c, 1, 67, 0
3, 66048, Note_on_c, 1, 66, 82
3, 66140, Note_off_c, 1, 66, 0
3, 66240, Note_on_c, 1, 69, 82
3, 66240, Note_on_c, 1, 66, 82
3, 66332, Note_off_c, 1, 69, 0
3, 66332, Note_off_c, 1, 66, 0
3, 66432, Note_on_c, 1, 69, 82
3, 66432, Note_on_c, 1, 66, 82
3, 66816, Note_off_c, 1, 69, 0
3, 66816, Note_off_c, 1, 66, 0
3, 67008, Note_on_c, 1, 69, 82
3, 67008, Note_on_c, 1, 66, 82
3, 67100, Note_off_c, 1, 69, 0
3, 67100, Note_off_c, 1, 66, 0
3, 67200, Note_on_c, 1, 69, 82
3, 67200, Note_on_c, 1, 66, 82
3, 67580, Note_off_c, 1, 69, 0
3, 67580, Note_off_c, 1, 66, 0
3, 67584, Note_on_c, 1, 66, 82
3, 67584, Note_on_c, 1, 69, 82
3, 67676, Note_off_c, 1, 66, 0
3, 67676, Note_off_c, 1, 69, 0
3, 67968, Note_on_c, 1, 66, 82
3, 67968, Note_on_c, 1, 69, 82
3, 68060, Note_off_c, 1, 66, 0
3, 68060, Note_off_c, 1, 69, 0
3, 68352, Note_on_c, 1, 66, 82
3, 68352, Note_on_c, 1, 69, 82
3, 68444, Note_off_c, 1, 66, 0
3, 68444, Note_off_c, 1, 69, 0
3, 68736, Note_on_c, 1, 66, 82
3, 68736, Note_on_c, 1, 69, 82
3, 68828, Note_off_c, 1, 66, 0
3, 68828, Note_off_c, 1, 69, 0
3, 69120, Note_on_c, 1, 66, 82
3, 69120, Note_on_c, 1, 69, 82
3, 69496, Note_off_c, 1, 66, 0
3, 69496, Note_off_c, 1, 69, 0
3, 70272, Note_on_c, 1, 71, 69
3, 70460, Note_off_c, 1, 71, 0
3, 70464, Note_on_c, 1, 70, 69
3, 70652, Note_off_c, 1, 70, 0
3, 70656, Note_on_c, 1, 71, 73
3, 70844, Note_off_c, 1, 71, 0
3, 71040, Note_on_c, 1, 69, 79
3, 71228, Note_off_c, 1, 69, 0
3, 71424, Note_on_c, 1, 67, 85
3, 71612, Note_off_c, 1, 67, 0
3, 71808, Note_on_c, 1, 66, 91
3, 71996, Note_off_c, 1, 66, 0
3, 72192, Note_on_c, 1, 67, 96
3, 72236, Note_off_c, 1, 67, 0
3, 72240, Note_on_c, 1, 69, 93
3, 72284, Note_off_c, 1, 69, 0
3, 72288, Note_on_c, 1, 67, 91
3, 72332, Note_off_c, 1, 67, 0
3, 72336, Note_on_c, 1, 69, 89
3, 72380, Note_off_c, 1, 69, 0
3, 72384, Note_on_c, 1, 67, 86
3, 72428, Note_off_c, 1, 67, 0
3, 72432, Note_on_c, 1, 69, 84
3, 72476, Note_off_c, 1, 69, 0
3, 72480, Note_on_c, 1, 66, 81
3, 72524, Note_off_c, 1, 66, 0
3, 72528, Note_on_c, 1, 67, 79
3, 72572, Note_off_c, 1, 67, 0
3, 72576, Note_on_c, 1, 66, 73
3, 72952, Note_off_c, 1, 66, 0
3, 73344, Note_on_c, 1, 62, 69
3, 73528, Note_off_c, 1, 62, 0
3, 73536, Note_on_c, 1, 61, 69
3, 73720, Note_off_c, 1, 61, 0
3, 73728, Note_on_c, 1, 62, 72
3, 73912, Note_off_c, 1, 62, 0
3, 74112, Note_on_c, 1, 61, 79
3, 74296, Note_off_c, 1, 61, 0
3, 74496, Note_on_c, 1, 59, 85
3, 74680, Note_off_c, 1, 59, 0
3, 74880, Note_on_c, 1, 57, 91
3, 75064, Note_off_c, 1, 57, 0
3, 75264, Note_on_c, 1, 59, 99
3, 75308, Note_off_c, 1, 59, 0
3, 75312, Note_on_c, 1, 61, 96
3, 75356, Note_off_c, 1, 61, 0
3, 75360, Note_on_c, 1, 59, 93
3, 75404, Note_off_c, 1, 59, 0
3, 75408, Note_on_c, 1, 61, 91
3, 75452, Note_off_c, 1, 61, 0
3, 75456, Note_on_c, 1, 59, 89
3, 75500, Note_off_c, 1, 59, 0
3, 75504, Note_on_c, 1, 61, 86
3, 75548, Note_off_c, 1, 61, 0
3, 75552, Note_on_c, 1, 57, 81
3, 75596, Note_off_c, 1, 57, 0
3, 75600, Note_on_c, 1, 59, 79
3, 75644, Note_off_c, 1, 59, 0
3, 75648, Note_on_c, 1, 57, 74
3, 76028, Note_off_c, 1, 57, 0
3, 76032, Note_on_c, 1, 69, 69
3, 76224, Note_off_c, 1, 69, 0
3, 76224, Note_on_c, 1, 66, 69
3, 76404, Note_off_c, 1, 66, 0
3, 76416, Note_on_c, 1, 66, 69
3, 76608, Note_off_c, 1, 66, 0
3, 76608, Note_on_c, 1, 62, 69
3, 76788, Note_off_c, 1, 62, 0
3, 76800, Note_on_c, 1, 66, 69
3, 76800, Note_on_c, 1, 62, 69
3, 76980, Note_off_c, 1, 62, 0
3, 76992, Note_off_c, 1, 66, 0
3, 76992, Note_on_c, 1, 64, 69
3, 76992, Note_on_c, 1, 61, 69
3, 77172, Note_off_c, 1, 61, 0
3, 77184, Note_off_c, 1, 64, 0
3, 77184, Note_on_c, 1, 64, 69
3, 77184, Note_on_c, 1, 61, 69
3, 77560, Note_off_c, 1, 64, 0
3, 77560, Note_off_c, 1, 61, 0
3, 77568, Note_on_c, 1, 61, 69
3, 77756, Note_off_c, 1, 61, 0
3, 77760, Note_on_c, 1, 64, 69
3, 77948, Note_off_c, 1, 64, 0
3, 77952, Note_on_c, 1, 64, 69
3, 77952, Note_on_c, 1, 61, 69
3, 78140, Note_off_c, 1, 64, 0
3, 78140, Note_off_c, 1, 61, 0
3, 78144, Note_on_c, 1, 67, 69
3, 78144, Note_on_c, 1, 64, 69
3, 78332, Note_off_c, 1, 67, 0
3, 78332, Note_off_c, 1, 64, 0
3, 78336, Note_on_c, 1, 67, 69
3, 78336, Note_on_c, 1, 64, 69
3, 78524, Note_off_c, 1, 67, 0
3, 78524, Note_off_c, 1, 64, 0
3, 78528, Note_on_c, 1, 66, 69
3, 78528, Note_on_c, 1, 62, 69
3, 78716, Note_off_c, 1, 66, 0
3, 78716, Note_off_c, 1, 62, 0
3, 78720, Note_on_c, 1, 66, 69
3, 78720, Note_on_c, 1, 62, 69
3, 79100, Note_off_c, 1, 66, 0
3, 79100, Note_off_c, 1, 62, 0
3, 79296, Note_on_c, 1, 67, 69
3, 79296, Note_on_c, 1, 71, 69
3, 79484, Note_off_c, 1, 67, 0
3, 79484, Note_off_c, 1, 71, 0
3, 79488, Note_on_c, 1, 71, 69
3, 79488, Note_on_c, 1, 74, 69
3, 79676, Note_off_c, 1, 71, 0
3, 79676, Note_off_c, 1, 74, 0
3, 79680, Note_on_c, 1, 67, 69
3, 79680, Note_on_c, 1, 62, 69
3, 79868, Note_off_c, 1, 67, 0
3, 79868, Note_off_c, 1, 62, 0
3, 79872, Note_on_c, 1, 69, 69
3, 79872, Note_on_c, 1, 62, 69
3, 79964, Note_off_c, 1, 69, 0
3, 79964, Note_off_c, 1, 62, 0
3, 80256, Note_on_c, 1, 69, 69
3, 80256, Note_on_c, 1, 67, 69
3, 80348, Note_off_c, 1, 69, 0
3, 80348, Note_off_c, 1, 67, 0
3, 80640, Note_on_c, 1, 69, 69
3, 80640, Note_on_c, 1, 66, 69
3, 80732, Note_off_c, 1, 69, 0
3, 80732, Note_off_c, 1, 66, 0
3, 81408, Note_on_c, 1, 69, 74
3, 81408, Note_on_c, 1, 66, 74
3, 81596, Note_off_c, 1, 69, 0
3, 81596, Note_off_c, 1, 66, 0
3, 82176, Note_on_c, 1, 69, 77
3, 82176, Note_on_c, 1, 66, 77
3, 82364, Note_off_c, 1, 69, 0
3, 82364, Note_off_c, 1, 66, 0
3, 82560, Note_on_c, 1, 69, 79
3, 82560, Note_on_c, 1, 66, 79
3, 82748, Note_off_c, 1, 69, 0
3, 82748, Note_off_c, 1, 66, 0
3, 82944, Note_on_c, 1, 66, 82
3, 82944, Note_on_c, 1, 69, 82
3, 83516, Note_off_c, 1, 66, 0
3, 83516, Note_off_c, 1, 69, 0
3, 84480, Note_on_c, 1, 66, 82
3, 84480, Note_on_c, 1, 62, 82
3, 84480, Note_on_c, 1, 57, 82
3, 84668, Note_off_c, 1, 66, 0
3, 84668, Note_off_c, 1, 62, 0
3, 84668, Note_off_c, 1, 57, 0
3, 84672, Note_on_c, 1, 66, 82
3, 84672, Note_on_c, 1, 62, 82
3, 84672, Note_on_c, 1, 57, 82
3, 84860, Note_off_c, 1, 66, 0
3, 84860, Note_off_c, 1, 62, 0
3, 84860, Note_off_c, 1, 57, 0
3, 84864, Note_on_c, 1, 66, 82
3, 84864, Note_on_c, 1, 62, 82
3, 84864, Note_on_c, 1, 57, 82
3, 85052, Note_off_c, 1, 66, 0
3, 85052, Note_off_c, 1, 62, 0
3, 85052, Note_off_c, 1, 57, 0
3, 85056, Note_on_c, 1, 66, 82
3, 85056, Note_on_c, 1, 62, 82
3, 85056, Note_on_c, 1, 57, 82
3, 85244, Note_off_c, 1, 66, 0
3, 85244, Note_off_c, 1, 62, 0
3, 85244, Note_off_c, 1, 57, 0
3, 85248, Note_on_c, 1, 67, 82
3, 85248, Note_on_c, 1, 61, 82
3, 85248, Note_on_c, 1, 57, 82
3, 85436, Note_off_c, 1, 67, 0
3, 85436, Note_off_c, 1, 61, 0
3, 85436, Note_off_c, 1, 57, 0
3, 85440, Note_on_c, 1, 67, 82
3, 85440, Note_on_c, 1, 61, 82
3, 85440, Note_on_c, 1, 57, 82
3, 85628, Note_off_c, 1, 67, 0
3, 85628, Note_off_c, 1, 61, 0
3, 85628, Note_off_c, 1, 57, 0
3, 85632, Note_on_c, 1, 73, 82
3, 85632, Note_on_c, 1, 69, 82
3, 85632, Note_on_c, 1, 67, 82
3, 85808, Note_on_c, 1, 67, 82
3, 85820, Note_off_c, 1, 73, 0
3, 85820, Note_off_c, 1, 69, 0
3, 85820, Note_off_c, 1, 67, 0
3, 85824, Note_on_c, 1, 73, 82
3, 85824, Note_on_c, 1, 69, 82
3, 85996, Note_off_c, 1, 67, 0
3, 86012, Note_off_c, 1, 73, 0
3, 86012, Note_off_c, 1, 69, 0
3, 86016, Note_on_c, 1, 74, 82
3, 86016, Note_on_c, 1, 69, 82
3, 86016, Note_on_c, 1, 66, 82
3, 86396, Note_off_c, 1, 74, 0
3, 86396, Note_off_c, 1, 69, 0
3, 86396, Note_off_c, 1, 66, 0
3, 86400, Note_on_c, 1, 78, 96
3, 86400, Note_on_c, 1, 69, 96
3, 86400, Note_on_c, 1, 66, 96
3, 86400, Note_on_c, 1, 62, 96
3, 86492, Note_off_c, 1, 78, 0
3, 86496, Note_on_c, 1, 74, 96
3, 86588, Note_off_c, 1, 74, 0
3, 86592, Note_on_c, 1, 78, 96
3, 86684, Note_off_c, 1, 78, 0
3, 86688, Note_on_c, 1, 74, 96
3, 86780, Note_off_c, 1, 69, 0
3, 86780, Note_off_c, 1, 66, 0
3, 86780, Note_off_c, 1, 62, 0
3, 86780, Note_off_c, 1, 74, 0
3, 86784, Note_on_c, 1, 81, 96
3, 86972, Note_off_c, 1, 81, 0
3, 87168, Note_on_c, 1, 81, 96
3, 87260, Note_off_c, 1, 81, 0
3, 87264, Note_on_c, 1, 78, 96
3, 87356, Note_off_c, 1, 78, 0
3, 87360, Note_on_c, 1, 81, 96
3, 87452, Note_off_c, 1, 81, 0
3, 87456, Note_on_c, 1, 78, 96
3, 87548, Note_off_c, 1, 78, 0
3, 87552, Note_on_c, 1, 86, 96
3, 87932, Note_off_c, 1, 86, 0
3, 87952, Note_on_c, 1, 62, 96
3, 88224, Note_on_c, 1, 62, 96
3, 88236, Note_off_c, 1, 62, 0
3, 88316, Note_off_c, 1, 62, 0
3, 88320, Note_on_c, 1, 62, 96
3, 88700, Note_off_c, 1, 62, 0
3, 89088, Note_on_c, 1, 66, 69
3, 89088, Note_on_c, 1, 62, 69
3, 89088, Note_on_c, 1, 57, 69
3, 89468, Note_off_c, 1, 66, 0
3, 89468, Note_off_c, 1, 62, 0
3, 89468, Note_off_c, 1, 57, 0
3, 89856, Note_on_c, 1, 69, 69
3, 89856, Note_on_c, 1, 62, 69
3, 90236, Note_off_c, 1, 69, 0
3, 90236, Note_off_c, 1, 62, 0
3, 90624, Note_on_c, 1, 75, 69
3, 90812, Note_off_c, 1, 75, 0
3, 90816, Note_on_c, 1, 76, 69
3, 90816, Note_on_c, 1, 73, 69
3, 90816, Note_on_c, 1, 69, 69
3, 91004, Note_off_c, 1, 76, 0
3, 91004, Note_off_c, 1, 73, 0
3, 91004, Note_off_c, 1, 69, 0
3, 91008, Note_on_c, 1, 73, 69
3, 91008, Note_on_c, 1, 69, 69
3, 91008, Note_on_c, 1, 76, 69
3, 91196, Note_off_c, 1, 73, 0
3, 91196, Note_off_c, 1, 69, 0
3, 91200, Note_on_c, 1, 73, 69
3, 91200, Note_on_c, 1, 69, 69
3, 91388, Note_off_c, 1, 73, 0
3, 91388, Note_off_c, 1, 69, 0
3, 91392, Note_on_c, 1, 73, 69
3, 91392, Note_on_c, 1, 69, 69
3, 91772, Note_off_c, 1, 76, 0
3, 91772, Note_off_c, 1, 73, 0
3, 91772, Note_off_c, 1, 69, 0
3, 92160, Note_on_c, 1, 67, 69
3, 92160, Note_on_c, 1, 64, 69
3, 92160, Note_on_c, 1, 57, 69
3, 92540, Note_off_c, 1, 67, 0
3, 92540, Note_off_c, 1, 64, 0
3, 92540, Note_off_c, 1, 57, 0
3, 92928, Note_on_c, 1, 64, 69
3, 92928, Note_on_c, 1, 61, 69
3, 92928, Note_on_c, 1, 57, 69
3, 93308, Note_off_c, 1, 64, 0
3, 93308, Note_off_c, 1, 61, 0
3, 93308, Note_off_c, 1, 57, 0
3, 94080, Note_on_c, 1, 64, 96
3, 94080, Note_on_c, 1, 61, 96
3, 94460, Note_off_c, 1, 64, 0
3, 94460, Note_off_c, 1, 61, 0
3, 94464, Note_on_c, 1, 62, 96
3, 94464, Note_on_c, 1, 59, 96
3, 94844, Note_off_c, 1, 62, 0
3, 94844, Note_off_c, 1, 59, 0
3, 94848, Note_on_c, 1, 63, 96
3, 94848, Note_on_c, 1, 60, 96
3, 95228, Note_off_c, 1, 63, 0
3, 95228, Note_off_c, 1, 60, 0
3, 95232, Note_on_c, 1, 64, 69
3, 95232, Note_on_c, 1, 59, 69
3, 95612, Note_off_c, 1, 64, 0
3, 95612, Note_off_c, 1, 59, 0
3, 96000, Note_on_c, 1, 71, 69
3, 96000, Note_on_c, 1, 64, 69
3, 96380, Note_off_c, 1, 71, 0
3, 96380, Note_off_c, 1, 64, 0
3, 96768, Note_on_c, 1, 76, 69
3, 96768, Note_on_c, 1, 67, 69
3, 97148, Note_off_c, 1, 76, 0
3, 97148, Note_off_c, 1, 67, 0
3, 97152, Note_on_c, 1, 76, 69
3, 97152, Note_on_c, 1, 67, 69
3, 97244, Note_off_c, 1, 76, 0
3, 97244, Note_off_c, 1, 67, 0
3, 97248, Note_on_c, 1, 75, 69
3, 97248, Note_on_c, 1, 66, 69
3, 97340, Note_off_c, 1, 75, 0
3, 97340, Note_off_c, 1, 66, 0
3, 97344, Note_on_c, 1, 76, 69
3, 97344, Note_on_c, 1, 67, 69
3, 97436, Note_off_c, 1, 76, 0
3, 97436, Note_off_c, 1, 67, 0
3, 97440, Note_on_c, 1, 75, 69
3, 97440, Note_on_c, 1, 66, 69
3, 97532, Note_off_c, 1, 75, 0
3, 97532, Note_off_c, 1, 66, 0
3, 97536, Note_on_c, 1, 76, 69
3, 97536, Note_on_c, 1, 67, 69
3, 97916, Note_off_c, 1, 76, 0
3, 97916, Note_off_c, 1, 67, 0
3, 97920, Note_on_c, 1, 76, 69
3, 97920, Note_on_c, 1, 67, 69
3, 98012, Note_off_c, 1, 76, 0
3, 98012, Note_off_c, 1, 67, 0
3, 98016, Note_on_c, 1, 75, 69
3, 98016, Note_on_c, 1, 66, 69
3, 98108, Note_off_c, 1, 75, 0
3, 98108, Note_off_c, 1, 66, 0
3, 98112, Note_on_c, 1, 76, 69
3, 98112, Note_on_c, 1, 67, 69
3, 98204, Note_off_c, 1, 76, 0
3, 98204, Note_off_c, 1, 67, 0
3, 98208, Note_on_c, 1, 75, 69
3, 98208, Note_on_c, 1, 66, 69
3, 98300, Note_off_c, 1, 75, 0
3, 98300, Note_off_c, 1, 66, 0
3, 98304, Note_on_c, 1, 76, 69
3, 98304, Note_on_c, 1, 67, 69
3, 98492, Note_off_c, 1, 76, 0
3, 98492, Note_off_c, 1, 67, 0
3, 98496, Note_on_c, 1, 71, 69
3, 98496, Note_on_c, 1, 64, 69
3, 98496, Note_on_c, 1, 55, 69
3, 98684, Note_off_c, 1, 71, 0
3, 98684, Note_off_c, 1, 64, 0
3, 98684, Note_off_c, 1, 55, 0
3, 98688, Note_on_c, 1, 71, 69
3, 98688, Note_on_c, 1, 64, 69
3, 98688, Note_on_c, 1, 55, 69
3, 98876, Note_off_c, 1, 71, 0
3, 98876, Note_off_c, 1, 64, 0
3, 98876, Note_off_c, 1, 55, 0
3, 98880, Note_on_c, 1, 71, 69
3, 98880, Note_on_c, 1, 64, 69
3, 98880, Note_on_c, 1, 55, 69
3, 99068, Note_off_c, 1, 71, 0
3, 99068, Note_off_c, 1, 64, 0
3, 99068, Note_off_c, 1, 55, 0
3, 99072, Note_on_c, 1, 71, 69
3, 99072, Note_on_c, 1, 64, 69
3, 99072, Note_on_c, 1, 55, 69
3, 99260, Note_off_c, 1, 71, 0
3, 99260, Note_off_c, 1, 64, 0
3, 99260, Note_off_c, 1, 55, 0
3, 99264, Note_on_c, 1, 71, 69
3, 99264, Note_on_c, 1, 64, 69
3, 99264, Note_on_c, 1, 55, 69
3, 99452, Note_off_c, 1, 71, 0
3, 99452, Note_off_c, 1, 64, 0
3, 99452, Note_off_c, 1, 55, 0
3, 99456, Note_on_c, 1, 74, 69
3, 99456, Note_on_c, 1, 71, 69
3, 99456, Note_on_c, 1, 56, 69
3, 99644, Note_off_c, 1, 74, 0
3, 99644, Note_off_c, 1, 71, 0
3, 99644, Note_off_c, 1, 56, 0
3, 99648, Note_on_c, 1, 74, 69
3, 99648, Note_on_c, 1, 71, 69
3, 99648, Note_on_c, 1, 56, 69
3, 99836, Note_off_c, 1, 74, 0
3, 99836, Note_off_c, 1, 71, 0
3, 99836, Note_off_c, 1, 56, 0
3, 99840, Note_on_c, 1, 74, 69
3, 99840, Note_on_c, 1, 69, 69
3, 99840, Note_on_c, 1, 57, 69
3, 99884, Note_off_c, 1, 74, 0
3, 99888, Note_on_c, 1, 76, 69
3, 99932, Note_off_c, 1, 76, 0
3, 99936, Note_on_c, 1, 74, 69
3, 99980, Note_off_c, 1, 74, 0
3, 99984, Note_on_c, 1, 76, 69
3, 100028, Note_off_c, 1, 76, 0
3, 100032, Note_on_c, 1, 74, 69
3, 100076, Note_off_c, 1, 74, 0
3, 100080, Note_on_c, 1, 76, 69
3, 100124, Note_off_c, 1, 76, 0
3, 100128, Note_on_c, 1, 73, 69
3, 100172, Note_off_c, 1, 73, 0
3, 100176, Note_on_c, 1, 74, 69
3, 100220, Note_off_c, 1, 69, 0
3, 100220, Note_off_c, 1, 57, 0
3, 100220, Note_off_c, 1, 74, 0
3, 100224, Note_on_c, 1, 73, 69
3, 100412, Note_off_c, 1, 73, 0
3, 100416, Note_on_c, 1, 69, 96
3, 100604, Note_off_c, 1, 69, 0
3, 100608, Note_on_c, 1, 64, 96
3, 100796, Note_off_c, 1, 64, 0
3, 100800, Note_on_c, 1, 73, 96
3, 100988, Note_off_c, 1, 73, 0
3, 100992, Note_on_c, 1, 61, 96
3, 101180, Note_off_c, 1, 61, 0
3, 101184, Note_on_c, 1, 69, 96
3, 101372, Note_off_c, 1, 69, 0
3, 101376, Note_on_c, 1, 57, 96
3, 101564, Note_off_c, 1, 57, 0
3, 101568, Note_on_c, 1, 64, 69
3, 101568, Note_on_c, 1, 61, 69
3, 101568, Note_on_c, 1, 57, 69
3, 101756, Note_off_c, 1, 64, 0
3, 101756, Note_off_c, 1, 61, 0
3, 101756, Note_off_c, 1, 57, 0
3, 101760, Note_on_c, 1, 64, 69
3, 101760, Note_on_c, 1, 61, 69
3, 101760, Note_on_c, 1, 57, 69
3, 101948, Note_off_c, 1, 64, 0
3, 101948, Note_off_c, 1, 61, 0
3, 101948, Note_off_c, 1, 57, 0
3, 101952, Note_on_c, 1, 64, 69
3, 101952, Note_on_c, 1, 61, 69
3, 101952, Note_on_c, 1, 57, 69
3, 102140, Note_off_c, 1, 64, 0
3, 102140, Note_off_c, 1, 61, 0
3, 102140, Note_off_c, 1, 57, 0
3, 102144, Note_on_c, 1, 64, 69
3, 102144, Note_on_c, 1, 61, 69
3, 102144, Note_on_c, 1, 57, 69
3, 102332, Note_off_c, 1, 64, 0
3, 102332, Note_off_c, 1, 61, 0
3, 102332, Note_off_c, 1, 57, 0
3, 102528, Note_on_c, 1, 64, 69
3, 102528, Note_on_c, 1, 61, 69
3, 102528, Note_on_c, 1, 57, 69
3, 102716, Note_off_c, 1, 64, 0
3, 102716, Note_off_c, 1, 61, 0
3, 102716, Note_off_c, 1, 57, 0
3, 102912, Note_on_c, 1, 56, 96
3, 103100, Note_off_c, 1, 56, 0
3, 103104, Note_on_c, 1, 64, 69
3, 103104, Note_on_c, 1, 62, 69
3, 103104, Note_on_c, 1, 59, 69
3, 103292, Note_off_c, 1, 64, 0
3, 103292, Note_off_c, 1, 62, 0
3, 103292, Note_off_c, 1, 59, 0
3, 103296, Note_on_c, 1, 64, 69
3, 103296, Note_on_c, 1, 62, 69
3, 103296, Note_on_c, 1, 59, 69
3, 103484, Note_off_c, 1, 64, 0
3, 103484, Note_off_c, 1, 62, 0
3, 103484, Note_off_c, 1, 59, 0
3, 103488, Note_on_c, 1, 64, 69
3, 103488, Note_on_c, 1, 62, 69
3, 103488, Note_on_c, 1, 59, 69
3, 103676, Note_off_c, 1, 64, 0
3, 103676, Note_off_c, 1, 62, 0
3, 103676, Note_off_c, 1, 59, 0
3, 103680, Note_on_c, 1, 64, 69
3, 103680, Note_on_c, 1, 62, 69
3, 103680, Note_on_c, 1, 59, 69
3, 103868, Note_off_c, 1, 64, 0
3, 103868, Note_off_c, 1, 62, 0
3, 103868, Note_off_c, 1, 59, 0
3, 104064, Note_on_c, 1, 64, 69
3, 104064, Note_on_c, 1, 62, 69
3, 104064, Note_on_c, 1, 59, 69
3, 104252, Note_off_c, 1, 64, 0
3, 104252, Note_off_c, 1, 62, 0
3, 104252, Note_off_c, 1, 59, 0
3, 104448, Note_on_c, 1, 68, 69
3, 104448, Note_on_c, 1, 62, 69
3, 104448, Note_on_c, 1, 59, 69
3, 105020, Note_off_c, 1, 68, 0
3, 105020, Note_off_c, 1, 62, 0
3, 105020, Note_off_c, 1, 59, 0
3, 106176, Note_on_c, 1, 68, 69
3, 106176, Note_on_c, 1, 64, 69
3, 106364, Note_off_c, 1, 68, 0
3, 106364, Note_off_c, 1, 64, 0
3, 106368, Note_on_c, 1, 69, 69
3, 106368, Note_on_c, 1, 66, 69
3, 106556, Note_off_c, 1, 69, 0
3, 106556, Note_off_c, 1, 66, 0
3, 106560, Note_on_c, 1, 71, 69
3, 106560, Note_on_c, 1, 68, 69
3, 106748, Note_off_c, 1, 71, 0
3, 106748, Note_off_c, 1, 68, 0
3, 106752, Note_on_c, 1, 73, 69
3, 106752, Note_on_c, 1, 69, 69
3, 106940, Note_off_c, 1, 73, 0
3, 106940, Note_off_c, 1, 69, 0
3, 106944, Note_on_c, 1, 69, 69
3, 106944, Note_on_c, 1, 66, 69
3, 107132, Note_off_c, 1, 69, 0
3, 107132, Note_off_c, 1, 66, 0
3, 107136, Note_on_c, 1, 64, 69
3, 107136, Note_on_c, 1, 61, 69
3, 107324, Note_off_c, 1, 64, 0
3, 107324, Note_off_c, 1, 61, 0
3, 107328, Note_on_c, 1, 61, 69
3, 107328, Note_on_c, 1, 57, 69
3, 107516, Note_off_c, 1, 61, 0
3, 107516, Note_off_c, 1, 57, 0
3, 107520, Note_on_c, 1, 73, 69
3, 107520, Note_on_c, 1, 69, 69
3, 108284, Note_off_c, 1, 73, 0
3, 108284, Note_off_c, 1, 69, 0
3, 108288, Note_on_c, 1, 76, 69
3, 108288, Note_on_c, 1, 61, 69
3, 109052, Note_off_c, 1, 76, 0
3, 109052, Note_off_c, 1, 61, 0
3, 109056, Note_on_c, 1, 69, 69
3, 109056, Note_on_c, 1, 62, 69
3, 109820, Note_off_c, 1, 69, 0
3, 109820, Note_off_c, 1, 62, 0
3, 109824, Note_on_c, 1, 68, 69
3, 109824, Note_on_c, 1, 64, 69
3, 110588, Note_off_c, 1, 68, 0
3, 110588, Note_off_c, 1, 64, 0
3, 110592, Note_on_c, 1, 69, 69
3, 110592, Note_on_c, 1, 65, 69
3, 110780, Note_off_c, 1, 69, 0
3, 110780, Note_off_c, 1, 65, 0
3, 110784, Note_on_c, 1, 69, 69
3, 110784, Note_on_c, 1, 65, 69
3, 110972, Note_off_c, 1, 69, 0
3, 110972, Note_off_c, 1, 65, 0
3, 110976, Note_on_c, 1, 69, 69
3, 110976, Note_on_c, 1, 65, 69
3, 111164, Note_off_c, 1, 69, 0
3, 111164, Note_off_c, 1, 65, 0
3, 111168, Note_on_c, 1, 69, 69
3, 111168, Note_on_c, 1, 65, 69
3, 111356, Note_off_c, 1, 69, 0
3, 111356, Note_off_c, 1, 65, 0
3, 111360, Note_on_c, 1, 75, 69
3, 111360, Note_on_c, 1, 69, 69
3, 111548, Note_off_c, 1, 75, 0
3, 111548, Note_off_c, 1, 69, 0
3, 111552, Note_on_c, 1, 75, 69
3, 111552, Note_on_c, 1, 69, 69
3, 111740, Note_off_c, 1, 75, 0
3, 111740, Note_off_c, 1, 69, 0
3, 111744, Note_on_c, 1, 75, 69
3, 111744, Note_on_c, 1, 69, 69
3, 111932, Note_off_c, 1, 75, 0
3, 111932, Note_off_c, 1, 69, 0
3, 111936, Note_on_c, 1, 75, 69
3, 111936, Note_on_c, 1, 69, 69
3, 112124, Note_off_c, 1, 75, 0
3, 112124, Note_off_c, 1, 69, 0
3, 112128, Note_on_c, 1, 76, 82
3, 112128, Note_on_c, 1, 71, 82
3, 112316, Note_off_c, 1, 76, 0
3, 112316, Note_off_c, 1, 71, 0
3, 112320, Note_on_c, 1, 71, 82
3, 112320, Note_on_c, 1, 68, 82
3, 112508, Note_off_c, 1, 71, 0
3, 112508, Note_off_c, 1, 68, 0
3, 112704, Note_on_c, 1, 69, 82
3, 112704, Note_on_c, 1, 66, 82
3, 112892, Note_off_c, 1, 69, 0
3, 112892, Note_off_c, 1, 66, 0
3, 112896, Note_on_c, 1, 71, 82
3, 112896, Note_on_c, 1, 64, 82
3, 113084, Note_off_c, 1, 71, 0
3, 113084, Note_off_c, 1, 64, 0
3, 113088, Note_on_c, 1, 68, 82
3, 113088, Note_on_c, 1, 59, 82
3, 113276, Note_off_c, 1, 68, 0
3, 113276, Note_off_c, 1, 59, 0
3, 113472, Note_on_c, 1, 64, 82
3, 113472, Note_on_c, 1, 62, 82
3, 113660, Note_off_c, 1, 64, 0
3, 113660, Note_off_c, 1, 62, 0
3, 113664, Note_on_c, 1, 64, 82
3, 113664, Note_on_c, 1, 61, 82
3, 113852, Note_off_c, 1, 64, 0
3, 113852, Note_off_c, 1, 61, 0
3, 114048, Note_on_c, 1, 76, 82
3, 114048, Note_on_c, 1, 73, 82
3, 114048, Note_on_c, 1, 64, 82
3, 114236, Note_off_c, 1, 76, 0
3, 114236, Note_off_c, 1, 73, 0
3, 114236, Note_off_c, 1, 64, 0
3, 114432, Note_on_c, 1, 76, 82
3, 114432, Note_on_c, 1, 71, 82
3, 114432, Note_on_c, 1, 64, 82
3, 114620, Note_off_c, 1, 76, 0
3, 114620, Note_off_c, 1, 71, 0
3, 114620, Note_off_c, 1, 64, 0
3, 114816, Note_on_c, 1, 76, 82
3, 114816, Note_on_c, 1, 74, 82
3, 114816, Note_on_c, 1, 64, 82
3, 115004, Note_off_c, 1, 76, 0
3, 115004, Note_off_c, 1, 74, 0
3, 115004, Note_off_c, 1, 64, 0
3, 115200, Note_on_c, 1, 76, 82
3, 115200, Note_on_c, 1, 73, 82
3, 115200, Note_on_c, 1, 64, 82
3, 115772, Note_off_c, 1, 76, 0
3, 115772, Note_off_c, 1, 73, 0
3, 115772, Note_off_c, 1, 64, 0
3, 116736, Note_on_c, 1, 64, 69
3, 116736, Note_on_c, 1, 61, 69
3, 116924, Note_off_c, 1, 64, 0
3, 116924, Note_off_c, 1, 61, 0
3, 117120, Note_on_c, 1, 76, 69
3, 117120, Note_on_c, 1, 73, 69
3, 117120, Note_on_c, 1, 64, 69
3, 117308, Note_off_c, 1, 76, 0
3, 117308, Note_off_c, 1, 73, 0
3, 117308, Note_off_c, 1, 64, 0
3, 117504, Note_on_c, 1, 76, 69
3, 117504, Note_on_c, 1, 71, 69
3, 117504, Note_on_c, 1, 64, 69
3, 117692, Note_off_c, 1, 76, 0
3, 117692, Note_off_c, 1, 71, 0
3, 117692, Note_off_c, 1, 64, 0
3, 117888, Note_on_c, 1, 76, 69
3, 117888, Note_on_c, 1, 74, 69
3, 117888, Note_on_c, 1, 64, 69
3, 118076, Note_off_c, 1, 76, 0
3, 118076, Note_off_c, 1, 74, 0
3, 118076, Note_off_c, 1, 64, 0
3, 118272, Note_on_c, 1, 76, 69
3, 118272, Note_on_c, 1, 73, 69
3, 118272, Note_on_c, 1, 64, 69
3, 118844, Note_off_c, 1, 76, 0
3, 118844, Note_off_c, 1, 73, 0
3, 118844, Note_off_c, 1, 64, 0
3, 119808, Note_on_c, 1, 64, 69
3, 119808, Note_on_c, 1, 61, 69
3, 119808, Note_on_c, 1, 57, 69
3, 120380, Note_off_c, 1, 64, 0
3, 120380, Note_off_c, 1, 61, 0
3, 120380, Note_off_c, 1, 57, 0
3, 121536, Note_on_c, 1, 64, 82
3, 121536, Note_on_c, 1, 57, 82
3, 121724, Note_off_c, 1, 64, 0
3, 121724, Note_off_c, 1, 57, 0
3, 121728, Note_on_c, 1, 64, 82
3, 121728, Note_on_c, 1, 57, 82
3, 121916, Note_off_c, 1, 64, 0
3, 121916, Note_off_c, 1, 57, 0
3, 121920, Note_on_c, 1, 64, 82
3, 121920, Note_on_c, 1, 57, 82
3, 122108, Note_off_c, 1, 64, 0
3, 122108, Note_off_c, 1, 57, 0
3, 122112, Note_on_c, 1, 64, 82
3, 122112, Note_on_c, 1, 57, 82
3, 122300, Note_off_c, 1, 64, 0
3, 122300, Note_off_c, 1, 57, 0
3, 122304, Note_on_c, 1, 69, 82
3, 122304, Note_on_c, 1, 64, 82
3, 122492, Note_off_c, 1, 69, 0
3, 122492, Note_off_c, 1, 64, 0
3, 122496, Note_on_c, 1, 69, 82
3, 122496, Note_on_c, 1, 64, 82
3, 122684, Note_off_c, 1, 69, 0
3, 122684, Note_off_c, 1, 64, 0
3, 122688, Note_on_c, 1, 69, 82
3, 122688, Note_on_c, 1, 64, 82
3, 122876, Note_off_c, 1, 69, 0
3, 122876, Note_off_c, 1, 64, 0
3, 122880, Note_on_c, 1, 69, 69
3, 122880, Note_on_c, 1, 62, 69
3, 123068, Note_off_c, 1, 69, 0
3, 123072, Note_on_c, 1, 69, 69
3, 123164, Note_off_c, 1, 69, 0
3, 123168, Note_on_c, 1, 68, 69
3, 123260, Note_off_c, 1, 62, 0
3, 123260, Note_off_c, 1, 68, 0
3, 123264, Note_on_c, 1, 69, 69
3, 123644, Note_off_c, 1, 69, 0
3, 123840, Note_on_c, 1, 69, 69
3, 123932, Note_off_c, 1, 69, 0
3, 123936, Note_on_c, 1, 68, 69
3, 124028, Note_off_c, 1, 68, 0
3, 124032, Note_on_c, 1, 69, 69
3, 124412, Note_off_c, 1, 69, 0
3, 124416, Note_on_c, 1, 81, 69
3, 124508, Note_off_c, 1, 81, 0
3, 124512, Note_on_c, 1, 80, 69
3, 124604, Note_off_c, 1, 80, 0
3, 124608, Note_on_c, 1, 81, 69
3, 124988, Note_off_c, 1, 81, 0
3, 125376, Note_on_c, 1, 81, 69
3, 125468, Note_off_c, 1, 81, 0
3, 125472, Note_on_c, 1, 80, 69
3, 125564, Note_off_c, 1, 80, 0
3, 125568, Note_on_c, 1, 81, 69
3, 125948, Note_off_c, 1, 81, 0
3, 125952, Note_on_c, 1, 69, 69
3, 125952, Note_on_c, 1, 66, 69
3, 126140, Note_off_c, 1, 69, 0
3, 126140, Note_off_c, 1, 66, 0
3, 126336, Note_on_c, 1, 69, 70
3, 126336, Note_on_c, 1, 66, 70
3, 126524, Note_off_c, 1, 69, 0
3, 126524, Note_off_c, 1, 66, 0
3, 126720, Note_on_c, 1, 69, 72
3, 126720, Note_on_c, 1, 66, 72
3, 126908, Note_off_c, 1, 69, 0
3, 126908, Note_off_c, 1, 66, 0
3, 127104, Note_on_c, 1, 69, 73
3, 127104, Note_on_c, 1, 66, 73
3, 127292, Note_off_c, 1, 69, 0
3, 127292, Note_off_c, 1, 66, 0
3, 127488, Note_on_c, 1, 69, 75
3, 127488, Note_on_c, 1, 66, 75
3, 127676, Note_off_c, 1, 69, 0
3, 127676, Note_off_c, 1, 66, 0
3, 127872, Note_on_c, 1, 69, 77
3, 127872, Note_on_c, 1, 66, 77
3, 128060, Note_off_c, 1, 69, 0
3, 128060, Note_off_c, 1, 66, 0
3, 128256, Note_on_c, 1, 69, 78
3, 128256, Note_on_c, 1, 66, 78
3, 128444, Note_off_c, 1, 69, 0
3, 128444, Note_off_c, 1, 66, 0
3, 128640, Note_on_c, 1, 69, 80
3, 128640, Note_on_c, 1, 66, 80
3, 128828, Note_off_c, 1, 69, 0
3, 128828, Note_off_c, 1, 66, 0
3, 129024, Note_on_c, 1, 81, 81
3, 129024, Note_on_c, 1, 69, 81
3, 129404, Note_off_c, 1, 81, 0
3, 129404, Note_off_c, 1, 69, 0
3, 129408, Note_on_c, 1, 80, 82
3, 129408, Note_on_c, 1, 68, 82
3, 129788, Note_off_c, 1, 80, 0
3, 129788, Note_off_c, 1, 68, 0
3, 129792, Note_on_c, 1, 81, 85
3, 129792, Note_on_c, 1, 69, 85
3, 129980, Note_off_c, 1, 81, 0
3, 129980, Note_off_c, 1, 69, 0
3, 129984, Note_on_c, 1, 80, 85
3, 129984, Note_on_c, 1, 68, 85
3, 130172, Note_off_c, 1, 80, 0
3, 130172, Note_off_c, 1, 68, 0
3, 130176, Note_on_c, 1, 81, 86
3, 130176, Note_on_c, 1, 69, 86
3, 130364, Note_off_c, 1, 81, 0
3, 130364, Note_off_c, 1, 69, 0
3, 130368, Note_on_c, 1, 80, 88
3, 130368, Note_on_c, 1, 68, 88
3, 130556, Note_off_c, 1, 80, 0
3, 130556, Note_off_c, 1, 68, 0
3, 130560, Note_on_c, 1, 81, 88
3, 130560, Note_on_c, 1, 69, 88
3, 130940, Note_off_c, 1, 81, 0
3, 130940, Note_off_c, 1, 69, 0
3, 131328, Note_on_c, 1, 74, 91
3, 131328, Note_on_c, 1, 68, 91
3, 131328, Note_on_c, 1, 64, 91
3, 131516, Note_off_c, 1, 74, 0
3, 131516, Note_off_c, 1, 68, 0
3, 131516, Note_off_c, 1, 64, 0
3, 131520, Note_on_c, 1, 74, 92
3, 131520, Note_on_c, 1, 68, 92
3, 131520, Note_on_c, 1, 64, 92
3, 131708, Note_off_c, 1, 74, 0
3, 131708, Note_off_c, 1, 68, 0
3, 131708, Note_off_c, 1, 64, 0
3, 131712, Note_on_c, 1, 68, 92
3, 131712, Note_on_c, 1, 64, 92
3, 131712, Note_on_c, 1, 62, 92
3, 131900, Note_off_c, 1, 68, 0
3, 131900, Note_off_c, 1, 64, 0
3, 131900, Note_off_c, 1, 62, 0
3, 131904, Note_on_c, 1, 68, 93
3, 131904, Note_on_c, 1, 64, 93
3, 131904, Note_on_c, 1, 62, 93
3, 132092, Note_off_c, 1, 68, 0
3, 132092, Note_off_c, 1, 64, 0
3, 132092, Note_off_c, 1, 62, 0
3, 132096, Note_on_c, 1, 69, 94
3, 132096, Note_on_c, 1, 64, 94
3, 132096, Note_on_c, 1, 61, 94
3, 132476, Note_off_c, 1, 69, 0
3, 132476, Note_off_c, 1, 64, 0
3, 132476, Note_off_c, 1, 61, 0
3, 132480, Note_on_c, 1, 81, 96
3, 132480, Note_on_c, 1, 76, 96
3, 132480, Note_on_c, 1, 73, 96
3, 132480, Note_on_c, 1, 69, 96
3, 132860, Note_off_c, 1, 81, 0
3, 132860, Note_off_c, 1, 76, 0
3, 132860, Note_off_c, 1, 73, 0
3, 132860, Note_off_c, 1, 69, 0
3, 144384, Note_on_c, 1, 66, 96
3, 144576, Note_on_c, 1, 69, 69
3, 144764, Note_off_c, 1, 69, 0
3, 144768, Note_on_c, 1, 71, 69
3, 144956, Note_off_c, 1, 71, 0
3, 144960, Note_on_c, 1, 72, 69
3, 145148, Note_off_c, 1, 66, 0
3, 145148, Note_off_c, 1, 72, 0
3, 145152, Note_on_c, 1, 71, 69
3, 145152, Note_on_c, 1, 59, 69
3, 145244, Note_off_c, 1, 71, 0
3, 145244, Note_off_c, 1, 59, 0
3, 145344, Note_on_c, 1, 76, 69
3, 145344, Note_on_c, 1, 68, 69
3, 145436, Note_off_c, 1, 76, 0
3, 145436, Note_off_c, 1, 68, 0
3, 145536, Note_on_c, 1, 76, 69
3, 145536, Note_on_c, 1, 69, 69
3, 145628, Note_off_c, 1, 76, 0
3, 145628, Note_off_c, 1, 69, 0
3, 145728, Note_on_c, 1, 76, 69
3, 145728, Note_on_c, 1, 71, 69
3, 145820, Note_off_c, 1, 76, 0
3, 145820, Note_off_c, 1, 71, 0
3, 145920, Note_on_c, 1, 81, 69
3, 145920, Note_on_c, 1, 69, 69
3, 146012, Note_off_c, 1, 69, 0
3, 146112, Note_on_c, 1, 73, 69
3, 146204, Note_off_c, 1, 73, 0
3, 146300, Note_off_c, 1, 81, 0
3, 146304, Note_on_c, 1, 76, 69
3, 146304, Note_on_c, 1, 71, 69
3, 146396, Note_off_c, 1, 71, 0
3, 146492, Note_off_c, 1, 76, 0
3, 146496, Note_on_c, 1, 69, 69
3, 146588, Note_off_c, 1, 69, 0
3, 146688, Note_on_c, 1, 68, 69
3, 146780, Note_off_c, 1, 68, 0
3, 146880, Note_on_c, 1, 68, 69
3, 146880, Note_on_c, 1, 64, 69
3, 146972, Note_off_c, 1, 68, 0
3, 146972, Note_off_c, 1, 64, 0
3, 147072, Note_on_c, 1, 69, 69
3, 147072, Note_on_c, 1, 64, 69
3, 147164, Note_off_c, 1, 69, 0
3, 147164, Note_off_c, 1, 64, 0
3, 147264, Note_on_c, 1, 71, 69
3, 147264, Note_on_c, 1, 64, 69
3, 147356, Note_off_c, 1, 71, 0
3, 147356, Note_off_c, 1, 64, 0
3, 147456, Note_on_c, 1, 69, 69
3, 147456, Note_on_c, 1, 69, 69
3, 147644, Note_off_c, 1, 69, 0
3, 147648, Note_on_c, 1, 73, 69
3, 147740, Note_off_c, 1, 73, 0
3, 147836, Note_off_c, 1, 69, 0
3, 147840, Note_on_c, 1, 71, 69
3, 147840, Note_on_c, 1, 64, 69
3, 147932, Note_off_c, 1, 71, 0
3, 148028, Note_off_c, 1, 64, 0
3, 148032, Note_on_c, 1, 69, 69
3, 148124, Note_off_c, 1, 69, 0
3, 148224, Note_on_c, 1, 68, 69
3, 148316, Note_off_c, 1, 68, 0
3, 148416, Note_on_c, 1, 68, 69
3, 148416, Note_on_c, 1, 71, 69
3, 148508, Note_off_c, 1, 68, 0
3, 148508, Note_off_c, 1, 71, 0
3, 148608, Note_on_c, 1, 69, 69
3, 148608, Note_on_c, 1, 73, 69
3, 148700, Note_off_c, 1, 69, 0
3, 148700, Note_off_c, 1, 73, 0
3, 148800, Note_on_c, 1, 71, 69
3, 148800, Note_on_c, 1, 74, 69
3, 148892, Note_off_c, 1, 71, 0
3, 148892, Note_off_c, 1, 74, 0
3, 148992, Note_on_c, 1, 73, 69
3, 148992, Note_on_c, 1, 69, 69
3, 149084, Note_off_c, 1, 73, 0
3, 149084, Note_off_c, 1, 69, 0
3, 149184, Note_on_c, 1, 76, 69
3, 149184, Note_on_c, 1, 73, 69
3, 149280, Note_off_c, 1, 76, 0
3, 149280, Note_off_c, 1, 73, 0
3, 149280, Note_on_c, 1, 78, 69
3, 149280, Note_on_c, 1, 74, 69
3, 149360, Note_off_c, 1, 78, 0
3, 149360, Note_off_c, 1, 74, 0
3, 149376, Note_on_c, 1, 74, 69
3, 149376, Note_on_c, 1, 71, 69
3, 149468, Note_off_c, 1, 74, 0
3, 149468, Note_off_c, 1, 71, 0
3, 149568, Note_on_c, 1, 74, 69
3, 149568, Note_on_c, 1, 71, 69
3, 149664, Note_off_c, 1, 74, 0
3, 149664, Note_off_c, 1, 71, 0
3, 149664, Note_on_c, 1, 76, 69
3, 149664, Note_on_c, 1, 73, 69
3, 149744, Note_off_c, 1, 76, 0
3, 149744, Note_off_c, 1, 73, 0
3, 149760, Note_on_c, 1, 73, 69
3, 149760, Note_on_c, 1, 69, 69
3, 149852, Note_off_c, 1, 73, 0
3, 149852, Note_off_c, 1, 69, 0
3, 149952, Note_on_c, 1, 73, 69
3, 149952, Note_on_c, 1, 69, 69
3, 150048, Note_off_c, 1, 73, 0
3, 150048, Note_off_c, 1, 69, 0
3, 150048, Note_on_c, 1, 74, 69
3, 150048, Note_on_c, 1, 71, 69
3, 150128, Note_off_c, 1, 74, 0
3, 150128, Note_off_c, 1, 71, 0
3, 150144, Note_on_c, 1, 71, 69
3, 150144, Note_on_c, 1, 68, 69
3, 150236, Note_off_c, 1, 71, 0
3, 150236, Note_off_c, 1, 68, 0
3, 150240, Note_on_c, 1, 73, 69
3, 150240, Note_on_c, 1, 69, 69
3, 150332, Note_off_c, 1, 73, 0
3, 150332, Note_off_c, 1, 69, 0
3, 150336, Note_on_c, 1, 74, 69
3, 150336, Note_on_c, 1, 71, 69
3, 150428, Note_off_c, 1, 74, 0
3, 150428, Note_off_c, 1, 71, 0
3, 150432, Note_on_c, 1, 68, 69
3, 150432, Note_on_c, 1, 71, 69
3, 150524, Note_off_c, 1, 68, 0
3, 150524, Note_off_c, 1, 71, 0
3, 150528, Note_on_c, 1, 73, 69
3, 150528, Note_on_c, 1, 69, 69
3, 150620, Note_off_c, 1, 73, 0
3, 150620, Note_off_c, 1, 69, 0
3, 150720, Note_on_c, 1, 73, 69
3, 150816, Note_off_c, 1, 73, 0
3, 150816, Note_on_c, 1, 74, 69
3, 150896, Note_off_c, 1, 74, 0
3, 150912, Note_on_c, 1, 71, 69
3, 151004, Note_off_c, 1, 71, 0
3, 151104, Note_on_c, 1, 71, 69
3, 151200, Note_off_c, 1, 71, 0
3, 151200, Note_on_c, 1, 73, 69
3, 151280, Note_off_c, 1, 73, 0
3, 151296, Note_on_c, 1, 69, 69
3, 151388, Note_off_c, 1, 69, 0
3, 151488, Note_on_c, 1, 69, 69
3, 151584, Note_off_c, 1, 69, 0
3, 151584, Note_on_c, 1, 71, 69
3, 151664, Note_off_c, 1, 71, 0
3, 151680, Note_on_c, 1, 68, 69
3, 151772, Note_off_c, 1, 68, 0
3, 151776, Note_on_c, 1, 69, 69
3, 151868, Note_off_c, 1, 69, 0
3, 151872, Note_on_c, 1, 71, 69
3, 151964, Note_off_c, 1, 71, 0
3, 151968, Note_on_c, 1, 68, 69
3, 152060, Note_off_c, 1, 68, 0
3, 152064, Note_on_c, 1, 69, 69
3, 152444, Note_off_c, 1, 69, 0
3, 153600, Note_on_c, 1, 67, 82
3, 153600, Note_on_c, 1, 64, 82
3, 153600, Note_on_c, 1, 57, 82
3, 153788, Note_off_c, 1, 67, 0
3, 153788, Note_off_c, 1, 64, 0
3, 153788, Note_off_c, 1, 57, 0
3, 153792, Note_on_c, 1, 67, 82
3, 153792, Note_on_c, 1, 64, 82
3, 153792, Note_on_c, 1, 57, 82
3, 153980, Note_off_c, 1, 67, 0
3, 153980, Note_off_c, 1, 64, 0
3, 153980, Note_off_c, 1, 57, 0
3, 153984, Note_on_c, 1, 67, 82
3, 153984, Note_on_c, 1, 64, 82
3, 153984, Note_on_c, 1, 57, 82
3, 154172, Note_off_c, 1, 67, 0
3, 154172, Note_off_c, 1, 64, 0
3, 154172, Note_off_c, 1, 57, 0
3, 154176, Note_on_c, 1, 67, 82
3, 154176, Note_on_c, 1, 64, 82
3, 154176, Note_on_c, 1, 57, 82
3, 154364, Note_off_c, 1, 67, 0
3, 154364, Note_off_c, 1, 64, 0
3, 154364, Note_off_c, 1, 57, 0
3, 154368, Note_on_c, 1, 67, 82
3, 154368, Note_on_c, 1, 64, 82
3, 154368, Note_on_c, 1, 57, 82
3, 154556, Note_off_c, 1, 67, 0
3, 154556, Note_off_c, 1, 64, 0
3, 154556, Note_off_c, 1, 57, 0
3, 154560, Note_on_c, 1, 67, 82
3, 154560, Note_on_c, 1, 64, 82
3, 154560, Note_on_c, 1, 57, 82
3, 154748, Note_off_c, 1, 67, 0
3, 154748, Note_off_c, 1, 64, 0
3, 154748, Note_off_c, 1, 57, 0
3, 154752, Note_on_c, 1, 67, 82
3, 154752, Note_on_c, 1, 64, 82
3, 154752, Note_on_c, 1, 57, 82
3, 154940, Note_off_c, 1, 67, 0
3, 154940, Note_off_c, 1, 64, 0
3, 154940, Note_off_c, 1, 57, 0
3, 154944, Note_on_c, 1, 67, 82
3, 154944, Note_on_c, 1, 64, 82
3, 154944, Note_on_c, 1, 57, 82
3, 155132, Note_off_c, 1, 67, 0
3, 155132, Note_off_c, 1, 64, 0
3, 155132, Note_off_c, 1, 57, 0
3, 155328, Note_on_c, 1, 66, 82
3, 155328, Note_on_c, 1, 62, 82
3, 155328, Note_on_c, 1, 57, 82
3, 155516, Note_off_c, 1, 66, 0
3, 155516, Note_off_c, 1, 62, 0
3, 155516, Note_off_c, 1, 57, 0
3, 155520, Note_on_c, 1, 66, 82
3, 155520, Note_on_c, 1, 62, 82
3, 155520, Note_on_c, 1, 57, 82
3, 155708, Note_off_c, 1, 66, 0
3, 155708, Note_off_c, 1, 62, 0
3, 155708, Note_off_c, 1, 57, 0
3, 155712, Note_on_c, 1, 66, 82
3, 155712, Note_on_c, 1, 62, 82
3, 155712, Note_on_c, 1, 57, 82
3, 155900, Note_off_c, 1, 66, 0
3, 155900, Note_off_c, 1, 62, 0
3, 155900, Note_off_c, 1, 57, 0
3, 155904, Note_on_c, 1, 66, 82
3, 155904, Note_on_c, 1, 62, 82
3, 155904, Note_on_c, 1, 57, 82
3, 156092, Note_off_c, 1, 66, 0
3, 156092, Note_off_c, 1, 62, 0
3, 156092, Note_off_c, 1, 57, 0
3, 156096, Note_on_c, 1, 66, 82
3, 156096, Note_on_c, 1, 62, 82
3, 156096, Note_on_c, 1, 57, 82
3, 156284, Note_off_c, 1, 66, 0
3, 156284, Note_off_c, 1, 62, 0
3, 156284, Note_off_c, 1, 57, 0
3, 156288, Note_on_c, 1, 69, 82
3, 156288, Note_on_c, 1, 66, 82
3, 156288, Note_on_c, 1, 62, 82
3, 156476, Note_off_c, 1, 69, 0
3, 156476, Note_off_c, 1, 66, 0
3, 156476, Note_off_c, 1, 62, 0
3, 156480, Note_on_c, 1, 74, 82
3, 156480, Note_on_c, 1, 69, 82
3, 156480, Note_on_c, 1, 66, 82
3, 156668, Note_off_c, 1, 74, 0
3, 156668, Note_off_c, 1, 69, 0
3, 156668, Note_off_c, 1, 66, 0
3, 156672, Note_on_c, 1, 73, 82
3, 156672, Note_on_c, 1, 69, 82
3, 156672, Note_on_c, 1, 64, 82
3, 156860, Note_off_c, 1, 73, 0
3, 156860, Note_off_c, 1, 69, 0
3, 156860, Note_off_c, 1, 64, 0
3, 156864, Note_on_c, 1, 71, 82
3, 156864, Note_on_c, 1, 69, 82
3, 156864, Note_on_c, 1, 62, 82
3, 157052, Note_off_c, 1, 71, 0
3, 157052, Note_off_c, 1, 69, 0
3, 157052, Note_off_c, 1, 62, 0
3, 157056, Note_on_c, 1, 73, 82
3, 157056, Note_on_c, 1, 69, 82
3, 157056, Note_on_c, 1, 64, 82
3, 157244, Note_off_c, 1, 73, 0
3, 157244, Note_off_c, 1, 69, 0
3, 157244, Note_off_c, 1, 64, 0
3, 157248, Note_on_c, 1, 71, 82
3, 157248, Note_on_c, 1, 69, 82
3, 157248, Note_on_c, 1, 66, 82
3, 157436, Note_off_c, 1, 71, 0
3, 157436, Note_off_c, 1, 69, 0
3, 157436, Note_off_c, 1, 66, 0
3, 157440, Note_on_c, 1, 74, 82
3, 157440, Note_on_c, 1, 69, 82
3, 157440, Note_on_c, 1, 64, 82
3, 157628, Note_off_c, 1, 74, 0
3, 157628, Note_off_c, 1, 69, 0
3, 157628, Note_off_c, 1, 64, 0
3, 157632, Note_on_c, 1, 74, 82
3, 157632, Note_on_c, 1, 68, 82
3, 157632, Note_on_c, 1, 64, 82
3, 157820, Note_off_c, 1, 74, 0
3, 157820, Note_off_c, 1, 68, 0
3, 157820, Note_off_c, 1, 64, 0
3, 157824, Note_on_c, 1, 68, 82
3, 157824, Note_on_c, 1, 64, 82
3, 157824, Note_on_c, 1, 62, 82
3, 158012, Note_off_c, 1, 68, 0
3, 158012, Note_off_c, 1, 64, 0
3, 158012, Note_off_c, 1, 62, 0
3, 158016, Note_on_c, 1, 68, 82
3, 158016, Note_on_c, 1, 64, 82
3, 158016, Note_on_c, 1, 62, 82
3, 158204, Note_off_c, 1, 68, 0
3, 158204, Note_off_c, 1, 64, 0
3, 158204, Note_off_c, 1, 62, 0
3, 158208, Note_on_c, 1, 69, 82
3, 158208, Note_on_c, 1, 64, 82
3, 158208, Note_on_c, 1, 61, 82
3, 158396, Note_off_c, 1, 69, 0
3, 158396, Note_off_c, 1, 64, 0
3, 158396, Note_off_c, 1, 61, 0
3, 158592, Note_on_c, 1, 73, 69
3, 158592, Note_on_c, 1, 69, 69
3, 158684, Note_off_c, 1, 73, 0
3, 158684, Note_off_c, 1, 69, 0
3, 158688, Note_on_c, 1, 76, 69
3, 158780, Note_off_c, 1, 76, 0
3, 158976, Note_on_c, 1, 73, 69
3, 158976, Note_on_c, 1, 69, 69
3, 159068, Note_off_c, 1, 73, 0
3, 159068, Note_off_c, 1, 69, 0
3, 159072, Note_on_c, 1, 76, 69
3, 159164, Note_off_c, 1, 76, 0
3, 159360, Note_on_c, 1, 73, 69
3, 159360, Note_on_c, 1, 69, 69
3, 159452, Note_off_c, 1, 73, 0
3, 159452, Note_off_c, 1, 69, 0
3, 159456, Note_on_c, 1, 76, 69
3, 159548, Note_off_c, 1, 76, 0
3, 159744, Note_on_c, 1, 66, 69
3, 159744, Note_on_c, 1, 62, 69
3, 159744, Note_on_c, 1, 57, 69
3, 159932, Note_off_c, 1, 66, 0
3, 159932, Note_off_c, 1, 62, 0
3, 159932, Note_off_c, 1, 57, 0
3, 160128, Note_on_c, 1, 78, 69
3, 160128, Note_on_c, 1, 69, 69
3, 160220, Note_off_c, 1, 78, 0
3, 160220, Note_off_c, 1, 69, 0
3, 160224, Note_on_c, 1, 74, 69
3, 160316, Note_off_c, 1, 74, 0
3, 160512, Note_on_c, 1, 78, 69
3, 160512, Note_on_c, 1, 69, 69
3, 160604, Note_off_c, 1, 78, 0
3, 160604, Note_off_c, 1, 69, 0
3, 160608, Note_on_c, 1, 74, 69
3, 160700, Note_off_c, 1, 74, 0
3, 160896, Note_on_c, 1, 78, 69
3, 160896, Note_on_c, 1, 69, 69
3, 160988, Note_off_c, 1, 78, 0
3, 160988, Note_off_c, 1, 69, 0
3, 160992, Note_on_c, 1, 74, 69
3, 161084, Note_off_c, 1, 74, 0
3, 161280, Note_on_c, 1, 73, 72
3, 161280, Note_on_c, 1, 69, 72
3, 161468, Note_off_c, 1, 73, 0
3, 161468, Note_off_c, 1, 69, 0
3, 161472, Note_on_c, 1, 73, 74
3, 161660, Note_off_c, 1, 73, 0
3, 161664, Note_on_c, 1, 74, 78
3, 161852, Note_off_c, 1, 74, 0
3, 161856, Note_on_c, 1, 75, 80
3, 162044, Note_off_c, 1, 75, 0
3, 162048, Note_on_c, 1, 76, 84
3, 162236, Note_off_c, 1, 76, 0
3, 162240, Note_on_c, 1, 77, 86
3, 162428, Note_off_c, 1, 77, 0
3, 162432, Note_on_c, 1, 78, 90
3, 162620, Note_off_c, 1, 78, 0
3, 162624, Note_on_c, 1, 75, 92
3, 162812, Note_off_c, 1, 75, 0
3, 162816, Note_on_c, 1, 76, 96
3, 163196, Note_off_c, 1, 76, 0
3, 164352, Note_on_c, 1, 73, 82
3, 164352, Note_on_c, 1, 69, 82
3, 164444, Note_off_c, 1, 73, 0
3, 164444, Note_off_c, 1, 69, 0
3, 164448, Note_on_c, 1, 64, 82
3, 164540, Note_off_c, 1, 64, 0
3, 164544, Note_on_c, 1, 73, 82
3, 164544, Note_on_c, 1, 69, 82
3, 164636, Note_off_c, 1, 73, 0
3, 164636, Note_off_c, 1, 69, 0
3, 164640, Note_on_c, 1, 64, 82
3, 164732, Note_off_c, 1, 64, 0
3, 164736, Note_on_c, 1, 73, 82
3, 164736, Note_on_c, 1, 69, 82
3, 164828, Note_off_c, 1, 73, 0
3, 164828, Note_off_c, 1, 69, 0
3, 164832, Note_on_c, 1, 64, 82
3, 164924, Note_off_c, 1, 64, 0
3, 164928, Note_on_c, 1, 73, 82
3, 164928, Note_on_c, 1, 69, 82
3, 165020, Note_off_c, 1, 73, 0
3, 165020, Note_off_c, 1, 69, 0
3, 165024, Note_on_c, 1, 64, 82
3, 165116, Note_off_c, 1, 64, 0
3, 165120, Note_on_c, 1, 73, 82
3, 165120, Note_on_c, 1, 69, 82
3, 165212, Note_off_c, 1, 73, 0
3, 165212, Note_off_c, 1, 69, 0
3, 165216, Note_on_c, 1, 64, 82
3, 165308, Note_off_c, 1, 64, 0
3, 165312, Note_on_c, 1, 73, 82
3, 165312, Note_on_c, 1, 69, 82
3, 165404, Note_off_c, 1, 73, 0
3, 165404, Note_off_c, 1, 69, 0
3, 165408, Note_on_c, 1, 64, 82
3, 165500, Note_off_c, 1, 64, 0
3, 165504, Note_on_c, 1, 73, 82
3, 165504, Note_on_c, 1, 69, 82
3, 165596, Note_off_c, 1, 73, 0
3, 165596, Note_off_c, 1, 69, 0
3, 165600, Note_on_c, 1, 64, 82
3, 165692, Note_off_c, 1, 64, 0
3, 165696, Note_on_c, 1, 73, 84
3, 165696, Note_on_c, 1, 69, 84
3, 165788, Note_off_c, 1, 73, 0
3, 165788, Note_off_c, 1, 69, 0
3, 165792, Note_on_c, 1, 64, 84
3, 165884, Note_off_c, 1, 64, 0
3, 165888, Note_on_c, 1, 74, 85
3, 165888, Note_on_c, 1, 71, 85
3, 165888, Note_on_c, 1, 68, 85
3, 165980, Note_off_c, 1, 74, 0
3, 165980, Note_off_c, 1, 71, 0
3, 165980, Note_off_c, 1, 68, 0
3, 165984, Note_on_c, 1, 64, 86
3, 166064, Note_on_c, 1, 68, 86
3, 166076, Note_off_c, 1, 64, 0
3, 166080, Note_on_c, 1, 74, 86
3, 166080, Note_on_c, 1, 71, 86
3, 166156, Note_off_c, 1, 68, 0
3, 166172, Note_off_c, 1, 74, 0
3, 166172, Note_off_c, 1, 71, 0
3, 166176, Note_on_c, 1, 64, 88
3, 166268, Note_off_c, 1, 64, 0
3, 166272, Note_on_c, 1, 74, 88
3, 166272, Note_on_c, 1, 71, 88
3, 166272, Note_on_c, 1, 68, 88
3, 166364, Note_off_c, 1, 74, 0
3, 166364, Note_off_c, 1, 71, 0
3, 166364, Note_off_c, 1, 68, 0
3, 166368, Note_on_c, 1, 64, 89
3, 166460, Note_off_c, 1, 64, 0
3, 166464, Note_on_c, 1, 74, 90
3, 166464, Note_on_c, 1, 71, 90
3, 166464, Note_on_c, 1, 68, 90
3, 166556, Note_off_c, 1, 74, 0
3, 166556, Note_off_c, 1, 71, 0
3, 166556, Note_off_c, 1, 68, 0
3, 166560, Note_on_c, 1, 64, 90
3, 166652, Note_off_c, 1, 64, 0
3, 166656, Note_on_c, 1, 80, 91
3, 166656, Note_on_c, 1, 76, 91
3, 166656, Note_on_c, 1, 74, 91
3, 166748, Note_off_c, 1, 80, 0
3, 166748, Note_off_c, 1, 76, 0
3, 166748, Note_off_c, 1, 74, 0
3, 166752, Note_on_c, 1, 71, 91
3, 166844, Note_off_c, 1, 71, 0
3, 166848, Note_on_c, 1, 80, 92
3, 166848, Note_on_c, 1, 76, 92
3, 166848, Note_on_c, 1, 74, 92
3, 166940, Note_off_c, 1, 80, 0
3, 166940, Note_off_c, 1, 76, 0
3, 166940, Note_off_c, 1, 74, 0
3, 166944, Note_on_c, 1, 71, 93
3, 167036, Note_off_c, 1, 71, 0
3, 167040, Note_on_c, 1, 80, 93
3, 167040, Note_on_c, 1, 76, 93
3, 167040, Note_on_c, 1, 74, 93
3, 167132, Note_off_c, 1, 80, 0
3, 167132, Note_off_c, 1, 76, 0
3, 167132, Note_off_c, 1, 74, 0
3, 167136, Note_on_c, 1, 71, 94
3, 167228, Note_off_c, 1, 71, 0
3, 167232, Note_on_c, 1, 80, 94
3, 167232, Note_on_c, 1, 76, 94
3, 167232, Note_on_c, 1, 74, 94
3, 167324, Note_off_c, 1, 80, 0
3, 167324, Note_off_c, 1, 76, 0
3, 167324, Note_off_c, 1, 74, 0
3, 167328, Note_on_c, 1, 71, 96
3, 167420, Note_off_c, 1, 71, 0
3, 167424, Note_on_c, 1, 81, 96
3, 167424, Note_on_c, 1, 76, 96
3, 167424, Note_on_c, 1, 73, 96
3, 167424, Note_on_c, 1, 69, 96
3, 167804, Note_off_c, 1, 81, 0
3, 167804, Note_off_c, 1, 76, 0
3, 167804, Note_off_c, 1, 73, 0
3, 167804, Note_off_c, 1, 69, 0
3, 167808, Note_on_c, 1, 69, 96
3, 167900, Note_off_c, 1, 69, 0
3, 167904, Note_on_c, 1, 67, 96
3, 167996, Note_off_c, 1, 67, 0
3, 168000, Note_on_c, 1, 66, 96
3, 168092, Note_off_c, 1, 66, 0
3, 168096, Note_on_c, 1, 67, 96
3, 168188, Note_off_c, 1, 67, 0
3, 168192, Note_on_c, 1, 69, 96
3, 168284, Note_off_c, 1, 69, 0
3, 168288, Note_on_c, 1, 67, 96
3, 168380, Note_off_c, 1, 67, 0
3, 168384, Note_on_c, 1, 66, 96
3, 168476, Note_off_c, 1, 66, 0
3, 168480, Note_on_c, 1, 67, 96
3, 168572, Note_off_c, 1, 67, 0
3, 168576, Note_on_c, 1, 69, 96
3, 168668, Note_off_c, 1, 69, 0
3, 168672, Note_on_c, 1, 67, 96
3, 168764, Note_off_c, 1, 67, 0
3, 168768, Note_on_c, 1, 66, 96
3, 168860, Note_off_c, 1, 66, 0
3, 168864, Note_on_c, 1, 67, 96
3, 168956, Note_off_c, 1, 67, 0
3, 168960, Note_on_c, 1, 66, 96
3, 169340, Note_off_c, 1, 66, 0
3, 169344, Note_on_c, 1, 70, 96
3, 169436, Note_off_c, 1, 70, 0
3, 169440, Note_on_c, 1, 71, 96
3, 169532, Note_off_c, 1, 71, 0
3, 169536, Note_on_c, 1, 74, 96
3, 169536, Note_on_c, 1, 71, 96
3, 169628, Note_off_c, 1, 74, 0
3, 169628, Note_off_c, 1, 71, 0
3, 169632, Note_on_c, 1, 78, 96
3, 169632, Note_on_c, 1, 74, 96
3, 169724, Note_off_c, 1, 78, 0
3, 169724, Note_off_c, 1, 74, 0
3, 169728, Note_on_c, 1, 78, 96
3, 169728, Note_on_c, 1, 74, 96
3, 169820, Note_off_c, 1, 78, 0
3, 169820, Note_off_c, 1, 74, 0
3, 169824, Note_on_c, 1, 76, 96
3, 169824, Note_on_c, 1, 73, 96
3, 169916, Note_off_c, 1, 76, 0
3, 169916, Note_off_c, 1, 73, 0
3, 169920, Note_on_c, 1, 74, 96
3, 169920, Note_on_c, 1, 71, 96
3, 170012, Note_off_c, 1, 74, 0
3, 170012, Note_off_c, 1, 71, 0
3, 170016, Note_on_c, 1, 73, 96
3, 170016, Note_on_c, 1, 69, 96
3, 170108, Note_off_c, 1, 73, 0
3, 170108, Note_off_c, 1, 69, 0
3, 170112, Note_on_c, 1, 76, 96
3, 170112, Note_on_c, 1, 73, 96
3, 170204, Note_off_c, 1, 76, 0
3, 170204, Note_off_c, 1, 73, 0
3, 170208, Note_on_c, 1, 74, 96
3, 170208, Note_on_c, 1, 71, 96
3, 170300, Note_off_c, 1, 74, 0
3, 170300, Note_off_c, 1, 71, 0
3, 170304, Note_on_c, 1, 73, 96
3, 170304, Note_on_c, 1, 69, 96
3, 170396, Note_off_c, 1, 73, 0
3, 170396, Note_off_c, 1, 69, 0
3, 170400, Note_on_c, 1, 71, 96
3, 170400, Note_on_c, 1, 68, 96
3, 170492, Note_off_c, 1, 71, 0
3, 170492, Note_off_c, 1, 68, 0
3, 170496, Note_on_c, 1, 69, 96
3, 170876, Note_off_c, 1, 69, 0
3, 170880, Note_on_c, 1, 69, 96
3, 170972, Note_off_c, 1, 69, 0
3, 170976, Note_on_c, 1, 67, 96
3, 171068, Note_off_c, 1, 67, 0
3, 171072, Note_on_c, 1, 66, 96
3, 171164, Note_off_c, 1, 66, 0
3, 171168, Note_on_c, 1, 67, 96
3, 171260, Note_off_c, 1, 67, 0
3, 171264, Note_on_c, 1, 69, 96
3, 171356, Note_off_c, 1, 69, 0
3, 171360, Note_on_c, 1, 67, 96
3, 171452, Note_off_c, 1, 67, 0
3, 171456, Note_on_c, 1, 66, 96
3, 171548, Note_off_c, 1, 66, 0
3, 171552, Note_on_c, 1, 67, 96
3, 171644, Note_off_c, 1, 67, 0
3, 171648, Note_on_c, 1, 69, 96
3, 171740, Note_off_c, 1, 69, 0
3, 171744, Note_on_c, 1, 67, 96
3, 171836, Note_off_c, 1, 67, 0
3, 171840, Note_on_c, 1, 66, 96
3, 171932, Note_off_c, 1, 66, 0
3, 171936, Note_on_c, 1, 67, 96
3, 172028, Note_off_c, 1, 67, 0
3, 172032, Note_on_c, 1, 66, 96
3, 172412, Note_off_c, 1, 66, 0
3, 172416, Note_on_c, 1, 70, 96
3, 172508, Note_off_c, 1, 70, 0
3, 172512, Note_on_c, 1, 71, 96
3, 172604, Note_off_c, 1, 71, 0
3, 172608, Note_on_c, 1, 78, 96
3, 172700, Note_off_c, 1, 78, 0
3, 172704, Note_on_c, 1, 81, 96
3, 172796, Note_off_c, 1, 81, 0
3, 172800, Note_on_c, 1, 81, 96
3, 172892, Note_off_c, 1, 81, 0
3, 172896, Note_on_c, 1, 80, 96
3, 172988, Note_off_c, 1, 80, 0
3, 172992, Note_on_c, 1, 78, 96
3, 172992, Note_on_c, 1, 74, 96
3, 173084, Note_off_c, 1, 78, 0
3, 173084, Note_off_c, 1, 74, 0
3, 173088, Note_on_c, 1, 76, 96
3, 173088, Note_on_c, 1, 73, 96
3, 173180, Note_off_c, 1, 76, 0
3, 173180, Note_off_c, 1, 73, 0
3, 173184, Note_on_c, 1, 76, 96
3, 173184, Note_on_c, 1, 73, 96
3, 173276, Note_off_c, 1, 76, 0
3, 173276, Note_off_c, 1, 73, 0
3, 173280, Note_on_c, 1, 74, 96
3, 173280, Note_on_c, 1, 71, 96
3, 173372, Note_off_c, 1, 74, 0
3, 173372, Note_off_c, 1, 71, 0
3, 173376, Note_on_c, 1, 73, 96
3, 173376, Note_on_c, 1, 69, 96
3, 173468, Note_off_c, 1, 73, 0
3, 173468, Note_off_c, 1, 69, 0
3, 173472, Note_on_c, 1, 71, 96
3, 173472, Note_on_c, 1, 68, 96
3, 173564, Note_off_c, 1, 71, 0
3, 173564, Note_off_c, 1, 68, 0
3, 173568, Note_on_c, 1, 69, 96
3, 173948, Note_off_c, 1, 69, 0
3, 173952, Note_on_c, 1, 73, 69
3, 173952, Note_on_c, 1, 64, 69
3, 174140, Note_off_c, 1, 73, 0
3, 174140, Note_off_c, 1, 64, 0
3, 174144, Note_on_c, 1, 73, 69
3, 174144, Note_on_c, 1, 64, 69
3, 174332, Note_off_c, 1, 73, 0
3, 174332, Note_off_c, 1, 64, 0
3, 174336, Note_on_c, 1, 73, 69
3, 174336, Note_on_c, 1, 64, 69
3, 174524, Note_off_c, 1, 73, 0
3, 174528, Note_on_c, 1, 74, 69
3, 174716, Note_off_c, 1, 74, 0
3, 174720, Note_on_c, 1, 71, 69
3, 174908, Note_off_c, 1, 71, 0
3, 174912, Note_on_c, 1, 68, 69
3, 175100, Note_off_c, 1, 68, 0
3, 175104, Note_on_c, 1, 69, 69
3, 175292, Note_off_c, 1, 64, 0
3, 175292, Note_off_c, 1, 69, 0
3, 175296, Note_on_c, 1, 73, 69
3, 175484, Note_off_c, 1, 73, 0
3, 175488, Note_on_c, 1, 76, 69
3, 175488, Note_on_c, 1, 64, 69
3, 175676, Note_off_c, 1, 76, 0
3, 175680, Note_on_c, 1, 73, 69
3, 175868, Note_off_c, 1, 73, 0
3, 175872, Note_on_c, 1, 73, 69
3, 176060, Note_off_c, 1, 73, 0
3, 176064, Note_on_c, 1, 74, 69
3, 176252, Note_off_c, 1, 64, 0
3, 176252, Note_off_c, 1, 74, 0
3, 176256, Note_on_c, 1, 71, 69
3, 176256, Note_on_c, 1, 64, 69
3, 176444, Note_off_c, 1, 71, 0
3, 176448, Note_on_c, 1, 68, 69
3, 176636, Note_off_c, 1, 64, 0
3, 176636, Note_off_c, 1, 68, 0
3, 176640, Note_on_c, 1, 69, 69
3, 176640, Note_on_c, 1, 64, 69
3, 177020, Note_off_c, 1, 69, 0
3, 177020, Note_off_c, 1, 64, 0
3, 177024, Note_on_c, 1, 69, 69
3, 177024, Note_on_c, 1, 64, 69
3, 177212, Note_off_c, 1, 69, 0
3, 177216, Note_on_c, 1, 69, 69
3, 177404, Note_off_c, 1, 69, 0
3, 177408, Note_on_c, 1, 69, 69
3, 177596, Note_off_c, 1, 69, 0
3, 177600, Note_on_c, 1, 68, 69
3, 177788, Note_off_c, 1, 64, 0
3, 177788, Note_off_c, 1, 68, 0
3, 177792, Note_on_c, 1, 71, 69
3, 177792, Note_on_c, 1, 64, 69
3, 177980, Note_off_c, 1, 71, 0
3, 177984, Note_on_c, 1, 74, 69
3, 178172, Note_off_c, 1, 74, 0
3, 178176, Note_on_c, 1, 73, 69
3, 178364, Note_off_c, 1, 73, 0
3, 178368, Note_on_c, 1, 76, 69
3, 178556, Note_off_c, 1, 64, 0
3, 178556, Note_off_c, 1, 76, 0
3, 178560, Note_on_c, 1, 64, 69
3, 178560, Note_on_c, 1, 73, 69
3, 178748, Note_off_c, 1, 73, 0
3, 178752, Note_on_c, 1, 69, 69
3, 178940, Note_off_c, 1, 69, 0
3, 178944, Note_on_c, 1, 69, 69
3, 179132, Note_off_c, 1, 69, 0
3, 179136, Note_on_c, 1, 68, 69
3, 179324, Note_off_c, 1, 64, 0
3, 179324, Note_off_c, 1, 68, 0
3, 179328, Note_on_c, 1, 64, 69
3, 179328, Note_on_c, 1, 71, 69
3, 179516, Note_off_c, 1, 71, 0
3, 179520, Note_on_c, 1, 74, 69
3, 179708, Note_off_c, 1, 64, 0
3, 179708, Note_off_c, 1, 74, 0
3, 179712, Note_on_c, 1, 73, 96
3, 179712, Note_on_c, 1, 70, 96
3, 179712, Note_on_c, 1, 67, 96
3, 179900, Note_off_c, 1, 73, 0
3, 179900, Note_off_c, 1, 70, 0
3, 179900, Note_off_c, 1, 67, 0
3, 179904, Note_on_c, 1, 73, 82
3, 179904, Note_on_c, 1, 70, 82
3, 179904, Note_on_c, 1, 67, 82
3, 180092, Note_off_c, 1, 73, 0
3, 180092, Note_off_c, 1, 70, 0
3, 180092, Note_off_c, 1, 67, 0
3, 180096, Note_on_c, 1, 73, 82
3, 180096, Note_on_c, 1, 70, 82
3, 180096, Note_on_c, 1, 67, 82
3, 180284, Note_off_c, 1, 73, 0
3, 180284, Note_off_c, 1, 70, 0
3, 180284, Note_off_c, 1, 67, 0
3, 180288, Note_on_c, 1, 73, 82
3, 180288, Note_on_c, 1, 70, 82
3, 180288, Note_on_c, 1, 67, 82
3, 180476, Note_off_c, 1, 73, 0
3, 180476, Note_off_c, 1, 70, 0
3, 180476, Note_off_c, 1, 67, 0
3, 180480, Note_on_c, 1, 73, 82
3, 180480, Note_on_c, 1, 70, 82
3, 180480, Note_on_c, 1, 67, 82
3, 180860, Note_off_c, 1, 73, 0
3, 180860, Note_off_c, 1, 70, 0
3, 180860, Note_off_c, 1, 67, 0
3, 181248, Note_on_c, 1, 76, 82
3, 181248, Note_on_c, 1, 73, 82
3, 181248, Note_on_c, 1, 70, 82
3, 181628, Note_off_c, 1, 76, 0
3, 181628, Note_off_c, 1, 73, 0
3, 181628, Note_off_c, 1, 70, 0
3, 182016, Note_on_c, 1, 79, 82
3, 182016, Note_on_c, 1, 73, 82
3, 182016, Note_on_c, 1, 70, 82
3, 182396, Note_off_c, 1, 79, 0
3, 182396, Note_off_c, 1, 73, 0
3, 182396, Note_off_c, 1, 70, 0
3, 182784, Note_on_c, 1, 66, 82
3, 182784, Note_on_c, 1, 62, 82
3, 182972, Note_off_c, 1, 66, 0
3, 182972, Note_off_c, 1, 62, 0
3, 182976, Note_on_c, 1, 66, 82
3, 182992, Note_on_c, 1, 78, 82
3, 183164, Note_off_c, 1, 66, 0
3, 183168, Note_on_c, 1, 66, 82
3, 183180, Note_off_c, 1, 78, 0
3, 183184, Note_on_c, 1, 78, 82
3, 183548, Note_off_c, 1, 66, 0
3, 183552, Note_on_c, 1, 78, 82
3, 183552, Note_on_c, 1, 66, 82
3, 183564, Note_off_c, 1, 78, 0
3, 183740, Note_off_c, 1, 78, 0
3, 183740, Note_off_c, 1, 66, 0
3, 183744, Note_on_c, 1, 66, 82
3, 183744, Note_on_c, 1, 62, 82
3, 183932, Note_off_c, 1, 66, 0
3, 183932, Note_off_c, 1, 62, 0
3, 183936, Note_on_c, 1, 64, 82
3, 183936, Note_on_c, 1, 61, 82
3, 184124, Note_off_c, 1, 64, 0
3, 184124, Note_off_c, 1, 61, 0
3, 184128, Note_on_c, 1, 62, 82
3, 184128, Note_on_c, 1, 59, 82
3, 184316, Note_off_c, 1, 62, 0
3, 184316, Note_off_c, 1, 59, 0
3, 184320, Note_on_c, 1, 61, 82
3, 184320, Note_on_c, 1, 58, 82
3, 184508, Note_off_c, 1, 61, 0
3, 184508, Note_off_c, 1, 58, 0
3, 184512, Note_on_c, 1, 78, 82
3, 184512, Note_on_c, 1, 66, 82
3, 184700, Note_off_c, 1, 78, 0
3, 184700, Note_off_c, 1, 66, 0
3, 184704, Note_on_c, 1, 78, 82
3, 184704, Note_on_c, 1, 66, 82
3, 185084, Note_off_c, 1, 78, 0
3, 185084, Note_off_c, 1, 66, 0
3, 185088, Note_on_c, 1, 78, 82
3, 185088, Note_on_c, 1, 66, 82
3, 185276, Note_off_c, 1, 78, 0
3, 185276, Note_off_c, 1, 66, 0
3, 185280, Note_on_c, 1, 64, 82
3, 185280, Note_on_c, 1, 61, 82
3, 185468, Note_off_c, 1, 64, 0
3, 185468, Note_off_c, 1, 61, 0
3, 185472, Note_on_c, 1, 62, 82
3, 185472, Note_on_c, 1, 59, 82
3, 185660, Note_off_c, 1, 62, 0
3, 185660, Note_off_c, 1, 59, 0
3, 185664, Note_on_c, 1, 61, 82
3, 185664, Note_on_c, 1, 58, 82
3, 185852, Note_off_c, 1, 61, 0
3, 185852, Note_off_c, 1, 58, 0
3, 185856, Note_on_c, 1, 62, 82
3, 185856, Note_on_c, 1, 59, 82
3, 186044, Note_off_c, 1, 62, 0
3, 186044, Note_off_c, 1, 59, 0
3, 186048, Note_on_c, 1, 78, 82
3, 186048, Note_on_c, 1, 66, 82
3, 186236, Note_off_c, 1, 78, 0
3, 186236, Note_off_c, 1, 66, 0
3, 186240, Note_on_c, 1, 78, 82
3, 186240, Note_on_c, 1, 66, 82
3, 186620, Note_off_c, 1, 78, 0
3, 186620, Note_off_c, 1, 66, 0
3, 186624, Note_on_c, 1, 78, 82
3, 186624, Note_on_c, 1, 66, 82
3, 186812, Note_off_c, 1, 78, 0
3, 186812, Note_off_c, 1, 66, 0
3, 186816, Note_on_c, 1, 66, 82
3, 186816, Note_on_c, 1, 62, 82
3, 187004, Note_off_c, 1, 66, 0
3, 187004, Note_off_c, 1, 62, 0
3, 187008, Note_on_c, 1, 64, 82
3, 187008, Note_on_c, 1, 61, 82
3, 187196, Note_off_c, 1, 64, 0
3, 187196, Note_off_c, 1, 61, 0
3, 187200, Note_on_c, 1, 62, 82
3, 187200, Note_on_c, 1, 59, 82
3, 187388, Note_off_c, 1, 62, 0
3, 187388, Note_off_c, 1, 59, 0
3, 187392, Note_on_c, 1, 62, 82
3, 187392, Note_on_c, 1, 59, 82
3, 187580, Note_off_c, 1, 62, 0
3, 187580, Note_off_c, 1, 59, 0
3, 187584, Note_on_c, 1, 62, 82
3, 187584, Note_on_c, 1, 59, 82
3, 187772, Note_off_c, 1, 62, 0
3, 187772, Note_off_c, 1, 59, 0
3, 187776, Note_on_c, 1, 62, 82
3, 187776, Note_on_c, 1, 59, 82
3, 187964, Note_off_c, 1, 62, 0
3, 187964, Note_off_c, 1, 59, 0
3, 187968, Note_on_c, 1, 62, 82
3, 187968, Note_on_c, 1, 59, 82
3, 188156, Note_off_c, 1, 62, 0
3, 188156, Note_off_c, 1, 59, 0
3, 188160, Note_on_c, 1, 71, 82
3, 188160, Note_on_c, 1, 62, 82
3, 188348, Note_off_c, 1, 71, 0
3, 188348, Note_off_c, 1, 62, 0
3, 188352, Note_on_c, 1, 71, 82
3, 188352, Note_on_c, 1, 62, 82
3, 188540, Note_off_c, 1, 71, 0
3, 188540, Note_off_c, 1, 62, 0
3, 188544, Note_on_c, 1, 74, 82
3, 188544, Note_on_c, 1, 71, 82
3, 188732, Note_off_c, 1, 74, 0
3, 188732, Note_off_c, 1, 71, 0
3, 188736, Note_on_c, 1, 74, 82
3, 188736, Note_on_c, 1, 71, 82
3, 188924, Note_off_c, 1, 74, 0
3, 188924, Note_off_c, 1, 71, 0
3, 188928, Note_on_c, 1, 74, 82
3, 188928, Note_on_c, 1, 71, 82
3, 189116, Note_off_c, 1, 74, 0
3, 189116, Note_off_c, 1, 71, 0
3, 189120, Note_on_c, 1, 73, 82
3, 189120, Note_on_c, 1, 69, 82
3, 189308, Note_off_c, 1, 73, 0
3, 189308, Note_off_c, 1, 69, 0
3, 189312, Note_on_c, 1, 73, 82
3, 189312, Note_on_c, 1, 69, 82
3, 189500, Note_off_c, 1, 73, 0
3, 189500, Note_off_c, 1, 69, 0
3, 189504, Note_on_c, 1, 69, 82
3, 189504, Note_on_c, 1, 66, 82
3, 189692, Note_off_c, 1, 69, 0
3, 189692, Note_off_c, 1, 66, 0
3, 189696, Note_on_c, 1, 66, 82
3, 189696, Note_on_c, 1, 58, 82
3, 189884, Note_off_c, 1, 66, 0
3, 189884, Note_off_c, 1, 58, 0
3, 189888, Note_on_c, 1, 69, 82
3, 189888, Note_on_c, 1, 61, 82
3, 190076, Note_off_c, 1, 69, 0
3, 190076, Note_off_c, 1, 61, 0
3, 190080, Note_on_c, 1, 69, 82
3, 190080, Note_on_c, 1, 66, 82
3, 190268, Note_off_c, 1, 69, 0
3, 190268, Note_off_c, 1, 66, 0
3, 190272, Note_on_c, 1, 73, 82
3, 190272, Note_on_c, 1, 69, 82
3, 190460, Note_off_c, 1, 73, 0
3, 190460, Note_off_c, 1, 69, 0
3, 190464, Note_on_c, 1, 71, 82
3, 190844, Note_off_c, 1, 71, 0
3, 192000, Note_on_c, 1, 68, 96
3, 192192, Note_on_c, 1, 71, 69
3, 192380, Note_off_c, 1, 71, 0
3, 192384, Note_on_c, 1, 73, 69
3, 192572, Note_off_c, 1, 73, 0
3, 192576, Note_on_c, 1, 74, 69
3, 192764, Note_off_c, 1, 68, 0
3, 192764, Note_off_c, 1, 74, 0
3, 192768, Note_on_c, 1, 73, 82
3, 192956, Note_off_c, 1, 73, 0
3, 192960, Note_on_c, 1, 70, 82
3, 192960, Note_on_c, 1, 67, 82
3, 192960, Note_on_c, 1, 61, 82
3, 193148, Note_off_c, 1, 70, 0
3, 193148, Note_off_c, 1, 67, 0
3, 193148, Note_off_c, 1, 61, 0
3, 193152, Note_on_c, 1, 71, 82
3, 193152, Note_on_c, 1, 66, 82
3, 193152, Note_on_c, 1, 62, 82
3, 193340, Note_off_c, 1, 71, 0
3, 193340, Note_off_c, 1, 66, 0
3, 193340, Note_off_c, 1, 62, 0
3, 193344, Note_on_c, 1, 76, 82
3, 193344, Note_on_c, 1, 70, 82
3, 193344, Note_on_c, 1, 66, 82
3, 193532, Note_off_c, 1, 76, 0
3, 193532, Note_off_c, 1, 70, 0
3, 193532, Note_off_c, 1, 66, 0
3, 193536, Note_on_c, 1, 74, 82
3, 193536, Note_on_c, 1, 71, 82
3, 193536, Note_on_c, 1, 66, 82
3, 193916, Note_off_c, 1, 74, 0
3, 193916, Note_off_c, 1, 71, 0
3, 193916, Note_off_c, 1, 66, 0
3, 194304, Note_on_c, 1, 66, 82
3, 194304, Note_on_c, 1, 62, 82
3, 194684, Note_off_c, 1, 66, 0
3, 194684, Note_off_c, 1, 62, 0
3, 195072, Note_on_c, 1, 67, 63
3, 195072, Note_on_c, 1, 64, 63
3, 195260, Note_off_c, 1, 67, 0
3, 195260, Note_off_c, 1, 64, 0
3, 195264, Note_on_c, 1, 69, 63
3, 195264, Note_on_c, 1, 66, 63
3, 195452, Note_off_c, 1, 69, 0
3, 195452, Note_off_c, 1, 66, 0
3, 195456, Note_on_c, 1, 67, 63
3, 195456, Note_on_c, 1, 64, 63
3, 195644, Note_off_c, 1, 67, 0
3, 195644, Note_off_c, 1, 64, 0
3, 195648, Note_on_c, 1, 69, 63
3, 195648, Note_on_c, 1, 66, 63
3, 195836, Note_off_c, 1, 69, 0
3, 195836, Note_off_c, 1, 66, 0
3, 195840, Note_on_c, 1, 67, 67
3, 195840, Note_on_c, 1, 64, 67
3, 196028, Note_off_c, 1, 67, 0
3, 196028, Note_off_c, 1, 64, 0
3, 196032, Note_on_c, 1, 69, 69
3, 196032, Note_on_c, 1, 66, 69
3, 196220, Note_off_c, 1, 69, 0
3, 196220, Note_off_c, 1, 66, 0
3, 196224, Note_on_c, 1, 67, 71
3, 196224, Note_on_c, 1, 64, 71
3, 196412, Note_off_c, 1, 67, 0
3, 196412, Note_off_c, 1, 64, 0
3, 196416, Note_on_c, 1, 69, 73
3, 196416, Note_on_c, 1, 66, 73
3, 196604, Note_off_c, 1, 69, 0
3, 196604, Note_off_c, 1, 66, 0
3, 196608, Note_on_c, 1, 67, 77
3, 196608, Note_on_c, 1, 64, 77
3, 196988, Note_off_c, 1, 67, 0
3, 196988, Note_off_c, 1, 64, 0
3, 197376, Note_on_c, 1, 59, 82
3, 197376, Note_on_c, 1, 55, 82
3, 197756, Note_off_c, 1, 59, 0
3, 197756, Note_off_c, 1, 55, 0
3, 198144, Note_on_c, 1, 61, 63
3, 198144, Note_on_c, 1, 57, 63
3, 198332, Note_off_c, 1, 61, 0
3, 198332, Note_off_c, 1, 57, 0
3, 198336, Note_on_c, 1, 62, 63
3, 198336, Note_on_c, 1, 59, 63
3, 198524, Note_off_c, 1, 62, 0
3, 198524, Note_off_c, 1, 59, 0
3, 198528, Note_on_c, 1, 61, 63
3, 198528, Note_on_c, 1, 57, 63
3, 198716, Note_off_c, 1, 61, 0
3, 198716, Note_off_c, 1, 57, 0
3, 198720, Note_on_c, 1, 62, 63
3, 198720, Note_on_c, 1, 59, 63
3, 198908, Note_off_c, 1, 62, 0
3, 198908, Note_off_c, 1, 59, 0
3, 198912, Note_on_c, 1, 61, 67
3, 198912, Note_on_c, 1, 57, 67
3, 199100, Note_off_c, 1, 61, 0
3, 199100, Note_off_c, 1, 57, 0
3, 199104, Note_on_c, 1, 62, 69
3, 199104, Note_on_c, 1, 59, 69
3, 199292, Note_off_c, 1, 62, 0
3, 199292, Note_off_c, 1, 59, 0
3, 199296, Note_on_c, 1, 61, 71
3, 199296, Note_on_c, 1, 57, 71
3, 199484, Note_off_c, 1, 61, 0
3, 199484, Note_off_c, 1, 57, 0
3, 199488, Note_on_c, 1, 62, 73
3, 199488, Note_on_c, 1, 59, 73
3, 199676, Note_off_c, 1, 62, 0
3, 199676, Note_off_c, 1, 59, 0
3, 199680, Note_on_c, 1, 61, 77
3, 199680, Note_on_c, 1, 57, 77
3, 200060, Note_off_c, 1, 61, 0
3, 200060, Note_off_c, 1, 57, 0
3, 200448, Note_on_c, 1, 64, 82
3, 200448, Note_on_c, 1, 61, 82
3, 200828, Note_off_c, 1, 64, 0
3, 200828, Note_off_c, 1, 61, 0
3, 201216, Note_on_c, 1, 66, 63
3, 201216, Note_on_c, 1, 62, 63
3, 201404, Note_off_c, 1, 66, 0
3, 201404, Note_off_c, 1, 62, 0
3, 201408, Note_on_c, 1, 67, 63
3, 201408, Note_on_c, 1, 64, 63
3, 201596, Note_off_c, 1, 67, 0
3, 201596, Note_off_c, 1, 64, 0
3, 201600, Note_on_c, 1, 66, 63
3, 201600, Note_on_c, 1, 62, 63
3, 201788, Note_off_c, 1, 66, 0
3, 201788, Note_off_c, 1, 62, 0
3, 201792, Note_on_c, 1, 67, 63
3, 201792, Note_on_c, 1, 64, 63
3, 201980, Note_off_c, 1, 67, 0
3, 201980, Note_off_c, 1, 64, 0
3, 201984, Note_on_c, 1, 66, 67
3, 201984, Note_on_c, 1, 62, 67
3, 202172, Note_off_c, 1, 66, 0
3, 202172, Note_off_c, 1, 62, 0
3, 202176, Note_on_c, 1, 67, 69
3, 202176, Note_on_c, 1, 64, 69
3, 202364, Note_off_c, 1, 67, 0
3, 202364, Note_off_c, 1, 64, 0
3, 202368, Note_on_c, 1, 66, 71
3, 202368, Note_on_c, 1, 62, 71
3, 202556, Note_off_c, 1, 66, 0
3, 202556, Note_off_c, 1, 62, 0
3, 202560, Note_on_c, 1, 67, 73
3, 202560, Note_on_c, 1, 64, 73
3, 202748, Note_off_c, 1, 67, 0
3, 202748, Note_off_c, 1, 64, 0
3, 202752, Note_on_c, 1, 66, 77
3, 202752, Note_on_c, 1, 62, 77
3, 203132, Note_off_c, 1, 66, 0
3, 203132, Note_off_c, 1, 62, 0
3, 203520, Note_on_c, 1, 69, 82
3, 203520, Note_on_c, 1, 66, 82
3, 203900, Note_off_c, 1, 69, 0
3, 203900, Note_off_c, 1, 66, 0
3, 204288, Note_on_c, 1, 59, 63
3, 204288, Note_on_c, 1, 55, 63
3, 204476, Note_off_c, 1, 59, 0
3, 204476, Note_off_c, 1, 55, 0
3, 204480, Note_on_c, 1, 61, 63
3, 204480, Note_on_c, 1, 57, 63
3, 204668, Note_off_c, 1, 61, 0
3, 204668, Note_off_c, 1, 57, 0
3, 204672, Note_on_c, 1, 59, 63
3, 204672, Note_on_c, 1, 55, 63
3, 204860, Note_off_c, 1, 59, 0
3, 204860, Note_off_c, 1, 55, 0
3, 204864, Note_on_c, 1, 61, 63
3, 204864, Note_on_c, 1, 57, 63
3, 205052, Note_off_c, 1, 61, 0
3, 205052, Note_off_c, 1, 57, 0
3, 205056, Note_on_c, 1, 59, 67
3, 205056, Note_on_c, 1, 55, 67
3, 205244, Note_off_c, 1, 59, 0
3, 205244, Note_off_c, 1, 55, 0
3, 205248, Note_on_c, 1, 61, 69
3, 205248, Note_on_c, 1, 57, 69
3, 205436, Note_off_c, 1, 61, 0
3, 205436, Note_off_c, 1, 57, 0
3, 205440, Note_on_c, 1, 59, 71
3, 205440, Note_on_c, 1, 55, 71
3, 205628, Note_off_c, 1, 59, 0
3, 205628, Note_off_c, 1, 55, 0
3, 205632, Note_on_c, 1, 61, 73
3, 205632, Note_on_c, 1, 57, 73
3, 205820, Note_off_c, 1, 61, 0
3, 205820, Note_off_c, 1, 57, 0
3, 205824, Note_on_c, 1, 59, 77
3, 205824, Note_on_c, 1, 55, 77
3, 206012, Note_off_c, 1, 59, 0
3, 206012, Note_off_c, 1, 55, 0
3, 206016, Note_on_c, 1, 71, 77
3, 206016, Note_on_c, 1, 62, 77
3, 206108, Note_off_c, 1, 71, 0
3, 206108, Note_off_c, 1, 62, 0
3, 206208, Note_on_c, 1, 71, 82
3, 206208, Note_on_c, 1, 62, 82
3, 206300, Note_off_c, 1, 71, 0
3, 206300, Note_off_c, 1, 62, 0
3, 206400, Note_on_c, 1, 71, 82
3, 206400, Note_on_c, 1, 62, 82
3, 206492, Note_off_c, 1, 71, 0
3, 206492, Note_off_c, 1, 62, 0
3, 206592, Note_on_c, 1, 71, 82
3, 206592, Note_on_c, 1, 62, 82
3, 206684, Note_off_c, 1, 71, 0
3, 206684, Note_off_c, 1, 62, 0
3, 206976, Note_on_c, 1, 71, 82
3, 206976, Note_on_c, 1, 62, 82
3, 207068, Note_off_c, 1, 71, 0
3, 207068, Note_off_c, 1, 62, 0
3, 207360, Note_on_c, 1, 69, 82
3, 207360, Note_on_c, 1, 62, 82
3, 207452, Note_off_c, 1, 69, 0
3, 207452, Note_off_c, 1, 62, 0
3, 207552, Note_on_c, 1, 69, 82
3, 207552, Note_on_c, 1, 62, 82
3, 207644, Note_off_c, 1, 69, 0
3, 207644, Note_off_c, 1, 62, 0
3, 207744, Note_on_c, 1, 69, 82
3, 207744, Note_on_c, 1, 62, 82
3, 207836, Note_off_c, 1, 69, 0
3, 207836, Note_off_c, 1, 62, 0
3, 207936, Note_on_c, 1, 69, 82
3, 207936, Note_on_c, 1, 62, 82
3, 208028, Note_off_c, 1, 69, 0
3, 208028, Note_off_c, 1, 62, 0
3, 208128, Note_on_c, 1, 69, 82
3, 208128, Note_on_c, 1, 62, 82
3, 208220, Note_off_c, 1, 69, 0
3, 208220, Note_off_c, 1, 62, 0
3, 208512, Note_on_c, 1, 69, 82
3, 208512, Note_on_c, 1, 62, 82
3, 208604, Note_off_c, 1, 69, 0
3, 208604, Note_off_c, 1, 62, 0
3, 208896, Note_on_c, 1, 72, 82
3, 208896, Note_on_c, 1, 69, 82
3, 208896, Note_on_c, 1, 66, 82
3, 208988, Note_off_c, 1, 72, 0
3, 208988, Note_off_c, 1, 69, 0
3, 208988, Note_off_c, 1, 66, 0
3, 209088, Note_on_c, 1, 72, 82
3, 209088, Note_on_c, 1, 69, 82
3, 209088, Note_on_c, 1, 66, 82
3, 209180, Note_off_c, 1, 72, 0
3, 209180, Note_off_c, 1, 69, 0
3, 209180, Note_off_c, 1, 66, 0
3, 209280, Note_on_c, 1, 72, 82
3, 209280, Note_on_c, 1, 69, 82
3, 209280, Note_on_c, 1, 66, 82
3, 209372, Note_off_c, 1, 72, 0
3, 209372, Note_off_c, 1, 69, 0
3, 209372, Note_off_c, 1, 66, 0
3, 209472, Note_on_c, 1, 72, 82
3, 209472, Note_on_c, 1, 69, 82
3, 209472, Note_on_c, 1, 66, 82
3, 209564, Note_off_c, 1, 72, 0
3, 209564, Note_off_c, 1, 69, 0
3, 209564, Note_off_c, 1, 66, 0
3, 209664, Note_on_c, 1, 72, 82
3, 209664, Note_on_c, 1, 69, 82
3, 209664, Note_on_c, 1, 66, 82
3, 209756, Note_off_c, 1, 72, 0
3, 209756, Note_off_c, 1, 69, 0
3, 209756, Note_off_c, 1, 66, 0
3, 210048, Note_on_c, 1, 72, 82
3, 210048, Note_on_c, 1, 69, 82
3, 210048, Note_on_c, 1, 66, 82
3, 210140, Note_off_c, 1, 72, 0
3, 210140, Note_off_c, 1, 69, 0
3, 210140, Note_off_c, 1, 66, 0
3, 210432, Note_on_c, 1, 71, 82
3, 210432, Note_on_c, 1, 67, 82
3, 210524, Note_off_c, 1, 71, 0
3, 210524, Note_off_c, 1, 67, 0
3, 210624, Note_on_c, 1, 71, 82
3, 210624, Note_on_c, 1, 62, 82
3, 210716, Note_off_c, 1, 71, 0
3, 210716, Note_off_c, 1, 62, 0
3, 210816, Note_on_c, 1, 71, 82
3, 210816, Note_on_c, 1, 62, 82
3, 210908, Note_off_c, 1, 71, 0
3, 210908, Note_off_c, 1, 62, 0
3, 211008, Note_on_c, 1, 71, 82
3, 211008, Note_on_c, 1, 62, 82
3, 211100, Note_off_c, 1, 71, 0
3, 211100, Note_off_c, 1, 62, 0
3, 211200, Note_on_c, 1, 71, 82
3, 211200, Note_on_c, 1, 62, 82
3, 211292, Note_off_c, 1, 71, 0
3, 211292, Note_off_c, 1, 62, 0
3, 211584, Note_on_c, 1, 71, 82
3, 211584, Note_on_c, 1, 67, 82
3, 211676, Note_off_c, 1, 71, 0
3, 211676, Note_off_c, 1, 67, 0
3, 211968, Note_on_c, 1, 69, 82
3, 211968, Note_on_c, 1, 66, 82
3, 211968, Note_on_c, 1, 62, 82
3, 212060, Note_off_c, 1, 69, 0
3, 212060, Note_off_c, 1, 66, 0
3, 212060, Note_off_c, 1, 62, 0
3, 212160, Note_on_c, 1, 69, 82
3, 212160, Note_on_c, 1, 66, 82
3, 212160, Note_on_c, 1, 62, 82
3, 212252, Note_off_c, 1, 69, 0
3, 212252, Note_off_c, 1, 66, 0
3, 212252, Note_off_c, 1, 62, 0
3, 212352, Note_on_c, 1, 69, 82
3, 212352, Note_on_c, 1, 66, 82
3, 212352, Note_on_c, 1, 62, 82
3, 212444, Note_off_c, 1, 69, 0
3, 212444, Note_off_c, 1, 66, 0
3, 212444, Note_off_c, 1, 62, 0
3, 212544, Note_on_c, 1, 69, 82
3, 212544, Note_on_c, 1, 66, 82
3, 212544, Note_on_c, 1, 62, 82
3, 212636, Note_off_c, 1, 69, 0
3, 212636, Note_off_c, 1, 66, 0
3, 212636, Note_off_c, 1, 62, 0
3, 212736, Note_on_c, 1, 69, 82
3, 212736, Note_on_c, 1, 66, 82
3, 212736, Note_on_c, 1, 62, 82
3, 212828, Note_off_c, 1, 69, 0
3, 212828, Note_off_c, 1, 66, 0
3, 212828, Note_off_c, 1, 62, 0
3, 213120, Note_on_c, 1, 69, 82
3, 213120, Note_on_c, 1, 66, 82
3, 213120, Note_on_c, 1, 62, 82
3, 213212, Note_off_c, 1, 69, 0
3, 213212, Note_off_c, 1, 66, 0
3, 213212, Note_off_c, 1, 62, 0
3, 213504, Note_on_c, 1, 67, 82
3, 213504, Note_on_c, 1, 64, 82
3, 213504, Note_on_c, 1, 59, 82
3, 213596, Note_off_c, 1, 67, 0
3, 213596, Note_off_c, 1, 64, 0
3, 213596, Note_off_c, 1, 59, 0
3, 213696, Note_on_c, 1, 67, 82
3, 213696, Note_on_c, 1, 64, 82
3, 213696, Note_on_c, 1, 59, 82
3, 213788, Note_off_c, 1, 67, 0
3, 213788, Note_off_c, 1, 64, 0
3, 213788, Note_off_c, 1, 59, 0
3, 213888, Note_on_c, 1, 67, 82
3, 213888, Note_on_c, 1, 64, 82
3, 213888, Note_on_c, 1, 59, 82
3, 213980, Note_off_c, 1, 67, 0
3, 213980, Note_off_c, 1, 64, 0
3, 213980, Note_off_c, 1, 59, 0
3, 214080, Note_on_c, 1, 67, 82
3, 214080, Note_on_c, 1, 64, 82
3, 214080, Note_on_c, 1, 59, 82
3, 214172, Note_off_c, 1, 67, 0
3, 214172, Note_off_c, 1, 64, 0
3, 214172, Note_off_c, 1, 59, 0
3, 214272, Note_on_c, 1, 67, 82
3, 214272, Note_on_c, 1, 64, 82
3, 214272, Note_on_c, 1, 59, 82
3, 214364, Note_off_c, 1, 67, 0
3, 214364, Note_off_c, 1, 64, 0
3, 214364, Note_off_c, 1, 59, 0
3, 214656, Note_on_c, 1, 67, 82
3, 214656, Note_on_c, 1, 64, 82
3, 214656, Note_on_c, 1, 59, 82
3, 214748, Note_off_c, 1, 67, 0
3, 214748, Note_off_c, 1, 64, 0
3, 214748, Note_off_c, 1, 59, 0
3, 215040, Note_on_c, 1, 67, 82
3, 215040, Note_on_c, 1, 64, 82
3, 215040, Note_on_c, 1, 61, 82
3, 215132, Note_off_c, 1, 67, 0
3, 215132, Note_off_c, 1, 64, 0
3, 215132, Note_off_c, 1, 61, 0
3, 215232, Note_on_c, 1, 67, 82
3, 215232, Note_on_c, 1, 64, 82
3, 215232, Note_on_c, 1, 61, 82
3, 215324, Note_off_c, 1, 67, 0
3, 215324, Note_off_c, 1, 64, 0
3, 215324, Note_off_c, 1, 61, 0
3, 215424, Note_on_c, 1, 67, 82
3, 215424, Note_on_c, 1, 64, 82
3, 215424, Note_on_c, 1, 61, 82
3, 215516, Note_off_c, 1, 67, 0
3, 215516, Note_off_c, 1, 64, 0
3, 215516, Note_off_c, 1, 61, 0
3, 215616, Note_on_c, 1, 67, 82
3, 215616, Note_on_c, 1, 64, 82
3, 215616, Note_on_c, 1, 61, 82
3, 215708, Note_off_c, 1, 67, 0
3, 215708, Note_off_c, 1, 64, 0
3, 215708, Note_off_c, 1, 61, 0
3, 215808, Note_on_c, 1, 67, 82
3, 215808, Note_on_c, 1, 64, 82
3, 215808, Note_on_c, 1, 61, 82
3, 215900, Note_off_c, 1, 67, 0
3, 215900, Note_off_c, 1, 64, 0
3, 215900, Note_off_c, 1, 61, 0
3, 216192, Note_on_c, 1, 67, 82
3, 216192, Note_on_c, 1, 64, 82
3, 216192, Note_on_c, 1, 61, 82
3, 216284, Note_off_c, 1, 67, 0
3, 216284, Note_off_c, 1, 64, 0
3, 216284, Note_off_c, 1, 61, 0
3, 216576, Note_on_c, 1, 66, 82
3, 216576, Note_on_c, 1, 62, 82
3, 216668, Note_off_c, 1, 66, 0
3, 216668, Note_off_c, 1, 62, 0
3, 216768, Note_on_c, 1, 66, 82
3, 216768, Note_on_c, 1, 57, 82
3, 216860, Note_off_c, 1, 66, 0
3, 216860, Note_off_c, 1, 57, 0
3, 216960, Note_on_c, 1, 66, 82
3, 216960, Note_on_c, 1, 57, 82
3, 217052, Note_off_c, 1, 66, 0
3, 217052, Note_off_c, 1, 57, 0
3, 217152, Note_on_c, 1, 57, 82
3, 217152, Note_on_c, 1, 66, 82
3, 217244, Note_off_c, 1, 57, 0
3, 217244, Note_off_c, 1, 66, 0
3, 217344, Note_on_c, 1, 66, 82
3, 217344, Note_on_c, 1, 57, 82
3, 217436, Note_off_c, 1, 66, 0
3, 217436, Note_off_c, 1, 57, 0
3, 217728, Note_on_c, 1, 66, 82
3, 217728, Note_on_c, 1, 57, 82
3, 217820, Note_off_c, 1, 66, 0
3, 217820, Note_off_c, 1, 57, 0
3, 218112, Note_on_c, 1, 74, 82
3, 218112, Note_on_c, 1, 67, 82
3, 218112, Note_on_c, 1, 62, 82
3, 218204, Note_off_c, 1, 74, 0
3, 218204, Note_off_c, 1, 67, 0
3, 218204, Note_off_c, 1, 62, 0
3, 218496, Note_on_c, 1, 71, 82
3, 218496, Note_on_c, 1, 67, 82
3, 218496, Note_on_c, 1, 62, 82
3, 218588, Note_off_c, 1, 71, 0
3, 218588, Note_off_c, 1, 67, 0
3, 218588, Note_off_c, 1, 62, 0
3, 218880, Note_on_c, 1, 71, 82
3, 218880, Note_on_c, 1, 64, 82
3, 218880, Note_on_c, 1, 59, 82
3, 218972, Note_off_c, 1, 71, 0
3, 218972, Note_off_c, 1, 64, 0
3, 218972, Note_off_c, 1, 59, 0
3, 219264, Note_on_c, 1, 71, 82
3, 219264, Note_on_c, 1, 64, 82
3, 219264, Note_on_c, 1, 62, 82
3, 219356, Note_off_c, 1, 71, 0
3, 219356, Note_off_c, 1, 64, 0
3, 219356, Note_off_c, 1, 62, 0
3, 219648, Note_on_c, 1, 69, 82
3, 219648, Note_on_c, 1, 64, 82
3, 219648, Note_on_c, 1, 61, 82
3, 219836, Note_off_c, 1, 69, 0
3, 219836, Note_off_c, 1, 64, 0
3, 219836, Note_off_c, 1, 61, 0
3, 220032, Note_on_c, 1, 78, 82
3, 220032, Note_on_c, 1, 81, 82
3, 220124, Note_off_c, 1, 78, 0
3, 220124, Note_off_c, 1, 81, 0
3, 220128, Note_on_c, 1, 79, 82
3, 220128, Note_on_c, 1, 83, 82
3, 220220, Note_off_c, 1, 79, 0
3, 220220, Note_off_c, 1, 83, 0
3, 220224, Note_on_c, 1, 81, 82
3, 220224, Note_on_c, 1, 78, 82
3, 220316, Note_off_c, 1, 81, 0
3, 220316, Note_off_c, 1, 78, 0
3, 220320, Note_on_c, 1, 79, 82
3, 220320, Note_on_c, 1, 83, 82
3, 220412, Note_off_c, 1, 79, 0
3, 220412, Note_off_c, 1, 83, 0
3, 220416, Note_on_c, 1, 79, 82
3, 220416, Note_on_c, 1, 76, 82
3, 220508, Note_off_c, 1, 79, 0
3, 220508, Note_off_c, 1, 76, 0
3, 220800, Note_on_c, 1, 78, 82
3, 220800, Note_on_c, 1, 74, 82
3, 220892, Note_off_c, 1, 78, 0
3, 220892, Note_off_c, 1, 74, 0
3, 220896, Note_on_c, 1, 79, 82
3, 220896, Note_on_c, 1, 76, 82
3, 220988, Note_off_c, 1, 79, 0
3, 220988, Note_off_c, 1, 76, 0
3, 220992, Note_on_c, 1, 78, 82
3, 220992, Note_on_c, 1, 74, 82
3, 221084, Note_off_c, 1, 78, 0
3, 221084, Note_off_c, 1, 74, 0
3, 221088, Note_on_c, 1, 79, 82
3, 221088, Note_on_c, 1, 76, 82
3, 221180, Note_off_c, 1, 79, 0
3, 221180, Note_off_c, 1, 76, 0
3, 221184, Note_on_c, 1, 76, 81
3, 221184, Note_on_c, 1, 73, 81
3, 221276, Note_off_c, 1, 76, 0
3, 221276, Note_off_c, 1, 73, 0
3, 221568, Note_on_c, 1, 66, 80
3, 221568, Note_on_c, 1, 69, 80
3, 221660, Note_off_c, 1, 66, 0
3, 221660, Note_off_c, 1, 69, 0
3, 221664, Note_on_c, 1, 67, 80
3, 221664, Note_on_c, 1, 71, 80
3, 221756, Note_off_c, 1, 67, 0
3, 221756, Note_off_c, 1, 71, 0
3, 221760, Note_on_c, 1, 69, 79
3, 221760, Note_on_c, 1, 66, 79
3, 221852, Note_off_c, 1, 69, 0
3, 221852, Note_off_c, 1, 66, 0
3, 221856, Note_on_c, 1, 67, 79
3, 221856, Note_on_c, 1, 71, 79
3, 221948, Note_off_c, 1, 67, 0
3, 221948, Note_off_c, 1, 71, 0
3, 221952, Note_on_c, 1, 67, 79
3, 221952, Note_on_c, 1, 64, 79
3, 222044, Note_off_c, 1, 67, 0
3, 222044, Note_off_c, 1, 64, 0
3, 222144, Note_on_c, 1, 67, 78
3, 222144, Note_on_c, 1, 64, 78
3, 222236, Note_off_c, 1, 67, 0
3, 222236, Note_off_c, 1, 64, 0
3, 222336, Note_on_c, 1, 66, 77
3, 222336, Note_on_c, 1, 62, 77
3, 222428, Note_off_c, 1, 66, 0
3, 222428, Note_off_c, 1, 62, 0
3, 222432, Note_on_c, 1, 67, 77
3, 222432, Note_on_c, 1, 64, 77
3, 222524, Note_off_c, 1, 67, 0
3, 222524, Note_off_c, 1, 64, 0
3, 222528, Note_on_c, 1, 66, 77
3, 222528, Note_on_c, 1, 62, 77
3, 222620, Note_off_c, 1, 66, 0
3, 222620, Note_off_c, 1, 62, 0
3, 222624, Note_on_c, 1, 67, 75
3, 222624, Note_on_c, 1, 64, 75
3, 222716, Note_off_c, 1, 67, 0
3, 222716, Note_off_c, 1, 64, 0
3, 222720, Note_on_c, 1, 64, 75
3, 222720, Note_on_c, 1, 61, 75
3, 223100, Note_off_c, 1, 64, 0
3, 223100, Note_off_c, 1, 61, 0
3, 223104, Note_on_c, 1, 66, 74
3, 223104, Note_on_c, 1, 62, 74
3, 223484, Note_off_c, 1, 66, 0
3, 223484, Note_off_c, 1, 62, 0
3, 223488, Note_on_c, 1, 67, 72
3, 223488, Note_on_c, 1, 64, 72
3, 223868, Note_off_c, 1, 67, 0
3, 223868, Note_off_c, 1, 64, 0
3, 224256, Note_on_c, 1, 69, 69
3, 224636, Note_off_c, 1, 69, 0
3, 225024, Note_on_c, 1, 69, 69
3, 225404, Note_off_c, 1, 69, 0
3, 225600, Note_on_c, 1, 74, 69
3, 225788, Note_off_c, 1, 74, 0
3, 225792, Note_on_c, 1, 75, 69
3, 225980, Note_off_c, 1, 75, 0
3, 225984, Note_on_c, 1, 76, 69
3, 225984, Note_on_c, 1, 73, 69
3, 225984, Note_on_c, 1, 69, 69
3, 226076, Note_off_c, 1, 76, 0
3, 226076, Note_off_c, 1, 73, 0
3, 226076, Note_off_c, 1, 69, 0
3, 226176, Note_on_c, 1, 76, 69
3, 226176, Note_on_c, 1, 73, 69
3, 226176, Note_on_c, 1, 69, 69
3, 226268, Note_off_c, 1, 73, 0
3, 226268, Note_off_c, 1, 69, 0
3, 226368, Note_on_c, 1, 73, 69
3, 226368, Note_on_c, 1, 69, 69
3, 226460, Note_off_c, 1, 73, 0
3, 226460, Note_off_c, 1, 69, 0
3, 226560, Note_on_c, 1, 73, 69
3, 226560, Note_on_c, 1, 69, 69
3, 226748, Note_off_c, 1, 73, 0
3, 226748, Note_off_c, 1, 69, 0
3, 226940, Note_off_c, 1, 76, 0
3, 227328, Note_on_c, 1, 67, 69
3, 227328, Note_on_c, 1, 64, 69
3, 227328, Note_on_c, 1, 57, 69
3, 227708, Note_off_c, 1, 67, 0
3, 227708, Note_off_c, 1, 64, 0
3, 227708, Note_off_c, 1, 57, 0
3, 228096, Note_on_c, 1, 64, 69
3, 228096, Note_on_c, 1, 61, 69
3, 228096, Note_on_c, 1, 57, 69
3, 228476, Note_off_c, 1, 64, 0
3, 228476, Note_off_c, 1, 61, 0
3, 228476, Note_off_c, 1, 57, 0
3, 229248, Note_on_c, 1, 64, 82
3, 229248, Note_on_c, 1, 61, 82
3, 229628, Note_off_c, 1, 64, 0
3, 229628, Note_off_c, 1, 61, 0
3, 229632, Note_on_c, 1, 62, 77
3, 229632, Note_on_c, 1, 59, 77
3, 230012, Note_off_c, 1, 62, 0
3, 230012, Note_off_c, 1, 59, 0
3, 230016, Note_on_c, 1, 63, 70
3, 230016, Note_on_c, 1, 60, 70
3, 230396, Note_off_c, 1, 63, 0
3, 230396, Note_off_c, 1, 60, 0
3, 230400, Note_on_c, 1, 64, 69
3, 230400, Note_on_c, 1, 59, 69
3, 230780, Note_off_c, 1, 64, 0
3, 230780, Note_off_c, 1, 59, 0
3, 231168, Note_on_c, 1, 71, 69
3, 231168, Note_on_c, 1, 64, 69
3, 231548, Note_off_c, 1, 71, 0
3, 231548, Note_off_c, 1, 64, 0
3, 231936, Note_on_c, 1, 76, 69
3, 231936, Note_on_c, 1, 67, 69
3, 232316, Note_off_c, 1, 67, 0
3, 232320, Note_on_c, 1, 67, 70
3, 232412, Note_off_c, 1, 76, 0
3, 232412, Note_off_c, 1, 67, 0
3, 232416, Note_on_c, 1, 75, 70
3, 232416, Note_on_c, 1, 66, 70
3, 232508, Note_off_c, 1, 75, 0
3, 232508, Note_off_c, 1, 66, 0
3, 232512, Note_on_c, 1, 76, 72
3, 232512, Note_on_c, 1, 67, 72
3, 232604, Note_off_c, 1, 76, 0
3, 232604, Note_off_c, 1, 67, 0
3, 232608, Note_on_c, 1, 75, 73
3, 232608, Note_on_c, 1, 66, 73
3, 232700, Note_off_c, 1, 75, 0
3, 232700, Note_off_c, 1, 66, 0
3, 232704, Note_on_c, 1, 76, 74
3, 232704, Note_on_c, 1, 67, 74
3, 233084, Note_off_c, 1, 67, 0
3, 233088, Note_on_c, 1, 67, 78
3, 233180, Note_off_c, 1, 76, 0
3, 233180, Note_off_c, 1, 67, 0
3, 233184, Note_on_c, 1, 75, 79
3, 233184, Note_on_c, 1, 66, 79
3, 233276, Note_off_c, 1, 75, 0
3, 233276, Note_off_c, 1, 66, 0
3, 233280, Note_on_c, 1, 76, 80
3, 233280, Note_on_c, 1, 67, 80
3, 233372, Note_off_c, 1, 76, 0
3, 233372, Note_off_c, 1, 67, 0
3, 233376, Note_on_c, 1, 75, 81
3, 233376, Note_on_c, 1, 66, 81
3, 233468, Note_off_c, 1, 75, 0
3, 233468, Note_off_c, 1, 66, 0
3, 233472, Note_on_c, 1, 76, 82
3, 233472, Note_on_c, 1, 67, 82
3, 233660, Note_off_c, 1, 76, 0
3, 233660, Note_off_c, 1, 67, 0
3, 233664, Note_on_c, 1, 76, 82
3, 233664, Note_on_c, 1, 64, 82
3, 233852, Note_off_c, 1, 76, 0
3, 233852, Note_off_c, 1, 64, 0
3, 233856, Note_on_c, 1, 71, 82
3, 233856, Note_on_c, 1, 64, 82
3, 234044, Note_off_c, 1, 71, 0
3, 234044, Note_off_c, 1, 64, 0
3, 234048, Note_on_c, 1, 71, 82
3, 234048, Note_on_c, 1, 64, 82
3, 234236, Note_off_c, 1, 71, 0
3, 234236, Note_off_c, 1, 64, 0
3, 234240, Note_on_c, 1, 74, 82
3, 234240, Note_on_c, 1, 66, 82
3, 234428, Note_off_c, 1, 74, 0
3, 234428, Note_off_c, 1, 66, 0
3, 234432, Note_on_c, 1, 74, 82
3, 234432, Note_on_c, 1, 66, 82
3, 234620, Note_off_c, 1, 74, 0
3, 234620, Note_off_c, 1, 66, 0
3, 234624, Note_on_c, 1, 73, 82
3, 234624, Note_on_c, 1, 67, 82
3, 234812, Note_off_c, 1, 73, 0
3, 234812, Note_off_c, 1, 67, 0
3, 234816, Note_on_c, 1, 67, 82
3, 234816, Note_on_c, 1, 64, 82
3, 235004, Note_off_c, 1, 67, 0
3, 235004, Note_off_c, 1, 64, 0
3, 235008, Note_on_c, 1, 66, 96
3, 235008, Note_on_c, 1, 62, 96
3, 235100, Note_off_c, 1, 66, 0
3, 235100, Note_off_c, 1, 62, 0
3, 235104, Note_on_c, 1, 74, 96
3, 235196, Note_off_c, 1, 74, 0
3, 235200, Note_on_c, 1, 76, 96
3, 235292, Note_off_c, 1, 76, 0
3, 235296, Note_on_c, 1, 78, 96
3, 235388, Note_off_c, 1, 78, 0
3, 235392, Note_on_c, 1, 79, 96
3, 235484, Note_off_c, 1, 79, 0
3, 235488, Note_on_c, 1, 81, 96
3, 235580, Note_off_c, 1, 81, 0
3, 235584, Note_on_c, 1, 83, 96
3, 235676, Note_off_c, 1, 83, 0
3, 235680, Note_on_c, 1, 85, 96
3, 235772, Note_off_c, 1, 85, 0
3, 235776, Note_on_c, 1, 86, 96
3, 235872, Note_off_c, 1, 86, 0
3, 235872, Note_on_c, 1, 74, 96
3, 235952, Note_off_c, 1, 74, 0
3, 235968, Note_on_c, 1, 73, 96
3, 236024, Note_off_c, 1, 73, 0
3, 236064, Note_on_c, 1, 74, 96
3, 236120, Note_off_c, 1, 74, 0
3, 236160, Note_on_c, 1, 88, 96
3, 236256, Note_off_c, 1, 88, 0
3, 236256, Note_on_c, 1, 86, 96
3, 236336, Note_off_c, 1, 86, 0
3, 236352, Note_on_c, 1, 85, 96
3, 236408, Note_off_c, 1, 85, 0
3, 236448, Note_on_c, 1, 86, 96
3, 236504, Note_off_c, 1, 86, 0
3, 236544, Note_on_c, 1, 81, 96
3, 236544, Note_on_c, 1, 81, 96
3, 236640, Note_off_c, 1, 81, 0
3, 236640, Note_on_c, 1, 74, 96
3, 236720, Note_off_c, 1, 74, 0
3, 236736, Note_on_c, 1, 73, 96
3, 236792, Note_off_c, 1, 73, 0
3, 236832, Note_on_c, 1, 74, 96
3, 236888, Note_off_c, 1, 74, 0
3, 236928, Note_on_c, 1, 76, 96
3, 237024, Note_off_c, 1, 76, 0
3, 237024, Note_on_c, 1, 74, 96
3, 237104, Note_off_c, 1, 74, 0
3, 237120, Note_off_c, 1, 81, 0
3, 237120, Note_on_c, 1, 82, 96
3, 237120, Note_on_c, 1, 73, 96
3, 237176, Note_off_c, 1, 73, 0
3, 237216, Note_on_c, 1, 74, 96
3, 237272, Note_off_c, 1, 74, 0
3, 237300, Note_off_c, 1, 82, 0
3, 237312, Note_on_c, 1, 83, 96
3, 237312, Note_on_c, 1, 74, 96
3, 237368, Note_off_c, 1, 83, 0
3, 237368, Note_off_c, 1, 74, 0
3, 237408, Note_on_c, 1, 74, 96
3, 237464, Note_off_c, 1, 74, 0
3, 237504, Note_on_c, 1, 73, 96
3, 237560, Note_off_c, 1, 73, 0
3, 237600, Note_on_c, 1, 74, 96
3, 237656, Note_off_c, 1, 74, 0
3, 237696, Note_on_c, 1, 85, 96
3, 237792, Note_off_c, 1, 85, 0
3, 237792, Note_on_c, 1, 83, 96
3, 237872, Note_off_c, 1, 83, 0
3, 237888, Note_on_c, 1, 82, 96
3, 237944, Note_off_c, 1, 82, 0
3, 237984, Note_on_c, 1, 83, 96
3, 238040, Note_off_c, 1, 83, 0
3, 238080, Note_on_c, 1, 76, 96
3, 238176, Note_off_c, 1, 76, 0
3, 238176, Note_on_c, 1, 74, 96
3, 238256, Note_off_c, 1, 74, 0
3, 238272, Note_on_c, 1, 73, 96
3, 238328, Note_off_c, 1, 73, 0
3, 238368, Note_on_c, 1, 74, 96
3, 238424, Note_off_c, 1, 74, 0
3, 238464, Note_on_c, 1, 76, 96
3, 238560, Note_off_c, 1, 76, 0
3, 238560, Note_on_c, 1, 74, 96
3, 238640, Note_off_c, 1, 74, 0
3, 238656, Note_on_c, 1, 78, 96
3, 238656, Note_on_c, 1, 73, 96
3, 238712, Note_off_c, 1, 78, 0
3, 238712, Note_off_c, 1, 73, 0
3, 238752, Note_on_c, 1, 74, 96
3, 238808, Note_off_c, 1, 74, 0
3, 238848, Note_on_c, 1, 76, 69
3, 238848, Note_on_c, 1, 71, 69
3, 238944, Note_off_c, 1, 76, 0
3, 238944, Note_off_c, 1, 71, 0
3, 238944, Note_on_c, 1, 74, 69
3, 239024, Note_off_c, 1, 74, 0
3, 239040, Note_on_c, 1, 73, 69
3, 239096, Note_off_c, 1, 73, 0
3, 239136, Note_on_c, 1, 74, 69
3, 239192, Note_off_c, 1, 74, 0
3, 239232, Note_on_c, 1, 74, 69
3, 239232, Note_on_c, 1, 69, 69
3, 239328, Note_off_c, 1, 74, 0
3, 239328, Note_off_c, 1, 69, 0
3, 239328, Note_on_c, 1, 73, 69
3, 239408, Note_off_c, 1, 73, 0
3, 239424, Note_on_c, 1, 71, 69
3, 239480, Note_off_c, 1, 71, 0
3, 239520, Note_on_c, 1, 73, 69
3, 239576, Note_off_c, 1, 73, 0
3, 239616, Note_on_c, 1, 73, 69
3, 239616, Note_on_c, 1, 67, 69
3, 239712, Note_off_c, 1, 73, 0
3, 239712, Note_off_c, 1, 67, 0
3, 239712, Note_on_c, 1, 71, 69
3, 239792, Note_off_c, 1, 71, 0
3, 239808, Note_on_c, 1, 70, 69
3, 239864, Note_off_c, 1, 70, 0
3, 239904, Note_on_c, 1, 71, 69
3, 239960, Note_off_c, 1, 71, 0
3, 240000, Note_on_c, 1, 71, 69
3, 240000, Note_on_c, 1, 66, 69
3, 240096, Note_off_c, 1, 71, 0
3, 240096, Note_off_c, 1, 66, 0
3, 240096, Note_on_c, 1, 69, 69
3, 240176, Note_off_c, 1, 69, 0
3, 240192, Note_on_c, 1, 68, 69
3, 240248, Note_off_c, 1, 68, 0
3, 240288, Note_on_c, 1, 69, 69
3, 240344, Note_off_c, 1, 69, 0
3, 240384, Note_on_c, 1, 67, 69
3, 240384, Note_on_c, 1, 64, 69
3, 240476, Note_off_c, 1, 67, 0
3, 240476, Note_off_c, 1, 64, 0
3, 240576, Note_on_c, 1, 66, 69
3, 240576, Note_on_c, 1, 62, 69
3, 240668, Note_off_c, 1, 66, 0
3, 240668, Note_off_c, 1, 62, 0
3, 240768, Note_on_c, 1, 69, 69
3, 240864, Note_off_c, 1, 69, 0
3, 240864, Note_on_c, 1, 67, 69
3, 240956, Note_off_c, 1, 67, 0
3, 240960, Note_on_c, 1, 66, 69
3, 241052, Note_off_c, 1, 66, 0
3, 241056, Note_on_c, 1, 64, 69
3, 241136, Note_off_c, 1, 64, 0
3, 241152, Note_on_c, 1, 66, 96
3, 241340, Note_off_c, 1, 66, 0
3, 241344, Note_on_c, 1, 69, 69
3, 241344, Note_on_c, 1, 66, 69
3, 241344, Note_on_c, 1, 62, 69
3, 241436, Note_off_c, 1, 69, 0
3, 241436, Note_off_c, 1, 66, 0
3, 241436, Note_off_c, 1, 62, 0
3, 241536, Note_on_c, 1, 69, 69
3, 241536, Note_on_c, 1, 66, 69
3, 241536, Note_on_c, 1, 62, 69
3, 241628, Note_off_c, 1, 69, 0
3, 241628, Note_off_c, 1, 66, 0
3, 241628, Note_off_c, 1, 62, 0
3, 241728, Note_on_c, 1, 69, 69
3, 241728, Note_on_c, 1, 66, 69
3, 241728, Note_on_c, 1, 62, 69
3, 241820, Note_off_c, 1, 69, 0
3, 241820, Note_off_c, 1, 66, 0
3, 241820, Note_off_c, 1, 62, 0
3, 241920, Note_on_c, 1, 69, 69
3, 241920, Note_on_c, 1, 66, 69
3, 241920, Note_on_c, 1, 62, 69
3, 242012, Note_off_c, 1, 69, 0
3, 242012, Note_off_c, 1, 66, 0
3, 242012, Note_off_c, 1, 62, 0
3, 242304, Note_on_c, 1, 69, 69
3, 242304, Note_on_c, 1, 66, 69
3, 242304, Note_on_c, 1, 62, 69
3, 242396, Note_off_c, 1, 69, 0
3, 242396, Note_off_c, 1, 66, 0
3, 242396, Note_off_c, 1, 62, 0
3, 242688, Note_on_c, 1, 66, 96
3, 242688, Note_on_c, 1, 62, 69
3, 242688, Note_on_c, 1, 57, 69
3, 242780, Note_off_c, 1, 66, 0
3, 242780, Note_off_c, 1, 62, 0
3, 242780, Note_off_c, 1, 57, 0
3, 242880, Note_on_c, 1, 69, 69
3, 242880, Note_on_c, 1, 66, 69
3, 242880, Note_on_c, 1, 62, 69
3, 242972, Note_off_c, 1, 69, 0
3, 242972, Note_off_c, 1, 66, 0
3, 242972, Note_off_c, 1, 62, 0
3, 243072, Note_on_c, 1, 69, 69
3, 243072, Note_on_c, 1, 66, 69
3, 243072, Note_on_c, 1, 62, 69
3, 243164, Note_off_c, 1, 69, 0
3, 243164, Note_off_c, 1, 66, 0
3, 243164, Note_off_c, 1, 62, 0
3, 243264, Note_on_c, 1, 69, 69
3, 243264, Note_on_c, 1, 66, 69
3, 243264, Note_on_c, 1, 62, 69
3, 243356, Note_off_c, 1, 69, 0
3, 243356, Note_off_c, 1, 66, 0
3, 243356, Note_off_c, 1, 62, 0
3, 243456, Note_on_c, 1, 69, 69
3, 243456, Note_on_c, 1, 66, 69
3, 243456, Note_on_c, 1, 62, 69
3, 243548, Note_off_c, 1, 69, 0
3, 243548, Note_off_c, 1, 66, 0
3, 243548, Note_off_c, 1, 62, 0
3, 243840, Note_on_c, 1, 69, 69
3, 243840, Note_on_c, 1, 66, 69
3, 243840, Note_on_c, 1, 62, 69
3, 243932, Note_off_c, 1, 69, 0
3, 243932, Note_off_c, 1, 66, 0
3, 243932, Note_off_c, 1, 62, 0
3, 244224, Note_on_c, 1, 69, 69
3, 244224, Note_on_c, 1, 66, 69
3, 244224, Note_on_c, 1, 62, 69
3, 244608, Note_off_c, 1, 69, 0
3, 244608, Note_off_c, 1, 66, 0
3, 244608, Note_off_c, 1, 62, 0
3, 245952, Note_on_c, 1, 66, 94
3, 245952, Note_on_c, 1, 62, 94
3, 246140, Note_off_c, 1, 66, 0
3, 246140, Note_off_c, 1, 62, 0
3, 246144, Note_on_c, 1, 67, 94
3, 246144, Note_on_c, 1, 64, 94
3, 246332, Note_off_c, 1, 67, 0
3, 246332, Note_off_c, 1, 64, 0
3, 246336, Note_on_c, 1, 69, 94
3, 246336, Note_on_c, 1, 66, 94
3, 246524, Note_off_c, 1, 69, 0
3, 246524, Note_off_c, 1, 66, 0
3, 246528, Note_on_c, 1, 71, 94
3, 246528, Note_on_c, 1, 67, 94
3, 246620, Note_off_c, 1, 71, 0
3, 246620, Note_off_c, 1, 67, 0
3, 246720, Note_on_c, 1, 67, 94
3, 246720, Note_on_c, 1, 62, 94
3, 246812, Note_off_c, 1, 67, 0
3, 246812, Note_off_c, 1, 62, 0
3, 246912, Note_on_c, 1, 62, 94
3, 246912, Note_on_c, 1, 59, 94
3, 247004, Note_off_c, 1, 62, 0
3, 247004, Note_off_c, 1, 59, 0
3, 247104, Note_on_c, 1, 59, 94
3, 247104, Note_on_c, 1, 55, 94
3, 247196, Note_off_c, 1, 59, 0
3, 247196, Note_off_c, 1, 55, 0
3, 247296, Note_on_c, 1, 74, 69
3, 247296, Note_on_c, 1, 67, 69
3, 248060, Note_off_c, 1, 74, 0
3, 248060, Note_off_c, 1, 67, 0
3, 248064, Note_on_c, 1, 73, 69
3, 248064, Note_on_c, 1, 69, 69
3, 248828, Note_off_c, 1, 73, 0
3, 248828, Note_off_c, 1, 69, 0
3, 248832, Note_on_c, 1, 74, 69
3, 248832, Note_on_c, 1, 71, 69
3, 249596, Note_off_c, 1, 74, 0
3, 249596, Note_off_c, 1, 71, 0
3, 249600, Note_on_c, 1, 76, 69
3, 249600, Note_on_c, 1, 61, 69
3, 250364, Note_off_c, 1, 76, 0
3, 250364, Note_off_c, 1, 61, 0
3, 250368, Note_on_c, 1, 69, 70
3, 250368, Note_on_c, 1, 62, 70
3, 250556, Note_off_c, 1, 69, 0
3, 250556, Note_off_c, 1, 62, 0
3, 250560, Note_on_c, 1, 69, 72
3, 250560, Note_on_c, 1, 62, 72
3, 250748, Note_off_c, 1, 69, 0
3, 250748, Note_off_c, 1, 62, 0
3, 250752, Note_on_c, 1, 69, 73
3, 250752, Note_on_c, 1, 62, 73
3, 250940, Note_off_c, 1, 69, 0
3, 250940, Note_off_c, 1, 62, 0
3, 250944, Note_on_c, 1, 69, 74
3, 250944, Note_on_c, 1, 62, 74
3, 251132, Note_off_c, 1, 69, 0
3, 251132, Note_off_c, 1, 62, 0
3, 251136, Note_on_c, 1, 71, 77
3, 251136, Note_on_c, 1, 56, 77
3, 251324, Note_off_c, 1, 71, 0
3, 251324, Note_off_c, 1, 56, 0
3, 251328, Note_on_c, 1, 71, 78
3, 251328, Note_on_c, 1, 56, 78
3, 251516, Note_off_c, 1, 71, 0
3, 251516, Note_off_c, 1, 56, 0
3, 251520, Note_on_c, 1, 71, 79
3, 251520, Note_on_c, 1, 56, 79
3, 251708, Note_off_c, 1, 71, 0
3, 251708, Note_off_c, 1, 56, 0
3, 251712, Note_on_c, 1, 71, 80
3, 251712, Note_on_c, 1, 56, 80
3, 251900, Note_off_c, 1, 71, 0
3, 251900, Note_off_c, 1, 56, 0
3, 251904, Note_on_c, 1, 64, 82
3, 251904, Note_on_c, 1, 57, 82
3, 252092, Note_off_c, 1, 64, 0
3, 252096, Note_on_c, 1, 69, 82
3, 252284, Note_off_c, 1, 57, 0
3, 252284, Note_off_c, 1, 69, 0
3, 252480, Note_on_c, 1, 74, 82
3, 252480, Note_on_c, 1, 64, 82
3, 252480, Note_on_c, 1, 59, 82
3, 252668, Note_off_c, 1, 74, 0
3, 252668, Note_off_c, 1, 64, 0
3, 252668, Note_off_c, 1, 59, 0
3, 252672, Note_on_c, 1, 76, 82
3, 252672, Note_on_c, 1, 64, 82
3, 252672, Note_on_c, 1, 61, 82
3, 252860, Note_off_c, 1, 76, 0
3, 252860, Note_off_c, 1, 64, 0
3, 252864, Note_on_c, 1, 73, 82
3, 252864, Note_on_c, 1, 69, 82
3, 253052, Note_off_c, 1, 61, 0
3, 253052, Note_off_c, 1, 73, 0
3, 253052, Note_off_c, 1, 69, 0
3, 253248, Note_on_c, 1, 69, 82
3, 253248, Note_on_c, 1, 67, 82
3, 253436, Note_off_c, 1, 69, 0
3, 253436, Note_off_c, 1, 67, 0
3, 253440, Note_on_c, 1, 69, 82
3, 253440, Note_on_c, 1, 66, 82
3, 253628, Note_off_c, 1, 69, 0
3, 253628, Note_off_c, 1, 66, 0
3, 253824, Note_on_c, 1, 81, 82
3, 253824, Note_on_c, 1, 78, 82
3, 253824, Note_on_c, 1, 69, 82
3, 254012, Note_off_c, 1, 81, 0
3, 254012, Note_off_c, 1, 78, 0
3, 254012, Note_off_c, 1, 69, 0
3, 254208, Note_on_c, 1, 81, 82
3, 254208, Note_on_c, 1, 76, 82
3, 254208, Note_on_c, 1, 69, 82
3, 254396, Note_off_c, 1, 81, 0
3, 254396, Note_off_c, 1, 76, 0
3, 254396, Note_off_c, 1, 69, 0
3, 254592, Note_on_c, 1, 81, 82
3, 254592, Note_on_c, 1, 79, 82
3, 254592, Note_on_c, 1, 69, 82
3, 254780, Note_off_c, 1, 81, 0
3, 254780, Note_off_c, 1, 79, 0
3, 254780, Note_off_c, 1, 69, 0
3, 254976, Note_on_c, 1, 81, 82
3, 254976, Note_on_c, 1, 78, 82
3, 254976, Note_on_c, 1, 69, 82
3, 255548, Note_off_c, 1, 81, 0
3, 255548, Note_off_c, 1, 78, 0
3, 255548, Note_off_c, 1, 69, 0
3, 256512, Note_on_c, 1, 69, 69
3, 256512, Note_on_c, 1, 66, 69
3, 256512, Note_on_c, 1, 62, 69
3, 256700, Note_off_c, 1, 69, 0
3, 256700, Note_off_c, 1, 66, 0
3, 256700, Note_off_c, 1, 62, 0
3, 256896, Note_on_c, 1, 81, 69
3, 256896, Note_on_c, 1, 78, 69
3, 256896, Note_on_c, 1, 69, 69
3, 257084, Note_off_c, 1, 81, 0
3, 257084, Note_off_c, 1, 78, 0
3, 257084, Note_off_c, 1, 69, 0
3, 257280, Note_on_c, 1, 81, 69
3, 257280, Note_on_c, 1, 76, 69
3, 257280, Note_on_c, 1, 69, 69
3, 257468, Note_off_c, 1, 81, 0
3, 257468, Note_off_c, 1, 76, 0
3, 257468, Note_off_c, 1, 69, 0
3, 257664, Note_on_c, 1, 81, 69
3, 257664, Note_on_c, 1, 79, 69
3, 257664, Note_on_c, 1, 69, 69
3, 257852, Note_off_c, 1, 81, 0
3, 257852, Note_off_c, 1, 79, 0
3, 257852, Note_off_c, 1, 69, 0
3, 258048, Note_on_c, 1, 81, 69
3, 258048, Note_on_c, 1, 78, 69
3, 258048, Note_on_c, 1, 69, 69
3, 258620, Note_off_c, 1, 81, 0
3, 258620, Note_off_c, 1, 78, 0
3, 258620, Note_off_c, 1, 69, 0
3, 259584, Note_on_c, 1, 62, 69
3, 259584, Note_on_c, 1, 57, 69
3, 259584, Note_on_c, 1, 54, 69
3, 260156, Note_off_c, 1, 62, 0
3, 260156, Note_off_c, 1, 57, 0
3, 260156, Note_off_c, 1, 54, 0
3, 261312, Note_on_c, 1, 62, 82
3, 261312, Note_on_c, 1, 57, 82
3, 261500, Note_off_c, 1, 62, 0
3, 261500, Note_off_c, 1, 57, 0
3, 261504, Note_on_c, 1, 62, 82
3, 261504, Note_on_c, 1, 57, 82
3, 261692, Note_off_c, 1, 62, 0
3, 261692, Note_off_c, 1, 57, 0
3, 261696, Note_on_c, 1, 62, 82
3, 261696, Note_on_c, 1, 57, 82
3, 261884, Note_off_c, 1, 62, 0
3, 261884, Note_off_c, 1, 57, 0
3, 261888, Note_on_c, 1, 62, 82
3, 261888, Note_on_c, 1, 57, 82
3, 262076, Note_off_c, 1, 62, 0
3, 262076, Note_off_c, 1, 57, 0
3, 262080, Note_on_c, 1, 62, 82
3, 262080, Note_on_c, 1, 57, 82
3, 262268, Note_off_c, 1, 62, 0
3, 262268, Note_off_c, 1, 57, 0
3, 262272, Note_on_c, 1, 62, 82
3, 262272, Note_on_c, 1, 57, 82
3, 262460, Note_off_c, 1, 62, 0
3, 262460, Note_off_c, 1, 57, 0
3, 262464, Note_on_c, 1, 62, 82
3, 262464, Note_on_c, 1, 57, 82
3, 262652, Note_off_c, 1, 62, 0
3, 262652, Note_off_c, 1, 57, 0
3, 262656, Note_on_c, 1, 62, 82
3, 262656, Note_on_c, 1, 55, 82
3, 262844, Note_off_c, 1, 62, 0
3, 262848, Note_on_c, 1, 62, 69
3, 262944, Note_off_c, 1, 62, 0
3, 262944, Note_on_c, 1, 61, 69
3, 263024, Note_off_c, 1, 61, 0
3, 263036, Note_off_c, 1, 55, 0
3, 263040, Note_on_c, 1, 62, 69
3, 263420, Note_off_c, 1, 62, 0
3, 263616, Note_on_c, 1, 62, 69
3, 263712, Note_off_c, 1, 62, 0
3, 263712, Note_on_c, 1, 61, 69
3, 263792, Note_off_c, 1, 61, 0
3, 263808, Note_on_c, 1, 62, 69
3, 264188, Note_off_c, 1, 62, 0
3, 264384, Note_on_c, 1, 74, 69
3, 264480, Note_off_c, 1, 74, 0
3, 264480, Note_on_c, 1, 73, 69
3, 264560, Note_off_c, 1, 73, 0
3, 264576, Note_on_c, 1, 74, 69
3, 264956, Note_off_c, 1, 74, 0
3, 265152, Note_on_c, 1, 74, 69
3, 265248, Note_off_c, 1, 74, 0
3, 265248, Note_on_c, 1, 73, 69
3, 265328, Note_off_c, 1, 73, 0
3, 265344, Note_on_c, 1, 74, 69
3, 265724, Note_off_c, 1, 74, 0
3, 265728, Note_on_c, 1, 74, 69
3, 265820, Note_off_c, 1, 74, 0
3, 266112, Note_on_c, 1, 74, 69
3, 266112, Note_on_c, 1, 71, 69
3, 266204, Note_off_c, 1, 74, 0
3, 266204, Note_off_c, 1, 71, 0
3, 266496, Note_on_c, 1, 74, 69
3, 266496, Note_on_c, 1, 71, 69
3, 266588, Note_off_c, 1, 74, 0
3, 266588, Note_off_c, 1, 71, 0
3, 266880, Note_on_c, 1, 74, 69
3, 266880, Note_on_c, 1, 71, 69
3, 266972, Note_off_c, 1, 74, 0
3, 266972, Note_off_c, 1, 71, 0
3, 267264, Note_on_c, 1, 74, 69
3, 267264, Note_on_c, 1, 71, 69
3, 267356, Note_off_c, 1, 74, 0
3, 267356, Note_off_c, 1, 71, 0
3, 267648, Note_on_c, 1, 74, 69
3, 267648, Note_on_c, 1, 71, 69
3, 267740, Note_off_c, 1, 74, 0
3, 267740, Note_off_c, 1, 71, 0
3, 268032, Note_on_c, 1, 74, 69
3, 268032, Note_on_c, 1, 71, 69
3, 268124, Note_off_c, 1, 74, 0
3, 268124, Note_off_c, 1, 71, 0
3, 268416, Note_on_c, 1, 74, 69
3, 268416, Note_on_c, 1, 71, 69
3, 268508, Note_off_c, 1, 74, 0
3, 268508, Note_off_c, 1, 71, 0
3, 268800, Note_on_c, 1, 86, 82
3, 268800, Note_on_c, 1, 74, 82
3, 269180, Note_off_c, 1, 86, 0
3, 269180, Note_off_c, 1, 74, 0
3, 269184, Note_on_c, 1, 85, 82
3, 269184, Note_on_c, 1, 73, 82
3, 269564, Note_off_c, 1, 85, 0
3, 269564, Note_off_c, 1, 73, 0
3, 269568, Note_on_c, 1, 86, 82
3, 269568, Note_on_c, 1, 74, 82
3, 269756, Note_off_c, 1, 86, 0
3, 269756, Note_off_c, 1, 74, 0
3, 269760, Note_on_c, 1, 85, 82
3, 269760, Note_on_c, 1, 73, 82
3, 269948, Note_off_c, 1, 85, 0
3, 269948, Note_off_c, 1, 73, 0
3, 269952, Note_on_c, 1, 86, 82
3, 269952, Note_on_c, 1, 74, 82
3, 270140, Note_off_c, 1, 86, 0
3, 270140, Note_off_c, 1, 74, 0
3, 270144, Note_on_c, 1, 85, 82
3, 270144, Note_on_c, 1, 73, 82
3, 270332, Note_off_c, 1, 85, 0
3, 270332, Note_off_c, 1, 73, 0
3, 270336, Note_on_c, 1, 86, 82
3, 270336, Note_on_c, 1, 74, 82
3, 270716, Note_off_c, 1, 86, 0
3, 270716, Note_off_c, 1, 74, 0
3, 271104, Note_on_c, 1, 79, 82
3, 271104, Note_on_c, 1, 73, 82
3, 271292, Note_off_c, 1, 79, 0
3, 271292, Note_off_c, 1, 73, 0
3, 271296, Note_on_c, 1, 79, 82
3, 271296, Note_on_c, 1, 73, 82
3, 271484, Note_off_c, 1, 79, 0
3, 271484, Note_off_c, 1, 73, 0
3, 271488, Note_on_c, 1, 73, 82
3, 271488, Note_on_c, 1, 67, 82
3, 271676, Note_off_c, 1, 73, 0
3, 271676, Note_off_c, 1, 67, 0
3, 271680, Note_on_c, 1, 73, 82
3, 271680, Note_on_c, 1, 67, 82
3, 271868, Note_off_c, 1, 73, 0
3, 271868, Note_off_c, 1, 67, 0
3, 271872, Note_on_c, 1, 74, 96
3, 271872, Note_on_c, 1, 66, 96
3, 271964, Note_off_c, 1, 74, 0
3, 271964, Note_off_c, 1, 66, 0
3, 271968, Note_on_c, 1, 62, 96
3, 272060, Note_off_c, 1, 62, 0
3, 272064, Note_on_c, 1, 64, 96
3, 272156, Note_off_c, 1, 64, 0
3, 272160, Note_on_c, 1, 66, 96
3, 272252, Note_off_c, 1, 66, 0
3, 272256, Note_on_c, 1, 67, 96
3, 272348, Note_off_c, 1, 67, 0
3, 272352, Note_on_c, 1, 69, 96
3, 272444, Note_off_c, 1, 69, 0
3, 272448, Note_on_c, 1, 71, 96
3, 272540, Note_off_c, 1, 71, 0
3, 272544, Note_on_c, 1, 73, 96
3, 272636, Note_off_c, 1, 73, 0
3, 272640, Note_on_c, 1, 74, 96
3, 272732, Note_off_c, 1, 74, 0
3, 272736, Note_on_c, 1, 76, 96
3, 272828, Note_off_c, 1, 76, 0
3, 272832, Note_on_c, 1, 78, 96
3, 272924, Note_off_c, 1, 78, 0
3, 272928, Note_on_c, 1, 79, 96
3, 273020, Note_off_c, 1, 79, 0
3, 273024, Note_on_c, 1, 81, 96
3, 273116, Note_off_c, 1, 81, 0
3, 273120, Note_on_c, 1, 83, 96
3, 273212, Note_off_c, 1, 83, 0
3, 273216, Note_on_c, 1, 85, 96
3, 273308, Note_off_c, 1, 85, 0
3, 273312, Note_on_c, 1, 86, 96
3, 273404, Note_off_c, 1, 86, 0
3, 273408, Note_on_c, 1, 85, 94
3, 273408, Note_on_c, 1, 76, 94
3, 273596, Note_off_c, 1, 85, 0
3, 273596, Note_off_c, 1, 76, 0
3, 273600, Note_on_c, 1, 85, 93
3, 273600, Note_on_c, 1, 76, 93
3, 273788, Note_off_c, 1, 85, 0
3, 273788, Note_off_c, 1, 76, 0
3, 273792, Note_on_c, 1, 83, 92
3, 273792, Note_on_c, 1, 74, 92
3, 273980, Note_off_c, 1, 83, 0
3, 273980, Note_off_c, 1, 74, 0
3, 273984, Note_on_c, 1, 83, 90
3, 273984, Note_on_c, 1, 74, 90
3, 274172, Note_off_c, 1, 83, 0
3, 274172, Note_off_c, 1, 74, 0
3, 274176, Note_on_c, 1, 81, 89
3, 274176, Note_on_c, 1, 73, 89
3, 274364, Note_off_c, 1, 81, 0
3, 274364, Note_off_c, 1, 73, 0
3, 274368, Note_on_c, 1, 81, 88
3, 274368, Note_on_c, 1, 73, 88
3, 274556, Note_off_c, 1, 81, 0
3, 274556, Note_off_c, 1, 73, 0
3, 274560, Note_on_c, 1, 79, 85
3, 274560, Note_on_c, 1, 71, 85
3, 274748, Note_off_c, 1, 79, 0
3, 274748, Note_off_c, 1, 71, 0
3, 274752, Note_on_c, 1, 79, 84
3, 274752, Note_on_c, 1, 71, 84
3, 274940, Note_off_c, 1, 79, 0
3, 274940, Note_off_c, 1, 71, 0
3, 274944, Note_on_c, 1, 78, 81
3, 274944, Note_on_c, 1, 72, 81
3, 274944, Note_on_c, 1, 69, 81
3, 275132, Note_off_c, 1, 78, 0
3, 275132, Note_off_c, 1, 72, 0
3, 275132, Note_off_c, 1, 69, 0
3, 275136, Note_on_c, 1, 78, 80
3, 275136, Note_on_c, 1, 72, 80
3, 275136, Note_on_c, 1, 69, 80
3, 275324, Note_off_c, 1, 78, 0
3, 275324, Note_off_c, 1, 72, 0
3, 275324, Note_off_c, 1, 69, 0
3, 275328, Note_on_c, 1, 69, 79
3, 275328, Note_on_c, 1, 66, 79
3, 275328, Note_on_c, 1, 60, 79
3, 275328, Note_on_c, 1, 72, 79
3, 275516, Note_off_c, 1, 69, 0
3, 275516, Note_off_c, 1, 66, 0
3, 275516, Note_off_c, 1, 60, 0
3, 275516, Note_off_c, 1, 72, 0
3, 275520, Note_on_c, 1, 69, 77
3, 275520, Note_on_c, 1, 66, 77
3, 275520, Note_on_c, 1, 60, 77
3, 275708, Note_off_c, 1, 69, 0
3, 275708, Note_off_c, 1, 66, 0
3, 275708, Note_off_c, 1, 60, 0
3, 275712, Note_on_c, 1, 68, 75
3, 275712, Note_on_c, 1, 64, 75
3, 275712, Note_on_c, 1, 59, 75
3, 275900, Note_off_c, 1, 68, 0
3, 275900, Note_off_c, 1, 64, 0
3, 275900, Note_off_c, 1, 59, 0
3, 275904, Note_on_c, 1, 68, 74
3, 275904, Note_on_c, 1, 64, 74
3, 275904, Note_on_c, 1, 59, 74
3, 276092, Note_off_c, 1, 68, 0
3, 276092, Note_off_c, 1, 64, 0
3, 276092, Note_off_c, 1, 59, 0
3, 276096, Note_on_c, 1, 67, 72
3, 276096, Note_on_c, 1, 64, 72
3, 276096, Note_on_c, 1, 58, 72
3, 276284, Note_off_c, 1, 67, 0
3, 276284, Note_off_c, 1, 64, 0
3, 276284, Note_off_c, 1, 58, 0
3, 276288, Note_on_c, 1, 67, 70
3, 276288, Note_on_c, 1, 64, 70
3, 276288, Note_on_c, 1, 58, 70
3, 276476, Note_off_c, 1, 67, 0
3, 276476, Note_off_c, 1, 64, 0
3, 276476, Note_off_c, 1, 58, 0
3, 276480, Note_on_c, 1, 66, 69
3, 276480, Note_on_c, 1, 62, 69
3, 276480, Note_on_c, 1, 57, 69
3, 276668, Note_off_c, 1, 66, 0
3, 276668, Note_off_c, 1, 62, 0
3, 276668, Note_off_c, 1, 57, 0
3, 276672, Note_on_c, 1, 66, 69
3, 276672, Note_on_c, 1, 62, 69
3, 276672, Note_on_c, 1, 57, 69
3, 276860, Note_off_c, 1, 66, 0
3, 276860, Note_off_c, 1, 62, 0
3, 276860, Note_off_c, 1, 57, 0
3, 276864, Note_on_c, 1, 64, 69
3, 276864, Note_on_c, 1, 59, 69
3, 276864, Note_on_c, 1, 55, 69
3, 277052, Note_off_c, 1, 64, 0
3, 277052, Note_off_c, 1, 59, 0
3, 277052, Note_off_c, 1, 55, 0
3, 277056, Note_on_c, 1, 64, 69
3, 277056, Note_on_c, 1, 59, 69
3, 277056, Note_on_c, 1, 55, 69
3, 277244, Note_off_c, 1, 64, 0
3, 277244, Note_off_c, 1, 59, 0
3, 277244, Note_off_c, 1, 55, 0
3, 277248, Note_on_c, 1, 62, 69
3, 277248, Note_on_c, 1, 57, 69
3, 277248, Note_on_c, 1, 54, 69
3, 277436, Note_off_c, 1, 62, 0
3, 277436, Note_off_c, 1, 57, 0
3, 277436, Note_off_c, 1, 54, 0
3, 277440, Note_on_c, 1, 62, 69
3, 277440, Note_on_c, 1, 57, 69
3, 277440, Note_on_c, 1, 54, 69
3, 277628, Note_off_c, 1, 62, 0
3, 277628, Note_off_c, 1, 57, 0
3, 277628, Note_off_c, 1, 54, 0
3, 277632, Note_on_c, 1, 61, 69
3, 277632, Note_on_c, 1, 55, 69
3, 277632, Note_on_c, 1, 52, 69
3, 277820, Note_off_c, 1, 61, 0
3, 277820, Note_off_c, 1, 55, 0
3, 277820, Note_off_c, 1, 52, 0
3, 277824, Note_on_c, 1, 61, 69
3, 277824, Note_on_c, 1, 55, 69
3, 277824, Note_on_c, 1, 52, 69
3, 278012, Note_off_c, 1, 61, 0
3, 278012, Note_off_c, 1, 55, 0
3, 278012, Note_off_c, 1, 52, 0
3, 278016, Note_on_c, 1, 62, 69
3, 278016, Note_on_c, 1, 57, 69
3, 278016, Note_on_c, 1, 54, 69
3, 278396, Note_off_c, 1, 62, 0
3, 278396, Note_off_c, 1, 57, 0
3, 278396, Note_off_c, 1, 54, 0
3, 278784, Note_on_c, 1, 57, 69
3, 279164, Note_off_c, 1, 57, 0
3, 279168, Note_on_c, 1, 57, 69
3, 279548, Note_off_c, 1, 57, 0
3, 279552, Note_on_c, 1, 57, 96
3, 279644, Note_off_c, 1, 57, 0
3, 279744, Note_on_c, 1, 61, 96
3, 279744, Note_on_c, 1, 57, 96
3, 279836, Note_off_c, 1, 61, 0
3, 279836, Note_off_c, 1, 57, 0
3, 279936, Note_on_c, 1, 64, 96
3, 279936, Note_on_c, 1, 57, 96
3, 280124, Note_off_c, 1, 64, 0
3, 280124, Note_off_c, 1, 57, 0
3, 280320, Note_on_c, 1, 61, 92
3, 281084, Note_off_c, 1, 61, 0
3, 281088, Note_on_c, 1, 62, 78
3, 281276, Note_off_c, 1, 62, 0
3, 281280, Note_on_c, 1, 66, 84
3, 281280, Note_on_c, 1, 69, 84
3, 281468, Note_off_c, 1, 66, 0
3, 281468, Note_off_c, 1, 69, 0
3, 281472, Note_on_c, 1, 69, 90
3, 281664, Note_on_c, 1, 57, 96
3, 281852, Note_off_c, 1, 57, 0
3, 281856, Note_on_c, 1, 57, 96
3, 282044, Note_off_c, 1, 69, 0
3, 282044, Note_off_c, 1, 57, 0
3, 282048, Note_on_c, 1, 66, 90
3, 282048, Note_on_c, 1, 62, 90
3, 282236, Note_off_c, 1, 66, 0
3, 282236, Note_off_c, 1, 62, 0
3, 282240, Note_on_c, 1, 64, 84
3, 282428, Note_off_c, 1, 64, 0
3, 282432, Note_on_c, 1, 62, 78
3, 282620, Note_off_c, 1, 62, 0
3, 282624, Note_on_c, 1, 62, 78
3, 283388, Note_off_c, 1, 62, 0
3, 283392, Note_on_c, 1, 61, 78
3, 283580, Note_off_c, 1, 61, 0
3, 283584, Note_on_c, 1, 57, 78
3, 283772, Note_off_c, 1, 57, 0
3, 283776, Note_on_c, 1, 56, 78
3, 283964, Note_off_c, 1, 56, 0
3, 283968, Note_on_c, 1, 57, 78
3, 284156, Note_off_c, 1, 57, 0
3, 284160, Note_on_c, 1, 58, 78
3, 284348, Note_off_c, 1, 58, 0
3, 284352, Note_on_c, 1, 57, 78
3, 284540, Note_off_c, 1, 57, 0
3, 284544, Note_on_c, 1, 56, 78
3, 284732, Note_off_c, 1, 56, 0
3, 284736, Note_on_c, 1, 57, 78
3, 284924, Note_off_c, 1, 57, 0
3, 284928, Note_on_c, 1, 57, 78
3, 285116, Note_off_c, 1, 57, 0
3, 285312, Note_on_c, 1, 57, 78
3, 285500, Note_off_c, 1, 57, 0
3, 285696, Note_on_c, 1, 57, 96
3, 285788, Note_off_c, 1, 57, 0
3, 285888, Note_on_c, 1, 61, 96
3, 285888, Note_on_c, 1, 57, 96
3, 285980, Note_off_c, 1, 61, 0
3, 285980, Note_off_c, 1, 57, 0
3, 286080, Note_on_c, 1, 64, 96
3, 286080, Note_on_c, 1, 57, 96
3, 286268, Note_off_c, 1, 64, 0
3, 286268, Note_off_c, 1, 57, 0
3, 286464, Note_on_c, 1, 64, 96
3, 286464, Note_on_c, 1, 61, 96
3, 286844, Note_off_c, 1, 64, 0
3, 286844, Note_off_c, 1, 61, 0
3, 286848, Note_on_c, 1, 69, 96
3, 286848, Note_on_c, 1, 64, 96
3, 287228, Note_off_c, 1, 69, 0
3, 287228, Note_off_c, 1, 64, 0
3, 287232, Note_on_c, 1, 69, 96
3, 287232, Note_on_c, 1, 65, 96
3, 287612, Note_off_c, 1, 69, 0
3, 287612, Note_off_c, 1, 65, 0
3, 288768, Note_on_c, 1, 71, 108
3, 288960, Note_on_c, 1, 74, 96
3, 289148, Note_off_c, 1, 74, 0
3, 289152, Note_on_c, 1, 76, 89
3, 289340, Note_off_c, 1, 76, 0
3, 289344, Note_on_c, 1, 77, 82
3, 289532, Note_off_c, 1, 71, 0
3, 289532, Note_off_c, 1, 77, 0
3, 289536, Note_on_c, 1, 76, 77
3, 289724, Note_off_c, 1, 76, 0
3, 289728, Note_on_c, 1, 81, 69
3, 289728, Note_on_c, 1, 73, 69
3, 289820, Note_off_c, 1, 81, 0
3, 289820, Note_off_c, 1, 73, 0
3, 289920, Note_on_c, 1, 81, 69
3, 289920, Note_on_c, 1, 74, 69
3, 290012, Note_off_c, 1, 81, 0
3, 290012, Note_off_c, 1, 74, 0
3, 290112, Note_on_c, 1, 81, 69
3, 290112, Note_on_c, 1, 76, 69
3, 290204, Note_off_c, 1, 81, 0
3, 290204, Note_off_c, 1, 76, 0
3, 290304, Note_on_c, 1, 86, 69
3, 290304, Note_on_c, 1, 74, 69
3, 290396, Note_off_c, 1, 74, 0
3, 290496, Note_on_c, 1, 78, 69
3, 290588, Note_off_c, 1, 78, 0
3, 290684, Note_off_c, 1, 86, 0
3, 290688, Note_on_c, 1, 81, 69
3, 290688, Note_on_c, 1, 76, 69
3, 290780, Note_off_c, 1, 76, 0
3, 290876, Note_off_c, 1, 81, 0
3, 290880, Note_on_c, 1, 74, 69
3, 290972, Note_off_c, 1, 74, 0
3, 291072, Note_on_c, 1, 73, 69
3, 291164, Note_off_c, 1, 73, 0
3, 291264, Note_on_c, 1, 73, 69
3, 291356, Note_off_c, 1, 73, 0
3, 291456, Note_on_c, 1, 74, 69
3, 291548, Note_off_c, 1, 74, 0
3, 291648, Note_on_c, 1, 76, 69
3, 291740, Note_off_c, 1, 76, 0
3, 291840, Note_on_c, 1, 74, 69
3, 291932, Note_off_c, 1, 74, 0
3, 292032, Note_on_c, 1, 66, 69
3, 292124, Note_off_c, 1, 66, 0
3, 292224, Note_on_c, 1, 64, 69
3, 292316, Note_off_c, 1, 64, 0
3, 292416, Note_on_c, 1, 62, 69
3, 292508, Note_off_c, 1, 62, 0
3, 292608, Note_on_c, 1, 61, 69
3, 292700, Note_off_c, 1, 61, 0
3, 292800, Note_on_c, 1, 64, 69
3, 292800, Note_on_c, 1, 61, 69
3, 292892, Note_off_c, 1, 64, 0
3, 292892, Note_off_c, 1, 61, 0
3, 292992, Note_on_c, 1, 66, 69
3, 292992, Note_on_c, 1, 62, 69
3, 293084, Note_off_c, 1, 66, 0
3, 293084, Note_off_c, 1, 62, 0
3, 293184, Note_on_c, 1, 67, 69
3, 293184, Note_on_c, 1, 64, 69
3, 293276, Note_off_c, 1, 67, 0
3, 293276, Note_off_c, 1, 64, 0
3, 293376, Note_on_c, 1, 66, 69
3, 293376, Note_on_c, 1, 62, 69
3, 293564, Note_off_c, 1, 66, 0
3, 293564, Note_off_c, 1, 62, 0
3, 293568, Note_on_c, 1, 81, 69
3, 293568, Note_on_c, 1, 78, 69
3, 293664, Note_off_c, 1, 81, 0
3, 293664, Note_off_c, 1, 78, 0
3, 293664, Note_on_c, 1, 83, 69
3, 293664, Note_on_c, 1, 79, 69
3, 293744, Note_off_c, 1, 83, 0
3, 293744, Note_off_c, 1, 79, 0
3, 293760, Note_on_c, 1, 76, 69
3, 293760, Note_on_c, 1, 79, 69
3, 293852, Note_off_c, 1, 76, 0
3, 293852, Note_off_c, 1, 79, 0
3, 293952, Note_on_c, 1, 79, 69
3, 293952, Note_on_c, 1, 76, 69
3, 294048, Note_off_c, 1, 79, 0
3, 294048, Note_off_c, 1, 76, 0
3, 294048, Note_on_c, 1, 81, 69
3, 294048, Note_on_c, 1, 78, 69
3, 294128, Note_off_c, 1, 81, 0
3, 294128, Note_off_c, 1, 78, 0
3, 294144, Note_on_c, 1, 78, 69
3, 294144, Note_on_c, 1, 74, 69
3, 294236, Note_off_c, 1, 78, 0
3, 294236, Note_off_c, 1, 74, 0
3, 294336, Note_on_c, 1, 78, 69
3, 294336, Note_on_c, 1, 74, 69
3, 294336, Note_on_c, 1, 57, 69
3, 294428, Note_off_c, 1, 78, 0
3, 294428, Note_off_c, 1, 74, 0
3, 294428, Note_off_c, 1, 57, 0
3, 294432, Note_on_c, 1, 79, 69
3, 294432, Note_on_c, 1, 76, 69
3, 294512, Note_off_c, 1, 79, 0
3, 294512, Note_off_c, 1, 76, 0
3, 294528, Note_on_c, 1, 76, 69
3, 294528, Note_on_c, 1, 73, 69
3, 294528, Note_on_c, 1, 57, 69
3, 294620, Note_off_c, 1, 76, 0
3, 294620, Note_off_c, 1, 73, 0
3, 294620, Note_off_c, 1, 57, 0
3, 294624, Note_on_c, 1, 74, 69
3, 294624, Note_on_c, 1, 78, 69
3, 294716, Note_off_c, 1, 74, 0
3, 294716, Note_off_c, 1, 78, 0
3, 294720, Note_on_c, 1, 79, 69
3, 294720, Note_on_c, 1, 76, 69
3, 294720, Note_on_c, 1, 57, 69
3, 294812, Note_off_c, 1, 79, 0
3, 294812, Note_off_c, 1, 76, 0
3, 294812, Note_off_c, 1, 57, 0
3, 294816, Note_on_c, 1, 76, 69
3, 294816, Note_on_c, 1, 73, 69
3, 294908, Note_off_c, 1, 76, 0
3, 294908, Note_off_c, 1, 73, 0
3, 294912, Note_on_c, 1, 78, 69
3, 294912, Note_on_c, 1, 74, 69
3, 294912, Note_on_c, 1, 62, 69
3, 295004, Note_off_c, 1, 78, 0
3, 295004, Note_off_c, 1, 74, 0
3, 295004, Note_off_c, 1, 62, 0
3, 295104, Note_on_c, 1, 78, 69
3, 295104, Note_on_c, 1, 69, 69
3, 295200, Note_off_c, 1, 78, 0
3, 295200, Note_off_c, 1, 69, 0
3, 295200, Note_on_c, 1, 79, 69
3, 295200, Note_on_c, 1, 71, 69
3, 295280, Note_off_c, 1, 79, 0
3, 295280, Note_off_c, 1, 71, 0
3, 295296, Note_on_c, 1, 76, 69
3, 295296, Note_on_c, 1, 67, 69
3, 295296, Note_on_c, 1, 57, 69
3, 295388, Note_off_c, 1, 76, 0
3, 295388, Note_off_c, 1, 67, 0
3, 295388, Note_off_c, 1, 57, 0
3, 295488, Note_on_c, 1, 76, 69
3, 295488, Note_on_c, 1, 67, 69
3, 295584, Note_off_c, 1, 76, 0
3, 295584, Note_off_c, 1, 67, 0
3, 295584, Note_on_c, 1, 78, 69
3, 295584, Note_on_c, 1, 69, 69
3, 295664, Note_off_c, 1, 78, 0
3, 295664, Note_off_c, 1, 69, 0
3, 295680, Note_on_c, 1, 74, 69
3, 295680, Note_on_c, 1, 66, 69
3, 295772, Note_off_c, 1, 74, 0
3, 295772, Note_off_c, 1, 66, 0
3, 295872, Note_on_c, 1, 74, 69
3, 295872, Note_on_c, 1, 66, 69
3, 295968, Note_off_c, 1, 74, 0
3, 295968, Note_off_c, 1, 66, 0
3, 295968, Note_on_c, 1, 76, 69
3, 295968, Note_on_c, 1, 67, 69
3, 296048, Note_off_c, 1, 76, 0
3, 296048, Note_off_c, 1, 67, 0
3, 296064, Note_on_c, 1, 73, 69
3, 296064, Note_on_c, 1, 64, 69
3, 296156, Note_off_c, 1, 73, 0
3, 296156, Note_off_c, 1, 64, 0
3, 296160, Note_on_c, 1, 74, 69
3, 296160, Note_on_c, 1, 66, 69
3, 296252, Note_off_c, 1, 74, 0
3, 296252, Note_off_c, 1, 66, 0
3, 296256, Note_on_c, 1, 76, 69
3, 296256, Note_on_c, 1, 67, 69
3, 296348, Note_off_c, 1, 76, 0
3, 296348, Note_off_c, 1, 67, 0
3, 296352, Note_on_c, 1, 73, 69
3, 296352, Note_on_c, 1, 64, 69
3, 296444, Note_off_c, 1, 73, 0
3, 296444, Note_off_c, 1, 64, 0
3, 296448, Note_on_c, 1, 74, 69
3, 296448, Note_on_c, 1, 66, 69
3, 296448, Note_on_c, 1, 62, 69
3, 296828, Note_off_c, 1, 74, 0
3, 296828, Note_off_c, 1, 66, 0
3, 296828, Note_off_c, 1, 62, 0
3, 297984, Note_on_c, 1, 72, 82
3, 297984, Note_on_c, 1, 69, 82
3, 297984, Note_on_c, 1, 62, 82
3, 298172, Note_off_c, 1, 72, 0
3, 298172, Note_off_c, 1, 69, 0
3, 298172, Note_off_c, 1, 62, 0
3, 298176, Note_on_c, 1, 72, 82
3, 298176, Note_on_c, 1, 69, 82
3, 298176, Note_on_c, 1, 62, 82
3, 298364, Note_off_c, 1, 72, 0
3, 298364, Note_off_c, 1, 69, 0
3, 298364, Note_off_c, 1, 62, 0
3, 298368, Note_on_c, 1, 72, 82
3, 298368, Note_on_c, 1, 69, 82
3, 298368, Note_on_c, 1, 62, 82
3, 298556, Note_off_c, 1, 72, 0
3, 298556, Note_off_c, 1, 69, 0
3, 298556, Note_off_c, 1, 62, 0
3, 298560, Note_on_c, 1, 72, 82
3, 298560, Note_on_c, 1, 69, 82
3, 298560, Note_on_c, 1, 62, 82
3, 298748, Note_off_c, 1, 72, 0
3, 298748, Note_off_c, 1, 69, 0
3, 298748, Note_off_c, 1, 62, 0
3, 298752, Note_on_c, 1, 72, 82
3, 298752, Note_on_c, 1, 69, 82
3, 298752, Note_on_c, 1, 62, 82
3, 298940, Note_off_c, 1, 72, 0
3, 298940, Note_off_c, 1, 69, 0
3, 298940, Note_off_c, 1, 62, 0
3, 298944, Note_on_c, 1, 72, 82
3, 298944, Note_on_c, 1, 69, 82
3, 298944, Note_on_c, 1, 62, 82
3, 299132, Note_off_c, 1, 72, 0
3, 299132, Note_off_c, 1, 69, 0
3, 299132, Note_off_c, 1, 62, 0
3, 299136, Note_on_c, 1, 72, 82
3, 299136, Note_on_c, 1, 69, 82
3, 299136, Note_on_c, 1, 62, 82
3, 299324, Note_off_c, 1, 72, 0
3, 299324, Note_off_c, 1, 69, 0
3, 299324, Note_off_c, 1, 62, 0
3, 299328, Note_on_c, 1, 72, 82
3, 299328, Note_on_c, 1, 69, 82
3, 299328, Note_on_c, 1, 62, 82
3, 299516, Note_off_c, 1, 72, 0
3, 299516, Note_off_c, 1, 69, 0
3, 299516, Note_off_c, 1, 62, 0
3, 299712, Note_on_c, 1, 71, 82
3, 299712, Note_on_c, 1, 67, 82
3, 299712, Note_on_c, 1, 62, 82
3, 299900, Note_off_c, 1, 71, 0
3, 299900, Note_off_c, 1, 67, 0
3, 299900, Note_off_c, 1, 62, 0
3, 299904, Note_on_c, 1, 71, 82
3, 299904, Note_on_c, 1, 67, 82
3, 299904, Note_on_c, 1, 62, 82
3, 300092, Note_off_c, 1, 71, 0
3, 300092, Note_off_c, 1, 67, 0
3, 300092, Note_off_c, 1, 62, 0
3, 300096, Note_on_c, 1, 71, 82
3, 300096, Note_on_c, 1, 67, 82
3, 300096, Note_on_c, 1, 62, 82
3, 300284, Note_off_c, 1, 71, 0
3, 300284, Note_off_c, 1, 67, 0
3, 300284, Note_off_c, 1, 62, 0
3, 300288, Note_on_c, 1, 71, 82
3, 300288, Note_on_c, 1, 67, 82
3, 300288, Note_on_c, 1, 62, 82
3, 300476, Note_off_c, 1, 71, 0
3, 300476, Note_off_c, 1, 67, 0
3, 300476, Note_off_c, 1, 62, 0
3, 300480, Note_on_c, 1, 71, 82
3, 300480, Note_on_c, 1, 67, 82
3, 300480, Note_on_c, 1, 62, 82
3, 300668, Note_off_c, 1, 71, 0
3, 300668, Note_off_c, 1, 67, 0
3, 300668, Note_off_c, 1, 62, 0
3, 300672, Note_on_c, 1, 71, 82
3, 300672, Note_on_c, 1, 67, 82
3, 300672, Note_on_c, 1, 62, 82
3, 300860, Note_off_c, 1, 71, 0
3, 300860, Note_off_c, 1, 67, 0
3, 300860, Note_off_c, 1, 62, 0
3, 300864, Note_on_c, 1, 74, 82
3, 300864, Note_on_c, 1, 71, 82
3, 300864, Note_on_c, 1, 67, 82
3, 301052, Note_off_c, 1, 74, 0
3, 301052, Note_off_c, 1, 71, 0
3, 301052, Note_off_c, 1, 67, 0
3, 301056, Note_on_c, 1, 74, 82
3, 301056, Note_on_c, 1, 69, 82
3, 301056, Note_on_c, 1, 66, 82
3, 301244, Note_off_c, 1, 74, 0
3, 301244, Note_off_c, 1, 69, 0
3, 301244, Note_off_c, 1, 66, 0
3, 301248, Note_on_c, 1, 74, 82
3, 301248, Note_on_c, 1, 67, 82
3, 301248, Note_on_c, 1, 64, 82
3, 301436, Note_off_c, 1, 74, 0
3, 301436, Note_off_c, 1, 67, 0
3, 301436, Note_off_c, 1, 64, 0
3, 301440, Note_on_c, 1, 74, 82
3, 301440, Note_on_c, 1, 69, 82
3, 301440, Note_on_c, 1, 66, 82
3, 301628, Note_off_c, 1, 74, 0
3, 301628, Note_off_c, 1, 69, 0
3, 301628, Note_off_c, 1, 66, 0
3, 301632, Note_on_c, 1, 74, 82
3, 301632, Note_on_c, 1, 71, 82
3, 301632, Note_on_c, 1, 64, 82
3, 301820, Note_off_c, 1, 74, 0
3, 301820, Note_off_c, 1, 71, 0
3, 301820, Note_off_c, 1, 64, 0
3, 301824, Note_on_c, 1, 74, 82
3, 301824, Note_on_c, 1, 69, 82
3, 301824, Note_on_c, 1, 67, 82
3, 302012, Note_off_c, 1, 74, 0
3, 302012, Note_off_c, 1, 69, 0
3, 302012, Note_off_c, 1, 67, 0
3, 302016, Note_on_c, 1, 74, 82
3, 302016, Note_on_c, 1, 69, 82
3, 302016, Note_on_c, 1, 67, 82
3, 302204, Note_off_c, 1, 74, 0
3, 302204, Note_off_c, 1, 69, 0
3, 302204, Note_off_c, 1, 67, 0
3, 302208, Note_on_c, 1, 74, 82
3, 302208, Note_on_c, 1, 69, 82
3, 302208, Note_on_c, 1, 67, 82
3, 302396, Note_off_c, 1, 74, 0
3, 302396, Note_off_c, 1, 69, 0
3, 302396, Note_off_c, 1, 67, 0
3, 302400, Note_on_c, 1, 74, 82
3, 302400, Note_on_c, 1, 69, 82
3, 302400, Note_on_c, 1, 67, 82
3, 302588, Note_off_c, 1, 74, 0
3, 302588, Note_off_c, 1, 69, 0
3, 302588, Note_off_c, 1, 67, 0
3, 302592, Note_on_c, 1, 74, 82
3, 302592, Note_on_c, 1, 69, 82
3, 302592, Note_on_c, 1, 66, 82
3, 302684, Note_off_c, 1, 74, 0
3, 302684, Note_off_c, 1, 69, 0
3, 302684, Note_off_c, 1, 66, 0
3, 302976, Note_on_c, 1, 66, 69
3, 302976, Note_on_c, 1, 62, 69
3, 303072, Note_off_c, 1, 66, 0
3, 303072, Note_off_c, 1, 62, 0
3, 303072, Note_on_c, 1, 69, 74
3, 303152, Note_off_c, 1, 69, 0
3, 303360, Note_on_c, 1, 66, 69
3, 303360, Note_on_c, 1, 62, 69
3, 303456, Note_off_c, 1, 66, 0
3, 303456, Note_off_c, 1, 62, 0
3, 303456, Note_on_c, 1, 69, 74
3, 303536, Note_off_c, 1, 69, 0
3, 303744, Note_on_c, 1, 66, 69
3, 303744, Note_on_c, 1, 62, 69
3, 303840, Note_off_c, 1, 66, 0
3, 303840, Note_off_c, 1, 62, 0
3, 303840, Note_on_c, 1, 69, 74
3, 303920, Note_off_c, 1, 69, 0
3, 304128, Note_on_c, 1, 67, 69
3, 304128, Note_on_c, 1, 62, 69
3, 304128, Note_on_c, 1, 59, 69
3, 304220, Note_off_c, 1, 67, 0
3, 304220, Note_off_c, 1, 62, 0
3, 304220, Note_off_c, 1, 59, 0
3, 304512, Note_on_c, 1, 74, 69
3, 304512, Note_on_c, 1, 71, 69
3, 304608, Note_off_c, 1, 74, 0
3, 304608, Note_off_c, 1, 71, 0
3, 304608, Note_on_c, 1, 67, 69
3, 304688, Note_off_c, 1, 67, 0
3, 304896, Note_on_c, 1, 74, 74
3, 304896, Note_on_c, 1, 71, 74
3, 304992, Note_off_c, 1, 74, 0
3, 304992, Note_off_c, 1, 71, 0
3, 304992, Note_on_c, 1, 67, 69
3, 305072, Note_off_c, 1, 67, 0
3, 305280, Note_on_c, 1, 74, 74
3, 305280, Note_on_c, 1, 71, 74
3, 305376, Note_off_c, 1, 74, 0
3, 305376, Note_off_c, 1, 71, 0
3, 305376, Note_on_c, 1, 67, 69
3, 305456, Note_off_c, 1, 67, 0
3, 305664, Note_on_c, 1, 69, 96
3, 305664, Note_on_c, 1, 66, 96
3, 305856, Note_off_c, 1, 69, 0
3, 305856, Note_off_c, 1, 66, 0
3, 305856, Note_on_c, 1, 66, 69
3, 305856, Note_on_c, 1, 62, 69
3, 305856, Note_on_c, 1, 57, 69
3, 306036, Note_off_c, 1, 66, 0
3, 306036, Note_off_c, 1, 62, 0
3, 306040, Note_off_c, 1, 57, 0
3, 306048, Note_on_c, 1, 66, 69
3, 306048, Note_on_c, 1, 62, 69
3, 306048, Note_on_c, 1, 57, 69
3, 306140, Note_off_c, 1, 66, 0
3, 306140, Note_off_c, 1, 62, 0
3, 306140, Note_off_c, 1, 57, 0
3, 306240, Note_on_c, 1, 66, 69
3, 306240, Note_on_c, 1, 62, 69
3, 306240, Note_on_c, 1, 57, 69
3, 306332, Note_off_c, 1, 66, 0
3, 306332, Note_off_c, 1, 62, 0
3, 306332, Note_off_c, 1, 57, 0
3, 306432, Note_on_c, 1, 67, 96
3, 306432, Note_on_c, 1, 64, 96
3, 306624, Note_off_c, 1, 67, 0
3, 306624, Note_off_c, 1, 64, 0
3, 306624, Note_on_c, 1, 64, 69
3, 306624, Note_on_c, 1, 61, 69
3, 306624, Note_on_c, 1, 57, 69
3, 306804, Note_off_c, 1, 64, 0
3, 306804, Note_off_c, 1, 61, 0
3, 306804, Note_off_c, 1, 57, 0
3, 306816, Note_on_c, 1, 64, 69
3, 306816, Note_on_c, 1, 61, 69
3, 306816, Note_on_c, 1, 57, 69
3, 306908, Note_off_c, 1, 64, 0
3, 306908, Note_off_c, 1, 61, 0
3, 306908, Note_off_c, 1, 57, 0
3, 307008, Note_on_c, 1, 64, 69
3, 307008, Note_on_c, 1, 61, 69
3, 307008, Note_on_c, 1, 57, 69
3, 307100, Note_off_c, 1, 64, 0
3, 307100, Note_off_c, 1, 61, 0
3, 307100, Note_off_c, 1, 57, 0
3, 307200, Note_on_c, 1, 66, 94
3, 307200, Note_on_c, 1, 62, 94
3, 307200, Note_on_c, 1, 57, 94
3, 307580, Note_off_c, 1, 66, 0
3, 307580, Note_off_c, 1, 62, 0
3, 307580, Note_off_c, 1, 57, 0
3, 307584, Note_on_c, 1, 81, 94
3, 307600, Note_on_c, 1, 78, 94
3, 307868, Note_off_c, 1, 81, 0
3, 307872, Note_on_c, 1, 81, 94
3, 307872, Note_on_c, 1, 78, 94
3, 307884, Note_off_c, 1, 78, 0
3, 307964, Note_off_c, 1, 81, 0
3, 307964, Note_off_c, 1, 78, 0
3, 307968, Note_on_c, 1, 81, 94
3, 307968, Note_on_c, 1, 78, 94
3, 308156, Note_off_c, 1, 81, 0
3, 308156, Note_off_c, 1, 78, 0
3, 308160, Note_on_c, 1, 69, 94
3, 308160, Note_on_c, 1, 66, 94
3, 308348, Note_off_c, 1, 69, 0
3, 308348, Note_off_c, 1, 66, 0
3, 308352, Note_on_c, 1, 69, 94
3, 308352, Note_on_c, 1, 66, 94
3, 308540, Note_off_c, 1, 69, 0
3, 308540, Note_off_c, 1, 66, 0
3, 308544, Note_on_c, 1, 69, 94
3, 308544, Note_on_c, 1, 66, 94
3, 308732, Note_off_c, 1, 69, 0
3, 308732, Note_off_c, 1, 66, 0
3, 308736, Note_on_c, 1, 71, 94
3, 308736, Note_on_c, 1, 67, 94
3, 308924, Note_off_c, 1, 71, 0
3, 308924, Note_off_c, 1, 67, 0
3, 309120, Note_on_c, 1, 83, 94
3, 309120, Note_on_c, 1, 79, 94
3, 309260, Note_off_c, 1, 83, 0
3, 309260, Note_off_c, 1, 79, 0
3, 309408, Note_on_c, 1, 83, 94
3, 309408, Note_on_c, 1, 79, 94
3, 309452, Note_off_c, 1, 83, 0
3, 309452, Note_off_c, 1, 79, 0
3, 309504, Note_on_c, 1, 83, 94
3, 309504, Note_on_c, 1, 79, 94
3, 309596, Note_off_c, 1, 83, 0
3, 309596, Note_off_c, 1, 79, 0
3, 309696, Note_on_c, 1, 59, 94
3, 309788, Note_off_c, 1, 59, 0
3, 309888, Note_on_c, 1, 62, 94
3, 309980, Note_off_c, 1, 62, 0
3, 310080, Note_on_c, 1, 56, 94
3, 310172, Note_off_c, 1, 56, 0
3, 310272, Note_on_c, 1, 57, 94
3, 310652, Note_off_c, 1, 57, 0
3, 311808, Note_on_c, 1, 78, 69
3, 311808, Note_on_c, 1, 57, 69
3, 311808, Note_on_c, 1, 69, 69
3, 311808, Note_on_c, 1, 74, 69
3, 314112, Note_on_c, 1, 78, 69
3, 314112, Note_on_c, 1, 74, 69
3, 314112, Note_on_c, 1, 69, 69
3, 314112, Note_on_c, 1, 57, 69
3, 314296, Note_off_c, 1, 57, 64
3, 314296, Note_off_c, 1, 69, 64
3, 314296, Note_off_c, 1, 74, 64
3, 314296, Note_off_c, 1, 78, 64
3, 314300, Note_off_c, 1, 78, 0
3, 314300, Note_off_c, 1, 74, 0
3, 314300, Note_off_c, 1, 69, 0
3, 314300, Note_off_c, 1, 57, 0
3, 314304, Note_on_c, 1, 78, 72
3, 314304, Note_on_c, 1, 74, 72
3, 314304, Note_on_c, 1, 69, 72
3, 314304, Note_on_c, 1, 57, 72
3, 314492, Note_off_c, 1, 78, 0
3, 314492, Note_off_c, 1, 74, 0
3, 314492, Note_off_c, 1, 69, 0
3, 314492, Note_off_c, 1, 57, 0
3, 314496, Note_on_c, 1, 78, 78
3, 314496, Note_on_c, 1, 74, 78
3, 314496, Note_on_c, 1, 69, 78
3, 314496, Note_on_c, 1, 57, 78
3, 314684, Note_off_c, 1, 78, 0
3, 314684, Note_off_c, 1, 74, 0
3, 314684, Note_off_c, 1, 69, 0
3, 314684, Note_off_c, 1, 57, 0
3, 314688, Note_on_c, 1, 78, 80
3, 314688, Note_on_c, 1, 74, 80
3, 314688, Note_on_c, 1, 69, 80
3, 314688, Note_on_c, 1, 57, 80
3, 314876, Note_off_c, 1, 78, 0
3, 314876, Note_off_c, 1, 74, 0
3, 314876, Note_off_c, 1, 69, 0
3, 314876, Note_off_c, 1, 57, 0
3, 314880, Note_on_c, 1, 78, 82
3, 314880, Note_on_c, 1, 74, 82
3, 314880, Note_on_c, 1, 69, 82
3, 314880, Note_on_c, 1, 57, 82
3, 314972, Note_off_c, 1, 78, 0
3, 314972, Note_off_c, 1, 74, 0
3, 314972, Note_off_c, 1, 69, 0
3, 314972, Note_off_c, 1, 57, 0
3, 315264, Note_on_c, 1, 78, 82
3, 315264, Note_on_c, 1, 74, 82
3, 315264, Note_on_c, 1, 69, 82
3, 315264, Note_on_c, 1, 57, 82
3, 315356, Note_off_c, 1, 78, 0
3, 315356, Note_off_c, 1, 74, 0
3, 315356, Note_off_c, 1, 69, 0
3, 315356, Note_off_c, 1, 57, 0
3, 315648, Note_on_c, 1, 78, 82
3, 315648, Note_on_c, 1, 74, 82
3, 315648, Note_on_c, 1, 69, 82
3, 315648, Note_on_c, 1, 57, 82
3, 315740, Note_off_c, 1, 78, 0
3, 315740, Note_off_c, 1, 74, 0
3, 315740, Note_off_c, 1, 69, 0
3, 315740, Note_off_c, 1, 57, 0
3, 316032, Note_on_c, 1, 78, 82
3, 316032, Note_on_c, 1, 74, 82
3, 316032, Note_on_c, 1, 69, 82
3, 316032, Note_on_c, 1, 57, 82
3, 316124, Note_off_c, 1, 78, 0
3, 316124, Note_off_c, 1, 74, 0
3, 316124, Note_off_c, 1, 69, 0
3, 316124, Note_off_c, 1, 57, 0
3, 316416, Note_on_c, 1, 66, 82
3, 316416, Note_on_c, 1, 62, 82
3, 316508, Note_off_c, 1, 66, 0
3, 316508, Note_off_c, 1, 62, 0
3, 316512, Note_on_c, 1, 57, 82
3, 316604, Note_off_c, 1, 57, 0
3, 316608, Note_on_c, 1, 66, 82
3, 316608, Note_on_c, 1, 62, 82
3, 316700, Note_off_c, 1, 66, 0
3, 316700, Note_off_c, 1, 62, 0
3, 316704, Note_on_c, 1, 57, 82
3, 316796, Note_off_c, 1, 57, 0
3, 316800, Note_on_c, 1, 66, 82
3, 316800, Note_on_c, 1, 62, 82
3, 316892, Note_off_c, 1, 66, 0
3, 316892, Note_off_c, 1, 62, 0
3, 316896, Note_on_c, 1, 57, 82
3, 316988, Note_off_c, 1, 57, 0
3, 316992, Note_on_c, 1, 66, 82
3, 316992, Note_on_c, 1, 62, 82
3, 317084, Note_off_c, 1, 66, 0
3, 317084, Note_off_c, 1, 62, 0
3, 317088, Note_on_c, 1, 57, 82
3, 317180, Note_off_c, 1, 57, 0
3, 317184, Note_on_c, 1, 66, 84
3, 317184, Note_on_c, 1, 62, 84
3, 317276, Note_off_c, 1, 66, 0
3, 317276, Note_off_c, 1, 62, 0
3, 317280, Note_on_c, 1, 57, 84
3, 317372, Note_off_c, 1, 57, 0
3, 317376, Note_on_c, 1, 66, 84
3, 317376, Note_on_c, 1, 62, 84
3, 317468, Note_off_c, 1, 66, 0
3, 317468, Note_off_c, 1, 62, 0
3, 317472, Note_on_c, 1, 57, 85
3, 317564, Note_off_c, 1, 57, 0
3, 317568, Note_on_c, 1, 66, 85
3, 317568, Note_on_c, 1, 62, 85
3, 317660, Note_off_c, 1, 66, 0
3, 317660, Note_off_c, 1, 62, 0
3, 317664, Note_on_c, 1, 57, 86
3, 317756, Note_off_c, 1, 57, 0
3, 317760, Note_on_c, 1, 66, 86
3, 317760, Note_on_c, 1, 62, 86
3, 317852, Note_off_c, 1, 66, 0
3, 317852, Note_off_c, 1, 62, 0
3, 317856, Note_on_c, 1, 57, 86
3, 317948, Note_off_c, 1, 57, 0
3, 317952, Note_on_c, 1, 67, 88
3, 317952, Note_on_c, 1, 64, 88
3, 317952, Note_on_c, 1, 61, 88
3, 318044, Note_off_c, 1, 67, 0
3, 318044, Note_off_c, 1, 64, 0
3, 318044, Note_off_c, 1, 61, 0
3, 318048, Note_on_c, 1, 57, 88
3, 318140, Note_off_c, 1, 57, 0
3, 318144, Note_on_c, 1, 67, 89
3, 318144, Note_on_c, 1, 64, 89
3, 318144, Note_on_c, 1, 61, 89
3, 318236, Note_off_c, 1, 67, 0
3, 318236, Note_off_c, 1, 64, 0
3, 318236, Note_off_c, 1, 61, 0
3, 318240, Note_on_c, 1, 57, 89
3, 318332, Note_off_c, 1, 57, 0
3, 318336, Note_on_c, 1, 67, 90
3, 318336, Note_on_c, 1, 64, 90
3, 318336, Note_on_c, 1, 61, 90
3, 318428, Note_off_c, 1, 67, 0
3, 318428, Note_off_c, 1, 64, 0
3, 318428, Note_off_c, 1, 61, 0
3, 318432, Note_on_c, 1, 57, 90
3, 318524, Note_off_c, 1, 57, 0
3, 318528, Note_on_c, 1, 67, 90
3, 318528, Note_on_c, 1, 64, 90
3, 318528, Note_on_c, 1, 61, 90
3, 318620, Note_off_c, 1, 67, 0
3, 318620, Note_off_c, 1, 64, 0
3, 318620, Note_off_c, 1, 61, 0
3, 318624, Note_on_c, 1, 57, 91
3, 318716, Note_off_c, 1, 57, 0
3, 318720, Note_on_c, 1, 73, 91
3, 318720, Note_on_c, 1, 69, 91
3, 318720, Note_on_c, 1, 67, 91
3, 318812, Note_off_c, 1, 73, 0
3, 318812, Note_off_c, 1, 69, 0
3, 318812, Note_off_c, 1, 67, 0
3, 318816, Note_on_c, 1, 64, 92
3, 318908, Note_off_c, 1, 64, 0
3, 318912, Note_on_c, 1, 73, 92
3, 318912, Note_on_c, 1, 69, 92
3, 318912, Note_on_c, 1, 67, 92
3, 319004, Note_off_c, 1, 73, 0
3, 319004, Note_off_c, 1, 69, 0
3, 319004, Note_off_c, 1, 67, 0
3, 319008, Note_on_c, 1, 64, 92
3, 319100, Note_off_c, 1, 64, 0
3, 319104, Note_on_c, 1, 73, 93
3, 319104, Note_on_c, 1, 69, 93
3, 319104, Note_on_c, 1, 67, 93
3, 319196, Note_off_c, 1, 73, 0
3, 319196, Note_off_c, 1, 69, 0
3, 319196, Note_off_c, 1, 67, 0
3, 319200, Note_on_c, 1, 64, 93
3, 319292, Note_off_c, 1, 64, 0
3, 319296, Note_on_c, 1, 73, 94
3, 319296, Note_on_c, 1, 69, 94
3, 319296, Note_on_c, 1, 67, 94
3, 319388, Note_off_c, 1, 73, 0
3, 319388, Note_off_c, 1, 69, 0
3, 319388, Note_off_c, 1, 67, 0
3, 319392, Note_on_c, 1, 64, 94
3, 319484, Note_off_c, 1, 64, 0
3, 319488, Note_on_c, 1, 74, 96
3, 319488, Note_on_c, 1, 69, 96
3, 319488, Note_on_c, 1, 66, 96
3, 319676, Note_off_c, 1, 74, 0
3, 319676, Note_off_c, 1, 69, 0
3, 319676, Note_off_c, 1, 66, 0
3, 319680, Note_on_c, 1, 76, 96
3, 319772, Note_off_c, 1, 76, 0
3, 319776, Note_on_c, 1, 78, 96
3, 319868, Note_off_c, 1, 78, 0
3, 319872, Note_on_c, 1, 79, 96
3, 319964, Note_off_c, 1, 79, 0
3, 319968, Note_on_c, 1, 81, 96
3, 320060, Note_off_c, 1, 81, 0
3, 320064, Note_on_c, 1, 83, 96
3, 320156, Note_off_c, 1, 83, 0
3, 320160, Note_on_c, 1, 85, 96
3, 320252, Note_off_c, 1, 85, 0
3, 320256, Note_on_c, 1, 86, 96
3, 320256, Note_on_c, 1, 78, 96
3, 320348, Note_off_c, 1, 86, 0
3, 320348, Note_off_c, 1, 78, 0
3, 320352, Note_on_c, 1, 74, 96
3, 320444, Note_off_c, 1, 74, 0
3, 320448, Note_on_c, 1, 73, 96
3, 320540, Note_off_c, 1, 73, 0
3, 320544, Note_on_c, 1, 74, 96
3, 320636, Note_off_c, 1, 74, 0
3, 320640, Note_on_c, 1, 88, 96
3, 320732, Note_off_c, 1, 88, 0
3, 320736, Note_on_c, 1, 86, 96
3, 320828, Note_off_c, 1, 86, 0
3, 320832, Note_on_c, 1, 85, 96
3, 320924, Note_off_c, 1, 85, 0
3, 320928, Note_on_c, 1, 86, 96
3, 321020, Note_off_c, 1, 86, 0
3, 321024, Note_on_c, 1, 81, 96
3, 321024, Note_on_c, 1, 81, 96
3, 321116, Note_off_c, 1, 81, 0
3, 321120, Note_on_c, 1, 74, 96
3, 321212, Note_off_c, 1, 74, 0
3, 321216, Note_on_c, 1, 73, 96
3, 321308, Note_off_c, 1, 73, 0
3, 321312, Note_on_c, 1, 74, 96
3, 321404, Note_off_c, 1, 74, 0
3, 321408, Note_on_c, 1, 76, 96
3, 321500, Note_off_c, 1, 76, 0
3, 321504, Note_on_c, 1, 74, 96
3, 321596, Note_off_c, 1, 81, 0
3, 321596, Note_off_c, 1, 74, 0
3, 321600, Note_on_c, 1, 73, 96
3, 321600, Note_on_c, 1, 82, 96
3, 321692, Note_off_c, 1, 73, 0
3, 321696, Note_on_c, 1, 74, 96
3, 321788, Note_off_c, 1, 82, 0
3, 321788, Note_off_c, 1, 74, 0
3, 321792, Note_on_c, 1, 74, 96
3, 321792, Note_on_c, 1, 83, 96
3, 321884, Note_off_c, 1, 74, 0
3, 321884, Note_off_c, 1, 83, 0
3, 321888, Note_on_c, 1, 74, 96
3, 321980, Note_off_c, 1, 74, 0
3, 321984, Note_on_c, 1, 73, 96
3, 322076, Note_off_c, 1, 73, 0
3, 322080, Note_on_c, 1, 74, 96
3, 322172, Note_off_c, 1, 74, 0
3, 322176, Note_on_c, 1, 85, 96
3, 322268, Note_off_c, 1, 85, 0
3, 322272, Note_on_c, 1, 83, 96
3, 322364, Note_off_c, 1, 83, 0
3, 322368, Note_on_c, 1, 82, 96
3, 322460, Note_off_c, 1, 82, 0
3, 322464, Note_on_c, 1, 83, 96
3, 322556, Note_off_c, 1, 83, 0
3, 322560, Note_on_c, 1, 76, 96
3, 322652, Note_off_c, 1, 76, 0
3, 322656, Note_on_c, 1, 74, 96
3, 322748, Note_off_c, 1, 74, 0
3, 322752, Note_on_c, 1, 73, 96
3, 322844, Note_off_c, 1, 73, 0
3, 322848, Note_on_c, 1, 74, 96
3, 322940, Note_off_c, 1, 74, 0
3, 322944, Note_on_c, 1, 76, 96
3, 323036, Note_off_c, 1, 76, 0
3, 323040, Note_on_c, 1, 74, 96
3, 323132, Note_off_c, 1, 74, 0
3, 323136, Note_on_c, 1, 78, 96
3, 323228, Note_off_c, 1, 78, 0
3, 323232, Note_on_c, 1, 74, 96
3, 323324, Note_off_c, 1, 74, 0
3, 323328, Note_on_c, 1, 79, 96
3, 323420, Note_off_c, 1, 79, 0
3, 323424, Note_on_c, 1, 74, 96
3, 323516, Note_off_c, 1, 74, 0
3, 323520, Note_on_c, 1, 79, 96
3, 323520, Note_on_c, 1, 73, 96
3, 323612, Note_off_c, 1, 79, 0
3, 323612, Note_off_c, 1, 73, 0
3, 323616, Note_on_c, 1, 74, 96
3, 323708, Note_off_c, 1, 74, 0
3, 323712, Note_on_c, 1, 76, 96
3, 323804, Note_off_c, 1, 76, 0
3, 323808, Note_on_c, 1, 74, 96
3, 323900, Note_off_c, 1, 74, 0
3, 323904, Note_on_c, 1, 80, 96
3, 323996, Note_off_c, 1, 80, 0
3, 324000, Note_on_c, 1, 74, 96
3, 324092, Note_off_c, 1, 74, 0
3, 324096, Note_on_c, 1, 81, 96
3, 324188, Note_off_c, 1, 81, 0
3, 324192, Note_on_c, 1, 74, 96
3, 324284, Note_off_c, 1, 74, 0
3, 324288, Note_on_c, 1, 81, 96
3, 324288, Note_on_c, 1, 73, 96
3, 324380, Note_off_c, 1, 81, 0
3, 324380, Note_off_c, 1, 73, 0
3, 324384, Note_on_c, 1, 74, 96
3, 324476, Note_off_c, 1, 74, 0
3, 324480, Note_on_c, 1, 76, 96
3, 324572, Note_off_c, 1, 76, 0
3, 324576, Note_on_c, 1, 74, 96
3, 324668, Note_off_c, 1, 74, 0
3, 324672, Note_on_c, 1, 82, 96
3, 324764, Note_off_c, 1, 82, 0
3, 324768, Note_on_c, 1, 74, 96
3, 324860, Note_off_c, 1, 74, 0
3, 324864, Note_on_c, 1, 83, 96
3, 324956, Note_off_c, 1, 83, 0
3, 324960, Note_on_c, 1, 74, 96
3, 325052, Note_off_c, 1, 74, 0
3, 325056, Note_on_c, 1, 73, 96
3, 325148, Note_off_c, 1, 73, 0
3, 325152, Note_on_c, 1, 74, 96
3, 325244, Note_off_c, 1, 74, 0
3, 325248, Note_on_c, 1, 86, 96
3, 325340, Note_off_c, 1, 86, 0
3, 325344, Note_on_c, 1, 74, 96
3, 325436, Note_off_c, 1, 74, 0
3, 325440, Note_on_c, 1, 73, 96
3, 325532, Note_off_c, 1, 73, 0
3, 325536, Note_on_c, 1, 74, 96
3, 325628, Note_off_c, 1, 74, 0
3, 325632, Note_on_c, 1, 69, 99
3, 326396, Note_off_c, 1, 69, 0
3, 410112, Note_on_c, 1, 86, 96
3, 410112, Note_on_c, 1, 81, 96
3, 410112, Note_on_c, 1, 78, 96
3, 410112, Note_on_c, 1, 74, 96
3, 410492, Note_off_c, 1, 86, 0
3, 410492, Note_off_c, 1, 81, 0
3, 410492, Note_off_c, 1, 78, 0
3, 410492, Note_off_c, 1, 74, 0
3, 410496, Note_on_c, 1, 62, 96
3, 410588, Note_off_c, 1, 62, 0
3, 410592, Note_on_c, 1, 60, 96
3, 410684, Note_off_c, 1, 60, 0
3, 410688, Note_on_c, 1, 59, 96
3, 410780, Note_off_c, 1, 59, 0
3, 410784, Note_on_c, 1, 60, 96
3, 410876, Note_off_c, 1, 60, 0
3, 410880, Note_on_c, 1, 62, 96
3, 410972, Note_off_c, 1, 62, 0
3, 410976, Note_on_c, 1, 60, 96
3, 411068, Note_off_c, 1, 60, 0
3, 411072, Note_on_c, 1, 59, 96
3, 411164, Note_off_c, 1, 59, 0
3, 411168, Note_on_c, 1, 60, 96
3, 411260, Note_off_c, 1, 60, 0
3, 411264, Note_on_c, 1, 62, 96
3, 411356, Note_off_c, 1, 62, 0
3, 411360, Note_on_c, 1, 60, 96
3, 411452, Note_off_c, 1, 60, 0
3, 411456, Note_on_c, 1, 59, 96
3, 411548, Note_off_c, 1, 59, 0
3, 411552, Note_on_c, 1, 60, 96
3, 411644, Note_off_c, 1, 60, 0
3, 411648, Note_on_c, 1, 59, 96
3, 412028, Note_off_c, 1, 59, 0
3, 412032, Note_on_c, 1, 75, 96
3, 412124, Note_off_c, 1, 75, 0
3, 412128, Note_on_c, 1, 76, 96
3, 412220, Note_off_c, 1, 76, 0
3, 412224, Note_on_c, 1, 79, 96
3, 412224, Note_on_c, 1, 76, 96
3, 412316, Note_off_c, 1, 79, 0
3, 412316, Note_off_c, 1, 76, 0
3, 412320, Note_on_c, 1, 79, 96
3, 412320, Note_on_c, 1, 83, 96
3, 412412, Note_off_c, 1, 79, 0
3, 412412, Note_off_c, 1, 83, 0
3, 412416, Note_on_c, 1, 79, 96
3, 412416, Note_on_c, 1, 83, 96
3, 412508, Note_off_c, 1, 79, 0
3, 412508, Note_off_c, 1, 83, 0
3, 412512, Note_on_c, 1, 81, 96
3, 412512, Note_on_c, 1, 78, 96
3, 412604, Note_off_c, 1, 81, 0
3, 412604, Note_off_c, 1, 78, 0
3, 412608, Note_on_c, 1, 79, 96
3, 412608, Note_on_c, 1, 76, 96
3, 412700, Note_off_c, 1, 79, 0
3, 412700, Note_off_c, 1, 76, 0
3, 412704, Note_on_c, 1, 78, 96
3, 412704, Note_on_c, 1, 74, 96
3, 412796, Note_off_c, 1, 78, 0
3, 412796, Note_off_c, 1, 74, 0
3, 412800, Note_on_c, 1, 81, 96
3, 412800, Note_on_c, 1, 78, 96
3, 412892, Note_off_c, 1, 81, 0
3, 412892, Note_off_c, 1, 78, 0
3, 412896, Note_on_c, 1, 79, 96
3, 412896, Note_on_c, 1, 76, 96
3, 412988, Note_off_c, 1, 79, 0
3, 412988, Note_off_c, 1, 76, 0
3, 412992, Note_on_c, 1, 78, 96
3, 412992, Note_on_c, 1, 74, 96
3, 413084, Note_off_c, 1, 78, 0
3, 413084, Note_off_c, 1, 74, 0
3, 413088, Note_on_c, 1, 76, 96
3, 413088, Note_on_c, 1, 73, 96
3, 413180, Note_off_c, 1, 76, 0
3, 413180, Note_off_c, 1, 73, 0
3, 413184, Note_on_c, 1, 74, 96
3, 413564, Note_off_c, 1, 74, 0
3, 413568, Note_on_c, 1, 62, 96
3, 413660, Note_off_c, 1, 62, 0
3, 413664, Note_on_c, 1, 60, 96
3, 413756, Note_off_c, 1, 60, 0
3, 413760, Note_on_c, 1, 59, 96
3, 413852, Note_off_c, 1, 59, 0
3, 413856, Note_on_c, 1, 60, 96
3, 413948, Note_off_c, 1, 60, 0
3, 413952, Note_on_c, 1, 62, 96
3, 414044, Note_off_c, 1, 62, 0
3, 414048, Note_on_c, 1, 60, 96
3, 414140, Note_off_c, 1, 60, 0
3, 414144, Note_on_c, 1, 59, 96
3, 414236, Note_off_c, 1, 59, 0
3, 414240, Note_on_c, 1, 60, 96
3, 414332, Note_off_c, 1, 60, 0
3, 414336, Note_on_c, 1, 62, 96
3, 414428, Note_off_c, 1, 62, 0
3, 414432, Note_on_c, 1, 60, 96
3, 414524, Note_off_c, 1, 60, 0
3, 414528, Note_on_c, 1, 59, 96
3, 414620, Note_off_c, 1, 59, 0
3, 414624, Note_on_c, 1, 60, 96
3, 414716, Note_off_c, 1, 60, 0
3, 414720, Note_on_c, 1, 59, 96
3, 415100, Note_off_c, 1, 59, 0
3, 415104, Note_on_c, 1, 75, 96
3, 415196, Note_off_c, 1, 75, 0
3, 415200, Note_on_c, 1, 76, 96
3, 415292, Note_off_c, 1, 76, 0
3, 415296, Note_on_c, 1, 83, 96
3, 415388, Note_off_c, 1, 83, 0
3, 415392, Note_on_c, 1, 86, 96
3, 415484, Note_off_c, 1, 86, 0
3, 415488, Note_on_c, 1, 86, 96
3, 415580, Note_off_c, 1, 86, 0
3, 415584, Note_on_c, 1, 85, 96
3, 415676, Note_off_c, 1, 85, 0
3, 415680, Note_on_c, 1, 83, 96
3, 415680, Note_on_c, 1, 79, 96
3, 415772, Note_off_c, 1, 83, 0
3, 415772, Note_off_c, 1, 79, 0
3, 415776, Note_on_c, 1, 81, 96
3, 415776, Note_on_c, 1, 78, 96
3, 415868, Note_off_c, 1, 81, 0
3, 415868, Note_off_c, 1, 78, 0
3, 415872, Note_on_c, 1, 81, 96
3, 415872, Note_on_c, 1, 78, 96
3, 415964, Note_off_c, 1, 81, 0
3, 415964, Note_off_c, 1, 78, 0
3, 415968, Note_on_c, 1, 79, 96
3, 415968, Note_on_c, 1, 76, 96
3, 416060, Note_off_c, 1, 79, 0
3, 416060, Note_off_c, 1, 76, 0
3, 416064, Note_on_c, 1, 78, 96
3, 416064, Note_on_c, 1, 74, 96
3, 416156, Note_off_c, 1, 78, 0
3, 416156, Note_off_c, 1, 74, 0
3, 416160, Note_on_c, 1, 76, 96
3, 416160, Note_on_c, 1, 73, 96
3, 416252, Note_off_c, 1, 76, 0
3, 416252, Note_off_c, 1, 73, 0
3, 416256, Note_on_c, 1, 74, 69
3, 416636, Note_off_c, 1, 74, 0
3, 416640, Note_on_c, 1, 66, 69
3, 416640, Note_on_c, 1, 57, 69
3, 416828, Note_off_c, 1, 66, 0
3, 416828, Note_off_c, 1, 57, 0
3, 416832, Note_on_c, 1, 66, 69
3, 416832, Note_on_c, 1, 57, 69
3, 417020, Note_off_c, 1, 66, 0
3, 417020, Note_off_c, 1, 57, 0
3, 417024, Note_on_c, 1, 66, 69
3, 417024, Note_on_c, 1, 57, 69
3, 417212, Note_off_c, 1, 66, 0
3, 417216, Note_on_c, 1, 67, 69
3, 417404, Note_off_c, 1, 67, 0
3, 417408, Note_on_c, 1, 64, 69
3, 417596, Note_off_c, 1, 64, 0
3, 417600, Note_on_c, 1, 61, 69
3, 417788, Note_off_c, 1, 57, 0
3, 417788, Note_off_c, 1, 61, 0
3, 417792, Note_on_c, 1, 62, 69
3, 417792, Note_on_c, 1, 57, 69
3, 417980, Note_off_c, 1, 62, 0
3, 417980, Note_off_c, 1, 57, 0
3, 417984, Note_on_c, 1, 66, 69
3, 418172, Note_off_c, 1, 66, 0
3, 418176, Note_on_c, 1, 69, 69
3, 418176, Note_on_c, 1, 57, 69
3, 418364, Note_off_c, 1, 69, 0
3, 418368, Note_on_c, 1, 66, 69
3, 418556, Note_off_c, 1, 66, 0
3, 418560, Note_on_c, 1, 66, 69
3, 418748, Note_off_c, 1, 66, 0
3, 418752, Note_on_c, 1, 67, 69
3, 418940, Note_off_c, 1, 57, 0
3, 418940, Note_off_c, 1, 67, 0
3, 418944, Note_on_c, 1, 64, 69
3, 418944, Note_on_c, 1, 57, 69
3, 419132, Note_off_c, 1, 64, 0
3, 419136, Note_on_c, 1, 61, 69
3, 419324, Note_off_c, 1, 57, 0
3, 419324, Note_off_c, 1, 61, 0
3, 419328, Note_on_c, 1, 62, 69
3, 419708, Note_off_c, 1, 62, 0
3, 419712, Note_on_c, 1, 78, 96
3, 419712, Note_on_c, 1, 69, 96
3, 419712, Note_on_c, 1, 66, 96
3, 419712, Note_on_c, 1, 62, 96
3, 419804, Note_off_c, 1, 78, 0
3, 419808, Note_on_c, 1, 74, 96
3, 419900, Note_off_c, 1, 74, 0
3, 419904, Note_on_c, 1, 78, 96
3, 419996, Note_off_c, 1, 78, 0
3, 420000, Note_on_c, 1, 74, 96
3, 420092, Note_off_c, 1, 69, 0
3, 420092, Note_off_c, 1, 66, 0
3, 420092, Note_off_c, 1, 62, 0
3, 420092, Note_off_c, 1, 74, 0
3, 420096, Note_on_c, 1, 81, 96
3, 420284, Note_off_c, 1, 81, 0
3, 420480, Note_on_c, 1, 81, 96
3, 420572, Note_off_c, 1, 81, 0
3, 420576, Note_on_c, 1, 78, 96
3, 420668, Note_off_c, 1, 78, 0
3, 420672, Note_on_c, 1, 81, 96
3, 420764, Note_off_c, 1, 81, 0
3, 420768, Note_on_c, 1, 78, 96
3, 420860, Note_off_c, 1, 78, 0
3, 420864, Note_on_c, 1, 86, 96
3, 421244, Note_off_c, 1, 86, 0
3, 421248, Note_on_c, 1, 62, 96
3, 421532, Note_off_c, 1, 62, 0
3, 421536, Note_on_c, 1, 62, 96
3, 421628, Note_off_c, 1, 62, 0
3, 421632, Note_on_c, 1, 62, 96
3, 422012, Note_off_c, 1, 62, 0
3, 422012, End_track
4, 0, Start_track
4, 0, Title_t, "Bob Fisher"
4, 0, Control_c, 2, 0, 0
4, 0, Program_c, 2, 48
4, 0, Control_c, 2, 10, 84
4, 0, Control_c, 2, 91, 63
4, 0, Control_c, 2, 93, 5
4, 0, Key_signature, 2, "major"
4, 0, Control_c, 2, 121, 0
4, 144, Control_c, 2, 10, 73
4, 192, Control_c, 2, 91, 73
4, 288, Program_c, 2, 48
4, 1536, Note_on_c, 2, 50, 93
4, 1536, Note_on_c, 2, 38, 93
4, 1912, Note_off_c, 2, 50, 0
4, 1912, Note_off_c, 2, 38, 0
4, 1920, Note_on_c, 2, 50, 93
4, 1920, Note_on_c, 2, 38, 93
4, 2200, Note_off_c, 2, 50, 0
4, 2200, Note_off_c, 2, 38, 0
4, 2208, Note_on_c, 2, 50, 93
4, 2208, Note_on_c, 2, 38, 93
4, 2296, Note_off_c, 2, 50, 0
4, 2296, Note_off_c, 2, 38, 0
4, 2304, Note_on_c, 2, 50, 93
4, 2304, Note_on_c, 2, 38, 93
4, 2680, Note_off_c, 2, 50, 0
4, 2680, Note_off_c, 2, 38, 0
4, 2688, Note_on_c, 2, 50, 93
4, 2688, Note_on_c, 2, 38, 93
4, 3064, Note_off_c, 2, 50, 0
4, 3064, Note_off_c, 2, 38, 0
4, 3072, Note_on_c, 2, 50, 93
4, 3072, Note_on_c, 2, 38, 93
4, 3448, Note_off_c, 2, 50, 0
4, 3448, Note_off_c, 2, 38, 0
4, 3648, Note_on_c, 2, 54, 93
4, 3648, Note_on_c, 2, 42, 93
4, 3740, Note_off_c, 2, 54, 0
4, 3740, Note_off_c, 2, 42, 0
4, 3840, Note_on_c, 2, 57, 93
4, 3840, Note_on_c, 2, 45, 93
4, 4216, Note_off_c, 2, 57, 0
4, 4216, Note_off_c, 2, 45, 0
4, 4416, Note_on_c, 2, 54, 93
4, 4416, Note_on_c, 2, 42, 93
4, 4508, Note_off_c, 2, 54, 0
4, 4508, Note_off_c, 2, 42, 0
4, 4608, Note_on_c, 2, 50, 93
4, 4608, Note_on_c, 2, 38, 93
4, 4700, Note_off_c, 2, 50, 0
4, 4700, Note_off_c, 2, 38, 0
4, 4800, Note_on_c, 2, 54, 93
4, 4800, Note_on_c, 2, 42, 93
4, 4892, Note_off_c, 2, 54, 0
4, 4892, Note_off_c, 2, 42, 0
4, 4992, Note_on_c, 2, 57, 93
4, 4992, Note_on_c, 2, 45, 93
4, 5084, Note_off_c, 2, 57, 0
4, 5084, Note_off_c, 2, 45, 0
4, 5184, Note_on_c, 2, 54, 93
4, 5184, Note_on_c, 2, 42, 93
4, 5276, Note_off_c, 2, 54, 0
4, 5276, Note_off_c, 2, 42, 0
4, 5376, Note_on_c, 2, 50, 93
4, 5376, Note_on_c, 2, 38, 93
4, 5468, Note_off_c, 2, 50, 0
4, 5468, Note_off_c, 2, 38, 0
4, 5568, Note_on_c, 2, 54, 93
4, 5568, Note_on_c, 2, 42, 93
4, 5660, Note_off_c, 2, 54, 0
4, 5660, Note_off_c, 2, 42, 0
4, 5760, Note_on_c, 2, 57, 93
4, 5760, Note_on_c, 2, 45, 93
4, 5852, Note_off_c, 2, 57, 0
4, 5852, Note_off_c, 2, 45, 0
4, 5952, Note_on_c, 2, 54, 93
4, 5952, Note_on_c, 2, 42, 93
4, 6044, Note_off_c, 2, 54, 0
4, 6044, Note_off_c, 2, 42, 0
4, 6144, Note_on_c, 2, 50, 93
4, 6144, Note_on_c, 2, 38, 93
4, 6236, Note_off_c, 2, 50, 0
4, 6236, Note_off_c, 2, 38, 0
4, 6336, Note_on_c, 2, 62, 93
4, 6428, Note_off_c, 2, 62, 0
4, 6528, Note_on_c, 2, 62, 93
4, 6620, Note_off_c, 2, 62, 0
4, 6720, Note_on_c, 2, 62, 93
4, 6812, Note_off_c, 2, 62, 0
4, 6912, Note_on_c, 2, 62, 93
4, 7004, Note_off_c, 2, 62, 0
4, 7104, Note_on_c, 2, 62, 93
4, 7196, Note_off_c, 2, 62, 0
4, 7296, Note_on_c, 2, 62, 69
4, 7388, Note_off_c, 2, 62, 0
4, 7488, Note_on_c, 2, 62, 69
4, 7580, Note_off_c, 2, 62, 0
4, 7680, Note_on_c, 2, 62, 69
4, 7772, Note_off_c, 2, 62, 0
4, 7872, Note_on_c, 2, 62, 69
4, 7964, Note_off_c, 2, 62, 0
4, 8064, Note_on_c, 2, 62, 69
4, 8156, Note_off_c, 2, 62, 0
4, 8256, Note_on_c, 2, 62, 69
4, 8348, Note_off_c, 2, 62, 0
4, 8448, Note_on_c, 2, 62, 69
4, 8540, Note_off_c, 2, 62, 0
4, 8640, Note_on_c, 2, 62, 69
4, 8732, Note_off_c, 2, 62, 0
4, 8832, Note_on_c, 2, 62, 69
4, 8924, Note_off_c, 2, 62, 0
4, 9024, Note_on_c, 2, 62, 69
4, 9116, Note_off_c, 2, 62, 0
4, 9216, Note_on_c, 2, 50, 93
4, 9308, Note_off_c, 2, 50, 0
4, 9408, Note_on_c, 2, 62, 93
4, 9500, Note_off_c, 2, 62, 0
4, 9600, Note_on_c, 2, 62, 93
4, 9692, Note_off_c, 2, 62, 0
4, 9792, Note_on_c, 2, 62, 93
4, 9884, Note_off_c, 2, 62, 0
4, 9984, Note_on_c, 2, 62, 93
4, 10076, Note_off_c, 2, 62, 0
4, 10176, Note_on_c, 2, 62, 93
4, 10268, Note_off_c, 2, 62, 0
4, 10368, Note_on_c, 2, 62, 69
4, 10460, Note_off_c, 2, 62, 0
4, 10560, Note_on_c, 2, 62, 69
4, 10652, Note_off_c, 2, 62, 0
4, 10752, Note_on_c, 2, 62, 69
4, 10844, Note_off_c, 2, 62, 0
4, 10944, Note_on_c, 2, 62, 69
4, 11036, Note_off_c, 2, 62, 0
4, 11136, Note_on_c, 2, 62, 69
4, 11228, Note_off_c, 2, 62, 0
4, 11328, Note_on_c, 2, 62, 69
4, 11420, Note_off_c, 2, 62, 0
4, 11520, Note_on_c, 2, 62, 69
4, 11612, Note_off_c, 2, 62, 0
4, 11712, Note_on_c, 2, 62, 69
4, 11804, Note_off_c, 2, 62, 0
4, 11904, Note_on_c, 2, 62, 69
4, 11996, Note_off_c, 2, 62, 0
4, 12096, Note_on_c, 2, 62, 69
4, 12188, Note_off_c, 2, 62, 0
4, 12288, Note_on_c, 2, 50, 93
4, 12380, Note_off_c, 2, 50, 0
4, 12480, Note_on_c, 2, 62, 93
4, 12572, Note_off_c, 2, 62, 0
4, 12672, Note_on_c, 2, 62, 93
4, 12764, Note_off_c, 2, 62, 0
4, 12864, Note_on_c, 2, 62, 93
4, 12956, Note_off_c, 2, 62, 0
4, 13056, Note_on_c, 2, 50, 93
4, 13148, Note_off_c, 2, 50, 0
4, 13248, Note_on_c, 2, 54, 93
4, 13340, Note_off_c, 2, 54, 0
4, 13440, Note_on_c, 2, 57, 93
4, 13532, Note_off_c, 2, 57, 0
4, 13632, Note_on_c, 2, 54, 93
4, 13724, Note_off_c, 2, 54, 0
4, 13824, Note_on_c, 2, 50, 93
4, 13916, Note_off_c, 2, 50, 0
4, 14016, Note_on_c, 2, 54, 93
4, 14108, Note_off_c, 2, 54, 0
4, 14208, Note_on_c, 2, 57, 93
4, 14300, Note_off_c, 2, 57, 0
4, 14400, Note_on_c, 2, 54, 93
4, 14492, Note_off_c, 2, 54, 0
4, 14592, Note_on_c, 2, 55, 93
4, 14684, Note_off_c, 2, 55, 0
4, 14784, Note_on_c, 2, 59, 93
4, 14876, Note_off_c, 2, 59, 0
4, 14976, Note_on_c, 2, 62, 93
4, 15068, Note_off_c, 2, 62, 0
4, 15168, Note_on_c, 2, 59, 93
4, 15260, Note_off_c, 2, 59, 0
4, 15360, Note_on_c, 2, 55, 93
4, 15452, Note_off_c, 2, 55, 0
4, 15552, Note_on_c, 2, 62, 93
4, 15644, Note_off_c, 2, 62, 0
4, 15744, Note_on_c, 2, 55, 93
4, 15836, Note_off_c, 2, 55, 0
4, 15936, Note_on_c, 2, 57, 93
4, 16028, Note_off_c, 2, 57, 0
4, 16128, Note_on_c, 2, 59, 69
4, 16220, Note_off_c, 2, 59, 0
4, 16512, Note_on_c, 2, 57, 69
4, 16604, Note_off_c, 2, 57, 0
4, 16896, Note_on_c, 2, 55, 69
4, 16988, Note_off_c, 2, 55, 0
4, 17280, Note_on_c, 2, 54, 69
4, 17372, Note_off_c, 2, 54, 0
4, 17664, Note_on_c, 2, 52, 69
4, 17756, Note_off_c, 2, 52, 0
4, 17856, Note_on_c, 2, 50, 69
4, 17948, Note_off_c, 2, 50, 0
4, 18048, Note_on_c, 2, 57, 69
4, 18140, Note_off_c, 2, 57, 0
4, 18240, Note_on_c, 2, 45, 69
4, 18332, Note_off_c, 2, 45, 0
4, 18432, Note_on_c, 2, 50, 69
4, 18812, Note_off_c, 2, 50, 0
4, 19200, Note_on_c, 2, 50, 93
4, 19292, Note_off_c, 2, 50, 0
4, 19392, Note_on_c, 2, 54, 93
4, 19484, Note_off_c, 2, 54, 0
4, 19584, Note_on_c, 2, 57, 93
4, 19676, Note_off_c, 2, 57, 0
4, 19776, Note_on_c, 2, 54, 93
4, 19868, Note_off_c, 2, 54, 0
4, 19968, Note_on_c, 2, 50, 93
4, 20060, Note_off_c, 2, 50, 0
4, 20160, Note_on_c, 2, 54, 93
4, 20252, Note_off_c, 2, 54, 0
4, 20352, Note_on_c, 2, 57, 93
4, 20444, Note_off_c, 2, 57, 0
4, 20544, Note_on_c, 2, 54, 93
4, 20636, Note_off_c, 2, 54, 0
4, 20736, Note_on_c, 2, 55, 93
4, 20828, Note_off_c, 2, 55, 0
4, 20928, Note_on_c, 2, 59, 93
4, 21020, Note_off_c, 2, 59, 0
4, 21120, Note_on_c, 2, 62, 93
4, 21212, Note_off_c, 2, 62, 0
4, 21312, Note_on_c, 2, 59, 93
4, 21404, Note_off_c, 2, 59, 0
4, 21504, Note_on_c, 2, 55, 93
4, 21596, Note_off_c, 2, 55, 0
4, 21696, Note_on_c, 2, 62, 93
4, 21788, Note_off_c, 2, 62, 0
4, 21888, Note_on_c, 2, 55, 93
4, 21980, Note_off_c, 2, 55, 0
4, 22080, Note_on_c, 2, 57, 93
4, 22172, Note_off_c, 2, 57, 0
4, 22272, Note_on_c, 2, 59, 69
4, 22364, Note_off_c, 2, 59, 0
4, 22656, Note_on_c, 2, 57, 69
4, 22748, Note_off_c, 2, 57, 0
4, 23040, Note_on_c, 2, 55, 69
4, 23132, Note_off_c, 2, 55, 0
4, 23424, Note_on_c, 2, 54, 69
4, 23516, Note_off_c, 2, 54, 0
4, 23808, Note_on_c, 2, 52, 69
4, 23900, Note_off_c, 2, 52, 0
4, 24192, Note_on_c, 2, 50, 69
4, 24284, Note_off_c, 2, 50, 0
4, 24576, Note_on_c, 2, 45, 69
4, 24952, Note_off_c, 2, 45, 0
4, 24960, Note_on_c, 2, 57, 93
4, 24960, Note_on_c, 2, 64, 93
4, 24960, Note_on_c, 2, 67, 93
4, 25240, Note_off_c, 2, 57, 0
4, 25240, Note_off_c, 2, 64, 0
4, 25240, Note_off_c, 2, 67, 0
4, 25248, Note_on_c, 2, 67, 93
4, 25248, Note_on_c, 2, 64, 93
4, 25248, Note_on_c, 2, 57, 93
4, 25336, Note_off_c, 2, 67, 0
4, 25336, Note_off_c, 2, 64, 0
4, 25336, Note_off_c, 2, 57, 0
4, 25344, Note_on_c, 2, 66, 93
4, 25344, Note_on_c, 2, 62, 93
4, 25344, Note_on_c, 2, 57, 93
4, 25720, Note_off_c, 2, 66, 0
4, 25720, Note_off_c, 2, 62, 0
4, 25720, Note_off_c, 2, 57, 0
4, 25728, Note_on_c, 2, 55, 104
4, 25820, Note_off_c, 2, 55, 0
4, 25824, Note_on_c, 2, 54, 93
4, 25916, Note_off_c, 2, 54, 0
4, 25920, Note_on_c, 2, 52, 93
4, 26012, Note_off_c, 2, 52, 0
4, 26016, Note_on_c, 2, 50, 93
4, 26108, Note_off_c, 2, 50, 0
4, 26112, Note_on_c, 2, 57, 104
4, 26488, Note_off_c, 2, 57, 0
4, 26496, Note_on_c, 2, 67, 93
4, 26496, Note_on_c, 2, 64, 93
4, 26496, Note_on_c, 2, 57, 93
4, 26776, Note_off_c, 2, 67, 0
4, 26776, Note_off_c, 2, 64, 0
4, 26776, Note_off_c, 2, 57, 0
4, 26784, Note_on_c, 2, 67, 104
4, 26784, Note_on_c, 2, 64, 104
4, 26784, Note_on_c, 2, 57, 104
4, 26872, Note_off_c, 2, 67, 0
4, 26872, Note_off_c, 2, 64, 0
4, 26872, Note_off_c, 2, 57, 0
4, 26880, Note_on_c, 2, 57, 93
4, 26880, Note_on_c, 2, 62, 93
4, 26880, Note_on_c, 2, 66, 93
4, 27256, Note_off_c, 2, 57, 0
4, 27256, Note_off_c, 2, 62, 0
4, 27256, Note_off_c, 2, 66, 0
4, 27264, Note_on_c, 2, 55, 104
4, 27356, Note_off_c, 2, 55, 0
4, 27360, Note_on_c, 2, 54, 93
4, 27452, Note_off_c, 2, 54, 0
4, 27456, Note_on_c, 2, 52, 93
4, 27548, Note_off_c, 2, 52, 0
4, 27552, Note_on_c, 2, 50, 93
4, 27644, Note_off_c, 2, 50, 0
4, 27648, Note_on_c, 2, 57, 104
4, 27832, Note_off_c, 2, 57, 0
4, 28032, Note_on_c, 2, 57, 104
4, 28032, Note_on_c, 2, 45, 104
4, 28216, Note_off_c, 2, 57, 0
4, 28216, Note_off_c, 2, 45, 0
4, 28608, Note_on_c, 2, 57, 69
4, 28800, Note_off_c, 2, 57, 0
4, 28800, Note_on_c, 2, 56, 69
4, 28984, Note_off_c, 2, 56, 0
4, 28992, Note_on_c, 2, 57, 69
4, 29176, Note_off_c, 2, 57, 0
4, 29184, Note_on_c, 2, 59, 69
4, 29368, Note_off_c, 2, 59, 0
4, 29376, Note_on_c, 2, 57, 69
4, 29560, Note_off_c, 2, 57, 0
4, 29568, Note_on_c, 2, 56, 69
4, 29752, Note_off_c, 2, 56, 0
4, 29760, Note_on_c, 2, 57, 69
4, 29932, Note_off_c, 2, 57, 0
4, 29952, Note_on_c, 2, 57, 69
4, 29952, Note_on_c, 2, 50, 69
4, 30328, Note_off_c, 2, 57, 0
4, 30328, Note_off_c, 2, 50, 0
4, 30336, Note_on_c, 2, 57, 69
4, 30336, Note_on_c, 2, 54, 69
4, 30712, Note_off_c, 2, 57, 0
4, 30712, Note_off_c, 2, 54, 0
4, 30720, Note_on_c, 2, 55, 93
4, 30720, Note_on_c, 2, 52, 93
4, 30904, Note_off_c, 2, 55, 0
4, 30904, Note_off_c, 2, 52, 0
4, 30912, Note_on_c, 2, 52, 93
4, 30912, Note_on_c, 2, 49, 93
4, 31096, Note_off_c, 2, 52, 0
4, 31096, Note_off_c, 2, 49, 0
4, 31104, Note_on_c, 2, 49, 93
4, 31104, Note_on_c, 2, 45, 93
4, 31480, Note_off_c, 2, 49, 0
4, 31480, Note_off_c, 2, 45, 0
4, 31488, Note_on_c, 2, 57, 69
4, 31488, Note_on_c, 2, 61, 69
4, 31864, Note_off_c, 2, 57, 0
4, 31864, Note_off_c, 2, 61, 0
4, 31872, Note_on_c, 2, 55, 69
4, 31872, Note_on_c, 2, 61, 69
4, 32248, Note_off_c, 2, 55, 0
4, 32248, Note_off_c, 2, 61, 0
4, 32256, Note_on_c, 2, 57, 69
4, 32256, Note_on_c, 2, 54, 69
4, 32632, Note_off_c, 2, 57, 0
4, 32632, Note_off_c, 2, 54, 0
4, 32640, Note_on_c, 2, 57, 69
4, 32640, Note_on_c, 2, 49, 69
4, 33016, Note_off_c, 2, 57, 0
4, 33016, Note_off_c, 2, 49, 0
4, 33024, Note_on_c, 2, 57, 69
4, 33024, Note_on_c, 2, 50, 69
4, 33400, Note_off_c, 2, 57, 0
4, 33400, Note_off_c, 2, 50, 0
4, 33408, Note_on_c, 2, 55, 69
4, 33408, Note_on_c, 2, 43, 69
4, 33784, Note_off_c, 2, 55, 0
4, 33784, Note_off_c, 2, 43, 0
4, 33984, Note_on_c, 2, 44, 69
4, 34176, Note_off_c, 2, 44, 0
4, 34176, Note_on_c, 2, 45, 69
4, 34360, Note_off_c, 2, 45, 0
4, 34368, Note_on_c, 2, 44, 69
4, 34540, Note_off_c, 2, 44, 0
4, 34560, Note_on_c, 2, 45, 69
4, 34936, Note_off_c, 2, 45, 0
4, 34944, Note_on_c, 2, 55, 69
4, 34944, Note_on_c, 2, 52, 69
4, 34944, Note_on_c, 2, 49, 69
4, 35320, Note_off_c, 2, 55, 0
4, 35320, Note_off_c, 2, 52, 0
4, 35320, Note_off_c, 2, 49, 0
4, 35712, Note_on_c, 2, 54, 69
4, 35712, Note_on_c, 2, 50, 69
4, 36088, Note_off_c, 2, 54, 0
4, 36088, Note_off_c, 2, 50, 0
4, 36480, Note_on_c, 2, 57, 69
4, 36480, Note_on_c, 2, 54, 69
4, 36856, Note_off_c, 2, 57, 0
4, 36856, Note_off_c, 2, 54, 0
4, 36864, Note_on_c, 2, 55, 93
4, 36864, Note_on_c, 2, 52, 93
4, 37048, Note_off_c, 2, 55, 0
4, 37048, Note_off_c, 2, 52, 0
4, 37056, Note_on_c, 2, 52, 93
4, 37056, Note_on_c, 2, 49, 93
4, 37240, Note_off_c, 2, 52, 0
4, 37240, Note_off_c, 2, 49, 0
4, 37248, Note_on_c, 2, 49, 93
4, 37248, Note_on_c, 2, 45, 93
4, 37624, Note_off_c, 2, 49, 0
4, 37624, Note_off_c, 2, 45, 0
4, 37632, Note_on_c, 2, 57, 69
4, 37632, Note_on_c, 2, 61, 69
4, 38008, Note_off_c, 2, 57, 0
4, 38008, Note_off_c, 2, 61, 0
4, 38016, Note_on_c, 2, 55, 69
4, 38016, Note_on_c, 2, 61, 69
4, 38392, Note_off_c, 2, 55, 0
4, 38392, Note_off_c, 2, 61, 0
4, 38400, Note_on_c, 2, 54, 69
4, 38776, Note_off_c, 2, 54, 0
4, 38784, Note_on_c, 2, 55, 69
4, 38976, Note_off_c, 2, 55, 0
4, 38976, Note_on_c, 2, 56, 69
4, 39148, Note_off_c, 2, 56, 0
4, 39168, Note_on_c, 2, 57, 69
4, 39544, Note_off_c, 2, 57, 0
4, 39552, Note_on_c, 2, 55, 69
4, 39552, Note_on_c, 2, 45, 69
4, 39928, Note_off_c, 2, 55, 0
4, 39928, Note_off_c, 2, 45, 0
4, 39936, Note_on_c, 2, 54, 69
4, 39936, Note_on_c, 2, 50, 69
4, 40124, Note_off_c, 2, 54, 0
4, 40124, Note_off_c, 2, 50, 0
4, 40128, Note_on_c, 2, 66, 69
4, 40224, Note_off_c, 2, 66, 0
4, 40224, Note_on_c, 2, 67, 69
4, 40304, Note_off_c, 2, 67, 0
4, 40320, Note_on_c, 2, 64, 69
4, 40412, Note_off_c, 2, 64, 0
4, 40512, Note_on_c, 2, 64, 69
4, 40608, Note_off_c, 2, 64, 0
4, 40608, Note_on_c, 2, 66, 69
4, 40688, Note_off_c, 2, 66, 0
4, 40704, Note_on_c, 2, 62, 69
4, 40796, Note_off_c, 2, 62, 0
4, 40896, Note_on_c, 2, 62, 69
4, 40992, Note_off_c, 2, 62, 0
4, 40992, Note_on_c, 2, 64, 69
4, 41072, Note_off_c, 2, 64, 0
4, 41088, Note_on_c, 2, 61, 69
4, 41132, Note_off_c, 2, 61, 0
4, 41184, Note_on_c, 2, 62, 69
4, 41228, Note_off_c, 2, 62, 0
4, 41280, Note_on_c, 2, 64, 69
4, 41324, Note_off_c, 2, 64, 0
4, 41376, Note_on_c, 2, 61, 69
4, 41420, Note_off_c, 2, 61, 0
4, 41472, Note_on_c, 2, 62, 69
4, 41564, Note_off_c, 2, 62, 0
4, 41664, Note_on_c, 2, 57, 69
4, 41760, Note_off_c, 2, 57, 0
4, 41760, Note_on_c, 2, 59, 69
4, 41840, Note_off_c, 2, 59, 0
4, 41856, Note_on_c, 2, 55, 69
4, 41948, Note_off_c, 2, 55, 0
4, 42048, Note_on_c, 2, 55, 69
4, 42144, Note_off_c, 2, 55, 0
4, 42144, Note_on_c, 2, 57, 69
4, 42224, Note_off_c, 2, 57, 0
4, 42240, Note_on_c, 2, 54, 69
4, 42332, Note_off_c, 2, 54, 0
4, 42432, Note_on_c, 2, 54, 69
4, 42524, Note_off_c, 2, 54, 0
4, 42528, Note_on_c, 2, 55, 69
4, 42620, Note_off_c, 2, 55, 0
4, 42624, Note_on_c, 2, 52, 69
4, 42668, Note_off_c, 2, 52, 0
4, 42720, Note_on_c, 2, 54, 69
4, 42764, Note_off_c, 2, 54, 0
4, 42816, Note_on_c, 2, 55, 69
4, 42860, Note_off_c, 2, 55, 0
4, 42912, Note_on_c, 2, 52, 69
4, 42956, Note_off_c, 2, 52, 0
4, 43008, Note_on_c, 2, 54, 69
4, 43100, Note_off_c, 2, 54, 0
4, 43200, Note_on_c, 2, 66, 69
4, 43296, Note_off_c, 2, 66, 0
4, 43296, Note_on_c, 2, 67, 69
4, 43376, Note_off_c, 2, 67, 0
4, 43392, Note_on_c, 2, 64, 69
4, 43484, Note_off_c, 2, 64, 0
4, 43584, Note_on_c, 2, 64, 69
4, 43680, Note_off_c, 2, 64, 0
4, 43680, Note_on_c, 2, 66, 69
4, 43760, Note_off_c, 2, 66, 0
4, 43776, Note_on_c, 2, 62, 69
4, 43868, Note_off_c, 2, 62, 0
4, 43968, Note_on_c, 2, 62, 69
4, 44064, Note_off_c, 2, 62, 0
4, 44064, Note_on_c, 2, 64, 69
4, 44144, Note_off_c, 2, 64, 0
4, 44160, Note_on_c, 2, 61, 69
4, 44204, Note_off_c, 2, 61, 0
4, 44256, Note_on_c, 2, 62, 69
4, 44300, Note_off_c, 2, 62, 0
4, 44352, Note_on_c, 2, 64, 69
4, 44396, Note_off_c, 2, 64, 0
4, 44448, Note_on_c, 2, 61, 69
4, 44492, Note_off_c, 2, 61, 0
4, 44544, Note_on_c, 2, 62, 69
4, 44636, Note_off_c, 2, 62, 0
4, 44736, Note_on_c, 2, 57, 69
4, 44832, Note_off_c, 2, 57, 0
4, 44832, Note_on_c, 2, 59, 69
4, 44912, Note_off_c, 2, 59, 0
4, 44928, Note_on_c, 2, 55, 69
4, 45020, Note_off_c, 2, 55, 0
4, 45120, Note_on_c, 2, 55, 69
4, 45216, Note_off_c, 2, 55, 0
4, 45216, Note_on_c, 2, 57, 69
4, 45296, Note_off_c, 2, 57, 0
4, 45312, Note_on_c, 2, 54, 69
4, 45404, Note_off_c, 2, 54, 0
4, 45504, Note_on_c, 2, 54, 69
4, 45600, Note_off_c, 2, 54, 0
4, 45600, Note_on_c, 2, 55, 69
4, 45680, Note_off_c, 2, 55, 0
4, 45696, Note_on_c, 2, 52, 69
4, 45788, Note_off_c, 2, 52, 0
4, 45792, Note_on_c, 2, 54, 69
4, 45884, Note_off_c, 2, 54, 0
4, 45888, Note_on_c, 2, 55, 69
4, 45980, Note_off_c, 2, 55, 0
4, 45984, Note_on_c, 2, 52, 69
4, 46076, Note_off_c, 2, 52, 0
4, 46080, Note_on_c, 2, 54, 69
4, 46456, Note_off_c, 2, 54, 0
4, 46848, Note_on_c, 2, 50, 93
4, 47032, Note_off_c, 2, 50, 0
4, 47040, Note_on_c, 2, 62, 93
4, 47224, Note_off_c, 2, 62, 0
4, 47232, Note_on_c, 2, 59, 93
4, 47416, Note_off_c, 2, 59, 0
4, 47424, Note_on_c, 2, 56, 93
4, 47608, Note_off_c, 2, 56, 0
4, 47616, Note_on_c, 2, 57, 93
4, 47992, Note_off_c, 2, 57, 0
4, 49152, Note_on_c, 2, 51, 69
4, 49912, Note_off_c, 2, 51, 0
4, 49920, Note_on_c, 2, 52, 69
4, 50304, Note_off_c, 2, 52, 0
4, 50304, Note_on_c, 2, 49, 69
4, 50672, Note_off_c, 2, 49, 0
4, 50688, Note_on_c, 2, 50, 69
4, 51072, Note_off_c, 2, 50, 0
4, 51072, Note_on_c, 2, 43, 69
4, 51440, Note_off_c, 2, 43, 0
4, 51456, Note_on_c, 2, 45, 69
4, 51836, Note_off_c, 2, 45, 0
4, 51840, Note_on_c, 2, 45, 69
4, 52220, Note_off_c, 2, 45, 0
4, 52224, Note_on_c, 2, 38, 93
4, 52316, Note_off_c, 2, 38, 0
4, 52320, Note_on_c, 2, 50, 93
4, 52412, Note_off_c, 2, 50, 0
4, 52416, Note_on_c, 2, 42, 93
4, 52508, Note_off_c, 2, 42, 0
4, 52512, Note_on_c, 2, 50, 93
4, 52604, Note_off_c, 2, 50, 0
4, 52608, Note_on_c, 2, 45, 93
4, 52700, Note_off_c, 2, 45, 0
4, 52704, Note_on_c, 2, 50, 93
4, 52796, Note_off_c, 2, 50, 0
4, 52800, Note_on_c, 2, 42, 93
4, 52892, Note_off_c, 2, 42, 0
4, 52896, Note_on_c, 2, 50, 93
4, 52988, Note_off_c, 2, 50, 0
4, 52992, Note_on_c, 2, 38, 93
4, 53084, Note_off_c, 2, 38, 0
4, 53088, Note_on_c, 2, 50, 93
4, 53180, Note_off_c, 2, 50, 0
4, 53184, Note_on_c, 2, 42, 93
4, 53276, Note_off_c, 2, 42, 0
4, 53280, Note_on_c, 2, 50, 93
4, 53372, Note_off_c, 2, 50, 0
4, 53376, Note_on_c, 2, 45, 93
4, 53468, Note_off_c, 2, 45, 0
4, 53472, Note_on_c, 2, 50, 93
4, 53564, Note_off_c, 2, 50, 0
4, 53568, Note_on_c, 2, 38, 93
4, 53660, Note_off_c, 2, 38, 0
4, 53664, Note_on_c, 2, 50, 93
4, 53756, Note_off_c, 2, 50, 0
4, 53760, Note_on_c, 2, 43, 93
4, 53852, Note_off_c, 2, 43, 0
4, 53856, Note_on_c, 2, 50, 93
4, 53948, Note_off_c, 2, 50, 0
4, 53952, Note_on_c, 2, 47, 93
4, 54044, Note_off_c, 2, 47, 0
4, 54048, Note_on_c, 2, 50, 93
4, 54140, Note_off_c, 2, 50, 0
4, 54144, Note_on_c, 2, 43, 93
4, 54236, Note_off_c, 2, 43, 0
4, 54240, Note_on_c, 2, 52, 93
4, 54332, Note_off_c, 2, 52, 0
4, 54336, Note_on_c, 2, 50, 93
4, 54428, Note_off_c, 2, 50, 0
4, 54432, Note_on_c, 2, 52, 93
4, 54524, Note_off_c, 2, 52, 0
4, 54528, Note_on_c, 2, 45, 93
4, 54620, Note_off_c, 2, 45, 0
4, 54624, Note_on_c, 2, 54, 93
4, 54716, Note_off_c, 2, 54, 0
4, 54720, Note_on_c, 2, 50, 93
4, 54812, Note_off_c, 2, 50, 0
4, 54816, Note_on_c, 2, 54, 93
4, 54908, Note_off_c, 2, 54, 0
4, 54912, Note_on_c, 2, 45, 93
4, 55004, Note_off_c, 2, 45, 0
4, 55008, Note_on_c, 2, 52, 93
4, 55100, Note_off_c, 2, 52, 0
4, 55104, Note_on_c, 2, 49, 93
4, 55196, Note_off_c, 2, 49, 0
4, 55200, Note_on_c, 2, 52, 93
4, 55292, Note_off_c, 2, 52, 0
4, 55296, Note_on_c, 2, 38, 93
4, 55388, Note_off_c, 2, 38, 0
4, 55392, Note_on_c, 2, 50, 93
4, 55484, Note_off_c, 2, 50, 0
4, 55488, Note_on_c, 2, 42, 93
4, 55580, Note_off_c, 2, 42, 0
4, 55584, Note_on_c, 2, 50, 93
4, 55676, Note_off_c, 2, 50, 0
4, 55680, Note_on_c, 2, 45, 93
4, 55772, Note_off_c, 2, 45, 0
4, 55776, Note_on_c, 2, 50, 93
4, 55868, Note_off_c, 2, 50, 0
4, 55872, Note_on_c, 2, 42, 93
4, 55964, Note_off_c, 2, 42, 0
4, 55968, Note_on_c, 2, 50, 93
4, 56060, Note_off_c, 2, 50, 0
4, 56064, Note_on_c, 2, 38, 93
4, 56156, Note_off_c, 2, 38, 0
4, 56160, Note_on_c, 2, 50, 93
4, 56252, Note_off_c, 2, 50, 0
4, 56256, Note_on_c, 2, 42, 93
4, 56348, Note_off_c, 2, 42, 0
4, 56352, Note_on_c, 2, 50, 93
4, 56444, Note_off_c, 2, 50, 0
4, 56448, Note_on_c, 2, 45, 93
4, 56540, Note_off_c, 2, 45, 0
4, 56544, Note_on_c, 2, 50, 93
4, 56636, Note_off_c, 2, 50, 0
4, 56640, Note_on_c, 2, 38, 93
4, 56732, Note_off_c, 2, 38, 0
4, 56736, Note_on_c, 2, 50, 93
4, 56828, Note_off_c, 2, 50, 0
4, 56832, Note_on_c, 2, 43, 93
4, 56924, Note_off_c, 2, 43, 0
4, 56928, Note_on_c, 2, 50, 93
4, 57020, Note_off_c, 2, 50, 0
4, 57024, Note_on_c, 2, 47, 93
4, 57116, Note_off_c, 2, 47, 0
4, 57120, Note_on_c, 2, 50, 93
4, 57212, Note_off_c, 2, 50, 0
4, 57216, Note_on_c, 2, 44, 93
4, 57308, Note_off_c, 2, 44, 0
4, 57312, Note_on_c, 2, 52, 93
4, 57404, Note_off_c, 2, 52, 0
4, 57408, Note_on_c, 2, 50, 93
4, 57500, Note_off_c, 2, 50, 0
4, 57504, Note_on_c, 2, 52, 93
4, 57596, Note_off_c, 2, 52, 0
4, 57600, Note_on_c, 2, 45, 93
4, 57692, Note_off_c, 2, 45, 0
4, 57696, Note_on_c, 2, 52, 93
4, 57788, Note_off_c, 2, 52, 0
4, 57792, Note_on_c, 2, 49, 93
4, 57884, Note_off_c, 2, 49, 0
4, 57888, Note_on_c, 2, 52, 93
4, 57980, Note_off_c, 2, 52, 0
4, 57984, Note_on_c, 2, 45, 93
4, 58076, Note_off_c, 2, 45, 0
4, 58080, Note_on_c, 2, 57, 93
4, 58172, Note_off_c, 2, 57, 0
4, 58176, Note_on_c, 2, 45, 93
4, 58268, Note_off_c, 2, 45, 0
4, 58272, Note_on_c, 2, 55, 93
4, 58364, Note_off_c, 2, 55, 0
4, 58368, Note_on_c, 2, 54, 93
4, 58368, Note_on_c, 2, 50, 93
4, 58748, Note_off_c, 2, 54, 0
4, 58748, Note_off_c, 2, 50, 0
4, 58752, Note_on_c, 2, 50, 69
4, 58844, Note_off_c, 2, 50, 0
4, 58944, Note_on_c, 2, 50, 69
4, 59036, Note_off_c, 2, 50, 0
4, 59136, Note_on_c, 2, 50, 69
4, 59136, Note_on_c, 2, 45, 69
4, 59328, Note_off_c, 2, 50, 0
4, 59328, Note_on_c, 2, 49, 69
4, 59500, Note_off_c, 2, 49, 0
4, 59516, Note_off_c, 2, 45, 0
4, 59520, Note_on_c, 2, 52, 69
4, 59712, Note_off_c, 2, 52, 0
4, 59712, Note_on_c, 2, 55, 69
4, 59884, Note_off_c, 2, 55, 0
4, 59904, Note_on_c, 2, 54, 69
4, 59904, Note_on_c, 2, 50, 69
4, 60096, Note_off_c, 2, 54, 0
4, 60096, Note_on_c, 2, 57, 69
4, 60276, Note_off_c, 2, 57, 0
4, 60284, Note_off_c, 2, 50, 0
4, 60288, Note_on_c, 2, 54, 69
4, 60380, Note_off_c, 2, 54, 0
4, 60480, Note_on_c, 2, 50, 69
4, 60572, Note_off_c, 2, 50, 0
4, 60672, Note_on_c, 2, 50, 69
4, 60672, Note_on_c, 2, 45, 69
4, 60864, Note_off_c, 2, 50, 0
4, 60864, Note_on_c, 2, 49, 69
4, 61036, Note_off_c, 2, 49, 0
4, 61052, Note_off_c, 2, 45, 0
4, 61056, Note_on_c, 2, 52, 69
4, 61248, Note_off_c, 2, 52, 0
4, 61248, Note_on_c, 2, 55, 69
4, 61420, Note_off_c, 2, 55, 0
4, 61440, Note_on_c, 2, 54, 69
4, 61440, Note_on_c, 2, 50, 69
4, 61820, Note_off_c, 2, 54, 0
4, 61820, Note_off_c, 2, 50, 0
4, 61824, Note_on_c, 2, 62, 93
4, 61824, Note_on_c, 2, 66, 93
4, 61824, Note_on_c, 2, 69, 93
4, 62204, Note_off_c, 2, 62, 0
4, 62204, Note_off_c, 2, 66, 0
4, 62204, Note_off_c, 2, 69, 0
4, 62208, Note_on_c, 2, 62, 93
4, 62208, Note_on_c, 2, 57, 93
4, 62208, Note_on_c, 2, 54, 93
4, 62588, Note_off_c, 2, 62, 0
4, 62588, Note_off_c, 2, 57, 0
4, 62588, Note_off_c, 2, 54, 0
4, 62592, Note_on_c, 2, 66, 93
4, 62592, Note_on_c, 2, 62, 93
4, 62592, Note_on_c, 2, 57, 93
4, 62972, Note_off_c, 2, 66, 0
4, 62972, Note_off_c, 2, 62, 0
4, 62972, Note_off_c, 2, 57, 0
4, 62976, Note_on_c, 2, 62, 93
4, 62976, Note_on_c, 2, 57, 93
4, 62976, Note_on_c, 2, 54, 93
4, 62976, Note_on_c, 2, 50, 93
4, 63356, Note_off_c, 2, 62, 0
4, 63356, Note_off_c, 2, 57, 0
4, 63356, Note_off_c, 2, 54, 0
4, 63356, Note_off_c, 2, 50, 0
4, 63360, Note_on_c, 2, 50, 93
4, 63360, Note_on_c, 2, 38, 93
4, 63644, Note_off_c, 2, 50, 0
4, 63644, Note_off_c, 2, 38, 0
4, 63648, Note_on_c, 2, 50, 104
4, 63648, Note_on_c, 2, 38, 104
4, 63740, Note_off_c, 2, 50, 0
4, 63740, Note_off_c, 2, 38, 0
4, 63744, Note_on_c, 2, 50, 93
4, 63744, Note_on_c, 2, 38, 93
4, 64124, Note_off_c, 2, 50, 0
4, 64124, Note_off_c, 2, 38, 0
4, 64512, Note_on_c, 2, 62, 81
4, 64700, Note_off_c, 2, 62, 0
4, 64896, Note_on_c, 2, 67, 81
4, 65280, Note_off_c, 2, 67, 0
4, 65280, Note_on_c, 2, 66, 81
4, 65660, Note_off_c, 2, 66, 0
4, 65664, Note_on_c, 2, 64, 81
4, 66032, Note_off_c, 2, 64, 0
4, 66048, Note_on_c, 2, 62, 81
4, 66140, Note_off_c, 2, 62, 0
4, 66240, Note_on_c, 2, 62, 81
4, 66332, Note_off_c, 2, 62, 0
4, 66432, Note_on_c, 2, 62, 81
4, 66816, Note_off_c, 2, 62, 0
4, 67008, Note_on_c, 2, 62, 81
4, 67100, Note_off_c, 2, 62, 0
4, 67200, Note_on_c, 2, 62, 81
4, 67584, Note_off_c, 2, 62, 0
4, 67584, Note_on_c, 2, 62, 81
4, 67676, Note_off_c, 2, 62, 0
4, 67968, Note_on_c, 2, 62, 81
4, 68060, Note_off_c, 2, 62, 0
4, 68352, Note_on_c, 2, 62, 81
4, 68444, Note_off_c, 2, 62, 0
4, 68736, Note_on_c, 2, 62, 81
4, 68828, Note_off_c, 2, 62, 0
4, 69120, Note_on_c, 2, 50, 81
4, 69308, Note_off_c, 2, 50, 0
4, 69312, Note_on_c, 2, 62, 69
4, 69500, Note_off_c, 2, 62, 0
4, 69504, Note_on_c, 2, 62, 69
4, 69692, Note_off_c, 2, 62, 0
4, 69696, Note_on_c, 2, 62, 69
4, 69884, Note_off_c, 2, 62, 0
4, 69888, Note_on_c, 2, 62, 69
4, 70076, Note_off_c, 2, 62, 0
4, 70080, Note_on_c, 2, 62, 69
4, 70268, Note_off_c, 2, 62, 0
4, 70272, Note_on_c, 2, 62, 69
4, 70460, Note_off_c, 2, 62, 0
4, 70464, Note_on_c, 2, 62, 69
4, 70652, Note_off_c, 2, 62, 0
4, 70656, Note_on_c, 2, 62, 69
4, 70844, Note_off_c, 2, 62, 0
4, 70848, Note_on_c, 2, 62, 69
4, 71036, Note_off_c, 2, 62, 0
4, 71040, Note_on_c, 2, 62, 72
4, 71228, Note_off_c, 2, 62, 0
4, 71232, Note_on_c, 2, 62, 74
4, 71420, Note_off_c, 2, 62, 0
4, 71424, Note_on_c, 2, 62, 78
4, 71612, Note_off_c, 2, 62, 0
4, 71616, Note_on_c, 2, 62, 81
4, 71804, Note_off_c, 2, 62, 0
4, 71808, Note_on_c, 2, 62, 84
4, 71996, Note_off_c, 2, 62, 0
4, 72000, Note_on_c, 2, 62, 89
4, 72188, Note_off_c, 2, 62, 0
4, 72192, Note_on_c, 2, 62, 89
4, 72380, Note_off_c, 2, 62, 0
4, 72384, Note_on_c, 2, 62, 84
4, 72572, Note_off_c, 2, 62, 0
4, 72576, Note_on_c, 2, 62, 79
4, 72764, Note_off_c, 2, 62, 0
4, 72768, Note_on_c, 2, 62, 74
4, 72956, Note_off_c, 2, 62, 0
4, 72960, Note_on_c, 2, 50, 69
4, 73148, Note_off_c, 2, 50, 0
4, 73152, Note_on_c, 2, 50, 69
4, 73340, Note_off_c, 2, 50, 0
4, 73344, Note_on_c, 2, 50, 69
4, 73532, Note_off_c, 2, 50, 0
4, 73536, Note_on_c, 2, 50, 69
4, 73724, Note_off_c, 2, 50, 0
4, 73728, Note_on_c, 2, 50, 69
4, 73916, Note_off_c, 2, 50, 0
4, 73920, Note_on_c, 2, 50, 69
4, 74108, Note_off_c, 2, 50, 0
4, 74112, Note_on_c, 2, 50, 71
4, 74300, Note_off_c, 2, 50, 0
4, 74304, Note_on_c, 2, 50, 75
4, 74492, Note_off_c, 2, 50, 0
4, 74496, Note_on_c, 2, 50, 80
4, 74684, Note_off_c, 2, 50, 0
4, 74688, Note_on_c, 2, 50, 84
4, 74876, Note_off_c, 2, 50, 0
4, 74880, Note_on_c, 2, 50, 89
4, 75068, Note_off_c, 2, 50, 0
4, 75072, Note_on_c, 2, 50, 93
4, 75260, Note_off_c, 2, 50, 0
4, 75264, Note_on_c, 2, 50, 93
4, 75452, Note_off_c, 2, 50, 0
4, 75456, Note_on_c, 2, 50, 88
4, 75644, Note_off_c, 2, 50, 0
4, 75648, Note_on_c, 2, 50, 82
4, 75836, Note_off_c, 2, 50, 0
4, 75840, Note_on_c, 2, 50, 77
4, 76028, Note_off_c, 2, 50, 0
4, 76032, Note_on_c, 2, 50, 71
4, 76412, Note_off_c, 2, 50, 0
4, 76416, Note_on_c, 2, 57, 69
4, 76604, Note_off_c, 2, 57, 0
4, 76608, Note_on_c, 2, 57, 69
4, 76796, Note_off_c, 2, 57, 0
4, 76800, Note_on_c, 2, 56, 69
4, 76988, Note_off_c, 2, 56, 0
4, 76992, Note_on_c, 2, 57, 69
4, 77180, Note_off_c, 2, 57, 0
4, 77184, Note_on_c, 2, 57, 69
4, 77564, Note_off_c, 2, 57, 0
4, 78336, Note_on_c, 2, 57, 69
4, 78524, Note_off_c, 2, 57, 0
4, 78528, Note_on_c, 2, 59, 69
4, 78716, Note_off_c, 2, 59, 0
4, 78720, Note_on_c, 2, 59, 69
4, 79100, Note_off_c, 2, 59, 0
4, 79104, Note_on_c, 2, 43, 69
4, 79484, Note_off_c, 2, 43, 0
4, 79488, Note_on_c, 2, 55, 69
4, 79868, Note_off_c, 2, 55, 0
4, 79872, Note_on_c, 2, 54, 69
4, 80060, Note_off_c, 2, 54, 0
4, 80256, Note_on_c, 2, 52, 69
4, 80444, Note_off_c, 2, 52, 0
4, 80640, Note_on_c, 2, 50, 69
4, 80828, Note_off_c, 2, 50, 0
4, 81408, Note_on_c, 2, 62, 74
4, 81596, Note_off_c, 2, 62, 0
4, 82176, Note_on_c, 2, 62, 77
4, 82364, Note_off_c, 2, 62, 0
4, 82560, Note_on_c, 2, 62, 79
4, 82748, Note_off_c, 2, 62, 0
4, 82944, Note_on_c, 2, 62, 81
4, 83516, Note_off_c, 2, 62, 0
4, 84480, Note_on_c, 2, 45, 81
4, 84860, Note_off_c, 2, 45, 0
4, 85248, Note_on_c, 2, 45, 81
4, 85628, Note_off_c, 2, 45, 0
4, 86016, Note_on_c, 2, 50, 81
4, 86396, Note_off_c, 2, 50, 0
4, 86784, Note_on_c, 2, 62, 93
4, 86784, Note_on_c, 2, 57, 93
4, 86784, Note_on_c, 2, 54, 93
4, 87164, Note_off_c, 2, 62, 0
4, 87164, Note_off_c, 2, 57, 0
4, 87164, Note_off_c, 2, 54, 0
4, 87168, Note_on_c, 2, 66, 93
4, 87168, Note_on_c, 2, 62, 93
4, 87168, Note_on_c, 2, 57, 93
4, 87548, Note_off_c, 2, 66, 0
4, 87548, Note_off_c, 2, 62, 0
4, 87548, Note_off_c, 2, 57, 0
4, 87552, Note_on_c, 2, 62, 93
4, 87552, Note_on_c, 2, 57, 93
4, 87552, Note_on_c, 2, 54, 93
4, 87552, Note_on_c, 2, 50, 93
4, 87932, Note_off_c, 2, 62, 0
4, 87932, Note_off_c, 2, 57, 0
4, 87932, Note_off_c, 2, 54, 0
4, 87932, Note_off_c, 2, 50, 0
4, 87936, Note_on_c, 2, 50, 93
4, 87936, Note_on_c, 2, 38, 93
4, 88220, Note_off_c, 2, 50, 0
4, 88220, Note_off_c, 2, 38, 0
4, 88224, Note_on_c, 2, 50, 93
4, 88224, Note_on_c, 2, 38, 93
4, 88316, Note_off_c, 2, 50, 0
4, 88316, Note_off_c, 2, 38, 0
4, 88320, Note_on_c, 2, 50, 93
4, 88320, Note_on_c, 2, 38, 93
4, 88700, Note_off_c, 2, 50, 0
4, 88700, Note_off_c, 2, 38, 0
4, 89088, Note_on_c, 2, 50, 69
4, 89468, Note_off_c, 2, 50, 0
4, 89856, Note_on_c, 2, 50, 69
4, 90236, Note_off_c, 2, 50, 0
4, 90816, Note_on_c, 2, 57, 69
4, 91004, Note_off_c, 2, 57, 0
4, 91008, Note_on_c, 2, 52, 69
4, 91196, Note_off_c, 2, 52, 0
4, 91200, Note_on_c, 2, 49, 69
4, 91388, Note_off_c, 2, 49, 0
4, 91392, Note_on_c, 2, 45, 69
4, 91772, Note_off_c, 2, 45, 0
4, 92160, Note_on_c, 2, 45, 69
4, 92540, Note_off_c, 2, 45, 0
4, 92928, Note_on_c, 2, 45, 69
4, 93308, Note_off_c, 2, 45, 0
4, 94080, Note_on_c, 2, 54, 93
4, 94080, Note_on_c, 2, 46, 93
4, 94460, Note_off_c, 2, 54, 0
4, 94460, Note_off_c, 2, 46, 0
4, 94464, Note_on_c, 2, 54, 93
4, 94464, Note_on_c, 2, 47, 93
4, 94844, Note_off_c, 2, 54, 0
4, 94844, Note_off_c, 2, 47, 0
4, 94848, Note_on_c, 2, 54, 93
4, 94848, Note_on_c, 2, 45, 93
4, 95228, Note_off_c, 2, 54, 0
4, 95228, Note_off_c, 2, 45, 0
4, 95232, Note_on_c, 2, 55, 69
4, 95232, Note_on_c, 2, 43, 69
4, 95612, Note_off_c, 2, 55, 0
4, 95612, Note_off_c, 2, 43, 0
4, 96000, Note_on_c, 2, 55, 69
4, 96000, Note_on_c, 2, 43, 69
4, 96380, Note_off_c, 2, 55, 0
4, 96380, Note_off_c, 2, 43, 0
4, 100416, Note_on_c, 2, 57, 93
4, 100604, Note_off_c, 2, 57, 0
4, 100608, Note_on_c, 2, 52, 93
4, 100796, Note_off_c, 2, 52, 0
4, 100800, Note_on_c, 2, 61, 93
4, 100988, Note_off_c, 2, 61, 0
4, 100992, Note_on_c, 2, 49, 93
4, 101180, Note_off_c, 2, 49, 0
4, 101184, Note_on_c, 2, 57, 93
4, 101372, Note_off_c, 2, 57, 0
4, 101376, Note_on_c, 2, 45, 93
4, 101756, Note_off_c, 2, 45, 0
4, 102144, Note_on_c, 2, 45, 69
4, 102236, Note_off_c, 2, 45, 0
4, 102528, Note_on_c, 2, 45, 69
4, 102620, Note_off_c, 2, 45, 0
4, 102912, Note_on_c, 2, 44, 93
4, 103292, Note_off_c, 2, 44, 0
4, 103680, Note_on_c, 2, 56, 69
4, 103772, Note_off_c, 2, 56, 0
4, 104064, Note_on_c, 2, 56, 69
4, 104156, Note_off_c, 2, 56, 0
4, 104448, Note_on_c, 2, 52, 69
4, 104832, Note_off_c, 2, 52, 0
4, 111360, Note_on_c, 2, 53, 70
4, 112124, Note_off_c, 2, 53, 0
4, 112128, Note_on_c, 2, 52, 81
4, 112508, Note_off_c, 2, 52, 0
4, 112704, Note_on_c, 2, 54, 81
4, 112892, Note_off_c, 2, 54, 0
4, 112896, Note_on_c, 2, 56, 81
4, 113276, Note_off_c, 2, 56, 0
4, 113472, Note_on_c, 2, 56, 81
4, 113660, Note_off_c, 2, 56, 0
4, 113664, Note_on_c, 2, 57, 81
4, 113852, Note_off_c, 2, 57, 0
4, 114048, Note_on_c, 2, 57, 81
4, 114236, Note_off_c, 2, 57, 0
4, 114448, Note_on_c, 2, 56, 81
4, 114636, Note_off_c, 2, 56, 0
4, 114816, Note_on_c, 2, 59, 81
4, 115004, Note_off_c, 2, 59, 0
4, 115200, Note_on_c, 2, 57, 81
4, 115772, Note_off_c, 2, 57, 0
4, 116736, Note_on_c, 2, 57, 69
4, 116924, Note_off_c, 2, 57, 0
4, 117120, Note_on_c, 2, 57, 69
4, 117308, Note_off_c, 2, 57, 0
4, 117504, Note_on_c, 2, 56, 69
4, 117692, Note_off_c, 2, 56, 0
4, 117888, Note_on_c, 2, 59, 69
4, 118076, Note_off_c, 2, 59, 0
4, 118272, Note_on_c, 2, 57, 69
4, 118844, Note_off_c, 2, 57, 0
4, 119808, Note_on_c, 2, 45, 69
4, 120380, Note_off_c, 2, 45, 0
4, 121536, Note_on_c, 2, 49, 81
4, 121724, Note_off_c, 2, 49, 0
4, 121728, Note_on_c, 2, 49, 81
4, 121916, Note_off_c, 2, 49, 0
4, 121920, Note_on_c, 2, 49, 81
4, 122108, Note_off_c, 2, 49, 0
4, 122112, Note_on_c, 2, 49, 81
4, 122300, Note_off_c, 2, 49, 0
4, 122304, Note_on_c, 2, 49, 81
4, 122492, Note_off_c, 2, 49, 0
4, 122496, Note_on_c, 2, 49, 81
4, 122684, Note_off_c, 2, 49, 0
4, 122688, Note_on_c, 2, 49, 81
4, 122876, Note_off_c, 2, 49, 0
4, 122880, Note_on_c, 2, 50, 81
4, 123260, Note_off_c, 2, 50, 0
4, 123456, Note_on_c, 2, 62, 69
4, 123456, Note_on_c, 2, 57, 69
4, 123456, Note_on_c, 2, 50, 69
4, 123644, Note_off_c, 2, 62, 0
4, 123644, Note_off_c, 2, 57, 0
4, 123644, Note_off_c, 2, 50, 0
4, 123648, Note_on_c, 2, 61, 69
4, 123648, Note_on_c, 2, 57, 69
4, 123648, Note_on_c, 2, 52, 69
4, 124028, Note_off_c, 2, 61, 0
4, 124028, Note_off_c, 2, 57, 0
4, 124028, Note_off_c, 2, 52, 0
4, 124224, Note_on_c, 2, 61, 69
4, 124224, Note_on_c, 2, 57, 69
4, 124224, Note_on_c, 2, 52, 69
4, 124412, Note_off_c, 2, 61, 0
4, 124412, Note_off_c, 2, 57, 0
4, 124412, Note_off_c, 2, 52, 0
4, 124416, Note_on_c, 2, 62, 69
4, 124416, Note_on_c, 2, 57, 69
4, 124416, Note_on_c, 2, 54, 69
4, 124796, Note_off_c, 2, 62, 0
4, 124796, Note_off_c, 2, 57, 0
4, 124796, Note_off_c, 2, 54, 0
4, 124992, Note_on_c, 2, 62, 69
4, 124992, Note_on_c, 2, 57, 69
4, 124992, Note_on_c, 2, 54, 69
4, 125180, Note_off_c, 2, 62, 0
4, 125180, Note_off_c, 2, 57, 0
4, 125180, Note_off_c, 2, 54, 0
4, 125184, Note_on_c, 2, 64, 69
4, 125184, Note_on_c, 2, 57, 69
4, 125184, Note_on_c, 2, 52, 69
4, 125564, Note_off_c, 2, 64, 0
4, 125564, Note_off_c, 2, 57, 0
4, 125564, Note_off_c, 2, 52, 0
4, 125760, Note_on_c, 2, 64, 69
4, 125760, Note_on_c, 2, 57, 69
4, 125760, Note_on_c, 2, 52, 69
4, 125948, Note_off_c, 2, 64, 0
4, 125948, Note_off_c, 2, 57, 0
4, 125948, Note_off_c, 2, 52, 0
4, 125952, Note_on_c, 2, 62, 69
4, 125952, Note_on_c, 2, 50, 69
4, 126044, Note_off_c, 2, 62, 0
4, 126044, Note_off_c, 2, 50, 0
4, 126336, Note_on_c, 2, 62, 71
4, 126428, Note_off_c, 2, 62, 0
4, 126720, Note_on_c, 2, 62, 72
4, 126812, Note_off_c, 2, 62, 0
4, 127104, Note_on_c, 2, 62, 75
4, 127196, Note_off_c, 2, 62, 0
4, 127488, Note_on_c, 2, 51, 78
4, 127580, Note_off_c, 2, 51, 0
4, 127872, Note_on_c, 2, 63, 78
4, 127964, Note_off_c, 2, 63, 0
4, 128256, Note_on_c, 2, 63, 80
4, 128348, Note_off_c, 2, 63, 0
4, 128640, Note_on_c, 2, 63, 81
4, 128732, Note_off_c, 2, 63, 0
4, 129024, Note_on_c, 2, 52, 84
4, 129024, Note_on_c, 2, 64, 84
4, 129404, Note_off_c, 2, 52, 0
4, 130940, Note_off_c, 2, 64, 0
4, 131328, Note_on_c, 2, 52, 85
4, 131516, Note_off_c, 2, 52, 0
4, 131520, Note_on_c, 2, 52, 85
4, 131708, Note_off_c, 2, 52, 0
4, 131712, Note_on_c, 2, 52, 90
4, 131900, Note_off_c, 2, 52, 0
4, 131904, Note_on_c, 2, 52, 90
4, 132092, Note_off_c, 2, 52, 0
4, 132096, Note_on_c, 2, 45, 92
4, 132284, Note_off_c, 2, 45, 0
4, 132480, Note_on_c, 2, 57, 93
4, 132480, Note_on_c, 2, 45, 93
4, 132668, Note_off_c, 2, 57, 0
4, 132668, Note_off_c, 2, 45, 0
4, 133056, Note_on_c, 2, 52, 69
4, 133244, Note_off_c, 2, 52, 0
4, 133248, Note_on_c, 2, 51, 69
4, 133436, Note_off_c, 2, 51, 0
4, 133440, Note_on_c, 2, 52, 69
4, 133628, Note_off_c, 2, 52, 0
4, 133632, Note_on_c, 2, 54, 69
4, 133820, Note_off_c, 2, 54, 0
4, 133824, Note_on_c, 2, 52, 69
4, 134012, Note_off_c, 2, 52, 0
4, 134016, Note_on_c, 2, 51, 69
4, 134204, Note_off_c, 2, 51, 0
4, 134208, Note_on_c, 2, 52, 69
4, 134396, Note_off_c, 2, 52, 0
4, 134400, Note_on_c, 2, 52, 69
4, 134400, Note_on_c, 2, 45, 69
4, 134780, Note_off_c, 2, 52, 0
4, 134780, Note_off_c, 2, 45, 0
4, 134784, Note_on_c, 2, 52, 69
4, 134784, Note_on_c, 2, 49, 69
4, 135164, Note_off_c, 2, 52, 0
4, 135164, Note_off_c, 2, 49, 0
4, 135168, Note_on_c, 2, 52, 93
4, 135168, Note_on_c, 2, 47, 93
4, 135168, Note_on_c, 2, 62, 93
4, 135260, Note_off_c, 2, 52, 0
4, 135260, Note_off_c, 2, 47, 0
4, 135260, Note_off_c, 2, 62, 0
4, 135360, Note_on_c, 2, 44, 93
4, 135360, Note_on_c, 2, 59, 93
4, 135452, Note_off_c, 2, 44, 0
4, 135452, Note_off_c, 2, 59, 0
4, 135552, Note_on_c, 2, 40, 93
4, 135552, Note_on_c, 2, 56, 93
4, 135932, Note_off_c, 2, 40, 0
4, 135932, Note_off_c, 2, 56, 0
4, 135936, Note_on_c, 2, 52, 69
4, 135936, Note_on_c, 2, 56, 69
4, 135936, Note_on_c, 2, 59, 69
4, 136316, Note_off_c, 2, 52, 0
4, 136320, Note_on_c, 2, 50, 69
4, 136508, Note_off_c, 2, 59, 0
4, 136512, Note_on_c, 2, 64, 69
4, 136700, Note_off_c, 2, 56, 0
4, 136700, Note_off_c, 2, 50, 0
4, 136700, Note_off_c, 2, 64, 0
4, 136704, Note_on_c, 2, 64, 69
4, 136704, Note_on_c, 2, 57, 69
4, 136704, Note_on_c, 2, 49, 69
4, 136892, Note_off_c, 2, 57, 0
4, 136896, Note_on_c, 2, 61, 69
4, 137084, Note_off_c, 2, 49, 0
4, 137084, Note_off_c, 2, 61, 0
4, 137088, Note_on_c, 2, 44, 69
4, 137280, Note_on_c, 2, 52, 69
4, 137468, Note_off_c, 2, 64, 0
4, 137468, Note_off_c, 2, 44, 0
4, 137468, Note_off_c, 2, 52, 0
4, 137472, Note_on_c, 2, 64, 69
4, 137472, Note_on_c, 2, 52, 69
4, 137472, Note_on_c, 2, 45, 69
4, 137660, Note_off_c, 2, 64, 0
4, 137660, Note_off_c, 2, 52, 0
4, 137664, Note_on_c, 2, 61, 69
4, 137664, Note_on_c, 2, 57, 69
4, 137852, Note_off_c, 2, 45, 0
4, 137852, Note_off_c, 2, 61, 0
4, 137852, Note_off_c, 2, 57, 0
4, 137856, Note_on_c, 2, 59, 69
4, 137856, Note_on_c, 2, 54, 69
4, 137856, Note_on_c, 2, 50, 69
4, 138044, Note_off_c, 2, 59, 0
4, 138048, Note_on_c, 2, 57, 69
4, 138236, Note_off_c, 2, 54, 0
4, 138236, Note_off_c, 2, 50, 0
4, 138236, Note_off_c, 2, 57, 0
4, 138240, Note_on_c, 2, 57, 69
4, 138432, Note_on_c, 2, 51, 69
4, 138620, Note_off_c, 2, 51, 0
4, 138624, Note_on_c, 2, 52, 69
4, 138812, Note_off_c, 2, 52, 0
4, 138816, Note_on_c, 2, 51, 69
4, 139004, Note_off_c, 2, 57, 0
4, 139004, Note_off_c, 2, 51, 0
4, 139008, Note_on_c, 2, 52, 69
4, 139008, Note_on_c, 2, 56, 69
4, 139196, Note_off_c, 2, 56, 0
4, 139200, Note_on_c, 2, 64, 69
4, 139388, Note_off_c, 2, 52, 0
4, 139388, Note_off_c, 2, 64, 0
4, 139392, Note_on_c, 2, 63, 69
4, 139392, Note_on_c, 2, 59, 69
4, 139392, Note_on_c, 2, 56, 69
4, 139392, Note_on_c, 2, 62, 69
4, 139580, Note_off_c, 2, 62, 0
4, 139584, Note_on_c, 2, 64, 69
4, 139772, Note_off_c, 2, 63, 0
4, 139772, Note_off_c, 2, 59, 0
4, 139772, Note_off_c, 2, 56, 0
4, 139772, Note_off_c, 2, 64, 0
4, 139776, Note_on_c, 2, 63, 69
4, 139964, Note_off_c, 2, 63, 0
4, 139968, Note_on_c, 2, 64, 69
4, 140156, Note_off_c, 2, 64, 0
4, 140160, Note_on_c, 2, 65, 69
4, 140160, Note_on_c, 2, 60, 69
4, 140160, Note_on_c, 2, 57, 69
4, 140348, Note_off_c, 2, 65, 0
4, 140352, Note_on_c, 2, 64, 69
4, 140540, Note_off_c, 2, 60, 0
4, 140540, Note_off_c, 2, 57, 0
4, 140540, Note_off_c, 2, 64, 0
4, 140544, Note_on_c, 2, 62, 69
4, 140732, Note_off_c, 2, 62, 0
4, 140736, Note_on_c, 2, 60, 69
4, 140924, Note_off_c, 2, 60, 0
4, 140928, Note_on_c, 2, 59, 69
4, 140928, Note_on_c, 2, 52, 69
4, 140928, Note_on_c, 2, 48, 69
4, 141116, Note_off_c, 2, 59, 0
4, 141120, Note_on_c, 2, 57, 69
4, 141308, Note_off_c, 2, 52, 0
4, 141308, Note_off_c, 2, 48, 0
4, 141308, Note_off_c, 2, 57, 0
4, 141312, Note_on_c, 2, 50, 93
4, 141312, Note_on_c, 2, 47, 93
4, 141312, Note_on_c, 2, 56, 93
4, 141312, Note_on_c, 2, 52, 93
4, 141500, Note_off_c, 2, 50, 0
4, 141500, Note_off_c, 2, 47, 0
4, 141500, Note_off_c, 2, 56, 0
4, 141500, Note_off_c, 2, 52, 0
4, 141504, Note_on_c, 2, 47, 93
4, 141504, Note_on_c, 2, 44, 93
4, 141504, Note_on_c, 2, 59, 93
4, 141504, Note_on_c, 2, 56, 93
4, 141692, Note_off_c, 2, 47, 0
4, 141692, Note_off_c, 2, 44, 0
4, 141692, Note_off_c, 2, 59, 0
4, 141692, Note_off_c, 2, 56, 0
4, 141696, Note_on_c, 2, 44, 93
4, 141696, Note_on_c, 2, 40, 93
4, 141696, Note_on_c, 2, 59, 93
4, 141696, Note_on_c, 2, 62, 93
4, 142076, Note_off_c, 2, 44, 0
4, 142076, Note_off_c, 2, 40, 0
4, 142076, Note_off_c, 2, 59, 0
4, 142076, Note_off_c, 2, 62, 0
4, 142080, Note_on_c, 2, 59, 69
4, 142080, Note_on_c, 2, 56, 69
4, 142080, Note_on_c, 2, 52, 69
4, 142460, Note_off_c, 2, 59, 0
4, 142460, Note_off_c, 2, 56, 0
4, 142460, Note_off_c, 2, 52, 0
4, 142464, Note_on_c, 2, 59, 69
4, 142464, Note_on_c, 2, 64, 69
4, 142464, Note_on_c, 2, 50, 69
4, 142844, Note_off_c, 2, 59, 0
4, 142844, Note_off_c, 2, 64, 0
4, 142844, Note_off_c, 2, 50, 0
4, 142848, Note_on_c, 2, 60, 69
4, 142848, Note_on_c, 2, 64, 69
4, 142848, Note_on_c, 2, 48, 69
4, 143228, Note_off_c, 2, 60, 0
4, 143228, Note_off_c, 2, 64, 0
4, 143228, Note_off_c, 2, 48, 0
4, 144384, Note_on_c, 2, 52, 93
4, 144576, Note_on_c, 2, 60, 69
4, 144764, Note_off_c, 2, 60, 0
4, 144768, Note_on_c, 2, 59, 69
4, 144956, Note_off_c, 2, 59, 0
4, 144960, Note_on_c, 2, 57, 69
4, 145148, Note_off_c, 2, 52, 0
4, 145148, Note_off_c, 2, 57, 0
4, 145152, Note_on_c, 2, 56, 69
4, 145152, Note_on_c, 2, 52, 69
4, 145532, Note_off_c, 2, 56, 0
4, 145532, Note_off_c, 2, 52, 0
4, 145920, Note_on_c, 2, 45, 69
4, 146300, Note_off_c, 2, 45, 0
4, 146688, Note_on_c, 2, 52, 69
4, 147068, Note_off_c, 2, 52, 0
4, 147456, Note_on_c, 2, 45, 69
4, 147836, Note_off_c, 2, 45, 0
4, 148224, Note_on_c, 2, 52, 69
4, 148604, Note_off_c, 2, 52, 0
4, 148992, Note_on_c, 2, 57, 69
4, 149372, Note_off_c, 2, 57, 0
4, 149952, Note_on_c, 2, 52, 69
4, 150140, Note_off_c, 2, 52, 0
4, 150144, Note_on_c, 2, 52, 69
4, 150332, Note_off_c, 2, 52, 0
4, 150336, Note_on_c, 2, 52, 69
4, 150524, Note_off_c, 2, 52, 0
4, 150528, Note_on_c, 2, 57, 69
4, 150720, Note_on_c, 2, 64, 69
4, 150812, Note_off_c, 2, 64, 0
4, 150816, Note_on_c, 2, 66, 69
4, 150908, Note_off_c, 2, 57, 0
4, 150908, Note_off_c, 2, 66, 0
4, 150912, Note_on_c, 2, 62, 69
4, 150912, Note_on_c, 2, 52, 69
4, 151100, Note_off_c, 2, 62, 0
4, 151100, Note_off_c, 2, 52, 0
4, 151104, Note_on_c, 2, 62, 69
4, 151196, Note_off_c, 2, 62, 0
4, 151200, Note_on_c, 2, 64, 69
4, 151292, Note_off_c, 2, 64, 0
4, 151296, Note_on_c, 2, 61, 69
4, 151484, Note_off_c, 2, 61, 0
4, 151488, Note_on_c, 2, 61, 69
4, 151580, Note_off_c, 2, 61, 0
4, 151584, Note_on_c, 2, 62, 69
4, 151676, Note_off_c, 2, 62, 0
4, 151680, Note_on_c, 2, 59, 69
4, 151772, Note_off_c, 2, 59, 0
4, 151776, Note_on_c, 2, 61, 69
4, 151868, Note_off_c, 2, 61, 0
4, 151872, Note_on_c, 2, 62, 69
4, 151964, Note_off_c, 2, 62, 0
4, 151968, Note_on_c, 2, 59, 69
4, 152060, Note_off_c, 2, 59, 0
4, 152064, Note_on_c, 2, 57, 69
4, 152064, Note_on_c, 2, 61, 69
4, 152444, Note_off_c, 2, 57, 0
4, 152444, Note_off_c, 2, 61, 0
4, 153600, Note_on_c, 2, 49, 81
4, 153788, Note_off_c, 2, 49, 0
4, 153792, Note_on_c, 2, 49, 81
4, 153980, Note_off_c, 2, 49, 0
4, 153984, Note_on_c, 2, 49, 81
4, 154172, Note_off_c, 2, 49, 0
4, 154176, Note_on_c, 2, 49, 81
4, 154364, Note_off_c, 2, 49, 0
4, 154368, Note_on_c, 2, 49, 81
4, 154556, Note_off_c, 2, 49, 0
4, 154560, Note_on_c, 2, 49, 81
4, 154748, Note_off_c, 2, 49, 0
4, 154752, Note_on_c, 2, 49, 81
4, 154940, Note_off_c, 2, 49, 0
4, 154944, Note_on_c, 2, 49, 81
4, 155132, Note_off_c, 2, 49, 0
4, 155136, Note_on_c, 2, 50, 81
4, 155324, Note_off_c, 2, 50, 0
4, 155328, Note_on_c, 2, 50, 81
4, 155516, Note_off_c, 2, 50, 0
4, 155520, Note_on_c, 2, 50, 81
4, 155708, Note_off_c, 2, 50, 0
4, 155712, Note_on_c, 2, 50, 81
4, 155900, Note_off_c, 2, 50, 0
4, 155904, Note_on_c, 2, 50, 81
4, 156092, Note_off_c, 2, 50, 0
4, 156096, Note_on_c, 2, 50, 81
4, 156284, Note_off_c, 2, 50, 0
4, 156288, Note_on_c, 2, 50, 81
4, 156476, Note_off_c, 2, 50, 0
4, 156480, Note_on_c, 2, 50, 81
4, 156668, Note_off_c, 2, 50, 0
4, 156672, Note_on_c, 2, 52, 81
4, 156860, Note_off_c, 2, 52, 0
4, 156864, Note_on_c, 2, 54, 81
4, 157052, Note_off_c, 2, 54, 0
4, 157056, Note_on_c, 2, 52, 81
4, 157244, Note_off_c, 2, 52, 0
4, 157248, Note_on_c, 2, 50, 81
4, 157436, Note_off_c, 2, 50, 0
4, 157440, Note_on_c, 2, 52, 81
4, 157628, Note_off_c, 2, 52, 0
4, 157632, Note_on_c, 2, 52, 81
4, 157820, Note_off_c, 2, 52, 0
4, 157824, Note_on_c, 2, 52, 81
4, 158012, Note_off_c, 2, 52, 0
4, 158016, Note_on_c, 2, 52, 81
4, 158204, Note_off_c, 2, 52, 0
4, 158208, Note_on_c, 2, 57, 69
4, 158396, Note_off_c, 2, 57, 0
4, 158592, Note_on_c, 2, 57, 69
4, 158780, Note_off_c, 2, 57, 0
4, 158976, Note_on_c, 2, 57, 69
4, 159164, Note_off_c, 2, 57, 0
4, 159360, Note_on_c, 2, 57, 69
4, 159548, Note_off_c, 2, 57, 0
4, 159744, Note_on_c, 2, 50, 69
4, 159932, Note_off_c, 2, 50, 0
4, 160128, Note_on_c, 2, 50, 69
4, 160316, Note_off_c, 2, 50, 0
4, 160512, Note_on_c, 2, 50, 69
4, 160700, Note_off_c, 2, 50, 0
4, 160880, Note_on_c, 2, 50, 69
4, 161068, Note_off_c, 2, 50, 0
4, 161280, Note_on_c, 2, 45, 71
4, 161468, Note_off_c, 2, 45, 0
4, 161472, Note_on_c, 2, 57, 74
4, 161660, Note_off_c, 2, 57, 0
4, 161664, Note_on_c, 2, 59, 78
4, 161852, Note_off_c, 2, 59, 0
4, 161856, Note_on_c, 2, 60, 81
4, 162044, Note_off_c, 2, 60, 0
4, 162048, Note_on_c, 2, 61, 84
4, 162236, Note_off_c, 2, 61, 0
4, 162240, Note_on_c, 2, 61, 88
4, 162428, Note_off_c, 2, 61, 0
4, 162432, Note_on_c, 2, 62, 91
4, 162620, Note_off_c, 2, 62, 0
4, 162624, Note_on_c, 2, 60, 92
4, 162812, Note_off_c, 2, 60, 0
4, 162816, Note_on_c, 2, 61, 93
4, 163196, Note_off_c, 2, 61, 0
4, 164352, Note_on_c, 2, 52, 81
4, 164540, Note_off_c, 2, 52, 0
4, 164544, Note_on_c, 2, 52, 81
4, 164732, Note_off_c, 2, 52, 0
4, 164736, Note_on_c, 2, 52, 81
4, 164924, Note_off_c, 2, 52, 0
4, 164928, Note_on_c, 2, 52, 81
4, 165116, Note_off_c, 2, 52, 0
4, 165120, Note_on_c, 2, 52, 81
4, 165308, Note_off_c, 2, 52, 0
4, 165312, Note_on_c, 2, 52, 81
4, 165500, Note_off_c, 2, 52, 0
4, 165504, Note_on_c, 2, 52, 81
4, 165692, Note_off_c, 2, 52, 0
4, 165696, Note_on_c, 2, 52, 81
4, 165884, Note_off_c, 2, 52, 0
4, 165888, Note_on_c, 2, 52, 81
4, 166076, Note_off_c, 2, 52, 0
4, 166080, Note_on_c, 2, 52, 81
4, 166268, Note_off_c, 2, 52, 0
4, 166272, Note_on_c, 2, 52, 81
4, 166460, Note_off_c, 2, 52, 0
4, 166464, Note_on_c, 2, 52, 81
4, 166652, Note_off_c, 2, 52, 0
4, 166656, Note_on_c, 2, 52, 81
4, 166844, Note_off_c, 2, 52, 0
4, 166848, Note_on_c, 2, 52, 81
4, 167036, Note_off_c, 2, 52, 0
4, 167040, Note_on_c, 2, 52, 81
4, 167228, Note_off_c, 2, 52, 0
4, 167232, Note_on_c, 2, 52, 81
4, 167420, Note_off_c, 2, 52, 0
4, 167424, Note_on_c, 2, 45, 93
4, 167516, Note_off_c, 2, 45, 0
4, 167520, Note_on_c, 2, 57, 93
4, 167612, Note_off_c, 2, 57, 0
4, 167616, Note_on_c, 2, 49, 93
4, 167708, Note_off_c, 2, 49, 0
4, 167712, Note_on_c, 2, 57, 93
4, 167804, Note_off_c, 2, 57, 0
4, 167808, Note_on_c, 2, 52, 93
4, 167900, Note_off_c, 2, 52, 0
4, 167904, Note_on_c, 2, 57, 93
4, 167996, Note_off_c, 2, 57, 0
4, 168000, Note_on_c, 2, 49, 93
4, 168092, Note_off_c, 2, 49, 0
4, 168096, Note_on_c, 2, 57, 93
4, 168188, Note_off_c, 2, 57, 0
4, 168192, Note_on_c, 2, 45, 93
4, 168284, Note_off_c, 2, 45, 0
4, 168288, Note_on_c, 2, 57, 93
4, 168380, Note_off_c, 2, 57, 0
4, 168384, Note_on_c, 2, 49, 93
4, 168476, Note_off_c, 2, 49, 0
4, 168480, Note_on_c, 2, 57, 93
4, 168572, Note_off_c, 2, 57, 0
4, 168576, Note_on_c, 2, 52, 93
4, 168668, Note_off_c, 2, 52, 0
4, 168672, Note_on_c, 2, 57, 93
4, 168764, Note_off_c, 2, 57, 0
4, 168768, Note_on_c, 2, 45, 93
4, 168860, Note_off_c, 2, 45, 0
4, 168864, Note_on_c, 2, 57, 93
4, 168956, Note_off_c, 2, 57, 0
4, 168960, Note_on_c, 2, 50, 93
4, 169052, Note_off_c, 2, 50, 0
4, 169056, Note_on_c, 2, 57, 93
4, 169148, Note_off_c, 2, 57, 0
4, 169152, Note_on_c, 2, 54, 93
4, 169244, Note_off_c, 2, 54, 0
4, 169248, Note_on_c, 2, 57, 93
4, 169340, Note_off_c, 2, 57, 0
4, 169344, Note_on_c, 2, 50, 93
4, 169436, Note_off_c, 2, 50, 0
4, 169440, Note_on_c, 2, 59, 93
4, 169532, Note_off_c, 2, 59, 0
4, 169536, Note_on_c, 2, 54, 93
4, 169628, Note_off_c, 2, 54, 0
4, 169632, Note_on_c, 2, 59, 93
4, 169724, Note_off_c, 2, 59, 0
4, 169728, Note_on_c, 2, 52, 93
4, 169820, Note_off_c, 2, 52, 0
4, 169824, Note_on_c, 2, 61, 93
4, 169916, Note_off_c, 2, 61, 0
4, 169920, Note_on_c, 2, 57, 93
4, 170012, Note_off_c, 2, 57, 0
4, 170016, Note_on_c, 2, 61, 93
4, 170108, Note_off_c, 2, 61, 0
4, 170112, Note_on_c, 2, 52, 93
4, 170204, Note_off_c, 2, 52, 0
4, 170208, Note_on_c, 2, 59, 93
4, 170300, Note_off_c, 2, 59, 0
4, 170304, Note_on_c, 2, 56, 93
4, 170396, Note_off_c, 2, 56, 0
4, 170400, Note_on_c, 2, 59, 93
4, 170492, Note_off_c, 2, 59, 0
4, 170496, Note_on_c, 2, 45, 93
4, 170588, Note_off_c, 2, 45, 0
4, 170592, Note_on_c, 2, 57, 93
4, 170684, Note_off_c, 2, 57, 0
4, 170688, Note_on_c, 2, 49, 93
4, 170780, Note_off_c, 2, 49, 0
4, 170784, Note_on_c, 2, 57, 93
4, 170876, Note_off_c, 2, 57, 0
4, 170880, Note_on_c, 2, 52, 93
4, 170972, Note_off_c, 2, 52, 0
4, 170976, Note_on_c, 2, 57, 93
4, 171068, Note_off_c, 2, 57, 0
4, 171072, Note_on_c, 2, 49, 93
4, 171164, Note_off_c, 2, 49, 0
4, 171168, Note_on_c, 2, 57, 93
4, 171260, Note_off_c, 2, 57, 0
4, 171264, Note_on_c, 2, 45, 93
4, 171356, Note_off_c, 2, 45, 0
4, 171360, Note_on_c, 2, 57, 93
4, 171452, Note_off_c, 2, 57, 0
4, 171456, Note_on_c, 2, 49, 93
4, 171548, Note_off_c, 2, 49, 0
4, 171552, Note_on_c, 2, 57, 93
4, 171644, Note_off_c, 2, 57, 0
4, 171648, Note_on_c, 2, 52, 93
4, 171740, Note_off_c, 2, 52, 0
4, 171744, Note_on_c, 2, 57, 93
4, 171836, Note_off_c, 2, 57, 0
4, 171840, Note_on_c, 2, 45, 93
4, 171932, Note_off_c, 2, 45, 0
4, 171936, Note_on_c, 2, 57, 93
4, 172028, Note_off_c, 2, 57, 0
4, 172032, Note_on_c, 2, 50, 93
4, 172124, Note_off_c, 2, 50, 0
4, 172128, Note_on_c, 2, 57, 93
4, 172220, Note_off_c, 2, 57, 0
4, 172224, Note_on_c, 2, 54, 93
4, 172316, Note_off_c, 2, 54, 0
4, 172320, Note_on_c, 2, 57, 93
4, 172412, Note_off_c, 2, 57, 0
4, 172416, Note_on_c, 2, 51, 93
4, 172508, Note_off_c, 2, 51, 0
4, 172512, Note_on_c, 2, 59, 93
4, 172604, Note_off_c, 2, 59, 0
4, 172608, Note_on_c, 2, 57, 93
4, 172700, Note_off_c, 2, 57, 0
4, 172704, Note_on_c, 2, 59, 93
4, 172796, Note_off_c, 2, 59, 0
4, 172800, Note_on_c, 2, 52, 93
4, 172892, Note_off_c, 2, 52, 0
4, 172896, Note_on_c, 2, 59, 93
4, 172988, Note_off_c, 2, 59, 0
4, 172992, Note_on_c, 2, 56, 93
4, 173084, Note_off_c, 2, 56, 0
4, 173088, Note_on_c, 2, 59, 93
4, 173180, Note_off_c, 2, 59, 0
4, 173184, Note_on_c, 2, 52, 93
4, 173276, Note_off_c, 2, 52, 0
4, 173280, Note_on_c, 2, 64, 93
4, 173372, Note_off_c, 2, 64, 0
4, 173376, Note_on_c, 2, 52, 93
4, 173468, Note_off_c, 2, 52, 0
4, 173472, Note_on_c, 2, 64, 93
4, 173564, Note_off_c, 2, 64, 0
4, 173568, Note_on_c, 2, 57, 93
4, 173568, Note_on_c, 2, 61, 93
4, 173948, Note_off_c, 2, 57, 0
4, 173948, Note_off_c, 2, 61, 0
4, 173952, Note_on_c, 2, 57, 69
4, 174140, Note_off_c, 2, 57, 0
4, 174144, Note_on_c, 2, 57, 69
4, 174332, Note_off_c, 2, 57, 0
4, 174336, Note_on_c, 2, 57, 69
4, 174336, Note_on_c, 2, 52, 69
4, 174524, Note_off_c, 2, 57, 0
4, 174528, Note_on_c, 2, 56, 69
4, 174716, Note_off_c, 2, 52, 0
4, 174716, Note_off_c, 2, 56, 0
4, 174720, Note_on_c, 2, 59, 69
4, 174908, Note_off_c, 2, 59, 0
4, 174912, Note_on_c, 2, 62, 69
4, 175100, Note_off_c, 2, 62, 0
4, 175104, Note_on_c, 2, 61, 69
4, 175104, Note_on_c, 2, 57, 69
4, 175292, Note_off_c, 2, 61, 0
4, 175296, Note_on_c, 2, 64, 69
4, 175484, Note_off_c, 2, 57, 0
4, 175484, Note_off_c, 2, 64, 0
4, 175488, Note_on_c, 2, 61, 69
4, 175676, Note_off_c, 2, 61, 0
4, 175680, Note_on_c, 2, 57, 69
4, 175868, Note_off_c, 2, 57, 0
4, 175872, Note_on_c, 2, 57, 69
4, 175872, Note_on_c, 2, 52, 69
4, 176060, Note_off_c, 2, 57, 0
4, 176064, Note_on_c, 2, 56, 69
4, 176252, Note_off_c, 2, 52, 0
4, 176252, Note_off_c, 2, 56, 0
4, 176256, Note_on_c, 2, 59, 69
4, 176444, Note_off_c, 2, 59, 0
4, 176448, Note_on_c, 2, 62, 69
4, 176636, Note_off_c, 2, 62, 0
4, 176640, Note_on_c, 2, 61, 69
4, 176640, Note_on_c, 2, 57, 69
4, 177020, Note_off_c, 2, 61, 0
4, 177404, Note_off_c, 2, 57, 0
4, 177408, Note_on_c, 2, 52, 69
4, 178172, Note_off_c, 2, 52, 0
4, 178176, Note_on_c, 2, 45, 69
4, 178940, Note_off_c, 2, 45, 0
4, 178944, Note_on_c, 2, 52, 69
4, 179708, Note_off_c, 2, 52, 0
4, 179712, Note_on_c, 2, 52, 97
4, 179900, Note_off_c, 2, 52, 0
4, 179904, Note_on_c, 2, 52, 81
4, 180092, Note_off_c, 2, 52, 0
4, 180096, Note_on_c, 2, 52, 81
4, 180284, Note_off_c, 2, 52, 0
4, 180288, Note_on_c, 2, 52, 81
4, 180476, Note_off_c, 2, 52, 0
4, 180480, Note_on_c, 2, 52, 81
4, 180860, Note_off_c, 2, 52, 0
4, 181248, Note_on_c, 2, 55, 81
4, 181248, Note_on_c, 2, 52, 81
4, 181628, Note_off_c, 2, 55, 0
4, 181628, Note_off_c, 2, 52, 0
4, 182016, Note_on_c, 2, 64, 81
4, 182016, Note_on_c, 2, 52, 81
4, 182396, Note_off_c, 2, 64, 0
4, 182396, Note_off_c, 2, 52, 0
4, 182976, Note_on_c, 2, 59, 81
4, 182976, Note_on_c, 2, 54, 81
4, 182976, Note_on_c, 2, 50, 81
4, 183164, Note_off_c, 2, 59, 0
4, 183164, Note_off_c, 2, 54, 0
4, 183164, Note_off_c, 2, 50, 0
4, 183168, Note_on_c, 2, 59, 81
4, 183168, Note_on_c, 2, 54, 81
4, 183168, Note_on_c, 2, 50, 81
4, 183356, Note_off_c, 2, 59, 0
4, 183356, Note_off_c, 2, 54, 0
4, 183356, Note_off_c, 2, 50, 0
4, 183360, Note_on_c, 2, 59, 81
4, 183360, Note_on_c, 2, 54, 81
4, 183360, Note_on_c, 2, 50, 81
4, 183548, Note_off_c, 2, 59, 0
4, 183548, Note_off_c, 2, 54, 0
4, 183548, Note_off_c, 2, 50, 0
4, 183552, Note_on_c, 2, 59, 81
4, 183552, Note_on_c, 2, 54, 81
4, 183552, Note_on_c, 2, 50, 81
4, 183932, Note_off_c, 2, 59, 0
4, 183932, Note_off_c, 2, 54, 0
4, 183932, Note_off_c, 2, 50, 0
4, 184512, Note_on_c, 2, 54, 81
4, 184512, Note_on_c, 2, 49, 81
4, 184512, Note_on_c, 2, 46, 81
4, 184700, Note_off_c, 2, 54, 0
4, 184700, Note_off_c, 2, 49, 0
4, 184700, Note_off_c, 2, 46, 0
4, 184704, Note_on_c, 2, 54, 81
4, 184704, Note_on_c, 2, 49, 81
4, 184704, Note_on_c, 2, 46, 81
4, 184892, Note_off_c, 2, 54, 0
4, 184892, Note_off_c, 2, 49, 0
4, 184892, Note_off_c, 2, 46, 0
4, 184896, Note_on_c, 2, 54, 81
4, 184896, Note_on_c, 2, 49, 81
4, 184896, Note_on_c, 2, 46, 81
4, 185084, Note_off_c, 2, 54, 0
4, 185084, Note_off_c, 2, 49, 0
4, 185084, Note_off_c, 2, 46, 0
4, 185088, Note_on_c, 2, 54, 81
4, 185088, Note_on_c, 2, 49, 81
4, 185088, Note_on_c, 2, 46, 81
4, 185468, Note_off_c, 2, 54, 0
4, 185468, Note_off_c, 2, 49, 0
4, 185468, Note_off_c, 2, 46, 0
4, 186048, Note_on_c, 2, 54, 81
4, 186048, Note_on_c, 2, 50, 81
4, 186048, Note_on_c, 2, 47, 81
4, 186236, Note_off_c, 2, 54, 0
4, 186236, Note_off_c, 2, 50, 0
4, 186236, Note_off_c, 2, 47, 0
4, 186240, Note_on_c, 2, 54, 81
4, 186240, Note_on_c, 2, 50, 81
4, 186240, Note_on_c, 2, 47, 81
4, 186428, Note_off_c, 2, 54, 0
4, 186428, Note_off_c, 2, 50, 0
4, 186428, Note_off_c, 2, 47, 0
4, 186432, Note_on_c, 2, 54, 81
4, 186432, Note_on_c, 2, 50, 81
4, 186432, Note_on_c, 2, 47, 81
4, 186620, Note_off_c, 2, 54, 0
4, 186620, Note_off_c, 2, 50, 0
4, 186620, Note_off_c, 2, 47, 0
4, 186624, Note_on_c, 2, 54, 81
4, 186624, Note_on_c, 2, 50, 81
4, 186624, Note_on_c, 2, 47, 81
4, 187004, Note_off_c, 2, 54, 0
4, 187004, Note_off_c, 2, 50, 0
4, 187004, Note_off_c, 2, 47, 0
4, 187392, Note_on_c, 2, 43, 81
4, 187580, Note_off_c, 2, 43, 0
4, 187584, Note_on_c, 2, 55, 81
4, 187772, Note_off_c, 2, 55, 0
4, 187776, Note_on_c, 2, 55, 81
4, 187964, Note_off_c, 2, 55, 0
4, 187968, Note_on_c, 2, 55, 81
4, 188156, Note_off_c, 2, 55, 0
4, 188160, Note_on_c, 2, 55, 81
4, 188348, Note_off_c, 2, 55, 0
4, 188352, Note_on_c, 2, 55, 81
4, 188540, Note_off_c, 2, 55, 0
4, 188544, Note_on_c, 2, 55, 81
4, 188732, Note_off_c, 2, 55, 0
4, 188736, Note_on_c, 2, 55, 81
4, 188924, Note_off_c, 2, 55, 0
4, 188928, Note_on_c, 2, 42, 81
4, 189116, Note_off_c, 2, 42, 0
4, 189120, Note_on_c, 2, 54, 81
4, 189308, Note_off_c, 2, 54, 0
4, 189312, Note_on_c, 2, 54, 81
4, 189500, Note_off_c, 2, 54, 0
4, 189504, Note_on_c, 2, 54, 81
4, 189692, Note_off_c, 2, 54, 0
4, 189696, Note_on_c, 2, 54, 81
4, 189884, Note_off_c, 2, 54, 0
4, 189888, Note_on_c, 2, 54, 81
4, 190076, Note_off_c, 2, 54, 0
4, 190080, Note_on_c, 2, 54, 81
4, 190268, Note_off_c, 2, 54, 0
4, 190272, Note_on_c, 2, 54, 81
4, 190460, Note_off_c, 2, 54, 0
4, 190464, Note_on_c, 2, 55, 81
4, 190464, Note_on_c, 2, 43, 81
4, 190844, Note_off_c, 2, 55, 0
4, 190844, Note_off_c, 2, 43, 0
4, 192000, Note_on_c, 2, 54, 93
4, 192192, Note_on_c, 2, 62, 69
4, 192380, Note_off_c, 2, 62, 0
4, 192384, Note_on_c, 2, 61, 69
4, 192572, Note_off_c, 2, 61, 0
4, 192576, Note_on_c, 2, 59, 69
4, 192764, Note_off_c, 2, 54, 0
4, 192764, Note_off_c, 2, 59, 0
4, 192768, Note_on_c, 2, 54, 81
4, 192768, Note_on_c, 2, 58, 81
4, 192956, Note_off_c, 2, 54, 0
4, 192956, Note_off_c, 2, 58, 0
4, 192960, Note_on_c, 2, 52, 81
4, 193148, Note_off_c, 2, 52, 0
4, 193152, Note_on_c, 2, 50, 81
4, 193340, Note_off_c, 2, 50, 0
4, 193344, Note_on_c, 2, 49, 81
4, 193532, Note_off_c, 2, 49, 0
4, 193536, Note_on_c, 2, 47, 81
4, 193916, Note_off_c, 2, 47, 0
4, 194304, Note_on_c, 2, 59, 81
4, 194304, Note_on_c, 2, 47, 81
4, 194684, Note_off_c, 2, 59, 0
4, 194684, Note_off_c, 2, 47, 0
4, 195072, Note_on_c, 2, 52, 63
4, 195072, Note_on_c, 2, 59, 63
4, 195260, Note_off_c, 2, 52, 0
4, 195264, Note_on_c, 2, 51, 63
4, 195452, Note_off_c, 2, 51, 0
4, 195456, Note_on_c, 2, 52, 63
4, 195644, Note_off_c, 2, 52, 0
4, 195648, Note_on_c, 2, 51, 63
4, 195836, Note_off_c, 2, 51, 0
4, 195840, Note_on_c, 2, 52, 63
4, 196028, Note_off_c, 2, 52, 0
4, 196032, Note_on_c, 2, 51, 63
4, 196220, Note_off_c, 2, 51, 0
4, 196224, Note_on_c, 2, 52, 63
4, 196412, Note_off_c, 2, 52, 0
4, 196416, Note_on_c, 2, 51, 63
4, 196604, Note_off_c, 2, 51, 0
4, 196608, Note_on_c, 2, 52, 75
4, 196988, Note_off_c, 2, 59, 0
4, 196988, Note_off_c, 2, 52, 0
4, 197376, Note_on_c, 2, 52, 81
4, 197756, Note_off_c, 2, 52, 0
4, 198144, Note_on_c, 2, 45, 75
4, 198144, Note_on_c, 2, 52, 75
4, 198332, Note_off_c, 2, 45, 0
4, 198336, Note_on_c, 2, 44, 75
4, 198524, Note_off_c, 2, 44, 0
4, 198528, Note_on_c, 2, 45, 75
4, 198716, Note_off_c, 2, 45, 0
4, 198720, Note_on_c, 2, 44, 75
4, 198908, Note_off_c, 2, 44, 0
4, 198912, Note_on_c, 2, 45, 75
4, 199100, Note_off_c, 2, 45, 0
4, 199104, Note_on_c, 2, 44, 75
4, 199292, Note_off_c, 2, 44, 0
4, 199296, Note_on_c, 2, 45, 75
4, 199484, Note_off_c, 2, 45, 0
4, 199488, Note_on_c, 2, 44, 75
4, 199676, Note_off_c, 2, 44, 0
4, 199680, Note_on_c, 2, 45, 75
4, 200060, Note_off_c, 2, 52, 0
4, 200060, Note_off_c, 2, 45, 0
4, 200448, Note_on_c, 2, 57, 81
4, 200448, Note_on_c, 2, 45, 81
4, 200828, Note_off_c, 2, 57, 0
4, 200828, Note_off_c, 2, 45, 0
4, 201216, Note_on_c, 2, 50, 63
4, 201216, Note_on_c, 2, 57, 63
4, 201404, Note_off_c, 2, 50, 0
4, 201408, Note_on_c, 2, 49, 63
4, 201596, Note_off_c, 2, 49, 0
4, 201600, Note_on_c, 2, 50, 63
4, 201788, Note_off_c, 2, 50, 0
4, 201792, Note_on_c, 2, 49, 63
4, 201980, Note_off_c, 2, 49, 0
4, 201984, Note_on_c, 2, 50, 66
4, 202172, Note_off_c, 2, 50, 0
4, 202176, Note_on_c, 2, 49, 68
4, 202364, Note_off_c, 2, 49, 0
4, 202368, Note_on_c, 2, 50, 70
4, 202556, Note_off_c, 2, 50, 0
4, 202560, Note_on_c, 2, 49, 72
4, 202748, Note_off_c, 2, 49, 0
4, 202752, Note_on_c, 2, 50, 74
4, 203132, Note_off_c, 2, 57, 0
4, 203132, Note_off_c, 2, 50, 0
4, 203520, Note_on_c, 2, 62, 81
4, 203520, Note_on_c, 2, 50, 81
4, 203900, Note_off_c, 2, 62, 0
4, 203900, Note_off_c, 2, 50, 0
4, 204288, Note_on_c, 2, 43, 63
4, 204288, Note_on_c, 2, 50, 63
4, 204476, Note_off_c, 2, 43, 0
4, 204480, Note_on_c, 2, 42, 63
4, 204668, Note_off_c, 2, 42, 0
4, 204672, Note_on_c, 2, 43, 63
4, 204860, Note_off_c, 2, 43, 0
4, 204864, Note_on_c, 2, 42, 63
4, 205052, Note_off_c, 2, 42, 0
4, 205056, Note_on_c, 2, 43, 66
4, 205244, Note_off_c, 2, 43, 0
4, 205248, Note_on_c, 2, 42, 68
4, 205436, Note_off_c, 2, 42, 0
4, 205440, Note_on_c, 2, 43, 70
4, 205628, Note_off_c, 2, 43, 0
4, 205632, Note_on_c, 2, 42, 72
4, 205820, Note_off_c, 2, 42, 0
4, 205824, Note_on_c, 2, 43, 75
4, 206012, Note_off_c, 2, 43, 0
4, 206016, Note_on_c, 2, 55, 75
4, 206108, Note_off_c, 2, 55, 0
4, 206204, Note_off_c, 2, 50, 0
4, 206208, Note_on_c, 2, 55, 81
4, 206300, Note_off_c, 2, 55, 0
4, 206400, Note_on_c, 2, 55, 81
4, 206492, Note_off_c, 2, 55, 0
4, 206592, Note_on_c, 2, 55, 81
4, 206684, Note_off_c, 2, 55, 0
4, 206976, Note_on_c, 2, 55, 81
4, 207068, Note_off_c, 2, 55, 0
4, 207360, Note_on_c, 2, 42, 81
4, 207452, Note_off_c, 2, 42, 0
4, 207552, Note_on_c, 2, 54, 81
4, 207644, Note_off_c, 2, 54, 0
4, 207744, Note_on_c, 2, 54, 81
4, 207836, Note_off_c, 2, 54, 0
4, 207936, Note_on_c, 2, 54, 81
4, 208028, Note_off_c, 2, 54, 0
4, 208128, Note_on_c, 2, 54, 81
4, 208220, Note_off_c, 2, 54, 0
4, 208512, Note_on_c, 2, 54, 81
4, 208604, Note_off_c, 2, 54, 0
4, 208896, Note_on_c, 2, 50, 81
4, 208988, Note_off_c, 2, 50, 0
4, 209088, Note_on_c, 2, 62, 81
4, 209180, Note_off_c, 2, 62, 0
4, 209280, Note_on_c, 2, 62, 81
4, 209372, Note_off_c, 2, 62, 0
4, 209472, Note_on_c, 2, 62, 81
4, 209564, Note_off_c, 2, 62, 0
4, 209664, Note_on_c, 2, 62, 81
4, 209756, Note_off_c, 2, 62, 0
4, 210048, Note_on_c, 2, 62, 81
4, 210140, Note_off_c, 2, 62, 0
4, 210432, Note_on_c, 2, 50, 81
4, 210432, Note_on_c, 2, 43, 81
4, 210524, Note_off_c, 2, 50, 0
4, 210524, Note_off_c, 2, 43, 0
4, 210624, Note_on_c, 2, 55, 81
4, 210716, Note_off_c, 2, 55, 0
4, 210816, Note_on_c, 2, 55, 81
4, 210908, Note_off_c, 2, 55, 0
4, 211008, Note_on_c, 2, 55, 81
4, 211100, Note_off_c, 2, 55, 0
4, 211200, Note_on_c, 2, 55, 81
4, 211292, Note_off_c, 2, 55, 0
4, 211584, Note_on_c, 2, 55, 81
4, 211676, Note_off_c, 2, 55, 0
4, 211968, Note_on_c, 2, 47, 81
4, 212060, Note_off_c, 2, 47, 0
4, 212160, Note_on_c, 2, 59, 81
4, 212252, Note_off_c, 2, 59, 0
4, 212352, Note_on_c, 2, 59, 81
4, 212444, Note_off_c, 2, 59, 0
4, 212544, Note_on_c, 2, 59, 81
4, 212636, Note_off_c, 2, 59, 0
4, 212736, Note_on_c, 2, 59, 81
4, 212828, Note_off_c, 2, 59, 0
4, 213120, Note_on_c, 2, 59, 81
4, 213212, Note_off_c, 2, 59, 0
4, 213504, Note_on_c, 2, 40, 81
4, 213596, Note_off_c, 2, 40, 0
4, 213696, Note_on_c, 2, 52, 81
4, 213788, Note_off_c, 2, 52, 0
4, 213888, Note_on_c, 2, 52, 81
4, 213980, Note_off_c, 2, 52, 0
4, 214080, Note_on_c, 2, 52, 81
4, 214172, Note_off_c, 2, 52, 0
4, 214272, Note_on_c, 2, 52, 81
4, 214364, Note_off_c, 2, 52, 0
4, 214656, Note_on_c, 2, 52, 81
4, 214748, Note_off_c, 2, 52, 0
4, 215040, Note_on_c, 2, 45, 81
4, 215132, Note_off_c, 2, 45, 0
4, 215232, Note_on_c, 2, 57, 81
4, 215324, Note_off_c, 2, 57, 0
4, 215424, Note_on_c, 2, 57, 81
4, 215516, Note_off_c, 2, 57, 0
4, 215616, Note_on_c, 2, 57, 81
4, 215708, Note_off_c, 2, 57, 0
4, 215808, Note_on_c, 2, 57, 81
4, 215900, Note_off_c, 2, 57, 0
4, 216192, Note_on_c, 2, 57, 81
4, 216284, Note_off_c, 2, 57, 0
4, 216576, Note_on_c, 2, 38, 81
4, 216668, Note_off_c, 2, 38, 0
4, 216768, Note_on_c, 2, 50, 81
4, 216860, Note_off_c, 2, 50, 0
4, 216960, Note_on_c, 2, 50, 81
4, 217052, Note_off_c, 2, 50, 0
4, 217152, Note_on_c, 2, 50, 81
4, 217244, Note_off_c, 2, 50, 0
4, 217344, Note_on_c, 2, 50, 81
4, 217436, Note_off_c, 2, 50, 0
4, 218112, Note_on_c, 2, 43, 81
4, 218204, Note_off_c, 2, 43, 0
4, 218496, Note_on_c, 2, 43, 81
4, 218588, Note_off_c, 2, 43, 0
4, 218880, Note_on_c, 2, 43, 81
4, 218972, Note_off_c, 2, 43, 0
4, 219264, Note_on_c, 2, 43, 81
4, 219356, Note_off_c, 2, 43, 0
4, 219648, Note_on_c, 2, 45, 81
4, 219836, Note_off_c, 2, 45, 0
4, 219840, Note_on_c, 2, 57, 81
4, 220028, Note_off_c, 2, 57, 0
4, 220032, Note_on_c, 2, 57, 81
4, 220220, Note_off_c, 2, 57, 0
4, 220224, Note_on_c, 2, 57, 81
4, 220412, Note_off_c, 2, 57, 0
4, 220416, Note_on_c, 2, 57, 81
4, 220604, Note_off_c, 2, 57, 0
4, 220608, Note_on_c, 2, 57, 81
4, 220796, Note_off_c, 2, 57, 0
4, 220800, Note_on_c, 2, 57, 81
4, 220988, Note_off_c, 2, 57, 0
4, 220992, Note_on_c, 2, 57, 81
4, 221180, Note_off_c, 2, 57, 0
4, 221184, Note_on_c, 2, 45, 80
4, 221372, Note_off_c, 2, 45, 0
4, 221376, Note_on_c, 2, 57, 80
4, 221564, Note_off_c, 2, 57, 0
4, 221568, Note_on_c, 2, 57, 79
4, 221756, Note_off_c, 2, 57, 0
4, 221760, Note_on_c, 2, 57, 79
4, 221948, Note_off_c, 2, 57, 0
4, 221952, Note_on_c, 2, 57, 78
4, 222140, Note_off_c, 2, 57, 0
4, 222144, Note_on_c, 2, 57, 77
4, 222332, Note_off_c, 2, 57, 0
4, 222336, Note_on_c, 2, 57, 77
4, 222524, Note_off_c, 2, 57, 0
4, 222528, Note_on_c, 2, 57, 75
4, 222716, Note_off_c, 2, 57, 0
4, 222720, Note_on_c, 2, 57, 74
4, 222720, Note_on_c, 2, 55, 74
4, 223100, Note_off_c, 2, 57, 0
4, 223100, Note_off_c, 2, 55, 0
4, 223104, Note_on_c, 2, 57, 73
4, 223104, Note_on_c, 2, 54, 73
4, 223484, Note_off_c, 2, 57, 0
4, 223484, Note_off_c, 2, 54, 0
4, 223488, Note_on_c, 2, 57, 72
4, 223488, Note_on_c, 2, 49, 72
4, 223868, Note_off_c, 2, 57, 0
4, 223868, Note_off_c, 2, 49, 0
4, 223872, Note_on_c, 2, 57, 71
4, 224252, Note_off_c, 2, 57, 0
4, 224256, Note_on_c, 2, 57, 69
4, 224256, Note_on_c, 2, 54, 69
4, 224256, Note_on_c, 2, 50, 69
4, 224636, Note_off_c, 2, 57, 0
4, 224636, Note_off_c, 2, 54, 0
4, 224636, Note_off_c, 2, 50, 0
4, 224640, Note_on_c, 2, 66, 69
4, 224640, Note_on_c, 2, 57, 69
4, 225020, Note_off_c, 2, 66, 0
4, 225020, Note_off_c, 2, 57, 0
4, 225024, Note_on_c, 2, 62, 69
4, 225024, Note_on_c, 2, 57, 69
4, 225024, Note_on_c, 2, 50, 69
4, 225404, Note_off_c, 2, 62, 0
4, 225404, Note_off_c, 2, 57, 0
4, 225404, Note_off_c, 2, 50, 0
4, 225408, Note_on_c, 2, 66, 69
4, 225408, Note_on_c, 2, 62, 69
4, 225788, Note_off_c, 2, 66, 0
4, 225788, Note_off_c, 2, 62, 0
4, 225984, Note_on_c, 2, 57, 69
4, 226076, Note_off_c, 2, 57, 0
4, 226176, Note_on_c, 2, 52, 69
4, 226268, Note_off_c, 2, 52, 0
4, 226368, Note_on_c, 2, 49, 69
4, 226460, Note_off_c, 2, 49, 0
4, 226560, Note_on_c, 2, 45, 69
4, 226940, Note_off_c, 2, 45, 0
4, 227328, Note_on_c, 2, 45, 69
4, 227708, Note_off_c, 2, 45, 0
4, 228096, Note_on_c, 2, 45, 69
4, 228476, Note_off_c, 2, 45, 0
4, 229248, Note_on_c, 2, 54, 81
4, 229248, Note_on_c, 2, 46, 81
4, 229628, Note_off_c, 2, 54, 0
4, 229628, Note_off_c, 2, 46, 0
4, 229632, Note_on_c, 2, 54, 78
4, 229632, Note_on_c, 2, 47, 78
4, 230012, Note_off_c, 2, 54, 0
4, 230012, Note_off_c, 2, 47, 0
4, 230016, Note_on_c, 2, 54, 73
4, 230016, Note_on_c, 2, 45, 73
4, 230396, Note_off_c, 2, 54, 0
4, 230396, Note_off_c, 2, 45, 0
4, 230400, Note_on_c, 2, 55, 69
4, 230400, Note_on_c, 2, 43, 69
4, 230780, Note_off_c, 2, 55, 0
4, 230780, Note_off_c, 2, 43, 0
4, 231168, Note_on_c, 2, 55, 69
4, 231168, Note_on_c, 2, 43, 69
4, 231548, Note_off_c, 2, 55, 0
4, 231548, Note_off_c, 2, 43, 0
4, 233664, Note_on_c, 2, 55, 81
4, 233852, Note_off_c, 2, 55, 0
4, 233856, Note_on_c, 2, 55, 81
4, 234044, Note_off_c, 2, 55, 0
4, 234048, Note_on_c, 2, 55, 81
4, 234236, Note_off_c, 2, 55, 0
4, 234240, Note_on_c, 2, 57, 81
4, 234428, Note_off_c, 2, 57, 0
4, 234432, Note_on_c, 2, 57, 81
4, 234620, Note_off_c, 2, 57, 0
4, 234624, Note_on_c, 2, 57, 81
4, 234624, Note_on_c, 2, 45, 81
4, 234812, Note_off_c, 2, 57, 0
4, 234812, Note_off_c, 2, 45, 0
4, 234816, Note_on_c, 2, 57, 81
4, 234816, Note_on_c, 2, 45, 81
4, 235004, Note_off_c, 2, 57, 0
4, 235004, Note_off_c, 2, 45, 0
4, 235008, Note_on_c, 2, 57, 93
4, 235008, Note_on_c, 2, 50, 93
4, 235388, Note_off_c, 2, 57, 0
4, 235388, Note_off_c, 2, 50, 0
4, 235776, Note_on_c, 2, 50, 93
4, 235868, Note_off_c, 2, 50, 0
4, 235968, Note_on_c, 2, 54, 93
4, 236060, Note_off_c, 2, 54, 0
4, 236160, Note_on_c, 2, 57, 93
4, 236252, Note_off_c, 2, 57, 0
4, 236352, Note_on_c, 2, 54, 93
4, 236444, Note_off_c, 2, 54, 0
4, 236544, Note_on_c, 2, 50, 93
4, 236636, Note_off_c, 2, 50, 0
4, 236736, Note_on_c, 2, 54, 93
4, 236828, Note_off_c, 2, 54, 0
4, 236928, Note_on_c, 2, 57, 93
4, 237020, Note_off_c, 2, 57, 0
4, 237120, Note_on_c, 2, 54, 93
4, 237212, Note_off_c, 2, 54, 0
4, 237312, Note_on_c, 2, 55, 93
4, 237404, Note_off_c, 2, 55, 0
4, 237504, Note_on_c, 2, 59, 93
4, 237596, Note_off_c, 2, 59, 0
4, 237696, Note_on_c, 2, 62, 93
4, 237788, Note_off_c, 2, 62, 0
4, 237888, Note_on_c, 2, 59, 93
4, 237980, Note_off_c, 2, 59, 0
4, 238080, Note_on_c, 2, 55, 93
4, 238172, Note_off_c, 2, 55, 0
4, 238272, Note_on_c, 2, 62, 93
4, 238364, Note_off_c, 2, 62, 0
4, 238464, Note_on_c, 2, 55, 93
4, 238556, Note_off_c, 2, 55, 0
4, 238656, Note_on_c, 2, 57, 93
4, 238748, Note_off_c, 2, 57, 0
4, 238848, Note_on_c, 2, 59, 69
4, 239036, Note_off_c, 2, 59, 0
4, 240768, Note_on_c, 2, 57, 69
4, 240956, Note_off_c, 2, 57, 0
4, 240960, Note_on_c, 2, 45, 69
4, 241148, Note_off_c, 2, 45, 0
4, 241152, Note_on_c, 2, 57, 93
4, 241152, Note_on_c, 2, 50, 93
4, 241532, Note_off_c, 2, 57, 0
4, 241532, Note_off_c, 2, 50, 0
4, 241920, Note_on_c, 2, 50, 69
4, 242012, Note_off_c, 2, 50, 0
4, 242304, Note_on_c, 2, 50, 69
4, 242396, Note_off_c, 2, 50, 0
4, 242688, Note_on_c, 2, 50, 93
4, 243068, Note_off_c, 2, 50, 0
4, 243456, Note_on_c, 2, 50, 69
4, 243548, Note_off_c, 2, 50, 0
4, 243840, Note_on_c, 2, 50, 69
4, 243932, Note_off_c, 2, 50, 0
4, 244224, Note_on_c, 2, 50, 69
4, 244796, Note_off_c, 2, 50, 0
4, 253248, Note_on_c, 2, 49, 81
4, 253436, Note_off_c, 2, 49, 0
4, 253440, Note_on_c, 2, 50, 81
4, 253532, Note_off_c, 2, 50, 0
4, 253824, Note_on_c, 2, 62, 81
4, 253916, Note_off_c, 2, 62, 0
4, 254208, Note_on_c, 2, 61, 81
4, 254300, Note_off_c, 2, 61, 0
4, 254592, Note_on_c, 2, 64, 81
4, 254684, Note_off_c, 2, 64, 0
4, 254976, Note_on_c, 2, 62, 81
4, 255548, Note_off_c, 2, 62, 0
4, 256512, Note_on_c, 2, 50, 69
4, 256700, Note_off_c, 2, 50, 0
4, 256896, Note_on_c, 2, 62, 69
4, 257084, Note_off_c, 2, 62, 0
4, 257280, Note_on_c, 2, 61, 69
4, 257468, Note_off_c, 2, 61, 0
4, 257664, Note_on_c, 2, 64, 69
4, 257852, Note_off_c, 2, 64, 0
4, 258048, Note_on_c, 2, 62, 69
4, 258620, Note_off_c, 2, 62, 0
4, 259584, Note_on_c, 2, 50, 69
4, 260156, Note_off_c, 2, 50, 0
4, 261312, Note_on_c, 2, 42, 81
4, 261500, Note_off_c, 2, 42, 0
4, 261504, Note_on_c, 2, 42, 81
4, 261692, Note_off_c, 2, 42, 0
4, 261696, Note_on_c, 2, 42, 81
4, 261884, Note_off_c, 2, 42, 0
4, 261888, Note_on_c, 2, 42, 81
4, 262076, Note_off_c, 2, 42, 0
4, 262080, Note_on_c, 2, 42, 81
4, 262268, Note_off_c, 2, 42, 0
4, 262272, Note_on_c, 2, 42, 81
4, 262460, Note_off_c, 2, 42, 0
4, 262464, Note_on_c, 2, 42, 81
4, 262652, Note_off_c, 2, 42, 0
4, 262656, Note_on_c, 2, 43, 69
4, 263036, Note_off_c, 2, 43, 0
4, 263232, Note_on_c, 2, 55, 69
4, 263232, Note_on_c, 2, 50, 69
4, 263232, Note_on_c, 2, 43, 69
4, 263420, Note_off_c, 2, 55, 0
4, 263420, Note_off_c, 2, 50, 0
4, 263420, Note_off_c, 2, 43, 0
4, 263424, Note_on_c, 2, 54, 69
4, 263424, Note_on_c, 2, 50, 69
4, 263424, Note_on_c, 2, 45, 69
4, 263804, Note_off_c, 2, 54, 0
4, 263804, Note_off_c, 2, 50, 0
4, 263804, Note_off_c, 2, 45, 0
4, 264000, Note_on_c, 2, 54, 69
4, 264000, Note_on_c, 2, 50, 69
4, 264000, Note_on_c, 2, 45, 69
4, 264188, Note_off_c, 2, 54, 0
4, 264188, Note_off_c, 2, 50, 0
4, 264188, Note_off_c, 2, 45, 0
4, 264192, Note_on_c, 2, 55, 69
4, 264192, Note_on_c, 2, 50, 69
4, 264192, Note_on_c, 2, 47, 69
4, 264572, Note_off_c, 2, 55, 0
4, 264572, Note_off_c, 2, 50, 0
4, 264572, Note_off_c, 2, 47, 0
4, 264768, Note_on_c, 2, 55, 69
4, 264768, Note_on_c, 2, 50, 69
4, 264768, Note_on_c, 2, 47, 69
4, 264956, Note_off_c, 2, 55, 0
4, 264956, Note_off_c, 2, 50, 0
4, 264956, Note_off_c, 2, 47, 0
4, 264960, Note_on_c, 2, 57, 69
4, 264960, Note_on_c, 2, 50, 69
4, 264960, Note_on_c, 2, 45, 69
4, 265340, Note_off_c, 2, 57, 0
4, 265340, Note_off_c, 2, 50, 0
4, 265340, Note_off_c, 2, 45, 0
4, 265536, Note_on_c, 2, 57, 69
4, 265536, Note_on_c, 2, 50, 69
4, 265536, Note_on_c, 2, 45, 69
4, 265724, Note_off_c, 2, 57, 0
4, 265724, Note_off_c, 2, 50, 0
4, 265724, Note_off_c, 2, 45, 0
4, 265728, Note_on_c, 2, 59, 69
4, 265728, Note_on_c, 2, 50, 69
4, 265728, Note_on_c, 2, 43, 69
4, 265916, Note_off_c, 2, 59, 0
4, 265916, Note_off_c, 2, 50, 0
4, 265916, Note_off_c, 2, 43, 0
4, 266112, Note_on_c, 2, 67, 69
4, 266300, Note_off_c, 2, 67, 0
4, 266496, Note_on_c, 2, 67, 69
4, 266684, Note_off_c, 2, 67, 0
4, 266880, Note_on_c, 2, 67, 69
4, 267068, Note_off_c, 2, 67, 0
4, 267264, Note_on_c, 2, 56, 69
4, 267452, Note_off_c, 2, 56, 0
4, 267648, Note_on_c, 2, 68, 69
4, 267836, Note_off_c, 2, 68, 0
4, 268032, Note_on_c, 2, 68, 69
4, 268220, Note_off_c, 2, 68, 0
4, 268416, Note_on_c, 2, 68, 69
4, 268604, Note_off_c, 2, 68, 0
4, 268800, Note_on_c, 2, 57, 81
4, 268800, Note_on_c, 2, 69, 81
4, 269180, Note_off_c, 2, 57, 0
4, 270716, Note_off_c, 2, 69, 0
4, 271104, Note_on_c, 2, 57, 81
4, 271292, Note_off_c, 2, 57, 0
4, 271296, Note_on_c, 2, 57, 81
4, 271484, Note_off_c, 2, 57, 0
4, 271488, Note_on_c, 2, 57, 81
4, 271676, Note_off_c, 2, 57, 0
4, 271680, Note_on_c, 2, 57, 81
4, 271868, Note_off_c, 2, 57, 0
4, 271872, Note_on_c, 2, 57, 93
4, 271872, Note_on_c, 2, 50, 93
4, 272444, Note_off_c, 2, 57, 0
4, 272444, Note_off_c, 2, 50, 0
4, 272640, Note_on_c, 2, 50, 93
4, 272828, Note_off_c, 2, 50, 0
4, 272832, Note_on_c, 2, 62, 93
4, 273020, Note_off_c, 2, 62, 0
4, 273024, Note_on_c, 2, 59, 93
4, 273212, Note_off_c, 2, 59, 0
4, 273216, Note_on_c, 2, 56, 93
4, 273404, Note_off_c, 2, 56, 0
4, 273408, Note_on_c, 2, 57, 93
4, 273788, Note_off_c, 2, 57, 0
4, 274944, Note_on_c, 2, 51, 93
4, 275708, Note_off_c, 2, 51, 0
4, 275712, Note_on_c, 2, 52, 93
4, 276092, Note_off_c, 2, 52, 0
4, 276096, Note_on_c, 2, 49, 93
4, 276476, Note_off_c, 2, 49, 0
4, 276480, Note_on_c, 2, 50, 69
4, 276860, Note_off_c, 2, 50, 0
4, 276864, Note_on_c, 2, 43, 69
4, 277244, Note_off_c, 2, 43, 0
4, 277248, Note_on_c, 2, 45, 69
4, 277628, Note_off_c, 2, 45, 0
4, 277632, Note_on_c, 2, 45, 69
4, 278012, Note_off_c, 2, 45, 0
4, 278016, Note_on_c, 2, 50, 69
4, 278016, Note_on_c, 2, 38, 69
4, 278396, Note_off_c, 2, 50, 0
4, 278396, Note_off_c, 2, 38, 0
4, 278784, Note_on_c, 2, 50, 69
4, 279164, Note_off_c, 2, 50, 0
4, 279168, Note_on_c, 2, 54, 69
4, 279548, Note_off_c, 2, 54, 0
4, 279552, Note_on_c, 2, 55, 93
4, 279552, Note_on_c, 2, 52, 93
4, 279740, Note_off_c, 2, 55, 0
4, 279740, Note_off_c, 2, 52, 0
4, 279744, Note_on_c, 2, 52, 93
4, 279744, Note_on_c, 2, 49, 93
4, 279932, Note_off_c, 2, 52, 0
4, 279932, Note_off_c, 2, 49, 0
4, 279936, Note_on_c, 2, 49, 93
4, 279936, Note_on_c, 2, 45, 93
4, 280316, Note_off_c, 2, 49, 0
4, 280316, Note_off_c, 2, 45, 0
4, 280320, Note_on_c, 2, 57, 93
4, 280700, Note_off_c, 2, 57, 0
4, 280704, Note_on_c, 2, 55, 93
4, 281084, Note_off_c, 2, 55, 0
4, 281088, Note_on_c, 2, 54, 93
4, 281468, Note_off_c, 2, 54, 0
4, 281472, Note_on_c, 2, 49, 93
4, 281852, Note_off_c, 2, 49, 0
4, 281856, Note_on_c, 2, 50, 93
4, 282236, Note_off_c, 2, 50, 0
4, 282240, Note_on_c, 2, 59, 93
4, 282240, Note_on_c, 2, 43, 93
4, 282620, Note_off_c, 2, 59, 0
4, 282620, Note_off_c, 2, 43, 0
4, 282816, Note_on_c, 2, 44, 93
4, 283004, Note_off_c, 2, 44, 0
4, 283008, Note_on_c, 2, 45, 93
4, 283196, Note_off_c, 2, 45, 0
4, 283200, Note_on_c, 2, 44, 93
4, 283388, Note_off_c, 2, 44, 0
4, 283392, Note_on_c, 2, 45, 93
4, 283772, Note_off_c, 2, 45, 0
4, 283776, Note_on_c, 2, 55, 93
4, 283776, Note_on_c, 2, 52, 93
4, 283776, Note_on_c, 2, 49, 93
4, 284156, Note_off_c, 2, 55, 0
4, 284156, Note_off_c, 2, 52, 0
4, 284156, Note_off_c, 2, 49, 0
4, 284544, Note_on_c, 2, 53, 93
4, 284544, Note_on_c, 2, 50, 93
4, 284924, Note_off_c, 2, 53, 0
4, 284924, Note_off_c, 2, 50, 0
4, 285312, Note_on_c, 2, 53, 93
4, 285692, Note_off_c, 2, 53, 0
4, 285696, Note_on_c, 2, 55, 93
4, 285696, Note_on_c, 2, 52, 93
4, 285884, Note_off_c, 2, 55, 0
4, 285884, Note_off_c, 2, 52, 0
4, 285888, Note_on_c, 2, 52, 93
4, 285888, Note_on_c, 2, 49, 93
4, 286076, Note_off_c, 2, 52, 0
4, 286076, Note_off_c, 2, 49, 0
4, 286080, Note_on_c, 2, 49, 93
4, 286080, Note_on_c, 2, 45, 93
4, 286460, Note_off_c, 2, 49, 0
4, 286460, Note_off_c, 2, 45, 0
4, 286464, Note_on_c, 2, 57, 93
4, 286844, Note_off_c, 2, 57, 0
4, 286848, Note_on_c, 2, 55, 93
4, 287228, Note_off_c, 2, 55, 0
4, 287232, Note_on_c, 2, 53, 93
4, 287804, Note_off_c, 2, 53, 0
4, 288768, Note_on_c, 2, 57, 93
4, 288960, Note_on_c, 2, 65, 93
4, 289148, Note_off_c, 2, 65, 0
4, 289152, Note_on_c, 2, 64, 93
4, 289340, Note_off_c, 2, 64, 0
4, 289344, Note_on_c, 2, 62, 93
4, 289532, Note_off_c, 2, 57, 0
4, 289532, Note_off_c, 2, 62, 0
4, 289536, Note_on_c, 2, 61, 93
4, 289536, Note_on_c, 2, 57, 93
4, 289916, Note_off_c, 2, 61, 0
4, 289916, Note_off_c, 2, 57, 0
4, 290304, Note_on_c, 2, 62, 69
4, 290304, Note_on_c, 2, 50, 69
4, 290684, Note_off_c, 2, 62, 0
4, 290684, Note_off_c, 2, 50, 0
4, 291072, Note_on_c, 2, 45, 69
4, 291264, Note_on_c, 2, 57, 69
4, 291452, Note_off_c, 2, 45, 0
4, 291452, Note_off_c, 2, 57, 0
4, 291456, Note_on_c, 2, 57, 69
4, 291644, Note_off_c, 2, 57, 0
4, 291648, Note_on_c, 2, 57, 69
4, 291836, Note_off_c, 2, 57, 0
4, 291840, Note_on_c, 2, 62, 69
4, 291840, Note_on_c, 2, 50, 69
4, 292220, Note_off_c, 2, 62, 0
4, 292220, Note_off_c, 2, 50, 0
4, 292224, Note_on_c, 2, 57, 69
4, 292412, Note_off_c, 2, 57, 0
4, 292608, Note_on_c, 2, 45, 69
4, 292988, Note_off_c, 2, 45, 0
4, 293376, Note_on_c, 2, 50, 69
4, 293756, Note_off_c, 2, 50, 0
4, 297984, Note_on_c, 2, 54, 81
4, 298172, Note_off_c, 2, 54, 0
4, 298176, Note_on_c, 2, 54, 81
4, 298364, Note_off_c, 2, 54, 0
4, 298368, Note_on_c, 2, 54, 81
4, 298556, Note_off_c, 2, 54, 0
4, 298560, Note_on_c, 2, 54, 81
4, 298748, Note_off_c, 2, 54, 0
4, 298752, Note_on_c, 2, 54, 81
4, 298940, Note_off_c, 2, 54, 0
4, 298944, Note_on_c, 2, 54, 81
4, 299132, Note_off_c, 2, 54, 0
4, 299136, Note_on_c, 2, 54, 81
4, 299324, Note_off_c, 2, 54, 0
4, 299328, Note_on_c, 2, 54, 81
4, 299516, Note_off_c, 2, 54, 0
4, 299520, Note_on_c, 2, 55, 81
4, 299708, Note_off_c, 2, 55, 0
4, 299712, Note_on_c, 2, 55, 81
4, 299900, Note_off_c, 2, 55, 0
4, 299904, Note_on_c, 2, 55, 81
4, 300092, Note_off_c, 2, 55, 0
4, 300096, Note_on_c, 2, 55, 81
4, 300284, Note_off_c, 2, 55, 0
4, 300288, Note_on_c, 2, 55, 81
4, 300476, Note_off_c, 2, 55, 0
4, 300480, Note_on_c, 2, 55, 81
4, 300668, Note_off_c, 2, 55, 0
4, 300672, Note_on_c, 2, 55, 81
4, 300860, Note_off_c, 2, 55, 0
4, 300864, Note_on_c, 2, 55, 81
4, 301052, Note_off_c, 2, 55, 0
4, 301056, Note_on_c, 2, 57, 81
4, 301244, Note_off_c, 2, 57, 0
4, 301248, Note_on_c, 2, 59, 81
4, 301436, Note_off_c, 2, 59, 0
4, 301440, Note_on_c, 2, 57, 81
4, 301628, Note_off_c, 2, 57, 0
4, 301632, Note_on_c, 2, 55, 81
4, 301820, Note_off_c, 2, 55, 0
4, 301824, Note_on_c, 2, 57, 81
4, 302012, Note_off_c, 2, 57, 0
4, 302016, Note_on_c, 2, 57, 81
4, 302204, Note_off_c, 2, 57, 0
4, 302208, Note_on_c, 2, 57, 81
4, 302396, Note_off_c, 2, 57, 0
4, 302400, Note_on_c, 2, 57, 81
4, 302588, Note_off_c, 2, 57, 0
4, 302592, Note_on_c, 2, 50, 69
4, 302780, Note_off_c, 2, 50, 0
4, 302976, Note_on_c, 2, 50, 69
4, 303164, Note_off_c, 2, 50, 0
4, 303360, Note_on_c, 2, 50, 69
4, 303548, Note_off_c, 2, 50, 0
4, 303744, Note_on_c, 2, 50, 69
4, 303932, Note_off_c, 2, 50, 0
4, 304128, Note_on_c, 2, 55, 69
4, 304128, Note_on_c, 2, 43, 69
4, 304316, Note_off_c, 2, 55, 0
4, 304316, Note_off_c, 2, 43, 0
4, 304512, Note_on_c, 2, 55, 69
4, 304700, Note_off_c, 2, 55, 0
4, 304896, Note_on_c, 2, 55, 69
4, 305084, Note_off_c, 2, 55, 0
4, 305280, Note_on_c, 2, 55, 69
4, 305468, Note_off_c, 2, 55, 0
4, 305664, Note_on_c, 2, 45, 93
4, 305852, Note_off_c, 2, 45, 0
4, 306432, Note_on_c, 2, 45, 93
4, 306620, Note_off_c, 2, 45, 0
4, 307200, Note_on_c, 2, 50, 81
4, 307580, Note_off_c, 2, 50, 0
4, 307584, Note_on_c, 2, 50, 81
4, 307584, Note_on_c, 2, 62, 81
4, 307868, Note_off_c, 2, 50, 0
4, 307868, Note_off_c, 2, 62, 0
4, 307872, Note_on_c, 2, 62, 81
4, 307872, Note_on_c, 2, 50, 81
4, 307964, Note_off_c, 2, 62, 0
4, 307964, Note_off_c, 2, 50, 0
4, 307968, Note_on_c, 2, 62, 81
4, 307968, Note_on_c, 2, 50, 81
4, 308156, Note_off_c, 2, 62, 0
4, 308156, Note_off_c, 2, 50, 0
4, 308160, Note_on_c, 2, 62, 81
4, 308160, Note_on_c, 2, 50, 81
4, 308348, Note_off_c, 2, 62, 0
4, 308348, Note_off_c, 2, 50, 0
4, 308352, Note_on_c, 2, 62, 81
4, 308352, Note_on_c, 2, 50, 81
4, 308540, Note_off_c, 2, 62, 0
4, 308540, Note_off_c, 2, 50, 0
4, 308544, Note_on_c, 2, 62, 81
4, 308544, Note_on_c, 2, 50, 81
4, 308732, Note_off_c, 2, 62, 0
4, 308732, Note_off_c, 2, 50, 0
4, 308736, Note_on_c, 2, 62, 81
4, 308736, Note_on_c, 2, 55, 81
4, 309116, Note_off_c, 2, 62, 0
4, 309116, Note_off_c, 2, 55, 0
4, 309120, Note_on_c, 2, 62, 81
4, 309120, Note_on_c, 2, 50, 81
4, 309404, Note_off_c, 2, 62, 0
4, 309404, Note_off_c, 2, 50, 0
4, 309408, Note_on_c, 2, 62, 81
4, 309408, Note_on_c, 2, 50, 81
4, 309500, Note_off_c, 2, 62, 0
4, 309500, Note_off_c, 2, 50, 0
4, 309504, Note_on_c, 2, 62, 81
4, 309504, Note_on_c, 2, 50, 81
4, 309692, Note_off_c, 2, 62, 0
4, 309692, Note_off_c, 2, 50, 0
4, 309696, Note_on_c, 2, 47, 81
4, 309884, Note_off_c, 2, 47, 0
4, 309904, Note_on_c, 2, 50, 81
4, 310080, Note_on_c, 2, 44, 81
4, 310092, Note_off_c, 2, 50, 0
4, 310268, Note_off_c, 2, 44, 0
4, 310272, Note_on_c, 2, 45, 81
4, 310844, Note_off_c, 2, 45, 0
4, 316416, Note_on_c, 2, 45, 81
4, 316604, Note_off_c, 2, 45, 0
4, 316608, Note_on_c, 2, 45, 81
4, 316796, Note_off_c, 2, 45, 0
4, 316800, Note_on_c, 2, 45, 81
4, 316988, Note_off_c, 2, 45, 0
4, 316992, Note_on_c, 2, 45, 81
4, 317180, Note_off_c, 2, 45, 0
4, 317184, Note_on_c, 2, 45, 81
4, 317372, Note_off_c, 2, 45, 0
4, 317376, Note_on_c, 2, 45, 81
4, 317564, Note_off_c, 2, 45, 0
4, 317568, Note_on_c, 2, 45, 81
4, 317756, Note_off_c, 2, 45, 0
4, 317760, Note_on_c, 2, 45, 81
4, 317948, Note_off_c, 2, 45, 0
4, 317952, Note_on_c, 2, 45, 81
4, 318140, Note_off_c, 2, 45, 0
4, 318144, Note_on_c, 2, 45, 81
4, 318332, Note_off_c, 2, 45, 0
4, 318336, Note_on_c, 2, 45, 81
4, 318524, Note_off_c, 2, 45, 0
4, 318528, Note_on_c, 2, 45, 81
4, 318716, Note_off_c, 2, 45, 0
4, 318720, Note_on_c, 2, 57, 81
4, 318720, Note_on_c, 2, 45, 81
4, 318908, Note_off_c, 2, 57, 0
4, 318908, Note_off_c, 2, 45, 0
4, 318912, Note_on_c, 2, 57, 81
4, 318912, Note_on_c, 2, 45, 81
4, 319100, Note_off_c, 2, 57, 0
4, 319100, Note_off_c, 2, 45, 0
4, 319104, Note_on_c, 2, 57, 81
4, 319104, Note_on_c, 2, 45, 81
4, 319292, Note_off_c, 2, 57, 0
4, 319292, Note_off_c, 2, 45, 0
4, 319296, Note_on_c, 2, 57, 81
4, 319296, Note_on_c, 2, 45, 81
4, 319484, Note_off_c, 2, 57, 0
4, 319484, Note_off_c, 2, 45, 0
4, 319488, Note_on_c, 2, 50, 93
4, 319488, Note_on_c, 2, 38, 93
4, 319868, Note_off_c, 2, 50, 0
4, 319868, Note_off_c, 2, 38, 0
4, 320256, Note_on_c, 2, 50, 93
4, 320444, Note_off_c, 2, 50, 0
4, 320448, Note_on_c, 2, 54, 93
4, 320636, Note_off_c, 2, 54, 0
4, 320640, Note_on_c, 2, 57, 93
4, 320828, Note_off_c, 2, 57, 0
4, 320832, Note_on_c, 2, 54, 93
4, 321020, Note_off_c, 2, 54, 0
4, 321024, Note_on_c, 2, 50, 93
4, 321212, Note_off_c, 2, 50, 0
4, 321216, Note_on_c, 2, 54, 93
4, 321404, Note_off_c, 2, 54, 0
4, 321408, Note_on_c, 2, 57, 93
4, 321596, Note_off_c, 2, 57, 0
4, 321600, Note_on_c, 2, 54, 93
4, 321788, Note_off_c, 2, 54, 0
4, 321792, Note_on_c, 2, 55, 93
4, 321980, Note_off_c, 2, 55, 0
4, 321984, Note_on_c, 2, 59, 93
4, 322172, Note_off_c, 2, 59, 0
4, 322176, Note_on_c, 2, 62, 93
4, 322364, Note_off_c, 2, 62, 0
4, 322368, Note_on_c, 2, 59, 93
4, 322556, Note_off_c, 2, 59, 0
4, 322560, Note_on_c, 2, 55, 93
4, 322748, Note_off_c, 2, 55, 0
4, 322752, Note_on_c, 2, 62, 93
4, 322940, Note_off_c, 2, 62, 0
4, 322944, Note_on_c, 2, 55, 93
4, 323132, Note_off_c, 2, 55, 0
4, 323136, Note_on_c, 2, 57, 93
4, 323324, Note_off_c, 2, 57, 0
4, 323328, Note_on_c, 2, 59, 93
4, 323708, Note_off_c, 2, 59, 0
4, 323712, Note_on_c, 2, 47, 93
4, 323900, Note_off_c, 2, 47, 0
4, 323904, Note_on_c, 2, 59, 93
4, 324092, Note_off_c, 2, 59, 0
4, 324096, Note_on_c, 2, 54, 93
4, 324476, Note_off_c, 2, 54, 0
4, 324480, Note_on_c, 2, 42, 93
4, 324668, Note_off_c, 2, 42, 0
4, 324672, Note_on_c, 2, 54, 93
4, 324860, Note_off_c, 2, 54, 0
4, 324864, Note_on_c, 2, 55, 93
4, 325244, Note_off_c, 2, 55, 0
4, 325248, Note_on_c, 2, 64, 93
4, 325248, Note_on_c, 2, 62, 93
4, 325248, Note_on_c, 2, 56, 93
4, 325628, Note_off_c, 2, 64, 0
4, 325628, Note_off_c, 2, 62, 0
4, 325628, Note_off_c, 2, 56, 0
4, 325632, Note_on_c, 2, 66, 93
4, 325632, Note_on_c, 2, 62, 93
4, 325632, Note_on_c, 2, 57, 93
4, 326396, Note_off_c, 2, 66, 0
4, 326396, Note_off_c, 2, 62, 0
4, 326396, Note_off_c, 2, 57, 0
4, 410112, Note_on_c, 2, 38, 93
4, 410204, Note_off_c, 2, 38, 0
4, 410208, Note_on_c, 2, 50, 93
4, 410300, Note_off_c, 2, 50, 0
4, 410304, Note_on_c, 2, 42, 93
4, 410396, Note_off_c, 2, 42, 0
4, 410400, Note_on_c, 2, 50, 93
4, 410492, Note_off_c, 2, 50, 0
4, 410496, Note_on_c, 2, 45, 93
4, 410588, Note_off_c, 2, 45, 0
4, 410592, Note_on_c, 2, 50, 93
4, 410684, Note_off_c, 2, 50, 0
4, 410688, Note_on_c, 2, 42, 93
4, 410780, Note_off_c, 2, 42, 0
4, 410784, Note_on_c, 2, 50, 93
4, 410876, Note_off_c, 2, 50, 0
4, 410880, Note_on_c, 2, 38, 93
4, 410972, Note_off_c, 2, 38, 0
4, 410976, Note_on_c, 2, 50, 93
4, 411068, Note_off_c, 2, 50, 0
4, 411072, Note_on_c, 2, 42, 93
4, 411164, Note_off_c, 2, 42, 0
4, 411168, Note_on_c, 2, 50, 93
4, 411260, Note_off_c, 2, 50, 0
4, 411264, Note_on_c, 2, 45, 93
4, 411356, Note_off_c, 2, 45, 0
4, 411360, Note_on_c, 2, 50, 93
4, 411452, Note_off_c, 2, 50, 0
4, 411456, Note_on_c, 2, 38, 93
4, 411548, Note_off_c, 2, 38, 0
4, 411552, Note_on_c, 2, 50, 93
4, 411644, Note_off_c, 2, 50, 0
4, 411648, Note_on_c, 2, 43, 93
4, 411740, Note_off_c, 2, 43, 0
4, 411744, Note_on_c, 2, 50, 93
4, 411836, Note_off_c, 2, 50, 0
4, 411840, Note_on_c, 2, 47, 93
4, 411932, Note_off_c, 2, 47, 0
4, 411936, Note_on_c, 2, 50, 93
4, 412028, Note_off_c, 2, 50, 0
4, 412032, Note_on_c, 2, 43, 93
4, 412124, Note_off_c, 2, 43, 0
4, 412128, Note_on_c, 2, 52, 93
4, 412220, Note_off_c, 2, 52, 0
4, 412224, Note_on_c, 2, 50, 93
4, 412316, Note_off_c, 2, 50, 0
4, 412320, Note_on_c, 2, 52, 93
4, 412412, Note_off_c, 2, 52, 0
4, 412416, Note_on_c, 2, 45, 93
4, 412508, Note_off_c, 2, 45, 0
4, 412512, Note_on_c, 2, 54, 93
4, 412604, Note_off_c, 2, 54, 0
4, 412608, Note_on_c, 2, 50, 93
4, 412700, Note_off_c, 2, 50, 0
4, 412704, Note_on_c, 2, 54, 93
4, 412796, Note_off_c, 2, 54, 0
4, 412800, Note_on_c, 2, 45, 93
4, 412892, Note_off_c, 2, 45, 0
4, 412896, Note_on_c, 2, 52, 93
4, 412988, Note_off_c, 2, 52, 0
4, 412992, Note_on_c, 2, 49, 93
4, 413084, Note_off_c, 2, 49, 0
4, 413088, Note_on_c, 2, 52, 93
4, 413180, Note_off_c, 2, 52, 0
4, 413184, Note_on_c, 2, 38, 93
4, 413276, Note_off_c, 2, 38, 0
4, 413280, Note_on_c, 2, 50, 93
4, 413372, Note_off_c, 2, 50, 0
4, 413376, Note_on_c, 2, 42, 93
4, 413468, Note_off_c, 2, 42, 0
4, 413472, Note_on_c, 2, 50, 93
4, 413564, Note_off_c, 2, 50, 0
4, 413568, Note_on_c, 2, 45, 93
4, 413660, Note_off_c, 2, 45, 0
4, 413664, Note_on_c, 2, 50, 93
4, 413756, Note_off_c, 2, 50, 0
4, 413760, Note_on_c, 2, 42, 93
4, 413852, Note_off_c, 2, 42, 0
4, 413856, Note_on_c, 2, 50, 93
4, 413948, Note_off_c, 2, 50, 0
4, 413952, Note_on_c, 2, 38, 93
4, 414044, Note_off_c, 2, 38, 0
4, 414048, Note_on_c, 2, 50, 93
4, 414140, Note_off_c, 2, 50, 0
4, 414144, Note_on_c, 2, 42, 93
4, 414236, Note_off_c, 2, 42, 0
4, 414240, Note_on_c, 2, 50, 93
4, 414332, Note_off_c, 2, 50, 0
4, 414336, Note_on_c, 2, 45, 93
4, 414428, Note_off_c, 2, 45, 0
4, 414432, Note_on_c, 2, 50, 93
4, 414524, Note_off_c, 2, 50, 0
4, 414528, Note_on_c, 2, 38, 93
4, 414620, Note_off_c, 2, 38, 0
4, 414624, Note_on_c, 2, 50, 93
4, 414716, Note_off_c, 2, 50, 0
4, 414720, Note_on_c, 2, 43, 93
4, 414812, Note_off_c, 2, 43, 0
4, 414816, Note_on_c, 2, 50, 93
4, 414908, Note_off_c, 2, 50, 0
4, 414912, Note_on_c, 2, 47, 93
4, 415004, Note_off_c, 2, 47, 0
4, 415008, Note_on_c, 2, 50, 93
4, 415100, Note_off_c, 2, 50, 0
4, 415104, Note_on_c, 2, 44, 93
4, 415196, Note_off_c, 2, 44, 0
4, 415200, Note_on_c, 2, 52, 93
4, 415292, Note_off_c, 2, 52, 0
4, 415296, Note_on_c, 2, 50, 93
4, 415388, Note_off_c, 2, 50, 0
4, 415392, Note_on_c, 2, 52, 93
4, 415484, Note_off_c, 2, 52, 0
4, 415488, Note_on_c, 2, 45, 93
4, 415580, Note_off_c, 2, 45, 0
4, 415584, Note_on_c, 2, 52, 93
4, 415676, Note_off_c, 2, 52, 0
4, 415680, Note_on_c, 2, 49, 93
4, 415772, Note_off_c, 2, 49, 0
4, 415776, Note_on_c, 2, 52, 93
4, 415868, Note_off_c, 2, 52, 0
4, 415872, Note_on_c, 2, 45, 93
4, 415964, Note_off_c, 2, 45, 0
4, 415968, Note_on_c, 2, 57, 93
4, 416060, Note_off_c, 2, 57, 0
4, 416064, Note_on_c, 2, 45, 93
4, 416156, Note_off_c, 2, 45, 0
4, 416160, Note_on_c, 2, 57, 93
4, 416252, Note_off_c, 2, 57, 0
4, 416256, Note_on_c, 2, 54, 69
4, 416256, Note_on_c, 2, 50, 69
4, 416636, Note_off_c, 2, 54, 0
4, 416636, Note_off_c, 2, 50, 0
4, 416640, Note_on_c, 2, 50, 69
4, 416828, Note_off_c, 2, 50, 0
4, 416832, Note_on_c, 2, 50, 69
4, 417020, Note_off_c, 2, 50, 0
4, 417024, Note_on_c, 2, 50, 69
4, 417024, Note_on_c, 2, 45, 69
4, 417212, Note_off_c, 2, 50, 0
4, 417216, Note_on_c, 2, 49, 69
4, 417404, Note_off_c, 2, 45, 0
4, 417404, Note_off_c, 2, 49, 0
4, 417408, Note_on_c, 2, 52, 69
4, 417596, Note_off_c, 2, 52, 0
4, 417600, Note_on_c, 2, 55, 69
4, 417788, Note_off_c, 2, 55, 0
4, 417792, Note_on_c, 2, 54, 69
4, 417792, Note_on_c, 2, 50, 69
4, 417980, Note_off_c, 2, 54, 0
4, 417984, Note_on_c, 2, 57, 69
4, 418172, Note_off_c, 2, 50, 0
4, 418172, Note_off_c, 2, 57, 0
4, 418176, Note_on_c, 2, 54, 69
4, 418364, Note_off_c, 2, 54, 0
4, 418368, Note_on_c, 2, 50, 69
4, 418556, Note_off_c, 2, 50, 0
4, 418560, Note_on_c, 2, 50, 69
4, 418560, Note_on_c, 2, 45, 69
4, 418748, Note_off_c, 2, 50, 0
4, 418752, Note_on_c, 2, 49, 69
4, 418940, Note_off_c, 2, 45, 0
4, 418940, Note_off_c, 2, 49, 0
4, 418944, Note_on_c, 2, 52, 69
4, 419132, Note_off_c, 2, 52, 0
4, 419136, Note_on_c, 2, 55, 69
4, 419324, Note_off_c, 2, 55, 0
4, 419328, Note_on_c, 2, 54, 69
4, 419328, Note_on_c, 2, 50, 69
4, 419708, Note_off_c, 2, 54, 0
4, 419708, Note_off_c, 2, 50, 0
4, 420096, Note_on_c, 2, 57, 93
4, 420096, Note_on_c, 2, 54, 93
4, 420096, Note_on_c, 2, 62, 93
4, 420476, Note_off_c, 2, 57, 0
4, 420476, Note_off_c, 2, 54, 0
4, 420476, Note_off_c, 2, 62, 0
4, 420480, Note_on_c, 2, 66, 93
4, 420480, Note_on_c, 2, 62, 93
4, 420480, Note_on_c, 2, 57, 93
4, 420860, Note_off_c, 2, 66, 0
4, 420860, Note_off_c, 2, 62, 0
4, 420860, Note_off_c, 2, 57, 0
4, 420864, Note_on_c, 2, 62, 93
4, 420864, Note_on_c, 2, 57, 93
4, 420864, Note_on_c, 2, 54, 93
4, 420864, Note_on_c, 2, 50, 93
4, 421244, Note_off_c, 2, 62, 0
4, 421244, Note_off_c, 2, 57, 0
4, 421244, Note_off_c, 2, 54, 0
4, 421244, Note_off_c, 2, 50, 0
4, 421248, Note_on_c, 2, 50, 93
4, 421248, Note_on_c, 2, 38, 93
4, 421532, Note_off_c, 2, 50, 0
4, 421532, Note_off_c, 2, 38, 0
4, 421536, Note_on_c, 2, 50, 93
4, 421536, Note_on_c, 2, 38, 93
4, 421628, Note_off_c, 2, 50, 0
4, 421628, Note_off_c, 2, 38, 0
4, 421632, Note_on_c, 2, 50, 93
4, 421632, Note_on_c, 2, 38, 93
4, 422012, Note_off_c, 2, 50, 0
4, 422012, Note_off_c, 2, 38, 0
4, 422012, End_track
5, 0, Start_track
5, 0, Key_signature, 0, "major"
5, 0, End_track
6, 0, Start_track
6, 0, Key_signature, 0, "major"
6, 0, End_track
7, 0, Start_track
7, 0, Key_signature, 0, "major"
7, 0, End_track
8, 0, Start_track
8, 0, Key_signature, 0, "major"
8, 0, End_track
0, 0, End_of_file
