0, 0, Header, 1, 16, 384
1, 0, Start_track
1, 0, Time_signature, 4, 2, 96, 8
1, 0, Sequencer_specific, 3, 0, 0, 65
1, 0, Tempo, 454545
1, 24576, Tempo, 526315
1, 25680, Tempo, 454545
1, 84480, Tempo, 526315
1, 85584, Tempo, 454545
1, 147072, Tempo, 545454
1, 148608, Tempo, 454545
1, 179712, Tempo, 526315
1, 180816, Tempo, 454545
1, 231936, Tempo, 526315
1, 231936, End_track
2, 0, Start_track
2, 0, Title_t, "Mozart"
2, 0, Control_c, 0, 0, 0
2, 0, Program_c, 0, 0
2, 0, Control_c, 0, 7, 80
2, 0, Control_c, 0, 10, 79
2, 0, Control_c, 0, 91, 127
2, 0, Control_c, 0, 93, 127
2, 0, Key_signature, 2, "major"
2, 0, Control_c, 0, 121, 0
2, 144, Control_c, 0, 10, 73
2, 192, Control_c, 0, 91, 63
2, 240, Control_c, 0, 93, 40
2, 288, Program_c, 0, 0
2, 1536, Note_on_c, 0, 74, 90
2, 1536, Note_on_c, 0, 69, 90
2, 1536, Note_on_c, 0, 66, 90
2, 1792, Note_off_c, 0, 74, 100
2, 1792, Note_off_c, 0, 69, 100
2, 1792, Note_off_c, 0, 66, 100
2, 2304, Note_on_c, 0, 79, 90
2, 2304, Note_on_c, 0, 66, 90
2, 2304, Note_on_c, 0, 62, 90
2, 2368, Note_off_c, 0, 79, 100
2, 2400, Note_on_c, 0, 78, 90
2, 2464, Note_off_c, 0, 78, 100
2, 2496, Note_on_c, 0, 76, 90
2, 2560, Note_off_c, 0, 66, 100
2, 2560, Note_off_c, 0, 62, 100
2, 2560, Note_off_c, 0, 76, 100
2, 2592, Note_on_c, 0, 78, 90
2, 2656, Note_off_c, 0, 78, 100
2, 2688, Note_on_c, 0, 81, 90
2, 2688, Note_on_c, 0, 67, 90
2, 2688, Note_on_c, 0, 64, 90
2, 2752, Note_off_c, 0, 81, 100
2, 2784, Note_on_c, 0, 79, 90
2, 2848, Note_off_c, 0, 79, 100
2, 2880, Note_on_c, 0, 78, 90
2, 2944, Note_off_c, 0, 67, 100
2, 2944, Note_off_c, 0, 64, 100
2, 2944, Note_off_c, 0, 78, 100
2, 2976, Note_on_c, 0, 79, 90
2, 3040, Note_off_c, 0, 79, 100
2, 3072, Note_on_c, 0, 81, 90
2, 3072, Note_on_c, 0, 69, 90
2, 3072, Note_on_c, 0, 66, 90
2, 3328, Note_off_c, 0, 81, 100
2, 3328, Note_off_c, 0, 69, 100
2, 3328, Note_off_c, 0, 66, 100
2, 3840, Note_on_c, 0, 81, 60
2, 3968, Note_off_c, 0, 81, 100
2, 4032, Note_on_c, 0, 83, 60
2, 4160, Note_off_c, 0, 83, 100
2, 4224, Note_on_c, 0, 85, 60
2, 4352, Note_off_c, 0, 85, 100
2, 4416, Note_on_c, 0, 86, 60
2, 4544, Note_off_c, 0, 86, 100
2, 4608, Note_on_c, 0, 81, 60
2, 4864, Note_off_c, 0, 81, 100
2, 4992, Note_on_c, 0, 78, 60
2, 5248, Note_off_c, 0, 78, 100
2, 5376, Note_on_c, 0, 81, 60
2, 5440, Note_off_c, 0, 81, 100
2, 5472, Note_on_c, 0, 79, 60
2, 5536, Note_off_c, 0, 79, 100
2, 5568, Note_on_c, 0, 78, 60
2, 5632, Note_off_c, 0, 78, 100
2, 5664, Note_on_c, 0, 79, 60
2, 5728, Note_off_c, 0, 79, 100
2, 5760, Note_on_c, 0, 81, 60
2, 5888, Note_off_c, 0, 81, 100
2, 5952, Note_on_c, 0, 79, 60
2, 6080, Note_off_c, 0, 79, 100
2, 6144, Note_on_c, 0, 77, 60
2, 6332, Note_off_c, 0, 77, 0
2, 6336, Note_on_c, 0, 78, 60
2, 6464, Note_off_c, 0, 78, 100
2, 6912, Note_on_c, 0, 66, 90
2, 6912, Note_on_c, 0, 62, 90
2, 6912, Note_on_c, 0, 79, 90
2, 6976, Note_off_c, 0, 79, 100
2, 7008, Note_on_c, 0, 78, 90
2, 7072, Note_off_c, 0, 78, 100
2, 7104, Note_on_c, 0, 76, 90
2, 7168, Note_off_c, 0, 66, 100
2, 7168, Note_off_c, 0, 62, 100
2, 7168, Note_off_c, 0, 76, 100
2, 7200, Note_on_c, 0, 78, 90
2, 7264, Note_off_c, 0, 78, 100
2, 7296, Note_on_c, 0, 81, 90
2, 7296, Note_on_c, 0, 67, 90
2, 7296, Note_on_c, 0, 64, 90
2, 7360, Note_off_c, 0, 81, 100
2, 7392, Note_on_c, 0, 79, 90
2, 7456, Note_off_c, 0, 79, 100
2, 7488, Note_on_c, 0, 78, 90
2, 7552, Note_off_c, 0, 67, 100
2, 7552, Note_off_c, 0, 64, 100
2, 7552, Note_off_c, 0, 78, 100
2, 7584, Note_on_c, 0, 79, 90
2, 7648, Note_off_c, 0, 79, 100
2, 7680, Note_on_c, 0, 81, 90
2, 7680, Note_on_c, 0, 66, 90
2, 7680, Note_on_c, 0, 69, 90
2, 7936, Note_off_c, 0, 81, 100
2, 7936, Note_off_c, 0, 66, 100
2, 7936, Note_off_c, 0, 69, 100
2, 8448, Note_on_c, 0, 81, 60
2, 8576, Note_off_c, 0, 81, 100
2, 8640, Note_on_c, 0, 83, 60
2, 8768, Note_off_c, 0, 83, 100
2, 8832, Note_on_c, 0, 85, 60
2, 8960, Note_off_c, 0, 85, 100
2, 9024, Note_on_c, 0, 86, 60
2, 9152, Note_off_c, 0, 86, 100
2, 9216, Note_on_c, 0, 81, 60
2, 9472, Note_off_c, 0, 81, 100
2, 9600, Note_on_c, 0, 78, 60
2, 9856, Note_off_c, 0, 78, 100
2, 9984, Note_on_c, 0, 81, 60
2, 10048, Note_off_c, 0, 81, 100
2, 10080, Note_on_c, 0, 79, 60
2, 10144, Note_off_c, 0, 79, 100
2, 10176, Note_on_c, 0, 78, 60
2, 10240, Note_off_c, 0, 78, 100
2, 10272, Note_on_c, 0, 79, 60
2, 10336, Note_off_c, 0, 79, 100
2, 10368, Note_on_c, 0, 81, 60
2, 10432, Note_off_c, 0, 81, 100
2, 10464, Note_on_c, 0, 79, 60
2, 10528, Note_off_c, 0, 79, 100
2, 10560, Note_on_c, 0, 78, 60
2, 10624, Note_off_c, 0, 78, 100
2, 10656, Note_on_c, 0, 76, 60
2, 10720, Note_off_c, 0, 76, 100
2, 10752, Note_on_c, 0, 74, 82
2, 10752, Note_on_c, 0, 62, 82
2, 10880, Note_off_c, 0, 74, 100
2, 10880, Note_off_c, 0, 62, 100
2, 10944, Note_on_c, 0, 66, 82
2, 11072, Note_off_c, 0, 66, 100
2, 11136, Note_on_c, 0, 69, 82
2, 11136, Note_on_c, 0, 62, 82
2, 11264, Note_off_c, 0, 69, 100
2, 11264, Note_off_c, 0, 62, 100
2, 11328, Note_on_c, 0, 66, 82
2, 11456, Note_off_c, 0, 66, 100
2, 11520, Note_on_c, 0, 78, 82
2, 11520, Note_on_c, 0, 62, 82
2, 11552, Note_off_c, 0, 78, 100
2, 11568, Note_on_c, 0, 79, 82
2, 11600, Note_off_c, 0, 79, 100
2, 11616, Note_on_c, 0, 78, 82
2, 11648, Note_off_c, 0, 62, 100
2, 11648, Note_off_c, 0, 78, 100
2, 11664, Note_on_c, 0, 79, 82
2, 11696, Note_off_c, 0, 79, 100
2, 11712, Note_on_c, 0, 78, 82
2, 11712, Note_on_c, 0, 66, 82
2, 11744, Note_off_c, 0, 78, 100
2, 11760, Note_on_c, 0, 79, 82
2, 11792, Note_off_c, 0, 79, 100
2, 11808, Note_on_c, 0, 78, 82
2, 11840, Note_off_c, 0, 66, 100
2, 11840, Note_off_c, 0, 78, 100
2, 11856, Note_on_c, 0, 79, 82
2, 11888, Note_off_c, 0, 79, 100
2, 11904, Note_on_c, 0, 78, 82
2, 11904, Note_on_c, 0, 62, 82
2, 11936, Note_off_c, 0, 78, 100
2, 11952, Note_on_c, 0, 79, 82
2, 11984, Note_off_c, 0, 79, 100
2, 12000, Note_on_c, 0, 78, 82
2, 12032, Note_off_c, 0, 62, 100
2, 12032, Note_off_c, 0, 78, 100
2, 12096, Note_on_c, 0, 76, 82
2, 12096, Note_on_c, 0, 66, 82
2, 12160, Note_off_c, 0, 76, 100
2, 12192, Note_on_c, 0, 74, 82
2, 12224, Note_off_c, 0, 66, 100
2, 12256, Note_off_c, 0, 74, 100
2, 12288, Note_on_c, 0, 73, 82
2, 12288, Note_on_c, 0, 64, 82
2, 12416, Note_off_c, 0, 73, 100
2, 12416, Note_off_c, 0, 64, 100
2, 12480, Note_on_c, 0, 67, 82
2, 12608, Note_off_c, 0, 67, 100
2, 12672, Note_on_c, 0, 69, 82
2, 12672, Note_on_c, 0, 64, 82
2, 12800, Note_off_c, 0, 69, 100
2, 12800, Note_off_c, 0, 64, 100
2, 12864, Note_on_c, 0, 67, 82
2, 12992, Note_off_c, 0, 67, 100
2, 13056, Note_on_c, 0, 76, 82
2, 13056, Note_on_c, 0, 64, 82
2, 13120, Note_off_c, 0, 64, 100
2, 13152, Note_on_c, 0, 66, 82
2, 13184, Note_off_c, 0, 76, 100
2, 13216, Note_off_c, 0, 66, 100
2, 13248, Note_on_c, 0, 67, 82
2, 13312, Note_off_c, 0, 67, 100
2, 13344, Note_on_c, 0, 66, 82
2, 13408, Note_off_c, 0, 66, 100
2, 13440, Note_on_c, 0, 64, 82
2, 13504, Note_off_c, 0, 64, 100
2, 13536, Note_on_c, 0, 62, 82
2, 13600, Note_off_c, 0, 62, 100
2, 13632, Note_on_c, 0, 61, 82
2, 13696, Note_off_c, 0, 61, 100
2, 13728, Note_on_c, 0, 59, 82
2, 13792, Note_off_c, 0, 59, 100
2, 13824, Note_on_c, 0, 76, 82
2, 13952, Note_off_c, 0, 76, 100
2, 14208, Note_on_c, 0, 69, 82
2, 14336, Note_off_c, 0, 69, 100
2, 14592, Note_on_c, 0, 79, 82
2, 14624, Note_off_c, 0, 79, 100
2, 14640, Note_on_c, 0, 81, 82
2, 14672, Note_off_c, 0, 81, 100
2, 14688, Note_on_c, 0, 79, 82
2, 14720, Note_off_c, 0, 79, 100
2, 14736, Note_on_c, 0, 81, 82
2, 14768, Note_off_c, 0, 81, 100
2, 14784, Note_on_c, 0, 79, 82
2, 14816, Note_off_c, 0, 79, 100
2, 14832, Note_on_c, 0, 81, 82
2, 14864, Note_off_c, 0, 81, 100
2, 14880, Note_on_c, 0, 79, 82
2, 14912, Note_off_c, 0, 79, 100
2, 14928, Note_on_c, 0, 81, 82
2, 14960, Note_off_c, 0, 81, 100
2, 14976, Note_on_c, 0, 79, 82
2, 15008, Note_off_c, 0, 79, 100
2, 15024, Note_on_c, 0, 81, 82
2, 15056, Note_off_c, 0, 81, 100
2, 15072, Note_on_c, 0, 79, 82
2, 15104, Note_off_c, 0, 79, 100
2, 15168, Note_on_c, 0, 78, 82
2, 15232, Note_off_c, 0, 78, 100
2, 15264, Note_on_c, 0, 76, 82
2, 15328, Note_off_c, 0, 76, 100
2, 15360, Note_on_c, 0, 74, 82
2, 15488, Note_off_c, 0, 74, 100
2, 15744, Note_on_c, 0, 69, 82
2, 15872, Note_off_c, 0, 69, 100
2, 16128, Note_on_c, 0, 78, 82
2, 16256, Note_off_c, 0, 78, 100
2, 16896, Note_on_c, 0, 78, 90
2, 16960, Note_off_c, 0, 78, 100
2, 16992, Note_on_c, 0, 74, 90
2, 17056, Note_off_c, 0, 74, 100
2, 17088, Note_on_c, 0, 76, 90
2, 17152, Note_off_c, 0, 76, 100
2, 17184, Note_on_c, 0, 78, 90
2, 17248, Note_off_c, 0, 78, 100
2, 17280, Note_on_c, 0, 79, 90
2, 17344, Note_off_c, 0, 79, 100
2, 17376, Note_on_c, 0, 81, 90
2, 17440, Note_off_c, 0, 81, 100
2, 17472, Note_on_c, 0, 83, 90
2, 17536, Note_off_c, 0, 83, 100
2, 17568, Note_on_c, 0, 85, 90
2, 17632, Note_off_c, 0, 85, 100
2, 17664, Note_on_c, 0, 86, 90
2, 17728, Note_off_c, 0, 86, 100
2, 17760, Note_on_c, 0, 85, 90
2, 17824, Note_off_c, 0, 85, 100
2, 17856, Note_on_c, 0, 83, 90
2, 17920, Note_off_c, 0, 83, 100
2, 17952, Note_on_c, 0, 81, 90
2, 18016, Note_off_c, 0, 81, 100
2, 18048, Note_on_c, 0, 79, 90
2, 18112, Note_off_c, 0, 79, 100
2, 18144, Note_on_c, 0, 78, 90
2, 18208, Note_off_c, 0, 78, 100
2, 18240, Note_on_c, 0, 76, 90
2, 18304, Note_off_c, 0, 76, 100
2, 18336, Note_on_c, 0, 74, 90
2, 18400, Note_off_c, 0, 74, 100
2, 18432, Note_on_c, 0, 76, 90
2, 18496, Note_off_c, 0, 76, 100
2, 18528, Note_on_c, 0, 78, 90
2, 18592, Note_off_c, 0, 78, 100
2, 18624, Note_on_c, 0, 76, 90
2, 18688, Note_off_c, 0, 76, 100
2, 18720, Note_on_c, 0, 75, 90
2, 18784, Note_off_c, 0, 75, 100
2, 18816, Note_on_c, 0, 76, 90
2, 18880, Note_off_c, 0, 76, 100
2, 18912, Note_on_c, 0, 78, 90
2, 18976, Note_off_c, 0, 78, 100
2, 19008, Note_on_c, 0, 79, 90
2, 19072, Note_off_c, 0, 79, 100
2, 19104, Note_on_c, 0, 81, 90
2, 19168, Note_off_c, 0, 81, 100
2, 19200, Note_on_c, 0, 83, 90
2, 19264, Note_off_c, 0, 83, 100
2, 19296, Note_on_c, 0, 81, 90
2, 19360, Note_off_c, 0, 81, 100
2, 19392, Note_on_c, 0, 79, 90
2, 19456, Note_off_c, 0, 79, 100
2, 19488, Note_on_c, 0, 78, 90
2, 19552, Note_off_c, 0, 78, 100
2, 19584, Note_on_c, 0, 76, 90
2, 19648, Note_off_c, 0, 76, 100
2, 19680, Note_on_c, 0, 74, 90
2, 19744, Note_off_c, 0, 74, 100
2, 19776, Note_on_c, 0, 73, 90
2, 19840, Note_off_c, 0, 73, 100
2, 19872, Note_on_c, 0, 71, 90
2, 19936, Note_off_c, 0, 71, 100
2, 19968, Note_on_c, 0, 73, 90
2, 20032, Note_off_c, 0, 73, 100
2, 20064, Note_on_c, 0, 74, 90
2, 20128, Note_off_c, 0, 74, 100
2, 20144, Note_on_c, 0, 73, 90
2, 20208, Note_off_c, 0, 73, 100
2, 20256, Note_on_c, 0, 69, 90
2, 20320, Note_off_c, 0, 69, 100
2, 20352, Note_on_c, 0, 74, 90
2, 20480, Note_off_c, 0, 74, 100
2, 20736, Note_on_c, 0, 79, 90
2, 20800, Note_off_c, 0, 79, 100
2, 20832, Note_on_c, 0, 81, 90
2, 20896, Note_off_c, 0, 81, 100
2, 20928, Note_on_c, 0, 79, 90
2, 20992, Note_off_c, 0, 79, 100
2, 21024, Note_on_c, 0, 76, 90
2, 21088, Note_off_c, 0, 76, 100
2, 21120, Note_on_c, 0, 79, 90
2, 21184, Note_off_c, 0, 79, 100
2, 21200, Note_on_c, 0, 78, 90
2, 21264, Note_off_c, 0, 78, 100
2, 21312, Note_on_c, 0, 76, 90
2, 21376, Note_off_c, 0, 76, 100
2, 21408, Note_on_c, 0, 74, 90
2, 21472, Note_off_c, 0, 74, 100
2, 21504, Note_on_c, 0, 73, 90
2, 21568, Note_off_c, 0, 73, 100
2, 21600, Note_on_c, 0, 74, 90
2, 21664, Note_off_c, 0, 74, 100
2, 21696, Note_on_c, 0, 73, 90
2, 21760, Note_off_c, 0, 73, 100
2, 21792, Note_on_c, 0, 69, 90
2, 21856, Note_off_c, 0, 69, 100
2, 21888, Note_on_c, 0, 74, 90
2, 22016, Note_off_c, 0, 74, 100
2, 22272, Note_on_c, 0, 79, 90
2, 22336, Note_off_c, 0, 79, 100
2, 22368, Note_on_c, 0, 81, 90
2, 22432, Note_off_c, 0, 81, 100
2, 22464, Note_on_c, 0, 79, 90
2, 22528, Note_off_c, 0, 79, 100
2, 22560, Note_on_c, 0, 76, 90
2, 22624, Note_off_c, 0, 76, 100
2, 22656, Note_on_c, 0, 79, 90
2, 22720, Note_off_c, 0, 79, 100
2, 22752, Note_on_c, 0, 78, 90
2, 22816, Note_off_c, 0, 78, 100
2, 22848, Note_on_c, 0, 76, 90
2, 22912, Note_off_c, 0, 76, 100
2, 22944, Note_on_c, 0, 74, 90
2, 23008, Note_off_c, 0, 74, 100
2, 23040, Note_on_c, 0, 73, 90
2, 23104, Note_off_c, 0, 73, 100
2, 23136, Note_on_c, 0, 76, 90
2, 23200, Note_off_c, 0, 76, 100
2, 23232, Note_on_c, 0, 73, 90
2, 23296, Note_off_c, 0, 73, 100
2, 23328, Note_on_c, 0, 69, 90
2, 23392, Note_off_c, 0, 69, 100
2, 23424, Note_on_c, 0, 78, 90
2, 23488, Note_off_c, 0, 78, 100
2, 23520, Note_on_c, 0, 81, 90
2, 23584, Note_off_c, 0, 81, 100
2, 23616, Note_on_c, 0, 78, 90
2, 23680, Note_off_c, 0, 78, 100
2, 23712, Note_on_c, 0, 74, 90
2, 23776, Note_off_c, 0, 74, 100
2, 23808, Note_on_c, 0, 73, 90
2, 23872, Note_off_c, 0, 73, 100
2, 23904, Note_on_c, 0, 76, 90
2, 23968, Note_off_c, 0, 76, 100
2, 24000, Note_on_c, 0, 73, 90
2, 24064, Note_off_c, 0, 73, 100
2, 24096, Note_on_c, 0, 69, 90
2, 24160, Note_off_c, 0, 69, 100
2, 24192, Note_on_c, 0, 78, 90
2, 24256, Note_off_c, 0, 78, 100
2, 24288, Note_on_c, 0, 81, 90
2, 24352, Note_off_c, 0, 81, 100
2, 24384, Note_on_c, 0, 78, 90
2, 24448, Note_off_c, 0, 78, 100
2, 24480, Note_on_c, 0, 74, 90
2, 24544, Note_off_c, 0, 74, 100
2, 24576, Note_on_c, 0, 76, 90
2, 24576, Note_on_c, 0, 73, 90
2, 24704, Note_off_c, 0, 76, 100
2, 24704, Note_off_c, 0, 73, 100
2, 24768, Note_on_c, 0, 76, 90
2, 24768, Note_on_c, 0, 81, 90
2, 24768, Note_on_c, 0, 73, 90
2, 24896, Note_off_c, 0, 76, 100
2, 24896, Note_off_c, 0, 81, 100
2, 24896, Note_off_c, 0, 73, 100
2, 24960, Note_on_c, 0, 76, 90
2, 24960, Note_on_c, 0, 81, 90
2, 24960, Note_on_c, 0, 73, 90
2, 25088, Note_off_c, 0, 76, 100
2, 25088, Note_off_c, 0, 81, 100
2, 25088, Note_off_c, 0, 73, 100
2, 25152, Note_on_c, 0, 76, 90
2, 25152, Note_on_c, 0, 81, 90
2, 25152, Note_on_c, 0, 73, 90
2, 25280, Note_off_c, 0, 76, 100
2, 25280, Note_off_c, 0, 81, 100
2, 25280, Note_off_c, 0, 73, 100
2, 25344, Note_on_c, 0, 76, 90
2, 25344, Note_on_c, 0, 81, 90
2, 25344, Note_on_c, 0, 73, 90
2, 25472, Note_off_c, 0, 76, 100
2, 25472, Note_off_c, 0, 81, 100
2, 25472, Note_off_c, 0, 73, 100
2, 25680, Note_on_c, 0, 74, 90
2, 25712, Note_off_c, 0, 74, 100
2, 25728, Note_on_c, 0, 73, 60
2, 25792, Note_off_c, 0, 73, 100
2, 25824, Note_on_c, 0, 71, 60
2, 25888, Note_off_c, 0, 71, 100
2, 25920, Note_on_c, 0, 73, 60
2, 25984, Note_off_c, 0, 73, 100
2, 26016, Note_on_c, 0, 74, 60
2, 26080, Note_off_c, 0, 74, 100
2, 26112, Note_on_c, 0, 75, 60
2, 26240, Note_off_c, 0, 75, 100
2, 26304, Note_on_c, 0, 76, 60
2, 26432, Note_off_c, 0, 76, 100
2, 26688, Note_on_c, 0, 76, 60
2, 26816, Note_off_c, 0, 76, 100
2, 26880, Note_on_c, 0, 81, 60
2, 27008, Note_off_c, 0, 81, 100
2, 27072, Note_on_c, 0, 80, 60
2, 27200, Note_off_c, 0, 80, 100
2, 27264, Note_on_c, 0, 78, 60
2, 27392, Note_off_c, 0, 78, 100
2, 27456, Note_on_c, 0, 76, 60
2, 27584, Note_off_c, 0, 76, 100
2, 27648, Note_on_c, 0, 73, 60
2, 27776, Note_off_c, 0, 73, 100
2, 27840, Note_on_c, 0, 74, 60
2, 27968, Note_off_c, 0, 74, 100
2, 28224, Note_on_c, 0, 74, 60
2, 28352, Note_off_c, 0, 74, 100
2, 28416, Note_on_c, 0, 76, 60
2, 28544, Note_off_c, 0, 76, 100
2, 28608, Note_on_c, 0, 74, 60
2, 28736, Note_off_c, 0, 74, 100
2, 28800, Note_on_c, 0, 73, 60
2, 28928, Note_off_c, 0, 73, 100
2, 28992, Note_on_c, 0, 71, 60
2, 29120, Note_off_c, 0, 71, 100
2, 29184, Note_on_c, 0, 68, 60
2, 29312, Note_off_c, 0, 68, 100
2, 29376, Note_on_c, 0, 69, 60
2, 29504, Note_off_c, 0, 69, 100
2, 29760, Note_on_c, 0, 71, 60
2, 29888, Note_off_c, 0, 71, 100
2, 29952, Note_on_c, 0, 72, 60
2, 30080, Note_off_c, 0, 72, 100
2, 30144, Note_on_c, 0, 73, 60
2, 30272, Note_off_c, 0, 73, 100
2, 30528, Note_on_c, 0, 76, 60
2, 30592, Note_off_c, 0, 76, 100
2, 30624, Note_on_c, 0, 74, 60
2, 30688, Note_off_c, 0, 74, 100
2, 30720, Note_on_c, 0, 73, 60
2, 31104, Note_off_c, 0, 73, 100
2, 31296, Note_on_c, 0, 74, 60
2, 31360, Note_off_c, 0, 74, 100
2, 31392, Note_on_c, 0, 73, 60
2, 31456, Note_off_c, 0, 73, 100
2, 31488, Note_on_c, 0, 71, 60
2, 31616, Note_off_c, 0, 71, 100
2, 31680, Note_on_c, 0, 73, 60
2, 31808, Note_off_c, 0, 73, 100
2, 31872, Note_on_c, 0, 74, 60
2, 32000, Note_off_c, 0, 74, 100
2, 32064, Note_on_c, 0, 75, 60
2, 32192, Note_off_c, 0, 75, 100
2, 32256, Note_on_c, 0, 75, 60
2, 32384, Note_off_c, 0, 75, 100
2, 32448, Note_on_c, 0, 76, 60
2, 32576, Note_off_c, 0, 76, 100
2, 32832, Note_on_c, 0, 76, 60
2, 32960, Note_off_c, 0, 76, 100
2, 33024, Note_on_c, 0, 81, 60
2, 33152, Note_off_c, 0, 81, 100
2, 33216, Note_on_c, 0, 80, 60
2, 33344, Note_off_c, 0, 80, 100
2, 33408, Note_on_c, 0, 78, 60
2, 33536, Note_off_c, 0, 78, 100
2, 33600, Note_on_c, 0, 76, 60
2, 33728, Note_off_c, 0, 76, 100
2, 33792, Note_on_c, 0, 73, 60
2, 33920, Note_off_c, 0, 73, 100
2, 33984, Note_on_c, 0, 74, 60
2, 34112, Note_off_c, 0, 74, 100
2, 34368, Note_on_c, 0, 74, 60
2, 34496, Note_off_c, 0, 74, 100
2, 34560, Note_on_c, 0, 76, 60
2, 34688, Note_off_c, 0, 76, 100
2, 34752, Note_on_c, 0, 74, 60
2, 34880, Note_off_c, 0, 74, 100
2, 34944, Note_on_c, 0, 73, 60
2, 35072, Note_off_c, 0, 73, 100
2, 35136, Note_on_c, 0, 71, 60
2, 35264, Note_off_c, 0, 71, 100
2, 35328, Note_on_c, 0, 73, 60
2, 35520, Note_off_c, 0, 73, 100
2, 35616, Note_on_c, 0, 69, 60
2, 35680, Note_off_c, 0, 69, 100
2, 35712, Note_on_c, 0, 66, 60
2, 35904, Note_off_c, 0, 66, 100
2, 36000, Note_on_c, 0, 71, 60
2, 36064, Note_off_c, 0, 71, 100
2, 36096, Note_on_c, 0, 69, 60
2, 36352, Note_off_c, 0, 69, 100
2, 36480, Note_on_c, 0, 68, 60
2, 36512, Note_off_c, 0, 68, 100
2, 36528, Note_on_c, 0, 69, 60
2, 36560, Note_off_c, 0, 69, 100
2, 36576, Note_on_c, 0, 68, 60
2, 36608, Note_off_c, 0, 68, 100
2, 36624, Note_on_c, 0, 69, 60
2, 36640, Note_on_c, 0, 68, 60
2, 36656, Note_off_c, 0, 69, 100
2, 36672, Note_off_c, 0, 68, 100
2, 36720, Note_on_c, 0, 69, 60
2, 36752, Note_off_c, 0, 69, 100
2, 36768, Note_on_c, 0, 66, 60
2, 36800, Note_off_c, 0, 66, 100
2, 36816, Note_on_c, 0, 68, 60
2, 36848, Note_off_c, 0, 68, 100
2, 36864, Note_on_c, 0, 69, 60
2, 36928, Note_off_c, 0, 69, 100
2, 36960, Note_on_c, 0, 76, 90
2, 37024, Note_off_c, 0, 76, 100
2, 37056, Note_on_c, 0, 75, 90
2, 37120, Note_off_c, 0, 75, 100
2, 37152, Note_on_c, 0, 76, 90
2, 37216, Note_off_c, 0, 76, 100
2, 37248, Note_on_c, 0, 78, 90
2, 37312, Note_off_c, 0, 78, 100
2, 37344, Note_on_c, 0, 76, 90
2, 37408, Note_off_c, 0, 76, 100
2, 37440, Note_on_c, 0, 75, 90
2, 37440, Note_on_c, 0, 69, 90
2, 37504, Note_off_c, 0, 75, 100
2, 37536, Note_on_c, 0, 76, 90
2, 37568, Note_off_c, 0, 69, 100
2, 37600, Note_off_c, 0, 76, 100
2, 37632, Note_on_c, 0, 74, 90
2, 37632, Note_on_c, 0, 71, 90
2, 37696, Note_off_c, 0, 74, 100
2, 37728, Note_on_c, 0, 76, 90
2, 37760, Note_off_c, 0, 71, 100
2, 37792, Note_off_c, 0, 76, 100
2, 37824, Note_on_c, 0, 74, 90
2, 37824, Note_on_c, 0, 69, 90
2, 37888, Note_off_c, 0, 74, 100
2, 37920, Note_on_c, 0, 76, 90
2, 37952, Note_off_c, 0, 69, 100
2, 37984, Note_off_c, 0, 76, 100
2, 38016, Note_on_c, 0, 74, 90
2, 38016, Note_on_c, 0, 68, 90
2, 38080, Note_off_c, 0, 74, 100
2, 38112, Note_on_c, 0, 76, 90
2, 38144, Note_off_c, 0, 68, 100
2, 38176, Note_off_c, 0, 76, 100
2, 38208, Note_on_c, 0, 74, 90
2, 38208, Note_on_c, 0, 64, 90
2, 38272, Note_off_c, 0, 74, 100
2, 38304, Note_on_c, 0, 76, 90
2, 38336, Note_off_c, 0, 64, 100
2, 38368, Note_off_c, 0, 76, 100
2, 38400, Note_on_c, 0, 73, 90
2, 38400, Note_on_c, 0, 69, 90
2, 38464, Note_off_c, 0, 73, 100
2, 38496, Note_on_c, 0, 76, 90
2, 38560, Note_off_c, 0, 76, 100
2, 38592, Note_on_c, 0, 75, 90
2, 38656, Note_off_c, 0, 69, 100
2, 38656, Note_off_c, 0, 75, 100
2, 38688, Note_on_c, 0, 76, 90
2, 38752, Note_off_c, 0, 76, 100
2, 38784, Note_on_c, 0, 78, 90
2, 38848, Note_off_c, 0, 78, 100
2, 38880, Note_on_c, 0, 76, 90
2, 38944, Note_off_c, 0, 76, 100
2, 38976, Note_on_c, 0, 75, 90
2, 39040, Note_off_c, 0, 75, 100
2, 39072, Note_on_c, 0, 76, 90
2, 39136, Note_off_c, 0, 76, 100
2, 39168, Note_on_c, 0, 74, 90
2, 39232, Note_off_c, 0, 74, 100
2, 39264, Note_on_c, 0, 76, 90
2, 39328, Note_off_c, 0, 76, 100
2, 39360, Note_on_c, 0, 74, 90
2, 39424, Note_off_c, 0, 74, 100
2, 39456, Note_on_c, 0, 76, 90
2, 39520, Note_off_c, 0, 76, 100
2, 39552, Note_on_c, 0, 74, 90
2, 39616, Note_off_c, 0, 74, 100
2, 39648, Note_on_c, 0, 76, 90
2, 39712, Note_off_c, 0, 76, 100
2, 39744, Note_on_c, 0, 74, 90
2, 39808, Note_off_c, 0, 74, 100
2, 39840, Note_on_c, 0, 76, 90
2, 39904, Note_off_c, 0, 76, 100
2, 39936, Note_on_c, 0, 73, 90
2, 40032, Note_on_c, 0, 64, 90
2, 40096, Note_off_c, 0, 64, 100
2, 40128, Note_on_c, 0, 63, 90
2, 40192, Note_off_c, 0, 73, 100
2, 40192, Note_off_c, 0, 63, 100
2, 40224, Note_on_c, 0, 64, 90
2, 40288, Note_off_c, 0, 64, 100
2, 40320, Note_on_c, 0, 66, 90
2, 40384, Note_off_c, 0, 66, 100
2, 40416, Note_on_c, 0, 64, 90
2, 40480, Note_off_c, 0, 64, 100
2, 40512, Note_on_c, 0, 81, 90
2, 40512, Note_on_c, 0, 63, 90
2, 40576, Note_off_c, 0, 63, 100
2, 40608, Note_on_c, 0, 64, 90
2, 40640, Note_off_c, 0, 81, 100
2, 40672, Note_off_c, 0, 64, 100
2, 40704, Note_on_c, 0, 83, 99
2, 40704, Note_on_c, 0, 62, 90
2, 40768, Note_off_c, 0, 62, 100
2, 40800, Note_on_c, 0, 64, 90
2, 40832, Note_off_c, 0, 83, 100
2, 40864, Note_off_c, 0, 64, 100
2, 40896, Note_on_c, 0, 81, 90
2, 40896, Note_on_c, 0, 62, 90
2, 40960, Note_off_c, 0, 62, 100
2, 40992, Note_on_c, 0, 64, 90
2, 41024, Note_off_c, 0, 81, 100
2, 41056, Note_off_c, 0, 64, 100
2, 41088, Note_on_c, 0, 80, 90
2, 41088, Note_on_c, 0, 62, 90
2, 41152, Note_off_c, 0, 62, 100
2, 41184, Note_on_c, 0, 64, 90
2, 41216, Note_off_c, 0, 80, 100
2, 41248, Note_off_c, 0, 64, 100
2, 41280, Note_on_c, 0, 76, 90
2, 41280, Note_on_c, 0, 62, 90
2, 41344, Note_off_c, 0, 62, 100
2, 41376, Note_on_c, 0, 64, 90
2, 41408, Note_off_c, 0, 76, 100
2, 41440, Note_off_c, 0, 64, 100
2, 41472, Note_on_c, 0, 81, 90
2, 41472, Note_on_c, 0, 61, 90
2, 41536, Note_off_c, 0, 61, 100
2, 41568, Note_on_c, 0, 64, 90
2, 41632, Note_off_c, 0, 64, 100
2, 41664, Note_on_c, 0, 62, 90
2, 41728, Note_off_c, 0, 81, 100
2, 41728, Note_off_c, 0, 62, 100
2, 41760, Note_on_c, 0, 64, 90
2, 41824, Note_off_c, 0, 64, 100
2, 41856, Note_on_c, 0, 66, 90
2, 41920, Note_off_c, 0, 66, 100
2, 41952, Note_on_c, 0, 64, 90
2, 42016, Note_off_c, 0, 64, 100
2, 42048, Note_on_c, 0, 62, 90
2, 42112, Note_off_c, 0, 62, 100
2, 42144, Note_on_c, 0, 64, 90
2, 42208, Note_off_c, 0, 64, 100
2, 42240, Note_on_c, 0, 62, 99
2, 42304, Note_off_c, 0, 62, 100
2, 42336, Note_on_c, 0, 64, 90
2, 42400, Note_off_c, 0, 64, 100
2, 42432, Note_on_c, 0, 62, 90
2, 42496, Note_off_c, 0, 62, 100
2, 42528, Note_on_c, 0, 64, 90
2, 42592, Note_off_c, 0, 64, 100
2, 42624, Note_on_c, 0, 62, 90
2, 42688, Note_off_c, 0, 62, 100
2, 42720, Note_on_c, 0, 64, 90
2, 42784, Note_off_c, 0, 64, 100
2, 42816, Note_on_c, 0, 62, 90
2, 42880, Note_off_c, 0, 62, 100
2, 42912, Note_on_c, 0, 64, 90
2, 42976, Note_off_c, 0, 64, 100
2, 43008, Note_on_c, 0, 61, 90
2, 43264, Note_off_c, 0, 61, 100
2, 43392, Note_on_c, 0, 76, 60
2, 43392, Note_on_c, 0, 61, 60
2, 43456, Note_off_c, 0, 61, 100
2, 43488, Note_on_c, 0, 69, 60
2, 43552, Note_off_c, 0, 69, 100
2, 43584, Note_on_c, 0, 61, 60
2, 43648, Note_off_c, 0, 76, 100
2, 43648, Note_off_c, 0, 61, 100
2, 43680, Note_on_c, 0, 69, 60
2, 43744, Note_off_c, 0, 69, 100
2, 43776, Note_on_c, 0, 74, 60
2, 43776, Note_on_c, 0, 61, 60
2, 43840, Note_off_c, 0, 61, 100
2, 43872, Note_on_c, 0, 69, 60
2, 43936, Note_off_c, 0, 69, 100
2, 43968, Note_on_c, 0, 61, 60
2, 44032, Note_off_c, 0, 74, 100
2, 44032, Note_off_c, 0, 61, 100
2, 44064, Note_on_c, 0, 69, 60
2, 44128, Note_off_c, 0, 69, 100
2, 44160, Note_on_c, 0, 73, 60
2, 44160, Note_on_c, 0, 61, 60
2, 44224, Note_off_c, 0, 61, 100
2, 44256, Note_on_c, 0, 69, 60
2, 44320, Note_off_c, 0, 69, 100
2, 44352, Note_on_c, 0, 61, 60
2, 44416, Note_off_c, 0, 73, 100
2, 44416, Note_off_c, 0, 61, 100
2, 44448, Note_on_c, 0, 69, 60
2, 44512, Note_off_c, 0, 69, 100
2, 44544, Note_on_c, 0, 78, 60
2, 44544, Note_on_c, 0, 62, 60
2, 44608, Note_off_c, 0, 62, 100
2, 44640, Note_on_c, 0, 69, 60
2, 44704, Note_off_c, 0, 69, 100
2, 44736, Note_off_c, 0, 78, 100
2, 44736, Note_on_c, 0, 68, 60
2, 44784, Note_on_c, 0, 80, 60
2, 44800, Note_off_c, 0, 68, 100
2, 44816, Note_off_c, 0, 80, 100
2, 44832, Note_on_c, 0, 78, 60
2, 44832, Note_on_c, 0, 69, 60
2, 44864, Note_off_c, 0, 78, 100
2, 44880, Note_on_c, 0, 76, 60
2, 44896, Note_off_c, 0, 69, 100
2, 44912, Note_off_c, 0, 76, 100
2, 44928, Note_on_c, 0, 78, 60
2, 44928, Note_on_c, 0, 62, 60
2, 44992, Note_off_c, 0, 62, 100
2, 45024, Note_on_c, 0, 69, 60
2, 45056, Note_off_c, 0, 78, 100
2, 45088, Note_off_c, 0, 69, 100
2, 45120, Note_on_c, 0, 80, 60
2, 45120, Note_on_c, 0, 68, 60
2, 45184, Note_off_c, 0, 68, 100
2, 45216, Note_on_c, 0, 69, 60
2, 45248, Note_off_c, 0, 80, 100
2, 45280, Note_off_c, 0, 69, 100
2, 45312, Note_on_c, 0, 83, 60
2, 45312, Note_on_c, 0, 62, 60
2, 45376, Note_off_c, 0, 62, 100
2, 45408, Note_on_c, 0, 69, 60
2, 45440, Note_off_c, 0, 83, 100
2, 45472, Note_off_c, 0, 69, 100
2, 45504, Note_on_c, 0, 81, 60
2, 45504, Note_on_c, 0, 68, 60
2, 45568, Note_off_c, 0, 68, 100
2, 45600, Note_on_c, 0, 69, 60
2, 45632, Note_off_c, 0, 81, 100
2, 45664, Note_off_c, 0, 69, 100
2, 45696, Note_on_c, 0, 80, 60
2, 45696, Note_on_c, 0, 62, 60
2, 45760, Note_off_c, 0, 62, 100
2, 45792, Note_on_c, 0, 69, 60
2, 45824, Note_off_c, 0, 80, 100
2, 45856, Note_off_c, 0, 69, 100
2, 45888, Note_on_c, 0, 78, 60
2, 45888, Note_on_c, 0, 68, 60
2, 45952, Note_off_c, 0, 68, 100
2, 45984, Note_on_c, 0, 69, 60
2, 46016, Note_off_c, 0, 78, 100
2, 46048, Note_off_c, 0, 69, 100
2, 46080, Note_on_c, 0, 76, 90
2, 46080, Note_on_c, 0, 61, 90
2, 46144, Note_off_c, 0, 61, 100
2, 46176, Note_on_c, 0, 69, 90
2, 46208, Note_off_c, 0, 76, 100
2, 46240, Note_off_c, 0, 69, 100
2, 46272, Note_on_c, 0, 67, 90
2, 46336, Note_off_c, 0, 67, 100
2, 46368, Note_on_c, 0, 69, 90
2, 46432, Note_off_c, 0, 69, 100
2, 46464, Note_on_c, 0, 76, 90
2, 46464, Note_on_c, 0, 61, 90
2, 46528, Note_off_c, 0, 61, 100
2, 46560, Note_on_c, 0, 69, 90
2, 46624, Note_off_c, 0, 69, 100
2, 46656, Note_on_c, 0, 61, 90
2, 46720, Note_off_c, 0, 76, 100
2, 46720, Note_off_c, 0, 61, 100
2, 46752, Note_on_c, 0, 69, 90
2, 46816, Note_off_c, 0, 69, 100
2, 46848, Note_on_c, 0, 74, 90
2, 46848, Note_on_c, 0, 59, 90
2, 46912, Note_off_c, 0, 59, 100
2, 46944, Note_on_c, 0, 69, 90
2, 47008, Note_off_c, 0, 69, 100
2, 47040, Note_on_c, 0, 59, 90
2, 47104, Note_off_c, 0, 74, 100
2, 47104, Note_off_c, 0, 59, 100
2, 47136, Note_on_c, 0, 69, 90
2, 47200, Note_off_c, 0, 69, 100
2, 47232, Note_on_c, 0, 73, 90
2, 47232, Note_on_c, 0, 57, 90
2, 47296, Note_off_c, 0, 57, 100
2, 47328, Note_on_c, 0, 69, 90
2, 47392, Note_off_c, 0, 69, 100
2, 47424, Note_on_c, 0, 57, 90
2, 47488, Note_off_c, 0, 73, 100
2, 47488, Note_off_c, 0, 57, 100
2, 47520, Note_on_c, 0, 69, 90
2, 47584, Note_off_c, 0, 69, 100
2, 47616, Note_on_c, 0, 71, 90
2, 47808, Note_off_c, 0, 71, 100
2, 47904, Note_on_c, 0, 78, 90
2, 47968, Note_off_c, 0, 78, 100
2, 48000, Note_on_c, 0, 76, 90
2, 48064, Note_off_c, 0, 76, 100
2, 48096, Note_on_c, 0, 74, 90
2, 48160, Note_off_c, 0, 74, 100
2, 48176, Note_on_c, 0, 73, 90
2, 48240, Note_off_c, 0, 73, 100
2, 48288, Note_on_c, 0, 71, 90
2, 48352, Note_off_c, 0, 71, 100
2, 48384, Note_on_c, 0, 69, 90
2, 48640, Note_off_c, 0, 69, 100
2, 48720, Note_on_c, 0, 73, 90
2, 48752, Note_off_c, 0, 73, 100
2, 48768, Note_on_c, 0, 71, 90
2, 48800, Note_off_c, 0, 71, 100
2, 48816, Note_on_c, 0, 73, 90
2, 48848, Note_off_c, 0, 73, 100
2, 48864, Note_on_c, 0, 71, 90
2, 48896, Note_off_c, 0, 71, 100
2, 48912, Note_on_c, 0, 73, 90
2, 48944, Note_off_c, 0, 73, 100
2, 48960, Note_on_c, 0, 71, 90
2, 48992, Note_off_c, 0, 71, 100
2, 49008, Note_on_c, 0, 73, 90
2, 49040, Note_off_c, 0, 73, 100
2, 49056, Note_on_c, 0, 69, 90
2, 49088, Note_off_c, 0, 69, 100
2, 49104, Note_on_c, 0, 71, 90
2, 49136, Note_off_c, 0, 71, 100
2, 49152, Note_on_c, 0, 69, 90
2, 49280, Note_off_c, 0, 69, 100
2, 49536, Note_on_c, 0, 76, 60
2, 49536, Note_on_c, 0, 61, 60
2, 49600, Note_off_c, 0, 61, 100
2, 49632, Note_on_c, 0, 69, 60
2, 49696, Note_off_c, 0, 69, 100
2, 49728, Note_on_c, 0, 61, 60
2, 49792, Note_off_c, 0, 76, 100
2, 49792, Note_off_c, 0, 61, 100
2, 49824, Note_on_c, 0, 69, 60
2, 49888, Note_off_c, 0, 69, 100
2, 49920, Note_on_c, 0, 74, 60
2, 49920, Note_on_c, 0, 59, 60
2, 49984, Note_off_c, 0, 59, 100
2, 50016, Note_on_c, 0, 69, 60
2, 50080, Note_off_c, 0, 69, 100
2, 50112, Note_on_c, 0, 59, 60
2, 50176, Note_off_c, 0, 74, 100
2, 50176, Note_off_c, 0, 59, 100
2, 50208, Note_on_c, 0, 69, 60
2, 50272, Note_off_c, 0, 69, 100
2, 50304, Note_on_c, 0, 73, 60
2, 50304, Note_on_c, 0, 57, 60
2, 50368, Note_off_c, 0, 57, 100
2, 50400, Note_on_c, 0, 69, 60
2, 50464, Note_off_c, 0, 69, 100
2, 50496, Note_on_c, 0, 57, 60
2, 50560, Note_off_c, 0, 73, 100
2, 50560, Note_off_c, 0, 57, 100
2, 50592, Note_on_c, 0, 69, 60
2, 50656, Note_off_c, 0, 69, 100
2, 50688, Note_on_c, 0, 78, 60
2, 50688, Note_on_c, 0, 62, 60
2, 50752, Note_off_c, 0, 62, 100
2, 50784, Note_on_c, 0, 69, 60
2, 50848, Note_off_c, 0, 69, 100
2, 50880, Note_on_c, 0, 68, 60
2, 50928, Note_on_c, 0, 80, 60
2, 50944, Note_off_c, 0, 68, 100
2, 50960, Note_off_c, 0, 80, 100
2, 50976, Note_on_c, 0, 78, 60
2, 50976, Note_on_c, 0, 69, 60
2, 51008, Note_off_c, 0, 78, 100
2, 51024, Note_on_c, 0, 76, 60
2, 51040, Note_off_c, 0, 69, 100
2, 51056, Note_off_c, 0, 76, 100
2, 51072, Note_off_c, 0, 78, 100
2, 51072, Note_on_c, 0, 78, 60
2, 51072, Note_on_c, 0, 62, 60
2, 51136, Note_off_c, 0, 62, 100
2, 51168, Note_on_c, 0, 69, 60
2, 51200, Note_off_c, 0, 78, 100
2, 51232, Note_off_c, 0, 69, 100
2, 51264, Note_on_c, 0, 80, 60
2, 51264, Note_on_c, 0, 68, 60
2, 51328, Note_off_c, 0, 68, 100
2, 51360, Note_on_c, 0, 69, 60
2, 51392, Note_off_c, 0, 80, 100
2, 51424, Note_off_c, 0, 69, 100
2, 51456, Note_on_c, 0, 83, 60
2, 51456, Note_on_c, 0, 62, 60
2, 51520, Note_off_c, 0, 62, 100
2, 51552, Note_on_c, 0, 69, 60
2, 51584, Note_off_c, 0, 83, 100
2, 51616, Note_off_c, 0, 69, 100
2, 51648, Note_on_c, 0, 81, 60
2, 51648, Note_on_c, 0, 68, 60
2, 51712, Note_off_c, 0, 68, 100
2, 51744, Note_on_c, 0, 69, 60
2, 51776, Note_off_c, 0, 81, 100
2, 51808, Note_off_c, 0, 69, 100
2, 51840, Note_on_c, 0, 80, 60
2, 51840, Note_on_c, 0, 62, 60
2, 51904, Note_off_c, 0, 62, 100
2, 51936, Note_on_c, 0, 69, 60
2, 51968, Note_off_c, 0, 80, 100
2, 52000, Note_off_c, 0, 69, 100
2, 52032, Note_on_c, 0, 78, 60
2, 52032, Note_on_c, 0, 68, 60
2, 52096, Note_off_c, 0, 68, 100
2, 52128, Note_on_c, 0, 69, 60
2, 52160, Note_off_c, 0, 78, 100
2, 52192, Note_off_c, 0, 69, 100
2, 52224, Note_on_c, 0, 76, 60
2, 52224, Note_on_c, 0, 61, 60
2, 52288, Note_off_c, 0, 61, 100
2, 52320, Note_on_c, 0, 69, 60
2, 52352, Note_off_c, 0, 76, 100
2, 52384, Note_off_c, 0, 69, 100
2, 52416, Note_on_c, 0, 67, 60
2, 52480, Note_off_c, 0, 67, 100
2, 52512, Note_on_c, 0, 69, 60
2, 52576, Note_off_c, 0, 69, 100
2, 52608, Note_on_c, 0, 76, 90
2, 52608, Note_on_c, 0, 61, 90
2, 52672, Note_off_c, 0, 61, 100
2, 52704, Note_on_c, 0, 69, 90
2, 52768, Note_off_c, 0, 69, 100
2, 52800, Note_on_c, 0, 61, 90
2, 52864, Note_off_c, 0, 76, 100
2, 52864, Note_off_c, 0, 61, 100
2, 52896, Note_on_c, 0, 69, 90
2, 52960, Note_off_c, 0, 69, 100
2, 52992, Note_on_c, 0, 74, 90
2, 52992, Note_on_c, 0, 59, 90
2, 53056, Note_off_c, 0, 59, 100
2, 53088, Note_on_c, 0, 69, 90
2, 53152, Note_off_c, 0, 69, 100
2, 53184, Note_on_c, 0, 59, 90
2, 53248, Note_off_c, 0, 74, 100
2, 53248, Note_off_c, 0, 59, 100
2, 53280, Note_on_c, 0, 69, 90
2, 53344, Note_off_c, 0, 69, 100
2, 53376, Note_on_c, 0, 73, 90
2, 53376, Note_on_c, 0, 57, 90
2, 53440, Note_off_c, 0, 57, 100
2, 53472, Note_on_c, 0, 69, 90
2, 53536, Note_off_c, 0, 69, 100
2, 53568, Note_on_c, 0, 57, 90
2, 53632, Note_off_c, 0, 73, 100
2, 53632, Note_off_c, 0, 57, 100
2, 53664, Note_on_c, 0, 69, 90
2, 53728, Note_off_c, 0, 69, 100
2, 53760, Note_on_c, 0, 71, 90
2, 54048, Note_on_c, 0, 78, 90
2, 54112, Note_off_c, 0, 78, 100
2, 54144, Note_off_c, 0, 71, 100
2, 54144, Note_on_c, 0, 76, 90
2, 54208, Note_off_c, 0, 76, 100
2, 54240, Note_on_c, 0, 74, 90
2, 54304, Note_off_c, 0, 74, 100
2, 54336, Note_on_c, 0, 73, 90
2, 54400, Note_off_c, 0, 73, 100
2, 54432, Note_on_c, 0, 71, 90
2, 54496, Note_off_c, 0, 71, 100
2, 54528, Note_on_c, 0, 69, 90
2, 54784, Note_off_c, 0, 69, 100
2, 54864, Note_on_c, 0, 73, 90
2, 54896, Note_off_c, 0, 73, 100
2, 54912, Note_on_c, 0, 71, 90
2, 54944, Note_off_c, 0, 71, 100
2, 54960, Note_on_c, 0, 73, 90
2, 54992, Note_off_c, 0, 73, 100
2, 55008, Note_on_c, 0, 71, 90
2, 55040, Note_off_c, 0, 71, 100
2, 55056, Note_on_c, 0, 73, 90
2, 55088, Note_off_c, 0, 73, 100
2, 55104, Note_on_c, 0, 71, 90
2, 55136, Note_off_c, 0, 71, 100
2, 55152, Note_on_c, 0, 73, 90
2, 55184, Note_off_c, 0, 73, 100
2, 55200, Note_on_c, 0, 69, 90
2, 55232, Note_off_c, 0, 69, 100
2, 55264, Note_on_c, 0, 71, 90
2, 55296, Note_off_c, 0, 71, 100
2, 55296, Note_on_c, 0, 69, 90
2, 55360, Note_off_c, 0, 69, 100
2, 55392, Note_on_c, 0, 64, 90
2, 55456, Note_off_c, 0, 64, 100
2, 55488, Note_on_c, 0, 69, 90
2, 55552, Note_off_c, 0, 69, 100
2, 55584, Note_on_c, 0, 73, 90
2, 55648, Note_off_c, 0, 73, 100
2, 55680, Note_on_c, 0, 76, 90
2, 55744, Note_off_c, 0, 76, 100
2, 55776, Note_on_c, 0, 73, 90
2, 55840, Note_off_c, 0, 73, 100
2, 55872, Note_on_c, 0, 74, 90
2, 55936, Note_off_c, 0, 74, 100
2, 55968, Note_on_c, 0, 71, 90
2, 56032, Note_off_c, 0, 71, 100
2, 56064, Note_on_c, 0, 69, 90
2, 56128, Note_off_c, 0, 69, 100
2, 56160, Note_on_c, 0, 64, 90
2, 56224, Note_off_c, 0, 64, 100
2, 56256, Note_on_c, 0, 69, 90
2, 56320, Note_off_c, 0, 69, 100
2, 56352, Note_on_c, 0, 73, 90
2, 56416, Note_off_c, 0, 73, 100
2, 56448, Note_on_c, 0, 76, 90
2, 56512, Note_off_c, 0, 76, 100
2, 56544, Note_on_c, 0, 73, 90
2, 56608, Note_off_c, 0, 73, 100
2, 56640, Note_on_c, 0, 74, 90
2, 56704, Note_off_c, 0, 74, 100
2, 56736, Note_on_c, 0, 71, 90
2, 56800, Note_off_c, 0, 71, 100
2, 56832, Note_on_c, 0, 69, 90
2, 57088, Note_off_c, 0, 69, 100
2, 57216, Note_on_c, 0, 80, 99
2, 57216, Note_on_c, 0, 74, 99
2, 57216, Note_on_c, 0, 71, 99
2, 57472, Note_off_c, 0, 80, 100
2, 57472, Note_off_c, 0, 74, 100
2, 57472, Note_off_c, 0, 71, 100
2, 57600, Note_on_c, 0, 81, 99
2, 57600, Note_on_c, 0, 73, 99
2, 57600, Note_on_c, 0, 69, 99
2, 57856, Note_off_c, 0, 81, 100
2, 57856, Note_off_c, 0, 73, 100
2, 57856, Note_off_c, 0, 69, 100
2, 58368, Note_on_c, 0, 74, 58
2, 58368, Note_on_c, 0, 66, 58
2, 58496, Note_off_c, 0, 74, 100
2, 58496, Note_off_c, 0, 66, 100
2, 58560, Note_on_c, 0, 73, 58
2, 58560, Note_on_c, 0, 64, 58
2, 58688, Note_off_c, 0, 73, 100
2, 58688, Note_off_c, 0, 64, 100
2, 58752, Note_on_c, 0, 73, 60
2, 58752, Note_on_c, 0, 64, 60
2, 58880, Note_off_c, 0, 73, 100
2, 58880, Note_off_c, 0, 64, 100
2, 58944, Note_on_c, 0, 62, 60
2, 58944, Note_on_c, 0, 71, 60
2, 59072, Note_off_c, 0, 62, 100
2, 59072, Note_off_c, 0, 71, 100
2, 59136, Note_on_c, 0, 71, 60
2, 59136, Note_on_c, 0, 62, 60
2, 59264, Note_off_c, 0, 71, 100
2, 59264, Note_off_c, 0, 62, 100
2, 59328, Note_on_c, 0, 69, 60
2, 59328, Note_on_c, 0, 61, 60
2, 59456, Note_off_c, 0, 69, 100
2, 59456, Note_off_c, 0, 61, 100
2, 59520, Note_on_c, 0, 61, 60
2, 59520, Note_on_c, 0, 69, 60
2, 59648, Note_off_c, 0, 61, 100
2, 59648, Note_off_c, 0, 69, 100
2, 59712, Note_on_c, 0, 68, 60
2, 59712, Note_on_c, 0, 59, 60
2, 59840, Note_off_c, 0, 68, 100
2, 59840, Note_off_c, 0, 59, 100
2, 59904, Note_on_c, 0, 68, 82
2, 59904, Note_on_c, 0, 62, 82
2, 59904, Note_on_c, 0, 59, 82
2, 60416, Note_off_c, 0, 68, 100
2, 60416, Note_off_c, 0, 62, 100
2, 60416, Note_off_c, 0, 59, 100
2, 60672, Note_on_c, 0, 69, 60
2, 60672, Note_on_c, 0, 61, 75
2, 60928, Note_off_c, 0, 69, 100
2, 60928, Note_off_c, 0, 61, 100
2, 61440, Note_on_c, 0, 74, 90
2, 61440, Note_on_c, 0, 69, 90
2, 61440, Note_on_c, 0, 66, 90
2, 61696, Note_off_c, 0, 74, 100
2, 61696, Note_off_c, 0, 69, 100
2, 61696, Note_off_c, 0, 66, 100
2, 62208, Note_on_c, 0, 79, 90
2, 62208, Note_on_c, 0, 66, 90
2, 62208, Note_on_c, 0, 62, 90
2, 62272, Note_off_c, 0, 79, 100
2, 62304, Note_on_c, 0, 78, 90
2, 62368, Note_off_c, 0, 78, 100
2, 62400, Note_on_c, 0, 76, 90
2, 62464, Note_off_c, 0, 66, 100
2, 62464, Note_off_c, 0, 62, 100
2, 62464, Note_off_c, 0, 76, 100
2, 62496, Note_on_c, 0, 78, 90
2, 62560, Note_off_c, 0, 78, 100
2, 62592, Note_on_c, 0, 81, 90
2, 62592, Note_on_c, 0, 67, 90
2, 62592, Note_on_c, 0, 64, 90
2, 62656, Note_off_c, 0, 81, 100
2, 62688, Note_on_c, 0, 79, 90
2, 62752, Note_off_c, 0, 79, 100
2, 62784, Note_on_c, 0, 78, 90
2, 62848, Note_off_c, 0, 67, 100
2, 62848, Note_off_c, 0, 64, 100
2, 62848, Note_off_c, 0, 78, 100
2, 62880, Note_on_c, 0, 79, 90
2, 62944, Note_off_c, 0, 79, 100
2, 62976, Note_on_c, 0, 81, 90
2, 62976, Note_on_c, 0, 69, 90
2, 62976, Note_on_c, 0, 66, 90
2, 63232, Note_off_c, 0, 81, 100
2, 63232, Note_off_c, 0, 69, 100
2, 63232, Note_off_c, 0, 66, 100
2, 63744, Note_on_c, 0, 81, 60
2, 63872, Note_off_c, 0, 81, 100
2, 63936, Note_on_c, 0, 83, 60
2, 64064, Note_off_c, 0, 83, 100
2, 64128, Note_on_c, 0, 85, 60
2, 64256, Note_off_c, 0, 85, 100
2, 64320, Note_on_c, 0, 86, 60
2, 64448, Note_off_c, 0, 86, 100
2, 64512, Note_on_c, 0, 81, 60
2, 64768, Note_off_c, 0, 81, 100
2, 64896, Note_on_c, 0, 78, 60
2, 65152, Note_off_c, 0, 78, 100
2, 65280, Note_on_c, 0, 81, 60
2, 65344, Note_off_c, 0, 81, 100
2, 65376, Note_on_c, 0, 79, 60
2, 65440, Note_off_c, 0, 79, 100
2, 65472, Note_on_c, 0, 78, 60
2, 65536, Note_off_c, 0, 78, 100
2, 65568, Note_on_c, 0, 79, 60
2, 65632, Note_off_c, 0, 79, 100
2, 65664, Note_on_c, 0, 81, 60
2, 65792, Note_off_c, 0, 81, 100
2, 65856, Note_on_c, 0, 79, 60
2, 65984, Note_off_c, 0, 79, 100
2, 66048, Note_on_c, 0, 77, 60
2, 66236, Note_off_c, 0, 77, 0
2, 66240, Note_on_c, 0, 78, 60
2, 66368, Note_off_c, 0, 78, 100
2, 66816, Note_on_c, 0, 66, 90
2, 66816, Note_on_c, 0, 62, 90
2, 66816, Note_on_c, 0, 79, 90
2, 66880, Note_off_c, 0, 79, 100
2, 66912, Note_on_c, 0, 78, 90
2, 66976, Note_off_c, 0, 78, 100
2, 67008, Note_on_c, 0, 76, 90
2, 67072, Note_off_c, 0, 66, 100
2, 67072, Note_off_c, 0, 62, 100
2, 67072, Note_off_c, 0, 76, 100
2, 67104, Note_on_c, 0, 78, 90
2, 67168, Note_off_c, 0, 78, 100
2, 67200, Note_on_c, 0, 81, 90
2, 67200, Note_on_c, 0, 67, 90
2, 67200, Note_on_c, 0, 64, 90
2, 67264, Note_off_c, 0, 81, 100
2, 67296, Note_on_c, 0, 79, 90
2, 67360, Note_off_c, 0, 79, 100
2, 67392, Note_on_c, 0, 78, 90
2, 67456, Note_off_c, 0, 67, 100
2, 67456, Note_off_c, 0, 64, 100
2, 67456, Note_off_c, 0, 78, 100
2, 67488, Note_on_c, 0, 79, 90
2, 67552, Note_off_c, 0, 79, 100
2, 67584, Note_on_c, 0, 81, 90
2, 67584, Note_on_c, 0, 66, 90
2, 67584, Note_on_c, 0, 69, 90
2, 67840, Note_off_c, 0, 81, 100
2, 67840, Note_off_c, 0, 66, 100
2, 67840, Note_off_c, 0, 69, 100
2, 68352, Note_on_c, 0, 81, 60
2, 68480, Note_off_c, 0, 81, 100
2, 68544, Note_on_c, 0, 83, 60
2, 68672, Note_off_c, 0, 83, 100
2, 68736, Note_on_c, 0, 85, 60
2, 68864, Note_off_c, 0, 85, 100
2, 68928, Note_on_c, 0, 86, 60
2, 69056, Note_off_c, 0, 86, 100
2, 69120, Note_on_c, 0, 81, 60
2, 69376, Note_off_c, 0, 81, 100
2, 69504, Note_on_c, 0, 78, 60
2, 69760, Note_off_c, 0, 78, 100
2, 69888, Note_on_c, 0, 81, 60
2, 69952, Note_off_c, 0, 81, 100
2, 69984, Note_on_c, 0, 79, 60
2, 70048, Note_off_c, 0, 79, 100
2, 70080, Note_on_c, 0, 78, 60
2, 70144, Note_off_c, 0, 78, 100
2, 70176, Note_on_c, 0, 79, 60
2, 70240, Note_off_c, 0, 79, 100
2, 70272, Note_on_c, 0, 81, 60
2, 70336, Note_off_c, 0, 81, 100
2, 70368, Note_on_c, 0, 79, 60
2, 70432, Note_off_c, 0, 79, 100
2, 70464, Note_on_c, 0, 78, 60
2, 70528, Note_off_c, 0, 78, 100
2, 70560, Note_on_c, 0, 76, 60
2, 70624, Note_off_c, 0, 76, 100
2, 70656, Note_on_c, 0, 74, 82
2, 70656, Note_on_c, 0, 62, 82
2, 70784, Note_off_c, 0, 74, 100
2, 70784, Note_off_c, 0, 62, 100
2, 70848, Note_on_c, 0, 66, 82
2, 70976, Note_off_c, 0, 66, 100
2, 71040, Note_on_c, 0, 69, 82
2, 71040, Note_on_c, 0, 62, 82
2, 71168, Note_off_c, 0, 69, 100
2, 71168, Note_off_c, 0, 62, 100
2, 71232, Note_on_c, 0, 66, 82
2, 71360, Note_off_c, 0, 66, 100
2, 71424, Note_on_c, 0, 78, 82
2, 71424, Note_on_c, 0, 62, 82
2, 71456, Note_off_c, 0, 78, 100
2, 71472, Note_on_c, 0, 79, 82
2, 71504, Note_off_c, 0, 79, 100
2, 71520, Note_on_c, 0, 78, 82
2, 71552, Note_off_c, 0, 62, 100
2, 71552, Note_off_c, 0, 78, 100
2, 71568, Note_on_c, 0, 79, 82
2, 71600, Note_off_c, 0, 79, 100
2, 71616, Note_on_c, 0, 78, 82
2, 71616, Note_on_c, 0, 66, 82
2, 71648, Note_off_c, 0, 78, 100
2, 71664, Note_on_c, 0, 79, 82
2, 71696, Note_off_c, 0, 79, 100
2, 71712, Note_on_c, 0, 78, 82
2, 71744, Note_off_c, 0, 66, 100
2, 71744, Note_off_c, 0, 78, 100
2, 71760, Note_on_c, 0, 79, 82
2, 71792, Note_off_c, 0, 79, 100
2, 71808, Note_on_c, 0, 78, 82
2, 71808, Note_on_c, 0, 62, 82
2, 71840, Note_off_c, 0, 78, 100
2, 71856, Note_on_c, 0, 79, 82
2, 71888, Note_off_c, 0, 79, 100
2, 71904, Note_on_c, 0, 78, 82
2, 71936, Note_off_c, 0, 62, 100
2, 71936, Note_off_c, 0, 78, 100
2, 72000, Note_on_c, 0, 76, 82
2, 72000, Note_on_c, 0, 66, 82
2, 72064, Note_off_c, 0, 76, 100
2, 72096, Note_on_c, 0, 74, 82
2, 72128, Note_off_c, 0, 66, 100
2, 72160, Note_off_c, 0, 74, 100
2, 72192, Note_on_c, 0, 73, 82
2, 72192, Note_on_c, 0, 64, 82
2, 72320, Note_off_c, 0, 73, 100
2, 72320, Note_off_c, 0, 64, 100
2, 72384, Note_on_c, 0, 67, 82
2, 72512, Note_off_c, 0, 67, 100
2, 72576, Note_on_c, 0, 69, 82
2, 72576, Note_on_c, 0, 64, 82
2, 72704, Note_off_c, 0, 69, 100
2, 72704, Note_off_c, 0, 64, 100
2, 72768, Note_on_c, 0, 67, 82
2, 72896, Note_off_c, 0, 67, 100
2, 72960, Note_on_c, 0, 76, 82
2, 72960, Note_on_c, 0, 64, 82
2, 73024, Note_off_c, 0, 64, 100
2, 73056, Note_on_c, 0, 66, 82
2, 73088, Note_off_c, 0, 76, 100
2, 73120, Note_off_c, 0, 66, 100
2, 73152, Note_on_c, 0, 67, 82
2, 73216, Note_off_c, 0, 67, 100
2, 73248, Note_on_c, 0, 66, 82
2, 73312, Note_off_c, 0, 66, 100
2, 73344, Note_on_c, 0, 64, 82
2, 73408, Note_off_c, 0, 64, 100
2, 73440, Note_on_c, 0, 62, 82
2, 73504, Note_off_c, 0, 62, 100
2, 73536, Note_on_c, 0, 61, 82
2, 73600, Note_off_c, 0, 61, 100
2, 73632, Note_on_c, 0, 59, 82
2, 73696, Note_off_c, 0, 59, 100
2, 73728, Note_on_c, 0, 76, 82
2, 73856, Note_off_c, 0, 76, 100
2, 74112, Note_on_c, 0, 69, 82
2, 74240, Note_off_c, 0, 69, 100
2, 74496, Note_on_c, 0, 79, 82
2, 74528, Note_off_c, 0, 79, 100
2, 74544, Note_on_c, 0, 81, 82
2, 74576, Note_off_c, 0, 81, 100
2, 74592, Note_on_c, 0, 79, 82
2, 74624, Note_off_c, 0, 79, 100
2, 74640, Note_on_c, 0, 81, 82
2, 74672, Note_off_c, 0, 81, 100
2, 74688, Note_on_c, 0, 79, 82
2, 74720, Note_off_c, 0, 79, 100
2, 74736, Note_on_c, 0, 81, 82
2, 74768, Note_off_c, 0, 81, 100
2, 74784, Note_on_c, 0, 79, 82
2, 74816, Note_off_c, 0, 79, 100
2, 74832, Note_on_c, 0, 81, 82
2, 74864, Note_off_c, 0, 81, 100
2, 74880, Note_on_c, 0, 79, 82
2, 74912, Note_off_c, 0, 79, 100
2, 74928, Note_on_c, 0, 81, 82
2, 74960, Note_off_c, 0, 81, 100
2, 74976, Note_on_c, 0, 79, 82
2, 75008, Note_off_c, 0, 79, 100
2, 75072, Note_on_c, 0, 78, 82
2, 75136, Note_off_c, 0, 78, 100
2, 75168, Note_on_c, 0, 76, 82
2, 75232, Note_off_c, 0, 76, 100
2, 75264, Note_on_c, 0, 74, 82
2, 75392, Note_off_c, 0, 74, 100
2, 75648, Note_on_c, 0, 69, 82
2, 75776, Note_off_c, 0, 69, 100
2, 76032, Note_on_c, 0, 78, 82
2, 76160, Note_off_c, 0, 78, 100
2, 76800, Note_on_c, 0, 78, 90
2, 76864, Note_off_c, 0, 78, 100
2, 76896, Note_on_c, 0, 74, 90
2, 76960, Note_off_c, 0, 74, 100
2, 76992, Note_on_c, 0, 76, 90
2, 77056, Note_off_c, 0, 76, 100
2, 77088, Note_on_c, 0, 78, 90
2, 77152, Note_off_c, 0, 78, 100
2, 77184, Note_on_c, 0, 79, 90
2, 77248, Note_off_c, 0, 79, 100
2, 77280, Note_on_c, 0, 81, 90
2, 77344, Note_off_c, 0, 81, 100
2, 77376, Note_on_c, 0, 83, 90
2, 77440, Note_off_c, 0, 83, 100
2, 77472, Note_on_c, 0, 85, 90
2, 77536, Note_off_c, 0, 85, 100
2, 77568, Note_on_c, 0, 86, 90
2, 77632, Note_off_c, 0, 86, 100
2, 77664, Note_on_c, 0, 85, 90
2, 77728, Note_off_c, 0, 85, 100
2, 77760, Note_on_c, 0, 83, 90
2, 77824, Note_off_c, 0, 83, 100
2, 77856, Note_on_c, 0, 81, 90
2, 77920, Note_off_c, 0, 81, 100
2, 77952, Note_on_c, 0, 79, 90
2, 78016, Note_off_c, 0, 79, 100
2, 78048, Note_on_c, 0, 78, 90
2, 78112, Note_off_c, 0, 78, 100
2, 78144, Note_on_c, 0, 76, 90
2, 78208, Note_off_c, 0, 76, 100
2, 78240, Note_on_c, 0, 74, 90
2, 78304, Note_off_c, 0, 74, 100
2, 78336, Note_on_c, 0, 76, 90
2, 78400, Note_off_c, 0, 76, 100
2, 78432, Note_on_c, 0, 78, 90
2, 78496, Note_off_c, 0, 78, 100
2, 78528, Note_on_c, 0, 76, 90
2, 78592, Note_off_c, 0, 76, 100
2, 78624, Note_on_c, 0, 75, 90
2, 78688, Note_off_c, 0, 75, 100
2, 78720, Note_on_c, 0, 76, 90
2, 78784, Note_off_c, 0, 76, 100
2, 78816, Note_on_c, 0, 78, 90
2, 78880, Note_off_c, 0, 78, 100
2, 78912, Note_on_c, 0, 79, 90
2, 78976, Note_off_c, 0, 79, 100
2, 79008, Note_on_c, 0, 81, 90
2, 79072, Note_off_c, 0, 81, 100
2, 79104, Note_on_c, 0, 83, 90
2, 79168, Note_off_c, 0, 83, 100
2, 79200, Note_on_c, 0, 81, 90
2, 79264, Note_off_c, 0, 81, 100
2, 79296, Note_on_c, 0, 79, 90
2, 79360, Note_off_c, 0, 79, 100
2, 79392, Note_on_c, 0, 78, 90
2, 79456, Note_off_c, 0, 78, 100
2, 79488, Note_on_c, 0, 76, 90
2, 79552, Note_off_c, 0, 76, 100
2, 79584, Note_on_c, 0, 74, 90
2, 79648, Note_off_c, 0, 74, 100
2, 79680, Note_on_c, 0, 73, 90
2, 79744, Note_off_c, 0, 73, 100
2, 79776, Note_on_c, 0, 71, 90
2, 79840, Note_off_c, 0, 71, 100
2, 79872, Note_on_c, 0, 73, 90
2, 79936, Note_off_c, 0, 73, 100
2, 79968, Note_on_c, 0, 74, 90
2, 80032, Note_off_c, 0, 74, 100
2, 80048, Note_on_c, 0, 73, 90
2, 80112, Note_off_c, 0, 73, 100
2, 80160, Note_on_c, 0, 69, 90
2, 80224, Note_off_c, 0, 69, 100
2, 80256, Note_on_c, 0, 74, 90
2, 80384, Note_off_c, 0, 74, 100
2, 80640, Note_on_c, 0, 79, 90
2, 80704, Note_off_c, 0, 79, 100
2, 80736, Note_on_c, 0, 81, 90
2, 80800, Note_off_c, 0, 81, 100
2, 80832, Note_on_c, 0, 79, 90
2, 80896, Note_off_c, 0, 79, 100
2, 80928, Note_on_c, 0, 76, 90
2, 80992, Note_off_c, 0, 76, 100
2, 81024, Note_on_c, 0, 79, 90
2, 81088, Note_off_c, 0, 79, 100
2, 81104, Note_on_c, 0, 78, 90
2, 81168, Note_off_c, 0, 78, 100
2, 81216, Note_on_c, 0, 76, 90
2, 81280, Note_off_c, 0, 76, 100
2, 81312, Note_on_c, 0, 74, 90
2, 81376, Note_off_c, 0, 74, 100
2, 81408, Note_on_c, 0, 73, 90
2, 81472, Note_off_c, 0, 73, 100
2, 81504, Note_on_c, 0, 74, 90
2, 81568, Note_off_c, 0, 74, 100
2, 81600, Note_on_c, 0, 73, 90
2, 81664, Note_off_c, 0, 73, 100
2, 81696, Note_on_c, 0, 69, 90
2, 81760, Note_off_c, 0, 69, 100
2, 81792, Note_on_c, 0, 74, 90
2, 81920, Note_off_c, 0, 74, 100
2, 82176, Note_on_c, 0, 79, 90
2, 82240, Note_off_c, 0, 79, 100
2, 82272, Note_on_c, 0, 81, 90
2, 82336, Note_off_c, 0, 81, 100
2, 82368, Note_on_c, 0, 79, 90
2, 82432, Note_off_c, 0, 79, 100
2, 82464, Note_on_c, 0, 76, 90
2, 82528, Note_off_c, 0, 76, 100
2, 82560, Note_on_c, 0, 79, 90
2, 82624, Note_off_c, 0, 79, 100
2, 82656, Note_on_c, 0, 78, 90
2, 82720, Note_off_c, 0, 78, 100
2, 82752, Note_on_c, 0, 76, 90
2, 82816, Note_off_c, 0, 76, 100
2, 82848, Note_on_c, 0, 74, 90
2, 82912, Note_off_c, 0, 74, 100
2, 82944, Note_on_c, 0, 73, 90
2, 83008, Note_off_c, 0, 73, 100
2, 83040, Note_on_c, 0, 76, 90
2, 83104, Note_off_c, 0, 76, 100
2, 83136, Note_on_c, 0, 73, 90
2, 83200, Note_off_c, 0, 73, 100
2, 83232, Note_on_c, 0, 69, 90
2, 83296, Note_off_c, 0, 69, 100
2, 83328, Note_on_c, 0, 78, 90
2, 83392, Note_off_c, 0, 78, 100
2, 83424, Note_on_c, 0, 81, 90
2, 83488, Note_off_c, 0, 81, 100
2, 83520, Note_on_c, 0, 78, 90
2, 83584, Note_off_c, 0, 78, 100
2, 83616, Note_on_c, 0, 74, 90
2, 83680, Note_off_c, 0, 74, 100
2, 83712, Note_on_c, 0, 73, 90
2, 83776, Note_off_c, 0, 73, 100
2, 83808, Note_on_c, 0, 76, 90
2, 83872, Note_off_c, 0, 76, 100
2, 83904, Note_on_c, 0, 73, 90
2, 83968, Note_off_c, 0, 73, 100
2, 84000, Note_on_c, 0, 69, 90
2, 84064, Note_off_c, 0, 69, 100
2, 84096, Note_on_c, 0, 78, 90
2, 84160, Note_off_c, 0, 78, 100
2, 84192, Note_on_c, 0, 81, 90
2, 84256, Note_off_c, 0, 81, 100
2, 84288, Note_on_c, 0, 78, 90
2, 84352, Note_off_c, 0, 78, 100
2, 84384, Note_on_c, 0, 74, 90
2, 84448, Note_off_c, 0, 74, 100
2, 84480, Note_on_c, 0, 76, 90
2, 84480, Note_on_c, 0, 73, 90
2, 84608, Note_off_c, 0, 76, 100
2, 84608, Note_off_c, 0, 73, 100
2, 84672, Note_on_c, 0, 76, 90
2, 84672, Note_on_c, 0, 81, 90
2, 84672, Note_on_c, 0, 73, 90
2, 84800, Note_off_c, 0, 76, 100
2, 84800, Note_off_c, 0, 81, 100
2, 84800, Note_off_c, 0, 73, 100
2, 84864, Note_on_c, 0, 76, 90
2, 84864, Note_on_c, 0, 81, 90
2, 84864, Note_on_c, 0, 73, 90
2, 84992, Note_off_c, 0, 76, 100
2, 84992, Note_off_c, 0, 81, 100
2, 84992, Note_off_c, 0, 73, 100
2, 85056, Note_on_c, 0, 76, 90
2, 85056, Note_on_c, 0, 81, 90
2, 85056, Note_on_c, 0, 73, 90
2, 85184, Note_off_c, 0, 76, 100
2, 85184, Note_off_c, 0, 81, 100
2, 85184, Note_off_c, 0, 73, 100
2, 85248, Note_on_c, 0, 76, 90
2, 85248, Note_on_c, 0, 81, 90
2, 85248, Note_on_c, 0, 73, 90
2, 85376, Note_off_c, 0, 76, 100
2, 85376, Note_off_c, 0, 81, 100
2, 85376, Note_off_c, 0, 73, 100
2, 85584, Note_on_c, 0, 74, 90
2, 85616, Note_off_c, 0, 74, 100
2, 85632, Note_on_c, 0, 73, 60
2, 85696, Note_off_c, 0, 73, 100
2, 85728, Note_on_c, 0, 71, 60
2, 85792, Note_off_c, 0, 71, 100
2, 85824, Note_on_c, 0, 73, 60
2, 85888, Note_off_c, 0, 73, 100
2, 85920, Note_on_c, 0, 74, 60
2, 85984, Note_off_c, 0, 74, 100
2, 86016, Note_on_c, 0, 75, 60
2, 86144, Note_off_c, 0, 75, 100
2, 86208, Note_on_c, 0, 76, 60
2, 86336, Note_off_c, 0, 76, 100
2, 86592, Note_on_c, 0, 76, 60
2, 86720, Note_off_c, 0, 76, 100
2, 86784, Note_on_c, 0, 81, 60
2, 86912, Note_off_c, 0, 81, 100
2, 86976, Note_on_c, 0, 80, 60
2, 87104, Note_off_c, 0, 80, 100
2, 87168, Note_on_c, 0, 78, 60
2, 87296, Note_off_c, 0, 78, 100
2, 87360, Note_on_c, 0, 76, 60
2, 87488, Note_off_c, 0, 76, 100
2, 87552, Note_on_c, 0, 73, 60
2, 87680, Note_off_c, 0, 73, 100
2, 87744, Note_on_c, 0, 74, 60
2, 87872, Note_off_c, 0, 74, 100
2, 88128, Note_on_c, 0, 74, 60
2, 88256, Note_off_c, 0, 74, 100
2, 88320, Note_on_c, 0, 76, 60
2, 88448, Note_off_c, 0, 76, 100
2, 88512, Note_on_c, 0, 74, 60
2, 88640, Note_off_c, 0, 74, 100
2, 88704, Note_on_c, 0, 73, 60
2, 88832, Note_off_c, 0, 73, 100
2, 88896, Note_on_c, 0, 71, 60
2, 89024, Note_off_c, 0, 71, 100
2, 89088, Note_on_c, 0, 68, 60
2, 89216, Note_off_c, 0, 68, 100
2, 89280, Note_on_c, 0, 69, 60
2, 89408, Note_off_c, 0, 69, 100
2, 89664, Note_on_c, 0, 71, 60
2, 89792, Note_off_c, 0, 71, 100
2, 89856, Note_on_c, 0, 72, 60
2, 89984, Note_off_c, 0, 72, 100
2, 90048, Note_on_c, 0, 73, 60
2, 90176, Note_off_c, 0, 73, 100
2, 90432, Note_on_c, 0, 76, 60
2, 90496, Note_off_c, 0, 76, 100
2, 90528, Note_on_c, 0, 74, 60
2, 90592, Note_off_c, 0, 74, 100
2, 90624, Note_on_c, 0, 73, 60
2, 91008, Note_off_c, 0, 73, 100
2, 91200, Note_on_c, 0, 74, 60
2, 91264, Note_off_c, 0, 74, 100
2, 91296, Note_on_c, 0, 73, 60
2, 91360, Note_off_c, 0, 73, 100
2, 91392, Note_on_c, 0, 71, 60
2, 91520, Note_off_c, 0, 71, 100
2, 91584, Note_on_c, 0, 73, 60
2, 91712, Note_off_c, 0, 73, 100
2, 91776, Note_on_c, 0, 74, 60
2, 91904, Note_off_c, 0, 74, 100
2, 91968, Note_on_c, 0, 75, 60
2, 92096, Note_off_c, 0, 75, 100
2, 92160, Note_on_c, 0, 75, 60
2, 92288, Note_off_c, 0, 75, 100
2, 92352, Note_on_c, 0, 76, 60
2, 92480, Note_off_c, 0, 76, 100
2, 92736, Note_on_c, 0, 76, 60
2, 92864, Note_off_c, 0, 76, 100
2, 92928, Note_on_c, 0, 81, 60
2, 93056, Note_off_c, 0, 81, 100
2, 93120, Note_on_c, 0, 80, 60
2, 93248, Note_off_c, 0, 80, 100
2, 93312, Note_on_c, 0, 78, 60
2, 93440, Note_off_c, 0, 78, 100
2, 93504, Note_on_c, 0, 76, 60
2, 93632, Note_off_c, 0, 76, 100
2, 93696, Note_on_c, 0, 73, 60
2, 93824, Note_off_c, 0, 73, 100
2, 93888, Note_on_c, 0, 74, 60
2, 94016, Note_off_c, 0, 74, 100
2, 94272, Note_on_c, 0, 74, 60
2, 94400, Note_off_c, 0, 74, 100
2, 94464, Note_on_c, 0, 76, 60
2, 94592, Note_off_c, 0, 76, 100
2, 94656, Note_on_c, 0, 74, 60
2, 94784, Note_off_c, 0, 74, 100
2, 94848, Note_on_c, 0, 73, 60
2, 94976, Note_off_c, 0, 73, 100
2, 95040, Note_on_c, 0, 71, 60
2, 95168, Note_off_c, 0, 71, 100
2, 95232, Note_on_c, 0, 73, 60
2, 95424, Note_off_c, 0, 73, 100
2, 95520, Note_on_c, 0, 69, 60
2, 95584, Note_off_c, 0, 69, 100
2, 95616, Note_on_c, 0, 66, 60
2, 95808, Note_off_c, 0, 66, 100
2, 95904, Note_on_c, 0, 71, 60
2, 95968, Note_off_c, 0, 71, 100
2, 96000, Note_on_c, 0, 69, 60
2, 96256, Note_off_c, 0, 69, 100
2, 96384, Note_on_c, 0, 68, 60
2, 96416, Note_off_c, 0, 68, 100
2, 96432, Note_on_c, 0, 69, 60
2, 96464, Note_off_c, 0, 69, 100
2, 96480, Note_on_c, 0, 68, 60
2, 96512, Note_off_c, 0, 68, 100
2, 96528, Note_on_c, 0, 69, 60
2, 96544, Note_on_c, 0, 68, 60
2, 96560, Note_off_c, 0, 69, 100
2, 96576, Note_off_c, 0, 68, 100
2, 96624, Note_on_c, 0, 69, 60
2, 96656, Note_off_c, 0, 69, 100
2, 96672, Note_on_c, 0, 66, 60
2, 96704, Note_off_c, 0, 66, 100
2, 96720, Note_on_c, 0, 68, 60
2, 96752, Note_off_c, 0, 68, 100
2, 96768, Note_on_c, 0, 69, 60
2, 96832, Note_off_c, 0, 69, 100
2, 96864, Note_on_c, 0, 76, 90
2, 96928, Note_off_c, 0, 76, 100
2, 96960, Note_on_c, 0, 75, 90
2, 97024, Note_off_c, 0, 75, 100
2, 97056, Note_on_c, 0, 76, 90
2, 97120, Note_off_c, 0, 76, 100
2, 97152, Note_on_c, 0, 78, 90
2, 97216, Note_off_c, 0, 78, 100
2, 97248, Note_on_c, 0, 76, 90
2, 97312, Note_off_c, 0, 76, 100
2, 97344, Note_on_c, 0, 75, 90
2, 97344, Note_on_c, 0, 69, 90
2, 97408, Note_off_c, 0, 75, 100
2, 97440, Note_on_c, 0, 76, 90
2, 97472, Note_off_c, 0, 69, 100
2, 97504, Note_off_c, 0, 76, 100
2, 97536, Note_on_c, 0, 74, 90
2, 97536, Note_on_c, 0, 71, 90
2, 97600, Note_off_c, 0, 74, 100
2, 97632, Note_on_c, 0, 76, 90
2, 97664, Note_off_c, 0, 71, 100
2, 97696, Note_off_c, 0, 76, 100
2, 97728, Note_on_c, 0, 74, 90
2, 97728, Note_on_c, 0, 69, 90
2, 97792, Note_off_c, 0, 74, 100
2, 97824, Note_on_c, 0, 76, 90
2, 97856, Note_off_c, 0, 69, 100
2, 97888, Note_off_c, 0, 76, 100
2, 97920, Note_on_c, 0, 74, 90
2, 97920, Note_on_c, 0, 68, 90
2, 97984, Note_off_c, 0, 74, 100
2, 98016, Note_on_c, 0, 76, 90
2, 98048, Note_off_c, 0, 68, 100
2, 98080, Note_off_c, 0, 76, 100
2, 98112, Note_on_c, 0, 74, 90
2, 98112, Note_on_c, 0, 64, 90
2, 98176, Note_off_c, 0, 74, 100
2, 98208, Note_on_c, 0, 76, 90
2, 98240, Note_off_c, 0, 64, 100
2, 98272, Note_off_c, 0, 76, 100
2, 98304, Note_on_c, 0, 73, 90
2, 98304, Note_on_c, 0, 69, 90
2, 98368, Note_off_c, 0, 73, 100
2, 98400, Note_on_c, 0, 76, 90
2, 98464, Note_off_c, 0, 76, 100
2, 98496, Note_on_c, 0, 75, 90
2, 98560, Note_off_c, 0, 69, 100
2, 98560, Note_off_c, 0, 75, 100
2, 98592, Note_on_c, 0, 76, 90
2, 98656, Note_off_c, 0, 76, 100
2, 98688, Note_on_c, 0, 78, 90
2, 98752, Note_off_c, 0, 78, 100
2, 98784, Note_on_c, 0, 76, 90
2, 98848, Note_off_c, 0, 76, 100
2, 98880, Note_on_c, 0, 75, 90
2, 98944, Note_off_c, 0, 75, 100
2, 98976, Note_on_c, 0, 76, 90
2, 99040, Note_off_c, 0, 76, 100
2, 99072, Note_on_c, 0, 74, 90
2, 99136, Note_off_c, 0, 74, 100
2, 99168, Note_on_c, 0, 76, 90
2, 99232, Note_off_c, 0, 76, 100
2, 99264, Note_on_c, 0, 74, 90
2, 99328, Note_off_c, 0, 74, 100
2, 99360, Note_on_c, 0, 76, 90
2, 99424, Note_off_c, 0, 76, 100
2, 99456, Note_on_c, 0, 74, 90
2, 99520, Note_off_c, 0, 74, 100
2, 99552, Note_on_c, 0, 76, 90
2, 99616, Note_off_c, 0, 76, 100
2, 99648, Note_on_c, 0, 74, 90
2, 99712, Note_off_c, 0, 74, 100
2, 99744, Note_on_c, 0, 76, 90
2, 99808, Note_off_c, 0, 76, 100
2, 99840, Note_on_c, 0, 73, 90
2, 99936, Note_on_c, 0, 64, 90
2, 100000, Note_off_c, 0, 64, 100
2, 100032, Note_on_c, 0, 63, 90
2, 100096, Note_off_c, 0, 73, 100
2, 100096, Note_off_c, 0, 63, 100
2, 100128, Note_on_c, 0, 64, 90
2, 100192, Note_off_c, 0, 64, 100
2, 100224, Note_on_c, 0, 66, 90
2, 100288, Note_off_c, 0, 66, 100
2, 100320, Note_on_c, 0, 64, 90
2, 100384, Note_off_c, 0, 64, 100
2, 100416, Note_on_c, 0, 81, 90
2, 100416, Note_on_c, 0, 63, 90
2, 100480, Note_off_c, 0, 63, 100
2, 100512, Note_on_c, 0, 64, 90
2, 100544, Note_off_c, 0, 81, 100
2, 100576, Note_off_c, 0, 64, 100
2, 100608, Note_on_c, 0, 83, 99
2, 100608, Note_on_c, 0, 62, 90
2, 100672, Note_off_c, 0, 62, 100
2, 100704, Note_on_c, 0, 64, 90
2, 100736, Note_off_c, 0, 83, 100
2, 100768, Note_off_c, 0, 64, 100
2, 100800, Note_on_c, 0, 81, 90
2, 100800, Note_on_c, 0, 62, 90
2, 100864, Note_off_c, 0, 62, 100
2, 100896, Note_on_c, 0, 64, 90
2, 100928, Note_off_c, 0, 81, 100
2, 100960, Note_off_c, 0, 64, 100
2, 100992, Note_on_c, 0, 80, 90
2, 100992, Note_on_c, 0, 62, 90
2, 101056, Note_off_c, 0, 62, 100
2, 101088, Note_on_c, 0, 64, 90
2, 101120, Note_off_c, 0, 80, 100
2, 101152, Note_off_c, 0, 64, 100
2, 101184, Note_on_c, 0, 76, 90
2, 101184, Note_on_c, 0, 62, 90
2, 101248, Note_off_c, 0, 62, 100
2, 101280, Note_on_c, 0, 64, 90
2, 101312, Note_off_c, 0, 76, 100
2, 101344, Note_off_c, 0, 64, 100
2, 101376, Note_on_c, 0, 81, 90
2, 101376, Note_on_c, 0, 61, 90
2, 101440, Note_off_c, 0, 61, 100
2, 101472, Note_on_c, 0, 64, 90
2, 101536, Note_off_c, 0, 64, 100
2, 101568, Note_on_c, 0, 62, 90
2, 101632, Note_off_c, 0, 81, 100
2, 101632, Note_off_c, 0, 62, 100
2, 101664, Note_on_c, 0, 64, 90
2, 101728, Note_off_c, 0, 64, 100
2, 101760, Note_on_c, 0, 66, 90
2, 101824, Note_off_c, 0, 66, 100
2, 101856, Note_on_c, 0, 64, 90
2, 101920, Note_off_c, 0, 64, 100
2, 101952, Note_on_c, 0, 62, 90
2, 102016, Note_off_c, 0, 62, 100
2, 102048, Note_on_c, 0, 64, 90
2, 102112, Note_off_c, 0, 64, 100
2, 102144, Note_on_c, 0, 62, 99
2, 102208, Note_off_c, 0, 62, 100
2, 102240, Note_on_c, 0, 64, 90
2, 102304, Note_off_c, 0, 64, 100
2, 102336, Note_on_c, 0, 62, 90
2, 102400, Note_off_c, 0, 62, 100
2, 102432, Note_on_c, 0, 64, 90
2, 102496, Note_off_c, 0, 64, 100
2, 102528, Note_on_c, 0, 62, 90
2, 102592, Note_off_c, 0, 62, 100
2, 102624, Note_on_c, 0, 64, 90
2, 102688, Note_off_c, 0, 64, 100
2, 102720, Note_on_c, 0, 62, 90
2, 102784, Note_off_c, 0, 62, 100
2, 102816, Note_on_c, 0, 64, 90
2, 102880, Note_off_c, 0, 64, 100
2, 102912, Note_on_c, 0, 61, 90
2, 103168, Note_off_c, 0, 61, 100
2, 103296, Note_on_c, 0, 76, 60
2, 103296, Note_on_c, 0, 61, 60
2, 103360, Note_off_c, 0, 61, 100
2, 103392, Note_on_c, 0, 69, 60
2, 103456, Note_off_c, 0, 69, 100
2, 103488, Note_on_c, 0, 61, 60
2, 103552, Note_off_c, 0, 76, 100
2, 103552, Note_off_c, 0, 61, 100
2, 103584, Note_on_c, 0, 69, 60
2, 103648, Note_off_c, 0, 69, 100
2, 103680, Note_on_c, 0, 74, 60
2, 103680, Note_on_c, 0, 61, 60
2, 103744, Note_off_c, 0, 61, 100
2, 103776, Note_on_c, 0, 69, 60
2, 103840, Note_off_c, 0, 69, 100
2, 103872, Note_on_c, 0, 61, 60
2, 103936, Note_off_c, 0, 74, 100
2, 103936, Note_off_c, 0, 61, 100
2, 103968, Note_on_c, 0, 69, 60
2, 104032, Note_off_c, 0, 69, 100
2, 104064, Note_on_c, 0, 73, 60
2, 104064, Note_on_c, 0, 61, 60
2, 104128, Note_off_c, 0, 61, 100
2, 104160, Note_on_c, 0, 69, 60
2, 104224, Note_off_c, 0, 69, 100
2, 104256, Note_on_c, 0, 61, 60
2, 104320, Note_off_c, 0, 73, 100
2, 104320, Note_off_c, 0, 61, 100
2, 104352, Note_on_c, 0, 69, 60
2, 104416, Note_off_c, 0, 69, 100
2, 104448, Note_on_c, 0, 78, 60
2, 104448, Note_on_c, 0, 62, 60
2, 104512, Note_off_c, 0, 62, 100
2, 104544, Note_on_c, 0, 69, 60
2, 104608, Note_off_c, 0, 69, 100
2, 104640, Note_off_c, 0, 78, 100
2, 104640, Note_on_c, 0, 68, 60
2, 104688, Note_on_c, 0, 80, 60
2, 104704, Note_off_c, 0, 68, 100
2, 104720, Note_off_c, 0, 80, 100
2, 104736, Note_on_c, 0, 78, 60
2, 104736, Note_on_c, 0, 69, 60
2, 104768, Note_off_c, 0, 78, 100
2, 104784, Note_on_c, 0, 76, 60
2, 104800, Note_off_c, 0, 69, 100
2, 104816, Note_off_c, 0, 76, 100
2, 104832, Note_on_c, 0, 78, 60
2, 104832, Note_on_c, 0, 62, 60
2, 104896, Note_off_c, 0, 62, 100
2, 104928, Note_on_c, 0, 69, 60
2, 104960, Note_off_c, 0, 78, 100
2, 104992, Note_off_c, 0, 69, 100
2, 105024, Note_on_c, 0, 80, 60
2, 105024, Note_on_c, 0, 68, 60
2, 105088, Note_off_c, 0, 68, 100
2, 105120, Note_on_c, 0, 69, 60
2, 105152, Note_off_c, 0, 80, 100
2, 105184, Note_off_c, 0, 69, 100
2, 105216, Note_on_c, 0, 83, 60
2, 105216, Note_on_c, 0, 62, 60
2, 105280, Note_off_c, 0, 62, 100
2, 105312, Note_on_c, 0, 69, 60
2, 105344, Note_off_c, 0, 83, 100
2, 105376, Note_off_c, 0, 69, 100
2, 105408, Note_on_c, 0, 81, 60
2, 105408, Note_on_c, 0, 68, 60
2, 105472, Note_off_c, 0, 68, 100
2, 105504, Note_on_c, 0, 69, 60
2, 105536, Note_off_c, 0, 81, 100
2, 105568, Note_off_c, 0, 69, 100
2, 105600, Note_on_c, 0, 80, 60
2, 105600, Note_on_c, 0, 62, 60
2, 105664, Note_off_c, 0, 62, 100
2, 105696, Note_on_c, 0, 69, 60
2, 105728, Note_off_c, 0, 80, 100
2, 105760, Note_off_c, 0, 69, 100
2, 105792, Note_on_c, 0, 78, 60
2, 105792, Note_on_c, 0, 68, 60
2, 105856, Note_off_c, 0, 68, 100
2, 105888, Note_on_c, 0, 69, 60
2, 105920, Note_off_c, 0, 78, 100
2, 105952, Note_off_c, 0, 69, 100
2, 105984, Note_on_c, 0, 76, 90
2, 105984, Note_on_c, 0, 61, 90
2, 106048, Note_off_c, 0, 61, 100
2, 106080, Note_on_c, 0, 69, 90
2, 106112, Note_off_c, 0, 76, 100
2, 106144, Note_off_c, 0, 69, 100
2, 106176, Note_on_c, 0, 67, 90
2, 106240, Note_off_c, 0, 67, 100
2, 106272, Note_on_c, 0, 69, 90
2, 106336, Note_off_c, 0, 69, 100
2, 106368, Note_on_c, 0, 76, 90
2, 106368, Note_on_c, 0, 61, 90
2, 106432, Note_off_c, 0, 61, 100
2, 106464, Note_on_c, 0, 69, 90
2, 106528, Note_off_c, 0, 69, 100
2, 106560, Note_on_c, 0, 61, 90
2, 106624, Note_off_c, 0, 76, 100
2, 106624, Note_off_c, 0, 61, 100
2, 106656, Note_on_c, 0, 69, 90
2, 106720, Note_off_c, 0, 69, 100
2, 106752, Note_on_c, 0, 74, 90
2, 106752, Note_on_c, 0, 59, 90
2, 106816, Note_off_c, 0, 59, 100
2, 106848, Note_on_c, 0, 69, 90
2, 106912, Note_off_c, 0, 69, 100
2, 106944, Note_on_c, 0, 59, 90
2, 107008, Note_off_c, 0, 74, 100
2, 107008, Note_off_c, 0, 59, 100
2, 107040, Note_on_c, 0, 69, 90
2, 107104, Note_off_c, 0, 69, 100
2, 107136, Note_on_c, 0, 73, 90
2, 107136, Note_on_c, 0, 57, 90
2, 107200, Note_off_c, 0, 57, 100
2, 107232, Note_on_c, 0, 69, 90
2, 107296, Note_off_c, 0, 69, 100
2, 107328, Note_on_c, 0, 57, 90
2, 107392, Note_off_c, 0, 73, 100
2, 107392, Note_off_c, 0, 57, 100
2, 107424, Note_on_c, 0, 69, 90
2, 107488, Note_off_c, 0, 69, 100
2, 107520, Note_on_c, 0, 71, 90
2, 107712, Note_off_c, 0, 71, 100
2, 107808, Note_on_c, 0, 78, 90
2, 107872, Note_off_c, 0, 78, 100
2, 107904, Note_on_c, 0, 76, 90
2, 107968, Note_off_c, 0, 76, 100
2, 108000, Note_on_c, 0, 74, 90
2, 108064, Note_off_c, 0, 74, 100
2, 108080, Note_on_c, 0, 73, 90
2, 108144, Note_off_c, 0, 73, 100
2, 108192, Note_on_c, 0, 71, 90
2, 108256, Note_off_c, 0, 71, 100
2, 108288, Note_on_c, 0, 69, 90
2, 108544, Note_off_c, 0, 69, 100
2, 108624, Note_on_c, 0, 73, 90
2, 108656, Note_off_c, 0, 73, 100
2, 108672, Note_on_c, 0, 71, 90
2, 108704, Note_off_c, 0, 71, 100
2, 108720, Note_on_c, 0, 73, 90
2, 108752, Note_off_c, 0, 73, 100
2, 108768, Note_on_c, 0, 71, 90
2, 108800, Note_off_c, 0, 71, 100
2, 108816, Note_on_c, 0, 73, 90
2, 108848, Note_off_c, 0, 73, 100
2, 108864, Note_on_c, 0, 71, 90
2, 108896, Note_off_c, 0, 71, 100
2, 108912, Note_on_c, 0, 73, 90
2, 108944, Note_off_c, 0, 73, 100
2, 108960, Note_on_c, 0, 69, 90
2, 108992, Note_off_c, 0, 69, 100
2, 109008, Note_on_c, 0, 71, 90
2, 109040, Note_off_c, 0, 71, 100
2, 109056, Note_on_c, 0, 69, 90
2, 109184, Note_off_c, 0, 69, 100
2, 109440, Note_on_c, 0, 76, 60
2, 109440, Note_on_c, 0, 61, 60
2, 109504, Note_off_c, 0, 61, 100
2, 109536, Note_on_c, 0, 69, 60
2, 109600, Note_off_c, 0, 69, 100
2, 109632, Note_on_c, 0, 61, 60
2, 109696, Note_off_c, 0, 76, 100
2, 109696, Note_off_c, 0, 61, 100
2, 109728, Note_on_c, 0, 69, 60
2, 109792, Note_off_c, 0, 69, 100
2, 109824, Note_on_c, 0, 74, 60
2, 109824, Note_on_c, 0, 59, 60
2, 109888, Note_off_c, 0, 59, 100
2, 109920, Note_on_c, 0, 69, 60
2, 109984, Note_off_c, 0, 69, 100
2, 110016, Note_on_c, 0, 59, 60
2, 110080, Note_off_c, 0, 74, 100
2, 110080, Note_off_c, 0, 59, 100
2, 110112, Note_on_c, 0, 69, 60
2, 110176, Note_off_c, 0, 69, 100
2, 110208, Note_on_c, 0, 73, 60
2, 110208, Note_on_c, 0, 57, 60
2, 110272, Note_off_c, 0, 57, 100
2, 110304, Note_on_c, 0, 69, 60
2, 110368, Note_off_c, 0, 69, 100
2, 110400, Note_on_c, 0, 57, 60
2, 110464, Note_off_c, 0, 73, 100
2, 110464, Note_off_c, 0, 57, 100
2, 110496, Note_on_c, 0, 69, 60
2, 110560, Note_off_c, 0, 69, 100
2, 110592, Note_on_c, 0, 78, 60
2, 110592, Note_on_c, 0, 62, 60
2, 110656, Note_off_c, 0, 62, 100
2, 110688, Note_on_c, 0, 69, 60
2, 110752, Note_off_c, 0, 69, 100
2, 110784, Note_on_c, 0, 68, 60
2, 110832, Note_on_c, 0, 80, 60
2, 110848, Note_off_c, 0, 68, 100
2, 110864, Note_off_c, 0, 80, 100
2, 110880, Note_on_c, 0, 78, 60
2, 110880, Note_on_c, 0, 69, 60
2, 110912, Note_off_c, 0, 78, 100
2, 110928, Note_on_c, 0, 76, 60
2, 110944, Note_off_c, 0, 69, 100
2, 110960, Note_off_c, 0, 76, 100
2, 110976, Note_off_c, 0, 78, 100
2, 110976, Note_on_c, 0, 78, 60
2, 110976, Note_on_c, 0, 62, 60
2, 111040, Note_off_c, 0, 62, 100
2, 111072, Note_on_c, 0, 69, 60
2, 111104, Note_off_c, 0, 78, 100
2, 111136, Note_off_c, 0, 69, 100
2, 111168, Note_on_c, 0, 80, 60
2, 111168, Note_on_c, 0, 68, 60
2, 111232, Note_off_c, 0, 68, 100
2, 111264, Note_on_c, 0, 69, 60
2, 111296, Note_off_c, 0, 80, 100
2, 111328, Note_off_c, 0, 69, 100
2, 111360, Note_on_c, 0, 83, 60
2, 111360, Note_on_c, 0, 62, 60
2, 111424, Note_off_c, 0, 62, 100
2, 111456, Note_on_c, 0, 69, 60
2, 111488, Note_off_c, 0, 83, 100
2, 111520, Note_off_c, 0, 69, 100
2, 111552, Note_on_c, 0, 81, 60
2, 111552, Note_on_c, 0, 68, 60
2, 111616, Note_off_c, 0, 68, 100
2, 111648, Note_on_c, 0, 69, 60
2, 111680, Note_off_c, 0, 81, 100
2, 111712, Note_off_c, 0, 69, 100
2, 111744, Note_on_c, 0, 80, 60
2, 111744, Note_on_c, 0, 62, 60
2, 111808, Note_off_c, 0, 62, 100
2, 111840, Note_on_c, 0, 69, 60
2, 111872, Note_off_c, 0, 80, 100
2, 111904, Note_off_c, 0, 69, 100
2, 111936, Note_on_c, 0, 78, 60
2, 111936, Note_on_c, 0, 68, 60
2, 112000, Note_off_c, 0, 68, 100
2, 112032, Note_on_c, 0, 69, 60
2, 112064, Note_off_c, 0, 78, 100
2, 112096, Note_off_c, 0, 69, 100
2, 112128, Note_on_c, 0, 76, 60
2, 112128, Note_on_c, 0, 61, 60
2, 112192, Note_off_c, 0, 61, 100
2, 112224, Note_on_c, 0, 69, 60
2, 112256, Note_off_c, 0, 76, 100
2, 112288, Note_off_c, 0, 69, 100
2, 112320, Note_on_c, 0, 67, 60
2, 112384, Note_off_c, 0, 67, 100
2, 112416, Note_on_c, 0, 69, 60
2, 112480, Note_off_c, 0, 69, 100
2, 112512, Note_on_c, 0, 76, 90
2, 112512, Note_on_c, 0, 61, 90
2, 112576, Note_off_c, 0, 61, 100
2, 112608, Note_on_c, 0, 69, 90
2, 112672, Note_off_c, 0, 69, 100
2, 112704, Note_on_c, 0, 61, 90
2, 112768, Note_off_c, 0, 76, 100
2, 112768, Note_off_c, 0, 61, 100
2, 112800, Note_on_c, 0, 69, 90
2, 112864, Note_off_c, 0, 69, 100
2, 112896, Note_on_c, 0, 74, 90
2, 112896, Note_on_c, 0, 59, 90
2, 112960, Note_off_c, 0, 59, 100
2, 112992, Note_on_c, 0, 69, 90
2, 113056, Note_off_c, 0, 69, 100
2, 113088, Note_on_c, 0, 59, 90
2, 113152, Note_off_c, 0, 74, 100
2, 113152, Note_off_c, 0, 59, 100
2, 113184, Note_on_c, 0, 69, 90
2, 113248, Note_off_c, 0, 69, 100
2, 113280, Note_on_c, 0, 73, 90
2, 113280, Note_on_c, 0, 57, 90
2, 113344, Note_off_c, 0, 57, 100
2, 113376, Note_on_c, 0, 69, 90
2, 113440, Note_off_c, 0, 69, 100
2, 113472, Note_on_c, 0, 57, 90
2, 113536, Note_off_c, 0, 73, 100
2, 113536, Note_off_c, 0, 57, 100
2, 113568, Note_on_c, 0, 69, 90
2, 113632, Note_off_c, 0, 69, 100
2, 113664, Note_on_c, 0, 71, 90
2, 113952, Note_on_c, 0, 78, 90
2, 114016, Note_off_c, 0, 78, 100
2, 114048, Note_off_c, 0, 71, 100
2, 114048, Note_on_c, 0, 76, 90
2, 114112, Note_off_c, 0, 76, 100
2, 114144, Note_on_c, 0, 74, 90
2, 114208, Note_off_c, 0, 74, 100
2, 114240, Note_on_c, 0, 73, 90
2, 114304, Note_off_c, 0, 73, 100
2, 114336, Note_on_c, 0, 71, 90
2, 114400, Note_off_c, 0, 71, 100
2, 114432, Note_on_c, 0, 69, 90
2, 114688, Note_off_c, 0, 69, 100
2, 114768, Note_on_c, 0, 73, 90
2, 114800, Note_off_c, 0, 73, 100
2, 114816, Note_on_c, 0, 71, 90
2, 114848, Note_off_c, 0, 71, 100
2, 114864, Note_on_c, 0, 73, 90
2, 114896, Note_off_c, 0, 73, 100
2, 114912, Note_on_c, 0, 71, 90
2, 114944, Note_off_c, 0, 71, 100
2, 114960, Note_on_c, 0, 73, 90
2, 114992, Note_off_c, 0, 73, 100
2, 115008, Note_on_c, 0, 71, 90
2, 115040, Note_off_c, 0, 71, 100
2, 115056, Note_on_c, 0, 73, 90
2, 115088, Note_off_c, 0, 73, 100
2, 115104, Note_on_c, 0, 69, 90
2, 115136, Note_off_c, 0, 69, 100
2, 115168, Note_on_c, 0, 71, 90
2, 115200, Note_off_c, 0, 71, 100
2, 115200, Note_on_c, 0, 69, 90
2, 115264, Note_off_c, 0, 69, 100
2, 115296, Note_on_c, 0, 64, 90
2, 115360, Note_off_c, 0, 64, 100
2, 115392, Note_on_c, 0, 69, 90
2, 115456, Note_off_c, 0, 69, 100
2, 115488, Note_on_c, 0, 73, 90
2, 115552, Note_off_c, 0, 73, 100
2, 115584, Note_on_c, 0, 76, 90
2, 115648, Note_off_c, 0, 76, 100
2, 115680, Note_on_c, 0, 73, 90
2, 115744, Note_off_c, 0, 73, 100
2, 115776, Note_on_c, 0, 74, 90
2, 115840, Note_off_c, 0, 74, 100
2, 115872, Note_on_c, 0, 71, 90
2, 115936, Note_off_c, 0, 71, 100
2, 115968, Note_on_c, 0, 69, 90
2, 116032, Note_off_c, 0, 69, 100
2, 116064, Note_on_c, 0, 64, 90
2, 116128, Note_off_c, 0, 64, 100
2, 116160, Note_on_c, 0, 69, 90
2, 116224, Note_off_c, 0, 69, 100
2, 116256, Note_on_c, 0, 73, 90
2, 116320, Note_off_c, 0, 73, 100
2, 116352, Note_on_c, 0, 76, 90
2, 116416, Note_off_c, 0, 76, 100
2, 116448, Note_on_c, 0, 73, 90
2, 116512, Note_off_c, 0, 73, 100
2, 116544, Note_on_c, 0, 74, 90
2, 116608, Note_off_c, 0, 74, 100
2, 116640, Note_on_c, 0, 71, 90
2, 116704, Note_off_c, 0, 71, 100
2, 116736, Note_on_c, 0, 69, 90
2, 116992, Note_off_c, 0, 69, 100
2, 117120, Note_on_c, 0, 80, 99
2, 117120, Note_on_c, 0, 74, 99
2, 117120, Note_on_c, 0, 71, 99
2, 117376, Note_off_c, 0, 80, 100
2, 117376, Note_off_c, 0, 74, 100
2, 117376, Note_off_c, 0, 71, 100
2, 117504, Note_on_c, 0, 81, 99
2, 117504, Note_on_c, 0, 73, 99
2, 117504, Note_on_c, 0, 69, 99
2, 117760, Note_off_c, 0, 81, 100
2, 117760, Note_off_c, 0, 73, 100
2, 117760, Note_off_c, 0, 69, 100
2, 118272, Note_on_c, 0, 74, 58
2, 118272, Note_on_c, 0, 66, 58
2, 118400, Note_off_c, 0, 74, 100
2, 118400, Note_off_c, 0, 66, 100
2, 118464, Note_on_c, 0, 73, 58
2, 118464, Note_on_c, 0, 64, 58
2, 118592, Note_off_c, 0, 73, 100
2, 118592, Note_off_c, 0, 64, 100
2, 118656, Note_on_c, 0, 73, 60
2, 118656, Note_on_c, 0, 64, 60
2, 118784, Note_off_c, 0, 73, 100
2, 118784, Note_off_c, 0, 64, 100
2, 118848, Note_on_c, 0, 62, 60
2, 118848, Note_on_c, 0, 71, 60
2, 118976, Note_off_c, 0, 62, 100
2, 118976, Note_off_c, 0, 71, 100
2, 119040, Note_on_c, 0, 71, 60
2, 119040, Note_on_c, 0, 62, 60
2, 119168, Note_off_c, 0, 71, 100
2, 119168, Note_off_c, 0, 62, 100
2, 119232, Note_on_c, 0, 69, 60
2, 119232, Note_on_c, 0, 61, 60
2, 119360, Note_off_c, 0, 69, 100
2, 119360, Note_off_c, 0, 61, 100
2, 119424, Note_on_c, 0, 61, 60
2, 119424, Note_on_c, 0, 69, 60
2, 119552, Note_off_c, 0, 61, 100
2, 119552, Note_off_c, 0, 69, 100
2, 119616, Note_on_c, 0, 68, 60
2, 119616, Note_on_c, 0, 59, 60
2, 119744, Note_off_c, 0, 68, 100
2, 119744, Note_off_c, 0, 59, 100
2, 119808, Note_on_c, 0, 68, 82
2, 119808, Note_on_c, 0, 62, 82
2, 119808, Note_on_c, 0, 59, 82
2, 120320, Note_off_c, 0, 68, 100
2, 120320, Note_off_c, 0, 62, 100
2, 120320, Note_off_c, 0, 59, 100
2, 120576, Note_on_c, 0, 69, 60
2, 120576, Note_on_c, 0, 61, 75
2, 120832, Note_off_c, 0, 69, 100
2, 120832, Note_off_c, 0, 61, 100
2, 121344, Note_on_c, 0, 81, 60
2, 121472, Note_off_c, 0, 81, 100
2, 121536, Note_on_c, 0, 79, 60
2, 121664, Note_off_c, 0, 79, 100
2, 121728, Note_on_c, 0, 79, 60
2, 121856, Note_off_c, 0, 79, 100
2, 121920, Note_on_c, 0, 78, 60
2, 122048, Note_off_c, 0, 78, 100
2, 122112, Note_on_c, 0, 78, 60
2, 122240, Note_off_c, 0, 78, 100
2, 122304, Note_on_c, 0, 76, 60
2, 122432, Note_off_c, 0, 76, 100
2, 122496, Note_on_c, 0, 76, 60
2, 122624, Note_off_c, 0, 76, 100
2, 122688, Note_on_c, 0, 75, 60
2, 122816, Note_off_c, 0, 75, 100
2, 122880, Note_on_c, 0, 75, 90
2, 122880, Note_on_c, 0, 73, 60
2, 123008, Note_off_c, 0, 73, 100
2, 123072, Note_on_c, 0, 71, 60
2, 123200, Note_off_c, 0, 71, 100
2, 123264, Note_on_c, 0, 71, 60
2, 123392, Note_off_c, 0, 71, 100
2, 123456, Note_on_c, 0, 69, 60
2, 123584, Note_off_c, 0, 69, 100
2, 123648, Note_on_c, 0, 69, 60
2, 123776, Note_off_c, 0, 69, 100
2, 123840, Note_on_c, 0, 67, 60
2, 123908, Note_off_c, 0, 75, 100
2, 123968, Note_off_c, 0, 67, 100
2, 124032, Note_on_c, 0, 67, 60
2, 124160, Note_off_c, 0, 67, 100
2, 124224, Note_on_c, 0, 66, 60
2, 124352, Note_off_c, 0, 66, 100
2, 124416, Note_on_c, 0, 75, 60
2, 124544, Note_off_c, 0, 75, 100
2, 124608, Note_on_c, 0, 76, 60
2, 124736, Note_off_c, 0, 76, 100
2, 124800, Note_on_c, 0, 71, 60
2, 124800, Note_on_c, 0, 67, 60
2, 124992, Note_on_c, 0, 79, 60
2, 125056, Note_off_c, 0, 71, 100
2, 125056, Note_off_c, 0, 67, 100
2, 125120, Note_off_c, 0, 79, 100
2, 125184, Note_on_c, 0, 77, 60
2, 125312, Note_off_c, 0, 77, 100
2, 125376, Note_on_c, 0, 78, 60
2, 125504, Note_off_c, 0, 78, 100
2, 125568, Note_on_c, 0, 71, 60
2, 125568, Note_on_c, 0, 63, 60
2, 125760, Note_on_c, 0, 81, 60
2, 125824, Note_off_c, 0, 71, 100
2, 125824, Note_off_c, 0, 63, 100
2, 125888, Note_off_c, 0, 81, 100
2, 125952, Note_on_c, 0, 78, 90
2, 125952, Note_on_c, 0, 75, 90
2, 126464, Note_off_c, 0, 78, 100
2, 126464, Note_off_c, 0, 75, 100
2, 126720, Note_on_c, 0, 79, 60
2, 126720, Note_on_c, 0, 76, 60
2, 126976, Note_off_c, 0, 79, 100
2, 126976, Note_off_c, 0, 76, 100
2, 127488, Note_on_c, 0, 79, 60
2, 127616, Note_off_c, 0, 79, 100
2, 127680, Note_on_c, 0, 78, 60
2, 127808, Note_off_c, 0, 78, 100
2, 127872, Note_on_c, 0, 78, 60
2, 128000, Note_off_c, 0, 78, 100
2, 128064, Note_on_c, 0, 76, 60
2, 128192, Note_off_c, 0, 76, 100
2, 128256, Note_on_c, 0, 76, 60
2, 128384, Note_off_c, 0, 76, 100
2, 128448, Note_on_c, 0, 74, 60
2, 128576, Note_off_c, 0, 74, 100
2, 128640, Note_on_c, 0, 74, 60
2, 128768, Note_off_c, 0, 74, 100
2, 128832, Note_on_c, 0, 73, 60
2, 128960, Note_off_c, 0, 73, 100
2, 129024, Note_on_c, 0, 71, 90
2, 129024, Note_on_c, 0, 71, 60
2, 129152, Note_off_c, 0, 71, 100
2, 129216, Note_on_c, 0, 69, 60
2, 129344, Note_off_c, 0, 69, 100
2, 129408, Note_on_c, 0, 69, 60
2, 129536, Note_off_c, 0, 69, 100
2, 129600, Note_on_c, 0, 67, 60
2, 129728, Note_off_c, 0, 67, 100
2, 129792, Note_on_c, 0, 67, 60
2, 129920, Note_off_c, 0, 67, 100
2, 129984, Note_on_c, 0, 66, 60
2, 130052, Note_off_c, 0, 71, 100
2, 130112, Note_off_c, 0, 66, 100
2, 130176, Note_on_c, 0, 66, 60
2, 130304, Note_off_c, 0, 66, 100
2, 130368, Note_on_c, 0, 64, 60
2, 130496, Note_off_c, 0, 64, 100
2, 130560, Note_on_c, 0, 73, 60
2, 130688, Note_off_c, 0, 73, 100
2, 130752, Note_on_c, 0, 74, 60
2, 130880, Note_off_c, 0, 74, 100
2, 130944, Note_on_c, 0, 69, 60
2, 130944, Note_on_c, 0, 66, 60
2, 131136, Note_on_c, 0, 78, 60
2, 131200, Note_off_c, 0, 69, 100
2, 131200, Note_off_c, 0, 66, 100
2, 131264, Note_off_c, 0, 78, 100
2, 131328, Note_on_c, 0, 75, 60
2, 131456, Note_off_c, 0, 75, 100
2, 131520, Note_on_c, 0, 76, 60
2, 131648, Note_off_c, 0, 76, 100
2, 131712, Note_on_c, 0, 69, 60
2, 131712, Note_on_c, 0, 61, 60
2, 131904, Note_on_c, 0, 79, 60
2, 131968, Note_off_c, 0, 69, 100
2, 131968, Note_off_c, 0, 61, 100
2, 132032, Note_off_c, 0, 79, 100
2, 132096, Note_on_c, 0, 76, 90
2, 132096, Note_on_c, 0, 73, 90
2, 132608, Note_off_c, 0, 76, 100
2, 132608, Note_off_c, 0, 73, 100
2, 132864, Note_on_c, 0, 78, 60
2, 132864, Note_on_c, 0, 74, 60
2, 133120, Note_off_c, 0, 78, 100
2, 133120, Note_off_c, 0, 74, 100
2, 133632, Note_on_c, 0, 78, 90
2, 133696, Note_off_c, 0, 78, 100
2, 133712, Note_on_c, 0, 86, 90
2, 133776, Note_off_c, 0, 86, 100
2, 133824, Note_on_c, 0, 78, 90
2, 133888, Note_off_c, 0, 78, 100
2, 133920, Note_on_c, 0, 86, 90
2, 133984, Note_off_c, 0, 86, 100
2, 134016, Note_on_c, 0, 78, 90
2, 134080, Note_off_c, 0, 78, 100
2, 134112, Note_on_c, 0, 86, 90
2, 134176, Note_off_c, 0, 86, 100
2, 134208, Note_on_c, 0, 78, 90
2, 134272, Note_off_c, 0, 78, 100
2, 134304, Note_on_c, 0, 86, 90
2, 134368, Note_off_c, 0, 86, 100
2, 134400, Note_on_c, 0, 78, 90
2, 134464, Note_off_c, 0, 78, 100
2, 134496, Note_on_c, 0, 86, 90
2, 134560, Note_off_c, 0, 86, 100
2, 134592, Note_on_c, 0, 78, 90
2, 134656, Note_off_c, 0, 78, 100
2, 134688, Note_on_c, 0, 86, 90
2, 134752, Note_off_c, 0, 86, 100
2, 134784, Note_on_c, 0, 78, 90
2, 134848, Note_off_c, 0, 78, 100
2, 134880, Note_on_c, 0, 86, 90
2, 134944, Note_off_c, 0, 86, 100
2, 134976, Note_on_c, 0, 78, 90
2, 135040, Note_off_c, 0, 78, 100
2, 135072, Note_on_c, 0, 86, 90
2, 135136, Note_off_c, 0, 86, 100
2, 135168, Note_on_c, 0, 76, 90
2, 135232, Note_off_c, 0, 76, 100
2, 135264, Note_on_c, 0, 86, 90
2, 135328, Note_off_c, 0, 86, 100
2, 135360, Note_on_c, 0, 76, 90
2, 135424, Note_off_c, 0, 76, 100
2, 135456, Note_on_c, 0, 86, 90
2, 135520, Note_off_c, 0, 86, 100
2, 135552, Note_on_c, 0, 76, 90
2, 135616, Note_off_c, 0, 76, 100
2, 135648, Note_on_c, 0, 86, 90
2, 135712, Note_off_c, 0, 86, 100
2, 135744, Note_on_c, 0, 76, 90
2, 135808, Note_off_c, 0, 76, 100
2, 135840, Note_on_c, 0, 86, 90
2, 135904, Note_off_c, 0, 86, 100
2, 135936, Note_on_c, 0, 76, 90
2, 136000, Note_off_c, 0, 76, 100
2, 136032, Note_on_c, 0, 86, 90
2, 136096, Note_off_c, 0, 86, 100
2, 136128, Note_on_c, 0, 76, 90
2, 136192, Note_off_c, 0, 76, 100
2, 136224, Note_on_c, 0, 86, 90
2, 136288, Note_off_c, 0, 86, 100
2, 136320, Note_on_c, 0, 76, 90
2, 136384, Note_off_c, 0, 76, 100
2, 136416, Note_on_c, 0, 86, 90
2, 136480, Note_off_c, 0, 86, 100
2, 136512, Note_on_c, 0, 76, 90
2, 136576, Note_off_c, 0, 76, 100
2, 136608, Note_on_c, 0, 86, 90
2, 136672, Note_off_c, 0, 86, 100
2, 136704, Note_on_c, 0, 74, 90
2, 136768, Note_off_c, 0, 74, 100
2, 136800, Note_on_c, 0, 86, 90
2, 136864, Note_off_c, 0, 86, 100
2, 136880, Note_on_c, 0, 74, 90
2, 136944, Note_off_c, 0, 74, 100
2, 136992, Note_on_c, 0, 86, 90
2, 137056, Note_off_c, 0, 86, 100
2, 137088, Note_on_c, 0, 74, 90
2, 137152, Note_off_c, 0, 74, 100
2, 137184, Note_on_c, 0, 86, 90
2, 137248, Note_off_c, 0, 86, 100
2, 137280, Note_on_c, 0, 74, 90
2, 137344, Note_off_c, 0, 74, 100
2, 137376, Note_on_c, 0, 86, 90
2, 137440, Note_off_c, 0, 86, 100
2, 137472, Note_on_c, 0, 74, 90
2, 137536, Note_off_c, 0, 74, 100
2, 137568, Note_on_c, 0, 86, 90
2, 137632, Note_off_c, 0, 86, 100
2, 137664, Note_on_c, 0, 74, 90
2, 137728, Note_off_c, 0, 74, 100
2, 137760, Note_on_c, 0, 86, 90
2, 137824, Note_off_c, 0, 86, 100
2, 137856, Note_on_c, 0, 74, 90
2, 137920, Note_off_c, 0, 74, 100
2, 137952, Note_on_c, 0, 86, 90
2, 138016, Note_off_c, 0, 86, 100
2, 138048, Note_on_c, 0, 74, 90
2, 138112, Note_off_c, 0, 74, 100
2, 138144, Note_on_c, 0, 86, 90
2, 138208, Note_off_c, 0, 86, 100
2, 138240, Note_on_c, 0, 73, 90
2, 138304, Note_off_c, 0, 73, 100
2, 138336, Note_on_c, 0, 86, 90
2, 138400, Note_off_c, 0, 86, 100
2, 138432, Note_on_c, 0, 73, 90
2, 138496, Note_off_c, 0, 73, 100
2, 138528, Note_on_c, 0, 86, 90
2, 138592, Note_off_c, 0, 86, 100
2, 138624, Note_on_c, 0, 73, 90
2, 138688, Note_off_c, 0, 73, 100
2, 138720, Note_on_c, 0, 86, 90
2, 138784, Note_off_c, 0, 86, 100
2, 138816, Note_on_c, 0, 73, 90
2, 138880, Note_off_c, 0, 73, 100
2, 138912, Note_on_c, 0, 86, 90
2, 138976, Note_off_c, 0, 86, 100
2, 139008, Note_on_c, 0, 72, 90
2, 139072, Note_off_c, 0, 72, 100
2, 139104, Note_on_c, 0, 86, 90
2, 139168, Note_off_c, 0, 86, 100
2, 139200, Note_on_c, 0, 72, 90
2, 139264, Note_off_c, 0, 72, 100
2, 139296, Note_on_c, 0, 86, 90
2, 139360, Note_off_c, 0, 86, 100
2, 139392, Note_on_c, 0, 72, 90
2, 139456, Note_off_c, 0, 72, 100
2, 139488, Note_on_c, 0, 86, 90
2, 139552, Note_off_c, 0, 86, 100
2, 139584, Note_on_c, 0, 72, 90
2, 139648, Note_off_c, 0, 72, 100
2, 139680, Note_on_c, 0, 86, 90
2, 139744, Note_off_c, 0, 86, 100
2, 139776, Note_on_c, 0, 81, 90
2, 139776, Note_on_c, 0, 71, 90
2, 139904, Note_off_c, 0, 81, 100
2, 139968, Note_on_c, 0, 79, 90
2, 140032, Note_off_c, 0, 71, 100
2, 140096, Note_off_c, 0, 79, 100
2, 140160, Note_on_c, 0, 79, 90
2, 140288, Note_off_c, 0, 79, 100
2, 140352, Note_on_c, 0, 78, 90
2, 140480, Note_off_c, 0, 78, 100
2, 140544, Note_on_c, 0, 86, 90
2, 140544, Note_on_c, 0, 77, 90
2, 140672, Note_off_c, 0, 86, 100
2, 140736, Note_on_c, 0, 85, 90
2, 140800, Note_off_c, 0, 77, 100
2, 140864, Note_off_c, 0, 85, 100
2, 140928, Note_on_c, 0, 85, 90
2, 141056, Note_off_c, 0, 85, 100
2, 141120, Note_on_c, 0, 83, 90
2, 141248, Note_off_c, 0, 83, 100
2, 141312, Note_on_c, 0, 79, 90
2, 141312, Note_on_c, 0, 82, 90
2, 141440, Note_off_c, 0, 79, 100
2, 141504, Note_on_c, 0, 78, 90
2, 141632, Note_off_c, 0, 78, 100
2, 141696, Note_on_c, 0, 78, 90
2, 141824, Note_off_c, 0, 82, 100
2, 141824, Note_off_c, 0, 78, 100
2, 141888, Note_on_c, 0, 76, 90
2, 142016, Note_off_c, 0, 76, 100
2, 142080, Note_on_c, 0, 74, 90
2, 142080, Note_on_c, 0, 83, 90
2, 142208, Note_off_c, 0, 74, 100
2, 142272, Note_on_c, 0, 73, 90
2, 142400, Note_off_c, 0, 73, 100
2, 142464, Note_on_c, 0, 73, 75
2, 142592, Note_off_c, 0, 83, 100
2, 142592, Note_off_c, 0, 73, 100
2, 142656, Note_on_c, 0, 71, 75
2, 142784, Note_off_c, 0, 71, 100
2, 142848, Note_on_c, 0, 76, 60
2, 142848, Note_on_c, 0, 67, 60
2, 142976, Note_off_c, 0, 76, 100
2, 142976, Note_off_c, 0, 67, 100
2, 143040, Note_on_c, 0, 74, 60
2, 143040, Note_on_c, 0, 66, 60
2, 143168, Note_off_c, 0, 74, 100
2, 143168, Note_off_c, 0, 66, 100
2, 143232, Note_on_c, 0, 74, 60
2, 143232, Note_on_c, 0, 66, 60
2, 143360, Note_off_c, 0, 74, 100
2, 143360, Note_off_c, 0, 66, 100
2, 143424, Note_on_c, 0, 73, 60
2, 143424, Note_on_c, 0, 64, 60
2, 143552, Note_off_c, 0, 73, 100
2, 143552, Note_off_c, 0, 64, 100
2, 143616, Note_on_c, 0, 73, 60
2, 143616, Note_on_c, 0, 64, 60
2, 143744, Note_off_c, 0, 73, 100
2, 143744, Note_off_c, 0, 64, 100
2, 143808, Note_on_c, 0, 71, 60
2, 143808, Note_on_c, 0, 62, 60
2, 143936, Note_off_c, 0, 71, 100
2, 143936, Note_off_c, 0, 62, 100
2, 144000, Note_on_c, 0, 71, 60
2, 144000, Note_on_c, 0, 62, 60
2, 144128, Note_off_c, 0, 71, 100
2, 144128, Note_off_c, 0, 62, 100
2, 144192, Note_on_c, 0, 61, 60
2, 144192, Note_on_c, 0, 70, 60
2, 144320, Note_off_c, 0, 61, 100
2, 144320, Note_off_c, 0, 70, 100
2, 144384, Note_on_c, 0, 70, 82
2, 144384, Note_on_c, 0, 64, 82
2, 144384, Note_on_c, 0, 61, 82
2, 144896, Note_off_c, 0, 70, 100
2, 144896, Note_off_c, 0, 64, 100
2, 144896, Note_off_c, 0, 61, 100
2, 145152, Note_on_c, 0, 71, 60
2, 145152, Note_on_c, 0, 62, 60
2, 145408, Note_off_c, 0, 71, 100
2, 145408, Note_off_c, 0, 62, 100
2, 145920, Note_on_c, 0, 71, 90
2, 145920, Note_on_c, 0, 66, 90
2, 145920, Note_on_c, 0, 62, 90
2, 146432, Note_off_c, 0, 71, 100
2, 146432, Note_off_c, 0, 66, 100
2, 146432, Note_off_c, 0, 62, 100
2, 146688, Note_on_c, 0, 72, 90
2, 146688, Note_on_c, 0, 62, 90
2, 146688, Note_on_c, 0, 66, 90
2, 146944, Note_off_c, 0, 72, 100
2, 146944, Note_off_c, 0, 62, 100
2, 146944, Note_off_c, 0, 66, 100
2, 147456, Note_on_c, 0, 74, 60
2, 147456, Note_on_c, 0, 71, 60
2, 147840, Note_off_c, 0, 74, 100
2, 147968, Note_off_c, 0, 71, 100
2, 148032, Note_on_c, 0, 75, 60
2, 148160, Note_off_c, 0, 75, 100
2, 148224, Note_on_c, 0, 76, 60
2, 148224, Note_on_c, 0, 72, 60
2, 148480, Note_off_c, 0, 76, 100
2, 148480, Note_off_c, 0, 72, 100
2, 149376, Note_on_c, 0, 74, 90
2, 149376, Note_on_c, 0, 59, 90
2, 149440, Note_off_c, 0, 59, 100
2, 149472, Note_on_c, 0, 67, 90
2, 149536, Note_off_c, 0, 67, 100
2, 149568, Note_on_c, 0, 59, 90
2, 149632, Note_off_c, 0, 74, 100
2, 149632, Note_off_c, 0, 59, 100
2, 149664, Note_on_c, 0, 67, 90
2, 149728, Note_off_c, 0, 67, 100
2, 149760, Note_on_c, 0, 72, 90
2, 149760, Note_on_c, 0, 57, 90
2, 149824, Note_off_c, 0, 57, 100
2, 149856, Note_on_c, 0, 67, 90
2, 149920, Note_off_c, 0, 67, 100
2, 149952, Note_on_c, 0, 57, 90
2, 150016, Note_off_c, 0, 72, 100
2, 150016, Note_off_c, 0, 57, 100
2, 150048, Note_on_c, 0, 67, 90
2, 150112, Note_off_c, 0, 67, 100
2, 150144, Note_on_c, 0, 71, 90
2, 150144, Note_on_c, 0, 55, 90
2, 150208, Note_off_c, 0, 55, 100
2, 150240, Note_on_c, 0, 67, 90
2, 150304, Note_off_c, 0, 67, 100
2, 150336, Note_on_c, 0, 55, 90
2, 150400, Note_off_c, 0, 71, 100
2, 150400, Note_off_c, 0, 55, 100
2, 150432, Note_on_c, 0, 67, 90
2, 150496, Note_off_c, 0, 67, 100
2, 150528, Note_on_c, 0, 76, 90
2, 150528, Note_on_c, 0, 61, 90
2, 150592, Note_off_c, 0, 61, 100
2, 150624, Note_on_c, 0, 67, 90
2, 150688, Note_off_c, 0, 67, 100
2, 150720, Note_off_c, 0, 76, 100
2, 150720, Note_on_c, 0, 66, 90
2, 150768, Note_on_c, 0, 78, 90
2, 150784, Note_off_c, 0, 66, 100
2, 150800, Note_off_c, 0, 78, 100
2, 150816, Note_on_c, 0, 76, 90
2, 150816, Note_on_c, 0, 67, 90
2, 150848, Note_off_c, 0, 76, 100
2, 150864, Note_on_c, 0, 74, 90
2, 150880, Note_off_c, 0, 67, 100
2, 150896, Note_off_c, 0, 74, 100
2, 150912, Note_on_c, 0, 76, 90
2, 150912, Note_on_c, 0, 61, 90
2, 150976, Note_off_c, 0, 61, 100
2, 151008, Note_on_c, 0, 67, 90
2, 151040, Note_off_c, 0, 76, 100
2, 151072, Note_off_c, 0, 67, 100
2, 151104, Note_on_c, 0, 78, 90
2, 151104, Note_on_c, 0, 66, 90
2, 151168, Note_off_c, 0, 66, 100
2, 151200, Note_on_c, 0, 67, 90
2, 151232, Note_off_c, 0, 78, 100
2, 151264, Note_off_c, 0, 67, 100
2, 151296, Note_on_c, 0, 81, 90
2, 151296, Note_on_c, 0, 61, 90
2, 151360, Note_off_c, 0, 61, 100
2, 151392, Note_on_c, 0, 67, 90
2, 151424, Note_off_c, 0, 81, 100
2, 151456, Note_off_c, 0, 67, 100
2, 151488, Note_on_c, 0, 79, 90
2, 151488, Note_on_c, 0, 66, 90
2, 151552, Note_off_c, 0, 66, 100
2, 151584, Note_on_c, 0, 67, 90
2, 151616, Note_off_c, 0, 79, 100
2, 151648, Note_off_c, 0, 67, 100
2, 151680, Note_on_c, 0, 78, 90
2, 151680, Note_on_c, 0, 61, 90
2, 151744, Note_off_c, 0, 61, 100
2, 151776, Note_on_c, 0, 67, 90
2, 151808, Note_off_c, 0, 78, 100
2, 151840, Note_off_c, 0, 67, 100
2, 151872, Note_on_c, 0, 76, 90
2, 151872, Note_on_c, 0, 66, 90
2, 151936, Note_off_c, 0, 66, 100
2, 151968, Note_on_c, 0, 67, 90
2, 152000, Note_off_c, 0, 76, 100
2, 152032, Note_off_c, 0, 67, 100
2, 152064, Note_on_c, 0, 74, 60
2, 152064, Note_on_c, 0, 59, 60
2, 152128, Note_off_c, 0, 59, 100
2, 152160, Note_on_c, 0, 67, 60
2, 152192, Note_off_c, 0, 74, 100
2, 152224, Note_off_c, 0, 67, 100
2, 152240, Note_on_c, 0, 66, 60
2, 152304, Note_off_c, 0, 66, 100
2, 152352, Note_on_c, 0, 67, 60
2, 152416, Note_off_c, 0, 67, 100
2, 152448, Note_on_c, 0, 74, 60
2, 152448, Note_on_c, 0, 59, 60
2, 152512, Note_off_c, 0, 59, 100
2, 152544, Note_on_c, 0, 67, 60
2, 152608, Note_off_c, 0, 67, 100
2, 152640, Note_on_c, 0, 59, 60
2, 152704, Note_off_c, 0, 74, 100
2, 152704, Note_off_c, 0, 59, 100
2, 152736, Note_on_c, 0, 67, 60
2, 152800, Note_off_c, 0, 67, 100
2, 152832, Note_on_c, 0, 72, 60
2, 152832, Note_on_c, 0, 57, 60
2, 152896, Note_off_c, 0, 57, 100
2, 152928, Note_on_c, 0, 67, 60
2, 152992, Note_off_c, 0, 67, 100
2, 153024, Note_on_c, 0, 57, 60
2, 153088, Note_off_c, 0, 72, 100
2, 153088, Note_off_c, 0, 57, 100
2, 153120, Note_on_c, 0, 67, 60
2, 153184, Note_off_c, 0, 67, 100
2, 153216, Note_on_c, 0, 71, 60
2, 153216, Note_on_c, 0, 55, 60
2, 153280, Note_off_c, 0, 55, 100
2, 153312, Note_on_c, 0, 67, 60
2, 153376, Note_off_c, 0, 67, 100
2, 153408, Note_on_c, 0, 55, 60
2, 153472, Note_off_c, 0, 71, 100
2, 153472, Note_off_c, 0, 55, 100
2, 153504, Note_on_c, 0, 67, 60
2, 153568, Note_off_c, 0, 67, 100
2, 153600, Note_on_c, 0, 69, 60
2, 153888, Note_on_c, 0, 76, 60
2, 153952, Note_off_c, 0, 76, 100
2, 153984, Note_off_c, 0, 69, 100
2, 153984, Note_on_c, 0, 74, 60
2, 154048, Note_off_c, 0, 74, 100
2, 154080, Note_on_c, 0, 72, 60
2, 154144, Note_off_c, 0, 72, 100
2, 154176, Note_on_c, 0, 71, 60
2, 154240, Note_off_c, 0, 71, 100
2, 154272, Note_on_c, 0, 69, 60
2, 154336, Note_off_c, 0, 69, 100
2, 154368, Note_on_c, 0, 67, 60
2, 154624, Note_off_c, 0, 67, 100
2, 154704, Note_on_c, 0, 69, 60
2, 154736, Note_off_c, 0, 69, 100
2, 154752, Note_on_c, 0, 71, 60
2, 154784, Note_off_c, 0, 71, 100
2, 154800, Note_on_c, 0, 71, 60
2, 154832, Note_off_c, 0, 71, 100
2, 154848, Note_on_c, 0, 69, 60
2, 154880, Note_off_c, 0, 69, 100
2, 154896, Note_on_c, 0, 71, 60
2, 154928, Note_off_c, 0, 71, 100
2, 154944, Note_on_c, 0, 69, 60
2, 154976, Note_off_c, 0, 69, 100
2, 154992, Note_on_c, 0, 71, 60
2, 155024, Note_off_c, 0, 71, 100
2, 155040, Note_on_c, 0, 67, 60
2, 155072, Note_off_c, 0, 67, 100
2, 155088, Note_on_c, 0, 69, 60
2, 155120, Note_off_c, 0, 69, 100
2, 155136, Note_on_c, 0, 67, 90
2, 155264, Note_off_c, 0, 67, 100
2, 155520, Note_on_c, 0, 74, 90
2, 155520, Note_on_c, 0, 59, 90
2, 155584, Note_off_c, 0, 59, 100
2, 155616, Note_on_c, 0, 67, 90
2, 155680, Note_off_c, 0, 67, 100
2, 155712, Note_on_c, 0, 59, 90
2, 155776, Note_off_c, 0, 74, 100
2, 155776, Note_off_c, 0, 59, 100
2, 155808, Note_on_c, 0, 67, 90
2, 155872, Note_off_c, 0, 67, 100
2, 155904, Note_on_c, 0, 72, 90
2, 155904, Note_on_c, 0, 57, 90
2, 155968, Note_off_c, 0, 57, 100
2, 156000, Note_on_c, 0, 67, 90
2, 156064, Note_off_c, 0, 67, 100
2, 156096, Note_on_c, 0, 57, 90
2, 156160, Note_off_c, 0, 72, 100
2, 156160, Note_off_c, 0, 57, 100
2, 156192, Note_on_c, 0, 67, 90
2, 156256, Note_off_c, 0, 67, 100
2, 156288, Note_on_c, 0, 71, 90
2, 156288, Note_on_c, 0, 55, 90
2, 156352, Note_off_c, 0, 55, 100
2, 156384, Note_on_c, 0, 67, 90
2, 156448, Note_off_c, 0, 67, 100
2, 156480, Note_on_c, 0, 55, 90
2, 156544, Note_off_c, 0, 71, 100
2, 156544, Note_off_c, 0, 55, 100
2, 156576, Note_on_c, 0, 67, 90
2, 156640, Note_off_c, 0, 67, 100
2, 156672, Note_on_c, 0, 76, 90
2, 156672, Note_on_c, 0, 61, 90
2, 156736, Note_off_c, 0, 61, 100
2, 156768, Note_on_c, 0, 67, 90
2, 156832, Note_off_c, 0, 67, 100
2, 156864, Note_off_c, 0, 76, 100
2, 156864, Note_on_c, 0, 66, 90
2, 156912, Note_on_c, 0, 78, 90
2, 156928, Note_off_c, 0, 66, 100
2, 156944, Note_off_c, 0, 78, 100
2, 156960, Note_on_c, 0, 76, 90
2, 156960, Note_on_c, 0, 67, 90
2, 156992, Note_off_c, 0, 76, 100
2, 157008, Note_on_c, 0, 74, 90
2, 157024, Note_off_c, 0, 67, 100
2, 157040, Note_off_c, 0, 74, 100
2, 157056, Note_on_c, 0, 76, 90
2, 157056, Note_on_c, 0, 61, 90
2, 157120, Note_off_c, 0, 61, 100
2, 157152, Note_on_c, 0, 67, 90
2, 157184, Note_off_c, 0, 76, 100
2, 157216, Note_off_c, 0, 67, 100
2, 157248, Note_on_c, 0, 78, 90
2, 157248, Note_on_c, 0, 66, 90
2, 157312, Note_off_c, 0, 66, 100
2, 157344, Note_on_c, 0, 67, 90
2, 157376, Note_off_c, 0, 78, 100
2, 157408, Note_off_c, 0, 67, 100
2, 157440, Note_on_c, 0, 81, 90
2, 157440, Note_on_c, 0, 61, 90
2, 157504, Note_off_c, 0, 61, 100
2, 157536, Note_on_c, 0, 67, 90
2, 157568, Note_off_c, 0, 81, 100
2, 157600, Note_off_c, 0, 67, 100
2, 157632, Note_on_c, 0, 79, 90
2, 157632, Note_on_c, 0, 66, 90
2, 157696, Note_off_c, 0, 66, 100
2, 157728, Note_on_c, 0, 67, 90
2, 157760, Note_off_c, 0, 79, 100
2, 157792, Note_off_c, 0, 67, 100
2, 157824, Note_on_c, 0, 78, 90
2, 157824, Note_on_c, 0, 61, 90
2, 157888, Note_off_c, 0, 61, 100
2, 157920, Note_on_c, 0, 67, 90
2, 157952, Note_off_c, 0, 78, 100
2, 157984, Note_off_c, 0, 67, 100
2, 158016, Note_on_c, 0, 76, 90
2, 158016, Note_on_c, 0, 66, 90
2, 158080, Note_off_c, 0, 66, 100
2, 158112, Note_on_c, 0, 67, 90
2, 158144, Note_off_c, 0, 76, 100
2, 158176, Note_off_c, 0, 67, 100
2, 158208, Note_on_c, 0, 74, 60
2, 158208, Note_on_c, 0, 59, 60
2, 158272, Note_off_c, 0, 59, 100
2, 158304, Note_on_c, 0, 67, 60
2, 158336, Note_off_c, 0, 74, 100
2, 158368, Note_off_c, 0, 67, 100
2, 158400, Note_on_c, 0, 66, 60
2, 158464, Note_off_c, 0, 66, 100
2, 158496, Note_on_c, 0, 67, 60
2, 158560, Note_off_c, 0, 67, 100
2, 158592, Note_on_c, 0, 74, 60
2, 158592, Note_on_c, 0, 59, 60
2, 158656, Note_off_c, 0, 59, 100
2, 158688, Note_on_c, 0, 67, 60
2, 158752, Note_off_c, 0, 67, 100
2, 158784, Note_on_c, 0, 59, 60
2, 158848, Note_off_c, 0, 74, 100
2, 158848, Note_off_c, 0, 59, 100
2, 158880, Note_on_c, 0, 67, 60
2, 158944, Note_off_c, 0, 67, 100
2, 158976, Note_on_c, 0, 72, 60
2, 158976, Note_on_c, 0, 57, 60
2, 159040, Note_off_c, 0, 57, 100
2, 159072, Note_on_c, 0, 67, 60
2, 159136, Note_off_c, 0, 67, 100
2, 159168, Note_on_c, 0, 57, 60
2, 159232, Note_off_c, 0, 72, 100
2, 159232, Note_off_c, 0, 57, 100
2, 159264, Note_on_c, 0, 67, 60
2, 159328, Note_off_c, 0, 67, 100
2, 159360, Note_on_c, 0, 71, 60
2, 159360, Note_on_c, 0, 55, 60
2, 159424, Note_off_c, 0, 55, 100
2, 159456, Note_on_c, 0, 67, 60
2, 159504, Note_on_c, 0, 55, 60
2, 159520, Note_off_c, 0, 67, 100
2, 159568, Note_off_c, 0, 55, 100
2, 159616, Note_off_c, 0, 71, 100
2, 159648, Note_on_c, 0, 67, 60
2, 159712, Note_off_c, 0, 67, 100
2, 159744, Note_on_c, 0, 69, 60
2, 160032, Note_on_c, 0, 76, 60
2, 160096, Note_off_c, 0, 76, 100
2, 160128, Note_off_c, 0, 69, 100
2, 160128, Note_on_c, 0, 74, 60
2, 160192, Note_off_c, 0, 74, 100
2, 160224, Note_on_c, 0, 72, 60
2, 160288, Note_off_c, 0, 72, 100
2, 160320, Note_on_c, 0, 71, 60
2, 160384, Note_off_c, 0, 71, 100
2, 160416, Note_on_c, 0, 69, 60
2, 160480, Note_off_c, 0, 69, 100
2, 160512, Note_on_c, 0, 67, 60
2, 160768, Note_off_c, 0, 67, 100
2, 160848, Note_on_c, 0, 71, 60
2, 160880, Note_off_c, 0, 71, 100
2, 160896, Note_on_c, 0, 69, 60
2, 160928, Note_off_c, 0, 69, 100
2, 160944, Note_on_c, 0, 71, 60
2, 160976, Note_off_c, 0, 71, 100
2, 160992, Note_on_c, 0, 69, 60
2, 161024, Note_off_c, 0, 69, 100
2, 161040, Note_on_c, 0, 71, 60
2, 161072, Note_off_c, 0, 71, 100
2, 161088, Note_on_c, 0, 69, 60
2, 161120, Note_off_c, 0, 69, 100
2, 161136, Note_on_c, 0, 71, 60
2, 161168, Note_off_c, 0, 71, 100
2, 161184, Note_on_c, 0, 67, 60
2, 161216, Note_off_c, 0, 67, 100
2, 161232, Note_on_c, 0, 69, 60
2, 161264, Note_off_c, 0, 69, 100
2, 161280, Note_on_c, 0, 67, 90
2, 161344, Note_off_c, 0, 67, 100
2, 161376, Note_on_c, 0, 69, 90
2, 161440, Note_off_c, 0, 69, 100
2, 161472, Note_on_c, 0, 67, 90
2, 161536, Note_off_c, 0, 67, 100
2, 161568, Note_on_c, 0, 66, 90
2, 161632, Note_off_c, 0, 66, 100
2, 161664, Note_on_c, 0, 67, 90
2, 161728, Note_off_c, 0, 67, 100
2, 161760, Note_on_c, 0, 71, 90
2, 161824, Note_off_c, 0, 71, 100
2, 161856, Note_on_c, 0, 69, 90
2, 161920, Note_off_c, 0, 69, 100
2, 161952, Note_on_c, 0, 73, 90
2, 162016, Note_off_c, 0, 73, 100
2, 162048, Note_on_c, 0, 71, 90
2, 162112, Note_off_c, 0, 71, 100
2, 162144, Note_on_c, 0, 69, 90
2, 162208, Note_off_c, 0, 69, 100
2, 162240, Note_on_c, 0, 67, 90
2, 162304, Note_off_c, 0, 67, 100
2, 162336, Note_on_c, 0, 66, 90
2, 162400, Note_off_c, 0, 66, 100
2, 162432, Note_on_c, 0, 67, 90
2, 162496, Note_off_c, 0, 67, 100
2, 162528, Note_on_c, 0, 71, 90
2, 162592, Note_off_c, 0, 71, 100
2, 162624, Note_on_c, 0, 69, 90
2, 162688, Note_off_c, 0, 69, 100
2, 162720, Note_on_c, 0, 73, 90
2, 162784, Note_off_c, 0, 73, 100
2, 162816, Note_on_c, 0, 71, 90
2, 162880, Note_off_c, 0, 71, 100
2, 162912, Note_on_c, 0, 69, 90
2, 162976, Note_off_c, 0, 69, 100
2, 163008, Note_on_c, 0, 67, 90
2, 163072, Note_off_c, 0, 67, 100
2, 163104, Note_on_c, 0, 66, 90
2, 163168, Note_off_c, 0, 66, 100
2, 163200, Note_on_c, 0, 67, 90
2, 163264, Note_off_c, 0, 67, 100
2, 163296, Note_on_c, 0, 71, 90
2, 163360, Note_off_c, 0, 71, 100
2, 163392, Note_on_c, 0, 69, 90
2, 163456, Note_off_c, 0, 69, 100
2, 163488, Note_on_c, 0, 73, 90
2, 163552, Note_off_c, 0, 73, 100
2, 163584, Note_on_c, 0, 71, 90
2, 163648, Note_off_c, 0, 71, 100
2, 163680, Note_on_c, 0, 74, 90
2, 163744, Note_off_c, 0, 74, 100
2, 163776, Note_on_c, 0, 73, 90
2, 163840, Note_off_c, 0, 73, 100
2, 163872, Note_on_c, 0, 69, 90
2, 163936, Note_off_c, 0, 69, 100
2, 163968, Note_on_c, 0, 71, 90
2, 164032, Note_off_c, 0, 71, 100
2, 164064, Note_on_c, 0, 74, 90
2, 164128, Note_off_c, 0, 74, 100
2, 164160, Note_on_c, 0, 73, 90
2, 164224, Note_off_c, 0, 73, 100
2, 164256, Note_on_c, 0, 76, 90
2, 164320, Note_off_c, 0, 76, 100
2, 164352, Note_on_c, 0, 74, 90
2, 164416, Note_off_c, 0, 74, 100
2, 164448, Note_on_c, 0, 76, 90
2, 164512, Note_off_c, 0, 76, 100
2, 164544, Note_on_c, 0, 74, 90
2, 164608, Note_off_c, 0, 74, 100
2, 164640, Note_on_c, 0, 73, 99
2, 164704, Note_off_c, 0, 73, 100
2, 164736, Note_on_c, 0, 74, 90
2, 164800, Note_off_c, 0, 74, 100
2, 164832, Note_on_c, 0, 78, 90
2, 164896, Note_off_c, 0, 78, 100
2, 164928, Note_on_c, 0, 76, 90
2, 164992, Note_off_c, 0, 76, 100
2, 165024, Note_on_c, 0, 79, 90
2, 165088, Note_off_c, 0, 79, 100
2, 165120, Note_on_c, 0, 78, 90
2, 165184, Note_off_c, 0, 78, 100
2, 165216, Note_on_c, 0, 76, 90
2, 165280, Note_off_c, 0, 76, 100
2, 165296, Note_on_c, 0, 74, 90
2, 165360, Note_off_c, 0, 74, 100
2, 165408, Note_on_c, 0, 73, 90
2, 165472, Note_off_c, 0, 73, 100
2, 165504, Note_on_c, 0, 74, 90
2, 165568, Note_off_c, 0, 74, 100
2, 165600, Note_on_c, 0, 78, 90
2, 165664, Note_off_c, 0, 78, 100
2, 165696, Note_on_c, 0, 76, 90
2, 165760, Note_off_c, 0, 76, 100
2, 165792, Note_on_c, 0, 79, 90
2, 165856, Note_off_c, 0, 79, 100
2, 165888, Note_on_c, 0, 78, 90
2, 165952, Note_off_c, 0, 78, 100
2, 165984, Note_on_c, 0, 76, 90
2, 166048, Note_off_c, 0, 76, 100
2, 166080, Note_on_c, 0, 74, 90
2, 166144, Note_off_c, 0, 74, 100
2, 166176, Note_on_c, 0, 73, 90
2, 166240, Note_off_c, 0, 73, 100
2, 166272, Note_on_c, 0, 74, 90
2, 166336, Note_off_c, 0, 74, 100
2, 166384, Note_on_c, 0, 76, 90
2, 166448, Note_off_c, 0, 76, 100
2, 166464, Note_on_c, 0, 78, 90
2, 166528, Note_off_c, 0, 78, 100
2, 166560, Note_on_c, 0, 81, 90
2, 166624, Note_off_c, 0, 81, 100
2, 166656, Note_on_c, 0, 79, 90
2, 166720, Note_off_c, 0, 79, 100
2, 166752, Note_on_c, 0, 78, 90
2, 166816, Note_off_c, 0, 78, 100
2, 166848, Note_on_c, 0, 76, 90
2, 166912, Note_off_c, 0, 76, 100
2, 166944, Note_on_c, 0, 75, 99
2, 167008, Note_off_c, 0, 75, 100
2, 167040, Note_on_c, 0, 76, 90
2, 167104, Note_off_c, 0, 76, 100
2, 167136, Note_on_c, 0, 78, 90
2, 167200, Note_off_c, 0, 78, 100
2, 167232, Note_on_c, 0, 79, 90
2, 167296, Note_off_c, 0, 79, 100
2, 167328, Note_on_c, 0, 81, 90
2, 167392, Note_off_c, 0, 81, 100
2, 167424, Note_on_c, 0, 79, 90
2, 167488, Note_off_c, 0, 79, 100
2, 167520, Note_on_c, 0, 78, 90
2, 167584, Note_off_c, 0, 78, 100
2, 167616, Note_on_c, 0, 76, 90
2, 167680, Note_off_c, 0, 76, 100
2, 167712, Note_on_c, 0, 75, 90
2, 167776, Note_off_c, 0, 75, 100
2, 167808, Note_on_c, 0, 76, 90
2, 167872, Note_off_c, 0, 76, 100
2, 167904, Note_on_c, 0, 78, 90
2, 167968, Note_off_c, 0, 78, 100
2, 168000, Note_on_c, 0, 79, 90
2, 168064, Note_off_c, 0, 79, 100
2, 168096, Note_on_c, 0, 83, 90
2, 168160, Note_off_c, 0, 83, 100
2, 168192, Note_on_c, 0, 81, 90
2, 168256, Note_off_c, 0, 81, 100
2, 168288, Note_on_c, 0, 79, 90
2, 168352, Note_off_c, 0, 79, 100
2, 168384, Note_on_c, 0, 78, 90
2, 168448, Note_off_c, 0, 78, 100
2, 168480, Note_on_c, 0, 76, 90
2, 168544, Note_off_c, 0, 76, 100
2, 168576, Note_on_c, 0, 78, 90
2, 168640, Note_off_c, 0, 78, 100
2, 168672, Note_on_c, 0, 79, 90
2, 168736, Note_off_c, 0, 79, 100
2, 168768, Note_on_c, 0, 81, 90
2, 168832, Note_off_c, 0, 81, 100
2, 168864, Note_on_c, 0, 83, 90
2, 168928, Note_off_c, 0, 83, 100
2, 168960, Note_on_c, 0, 81, 90
2, 169024, Note_off_c, 0, 81, 100
2, 169056, Note_on_c, 0, 79, 90
2, 169120, Note_off_c, 0, 79, 100
2, 169152, Note_on_c, 0, 78, 90
2, 169216, Note_off_c, 0, 78, 100
2, 169248, Note_on_c, 0, 76, 90
2, 169312, Note_off_c, 0, 76, 100
2, 169344, Note_on_c, 0, 78, 90
2, 169408, Note_off_c, 0, 78, 100
2, 169440, Note_on_c, 0, 79, 90
2, 169504, Note_off_c, 0, 79, 100
2, 169536, Note_on_c, 0, 81, 105
2, 169536, Note_on_c, 0, 66, 105
2, 169600, Note_off_c, 0, 81, 100
2, 169632, Note_on_c, 0, 84, 105
2, 169664, Note_off_c, 0, 66, 100
2, 169696, Note_off_c, 0, 84, 100
2, 169728, Note_on_c, 0, 83, 105
2, 169728, Note_on_c, 0, 67, 105
2, 169792, Note_off_c, 0, 83, 100
2, 169824, Note_on_c, 0, 84, 105
2, 169856, Note_off_c, 0, 67, 100
2, 169888, Note_off_c, 0, 84, 100
2, 169920, Note_on_c, 0, 81, 105
2, 169920, Note_on_c, 0, 66, 105
2, 169984, Note_off_c, 0, 81, 100
2, 170016, Note_on_c, 0, 84, 105
2, 170048, Note_off_c, 0, 66, 100
2, 170080, Note_off_c, 0, 84, 100
2, 170112, Note_on_c, 0, 83, 105
2, 170112, Note_on_c, 0, 67, 105
2, 170176, Note_off_c, 0, 83, 100
2, 170208, Note_on_c, 0, 84, 105
2, 170240, Note_off_c, 0, 67, 100
2, 170272, Note_off_c, 0, 84, 100
2, 170304, Note_on_c, 0, 78, 105
2, 170304, Note_on_c, 0, 63, 105
2, 170368, Note_off_c, 0, 78, 100
2, 170400, Note_on_c, 0, 83, 105
2, 170432, Note_off_c, 0, 63, 100
2, 170464, Note_off_c, 0, 83, 100
2, 170496, Note_on_c, 0, 79, 105
2, 170496, Note_on_c, 0, 64, 105
2, 170560, Note_off_c, 0, 79, 100
2, 170592, Note_on_c, 0, 83, 105
2, 170624, Note_off_c, 0, 64, 100
2, 170656, Note_off_c, 0, 83, 100
2, 170688, Note_on_c, 0, 78, 105
2, 170688, Note_on_c, 0, 62, 105
2, 170752, Note_off_c, 0, 78, 100
2, 170784, Note_on_c, 0, 83, 105
2, 170816, Note_off_c, 0, 62, 100
2, 170848, Note_off_c, 0, 83, 100
2, 170880, Note_on_c, 0, 79, 105
2, 170880, Note_on_c, 0, 64, 105
2, 170944, Note_off_c, 0, 79, 100
2, 170976, Note_on_c, 0, 83, 105
2, 171008, Note_off_c, 0, 64, 100
2, 171040, Note_off_c, 0, 83, 100
2, 171072, Note_on_c, 0, 76, 105
2, 171072, Note_on_c, 0, 61, 105
2, 171136, Note_off_c, 0, 76, 100
2, 171168, Note_on_c, 0, 83, 105
2, 171200, Note_off_c, 0, 61, 100
2, 171232, Note_off_c, 0, 83, 100
2, 171264, Note_on_c, 0, 78, 105
2, 171264, Note_on_c, 0, 62, 105
2, 171328, Note_off_c, 0, 78, 100
2, 171360, Note_on_c, 0, 83, 105
2, 171392, Note_off_c, 0, 62, 100
2, 171424, Note_off_c, 0, 83, 100
2, 171456, Note_on_c, 0, 76, 105
2, 171456, Note_on_c, 0, 61, 105
2, 171520, Note_off_c, 0, 76, 100
2, 171552, Note_on_c, 0, 83, 105
2, 171584, Note_off_c, 0, 61, 100
2, 171616, Note_off_c, 0, 83, 100
2, 171648, Note_on_c, 0, 78, 105
2, 171648, Note_on_c, 0, 62, 105
2, 171712, Note_off_c, 0, 78, 100
2, 171744, Note_on_c, 0, 81, 105
2, 171776, Note_off_c, 0, 62, 100
2, 171808, Note_off_c, 0, 81, 100
2, 171840, Note_on_c, 0, 73, 105
2, 171904, Note_off_c, 0, 73, 100
2, 171936, Note_on_c, 0, 78, 105
2, 172000, Note_off_c, 0, 78, 100
2, 172032, Note_on_c, 0, 74, 105
2, 172096, Note_off_c, 0, 74, 100
2, 172128, Note_on_c, 0, 78, 105
2, 172192, Note_off_c, 0, 78, 100
2, 172224, Note_on_c, 0, 73, 105
2, 172288, Note_off_c, 0, 73, 100
2, 172320, Note_on_c, 0, 78, 105
2, 172384, Note_off_c, 0, 78, 100
2, 172416, Note_on_c, 0, 74, 105
2, 172480, Note_off_c, 0, 74, 100
2, 172512, Note_on_c, 0, 78, 105
2, 172576, Note_off_c, 0, 78, 100
2, 172608, Note_on_c, 0, 75, 105
2, 172672, Note_off_c, 0, 75, 100
2, 172704, Note_on_c, 0, 78, 105
2, 172768, Note_off_c, 0, 78, 100
2, 172800, Note_on_c, 0, 76, 105
2, 172864, Note_off_c, 0, 76, 100
2, 172896, Note_on_c, 0, 75, 105
2, 172960, Note_off_c, 0, 75, 100
2, 172992, Note_on_c, 0, 76, 105
2, 173056, Note_off_c, 0, 76, 100
2, 173088, Note_on_c, 0, 78, 105
2, 173152, Note_off_c, 0, 78, 100
2, 173184, Note_on_c, 0, 79, 105
2, 173248, Note_off_c, 0, 79, 100
2, 173280, Note_on_c, 0, 78, 105
2, 173344, Note_off_c, 0, 78, 100
2, 173376, Note_on_c, 0, 79, 105
2, 173440, Note_off_c, 0, 79, 100
2, 173472, Note_on_c, 0, 81, 105
2, 173536, Note_off_c, 0, 81, 100
2, 173568, Note_on_c, 0, 83, 105
2, 173632, Note_off_c, 0, 83, 100
2, 173664, Note_on_c, 0, 85, 105
2, 173728, Note_off_c, 0, 85, 100
2, 173760, Note_on_c, 0, 86, 105
2, 173824, Note_off_c, 0, 86, 100
2, 173856, Note_on_c, 0, 85, 105
2, 173920, Note_off_c, 0, 85, 100
2, 173952, Note_on_c, 0, 83, 105
2, 174016, Note_off_c, 0, 83, 100
2, 174048, Note_on_c, 0, 81, 105
2, 174112, Note_off_c, 0, 81, 100
2, 174144, Note_on_c, 0, 79, 105
2, 174208, Note_off_c, 0, 79, 100
2, 174240, Note_on_c, 0, 78, 105
2, 174304, Note_off_c, 0, 78, 100
2, 174336, Note_on_c, 0, 76, 105
2, 174400, Note_off_c, 0, 76, 100
2, 174432, Note_on_c, 0, 78, 105
2, 174496, Note_off_c, 0, 78, 100
2, 174544, Note_on_c, 0, 79, 105
2, 174608, Note_off_c, 0, 79, 100
2, 174624, Note_on_c, 0, 78, 105
2, 174688, Note_off_c, 0, 78, 100
2, 174720, Note_on_c, 0, 76, 102
2, 174784, Note_off_c, 0, 76, 100
2, 174816, Note_on_c, 0, 74, 99
2, 174880, Note_off_c, 0, 74, 100
2, 174912, Note_on_c, 0, 73, 96
2, 174976, Note_off_c, 0, 73, 100
2, 175008, Note_on_c, 0, 71, 93
2, 175072, Note_off_c, 0, 71, 100
2, 175104, Note_on_c, 0, 73, 90
2, 175168, Note_off_c, 0, 73, 100
2, 175200, Note_on_c, 0, 74, 90
2, 175264, Note_off_c, 0, 74, 100
2, 175296, Note_on_c, 0, 73, 90
2, 175360, Note_off_c, 0, 73, 100
2, 175392, Note_on_c, 0, 69, 90
2, 175456, Note_off_c, 0, 69, 100
2, 175488, Note_on_c, 0, 74, 90
2, 175616, Note_off_c, 0, 74, 100
2, 175872, Note_on_c, 0, 79, 90
2, 175936, Note_off_c, 0, 79, 100
2, 175968, Note_on_c, 0, 81, 90
2, 176032, Note_off_c, 0, 81, 100
2, 176064, Note_on_c, 0, 79, 90
2, 176128, Note_off_c, 0, 79, 100
2, 176160, Note_on_c, 0, 76, 90
2, 176224, Note_off_c, 0, 76, 100
2, 176256, Note_on_c, 0, 79, 90
2, 176320, Note_off_c, 0, 79, 100
2, 176352, Note_on_c, 0, 78, 90
2, 176416, Note_off_c, 0, 78, 100
2, 176432, Note_on_c, 0, 76, 90
2, 176496, Note_off_c, 0, 76, 100
2, 176544, Note_on_c, 0, 74, 90
2, 176608, Note_off_c, 0, 74, 100
2, 176640, Note_on_c, 0, 73, 90
2, 176704, Note_off_c, 0, 73, 100
2, 176736, Note_on_c, 0, 74, 90
2, 176800, Note_off_c, 0, 74, 100
2, 176832, Note_on_c, 0, 73, 90
2, 176896, Note_off_c, 0, 73, 100
2, 176928, Note_on_c, 0, 69, 90
2, 176992, Note_off_c, 0, 69, 100
2, 177024, Note_on_c, 0, 74, 90
2, 177152, Note_off_c, 0, 74, 100
2, 177408, Note_on_c, 0, 79, 90
2, 177472, Note_off_c, 0, 79, 100
2, 177504, Note_on_c, 0, 81, 90
2, 177568, Note_off_c, 0, 81, 100
2, 177600, Note_on_c, 0, 79, 90
2, 177664, Note_off_c, 0, 79, 100
2, 177696, Note_on_c, 0, 76, 90
2, 177760, Note_off_c, 0, 76, 100
2, 177792, Note_on_c, 0, 79, 90
2, 177856, Note_off_c, 0, 79, 100
2, 177888, Note_on_c, 0, 78, 90
2, 177952, Note_off_c, 0, 78, 100
2, 177984, Note_on_c, 0, 76, 90
2, 178048, Note_off_c, 0, 76, 100
2, 178080, Note_on_c, 0, 74, 90
2, 178144, Note_off_c, 0, 74, 100
2, 178176, Note_on_c, 0, 73, 90
2, 178240, Note_off_c, 0, 73, 100
2, 178272, Note_on_c, 0, 76, 90
2, 178336, Note_off_c, 0, 76, 100
2, 178368, Note_on_c, 0, 73, 90
2, 178432, Note_off_c, 0, 73, 100
2, 178464, Note_on_c, 0, 69, 90
2, 178528, Note_off_c, 0, 69, 100
2, 178560, Note_on_c, 0, 78, 90
2, 178624, Note_off_c, 0, 78, 100
2, 178656, Note_on_c, 0, 81, 90
2, 178720, Note_off_c, 0, 81, 100
2, 178752, Note_on_c, 0, 78, 90
2, 178816, Note_off_c, 0, 78, 100
2, 178848, Note_on_c, 0, 74, 90
2, 178912, Note_off_c, 0, 74, 100
2, 178944, Note_on_c, 0, 73, 90
2, 179008, Note_off_c, 0, 73, 100
2, 179040, Note_on_c, 0, 76, 90
2, 179104, Note_off_c, 0, 76, 100
2, 179136, Note_on_c, 0, 73, 90
2, 179200, Note_off_c, 0, 73, 100
2, 179232, Note_on_c, 0, 69, 90
2, 179296, Note_off_c, 0, 69, 100
2, 179328, Note_on_c, 0, 78, 90
2, 179392, Note_off_c, 0, 78, 100
2, 179424, Note_on_c, 0, 81, 90
2, 179488, Note_off_c, 0, 81, 100
2, 179520, Note_on_c, 0, 78, 90
2, 179584, Note_off_c, 0, 78, 100
2, 179616, Note_on_c, 0, 74, 90
2, 179680, Note_off_c, 0, 74, 100
2, 179712, Note_on_c, 0, 76, 90
2, 179712, Note_on_c, 0, 73, 90
2, 179840, Note_off_c, 0, 76, 100
2, 179840, Note_off_c, 0, 73, 100
2, 179904, Note_on_c, 0, 73, 90
2, 179904, Note_on_c, 0, 81, 90
2, 179904, Note_on_c, 0, 76, 90
2, 180032, Note_off_c, 0, 73, 100
2, 180032, Note_off_c, 0, 81, 100
2, 180032, Note_off_c, 0, 76, 100
2, 180096, Note_on_c, 0, 76, 90
2, 180096, Note_on_c, 0, 73, 90
2, 180096, Note_on_c, 0, 81, 90
2, 180224, Note_off_c, 0, 76, 100
2, 180224, Note_off_c, 0, 73, 100
2, 180224, Note_off_c, 0, 81, 100
2, 180288, Note_on_c, 0, 73, 90
2, 180288, Note_on_c, 0, 81, 90
2, 180288, Note_on_c, 0, 76, 90
2, 180416, Note_off_c, 0, 73, 100
2, 180416, Note_off_c, 0, 81, 100
2, 180416, Note_off_c, 0, 76, 100
2, 180480, Note_on_c, 0, 76, 90
2, 180480, Note_on_c, 0, 73, 90
2, 180480, Note_on_c, 0, 81, 90
2, 180608, Note_off_c, 0, 76, 100
2, 180608, Note_off_c, 0, 73, 100
2, 180608, Note_off_c, 0, 81, 100
2, 180816, Note_on_c, 0, 79, 90
2, 180848, Note_off_c, 0, 79, 100
2, 180864, Note_on_c, 0, 78, 60
2, 180928, Note_off_c, 0, 78, 100
2, 180960, Note_on_c, 0, 76, 60
2, 181024, Note_off_c, 0, 76, 100
2, 181056, Note_on_c, 0, 78, 60
2, 181120, Note_off_c, 0, 78, 100
2, 181152, Note_on_c, 0, 79, 60
2, 181216, Note_off_c, 0, 79, 100
2, 181248, Note_on_c, 0, 80, 60
2, 181248, Note_on_c, 0, 62, 60
2, 181376, Note_off_c, 0, 80, 100
2, 181376, Note_off_c, 0, 62, 100
2, 181440, Note_on_c, 0, 81, 60
2, 181440, Note_on_c, 0, 66, 60
2, 181568, Note_off_c, 0, 81, 100
2, 181568, Note_off_c, 0, 66, 100
2, 181632, Note_on_c, 0, 64, 60
2, 181760, Note_off_c, 0, 64, 100
2, 181824, Note_on_c, 0, 81, 60
2, 181824, Note_on_c, 0, 67, 60
2, 181952, Note_off_c, 0, 81, 100
2, 181952, Note_off_c, 0, 67, 100
2, 182016, Note_on_c, 0, 86, 60
2, 182016, Note_on_c, 0, 66, 60
2, 182144, Note_off_c, 0, 86, 100
2, 182144, Note_off_c, 0, 66, 100
2, 182208, Note_on_c, 0, 85, 60
2, 182208, Note_on_c, 0, 69, 60
2, 182336, Note_off_c, 0, 85, 100
2, 182336, Note_off_c, 0, 69, 100
2, 182400, Note_on_c, 0, 83, 60
2, 182400, Note_on_c, 0, 62, 60
2, 182528, Note_off_c, 0, 83, 100
2, 182528, Note_off_c, 0, 62, 100
2, 182592, Note_on_c, 0, 81, 60
2, 182592, Note_on_c, 0, 66, 60
2, 182720, Note_off_c, 0, 81, 100
2, 182720, Note_off_c, 0, 66, 100
2, 182784, Note_on_c, 0, 78, 60
2, 182784, Note_on_c, 0, 64, 60
2, 182912, Note_off_c, 0, 78, 100
2, 182912, Note_off_c, 0, 64, 100
2, 182976, Note_on_c, 0, 79, 60
2, 182976, Note_on_c, 0, 71, 60
2, 183104, Note_off_c, 0, 79, 100
2, 183104, Note_off_c, 0, 71, 100
2, 183168, Note_on_c, 0, 67, 60
2, 183296, Note_off_c, 0, 67, 100
2, 183360, Note_on_c, 0, 79, 60
2, 183360, Note_on_c, 0, 64, 60
2, 183488, Note_off_c, 0, 79, 100
2, 183488, Note_off_c, 0, 64, 100
2, 183552, Note_on_c, 0, 81, 60
2, 183552, Note_on_c, 0, 61, 60
2, 183680, Note_off_c, 0, 81, 100
2, 183680, Note_off_c, 0, 61, 100
2, 183744, Note_on_c, 0, 79, 60
2, 183744, Note_on_c, 0, 64, 60
2, 183872, Note_off_c, 0, 79, 100
2, 183872, Note_off_c, 0, 64, 100
2, 183936, Note_on_c, 0, 78, 60
2, 183936, Note_on_c, 0, 57, 60
2, 184064, Note_off_c, 0, 78, 100
2, 184064, Note_off_c, 0, 57, 100
2, 184128, Note_on_c, 0, 76, 60
2, 184128, Note_on_c, 0, 67, 60
2, 184256, Note_off_c, 0, 76, 100
2, 184256, Note_off_c, 0, 67, 100
2, 184320, Note_on_c, 0, 73, 60
2, 184320, Note_on_c, 0, 66, 60
2, 184448, Note_off_c, 0, 73, 100
2, 184448, Note_off_c, 0, 66, 100
2, 184512, Note_on_c, 0, 74, 60
2, 184512, Note_on_c, 0, 69, 60
2, 184640, Note_off_c, 0, 74, 100
2, 184640, Note_off_c, 0, 69, 100
2, 184704, Note_on_c, 0, 61, 60
2, 184832, Note_off_c, 0, 61, 100
2, 184896, Note_on_c, 0, 76, 60
2, 184896, Note_on_c, 0, 69, 60
2, 185024, Note_off_c, 0, 76, 100
2, 185024, Note_off_c, 0, 69, 100
2, 185088, Note_on_c, 0, 77, 60
2, 185088, Note_on_c, 0, 62, 60
2, 185216, Note_off_c, 0, 77, 100
2, 185216, Note_off_c, 0, 62, 100
2, 185280, Note_on_c, 0, 78, 60
2, 185280, Note_on_c, 0, 69, 60
2, 185408, Note_off_c, 0, 78, 100
2, 185408, Note_off_c, 0, 69, 100
2, 185472, Note_on_c, 0, 59, 60
2, 185600, Note_off_c, 0, 59, 100
2, 185664, Note_on_c, 0, 81, 60
2, 185664, Note_on_c, 0, 62, 60
2, 185728, Note_off_c, 0, 81, 100
2, 185760, Note_on_c, 0, 79, 60
2, 185792, Note_off_c, 0, 62, 100
2, 185824, Note_off_c, 0, 79, 100
2, 185856, Note_on_c, 0, 78, 60
2, 185856, Note_on_c, 0, 57, 60
2, 185984, Note_off_c, 0, 57, 100
2, 186048, Note_on_c, 0, 62, 60
2, 186176, Note_off_c, 0, 62, 100
2, 186240, Note_off_c, 0, 78, 100
2, 186240, Note_on_c, 0, 66, 60
2, 186368, Note_off_c, 0, 66, 100
2, 186432, Note_on_c, 0, 79, 60
2, 186432, Note_on_c, 0, 62, 60
2, 186496, Note_off_c, 0, 79, 100
2, 186528, Note_on_c, 0, 78, 60
2, 186560, Note_off_c, 0, 62, 100
2, 186592, Note_off_c, 0, 78, 100
2, 186624, Note_on_c, 0, 76, 60
2, 186624, Note_on_c, 0, 61, 60
2, 186624, Note_on_c, 0, 57, 60
2, 186752, Note_off_c, 0, 76, 100
2, 186752, Note_off_c, 0, 61, 100
2, 186752, Note_off_c, 0, 57, 100
2, 186816, Note_on_c, 0, 78, 60
2, 186944, Note_off_c, 0, 78, 100
2, 187008, Note_on_c, 0, 79, 60
2, 187136, Note_off_c, 0, 79, 100
2, 187184, Note_on_c, 0, 80, 60
2, 187312, Note_off_c, 0, 80, 100
2, 187392, Note_on_c, 0, 80, 60
2, 187392, Note_on_c, 0, 62, 60
2, 187520, Note_off_c, 0, 80, 100
2, 187520, Note_off_c, 0, 62, 100
2, 187584, Note_on_c, 0, 81, 60
2, 187584, Note_on_c, 0, 65, 60
2, 187712, Note_off_c, 0, 81, 100
2, 187712, Note_off_c, 0, 65, 100
2, 187776, Note_on_c, 0, 64, 60
2, 187904, Note_off_c, 0, 64, 100
2, 187968, Note_on_c, 0, 81, 60
2, 187968, Note_on_c, 0, 67, 60
2, 188096, Note_off_c, 0, 81, 100
2, 188096, Note_off_c, 0, 67, 100
2, 188160, Note_on_c, 0, 86, 60
2, 188160, Note_on_c, 0, 65, 60
2, 188288, Note_off_c, 0, 86, 100
2, 188288, Note_off_c, 0, 65, 100
2, 188352, Note_on_c, 0, 84, 60
2, 188352, Note_on_c, 0, 69, 60
2, 188480, Note_off_c, 0, 84, 100
2, 188480, Note_off_c, 0, 69, 100
2, 188544, Note_on_c, 0, 82, 60
2, 188544, Note_on_c, 0, 62, 60
2, 188672, Note_off_c, 0, 82, 100
2, 188672, Note_off_c, 0, 62, 100
2, 188736, Note_on_c, 0, 81, 60
2, 188736, Note_on_c, 0, 65, 60
2, 188864, Note_off_c, 0, 81, 100
2, 188864, Note_off_c, 0, 65, 100
2, 188928, Note_on_c, 0, 78, 60
2, 188928, Note_on_c, 0, 64, 60
2, 189056, Note_off_c, 0, 78, 100
2, 189056, Note_off_c, 0, 64, 100
2, 189120, Note_on_c, 0, 79, 60
2, 189120, Note_on_c, 0, 70, 60
2, 189248, Note_off_c, 0, 79, 100
2, 189248, Note_off_c, 0, 70, 100
2, 189312, Note_on_c, 0, 67, 60
2, 189440, Note_off_c, 0, 67, 100
2, 189504, Note_on_c, 0, 79, 60
2, 189504, Note_on_c, 0, 64, 60
2, 189632, Note_off_c, 0, 79, 100
2, 189632, Note_off_c, 0, 64, 100
2, 189696, Note_on_c, 0, 81, 60
2, 189696, Note_on_c, 0, 61, 60
2, 189824, Note_off_c, 0, 81, 100
2, 189824, Note_off_c, 0, 61, 100
2, 189888, Note_on_c, 0, 79, 60
2, 189888, Note_on_c, 0, 64, 60
2, 190016, Note_off_c, 0, 79, 100
2, 190016, Note_off_c, 0, 64, 100
2, 190080, Note_on_c, 0, 77, 60
2, 190080, Note_on_c, 0, 57, 60
2, 190208, Note_off_c, 0, 77, 100
2, 190208, Note_off_c, 0, 57, 100
2, 190272, Note_on_c, 0, 76, 60
2, 190272, Note_on_c, 0, 61, 60
2, 190400, Note_off_c, 0, 76, 100
2, 190400, Note_off_c, 0, 61, 100
2, 190464, Note_on_c, 0, 79, 60
2, 190464, Note_on_c, 0, 62, 60
2, 190592, Note_off_c, 0, 79, 100
2, 190592, Note_off_c, 0, 62, 100
2, 190656, Note_on_c, 0, 77, 60
2, 190656, Note_on_c, 0, 69, 60
2, 190784, Note_off_c, 0, 77, 100
2, 190784, Note_off_c, 0, 69, 100
2, 190848, Note_on_c, 0, 60, 60
2, 190976, Note_off_c, 0, 60, 100
2, 191040, Note_on_c, 0, 76, 60
2, 191040, Note_on_c, 0, 69, 60
2, 191168, Note_off_c, 0, 76, 100
2, 191168, Note_off_c, 0, 69, 100
2, 191232, Note_on_c, 0, 73, 60
2, 191232, Note_on_c, 0, 58, 60
2, 191360, Note_off_c, 0, 73, 100
2, 191360, Note_off_c, 0, 58, 100
2, 191424, Note_on_c, 0, 74, 60
2, 191424, Note_on_c, 0, 65, 60
2, 191552, Note_off_c, 0, 74, 100
2, 191552, Note_off_c, 0, 65, 100
2, 191616, Note_on_c, 0, 64, 60
2, 191744, Note_off_c, 0, 64, 100
2, 191808, Note_on_c, 0, 80, 60
2, 191808, Note_on_c, 0, 62, 60
2, 191936, Note_off_c, 0, 80, 100
2, 191936, Note_off_c, 0, 62, 100
2, 192000, Note_on_c, 0, 80, 60
2, 192000, Note_on_c, 0, 57, 60
2, 192128, Note_off_c, 0, 57, 100
2, 192192, Note_on_c, 0, 62, 60
2, 192320, Note_off_c, 0, 62, 100
2, 192384, Note_on_c, 0, 65, 60
2, 192512, Note_off_c, 0, 80, 100
2, 192512, Note_off_c, 0, 65, 100
2, 192576, Note_on_c, 0, 62, 60
2, 192704, Note_off_c, 0, 62, 100
2, 192768, Note_on_c, 0, 81, 60
2, 192768, Note_on_c, 0, 61, 60
2, 192768, Note_on_c, 0, 57, 60
2, 192896, Note_off_c, 0, 81, 100
2, 192896, Note_off_c, 0, 61, 100
2, 192896, Note_off_c, 0, 57, 100
2, 193536, Note_on_c, 0, 78, 90
2, 193600, Note_off_c, 0, 78, 100
2, 193632, Note_on_c, 0, 81, 90
2, 193696, Note_off_c, 0, 81, 100
2, 193728, Note_on_c, 0, 80, 90
2, 193792, Note_off_c, 0, 80, 100
2, 193824, Note_on_c, 0, 81, 90
2, 193888, Note_off_c, 0, 81, 100
2, 193920, Note_on_c, 0, 83, 90
2, 193984, Note_off_c, 0, 83, 100
2, 194016, Note_on_c, 0, 81, 90
2, 194080, Note_off_c, 0, 81, 100
2, 194112, Note_on_c, 0, 80, 90
2, 194112, Note_on_c, 0, 74, 90
2, 194176, Note_off_c, 0, 80, 100
2, 194208, Note_on_c, 0, 81, 90
2, 194240, Note_off_c, 0, 74, 100
2, 194272, Note_off_c, 0, 81, 100
2, 194304, Note_on_c, 0, 79, 90
2, 194304, Note_on_c, 0, 76, 90
2, 194368, Note_off_c, 0, 79, 100
2, 194400, Note_on_c, 0, 81, 90
2, 194432, Note_off_c, 0, 76, 100
2, 194464, Note_off_c, 0, 81, 100
2, 194496, Note_on_c, 0, 79, 90
2, 194496, Note_on_c, 0, 74, 90
2, 194560, Note_off_c, 0, 79, 100
2, 194592, Note_on_c, 0, 81, 90
2, 194624, Note_off_c, 0, 74, 100
2, 194656, Note_off_c, 0, 81, 100
2, 194688, Note_on_c, 0, 79, 90
2, 194688, Note_on_c, 0, 73, 90
2, 194752, Note_off_c, 0, 79, 100
2, 194784, Note_on_c, 0, 81, 90
2, 194816, Note_off_c, 0, 73, 100
2, 194848, Note_off_c, 0, 81, 100
2, 194880, Note_on_c, 0, 79, 90
2, 194880, Note_on_c, 0, 69, 90
2, 194944, Note_off_c, 0, 79, 100
2, 194976, Note_on_c, 0, 81, 90
2, 195008, Note_off_c, 0, 69, 100
2, 195040, Note_off_c, 0, 81, 100
2, 195072, Note_on_c, 0, 78, 90
2, 195072, Note_on_c, 0, 74, 90
2, 195136, Note_off_c, 0, 78, 100
2, 195168, Note_on_c, 0, 81, 90
2, 195232, Note_off_c, 0, 81, 100
2, 195264, Note_on_c, 0, 79, 90
2, 195328, Note_off_c, 0, 74, 100
2, 195328, Note_off_c, 0, 79, 100
2, 195360, Note_on_c, 0, 81, 90
2, 195424, Note_off_c, 0, 81, 100
2, 195456, Note_on_c, 0, 83, 90
2, 195520, Note_off_c, 0, 83, 100
2, 195552, Note_on_c, 0, 81, 90
2, 195616, Note_off_c, 0, 81, 100
2, 195648, Note_on_c, 0, 79, 90
2, 195648, Note_on_c, 0, 62, 90
2, 195712, Note_off_c, 0, 79, 100
2, 195744, Note_on_c, 0, 81, 90
2, 195776, Note_off_c, 0, 62, 100
2, 195808, Note_off_c, 0, 81, 100
2, 195840, Note_on_c, 0, 79, 90
2, 195840, Note_on_c, 0, 64, 90
2, 195904, Note_off_c, 0, 79, 100
2, 195936, Note_on_c, 0, 81, 90
2, 195968, Note_off_c, 0, 64, 100
2, 196000, Note_off_c, 0, 81, 100
2, 196032, Note_on_c, 0, 79, 90
2, 196032, Note_on_c, 0, 62, 90
2, 196096, Note_off_c, 0, 79, 100
2, 196128, Note_on_c, 0, 81, 90
2, 196160, Note_off_c, 0, 62, 100
2, 196192, Note_off_c, 0, 81, 100
2, 196224, Note_on_c, 0, 79, 90
2, 196224, Note_on_c, 0, 61, 90
2, 196288, Note_off_c, 0, 79, 100
2, 196320, Note_on_c, 0, 81, 90
2, 196352, Note_off_c, 0, 61, 100
2, 196384, Note_off_c, 0, 81, 100
2, 196416, Note_on_c, 0, 79, 90
2, 196416, Note_on_c, 0, 57, 90
2, 196480, Note_off_c, 0, 79, 100
2, 196512, Note_on_c, 0, 81, 90
2, 196544, Note_off_c, 0, 57, 100
2, 196576, Note_off_c, 0, 81, 100
2, 196608, Note_on_c, 0, 78, 90
2, 196608, Note_on_c, 0, 62, 90
2, 196672, Note_off_c, 0, 62, 100
2, 196704, Note_on_c, 0, 69, 90
2, 196768, Note_off_c, 0, 69, 100
2, 196800, Note_on_c, 0, 68, 90
2, 196864, Note_off_c, 0, 78, 100
2, 196864, Note_off_c, 0, 68, 100
2, 196896, Note_on_c, 0, 69, 90
2, 196960, Note_off_c, 0, 69, 100
2, 196992, Note_on_c, 0, 71, 90
2, 197056, Note_off_c, 0, 71, 100
2, 197088, Note_on_c, 0, 69, 90
2, 197152, Note_off_c, 0, 69, 100
2, 197184, Note_on_c, 0, 86, 90
2, 197184, Note_on_c, 0, 68, 90
2, 197248, Note_off_c, 0, 68, 100
2, 197280, Note_on_c, 0, 69, 90
2, 197312, Note_off_c, 0, 86, 100
2, 197344, Note_off_c, 0, 69, 100
2, 197376, Note_on_c, 0, 88, 99
2, 197376, Note_on_c, 0, 67, 90
2, 197440, Note_off_c, 0, 67, 100
2, 197472, Note_on_c, 0, 69, 90
2, 197504, Note_off_c, 0, 88, 100
2, 197536, Note_off_c, 0, 69, 100
2, 197568, Note_on_c, 0, 86, 90
2, 197568, Note_on_c, 0, 67, 90
2, 197632, Note_off_c, 0, 67, 100
2, 197664, Note_on_c, 0, 69, 90
2, 197696, Note_off_c, 0, 86, 100
2, 197728, Note_off_c, 0, 69, 100
2, 197760, Note_on_c, 0, 85, 90
2, 197760, Note_on_c, 0, 67, 90
2, 197824, Note_off_c, 0, 67, 100
2, 197856, Note_on_c, 0, 69, 90
2, 197888, Note_off_c, 0, 85, 100
2, 197920, Note_off_c, 0, 69, 100
2, 197952, Note_on_c, 0, 81, 90
2, 197952, Note_on_c, 0, 67, 90
2, 198016, Note_off_c, 0, 67, 100
2, 198048, Note_on_c, 0, 69, 90
2, 198080, Note_off_c, 0, 81, 100
2, 198112, Note_off_c, 0, 69, 100
2, 198144, Note_on_c, 0, 86, 90
2, 198144, Note_on_c, 0, 66, 90
2, 198208, Note_off_c, 0, 66, 100
2, 198240, Note_on_c, 0, 69, 90
2, 198304, Note_off_c, 0, 69, 100
2, 198336, Note_on_c, 0, 68, 90
2, 198400, Note_off_c, 0, 86, 100
2, 198400, Note_off_c, 0, 68, 100
2, 198432, Note_on_c, 0, 69, 90
2, 198496, Note_off_c, 0, 69, 100
2, 198528, Note_on_c, 0, 71, 90
2, 198592, Note_off_c, 0, 71, 100
2, 198608, Note_on_c, 0, 69, 90
2, 198672, Note_off_c, 0, 69, 100
2, 198704, Note_on_c, 0, 68, 90
2, 198768, Note_off_c, 0, 68, 100
2, 198816, Note_on_c, 0, 69, 90
2, 198880, Note_off_c, 0, 69, 100
2, 198912, Note_on_c, 0, 67, 99
2, 198976, Note_off_c, 0, 67, 100
2, 198992, Note_on_c, 0, 69, 90
2, 199056, Note_off_c, 0, 69, 100
2, 199104, Note_on_c, 0, 67, 90
2, 199168, Note_off_c, 0, 67, 100
2, 199184, Note_on_c, 0, 69, 90
2, 199248, Note_off_c, 0, 69, 100
2, 199296, Note_on_c, 0, 67, 90
2, 199360, Note_off_c, 0, 67, 100
2, 199392, Note_on_c, 0, 69, 90
2, 199456, Note_off_c, 0, 69, 100
2, 199488, Note_on_c, 0, 67, 90
2, 199552, Note_off_c, 0, 67, 100
2, 199584, Note_on_c, 0, 69, 90
2, 199648, Note_off_c, 0, 69, 100
2, 199680, Note_on_c, 0, 66, 90
2, 199936, Note_off_c, 0, 66, 100
2, 200064, Note_on_c, 0, 81, 60
2, 200064, Note_on_c, 0, 66, 60
2, 200128, Note_off_c, 0, 66, 100
2, 200160, Note_on_c, 0, 74, 60
2, 200224, Note_off_c, 0, 74, 100
2, 200256, Note_on_c, 0, 66, 60
2, 200320, Note_off_c, 0, 81, 100
2, 200320, Note_off_c, 0, 66, 100
2, 200352, Note_on_c, 0, 74, 60
2, 200416, Note_off_c, 0, 74, 100
2, 200448, Note_on_c, 0, 79, 60
2, 200448, Note_on_c, 0, 64, 60
2, 200512, Note_off_c, 0, 64, 100
2, 200544, Note_on_c, 0, 74, 60
2, 200608, Note_off_c, 0, 74, 100
2, 200640, Note_on_c, 0, 64, 60
2, 200704, Note_off_c, 0, 79, 100
2, 200704, Note_off_c, 0, 64, 100
2, 200736, Note_on_c, 0, 74, 60
2, 200800, Note_off_c, 0, 74, 100
2, 200832, Note_on_c, 0, 78, 60
2, 200832, Note_on_c, 0, 62, 60
2, 200896, Note_off_c, 0, 62, 100
2, 200928, Note_on_c, 0, 74, 60
2, 200992, Note_off_c, 0, 74, 100
2, 201024, Note_on_c, 0, 62, 60
2, 201088, Note_off_c, 0, 78, 100
2, 201088, Note_off_c, 0, 62, 100
2, 201120, Note_on_c, 0, 74, 60
2, 201184, Note_off_c, 0, 74, 100
2, 201216, Note_on_c, 0, 83, 60
2, 201216, Note_on_c, 0, 67, 60
2, 201280, Note_off_c, 0, 67, 100
2, 201312, Note_on_c, 0, 74, 60
2, 201376, Note_off_c, 0, 74, 100
2, 201408, Note_off_c, 0, 83, 100
2, 201408, Note_on_c, 0, 73, 60
2, 201456, Note_on_c, 0, 85, 60
2, 201472, Note_off_c, 0, 73, 100
2, 201488, Note_off_c, 0, 85, 100
2, 201504, Note_on_c, 0, 83, 60
2, 201504, Note_on_c, 0, 74, 60
2, 201536, Note_off_c, 0, 83, 100
2, 201552, Note_on_c, 0, 81, 60
2, 201568, Note_off_c, 0, 74, 100
2, 201584, Note_off_c, 0, 81, 100
2, 201600, Note_on_c, 0, 83, 60
2, 201600, Note_on_c, 0, 67, 60
2, 201664, Note_off_c, 0, 67, 100
2, 201696, Note_on_c, 0, 74, 60
2, 201728, Note_off_c, 0, 83, 100
2, 201760, Note_off_c, 0, 74, 100
2, 201792, Note_on_c, 0, 85, 60
2, 201792, Note_on_c, 0, 73, 60
2, 201856, Note_off_c, 0, 73, 100
2, 201888, Note_on_c, 0, 74, 60
2, 201920, Note_off_c, 0, 85, 100
2, 201952, Note_off_c, 0, 74, 100
2, 201984, Note_on_c, 0, 88, 60
2, 201984, Note_on_c, 0, 67, 60
2, 202048, Note_off_c, 0, 67, 100
2, 202080, Note_on_c, 0, 74, 60
2, 202112, Note_off_c, 0, 88, 100
2, 202144, Note_off_c, 0, 74, 100
2, 202176, Note_on_c, 0, 86, 60
2, 202176, Note_on_c, 0, 73, 60
2, 202240, Note_off_c, 0, 73, 100
2, 202272, Note_on_c, 0, 74, 60
2, 202304, Note_off_c, 0, 86, 100
2, 202336, Note_off_c, 0, 74, 100
2, 202368, Note_on_c, 0, 85, 60
2, 202368, Note_on_c, 0, 67, 60
2, 202432, Note_off_c, 0, 67, 100
2, 202464, Note_on_c, 0, 74, 60
2, 202496, Note_off_c, 0, 85, 100
2, 202528, Note_off_c, 0, 74, 100
2, 202560, Note_on_c, 0, 83, 60
2, 202560, Note_on_c, 0, 73, 60
2, 202624, Note_off_c, 0, 73, 100
2, 202656, Note_on_c, 0, 74, 60
2, 202688, Note_off_c, 0, 83, 100
2, 202720, Note_off_c, 0, 74, 100
2, 202752, Note_on_c, 0, 81, 60
2, 202752, Note_on_c, 0, 66, 60
2, 202880, Note_off_c, 0, 81, 100
2, 203008, Note_off_c, 0, 66, 100
2, 203136, Note_on_c, 0, 81, 90
2, 203136, Note_on_c, 0, 66, 90
2, 203200, Note_off_c, 0, 66, 100
2, 203232, Note_on_c, 0, 74, 90
2, 203296, Note_off_c, 0, 74, 100
2, 203328, Note_on_c, 0, 66, 90
2, 203392, Note_off_c, 0, 81, 100
2, 203392, Note_off_c, 0, 66, 100
2, 203424, Note_on_c, 0, 74, 90
2, 203488, Note_off_c, 0, 74, 100
2, 203520, Note_on_c, 0, 79, 90
2, 203520, Note_on_c, 0, 64, 90
2, 203584, Note_off_c, 0, 64, 100
2, 203616, Note_on_c, 0, 74, 90
2, 203680, Note_off_c, 0, 74, 100
2, 203712, Note_on_c, 0, 64, 90
2, 203776, Note_off_c, 0, 79, 100
2, 203776, Note_off_c, 0, 64, 100
2, 203808, Note_on_c, 0, 74, 90
2, 203872, Note_off_c, 0, 74, 100
2, 203904, Note_on_c, 0, 78, 90
2, 203904, Note_on_c, 0, 62, 90
2, 203968, Note_off_c, 0, 62, 100
2, 204000, Note_on_c, 0, 74, 90
2, 204064, Note_off_c, 0, 74, 100
2, 204096, Note_on_c, 0, 62, 90
2, 204160, Note_off_c, 0, 78, 100
2, 204160, Note_off_c, 0, 62, 100
2, 204192, Note_on_c, 0, 74, 90
2, 204256, Note_off_c, 0, 74, 100
2, 204288, Note_on_c, 0, 76, 90
2, 204576, Note_on_c, 0, 83, 90
2, 204640, Note_off_c, 0, 83, 100
2, 204672, Note_off_c, 0, 76, 100
2, 204672, Note_on_c, 0, 81, 90
2, 204736, Note_off_c, 0, 81, 100
2, 204768, Note_on_c, 0, 79, 90
2, 204832, Note_off_c, 0, 79, 100
2, 204864, Note_on_c, 0, 78, 90
2, 204928, Note_off_c, 0, 78, 100
2, 204960, Note_on_c, 0, 76, 90
2, 205024, Note_off_c, 0, 76, 100
2, 205056, Note_on_c, 0, 74, 90
2, 205312, Note_off_c, 0, 74, 100
2, 205392, Note_on_c, 0, 78, 90
2, 205424, Note_off_c, 0, 78, 100
2, 205440, Note_on_c, 0, 76, 90
2, 205472, Note_off_c, 0, 76, 100
2, 205488, Note_on_c, 0, 78, 90
2, 205520, Note_off_c, 0, 78, 100
2, 205536, Note_on_c, 0, 76, 90
2, 205568, Note_off_c, 0, 76, 100
2, 205584, Note_on_c, 0, 78, 90
2, 205616, Note_off_c, 0, 78, 100
2, 205632, Note_on_c, 0, 76, 90
2, 205664, Note_off_c, 0, 76, 100
2, 205680, Note_on_c, 0, 78, 90
2, 205712, Note_off_c, 0, 78, 100
2, 205728, Note_on_c, 0, 74, 90
2, 205760, Note_off_c, 0, 74, 100
2, 205776, Note_on_c, 0, 76, 90
2, 205808, Note_off_c, 0, 76, 100
2, 205824, Note_on_c, 0, 74, 90
2, 205952, Note_off_c, 0, 74, 100
2, 206208, Note_on_c, 0, 69, 60
2, 206464, Note_off_c, 0, 69, 100
2, 206592, Note_on_c, 0, 67, 60
2, 206848, Note_off_c, 0, 67, 100
2, 206976, Note_on_c, 0, 66, 60
2, 207232, Note_off_c, 0, 66, 100
2, 207360, Note_on_c, 0, 71, 60
2, 207552, Note_off_c, 0, 71, 100
2, 207600, Note_on_c, 0, 73, 60
2, 207636, Note_off_c, 0, 73, 100
2, 207648, Note_on_c, 0, 71, 60
2, 207684, Note_off_c, 0, 71, 100
2, 207696, Note_on_c, 0, 69, 60
2, 207732, Note_off_c, 0, 69, 100
2, 207744, Note_on_c, 0, 71, 60
2, 207872, Note_off_c, 0, 71, 100
2, 207936, Note_on_c, 0, 73, 60
2, 208064, Note_off_c, 0, 73, 100
2, 208128, Note_on_c, 0, 76, 60
2, 208256, Note_off_c, 0, 76, 100
2, 208320, Note_on_c, 0, 74, 60
2, 208448, Note_off_c, 0, 74, 100
2, 208512, Note_on_c, 0, 73, 60
2, 208640, Note_off_c, 0, 73, 100
2, 208704, Note_on_c, 0, 71, 60
2, 208832, Note_off_c, 0, 71, 100
2, 208896, Note_on_c, 0, 69, 60
2, 209024, Note_off_c, 0, 69, 100
2, 209280, Note_on_c, 0, 81, 90
2, 209280, Note_on_c, 0, 69, 90
2, 209536, Note_off_c, 0, 81, 100
2, 209536, Note_off_c, 0, 69, 100
2, 209664, Note_on_c, 0, 79, 90
2, 209664, Note_on_c, 0, 67, 90
2, 209920, Note_off_c, 0, 79, 100
2, 209920, Note_off_c, 0, 67, 100
2, 210048, Note_on_c, 0, 78, 90
2, 210048, Note_on_c, 0, 66, 90
2, 210304, Note_off_c, 0, 78, 100
2, 210304, Note_off_c, 0, 66, 100
2, 210432, Note_on_c, 0, 76, 90
2, 210624, Note_off_c, 0, 76, 100
2, 210720, Note_on_c, 0, 83, 90
2, 210784, Note_off_c, 0, 83, 100
2, 210816, Note_on_c, 0, 81, 90
2, 210880, Note_off_c, 0, 81, 100
2, 210912, Note_on_c, 0, 79, 90
2, 210976, Note_off_c, 0, 79, 100
2, 211008, Note_on_c, 0, 78, 90
2, 211072, Note_off_c, 0, 78, 100
2, 211104, Note_on_c, 0, 76, 90
2, 211168, Note_off_c, 0, 76, 100
2, 211200, Note_on_c, 0, 74, 90
2, 211456, Note_off_c, 0, 74, 100
2, 211584, Note_on_c, 0, 78, 90
2, 211616, Note_off_c, 0, 78, 100
2, 211632, Note_on_c, 0, 76, 90
2, 211664, Note_off_c, 0, 76, 100
2, 211680, Note_on_c, 0, 78, 90
2, 211712, Note_off_c, 0, 78, 100
2, 211712, Note_on_c, 0, 76, 90
2, 211744, Note_off_c, 0, 76, 100
2, 211776, Note_on_c, 0, 78, 90
2, 211808, Note_off_c, 0, 78, 100
2, 211824, Note_on_c, 0, 76, 90
2, 211856, Note_off_c, 0, 76, 100
2, 211872, Note_on_c, 0, 74, 90
2, 211904, Note_off_c, 0, 74, 100
2, 211920, Note_on_c, 0, 76, 90
2, 211952, Note_off_c, 0, 76, 100
2, 211968, Note_on_c, 0, 74, 99
2, 211968, Note_on_c, 0, 69, 99
2, 211968, Note_on_c, 0, 66, 99
2, 212224, Note_off_c, 0, 74, 100
2, 212224, Note_off_c, 0, 69, 100
2, 212224, Note_off_c, 0, 66, 100
2, 212736, Note_on_c, 0, 79, 90
2, 212736, Note_on_c, 0, 66, 90
2, 212736, Note_on_c, 0, 62, 90
2, 212800, Note_off_c, 0, 79, 100
2, 212832, Note_on_c, 0, 78, 90
2, 212896, Note_off_c, 0, 78, 100
2, 212928, Note_on_c, 0, 76, 90
2, 212992, Note_off_c, 0, 66, 100
2, 212992, Note_off_c, 0, 62, 100
2, 212992, Note_off_c, 0, 76, 100
2, 213024, Note_on_c, 0, 78, 90
2, 213088, Note_off_c, 0, 78, 100
2, 213120, Note_on_c, 0, 81, 90
2, 213120, Note_on_c, 0, 67, 90
2, 213120, Note_on_c, 0, 64, 90
2, 213184, Note_off_c, 0, 81, 100
2, 213216, Note_on_c, 0, 79, 90
2, 213280, Note_off_c, 0, 79, 100
2, 213312, Note_on_c, 0, 78, 90
2, 213376, Note_off_c, 0, 67, 100
2, 213376, Note_off_c, 0, 64, 100
2, 213376, Note_off_c, 0, 78, 100
2, 213408, Note_on_c, 0, 79, 90
2, 213472, Note_off_c, 0, 79, 100
2, 213504, Note_on_c, 0, 81, 90
2, 213504, Note_on_c, 0, 69, 90
2, 213504, Note_on_c, 0, 66, 90
2, 213760, Note_off_c, 0, 81, 100
2, 213760, Note_off_c, 0, 69, 100
2, 213760, Note_off_c, 0, 66, 100
2, 214272, Note_on_c, 0, 81, 60
2, 214400, Note_off_c, 0, 81, 100
2, 214464, Note_on_c, 0, 83, 60
2, 214592, Note_off_c, 0, 83, 100
2, 214656, Note_on_c, 0, 85, 60
2, 214784, Note_off_c, 0, 85, 100
2, 214848, Note_on_c, 0, 86, 60
2, 214976, Note_off_c, 0, 86, 100
2, 215040, Note_on_c, 0, 81, 60
2, 215296, Note_off_c, 0, 81, 100
2, 215424, Note_on_c, 0, 78, 60
2, 215680, Note_off_c, 0, 78, 100
2, 215808, Note_on_c, 0, 81, 60
2, 215872, Note_off_c, 0, 81, 100
2, 215904, Note_on_c, 0, 79, 60
2, 215968, Note_off_c, 0, 79, 100
2, 216000, Note_on_c, 0, 78, 60
2, 216064, Note_off_c, 0, 78, 100
2, 216096, Note_on_c, 0, 79, 60
2, 216160, Note_off_c, 0, 79, 100
2, 216192, Note_on_c, 0, 81, 60
2, 216320, Note_off_c, 0, 81, 100
2, 216384, Note_on_c, 0, 79, 60
2, 216512, Note_off_c, 0, 79, 100
2, 216576, Note_on_c, 0, 77, 60
2, 216704, Note_off_c, 0, 77, 100
2, 216768, Note_on_c, 0, 78, 60
2, 216896, Note_off_c, 0, 78, 100
2, 217344, Note_on_c, 0, 79, 90
2, 217344, Note_on_c, 0, 62, 90
2, 217344, Note_on_c, 0, 66, 90
2, 217408, Note_off_c, 0, 79, 100
2, 217440, Note_on_c, 0, 78, 90
2, 217472, Note_off_c, 0, 62, 100
2, 217472, Note_off_c, 0, 66, 100
2, 217504, Note_off_c, 0, 78, 100
2, 217520, Note_on_c, 0, 76, 90
2, 217536, Note_on_c, 0, 62, 90
2, 217536, Note_on_c, 0, 66, 90
2, 217584, Note_off_c, 0, 76, 100
2, 217632, Note_on_c, 0, 78, 90
2, 217664, Note_off_c, 0, 62, 100
2, 217664, Note_off_c, 0, 66, 100
2, 217696, Note_off_c, 0, 78, 100
2, 217728, Note_on_c, 0, 81, 90
2, 217728, Note_on_c, 0, 67, 90
2, 217728, Note_on_c, 0, 64, 90
2, 217792, Note_off_c, 0, 81, 100
2, 217824, Note_on_c, 0, 79, 90
2, 217856, Note_off_c, 0, 67, 100
2, 217856, Note_off_c, 0, 64, 100
2, 217888, Note_off_c, 0, 79, 100
2, 217920, Note_on_c, 0, 78, 90
2, 217920, Note_on_c, 0, 67, 90
2, 217920, Note_on_c, 0, 64, 90
2, 217984, Note_off_c, 0, 78, 100
2, 218016, Note_on_c, 0, 79, 90
2, 218048, Note_off_c, 0, 67, 100
2, 218048, Note_off_c, 0, 64, 100
2, 218080, Note_off_c, 0, 79, 100
2, 218112, Note_on_c, 0, 81, 90
2, 218112, Note_on_c, 0, 69, 90
2, 218112, Note_on_c, 0, 66, 90
2, 218368, Note_off_c, 0, 81, 100
2, 218368, Note_off_c, 0, 69, 100
2, 218368, Note_off_c, 0, 66, 100
2, 218880, Note_on_c, 0, 81, 60
2, 219008, Note_off_c, 0, 81, 100
2, 219072, Note_on_c, 0, 83, 60
2, 219200, Note_off_c, 0, 83, 100
2, 219264, Note_on_c, 0, 85, 60
2, 219392, Note_off_c, 0, 85, 100
2, 219456, Note_on_c, 0, 86, 60
2, 219584, Note_off_c, 0, 86, 100
2, 219648, Note_on_c, 0, 81, 60
2, 219904, Note_off_c, 0, 81, 100
2, 220032, Note_on_c, 0, 78, 60
2, 220288, Note_off_c, 0, 78, 100
2, 220416, Note_on_c, 0, 81, 60
2, 220480, Note_off_c, 0, 81, 100
2, 220512, Note_on_c, 0, 79, 60
2, 220576, Note_off_c, 0, 79, 100
2, 220608, Note_on_c, 0, 78, 60
2, 220672, Note_off_c, 0, 78, 100
2, 220704, Note_on_c, 0, 79, 60
2, 220768, Note_off_c, 0, 79, 100
2, 220800, Note_on_c, 0, 81, 60
2, 220864, Note_off_c, 0, 81, 100
2, 220896, Note_on_c, 0, 79, 60
2, 220960, Note_off_c, 0, 79, 100
2, 220992, Note_on_c, 0, 78, 60
2, 221056, Note_off_c, 0, 78, 100
2, 221088, Note_on_c, 0, 76, 60
2, 221152, Note_off_c, 0, 76, 100
2, 221184, Note_on_c, 0, 74, 90
2, 221248, Note_off_c, 0, 74, 100
2, 221280, Note_on_c, 0, 76, 90
2, 221344, Note_off_c, 0, 76, 100
2, 221376, Note_on_c, 0, 78, 90
2, 221440, Note_off_c, 0, 78, 100
2, 221472, Note_on_c, 0, 79, 90
2, 221536, Note_off_c, 0, 79, 100
2, 221568, Note_on_c, 0, 81, 90
2, 221632, Note_off_c, 0, 81, 100
2, 221680, Note_on_c, 0, 83, 90
2, 221744, Note_off_c, 0, 83, 100
2, 221760, Note_on_c, 0, 85, 90
2, 221824, Note_off_c, 0, 85, 100
2, 221856, Note_on_c, 0, 86, 90
2, 221920, Note_off_c, 0, 86, 100
2, 221952, Note_on_c, 0, 86, 90
2, 222208, Note_off_c, 0, 86, 100
2, 222336, Note_on_c, 0, 83, 90
2, 222592, Note_off_c, 0, 83, 100
2, 222624, Note_on_c, 0, 79, 90
2, 222688, Note_off_c, 0, 79, 100
2, 222720, Note_on_c, 0, 78, 90
2, 222976, Note_off_c, 0, 78, 100
2, 223104, Note_on_c, 0, 81, 90
2, 223360, Note_off_c, 0, 81, 100
2, 223392, Note_on_c, 0, 74, 90
2, 223456, Note_off_c, 0, 74, 100
2, 223488, Note_on_c, 0, 76, 90
2, 223744, Note_off_c, 0, 76, 100
2, 223872, Note_on_c, 0, 79, 90
2, 224128, Note_off_c, 0, 79, 100
2, 224160, Note_on_c, 0, 73, 90
2, 224224, Note_off_c, 0, 73, 100
2, 224256, Note_on_c, 0, 74, 90
2, 224320, Note_off_c, 0, 74, 100
2, 224352, Note_on_c, 0, 76, 90
2, 224416, Note_off_c, 0, 76, 100
2, 224448, Note_on_c, 0, 78, 90
2, 224512, Note_off_c, 0, 78, 100
2, 224544, Note_on_c, 0, 79, 90
2, 224608, Note_off_c, 0, 79, 100
2, 224640, Note_on_c, 0, 81, 90
2, 224704, Note_off_c, 0, 81, 100
2, 224736, Note_on_c, 0, 83, 90
2, 224800, Note_off_c, 0, 83, 100
2, 224832, Note_on_c, 0, 85, 90
2, 224896, Note_off_c, 0, 85, 100
2, 224928, Note_on_c, 0, 86, 90
2, 224992, Note_off_c, 0, 86, 100
2, 225024, Note_on_c, 0, 88, 90
2, 225088, Note_off_c, 0, 88, 100
2, 225120, Note_on_c, 0, 86, 90
2, 225184, Note_off_c, 0, 86, 100
2, 225216, Note_on_c, 0, 85, 90
2, 225280, Note_off_c, 0, 85, 100
2, 225312, Note_on_c, 0, 86, 90
2, 225376, Note_off_c, 0, 86, 100
2, 225408, Note_on_c, 0, 85, 90
2, 225472, Note_off_c, 0, 85, 100
2, 225504, Note_on_c, 0, 83, 90
2, 225568, Note_off_c, 0, 83, 100
2, 225600, Note_on_c, 0, 81, 90
2, 225664, Note_off_c, 0, 81, 100
2, 225696, Note_on_c, 0, 79, 90
2, 225760, Note_off_c, 0, 79, 100
2, 225792, Note_on_c, 0, 78, 90
2, 225856, Note_off_c, 0, 78, 100
2, 225888, Note_on_c, 0, 79, 90
2, 225952, Note_off_c, 0, 79, 100
2, 225984, Note_on_c, 0, 80, 90
2, 226048, Note_off_c, 0, 80, 100
2, 226080, Note_on_c, 0, 81, 90
2, 226144, Note_off_c, 0, 81, 100
2, 226176, Note_on_c, 0, 79, 90
2, 226240, Note_off_c, 0, 79, 100
2, 226272, Note_on_c, 0, 78, 90
2, 226336, Note_off_c, 0, 78, 100
2, 226368, Note_on_c, 0, 76, 90
2, 226432, Note_off_c, 0, 76, 100
2, 226464, Note_on_c, 0, 74, 90
2, 226528, Note_off_c, 0, 74, 100
2, 226560, Note_on_c, 0, 75, 90
2, 226624, Note_off_c, 0, 75, 100
2, 226656, Note_on_c, 0, 76, 90
2, 226720, Note_off_c, 0, 76, 100
2, 226752, Note_on_c, 0, 78, 90
2, 226816, Note_off_c, 0, 78, 100
2, 226848, Note_on_c, 0, 79, 90
2, 226912, Note_off_c, 0, 79, 100
2, 226944, Note_on_c, 0, 78, 90
2, 227008, Note_off_c, 0, 78, 100
2, 227040, Note_on_c, 0, 76, 90
2, 227104, Note_off_c, 0, 76, 100
2, 227136, Note_on_c, 0, 74, 90
2, 227200, Note_off_c, 0, 74, 100
2, 227232, Note_on_c, 0, 73, 90
2, 227296, Note_off_c, 0, 73, 100
2, 227328, Note_on_c, 0, 74, 90
2, 227392, Note_off_c, 0, 74, 100
2, 227424, Note_on_c, 0, 69, 90
2, 227488, Note_off_c, 0, 69, 100
2, 227520, Note_on_c, 0, 74, 90
2, 227584, Note_off_c, 0, 74, 100
2, 227616, Note_on_c, 0, 78, 90
2, 227680, Note_off_c, 0, 78, 100
2, 227712, Note_on_c, 0, 81, 90
2, 227776, Note_off_c, 0, 81, 100
2, 227808, Note_on_c, 0, 78, 90
2, 227872, Note_off_c, 0, 78, 100
2, 227904, Note_on_c, 0, 79, 90
2, 227968, Note_off_c, 0, 79, 100
2, 228000, Note_on_c, 0, 76, 90
2, 228064, Note_off_c, 0, 76, 100
2, 228096, Note_on_c, 0, 74, 90
2, 228160, Note_off_c, 0, 74, 100
2, 228192, Note_on_c, 0, 69, 90
2, 228256, Note_off_c, 0, 69, 100
2, 228288, Note_on_c, 0, 74, 90
2, 228352, Note_off_c, 0, 74, 100
2, 228384, Note_on_c, 0, 78, 90
2, 228448, Note_off_c, 0, 78, 100
2, 228480, Note_on_c, 0, 81, 90
2, 228544, Note_off_c, 0, 81, 100
2, 228576, Note_on_c, 0, 78, 90
2, 228640, Note_off_c, 0, 78, 100
2, 228672, Note_on_c, 0, 79, 90
2, 228736, Note_off_c, 0, 79, 100
2, 228768, Note_on_c, 0, 76, 90
2, 228832, Note_off_c, 0, 76, 100
2, 228864, Note_on_c, 0, 74, 90
2, 229120, Note_off_c, 0, 74, 100
2, 229248, Note_on_c, 0, 85, 99
2, 229248, Note_on_c, 0, 79, 99
2, 229248, Note_on_c, 0, 76, 99
2, 229504, Note_off_c, 0, 85, 100
2, 229504, Note_off_c, 0, 79, 100
2, 229504, Note_off_c, 0, 76, 100
2, 229632, Note_on_c, 0, 86, 99
2, 229632, Note_on_c, 0, 78, 99
2, 229632, Note_on_c, 0, 74, 99
2, 229888, Note_off_c, 0, 86, 100
2, 229888, Note_off_c, 0, 78, 100
2, 229888, Note_off_c, 0, 74, 100
2, 230400, Note_on_c, 0, 79, 75
2, 230400, Note_on_c, 0, 71, 75
2, 230528, Note_off_c, 0, 79, 100
2, 230528, Note_off_c, 0, 71, 100
2, 230592, Note_on_c, 0, 78, 75
2, 230592, Note_on_c, 0, 69, 75
2, 230720, Note_off_c, 0, 78, 100
2, 230720, Note_off_c, 0, 69, 100
2, 230784, Note_on_c, 0, 78, 60
2, 230784, Note_on_c, 0, 69, 60
2, 230912, Note_off_c, 0, 78, 100
2, 230912, Note_off_c, 0, 69, 100
2, 230976, Note_on_c, 0, 67, 60
2, 230976, Note_on_c, 0, 76, 60
2, 231104, Note_off_c, 0, 67, 100
2, 231104, Note_off_c, 0, 76, 100
2, 231168, Note_on_c, 0, 67, 60
2, 231168, Note_on_c, 0, 76, 60
2, 231296, Note_off_c, 0, 67, 100
2, 231296, Note_off_c, 0, 76, 100
2, 231360, Note_on_c, 0, 74, 60
2, 231360, Note_on_c, 0, 66, 60
2, 231488, Note_off_c, 0, 74, 100
2, 231488, Note_off_c, 0, 66, 100
2, 231552, Note_on_c, 0, 74, 60
2, 231552, Note_on_c, 0, 66, 60
2, 231680, Note_off_c, 0, 74, 100
2, 231680, Note_off_c, 0, 66, 100
2, 231744, Note_on_c, 0, 73, 60
2, 231744, Note_on_c, 0, 64, 60
2, 231872, Note_off_c, 0, 73, 100
2, 231872, Note_off_c, 0, 64, 100
2, 231936, Note_on_c, 0, 73, 82
2, 231936, Note_on_c, 0, 67, 82
2, 231936, Note_on_c, 0, 64, 82
2, 232448, Note_off_c, 0, 73, 100
2, 232448, Note_off_c, 0, 67, 100
2, 232448, Note_off_c, 0, 64, 100
2, 232704, Note_on_c, 0, 74, 60
2, 232704, Note_on_c, 0, 66, 60
2, 232960, Note_off_c, 0, 74, 100
2, 232960, Note_off_c, 0, 66, 100
2, 232960, End_track
3, 0, Start_track
3, 0, Title_t, "K311-a"
3, 0, Control_c, 1, 0, 0
3, 0, Program_c, 1, 0
3, 0, Control_c, 1, 7, 80
3, 0, Control_c, 1, 10, 47
3, 0, Control_c, 1, 91, 127
3, 0, Control_c, 1, 93, 127
3, 0, Key_signature, 2, "major"
3, 0, Control_c, 1, 121, 0
3, 144, Control_c, 1, 10, 43
3, 192, Control_c, 1, 91, 63
3, 240, Control_c, 1, 93, 40
3, 288, Program_c, 1, 0
3, 1536, Note_on_c, 1, 50, 90
3, 1536, Note_on_c, 1, 45, 90
3, 1536, Note_on_c, 1, 38, 90
3, 1792, Note_off_c, 1, 50, 100
3, 1792, Note_off_c, 1, 45, 100
3, 1792, Note_off_c, 1, 38, 100
3, 4608, Note_on_c, 1, 54, 75
3, 4736, Note_off_c, 1, 54, 100
3, 4800, Note_on_c, 1, 62, 75
3, 4928, Note_off_c, 1, 62, 100
3, 4992, Note_on_c, 1, 50, 75
3, 5120, Note_off_c, 1, 50, 100
3, 5184, Note_on_c, 1, 62, 75
3, 5312, Note_off_c, 1, 62, 100
3, 5376, Note_on_c, 1, 52, 75
3, 5504, Note_off_c, 1, 52, 100
3, 5568, Note_on_c, 1, 62, 75
3, 5696, Note_off_c, 1, 62, 100
3, 5760, Note_on_c, 1, 57, 75
3, 5888, Note_off_c, 1, 57, 100
3, 5952, Note_on_c, 1, 62, 75
3, 6080, Note_off_c, 1, 62, 100
3, 6144, Note_on_c, 1, 62, 75
3, 6144, Note_on_c, 1, 50, 75
3, 6400, Note_off_c, 1, 62, 100
3, 6400, Note_off_c, 1, 50, 100
3, 9216, Note_on_c, 1, 54, 75
3, 9344, Note_off_c, 1, 54, 100
3, 9408, Note_on_c, 1, 62, 75
3, 9536, Note_off_c, 1, 62, 100
3, 9600, Note_on_c, 1, 50, 75
3, 9728, Note_off_c, 1, 50, 100
3, 9792, Note_on_c, 1, 62, 75
3, 9920, Note_off_c, 1, 62, 100
3, 9984, Note_on_c, 1, 52, 75
3, 10112, Note_off_c, 1, 52, 100
3, 10176, Note_on_c, 1, 62, 75
3, 10304, Note_off_c, 1, 62, 100
3, 10368, Note_on_c, 1, 57, 75
3, 10496, Note_off_c, 1, 57, 100
3, 10560, Note_on_c, 1, 61, 75
3, 10688, Note_off_c, 1, 61, 100
3, 13824, Note_on_c, 1, 57, 67
3, 13952, Note_off_c, 1, 57, 100
3, 14016, Note_on_c, 1, 61, 67
3, 14144, Note_off_c, 1, 61, 100
3, 14208, Note_on_c, 1, 57, 67
3, 14336, Note_off_c, 1, 57, 100
3, 14400, Note_on_c, 1, 61, 67
3, 14528, Note_off_c, 1, 61, 100
3, 14592, Note_on_c, 1, 57, 67
3, 14720, Note_off_c, 1, 57, 100
3, 14784, Note_on_c, 1, 61, 67
3, 14912, Note_off_c, 1, 61, 100
3, 14976, Note_on_c, 1, 55, 67
3, 15104, Note_off_c, 1, 55, 100
3, 15168, Note_on_c, 1, 61, 67
3, 15296, Note_off_c, 1, 61, 100
3, 15360, Note_on_c, 1, 54, 67
3, 15488, Note_off_c, 1, 54, 100
3, 15552, Note_on_c, 1, 62, 67
3, 15680, Note_off_c, 1, 62, 100
3, 15744, Note_on_c, 1, 54, 67
3, 15872, Note_off_c, 1, 54, 100
3, 15936, Note_on_c, 1, 62, 67
3, 16064, Note_off_c, 1, 62, 100
3, 16128, Note_on_c, 1, 54, 67
3, 16192, Note_off_c, 1, 54, 100
3, 16224, Note_on_c, 1, 50, 67
3, 16288, Note_off_c, 1, 50, 100
3, 16320, Note_on_c, 1, 52, 67
3, 16384, Note_off_c, 1, 52, 100
3, 16416, Note_on_c, 1, 54, 67
3, 16480, Note_off_c, 1, 54, 100
3, 16512, Note_on_c, 1, 55, 67
3, 16576, Note_off_c, 1, 55, 100
3, 16608, Note_on_c, 1, 57, 67
3, 16672, Note_off_c, 1, 57, 100
3, 16704, Note_on_c, 1, 59, 67
3, 16768, Note_off_c, 1, 59, 100
3, 16800, Note_on_c, 1, 61, 67
3, 16864, Note_off_c, 1, 61, 100
3, 16896, Note_on_c, 1, 62, 90
3, 17152, Note_off_c, 1, 62, 100
3, 17856, Note_on_c, 1, 57, 90
3, 17856, Note_on_c, 1, 54, 90
3, 17984, Note_off_c, 1, 57, 100
3, 17984, Note_off_c, 1, 54, 100
3, 18048, Note_on_c, 1, 57, 90
3, 18048, Note_on_c, 1, 54, 90
3, 18176, Note_off_c, 1, 57, 100
3, 18176, Note_off_c, 1, 54, 100
3, 18240, Note_on_c, 1, 57, 90
3, 18240, Note_on_c, 1, 54, 90
3, 18368, Note_off_c, 1, 57, 100
3, 18368, Note_off_c, 1, 54, 100
3, 18432, Note_on_c, 1, 59, 90
3, 18432, Note_on_c, 1, 55, 90
3, 18560, Note_off_c, 1, 59, 100
3, 18560, Note_off_c, 1, 55, 100
3, 19392, Note_on_c, 1, 59, 90
3, 19392, Note_on_c, 1, 55, 90
3, 19520, Note_off_c, 1, 59, 100
3, 19520, Note_off_c, 1, 55, 100
3, 19584, Note_on_c, 1, 59, 90
3, 19584, Note_on_c, 1, 55, 90
3, 19712, Note_off_c, 1, 59, 100
3, 19712, Note_off_c, 1, 55, 100
3, 19776, Note_on_c, 1, 59, 90
3, 19776, Note_on_c, 1, 56, 90
3, 19904, Note_off_c, 1, 59, 100
3, 19904, Note_off_c, 1, 56, 100
3, 19968, Note_on_c, 1, 57, 90
3, 20096, Note_off_c, 1, 57, 100
3, 20160, Note_on_c, 1, 55, 90
3, 20288, Note_off_c, 1, 55, 100
3, 20352, Note_on_c, 1, 54, 90
3, 20480, Note_off_c, 1, 54, 100
3, 20544, Note_on_c, 1, 50, 90
3, 20672, Note_off_c, 1, 50, 100
3, 20736, Note_on_c, 1, 49, 90
3, 20864, Note_off_c, 1, 49, 100
3, 20928, Note_on_c, 1, 45, 90
3, 21056, Note_off_c, 1, 45, 100
3, 21120, Note_on_c, 1, 50, 90
3, 21248, Note_off_c, 1, 50, 100
3, 21312, Note_on_c, 1, 54, 90
3, 21440, Note_off_c, 1, 54, 100
3, 21504, Note_on_c, 1, 57, 90
3, 21632, Note_off_c, 1, 57, 100
3, 21696, Note_on_c, 1, 55, 90
3, 21824, Note_off_c, 1, 55, 100
3, 21888, Note_on_c, 1, 54, 90
3, 22016, Note_off_c, 1, 54, 100
3, 22080, Note_on_c, 1, 50, 90
3, 22208, Note_off_c, 1, 50, 100
3, 22272, Note_on_c, 1, 49, 90
3, 22400, Note_off_c, 1, 49, 100
3, 22464, Note_on_c, 1, 45, 90
3, 22592, Note_off_c, 1, 45, 100
3, 22656, Note_on_c, 1, 50, 90
3, 22784, Note_off_c, 1, 50, 100
3, 22848, Note_on_c, 1, 54, 90
3, 22976, Note_off_c, 1, 54, 100
3, 23040, Note_on_c, 1, 57, 90
3, 23040, Note_on_c, 1, 52, 90
3, 23040, Note_on_c, 1, 45, 90
3, 23296, Note_off_c, 1, 57, 100
3, 23296, Note_off_c, 1, 52, 100
3, 23296, Note_off_c, 1, 45, 100
3, 23424, Note_on_c, 1, 57, 90
3, 23424, Note_on_c, 1, 54, 90
3, 23424, Note_on_c, 1, 50, 90
3, 23680, Note_off_c, 1, 57, 100
3, 23680, Note_off_c, 1, 54, 100
3, 23680, Note_off_c, 1, 50, 100
3, 23808, Note_on_c, 1, 57, 90
3, 23808, Note_on_c, 1, 45, 90
3, 23808, Note_on_c, 1, 52, 90
3, 24064, Note_off_c, 1, 57, 100
3, 24064, Note_off_c, 1, 45, 100
3, 24064, Note_off_c, 1, 52, 100
3, 24192, Note_on_c, 1, 57, 90
3, 24192, Note_on_c, 1, 54, 90
3, 24192, Note_on_c, 1, 50, 90
3, 24448, Note_off_c, 1, 57, 100
3, 24448, Note_off_c, 1, 54, 100
3, 24448, Note_off_c, 1, 50, 100
3, 24768, Note_on_c, 1, 52, 90
3, 24768, Note_on_c, 1, 49, 90
3, 24768, Note_on_c, 1, 45, 90
3, 24768, Note_on_c, 1, 57, 90
3, 24896, Note_off_c, 1, 52, 100
3, 24896, Note_off_c, 1, 49, 100
3, 24896, Note_off_c, 1, 45, 100
3, 24896, Note_off_c, 1, 57, 100
3, 24960, Note_on_c, 1, 52, 90
3, 24960, Note_on_c, 1, 49, 90
3, 24960, Note_on_c, 1, 45, 90
3, 24960, Note_on_c, 1, 57, 90
3, 25088, Note_off_c, 1, 52, 100
3, 25088, Note_off_c, 1, 49, 100
3, 25088, Note_off_c, 1, 45, 100
3, 25088, Note_off_c, 1, 57, 100
3, 25152, Note_on_c, 1, 57, 90
3, 25152, Note_on_c, 1, 52, 90
3, 25152, Note_on_c, 1, 49, 90
3, 25152, Note_on_c, 1, 45, 90
3, 25280, Note_off_c, 1, 57, 100
3, 25280, Note_off_c, 1, 52, 100
3, 25280, Note_off_c, 1, 49, 100
3, 25280, Note_off_c, 1, 45, 100
3, 25344, Note_on_c, 1, 57, 90
3, 25344, Note_on_c, 1, 52, 90
3, 25344, Note_on_c, 1, 49, 90
3, 25344, Note_on_c, 1, 45, 90
3, 25472, Note_off_c, 1, 57, 100
3, 25472, Note_off_c, 1, 52, 100
3, 25472, Note_off_c, 1, 49, 100
3, 25472, Note_off_c, 1, 45, 100
3, 26112, Note_on_c, 1, 57, 60
3, 26240, Note_off_c, 1, 57, 100
3, 26304, Note_on_c, 1, 61, 60
3, 26432, Note_off_c, 1, 61, 100
3, 26496, Note_on_c, 1, 59, 60
3, 26624, Note_off_c, 1, 59, 100
3, 26688, Note_on_c, 1, 62, 60
3, 26816, Note_off_c, 1, 62, 100
3, 26880, Note_on_c, 1, 61, 60
3, 27008, Note_off_c, 1, 61, 100
3, 27072, Note_on_c, 1, 64, 60
3, 27200, Note_off_c, 1, 64, 100
3, 27264, Note_on_c, 1, 57, 60
3, 27392, Note_off_c, 1, 57, 100
3, 27456, Note_on_c, 1, 61, 60
3, 27584, Note_off_c, 1, 61, 100
3, 27648, Note_on_c, 1, 59, 60
3, 27776, Note_off_c, 1, 59, 100
3, 27840, Note_on_c, 1, 66, 60
3, 27968, Note_off_c, 1, 66, 100
3, 28032, Note_on_c, 1, 62, 60
3, 28160, Note_off_c, 1, 62, 100
3, 28224, Note_on_c, 1, 59, 60
3, 28352, Note_off_c, 1, 59, 100
3, 28416, Note_on_c, 1, 56, 60
3, 28544, Note_off_c, 1, 56, 100
3, 28608, Note_on_c, 1, 59, 60
3, 28736, Note_off_c, 1, 59, 100
3, 28800, Note_on_c, 1, 52, 60
3, 28928, Note_off_c, 1, 52, 100
3, 28992, Note_on_c, 1, 62, 60
3, 29120, Note_off_c, 1, 62, 100
3, 29184, Note_on_c, 1, 61, 60
3, 29312, Note_off_c, 1, 61, 100
3, 29376, Note_on_c, 1, 64, 60
3, 29504, Note_off_c, 1, 64, 100
3, 29568, Note_on_c, 1, 56, 60
3, 29696, Note_off_c, 1, 56, 100
3, 29760, Note_on_c, 1, 64, 60
3, 29888, Note_off_c, 1, 64, 100
3, 29952, Note_on_c, 1, 57, 60
3, 30080, Note_off_c, 1, 57, 100
3, 30144, Note_on_c, 1, 64, 60
3, 30272, Note_off_c, 1, 64, 100
3, 30336, Note_on_c, 1, 54, 60
3, 30464, Note_off_c, 1, 54, 100
3, 30528, Note_on_c, 1, 57, 60
3, 30656, Note_off_c, 1, 57, 100
3, 30720, Note_on_c, 1, 52, 60
3, 30848, Note_off_c, 1, 52, 100
3, 30912, Note_on_c, 1, 57, 60
3, 31040, Note_off_c, 1, 57, 100
3, 31104, Note_on_c, 1, 61, 60
3, 31232, Note_off_c, 1, 61, 100
3, 31296, Note_on_c, 1, 57, 60
3, 31424, Note_off_c, 1, 57, 100
3, 31488, Note_on_c, 1, 56, 60
3, 31488, Note_on_c, 1, 52, 60
3, 31616, Note_off_c, 1, 56, 100
3, 31616, Note_off_c, 1, 52, 100
3, 32256, Note_on_c, 1, 57, 60
3, 32384, Note_off_c, 1, 57, 100
3, 32448, Note_on_c, 1, 61, 60
3, 32576, Note_off_c, 1, 61, 100
3, 32640, Note_on_c, 1, 59, 60
3, 32768, Note_off_c, 1, 59, 100
3, 32832, Note_on_c, 1, 62, 60
3, 32960, Note_off_c, 1, 62, 100
3, 33024, Note_on_c, 1, 61, 60
3, 33152, Note_off_c, 1, 61, 100
3, 33216, Note_on_c, 1, 64, 60
3, 33344, Note_off_c, 1, 64, 100
3, 33408, Note_on_c, 1, 57, 60
3, 33536, Note_off_c, 1, 57, 100
3, 33600, Note_on_c, 1, 61, 60
3, 33728, Note_off_c, 1, 61, 100
3, 33792, Note_on_c, 1, 59, 60
3, 33920, Note_off_c, 1, 59, 100
3, 33984, Note_on_c, 1, 66, 60
3, 34112, Note_off_c, 1, 66, 100
3, 34176, Note_on_c, 1, 62, 60
3, 34304, Note_off_c, 1, 62, 100
3, 34368, Note_on_c, 1, 59, 60
3, 34496, Note_off_c, 1, 59, 100
3, 34560, Note_on_c, 1, 56, 60
3, 34688, Note_off_c, 1, 56, 100
3, 34752, Note_on_c, 1, 59, 60
3, 34880, Note_off_c, 1, 59, 100
3, 34944, Note_on_c, 1, 52, 60
3, 35072, Note_off_c, 1, 52, 100
3, 35136, Note_on_c, 1, 56, 60
3, 35264, Note_off_c, 1, 56, 100
3, 35328, Note_on_c, 1, 57, 60
3, 35584, Note_off_c, 1, 57, 100
3, 35712, Note_on_c, 1, 62, 60
3, 35712, Note_on_c, 1, 50, 60
3, 35968, Note_off_c, 1, 62, 100
3, 35968, Note_off_c, 1, 50, 100
3, 36096, Note_on_c, 1, 52, 60
3, 36096, Note_on_c, 1, 61, 60
3, 36352, Note_off_c, 1, 61, 100
3, 36480, Note_on_c, 1, 59, 60
3, 36608, Note_off_c, 1, 52, 100
3, 36736, Note_off_c, 1, 59, 100
3, 36864, Note_on_c, 1, 57, 90
3, 37120, Note_off_c, 1, 57, 100
3, 38976, Note_on_c, 1, 57, 90
3, 39104, Note_off_c, 1, 57, 100
3, 39168, Note_on_c, 1, 59, 99
3, 39296, Note_off_c, 1, 59, 100
3, 39360, Note_on_c, 1, 57, 90
3, 39488, Note_off_c, 1, 57, 100
3, 39552, Note_on_c, 1, 56, 90
3, 39680, Note_off_c, 1, 56, 100
3, 39744, Note_on_c, 1, 52, 90
3, 39872, Note_off_c, 1, 52, 100
3, 39936, Note_on_c, 1, 57, 90
3, 40000, Note_off_c, 1, 57, 100
3, 42048, Note_on_c, 1, 45, 90
3, 42176, Note_off_c, 1, 45, 100
3, 42240, Note_on_c, 1, 47, 99
3, 42368, Note_off_c, 1, 47, 100
3, 42432, Note_on_c, 1, 45, 90
3, 42560, Note_off_c, 1, 45, 100
3, 42624, Note_on_c, 1, 44, 90
3, 42752, Note_off_c, 1, 44, 100
3, 42816, Note_on_c, 1, 40, 90
3, 42944, Note_off_c, 1, 40, 100
3, 43008, Note_on_c, 1, 45, 94
3, 43264, Note_off_c, 1, 45, 100
3, 47616, Note_on_c, 1, 50, 90
3, 47680, Note_off_c, 1, 50, 100
3, 47712, Note_on_c, 1, 59, 90
3, 47776, Note_off_c, 1, 59, 100
3, 47808, Note_on_c, 1, 54, 90
3, 47872, Note_off_c, 1, 54, 100
3, 47904, Note_on_c, 1, 59, 90
3, 47968, Note_off_c, 1, 59, 100
3, 48000, Note_on_c, 1, 50, 90
3, 48064, Note_off_c, 1, 50, 100
3, 48096, Note_on_c, 1, 59, 90
3, 48160, Note_off_c, 1, 59, 100
3, 48192, Note_on_c, 1, 54, 90
3, 48256, Note_off_c, 1, 54, 100
3, 48304, Note_on_c, 1, 59, 90
3, 48368, Note_off_c, 1, 59, 100
3, 48384, Note_on_c, 1, 52, 90
3, 48448, Note_off_c, 1, 52, 100
3, 48480, Note_on_c, 1, 61, 90
3, 48544, Note_off_c, 1, 61, 100
3, 48576, Note_on_c, 1, 57, 90
3, 48640, Note_off_c, 1, 57, 100
3, 48672, Note_on_c, 1, 61, 90
3, 48736, Note_off_c, 1, 61, 100
3, 48768, Note_on_c, 1, 52, 90
3, 48832, Note_off_c, 1, 52, 100
3, 48864, Note_on_c, 1, 62, 90
3, 48928, Note_off_c, 1, 62, 100
3, 48960, Note_on_c, 1, 56, 90
3, 49024, Note_off_c, 1, 56, 100
3, 49056, Note_on_c, 1, 62, 90
3, 49120, Note_off_c, 1, 62, 100
3, 49152, Note_on_c, 1, 57, 90
3, 49216, Note_off_c, 1, 57, 100
3, 49248, Note_on_c, 1, 64, 90
3, 49312, Note_off_c, 1, 64, 100
3, 49344, Note_on_c, 1, 61, 90
3, 49408, Note_off_c, 1, 61, 100
3, 49440, Note_on_c, 1, 64, 90
3, 49504, Note_off_c, 1, 64, 100
3, 53760, Note_on_c, 1, 50, 90
3, 53824, Note_off_c, 1, 50, 100
3, 53856, Note_on_c, 1, 59, 90
3, 53920, Note_off_c, 1, 59, 100
3, 53952, Note_on_c, 1, 54, 90
3, 54016, Note_off_c, 1, 54, 100
3, 54048, Note_on_c, 1, 59, 90
3, 54112, Note_off_c, 1, 59, 100
3, 54144, Note_on_c, 1, 50, 90
3, 54208, Note_off_c, 1, 50, 100
3, 54240, Note_on_c, 1, 59, 90
3, 54304, Note_off_c, 1, 59, 100
3, 54336, Note_on_c, 1, 54, 90
3, 54400, Note_off_c, 1, 54, 100
3, 54432, Note_on_c, 1, 59, 90
3, 54496, Note_off_c, 1, 59, 100
3, 54528, Note_on_c, 1, 52, 90
3, 54592, Note_off_c, 1, 52, 100
3, 54624, Note_on_c, 1, 61, 90
3, 54688, Note_off_c, 1, 61, 100
3, 54720, Note_on_c, 1, 57, 90
3, 54784, Note_off_c, 1, 57, 100
3, 54816, Note_on_c, 1, 61, 90
3, 54880, Note_off_c, 1, 61, 100
3, 54912, Note_on_c, 1, 52, 90
3, 54976, Note_off_c, 1, 52, 100
3, 55008, Note_on_c, 1, 62, 90
3, 55072, Note_off_c, 1, 62, 100
3, 55104, Note_on_c, 1, 56, 90
3, 55168, Note_off_c, 1, 56, 100
3, 55200, Note_on_c, 1, 62, 90
3, 55264, Note_off_c, 1, 62, 100
3, 55296, Note_on_c, 1, 57, 90
3, 55296, Note_on_c, 1, 61, 90
3, 55552, Note_off_c, 1, 57, 100
3, 55552, Note_off_c, 1, 61, 100
3, 55872, Note_on_c, 1, 56, 90
3, 55872, Note_on_c, 1, 59, 90
3, 55872, Note_on_c, 1, 52, 90
3, 56000, Note_off_c, 1, 56, 100
3, 56000, Note_off_c, 1, 59, 100
3, 56000, Note_off_c, 1, 52, 100
3, 56064, Note_on_c, 1, 57, 90
3, 56064, Note_on_c, 1, 61, 90
3, 56320, Note_off_c, 1, 57, 100
3, 56320, Note_off_c, 1, 61, 100
3, 56640, Note_on_c, 1, 59, 90
3, 56640, Note_on_c, 1, 52, 90
3, 56640, Note_on_c, 1, 56, 90
3, 56768, Note_off_c, 1, 59, 100
3, 56768, Note_off_c, 1, 52, 100
3, 56768, Note_off_c, 1, 56, 100
3, 56832, Note_on_c, 1, 61, 90
3, 56832, Note_on_c, 1, 57, 90
3, 57088, Note_off_c, 1, 61, 100
3, 57088, Note_off_c, 1, 57, 100
3, 57216, Note_on_c, 1, 52, 99
3, 57216, Note_on_c, 1, 40, 99
3, 57472, Note_off_c, 1, 52, 100
3, 57472, Note_off_c, 1, 40, 100
3, 57600, Note_on_c, 1, 42, 99
3, 57600, Note_on_c, 1, 54, 99
3, 57856, Note_off_c, 1, 42, 100
3, 57856, Note_off_c, 1, 54, 100
3, 58368, Note_on_c, 1, 50, 60
3, 58880, Note_off_c, 1, 50, 100
3, 59136, Note_on_c, 1, 52, 60
3, 59648, Note_off_c, 1, 52, 100
3, 59904, Note_on_c, 1, 57, 82
3, 60160, Note_off_c, 1, 57, 100
3, 60288, Note_on_c, 1, 52, 82
3, 60544, Note_off_c, 1, 52, 100
3, 60672, Note_on_c, 1, 45, 60
3, 60928, Note_off_c, 1, 45, 100
3, 61440, Note_on_c, 1, 50, 90
3, 61440, Note_on_c, 1, 45, 90
3, 61440, Note_on_c, 1, 38, 90
3, 61696, Note_off_c, 1, 50, 100
3, 61696, Note_off_c, 1, 45, 100
3, 61696, Note_off_c, 1, 38, 100
3, 64512, Note_on_c, 1, 54, 75
3, 64640, Note_off_c, 1, 54, 100
3, 64704, Note_on_c, 1, 62, 75
3, 64832, Note_off_c, 1, 62, 100
3, 64896, Note_on_c, 1, 50, 75
3, 65024, Note_off_c, 1, 50, 100
3, 65088, Note_on_c, 1, 62, 75
3, 65216, Note_off_c, 1, 62, 100
3, 65280, Note_on_c, 1, 52, 75
3, 65408, Note_off_c, 1, 52, 100
3, 65472, Note_on_c, 1, 62, 75
3, 65600, Note_off_c, 1, 62, 100
3, 65664, Note_on_c, 1, 57, 75
3, 65792, Note_off_c, 1, 57, 100
3, 65856, Note_on_c, 1, 62, 75
3, 65984, Note_off_c, 1, 62, 100
3, 66048, Note_on_c, 1, 62, 75
3, 66048, Note_on_c, 1, 50, 75
3, 66304, Note_off_c, 1, 62, 100
3, 66304, Note_off_c, 1, 50, 100
3, 69120, Note_on_c, 1, 54, 75
3, 69248, Note_off_c, 1, 54, 100
3, 69312, Note_on_c, 1, 62, 75
3, 69440, Note_off_c, 1, 62, 100
3, 69504, Note_on_c, 1, 50, 75
3, 69632, Note_off_c, 1, 50, 100
3, 69696, Note_on_c, 1, 62, 75
3, 69824, Note_off_c, 1, 62, 100
3, 69888, Note_on_c, 1, 52, 75
3, 70016, Note_off_c, 1, 52, 100
3, 70080, Note_on_c, 1, 62, 75
3, 70208, Note_off_c, 1, 62, 100
3, 70272, Note_on_c, 1, 57, 75
3, 70400, Note_off_c, 1, 57, 100
3, 70464, Note_on_c, 1, 61, 75
3, 70592, Note_off_c, 1, 61, 100
3, 73728, Note_on_c, 1, 57, 67
3, 73856, Note_off_c, 1, 57, 100
3, 73920, Note_on_c, 1, 61, 67
3, 74048, Note_off_c, 1, 61, 100
3, 74112, Note_on_c, 1, 57, 67
3, 74240, Note_off_c, 1, 57, 100
3, 74304, Note_on_c, 1, 61, 67
3, 74432, Note_off_c, 1, 61, 100
3, 74496, Note_on_c, 1, 57, 67
3, 74624, Note_off_c, 1, 57, 100
3, 74688, Note_on_c, 1, 61, 67
3, 74816, Note_off_c, 1, 61, 100
3, 74880, Note_on_c, 1, 55, 67
3, 75008, Note_off_c, 1, 55, 100
3, 75072, Note_on_c, 1, 61, 67
3, 75200, Note_off_c, 1, 61, 100
3, 75264, Note_on_c, 1, 54, 67
3, 75392, Note_off_c, 1, 54, 100
3, 75456, Note_on_c, 1, 62, 67
3, 75584, Note_off_c, 1, 62, 100
3, 75648, Note_on_c, 1, 54, 67
3, 75776, Note_off_c, 1, 54, 100
3, 75840, Note_on_c, 1, 62, 67
3, 75968, Note_off_c, 1, 62, 100
3, 76032, Note_on_c, 1, 54, 67
3, 76096, Note_off_c, 1, 54, 100
3, 76128, Note_on_c, 1, 50, 67
3, 76192, Note_off_c, 1, 50, 100
3, 76224, Note_on_c, 1, 52, 67
3, 76288, Note_off_c, 1, 52, 100
3, 76320, Note_on_c, 1, 54, 67
3, 76384, Note_off_c, 1, 54, 100
3, 76416, Note_on_c, 1, 55, 67
3, 76480, Note_off_c, 1, 55, 100
3, 76512, Note_on_c, 1, 57, 67
3, 76576, Note_off_c, 1, 57, 100
3, 76608, Note_on_c, 1, 59, 67
3, 76672, Note_off_c, 1, 59, 100
3, 76704, Note_on_c, 1, 61, 67
3, 76768, Note_off_c, 1, 61, 100
3, 76800, Note_on_c, 1, 62, 90
3, 77056, Note_off_c, 1, 62, 100
3, 77760, Note_on_c, 1, 57, 90
3, 77760, Note_on_c, 1, 54, 90
3, 77888, Note_off_c, 1, 57, 100
3, 77888, Note_off_c, 1, 54, 100
3, 77952, Note_on_c, 1, 57, 90
3, 77952, Note_on_c, 1, 54, 90
3, 78080, Note_off_c, 1, 57, 100
3, 78080, Note_off_c, 1, 54, 100
3, 78144, Note_on_c, 1, 57, 90
3, 78144, Note_on_c, 1, 54, 90
3, 78272, Note_off_c, 1, 57, 100
3, 78272, Note_off_c, 1, 54, 100
3, 78336, Note_on_c, 1, 59, 90
3, 78336, Note_on_c, 1, 55, 90
3, 78464, Note_off_c, 1, 59, 100
3, 78464, Note_off_c, 1, 55, 100
3, 79296, Note_on_c, 1, 59, 90
3, 79296, Note_on_c, 1, 55, 90
3, 79424, Note_off_c, 1, 59, 100
3, 79424, Note_off_c, 1, 55, 100
3, 79488, Note_on_c, 1, 59, 90
3, 79488, Note_on_c, 1, 55, 90
3, 79616, Note_off_c, 1, 59, 100
3, 79616, Note_off_c, 1, 55, 100
3, 79680, Note_on_c, 1, 59, 90
3, 79680, Note_on_c, 1, 56, 90
3, 79808, Note_off_c, 1, 59, 100
3, 79808, Note_off_c, 1, 56, 100
3, 79872, Note_on_c, 1, 57, 90
3, 80000, Note_off_c, 1, 57, 100
3, 80064, Note_on_c, 1, 55, 90
3, 80192, Note_off_c, 1, 55, 100
3, 80256, Note_on_c, 1, 54, 90
3, 80384, Note_off_c, 1, 54, 100
3, 80448, Note_on_c, 1, 50, 90
3, 80576, Note_off_c, 1, 50, 100
3, 80640, Note_on_c, 1, 49, 90
3, 80768, Note_off_c, 1, 49, 100
3, 80832, Note_on_c, 1, 45, 90
3, 80960, Note_off_c, 1, 45, 100
3, 81024, Note_on_c, 1, 50, 90
3, 81152, Note_off_c, 1, 50, 100
3, 81216, Note_on_c, 1, 54, 90
3, 81344, Note_off_c, 1, 54, 100
3, 81408, Note_on_c, 1, 57, 90
3, 81536, Note_off_c, 1, 57, 100
3, 81600, Note_on_c, 1, 55, 90
3, 81728, Note_off_c, 1, 55, 100
3, 81792, Note_on_c, 1, 54, 90
3, 81920, Note_off_c, 1, 54, 100
3, 81984, Note_on_c, 1, 50, 90
3, 82112, Note_off_c, 1, 50, 100
3, 82176, Note_on_c, 1, 49, 90
3, 82304, Note_off_c, 1, 49, 100
3, 82368, Note_on_c, 1, 45, 90
3, 82496, Note_off_c, 1, 45, 100
3, 82560, Note_on_c, 1, 50, 90
3, 82688, Note_off_c, 1, 50, 100
3, 82752, Note_on_c, 1, 54, 90
3, 82880, Note_off_c, 1, 54, 100
3, 82944, Note_on_c, 1, 57, 90
3, 82944, Note_on_c, 1, 52, 90
3, 82944, Note_on_c, 1, 45, 90
3, 83200, Note_off_c, 1, 57, 100
3, 83200, Note_off_c, 1, 52, 100
3, 83200, Note_off_c, 1, 45, 100
3, 83328, Note_on_c, 1, 57, 90
3, 83328, Note_on_c, 1, 54, 90
3, 83328, Note_on_c, 1, 50, 90
3, 83584, Note_off_c, 1, 57, 100
3, 83584, Note_off_c, 1, 54, 100
3, 83584, Note_off_c, 1, 50, 100
3, 83712, Note_on_c, 1, 57, 90
3, 83712, Note_on_c, 1, 45, 90
3, 83712, Note_on_c, 1, 52, 90
3, 83968, Note_off_c, 1, 57, 100
3, 83968, Note_off_c, 1, 45, 100
3, 83968, Note_off_c, 1, 52, 100
3, 84096, Note_on_c, 1, 57, 90
3, 84096, Note_on_c, 1, 54, 90
3, 84096, Note_on_c, 1, 50, 90
3, 84352, Note_off_c, 1, 57, 100
3, 84352, Note_off_c, 1, 54, 100
3, 84352, Note_off_c, 1, 50, 100
3, 84672, Note_on_c, 1, 52, 90
3, 84672, Note_on_c, 1, 49, 90
3, 84672, Note_on_c, 1, 45, 90
3, 84672, Note_on_c, 1, 57, 90
3, 84800, Note_off_c, 1, 52, 100
3, 84800, Note_off_c, 1, 49, 100
3, 84800, Note_off_c, 1, 45, 100
3, 84800, Note_off_c, 1, 57, 100
3, 84864, Note_on_c, 1, 52, 90
3, 84864, Note_on_c, 1, 49, 90
3, 84864, Note_on_c, 1, 45, 90
3, 84864, Note_on_c, 1, 57, 90
3, 84992, Note_off_c, 1, 52, 100
3, 84992, Note_off_c, 1, 49, 100
3, 84992, Note_off_c, 1, 45, 100
3, 84992, Note_off_c, 1, 57, 100
3, 85056, Note_on_c, 1, 57, 90
3, 85056, Note_on_c, 1, 52, 90
3, 85056, Note_on_c, 1, 49, 90
3, 85056, Note_on_c, 1, 45, 90
3, 85184, Note_off_c, 1, 57, 100
3, 85184, Note_off_c, 1, 52, 100
3, 85184, Note_off_c, 1, 49, 100
3, 85184, Note_off_c, 1, 45, 100
3, 85248, Note_on_c, 1, 57, 90
3, 85248, Note_on_c, 1, 52, 90
3, 85248, Note_on_c, 1, 49, 90
3, 85248, Note_on_c, 1, 45, 90
3, 85376, Note_off_c, 1, 57, 100
3, 85376, Note_off_c, 1, 52, 100
3, 85376, Note_off_c, 1, 49, 100
3, 85376, Note_off_c, 1, 45, 100
3, 86016, Note_on_c, 1, 57, 60
3, 86144, Note_off_c, 1, 57, 100
3, 86208, Note_on_c, 1, 61, 60
3, 86336, Note_off_c, 1, 61, 100
3, 86400, Note_on_c, 1, 59, 60
3, 86528, Note_off_c, 1, 59, 100
3, 86592, Note_on_c, 1, 62, 60
3, 86720, Note_off_c, 1, 62, 100
3, 86784, Note_on_c, 1, 61, 60
3, 86912, Note_off_c, 1, 61, 100
3, 86976, Note_on_c, 1, 64, 60
3, 87104, Note_off_c, 1, 64, 100
3, 87168, Note_on_c, 1, 57, 60
3, 87296, Note_off_c, 1, 57, 100
3, 87360, Note_on_c, 1, 61, 60
3, 87488, Note_off_c, 1, 61, 100
3, 87552, Note_on_c, 1, 59, 60
3, 87680, Note_off_c, 1, 59, 100
3, 87744, Note_on_c, 1, 66, 60
3, 87872, Note_off_c, 1, 66, 100
3, 87936, Note_on_c, 1, 62, 60
3, 88064, Note_off_c, 1, 62, 100
3, 88128, Note_on_c, 1, 59, 60
3, 88256, Note_off_c, 1, 59, 100
3, 88320, Note_on_c, 1, 56, 60
3, 88448, Note_off_c, 1, 56, 100
3, 88512, Note_on_c, 1, 59, 60
3, 88640, Note_off_c, 1, 59, 100
3, 88704, Note_on_c, 1, 52, 60
3, 88832, Note_off_c, 1, 52, 100
3, 88896, Note_on_c, 1, 62, 60
3, 89024, Note_off_c, 1, 62, 100
3, 89088, Note_on_c, 1, 61, 60
3, 89216, Note_off_c, 1, 61, 100
3, 89280, Note_on_c, 1, 64, 60
3, 89408, Note_off_c, 1, 64, 100
3, 89472, Note_on_c, 1, 56, 60
3, 89600, Note_off_c, 1, 56, 100
3, 89664, Note_on_c, 1, 64, 60
3, 89792, Note_off_c, 1, 64, 100
3, 89856, Note_on_c, 1, 57, 60
3, 89984, Note_off_c, 1, 57, 100
3, 90048, Note_on_c, 1, 64, 60
3, 90176, Note_off_c, 1, 64, 100
3, 90240, Note_on_c, 1, 54, 60
3, 90368, Note_off_c, 1, 54, 100
3, 90432, Note_on_c, 1, 57, 60
3, 90560, Note_off_c, 1, 57, 100
3, 90624, Note_on_c, 1, 52, 60
3, 90752, Note_off_c, 1, 52, 100
3, 90816, Note_on_c, 1, 57, 60
3, 90944, Note_off_c, 1, 57, 100
3, 91008, Note_on_c, 1, 61, 60
3, 91136, Note_off_c, 1, 61, 100
3, 91200, Note_on_c, 1, 57, 60
3, 91328, Note_off_c, 1, 57, 100
3, 91392, Note_on_c, 1, 56, 60
3, 91392, Note_on_c, 1, 52, 60
3, 91520, Note_off_c, 1, 56, 100
3, 91520, Note_off_c, 1, 52, 100
3, 92160, Note_on_c, 1, 57, 60
3, 92288, Note_off_c, 1, 57, 100
3, 92352, Note_on_c, 1, 61, 60
3, 92480, Note_off_c, 1, 61, 100
3, 92544, Note_on_c, 1, 59, 60
3, 92672, Note_off_c, 1, 59, 100
3, 92736, Note_on_c, 1, 62, 60
3, 92864, Note_off_c, 1, 62, 100
3, 92928, Note_on_c, 1, 61, 60
3, 93056, Note_off_c, 1, 61, 100
3, 93120, Note_on_c, 1, 64, 60
3, 93248, Note_off_c, 1, 64, 100
3, 93312, Note_on_c, 1, 57, 60
3, 93440, Note_off_c, 1, 57, 100
3, 93504, Note_on_c, 1, 61, 60
3, 93632, Note_off_c, 1, 61, 100
3, 93696, Note_on_c, 1, 59, 60
3, 93824, Note_off_c, 1, 59, 100
3, 93888, Note_on_c, 1, 66, 60
3, 94016, Note_off_c, 1, 66, 100
3, 94080, Note_on_c, 1, 62, 60
3, 94208, Note_off_c, 1, 62, 100
3, 94272, Note_on_c, 1, 59, 60
3, 94400, Note_off_c, 1, 59, 100
3, 94464, Note_on_c, 1, 56, 60
3, 94592, Note_off_c, 1, 56, 100
3, 94656, Note_on_c, 1, 59, 60
3, 94784, Note_off_c, 1, 59, 100
3, 94848, Note_on_c, 1, 52, 60
3, 94976, Note_off_c, 1, 52, 100
3, 95040, Note_on_c, 1, 56, 60
3, 95168, Note_off_c, 1, 56, 100
3, 95232, Note_on_c, 1, 57, 60
3, 95488, Note_off_c, 1, 57, 100
3, 95616, Note_on_c, 1, 62, 60
3, 95616, Note_on_c, 1, 50, 60
3, 95872, Note_off_c, 1, 62, 100
3, 95872, Note_off_c, 1, 50, 100
3, 96000, Note_on_c, 1, 52, 60
3, 96000, Note_on_c, 1, 61, 60
3, 96256, Note_off_c, 1, 61, 100
3, 96384, Note_on_c, 1, 59, 60
3, 96512, Note_off_c, 1, 52, 100
3, 96640, Note_off_c, 1, 59, 100
3, 96768, Note_on_c, 1, 57, 90
3, 97024, Note_off_c, 1, 57, 100
3, 98880, Note_on_c, 1, 57, 90
3, 99008, Note_off_c, 1, 57, 100
3, 99072, Note_on_c, 1, 59, 99
3, 99200, Note_off_c, 1, 59, 100
3, 99264, Note_on_c, 1, 57, 90
3, 99392, Note_off_c, 1, 57, 100
3, 99456, Note_on_c, 1, 56, 90
3, 99584, Note_off_c, 1, 56, 100
3, 99648, Note_on_c, 1, 52, 90
3, 99776, Note_off_c, 1, 52, 100
3, 99840, Note_on_c, 1, 57, 90
3, 99904, Note_off_c, 1, 57, 100
3, 101952, Note_on_c, 1, 45, 90
3, 102080, Note_off_c, 1, 45, 100
3, 102144, Note_on_c, 1, 47, 99
3, 102272, Note_off_c, 1, 47, 100
3, 102336, Note_on_c, 1, 45, 90
3, 102464, Note_off_c, 1, 45, 100
3, 102528, Note_on_c, 1, 44, 90
3, 102656, Note_off_c, 1, 44, 100
3, 102720, Note_on_c, 1, 40, 90
3, 102848, Note_off_c, 1, 40, 100
3, 102912, Note_on_c, 1, 45, 94
3, 103168, Note_off_c, 1, 45, 100
3, 107520, Note_on_c, 1, 50, 90
3, 107584, Note_off_c, 1, 50, 100
3, 107616, Note_on_c, 1, 59, 90
3, 107680, Note_off_c, 1, 59, 100
3, 107712, Note_on_c, 1, 54, 90
3, 107776, Note_off_c, 1, 54, 100
3, 107808, Note_on_c, 1, 59, 90
3, 107872, Note_off_c, 1, 59, 100
3, 107904, Note_on_c, 1, 50, 90
3, 107968, Note_off_c, 1, 50, 100
3, 108000, Note_on_c, 1, 59, 90
3, 108064, Note_off_c, 1, 59, 100
3, 108096, Note_on_c, 1, 54, 90
3, 108160, Note_off_c, 1, 54, 100
3, 108208, Note_on_c, 1, 59, 90
3, 108272, Note_off_c, 1, 59, 100
3, 108288, Note_on_c, 1, 52, 90
3, 108352, Note_off_c, 1, 52, 100
3, 108384, Note_on_c, 1, 61, 90
3, 108448, Note_off_c, 1, 61, 100
3, 108480, Note_on_c, 1, 57, 90
3, 108544, Note_off_c, 1, 57, 100
3, 108576, Note_on_c, 1, 61, 90
3, 108640, Note_off_c, 1, 61, 100
3, 108672, Note_on_c, 1, 52, 90
3, 108736, Note_off_c, 1, 52, 100
3, 108768, Note_on_c, 1, 62, 90
3, 108832, Note_off_c, 1, 62, 100
3, 108864, Note_on_c, 1, 56, 90
3, 108928, Note_off_c, 1, 56, 100
3, 108960, Note_on_c, 1, 62, 90
3, 109024, Note_off_c, 1, 62, 100
3, 109056, Note_on_c, 1, 57, 90
3, 109120, Note_off_c, 1, 57, 100
3, 109152, Note_on_c, 1, 64, 90
3, 109216, Note_off_c, 1, 64, 100
3, 109248, Note_on_c, 1, 61, 90
3, 109312, Note_off_c, 1, 61, 100
3, 109344, Note_on_c, 1, 64, 90
3, 109408, Note_off_c, 1, 64, 100
3, 113664, Note_on_c, 1, 50, 90
3, 113728, Note_off_c, 1, 50, 100
3, 113760, Note_on_c, 1, 59, 90
3, 113824, Note_off_c, 1, 59, 100
3, 113856, Note_on_c, 1, 54, 90
3, 113920, Note_off_c, 1, 54, 100
3, 113952, Note_on_c, 1, 59, 90
3, 114016, Note_off_c, 1, 59, 100
3, 114048, Note_on_c, 1, 50, 90
3, 114112, Note_off_c, 1, 50, 100
3, 114144, Note_on_c, 1, 59, 90
3, 114208, Note_off_c, 1, 59, 100
3, 114240, Note_on_c, 1, 54, 90
3, 114304, Note_off_c, 1, 54, 100
3, 114336, Note_on_c, 1, 59, 90
3, 114400, Note_off_c, 1, 59, 100
3, 114432, Note_on_c, 1, 52, 90
3, 114496, Note_off_c, 1, 52, 100
3, 114528, Note_on_c, 1, 61, 90
3, 114592, Note_off_c, 1, 61, 100
3, 114624, Note_on_c, 1, 57, 90
3, 114688, Note_off_c, 1, 57, 100
3, 114720, Note_on_c, 1, 61, 90
3, 114784, Note_off_c, 1, 61, 100
3, 114816, Note_on_c, 1, 52, 90
3, 114880, Note_off_c, 1, 52, 100
3, 114912, Note_on_c, 1, 62, 90
3, 114976, Note_off_c, 1, 62, 100
3, 115008, Note_on_c, 1, 56, 90
3, 115072, Note_off_c, 1, 56, 100
3, 115104, Note_on_c, 1, 62, 90
3, 115168, Note_off_c, 1, 62, 100
3, 115200, Note_on_c, 1, 57, 90
3, 115200, Note_on_c, 1, 61, 90
3, 115456, Note_off_c, 1, 57, 100
3, 115456, Note_off_c, 1, 61, 100
3, 115776, Note_on_c, 1, 56, 90
3, 115776, Note_on_c, 1, 59, 90
3, 115776, Note_on_c, 1, 52, 90
3, 115904, Note_off_c, 1, 56, 100
3, 115904, Note_off_c, 1, 59, 100
3, 115904, Note_off_c, 1, 52, 100
3, 115968, Note_on_c, 1, 57, 90
3, 115968, Note_on_c, 1, 61, 90
3, 116224, Note_off_c, 1, 57, 100
3, 116224, Note_off_c, 1, 61, 100
3, 116544, Note_on_c, 1, 59, 90
3, 116544, Note_on_c, 1, 52, 90
3, 116544, Note_on_c, 1, 56, 90
3, 116672, Note_off_c, 1, 59, 100
3, 116672, Note_off_c, 1, 52, 100
3, 116672, Note_off_c, 1, 56, 100
3, 116736, Note_on_c, 1, 61, 90
3, 116736, Note_on_c, 1, 57, 90
3, 116992, Note_off_c, 1, 61, 100
3, 116992, Note_off_c, 1, 57, 100
3, 117120, Note_on_c, 1, 52, 99
3, 117120, Note_on_c, 1, 40, 99
3, 117376, Note_off_c, 1, 52, 100
3, 117376, Note_off_c, 1, 40, 100
3, 117504, Note_on_c, 1, 42, 99
3, 117504, Note_on_c, 1, 54, 99
3, 117760, Note_off_c, 1, 42, 100
3, 117760, Note_off_c, 1, 54, 100
3, 118272, Note_on_c, 1, 50, 60
3, 118784, Note_off_c, 1, 50, 100
3, 119040, Note_on_c, 1, 52, 60
3, 119552, Note_off_c, 1, 52, 100
3, 119808, Note_on_c, 1, 57, 60
3, 120064, Note_off_c, 1, 57, 100
3, 120192, Note_on_c, 1, 52, 60
3, 120448, Note_off_c, 1, 52, 100
3, 120576, Note_on_c, 1, 45, 60
3, 120832, Note_off_c, 1, 45, 100
3, 122880, Note_on_c, 1, 59, 90
3, 122880, Note_on_c, 1, 47, 90
3, 123908, Note_off_c, 1, 59, 100
3, 123908, Note_off_c, 1, 47, 100
3, 125952, Note_on_c, 1, 47, 60
3, 126080, Note_off_c, 1, 47, 100
3, 126144, Note_on_c, 1, 45, 60
3, 126272, Note_off_c, 1, 45, 100
3, 126336, Note_on_c, 1, 45, 60
3, 126464, Note_off_c, 1, 45, 100
3, 126528, Note_on_c, 1, 43, 60
3, 126656, Note_off_c, 1, 43, 100
3, 126720, Note_on_c, 1, 43, 60
3, 126848, Note_off_c, 1, 43, 100
3, 126912, Note_on_c, 1, 42, 60
3, 127040, Note_off_c, 1, 42, 100
3, 127104, Note_on_c, 1, 42, 60
3, 127232, Note_off_c, 1, 42, 100
3, 127296, Note_on_c, 1, 40, 60
3, 127424, Note_off_c, 1, 40, 100
3, 129024, Note_on_c, 1, 57, 90
3, 129024, Note_on_c, 1, 45, 90
3, 130052, Note_off_c, 1, 57, 100
3, 130052, Note_off_c, 1, 45, 100
3, 132096, Note_on_c, 1, 45, 60
3, 132224, Note_off_c, 1, 45, 100
3, 132288, Note_on_c, 1, 43, 60
3, 132416, Note_off_c, 1, 43, 100
3, 132480, Note_on_c, 1, 43, 60
3, 132608, Note_off_c, 1, 43, 100
3, 132672, Note_on_c, 1, 42, 60
3, 132800, Note_off_c, 1, 42, 100
3, 132864, Note_on_c, 1, 42, 60
3, 132992, Note_off_c, 1, 42, 100
3, 133056, Note_on_c, 1, 40, 60
3, 133184, Note_off_c, 1, 40, 100
3, 133248, Note_on_c, 1, 40, 75
3, 133376, Note_off_c, 1, 40, 100
3, 133440, Note_on_c, 1, 38, 75
3, 133568, Note_off_c, 1, 38, 100
3, 133632, Note_on_c, 1, 62, 90
3, 133760, Note_off_c, 1, 62, 100
3, 133824, Note_on_c, 1, 61, 90
3, 133952, Note_off_c, 1, 61, 100
3, 134016, Note_on_c, 1, 61, 90
3, 134144, Note_off_c, 1, 61, 100
3, 134208, Note_on_c, 1, 59, 90
3, 134336, Note_off_c, 1, 59, 100
3, 134400, Note_on_c, 1, 59, 90
3, 134528, Note_off_c, 1, 59, 100
3, 134592, Note_on_c, 1, 57, 90
3, 134720, Note_off_c, 1, 57, 100
3, 134784, Note_on_c, 1, 57, 90
3, 134912, Note_off_c, 1, 57, 100
3, 134976, Note_on_c, 1, 56, 90
3, 135104, Note_off_c, 1, 56, 100
3, 135168, Note_on_c, 1, 56, 90
3, 135168, Note_on_c, 1, 44, 90
3, 135680, Note_off_c, 1, 56, 100
3, 135680, Note_off_c, 1, 44, 100
3, 135936, Note_on_c, 1, 58, 90
3, 135936, Note_on_c, 1, 46, 90
3, 136448, Note_off_c, 1, 58, 100
3, 136448, Note_off_c, 1, 46, 100
3, 136704, Note_on_c, 1, 59, 90
3, 136832, Note_off_c, 1, 59, 100
3, 136896, Note_on_c, 1, 57, 90
3, 137024, Note_off_c, 1, 57, 100
3, 137088, Note_on_c, 1, 57, 90
3, 137216, Note_off_c, 1, 57, 100
3, 137280, Note_on_c, 1, 55, 90
3, 137408, Note_off_c, 1, 55, 100
3, 137472, Note_on_c, 1, 55, 90
3, 137600, Note_off_c, 1, 55, 100
3, 137664, Note_on_c, 1, 54, 90
3, 137792, Note_off_c, 1, 54, 100
3, 137856, Note_on_c, 1, 54, 90
3, 137984, Note_off_c, 1, 54, 100
3, 138048, Note_on_c, 1, 53, 90
3, 138176, Note_off_c, 1, 53, 100
3, 138240, Note_on_c, 1, 53, 90
3, 138240, Note_on_c, 1, 41, 90
3, 138752, Note_off_c, 1, 53, 100
3, 138752, Note_off_c, 1, 41, 100
3, 139008, Note_on_c, 1, 54, 90
3, 139008, Note_on_c, 1, 42, 90
3, 139520, Note_off_c, 1, 54, 100
3, 139520, Note_off_c, 1, 42, 100
3, 139776, Note_on_c, 1, 55, 90
3, 139840, Note_off_c, 1, 55, 100
3, 139872, Note_on_c, 1, 62, 90
3, 139936, Note_off_c, 1, 62, 100
3, 139968, Note_on_c, 1, 59, 90
3, 140032, Note_off_c, 1, 59, 100
3, 140064, Note_on_c, 1, 62, 90
3, 140128, Note_off_c, 1, 62, 100
3, 140160, Note_on_c, 1, 55, 90
3, 140224, Note_off_c, 1, 55, 100
3, 140256, Note_on_c, 1, 62, 90
3, 140320, Note_off_c, 1, 62, 100
3, 140352, Note_on_c, 1, 59, 90
3, 140416, Note_off_c, 1, 59, 100
3, 140448, Note_on_c, 1, 62, 90
3, 140512, Note_off_c, 1, 62, 100
3, 140544, Note_on_c, 1, 55, 90
3, 140608, Note_off_c, 1, 55, 100
3, 140640, Note_on_c, 1, 62, 90
3, 140704, Note_off_c, 1, 62, 100
3, 140736, Note_on_c, 1, 59, 90
3, 140800, Note_off_c, 1, 59, 100
3, 140832, Note_on_c, 1, 62, 90
3, 140896, Note_off_c, 1, 62, 100
3, 140928, Note_on_c, 1, 55, 90
3, 140992, Note_off_c, 1, 55, 100
3, 141024, Note_on_c, 1, 62, 90
3, 141088, Note_off_c, 1, 62, 100
3, 141120, Note_on_c, 1, 59, 90
3, 141184, Note_off_c, 1, 59, 100
3, 141216, Note_on_c, 1, 62, 90
3, 141280, Note_off_c, 1, 62, 100
3, 141312, Note_on_c, 1, 54, 90
3, 141376, Note_off_c, 1, 54, 100
3, 141408, Note_on_c, 1, 61, 90
3, 141472, Note_off_c, 1, 61, 100
3, 141504, Note_on_c, 1, 58, 90
3, 141568, Note_off_c, 1, 58, 100
3, 141600, Note_on_c, 1, 61, 90
3, 141664, Note_off_c, 1, 61, 100
3, 141696, Note_on_c, 1, 54, 90
3, 141760, Note_off_c, 1, 54, 100
3, 141792, Note_on_c, 1, 61, 90
3, 141856, Note_off_c, 1, 61, 100
3, 141888, Note_on_c, 1, 58, 90
3, 141952, Note_off_c, 1, 58, 100
3, 141984, Note_on_c, 1, 61, 90
3, 142048, Note_off_c, 1, 61, 100
3, 142080, Note_on_c, 1, 53, 90
3, 142144, Note_off_c, 1, 53, 100
3, 142176, Note_on_c, 1, 61, 90
3, 142240, Note_off_c, 1, 61, 100
3, 142272, Note_on_c, 1, 56, 90
3, 142336, Note_off_c, 1, 56, 100
3, 142368, Note_on_c, 1, 61, 90
3, 142432, Note_off_c, 1, 61, 100
3, 142464, Note_on_c, 1, 53, 75
3, 142528, Note_off_c, 1, 53, 100
3, 142560, Note_on_c, 1, 61, 75
3, 142624, Note_off_c, 1, 61, 100
3, 142656, Note_on_c, 1, 56, 75
3, 142720, Note_off_c, 1, 56, 100
3, 142752, Note_on_c, 1, 61, 75
3, 142816, Note_off_c, 1, 61, 100
3, 142848, Note_on_c, 1, 54, 60
3, 143360, Note_off_c, 1, 54, 100
3, 143616, Note_on_c, 1, 42, 60
3, 144128, Note_off_c, 1, 42, 100
3, 144384, Note_on_c, 1, 47, 82
3, 144640, Note_off_c, 1, 47, 100
3, 144768, Note_on_c, 1, 42, 60
3, 145024, Note_off_c, 1, 42, 100
3, 145152, Note_on_c, 1, 35, 60
3, 145408, Note_off_c, 1, 35, 100
3, 145920, Note_on_c, 1, 59, 88
3, 145920, Note_on_c, 1, 47, 63
3, 146432, Note_off_c, 1, 59, 100
3, 146432, Note_off_c, 1, 47, 100
3, 146688, Note_on_c, 1, 57, 90
3, 146688, Note_on_c, 1, 45, 90
3, 146944, Note_off_c, 1, 57, 100
3, 146944, Note_off_c, 1, 45, 100
3, 147456, Note_on_c, 1, 55, 60
3, 147456, Note_on_c, 1, 43, 60
3, 147968, Note_off_c, 1, 55, 100
3, 147968, Note_off_c, 1, 43, 100
3, 148224, Note_on_c, 1, 54, 60
3, 148224, Note_on_c, 1, 42, 60
3, 148480, Note_off_c, 1, 54, 100
3, 148480, Note_off_c, 1, 42, 100
3, 153600, Note_on_c, 1, 49, 60
3, 153664, Note_off_c, 1, 49, 100
3, 153696, Note_on_c, 1, 57, 60
3, 153760, Note_off_c, 1, 57, 100
3, 153792, Note_on_c, 1, 52, 60
3, 153856, Note_off_c, 1, 52, 100
3, 153888, Note_on_c, 1, 57, 60
3, 153952, Note_off_c, 1, 57, 100
3, 153984, Note_on_c, 1, 49, 60
3, 154048, Note_off_c, 1, 49, 100
3, 154080, Note_on_c, 1, 57, 60
3, 154144, Note_off_c, 1, 57, 100
3, 154176, Note_on_c, 1, 52, 60
3, 154240, Note_off_c, 1, 52, 100
3, 154272, Note_on_c, 1, 57, 60
3, 154336, Note_off_c, 1, 57, 100
3, 154368, Note_on_c, 1, 50, 60
3, 154432, Note_off_c, 1, 50, 100
3, 154464, Note_on_c, 1, 59, 60
3, 154528, Note_off_c, 1, 59, 100
3, 154560, Note_on_c, 1, 55, 60
3, 154624, Note_off_c, 1, 55, 100
3, 154656, Note_on_c, 1, 59, 60
3, 154720, Note_off_c, 1, 59, 100
3, 154752, Note_on_c, 1, 50, 60
3, 154816, Note_off_c, 1, 50, 100
3, 154848, Note_on_c, 1, 61, 60
3, 154912, Note_off_c, 1, 61, 100
3, 154944, Note_on_c, 1, 54, 60
3, 155008, Note_off_c, 1, 54, 100
3, 155040, Note_on_c, 1, 61, 60
3, 155104, Note_off_c, 1, 61, 100
3, 155136, Note_on_c, 1, 55, 90
3, 155200, Note_off_c, 1, 55, 100
3, 155232, Note_on_c, 1, 62, 90
3, 155296, Note_off_c, 1, 62, 100
3, 155328, Note_on_c, 1, 59, 90
3, 155392, Note_off_c, 1, 59, 100
3, 155424, Note_on_c, 1, 62, 90
3, 155488, Note_off_c, 1, 62, 100
3, 159744, Note_on_c, 1, 48, 60
3, 159808, Note_off_c, 1, 48, 100
3, 159840, Note_on_c, 1, 57, 60
3, 159904, Note_off_c, 1, 57, 100
3, 159936, Note_on_c, 1, 52, 60
3, 160000, Note_off_c, 1, 52, 100
3, 160032, Note_on_c, 1, 57, 60
3, 160096, Note_off_c, 1, 57, 100
3, 160128, Note_on_c, 1, 48, 60
3, 160192, Note_off_c, 1, 48, 100
3, 160224, Note_on_c, 1, 57, 60
3, 160288, Note_off_c, 1, 57, 100
3, 160320, Note_on_c, 1, 52, 60
3, 160384, Note_off_c, 1, 52, 100
3, 160416, Note_on_c, 1, 57, 60
3, 160480, Note_off_c, 1, 57, 100
3, 160512, Note_on_c, 1, 50, 60
3, 160576, Note_off_c, 1, 50, 100
3, 160608, Note_on_c, 1, 59, 60
3, 160672, Note_off_c, 1, 59, 100
3, 160704, Note_on_c, 1, 55, 60
3, 160768, Note_off_c, 1, 55, 100
3, 160800, Note_on_c, 1, 59, 60
3, 160864, Note_off_c, 1, 59, 100
3, 160896, Note_on_c, 1, 50, 60
3, 160960, Note_off_c, 1, 50, 100
3, 160976, Note_on_c, 1, 60, 60
3, 161040, Note_off_c, 1, 60, 100
3, 161088, Note_on_c, 1, 54, 60
3, 161152, Note_off_c, 1, 54, 100
3, 161184, Note_on_c, 1, 60, 60
3, 161248, Note_off_c, 1, 60, 100
3, 161280, Note_on_c, 1, 55, 90
3, 161280, Note_on_c, 1, 59, 90
3, 161536, Note_off_c, 1, 55, 100
3, 161536, Note_off_c, 1, 59, 100
3, 161856, Note_on_c, 1, 54, 90
3, 161856, Note_on_c, 1, 62, 90
3, 161984, Note_off_c, 1, 54, 100
3, 161984, Note_off_c, 1, 62, 100
3, 162048, Note_on_c, 1, 55, 90
3, 162048, Note_on_c, 1, 59, 90
3, 162304, Note_off_c, 1, 55, 100
3, 162304, Note_off_c, 1, 59, 100
3, 162624, Note_on_c, 1, 54, 90
3, 162624, Note_on_c, 1, 62, 90
3, 162752, Note_off_c, 1, 54, 100
3, 162752, Note_off_c, 1, 62, 100
3, 162816, Note_on_c, 1, 55, 90
3, 162816, Note_on_c, 1, 62, 90
3, 163072, Note_off_c, 1, 55, 100
3, 163072, Note_off_c, 1, 62, 100
3, 163392, Note_on_c, 1, 62, 90
3, 163392, Note_on_c, 1, 54, 90
3, 163520, Note_off_c, 1, 62, 100
3, 163520, Note_off_c, 1, 54, 100
3, 163584, Note_on_c, 1, 62, 90
3, 163584, Note_on_c, 1, 55, 90
3, 163712, Note_off_c, 1, 62, 100
3, 163712, Note_off_c, 1, 55, 100
3, 163776, Note_on_c, 1, 62, 90
3, 163776, Note_on_c, 1, 54, 90
3, 163904, Note_off_c, 1, 62, 100
3, 163904, Note_off_c, 1, 54, 100
3, 163968, Note_on_c, 1, 62, 90
3, 163968, Note_on_c, 1, 55, 90
3, 164096, Note_off_c, 1, 62, 100
3, 164096, Note_off_c, 1, 55, 100
3, 164160, Note_on_c, 1, 55, 90
3, 164160, Note_on_c, 1, 52, 90
3, 164288, Note_off_c, 1, 55, 100
3, 164288, Note_off_c, 1, 52, 100
3, 164352, Note_on_c, 1, 57, 90
3, 164352, Note_on_c, 1, 54, 90
3, 164608, Note_off_c, 1, 57, 100
3, 164608, Note_off_c, 1, 54, 100
3, 164928, Note_on_c, 1, 57, 90
3, 164928, Note_on_c, 1, 49, 90
3, 165056, Note_off_c, 1, 57, 100
3, 165056, Note_off_c, 1, 49, 100
3, 165120, Note_on_c, 1, 57, 90
3, 165120, Note_on_c, 1, 50, 90
3, 165376, Note_off_c, 1, 57, 100
3, 165376, Note_off_c, 1, 50, 100
3, 165696, Note_on_c, 1, 57, 90
3, 165696, Note_on_c, 1, 49, 90
3, 165824, Note_off_c, 1, 57, 100
3, 165824, Note_off_c, 1, 49, 100
3, 165888, Note_on_c, 1, 57, 90
3, 165888, Note_on_c, 1, 50, 90
3, 166144, Note_off_c, 1, 57, 100
3, 166144, Note_off_c, 1, 50, 100
3, 166464, Note_on_c, 1, 59, 90
3, 166464, Note_on_c, 1, 51, 90
3, 166592, Note_off_c, 1, 59, 100
3, 166592, Note_off_c, 1, 51, 100
3, 166656, Note_on_c, 1, 59, 90
3, 166656, Note_on_c, 1, 52, 90
3, 166912, Note_off_c, 1, 59, 100
3, 166912, Note_off_c, 1, 52, 100
3, 167232, Note_on_c, 1, 59, 90
3, 167232, Note_on_c, 1, 51, 90
3, 167360, Note_off_c, 1, 59, 100
3, 167360, Note_off_c, 1, 51, 100
3, 167424, Note_on_c, 1, 59, 90
3, 167424, Note_on_c, 1, 52, 90
3, 167680, Note_off_c, 1, 59, 100
3, 167680, Note_off_c, 1, 52, 100
3, 168000, Note_on_c, 1, 61, 90
3, 168000, Note_on_c, 1, 52, 90
3, 168128, Note_off_c, 1, 61, 100
3, 168128, Note_off_c, 1, 52, 100
3, 168192, Note_on_c, 1, 54, 90
3, 168192, Note_on_c, 1, 62, 90
3, 168448, Note_off_c, 1, 54, 100
3, 168448, Note_off_c, 1, 62, 100
3, 168768, Note_on_c, 1, 61, 90
3, 168768, Note_on_c, 1, 52, 90
3, 168896, Note_off_c, 1, 61, 100
3, 168896, Note_off_c, 1, 52, 100
3, 168960, Note_on_c, 1, 62, 105
3, 168960, Note_on_c, 1, 54, 105
3, 169216, Note_off_c, 1, 62, 100
3, 169216, Note_off_c, 1, 54, 100
3, 171840, Note_on_c, 1, 58, 105
3, 171968, Note_off_c, 1, 58, 100
3, 172032, Note_on_c, 1, 59, 105
3, 172160, Note_off_c, 1, 59, 100
3, 172224, Note_on_c, 1, 58, 105
3, 172352, Note_off_c, 1, 58, 100
3, 172416, Note_on_c, 1, 59, 105
3, 172544, Note_off_c, 1, 59, 100
3, 172608, Note_on_c, 1, 60, 105
3, 172608, Note_on_c, 1, 57, 105
3, 172736, Note_off_c, 1, 60, 100
3, 172736, Note_off_c, 1, 57, 100
3, 172800, Note_on_c, 1, 59, 105
3, 172800, Note_on_c, 1, 55, 105
3, 173056, Note_off_c, 1, 59, 100
3, 173056, Note_off_c, 1, 55, 100
3, 173568, Note_on_c, 1, 55, 105
3, 173568, Note_on_c, 1, 64, 105
3, 173696, Note_off_c, 1, 55, 100
3, 173696, Note_off_c, 1, 64, 100
3, 173760, Note_on_c, 1, 55, 105
3, 173760, Note_on_c, 1, 64, 105
3, 173888, Note_off_c, 1, 55, 100
3, 173888, Note_off_c, 1, 64, 100
3, 173952, Note_on_c, 1, 55, 105
3, 173952, Note_on_c, 1, 64, 105
3, 174080, Note_off_c, 1, 55, 100
3, 174080, Note_off_c, 1, 64, 100
3, 174144, Note_on_c, 1, 55, 105
3, 174144, Note_on_c, 1, 64, 105
3, 174272, Note_off_c, 1, 55, 100
3, 174272, Note_off_c, 1, 64, 100
3, 174336, Note_on_c, 1, 64, 105
3, 174336, Note_on_c, 1, 55, 105
3, 174464, Note_off_c, 1, 64, 100
3, 174464, Note_off_c, 1, 55, 100
3, 174528, Note_on_c, 1, 64, 105
3, 174528, Note_on_c, 1, 55, 105
3, 174656, Note_off_c, 1, 64, 100
3, 174656, Note_off_c, 1, 55, 100
3, 174720, Note_on_c, 1, 56, 102
3, 174720, Note_on_c, 1, 64, 99
3, 174848, Note_off_c, 1, 56, 100
3, 174848, Note_off_c, 1, 64, 100
3, 174912, Note_on_c, 1, 64, 96
3, 174912, Note_on_c, 1, 56, 93
3, 175040, Note_off_c, 1, 64, 100
3, 175040, Note_off_c, 1, 56, 100
3, 175104, Note_on_c, 1, 57, 90
3, 175232, Note_off_c, 1, 57, 100
3, 175296, Note_on_c, 1, 55, 90
3, 175424, Note_off_c, 1, 55, 100
3, 175488, Note_on_c, 1, 54, 90
3, 175616, Note_off_c, 1, 54, 100
3, 175680, Note_on_c, 1, 50, 90
3, 175808, Note_off_c, 1, 50, 100
3, 175872, Note_on_c, 1, 49, 90
3, 176000, Note_off_c, 1, 49, 100
3, 176064, Note_on_c, 1, 45, 90
3, 176192, Note_off_c, 1, 45, 100
3, 176256, Note_on_c, 1, 50, 90
3, 176384, Note_off_c, 1, 50, 100
3, 176448, Note_on_c, 1, 54, 90
3, 176576, Note_off_c, 1, 54, 100
3, 176640, Note_on_c, 1, 57, 90
3, 176768, Note_off_c, 1, 57, 100
3, 176832, Note_on_c, 1, 55, 90
3, 176960, Note_off_c, 1, 55, 100
3, 177024, Note_on_c, 1, 54, 90
3, 177152, Note_off_c, 1, 54, 100
3, 177216, Note_on_c, 1, 50, 90
3, 177344, Note_off_c, 1, 50, 100
3, 177408, Note_on_c, 1, 49, 90
3, 177536, Note_off_c, 1, 49, 100
3, 177600, Note_on_c, 1, 45, 90
3, 177728, Note_off_c, 1, 45, 100
3, 177792, Note_on_c, 1, 50, 90
3, 177920, Note_off_c, 1, 50, 100
3, 177984, Note_on_c, 1, 54, 90
3, 178112, Note_off_c, 1, 54, 100
3, 178176, Note_on_c, 1, 57, 90
3, 178176, Note_on_c, 1, 52, 90
3, 178176, Note_on_c, 1, 45, 90
3, 178432, Note_off_c, 1, 57, 100
3, 178432, Note_off_c, 1, 52, 100
3, 178432, Note_off_c, 1, 45, 100
3, 178560, Note_on_c, 1, 57, 90
3, 178560, Note_on_c, 1, 54, 90
3, 178560, Note_on_c, 1, 50, 90
3, 178816, Note_off_c, 1, 57, 100
3, 178816, Note_off_c, 1, 54, 100
3, 178816, Note_off_c, 1, 50, 100
3, 178944, Note_on_c, 1, 57, 90
3, 178944, Note_on_c, 1, 45, 90
3, 178944, Note_on_c, 1, 52, 90
3, 179200, Note_off_c, 1, 57, 100
3, 179200, Note_off_c, 1, 45, 100
3, 179200, Note_off_c, 1, 52, 100
3, 179328, Note_on_c, 1, 57, 90
3, 179328, Note_on_c, 1, 54, 90
3, 179328, Note_on_c, 1, 50, 90
3, 179584, Note_off_c, 1, 57, 100
3, 179584, Note_off_c, 1, 54, 100
3, 179584, Note_off_c, 1, 50, 100
3, 179904, Note_on_c, 1, 57, 90
3, 179904, Note_on_c, 1, 52, 90
3, 179904, Note_on_c, 1, 49, 90
3, 179904, Note_on_c, 1, 45, 90
3, 180032, Note_off_c, 1, 57, 100
3, 180032, Note_off_c, 1, 52, 100
3, 180032, Note_off_c, 1, 49, 100
3, 180032, Note_off_c, 1, 45, 100
3, 180096, Note_on_c, 1, 52, 90
3, 180096, Note_on_c, 1, 45, 90
3, 180096, Note_on_c, 1, 57, 90
3, 180096, Note_on_c, 1, 49, 90
3, 180224, Note_off_c, 1, 52, 100
3, 180224, Note_off_c, 1, 45, 100
3, 180224, Note_off_c, 1, 57, 100
3, 180224, Note_off_c, 1, 49, 100
3, 180288, Note_on_c, 1, 45, 90
3, 180288, Note_on_c, 1, 57, 90
3, 180288, Note_on_c, 1, 49, 90
3, 180288, Note_on_c, 1, 52, 90
3, 180416, Note_off_c, 1, 45, 100
3, 180416, Note_off_c, 1, 57, 100
3, 180416, Note_off_c, 1, 49, 100
3, 180416, Note_off_c, 1, 52, 100
3, 180480, Note_on_c, 1, 49, 90
3, 180480, Note_on_c, 1, 52, 90
3, 180480, Note_on_c, 1, 45, 90
3, 180480, Note_on_c, 1, 57, 90
3, 180608, Note_off_c, 1, 49, 100
3, 180608, Note_off_c, 1, 52, 100
3, 180608, Note_off_c, 1, 45, 100
3, 180608, Note_off_c, 1, 57, 100
3, 192960, Note_on_c, 1, 55, 90
3, 192960, Note_on_c, 1, 43, 90
3, 193088, Note_off_c, 1, 55, 100
3, 193088, Note_off_c, 1, 43, 100
3, 193152, Note_on_c, 1, 54, 90
3, 193152, Note_on_c, 1, 42, 90
3, 193280, Note_off_c, 1, 54, 100
3, 193280, Note_off_c, 1, 42, 100
3, 193344, Note_on_c, 1, 52, 90
3, 193344, Note_on_c, 1, 40, 90
3, 193472, Note_off_c, 1, 52, 100
3, 193472, Note_off_c, 1, 40, 100
3, 193536, Note_on_c, 1, 50, 90
3, 193536, Note_on_c, 1, 38, 90
3, 193792, Note_off_c, 1, 50, 100
3, 193792, Note_off_c, 1, 38, 100
3, 198720, Note_on_c, 1, 50, 90
3, 198848, Note_off_c, 1, 50, 100
3, 198912, Note_on_c, 1, 52, 90
3, 199040, Note_off_c, 1, 52, 100
3, 199104, Note_on_c, 1, 50, 90
3, 199232, Note_off_c, 1, 50, 100
3, 199296, Note_on_c, 1, 49, 90
3, 199424, Note_off_c, 1, 49, 100
3, 199488, Note_on_c, 1, 45, 90
3, 199616, Note_off_c, 1, 45, 100
3, 199680, Note_on_c, 1, 50, 60
3, 199936, Note_off_c, 1, 50, 100
3, 204288, Note_on_c, 1, 55, 90
3, 204352, Note_off_c, 1, 55, 100
3, 204384, Note_on_c, 1, 64, 90
3, 204448, Note_off_c, 1, 64, 100
3, 204480, Note_on_c, 1, 59, 90
3, 204544, Note_off_c, 1, 59, 100
3, 204576, Note_on_c, 1, 64, 90
3, 204640, Note_off_c, 1, 64, 100
3, 204672, Note_on_c, 1, 55, 90
3, 204736, Note_off_c, 1, 55, 100
3, 204768, Note_on_c, 1, 64, 90
3, 204832, Note_off_c, 1, 64, 100
3, 204864, Note_on_c, 1, 59, 90
3, 204928, Note_off_c, 1, 59, 100
3, 204960, Note_on_c, 1, 64, 90
3, 205024, Note_off_c, 1, 64, 100
3, 205056, Note_on_c, 1, 57, 90
3, 205120, Note_off_c, 1, 57, 100
3, 205152, Note_on_c, 1, 66, 90
3, 205216, Note_off_c, 1, 66, 100
3, 205248, Note_on_c, 1, 62, 90
3, 205312, Note_off_c, 1, 62, 100
3, 205344, Note_on_c, 1, 66, 90
3, 205408, Note_off_c, 1, 66, 100
3, 205440, Note_on_c, 1, 57, 90
3, 205504, Note_off_c, 1, 57, 100
3, 205536, Note_on_c, 1, 67, 90
3, 205600, Note_off_c, 1, 67, 100
3, 205632, Note_on_c, 1, 61, 90
3, 205696, Note_off_c, 1, 61, 100
3, 205728, Note_on_c, 1, 67, 90
3, 205792, Note_off_c, 1, 67, 100
3, 205824, Note_on_c, 1, 62, 60
3, 205888, Note_off_c, 1, 62, 100
3, 205920, Note_on_c, 1, 66, 60
3, 205984, Note_off_c, 1, 66, 100
3, 206016, Note_on_c, 1, 62, 60
3, 206080, Note_off_c, 1, 62, 100
3, 206112, Note_on_c, 1, 66, 60
3, 206176, Note_off_c, 1, 66, 100
3, 206208, Note_on_c, 1, 54, 60
3, 206272, Note_off_c, 1, 54, 100
3, 206304, Note_on_c, 1, 62, 60
3, 206368, Note_off_c, 1, 62, 100
3, 206400, Note_on_c, 1, 54, 60
3, 206464, Note_off_c, 1, 54, 100
3, 206496, Note_on_c, 1, 62, 60
3, 206560, Note_off_c, 1, 62, 100
3, 206592, Note_on_c, 1, 52, 60
3, 206656, Note_off_c, 1, 52, 100
3, 206688, Note_on_c, 1, 62, 60
3, 206752, Note_off_c, 1, 62, 100
3, 206784, Note_on_c, 1, 52, 60
3, 206848, Note_off_c, 1, 52, 100
3, 206880, Note_on_c, 1, 62, 60
3, 206944, Note_off_c, 1, 62, 100
3, 206976, Note_on_c, 1, 50, 60
3, 207040, Note_off_c, 1, 50, 100
3, 207072, Note_on_c, 1, 62, 60
3, 207136, Note_off_c, 1, 62, 100
3, 207168, Note_on_c, 1, 50, 60
3, 207232, Note_off_c, 1, 50, 100
3, 207264, Note_on_c, 1, 62, 60
3, 207328, Note_off_c, 1, 62, 100
3, 207360, Note_on_c, 1, 55, 60
3, 207424, Note_off_c, 1, 55, 100
3, 207456, Note_on_c, 1, 62, 60
3, 207520, Note_off_c, 1, 62, 100
3, 207552, Note_on_c, 1, 61, 60
3, 207616, Note_off_c, 1, 61, 100
3, 207648, Note_on_c, 1, 62, 60
3, 207712, Note_off_c, 1, 62, 100
3, 207744, Note_on_c, 1, 55, 60
3, 207808, Note_off_c, 1, 55, 100
3, 207840, Note_on_c, 1, 62, 60
3, 207904, Note_off_c, 1, 62, 100
3, 207936, Note_on_c, 1, 61, 60
3, 208000, Note_off_c, 1, 61, 100
3, 208032, Note_on_c, 1, 62, 60
3, 208096, Note_off_c, 1, 62, 100
3, 208128, Note_on_c, 1, 55, 60
3, 208192, Note_off_c, 1, 55, 100
3, 208224, Note_on_c, 1, 62, 60
3, 208288, Note_off_c, 1, 62, 100
3, 208320, Note_on_c, 1, 61, 60
3, 208384, Note_off_c, 1, 61, 100
3, 208416, Note_on_c, 1, 62, 60
3, 208480, Note_off_c, 1, 62, 100
3, 208512, Note_on_c, 1, 55, 60
3, 208576, Note_off_c, 1, 55, 100
3, 208608, Note_on_c, 1, 62, 60
3, 208672, Note_off_c, 1, 62, 100
3, 208704, Note_on_c, 1, 61, 60
3, 208768, Note_off_c, 1, 61, 100
3, 208800, Note_on_c, 1, 62, 60
3, 208864, Note_off_c, 1, 62, 100
3, 208896, Note_on_c, 1, 54, 90
3, 208960, Note_off_c, 1, 54, 100
3, 208992, Note_on_c, 1, 62, 90
3, 209056, Note_off_c, 1, 62, 100
3, 209088, Note_on_c, 1, 61, 90
3, 209152, Note_off_c, 1, 61, 100
3, 209184, Note_on_c, 1, 62, 90
3, 209248, Note_off_c, 1, 62, 100
3, 209280, Note_on_c, 1, 42, 90
3, 209344, Note_off_c, 1, 42, 100
3, 209376, Note_on_c, 1, 50, 90
3, 209440, Note_off_c, 1, 50, 100
3, 209472, Note_on_c, 1, 42, 90
3, 209536, Note_off_c, 1, 42, 100
3, 209568, Note_on_c, 1, 50, 90
3, 209632, Note_off_c, 1, 50, 100
3, 209664, Note_on_c, 1, 40, 90
3, 209728, Note_off_c, 1, 40, 100
3, 209760, Note_on_c, 1, 50, 90
3, 209824, Note_off_c, 1, 50, 100
3, 209856, Note_on_c, 1, 40, 90
3, 209920, Note_off_c, 1, 40, 100
3, 209952, Note_on_c, 1, 50, 90
3, 210016, Note_off_c, 1, 50, 100
3, 210048, Note_on_c, 1, 38, 90
3, 210112, Note_off_c, 1, 38, 100
3, 210144, Note_on_c, 1, 50, 90
3, 210208, Note_off_c, 1, 50, 100
3, 210240, Note_on_c, 1, 38, 90
3, 210304, Note_off_c, 1, 38, 100
3, 210336, Note_on_c, 1, 50, 90
3, 210400, Note_off_c, 1, 50, 100
3, 210432, Note_on_c, 1, 43, 90
3, 210496, Note_off_c, 1, 43, 100
3, 210528, Note_on_c, 1, 52, 90
3, 210592, Note_off_c, 1, 52, 100
3, 210624, Note_on_c, 1, 47, 90
3, 210688, Note_off_c, 1, 47, 100
3, 210720, Note_on_c, 1, 52, 90
3, 210784, Note_off_c, 1, 52, 100
3, 210816, Note_on_c, 1, 43, 90
3, 210880, Note_off_c, 1, 43, 100
3, 210912, Note_on_c, 1, 52, 90
3, 210976, Note_off_c, 1, 52, 100
3, 211008, Note_on_c, 1, 47, 90
3, 211072, Note_off_c, 1, 47, 100
3, 211104, Note_on_c, 1, 52, 90
3, 211168, Note_off_c, 1, 52, 100
3, 211200, Note_on_c, 1, 45, 90
3, 211264, Note_off_c, 1, 45, 100
3, 211296, Note_on_c, 1, 54, 90
3, 211360, Note_off_c, 1, 54, 100
3, 211392, Note_on_c, 1, 50, 90
3, 211456, Note_off_c, 1, 50, 100
3, 211488, Note_on_c, 1, 54, 90
3, 211552, Note_off_c, 1, 54, 100
3, 211584, Note_on_c, 1, 45, 90
3, 211648, Note_off_c, 1, 45, 100
3, 211680, Note_on_c, 1, 55, 90
3, 211744, Note_off_c, 1, 55, 100
3, 211776, Note_on_c, 1, 49, 90
3, 211840, Note_off_c, 1, 49, 100
3, 211872, Note_on_c, 1, 55, 90
3, 211936, Note_off_c, 1, 55, 100
3, 211968, Note_on_c, 1, 38, 90
3, 211968, Note_on_c, 1, 50, 90
3, 212224, Note_off_c, 1, 38, 100
3, 212224, Note_off_c, 1, 50, 100
3, 215040, Note_on_c, 1, 54, 60
3, 215168, Note_off_c, 1, 54, 100
3, 215232, Note_on_c, 1, 62, 60
3, 215360, Note_off_c, 1, 62, 100
3, 215424, Note_on_c, 1, 50, 60
3, 215552, Note_off_c, 1, 50, 100
3, 215616, Note_on_c, 1, 62, 60
3, 215744, Note_off_c, 1, 62, 100
3, 215808, Note_on_c, 1, 52, 60
3, 215936, Note_off_c, 1, 52, 100
3, 216000, Note_on_c, 1, 62, 60
3, 216128, Note_off_c, 1, 62, 100
3, 216192, Note_on_c, 1, 59, 60
3, 216320, Note_off_c, 1, 59, 100
3, 216384, Note_on_c, 1, 61, 60
3, 216512, Note_off_c, 1, 61, 100
3, 216576, Note_on_c, 1, 62, 60
3, 216576, Note_on_c, 1, 50, 60
3, 216832, Note_off_c, 1, 62, 100
3, 216832, Note_off_c, 1, 50, 100
3, 219648, Note_on_c, 1, 54, 60
3, 219776, Note_off_c, 1, 54, 100
3, 219840, Note_on_c, 1, 62, 60
3, 219968, Note_off_c, 1, 62, 100
3, 220032, Note_on_c, 1, 50, 60
3, 220160, Note_off_c, 1, 50, 100
3, 220224, Note_on_c, 1, 62, 60
3, 220352, Note_off_c, 1, 62, 100
3, 220416, Note_on_c, 1, 52, 60
3, 220544, Note_off_c, 1, 52, 100
3, 220608, Note_on_c, 1, 62, 60
3, 220736, Note_off_c, 1, 62, 100
3, 220800, Note_on_c, 1, 57, 60
3, 220928, Note_off_c, 1, 57, 100
3, 220992, Note_on_c, 1, 61, 60
3, 221120, Note_off_c, 1, 61, 100
3, 221184, Note_on_c, 1, 54, 90
3, 221248, Note_off_c, 1, 54, 100
3, 221280, Note_on_c, 1, 62, 90
3, 221344, Note_off_c, 1, 62, 100
3, 221376, Note_on_c, 1, 57, 90
3, 221440, Note_off_c, 1, 57, 100
3, 221472, Note_on_c, 1, 62, 90
3, 221536, Note_off_c, 1, 62, 100
3, 221568, Note_on_c, 1, 54, 90
3, 221632, Note_off_c, 1, 54, 100
3, 221664, Note_on_c, 1, 62, 90
3, 221728, Note_off_c, 1, 62, 100
3, 221760, Note_on_c, 1, 57, 90
3, 221824, Note_off_c, 1, 57, 100
3, 221856, Note_on_c, 1, 62, 90
3, 221920, Note_off_c, 1, 62, 100
3, 221952, Note_on_c, 1, 55, 90
3, 222016, Note_off_c, 1, 55, 100
3, 222048, Note_on_c, 1, 62, 90
3, 222112, Note_off_c, 1, 62, 100
3, 222144, Note_on_c, 1, 59, 90
3, 222208, Note_off_c, 1, 59, 100
3, 222240, Note_on_c, 1, 62, 90
3, 222304, Note_off_c, 1, 62, 100
3, 222336, Note_on_c, 1, 55, 90
3, 222400, Note_off_c, 1, 55, 100
3, 222432, Note_on_c, 1, 62, 90
3, 222496, Note_off_c, 1, 62, 100
3, 222528, Note_on_c, 1, 59, 90
3, 222592, Note_off_c, 1, 59, 100
3, 222624, Note_on_c, 1, 62, 90
3, 222688, Note_off_c, 1, 62, 100
3, 222720, Note_on_c, 1, 57, 90
3, 222784, Note_off_c, 1, 57, 100
3, 222816, Note_on_c, 1, 66, 90
3, 222880, Note_off_c, 1, 66, 100
3, 222912, Note_on_c, 1, 62, 90
3, 222976, Note_off_c, 1, 62, 100
3, 223008, Note_on_c, 1, 66, 90
3, 223072, Note_off_c, 1, 66, 100
3, 223104, Note_on_c, 1, 57, 90
3, 223168, Note_off_c, 1, 57, 100
3, 223200, Note_on_c, 1, 66, 90
3, 223264, Note_off_c, 1, 66, 100
3, 223296, Note_on_c, 1, 62, 90
3, 223360, Note_off_c, 1, 62, 100
3, 223392, Note_on_c, 1, 66, 90
3, 223456, Note_off_c, 1, 66, 100
3, 223488, Note_on_c, 1, 57, 90
3, 223552, Note_off_c, 1, 57, 100
3, 223584, Note_on_c, 1, 67, 90
3, 223648, Note_off_c, 1, 67, 100
3, 223680, Note_on_c, 1, 64, 90
3, 223744, Note_off_c, 1, 64, 100
3, 223776, Note_on_c, 1, 67, 90
3, 223840, Note_off_c, 1, 67, 100
3, 223872, Note_on_c, 1, 57, 90
3, 223936, Note_off_c, 1, 57, 100
3, 223968, Note_on_c, 1, 67, 90
3, 224032, Note_off_c, 1, 67, 100
3, 224064, Note_on_c, 1, 64, 90
3, 224128, Note_off_c, 1, 64, 100
3, 224160, Note_on_c, 1, 67, 90
3, 224224, Note_off_c, 1, 67, 100
3, 224256, Note_on_c, 1, 54, 90
3, 224320, Note_off_c, 1, 54, 100
3, 224352, Note_on_c, 1, 62, 90
3, 224416, Note_off_c, 1, 62, 100
3, 224448, Note_on_c, 1, 57, 90
3, 224512, Note_off_c, 1, 57, 100
3, 224544, Note_on_c, 1, 62, 90
3, 224608, Note_off_c, 1, 62, 100
3, 224640, Note_on_c, 1, 54, 90
3, 224704, Note_off_c, 1, 54, 100
3, 224736, Note_on_c, 1, 62, 90
3, 224800, Note_off_c, 1, 62, 100
3, 224832, Note_on_c, 1, 57, 90
3, 224896, Note_off_c, 1, 57, 100
3, 224928, Note_on_c, 1, 62, 90
3, 224992, Note_off_c, 1, 62, 100
3, 225024, Note_on_c, 1, 55, 90
3, 225088, Note_off_c, 1, 55, 100
3, 225120, Note_on_c, 1, 62, 90
3, 225184, Note_off_c, 1, 62, 100
3, 225216, Note_on_c, 1, 59, 90
3, 225280, Note_off_c, 1, 59, 100
3, 225312, Note_on_c, 1, 62, 90
3, 225376, Note_off_c, 1, 62, 100
3, 225408, Note_on_c, 1, 55, 90
3, 225472, Note_off_c, 1, 55, 100
3, 225488, Note_on_c, 1, 62, 90
3, 225552, Note_off_c, 1, 62, 100
3, 225600, Note_on_c, 1, 59, 90
3, 225664, Note_off_c, 1, 59, 100
3, 225696, Note_on_c, 1, 62, 90
3, 225760, Note_off_c, 1, 62, 100
3, 225792, Note_on_c, 1, 57, 90
3, 225856, Note_off_c, 1, 57, 100
3, 225888, Note_on_c, 1, 62, 90
3, 225952, Note_off_c, 1, 62, 100
3, 225984, Note_on_c, 1, 61, 90
3, 226048, Note_off_c, 1, 61, 100
3, 226080, Note_on_c, 1, 62, 90
3, 226144, Note_off_c, 1, 62, 100
3, 226176, Note_on_c, 1, 57, 90
3, 226240, Note_off_c, 1, 57, 100
3, 226272, Note_on_c, 1, 66, 90
3, 226336, Note_off_c, 1, 66, 100
3, 226368, Note_on_c, 1, 62, 90
3, 226432, Note_off_c, 1, 62, 100
3, 226464, Note_on_c, 1, 66, 90
3, 226528, Note_off_c, 1, 66, 100
3, 226560, Note_on_c, 1, 57, 90
3, 226624, Note_off_c, 1, 57, 100
3, 226656, Note_on_c, 1, 67, 90
3, 226720, Note_off_c, 1, 67, 100
3, 226752, Note_on_c, 1, 64, 90
3, 226816, Note_off_c, 1, 64, 100
3, 226848, Note_on_c, 1, 67, 90
3, 226912, Note_off_c, 1, 67, 100
3, 226944, Note_on_c, 1, 57, 90
3, 227008, Note_off_c, 1, 57, 100
3, 227040, Note_on_c, 1, 67, 90
3, 227104, Note_off_c, 1, 67, 100
3, 227120, Note_on_c, 1, 64, 90
3, 227184, Note_off_c, 1, 64, 100
3, 227232, Note_on_c, 1, 67, 90
3, 227296, Note_off_c, 1, 67, 100
3, 227328, Note_on_c, 1, 62, 90
3, 227328, Note_on_c, 1, 66, 90
3, 227584, Note_off_c, 1, 62, 100
3, 227584, Note_off_c, 1, 66, 100
3, 227904, Note_on_c, 1, 64, 90
3, 227904, Note_on_c, 1, 57, 90
3, 227904, Note_on_c, 1, 61, 90
3, 228032, Note_off_c, 1, 64, 100
3, 228032, Note_off_c, 1, 57, 100
3, 228032, Note_off_c, 1, 61, 100
3, 228096, Note_on_c, 1, 66, 90
3, 228096, Note_on_c, 1, 62, 90
3, 228352, Note_off_c, 1, 66, 100
3, 228352, Note_off_c, 1, 62, 100
3, 228672, Note_on_c, 1, 64, 90
3, 228672, Note_on_c, 1, 61, 90
3, 228672, Note_on_c, 1, 57, 90
3, 228800, Note_off_c, 1, 64, 100
3, 228800, Note_off_c, 1, 61, 100
3, 228800, Note_off_c, 1, 57, 100
3, 228864, Note_on_c, 1, 62, 90
3, 228864, Note_on_c, 1, 66, 90
3, 229120, Note_off_c, 1, 62, 100
3, 229120, Note_off_c, 1, 66, 100
3, 229248, Note_on_c, 1, 46, 99
3, 229248, Note_on_c, 1, 58, 99
3, 229504, Note_off_c, 1, 46, 100
3, 229504, Note_off_c, 1, 58, 100
3, 229632, Note_on_c, 1, 59, 99
3, 229632, Note_on_c, 1, 47, 99
3, 229888, Note_off_c, 1, 59, 100
3, 229888, Note_off_c, 1, 47, 100
3, 230400, Note_on_c, 1, 55, 60
3, 230400, Note_on_c, 1, 43, 60
3, 230912, Note_off_c, 1, 55, 100
3, 230912, Note_off_c, 1, 43, 100
3, 231168, Note_on_c, 1, 57, 60
3, 231168, Note_on_c, 1, 45, 60
3, 231680, Note_off_c, 1, 57, 100
3, 231680, Note_off_c, 1, 45, 100
3, 231936, Note_on_c, 1, 50, 82
3, 232192, Note_off_c, 1, 50, 100
3, 232320, Note_on_c, 1, 45, 69
3, 232576, Note_off_c, 1, 45, 100
3, 232704, Note_on_c, 1, 38, 60
3, 232960, Note_off_c, 1, 38, 100
3, 232960, End_track
4, 0, Start_track
4, 0, Key_signature, 2, "major"
4, 0, End_track
5, 0, Start_track
5, 0, Key_signature, 2, "major"
5, 0, End_track
6, 0, Start_track
6, 0, Key_signature, 2, "major"
6, 0, End_track
7, 0, Start_track
7, 0, Key_signature, 2, "major"
7, 0, End_track
8, 0, Start_track
8, 0, Key_signature, 2, "major"
8, 0, End_track
9, 0, Start_track
9, 0, Key_signature, 2, "major"
9, 0, End_track
10, 0, Start_track
10, 0, Key_signature, 2, "major"
10, 0, End_track
11, 0, Start_track
11, 0, Key_signature, 2, "major"
11, 0, End_track
12, 0, Start_track
12, 0, Key_signature, 2, "major"
12, 0, End_track
13, 0, Start_track
13, 0, Key_signature, 2, "major"
13, 0, End_track
14, 0, Start_track
14, 0, Key_signature, 2, "major"
14, 0, End_track
15, 0, Start_track
15, 0, Key_signature, 2, "major"
15, 0, End_track
16, 0, Start_track
16, 0, Key_signature, 2, "major"
16, 0, End_track
0, 0, End_of_file
