0, 0, Header, 1, 18, 384
1, 0, Start_track
1, 0, Time_signature, 2, 2, 96, 8
1, 0, Sequencer_specific, 3, 0, 0, 65
1, 0, Tempo, 576923
1, 20736, Tempo, 666666
1, 21888, Tempo, 576923
1, 21888, End_track
2, 0, Start_track
2, 0, Title_t, "Mozart"
2, 0, Control_c, 0, 0, 0
2, 0, Program_c, 0, 0
2, 0, Control_c, 0, 7, 80
2, 0, Control_c, 0, 10, 53
2, 0, Control_c, 0, 91, 69
2, 0, Control_c, 0, 93, 62
2, 0, Key_signature, 0, "major"
2, 0, Control_c, 0, 121, 0
2, 96, Control_c, 0, 10, 73
2, 192, Control_c, 0, 91, 63
2, 240, Control_c, 0, 93, 40
2, 288, Program_c, 0, 0
2, 384, Note_on_c, 0, 79, 60
2, 384, Note_on_c, 0, 76, 60
2, 572, Note_off_c, 0, 79, 0
2, 572, Note_off_c, 0, 76, 0
2, 576, Note_on_c, 0, 79, 60
2, 576, Note_on_c, 0, 76, 60
2, 764, Note_off_c, 0, 79, 0
2, 764, Note_off_c, 0, 76, 0
2, 768, Note_on_c, 0, 76, 60
2, 768, Note_on_c, 0, 72, 60
2, 956, Note_off_c, 0, 76, 0
2, 956, Note_off_c, 0, 72, 0
2, 1152, Note_on_c, 0, 77, 60
2, 1152, Note_on_c, 0, 74, 60
2, 1340, Note_off_c, 0, 77, 0
2, 1340, Note_off_c, 0, 74, 0
2, 1344, Note_on_c, 0, 77, 60
2, 1344, Note_on_c, 0, 74, 60
2, 1532, Note_off_c, 0, 77, 0
2, 1532, Note_off_c, 0, 74, 0
2, 1536, Note_on_c, 0, 74, 60
2, 1536, Note_on_c, 0, 71, 60
2, 1724, Note_off_c, 0, 74, 0
2, 1724, Note_off_c, 0, 71, 0
2, 1920, Note_on_c, 0, 72, 60
2, 2012, Note_off_c, 0, 72, 0
2, 2016, Note_on_c, 0, 74, 60
2, 2108, Note_off_c, 0, 74, 0
2, 2112, Note_on_c, 0, 76, 60
2, 2204, Note_off_c, 0, 76, 0
2, 2208, Note_on_c, 0, 72, 60
2, 2300, Note_off_c, 0, 72, 0
2, 2304, Note_on_c, 0, 69, 60
2, 2396, Note_off_c, 0, 69, 0
2, 2400, Note_on_c, 0, 71, 60
2, 2492, Note_off_c, 0, 71, 0
2, 2496, Note_on_c, 0, 72, 60
2, 2588, Note_off_c, 0, 72, 0
2, 2592, Note_on_c, 0, 73, 60
2, 2684, Note_off_c, 0, 73, 0
2, 2688, Note_on_c, 0, 74, 60
2, 2780, Note_off_c, 0, 74, 0
2, 2784, Note_on_c, 0, 76, 60
2, 2876, Note_off_c, 0, 76, 0
2, 2880, Note_on_c, 0, 77, 60
2, 2972, Note_off_c, 0, 77, 0
2, 2976, Note_on_c, 0, 74, 60
2, 3068, Note_off_c, 0, 74, 0
2, 3072, Note_on_c, 0, 72, 60
2, 3164, Note_off_c, 0, 72, 0
2, 3168, Note_on_c, 0, 71, 60
2, 3260, Note_off_c, 0, 71, 0
2, 3264, Note_on_c, 0, 69, 60
2, 3356, Note_off_c, 0, 69, 0
2, 3360, Note_on_c, 0, 67, 60
2, 3452, Note_off_c, 0, 67, 0
2, 3456, Note_on_c, 0, 79, 60
2, 3456, Note_on_c, 0, 76, 60
2, 3644, Note_off_c, 0, 79, 0
2, 3644, Note_off_c, 0, 76, 0
2, 3648, Note_on_c, 0, 79, 60
2, 3648, Note_on_c, 0, 76, 60
2, 3836, Note_off_c, 0, 79, 0
2, 3836, Note_off_c, 0, 76, 0
2, 3840, Note_on_c, 0, 76, 60
2, 3840, Note_on_c, 0, 72, 60
2, 4028, Note_off_c, 0, 76, 0
2, 4028, Note_off_c, 0, 72, 0
2, 4224, Note_on_c, 0, 81, 63
2, 4224, Note_on_c, 0, 77, 63
2, 4412, Note_off_c, 0, 81, 0
2, 4412, Note_off_c, 0, 77, 0
2, 4416, Note_on_c, 0, 81, 69
2, 4416, Note_on_c, 0, 77, 69
2, 4604, Note_off_c, 0, 81, 0
2, 4604, Note_off_c, 0, 77, 0
2, 4608, Note_on_c, 0, 74, 75
2, 4608, Note_on_c, 0, 71, 75
2, 4796, Note_off_c, 0, 74, 0
2, 4796, Note_off_c, 0, 71, 0
2, 4992, Note_on_c, 0, 81, 82
2, 5084, Note_off_c, 0, 81, 0
2, 5088, Note_on_c, 0, 79, 82
2, 5180, Note_off_c, 0, 79, 0
2, 5184, Note_on_c, 0, 77, 82
2, 5276, Note_off_c, 0, 77, 0
2, 5280, Note_on_c, 0, 76, 82
2, 5372, Note_off_c, 0, 76, 0
2, 5376, Note_on_c, 0, 73, 82
2, 5468, Note_off_c, 0, 73, 0
2, 5472, Note_on_c, 0, 74, 82
2, 5564, Note_off_c, 0, 74, 0
2, 5568, Note_on_c, 0, 76, 82
2, 5660, Note_off_c, 0, 76, 0
2, 5664, Note_on_c, 0, 77, 82
2, 5756, Note_off_c, 0, 77, 0
2, 5760, Note_on_c, 0, 69, 82
2, 5852, Note_off_c, 0, 69, 0
2, 5856, Note_on_c, 0, 72, 82
2, 5948, Note_off_c, 0, 72, 0
2, 5952, Note_on_c, 0, 71, 82
2, 6044, Note_off_c, 0, 71, 0
2, 6048, Note_on_c, 0, 74, 82
2, 6140, Note_off_c, 0, 74, 0
2, 6144, Note_on_c, 0, 72, 82
2, 6332, Note_off_c, 0, 72, 0
2, 6528, Note_on_c, 0, 79, 60
2, 6528, Note_on_c, 0, 76, 60
2, 6716, Note_off_c, 0, 79, 0
2, 6716, Note_off_c, 0, 76, 0
2, 6720, Note_on_c, 0, 79, 60
2, 6720, Note_on_c, 0, 76, 60
2, 6908, Note_off_c, 0, 79, 0
2, 6908, Note_off_c, 0, 76, 0
2, 6912, Note_on_c, 0, 76, 60
2, 6912, Note_on_c, 0, 72, 60
2, 7100, Note_off_c, 0, 76, 0
2, 7100, Note_off_c, 0, 72, 0
2, 7296, Note_on_c, 0, 77, 60
2, 7296, Note_on_c, 0, 74, 60
2, 7484, Note_off_c, 0, 77, 0
2, 7484, Note_off_c, 0, 74, 0
2, 7488, Note_on_c, 0, 77, 60
2, 7488, Note_on_c, 0, 74, 60
2, 7676, Note_off_c, 0, 77, 0
2, 7676, Note_off_c, 0, 74, 0
2, 7680, Note_on_c, 0, 74, 60
2, 7680, Note_on_c, 0, 71, 60
2, 7868, Note_off_c, 0, 74, 0
2, 7868, Note_off_c, 0, 71, 0
2, 8064, Note_on_c, 0, 72, 60
2, 8156, Note_off_c, 0, 72, 0
2, 8160, Note_on_c, 0, 74, 60
2, 8252, Note_off_c, 0, 74, 0
2, 8256, Note_on_c, 0, 76, 60
2, 8348, Note_off_c, 0, 76, 0
2, 8352, Note_on_c, 0, 72, 60
2, 8444, Note_off_c, 0, 72, 0
2, 8448, Note_on_c, 0, 69, 60
2, 8540, Note_off_c, 0, 69, 0
2, 8544, Note_on_c, 0, 71, 60
2, 8636, Note_off_c, 0, 71, 0
2, 8640, Note_on_c, 0, 72, 60
2, 8732, Note_off_c, 0, 72, 0
2, 8736, Note_on_c, 0, 73, 60
2, 8828, Note_off_c, 0, 73, 0
2, 8832, Note_on_c, 0, 74, 60
2, 8924, Note_off_c, 0, 74, 0
2, 8928, Note_on_c, 0, 76, 60
2, 9020, Note_off_c, 0, 76, 0
2, 9024, Note_on_c, 0, 77, 60
2, 9116, Note_off_c, 0, 77, 0
2, 9120, Note_on_c, 0, 74, 60
2, 9212, Note_off_c, 0, 74, 0
2, 9216, Note_on_c, 0, 72, 60
2, 9308, Note_off_c, 0, 72, 0
2, 9312, Note_on_c, 0, 71, 60
2, 9404, Note_off_c, 0, 71, 0
2, 9408, Note_on_c, 0, 69, 60
2, 9500, Note_off_c, 0, 69, 0
2, 9504, Note_on_c, 0, 67, 60
2, 9596, Note_off_c, 0, 67, 0
2, 9600, Note_on_c, 0, 79, 60
2, 9600, Note_on_c, 0, 76, 60
2, 9788, Note_off_c, 0, 79, 0
2, 9788, Note_off_c, 0, 76, 0
2, 9792, Note_on_c, 0, 79, 60
2, 9792, Note_on_c, 0, 76, 60
2, 9980, Note_off_c, 0, 79, 0
2, 9980, Note_off_c, 0, 76, 0
2, 9984, Note_on_c, 0, 76, 60
2, 9984, Note_on_c, 0, 72, 60
2, 10172, Note_off_c, 0, 76, 0
2, 10172, Note_off_c, 0, 72, 0
2, 10368, Note_on_c, 0, 81, 63
2, 10368, Note_on_c, 0, 77, 63
2, 10556, Note_off_c, 0, 81, 0
2, 10556, Note_off_c, 0, 77, 0
2, 10560, Note_on_c, 0, 81, 69
2, 10560, Note_on_c, 0, 77, 73
2, 10748, Note_off_c, 0, 81, 0
2, 10748, Note_off_c, 0, 77, 0
2, 10752, Note_on_c, 0, 74, 75
2, 10752, Note_on_c, 0, 71, 75
2, 10940, Note_off_c, 0, 74, 0
2, 10940, Note_off_c, 0, 71, 0
2, 11136, Note_on_c, 0, 81, 82
2, 11228, Note_off_c, 0, 81, 0
2, 11232, Note_on_c, 0, 79, 82
2, 11324, Note_off_c, 0, 79, 0
2, 11328, Note_on_c, 0, 77, 82
2, 11420, Note_off_c, 0, 77, 0
2, 11424, Note_on_c, 0, 76, 82
2, 11516, Note_off_c, 0, 76, 0
2, 11520, Note_on_c, 0, 73, 82
2, 11612, Note_off_c, 0, 73, 0
2, 11616, Note_on_c, 0, 74, 82
2, 11708, Note_off_c, 0, 74, 0
2, 11712, Note_on_c, 0, 76, 82
2, 11804, Note_off_c, 0, 76, 0
2, 11808, Note_on_c, 0, 77, 82
2, 11900, Note_off_c, 0, 77, 0
2, 11904, Note_on_c, 0, 69, 82
2, 11996, Note_off_c, 0, 69, 0
2, 12000, Note_on_c, 0, 72, 82
2, 12092, Note_off_c, 0, 72, 0
2, 12096, Note_on_c, 0, 71, 82
2, 12188, Note_off_c, 0, 71, 0
2, 12192, Note_on_c, 0, 74, 82
2, 12284, Note_off_c, 0, 74, 0
2, 12288, Note_on_c, 0, 72, 82
2, 12476, Note_off_c, 0, 72, 0
2, 12672, Note_on_c, 0, 76, 67
2, 12672, Note_on_c, 0, 60, 67
2, 12764, Note_off_c, 0, 76, 0
2, 12764, Note_off_c, 0, 60, 0
2, 12768, Note_on_c, 0, 78, 67
2, 12768, Note_on_c, 0, 67, 67
2, 12860, Note_off_c, 0, 78, 0
2, 12860, Note_off_c, 0, 67, 0
2, 12864, Note_on_c, 0, 79, 67
2, 12864, Note_on_c, 0, 64, 67
2, 12956, Note_off_c, 0, 79, 0
2, 12956, Note_off_c, 0, 64, 0
2, 12960, Note_on_c, 0, 79, 67
2, 12960, Note_on_c, 0, 67, 67
2, 13052, Note_off_c, 0, 79, 0
2, 13052, Note_off_c, 0, 67, 0
2, 13056, Note_on_c, 0, 81, 67
2, 13056, Note_on_c, 0, 59, 67
2, 13148, Note_off_c, 0, 81, 0
2, 13148, Note_off_c, 0, 59, 0
2, 13152, Note_on_c, 0, 79, 67
2, 13152, Note_on_c, 0, 67, 67
2, 13244, Note_off_c, 0, 79, 0
2, 13244, Note_off_c, 0, 67, 0
2, 13248, Note_on_c, 0, 78, 67
2, 13248, Note_on_c, 0, 62, 67
2, 13340, Note_off_c, 0, 78, 0
2, 13340, Note_off_c, 0, 62, 0
2, 13344, Note_on_c, 0, 76, 67
2, 13344, Note_on_c, 0, 67, 67
2, 13436, Note_off_c, 0, 76, 0
2, 13436, Note_off_c, 0, 67, 0
2, 13440, Note_on_c, 0, 74, 67
2, 13532, Note_off_c, 0, 74, 0
2, 13536, Note_on_c, 0, 74, 67
2, 13628, Note_off_c, 0, 74, 0
2, 13632, Note_on_c, 0, 74, 67
2, 13724, Note_off_c, 0, 74, 0
2, 13728, Note_on_c, 0, 74, 67
2, 13820, Note_off_c, 0, 74, 0
2, 13824, Note_on_c, 0, 76, 67
2, 13916, Note_off_c, 0, 76, 0
2, 13920, Note_on_c, 0, 74, 67
2, 14012, Note_off_c, 0, 74, 0
2, 14016, Note_on_c, 0, 72, 67
2, 14108, Note_off_c, 0, 72, 0
2, 14112, Note_on_c, 0, 71, 67
2, 14204, Note_off_c, 0, 71, 0
2, 14208, Note_on_c, 0, 88, 67
2, 14300, Note_off_c, 0, 88, 0
2, 14304, Note_on_c, 0, 86, 67
2, 14396, Note_off_c, 0, 86, 0
2, 14400, Note_on_c, 0, 84, 67
2, 14492, Note_off_c, 0, 84, 0
2, 14496, Note_on_c, 0, 83, 67
2, 14588, Note_off_c, 0, 83, 0
2, 14592, Note_on_c, 0, 80, 67
2, 14684, Note_off_c, 0, 80, 0
2, 14688, Note_on_c, 0, 81, 67
2, 14780, Note_off_c, 0, 81, 0
2, 14784, Note_on_c, 0, 83, 67
2, 14876, Note_off_c, 0, 83, 0
2, 14880, Note_on_c, 0, 84, 67
2, 14972, Note_off_c, 0, 84, 0
2, 14976, Note_on_c, 0, 76, 67
2, 15068, Note_off_c, 0, 76, 0
2, 15072, Note_on_c, 0, 78, 67
2, 15164, Note_off_c, 0, 78, 0
2, 15168, Note_on_c, 0, 79, 67
2, 15260, Note_off_c, 0, 79, 0
2, 15264, Note_on_c, 0, 81, 67
2, 15356, Note_off_c, 0, 81, 0
2, 15360, Note_on_c, 0, 79, 67
2, 15452, Note_off_c, 0, 79, 0
2, 15456, Note_on_c, 0, 78, 67
2, 15548, Note_off_c, 0, 78, 0
2, 15552, Note_on_c, 0, 76, 67
2, 15644, Note_off_c, 0, 76, 0
2, 15648, Note_on_c, 0, 74, 67
2, 15740, Note_off_c, 0, 74, 0
2, 15744, Note_on_c, 0, 86, 60
2, 15744, Note_on_c, 0, 83, 60
2, 15932, Note_off_c, 0, 86, 0
2, 15932, Note_off_c, 0, 83, 0
2, 15936, Note_on_c, 0, 86, 60
2, 15936, Note_on_c, 0, 83, 60
2, 16124, Note_off_c, 0, 86, 0
2, 16124, Note_off_c, 0, 83, 0
2, 16128, Note_on_c, 0, 83, 60
2, 16128, Note_on_c, 0, 79, 60
2, 16128, Note_on_c, 0, 64, 60
2, 16128, Note_on_c, 0, 67, 60
2, 16316, Note_off_c, 0, 83, 0
2, 16316, Note_off_c, 0, 79, 0
2, 16316, Note_off_c, 0, 64, 0
2, 16316, Note_off_c, 0, 67, 0
2, 16320, Note_on_c, 0, 64, 60
2, 16320, Note_on_c, 0, 67, 60
2, 16508, Note_off_c, 0, 64, 0
2, 16508, Note_off_c, 0, 67, 0
2, 16512, Note_on_c, 0, 84, 60
2, 16512, Note_on_c, 0, 81, 60
2, 16512, Note_on_c, 0, 64, 60
2, 16512, Note_on_c, 0, 67, 60
2, 16700, Note_off_c, 0, 84, 0
2, 16700, Note_off_c, 0, 81, 0
2, 16700, Note_off_c, 0, 64, 0
2, 16700, Note_off_c, 0, 67, 0
2, 16704, Note_on_c, 0, 84, 60
2, 16704, Note_on_c, 0, 81, 60
2, 16892, Note_off_c, 0, 84, 0
2, 16892, Note_off_c, 0, 81, 0
2, 16896, Note_on_c, 0, 81, 60
2, 16896, Note_on_c, 0, 78, 60
2, 16896, Note_on_c, 0, 62, 60
2, 16896, Note_on_c, 0, 66, 60
2, 17084, Note_off_c, 0, 81, 0
2, 17084, Note_off_c, 0, 78, 0
2, 17084, Note_off_c, 0, 62, 0
2, 17084, Note_off_c, 0, 66, 0
2, 17088, Note_on_c, 0, 62, 60
2, 17088, Note_on_c, 0, 66, 60
2, 17276, Note_off_c, 0, 62, 0
2, 17276, Note_off_c, 0, 66, 0
2, 17280, Note_on_c, 0, 79, 60
2, 17280, Note_on_c, 0, 62, 60
2, 17280, Note_on_c, 0, 59, 60
2, 17372, Note_off_c, 0, 79, 0
2, 17376, Note_on_c, 0, 81, 60
2, 17468, Note_off_c, 0, 62, 0
2, 17468, Note_off_c, 0, 59, 0
2, 17468, Note_off_c, 0, 81, 0
2, 17472, Note_on_c, 0, 83, 60
2, 17564, Note_off_c, 0, 83, 0
2, 17568, Note_on_c, 0, 79, 60
2, 17660, Note_off_c, 0, 79, 0
2, 17664, Note_on_c, 0, 75, 60
2, 17756, Note_off_c, 0, 75, 0
2, 17760, Note_on_c, 0, 76, 60
2, 17852, Note_off_c, 0, 76, 0
2, 17856, Note_on_c, 0, 79, 60
2, 17948, Note_off_c, 0, 79, 0
2, 17952, Note_on_c, 0, 76, 60
2, 18044, Note_off_c, 0, 76, 0
2, 18048, Note_on_c, 0, 74, 60
2, 18140, Note_off_c, 0, 74, 0
2, 18144, Note_on_c, 0, 71, 60
2, 18236, Note_off_c, 0, 71, 0
2, 18240, Note_on_c, 0, 72, 60
2, 18332, Note_off_c, 0, 72, 0
2, 18336, Note_on_c, 0, 69, 60
2, 18428, Note_off_c, 0, 69, 0
2, 18432, Note_on_c, 0, 67, 60
2, 18620, Note_off_c, 0, 67, 0
2, 18816, Note_on_c, 0, 67, 60
2, 18908, Note_off_c, 0, 67, 0
2, 18912, Note_on_c, 0, 69, 60
2, 19004, Note_off_c, 0, 69, 0
2, 19008, Note_on_c, 0, 71, 60
2, 19100, Note_off_c, 0, 71, 0
2, 19104, Note_on_c, 0, 72, 60
2, 19196, Note_off_c, 0, 72, 0
2, 19200, Note_on_c, 0, 74, 60
2, 19388, Note_off_c, 0, 74, 0
2, 19584, Note_on_c, 0, 71, 60
2, 19676, Note_off_c, 0, 71, 0
2, 19680, Note_on_c, 0, 72, 60
2, 19772, Note_off_c, 0, 72, 0
2, 19776, Note_on_c, 0, 74, 60
2, 19868, Note_off_c, 0, 74, 0
2, 19872, Note_on_c, 0, 76, 60
2, 19964, Note_off_c, 0, 76, 0
2, 19968, Note_on_c, 0, 77, 60
2, 20156, Note_off_c, 0, 77, 0
2, 20352, Note_on_c, 0, 74, 60
2, 20444, Note_off_c, 0, 74, 0
2, 20448, Note_on_c, 0, 76, 60
2, 20540, Note_off_c, 0, 76, 0
2, 20544, Note_on_c, 0, 77, 60
2, 20636, Note_off_c, 0, 77, 0
2, 20640, Note_on_c, 0, 79, 60
2, 20732, Note_off_c, 0, 79, 0
2, 20736, Note_on_c, 0, 81, 60
2, 20924, Note_off_c, 0, 81, 0
2, 20928, Note_on_c, 0, 80, 60
2, 21116, Note_off_c, 0, 80, 0
2, 21120, Note_on_c, 0, 79, 60
2, 21308, Note_off_c, 0, 79, 0
2, 21312, Note_on_c, 0, 78, 60
2, 21500, Note_off_c, 0, 78, 0
2, 21504, Note_on_c, 0, 77, 60
2, 21692, Note_off_c, 0, 77, 0
2, 21888, Note_on_c, 0, 79, 60
2, 21888, Note_on_c, 0, 76, 60
2, 22076, Note_off_c, 0, 79, 0
2, 22076, Note_off_c, 0, 76, 0
2, 22080, Note_on_c, 0, 79, 60
2, 22080, Note_on_c, 0, 76, 60
2, 22268, Note_off_c, 0, 79, 0
2, 22268, Note_off_c, 0, 76, 0
2, 22272, Note_on_c, 0, 76, 60
2, 22272, Note_on_c, 0, 72, 60
2, 22460, Note_off_c, 0, 76, 0
2, 22460, Note_off_c, 0, 72, 0
2, 22656, Note_on_c, 0, 77, 60
2, 22656, Note_on_c, 0, 74, 60
2, 22844, Note_off_c, 0, 77, 0
2, 22844, Note_off_c, 0, 74, 0
2, 22848, Note_on_c, 0, 77, 60
2, 22848, Note_on_c, 0, 74, 60
2, 23036, Note_off_c, 0, 77, 0
2, 23036, Note_off_c, 0, 74, 0
2, 23040, Note_on_c, 0, 74, 60
2, 23040, Note_on_c, 0, 71, 60
2, 23228, Note_off_c, 0, 74, 0
2, 23228, Note_off_c, 0, 71, 0
2, 23424, Note_on_c, 0, 72, 60
2, 23516, Note_off_c, 0, 72, 0
2, 23520, Note_on_c, 0, 74, 60
2, 23612, Note_off_c, 0, 74, 0
2, 23616, Note_on_c, 0, 76, 60
2, 23708, Note_off_c, 0, 76, 0
2, 23712, Note_on_c, 0, 72, 60
2, 23804, Note_off_c, 0, 72, 0
2, 23808, Note_on_c, 0, 69, 60
2, 23900, Note_off_c, 0, 69, 0
2, 23904, Note_on_c, 0, 71, 60
2, 23996, Note_off_c, 0, 71, 0
2, 24000, Note_on_c, 0, 72, 60
2, 24092, Note_off_c, 0, 72, 0
2, 24096, Note_on_c, 0, 73, 60
2, 24188, Note_off_c, 0, 73, 0
2, 24192, Note_on_c, 0, 74, 60
2, 24284, Note_off_c, 0, 74, 0
2, 24288, Note_on_c, 0, 76, 60
2, 24380, Note_off_c, 0, 76, 0
2, 24384, Note_on_c, 0, 77, 60
2, 24476, Note_off_c, 0, 77, 0
2, 24480, Note_on_c, 0, 74, 60
2, 24572, Note_off_c, 0, 74, 0
2, 24576, Note_on_c, 0, 72, 60
2, 24668, Note_off_c, 0, 72, 0
2, 24672, Note_on_c, 0, 71, 60
2, 24764, Note_off_c, 0, 71, 0
2, 24768, Note_on_c, 0, 69, 60
2, 24860, Note_off_c, 0, 69, 0
2, 24864, Note_on_c, 0, 67, 60
2, 24956, Note_off_c, 0, 67, 0
2, 24960, Note_on_c, 0, 76, 60
2, 24960, Note_on_c, 0, 79, 60
2, 25052, Note_off_c, 0, 76, 0
2, 25052, Note_off_c, 0, 79, 0
2, 25152, Note_on_c, 0, 79, 60
2, 25152, Note_on_c, 0, 76, 60
2, 25340, Note_off_c, 0, 79, 0
2, 25340, Note_off_c, 0, 76, 0
2, 25344, Note_on_c, 0, 76, 60
2, 25344, Note_on_c, 0, 72, 60
2, 25532, Note_off_c, 0, 76, 0
2, 25532, Note_off_c, 0, 72, 0
2, 25728, Note_on_c, 0, 81, 63
2, 25728, Note_on_c, 0, 77, 63
2, 25916, Note_off_c, 0, 81, 0
2, 25916, Note_off_c, 0, 77, 0
2, 25920, Note_on_c, 0, 81, 69
2, 25920, Note_on_c, 0, 77, 69
2, 26108, Note_off_c, 0, 81, 0
2, 26108, Note_off_c, 0, 77, 0
2, 26112, Note_on_c, 0, 74, 75
2, 26112, Note_on_c, 0, 71, 75
2, 26300, Note_off_c, 0, 74, 0
2, 26300, Note_off_c, 0, 71, 0
2, 26496, Note_on_c, 0, 81, 82
2, 26588, Note_off_c, 0, 81, 0
2, 26592, Note_on_c, 0, 79, 82
2, 26684, Note_off_c, 0, 79, 0
2, 26688, Note_on_c, 0, 77, 82
2, 26780, Note_off_c, 0, 77, 0
2, 26784, Note_on_c, 0, 76, 82
2, 26876, Note_off_c, 0, 76, 0
2, 26880, Note_on_c, 0, 73, 82
2, 26972, Note_off_c, 0, 73, 0
2, 26976, Note_on_c, 0, 74, 82
2, 27068, Note_off_c, 0, 74, 0
2, 27072, Note_on_c, 0, 76, 82
2, 27164, Note_off_c, 0, 76, 0
2, 27168, Note_on_c, 0, 77, 82
2, 27260, Note_off_c, 0, 77, 0
2, 27264, Note_on_c, 0, 69, 82
2, 27356, Note_off_c, 0, 69, 0
2, 27360, Note_on_c, 0, 72, 82
2, 27452, Note_off_c, 0, 72, 0
2, 27456, Note_on_c, 0, 71, 82
2, 27548, Note_off_c, 0, 71, 0
2, 27552, Note_on_c, 0, 74, 82
2, 27644, Note_off_c, 0, 74, 0
2, 27648, Note_on_c, 0, 72, 82
2, 27836, Note_off_c, 0, 72, 0
2, 28416, Note_on_c, 0, 76, 67
2, 28508, Note_off_c, 0, 76, 0
2, 28512, Note_on_c, 0, 75, 67
2, 28604, Note_off_c, 0, 75, 0
2, 28608, Note_on_c, 0, 77, 67
2, 28700, Note_off_c, 0, 77, 0
2, 28704, Note_on_c, 0, 76, 67
2, 28796, Note_off_c, 0, 76, 0
2, 29184, Note_on_c, 0, 76, 67
2, 29276, Note_off_c, 0, 76, 0
2, 29280, Note_on_c, 0, 75, 67
2, 29372, Note_off_c, 0, 75, 0
2, 29376, Note_on_c, 0, 77, 67
2, 29468, Note_off_c, 0, 77, 0
2, 29472, Note_on_c, 0, 76, 67
2, 29564, Note_off_c, 0, 76, 0
2, 29568, Note_on_c, 0, 84, 67
2, 29568, Note_on_c, 0, 76, 67
2, 29756, Note_off_c, 0, 84, 0
2, 29756, Note_off_c, 0, 76, 0
2, 29760, Note_on_c, 0, 76, 67
2, 29760, Note_on_c, 0, 84, 67
2, 29948, Note_off_c, 0, 76, 0
2, 29948, Note_off_c, 0, 84, 0
2, 29952, Note_on_c, 0, 81, 67
2, 29952, Note_on_c, 0, 72, 67
2, 30140, Note_off_c, 0, 81, 0
2, 30140, Note_off_c, 0, 72, 0
2, 30336, Note_on_c, 0, 83, 67
2, 30336, Note_on_c, 0, 74, 67
2, 30524, Note_off_c, 0, 83, 0
2, 30524, Note_off_c, 0, 74, 0
2, 30528, Note_on_c, 0, 83, 67
2, 30528, Note_on_c, 0, 74, 67
2, 30716, Note_off_c, 0, 83, 0
2, 30716, Note_off_c, 0, 74, 0
2, 30720, Note_on_c, 0, 80, 67
2, 30720, Note_on_c, 0, 71, 67
2, 30908, Note_off_c, 0, 80, 0
2, 30908, Note_off_c, 0, 71, 0
2, 31104, Note_on_c, 0, 81, 67
2, 31104, Note_on_c, 0, 64, 67
2, 31104, Note_on_c, 0, 60, 67
2, 31196, Note_off_c, 0, 81, 0
2, 31200, Note_on_c, 0, 76, 67
2, 31292, Note_off_c, 0, 76, 0
2, 31296, Note_on_c, 0, 72, 67
2, 31388, Note_off_c, 0, 72, 0
2, 31392, Note_on_c, 0, 69, 67
2, 31484, Note_off_c, 0, 64, 0
2, 31484, Note_off_c, 0, 60, 0
2, 31484, Note_off_c, 0, 69, 0
2, 31488, Note_on_c, 0, 72, 67
2, 31488, Note_on_c, 0, 62, 67
2, 31488, Note_on_c, 0, 65, 67
2, 31580, Note_off_c, 0, 72, 0
2, 31584, Note_on_c, 0, 70, 67
2, 31676, Note_off_c, 0, 70, 0
2, 31680, Note_on_c, 0, 70, 67
2, 31772, Note_off_c, 0, 70, 0
2, 31776, Note_on_c, 0, 70, 67
2, 31868, Note_off_c, 0, 62, 0
2, 31868, Note_off_c, 0, 65, 0
2, 31868, Note_off_c, 0, 70, 0
2, 31872, Note_on_c, 0, 74, 67
2, 31872, Note_on_c, 0, 64, 67
2, 31872, Note_on_c, 0, 67, 67
2, 31964, Note_off_c, 0, 74, 0
2, 31968, Note_on_c, 0, 73, 67
2, 32060, Note_off_c, 0, 73, 0
2, 32064, Note_on_c, 0, 73, 67
2, 32156, Note_off_c, 0, 73, 0
2, 32160, Note_on_c, 0, 73, 67
2, 32252, Note_off_c, 0, 64, 0
2, 32252, Note_off_c, 0, 67, 0
2, 32252, Note_off_c, 0, 73, 0
2, 32256, Note_on_c, 0, 76, 67
2, 32256, Note_on_c, 0, 69, 67
2, 32256, Note_on_c, 0, 65, 67
2, 32348, Note_off_c, 0, 76, 0
2, 32352, Note_on_c, 0, 74, 67
2, 32444, Note_off_c, 0, 65, 0
2, 32444, Note_off_c, 0, 74, 0
2, 32448, Note_on_c, 0, 77, 67
2, 32448, Note_on_c, 0, 61, 67
2, 32540, Note_off_c, 0, 77, 0
2, 32544, Note_on_c, 0, 76, 67
2, 32636, Note_off_c, 0, 61, 0
2, 32636, Note_off_c, 0, 76, 0
2, 32640, Note_on_c, 0, 79, 67
2, 32640, Note_on_c, 0, 62, 67
2, 32732, Note_off_c, 0, 79, 0
2, 32736, Note_on_c, 0, 77, 67
2, 32828, Note_off_c, 0, 62, 0
2, 32828, Note_off_c, 0, 77, 0
2, 32832, Note_on_c, 0, 77, 67
2, 32832, Note_on_c, 0, 64, 67
2, 32924, Note_off_c, 0, 77, 0
2, 32928, Note_on_c, 0, 76, 67
2, 33020, Note_off_c, 0, 69, 0
2, 33020, Note_off_c, 0, 64, 0
2, 33020, Note_off_c, 0, 76, 0
2, 33024, Note_on_c, 0, 76, 91
2, 33024, Note_on_c, 0, 69, 90
2, 33024, Note_on_c, 0, 65, 90
2, 33116, Note_off_c, 0, 76, 0
2, 33120, Note_on_c, 0, 75, 91
2, 33212, Note_off_c, 0, 69, 0
2, 33212, Note_off_c, 0, 65, 0
2, 33212, Note_off_c, 0, 75, 0
2, 33216, Note_on_c, 0, 84, 94
2, 33408, Note_on_c, 0, 69, 90
2, 33408, Note_on_c, 0, 65, 90
2, 33596, Note_off_c, 0, 84, 0
2, 33596, Note_off_c, 0, 69, 0
2, 33596, Note_off_c, 0, 65, 0
2, 33600, Note_on_c, 0, 75, 91
2, 33788, Note_off_c, 0, 75, 0
2, 33792, Note_on_c, 0, 76, 90
2, 33980, Note_off_c, 0, 76, 0
2, 34176, Note_on_c, 0, 83, 94
2, 34268, Note_off_c, 0, 83, 0
2, 34272, Note_on_c, 0, 80, 93
2, 34364, Note_off_c, 0, 80, 0
2, 34368, Note_on_c, 0, 76, 93
2, 34460, Note_off_c, 0, 76, 0
2, 34464, Note_on_c, 0, 74, 91
2, 34556, Note_off_c, 0, 74, 0
2, 34560, Note_on_c, 0, 72, 90
2, 34652, Note_off_c, 0, 72, 0
2, 34656, Note_on_c, 0, 76, 90
2, 34748, Note_off_c, 0, 76, 0
2, 34752, Note_on_c, 0, 81, 90
2, 34844, Note_off_c, 0, 81, 0
2, 34848, Note_on_c, 0, 80, 90
2, 34940, Note_off_c, 0, 80, 0
2, 34944, Note_on_c, 0, 81, 90
2, 35036, Note_off_c, 0, 81, 0
2, 35040, Note_on_c, 0, 76, 90
2, 35132, Note_off_c, 0, 76, 0
2, 35136, Note_on_c, 0, 72, 90
2, 35228, Note_off_c, 0, 72, 0
2, 35232, Note_on_c, 0, 69, 90
2, 35328, Note_on_c, 0, 68, 90
2, 35332, Note_off_c, 0, 69, 0
2, 35420, Note_off_c, 0, 68, 0
2, 35424, Note_on_c, 0, 71, 90
2, 35516, Note_off_c, 0, 71, 0
2, 35520, Note_on_c, 0, 76, 90
2, 35612, Note_off_c, 0, 76, 0
2, 35616, Note_on_c, 0, 80, 90
2, 35708, Note_off_c, 0, 80, 0
2, 35712, Note_on_c, 0, 83, 90
2, 35804, Note_off_c, 0, 83, 0
2, 35808, Note_on_c, 0, 80, 90
2, 35900, Note_off_c, 0, 80, 0
2, 35904, Note_on_c, 0, 76, 90
2, 35996, Note_off_c, 0, 76, 0
2, 36000, Note_on_c, 0, 74, 90
2, 36092, Note_off_c, 0, 74, 0
2, 36096, Note_on_c, 0, 72, 90
2, 36188, Note_off_c, 0, 72, 0
2, 36192, Note_on_c, 0, 76, 90
2, 36284, Note_off_c, 0, 76, 0
2, 36288, Note_on_c, 0, 81, 90
2, 36380, Note_off_c, 0, 81, 0
2, 36384, Note_on_c, 0, 80, 90
2, 36476, Note_off_c, 0, 80, 0
2, 36480, Note_on_c, 0, 81, 90
2, 36572, Note_off_c, 0, 81, 0
2, 36576, Note_on_c, 0, 76, 90
2, 36668, Note_off_c, 0, 76, 0
2, 36672, Note_on_c, 0, 72, 90
2, 36764, Note_off_c, 0, 72, 0
2, 36768, Note_on_c, 0, 69, 90
2, 36860, Note_off_c, 0, 69, 0
2, 36864, Note_on_c, 0, 64, 90
2, 37052, Note_off_c, 0, 64, 0
2, 37248, Note_on_c, 0, 76, 90
2, 37248, Note_on_c, 0, 72, 90
2, 37436, Note_off_c, 0, 76, 0
2, 37436, Note_off_c, 0, 72, 0
2, 37440, Note_on_c, 0, 76, 90
2, 37440, Note_on_c, 0, 72, 90
2, 37628, Note_off_c, 0, 76, 0
2, 37628, Note_off_c, 0, 72, 0
2, 37632, Note_on_c, 0, 72, 60
2, 37632, Note_on_c, 0, 69, 60
2, 37820, Note_off_c, 0, 72, 0
2, 37820, Note_off_c, 0, 69, 0
2, 38016, Note_on_c, 0, 74, 60
2, 38016, Note_on_c, 0, 71, 60
2, 38204, Note_off_c, 0, 74, 0
2, 38204, Note_off_c, 0, 71, 0
2, 38208, Note_on_c, 0, 74, 60
2, 38208, Note_on_c, 0, 71, 60
2, 38396, Note_off_c, 0, 74, 0
2, 38396, Note_off_c, 0, 71, 0
2, 38400, Note_on_c, 0, 71, 67
2, 38400, Note_on_c, 0, 68, 67
2, 38588, Note_off_c, 0, 71, 0
2, 38588, Note_off_c, 0, 68, 0
2, 39168, Note_on_c, 0, 64, 67
2, 39260, Note_off_c, 0, 64, 0
2, 39264, Note_on_c, 0, 63, 67
2, 39356, Note_off_c, 0, 63, 0
2, 39360, Note_on_c, 0, 65, 67
2, 39452, Note_off_c, 0, 65, 0
2, 39456, Note_on_c, 0, 64, 67
2, 39548, Note_off_c, 0, 64, 0
2, 39936, Note_on_c, 0, 88, 67
2, 40028, Note_off_c, 0, 88, 0
2, 40032, Note_on_c, 0, 87, 67
2, 40124, Note_off_c, 0, 87, 0
2, 40128, Note_on_c, 0, 89, 67
2, 40220, Note_off_c, 0, 89, 0
2, 40224, Note_on_c, 0, 88, 67
2, 40316, Note_off_c, 0, 88, 0
2, 40320, Note_on_c, 0, 86, 67
2, 40412, Note_off_c, 0, 86, 0
2, 40416, Note_on_c, 0, 85, 67
2, 40508, Note_off_c, 0, 85, 0
2, 40528, Note_on_c, 0, 88, 67
2, 40608, Note_on_c, 0, 86, 67
2, 40620, Note_off_c, 0, 88, 0
2, 40700, Note_off_c, 0, 86, 0
2, 40704, Note_on_c, 0, 86, 67
2, 40796, Note_off_c, 0, 86, 0
2, 40800, Note_on_c, 0, 84, 67
2, 40892, Note_off_c, 0, 84, 0
2, 40896, Note_on_c, 0, 84, 67
2, 40988, Note_off_c, 0, 84, 0
2, 40992, Note_on_c, 0, 83, 67
2, 41084, Note_off_c, 0, 83, 0
2, 41088, Note_on_c, 0, 83, 67
2, 41088, Note_on_c, 0, 64, 67
2, 41088, Note_on_c, 0, 60, 67
2, 41180, Note_off_c, 0, 83, 0
2, 41184, Note_on_c, 0, 81, 67
2, 41276, Note_off_c, 0, 60, 0
2, 41276, Note_off_c, 0, 81, 0
2, 41280, Note_on_c, 0, 81, 67
2, 41280, Note_on_c, 0, 61, 67
2, 41372, Note_off_c, 0, 81, 0
2, 41376, Note_on_c, 0, 79, 67
2, 41468, Note_off_c, 0, 64, 0
2, 41468, Note_off_c, 0, 61, 0
2, 41468, Note_off_c, 0, 79, 0
2, 41472, Note_on_c, 0, 79, 67
2, 41472, Note_on_c, 0, 69, 67
2, 41472, Note_on_c, 0, 62, 67
2, 41564, Note_off_c, 0, 79, 0
2, 41568, Note_on_c, 0, 77, 67
2, 41660, Note_off_c, 0, 62, 0
2, 41660, Note_off_c, 0, 77, 0
2, 41664, Note_on_c, 0, 77, 67
2, 41664, Note_on_c, 0, 64, 67
2, 41756, Note_off_c, 0, 77, 0
2, 41760, Note_on_c, 0, 76, 67
2, 41852, Note_off_c, 0, 64, 0
2, 41852, Note_off_c, 0, 76, 0
2, 41856, Note_on_c, 0, 76, 67
2, 41856, Note_on_c, 0, 65, 67
2, 41948, Note_off_c, 0, 76, 0
2, 41952, Note_on_c, 0, 74, 67
2, 42044, Note_off_c, 0, 65, 0
2, 42044, Note_off_c, 0, 74, 0
2, 42048, Note_on_c, 0, 74, 67
2, 42048, Note_on_c, 0, 64, 67
2, 42140, Note_off_c, 0, 74, 0
2, 42144, Note_on_c, 0, 72, 67
2, 42236, Note_off_c, 0, 69, 0
2, 42236, Note_off_c, 0, 64, 0
2, 42236, Note_off_c, 0, 72, 0
2, 42240, Note_on_c, 0, 70, 67
2, 42240, Note_on_c, 0, 65, 67
2, 42240, Note_on_c, 0, 62, 67
2, 42332, Note_off_c, 0, 70, 0
2, 42336, Note_on_c, 0, 77, 67
2, 42428, Note_off_c, 0, 77, 0
2, 42432, Note_on_c, 0, 74, 67
2, 42524, Note_off_c, 0, 74, 0
2, 42528, Note_on_c, 0, 70, 67
2, 42620, Note_off_c, 0, 65, 0
2, 42620, Note_off_c, 0, 62, 0
2, 42620, Note_off_c, 0, 70, 0
2, 42640, Note_on_c, 0, 69, 67
2, 42816, Note_on_c, 0, 68, 67
2, 42828, Note_off_c, 0, 69, 0
2, 43004, Note_off_c, 0, 68, 0
2, 43008, Note_on_c, 0, 69, 45
2, 43196, Note_off_c, 0, 69, 0
2, 43392, Note_on_c, 0, 68, 45
2, 43484, Note_off_c, 0, 68, 0
2, 43488, Note_on_c, 0, 74, 45
2, 43580, Note_off_c, 0, 74, 0
2, 43584, Note_on_c, 0, 71, 45
2, 43676, Note_off_c, 0, 71, 0
2, 43680, Note_on_c, 0, 68, 45
2, 43772, Note_off_c, 0, 68, 0
2, 43776, Note_on_c, 0, 69, 45
2, 43964, Note_off_c, 0, 69, 0
2, 44160, Note_on_c, 0, 68, 45
2, 44252, Note_off_c, 0, 68, 0
2, 44256, Note_on_c, 0, 74, 45
2, 44348, Note_off_c, 0, 74, 0
2, 44352, Note_on_c, 0, 71, 45
2, 44444, Note_off_c, 0, 71, 0
2, 44448, Note_on_c, 0, 68, 45
2, 44540, Note_off_c, 0, 68, 0
2, 44544, Note_on_c, 0, 69, 45
2, 44732, Note_off_c, 0, 69, 0
2, 44928, Note_on_c, 0, 68, 45
2, 45020, Note_off_c, 0, 68, 0
2, 45024, Note_on_c, 0, 74, 45
2, 45116, Note_off_c, 0, 74, 0
2, 45120, Note_on_c, 0, 71, 45
2, 45212, Note_off_c, 0, 71, 0
2, 45216, Note_on_c, 0, 68, 45
2, 45308, Note_off_c, 0, 68, 0
2, 45312, Note_on_c, 0, 69, 60
2, 45404, Note_off_c, 0, 69, 0
2, 45408, Note_on_c, 0, 76, 60
2, 45500, Note_off_c, 0, 76, 0
2, 45504, Note_on_c, 0, 72, 60
2, 45596, Note_off_c, 0, 72, 0
2, 45600, Note_on_c, 0, 69, 60
2, 45692, Note_off_c, 0, 69, 0
2, 45696, Note_on_c, 0, 71, 60
2, 45788, Note_off_c, 0, 71, 0
2, 45792, Note_on_c, 0, 77, 60
2, 45884, Note_off_c, 0, 77, 0
2, 45888, Note_on_c, 0, 74, 60
2, 45980, Note_off_c, 0, 74, 0
2, 45984, Note_on_c, 0, 71, 60
2, 46076, Note_off_c, 0, 71, 0
2, 46464, Note_on_c, 0, 79, 60
2, 46464, Note_on_c, 0, 76, 60
2, 46652, Note_off_c, 0, 79, 0
2, 46652, Note_off_c, 0, 76, 0
2, 46656, Note_on_c, 0, 79, 60
2, 46656, Note_on_c, 0, 76, 60
2, 46844, Note_off_c, 0, 79, 0
2, 46844, Note_off_c, 0, 76, 0
2, 46848, Note_on_c, 0, 76, 60
2, 46848, Note_on_c, 0, 72, 60
2, 47036, Note_off_c, 0, 76, 0
2, 47036, Note_off_c, 0, 72, 0
2, 47232, Note_on_c, 0, 77, 60
2, 47232, Note_on_c, 0, 74, 60
2, 47420, Note_off_c, 0, 77, 0
2, 47420, Note_off_c, 0, 74, 0
2, 47424, Note_on_c, 0, 77, 60
2, 47424, Note_on_c, 0, 74, 60
2, 47612, Note_off_c, 0, 77, 0
2, 47612, Note_off_c, 0, 74, 0
2, 47616, Note_on_c, 0, 74, 60
2, 47616, Note_on_c, 0, 71, 60
2, 47804, Note_off_c, 0, 74, 0
2, 47804, Note_off_c, 0, 71, 0
2, 48000, Note_on_c, 0, 72, 60
2, 48092, Note_off_c, 0, 72, 0
2, 48096, Note_on_c, 0, 74, 60
2, 48188, Note_off_c, 0, 74, 0
2, 48192, Note_on_c, 0, 76, 60
2, 48284, Note_off_c, 0, 76, 0
2, 48288, Note_on_c, 0, 72, 60
2, 48380, Note_off_c, 0, 72, 0
2, 48384, Note_on_c, 0, 69, 60
2, 48476, Note_off_c, 0, 69, 0
2, 48480, Note_on_c, 0, 71, 60
2, 48572, Note_off_c, 0, 71, 0
2, 48576, Note_on_c, 0, 72, 60
2, 48668, Note_off_c, 0, 72, 0
2, 48672, Note_on_c, 0, 73, 60
2, 48764, Note_off_c, 0, 73, 0
2, 48768, Note_on_c, 0, 74, 60
2, 48860, Note_off_c, 0, 74, 0
2, 48864, Note_on_c, 0, 76, 60
2, 48956, Note_off_c, 0, 76, 0
2, 48960, Note_on_c, 0, 77, 60
2, 49052, Note_off_c, 0, 77, 0
2, 49056, Note_on_c, 0, 74, 60
2, 49148, Note_off_c, 0, 74, 0
2, 49152, Note_on_c, 0, 72, 60
2, 49244, Note_off_c, 0, 72, 0
2, 49248, Note_on_c, 0, 71, 60
2, 49340, Note_off_c, 0, 71, 0
2, 49344, Note_on_c, 0, 69, 60
2, 49436, Note_off_c, 0, 69, 0
2, 49440, Note_on_c, 0, 67, 60
2, 49532, Note_off_c, 0, 67, 0
2, 49536, Note_on_c, 0, 79, 60
2, 49536, Note_on_c, 0, 76, 60
2, 49724, Note_off_c, 0, 79, 0
2, 49724, Note_off_c, 0, 76, 0
2, 49728, Note_on_c, 0, 79, 60
2, 49728, Note_on_c, 0, 76, 60
2, 49916, Note_off_c, 0, 79, 0
2, 49916, Note_off_c, 0, 76, 0
2, 49920, Note_on_c, 0, 76, 60
2, 49920, Note_on_c, 0, 72, 60
2, 50108, Note_off_c, 0, 76, 0
2, 50108, Note_off_c, 0, 72, 0
2, 50304, Note_on_c, 0, 81, 63
2, 50304, Note_on_c, 0, 77, 63
2, 50492, Note_off_c, 0, 81, 0
2, 50492, Note_off_c, 0, 77, 0
2, 50496, Note_on_c, 0, 77, 69
2, 50496, Note_on_c, 0, 81, 69
2, 50684, Note_off_c, 0, 77, 0
2, 50684, Note_off_c, 0, 81, 0
2, 50688, Note_on_c, 0, 74, 75
2, 50688, Note_on_c, 0, 71, 75
2, 50876, Note_off_c, 0, 74, 0
2, 50876, Note_off_c, 0, 71, 0
2, 51072, Note_on_c, 0, 81, 82
2, 51164, Note_off_c, 0, 81, 0
2, 51168, Note_on_c, 0, 79, 82
2, 51260, Note_off_c, 0, 79, 0
2, 51264, Note_on_c, 0, 77, 82
2, 51356, Note_off_c, 0, 77, 0
2, 51360, Note_on_c, 0, 76, 82
2, 51452, Note_off_c, 0, 76, 0
2, 51456, Note_on_c, 0, 73, 82
2, 51548, Note_off_c, 0, 73, 0
2, 51552, Note_on_c, 0, 74, 82
2, 51644, Note_off_c, 0, 74, 0
2, 51648, Note_on_c, 0, 76, 82
2, 51740, Note_off_c, 0, 76, 0
2, 51744, Note_on_c, 0, 77, 82
2, 51836, Note_off_c, 0, 77, 0
2, 51840, Note_on_c, 0, 69, 82
2, 51932, Note_off_c, 0, 69, 0
2, 51936, Note_on_c, 0, 72, 82
2, 52028, Note_off_c, 0, 72, 0
2, 52032, Note_on_c, 0, 71, 82
2, 52124, Note_off_c, 0, 71, 0
2, 52128, Note_on_c, 0, 74, 82
2, 52220, Note_off_c, 0, 74, 0
2, 52224, Note_on_c, 0, 72, 82
2, 52412, Note_off_c, 0, 72, 0
2, 52608, Note_on_c, 0, 71, 60
2, 52700, Note_off_c, 0, 71, 0
2, 52704, Note_on_c, 0, 77, 60
2, 52796, Note_off_c, 0, 77, 0
2, 52800, Note_on_c, 0, 74, 60
2, 52892, Note_off_c, 0, 74, 0
2, 52896, Note_on_c, 0, 71, 60
2, 52988, Note_off_c, 0, 71, 0
2, 52992, Note_on_c, 0, 81, 60
2, 53084, Note_off_c, 0, 81, 0
2, 53088, Note_on_c, 0, 79, 60
2, 53180, Note_off_c, 0, 79, 0
2, 53184, Note_on_c, 0, 77, 60
2, 53276, Note_off_c, 0, 77, 0
2, 53280, Note_on_c, 0, 76, 60
2, 53372, Note_off_c, 0, 76, 0
2, 53376, Note_on_c, 0, 74, 60
2, 53468, Note_off_c, 0, 74, 0
2, 53472, Note_on_c, 0, 77, 60
2, 53564, Note_off_c, 0, 77, 0
2, 53568, Note_on_c, 0, 74, 60
2, 53660, Note_off_c, 0, 74, 0
2, 53664, Note_on_c, 0, 71, 60
2, 53756, Note_off_c, 0, 71, 0
2, 53760, Note_on_c, 0, 81, 60
2, 53852, Note_off_c, 0, 81, 0
2, 53856, Note_on_c, 0, 79, 60
2, 53948, Note_off_c, 0, 79, 0
2, 53952, Note_on_c, 0, 77, 60
2, 54044, Note_off_c, 0, 77, 0
2, 54048, Note_on_c, 0, 76, 60
2, 54140, Note_off_c, 0, 76, 0
2, 54144, Note_on_c, 0, 86, 60
2, 54236, Note_off_c, 0, 86, 0
2, 54240, Note_on_c, 0, 84, 60
2, 54332, Note_off_c, 0, 84, 0
2, 54336, Note_on_c, 0, 83, 60
2, 54428, Note_off_c, 0, 83, 0
2, 54432, Note_on_c, 0, 81, 60
2, 54524, Note_off_c, 0, 81, 0
2, 54528, Note_on_c, 0, 81, 60
2, 54620, Note_off_c, 0, 81, 0
2, 54624, Note_on_c, 0, 79, 60
2, 54716, Note_off_c, 0, 79, 0
2, 54720, Note_on_c, 0, 77, 60
2, 54812, Note_off_c, 0, 77, 0
2, 54816, Note_on_c, 0, 76, 60
2, 54908, Note_off_c, 0, 76, 0
2, 54912, Note_on_c, 0, 76, 60
2, 55004, Note_off_c, 0, 76, 0
2, 55008, Note_on_c, 0, 74, 60
2, 55100, Note_off_c, 0, 74, 0
2, 55104, Note_on_c, 0, 72, 60
2, 55196, Note_off_c, 0, 72, 0
2, 55200, Note_on_c, 0, 71, 60
2, 55292, Note_off_c, 0, 71, 0
2, 55296, Note_on_c, 0, 74, 60
2, 55296, Note_on_c, 0, 60, 60
2, 55388, Note_off_c, 0, 60, 0
2, 55392, Note_on_c, 0, 67, 60
2, 55484, Note_off_c, 0, 74, 0
2, 55484, Note_off_c, 0, 67, 0
2, 55488, Note_on_c, 0, 72, 60
2, 55488, Note_on_c, 0, 64, 60
2, 55580, Note_off_c, 0, 64, 0
2, 55584, Note_on_c, 0, 67, 60
2, 55676, Note_off_c, 0, 72, 0
2, 55676, Note_off_c, 0, 67, 0
2, 55680, Note_on_c, 0, 71, 60
2, 55772, Note_off_c, 0, 71, 0
2, 55776, Note_on_c, 0, 77, 60
2, 55868, Note_off_c, 0, 77, 0
2, 55872, Note_on_c, 0, 74, 60
2, 55964, Note_off_c, 0, 74, 0
2, 55968, Note_on_c, 0, 71, 60
2, 56060, Note_off_c, 0, 71, 0
2, 56064, Note_on_c, 0, 81, 60
2, 56156, Note_off_c, 0, 81, 0
2, 56160, Note_on_c, 0, 79, 60
2, 56252, Note_off_c, 0, 79, 0
2, 56256, Note_on_c, 0, 77, 60
2, 56348, Note_off_c, 0, 77, 0
2, 56352, Note_on_c, 0, 76, 60
2, 56444, Note_off_c, 0, 76, 0
2, 56448, Note_on_c, 0, 74, 60
2, 56540, Note_off_c, 0, 74, 0
2, 56544, Note_on_c, 0, 77, 60
2, 56636, Note_off_c, 0, 77, 0
2, 56640, Note_on_c, 0, 74, 60
2, 56732, Note_off_c, 0, 74, 0
2, 56736, Note_on_c, 0, 71, 60
2, 56828, Note_off_c, 0, 71, 0
2, 56832, Note_on_c, 0, 81, 60
2, 56924, Note_off_c, 0, 81, 0
2, 56928, Note_on_c, 0, 79, 60
2, 57020, Note_off_c, 0, 79, 0
2, 57024, Note_on_c, 0, 77, 60
2, 57116, Note_off_c, 0, 77, 0
2, 57120, Note_on_c, 0, 76, 60
2, 57212, Note_off_c, 0, 76, 0
2, 57216, Note_on_c, 0, 86, 60
2, 57308, Note_off_c, 0, 86, 0
2, 57312, Note_on_c, 0, 84, 60
2, 57404, Note_off_c, 0, 84, 0
2, 57408, Note_on_c, 0, 83, 60
2, 57500, Note_off_c, 0, 83, 0
2, 57504, Note_on_c, 0, 81, 60
2, 57596, Note_off_c, 0, 81, 0
2, 57600, Note_on_c, 0, 81, 60
2, 57692, Note_off_c, 0, 81, 0
2, 57696, Note_on_c, 0, 79, 60
2, 57788, Note_off_c, 0, 79, 0
2, 57792, Note_on_c, 0, 77, 60
2, 57884, Note_off_c, 0, 77, 0
2, 57888, Note_on_c, 0, 76, 60
2, 57980, Note_off_c, 0, 76, 0
2, 57984, Note_on_c, 0, 76, 60
2, 58076, Note_off_c, 0, 76, 0
2, 58080, Note_on_c, 0, 74, 60
2, 58172, Note_off_c, 0, 74, 0
2, 58176, Note_on_c, 0, 72, 60
2, 58268, Note_off_c, 0, 72, 0
2, 58272, Note_on_c, 0, 71, 60
2, 58364, Note_off_c, 0, 71, 0
2, 58368, Note_on_c, 0, 72, 90
2, 58460, Note_off_c, 0, 72, 0
2, 58464, Note_on_c, 0, 76, 90
2, 58556, Note_off_c, 0, 76, 0
2, 58560, Note_on_c, 0, 67, 90
2, 58652, Note_off_c, 0, 67, 0
2, 58656, Note_on_c, 0, 72, 90
2, 58748, Note_off_c, 0, 72, 0
2, 58752, Note_on_c, 0, 64, 90
2, 58844, Note_off_c, 0, 64, 0
2, 58848, Note_on_c, 0, 67, 90
2, 58940, Note_off_c, 0, 67, 0
2, 58944, Note_on_c, 0, 60, 90
2, 59036, Note_off_c, 0, 60, 0
2, 59040, Note_on_c, 0, 64, 90
2, 59132, Note_off_c, 0, 64, 0
2, 59136, Note_on_c, 0, 67, 90
2, 59228, Note_off_c, 0, 67, 0
2, 59232, Note_on_c, 0, 72, 90
2, 59324, Note_off_c, 0, 72, 0
2, 59328, Note_on_c, 0, 76, 90
2, 59328, Note_on_c, 0, 72, 90
2, 59420, Note_off_c, 0, 76, 0
2, 59420, Note_off_c, 0, 72, 0
2, 59424, Note_on_c, 0, 79, 90
2, 59424, Note_on_c, 0, 76, 90
2, 59516, Note_off_c, 0, 79, 0
2, 59516, Note_off_c, 0, 76, 0
2, 59520, Note_on_c, 0, 79, 90
2, 59520, Note_on_c, 0, 76, 90
2, 59612, Note_off_c, 0, 79, 0
2, 59612, Note_off_c, 0, 76, 0
2, 59616, Note_on_c, 0, 77, 90
2, 59616, Note_on_c, 0, 74, 90
2, 59708, Note_off_c, 0, 77, 0
2, 59708, Note_off_c, 0, 74, 0
2, 59712, Note_on_c, 0, 76, 90
2, 59712, Note_on_c, 0, 72, 90
2, 59804, Note_off_c, 0, 76, 0
2, 59804, Note_off_c, 0, 72, 0
2, 59808, Note_on_c, 0, 74, 90
2, 59808, Note_on_c, 0, 71, 90
2, 59900, Note_off_c, 0, 74, 0
2, 59900, Note_off_c, 0, 71, 0
2, 59904, Note_on_c, 0, 72, 90
2, 59996, Note_off_c, 0, 72, 0
2, 60000, Note_on_c, 0, 76, 90
2, 60092, Note_off_c, 0, 76, 0
2, 60096, Note_on_c, 0, 67, 90
2, 60188, Note_off_c, 0, 67, 0
2, 60192, Note_on_c, 0, 72, 90
2, 60284, Note_off_c, 0, 72, 0
2, 60288, Note_on_c, 0, 64, 90
2, 60380, Note_off_c, 0, 64, 0
2, 60384, Note_on_c, 0, 67, 90
2, 60476, Note_off_c, 0, 67, 0
2, 60480, Note_on_c, 0, 60, 90
2, 60572, Note_off_c, 0, 60, 0
2, 60576, Note_on_c, 0, 64, 90
2, 60668, Note_off_c, 0, 64, 0
2, 60672, Note_on_c, 0, 67, 90
2, 60764, Note_off_c, 0, 67, 0
2, 60768, Note_on_c, 0, 72, 90
2, 60860, Note_off_c, 0, 72, 0
2, 60864, Note_on_c, 0, 76, 90
2, 60864, Note_on_c, 0, 72, 90
2, 60956, Note_off_c, 0, 76, 0
2, 60956, Note_off_c, 0, 72, 0
2, 60960, Note_on_c, 0, 79, 90
2, 60960, Note_on_c, 0, 76, 90
2, 61052, Note_off_c, 0, 79, 0
2, 61052, Note_off_c, 0, 76, 0
2, 61056, Note_on_c, 0, 76, 90
2, 61056, Note_on_c, 0, 79, 90
2, 61148, Note_off_c, 0, 76, 0
2, 61148, Note_off_c, 0, 79, 0
2, 61152, Note_on_c, 0, 77, 90
2, 61152, Note_on_c, 0, 74, 90
2, 61244, Note_off_c, 0, 77, 0
2, 61244, Note_off_c, 0, 74, 0
2, 61248, Note_on_c, 0, 72, 90
2, 61248, Note_on_c, 0, 76, 90
2, 61340, Note_off_c, 0, 72, 0
2, 61340, Note_off_c, 0, 76, 0
2, 61344, Note_on_c, 0, 74, 90
2, 61344, Note_on_c, 0, 71, 90
2, 61436, Note_off_c, 0, 74, 0
2, 61436, Note_off_c, 0, 71, 0
2, 61440, Note_on_c, 0, 72, 90
2, 61628, Note_off_c, 0, 72, 0
2, 61632, Note_on_c, 0, 84, 90
2, 61632, Note_on_c, 0, 76, 90
2, 61632, Note_on_c, 0, 79, 90
2, 61820, Note_off_c, 0, 84, 0
2, 61820, Note_off_c, 0, 76, 0
2, 61820, Note_off_c, 0, 79, 0
2, 61824, Note_on_c, 0, 72, 90
2, 61824, Note_on_c, 0, 64, 90
2, 62012, Note_off_c, 0, 72, 0
2, 62012, Note_off_c, 0, 64, 0
2, 62016, Note_on_c, 0, 72, 90
2, 62016, Note_on_c, 0, 64, 90
2, 62204, Note_off_c, 0, 72, 0
2, 62204, Note_off_c, 0, 64, 0
2, 62208, Note_on_c, 0, 72, 90
2, 62208, Note_on_c, 0, 64, 90
2, 62588, Note_off_c, 0, 72, 0
2, 62588, Note_off_c, 0, 64, 0
2, 62588, End_track
3, 0, Start_track
3, 0, Title_t, "Sonata # 3"
3, 0, Control_c, 1, 0, 0
3, 0, Program_c, 1, 0
3, 0, Control_c, 1, 7, 80
3, 0, Control_c, 1, 10, 74
3, 0, Control_c, 1, 91, 103
3, 0, Control_c, 1, 93, 58
3, 0, Key_signature, 0, "major"
3, 0, Control_c, 1, 121, 0
3, 96, Control_c, 1, 10, 53
3, 192, Control_c, 1, 91, 68
3, 240, Control_c, 1, 93, 40
3, 288, Program_c, 1, 0
3, 768, Note_on_c, 1, 60, 60
3, 768, Note_on_c, 1, 57, 60
3, 956, Note_off_c, 1, 60, 0
3, 956, Note_off_c, 1, 57, 0
3, 960, Note_on_c, 1, 60, 60
3, 960, Note_on_c, 1, 57, 60
3, 1148, Note_off_c, 1, 60, 0
3, 1148, Note_off_c, 1, 57, 0
3, 1152, Note_on_c, 1, 57, 60
3, 1152, Note_on_c, 1, 53, 60
3, 1340, Note_off_c, 1, 57, 0
3, 1340, Note_off_c, 1, 53, 0
3, 1536, Note_on_c, 1, 59, 60
3, 1536, Note_on_c, 1, 55, 60
3, 1724, Note_off_c, 1, 59, 0
3, 1724, Note_off_c, 1, 55, 0
3, 1728, Note_on_c, 1, 59, 60
3, 1728, Note_on_c, 1, 55, 60
3, 1916, Note_off_c, 1, 59, 0
3, 1916, Note_off_c, 1, 55, 0
3, 1920, Note_on_c, 1, 55, 60
3, 1920, Note_on_c, 1, 52, 60
3, 2108, Note_off_c, 1, 55, 0
3, 2108, Note_off_c, 1, 52, 0
3, 2304, Note_on_c, 1, 53, 60
3, 2876, Note_off_c, 1, 53, 0
3, 2880, Note_on_c, 1, 50, 60
3, 3068, Note_off_c, 1, 50, 0
3, 3072, Note_on_c, 1, 55, 60
3, 3260, Note_off_c, 1, 55, 0
3, 3840, Note_on_c, 1, 57, 60
3, 3840, Note_on_c, 1, 60, 60
3, 3932, Note_off_c, 1, 57, 0
3, 3932, Note_off_c, 1, 60, 0
3, 4032, Note_on_c, 1, 60, 60
3, 4032, Note_on_c, 1, 57, 60
3, 4220, Note_off_c, 1, 60, 0
3, 4220, Note_off_c, 1, 57, 0
3, 4224, Note_on_c, 1, 53, 63
3, 4224, Note_on_c, 1, 50, 63
3, 4412, Note_off_c, 1, 53, 0
3, 4412, Note_off_c, 1, 50, 0
3, 4608, Note_on_c, 1, 59, 69
3, 4608, Note_on_c, 1, 55, 69
3, 4796, Note_off_c, 1, 59, 0
3, 4796, Note_off_c, 1, 55, 0
3, 4800, Note_on_c, 1, 59, 75
3, 4800, Note_on_c, 1, 55, 75
3, 4988, Note_off_c, 1, 59, 0
3, 4988, Note_off_c, 1, 55, 0
3, 4992, Note_on_c, 1, 52, 82
3, 4992, Note_on_c, 1, 48, 82
3, 5180, Note_off_c, 1, 52, 0
3, 5180, Note_off_c, 1, 48, 0
3, 5376, Note_on_c, 1, 57, 82
3, 5376, Note_on_c, 1, 53, 82
3, 5948, Note_off_c, 1, 57, 0
3, 5948, Note_off_c, 1, 53, 0
3, 5952, Note_on_c, 1, 55, 82
3, 5952, Note_on_c, 1, 65, 82
3, 6140, Note_off_c, 1, 55, 0
3, 6140, Note_off_c, 1, 65, 0
3, 6144, Note_on_c, 1, 64, 82
3, 6144, Note_on_c, 1, 60, 82
3, 6332, Note_off_c, 1, 64, 0
3, 6332, Note_off_c, 1, 60, 0
3, 6336, Note_on_c, 1, 48, 82
3, 6524, Note_off_c, 1, 48, 0
3, 6912, Note_on_c, 1, 60, 60
3, 6912, Note_on_c, 1, 57, 60
3, 7100, Note_off_c, 1, 60, 0
3, 7100, Note_off_c, 1, 57, 0
3, 7104, Note_on_c, 1, 60, 60
3, 7104, Note_on_c, 1, 57, 60
3, 7292, Note_off_c, 1, 60, 0
3, 7292, Note_off_c, 1, 57, 0
3, 7296, Note_on_c, 1, 57, 60
3, 7296, Note_on_c, 1, 53, 60
3, 7484, Note_off_c, 1, 57, 0
3, 7484, Note_off_c, 1, 53, 0
3, 7680, Note_on_c, 1, 59, 60
3, 7680, Note_on_c, 1, 55, 60
3, 7868, Note_off_c, 1, 59, 0
3, 7868, Note_off_c, 1, 55, 0
3, 7872, Note_on_c, 1, 59, 60
3, 7872, Note_on_c, 1, 55, 60
3, 8060, Note_off_c, 1, 59, 0
3, 8060, Note_off_c, 1, 55, 0
3, 8064, Note_on_c, 1, 55, 60
3, 8064, Note_on_c, 1, 52, 60
3, 8252, Note_off_c, 1, 55, 0
3, 8252, Note_off_c, 1, 52, 0
3, 8448, Note_on_c, 1, 53, 60
3, 9020, Note_off_c, 1, 53, 0
3, 9024, Note_on_c, 1, 50, 60
3, 9212, Note_off_c, 1, 50, 0
3, 9216, Note_on_c, 1, 55, 60
3, 9404, Note_off_c, 1, 55, 0
3, 9984, Note_on_c, 1, 57, 60
3, 9984, Note_on_c, 1, 60, 60
3, 10076, Note_off_c, 1, 57, 0
3, 10076, Note_off_c, 1, 60, 0
3, 10176, Note_on_c, 1, 60, 60
3, 10176, Note_on_c, 1, 57, 60
3, 10364, Note_off_c, 1, 60, 0
3, 10364, Note_off_c, 1, 57, 0
3, 10368, Note_on_c, 1, 53, 63
3, 10368, Note_on_c, 1, 50, 63
3, 10556, Note_off_c, 1, 53, 0
3, 10556, Note_off_c, 1, 50, 0
3, 10752, Note_on_c, 1, 59, 69
3, 10752, Note_on_c, 1, 55, 69
3, 10940, Note_off_c, 1, 59, 0
3, 10940, Note_off_c, 1, 55, 0
3, 10944, Note_on_c, 1, 59, 75
3, 10944, Note_on_c, 1, 55, 75
3, 11132, Note_off_c, 1, 59, 0
3, 11132, Note_off_c, 1, 55, 0
3, 11136, Note_on_c, 1, 52, 82
3, 11136, Note_on_c, 1, 48, 82
3, 11324, Note_off_c, 1, 52, 0
3, 11324, Note_off_c, 1, 48, 0
3, 11520, Note_on_c, 1, 57, 82
3, 11520, Note_on_c, 1, 53, 82
3, 12092, Note_off_c, 1, 57, 0
3, 12092, Note_off_c, 1, 53, 0
3, 12096, Note_on_c, 1, 55, 82
3, 12096, Note_on_c, 1, 65, 82
3, 12284, Note_off_c, 1, 55, 0
3, 12284, Note_off_c, 1, 65, 0
3, 12288, Note_on_c, 1, 64, 82
3, 12288, Note_on_c, 1, 60, 82
3, 12476, Note_off_c, 1, 64, 0
3, 12476, Note_off_c, 1, 60, 0
3, 12480, Note_on_c, 1, 48, 82
3, 12668, Note_off_c, 1, 48, 0
3, 13440, Note_on_c, 1, 54, 60
3, 13532, Note_off_c, 1, 54, 0
3, 13536, Note_on_c, 1, 62, 60
3, 13628, Note_off_c, 1, 62, 0
3, 13632, Note_on_c, 1, 57, 60
3, 13724, Note_off_c, 1, 57, 0
3, 13728, Note_on_c, 1, 62, 60
3, 13820, Note_off_c, 1, 62, 0
3, 13824, Note_on_c, 1, 55, 60
3, 13916, Note_off_c, 1, 55, 0
3, 13920, Note_on_c, 1, 62, 60
3, 14012, Note_off_c, 1, 62, 0
3, 14016, Note_on_c, 1, 59, 60
3, 14108, Note_off_c, 1, 59, 0
3, 14112, Note_on_c, 1, 62, 60
3, 14204, Note_off_c, 1, 62, 0
3, 14208, Note_on_c, 1, 47, 60
3, 14300, Note_off_c, 1, 47, 0
3, 14304, Note_on_c, 1, 55, 60
3, 14396, Note_off_c, 1, 55, 0
3, 14400, Note_on_c, 1, 50, 60
3, 14492, Note_off_c, 1, 50, 0
3, 14496, Note_on_c, 1, 55, 60
3, 14588, Note_off_c, 1, 55, 0
3, 14592, Note_on_c, 1, 48, 60
3, 14684, Note_off_c, 1, 48, 0
3, 14688, Note_on_c, 1, 57, 60
3, 14780, Note_off_c, 1, 57, 0
3, 14784, Note_on_c, 1, 52, 60
3, 14876, Note_off_c, 1, 52, 0
3, 14880, Note_on_c, 1, 57, 60
3, 14972, Note_off_c, 1, 57, 0
3, 14976, Note_on_c, 1, 49, 60
3, 15068, Note_off_c, 1, 49, 0
3, 15072, Note_on_c, 1, 57, 60
3, 15164, Note_off_c, 1, 57, 0
3, 15168, Note_on_c, 1, 52, 60
3, 15260, Note_off_c, 1, 52, 0
3, 15264, Note_on_c, 1, 57, 60
3, 15356, Note_off_c, 1, 57, 0
3, 15360, Note_on_c, 1, 50, 60
3, 15548, Note_off_c, 1, 50, 0
3, 17664, Note_on_c, 1, 55, 60
3, 17664, Note_on_c, 1, 48, 60
3, 18044, Note_off_c, 1, 48, 0
3, 18048, Note_on_c, 1, 50, 60
3, 18236, Note_off_c, 1, 55, 0
3, 18240, Note_on_c, 1, 54, 60
3, 18428, Note_off_c, 1, 50, 0
3, 18428, Note_off_c, 1, 54, 0
3, 18432, Note_on_c, 1, 55, 60
3, 18620, Note_off_c, 1, 55, 0
3, 18624, Note_on_c, 1, 43, 60
3, 18812, Note_off_c, 1, 43, 0
3, 19200, Note_on_c, 1, 55, 60
3, 19200, Note_on_c, 1, 59, 60
3, 19388, Note_off_c, 1, 55, 0
3, 19388, Note_off_c, 1, 59, 0
3, 19392, Note_on_c, 1, 43, 60
3, 19580, Note_off_c, 1, 43, 0
3, 19968, Note_on_c, 1, 59, 60
3, 19968, Note_on_c, 1, 55, 60
3, 20156, Note_off_c, 1, 59, 0
3, 20156, Note_off_c, 1, 55, 0
3, 20160, Note_on_c, 1, 43, 60
3, 20348, Note_off_c, 1, 43, 0
3, 22272, Note_on_c, 1, 57, 60
3, 22272, Note_on_c, 1, 60, 60
3, 22460, Note_off_c, 1, 57, 0
3, 22460, Note_off_c, 1, 60, 0
3, 22464, Note_on_c, 1, 57, 60
3, 22464, Note_on_c, 1, 60, 60
3, 22652, Note_off_c, 1, 57, 0
3, 22652, Note_off_c, 1, 60, 0
3, 22656, Note_on_c, 1, 57, 60
3, 22656, Note_on_c, 1, 53, 60
3, 22844, Note_off_c, 1, 57, 0
3, 22844, Note_off_c, 1, 53, 0
3, 23040, Note_on_c, 1, 59, 60
3, 23040, Note_on_c, 1, 55, 60
3, 23228, Note_off_c, 1, 59, 0
3, 23228, Note_off_c, 1, 55, 0
3, 23232, Note_on_c, 1, 59, 60
3, 23232, Note_on_c, 1, 55, 60
3, 23420, Note_off_c, 1, 59, 0
3, 23420, Note_off_c, 1, 55, 0
3, 23424, Note_on_c, 1, 55, 60
3, 23424, Note_on_c, 1, 52, 60
3, 23612, Note_off_c, 1, 55, 0
3, 23612, Note_off_c, 1, 52, 0
3, 23808, Note_on_c, 1, 53, 60
3, 24380, Note_off_c, 1, 53, 0
3, 24384, Note_on_c, 1, 50, 60
3, 24572, Note_off_c, 1, 50, 0
3, 24576, Note_on_c, 1, 55, 60
3, 24764, Note_off_c, 1, 55, 0
3, 25344, Note_on_c, 1, 60, 60
3, 25344, Note_on_c, 1, 57, 60
3, 25532, Note_off_c, 1, 60, 0
3, 25532, Note_off_c, 1, 57, 0
3, 25536, Note_on_c, 1, 60, 60
3, 25536, Note_on_c, 1, 57, 60
3, 25724, Note_off_c, 1, 60, 0
3, 25724, Note_off_c, 1, 57, 0
3, 25728, Note_on_c, 1, 53, 63
3, 25728, Note_on_c, 1, 50, 63
3, 25916, Note_off_c, 1, 53, 0
3, 25916, Note_off_c, 1, 50, 0
3, 26112, Note_on_c, 1, 55, 69
3, 26112, Note_on_c, 1, 59, 69
3, 26300, Note_off_c, 1, 55, 0
3, 26300, Note_off_c, 1, 59, 0
3, 26304, Note_on_c, 1, 59, 75
3, 26304, Note_on_c, 1, 55, 75
3, 26492, Note_off_c, 1, 59, 0
3, 26492, Note_off_c, 1, 55, 0
3, 26496, Note_on_c, 1, 52, 82
3, 26496, Note_on_c, 1, 48, 82
3, 26684, Note_off_c, 1, 52, 0
3, 26684, Note_off_c, 1, 48, 0
3, 26880, Note_on_c, 1, 57, 82
3, 26880, Note_on_c, 1, 53, 82
3, 27452, Note_off_c, 1, 57, 0
3, 27452, Note_off_c, 1, 53, 0
3, 27456, Note_on_c, 1, 55, 82
3, 27456, Note_on_c, 1, 65, 82
3, 27644, Note_off_c, 1, 55, 0
3, 27644, Note_off_c, 1, 65, 0
3, 27648, Note_on_c, 1, 64, 82
3, 27648, Note_on_c, 1, 60, 82
3, 27836, Note_off_c, 1, 64, 0
3, 27836, Note_off_c, 1, 60, 0
3, 27840, Note_on_c, 1, 48, 82
3, 28028, Note_off_c, 1, 48, 0
3, 28032, Note_on_c, 1, 60, 67
3, 28032, Note_on_c, 1, 64, 67
3, 28220, Note_off_c, 1, 60, 0
3, 28220, Note_off_c, 1, 64, 0
3, 28224, Note_on_c, 1, 60, 67
3, 28224, Note_on_c, 1, 64, 67
3, 28412, Note_off_c, 1, 60, 0
3, 28412, Note_off_c, 1, 64, 0
3, 28416, Note_on_c, 1, 57, 60
3, 28416, Note_on_c, 1, 60, 60
3, 28604, Note_off_c, 1, 57, 0
3, 28604, Note_off_c, 1, 60, 0
3, 28800, Note_on_c, 1, 59, 60
3, 28800, Note_on_c, 1, 62, 60
3, 28988, Note_off_c, 1, 59, 0
3, 28988, Note_off_c, 1, 62, 0
3, 28992, Note_on_c, 1, 59, 60
3, 28992, Note_on_c, 1, 62, 60
3, 29180, Note_off_c, 1, 59, 0
3, 29180, Note_off_c, 1, 62, 0
3, 29184, Note_on_c, 1, 59, 60
3, 29184, Note_on_c, 1, 56, 60
3, 29372, Note_off_c, 1, 59, 0
3, 29372, Note_off_c, 1, 56, 0
3, 29952, Note_on_c, 1, 64, 60
3, 30044, Note_off_c, 1, 64, 0
3, 30048, Note_on_c, 1, 63, 60
3, 30140, Note_off_c, 1, 63, 0
3, 30144, Note_on_c, 1, 65, 60
3, 30236, Note_off_c, 1, 65, 0
3, 30240, Note_on_c, 1, 64, 60
3, 30332, Note_off_c, 1, 64, 0
3, 30720, Note_on_c, 1, 64, 60
3, 30812, Note_off_c, 1, 64, 0
3, 30816, Note_on_c, 1, 63, 60
3, 30908, Note_off_c, 1, 63, 0
3, 30912, Note_on_c, 1, 65, 60
3, 31004, Note_off_c, 1, 65, 0
3, 31008, Note_on_c, 1, 64, 60
3, 31100, Note_off_c, 1, 64, 0
3, 33792, Note_on_c, 1, 52, 90
3, 33884, Note_off_c, 1, 52, 0
3, 33888, Note_on_c, 1, 64, 90
3, 33980, Note_off_c, 1, 64, 0
3, 33984, Note_on_c, 1, 56, 90
3, 34076, Note_off_c, 1, 56, 0
3, 34080, Note_on_c, 1, 64, 90
3, 34172, Note_off_c, 1, 64, 0
3, 34176, Note_on_c, 1, 59, 90
3, 34268, Note_off_c, 1, 59, 0
3, 34272, Note_on_c, 1, 64, 90
3, 34364, Note_off_c, 1, 64, 0
3, 34368, Note_on_c, 1, 56, 90
3, 34460, Note_off_c, 1, 56, 0
3, 34464, Note_on_c, 1, 65, 90
3, 34556, Note_off_c, 1, 65, 0
3, 34560, Note_on_c, 1, 52, 90
3, 34652, Note_off_c, 1, 52, 0
3, 34656, Note_on_c, 1, 64, 90
3, 34748, Note_off_c, 1, 64, 0
3, 34752, Note_on_c, 1, 57, 90
3, 34844, Note_off_c, 1, 57, 0
3, 34848, Note_on_c, 1, 64, 90
3, 34940, Note_off_c, 1, 64, 0
3, 34944, Note_on_c, 1, 60, 90
3, 35036, Note_off_c, 1, 60, 0
3, 35040, Note_on_c, 1, 64, 90
3, 35132, Note_off_c, 1, 64, 0
3, 35136, Note_on_c, 1, 57, 90
3, 35228, Note_off_c, 1, 57, 0
3, 35232, Note_on_c, 1, 64, 90
3, 35324, Note_off_c, 1, 64, 0
3, 35328, Note_on_c, 1, 52, 90
3, 35420, Note_off_c, 1, 52, 0
3, 35424, Note_on_c, 1, 64, 90
3, 35516, Note_off_c, 1, 64, 0
3, 35520, Note_on_c, 1, 56, 90
3, 35612, Note_off_c, 1, 56, 0
3, 35616, Note_on_c, 1, 64, 90
3, 35708, Note_off_c, 1, 64, 0
3, 35712, Note_on_c, 1, 59, 90
3, 35804, Note_off_c, 1, 59, 0
3, 35808, Note_on_c, 1, 64, 90
3, 35900, Note_off_c, 1, 64, 0
3, 35904, Note_on_c, 1, 56, 90
3, 35996, Note_off_c, 1, 56, 0
3, 36000, Note_on_c, 1, 64, 90
3, 36092, Note_off_c, 1, 64, 0
3, 36096, Note_on_c, 1, 52, 90
3, 36188, Note_off_c, 1, 52, 0
3, 36192, Note_on_c, 1, 64, 90
3, 36284, Note_off_c, 1, 64, 0
3, 36288, Note_on_c, 1, 57, 90
3, 36380, Note_off_c, 1, 57, 0
3, 36384, Note_on_c, 1, 64, 90
3, 36476, Note_off_c, 1, 64, 0
3, 36480, Note_on_c, 1, 60, 90
3, 36572, Note_off_c, 1, 60, 0
3, 36576, Note_on_c, 1, 64, 90
3, 36668, Note_off_c, 1, 64, 0
3, 36672, Note_on_c, 1, 57, 90
3, 36764, Note_off_c, 1, 57, 0
3, 36768, Note_on_c, 1, 64, 90
3, 36860, Note_off_c, 1, 64, 0
3, 36864, Note_on_c, 1, 52, 67
3, 37052, Note_off_c, 1, 52, 0
3, 37632, Note_on_c, 1, 64, 67
3, 37724, Note_off_c, 1, 64, 0
3, 37728, Note_on_c, 1, 63, 67
3, 37820, Note_off_c, 1, 63, 0
3, 37824, Note_on_c, 1, 65, 67
3, 37916, Note_off_c, 1, 65, 0
3, 37920, Note_on_c, 1, 64, 67
3, 38012, Note_off_c, 1, 64, 0
3, 38400, Note_on_c, 1, 64, 67
3, 38492, Note_off_c, 1, 64, 0
3, 38496, Note_on_c, 1, 63, 67
3, 38588, Note_off_c, 1, 63, 0
3, 38592, Note_on_c, 1, 65, 67
3, 38684, Note_off_c, 1, 65, 0
3, 38688, Note_on_c, 1, 64, 67
3, 38780, Note_off_c, 1, 64, 0
3, 38784, Note_on_c, 1, 60, 67
3, 38784, Note_on_c, 1, 52, 67
3, 38972, Note_off_c, 1, 60, 0
3, 38972, Note_off_c, 1, 52, 0
3, 38976, Note_on_c, 1, 60, 67
3, 38976, Note_on_c, 1, 52, 67
3, 39164, Note_off_c, 1, 60, 0
3, 39164, Note_off_c, 1, 52, 0
3, 39168, Note_on_c, 1, 48, 60
3, 39168, Note_on_c, 1, 57, 60
3, 39356, Note_off_c, 1, 48, 0
3, 39356, Note_off_c, 1, 57, 0
3, 39552, Note_on_c, 1, 59, 60
3, 39552, Note_on_c, 1, 50, 60
3, 39740, Note_off_c, 1, 59, 0
3, 39740, Note_off_c, 1, 50, 0
3, 39744, Note_on_c, 1, 59, 60
3, 39744, Note_on_c, 1, 50, 60
3, 39932, Note_off_c, 1, 59, 0
3, 39932, Note_off_c, 1, 50, 0
3, 39936, Note_on_c, 1, 55, 67
3, 39936, Note_on_c, 1, 47, 67
3, 40124, Note_off_c, 1, 55, 0
3, 40124, Note_off_c, 1, 47, 0
3, 40320, Note_on_c, 1, 59, 67
3, 40320, Note_on_c, 1, 55, 67
3, 40700, Note_off_c, 1, 59, 0
3, 40700, Note_off_c, 1, 55, 0
3, 40704, Note_on_c, 1, 60, 67
3, 40704, Note_on_c, 1, 57, 67
3, 40892, Note_off_c, 1, 60, 0
3, 40892, Note_off_c, 1, 57, 0
3, 40896, Note_on_c, 1, 59, 67
3, 40896, Note_on_c, 1, 62, 67
3, 41084, Note_off_c, 1, 59, 0
3, 41084, Note_off_c, 1, 62, 0
3, 42624, Note_on_c, 1, 52, 60
3, 42624, Note_on_c, 1, 60, 60
3, 42812, Note_off_c, 1, 60, 0
3, 42816, Note_on_c, 1, 59, 60
3, 43004, Note_off_c, 1, 52, 0
3, 43004, Note_off_c, 1, 59, 0
3, 43008, Note_on_c, 1, 57, 60
3, 43100, Note_off_c, 1, 57, 0
3, 43104, Note_on_c, 1, 60, 60
3, 43196, Note_off_c, 1, 60, 0
3, 43200, Note_on_c, 1, 64, 60
3, 43292, Note_off_c, 1, 64, 0
3, 43296, Note_on_c, 1, 60, 60
3, 43388, Note_off_c, 1, 60, 0
3, 43392, Note_on_c, 1, 52, 60
3, 43484, Note_off_c, 1, 52, 0
3, 43488, Note_on_c, 1, 59, 60
3, 43580, Note_off_c, 1, 59, 0
3, 43584, Note_on_c, 1, 62, 60
3, 43676, Note_off_c, 1, 62, 0
3, 43680, Note_on_c, 1, 59, 60
3, 43772, Note_off_c, 1, 59, 0
3, 43776, Note_on_c, 1, 57, 60
3, 43868, Note_off_c, 1, 57, 0
3, 43872, Note_on_c, 1, 60, 60
3, 43964, Note_off_c, 1, 60, 0
3, 43968, Note_on_c, 1, 64, 60
3, 44060, Note_off_c, 1, 64, 0
3, 44064, Note_on_c, 1, 60, 60
3, 44156, Note_off_c, 1, 60, 0
3, 44160, Note_on_c, 1, 52, 60
3, 44252, Note_off_c, 1, 52, 0
3, 44256, Note_on_c, 1, 59, 60
3, 44348, Note_off_c, 1, 59, 0
3, 44352, Note_on_c, 1, 62, 60
3, 44444, Note_off_c, 1, 62, 0
3, 44448, Note_on_c, 1, 59, 60
3, 44540, Note_off_c, 1, 59, 0
3, 44544, Note_on_c, 1, 57, 60
3, 44636, Note_off_c, 1, 57, 0
3, 44640, Note_on_c, 1, 60, 60
3, 44732, Note_off_c, 1, 60, 0
3, 44736, Note_on_c, 1, 64, 60
3, 44828, Note_off_c, 1, 64, 0
3, 44832, Note_on_c, 1, 60, 60
3, 44924, Note_off_c, 1, 60, 0
3, 44928, Note_on_c, 1, 52, 60
3, 45020, Note_off_c, 1, 52, 0
3, 45024, Note_on_c, 1, 59, 60
3, 45116, Note_off_c, 1, 59, 0
3, 45120, Note_on_c, 1, 62, 60
3, 45212, Note_off_c, 1, 62, 0
3, 45216, Note_on_c, 1, 59, 60
3, 45308, Note_off_c, 1, 59, 0
3, 45312, Note_on_c, 1, 57, 60
3, 45404, Note_off_c, 1, 57, 0
3, 45408, Note_on_c, 1, 60, 60
3, 45500, Note_off_c, 1, 60, 0
3, 45504, Note_on_c, 1, 64, 60
3, 45596, Note_off_c, 1, 64, 0
3, 45600, Note_on_c, 1, 60, 60
3, 45692, Note_off_c, 1, 60, 0
3, 45696, Note_on_c, 1, 55, 60
3, 45788, Note_off_c, 1, 55, 0
3, 45792, Note_on_c, 1, 60, 60
3, 45884, Note_off_c, 1, 60, 0
3, 45888, Note_on_c, 1, 65, 60
3, 45980, Note_off_c, 1, 65, 0
3, 45984, Note_on_c, 1, 62, 60
3, 46076, Note_off_c, 1, 62, 0
3, 46848, Note_on_c, 1, 57, 60
3, 46848, Note_on_c, 1, 60, 60
3, 47036, Note_off_c, 1, 57, 0
3, 47036, Note_off_c, 1, 60, 0
3, 47040, Note_on_c, 1, 57, 60
3, 47040, Note_on_c, 1, 60, 60
3, 47228, Note_off_c, 1, 57, 0
3, 47228, Note_off_c, 1, 60, 0
3, 47232, Note_on_c, 1, 57, 60
3, 47232, Note_on_c, 1, 53, 60
3, 47420, Note_off_c, 1, 57, 0
3, 47420, Note_off_c, 1, 53, 0
3, 47616, Note_on_c, 1, 59, 60
3, 47616, Note_on_c, 1, 55, 60
3, 47804, Note_off_c, 1, 59, 0
3, 47804, Note_off_c, 1, 55, 0
3, 47808, Note_on_c, 1, 59, 60
3, 47808, Note_on_c, 1, 55, 60
3, 47996, Note_off_c, 1, 59, 0
3, 47996, Note_off_c, 1, 55, 0
3, 48000, Note_on_c, 1, 55, 60
3, 48000, Note_on_c, 1, 52, 60
3, 48188, Note_off_c, 1, 55, 0
3, 48188, Note_off_c, 1, 52, 0
3, 48384, Note_on_c, 1, 53, 60
3, 48956, Note_off_c, 1, 53, 0
3, 48960, Note_on_c, 1, 50, 60
3, 49148, Note_off_c, 1, 50, 0
3, 49152, Note_on_c, 1, 55, 60
3, 49340, Note_off_c, 1, 55, 0
3, 49920, Note_on_c, 1, 60, 60
3, 49920, Note_on_c, 1, 57, 60
3, 50108, Note_off_c, 1, 60, 0
3, 50108, Note_off_c, 1, 57, 0
3, 50112, Note_on_c, 1, 60, 60
3, 50112, Note_on_c, 1, 57, 60
3, 50300, Note_off_c, 1, 60, 0
3, 50300, Note_off_c, 1, 57, 0
3, 50304, Note_on_c, 1, 53, 63
3, 50304, Note_on_c, 1, 50, 63
3, 50492, Note_off_c, 1, 53, 0
3, 50492, Note_off_c, 1, 50, 0
3, 50688, Note_on_c, 1, 59, 69
3, 50688, Note_on_c, 1, 55, 69
3, 50876, Note_off_c, 1, 59, 0
3, 50876, Note_off_c, 1, 55, 0
3, 50880, Note_on_c, 1, 59, 75
3, 50880, Note_on_c, 1, 55, 75
3, 51068, Note_off_c, 1, 59, 0
3, 51068, Note_off_c, 1, 55, 0
3, 51072, Note_on_c, 1, 52, 82
3, 51072, Note_on_c, 1, 48, 82
3, 51260, Note_off_c, 1, 52, 0
3, 51260, Note_off_c, 1, 48, 0
3, 51456, Note_on_c, 1, 57, 82
3, 51456, Note_on_c, 1, 53, 82
3, 52028, Note_off_c, 1, 57, 0
3, 52028, Note_off_c, 1, 53, 0
3, 52032, Note_on_c, 1, 55, 82
3, 52032, Note_on_c, 1, 65, 82
3, 52220, Note_off_c, 1, 55, 0
3, 52220, Note_off_c, 1, 65, 0
3, 52224, Note_on_c, 1, 60, 82
3, 52224, Note_on_c, 1, 64, 82
3, 52412, Note_off_c, 1, 60, 0
3, 52412, Note_off_c, 1, 64, 0
3, 52416, Note_on_c, 1, 48, 82
3, 52604, Note_off_c, 1, 48, 0
3, 52608, Note_on_c, 1, 53, 45
3, 52700, Note_off_c, 1, 53, 0
3, 52704, Note_on_c, 1, 59, 45
3, 52796, Note_off_c, 1, 59, 0
3, 52800, Note_on_c, 1, 55, 45
3, 52892, Note_off_c, 1, 55, 0
3, 52896, Note_on_c, 1, 59, 45
3, 52988, Note_off_c, 1, 59, 0
3, 52992, Note_on_c, 1, 52, 45
3, 53084, Note_off_c, 1, 52, 0
3, 53088, Note_on_c, 1, 60, 45
3, 53180, Note_off_c, 1, 60, 0
3, 53184, Note_on_c, 1, 55, 45
3, 53276, Note_off_c, 1, 55, 0
3, 53280, Note_on_c, 1, 60, 45
3, 53372, Note_off_c, 1, 60, 0
3, 53376, Note_on_c, 1, 53, 45
3, 53468, Note_off_c, 1, 53, 0
3, 53472, Note_on_c, 1, 59, 45
3, 53564, Note_off_c, 1, 59, 0
3, 53568, Note_on_c, 1, 55, 45
3, 53660, Note_off_c, 1, 55, 0
3, 53664, Note_on_c, 1, 59, 45
3, 53756, Note_off_c, 1, 59, 0
3, 53760, Note_on_c, 1, 52, 45
3, 53852, Note_off_c, 1, 52, 0
3, 53856, Note_on_c, 1, 60, 45
3, 53948, Note_off_c, 1, 60, 0
3, 53952, Note_on_c, 1, 55, 45
3, 54044, Note_off_c, 1, 55, 0
3, 54048, Note_on_c, 1, 60, 45
3, 54140, Note_off_c, 1, 60, 0
3, 54144, Note_on_c, 1, 53, 45
3, 54236, Note_off_c, 1, 53, 0
3, 54240, Note_on_c, 1, 62, 45
3, 54332, Note_off_c, 1, 62, 0
3, 54336, Note_on_c, 1, 57, 45
3, 54428, Note_off_c, 1, 57, 0
3, 54432, Note_on_c, 1, 62, 45
3, 54524, Note_off_c, 1, 62, 0
3, 54528, Note_on_c, 1, 55, 45
3, 54620, Note_off_c, 1, 55, 0
3, 54624, Note_on_c, 1, 64, 45
3, 54716, Note_off_c, 1, 64, 0
3, 54720, Note_on_c, 1, 60, 45
3, 54812, Note_off_c, 1, 60, 0
3, 54816, Note_on_c, 1, 64, 45
3, 54908, Note_off_c, 1, 64, 0
3, 54912, Note_on_c, 1, 55, 45
3, 55004, Note_off_c, 1, 55, 0
3, 55008, Note_on_c, 1, 65, 45
3, 55100, Note_off_c, 1, 65, 0
3, 55104, Note_on_c, 1, 62, 45
3, 55196, Note_off_c, 1, 62, 0
3, 55200, Note_on_c, 1, 65, 45
3, 55292, Note_off_c, 1, 65, 0
3, 55680, Note_on_c, 1, 53, 45
3, 55772, Note_off_c, 1, 53, 0
3, 55776, Note_on_c, 1, 59, 45
3, 55868, Note_off_c, 1, 59, 0
3, 55872, Note_on_c, 1, 55, 45
3, 55964, Note_off_c, 1, 55, 0
3, 55968, Note_on_c, 1, 59, 45
3, 56060, Note_off_c, 1, 59, 0
3, 56064, Note_on_c, 1, 52, 45
3, 56156, Note_off_c, 1, 52, 0
3, 56160, Note_on_c, 1, 60, 45
3, 56252, Note_off_c, 1, 60, 0
3, 56256, Note_on_c, 1, 55, 45
3, 56348, Note_off_c, 1, 55, 0
3, 56352, Note_on_c, 1, 60, 45
3, 56444, Note_off_c, 1, 60, 0
3, 56448, Note_on_c, 1, 53, 45
3, 56540, Note_off_c, 1, 53, 0
3, 56544, Note_on_c, 1, 59, 45
3, 56636, Note_off_c, 1, 59, 0
3, 56640, Note_on_c, 1, 55, 45
3, 56732, Note_off_c, 1, 55, 0
3, 56736, Note_on_c, 1, 59, 45
3, 56828, Note_off_c, 1, 59, 0
3, 56832, Note_on_c, 1, 48, 45
3, 56924, Note_off_c, 1, 48, 0
3, 56928, Note_on_c, 1, 60, 45
3, 57020, Note_off_c, 1, 60, 0
3, 57024, Note_on_c, 1, 55, 45
3, 57116, Note_off_c, 1, 55, 0
3, 57120, Note_on_c, 1, 60, 45
3, 57212, Note_off_c, 1, 60, 0
3, 57216, Note_on_c, 1, 53, 45
3, 57308, Note_off_c, 1, 53, 0
3, 57312, Note_on_c, 1, 62, 45
3, 57404, Note_off_c, 1, 62, 0
3, 57408, Note_on_c, 1, 57, 45
3, 57500, Note_off_c, 1, 57, 0
3, 57504, Note_on_c, 1, 62, 45
3, 57596, Note_off_c, 1, 62, 0
3, 57600, Note_on_c, 1, 55, 45
3, 57692, Note_off_c, 1, 55, 0
3, 57696, Note_on_c, 1, 64, 45
3, 57788, Note_off_c, 1, 64, 0
3, 57792, Note_on_c, 1, 60, 45
3, 57884, Note_off_c, 1, 60, 0
3, 57888, Note_on_c, 1, 64, 45
3, 57980, Note_off_c, 1, 64, 0
3, 57984, Note_on_c, 1, 55, 45
3, 58076, Note_off_c, 1, 55, 0
3, 58080, Note_on_c, 1, 65, 45
3, 58172, Note_off_c, 1, 65, 0
3, 58176, Note_on_c, 1, 62, 45
3, 58268, Note_off_c, 1, 62, 0
3, 58272, Note_on_c, 1, 65, 45
3, 58364, Note_off_c, 1, 65, 0
3, 58368, Note_on_c, 1, 60, 90
3, 58460, Note_off_c, 1, 60, 0
3, 58464, Note_on_c, 1, 64, 90
3, 58556, Note_off_c, 1, 64, 0
3, 58560, Note_on_c, 1, 55, 90
3, 58652, Note_off_c, 1, 55, 0
3, 58656, Note_on_c, 1, 60, 90
3, 58748, Note_off_c, 1, 60, 0
3, 58752, Note_on_c, 1, 52, 90
3, 58844, Note_off_c, 1, 52, 0
3, 58848, Note_on_c, 1, 55, 90
3, 58940, Note_off_c, 1, 55, 0
3, 58944, Note_on_c, 1, 48, 90
3, 59036, Note_off_c, 1, 48, 0
3, 59040, Note_on_c, 1, 52, 90
3, 59132, Note_off_c, 1, 52, 0
3, 59136, Note_on_c, 1, 55, 90
3, 59324, Note_off_c, 1, 55, 0
3, 59520, Note_on_c, 1, 43, 90
3, 59708, Note_off_c, 1, 43, 0
3, 59904, Note_on_c, 1, 60, 90
3, 59996, Note_off_c, 1, 60, 0
3, 60000, Note_on_c, 1, 64, 90
3, 60092, Note_off_c, 1, 64, 0
3, 60096, Note_on_c, 1, 55, 90
3, 60188, Note_off_c, 1, 55, 0
3, 60192, Note_on_c, 1, 60, 90
3, 60284, Note_off_c, 1, 60, 0
3, 60288, Note_on_c, 1, 52, 90
3, 60380, Note_off_c, 1, 52, 0
3, 60384, Note_on_c, 1, 55, 90
3, 60476, Note_off_c, 1, 55, 0
3, 60480, Note_on_c, 1, 48, 90
3, 60572, Note_off_c, 1, 48, 0
3, 60576, Note_on_c, 1, 52, 90
3, 60668, Note_off_c, 1, 52, 0
3, 60672, Note_on_c, 1, 55, 90
3, 60860, Note_off_c, 1, 55, 0
3, 61056, Note_on_c, 1, 43, 90
3, 61244, Note_off_c, 1, 43, 0
3, 61440, Note_on_c, 1, 48, 90
3, 61440, Note_on_c, 1, 36, 90
3, 61628, Note_off_c, 1, 48, 0
3, 61628, Note_off_c, 1, 36, 0
3, 61632, Note_on_c, 1, 52, 90
3, 61632, Note_on_c, 1, 40, 90
3, 61820, Note_off_c, 1, 52, 0
3, 61820, Note_off_c, 1, 40, 0
3, 61824, Note_on_c, 1, 55, 90
3, 61824, Note_on_c, 1, 43, 90
3, 62012, Note_off_c, 1, 55, 0
3, 62012, Note_off_c, 1, 43, 0
3, 62016, Note_on_c, 1, 52, 90
3, 62016, Note_on_c, 1, 40, 90
3, 62204, Note_off_c, 1, 52, 0
3, 62204, Note_off_c, 1, 40, 0
3, 62208, Note_on_c, 1, 48, 90
3, 62208, Note_on_c, 1, 36, 90
3, 62588, Note_off_c, 1, 48, 0
3, 62588, Note_off_c, 1, 36, 0
3, 62588, End_track
4, 0, Start_track
4, 0, Title_t, "K545-a -Rondo Allegretto Grazioso"
4, 0, Key_signature, 0, "major"
4, 0, End_track
5, 0, Start_track
5, 0, Title_t, "by Bob"
5, 0, Key_signature, 0, "major"
5, 0, End_track
6, 0, Start_track
6, 0, Title_t, "Fisher"
6, 0, Key_signature, 0, "major"
6, 0, End_track
7, 0, Start_track
7, 0, Key_signature, 0, "major"
7, 0, End_track
8, 0, Start_track
8, 0, Key_signature, 0, "major"
8, 0, End_track
9, 0, Start_track
9, 0, Key_signature, 0, "major"
9, 0, End_track
10, 0, Start_track
10, 0, Key_signature, 0, "major"
10, 0, End_track
11, 0, Start_track
11, 0, Key_signature, 0, "major"
11, 0, End_track
12, 0, Start_track
12, 0, Key_signature, 0, "major"
12, 0, End_track
13, 0, Start_track
13, 0, Key_signature, 0, "major"
13, 0, End_track
14, 0, Start_track
14, 0, Key_signature, 0, "major"
14, 0, End_track
15, 0, Start_track
15, 0, Key_signature, 0, "major"
15, 0, End_track
16, 0, Start_track
16, 0, Key_signature, 0, "major"
16, 0, End_track
17, 0, Start_track
17, 0, Key_signature, 0, "major"
17, 0, End_track
18, 0, Start_track
18, 0, Key_signature, 0, "major"
18, 0, End_track
0, 0, End_of_file
