0, 0, Header, 1, 13, 384
1, 0, Start_track
1, 0, Time_signature, 6, 3, 96, 8
1, 0, Sequencer_specific, 3, 0, 0, 65
1, 0, Sequencer_specific, 5, 0, 0, 119, 14, 0
1, 0, Tempo, 600000
1, 1152, Tempo, 1428571
1, 1152, End_track
2, 0, Start_track
2, 0, Title_t, "Mozart Piano Concerto #23"
2, 0, Control_c, 0, 0, 0
2, 0, Program_c, 0, 0
2, 0, Control_c, 0, 10, 63
2, 0, Control_c, 0, 91, 42
2, 0, Control_c, 0, 93, 0
2, 0, Key_signature, 3, "major"
2, 0, Control_c, 0, 121, 0
2, 192, Control_c, 0, 10, 63
2, 240, Control_c, 0, 91, 85
2, 288, Control_c, 0, 93, 35
2, 336, Program_c, 0, 0
2, 1152, Note_on_c, 0, 73, 65
2, 1438, Note_off_c, 0, 73, 0
2, 1440, Note_on_c, 0, 74, 65
2, 1534, Note_off_c, 0, 74, 0
2, 1536, Note_on_c, 0, 73, 65
2, 1696, Note_off_c, 0, 73, 0
2, 1728, Note_on_c, 0, 73, 65
2, 1918, Note_off_c, 0, 73, 0
2, 1920, Note_on_c, 0, 78, 65
2, 2110, Note_off_c, 0, 78, 0
2, 2112, Note_on_c, 0, 81, 65
2, 2272, Note_off_c, 0, 81, 0
2, 2304, Note_on_c, 0, 81, 75
2, 2494, Note_off_c, 0, 81, 0
2, 2496, Note_on_c, 0, 71, 65
2, 2656, Note_off_c, 0, 71, 0
2, 2688, Note_on_c, 0, 80, 65
2, 2768, Note_off_c, 0, 80, 0
2, 3072, Note_on_c, 0, 71, 65
2, 3550, Note_off_c, 0, 71, 0
2, 3552, Note_on_c, 0, 69, 65
2, 3646, Note_off_c, 0, 69, 0
2, 3648, Note_on_c, 0, 78, 65
2, 4192, Note_off_c, 0, 78, 0
2, 4224, Note_on_c, 0, 68, 65
2, 4414, Note_off_c, 0, 68, 0
2, 4416, Note_on_c, 0, 74, 65
2, 4576, Note_off_c, 0, 74, 0
2, 4608, Note_on_c, 0, 66, 65
2, 4990, Note_off_c, 0, 66, 0
2, 4992, Note_on_c, 0, 65, 65
2, 5038, Note_off_c, 0, 65, 0
2, 5040, Note_on_c, 0, 66, 65
2, 5086, Note_off_c, 0, 66, 0
2, 5088, Note_on_c, 0, 68, 65
2, 5134, Note_off_c, 0, 68, 0
2, 5136, Note_on_c, 0, 66, 65
2, 5182, Note_off_c, 0, 66, 0
2, 5184, Note_on_c, 0, 65, 65
2, 5344, Note_off_c, 0, 65, 0
2, 5760, Note_on_c, 0, 74, 65
2, 6046, Note_off_c, 0, 74, 0
2, 6048, Note_on_c, 0, 76, 65
2, 6142, Note_off_c, 0, 76, 0
2, 6144, Note_on_c, 0, 74, 65
2, 6334, Note_off_c, 0, 74, 0
2, 6336, Note_on_c, 0, 74, 65
2, 6382, Note_off_c, 0, 74, 0
2, 6384, Note_on_c, 0, 76, 65
2, 6430, Note_off_c, 0, 76, 0
2, 6432, Note_on_c, 0, 78, 65
2, 6622, Note_off_c, 0, 78, 0
2, 6624, Note_on_c, 0, 76, 65
2, 6718, Note_off_c, 0, 76, 0
2, 6720, Note_on_c, 0, 74, 65
2, 6880, Note_off_c, 0, 74, 0
2, 6912, Note_on_c, 0, 72, 75
2, 7486, Note_off_c, 0, 72, 0
2, 7488, Note_on_c, 0, 73, 65
2, 7648, Note_off_c, 0, 73, 0
2, 8064, Note_on_c, 0, 73, 65
2, 8158, Note_off_c, 0, 73, 0
2, 8160, Note_on_c, 0, 71, 65
2, 8240, Note_off_c, 0, 71, 0
2, 8256, Note_on_c, 0, 70, 65
2, 8350, Note_off_c, 0, 70, 0
2, 8352, Note_on_c, 0, 71, 65
2, 8432, Note_off_c, 0, 71, 0
2, 8448, Note_on_c, 0, 70, 65
2, 8542, Note_off_c, 0, 70, 0
2, 8544, Note_on_c, 0, 71, 65
2, 8624, Note_off_c, 0, 71, 0
2, 8640, Note_on_c, 0, 81, 65
2, 8734, Note_off_c, 0, 81, 0
2, 8736, Note_on_c, 0, 80, 65
2, 8816, Note_off_c, 0, 80, 0
2, 8832, Note_on_c, 0, 78, 65
2, 8926, Note_off_c, 0, 78, 0
2, 8928, Note_on_c, 0, 77, 65
2, 9008, Note_off_c, 0, 77, 0
2, 9024, Note_on_c, 0, 74, 65
2, 9118, Note_off_c, 0, 74, 0
2, 9120, Note_on_c, 0, 73, 65
2, 9200, Note_off_c, 0, 73, 0
2, 9216, Note_on_c, 0, 71, 65
2, 9598, Note_off_c, 0, 71, 0
2, 9600, Note_on_c, 0, 70, 65
2, 9760, Note_off_c, 0, 70, 0
2, 9792, Note_on_c, 0, 69, 65
2, 9952, Note_off_c, 0, 69, 0
2, 10368, Note_on_c, 0, 67, 65
2, 10654, Note_off_c, 0, 67, 0
2, 10656, Note_on_c, 0, 69, 65
2, 10750, Note_off_c, 0, 69, 0
2, 10752, Note_on_c, 0, 67, 65
2, 10942, Note_off_c, 0, 67, 0
2, 10944, Note_on_c, 0, 67, 65
2, 11024, Note_off_c, 0, 67, 0
2, 11328, Note_on_c, 0, 67, 65
2, 11408, Note_off_c, 0, 67, 0
2, 11520, Note_on_c, 0, 67, 65
2, 11600, Note_off_c, 0, 67, 0
2, 11712, Note_on_c, 0, 71, 65
2, 11792, Note_off_c, 0, 71, 0
2, 11904, Note_on_c, 0, 74, 65
2, 11984, Note_off_c, 0, 74, 0
2, 12096, Note_on_c, 0, 79, 65
2, 12176, Note_off_c, 0, 79, 0
2, 12288, Note_on_c, 0, 83, 65
2, 12368, Note_off_c, 0, 83, 0
2, 12480, Note_on_c, 0, 86, 65
2, 12560, Note_off_c, 0, 86, 0
2, 12672, Note_on_c, 0, 66, 65
2, 12958, Note_off_c, 0, 66, 0
2, 12960, Note_on_c, 0, 68, 65
2, 13054, Note_off_c, 0, 68, 0
2, 13056, Note_on_c, 0, 66, 65
2, 13216, Note_off_c, 0, 66, 0
2, 13248, Note_on_c, 0, 66, 65
2, 13248, Note_on_c, 0, 69, 65
2, 13630, Note_off_c, 0, 66, 0
2, 13630, Note_off_c, 0, 69, 0
2, 13632, Note_on_c, 0, 68, 65
2, 13632, Note_on_c, 0, 65, 65
2, 13822, Note_off_c, 0, 68, 0
2, 13822, Note_off_c, 0, 65, 0
2, 13824, Note_on_c, 0, 66, 65
2, 14136, Note_off_c, 0, 66, 0
2, 23376, Note_on_c, 0, 73, 65
2, 23420, Note_off_c, 0, 73, 0
2, 23424, Note_on_c, 0, 74, 65
2, 23468, Note_off_c, 0, 74, 0
2, 23472, Note_on_c, 0, 73, 65
2, 23516, Note_off_c, 0, 73, 0
2, 23520, Note_on_c, 0, 72, 65
2, 23564, Note_off_c, 0, 72, 0
2, 23568, Note_on_c, 0, 73, 65
2, 23612, Note_off_c, 0, 73, 0
2, 23616, Note_on_c, 0, 81, 65
2, 23902, Note_off_c, 0, 81, 0
2, 23904, Note_on_c, 0, 80, 65
2, 23998, Note_off_c, 0, 80, 0
2, 24000, Note_on_c, 0, 78, 65
2, 24160, Note_off_c, 0, 78, 0
2, 24192, Note_on_c, 0, 77, 65
2, 24272, Note_off_c, 0, 77, 0
2, 24384, Note_on_c, 0, 76, 65
2, 24464, Note_off_c, 0, 76, 0
2, 24576, Note_on_c, 0, 75, 65
2, 24656, Note_off_c, 0, 75, 0
2, 24768, Note_on_c, 0, 74, 65
2, 24848, Note_off_c, 0, 74, 0
2, 24960, Note_on_c, 0, 73, 65
2, 25040, Note_off_c, 0, 73, 0
2, 25152, Note_on_c, 0, 73, 65
2, 25232, Note_off_c, 0, 73, 0
2, 25344, Note_on_c, 0, 73, 65
2, 25534, Note_off_c, 0, 73, 0
2, 25680, Note_on_c, 0, 73, 65
2, 25726, Note_off_c, 0, 73, 0
2, 25728, Note_on_c, 0, 74, 65
2, 25774, Note_off_c, 0, 74, 0
2, 25776, Note_on_c, 0, 73, 65
2, 25822, Note_off_c, 0, 73, 0
2, 25824, Note_on_c, 0, 72, 65
2, 25870, Note_off_c, 0, 72, 0
2, 25872, Note_on_c, 0, 73, 65
2, 25918, Note_off_c, 0, 73, 0
2, 25920, Note_on_c, 0, 81, 65
2, 26206, Note_off_c, 0, 81, 0
2, 26208, Note_on_c, 0, 80, 65
2, 26302, Note_off_c, 0, 80, 0
2, 26304, Note_on_c, 0, 78, 65
2, 26464, Note_off_c, 0, 78, 0
2, 26496, Note_on_c, 0, 78, 65
2, 26590, Note_off_c, 0, 78, 0
2, 26592, Note_on_c, 0, 77, 65
2, 26632, Note_off_c, 0, 77, 0
2, 26688, Note_on_c, 0, 77, 65
2, 26728, Note_off_c, 0, 77, 0
2, 26784, Note_on_c, 0, 76, 65
2, 26824, Note_off_c, 0, 76, 0
2, 26880, Note_on_c, 0, 75, 65
2, 26920, Note_off_c, 0, 75, 0
2, 26976, Note_on_c, 0, 74, 65
2, 27016, Note_off_c, 0, 74, 0
2, 27072, Note_on_c, 0, 74, 65
2, 27166, Note_off_c, 0, 74, 0
2, 27168, Note_on_c, 0, 73, 65
2, 27208, Note_off_c, 0, 73, 0
2, 27264, Note_on_c, 0, 73, 65
2, 27304, Note_off_c, 0, 73, 0
2, 27360, Note_on_c, 0, 73, 65
2, 27400, Note_off_c, 0, 73, 0
2, 27456, Note_on_c, 0, 73, 65
2, 27496, Note_off_c, 0, 73, 0
2, 27552, Note_on_c, 0, 73, 65
2, 27592, Note_off_c, 0, 73, 0
2, 27648, Note_on_c, 0, 73, 65
2, 27808, Note_off_c, 0, 73, 0
2, 27984, Note_on_c, 0, 73, 65
2, 28030, Note_off_c, 0, 73, 0
2, 28032, Note_on_c, 0, 74, 65
2, 28078, Note_off_c, 0, 74, 0
2, 28080, Note_on_c, 0, 73, 65
2, 28126, Note_off_c, 0, 73, 0
2, 28128, Note_on_c, 0, 72, 65
2, 28174, Note_off_c, 0, 72, 0
2, 28176, Note_on_c, 0, 73, 65
2, 28222, Note_off_c, 0, 73, 0
2, 28224, Note_on_c, 0, 81, 65
2, 28510, Note_off_c, 0, 81, 0
2, 28512, Note_on_c, 0, 80, 65
2, 28606, Note_off_c, 0, 80, 0
2, 28608, Note_on_c, 0, 78, 65
2, 28768, Note_off_c, 0, 78, 0
2, 28800, Note_on_c, 0, 78, 65
2, 28894, Note_off_c, 0, 78, 0
2, 28896, Note_on_c, 0, 76, 65
2, 28976, Note_off_c, 0, 76, 0
2, 28992, Note_on_c, 0, 76, 65
2, 29032, Note_off_c, 0, 76, 0
2, 29184, Note_on_c, 0, 76, 65
2, 29224, Note_off_c, 0, 76, 0
2, 29376, Note_on_c, 0, 76, 65
2, 29566, Note_off_c, 0, 76, 0
2, 29568, Note_on_c, 0, 78, 65
2, 29758, Note_off_c, 0, 78, 0
2, 29760, Note_on_c, 0, 74, 65
2, 29920, Note_off_c, 0, 74, 0
2, 29952, Note_on_c, 0, 73, 65
2, 30112, Note_off_c, 0, 73, 0
2, 30336, Note_on_c, 0, 76, 65
2, 30496, Note_off_c, 0, 76, 0
2, 30528, Note_on_c, 0, 76, 65
2, 30814, Note_off_c, 0, 76, 0
2, 30816, Note_on_c, 0, 74, 65
2, 30910, Note_off_c, 0, 74, 0
2, 30912, Note_on_c, 0, 73, 65
2, 31072, Note_off_c, 0, 73, 0
2, 31104, Note_on_c, 0, 71, 65
2, 31294, Note_off_c, 0, 71, 0
2, 31296, Note_on_c, 0, 74, 65
2, 31486, Note_off_c, 0, 74, 0
2, 31488, Note_on_c, 0, 78, 65
2, 31678, Note_off_c, 0, 78, 0
2, 31680, Note_on_c, 0, 81, 65
2, 31840, Note_off_c, 0, 81, 0
2, 32064, Note_on_c, 0, 73, 65
2, 32254, Note_off_c, 0, 73, 0
2, 32256, Note_on_c, 0, 76, 65
2, 32542, Note_off_c, 0, 76, 0
2, 32544, Note_on_c, 0, 73, 65
2, 32638, Note_off_c, 0, 73, 0
2, 32640, Note_on_c, 0, 71, 65
2, 32800, Note_off_c, 0, 71, 0
2, 32928, Note_on_c, 0, 64, 65
2, 33022, Note_off_c, 0, 64, 0
2, 33024, Note_on_c, 0, 68, 65
2, 33118, Note_off_c, 0, 68, 0
2, 33120, Note_on_c, 0, 71, 65
2, 33214, Note_off_c, 0, 71, 0
2, 33216, Note_on_c, 0, 76, 65
2, 33310, Note_off_c, 0, 76, 0
2, 33312, Note_on_c, 0, 71, 65
2, 33406, Note_off_c, 0, 71, 0
2, 33408, Note_on_c, 0, 74, 65
2, 33598, Note_off_c, 0, 74, 0
2, 33600, Note_on_c, 0, 72, 65
2, 33760, Note_off_c, 0, 72, 0
2, 34080, Note_on_c, 0, 64, 65
2, 34174, Note_off_c, 0, 64, 0
2, 34176, Note_on_c, 0, 69, 65
2, 34270, Note_off_c, 0, 69, 0
2, 34272, Note_on_c, 0, 72, 65
2, 34366, Note_off_c, 0, 72, 0
2, 34368, Note_on_c, 0, 76, 65
2, 34462, Note_off_c, 0, 76, 0
2, 34464, Note_on_c, 0, 72, 65
2, 34558, Note_off_c, 0, 72, 0
2, 34560, Note_on_c, 0, 70, 65
2, 34750, Note_off_c, 0, 70, 0
2, 34752, Note_on_c, 0, 71, 65
2, 34912, Note_off_c, 0, 71, 0
2, 35328, Note_on_c, 0, 64, 65
2, 35518, Note_off_c, 0, 64, 0
2, 35520, Note_on_c, 0, 88, 65
2, 35680, Note_off_c, 0, 88, 0
2, 35712, Note_on_c, 0, 88, 80
2, 35904, Note_on_c, 0, 87, 65
2, 36064, Note_off_c, 0, 87, 0
2, 36094, Note_off_c, 0, 88, 0
2, 36576, Note_on_c, 0, 69, 65
2, 36670, Note_off_c, 0, 69, 0
2, 36672, Note_on_c, 0, 72, 65
2, 36766, Note_off_c, 0, 72, 0
2, 36768, Note_on_c, 0, 69, 65
2, 36862, Note_off_c, 0, 69, 0
2, 36864, Note_on_c, 0, 76, 65
2, 37176, Note_off_c, 0, 76, 0
2, 37728, Note_on_c, 0, 81, 65
2, 37822, Note_off_c, 0, 81, 0
2, 37824, Note_on_c, 0, 84, 65
2, 37918, Note_off_c, 0, 84, 0
2, 37920, Note_on_c, 0, 81, 65
2, 38014, Note_off_c, 0, 81, 0
2, 38016, Note_on_c, 0, 88, 65
2, 38328, Note_off_c, 0, 88, 0
2, 38880, Note_on_c, 0, 69, 65
2, 38974, Note_off_c, 0, 69, 0
2, 38976, Note_on_c, 0, 72, 65
2, 39070, Note_off_c, 0, 72, 0
2, 39072, Note_on_c, 0, 69, 65
2, 39166, Note_off_c, 0, 69, 0
2, 39168, Note_on_c, 0, 76, 65
2, 39248, Note_off_c, 0, 76, 0
2, 39360, Note_on_c, 0, 76, 65
2, 39440, Note_off_c, 0, 76, 0
2, 39552, Note_on_c, 0, 76, 65
2, 39632, Note_off_c, 0, 76, 0
2, 39744, Note_on_c, 0, 75, 65
2, 39838, Note_off_c, 0, 75, 0
2, 39840, Note_on_c, 0, 76, 65
2, 39934, Note_off_c, 0, 76, 0
2, 39936, Note_on_c, 0, 78, 65
2, 40030, Note_off_c, 0, 78, 0
2, 40032, Note_on_c, 0, 76, 65
2, 40126, Note_off_c, 0, 76, 0
2, 40128, Note_on_c, 0, 74, 65
2, 40222, Note_off_c, 0, 74, 0
2, 40224, Note_on_c, 0, 71, 65
2, 40318, Note_off_c, 0, 71, 0
2, 40320, Note_on_c, 0, 69, 65
2, 40632, Note_off_c, 0, 69, 0
2, 44448, Note_on_c, 0, 70, 65
2, 44542, Note_off_c, 0, 70, 0
2, 44544, Note_on_c, 0, 71, 70
2, 44638, Note_off_c, 0, 71, 0
2, 44640, Note_on_c, 0, 73, 75
2, 44734, Note_off_c, 0, 73, 0
2, 44736, Note_on_c, 0, 74, 80
2, 44830, Note_off_c, 0, 74, 0
2, 44832, Note_on_c, 0, 75, 85
2, 44926, Note_off_c, 0, 75, 0
2, 44928, Note_on_c, 0, 76, 85
2, 45502, Note_off_c, 0, 76, 0
2, 45504, Note_on_c, 0, 73, 85
2, 45816, Note_off_c, 0, 73, 0
2, 45888, Note_on_c, 0, 74, 85
2, 45934, Note_off_c, 0, 74, 0
2, 45936, Note_on_c, 0, 73, 85
2, 45982, Note_off_c, 0, 73, 0
2, 45984, Note_on_c, 0, 71, 85
2, 46030, Note_off_c, 0, 71, 0
2, 46032, Note_on_c, 0, 73, 85
2, 46078, Note_off_c, 0, 73, 0
2, 46080, Note_on_c, 0, 74, 85
2, 46174, Note_off_c, 0, 74, 0
2, 46272, Note_on_c, 0, 74, 85
2, 46366, Note_off_c, 0, 74, 0
2, 46464, Note_on_c, 0, 74, 85
2, 46558, Note_off_c, 0, 74, 0
2, 46656, Note_on_c, 0, 74, 85
2, 46736, Note_off_c, 0, 74, 0
2, 47424, Note_on_c, 0, 73, 85
2, 47614, Note_off_c, 0, 73, 0
2, 47616, Note_on_c, 0, 81, 85
2, 47776, Note_off_c, 0, 81, 0
2, 47904, Note_on_c, 0, 71, 85
2, 47998, Note_off_c, 0, 71, 0
2, 48000, Note_on_c, 0, 73, 85
2, 48094, Note_off_c, 0, 73, 0
2, 48096, Note_on_c, 0, 74, 85
2, 48190, Note_off_c, 0, 74, 0
2, 48192, Note_on_c, 0, 76, 85
2, 48286, Note_off_c, 0, 76, 0
2, 48288, Note_on_c, 0, 78, 85
2, 48382, Note_off_c, 0, 78, 0
2, 48384, Note_on_c, 0, 69, 85
2, 48766, Note_off_c, 0, 69, 0
2, 48768, Note_on_c, 0, 73, 85
2, 48862, Note_off_c, 0, 73, 0
2, 48864, Note_on_c, 0, 71, 85
2, 48958, Note_off_c, 0, 71, 0
2, 48960, Note_on_c, 0, 69, 85
2, 49272, Note_off_c, 0, 69, 0
2, 50160, Note_on_c, 0, 83, 65
2, 50206, Note_off_c, 0, 83, 0
2, 50208, Note_on_c, 0, 86, 65
2, 50254, Note_off_c, 0, 86, 0
2, 50256, Note_on_c, 0, 85, 65
2, 50302, Note_off_c, 0, 85, 0
2, 50304, Note_on_c, 0, 83, 65
2, 50350, Note_off_c, 0, 83, 0
2, 50352, Note_on_c, 0, 81, 65
2, 50398, Note_off_c, 0, 81, 0
2, 50400, Note_on_c, 0, 80, 65
2, 50446, Note_off_c, 0, 80, 0
2, 50448, Note_on_c, 0, 78, 65
2, 50494, Note_off_c, 0, 78, 0
2, 50496, Note_on_c, 0, 76, 65
2, 50542, Note_off_c, 0, 76, 0
2, 50544, Note_on_c, 0, 74, 65
2, 50590, Note_off_c, 0, 74, 0
2, 50592, Note_on_c, 0, 73, 65
2, 50638, Note_off_c, 0, 73, 0
2, 50640, Note_on_c, 0, 71, 65
2, 50680, Note_off_c, 0, 71, 0
2, 51312, Note_on_c, 0, 85, 65
2, 51358, Note_off_c, 0, 85, 0
2, 51360, Note_on_c, 0, 88, 65
2, 51406, Note_off_c, 0, 88, 0
2, 51408, Note_on_c, 0, 86, 65
2, 51454, Note_off_c, 0, 86, 0
2, 51456, Note_on_c, 0, 85, 65
2, 51502, Note_off_c, 0, 85, 0
2, 51504, Note_on_c, 0, 83, 65
2, 51550, Note_off_c, 0, 83, 0
2, 51552, Note_on_c, 0, 81, 65
2, 51598, Note_off_c, 0, 81, 0
2, 51600, Note_on_c, 0, 80, 65
2, 51646, Note_off_c, 0, 80, 0
2, 51648, Note_on_c, 0, 78, 65
2, 51694, Note_off_c, 0, 78, 0
2, 51696, Note_on_c, 0, 76, 65
2, 51742, Note_off_c, 0, 76, 0
2, 51744, Note_on_c, 0, 74, 65
2, 51790, Note_off_c, 0, 74, 0
2, 51792, Note_on_c, 0, 73, 65
2, 51832, Note_off_c, 0, 73, 0
2, 51840, Note_on_c, 0, 71, 65
2, 52030, Note_off_c, 0, 71, 0
2, 52032, Note_on_c, 0, 74, 65
2, 52222, Note_off_c, 0, 74, 0
2, 52224, Note_on_c, 0, 68, 65
2, 52414, Note_off_c, 0, 68, 0
2, 52416, Note_on_c, 0, 69, 65
2, 52496, Note_off_c, 0, 69, 0
2, 52512, Note_on_c, 0, 69, 65
2, 52606, Note_off_c, 0, 69, 0
2, 52608, Note_on_c, 0, 68, 65
2, 52702, Note_off_c, 0, 68, 0
2, 52704, Note_on_c, 0, 69, 65
2, 52798, Note_off_c, 0, 69, 0
2, 52800, Note_on_c, 0, 71, 65
2, 52894, Note_off_c, 0, 71, 0
2, 52896, Note_on_c, 0, 73, 65
2, 52990, Note_off_c, 0, 73, 0
2, 52992, Note_on_c, 0, 76, 65
2, 53086, Note_off_c, 0, 76, 0
2, 53088, Note_on_c, 0, 75, 65
2, 53168, Note_off_c, 0, 75, 0
2, 53184, Note_on_c, 0, 74, 65
2, 53374, Note_off_c, 0, 74, 0
2, 53376, Note_on_c, 0, 73, 65
2, 53566, Note_off_c, 0, 73, 0
2, 53568, Note_on_c, 0, 71, 65
2, 53728, Note_off_c, 0, 71, 0
2, 54144, Note_on_c, 0, 76, 65
2, 54336, Note_on_c, 0, 78, 65
2, 54384, Note_on_c, 0, 76, 65
2, 54430, Note_off_c, 0, 78, 64
2, 54432, Note_on_c, 0, 75, 65
2, 54478, Note_off_c, 0, 76, 64
2, 54480, Note_on_c, 0, 76, 65
2, 54526, Note_off_c, 0, 76, 64
2, 54526, Note_off_c, 0, 75, 64
2, 54528, Note_on_c, 0, 71, 65
2, 54528, Note_on_c, 0, 78, 65
2, 54574, Note_off_c, 0, 76, 64
2, 54622, Note_off_c, 0, 78, 0
2, 54624, Note_on_c, 0, 74, 65
2, 54718, Note_off_c, 0, 71, 0
2, 54718, Note_off_c, 0, 74, 0
2, 54720, Note_on_c, 0, 73, 65
2, 54720, Note_on_c, 0, 69, 65
2, 54880, Note_off_c, 0, 73, 0
2, 54880, Note_off_c, 0, 69, 0
2, 55296, Note_on_c, 0, 71, 65
2, 55676, Note_off_c, 0, 71, 0
2, 55680, Note_on_c, 0, 78, 65
2, 55870, Note_off_c, 0, 78, 0
2, 55872, Note_on_c, 0, 78, 65
2, 56158, Note_off_c, 0, 78, 0
2, 56160, Note_on_c, 0, 80, 65
2, 56206, Note_off_c, 0, 80, 0
2, 56208, Note_on_c, 0, 81, 65
2, 56254, Note_off_c, 0, 81, 0
2, 56256, Note_on_c, 0, 80, 65
2, 56350, Note_off_c, 0, 80, 0
2, 56352, Note_on_c, 0, 78, 65
2, 56446, Note_off_c, 0, 78, 0
2, 56448, Note_on_c, 0, 76, 65
2, 56528, Note_off_c, 0, 76, 0
2, 56640, Note_on_c, 0, 88, 65
2, 57118, Note_off_c, 0, 88, 0
2, 57120, Note_on_c, 0, 85, 65
2, 57214, Note_off_c, 0, 85, 0
2, 57216, Note_on_c, 0, 81, 65
2, 57310, Note_off_c, 0, 81, 0
2, 57312, Note_on_c, 0, 76, 65
2, 57406, Note_off_c, 0, 76, 0
2, 57408, Note_on_c, 0, 73, 65
2, 57502, Note_off_c, 0, 73, 0
2, 57504, Note_on_c, 0, 69, 65
2, 57584, Note_off_c, 0, 69, 0
2, 57600, Note_on_c, 0, 71, 75
2, 57620, Note_off_c, 0, 71, 0
2, 57624, Note_on_c, 0, 73, 75
2, 57644, Note_off_c, 0, 73, 0
2, 57648, Note_on_c, 0, 71, 75
2, 57668, Note_off_c, 0, 71, 0
2, 57672, Note_on_c, 0, 73, 75
2, 57692, Note_off_c, 0, 73, 0
2, 57696, Note_on_c, 0, 71, 75
2, 57716, Note_off_c, 0, 71, 0
2, 57720, Note_on_c, 0, 73, 75
2, 57740, Note_off_c, 0, 73, 0
2, 57744, Note_on_c, 0, 71, 75
2, 57764, Note_off_c, 0, 71, 0
2, 57768, Note_on_c, 0, 73, 75
2, 57788, Note_off_c, 0, 73, 0
2, 57792, Note_on_c, 0, 71, 75
2, 57812, Note_off_c, 0, 71, 0
2, 57816, Note_on_c, 0, 73, 75
2, 57836, Note_off_c, 0, 73, 0
2, 57840, Note_on_c, 0, 71, 75
2, 57860, Note_off_c, 0, 71, 0
2, 57864, Note_on_c, 0, 73, 75
2, 57884, Note_off_c, 0, 73, 0
2, 57888, Note_on_c, 0, 71, 75
2, 57908, Note_off_c, 0, 71, 0
2, 57912, Note_on_c, 0, 73, 75
2, 57932, Note_off_c, 0, 73, 0
2, 57936, Note_on_c, 0, 71, 75
2, 57956, Note_off_c, 0, 71, 0
2, 57960, Note_on_c, 0, 73, 75
2, 57980, Note_off_c, 0, 73, 0
2, 57984, Note_on_c, 0, 71, 75
2, 58004, Note_off_c, 0, 71, 0
2, 58008, Note_on_c, 0, 73, 75
2, 58028, Note_off_c, 0, 73, 0
2, 58032, Note_on_c, 0, 71, 75
2, 58052, Note_off_c, 0, 71, 0
2, 58056, Note_on_c, 0, 73, 75
2, 58076, Note_off_c, 0, 73, 0
2, 58080, Note_on_c, 0, 71, 75
2, 58100, Note_off_c, 0, 71, 0
2, 58104, Note_on_c, 0, 73, 75
2, 58124, Note_off_c, 0, 73, 0
2, 58128, Note_on_c, 0, 71, 75
2, 58148, Note_off_c, 0, 71, 0
2, 58152, Note_on_c, 0, 73, 75
2, 58172, Note_off_c, 0, 73, 0
2, 58176, Note_on_c, 0, 71, 75
2, 58196, Note_off_c, 0, 71, 0
2, 58200, Note_on_c, 0, 73, 75
2, 58220, Note_off_c, 0, 73, 0
2, 58224, Note_on_c, 0, 71, 75
2, 58244, Note_off_c, 0, 71, 0
2, 58248, Note_on_c, 0, 73, 75
2, 58268, Note_off_c, 0, 73, 0
2, 58272, Note_on_c, 0, 71, 75
2, 58292, Note_off_c, 0, 71, 0
2, 58296, Note_on_c, 0, 73, 75
2, 58316, Note_off_c, 0, 73, 0
2, 58320, Note_on_c, 0, 71, 75
2, 58340, Note_off_c, 0, 71, 0
2, 58344, Note_on_c, 0, 73, 75
2, 58364, Note_off_c, 0, 73, 0
2, 58368, Note_on_c, 0, 71, 75
2, 58388, Note_off_c, 0, 71, 0
2, 58392, Note_on_c, 0, 73, 75
2, 58412, Note_off_c, 0, 73, 0
2, 58416, Note_on_c, 0, 71, 75
2, 58436, Note_off_c, 0, 71, 0
2, 58440, Note_on_c, 0, 73, 75
2, 58460, Note_off_c, 0, 73, 0
2, 58464, Note_on_c, 0, 71, 75
2, 58484, Note_off_c, 0, 71, 0
2, 58488, Note_on_c, 0, 73, 75
2, 58508, Note_off_c, 0, 73, 0
2, 58512, Note_on_c, 0, 69, 75
2, 58532, Note_off_c, 0, 69, 0
2, 58536, Note_on_c, 0, 71, 75
2, 58556, Note_off_c, 0, 71, 0
2, 58560, Note_on_c, 0, 69, 70
2, 58654, Note_off_c, 0, 69, 0
2, 58656, Note_on_c, 0, 71, 70
2, 58736, Note_off_c, 0, 71, 0
2, 58752, Note_on_c, 0, 69, 65
2, 59064, Note_off_c, 0, 69, 0
2, 61056, Note_on_c, 0, 73, 65
2, 61342, Note_off_c, 0, 73, 0
2, 61344, Note_on_c, 0, 74, 65
2, 61438, Note_off_c, 0, 74, 0
2, 61440, Note_on_c, 0, 73, 65
2, 61600, Note_off_c, 0, 73, 0
2, 61632, Note_on_c, 0, 73, 65
2, 61822, Note_off_c, 0, 73, 0
2, 61824, Note_on_c, 0, 78, 65
2, 62014, Note_off_c, 0, 78, 0
2, 62016, Note_on_c, 0, 81, 65
2, 62176, Note_off_c, 0, 81, 0
2, 62208, Note_on_c, 0, 81, 65
2, 62398, Note_off_c, 0, 81, 0
2, 62400, Note_on_c, 0, 71, 65
2, 62590, Note_off_c, 0, 71, 0
2, 62592, Note_on_c, 0, 80, 65
2, 62752, Note_off_c, 0, 80, 0
2, 62976, Note_on_c, 0, 71, 65
2, 63358, Note_off_c, 0, 71, 0
2, 63360, Note_on_c, 0, 71, 65
2, 63454, Note_off_c, 0, 71, 0
2, 63456, Note_on_c, 0, 69, 65
2, 63550, Note_off_c, 0, 69, 0
2, 63552, Note_on_c, 0, 78, 65
2, 63934, Note_off_c, 0, 78, 0
2, 63936, Note_on_c, 0, 78, 65
2, 64096, Note_off_c, 0, 78, 0
2, 64128, Note_on_c, 0, 68, 65
2, 64318, Note_off_c, 0, 68, 0
2, 64320, Note_on_c, 0, 74, 65
2, 64510, Note_off_c, 0, 74, 0
2, 64512, Note_on_c, 0, 66, 65
2, 64894, Note_off_c, 0, 66, 0
2, 64896, Note_on_c, 0, 65, 65
2, 64940, Note_off_c, 0, 65, 0
2, 64944, Note_on_c, 0, 66, 65
2, 64988, Note_off_c, 0, 66, 0
2, 64992, Note_on_c, 0, 68, 65
2, 65036, Note_off_c, 0, 68, 0
2, 65040, Note_on_c, 0, 66, 65
2, 65084, Note_off_c, 0, 66, 0
2, 65088, Note_on_c, 0, 65, 65
2, 65248, Note_off_c, 0, 65, 0
2, 65664, Note_on_c, 0, 74, 65
2, 65948, Note_off_c, 0, 74, 0
2, 65952, Note_on_c, 0, 76, 65
2, 66046, Note_off_c, 0, 76, 0
2, 66048, Note_on_c, 0, 74, 65
2, 66238, Note_off_c, 0, 74, 0
2, 66240, Note_on_c, 0, 74, 65
2, 66286, Note_off_c, 0, 74, 0
2, 66288, Note_on_c, 0, 76, 65
2, 66334, Note_off_c, 0, 76, 0
2, 66336, Note_on_c, 0, 78, 65
2, 66526, Note_off_c, 0, 78, 0
2, 66528, Note_on_c, 0, 76, 65
2, 66622, Note_off_c, 0, 76, 0
2, 66624, Note_on_c, 0, 74, 65
2, 66784, Note_off_c, 0, 74, 0
2, 66816, Note_on_c, 0, 72, 65
2, 67390, Note_off_c, 0, 72, 0
2, 67392, Note_on_c, 0, 73, 65
2, 67552, Note_off_c, 0, 73, 0
2, 67968, Note_on_c, 0, 73, 65
2, 68062, Note_off_c, 0, 73, 0
2, 68064, Note_on_c, 0, 71, 65
2, 68144, Note_off_c, 0, 71, 0
2, 68160, Note_on_c, 0, 70, 65
2, 68254, Note_off_c, 0, 70, 0
2, 68256, Note_on_c, 0, 71, 65
2, 68336, Note_off_c, 0, 71, 0
2, 68352, Note_on_c, 0, 70, 65
2, 68446, Note_off_c, 0, 70, 0
2, 68448, Note_on_c, 0, 71, 65
2, 68528, Note_off_c, 0, 71, 0
2, 68544, Note_on_c, 0, 81, 65
2, 68638, Note_off_c, 0, 81, 0
2, 68640, Note_on_c, 0, 80, 65
2, 68720, Note_off_c, 0, 80, 0
2, 68736, Note_on_c, 0, 78, 65
2, 68830, Note_off_c, 0, 78, 0
2, 68832, Note_on_c, 0, 77, 65
2, 68912, Note_off_c, 0, 77, 0
2, 68928, Note_on_c, 0, 74, 65
2, 69022, Note_off_c, 0, 74, 0
2, 69024, Note_on_c, 0, 73, 65
2, 69104, Note_off_c, 0, 73, 0
2, 69120, Note_on_c, 0, 71, 65
2, 69502, Note_off_c, 0, 71, 0
2, 69504, Note_on_c, 0, 70, 65
2, 69694, Note_off_c, 0, 70, 0
2, 69696, Note_on_c, 0, 69, 65
2, 69856, Note_off_c, 0, 69, 0
2, 70272, Note_on_c, 0, 67, 65
2, 70558, Note_off_c, 0, 67, 0
2, 70560, Note_on_c, 0, 69, 65
2, 70654, Note_off_c, 0, 69, 0
2, 70656, Note_on_c, 0, 67, 65
2, 70846, Note_off_c, 0, 67, 0
2, 70848, Note_on_c, 0, 67, 65
2, 71038, Note_off_c, 0, 67, 0
2, 71232, Note_on_c, 0, 67, 65
2, 71312, Note_off_c, 0, 67, 0
2, 71424, Note_on_c, 0, 67, 65
2, 71504, Note_off_c, 0, 67, 0
2, 71616, Note_on_c, 0, 71, 65
2, 71696, Note_off_c, 0, 71, 0
2, 71808, Note_on_c, 0, 74, 65
2, 71888, Note_off_c, 0, 74, 0
2, 72000, Note_on_c, 0, 79, 65
2, 72080, Note_off_c, 0, 79, 0
2, 72192, Note_on_c, 0, 83, 65
2, 72272, Note_off_c, 0, 83, 0
2, 72384, Note_on_c, 0, 86, 65
2, 72464, Note_off_c, 0, 86, 0
2, 72576, Note_on_c, 0, 66, 65
2, 72860, Note_off_c, 0, 66, 0
2, 72864, Note_on_c, 0, 68, 65
2, 72958, Note_off_c, 0, 68, 0
2, 72960, Note_on_c, 0, 66, 65
2, 73150, Note_off_c, 0, 66, 0
2, 73152, Note_on_c, 0, 66, 65
2, 73152, Note_on_c, 0, 69, 65
2, 73534, Note_off_c, 0, 66, 0
2, 73534, Note_off_c, 0, 69, 0
2, 73536, Note_on_c, 0, 65, 65
2, 73536, Note_on_c, 0, 68, 65
2, 73696, Note_off_c, 0, 65, 0
2, 73696, Note_off_c, 0, 68, 0
2, 73728, Note_on_c, 0, 66, 65
2, 74656, Note_off_c, 0, 66, 0
2, 74880, Note_on_c, 0, 67, 65
2, 75166, Note_off_c, 0, 67, 0
2, 75168, Note_on_c, 0, 69, 65
2, 75262, Note_off_c, 0, 69, 0
2, 75264, Note_on_c, 0, 67, 65
2, 75454, Note_off_c, 0, 67, 0
2, 75456, Note_on_c, 0, 67, 65
2, 75646, Note_off_c, 0, 67, 0
2, 75648, Note_on_c, 0, 55, 80
2, 75838, Note_off_c, 0, 55, 0
2, 75840, Note_on_c, 0, 55, 80
2, 76030, Note_off_c, 0, 55, 0
2, 76032, Note_on_c, 0, 55, 80
2, 76576, Note_off_c, 0, 55, 0
2, 76608, Note_on_c, 0, 86, 80
2, 76920, Note_off_c, 0, 86, 0
2, 76992, Note_on_c, 0, 67, 65
2, 77152, Note_off_c, 0, 67, 0
2, 77184, Note_on_c, 0, 66, 65
2, 77468, Note_off_c, 0, 66, 0
2, 77472, Note_on_c, 0, 68, 65
2, 77566, Note_off_c, 0, 68, 0
2, 77568, Note_on_c, 0, 66, 65
2, 77758, Note_off_c, 0, 66, 0
2, 77760, Note_on_c, 0, 69, 65
2, 77760, Note_on_c, 0, 66, 65
2, 78142, Note_off_c, 0, 69, 0
2, 78142, Note_off_c, 0, 66, 0
2, 78144, Note_on_c, 0, 65, 65
2, 78144, Note_on_c, 0, 68, 65
2, 78334, Note_off_c, 0, 65, 0
2, 78334, Note_off_c, 0, 68, 0
2, 78336, Note_on_c, 0, 66, 65
2, 78648, Note_off_c, 0, 66, 0
2, 88128, Note_on_c, 0, 69, 75
2, 88174, Note_off_c, 0, 69, 0
2, 88176, Note_on_c, 0, 81, 75
2, 88702, Note_off_c, 0, 81, 64
2, 88704, Note_on_c, 0, 83, 65
2, 88798, Note_off_c, 0, 83, 0
2, 88800, Note_on_c, 0, 81, 65
2, 88880, Note_off_c, 0, 81, 0
2, 88896, Note_on_c, 0, 81, 65
2, 88990, Note_off_c, 0, 81, 0
2, 88992, Note_on_c, 0, 80, 65
2, 89072, Note_off_c, 0, 80, 0
2, 89088, Note_on_c, 0, 80, 65
2, 89182, Note_off_c, 0, 80, 0
2, 89184, Note_on_c, 0, 78, 65
2, 89264, Note_off_c, 0, 78, 0
2, 89280, Note_on_c, 0, 78, 65
2, 89374, Note_off_c, 0, 78, 0
2, 89376, Note_on_c, 0, 77, 65
2, 89456, Note_off_c, 0, 77, 0
2, 89472, Note_on_c, 0, 77, 65
2, 89566, Note_off_c, 0, 77, 0
2, 89568, Note_on_c, 0, 78, 65
2, 89648, Note_off_c, 0, 78, 0
2, 89664, Note_on_c, 0, 78, 65
2, 89758, Note_off_c, 0, 78, 0
2, 89760, Note_on_c, 0, 80, 65
2, 89840, Note_off_c, 0, 80, 0
2, 89856, Note_on_c, 0, 73, 65
2, 90320, Note_off_c, 0, 73, 0
2, 90432, Note_on_c, 0, 85, 65
2, 91102, Note_off_c, 0, 85, 0
2, 91104, Note_on_c, 0, 86, 65
2, 91148, Note_off_c, 0, 86, 0
2, 91152, Note_on_c, 0, 85, 65
2, 91198, Note_off_c, 0, 85, 0
2, 91200, Note_on_c, 0, 83, 65
2, 91390, Note_off_c, 0, 83, 0
2, 91392, Note_on_c, 0, 81, 65
2, 91582, Note_off_c, 0, 81, 0
2, 91584, Note_on_c, 0, 80, 65
2, 91678, Note_off_c, 0, 80, 0
2, 91680, Note_on_c, 0, 81, 65
2, 91700, Note_off_c, 0, 81, 0
2, 91704, Note_on_c, 0, 80, 65
2, 91724, Note_off_c, 0, 80, 0
2, 91728, Note_on_c, 0, 78, 65
2, 91748, Note_off_c, 0, 78, 0
2, 91752, Note_on_c, 0, 80, 65
2, 91772, Note_off_c, 0, 80, 0
2, 91776, Note_on_c, 0, 81, 65
2, 91966, Note_off_c, 0, 81, 0
2, 91968, Note_on_c, 0, 83, 65
2, 92158, Note_off_c, 0, 83, 0
2, 92160, Note_on_c, 0, 77, 65
2, 92542, Note_off_c, 0, 77, 0
2, 92544, Note_on_c, 0, 73, 65
2, 92734, Note_off_c, 0, 73, 0
2, 92736, Note_on_c, 0, 81, 65
2, 93200, Note_off_c, 0, 81, 0
2, 93312, Note_on_c, 0, 87, 65
2, 93886, Note_off_c, 0, 87, 0
2, 93888, Note_on_c, 0, 80, 65
2, 94200, Note_off_c, 0, 80, 0
2, 94464, Note_on_c, 0, 85, 65
2, 95038, Note_off_c, 0, 85, 0
2, 95040, Note_on_c, 0, 78, 65
2, 95352, Note_off_c, 0, 78, 0
2, 95616, Note_on_c, 0, 83, 65
2, 95902, Note_off_c, 0, 83, 0
2, 95904, Note_on_c, 0, 85, 65
2, 95948, Note_off_c, 0, 85, 0
2, 95952, Note_on_c, 0, 86, 65
2, 95996, Note_off_c, 0, 86, 0
2, 96000, Note_on_c, 0, 85, 65
2, 96044, Note_off_c, 0, 85, 0
2, 96048, Note_on_c, 0, 83, 65
2, 96092, Note_off_c, 0, 83, 0
2, 96096, Note_on_c, 0, 81, 65
2, 96140, Note_off_c, 0, 81, 0
2, 96144, Note_on_c, 0, 80, 65
2, 96188, Note_off_c, 0, 80, 0
2, 96192, Note_on_c, 0, 78, 65
2, 96286, Note_off_c, 0, 78, 0
2, 96288, Note_on_c, 0, 77, 65
2, 96382, Note_off_c, 0, 77, 0
2, 96384, Note_on_c, 0, 83, 65
2, 96574, Note_off_c, 0, 83, 0
2, 96576, Note_on_c, 0, 77, 65
2, 96736, Note_off_c, 0, 77, 0
2, 96768, Note_on_c, 0, 78, 65
2, 97080, Note_off_c, 0, 78, 0
2, 97920, Note_on_c, 0, 78, 65
2, 98494, Note_off_c, 0, 78, 0
2, 98496, Note_on_c, 0, 69, 65
2, 99070, Note_off_c, 0, 69, 0
2, 99072, Note_on_c, 0, 68, 65
2, 99646, Note_off_c, 0, 68, 0
2, 99648, Note_on_c, 0, 68, 65
2, 99960, Note_off_c, 0, 68, 0
2, 100032, Note_on_c, 0, 86, 65
2, 100222, Note_off_c, 0, 86, 0
2, 100224, Note_on_c, 0, 85, 65
2, 100798, Note_off_c, 0, 85, 0
2, 100800, Note_on_c, 0, 77, 65
2, 101374, Note_off_c, 0, 77, 0
2, 101376, Note_on_c, 0, 78, 65
2, 101688, Note_off_c, 0, 78, 0
2, 102528, Note_on_c, 0, 78, 65
2, 103102, Note_off_c, 0, 78, 0
2, 103104, Note_on_c, 0, 57, 65
2, 103678, Note_off_c, 0, 57, 0
2, 103680, Note_on_c, 0, 55, 65
2, 104254, Note_off_c, 0, 55, 0
2, 104256, Note_on_c, 0, 55, 65
2, 104568, Note_off_c, 0, 55, 0
2, 104640, Note_on_c, 0, 86, 65
2, 104830, Note_off_c, 0, 86, 0
2, 104832, Note_on_c, 0, 85, 65
2, 105406, Note_off_c, 0, 85, 0
2, 105408, Note_on_c, 0, 77, 65
2, 105982, Note_off_c, 0, 77, 0
2, 105984, Note_on_c, 0, 78, 65
2, 106296, Note_off_c, 0, 78, 0
2, 107808, Note_on_c, 0, 73, 65
2, 107902, Note_off_c, 0, 73, 0
2, 107904, Note_on_c, 0, 85, 65
2, 107944, Note_off_c, 0, 85, 0
2, 108000, Note_on_c, 0, 85, 65
2, 108040, Note_off_c, 0, 85, 0
2, 108096, Note_on_c, 0, 85, 65
2, 108136, Note_off_c, 0, 85, 0
2, 108192, Note_on_c, 0, 85, 65
2, 108232, Note_off_c, 0, 85, 0
2, 108288, Note_on_c, 0, 85, 65
2, 108574, Note_off_c, 0, 85, 0
2, 108576, Note_on_c, 0, 81, 65
2, 108670, Note_off_c, 0, 81, 0
2, 108672, Note_on_c, 0, 78, 65
2, 108832, Note_off_c, 0, 78, 0
2, 110112, Note_on_c, 0, 73, 65
2, 110206, Note_off_c, 0, 73, 0
2, 110208, Note_on_c, 0, 85, 65
2, 110248, Note_off_c, 0, 85, 0
2, 110304, Note_on_c, 0, 85, 65
2, 110344, Note_off_c, 0, 85, 0
2, 110400, Note_on_c, 0, 85, 65
2, 110440, Note_off_c, 0, 85, 0
2, 110496, Note_on_c, 0, 85, 65
2, 110536, Note_off_c, 0, 85, 0
2, 110592, Note_on_c, 0, 85, 65
2, 110878, Note_off_c, 0, 85, 0
2, 110880, Note_on_c, 0, 81, 65
2, 110974, Note_off_c, 0, 81, 0
2, 110976, Note_on_c, 0, 78, 65
2, 111136, Note_off_c, 0, 78, 0
2, 111840, Note_on_c, 0, 73, 65
2, 111934, Note_off_c, 0, 73, 0
2, 111936, Note_on_c, 0, 85, 65
2, 111976, Note_off_c, 0, 85, 0
2, 112032, Note_on_c, 0, 85, 65
2, 112072, Note_off_c, 0, 85, 0
2, 112128, Note_on_c, 0, 85, 65
2, 112168, Note_off_c, 0, 85, 0
2, 112224, Note_on_c, 0, 85, 65
2, 112264, Note_off_c, 0, 85, 0
2, 112320, Note_on_c, 0, 85, 65
2, 112360, Note_off_c, 0, 85, 0
2, 112416, Note_on_c, 0, 85, 63
2, 112456, Note_off_c, 0, 85, 0
2, 112512, Note_on_c, 0, 85, 61
2, 112552, Note_off_c, 0, 85, 0
2, 112608, Note_on_c, 0, 85, 59
2, 112648, Note_off_c, 0, 85, 0
2, 112704, Note_on_c, 0, 85, 57
2, 112744, Note_off_c, 0, 85, 0
2, 112800, Note_on_c, 0, 85, 55
2, 112840, Note_off_c, 0, 85, 0
2, 112896, Note_on_c, 0, 78, 55
2, 112976, Note_off_c, 0, 78, 0
2, 113280, Note_on_c, 0, 81, 55
2, 113280, Note_on_c, 0, 73, 55
2, 113470, Note_off_c, 0, 81, 0
2, 113470, Note_off_c, 0, 73, 0
2, 113472, Note_on_c, 0, 69, 50
2, 113472, Note_on_c, 0, 78, 50
2, 113632, Note_off_c, 0, 69, 0
2, 113632, Note_off_c, 0, 78, 0
2, 113856, Note_on_c, 0, 73, 45
2, 113856, Note_on_c, 0, 81, 45
2, 114046, Note_off_c, 0, 73, 0
2, 114046, Note_off_c, 0, 81, 0
2, 114048, Note_on_c, 0, 78, 40
2, 114048, Note_on_c, 0, 69, 40
2, 114208, Note_off_c, 0, 78, 0
2, 114208, Note_off_c, 0, 69, 0
2, 114208, End_track
3, 0, Start_track
3, 0, Title_t, "K488b - Andante (Adagio)"
3, 0, Control_c, 1, 0, 0
3, 0, Program_c, 1, 0
3, 0, Control_c, 1, 10, 63
3, 0, Control_c, 1, 91, 44
3, 0, Control_c, 1, 93, 0
3, 0, Key_signature, 3, "major"
3, 0, Control_c, 1, 121, 0
3, 192, Control_c, 1, 10, 63
3, 240, Control_c, 1, 91, 85
3, 288, Control_c, 1, 93, 35
3, 336, Program_c, 1, 0
3, 1152, Note_on_c, 1, 57, 60
3, 1152, Note_on_c, 1, 54, 60
3, 1342, Note_off_c, 1, 57, 0
3, 1342, Note_off_c, 1, 54, 0
3, 1536, Note_on_c, 1, 57, 60
3, 1536, Note_on_c, 1, 54, 60
3, 1630, Note_off_c, 1, 57, 0
3, 1630, Note_off_c, 1, 54, 0
3, 1728, Note_on_c, 1, 57, 60
3, 1728, Note_on_c, 1, 54, 60
3, 1918, Note_off_c, 1, 57, 0
3, 1918, Note_off_c, 1, 54, 0
3, 2112, Note_on_c, 1, 54, 60
3, 2112, Note_on_c, 1, 61, 60
3, 2206, Note_off_c, 1, 54, 0
3, 2206, Note_off_c, 1, 61, 0
3, 2304, Note_on_c, 1, 62, 70
3, 2304, Note_on_c, 1, 54, 70
3, 2878, Note_off_c, 1, 62, 0
3, 2878, Note_off_c, 1, 54, 0
3, 2880, Note_on_c, 1, 41, 65
3, 3070, Note_off_c, 1, 41, 0
3, 3264, Note_on_c, 1, 61, 60
3, 3264, Note_on_c, 1, 53, 60
3, 3424, Note_off_c, 1, 61, 0
3, 3424, Note_off_c, 1, 53, 0
3, 3456, Note_on_c, 1, 61, 60
3, 3456, Note_on_c, 1, 54, 60
3, 3768, Note_off_c, 1, 61, 0
3, 3768, Note_off_c, 1, 54, 0
3, 3840, Note_on_c, 1, 49, 60
3, 3840, Note_on_c, 1, 45, 60
3, 4000, Note_off_c, 1, 49, 0
3, 4000, Note_off_c, 1, 45, 0
3, 4032, Note_on_c, 1, 47, 60
3, 4032, Note_on_c, 1, 50, 60
3, 4414, Note_off_c, 1, 50, 0
3, 4416, Note_on_c, 1, 59, 60
3, 4496, Note_off_c, 1, 47, 0
3, 4576, Note_off_c, 1, 59, 0
3, 4608, Note_on_c, 1, 57, 60
3, 4608, Note_on_c, 1, 49, 60
3, 5182, Note_off_c, 1, 57, 0
3, 5182, Note_off_c, 1, 49, 0
3, 5184, Note_on_c, 1, 56, 60
3, 5184, Note_on_c, 1, 49, 60
3, 5344, Note_off_c, 1, 56, 0
3, 5344, Note_off_c, 1, 49, 0
3, 5760, Note_on_c, 1, 57, 60
3, 5760, Note_on_c, 1, 54, 60
3, 5950, Note_off_c, 1, 57, 0
3, 5950, Note_off_c, 1, 54, 0
3, 6144, Note_on_c, 1, 57, 60
3, 6144, Note_on_c, 1, 54, 60
3, 6238, Note_off_c, 1, 57, 0
3, 6238, Note_off_c, 1, 54, 0
3, 6336, Note_on_c, 1, 56, 60
3, 6336, Note_on_c, 1, 59, 60
3, 6526, Note_off_c, 1, 56, 0
3, 6526, Note_off_c, 1, 59, 0
3, 6720, Note_on_c, 1, 56, 60
3, 6720, Note_on_c, 1, 59, 60
3, 6814, Note_off_c, 1, 56, 0
3, 6814, Note_off_c, 1, 59, 0
3, 6912, Note_on_c, 1, 64, 60
3, 6912, Note_on_c, 1, 57, 60
3, 7102, Note_off_c, 1, 64, 0
3, 7102, Note_off_c, 1, 57, 0
3, 7296, Note_on_c, 1, 57, 60
3, 7296, Note_on_c, 1, 64, 60
3, 7376, Note_off_c, 1, 57, 0
3, 7376, Note_off_c, 1, 64, 0
3, 7488, Note_on_c, 1, 57, 60
3, 7488, Note_on_c, 1, 54, 60
3, 7678, Note_off_c, 1, 57, 0
3, 7678, Note_off_c, 1, 54, 0
3, 7872, Note_on_c, 1, 57, 60
3, 7872, Note_on_c, 1, 54, 60
3, 7952, Note_off_c, 1, 57, 0
3, 7952, Note_off_c, 1, 54, 0
3, 8064, Note_on_c, 1, 57, 60
3, 8064, Note_on_c, 1, 51, 60
3, 8254, Note_off_c, 1, 57, 0
3, 8254, Note_off_c, 1, 51, 0
3, 8448, Note_on_c, 1, 57, 60
3, 8448, Note_on_c, 1, 51, 60
3, 8528, Note_off_c, 1, 57, 0
3, 8528, Note_off_c, 1, 51, 0
3, 8640, Note_on_c, 1, 56, 60
3, 8640, Note_on_c, 1, 53, 60
3, 8830, Note_off_c, 1, 56, 0
3, 8830, Note_off_c, 1, 53, 0
3, 9024, Note_on_c, 1, 56, 60
3, 9024, Note_on_c, 1, 53, 60
3, 9104, Note_off_c, 1, 56, 0
3, 9104, Note_off_c, 1, 53, 0
3, 9216, Note_on_c, 1, 61, 60
3, 9216, Note_on_c, 1, 54, 60
3, 9406, Note_off_c, 1, 61, 0
3, 9406, Note_off_c, 1, 54, 0
3, 9600, Note_on_c, 1, 54, 60
3, 9600, Note_on_c, 1, 61, 60
3, 9680, Note_off_c, 1, 54, 0
3, 9680, Note_off_c, 1, 61, 0
3, 9792, Note_on_c, 1, 54, 60
3, 9792, Note_on_c, 1, 50, 60
3, 9982, Note_off_c, 1, 54, 0
3, 9982, Note_off_c, 1, 50, 0
3, 10176, Note_on_c, 1, 54, 60
3, 10176, Note_on_c, 1, 50, 60
3, 10256, Note_off_c, 1, 54, 0
3, 10256, Note_off_c, 1, 50, 0
3, 10368, Note_on_c, 1, 55, 60
3, 10368, Note_on_c, 1, 50, 60
3, 10368, Note_on_c, 1, 47, 60
3, 10558, Note_off_c, 1, 55, 0
3, 10558, Note_off_c, 1, 50, 0
3, 10558, Note_off_c, 1, 47, 0
3, 10752, Note_on_c, 1, 55, 60
3, 10752, Note_on_c, 1, 50, 60
3, 10752, Note_on_c, 1, 47, 60
3, 10832, Note_off_c, 1, 55, 0
3, 10832, Note_off_c, 1, 50, 0
3, 10832, Note_off_c, 1, 47, 0
3, 10944, Note_on_c, 1, 55, 60
3, 10944, Note_on_c, 1, 50, 60
3, 10944, Note_on_c, 1, 47, 60
3, 11134, Note_off_c, 1, 55, 0
3, 11134, Note_off_c, 1, 50, 0
3, 11134, Note_off_c, 1, 47, 0
3, 11328, Note_on_c, 1, 55, 60
3, 11328, Note_on_c, 1, 50, 60
3, 11328, Note_on_c, 1, 47, 60
3, 11408, Note_off_c, 1, 55, 0
3, 11408, Note_off_c, 1, 50, 0
3, 11408, Note_off_c, 1, 47, 0
3, 11520, Note_on_c, 1, 55, 60
3, 11520, Note_on_c, 1, 50, 60
3, 11520, Note_on_c, 1, 47, 60
3, 11832, Note_off_c, 1, 55, 0
3, 11832, Note_off_c, 1, 50, 0
3, 11832, Note_off_c, 1, 47, 0
3, 12672, Note_on_c, 1, 57, 60
3, 12672, Note_on_c, 1, 49, 60
3, 12862, Note_off_c, 1, 57, 0
3, 12862, Note_off_c, 1, 49, 0
3, 13056, Note_on_c, 1, 57, 60
3, 13056, Note_on_c, 1, 49, 60
3, 13136, Note_off_c, 1, 57, 0
3, 13136, Note_off_c, 1, 49, 0
3, 13248, Note_on_c, 1, 61, 60
3, 13248, Note_on_c, 1, 49, 60
3, 13438, Note_off_c, 1, 61, 0
3, 13438, Note_off_c, 1, 49, 0
3, 13632, Note_on_c, 1, 59, 60
3, 13632, Note_on_c, 1, 49, 60
3, 13712, Note_off_c, 1, 59, 0
3, 13712, Note_off_c, 1, 49, 0
3, 13824, Note_on_c, 1, 57, 60
3, 13824, Note_on_c, 1, 54, 60
3, 14136, Note_off_c, 1, 57, 0
3, 14136, Note_off_c, 1, 54, 0
3, 23040, Note_on_c, 1, 42, 60
3, 23230, Note_off_c, 1, 42, 0
3, 23232, Note_on_c, 1, 57, 60
3, 23232, Note_on_c, 1, 54, 60
3, 23312, Note_off_c, 1, 57, 0
3, 23312, Note_off_c, 1, 54, 0
3, 23616, Note_on_c, 1, 57, 60
3, 23616, Note_on_c, 1, 54, 60
3, 23806, Note_off_c, 1, 57, 0
3, 23806, Note_off_c, 1, 54, 0
3, 24000, Note_on_c, 1, 57, 60
3, 24000, Note_on_c, 1, 54, 60
3, 24080, Note_off_c, 1, 57, 0
3, 24080, Note_off_c, 1, 54, 0
3, 24192, Note_on_c, 1, 59, 60
3, 24192, Note_on_c, 1, 56, 60
3, 24574, Note_off_c, 1, 59, 0
3, 24574, Note_off_c, 1, 56, 0
3, 24576, Note_on_c, 1, 57, 60
3, 24576, Note_on_c, 1, 54, 60
3, 24766, Note_off_c, 1, 57, 0
3, 24766, Note_off_c, 1, 54, 0
3, 24768, Note_on_c, 1, 56, 60
3, 24768, Note_on_c, 1, 53, 60
3, 25150, Note_off_c, 1, 56, 0
3, 25150, Note_off_c, 1, 53, 0
3, 25152, Note_on_c, 1, 56, 60
3, 25152, Note_on_c, 1, 53, 60
3, 25342, Note_off_c, 1, 56, 0
3, 25342, Note_off_c, 1, 53, 0
3, 25344, Note_on_c, 1, 56, 60
3, 25344, Note_on_c, 1, 52, 60
3, 25656, Note_off_c, 1, 56, 0
3, 25656, Note_off_c, 1, 52, 0
3, 25728, Note_on_c, 1, 57, 60
3, 25728, Note_on_c, 1, 54, 60
3, 25888, Note_off_c, 1, 57, 0
3, 25888, Note_off_c, 1, 54, 0
3, 25920, Note_on_c, 1, 57, 60
3, 25920, Note_on_c, 1, 54, 60
3, 26232, Note_off_c, 1, 57, 0
3, 26232, Note_off_c, 1, 54, 0
3, 26304, Note_on_c, 1, 57, 60
3, 26304, Note_on_c, 1, 54, 60
3, 26464, Note_off_c, 1, 57, 0
3, 26464, Note_off_c, 1, 54, 0
3, 26496, Note_on_c, 1, 56, 60
3, 26496, Note_on_c, 1, 59, 60
3, 26878, Note_off_c, 1, 56, 0
3, 26878, Note_off_c, 1, 59, 0
3, 26880, Note_on_c, 1, 54, 60
3, 26880, Note_on_c, 1, 57, 60
3, 27070, Note_off_c, 1, 54, 0
3, 27070, Note_off_c, 1, 57, 0
3, 27072, Note_on_c, 1, 53, 60
3, 27072, Note_on_c, 1, 56, 60
3, 27384, Note_off_c, 1, 53, 0
3, 27384, Note_off_c, 1, 56, 0
3, 27456, Note_on_c, 1, 53, 60
3, 27456, Note_on_c, 1, 56, 60
3, 27644, Note_off_c, 1, 53, 0
3, 27644, Note_off_c, 1, 56, 0
3, 27648, Note_on_c, 1, 54, 60
3, 27648, Note_on_c, 1, 57, 60
3, 27838, Note_off_c, 1, 54, 0
3, 27838, Note_off_c, 1, 57, 0
3, 28032, Note_on_c, 1, 54, 60
3, 28032, Note_on_c, 1, 57, 60
3, 28112, Note_off_c, 1, 54, 0
3, 28112, Note_off_c, 1, 57, 0
3, 28224, Note_on_c, 1, 54, 60
3, 28224, Note_on_c, 1, 57, 60
3, 28414, Note_off_c, 1, 54, 0
3, 28414, Note_off_c, 1, 57, 0
3, 28608, Note_on_c, 1, 54, 60
3, 28608, Note_on_c, 1, 57, 60
3, 28688, Note_off_c, 1, 54, 0
3, 28688, Note_off_c, 1, 57, 0
3, 28800, Note_on_c, 1, 59, 60
3, 28800, Note_on_c, 1, 56, 60
3, 28990, Note_off_c, 1, 59, 0
3, 28990, Note_off_c, 1, 56, 0
3, 29184, Note_on_c, 1, 56, 60
3, 29184, Note_on_c, 1, 59, 60
3, 29264, Note_off_c, 1, 56, 0
3, 29264, Note_off_c, 1, 59, 0
3, 29376, Note_on_c, 1, 59, 60
3, 29376, Note_on_c, 1, 56, 60
3, 29566, Note_off_c, 1, 59, 0
3, 29566, Note_off_c, 1, 56, 0
3, 29760, Note_on_c, 1, 56, 60
3, 29760, Note_on_c, 1, 59, 60
3, 29840, Note_off_c, 1, 56, 0
3, 29840, Note_off_c, 1, 59, 0
3, 29952, Note_on_c, 1, 57, 60
3, 30142, Note_off_c, 1, 57, 0
3, 30336, Note_on_c, 1, 57, 60
3, 30416, Note_off_c, 1, 57, 0
3, 30528, Note_on_c, 1, 49, 60
3, 30528, Note_on_c, 1, 57, 60
3, 30718, Note_off_c, 1, 49, 0
3, 30718, Note_off_c, 1, 57, 0
3, 30912, Note_on_c, 1, 57, 60
3, 30912, Note_on_c, 1, 49, 60
3, 30992, Note_off_c, 1, 57, 0
3, 30992, Note_off_c, 1, 49, 0
3, 31104, Note_on_c, 1, 54, 60
3, 31104, Note_on_c, 1, 50, 60
3, 31294, Note_off_c, 1, 54, 0
3, 31294, Note_off_c, 1, 50, 0
3, 31488, Note_on_c, 1, 54, 60
3, 31488, Note_on_c, 1, 50, 60
3, 31568, Note_off_c, 1, 54, 0
3, 31568, Note_off_c, 1, 50, 0
3, 31680, Note_on_c, 1, 54, 60
3, 31680, Note_on_c, 1, 51, 60
3, 31870, Note_off_c, 1, 54, 0
3, 31870, Note_off_c, 1, 51, 0
3, 32064, Note_on_c, 1, 54, 60
3, 32064, Note_on_c, 1, 51, 60
3, 32144, Note_off_c, 1, 54, 0
3, 32144, Note_off_c, 1, 51, 0
3, 32256, Note_on_c, 1, 57, 60
3, 32256, Note_on_c, 1, 52, 60
3, 32446, Note_off_c, 1, 57, 0
3, 32446, Note_off_c, 1, 52, 0
3, 32640, Note_on_c, 1, 56, 60
3, 32640, Note_on_c, 1, 52, 60
3, 32720, Note_off_c, 1, 56, 0
3, 32720, Note_off_c, 1, 52, 0
3, 32832, Note_on_c, 1, 56, 60
3, 32832, Note_on_c, 1, 52, 60
3, 33022, Note_off_c, 1, 56, 0
3, 33022, Note_off_c, 1, 52, 0
3, 33216, Note_on_c, 1, 56, 60
3, 33216, Note_on_c, 1, 52, 60
3, 33296, Note_off_c, 1, 56, 0
3, 33296, Note_off_c, 1, 52, 0
3, 33408, Note_on_c, 1, 57, 60
3, 33408, Note_on_c, 1, 52, 60
3, 33598, Note_off_c, 1, 57, 0
3, 33598, Note_off_c, 1, 52, 0
3, 33792, Note_on_c, 1, 57, 60
3, 33792, Note_on_c, 1, 52, 60
3, 33872, Note_off_c, 1, 57, 0
3, 33872, Note_off_c, 1, 52, 0
3, 33984, Note_on_c, 1, 52, 60
3, 33984, Note_on_c, 1, 57, 60
3, 34174, Note_off_c, 1, 52, 0
3, 34174, Note_off_c, 1, 57, 0
3, 34368, Note_on_c, 1, 57, 60
3, 34368, Note_on_c, 1, 52, 60
3, 34448, Note_off_c, 1, 57, 0
3, 34448, Note_off_c, 1, 52, 0
3, 34560, Note_on_c, 1, 56, 60
3, 34560, Note_on_c, 1, 52, 60
3, 34750, Note_off_c, 1, 56, 0
3, 34750, Note_off_c, 1, 52, 0
3, 34944, Note_on_c, 1, 52, 60
3, 34944, Note_on_c, 1, 56, 60
3, 35024, Note_off_c, 1, 52, 0
3, 35024, Note_off_c, 1, 56, 0
3, 35136, Note_on_c, 1, 56, 60
3, 35136, Note_on_c, 1, 52, 60
3, 35326, Note_off_c, 1, 56, 0
3, 35326, Note_off_c, 1, 52, 0
3, 35520, Note_on_c, 1, 52, 60
3, 35520, Note_on_c, 1, 56, 60
3, 35600, Note_off_c, 1, 52, 0
3, 35600, Note_off_c, 1, 56, 0
3, 35712, Note_on_c, 1, 57, 60
3, 35712, Note_on_c, 1, 53, 60
3, 35902, Note_off_c, 1, 57, 0
3, 35902, Note_off_c, 1, 53, 0
3, 36096, Note_on_c, 1, 57, 60
3, 36096, Note_on_c, 1, 53, 60
3, 36176, Note_off_c, 1, 57, 0
3, 36176, Note_off_c, 1, 53, 0
3, 36288, Note_on_c, 1, 53, 60
3, 36288, Note_on_c, 1, 57, 60
3, 36478, Note_off_c, 1, 53, 0
3, 36478, Note_off_c, 1, 57, 0
3, 36672, Note_on_c, 1, 53, 60
3, 36672, Note_on_c, 1, 57, 60
3, 36752, Note_off_c, 1, 53, 0
3, 36752, Note_off_c, 1, 57, 0
3, 36864, Note_on_c, 1, 52, 60
3, 37054, Note_off_c, 1, 52, 0
3, 37056, Note_on_c, 1, 56, 60
3, 37246, Note_off_c, 1, 56, 0
3, 37248, Note_on_c, 1, 59, 60
3, 37438, Note_off_c, 1, 59, 0
3, 37440, Note_on_c, 1, 52, 60
3, 37630, Note_off_c, 1, 52, 0
3, 37632, Note_on_c, 1, 57, 60
3, 37822, Note_off_c, 1, 57, 0
3, 37824, Note_on_c, 1, 60, 60
3, 38014, Note_off_c, 1, 60, 0
3, 38016, Note_on_c, 1, 52, 60
3, 38206, Note_off_c, 1, 52, 0
3, 38208, Note_on_c, 1, 56, 60
3, 38398, Note_off_c, 1, 56, 0
3, 38400, Note_on_c, 1, 59, 60
3, 38590, Note_off_c, 1, 59, 0
3, 38592, Note_on_c, 1, 52, 60
3, 38782, Note_off_c, 1, 52, 0
3, 38784, Note_on_c, 1, 57, 60
3, 38974, Note_off_c, 1, 57, 0
3, 38976, Note_on_c, 1, 60, 60
3, 39166, Note_off_c, 1, 60, 0
3, 39168, Note_on_c, 1, 52, 60
3, 39480, Note_off_c, 1, 52, 0
3, 44928, Note_on_c, 1, 52, 70
3, 44990, Note_off_c, 1, 52, 0
3, 44992, Note_on_c, 1, 57, 70
3, 45054, Note_off_c, 1, 57, 0
3, 45056, Note_on_c, 1, 61, 70
3, 45118, Note_off_c, 1, 61, 0
3, 45120, Note_on_c, 1, 64, 70
3, 45182, Note_off_c, 1, 64, 0
3, 45184, Note_on_c, 1, 61, 70
3, 45246, Note_off_c, 1, 61, 0
3, 45248, Note_on_c, 1, 57, 70
3, 45310, Note_off_c, 1, 57, 0
3, 45312, Note_on_c, 1, 52, 70
3, 45374, Note_off_c, 1, 52, 0
3, 45376, Note_on_c, 1, 57, 70
3, 45438, Note_off_c, 1, 57, 0
3, 45440, Note_on_c, 1, 61, 70
3, 45502, Note_off_c, 1, 61, 0
3, 45504, Note_on_c, 1, 52, 70
3, 45566, Note_off_c, 1, 52, 0
3, 45568, Note_on_c, 1, 57, 70
3, 45630, Note_off_c, 1, 57, 0
3, 45632, Note_on_c, 1, 61, 70
3, 45694, Note_off_c, 1, 61, 0
3, 45696, Note_on_c, 1, 64, 70
3, 45758, Note_off_c, 1, 64, 0
3, 45760, Note_on_c, 1, 61, 70
3, 45822, Note_off_c, 1, 61, 0
3, 45824, Note_on_c, 1, 57, 70
3, 45886, Note_off_c, 1, 57, 0
3, 45888, Note_on_c, 1, 52, 70
3, 45950, Note_off_c, 1, 52, 0
3, 45952, Note_on_c, 1, 57, 70
3, 46014, Note_off_c, 1, 57, 0
3, 46016, Note_on_c, 1, 61, 70
3, 46064, Note_off_c, 1, 61, 0
3, 46080, Note_on_c, 1, 52, 70
3, 46142, Note_off_c, 1, 52, 0
3, 46144, Note_on_c, 1, 56, 70
3, 46206, Note_off_c, 1, 56, 0
3, 46208, Note_on_c, 1, 59, 70
3, 46270, Note_off_c, 1, 59, 0
3, 46272, Note_on_c, 1, 64, 70
3, 46334, Note_off_c, 1, 64, 0
3, 46336, Note_on_c, 1, 59, 70
3, 46398, Note_off_c, 1, 59, 0
3, 46400, Note_on_c, 1, 56, 70
3, 46462, Note_off_c, 1, 56, 0
3, 46464, Note_on_c, 1, 52, 70
3, 46526, Note_off_c, 1, 52, 0
3, 46528, Note_on_c, 1, 56, 70
3, 46590, Note_off_c, 1, 56, 0
3, 46592, Note_on_c, 1, 59, 70
3, 46654, Note_off_c, 1, 59, 0
3, 46656, Note_on_c, 1, 52, 70
3, 46718, Note_off_c, 1, 52, 0
3, 46720, Note_on_c, 1, 56, 70
3, 46782, Note_off_c, 1, 56, 0
3, 46784, Note_on_c, 1, 59, 70
3, 46846, Note_off_c, 1, 59, 0
3, 46848, Note_on_c, 1, 64, 70
3, 46910, Note_off_c, 1, 64, 0
3, 46912, Note_on_c, 1, 59, 70
3, 46974, Note_off_c, 1, 59, 0
3, 46976, Note_on_c, 1, 56, 70
3, 47038, Note_off_c, 1, 56, 0
3, 47040, Note_on_c, 1, 52, 70
3, 47102, Note_off_c, 1, 52, 0
3, 47104, Note_on_c, 1, 56, 70
3, 47166, Note_off_c, 1, 56, 0
3, 47168, Note_on_c, 1, 59, 70
3, 47216, Note_off_c, 1, 59, 0
3, 47232, Note_on_c, 1, 57, 70
3, 47232, Note_on_c, 1, 54, 70
3, 47544, Note_off_c, 1, 57, 0
3, 47544, Note_off_c, 1, 54, 0
3, 47808, Note_on_c, 1, 59, 70
3, 47808, Note_on_c, 1, 54, 70
3, 47808, Note_on_c, 1, 50, 70
3, 48120, Note_off_c, 1, 59, 0
3, 48120, Note_off_c, 1, 54, 0
3, 48120, Note_off_c, 1, 50, 0
3, 48384, Note_on_c, 1, 61, 70
3, 48384, Note_on_c, 1, 52, 70
3, 48696, Note_off_c, 1, 61, 0
3, 48768, Note_on_c, 1, 62, 70
3, 48848, Note_off_c, 1, 52, 0
3, 48928, Note_off_c, 1, 62, 0
3, 48960, Note_on_c, 1, 57, 70
3, 48960, Note_on_c, 1, 61, 70
3, 49272, Note_off_c, 1, 57, 0
3, 49272, Note_off_c, 1, 61, 0
3, 51648, Note_on_c, 1, 57, 70
3, 51648, Note_on_c, 1, 54, 70
3, 51728, Note_off_c, 1, 57, 0
3, 51728, Note_off_c, 1, 54, 0
3, 51840, Note_on_c, 1, 54, 70
3, 51840, Note_on_c, 1, 50, 70
3, 52152, Note_off_c, 1, 54, 0
3, 52152, Note_off_c, 1, 50, 0
3, 52224, Note_on_c, 1, 62, 70
3, 52224, Note_on_c, 1, 52, 70
3, 52384, Note_off_c, 1, 62, 0
3, 52384, Note_off_c, 1, 52, 0
3, 52416, Note_on_c, 1, 61, 70
3, 52416, Note_on_c, 1, 57, 70
3, 52728, Note_off_c, 1, 61, 0
3, 52728, Note_off_c, 1, 57, 0
3, 53184, Note_on_c, 1, 64, 70
3, 53184, Note_on_c, 1, 56, 70
3, 53374, Note_off_c, 1, 56, 0
3, 53376, Note_on_c, 1, 57, 70
3, 53566, Note_off_c, 1, 64, 0
3, 53566, Note_off_c, 1, 57, 0
3, 53568, Note_on_c, 1, 56, 70
3, 53568, Note_on_c, 1, 52, 70
3, 53728, Note_off_c, 1, 56, 0
3, 53728, Note_off_c, 1, 52, 0
3, 54144, Note_on_c, 1, 49, 70
3, 54144, Note_on_c, 1, 45, 70
3, 54224, Note_off_c, 1, 49, 0
3, 54224, Note_off_c, 1, 45, 0
3, 54336, Note_on_c, 1, 52, 70
3, 54336, Note_on_c, 1, 49, 70
3, 54416, Note_off_c, 1, 52, 0
3, 54416, Note_off_c, 1, 49, 0
3, 54528, Note_on_c, 1, 56, 70
3, 54528, Note_on_c, 1, 52, 70
3, 54608, Note_off_c, 1, 56, 0
3, 54608, Note_off_c, 1, 52, 0
3, 54720, Note_on_c, 1, 57, 70
3, 54720, Note_on_c, 1, 54, 70
3, 54800, Note_off_c, 1, 57, 0
3, 54800, Note_off_c, 1, 54, 0
3, 55296, Note_on_c, 1, 50, 70
3, 55608, Note_off_c, 1, 50, 0
3, 55872, Note_on_c, 1, 51, 70
3, 56184, Note_off_c, 1, 51, 0
3, 57600, Note_on_c, 1, 52, 70
3, 57912, Note_off_c, 1, 52, 64
3, 58176, Note_on_c, 1, 52, 70
3, 58488, Note_off_c, 1, 52, 64
3, 58752, Note_on_c, 1, 45, 70
3, 58912, Note_off_c, 1, 45, 0
3, 61056, Note_on_c, 1, 57, 70
3, 61056, Note_on_c, 1, 54, 70
3, 61246, Note_off_c, 1, 57, 0
3, 61246, Note_off_c, 1, 54, 0
3, 61440, Note_on_c, 1, 57, 70
3, 61440, Note_on_c, 1, 54, 70
3, 61520, Note_off_c, 1, 57, 0
3, 61520, Note_off_c, 1, 54, 0
3, 61632, Note_on_c, 1, 57, 70
3, 61632, Note_on_c, 1, 54, 70
3, 61822, Note_off_c, 1, 57, 0
3, 61822, Note_off_c, 1, 54, 0
3, 62016, Note_on_c, 1, 61, 70
3, 62016, Note_on_c, 1, 54, 70
3, 62096, Note_off_c, 1, 61, 0
3, 62096, Note_off_c, 1, 54, 0
3, 62208, Note_on_c, 1, 62, 70
3, 62208, Note_on_c, 1, 54, 70
3, 62672, Note_off_c, 1, 62, 0
3, 62672, Note_off_c, 1, 54, 0
3, 62784, Note_on_c, 1, 41, 70
3, 63096, Note_off_c, 1, 41, 0
3, 63168, Note_on_c, 1, 61, 70
3, 63168, Note_on_c, 1, 53, 70
3, 63328, Note_off_c, 1, 61, 0
3, 63328, Note_off_c, 1, 53, 0
3, 63360, Note_on_c, 1, 61, 70
3, 63360, Note_on_c, 1, 54, 70
3, 63440, Note_off_c, 1, 61, 0
3, 63440, Note_off_c, 1, 54, 0
3, 63744, Note_on_c, 1, 49, 70
3, 63744, Note_on_c, 1, 45, 70
3, 63904, Note_off_c, 1, 49, 0
3, 63904, Note_off_c, 1, 45, 0
3, 63936, Note_on_c, 1, 47, 70
3, 63936, Note_on_c, 1, 50, 70
3, 64318, Note_off_c, 1, 50, 0
3, 64320, Note_on_c, 1, 59, 70
3, 64400, Note_off_c, 1, 47, 0
3, 64480, Note_off_c, 1, 59, 0
3, 64512, Note_on_c, 1, 57, 70
3, 64512, Note_on_c, 1, 49, 70
3, 65086, Note_off_c, 1, 57, 0
3, 65086, Note_off_c, 1, 49, 0
3, 65088, Note_on_c, 1, 56, 70
3, 65088, Note_on_c, 1, 49, 70
3, 65248, Note_off_c, 1, 56, 0
3, 65248, Note_off_c, 1, 49, 0
3, 65664, Note_on_c, 1, 57, 70
3, 65664, Note_on_c, 1, 54, 70
3, 65854, Note_off_c, 1, 57, 0
3, 65854, Note_off_c, 1, 54, 0
3, 66048, Note_on_c, 1, 57, 70
3, 66048, Note_on_c, 1, 54, 70
3, 66128, Note_off_c, 1, 57, 0
3, 66128, Note_off_c, 1, 54, 0
3, 66240, Note_on_c, 1, 56, 70
3, 66240, Note_on_c, 1, 59, 70
3, 66430, Note_off_c, 1, 56, 0
3, 66430, Note_off_c, 1, 59, 0
3, 66624, Note_on_c, 1, 56, 70
3, 66624, Note_on_c, 1, 59, 70
3, 66704, Note_off_c, 1, 56, 0
3, 66704, Note_off_c, 1, 59, 0
3, 66816, Note_on_c, 1, 64, 70
3, 66816, Note_on_c, 1, 57, 70
3, 67006, Note_off_c, 1, 64, 0
3, 67006, Note_off_c, 1, 57, 0
3, 67200, Note_on_c, 1, 57, 70
3, 67200, Note_on_c, 1, 64, 70
3, 67280, Note_off_c, 1, 57, 0
3, 67280, Note_off_c, 1, 64, 0
3, 67392, Note_on_c, 1, 57, 70
3, 67392, Note_on_c, 1, 54, 70
3, 67582, Note_off_c, 1, 57, 0
3, 67582, Note_off_c, 1, 54, 0
3, 67776, Note_on_c, 1, 57, 70
3, 67776, Note_on_c, 1, 54, 70
3, 67856, Note_off_c, 1, 57, 0
3, 67856, Note_off_c, 1, 54, 0
3, 67968, Note_on_c, 1, 57, 70
3, 67968, Note_on_c, 1, 51, 70
3, 68158, Note_off_c, 1, 57, 0
3, 68158, Note_off_c, 1, 51, 0
3, 68352, Note_on_c, 1, 57, 70
3, 68352, Note_on_c, 1, 51, 70
3, 68432, Note_off_c, 1, 57, 0
3, 68432, Note_off_c, 1, 51, 0
3, 68544, Note_on_c, 1, 56, 70
3, 68544, Note_on_c, 1, 53, 70
3, 68734, Note_off_c, 1, 56, 0
3, 68734, Note_off_c, 1, 53, 0
3, 68928, Note_on_c, 1, 56, 70
3, 68928, Note_on_c, 1, 53, 70
3, 69008, Note_off_c, 1, 56, 0
3, 69008, Note_off_c, 1, 53, 0
3, 69120, Note_on_c, 1, 54, 70
3, 69120, Note_on_c, 1, 61, 70
3, 69310, Note_off_c, 1, 54, 0
3, 69310, Note_off_c, 1, 61, 0
3, 69504, Note_on_c, 1, 54, 70
3, 69504, Note_on_c, 1, 61, 70
3, 69584, Note_off_c, 1, 54, 0
3, 69584, Note_off_c, 1, 61, 0
3, 69696, Note_on_c, 1, 54, 70
3, 69696, Note_on_c, 1, 50, 70
3, 69886, Note_off_c, 1, 54, 0
3, 69886, Note_off_c, 1, 50, 0
3, 70080, Note_on_c, 1, 54, 70
3, 70080, Note_on_c, 1, 50, 70
3, 70160, Note_off_c, 1, 54, 0
3, 70160, Note_off_c, 1, 50, 0
3, 70272, Note_on_c, 1, 55, 70
3, 70272, Note_on_c, 1, 50, 70
3, 70272, Note_on_c, 1, 47, 70
3, 70462, Note_off_c, 1, 55, 0
3, 70462, Note_off_c, 1, 50, 0
3, 70462, Note_off_c, 1, 47, 0
3, 70656, Note_on_c, 1, 55, 70
3, 70656, Note_on_c, 1, 50, 70
3, 70656, Note_on_c, 1, 47, 70
3, 70736, Note_off_c, 1, 55, 0
3, 70736, Note_off_c, 1, 50, 0
3, 70736, Note_off_c, 1, 47, 0
3, 70848, Note_on_c, 1, 55, 70
3, 70848, Note_on_c, 1, 50, 70
3, 70848, Note_on_c, 1, 47, 70
3, 71038, Note_off_c, 1, 55, 0
3, 71038, Note_off_c, 1, 50, 0
3, 71038, Note_off_c, 1, 47, 0
3, 71232, Note_on_c, 1, 55, 70
3, 71232, Note_on_c, 1, 50, 70
3, 71232, Note_on_c, 1, 47, 70
3, 71312, Note_off_c, 1, 55, 0
3, 71312, Note_off_c, 1, 50, 0
3, 71312, Note_off_c, 1, 47, 0
3, 71424, Note_on_c, 1, 55, 70
3, 71424, Note_on_c, 1, 50, 70
3, 71424, Note_on_c, 1, 47, 70
3, 71736, Note_off_c, 1, 55, 0
3, 71736, Note_off_c, 1, 50, 0
3, 71736, Note_off_c, 1, 47, 0
3, 72576, Note_on_c, 1, 57, 70
3, 72576, Note_on_c, 1, 49, 70
3, 72766, Note_off_c, 1, 57, 0
3, 72766, Note_off_c, 1, 49, 0
3, 72960, Note_on_c, 1, 57, 70
3, 72960, Note_on_c, 1, 49, 70
3, 73040, Note_off_c, 1, 57, 0
3, 73040, Note_off_c, 1, 49, 0
3, 73152, Note_on_c, 1, 61, 70
3, 73152, Note_on_c, 1, 49, 70
3, 73342, Note_off_c, 1, 61, 0
3, 73342, Note_off_c, 1, 49, 0
3, 73536, Note_on_c, 1, 59, 70
3, 73536, Note_on_c, 1, 49, 70
3, 73616, Note_off_c, 1, 59, 0
3, 73616, Note_off_c, 1, 49, 0
3, 73728, Note_on_c, 1, 57, 70
3, 73728, Note_on_c, 1, 50, 70
3, 74656, Note_off_c, 1, 57, 0
3, 74656, Note_off_c, 1, 50, 0
3, 74880, Note_on_c, 1, 50, 70
3, 74880, Note_on_c, 1, 47, 70
3, 75192, Note_off_c, 1, 50, 0
3, 75192, Note_off_c, 1, 47, 0
3, 75264, Note_on_c, 1, 50, 70
3, 75264, Note_on_c, 1, 47, 70
3, 75424, Note_off_c, 1, 50, 0
3, 75424, Note_off_c, 1, 47, 0
3, 75456, Note_on_c, 1, 50, 70
3, 75456, Note_on_c, 1, 47, 70
3, 75768, Note_off_c, 1, 50, 0
3, 75768, Note_off_c, 1, 47, 0
3, 75840, Note_on_c, 1, 50, 70
3, 75840, Note_on_c, 1, 47, 70
3, 76000, Note_off_c, 1, 50, 0
3, 76000, Note_off_c, 1, 47, 0
3, 76032, Note_on_c, 1, 50, 70
3, 76032, Note_on_c, 1, 47, 70
3, 76344, Note_off_c, 1, 50, 0
3, 76344, Note_off_c, 1, 47, 0
3, 77184, Note_on_c, 1, 57, 70
3, 77184, Note_on_c, 1, 49, 70
3, 77374, Note_off_c, 1, 57, 0
3, 77374, Note_off_c, 1, 49, 0
3, 77568, Note_on_c, 1, 57, 70
3, 77568, Note_on_c, 1, 49, 70
3, 77648, Note_off_c, 1, 57, 0
3, 77648, Note_off_c, 1, 49, 0
3, 77760, Note_on_c, 1, 61, 70
3, 77760, Note_on_c, 1, 49, 70
3, 78142, Note_off_c, 1, 61, 0
3, 78142, Note_off_c, 1, 49, 0
3, 78144, Note_on_c, 1, 59, 70
3, 78144, Note_on_c, 1, 49, 70
3, 78334, Note_off_c, 1, 59, 0
3, 78334, Note_off_c, 1, 49, 0
3, 78336, Note_on_c, 1, 57, 70
3, 78336, Note_on_c, 1, 54, 70
3, 78648, Note_off_c, 1, 57, 0
3, 78648, Note_off_c, 1, 54, 0
3, 87552, Note_on_c, 1, 54, 70
3, 87646, Note_off_c, 1, 54, 0
3, 87648, Note_on_c, 1, 57, 70
3, 87742, Note_off_c, 1, 57, 0
3, 87744, Note_on_c, 1, 61, 70
3, 87838, Note_off_c, 1, 61, 0
3, 87840, Note_on_c, 1, 57, 70
3, 87934, Note_off_c, 1, 57, 0
3, 87936, Note_on_c, 1, 61, 70
3, 88030, Note_off_c, 1, 61, 0
3, 88032, Note_on_c, 1, 57, 70
3, 88112, Note_off_c, 1, 57, 0
3, 88128, Note_on_c, 1, 54, 70
3, 88222, Note_off_c, 1, 54, 0
3, 88224, Note_on_c, 1, 57, 70
3, 88318, Note_off_c, 1, 57, 0
3, 88320, Note_on_c, 1, 61, 70
3, 88414, Note_off_c, 1, 61, 0
3, 88416, Note_on_c, 1, 57, 70
3, 88510, Note_off_c, 1, 57, 0
3, 88512, Note_on_c, 1, 61, 70
3, 88606, Note_off_c, 1, 61, 0
3, 88608, Note_on_c, 1, 57, 70
3, 88688, Note_off_c, 1, 57, 0
3, 88704, Note_on_c, 1, 54, 70
3, 88798, Note_off_c, 1, 54, 0
3, 88800, Note_on_c, 1, 57, 70
3, 88894, Note_off_c, 1, 57, 0
3, 88896, Note_on_c, 1, 61, 70
3, 88990, Note_off_c, 1, 61, 0
3, 88992, Note_on_c, 1, 57, 70
3, 89086, Note_off_c, 1, 57, 0
3, 89088, Note_on_c, 1, 61, 70
3, 89182, Note_off_c, 1, 61, 0
3, 89184, Note_on_c, 1, 57, 70
3, 89264, Note_off_c, 1, 57, 0
3, 89280, Note_on_c, 1, 56, 70
3, 89374, Note_off_c, 1, 56, 0
3, 89376, Note_on_c, 1, 59, 70
3, 89470, Note_off_c, 1, 59, 0
3, 89472, Note_on_c, 1, 61, 70
3, 89566, Note_off_c, 1, 61, 0
3, 89568, Note_on_c, 1, 59, 70
3, 89662, Note_off_c, 1, 59, 0
3, 89664, Note_on_c, 1, 61, 70
3, 89758, Note_off_c, 1, 61, 0
3, 89760, Note_on_c, 1, 59, 70
3, 89840, Note_off_c, 1, 59, 0
3, 89856, Note_on_c, 1, 57, 70
3, 89950, Note_off_c, 1, 57, 0
3, 89952, Note_on_c, 1, 59, 70
3, 90046, Note_off_c, 1, 59, 0
3, 90048, Note_on_c, 1, 65, 70
3, 90142, Note_off_c, 1, 65, 0
3, 90144, Note_on_c, 1, 59, 70
3, 90238, Note_off_c, 1, 59, 0
3, 90240, Note_on_c, 1, 65, 70
3, 90334, Note_off_c, 1, 65, 0
3, 90336, Note_on_c, 1, 59, 70
3, 90416, Note_off_c, 1, 59, 0
3, 90432, Note_on_c, 1, 57, 70
3, 90526, Note_off_c, 1, 57, 0
3, 90528, Note_on_c, 1, 61, 70
3, 90622, Note_off_c, 1, 61, 0
3, 90624, Note_on_c, 1, 66, 70
3, 90718, Note_off_c, 1, 66, 0
3, 90720, Note_on_c, 1, 61, 70
3, 90814, Note_off_c, 1, 61, 0
3, 90816, Note_on_c, 1, 66, 70
3, 90910, Note_off_c, 1, 66, 0
3, 90912, Note_on_c, 1, 61, 70
3, 90992, Note_off_c, 1, 61, 0
3, 91008, Note_on_c, 1, 59, 70
3, 91102, Note_off_c, 1, 59, 0
3, 91104, Note_on_c, 1, 62, 70
3, 91198, Note_off_c, 1, 62, 0
3, 91200, Note_on_c, 1, 66, 70
3, 91294, Note_off_c, 1, 66, 0
3, 91296, Note_on_c, 1, 62, 70
3, 91390, Note_off_c, 1, 62, 0
3, 91392, Note_on_c, 1, 66, 70
3, 91486, Note_off_c, 1, 66, 0
3, 91488, Note_on_c, 1, 62, 70
3, 91568, Note_off_c, 1, 62, 0
3, 91584, Note_on_c, 1, 59, 70
3, 91678, Note_off_c, 1, 59, 0
3, 91680, Note_on_c, 1, 62, 70
3, 91774, Note_off_c, 1, 62, 0
3, 91776, Note_on_c, 1, 68, 70
3, 91870, Note_off_c, 1, 68, 0
3, 91872, Note_on_c, 1, 62, 70
3, 91966, Note_off_c, 1, 62, 0
3, 91968, Note_on_c, 1, 68, 70
3, 92062, Note_off_c, 1, 68, 0
3, 92064, Note_on_c, 1, 62, 70
3, 92144, Note_off_c, 1, 62, 0
3, 92256, Note_on_c, 1, 49, 70
3, 92350, Note_off_c, 1, 49, 0
3, 92352, Note_on_c, 1, 53, 70
3, 92446, Note_off_c, 1, 53, 0
3, 92448, Note_on_c, 1, 56, 70
3, 92542, Note_off_c, 1, 56, 0
3, 92544, Note_on_c, 1, 61, 70
3, 92638, Note_off_c, 1, 61, 0
3, 92640, Note_on_c, 1, 49, 70
3, 92734, Note_off_c, 1, 49, 0
3, 92736, Note_on_c, 1, 61, 70
3, 93048, Note_off_c, 1, 61, 0
3, 93408, Note_on_c, 1, 37, 70
3, 93502, Note_off_c, 1, 37, 0
3, 93504, Note_on_c, 1, 39, 70
3, 93598, Note_off_c, 1, 39, 0
3, 93600, Note_on_c, 1, 42, 70
3, 93694, Note_off_c, 1, 42, 0
3, 93696, Note_on_c, 1, 49, 70
3, 93790, Note_off_c, 1, 49, 0
3, 93792, Note_on_c, 1, 37, 70
3, 93886, Note_off_c, 1, 37, 0
3, 93888, Note_on_c, 1, 49, 70
3, 94200, Note_off_c, 1, 49, 0
3, 94560, Note_on_c, 1, 49, 70
3, 94654, Note_off_c, 1, 49, 0
3, 94656, Note_on_c, 1, 54, 70
3, 94750, Note_off_c, 1, 54, 0
3, 94752, Note_on_c, 1, 58, 70
3, 94846, Note_off_c, 1, 58, 0
3, 94848, Note_on_c, 1, 61, 70
3, 94942, Note_off_c, 1, 61, 0
3, 94944, Note_on_c, 1, 49, 70
3, 95038, Note_off_c, 1, 49, 0
3, 95040, Note_on_c, 1, 61, 70
3, 95352, Note_off_c, 1, 61, 0
3, 95712, Note_on_c, 1, 37, 70
3, 95806, Note_off_c, 1, 37, 0
3, 95808, Note_on_c, 1, 42, 70
3, 95902, Note_off_c, 1, 42, 0
3, 95904, Note_on_c, 1, 44, 70
3, 95998, Note_off_c, 1, 44, 0
3, 96000, Note_on_c, 1, 49, 70
3, 96094, Note_off_c, 1, 49, 0
3, 96096, Note_on_c, 1, 37, 70
3, 96190, Note_off_c, 1, 37, 0
3, 96192, Note_on_c, 1, 49, 70
3, 96504, Note_off_c, 1, 49, 0
3, 96768, Note_on_c, 1, 54, 70
3, 97080, Note_off_c, 1, 54, 0
3, 97920, Note_on_c, 1, 50, 70
3, 98232, Note_off_c, 1, 50, 0
3, 99072, Note_on_c, 1, 47, 70
3, 99384, Note_off_c, 1, 47, 0
3, 100224, Note_on_c, 1, 49, 70
3, 100536, Note_off_c, 1, 49, 0
3, 101376, Note_on_c, 1, 54, 70
3, 101688, Note_off_c, 1, 54, 0
3, 102528, Note_on_c, 1, 50, 70
3, 102840, Note_off_c, 1, 50, 0
3, 103680, Note_on_c, 1, 47, 70
3, 103992, Note_off_c, 1, 47, 0
3, 104832, Note_on_c, 1, 49, 70
3, 105144, Note_off_c, 1, 49, 0
3, 105984, Note_on_c, 1, 54, 70
3, 106296, Note_off_c, 1, 54, 0
3, 107712, Note_on_c, 1, 49, 70
3, 108024, Note_off_c, 1, 49, 0
3, 108288, Note_on_c, 1, 45, 70
3, 108600, Note_off_c, 1, 45, 0
3, 110016, Note_on_c, 1, 49, 70
3, 110328, Note_off_c, 1, 49, 0
3, 110592, Note_on_c, 1, 45, 70
3, 110904, Note_off_c, 1, 45, 0
3, 111168, Note_on_c, 1, 48, 70
3, 111632, Note_off_c, 1, 48, 0
3, 111744, Note_on_c, 1, 49, 70
3, 112056, Note_off_c, 1, 49, 0
3, 112320, Note_on_c, 1, 49, 70
3, 112632, Note_off_c, 1, 49, 0
3, 112896, Note_on_c, 1, 54, 60
3, 113056, Note_off_c, 1, 54, 0
3, 113472, Note_on_c, 1, 54, 55
3, 113632, Note_off_c, 1, 54, 0
3, 114048, Note_on_c, 1, 54, 45
3, 114208, Note_off_c, 1, 54, 0
3, 114208, End_track
4, 0, Start_track
4, 0, Title_t, "Midi by:"
4, 0, Control_c, 2, 0, 0
4, 0, Program_c, 2, 48
4, 0, Control_c, 2, 10, 45
4, 0, Control_c, 2, 91, 42
4, 0, Control_c, 2, 93, 0
4, 0, Key_signature, 3, "major"
4, 0, Control_c, 2, 121, 0
4, 192, Control_c, 2, 10, 48
4, 240, Control_c, 2, 91, 85
4, 336, Program_c, 2, 48
4, 13920, Note_on_c, 2, 57, 60
4, 14014, Note_off_c, 2, 57, 0
4, 14016, Note_on_c, 2, 61, 60
4, 14110, Note_off_c, 2, 61, 0
4, 14112, Note_on_c, 2, 66, 60
4, 14206, Note_off_c, 2, 66, 0
4, 14208, Note_on_c, 2, 61, 60
4, 14302, Note_off_c, 2, 61, 0
4, 14304, Note_on_c, 2, 57, 60
4, 14384, Note_off_c, 2, 57, 0
4, 14400, Note_on_c, 2, 81, 60
4, 14400, Note_on_c, 2, 69, 60
4, 15166, Note_off_c, 2, 81, 64
4, 15166, Note_off_c, 2, 69, 64
4, 15168, Note_on_c, 2, 80, 60
4, 15168, Note_on_c, 2, 68, 60
4, 15358, Note_off_c, 2, 80, 0
4, 15358, Note_off_c, 2, 68, 0
4, 15360, Note_on_c, 2, 78, 60
4, 15360, Note_on_c, 2, 66, 60
4, 15550, Note_off_c, 2, 78, 0
4, 15550, Note_off_c, 2, 66, 0
4, 15552, Note_on_c, 2, 77, 60
4, 15552, Note_on_c, 2, 65, 60
4, 15742, Note_off_c, 2, 77, 0
4, 15742, Note_off_c, 2, 65, 0
4, 15744, Note_on_c, 2, 78, 60
4, 15744, Note_on_c, 2, 66, 60
4, 15934, Note_off_c, 2, 78, 0
4, 15934, Note_off_c, 2, 66, 0
4, 15936, Note_on_c, 2, 68, 60
4, 15936, Note_on_c, 2, 80, 60
4, 16126, Note_off_c, 2, 68, 0
4, 16126, Note_off_c, 2, 80, 0
4, 16128, Note_on_c, 2, 73, 60
4, 16224, Note_on_c, 2, 61, 60
4, 16304, Note_off_c, 2, 61, 0
4, 16304, Note_on_c, 2, 65, 60
4, 16384, Note_off_c, 2, 65, 0
4, 16416, Note_on_c, 2, 61, 60
4, 16496, Note_off_c, 2, 61, 0
4, 16512, Note_on_c, 2, 65, 60
4, 16592, Note_off_c, 2, 65, 0
4, 16608, Note_on_c, 2, 61, 60
4, 16672, Note_off_c, 2, 73, 0
4, 16688, Note_off_c, 2, 61, 0
4, 16704, Note_on_c, 2, 73, 60
4, 16704, Note_on_c, 2, 85, 60
4, 17470, Note_off_c, 2, 73, 64
4, 17470, Note_off_c, 2, 85, 64
4, 17472, Note_on_c, 2, 83, 60
4, 17472, Note_on_c, 2, 71, 60
4, 17662, Note_off_c, 2, 83, 0
4, 17662, Note_off_c, 2, 71, 0
4, 17664, Note_on_c, 2, 81, 60
4, 17664, Note_on_c, 2, 69, 60
4, 17854, Note_off_c, 2, 81, 0
4, 17854, Note_off_c, 2, 69, 0
4, 17856, Note_on_c, 2, 80, 60
4, 17856, Note_on_c, 2, 68, 60
4, 18046, Note_off_c, 2, 80, 0
4, 18046, Note_off_c, 2, 68, 0
4, 18048, Note_on_c, 2, 81, 60
4, 18048, Note_on_c, 2, 69, 60
4, 18238, Note_off_c, 2, 81, 0
4, 18238, Note_off_c, 2, 69, 0
4, 18240, Note_on_c, 2, 83, 60
4, 18240, Note_on_c, 2, 71, 60
4, 18430, Note_off_c, 2, 83, 0
4, 18430, Note_off_c, 2, 71, 0
4, 18432, Note_on_c, 2, 77, 60
4, 18432, Note_on_c, 2, 65, 60
4, 18976, Note_off_c, 2, 77, 0
4, 18976, Note_off_c, 2, 65, 0
4, 19008, Note_on_c, 2, 81, 85
4, 19008, Note_on_c, 2, 69, 85
4, 19772, Note_off_c, 2, 69, 0
4, 19772, Note_off_c, 2, 81, 0
4, 19776, Note_on_c, 2, 80, 85
4, 19776, Note_on_c, 2, 68, 85
4, 19964, Note_off_c, 2, 80, 0
4, 19964, Note_off_c, 2, 68, 0
4, 19968, Note_on_c, 2, 78, 85
4, 19968, Note_on_c, 2, 66, 85
4, 20156, Note_off_c, 2, 78, 0
4, 20156, Note_off_c, 2, 66, 0
4, 20160, Note_on_c, 2, 77, 85
4, 20160, Note_on_c, 2, 65, 85
4, 20348, Note_off_c, 2, 77, 0
4, 20348, Note_off_c, 2, 65, 0
4, 20352, Note_on_c, 2, 78, 85
4, 20352, Note_on_c, 2, 66, 85
4, 20540, Note_off_c, 2, 78, 0
4, 20540, Note_off_c, 2, 66, 0
4, 20544, Note_on_c, 2, 80, 85
4, 20544, Note_on_c, 2, 68, 85
4, 20732, Note_off_c, 2, 80, 0
4, 20732, Note_off_c, 2, 68, 0
4, 20736, Note_on_c, 2, 73, 85
4, 20736, Note_on_c, 2, 67, 85
4, 20736, Note_on_c, 2, 64, 85
4, 20896, Note_off_c, 2, 64, 0
4, 20924, Note_off_c, 2, 67, 0
4, 20928, Note_on_c, 2, 66, 85
4, 21088, Note_off_c, 2, 66, 0
4, 21120, Note_on_c, 2, 64, 85
4, 21280, Note_off_c, 2, 64, 0
4, 21310, Note_off_c, 2, 73, 0
4, 21312, Note_on_c, 2, 73, 85
4, 21408, Note_on_c, 2, 62, 85
4, 21472, Note_off_c, 2, 73, 0
4, 21504, Note_on_c, 2, 67, 85
4, 21504, Note_on_c, 2, 71, 85
4, 21568, Note_off_c, 2, 62, 0
4, 21600, Note_on_c, 2, 62, 85
4, 21760, Note_off_c, 2, 62, 0
4, 21792, Note_on_c, 2, 62, 85
4, 21816, Note_off_c, 2, 67, 0
4, 21872, Note_off_c, 2, 62, 0
4, 21984, Note_on_c, 2, 61, 85
4, 22078, Note_off_c, 2, 71, 0
4, 22078, Note_off_c, 2, 61, 0
4, 22080, Note_on_c, 2, 73, 85
4, 22080, Note_on_c, 2, 65, 85
4, 22174, Note_off_c, 2, 65, 0
4, 22176, Note_on_c, 2, 68, 85
4, 22268, Note_off_c, 2, 73, 0
4, 22270, Note_off_c, 2, 68, 0
4, 22272, Note_on_c, 2, 69, 85
4, 22272, Note_on_c, 2, 66, 85
4, 22366, Note_off_c, 2, 66, 0
4, 22368, Note_on_c, 2, 61, 85
4, 22448, Note_off_c, 2, 61, 0
4, 22560, Note_on_c, 2, 66, 85
4, 22654, Note_off_c, 2, 69, 0
4, 22654, Note_off_c, 2, 66, 0
4, 22656, Note_on_c, 2, 71, 85
4, 22656, Note_on_c, 2, 62, 85
4, 22750, Note_off_c, 2, 62, 0
4, 22752, Note_on_c, 2, 66, 85
4, 22816, Note_off_c, 2, 71, 0
4, 22846, Note_off_c, 2, 66, 0
4, 22848, Note_on_c, 2, 68, 85
4, 22848, Note_on_c, 2, 65, 85
4, 22942, Note_off_c, 2, 65, 0
4, 22944, Note_on_c, 2, 59, 85
4, 23024, Note_off_c, 2, 59, 0
4, 23036, Note_off_c, 2, 68, 0
4, 23040, Note_on_c, 2, 66, 85
4, 23040, Note_on_c, 2, 57, 85
4, 23352, Note_off_c, 2, 66, 0
4, 23352, Note_off_c, 2, 57, 0
4, 28800, Note_on_c, 2, 74, 60
4, 28800, Note_on_c, 2, 71, 60
4, 28800, Note_on_c, 2, 64, 60
4, 29728, Note_off_c, 2, 74, 0
4, 29728, Note_off_c, 2, 71, 0
4, 29728, Note_off_c, 2, 64, 0
4, 29952, Note_on_c, 2, 73, 60
4, 29952, Note_on_c, 2, 69, 60
4, 29952, Note_on_c, 2, 64, 60
4, 30880, Note_off_c, 2, 73, 0
4, 30880, Note_off_c, 2, 69, 0
4, 30880, Note_off_c, 2, 64, 0
4, 31104, Note_on_c, 2, 71, 60
4, 31104, Note_on_c, 2, 66, 60
4, 31104, Note_on_c, 2, 69, 60
4, 31678, Note_off_c, 2, 71, 0
4, 31680, Note_on_c, 2, 73, 60
4, 32032, Note_off_c, 2, 66, 0
4, 32032, Note_off_c, 2, 69, 0
4, 32144, Note_off_c, 2, 73, 0
4, 32256, Note_on_c, 2, 73, 60
4, 32256, Note_on_c, 2, 69, 60
4, 32638, Note_off_c, 2, 73, 0
4, 32638, Note_off_c, 2, 69, 0
4, 32640, Note_on_c, 2, 71, 60
4, 32640, Note_on_c, 2, 68, 60
4, 32800, Note_off_c, 2, 71, 0
4, 32800, Note_off_c, 2, 68, 0
4, 33408, Note_on_c, 2, 69, 60
4, 33408, Note_on_c, 2, 60, 60
4, 33598, Note_off_c, 2, 69, 0
4, 33598, Note_off_c, 2, 60, 0
4, 33600, Note_on_c, 2, 72, 60
4, 33600, Note_on_c, 2, 69, 60
4, 33790, Note_off_c, 2, 72, 0
4, 33790, Note_off_c, 2, 69, 0
4, 33792, Note_on_c, 2, 76, 60
4, 33792, Note_on_c, 2, 72, 60
4, 33952, Note_off_c, 2, 76, 0
4, 33952, Note_off_c, 2, 72, 0
4, 34560, Note_on_c, 2, 68, 60
4, 34560, Note_on_c, 2, 59, 60
4, 34750, Note_off_c, 2, 68, 0
4, 34750, Note_off_c, 2, 59, 0
4, 34752, Note_on_c, 2, 68, 60
4, 34752, Note_on_c, 2, 71, 60
4, 34942, Note_off_c, 2, 68, 0
4, 34942, Note_off_c, 2, 71, 0
4, 34944, Note_on_c, 2, 76, 60
4, 34944, Note_on_c, 2, 68, 60
4, 35104, Note_off_c, 2, 76, 0
4, 35104, Note_off_c, 2, 68, 0
4, 35712, Note_on_c, 2, 69, 85
4, 35712, Note_on_c, 2, 76, 85
4, 36094, Note_off_c, 2, 76, 0
4, 36096, Note_on_c, 2, 75, 60
4, 36286, Note_off_c, 2, 69, 0
4, 36286, Note_off_c, 2, 75, 0
4, 36288, Note_on_c, 2, 63, 60
4, 36288, Note_on_c, 2, 72, 60
4, 36670, Note_off_c, 2, 72, 0
4, 36672, Note_on_c, 2, 69, 60
4, 36862, Note_off_c, 2, 63, 0
4, 36862, Note_off_c, 2, 69, 0
4, 36864, Note_on_c, 2, 71, 60
4, 36864, Note_on_c, 2, 68, 60
4, 37438, Note_off_c, 2, 71, 0
4, 37438, Note_off_c, 2, 68, 0
4, 37440, Note_on_c, 2, 72, 60
4, 37440, Note_on_c, 2, 69, 60
4, 38014, Note_off_c, 2, 72, 0
4, 38014, Note_off_c, 2, 69, 0
4, 38016, Note_on_c, 2, 71, 60
4, 38016, Note_on_c, 2, 68, 60
4, 38176, Note_off_c, 2, 71, 0
4, 38176, Note_off_c, 2, 68, 0
4, 40320, Note_on_c, 2, 76, 60
4, 40320, Note_on_c, 2, 73, 60
4, 40784, Note_off_c, 2, 76, 0
4, 40784, Note_off_c, 2, 73, 0
4, 40896, Note_on_c, 2, 69, 60
4, 40896, Note_on_c, 2, 73, 60
4, 41208, Note_off_c, 2, 69, 0
4, 41208, Note_off_c, 2, 73, 0
4, 41280, Note_on_c, 2, 74, 60
4, 41280, Note_on_c, 2, 71, 60
4, 41326, Note_off_c, 2, 74, 0
4, 41326, Note_off_c, 2, 71, 0
4, 41328, Note_on_c, 2, 73, 60
4, 41328, Note_on_c, 2, 69, 60
4, 41374, Note_off_c, 2, 73, 0
4, 41374, Note_off_c, 2, 69, 0
4, 41376, Note_on_c, 2, 71, 60
4, 41376, Note_on_c, 2, 68, 60
4, 41422, Note_off_c, 2, 71, 0
4, 41422, Note_off_c, 2, 68, 0
4, 41424, Note_on_c, 2, 73, 60
4, 41424, Note_on_c, 2, 69, 60
4, 41464, Note_off_c, 2, 73, 0
4, 41464, Note_off_c, 2, 69, 0
4, 41472, Note_on_c, 2, 74, 60
4, 41472, Note_on_c, 2, 71, 60
4, 41552, Note_off_c, 2, 74, 0
4, 41552, Note_off_c, 2, 71, 0
4, 41664, Note_on_c, 2, 74, 60
4, 41664, Note_on_c, 2, 71, 60
4, 41744, Note_off_c, 2, 74, 0
4, 41744, Note_off_c, 2, 71, 0
4, 41856, Note_on_c, 2, 74, 60
4, 41856, Note_on_c, 2, 71, 60
4, 41936, Note_off_c, 2, 74, 0
4, 41936, Note_off_c, 2, 71, 0
4, 42048, Note_on_c, 2, 74, 60
4, 42048, Note_on_c, 2, 71, 60
4, 42128, Note_off_c, 2, 74, 0
4, 42128, Note_off_c, 2, 71, 0
4, 42720, Note_on_c, 2, 73, 60
4, 42814, Note_off_c, 2, 73, 0
4, 42816, Note_on_c, 2, 74, 60
4, 42910, Note_off_c, 2, 74, 0
4, 42912, Note_on_c, 2, 76, 60
4, 43006, Note_off_c, 2, 76, 0
4, 43008, Note_on_c, 2, 78, 60
4, 43102, Note_off_c, 2, 78, 0
4, 43104, Note_on_c, 2, 80, 60
4, 43198, Note_off_c, 2, 80, 0
4, 43200, Note_on_c, 2, 81, 60
4, 43294, Note_off_c, 2, 81, 0
4, 43296, Note_on_c, 2, 83, 60
4, 43390, Note_off_c, 2, 83, 0
4, 43392, Note_on_c, 2, 85, 60
4, 43472, Note_off_c, 2, 85, 0
4, 43488, Note_on_c, 2, 85, 60
4, 43488, Note_on_c, 2, 81, 60
4, 43582, Note_off_c, 2, 85, 0
4, 43582, Note_off_c, 2, 81, 0
4, 43584, Note_on_c, 2, 86, 60
4, 43584, Note_on_c, 2, 83, 60
4, 43678, Note_off_c, 2, 86, 0
4, 43678, Note_off_c, 2, 83, 0
4, 43680, Note_on_c, 2, 84, 60
4, 43680, Note_on_c, 2, 87, 60
4, 43774, Note_off_c, 2, 84, 0
4, 43774, Note_off_c, 2, 87, 0
4, 43776, Note_on_c, 2, 85, 60
4, 43776, Note_on_c, 2, 88, 60
4, 43870, Note_off_c, 2, 85, 0
4, 43870, Note_off_c, 2, 88, 0
4, 43872, Note_on_c, 2, 84, 60
4, 43872, Note_on_c, 2, 87, 60
4, 43966, Note_off_c, 2, 84, 0
4, 43966, Note_off_c, 2, 87, 0
4, 43968, Note_on_c, 2, 85, 60
4, 43968, Note_on_c, 2, 88, 60
4, 44062, Note_off_c, 2, 85, 0
4, 44062, Note_off_c, 2, 88, 0
4, 44064, Note_on_c, 2, 84, 60
4, 44064, Note_on_c, 2, 87, 60
4, 44158, Note_off_c, 2, 84, 0
4, 44158, Note_off_c, 2, 87, 0
4, 44160, Note_on_c, 2, 85, 60
4, 44160, Note_on_c, 2, 88, 60
4, 44254, Note_off_c, 2, 85, 0
4, 44254, Note_off_c, 2, 88, 0
4, 44256, Note_on_c, 2, 81, 60
4, 44256, Note_on_c, 2, 85, 60
4, 44350, Note_off_c, 2, 81, 0
4, 44350, Note_off_c, 2, 85, 0
4, 44352, Note_on_c, 2, 80, 60
4, 44352, Note_on_c, 2, 83, 60
4, 44432, Note_off_c, 2, 80, 0
4, 44432, Note_off_c, 2, 83, 0
4, 44928, Note_on_c, 2, 88, 60
4, 44928, Note_on_c, 2, 85, 60
4, 44928, Note_on_c, 2, 76, 60
4, 45392, Note_off_c, 2, 88, 0
4, 45392, Note_off_c, 2, 85, 0
4, 45392, Note_off_c, 2, 76, 0
4, 45504, Note_on_c, 2, 81, 60
4, 45504, Note_on_c, 2, 85, 60
4, 45504, Note_on_c, 2, 76, 60
4, 45816, Note_off_c, 2, 81, 0
4, 45816, Note_off_c, 2, 85, 0
4, 45816, Note_off_c, 2, 76, 0
4, 45888, Note_on_c, 2, 83, 60
4, 45888, Note_on_c, 2, 86, 60
4, 45934, Note_off_c, 2, 83, 0
4, 45934, Note_off_c, 2, 86, 0
4, 45936, Note_on_c, 2, 81, 60
4, 45936, Note_on_c, 2, 85, 60
4, 45982, Note_off_c, 2, 81, 0
4, 45982, Note_off_c, 2, 85, 0
4, 45984, Note_on_c, 2, 80, 60
4, 45984, Note_on_c, 2, 83, 60
4, 46030, Note_off_c, 2, 80, 0
4, 46030, Note_off_c, 2, 83, 0
4, 46032, Note_on_c, 2, 81, 60
4, 46032, Note_on_c, 2, 85, 60
4, 46072, Note_off_c, 2, 81, 0
4, 46072, Note_off_c, 2, 85, 0
4, 46080, Note_on_c, 2, 86, 60
4, 46080, Note_on_c, 2, 83, 60
4, 46080, Note_on_c, 2, 74, 60
4, 46240, Note_off_c, 2, 86, 0
4, 46240, Note_off_c, 2, 83, 0
4, 46240, Note_off_c, 2, 74, 0
4, 46272, Note_on_c, 2, 86, 60
4, 46272, Note_on_c, 2, 83, 60
4, 46272, Note_on_c, 2, 74, 60
4, 46432, Note_off_c, 2, 86, 0
4, 46432, Note_off_c, 2, 83, 0
4, 46432, Note_off_c, 2, 74, 0
4, 46464, Note_on_c, 2, 86, 60
4, 46464, Note_on_c, 2, 83, 60
4, 46464, Note_on_c, 2, 74, 60
4, 46624, Note_off_c, 2, 86, 0
4, 46624, Note_off_c, 2, 83, 0
4, 46624, Note_off_c, 2, 74, 0
4, 46656, Note_on_c, 2, 86, 60
4, 46656, Note_on_c, 2, 83, 60
4, 46656, Note_on_c, 2, 74, 60
4, 46816, Note_off_c, 2, 86, 0
4, 46816, Note_off_c, 2, 83, 0
4, 46816, Note_off_c, 2, 74, 0
4, 47040, Note_on_c, 2, 74, 60
4, 47040, Note_on_c, 2, 68, 60
4, 47200, Note_off_c, 2, 74, 0
4, 47200, Note_off_c, 2, 68, 0
4, 47232, Note_on_c, 2, 73, 60
4, 47232, Note_on_c, 2, 69, 60
4, 47392, Note_off_c, 2, 73, 0
4, 47392, Note_off_c, 2, 69, 0
4, 47808, Note_on_c, 2, 66, 60
4, 47808, Note_on_c, 2, 62, 60
4, 47808, Note_on_c, 2, 71, 60
4, 47968, Note_off_c, 2, 66, 0
4, 47968, Note_off_c, 2, 62, 0
4, 47968, Note_off_c, 2, 71, 0
4, 48576, Note_on_c, 2, 76, 60
4, 48576, Note_on_c, 2, 64, 60
4, 48766, Note_off_c, 2, 76, 0
4, 48766, Note_off_c, 2, 64, 0
4, 48768, Note_on_c, 2, 68, 60
4, 48768, Note_on_c, 2, 62, 60
4, 48928, Note_off_c, 2, 68, 0
4, 48928, Note_off_c, 2, 62, 0
4, 48960, Note_on_c, 2, 69, 60
4, 48960, Note_on_c, 2, 61, 60
4, 49150, Note_off_c, 2, 69, 0
4, 49150, Note_off_c, 2, 61, 0
4, 49152, Note_on_c, 2, 73, 60
4, 49342, Note_off_c, 2, 73, 0
4, 49344, Note_on_c, 2, 69, 60
4, 49504, Note_off_c, 2, 69, 0
4, 49536, Note_on_c, 2, 74, 60
4, 49536, Note_on_c, 2, 71, 60
4, 49918, Note_off_c, 2, 74, 0
4, 49918, Note_off_c, 2, 71, 0
4, 49920, Note_on_c, 2, 73, 60
4, 49920, Note_on_c, 2, 69, 60
4, 50110, Note_off_c, 2, 73, 0
4, 50110, Note_off_c, 2, 69, 0
4, 50112, Note_on_c, 2, 71, 60
4, 50112, Note_on_c, 2, 68, 60
4, 50272, Note_off_c, 2, 71, 0
4, 50272, Note_off_c, 2, 68, 0
4, 50688, Note_on_c, 2, 76, 60
4, 50688, Note_on_c, 2, 73, 60
4, 50688, Note_on_c, 2, 64, 60
4, 51000, Note_off_c, 2, 76, 0
4, 51000, Note_off_c, 2, 73, 0
4, 51072, Note_on_c, 2, 71, 60
4, 51072, Note_on_c, 2, 74, 60
4, 51262, Note_off_c, 2, 64, 0
4, 51262, Note_off_c, 2, 71, 0
4, 51262, Note_off_c, 2, 74, 0
4, 51264, Note_on_c, 2, 64, 60
4, 51264, Note_on_c, 2, 69, 60
4, 51264, Note_on_c, 2, 73, 60
4, 51424, Note_off_c, 2, 64, 0
4, 51424, Note_off_c, 2, 69, 0
4, 51424, Note_off_c, 2, 73, 0
4, 52032, Note_on_c, 2, 78, 60
4, 52032, Note_on_c, 2, 74, 60
4, 52126, Note_off_c, 2, 78, 0
4, 52126, Note_off_c, 2, 74, 0
4, 52128, Note_on_c, 2, 74, 60
4, 52128, Note_on_c, 2, 71, 60
4, 52208, Note_off_c, 2, 74, 0
4, 52208, Note_off_c, 2, 71, 0
4, 52224, Note_on_c, 2, 74, 60
4, 52224, Note_on_c, 2, 71, 60
4, 52318, Note_off_c, 2, 74, 0
4, 52318, Note_off_c, 2, 71, 0
4, 52320, Note_on_c, 2, 71, 60
4, 52320, Note_on_c, 2, 68, 60
4, 52400, Note_off_c, 2, 71, 0
4, 52400, Note_off_c, 2, 68, 0
4, 52416, Note_on_c, 2, 69, 60
4, 52416, Note_on_c, 2, 64, 60
4, 52576, Note_off_c, 2, 69, 0
4, 52576, Note_off_c, 2, 64, 0
4, 52992, Note_on_c, 2, 62, 60
4, 52992, Note_on_c, 2, 59, 60
4, 53374, Note_off_c, 2, 62, 0
4, 53374, Note_off_c, 2, 59, 0
4, 53376, Note_on_c, 2, 61, 60
4, 53376, Note_on_c, 2, 57, 60
4, 53566, Note_off_c, 2, 61, 0
4, 53566, Note_off_c, 2, 57, 0
4, 53568, Note_on_c, 2, 59, 60
4, 53568, Note_on_c, 2, 56, 60
4, 53630, Note_off_c, 2, 59, 0
4, 53630, Note_off_c, 2, 56, 0
4, 53632, Note_on_c, 2, 86, 60
4, 53662, Note_off_c, 2, 86, 0
4, 53696, Note_on_c, 2, 85, 60
4, 53726, Note_off_c, 2, 85, 0
4, 53760, Note_on_c, 2, 83, 60
4, 53790, Note_off_c, 2, 83, 0
4, 53824, Note_on_c, 2, 81, 60
4, 53854, Note_off_c, 2, 81, 0
4, 53888, Note_on_c, 2, 80, 60
4, 53918, Note_off_c, 2, 80, 0
4, 53952, Note_on_c, 2, 78, 60
4, 53982, Note_off_c, 2, 78, 0
4, 54016, Note_on_c, 2, 76, 60
4, 54046, Note_off_c, 2, 76, 0
4, 54080, Note_on_c, 2, 74, 60
4, 54110, Note_off_c, 2, 74, 0
4, 54144, Note_on_c, 2, 64, 60
4, 54144, Note_on_c, 2, 61, 60
4, 54526, Note_off_c, 2, 64, 0
4, 54526, Note_off_c, 2, 61, 0
4, 54528, Note_on_c, 2, 62, 60
4, 54528, Note_on_c, 2, 59, 60
4, 54718, Note_off_c, 2, 62, 0
4, 54718, Note_off_c, 2, 59, 0
4, 54720, Note_on_c, 2, 61, 60
4, 54720, Note_on_c, 2, 57, 60
4, 54780, Note_off_c, 2, 61, 0
4, 54780, Note_off_c, 2, 57, 0
4, 54784, Note_on_c, 2, 88, 60
4, 54814, Note_off_c, 2, 88, 0
4, 54848, Note_on_c, 2, 86, 60
4, 54878, Note_off_c, 2, 86, 0
4, 54912, Note_on_c, 2, 85, 60
4, 54942, Note_off_c, 2, 85, 0
4, 54976, Note_on_c, 2, 83, 60
4, 55006, Note_off_c, 2, 83, 0
4, 55040, Note_on_c, 2, 81, 60
4, 55070, Note_off_c, 2, 81, 0
4, 55104, Note_on_c, 2, 80, 60
4, 55134, Note_off_c, 2, 80, 0
4, 55168, Note_on_c, 2, 78, 60
4, 55198, Note_off_c, 2, 78, 0
4, 55232, Note_on_c, 2, 76, 60
4, 55262, Note_off_c, 2, 76, 0
4, 55392, Note_on_c, 2, 66, 60
4, 55392, Note_on_c, 2, 59, 60
4, 55486, Note_off_c, 2, 66, 0
4, 55486, Note_off_c, 2, 59, 0
4, 55488, Note_on_c, 2, 66, 60
4, 55488, Note_on_c, 2, 69, 60
4, 55582, Note_off_c, 2, 66, 0
4, 55582, Note_off_c, 2, 69, 0
4, 55584, Note_on_c, 2, 59, 60
4, 55678, Note_off_c, 2, 59, 0
4, 55680, Note_on_c, 2, 66, 60
4, 55680, Note_on_c, 2, 69, 60
4, 55774, Note_off_c, 2, 66, 0
4, 55774, Note_off_c, 2, 69, 0
4, 55776, Note_on_c, 2, 59, 60
4, 55856, Note_off_c, 2, 59, 0
4, 55968, Note_on_c, 2, 60, 60
4, 56062, Note_off_c, 2, 60, 0
4, 56064, Note_on_c, 2, 66, 60
4, 56064, Note_on_c, 2, 69, 60
4, 56158, Note_off_c, 2, 66, 0
4, 56158, Note_off_c, 2, 69, 0
4, 56160, Note_on_c, 2, 60, 60
4, 56254, Note_off_c, 2, 60, 0
4, 56256, Note_on_c, 2, 66, 60
4, 56256, Note_on_c, 2, 69, 60
4, 56350, Note_off_c, 2, 66, 0
4, 56350, Note_off_c, 2, 69, 0
4, 56352, Note_on_c, 2, 60, 60
4, 56432, Note_off_c, 2, 60, 0
4, 56448, Note_on_c, 2, 64, 60
4, 56448, Note_on_c, 2, 61, 60
4, 56608, Note_off_c, 2, 64, 0
4, 56608, Note_off_c, 2, 61, 0
4, 56640, Note_on_c, 2, 73, 60
4, 56640, Note_on_c, 2, 69, 60
4, 56640, Note_on_c, 2, 64, 60
4, 56800, Note_off_c, 2, 73, 0
4, 56800, Note_off_c, 2, 69, 0
4, 56800, Note_off_c, 2, 64, 0
4, 56832, Note_on_c, 2, 73, 60
4, 56832, Note_on_c, 2, 69, 60
4, 56832, Note_on_c, 2, 64, 60
4, 56992, Note_off_c, 2, 73, 0
4, 56992, Note_off_c, 2, 69, 0
4, 56992, Note_off_c, 2, 64, 0
4, 57024, Note_on_c, 2, 73, 60
4, 57024, Note_on_c, 2, 69, 60
4, 57024, Note_on_c, 2, 64, 60
4, 57184, Note_off_c, 2, 73, 0
4, 57184, Note_off_c, 2, 69, 0
4, 57184, Note_off_c, 2, 64, 0
4, 57216, Note_on_c, 2, 73, 60
4, 57216, Note_on_c, 2, 69, 60
4, 57216, Note_on_c, 2, 64, 60
4, 57376, Note_off_c, 2, 73, 0
4, 57376, Note_off_c, 2, 69, 0
4, 57376, Note_off_c, 2, 64, 0
4, 57408, Note_on_c, 2, 73, 60
4, 57408, Note_on_c, 2, 69, 60
4, 57408, Note_on_c, 2, 64, 60
4, 57568, Note_off_c, 2, 73, 0
4, 57568, Note_off_c, 2, 69, 0
4, 57568, Note_off_c, 2, 64, 0
4, 57600, Note_on_c, 2, 69, 60
4, 57600, Note_on_c, 2, 64, 60
4, 57600, Note_on_c, 2, 71, 60
4, 57760, Note_off_c, 2, 69, 0
4, 57760, Note_off_c, 2, 64, 0
4, 57760, Note_off_c, 2, 71, 0
4, 57792, Note_on_c, 2, 71, 60
4, 57792, Note_on_c, 2, 69, 60
4, 57792, Note_on_c, 2, 64, 60
4, 57952, Note_off_c, 2, 71, 0
4, 57952, Note_off_c, 2, 69, 0
4, 57952, Note_off_c, 2, 64, 0
4, 57984, Note_on_c, 2, 71, 60
4, 57984, Note_on_c, 2, 69, 60
4, 57984, Note_on_c, 2, 64, 60
4, 58144, Note_off_c, 2, 71, 0
4, 58144, Note_off_c, 2, 69, 0
4, 58144, Note_off_c, 2, 64, 0
4, 58176, Note_on_c, 2, 71, 60
4, 58176, Note_on_c, 2, 68, 60
4, 58176, Note_on_c, 2, 64, 60
4, 58176, Note_on_c, 2, 62, 60
4, 58336, Note_off_c, 2, 71, 0
4, 58336, Note_off_c, 2, 68, 0
4, 58336, Note_off_c, 2, 64, 0
4, 58336, Note_off_c, 2, 62, 0
4, 58368, Note_on_c, 2, 71, 60
4, 58368, Note_on_c, 2, 68, 60
4, 58368, Note_on_c, 2, 64, 60
4, 58368, Note_on_c, 2, 62, 60
4, 58528, Note_off_c, 2, 71, 0
4, 58528, Note_off_c, 2, 68, 0
4, 58528, Note_off_c, 2, 64, 0
4, 58528, Note_off_c, 2, 62, 0
4, 58560, Note_on_c, 2, 71, 60
4, 58560, Note_on_c, 2, 68, 60
4, 58560, Note_on_c, 2, 64, 60
4, 58560, Note_on_c, 2, 62, 60
4, 58740, Note_off_c, 2, 71, 0
4, 58740, Note_off_c, 2, 68, 0
4, 58740, Note_off_c, 2, 64, 0
4, 58740, Note_off_c, 2, 62, 0
4, 58752, Note_on_c, 2, 69, 60
4, 58752, Note_on_c, 2, 64, 60
4, 58752, Note_on_c, 2, 61, 60
4, 58912, Note_off_c, 2, 69, 0
4, 58912, Note_off_c, 2, 64, 0
4, 58912, Note_off_c, 2, 61, 0
4, 58944, Note_on_c, 2, 73, 60
4, 58944, Note_on_c, 2, 73, 70
4, 59134, Note_off_c, 2, 73, 0
4, 59136, Note_on_c, 2, 85, 60
4, 59136, Note_on_c, 2, 69, 60
4, 59136, Note_on_c, 2, 61, 60
4, 59136, Note_on_c, 2, 57, 60
4, 59256, Note_off_c, 2, 73, 64
4, 59296, Note_off_c, 2, 85, 0
4, 59296, Note_off_c, 2, 61, 0
4, 59296, Note_off_c, 2, 57, 0
4, 59328, Note_on_c, 2, 62, 60
4, 59328, Note_on_c, 2, 59, 60
4, 59488, Note_off_c, 2, 69, 0
4, 59520, Note_on_c, 2, 74, 60
4, 59520, Note_on_c, 2, 68, 60
4, 59520, Note_on_c, 2, 74, 70
4, 59640, Note_off_c, 2, 62, 0
4, 59640, Note_off_c, 2, 59, 0
4, 59710, Note_off_c, 2, 74, 0
4, 59712, Note_on_c, 2, 86, 60
4, 59712, Note_on_c, 2, 62, 60
4, 59712, Note_on_c, 2, 59, 60
4, 59832, Note_off_c, 2, 74, 64
4, 59872, Note_off_c, 2, 86, 0
4, 59872, Note_off_c, 2, 62, 0
4, 59872, Note_off_c, 2, 59, 0
4, 59904, Note_on_c, 2, 61, 60
4, 60000, Note_on_c, 2, 73, 60
4, 60080, Note_off_c, 2, 73, 0
4, 60092, Note_off_c, 2, 68, 64
4, 60096, Note_on_c, 2, 85, 60
4, 60096, Note_on_c, 2, 69, 60
4, 60096, Note_on_c, 2, 66, 60
4, 60216, Note_off_c, 2, 61, 0
4, 60286, Note_off_c, 2, 85, 0
4, 60288, Note_on_c, 2, 78, 60
4, 60288, Note_on_c, 2, 61, 60
4, 60408, Note_off_c, 2, 69, 0
4, 60408, Note_off_c, 2, 66, 0
4, 60448, Note_off_c, 2, 78, 0
4, 60480, Note_on_c, 2, 66, 60
4, 60480, Note_on_c, 2, 68, 60
4, 60576, Note_on_c, 2, 71, 60
4, 60640, Note_off_c, 2, 66, 0
4, 60656, Note_off_c, 2, 71, 0
4, 60672, Note_on_c, 2, 83, 60
4, 60672, Note_on_c, 2, 65, 60
4, 60752, Note_off_c, 2, 61, 0
4, 60832, Note_off_c, 2, 68, 0
4, 60832, Note_off_c, 2, 65, 0
4, 60862, Note_off_c, 2, 83, 0
4, 60864, Note_on_c, 2, 77, 60
4, 60864, Note_on_c, 2, 68, 60
4, 60864, Note_on_c, 2, 71, 60
4, 60864, Note_on_c, 2, 61, 60
4, 61024, Note_off_c, 2, 77, 0
4, 61024, Note_off_c, 2, 68, 0
4, 61024, Note_off_c, 2, 71, 0
4, 61024, Note_off_c, 2, 61, 0
4, 61056, Note_on_c, 2, 78, 60
4, 61056, Note_on_c, 2, 73, 60
4, 61056, Note_on_c, 2, 66, 60
4, 61056, Note_on_c, 2, 69, 60
4, 61368, Note_off_c, 2, 78, 0
4, 61368, Note_off_c, 2, 73, 0
4, 61368, Note_off_c, 2, 66, 0
4, 61368, Note_off_c, 2, 69, 0
4, 73728, Note_on_c, 2, 78, 60
4, 73728, Note_on_c, 2, 74, 60
4, 73728, Note_on_c, 2, 66, 60
4, 74878, Note_off_c, 2, 78, 0
4, 74878, Note_off_c, 2, 74, 0
4, 74878, Note_off_c, 2, 66, 0
4, 74880, Note_on_c, 2, 79, 60
4, 74880, Note_on_c, 2, 74, 60
4, 74880, Note_on_c, 2, 67, 60
4, 75040, Note_off_c, 2, 79, 0
4, 75040, Note_off_c, 2, 74, 0
4, 75040, Note_off_c, 2, 67, 0
4, 78432, Note_on_c, 2, 57, 60
4, 78526, Note_off_c, 2, 57, 0
4, 78528, Note_on_c, 2, 61, 60
4, 78622, Note_off_c, 2, 61, 0
4, 78624, Note_on_c, 2, 66, 60
4, 78718, Note_off_c, 2, 66, 0
4, 78720, Note_on_c, 2, 61, 60
4, 78814, Note_off_c, 2, 61, 0
4, 78816, Note_on_c, 2, 57, 60
4, 78910, Note_off_c, 2, 57, 0
4, 78912, Note_on_c, 2, 81, 60
4, 78912, Note_on_c, 2, 69, 60
4, 79678, Note_off_c, 2, 81, 64
4, 79678, Note_off_c, 2, 69, 64
4, 79680, Note_on_c, 2, 80, 60
4, 79680, Note_on_c, 2, 68, 60
4, 79870, Note_off_c, 2, 80, 0
4, 79870, Note_off_c, 2, 68, 0
4, 79872, Note_on_c, 2, 78, 60
4, 79872, Note_on_c, 2, 66, 60
4, 80062, Note_off_c, 2, 78, 0
4, 80062, Note_off_c, 2, 66, 0
4, 80064, Note_on_c, 2, 77, 60
4, 80064, Note_on_c, 2, 65, 60
4, 80254, Note_off_c, 2, 77, 0
4, 80254, Note_off_c, 2, 65, 0
4, 80256, Note_on_c, 2, 78, 60
4, 80256, Note_on_c, 2, 66, 60
4, 80446, Note_off_c, 2, 78, 0
4, 80446, Note_off_c, 2, 66, 0
4, 80448, Note_on_c, 2, 80, 60
4, 80448, Note_on_c, 2, 68, 60
4, 80638, Note_off_c, 2, 80, 0
4, 80638, Note_off_c, 2, 68, 0
4, 80640, Note_on_c, 2, 73, 60
4, 80736, Note_on_c, 2, 61, 60
4, 80830, Note_off_c, 2, 61, 0
4, 80832, Note_on_c, 2, 65, 60
4, 80926, Note_off_c, 2, 65, 0
4, 80928, Note_on_c, 2, 71, 60
4, 81022, Note_off_c, 2, 71, 0
4, 81024, Note_on_c, 2, 65, 60
4, 81104, Note_off_c, 2, 73, 0
4, 81118, Note_off_c, 2, 65, 0
4, 81120, Note_on_c, 2, 61, 60
4, 81200, Note_off_c, 2, 61, 0
4, 81216, Note_on_c, 2, 85, 60
4, 81216, Note_on_c, 2, 73, 60
4, 81982, Note_off_c, 2, 85, 64
4, 81982, Note_off_c, 2, 73, 64
4, 81984, Note_on_c, 2, 83, 60
4, 81984, Note_on_c, 2, 71, 60
4, 82174, Note_off_c, 2, 83, 0
4, 82174, Note_off_c, 2, 71, 0
4, 82176, Note_on_c, 2, 81, 60
4, 82176, Note_on_c, 2, 69, 60
4, 82366, Note_off_c, 2, 81, 0
4, 82366, Note_off_c, 2, 69, 0
4, 82368, Note_on_c, 2, 80, 60
4, 82368, Note_on_c, 2, 68, 60
4, 82368, Note_on_c, 2, 74, 60
4, 82558, Note_off_c, 2, 80, 0
4, 82558, Note_off_c, 2, 68, 0
4, 82560, Note_on_c, 2, 81, 60
4, 82560, Note_on_c, 2, 69, 60
4, 82750, Note_off_c, 2, 81, 0
4, 82750, Note_off_c, 2, 69, 0
4, 82752, Note_on_c, 2, 83, 60
4, 82752, Note_on_c, 2, 71, 60
4, 82942, Note_off_c, 2, 83, 0
4, 82942, Note_off_c, 2, 71, 0
4, 82944, Note_on_c, 2, 77, 60
4, 82944, Note_on_c, 2, 65, 60
4, 83024, Note_off_c, 2, 74, 64
4, 83136, Note_on_c, 2, 73, 60
4, 83326, Note_off_c, 2, 73, 0
4, 83328, Note_on_c, 2, 71, 60
4, 83408, Note_off_c, 2, 77, 0
4, 83408, Note_off_c, 2, 65, 0
4, 83488, Note_off_c, 2, 71, 0
4, 83520, Note_on_c, 2, 69, 60
4, 83520, Note_on_c, 2, 81, 60
4, 84096, Note_on_c, 2, 75, 60
4, 84286, Note_off_c, 2, 69, 64
4, 84286, Note_off_c, 2, 81, 64
4, 84288, Note_on_c, 2, 80, 60
4, 84288, Note_on_c, 2, 68, 60
4, 84478, Note_off_c, 2, 80, 0
4, 84478, Note_off_c, 2, 68, 0
4, 84480, Note_on_c, 2, 78, 60
4, 84480, Note_on_c, 2, 66, 60
4, 84670, Note_off_c, 2, 75, 0
4, 84670, Note_off_c, 2, 78, 0
4, 84670, Note_off_c, 2, 66, 0
4, 84672, Note_on_c, 2, 77, 60
4, 84672, Note_on_c, 2, 65, 60
4, 84672, Note_on_c, 2, 74, 60
4, 84862, Note_off_c, 2, 77, 0
4, 84862, Note_off_c, 2, 65, 0
4, 84864, Note_on_c, 2, 78, 60
4, 84864, Note_on_c, 2, 66, 60
4, 85054, Note_off_c, 2, 78, 0
4, 85054, Note_off_c, 2, 66, 0
4, 85056, Note_on_c, 2, 80, 60
4, 85056, Note_on_c, 2, 68, 60
4, 85136, Note_off_c, 2, 74, 0
4, 85246, Note_off_c, 2, 80, 0
4, 85246, Note_off_c, 2, 68, 0
4, 85248, Note_on_c, 2, 79, 60
4, 85248, Note_on_c, 2, 73, 60
4, 85248, Note_on_c, 2, 85, 60
4, 85438, Note_off_c, 2, 79, 0
4, 85440, Note_on_c, 2, 78, 60
4, 85630, Note_off_c, 2, 78, 0
4, 85632, Note_on_c, 2, 76, 60
4, 85792, Note_off_c, 2, 76, 0
4, 85822, Note_off_c, 2, 73, 0
4, 85822, Note_off_c, 2, 85, 0
4, 85824, Note_on_c, 2, 74, 60
4, 85824, Note_on_c, 2, 85, 60
4, 85984, Note_off_c, 2, 85, 0
4, 86016, Note_on_c, 2, 83, 60
4, 86396, Note_off_c, 2, 74, 0
4, 86400, Note_on_c, 2, 71, 60
4, 86590, Note_off_c, 2, 71, 0
4, 86590, Note_off_c, 2, 83, 0
4, 86592, Note_on_c, 2, 85, 60
4, 86592, Note_on_c, 2, 73, 60
4, 86782, Note_off_c, 2, 85, 0
4, 86782, Note_off_c, 2, 73, 0
4, 86784, Note_on_c, 2, 81, 60
4, 86784, Note_on_c, 2, 69, 60
4, 87166, Note_off_c, 2, 81, 0
4, 87166, Note_off_c, 2, 69, 0
4, 87168, Note_on_c, 2, 83, 60
4, 87168, Note_on_c, 2, 71, 60
4, 87328, Note_off_c, 2, 83, 0
4, 87328, Note_off_c, 2, 71, 0
4, 87360, Note_on_c, 2, 80, 60
4, 87360, Note_on_c, 2, 68, 60
4, 87520, Note_off_c, 2, 80, 0
4, 87520, Note_off_c, 2, 68, 0
4, 87552, Note_on_c, 2, 78, 60
4, 87552, Note_on_c, 2, 66, 60
4, 87864, Note_off_c, 2, 78, 0
4, 87864, Note_off_c, 2, 66, 0
4, 88704, Note_on_c, 2, 73, 60
4, 88704, Note_on_c, 2, 69, 60
4, 88704, Note_on_c, 2, 61, 60
4, 89168, Note_off_c, 2, 73, 0
4, 89168, Note_off_c, 2, 69, 0
4, 89280, Note_on_c, 2, 68, 60
4, 89280, Note_on_c, 2, 71, 60
4, 89280, Note_on_c, 2, 65, 60
4, 90046, Note_off_c, 2, 68, 64
4, 90046, Note_off_c, 2, 71, 64
4, 90046, Note_off_c, 2, 65, 64
4, 90048, Note_on_c, 2, 69, 60
4, 90048, Note_on_c, 2, 61, 60
4, 90238, Note_off_c, 2, 69, 0
4, 90240, Note_on_c, 2, 68, 60
4, 90240, Note_on_c, 2, 59, 60
4, 90430, Note_off_c, 2, 59, 0
4, 90432, Note_on_c, 2, 66, 60
4, 90432, Note_on_c, 2, 57, 60
4, 90622, Note_off_c, 2, 68, 64
4, 90622, Note_off_c, 2, 66, 0
4, 90622, Note_off_c, 2, 57, 0
4, 90624, Note_on_c, 2, 68, 60
4, 90624, Note_on_c, 2, 59, 60
4, 90784, Note_off_c, 2, 61, 64
4, 90814, Note_off_c, 2, 68, 0
4, 90814, Note_off_c, 2, 59, 0
4, 90816, Note_on_c, 2, 61, 60
4, 90816, Note_on_c, 2, 69, 60
4, 90976, Note_off_c, 2, 61, 0
4, 90976, Note_off_c, 2, 69, 0
4, 91006, Note_off_c, 2, 61, 0
4, 91008, Note_on_c, 2, 62, 60
4, 91008, Note_on_c, 2, 59, 60
4, 91582, Note_off_c, 2, 62, 0
4, 91582, Note_off_c, 2, 59, 0
4, 91584, Note_on_c, 2, 74, 60
4, 91584, Note_on_c, 2, 68, 60
4, 92048, Note_off_c, 2, 74, 0
4, 92048, Note_off_c, 2, 68, 0
4, 92160, Note_on_c, 2, 73, 60
4, 92160, Note_on_c, 2, 68, 60
4, 92160, Note_on_c, 2, 65, 60
4, 92160, Note_on_c, 2, 61, 60
4, 92540, Note_off_c, 2, 68, 0
4, 92540, Note_off_c, 2, 65, 0
4, 92540, Note_off_c, 2, 61, 0
4, 92732, Note_off_c, 2, 73, 0
4, 92736, Note_on_c, 2, 73, 60
4, 92736, Note_on_c, 2, 81, 60
4, 92736, Note_on_c, 2, 78, 60
4, 93308, Note_off_c, 2, 73, 0
4, 93312, Note_on_c, 2, 72, 60
4, 93776, Note_off_c, 2, 72, 0
4, 93888, Note_on_c, 2, 71, 60
4, 93888, Note_on_c, 2, 77, 60
4, 93888, Note_on_c, 2, 80, 60
4, 94270, Note_off_c, 2, 77, 0
4, 94272, Note_on_c, 2, 74, 60
4, 94352, Note_off_c, 2, 81, 0
4, 94352, Note_off_c, 2, 78, 0
4, 94432, Note_off_c, 2, 74, 0
4, 94462, Note_off_c, 2, 71, 0
4, 94464, Note_on_c, 2, 73, 60
4, 94464, Note_on_c, 2, 70, 60
4, 94928, Note_off_c, 2, 70, 0
4, 95040, Note_on_c, 2, 69, 60
4, 95040, Note_on_c, 2, 78, 60
4, 95100, Note_off_c, 2, 73, 0
4, 95504, Note_off_c, 2, 80, 0
4, 95614, Note_off_c, 2, 69, 0
4, 95616, Note_on_c, 2, 68, 60
4, 95616, Note_on_c, 2, 71, 60
4, 95804, Note_off_c, 2, 71, 0
4, 95808, Note_on_c, 2, 73, 60
4, 95996, Note_off_c, 2, 73, 0
4, 96000, Note_on_c, 2, 74, 60
4, 96188, Note_off_c, 2, 68, 0
4, 96188, Note_off_c, 2, 74, 0
4, 96192, Note_on_c, 2, 77, 60
4, 96192, Note_on_c, 2, 68, 60
4, 96192, Note_on_c, 2, 74, 60
4, 96380, Note_off_c, 2, 74, 0
4, 96384, Note_on_c, 2, 73, 60
4, 96572, Note_off_c, 2, 73, 0
4, 96576, Note_on_c, 2, 71, 60
4, 96656, Note_off_c, 2, 78, 0
4, 96764, Note_off_c, 2, 77, 0
4, 96764, Note_off_c, 2, 68, 0
4, 96764, Note_off_c, 2, 71, 0
4, 96768, Program_c, 2, 45
4, 96864, Note_on_c, 2, 66, 60
4, 96944, Note_off_c, 2, 66, 0
4, 97056, Note_on_c, 2, 69, 60
4, 97136, Note_off_c, 2, 69, 0
4, 97248, Note_on_c, 2, 73, 60
4, 97328, Note_off_c, 2, 73, 0
4, 97440, Note_on_c, 2, 69, 60
4, 97520, Note_off_c, 2, 69, 0
4, 97632, Note_on_c, 2, 66, 60
4, 97712, Note_off_c, 2, 66, 0
4, 97824, Note_on_c, 2, 61, 60
4, 97904, Note_off_c, 2, 61, 0
4, 98016, Note_on_c, 2, 62, 60
4, 98096, Note_off_c, 2, 62, 0
4, 98208, Note_on_c, 2, 66, 60
4, 98288, Note_off_c, 2, 66, 0
4, 98400, Note_on_c, 2, 69, 60
4, 98480, Note_off_c, 2, 69, 0
4, 98592, Note_on_c, 2, 66, 60
4, 98672, Note_off_c, 2, 66, 0
4, 98784, Note_on_c, 2, 62, 60
4, 98864, Note_off_c, 2, 62, 0
4, 98976, Note_on_c, 2, 57, 60
4, 99056, Note_off_c, 2, 57, 0
4, 99168, Note_on_c, 2, 59, 60
4, 99248, Note_off_c, 2, 59, 0
4, 99360, Note_on_c, 2, 62, 60
4, 99440, Note_off_c, 2, 62, 0
4, 99552, Note_on_c, 2, 61, 60
4, 99632, Note_off_c, 2, 61, 0
4, 99744, Note_on_c, 2, 59, 60
4, 99824, Note_off_c, 2, 59, 0
4, 99936, Note_on_c, 2, 57, 60
4, 100016, Note_off_c, 2, 57, 0
4, 100128, Note_on_c, 2, 56, 60
4, 100208, Note_off_c, 2, 56, 0
4, 100320, Note_on_c, 2, 61, 60
4, 100400, Note_off_c, 2, 61, 0
4, 100512, Note_on_c, 2, 66, 60
4, 100592, Note_off_c, 2, 66, 0
4, 100704, Note_on_c, 2, 69, 60
4, 100784, Note_off_c, 2, 69, 0
4, 100896, Note_on_c, 2, 61, 60
4, 100976, Note_off_c, 2, 61, 0
4, 101088, Note_on_c, 2, 65, 60
4, 101168, Note_off_c, 2, 65, 0
4, 101280, Note_on_c, 2, 68, 60
4, 101360, Note_off_c, 2, 68, 0
4, 101370, Program_c, 2, 48
4, 101376, Note_on_c, 2, 78, 60
4, 101376, Note_on_c, 2, 81, 60
4, 101376, Note_on_c, 2, 73, 60
4, 101376, Note_on_c, 2, 69, 60
4, 102304, Note_off_c, 2, 73, 0
4, 102528, Note_on_c, 2, 74, 60
4, 103456, Note_off_c, 2, 78, 64
4, 103456, Note_off_c, 2, 81, 64
4, 103456, Note_off_c, 2, 69, 64
4, 103456, Note_off_c, 2, 74, 64
4, 103680, Note_on_c, 2, 79, 60
4, 103680, Note_on_c, 2, 74, 60
4, 103680, Note_on_c, 2, 86, 60
4, 104254, Note_off_c, 2, 86, 0
4, 104256, Note_on_c, 2, 83, 60
4, 104830, Note_off_c, 2, 79, 0
4, 104830, Note_off_c, 2, 74, 0
4, 104830, Note_off_c, 2, 83, 0
4, 104832, Note_on_c, 2, 78, 60
4, 104832, Note_on_c, 2, 81, 60
4, 104832, Note_on_c, 2, 73, 60
4, 105406, Note_off_c, 2, 78, 0
4, 105406, Note_off_c, 2, 81, 0
4, 105408, Note_on_c, 2, 80, 60
4, 105408, Note_on_c, 2, 77, 60
4, 105982, Note_off_c, 2, 73, 0
4, 105982, Note_off_c, 2, 80, 0
4, 105982, Note_off_c, 2, 77, 64
4, 105984, Note_on_c, 2, 78, 60
4, 105984, Note_on_c, 2, 73, 60
4, 105984, Note_on_c, 2, 69, 60
4, 106144, Note_off_c, 2, 78, 0
4, 106144, Note_off_c, 2, 73, 0
4, 106144, Note_off_c, 2, 69, 0
4, 106560, Note_on_c, 2, 81, 60
4, 107136, Note_on_c, 2, 74, 70
4, 107136, Note_on_c, 2, 71, 70
4, 107326, Note_off_c, 2, 81, 0
4, 107328, Note_on_c, 2, 80, 60
4, 107518, Note_off_c, 2, 80, 0
4, 107520, Note_on_c, 2, 78, 60
4, 107710, Note_off_c, 2, 74, 64
4, 107710, Note_off_c, 2, 71, 64
4, 107710, Note_off_c, 2, 78, 0
4, 107712, Note_on_c, 2, 71, 60
4, 107712, Note_on_c, 2, 77, 70
4, 107902, Note_off_c, 2, 77, 64
4, 107904, Note_on_c, 2, 78, 60
4, 108092, Note_off_c, 2, 78, 0
4, 108096, Note_on_c, 2, 80, 60
4, 108284, Note_off_c, 2, 80, 0
4, 108286, Note_off_c, 2, 71, 0
4, 108288, Note_on_c, 2, 73, 60
4, 108600, Note_off_c, 2, 73, 0
4, 108864, Note_on_c, 2, 69, 60
4, 108864, Note_on_c, 2, 81, 60
4, 109628, Note_off_c, 2, 69, 0
4, 109628, Note_off_c, 2, 81, 0
4, 109632, Note_on_c, 2, 80, 60
4, 109632, Note_on_c, 2, 68, 60
4, 109820, Note_off_c, 2, 80, 0
4, 109820, Note_off_c, 2, 68, 0
4, 109824, Note_on_c, 2, 78, 60
4, 109824, Note_on_c, 2, 66, 60
4, 110012, Note_off_c, 2, 78, 0
4, 110012, Note_off_c, 2, 66, 0
4, 110016, Note_on_c, 2, 77, 60
4, 110016, Note_on_c, 2, 73, 60
4, 110016, Note_on_c, 2, 71, 60
4, 110016, Note_on_c, 2, 65, 60
4, 110204, Note_off_c, 2, 77, 0
4, 110204, Note_off_c, 2, 73, 0
4, 110204, Note_off_c, 2, 71, 0
4, 110204, Note_off_c, 2, 65, 0
4, 110208, Note_on_c, 2, 78, 60
4, 110208, Note_on_c, 2, 66, 60
4, 110396, Note_off_c, 2, 78, 0
4, 110396, Note_off_c, 2, 66, 0
4, 110400, Note_on_c, 2, 80, 60
4, 110400, Note_on_c, 2, 68, 60
4, 110588, Note_off_c, 2, 80, 0
4, 110588, Note_off_c, 2, 68, 0
4, 110592, Note_on_c, 2, 73, 60
4, 111056, Note_off_c, 2, 73, 0
4, 111168, Note_on_c, 2, 81, 60
4, 111168, Note_on_c, 2, 69, 60
4, 111934, Note_off_c, 2, 81, 64
4, 111934, Note_off_c, 2, 69, 64
4, 111936, Note_on_c, 2, 80, 60
4, 111936, Note_on_c, 2, 68, 60
4, 112124, Note_off_c, 2, 80, 0
4, 112124, Note_off_c, 2, 68, 0
4, 112128, Note_on_c, 2, 78, 60
4, 112128, Note_on_c, 2, 66, 60
4, 112316, Note_off_c, 2, 78, 0
4, 112316, Note_off_c, 2, 66, 0
4, 112320, Note_on_c, 2, 77, 60
4, 112320, Note_on_c, 2, 65, 60
4, 112508, Note_off_c, 2, 77, 0
4, 112508, Note_off_c, 2, 65, 0
4, 112512, Note_on_c, 2, 78, 60
4, 112512, Note_on_c, 2, 66, 60
4, 112700, Note_off_c, 2, 78, 0
4, 112700, Note_off_c, 2, 66, 0
4, 112704, Note_on_c, 2, 80, 60
4, 112704, Note_on_c, 2, 68, 60
4, 112864, Note_off_c, 2, 80, 0
4, 112864, Note_off_c, 2, 68, 0
4, 112896, Note_on_c, 2, 78, 55
4, 112896, Note_on_c, 2, 69, 55
4, 112896, Note_on_c, 2, 66, 55
4, 113084, Note_off_c, 2, 78, 0
4, 113084, Note_off_c, 2, 69, 0
4, 113084, Note_off_c, 2, 66, 0
4, 113088, Note_on_c, 2, 78, 50
4, 113088, Note_on_c, 2, 69, 50
4, 113088, Note_on_c, 2, 66, 50
4, 113276, Note_off_c, 2, 78, 0
4, 113276, Note_off_c, 2, 69, 0
4, 113276, Note_off_c, 2, 66, 0
4, 113472, Note_on_c, 2, 85, 45
4, 113472, Note_on_c, 2, 78, 45
4, 113472, Note_on_c, 2, 73, 45
4, 113660, Note_off_c, 2, 85, 0
4, 113660, Note_off_c, 2, 78, 0
4, 113660, Note_off_c, 2, 73, 0
4, 113664, Note_on_c, 2, 85, 45
4, 113664, Note_on_c, 2, 78, 45
4, 113664, Note_on_c, 2, 73, 45
4, 113852, Note_off_c, 2, 85, 0
4, 113852, Note_off_c, 2, 78, 0
4, 113852, Note_off_c, 2, 73, 0
4, 114048, Note_on_c, 2, 90, 40
4, 114048, Note_on_c, 2, 85, 40
4, 114048, Note_on_c, 2, 81, 40
4, 114048, Note_on_c, 2, 78, 40
4, 114236, Note_off_c, 2, 90, 0
4, 114236, Note_off_c, 2, 85, 0
4, 114236, Note_off_c, 2, 81, 0
4, 114236, Note_off_c, 2, 78, 0
4, 114240, Note_on_c, 2, 90, 40
4, 114240, Note_on_c, 2, 81, 40
4, 114240, Note_on_c, 2, 78, 40
4, 114240, Note_on_c, 2, 85, 40
4, 114428, Note_off_c, 2, 90, 0
4, 114428, Note_off_c, 2, 81, 0
4, 114428, Note_off_c, 2, 78, 0
4, 114428, Note_off_c, 2, 85, 0
4, 114428, End_track
5, 0, Start_track
5, 0, Title_t, "Bob Fisher"
5, 0, Control_c, 3, 0, 0
5, 0, Program_c, 3, 48
5, 0, Control_c, 3, 10, 84
5, 0, Control_c, 3, 91, 44
5, 0, Control_c, 3, 93, 0
5, 0, Key_signature, 3, "major"
5, 0, Control_c, 3, 121, 0
5, 192, Control_c, 3, 10, 78
5, 240, Control_c, 3, 91, 85
5, 336, Program_c, 3, 48
5, 13824, Note_on_c, 3, 54, 70
5, 13824, Note_on_c, 3, 42, 70
5, 14014, Note_off_c, 3, 54, 0
5, 14014, Note_off_c, 3, 42, 0
5, 14400, Note_on_c, 3, 54, 70
5, 14400, Note_on_c, 3, 42, 70
5, 14480, Note_off_c, 3, 54, 0
5, 14480, Note_off_c, 3, 42, 0
5, 14496, Note_on_c, 3, 57, 70
5, 14590, Note_off_c, 3, 57, 0
5, 14592, Note_on_c, 3, 61, 70
5, 14686, Note_off_c, 3, 61, 0
5, 14688, Note_on_c, 3, 66, 70
5, 14782, Note_off_c, 3, 66, 0
5, 14784, Note_on_c, 3, 61, 70
5, 14878, Note_off_c, 3, 61, 0
5, 14880, Note_on_c, 3, 57, 70
5, 14960, Note_off_c, 3, 57, 0
5, 14976, Note_on_c, 3, 54, 70
5, 14976, Note_on_c, 3, 42, 70
5, 15056, Note_off_c, 3, 54, 0
5, 15056, Note_off_c, 3, 42, 0
5, 15072, Note_on_c, 3, 57, 70
5, 15164, Note_off_c, 3, 57, 0
5, 15168, Note_on_c, 3, 61, 70
5, 15260, Note_off_c, 3, 61, 0
5, 15264, Note_on_c, 3, 66, 70
5, 15356, Note_off_c, 3, 66, 0
5, 15360, Note_on_c, 3, 61, 70
5, 15452, Note_off_c, 3, 61, 0
5, 15456, Note_on_c, 3, 57, 70
5, 15548, Note_off_c, 3, 57, 0
5, 15552, Note_on_c, 3, 56, 70
5, 15552, Note_on_c, 3, 42, 70
5, 15644, Note_off_c, 3, 56, 0
5, 15644, Note_off_c, 3, 42, 0
5, 15648, Note_on_c, 3, 59, 70
5, 15740, Note_off_c, 3, 59, 0
5, 15744, Note_on_c, 3, 61, 70
5, 15836, Note_off_c, 3, 61, 0
5, 15840, Note_on_c, 3, 66, 70
5, 15932, Note_off_c, 3, 66, 0
5, 15936, Note_on_c, 3, 61, 70
5, 16028, Note_off_c, 3, 61, 0
5, 16032, Note_on_c, 3, 59, 70
5, 16124, Note_off_c, 3, 59, 0
5, 16128, Note_on_c, 3, 45, 70
5, 16128, Note_on_c, 3, 59, 70
5, 16318, Note_off_c, 3, 59, 0
5, 16320, Note_on_c, 3, 57, 70
5, 16510, Note_off_c, 3, 57, 0
5, 16512, Note_on_c, 3, 56, 70
5, 16672, Note_off_c, 3, 45, 0
5, 16672, Note_off_c, 3, 56, 0
5, 16704, Note_on_c, 3, 45, 70
5, 16704, Note_on_c, 3, 54, 80
5, 16784, Note_off_c, 3, 45, 0
5, 16798, Note_off_c, 3, 54, 0
5, 16800, Note_on_c, 3, 57, 70
5, 16894, Note_off_c, 3, 57, 0
5, 16896, Note_on_c, 3, 56, 80
5, 16990, Note_off_c, 3, 56, 0
5, 16992, Note_on_c, 3, 59, 70
5, 17086, Note_off_c, 3, 59, 0
5, 17088, Note_on_c, 3, 57, 80
5, 17182, Note_off_c, 3, 57, 0
5, 17184, Note_on_c, 3, 61, 70
5, 17264, Note_off_c, 3, 61, 0
5, 17280, Note_on_c, 3, 47, 70
5, 17360, Note_off_c, 3, 47, 0
5, 17376, Note_on_c, 3, 59, 70
5, 17470, Note_off_c, 3, 59, 0
5, 17472, Note_on_c, 3, 62, 70
5, 17566, Note_off_c, 3, 62, 0
5, 17568, Note_on_c, 3, 66, 70
5, 17662, Note_off_c, 3, 66, 0
5, 17664, Note_on_c, 3, 62, 70
5, 17758, Note_off_c, 3, 62, 0
5, 17760, Note_on_c, 3, 59, 70
5, 17840, Note_off_c, 3, 59, 0
5, 17856, Note_on_c, 3, 47, 70
5, 17936, Note_off_c, 3, 47, 0
5, 17952, Note_on_c, 3, 59, 70
5, 18046, Note_off_c, 3, 59, 0
5, 18048, Note_on_c, 3, 62, 70
5, 18142, Note_off_c, 3, 62, 0
5, 18144, Note_on_c, 3, 66, 70
5, 18238, Note_off_c, 3, 66, 0
5, 18240, Note_on_c, 3, 62, 70
5, 18334, Note_off_c, 3, 62, 0
5, 18336, Note_on_c, 3, 59, 70
5, 18416, Note_off_c, 3, 59, 0
5, 18432, Note_on_c, 3, 62, 70
5, 18432, Note_on_c, 3, 49, 80
5, 18512, Note_off_c, 3, 62, 0
5, 18526, Note_off_c, 3, 49, 0
5, 18528, Note_on_c, 3, 56, 70
5, 18622, Note_off_c, 3, 56, 0
5, 18624, Note_on_c, 3, 61, 80
5, 18718, Note_off_c, 3, 61, 0
5, 18720, Note_on_c, 3, 56, 70
5, 18814, Note_off_c, 3, 56, 0
5, 18816, Note_on_c, 3, 59, 80
5, 18910, Note_off_c, 3, 59, 0
5, 18912, Note_on_c, 3, 56, 70
5, 18992, Note_off_c, 3, 56, 0
5, 19008, Note_on_c, 3, 42, 100
5, 19088, Note_off_c, 3, 42, 0
5, 19104, Note_on_c, 3, 57, 100
5, 19198, Note_off_c, 3, 57, 0
5, 19200, Note_on_c, 3, 61, 100
5, 19294, Note_off_c, 3, 61, 0
5, 19296, Note_on_c, 3, 66, 100
5, 19390, Note_off_c, 3, 66, 0
5, 19392, Note_on_c, 3, 61, 100
5, 19486, Note_off_c, 3, 61, 0
5, 19488, Note_on_c, 3, 57, 100
5, 19568, Note_off_c, 3, 57, 0
5, 19584, Note_on_c, 3, 48, 100
5, 19664, Note_off_c, 3, 48, 0
5, 19680, Note_on_c, 3, 56, 100
5, 19774, Note_off_c, 3, 56, 0
5, 19776, Note_on_c, 3, 63, 100
5, 19870, Note_off_c, 3, 63, 0
5, 19872, Note_on_c, 3, 66, 100
5, 19966, Note_off_c, 3, 66, 0
5, 19968, Note_on_c, 3, 63, 100
5, 20062, Note_off_c, 3, 63, 0
5, 20064, Note_on_c, 3, 56, 100
5, 20144, Note_off_c, 3, 56, 0
5, 20160, Note_on_c, 3, 48, 100
5, 20240, Note_off_c, 3, 48, 0
5, 20256, Note_on_c, 3, 56, 100
5, 20350, Note_off_c, 3, 56, 0
5, 20352, Note_on_c, 3, 59, 100
5, 20446, Note_off_c, 3, 59, 0
5, 20448, Note_on_c, 3, 62, 100
5, 20542, Note_off_c, 3, 62, 0
5, 20544, Note_on_c, 3, 59, 100
5, 20638, Note_off_c, 3, 59, 0
5, 20640, Note_on_c, 3, 56, 100
5, 20720, Note_off_c, 3, 56, 0
5, 20736, Note_on_c, 3, 46, 100
5, 20816, Note_off_c, 3, 46, 0
5, 20832, Note_on_c, 3, 52, 100
5, 20926, Note_off_c, 3, 52, 0
5, 20928, Note_on_c, 3, 54, 100
5, 21022, Note_off_c, 3, 54, 0
5, 21024, Note_on_c, 3, 61, 100
5, 21118, Note_off_c, 3, 61, 0
5, 21120, Note_on_c, 3, 54, 100
5, 21214, Note_off_c, 3, 54, 0
5, 21216, Note_on_c, 3, 46, 100
5, 21296, Note_off_c, 3, 46, 0
5, 21312, Note_on_c, 3, 47, 100
5, 21472, Note_off_c, 3, 47, 0
5, 21504, Note_on_c, 3, 55, 100
5, 21664, Note_off_c, 3, 55, 0
5, 21696, Note_on_c, 3, 54, 100
5, 21856, Note_off_c, 3, 54, 0
5, 21888, Note_on_c, 3, 53, 100
5, 22048, Note_off_c, 3, 53, 0
5, 22080, Note_on_c, 3, 49, 100
5, 22240, Note_off_c, 3, 49, 0
5, 22272, Note_on_c, 3, 54, 100
5, 22432, Note_off_c, 3, 54, 0
5, 22464, Note_on_c, 3, 50, 100
5, 22624, Note_off_c, 3, 50, 0
5, 22656, Note_on_c, 3, 47, 100
5, 22816, Note_off_c, 3, 47, 0
5, 22848, Note_on_c, 3, 49, 100
5, 23008, Note_off_c, 3, 49, 0
5, 23040, Note_on_c, 3, 54, 100
5, 23352, Note_off_c, 3, 54, 0
5, 28800, Note_on_c, 3, 56, 70
5, 29728, Note_off_c, 3, 56, 0
5, 29952, Note_on_c, 3, 57, 70
5, 30526, Note_off_c, 3, 57, 0
5, 30528, Note_on_c, 3, 49, 70
5, 30992, Note_off_c, 3, 49, 0
5, 31104, Note_on_c, 3, 50, 70
5, 31678, Note_off_c, 3, 50, 0
5, 31680, Note_on_c, 3, 51, 70
5, 32144, Note_off_c, 3, 51, 0
5, 32256, Note_on_c, 3, 52, 85
5, 32256, Note_on_c, 3, 64, 85
5, 32720, Note_off_c, 3, 52, 0
5, 32832, Note_on_c, 3, 52, 85
5, 33184, Note_off_c, 3, 64, 0
5, 33296, Note_off_c, 3, 52, 0
5, 33408, Note_on_c, 3, 64, 85
5, 33408, Note_on_c, 3, 52, 85
5, 33872, Note_off_c, 3, 52, 0
5, 33984, Note_on_c, 3, 52, 85
5, 34174, Note_off_c, 3, 64, 0
5, 34448, Note_off_c, 3, 52, 0
5, 34560, Note_on_c, 3, 52, 85
5, 34560, Note_on_c, 3, 64, 85
5, 35132, Note_off_c, 3, 52, 0
5, 35136, Note_on_c, 3, 52, 85
5, 35708, Note_off_c, 3, 64, 0
5, 35708, Note_off_c, 3, 52, 0
5, 35712, Note_on_c, 3, 60, 100
5, 35712, Note_on_c, 3, 53, 100
5, 35872, Note_off_c, 3, 53, 0
5, 36286, Note_off_c, 3, 60, 0
5, 36288, Note_on_c, 3, 57, 70
5, 36288, Note_on_c, 3, 53, 70
5, 36448, Note_off_c, 3, 53, 0
5, 36752, Note_off_c, 3, 57, 0
5, 36864, Note_on_c, 3, 64, 70
5, 36864, Note_on_c, 3, 52, 70
5, 37792, Note_off_c, 3, 64, 0
5, 38016, Note_on_c, 3, 59, 70
5, 38016, Note_on_c, 3, 56, 70
5, 38590, Note_off_c, 3, 59, 0
5, 38590, Note_off_c, 3, 56, 0
5, 38592, Note_on_c, 3, 57, 70
5, 38592, Note_on_c, 3, 61, 70
5, 39166, Note_off_c, 3, 57, 0
5, 39166, Note_off_c, 3, 61, 0
5, 39168, Note_on_c, 3, 59, 70
5, 39168, Note_on_c, 3, 56, 70
5, 39480, Note_off_c, 3, 59, 0
5, 39480, Note_off_c, 3, 56, 0
5, 39480, Note_off_c, 3, 52, 0
5, 40320, Note_on_c, 3, 45, 70
5, 40320, Note_on_c, 3, 52, 70
5, 40382, Note_off_c, 3, 45, 0
5, 40382, Note_off_c, 3, 52, 0
5, 40384, Note_on_c, 3, 57, 70
5, 40446, Note_off_c, 3, 57, 0
5, 40448, Note_on_c, 3, 61, 70
5, 40510, Note_off_c, 3, 61, 0
5, 40512, Note_on_c, 3, 64, 70
5, 40574, Note_off_c, 3, 64, 0
5, 40576, Note_on_c, 3, 61, 70
5, 40638, Note_off_c, 3, 61, 0
5, 40640, Note_on_c, 3, 57, 70
5, 40702, Note_off_c, 3, 57, 0
5, 40704, Note_on_c, 3, 45, 70
5, 40766, Note_off_c, 3, 45, 0
5, 40768, Note_on_c, 3, 52, 70
5, 40830, Note_off_c, 3, 52, 0
5, 40832, Note_on_c, 3, 57, 70
5, 40894, Note_off_c, 3, 57, 0
5, 40896, Note_on_c, 3, 45, 70
5, 40896, Note_on_c, 3, 52, 70
5, 40958, Note_off_c, 3, 45, 0
5, 40958, Note_off_c, 3, 52, 0
5, 40960, Note_on_c, 3, 57, 70
5, 41022, Note_off_c, 3, 57, 0
5, 41024, Note_on_c, 3, 61, 70
5, 41086, Note_off_c, 3, 61, 0
5, 41088, Note_on_c, 3, 64, 70
5, 41150, Note_off_c, 3, 64, 0
5, 41152, Note_on_c, 3, 61, 70
5, 41214, Note_off_c, 3, 61, 0
5, 41216, Note_on_c, 3, 57, 70
5, 41278, Note_off_c, 3, 57, 0
5, 41280, Note_on_c, 3, 45, 70
5, 41342, Note_off_c, 3, 45, 0
5, 41344, Note_on_c, 3, 52, 70
5, 41406, Note_off_c, 3, 52, 0
5, 41408, Note_on_c, 3, 57, 70
5, 41456, Note_off_c, 3, 57, 0
5, 41472, Note_on_c, 3, 52, 70
5, 41472, Note_on_c, 3, 45, 70
5, 41534, Note_off_c, 3, 52, 0
5, 41534, Note_off_c, 3, 45, 0
5, 41536, Note_on_c, 3, 56, 70
5, 41598, Note_off_c, 3, 56, 0
5, 41600, Note_on_c, 3, 59, 70
5, 41662, Note_off_c, 3, 59, 0
5, 41664, Note_on_c, 3, 64, 70
5, 41726, Note_off_c, 3, 64, 0
5, 41728, Note_on_c, 3, 59, 70
5, 41790, Note_off_c, 3, 59, 0
5, 41792, Note_on_c, 3, 56, 70
5, 41854, Note_off_c, 3, 56, 0
5, 41856, Note_on_c, 3, 52, 70
5, 41918, Note_off_c, 3, 52, 0
5, 41920, Note_on_c, 3, 56, 70
5, 41982, Note_off_c, 3, 56, 0
5, 41984, Note_on_c, 3, 59, 70
5, 42046, Note_off_c, 3, 59, 0
5, 42048, Note_on_c, 3, 52, 70
5, 42048, Note_on_c, 3, 44, 70
5, 42110, Note_off_c, 3, 52, 0
5, 42110, Note_off_c, 3, 44, 0
5, 42112, Note_on_c, 3, 56, 70
5, 42174, Note_off_c, 3, 56, 0
5, 42176, Note_on_c, 3, 59, 70
5, 42238, Note_off_c, 3, 59, 0
5, 42240, Note_on_c, 3, 64, 70
5, 42302, Note_off_c, 3, 64, 0
5, 42304, Note_on_c, 3, 59, 70
5, 42366, Note_off_c, 3, 59, 0
5, 42368, Note_on_c, 3, 56, 70
5, 42430, Note_off_c, 3, 56, 0
5, 42432, Note_on_c, 3, 52, 70
5, 42494, Note_off_c, 3, 52, 0
5, 42496, Note_on_c, 3, 56, 70
5, 42558, Note_off_c, 3, 56, 0
5, 42560, Note_on_c, 3, 59, 70
5, 42608, Note_off_c, 3, 59, 0
5, 42624, Note_on_c, 3, 45, 70
5, 42718, Note_off_c, 3, 45, 0
5, 42720, Note_on_c, 3, 57, 70
5, 42814, Note_off_c, 3, 57, 0
5, 42816, Note_on_c, 3, 59, 70
5, 42910, Note_off_c, 3, 59, 0
5, 42912, Note_on_c, 3, 61, 70
5, 43006, Note_off_c, 3, 61, 0
5, 43008, Note_on_c, 3, 62, 70
5, 43102, Note_off_c, 3, 62, 0
5, 43104, Note_on_c, 3, 59, 70
5, 43198, Note_off_c, 3, 59, 0
5, 43200, Note_on_c, 3, 61, 70
5, 43294, Note_off_c, 3, 61, 0
5, 43296, Note_on_c, 3, 56, 70
5, 43390, Note_off_c, 3, 56, 0
5, 43392, Note_on_c, 3, 57, 70
5, 43472, Note_off_c, 3, 57, 0
5, 43488, Note_on_c, 3, 57, 70
5, 43488, Note_on_c, 3, 61, 70
5, 43582, Note_off_c, 3, 57, 0
5, 43582, Note_off_c, 3, 61, 0
5, 43584, Note_on_c, 3, 59, 70
5, 43584, Note_on_c, 3, 62, 70
5, 43678, Note_off_c, 3, 59, 0
5, 43678, Note_off_c, 3, 62, 0
5, 43680, Note_on_c, 3, 60, 70
5, 43680, Note_on_c, 3, 63, 70
5, 43774, Note_off_c, 3, 60, 0
5, 43774, Note_off_c, 3, 63, 0
5, 43776, Note_on_c, 3, 61, 70
5, 43776, Note_on_c, 3, 64, 70
5, 43776, Note_on_c, 3, 52, 70
5, 43870, Note_off_c, 3, 61, 0
5, 43870, Note_off_c, 3, 64, 0
5, 43872, Note_on_c, 3, 60, 70
5, 43872, Note_on_c, 3, 63, 70
5, 43966, Note_off_c, 3, 52, 0
5, 43966, Note_off_c, 3, 60, 0
5, 43966, Note_off_c, 3, 63, 0
5, 43968, Note_on_c, 3, 61, 70
5, 43968, Note_on_c, 3, 64, 70
5, 43968, Note_on_c, 3, 52, 70
5, 44062, Note_off_c, 3, 61, 0
5, 44062, Note_off_c, 3, 64, 0
5, 44064, Note_on_c, 3, 60, 70
5, 44064, Note_on_c, 3, 63, 70
5, 44158, Note_off_c, 3, 52, 0
5, 44158, Note_off_c, 3, 60, 0
5, 44158, Note_off_c, 3, 63, 0
5, 44160, Note_on_c, 3, 61, 70
5, 44160, Note_on_c, 3, 64, 70
5, 44160, Note_on_c, 3, 52, 70
5, 44254, Note_off_c, 3, 61, 0
5, 44254, Note_off_c, 3, 64, 0
5, 44256, Note_on_c, 3, 57, 70
5, 44256, Note_on_c, 3, 61, 70
5, 44350, Note_off_c, 3, 52, 0
5, 44350, Note_off_c, 3, 57, 0
5, 44350, Note_off_c, 3, 61, 0
5, 44352, Note_on_c, 3, 59, 70
5, 44352, Note_on_c, 3, 56, 70
5, 44352, Note_on_c, 3, 52, 70
5, 44432, Note_off_c, 3, 59, 0
5, 44432, Note_off_c, 3, 56, 0
5, 44432, Note_off_c, 3, 52, 0
5, 44928, Note_on_c, 3, 57, 70
5, 44928, Note_on_c, 3, 45, 70
5, 44928, Note_on_c, 3, 52, 70
5, 45240, Note_off_c, 3, 57, 0
5, 45240, Note_off_c, 3, 45, 0
5, 45312, Note_on_c, 3, 57, 70
5, 45312, Note_on_c, 3, 45, 70
5, 45472, Note_off_c, 3, 57, 0
5, 45472, Note_off_c, 3, 45, 0
5, 45504, Note_on_c, 3, 57, 70
5, 45504, Note_on_c, 3, 45, 70
5, 45816, Note_off_c, 3, 57, 0
5, 45816, Note_off_c, 3, 45, 0
5, 45856, Note_off_c, 3, 52, 64
5, 45888, Note_on_c, 3, 57, 70
5, 45888, Note_on_c, 3, 52, 70
5, 45888, Note_on_c, 3, 45, 70
5, 46048, Note_off_c, 3, 57, 0
5, 46048, Note_off_c, 3, 52, 0
5, 46048, Note_off_c, 3, 45, 0
5, 46080, Note_on_c, 3, 56, 70
5, 46080, Note_on_c, 3, 52, 70
5, 46080, Note_on_c, 3, 44, 70
5, 46240, Note_off_c, 3, 56, 0
5, 46240, Note_off_c, 3, 52, 0
5, 46240, Note_off_c, 3, 44, 0
5, 46272, Note_on_c, 3, 56, 70
5, 46272, Note_on_c, 3, 52, 70
5, 46272, Note_on_c, 3, 44, 70
5, 46432, Note_off_c, 3, 56, 0
5, 46432, Note_off_c, 3, 52, 0
5, 46432, Note_off_c, 3, 44, 0
5, 46464, Note_on_c, 3, 56, 70
5, 46464, Note_on_c, 3, 52, 70
5, 46464, Note_on_c, 3, 44, 70
5, 46624, Note_off_c, 3, 56, 0
5, 46624, Note_off_c, 3, 52, 0
5, 46624, Note_off_c, 3, 44, 0
5, 46656, Note_on_c, 3, 56, 70
5, 46656, Note_on_c, 3, 52, 70
5, 46656, Note_on_c, 3, 44, 70
5, 46816, Note_off_c, 3, 56, 0
5, 46816, Note_off_c, 3, 52, 0
5, 46816, Note_off_c, 3, 44, 0
5, 47040, Note_on_c, 3, 59, 70
5, 47040, Note_on_c, 3, 52, 70
5, 47200, Note_off_c, 3, 59, 0
5, 47200, Note_off_c, 3, 52, 0
5, 47232, Note_on_c, 3, 54, 70
5, 47232, Note_on_c, 3, 57, 70
5, 47392, Note_off_c, 3, 54, 0
5, 47392, Note_off_c, 3, 57, 0
5, 47808, Note_on_c, 3, 50, 70
5, 47968, Note_off_c, 3, 50, 0
5, 48384, Note_on_c, 3, 52, 70
5, 48576, Note_on_c, 3, 61, 70
5, 48766, Note_off_c, 3, 61, 0
5, 48768, Note_on_c, 3, 59, 70
5, 48928, Note_off_c, 3, 59, 0
5, 48958, Note_off_c, 3, 52, 0
5, 48960, Note_on_c, 3, 57, 70
5, 48960, Note_on_c, 3, 45, 70
5, 49120, Note_off_c, 3, 45, 0
5, 49150, Note_off_c, 3, 57, 0
5, 49152, Note_on_c, 3, 61, 70
5, 49342, Note_off_c, 3, 61, 0
5, 49344, Note_on_c, 3, 57, 70
5, 49504, Note_off_c, 3, 57, 0
5, 49536, Note_on_c, 3, 52, 70
5, 49536, Note_on_c, 3, 52, 70
5, 49726, Note_off_c, 3, 52, 0
5, 49728, Note_on_c, 3, 56, 70
5, 49918, Note_off_c, 3, 56, 0
5, 49920, Note_on_c, 3, 57, 70
5, 50110, Note_off_c, 3, 52, 0
5, 50110, Note_off_c, 3, 57, 0
5, 50112, Note_on_c, 3, 52, 70
5, 50576, Note_off_c, 3, 52, 0
5, 50688, Note_on_c, 3, 45, 70
5, 50878, Note_off_c, 3, 45, 0
5, 50880, Note_on_c, 3, 49, 70
5, 51070, Note_off_c, 3, 49, 0
5, 51072, Note_on_c, 3, 52, 70
5, 51072, Note_on_c, 3, 56, 70
5, 51262, Note_off_c, 3, 52, 0
5, 51262, Note_off_c, 3, 56, 0
5, 51264, Note_on_c, 3, 57, 70
5, 51424, Note_off_c, 3, 57, 0
5, 52032, Note_on_c, 3, 54, 70
5, 52032, Note_on_c, 3, 50, 70
5, 52192, Note_off_c, 3, 54, 0
5, 52192, Note_off_c, 3, 50, 0
5, 52224, Note_on_c, 3, 52, 70
5, 52384, Note_off_c, 3, 52, 0
5, 52416, Note_on_c, 3, 45, 70
5, 52576, Note_off_c, 3, 45, 0
5, 52992, Note_on_c, 3, 52, 70
5, 53184, Note_on_c, 3, 44, 70
5, 53374, Note_off_c, 3, 44, 0
5, 53376, Note_on_c, 3, 45, 70
5, 53564, Note_off_c, 3, 52, 0
5, 53566, Note_off_c, 3, 45, 0
5, 53568, Note_on_c, 3, 52, 70
5, 53568, Note_on_c, 3, 40, 70
5, 53628, Note_off_c, 3, 52, 0
5, 53628, Note_off_c, 3, 40, 0
5, 53632, Note_on_c, 3, 59, 70
5, 53662, Note_off_c, 3, 59, 0
5, 53696, Note_on_c, 3, 57, 70
5, 53726, Note_off_c, 3, 57, 0
5, 53760, Note_on_c, 3, 56, 70
5, 53790, Note_off_c, 3, 56, 0
5, 53824, Note_on_c, 3, 54, 70
5, 53854, Note_off_c, 3, 54, 0
5, 53888, Note_on_c, 3, 52, 70
5, 53918, Note_off_c, 3, 52, 0
5, 53952, Note_on_c, 3, 50, 70
5, 53982, Note_off_c, 3, 50, 0
5, 54016, Note_on_c, 3, 49, 70
5, 54046, Note_off_c, 3, 49, 0
5, 54080, Note_on_c, 3, 47, 70
5, 54110, Note_off_c, 3, 47, 0
5, 54144, Note_on_c, 3, 45, 70
5, 54144, Note_on_c, 3, 33, 70
5, 54304, Note_off_c, 3, 45, 0
5, 54304, Note_off_c, 3, 33, 0
5, 54336, Note_on_c, 3, 49, 70
5, 54336, Note_on_c, 3, 37, 70
5, 54496, Note_off_c, 3, 49, 0
5, 54496, Note_off_c, 3, 37, 0
5, 54528, Note_on_c, 3, 52, 70
5, 54528, Note_on_c, 3, 40, 70
5, 54688, Note_off_c, 3, 52, 0
5, 54688, Note_off_c, 3, 40, 0
5, 54720, Note_on_c, 3, 54, 70
5, 54720, Note_on_c, 3, 42, 70
5, 54780, Note_off_c, 3, 54, 0
5, 54780, Note_off_c, 3, 42, 0
5, 54784, Note_on_c, 3, 61, 70
5, 54814, Note_off_c, 3, 61, 0
5, 54848, Note_on_c, 3, 59, 70
5, 54878, Note_off_c, 3, 59, 0
5, 54912, Note_on_c, 3, 57, 70
5, 54942, Note_off_c, 3, 57, 0
5, 54976, Note_on_c, 3, 56, 70
5, 55006, Note_off_c, 3, 56, 0
5, 55040, Note_on_c, 3, 54, 70
5, 55070, Note_off_c, 3, 54, 0
5, 55104, Note_on_c, 3, 52, 70
5, 55134, Note_off_c, 3, 52, 0
5, 55168, Note_on_c, 3, 50, 70
5, 55198, Note_off_c, 3, 50, 0
5, 55232, Note_on_c, 3, 49, 70
5, 55262, Note_off_c, 3, 49, 0
5, 55296, Note_on_c, 3, 50, 70
5, 55296, Note_on_c, 3, 38, 70
5, 55870, Note_off_c, 3, 50, 0
5, 55870, Note_off_c, 3, 38, 0
5, 55872, Note_on_c, 3, 51, 70
5, 55872, Note_on_c, 3, 39, 70
5, 56336, Note_off_c, 3, 51, 0
5, 56336, Note_off_c, 3, 39, 0
5, 56448, Note_on_c, 3, 52, 70
5, 56448, Note_on_c, 3, 40, 70
5, 56760, Note_off_c, 3, 52, 0
5, 56760, Note_off_c, 3, 40, 0
5, 57024, Note_on_c, 3, 52, 70
5, 57024, Note_on_c, 3, 40, 70
5, 57336, Note_off_c, 3, 52, 0
5, 57336, Note_off_c, 3, 40, 0
5, 57600, Note_on_c, 3, 52, 70
5, 57600, Note_on_c, 3, 40, 70
5, 57912, Note_off_c, 3, 52, 0
5, 57912, Note_off_c, 3, 40, 0
5, 58176, Note_on_c, 3, 40, 70
5, 58176, Note_on_c, 3, 52, 70
5, 58488, Note_off_c, 3, 40, 0
5, 58488, Note_off_c, 3, 52, 0
5, 58752, Note_on_c, 3, 57, 70
5, 58752, Note_on_c, 3, 45, 70
5, 58940, Note_off_c, 3, 57, 0
5, 58940, Note_off_c, 3, 45, 0
5, 73728, Note_on_c, 3, 62, 70
5, 73728, Note_on_c, 3, 57, 70
5, 73728, Note_on_c, 3, 50, 70
5, 74878, Note_off_c, 3, 62, 0
5, 74878, Note_off_c, 3, 57, 0
5, 74878, Note_off_c, 3, 50, 0
5, 74880, Note_on_c, 3, 59, 70
5, 74880, Note_on_c, 3, 47, 70
5, 75040, Note_off_c, 3, 59, 0
5, 75040, Note_off_c, 3, 47, 0
5, 78336, Note_on_c, 3, 54, 70
5, 78336, Note_on_c, 3, 42, 70
5, 78496, Note_off_c, 3, 54, 0
5, 78496, Note_off_c, 3, 42, 0
5, 78912, Note_on_c, 3, 54, 70
5, 78912, Note_on_c, 3, 42, 70
5, 79006, Note_off_c, 3, 54, 0
5, 79006, Note_off_c, 3, 42, 0
5, 79008, Note_on_c, 3, 57, 70
5, 79102, Note_off_c, 3, 57, 0
5, 79104, Note_on_c, 3, 61, 70
5, 79198, Note_off_c, 3, 61, 0
5, 79200, Note_on_c, 3, 66, 70
5, 79294, Note_off_c, 3, 66, 0
5, 79296, Note_on_c, 3, 61, 70
5, 79390, Note_off_c, 3, 61, 0
5, 79392, Note_on_c, 3, 57, 70
5, 79472, Note_off_c, 3, 57, 0
5, 79488, Note_on_c, 3, 54, 70
5, 79488, Note_on_c, 3, 42, 70
5, 79568, Note_off_c, 3, 54, 0
5, 79568, Note_off_c, 3, 42, 0
5, 79584, Note_on_c, 3, 57, 70
5, 79678, Note_off_c, 3, 57, 0
5, 79680, Note_on_c, 3, 61, 70
5, 79774, Note_off_c, 3, 61, 0
5, 79776, Note_on_c, 3, 66, 70
5, 79870, Note_off_c, 3, 66, 0
5, 79872, Note_on_c, 3, 61, 70
5, 79966, Note_off_c, 3, 61, 0
5, 79968, Note_on_c, 3, 57, 70
5, 80048, Note_off_c, 3, 57, 0
5, 80064, Note_on_c, 3, 56, 70
5, 80064, Note_on_c, 3, 44, 70
5, 80144, Note_off_c, 3, 56, 0
5, 80144, Note_off_c, 3, 44, 0
5, 80160, Note_on_c, 3, 59, 70
5, 80254, Note_off_c, 3, 59, 0
5, 80256, Note_on_c, 3, 61, 70
5, 80350, Note_off_c, 3, 61, 0
5, 80352, Note_on_c, 3, 65, 70
5, 80446, Note_off_c, 3, 65, 0
5, 80448, Note_on_c, 3, 61, 70
5, 80542, Note_off_c, 3, 61, 0
5, 80544, Note_on_c, 3, 59, 70
5, 80624, Note_off_c, 3, 59, 0
5, 80640, Note_on_c, 3, 45, 70
5, 80640, Note_on_c, 3, 59, 85
5, 80830, Note_off_c, 3, 59, 0
5, 80832, Note_on_c, 3, 57, 85
5, 81022, Note_off_c, 3, 57, 0
5, 81024, Note_on_c, 3, 56, 85
5, 81184, Note_off_c, 3, 45, 0
5, 81184, Note_off_c, 3, 56, 0
5, 81216, Note_on_c, 3, 54, 70
5, 81216, Note_on_c, 3, 45, 70
5, 81296, Note_off_c, 3, 54, 0
5, 81296, Note_off_c, 3, 45, 0
5, 81312, Note_on_c, 3, 57, 70
5, 81406, Note_off_c, 3, 57, 0
5, 81408, Note_on_c, 3, 61, 70
5, 81502, Note_off_c, 3, 61, 0
5, 81504, Note_on_c, 3, 66, 70
5, 81598, Note_off_c, 3, 66, 0
5, 81600, Note_on_c, 3, 61, 70
5, 81694, Note_off_c, 3, 61, 0
5, 81696, Note_on_c, 3, 57, 70
5, 81776, Note_off_c, 3, 57, 0
5, 81792, Note_on_c, 3, 59, 70
5, 81792, Note_on_c, 3, 47, 70
5, 81872, Note_off_c, 3, 59, 0
5, 81872, Note_off_c, 3, 47, 0
5, 81888, Note_on_c, 3, 54, 70
5, 81982, Note_off_c, 3, 54, 0
5, 81984, Note_on_c, 3, 59, 70
5, 82078, Note_off_c, 3, 59, 0
5, 82080, Note_on_c, 3, 62, 70
5, 82174, Note_off_c, 3, 62, 0
5, 82176, Note_on_c, 3, 59, 70
5, 82270, Note_off_c, 3, 59, 0
5, 82272, Note_on_c, 3, 54, 70
5, 82352, Note_off_c, 3, 54, 0
5, 82368, Note_on_c, 3, 47, 70
5, 82462, Note_off_c, 3, 47, 0
5, 82464, Note_on_c, 3, 59, 70
5, 82558, Note_off_c, 3, 59, 0
5, 82560, Note_on_c, 3, 62, 70
5, 82654, Note_off_c, 3, 62, 0
5, 82656, Note_on_c, 3, 66, 70
5, 82750, Note_off_c, 3, 66, 0
5, 82752, Note_on_c, 3, 62, 70
5, 82846, Note_off_c, 3, 62, 0
5, 82848, Note_on_c, 3, 59, 70
5, 82928, Note_off_c, 3, 59, 0
5, 82944, Note_on_c, 3, 49, 70
5, 82944, Note_on_c, 3, 37, 70
5, 83024, Note_off_c, 3, 49, 0
5, 83024, Note_off_c, 3, 37, 0
5, 83040, Note_on_c, 3, 56, 70
5, 83134, Note_off_c, 3, 56, 0
5, 83136, Note_on_c, 3, 59, 70
5, 83230, Note_off_c, 3, 59, 0
5, 83232, Note_on_c, 3, 61, 70
5, 83326, Note_off_c, 3, 61, 0
5, 83328, Note_on_c, 3, 59, 70
5, 83422, Note_off_c, 3, 59, 0
5, 83424, Note_on_c, 3, 56, 70
5, 83504, Note_off_c, 3, 56, 0
5, 83520, Note_on_c, 3, 54, 70
5, 83520, Note_on_c, 3, 42, 70
5, 83600, Note_off_c, 3, 54, 0
5, 83600, Note_off_c, 3, 42, 0
5, 83616, Note_on_c, 3, 57, 70
5, 83710, Note_off_c, 3, 57, 0
5, 83712, Note_on_c, 3, 68, 85
5, 83806, Note_off_c, 3, 68, 0
5, 83808, Note_on_c, 3, 57, 70
5, 83902, Note_off_c, 3, 57, 0
5, 83904, Note_on_c, 3, 66, 85
5, 83998, Note_off_c, 3, 66, 0
5, 84000, Note_on_c, 3, 57, 70
5, 84080, Note_off_c, 3, 57, 0
5, 84096, Note_on_c, 3, 48, 70
5, 84176, Note_off_c, 3, 48, 0
5, 84192, Note_on_c, 3, 54, 70
5, 84286, Note_off_c, 3, 54, 0
5, 84288, Note_on_c, 3, 56, 70
5, 84382, Note_off_c, 3, 56, 0
5, 84384, Note_on_c, 3, 63, 70
5, 84478, Note_off_c, 3, 63, 0
5, 84480, Note_on_c, 3, 56, 70
5, 84574, Note_off_c, 3, 56, 0
5, 84576, Note_on_c, 3, 54, 70
5, 84656, Note_off_c, 3, 54, 0
5, 84672, Note_on_c, 3, 47, 70
5, 84766, Note_off_c, 3, 47, 0
5, 84768, Note_on_c, 3, 56, 70
5, 84862, Note_off_c, 3, 56, 0
5, 84864, Note_on_c, 3, 59, 70
5, 84958, Note_off_c, 3, 59, 0
5, 84960, Note_on_c, 3, 62, 70
5, 85054, Note_off_c, 3, 62, 0
5, 85056, Note_on_c, 3, 59, 70
5, 85150, Note_off_c, 3, 59, 0
5, 85152, Note_on_c, 3, 56, 70
5, 85232, Note_off_c, 3, 56, 0
5, 85248, Note_on_c, 3, 46, 70
5, 85342, Note_off_c, 3, 46, 0
5, 85344, Note_on_c, 3, 52, 70
5, 85438, Note_off_c, 3, 52, 0
5, 85440, Note_on_c, 3, 54, 70
5, 85534, Note_off_c, 3, 54, 0
5, 85536, Note_on_c, 3, 61, 70
5, 85630, Note_off_c, 3, 61, 0
5, 85632, Note_on_c, 3, 54, 70
5, 85726, Note_off_c, 3, 54, 0
5, 85728, Note_on_c, 3, 52, 70
5, 85808, Note_off_c, 3, 52, 0
5, 85824, Note_on_c, 3, 47, 70
5, 85918, Note_off_c, 3, 47, 0
5, 85920, Note_on_c, 3, 50, 70
5, 86014, Note_off_c, 3, 50, 0
5, 86016, Note_on_c, 3, 59, 70
5, 86016, Note_on_c, 3, 55, 70
5, 86110, Note_off_c, 3, 59, 0
5, 86112, Note_on_c, 3, 62, 70
5, 86176, Note_off_c, 3, 55, 0
5, 86206, Note_off_c, 3, 62, 0
5, 86208, Note_on_c, 3, 57, 70
5, 86208, Note_on_c, 3, 54, 70
5, 86302, Note_off_c, 3, 57, 0
5, 86304, Note_on_c, 3, 62, 70
5, 86368, Note_off_c, 3, 54, 0
5, 86384, Note_off_c, 3, 62, 0
5, 86400, Note_on_c, 3, 56, 70
5, 86400, Note_on_c, 3, 52, 70
5, 86480, Note_off_c, 3, 52, 0
5, 86496, Note_on_c, 3, 61, 70
5, 86590, Note_off_c, 3, 61, 0
5, 86592, Note_on_c, 3, 49, 70
5, 86686, Note_off_c, 3, 49, 0
5, 86688, Note_on_c, 3, 61, 70
5, 86712, Note_off_c, 3, 56, 0
5, 86782, Note_off_c, 3, 61, 0
5, 86784, Note_on_c, 3, 54, 70
5, 86784, Note_on_c, 3, 57, 70
5, 86878, Note_off_c, 3, 54, 0
5, 86880, Note_on_c, 3, 61, 70
5, 86944, Note_off_c, 3, 57, 0
5, 86960, Note_off_c, 3, 61, 0
5, 86976, Note_on_c, 3, 50, 70
5, 86976, Note_on_c, 3, 54, 70
5, 87056, Note_off_c, 3, 50, 0
5, 87072, Note_on_c, 3, 59, 70
5, 87136, Note_off_c, 3, 54, 0
5, 87166, Note_off_c, 3, 59, 0
5, 87168, Note_on_c, 3, 47, 70
5, 87168, Note_on_c, 3, 56, 70
5, 87262, Note_off_c, 3, 47, 0
5, 87264, Note_on_c, 3, 62, 70
5, 87328, Note_off_c, 3, 56, 0
5, 87358, Note_off_c, 3, 62, 0
5, 87360, Note_on_c, 3, 49, 70
5, 87360, Note_on_c, 3, 52, 70
5, 87454, Note_off_c, 3, 49, 0
5, 87456, Note_on_c, 3, 59, 70
5, 87520, Note_off_c, 3, 52, 0
5, 87536, Note_off_c, 3, 59, 0
5, 87552, Note_on_c, 3, 57, 70
5, 87552, Note_on_c, 3, 54, 70
5, 87552, Note_on_c, 3, 61, 70
5, 87864, Note_off_c, 3, 57, 0
5, 87864, Note_off_c, 3, 54, 0
5, 88128, Note_on_c, 3, 54, 70
5, 88288, Note_off_c, 3, 54, 0
5, 88702, Note_off_c, 3, 61, 0
5, 88704, Note_on_c, 3, 54, 70
5, 88864, Note_off_c, 3, 54, 0
5, 89280, Note_on_c, 3, 56, 70
5, 89440, Note_off_c, 3, 56, 0
5, 89856, Note_on_c, 3, 57, 70
5, 90016, Note_off_c, 3, 57, 0
5, 90432, Note_on_c, 3, 45, 70
5, 90592, Note_off_c, 3, 45, 0
5, 91008, Note_on_c, 3, 54, 70
5, 91008, Note_on_c, 3, 47, 70
5, 91168, Note_off_c, 3, 47, 0
5, 91582, Note_off_c, 3, 54, 0
5, 91584, Note_on_c, 3, 59, 70
5, 91584, Note_on_c, 3, 47, 70
5, 91744, Note_off_c, 3, 47, 0
5, 92048, Note_off_c, 3, 59, 0
5, 92160, Note_on_c, 3, 37, 70
5, 92160, Note_on_c, 3, 49, 70
5, 92734, Note_off_c, 3, 37, 0
5, 92734, Note_off_c, 3, 49, 0
5, 92736, Note_on_c, 3, 49, 70
5, 92736, Note_on_c, 3, 37, 70
5, 92816, Note_off_c, 3, 49, 0
5, 92816, Note_off_c, 3, 37, 0
5, 92832, Note_on_c, 3, 49, 70
5, 92926, Note_off_c, 3, 49, 0
5, 92928, Note_on_c, 3, 53, 70
5, 93022, Note_off_c, 3, 53, 0
5, 93024, Note_on_c, 3, 56, 70
5, 93118, Note_off_c, 3, 56, 0
5, 93120, Note_on_c, 3, 61, 70
5, 93214, Note_off_c, 3, 61, 0
5, 93216, Note_on_c, 3, 49, 70
5, 93952, Note_off_c, 3, 49, 0
5, 93984, Note_on_c, 3, 49, 70
5, 94076, Note_off_c, 3, 49, 0
5, 94080, Note_on_c, 3, 53, 70
5, 94172, Note_off_c, 3, 53, 0
5, 94176, Note_on_c, 3, 56, 70
5, 94268, Note_off_c, 3, 56, 0
5, 94272, Note_on_c, 3, 61, 70
5, 94364, Note_off_c, 3, 61, 0
5, 94368, Note_on_c, 3, 49, 70
5, 94460, Note_off_c, 3, 49, 0
5, 94464, Note_on_c, 3, 49, 70
5, 95036, Note_off_c, 3, 49, 0
5, 95136, Note_on_c, 3, 49, 70
5, 95228, Note_off_c, 3, 49, 0
5, 95232, Note_on_c, 3, 54, 70
5, 95324, Note_off_c, 3, 54, 0
5, 95328, Note_on_c, 3, 57, 70
5, 95420, Note_off_c, 3, 57, 0
5, 95424, Note_on_c, 3, 61, 70
5, 95516, Note_off_c, 3, 61, 0
5, 95520, Note_on_c, 3, 49, 70
5, 95612, Note_off_c, 3, 49, 0
5, 95616, Note_on_c, 3, 49, 70
5, 96188, Note_off_c, 3, 49, 0
5, 96288, Note_on_c, 3, 49, 70
5, 96380, Note_off_c, 3, 49, 0
5, 96384, Note_on_c, 3, 53, 70
5, 96476, Note_off_c, 3, 53, 0
5, 96480, Note_on_c, 3, 56, 70
5, 96572, Note_off_c, 3, 56, 0
5, 96576, Note_on_c, 3, 61, 70
5, 96668, Note_off_c, 3, 61, 0
5, 96672, Note_on_c, 3, 49, 70
5, 96764, Note_off_c, 3, 49, 0
5, 96764, Program_c, 3, 45
5, 96768, Note_on_c, 3, 54, 70
5, 96848, Note_off_c, 3, 54, 0
5, 96960, Note_on_c, 3, 57, 70
5, 97040, Note_off_c, 3, 57, 0
5, 97152, Note_on_c, 3, 61, 70
5, 97232, Note_off_c, 3, 61, 0
5, 97344, Note_on_c, 3, 57, 70
5, 97424, Note_off_c, 3, 57, 0
5, 97536, Note_on_c, 3, 54, 70
5, 97616, Note_off_c, 3, 54, 0
5, 97728, Note_on_c, 3, 49, 70
5, 97808, Note_off_c, 3, 49, 0
5, 97920, Note_on_c, 3, 50, 70
5, 98000, Note_off_c, 3, 50, 0
5, 98112, Note_on_c, 3, 54, 70
5, 98192, Note_off_c, 3, 54, 0
5, 98304, Note_on_c, 3, 57, 70
5, 98384, Note_off_c, 3, 57, 0
5, 98496, Note_on_c, 3, 54, 70
5, 98576, Note_off_c, 3, 54, 0
5, 98688, Note_on_c, 3, 50, 70
5, 98768, Note_off_c, 3, 50, 0
5, 98880, Note_on_c, 3, 45, 70
5, 98960, Note_off_c, 3, 45, 0
5, 99072, Note_on_c, 3, 47, 70
5, 99152, Note_off_c, 3, 47, 0
5, 99264, Note_on_c, 3, 50, 70
5, 99344, Note_off_c, 3, 50, 0
5, 99456, Note_on_c, 3, 49, 70
5, 99536, Note_off_c, 3, 49, 0
5, 99648, Note_on_c, 3, 47, 70
5, 99728, Note_off_c, 3, 47, 0
5, 99840, Note_on_c, 3, 45, 70
5, 99920, Note_off_c, 3, 45, 0
5, 100032, Note_on_c, 3, 44, 70
5, 100112, Note_off_c, 3, 44, 0
5, 100224, Note_on_c, 3, 49, 70
5, 100304, Note_off_c, 3, 49, 0
5, 100416, Note_on_c, 3, 54, 70
5, 100496, Note_off_c, 3, 54, 0
5, 100608, Note_on_c, 3, 57, 70
5, 100688, Note_off_c, 3, 57, 0
5, 100800, Note_on_c, 3, 49, 70
5, 100880, Note_off_c, 3, 49, 0
5, 100992, Note_on_c, 3, 53, 70
5, 101072, Note_off_c, 3, 53, 0
5, 101184, Note_on_c, 3, 56, 70
5, 101264, Note_off_c, 3, 56, 0
5, 101372, Program_c, 3, 48
5, 101376, Note_on_c, 3, 42, 70
5, 101416, Note_off_c, 3, 42, 0
5, 101472, Note_on_c, 3, 54, 70
5, 101512, Note_off_c, 3, 54, 0
5, 101568, Note_on_c, 3, 45, 70
5, 101608, Note_off_c, 3, 45, 0
5, 101664, Note_on_c, 3, 57, 70
5, 101704, Note_off_c, 3, 57, 0
5, 101760, Note_on_c, 3, 49, 70
5, 101800, Note_off_c, 3, 49, 0
5, 101856, Note_on_c, 3, 61, 70
5, 101896, Note_off_c, 3, 61, 0
5, 101952, Note_on_c, 3, 45, 70
5, 101992, Note_off_c, 3, 45, 0
5, 102048, Note_on_c, 3, 57, 70
5, 102088, Note_off_c, 3, 57, 0
5, 102144, Note_on_c, 3, 42, 70
5, 102184, Note_off_c, 3, 42, 0
5, 102240, Note_on_c, 3, 54, 70
5, 102280, Note_off_c, 3, 54, 0
5, 102336, Note_on_c, 3, 37, 70
5, 102376, Note_off_c, 3, 37, 0
5, 102432, Note_on_c, 3, 49, 70
5, 102472, Note_off_c, 3, 49, 0
5, 102528, Note_on_c, 3, 38, 70
5, 102568, Note_off_c, 3, 38, 0
5, 102624, Note_on_c, 3, 50, 70
5, 102664, Note_off_c, 3, 50, 0
5, 102720, Note_on_c, 3, 42, 70
5, 102760, Note_off_c, 3, 42, 0
5, 102816, Note_on_c, 3, 54, 70
5, 102856, Note_off_c, 3, 54, 0
5, 102912, Note_on_c, 3, 45, 70
5, 102952, Note_off_c, 3, 45, 0
5, 103008, Note_on_c, 3, 57, 70
5, 103048, Note_off_c, 3, 57, 0
5, 103104, Note_on_c, 3, 42, 70
5, 103144, Note_off_c, 3, 42, 0
5, 103200, Note_on_c, 3, 54, 70
5, 103240, Note_off_c, 3, 54, 0
5, 103296, Note_on_c, 3, 38, 70
5, 103336, Note_off_c, 3, 38, 0
5, 103392, Note_on_c, 3, 50, 70
5, 103432, Note_off_c, 3, 50, 0
5, 103488, Note_on_c, 3, 33, 70
5, 103528, Note_off_c, 3, 33, 0
5, 103584, Note_on_c, 3, 45, 70
5, 103624, Note_off_c, 3, 45, 0
5, 103680, Note_on_c, 3, 35, 70
5, 103720, Note_off_c, 3, 35, 0
5, 103776, Note_on_c, 3, 47, 70
5, 103816, Note_off_c, 3, 47, 0
5, 103872, Note_on_c, 3, 38, 70
5, 103912, Note_off_c, 3, 38, 0
5, 103968, Note_on_c, 3, 50, 70
5, 104008, Note_off_c, 3, 50, 0
5, 104064, Note_on_c, 3, 43, 70
5, 104104, Note_off_c, 3, 43, 0
5, 104160, Note_on_c, 3, 55, 70
5, 104200, Note_off_c, 3, 55, 0
5, 104256, Note_on_c, 3, 47, 70
5, 104296, Note_off_c, 3, 47, 0
5, 104352, Note_on_c, 3, 59, 70
5, 104392, Note_off_c, 3, 59, 0
5, 104448, Note_on_c, 3, 43, 70
5, 104488, Note_off_c, 3, 43, 0
5, 104544, Note_on_c, 3, 55, 70
5, 104584, Note_off_c, 3, 55, 0
5, 104640, Note_on_c, 3, 35, 70
5, 104680, Note_off_c, 3, 35, 0
5, 104736, Note_on_c, 3, 47, 70
5, 104776, Note_off_c, 3, 47, 0
5, 104832, Note_on_c, 3, 37, 70
5, 104872, Note_off_c, 3, 37, 0
5, 104928, Note_on_c, 3, 49, 70
5, 104968, Note_off_c, 3, 49, 0
5, 105024, Note_on_c, 3, 42, 70
5, 105064, Note_off_c, 3, 42, 0
5, 105120, Note_on_c, 3, 54, 70
5, 105160, Note_off_c, 3, 54, 0
5, 105216, Note_on_c, 3, 45, 70
5, 105256, Note_off_c, 3, 45, 0
5, 105312, Note_on_c, 3, 57, 70
5, 105352, Note_off_c, 3, 57, 0
5, 105408, Note_on_c, 3, 37, 70
5, 105448, Note_off_c, 3, 37, 0
5, 105504, Note_on_c, 3, 49, 70
5, 105544, Note_off_c, 3, 49, 0
5, 105600, Note_on_c, 3, 41, 70
5, 105640, Note_off_c, 3, 41, 0
5, 105696, Note_on_c, 3, 53, 70
5, 105736, Note_off_c, 3, 53, 0
5, 105792, Note_on_c, 3, 44, 70
5, 105832, Note_off_c, 3, 44, 0
5, 105888, Note_on_c, 3, 56, 70
5, 105928, Note_off_c, 3, 56, 0
5, 105984, Note_on_c, 3, 54, 70
5, 106078, Note_off_c, 3, 54, 0
5, 106080, Note_on_c, 3, 57, 70
5, 106174, Note_off_c, 3, 57, 0
5, 106176, Note_on_c, 3, 61, 70
5, 106270, Note_off_c, 3, 61, 0
5, 106272, Note_on_c, 3, 66, 70
5, 106366, Note_off_c, 3, 66, 0
5, 106368, Note_on_c, 3, 61, 70
5, 106462, Note_off_c, 3, 61, 0
5, 106464, Note_on_c, 3, 57, 70
5, 106544, Note_off_c, 3, 57, 0
5, 106560, Note_on_c, 3, 45, 70
5, 106656, Note_on_c, 3, 49, 70
5, 106750, Note_off_c, 3, 49, 0
5, 106752, Note_on_c, 3, 54, 70
5, 106846, Note_off_c, 3, 54, 0
5, 106848, Note_on_c, 3, 57, 70
5, 106942, Note_off_c, 3, 57, 0
5, 106944, Note_on_c, 3, 54, 70
5, 107024, Note_off_c, 3, 45, 0
5, 107038, Note_off_c, 3, 54, 0
5, 107040, Note_on_c, 3, 49, 70
5, 107120, Note_off_c, 3, 49, 0
5, 107136, Note_on_c, 3, 47, 70
5, 107232, Note_on_c, 3, 54, 70
5, 107326, Note_off_c, 3, 54, 0
5, 107328, Note_on_c, 3, 56, 70
5, 107422, Note_off_c, 3, 56, 0
5, 107424, Note_on_c, 3, 62, 70
5, 107518, Note_off_c, 3, 62, 0
5, 107520, Note_on_c, 3, 56, 70
5, 107600, Note_off_c, 3, 47, 0
5, 107614, Note_off_c, 3, 56, 0
5, 107616, Note_on_c, 3, 54, 70
5, 107696, Note_off_c, 3, 54, 0
5, 107712, Note_on_c, 3, 49, 70
5, 107808, Note_on_c, 3, 53, 70
5, 107902, Note_off_c, 3, 53, 0
5, 107904, Note_on_c, 3, 56, 70
5, 107998, Note_off_c, 3, 56, 0
5, 108000, Note_on_c, 3, 61, 70
5, 108094, Note_off_c, 3, 61, 0
5, 108096, Note_on_c, 3, 56, 70
5, 108176, Note_off_c, 3, 49, 0
5, 108190, Note_off_c, 3, 56, 0
5, 108192, Note_on_c, 3, 53, 70
5, 108272, Note_off_c, 3, 53, 0
5, 108288, Note_on_c, 3, 45, 70
5, 108384, Note_on_c, 3, 49, 70
5, 108478, Note_off_c, 3, 49, 0
5, 108480, Note_on_c, 3, 54, 70
5, 108574, Note_off_c, 3, 54, 0
5, 108576, Note_on_c, 3, 57, 70
5, 108670, Note_off_c, 3, 57, 0
5, 108672, Note_on_c, 3, 54, 70
5, 108752, Note_off_c, 3, 45, 0
5, 108766, Note_off_c, 3, 54, 0
5, 108768, Note_on_c, 3, 49, 70
5, 108848, Note_off_c, 3, 49, 0
5, 108864, Note_on_c, 3, 50, 70
5, 108960, Note_on_c, 3, 54, 70
5, 109054, Note_off_c, 3, 54, 0
5, 109056, Note_on_c, 3, 57, 70
5, 109150, Note_off_c, 3, 57, 0
5, 109152, Note_on_c, 3, 62, 70
5, 109246, Note_off_c, 3, 62, 0
5, 109248, Note_on_c, 3, 57, 70
5, 109328, Note_off_c, 3, 50, 0
5, 109342, Note_off_c, 3, 57, 0
5, 109344, Note_on_c, 3, 54, 70
5, 109424, Note_off_c, 3, 54, 0
5, 109440, Note_on_c, 3, 47, 70
5, 109536, Note_on_c, 3, 54, 70
5, 109630, Note_off_c, 3, 54, 0
5, 109632, Note_on_c, 3, 56, 70
5, 109726, Note_off_c, 3, 56, 0
5, 109728, Note_on_c, 3, 62, 70
5, 109822, Note_off_c, 3, 62, 0
5, 109824, Note_on_c, 3, 56, 70
5, 109904, Note_off_c, 3, 47, 0
5, 109918, Note_off_c, 3, 56, 0
5, 109920, Note_on_c, 3, 54, 70
5, 110000, Note_off_c, 3, 54, 0
5, 110016, Note_on_c, 3, 49, 70
5, 110112, Note_on_c, 3, 53, 70
5, 110206, Note_off_c, 3, 53, 0
5, 110208, Note_on_c, 3, 56, 70
5, 110302, Note_off_c, 3, 56, 0
5, 110304, Note_on_c, 3, 61, 70
5, 110398, Note_off_c, 3, 61, 0
5, 110400, Note_on_c, 3, 56, 70
5, 110480, Note_off_c, 3, 49, 0
5, 110494, Note_off_c, 3, 56, 0
5, 110496, Note_on_c, 3, 53, 70
5, 110576, Note_off_c, 3, 53, 0
5, 110592, Note_on_c, 3, 45, 70
5, 110688, Note_on_c, 3, 54, 70
5, 110782, Note_off_c, 3, 54, 0
5, 110784, Note_on_c, 3, 57, 70
5, 110878, Note_off_c, 3, 57, 0
5, 110880, Note_on_c, 3, 61, 70
5, 110974, Note_off_c, 3, 61, 0
5, 110976, Note_on_c, 3, 57, 70
5, 111056, Note_off_c, 3, 45, 0
5, 111070, Note_off_c, 3, 57, 0
5, 111072, Note_on_c, 3, 54, 70
5, 111152, Note_off_c, 3, 54, 0
5, 111168, Note_on_c, 3, 48, 70
5, 111264, Note_on_c, 3, 54, 70
5, 111358, Note_off_c, 3, 54, 0
5, 111360, Note_on_c, 3, 57, 70
5, 111454, Note_off_c, 3, 57, 0
5, 111456, Note_on_c, 3, 63, 70
5, 111550, Note_off_c, 3, 63, 0
5, 111552, Note_on_c, 3, 57, 70
5, 111646, Note_off_c, 3, 57, 0
5, 111648, Note_on_c, 3, 54, 70
5, 111728, Note_off_c, 3, 54, 0
5, 111740, Note_off_c, 3, 48, 0
5, 111744, Note_on_c, 3, 49, 70
5, 111840, Note_on_c, 3, 54, 70
5, 111934, Note_off_c, 3, 54, 0
5, 111936, Note_on_c, 3, 57, 70
5, 112030, Note_off_c, 3, 57, 0
5, 112032, Note_on_c, 3, 61, 70
5, 112126, Note_off_c, 3, 61, 0
5, 112128, Note_on_c, 3, 57, 70
5, 112208, Note_off_c, 3, 49, 0
5, 112222, Note_off_c, 3, 57, 0
5, 112224, Note_on_c, 3, 54, 70
5, 112304, Note_off_c, 3, 54, 0
5, 112320, Note_on_c, 3, 49, 70
5, 112416, Note_on_c, 3, 53, 70
5, 112510, Note_off_c, 3, 53, 0
5, 112512, Note_on_c, 3, 56, 70
5, 112606, Note_off_c, 3, 56, 0
5, 112608, Note_on_c, 3, 61, 70
5, 112702, Note_off_c, 3, 61, 0
5, 112704, Note_on_c, 3, 56, 70
5, 112784, Note_off_c, 3, 49, 0
5, 112798, Note_off_c, 3, 56, 0
5, 112800, Note_on_c, 3, 53, 70
5, 112880, Note_off_c, 3, 53, 0
5, 112896, Note_on_c, 3, 61, 60
5, 112896, Note_on_c, 3, 54, 60
5, 112976, Note_off_c, 3, 61, 0
5, 112976, Note_off_c, 3, 54, 0
5, 113088, Note_on_c, 3, 54, 55
5, 113088, Note_on_c, 3, 61, 55
5, 113168, Note_off_c, 3, 54, 0
5, 113168, Note_off_c, 3, 61, 0
5, 113472, Note_on_c, 3, 66, 50
5, 113472, Note_on_c, 3, 57, 50
5, 113472, Note_on_c, 3, 54, 50
5, 113552, Note_off_c, 3, 66, 0
5, 113552, Note_off_c, 3, 57, 0
5, 113552, Note_off_c, 3, 54, 0
5, 113664, Note_on_c, 3, 66, 50
5, 113664, Note_on_c, 3, 57, 50
5, 113664, Note_on_c, 3, 54, 50
5, 113744, Note_off_c, 3, 66, 0
5, 113744, Note_off_c, 3, 57, 0
5, 113744, Note_off_c, 3, 54, 0
5, 114048, Note_on_c, 3, 54, 45
5, 114048, Note_on_c, 3, 49, 45
5, 114048, Note_on_c, 3, 42, 45
5, 114128, Note_off_c, 3, 54, 0
5, 114128, Note_off_c, 3, 49, 0
5, 114128, Note_off_c, 3, 42, 0
5, 114240, Note_on_c, 3, 54, 45
5, 114240, Note_on_c, 3, 49, 45
5, 114240, Note_on_c, 3, 42, 45
5, 114320, Note_off_c, 3, 54, 0
5, 114320, Note_off_c, 3, 49, 0
5, 114320, Note_off_c, 3, 42, 0
5, 114320, End_track
6, 0, Start_track
6, 0, Key_signature, 3, "major"
6, 0, End_track
7, 0, Start_track
7, 0, Key_signature, 3, "major"
7, 0, End_track
8, 0, Start_track
8, 0, Key_signature, 3, "major"
8, 0, End_track
9, 0, Start_track
9, 0, Key_signature, 3, "major"
9, 0, End_track
10, 0, Start_track
10, 0, Key_signature, 3, "major"
10, 0, End_track
11, 0, Start_track
11, 0, Key_signature, 3, "major"
11, 0, End_track
12, 0, Start_track
12, 0, Key_signature, 3, "major"
12, 0, End_track
13, 0, Start_track
13, 0, Key_signature, 3, "major"
13, 0, End_track
0, 0, End_of_file
