0, 0, Header, 1, 17, 384
1, 0, Start_track
1, 0, Time_signature, 2, 2, 96, 8
1, 0, Sequencer_specific, 3, 0, 0, 65
1, 0, Tempo, 821917
1, 11520, Time_signature, 3, 2, 96, 8
1, 11520, Tempo, 491803
1, 72576, Tempo, 517241
1, 73728, Tempo, 566037
1, 74880, Tempo, 618556
1, 76032, Time_signature, 2, 2, 96, 8
1, 76032, Tempo, 937500
1, 76800, Tempo, 1764705
1, 77184, Tempo, 937500
1, 77568, Tempo, 1764705
1, 77952, Tempo, 937500
1, 79680, Tempo, 821917
1, 90624, Time_signature, 3, 2, 96, 8
1, 90624, Tempo, 491803
1, 113664, Tempo, 526315
1, 127488, Tempo, 508474
1, 135552, Tempo, 526315
1, 136704, Tempo, 566037
1, 138624, Tempo, 1578947
1, 139008, Time_signature, 4, 2, 96, 8
1, 139776, Tempo, 508474
1, 185472, Tempo, 555555
1, 214272, Tempo, 588235
1, 215808, Tempo, 618556
1, 217344, Tempo, 821917
1, 218880, Time_signature, 2, 2, 96, 8
1, 218880, Tempo, 1578947
1, 219400, Tempo, 789473
1, 224256, Time_signature, 3, 2, 96, 8
1, 224256, Tempo, 491803
1, 250752, Tempo, 535714
1, 251904, Tempo, 600000
1, 253056, Tempo, 821917
1, 254208, Time_signature, 4, 2, 96, 8
1, 263424, Time_signature, 3, 2, 96, 8
1, 263424, Tempo, 408163
1, 272640, Time_signature, 9, 3, 96, 8
1, 272640, Tempo, 535714
1, 274368, Time_signature, 6, 3, 96, 8
1, 282432, Time_signature, 9, 3, 96, 8
1, 285888, Time_signature, 6, 3, 96, 8
1, 289344, Tempo, 594059
1, 289728, Tempo, 689655
1, 290496, Tempo, 833333
1, 290880, Tempo, 566037
1, 291648, Time_signature, 2, 2, 96, 8
1, 291648, Tempo, 821917
1, 296256, Time_signature, 3, 2, 96, 8
1, 296256, Tempo, 491803
1, 318144, Tempo, 545454
1, 319296, Tempo, 576923
1, 320448, Tempo, 618556
1, 321600, Tempo, 666666
1, 322752, Tempo, 689655
1, 322752, End_track
2, 0, Start_track
2, 0, Title_t, "Mozart  Violin Concerto"
2, 0, Control_c, 0, 0, 0
2, 0, Program_c, 0, 40
2, 0, Control_c, 0, 10, 67
2, 0, Control_c, 0, 91, 67
2, 0, Control_c, 0, 93, 33
2, 0, Key_signature, 2, "major"
2, 0, Control_c, 0, 121, 0
2, 144, Control_c, 0, 10, 63
2, 192, Control_c, 0, 91, 73
2, 240, Control_c, 0, 93, 35
2, 288, Program_c, 0, 40
2, 336, Control_c, 0, 1, 52
2, 524, Note_on_c, 0, 83, 75
2, 564, Note_off_c, 0, 83, 0
2, 576, Note_on_c, 0, 81, 65
2, 720, Note_off_c, 0, 81, 0
2, 720, Note_on_c, 0, 80, 75
2, 764, Note_off_c, 0, 80, 0
2, 768, Note_on_c, 0, 81, 65
2, 860, Note_off_c, 0, 81, 0
2, 960, Note_on_c, 0, 78, 65
2, 1052, Note_off_c, 0, 78, 0
2, 1152, Note_on_c, 0, 74, 65
2, 1244, Note_off_c, 0, 74, 0
2, 1344, Note_on_c, 0, 76, 65
2, 1436, Note_off_c, 0, 76, 0
2, 1536, Note_on_c, 0, 76, 65
2, 1920, Note_off_c, 0, 76, 0
2, 1920, Note_on_c, 0, 78, 65
2, 2100, Note_off_c, 0, 78, 0
2, 2112, Note_on_c, 0, 79, 65
2, 2256, Note_on_c, 0, 76, 75
2, 2260, Note_off_c, 0, 79, 0
2, 2300, Note_off_c, 0, 76, 0
2, 2304, Note_on_c, 0, 81, 65
2, 2396, Note_off_c, 0, 81, 0
2, 2496, Note_on_c, 0, 81, 65
2, 2588, Note_off_c, 0, 81, 0
2, 2688, Note_on_c, 0, 83, 65
2, 2780, Note_off_c, 0, 83, 0
2, 2880, Note_on_c, 0, 83, 65
2, 2972, Note_off_c, 0, 83, 0
2, 3072, Note_on_c, 0, 76, 65
2, 3252, Note_off_c, 0, 76, 0
2, 4800, Note_on_c, 0, 83, 85
2, 5180, Note_off_c, 0, 83, 0
2, 5184, Note_on_c, 0, 81, 77
2, 5328, Note_on_c, 0, 76, 85
2, 5332, Note_off_c, 0, 81, 0
2, 5364, Note_off_c, 0, 76, 0
2, 5376, Note_on_c, 0, 79, 73
2, 5568, Note_off_c, 0, 79, 0
2, 5568, Note_on_c, 0, 78, 69
2, 5748, Note_off_c, 0, 78, 0
2, 5952, Note_on_c, 0, 74, 65
2, 6096, Note_on_c, 0, 73, 75
2, 6100, Note_off_c, 0, 74, 0
2, 6132, Note_off_c, 0, 73, 0
2, 6144, Note_on_c, 0, 78, 65
2, 6332, Note_off_c, 0, 78, 0
2, 6336, Note_on_c, 0, 76, 65
2, 6624, Note_off_c, 0, 76, 0
2, 6624, Note_on_c, 0, 80, 65
2, 6720, Note_off_c, 0, 80, 0
2, 6720, Note_on_c, 0, 81, 65
2, 6864, Note_off_c, 0, 81, 0
2, 6864, Note_on_c, 0, 80, 75
2, 6900, Note_off_c, 0, 80, 0
2, 6912, Note_on_c, 0, 81, 65
2, 7004, Note_off_c, 0, 81, 0
2, 7104, Note_on_c, 0, 78, 65
2, 7200, Note_off_c, 0, 78, 0
2, 7296, Note_on_c, 0, 74, 65
2, 7388, Note_off_c, 0, 74, 0
2, 7488, Note_on_c, 0, 76, 65
2, 7568, Note_off_c, 0, 76, 0
2, 7680, Note_on_c, 0, 76, 65
2, 8064, Note_off_c, 0, 76, 0
2, 8064, Note_on_c, 0, 78, 65
2, 8244, Note_off_c, 0, 78, 0
2, 8256, Note_on_c, 0, 79, 65
2, 8400, Note_on_c, 0, 76, 75
2, 8408, Note_off_c, 0, 79, 0
2, 8436, Note_off_c, 0, 76, 0
2, 8448, Note_on_c, 0, 81, 65
2, 8628, Note_off_c, 0, 81, 0
2, 8640, Note_on_c, 0, 81, 65
2, 8832, Note_off_c, 0, 81, 0
2, 8832, Note_on_c, 0, 83, 65
2, 9012, Note_off_c, 0, 83, 0
2, 9024, Note_on_c, 0, 83, 65
2, 9216, Note_off_c, 0, 83, 0
2, 9216, Note_on_c, 0, 76, 65
2, 9396, Note_off_c, 0, 76, 0
2, 9792, Note_on_c, 0, 83, 65
2, 9936, Note_on_c, 0, 79, 75
2, 9940, Note_off_c, 0, 83, 0
2, 9972, Note_off_c, 0, 79, 0
2, 9984, Note_on_c, 0, 76, 62
2, 10064, Note_off_c, 0, 76, 0
2, 10560, Note_on_c, 0, 83, 55
2, 10604, Note_off_c, 0, 83, 0
2, 10608, Note_on_c, 0, 79, 55
2, 10652, Note_off_c, 0, 79, 0
2, 10656, Note_on_c, 0, 83, 55
2, 10700, Note_off_c, 0, 83, 0
2, 10704, Note_on_c, 0, 79, 55
2, 10748, Note_off_c, 0, 79, 0
2, 10752, Note_on_c, 0, 76, 55
2, 10848, Note_off_c, 0, 76, 0
2, 12096, Note_on_c, 0, 79, 75
2, 12192, Note_off_c, 0, 79, 0
2, 12288, Note_on_c, 0, 81, 75
2, 12384, Note_off_c, 0, 81, 0
2, 12480, Note_on_c, 0, 83, 75
2, 12576, Note_off_c, 0, 83, 0
2, 12672, Note_on_c, 0, 83, 85
2, 12724, Note_off_c, 0, 83, 0
2, 12728, Note_on_c, 0, 81, 75
2, 12780, Note_off_c, 0, 81, 0
2, 12864, Note_on_c, 0, 79, 75
2, 12960, Note_off_c, 0, 79, 0
2, 13056, Note_on_c, 0, 78, 75
2, 13152, Note_off_c, 0, 78, 0
2, 13248, Note_on_c, 0, 78, 85
2, 13300, Note_off_c, 0, 78, 0
2, 13308, Note_on_c, 0, 76, 75
2, 13360, Note_off_c, 0, 76, 0
2, 13440, Note_on_c, 0, 74, 75
2, 13536, Note_off_c, 0, 74, 0
2, 13632, Note_on_c, 0, 73, 75
2, 13728, Note_off_c, 0, 73, 0
2, 13824, Note_on_c, 0, 74, 75
2, 13920, Note_off_c, 0, 74, 0
2, 14016, Note_on_c, 0, 76, 75
2, 14112, Note_off_c, 0, 76, 0
2, 14208, Note_on_c, 0, 78, 75
2, 14304, Note_off_c, 0, 78, 0
2, 14400, Note_on_c, 0, 79, 75
2, 14496, Note_off_c, 0, 79, 0
2, 14592, Note_on_c, 0, 81, 75
2, 14688, Note_off_c, 0, 81, 0
2, 14784, Note_on_c, 0, 83, 75
2, 14880, Note_off_c, 0, 83, 0
2, 14976, Note_on_c, 0, 83, 85
2, 15028, Note_off_c, 0, 83, 0
2, 15032, Note_on_c, 0, 81, 75
2, 15084, Note_off_c, 0, 81, 0
2, 15168, Note_on_c, 0, 79, 75
2, 15264, Note_off_c, 0, 79, 0
2, 15360, Note_on_c, 0, 78, 75
2, 15456, Note_off_c, 0, 78, 0
2, 15552, Note_on_c, 0, 78, 85
2, 15604, Note_off_c, 0, 78, 0
2, 15612, Note_on_c, 0, 76, 75
2, 15664, Note_off_c, 0, 76, 0
2, 15744, Note_on_c, 0, 74, 75
2, 15840, Note_off_c, 0, 74, 0
2, 15936, Note_on_c, 0, 73, 75
2, 16032, Note_off_c, 0, 73, 0
2, 16128, Note_on_c, 0, 74, 75
2, 16508, Note_off_c, 0, 74, 0
2, 16704, Note_on_c, 0, 79, 75
2, 17088, Note_off_c, 0, 79, 0
2, 17088, Note_on_c, 0, 78, 75
2, 17180, Note_off_c, 0, 78, 0
2, 17184, Note_on_c, 0, 76, 75
2, 17264, Note_off_c, 0, 76, 0
2, 17280, Note_on_c, 0, 74, 75
2, 17376, Note_off_c, 0, 74, 0
2, 17472, Note_on_c, 0, 74, 75
2, 17564, Note_off_c, 0, 74, 0
2, 17664, Note_on_c, 0, 74, 75
2, 17744, Note_off_c, 0, 74, 0
2, 17856, Note_on_c, 0, 79, 75
2, 18240, Note_off_c, 0, 79, 0
2, 18240, Note_on_c, 0, 78, 75
2, 18332, Note_off_c, 0, 78, 0
2, 18336, Note_on_c, 0, 76, 75
2, 18416, Note_off_c, 0, 76, 0
2, 18432, Note_on_c, 0, 74, 75
2, 18620, Note_off_c, 0, 74, 0
2, 19008, Note_on_c, 0, 81, 65
2, 19060, Note_off_c, 0, 81, 0
2, 19068, Note_on_c, 0, 79, 65
2, 19392, Note_on_c, 0, 78, 65
2, 19404, Note_off_c, 0, 79, 0
2, 19488, Note_off_c, 0, 78, 0
2, 19488, Note_on_c, 0, 76, 65
2, 19584, Note_off_c, 0, 76, 0
2, 19584, Note_on_c, 0, 76, 75
2, 19636, Note_off_c, 0, 76, 0
2, 19640, Note_on_c, 0, 74, 65
2, 19692, Note_off_c, 0, 74, 0
2, 19776, Note_on_c, 0, 74, 65
2, 19868, Note_off_c, 0, 74, 0
2, 19968, Note_on_c, 0, 74, 65
2, 20060, Note_off_c, 0, 74, 0
2, 20160, Note_on_c, 0, 81, 75
2, 20212, Note_off_c, 0, 81, 0
2, 20220, Note_on_c, 0, 79, 65
2, 20544, Note_on_c, 0, 78, 65
2, 20556, Note_off_c, 0, 79, 0
2, 20636, Note_off_c, 0, 78, 0
2, 20640, Note_on_c, 0, 76, 65
2, 20732, Note_off_c, 0, 76, 0
2, 20736, Note_on_c, 0, 74, 65
2, 20828, Note_off_c, 0, 74, 0
2, 21312, Note_on_c, 0, 86, 75
2, 21404, Note_off_c, 0, 86, 0
2, 21504, Note_on_c, 0, 85, 75
2, 21596, Note_off_c, 0, 85, 0
2, 21696, Note_on_c, 0, 83, 75
2, 21788, Note_off_c, 0, 83, 0
2, 21888, Note_on_c, 0, 80, 85
2, 22272, Note_off_c, 0, 80, 0
2, 22272, Note_on_c, 0, 81, 65
2, 22452, Note_off_c, 0, 81, 0
2, 22464, Note_on_c, 0, 83, 65
2, 22560, Note_off_c, 0, 83, 0
2, 22656, Note_on_c, 0, 81, 65
2, 22748, Note_off_c, 0, 81, 0
2, 22848, Note_on_c, 0, 79, 65
2, 22928, Note_off_c, 0, 79, 0
2, 23040, Note_on_c, 0, 77, 85
2, 23424, Note_off_c, 0, 77, 0
2, 23424, Note_on_c, 0, 78, 65
2, 23604, Note_off_c, 0, 78, 0
2, 23616, Note_on_c, 0, 83, 65
2, 23712, Note_off_c, 0, 83, 0
2, 23712, Note_on_c, 0, 81, 65
2, 23792, Note_off_c, 0, 81, 0
2, 23808, Note_on_c, 0, 79, 65
2, 23856, Note_off_c, 0, 79, 0
2, 23904, Note_on_c, 0, 78, 65
2, 23952, Note_off_c, 0, 78, 0
2, 24000, Note_on_c, 0, 76, 65
2, 24048, Note_off_c, 0, 76, 0
2, 24096, Note_on_c, 0, 74, 65
2, 24144, Note_off_c, 0, 74, 0
2, 24192, Note_on_c, 0, 73, 65
2, 24288, Note_off_c, 0, 73, 0
2, 24288, Note_on_c, 0, 71, 65
2, 24368, Note_off_c, 0, 71, 0
2, 24384, Note_on_c, 0, 76, 65
2, 24480, Note_off_c, 0, 76, 0
2, 24480, Note_on_c, 0, 75, 65
2, 24560, Note_off_c, 0, 75, 0
2, 24576, Note_on_c, 0, 78, 65
2, 24672, Note_off_c, 0, 78, 0
2, 24672, Note_on_c, 0, 76, 65
2, 24752, Note_off_c, 0, 76, 0
2, 24768, Note_on_c, 0, 79, 65
2, 25056, Note_off_c, 0, 79, 0
2, 25056, Note_on_c, 0, 76, 65
2, 25148, Note_off_c, 0, 76, 0
2, 25152, Note_on_c, 0, 79, 65
2, 25244, Note_off_c, 0, 79, 0
2, 25248, Note_on_c, 0, 76, 65
2, 25328, Note_off_c, 0, 76, 0
2, 25344, Note_on_c, 0, 78, 65
2, 25532, Note_off_c, 0, 78, 0
2, 25920, Note_on_c, 0, 86, 65
2, 26016, Note_off_c, 0, 86, 0
2, 26112, Note_on_c, 0, 85, 65
2, 26204, Note_off_c, 0, 85, 0
2, 26304, Note_on_c, 0, 83, 65
2, 26384, Note_off_c, 0, 83, 0
2, 26496, Note_on_c, 0, 80, 85
2, 26880, Note_off_c, 0, 80, 0
2, 26880, Note_on_c, 0, 81, 65
2, 27060, Note_off_c, 0, 81, 0
2, 27072, Note_on_c, 0, 83, 65
2, 27168, Note_off_c, 0, 83, 0
2, 27264, Note_on_c, 0, 81, 65
2, 27356, Note_off_c, 0, 81, 0
2, 27456, Note_on_c, 0, 79, 65
2, 27536, Note_off_c, 0, 79, 0
2, 27648, Note_on_c, 0, 77, 85
2, 28032, Note_off_c, 0, 77, 0
2, 28032, Note_on_c, 0, 78, 65
2, 28212, Note_off_c, 0, 78, 0
2, 28224, Note_on_c, 0, 83, 65
2, 28320, Note_off_c, 0, 83, 0
2, 28320, Note_on_c, 0, 81, 65
2, 28400, Note_off_c, 0, 81, 0
2, 28416, Note_on_c, 0, 79, 65
2, 28464, Note_off_c, 0, 79, 0
2, 28512, Note_on_c, 0, 78, 65
2, 28560, Note_off_c, 0, 78, 0
2, 28608, Note_on_c, 0, 76, 65
2, 28656, Note_off_c, 0, 76, 0
2, 28704, Note_on_c, 0, 74, 65
2, 28752, Note_off_c, 0, 74, 0
2, 28800, Note_on_c, 0, 73, 65
2, 28896, Note_off_c, 0, 73, 0
2, 28896, Note_on_c, 0, 71, 65
2, 28976, Note_off_c, 0, 71, 0
2, 28992, Note_on_c, 0, 76, 65
2, 29088, Note_off_c, 0, 76, 0
2, 29088, Note_on_c, 0, 75, 65
2, 29168, Note_off_c, 0, 75, 0
2, 29184, Note_on_c, 0, 78, 65
2, 29280, Note_off_c, 0, 78, 0
2, 29280, Note_on_c, 0, 76, 65
2, 29360, Note_off_c, 0, 76, 0
2, 29376, Note_on_c, 0, 79, 65
2, 29664, Note_off_c, 0, 79, 0
2, 29664, Note_on_c, 0, 76, 65
2, 29756, Note_off_c, 0, 76, 0
2, 29760, Note_on_c, 0, 79, 65
2, 29852, Note_off_c, 0, 79, 0
2, 29856, Note_on_c, 0, 76, 65
2, 29936, Note_off_c, 0, 76, 0
2, 29952, Note_on_c, 0, 74, 65
2, 30140, Note_off_c, 0, 74, 0
2, 31872, Note_on_c, 0, 74, 85
2, 31968, Note_off_c, 0, 74, 0
2, 31968, Note_on_c, 0, 73, 85
2, 32060, Note_off_c, 0, 73, 0
2, 32064, Note_on_c, 0, 74, 85
2, 32156, Note_off_c, 0, 74, 0
2, 32160, Note_on_c, 0, 76, 85
2, 32252, Note_off_c, 0, 76, 0
2, 32256, Note_on_c, 0, 78, 85
2, 32436, Note_off_c, 0, 78, 0
2, 32448, Note_on_c, 0, 78, 85
2, 32544, Note_off_c, 0, 78, 0
2, 32544, Note_on_c, 0, 76, 85
2, 32636, Note_off_c, 0, 76, 0
2, 32640, Note_on_c, 0, 78, 85
2, 32732, Note_off_c, 0, 78, 0
2, 32736, Note_on_c, 0, 79, 85
2, 32828, Note_off_c, 0, 79, 0
2, 32832, Note_on_c, 0, 81, 85
2, 32912, Note_off_c, 0, 81, 0
2, 33024, Note_on_c, 0, 83, 85
2, 33116, Note_off_c, 0, 83, 0
2, 33216, Note_on_c, 0, 85, 85
2, 33308, Note_off_c, 0, 85, 0
2, 33408, Note_on_c, 0, 86, 95
2, 33792, Note_off_c, 0, 86, 0
2, 33792, Note_on_c, 0, 78, 85
2, 33972, Note_off_c, 0, 78, 0
2, 33984, Note_on_c, 0, 78, 85
2, 34080, Note_off_c, 0, 78, 0
2, 34176, Note_on_c, 0, 79, 85
2, 34268, Note_off_c, 0, 79, 0
2, 34368, Note_on_c, 0, 81, 85
2, 34448, Note_off_c, 0, 81, 0
2, 34560, Note_on_c, 0, 83, 95
2, 34944, Note_off_c, 0, 83, 0
2, 34944, Note_on_c, 0, 76, 85
2, 35124, Note_off_c, 0, 76, 0
2, 35136, Note_on_c, 0, 76, 85
2, 35232, Note_off_c, 0, 76, 0
2, 35328, Note_on_c, 0, 78, 85
2, 35420, Note_off_c, 0, 78, 0
2, 35520, Note_on_c, 0, 79, 85
2, 35600, Note_off_c, 0, 79, 0
2, 35712, Note_on_c, 0, 81, 85
2, 36092, Note_off_c, 0, 81, 0
2, 36096, Note_on_c, 0, 74, 85
2, 36276, Note_off_c, 0, 74, 0
2, 36288, Note_on_c, 0, 74, 85
2, 36384, Note_off_c, 0, 74, 0
2, 36480, Note_on_c, 0, 76, 85
2, 36572, Note_off_c, 0, 76, 0
2, 36672, Note_on_c, 0, 78, 85
2, 36752, Note_off_c, 0, 78, 0
2, 36864, Note_on_c, 0, 81, 95
2, 36916, Note_off_c, 0, 81, 0
2, 36920, Note_on_c, 0, 79, 85
2, 37144, Note_off_c, 0, 79, 0
2, 37152, Note_on_c, 0, 78, 85
2, 37244, Note_off_c, 0, 78, 0
2, 37248, Note_on_c, 0, 76, 85
2, 37436, Note_off_c, 0, 76, 0
2, 37440, Note_on_c, 0, 78, 85
2, 37820, Note_off_c, 0, 78, 64
2, 37824, Note_on_c, 0, 81, 85
2, 37916, Note_off_c, 0, 81, 0
2, 37920, Note_on_c, 0, 79, 85
2, 38012, Note_off_c, 0, 79, 0
2, 38016, Note_on_c, 0, 78, 85
2, 38400, Note_off_c, 0, 78, 0
2, 38400, Note_on_c, 0, 76, 85
2, 38580, Note_off_c, 0, 76, 0
2, 38784, Note_on_c, 0, 76, 65
2, 38880, Note_off_c, 0, 76, 0
2, 38880, Note_on_c, 0, 73, 65
2, 38960, Note_off_c, 0, 73, 0
2, 38976, Note_on_c, 0, 76, 65
2, 39024, Note_off_c, 0, 76, 0
2, 39072, Note_on_c, 0, 73, 65
2, 39120, Note_off_c, 0, 73, 0
2, 39168, Note_on_c, 0, 81, 65
2, 39552, Note_off_c, 0, 81, 0
2, 39552, Note_on_c, 0, 85, 65
2, 39732, Note_off_c, 0, 85, 0
2, 39936, Note_on_c, 0, 76, 65
2, 40032, Note_off_c, 0, 76, 0
2, 40032, Note_on_c, 0, 73, 65
2, 40112, Note_off_c, 0, 73, 0
2, 40128, Note_on_c, 0, 81, 65
2, 40176, Note_off_c, 0, 81, 0
2, 40224, Note_on_c, 0, 78, 65
2, 40272, Note_off_c, 0, 78, 0
2, 40320, Note_on_c, 0, 76, 65
2, 40704, Note_off_c, 0, 76, 0
2, 40704, Note_on_c, 0, 74, 65
2, 40884, Note_off_c, 0, 74, 0
2, 41088, Note_on_c, 0, 78, 65
2, 41184, Note_off_c, 0, 78, 0
2, 41184, Note_on_c, 0, 74, 65
2, 41264, Note_off_c, 0, 74, 0
2, 41280, Note_on_c, 0, 78, 65
2, 41328, Note_off_c, 0, 78, 0
2, 41376, Note_on_c, 0, 74, 65
2, 41424, Note_off_c, 0, 74, 0
2, 41472, Note_on_c, 0, 83, 65
2, 41856, Note_off_c, 0, 83, 0
2, 41856, Note_on_c, 0, 86, 65
2, 42036, Note_off_c, 0, 86, 0
2, 42240, Note_on_c, 0, 74, 65
2, 42336, Note_off_c, 0, 74, 0
2, 42336, Note_on_c, 0, 71, 65
2, 42416, Note_off_c, 0, 71, 0
2, 42432, Note_on_c, 0, 78, 65
2, 42480, Note_off_c, 0, 78, 0
2, 42528, Note_on_c, 0, 76, 65
2, 42576, Note_off_c, 0, 76, 0
2, 42624, Note_on_c, 0, 74, 65
2, 43008, Note_off_c, 0, 74, 0
2, 43008, Note_on_c, 0, 73, 65
2, 43188, Note_off_c, 0, 73, 0
2, 43392, Note_on_c, 0, 81, 65
2, 43488, Note_off_c, 0, 81, 0
2, 43488, Note_on_c, 0, 80, 65
2, 43580, Note_off_c, 0, 80, 0
2, 43584, Note_on_c, 0, 81, 65
2, 43676, Note_off_c, 0, 81, 0
2, 43680, Note_on_c, 0, 79, 65
2, 43772, Note_off_c, 0, 79, 0
2, 43776, Note_on_c, 0, 78, 65
2, 43856, Note_off_c, 0, 78, 0
2, 43968, Note_on_c, 0, 78, 65
2, 44064, Note_off_c, 0, 78, 0
2, 44064, Note_on_c, 0, 77, 65
2, 44156, Note_off_c, 0, 77, 0
2, 44160, Note_on_c, 0, 78, 65
2, 44252, Note_off_c, 0, 78, 0
2, 44256, Note_on_c, 0, 76, 65
2, 44348, Note_off_c, 0, 76, 0
2, 44352, Note_on_c, 0, 74, 65
2, 44432, Note_off_c, 0, 74, 0
2, 44544, Note_on_c, 0, 74, 65
2, 44640, Note_off_c, 0, 74, 0
2, 44640, Note_on_c, 0, 73, 65
2, 44732, Note_off_c, 0, 73, 0
2, 44736, Note_on_c, 0, 74, 65
2, 44828, Note_off_c, 0, 74, 0
2, 44832, Note_on_c, 0, 73, 65
2, 44924, Note_off_c, 0, 73, 0
2, 44928, Note_on_c, 0, 71, 65
2, 45008, Note_off_c, 0, 71, 0
2, 45696, Note_on_c, 0, 74, 85
2, 45792, Note_off_c, 0, 74, 0
2, 45792, Note_on_c, 0, 73, 85
2, 45884, Note_off_c, 0, 73, 0
2, 45888, Note_on_c, 0, 76, 85
2, 45980, Note_off_c, 0, 76, 0
2, 45984, Note_on_c, 0, 74, 85
2, 46076, Note_off_c, 0, 74, 0
2, 46080, Note_on_c, 0, 78, 85
2, 46260, Note_off_c, 0, 78, 0
2, 46272, Note_on_c, 0, 80, 85
2, 46364, Note_off_c, 0, 80, 0
2, 46464, Note_on_c, 0, 82, 85
2, 46556, Note_off_c, 0, 82, 0
2, 46656, Note_on_c, 0, 83, 85
2, 46748, Note_off_c, 0, 83, 0
2, 46848, Note_on_c, 0, 85, 85
2, 46940, Note_off_c, 0, 85, 0
2, 47040, Note_on_c, 0, 86, 85
2, 47132, Note_off_c, 0, 86, 0
2, 47232, Note_on_c, 0, 81, 85
2, 47616, Note_off_c, 0, 81, 0
2, 47616, Note_on_c, 0, 80, 85
2, 47796, Note_off_c, 0, 80, 0
2, 50112, Note_on_c, 0, 61, 95
2, 50208, Note_off_c, 0, 61, 0
2, 50208, Note_on_c, 0, 64, 85
2, 50288, Note_off_c, 0, 64, 0
2, 50304, Note_on_c, 0, 69, 85
2, 50352, Note_off_c, 0, 69, 0
2, 50400, Note_on_c, 0, 64, 85
2, 50448, Note_off_c, 0, 64, 0
2, 50496, Note_on_c, 0, 69, 85
2, 50588, Note_off_c, 0, 69, 0
2, 50688, Note_on_c, 0, 62, 95
2, 50784, Note_off_c, 0, 62, 0
2, 50784, Note_on_c, 0, 66, 85
2, 50864, Note_off_c, 0, 66, 0
2, 50880, Note_on_c, 0, 71, 85
2, 50972, Note_off_c, 0, 71, 0
2, 50976, Note_on_c, 0, 66, 85
2, 51068, Note_off_c, 0, 66, 0
2, 51072, Note_on_c, 0, 71, 85
2, 51164, Note_off_c, 0, 71, 0
2, 51264, Note_on_c, 0, 59, 95
2, 51360, Note_off_c, 0, 59, 0
2, 51360, Note_on_c, 0, 64, 85
2, 51440, Note_off_c, 0, 64, 0
2, 51456, Note_on_c, 0, 68, 85
2, 51504, Note_off_c, 0, 68, 0
2, 51552, Note_on_c, 0, 64, 85
2, 51600, Note_off_c, 0, 64, 0
2, 51648, Note_on_c, 0, 68, 85
2, 51740, Note_off_c, 0, 68, 0
2, 51840, Note_on_c, 0, 61, 85
2, 51936, Note_off_c, 0, 61, 0
2, 51936, Note_on_c, 0, 64, 85
2, 52016, Note_off_c, 0, 64, 0
2, 52032, Note_on_c, 0, 69, 85
2, 52080, Note_off_c, 0, 69, 0
2, 52128, Note_on_c, 0, 64, 85
2, 52176, Note_off_c, 0, 64, 0
2, 52224, Note_on_c, 0, 69, 85
2, 52316, Note_off_c, 0, 69, 0
2, 54720, Note_on_c, 0, 61, 95
2, 54816, Note_off_c, 0, 61, 0
2, 54816, Note_on_c, 0, 64, 85
2, 54896, Note_off_c, 0, 64, 0
2, 54912, Note_on_c, 0, 69, 85
2, 54960, Note_off_c, 0, 69, 0
2, 55008, Note_on_c, 0, 64, 85
2, 55056, Note_off_c, 0, 64, 0
2, 55104, Note_on_c, 0, 69, 85
2, 55196, Note_off_c, 0, 69, 0
2, 55296, Note_on_c, 0, 62, 95
2, 55392, Note_off_c, 0, 62, 0
2, 55392, Note_on_c, 0, 66, 85
2, 55472, Note_off_c, 0, 66, 0
2, 55488, Note_on_c, 0, 71, 85
2, 55536, Note_off_c, 0, 71, 0
2, 55584, Note_on_c, 0, 66, 85
2, 55632, Note_off_c, 0, 66, 0
2, 55680, Note_on_c, 0, 71, 95
2, 55772, Note_off_c, 0, 71, 0
2, 55872, Note_on_c, 0, 59, 85
2, 55968, Note_off_c, 0, 59, 0
2, 55968, Note_on_c, 0, 64, 85
2, 56048, Note_off_c, 0, 64, 0
2, 56064, Note_on_c, 0, 68, 85
2, 56112, Note_off_c, 0, 68, 0
2, 56160, Note_on_c, 0, 64, 85
2, 56208, Note_off_c, 0, 64, 0
2, 56256, Note_on_c, 0, 68, 85
2, 56348, Note_off_c, 0, 68, 0
2, 56448, Note_on_c, 0, 61, 95
2, 56544, Note_off_c, 0, 61, 0
2, 56544, Note_on_c, 0, 64, 85
2, 56624, Note_off_c, 0, 64, 0
2, 56640, Note_on_c, 0, 69, 85
2, 56688, Note_off_c, 0, 69, 0
2, 56736, Note_on_c, 0, 64, 85
2, 56784, Note_off_c, 0, 64, 0
2, 56832, Note_on_c, 0, 69, 85
2, 56924, Note_off_c, 0, 69, 0
2, 57024, Note_on_c, 0, 81, 65
2, 57120, Note_off_c, 0, 81, 0
2, 57120, Note_on_c, 0, 80, 65
2, 57212, Note_off_c, 0, 80, 0
2, 57216, Note_on_c, 0, 78, 65
2, 57308, Note_off_c, 0, 78, 0
2, 57312, Note_on_c, 0, 76, 65
2, 57404, Note_off_c, 0, 76, 0
2, 57408, Note_on_c, 0, 74, 65
2, 57500, Note_off_c, 0, 74, 0
2, 57504, Note_on_c, 0, 73, 65
2, 57596, Note_off_c, 0, 73, 0
2, 57600, Note_on_c, 0, 71, 65
2, 57680, Note_off_c, 0, 71, 0
2, 58176, Note_on_c, 0, 71, 65
2, 58272, Note_off_c, 0, 71, 0
2, 58272, Note_on_c, 0, 73, 65
2, 58364, Note_off_c, 0, 73, 0
2, 58368, Note_on_c, 0, 74, 65
2, 58460, Note_off_c, 0, 74, 0
2, 58464, Note_on_c, 0, 76, 65
2, 58556, Note_off_c, 0, 76, 0
2, 58560, Note_on_c, 0, 78, 65
2, 58652, Note_off_c, 0, 78, 0
2, 58656, Note_on_c, 0, 74, 65
2, 58748, Note_off_c, 0, 74, 0
2, 58752, Note_on_c, 0, 73, 65
2, 58832, Note_off_c, 0, 73, 0
2, 59328, Note_on_c, 0, 81, 65
2, 59424, Note_off_c, 0, 81, 0
2, 59424, Note_on_c, 0, 79, 65
2, 59516, Note_off_c, 0, 79, 0
2, 59520, Note_on_c, 0, 78, 65
2, 59612, Note_off_c, 0, 78, 0
2, 59616, Note_on_c, 0, 76, 65
2, 59708, Note_off_c, 0, 76, 0
2, 59712, Note_on_c, 0, 74, 65
2, 59804, Note_off_c, 0, 74, 0
2, 59808, Note_on_c, 0, 73, 65
2, 59900, Note_off_c, 0, 73, 0
2, 59904, Note_on_c, 0, 74, 65
2, 59984, Note_off_c, 0, 74, 0
2, 60480, Note_on_c, 0, 74, 66
2, 60576, Note_off_c, 0, 74, 0
2, 60576, Note_on_c, 0, 76, 67
2, 60668, Note_off_c, 0, 76, 0
2, 60672, Note_on_c, 0, 78, 68
2, 60764, Note_off_c, 0, 78, 0
2, 60768, Note_on_c, 0, 80, 69
2, 60860, Note_off_c, 0, 80, 0
2, 60864, Note_on_c, 0, 81, 70
2, 60956, Note_off_c, 0, 81, 0
2, 60960, Note_on_c, 0, 83, 71
2, 61052, Note_off_c, 0, 83, 0
2, 61056, Note_on_c, 0, 80, 72
2, 61140, Note_off_c, 0, 80, 0
2, 61632, Note_on_c, 0, 83, 79
2, 61728, Note_off_c, 0, 83, 0
2, 61728, Note_on_c, 0, 81, 80
2, 61820, Note_off_c, 0, 81, 0
2, 61824, Note_on_c, 0, 80, 81
2, 61916, Note_off_c, 0, 80, 0
2, 61920, Note_on_c, 0, 78, 82
2, 62012, Note_off_c, 0, 78, 0
2, 62016, Note_on_c, 0, 76, 83
2, 62108, Note_off_c, 0, 76, 0
2, 62112, Note_on_c, 0, 74, 84
2, 62204, Note_off_c, 0, 74, 0
2, 62208, Note_on_c, 0, 73, 85
2, 62300, Note_off_c, 0, 73, 0
2, 62304, Note_on_c, 0, 69, 85
2, 62384, Note_off_c, 0, 69, 0
2, 62400, Note_on_c, 0, 76, 85
2, 62496, Note_off_c, 0, 76, 0
2, 62496, Note_on_c, 0, 73, 85
2, 62592, Note_off_c, 0, 73, 0
2, 62592, Note_on_c, 0, 81, 85
2, 62688, Note_off_c, 0, 81, 0
2, 62688, Note_on_c, 0, 76, 85
2, 62784, Note_off_c, 0, 76, 0
2, 62784, Note_on_c, 0, 74, 85
2, 62880, Note_off_c, 0, 74, 0
2, 62880, Note_on_c, 0, 71, 85
2, 62960, Note_off_c, 0, 71, 0
2, 62976, Note_on_c, 0, 68, 85
2, 63072, Note_off_c, 0, 68, 0
2, 63072, Note_on_c, 0, 64, 85
2, 63168, Note_off_c, 0, 64, 0
2, 63168, Note_on_c, 0, 74, 85
2, 63264, Note_off_c, 0, 74, 0
2, 63264, Note_on_c, 0, 71, 85
2, 63360, Note_off_c, 0, 71, 0
2, 63360, Note_on_c, 0, 76, 85
2, 63456, Note_off_c, 0, 76, 0
2, 63456, Note_on_c, 0, 73, 85
2, 63536, Note_off_c, 0, 73, 0
2, 63552, Note_on_c, 0, 81, 85
2, 63648, Note_off_c, 0, 81, 0
2, 63648, Note_on_c, 0, 76, 85
2, 63744, Note_off_c, 0, 76, 0
2, 63744, Note_on_c, 0, 85, 85
2, 63840, Note_off_c, 0, 85, 0
2, 63840, Note_on_c, 0, 81, 85
2, 63936, Note_off_c, 0, 81, 0
2, 63936, Note_on_c, 0, 88, 85
2, 64124, Note_off_c, 0, 88, 0
2, 64128, Note_on_c, 0, 86, 85
2, 64308, Note_off_c, 0, 86, 0
2, 64512, Note_on_c, 0, 73, 85
2, 64608, Note_off_c, 0, 73, 0
2, 64608, Note_on_c, 0, 69, 85
2, 64688, Note_off_c, 0, 69, 0
2, 64704, Note_on_c, 0, 76, 85
2, 64752, Note_off_c, 0, 76, 0
2, 64800, Note_on_c, 0, 73, 85
2, 64848, Note_off_c, 0, 73, 0
2, 64896, Note_on_c, 0, 81, 85
2, 64944, Note_off_c, 0, 81, 0
2, 64992, Note_on_c, 0, 76, 85
2, 65040, Note_off_c, 0, 76, 0
2, 65088, Note_on_c, 0, 74, 85
2, 65184, Note_off_c, 0, 74, 0
2, 65184, Note_on_c, 0, 71, 85
2, 65264, Note_off_c, 0, 71, 0
2, 65280, Note_on_c, 0, 68, 85
2, 65328, Note_off_c, 0, 68, 0
2, 65376, Note_on_c, 0, 64, 85
2, 65424, Note_off_c, 0, 64, 0
2, 65472, Note_on_c, 0, 74, 85
2, 65520, Note_off_c, 0, 74, 0
2, 65568, Note_on_c, 0, 71, 85
2, 65616, Note_off_c, 0, 71, 0
2, 65664, Note_on_c, 0, 76, 85
2, 65760, Note_off_c, 0, 76, 0
2, 65760, Note_on_c, 0, 73, 85
2, 65840, Note_off_c, 0, 73, 0
2, 65856, Note_on_c, 0, 81, 85
2, 65904, Note_off_c, 0, 81, 0
2, 65952, Note_on_c, 0, 76, 85
2, 66000, Note_off_c, 0, 76, 0
2, 66048, Note_on_c, 0, 85, 85
2, 66096, Note_off_c, 0, 85, 0
2, 66144, Note_on_c, 0, 81, 85
2, 66192, Note_off_c, 0, 81, 0
2, 66240, Note_on_c, 0, 88, 85
2, 66428, Note_off_c, 0, 88, 0
2, 66432, Note_on_c, 0, 86, 85
2, 66612, Note_off_c, 0, 86, 0
2, 66816, Note_on_c, 0, 81, 95
2, 66908, Note_off_c, 0, 81, 0
2, 67008, Note_on_c, 0, 88, 85
2, 67104, Note_off_c, 0, 88, 0
2, 67104, Note_on_c, 0, 85, 85
2, 67196, Note_off_c, 0, 85, 0
2, 67200, Note_on_c, 0, 81, 85
2, 67380, Note_off_c, 0, 81, 0
2, 67392, Note_on_c, 0, 81, 95
2, 67484, Note_off_c, 0, 81, 0
2, 67584, Note_on_c, 0, 85, 85
2, 67680, Note_off_c, 0, 85, 0
2, 67680, Note_on_c, 0, 81, 85
2, 67772, Note_off_c, 0, 81, 0
2, 67776, Note_on_c, 0, 76, 85
2, 67956, Note_off_c, 0, 76, 0
2, 67968, Note_on_c, 0, 78, 95
2, 68060, Note_off_c, 0, 78, 0
2, 68160, Note_on_c, 0, 81, 85
2, 68256, Note_off_c, 0, 81, 0
2, 68256, Note_on_c, 0, 78, 85
2, 68348, Note_off_c, 0, 78, 0
2, 68352, Note_on_c, 0, 74, 85
2, 68532, Note_off_c, 0, 74, 0
2, 68544, Note_on_c, 0, 74, 95
2, 68636, Note_off_c, 0, 74, 0
2, 68736, Note_on_c, 0, 78, 85
2, 68832, Note_off_c, 0, 78, 0
2, 68832, Note_on_c, 0, 74, 85
2, 68924, Note_off_c, 0, 74, 0
2, 68928, Note_on_c, 0, 71, 85
2, 69108, Note_off_c, 0, 71, 0
2, 69120, Note_on_c, 0, 76, 85
2, 69504, Note_off_c, 0, 76, 0
2, 69504, Note_on_c, 0, 69, 85
2, 69684, Note_off_c, 0, 69, 0
2, 69696, Note_on_c, 0, 71, 85
2, 69740, Note_off_c, 0, 71, 0
2, 69744, Note_on_c, 0, 73, 85
2, 69788, Note_off_c, 0, 73, 0
2, 69792, Note_on_c, 0, 71, 85
2, 69836, Note_off_c, 0, 71, 0
2, 69840, Note_on_c, 0, 73, 85
2, 69884, Note_off_c, 0, 73, 0
2, 69888, Note_on_c, 0, 71, 85
2, 69932, Note_off_c, 0, 71, 0
2, 69936, Note_on_c, 0, 73, 85
2, 69980, Note_off_c, 0, 73, 0
2, 69984, Note_on_c, 0, 71, 85
2, 70028, Note_off_c, 0, 71, 0
2, 70032, Note_on_c, 0, 73, 85
2, 70076, Note_off_c, 0, 73, 0
2, 70080, Note_on_c, 0, 71, 85
2, 70124, Note_off_c, 0, 71, 0
2, 70128, Note_on_c, 0, 73, 85
2, 70172, Note_off_c, 0, 73, 0
2, 70176, Note_on_c, 0, 69, 85
2, 70220, Note_off_c, 0, 69, 0
2, 70224, Note_on_c, 0, 71, 85
2, 70268, Note_off_c, 0, 71, 0
2, 70272, Note_on_c, 0, 69, 85
2, 70656, Note_off_c, 0, 69, 0
2, 70848, Note_on_c, 0, 74, 85
2, 71232, Note_off_c, 0, 74, 0
2, 71232, Note_on_c, 0, 73, 84
2, 71324, Note_off_c, 0, 73, 0
2, 71328, Note_on_c, 0, 71, 84
2, 71408, Note_off_c, 0, 71, 0
2, 71424, Note_on_c, 0, 69, 83
2, 71520, Note_off_c, 0, 69, 0
2, 71616, Note_on_c, 0, 69, 82
2, 71708, Note_off_c, 0, 69, 0
2, 71808, Note_on_c, 0, 69, 82
2, 71888, Note_off_c, 0, 69, 0
2, 72000, Note_on_c, 0, 74, 81
2, 72384, Note_off_c, 0, 74, 0
2, 72384, Note_on_c, 0, 73, 79
2, 72476, Note_off_c, 0, 73, 0
2, 72480, Note_on_c, 0, 71, 79
2, 72560, Note_off_c, 0, 71, 0
2, 72576, Note_on_c, 0, 69, 78
2, 72764, Note_off_c, 0, 69, 0
2, 73152, Note_on_c, 0, 86, 76
2, 73536, Note_off_c, 0, 86, 0
2, 73536, Note_on_c, 0, 85, 75
2, 73628, Note_off_c, 0, 85, 0
2, 73632, Note_on_c, 0, 83, 74
2, 73712, Note_off_c, 0, 83, 0
2, 73728, Note_on_c, 0, 81, 74
2, 73824, Note_off_c, 0, 81, 0
2, 73920, Note_on_c, 0, 81, 73
2, 74012, Note_off_c, 0, 81, 0
2, 74112, Note_on_c, 0, 81, 72
2, 74192, Note_off_c, 0, 81, 0
2, 74304, Note_on_c, 0, 86, 71
2, 74688, Note_off_c, 0, 86, 0
2, 74688, Note_on_c, 0, 85, 70
2, 74780, Note_off_c, 0, 85, 0
2, 74784, Note_on_c, 0, 83, 70
2, 74864, Note_off_c, 0, 83, 0
2, 74880, Note_on_c, 0, 81, 69
2, 74972, Note_off_c, 0, 81, 0
2, 75456, Note_on_c, 0, 81, 67
2, 75548, Note_off_c, 0, 81, 0
2, 76032, Note_on_c, 0, 81, 65
2, 76416, Note_off_c, 0, 81, 0
2, 76512, Note_on_c, 0, 57, 65
2, 76608, Note_off_c, 0, 57, 0
2, 76608, Note_on_c, 0, 61, 65
2, 76700, Note_off_c, 0, 61, 0
2, 76704, Note_on_c, 0, 62, 65
2, 76784, Note_off_c, 0, 62, 0
2, 76800, Note_on_c, 0, 64, 65
2, 76988, Note_off_c, 0, 64, 0
2, 77280, Note_on_c, 0, 57, 65
2, 77376, Note_off_c, 0, 57, 0
2, 77376, Note_on_c, 0, 64, 65
2, 77468, Note_off_c, 0, 64, 0
2, 77472, Note_on_c, 0, 66, 65
2, 77552, Note_off_c, 0, 66, 0
2, 77568, Note_on_c, 0, 67, 65
2, 77756, Note_off_c, 0, 67, 0
2, 78048, Note_on_c, 0, 69, 65
2, 78144, Note_off_c, 0, 69, 0
2, 78144, Note_on_c, 0, 76, 65
2, 78144, Note_on_c, 0, 73, 65
2, 78236, Note_off_c, 0, 76, 0
2, 78236, Note_off_c, 0, 73, 0
2, 78240, Note_on_c, 0, 78, 65
2, 78240, Note_on_c, 0, 74, 65
2, 78320, Note_off_c, 0, 78, 0
2, 78320, Note_off_c, 0, 74, 0
2, 78336, Note_on_c, 0, 76, 65
2, 78336, Note_on_c, 0, 79, 65
2, 78356, Note_off_c, 0, 79, 0
2, 78360, Note_on_c, 0, 81, 65
2, 78380, Note_off_c, 0, 81, 0
2, 78384, Note_on_c, 0, 79, 65
2, 78404, Note_off_c, 0, 79, 0
2, 78408, Note_on_c, 0, 81, 65
2, 78428, Note_off_c, 0, 81, 0
2, 78432, Note_on_c, 0, 79, 65
2, 78452, Note_off_c, 0, 79, 0
2, 78456, Note_on_c, 0, 81, 65
2, 78476, Note_off_c, 0, 81, 0
2, 78480, Note_on_c, 0, 79, 65
2, 78500, Note_off_c, 0, 79, 0
2, 78504, Note_on_c, 0, 81, 65
2, 78524, Note_off_c, 0, 81, 0
2, 78528, Note_on_c, 0, 79, 65
2, 78548, Note_off_c, 0, 79, 0
2, 78552, Note_on_c, 0, 81, 65
2, 78572, Note_off_c, 0, 81, 0
2, 78576, Note_on_c, 0, 79, 65
2, 78596, Note_off_c, 0, 79, 0
2, 78600, Note_on_c, 0, 81, 65
2, 78620, Note_off_c, 0, 81, 0
2, 78624, Note_on_c, 0, 79, 65
2, 78644, Note_off_c, 0, 79, 0
2, 78672, Note_on_c, 0, 79, 65
2, 78692, Note_off_c, 0, 79, 0
2, 78696, Note_on_c, 0, 81, 65
2, 78716, Note_off_c, 0, 81, 0
2, 78720, Note_on_c, 0, 79, 65
2, 78740, Note_off_c, 0, 79, 0
2, 78744, Note_on_c, 0, 81, 65
2, 78764, Note_off_c, 0, 81, 0
2, 78768, Note_on_c, 0, 79, 65
2, 78788, Note_off_c, 0, 79, 0
2, 78792, Note_on_c, 0, 81, 65
2, 78812, Note_off_c, 0, 81, 0
2, 78816, Note_on_c, 0, 79, 65
2, 78836, Note_off_c, 0, 79, 0
2, 78840, Note_on_c, 0, 81, 65
2, 78860, Note_off_c, 0, 81, 0
2, 78864, Note_on_c, 0, 79, 65
2, 78884, Note_off_c, 0, 79, 0
2, 78888, Note_on_c, 0, 81, 65
2, 78908, Note_off_c, 0, 81, 0
2, 78912, Note_on_c, 0, 78, 65
2, 79000, Note_off_c, 0, 78, 0
2, 79008, Note_on_c, 0, 79, 65
2, 79096, Note_off_c, 0, 79, 0
2, 79100, Note_off_c, 0, 76, 0
2, 79104, Note_on_c, 0, 77, 65
2, 79148, Note_off_c, 0, 77, 0
2, 79152, Note_on_c, 0, 80, 65
2, 79172, Note_off_c, 0, 80, 0
2, 79176, Note_on_c, 0, 81, 65
2, 79196, Note_off_c, 0, 81, 0
2, 79200, Note_on_c, 0, 80, 65
2, 79220, Note_off_c, 0, 80, 0
2, 79224, Note_on_c, 0, 81, 65
2, 79244, Note_off_c, 0, 81, 0
2, 79248, Note_on_c, 0, 80, 65
2, 79268, Note_off_c, 0, 80, 0
2, 79272, Note_on_c, 0, 81, 65
2, 79292, Note_off_c, 0, 81, 0
2, 79296, Note_on_c, 0, 80, 65
2, 79316, Note_off_c, 0, 80, 0
2, 79320, Note_on_c, 0, 81, 65
2, 79340, Note_off_c, 0, 81, 0
2, 79344, Note_on_c, 0, 80, 65
2, 79364, Note_off_c, 0, 80, 0
2, 79368, Note_on_c, 0, 81, 65
2, 79388, Note_off_c, 0, 81, 0
2, 79392, Note_on_c, 0, 80, 65
2, 79412, Note_off_c, 0, 80, 0
2, 79416, Note_on_c, 0, 81, 65
2, 79436, Note_off_c, 0, 81, 0
2, 79440, Note_on_c, 0, 80, 70
2, 79484, Note_off_c, 0, 80, 0
2, 79632, Note_on_c, 0, 83, 75
2, 79684, Note_off_c, 0, 83, 0
2, 79692, Note_on_c, 0, 81, 65
2, 79820, Note_off_c, 0, 81, 0
2, 79824, Note_on_c, 0, 80, 75
2, 79868, Note_off_c, 0, 80, 0
2, 79872, Note_on_c, 0, 81, 65
2, 80052, Note_off_c, 0, 81, 0
2, 80064, Note_on_c, 0, 78, 65
2, 80160, Note_off_c, 0, 78, 0
2, 80256, Note_on_c, 0, 74, 65
2, 80348, Note_off_c, 0, 74, 0
2, 80448, Note_on_c, 0, 76, 65
2, 80628, Note_off_c, 0, 76, 0
2, 80640, Note_on_c, 0, 76, 65
2, 81024, Note_off_c, 0, 76, 0
2, 81024, Note_on_c, 0, 78, 65
2, 81204, Note_off_c, 0, 78, 0
2, 81216, Note_on_c, 0, 79, 65
2, 81360, Note_off_c, 0, 79, 0
2, 81360, Note_on_c, 0, 76, 75
2, 81404, Note_off_c, 0, 76, 0
2, 81408, Note_on_c, 0, 81, 65
2, 81588, Note_off_c, 0, 81, 0
2, 81600, Note_on_c, 0, 81, 65
2, 81792, Note_off_c, 0, 81, 0
2, 81792, Note_on_c, 0, 83, 65
2, 81972, Note_off_c, 0, 83, 0
2, 81984, Note_on_c, 0, 83, 65
2, 82176, Note_off_c, 0, 83, 0
2, 82176, Note_on_c, 0, 76, 65
2, 82356, Note_off_c, 0, 76, 0
2, 83904, Note_on_c, 0, 83, 85
2, 84284, Note_off_c, 0, 83, 0
2, 84288, Note_on_c, 0, 81, 85
2, 84432, Note_off_c, 0, 81, 0
2, 84432, Note_on_c, 0, 76, 95
2, 84468, Note_off_c, 0, 76, 0
2, 84480, Note_on_c, 0, 79, 75
2, 84672, Note_off_c, 0, 79, 0
2, 84672, Note_on_c, 0, 78, 70
2, 84852, Note_off_c, 0, 78, 0
2, 85056, Note_on_c, 0, 74, 65
2, 85200, Note_off_c, 0, 74, 0
2, 85200, Note_on_c, 0, 73, 75
2, 85236, Note_off_c, 0, 73, 0
2, 85248, Note_on_c, 0, 78, 65
2, 85440, Note_off_c, 0, 78, 0
2, 85440, Note_on_c, 0, 76, 65
2, 85724, Note_off_c, 0, 76, 0
2, 85728, Note_on_c, 0, 80, 65
2, 85820, Note_off_c, 0, 80, 0
2, 85824, Note_on_c, 0, 81, 65
2, 85964, Note_off_c, 0, 81, 0
2, 85968, Note_on_c, 0, 80, 75
2, 86004, Note_off_c, 0, 80, 0
2, 86016, Note_on_c, 0, 81, 65
2, 86096, Note_off_c, 0, 81, 0
2, 86208, Note_on_c, 0, 78, 65
2, 86304, Note_off_c, 0, 78, 0
2, 86400, Note_on_c, 0, 74, 65
2, 86492, Note_off_c, 0, 74, 0
2, 86592, Note_on_c, 0, 76, 65
2, 86672, Note_off_c, 0, 76, 0
2, 86784, Note_on_c, 0, 76, 65
2, 87168, Note_off_c, 0, 76, 0
2, 87168, Note_on_c, 0, 78, 65
2, 87348, Note_off_c, 0, 78, 0
2, 87360, Note_on_c, 0, 79, 65
2, 87504, Note_off_c, 0, 79, 0
2, 87504, Note_on_c, 0, 76, 75
2, 87540, Note_off_c, 0, 76, 0
2, 87552, Note_on_c, 0, 81, 65
2, 87732, Note_off_c, 0, 81, 0
2, 87744, Note_on_c, 0, 81, 65
2, 87936, Note_off_c, 0, 81, 0
2, 87936, Note_on_c, 0, 83, 65
2, 88116, Note_off_c, 0, 83, 0
2, 88128, Note_on_c, 0, 83, 65
2, 88320, Note_off_c, 0, 83, 0
2, 88320, Note_on_c, 0, 76, 65
2, 88500, Note_off_c, 0, 76, 0
2, 88896, Note_on_c, 0, 83, 63
2, 89040, Note_off_c, 0, 83, 0
2, 89040, Note_on_c, 0, 79, 60
2, 89076, Note_off_c, 0, 79, 0
2, 89088, Note_on_c, 0, 76, 58
2, 89268, Note_off_c, 0, 76, 0
2, 89664, Note_on_c, 0, 83, 55
2, 89712, Note_on_c, 0, 79, 55
2, 89716, Note_off_c, 0, 83, 0
2, 89760, Note_off_c, 0, 79, 0
2, 89760, Note_on_c, 0, 83, 55
2, 89808, Note_off_c, 0, 83, 0
2, 89808, Note_on_c, 0, 79, 55
2, 89856, Note_off_c, 0, 79, 0
2, 89856, Note_on_c, 0, 76, 55
2, 89936, Note_off_c, 0, 76, 0
2, 91200, Note_on_c, 0, 79, 75
2, 91292, Note_off_c, 0, 79, 0
2, 91392, Note_on_c, 0, 81, 75
2, 91484, Note_off_c, 0, 81, 0
2, 91584, Note_on_c, 0, 83, 75
2, 91676, Note_off_c, 0, 83, 0
2, 91776, Note_on_c, 0, 83, 85
2, 91828, Note_off_c, 0, 83, 0
2, 91832, Note_on_c, 0, 81, 75
2, 91884, Note_off_c, 0, 81, 0
2, 91968, Note_on_c, 0, 79, 75
2, 92060, Note_off_c, 0, 79, 0
2, 92160, Note_on_c, 0, 78, 75
2, 92252, Note_off_c, 0, 78, 0
2, 92352, Note_on_c, 0, 78, 85
2, 92404, Note_off_c, 0, 78, 0
2, 92412, Note_on_c, 0, 76, 75
2, 92464, Note_off_c, 0, 76, 0
2, 92544, Note_on_c, 0, 74, 75
2, 92636, Note_off_c, 0, 74, 0
2, 92736, Note_on_c, 0, 73, 75
2, 92828, Note_off_c, 0, 73, 0
2, 92928, Note_on_c, 0, 74, 75
2, 93020, Note_off_c, 0, 74, 0
2, 93120, Note_on_c, 0, 76, 75
2, 93212, Note_off_c, 0, 76, 0
2, 93312, Note_on_c, 0, 78, 75
2, 93404, Note_off_c, 0, 78, 0
2, 93504, Note_on_c, 0, 79, 75
2, 93596, Note_off_c, 0, 79, 0
2, 93696, Note_on_c, 0, 81, 75
2, 93788, Note_off_c, 0, 81, 0
2, 93888, Note_on_c, 0, 83, 75
2, 93980, Note_off_c, 0, 83, 0
2, 94080, Note_on_c, 0, 83, 85
2, 94132, Note_off_c, 0, 83, 0
2, 94136, Note_on_c, 0, 81, 75
2, 94188, Note_off_c, 0, 81, 0
2, 94272, Note_on_c, 0, 79, 75
2, 94364, Note_off_c, 0, 79, 0
2, 94464, Note_on_c, 0, 78, 75
2, 94556, Note_off_c, 0, 78, 0
2, 94656, Note_on_c, 0, 78, 85
2, 94708, Note_off_c, 0, 78, 0
2, 94716, Note_on_c, 0, 76, 75
2, 94768, Note_off_c, 0, 76, 0
2, 94848, Note_on_c, 0, 74, 75
2, 94940, Note_off_c, 0, 74, 0
2, 95040, Note_on_c, 0, 73, 75
2, 95132, Note_off_c, 0, 73, 0
2, 95232, Note_on_c, 0, 74, 75
2, 95616, Note_off_c, 0, 74, 0
2, 95808, Note_on_c, 0, 79, 75
2, 96192, Note_off_c, 0, 79, 0
2, 96192, Note_on_c, 0, 78, 75
2, 96284, Note_off_c, 0, 78, 0
2, 96288, Note_on_c, 0, 76, 75
2, 96368, Note_off_c, 0, 76, 0
2, 96384, Note_on_c, 0, 74, 75
2, 96480, Note_off_c, 0, 74, 0
2, 96576, Note_on_c, 0, 74, 75
2, 96668, Note_off_c, 0, 74, 0
2, 96768, Note_on_c, 0, 74, 75
2, 96848, Note_off_c, 0, 74, 0
2, 96960, Note_on_c, 0, 79, 75
2, 97344, Note_off_c, 0, 79, 0
2, 97344, Note_on_c, 0, 78, 75
2, 97436, Note_off_c, 0, 78, 0
2, 97440, Note_on_c, 0, 76, 75
2, 97520, Note_off_c, 0, 76, 0
2, 97536, Note_on_c, 0, 74, 75
2, 97724, Note_off_c, 0, 74, 0
2, 98112, Note_on_c, 0, 81, 75
2, 98164, Note_off_c, 0, 81, 0
2, 98172, Note_on_c, 0, 79, 65
2, 98496, Note_on_c, 0, 78, 65
2, 98508, Note_off_c, 0, 79, 0
2, 98588, Note_off_c, 0, 78, 0
2, 98592, Note_on_c, 0, 76, 65
2, 98672, Note_off_c, 0, 76, 0
2, 98688, Note_on_c, 0, 76, 75
2, 98740, Note_off_c, 0, 76, 0
2, 98744, Note_on_c, 0, 74, 65
2, 98796, Note_off_c, 0, 74, 0
2, 98880, Note_on_c, 0, 74, 65
2, 98972, Note_off_c, 0, 74, 0
2, 99072, Note_on_c, 0, 74, 65
2, 99152, Note_off_c, 0, 74, 0
2, 99264, Note_on_c, 0, 81, 75
2, 99316, Note_off_c, 0, 81, 0
2, 99324, Note_on_c, 0, 79, 65
2, 99648, Note_on_c, 0, 78, 65
2, 99660, Note_off_c, 0, 79, 0
2, 99740, Note_off_c, 0, 78, 0
2, 99744, Note_on_c, 0, 76, 65
2, 99824, Note_off_c, 0, 76, 0
2, 99840, Note_on_c, 0, 74, 65
2, 99932, Note_off_c, 0, 74, 0
2, 100416, Note_on_c, 0, 86, 75
2, 100512, Note_off_c, 0, 86, 0
2, 100608, Note_on_c, 0, 85, 75
2, 100700, Note_off_c, 0, 85, 0
2, 100800, Note_on_c, 0, 83, 75
2, 100880, Note_off_c, 0, 83, 0
2, 100992, Note_on_c, 0, 80, 85
2, 101376, Note_off_c, 0, 80, 0
2, 101376, Note_on_c, 0, 81, 65
2, 101556, Note_off_c, 0, 81, 0
2, 101568, Note_on_c, 0, 83, 65
2, 101664, Note_off_c, 0, 83, 0
2, 101760, Note_on_c, 0, 81, 65
2, 101852, Note_off_c, 0, 81, 0
2, 101952, Note_on_c, 0, 79, 65
2, 102032, Note_off_c, 0, 79, 0
2, 102144, Note_on_c, 0, 77, 85
2, 102528, Note_off_c, 0, 77, 0
2, 102528, Note_on_c, 0, 78, 65
2, 102708, Note_off_c, 0, 78, 0
2, 102720, Note_on_c, 0, 83, 65
2, 102776, Note_off_c, 0, 83, 0
2, 102816, Note_on_c, 0, 81, 65
2, 102856, Note_off_c, 0, 81, 0
2, 102912, Note_on_c, 0, 79, 65
2, 102956, Note_off_c, 0, 79, 0
2, 103008, Note_on_c, 0, 78, 65
2, 103052, Note_off_c, 0, 78, 0
2, 103104, Note_on_c, 0, 76, 65
2, 103148, Note_off_c, 0, 76, 0
2, 103200, Note_on_c, 0, 74, 65
2, 103244, Note_off_c, 0, 74, 0
2, 103296, Note_on_c, 0, 73, 65
2, 103392, Note_off_c, 0, 73, 0
2, 103392, Note_on_c, 0, 71, 65
2, 103472, Note_off_c, 0, 71, 0
2, 103488, Note_on_c, 0, 76, 65
2, 103584, Note_off_c, 0, 76, 0
2, 103584, Note_on_c, 0, 74, 65
2, 103664, Note_off_c, 0, 74, 0
2, 103680, Note_on_c, 0, 78, 65
2, 103776, Note_off_c, 0, 78, 0
2, 103776, Note_on_c, 0, 76, 65
2, 103856, Note_off_c, 0, 76, 0
2, 103872, Note_on_c, 0, 79, 65
2, 104160, Note_off_c, 0, 79, 0
2, 104160, Note_on_c, 0, 76, 65
2, 104252, Note_off_c, 0, 76, 0
2, 104256, Note_on_c, 0, 79, 65
2, 104348, Note_off_c, 0, 79, 0
2, 104352, Note_on_c, 0, 76, 65
2, 104432, Note_off_c, 0, 76, 0
2, 104448, Note_on_c, 0, 74, 65
2, 104636, Note_off_c, 0, 74, 0
2, 105024, Note_on_c, 0, 84, 75
2, 105312, Note_off_c, 0, 84, 0
2, 105312, Note_on_c, 0, 81, 65
2, 105404, Note_off_c, 0, 81, 0
2, 105408, Note_on_c, 0, 84, 65
2, 105500, Note_off_c, 0, 84, 0
2, 105504, Note_on_c, 0, 81, 65
2, 105584, Note_off_c, 0, 81, 0
2, 105600, Note_on_c, 0, 79, 65
2, 105792, Note_off_c, 0, 79, 0
2, 105792, Note_on_c, 0, 83, 65
2, 105972, Note_off_c, 0, 83, 0
2, 106176, Note_on_c, 0, 81, 75
2, 106464, Note_off_c, 0, 81, 0
2, 106464, Note_on_c, 0, 78, 65
2, 106556, Note_off_c, 0, 78, 0
2, 106560, Note_on_c, 0, 81, 65
2, 106652, Note_off_c, 0, 81, 0
2, 106656, Note_on_c, 0, 78, 65
2, 106736, Note_off_c, 0, 78, 0
2, 106752, Note_on_c, 0, 76, 65
2, 106940, Note_off_c, 0, 76, 0
2, 107328, Note_on_c, 0, 82, 75
2, 107616, Note_off_c, 0, 82, 0
2, 107616, Note_on_c, 0, 79, 65
2, 107708, Note_off_c, 0, 79, 0
2, 107712, Note_on_c, 0, 82, 65
2, 107804, Note_off_c, 0, 82, 0
2, 107808, Note_on_c, 0, 79, 65
2, 107888, Note_off_c, 0, 79, 0
2, 107904, Note_on_c, 0, 78, 65
2, 108096, Note_off_c, 0, 78, 0
2, 108096, Note_on_c, 0, 81, 65
2, 108276, Note_off_c, 0, 81, 0
2, 108480, Note_on_c, 0, 79, 75
2, 108768, Note_off_c, 0, 79, 0
2, 108768, Note_on_c, 0, 76, 65
2, 108860, Note_off_c, 0, 76, 0
2, 108864, Note_on_c, 0, 79, 65
2, 108956, Note_off_c, 0, 79, 0
2, 108960, Note_on_c, 0, 76, 65
2, 109040, Note_off_c, 0, 76, 0
2, 109056, Note_on_c, 0, 74, 65
2, 109244, Note_off_c, 0, 74, 0
2, 109632, Note_on_c, 0, 78, 75
2, 109920, Note_off_c, 0, 78, 0
2, 109920, Note_on_c, 0, 74, 65
2, 110012, Note_off_c, 0, 74, 0
2, 110016, Note_on_c, 0, 78, 65
2, 110108, Note_off_c, 0, 78, 0
2, 110112, Note_on_c, 0, 74, 65
2, 110192, Note_off_c, 0, 74, 0
2, 110208, Note_on_c, 0, 71, 70
2, 110304, Note_off_c, 0, 71, 0
2, 110304, Note_on_c, 0, 72, 65
2, 110384, Note_off_c, 0, 72, 0
2, 110784, Note_on_c, 0, 76, 70
2, 110880, Note_off_c, 0, 76, 0
2, 110880, Note_on_c, 0, 75, 65
2, 110960, Note_off_c, 0, 75, 0
2, 111360, Note_on_c, 0, 78, 70
2, 111456, Note_off_c, 0, 78, 0
2, 111456, Note_on_c, 0, 76, 65
2, 111536, Note_off_c, 0, 76, 0
2, 111936, Note_on_c, 0, 78, 70
2, 112032, Note_off_c, 0, 78, 0
2, 112032, Note_on_c, 0, 77, 65
2, 112112, Note_off_c, 0, 77, 0
2, 112512, Note_on_c, 0, 77, 70
2, 112608, Note_off_c, 0, 77, 0
2, 112608, Note_on_c, 0, 78, 65
2, 112688, Note_off_c, 0, 78, 0
2, 113664, Note_on_c, 0, 74, 85
2, 113760, Note_off_c, 0, 74, 0
2, 113760, Note_on_c, 0, 78, 85
2, 113840, Note_off_c, 0, 78, 0
2, 113856, Note_on_c, 0, 83, 85
2, 113940, Note_off_c, 0, 83, 0
2, 113952, Note_on_c, 0, 78, 85
2, 114036, Note_off_c, 0, 78, 0
2, 114048, Note_on_c, 0, 86, 85
2, 114132, Note_off_c, 0, 86, 0
2, 114144, Note_on_c, 0, 83, 85
2, 114228, Note_off_c, 0, 83, 0
2, 114240, Note_on_c, 0, 82, 85
2, 114336, Note_off_c, 0, 82, 0
2, 114336, Note_on_c, 0, 85, 85
2, 114416, Note_off_c, 0, 85, 0
2, 114432, Note_on_c, 0, 88, 85
2, 114516, Note_off_c, 0, 88, 0
2, 114528, Note_on_c, 0, 85, 85
2, 114612, Note_off_c, 0, 85, 0
2, 114624, Note_on_c, 0, 88, 85
2, 114708, Note_off_c, 0, 88, 0
2, 114720, Note_on_c, 0, 85, 85
2, 114804, Note_off_c, 0, 85, 0
2, 114816, Note_on_c, 0, 83, 85
2, 114912, Note_off_c, 0, 83, 0
2, 114912, Note_on_c, 0, 86, 85
2, 114992, Note_off_c, 0, 86, 0
2, 115008, Note_on_c, 0, 90, 85
2, 115092, Note_off_c, 0, 90, 0
2, 115104, Note_on_c, 0, 86, 85
2, 115188, Note_off_c, 0, 86, 0
2, 115200, Note_on_c, 0, 90, 85
2, 115284, Note_off_c, 0, 90, 0
2, 115296, Note_on_c, 0, 86, 85
2, 115380, Note_off_c, 0, 86, 0
2, 115392, Note_on_c, 0, 85, 85
2, 115488, Note_off_c, 0, 85, 0
2, 115488, Note_on_c, 0, 88, 85
2, 115568, Note_off_c, 0, 88, 0
2, 115584, Note_on_c, 0, 91, 85
2, 115668, Note_off_c, 0, 91, 0
2, 115680, Note_on_c, 0, 88, 85
2, 115764, Note_off_c, 0, 88, 0
2, 115776, Note_on_c, 0, 91, 85
2, 115860, Note_off_c, 0, 91, 0
2, 115872, Note_on_c, 0, 88, 85
2, 115956, Note_off_c, 0, 88, 0
2, 115968, Note_on_c, 0, 86, 90
2, 116016, Note_off_c, 0, 86, 0
2, 116064, Note_on_c, 0, 90, 70
2, 116112, Note_off_c, 0, 90, 0
2, 116160, Note_on_c, 0, 83, 70
2, 116208, Note_off_c, 0, 83, 0
2, 116256, Note_on_c, 0, 86, 70
2, 116304, Note_off_c, 0, 86, 0
2, 116352, Note_on_c, 0, 85, 70
2, 116400, Note_off_c, 0, 85, 0
2, 116448, Note_on_c, 0, 88, 70
2, 116496, Note_off_c, 0, 88, 0
2, 116544, Note_on_c, 0, 82, 70
2, 116592, Note_off_c, 0, 82, 0
2, 116640, Note_on_c, 0, 85, 70
2, 116688, Note_off_c, 0, 85, 0
2, 116736, Note_on_c, 0, 83, 70
2, 116784, Note_off_c, 0, 83, 0
2, 116832, Note_on_c, 0, 86, 70
2, 116880, Note_off_c, 0, 86, 0
2, 116928, Note_on_c, 0, 79, 70
2, 116976, Note_off_c, 0, 79, 0
2, 117024, Note_on_c, 0, 83, 70
2, 117072, Note_off_c, 0, 83, 0
2, 117120, Note_on_c, 0, 81, 70
2, 117168, Note_off_c, 0, 81, 0
2, 117216, Note_on_c, 0, 84, 70
2, 117264, Note_off_c, 0, 84, 0
2, 117312, Note_on_c, 0, 78, 70
2, 117360, Note_off_c, 0, 78, 0
2, 117408, Note_on_c, 0, 81, 70
2, 117456, Note_off_c, 0, 81, 0
2, 117504, Note_on_c, 0, 79, 70
2, 117552, Note_off_c, 0, 79, 0
2, 117600, Note_on_c, 0, 83, 70
2, 117648, Note_off_c, 0, 83, 0
2, 117696, Note_on_c, 0, 76, 70
2, 117744, Note_off_c, 0, 76, 0
2, 117792, Note_on_c, 0, 79, 70
2, 117840, Note_off_c, 0, 79, 0
2, 117888, Note_on_c, 0, 78, 70
2, 117936, Note_off_c, 0, 78, 0
2, 117984, Note_on_c, 0, 81, 70
2, 118032, Note_off_c, 0, 81, 0
2, 118080, Note_on_c, 0, 75, 70
2, 118128, Note_off_c, 0, 75, 0
2, 118176, Note_on_c, 0, 78, 70
2, 118224, Note_off_c, 0, 78, 0
2, 118272, Note_on_c, 0, 64, 85
2, 118368, Note_off_c, 0, 64, 0
2, 118368, Note_on_c, 0, 67, 85
2, 118448, Note_off_c, 0, 67, 0
2, 118464, Note_on_c, 0, 71, 85
2, 118548, Note_off_c, 0, 71, 0
2, 118560, Note_on_c, 0, 76, 85
2, 118644, Note_off_c, 0, 76, 0
2, 118656, Note_on_c, 0, 79, 85
2, 118740, Note_off_c, 0, 79, 0
2, 118752, Note_on_c, 0, 76, 85
2, 118836, Note_off_c, 0, 76, 0
2, 118848, Note_on_c, 0, 75, 85
2, 118944, Note_off_c, 0, 75, 0
2, 118944, Note_on_c, 0, 78, 85
2, 119024, Note_off_c, 0, 78, 0
2, 119040, Note_on_c, 0, 81, 85
2, 119124, Note_off_c, 0, 81, 0
2, 119136, Note_on_c, 0, 78, 85
2, 119220, Note_off_c, 0, 78, 0
2, 119232, Note_on_c, 0, 81, 85
2, 119316, Note_off_c, 0, 81, 0
2, 119328, Note_on_c, 0, 78, 85
2, 119412, Note_off_c, 0, 78, 0
2, 119424, Note_on_c, 0, 76, 85
2, 119520, Note_off_c, 0, 76, 0
2, 119520, Note_on_c, 0, 79, 85
2, 119600, Note_off_c, 0, 79, 0
2, 119616, Note_on_c, 0, 83, 85
2, 119700, Note_off_c, 0, 83, 0
2, 119712, Note_on_c, 0, 79, 85
2, 119796, Note_off_c, 0, 79, 0
2, 119808, Note_on_c, 0, 83, 85
2, 119892, Note_off_c, 0, 83, 0
2, 119904, Note_on_c, 0, 79, 85
2, 119988, Note_off_c, 0, 79, 0
2, 120000, Note_on_c, 0, 78, 85
2, 120096, Note_off_c, 0, 78, 0
2, 120096, Note_on_c, 0, 81, 85
2, 120176, Note_off_c, 0, 81, 0
2, 120192, Note_on_c, 0, 84, 85
2, 120276, Note_off_c, 0, 84, 0
2, 120288, Note_on_c, 0, 81, 85
2, 120372, Note_off_c, 0, 81, 0
2, 120384, Note_on_c, 0, 84, 85
2, 120468, Note_off_c, 0, 84, 0
2, 120480, Note_on_c, 0, 81, 85
2, 120564, Note_off_c, 0, 81, 0
2, 120576, Note_on_c, 0, 79, 90
2, 120624, Note_off_c, 0, 79, 0
2, 120672, Note_on_c, 0, 83, 70
2, 120720, Note_off_c, 0, 83, 0
2, 120768, Note_on_c, 0, 76, 70
2, 120816, Note_off_c, 0, 76, 0
2, 120864, Note_on_c, 0, 79, 70
2, 120912, Note_off_c, 0, 79, 0
2, 120960, Note_on_c, 0, 78, 70
2, 121008, Note_off_c, 0, 78, 0
2, 121056, Note_on_c, 0, 81, 70
2, 121104, Note_off_c, 0, 81, 0
2, 121152, Note_on_c, 0, 75, 70
2, 121200, Note_off_c, 0, 75, 0
2, 121248, Note_on_c, 0, 78, 70
2, 121296, Note_off_c, 0, 78, 0
2, 121344, Note_on_c, 0, 76, 70
2, 121392, Note_off_c, 0, 76, 0
2, 121440, Note_on_c, 0, 80, 70
2, 121488, Note_off_c, 0, 80, 0
2, 121536, Note_on_c, 0, 73, 70
2, 121584, Note_off_c, 0, 73, 0
2, 121632, Note_on_c, 0, 76, 70
2, 121680, Note_off_c, 0, 76, 0
2, 121728, Note_on_c, 0, 74, 70
2, 121776, Note_off_c, 0, 74, 0
2, 121824, Note_on_c, 0, 78, 70
2, 121872, Note_off_c, 0, 78, 0
2, 121920, Note_on_c, 0, 71, 70
2, 121968, Note_off_c, 0, 71, 0
2, 122016, Note_on_c, 0, 74, 70
2, 122064, Note_off_c, 0, 74, 0
2, 122112, Note_on_c, 0, 73, 70
2, 122160, Note_off_c, 0, 73, 0
2, 122208, Note_on_c, 0, 76, 70
2, 122256, Note_off_c, 0, 76, 0
2, 122304, Note_on_c, 0, 69, 70
2, 122352, Note_off_c, 0, 69, 0
2, 122400, Note_on_c, 0, 73, 70
2, 122448, Note_off_c, 0, 73, 0
2, 122496, Note_on_c, 0, 71, 70
2, 122544, Note_off_c, 0, 71, 0
2, 122592, Note_on_c, 0, 74, 70
2, 122640, Note_off_c, 0, 74, 0
2, 122688, Note_on_c, 0, 68, 70
2, 122736, Note_off_c, 0, 68, 0
2, 122784, Note_on_c, 0, 71, 70
2, 122832, Note_off_c, 0, 71, 0
2, 122880, Note_on_c, 0, 69, 85
2, 122976, Note_off_c, 0, 69, 0
2, 122976, Note_on_c, 0, 73, 85
2, 123056, Note_off_c, 0, 73, 0
2, 123072, Note_on_c, 0, 76, 85
2, 123156, Note_off_c, 0, 76, 0
2, 123168, Note_on_c, 0, 81, 85
2, 123252, Note_off_c, 0, 81, 0
2, 123264, Note_on_c, 0, 85, 85
2, 123348, Note_off_c, 0, 85, 0
2, 123360, Note_on_c, 0, 81, 85
2, 123444, Note_off_c, 0, 81, 0
2, 123456, Note_on_c, 0, 80, 85
2, 123552, Note_off_c, 0, 80, 0
2, 123552, Note_on_c, 0, 83, 85
2, 123632, Note_off_c, 0, 83, 0
2, 123648, Note_on_c, 0, 86, 85
2, 123732, Note_off_c, 0, 86, 0
2, 123744, Note_on_c, 0, 83, 85
2, 123828, Note_off_c, 0, 83, 0
2, 123840, Note_on_c, 0, 86, 85
2, 123924, Note_off_c, 0, 86, 0
2, 123936, Note_on_c, 0, 83, 85
2, 124020, Note_off_c, 0, 83, 0
2, 124032, Note_on_c, 0, 81, 85
2, 124128, Note_off_c, 0, 81, 0
2, 124128, Note_on_c, 0, 85, 85
2, 124208, Note_off_c, 0, 85, 0
2, 124224, Note_on_c, 0, 88, 85
2, 124308, Note_off_c, 0, 88, 0
2, 124320, Note_on_c, 0, 85, 85
2, 124404, Note_off_c, 0, 85, 0
2, 124416, Note_on_c, 0, 88, 85
2, 124500, Note_off_c, 0, 88, 0
2, 124512, Note_on_c, 0, 85, 85
2, 124596, Note_off_c, 0, 85, 0
2, 124608, Note_on_c, 0, 83, 85
2, 124704, Note_off_c, 0, 83, 0
2, 124704, Note_on_c, 0, 86, 85
2, 124784, Note_off_c, 0, 86, 0
2, 124800, Note_on_c, 0, 90, 85
2, 124884, Note_off_c, 0, 90, 0
2, 124896, Note_on_c, 0, 86, 85
2, 124980, Note_off_c, 0, 86, 0
2, 124992, Note_on_c, 0, 90, 85
2, 125076, Note_off_c, 0, 90, 0
2, 125088, Note_on_c, 0, 86, 85
2, 125172, Note_off_c, 0, 86, 0
2, 125184, Note_on_c, 0, 85, 90
2, 125232, Note_off_c, 0, 85, 0
2, 125280, Note_on_c, 0, 88, 70
2, 125328, Note_off_c, 0, 88, 0
2, 125376, Note_on_c, 0, 81, 70
2, 125424, Note_off_c, 0, 81, 0
2, 125472, Note_on_c, 0, 85, 70
2, 125520, Note_off_c, 0, 85, 0
2, 125568, Note_on_c, 0, 83, 70
2, 125616, Note_off_c, 0, 83, 0
2, 125664, Note_on_c, 0, 86, 70
2, 125712, Note_off_c, 0, 86, 0
2, 125760, Note_on_c, 0, 80, 70
2, 125808, Note_off_c, 0, 80, 0
2, 125856, Note_on_c, 0, 83, 70
2, 125904, Note_off_c, 0, 83, 0
2, 125952, Note_on_c, 0, 81, 70
2, 126000, Note_off_c, 0, 81, 0
2, 126048, Note_on_c, 0, 85, 70
2, 126096, Note_off_c, 0, 85, 0
2, 126144, Note_on_c, 0, 78, 70
2, 126192, Note_off_c, 0, 78, 0
2, 126240, Note_on_c, 0, 81, 70
2, 126288, Note_off_c, 0, 81, 0
2, 126336, Note_on_c, 0, 79, 70
2, 126384, Note_off_c, 0, 79, 0
2, 126432, Note_on_c, 0, 83, 70
2, 126480, Note_off_c, 0, 83, 0
2, 126528, Note_on_c, 0, 76, 70
2, 126576, Note_off_c, 0, 76, 0
2, 126624, Note_on_c, 0, 79, 70
2, 126672, Note_off_c, 0, 79, 0
2, 126720, Note_on_c, 0, 78, 70
2, 126768, Note_off_c, 0, 78, 0
2, 126816, Note_on_c, 0, 81, 70
2, 126864, Note_off_c, 0, 81, 0
2, 126912, Note_on_c, 0, 74, 70
2, 126960, Note_off_c, 0, 74, 0
2, 127008, Note_on_c, 0, 78, 70
2, 127056, Note_off_c, 0, 78, 0
2, 127104, Note_on_c, 0, 76, 70
2, 127152, Note_off_c, 0, 76, 0
2, 127200, Note_on_c, 0, 79, 70
2, 127248, Note_off_c, 0, 79, 0
2, 127296, Note_on_c, 0, 73, 70
2, 127344, Note_off_c, 0, 73, 0
2, 127392, Note_on_c, 0, 76, 70
2, 127440, Note_off_c, 0, 76, 0
2, 127488, Note_on_c, 0, 74, 65
2, 127680, Note_off_c, 0, 74, 0
2, 127680, Note_on_c, 0, 72, 65
2, 127860, Note_off_c, 0, 72, 0
2, 127872, Note_on_c, 0, 72, 65
2, 128052, Note_off_c, 0, 72, 0
2, 128064, Note_on_c, 0, 72, 75
2, 128120, Note_off_c, 0, 72, 0
2, 128124, Note_on_c, 0, 74, 75
2, 128180, Note_off_c, 0, 74, 0
2, 128192, Note_on_c, 0, 76, 65
2, 128448, Note_off_c, 0, 76, 0
2, 128448, Note_on_c, 0, 74, 65
2, 128540, Note_off_c, 0, 74, 0
2, 128544, Note_on_c, 0, 72, 65
2, 128624, Note_off_c, 0, 72, 0
2, 128640, Note_on_c, 0, 71, 65
2, 128832, Note_off_c, 0, 71, 0
2, 128832, Note_on_c, 0, 74, 65
2, 129020, Note_off_c, 0, 74, 0
2, 129024, Note_on_c, 0, 79, 65
2, 129204, Note_off_c, 0, 79, 0
2, 129216, Note_on_c, 0, 83, 65
2, 129408, Note_off_c, 0, 83, 0
2, 129408, Note_on_c, 0, 86, 65
2, 129588, Note_off_c, 0, 86, 0
2, 129792, Note_on_c, 0, 62, 75
2, 129984, Note_off_c, 0, 62, 0
2, 129984, Note_on_c, 0, 60, 75
2, 130164, Note_off_c, 0, 60, 0
2, 130176, Note_on_c, 0, 60, 75
2, 130356, Note_off_c, 0, 60, 0
2, 130368, Note_on_c, 0, 60, 85
2, 130428, Note_off_c, 0, 60, 0
2, 130432, Note_on_c, 0, 62, 85
2, 130492, Note_off_c, 0, 62, 0
2, 130496, Note_on_c, 0, 64, 75
2, 130752, Note_off_c, 0, 64, 0
2, 130752, Note_on_c, 0, 62, 75
2, 130844, Note_off_c, 0, 62, 0
2, 130848, Note_on_c, 0, 60, 75
2, 130928, Note_off_c, 0, 60, 0
2, 130944, Note_on_c, 0, 59, 75
2, 131136, Note_off_c, 0, 59, 0
2, 131136, Note_on_c, 0, 62, 75
2, 131324, Note_off_c, 0, 62, 0
2, 131328, Note_on_c, 0, 67, 75
2, 131508, Note_off_c, 0, 67, 0
2, 131520, Note_on_c, 0, 71, 75
2, 131712, Note_off_c, 0, 71, 0
2, 131712, Note_on_c, 0, 74, 75
2, 131892, Note_off_c, 0, 74, 0
2, 132096, Note_on_c, 0, 58, 60
2, 132288, Note_off_c, 0, 58, 0
2, 132288, Note_on_c, 0, 62, 60
2, 132476, Note_off_c, 0, 62, 0
2, 132480, Note_on_c, 0, 67, 62
2, 132660, Note_off_c, 0, 67, 0
2, 132672, Note_on_c, 0, 70, 62
2, 132864, Note_off_c, 0, 70, 0
2, 132864, Note_on_c, 0, 74, 64
2, 133044, Note_off_c, 0, 74, 0
2, 133248, Note_on_c, 0, 73, 64
2, 133820, Note_off_c, 0, 73, 0
2, 133824, Note_on_c, 0, 70, 65
2, 134400, Note_off_c, 0, 70, 0
2, 134400, Note_on_c, 0, 69, 65
2, 134972, Note_off_c, 0, 69, 0
2, 134976, Note_on_c, 0, 67, 65
2, 135540, Note_off_c, 0, 67, 0
2, 135552, Note_on_c, 0, 66, 70
2, 135744, Note_off_c, 0, 66, 0
2, 135744, Note_on_c, 0, 67, 70
2, 135932, Note_off_c, 0, 67, 0
2, 135936, Note_on_c, 0, 69, 69
2, 136116, Note_off_c, 0, 69, 0
2, 136128, Note_on_c, 0, 70, 68
2, 136320, Note_off_c, 0, 70, 0
2, 136320, Note_on_c, 0, 69, 67
2, 136508, Note_off_c, 0, 69, 0
2, 136512, Note_on_c, 0, 67, 67
2, 136692, Note_off_c, 0, 67, 0
2, 136704, Note_on_c, 0, 66, 66
2, 136896, Note_off_c, 0, 66, 0
2, 136896, Note_on_c, 0, 67, 65
2, 137084, Note_off_c, 0, 67, 0
2, 137088, Note_on_c, 0, 69, 64
2, 137268, Note_off_c, 0, 69, 0
2, 137280, Note_on_c, 0, 70, 64
2, 137472, Note_off_c, 0, 70, 0
2, 137472, Note_on_c, 0, 69, 63
2, 137660, Note_off_c, 0, 69, 0
2, 137664, Note_on_c, 0, 67, 62
2, 137844, Note_off_c, 0, 67, 0
2, 137856, Note_on_c, 0, 66, 61
2, 138048, Note_off_c, 0, 66, 0
2, 138048, Note_on_c, 0, 69, 61
2, 138236, Note_off_c, 0, 69, 0
2, 138240, Note_on_c, 0, 73, 60
2, 138420, Note_off_c, 0, 73, 0
2, 138432, Note_on_c, 0, 74, 59
2, 138816, Note_off_c, 0, 74, 0
2, 138816, Note_on_c, 0, 74, 58
2, 138944, Note_off_c, 0, 74, 0
2, 139008, Note_on_c, 0, 74, 57
2, 139392, Note_off_c, 0, 74, 0
2, 139776, Note_on_c, 0, 71, 65
2, 139968, Note_off_c, 0, 71, 0
2, 140160, Note_on_c, 0, 72, 65
2, 140340, Note_off_c, 0, 72, 0
2, 140544, Note_on_c, 0, 74, 65
2, 140928, Note_off_c, 0, 74, 0
2, 140928, Note_on_c, 0, 76, 65
2, 141300, Note_off_c, 0, 76, 0
2, 141312, Note_on_c, 0, 69, 65
2, 141504, Note_off_c, 0, 69, 0
2, 141696, Note_on_c, 0, 71, 65
2, 141876, Note_off_c, 0, 71, 0
2, 142080, Note_on_c, 0, 72, 65
2, 142464, Note_off_c, 0, 72, 0
2, 142464, Note_on_c, 0, 74, 65
2, 142836, Note_off_c, 0, 74, 0
2, 142848, Note_on_c, 0, 67, 65
2, 143040, Note_off_c, 0, 67, 0
2, 143232, Note_on_c, 0, 69, 65
2, 143412, Note_off_c, 0, 69, 0
2, 143616, Note_on_c, 0, 71, 70
2, 144000, Note_off_c, 0, 71, 0
2, 144000, Note_on_c, 0, 72, 78
2, 144384, Note_off_c, 0, 72, 0
2, 144384, Note_on_c, 0, 76, 85
2, 144576, Note_off_c, 0, 76, 0
2, 144576, Note_on_c, 0, 74, 85
2, 144756, Note_off_c, 0, 74, 0
2, 144768, Note_on_c, 0, 72, 78
2, 144960, Note_on_c, 0, 71, 70
2, 144964, Note_off_c, 0, 72, 0
2, 145152, Note_off_c, 0, 71, 0
2, 145152, Note_on_c, 0, 71, 65
2, 145536, Note_off_c, 0, 71, 0
2, 145536, Note_on_c, 0, 69, 65
2, 145908, Note_off_c, 0, 69, 0
2, 145920, Note_on_c, 0, 71, 65
2, 146112, Note_off_c, 0, 71, 0
2, 146304, Note_on_c, 0, 72, 65
2, 146484, Note_off_c, 0, 72, 0
2, 146688, Note_on_c, 0, 74, 65
2, 146880, Note_off_c, 0, 74, 0
2, 146880, Note_on_c, 0, 75, 65
2, 147068, Note_off_c, 0, 75, 0
2, 147072, Note_on_c, 0, 76, 65
2, 147444, Note_off_c, 0, 76, 0
2, 147456, Note_on_c, 0, 69, 65
2, 147648, Note_off_c, 0, 69, 0
2, 147840, Note_on_c, 0, 71, 65
2, 148020, Note_off_c, 0, 71, 0
2, 148224, Note_on_c, 0, 72, 65
2, 148416, Note_off_c, 0, 72, 0
2, 148416, Note_on_c, 0, 73, 65
2, 148604, Note_off_c, 0, 73, 0
2, 148608, Note_on_c, 0, 74, 65
2, 148980, Note_off_c, 0, 74, 0
2, 148992, Note_on_c, 0, 67, 65
2, 149184, Note_off_c, 0, 67, 0
2, 149376, Note_on_c, 0, 69, 65
2, 149556, Note_off_c, 0, 69, 0
2, 149760, Note_on_c, 0, 70, 65
2, 149952, Note_off_c, 0, 70, 0
2, 149952, Note_on_c, 0, 71, 65
2, 150140, Note_off_c, 0, 71, 0
2, 150144, Note_on_c, 0, 72, 65
2, 150332, Note_off_c, 0, 72, 0
2, 150336, Note_on_c, 0, 69, 65
2, 150516, Note_off_c, 0, 69, 0
2, 150528, Note_on_c, 0, 69, 65
2, 150572, Note_off_c, 0, 69, 0
2, 150576, Note_on_c, 0, 71, 65
2, 150620, Note_off_c, 0, 71, 0
2, 150624, Note_on_c, 0, 69, 65
2, 150668, Note_off_c, 0, 69, 0
2, 150672, Note_on_c, 0, 71, 65
2, 150716, Note_off_c, 0, 71, 0
2, 150720, Note_on_c, 0, 69, 65
2, 150764, Note_off_c, 0, 69, 0
2, 150768, Note_on_c, 0, 71, 65
2, 150812, Note_off_c, 0, 71, 0
2, 150816, Note_on_c, 0, 69, 65
2, 150860, Note_off_c, 0, 69, 0
2, 150864, Note_on_c, 0, 71, 65
2, 150908, Note_off_c, 0, 71, 0
2, 150912, Note_on_c, 0, 69, 65
2, 150956, Note_off_c, 0, 69, 0
2, 150960, Note_on_c, 0, 71, 65
2, 151004, Note_off_c, 0, 71, 0
2, 151008, Note_on_c, 0, 69, 65
2, 151052, Note_off_c, 0, 69, 0
2, 151056, Note_on_c, 0, 71, 65
2, 151100, Note_off_c, 0, 71, 0
2, 151104, Note_on_c, 0, 67, 65
2, 151192, Note_off_c, 0, 67, 0
2, 151200, Note_on_c, 0, 69, 65
2, 151288, Note_off_c, 0, 69, 0
2, 151296, Note_on_c, 0, 67, 65
2, 151680, Note_off_c, 0, 67, 0
2, 155136, Note_on_c, 0, 71, 65
2, 155136, Note_on_c, 0, 55, 65
2, 155520, Note_off_c, 0, 71, 0
2, 155520, Note_off_c, 0, 55, 0
2, 155520, Note_on_c, 0, 71, 65
2, 155520, Note_on_c, 0, 55, 65
2, 155904, Note_off_c, 0, 71, 0
2, 155904, Note_off_c, 0, 55, 0
2, 155904, Note_on_c, 0, 55, 65
2, 155904, Note_on_c, 0, 72, 65
2, 156096, Note_off_c, 0, 72, 0
2, 156096, Note_on_c, 0, 71, 65
2, 156284, Note_off_c, 0, 71, 0
2, 156288, Note_on_c, 0, 69, 65
2, 156476, Note_off_c, 0, 69, 0
2, 156480, Note_on_c, 0, 71, 65
2, 156660, Note_off_c, 0, 71, 0
2, 156672, Note_off_c, 0, 55, 0
2, 156672, Note_on_c, 0, 72, 65
2, 156672, Note_on_c, 0, 55, 65
2, 157056, Note_off_c, 0, 72, 0
2, 157056, Note_off_c, 0, 55, 0
2, 157056, Note_on_c, 0, 72, 65
2, 157056, Note_on_c, 0, 55, 65
2, 157440, Note_off_c, 0, 72, 0
2, 157440, Note_off_c, 0, 55, 0
2, 157440, Note_on_c, 0, 72, 65
2, 157440, Note_on_c, 0, 55, 65
2, 157824, Note_off_c, 0, 72, 0
2, 157824, Note_on_c, 0, 71, 65
2, 158196, Note_off_c, 0, 71, 0
2, 158208, Note_off_c, 0, 55, 0
2, 158208, Note_on_c, 0, 74, 65
2, 158208, Note_on_c, 0, 55, 65
2, 158592, Note_off_c, 0, 74, 0
2, 158592, Note_off_c, 0, 55, 0
2, 158592, Note_on_c, 0, 74, 65
2, 158592, Note_on_c, 0, 55, 65
2, 158976, Note_off_c, 0, 74, 0
2, 158976, Note_off_c, 0, 55, 0
2, 158976, Note_on_c, 0, 76, 65
2, 158976, Note_on_c, 0, 55, 65
2, 159168, Note_off_c, 0, 76, 0
2, 159168, Note_on_c, 0, 74, 65
2, 159356, Note_off_c, 0, 74, 0
2, 159360, Note_on_c, 0, 72, 66
2, 159548, Note_off_c, 0, 72, 0
2, 159552, Note_on_c, 0, 71, 67
2, 159732, Note_off_c, 0, 71, 0
2, 159744, Note_off_c, 0, 55, 0
2, 159744, Note_on_c, 0, 69, 67
2, 159744, Note_on_c, 0, 55, 67
2, 160128, Note_off_c, 0, 69, 0
2, 160128, Note_off_c, 0, 55, 0
2, 160128, Note_on_c, 0, 71, 69
2, 160128, Note_on_c, 0, 55, 69
2, 160512, Note_off_c, 0, 71, 0
2, 160512, Note_off_c, 0, 55, 0
2, 160512, Note_on_c, 0, 71, 70
2, 160512, Note_on_c, 0, 55, 70
2, 160892, Note_off_c, 0, 71, 0
2, 160896, Note_on_c, 0, 72, 71
2, 161276, Note_off_c, 0, 55, 0
2, 161276, Note_off_c, 0, 72, 0
2, 161280, Note_on_c, 0, 71, 73
2, 161280, Note_on_c, 0, 55, 73
2, 161660, Note_off_c, 0, 71, 0
2, 161660, Note_off_c, 0, 55, 0
2, 161664, Note_on_c, 0, 71, 74
2, 161664, Note_on_c, 0, 55, 74
2, 162044, Note_off_c, 0, 71, 0
2, 162044, Note_off_c, 0, 55, 0
2, 162048, Note_on_c, 0, 72, 75
2, 162048, Note_on_c, 0, 55, 75
2, 162240, Note_off_c, 0, 72, 0
2, 162240, Note_on_c, 0, 71, 76
2, 162428, Note_off_c, 0, 71, 0
2, 162432, Note_on_c, 0, 69, 77
2, 162620, Note_off_c, 0, 69, 0
2, 162624, Note_on_c, 0, 71, 77
2, 162804, Note_off_c, 0, 71, 0
2, 162816, Note_off_c, 0, 55, 0
2, 162816, Note_on_c, 0, 72, 78
2, 162816, Note_on_c, 0, 55, 78
2, 163200, Note_off_c, 0, 72, 0
2, 163200, Note_off_c, 0, 55, 0
2, 163200, Note_on_c, 0, 72, 79
2, 163200, Note_on_c, 0, 55, 79
2, 163584, Note_off_c, 0, 72, 0
2, 163584, Note_off_c, 0, 55, 0
2, 163584, Note_on_c, 0, 74, 81
2, 163584, Note_on_c, 0, 55, 81
2, 163776, Note_off_c, 0, 74, 0
2, 163776, Note_on_c, 0, 72, 81
2, 163964, Note_off_c, 0, 72, 0
2, 163968, Note_on_c, 0, 71, 82
2, 164156, Note_off_c, 0, 71, 0
2, 164160, Note_on_c, 0, 72, 83
2, 164340, Note_off_c, 0, 72, 0
2, 164352, Note_off_c, 0, 55, 0
2, 164352, Note_on_c, 0, 74, 83
2, 164352, Note_on_c, 0, 55, 83
2, 164736, Note_off_c, 0, 74, 0
2, 164736, Note_off_c, 0, 55, 0
2, 164736, Note_on_c, 0, 74, 84
2, 164736, Note_on_c, 0, 55, 84
2, 165120, Note_off_c, 0, 74, 0
2, 165120, Note_off_c, 0, 55, 0
2, 165120, Note_on_c, 0, 76, 85
2, 165312, Note_off_c, 0, 76, 0
2, 165312, Note_on_c, 0, 78, 85
2, 165500, Note_off_c, 0, 78, 0
2, 165504, Note_on_c, 0, 79, 85
2, 165692, Note_off_c, 0, 79, 0
2, 165696, Note_on_c, 0, 72, 85
2, 165876, Note_off_c, 0, 72, 0
2, 165888, Note_on_c, 0, 71, 85
2, 165888, Note_on_c, 0, 55, 85
2, 166272, Note_off_c, 0, 71, 0
2, 166272, Note_off_c, 0, 55, 0
2, 166272, Note_on_c, 0, 55, 85
2, 166272, Note_on_c, 0, 69, 85
2, 166316, Note_off_c, 0, 69, 0
2, 166320, Note_on_c, 0, 71, 85
2, 166364, Note_off_c, 0, 71, 0
2, 166368, Note_on_c, 0, 69, 85
2, 166412, Note_off_c, 0, 69, 0
2, 166416, Note_on_c, 0, 71, 85
2, 166460, Note_off_c, 0, 71, 0
2, 166464, Note_on_c, 0, 69, 85
2, 166508, Note_off_c, 0, 69, 0
2, 166512, Note_on_c, 0, 71, 85
2, 166556, Note_off_c, 0, 71, 0
2, 166560, Note_on_c, 0, 67, 85
2, 166604, Note_off_c, 0, 67, 0
2, 166608, Note_on_c, 0, 69, 85
2, 166652, Note_off_c, 0, 69, 0
2, 166656, Note_off_c, 0, 55, 0
2, 166656, Note_on_c, 0, 67, 85
2, 166656, Note_on_c, 0, 55, 85
2, 167424, Note_off_c, 0, 67, 0
2, 167424, Note_off_c, 0, 55, 0
2, 173568, Note_on_c, 0, 71, 65
2, 173568, Note_on_c, 0, 55, 65
2, 173952, Note_off_c, 0, 71, 0
2, 173952, Note_off_c, 0, 55, 0
2, 173952, Note_on_c, 0, 55, 65
2, 173952, Note_on_c, 0, 71, 65
2, 174336, Note_off_c, 0, 55, 0
2, 174336, Note_off_c, 0, 71, 0
2, 174336, Note_on_c, 0, 72, 65
2, 174336, Note_on_c, 0, 55, 65
2, 174528, Note_off_c, 0, 72, 0
2, 174528, Note_on_c, 0, 71, 66
2, 174716, Note_off_c, 0, 71, 0
2, 174720, Note_on_c, 0, 69, 67
2, 174908, Note_off_c, 0, 69, 0
2, 174912, Note_on_c, 0, 71, 68
2, 175092, Note_off_c, 0, 71, 0
2, 175104, Note_off_c, 0, 55, 0
2, 175104, Note_on_c, 0, 72, 69
2, 175104, Note_on_c, 0, 55, 69
2, 175488, Note_off_c, 0, 72, 0
2, 175488, Note_off_c, 0, 55, 0
2, 175488, Note_on_c, 0, 72, 71
2, 175488, Note_on_c, 0, 55, 71
2, 175872, Note_off_c, 0, 72, 0
2, 175872, Note_off_c, 0, 55, 0
2, 175872, Note_on_c, 0, 74, 73
2, 175872, Note_on_c, 0, 55, 73
2, 176064, Note_off_c, 0, 74, 0
2, 176064, Note_on_c, 0, 72, 74
2, 176252, Note_off_c, 0, 72, 0
2, 176256, Note_on_c, 0, 71, 75
2, 176444, Note_off_c, 0, 71, 0
2, 176448, Note_on_c, 0, 72, 76
2, 176628, Note_off_c, 0, 72, 0
2, 176640, Note_off_c, 0, 55, 0
2, 176640, Note_on_c, 0, 74, 77
2, 176640, Note_on_c, 0, 55, 77
2, 177024, Note_off_c, 0, 74, 0
2, 177024, Note_off_c, 0, 55, 0
2, 177024, Note_on_c, 0, 74, 79
2, 177024, Note_on_c, 0, 55, 79
2, 177408, Note_off_c, 0, 74, 0
2, 177408, Note_off_c, 0, 55, 0
2, 177408, Note_on_c, 0, 76, 81
2, 177408, Note_on_c, 0, 55, 81
2, 177600, Note_off_c, 0, 76, 0
2, 177600, Note_on_c, 0, 78, 82
2, 177788, Note_off_c, 0, 78, 0
2, 177792, Note_on_c, 0, 79, 83
2, 177972, Note_off_c, 0, 79, 0
2, 177984, Note_off_c, 0, 55, 0
2, 179712, Note_on_c, 0, 74, 65
2, 180096, Note_off_c, 0, 74, 0
2, 180096, Note_on_c, 0, 74, 65
2, 180480, Note_off_c, 0, 74, 0
2, 180480, Note_on_c, 0, 76, 65
2, 180672, Note_off_c, 0, 76, 0
2, 180672, Note_on_c, 0, 78, 65
2, 180860, Note_off_c, 0, 78, 0
2, 180864, Note_on_c, 0, 79, 65
2, 181052, Note_off_c, 0, 79, 0
2, 181056, Note_on_c, 0, 72, 65
2, 181236, Note_off_c, 0, 72, 0
2, 181248, Note_on_c, 0, 71, 65
2, 181632, Note_off_c, 0, 71, 0
2, 181632, Note_on_c, 0, 69, 65
2, 182004, Note_off_c, 0, 69, 0
2, 182016, Note_on_c, 0, 69, 65
2, 182208, Note_off_c, 0, 69, 0
2, 182208, Note_on_c, 0, 70, 65
2, 182396, Note_off_c, 0, 70, 0
2, 182400, Note_on_c, 0, 71, 65
2, 182772, Note_off_c, 0, 71, 0
2, 185856, Note_on_c, 0, 82, 70
2, 185952, Note_off_c, 0, 82, 0
2, 185952, Note_on_c, 0, 83, 70
2, 186032, Note_off_c, 0, 83, 0
2, 186048, Note_on_c, 0, 82, 70
2, 186096, Note_off_c, 0, 82, 0
2, 186144, Note_on_c, 0, 83, 70
2, 186192, Note_off_c, 0, 83, 0
2, 186240, Note_on_c, 0, 81, 70
2, 186336, Note_off_c, 0, 81, 0
2, 186336, Note_on_c, 0, 79, 70
2, 186416, Note_off_c, 0, 79, 0
2, 186432, Note_on_c, 0, 78, 70
2, 186480, Note_off_c, 0, 78, 0
2, 186528, Note_on_c, 0, 76, 70
2, 186576, Note_off_c, 0, 76, 0
2, 186624, Note_on_c, 0, 75, 70
2, 186672, Note_off_c, 0, 75, 0
2, 186720, Note_on_c, 0, 76, 70
2, 186768, Note_off_c, 0, 76, 0
2, 186816, Note_on_c, 0, 78, 70
2, 186864, Note_off_c, 0, 78, 0
2, 186912, Note_on_c, 0, 76, 70
2, 186960, Note_off_c, 0, 76, 0
2, 187008, Note_on_c, 0, 75, 70
2, 187056, Note_off_c, 0, 75, 0
2, 187104, Note_on_c, 0, 76, 70
2, 187152, Note_off_c, 0, 76, 0
2, 187200, Note_on_c, 0, 78, 70
2, 187248, Note_off_c, 0, 78, 0
2, 187296, Note_on_c, 0, 79, 70
2, 187344, Note_off_c, 0, 79, 0
2, 187392, Note_on_c, 0, 81, 70
2, 187440, Note_off_c, 0, 81, 0
2, 187488, Note_on_c, 0, 79, 70
2, 187536, Note_off_c, 0, 79, 0
2, 187584, Note_on_c, 0, 78, 70
2, 187632, Note_off_c, 0, 78, 0
2, 187680, Note_on_c, 0, 76, 70
2, 187728, Note_off_c, 0, 76, 0
2, 187776, Note_on_c, 0, 75, 70
2, 187824, Note_off_c, 0, 75, 0
2, 187872, Note_on_c, 0, 72, 70
2, 187920, Note_off_c, 0, 72, 0
2, 187968, Note_on_c, 0, 71, 70
2, 188016, Note_off_c, 0, 71, 0
2, 188064, Note_on_c, 0, 69, 70
2, 188112, Note_off_c, 0, 69, 0
2, 188160, Note_on_c, 0, 67, 70
2, 188208, Note_off_c, 0, 67, 0
2, 188256, Note_on_c, 0, 71, 70
2, 188304, Note_off_c, 0, 71, 0
2, 188352, Note_on_c, 0, 73, 70
2, 188400, Note_off_c, 0, 73, 0
2, 188448, Note_on_c, 0, 75, 70
2, 188496, Note_off_c, 0, 75, 0
2, 188544, Note_on_c, 0, 76, 70
2, 188592, Note_off_c, 0, 76, 0
2, 188640, Note_on_c, 0, 78, 70
2, 188688, Note_off_c, 0, 78, 0
2, 188736, Note_on_c, 0, 79, 70
2, 188784, Note_off_c, 0, 79, 0
2, 188832, Note_on_c, 0, 81, 70
2, 188880, Note_off_c, 0, 81, 0
2, 188928, Note_on_c, 0, 83, 70
2, 189024, Note_off_c, 0, 83, 0
2, 189024, Note_on_c, 0, 81, 70
2, 189104, Note_off_c, 0, 81, 0
2, 189120, Note_on_c, 0, 79, 70
2, 189168, Note_off_c, 0, 79, 0
2, 189216, Note_on_c, 0, 81, 70
2, 189264, Note_off_c, 0, 81, 0
2, 189312, Note_on_c, 0, 79, 70
2, 189408, Note_off_c, 0, 79, 0
2, 189408, Note_on_c, 0, 78, 70
2, 189488, Note_off_c, 0, 78, 0
2, 189504, Note_on_c, 0, 76, 70
2, 189552, Note_off_c, 0, 76, 0
2, 189600, Note_on_c, 0, 74, 70
2, 189648, Note_off_c, 0, 74, 0
2, 189696, Note_on_c, 0, 73, 70
2, 189744, Note_off_c, 0, 73, 0
2, 189792, Note_on_c, 0, 74, 70
2, 189840, Note_off_c, 0, 74, 0
2, 189888, Note_on_c, 0, 76, 70
2, 189936, Note_off_c, 0, 76, 0
2, 189984, Note_on_c, 0, 78, 70
2, 190032, Note_off_c, 0, 78, 0
2, 190080, Note_on_c, 0, 79, 70
2, 190128, Note_off_c, 0, 79, 0
2, 190176, Note_on_c, 0, 78, 70
2, 190224, Note_off_c, 0, 78, 0
2, 190272, Note_on_c, 0, 76, 70
2, 190320, Note_off_c, 0, 76, 0
2, 190368, Note_on_c, 0, 74, 70
2, 190416, Note_off_c, 0, 74, 0
2, 190464, Note_on_c, 0, 73, 70
2, 190512, Note_off_c, 0, 73, 0
2, 190560, Note_on_c, 0, 74, 70
2, 190608, Note_off_c, 0, 74, 0
2, 190656, Note_on_c, 0, 76, 70
2, 190704, Note_off_c, 0, 76, 0
2, 190752, Note_on_c, 0, 74, 70
2, 190800, Note_off_c, 0, 74, 0
2, 190848, Note_on_c, 0, 73, 70
2, 190896, Note_off_c, 0, 73, 0
2, 190944, Note_on_c, 0, 71, 70
2, 190992, Note_off_c, 0, 71, 0
2, 191040, Note_on_c, 0, 69, 70
2, 191088, Note_off_c, 0, 69, 0
2, 191136, Note_on_c, 0, 67, 70
2, 191184, Note_off_c, 0, 67, 0
2, 191232, Note_on_c, 0, 66, 71
2, 191280, Note_off_c, 0, 66, 0
2, 191328, Note_on_c, 0, 69, 71
2, 191376, Note_off_c, 0, 69, 0
2, 191424, Note_on_c, 0, 67, 72
2, 191472, Note_off_c, 0, 67, 0
2, 191520, Note_on_c, 0, 66, 73
2, 191568, Note_off_c, 0, 66, 0
2, 191616, Note_on_c, 0, 67, 74
2, 191664, Note_off_c, 0, 67, 0
2, 191712, Note_on_c, 0, 69, 75
2, 191760, Note_off_c, 0, 69, 0
2, 191808, Note_on_c, 0, 71, 76
2, 191856, Note_off_c, 0, 71, 0
2, 191904, Note_on_c, 0, 73, 77
2, 191952, Note_off_c, 0, 73, 0
2, 192000, Note_on_c, 0, 74, 78
2, 192092, Note_off_c, 0, 74, 0
2, 192096, Note_on_c, 0, 76, 79
2, 192188, Note_off_c, 0, 76, 0
2, 192192, Note_on_c, 0, 78, 80
2, 192284, Note_off_c, 0, 78, 0
2, 192288, Note_on_c, 0, 79, 81
2, 192380, Note_off_c, 0, 79, 0
2, 192384, Note_on_c, 0, 81, 82
2, 192476, Note_off_c, 0, 81, 0
2, 192480, Note_on_c, 0, 83, 83
2, 192572, Note_off_c, 0, 83, 0
2, 192576, Note_on_c, 0, 85, 84
2, 192668, Note_off_c, 0, 85, 0
2, 192672, Note_on_c, 0, 86, 85
2, 192764, Note_off_c, 0, 86, 0
2, 192768, Note_on_c, 0, 84, 85
2, 193152, Note_off_c, 0, 84, 0
2, 193152, Note_on_c, 0, 83, 85
2, 193524, Note_off_c, 0, 83, 0
2, 193728, Note_on_c, 0, 86, 85
2, 193920, Note_off_c, 0, 86, 0
2, 193920, Note_on_c, 0, 85, 90
2, 194108, Note_off_c, 0, 85, 0
2, 194112, Note_on_c, 0, 86, 95
2, 194292, Note_off_c, 0, 86, 0
2, 194304, Note_on_c, 0, 83, 95
2, 194688, Note_off_c, 0, 83, 0
2, 194688, Note_on_c, 0, 81, 90
2, 195060, Note_off_c, 0, 81, 0
2, 195264, Note_on_c, 0, 86, 85
2, 195456, Note_off_c, 0, 86, 0
2, 195456, Note_on_c, 0, 85, 90
2, 195644, Note_off_c, 0, 85, 0
2, 195648, Note_on_c, 0, 86, 95
2, 195828, Note_off_c, 0, 86, 0
2, 195840, Note_on_c, 0, 81, 95
2, 196224, Note_off_c, 0, 81, 0
2, 196224, Note_on_c, 0, 79, 90
2, 196596, Note_off_c, 0, 79, 0
2, 196800, Note_on_c, 0, 88, 85
2, 196992, Note_off_c, 0, 88, 0
2, 196992, Note_on_c, 0, 87, 90
2, 197180, Note_off_c, 0, 87, 0
2, 197184, Note_on_c, 0, 88, 95
2, 197364, Note_off_c, 0, 88, 0
2, 197376, Note_on_c, 0, 79, 95
2, 197760, Note_off_c, 0, 79, 0
2, 197760, Note_on_c, 0, 78, 90
2, 198132, Note_off_c, 0, 78, 0
2, 198336, Note_on_c, 0, 74, 65
2, 198528, Note_off_c, 0, 74, 0
2, 198528, Note_on_c, 0, 78, 65
2, 198716, Note_off_c, 0, 78, 0
2, 198720, Note_on_c, 0, 81, 65
2, 198900, Note_off_c, 0, 81, 0
2, 198912, Note_on_c, 0, 81, 65
2, 198956, Note_off_c, 0, 81, 0
2, 198960, Note_on_c, 0, 83, 65
2, 199004, Note_off_c, 0, 83, 0
2, 199008, Note_on_c, 0, 81, 65
2, 199052, Note_off_c, 0, 81, 0
2, 199056, Note_on_c, 0, 83, 65
2, 199100, Note_off_c, 0, 83, 0
2, 199104, Note_on_c, 0, 79, 65
2, 199284, Note_off_c, 0, 79, 0
2, 199296, Note_on_c, 0, 79, 65
2, 199488, Note_off_c, 0, 79, 0
2, 199488, Note_on_c, 0, 78, 65
2, 199668, Note_off_c, 0, 78, 0
2, 199680, Note_on_c, 0, 78, 65
2, 199724, Note_off_c, 0, 78, 0
2, 199728, Note_on_c, 0, 79, 65
2, 199772, Note_off_c, 0, 79, 0
2, 199776, Note_on_c, 0, 78, 65
2, 199820, Note_off_c, 0, 78, 0
2, 199824, Note_on_c, 0, 79, 65
2, 199868, Note_off_c, 0, 79, 0
2, 199872, Note_on_c, 0, 76, 65
2, 200052, Note_off_c, 0, 76, 0
2, 200064, Note_on_c, 0, 76, 65
2, 200256, Note_off_c, 0, 76, 0
2, 200256, Note_on_c, 0, 74, 65
2, 200436, Note_off_c, 0, 74, 0
2, 200448, Note_on_c, 0, 73, 65
2, 200540, Note_off_c, 0, 73, 0
2, 200544, Note_on_c, 0, 69, 67
2, 200636, Note_off_c, 0, 69, 0
2, 200640, Note_on_c, 0, 71, 70
2, 200732, Note_off_c, 0, 71, 0
2, 200736, Note_on_c, 0, 73, 72
2, 200828, Note_off_c, 0, 73, 0
2, 200832, Note_on_c, 0, 74, 75
2, 200924, Note_off_c, 0, 74, 0
2, 200928, Note_on_c, 0, 76, 77
2, 201020, Note_off_c, 0, 76, 0
2, 201024, Note_on_c, 0, 78, 80
2, 201116, Note_off_c, 0, 78, 0
2, 201120, Note_on_c, 0, 80, 82
2, 201212, Note_off_c, 0, 80, 0
2, 201216, Note_on_c, 0, 81, 85
2, 201312, Note_off_c, 0, 81, 0
2, 201312, Note_on_c, 0, 80, 85
2, 201404, Note_off_c, 0, 80, 0
2, 201408, Note_on_c, 0, 81, 85
2, 201500, Note_off_c, 0, 81, 0
2, 201504, Note_on_c, 0, 80, 85
2, 201584, Note_off_c, 0, 80, 0
2, 201600, Note_on_c, 0, 81, 82
2, 201696, Note_off_c, 0, 81, 0
2, 201696, Note_on_c, 0, 80, 77
2, 201788, Note_off_c, 0, 80, 0
2, 201792, Note_on_c, 0, 81, 72
2, 201884, Note_off_c, 0, 81, 0
2, 201888, Note_on_c, 0, 80, 67
2, 201968, Note_off_c, 0, 80, 0
2, 201984, Note_on_c, 0, 81, 65
2, 205056, Note_off_c, 0, 81, 64
2, 205056, Note_on_c, 0, 81, 65
2, 205100, Note_off_c, 0, 81, 0
2, 205104, Note_on_c, 0, 83, 65
2, 205148, Note_off_c, 0, 83, 0
2, 205152, Note_on_c, 0, 81, 65
2, 205196, Note_off_c, 0, 81, 0
2, 205200, Note_on_c, 0, 83, 65
2, 205244, Note_off_c, 0, 83, 0
2, 205248, Note_on_c, 0, 81, 66
2, 205292, Note_off_c, 0, 81, 0
2, 205296, Note_on_c, 0, 83, 66
2, 205340, Note_off_c, 0, 83, 0
2, 205344, Note_on_c, 0, 81, 66
2, 205388, Note_off_c, 0, 81, 0
2, 205392, Note_on_c, 0, 83, 67
2, 205436, Note_off_c, 0, 83, 0
2, 205440, Note_on_c, 0, 81, 67
2, 205484, Note_off_c, 0, 81, 0
2, 205488, Note_on_c, 0, 83, 67
2, 205532, Note_off_c, 0, 83, 0
2, 205536, Note_on_c, 0, 81, 68
2, 205580, Note_off_c, 0, 81, 0
2, 205584, Note_on_c, 0, 83, 68
2, 205628, Note_off_c, 0, 83, 0
2, 205632, Note_on_c, 0, 81, 68
2, 205676, Note_off_c, 0, 81, 0
2, 205680, Note_on_c, 0, 83, 69
2, 205724, Note_off_c, 0, 83, 0
2, 205728, Note_on_c, 0, 81, 69
2, 205772, Note_off_c, 0, 81, 0
2, 205776, Note_on_c, 0, 83, 69
2, 205820, Note_off_c, 0, 83, 0
2, 205824, Note_on_c, 0, 81, 70
2, 205868, Note_off_c, 0, 81, 0
2, 205872, Note_on_c, 0, 83, 70
2, 205916, Note_off_c, 0, 83, 0
2, 205920, Note_on_c, 0, 81, 70
2, 205964, Note_off_c, 0, 81, 0
2, 205968, Note_on_c, 0, 83, 71
2, 206012, Note_off_c, 0, 83, 0
2, 206016, Note_on_c, 0, 81, 71
2, 206060, Note_off_c, 0, 81, 0
2, 206064, Note_on_c, 0, 83, 71
2, 206108, Note_off_c, 0, 83, 0
2, 206112, Note_on_c, 0, 81, 72
2, 206156, Note_off_c, 0, 81, 0
2, 206160, Note_on_c, 0, 83, 72
2, 206204, Note_off_c, 0, 83, 0
2, 206208, Note_on_c, 0, 81, 72
2, 206252, Note_off_c, 0, 81, 0
2, 206256, Note_on_c, 0, 83, 73
2, 206300, Note_off_c, 0, 83, 0
2, 206304, Note_on_c, 0, 81, 73
2, 206348, Note_off_c, 0, 81, 0
2, 206352, Note_on_c, 0, 83, 73
2, 206396, Note_off_c, 0, 83, 0
2, 206400, Note_on_c, 0, 81, 74
2, 206444, Note_off_c, 0, 81, 0
2, 206448, Note_on_c, 0, 83, 74
2, 206492, Note_off_c, 0, 83, 0
2, 206496, Note_on_c, 0, 81, 74
2, 206540, Note_off_c, 0, 81, 0
2, 206544, Note_on_c, 0, 83, 75
2, 206588, Note_off_c, 0, 83, 0
2, 206592, Note_on_c, 0, 81, 75
2, 206636, Note_off_c, 0, 81, 0
2, 206640, Note_on_c, 0, 83, 75
2, 206684, Note_off_c, 0, 83, 0
2, 206688, Note_on_c, 0, 81, 76
2, 206732, Note_off_c, 0, 81, 0
2, 206736, Note_on_c, 0, 83, 76
2, 206780, Note_off_c, 0, 83, 0
2, 206784, Note_on_c, 0, 81, 76
2, 206828, Note_off_c, 0, 81, 0
2, 206832, Note_on_c, 0, 83, 77
2, 206876, Note_off_c, 0, 83, 0
2, 206880, Note_on_c, 0, 81, 77
2, 206924, Note_off_c, 0, 81, 0
2, 206928, Note_on_c, 0, 83, 77
2, 206972, Note_off_c, 0, 83, 0
2, 206976, Note_on_c, 0, 81, 78
2, 207020, Note_off_c, 0, 81, 0
2, 207024, Note_on_c, 0, 83, 78
2, 207068, Note_off_c, 0, 83, 0
2, 207072, Note_on_c, 0, 81, 78
2, 207116, Note_off_c, 0, 81, 0
2, 207120, Note_on_c, 0, 83, 79
2, 207164, Note_off_c, 0, 83, 0
2, 207168, Note_on_c, 0, 81, 79
2, 207212, Note_off_c, 0, 81, 0
2, 207216, Note_on_c, 0, 83, 79
2, 207260, Note_off_c, 0, 83, 0
2, 207264, Note_on_c, 0, 81, 80
2, 207308, Note_off_c, 0, 81, 0
2, 207312, Note_on_c, 0, 83, 80
2, 207356, Note_off_c, 0, 83, 0
2, 207360, Note_on_c, 0, 81, 80
2, 207404, Note_off_c, 0, 81, 0
2, 207408, Note_on_c, 0, 83, 81
2, 207452, Note_off_c, 0, 83, 0
2, 207456, Note_on_c, 0, 81, 81
2, 207500, Note_off_c, 0, 81, 0
2, 207504, Note_on_c, 0, 83, 81
2, 207548, Note_off_c, 0, 83, 0
2, 207552, Note_on_c, 0, 81, 82
2, 207596, Note_off_c, 0, 81, 0
2, 207600, Note_on_c, 0, 83, 82
2, 207644, Note_off_c, 0, 83, 0
2, 207648, Note_on_c, 0, 81, 82
2, 207692, Note_off_c, 0, 81, 0
2, 207696, Note_on_c, 0, 83, 83
2, 207740, Note_off_c, 0, 83, 0
2, 207744, Note_on_c, 0, 81, 83
2, 207788, Note_off_c, 0, 81, 0
2, 207792, Note_on_c, 0, 83, 83
2, 207836, Note_off_c, 0, 83, 0
2, 207840, Note_on_c, 0, 81, 84
2, 207884, Note_off_c, 0, 81, 0
2, 207888, Note_on_c, 0, 83, 84
2, 207932, Note_off_c, 0, 83, 0
2, 207936, Note_on_c, 0, 81, 84
2, 207980, Note_off_c, 0, 81, 0
2, 207984, Note_on_c, 0, 83, 85
2, 208028, Note_off_c, 0, 83, 0
2, 208032, Note_on_c, 0, 79, 85
2, 208076, Note_off_c, 0, 79, 0
2, 208080, Note_on_c, 0, 81, 85
2, 208124, Note_off_c, 0, 81, 0
2, 208128, Note_on_c, 0, 69, 65
2, 208172, Note_off_c, 0, 69, 0
2, 208176, Note_on_c, 0, 71, 65
2, 208220, Note_off_c, 0, 71, 0
2, 208224, Note_on_c, 0, 69, 65
2, 208268, Note_off_c, 0, 69, 0
2, 208272, Note_on_c, 0, 71, 65
2, 208316, Note_off_c, 0, 71, 0
2, 208320, Note_on_c, 0, 69, 65
2, 208364, Note_off_c, 0, 69, 0
2, 208368, Note_on_c, 0, 71, 65
2, 208412, Note_off_c, 0, 71, 0
2, 208416, Note_on_c, 0, 69, 65
2, 208460, Note_off_c, 0, 69, 0
2, 208464, Note_on_c, 0, 71, 65
2, 208508, Note_off_c, 0, 71, 0
2, 208512, Note_on_c, 0, 69, 65
2, 208556, Note_off_c, 0, 69, 0
2, 208560, Note_on_c, 0, 71, 65
2, 208604, Note_off_c, 0, 71, 0
2, 208608, Note_on_c, 0, 69, 65
2, 208652, Note_off_c, 0, 69, 0
2, 208656, Note_on_c, 0, 71, 65
2, 208700, Note_off_c, 0, 71, 0
2, 208704, Note_on_c, 0, 69, 65
2, 208748, Note_off_c, 0, 69, 0
2, 208752, Note_on_c, 0, 71, 65
2, 208796, Note_off_c, 0, 71, 0
2, 208800, Note_on_c, 0, 67, 65
2, 208844, Note_off_c, 0, 67, 0
2, 208848, Note_on_c, 0, 69, 65
2, 208892, Note_off_c, 0, 69, 0
2, 208896, Note_on_c, 0, 66, 65
2, 209088, Note_off_c, 0, 66, 0
2, 209280, Note_on_c, 0, 67, 65
2, 209460, Note_off_c, 0, 67, 0
2, 209664, Note_on_c, 0, 69, 65
2, 209856, Note_off_c, 0, 69, 0
2, 209856, Note_on_c, 0, 70, 65
2, 210044, Note_off_c, 0, 70, 0
2, 210048, Note_on_c, 0, 71, 65
2, 210420, Note_off_c, 0, 71, 0
2, 210432, Note_on_c, 0, 64, 65
2, 210624, Note_off_c, 0, 64, 0
2, 210816, Note_on_c, 0, 66, 66
2, 210996, Note_off_c, 0, 66, 0
2, 211200, Note_on_c, 0, 67, 67
2, 211392, Note_off_c, 0, 67, 0
2, 211392, Note_on_c, 0, 68, 68
2, 211580, Note_off_c, 0, 68, 0
2, 211584, Note_on_c, 0, 69, 69
2, 211956, Note_off_c, 0, 69, 0
2, 211968, Note_on_c, 0, 62, 70
2, 212160, Note_off_c, 0, 62, 0
2, 212352, Note_on_c, 0, 64, 72
2, 212532, Note_off_c, 0, 64, 0
2, 212736, Note_on_c, 0, 67, 73
2, 212928, Note_off_c, 0, 67, 0
2, 212928, Note_on_c, 0, 65, 74
2, 213116, Note_off_c, 0, 65, 0
2, 213120, Note_on_c, 0, 64, 75
2, 213308, Note_off_c, 0, 64, 0
2, 213312, Note_on_c, 0, 62, 76
2, 213492, Note_off_c, 0, 62, 0
2, 213504, Note_on_c, 0, 62, 76
2, 213696, Note_off_c, 0, 62, 0
2, 213888, Note_on_c, 0, 62, 78
2, 214068, Note_off_c, 0, 62, 0
2, 214272, Note_on_c, 0, 61, 79
2, 214364, Note_off_c, 0, 61, 0
2, 214464, Note_on_c, 0, 64, 80
2, 214656, Note_off_c, 0, 64, 0
2, 214656, Note_on_c, 0, 65, 81
2, 214844, Note_off_c, 0, 65, 0
2, 214848, Note_on_c, 0, 66, 82
2, 215036, Note_off_c, 0, 66, 0
2, 215040, Note_on_c, 0, 67, 82
2, 215228, Note_off_c, 0, 67, 0
2, 215232, Note_on_c, 0, 68, 83
2, 215420, Note_off_c, 0, 68, 0
2, 215424, Note_on_c, 0, 69, 84
2, 215612, Note_off_c, 0, 69, 0
2, 215616, Note_on_c, 0, 64, 85
2, 215796, Note_off_c, 0, 64, 0
2, 215808, Note_on_c, 0, 67, 85
2, 216000, Note_off_c, 0, 67, 0
2, 216000, Note_on_c, 0, 65, 85
2, 216188, Note_off_c, 0, 65, 0
2, 216192, Note_on_c, 0, 64, 85
2, 216380, Note_off_c, 0, 64, 0
2, 216384, Note_on_c, 0, 62, 85
2, 216564, Note_off_c, 0, 62, 0
2, 216576, Note_on_c, 0, 62, 85
2, 216960, Note_off_c, 0, 62, 0
2, 216960, Note_on_c, 0, 62, 85
2, 217344, Note_off_c, 0, 62, 0
2, 217344, Note_on_c, 0, 61, 85
2, 217920, Note_off_c, 0, 61, 0
2, 217920, Note_on_c, 0, 64, 85
2, 218100, Note_off_c, 0, 64, 0
2, 218112, Note_on_c, 0, 69, 85
2, 218496, Note_off_c, 0, 69, 0
2, 218496, Note_on_c, 0, 69, 85
2, 218880, Note_off_c, 0, 69, 0
2, 218880, Note_on_c, 0, 69, 85
2, 219264, Note_off_c, 0, 69, 0
2, 219408, Note_on_c, 0, 83, 75
2, 219460, Note_off_c, 0, 83, 0
2, 219468, Note_on_c, 0, 81, 65
2, 219596, Note_off_c, 0, 81, 0
2, 219600, Note_on_c, 0, 80, 75
2, 219636, Note_off_c, 0, 80, 0
2, 219648, Note_on_c, 0, 81, 65
2, 219740, Note_off_c, 0, 81, 0
2, 219840, Note_on_c, 0, 78, 65
2, 219892, Note_off_c, 0, 78, 0
2, 220032, Note_on_c, 0, 74, 65
2, 220080, Note_off_c, 0, 74, 0
2, 220224, Note_on_c, 0, 76, 75
2, 220260, Note_off_c, 0, 76, 0
2, 220416, Note_on_c, 0, 76, 65
2, 220800, Note_off_c, 0, 76, 0
2, 220800, Note_on_c, 0, 78, 65
2, 220980, Note_off_c, 0, 78, 0
2, 220992, Note_on_c, 0, 79, 65
2, 221136, Note_off_c, 0, 79, 0
2, 221136, Note_on_c, 0, 76, 75
2, 221172, Note_off_c, 0, 76, 0
2, 221184, Note_on_c, 0, 81, 65
2, 221364, Note_off_c, 0, 81, 0
2, 221376, Note_on_c, 0, 81, 65
2, 221568, Note_off_c, 0, 81, 0
2, 221568, Note_on_c, 0, 83, 65
2, 221748, Note_off_c, 0, 83, 0
2, 221760, Note_on_c, 0, 83, 65
2, 221952, Note_off_c, 0, 83, 0
2, 221952, Note_on_c, 0, 76, 65
2, 222132, Note_off_c, 0, 76, 0
2, 222528, Note_on_c, 0, 83, 62
2, 222672, Note_off_c, 0, 83, 0
2, 222672, Note_on_c, 0, 79, 69
2, 222708, Note_off_c, 0, 79, 0
2, 222720, Note_on_c, 0, 76, 57
2, 222900, Note_off_c, 0, 76, 0
2, 223296, Note_on_c, 0, 83, 55
2, 223344, Note_off_c, 0, 83, 0
2, 223344, Note_on_c, 0, 79, 55
2, 223388, Note_off_c, 0, 79, 0
2, 223392, Note_on_c, 0, 83, 55
2, 223436, Note_off_c, 0, 83, 0
2, 223440, Note_on_c, 0, 79, 55
2, 223484, Note_off_c, 0, 79, 0
2, 223488, Note_on_c, 0, 76, 65
2, 223568, Note_off_c, 0, 76, 0
2, 227136, Note_on_c, 0, 62, 85
2, 227232, Note_off_c, 0, 62, 0
2, 227232, Note_on_c, 0, 66, 85
2, 227312, Note_off_c, 0, 66, 0
2, 227328, Note_on_c, 0, 69, 85
2, 227376, Note_off_c, 0, 69, 0
2, 227424, Note_on_c, 0, 66, 85
2, 227472, Note_off_c, 0, 66, 0
2, 227520, Note_on_c, 0, 69, 85
2, 227612, Note_off_c, 0, 69, 0
2, 227712, Note_on_c, 0, 55, 85
2, 227808, Note_off_c, 0, 55, 0
2, 227808, Note_on_c, 0, 67, 85
2, 227888, Note_off_c, 0, 67, 0
2, 227904, Note_on_c, 0, 71, 85
2, 227952, Note_off_c, 0, 71, 0
2, 228000, Note_on_c, 0, 67, 85
2, 228048, Note_off_c, 0, 67, 0
2, 228096, Note_on_c, 0, 71, 85
2, 228188, Note_off_c, 0, 71, 0
2, 228288, Note_on_c, 0, 57, 85
2, 228384, Note_off_c, 0, 57, 0
2, 228384, Note_on_c, 0, 64, 85
2, 228464, Note_off_c, 0, 64, 0
2, 228480, Note_on_c, 0, 73, 85
2, 228528, Note_off_c, 0, 73, 0
2, 228576, Note_on_c, 0, 64, 85
2, 228624, Note_off_c, 0, 64, 0
2, 228672, Note_on_c, 0, 73, 85
2, 228764, Note_off_c, 0, 73, 0
2, 228864, Note_on_c, 0, 57, 85
2, 228960, Note_off_c, 0, 57, 0
2, 228960, Note_on_c, 0, 66, 85
2, 229056, Note_off_c, 0, 66, 0
2, 229056, Note_on_c, 0, 74, 85
2, 229152, Note_off_c, 0, 74, 0
2, 229152, Note_on_c, 0, 66, 85
2, 229248, Note_off_c, 0, 66, 0
2, 229248, Note_on_c, 0, 74, 85
2, 229436, Note_off_c, 0, 74, 0
2, 231744, Note_on_c, 0, 62, 85
2, 231840, Note_off_c, 0, 62, 0
2, 231840, Note_on_c, 0, 66, 85
2, 231920, Note_off_c, 0, 66, 0
2, 231936, Note_on_c, 0, 69, 85
2, 231984, Note_off_c, 0, 69, 0
2, 232032, Note_on_c, 0, 66, 85
2, 232080, Note_off_c, 0, 66, 0
2, 232128, Note_on_c, 0, 69, 85
2, 232220, Note_off_c, 0, 69, 0
2, 232320, Note_on_c, 0, 55, 85
2, 232416, Note_off_c, 0, 55, 0
2, 232416, Note_on_c, 0, 67, 85
2, 232496, Note_off_c, 0, 67, 0
2, 232512, Note_on_c, 0, 71, 85
2, 232560, Note_off_c, 0, 71, 0
2, 232608, Note_on_c, 0, 67, 85
2, 232656, Note_off_c, 0, 67, 0
2, 232704, Note_on_c, 0, 71, 85
2, 232796, Note_off_c, 0, 71, 0
2, 232896, Note_on_c, 0, 57, 85
2, 232992, Note_off_c, 0, 57, 0
2, 232992, Note_on_c, 0, 64, 85
2, 233072, Note_off_c, 0, 64, 0
2, 233088, Note_on_c, 0, 73, 85
2, 233136, Note_off_c, 0, 73, 0
2, 233184, Note_on_c, 0, 64, 85
2, 233232, Note_off_c, 0, 64, 0
2, 233280, Note_on_c, 0, 73, 85
2, 233372, Note_off_c, 0, 73, 0
2, 233472, Note_on_c, 0, 57, 85
2, 233568, Note_off_c, 0, 57, 0
2, 233568, Note_on_c, 0, 66, 85
2, 233648, Note_off_c, 0, 66, 0
2, 233664, Note_on_c, 0, 74, 85
2, 233712, Note_off_c, 0, 74, 0
2, 233760, Note_on_c, 0, 66, 85
2, 233808, Note_off_c, 0, 66, 0
2, 233856, Note_on_c, 0, 74, 85
2, 233948, Note_off_c, 0, 74, 0
2, 234048, Note_on_c, 0, 86, 85
2, 234144, Note_off_c, 0, 86, 0
2, 234144, Note_on_c, 0, 85, 85
2, 234236, Note_off_c, 0, 85, 0
2, 234240, Note_on_c, 0, 83, 85
2, 234332, Note_off_c, 0, 83, 0
2, 234336, Note_on_c, 0, 81, 85
2, 234428, Note_off_c, 0, 81, 0
2, 234432, Note_on_c, 0, 79, 85
2, 234524, Note_off_c, 0, 79, 0
2, 234528, Note_on_c, 0, 78, 85
2, 234608, Note_off_c, 0, 78, 0
2, 234624, Note_on_c, 0, 76, 85
2, 234720, Note_off_c, 0, 76, 0
2, 235200, Note_on_c, 0, 76, 65
2, 235296, Note_off_c, 0, 76, 0
2, 235296, Note_on_c, 0, 78, 65
2, 235388, Note_off_c, 0, 78, 0
2, 235392, Note_on_c, 0, 79, 65
2, 235484, Note_off_c, 0, 79, 0
2, 235488, Note_on_c, 0, 81, 65
2, 235580, Note_off_c, 0, 81, 0
2, 235584, Note_on_c, 0, 83, 65
2, 235676, Note_off_c, 0, 83, 0
2, 235680, Note_on_c, 0, 79, 65
2, 235772, Note_off_c, 0, 79, 0
2, 235776, Note_on_c, 0, 78, 65
2, 235856, Note_off_c, 0, 78, 0
2, 236352, Note_on_c, 0, 86, 65
2, 236448, Note_off_c, 0, 86, 0
2, 236448, Note_on_c, 0, 84, 65
2, 236540, Note_off_c, 0, 84, 0
2, 236544, Note_on_c, 0, 83, 65
2, 236636, Note_off_c, 0, 83, 0
2, 236640, Note_on_c, 0, 81, 65
2, 236732, Note_off_c, 0, 81, 0
2, 236736, Note_on_c, 0, 79, 65
2, 236828, Note_off_c, 0, 79, 0
2, 236832, Note_on_c, 0, 78, 65
2, 236924, Note_off_c, 0, 78, 0
2, 236928, Note_on_c, 0, 79, 65
2, 237008, Note_off_c, 0, 79, 0
2, 237504, Note_on_c, 0, 83, 65
2, 237600, Note_off_c, 0, 83, 0
2, 237600, Note_on_c, 0, 81, 66
2, 237692, Note_off_c, 0, 81, 0
2, 237696, Note_on_c, 0, 79, 67
2, 237788, Note_off_c, 0, 79, 0
2, 237792, Note_on_c, 0, 78, 68
2, 237884, Note_off_c, 0, 78, 0
2, 237888, Note_on_c, 0, 76, 69
2, 237980, Note_off_c, 0, 76, 0
2, 237984, Note_on_c, 0, 74, 70
2, 238076, Note_off_c, 0, 74, 0
2, 238080, Note_on_c, 0, 73, 72
2, 238160, Note_off_c, 0, 73, 0
2, 238656, Note_on_c, 0, 76, 79
2, 238752, Note_off_c, 0, 76, 0
2, 238752, Note_on_c, 0, 74, 80
2, 238844, Note_off_c, 0, 74, 0
2, 238848, Note_on_c, 0, 73, 81
2, 238940, Note_off_c, 0, 73, 0
2, 238944, Note_on_c, 0, 71, 82
2, 239036, Note_off_c, 0, 71, 0
2, 239040, Note_on_c, 0, 69, 83
2, 239132, Note_off_c, 0, 69, 0
2, 239136, Note_on_c, 0, 67, 84
2, 239216, Note_off_c, 0, 67, 0
2, 239232, Note_on_c, 0, 66, 85
2, 239328, Note_off_c, 0, 66, 0
2, 239328, Note_on_c, 0, 57, 85
2, 239408, Note_off_c, 0, 57, 0
2, 239424, Note_on_c, 0, 62, 85
2, 239520, Note_off_c, 0, 62, 0
2, 239520, Note_on_c, 0, 66, 85
2, 239616, Note_off_c, 0, 66, 0
2, 239616, Note_on_c, 0, 69, 85
2, 239712, Note_off_c, 0, 69, 0
2, 239712, Note_on_c, 0, 66, 85
2, 239808, Note_off_c, 0, 66, 0
2, 239808, Note_on_c, 0, 67, 85
2, 239904, Note_off_c, 0, 67, 0
2, 239904, Note_on_c, 0, 64, 85
2, 240000, Note_off_c, 0, 64, 0
2, 240000, Note_on_c, 0, 61, 85
2, 240096, Note_off_c, 0, 61, 0
2, 240096, Note_on_c, 0, 57, 85
2, 240192, Note_off_c, 0, 57, 0
2, 240192, Note_on_c, 0, 67, 85
2, 240288, Note_off_c, 0, 67, 0
2, 240288, Note_on_c, 0, 64, 85
2, 240384, Note_off_c, 0, 64, 0
2, 240384, Note_on_c, 0, 69, 85
2, 240480, Note_off_c, 0, 69, 0
2, 240480, Note_on_c, 0, 66, 85
2, 240576, Note_off_c, 0, 66, 0
2, 240576, Note_on_c, 0, 74, 85
2, 240672, Note_off_c, 0, 74, 0
2, 240672, Note_on_c, 0, 69, 85
2, 240768, Note_off_c, 0, 69, 0
2, 240768, Note_on_c, 0, 78, 85
2, 240864, Note_off_c, 0, 78, 0
2, 240864, Note_on_c, 0, 74, 85
2, 240960, Note_off_c, 0, 74, 0
2, 240960, Note_on_c, 0, 81, 85
2, 241152, Note_off_c, 0, 81, 0
2, 241152, Note_on_c, 0, 79, 85
2, 241332, Note_off_c, 0, 79, 0
2, 241536, Note_on_c, 0, 78, 85
2, 241632, Note_off_c, 0, 78, 0
2, 241632, Note_on_c, 0, 74, 85
2, 241712, Note_off_c, 0, 74, 0
2, 241728, Note_on_c, 0, 81, 85
2, 241824, Note_off_c, 0, 81, 0
2, 241824, Note_on_c, 0, 78, 85
2, 241920, Note_off_c, 0, 78, 0
2, 241920, Note_on_c, 0, 86, 85
2, 242016, Note_off_c, 0, 86, 0
2, 242016, Note_on_c, 0, 81, 85
2, 242112, Note_off_c, 0, 81, 0
2, 242112, Note_on_c, 0, 79, 85
2, 242208, Note_off_c, 0, 79, 0
2, 242208, Note_on_c, 0, 76, 85
2, 242288, Note_off_c, 0, 76, 0
2, 242304, Note_on_c, 0, 85, 85
2, 242400, Note_off_c, 0, 85, 0
2, 242400, Note_on_c, 0, 81, 85
2, 242496, Note_off_c, 0, 81, 0
2, 242496, Note_on_c, 0, 88, 85
2, 242592, Note_off_c, 0, 88, 0
2, 242592, Note_on_c, 0, 85, 85
2, 242688, Note_off_c, 0, 85, 0
2, 242688, Note_on_c, 0, 81, 85
2, 242784, Note_off_c, 0, 81, 0
2, 242784, Note_on_c, 0, 78, 85
2, 242864, Note_off_c, 0, 78, 0
2, 242880, Note_on_c, 0, 86, 85
2, 242976, Note_off_c, 0, 86, 0
2, 242976, Note_on_c, 0, 81, 85
2, 243072, Note_off_c, 0, 81, 0
2, 243072, Note_on_c, 0, 90, 85
2, 243168, Note_off_c, 0, 90, 0
2, 243168, Note_on_c, 0, 85, 85
2, 243264, Note_off_c, 0, 85, 0
2, 243264, Note_on_c, 0, 93, 85
2, 243456, Note_off_c, 0, 93, 0
2, 243456, Note_on_c, 0, 91, 85
2, 243636, Note_off_c, 0, 91, 0
2, 243840, Note_on_c, 0, 90, 95
2, 244028, Note_off_c, 0, 90, 0
2, 244032, Note_on_c, 0, 93, 85
2, 244128, Note_off_c, 0, 93, 0
2, 244128, Note_on_c, 0, 90, 85
2, 244224, Note_off_c, 0, 90, 0
2, 244224, Note_on_c, 0, 86, 85
2, 244412, Note_off_c, 0, 86, 0
2, 244416, Note_on_c, 0, 86, 95
2, 244604, Note_off_c, 0, 86, 0
2, 244608, Note_on_c, 0, 90, 85
2, 244704, Note_off_c, 0, 90, 0
2, 244704, Note_on_c, 0, 86, 85
2, 244800, Note_off_c, 0, 86, 0
2, 244800, Note_on_c, 0, 81, 85
2, 244988, Note_off_c, 0, 81, 0
2, 244992, Note_on_c, 0, 83, 95
2, 245180, Note_off_c, 0, 83, 0
2, 245184, Note_on_c, 0, 86, 85
2, 245280, Note_off_c, 0, 86, 0
2, 245280, Note_on_c, 0, 83, 85
2, 245372, Note_off_c, 0, 83, 0
2, 245376, Note_on_c, 0, 79, 85
2, 245556, Note_off_c, 0, 79, 0
2, 245568, Note_on_c, 0, 79, 95
2, 245756, Note_off_c, 0, 79, 0
2, 245760, Note_on_c, 0, 83, 85
2, 245856, Note_off_c, 0, 83, 0
2, 245856, Note_on_c, 0, 79, 85
2, 245948, Note_off_c, 0, 79, 0
2, 245952, Note_on_c, 0, 76, 85
2, 246132, Note_off_c, 0, 76, 0
2, 246144, Note_on_c, 0, 81, 85
2, 246528, Note_off_c, 0, 81, 0
2, 246528, Note_on_c, 0, 74, 85
2, 246708, Note_off_c, 0, 74, 0
2, 246720, Note_on_c, 0, 76, 85
2, 246764, Note_off_c, 0, 76, 0
2, 246768, Note_on_c, 0, 78, 85
2, 246812, Note_off_c, 0, 78, 0
2, 246816, Note_on_c, 0, 76, 85
2, 246860, Note_off_c, 0, 76, 0
2, 246864, Note_on_c, 0, 78, 85
2, 246908, Note_off_c, 0, 78, 0
2, 246912, Note_on_c, 0, 76, 85
2, 246956, Note_off_c, 0, 76, 0
2, 246960, Note_on_c, 0, 78, 85
2, 247004, Note_off_c, 0, 78, 0
2, 247008, Note_on_c, 0, 76, 85
2, 247052, Note_off_c, 0, 76, 0
2, 247056, Note_on_c, 0, 78, 85
2, 247100, Note_off_c, 0, 78, 0
2, 247104, Note_on_c, 0, 76, 85
2, 247148, Note_off_c, 0, 76, 0
2, 247152, Note_on_c, 0, 78, 85
2, 247196, Note_off_c, 0, 78, 0
2, 247200, Note_on_c, 0, 74, 85
2, 247244, Note_off_c, 0, 74, 0
2, 247248, Note_on_c, 0, 76, 85
2, 247292, Note_off_c, 0, 76, 0
2, 247296, Note_on_c, 0, 78, 95
2, 247484, Note_off_c, 0, 78, 0
2, 247488, Note_on_c, 0, 81, 85
2, 247584, Note_off_c, 0, 81, 0
2, 247584, Note_on_c, 0, 78, 85
2, 247676, Note_off_c, 0, 78, 0
2, 247680, Note_on_c, 0, 74, 85
2, 247860, Note_off_c, 0, 74, 0
2, 247872, Note_on_c, 0, 74, 95
2, 248060, Note_off_c, 0, 74, 0
2, 248064, Note_on_c, 0, 78, 85
2, 248160, Note_off_c, 0, 78, 0
2, 248160, Note_on_c, 0, 74, 85
2, 248252, Note_off_c, 0, 74, 0
2, 248256, Note_on_c, 0, 69, 85
2, 248436, Note_off_c, 0, 69, 0
2, 248448, Note_on_c, 0, 71, 95
2, 248636, Note_off_c, 0, 71, 0
2, 248640, Note_on_c, 0, 74, 85
2, 248736, Note_off_c, 0, 74, 0
2, 248736, Note_on_c, 0, 71, 85
2, 248828, Note_off_c, 0, 71, 0
2, 248832, Note_on_c, 0, 67, 85
2, 249012, Note_off_c, 0, 67, 0
2, 249024, Note_on_c, 0, 67, 95
2, 249212, Note_off_c, 0, 67, 0
2, 249216, Note_on_c, 0, 71, 85
2, 249312, Note_off_c, 0, 71, 0
2, 249312, Note_on_c, 0, 67, 85
2, 249404, Note_off_c, 0, 67, 0
2, 249408, Note_on_c, 0, 64, 85
2, 249588, Note_off_c, 0, 64, 0
2, 249600, Note_on_c, 0, 66, 86
2, 250172, Note_off_c, 0, 66, 0
2, 250176, Note_on_c, 0, 67, 87
2, 250560, Note_off_c, 0, 67, 0
2, 250560, Note_on_c, 0, 68, 88
2, 250740, Note_off_c, 0, 68, 0
2, 250752, Note_on_c, 0, 69, 85
2, 251136, Note_off_c, 0, 69, 0
2, 251136, Note_on_c, 0, 70, 86
2, 251316, Note_off_c, 0, 70, 0
2, 251328, Note_on_c, 0, 71, 86
2, 251712, Note_off_c, 0, 71, 0
2, 251712, Note_on_c, 0, 73, 87
2, 251892, Note_off_c, 0, 73, 0
2, 251904, Note_on_c, 0, 74, 87
2, 252096, Note_off_c, 0, 74, 0
2, 252096, Note_on_c, 0, 75, 88
2, 252284, Note_off_c, 0, 75, 0
2, 252288, Note_on_c, 0, 76, 88
2, 252476, Note_off_c, 0, 76, 0
2, 252480, Note_on_c, 0, 78, 89
2, 252668, Note_off_c, 0, 78, 0
2, 252672, Note_on_c, 0, 79, 89
2, 252860, Note_off_c, 0, 79, 0
2, 252864, Note_on_c, 0, 80, 90
2, 253044, Note_off_c, 0, 80, 0
2, 253056, Note_on_c, 0, 81, 90
2, 253628, Note_off_c, 0, 81, 0
2, 254208, Note_on_c, 0, 69, 75
2, 254292, Note_off_c, 0, 69, 0
2, 254304, Note_on_c, 0, 81, 65
2, 254588, Note_off_c, 0, 81, 0
2, 254592, Note_on_c, 0, 81, 65
2, 254972, Note_off_c, 0, 81, 0
2, 254976, Note_on_c, 0, 69, 75
2, 255012, Note_off_c, 0, 69, 0
2, 255024, Note_on_c, 0, 78, 75
2, 255060, Note_off_c, 0, 78, 0
2, 255072, Note_on_c, 0, 81, 70
2, 255164, Note_off_c, 0, 81, 0
2, 255168, Note_on_c, 0, 82, 80
2, 255348, Note_off_c, 0, 82, 0
2, 255360, Note_on_c, 0, 83, 80
2, 255360, Note_on_c, 0, 79, 80
2, 255552, Note_off_c, 0, 83, 0
2, 255552, Note_off_c, 0, 79, 0
2, 255552, Note_on_c, 0, 69, 70
2, 255732, Note_off_c, 0, 69, 0
2, 255744, Note_on_c, 0, 79, 67
2, 255744, Note_on_c, 0, 76, 67
2, 256124, Note_off_c, 0, 79, 0
2, 256124, Note_off_c, 0, 76, 0
2, 256128, Note_on_c, 0, 79, 65
2, 256128, Note_on_c, 0, 76, 65
2, 256508, Note_off_c, 0, 79, 0
2, 256508, Note_off_c, 0, 76, 0
2, 256512, Note_on_c, 0, 79, 69
2, 256512, Note_on_c, 0, 76, 69
2, 256704, Note_off_c, 0, 79, 0
2, 256704, Note_off_c, 0, 76, 0
2, 256704, Note_on_c, 0, 80, 76
2, 256704, Note_on_c, 0, 77, 76
2, 256884, Note_off_c, 0, 80, 0
2, 256884, Note_off_c, 0, 77, 0
2, 256896, Note_on_c, 0, 78, 80
2, 256896, Note_on_c, 0, 81, 80
2, 257088, Note_off_c, 0, 78, 0
2, 257088, Note_off_c, 0, 81, 0
2, 257088, Note_on_c, 0, 69, 70
2, 257268, Note_off_c, 0, 69, 0
2, 257280, Note_on_c, 0, 74, 67
2, 257660, Note_off_c, 0, 74, 0
2, 257664, Note_on_c, 0, 76, 65
2, 258044, Note_off_c, 0, 76, 0
2, 258048, Note_on_c, 0, 58, 77
2, 258084, Note_off_c, 0, 58, 0
2, 258096, Note_on_c, 0, 67, 77
2, 258132, Note_off_c, 0, 67, 0
2, 258144, Note_on_c, 0, 79, 65
2, 258236, Note_off_c, 0, 79, 0
2, 258240, Note_on_c, 0, 77, 65
2, 258428, Note_off_c, 0, 77, 0
2, 258432, Note_on_c, 0, 76, 65
2, 258620, Note_off_c, 0, 76, 0
2, 258624, Note_on_c, 0, 74, 65
2, 258804, Note_off_c, 0, 74, 0
2, 258816, Note_on_c, 0, 74, 65
2, 259196, Note_off_c, 0, 74, 0
2, 259200, Note_on_c, 0, 74, 65
2, 259200, Note_on_c, 0, 68, 65
2, 259580, Note_off_c, 0, 74, 0
2, 259580, Note_off_c, 0, 68, 0
2, 259584, Note_on_c, 0, 73, 65
2, 259584, Note_on_c, 0, 69, 65
2, 260160, Note_off_c, 0, 73, 0
2, 260160, Note_off_c, 0, 69, 0
2, 260160, Note_on_c, 0, 74, 65
2, 260340, Note_off_c, 0, 74, 0
2, 260352, Note_on_c, 0, 75, 65
2, 260544, Note_off_c, 0, 75, 0
2, 260544, Note_on_c, 0, 76, 65
2, 260732, Note_off_c, 0, 76, 0
2, 260736, Note_on_c, 0, 81, 65
2, 260924, Note_off_c, 0, 81, 0
2, 260928, Note_on_c, 0, 76, 65
2, 261108, Note_off_c, 0, 76, 0
2, 261120, Note_on_c, 0, 68, 77
2, 261172, Note_off_c, 0, 68, 0
2, 261176, Note_on_c, 0, 79, 65
2, 261308, Note_off_c, 0, 79, 0
2, 261312, Note_on_c, 0, 77, 70
2, 261500, Note_off_c, 0, 77, 0
2, 261504, Note_on_c, 0, 76, 75
2, 261692, Note_off_c, 0, 76, 0
2, 261696, Note_on_c, 0, 74, 80
2, 261876, Note_off_c, 0, 74, 0
2, 261888, Note_on_c, 0, 74, 80
2, 261888, Note_on_c, 0, 65, 80
2, 262080, Note_off_c, 0, 65, 0
2, 262080, Note_on_c, 0, 65, 75
2, 262268, Note_off_c, 0, 65, 0
2, 262272, Note_on_c, 0, 67, 70
2, 262460, Note_off_c, 0, 67, 0
2, 262464, Note_on_c, 0, 68, 68
2, 262644, Note_off_c, 0, 68, 0
2, 262656, Note_off_c, 0, 74, 0
2, 262656, Note_on_c, 0, 73, 66
2, 262656, Note_on_c, 0, 69, 66
2, 263424, Note_off_c, 0, 73, 0
2, 263424, Note_off_c, 0, 69, 0
2, 263616, Note_on_c, 0, 57, 65
2, 263712, Note_off_c, 0, 57, 0
2, 263712, Note_on_c, 0, 56, 65
2, 263804, Note_off_c, 0, 56, 0
2, 263808, Note_on_c, 0, 57, 65
2, 263900, Note_off_c, 0, 57, 0
2, 263904, Note_on_c, 0, 56, 65
2, 263996, Note_off_c, 0, 56, 0
2, 264000, Note_on_c, 0, 57, 65
2, 264180, Note_off_c, 0, 57, 0
2, 264192, Note_on_c, 0, 59, 65
2, 264288, Note_off_c, 0, 59, 0
2, 264384, Note_on_c, 0, 60, 65
2, 264464, Note_off_c, 0, 60, 0
2, 264576, Note_on_c, 0, 61, 65
2, 264960, Note_off_c, 0, 61, 0
2, 264960, Note_on_c, 0, 57, 65
2, 265148, Note_off_c, 0, 57, 0
2, 265920, Note_on_c, 0, 73, 65
2, 265920, Note_on_c, 0, 69, 65
2, 266016, Note_off_c, 0, 73, 0
2, 266016, Note_off_c, 0, 69, 0
2, 266016, Note_on_c, 0, 72, 65
2, 266016, Note_on_c, 0, 68, 65
2, 266108, Note_off_c, 0, 72, 0
2, 266108, Note_off_c, 0, 68, 0
2, 266112, Note_on_c, 0, 73, 65
2, 266112, Note_on_c, 0, 69, 65
2, 266204, Note_off_c, 0, 73, 0
2, 266204, Note_off_c, 0, 69, 0
2, 266208, Note_on_c, 0, 72, 65
2, 266208, Note_on_c, 0, 68, 65
2, 266300, Note_off_c, 0, 72, 0
2, 266300, Note_off_c, 0, 68, 0
2, 266304, Note_on_c, 0, 73, 65
2, 266304, Note_on_c, 0, 69, 65
2, 266484, Note_off_c, 0, 73, 0
2, 266484, Note_off_c, 0, 69, 0
2, 266496, Note_on_c, 0, 74, 65
2, 266496, Note_on_c, 0, 72, 65
2, 266592, Note_off_c, 0, 74, 0
2, 266592, Note_off_c, 0, 72, 0
2, 266688, Note_on_c, 0, 75, 65
2, 266688, Note_on_c, 0, 73, 65
2, 266768, Note_off_c, 0, 75, 0
2, 266768, Note_off_c, 0, 73, 0
2, 266880, Note_on_c, 0, 76, 65
2, 266880, Note_on_c, 0, 73, 65
2, 267256, Note_off_c, 0, 76, 0
2, 267256, Note_off_c, 0, 73, 0
2, 267264, Note_on_c, 0, 73, 65
2, 267264, Note_on_c, 0, 69, 65
2, 267424, Note_off_c, 0, 73, 0
2, 267424, Note_off_c, 0, 69, 0
2, 267456, Note_on_c, 0, 76, 65
2, 267456, Note_on_c, 0, 73, 65
2, 267552, Note_off_c, 0, 76, 0
2, 267552, Note_off_c, 0, 73, 0
2, 267648, Note_on_c, 0, 77, 65
2, 267648, Note_on_c, 0, 73, 65
2, 267740, Note_off_c, 0, 77, 0
2, 267740, Note_off_c, 0, 73, 0
2, 267840, Note_on_c, 0, 78, 65
2, 267840, Note_on_c, 0, 74, 65
2, 267920, Note_off_c, 0, 78, 0
2, 267920, Note_off_c, 0, 74, 0
2, 268032, Note_on_c, 0, 79, 65
2, 268032, Note_on_c, 0, 76, 65
2, 268124, Note_off_c, 0, 79, 0
2, 268124, Note_off_c, 0, 76, 0
2, 268224, Note_on_c, 0, 58, 65
2, 268316, Note_off_c, 0, 58, 0
2, 268416, Note_on_c, 0, 61, 65
2, 268508, Note_off_c, 0, 61, 0
2, 268608, Note_on_c, 0, 64, 65
2, 268700, Note_off_c, 0, 64, 0
2, 268800, Note_on_c, 0, 67, 65
2, 268892, Note_off_c, 0, 67, 0
2, 268992, Note_on_c, 0, 73, 65
2, 269084, Note_off_c, 0, 73, 0
2, 269184, Note_on_c, 0, 78, 65
2, 269184, Note_on_c, 0, 75, 65
2, 269276, Note_off_c, 0, 78, 0
2, 269276, Note_off_c, 0, 75, 0
2, 269376, Note_on_c, 0, 59, 65
2, 269468, Note_off_c, 0, 59, 0
2, 269568, Note_on_c, 0, 66, 65
2, 269660, Note_off_c, 0, 66, 0
2, 269760, Note_on_c, 0, 71, 65
2, 269852, Note_off_c, 0, 71, 0
2, 269952, Note_on_c, 0, 75, 65
2, 270044, Note_off_c, 0, 75, 0
2, 270144, Note_on_c, 0, 78, 65
2, 270236, Note_off_c, 0, 78, 0
2, 270336, Note_on_c, 0, 81, 66
2, 270336, Note_on_c, 0, 72, 66
2, 270428, Note_off_c, 0, 81, 0
2, 270428, Note_off_c, 0, 72, 0
2, 270528, Note_on_c, 0, 63, 67
2, 270620, Note_off_c, 0, 63, 0
2, 270720, Note_on_c, 0, 66, 69
2, 270812, Note_off_c, 0, 66, 0
2, 270912, Note_on_c, 0, 69, 71
2, 271004, Note_off_c, 0, 69, 0
2, 271104, Note_on_c, 0, 73, 72
2, 271196, Note_off_c, 0, 73, 0
2, 271296, Note_on_c, 0, 78, 74
2, 271388, Note_off_c, 0, 78, 0
2, 271488, Note_on_c, 0, 79, 76
2, 271488, Note_on_c, 0, 71, 76
2, 271580, Note_off_c, 0, 79, 0
2, 271580, Note_off_c, 0, 71, 0
2, 271680, Note_on_c, 0, 64, 77
2, 271772, Note_off_c, 0, 64, 0
2, 271872, Note_on_c, 0, 67, 79
2, 271964, Note_off_c, 0, 67, 0
2, 272064, Note_on_c, 0, 71, 81
2, 272156, Note_off_c, 0, 71, 0
2, 272256, Note_on_c, 0, 74, 82
2, 272348, Note_off_c, 0, 74, 0
2, 272448, Note_on_c, 0, 79, 84
2, 272540, Note_off_c, 0, 79, 0
2, 272640, Note_on_c, 0, 84, 85
2, 272640, Note_on_c, 0, 69, 85
2, 272640, Note_on_c, 0, 64, 85
2, 272640, Note_on_c, 0, 57, 85
2, 273216, Note_off_c, 0, 84, 0
2, 273216, Note_off_c, 0, 69, 0
2, 273216, Note_off_c, 0, 64, 0
2, 273216, Note_off_c, 0, 57, 0
2, 273216, Note_on_c, 0, 84, 85
2, 273216, Note_on_c, 0, 76, 85
2, 273402, Note_off_c, 0, 84, 0
2, 273402, Note_off_c, 0, 76, 0
2, 273408, Note_on_c, 0, 84, 85
2, 273504, Note_off_c, 0, 84, 0
2, 273504, Note_on_c, 0, 83, 85
2, 273598, Note_off_c, 0, 83, 0
2, 273600, Note_on_c, 0, 84, 85
2, 273694, Note_off_c, 0, 84, 0
2, 273696, Note_on_c, 0, 83, 85
2, 273786, Note_off_c, 0, 83, 0
2, 273792, Note_on_c, 0, 81, 85
2, 273792, Note_on_c, 0, 78, 85
2, 273886, Note_off_c, 0, 81, 0
2, 273886, Note_off_c, 0, 78, 0
2, 273984, Note_on_c, 0, 81, 85
2, 274080, Note_off_c, 0, 81, 0
2, 274080, Note_on_c, 0, 80, 85
2, 274174, Note_off_c, 0, 80, 0
2, 274176, Note_on_c, 0, 81, 85
2, 274270, Note_off_c, 0, 81, 0
2, 274272, Note_on_c, 0, 79, 85
2, 274362, Note_off_c, 0, 79, 0
2, 274368, Note_on_c, 0, 78, 85
2, 274368, Note_on_c, 0, 74, 85
2, 274556, Note_off_c, 0, 78, 0
2, 274556, Note_off_c, 0, 74, 0
2, 274560, Note_on_c, 0, 78, 85
2, 274652, Note_off_c, 0, 78, 0
2, 274656, Note_on_c, 0, 77, 85
2, 274748, Note_off_c, 0, 77, 0
2, 274752, Note_on_c, 0, 78, 85
2, 274844, Note_off_c, 0, 78, 0
2, 274848, Note_on_c, 0, 76, 85
2, 274940, Note_off_c, 0, 76, 0
2, 274944, Note_on_c, 0, 74, 85
2, 275132, Note_off_c, 0, 74, 0
2, 275136, Note_on_c, 0, 78, 85
2, 275324, Note_off_c, 0, 78, 0
2, 275328, Note_on_c, 0, 81, 85
2, 275516, Note_off_c, 0, 81, 0
2, 275520, Note_on_c, 0, 83, 95
2, 275520, Note_on_c, 0, 78, 95
2, 275520, Note_on_c, 0, 67, 95
2, 276092, Note_off_c, 0, 83, 0
2, 276092, Note_off_c, 0, 78, 0
2, 276092, Note_off_c, 0, 67, 0
2, 276096, Note_on_c, 0, 78, 85
2, 276096, Note_on_c, 0, 83, 85
2, 276284, Note_off_c, 0, 78, 0
2, 276284, Note_off_c, 0, 83, 0
2, 276288, Note_on_c, 0, 83, 85
2, 276380, Note_off_c, 0, 83, 0
2, 276384, Note_on_c, 0, 82, 85
2, 276476, Note_off_c, 0, 82, 0
2, 276480, Note_on_c, 0, 83, 85
2, 276572, Note_off_c, 0, 83, 0
2, 276576, Note_on_c, 0, 81, 85
2, 276668, Note_off_c, 0, 81, 0
2, 276672, Note_on_c, 0, 79, 85
2, 276672, Note_on_c, 0, 76, 85
2, 276860, Note_off_c, 0, 79, 0
2, 276860, Note_off_c, 0, 76, 0
2, 276864, Note_on_c, 0, 79, 85
2, 276956, Note_off_c, 0, 79, 0
2, 276960, Note_on_c, 0, 78, 85
2, 277052, Note_off_c, 0, 78, 0
2, 277056, Note_on_c, 0, 79, 85
2, 277148, Note_off_c, 0, 79, 0
2, 277152, Note_on_c, 0, 77, 85
2, 277244, Note_off_c, 0, 77, 0
2, 277248, Note_on_c, 0, 76, 85
2, 277248, Note_on_c, 0, 72, 85
2, 277436, Note_off_c, 0, 76, 0
2, 277436, Note_off_c, 0, 72, 0
2, 277440, Note_on_c, 0, 77, 85
2, 277628, Note_off_c, 0, 77, 0
2, 277632, Note_on_c, 0, 79, 85
2, 277820, Note_off_c, 0, 79, 0
2, 277824, Note_on_c, 0, 81, 85
2, 277824, Note_on_c, 0, 72, 85
2, 277824, Note_on_c, 0, 65, 85
2, 278012, Note_off_c, 0, 81, 0
2, 278012, Note_off_c, 0, 72, 0
2, 278012, Note_off_c, 0, 65, 0
2, 278016, Note_on_c, 0, 81, 85
2, 278108, Note_off_c, 0, 81, 0
2, 278112, Note_on_c, 0, 80, 85
2, 278204, Note_off_c, 0, 80, 0
2, 278208, Note_on_c, 0, 81, 85
2, 278300, Note_off_c, 0, 81, 0
2, 278304, Note_on_c, 0, 79, 85
2, 278396, Note_off_c, 0, 79, 0
2, 278400, Note_on_c, 0, 77, 95
2, 278400, Note_on_c, 0, 72, 95
2, 278400, Note_on_c, 0, 62, 95
2, 278588, Note_off_c, 0, 77, 0
2, 278588, Note_off_c, 0, 72, 0
2, 278588, Note_off_c, 0, 62, 0
2, 278592, Note_on_c, 0, 77, 85
2, 278684, Note_off_c, 0, 77, 0
2, 278688, Note_on_c, 0, 76, 85
2, 278780, Note_off_c, 0, 76, 0
2, 278784, Note_on_c, 0, 77, 85
2, 278876, Note_off_c, 0, 77, 0
2, 278880, Note_on_c, 0, 76, 85
2, 278972, Note_off_c, 0, 76, 0
2, 278976, Note_on_c, 0, 74, 95
2, 278976, Note_on_c, 0, 69, 95
2, 278976, Note_on_c, 0, 59, 95
2, 279164, Note_off_c, 0, 74, 0
2, 279164, Note_off_c, 0, 69, 0
2, 279164, Note_off_c, 0, 59, 0
2, 279168, Note_on_c, 0, 74, 85
2, 279260, Note_off_c, 0, 74, 0
2, 279264, Note_on_c, 0, 73, 85
2, 279356, Note_off_c, 0, 73, 0
2, 279360, Note_on_c, 0, 74, 85
2, 279452, Note_off_c, 0, 74, 0
2, 279456, Note_on_c, 0, 72, 85
2, 279548, Note_off_c, 0, 72, 0
2, 279552, Note_on_c, 0, 71, 95
2, 279552, Note_on_c, 0, 62, 95
2, 279740, Note_off_c, 0, 71, 0
2, 279740, Note_off_c, 0, 62, 0
2, 279744, Note_on_c, 0, 71, 85
2, 279836, Note_off_c, 0, 71, 0
2, 279840, Note_on_c, 0, 70, 85
2, 279932, Note_off_c, 0, 70, 0
2, 279936, Note_on_c, 0, 71, 85
2, 280028, Note_off_c, 0, 71, 0
2, 280032, Note_on_c, 0, 69, 85
2, 280124, Note_off_c, 0, 69, 0
2, 280128, Note_on_c, 0, 68, 85
2, 280220, Note_off_c, 0, 68, 0
2, 280224, Note_on_c, 0, 64, 85
2, 280316, Note_off_c, 0, 64, 0
2, 280320, Note_on_c, 0, 71, 85
2, 280412, Note_off_c, 0, 71, 0
2, 280416, Note_on_c, 0, 68, 85
2, 280508, Note_off_c, 0, 68, 0
2, 280512, Note_on_c, 0, 74, 85
2, 280604, Note_off_c, 0, 74, 0
2, 280608, Note_on_c, 0, 71, 85
2, 280700, Note_off_c, 0, 71, 0
2, 280704, Note_on_c, 0, 73, 85
2, 280796, Note_off_c, 0, 73, 0
2, 280800, Note_on_c, 0, 69, 85
2, 280892, Note_off_c, 0, 69, 0
2, 280896, Note_on_c, 0, 76, 85
2, 280988, Note_off_c, 0, 76, 0
2, 280992, Note_on_c, 0, 73, 85
2, 281084, Note_off_c, 0, 73, 0
2, 281088, Note_on_c, 0, 81, 85
2, 281180, Note_off_c, 0, 81, 0
2, 281184, Note_on_c, 0, 76, 85
2, 281276, Note_off_c, 0, 76, 0
2, 281280, Note_on_c, 0, 73, 85
2, 281372, Note_off_c, 0, 73, 0
2, 281376, Note_on_c, 0, 70, 85
2, 281468, Note_off_c, 0, 70, 0
2, 281472, Note_on_c, 0, 76, 85
2, 281564, Note_off_c, 0, 76, 0
2, 281568, Note_on_c, 0, 73, 85
2, 281660, Note_off_c, 0, 73, 0
2, 281664, Note_on_c, 0, 79, 85
2, 281756, Note_off_c, 0, 79, 0
2, 281760, Note_on_c, 0, 76, 85
2, 281852, Note_off_c, 0, 76, 0
2, 281856, Note_on_c, 0, 78, 65
2, 281948, Note_off_c, 0, 78, 0
2, 281952, Note_on_c, 0, 74, 65
2, 282044, Note_off_c, 0, 74, 0
2, 282048, Note_on_c, 0, 82, 65
2, 282140, Note_off_c, 0, 82, 0
2, 282144, Note_on_c, 0, 78, 65
2, 282236, Note_off_c, 0, 78, 0
2, 282240, Note_on_c, 0, 86, 65
2, 282332, Note_off_c, 0, 86, 0
2, 282336, Note_on_c, 0, 82, 65
2, 282428, Note_off_c, 0, 82, 0
2, 282432, Note_on_c, 0, 77, 85
2, 282524, Note_off_c, 0, 77, 0
2, 282528, Note_on_c, 0, 74, 85
2, 282620, Note_off_c, 0, 74, 0
2, 282624, Note_on_c, 0, 89, 85
2, 282716, Note_off_c, 0, 89, 0
2, 282720, Note_on_c, 0, 86, 85
2, 282812, Note_off_c, 0, 86, 0
2, 282816, Note_on_c, 0, 82, 85
2, 282908, Note_off_c, 0, 82, 0
2, 282912, Note_on_c, 0, 77, 85
2, 283004, Note_off_c, 0, 77, 0
2, 283008, Note_on_c, 0, 82, 75
2, 283034, Note_off_c, 0, 82, 0
2, 283036, Note_on_c, 0, 91, 65
2, 283224, Note_off_c, 0, 91, 0
2, 283584, Note_on_c, 0, 74, 65
2, 283584, Note_on_c, 0, 62, 65
2, 283956, Note_off_c, 0, 74, 0
2, 283956, Note_off_c, 0, 62, 64
2, 283968, Note_on_c, 0, 72, 65
2, 283968, Note_on_c, 0, 60, 65
2, 284148, Note_off_c, 0, 72, 0
2, 284148, Note_off_c, 0, 60, 64
2, 284160, Note_on_c, 0, 70, 85
2, 284160, Note_on_c, 0, 58, 85
2, 285288, Note_off_c, 0, 70, 0
2, 285288, Note_off_c, 0, 58, 0
2, 285312, Note_on_c, 0, 69, 65
2, 285312, Note_on_c, 0, 57, 65
2, 285692, Note_off_c, 0, 69, 0
2, 285692, Note_off_c, 0, 57, 64
2, 285696, Note_on_c, 0, 68, 65
2, 285696, Note_on_c, 0, 56, 65
2, 285884, Note_off_c, 0, 68, 0
2, 285884, Note_off_c, 0, 56, 0
2, 285888, Note_on_c, 0, 57, 84
2, 285928, Note_off_c, 0, 57, 0
2, 285936, Note_on_c, 0, 64, 84
2, 285976, Note_off_c, 0, 64, 0
2, 285984, Note_on_c, 0, 73, 79
2, 286080, Note_on_c, 0, 74, 76
2, 286172, Note_off_c, 0, 73, 0
2, 286268, Note_off_c, 0, 74, 0
2, 286272, Note_on_c, 0, 76, 70
2, 286460, Note_off_c, 0, 76, 0
2, 286464, Note_on_c, 0, 68, 75
2, 286504, Note_off_c, 0, 68, 0
2, 286512, Note_on_c, 0, 77, 65
2, 286656, Note_on_c, 0, 76, 65
2, 286674, Note_off_c, 0, 77, 0
2, 286844, Note_off_c, 0, 76, 0
2, 286848, Note_on_c, 0, 74, 65
2, 287036, Note_off_c, 0, 74, 0
2, 287040, Note_on_c, 0, 73, 65
2, 287040, Note_on_c, 0, 69, 65
2, 287228, Note_off_c, 0, 73, 0
2, 287228, Note_off_c, 0, 69, 0
2, 287232, Note_on_c, 0, 74, 65
2, 287420, Note_off_c, 0, 74, 0
2, 287424, Note_on_c, 0, 76, 65
2, 287612, Note_off_c, 0, 76, 0
2, 287616, Note_on_c, 0, 70, 75
2, 287656, Note_off_c, 0, 70, 0
2, 287664, Note_on_c, 0, 79, 65
2, 287808, Note_on_c, 0, 77, 65
2, 287826, Note_off_c, 0, 79, 0
2, 287996, Note_off_c, 0, 77, 0
2, 288000, Note_on_c, 0, 74, 65
2, 288188, Note_off_c, 0, 74, 0
2, 288192, Note_on_c, 0, 73, 66
2, 288572, Note_off_c, 0, 73, 0
2, 288576, Note_on_c, 0, 69, 59
2, 288764, Note_off_c, 0, 69, 0
2, 288768, Note_on_c, 0, 76, 65
2, 288860, Note_off_c, 0, 76, 0
2, 288864, Note_on_c, 0, 69, 65
2, 288956, Note_off_c, 0, 69, 0
2, 288960, Note_on_c, 0, 76, 65
2, 289052, Note_off_c, 0, 76, 0
2, 289056, Note_on_c, 0, 69, 65
2, 289148, Note_off_c, 0, 69, 0
2, 289152, Note_on_c, 0, 79, 65
2, 289244, Note_off_c, 0, 79, 0
2, 289248, Note_on_c, 0, 69, 65
2, 289340, Note_off_c, 0, 69, 0
2, 289344, Note_on_c, 0, 79, 66
2, 289436, Note_off_c, 0, 79, 0
2, 289440, Note_on_c, 0, 69, 66
2, 289532, Note_off_c, 0, 69, 0
2, 289536, Note_on_c, 0, 81, 65
2, 289628, Note_off_c, 0, 81, 0
2, 289632, Note_on_c, 0, 69, 64
2, 289724, Note_off_c, 0, 69, 0
2, 289728, Note_on_c, 0, 81, 63
2, 289820, Note_off_c, 0, 81, 0
2, 289824, Note_on_c, 0, 69, 62
2, 289916, Note_off_c, 0, 69, 0
2, 289920, Note_on_c, 0, 85, 61
2, 290012, Note_off_c, 0, 85, 0
2, 290016, Note_on_c, 0, 69, 60
2, 290108, Note_off_c, 0, 69, 0
2, 290112, Note_on_c, 0, 85, 59
2, 290204, Note_off_c, 0, 85, 0
2, 290208, Note_on_c, 0, 69, 58
2, 290300, Note_off_c, 0, 69, 0
2, 290304, Note_on_c, 0, 88, 57
2, 290396, Note_off_c, 0, 88, 0
2, 290400, Note_on_c, 0, 69, 56
2, 290492, Note_off_c, 0, 69, 0
2, 290496, Note_on_c, 0, 91, 55
2, 290780, Note_off_c, 0, 91, 0
2, 291216, Note_on_c, 0, 83, 75
2, 291256, Note_off_c, 0, 83, 0
2, 291264, Note_on_c, 0, 81, 65
2, 291548, Note_off_c, 0, 81, 0
2, 291552, Note_on_c, 0, 80, 65
2, 291642, Note_off_c, 0, 80, 0
2, 291648, Note_on_c, 0, 81, 65
2, 291836, Note_off_c, 0, 81, 0
2, 291840, Note_on_c, 0, 78, 65
2, 292028, Note_off_c, 0, 78, 0
2, 292032, Note_on_c, 0, 74, 65
2, 292220, Note_off_c, 0, 74, 0
2, 292224, Note_on_c, 0, 76, 65
2, 292412, Note_off_c, 0, 76, 0
2, 292416, Note_on_c, 0, 76, 65
2, 292796, Note_off_c, 0, 76, 0
2, 292800, Note_on_c, 0, 78, 65
2, 292988, Note_off_c, 0, 78, 0
2, 292988, Note_on_c, 0, 79, 70
2, 293132, Note_off_c, 0, 79, 0
2, 293136, Note_on_c, 0, 76, 75
2, 293172, Note_off_c, 0, 76, 0
2, 293184, Note_on_c, 0, 81, 80
2, 293372, Note_off_c, 0, 81, 0
2, 293376, Note_on_c, 0, 81, 80
2, 293520, Note_off_c, 0, 81, 0
2, 293520, Note_on_c, 0, 78, 76
2, 293568, Note_off_c, 0, 78, 0
2, 293568, Note_on_c, 0, 83, 73
2, 293756, Note_off_c, 0, 83, 0
2, 293760, Note_on_c, 0, 83, 71
2, 293904, Note_off_c, 0, 83, 0
2, 293904, Note_on_c, 0, 79, 69
2, 293940, Note_off_c, 0, 79, 0
2, 293952, Note_on_c, 0, 76, 67
2, 294140, Note_off_c, 0, 76, 0
2, 294432, Note_on_c, 0, 82, 65
2, 294528, Note_off_c, 0, 82, 0
2, 294528, Note_on_c, 0, 83, 65
2, 294624, Note_off_c, 0, 83, 0
2, 294624, Note_on_c, 0, 79, 65
2, 294720, Note_off_c, 0, 79, 0
2, 294720, Note_on_c, 0, 76, 65
2, 294908, Note_off_c, 0, 76, 0
2, 295200, Note_on_c, 0, 82, 55
2, 295292, Note_off_c, 0, 82, 0
2, 295296, Note_on_c, 0, 83, 55
2, 295340, Note_off_c, 0, 83, 0
2, 295344, Note_on_c, 0, 79, 55
2, 295388, Note_off_c, 0, 79, 0
2, 295392, Note_on_c, 0, 83, 55
2, 295436, Note_off_c, 0, 83, 0
2, 295440, Note_on_c, 0, 79, 55
2, 295484, Note_off_c, 0, 79, 0
2, 295488, Note_on_c, 0, 76, 55
2, 295676, Note_off_c, 0, 76, 0
2, 296832, Note_on_c, 0, 86, 75
2, 296932, Note_off_c, 0, 86, 0
2, 297024, Note_on_c, 0, 85, 75
2, 297124, Note_off_c, 0, 85, 0
2, 297216, Note_on_c, 0, 83, 75
2, 297316, Note_off_c, 0, 83, 0
2, 297408, Note_on_c, 0, 80, 85
2, 297788, Note_off_c, 0, 80, 0
2, 297792, Note_on_c, 0, 81, 65
2, 297980, Note_off_c, 0, 81, 0
2, 297984, Note_on_c, 0, 83, 65
2, 298084, Note_off_c, 0, 83, 0
2, 298176, Note_on_c, 0, 81, 65
2, 298276, Note_off_c, 0, 81, 0
2, 298368, Note_on_c, 0, 79, 65
2, 298468, Note_off_c, 0, 79, 0
2, 298560, Note_on_c, 0, 77, 85
2, 298940, Note_off_c, 0, 77, 0
2, 298944, Note_on_c, 0, 78, 65
2, 299132, Note_off_c, 0, 78, 0
2, 299136, Note_on_c, 0, 83, 65
2, 299232, Note_off_c, 0, 83, 0
2, 299232, Note_on_c, 0, 81, 65
2, 299312, Note_off_c, 0, 81, 0
2, 299328, Note_on_c, 0, 79, 65
2, 299372, Note_off_c, 0, 79, 0
2, 299424, Note_on_c, 0, 78, 65
2, 299468, Note_off_c, 0, 78, 0
2, 299520, Note_on_c, 0, 76, 65
2, 299564, Note_off_c, 0, 76, 0
2, 299616, Note_on_c, 0, 74, 65
2, 299660, Note_off_c, 0, 74, 0
2, 299712, Note_on_c, 0, 73, 65
2, 299808, Note_off_c, 0, 73, 0
2, 299808, Note_on_c, 0, 71, 65
2, 299888, Note_off_c, 0, 71, 0
2, 299904, Note_on_c, 0, 76, 65
2, 300000, Note_off_c, 0, 76, 0
2, 300000, Note_on_c, 0, 75, 65
2, 300080, Note_off_c, 0, 75, 0
2, 300096, Note_on_c, 0, 78, 65
2, 300192, Note_off_c, 0, 78, 0
2, 300192, Note_on_c, 0, 76, 65
2, 300272, Note_off_c, 0, 76, 0
2, 300288, Note_on_c, 0, 79, 65
2, 300576, Note_off_c, 0, 79, 0
2, 300576, Note_on_c, 0, 76, 65
2, 300668, Note_off_c, 0, 76, 0
2, 300672, Note_on_c, 0, 79, 65
2, 300764, Note_off_c, 0, 79, 0
2, 300768, Note_on_c, 0, 76, 65
2, 300848, Note_off_c, 0, 76, 0
2, 300864, Note_on_c, 0, 78, 65
2, 301052, Note_off_c, 0, 78, 0
2, 301440, Note_on_c, 0, 86, 65
2, 301540, Note_off_c, 0, 86, 0
2, 301632, Note_on_c, 0, 85, 65
2, 301732, Note_off_c, 0, 85, 0
2, 301824, Note_on_c, 0, 83, 65
2, 301924, Note_off_c, 0, 83, 0
2, 302016, Note_on_c, 0, 80, 85
2, 302400, Note_off_c, 0, 80, 0
2, 302400, Note_on_c, 0, 81, 65
2, 302580, Note_off_c, 0, 81, 0
2, 302592, Note_on_c, 0, 83, 65
2, 302692, Note_off_c, 0, 83, 0
2, 302784, Note_on_c, 0, 81, 65
2, 302884, Note_off_c, 0, 81, 0
2, 302976, Note_on_c, 0, 79, 65
2, 303076, Note_off_c, 0, 79, 0
2, 303168, Note_on_c, 0, 77, 85
2, 303552, Note_off_c, 0, 77, 0
2, 303552, Note_on_c, 0, 78, 65
2, 303732, Note_off_c, 0, 78, 0
2, 303744, Note_on_c, 0, 83, 65
2, 303840, Note_off_c, 0, 83, 0
2, 303840, Note_on_c, 0, 81, 65
2, 303920, Note_off_c, 0, 81, 0
2, 303936, Note_on_c, 0, 79, 65
2, 303980, Note_off_c, 0, 79, 0
2, 304032, Note_on_c, 0, 78, 65
2, 304076, Note_off_c, 0, 78, 0
2, 304128, Note_on_c, 0, 76, 65
2, 304172, Note_off_c, 0, 76, 0
2, 304224, Note_on_c, 0, 74, 65
2, 304268, Note_off_c, 0, 74, 0
2, 304320, Note_on_c, 0, 73, 65
2, 304416, Note_off_c, 0, 73, 0
2, 304416, Note_on_c, 0, 71, 65
2, 304496, Note_off_c, 0, 71, 0
2, 304512, Note_on_c, 0, 76, 65
2, 304608, Note_off_c, 0, 76, 0
2, 304608, Note_on_c, 0, 74, 65
2, 304688, Note_off_c, 0, 74, 0
2, 304704, Note_on_c, 0, 78, 65
2, 304800, Note_off_c, 0, 78, 0
2, 304800, Note_on_c, 0, 76, 65
2, 304880, Note_off_c, 0, 76, 0
2, 304896, Note_on_c, 0, 79, 65
2, 305184, Note_off_c, 0, 79, 0
2, 305184, Note_on_c, 0, 76, 65
2, 305276, Note_off_c, 0, 76, 0
2, 305280, Note_on_c, 0, 79, 65
2, 305372, Note_off_c, 0, 79, 0
2, 305376, Note_on_c, 0, 76, 65
2, 305456, Note_off_c, 0, 76, 0
2, 305472, Note_on_c, 0, 74, 65
2, 305572, Note_off_c, 0, 74, 0
2, 305664, Note_on_c, 0, 76, 65
2, 305764, Note_off_c, 0, 76, 0
2, 305856, Note_on_c, 0, 78, 65
2, 305956, Note_off_c, 0, 78, 0
2, 306048, Note_on_c, 0, 79, 65
2, 306148, Note_off_c, 0, 79, 0
2, 306240, Note_on_c, 0, 81, 65
2, 306340, Note_off_c, 0, 81, 0
2, 306432, Note_on_c, 0, 83, 65
2, 306532, Note_off_c, 0, 83, 0
2, 306624, Note_on_c, 0, 83, 75
2, 306676, Note_off_c, 0, 83, 0
2, 306680, Note_on_c, 0, 81, 65
2, 306732, Note_off_c, 0, 81, 0
2, 306816, Note_on_c, 0, 79, 65
2, 306916, Note_off_c, 0, 79, 0
2, 307008, Note_on_c, 0, 78, 65
2, 307108, Note_off_c, 0, 78, 0
2, 307200, Note_on_c, 0, 78, 75
2, 307252, Note_off_c, 0, 78, 0
2, 307260, Note_on_c, 0, 76, 65
2, 307312, Note_off_c, 0, 76, 0
2, 307392, Note_on_c, 0, 74, 65
2, 307492, Note_off_c, 0, 74, 0
2, 307584, Note_on_c, 0, 73, 65
2, 307684, Note_off_c, 0, 73, 0
2, 307776, Note_on_c, 0, 74, 66
2, 307964, Note_off_c, 0, 74, 0
2, 307968, Note_on_c, 0, 76, 67
2, 307968, Note_on_c, 0, 69, 67
2, 308156, Note_off_c, 0, 76, 0
2, 308156, Note_off_c, 0, 69, 0
2, 308160, Note_on_c, 0, 78, 68
2, 308160, Note_on_c, 0, 74, 68
2, 308348, Note_off_c, 0, 78, 0
2, 308348, Note_off_c, 0, 74, 0
2, 308352, Note_on_c, 0, 79, 69
2, 308352, Note_on_c, 0, 76, 69
2, 308540, Note_off_c, 0, 79, 0
2, 308540, Note_off_c, 0, 76, 0
2, 308544, Note_on_c, 0, 81, 70
2, 308544, Note_on_c, 0, 78, 70
2, 308732, Note_off_c, 0, 81, 0
2, 308732, Note_off_c, 0, 78, 0
2, 308736, Note_on_c, 0, 83, 71
2, 308736, Note_on_c, 0, 79, 71
2, 308924, Note_off_c, 0, 83, 0
2, 308924, Note_off_c, 0, 79, 0
2, 308928, Note_on_c, 0, 79, 82
2, 308928, Note_on_c, 0, 83, 82
2, 308980, Note_off_c, 0, 79, 0
2, 308980, Note_off_c, 0, 83, 0
2, 308984, Note_on_c, 0, 78, 72
2, 308984, Note_on_c, 0, 81, 72
2, 309112, Note_off_c, 0, 78, 0
2, 309112, Note_off_c, 0, 81, 0
2, 309120, Note_on_c, 0, 76, 73
2, 309120, Note_on_c, 0, 79, 73
2, 309308, Note_off_c, 0, 76, 0
2, 309308, Note_off_c, 0, 79, 0
2, 309312, Note_on_c, 0, 74, 74
2, 309312, Note_on_c, 0, 78, 74
2, 309500, Note_off_c, 0, 74, 0
2, 309500, Note_off_c, 0, 78, 0
2, 309504, Note_on_c, 0, 78, 86
2, 309504, Note_on_c, 0, 74, 86
2, 309556, Note_off_c, 0, 78, 0
2, 309556, Note_off_c, 0, 74, 0
2, 309564, Note_on_c, 0, 76, 76
2, 309564, Note_on_c, 0, 69, 76
2, 309692, Note_off_c, 0, 76, 0
2, 309692, Note_off_c, 0, 69, 0
2, 309696, Note_on_c, 0, 74, 77
2, 309884, Note_off_c, 0, 74, 0
2, 309888, Note_on_c, 0, 73, 78
2, 310076, Note_off_c, 0, 73, 0
2, 310080, Note_on_c, 0, 74, 85
2, 310176, Note_off_c, 0, 74, 0
2, 310176, Note_on_c, 0, 69, 85
2, 310272, Note_off_c, 0, 69, 0
2, 310272, Note_on_c, 0, 69, 85
2, 310368, Note_off_c, 0, 69, 0
2, 310368, Note_on_c, 0, 69, 85
2, 310464, Note_off_c, 0, 69, 0
2, 310464, Note_on_c, 0, 78, 85
2, 310560, Note_off_c, 0, 78, 0
2, 310560, Note_on_c, 0, 69, 85
2, 310656, Note_off_c, 0, 69, 0
2, 310656, Note_on_c, 0, 79, 85
2, 310752, Note_off_c, 0, 79, 0
2, 310752, Note_on_c, 0, 69, 85
2, 310848, Note_off_c, 0, 69, 0
2, 310848, Note_on_c, 0, 69, 85
2, 310944, Note_off_c, 0, 69, 0
2, 310944, Note_on_c, 0, 69, 85
2, 311040, Note_off_c, 0, 69, 0
2, 311040, Note_on_c, 0, 83, 85
2, 311136, Note_off_c, 0, 83, 0
2, 311136, Note_on_c, 0, 69, 85
2, 311232, Note_off_c, 0, 69, 0
2, 311232, Note_on_c, 0, 81, 85
2, 311328, Note_off_c, 0, 81, 0
2, 311328, Note_on_c, 0, 69, 85
2, 311424, Note_off_c, 0, 69, 0
2, 311424, Note_on_c, 0, 69, 85
2, 311520, Note_off_c, 0, 69, 0
2, 311520, Note_on_c, 0, 69, 85
2, 311616, Note_off_c, 0, 69, 0
2, 311616, Note_on_c, 0, 78, 85
2, 311712, Note_off_c, 0, 78, 0
2, 311712, Note_on_c, 0, 69, 85
2, 311808, Note_off_c, 0, 69, 0
2, 311808, Note_on_c, 0, 76, 85
2, 311904, Note_off_c, 0, 76, 0
2, 311904, Note_on_c, 0, 69, 85
2, 312000, Note_off_c, 0, 69, 0
2, 312000, Note_on_c, 0, 74, 85
2, 312096, Note_off_c, 0, 74, 0
2, 312096, Note_on_c, 0, 69, 85
2, 312192, Note_off_c, 0, 69, 0
2, 312192, Note_on_c, 0, 73, 85
2, 312288, Note_off_c, 0, 73, 0
2, 312288, Note_on_c, 0, 69, 85
2, 312384, Note_off_c, 0, 69, 0
2, 312384, Note_on_c, 0, 74, 85
2, 312480, Note_off_c, 0, 74, 0
2, 312480, Note_on_c, 0, 69, 85
2, 312576, Note_off_c, 0, 69, 0
2, 312576, Note_on_c, 0, 69, 85
2, 312672, Note_off_c, 0, 69, 0
2, 312672, Note_on_c, 0, 69, 85
2, 312768, Note_off_c, 0, 69, 0
2, 312768, Note_on_c, 0, 78, 85
2, 312768, Note_on_c, 0, 74, 85
2, 312864, Note_off_c, 0, 78, 0
2, 312864, Note_off_c, 0, 74, 0
2, 312864, Note_on_c, 0, 69, 85
2, 312960, Note_off_c, 0, 69, 0
2, 312960, Note_on_c, 0, 76, 85
2, 312960, Note_on_c, 0, 79, 85
2, 313056, Note_off_c, 0, 76, 0
2, 313056, Note_off_c, 0, 79, 0
2, 313056, Note_on_c, 0, 69, 85
2, 313152, Note_off_c, 0, 69, 0
2, 313152, Note_on_c, 0, 69, 85
2, 313248, Note_off_c, 0, 69, 0
2, 313248, Note_on_c, 0, 69, 85
2, 313344, Note_off_c, 0, 69, 0
2, 313344, Note_on_c, 0, 79, 85
2, 313344, Note_on_c, 0, 83, 85
2, 313440, Note_off_c, 0, 79, 0
2, 313440, Note_off_c, 0, 83, 0
2, 313440, Note_on_c, 0, 69, 85
2, 313536, Note_off_c, 0, 69, 0
2, 313536, Note_on_c, 0, 81, 86
2, 313536, Note_on_c, 0, 78, 86
2, 313632, Note_off_c, 0, 81, 0
2, 313632, Note_off_c, 0, 78, 0
2, 313632, Note_on_c, 0, 69, 86
2, 313728, Note_off_c, 0, 69, 0
2, 313728, Note_on_c, 0, 69, 87
2, 313824, Note_off_c, 0, 69, 0
2, 313824, Note_on_c, 0, 69, 88
2, 313920, Note_off_c, 0, 69, 0
2, 313920, Note_on_c, 0, 78, 89
2, 313920, Note_on_c, 0, 81, 89
2, 314016, Note_off_c, 0, 78, 0
2, 314016, Note_off_c, 0, 81, 0
2, 314016, Note_on_c, 0, 69, 90
2, 314112, Note_off_c, 0, 69, 0
2, 314112, Note_on_c, 0, 79, 91
2, 314112, Note_on_c, 0, 81, 91
2, 314208, Note_off_c, 0, 79, 0
2, 314208, Note_off_c, 0, 81, 0
2, 314208, Note_on_c, 0, 69, 91
2, 314304, Note_off_c, 0, 69, 0
2, 314304, Note_on_c, 0, 69, 92
2, 314400, Note_off_c, 0, 69, 0
2, 314400, Note_on_c, 0, 69, 93
2, 314496, Note_off_c, 0, 69, 0
2, 314496, Note_on_c, 0, 76, 94
2, 314496, Note_on_c, 0, 85, 94
2, 314592, Note_off_c, 0, 76, 0
2, 314592, Note_off_c, 0, 85, 0
2, 314592, Note_on_c, 0, 69, 95
2, 314688, Note_off_c, 0, 69, 0
2, 314688, Note_on_c, 0, 86, 95
2, 314688, Note_on_c, 0, 78, 95
2, 315068, Note_off_c, 0, 86, 0
2, 315068, Note_off_c, 0, 78, 0
2, 315264, Note_on_c, 0, 81, 100
2, 315316, Note_off_c, 0, 81, 0
2, 315320, Note_on_c, 0, 79, 96
2, 315648, Note_on_c, 0, 78, 90
2, 315664, Note_off_c, 0, 79, 0
2, 315740, Note_off_c, 0, 78, 0
2, 315744, Note_on_c, 0, 76, 90
2, 315824, Note_off_c, 0, 76, 0
2, 315840, Note_on_c, 0, 74, 90
2, 315940, Note_off_c, 0, 74, 0
2, 316032, Note_on_c, 0, 74, 90
2, 316132, Note_off_c, 0, 74, 0
2, 316224, Note_on_c, 0, 74, 90
2, 316324, Note_off_c, 0, 74, 0
2, 316416, Note_on_c, 0, 81, 100
2, 316468, Note_off_c, 0, 81, 0
2, 316472, Note_on_c, 0, 79, 96
2, 316800, Note_on_c, 0, 78, 90
2, 316816, Note_off_c, 0, 79, 0
2, 316892, Note_off_c, 0, 78, 0
2, 316896, Note_on_c, 0, 76, 90
2, 316976, Note_off_c, 0, 76, 0
2, 316992, Note_on_c, 0, 74, 90
2, 317180, Note_off_c, 0, 74, 0
2, 317568, Note_on_c, 0, 81, 100
2, 317620, Note_off_c, 0, 81, 0
2, 317624, Note_on_c, 0, 79, 90
2, 317952, Note_on_c, 0, 78, 87
2, 317968, Note_off_c, 0, 79, 0
2, 318044, Note_off_c, 0, 78, 0
2, 318048, Note_on_c, 0, 76, 86
2, 318128, Note_off_c, 0, 76, 0
2, 318144, Note_on_c, 0, 74, 85
2, 318244, Note_off_c, 0, 74, 0
2, 318336, Note_on_c, 0, 74, 84
2, 318436, Note_off_c, 0, 74, 0
2, 318528, Note_on_c, 0, 74, 82
2, 318628, Note_off_c, 0, 74, 0
2, 318720, Note_on_c, 0, 81, 90
2, 318772, Note_off_c, 0, 81, 0
2, 318776, Note_on_c, 0, 79, 80
2, 319104, Note_on_c, 0, 78, 77
2, 319120, Note_off_c, 0, 79, 0
2, 319196, Note_off_c, 0, 78, 0
2, 319200, Note_on_c, 0, 76, 76
2, 319280, Note_off_c, 0, 76, 0
2, 319296, Note_on_c, 0, 74, 75
2, 319396, Note_off_c, 0, 74, 0
2, 319872, Note_on_c, 0, 81, 80
2, 319924, Note_off_c, 0, 81, 0
2, 319928, Note_on_c, 0, 79, 70
2, 320256, Note_on_c, 0, 78, 67
2, 320272, Note_off_c, 0, 79, 0
2, 320348, Note_off_c, 0, 78, 0
2, 320352, Note_on_c, 0, 76, 66
2, 320432, Note_off_c, 0, 76, 0
2, 320448, Note_on_c, 0, 74, 65
2, 320548, Note_off_c, 0, 74, 0
2, 321024, Note_on_c, 0, 81, 70
2, 321076, Note_off_c, 0, 81, 0
2, 321080, Note_on_c, 0, 79, 60
2, 321408, Note_on_c, 0, 78, 57
2, 321424, Note_off_c, 0, 79, 0
2, 321500, Note_off_c, 0, 78, 0
2, 321504, Note_on_c, 0, 76, 56
2, 321584, Note_off_c, 0, 76, 0
2, 321600, Note_on_c, 0, 74, 55
2, 321700, Note_off_c, 0, 74, 0
2, 322176, Note_on_c, 0, 74, 55
2, 322276, Note_off_c, 0, 74, 0
2, 322752, Note_on_c, 0, 74, 55
2, 322852, Note_off_c, 0, 74, 0
2, 322852, End_track
3, 0, Start_track
3, 0, Title_t, "  #4 - K218c  Midi by:"
3, 0, Control_c, 1, 0, 0
3, 0, Program_c, 1, 48
3, 0, Control_c, 1, 10, 42
3, 0, Control_c, 1, 91, 66
3, 0, Control_c, 1, 93, 0
3, 0, Key_signature, 2, "major"
3, 0, Control_c, 1, 121, 0
3, 144, Control_c, 1, 10, 53
3, 192, Control_c, 1, 91, 73
3, 288, Program_c, 1, 48
3, 768, Note_on_c, 1, 74, 70
3, 768, Note_on_c, 1, 69, 70
3, 768, Note_on_c, 1, 66, 70
3, 1148, Note_off_c, 1, 74, 0
3, 1148, Note_off_c, 1, 69, 0
3, 1148, Note_off_c, 1, 66, 0
3, 1344, Note_on_c, 1, 73, 70
3, 1344, Note_on_c, 1, 69, 70
3, 1344, Note_on_c, 1, 67, 70
3, 1532, Note_off_c, 1, 73, 0
3, 1532, Note_off_c, 1, 69, 0
3, 1532, Note_off_c, 1, 67, 0
3, 1536, Note_on_c, 1, 73, 70
3, 1536, Note_on_c, 1, 69, 70
3, 1536, Note_on_c, 1, 67, 70
3, 1916, Note_off_c, 1, 73, 0
3, 1916, Note_off_c, 1, 69, 0
3, 1916, Note_off_c, 1, 67, 0
3, 1920, Note_on_c, 1, 74, 70
3, 1920, Note_on_c, 1, 69, 70
3, 1920, Note_on_c, 1, 66, 70
3, 2108, Note_off_c, 1, 74, 0
3, 2108, Note_off_c, 1, 69, 0
3, 2108, Note_off_c, 1, 66, 0
3, 2112, Note_on_c, 1, 64, 70
3, 2252, Note_off_c, 1, 64, 0
3, 2256, Note_on_c, 1, 61, 80
3, 2300, Note_off_c, 1, 61, 0
3, 2304, Note_on_c, 1, 69, 70
3, 2304, Note_on_c, 1, 66, 70
3, 2492, Note_off_c, 1, 69, 0
3, 2492, Note_off_c, 1, 66, 0
3, 2496, Note_on_c, 1, 69, 70
3, 2496, Note_on_c, 1, 66, 70
3, 2684, Note_off_c, 1, 69, 0
3, 2684, Note_off_c, 1, 66, 0
3, 2688, Note_on_c, 1, 71, 70
3, 2688, Note_on_c, 1, 67, 70
3, 2876, Note_off_c, 1, 71, 0
3, 2876, Note_off_c, 1, 67, 0
3, 2880, Note_on_c, 1, 71, 70
3, 2880, Note_on_c, 1, 67, 70
3, 3068, Note_off_c, 1, 71, 0
3, 3068, Note_off_c, 1, 67, 0
3, 3072, Note_on_c, 1, 64, 70
3, 3072, Note_on_c, 1, 61, 70
3, 3260, Note_off_c, 1, 64, 0
3, 3260, Note_off_c, 1, 61, 0
3, 3648, Note_on_c, 1, 78, 90
3, 3740, Note_off_c, 1, 78, 0
3, 3744, Note_on_c, 1, 74, 90
3, 3836, Note_off_c, 1, 74, 0
3, 3840, Note_on_c, 1, 73, 90
3, 3932, Note_off_c, 1, 73, 0
3, 3936, Note_on_c, 1, 71, 90
3, 4028, Note_off_c, 1, 71, 0
3, 4032, Note_on_c, 1, 79, 90
3, 4124, Note_off_c, 1, 79, 0
3, 4128, Note_on_c, 1, 76, 90
3, 4220, Note_off_c, 1, 76, 0
3, 4224, Note_on_c, 1, 74, 90
3, 4316, Note_off_c, 1, 74, 0
3, 4320, Note_on_c, 1, 73, 90
3, 4412, Note_off_c, 1, 73, 0
3, 4416, Note_on_c, 1, 81, 90
3, 4508, Note_off_c, 1, 81, 0
3, 4512, Note_on_c, 1, 78, 90
3, 4604, Note_off_c, 1, 78, 0
3, 4608, Note_on_c, 1, 76, 90
3, 4700, Note_off_c, 1, 76, 0
3, 4704, Note_on_c, 1, 74, 90
3, 4796, Note_off_c, 1, 74, 0
3, 4800, Note_on_c, 1, 83, 90
3, 4988, Note_off_c, 1, 83, 0
3, 5568, Note_on_c, 1, 69, 70
3, 5568, Note_on_c, 1, 66, 70
3, 5756, Note_off_c, 1, 69, 0
3, 5756, Note_off_c, 1, 66, 0
3, 5760, Note_on_c, 1, 74, 70
3, 5760, Note_on_c, 1, 67, 70
3, 6140, Note_off_c, 1, 74, 0
3, 6140, Note_off_c, 1, 67, 0
3, 6336, Note_on_c, 1, 73, 70
3, 6336, Note_on_c, 1, 69, 70
3, 6336, Note_on_c, 1, 64, 70
3, 6524, Note_off_c, 1, 73, 0
3, 6524, Note_off_c, 1, 69, 0
3, 6524, Note_off_c, 1, 64, 0
3, 6528, Note_on_c, 1, 76, 70
3, 6528, Note_on_c, 1, 73, 70
3, 6528, Note_on_c, 1, 69, 70
3, 6716, Note_off_c, 1, 76, 0
3, 6716, Note_off_c, 1, 73, 0
3, 6716, Note_off_c, 1, 69, 0
3, 6912, Note_on_c, 1, 74, 70
3, 6912, Note_on_c, 1, 66, 70
3, 7004, Note_off_c, 1, 74, 0
3, 7004, Note_off_c, 1, 66, 0
3, 7104, Note_on_c, 1, 69, 70
3, 7196, Note_off_c, 1, 69, 0
3, 7296, Note_on_c, 1, 69, 70
3, 7388, Note_off_c, 1, 69, 0
3, 7488, Note_on_c, 1, 73, 70
3, 7488, Note_on_c, 1, 69, 70
3, 7488, Note_on_c, 1, 67, 70
3, 7580, Note_off_c, 1, 73, 0
3, 7580, Note_off_c, 1, 69, 0
3, 7580, Note_off_c, 1, 67, 0
3, 7680, Note_on_c, 1, 73, 70
3, 7680, Note_on_c, 1, 69, 70
3, 7680, Note_on_c, 1, 67, 70
3, 8060, Note_off_c, 1, 73, 0
3, 8060, Note_off_c, 1, 69, 0
3, 8060, Note_off_c, 1, 67, 0
3, 8064, Note_on_c, 1, 74, 70
3, 8064, Note_on_c, 1, 69, 70
3, 8064, Note_on_c, 1, 66, 70
3, 8252, Note_off_c, 1, 74, 0
3, 8252, Note_off_c, 1, 69, 0
3, 8252, Note_off_c, 1, 66, 0
3, 8256, Note_on_c, 1, 64, 70
3, 8396, Note_off_c, 1, 64, 0
3, 8400, Note_on_c, 1, 61, 80
3, 8436, Note_off_c, 1, 61, 0
3, 8448, Note_on_c, 1, 69, 70
3, 8448, Note_on_c, 1, 66, 70
3, 8636, Note_off_c, 1, 69, 0
3, 8636, Note_off_c, 1, 66, 0
3, 8640, Note_on_c, 1, 69, 70
3, 8640, Note_on_c, 1, 66, 70
3, 8828, Note_off_c, 1, 69, 0
3, 8828, Note_off_c, 1, 66, 0
3, 8832, Note_on_c, 1, 71, 70
3, 8832, Note_on_c, 1, 67, 70
3, 9020, Note_off_c, 1, 71, 0
3, 9020, Note_off_c, 1, 67, 0
3, 9024, Note_on_c, 1, 71, 70
3, 9024, Note_on_c, 1, 67, 70
3, 9212, Note_off_c, 1, 71, 0
3, 9212, Note_off_c, 1, 67, 0
3, 9216, Note_on_c, 1, 64, 70
3, 9216, Note_on_c, 1, 61, 70
3, 9404, Note_off_c, 1, 64, 0
3, 9404, Note_off_c, 1, 61, 0
3, 9792, Note_on_c, 1, 71, 70
3, 9792, Note_on_c, 1, 67, 70
3, 9932, Note_off_c, 1, 71, 0
3, 9932, Note_off_c, 1, 67, 0
3, 9936, Note_on_c, 1, 71, 69
3, 9936, Note_on_c, 1, 67, 69
3, 9980, Note_off_c, 1, 71, 0
3, 9980, Note_off_c, 1, 67, 0
3, 9984, Note_on_c, 1, 64, 68
3, 9984, Note_on_c, 1, 61, 68
3, 10076, Note_off_c, 1, 64, 0
3, 10076, Note_off_c, 1, 61, 0
3, 10560, Note_on_c, 1, 71, 60
3, 10560, Note_on_c, 1, 67, 60
3, 10604, Note_off_c, 1, 71, 0
3, 10604, Note_off_c, 1, 67, 0
3, 10608, Note_on_c, 1, 64, 60
3, 10652, Note_off_c, 1, 64, 0
3, 10656, Note_on_c, 1, 71, 60
3, 10656, Note_on_c, 1, 67, 60
3, 10700, Note_off_c, 1, 71, 0
3, 10700, Note_off_c, 1, 67, 0
3, 10704, Note_on_c, 1, 64, 60
3, 10748, Note_off_c, 1, 64, 0
3, 10752, Note_on_c, 1, 64, 60
3, 10752, Note_on_c, 1, 61, 60
3, 10844, Note_off_c, 1, 64, 0
3, 10844, Note_off_c, 1, 61, 0
3, 12096, Note_on_c, 1, 74, 80
3, 12096, Note_on_c, 1, 71, 80
3, 12188, Note_off_c, 1, 74, 0
3, 12188, Note_off_c, 1, 71, 0
3, 12288, Note_on_c, 1, 78, 80
3, 12288, Note_on_c, 1, 69, 80
3, 12380, Note_off_c, 1, 78, 0
3, 12380, Note_off_c, 1, 69, 0
3, 12480, Note_on_c, 1, 79, 80
3, 12480, Note_on_c, 1, 67, 80
3, 12572, Note_off_c, 1, 79, 0
3, 12572, Note_off_c, 1, 67, 0
3, 12672, Note_on_c, 1, 79, 90
3, 12724, Note_off_c, 1, 79, 0
3, 12728, Note_on_c, 1, 69, 80
3, 12728, Note_on_c, 1, 78, 80
3, 12860, Note_off_c, 1, 78, 0
3, 12864, Note_on_c, 1, 76, 80
3, 12956, Note_off_c, 1, 76, 0
3, 13056, Note_on_c, 1, 74, 80
3, 13148, Note_off_c, 1, 74, 0
3, 13244, Note_off_c, 1, 69, 0
3, 13248, Note_on_c, 1, 69, 90
3, 13300, Note_off_c, 1, 69, 0
3, 13304, Note_on_c, 1, 67, 80
3, 13304, Note_on_c, 1, 57, 80
3, 13436, Note_off_c, 1, 67, 0
3, 13440, Note_on_c, 1, 66, 80
3, 13532, Note_off_c, 1, 66, 0
3, 13632, Note_on_c, 1, 64, 80
3, 13724, Note_off_c, 1, 64, 0
3, 13820, Note_off_c, 1, 57, 0
3, 13824, Note_on_c, 1, 66, 80
3, 13824, Note_on_c, 1, 62, 80
3, 13916, Note_off_c, 1, 66, 0
3, 14016, Note_on_c, 1, 67, 80
3, 14108, Note_off_c, 1, 67, 0
3, 14208, Note_on_c, 1, 69, 80
3, 14300, Note_off_c, 1, 62, 0
3, 14300, Note_off_c, 1, 69, 0
3, 14400, Note_on_c, 1, 74, 80
3, 14400, Note_on_c, 1, 71, 80
3, 14492, Note_off_c, 1, 74, 0
3, 14492, Note_off_c, 1, 71, 0
3, 14592, Note_on_c, 1, 78, 80
3, 14592, Note_on_c, 1, 69, 80
3, 14684, Note_off_c, 1, 78, 0
3, 14684, Note_off_c, 1, 69, 0
3, 14784, Note_on_c, 1, 79, 80
3, 14784, Note_on_c, 1, 67, 80
3, 14876, Note_off_c, 1, 79, 0
3, 14876, Note_off_c, 1, 67, 0
3, 14976, Note_on_c, 1, 79, 90
3, 15028, Note_off_c, 1, 79, 0
3, 15032, Note_on_c, 1, 69, 80
3, 15032, Note_on_c, 1, 78, 80
3, 15164, Note_off_c, 1, 78, 0
3, 15168, Note_on_c, 1, 76, 80
3, 15356, Note_off_c, 1, 76, 0
3, 15360, Note_on_c, 1, 74, 80
3, 15548, Note_off_c, 1, 69, 0
3, 15548, Note_off_c, 1, 74, 0
3, 15552, Note_on_c, 1, 69, 90
3, 15604, Note_off_c, 1, 69, 0
3, 15608, Note_on_c, 1, 67, 80
3, 15608, Note_on_c, 1, 57, 80
3, 15740, Note_off_c, 1, 67, 0
3, 15744, Note_on_c, 1, 66, 80
3, 15836, Note_off_c, 1, 66, 0
3, 15936, Note_on_c, 1, 64, 80
3, 16028, Note_off_c, 1, 64, 0
3, 16124, Note_off_c, 1, 57, 0
3, 16128, Note_on_c, 1, 66, 80
3, 16128, Note_on_c, 1, 62, 80
3, 16320, Note_off_c, 1, 66, 0
3, 16320, Note_on_c, 1, 69, 80
3, 16508, Note_off_c, 1, 69, 0
3, 16512, Note_on_c, 1, 72, 80
3, 16700, Note_off_c, 1, 72, 0
3, 16704, Note_on_c, 1, 71, 80
3, 16892, Note_off_c, 1, 71, 0
3, 16896, Note_on_c, 1, 74, 80
3, 17084, Note_off_c, 1, 74, 0
3, 17088, Note_on_c, 1, 73, 80
3, 17268, Note_off_c, 1, 73, 0
3, 17280, Note_on_c, 1, 74, 80
3, 17472, Note_off_c, 1, 74, 0
3, 17472, Note_on_c, 1, 69, 80
3, 17660, Note_off_c, 1, 69, 0
3, 17664, Note_on_c, 1, 72, 80
3, 17852, Note_off_c, 1, 72, 0
3, 17856, Note_on_c, 1, 71, 80
3, 18044, Note_off_c, 1, 71, 0
3, 18048, Note_on_c, 1, 74, 80
3, 18236, Note_off_c, 1, 74, 0
3, 18240, Note_on_c, 1, 73, 80
3, 18420, Note_off_c, 1, 73, 0
3, 18428, Note_off_c, 1, 62, 0
3, 18432, Note_on_c, 1, 74, 80
3, 18432, Note_on_c, 1, 66, 80
3, 18432, Note_on_c, 1, 62, 80
3, 18624, Note_off_c, 1, 74, 0
3, 18624, Note_on_c, 1, 69, 80
3, 18812, Note_off_c, 1, 69, 0
3, 18816, Note_on_c, 1, 72, 70
3, 19004, Note_off_c, 1, 72, 0
3, 19008, Note_off_c, 1, 66, 0
3, 19008, Note_on_c, 1, 71, 70
3, 19008, Note_on_c, 1, 67, 70
3, 19196, Note_off_c, 1, 71, 0
3, 19200, Note_on_c, 1, 74, 70
3, 19388, Note_off_c, 1, 74, 0
3, 19392, Note_on_c, 1, 73, 70
3, 19572, Note_off_c, 1, 67, 0
3, 19580, Note_off_c, 1, 73, 0
3, 19584, Note_on_c, 1, 66, 70
3, 19584, Note_on_c, 1, 74, 70
3, 19772, Note_off_c, 1, 74, 0
3, 19776, Note_on_c, 1, 69, 70
3, 19964, Note_off_c, 1, 69, 0
3, 19968, Note_on_c, 1, 72, 70
3, 20156, Note_off_c, 1, 72, 0
3, 20160, Note_off_c, 1, 66, 0
3, 20160, Note_on_c, 1, 71, 70
3, 20160, Note_on_c, 1, 67, 70
3, 20340, Note_off_c, 1, 71, 0
3, 20352, Note_on_c, 1, 74, 70
3, 20540, Note_off_c, 1, 74, 0
3, 20544, Note_on_c, 1, 73, 70
3, 20724, Note_off_c, 1, 67, 0
3, 20732, Note_off_c, 1, 73, 0
3, 20736, Note_on_c, 1, 74, 70
3, 20736, Note_on_c, 1, 66, 70
3, 20736, Note_on_c, 1, 62, 70
3, 20828, Note_off_c, 1, 62, 0
3, 20828, Note_off_c, 1, 74, 0
3, 20828, Note_off_c, 1, 66, 0
3, 20828, Note_off_c, 1, 62, 64
3, 20928, Note_on_c, 1, 69, 70
3, 20928, Note_on_c, 1, 66, 69
3, 21020, Note_off_c, 1, 69, 0
3, 21020, Note_off_c, 1, 66, 0
3, 21120, Note_on_c, 1, 66, 70
3, 21120, Note_on_c, 1, 62, 70
3, 21212, Note_off_c, 1, 66, 0
3, 21212, Note_off_c, 1, 62, 0
3, 21312, Note_on_c, 1, 71, 80
3, 21404, Note_off_c, 1, 71, 0
3, 21504, Note_on_c, 1, 69, 80
3, 21596, Note_off_c, 1, 69, 0
3, 21696, Note_on_c, 1, 67, 80
3, 21788, Note_off_c, 1, 67, 0
3, 21888, Note_on_c, 1, 65, 90
3, 22268, Note_off_c, 1, 65, 0
3, 22272, Note_on_c, 1, 66, 70
3, 22460, Note_off_c, 1, 66, 0
3, 22464, Note_on_c, 1, 67, 70
3, 22556, Note_off_c, 1, 67, 0
3, 22656, Note_on_c, 1, 66, 70
3, 22748, Note_off_c, 1, 66, 0
3, 22848, Note_on_c, 1, 64, 70
3, 22940, Note_off_c, 1, 64, 0
3, 23040, Note_on_c, 1, 61, 90
3, 23420, Note_off_c, 1, 61, 0
3, 23424, Note_on_c, 1, 62, 70
3, 23612, Note_off_c, 1, 62, 0
3, 23808, Note_on_c, 1, 69, 70
3, 23900, Note_off_c, 1, 69, 0
3, 24000, Note_on_c, 1, 69, 70
3, 24092, Note_off_c, 1, 69, 0
3, 24384, Note_on_c, 1, 71, 70
3, 24480, Note_off_c, 1, 71, 0
3, 24576, Note_on_c, 1, 71, 70
3, 24668, Note_off_c, 1, 71, 0
3, 24768, Note_on_c, 1, 76, 70
3, 25056, Note_off_c, 1, 76, 0
3, 25056, Note_on_c, 1, 73, 70
3, 25144, Note_off_c, 1, 73, 0
3, 25152, Note_on_c, 1, 76, 70
3, 25240, Note_off_c, 1, 76, 0
3, 25248, Note_on_c, 1, 73, 70
3, 25328, Note_off_c, 1, 73, 0
3, 25344, Note_on_c, 1, 74, 70
3, 25436, Note_off_c, 1, 74, 0
3, 25536, Note_on_c, 1, 69, 70
3, 25536, Note_on_c, 1, 66, 70
3, 25628, Note_off_c, 1, 69, 0
3, 25628, Note_off_c, 1, 66, 0
3, 25728, Note_on_c, 1, 66, 70
3, 25728, Note_on_c, 1, 62, 70
3, 25820, Note_off_c, 1, 66, 0
3, 25820, Note_off_c, 1, 62, 0
3, 25920, Note_on_c, 1, 71, 70
3, 26012, Note_off_c, 1, 71, 0
3, 26112, Note_on_c, 1, 69, 70
3, 26204, Note_off_c, 1, 69, 0
3, 26304, Note_on_c, 1, 67, 70
3, 26396, Note_off_c, 1, 67, 0
3, 26496, Note_on_c, 1, 65, 90
3, 26876, Note_off_c, 1, 65, 0
3, 26880, Note_on_c, 1, 66, 70
3, 27068, Note_off_c, 1, 66, 0
3, 27072, Note_on_c, 1, 67, 70
3, 27164, Note_off_c, 1, 67, 0
3, 27264, Note_on_c, 1, 66, 70
3, 27356, Note_off_c, 1, 66, 0
3, 27456, Note_on_c, 1, 64, 70
3, 27548, Note_off_c, 1, 64, 0
3, 28032, Note_on_c, 1, 62, 70
3, 28220, Note_off_c, 1, 62, 0
3, 28416, Note_on_c, 1, 69, 70
3, 28508, Note_off_c, 1, 69, 0
3, 28608, Note_on_c, 1, 69, 70
3, 28700, Note_off_c, 1, 69, 0
3, 28992, Note_on_c, 1, 71, 70
3, 29088, Note_off_c, 1, 71, 0
3, 29184, Note_on_c, 1, 71, 70
3, 29276, Note_off_c, 1, 71, 0
3, 29376, Note_on_c, 1, 76, 70
3, 29664, Note_off_c, 1, 76, 0
3, 29664, Note_on_c, 1, 73, 70
3, 29756, Note_off_c, 1, 73, 0
3, 29760, Note_on_c, 1, 76, 70
3, 29852, Note_off_c, 1, 76, 0
3, 29856, Note_on_c, 1, 73, 70
3, 29936, Note_off_c, 1, 73, 0
3, 29952, Note_on_c, 1, 74, 70
3, 30048, Note_off_c, 1, 74, 0
3, 30144, Note_on_c, 1, 62, 90
3, 30236, Note_off_c, 1, 62, 0
3, 30240, Note_on_c, 1, 61, 90
3, 30332, Note_off_c, 1, 61, 0
3, 30336, Note_on_c, 1, 62, 90
3, 30428, Note_off_c, 1, 62, 0
3, 30432, Note_on_c, 1, 64, 90
3, 30524, Note_off_c, 1, 64, 0
3, 30528, Note_on_c, 1, 66, 90
3, 30608, Note_off_c, 1, 66, 0
3, 30720, Note_on_c, 1, 66, 90
3, 30816, Note_off_c, 1, 66, 0
3, 30816, Note_on_c, 1, 64, 90
3, 30908, Note_off_c, 1, 64, 0
3, 30912, Note_on_c, 1, 66, 90
3, 31004, Note_off_c, 1, 66, 0
3, 31008, Note_on_c, 1, 67, 90
3, 31100, Note_off_c, 1, 67, 0
3, 31104, Note_on_c, 1, 69, 90
3, 31184, Note_off_c, 1, 69, 0
3, 31296, Note_on_c, 1, 71, 90
3, 31388, Note_off_c, 1, 71, 0
3, 31488, Note_on_c, 1, 73, 90
3, 31580, Note_off_c, 1, 73, 0
3, 31680, Note_on_c, 1, 74, 90
3, 31772, Note_off_c, 1, 74, 0
3, 32256, Note_on_c, 1, 69, 80
3, 32256, Note_on_c, 1, 66, 80
3, 32444, Note_off_c, 1, 69, 0
3, 32444, Note_off_c, 1, 66, 0
3, 32832, Note_on_c, 1, 78, 80
3, 32924, Note_off_c, 1, 78, 0
3, 33024, Note_on_c, 1, 79, 80
3, 33116, Note_off_c, 1, 79, 0
3, 33216, Note_on_c, 1, 76, 80
3, 33308, Note_off_c, 1, 76, 0
3, 33408, Note_on_c, 1, 78, 80
3, 33500, Note_off_c, 1, 78, 0
3, 33600, Note_on_c, 1, 69, 80
3, 33600, Note_on_c, 1, 66, 80
3, 33692, Note_off_c, 1, 69, 0
3, 33692, Note_off_c, 1, 66, 0
3, 33792, Note_on_c, 1, 69, 80
3, 33792, Note_on_c, 1, 66, 80
3, 33884, Note_off_c, 1, 69, 0
3, 33884, Note_off_c, 1, 66, 0
3, 33984, Note_on_c, 1, 69, 80
3, 33984, Note_on_c, 1, 66, 80
3, 34076, Note_off_c, 1, 69, 0
3, 34076, Note_off_c, 1, 66, 0
3, 34752, Note_on_c, 1, 76, 80
3, 34844, Note_off_c, 1, 76, 0
3, 34944, Note_on_c, 1, 79, 80
3, 35036, Note_off_c, 1, 79, 0
3, 35136, Note_on_c, 1, 83, 80
3, 35228, Note_off_c, 1, 83, 0
3, 36096, Note_on_c, 1, 74, 80
3, 36188, Note_off_c, 1, 74, 0
3, 36288, Note_on_c, 1, 78, 80
3, 36380, Note_off_c, 1, 78, 0
3, 36480, Note_on_c, 1, 81, 80
3, 36572, Note_off_c, 1, 81, 0
3, 36864, Note_on_c, 1, 78, 80
3, 36916, Note_off_c, 1, 78, 0
3, 36920, Note_on_c, 1, 76, 80
3, 36920, Note_on_c, 1, 57, 80
3, 36972, Note_off_c, 1, 57, 64
3, 37052, Note_off_c, 1, 76, 0
3, 37056, Note_on_c, 1, 69, 80
3, 37148, Note_off_c, 1, 69, 64
3, 37152, Note_on_c, 1, 74, 80
3, 37244, Note_off_c, 1, 74, 64
3, 37248, Note_on_c, 1, 73, 80
3, 37248, Note_on_c, 1, 69, 80
3, 37340, Note_off_c, 1, 69, 64
3, 37424, Note_on_c, 1, 74, 80
3, 37436, Note_off_c, 1, 73, 0
3, 37440, Note_on_c, 1, 62, 80
3, 37532, Note_off_c, 1, 62, 64
3, 37632, Note_on_c, 1, 71, 80
3, 37724, Note_off_c, 1, 71, 64
3, 37804, Note_off_c, 1, 74, 64
3, 37808, Note_on_c, 1, 67, 80
3, 37824, Note_on_c, 1, 78, 80
3, 37900, Note_off_c, 1, 67, 64
3, 37916, Note_off_c, 1, 78, 0
3, 37920, Note_on_c, 1, 76, 80
3, 38012, Note_off_c, 1, 76, 0
3, 38016, Note_on_c, 1, 74, 80
3, 38016, Note_on_c, 1, 69, 80
3, 38108, Note_off_c, 1, 69, 0
3, 38208, Note_on_c, 1, 57, 80
3, 38300, Note_off_c, 1, 57, 0
3, 38400, Note_off_c, 1, 74, 0
3, 38400, Note_on_c, 1, 73, 80
3, 38400, Note_on_c, 1, 57, 80
3, 38492, Note_off_c, 1, 57, 0
3, 38580, Note_off_c, 1, 73, 0
3, 38592, Note_on_c, 1, 64, 80
3, 38592, Note_on_c, 1, 61, 80
3, 38592, Note_on_c, 1, 57, 80
3, 38972, Note_off_c, 1, 64, 0
3, 38972, Note_off_c, 1, 61, 0
3, 38972, Note_off_c, 1, 57, 0
3, 39360, Note_on_c, 1, 64, 70
3, 39452, Note_off_c, 1, 64, 0
3, 39456, Note_on_c, 1, 61, 70
3, 39548, Note_off_c, 1, 61, 0
3, 39552, Note_on_c, 1, 64, 70
3, 39596, Note_off_c, 1, 64, 0
3, 39648, Note_on_c, 1, 61, 70
3, 39692, Note_off_c, 1, 61, 0
3, 39744, Note_on_c, 1, 69, 70
3, 40124, Note_off_c, 1, 69, 0
3, 40128, Note_on_c, 1, 73, 70
3, 40316, Note_off_c, 1, 73, 0
3, 40512, Note_on_c, 1, 66, 70
3, 40604, Note_off_c, 1, 66, 0
3, 40608, Note_on_c, 1, 59, 70
3, 40700, Note_off_c, 1, 59, 0
3, 40704, Note_on_c, 1, 66, 70
3, 40748, Note_off_c, 1, 66, 0
3, 40800, Note_on_c, 1, 62, 70
3, 40844, Note_off_c, 1, 62, 0
3, 40896, Note_on_c, 1, 71, 70
3, 41276, Note_off_c, 1, 71, 0
3, 41280, Note_on_c, 1, 74, 70
3, 41468, Note_off_c, 1, 74, 0
3, 41664, Note_on_c, 1, 64, 70
3, 41756, Note_off_c, 1, 64, 0
3, 41760, Note_on_c, 1, 59, 70
3, 41852, Note_off_c, 1, 59, 0
3, 41856, Note_on_c, 1, 68, 70
3, 41900, Note_off_c, 1, 68, 0
3, 41952, Note_on_c, 1, 64, 70
3, 41996, Note_off_c, 1, 64, 0
3, 42048, Note_on_c, 1, 71, 70
3, 42428, Note_off_c, 1, 71, 0
3, 42432, Note_on_c, 1, 74, 70
3, 42620, Note_off_c, 1, 74, 0
3, 42816, Note_on_c, 1, 68, 70
3, 42908, Note_off_c, 1, 68, 0
3, 42912, Note_on_c, 1, 64, 70
3, 43004, Note_off_c, 1, 64, 0
3, 43008, Note_on_c, 1, 69, 70
3, 43052, Note_off_c, 1, 69, 0
3, 43104, Note_on_c, 1, 64, 70
3, 43148, Note_off_c, 1, 64, 0
3, 43200, Note_on_c, 1, 73, 70
3, 43292, Note_off_c, 1, 73, 0
3, 43776, Note_on_c, 1, 74, 70
3, 43776, Note_on_c, 1, 69, 70
3, 43776, Note_on_c, 1, 66, 70
3, 43868, Note_off_c, 1, 74, 0
3, 43868, Note_off_c, 1, 69, 0
3, 43868, Note_off_c, 1, 66, 0
3, 44352, Note_on_c, 1, 71, 70
3, 44352, Note_on_c, 1, 66, 70
3, 44444, Note_off_c, 1, 71, 0
3, 44444, Note_off_c, 1, 66, 0
3, 45120, Note_on_c, 1, 59, 90
3, 45212, Note_off_c, 1, 59, 0
3, 45216, Note_on_c, 1, 58, 90
3, 45308, Note_off_c, 1, 58, 0
3, 45312, Note_on_c, 1, 61, 90
3, 45404, Note_off_c, 1, 61, 0
3, 45408, Note_on_c, 1, 59, 90
3, 45500, Note_off_c, 1, 59, 0
3, 45504, Note_on_c, 1, 62, 90
3, 45596, Note_off_c, 1, 62, 0
3, 46464, Note_on_c, 1, 78, 80
3, 46556, Note_off_c, 1, 78, 0
3, 46656, Note_on_c, 1, 78, 80
3, 46748, Note_off_c, 1, 78, 0
3, 46848, Note_on_c, 1, 76, 80
3, 46940, Note_off_c, 1, 76, 0
3, 47040, Note_on_c, 1, 74, 80
3, 47132, Note_off_c, 1, 74, 0
3, 47232, Note_on_c, 1, 73, 80
3, 47612, Note_off_c, 1, 73, 0
3, 47616, Note_on_c, 1, 71, 80
3, 47804, Note_off_c, 1, 71, 0
3, 47808, Note_on_c, 1, 76, 90
3, 47900, Note_off_c, 1, 76, 0
3, 48000, Note_on_c, 1, 76, 90
3, 48092, Note_off_c, 1, 76, 0
3, 48192, Note_on_c, 1, 76, 90
3, 48284, Note_off_c, 1, 76, 0
3, 48384, Note_on_c, 1, 75, 90
3, 48764, Note_off_c, 1, 75, 0
3, 48768, Note_on_c, 1, 76, 90
3, 48956, Note_off_c, 1, 76, 0
3, 48960, Note_on_c, 1, 74, 90
3, 49052, Note_off_c, 1, 74, 0
3, 49152, Note_on_c, 1, 71, 90
3, 49244, Note_off_c, 1, 71, 0
3, 49344, Note_on_c, 1, 68, 90
3, 49436, Note_off_c, 1, 68, 0
3, 49536, Note_on_c, 1, 71, 90
3, 49916, Note_off_c, 1, 71, 0
3, 49920, Note_on_c, 1, 69, 90
3, 50108, Note_off_c, 1, 69, 0
3, 50112, Note_on_c, 1, 76, 71
3, 50112, Note_on_c, 1, 73, 71
3, 50684, Note_off_c, 1, 76, 0
3, 50684, Note_off_c, 1, 73, 0
3, 50688, Note_on_c, 1, 78, 76
3, 50688, Note_on_c, 1, 74, 76
3, 51260, Note_off_c, 1, 78, 0
3, 51260, Note_off_c, 1, 74, 0
3, 51264, Note_on_c, 1, 80, 81
3, 51264, Note_on_c, 1, 71, 81
3, 51836, Note_off_c, 1, 80, 0
3, 51836, Note_off_c, 1, 71, 0
3, 51840, Note_on_c, 1, 81, 86
3, 51840, Note_on_c, 1, 73, 86
3, 52412, Note_off_c, 1, 81, 0
3, 52412, Note_off_c, 1, 73, 0
3, 52416, Note_on_c, 1, 76, 90
3, 52508, Note_off_c, 1, 76, 0
3, 52608, Note_on_c, 1, 76, 90
3, 52700, Note_off_c, 1, 76, 0
3, 52800, Note_on_c, 1, 76, 90
3, 52892, Note_off_c, 1, 76, 0
3, 52992, Note_on_c, 1, 75, 90
3, 53372, Note_off_c, 1, 75, 0
3, 53376, Note_on_c, 1, 76, 90
3, 53564, Note_off_c, 1, 76, 0
3, 53568, Note_on_c, 1, 74, 70
3, 53660, Note_off_c, 1, 74, 0
3, 53760, Note_on_c, 1, 71, 70
3, 53852, Note_off_c, 1, 71, 0
3, 53952, Note_on_c, 1, 68, 70
3, 54044, Note_off_c, 1, 68, 0
3, 54144, Note_on_c, 1, 71, 70
3, 54524, Note_off_c, 1, 71, 0
3, 54528, Note_on_c, 1, 69, 70
3, 54716, Note_off_c, 1, 69, 0
3, 54720, Note_on_c, 1, 76, 71
3, 54720, Note_on_c, 1, 73, 71
3, 55292, Note_off_c, 1, 76, 0
3, 55292, Note_off_c, 1, 73, 0
3, 55296, Note_on_c, 1, 78, 74
3, 55296, Note_on_c, 1, 74, 74
3, 55868, Note_off_c, 1, 78, 0
3, 55868, Note_off_c, 1, 74, 0
3, 55872, Note_on_c, 1, 80, 77
3, 55872, Note_on_c, 1, 71, 77
3, 56444, Note_off_c, 1, 80, 0
3, 56444, Note_off_c, 1, 71, 0
3, 56448, Note_on_c, 1, 81, 80
3, 56448, Note_on_c, 1, 73, 80
3, 57020, Note_off_c, 1, 81, 0
3, 57020, Note_off_c, 1, 73, 0
3, 57600, Note_on_c, 1, 69, 70
3, 57692, Note_off_c, 1, 69, 0
3, 57696, Note_on_c, 1, 68, 70
3, 57788, Note_off_c, 1, 68, 0
3, 57792, Note_on_c, 1, 69, 70
3, 57884, Note_off_c, 1, 69, 0
3, 57888, Note_on_c, 1, 68, 70
3, 57980, Note_off_c, 1, 68, 0
3, 57984, Note_on_c, 1, 69, 70
3, 58076, Note_off_c, 1, 69, 0
3, 58080, Note_on_c, 1, 68, 70
3, 58172, Note_off_c, 1, 68, 0
3, 58176, Note_on_c, 1, 69, 70
3, 58364, Note_off_c, 1, 69, 0
3, 58752, Note_on_c, 1, 69, 70
3, 58844, Note_off_c, 1, 69, 0
3, 58848, Note_on_c, 1, 68, 70
3, 58940, Note_off_c, 1, 68, 0
3, 58944, Note_on_c, 1, 69, 70
3, 59036, Note_off_c, 1, 69, 0
3, 59040, Note_on_c, 1, 68, 70
3, 59132, Note_off_c, 1, 68, 0
3, 59136, Note_on_c, 1, 69, 70
3, 59228, Note_off_c, 1, 69, 0
3, 59232, Note_on_c, 1, 68, 70
3, 59324, Note_off_c, 1, 68, 0
3, 59328, Note_on_c, 1, 69, 70
3, 59516, Note_off_c, 1, 69, 0
3, 59904, Note_on_c, 1, 69, 71
3, 59996, Note_off_c, 1, 69, 0
3, 60000, Note_on_c, 1, 68, 71
3, 60092, Note_off_c, 1, 68, 0
3, 60096, Note_on_c, 1, 69, 71
3, 60188, Note_off_c, 1, 69, 0
3, 60192, Note_on_c, 1, 68, 72
3, 60284, Note_off_c, 1, 68, 0
3, 60288, Note_on_c, 1, 69, 72
3, 60380, Note_off_c, 1, 69, 0
3, 60384, Note_on_c, 1, 68, 73
3, 60476, Note_off_c, 1, 68, 0
3, 60480, Note_on_c, 1, 69, 73
3, 60668, Note_off_c, 1, 69, 0
3, 61056, Note_on_c, 1, 62, 76
3, 61148, Note_off_c, 1, 62, 0
3, 61152, Note_on_c, 1, 61, 76
3, 61244, Note_off_c, 1, 61, 0
3, 61248, Note_on_c, 1, 62, 76
3, 61340, Note_off_c, 1, 62, 0
3, 61344, Note_on_c, 1, 61, 77
3, 61436, Note_off_c, 1, 61, 0
3, 61440, Note_on_c, 1, 62, 77
3, 61532, Note_off_c, 1, 62, 0
3, 61536, Note_on_c, 1, 61, 78
3, 61628, Note_off_c, 1, 61, 0
3, 61632, Note_on_c, 1, 62, 78
3, 61820, Note_off_c, 1, 62, 0
3, 62208, Note_on_c, 1, 61, 80
3, 62396, Note_off_c, 1, 61, 0
3, 64512, Note_on_c, 1, 76, 70
3, 64512, Note_on_c, 1, 73, 70
3, 65084, Note_off_c, 1, 76, 0
3, 65084, Note_off_c, 1, 73, 0
3, 65088, Note_on_c, 1, 74, 70
3, 65088, Note_on_c, 1, 71, 70
3, 65660, Note_off_c, 1, 74, 0
3, 65660, Note_off_c, 1, 71, 0
3, 65664, Note_on_c, 1, 73, 70
3, 65664, Note_on_c, 1, 69, 70
3, 65664, Note_on_c, 1, 64, 70
3, 66236, Note_off_c, 1, 73, 0
3, 66236, Note_off_c, 1, 69, 0
3, 66236, Note_off_c, 1, 64, 0
3, 66240, Note_on_c, 1, 71, 70
3, 66240, Note_on_c, 1, 68, 70
3, 66240, Note_on_c, 1, 64, 70
3, 66428, Note_off_c, 1, 71, 0
3, 66428, Note_off_c, 1, 68, 0
3, 66428, Note_off_c, 1, 64, 0
3, 66432, Note_on_c, 1, 74, 73
3, 66432, Note_on_c, 1, 71, 73
3, 66620, Note_off_c, 1, 74, 0
3, 66620, Note_off_c, 1, 71, 0
3, 66624, Note_on_c, 1, 80, 76
3, 66624, Note_on_c, 1, 74, 76
3, 66812, Note_off_c, 1, 80, 0
3, 66812, Note_off_c, 1, 74, 0
3, 66816, Note_on_c, 1, 81, 80
3, 66816, Note_on_c, 1, 73, 80
3, 66908, Note_off_c, 1, 81, 0
3, 66908, Note_off_c, 1, 73, 0
3, 67008, Note_on_c, 1, 73, 80
3, 67008, Note_on_c, 1, 69, 80
3, 67196, Note_off_c, 1, 73, 0
3, 67196, Note_off_c, 1, 69, 0
3, 67200, Note_on_c, 1, 76, 80
3, 67388, Note_off_c, 1, 76, 0
3, 67584, Note_on_c, 1, 64, 80
3, 67584, Note_on_c, 1, 57, 80
3, 67772, Note_off_c, 1, 64, 0
3, 67772, Note_off_c, 1, 57, 0
3, 67776, Note_on_c, 1, 69, 80
3, 67964, Note_off_c, 1, 69, 0
3, 68160, Note_on_c, 1, 66, 80
3, 68160, Note_on_c, 1, 57, 80
3, 68348, Note_off_c, 1, 66, 0
3, 68348, Note_off_c, 1, 57, 0
3, 68352, Note_on_c, 1, 69, 80
3, 68540, Note_off_c, 1, 69, 0
3, 68736, Note_on_c, 1, 62, 80
3, 68736, Note_on_c, 1, 59, 80
3, 68924, Note_off_c, 1, 62, 0
3, 68924, Note_off_c, 1, 59, 0
3, 68928, Note_on_c, 1, 66, 80
3, 69116, Note_off_c, 1, 66, 0
3, 69312, Note_on_c, 1, 69, 80
3, 69312, Note_on_c, 1, 64, 80
3, 69500, Note_off_c, 1, 69, 0
3, 69500, Note_off_c, 1, 64, 0
3, 69504, Note_on_c, 1, 73, 80
3, 69504, Note_on_c, 1, 66, 80
3, 69692, Note_off_c, 1, 73, 0
3, 69692, Note_off_c, 1, 66, 0
3, 69696, Note_on_c, 1, 74, 80
3, 69696, Note_on_c, 1, 66, 80
3, 69884, Note_off_c, 1, 74, 0
3, 69884, Note_off_c, 1, 66, 0
3, 69888, Note_on_c, 1, 66, 80
3, 69888, Note_on_c, 1, 62, 80
3, 70076, Note_off_c, 1, 66, 0
3, 70076, Note_off_c, 1, 62, 0
3, 70080, Note_on_c, 1, 68, 80
3, 70080, Note_on_c, 1, 62, 80
3, 70268, Note_off_c, 1, 68, 0
3, 70268, Note_off_c, 1, 62, 0
3, 70272, Note_on_c, 1, 69, 80
3, 70272, Note_on_c, 1, 61, 80
3, 70460, Note_off_c, 1, 69, 0
3, 70464, Note_on_c, 1, 64, 80
3, 70652, Note_off_c, 1, 64, 0
3, 70656, Note_on_c, 1, 67, 80
3, 70844, Note_off_c, 1, 61, 0
3, 70844, Note_off_c, 1, 67, 0
3, 70848, Note_on_c, 1, 66, 70
3, 70848, Note_on_c, 1, 62, 70
3, 71036, Note_off_c, 1, 66, 0
3, 71040, Note_on_c, 1, 69, 70
3, 71228, Note_off_c, 1, 69, 0
3, 71232, Note_on_c, 1, 68, 70
3, 71420, Note_off_c, 1, 62, 0
3, 71420, Note_off_c, 1, 68, 0
3, 71424, Note_on_c, 1, 69, 70
3, 71424, Note_on_c, 1, 61, 70
3, 71612, Note_off_c, 1, 69, 0
3, 71616, Note_on_c, 1, 64, 70
3, 71804, Note_off_c, 1, 64, 0
3, 71808, Note_on_c, 1, 67, 70
3, 71996, Note_off_c, 1, 61, 0
3, 71996, Note_off_c, 1, 67, 0
3, 72000, Note_on_c, 1, 66, 70
3, 72000, Note_on_c, 1, 62, 70
3, 72188, Note_off_c, 1, 66, 0
3, 72192, Note_on_c, 1, 69, 70
3, 72380, Note_off_c, 1, 69, 0
3, 72384, Note_on_c, 1, 68, 70
3, 72572, Note_off_c, 1, 62, 0
3, 72572, Note_off_c, 1, 68, 0
3, 72576, Note_on_c, 1, 69, 70
3, 72576, Note_on_c, 1, 61, 70
3, 72764, Note_off_c, 1, 69, 0
3, 72768, Note_on_c, 1, 76, 70
3, 72768, Note_on_c, 1, 73, 70
3, 72956, Note_off_c, 1, 76, 0
3, 72956, Note_off_c, 1, 73, 0
3, 72960, Note_on_c, 1, 79, 70
3, 72960, Note_on_c, 1, 76, 70
3, 73148, Note_off_c, 1, 61, 0
3, 73148, Note_off_c, 1, 79, 0
3, 73148, Note_off_c, 1, 76, 0
3, 73152, Note_on_c, 1, 78, 70
3, 73152, Note_on_c, 1, 74, 70
3, 73340, Note_off_c, 1, 78, 0
3, 73344, Note_on_c, 1, 81, 70
3, 73532, Note_off_c, 1, 81, 0
3, 73536, Note_on_c, 1, 80, 70
3, 73724, Note_off_c, 1, 74, 0
3, 73724, Note_off_c, 1, 80, 0
3, 73728, Note_on_c, 1, 81, 70
3, 73728, Note_on_c, 1, 73, 70
3, 73916, Note_off_c, 1, 81, 0
3, 73920, Note_on_c, 1, 76, 70
3, 74108, Note_off_c, 1, 76, 0
3, 74112, Note_on_c, 1, 79, 70
3, 74300, Note_off_c, 1, 73, 0
3, 74300, Note_off_c, 1, 79, 0
3, 74304, Note_on_c, 1, 78, 70
3, 74304, Note_on_c, 1, 74, 70
3, 74492, Note_off_c, 1, 78, 0
3, 74496, Note_on_c, 1, 81, 70
3, 74684, Note_off_c, 1, 81, 0
3, 74688, Note_on_c, 1, 79, 70
3, 74876, Note_off_c, 1, 74, 0
3, 74876, Note_off_c, 1, 79, 0
3, 74880, Note_on_c, 1, 81, 70
3, 74880, Note_on_c, 1, 73, 70
3, 75068, Note_off_c, 1, 81, 0
3, 75068, Note_off_c, 1, 73, 0
3, 75456, Note_on_c, 1, 76, 70
3, 75456, Note_on_c, 1, 73, 70
3, 75456, Note_on_c, 1, 69, 70
3, 75644, Note_off_c, 1, 76, 0
3, 75644, Note_off_c, 1, 73, 0
3, 75644, Note_off_c, 1, 69, 0
3, 76032, Note_on_c, 1, 73, 70
3, 76032, Note_on_c, 1, 69, 70
3, 76032, Note_on_c, 1, 64, 70
3, 76412, Note_off_c, 1, 73, 0
3, 76412, Note_off_c, 1, 69, 0
3, 76412, Note_off_c, 1, 64, 0
3, 79872, Note_on_c, 1, 74, 70
3, 79872, Note_on_c, 1, 69, 70
3, 79872, Note_on_c, 1, 66, 70
3, 80252, Note_off_c, 1, 74, 0
3, 80252, Note_off_c, 1, 69, 0
3, 80252, Note_off_c, 1, 66, 0
3, 80448, Note_on_c, 1, 73, 70
3, 80448, Note_on_c, 1, 69, 70
3, 80448, Note_on_c, 1, 67, 70
3, 80636, Note_off_c, 1, 73, 0
3, 80636, Note_off_c, 1, 69, 0
3, 80636, Note_off_c, 1, 67, 0
3, 80640, Note_on_c, 1, 73, 70
3, 80640, Note_on_c, 1, 69, 70
3, 80640, Note_on_c, 1, 67, 70
3, 81020, Note_off_c, 1, 73, 0
3, 81020, Note_off_c, 1, 69, 0
3, 81020, Note_off_c, 1, 67, 0
3, 81024, Note_on_c, 1, 74, 70
3, 81024, Note_on_c, 1, 69, 70
3, 81024, Note_on_c, 1, 66, 70
3, 81212, Note_off_c, 1, 74, 0
3, 81212, Note_off_c, 1, 69, 0
3, 81212, Note_off_c, 1, 66, 0
3, 81216, Note_on_c, 1, 64, 70
3, 81356, Note_off_c, 1, 64, 0
3, 81360, Note_on_c, 1, 61, 80
3, 81404, Note_off_c, 1, 61, 0
3, 81408, Note_on_c, 1, 69, 70
3, 81408, Note_on_c, 1, 66, 70
3, 81596, Note_off_c, 1, 69, 0
3, 81596, Note_off_c, 1, 66, 0
3, 81600, Note_on_c, 1, 69, 70
3, 81600, Note_on_c, 1, 66, 70
3, 81788, Note_off_c, 1, 69, 0
3, 81788, Note_off_c, 1, 66, 0
3, 81792, Note_on_c, 1, 71, 70
3, 81792, Note_on_c, 1, 67, 70
3, 81980, Note_off_c, 1, 71, 0
3, 81980, Note_off_c, 1, 67, 0
3, 81984, Note_on_c, 1, 71, 70
3, 81984, Note_on_c, 1, 67, 70
3, 82172, Note_off_c, 1, 71, 0
3, 82172, Note_off_c, 1, 67, 0
3, 82176, Note_on_c, 1, 64, 70
3, 82176, Note_on_c, 1, 61, 70
3, 82364, Note_off_c, 1, 64, 0
3, 82364, Note_off_c, 1, 61, 0
3, 82752, Note_on_c, 1, 78, 90
3, 82844, Note_off_c, 1, 78, 0
3, 82848, Note_on_c, 1, 74, 90
3, 82940, Note_off_c, 1, 74, 0
3, 82944, Note_on_c, 1, 73, 90
3, 83036, Note_off_c, 1, 73, 0
3, 83040, Note_on_c, 1, 71, 90
3, 83132, Note_off_c, 1, 71, 0
3, 83136, Note_on_c, 1, 79, 90
3, 83228, Note_off_c, 1, 79, 0
3, 83232, Note_on_c, 1, 76, 90
3, 83324, Note_off_c, 1, 76, 0
3, 83328, Note_on_c, 1, 74, 90
3, 83420, Note_off_c, 1, 74, 0
3, 83424, Note_on_c, 1, 73, 90
3, 83516, Note_off_c, 1, 73, 0
3, 83520, Note_on_c, 1, 81, 90
3, 83612, Note_off_c, 1, 81, 0
3, 83616, Note_on_c, 1, 78, 90
3, 83708, Note_off_c, 1, 78, 0
3, 83712, Note_on_c, 1, 76, 90
3, 83804, Note_off_c, 1, 76, 0
3, 83808, Note_on_c, 1, 74, 90
3, 83900, Note_off_c, 1, 74, 0
3, 83904, Note_on_c, 1, 83, 90
3, 84092, Note_off_c, 1, 83, 0
3, 84672, Note_on_c, 1, 69, 70
3, 84672, Note_on_c, 1, 66, 70
3, 84860, Note_off_c, 1, 69, 0
3, 84860, Note_off_c, 1, 66, 0
3, 84864, Note_on_c, 1, 74, 70
3, 84864, Note_on_c, 1, 68, 70
3, 85244, Note_off_c, 1, 74, 0
3, 85244, Note_off_c, 1, 68, 0
3, 85440, Note_on_c, 1, 73, 70
3, 85440, Note_on_c, 1, 69, 70
3, 85440, Note_on_c, 1, 64, 70
3, 85628, Note_off_c, 1, 73, 0
3, 85628, Note_off_c, 1, 69, 0
3, 85628, Note_off_c, 1, 64, 0
3, 85632, Note_on_c, 1, 76, 70
3, 85632, Note_on_c, 1, 73, 70
3, 85632, Note_on_c, 1, 69, 70
3, 85820, Note_off_c, 1, 76, 0
3, 85820, Note_off_c, 1, 73, 0
3, 85820, Note_off_c, 1, 69, 0
3, 86016, Note_on_c, 1, 74, 70
3, 86016, Note_on_c, 1, 66, 70
3, 86108, Note_off_c, 1, 74, 0
3, 86108, Note_off_c, 1, 66, 0
3, 86208, Note_on_c, 1, 69, 70
3, 86300, Note_off_c, 1, 69, 0
3, 86400, Note_on_c, 1, 69, 70
3, 86492, Note_off_c, 1, 69, 0
3, 86592, Note_on_c, 1, 73, 70
3, 86592, Note_on_c, 1, 69, 70
3, 86592, Note_on_c, 1, 67, 70
3, 86684, Note_off_c, 1, 73, 0
3, 86684, Note_off_c, 1, 69, 0
3, 86684, Note_off_c, 1, 67, 0
3, 86784, Note_on_c, 1, 73, 70
3, 86784, Note_on_c, 1, 69, 70
3, 86784, Note_on_c, 1, 67, 70
3, 87164, Note_off_c, 1, 73, 0
3, 87164, Note_off_c, 1, 69, 0
3, 87164, Note_off_c, 1, 67, 0
3, 87168, Note_on_c, 1, 74, 70
3, 87168, Note_on_c, 1, 69, 70
3, 87168, Note_on_c, 1, 66, 70
3, 87356, Note_off_c, 1, 74, 0
3, 87356, Note_off_c, 1, 69, 0
3, 87356, Note_off_c, 1, 66, 0
3, 87360, Note_on_c, 1, 64, 70
3, 87500, Note_off_c, 1, 64, 0
3, 87504, Note_on_c, 1, 61, 80
3, 87548, Note_off_c, 1, 61, 0
3, 87552, Note_on_c, 1, 69, 70
3, 87552, Note_on_c, 1, 66, 70
3, 87740, Note_off_c, 1, 69, 0
3, 87740, Note_off_c, 1, 66, 0
3, 87744, Note_on_c, 1, 69, 70
3, 87744, Note_on_c, 1, 66, 70
3, 87932, Note_off_c, 1, 69, 0
3, 87932, Note_off_c, 1, 66, 0
3, 87936, Note_on_c, 1, 71, 70
3, 87936, Note_on_c, 1, 67, 70
3, 88124, Note_off_c, 1, 71, 0
3, 88124, Note_off_c, 1, 67, 0
3, 88128, Note_on_c, 1, 71, 70
3, 88128, Note_on_c, 1, 67, 70
3, 88316, Note_off_c, 1, 71, 0
3, 88316, Note_off_c, 1, 67, 0
3, 88320, Note_on_c, 1, 64, 70
3, 88320, Note_on_c, 1, 61, 70
3, 88508, Note_off_c, 1, 64, 0
3, 88508, Note_off_c, 1, 61, 0
3, 88896, Note_on_c, 1, 71, 68
3, 88896, Note_on_c, 1, 67, 68
3, 89036, Note_off_c, 1, 71, 0
3, 89036, Note_off_c, 1, 67, 0
3, 89040, Note_on_c, 1, 67, 65
3, 89040, Note_on_c, 1, 64, 65
3, 89084, Note_off_c, 1, 67, 0
3, 89084, Note_off_c, 1, 64, 0
3, 89088, Note_on_c, 1, 64, 63
3, 89088, Note_on_c, 1, 61, 63
3, 89180, Note_off_c, 1, 64, 0
3, 89180, Note_off_c, 1, 61, 0
3, 89664, Note_on_c, 1, 71, 60
3, 89664, Note_on_c, 1, 67, 60
3, 89708, Note_off_c, 1, 71, 0
3, 89708, Note_off_c, 1, 67, 0
3, 89712, Note_on_c, 1, 64, 60
3, 89756, Note_off_c, 1, 64, 0
3, 89760, Note_on_c, 1, 71, 60
3, 89760, Note_on_c, 1, 67, 60
3, 89804, Note_off_c, 1, 71, 0
3, 89804, Note_off_c, 1, 67, 0
3, 89808, Note_on_c, 1, 64, 60
3, 89852, Note_off_c, 1, 64, 0
3, 89856, Note_on_c, 1, 64, 60
3, 89856, Note_on_c, 1, 61, 60
3, 89948, Note_off_c, 1, 64, 0
3, 89948, Note_off_c, 1, 61, 0
3, 91200, Note_on_c, 1, 74, 80
3, 91200, Note_on_c, 1, 71, 80
3, 91292, Note_off_c, 1, 74, 0
3, 91292, Note_off_c, 1, 71, 0
3, 91392, Note_on_c, 1, 78, 80
3, 91392, Note_on_c, 1, 69, 80
3, 91484, Note_off_c, 1, 78, 0
3, 91484, Note_off_c, 1, 69, 0
3, 91584, Note_on_c, 1, 79, 80
3, 91584, Note_on_c, 1, 67, 80
3, 91676, Note_off_c, 1, 79, 0
3, 91676, Note_off_c, 1, 67, 0
3, 91776, Note_on_c, 1, 79, 90
3, 91828, Note_off_c, 1, 79, 0
3, 91832, Note_on_c, 1, 69, 80
3, 91832, Note_on_c, 1, 78, 80
3, 91884, Note_off_c, 1, 78, 0
3, 91968, Note_on_c, 1, 76, 80
3, 92060, Note_off_c, 1, 76, 0
3, 92160, Note_on_c, 1, 74, 80
3, 92252, Note_off_c, 1, 74, 0
3, 92348, Note_off_c, 1, 69, 0
3, 92352, Note_on_c, 1, 69, 90
3, 92404, Note_off_c, 1, 69, 0
3, 92408, Note_on_c, 1, 67, 80
3, 92408, Note_on_c, 1, 57, 80
3, 92500, Note_off_c, 1, 67, 0
3, 92544, Note_on_c, 1, 66, 80
3, 92636, Note_off_c, 1, 66, 0
3, 92736, Note_on_c, 1, 64, 80
3, 92828, Note_off_c, 1, 64, 0
3, 92924, Note_off_c, 1, 57, 0
3, 92928, Note_on_c, 1, 66, 80
3, 92928, Note_on_c, 1, 62, 80
3, 93020, Note_off_c, 1, 66, 0
3, 93120, Note_on_c, 1, 67, 80
3, 93212, Note_off_c, 1, 67, 0
3, 93312, Note_on_c, 1, 69, 80
3, 93404, Note_off_c, 1, 69, 0
3, 93500, Note_off_c, 1, 62, 0
3, 93504, Note_on_c, 1, 74, 80
3, 93504, Note_on_c, 1, 71, 80
3, 93596, Note_off_c, 1, 74, 0
3, 93596, Note_off_c, 1, 71, 0
3, 93696, Note_on_c, 1, 78, 80
3, 93696, Note_on_c, 1, 69, 80
3, 93788, Note_off_c, 1, 78, 0
3, 93788, Note_off_c, 1, 69, 0
3, 93888, Note_on_c, 1, 79, 80
3, 93888, Note_on_c, 1, 67, 80
3, 93980, Note_off_c, 1, 79, 0
3, 93980, Note_off_c, 1, 67, 0
3, 94080, Note_on_c, 1, 79, 90
3, 94132, Note_off_c, 1, 79, 0
3, 94136, Note_on_c, 1, 78, 80
3, 94136, Note_on_c, 1, 69, 80
3, 94228, Note_off_c, 1, 78, 0
3, 94272, Note_on_c, 1, 76, 80
3, 94364, Note_off_c, 1, 76, 0
3, 94464, Note_on_c, 1, 74, 80
3, 94556, Note_off_c, 1, 74, 0
3, 94652, Note_off_c, 1, 69, 0
3, 94656, Note_on_c, 1, 69, 90
3, 94708, Note_off_c, 1, 69, 0
3, 94712, Note_on_c, 1, 67, 80
3, 94712, Note_on_c, 1, 57, 80
3, 94804, Note_off_c, 1, 67, 0
3, 94848, Note_on_c, 1, 66, 80
3, 94940, Note_off_c, 1, 66, 0
3, 95040, Note_on_c, 1, 64, 80
3, 95132, Note_off_c, 1, 64, 0
3, 95228, Note_off_c, 1, 57, 0
3, 95232, Note_on_c, 1, 62, 80
3, 95232, Note_on_c, 1, 66, 80
3, 95420, Note_off_c, 1, 66, 0
3, 95424, Note_on_c, 1, 69, 80
3, 95612, Note_off_c, 1, 69, 0
3, 95616, Note_on_c, 1, 72, 80
3, 95804, Note_off_c, 1, 72, 0
3, 95808, Note_on_c, 1, 71, 80
3, 95996, Note_off_c, 1, 71, 0
3, 96000, Note_on_c, 1, 74, 80
3, 96188, Note_off_c, 1, 74, 0
3, 96192, Note_on_c, 1, 73, 80
3, 96380, Note_off_c, 1, 73, 0
3, 96384, Note_on_c, 1, 74, 80
3, 96572, Note_off_c, 1, 74, 0
3, 96576, Note_on_c, 1, 69, 80
3, 96764, Note_off_c, 1, 69, 0
3, 96768, Note_on_c, 1, 72, 80
3, 96956, Note_off_c, 1, 72, 0
3, 96960, Note_on_c, 1, 71, 80
3, 97148, Note_off_c, 1, 71, 0
3, 97152, Note_on_c, 1, 74, 80
3, 97340, Note_off_c, 1, 74, 0
3, 97344, Note_on_c, 1, 73, 80
3, 97532, Note_off_c, 1, 62, 0
3, 97532, Note_off_c, 1, 73, 0
3, 97536, Note_on_c, 1, 74, 80
3, 97724, Note_off_c, 1, 74, 0
3, 97728, Note_on_c, 1, 69, 80
3, 97916, Note_off_c, 1, 69, 0
3, 97920, Note_on_c, 1, 72, 80
3, 98108, Note_off_c, 1, 72, 0
3, 98160, Note_on_c, 1, 71, 70
3, 98304, Note_off_c, 1, 71, 0
3, 98304, Note_on_c, 1, 74, 70
3, 98492, Note_off_c, 1, 74, 0
3, 98496, Note_on_c, 1, 73, 70
3, 98684, Note_off_c, 1, 73, 0
3, 98736, Note_on_c, 1, 74, 70
3, 98880, Note_off_c, 1, 74, 0
3, 98880, Note_on_c, 1, 69, 70
3, 99068, Note_off_c, 1, 69, 0
3, 99072, Note_on_c, 1, 72, 70
3, 99260, Note_off_c, 1, 72, 0
3, 99312, Note_on_c, 1, 71, 70
3, 99456, Note_off_c, 1, 71, 0
3, 99456, Note_on_c, 1, 74, 70
3, 99644, Note_off_c, 1, 74, 0
3, 99648, Note_on_c, 1, 73, 70
3, 99836, Note_off_c, 1, 73, 0
3, 99840, Note_on_c, 1, 74, 70
3, 99932, Note_off_c, 1, 74, 0
3, 100416, Note_on_c, 1, 71, 80
3, 100508, Note_off_c, 1, 71, 0
3, 100608, Note_on_c, 1, 69, 80
3, 100700, Note_off_c, 1, 69, 0
3, 100800, Note_on_c, 1, 67, 80
3, 100892, Note_off_c, 1, 67, 0
3, 100992, Note_on_c, 1, 65, 90
3, 101372, Note_off_c, 1, 65, 0
3, 101376, Note_on_c, 1, 66, 70
3, 101564, Note_off_c, 1, 66, 0
3, 101568, Note_on_c, 1, 67, 70
3, 101660, Note_off_c, 1, 67, 0
3, 101760, Note_on_c, 1, 66, 70
3, 101852, Note_off_c, 1, 66, 0
3, 101952, Note_on_c, 1, 64, 70
3, 102044, Note_off_c, 1, 64, 0
3, 102144, Note_on_c, 1, 61, 95
3, 102524, Note_off_c, 1, 61, 0
3, 102528, Note_on_c, 1, 62, 80
3, 102716, Note_off_c, 1, 62, 0
3, 102912, Note_on_c, 1, 69, 80
3, 103004, Note_off_c, 1, 69, 0
3, 103104, Note_on_c, 1, 69, 80
3, 103196, Note_off_c, 1, 69, 0
3, 103488, Note_on_c, 1, 71, 80
3, 103580, Note_off_c, 1, 71, 0
3, 103680, Note_on_c, 1, 71, 80
3, 103772, Note_off_c, 1, 71, 0
3, 103872, Note_on_c, 1, 76, 80
3, 104160, Note_off_c, 1, 76, 0
3, 104160, Note_on_c, 1, 73, 80
3, 104252, Note_off_c, 1, 73, 0
3, 104256, Note_on_c, 1, 76, 80
3, 104348, Note_off_c, 1, 76, 0
3, 104352, Note_on_c, 1, 73, 80
3, 104432, Note_off_c, 1, 73, 0
3, 104448, Note_on_c, 1, 74, 80
3, 104540, Note_off_c, 1, 74, 0
3, 104640, Note_on_c, 1, 69, 80
3, 104640, Note_on_c, 1, 66, 80
3, 104732, Note_off_c, 1, 69, 0
3, 104732, Note_off_c, 1, 66, 0
3, 104832, Note_on_c, 1, 62, 80
3, 104832, Note_on_c, 1, 66, 80
3, 104924, Note_off_c, 1, 62, 0
3, 104924, Note_off_c, 1, 66, 0
3, 105024, Note_on_c, 1, 69, 90
3, 105024, Note_on_c, 1, 66, 90
3, 105068, Note_off_c, 1, 69, 0
3, 105068, Note_off_c, 1, 66, 0
3, 105072, Note_on_c, 1, 71, 80
3, 105072, Note_on_c, 1, 67, 80
3, 105116, Note_off_c, 1, 71, 0
3, 105116, Note_off_c, 1, 67, 0
3, 105120, Note_on_c, 1, 72, 80
3, 105120, Note_on_c, 1, 69, 80
3, 105212, Note_off_c, 1, 72, 0
3, 105212, Note_off_c, 1, 69, 0
3, 105600, Note_on_c, 1, 71, 90
3, 105600, Note_on_c, 1, 67, 90
3, 105644, Note_off_c, 1, 71, 0
3, 105644, Note_off_c, 1, 67, 0
3, 105648, Note_on_c, 1, 69, 80
3, 105648, Note_on_c, 1, 66, 80
3, 105692, Note_off_c, 1, 69, 0
3, 105692, Note_off_c, 1, 66, 0
3, 105696, Note_on_c, 1, 67, 80
3, 105696, Note_on_c, 1, 64, 80
3, 105788, Note_off_c, 1, 67, 0
3, 105788, Note_off_c, 1, 64, 0
3, 106176, Note_on_c, 1, 66, 90
3, 106176, Note_on_c, 1, 63, 90
3, 106220, Note_off_c, 1, 66, 0
3, 106220, Note_off_c, 1, 63, 0
3, 106224, Note_on_c, 1, 67, 80
3, 106224, Note_on_c, 1, 64, 80
3, 106268, Note_off_c, 1, 67, 0
3, 106268, Note_off_c, 1, 64, 0
3, 106272, Note_on_c, 1, 69, 80
3, 106272, Note_on_c, 1, 66, 80
3, 106364, Note_off_c, 1, 69, 0
3, 106364, Note_off_c, 1, 66, 0
3, 106752, Note_on_c, 1, 67, 90
3, 106752, Note_on_c, 1, 64, 90
3, 106796, Note_off_c, 1, 67, 0
3, 106796, Note_off_c, 1, 64, 0
3, 106800, Note_on_c, 1, 66, 80
3, 106844, Note_off_c, 1, 66, 0
3, 106848, Note_on_c, 1, 64, 80
3, 106940, Note_off_c, 1, 64, 0
3, 107328, Note_on_c, 1, 67, 90
3, 107328, Note_on_c, 1, 64, 90
3, 107372, Note_off_c, 1, 67, 0
3, 107372, Note_off_c, 1, 64, 0
3, 107376, Note_on_c, 1, 69, 80
3, 107376, Note_on_c, 1, 66, 80
3, 107420, Note_off_c, 1, 69, 0
3, 107420, Note_off_c, 1, 66, 0
3, 107424, Note_on_c, 1, 70, 80
3, 107424, Note_on_c, 1, 67, 80
3, 107516, Note_off_c, 1, 70, 0
3, 107516, Note_off_c, 1, 67, 0
3, 107904, Note_on_c, 1, 69, 90
3, 107904, Note_on_c, 1, 66, 90
3, 107948, Note_off_c, 1, 69, 0
3, 107948, Note_off_c, 1, 66, 0
3, 107952, Note_on_c, 1, 67, 80
3, 107952, Note_on_c, 1, 64, 80
3, 107996, Note_off_c, 1, 67, 0
3, 107996, Note_off_c, 1, 64, 0
3, 108000, Note_on_c, 1, 66, 80
3, 108000, Note_on_c, 1, 62, 80
3, 108092, Note_off_c, 1, 66, 0
3, 108092, Note_off_c, 1, 62, 0
3, 108480, Note_on_c, 1, 64, 90
3, 108480, Note_on_c, 1, 61, 90
3, 108524, Note_off_c, 1, 64, 0
3, 108524, Note_off_c, 1, 61, 0
3, 108528, Note_on_c, 1, 66, 80
3, 108528, Note_on_c, 1, 62, 80
3, 108572, Note_off_c, 1, 66, 0
3, 108572, Note_off_c, 1, 62, 0
3, 108576, Note_on_c, 1, 67, 80
3, 108576, Note_on_c, 1, 64, 80
3, 108668, Note_off_c, 1, 67, 0
3, 108668, Note_off_c, 1, 64, 0
3, 109056, Note_on_c, 1, 66, 90
3, 109056, Note_on_c, 1, 62, 90
3, 109100, Note_off_c, 1, 66, 0
3, 109100, Note_off_c, 1, 62, 0
3, 109104, Note_on_c, 1, 64, 80
3, 109148, Note_off_c, 1, 64, 0
3, 109152, Note_on_c, 1, 62, 80
3, 109244, Note_off_c, 1, 62, 0
3, 109632, Note_on_c, 1, 74, 90
3, 109632, Note_on_c, 1, 71, 90
3, 109676, Note_off_c, 1, 74, 0
3, 109676, Note_off_c, 1, 71, 0
3, 109680, Note_on_c, 1, 73, 80
3, 109724, Note_off_c, 1, 73, 0
3, 109728, Note_on_c, 1, 71, 80
3, 109820, Note_off_c, 1, 71, 0
3, 110208, Note_on_c, 1, 67, 80
3, 110396, Note_off_c, 1, 67, 0
3, 110400, Note_on_c, 1, 74, 80
3, 110588, Note_off_c, 1, 74, 0
3, 110592, Note_on_c, 1, 72, 80
3, 110780, Note_off_c, 1, 72, 0
3, 110784, Note_on_c, 1, 69, 80
3, 110972, Note_off_c, 1, 69, 0
3, 110976, Note_on_c, 1, 81, 80
3, 111164, Note_off_c, 1, 81, 0
3, 111168, Note_on_c, 1, 78, 80
3, 111356, Note_off_c, 1, 78, 0
3, 111360, Note_on_c, 1, 71, 79
3, 111548, Note_off_c, 1, 71, 0
3, 111552, Note_on_c, 1, 75, 77
3, 111740, Note_off_c, 1, 75, 0
3, 111744, Note_on_c, 1, 76, 76
3, 111932, Note_off_c, 1, 76, 0
3, 111936, Note_on_c, 1, 71, 75
3, 112124, Note_off_c, 1, 71, 0
3, 112128, Note_on_c, 1, 83, 73
3, 112316, Note_off_c, 1, 83, 0
3, 112320, Note_on_c, 1, 77, 71
3, 112508, Note_off_c, 1, 77, 0
3, 112512, Note_on_c, 1, 70, 69
3, 112700, Note_off_c, 1, 70, 0
3, 112704, Note_on_c, 1, 79, 67
3, 112892, Note_off_c, 1, 79, 0
3, 112896, Note_on_c, 1, 78, 65
3, 113084, Note_off_c, 1, 78, 0
3, 113088, Note_on_c, 1, 66, 95
3, 113132, Note_off_c, 1, 66, 0
3, 113184, Note_on_c, 1, 67, 95
3, 113228, Note_off_c, 1, 67, 0
3, 113280, Note_on_c, 1, 66, 95
3, 113324, Note_off_c, 1, 66, 0
3, 113376, Note_on_c, 1, 64, 95
3, 113420, Note_off_c, 1, 64, 0
3, 113472, Note_on_c, 1, 62, 95
3, 113516, Note_off_c, 1, 62, 0
3, 113568, Note_on_c, 1, 61, 95
3, 113612, Note_off_c, 1, 61, 0
3, 113664, Note_on_c, 1, 59, 95
3, 114044, Note_off_c, 1, 59, 0
3, 114240, Note_on_c, 1, 73, 85
3, 114240, Note_on_c, 1, 70, 85
3, 114240, Note_on_c, 1, 66, 85
3, 114240, Note_on_c, 1, 64, 85
3, 114812, Note_off_c, 1, 73, 0
3, 114812, Note_off_c, 1, 70, 0
3, 114812, Note_off_c, 1, 66, 0
3, 114812, Note_off_c, 1, 64, 0
3, 114816, Note_on_c, 1, 74, 80
3, 114816, Note_on_c, 1, 71, 80
3, 114816, Note_on_c, 1, 66, 80
3, 114816, Note_on_c, 1, 62, 80
3, 115388, Note_off_c, 1, 74, 0
3, 115388, Note_off_c, 1, 71, 0
3, 115388, Note_off_c, 1, 66, 0
3, 115388, Note_off_c, 1, 62, 0
3, 115392, Note_on_c, 1, 76, 80
3, 115392, Note_on_c, 1, 73, 80
3, 115392, Note_on_c, 1, 66, 80
3, 115964, Note_off_c, 1, 76, 0
3, 115964, Note_off_c, 1, 73, 0
3, 115964, Note_off_c, 1, 66, 0
3, 115968, Note_on_c, 1, 74, 80
3, 115968, Note_on_c, 1, 71, 80
3, 115968, Note_on_c, 1, 66, 80
3, 116348, Note_off_c, 1, 74, 0
3, 116348, Note_off_c, 1, 71, 0
3, 116348, Note_off_c, 1, 66, 0
3, 116352, Note_on_c, 1, 76, 70
3, 116540, Note_off_c, 1, 76, 0
3, 116544, Note_on_c, 1, 73, 70
3, 116732, Note_off_c, 1, 73, 0
3, 116736, Note_on_c, 1, 74, 70
3, 116924, Note_off_c, 1, 74, 0
3, 116928, Note_on_c, 1, 76, 70
3, 117116, Note_off_c, 1, 76, 0
3, 117120, Note_on_c, 1, 72, 70
3, 117308, Note_off_c, 1, 72, 0
3, 117312, Note_on_c, 1, 75, 70
3, 117500, Note_off_c, 1, 75, 0
3, 117504, Note_on_c, 1, 76, 70
3, 117692, Note_off_c, 1, 76, 0
3, 117696, Note_on_c, 1, 67, 70
3, 117884, Note_off_c, 1, 67, 0
3, 117888, Note_on_c, 1, 69, 70
3, 118076, Note_off_c, 1, 69, 0
3, 118080, Note_on_c, 1, 71, 70
3, 118268, Note_off_c, 1, 71, 0
3, 118272, Note_on_c, 1, 64, 80
3, 118272, Note_on_c, 1, 59, 80
3, 118272, Note_on_c, 1, 55, 80
3, 118652, Note_off_c, 1, 64, 0
3, 118652, Note_off_c, 1, 59, 0
3, 118652, Note_off_c, 1, 55, 0
3, 118848, Note_on_c, 1, 66, 80
3, 118848, Note_on_c, 1, 63, 80
3, 118848, Note_on_c, 1, 59, 80
3, 118848, Note_on_c, 1, 57, 80
3, 119420, Note_off_c, 1, 66, 0
3, 119420, Note_off_c, 1, 63, 0
3, 119420, Note_off_c, 1, 59, 0
3, 119420, Note_off_c, 1, 57, 0
3, 119424, Note_on_c, 1, 67, 80
3, 119424, Note_on_c, 1, 64, 80
3, 119424, Note_on_c, 1, 59, 80
3, 119424, Note_on_c, 1, 55, 80
3, 119996, Note_off_c, 1, 67, 0
3, 119996, Note_off_c, 1, 64, 0
3, 119996, Note_off_c, 1, 59, 0
3, 119996, Note_off_c, 1, 55, 0
3, 120000, Note_on_c, 1, 69, 80
3, 120000, Note_on_c, 1, 66, 80
3, 120000, Note_on_c, 1, 63, 80
3, 120572, Note_off_c, 1, 69, 0
3, 120572, Note_off_c, 1, 66, 0
3, 120572, Note_off_c, 1, 63, 0
3, 120576, Note_on_c, 1, 67, 80
3, 120576, Note_on_c, 1, 64, 80
3, 120956, Note_off_c, 1, 67, 0
3, 120956, Note_off_c, 1, 64, 0
3, 120960, Note_on_c, 1, 69, 70
3, 121148, Note_off_c, 1, 69, 0
3, 121152, Note_on_c, 1, 71, 70
3, 121340, Note_off_c, 1, 71, 0
3, 121344, Note_on_c, 1, 68, 70
3, 121532, Note_off_c, 1, 68, 0
3, 121536, Note_on_c, 1, 69, 70
3, 121724, Note_off_c, 1, 69, 0
3, 121728, Note_on_c, 1, 66, 70
3, 121916, Note_off_c, 1, 66, 0
3, 121920, Note_on_c, 1, 68, 70
3, 122108, Note_off_c, 1, 68, 0
3, 122112, Note_on_c, 1, 69, 70
3, 122300, Note_off_c, 1, 69, 0
3, 122304, Note_on_c, 1, 61, 70
3, 122492, Note_off_c, 1, 61, 0
3, 122496, Note_on_c, 1, 62, 70
3, 122684, Note_off_c, 1, 62, 0
3, 122688, Note_on_c, 1, 64, 70
3, 122876, Note_off_c, 1, 64, 0
3, 122880, Note_on_c, 1, 61, 80
3, 122880, Note_on_c, 1, 57, 80
3, 123260, Note_off_c, 1, 61, 0
3, 123260, Note_off_c, 1, 57, 0
3, 123456, Note_on_c, 1, 71, 80
3, 123456, Note_on_c, 1, 68, 80
3, 123456, Note_on_c, 1, 64, 80
3, 123456, Note_on_c, 1, 62, 80
3, 124028, Note_off_c, 1, 71, 0
3, 124028, Note_off_c, 1, 68, 0
3, 124028, Note_off_c, 1, 64, 0
3, 124028, Note_off_c, 1, 62, 0
3, 124032, Note_on_c, 1, 73, 80
3, 124032, Note_on_c, 1, 69, 80
3, 124032, Note_on_c, 1, 64, 80
3, 124032, Note_on_c, 1, 61, 80
3, 124604, Note_off_c, 1, 73, 0
3, 124604, Note_off_c, 1, 69, 0
3, 124604, Note_off_c, 1, 64, 0
3, 124604, Note_off_c, 1, 61, 0
3, 124608, Note_on_c, 1, 74, 80
3, 124608, Note_on_c, 1, 71, 80
3, 124608, Note_on_c, 1, 64, 80
3, 125180, Note_off_c, 1, 74, 0
3, 125180, Note_off_c, 1, 71, 0
3, 125180, Note_off_c, 1, 64, 0
3, 125184, Note_on_c, 1, 73, 80
3, 125184, Note_on_c, 1, 69, 80
3, 125184, Note_on_c, 1, 64, 80
3, 125564, Note_off_c, 1, 73, 0
3, 125564, Note_off_c, 1, 69, 0
3, 125564, Note_off_c, 1, 64, 0
3, 125568, Note_on_c, 1, 74, 70
3, 125756, Note_off_c, 1, 74, 0
3, 125760, Note_on_c, 1, 71, 70
3, 125948, Note_off_c, 1, 71, 0
3, 125952, Note_on_c, 1, 73, 70
3, 126140, Note_off_c, 1, 73, 0
3, 126144, Note_on_c, 1, 75, 70
3, 126332, Note_off_c, 1, 75, 0
3, 126336, Note_on_c, 1, 76, 70
3, 126524, Note_off_c, 1, 76, 0
3, 126528, Note_on_c, 1, 73, 70
3, 126716, Note_off_c, 1, 73, 0
3, 126720, Note_on_c, 1, 74, 70
3, 126908, Note_off_c, 1, 74, 0
3, 126912, Note_on_c, 1, 66, 70
3, 127100, Note_off_c, 1, 66, 0
3, 127104, Note_on_c, 1, 67, 70
3, 127292, Note_off_c, 1, 67, 0
3, 127296, Note_on_c, 1, 69, 70
3, 127484, Note_off_c, 1, 69, 0
3, 127680, Note_on_c, 1, 69, 60
3, 127680, Note_on_c, 1, 66, 60
3, 127868, Note_off_c, 1, 69, 0
3, 127868, Note_off_c, 1, 66, 0
3, 127872, Note_on_c, 1, 69, 60
3, 127872, Note_on_c, 1, 66, 60
3, 128060, Note_off_c, 1, 69, 0
3, 128060, Note_off_c, 1, 66, 0
3, 128256, Note_on_c, 1, 69, 60
3, 128256, Note_on_c, 1, 66, 60
3, 128444, Note_off_c, 1, 69, 0
3, 128444, Note_off_c, 1, 66, 0
3, 128448, Note_on_c, 1, 69, 60
3, 128448, Note_on_c, 1, 66, 60
3, 128636, Note_off_c, 1, 69, 0
3, 128636, Note_off_c, 1, 66, 0
3, 128832, Note_on_c, 1, 71, 60
3, 128832, Note_on_c, 1, 67, 60
3, 129020, Note_off_c, 1, 71, 0
3, 129020, Note_off_c, 1, 67, 0
3, 129024, Note_on_c, 1, 71, 60
3, 129024, Note_on_c, 1, 67, 60
3, 129212, Note_off_c, 1, 71, 0
3, 129212, Note_off_c, 1, 67, 0
3, 129408, Note_on_c, 1, 71, 60
3, 129408, Note_on_c, 1, 67, 60
3, 129596, Note_off_c, 1, 71, 0
3, 129596, Note_off_c, 1, 67, 0
3, 129600, Note_on_c, 1, 71, 60
3, 129600, Note_on_c, 1, 67, 60
3, 129788, Note_off_c, 1, 71, 0
3, 129788, Note_off_c, 1, 67, 0
3, 129984, Note_on_c, 1, 66, 70
3, 129984, Note_on_c, 1, 57, 70
3, 130172, Note_off_c, 1, 66, 0
3, 130172, Note_off_c, 1, 57, 0
3, 130176, Note_on_c, 1, 66, 70
3, 130176, Note_on_c, 1, 57, 70
3, 130364, Note_off_c, 1, 66, 0
3, 130364, Note_off_c, 1, 57, 0
3, 130560, Note_on_c, 1, 66, 70
3, 130560, Note_on_c, 1, 57, 70
3, 130748, Note_off_c, 1, 66, 0
3, 130748, Note_off_c, 1, 57, 0
3, 130752, Note_on_c, 1, 66, 70
3, 130752, Note_on_c, 1, 57, 70
3, 130940, Note_off_c, 1, 66, 0
3, 130940, Note_off_c, 1, 57, 0
3, 131136, Note_on_c, 1, 67, 65
3, 131136, Note_on_c, 1, 59, 65
3, 131324, Note_off_c, 1, 67, 0
3, 131324, Note_off_c, 1, 59, 0
3, 131328, Note_on_c, 1, 67, 67
3, 131328, Note_on_c, 1, 59, 67
3, 131516, Note_off_c, 1, 67, 0
3, 131516, Note_off_c, 1, 59, 0
3, 131712, Note_on_c, 1, 67, 68
3, 131712, Note_on_c, 1, 59, 68
3, 131900, Note_off_c, 1, 67, 0
3, 131900, Note_off_c, 1, 59, 0
3, 131904, Note_on_c, 1, 67, 69
3, 131904, Note_on_c, 1, 59, 69
3, 132092, Note_off_c, 1, 67, 0
3, 132092, Note_off_c, 1, 59, 0
3, 132288, Note_on_c, 1, 67, 70
3, 132288, Note_on_c, 1, 58, 70
3, 132476, Note_off_c, 1, 67, 0
3, 132476, Note_off_c, 1, 58, 0
3, 132480, Note_on_c, 1, 67, 70
3, 132480, Note_on_c, 1, 58, 70
3, 132668, Note_off_c, 1, 67, 0
3, 132668, Note_off_c, 1, 58, 0
3, 132864, Note_on_c, 1, 67, 70
3, 132864, Note_on_c, 1, 58, 70
3, 133052, Note_off_c, 1, 67, 0
3, 133052, Note_off_c, 1, 58, 0
3, 133056, Note_on_c, 1, 67, 70
3, 133056, Note_on_c, 1, 58, 70
3, 133244, Note_off_c, 1, 67, 0
3, 133244, Note_off_c, 1, 58, 0
3, 133248, Note_on_c, 1, 61, 70
3, 133248, Note_on_c, 1, 58, 70
3, 133248, Note_on_c, 1, 55, 70
3, 133820, Note_off_c, 1, 61, 0
3, 133820, Note_off_c, 1, 58, 0
3, 133820, Note_off_c, 1, 55, 0
3, 133824, Note_on_c, 1, 79, 70
3, 133824, Note_on_c, 1, 67, 70
3, 134396, Note_off_c, 1, 79, 0
3, 134396, Note_off_c, 1, 67, 0
3, 134400, Note_on_c, 1, 81, 70
3, 134400, Note_on_c, 1, 73, 70
3, 134972, Note_off_c, 1, 81, 0
3, 134976, Note_on_c, 1, 82, 70
3, 135548, Note_off_c, 1, 73, 0
3, 135548, Note_off_c, 1, 82, 0
3, 135552, Note_on_c, 1, 81, 75
3, 135552, Note_on_c, 1, 74, 75
3, 135740, Note_off_c, 1, 81, 0
3, 135744, Note_on_c, 1, 79, 75
3, 135932, Note_off_c, 1, 79, 0
3, 135936, Note_on_c, 1, 78, 74
3, 136124, Note_off_c, 1, 74, 0
3, 136124, Note_off_c, 1, 78, 0
3, 136128, Note_on_c, 1, 79, 73
3, 136128, Note_on_c, 1, 73, 73
3, 136316, Note_off_c, 1, 79, 0
3, 136320, Note_on_c, 1, 81, 72
3, 136508, Note_off_c, 1, 81, 0
3, 136512, Note_on_c, 1, 82, 72
3, 136700, Note_off_c, 1, 73, 0
3, 136700, Note_off_c, 1, 82, 0
3, 136704, Note_on_c, 1, 81, 71
3, 136704, Note_on_c, 1, 74, 71
3, 136892, Note_off_c, 1, 81, 0
3, 136896, Note_on_c, 1, 79, 70
3, 137084, Note_off_c, 1, 79, 0
3, 137088, Note_on_c, 1, 78, 69
3, 137276, Note_off_c, 1, 74, 0
3, 137276, Note_off_c, 1, 78, 0
3, 137280, Note_on_c, 1, 79, 69
3, 137280, Note_on_c, 1, 73, 69
3, 137468, Note_off_c, 1, 79, 0
3, 137472, Note_on_c, 1, 81, 68
3, 137660, Note_off_c, 1, 81, 0
3, 137664, Note_on_c, 1, 82, 67
3, 137852, Note_off_c, 1, 73, 0
3, 137852, Note_off_c, 1, 82, 0
3, 137856, Note_on_c, 1, 81, 66
3, 137856, Note_on_c, 1, 74, 66
3, 138044, Note_off_c, 1, 81, 0
3, 138044, Note_off_c, 1, 74, 0
3, 138432, Note_on_c, 1, 81, 64
3, 138432, Note_on_c, 1, 78, 64
3, 138620, Note_off_c, 1, 81, 0
3, 138620, Note_off_c, 1, 78, 0
3, 138816, Note_on_c, 1, 78, 63
3, 138816, Note_on_c, 1, 81, 63
3, 138944, Note_off_c, 1, 78, 0
3, 138944, Note_off_c, 1, 81, 0
3, 139008, Note_on_c, 1, 81, 62
3, 139008, Note_on_c, 1, 78, 62
3, 139392, Note_off_c, 1, 81, 0
3, 139392, Note_off_c, 1, 78, 0
3, 139776, Note_on_c, 1, 67, 70
3, 139964, Note_off_c, 1, 67, 0
3, 140160, Note_on_c, 1, 69, 70
3, 140348, Note_off_c, 1, 69, 0
3, 140544, Note_on_c, 1, 71, 70
3, 140924, Note_off_c, 1, 71, 0
3, 140928, Note_on_c, 1, 72, 70
3, 141308, Note_off_c, 1, 72, 0
3, 141312, Note_on_c, 1, 66, 70
3, 141500, Note_off_c, 1, 66, 0
3, 141696, Note_on_c, 1, 67, 70
3, 141884, Note_off_c, 1, 67, 0
3, 142080, Note_on_c, 1, 69, 70
3, 142460, Note_off_c, 1, 69, 0
3, 142464, Note_on_c, 1, 71, 70
3, 142844, Note_off_c, 1, 71, 0
3, 142848, Note_on_c, 1, 62, 70
3, 143036, Note_off_c, 1, 62, 0
3, 143232, Note_on_c, 1, 66, 70
3, 143420, Note_off_c, 1, 66, 0
3, 143616, Note_on_c, 1, 67, 70
3, 144000, Note_off_c, 1, 67, 0
3, 144000, Note_on_c, 1, 69, 70
3, 144384, Note_off_c, 1, 69, 0
3, 144384, Note_on_c, 1, 72, 70
3, 144576, Note_off_c, 1, 72, 0
3, 144576, Note_on_c, 1, 71, 70
3, 144756, Note_off_c, 1, 71, 0
3, 144768, Note_on_c, 1, 69, 70
3, 144960, Note_off_c, 1, 69, 0
3, 144960, Note_on_c, 1, 67, 70
3, 145152, Note_off_c, 1, 67, 0
3, 145152, Note_on_c, 1, 67, 70
3, 145536, Note_off_c, 1, 67, 0
3, 145536, Note_on_c, 1, 66, 70
3, 145908, Note_off_c, 1, 66, 0
3, 145920, Note_on_c, 1, 67, 70
3, 146012, Note_off_c, 1, 67, 0
3, 146112, Note_on_c, 1, 62, 70
3, 146204, Note_off_c, 1, 62, 0
3, 146304, Note_on_c, 1, 69, 70
3, 146396, Note_off_c, 1, 69, 0
3, 146496, Note_on_c, 1, 62, 70
3, 146588, Note_off_c, 1, 62, 0
3, 146688, Note_on_c, 1, 71, 70
3, 146780, Note_off_c, 1, 71, 0
3, 146880, Note_on_c, 1, 67, 70
3, 146972, Note_off_c, 1, 67, 0
3, 147072, Note_on_c, 1, 72, 70
3, 147164, Note_off_c, 1, 72, 0
3, 147264, Note_on_c, 1, 69, 70
3, 147356, Note_off_c, 1, 69, 0
3, 147456, Note_on_c, 1, 66, 70
3, 147548, Note_off_c, 1, 66, 0
3, 147648, Note_on_c, 1, 62, 70
3, 147740, Note_off_c, 1, 62, 0
3, 147840, Note_on_c, 1, 67, 70
3, 147932, Note_off_c, 1, 67, 0
3, 148032, Note_on_c, 1, 62, 70
3, 148124, Note_off_c, 1, 62, 0
3, 148224, Note_on_c, 1, 69, 70
3, 148316, Note_off_c, 1, 69, 0
3, 148416, Note_on_c, 1, 66, 70
3, 148508, Note_off_c, 1, 66, 0
3, 148608, Note_on_c, 1, 71, 70
3, 148700, Note_off_c, 1, 71, 0
3, 148800, Note_on_c, 1, 67, 70
3, 148892, Note_off_c, 1, 67, 0
3, 148992, Note_on_c, 1, 62, 70
3, 149084, Note_off_c, 1, 62, 0
3, 149184, Note_on_c, 1, 67, 70
3, 149276, Note_off_c, 1, 67, 0
3, 149376, Note_on_c, 1, 66, 70
3, 149468, Note_off_c, 1, 66, 0
3, 149568, Note_on_c, 1, 62, 70
3, 149660, Note_off_c, 1, 62, 0
3, 149760, Note_on_c, 1, 67, 70
3, 149952, Note_on_c, 1, 62, 70
3, 150044, Note_off_c, 1, 62, 0
3, 150140, Note_off_c, 1, 67, 0
3, 150144, Note_on_c, 1, 67, 70
3, 150144, Note_on_c, 1, 55, 70
3, 150236, Note_off_c, 1, 55, 0
3, 150336, Note_on_c, 1, 60, 70
3, 150428, Note_off_c, 1, 60, 0
3, 150528, Note_on_c, 1, 64, 70
3, 150620, Note_off_c, 1, 64, 0
3, 150720, Note_on_c, 1, 57, 70
3, 150812, Note_off_c, 1, 57, 0
3, 150908, Note_off_c, 1, 67, 0
3, 150912, Note_on_c, 1, 66, 70
3, 150912, Note_on_c, 1, 62, 70
3, 151004, Note_off_c, 1, 62, 0
3, 151104, Note_on_c, 1, 60, 70
3, 151196, Note_off_c, 1, 60, 0
3, 151292, Note_off_c, 1, 66, 0
3, 151296, Note_on_c, 1, 67, 70
3, 151296, Note_on_c, 1, 59, 70
3, 151388, Note_off_c, 1, 59, 0
3, 151488, Note_on_c, 1, 62, 70
3, 151580, Note_off_c, 1, 62, 0
3, 151676, Note_off_c, 1, 67, 0
3, 151680, Note_on_c, 1, 59, 70
3, 151772, Note_off_c, 1, 59, 0
3, 151872, Note_on_c, 1, 62, 90
3, 151964, Note_off_c, 1, 62, 0
3, 152064, Note_on_c, 1, 67, 90
3, 152064, Note_on_c, 1, 67, 90
3, 152252, Note_off_c, 1, 67, 0
3, 152256, Note_on_c, 1, 62, 90
3, 152444, Note_off_c, 1, 67, 0
3, 152444, Note_off_c, 1, 62, 0
3, 152448, Note_on_c, 1, 66, 90
3, 152448, Note_on_c, 1, 69, 90
3, 152636, Note_off_c, 1, 69, 0
3, 152640, Note_on_c, 1, 62, 90
3, 152828, Note_off_c, 1, 66, 0
3, 152828, Note_off_c, 1, 62, 0
3, 152832, Note_on_c, 1, 70, 90
3, 152832, Note_on_c, 1, 67, 90
3, 153020, Note_off_c, 1, 70, 0
3, 153020, Note_off_c, 1, 67, 0
3, 153024, Note_on_c, 1, 71, 90
3, 153024, Note_on_c, 1, 62, 90
3, 153212, Note_off_c, 1, 71, 0
3, 153212, Note_off_c, 1, 62, 0
3, 153216, Note_on_c, 1, 72, 90
3, 153216, Note_on_c, 1, 67, 90
3, 153404, Note_off_c, 1, 72, 0
3, 153404, Note_off_c, 1, 67, 0
3, 153408, Note_on_c, 1, 69, 90
3, 153408, Note_on_c, 1, 60, 90
3, 153596, Note_off_c, 1, 69, 0
3, 153596, Note_off_c, 1, 60, 0
3, 153600, Note_on_c, 1, 64, 90
3, 153600, Note_on_c, 1, 69, 90
3, 153644, Note_off_c, 1, 69, 0
3, 153648, Note_on_c, 1, 71, 90
3, 153692, Note_off_c, 1, 71, 0
3, 153696, Note_on_c, 1, 69, 90
3, 153740, Note_off_c, 1, 69, 0
3, 153744, Note_on_c, 1, 71, 90
3, 153788, Note_off_c, 1, 64, 0
3, 153788, Note_off_c, 1, 71, 0
3, 153792, Note_on_c, 1, 69, 90
3, 153792, Note_on_c, 1, 67, 90
3, 153836, Note_off_c, 1, 69, 0
3, 153840, Note_on_c, 1, 71, 90
3, 153884, Note_off_c, 1, 71, 0
3, 153888, Note_on_c, 1, 69, 90
3, 153932, Note_off_c, 1, 69, 0
3, 153936, Note_on_c, 1, 71, 90
3, 153980, Note_off_c, 1, 67, 64
3, 153980, Note_off_c, 1, 71, 0
3, 153984, Note_on_c, 1, 69, 90
3, 153984, Note_on_c, 1, 66, 90
3, 154028, Note_off_c, 1, 69, 0
3, 154032, Note_on_c, 1, 71, 90
3, 154076, Note_off_c, 1, 71, 0
3, 154080, Note_on_c, 1, 69, 90
3, 154124, Note_off_c, 1, 69, 0
3, 154128, Note_on_c, 1, 71, 90
3, 154172, Note_off_c, 1, 66, 64
3, 154172, Note_off_c, 1, 71, 0
3, 154176, Note_on_c, 1, 67, 90
3, 154176, Note_on_c, 1, 61, 90
3, 154268, Note_off_c, 1, 67, 0
3, 154272, Note_on_c, 1, 69, 90
3, 154364, Note_off_c, 1, 61, 64
3, 154364, Note_off_c, 1, 69, 0
3, 154368, Note_on_c, 1, 67, 90
3, 154368, Note_on_c, 1, 59, 90
3, 154748, Note_off_c, 1, 67, 0
3, 154748, Note_off_c, 1, 59, 0
3, 155904, Note_on_c, 1, 67, 70
3, 157436, Note_off_c, 1, 67, 0
3, 157440, Note_on_c, 1, 67, 70
3, 158972, Note_off_c, 1, 67, 0
3, 158976, Note_on_c, 1, 67, 70
3, 160508, Note_off_c, 1, 67, 0
3, 160512, Note_on_c, 1, 67, 75
3, 162044, Note_off_c, 1, 67, 0
3, 162048, Note_on_c, 1, 67, 80
3, 163580, Note_off_c, 1, 67, 0
3, 163584, Note_on_c, 1, 67, 86
3, 165116, Note_off_c, 1, 67, 0
3, 165120, Note_on_c, 1, 67, 90
3, 165500, Note_off_c, 1, 67, 0
3, 166656, Note_on_c, 1, 79, 90
3, 167424, Note_on_c, 1, 71, 90
3, 167804, Note_off_c, 1, 71, 0
3, 167808, Note_on_c, 1, 71, 90
3, 168188, Note_off_c, 1, 79, 0
3, 168188, Note_off_c, 1, 71, 0
3, 168192, Note_on_c, 1, 79, 90
3, 168192, Note_on_c, 1, 72, 90
3, 168380, Note_off_c, 1, 72, 0
3, 168384, Note_on_c, 1, 71, 90
3, 168572, Note_off_c, 1, 71, 0
3, 168576, Note_on_c, 1, 69, 90
3, 168764, Note_off_c, 1, 69, 0
3, 168768, Note_on_c, 1, 71, 90
3, 168956, Note_off_c, 1, 71, 0
3, 168960, Note_on_c, 1, 72, 90
3, 169340, Note_off_c, 1, 72, 0
3, 169344, Note_on_c, 1, 72, 90
3, 169724, Note_off_c, 1, 79, 0
3, 169724, Note_off_c, 1, 72, 0
3, 169728, Note_on_c, 1, 72, 90
3, 169728, Note_on_c, 1, 79, 90
3, 170108, Note_off_c, 1, 72, 0
3, 170112, Note_on_c, 1, 71, 90
3, 170492, Note_off_c, 1, 71, 0
3, 170496, Note_on_c, 1, 74, 90
3, 170876, Note_off_c, 1, 74, 0
3, 170880, Note_on_c, 1, 74, 90
3, 171260, Note_off_c, 1, 79, 0
3, 171260, Note_off_c, 1, 74, 0
3, 171264, Note_on_c, 1, 79, 90
3, 171264, Note_on_c, 1, 76, 90
3, 171452, Note_off_c, 1, 76, 0
3, 171456, Note_on_c, 1, 74, 90
3, 171644, Note_off_c, 1, 74, 0
3, 171648, Note_on_c, 1, 72, 90
3, 171836, Note_off_c, 1, 72, 0
3, 171840, Note_on_c, 1, 71, 90
3, 172028, Note_off_c, 1, 71, 0
3, 172032, Note_on_c, 1, 69, 90
3, 172412, Note_off_c, 1, 69, 0
3, 172416, Note_on_c, 1, 71, 90
3, 172796, Note_off_c, 1, 79, 0
3, 172796, Note_off_c, 1, 71, 0
3, 172800, Note_on_c, 1, 79, 90
3, 172800, Note_on_c, 1, 71, 90
3, 173180, Note_off_c, 1, 71, 0
3, 173184, Note_on_c, 1, 72, 90
3, 173564, Note_off_c, 1, 79, 0
3, 173564, Note_off_c, 1, 72, 0
3, 174336, Note_on_c, 1, 67, 70
3, 175868, Note_off_c, 1, 67, 0
3, 175872, Note_on_c, 1, 67, 78
3, 177404, Note_off_c, 1, 67, 0
3, 177408, Note_on_c, 1, 67, 86
3, 178172, Note_off_c, 1, 67, 0
3, 178176, Note_on_c, 1, 74, 90
3, 178176, Note_on_c, 1, 71, 90
3, 178556, Note_off_c, 1, 74, 0
3, 178556, Note_off_c, 1, 71, 0
3, 178560, Note_on_c, 1, 74, 90
3, 178560, Note_on_c, 1, 71, 90
3, 178940, Note_off_c, 1, 74, 0
3, 178940, Note_off_c, 1, 71, 0
3, 178944, Note_on_c, 1, 76, 90
3, 178944, Note_on_c, 1, 72, 90
3, 179132, Note_off_c, 1, 76, 0
3, 179132, Note_off_c, 1, 72, 0
3, 179136, Note_on_c, 1, 78, 90
3, 179136, Note_on_c, 1, 74, 90
3, 179324, Note_off_c, 1, 78, 0
3, 179324, Note_off_c, 1, 74, 0
3, 179328, Note_on_c, 1, 79, 90
3, 179328, Note_on_c, 1, 76, 90
3, 179516, Note_off_c, 1, 79, 0
3, 179516, Note_off_c, 1, 76, 0
3, 179712, Note_on_c, 1, 59, 70
3, 180092, Note_off_c, 1, 59, 0
3, 180096, Note_on_c, 1, 59, 70
3, 180476, Note_off_c, 1, 59, 0
3, 180480, Note_on_c, 1, 60, 70
3, 180668, Note_off_c, 1, 60, 0
3, 180672, Note_on_c, 1, 62, 70
3, 180860, Note_off_c, 1, 62, 0
3, 180864, Note_on_c, 1, 64, 70
3, 181052, Note_off_c, 1, 64, 0
3, 181056, Note_on_c, 1, 69, 70
3, 181056, Note_on_c, 1, 64, 70
3, 181244, Note_off_c, 1, 69, 0
3, 181244, Note_off_c, 1, 64, 0
3, 181248, Note_on_c, 1, 67, 70
3, 181248, Note_on_c, 1, 62, 70
3, 181628, Note_off_c, 1, 67, 0
3, 181628, Note_off_c, 1, 62, 0
3, 181632, Note_on_c, 1, 66, 70
3, 181632, Note_on_c, 1, 62, 70
3, 182012, Note_off_c, 1, 66, 0
3, 182012, Note_off_c, 1, 62, 0
3, 182016, Note_on_c, 1, 66, 70
3, 182016, Note_on_c, 1, 62, 70
3, 182396, Note_off_c, 1, 66, 0
3, 182400, Note_on_c, 1, 67, 70
3, 182780, Note_off_c, 1, 62, 0
3, 182780, Note_off_c, 1, 67, 0
3, 182784, Note_on_c, 1, 74, 90
3, 182784, Note_on_c, 1, 71, 90
3, 183164, Note_off_c, 1, 74, 0
3, 183164, Note_off_c, 1, 71, 0
3, 183168, Note_on_c, 1, 74, 90
3, 183168, Note_on_c, 1, 71, 90
3, 183548, Note_off_c, 1, 74, 0
3, 183548, Note_off_c, 1, 71, 0
3, 183552, Note_on_c, 1, 76, 90
3, 183552, Note_on_c, 1, 72, 90
3, 183740, Note_off_c, 1, 76, 0
3, 183740, Note_off_c, 1, 72, 0
3, 183744, Note_on_c, 1, 78, 90
3, 183744, Note_on_c, 1, 74, 90
3, 183932, Note_off_c, 1, 78, 0
3, 183932, Note_off_c, 1, 74, 0
3, 183936, Note_on_c, 1, 79, 90
3, 183936, Note_on_c, 1, 76, 90
3, 184124, Note_off_c, 1, 79, 0
3, 184124, Note_off_c, 1, 76, 0
3, 184128, Note_on_c, 1, 72, 90
3, 184128, Note_on_c, 1, 69, 90
3, 184128, Note_on_c, 1, 64, 90
3, 184316, Note_off_c, 1, 72, 0
3, 184316, Note_off_c, 1, 69, 0
3, 184316, Note_off_c, 1, 64, 0
3, 184320, Note_on_c, 1, 71, 90
3, 184320, Note_on_c, 1, 67, 90
3, 184320, Note_on_c, 1, 62, 90
3, 184700, Note_off_c, 1, 71, 0
3, 184700, Note_off_c, 1, 67, 0
3, 184700, Note_off_c, 1, 62, 0
3, 184704, Note_on_c, 1, 69, 90
3, 184704, Note_on_c, 1, 66, 90
3, 184704, Note_on_c, 1, 62, 90
3, 185084, Note_off_c, 1, 69, 0
3, 185084, Note_off_c, 1, 66, 0
3, 185084, Note_off_c, 1, 62, 0
3, 185088, Note_on_c, 1, 67, 90
3, 185088, Note_on_c, 1, 62, 90
3, 185088, Note_on_c, 1, 59, 90
3, 185852, Note_off_c, 1, 67, 0
3, 185852, Note_off_c, 1, 62, 0
3, 185852, Note_off_c, 1, 59, 0
3, 185856, Note_on_c, 1, 64, 70
3, 185856, Note_on_c, 1, 59, 70
3, 186236, Note_off_c, 1, 64, 0
3, 186236, Note_off_c, 1, 59, 0
3, 186240, Note_on_c, 1, 71, 70
3, 186240, Note_on_c, 1, 64, 70
3, 186240, Note_on_c, 1, 59, 70
3, 186620, Note_off_c, 1, 71, 0
3, 186620, Note_off_c, 1, 64, 0
3, 186620, Note_off_c, 1, 59, 0
3, 186624, Note_on_c, 1, 71, 70
3, 186624, Note_on_c, 1, 69, 70
3, 186624, Note_on_c, 1, 63, 70
3, 187004, Note_off_c, 1, 71, 0
3, 187004, Note_off_c, 1, 69, 0
3, 187004, Note_off_c, 1, 63, 0
3, 187008, Note_on_c, 1, 71, 70
3, 187008, Note_on_c, 1, 66, 70
3, 187008, Note_on_c, 1, 63, 70
3, 187388, Note_off_c, 1, 71, 0
3, 187388, Note_off_c, 1, 66, 0
3, 187388, Note_off_c, 1, 63, 0
3, 187392, Note_on_c, 1, 71, 70
3, 187392, Note_on_c, 1, 66, 70
3, 187392, Note_on_c, 1, 63, 70
3, 187772, Note_off_c, 1, 71, 0
3, 187772, Note_off_c, 1, 66, 0
3, 187772, Note_off_c, 1, 63, 0
3, 187776, Note_on_c, 1, 71, 70
3, 187776, Note_on_c, 1, 66, 70
3, 187776, Note_on_c, 1, 59, 70
3, 188156, Note_off_c, 1, 71, 0
3, 188156, Note_off_c, 1, 66, 0
3, 188156, Note_off_c, 1, 59, 0
3, 188160, Note_on_c, 1, 71, 70
3, 188160, Note_on_c, 1, 67, 70
3, 188160, Note_on_c, 1, 64, 70
3, 188540, Note_off_c, 1, 71, 0
3, 188540, Note_off_c, 1, 67, 0
3, 188540, Note_off_c, 1, 64, 0
3, 188544, Note_on_c, 1, 67, 70
3, 188544, Note_on_c, 1, 64, 70
3, 188924, Note_off_c, 1, 67, 0
3, 188924, Note_off_c, 1, 64, 0
3, 188928, Note_on_c, 1, 64, 70
3, 188928, Note_on_c, 1, 59, 70
3, 189308, Note_off_c, 1, 64, 0
3, 189308, Note_off_c, 1, 59, 0
3, 189312, Note_on_c, 1, 59, 70
3, 189692, Note_off_c, 1, 59, 0
3, 189696, Note_on_c, 1, 69, 70
3, 189696, Note_on_c, 1, 67, 70
3, 189696, Note_on_c, 1, 61, 70
3, 190076, Note_off_c, 1, 69, 0
3, 190076, Note_off_c, 1, 67, 0
3, 190076, Note_off_c, 1, 61, 0
3, 190080, Note_on_c, 1, 69, 70
3, 190080, Note_on_c, 1, 64, 70
3, 190080, Note_on_c, 1, 61, 70
3, 190460, Note_off_c, 1, 69, 0
3, 190460, Note_off_c, 1, 64, 0
3, 190460, Note_off_c, 1, 61, 0
3, 190464, Note_on_c, 1, 69, 70
3, 190464, Note_on_c, 1, 64, 70
3, 190464, Note_on_c, 1, 61, 70
3, 190844, Note_off_c, 1, 69, 0
3, 190844, Note_off_c, 1, 64, 0
3, 190844, Note_off_c, 1, 61, 0
3, 190848, Note_on_c, 1, 69, 70
3, 190848, Note_on_c, 1, 67, 70
3, 190848, Note_on_c, 1, 64, 70
3, 191228, Note_off_c, 1, 69, 0
3, 191228, Note_off_c, 1, 67, 0
3, 191228, Note_off_c, 1, 64, 0
3, 191232, Note_on_c, 1, 69, 70
3, 191232, Note_on_c, 1, 66, 70
3, 191232, Note_on_c, 1, 57, 70
3, 191612, Note_off_c, 1, 69, 0
3, 191612, Note_off_c, 1, 66, 0
3, 191612, Note_off_c, 1, 57, 0
3, 191616, Note_on_c, 1, 67, 72
3, 191616, Note_on_c, 1, 64, 72
3, 191616, Note_on_c, 1, 61, 72
3, 191996, Note_off_c, 1, 67, 0
3, 191996, Note_off_c, 1, 64, 0
3, 191996, Note_off_c, 1, 61, 0
3, 192000, Note_on_c, 1, 66, 75
3, 192000, Note_on_c, 1, 62, 75
3, 192380, Note_off_c, 1, 66, 0
3, 192380, Note_off_c, 1, 62, 0
3, 192384, Note_on_c, 1, 69, 77
3, 192384, Note_on_c, 1, 66, 77
3, 192764, Note_off_c, 1, 69, 0
3, 192764, Note_off_c, 1, 66, 0
3, 192960, Note_on_c, 1, 67, 80
3, 192960, Note_on_c, 1, 62, 80
3, 193148, Note_off_c, 1, 67, 0
3, 193148, Note_off_c, 1, 62, 0
3, 193152, Note_on_c, 1, 71, 80
3, 193152, Note_on_c, 1, 67, 80
3, 193152, Note_on_c, 1, 62, 80
3, 193340, Note_off_c, 1, 71, 0
3, 193340, Note_off_c, 1, 67, 0
3, 193340, Note_off_c, 1, 62, 0
3, 193344, Note_on_c, 1, 71, 80
3, 193344, Note_on_c, 1, 67, 80
3, 193344, Note_on_c, 1, 62, 80
3, 193532, Note_off_c, 1, 71, 0
3, 193532, Note_off_c, 1, 67, 0
3, 193532, Note_off_c, 1, 62, 0
3, 193536, Note_on_c, 1, 71, 80
3, 193536, Note_on_c, 1, 67, 80
3, 193536, Note_on_c, 1, 62, 80
3, 193916, Note_off_c, 1, 71, 0
3, 193916, Note_off_c, 1, 67, 0
3, 193916, Note_off_c, 1, 62, 0
3, 194496, Note_on_c, 1, 62, 80
3, 194684, Note_off_c, 1, 62, 0
3, 194688, Note_on_c, 1, 69, 80
3, 194688, Note_on_c, 1, 62, 80
3, 194876, Note_off_c, 1, 69, 0
3, 194876, Note_off_c, 1, 62, 0
3, 194880, Note_on_c, 1, 69, 80
3, 194880, Note_on_c, 1, 62, 80
3, 195068, Note_off_c, 1, 69, 0
3, 195068, Note_off_c, 1, 62, 0
3, 195072, Note_on_c, 1, 69, 80
3, 195072, Note_on_c, 1, 62, 80
3, 195452, Note_off_c, 1, 69, 0
3, 195452, Note_off_c, 1, 62, 0
3, 196032, Note_on_c, 1, 69, 80
3, 196032, Note_on_c, 1, 64, 80
3, 196220, Note_off_c, 1, 69, 0
3, 196220, Note_off_c, 1, 64, 0
3, 196224, Note_on_c, 1, 69, 80
3, 196224, Note_on_c, 1, 67, 80
3, 196224, Note_on_c, 1, 64, 80
3, 196412, Note_off_c, 1, 69, 0
3, 196412, Note_off_c, 1, 67, 0
3, 196412, Note_off_c, 1, 64, 0
3, 196416, Note_on_c, 1, 69, 80
3, 196416, Note_on_c, 1, 67, 80
3, 196416, Note_on_c, 1, 64, 80
3, 196604, Note_off_c, 1, 69, 0
3, 196604, Note_off_c, 1, 67, 0
3, 196604, Note_off_c, 1, 64, 0
3, 196608, Note_on_c, 1, 69, 80
3, 196608, Note_on_c, 1, 67, 80
3, 196608, Note_on_c, 1, 64, 80
3, 196988, Note_off_c, 1, 69, 0
3, 196988, Note_off_c, 1, 67, 0
3, 196988, Note_off_c, 1, 64, 0
3, 197568, Note_on_c, 1, 69, 80
3, 197568, Note_on_c, 1, 62, 80
3, 197756, Note_off_c, 1, 69, 0
3, 197756, Note_off_c, 1, 62, 0
3, 197760, Note_on_c, 1, 69, 80
3, 197760, Note_on_c, 1, 66, 80
3, 197760, Note_on_c, 1, 62, 80
3, 197948, Note_off_c, 1, 69, 0
3, 197948, Note_off_c, 1, 66, 0
3, 197948, Note_off_c, 1, 62, 0
3, 197952, Note_on_c, 1, 69, 80
3, 197952, Note_on_c, 1, 66, 80
3, 197952, Note_on_c, 1, 62, 80
3, 198140, Note_off_c, 1, 69, 0
3, 198140, Note_off_c, 1, 66, 0
3, 198140, Note_off_c, 1, 62, 0
3, 198144, Note_on_c, 1, 69, 80
3, 198144, Note_on_c, 1, 66, 80
3, 198144, Note_on_c, 1, 62, 80
3, 198524, Note_off_c, 1, 69, 0
3, 198524, Note_off_c, 1, 66, 0
3, 198524, Note_off_c, 1, 62, 0
3, 198720, Note_on_c, 1, 76, 80
3, 198720, Note_on_c, 1, 73, 80
3, 198908, Note_off_c, 1, 76, 0
3, 198908, Note_off_c, 1, 73, 0
3, 198912, Note_on_c, 1, 74, 80
3, 198912, Note_on_c, 1, 71, 80
3, 199292, Note_off_c, 1, 74, 0
3, 199292, Note_off_c, 1, 71, 0
3, 199296, Note_on_c, 1, 73, 80
3, 199296, Note_on_c, 1, 69, 80
3, 199676, Note_off_c, 1, 73, 0
3, 199676, Note_off_c, 1, 69, 0
3, 199680, Note_on_c, 1, 71, 80
3, 199680, Note_on_c, 1, 67, 80
3, 200060, Note_off_c, 1, 71, 0
3, 200060, Note_off_c, 1, 67, 0
3, 200064, Note_on_c, 1, 71, 80
3, 200064, Note_on_c, 1, 68, 80
3, 200444, Note_off_c, 1, 71, 0
3, 200444, Note_off_c, 1, 68, 0
3, 200448, Note_on_c, 1, 69, 80
3, 200448, Note_on_c, 1, 64, 80
3, 200828, Note_off_c, 1, 69, 0
3, 200828, Note_off_c, 1, 64, 0
3, 202752, Note_on_c, 1, 78, 70
3, 202752, Note_on_c, 1, 74, 70
3, 202752, Note_on_c, 1, 66, 70
3, 202752, Note_on_c, 1, 62, 70
3, 202940, Note_off_c, 1, 78, 0
3, 202940, Note_off_c, 1, 74, 0
3, 202940, Note_off_c, 1, 66, 0
3, 202940, Note_off_c, 1, 62, 0
3, 203136, Note_on_c, 1, 79, 70
3, 203136, Note_on_c, 1, 76, 70
3, 203136, Note_on_c, 1, 67, 70
3, 203136, Note_on_c, 1, 64, 70
3, 203324, Note_off_c, 1, 79, 0
3, 203324, Note_off_c, 1, 76, 0
3, 203324, Note_off_c, 1, 67, 0
3, 203324, Note_off_c, 1, 64, 0
3, 203520, Note_on_c, 1, 78, 70
3, 203520, Note_on_c, 1, 81, 70
3, 203520, Note_on_c, 1, 69, 70
3, 203520, Note_on_c, 1, 66, 70
3, 203900, Note_off_c, 1, 78, 0
3, 203900, Note_off_c, 1, 81, 0
3, 203900, Note_off_c, 1, 69, 0
3, 203900, Note_off_c, 1, 66, 0
3, 203904, Note_on_c, 1, 79, 70
3, 203904, Note_on_c, 1, 83, 70
3, 203904, Note_on_c, 1, 71, 70
3, 203904, Note_on_c, 1, 67, 70
3, 204284, Note_off_c, 1, 79, 0
3, 204284, Note_off_c, 1, 83, 0
3, 204284, Note_off_c, 1, 71, 0
3, 204284, Note_off_c, 1, 67, 0
3, 204288, Note_on_c, 1, 76, 70
3, 204288, Note_on_c, 1, 73, 70
3, 204288, Note_on_c, 1, 64, 70
3, 204288, Note_on_c, 1, 57, 70
3, 204476, Note_off_c, 1, 76, 0
3, 204476, Note_off_c, 1, 73, 0
3, 204476, Note_off_c, 1, 64, 0
3, 204476, Note_off_c, 1, 57, 0
3, 204672, Note_on_c, 1, 78, 70
3, 204672, Note_on_c, 1, 74, 70
3, 204672, Note_on_c, 1, 66, 70
3, 204672, Note_on_c, 1, 62, 70
3, 204860, Note_off_c, 1, 78, 0
3, 204860, Note_off_c, 1, 74, 0
3, 204860, Note_off_c, 1, 66, 0
3, 204860, Note_off_c, 1, 62, 0
3, 205056, Note_on_c, 1, 79, 70
3, 205056, Note_on_c, 1, 76, 70
3, 205056, Note_on_c, 1, 67, 70
3, 205056, Note_on_c, 1, 64, 70
3, 205436, Note_off_c, 1, 79, 0
3, 205436, Note_off_c, 1, 76, 0
3, 205436, Note_off_c, 1, 67, 0
3, 205436, Note_off_c, 1, 64, 0
3, 205440, Note_on_c, 1, 81, 70
3, 205440, Note_on_c, 1, 78, 70
3, 205440, Note_on_c, 1, 69, 70
3, 205440, Note_on_c, 1, 66, 70
3, 205820, Note_off_c, 1, 81, 0
3, 205820, Note_off_c, 1, 78, 0
3, 205820, Note_off_c, 1, 69, 0
3, 205820, Note_off_c, 1, 66, 0
3, 205824, Note_on_c, 1, 74, 70
3, 205824, Note_on_c, 1, 69, 70
3, 205824, Note_on_c, 1, 62, 70
3, 205824, Note_on_c, 1, 54, 70
3, 206012, Note_off_c, 1, 74, 0
3, 206012, Note_off_c, 1, 69, 0
3, 206012, Note_off_c, 1, 62, 0
3, 206012, Note_off_c, 1, 54, 0
3, 206208, Note_on_c, 1, 76, 75
3, 206208, Note_on_c, 1, 73, 75
3, 206208, Note_on_c, 1, 64, 75
3, 206208, Note_on_c, 1, 57, 75
3, 206396, Note_off_c, 1, 76, 0
3, 206396, Note_off_c, 1, 73, 0
3, 206396, Note_off_c, 1, 64, 0
3, 206396, Note_off_c, 1, 57, 0
3, 206592, Note_on_c, 1, 78, 80
3, 206592, Note_on_c, 1, 74, 80
3, 206592, Note_on_c, 1, 66, 80
3, 206592, Note_on_c, 1, 62, 80
3, 206780, Note_off_c, 1, 78, 0
3, 206780, Note_off_c, 1, 74, 0
3, 206780, Note_off_c, 1, 66, 0
3, 206780, Note_off_c, 1, 62, 0
3, 206976, Note_on_c, 1, 79, 85
3, 206976, Note_on_c, 1, 76, 85
3, 206976, Note_on_c, 1, 67, 85
3, 206976, Note_on_c, 1, 64, 85
3, 207164, Note_off_c, 1, 79, 0
3, 207164, Note_off_c, 1, 76, 0
3, 207164, Note_off_c, 1, 67, 0
3, 207164, Note_off_c, 1, 64, 0
3, 207360, Note_on_c, 1, 83, 89
3, 207360, Note_on_c, 1, 79, 89
3, 207360, Note_on_c, 1, 71, 89
3, 207360, Note_on_c, 1, 67, 89
3, 207548, Note_off_c, 1, 83, 0
3, 207548, Note_off_c, 1, 79, 0
3, 207548, Note_off_c, 1, 71, 0
3, 207548, Note_off_c, 1, 67, 0
3, 207552, Note_on_c, 1, 81, 87
3, 207552, Note_on_c, 1, 78, 87
3, 207552, Note_on_c, 1, 69, 87
3, 207552, Note_on_c, 1, 66, 87
3, 207740, Note_off_c, 1, 81, 0
3, 207740, Note_off_c, 1, 78, 0
3, 207740, Note_off_c, 1, 69, 0
3, 207740, Note_off_c, 1, 66, 0
3, 207744, Note_on_c, 1, 79, 84
3, 207744, Note_on_c, 1, 76, 84
3, 207744, Note_on_c, 1, 67, 84
3, 207744, Note_on_c, 1, 64, 84
3, 207932, Note_off_c, 1, 79, 0
3, 207932, Note_off_c, 1, 76, 0
3, 207932, Note_off_c, 1, 67, 0
3, 207932, Note_off_c, 1, 64, 0
3, 207936, Note_on_c, 1, 78, 82
3, 207936, Note_on_c, 1, 74, 82
3, 207936, Note_on_c, 1, 66, 82
3, 207936, Note_on_c, 1, 62, 82
3, 208124, Note_off_c, 1, 78, 0
3, 208124, Note_off_c, 1, 74, 0
3, 208124, Note_off_c, 1, 66, 0
3, 208124, Note_off_c, 1, 62, 0
3, 208128, Note_on_c, 1, 78, 79
3, 208128, Note_on_c, 1, 74, 79
3, 208128, Note_on_c, 1, 66, 79
3, 208128, Note_on_c, 1, 62, 79
3, 208508, Note_off_c, 1, 78, 0
3, 208508, Note_off_c, 1, 74, 0
3, 208508, Note_off_c, 1, 66, 0
3, 208508, Note_off_c, 1, 62, 0
3, 208512, Note_on_c, 1, 76, 74
3, 208512, Note_on_c, 1, 73, 74
3, 208512, Note_on_c, 1, 64, 74
3, 208512, Note_on_c, 1, 57, 74
3, 208892, Note_off_c, 1, 76, 0
3, 208892, Note_off_c, 1, 73, 0
3, 208892, Note_off_c, 1, 64, 0
3, 208892, Note_off_c, 1, 57, 0
3, 209664, Note_on_c, 1, 69, 70
3, 209664, Note_on_c, 1, 61, 70
3, 209852, Note_off_c, 1, 69, 0
3, 209856, Note_on_c, 1, 67, 70
3, 210044, Note_off_c, 1, 61, 0
3, 210044, Note_off_c, 1, 67, 0
3, 210048, Note_on_c, 1, 66, 70
3, 210048, Note_on_c, 1, 63, 70
3, 210428, Note_off_c, 1, 66, 0
3, 210428, Note_off_c, 1, 63, 0
3, 211200, Note_on_c, 1, 67, 70
3, 211200, Note_on_c, 1, 59, 70
3, 211388, Note_off_c, 1, 67, 0
3, 211392, Note_on_c, 1, 65, 70
3, 211580, Note_off_c, 1, 59, 0
3, 211580, Note_off_c, 1, 65, 0
3, 211584, Note_on_c, 1, 64, 70
3, 211584, Note_on_c, 1, 61, 70
3, 211964, Note_off_c, 1, 64, 0
3, 211964, Note_off_c, 1, 61, 0
3, 212736, Note_on_c, 1, 62, 70
3, 212736, Note_on_c, 1, 68, 70
3, 212736, Note_on_c, 1, 68, 90
3, 212736, Note_on_c, 1, 62, 90
3, 212924, Note_off_c, 1, 62, 64
3, 212924, Note_off_c, 1, 68, 64
3, 214268, Note_off_c, 1, 68, 0
3, 214268, Note_off_c, 1, 62, 0
3, 214272, Note_on_c, 1, 69, 70
3, 214272, Note_on_c, 1, 61, 70
3, 214652, Note_off_c, 1, 69, 0
3, 214652, Note_off_c, 1, 61, 0
3, 215808, Note_on_c, 1, 68, 70
3, 215808, Note_on_c, 1, 62, 70
3, 215808, Note_on_c, 1, 68, 90
3, 215808, Note_on_c, 1, 62, 90
3, 215996, Note_off_c, 1, 68, 64
3, 215996, Note_off_c, 1, 62, 64
3, 217340, Note_off_c, 1, 68, 0
3, 217340, Note_off_c, 1, 62, 0
3, 217344, Note_on_c, 1, 69, 80
3, 217344, Note_on_c, 1, 61, 80
3, 217724, Note_off_c, 1, 69, 0
3, 217724, Note_off_c, 1, 61, 0
3, 217728, Note_on_c, 1, 64, 80
3, 217728, Note_on_c, 1, 61, 80
3, 218108, Note_off_c, 1, 64, 0
3, 218108, Note_off_c, 1, 61, 0
3, 218112, Note_on_c, 1, 64, 80
3, 218112, Note_on_c, 1, 61, 80
3, 218492, Note_off_c, 1, 64, 0
3, 218492, Note_off_c, 1, 61, 0
3, 218496, Note_on_c, 1, 64, 80
3, 218496, Note_on_c, 1, 61, 80
3, 218876, Note_off_c, 1, 64, 0
3, 218876, Note_off_c, 1, 61, 0
3, 218880, Note_on_c, 1, 64, 80
3, 218880, Note_on_c, 1, 61, 80
3, 219260, Note_off_c, 1, 64, 0
3, 219260, Note_off_c, 1, 61, 0
3, 219648, Note_on_c, 1, 66, 70
3, 219648, Note_on_c, 1, 62, 70
3, 219740, Note_off_c, 1, 66, 0
3, 219740, Note_off_c, 1, 62, 0
3, 219840, Note_on_c, 1, 74, 70
3, 219840, Note_on_c, 1, 66, 70
3, 219932, Note_off_c, 1, 74, 0
3, 219932, Note_off_c, 1, 66, 0
3, 220032, Note_on_c, 1, 69, 70
3, 220032, Note_on_c, 1, 81, 70
3, 220124, Note_off_c, 1, 69, 0
3, 220124, Note_off_c, 1, 81, 0
3, 220224, Note_on_c, 1, 79, 70
3, 220224, Note_on_c, 1, 73, 70
3, 220316, Note_off_c, 1, 79, 0
3, 220316, Note_off_c, 1, 73, 0
3, 220416, Note_on_c, 1, 79, 70
3, 220416, Note_on_c, 1, 73, 70
3, 220604, Note_off_c, 1, 79, 0
3, 220604, Note_off_c, 1, 73, 0
3, 220608, Note_on_c, 1, 73, 70
3, 220608, Note_on_c, 1, 67, 70
3, 220796, Note_off_c, 1, 73, 0
3, 220796, Note_off_c, 1, 67, 0
3, 220800, Note_on_c, 1, 74, 70
3, 220800, Note_on_c, 1, 66, 70
3, 220892, Note_off_c, 1, 74, 0
3, 220892, Note_off_c, 1, 66, 0
3, 220992, Note_on_c, 1, 67, 70
3, 220992, Note_on_c, 1, 64, 70
3, 221132, Note_off_c, 1, 67, 0
3, 221132, Note_off_c, 1, 64, 0
3, 221136, Note_on_c, 1, 64, 80
3, 221136, Note_on_c, 1, 61, 80
3, 221180, Note_off_c, 1, 64, 0
3, 221180, Note_off_c, 1, 61, 0
3, 221184, Note_on_c, 1, 69, 70
3, 221184, Note_on_c, 1, 66, 70
3, 221372, Note_off_c, 1, 69, 0
3, 221372, Note_off_c, 1, 66, 0
3, 221376, Note_on_c, 1, 69, 70
3, 221376, Note_on_c, 1, 66, 70
3, 221564, Note_off_c, 1, 69, 0
3, 221564, Note_off_c, 1, 66, 0
3, 221568, Note_on_c, 1, 71, 70
3, 221568, Note_on_c, 1, 67, 70
3, 221756, Note_off_c, 1, 71, 0
3, 221756, Note_off_c, 1, 67, 0
3, 221760, Note_on_c, 1, 71, 70
3, 221760, Note_on_c, 1, 67, 70
3, 221948, Note_off_c, 1, 71, 0
3, 221948, Note_off_c, 1, 67, 0
3, 221952, Note_on_c, 1, 64, 70
3, 221952, Note_on_c, 1, 61, 70
3, 222140, Note_off_c, 1, 64, 0
3, 222140, Note_off_c, 1, 61, 0
3, 222528, Note_on_c, 1, 71, 67
3, 222528, Note_on_c, 1, 67, 67
3, 222668, Note_off_c, 1, 71, 0
3, 222668, Note_off_c, 1, 67, 0
3, 222672, Note_on_c, 1, 67, 64
3, 222672, Note_on_c, 1, 64, 64
3, 222716, Note_off_c, 1, 67, 0
3, 222716, Note_off_c, 1, 64, 0
3, 222720, Note_on_c, 1, 64, 62
3, 222720, Note_on_c, 1, 61, 62
3, 222812, Note_off_c, 1, 64, 0
3, 222812, Note_off_c, 1, 61, 0
3, 223296, Note_on_c, 1, 71, 60
3, 223296, Note_on_c, 1, 67, 60
3, 223340, Note_off_c, 1, 71, 0
3, 223340, Note_off_c, 1, 67, 0
3, 223344, Note_on_c, 1, 64, 60
3, 223388, Note_off_c, 1, 64, 0
3, 223392, Note_on_c, 1, 71, 60
3, 223392, Note_on_c, 1, 67, 60
3, 223436, Note_off_c, 1, 71, 0
3, 223436, Note_off_c, 1, 67, 0
3, 223440, Note_on_c, 1, 64, 60
3, 223484, Note_off_c, 1, 64, 0
3, 223488, Note_on_c, 1, 64, 60
3, 223488, Note_on_c, 1, 61, 60
3, 223580, Note_off_c, 1, 64, 0
3, 223580, Note_off_c, 1, 61, 0
3, 224832, Note_on_c, 1, 81, 90
3, 224832, Note_on_c, 1, 69, 90
3, 224924, Note_off_c, 1, 81, 0
3, 224924, Note_off_c, 1, 69, 0
3, 225024, Note_on_c, 1, 81, 90
3, 225024, Note_on_c, 1, 69, 90
3, 225116, Note_off_c, 1, 81, 0
3, 225116, Note_off_c, 1, 69, 0
3, 225216, Note_on_c, 1, 81, 90
3, 225216, Note_on_c, 1, 69, 90
3, 225308, Note_off_c, 1, 81, 0
3, 225308, Note_off_c, 1, 69, 0
3, 225408, Note_on_c, 1, 80, 90
3, 225408, Note_on_c, 1, 68, 90
3, 225788, Note_off_c, 1, 80, 0
3, 225788, Note_off_c, 1, 68, 0
3, 225792, Note_on_c, 1, 81, 90
3, 225792, Note_on_c, 1, 69, 90
3, 225980, Note_off_c, 1, 81, 0
3, 225980, Note_off_c, 1, 69, 0
3, 225984, Note_on_c, 1, 79, 90
3, 225984, Note_on_c, 1, 67, 90
3, 226076, Note_off_c, 1, 79, 0
3, 226076, Note_off_c, 1, 67, 0
3, 226176, Note_on_c, 1, 76, 70
3, 226176, Note_on_c, 1, 64, 70
3, 226268, Note_off_c, 1, 76, 0
3, 226268, Note_off_c, 1, 64, 0
3, 226368, Note_on_c, 1, 73, 70
3, 226368, Note_on_c, 1, 61, 70
3, 226460, Note_off_c, 1, 73, 0
3, 226460, Note_off_c, 1, 61, 0
3, 226560, Note_on_c, 1, 76, 70
3, 226560, Note_on_c, 1, 64, 70
3, 226940, Note_off_c, 1, 76, 0
3, 226940, Note_off_c, 1, 64, 0
3, 226944, Note_on_c, 1, 74, 70
3, 226944, Note_on_c, 1, 62, 70
3, 227132, Note_off_c, 1, 74, 0
3, 227132, Note_off_c, 1, 62, 0
3, 227136, Note_on_c, 1, 81, 70
3, 227136, Note_on_c, 1, 78, 70
3, 227708, Note_off_c, 1, 81, 0
3, 227708, Note_off_c, 1, 78, 0
3, 227712, Note_on_c, 1, 79, 70
3, 227712, Note_on_c, 1, 83, 70
3, 228284, Note_off_c, 1, 79, 0
3, 228284, Note_off_c, 1, 83, 0
3, 228288, Note_on_c, 1, 79, 70
3, 228288, Note_on_c, 1, 73, 70
3, 228860, Note_off_c, 1, 79, 0
3, 228860, Note_off_c, 1, 73, 0
3, 228864, Note_on_c, 1, 78, 70
3, 228864, Note_on_c, 1, 74, 70
3, 229436, Note_off_c, 1, 78, 0
3, 229436, Note_off_c, 1, 74, 0
3, 229440, Note_on_c, 1, 81, 90
3, 229440, Note_on_c, 1, 69, 90
3, 229532, Note_off_c, 1, 81, 0
3, 229532, Note_off_c, 1, 69, 0
3, 229632, Note_on_c, 1, 81, 90
3, 229632, Note_on_c, 1, 69, 90
3, 229724, Note_off_c, 1, 81, 0
3, 229724, Note_off_c, 1, 69, 0
3, 229824, Note_on_c, 1, 81, 90
3, 229824, Note_on_c, 1, 69, 90
3, 229916, Note_off_c, 1, 81, 0
3, 229916, Note_off_c, 1, 69, 0
3, 230016, Note_on_c, 1, 80, 90
3, 230016, Note_on_c, 1, 68, 90
3, 230396, Note_off_c, 1, 80, 0
3, 230396, Note_off_c, 1, 68, 0
3, 230400, Note_on_c, 1, 81, 90
3, 230400, Note_on_c, 1, 69, 90
3, 230588, Note_off_c, 1, 81, 0
3, 230588, Note_off_c, 1, 69, 0
3, 230592, Note_on_c, 1, 79, 90
3, 230592, Note_on_c, 1, 67, 90
3, 230684, Note_off_c, 1, 79, 0
3, 230684, Note_off_c, 1, 67, 0
3, 230784, Note_on_c, 1, 76, 90
3, 230784, Note_on_c, 1, 64, 90
3, 230876, Note_off_c, 1, 76, 0
3, 230876, Note_off_c, 1, 64, 0
3, 230976, Note_on_c, 1, 73, 90
3, 230976, Note_on_c, 1, 61, 90
3, 231068, Note_off_c, 1, 73, 0
3, 231068, Note_off_c, 1, 61, 0
3, 231168, Note_on_c, 1, 76, 90
3, 231168, Note_on_c, 1, 64, 90
3, 231548, Note_off_c, 1, 76, 0
3, 231548, Note_off_c, 1, 64, 0
3, 231552, Note_on_c, 1, 74, 90
3, 231552, Note_on_c, 1, 62, 90
3, 231740, Note_off_c, 1, 74, 0
3, 231740, Note_off_c, 1, 62, 0
3, 231744, Note_on_c, 1, 78, 70
3, 231744, Note_on_c, 1, 81, 70
3, 232316, Note_off_c, 1, 78, 0
3, 232316, Note_off_c, 1, 81, 0
3, 232320, Note_on_c, 1, 79, 70
3, 232320, Note_on_c, 1, 83, 70
3, 232892, Note_off_c, 1, 79, 0
3, 232892, Note_off_c, 1, 83, 0
3, 232896, Note_on_c, 1, 79, 70
3, 232896, Note_on_c, 1, 85, 70
3, 233468, Note_off_c, 1, 79, 0
3, 233468, Note_off_c, 1, 85, 0
3, 233472, Note_on_c, 1, 78, 70
3, 233472, Note_on_c, 1, 86, 70
3, 234044, Note_off_c, 1, 78, 0
3, 234044, Note_off_c, 1, 86, 0
3, 234624, Note_on_c, 1, 74, 70
3, 234716, Note_off_c, 1, 74, 0
3, 234720, Note_on_c, 1, 73, 70
3, 234812, Note_off_c, 1, 73, 0
3, 234816, Note_on_c, 1, 74, 70
3, 234908, Note_off_c, 1, 74, 0
3, 234912, Note_on_c, 1, 73, 70
3, 235004, Note_off_c, 1, 73, 0
3, 235008, Note_on_c, 1, 74, 70
3, 235100, Note_off_c, 1, 74, 0
3, 235104, Note_on_c, 1, 73, 70
3, 235196, Note_off_c, 1, 73, 0
3, 235200, Note_on_c, 1, 74, 70
3, 235388, Note_off_c, 1, 74, 0
3, 235776, Note_on_c, 1, 74, 70
3, 235868, Note_off_c, 1, 74, 0
3, 235872, Note_on_c, 1, 73, 70
3, 235964, Note_off_c, 1, 73, 0
3, 235968, Note_on_c, 1, 74, 70
3, 236060, Note_off_c, 1, 74, 0
3, 236064, Note_on_c, 1, 73, 70
3, 236156, Note_off_c, 1, 73, 0
3, 236160, Note_on_c, 1, 74, 70
3, 236252, Note_off_c, 1, 74, 0
3, 236256, Note_on_c, 1, 73, 70
3, 236348, Note_off_c, 1, 73, 0
3, 236352, Note_on_c, 1, 74, 70
3, 236540, Note_off_c, 1, 74, 0
3, 236928, Note_on_c, 1, 74, 70
3, 237020, Note_off_c, 1, 74, 0
3, 237024, Note_on_c, 1, 73, 70
3, 237116, Note_off_c, 1, 73, 0
3, 237120, Note_on_c, 1, 74, 70
3, 237212, Note_off_c, 1, 74, 0
3, 237216, Note_on_c, 1, 73, 71
3, 237308, Note_off_c, 1, 73, 0
3, 237312, Note_on_c, 1, 74, 71
3, 237404, Note_off_c, 1, 74, 0
3, 237408, Note_on_c, 1, 73, 72
3, 237500, Note_off_c, 1, 73, 0
3, 237504, Note_on_c, 1, 74, 72
3, 237692, Note_off_c, 1, 74, 0
3, 238080, Note_on_c, 1, 67, 75
3, 238172, Note_off_c, 1, 67, 0
3, 238176, Note_on_c, 1, 66, 75
3, 238268, Note_off_c, 1, 66, 0
3, 238272, Note_on_c, 1, 67, 76
3, 238364, Note_off_c, 1, 67, 0
3, 238368, Note_on_c, 1, 66, 76
3, 238460, Note_off_c, 1, 66, 0
3, 238464, Note_on_c, 1, 67, 77
3, 238556, Note_off_c, 1, 67, 0
3, 238560, Note_on_c, 1, 66, 77
3, 238652, Note_off_c, 1, 66, 0
3, 238656, Note_on_c, 1, 67, 78
3, 238844, Note_off_c, 1, 67, 0
3, 239232, Note_on_c, 1, 66, 80
3, 239420, Note_off_c, 1, 66, 0
3, 241536, Note_on_c, 1, 78, 80
3, 241536, Note_on_c, 1, 81, 80
3, 241536, Note_on_c, 1, 69, 80
3, 242108, Note_off_c, 1, 78, 0
3, 242108, Note_off_c, 1, 81, 0
3, 242112, Note_on_c, 1, 79, 80
3, 242112, Note_on_c, 1, 76, 80
3, 242684, Note_off_c, 1, 69, 0
3, 242684, Note_off_c, 1, 79, 0
3, 242684, Note_off_c, 1, 76, 0
3, 242688, Note_on_c, 1, 78, 80
3, 242688, Note_on_c, 1, 74, 80
3, 242688, Note_on_c, 1, 69, 80
3, 243260, Note_off_c, 1, 78, 0
3, 243260, Note_off_c, 1, 74, 0
3, 243264, Note_on_c, 1, 76, 80
3, 243264, Note_on_c, 1, 73, 80
3, 243836, Note_off_c, 1, 69, 0
3, 243836, Note_off_c, 1, 76, 0
3, 243836, Note_off_c, 1, 73, 0
3, 244032, Note_on_c, 1, 78, 80
3, 244032, Note_on_c, 1, 74, 80
3, 244220, Note_off_c, 1, 78, 0
3, 244220, Note_off_c, 1, 74, 0
3, 244224, Note_on_c, 1, 78, 80
3, 244224, Note_on_c, 1, 81, 80
3, 244412, Note_off_c, 1, 78, 0
3, 244412, Note_off_c, 1, 81, 0
3, 244608, Note_on_c, 1, 69, 80
3, 244608, Note_on_c, 1, 62, 80
3, 244796, Note_off_c, 1, 69, 0
3, 244796, Note_off_c, 1, 62, 0
3, 244800, Note_on_c, 1, 74, 80
3, 244800, Note_on_c, 1, 69, 80
3, 244988, Note_off_c, 1, 74, 0
3, 244988, Note_off_c, 1, 69, 0
3, 245184, Note_on_c, 1, 71, 80
3, 245184, Note_on_c, 1, 62, 80
3, 245372, Note_off_c, 1, 71, 0
3, 245372, Note_off_c, 1, 62, 0
3, 245376, Note_on_c, 1, 74, 80
3, 245376, Note_on_c, 1, 71, 80
3, 245564, Note_off_c, 1, 74, 0
3, 245564, Note_off_c, 1, 71, 0
3, 245760, Note_on_c, 1, 67, 80
3, 245760, Note_on_c, 1, 64, 80
3, 245948, Note_off_c, 1, 67, 0
3, 245948, Note_off_c, 1, 64, 0
3, 245952, Note_on_c, 1, 71, 80
3, 245952, Note_on_c, 1, 67, 80
3, 246140, Note_off_c, 1, 71, 0
3, 246140, Note_off_c, 1, 67, 0
3, 246336, Note_on_c, 1, 74, 80
3, 246336, Note_on_c, 1, 69, 80
3, 246524, Note_off_c, 1, 74, 0
3, 246524, Note_off_c, 1, 69, 0
3, 246528, Note_on_c, 1, 78, 80
3, 246716, Note_off_c, 1, 78, 0
3, 246720, Note_on_c, 1, 79, 80
3, 246720, Note_on_c, 1, 71, 80
3, 246908, Note_off_c, 1, 79, 0
3, 246908, Note_off_c, 1, 71, 0
3, 246912, Note_on_c, 1, 71, 80
3, 246912, Note_on_c, 1, 67, 80
3, 247100, Note_off_c, 1, 71, 0
3, 247100, Note_off_c, 1, 67, 0
3, 247104, Note_on_c, 1, 73, 80
3, 247104, Note_on_c, 1, 67, 80
3, 247292, Note_off_c, 1, 73, 0
3, 247292, Note_off_c, 1, 67, 0
3, 247296, Note_on_c, 1, 74, 80
3, 247296, Note_on_c, 1, 66, 80
3, 247388, Note_off_c, 1, 74, 0
3, 247388, Note_off_c, 1, 66, 0
3, 247488, Note_on_c, 1, 66, 80
3, 247488, Note_on_c, 1, 62, 80
3, 247676, Note_off_c, 1, 66, 0
3, 247676, Note_off_c, 1, 62, 0
3, 247680, Note_on_c, 1, 69, 80
3, 247680, Note_on_c, 1, 66, 80
3, 247868, Note_off_c, 1, 69, 0
3, 247868, Note_off_c, 1, 66, 0
3, 248064, Note_on_c, 1, 62, 80
3, 248064, Note_on_c, 1, 57, 80
3, 248252, Note_off_c, 1, 62, 0
3, 248252, Note_off_c, 1, 57, 0
3, 248256, Note_on_c, 1, 62, 80
3, 248256, Note_on_c, 1, 69, 80
3, 248444, Note_off_c, 1, 62, 0
3, 248444, Note_off_c, 1, 69, 0
3, 248640, Note_on_c, 1, 62, 80
3, 248640, Note_on_c, 1, 59, 80
3, 248828, Note_off_c, 1, 62, 0
3, 248828, Note_off_c, 1, 59, 0
3, 248832, Note_on_c, 1, 67, 80
3, 248832, Note_on_c, 1, 62, 80
3, 249020, Note_off_c, 1, 67, 0
3, 249020, Note_off_c, 1, 62, 0
3, 249216, Note_on_c, 1, 64, 80
3, 249404, Note_off_c, 1, 64, 0
3, 249408, Note_on_c, 1, 67, 80
3, 249596, Note_off_c, 1, 67, 0
3, 249600, Note_on_c, 1, 66, 80
3, 249788, Note_off_c, 1, 66, 0
3, 249792, Note_on_c, 1, 62, 80
3, 249980, Note_off_c, 1, 62, 0
3, 249984, Note_on_c, 1, 62, 81
3, 250172, Note_off_c, 1, 62, 0
3, 250176, Note_on_c, 1, 62, 82
3, 250364, Note_off_c, 1, 62, 0
3, 250368, Note_on_c, 1, 62, 83
3, 250556, Note_off_c, 1, 62, 0
3, 250560, Note_on_c, 1, 62, 84
3, 250748, Note_off_c, 1, 62, 0
3, 250752, Note_on_c, 1, 62, 85
3, 250940, Note_off_c, 1, 62, 0
3, 250944, Note_on_c, 1, 62, 86
3, 251132, Note_off_c, 1, 62, 0
3, 251136, Note_on_c, 1, 62, 87
3, 251324, Note_off_c, 1, 62, 0
3, 251328, Note_on_c, 1, 62, 88
3, 251516, Note_off_c, 1, 62, 0
3, 251520, Note_on_c, 1, 62, 89
3, 251520, Note_on_c, 1, 67, 89
3, 251708, Note_off_c, 1, 62, 0
3, 251708, Note_off_c, 1, 67, 0
3, 251712, Note_on_c, 1, 64, 90
3, 251712, Note_on_c, 1, 69, 90
3, 251900, Note_off_c, 1, 64, 0
3, 251900, Note_off_c, 1, 69, 0
3, 251904, Note_on_c, 1, 69, 90
3, 251904, Note_on_c, 1, 66, 90
3, 252092, Note_off_c, 1, 69, 0
3, 252092, Note_off_c, 1, 66, 0
3, 252096, Note_on_c, 1, 69, 90
3, 252096, Note_on_c, 1, 63, 90
3, 252284, Note_off_c, 1, 69, 0
3, 252284, Note_off_c, 1, 63, 0
3, 252288, Note_on_c, 1, 69, 90
3, 252288, Note_on_c, 1, 64, 90
3, 252288, Note_on_c, 1, 61, 90
3, 252476, Note_off_c, 1, 69, 0
3, 252476, Note_off_c, 1, 64, 0
3, 252476, Note_off_c, 1, 61, 0
3, 252480, Note_on_c, 1, 69, 90
3, 252480, Note_on_c, 1, 66, 90
3, 252480, Note_on_c, 1, 62, 90
3, 252668, Note_off_c, 1, 69, 0
3, 252668, Note_off_c, 1, 66, 0
3, 252668, Note_off_c, 1, 62, 0
3, 252672, Note_on_c, 1, 74, 90
3, 252672, Note_on_c, 1, 67, 90
3, 252672, Note_on_c, 1, 62, 90
3, 252860, Note_off_c, 1, 74, 0
3, 252860, Note_off_c, 1, 67, 0
3, 252860, Note_off_c, 1, 62, 0
3, 252864, Note_on_c, 1, 74, 90
3, 252864, Note_on_c, 1, 68, 90
3, 252864, Note_on_c, 1, 62, 90
3, 253052, Note_off_c, 1, 74, 0
3, 253052, Note_off_c, 1, 68, 0
3, 253052, Note_off_c, 1, 62, 0
3, 253056, Note_on_c, 1, 73, 90
3, 253056, Note_on_c, 1, 69, 90
3, 253056, Note_on_c, 1, 64, 90
3, 253820, Note_off_c, 1, 73, 0
3, 253820, Note_off_c, 1, 69, 0
3, 253820, Note_off_c, 1, 64, 0
3, 291038, Program_c, 1, 48
3, 291068, Program_c, 1, 48
3, 291648, Note_on_c, 1, 57, 55
3, 291740, Note_off_c, 1, 57, 0
3, 291744, Note_on_c, 1, 62, 55
3, 291836, Note_off_c, 1, 62, 0
3, 291840, Note_on_c, 1, 66, 55
3, 291932, Note_off_c, 1, 66, 0
3, 291936, Note_on_c, 1, 62, 55
3, 292028, Note_off_c, 1, 62, 0
3, 292032, Note_on_c, 1, 69, 55
3, 292124, Note_off_c, 1, 69, 0
3, 292128, Note_on_c, 1, 66, 55
3, 292220, Note_off_c, 1, 66, 0
3, 292224, Note_on_c, 1, 67, 55
3, 292316, Note_off_c, 1, 67, 0
3, 292320, Note_on_c, 1, 64, 55
3, 292412, Note_off_c, 1, 64, 0
3, 292416, Note_on_c, 1, 61, 55
3, 292508, Note_off_c, 1, 61, 0
3, 292512, Note_on_c, 1, 64, 55
3, 292604, Note_off_c, 1, 64, 0
3, 292608, Note_on_c, 1, 67, 55
3, 292700, Note_off_c, 1, 67, 0
3, 292704, Note_on_c, 1, 73, 55
3, 292796, Note_off_c, 1, 73, 0
3, 292800, Note_on_c, 1, 74, 55
3, 292892, Note_off_c, 1, 74, 0
3, 292896, Note_on_c, 1, 69, 55
3, 292988, Note_off_c, 1, 69, 0
3, 292992, Note_on_c, 1, 76, 55
3, 293084, Note_off_c, 1, 76, 0
3, 293088, Note_on_c, 1, 73, 55
3, 293180, Note_off_c, 1, 73, 0
3, 293184, Note_on_c, 1, 78, 55
3, 293276, Note_off_c, 1, 78, 0
3, 293280, Note_on_c, 1, 69, 55
3, 293372, Note_off_c, 1, 69, 0
3, 293376, Note_on_c, 1, 74, 55
3, 293468, Note_off_c, 1, 74, 0
3, 293472, Note_on_c, 1, 66, 55
3, 293564, Note_off_c, 1, 66, 0
3, 293568, Note_on_c, 1, 71, 55
3, 293660, Note_off_c, 1, 71, 0
3, 293664, Note_on_c, 1, 62, 55
3, 293756, Note_off_c, 1, 62, 0
3, 293760, Note_on_c, 1, 64, 55
3, 293852, Note_off_c, 1, 64, 0
3, 293856, Note_on_c, 1, 59, 55
3, 293948, Note_off_c, 1, 59, 0
3, 293952, Note_on_c, 1, 61, 55
3, 294044, Note_off_c, 1, 61, 0
3, 294432, Note_on_c, 1, 66, 55
3, 294432, Note_on_c, 1, 70, 55
3, 294524, Note_off_c, 1, 66, 0
3, 294524, Note_off_c, 1, 70, 0
3, 294528, Note_on_c, 1, 71, 55
3, 294528, Note_on_c, 1, 67, 55
3, 294620, Note_off_c, 1, 71, 0
3, 294620, Note_off_c, 1, 67, 0
3, 294624, Note_on_c, 1, 67, 55
3, 294624, Note_on_c, 1, 64, 55
3, 294716, Note_off_c, 1, 67, 0
3, 294716, Note_off_c, 1, 64, 0
3, 294720, Note_on_c, 1, 64, 55
3, 294720, Note_on_c, 1, 61, 55
3, 294812, Note_off_c, 1, 64, 0
3, 294812, Note_off_c, 1, 61, 0
3, 295200, Note_on_c, 1, 70, 55
3, 295200, Note_on_c, 1, 66, 55
3, 295292, Note_off_c, 1, 70, 0
3, 295292, Note_off_c, 1, 66, 0
3, 295296, Note_on_c, 1, 71, 55
3, 295296, Note_on_c, 1, 67, 55
3, 295340, Note_off_c, 1, 71, 0
3, 295340, Note_off_c, 1, 67, 0
3, 295344, Note_on_c, 1, 64, 55
3, 295388, Note_off_c, 1, 64, 0
3, 295392, Note_on_c, 1, 71, 55
3, 295392, Note_on_c, 1, 67, 55
3, 295436, Note_off_c, 1, 71, 0
3, 295436, Note_off_c, 1, 67, 0
3, 295440, Note_on_c, 1, 64, 55
3, 295484, Note_off_c, 1, 64, 0
3, 295488, Note_on_c, 1, 64, 55
3, 295488, Note_on_c, 1, 61, 55
3, 295580, Note_off_c, 1, 64, 0
3, 295580, Note_off_c, 1, 61, 0
3, 296832, Note_on_c, 1, 71, 75
3, 296932, Note_off_c, 1, 71, 0
3, 297024, Note_on_c, 1, 69, 75
3, 297124, Note_off_c, 1, 69, 0
3, 297216, Note_on_c, 1, 67, 75
3, 297316, Note_off_c, 1, 67, 0
3, 297408, Note_on_c, 1, 65, 85
3, 297792, Note_off_c, 1, 65, 0
3, 297792, Note_on_c, 1, 66, 65
3, 297972, Note_off_c, 1, 66, 0
3, 297984, Note_on_c, 1, 67, 65
3, 298084, Note_off_c, 1, 67, 0
3, 298176, Note_on_c, 1, 66, 65
3, 298276, Note_off_c, 1, 66, 0
3, 298368, Note_on_c, 1, 64, 65
3, 298468, Note_off_c, 1, 64, 0
3, 298560, Note_on_c, 1, 61, 85
3, 298944, Note_off_c, 1, 61, 0
3, 298944, Note_on_c, 1, 62, 65
3, 299124, Note_off_c, 1, 62, 0
3, 299328, Note_on_c, 1, 69, 65
3, 299428, Note_off_c, 1, 69, 0
3, 299520, Note_on_c, 1, 69, 65
3, 299620, Note_off_c, 1, 69, 0
3, 299904, Note_on_c, 1, 71, 65
3, 300004, Note_off_c, 1, 71, 0
3, 300096, Note_on_c, 1, 71, 65
3, 300196, Note_off_c, 1, 71, 0
3, 300288, Note_on_c, 1, 76, 65
3, 300576, Note_off_c, 1, 76, 0
3, 300576, Note_on_c, 1, 73, 65
3, 300668, Note_off_c, 1, 73, 0
3, 300672, Note_on_c, 1, 76, 65
3, 300764, Note_off_c, 1, 76, 0
3, 300768, Note_on_c, 1, 73, 65
3, 300848, Note_off_c, 1, 73, 0
3, 300864, Note_on_c, 1, 74, 65
3, 300964, Note_off_c, 1, 74, 0
3, 301056, Note_on_c, 1, 69, 65
3, 301056, Note_on_c, 1, 66, 65
3, 301156, Note_off_c, 1, 69, 0
3, 301156, Note_off_c, 1, 66, 0
3, 301248, Note_on_c, 1, 66, 65
3, 301248, Note_on_c, 1, 62, 65
3, 301348, Note_off_c, 1, 66, 0
3, 301348, Note_off_c, 1, 62, 0
3, 301440, Note_on_c, 1, 71, 65
3, 301540, Note_off_c, 1, 71, 0
3, 301632, Note_on_c, 1, 69, 65
3, 301732, Note_off_c, 1, 69, 0
3, 301824, Note_on_c, 1, 67, 65
3, 301924, Note_off_c, 1, 67, 0
3, 302016, Note_on_c, 1, 65, 85
3, 302400, Note_off_c, 1, 65, 0
3, 302400, Note_on_c, 1, 66, 65
3, 302580, Note_off_c, 1, 66, 0
3, 302592, Note_on_c, 1, 67, 65
3, 302692, Note_off_c, 1, 67, 0
3, 302784, Note_on_c, 1, 66, 65
3, 302884, Note_off_c, 1, 66, 0
3, 302976, Note_on_c, 1, 64, 65
3, 303072, Note_off_c, 1, 64, 0
3, 303168, Note_on_c, 1, 61, 85
3, 303552, Note_off_c, 1, 61, 0
3, 303552, Note_on_c, 1, 62, 65
3, 303732, Note_off_c, 1, 62, 0
3, 303936, Note_on_c, 1, 69, 65
3, 304036, Note_off_c, 1, 69, 0
3, 304128, Note_on_c, 1, 69, 65
3, 304228, Note_off_c, 1, 69, 0
3, 304512, Note_on_c, 1, 71, 65
3, 304612, Note_off_c, 1, 71, 0
3, 304704, Note_on_c, 1, 71, 65
3, 304804, Note_off_c, 1, 71, 0
3, 304896, Note_on_c, 1, 76, 65
3, 305184, Note_off_c, 1, 76, 0
3, 305184, Note_on_c, 1, 73, 65
3, 305276, Note_off_c, 1, 73, 0
3, 305280, Note_on_c, 1, 76, 65
3, 305372, Note_off_c, 1, 76, 0
3, 305376, Note_on_c, 1, 73, 65
3, 305456, Note_off_c, 1, 73, 0
3, 305472, Note_on_c, 1, 74, 65
3, 305572, Note_off_c, 1, 74, 0
3, 305664, Note_on_c, 1, 73, 65
3, 305764, Note_off_c, 1, 73, 0
3, 305856, Note_on_c, 1, 74, 65
3, 305956, Note_off_c, 1, 74, 0
3, 306048, Note_on_c, 1, 76, 65
3, 306048, Note_on_c, 1, 71, 65
3, 306148, Note_off_c, 1, 76, 0
3, 306148, Note_off_c, 1, 71, 0
3, 306240, Note_on_c, 1, 78, 65
3, 306240, Note_on_c, 1, 69, 65
3, 306340, Note_off_c, 1, 78, 0
3, 306340, Note_off_c, 1, 69, 0
3, 306432, Note_on_c, 1, 79, 65
3, 306432, Note_on_c, 1, 67, 65
3, 306532, Note_off_c, 1, 79, 0
3, 306532, Note_off_c, 1, 67, 0
3, 306624, Note_on_c, 1, 79, 65
3, 306672, Note_off_c, 1, 79, 0
3, 306672, Note_on_c, 1, 78, 65
3, 306672, Note_on_c, 1, 69, 65
3, 306720, Note_off_c, 1, 78, 0
3, 306816, Note_on_c, 1, 76, 65
3, 306908, Note_off_c, 1, 76, 0
3, 307008, Note_on_c, 1, 74, 65
3, 307100, Note_off_c, 1, 74, 0
3, 307200, Note_off_c, 1, 69, 0
3, 307200, Note_on_c, 1, 69, 65
3, 307248, Note_off_c, 1, 69, 0
3, 307248, Note_on_c, 1, 67, 65
3, 307248, Note_on_c, 1, 57, 65
3, 307296, Note_off_c, 1, 67, 0
3, 307392, Note_on_c, 1, 66, 65
3, 307484, Note_off_c, 1, 66, 0
3, 307584, Note_on_c, 1, 64, 65
3, 307676, Note_off_c, 1, 64, 0
3, 307776, Note_off_c, 1, 57, 0
3, 307776, Note_on_c, 1, 66, 65
3, 307776, Note_on_c, 1, 62, 65
3, 307964, Note_off_c, 1, 66, 0
3, 307964, Note_off_c, 1, 62, 0
3, 307968, Note_on_c, 1, 67, 65
3, 307968, Note_on_c, 1, 61, 65
3, 308156, Note_off_c, 1, 67, 0
3, 308156, Note_off_c, 1, 61, 0
3, 308160, Note_on_c, 1, 69, 65
3, 308160, Note_on_c, 1, 60, 65
3, 308348, Note_off_c, 1, 69, 0
3, 308348, Note_off_c, 1, 60, 0
3, 308352, Note_on_c, 1, 74, 65
3, 308352, Note_on_c, 1, 59, 65
3, 308540, Note_off_c, 1, 74, 0
3, 308540, Note_off_c, 1, 59, 0
3, 308544, Note_on_c, 1, 78, 65
3, 308544, Note_on_c, 1, 57, 65
3, 308732, Note_off_c, 1, 78, 0
3, 308732, Note_off_c, 1, 57, 0
3, 308736, Note_on_c, 1, 79, 65
3, 308736, Note_on_c, 1, 55, 65
3, 308924, Note_off_c, 1, 79, 0
3, 308924, Note_off_c, 1, 55, 0
3, 308928, Note_on_c, 1, 79, 75
3, 308980, Note_off_c, 1, 79, 0
3, 308984, Note_on_c, 1, 78, 65
3, 308984, Note_on_c, 1, 57, 65
3, 309116, Note_off_c, 1, 78, 0
3, 309120, Note_on_c, 1, 76, 65
3, 309308, Note_off_c, 1, 76, 0
3, 309312, Note_on_c, 1, 74, 65
3, 309500, Note_off_c, 1, 57, 0
3, 309500, Note_off_c, 1, 74, 0
3, 309504, Note_on_c, 1, 69, 75
3, 309556, Note_off_c, 1, 69, 0
3, 309560, Note_on_c, 1, 67, 65
3, 309560, Note_on_c, 1, 57, 65
3, 309692, Note_off_c, 1, 67, 0
3, 309696, Note_on_c, 1, 66, 65
3, 309884, Note_off_c, 1, 66, 0
3, 309888, Note_on_c, 1, 64, 65
3, 310076, Note_off_c, 1, 57, 0
3, 310076, Note_off_c, 1, 64, 0
3, 310080, Note_on_c, 1, 74, 85
3, 310080, Note_on_c, 1, 66, 85
3, 310268, Note_off_c, 1, 74, 0
3, 310268, Note_off_c, 1, 66, 0
3, 310272, Note_on_c, 1, 76, 85
3, 310272, Note_on_c, 1, 73, 85
3, 310460, Note_off_c, 1, 76, 0
3, 310460, Note_off_c, 1, 73, 0
3, 310464, Note_on_c, 1, 78, 85
3, 310464, Note_on_c, 1, 74, 85
3, 310652, Note_off_c, 1, 78, 0
3, 310652, Note_off_c, 1, 74, 0
3, 310656, Note_on_c, 1, 79, 85
3, 310656, Note_on_c, 1, 76, 85
3, 310844, Note_off_c, 1, 79, 0
3, 310844, Note_off_c, 1, 76, 0
3, 310848, Note_on_c, 1, 81, 85
3, 310848, Note_on_c, 1, 78, 85
3, 311036, Note_off_c, 1, 81, 0
3, 311036, Note_off_c, 1, 78, 0
3, 311040, Note_on_c, 1, 83, 85
3, 311040, Note_on_c, 1, 79, 85
3, 311228, Note_off_c, 1, 83, 0
3, 311228, Note_off_c, 1, 79, 0
3, 311232, Note_on_c, 1, 81, 85
3, 311232, Note_on_c, 1, 78, 85
3, 311420, Note_off_c, 1, 81, 0
3, 311420, Note_off_c, 1, 78, 0
3, 311424, Note_on_c, 1, 79, 85
3, 311424, Note_on_c, 1, 76, 85
3, 311612, Note_off_c, 1, 79, 0
3, 311612, Note_off_c, 1, 76, 0
3, 311616, Note_on_c, 1, 78, 85
3, 311616, Note_on_c, 1, 74, 85
3, 311804, Note_off_c, 1, 78, 0
3, 311804, Note_off_c, 1, 74, 0
3, 311808, Note_on_c, 1, 76, 85
3, 311808, Note_on_c, 1, 67, 85
3, 311996, Note_off_c, 1, 76, 0
3, 311996, Note_off_c, 1, 67, 0
3, 312000, Note_on_c, 1, 74, 85
3, 312000, Note_on_c, 1, 66, 85
3, 312188, Note_off_c, 1, 74, 0
3, 312188, Note_off_c, 1, 66, 0
3, 312192, Note_on_c, 1, 73, 85
3, 312192, Note_on_c, 1, 64, 85
3, 312380, Note_off_c, 1, 73, 0
3, 312380, Note_off_c, 1, 64, 0
3, 312384, Note_on_c, 1, 74, 85
3, 312384, Note_on_c, 1, 66, 85
3, 312572, Note_off_c, 1, 74, 0
3, 312572, Note_off_c, 1, 66, 0
3, 312576, Note_on_c, 1, 76, 85
3, 312576, Note_on_c, 1, 69, 85
3, 312764, Note_off_c, 1, 76, 0
3, 312764, Note_off_c, 1, 69, 0
3, 312768, Note_on_c, 1, 78, 85
3, 312768, Note_on_c, 1, 74, 85
3, 312956, Note_off_c, 1, 78, 0
3, 312956, Note_off_c, 1, 74, 0
3, 312960, Note_on_c, 1, 79, 85
3, 312960, Note_on_c, 1, 76, 85
3, 313148, Note_off_c, 1, 79, 0
3, 313148, Note_off_c, 1, 76, 0
3, 313152, Note_on_c, 1, 81, 85
3, 313152, Note_on_c, 1, 78, 85
3, 313340, Note_off_c, 1, 81, 0
3, 313340, Note_off_c, 1, 78, 0
3, 313344, Note_on_c, 1, 83, 85
3, 313344, Note_on_c, 1, 79, 85
3, 313532, Note_off_c, 1, 83, 0
3, 313532, Note_off_c, 1, 79, 0
3, 313536, Note_on_c, 1, 83, 96
3, 313536, Note_on_c, 1, 79, 96
3, 313588, Note_off_c, 1, 83, 0
3, 313588, Note_off_c, 1, 79, 0
3, 313592, Note_on_c, 1, 78, 86
3, 313592, Note_on_c, 1, 81, 86
3, 313724, Note_off_c, 1, 78, 0
3, 313724, Note_off_c, 1, 81, 0
3, 313728, Note_on_c, 1, 79, 87
3, 313728, Note_on_c, 1, 76, 87
3, 313916, Note_off_c, 1, 79, 0
3, 313916, Note_off_c, 1, 76, 0
3, 313920, Note_on_c, 1, 78, 89
3, 313920, Note_on_c, 1, 74, 89
3, 314108, Note_off_c, 1, 78, 0
3, 314108, Note_off_c, 1, 74, 0
3, 314112, Note_on_c, 1, 79, 91
3, 314112, Note_on_c, 1, 76, 91
3, 314300, Note_off_c, 1, 79, 0
3, 314300, Note_off_c, 1, 76, 0
3, 314304, Note_on_c, 1, 78, 92
3, 314304, Note_on_c, 1, 74, 92
3, 314492, Note_off_c, 1, 78, 0
3, 314492, Note_off_c, 1, 74, 0
3, 314496, Note_on_c, 1, 76, 94
3, 314496, Note_on_c, 1, 73, 94
3, 314684, Note_off_c, 1, 76, 0
3, 314684, Note_off_c, 1, 73, 0
3, 314688, Note_on_c, 1, 74, 95
3, 314876, Note_off_c, 1, 74, 0
3, 314880, Note_on_c, 1, 74, 90
3, 314972, Note_off_c, 1, 74, 0
3, 314976, Note_on_c, 1, 69, 90
3, 315068, Note_off_c, 1, 69, 0
3, 315072, Note_on_c, 1, 78, 90
3, 315164, Note_off_c, 1, 78, 0
3, 315168, Note_on_c, 1, 74, 90
3, 315260, Note_off_c, 1, 74, 0
3, 315264, Note_on_c, 1, 81, 100
3, 315316, Note_off_c, 1, 81, 0
3, 315320, Note_on_c, 1, 79, 90
3, 315648, Note_on_c, 1, 78, 90
3, 315664, Note_off_c, 1, 79, 0
3, 315740, Note_off_c, 1, 78, 0
3, 315744, Note_on_c, 1, 76, 90
3, 315824, Note_off_c, 1, 76, 0
3, 315840, Note_on_c, 1, 74, 90
3, 315940, Note_off_c, 1, 74, 0
3, 316032, Note_on_c, 1, 74, 90
3, 316132, Note_off_c, 1, 74, 0
3, 316224, Note_on_c, 1, 74, 90
3, 316324, Note_off_c, 1, 74, 0
3, 316416, Note_on_c, 1, 81, 100
3, 316468, Note_off_c, 1, 81, 0
3, 316472, Note_on_c, 1, 79, 90
3, 316800, Note_on_c, 1, 78, 90
3, 316816, Note_off_c, 1, 79, 0
3, 316892, Note_off_c, 1, 78, 0
3, 316896, Note_on_c, 1, 76, 90
3, 316976, Note_off_c, 1, 76, 0
3, 316992, Note_on_c, 1, 74, 90
3, 317180, Note_off_c, 1, 74, 0
3, 317568, Note_on_c, 1, 81, 100
3, 317620, Note_off_c, 1, 81, 0
3, 317624, Note_on_c, 1, 79, 90
3, 317952, Note_on_c, 1, 78, 87
3, 317968, Note_off_c, 1, 79, 0
3, 318044, Note_off_c, 1, 78, 0
3, 318048, Note_on_c, 1, 76, 86
3, 318128, Note_off_c, 1, 76, 0
3, 318144, Note_on_c, 1, 74, 85
3, 318244, Note_off_c, 1, 74, 0
3, 318336, Note_on_c, 1, 74, 84
3, 318436, Note_off_c, 1, 74, 0
3, 318528, Note_on_c, 1, 74, 82
3, 318628, Note_off_c, 1, 74, 0
3, 318720, Note_on_c, 1, 81, 90
3, 318772, Note_off_c, 1, 81, 0
3, 318776, Note_on_c, 1, 79, 80
3, 319104, Note_on_c, 1, 78, 77
3, 319120, Note_off_c, 1, 79, 0
3, 319196, Note_off_c, 1, 78, 0
3, 319200, Note_on_c, 1, 76, 76
3, 319280, Note_off_c, 1, 76, 0
3, 319296, Note_on_c, 1, 74, 75
3, 319396, Note_off_c, 1, 74, 0
3, 319872, Note_on_c, 1, 81, 80
3, 319924, Note_off_c, 1, 81, 0
3, 319928, Note_on_c, 1, 79, 70
3, 320256, Note_on_c, 1, 78, 67
3, 320272, Note_off_c, 1, 79, 0
3, 320348, Note_off_c, 1, 78, 0
3, 320352, Note_on_c, 1, 76, 66
3, 320432, Note_off_c, 1, 76, 0
3, 320448, Note_on_c, 1, 74, 65
3, 320548, Note_off_c, 1, 74, 0
3, 321024, Note_on_c, 1, 81, 70
3, 321076, Note_off_c, 1, 81, 0
3, 321080, Note_on_c, 1, 79, 60
3, 321408, Note_on_c, 1, 78, 57
3, 321424, Note_off_c, 1, 79, 0
3, 321500, Note_off_c, 1, 78, 0
3, 321504, Note_on_c, 1, 76, 56
3, 321584, Note_off_c, 1, 76, 0
3, 321600, Note_on_c, 1, 74, 65
3, 321700, Note_off_c, 1, 74, 0
3, 322176, Note_on_c, 1, 74, 65
3, 322176, Note_on_c, 1, 69, 65
3, 322176, Note_on_c, 1, 66, 65
3, 322276, Note_off_c, 1, 74, 0
3, 322276, Note_off_c, 1, 69, 0
3, 322276, Note_off_c, 1, 66, 0
3, 322752, Note_on_c, 1, 74, 65
3, 322752, Note_on_c, 1, 66, 65
3, 322852, Note_off_c, 1, 74, 0
3, 322852, Note_off_c, 1, 66, 0
3, 322852, End_track
4, 0, Start_track
4, 0, Title_t, "Bob Fisher"
4, 0, Control_c, 2, 0, 0
4, 0, Program_c, 2, 48
4, 0, Control_c, 2, 10, 91
4, 0, Control_c, 2, 91, 67
4, 0, Control_c, 2, 93, 0
4, 0, Key_signature, 2, "major"
4, 0, Control_c, 2, 121, 0
4, 144, Control_c, 2, 10, 73
4, 192, Control_c, 2, 91, 73
4, 288, Program_c, 2, 48
4, 768, Note_on_c, 2, 54, 70
4, 1148, Note_off_c, 2, 54, 0
4, 1344, Note_on_c, 2, 57, 70
4, 1532, Note_off_c, 2, 57, 0
4, 1536, Note_on_c, 2, 62, 70
4, 1628, Note_off_c, 2, 62, 0
4, 1728, Note_on_c, 2, 57, 70
4, 1820, Note_off_c, 2, 57, 0
4, 1920, Note_on_c, 2, 50, 70
4, 2012, Note_off_c, 2, 50, 0
4, 2304, Note_on_c, 2, 62, 70
4, 2304, Note_on_c, 2, 50, 70
4, 2396, Note_off_c, 2, 62, 0
4, 2396, Note_off_c, 2, 50, 0
4, 2688, Note_on_c, 2, 62, 70
4, 2688, Note_on_c, 2, 55, 70
4, 2780, Note_off_c, 2, 62, 0
4, 2780, Note_off_c, 2, 55, 0
4, 3072, Note_on_c, 2, 57, 70
4, 3164, Note_off_c, 2, 57, 0
4, 3264, Note_on_c, 2, 57, 70
4, 3356, Note_off_c, 2, 57, 0
4, 3456, Note_on_c, 2, 45, 70
4, 3548, Note_off_c, 2, 45, 0
4, 3648, Note_on_c, 2, 50, 90
4, 3648, Note_on_c, 2, 62, 90
4, 3836, Note_off_c, 2, 50, 0
4, 3836, Note_off_c, 2, 62, 0
4, 3840, Note_on_c, 2, 62, 90
4, 3840, Note_on_c, 2, 55, 90
4, 4028, Note_off_c, 2, 62, 0
4, 4028, Note_off_c, 2, 55, 0
4, 4032, Note_on_c, 2, 61, 90
4, 4032, Note_on_c, 2, 52, 90
4, 4220, Note_off_c, 2, 61, 0
4, 4220, Note_off_c, 2, 52, 0
4, 4224, Note_on_c, 2, 57, 90
4, 4412, Note_off_c, 2, 57, 0
4, 4416, Note_on_c, 2, 66, 90
4, 4416, Note_on_c, 2, 54, 90
4, 4604, Note_off_c, 2, 66, 0
4, 4604, Note_off_c, 2, 54, 0
4, 4608, Note_on_c, 2, 66, 90
4, 4608, Note_on_c, 2, 59, 90
4, 4796, Note_off_c, 2, 66, 0
4, 4800, Note_on_c, 2, 67, 90
4, 4988, Note_off_c, 2, 59, 0
4, 4988, Note_off_c, 2, 67, 0
4, 4992, Note_on_c, 2, 64, 90
4, 4992, Note_on_c, 2, 61, 90
4, 5180, Note_off_c, 2, 64, 0
4, 5180, Note_off_c, 2, 61, 0
4, 5568, Note_on_c, 2, 62, 70
4, 5756, Note_off_c, 2, 62, 0
4, 5760, Note_on_c, 2, 59, 70
4, 6140, Note_off_c, 2, 59, 0
4, 6336, Note_on_c, 2, 57, 70
4, 6524, Note_off_c, 2, 57, 0
4, 6528, Note_on_c, 2, 45, 70
4, 6716, Note_off_c, 2, 45, 0
4, 7104, Note_on_c, 2, 50, 70
4, 7196, Note_off_c, 2, 50, 0
4, 7296, Note_on_c, 2, 54, 70
4, 7388, Note_off_c, 2, 54, 0
4, 7488, Note_on_c, 2, 57, 70
4, 7580, Note_off_c, 2, 57, 0
4, 7680, Note_on_c, 2, 62, 70
4, 7772, Note_off_c, 2, 62, 0
4, 7872, Note_on_c, 2, 57, 70
4, 7964, Note_off_c, 2, 57, 0
4, 8064, Note_on_c, 2, 50, 70
4, 8156, Note_off_c, 2, 50, 0
4, 8448, Note_on_c, 2, 62, 70
4, 8448, Note_on_c, 2, 50, 70
4, 8540, Note_off_c, 2, 62, 0
4, 8540, Note_off_c, 2, 50, 0
4, 8832, Note_on_c, 2, 62, 70
4, 8832, Note_on_c, 2, 55, 70
4, 8924, Note_off_c, 2, 62, 0
4, 8924, Note_off_c, 2, 55, 0
4, 9216, Note_on_c, 2, 57, 70
4, 9308, Note_off_c, 2, 57, 0
4, 9408, Note_on_c, 2, 57, 70
4, 9500, Note_off_c, 2, 57, 0
4, 9600, Note_on_c, 2, 45, 70
4, 9692, Note_off_c, 2, 45, 0
4, 9984, Note_on_c, 2, 57, 70
4, 10172, Note_off_c, 2, 57, 0
4, 10176, Note_on_c, 2, 56, 70
4, 10312, Note_off_c, 2, 56, 0
4, 10320, Note_on_c, 2, 57, 70
4, 10360, Note_off_c, 2, 57, 0
4, 10368, Note_on_c, 2, 45, 70
4, 10464, Note_off_c, 2, 45, 0
4, 10752, Note_on_c, 2, 57, 60
4, 10940, Note_off_c, 2, 57, 0
4, 10944, Note_on_c, 2, 56, 60
4, 10988, Note_off_c, 2, 56, 0
4, 10992, Note_on_c, 2, 57, 60
4, 11036, Note_off_c, 2, 57, 0
4, 11040, Note_on_c, 2, 56, 60
4, 11084, Note_off_c, 2, 56, 0
4, 11088, Note_on_c, 2, 57, 60
4, 11132, Note_off_c, 2, 57, 0
4, 11136, Note_on_c, 2, 45, 60
4, 11228, Note_off_c, 2, 45, 0
4, 23616, Note_on_c, 2, 54, 70
4, 23708, Note_off_c, 2, 54, 0
4, 23808, Note_on_c, 2, 62, 70
4, 23900, Note_off_c, 2, 62, 0
4, 24000, Note_on_c, 2, 62, 70
4, 24092, Note_off_c, 2, 62, 0
4, 24192, Note_on_c, 2, 55, 70
4, 24284, Note_off_c, 2, 55, 0
4, 24384, Note_on_c, 2, 59, 70
4, 24476, Note_off_c, 2, 59, 0
4, 24576, Note_on_c, 2, 64, 70
4, 24668, Note_off_c, 2, 64, 0
4, 24768, Note_on_c, 2, 61, 70
4, 24768, Note_on_c, 2, 57, 70
4, 24860, Note_off_c, 2, 61, 0
4, 24860, Note_off_c, 2, 57, 0
4, 24960, Note_on_c, 2, 57, 70
4, 24960, Note_on_c, 2, 45, 70
4, 25052, Note_off_c, 2, 57, 0
4, 25052, Note_off_c, 2, 45, 0
4, 25152, Note_on_c, 2, 45, 70
4, 25152, Note_on_c, 2, 55, 70
4, 25244, Note_off_c, 2, 45, 0
4, 25244, Note_off_c, 2, 55, 0
4, 25344, Note_on_c, 2, 57, 70
4, 25344, Note_on_c, 2, 50, 70
4, 25724, Note_off_c, 2, 57, 0
4, 25724, Note_off_c, 2, 50, 0
4, 27648, Note_on_c, 2, 61, 90
4, 28028, Note_off_c, 2, 61, 0
4, 28224, Note_on_c, 2, 54, 70
4, 28316, Note_off_c, 2, 54, 0
4, 28416, Note_on_c, 2, 62, 70
4, 28508, Note_off_c, 2, 62, 0
4, 28608, Note_on_c, 2, 62, 70
4, 28700, Note_off_c, 2, 62, 0
4, 28800, Note_on_c, 2, 55, 70
4, 28892, Note_off_c, 2, 55, 0
4, 28992, Note_on_c, 2, 59, 70
4, 29084, Note_off_c, 2, 59, 0
4, 29184, Note_on_c, 2, 64, 70
4, 29276, Note_off_c, 2, 64, 0
4, 29376, Note_on_c, 2, 61, 70
4, 29376, Note_on_c, 2, 57, 70
4, 29468, Note_off_c, 2, 61, 0
4, 29468, Note_off_c, 2, 57, 0
4, 29568, Note_on_c, 2, 57, 70
4, 29568, Note_on_c, 2, 45, 70
4, 29660, Note_off_c, 2, 57, 0
4, 29660, Note_off_c, 2, 45, 0
4, 29760, Note_on_c, 2, 55, 70
4, 29760, Note_on_c, 2, 45, 70
4, 29852, Note_off_c, 2, 55, 0
4, 29852, Note_off_c, 2, 45, 0
4, 29952, Note_on_c, 2, 54, 70
4, 29952, Note_on_c, 2, 50, 70
4, 30044, Note_off_c, 2, 54, 0
4, 30044, Note_off_c, 2, 50, 0
4, 30144, Note_on_c, 2, 50, 90
4, 30236, Note_off_c, 2, 50, 0
4, 30240, Note_on_c, 2, 49, 90
4, 30332, Note_off_c, 2, 49, 0
4, 30336, Note_on_c, 2, 50, 90
4, 30428, Note_off_c, 2, 50, 0
4, 30432, Note_on_c, 2, 52, 90
4, 30524, Note_off_c, 2, 52, 0
4, 30528, Note_on_c, 2, 54, 90
4, 30616, Note_off_c, 2, 54, 0
4, 30720, Note_on_c, 2, 54, 90
4, 30816, Note_off_c, 2, 54, 0
4, 30816, Note_on_c, 2, 52, 90
4, 30908, Note_off_c, 2, 52, 0
4, 30912, Note_on_c, 2, 54, 90
4, 31004, Note_off_c, 2, 54, 0
4, 31008, Note_on_c, 2, 55, 90
4, 31100, Note_off_c, 2, 55, 0
4, 31104, Note_on_c, 2, 57, 90
4, 31184, Note_off_c, 2, 57, 0
4, 31296, Note_on_c, 2, 59, 90
4, 31388, Note_off_c, 2, 59, 0
4, 31488, Note_on_c, 2, 61, 90
4, 31580, Note_off_c, 2, 61, 0
4, 31680, Note_on_c, 2, 62, 90
4, 31772, Note_off_c, 2, 62, 0
4, 32256, Note_on_c, 2, 62, 80
4, 32444, Note_off_c, 2, 62, 0
4, 32832, Note_on_c, 2, 62, 80
4, 33020, Note_off_c, 2, 62, 0
4, 33024, Note_on_c, 2, 62, 80
4, 33212, Note_off_c, 2, 62, 0
4, 33216, Note_on_c, 2, 62, 80
4, 33404, Note_off_c, 2, 62, 0
4, 33408, Note_on_c, 2, 62, 80
4, 33596, Note_off_c, 2, 62, 0
4, 33600, Note_on_c, 2, 62, 80
4, 33600, Note_on_c, 2, 50, 80
4, 33788, Note_off_c, 2, 62, 0
4, 33788, Note_off_c, 2, 50, 0
4, 33792, Note_on_c, 2, 62, 80
4, 33792, Note_on_c, 2, 50, 80
4, 33980, Note_off_c, 2, 62, 0
4, 33980, Note_off_c, 2, 50, 0
4, 33984, Note_on_c, 2, 62, 80
4, 33984, Note_on_c, 2, 50, 80
4, 34172, Note_off_c, 2, 62, 0
4, 34172, Note_off_c, 2, 50, 0
4, 34752, Note_on_c, 2, 64, 80
4, 34752, Note_on_c, 2, 59, 80
4, 34752, Note_on_c, 2, 55, 80
4, 34940, Note_off_c, 2, 64, 0
4, 34940, Note_off_c, 2, 59, 0
4, 34940, Note_off_c, 2, 55, 0
4, 34944, Note_on_c, 2, 64, 80
4, 34944, Note_on_c, 2, 59, 80
4, 34944, Note_on_c, 2, 55, 80
4, 35132, Note_off_c, 2, 64, 0
4, 35132, Note_off_c, 2, 59, 0
4, 35132, Note_off_c, 2, 55, 0
4, 35136, Note_on_c, 2, 64, 80
4, 35136, Note_on_c, 2, 59, 80
4, 35136, Note_on_c, 2, 55, 80
4, 35324, Note_off_c, 2, 64, 0
4, 35324, Note_off_c, 2, 59, 0
4, 35324, Note_off_c, 2, 55, 0
4, 36096, Note_on_c, 2, 62, 80
4, 36096, Note_on_c, 2, 57, 80
4, 36096, Note_on_c, 2, 54, 80
4, 36284, Note_off_c, 2, 62, 0
4, 36284, Note_off_c, 2, 57, 0
4, 36284, Note_off_c, 2, 54, 0
4, 36288, Note_on_c, 2, 62, 80
4, 36288, Note_on_c, 2, 57, 80
4, 36288, Note_on_c, 2, 54, 80
4, 36476, Note_off_c, 2, 62, 0
4, 36476, Note_off_c, 2, 57, 0
4, 36476, Note_off_c, 2, 54, 0
4, 36480, Note_on_c, 2, 62, 80
4, 36480, Note_on_c, 2, 57, 80
4, 36480, Note_on_c, 2, 54, 80
4, 36668, Note_off_c, 2, 62, 0
4, 36668, Note_off_c, 2, 57, 0
4, 36668, Note_off_c, 2, 54, 0
4, 39168, Note_on_c, 2, 45, 70
4, 39356, Note_off_c, 2, 45, 0
4, 39744, Note_on_c, 2, 57, 70
4, 39932, Note_off_c, 2, 57, 0
4, 40320, Note_on_c, 2, 47, 70
4, 40508, Note_off_c, 2, 47, 0
4, 40896, Note_on_c, 2, 59, 70
4, 41084, Note_off_c, 2, 59, 0
4, 41472, Note_on_c, 2, 44, 70
4, 41660, Note_off_c, 2, 44, 0
4, 42048, Note_on_c, 2, 56, 70
4, 42236, Note_off_c, 2, 56, 0
4, 42624, Note_on_c, 2, 45, 70
4, 42812, Note_off_c, 2, 45, 0
4, 43200, Note_on_c, 2, 57, 70
4, 43292, Note_off_c, 2, 57, 0
4, 43776, Note_on_c, 2, 62, 70
4, 43868, Note_off_c, 2, 62, 0
4, 44352, Note_on_c, 2, 62, 70
4, 44444, Note_off_c, 2, 62, 0
4, 45120, Note_on_c, 2, 47, 90
4, 45212, Note_off_c, 2, 47, 0
4, 45216, Note_on_c, 2, 46, 90
4, 45308, Note_off_c, 2, 46, 0
4, 45312, Note_on_c, 2, 49, 90
4, 45404, Note_off_c, 2, 49, 0
4, 45408, Note_on_c, 2, 47, 90
4, 45500, Note_off_c, 2, 47, 0
4, 45504, Note_on_c, 2, 50, 90
4, 45596, Note_off_c, 2, 50, 0
4, 46080, Note_on_c, 2, 62, 80
4, 46080, Note_on_c, 2, 66, 80
4, 46460, Note_off_c, 2, 62, 0
4, 46460, Note_off_c, 2, 66, 0
4, 46464, Note_on_c, 2, 64, 80
4, 46464, Note_on_c, 2, 61, 80
4, 46556, Note_off_c, 2, 64, 0
4, 46556, Note_off_c, 2, 61, 0
4, 46656, Note_on_c, 2, 62, 80
4, 46656, Note_on_c, 2, 59, 80
4, 46748, Note_off_c, 2, 62, 0
4, 46748, Note_off_c, 2, 59, 0
4, 46848, Note_on_c, 2, 61, 80
4, 46940, Note_off_c, 2, 61, 0
4, 47040, Note_on_c, 2, 59, 80
4, 47132, Note_off_c, 2, 59, 0
4, 47232, Note_on_c, 2, 64, 80
4, 47232, Note_on_c, 2, 52, 80
4, 47804, Note_off_c, 2, 64, 0
4, 47804, Note_off_c, 2, 52, 0
4, 47808, Note_on_c, 2, 64, 90
4, 47900, Note_off_c, 2, 64, 0
4, 48000, Note_on_c, 2, 64, 90
4, 48092, Note_off_c, 2, 64, 0
4, 48192, Note_on_c, 2, 64, 90
4, 48284, Note_off_c, 2, 64, 0
4, 48384, Note_on_c, 2, 63, 90
4, 48764, Note_off_c, 2, 63, 0
4, 48768, Note_on_c, 2, 64, 90
4, 48956, Note_off_c, 2, 64, 0
4, 48960, Note_on_c, 2, 62, 90
4, 49052, Note_off_c, 2, 62, 0
4, 49152, Note_on_c, 2, 59, 90
4, 49244, Note_off_c, 2, 59, 0
4, 49344, Note_on_c, 2, 56, 90
4, 49436, Note_off_c, 2, 56, 0
4, 49536, Note_on_c, 2, 59, 90
4, 49916, Note_off_c, 2, 59, 0
4, 49920, Note_on_c, 2, 57, 90
4, 50108, Note_off_c, 2, 57, 0
4, 50112, Note_on_c, 2, 57, 71
4, 50684, Note_off_c, 2, 57, 0
4, 50688, Note_on_c, 2, 50, 76
4, 51260, Note_off_c, 2, 50, 0
4, 51264, Note_on_c, 2, 52, 81
4, 51836, Note_off_c, 2, 52, 0
4, 51840, Note_on_c, 2, 52, 96
4, 51840, Note_on_c, 2, 45, 96
4, 52412, Note_off_c, 2, 52, 0
4, 52412, Note_off_c, 2, 45, 0
4, 52416, Note_on_c, 2, 64, 90
4, 52508, Note_off_c, 2, 64, 0
4, 52608, Note_on_c, 2, 64, 90
4, 52700, Note_off_c, 2, 64, 0
4, 52800, Note_on_c, 2, 64, 90
4, 52892, Note_off_c, 2, 64, 0
4, 52992, Note_on_c, 2, 63, 90
4, 53372, Note_off_c, 2, 63, 0
4, 53376, Note_on_c, 2, 64, 90
4, 53564, Note_off_c, 2, 64, 0
4, 53568, Note_on_c, 2, 62, 70
4, 53660, Note_off_c, 2, 62, 0
4, 53760, Note_on_c, 2, 59, 70
4, 53852, Note_off_c, 2, 59, 0
4, 53952, Note_on_c, 2, 56, 70
4, 54044, Note_off_c, 2, 56, 0
4, 54144, Note_on_c, 2, 59, 70
4, 54524, Note_off_c, 2, 59, 0
4, 54528, Note_on_c, 2, 57, 70
4, 54716, Note_off_c, 2, 57, 0
4, 54720, Note_on_c, 2, 57, 71
4, 55292, Note_off_c, 2, 57, 0
4, 55296, Note_on_c, 2, 50, 74
4, 55868, Note_off_c, 2, 50, 0
4, 55872, Note_on_c, 2, 52, 77
4, 56444, Note_off_c, 2, 52, 0
4, 56448, Note_on_c, 2, 52, 80
4, 56448, Note_on_c, 2, 45, 80
4, 57020, Note_off_c, 2, 52, 0
4, 57020, Note_off_c, 2, 45, 0
4, 57792, Note_on_c, 2, 59, 70
4, 57792, Note_on_c, 2, 54, 70
4, 57792, Note_on_c, 2, 50, 70
4, 57884, Note_off_c, 2, 59, 0
4, 57884, Note_off_c, 2, 54, 0
4, 57884, Note_off_c, 2, 50, 0
4, 57984, Note_on_c, 2, 59, 70
4, 57984, Note_on_c, 2, 54, 70
4, 57984, Note_on_c, 2, 50, 70
4, 58076, Note_off_c, 2, 59, 0
4, 58076, Note_off_c, 2, 54, 0
4, 58076, Note_off_c, 2, 50, 0
4, 58176, Note_on_c, 2, 59, 70
4, 58176, Note_on_c, 2, 54, 70
4, 58176, Note_on_c, 2, 50, 70
4, 58268, Note_off_c, 2, 59, 0
4, 58268, Note_off_c, 2, 54, 0
4, 58268, Note_off_c, 2, 50, 0
4, 58944, Note_on_c, 2, 61, 70
4, 58944, Note_on_c, 2, 55, 70
4, 58944, Note_on_c, 2, 52, 70
4, 59036, Note_off_c, 2, 61, 0
4, 59036, Note_off_c, 2, 55, 0
4, 59036, Note_off_c, 2, 52, 0
4, 59136, Note_on_c, 2, 61, 70
4, 59136, Note_on_c, 2, 55, 70
4, 59136, Note_on_c, 2, 52, 70
4, 59228, Note_off_c, 2, 61, 0
4, 59228, Note_off_c, 2, 55, 0
4, 59228, Note_off_c, 2, 52, 0
4, 59328, Note_on_c, 2, 61, 70
4, 59328, Note_on_c, 2, 55, 70
4, 59328, Note_on_c, 2, 52, 70
4, 59420, Note_off_c, 2, 61, 0
4, 59420, Note_off_c, 2, 55, 0
4, 59420, Note_off_c, 2, 52, 0
4, 60096, Note_on_c, 2, 62, 71
4, 60096, Note_on_c, 2, 57, 71
4, 60096, Note_on_c, 2, 54, 71
4, 60188, Note_off_c, 2, 62, 0
4, 60188, Note_off_c, 2, 57, 0
4, 60188, Note_off_c, 2, 54, 0
4, 60288, Note_on_c, 2, 62, 72
4, 60288, Note_on_c, 2, 57, 72
4, 60288, Note_on_c, 2, 54, 72
4, 60380, Note_off_c, 2, 62, 0
4, 60380, Note_off_c, 2, 57, 0
4, 60380, Note_off_c, 2, 54, 0
4, 60480, Note_on_c, 2, 62, 73
4, 60480, Note_on_c, 2, 57, 73
4, 60480, Note_on_c, 2, 54, 73
4, 60572, Note_off_c, 2, 62, 0
4, 60572, Note_off_c, 2, 57, 0
4, 60572, Note_off_c, 2, 54, 0
4, 61248, Note_on_c, 2, 59, 76
4, 61248, Note_on_c, 2, 56, 76
4, 61248, Note_on_c, 2, 52, 76
4, 61340, Note_off_c, 2, 59, 0
4, 61340, Note_off_c, 2, 56, 0
4, 61340, Note_off_c, 2, 52, 0
4, 61440, Note_on_c, 2, 59, 77
4, 61440, Note_on_c, 2, 56, 77
4, 61440, Note_on_c, 2, 52, 77
4, 61532, Note_off_c, 2, 59, 0
4, 61532, Note_off_c, 2, 56, 0
4, 61532, Note_off_c, 2, 52, 0
4, 61632, Note_on_c, 2, 59, 78
4, 61632, Note_on_c, 2, 56, 78
4, 61632, Note_on_c, 2, 52, 78
4, 61724, Note_off_c, 2, 59, 0
4, 61724, Note_off_c, 2, 56, 0
4, 61724, Note_off_c, 2, 52, 0
4, 62208, Note_on_c, 2, 57, 80
4, 62208, Note_on_c, 2, 52, 80
4, 62208, Note_on_c, 2, 45, 80
4, 62396, Note_off_c, 2, 57, 0
4, 62396, Note_off_c, 2, 52, 0
4, 62396, Note_off_c, 2, 45, 0
4, 62784, Note_on_c, 2, 59, 80
4, 62784, Note_on_c, 2, 56, 80
4, 62784, Note_on_c, 2, 52, 80
4, 62972, Note_off_c, 2, 59, 0
4, 62972, Note_off_c, 2, 56, 0
4, 62972, Note_off_c, 2, 52, 0
4, 63360, Note_on_c, 2, 61, 80
4, 63360, Note_on_c, 2, 57, 80
4, 63548, Note_off_c, 2, 61, 0
4, 63548, Note_off_c, 2, 57, 0
4, 64128, Note_on_c, 2, 59, 80
4, 64128, Note_on_c, 2, 56, 80
4, 64128, Note_on_c, 2, 52, 80
4, 64316, Note_off_c, 2, 59, 0
4, 64316, Note_off_c, 2, 56, 0
4, 64316, Note_off_c, 2, 52, 0
4, 64320, Note_on_c, 2, 59, 80
4, 64320, Note_on_c, 2, 56, 80
4, 64320, Note_on_c, 2, 52, 80
4, 64508, Note_off_c, 2, 59, 0
4, 64508, Note_off_c, 2, 56, 0
4, 64508, Note_off_c, 2, 52, 0
4, 64512, Note_on_c, 2, 57, 70
4, 64512, Note_on_c, 2, 52, 70
4, 64512, Note_on_c, 2, 45, 70
4, 64700, Note_off_c, 2, 57, 0
4, 64700, Note_off_c, 2, 52, 0
4, 64700, Note_off_c, 2, 45, 0
4, 65088, Note_on_c, 2, 59, 70
4, 65088, Note_on_c, 2, 56, 70
4, 65088, Note_on_c, 2, 52, 70
4, 65180, Note_off_c, 2, 59, 0
4, 65180, Note_off_c, 2, 56, 0
4, 65180, Note_off_c, 2, 52, 0
4, 65664, Note_on_c, 2, 61, 70
4, 65664, Note_on_c, 2, 57, 70
4, 65756, Note_off_c, 2, 61, 0
4, 65756, Note_off_c, 2, 57, 0
4, 66432, Note_on_c, 2, 64, 73
4, 66432, Note_on_c, 2, 52, 73
4, 66620, Note_off_c, 2, 64, 0
4, 66620, Note_off_c, 2, 52, 0
4, 66624, Note_on_c, 2, 59, 76
4, 66624, Note_on_c, 2, 52, 76
4, 66812, Note_off_c, 2, 59, 0
4, 66812, Note_off_c, 2, 52, 0
4, 66816, Note_on_c, 2, 57, 80
4, 66816, Note_on_c, 2, 45, 80
4, 66908, Note_off_c, 2, 57, 0
4, 66908, Note_off_c, 2, 45, 0
4, 67392, Note_on_c, 2, 49, 80
4, 67484, Note_off_c, 2, 49, 0
4, 67968, Note_on_c, 2, 50, 80
4, 68060, Note_off_c, 2, 50, 0
4, 68544, Note_on_c, 2, 50, 80
4, 68636, Note_off_c, 2, 50, 0
4, 69312, Note_on_c, 2, 49, 80
4, 69500, Note_off_c, 2, 49, 0
4, 69504, Note_on_c, 2, 57, 80
4, 69504, Note_on_c, 2, 54, 80
4, 69692, Note_off_c, 2, 57, 0
4, 69692, Note_off_c, 2, 54, 0
4, 69696, Note_on_c, 2, 57, 80
4, 69696, Note_on_c, 2, 50, 80
4, 69884, Note_off_c, 2, 57, 0
4, 69884, Note_off_c, 2, 50, 0
4, 69888, Note_on_c, 2, 59, 80
4, 69888, Note_on_c, 2, 47, 80
4, 70076, Note_off_c, 2, 59, 0
4, 70076, Note_off_c, 2, 47, 0
4, 70080, Note_on_c, 2, 52, 80
4, 70268, Note_off_c, 2, 52, 0
4, 70272, Note_on_c, 2, 57, 80
4, 70272, Note_on_c, 2, 45, 80
4, 72572, Note_off_c, 2, 45, 0
4, 72572, Note_off_c, 2, 57, 0
4, 72576, Note_on_c, 2, 57, 70
4, 72576, Note_on_c, 2, 45, 70
4, 75068, Note_off_c, 2, 45, 0
4, 75068, Note_off_c, 2, 57, 0
4, 75456, Note_on_c, 2, 57, 70
4, 75644, Note_off_c, 2, 57, 0
4, 76032, Note_on_c, 2, 45, 70
4, 76412, Note_off_c, 2, 45, 0
4, 79872, Note_on_c, 2, 50, 70
4, 80252, Note_off_c, 2, 50, 0
4, 80448, Note_on_c, 2, 57, 70
4, 80636, Note_off_c, 2, 57, 0
4, 80640, Note_on_c, 2, 62, 70
4, 80732, Note_off_c, 2, 62, 0
4, 80832, Note_on_c, 2, 57, 70
4, 80924, Note_off_c, 2, 57, 0
4, 81024, Note_on_c, 2, 50, 70
4, 81116, Note_off_c, 2, 50, 0
4, 81408, Note_on_c, 2, 62, 70
4, 81408, Note_on_c, 2, 50, 70
4, 81500, Note_off_c, 2, 62, 0
4, 81500, Note_off_c, 2, 50, 0
4, 81792, Note_on_c, 2, 62, 70
4, 81792, Note_on_c, 2, 55, 70
4, 81884, Note_off_c, 2, 62, 0
4, 81884, Note_off_c, 2, 55, 0
4, 82176, Note_on_c, 2, 57, 70
4, 82268, Note_off_c, 2, 57, 0
4, 82368, Note_on_c, 2, 57, 70
4, 82460, Note_off_c, 2, 57, 0
4, 82560, Note_on_c, 2, 45, 70
4, 82652, Note_off_c, 2, 45, 0
4, 82752, Note_on_c, 2, 62, 90
4, 82752, Note_on_c, 2, 50, 90
4, 82940, Note_off_c, 2, 62, 0
4, 82940, Note_off_c, 2, 50, 0
4, 82944, Note_on_c, 2, 62, 90
4, 82944, Note_on_c, 2, 55, 90
4, 83132, Note_off_c, 2, 62, 0
4, 83132, Note_off_c, 2, 55, 0
4, 83136, Note_on_c, 2, 64, 90
4, 83136, Note_on_c, 2, 52, 90
4, 83324, Note_off_c, 2, 64, 0
4, 83324, Note_off_c, 2, 52, 0
4, 83328, Note_on_c, 2, 57, 90
4, 83516, Note_off_c, 2, 57, 0
4, 83520, Note_on_c, 2, 66, 90
4, 83520, Note_on_c, 2, 54, 90
4, 83708, Note_off_c, 2, 66, 0
4, 83708, Note_off_c, 2, 54, 0
4, 83712, Note_on_c, 2, 66, 90
4, 83712, Note_on_c, 2, 59, 90
4, 83900, Note_off_c, 2, 66, 0
4, 83900, Note_off_c, 2, 59, 0
4, 83904, Note_on_c, 2, 67, 90
4, 84092, Note_off_c, 2, 67, 0
4, 84096, Note_on_c, 2, 64, 90
4, 84096, Note_on_c, 2, 61, 90
4, 84284, Note_off_c, 2, 64, 0
4, 84284, Note_off_c, 2, 61, 0
4, 84672, Note_on_c, 2, 62, 70
4, 84860, Note_off_c, 2, 62, 0
4, 84864, Note_on_c, 2, 59, 70
4, 85244, Note_off_c, 2, 59, 0
4, 85440, Note_on_c, 2, 57, 70
4, 85628, Note_off_c, 2, 57, 0
4, 85632, Note_on_c, 2, 45, 70
4, 85820, Note_off_c, 2, 45, 0
4, 86208, Note_on_c, 2, 50, 70
4, 86300, Note_off_c, 2, 50, 0
4, 86400, Note_on_c, 2, 54, 70
4, 86492, Note_off_c, 2, 54, 0
4, 86592, Note_on_c, 2, 57, 70
4, 86684, Note_off_c, 2, 57, 0
4, 86784, Note_on_c, 2, 62, 70
4, 86876, Note_off_c, 2, 62, 0
4, 86976, Note_on_c, 2, 57, 70
4, 87068, Note_off_c, 2, 57, 0
4, 87168, Note_on_c, 2, 50, 70
4, 87260, Note_off_c, 2, 50, 0
4, 87552, Note_on_c, 2, 62, 70
4, 87552, Note_on_c, 2, 50, 70
4, 87644, Note_off_c, 2, 62, 0
4, 87644, Note_off_c, 2, 50, 0
4, 87936, Note_on_c, 2, 62, 70
4, 87936, Note_on_c, 2, 55, 70
4, 88028, Note_off_c, 2, 62, 0
4, 88028, Note_off_c, 2, 55, 0
4, 88320, Note_on_c, 2, 57, 70
4, 88412, Note_off_c, 2, 57, 0
4, 88512, Note_on_c, 2, 57, 70
4, 88604, Note_off_c, 2, 57, 0
4, 88704, Note_on_c, 2, 45, 70
4, 88796, Note_off_c, 2, 45, 0
4, 89088, Note_on_c, 2, 57, 70
4, 89232, Note_on_c, 2, 56, 70
4, 89276, Note_off_c, 2, 57, 0
4, 89372, Note_off_c, 2, 56, 0
4, 89424, Note_on_c, 2, 57, 70
4, 89468, Note_off_c, 2, 57, 0
4, 89472, Note_on_c, 2, 45, 70
4, 89564, Note_off_c, 2, 45, 0
4, 89856, Note_on_c, 2, 57, 70
4, 90044, Note_off_c, 2, 57, 0
4, 90048, Note_on_c, 2, 56, 70
4, 90092, Note_off_c, 2, 56, 0
4, 90096, Note_on_c, 2, 57, 70
4, 90140, Note_off_c, 2, 57, 0
4, 90144, Note_on_c, 2, 56, 70
4, 90188, Note_off_c, 2, 56, 0
4, 90192, Note_on_c, 2, 57, 70
4, 90236, Note_off_c, 2, 57, 0
4, 90240, Note_on_c, 2, 45, 70
4, 90332, Note_off_c, 2, 45, 0
4, 97536, Note_on_c, 2, 54, 80
4, 97536, Note_on_c, 2, 50, 80
4, 98108, Note_off_c, 2, 54, 0
4, 98160, Note_on_c, 2, 55, 70
4, 98688, Note_off_c, 2, 55, 0
4, 98736, Note_on_c, 2, 54, 70
4, 99264, Note_off_c, 2, 54, 0
4, 99312, Note_on_c, 2, 55, 70
4, 99840, Note_off_c, 2, 55, 0
4, 99840, Note_on_c, 2, 54, 70
4, 99932, Note_off_c, 2, 54, 0
4, 100028, Note_off_c, 2, 50, 0
4, 102720, Note_on_c, 2, 54, 70
4, 102812, Note_off_c, 2, 54, 0
4, 102912, Note_on_c, 2, 62, 70
4, 103004, Note_off_c, 2, 62, 0
4, 103104, Note_on_c, 2, 62, 70
4, 103196, Note_off_c, 2, 62, 0
4, 103296, Note_on_c, 2, 55, 70
4, 103388, Note_off_c, 2, 55, 0
4, 103488, Note_on_c, 2, 59, 70
4, 103580, Note_off_c, 2, 59, 0
4, 103680, Note_on_c, 2, 64, 70
4, 103772, Note_off_c, 2, 64, 0
4, 103872, Note_on_c, 2, 61, 70
4, 103872, Note_on_c, 2, 57, 70
4, 103964, Note_off_c, 2, 61, 0
4, 103964, Note_off_c, 2, 57, 0
4, 104064, Note_on_c, 2, 57, 70
4, 104064, Note_on_c, 2, 45, 70
4, 104156, Note_off_c, 2, 57, 0
4, 104156, Note_off_c, 2, 45, 0
4, 104256, Note_on_c, 2, 45, 70
4, 104256, Note_on_c, 2, 55, 70
4, 104348, Note_off_c, 2, 45, 0
4, 104348, Note_off_c, 2, 55, 0
4, 104448, Note_on_c, 2, 57, 70
4, 104448, Note_on_c, 2, 50, 70
4, 104636, Note_off_c, 2, 57, 0
4, 104636, Note_off_c, 2, 50, 0
4, 105216, Note_on_c, 2, 54, 70
4, 105216, Note_on_c, 2, 51, 70
4, 105308, Note_off_c, 2, 54, 0
4, 105308, Note_off_c, 2, 51, 0
4, 105408, Note_on_c, 2, 54, 70
4, 105408, Note_on_c, 2, 51, 70
4, 105500, Note_off_c, 2, 54, 0
4, 105500, Note_off_c, 2, 51, 0
4, 105792, Note_on_c, 2, 59, 70
4, 105792, Note_on_c, 2, 52, 70
4, 105884, Note_off_c, 2, 59, 0
4, 105884, Note_off_c, 2, 52, 0
4, 105984, Note_on_c, 2, 52, 70
4, 105984, Note_on_c, 2, 64, 70
4, 106076, Note_off_c, 2, 52, 0
4, 106076, Note_off_c, 2, 64, 0
4, 106368, Note_on_c, 2, 51, 70
4, 106368, Note_on_c, 2, 47, 70
4, 106460, Note_off_c, 2, 51, 0
4, 106460, Note_off_c, 2, 47, 0
4, 106560, Note_on_c, 2, 51, 70
4, 106560, Note_on_c, 2, 47, 70
4, 106652, Note_off_c, 2, 51, 0
4, 106652, Note_off_c, 2, 47, 0
4, 106944, Note_on_c, 2, 59, 70
4, 106944, Note_on_c, 2, 52, 70
4, 107036, Note_off_c, 2, 59, 0
4, 107036, Note_off_c, 2, 52, 0
4, 107136, Note_on_c, 2, 55, 70
4, 107136, Note_on_c, 2, 52, 70
4, 107228, Note_off_c, 2, 55, 0
4, 107228, Note_off_c, 2, 52, 0
4, 107520, Note_on_c, 2, 52, 70
4, 107520, Note_on_c, 2, 49, 70
4, 107612, Note_off_c, 2, 52, 0
4, 107612, Note_off_c, 2, 49, 0
4, 107712, Note_on_c, 2, 52, 70
4, 107712, Note_on_c, 2, 49, 70
4, 107804, Note_off_c, 2, 52, 0
4, 107804, Note_off_c, 2, 49, 0
4, 108096, Note_on_c, 2, 57, 70
4, 108096, Note_on_c, 2, 50, 70
4, 108188, Note_off_c, 2, 57, 0
4, 108188, Note_off_c, 2, 50, 0
4, 108288, Note_on_c, 2, 62, 70
4, 108288, Note_on_c, 2, 50, 70
4, 108380, Note_off_c, 2, 62, 0
4, 108380, Note_off_c, 2, 50, 0
4, 108672, Note_on_c, 2, 49, 70
4, 108672, Note_on_c, 2, 45, 70
4, 108764, Note_off_c, 2, 49, 0
4, 108764, Note_off_c, 2, 45, 0
4, 108864, Note_on_c, 2, 49, 70
4, 108864, Note_on_c, 2, 45, 70
4, 108956, Note_off_c, 2, 49, 0
4, 108956, Note_off_c, 2, 45, 0
4, 109248, Note_on_c, 2, 57, 70
4, 109248, Note_on_c, 2, 50, 70
4, 109340, Note_off_c, 2, 57, 0
4, 109340, Note_off_c, 2, 50, 0
4, 109440, Note_on_c, 2, 54, 70
4, 109440, Note_on_c, 2, 50, 70
4, 109532, Note_off_c, 2, 54, 0
4, 109532, Note_off_c, 2, 50, 0
4, 109824, Note_on_c, 2, 59, 70
4, 109824, Note_on_c, 2, 50, 70
4, 109916, Note_off_c, 2, 59, 0
4, 109916, Note_off_c, 2, 50, 0
4, 110016, Note_on_c, 2, 62, 70
4, 110016, Note_on_c, 2, 50, 70
4, 110108, Note_off_c, 2, 62, 0
4, 110108, Note_off_c, 2, 50, 0
4, 110208, Note_on_c, 2, 64, 70
4, 110396, Note_off_c, 2, 64, 0
4, 110400, Note_on_c, 2, 52, 70
4, 110588, Note_off_c, 2, 52, 0
4, 110592, Note_on_c, 2, 52, 70
4, 110780, Note_off_c, 2, 52, 0
4, 110784, Note_on_c, 2, 66, 70
4, 110972, Note_off_c, 2, 66, 0
4, 110976, Note_on_c, 2, 54, 70
4, 111164, Note_off_c, 2, 54, 0
4, 111168, Note_on_c, 2, 54, 70
4, 111356, Note_off_c, 2, 54, 0
4, 111360, Note_on_c, 2, 67, 70
4, 111548, Note_off_c, 2, 67, 0
4, 111552, Note_on_c, 2, 55, 70
4, 111740, Note_off_c, 2, 55, 0
4, 111744, Note_on_c, 2, 55, 70
4, 111932, Note_off_c, 2, 55, 0
4, 111936, Note_on_c, 2, 67, 70
4, 112124, Note_off_c, 2, 67, 0
4, 112128, Note_on_c, 2, 55, 68
4, 112316, Note_off_c, 2, 55, 0
4, 112320, Note_on_c, 2, 55, 66
4, 112508, Note_off_c, 2, 55, 0
4, 112512, Note_on_c, 2, 66, 64
4, 112700, Note_off_c, 2, 66, 0
4, 112704, Note_on_c, 2, 54, 62
4, 112892, Note_off_c, 2, 54, 0
4, 112896, Note_on_c, 2, 54, 60
4, 113084, Note_off_c, 2, 54, 0
4, 113088, Note_on_c, 2, 54, 90
4, 113132, Note_off_c, 2, 54, 0
4, 113184, Note_on_c, 2, 55, 90
4, 113228, Note_off_c, 2, 55, 0
4, 113280, Note_on_c, 2, 54, 90
4, 113324, Note_off_c, 2, 54, 0
4, 113376, Note_on_c, 2, 52, 90
4, 113420, Note_off_c, 2, 52, 0
4, 113472, Note_on_c, 2, 50, 90
4, 113516, Note_off_c, 2, 50, 0
4, 113568, Note_on_c, 2, 49, 90
4, 113612, Note_off_c, 2, 49, 0
4, 113664, Note_on_c, 2, 47, 70
4, 115392, Note_on_c, 2, 58, 70
4, 115964, Note_off_c, 2, 47, 0
4, 115964, Note_off_c, 2, 58, 0
4, 115968, Note_on_c, 2, 59, 70
4, 118268, Note_off_c, 2, 59, 0
4, 118272, Note_on_c, 2, 52, 80
4, 120572, Note_off_c, 2, 52, 0
4, 120576, Note_on_c, 2, 52, 80
4, 122876, Note_off_c, 2, 52, 0
4, 122880, Note_on_c, 2, 52, 80
4, 122880, Note_on_c, 2, 45, 80
4, 123260, Note_off_c, 2, 52, 0
4, 124608, Note_on_c, 2, 56, 80
4, 125180, Note_off_c, 2, 45, 0
4, 125180, Note_off_c, 2, 56, 0
4, 125184, Note_on_c, 2, 57, 80
4, 127484, Note_off_c, 2, 57, 0
4, 127488, Note_on_c, 2, 38, 60
4, 127676, Note_off_c, 2, 38, 0
4, 127680, Note_on_c, 2, 50, 60
4, 127868, Note_off_c, 2, 50, 0
4, 127872, Note_on_c, 2, 50, 60
4, 128060, Note_off_c, 2, 50, 0
4, 128160, Note_on_c, 2, 38, 60
4, 128256, Note_off_c, 2, 38, 0
4, 128256, Note_on_c, 2, 50, 60
4, 128444, Note_off_c, 2, 50, 0
4, 128448, Note_on_c, 2, 50, 60
4, 128636, Note_off_c, 2, 50, 0
4, 128640, Note_on_c, 2, 38, 60
4, 128828, Note_off_c, 2, 38, 0
4, 128832, Note_on_c, 2, 50, 60
4, 129020, Note_off_c, 2, 50, 0
4, 129024, Note_on_c, 2, 50, 60
4, 129212, Note_off_c, 2, 50, 0
4, 129216, Note_on_c, 2, 38, 60
4, 129404, Note_off_c, 2, 38, 0
4, 129408, Note_on_c, 2, 50, 60
4, 129596, Note_off_c, 2, 50, 0
4, 129600, Note_on_c, 2, 50, 60
4, 129788, Note_off_c, 2, 50, 0
4, 129792, Note_on_c, 2, 38, 70
4, 129980, Note_off_c, 2, 38, 0
4, 129984, Note_on_c, 2, 50, 70
4, 130172, Note_off_c, 2, 50, 0
4, 130176, Note_on_c, 2, 50, 70
4, 130364, Note_off_c, 2, 50, 0
4, 130464, Note_on_c, 2, 38, 70
4, 130560, Note_off_c, 2, 38, 0
4, 130560, Note_on_c, 2, 50, 70
4, 130748, Note_off_c, 2, 50, 0
4, 130752, Note_on_c, 2, 50, 70
4, 130940, Note_off_c, 2, 50, 0
4, 130944, Note_on_c, 2, 38, 65
4, 131132, Note_off_c, 2, 38, 0
4, 131136, Note_on_c, 2, 50, 65
4, 131324, Note_off_c, 2, 50, 0
4, 131328, Note_on_c, 2, 50, 67
4, 131516, Note_off_c, 2, 50, 0
4, 131520, Note_on_c, 2, 38, 67
4, 131708, Note_off_c, 2, 38, 0
4, 131712, Note_on_c, 2, 50, 68
4, 131900, Note_off_c, 2, 50, 0
4, 131904, Note_on_c, 2, 50, 68
4, 132092, Note_off_c, 2, 50, 0
4, 132096, Note_on_c, 2, 38, 69
4, 132284, Note_off_c, 2, 38, 0
4, 132288, Note_on_c, 2, 50, 69
4, 132476, Note_off_c, 2, 50, 0
4, 132480, Note_on_c, 2, 50, 70
4, 132668, Note_off_c, 2, 50, 0
4, 132672, Note_on_c, 2, 38, 70
4, 132860, Note_off_c, 2, 38, 0
4, 132864, Note_on_c, 2, 50, 70
4, 133052, Note_off_c, 2, 50, 0
4, 133056, Note_on_c, 2, 50, 70
4, 133244, Note_off_c, 2, 50, 0
4, 133248, Note_on_c, 2, 39, 70
4, 133436, Note_off_c, 2, 39, 0
4, 134400, Note_on_c, 2, 51, 70
4, 134588, Note_off_c, 2, 51, 0
4, 135552, Note_on_c, 2, 62, 75
4, 135552, Note_on_c, 2, 50, 75
4, 137856, Note_on_c, 2, 62, 66
4, 137856, Note_on_c, 2, 50, 66
4, 138044, Note_off_c, 2, 50, 0
4, 138044, Note_off_c, 2, 62, 0
4, 138044, Note_off_c, 2, 62, 0
4, 138044, Note_off_c, 2, 50, 0
4, 138432, Note_on_c, 2, 62, 64
4, 138432, Note_on_c, 2, 50, 64
4, 138620, Note_off_c, 2, 62, 0
4, 138620, Note_off_c, 2, 50, 0
4, 138816, Note_on_c, 2, 50, 63
4, 138816, Note_on_c, 2, 62, 63
4, 138944, Note_off_c, 2, 50, 0
4, 138944, Note_off_c, 2, 62, 0
4, 139008, Note_on_c, 2, 62, 62
4, 139008, Note_on_c, 2, 50, 62
4, 139392, Note_off_c, 2, 62, 0
4, 139392, Note_off_c, 2, 50, 0
4, 142848, Note_on_c, 2, 59, 70
4, 143036, Note_off_c, 2, 59, 0
4, 143232, Note_on_c, 2, 62, 70
4, 143232, Note_on_c, 2, 60, 70
4, 143232, Note_on_c, 2, 57, 70
4, 143420, Note_off_c, 2, 62, 0
4, 143420, Note_off_c, 2, 60, 0
4, 143420, Note_off_c, 2, 57, 0
4, 143616, Note_on_c, 2, 62, 70
4, 143616, Note_on_c, 2, 59, 70
4, 143616, Note_on_c, 2, 55, 70
4, 143996, Note_off_c, 2, 62, 0
4, 143996, Note_off_c, 2, 59, 0
4, 143996, Note_off_c, 2, 55, 0
4, 144384, Note_on_c, 2, 67, 70
4, 144384, Note_on_c, 2, 55, 70
4, 144764, Note_off_c, 2, 67, 0
4, 144764, Note_off_c, 2, 55, 0
4, 144768, Note_on_c, 2, 62, 70
4, 144768, Note_on_c, 2, 59, 70
4, 145148, Note_off_c, 2, 62, 0
4, 145148, Note_off_c, 2, 59, 0
4, 145152, Note_on_c, 2, 62, 70
4, 145916, Note_off_c, 2, 62, 0
4, 148992, Note_on_c, 2, 59, 70
4, 149372, Note_off_c, 2, 59, 0
4, 149376, Note_on_c, 2, 57, 70
4, 149756, Note_off_c, 2, 57, 0
4, 149760, Note_on_c, 2, 55, 70
4, 150140, Note_off_c, 2, 55, 0
4, 150144, Note_on_c, 2, 52, 70
4, 150524, Note_off_c, 2, 52, 0
4, 150528, Note_on_c, 2, 48, 70
4, 150908, Note_off_c, 2, 48, 0
4, 150912, Note_on_c, 2, 50, 70
4, 151292, Note_off_c, 2, 50, 0
4, 151296, Note_on_c, 2, 55, 70
4, 151676, Note_off_c, 2, 55, 0
4, 152064, Note_on_c, 2, 59, 90
4, 152444, Note_off_c, 2, 59, 0
4, 152448, Note_on_c, 2, 57, 90
4, 152828, Note_off_c, 2, 57, 0
4, 152832, Note_on_c, 2, 55, 90
4, 153212, Note_off_c, 2, 55, 0
4, 153216, Note_on_c, 2, 52, 90
4, 153596, Note_off_c, 2, 52, 0
4, 153600, Note_on_c, 2, 52, 90
4, 153600, Note_on_c, 2, 49, 90
4, 153980, Note_off_c, 2, 52, 0
4, 153980, Note_off_c, 2, 49, 0
4, 153984, Note_on_c, 2, 50, 90
4, 153984, Note_on_c, 2, 50, 90
4, 154172, Note_off_c, 2, 50, 0
4, 154176, Note_on_c, 2, 54, 90
4, 154364, Note_off_c, 2, 50, 0
4, 154364, Note_off_c, 2, 54, 0
4, 154368, Note_on_c, 2, 55, 90
4, 154368, Note_on_c, 2, 43, 90
4, 154748, Note_off_c, 2, 55, 0
4, 154748, Note_off_c, 2, 43, 0
4, 154752, Note_on_c, 2, 55, 70
4, 155132, Note_off_c, 2, 55, 0
4, 155136, Note_on_c, 2, 62, 70
4, 155516, Note_off_c, 2, 62, 0
4, 155520, Note_on_c, 2, 62, 70
4, 155900, Note_off_c, 2, 62, 0
4, 155904, Note_on_c, 2, 64, 70
4, 156092, Note_off_c, 2, 64, 0
4, 156096, Note_on_c, 2, 62, 70
4, 156284, Note_off_c, 2, 62, 0
4, 156288, Note_on_c, 2, 60, 70
4, 156476, Note_off_c, 2, 60, 0
4, 156480, Note_on_c, 2, 62, 70
4, 156668, Note_off_c, 2, 62, 0
4, 156672, Note_on_c, 2, 64, 70
4, 157052, Note_off_c, 2, 64, 0
4, 157056, Note_on_c, 2, 64, 70
4, 157436, Note_off_c, 2, 64, 0
4, 157440, Note_on_c, 2, 64, 70
4, 157820, Note_off_c, 2, 64, 0
4, 157824, Note_on_c, 2, 62, 70
4, 158204, Note_off_c, 2, 62, 0
4, 158208, Note_on_c, 2, 59, 70
4, 158588, Note_off_c, 2, 59, 0
4, 158592, Note_on_c, 2, 59, 70
4, 158972, Note_off_c, 2, 59, 0
4, 158976, Note_on_c, 2, 61, 70
4, 159164, Note_off_c, 2, 61, 0
4, 159168, Note_on_c, 2, 59, 70
4, 159356, Note_off_c, 2, 59, 0
4, 159360, Note_on_c, 2, 57, 71
4, 159548, Note_off_c, 2, 57, 0
4, 159552, Note_on_c, 2, 55, 72
4, 159740, Note_off_c, 2, 55, 0
4, 159744, Note_on_c, 2, 61, 72
4, 160124, Note_off_c, 2, 61, 0
4, 160128, Note_on_c, 2, 62, 74
4, 160508, Note_off_c, 2, 62, 0
4, 160512, Note_on_c, 2, 62, 75
4, 160892, Note_off_c, 2, 62, 0
4, 160896, Note_on_c, 2, 64, 76
4, 161276, Note_off_c, 2, 64, 0
4, 161280, Note_on_c, 2, 62, 78
4, 161660, Note_off_c, 2, 62, 0
4, 161664, Note_on_c, 2, 62, 79
4, 162044, Note_off_c, 2, 62, 0
4, 162048, Note_on_c, 2, 64, 80
4, 162236, Note_off_c, 2, 64, 0
4, 162240, Note_on_c, 2, 62, 81
4, 162428, Note_off_c, 2, 62, 0
4, 162432, Note_on_c, 2, 60, 82
4, 162620, Note_off_c, 2, 60, 0
4, 162624, Note_on_c, 2, 62, 82
4, 162800, Note_on_c, 2, 64, 83
4, 162812, Note_off_c, 2, 62, 0
4, 163180, Note_off_c, 2, 64, 0
4, 163200, Note_on_c, 2, 64, 84
4, 163580, Note_off_c, 2, 64, 0
4, 163584, Note_on_c, 2, 65, 86
4, 163772, Note_off_c, 2, 65, 0
4, 163776, Note_on_c, 2, 64, 86
4, 163964, Note_off_c, 2, 64, 0
4, 163968, Note_on_c, 2, 62, 87
4, 164156, Note_off_c, 2, 62, 0
4, 164160, Note_on_c, 2, 60, 88
4, 164348, Note_off_c, 2, 60, 0
4, 164352, Note_on_c, 2, 59, 88
4, 164732, Note_off_c, 2, 59, 0
4, 164736, Note_on_c, 2, 59, 89
4, 165116, Note_off_c, 2, 59, 0
4, 165120, Note_on_c, 2, 60, 90
4, 165692, Note_off_c, 2, 60, 0
4, 165696, Note_on_c, 2, 64, 90
4, 165884, Note_off_c, 2, 64, 0
4, 165888, Note_on_c, 2, 62, 90
4, 166268, Note_off_c, 2, 62, 0
4, 166272, Note_on_c, 2, 66, 90
4, 166652, Note_off_c, 2, 66, 0
4, 166656, Note_on_c, 2, 67, 90
4, 166844, Note_off_c, 2, 67, 0
4, 166848, Note_on_c, 2, 62, 90
4, 167036, Note_off_c, 2, 62, 0
4, 167040, Note_on_c, 2, 59, 90
4, 167420, Note_off_c, 2, 59, 0
4, 167424, Note_on_c, 2, 62, 90
4, 167804, Note_off_c, 2, 62, 0
4, 167808, Note_on_c, 2, 62, 90
4, 168188, Note_off_c, 2, 62, 0
4, 168192, Note_on_c, 2, 55, 90
4, 168192, Note_on_c, 2, 64, 90
4, 168380, Note_off_c, 2, 64, 0
4, 168384, Note_on_c, 2, 62, 90
4, 168572, Note_off_c, 2, 62, 0
4, 168576, Note_on_c, 2, 60, 90
4, 168764, Note_off_c, 2, 60, 0
4, 168768, Note_on_c, 2, 62, 90
4, 168956, Note_off_c, 2, 55, 0
4, 168956, Note_off_c, 2, 62, 0
4, 168960, Note_on_c, 2, 64, 90
4, 169340, Note_off_c, 2, 64, 0
4, 169344, Note_on_c, 2, 64, 90
4, 169724, Note_off_c, 2, 64, 0
4, 169728, Note_on_c, 2, 64, 90
4, 169728, Note_on_c, 2, 55, 90
4, 170108, Note_off_c, 2, 64, 0
4, 170112, Note_on_c, 2, 62, 90
4, 170492, Note_off_c, 2, 55, 0
4, 170492, Note_off_c, 2, 62, 0
4, 170496, Note_on_c, 2, 59, 90
4, 170876, Note_off_c, 2, 59, 0
4, 170880, Note_on_c, 2, 59, 90
4, 171260, Note_off_c, 2, 59, 0
4, 171264, Note_on_c, 2, 60, 90
4, 171264, Note_on_c, 2, 55, 90
4, 171452, Note_off_c, 2, 60, 0
4, 171456, Note_on_c, 2, 59, 90
4, 171644, Note_off_c, 2, 59, 0
4, 171648, Note_on_c, 2, 57, 90
4, 171836, Note_off_c, 2, 57, 0
4, 171840, Note_on_c, 2, 55, 90
4, 172028, Note_off_c, 2, 55, 0
4, 172028, Note_off_c, 2, 55, 0
4, 172032, Note_on_c, 2, 55, 90
4, 172032, Note_on_c, 2, 60, 90
4, 172412, Note_off_c, 2, 55, 0
4, 172412, Note_off_c, 2, 60, 0
4, 172416, Note_on_c, 2, 55, 90
4, 172416, Note_on_c, 2, 62, 90
4, 172796, Note_off_c, 2, 55, 0
4, 172796, Note_off_c, 2, 62, 0
4, 172800, Note_on_c, 2, 62, 90
4, 172800, Note_on_c, 2, 55, 90
4, 173180, Note_off_c, 2, 62, 0
4, 173184, Note_on_c, 2, 64, 90
4, 173564, Note_off_c, 2, 55, 0
4, 173564, Note_off_c, 2, 64, 0
4, 173568, Note_on_c, 2, 62, 70
4, 173948, Note_off_c, 2, 62, 0
4, 173952, Note_on_c, 2, 62, 70
4, 174332, Note_off_c, 2, 62, 0
4, 174336, Note_on_c, 2, 64, 70
4, 174524, Note_off_c, 2, 64, 0
4, 174528, Note_on_c, 2, 62, 71
4, 174716, Note_off_c, 2, 62, 0
4, 174720, Note_on_c, 2, 60, 72
4, 174908, Note_off_c, 2, 60, 0
4, 174912, Note_on_c, 2, 62, 73
4, 175100, Note_off_c, 2, 62, 0
4, 175104, Note_on_c, 2, 64, 74
4, 175484, Note_off_c, 2, 64, 0
4, 175488, Note_on_c, 2, 64, 76
4, 175868, Note_off_c, 2, 64, 0
4, 175872, Note_on_c, 2, 65, 78
4, 176060, Note_off_c, 2, 65, 0
4, 176064, Note_on_c, 2, 64, 79
4, 176252, Note_off_c, 2, 64, 0
4, 176256, Note_on_c, 2, 62, 80
4, 176444, Note_off_c, 2, 62, 0
4, 176448, Note_on_c, 2, 60, 81
4, 176636, Note_off_c, 2, 60, 0
4, 176640, Note_on_c, 2, 59, 82
4, 177020, Note_off_c, 2, 59, 0
4, 177024, Note_on_c, 2, 59, 84
4, 177404, Note_off_c, 2, 59, 0
4, 177408, Note_on_c, 2, 60, 86
4, 177596, Note_off_c, 2, 60, 0
4, 177600, Note_on_c, 2, 62, 87
4, 177788, Note_off_c, 2, 62, 0
4, 177792, Note_on_c, 2, 64, 90
4, 177980, Note_off_c, 2, 64, 0
4, 178176, Note_on_c, 2, 55, 90
4, 178176, Note_on_c, 2, 43, 90
4, 178556, Note_off_c, 2, 55, 0
4, 178556, Note_off_c, 2, 43, 0
4, 178560, Note_on_c, 2, 55, 90
4, 178560, Note_on_c, 2, 43, 90
4, 178940, Note_off_c, 2, 55, 0
4, 178940, Note_off_c, 2, 43, 0
4, 178944, Note_on_c, 2, 55, 90
4, 178944, Note_on_c, 2, 48, 90
4, 179324, Note_off_c, 2, 55, 0
4, 179324, Note_off_c, 2, 48, 0
4, 181056, Note_on_c, 2, 48, 70
4, 181244, Note_off_c, 2, 48, 0
4, 181248, Note_on_c, 2, 50, 70
4, 181628, Note_off_c, 2, 50, 0
4, 181632, Note_on_c, 2, 38, 70
4, 182012, Note_off_c, 2, 38, 0
4, 182016, Note_on_c, 2, 43, 70
4, 182780, Note_off_c, 2, 43, 0
4, 182784, Note_on_c, 2, 55, 90
4, 182784, Note_on_c, 2, 43, 90
4, 183164, Note_off_c, 2, 55, 0
4, 183164, Note_off_c, 2, 43, 0
4, 183168, Note_on_c, 2, 55, 90
4, 183168, Note_on_c, 2, 43, 90
4, 183548, Note_off_c, 2, 55, 0
4, 183548, Note_off_c, 2, 43, 0
4, 183552, Note_on_c, 2, 55, 90
4, 183552, Note_on_c, 2, 48, 90
4, 183932, Note_off_c, 2, 55, 0
4, 183932, Note_off_c, 2, 48, 0
4, 184128, Note_on_c, 2, 48, 90
4, 184316, Note_off_c, 2, 48, 0
4, 184320, Note_on_c, 2, 50, 90
4, 184700, Note_off_c, 2, 50, 0
4, 184704, Note_on_c, 2, 50, 90
4, 185084, Note_off_c, 2, 50, 0
4, 185088, Note_on_c, 2, 55, 90
4, 185468, Note_off_c, 2, 55, 0
4, 185472, Note_on_c, 2, 43, 70
4, 185852, Note_off_c, 2, 43, 0
4, 186240, Note_on_c, 2, 55, 70
4, 186620, Note_off_c, 2, 55, 0
4, 186624, Note_on_c, 2, 54, 70
4, 187004, Note_off_c, 2, 54, 0
4, 187008, Note_on_c, 2, 57, 70
4, 187388, Note_off_c, 2, 57, 0
4, 187392, Note_on_c, 2, 47, 70
4, 187772, Note_off_c, 2, 47, 0
4, 187776, Note_on_c, 2, 51, 70
4, 188156, Note_off_c, 2, 51, 0
4, 188160, Note_on_c, 2, 52, 70
4, 188924, Note_off_c, 2, 52, 0
4, 189312, Note_on_c, 2, 55, 70
4, 189692, Note_off_c, 2, 55, 0
4, 189696, Note_on_c, 2, 52, 70
4, 190076, Note_off_c, 2, 52, 0
4, 190080, Note_on_c, 2, 55, 70
4, 190460, Note_off_c, 2, 55, 0
4, 190464, Note_on_c, 2, 45, 70
4, 190844, Note_off_c, 2, 45, 0
4, 190848, Note_on_c, 2, 49, 70
4, 191228, Note_off_c, 2, 49, 0
4, 191232, Note_on_c, 2, 50, 70
4, 191612, Note_off_c, 2, 50, 0
4, 191616, Note_on_c, 2, 52, 72
4, 191996, Note_off_c, 2, 52, 0
4, 192000, Note_on_c, 2, 54, 75
4, 192380, Note_off_c, 2, 54, 0
4, 192960, Note_on_c, 2, 55, 80
4, 193148, Note_off_c, 2, 55, 0
4, 193152, Note_on_c, 2, 55, 80
4, 193340, Note_off_c, 2, 55, 0
4, 193344, Note_on_c, 2, 55, 80
4, 193532, Note_off_c, 2, 55, 0
4, 193536, Note_on_c, 2, 55, 80
4, 193916, Note_off_c, 2, 55, 0
4, 194496, Note_on_c, 2, 54, 80
4, 194684, Note_off_c, 2, 54, 0
4, 194688, Note_on_c, 2, 54, 80
4, 194876, Note_off_c, 2, 54, 0
4, 194880, Note_on_c, 2, 54, 80
4, 195068, Note_off_c, 2, 54, 0
4, 195072, Note_on_c, 2, 54, 80
4, 195452, Note_off_c, 2, 54, 0
4, 196032, Note_on_c, 2, 49, 80
4, 196220, Note_off_c, 2, 49, 0
4, 196224, Note_on_c, 2, 49, 80
4, 196412, Note_off_c, 2, 49, 0
4, 196416, Note_on_c, 2, 49, 80
4, 196604, Note_off_c, 2, 49, 0
4, 196608, Note_on_c, 2, 49, 80
4, 196988, Note_off_c, 2, 49, 0
4, 197568, Note_on_c, 2, 50, 80
4, 197756, Note_off_c, 2, 50, 0
4, 197760, Note_on_c, 2, 50, 80
4, 197948, Note_off_c, 2, 50, 0
4, 197952, Note_on_c, 2, 50, 80
4, 198140, Note_off_c, 2, 50, 0
4, 198144, Note_on_c, 2, 50, 80
4, 198524, Note_off_c, 2, 50, 0
4, 200448, Note_on_c, 2, 57, 80
4, 200828, Note_off_c, 2, 57, 0
4, 209664, Note_on_c, 2, 57, 70
4, 209664, Note_on_c, 2, 54, 70
4, 209852, Note_off_c, 2, 57, 0
4, 209852, Note_off_c, 2, 54, 0
4, 209856, Note_on_c, 2, 58, 70
4, 209856, Note_on_c, 2, 52, 70
4, 210044, Note_off_c, 2, 58, 0
4, 210044, Note_off_c, 2, 52, 0
4, 210048, Note_on_c, 2, 59, 70
4, 210048, Note_on_c, 2, 51, 70
4, 210428, Note_off_c, 2, 59, 0
4, 210428, Note_off_c, 2, 51, 0
4, 211200, Note_on_c, 2, 55, 70
4, 211200, Note_on_c, 2, 52, 70
4, 211388, Note_off_c, 2, 55, 0
4, 211388, Note_off_c, 2, 52, 0
4, 211392, Note_on_c, 2, 56, 70
4, 211392, Note_on_c, 2, 50, 70
4, 211580, Note_off_c, 2, 56, 0
4, 211580, Note_off_c, 2, 50, 0
4, 211584, Note_on_c, 2, 57, 70
4, 211584, Note_on_c, 2, 49, 70
4, 211964, Note_off_c, 2, 57, 0
4, 211964, Note_off_c, 2, 49, 0
4, 212736, Note_on_c, 2, 50, 70
4, 212736, Note_on_c, 2, 46, 70
4, 212736, Note_on_c, 2, 50, 90
4, 212736, Note_on_c, 2, 46, 90
4, 212924, Note_off_c, 2, 50, 64
4, 212924, Note_off_c, 2, 46, 64
4, 214268, Note_off_c, 2, 50, 0
4, 214268, Note_off_c, 2, 46, 0
4, 214272, Note_on_c, 2, 52, 70
4, 214272, Note_on_c, 2, 45, 70
4, 214652, Note_off_c, 2, 52, 0
4, 214652, Note_off_c, 2, 45, 0
4, 215808, Note_on_c, 2, 50, 70
4, 215808, Note_on_c, 2, 46, 70
4, 215808, Note_on_c, 2, 50, 90
4, 215808, Note_on_c, 2, 46, 90
4, 215996, Note_off_c, 2, 50, 64
4, 215996, Note_off_c, 2, 46, 64
4, 217340, Note_off_c, 2, 50, 0
4, 217340, Note_off_c, 2, 46, 0
4, 217344, Note_on_c, 2, 52, 80
4, 217344, Note_on_c, 2, 45, 80
4, 217724, Note_off_c, 2, 52, 0
4, 217724, Note_off_c, 2, 45, 0
4, 217728, Note_on_c, 2, 57, 80
4, 218108, Note_off_c, 2, 57, 0
4, 218112, Note_on_c, 2, 57, 80
4, 218112, Note_on_c, 2, 52, 80
4, 218492, Note_off_c, 2, 57, 0
4, 218492, Note_off_c, 2, 52, 0
4, 218496, Note_on_c, 2, 57, 80
4, 218496, Note_on_c, 2, 49, 80
4, 218876, Note_off_c, 2, 57, 0
4, 218876, Note_off_c, 2, 49, 0
4, 218880, Note_on_c, 2, 57, 80
4, 218880, Note_on_c, 2, 45, 80
4, 219260, Note_off_c, 2, 57, 0
4, 219260, Note_off_c, 2, 45, 0
4, 219648, Note_on_c, 2, 57, 70
4, 219648, Note_on_c, 2, 50, 70
4, 219740, Note_off_c, 2, 57, 0
4, 219740, Note_off_c, 2, 50, 0
4, 219840, Note_on_c, 2, 57, 70
4, 219840, Note_on_c, 2, 50, 70
4, 219932, Note_off_c, 2, 57, 0
4, 219932, Note_off_c, 2, 50, 0
4, 220032, Note_on_c, 2, 62, 70
4, 220032, Note_on_c, 2, 54, 70
4, 220124, Note_off_c, 2, 62, 0
4, 220124, Note_off_c, 2, 54, 0
4, 220224, Note_on_c, 2, 64, 70
4, 220224, Note_on_c, 2, 57, 70
4, 220316, Note_off_c, 2, 64, 0
4, 220316, Note_off_c, 2, 57, 0
4, 220416, Note_on_c, 2, 64, 70
4, 220416, Note_on_c, 2, 57, 70
4, 220796, Note_off_c, 2, 64, 0
4, 220796, Note_off_c, 2, 57, 0
4, 220800, Note_on_c, 2, 62, 70
4, 220800, Note_on_c, 2, 50, 70
4, 221180, Note_off_c, 2, 62, 0
4, 221180, Note_off_c, 2, 50, 0
4, 221184, Note_on_c, 2, 62, 70
4, 221184, Note_on_c, 2, 50, 70
4, 221276, Note_off_c, 2, 62, 0
4, 221276, Note_off_c, 2, 50, 0
4, 221568, Note_on_c, 2, 62, 70
4, 221568, Note_on_c, 2, 55, 70
4, 221660, Note_off_c, 2, 62, 0
4, 221660, Note_off_c, 2, 55, 0
4, 221952, Note_on_c, 2, 57, 70
4, 222044, Note_off_c, 2, 57, 0
4, 222144, Note_on_c, 2, 57, 70
4, 222236, Note_off_c, 2, 57, 0
4, 222336, Note_on_c, 2, 45, 70
4, 222428, Note_off_c, 2, 45, 0
4, 222720, Note_on_c, 2, 57, 70
4, 222896, Note_on_c, 2, 56, 70
4, 222908, Note_off_c, 2, 57, 0
4, 223036, Note_off_c, 2, 56, 0
4, 223056, Note_on_c, 2, 57, 70
4, 223100, Note_off_c, 2, 57, 0
4, 223104, Note_on_c, 2, 45, 70
4, 223196, Note_off_c, 2, 45, 0
4, 223488, Note_on_c, 2, 57, 60
4, 223676, Note_off_c, 2, 57, 0
4, 223680, Note_on_c, 2, 56, 60
4, 223724, Note_off_c, 2, 56, 0
4, 223728, Note_on_c, 2, 57, 60
4, 223772, Note_off_c, 2, 57, 0
4, 223776, Note_on_c, 2, 56, 60
4, 223820, Note_off_c, 2, 56, 0
4, 223824, Note_on_c, 2, 57, 60
4, 223868, Note_off_c, 2, 57, 0
4, 223872, Note_on_c, 2, 45, 60
4, 223964, Note_off_c, 2, 45, 0
4, 224832, Note_on_c, 2, 57, 90
4, 224924, Note_off_c, 2, 57, 0
4, 225024, Note_on_c, 2, 57, 90
4, 225116, Note_off_c, 2, 57, 0
4, 225216, Note_on_c, 2, 57, 90
4, 225308, Note_off_c, 2, 57, 0
4, 225408, Note_on_c, 2, 56, 90
4, 225788, Note_off_c, 2, 56, 0
4, 225792, Note_on_c, 2, 57, 90
4, 225980, Note_off_c, 2, 57, 0
4, 225984, Note_on_c, 2, 55, 90
4, 226076, Note_off_c, 2, 55, 0
4, 226176, Note_on_c, 2, 52, 90
4, 226268, Note_off_c, 2, 52, 0
4, 226368, Note_on_c, 2, 49, 90
4, 226460, Note_off_c, 2, 49, 0
4, 226560, Note_on_c, 2, 52, 90
4, 226940, Note_off_c, 2, 52, 0
4, 226944, Note_on_c, 2, 50, 90
4, 227132, Note_off_c, 2, 50, 0
4, 227136, Note_on_c, 2, 62, 70
4, 227136, Note_on_c, 2, 50, 70
4, 227708, Note_off_c, 2, 62, 0
4, 227708, Note_off_c, 2, 50, 0
4, 227712, Note_on_c, 2, 64, 70
4, 227712, Note_on_c, 2, 62, 70
4, 227712, Note_on_c, 2, 55, 70
4, 228284, Note_off_c, 2, 64, 0
4, 228284, Note_off_c, 2, 62, 0
4, 228284, Note_off_c, 2, 55, 0
4, 228288, Note_on_c, 2, 64, 70
4, 228288, Note_on_c, 2, 57, 70
4, 228860, Note_off_c, 2, 64, 0
4, 228860, Note_off_c, 2, 57, 0
4, 228864, Note_on_c, 2, 62, 70
4, 228864, Note_on_c, 2, 50, 70
4, 229436, Note_off_c, 2, 62, 0
4, 229436, Note_off_c, 2, 50, 0
4, 229440, Note_on_c, 2, 57, 90
4, 229532, Note_off_c, 2, 57, 0
4, 229632, Note_on_c, 2, 57, 90
4, 229724, Note_off_c, 2, 57, 0
4, 229824, Note_on_c, 2, 57, 90
4, 229916, Note_off_c, 2, 57, 0
4, 230016, Note_on_c, 2, 56, 90
4, 230396, Note_off_c, 2, 56, 0
4, 230400, Note_on_c, 2, 57, 90
4, 230588, Note_off_c, 2, 57, 0
4, 230592, Note_on_c, 2, 55, 90
4, 230684, Note_off_c, 2, 55, 0
4, 230784, Note_on_c, 2, 52, 90
4, 230876, Note_off_c, 2, 52, 0
4, 230976, Note_on_c, 2, 49, 90
4, 231068, Note_off_c, 2, 49, 0
4, 231168, Note_on_c, 2, 52, 90
4, 231548, Note_off_c, 2, 52, 0
4, 231552, Note_on_c, 2, 50, 90
4, 231740, Note_off_c, 2, 50, 0
4, 231744, Note_on_c, 2, 62, 70
4, 231744, Note_on_c, 2, 50, 70
4, 232316, Note_off_c, 2, 62, 0
4, 232316, Note_off_c, 2, 50, 0
4, 232320, Note_on_c, 2, 55, 70
4, 232320, Note_on_c, 2, 62, 70
4, 232320, Note_on_c, 2, 64, 70
4, 232892, Note_off_c, 2, 55, 0
4, 232892, Note_off_c, 2, 62, 0
4, 232892, Note_off_c, 2, 64, 0
4, 232896, Note_on_c, 2, 57, 70
4, 232896, Note_on_c, 2, 64, 70
4, 233468, Note_off_c, 2, 57, 0
4, 233468, Note_off_c, 2, 64, 0
4, 233472, Note_on_c, 2, 50, 70
4, 233472, Note_on_c, 2, 62, 70
4, 234044, Note_off_c, 2, 50, 0
4, 234044, Note_off_c, 2, 62, 0
4, 234816, Note_on_c, 2, 64, 70
4, 234816, Note_on_c, 2, 59, 70
4, 234816, Note_on_c, 2, 55, 70
4, 234908, Note_off_c, 2, 64, 0
4, 234908, Note_off_c, 2, 59, 0
4, 234908, Note_off_c, 2, 55, 0
4, 235008, Note_on_c, 2, 64, 70
4, 235008, Note_on_c, 2, 59, 70
4, 235008, Note_on_c, 2, 55, 70
4, 235100, Note_off_c, 2, 64, 0
4, 235100, Note_off_c, 2, 59, 0
4, 235100, Note_off_c, 2, 55, 0
4, 235200, Note_on_c, 2, 64, 70
4, 235200, Note_on_c, 2, 59, 70
4, 235200, Note_on_c, 2, 55, 70
4, 235292, Note_off_c, 2, 64, 0
4, 235292, Note_off_c, 2, 59, 0
4, 235292, Note_off_c, 2, 55, 0
4, 235968, Note_on_c, 2, 66, 70
4, 235968, Note_on_c, 2, 60, 70
4, 235968, Note_on_c, 2, 57, 70
4, 236060, Note_off_c, 2, 66, 0
4, 236060, Note_off_c, 2, 60, 0
4, 236060, Note_off_c, 2, 57, 0
4, 236160, Note_on_c, 2, 66, 70
4, 236160, Note_on_c, 2, 60, 70
4, 236160, Note_on_c, 2, 57, 70
4, 236252, Note_off_c, 2, 66, 0
4, 236252, Note_off_c, 2, 60, 0
4, 236252, Note_off_c, 2, 57, 0
4, 236352, Note_on_c, 2, 66, 70
4, 236352, Note_on_c, 2, 60, 70
4, 236352, Note_on_c, 2, 57, 70
4, 236444, Note_off_c, 2, 66, 0
4, 236444, Note_off_c, 2, 60, 0
4, 236444, Note_off_c, 2, 57, 0
4, 237120, Note_on_c, 2, 67, 70
4, 237120, Note_on_c, 2, 62, 70
4, 237120, Note_on_c, 2, 59, 70
4, 237212, Note_off_c, 2, 67, 0
4, 237212, Note_off_c, 2, 62, 0
4, 237212, Note_off_c, 2, 59, 0
4, 237312, Note_on_c, 2, 67, 71
4, 237312, Note_on_c, 2, 62, 71
4, 237312, Note_on_c, 2, 59, 71
4, 237404, Note_off_c, 2, 67, 0
4, 237404, Note_off_c, 2, 62, 0
4, 237404, Note_off_c, 2, 59, 0
4, 237504, Note_on_c, 2, 67, 72
4, 237504, Note_on_c, 2, 62, 72
4, 237504, Note_on_c, 2, 59, 72
4, 237596, Note_off_c, 2, 67, 0
4, 237596, Note_off_c, 2, 62, 0
4, 237596, Note_off_c, 2, 59, 0
4, 238272, Note_on_c, 2, 64, 76
4, 238272, Note_on_c, 2, 61, 76
4, 238272, Note_on_c, 2, 57, 76
4, 238364, Note_off_c, 2, 64, 0
4, 238364, Note_off_c, 2, 61, 0
4, 238364, Note_off_c, 2, 57, 0
4, 238464, Note_on_c, 2, 64, 77
4, 238464, Note_on_c, 2, 61, 77
4, 238464, Note_on_c, 2, 57, 77
4, 238556, Note_off_c, 2, 64, 0
4, 238556, Note_off_c, 2, 61, 0
4, 238556, Note_off_c, 2, 57, 0
4, 238656, Note_on_c, 2, 64, 78
4, 238656, Note_on_c, 2, 61, 78
4, 238656, Note_on_c, 2, 57, 78
4, 238748, Note_off_c, 2, 64, 0
4, 238748, Note_off_c, 2, 61, 0
4, 238748, Note_off_c, 2, 57, 0
4, 239232, Note_on_c, 2, 62, 80
4, 239232, Note_on_c, 2, 57, 80
4, 239232, Note_on_c, 2, 50, 80
4, 239420, Note_off_c, 2, 62, 0
4, 239420, Note_off_c, 2, 57, 0
4, 239420, Note_off_c, 2, 50, 0
4, 239808, Note_on_c, 2, 64, 80
4, 239808, Note_on_c, 2, 61, 80
4, 239808, Note_on_c, 2, 57, 80
4, 239996, Note_off_c, 2, 64, 0
4, 239996, Note_off_c, 2, 61, 0
4, 239996, Note_off_c, 2, 57, 0
4, 240384, Note_on_c, 2, 66, 80
4, 240384, Note_on_c, 2, 62, 80
4, 240572, Note_off_c, 2, 66, 0
4, 240572, Note_off_c, 2, 62, 0
4, 241152, Note_on_c, 2, 64, 80
4, 241152, Note_on_c, 2, 61, 80
4, 241152, Note_on_c, 2, 57, 80
4, 241244, Note_off_c, 2, 64, 0
4, 241244, Note_off_c, 2, 61, 0
4, 241244, Note_off_c, 2, 57, 0
4, 241344, Note_on_c, 2, 64, 80
4, 241344, Note_on_c, 2, 61, 80
4, 241344, Note_on_c, 2, 57, 80
4, 241436, Note_off_c, 2, 64, 0
4, 241436, Note_off_c, 2, 61, 0
4, 241436, Note_off_c, 2, 57, 0
4, 241536, Note_on_c, 2, 62, 80
4, 241536, Note_on_c, 2, 57, 80
4, 241536, Note_on_c, 2, 50, 80
4, 241724, Note_off_c, 2, 62, 0
4, 241724, Note_off_c, 2, 57, 0
4, 241724, Note_off_c, 2, 50, 0
4, 242112, Note_on_c, 2, 64, 80
4, 242112, Note_on_c, 2, 61, 80
4, 242112, Note_on_c, 2, 57, 80
4, 242300, Note_off_c, 2, 64, 0
4, 242300, Note_off_c, 2, 61, 0
4, 242300, Note_off_c, 2, 57, 0
4, 242688, Note_on_c, 2, 66, 80
4, 242688, Note_on_c, 2, 62, 80
4, 242876, Note_off_c, 2, 66, 0
4, 242876, Note_off_c, 2, 62, 0
4, 243456, Note_on_c, 2, 64, 80
4, 243456, Note_on_c, 2, 61, 80
4, 243456, Note_on_c, 2, 57, 80
4, 243548, Note_off_c, 2, 64, 0
4, 243548, Note_off_c, 2, 61, 0
4, 243548, Note_off_c, 2, 57, 0
4, 243648, Note_on_c, 2, 64, 80
4, 243648, Note_on_c, 2, 61, 80
4, 243648, Note_on_c, 2, 57, 80
4, 243740, Note_off_c, 2, 64, 0
4, 243740, Note_off_c, 2, 61, 0
4, 243740, Note_off_c, 2, 57, 0
4, 243840, Note_on_c, 2, 62, 80
4, 243840, Note_on_c, 2, 57, 80
4, 243840, Note_on_c, 2, 50, 80
4, 244028, Note_off_c, 2, 62, 0
4, 244028, Note_off_c, 2, 57, 0
4, 244028, Note_off_c, 2, 50, 0
4, 244416, Note_on_c, 2, 54, 80
4, 244604, Note_off_c, 2, 54, 0
4, 244992, Note_on_c, 2, 55, 80
4, 245180, Note_off_c, 2, 55, 0
4, 245568, Note_on_c, 2, 55, 80
4, 245756, Note_off_c, 2, 55, 0
4, 246336, Note_on_c, 2, 54, 80
4, 246524, Note_off_c, 2, 54, 0
4, 246528, Note_on_c, 2, 59, 80
4, 246528, Note_on_c, 2, 62, 80
4, 246716, Note_off_c, 2, 59, 0
4, 246716, Note_off_c, 2, 62, 0
4, 246720, Note_on_c, 2, 62, 80
4, 246720, Note_on_c, 2, 55, 80
4, 246908, Note_off_c, 2, 62, 0
4, 246908, Note_off_c, 2, 55, 0
4, 246912, Note_on_c, 2, 52, 80
4, 246912, Note_on_c, 2, 64, 80
4, 247100, Note_off_c, 2, 52, 0
4, 247100, Note_off_c, 2, 64, 0
4, 247104, Note_on_c, 2, 57, 80
4, 247292, Note_off_c, 2, 57, 0
4, 247296, Note_on_c, 2, 50, 80
4, 247388, Note_off_c, 2, 50, 0
4, 247872, Note_on_c, 2, 54, 80
4, 248060, Note_off_c, 2, 54, 0
4, 248448, Note_on_c, 2, 55, 80
4, 248636, Note_off_c, 2, 55, 0
4, 249024, Note_on_c, 2, 57, 80
4, 249024, Note_on_c, 2, 49, 80
4, 249212, Note_off_c, 2, 57, 0
4, 249212, Note_off_c, 2, 49, 0
4, 249600, Note_on_c, 2, 57, 80
4, 249600, Note_on_c, 2, 50, 80
4, 249980, Note_off_c, 2, 57, 0
4, 249984, Note_on_c, 2, 57, 81
4, 250172, Note_off_c, 2, 50, 0
4, 250172, Note_off_c, 2, 57, 0
4, 250176, Note_on_c, 2, 55, 82
4, 250176, Note_on_c, 2, 52, 82
4, 250556, Note_off_c, 2, 55, 0
4, 250560, Note_on_c, 2, 56, 84
4, 250748, Note_off_c, 2, 52, 0
4, 250748, Note_off_c, 2, 56, 0
4, 250752, Note_on_c, 2, 57, 85
4, 250752, Note_on_c, 2, 54, 85
4, 251132, Note_off_c, 2, 57, 0
4, 251136, Note_on_c, 2, 58, 87
4, 251312, Note_on_c, 2, 59, 88
4, 251324, Note_off_c, 2, 54, 0
4, 251324, Note_off_c, 2, 58, 0
4, 251328, Note_on_c, 2, 55, 88
4, 251692, Note_off_c, 2, 59, 0
4, 251712, Note_on_c, 2, 61, 90
4, 251900, Note_off_c, 2, 55, 0
4, 251900, Note_off_c, 2, 61, 0
4, 251904, Note_on_c, 2, 62, 90
4, 251904, Note_on_c, 2, 54, 90
4, 252092, Note_off_c, 2, 62, 0
4, 252284, Note_off_c, 2, 54, 0
4, 252288, Note_on_c, 2, 49, 90
4, 252476, Note_off_c, 2, 49, 0
4, 252480, Note_on_c, 2, 48, 90
4, 252668, Note_off_c, 2, 48, 0
4, 252672, Note_on_c, 2, 47, 90
4, 252860, Note_off_c, 2, 47, 0
4, 252864, Note_on_c, 2, 46, 90
4, 253052, Note_off_c, 2, 46, 0
4, 253056, Note_on_c, 2, 45, 90
4, 253820, Note_off_c, 2, 45, 0
4, 291642, Control_c, 2, 0, 0
4, 291648, Note_on_c, 2, 54, 55
4, 291648, Note_on_c, 2, 50, 55
4, 291740, Note_off_c, 2, 54, 0
4, 291740, Note_off_c, 2, 50, 0
4, 291840, Note_on_c, 2, 57, 55
4, 291840, Note_on_c, 2, 54, 55
4, 291840, Note_on_c, 2, 50, 55
4, 291932, Note_off_c, 2, 57, 0
4, 291932, Note_off_c, 2, 54, 0
4, 291932, Note_off_c, 2, 50, 0
4, 292032, Note_on_c, 2, 57, 55
4, 292032, Note_on_c, 2, 54, 55
4, 292032, Note_on_c, 2, 62, 55
4, 292124, Note_off_c, 2, 57, 0
4, 292124, Note_off_c, 2, 54, 0
4, 292124, Note_off_c, 2, 62, 0
4, 292224, Note_on_c, 2, 61, 55
4, 292224, Note_on_c, 2, 57, 55
4, 292316, Note_off_c, 2, 61, 0
4, 292316, Note_off_c, 2, 57, 0
4, 292416, Note_on_c, 2, 57, 55
4, 292416, Note_on_c, 2, 52, 55
4, 292416, Note_on_c, 2, 45, 55
4, 292508, Note_off_c, 2, 57, 0
4, 292508, Note_off_c, 2, 52, 0
4, 292508, Note_off_c, 2, 45, 0
4, 292608, Note_on_c, 2, 55, 55
4, 292608, Note_on_c, 2, 52, 55
4, 292608, Note_on_c, 2, 45, 55
4, 292700, Note_off_c, 2, 55, 0
4, 292700, Note_off_c, 2, 52, 0
4, 292700, Note_off_c, 2, 45, 0
4, 292800, Note_on_c, 2, 54, 55
4, 292800, Note_on_c, 2, 50, 55
4, 292892, Note_off_c, 2, 54, 0
4, 292892, Note_off_c, 2, 50, 0
4, 293184, Note_on_c, 2, 57, 55
4, 293184, Note_on_c, 2, 54, 55
4, 293184, Note_on_c, 2, 50, 55
4, 293276, Note_off_c, 2, 57, 0
4, 293276, Note_off_c, 2, 54, 0
4, 293276, Note_off_c, 2, 50, 0
4, 293568, Note_on_c, 2, 55, 55
4, 293568, Note_on_c, 2, 50, 55
4, 293568, Note_on_c, 2, 47, 55
4, 293568, Note_on_c, 2, 43, 55
4, 293660, Note_off_c, 2, 55, 0
4, 293660, Note_off_c, 2, 50, 0
4, 293660, Note_off_c, 2, 47, 0
4, 293660, Note_off_c, 2, 43, 0
4, 293952, Note_on_c, 2, 52, 55
4, 293952, Note_on_c, 2, 49, 55
4, 293952, Note_on_c, 2, 45, 55
4, 294044, Note_off_c, 2, 52, 0
4, 294044, Note_off_c, 2, 49, 0
4, 294044, Note_off_c, 2, 45, 0
4, 294144, Note_on_c, 2, 57, 55
4, 294236, Note_off_c, 2, 57, 0
4, 294336, Note_on_c, 2, 45, 55
4, 294428, Note_off_c, 2, 45, 0
4, 294720, Note_on_c, 2, 57, 55
4, 294764, Note_off_c, 2, 57, 0
4, 294816, Note_on_c, 2, 57, 55
4, 294908, Note_off_c, 2, 57, 0
4, 294912, Note_on_c, 2, 56, 55
4, 295004, Note_off_c, 2, 56, 0
4, 295008, Note_on_c, 2, 57, 55
4, 295100, Note_off_c, 2, 57, 0
4, 295104, Note_on_c, 2, 45, 55
4, 295196, Note_off_c, 2, 45, 0
4, 295584, Note_on_c, 2, 57, 55
4, 295676, Note_off_c, 2, 57, 0
4, 295680, Note_on_c, 2, 56, 55
4, 295724, Note_off_c, 2, 56, 0
4, 295728, Note_on_c, 2, 57, 55
4, 295772, Note_off_c, 2, 57, 0
4, 295776, Note_on_c, 2, 56, 55
4, 295820, Note_off_c, 2, 56, 0
4, 295824, Note_on_c, 2, 57, 55
4, 295868, Note_off_c, 2, 57, 0
4, 295872, Note_on_c, 2, 45, 55
4, 295972, Note_off_c, 2, 45, 0
4, 299136, Note_on_c, 2, 54, 65
4, 299236, Note_off_c, 2, 54, 0
4, 299328, Note_on_c, 2, 62, 65
4, 299428, Note_off_c, 2, 62, 0
4, 299520, Note_on_c, 2, 62, 65
4, 299620, Note_off_c, 2, 62, 0
4, 299712, Note_on_c, 2, 55, 65
4, 299812, Note_off_c, 2, 55, 0
4, 299904, Note_on_c, 2, 59, 65
4, 300004, Note_off_c, 2, 59, 0
4, 300096, Note_on_c, 2, 64, 65
4, 300196, Note_off_c, 2, 64, 0
4, 300288, Note_on_c, 2, 61, 65
4, 300288, Note_on_c, 2, 57, 65
4, 300388, Note_off_c, 2, 61, 0
4, 300388, Note_off_c, 2, 57, 0
4, 300480, Note_on_c, 2, 57, 65
4, 300480, Note_on_c, 2, 45, 65
4, 300580, Note_off_c, 2, 57, 0
4, 300580, Note_off_c, 2, 45, 0
4, 300672, Note_on_c, 2, 45, 65
4, 300672, Note_on_c, 2, 55, 65
4, 300772, Note_off_c, 2, 45, 0
4, 300772, Note_off_c, 2, 55, 0
4, 300864, Note_on_c, 2, 57, 65
4, 300864, Note_on_c, 2, 50, 65
4, 301248, Note_off_c, 2, 57, 0
4, 301248, Note_off_c, 2, 50, 0
4, 303744, Note_on_c, 2, 54, 65
4, 303844, Note_off_c, 2, 54, 0
4, 303936, Note_on_c, 2, 62, 65
4, 304036, Note_off_c, 2, 62, 0
4, 304128, Note_on_c, 2, 62, 65
4, 304228, Note_off_c, 2, 62, 0
4, 304320, Note_on_c, 2, 55, 65
4, 304420, Note_off_c, 2, 55, 0
4, 304512, Note_on_c, 2, 59, 65
4, 304612, Note_off_c, 2, 59, 0
4, 304704, Note_on_c, 2, 64, 65
4, 304804, Note_off_c, 2, 64, 0
4, 304896, Note_on_c, 2, 64, 65
4, 304996, Note_off_c, 2, 64, 0
4, 305088, Note_on_c, 2, 57, 65
4, 305088, Note_on_c, 2, 45, 65
4, 305188, Note_off_c, 2, 57, 0
4, 305188, Note_off_c, 2, 45, 0
4, 305280, Note_on_c, 2, 55, 65
4, 305280, Note_on_c, 2, 45, 65
4, 305380, Note_off_c, 2, 55, 0
4, 305380, Note_off_c, 2, 45, 0
4, 305472, Note_on_c, 2, 54, 65
4, 305472, Note_on_c, 2, 50, 65
4, 305856, Note_off_c, 2, 54, 0
4, 305856, Note_off_c, 2, 50, 0
4, 310080, Note_on_c, 2, 45, 85
4, 310272, Note_on_c, 2, 57, 85
4, 310460, Note_off_c, 2, 57, 0
4, 310464, Note_on_c, 2, 57, 85
4, 310652, Note_off_c, 2, 57, 0
4, 310656, Note_on_c, 2, 57, 85
4, 310844, Note_off_c, 2, 57, 0
4, 310848, Note_on_c, 2, 57, 85
4, 311036, Note_off_c, 2, 57, 0
4, 311040, Note_on_c, 2, 57, 85
4, 311228, Note_off_c, 2, 57, 0
4, 311232, Note_off_c, 2, 45, 0
4, 311232, Note_on_c, 2, 45, 85
4, 311424, Note_on_c, 2, 57, 85
4, 311612, Note_off_c, 2, 57, 0
4, 311616, Note_on_c, 2, 57, 85
4, 311804, Note_off_c, 2, 57, 0
4, 311808, Note_on_c, 2, 57, 85
4, 311996, Note_off_c, 2, 57, 0
4, 312000, Note_on_c, 2, 57, 85
4, 312188, Note_off_c, 2, 57, 0
4, 312192, Note_on_c, 2, 57, 85
4, 312380, Note_off_c, 2, 57, 0
4, 312384, Note_off_c, 2, 45, 0
4, 312384, Note_on_c, 2, 45, 85
4, 312576, Note_on_c, 2, 57, 85
4, 312764, Note_off_c, 2, 57, 0
4, 312768, Note_on_c, 2, 57, 85
4, 312956, Note_off_c, 2, 57, 0
4, 312960, Note_on_c, 2, 57, 85
4, 313148, Note_off_c, 2, 57, 0
4, 313152, Note_on_c, 2, 57, 85
4, 313340, Note_off_c, 2, 57, 0
4, 313344, Note_on_c, 2, 57, 85
4, 313532, Note_off_c, 2, 57, 0
4, 313536, Note_off_c, 2, 45, 0
4, 313536, Note_on_c, 2, 45, 86
4, 313728, Note_on_c, 2, 57, 87
4, 313916, Note_off_c, 2, 57, 0
4, 313920, Note_on_c, 2, 57, 89
4, 314108, Note_off_c, 2, 57, 0
4, 314112, Note_on_c, 2, 57, 91
4, 314300, Note_off_c, 2, 57, 0
4, 314304, Note_on_c, 2, 57, 92
4, 314492, Note_off_c, 2, 57, 0
4, 314496, Note_on_c, 2, 57, 94
4, 314684, Note_off_c, 2, 57, 0
4, 314688, Note_off_c, 2, 45, 0
4, 314688, Note_on_c, 2, 50, 95
4, 314880, Note_on_c, 2, 62, 90
4, 315068, Note_off_c, 2, 62, 0
4, 315072, Note_on_c, 2, 60, 90
4, 315260, Note_off_c, 2, 60, 0
4, 315264, Note_on_c, 2, 59, 90
4, 315452, Note_off_c, 2, 59, 0
4, 315456, Note_on_c, 2, 62, 90
4, 315644, Note_off_c, 2, 62, 0
4, 315648, Note_on_c, 2, 61, 90
4, 315836, Note_off_c, 2, 61, 0
4, 315840, Note_off_c, 2, 50, 0
4, 315840, Note_on_c, 2, 50, 90
4, 315840, Note_on_c, 2, 62, 90
4, 316028, Note_off_c, 2, 62, 0
4, 316032, Note_on_c, 2, 57, 90
4, 316220, Note_off_c, 2, 57, 0
4, 316224, Note_on_c, 2, 60, 90
4, 316412, Note_off_c, 2, 60, 0
4, 316416, Note_on_c, 2, 59, 90
4, 316604, Note_off_c, 2, 59, 0
4, 316608, Note_on_c, 2, 62, 90
4, 316796, Note_off_c, 2, 62, 0
4, 316800, Note_on_c, 2, 61, 90
4, 316988, Note_off_c, 2, 61, 0
4, 316992, Note_off_c, 2, 50, 0
4, 316992, Note_on_c, 2, 50, 90
4, 316992, Note_on_c, 2, 62, 90
4, 317180, Note_off_c, 2, 62, 0
4, 317184, Note_on_c, 2, 57, 90
4, 317372, Note_off_c, 2, 57, 0
4, 317376, Note_on_c, 2, 60, 90
4, 317564, Note_off_c, 2, 60, 0
4, 317568, Note_on_c, 2, 59, 90
4, 317756, Note_off_c, 2, 59, 0
4, 317760, Note_on_c, 2, 62, 89
4, 317948, Note_off_c, 2, 62, 0
4, 317952, Note_on_c, 2, 61, 87
4, 318140, Note_off_c, 2, 61, 0
4, 318144, Note_off_c, 2, 50, 0
4, 318144, Note_on_c, 2, 50, 85
4, 318144, Note_on_c, 2, 62, 85
4, 318332, Note_off_c, 2, 62, 0
4, 318336, Note_on_c, 2, 57, 84
4, 318524, Note_off_c, 2, 57, 0
4, 318528, Note_on_c, 2, 60, 82
4, 318716, Note_off_c, 2, 60, 0
4, 318720, Note_on_c, 2, 59, 80
4, 318908, Note_off_c, 2, 59, 0
4, 318912, Note_on_c, 2, 62, 79
4, 319100, Note_off_c, 2, 62, 0
4, 319104, Note_on_c, 2, 61, 77
4, 319292, Note_off_c, 2, 61, 0
4, 319296, Note_off_c, 2, 50, 0
4, 319296, Note_on_c, 2, 50, 75
4, 319296, Note_on_c, 2, 62, 75
4, 319484, Note_off_c, 2, 62, 0
4, 319488, Note_on_c, 2, 57, 74
4, 319676, Note_off_c, 2, 57, 0
4, 319680, Note_on_c, 2, 60, 72
4, 319868, Note_off_c, 2, 60, 0
4, 319872, Note_on_c, 2, 59, 70
4, 320060, Note_off_c, 2, 59, 0
4, 320064, Note_on_c, 2, 62, 69
4, 320252, Note_off_c, 2, 62, 0
4, 320256, Note_on_c, 2, 61, 67
4, 320444, Note_off_c, 2, 61, 0
4, 320448, Note_off_c, 2, 50, 0
4, 320448, Note_on_c, 2, 50, 65
4, 320448, Note_on_c, 2, 62, 65
4, 320636, Note_off_c, 2, 62, 0
4, 320640, Note_on_c, 2, 57, 64
4, 320828, Note_off_c, 2, 57, 0
4, 320832, Note_on_c, 2, 60, 62
4, 321020, Note_off_c, 2, 60, 0
4, 321024, Note_on_c, 2, 59, 60
4, 321212, Note_off_c, 2, 59, 0
4, 321216, Note_on_c, 2, 62, 59
4, 321404, Note_off_c, 2, 62, 0
4, 321408, Note_on_c, 2, 61, 57
4, 321596, Note_off_c, 2, 61, 0
4, 321600, Note_off_c, 2, 50, 0
4, 321600, Note_on_c, 2, 62, 56
4, 321600, Note_on_c, 2, 50, 56
4, 321788, Note_off_c, 2, 62, 0
4, 321788, Note_off_c, 2, 50, 0
4, 322176, Note_on_c, 2, 50, 55
4, 322276, Note_off_c, 2, 50, 0
4, 322752, Note_on_c, 2, 57, 55
4, 322752, Note_on_c, 2, 50, 55
4, 322852, Note_off_c, 2, 57, 0
4, 322852, Note_off_c, 2, 50, 0
4, 322852, End_track
5, 0, Start_track
5, 0, Title_t, "Midi by"
5, 0, Key_signature, 2, "major"
5, 0, End_track
6, 0, Start_track
6, 0, Title_t, "B Fisher"
6, 0, Key_signature, 2, "major"
6, 0, End_track
7, 0, Start_track
7, 0, Key_signature, 2, "major"
7, 0, End_track
8, 0, Start_track
8, 0, Key_signature, 2, "major"
8, 0, End_track
9, 0, Start_track
9, 0, Key_signature, 2, "major"
9, 0, End_track
10, 0, Start_track
10, 0, Key_signature, 2, "major"
10, 0, End_track
11, 0, Start_track
11, 0, Key_signature, 2, "major"
11, 0, End_track
12, 0, Start_track
12, 0, Key_signature, 2, "major"
12, 0, End_track
13, 0, Start_track
13, 0, Key_signature, 2, "major"
13, 0, End_track
14, 0, Start_track
14, 0, Key_signature, 2, "major"
14, 0, End_track
15, 0, Start_track
15, 0, Key_signature, 2, "major"
15, 0, End_track
16, 0, Start_track
16, 0, Key_signature, 2, "major"
16, 0, End_track
17, 0, Start_track
17, 0, Key_signature, 2, "major"
17, 0, End_track
0, 0, End_of_file
