0, 0, Header, 1, 17, 384
1, 0, Start_track
1, 0, Time_signature, 4, 2, 96, 8
1, 0, Sequencer_specific, 3, 0, 0, 65
1, 0, Sequencer_specific, 5, 0, 0, 119, 14, 0
1, 0, Tempo, 517241
1, 155136, Tempo, 545454
1, 158208, Tempo, 517241
1, 229248, Tempo, 600000
1, 230400, Tempo, 666666
1, 232704, Tempo, 545454
1, 235776, Tempo, 750000
1, 236544, Tempo, 526315
1, 238080, Tempo, 517241
1, 357888, Tempo, 555555
1, 359424, Tempo, 600000
1, 360960, Tempo, 1250000
1, 361344, Tempo, 535714
1, 374016, Tempo, 566037
1, 376320, Tempo, 600000
1, 394752, Tempo, 545454
1, 403968, Tempo, 526315
1, 413184, Tempo, 652173
1, 416256, Tempo, 600000
1, 425088, Tempo, 1250000
1, 425472, Tempo, 625000
1, 432576, Tempo, 1428571
1, 433152, Tempo, 545454
1, 441216, Tempo, 600000
1, 442368, Time_signature, 5, 2, 96, 8
1, 442368, Tempo, 789473
1, 443136, Tempo, 526315
1, 443904, Tempo, 1428571
1, 444288, Time_signature, 4, 2, 96, 8
1, 444288, Tempo, 517241
1, 458112, Tempo, 638297
1, 458112, End_track
2, 0, Start_track
2, 0, Title_t, "Mozart - Violin"
2, 0, Control_c, 0, 0, 0
2, 0, Program_c, 0, 40
2, 0, Control_c, 0, 10, 63
2, 0, Control_c, 0, 91, 63
2, 0, Control_c, 0, 93, 48
2, 0, Key_signature, 1, "major"
2, 0, Control_c, 0, 121, 0
2, 384, Control_c, 0, 10, 63
2, 480, Control_c, 0, 91, 73
2, 576, Control_c, 0, 93, 35
2, 624, Program_c, 0, 40
2, 672, Control_c, 0, 1, 55
2, 56832, Control_c, 0, 1, 55
2, 58368, Note_on_c, 0, 79, 82
2, 58368, Note_on_c, 0, 71, 82
2, 58368, Note_on_c, 0, 62, 82
2, 58728, Note_off_c, 0, 79, 64
2, 58728, Note_off_c, 0, 71, 64
2, 58728, Note_off_c, 0, 62, 64
2, 58752, Note_on_c, 0, 79, 68
2, 59308, Note_off_c, 0, 79, 64
2, 59328, Note_on_c, 0, 78, 68
2, 59424, Note_off_c, 0, 78, 64
2, 59424, Note_on_c, 0, 79, 68
2, 59512, Note_off_c, 0, 79, 64
2, 59520, Note_on_c, 0, 78, 68
2, 59616, Note_off_c, 0, 78, 64
2, 59616, Note_on_c, 0, 79, 68
2, 59708, Note_off_c, 0, 79, 64
2, 59712, Note_on_c, 0, 78, 68
2, 59804, Note_off_c, 0, 78, 64
2, 59808, Note_on_c, 0, 79, 68
2, 59896, Note_off_c, 0, 79, 64
2, 59904, Note_on_c, 0, 76, 77
2, 59996, Note_off_c, 0, 76, 64
2, 60000, Note_on_c, 0, 74, 68
2, 60288, Note_off_c, 0, 74, 64
2, 60288, Note_on_c, 0, 74, 68
2, 60844, Note_off_c, 0, 74, 64
2, 60864, Note_on_c, 0, 73, 68
2, 60960, Note_off_c, 0, 73, 64
2, 60960, Note_on_c, 0, 74, 68
2, 61048, Note_off_c, 0, 74, 64
2, 61056, Note_on_c, 0, 73, 68
2, 61152, Note_off_c, 0, 73, 64
2, 61152, Note_on_c, 0, 74, 68
2, 61244, Note_off_c, 0, 74, 64
2, 61248, Note_on_c, 0, 73, 68
2, 61340, Note_off_c, 0, 73, 64
2, 61344, Note_on_c, 0, 74, 68
2, 61432, Note_off_c, 0, 74, 64
2, 61440, Note_on_c, 0, 72, 68
2, 61632, Note_off_c, 0, 72, 64
2, 61632, Note_on_c, 0, 71, 68
2, 61816, Note_off_c, 0, 71, 64
2, 61824, Note_on_c, 0, 71, 68
2, 62204, Note_off_c, 0, 71, 64
2, 62400, Note_on_c, 0, 72, 68
2, 62444, Note_off_c, 0, 72, 64
2, 62448, Note_on_c, 0, 74, 68
2, 62492, Note_off_c, 0, 74, 64
2, 62496, Note_on_c, 0, 71, 68
2, 62540, Note_off_c, 0, 71, 64
2, 62544, Note_on_c, 0, 72, 68
2, 62588, Note_off_c, 0, 72, 64
2, 62592, Note_on_c, 0, 74, 68
2, 62692, Note_off_c, 0, 74, 64
2, 62784, Note_on_c, 0, 76, 68
2, 62884, Note_off_c, 0, 76, 64
2, 62976, Note_on_c, 0, 67, 68
2, 63168, Note_off_c, 0, 67, 64
2, 63168, Note_on_c, 0, 66, 68
2, 63352, Note_off_c, 0, 66, 64
2, 63360, Note_on_c, 0, 66, 68
2, 63548, Note_off_c, 0, 66, 64
2, 64512, Note_on_c, 0, 81, 77
2, 64512, Note_on_c, 0, 69, 77
2, 64512, Note_on_c, 0, 62, 77
2, 64872, Note_off_c, 0, 69, 64
2, 64872, Note_off_c, 0, 62, 64
2, 65256, Note_off_c, 0, 81, 64
2, 65280, Note_on_c, 0, 81, 63
2, 65376, Note_off_c, 0, 81, 64
2, 65376, Note_on_c, 0, 79, 63
2, 65468, Note_off_c, 0, 79, 64
2, 65472, Note_on_c, 0, 78, 63
2, 65564, Note_off_c, 0, 78, 64
2, 65568, Note_on_c, 0, 79, 63
2, 65656, Note_off_c, 0, 79, 64
2, 65664, Note_on_c, 0, 81, 63
2, 65760, Note_off_c, 0, 81, 64
2, 65760, Note_on_c, 0, 83, 63
2, 65852, Note_off_c, 0, 83, 64
2, 65856, Note_on_c, 0, 81, 63
2, 65948, Note_off_c, 0, 81, 64
2, 65952, Note_on_c, 0, 83, 63
2, 66040, Note_off_c, 0, 83, 64
2, 66048, Note_on_c, 0, 84, 63
2, 66336, Note_off_c, 0, 84, 64
2, 66336, Note_on_c, 0, 81, 63
2, 66424, Note_off_c, 0, 81, 64
2, 66432, Note_on_c, 0, 84, 63
2, 67104, Note_off_c, 0, 84, 64
2, 67104, Note_on_c, 0, 81, 63
2, 67192, Note_off_c, 0, 81, 64
2, 67200, Note_on_c, 0, 84, 63
2, 67772, Note_off_c, 0, 84, 64
2, 67776, Note_on_c, 0, 83, 63
2, 67876, Note_off_c, 0, 83, 64
2, 67968, Note_on_c, 0, 81, 63
2, 68068, Note_off_c, 0, 81, 64
2, 68160, Note_on_c, 0, 83, 63
2, 68260, Note_off_c, 0, 83, 64
2, 68352, Note_on_c, 0, 81, 63
2, 68452, Note_off_c, 0, 81, 64
2, 68544, Note_on_c, 0, 79, 63
2, 68644, Note_off_c, 0, 79, 64
2, 68736, Note_on_c, 0, 78, 63
2, 68836, Note_off_c, 0, 78, 64
2, 68928, Note_on_c, 0, 76, 63
2, 69028, Note_off_c, 0, 76, 64
2, 69120, Note_on_c, 0, 74, 63
2, 69696, Note_off_c, 0, 74, 64
2, 69696, Note_on_c, 0, 76, 63
2, 69880, Note_off_c, 0, 76, 64
2, 69888, Note_on_c, 0, 72, 63
2, 70464, Note_off_c, 0, 72, 64
2, 70464, Note_on_c, 0, 74, 63
2, 70648, Note_off_c, 0, 74, 64
2, 70656, Note_on_c, 0, 71, 63
2, 71232, Note_off_c, 0, 71, 64
2, 71232, Note_on_c, 0, 72, 63
2, 71416, Note_off_c, 0, 72, 64
2, 71424, Note_on_c, 0, 69, 63
2, 72000, Note_off_c, 0, 69, 64
2, 72000, Note_on_c, 0, 76, 63
2, 72184, Note_off_c, 0, 76, 64
2, 72192, Note_on_c, 0, 76, 68
2, 72284, Note_off_c, 0, 76, 64
2, 72288, Note_on_c, 0, 67, 77
2, 73344, Note_on_c, 0, 71, 68
2, 73436, Note_off_c, 0, 67, 64
2, 73436, Note_off_c, 0, 71, 64
2, 73440, Note_on_c, 0, 69, 68
2, 73720, Note_off_c, 0, 69, 64
2, 73728, Note_on_c, 0, 67, 73
2, 74108, Note_off_c, 0, 67, 64
2, 78324, Control_c, 0, 1, 55
2, 78336, Note_on_c, 0, 79, 73
2, 79100, Note_off_c, 0, 79, 64
2, 79104, Note_on_c, 0, 83, 68
2, 79484, Note_off_c, 0, 83, 64
2, 79488, Note_on_c, 0, 86, 68
2, 79868, Note_off_c, 0, 86, 64
2, 79872, Note_on_c, 0, 86, 68
2, 80636, Note_off_c, 0, 86, 64
2, 80640, Note_on_c, 0, 85, 68
2, 80732, Note_off_c, 0, 85, 64
2, 80736, Note_on_c, 0, 86, 68
2, 80828, Note_off_c, 0, 86, 64
2, 80832, Note_on_c, 0, 85, 68
2, 80924, Note_off_c, 0, 85, 64
2, 80928, Note_on_c, 0, 86, 68
2, 81020, Note_off_c, 0, 86, 64
2, 81024, Note_on_c, 0, 88, 73
2, 81068, Note_off_c, 0, 88, 64
2, 81072, Note_on_c, 0, 86, 68
2, 81212, Note_off_c, 0, 86, 64
2, 81216, Note_on_c, 0, 84, 68
2, 81308, Note_off_c, 0, 84, 64
2, 81312, Note_on_c, 0, 83, 68
2, 81404, Note_off_c, 0, 83, 64
2, 81408, Note_on_c, 0, 80, 68
2, 81792, Note_off_c, 0, 80, 64
2, 81792, Note_on_c, 0, 81, 68
2, 82168, Note_off_c, 0, 81, 64
2, 82176, Note_on_c, 0, 73, 68
2, 82268, Note_off_c, 0, 73, 64
2, 82272, Note_on_c, 0, 74, 68
2, 82364, Note_off_c, 0, 74, 64
2, 82368, Note_on_c, 0, 73, 68
2, 82460, Note_off_c, 0, 73, 64
2, 82464, Note_on_c, 0, 74, 68
2, 82556, Note_off_c, 0, 74, 64
2, 82560, Note_on_c, 0, 76, 73
2, 82604, Note_off_c, 0, 76, 64
2, 82608, Note_on_c, 0, 74, 68
2, 82748, Note_off_c, 0, 74, 64
2, 82752, Note_on_c, 0, 72, 68
2, 82844, Note_off_c, 0, 72, 64
2, 82848, Note_on_c, 0, 71, 68
2, 82940, Note_off_c, 0, 71, 64
2, 82944, Note_on_c, 0, 68, 68
2, 83328, Note_off_c, 0, 68, 64
2, 83328, Note_on_c, 0, 69, 68
2, 83704, Note_off_c, 0, 69, 64
2, 83904, Note_on_c, 0, 74, 68
2, 84004, Note_off_c, 0, 74, 64
2, 84096, Note_on_c, 0, 78, 68
2, 84288, Note_off_c, 0, 78, 64
2, 84288, Note_on_c, 0, 83, 68
2, 84472, Note_off_c, 0, 83, 64
2, 84480, Note_on_c, 0, 81, 68
2, 84672, Note_off_c, 0, 81, 64
2, 84672, Note_on_c, 0, 79, 68
2, 84856, Note_off_c, 0, 79, 64
2, 84864, Note_on_c, 0, 79, 68
2, 85436, Note_off_c, 0, 79, 64
2, 85440, Note_on_c, 0, 81, 68
2, 85488, Note_off_c, 0, 81, 64
2, 85536, Note_on_c, 0, 83, 68
2, 85584, Note_off_c, 0, 83, 64
2, 85632, Note_on_c, 0, 81, 68
2, 85728, Note_off_c, 0, 81, 64
2, 85728, Note_on_c, 0, 79, 68
2, 85816, Note_off_c, 0, 79, 64
2, 85824, Note_on_c, 0, 78, 68
2, 85872, Note_off_c, 0, 78, 64
2, 85920, Note_on_c, 0, 76, 68
2, 85968, Note_off_c, 0, 76, 64
2, 86016, Note_on_c, 0, 74, 68
2, 86208, Note_off_c, 0, 74, 64
2, 86208, Note_on_c, 0, 73, 68
2, 86392, Note_off_c, 0, 73, 64
2, 86784, Note_on_c, 0, 73, 68
2, 86976, Note_off_c, 0, 73, 64
2, 86976, Note_on_c, 0, 74, 68
2, 87160, Note_off_c, 0, 74, 64
2, 87552, Note_on_c, 0, 75, 68
2, 87744, Note_off_c, 0, 75, 64
2, 87744, Note_on_c, 0, 76, 68
2, 87928, Note_off_c, 0, 76, 64
2, 88320, Note_on_c, 0, 76, 68
2, 88416, Note_off_c, 0, 76, 64
2, 88416, Note_on_c, 0, 79, 68
2, 88508, Note_off_c, 0, 79, 64
2, 88512, Note_on_c, 0, 78, 68
2, 88604, Note_off_c, 0, 78, 64
2, 88608, Note_on_c, 0, 81, 68
2, 88700, Note_off_c, 0, 81, 64
2, 88704, Note_on_c, 0, 79, 68
2, 88888, Note_off_c, 0, 79, 64
2, 88896, Note_on_c, 0, 67, 68
2, 89084, Note_off_c, 0, 67, 64
2, 89088, Note_on_c, 0, 66, 68
2, 89276, Note_off_c, 0, 66, 64
2, 89280, Note_on_c, 0, 81, 68
2, 89468, Note_off_c, 0, 81, 64
2, 89472, Note_on_c, 0, 79, 68
2, 89660, Note_off_c, 0, 79, 64
2, 89664, Note_on_c, 0, 78, 68
2, 89852, Note_off_c, 0, 78, 64
2, 89856, Note_on_c, 0, 76, 68
2, 90044, Note_off_c, 0, 76, 64
2, 90048, Note_on_c, 0, 74, 68
2, 90236, Note_off_c, 0, 74, 64
2, 90240, Note_on_c, 0, 73, 68
2, 90428, Note_off_c, 0, 73, 64
2, 90432, Note_on_c, 0, 72, 68
2, 90612, Control_c, 0, 1, 55
2, 90620, Note_off_c, 0, 72, 64
2, 90624, Note_on_c, 0, 71, 68
2, 91580, Note_off_c, 0, 71, 64
2, 91584, Note_on_c, 0, 73, 68
2, 91676, Note_off_c, 0, 73, 64
2, 91680, Note_on_c, 0, 75, 68
2, 91772, Note_off_c, 0, 75, 64
2, 91776, Note_on_c, 0, 76, 68
2, 91868, Note_off_c, 0, 76, 64
2, 91872, Note_on_c, 0, 78, 68
2, 91964, Note_off_c, 0, 78, 64
2, 91968, Note_on_c, 0, 79, 68
2, 92060, Note_off_c, 0, 79, 64
2, 92064, Note_on_c, 0, 81, 68
2, 92156, Note_off_c, 0, 81, 64
2, 92160, Note_on_c, 0, 83, 78
2, 92256, Note_off_c, 0, 83, 64
2, 92256, Note_on_c, 0, 85, 78
2, 92348, Note_off_c, 0, 85, 64
2, 92352, Note_on_c, 0, 86, 78
2, 92444, Note_off_c, 0, 86, 64
2, 92448, Note_on_c, 0, 85, 78
2, 92540, Note_off_c, 0, 85, 64
2, 92544, Note_on_c, 0, 83, 78
2, 92636, Note_off_c, 0, 83, 64
2, 92640, Note_on_c, 0, 81, 78
2, 92732, Note_off_c, 0, 81, 64
2, 92736, Note_on_c, 0, 79, 78
2, 92828, Note_off_c, 0, 79, 64
2, 92832, Note_on_c, 0, 78, 78
2, 92920, Note_off_c, 0, 78, 64
2, 92928, Note_on_c, 0, 76, 63
2, 93024, Note_off_c, 0, 76, 64
2, 93024, Note_on_c, 0, 75, 63
2, 93116, Note_off_c, 0, 75, 64
2, 93120, Note_on_c, 0, 76, 63
2, 93212, Note_off_c, 0, 76, 64
2, 93216, Note_on_c, 0, 78, 63
2, 93308, Note_off_c, 0, 78, 64
2, 93312, Note_on_c, 0, 79, 63
2, 93404, Note_off_c, 0, 79, 64
2, 93408, Note_on_c, 0, 81, 63
2, 93500, Note_off_c, 0, 81, 64
2, 93504, Note_on_c, 0, 83, 63
2, 93596, Note_off_c, 0, 83, 64
2, 93600, Note_on_c, 0, 82, 63
2, 93688, Note_off_c, 0, 82, 64
2, 93696, Note_on_c, 0, 83, 78
2, 93792, Note_off_c, 0, 83, 64
2, 93792, Note_on_c, 0, 85, 78
2, 93884, Note_off_c, 0, 85, 64
2, 93888, Note_on_c, 0, 86, 78
2, 93980, Note_off_c, 0, 86, 64
2, 93984, Note_on_c, 0, 85, 78
2, 94076, Note_off_c, 0, 85, 64
2, 94080, Note_on_c, 0, 83, 78
2, 94172, Note_off_c, 0, 83, 64
2, 94176, Note_on_c, 0, 81, 78
2, 94268, Note_off_c, 0, 81, 64
2, 94272, Note_on_c, 0, 79, 78
2, 94364, Note_off_c, 0, 79, 64
2, 94368, Note_on_c, 0, 78, 78
2, 94456, Note_off_c, 0, 78, 64
2, 94464, Note_on_c, 0, 76, 63
2, 94560, Note_off_c, 0, 76, 64
2, 94560, Note_on_c, 0, 75, 63
2, 94652, Note_off_c, 0, 75, 64
2, 94656, Note_on_c, 0, 76, 63
2, 94748, Note_off_c, 0, 76, 64
2, 94752, Note_on_c, 0, 78, 63
2, 94844, Note_off_c, 0, 78, 64
2, 94848, Note_on_c, 0, 79, 63
2, 94940, Note_off_c, 0, 79, 64
2, 94944, Note_on_c, 0, 81, 63
2, 95036, Note_off_c, 0, 81, 64
2, 95040, Note_on_c, 0, 83, 63
2, 95132, Note_off_c, 0, 83, 64
2, 95136, Note_on_c, 0, 82, 63
2, 95224, Note_off_c, 0, 82, 64
2, 95232, Note_on_c, 0, 85, 73
2, 95324, Note_off_c, 0, 85, 64
2, 95328, Note_on_c, 0, 83, 63
2, 95608, Note_off_c, 0, 83, 64
2, 95616, Note_on_c, 0, 81, 73
2, 95708, Note_off_c, 0, 81, 64
2, 95712, Note_on_c, 0, 79, 63
2, 95992, Note_off_c, 0, 79, 64
2, 96000, Note_on_c, 0, 78, 73
2, 96092, Note_off_c, 0, 78, 64
2, 96096, Note_on_c, 0, 76, 63
2, 96568, Note_off_c, 0, 76, 64
2, 96576, Note_on_c, 0, 74, 63
2, 96764, Note_off_c, 0, 74, 64
2, 96768, Note_on_c, 0, 73, 63
2, 97148, Note_off_c, 0, 73, 64
2, 98292, Control_c, 0, 1, 55
2, 98880, Note_on_c, 0, 81, 63
2, 98928, Note_off_c, 0, 81, 64
2, 98976, Note_on_c, 0, 81, 63
2, 99024, Note_off_c, 0, 81, 64
2, 99072, Note_on_c, 0, 81, 63
2, 99172, Note_off_c, 0, 81, 64
2, 99264, Note_on_c, 0, 80, 63
2, 99364, Note_off_c, 0, 80, 64
2, 99456, Note_on_c, 0, 81, 63
2, 99556, Note_off_c, 0, 81, 64
2, 99648, Note_on_c, 0, 80, 63
2, 99748, Note_off_c, 0, 80, 64
2, 99840, Note_on_c, 0, 81, 63
2, 100220, Note_off_c, 0, 81, 64
2, 100416, Note_on_c, 0, 86, 63
2, 100608, Note_off_c, 0, 86, 64
2, 100608, Note_on_c, 0, 85, 63
2, 100796, Note_off_c, 0, 85, 64
2, 100800, Note_on_c, 0, 86, 63
2, 100984, Note_off_c, 0, 86, 64
2, 100992, Note_on_c, 0, 78, 63
2, 101184, Note_off_c, 0, 78, 64
2, 101184, Note_on_c, 0, 83, 63
2, 101368, Note_off_c, 0, 83, 64
2, 101376, Note_on_c, 0, 81, 63
2, 101568, Note_off_c, 0, 81, 64
2, 101568, Note_on_c, 0, 79, 63
2, 101752, Note_off_c, 0, 79, 64
2, 101952, Note_on_c, 0, 79, 63
2, 102000, Note_off_c, 0, 79, 64
2, 102048, Note_on_c, 0, 79, 63
2, 102096, Note_off_c, 0, 79, 64
2, 102144, Note_on_c, 0, 79, 63
2, 102244, Note_off_c, 0, 79, 64
2, 102336, Note_on_c, 0, 78, 63
2, 102436, Note_off_c, 0, 78, 64
2, 102528, Note_on_c, 0, 79, 63
2, 102628, Note_off_c, 0, 79, 64
2, 102720, Note_on_c, 0, 78, 63
2, 102820, Note_off_c, 0, 78, 64
2, 102912, Note_on_c, 0, 79, 63
2, 103292, Note_off_c, 0, 79, 64
2, 103488, Note_on_c, 0, 85, 63
2, 103680, Note_off_c, 0, 85, 64
2, 103680, Note_on_c, 0, 88, 63
2, 103868, Note_off_c, 0, 88, 64
2, 103872, Note_on_c, 0, 80, 63
2, 104060, Note_off_c, 0, 80, 64
2, 104064, Note_on_c, 0, 81, 63
2, 104252, Note_off_c, 0, 81, 64
2, 104256, Note_on_c, 0, 76, 63
2, 104440, Note_off_c, 0, 76, 64
2, 104448, Note_on_c, 0, 79, 63
2, 104640, Note_off_c, 0, 79, 64
2, 104640, Note_on_c, 0, 78, 63
2, 104824, Note_off_c, 0, 78, 64
2, 105024, Note_on_c, 0, 81, 63
2, 105072, Note_off_c, 0, 81, 64
2, 105120, Note_on_c, 0, 78, 63
2, 105168, Note_off_c, 0, 78, 64
2, 105216, Note_on_c, 0, 74, 63
2, 105312, Note_off_c, 0, 74, 64
2, 105312, Note_on_c, 0, 69, 63
2, 105400, Note_off_c, 0, 69, 64
2, 105408, Note_on_c, 0, 66, 63
2, 105456, Note_off_c, 0, 66, 64
2, 105504, Note_on_c, 0, 62, 63
2, 105552, Note_off_c, 0, 62, 64
2, 105600, Note_on_c, 0, 67, 63
2, 105696, Note_off_c, 0, 67, 64
2, 105696, Note_on_c, 0, 64, 63
2, 105784, Note_off_c, 0, 64, 64
2, 105792, Note_on_c, 0, 61, 63
2, 105840, Note_off_c, 0, 61, 64
2, 105888, Note_on_c, 0, 57, 63
2, 105936, Note_off_c, 0, 57, 64
2, 105984, Note_on_c, 0, 66, 63
2, 106080, Note_off_c, 0, 66, 64
2, 106080, Note_on_c, 0, 62, 63
2, 106168, Note_off_c, 0, 62, 64
2, 106176, Note_on_c, 0, 67, 63
2, 106264, Note_off_c, 0, 67, 64
2, 106272, Note_on_c, 0, 64, 63
2, 106360, Note_off_c, 0, 64, 64
2, 106368, Note_on_c, 0, 69, 63
2, 106468, Note_off_c, 0, 69, 64
2, 106560, Note_on_c, 0, 81, 63
2, 106608, Note_off_c, 0, 81, 64
2, 106656, Note_on_c, 0, 78, 63
2, 106704, Note_off_c, 0, 78, 64
2, 106752, Note_on_c, 0, 74, 63
2, 106848, Note_off_c, 0, 74, 64
2, 106848, Note_on_c, 0, 69, 63
2, 106936, Note_off_c, 0, 69, 64
2, 106944, Note_on_c, 0, 66, 63
2, 106992, Note_off_c, 0, 66, 64
2, 107040, Note_on_c, 0, 62, 63
2, 107088, Note_off_c, 0, 62, 64
2, 107136, Note_on_c, 0, 67, 63
2, 107232, Note_off_c, 0, 67, 64
2, 107232, Note_on_c, 0, 64, 63
2, 107320, Note_off_c, 0, 64, 64
2, 107328, Note_on_c, 0, 61, 63
2, 107376, Note_off_c, 0, 61, 64
2, 107424, Note_on_c, 0, 57, 63
2, 107472, Note_off_c, 0, 57, 64
2, 107520, Note_on_c, 0, 66, 63
2, 107616, Note_off_c, 0, 66, 64
2, 107616, Note_on_c, 0, 62, 63
2, 107704, Note_off_c, 0, 62, 64
2, 107712, Note_on_c, 0, 67, 63
2, 107808, Note_off_c, 0, 67, 64
2, 107808, Note_on_c, 0, 64, 63
2, 107896, Note_off_c, 0, 64, 64
2, 107904, Note_on_c, 0, 69, 63
2, 108092, Note_off_c, 0, 69, 64
2, 109044, Control_c, 0, 1, 55
2, 109632, Note_on_c, 0, 69, 64
2, 109728, Note_off_c, 0, 69, 64
2, 109728, Note_on_c, 0, 66, 64
2, 109816, Note_off_c, 0, 66, 64
2, 109824, Note_on_c, 0, 71, 64
2, 109920, Note_off_c, 0, 71, 64
2, 109920, Note_on_c, 0, 67, 64
2, 110008, Note_off_c, 0, 67, 64
2, 110016, Note_on_c, 0, 73, 64
2, 110112, Note_off_c, 0, 73, 64
2, 110112, Note_on_c, 0, 69, 65
2, 110200, Note_off_c, 0, 69, 64
2, 110208, Note_on_c, 0, 74, 65
2, 110304, Note_off_c, 0, 74, 64
2, 110304, Note_on_c, 0, 69, 65
2, 110392, Note_off_c, 0, 69, 64
2, 110400, Note_on_c, 0, 76, 65
2, 110496, Note_off_c, 0, 76, 64
2, 110496, Note_on_c, 0, 73, 65
2, 110584, Note_off_c, 0, 73, 64
2, 110592, Note_on_c, 0, 78, 66
2, 110688, Note_off_c, 0, 78, 64
2, 110688, Note_on_c, 0, 74, 66
2, 110776, Note_off_c, 0, 74, 64
2, 110784, Note_on_c, 0, 79, 66
2, 110880, Note_off_c, 0, 79, 64
2, 110880, Note_on_c, 0, 76, 66
2, 110968, Note_off_c, 0, 76, 64
2, 110976, Note_on_c, 0, 81, 67
2, 111072, Note_off_c, 0, 81, 64
2, 111072, Note_on_c, 0, 78, 67
2, 111160, Note_off_c, 0, 78, 64
2, 111168, Note_on_c, 0, 82, 67
2, 111264, Note_off_c, 0, 82, 64
2, 111264, Note_on_c, 0, 78, 67
2, 111352, Note_off_c, 0, 78, 64
2, 111360, Note_on_c, 0, 83, 67
2, 111744, Note_off_c, 0, 83, 64
2, 111744, Note_on_c, 0, 86, 68
2, 112120, Note_off_c, 0, 86, 64
2, 112128, Note_on_c, 0, 76, 69
2, 112892, Note_off_c, 0, 76, 64
2, 112896, Note_on_c, 0, 76, 71
2, 112992, Note_off_c, 0, 76, 64
2, 112992, Note_on_c, 0, 78, 71
2, 113080, Note_off_c, 0, 78, 64
2, 113088, Note_on_c, 0, 79, 71
2, 113180, Note_off_c, 0, 79, 64
2, 113184, Note_on_c, 0, 78, 72
2, 113276, Note_off_c, 0, 78, 64
2, 113280, Note_on_c, 0, 81, 72
2, 113324, Note_off_c, 0, 81, 64
2, 113328, Note_on_c, 0, 79, 72
2, 113468, Note_off_c, 0, 79, 64
2, 113472, Note_on_c, 0, 78, 72
2, 113564, Note_off_c, 0, 78, 64
2, 113568, Note_on_c, 0, 76, 72
2, 113660, Note_off_c, 0, 76, 64
2, 113664, Note_on_c, 0, 74, 73
2, 114044, Note_off_c, 0, 74, 64
2, 116724, Control_c, 0, 1, 55
2, 116736, Note_on_c, 0, 62, 73
2, 117500, Note_off_c, 0, 62, 64
2, 117504, Note_on_c, 0, 64, 73
2, 118268, Note_off_c, 0, 64, 64
2, 118272, Note_on_c, 0, 66, 73
2, 118460, Note_off_c, 0, 66, 64
2, 118656, Note_on_c, 0, 69, 80
2, 118708, Note_off_c, 0, 69, 64
2, 118712, Note_on_c, 0, 67, 73
2, 118844, Note_off_c, 0, 67, 64
2, 119040, Note_on_c, 0, 64, 73
2, 119228, Note_off_c, 0, 64, 64
2, 119808, Note_on_c, 0, 62, 73
2, 119996, Note_off_c, 0, 62, 64
2, 120000, Note_on_c, 0, 64, 73
2, 120092, Note_off_c, 0, 64, 64
2, 120096, Note_on_c, 0, 66, 73
2, 120188, Note_off_c, 0, 66, 64
2, 120192, Note_on_c, 0, 67, 73
2, 120284, Note_off_c, 0, 67, 64
2, 120288, Note_on_c, 0, 69, 73
2, 120380, Note_off_c, 0, 69, 64
2, 120384, Note_on_c, 0, 71, 73
2, 120476, Note_off_c, 0, 71, 64
2, 120480, Note_on_c, 0, 73, 73
2, 120572, Note_off_c, 0, 73, 64
2, 120576, Note_on_c, 0, 74, 73
2, 120668, Note_off_c, 0, 74, 64
2, 120672, Note_on_c, 0, 76, 73
2, 120764, Note_off_c, 0, 76, 64
2, 120768, Note_on_c, 0, 78, 73
2, 120860, Note_off_c, 0, 78, 64
2, 120864, Note_on_c, 0, 79, 73
2, 120956, Note_off_c, 0, 79, 64
2, 120960, Note_on_c, 0, 81, 73
2, 121052, Note_off_c, 0, 81, 64
2, 121056, Note_on_c, 0, 83, 73
2, 121148, Note_off_c, 0, 83, 64
2, 121152, Note_on_c, 0, 85, 73
2, 121244, Note_off_c, 0, 85, 64
2, 121248, Note_on_c, 0, 86, 73
2, 121340, Note_off_c, 0, 86, 64
2, 121344, Note_on_c, 0, 86, 76
2, 121532, Note_off_c, 0, 86, 64
2, 121536, Note_on_c, 0, 83, 73
2, 121628, Note_off_c, 0, 83, 64
2, 121728, Note_on_c, 0, 83, 76
2, 121916, Note_off_c, 0, 83, 64
2, 121920, Note_on_c, 0, 79, 73
2, 122012, Note_off_c, 0, 79, 64
2, 122112, Note_on_c, 0, 79, 76
2, 122300, Note_off_c, 0, 79, 64
2, 122304, Note_on_c, 0, 76, 73
2, 122492, Note_off_c, 0, 76, 64
2, 122880, Note_on_c, 0, 78, 73
2, 122972, Note_off_c, 0, 78, 64
2, 122976, Note_on_c, 0, 79, 73
2, 123068, Note_off_c, 0, 79, 64
2, 123072, Note_on_c, 0, 81, 73
2, 123164, Note_off_c, 0, 81, 64
2, 123168, Note_on_c, 0, 83, 73
2, 123260, Note_off_c, 0, 83, 64
2, 123264, Note_on_c, 0, 81, 73
2, 123356, Note_off_c, 0, 81, 64
2, 123360, Note_on_c, 0, 83, 73
2, 123452, Note_off_c, 0, 83, 64
2, 123456, Note_on_c, 0, 85, 73
2, 123548, Note_off_c, 0, 85, 64
2, 123552, Note_on_c, 0, 86, 73
2, 123644, Note_off_c, 0, 86, 64
2, 123648, Note_on_c, 0, 76, 73
2, 123696, Note_off_c, 0, 76, 64
2, 123696, Note_on_c, 0, 78, 73
2, 123744, Note_off_c, 0, 78, 64
2, 123744, Note_on_c, 0, 76, 73
2, 123792, Note_off_c, 0, 76, 64
2, 123792, Note_on_c, 0, 78, 73
2, 123840, Note_off_c, 0, 78, 64
2, 123840, Note_on_c, 0, 76, 73
2, 123888, Note_off_c, 0, 76, 64
2, 123888, Note_on_c, 0, 78, 73
2, 123936, Note_off_c, 0, 78, 64
2, 123936, Note_on_c, 0, 76, 73
2, 123984, Note_off_c, 0, 76, 64
2, 123984, Note_on_c, 0, 78, 73
2, 124032, Note_off_c, 0, 78, 64
2, 124032, Note_on_c, 0, 76, 73
2, 124080, Note_off_c, 0, 76, 64
2, 124080, Note_on_c, 0, 78, 73
2, 124128, Note_off_c, 0, 78, 64
2, 124128, Note_on_c, 0, 76, 73
2, 124176, Note_off_c, 0, 76, 64
2, 124176, Note_on_c, 0, 78, 73
2, 124224, Note_off_c, 0, 78, 64
2, 124224, Note_on_c, 0, 74, 73
2, 124320, Note_off_c, 0, 74, 64
2, 124320, Note_on_c, 0, 76, 73
2, 124416, Note_off_c, 0, 76, 64
2, 124416, Note_on_c, 0, 74, 73
2, 124796, Note_off_c, 0, 74, 64
2, 127104, Control_c, 0, 1, 60
2, 127488, Note_on_c, 0, 69, 78
2, 127580, Note_off_c, 0, 69, 64
2, 127584, Note_on_c, 0, 81, 78
2, 130944, Note_off_c, 0, 81, 64
2, 130944, Control_c, 0, 1, 55
2, 131136, Note_on_c, 0, 88, 80
2, 131172, Note_off_c, 0, 88, 64
2, 131184, Note_on_c, 0, 86, 80
2, 131228, Note_off_c, 0, 86, 64
2, 131232, Note_on_c, 0, 85, 73
2, 131320, Note_off_c, 0, 85, 64
2, 131328, Note_on_c, 0, 86, 73
2, 131428, Note_off_c, 0, 86, 64
2, 131520, Note_on_c, 0, 86, 73
2, 131620, Note_off_c, 0, 86, 64
2, 131712, Note_on_c, 0, 86, 73
2, 131812, Note_off_c, 0, 86, 64
2, 131904, Note_on_c, 0, 86, 73
2, 132004, Note_off_c, 0, 86, 64
2, 132096, Note_on_c, 0, 86, 80
2, 132128, Note_off_c, 0, 86, 64
2, 132144, Note_on_c, 0, 88, 80
2, 132176, Note_off_c, 0, 88, 64
2, 132192, Note_on_c, 0, 90, 73
2, 132440, Note_off_c, 0, 90, 64
2, 132672, Note_on_c, 0, 88, 80
2, 132708, Note_off_c, 0, 88, 64
2, 132720, Note_on_c, 0, 86, 80
2, 132764, Note_off_c, 0, 86, 64
2, 132768, Note_on_c, 0, 85, 73
2, 132856, Note_off_c, 0, 85, 64
2, 132864, Note_on_c, 0, 86, 73
2, 132964, Note_off_c, 0, 86, 64
2, 133056, Note_on_c, 0, 86, 73
2, 133156, Note_off_c, 0, 86, 64
2, 133248, Note_on_c, 0, 86, 73
2, 133348, Note_off_c, 0, 86, 64
2, 133440, Note_on_c, 0, 86, 73
2, 133540, Note_off_c, 0, 86, 64
2, 133632, Note_on_c, 0, 86, 80
2, 133664, Note_off_c, 0, 86, 64
2, 133680, Note_on_c, 0, 88, 80
2, 133712, Note_off_c, 0, 88, 64
2, 133728, Note_on_c, 0, 90, 73
2, 133980, Note_off_c, 0, 90, 64
2, 134016, Note_on_c, 0, 83, 80
2, 134048, Note_off_c, 0, 83, 64
2, 134064, Note_on_c, 0, 85, 80
2, 134096, Note_off_c, 0, 85, 64
2, 134112, Note_on_c, 0, 86, 73
2, 134364, Note_off_c, 0, 86, 64
2, 134400, Note_on_c, 0, 79, 80
2, 134432, Note_off_c, 0, 79, 64
2, 134448, Note_on_c, 0, 81, 80
2, 134480, Note_off_c, 0, 81, 64
2, 134496, Note_on_c, 0, 83, 73
2, 134748, Note_off_c, 0, 83, 64
2, 134784, Note_on_c, 0, 76, 80
2, 134816, Note_off_c, 0, 76, 64
2, 134832, Note_on_c, 0, 78, 80
2, 134864, Note_off_c, 0, 78, 64
2, 134880, Note_on_c, 0, 79, 73
2, 135132, Note_off_c, 0, 79, 64
2, 135168, Note_on_c, 0, 69, 73
2, 135932, Note_off_c, 0, 69, 64
2, 135936, Note_on_c, 0, 76, 73
2, 135984, Note_off_c, 0, 76, 64
2, 135984, Note_on_c, 0, 78, 73
2, 136032, Note_off_c, 0, 78, 64
2, 136032, Note_on_c, 0, 76, 73
2, 136080, Note_off_c, 0, 76, 64
2, 136080, Note_on_c, 0, 78, 73
2, 136128, Note_off_c, 0, 78, 64
2, 136128, Note_on_c, 0, 76, 73
2, 136176, Note_off_c, 0, 76, 64
2, 136176, Note_on_c, 0, 78, 73
2, 136224, Note_off_c, 0, 78, 64
2, 136224, Note_on_c, 0, 76, 73
2, 136272, Note_off_c, 0, 76, 64
2, 136272, Note_on_c, 0, 78, 73
2, 136320, Note_off_c, 0, 78, 64
2, 136320, Note_on_c, 0, 76, 73
2, 136368, Note_off_c, 0, 76, 64
2, 136368, Note_on_c, 0, 78, 73
2, 136416, Note_off_c, 0, 78, 64
2, 136416, Note_on_c, 0, 76, 73
2, 136464, Note_off_c, 0, 76, 64
2, 136464, Note_on_c, 0, 78, 73
2, 136512, Note_off_c, 0, 78, 64
2, 136512, Note_on_c, 0, 74, 73
2, 136608, Note_off_c, 0, 74, 64
2, 136608, Note_on_c, 0, 76, 73
2, 136704, Note_off_c, 0, 76, 64
2, 136704, Note_on_c, 0, 86, 73
2, 136800, Note_off_c, 0, 86, 64
2, 136800, Note_on_c, 0, 88, 73
2, 136888, Note_off_c, 0, 88, 64
2, 136896, Note_on_c, 0, 90, 73
2, 136944, Note_off_c, 0, 90, 64
2, 136992, Note_on_c, 0, 90, 73
2, 137040, Note_off_c, 0, 90, 64
2, 137088, Note_on_c, 0, 83, 73
2, 137184, Note_off_c, 0, 83, 64
2, 137184, Note_on_c, 0, 85, 73
2, 137272, Note_off_c, 0, 85, 64
2, 137280, Note_on_c, 0, 86, 73
2, 137328, Note_off_c, 0, 86, 64
2, 137376, Note_on_c, 0, 86, 73
2, 137424, Note_off_c, 0, 86, 64
2, 137472, Note_on_c, 0, 79, 73
2, 137568, Note_off_c, 0, 79, 64
2, 137568, Note_on_c, 0, 81, 73
2, 137656, Note_off_c, 0, 81, 64
2, 137664, Note_on_c, 0, 83, 73
2, 137712, Note_off_c, 0, 83, 64
2, 137760, Note_on_c, 0, 83, 73
2, 137808, Note_off_c, 0, 83, 64
2, 137856, Note_on_c, 0, 76, 73
2, 137952, Note_off_c, 0, 76, 64
2, 137952, Note_on_c, 0, 78, 73
2, 138040, Note_off_c, 0, 78, 64
2, 138048, Note_on_c, 0, 79, 73
2, 138096, Note_off_c, 0, 79, 64
2, 138144, Note_on_c, 0, 79, 73
2, 138192, Note_off_c, 0, 79, 64
2, 138228, Control_c, 0, 1, 55
2, 138240, Note_on_c, 0, 57, 73
2, 139100, Note_off_c, 0, 57, 64
2, 139104, Note_on_c, 0, 69, 73
2, 139200, Note_off_c, 0, 69, 64
2, 139200, Note_on_c, 0, 68, 73
2, 139292, Note_off_c, 0, 68, 64
2, 139296, Note_on_c, 0, 69, 73
2, 139384, Note_off_c, 0, 69, 64
2, 139392, Note_on_c, 0, 71, 73
2, 139440, Note_off_c, 0, 71, 64
2, 139488, Note_on_c, 0, 69, 73
2, 139536, Note_off_c, 0, 69, 64
2, 139584, Note_on_c, 0, 73, 73
2, 139632, Note_off_c, 0, 73, 64
2, 139680, Note_on_c, 0, 69, 73
2, 139728, Note_off_c, 0, 69, 64
2, 139776, Note_on_c, 0, 74, 73
2, 139824, Note_off_c, 0, 74, 64
2, 139872, Note_on_c, 0, 69, 73
2, 139920, Note_off_c, 0, 69, 64
2, 139968, Note_on_c, 0, 76, 73
2, 140016, Note_off_c, 0, 76, 64
2, 140064, Note_on_c, 0, 69, 73
2, 140112, Note_off_c, 0, 69, 64
2, 140160, Note_on_c, 0, 78, 73
2, 140208, Note_off_c, 0, 78, 64
2, 140256, Note_on_c, 0, 69, 73
2, 140304, Note_off_c, 0, 69, 64
2, 140352, Note_on_c, 0, 79, 73
2, 140400, Note_off_c, 0, 79, 64
2, 140448, Note_on_c, 0, 69, 73
2, 140496, Note_off_c, 0, 69, 64
2, 140544, Note_on_c, 0, 81, 73
2, 140592, Note_off_c, 0, 81, 64
2, 140640, Note_on_c, 0, 69, 73
2, 140688, Note_off_c, 0, 69, 64
2, 140736, Note_on_c, 0, 83, 73
2, 140784, Note_off_c, 0, 83, 64
2, 140832, Note_on_c, 0, 69, 73
2, 140880, Note_off_c, 0, 69, 64
2, 140928, Note_on_c, 0, 85, 73
2, 140976, Note_off_c, 0, 85, 64
2, 141024, Note_on_c, 0, 69, 73
2, 141072, Note_off_c, 0, 69, 64
2, 141120, Note_on_c, 0, 86, 73
2, 141168, Note_off_c, 0, 86, 64
2, 141216, Note_on_c, 0, 69, 73
2, 141264, Note_off_c, 0, 69, 64
2, 141312, Note_on_c, 0, 81, 73
2, 141692, Note_off_c, 0, 81, 64
2, 141696, Note_on_c, 0, 81, 73
2, 142460, Note_off_c, 0, 81, 64
2, 142464, Note_on_c, 0, 79, 73
2, 142556, Note_off_c, 0, 79, 64
2, 142560, Note_on_c, 0, 78, 73
2, 142652, Note_off_c, 0, 78, 64
2, 142656, Note_on_c, 0, 76, 73
2, 142748, Note_off_c, 0, 76, 64
2, 142752, Note_on_c, 0, 74, 73
2, 142844, Note_off_c, 0, 74, 64
2, 142848, Note_on_c, 0, 76, 73
2, 142892, Note_off_c, 0, 76, 64
2, 142896, Note_on_c, 0, 78, 73
2, 142940, Note_off_c, 0, 78, 64
2, 142944, Note_on_c, 0, 76, 73
2, 142988, Note_off_c, 0, 76, 64
2, 142992, Note_on_c, 0, 78, 73
2, 143036, Note_off_c, 0, 78, 64
2, 143040, Note_on_c, 0, 76, 73
2, 143084, Note_off_c, 0, 76, 64
2, 143088, Note_on_c, 0, 78, 73
2, 143132, Note_off_c, 0, 78, 64
2, 143136, Note_on_c, 0, 76, 73
2, 143180, Note_off_c, 0, 76, 64
2, 143184, Note_on_c, 0, 78, 73
2, 143228, Note_off_c, 0, 78, 64
2, 143232, Note_on_c, 0, 76, 73
2, 143276, Note_off_c, 0, 76, 64
2, 143280, Note_on_c, 0, 78, 73
2, 143324, Note_off_c, 0, 78, 64
2, 143328, Note_on_c, 0, 76, 73
2, 143372, Note_off_c, 0, 76, 64
2, 143376, Note_on_c, 0, 78, 73
2, 143420, Note_off_c, 0, 78, 64
2, 143424, Note_on_c, 0, 76, 73
2, 143468, Note_off_c, 0, 76, 64
2, 143472, Note_on_c, 0, 78, 73
2, 143516, Note_off_c, 0, 78, 64
2, 143520, Note_on_c, 0, 76, 73
2, 143564, Note_off_c, 0, 76, 64
2, 143568, Note_on_c, 0, 78, 73
2, 143612, Note_off_c, 0, 78, 64
2, 143616, Note_on_c, 0, 76, 73
2, 143660, Note_off_c, 0, 76, 64
2, 143664, Note_on_c, 0, 78, 73
2, 143708, Note_off_c, 0, 78, 64
2, 143712, Note_on_c, 0, 76, 73
2, 143756, Note_off_c, 0, 76, 64
2, 143760, Note_on_c, 0, 78, 73
2, 143804, Note_off_c, 0, 78, 64
2, 143808, Note_on_c, 0, 76, 73
2, 143852, Note_off_c, 0, 76, 64
2, 143856, Note_on_c, 0, 78, 73
2, 143900, Note_off_c, 0, 78, 64
2, 143904, Note_on_c, 0, 76, 73
2, 143948, Note_off_c, 0, 76, 64
2, 143952, Note_on_c, 0, 78, 73
2, 143996, Note_off_c, 0, 78, 64
2, 144000, Note_on_c, 0, 76, 73
2, 144044, Note_off_c, 0, 76, 64
2, 144048, Note_on_c, 0, 78, 73
2, 144092, Note_off_c, 0, 78, 64
2, 144096, Note_on_c, 0, 76, 73
2, 144140, Note_off_c, 0, 76, 64
2, 144144, Note_on_c, 0, 78, 73
2, 144188, Note_off_c, 0, 78, 64
2, 144192, Note_on_c, 0, 74, 73
2, 144280, Note_off_c, 0, 74, 64
2, 144288, Note_on_c, 0, 76, 73
2, 144376, Note_off_c, 0, 76, 64
2, 144384, Note_on_c, 0, 74, 73
2, 144764, Note_off_c, 0, 74, 64
2, 162804, Control_c, 0, 1, 55
2, 162816, Note_on_c, 0, 81, 73
2, 163580, Note_off_c, 0, 81, 64
2, 163584, Note_on_c, 0, 82, 73
2, 164348, Note_off_c, 0, 82, 64
2, 164352, Note_on_c, 0, 82, 80
2, 164404, Note_off_c, 0, 82, 64
2, 164408, Note_on_c, 0, 81, 73
2, 164536, Note_off_c, 0, 81, 64
2, 164544, Note_on_c, 0, 79, 73
2, 164636, Note_off_c, 0, 79, 64
2, 164640, Note_on_c, 0, 77, 73
2, 164732, Note_off_c, 0, 77, 64
2, 164736, Note_on_c, 0, 81, 80
2, 164788, Note_off_c, 0, 81, 64
2, 164792, Note_on_c, 0, 79, 73
2, 164920, Note_off_c, 0, 79, 64
2, 164928, Note_on_c, 0, 77, 73
2, 165020, Note_off_c, 0, 77, 64
2, 165024, Note_on_c, 0, 76, 73
2, 165116, Note_off_c, 0, 76, 64
2, 165120, Note_on_c, 0, 79, 78
2, 165172, Note_off_c, 0, 79, 64
2, 165176, Note_on_c, 0, 77, 73
2, 165304, Note_off_c, 0, 77, 64
2, 165312, Note_on_c, 0, 76, 73
2, 165404, Note_off_c, 0, 76, 64
2, 165408, Note_on_c, 0, 74, 73
2, 165500, Note_off_c, 0, 74, 64
2, 165504, Note_on_c, 0, 77, 80
2, 165556, Note_off_c, 0, 77, 64
2, 165560, Note_on_c, 0, 76, 73
2, 165688, Note_off_c, 0, 76, 64
2, 165696, Note_on_c, 0, 74, 73
2, 165788, Note_off_c, 0, 74, 64
2, 165792, Note_on_c, 0, 73, 73
2, 165884, Note_off_c, 0, 73, 64
2, 165888, Note_on_c, 0, 74, 73
2, 166268, Note_off_c, 0, 74, 64
2, 170484, Control_c, 0, 1, 55
2, 170496, Note_on_c, 0, 81, 73
2, 171260, Note_off_c, 0, 81, 64
2, 171264, Note_on_c, 0, 82, 73
2, 172028, Note_off_c, 0, 82, 64
2, 172032, Note_on_c, 0, 82, 80
2, 172084, Note_off_c, 0, 82, 64
2, 172088, Note_on_c, 0, 81, 73
2, 172216, Note_off_c, 0, 81, 64
2, 172224, Note_on_c, 0, 79, 73
2, 172316, Note_off_c, 0, 79, 64
2, 172320, Note_on_c, 0, 77, 73
2, 172412, Note_off_c, 0, 77, 64
2, 172416, Note_on_c, 0, 81, 80
2, 172468, Note_off_c, 0, 81, 64
2, 172472, Note_on_c, 0, 79, 73
2, 172600, Note_off_c, 0, 79, 64
2, 172608, Note_on_c, 0, 77, 73
2, 172700, Note_off_c, 0, 77, 64
2, 172704, Note_on_c, 0, 76, 73
2, 172796, Note_off_c, 0, 76, 64
2, 172800, Note_on_c, 0, 79, 80
2, 172852, Note_off_c, 0, 79, 64
2, 172856, Note_on_c, 0, 77, 73
2, 172984, Note_off_c, 0, 77, 64
2, 172992, Note_on_c, 0, 76, 73
2, 173084, Note_off_c, 0, 76, 64
2, 173088, Note_on_c, 0, 74, 73
2, 173180, Note_off_c, 0, 74, 64
2, 173184, Note_on_c, 0, 77, 80
2, 173236, Note_off_c, 0, 77, 64
2, 173240, Note_on_c, 0, 76, 73
2, 173368, Note_off_c, 0, 76, 64
2, 173376, Note_on_c, 0, 74, 73
2, 173468, Note_off_c, 0, 74, 64
2, 173472, Note_on_c, 0, 73, 73
2, 173564, Note_off_c, 0, 73, 64
2, 173568, Note_on_c, 0, 73, 73
2, 173664, Note_off_c, 0, 73, 64
2, 173664, Note_on_c, 0, 74, 73
2, 173752, Note_off_c, 0, 74, 64
2, 173760, Note_on_c, 0, 73, 73
2, 173808, Note_off_c, 0, 73, 64
2, 173856, Note_on_c, 0, 74, 73
2, 173904, Note_off_c, 0, 74, 64
2, 173952, Note_on_c, 0, 62, 73
2, 174000, Note_off_c, 0, 62, 64
2, 174048, Note_on_c, 0, 65, 73
2, 174096, Note_off_c, 0, 65, 64
2, 174144, Note_on_c, 0, 69, 73
2, 174192, Note_off_c, 0, 69, 64
2, 174240, Note_on_c, 0, 74, 73
2, 174288, Note_off_c, 0, 74, 64
2, 174336, Note_on_c, 0, 73, 73
2, 174432, Note_off_c, 0, 73, 64
2, 174432, Note_on_c, 0, 74, 73
2, 174520, Note_off_c, 0, 74, 64
2, 174528, Note_on_c, 0, 73, 73
2, 174576, Note_off_c, 0, 73, 64
2, 174624, Note_on_c, 0, 74, 73
2, 174672, Note_off_c, 0, 74, 64
2, 174720, Note_on_c, 0, 62, 73
2, 174768, Note_off_c, 0, 62, 64
2, 174816, Note_on_c, 0, 65, 73
2, 174864, Note_off_c, 0, 65, 64
2, 174912, Note_on_c, 0, 69, 73
2, 174960, Note_off_c, 0, 69, 64
2, 175008, Note_on_c, 0, 74, 73
2, 175056, Note_off_c, 0, 74, 64
2, 175104, Note_on_c, 0, 73, 73
2, 175200, Note_off_c, 0, 73, 64
2, 175200, Note_on_c, 0, 69, 73
2, 175292, Note_off_c, 0, 69, 64
2, 175296, Note_on_c, 0, 68, 73
2, 175388, Note_off_c, 0, 68, 64
2, 175392, Note_on_c, 0, 69, 73
2, 175484, Note_off_c, 0, 69, 64
2, 175488, Note_on_c, 0, 68, 73
2, 175580, Note_off_c, 0, 68, 64
2, 175584, Note_on_c, 0, 69, 73
2, 175676, Note_off_c, 0, 69, 64
2, 175680, Note_on_c, 0, 68, 73
2, 175772, Note_off_c, 0, 68, 64
2, 175776, Note_on_c, 0, 69, 73
2, 175864, Note_off_c, 0, 69, 64
2, 175872, Note_on_c, 0, 70, 73
2, 175968, Note_off_c, 0, 70, 64
2, 175968, Note_on_c, 0, 69, 73
2, 176060, Note_off_c, 0, 69, 64
2, 176064, Note_on_c, 0, 71, 73
2, 176156, Note_off_c, 0, 71, 64
2, 176160, Note_on_c, 0, 69, 73
2, 176252, Note_off_c, 0, 69, 64
2, 176256, Note_on_c, 0, 72, 73
2, 176348, Note_off_c, 0, 72, 64
2, 176352, Note_on_c, 0, 69, 73
2, 176444, Note_off_c, 0, 69, 64
2, 176448, Note_on_c, 0, 73, 73
2, 176540, Note_off_c, 0, 73, 64
2, 176544, Note_on_c, 0, 69, 73
2, 176632, Note_off_c, 0, 69, 64
2, 176640, Note_on_c, 0, 73, 73
2, 176736, Note_off_c, 0, 73, 64
2, 176736, Note_on_c, 0, 74, 73
2, 176824, Note_off_c, 0, 74, 64
2, 176832, Note_on_c, 0, 73, 73
2, 176880, Note_off_c, 0, 73, 64
2, 176928, Note_on_c, 0, 74, 73
2, 176976, Note_off_c, 0, 74, 64
2, 177024, Note_on_c, 0, 62, 73
2, 177072, Note_off_c, 0, 62, 64
2, 177120, Note_on_c, 0, 65, 73
2, 177168, Note_off_c, 0, 65, 64
2, 177216, Note_on_c, 0, 69, 73
2, 177264, Note_off_c, 0, 69, 64
2, 177312, Note_on_c, 0, 74, 73
2, 177360, Note_off_c, 0, 74, 64
2, 177408, Note_on_c, 0, 73, 73
2, 177504, Note_off_c, 0, 73, 64
2, 177504, Note_on_c, 0, 74, 73
2, 177592, Note_off_c, 0, 74, 64
2, 177600, Note_on_c, 0, 73, 73
2, 177648, Note_off_c, 0, 73, 64
2, 177696, Note_on_c, 0, 74, 73
2, 177744, Note_off_c, 0, 74, 64
2, 177792, Note_on_c, 0, 62, 73
2, 177840, Note_off_c, 0, 62, 64
2, 177888, Note_on_c, 0, 65, 73
2, 177936, Note_off_c, 0, 65, 64
2, 177984, Note_on_c, 0, 69, 73
2, 178032, Note_off_c, 0, 69, 64
2, 178080, Note_on_c, 0, 74, 73
2, 178128, Note_off_c, 0, 74, 64
2, 178176, Note_on_c, 0, 73, 73
2, 178268, Note_off_c, 0, 73, 64
2, 178272, Note_on_c, 0, 69, 73
2, 178364, Note_off_c, 0, 69, 64
2, 178368, Note_on_c, 0, 68, 73
2, 178460, Note_off_c, 0, 68, 64
2, 178464, Note_on_c, 0, 69, 73
2, 178556, Note_off_c, 0, 69, 64
2, 178560, Note_on_c, 0, 68, 73
2, 178652, Note_off_c, 0, 68, 64
2, 178656, Note_on_c, 0, 69, 73
2, 178748, Note_off_c, 0, 69, 64
2, 178752, Note_on_c, 0, 68, 73
2, 178844, Note_off_c, 0, 68, 64
2, 178848, Note_on_c, 0, 69, 73
2, 178940, Note_off_c, 0, 69, 64
2, 178944, Note_on_c, 0, 70, 73
2, 179036, Note_off_c, 0, 70, 64
2, 179040, Note_on_c, 0, 69, 73
2, 179132, Note_off_c, 0, 69, 64
2, 179136, Note_on_c, 0, 71, 73
2, 179228, Note_off_c, 0, 71, 64
2, 179232, Note_on_c, 0, 69, 73
2, 179324, Note_off_c, 0, 69, 64
2, 179328, Note_on_c, 0, 72, 73
2, 179420, Note_off_c, 0, 72, 64
2, 179424, Note_on_c, 0, 69, 73
2, 179516, Note_off_c, 0, 69, 64
2, 179520, Note_on_c, 0, 73, 73
2, 179612, Note_off_c, 0, 73, 64
2, 179616, Note_on_c, 0, 69, 73
2, 179708, Note_off_c, 0, 69, 64
2, 179712, Note_on_c, 0, 74, 73
2, 179900, Note_off_c, 0, 74, 64
2, 179904, Note_on_c, 0, 76, 80
2, 179940, Note_off_c, 0, 76, 64
2, 179944, Note_on_c, 0, 74, 78
2, 180000, Note_off_c, 0, 74, 64
2, 180000, Note_on_c, 0, 73, 73
2, 180092, Note_off_c, 0, 73, 64
2, 180096, Note_on_c, 0, 74, 73
2, 180280, Note_off_c, 0, 74, 64
2, 180288, Note_on_c, 0, 76, 73
2, 180388, Note_off_c, 0, 76, 64
2, 180480, Note_on_c, 0, 77, 73
2, 180860, Note_off_c, 0, 77, 64
2, 181440, Note_on_c, 0, 74, 73
2, 181540, Note_off_c, 0, 74, 64
2, 181632, Note_on_c, 0, 86, 73
2, 181824, Note_off_c, 0, 86, 64
2, 181824, Note_on_c, 0, 84, 73
2, 182008, Note_off_c, 0, 84, 64
2, 182016, Note_on_c, 0, 84, 73
2, 182208, Note_off_c, 0, 84, 64
2, 182208, Note_on_c, 0, 83, 73
2, 182392, Note_off_c, 0, 83, 64
2, 182400, Note_on_c, 0, 83, 73
2, 182592, Note_off_c, 0, 83, 64
2, 182592, Note_on_c, 0, 81, 73
2, 182776, Note_off_c, 0, 81, 64
2, 182784, Note_on_c, 0, 80, 73
2, 182976, Note_off_c, 0, 80, 64
2, 182976, Note_on_c, 0, 83, 73
2, 183160, Note_off_c, 0, 83, 64
2, 183168, Note_on_c, 0, 74, 73
2, 184508, Note_off_c, 0, 74, 64
2, 184512, Note_on_c, 0, 76, 80
2, 184548, Note_off_c, 0, 76, 64
2, 184552, Note_on_c, 0, 74, 78
2, 184608, Note_off_c, 0, 74, 64
2, 184608, Note_on_c, 0, 72, 73
2, 184700, Note_off_c, 0, 72, 64
2, 184704, Note_on_c, 0, 74, 73
2, 184888, Note_off_c, 0, 74, 64
2, 184896, Note_on_c, 0, 77, 73
2, 184996, Note_off_c, 0, 77, 64
2, 185088, Note_on_c, 0, 68, 73
2, 185468, Note_off_c, 0, 68, 64
2, 186048, Note_on_c, 0, 83, 73
2, 186240, Note_off_c, 0, 83, 64
2, 186240, Note_on_c, 0, 86, 73
2, 186424, Note_off_c, 0, 86, 64
2, 186432, Note_on_c, 0, 80, 73
2, 186624, Note_off_c, 0, 80, 64
2, 186624, Note_on_c, 0, 83, 73
2, 186808, Note_off_c, 0, 83, 64
2, 186816, Note_on_c, 0, 74, 73
2, 187008, Note_off_c, 0, 74, 64
2, 187008, Note_on_c, 0, 77, 73
2, 187192, Note_off_c, 0, 77, 64
2, 187200, Note_on_c, 0, 71, 73
2, 187392, Note_off_c, 0, 71, 64
2, 187392, Note_on_c, 0, 72, 73
2, 187768, Note_off_c, 0, 72, 64
2, 190452, Control_c, 0, 1, 55
2, 190464, Note_on_c, 0, 75, 73
2, 190560, Note_off_c, 0, 75, 64
2, 190560, Note_on_c, 0, 76, 73
2, 190648, Note_off_c, 0, 76, 64
2, 190656, Note_on_c, 0, 75, 73
2, 190704, Note_off_c, 0, 75, 64
2, 190752, Note_on_c, 0, 76, 73
2, 190800, Note_off_c, 0, 76, 64
2, 190848, Note_on_c, 0, 64, 73
2, 190896, Note_off_c, 0, 64, 64
2, 190944, Note_on_c, 0, 67, 73
2, 190992, Note_off_c, 0, 67, 64
2, 191040, Note_on_c, 0, 71, 73
2, 191088, Note_off_c, 0, 71, 64
2, 191136, Note_on_c, 0, 76, 73
2, 191184, Note_off_c, 0, 76, 64
2, 191232, Note_on_c, 0, 75, 73
2, 191328, Note_off_c, 0, 75, 64
2, 191328, Note_on_c, 0, 76, 73
2, 191416, Note_off_c, 0, 76, 64
2, 191424, Note_on_c, 0, 75, 73
2, 191472, Note_off_c, 0, 75, 64
2, 191520, Note_on_c, 0, 76, 73
2, 191568, Note_off_c, 0, 76, 64
2, 191616, Note_on_c, 0, 64, 73
2, 191664, Note_off_c, 0, 64, 64
2, 191712, Note_on_c, 0, 67, 73
2, 191760, Note_off_c, 0, 67, 64
2, 191808, Note_on_c, 0, 71, 73
2, 191856, Note_off_c, 0, 71, 64
2, 191904, Note_on_c, 0, 76, 73
2, 191952, Note_off_c, 0, 76, 64
2, 192000, Note_on_c, 0, 75, 73
2, 192096, Note_off_c, 0, 75, 64
2, 192096, Note_on_c, 0, 71, 73
2, 192188, Note_off_c, 0, 71, 64
2, 192192, Note_on_c, 0, 70, 73
2, 192284, Note_off_c, 0, 70, 64
2, 192288, Note_on_c, 0, 71, 73
2, 192380, Note_off_c, 0, 71, 64
2, 192384, Note_on_c, 0, 70, 73
2, 192476, Note_off_c, 0, 70, 64
2, 192480, Note_on_c, 0, 71, 73
2, 192572, Note_off_c, 0, 71, 64
2, 192576, Note_on_c, 0, 70, 73
2, 192668, Note_off_c, 0, 70, 64
2, 192672, Note_on_c, 0, 71, 73
2, 192760, Note_off_c, 0, 71, 64
2, 192768, Note_on_c, 0, 72, 73
2, 192864, Note_off_c, 0, 72, 64
2, 192864, Note_on_c, 0, 71, 73
2, 192956, Note_off_c, 0, 71, 64
2, 192960, Note_on_c, 0, 73, 73
2, 193052, Note_off_c, 0, 73, 64
2, 193056, Note_on_c, 0, 71, 73
2, 193148, Note_off_c, 0, 71, 64
2, 193152, Note_on_c, 0, 74, 73
2, 193244, Note_off_c, 0, 74, 64
2, 193248, Note_on_c, 0, 71, 73
2, 193340, Note_off_c, 0, 71, 64
2, 193344, Note_on_c, 0, 75, 73
2, 193436, Note_off_c, 0, 75, 64
2, 193440, Note_on_c, 0, 71, 73
2, 193528, Note_off_c, 0, 71, 64
2, 193536, Note_on_c, 0, 76, 73
2, 193916, Note_off_c, 0, 76, 64
2, 199668, Control_c, 0, 1, 55
2, 199680, Note_on_c, 0, 73, 73
2, 199776, Note_off_c, 0, 73, 64
2, 199776, Note_on_c, 0, 74, 73
2, 199864, Note_off_c, 0, 74, 64
2, 199872, Note_on_c, 0, 73, 73
2, 199920, Note_off_c, 0, 73, 64
2, 199968, Note_on_c, 0, 74, 73
2, 200016, Note_off_c, 0, 74, 64
2, 200064, Note_on_c, 0, 62, 73
2, 200112, Note_off_c, 0, 62, 64
2, 200160, Note_on_c, 0, 65, 73
2, 200208, Note_off_c, 0, 65, 64
2, 200256, Note_on_c, 0, 69, 73
2, 200304, Note_off_c, 0, 69, 64
2, 200352, Note_on_c, 0, 74, 73
2, 200400, Note_off_c, 0, 74, 64
2, 200448, Note_on_c, 0, 73, 73
2, 200544, Note_off_c, 0, 73, 64
2, 200544, Note_on_c, 0, 74, 73
2, 200632, Note_off_c, 0, 74, 64
2, 200640, Note_on_c, 0, 73, 73
2, 200688, Note_off_c, 0, 73, 64
2, 200736, Note_on_c, 0, 74, 73
2, 200784, Note_off_c, 0, 74, 64
2, 200832, Note_on_c, 0, 62, 73
2, 200880, Note_off_c, 0, 62, 64
2, 200928, Note_on_c, 0, 65, 73
2, 200976, Note_off_c, 0, 65, 64
2, 201024, Note_on_c, 0, 69, 73
2, 201072, Note_off_c, 0, 69, 64
2, 201120, Note_on_c, 0, 74, 73
2, 201168, Note_off_c, 0, 74, 64
2, 201216, Note_on_c, 0, 73, 73
2, 201312, Note_off_c, 0, 73, 64
2, 201312, Note_on_c, 0, 69, 73
2, 201404, Note_off_c, 0, 69, 64
2, 201408, Note_on_c, 0, 68, 73
2, 201500, Note_off_c, 0, 68, 64
2, 201504, Note_on_c, 0, 69, 73
2, 201596, Note_off_c, 0, 69, 64
2, 201600, Note_on_c, 0, 68, 73
2, 201692, Note_off_c, 0, 68, 64
2, 201696, Note_on_c, 0, 69, 73
2, 201788, Note_off_c, 0, 69, 64
2, 201792, Note_on_c, 0, 68, 73
2, 201884, Note_off_c, 0, 68, 64
2, 201888, Note_on_c, 0, 69, 73
2, 201976, Note_off_c, 0, 69, 64
2, 201984, Note_on_c, 0, 70, 73
2, 202080, Note_off_c, 0, 70, 64
2, 202080, Note_on_c, 0, 69, 73
2, 202172, Note_off_c, 0, 69, 64
2, 202176, Note_on_c, 0, 71, 73
2, 202268, Note_off_c, 0, 71, 64
2, 202272, Note_on_c, 0, 69, 73
2, 202364, Note_off_c, 0, 69, 64
2, 202368, Note_on_c, 0, 72, 73
2, 202460, Note_off_c, 0, 72, 64
2, 202464, Note_on_c, 0, 69, 73
2, 202556, Note_off_c, 0, 69, 64
2, 202560, Note_on_c, 0, 73, 73
2, 202652, Note_off_c, 0, 73, 64
2, 202656, Note_on_c, 0, 69, 73
2, 202740, Control_c, 0, 1, 55
2, 202744, Note_off_c, 0, 69, 64
2, 202752, Note_on_c, 0, 74, 73
2, 203132, Note_off_c, 0, 74, 64
2, 208896, Note_on_c, 0, 79, 73
2, 209660, Note_off_c, 0, 79, 64
2, 209664, Note_on_c, 0, 81, 73
2, 210428, Note_off_c, 0, 81, 64
2, 210432, Note_on_c, 0, 81, 78
2, 210484, Note_off_c, 0, 81, 64
2, 210488, Note_on_c, 0, 79, 73
2, 210616, Note_off_c, 0, 79, 64
2, 210624, Note_on_c, 0, 77, 73
2, 210716, Note_off_c, 0, 77, 64
2, 210720, Note_on_c, 0, 76, 73
2, 210812, Note_off_c, 0, 76, 64
2, 210816, Note_on_c, 0, 79, 80
2, 210868, Note_off_c, 0, 79, 64
2, 210872, Note_on_c, 0, 77, 73
2, 211000, Note_off_c, 0, 77, 64
2, 211008, Note_on_c, 0, 76, 73
2, 211100, Note_off_c, 0, 76, 64
2, 211104, Note_on_c, 0, 74, 73
2, 211196, Note_off_c, 0, 74, 64
2, 211200, Note_on_c, 0, 77, 80
2, 211252, Note_off_c, 0, 77, 64
2, 211256, Note_on_c, 0, 76, 73
2, 211384, Note_off_c, 0, 76, 64
2, 211392, Note_on_c, 0, 74, 73
2, 211484, Note_off_c, 0, 74, 64
2, 211488, Note_on_c, 0, 72, 73
2, 211580, Note_off_c, 0, 72, 64
2, 211584, Note_on_c, 0, 76, 80
2, 211636, Note_off_c, 0, 76, 64
2, 211640, Note_on_c, 0, 74, 73
2, 211768, Note_off_c, 0, 74, 64
2, 211776, Note_on_c, 0, 72, 73
2, 211868, Note_off_c, 0, 72, 64
2, 211872, Note_on_c, 0, 71, 73
2, 211964, Note_off_c, 0, 71, 64
2, 211968, Note_on_c, 0, 72, 73
2, 212348, Note_off_c, 0, 72, 64
2, 212352, Note_on_c, 0, 76, 73
2, 212924, Note_off_c, 0, 76, 64
2, 212928, Note_on_c, 0, 77, 73
2, 213024, Note_off_c, 0, 77, 64
2, 213024, Note_on_c, 0, 79, 73
2, 213112, Note_off_c, 0, 79, 64
2, 213120, Note_on_c, 0, 77, 73
2, 213308, Note_off_c, 0, 77, 64
2, 213312, Note_on_c, 0, 76, 73
2, 213412, Note_off_c, 0, 76, 64
2, 213504, Note_on_c, 0, 76, 73
2, 213696, Note_off_c, 0, 76, 64
2, 213696, Note_on_c, 0, 74, 73
2, 213880, Note_off_c, 0, 74, 64
2, 213888, Note_on_c, 0, 74, 73
2, 214460, Note_off_c, 0, 74, 64
2, 214464, Note_on_c, 0, 74, 73
2, 214508, Note_off_c, 0, 74, 64
2, 214512, Note_on_c, 0, 76, 73
2, 214556, Note_off_c, 0, 76, 64
2, 214560, Note_on_c, 0, 72, 73
2, 214604, Note_off_c, 0, 72, 64
2, 214608, Note_on_c, 0, 74, 73
2, 214652, Note_off_c, 0, 74, 64
2, 214656, Note_on_c, 0, 76, 73
2, 214844, Note_off_c, 0, 76, 64
2, 214848, Note_on_c, 0, 71, 73
2, 215036, Note_off_c, 0, 71, 64
2, 215040, Note_on_c, 0, 74, 73
2, 215232, Note_off_c, 0, 74, 64
2, 215232, Note_on_c, 0, 72, 73
2, 215416, Note_off_c, 0, 72, 64
2, 215424, Note_on_c, 0, 72, 73
2, 215996, Note_off_c, 0, 72, 64
2, 216000, Note_on_c, 0, 71, 73
2, 216092, Note_off_c, 0, 71, 64
2, 216096, Note_on_c, 0, 72, 73
2, 216188, Note_off_c, 0, 72, 64
2, 216192, Note_on_c, 0, 74, 73
2, 216292, Note_off_c, 0, 74, 64
2, 216384, Note_on_c, 0, 72, 73
2, 216572, Note_off_c, 0, 72, 64
2, 216576, Note_on_c, 0, 72, 73
2, 216672, Note_off_c, 0, 72, 64
2, 216672, Note_on_c, 0, 71, 73
2, 216764, Note_off_c, 0, 71, 64
2, 216768, Note_on_c, 0, 76, 73
2, 216856, Note_off_c, 0, 76, 64
2, 216864, Note_on_c, 0, 74, 73
2, 216956, Note_off_c, 0, 74, 64
2, 216960, Note_on_c, 0, 74, 73
2, 217532, Note_off_c, 0, 74, 64
2, 217536, Note_on_c, 0, 79, 73
2, 217728, Note_off_c, 0, 79, 64
2, 217728, Note_on_c, 0, 78, 73
2, 217916, Note_off_c, 0, 78, 64
2, 217920, Note_on_c, 0, 77, 73
2, 218104, Note_off_c, 0, 77, 64
2, 218112, Note_on_c, 0, 75, 73
2, 218304, Note_off_c, 0, 75, 64
2, 218304, Note_on_c, 0, 76, 73
2, 218488, Note_off_c, 0, 76, 64
2, 218496, Note_on_c, 0, 76, 73
2, 218972, Note_off_c, 0, 76, 64
2, 218976, Note_on_c, 0, 78, 73
2, 219072, Note_off_c, 0, 78, 64
2, 219072, Note_on_c, 0, 79, 73
2, 219164, Note_off_c, 0, 79, 64
2, 219168, Note_on_c, 0, 78, 73
2, 219260, Note_off_c, 0, 78, 64
2, 219264, Note_on_c, 0, 81, 80
2, 219316, Note_off_c, 0, 81, 64
2, 219320, Note_on_c, 0, 79, 73
2, 219448, Note_off_c, 0, 79, 64
2, 219456, Note_on_c, 0, 78, 73
2, 219548, Note_off_c, 0, 78, 64
2, 219552, Note_on_c, 0, 76, 73
2, 219640, Note_off_c, 0, 76, 64
2, 219648, Note_on_c, 0, 76, 73
2, 219840, Note_off_c, 0, 76, 64
2, 219840, Note_on_c, 0, 74, 73
2, 220024, Note_off_c, 0, 74, 64
2, 220032, Note_on_c, 0, 74, 73
2, 220540, Note_off_c, 0, 74, 64
2, 220544, Note_on_c, 0, 76, 73
2, 220604, Note_off_c, 0, 76, 64
2, 220672, Note_on_c, 0, 78, 73
2, 220732, Note_off_c, 0, 78, 64
2, 220800, Note_on_c, 0, 79, 73
2, 220860, Note_off_c, 0, 79, 64
2, 220928, Note_on_c, 0, 81, 73
2, 220988, Note_off_c, 0, 81, 64
2, 221056, Note_on_c, 0, 83, 73
2, 221116, Note_off_c, 0, 83, 64
2, 221184, Note_on_c, 0, 84, 73
2, 221568, Note_off_c, 0, 84, 64
2, 221568, Note_on_c, 0, 81, 73
2, 221948, Note_off_c, 0, 81, 64
2, 221952, Note_on_c, 0, 78, 73
2, 222332, Note_off_c, 0, 78, 64
2, 222336, Note_on_c, 0, 72, 73
2, 222712, Note_off_c, 0, 72, 64
2, 222720, Note_on_c, 0, 71, 73
2, 222912, Note_off_c, 0, 71, 64
2, 222912, Note_on_c, 0, 74, 73
2, 223100, Note_off_c, 0, 74, 64
2, 223104, Note_on_c, 0, 79, 73
2, 223292, Note_off_c, 0, 79, 64
2, 223296, Note_on_c, 0, 83, 73
2, 223480, Note_off_c, 0, 83, 64
2, 223488, Note_on_c, 0, 81, 73
2, 223532, Note_off_c, 0, 81, 64
2, 223536, Note_on_c, 0, 83, 73
2, 223580, Note_off_c, 0, 83, 64
2, 223584, Note_on_c, 0, 81, 73
2, 223628, Note_off_c, 0, 81, 64
2, 223632, Note_on_c, 0, 83, 73
2, 223676, Note_off_c, 0, 83, 64
2, 223680, Note_on_c, 0, 81, 73
2, 223724, Note_off_c, 0, 81, 64
2, 223728, Note_on_c, 0, 83, 73
2, 223772, Note_off_c, 0, 83, 64
2, 223776, Note_on_c, 0, 79, 73
2, 223820, Note_off_c, 0, 79, 64
2, 223824, Note_on_c, 0, 81, 73
2, 223868, Note_off_c, 0, 81, 64
2, 223872, Note_on_c, 0, 83, 73
2, 224064, Note_off_c, 0, 83, 64
2, 224064, Note_on_c, 0, 78, 73
2, 224248, Note_off_c, 0, 78, 64
2, 224256, Note_on_c, 0, 81, 73
2, 225020, Note_off_c, 0, 81, 64
2, 225024, Note_on_c, 0, 79, 73
2, 225068, Note_off_c, 0, 79, 64
2, 225072, Note_on_c, 0, 81, 73
2, 225116, Note_off_c, 0, 81, 64
2, 225120, Note_on_c, 0, 79, 73
2, 225164, Note_off_c, 0, 79, 64
2, 225168, Note_on_c, 0, 81, 73
2, 225212, Note_off_c, 0, 81, 64
2, 225216, Note_on_c, 0, 79, 73
2, 225260, Note_off_c, 0, 79, 64
2, 225264, Note_on_c, 0, 81, 73
2, 225308, Note_off_c, 0, 81, 64
2, 225312, Note_on_c, 0, 79, 73
2, 225356, Note_off_c, 0, 79, 64
2, 225360, Note_on_c, 0, 81, 73
2, 225404, Note_off_c, 0, 81, 64
2, 225408, Note_on_c, 0, 79, 73
2, 225452, Note_off_c, 0, 79, 64
2, 225456, Note_on_c, 0, 81, 73
2, 225500, Note_off_c, 0, 81, 64
2, 225504, Note_on_c, 0, 79, 73
2, 225548, Note_off_c, 0, 79, 64
2, 225552, Note_on_c, 0, 81, 73
2, 225596, Note_off_c, 0, 81, 64
2, 225600, Note_on_c, 0, 78, 73
2, 225688, Note_off_c, 0, 78, 64
2, 225696, Note_on_c, 0, 79, 73
2, 225784, Note_off_c, 0, 79, 64
2, 225792, Note_on_c, 0, 78, 73
2, 226176, Note_off_c, 0, 78, 64
2, 226752, Note_on_c, 0, 69, 63
2, 226852, Note_off_c, 0, 69, 64
2, 226944, Note_on_c, 0, 69, 63
2, 227044, Note_off_c, 0, 69, 64
2, 227136, Note_on_c, 0, 74, 63
2, 227236, Note_off_c, 0, 74, 64
2, 227328, Note_on_c, 0, 74, 63
2, 227520, Note_off_c, 0, 74, 64
2, 227520, Note_on_c, 0, 73, 63
2, 227704, Note_off_c, 0, 73, 64
2, 227712, Note_on_c, 0, 73, 63
2, 228096, Note_off_c, 0, 73, 64
2, 228384, Note_on_c, 0, 67, 63
2, 228476, Note_off_c, 0, 67, 64
2, 228480, Note_on_c, 0, 67, 63
2, 228768, Note_off_c, 0, 67, 64
2, 228768, Note_on_c, 0, 66, 63
2, 228856, Note_off_c, 0, 66, 64
2, 228864, Note_on_c, 0, 69, 63
2, 229248, Note_off_c, 0, 69, 64
2, 229248, Note_on_c, 0, 69, 63
2, 229632, Note_off_c, 0, 69, 64
2, 229920, Note_on_c, 0, 69, 82
2, 230012, Note_off_c, 0, 69, 64
2, 230016, Note_on_c, 0, 69, 82
2, 230300, Note_off_c, 0, 69, 64
2, 230304, Note_on_c, 0, 74, 82
2, 230396, Note_off_c, 0, 74, 64
2, 230400, Note_on_c, 0, 73, 82
2, 230784, Note_off_c, 0, 73, 64
2, 230784, Note_on_c, 0, 73, 82
2, 231168, Note_off_c, 0, 73, 64
2, 231552, Note_on_c, 0, 69, 82
2, 231552, Note_on_c, 0, 64, 82
2, 231552, Note_on_c, 0, 57, 82
2, 231836, Note_off_c, 0, 69, 64
2, 231836, Note_off_c, 0, 64, 64
2, 231836, Note_off_c, 0, 57, 64
2, 231840, Note_on_c, 0, 79, 82
2, 231924, Control_c, 0, 1, 55
2, 231932, Note_off_c, 0, 79, 64
2, 231936, Note_on_c, 0, 79, 82
2, 232796, Note_off_c, 0, 79, 64
2, 232800, Note_on_c, 0, 81, 82
2, 232896, Note_off_c, 0, 81, 64
2, 232896, Note_on_c, 0, 82, 82
2, 232988, Note_off_c, 0, 82, 64
2, 232992, Note_on_c, 0, 83, 82
2, 233084, Note_off_c, 0, 83, 64
2, 233088, Note_on_c, 0, 81, 82
2, 233180, Note_off_c, 0, 81, 64
2, 233184, Note_on_c, 0, 79, 82
2, 233276, Note_off_c, 0, 79, 64
2, 233280, Note_on_c, 0, 78, 82
2, 233372, Note_off_c, 0, 78, 64
2, 233376, Note_on_c, 0, 76, 82
2, 233464, Note_off_c, 0, 76, 64
2, 233472, Note_on_c, 0, 74, 82
2, 233568, Note_off_c, 0, 74, 64
2, 233568, Note_on_c, 0, 72, 82
2, 233660, Note_off_c, 0, 72, 64
2, 233664, Note_on_c, 0, 76, 82
2, 233756, Note_off_c, 0, 76, 64
2, 233760, Note_on_c, 0, 74, 82
2, 233852, Note_off_c, 0, 74, 64
2, 233856, Note_on_c, 0, 72, 82
2, 233948, Note_off_c, 0, 72, 64
2, 233952, Note_on_c, 0, 71, 82
2, 234044, Note_off_c, 0, 71, 64
2, 234048, Note_on_c, 0, 69, 82
2, 234140, Note_off_c, 0, 69, 64
2, 234144, Note_on_c, 0, 68, 82
2, 234232, Note_off_c, 0, 68, 64
2, 234240, Note_on_c, 0, 67, 82
2, 234336, Note_off_c, 0, 67, 64
2, 234336, Note_on_c, 0, 69, 82
2, 234428, Note_off_c, 0, 69, 64
2, 234432, Note_on_c, 0, 70, 82
2, 234524, Note_off_c, 0, 70, 64
2, 234528, Note_on_c, 0, 71, 82
2, 234620, Note_off_c, 0, 71, 64
2, 234624, Note_on_c, 0, 61, 82
2, 234716, Note_off_c, 0, 61, 64
2, 234720, Note_on_c, 0, 62, 82
2, 234812, Note_off_c, 0, 62, 64
2, 234816, Note_on_c, 0, 63, 82
2, 234908, Note_off_c, 0, 63, 64
2, 234912, Note_on_c, 0, 64, 82
2, 235000, Note_off_c, 0, 64, 64
2, 235008, Note_on_c, 0, 55, 82
2, 235584, Note_off_c, 0, 55, 64
2, 235584, Note_on_c, 0, 56, 82
2, 235772, Note_off_c, 0, 56, 64
2, 235776, Note_on_c, 0, 57, 82
2, 235820, Note_off_c, 0, 57, 64
2, 235824, Note_on_c, 0, 59, 82
2, 235868, Note_off_c, 0, 59, 64
2, 235872, Note_on_c, 0, 61, 82
2, 235916, Note_off_c, 0, 61, 64
2, 235920, Note_on_c, 0, 62, 82
2, 235964, Note_off_c, 0, 62, 64
2, 235968, Note_on_c, 0, 64, 82
2, 236012, Note_off_c, 0, 64, 64
2, 236016, Note_on_c, 0, 66, 82
2, 236060, Note_off_c, 0, 66, 64
2, 236064, Note_on_c, 0, 67, 82
2, 236108, Note_off_c, 0, 67, 64
2, 236112, Note_on_c, 0, 68, 82
2, 236156, Note_off_c, 0, 68, 64
2, 236160, Note_on_c, 0, 69, 82
2, 236204, Note_off_c, 0, 69, 64
2, 236208, Note_on_c, 0, 71, 82
2, 236252, Note_off_c, 0, 71, 64
2, 236256, Note_on_c, 0, 73, 82
2, 236300, Note_off_c, 0, 73, 64
2, 236304, Note_on_c, 0, 74, 82
2, 236348, Note_off_c, 0, 74, 64
2, 236352, Note_on_c, 0, 76, 82
2, 236396, Note_off_c, 0, 76, 64
2, 236400, Note_on_c, 0, 78, 82
2, 236444, Note_off_c, 0, 78, 64
2, 236448, Note_on_c, 0, 79, 82
2, 236492, Note_off_c, 0, 79, 64
2, 236496, Note_on_c, 0, 81, 82
2, 236540, Note_off_c, 0, 81, 64
2, 236544, Note_on_c, 0, 79, 82
2, 236588, Note_off_c, 0, 79, 64
2, 236592, Note_on_c, 0, 81, 82
2, 236636, Note_off_c, 0, 81, 64
2, 236640, Note_on_c, 0, 79, 82
2, 236684, Note_off_c, 0, 79, 64
2, 236688, Note_on_c, 0, 81, 82
2, 236732, Note_off_c, 0, 81, 64
2, 236736, Note_on_c, 0, 79, 82
2, 236780, Note_off_c, 0, 79, 64
2, 236784, Note_on_c, 0, 81, 82
2, 236828, Note_off_c, 0, 81, 64
2, 236832, Note_on_c, 0, 79, 82
2, 236876, Note_off_c, 0, 79, 64
2, 236880, Note_on_c, 0, 81, 82
2, 236924, Note_off_c, 0, 81, 64
2, 236928, Note_on_c, 0, 79, 82
2, 236972, Note_off_c, 0, 79, 64
2, 236976, Note_on_c, 0, 81, 82
2, 237020, Note_off_c, 0, 81, 64
2, 237024, Note_on_c, 0, 79, 82
2, 237068, Note_off_c, 0, 79, 64
2, 237072, Note_on_c, 0, 81, 82
2, 237116, Note_off_c, 0, 81, 64
2, 237120, Note_on_c, 0, 79, 82
2, 237164, Note_off_c, 0, 79, 64
2, 237168, Note_on_c, 0, 81, 82
2, 237212, Note_off_c, 0, 81, 64
2, 237216, Note_on_c, 0, 79, 82
2, 237260, Note_off_c, 0, 79, 64
2, 237264, Note_on_c, 0, 81, 82
2, 237308, Note_off_c, 0, 81, 64
2, 237312, Note_on_c, 0, 79, 82
2, 237356, Note_off_c, 0, 79, 64
2, 237360, Note_on_c, 0, 81, 82
2, 237404, Note_off_c, 0, 81, 64
2, 237408, Note_on_c, 0, 79, 82
2, 237452, Note_off_c, 0, 79, 64
2, 237456, Note_on_c, 0, 81, 82
2, 237500, Note_off_c, 0, 81, 64
2, 237504, Note_on_c, 0, 78, 82
2, 237592, Note_off_c, 0, 78, 64
2, 237600, Note_on_c, 0, 79, 82
2, 237688, Note_off_c, 0, 79, 64
2, 237696, Note_on_c, 0, 73, 82
2, 238068, Control_c, 0, 1, 55
2, 238076, Note_off_c, 0, 73, 64
2, 238080, Note_on_c, 0, 76, 82
2, 238464, Note_off_c, 0, 76, 64
2, 238464, Note_on_c, 0, 74, 82
2, 238840, Note_off_c, 0, 74, 64
2, 239616, Note_on_c, 0, 79, 82
2, 239616, Note_on_c, 0, 71, 82
2, 239616, Note_on_c, 0, 62, 82
2, 239996, Note_off_c, 0, 79, 64
2, 239996, Note_off_c, 0, 71, 64
2, 239996, Note_off_c, 0, 62, 64
2, 240000, Note_on_c, 0, 79, 63
2, 240572, Note_off_c, 0, 79, 64
2, 240576, Note_on_c, 0, 78, 63
2, 240672, Note_off_c, 0, 78, 64
2, 240672, Note_on_c, 0, 79, 63
2, 240760, Note_off_c, 0, 79, 64
2, 240768, Note_on_c, 0, 78, 63
2, 240864, Note_off_c, 0, 78, 64
2, 240864, Note_on_c, 0, 79, 63
2, 240952, Note_off_c, 0, 79, 64
2, 240960, Note_on_c, 0, 78, 63
2, 241056, Note_off_c, 0, 78, 64
2, 241056, Note_on_c, 0, 79, 63
2, 241144, Note_off_c, 0, 79, 64
2, 241152, Note_on_c, 0, 76, 73
2, 241244, Note_off_c, 0, 76, 64
2, 241248, Note_on_c, 0, 74, 63
2, 241536, Note_off_c, 0, 74, 64
2, 241536, Note_on_c, 0, 74, 63
2, 242108, Note_off_c, 0, 74, 64
2, 242112, Note_on_c, 0, 73, 63
2, 242208, Note_off_c, 0, 73, 64
2, 242208, Note_on_c, 0, 74, 63
2, 242296, Note_off_c, 0, 74, 64
2, 242304, Note_on_c, 0, 73, 63
2, 242400, Note_off_c, 0, 73, 64
2, 242400, Note_on_c, 0, 74, 63
2, 242488, Note_off_c, 0, 74, 64
2, 242496, Note_on_c, 0, 73, 63
2, 242592, Note_off_c, 0, 73, 64
2, 242592, Note_on_c, 0, 74, 63
2, 242680, Note_off_c, 0, 74, 64
2, 242688, Note_on_c, 0, 72, 63
2, 242880, Note_off_c, 0, 72, 64
2, 242880, Note_on_c, 0, 71, 63
2, 243064, Note_off_c, 0, 71, 64
2, 243072, Note_on_c, 0, 71, 63
2, 243648, Note_off_c, 0, 71, 64
2, 243648, Note_on_c, 0, 72, 63
2, 243692, Note_off_c, 0, 72, 64
2, 243696, Note_on_c, 0, 74, 63
2, 243740, Note_off_c, 0, 74, 64
2, 243744, Note_on_c, 0, 71, 63
2, 243788, Note_off_c, 0, 71, 64
2, 243792, Note_on_c, 0, 72, 63
2, 243836, Note_off_c, 0, 72, 64
2, 243840, Note_on_c, 0, 74, 63
2, 243940, Note_off_c, 0, 74, 64
2, 244032, Note_on_c, 0, 76, 63
2, 244132, Note_off_c, 0, 76, 64
2, 244224, Note_on_c, 0, 67, 63
2, 244416, Note_off_c, 0, 67, 64
2, 244416, Note_on_c, 0, 66, 63
2, 244600, Note_off_c, 0, 66, 64
2, 244608, Note_on_c, 0, 66, 63
2, 244796, Note_off_c, 0, 66, 64
2, 245748, Control_c, 0, 1, 55
2, 245760, Note_on_c, 0, 81, 73
2, 245760, Note_on_c, 0, 69, 73
2, 245760, Note_on_c, 0, 62, 73
2, 246140, Note_off_c, 0, 69, 64
2, 246140, Note_off_c, 0, 62, 64
2, 246624, Note_off_c, 0, 81, 64
2, 246624, Note_on_c, 0, 79, 73
2, 246716, Note_off_c, 0, 79, 64
2, 246720, Note_on_c, 0, 78, 73
2, 246812, Note_off_c, 0, 78, 64
2, 246816, Note_on_c, 0, 79, 73
2, 246904, Note_off_c, 0, 79, 64
2, 246912, Note_on_c, 0, 81, 73
2, 247008, Note_off_c, 0, 81, 64
2, 247008, Note_on_c, 0, 83, 73
2, 247100, Note_off_c, 0, 83, 64
2, 247104, Note_on_c, 0, 81, 73
2, 247196, Note_off_c, 0, 81, 64
2, 247200, Note_on_c, 0, 83, 73
2, 247288, Note_off_c, 0, 83, 64
2, 247296, Note_on_c, 0, 84, 73
2, 247584, Note_off_c, 0, 84, 64
2, 247584, Note_on_c, 0, 81, 73
2, 247676, Note_off_c, 0, 81, 64
2, 247680, Note_on_c, 0, 84, 73
2, 248352, Note_off_c, 0, 84, 64
2, 248352, Note_on_c, 0, 81, 73
2, 248444, Note_off_c, 0, 81, 64
2, 248448, Note_on_c, 0, 84, 73
2, 249020, Note_off_c, 0, 84, 64
2, 249024, Note_on_c, 0, 83, 71
2, 249216, Note_off_c, 0, 83, 64
2, 249216, Note_on_c, 0, 81, 69
2, 249408, Note_off_c, 0, 81, 64
2, 249408, Note_on_c, 0, 83, 68
2, 249600, Note_off_c, 0, 83, 64
2, 249600, Note_on_c, 0, 81, 67
2, 249700, Note_off_c, 0, 81, 64
2, 249792, Note_on_c, 0, 79, 66
2, 249892, Note_off_c, 0, 79, 64
2, 249984, Note_on_c, 0, 78, 65
2, 250084, Note_off_c, 0, 78, 64
2, 250176, Note_on_c, 0, 76, 64
2, 250276, Note_off_c, 0, 76, 64
2, 250356, Control_c, 0, 1, 55
2, 250368, Note_on_c, 0, 74, 63
2, 250940, Note_off_c, 0, 74, 64
2, 250944, Note_on_c, 0, 76, 63
2, 251132, Note_off_c, 0, 76, 64
2, 251136, Note_on_c, 0, 72, 63
2, 251708, Note_off_c, 0, 72, 64
2, 251712, Note_on_c, 0, 74, 63
2, 251900, Note_off_c, 0, 74, 64
2, 251904, Note_on_c, 0, 71, 63
2, 252480, Note_off_c, 0, 71, 64
2, 252480, Note_on_c, 0, 72, 63
2, 252664, Note_off_c, 0, 72, 64
2, 252672, Note_on_c, 0, 69, 63
2, 253248, Note_off_c, 0, 69, 64
2, 253248, Note_on_c, 0, 76, 63
2, 253432, Note_off_c, 0, 76, 64
2, 253440, Note_on_c, 0, 76, 72
2, 253532, Note_off_c, 0, 76, 64
2, 253536, Note_on_c, 0, 67, 63
2, 254592, Note_off_c, 0, 67, 64
2, 254592, Note_on_c, 0, 71, 63
2, 254784, Note_off_c, 0, 71, 64
2, 254784, Note_on_c, 0, 69, 63
2, 254968, Note_off_c, 0, 69, 64
2, 254976, Note_on_c, 0, 67, 63
2, 255356, Note_off_c, 0, 67, 64
2, 255456, Note_on_c, 0, 62, 72
2, 255548, Note_off_c, 0, 62, 64
2, 255552, Note_on_c, 0, 71, 63
2, 255644, Note_off_c, 0, 71, 64
2, 255648, Note_on_c, 0, 74, 63
2, 255740, Note_off_c, 0, 74, 64
2, 255744, Note_on_c, 0, 74, 63
2, 255836, Note_off_c, 0, 74, 64
2, 255840, Note_on_c, 0, 72, 63
2, 255932, Note_off_c, 0, 72, 64
2, 255936, Note_on_c, 0, 71, 63
2, 256028, Note_off_c, 0, 71, 64
2, 256032, Note_on_c, 0, 69, 63
2, 256124, Note_off_c, 0, 69, 64
2, 256128, Note_on_c, 0, 79, 63
2, 256128, Note_on_c, 0, 79, 63
2, 256220, Note_off_c, 0, 79, 64
2, 256220, Note_off_c, 0, 79, 64
2, 256224, Note_on_c, 0, 78, 63
2, 256316, Note_off_c, 0, 78, 64
2, 256320, Note_on_c, 0, 76, 63
2, 256412, Note_off_c, 0, 76, 64
2, 256416, Note_on_c, 0, 78, 63
2, 256508, Note_off_c, 0, 78, 64
2, 256512, Note_on_c, 0, 79, 63
2, 256700, Note_off_c, 0, 79, 64
2, 256704, Note_on_c, 0, 83, 63
2, 256892, Note_off_c, 0, 83, 64
2, 256992, Note_on_c, 0, 62, 63
2, 257084, Note_off_c, 0, 62, 64
2, 257088, Note_on_c, 0, 71, 63
2, 257180, Note_off_c, 0, 71, 64
2, 257184, Note_on_c, 0, 74, 63
2, 257276, Note_off_c, 0, 74, 64
2, 257280, Note_on_c, 0, 74, 63
2, 257372, Note_off_c, 0, 74, 64
2, 257376, Note_on_c, 0, 72, 63
2, 257468, Note_off_c, 0, 72, 64
2, 257472, Note_on_c, 0, 71, 63
2, 257564, Note_off_c, 0, 71, 64
2, 257568, Note_on_c, 0, 69, 63
2, 257660, Note_off_c, 0, 69, 64
2, 257664, Note_on_c, 0, 79, 63
2, 257756, Note_off_c, 0, 79, 64
2, 257760, Note_on_c, 0, 78, 63
2, 257852, Note_off_c, 0, 78, 64
2, 257856, Note_on_c, 0, 76, 63
2, 257948, Note_off_c, 0, 76, 64
2, 257952, Note_on_c, 0, 78, 63
2, 258044, Note_off_c, 0, 78, 64
2, 258048, Note_on_c, 0, 79, 82
2, 258428, Note_off_c, 0, 79, 64
2, 258624, Note_on_c, 0, 71, 82
2, 258624, Note_on_c, 0, 62, 82
2, 258624, Note_on_c, 0, 55, 82
2, 258812, Note_off_c, 0, 71, 64
2, 258812, Note_off_c, 0, 62, 64
2, 258812, Note_off_c, 0, 55, 64
2, 258816, Note_on_c, 0, 72, 82
2, 258816, Note_on_c, 0, 64, 82
2, 258816, Note_on_c, 0, 55, 82
2, 259196, Note_off_c, 0, 72, 64
2, 259196, Note_off_c, 0, 64, 64
2, 259196, Note_off_c, 0, 55, 64
2, 259392, Note_on_c, 0, 72, 82
2, 259392, Note_on_c, 0, 64, 82
2, 259392, Note_on_c, 0, 55, 82
2, 259580, Note_off_c, 0, 72, 64
2, 259580, Note_off_c, 0, 64, 64
2, 259580, Note_off_c, 0, 55, 64
2, 259584, Note_on_c, 0, 74, 82
2, 259584, Note_on_c, 0, 62, 82
2, 259584, Note_on_c, 0, 55, 82
2, 259964, Note_off_c, 0, 74, 64
2, 259964, Note_off_c, 0, 62, 64
2, 259964, Note_off_c, 0, 55, 64
2, 260160, Note_on_c, 0, 74, 82
2, 260160, Note_on_c, 0, 86, 82
2, 260160, Note_on_c, 0, 62, 82
2, 260348, Note_off_c, 0, 74, 64
2, 260348, Note_off_c, 0, 86, 64
2, 260348, Note_off_c, 0, 62, 64
2, 260352, Note_on_c, 0, 84, 82
2, 260352, Note_on_c, 0, 74, 82
2, 260352, Note_on_c, 0, 62, 82
2, 260732, Note_off_c, 0, 84, 64
2, 260732, Note_off_c, 0, 74, 64
2, 260732, Note_off_c, 0, 62, 64
2, 260928, Note_on_c, 0, 84, 82
2, 260928, Note_on_c, 0, 74, 82
2, 260928, Note_on_c, 0, 62, 82
2, 261116, Note_off_c, 0, 84, 64
2, 261116, Note_off_c, 0, 74, 64
2, 261116, Note_off_c, 0, 62, 64
2, 261120, Note_on_c, 0, 83, 82
2, 261120, Note_on_c, 0, 74, 82
2, 261120, Note_on_c, 0, 62, 82
2, 261500, Note_off_c, 0, 83, 64
2, 261500, Note_off_c, 0, 74, 64
2, 261500, Note_off_c, 0, 62, 64
2, 262272, Note_on_c, 0, 79, 82
2, 262272, Note_on_c, 0, 69, 82
2, 262272, Note_on_c, 0, 64, 82
2, 262272, Note_on_c, 0, 61, 82
2, 262652, Note_off_c, 0, 79, 64
2, 262652, Note_off_c, 0, 69, 64
2, 262652, Note_off_c, 0, 64, 64
2, 262652, Note_off_c, 0, 61, 64
2, 262656, Note_on_c, 0, 74, 68
2, 263036, Note_off_c, 0, 74, 64
2, 263040, Note_on_c, 0, 74, 68
2, 263420, Note_off_c, 0, 74, 64
2, 268788, Control_c, 0, 1, 55
2, 268788, Control_c, 0, 1, 55
2, 268800, Note_on_c, 0, 79, 73
2, 268800, Note_on_c, 0, 71, 73
2, 268800, Note_on_c, 0, 62, 73
2, 269180, Note_off_c, 0, 79, 64
2, 269180, Note_off_c, 0, 71, 64
2, 269180, Note_off_c, 0, 62, 64
2, 269184, Note_on_c, 0, 79, 63
2, 269756, Note_off_c, 0, 79, 64
2, 269760, Note_on_c, 0, 78, 63
2, 269856, Note_off_c, 0, 78, 64
2, 269856, Note_on_c, 0, 79, 63
2, 269944, Note_off_c, 0, 79, 64
2, 269952, Note_on_c, 0, 78, 63
2, 270048, Note_off_c, 0, 78, 64
2, 270048, Note_on_c, 0, 79, 63
2, 270136, Note_off_c, 0, 79, 64
2, 270144, Note_on_c, 0, 78, 63
2, 270240, Note_off_c, 0, 78, 64
2, 270240, Note_on_c, 0, 79, 63
2, 270328, Note_off_c, 0, 79, 64
2, 270336, Note_on_c, 0, 76, 88
2, 270428, Note_off_c, 0, 76, 64
2, 270432, Note_on_c, 0, 74, 82
2, 270716, Note_off_c, 0, 74, 64
2, 270720, Note_on_c, 0, 74, 63
2, 271292, Note_off_c, 0, 74, 64
2, 271296, Note_on_c, 0, 73, 63
2, 271388, Note_off_c, 0, 73, 64
2, 271392, Note_on_c, 0, 74, 63
2, 271484, Note_off_c, 0, 74, 64
2, 271488, Note_on_c, 0, 73, 63
2, 271580, Note_off_c, 0, 73, 64
2, 271584, Note_on_c, 0, 74, 63
2, 271676, Note_off_c, 0, 74, 64
2, 271680, Note_on_c, 0, 73, 63
2, 271772, Note_off_c, 0, 73, 64
2, 271776, Note_on_c, 0, 74, 63
2, 271868, Note_off_c, 0, 74, 64
2, 271872, Note_on_c, 0, 72, 63
2, 272060, Note_off_c, 0, 72, 64
2, 272064, Note_on_c, 0, 71, 63
2, 272252, Note_off_c, 0, 71, 64
2, 272256, Note_on_c, 0, 71, 63
2, 272828, Note_off_c, 0, 71, 64
2, 272832, Note_on_c, 0, 72, 63
2, 272876, Note_off_c, 0, 72, 64
2, 272880, Note_on_c, 0, 74, 63
2, 272924, Note_off_c, 0, 74, 64
2, 272928, Note_on_c, 0, 71, 63
2, 272972, Note_off_c, 0, 71, 64
2, 272976, Note_on_c, 0, 72, 63
2, 273020, Note_off_c, 0, 72, 64
2, 273024, Note_on_c, 0, 74, 63
2, 273212, Note_off_c, 0, 74, 64
2, 273216, Note_on_c, 0, 76, 63
2, 273404, Note_off_c, 0, 76, 64
2, 273408, Note_on_c, 0, 67, 63
2, 273596, Note_off_c, 0, 67, 64
2, 273600, Note_on_c, 0, 66, 63
2, 273788, Note_off_c, 0, 66, 64
2, 273792, Note_on_c, 0, 66, 63
2, 274172, Note_off_c, 0, 66, 64
2, 274944, Note_on_c, 0, 81, 77
2, 274944, Note_on_c, 0, 69, 77
2, 274944, Note_on_c, 0, 62, 77
2, 275324, Note_off_c, 0, 69, 64
2, 275324, Note_off_c, 0, 62, 64
2, 275708, Note_off_c, 0, 81, 64
2, 275712, Note_on_c, 0, 81, 63
2, 275808, Note_off_c, 0, 81, 64
2, 275808, Note_on_c, 0, 79, 63
2, 275900, Note_off_c, 0, 79, 64
2, 275904, Note_on_c, 0, 78, 63
2, 275996, Note_off_c, 0, 78, 64
2, 276000, Note_on_c, 0, 79, 63
2, 276088, Note_off_c, 0, 79, 64
2, 276096, Note_on_c, 0, 81, 63
2, 276192, Note_off_c, 0, 81, 64
2, 276192, Note_on_c, 0, 83, 63
2, 276284, Note_off_c, 0, 83, 64
2, 276288, Note_on_c, 0, 81, 63
2, 276380, Note_off_c, 0, 81, 64
2, 276384, Note_on_c, 0, 83, 63
2, 276472, Note_off_c, 0, 83, 64
2, 276480, Note_on_c, 0, 84, 63
2, 276768, Note_off_c, 0, 84, 64
2, 276768, Note_on_c, 0, 81, 63
2, 276856, Note_off_c, 0, 81, 64
2, 276864, Note_on_c, 0, 84, 63
2, 277536, Note_off_c, 0, 84, 64
2, 277536, Note_on_c, 0, 81, 63
2, 277624, Note_off_c, 0, 81, 64
2, 277632, Note_on_c, 0, 84, 63
2, 278204, Note_off_c, 0, 84, 64
2, 278208, Note_on_c, 0, 83, 60
2, 278396, Note_off_c, 0, 83, 64
2, 278400, Note_on_c, 0, 81, 59
2, 278500, Note_off_c, 0, 81, 64
2, 278592, Note_on_c, 0, 83, 57
2, 278692, Note_off_c, 0, 83, 64
2, 278784, Note_on_c, 0, 81, 55
2, 278884, Note_off_c, 0, 81, 64
2, 278976, Note_on_c, 0, 79, 53
2, 279076, Note_off_c, 0, 79, 64
2, 279168, Note_on_c, 0, 78, 51
2, 279268, Note_off_c, 0, 78, 64
2, 279360, Note_on_c, 0, 76, 49
2, 279460, Note_off_c, 0, 76, 64
2, 279552, Note_on_c, 0, 74, 51
2, 280128, Note_off_c, 0, 74, 64
2, 280128, Note_on_c, 0, 76, 57
2, 280312, Note_off_c, 0, 76, 64
2, 280320, Note_on_c, 0, 72, 59
2, 280896, Note_off_c, 0, 72, 64
2, 280896, Note_on_c, 0, 74, 65
2, 281080, Note_off_c, 0, 74, 64
2, 281088, Note_on_c, 0, 71, 67
2, 281664, Note_off_c, 0, 71, 64
2, 281664, Note_on_c, 0, 72, 73
2, 281848, Note_off_c, 0, 72, 64
2, 281856, Note_on_c, 0, 69, 75
2, 282432, Note_off_c, 0, 69, 64
2, 282432, Note_on_c, 0, 76, 80
2, 282616, Note_off_c, 0, 76, 64
2, 282624, Note_on_c, 0, 76, 88
2, 282676, Note_off_c, 0, 76, 64
2, 282680, Note_on_c, 0, 67, 82
2, 283724, Note_off_c, 0, 67, 64
2, 283776, Note_on_c, 0, 71, 88
2, 283840, Note_off_c, 0, 71, 64
2, 283844, Note_on_c, 0, 69, 82
2, 284108, Note_off_c, 0, 69, 64
2, 284160, Note_on_c, 0, 67, 82
2, 284540, Note_off_c, 0, 67, 64
2, 288756, Control_c, 0, 1, 55
2, 288768, Note_on_c, 0, 79, 68
2, 289532, Note_off_c, 0, 79, 64
2, 289536, Note_on_c, 0, 83, 68
2, 289916, Note_off_c, 0, 83, 64
2, 289920, Note_on_c, 0, 86, 68
2, 290300, Note_off_c, 0, 86, 64
2, 290304, Note_on_c, 0, 86, 68
2, 291068, Note_off_c, 0, 86, 64
2, 291072, Note_on_c, 0, 85, 68
2, 291168, Note_off_c, 0, 85, 64
2, 291168, Note_on_c, 0, 86, 68
2, 291260, Note_off_c, 0, 86, 64
2, 291264, Note_on_c, 0, 85, 68
2, 291356, Note_off_c, 0, 85, 64
2, 291360, Note_on_c, 0, 86, 68
2, 291448, Note_off_c, 0, 86, 64
2, 291456, Note_on_c, 0, 88, 77
2, 291504, Note_off_c, 0, 88, 64
2, 291508, Note_on_c, 0, 86, 68
2, 291636, Note_off_c, 0, 86, 64
2, 291648, Note_on_c, 0, 85, 68
2, 291740, Note_off_c, 0, 85, 64
2, 291744, Note_on_c, 0, 83, 68
2, 291836, Note_off_c, 0, 83, 64
2, 291840, Note_on_c, 0, 81, 77
2, 291888, Note_off_c, 0, 81, 64
2, 291892, Note_on_c, 0, 80, 68
2, 292204, Note_off_c, 0, 80, 64
2, 292224, Note_on_c, 0, 81, 68
2, 292600, Note_off_c, 0, 81, 64
2, 292608, Note_on_c, 0, 73, 68
2, 292704, Note_off_c, 0, 73, 64
2, 292704, Note_on_c, 0, 74, 68
2, 292796, Note_off_c, 0, 74, 64
2, 292800, Note_on_c, 0, 73, 68
2, 292892, Note_off_c, 0, 73, 64
2, 292896, Note_on_c, 0, 74, 68
2, 292984, Note_off_c, 0, 74, 64
2, 292992, Note_on_c, 0, 76, 77
2, 293040, Note_off_c, 0, 76, 64
2, 293044, Note_on_c, 0, 74, 68
2, 293180, Note_off_c, 0, 74, 64
2, 293184, Note_on_c, 0, 72, 68
2, 293276, Note_off_c, 0, 72, 64
2, 293280, Note_on_c, 0, 71, 68
2, 293372, Note_off_c, 0, 71, 64
2, 293376, Note_on_c, 0, 69, 77
2, 293424, Note_off_c, 0, 69, 64
2, 293428, Note_on_c, 0, 68, 68
2, 293740, Note_off_c, 0, 68, 64
2, 293760, Note_on_c, 0, 69, 68
2, 294136, Note_off_c, 0, 69, 64
2, 294432, Note_on_c, 0, 76, 68
2, 294524, Note_off_c, 0, 76, 64
2, 294528, Note_on_c, 0, 81, 68
2, 294720, Note_off_c, 0, 81, 64
2, 294720, Note_on_c, 0, 83, 68
2, 294904, Note_off_c, 0, 83, 64
2, 294912, Note_on_c, 0, 83, 68
2, 295104, Note_off_c, 0, 83, 64
2, 295104, Note_on_c, 0, 84, 68
2, 295288, Note_off_c, 0, 84, 64
2, 295296, Note_on_c, 0, 84, 68
2, 295868, Note_off_c, 0, 84, 64
2, 295872, Note_on_c, 0, 86, 68
2, 295920, Note_off_c, 0, 86, 64
2, 295968, Note_on_c, 0, 88, 68
2, 296016, Note_off_c, 0, 88, 64
2, 296064, Note_on_c, 0, 86, 68
2, 296160, Note_off_c, 0, 86, 64
2, 296160, Note_on_c, 0, 84, 68
2, 296248, Note_off_c, 0, 84, 64
2, 296256, Note_on_c, 0, 83, 68
2, 296304, Note_off_c, 0, 83, 64
2, 296352, Note_on_c, 0, 81, 68
2, 296400, Note_off_c, 0, 81, 64
2, 296448, Note_on_c, 0, 79, 71
2, 296640, Note_off_c, 0, 79, 64
2, 296640, Note_on_c, 0, 78, 68
2, 296824, Note_off_c, 0, 78, 64
2, 297216, Note_on_c, 0, 78, 71
2, 297408, Note_off_c, 0, 78, 64
2, 297408, Note_on_c, 0, 79, 68
2, 297592, Note_off_c, 0, 79, 64
2, 297984, Note_on_c, 0, 80, 71
2, 298176, Note_off_c, 0, 80, 64
2, 298176, Note_on_c, 0, 81, 68
2, 298360, Note_off_c, 0, 81, 64
2, 298752, Note_on_c, 0, 81, 68
2, 298848, Note_off_c, 0, 81, 64
2, 298848, Note_on_c, 0, 84, 68
2, 298940, Note_off_c, 0, 84, 64
2, 298944, Note_on_c, 0, 83, 68
2, 299036, Note_off_c, 0, 83, 64
2, 299040, Note_on_c, 0, 86, 68
2, 299128, Note_off_c, 0, 86, 64
2, 299136, Note_on_c, 0, 84, 68
2, 299324, Note_off_c, 0, 84, 64
2, 299328, Note_on_c, 0, 72, 68
2, 299428, Note_off_c, 0, 72, 64
2, 299520, Note_on_c, 0, 71, 68
2, 299620, Note_off_c, 0, 71, 64
2, 299712, Note_on_c, 0, 86, 68
2, 299900, Note_off_c, 0, 86, 64
2, 299904, Note_on_c, 0, 84, 68
2, 300092, Note_off_c, 0, 84, 64
2, 300096, Note_on_c, 0, 83, 68
2, 300284, Note_off_c, 0, 83, 64
2, 300288, Note_on_c, 0, 81, 68
2, 300476, Note_off_c, 0, 81, 64
2, 300480, Note_on_c, 0, 79, 68
2, 300668, Note_off_c, 0, 79, 64
2, 300672, Note_on_c, 0, 78, 68
2, 300860, Note_off_c, 0, 78, 64
2, 300864, Note_on_c, 0, 77, 68
2, 301052, Note_off_c, 0, 77, 64
2, 301056, Note_on_c, 0, 76, 68
2, 302012, Note_off_c, 0, 76, 64
2, 302016, Note_on_c, 0, 78, 68
2, 302108, Note_off_c, 0, 78, 64
2, 302112, Note_on_c, 0, 80, 68
2, 302204, Note_off_c, 0, 80, 64
2, 302208, Note_on_c, 0, 81, 68
2, 302300, Note_off_c, 0, 81, 64
2, 302304, Note_on_c, 0, 83, 68
2, 302396, Note_off_c, 0, 83, 64
2, 302400, Note_on_c, 0, 84, 68
2, 302492, Note_off_c, 0, 84, 64
2, 302496, Note_on_c, 0, 86, 68
2, 302588, Note_off_c, 0, 86, 64
2, 302592, Note_on_c, 0, 88, 82
2, 302688, Note_off_c, 0, 88, 64
2, 302688, Note_on_c, 0, 87, 82
2, 302780, Note_off_c, 0, 87, 64
2, 302784, Note_on_c, 0, 88, 82
2, 302876, Note_off_c, 0, 88, 64
2, 302880, Note_on_c, 0, 83, 82
2, 302972, Note_off_c, 0, 83, 64
2, 302976, Note_on_c, 0, 84, 82
2, 303068, Note_off_c, 0, 84, 64
2, 303072, Note_on_c, 0, 83, 82
2, 303164, Note_off_c, 0, 83, 64
2, 303168, Note_on_c, 0, 84, 82
2, 303260, Note_off_c, 0, 84, 64
2, 303264, Note_on_c, 0, 80, 82
2, 303352, Note_off_c, 0, 80, 64
2, 303360, Note_on_c, 0, 81, 63
2, 303456, Note_off_c, 0, 81, 64
2, 303456, Note_on_c, 0, 80, 63
2, 303548, Note_off_c, 0, 80, 64
2, 303552, Note_on_c, 0, 81, 63
2, 303644, Note_off_c, 0, 81, 64
2, 303648, Note_on_c, 0, 76, 63
2, 303740, Note_off_c, 0, 76, 64
2, 303744, Note_on_c, 0, 84, 63
2, 303836, Note_off_c, 0, 84, 64
2, 303840, Note_on_c, 0, 83, 63
2, 303932, Note_off_c, 0, 83, 64
2, 303936, Note_on_c, 0, 84, 63
2, 304028, Note_off_c, 0, 84, 64
2, 304032, Note_on_c, 0, 81, 63
2, 304120, Note_off_c, 0, 81, 64
2, 304128, Note_on_c, 0, 88, 82
2, 304224, Note_off_c, 0, 88, 64
2, 304224, Note_on_c, 0, 87, 82
2, 304316, Note_off_c, 0, 87, 64
2, 304320, Note_on_c, 0, 88, 82
2, 304412, Note_off_c, 0, 88, 64
2, 304416, Note_on_c, 0, 83, 82
2, 304508, Note_off_c, 0, 83, 64
2, 304512, Note_on_c, 0, 84, 82
2, 304604, Note_off_c, 0, 84, 64
2, 304608, Note_on_c, 0, 83, 82
2, 304700, Note_off_c, 0, 83, 64
2, 304704, Note_on_c, 0, 84, 82
2, 304796, Note_off_c, 0, 84, 64
2, 304800, Note_on_c, 0, 80, 82
2, 304888, Note_off_c, 0, 80, 64
2, 304896, Note_on_c, 0, 81, 63
2, 304992, Note_off_c, 0, 81, 64
2, 304992, Note_on_c, 0, 80, 63
2, 305084, Note_off_c, 0, 80, 64
2, 305088, Note_on_c, 0, 81, 63
2, 305180, Note_off_c, 0, 81, 64
2, 305184, Note_on_c, 0, 76, 63
2, 305272, Note_off_c, 0, 76, 64
2, 305280, Note_on_c, 0, 84, 63
2, 305376, Note_off_c, 0, 84, 64
2, 305376, Note_on_c, 0, 83, 63
2, 305468, Note_off_c, 0, 83, 64
2, 305472, Note_on_c, 0, 84, 63
2, 305564, Note_off_c, 0, 84, 64
2, 305568, Note_on_c, 0, 81, 63
2, 305656, Note_off_c, 0, 81, 64
2, 305664, Note_on_c, 0, 87, 88
2, 305716, Note_off_c, 0, 87, 64
2, 305720, Note_on_c, 0, 88, 82
2, 306020, Note_off_c, 0, 88, 64
2, 306048, Note_on_c, 0, 86, 88
2, 306100, Note_off_c, 0, 86, 64
2, 306104, Note_on_c, 0, 84, 82
2, 306404, Note_off_c, 0, 84, 64
2, 306432, Note_on_c, 0, 83, 88
2, 306484, Note_off_c, 0, 83, 64
2, 306488, Note_on_c, 0, 81, 82
2, 306988, Note_off_c, 0, 81, 64
2, 307008, Note_on_c, 0, 79, 82
2, 307052, Note_off_c, 0, 79, 64
2, 307056, Note_on_c, 0, 81, 82
2, 307100, Note_off_c, 0, 81, 64
2, 307104, Note_on_c, 0, 78, 82
2, 307148, Note_off_c, 0, 78, 64
2, 307152, Note_on_c, 0, 79, 82
2, 307196, Note_off_c, 0, 79, 64
2, 307200, Note_on_c, 0, 78, 82
2, 307580, Note_off_c, 0, 78, 64
2, 308724, Control_c, 0, 1, 55
2, 309312, Note_on_c, 0, 86, 73
2, 309360, Note_off_c, 0, 86, 64
2, 309408, Note_on_c, 0, 86, 73
2, 309456, Note_off_c, 0, 86, 64
2, 309504, Note_on_c, 0, 86, 73
2, 309604, Note_off_c, 0, 86, 64
2, 309696, Note_on_c, 0, 85, 73
2, 309796, Note_off_c, 0, 85, 64
2, 309888, Note_on_c, 0, 86, 73
2, 309988, Note_off_c, 0, 86, 64
2, 310080, Note_on_c, 0, 85, 73
2, 310180, Note_off_c, 0, 85, 64
2, 310272, Note_on_c, 0, 86, 73
2, 310652, Note_off_c, 0, 86, 64
2, 310848, Note_on_c, 0, 79, 73
2, 311036, Note_off_c, 0, 79, 64
2, 311040, Note_on_c, 0, 74, 73
2, 311228, Note_off_c, 0, 74, 64
2, 311232, Note_on_c, 0, 83, 73
2, 311420, Note_off_c, 0, 83, 64
2, 311424, Note_on_c, 0, 79, 73
2, 311612, Note_off_c, 0, 79, 64
2, 311616, Note_on_c, 0, 88, 73
2, 311804, Note_off_c, 0, 88, 64
2, 311808, Note_on_c, 0, 86, 73
2, 311996, Note_off_c, 0, 86, 64
2, 312000, Note_on_c, 0, 84, 73
2, 312188, Note_off_c, 0, 84, 64
2, 312384, Note_on_c, 0, 84, 73
2, 312432, Note_off_c, 0, 84, 64
2, 312480, Note_on_c, 0, 84, 73
2, 312528, Note_off_c, 0, 84, 64
2, 312576, Note_on_c, 0, 84, 73
2, 312676, Note_off_c, 0, 84, 64
2, 312768, Note_on_c, 0, 83, 73
2, 312868, Note_off_c, 0, 83, 64
2, 312960, Note_on_c, 0, 84, 73
2, 313060, Note_off_c, 0, 84, 64
2, 313152, Note_on_c, 0, 83, 73
2, 313252, Note_off_c, 0, 83, 64
2, 313344, Note_on_c, 0, 84, 73
2, 313724, Note_off_c, 0, 84, 64
2, 313920, Note_on_c, 0, 81, 73
2, 314108, Note_off_c, 0, 81, 64
2, 314112, Note_on_c, 0, 84, 73
2, 314300, Note_off_c, 0, 84, 64
2, 314304, Note_on_c, 0, 78, 73
2, 314492, Note_off_c, 0, 78, 64
2, 314496, Note_on_c, 0, 81, 73
2, 314684, Note_off_c, 0, 81, 64
2, 314688, Note_on_c, 0, 69, 73
2, 314876, Note_off_c, 0, 69, 64
2, 314880, Note_on_c, 0, 72, 73
2, 315072, Note_off_c, 0, 72, 64
2, 315072, Note_on_c, 0, 71, 73
2, 315256, Note_off_c, 0, 71, 64
2, 315456, Note_on_c, 0, 86, 73
2, 315504, Note_off_c, 0, 86, 64
2, 315552, Note_on_c, 0, 83, 73
2, 315600, Note_off_c, 0, 83, 64
2, 315648, Note_on_c, 0, 79, 73
2, 315744, Note_off_c, 0, 79, 64
2, 315744, Note_on_c, 0, 74, 73
2, 315832, Note_off_c, 0, 74, 64
2, 315840, Note_on_c, 0, 71, 73
2, 315888, Note_off_c, 0, 71, 64
2, 315936, Note_on_c, 0, 67, 73
2, 315984, Note_off_c, 0, 67, 64
2, 316032, Note_on_c, 0, 72, 73
2, 316128, Note_off_c, 0, 72, 64
2, 316128, Note_on_c, 0, 69, 73
2, 316216, Note_off_c, 0, 69, 64
2, 316224, Note_on_c, 0, 66, 73
2, 316272, Note_off_c, 0, 66, 64
2, 316320, Note_on_c, 0, 62, 73
2, 316368, Note_off_c, 0, 62, 64
2, 316416, Note_on_c, 0, 71, 73
2, 316512, Note_off_c, 0, 71, 64
2, 316512, Note_on_c, 0, 67, 73
2, 316600, Note_off_c, 0, 67, 64
2, 316608, Note_on_c, 0, 72, 73
2, 316704, Note_off_c, 0, 72, 64
2, 316704, Note_on_c, 0, 69, 73
2, 316792, Note_off_c, 0, 69, 64
2, 316800, Note_on_c, 0, 74, 73
2, 316988, Note_off_c, 0, 74, 64
2, 316992, Note_on_c, 0, 62, 73
2, 317040, Note_off_c, 0, 62, 64
2, 317088, Note_on_c, 0, 67, 73
2, 317136, Note_off_c, 0, 67, 64
2, 317184, Note_on_c, 0, 71, 73
2, 317280, Note_off_c, 0, 71, 64
2, 317280, Note_on_c, 0, 74, 73
2, 317368, Note_off_c, 0, 74, 64
2, 317376, Note_on_c, 0, 79, 73
2, 317424, Note_off_c, 0, 79, 64
2, 317472, Note_on_c, 0, 83, 73
2, 317520, Note_off_c, 0, 83, 64
2, 317568, Note_on_c, 0, 69, 73
2, 317664, Note_off_c, 0, 69, 64
2, 317664, Note_on_c, 0, 78, 73
2, 317752, Note_off_c, 0, 78, 64
2, 317760, Note_on_c, 0, 81, 73
2, 317808, Note_off_c, 0, 81, 64
2, 317856, Note_on_c, 0, 84, 73
2, 317904, Note_off_c, 0, 84, 64
2, 317952, Note_on_c, 0, 83, 73
2, 318048, Note_off_c, 0, 83, 64
2, 318048, Note_on_c, 0, 79, 73
2, 318136, Note_off_c, 0, 79, 64
2, 318144, Note_on_c, 0, 84, 73
2, 318240, Note_off_c, 0, 84, 64
2, 318240, Note_on_c, 0, 81, 73
2, 318328, Note_off_c, 0, 81, 64
2, 318336, Note_on_c, 0, 86, 73
2, 318436, Note_off_c, 0, 86, 64
2, 320064, Note_on_c, 0, 74, 73
2, 320160, Note_off_c, 0, 74, 64
2, 320160, Note_on_c, 0, 71, 73
2, 320248, Note_off_c, 0, 71, 64
2, 320256, Note_on_c, 0, 76, 73
2, 320352, Note_off_c, 0, 76, 64
2, 320352, Note_on_c, 0, 72, 73
2, 320440, Note_off_c, 0, 72, 64
2, 320448, Note_on_c, 0, 78, 73
2, 320544, Note_off_c, 0, 78, 64
2, 320544, Note_on_c, 0, 74, 73
2, 320632, Note_off_c, 0, 74, 64
2, 320640, Note_on_c, 0, 79, 73
2, 320736, Note_off_c, 0, 79, 64
2, 320736, Note_on_c, 0, 74, 73
2, 320824, Note_off_c, 0, 74, 64
2, 320832, Note_on_c, 0, 81, 73
2, 320928, Note_off_c, 0, 81, 64
2, 320928, Note_on_c, 0, 78, 73
2, 321016, Note_off_c, 0, 78, 64
2, 321024, Note_on_c, 0, 83, 73
2, 321120, Note_off_c, 0, 83, 64
2, 321120, Note_on_c, 0, 79, 73
2, 321208, Note_off_c, 0, 79, 64
2, 321216, Note_on_c, 0, 84, 73
2, 321312, Note_off_c, 0, 84, 64
2, 321312, Note_on_c, 0, 81, 73
2, 321400, Note_off_c, 0, 81, 64
2, 321408, Note_on_c, 0, 86, 73
2, 321504, Note_off_c, 0, 86, 64
2, 321504, Note_on_c, 0, 83, 73
2, 321592, Note_off_c, 0, 83, 64
2, 321600, Note_on_c, 0, 87, 73
2, 321696, Note_off_c, 0, 87, 64
2, 321696, Note_on_c, 0, 83, 73
2, 321784, Note_off_c, 0, 83, 64
2, 321792, Note_on_c, 0, 88, 73
2, 322176, Note_off_c, 0, 88, 64
2, 322176, Note_on_c, 0, 91, 73
2, 322552, Note_off_c, 0, 91, 64
2, 322560, Note_on_c, 0, 81, 73
2, 323324, Note_off_c, 0, 81, 64
2, 323328, Note_on_c, 0, 81, 73
2, 323420, Note_off_c, 0, 81, 64
2, 323424, Note_on_c, 0, 83, 73
2, 323516, Note_off_c, 0, 83, 64
2, 323520, Note_on_c, 0, 84, 73
2, 323612, Note_off_c, 0, 84, 64
2, 323616, Note_on_c, 0, 83, 73
2, 323708, Note_off_c, 0, 83, 64
2, 323712, Note_on_c, 0, 86, 77
2, 323804, Note_off_c, 0, 86, 64
2, 323808, Note_on_c, 0, 84, 73
2, 323900, Note_off_c, 0, 84, 64
2, 323904, Note_on_c, 0, 83, 73
2, 323996, Note_off_c, 0, 83, 64
2, 324000, Note_on_c, 0, 81, 73
2, 324092, Note_off_c, 0, 81, 64
2, 324096, Note_on_c, 0, 79, 73
2, 324476, Note_off_c, 0, 79, 64
2, 327156, Control_c, 0, 1, 55
2, 327168, Note_on_c, 0, 55, 73
2, 327932, Note_off_c, 0, 55, 64
2, 327936, Note_on_c, 0, 57, 73
2, 328700, Note_off_c, 0, 57, 64
2, 328704, Note_on_c, 0, 59, 73
2, 329084, Note_off_c, 0, 59, 64
2, 329088, Note_on_c, 0, 62, 73
2, 329140, Note_off_c, 0, 62, 64
2, 329144, Note_on_c, 0, 60, 73
2, 329460, Note_off_c, 0, 60, 64
2, 329472, Note_on_c, 0, 57, 73
2, 329852, Note_off_c, 0, 57, 64
2, 330240, Note_on_c, 0, 55, 74
2, 330428, Note_off_c, 0, 55, 64
2, 330432, Note_on_c, 0, 57, 75
2, 330524, Note_off_c, 0, 57, 64
2, 330528, Note_on_c, 0, 59, 75
2, 330620, Note_off_c, 0, 59, 64
2, 330624, Note_on_c, 0, 60, 76
2, 330716, Note_off_c, 0, 60, 64
2, 330720, Note_on_c, 0, 62, 76
2, 330812, Note_off_c, 0, 62, 64
2, 330816, Note_on_c, 0, 64, 76
2, 330908, Note_off_c, 0, 64, 64
2, 330912, Note_on_c, 0, 66, 77
2, 331004, Note_off_c, 0, 66, 64
2, 331008, Note_on_c, 0, 67, 78
2, 331100, Note_off_c, 0, 67, 64
2, 331104, Note_on_c, 0, 69, 78
2, 331196, Note_off_c, 0, 69, 64
2, 331200, Note_on_c, 0, 71, 79
2, 331292, Note_off_c, 0, 71, 64
2, 331296, Note_on_c, 0, 72, 79
2, 331388, Note_off_c, 0, 72, 64
2, 331392, Note_on_c, 0, 74, 80
2, 331484, Note_off_c, 0, 74, 64
2, 331488, Note_on_c, 0, 76, 81
2, 331580, Note_off_c, 0, 76, 64
2, 331584, Note_on_c, 0, 78, 81
2, 331676, Note_off_c, 0, 78, 64
2, 331680, Note_on_c, 0, 79, 82
2, 331772, Note_off_c, 0, 79, 64
2, 331776, Note_on_c, 0, 79, 82
2, 331964, Note_off_c, 0, 79, 64
2, 331968, Note_on_c, 0, 76, 82
2, 332060, Note_off_c, 0, 76, 64
2, 332160, Note_on_c, 0, 76, 82
2, 332348, Note_off_c, 0, 76, 64
2, 332352, Note_on_c, 0, 72, 82
2, 332444, Note_off_c, 0, 72, 64
2, 332544, Note_on_c, 0, 72, 82
2, 332732, Note_off_c, 0, 72, 64
2, 332736, Note_on_c, 0, 69, 82
2, 332924, Note_off_c, 0, 69, 64
2, 333312, Note_on_c, 0, 71, 86
2, 333408, Note_off_c, 0, 71, 64
2, 333408, Note_on_c, 0, 72, 82
2, 333496, Note_off_c, 0, 72, 64
2, 333504, Note_on_c, 0, 74, 86
2, 333600, Note_off_c, 0, 74, 64
2, 333600, Note_on_c, 0, 76, 82
2, 333688, Note_off_c, 0, 76, 64
2, 333696, Note_on_c, 0, 74, 86
2, 333792, Note_off_c, 0, 74, 64
2, 333792, Note_on_c, 0, 76, 82
2, 333880, Note_off_c, 0, 76, 64
2, 333888, Note_on_c, 0, 78, 86
2, 333984, Note_off_c, 0, 78, 64
2, 333984, Note_on_c, 0, 79, 82
2, 334072, Note_off_c, 0, 79, 64
2, 334080, Note_on_c, 0, 69, 82
2, 334124, Note_off_c, 0, 69, 64
2, 334128, Note_on_c, 0, 71, 82
2, 334172, Note_off_c, 0, 71, 64
2, 334176, Note_on_c, 0, 69, 82
2, 334220, Note_off_c, 0, 69, 64
2, 334224, Note_on_c, 0, 71, 82
2, 334268, Note_off_c, 0, 71, 64
2, 334272, Note_on_c, 0, 69, 82
2, 334316, Note_off_c, 0, 69, 64
2, 334320, Note_on_c, 0, 71, 82
2, 334364, Note_off_c, 0, 71, 64
2, 334368, Note_on_c, 0, 69, 82
2, 334412, Note_off_c, 0, 69, 64
2, 334416, Note_on_c, 0, 71, 82
2, 334460, Note_off_c, 0, 71, 64
2, 334464, Note_on_c, 0, 69, 82
2, 334508, Note_off_c, 0, 69, 64
2, 334512, Note_on_c, 0, 71, 82
2, 334556, Note_off_c, 0, 71, 64
2, 334560, Note_on_c, 0, 69, 82
2, 334604, Note_off_c, 0, 69, 64
2, 334608, Note_on_c, 0, 71, 82
2, 334652, Note_off_c, 0, 71, 64
2, 334656, Note_on_c, 0, 69, 82
2, 334700, Note_off_c, 0, 69, 64
2, 334704, Note_on_c, 0, 71, 82
2, 334748, Note_off_c, 0, 71, 64
2, 334752, Note_on_c, 0, 67, 82
2, 334796, Note_off_c, 0, 67, 64
2, 334800, Note_on_c, 0, 69, 82
2, 334844, Note_off_c, 0, 69, 64
2, 334848, Note_on_c, 0, 67, 82
2, 335228, Note_off_c, 0, 67, 64
2, 337908, Control_c, 0, 1, 60
2, 337920, Note_on_c, 0, 74, 63
2, 338012, Note_off_c, 0, 74, 64
2, 338016, Note_on_c, 0, 86, 68
2, 341376, Note_off_c, 0, 86, 64
2, 341564, Control_c, 0, 1, 55
2, 341568, Note_on_c, 0, 81, 68
2, 341604, Note_off_c, 0, 81, 64
2, 341616, Note_on_c, 0, 79, 63
2, 341660, Note_off_c, 0, 79, 64
2, 341664, Note_on_c, 0, 78, 63
2, 341756, Note_off_c, 0, 78, 64
2, 341760, Note_on_c, 0, 79, 63
2, 341860, Note_off_c, 0, 79, 64
2, 341952, Note_on_c, 0, 79, 63
2, 342052, Note_off_c, 0, 79, 64
2, 342144, Note_on_c, 0, 79, 63
2, 342244, Note_off_c, 0, 79, 64
2, 342336, Note_on_c, 0, 79, 63
2, 342436, Note_off_c, 0, 79, 64
2, 342528, Note_on_c, 0, 79, 68
2, 342564, Note_off_c, 0, 79, 64
2, 342576, Note_on_c, 0, 81, 63
2, 342620, Note_off_c, 0, 81, 64
2, 342640, Note_on_c, 0, 83, 63
2, 342924, Note_off_c, 0, 83, 64
2, 343104, Note_on_c, 0, 81, 68
2, 343140, Note_off_c, 0, 81, 64
2, 343152, Note_on_c, 0, 79, 63
2, 343196, Note_off_c, 0, 79, 64
2, 343200, Note_on_c, 0, 78, 63
2, 343292, Note_off_c, 0, 78, 64
2, 343296, Note_on_c, 0, 79, 63
2, 343396, Note_off_c, 0, 79, 64
2, 343488, Note_on_c, 0, 79, 63
2, 343588, Note_off_c, 0, 79, 64
2, 343680, Note_on_c, 0, 79, 63
2, 343780, Note_off_c, 0, 79, 64
2, 343872, Note_on_c, 0, 79, 63
2, 343972, Note_off_c, 0, 79, 64
2, 344064, Note_on_c, 0, 79, 68
2, 344100, Note_off_c, 0, 79, 64
2, 344112, Note_on_c, 0, 81, 63
2, 344156, Note_off_c, 0, 81, 64
2, 344160, Note_on_c, 0, 83, 63
2, 344444, Note_off_c, 0, 83, 64
2, 344448, Note_on_c, 0, 76, 68
2, 344484, Note_off_c, 0, 76, 64
2, 344496, Note_on_c, 0, 78, 63
2, 344540, Note_off_c, 0, 78, 64
2, 344544, Note_on_c, 0, 79, 63
2, 344828, Note_off_c, 0, 79, 64
2, 344832, Note_on_c, 0, 72, 68
2, 344868, Note_off_c, 0, 72, 64
2, 344880, Note_on_c, 0, 74, 63
2, 344924, Note_off_c, 0, 74, 64
2, 344944, Note_on_c, 0, 76, 63
2, 345216, Note_on_c, 0, 69, 68
2, 345228, Note_off_c, 0, 76, 64
2, 345252, Note_off_c, 0, 69, 64
2, 345264, Note_on_c, 0, 71, 63
2, 345308, Note_off_c, 0, 71, 64
2, 345312, Note_on_c, 0, 72, 63
2, 345596, Note_off_c, 0, 72, 64
2, 345600, Note_on_c, 0, 62, 68
2, 346364, Note_off_c, 0, 62, 64
2, 346368, Note_on_c, 0, 81, 68
2, 346412, Note_off_c, 0, 81, 64
2, 346416, Note_on_c, 0, 83, 63
2, 346460, Note_off_c, 0, 83, 64
2, 346464, Note_on_c, 0, 81, 63
2, 346508, Note_off_c, 0, 81, 64
2, 346512, Note_on_c, 0, 83, 63
2, 346556, Note_off_c, 0, 83, 64
2, 346560, Note_on_c, 0, 81, 63
2, 346604, Note_off_c, 0, 81, 64
2, 346608, Note_on_c, 0, 83, 63
2, 346652, Note_off_c, 0, 83, 64
2, 346656, Note_on_c, 0, 81, 63
2, 346700, Note_off_c, 0, 81, 64
2, 346704, Note_on_c, 0, 83, 63
2, 346748, Note_off_c, 0, 83, 64
2, 346752, Note_on_c, 0, 81, 63
2, 346796, Note_off_c, 0, 81, 64
2, 346800, Note_on_c, 0, 83, 63
2, 346844, Note_off_c, 0, 83, 64
2, 346848, Note_on_c, 0, 81, 63
2, 346892, Note_off_c, 0, 81, 64
2, 346896, Note_on_c, 0, 83, 63
2, 346940, Note_off_c, 0, 83, 64
2, 346944, Note_on_c, 0, 81, 63
2, 346988, Note_off_c, 0, 81, 64
2, 346992, Note_on_c, 0, 83, 63
2, 347036, Note_off_c, 0, 83, 64
2, 347040, Note_on_c, 0, 79, 63
2, 347084, Note_off_c, 0, 79, 64
2, 347088, Note_on_c, 0, 81, 63
2, 347132, Note_off_c, 0, 81, 64
2, 347136, Note_on_c, 0, 83, 63
2, 347232, Note_off_c, 0, 83, 64
2, 347232, Note_on_c, 0, 84, 63
2, 347320, Note_off_c, 0, 84, 64
2, 347328, Note_on_c, 0, 86, 63
2, 347376, Note_off_c, 0, 86, 64
2, 347424, Note_on_c, 0, 86, 63
2, 347472, Note_off_c, 0, 86, 64
2, 347520, Note_on_c, 0, 88, 63
2, 347616, Note_off_c, 0, 88, 64
2, 347616, Note_on_c, 0, 90, 63
2, 347704, Note_off_c, 0, 90, 64
2, 347712, Note_on_c, 0, 91, 63
2, 347760, Note_off_c, 0, 91, 64
2, 347808, Note_on_c, 0, 91, 63
2, 347856, Note_off_c, 0, 91, 64
2, 347904, Note_on_c, 0, 76, 63
2, 348000, Note_off_c, 0, 76, 64
2, 348000, Note_on_c, 0, 78, 63
2, 348088, Note_off_c, 0, 78, 64
2, 348096, Note_on_c, 0, 79, 63
2, 348144, Note_off_c, 0, 79, 64
2, 348192, Note_on_c, 0, 79, 63
2, 348240, Note_off_c, 0, 79, 64
2, 348288, Note_on_c, 0, 81, 63
2, 348384, Note_off_c, 0, 81, 64
2, 348384, Note_on_c, 0, 83, 63
2, 348472, Note_off_c, 0, 83, 64
2, 348480, Note_on_c, 0, 84, 63
2, 348528, Note_off_c, 0, 84, 64
2, 348576, Note_on_c, 0, 84, 63
2, 348624, Note_off_c, 0, 84, 64
2, 348672, Note_on_c, 0, 62, 68
2, 349532, Note_off_c, 0, 62, 64
2, 349536, Note_on_c, 0, 74, 68
2, 349632, Note_off_c, 0, 74, 64
2, 349632, Note_on_c, 0, 73, 68
2, 349724, Note_off_c, 0, 73, 64
2, 349728, Note_on_c, 0, 74, 68
2, 349816, Note_off_c, 0, 74, 64
2, 349824, Note_on_c, 0, 76, 68
2, 349872, Note_off_c, 0, 76, 64
2, 349920, Note_on_c, 0, 74, 68
2, 349968, Note_off_c, 0, 74, 64
2, 350016, Note_on_c, 0, 78, 68
2, 350064, Note_off_c, 0, 78, 64
2, 350112, Note_on_c, 0, 74, 68
2, 350160, Note_off_c, 0, 74, 64
2, 350208, Note_on_c, 0, 79, 68
2, 350256, Note_off_c, 0, 79, 64
2, 350304, Note_on_c, 0, 74, 68
2, 350352, Note_off_c, 0, 74, 64
2, 350400, Note_on_c, 0, 81, 68
2, 350448, Note_off_c, 0, 81, 64
2, 350496, Note_on_c, 0, 74, 68
2, 350544, Note_off_c, 0, 74, 64
2, 350592, Note_on_c, 0, 83, 68
2, 350640, Note_off_c, 0, 83, 64
2, 350688, Note_on_c, 0, 74, 68
2, 350736, Note_off_c, 0, 74, 64
2, 350784, Note_on_c, 0, 84, 68
2, 350832, Note_off_c, 0, 84, 64
2, 350880, Note_on_c, 0, 74, 68
2, 350928, Note_off_c, 0, 74, 64
2, 350976, Note_on_c, 0, 86, 68
2, 351024, Note_off_c, 0, 86, 64
2, 351072, Note_on_c, 0, 74, 68
2, 351120, Note_off_c, 0, 74, 64
2, 351168, Note_on_c, 0, 85, 68
2, 351216, Note_off_c, 0, 85, 64
2, 351264, Note_on_c, 0, 74, 68
2, 351312, Note_off_c, 0, 74, 64
2, 351360, Note_on_c, 0, 86, 68
2, 351408, Note_off_c, 0, 86, 64
2, 351456, Note_on_c, 0, 74, 69
2, 351504, Note_off_c, 0, 74, 64
2, 351552, Note_on_c, 0, 85, 70
2, 351600, Note_off_c, 0, 85, 64
2, 351648, Note_on_c, 0, 74, 71
2, 351696, Note_off_c, 0, 74, 64
2, 351744, Note_on_c, 0, 86, 72
2, 352124, Note_off_c, 0, 86, 64
2, 352128, Note_on_c, 0, 86, 73
2, 352892, Note_off_c, 0, 86, 64
2, 352896, Note_on_c, 0, 84, 71
2, 352992, Note_off_c, 0, 84, 64
2, 352992, Note_on_c, 0, 83, 69
2, 353084, Note_off_c, 0, 83, 64
2, 353088, Note_on_c, 0, 81, 67
2, 353180, Note_off_c, 0, 81, 64
2, 353184, Note_on_c, 0, 79, 65
2, 353272, Note_off_c, 0, 79, 64
2, 353280, Note_on_c, 0, 81, 64
2, 353324, Note_off_c, 0, 81, 64
2, 353328, Note_on_c, 0, 83, 64
2, 353372, Note_off_c, 0, 83, 64
2, 353376, Note_on_c, 0, 81, 65
2, 353420, Note_off_c, 0, 81, 64
2, 353424, Note_on_c, 0, 83, 65
2, 353468, Note_off_c, 0, 83, 64
2, 353472, Note_on_c, 0, 81, 66
2, 353516, Note_off_c, 0, 81, 64
2, 353520, Note_on_c, 0, 83, 67
2, 353564, Note_off_c, 0, 83, 64
2, 353584, Note_on_c, 0, 81, 67
2, 353616, Note_on_c, 0, 83, 68
2, 353628, Note_off_c, 0, 81, 64
2, 353660, Note_off_c, 0, 83, 64
2, 353664, Note_on_c, 0, 81, 69
2, 353708, Note_off_c, 0, 81, 64
2, 353712, Note_on_c, 0, 83, 69
2, 353756, Note_off_c, 0, 83, 64
2, 353760, Note_on_c, 0, 81, 70
2, 353804, Note_off_c, 0, 81, 64
2, 353808, Note_on_c, 0, 83, 70
2, 353852, Note_off_c, 0, 83, 64
2, 353856, Note_on_c, 0, 81, 71
2, 353900, Note_off_c, 0, 81, 64
2, 353904, Note_on_c, 0, 83, 72
2, 353948, Note_off_c, 0, 83, 64
2, 353968, Note_on_c, 0, 81, 72
2, 354000, Note_on_c, 0, 83, 73
2, 354012, Note_off_c, 0, 81, 64
2, 354044, Note_off_c, 0, 83, 64
2, 354048, Note_on_c, 0, 81, 74
2, 354092, Note_off_c, 0, 81, 64
2, 354096, Note_on_c, 0, 83, 74
2, 354140, Note_off_c, 0, 83, 64
2, 354144, Note_on_c, 0, 81, 75
2, 354188, Note_off_c, 0, 81, 64
2, 354192, Note_on_c, 0, 83, 75
2, 354236, Note_off_c, 0, 83, 64
2, 354240, Note_on_c, 0, 81, 76
2, 354284, Note_off_c, 0, 81, 64
2, 354288, Note_on_c, 0, 83, 76
2, 354332, Note_off_c, 0, 83, 64
2, 354336, Note_on_c, 0, 81, 76
2, 354380, Note_off_c, 0, 81, 64
2, 354384, Note_on_c, 0, 83, 77
2, 354428, Note_off_c, 0, 83, 64
2, 354432, Note_on_c, 0, 81, 78
2, 354476, Note_off_c, 0, 81, 64
2, 354480, Note_on_c, 0, 83, 78
2, 354524, Note_off_c, 0, 83, 64
2, 354528, Note_on_c, 0, 81, 79
2, 354572, Note_off_c, 0, 81, 64
2, 354576, Note_on_c, 0, 83, 79
2, 354620, Note_off_c, 0, 83, 64
2, 354624, Note_on_c, 0, 79, 80
2, 354716, Note_off_c, 0, 79, 64
2, 354720, Note_on_c, 0, 81, 81
2, 354812, Note_off_c, 0, 81, 64
2, 354816, Note_on_c, 0, 79, 82
2, 355196, Note_off_c, 0, 79, 64
2, 359412, Control_c, 0, 1, 55
2, 360576, Note_on_c, 0, 79, 55
2, 360948, Control_c, 0, 1, 55
2, 360956, Note_off_c, 0, 79, 64
2, 360960, Note_on_c, 0, 79, 63
2, 360960, Note_on_c, 0, 71, 63
2, 360960, Note_on_c, 0, 62, 63
2, 361532, Note_off_c, 0, 71, 64
2, 361532, Note_off_c, 0, 62, 64
2, 361908, Note_off_c, 0, 79, 64
2, 361920, Note_on_c, 0, 78, 73
2, 362012, Note_off_c, 0, 78, 64
2, 362016, Note_on_c, 0, 79, 73
2, 362108, Note_off_c, 0, 79, 64
2, 362112, Note_on_c, 0, 78, 63
2, 362208, Note_off_c, 0, 78, 64
2, 362208, Note_on_c, 0, 79, 63
2, 362300, Note_off_c, 0, 79, 64
2, 362304, Note_on_c, 0, 83, 63
2, 362396, Note_off_c, 0, 83, 64
2, 362400, Note_on_c, 0, 79, 63
2, 362488, Note_off_c, 0, 79, 64
2, 362496, Note_on_c, 0, 76, 63
2, 362592, Note_off_c, 0, 76, 64
2, 362592, Note_on_c, 0, 74, 63
2, 362684, Note_off_c, 0, 74, 64
2, 362688, Note_on_c, 0, 73, 63
2, 362780, Note_off_c, 0, 73, 64
2, 362784, Note_on_c, 0, 74, 63
2, 362876, Note_off_c, 0, 74, 64
2, 362880, Note_on_c, 0, 73, 63
2, 362972, Note_off_c, 0, 73, 64
2, 362976, Note_on_c, 0, 74, 63
2, 363068, Note_off_c, 0, 74, 64
2, 363072, Note_on_c, 0, 79, 63
2, 363164, Note_off_c, 0, 79, 64
2, 363168, Note_on_c, 0, 74, 63
2, 363256, Note_off_c, 0, 74, 64
2, 363264, Note_on_c, 0, 72, 63
2, 363360, Note_off_c, 0, 72, 64
2, 363360, Note_on_c, 0, 71, 63
2, 363452, Note_off_c, 0, 71, 64
2, 363456, Note_on_c, 0, 70, 63
2, 363548, Note_off_c, 0, 70, 64
2, 363552, Note_on_c, 0, 71, 63
2, 363644, Note_off_c, 0, 71, 64
2, 363648, Note_on_c, 0, 70, 63
2, 363740, Note_off_c, 0, 70, 64
2, 363744, Note_on_c, 0, 71, 63
2, 363836, Note_off_c, 0, 71, 64
2, 363840, Note_on_c, 0, 74, 63
2, 363932, Note_off_c, 0, 74, 64
2, 363936, Note_on_c, 0, 71, 63
2, 364024, Note_off_c, 0, 71, 64
2, 364032, Note_on_c, 0, 69, 63
2, 364128, Note_off_c, 0, 69, 64
2, 364128, Note_on_c, 0, 67, 63
2, 364220, Note_off_c, 0, 67, 64
2, 364224, Note_on_c, 0, 71, 63
2, 364316, Note_off_c, 0, 71, 64
2, 364320, Note_on_c, 0, 67, 63
2, 364412, Note_off_c, 0, 67, 64
2, 364416, Note_on_c, 0, 64, 63
2, 364508, Note_off_c, 0, 64, 64
2, 364512, Note_on_c, 0, 62, 63
2, 364604, Note_off_c, 0, 62, 64
2, 364608, Note_on_c, 0, 67, 63
2, 364700, Note_off_c, 0, 67, 64
2, 364704, Note_on_c, 0, 62, 63
2, 364792, Note_off_c, 0, 62, 64
2, 364800, Note_on_c, 0, 60, 63
2, 364896, Note_off_c, 0, 60, 64
2, 364896, Note_on_c, 0, 59, 63
2, 364988, Note_off_c, 0, 59, 64
2, 364992, Note_on_c, 0, 62, 63
2, 365084, Note_off_c, 0, 62, 64
2, 365088, Note_on_c, 0, 59, 63
2, 365180, Note_off_c, 0, 59, 64
2, 365184, Note_on_c, 0, 57, 63
2, 365276, Note_off_c, 0, 57, 64
2, 365280, Note_on_c, 0, 55, 63
2, 365372, Note_off_c, 0, 55, 64
2, 365376, Note_on_c, 0, 59, 63
2, 365468, Note_off_c, 0, 59, 64
2, 365472, Note_on_c, 0, 55, 63
2, 365560, Note_off_c, 0, 55, 64
2, 365568, Note_on_c, 0, 62, 63
2, 365568, Note_on_c, 0, 69, 63
2, 365612, Note_off_c, 0, 62, 64
2, 365612, Note_off_c, 0, 69, 64
2, 365616, Note_on_c, 0, 78, 63
2, 365616, Note_on_c, 0, 74, 63
2, 365944, Note_off_c, 0, 78, 64
2, 365944, Note_off_c, 0, 74, 64
2, 365952, Note_on_c, 0, 78, 63
2, 365952, Note_on_c, 0, 74, 63
2, 366428, Note_off_c, 0, 78, 64
2, 366428, Note_off_c, 0, 74, 64
2, 366432, Note_on_c, 0, 79, 63
2, 366432, Note_on_c, 0, 76, 63
2, 366524, Note_off_c, 0, 79, 64
2, 366524, Note_off_c, 0, 76, 64
2, 366528, Note_on_c, 0, 78, 63
2, 366528, Note_on_c, 0, 74, 63
2, 366624, Note_off_c, 0, 78, 64
2, 366624, Note_off_c, 0, 74, 64
2, 366624, Note_on_c, 0, 79, 63
2, 366624, Note_on_c, 0, 76, 63
2, 366720, Note_off_c, 0, 79, 64
2, 366720, Note_off_c, 0, 76, 64
2, 366720, Note_on_c, 0, 81, 63
2, 366720, Note_on_c, 0, 78, 63
2, 366816, Note_off_c, 0, 81, 64
2, 366816, Note_off_c, 0, 78, 64
2, 366816, Note_on_c, 0, 83, 63
2, 366816, Note_on_c, 0, 79, 63
2, 366908, Note_off_c, 0, 83, 64
2, 366908, Note_off_c, 0, 79, 64
2, 366912, Note_on_c, 0, 81, 63
2, 366912, Note_on_c, 0, 78, 63
2, 367004, Note_off_c, 0, 81, 64
2, 367004, Note_off_c, 0, 78, 64
2, 367008, Note_on_c, 0, 83, 63
2, 367008, Note_on_c, 0, 79, 63
2, 367096, Note_off_c, 0, 83, 64
2, 367096, Note_off_c, 0, 79, 64
2, 367104, Note_on_c, 0, 84, 63
2, 367104, Note_on_c, 0, 81, 63
2, 367292, Note_off_c, 0, 84, 64
2, 367292, Note_off_c, 0, 81, 64
2, 367296, Note_on_c, 0, 72, 63
2, 367296, Note_on_c, 0, 63, 63
2, 367488, Note_off_c, 0, 72, 64
2, 367488, Note_off_c, 0, 63, 64
2, 367488, Note_on_c, 0, 69, 63
2, 367488, Note_on_c, 0, 62, 63
2, 367672, Note_off_c, 0, 69, 64
2, 367672, Note_off_c, 0, 62, 64
2, 367680, Note_on_c, 0, 81, 63
2, 367680, Note_on_c, 0, 78, 63
2, 367872, Note_off_c, 0, 81, 64
2, 367872, Note_off_c, 0, 78, 64
2, 367872, Note_on_c, 0, 84, 63
2, 367872, Note_on_c, 0, 81, 63
2, 368056, Note_off_c, 0, 84, 64
2, 368056, Note_off_c, 0, 81, 64
2, 368064, Note_on_c, 0, 72, 63
2, 368064, Note_on_c, 0, 63, 63
2, 368256, Note_off_c, 0, 72, 64
2, 368256, Note_off_c, 0, 63, 64
2, 368256, Note_on_c, 0, 69, 63
2, 368256, Note_on_c, 0, 62, 63
2, 368440, Note_off_c, 0, 69, 64
2, 368440, Note_off_c, 0, 62, 64
2, 368448, Note_on_c, 0, 81, 63
2, 368448, Note_on_c, 0, 78, 63
2, 368640, Note_off_c, 0, 81, 64
2, 368640, Note_off_c, 0, 78, 64
2, 368640, Note_on_c, 0, 84, 63
2, 368640, Note_on_c, 0, 81, 63
2, 368824, Note_off_c, 0, 84, 64
2, 368824, Note_off_c, 0, 81, 64
2, 368832, Note_on_c, 0, 83, 63
2, 368832, Note_on_c, 0, 79, 63
2, 369020, Note_off_c, 0, 83, 64
2, 369020, Note_off_c, 0, 79, 64
2, 369024, Note_on_c, 0, 81, 63
2, 369024, Note_on_c, 0, 78, 63
2, 369212, Note_off_c, 0, 81, 64
2, 369212, Note_off_c, 0, 78, 64
2, 369216, Note_on_c, 0, 79, 63
2, 369216, Note_on_c, 0, 83, 63
2, 369404, Note_off_c, 0, 79, 64
2, 369404, Note_off_c, 0, 83, 64
2, 369408, Note_on_c, 0, 81, 63
2, 369408, Note_on_c, 0, 78, 63
2, 369600, Note_off_c, 0, 81, 64
2, 369600, Note_off_c, 0, 78, 64
2, 369600, Note_on_c, 0, 79, 63
2, 369600, Note_on_c, 0, 76, 63
2, 369784, Note_off_c, 0, 79, 64
2, 369784, Note_off_c, 0, 76, 64
2, 369792, Note_on_c, 0, 78, 63
2, 369792, Note_on_c, 0, 74, 63
2, 369980, Note_off_c, 0, 78, 64
2, 369980, Note_off_c, 0, 74, 64
2, 369984, Note_on_c, 0, 76, 63
2, 369984, Note_on_c, 0, 72, 63
2, 370172, Note_off_c, 0, 76, 64
2, 370172, Note_off_c, 0, 72, 64
2, 370176, Note_on_c, 0, 74, 63
2, 370176, Note_on_c, 0, 71, 63
2, 370364, Note_off_c, 0, 71, 64
2, 370368, Note_on_c, 0, 69, 63
2, 370556, Note_off_c, 0, 69, 64
2, 370560, Note_on_c, 0, 68, 63
2, 370752, Note_off_c, 0, 74, 64
2, 370752, Note_on_c, 0, 76, 63
2, 370936, Note_off_c, 0, 76, 64
2, 370940, Note_off_c, 0, 68, 64
2, 370944, Note_on_c, 0, 72, 63
2, 370944, Note_on_c, 0, 69, 63
2, 371132, Note_off_c, 0, 69, 64
2, 371136, Note_on_c, 0, 68, 63
2, 371324, Note_off_c, 0, 68, 64
2, 371328, Note_on_c, 0, 66, 63
2, 371520, Note_off_c, 0, 72, 64
2, 371520, Note_on_c, 0, 74, 63
2, 371704, Note_off_c, 0, 74, 64
2, 371708, Note_off_c, 0, 66, 64
2, 371712, Note_on_c, 0, 71, 63
2, 371712, Note_on_c, 0, 67, 63
2, 371900, Note_off_c, 0, 71, 64
2, 371904, Note_on_c, 0, 72, 63
2, 372092, Note_off_c, 0, 67, 64
2, 372092, Note_off_c, 0, 72, 64
2, 372096, Note_on_c, 0, 74, 63
2, 372096, Note_on_c, 0, 66, 63
2, 372288, Note_off_c, 0, 74, 64
2, 372288, Note_on_c, 0, 69, 63
2, 372476, Note_off_c, 0, 69, 64
2, 372480, Note_off_c, 0, 66, 64
2, 372480, Note_on_c, 0, 67, 63
2, 372480, Note_on_c, 0, 64, 63
2, 372668, Note_off_c, 0, 67, 64
2, 372672, Note_on_c, 0, 69, 63
2, 372856, Note_off_c, 0, 69, 64
2, 372860, Note_off_c, 0, 64, 64
2, 372864, Note_on_c, 0, 71, 63
2, 372864, Note_on_c, 0, 62, 63
2, 373056, Note_off_c, 0, 71, 64
2, 373056, Note_on_c, 0, 66, 63
2, 373240, Note_off_c, 0, 66, 64
2, 373248, Note_off_c, 0, 62, 64
2, 373248, Note_on_c, 0, 64, 63
2, 373248, Note_on_c, 0, 60, 63
2, 373440, Note_off_c, 0, 64, 64
2, 373440, Note_off_c, 0, 60, 64
2, 373440, Note_on_c, 0, 66, 63
2, 373628, Note_off_c, 0, 66, 64
2, 373632, Note_on_c, 0, 67, 63
2, 373820, Note_off_c, 0, 67, 64
2, 373824, Note_on_c, 0, 68, 63
2, 374012, Note_off_c, 0, 68, 64
2, 374016, Note_on_c, 0, 69, 63
2, 374200, Note_off_c, 0, 69, 64
2, 374208, Note_on_c, 0, 76, 63
2, 374400, Note_off_c, 0, 76, 64
2, 374400, Note_on_c, 0, 72, 63
2, 374588, Note_off_c, 0, 72, 64
2, 374592, Note_on_c, 0, 69, 63
2, 374776, Note_off_c, 0, 69, 64
2, 374784, Note_on_c, 0, 67, 63
2, 374784, Note_on_c, 0, 59, 63
2, 375168, Note_off_c, 0, 59, 64
2, 375168, Note_on_c, 0, 61, 63
2, 375544, Note_off_c, 0, 61, 64
2, 375548, Note_off_c, 0, 67, 64
2, 375552, Note_on_c, 0, 66, 63
2, 375552, Note_on_c, 0, 62, 63
2, 375932, Note_off_c, 0, 66, 64
2, 375932, Note_off_c, 0, 62, 64
2, 375936, Note_on_c, 0, 65, 82
2, 376416, Note_on_c, 0, 62, 82
2, 376452, Note_off_c, 0, 62, 64
2, 376464, Note_on_c, 0, 64, 82
2, 376500, Note_off_c, 0, 64, 64
2, 376508, Note_off_c, 0, 65, 64
2, 376512, Note_on_c, 0, 62, 82
2, 376604, Note_off_c, 0, 62, 64
2, 376608, Note_on_c, 0, 61, 82
2, 376700, Note_off_c, 0, 61, 64
2, 376704, Note_on_c, 0, 62, 82
2, 376896, Note_off_c, 0, 62, 64
2, 376896, Note_on_c, 0, 65, 82
2, 377088, Note_off_c, 0, 65, 64
2, 377088, Note_on_c, 0, 64, 82
2, 377088, Note_on_c, 0, 56, 82
2, 377184, Note_off_c, 0, 64, 64
2, 377184, Note_off_c, 0, 56, 64
2, 377184, Note_on_c, 0, 74, 82
2, 377276, Note_off_c, 0, 74, 64
2, 377280, Note_on_c, 0, 83, 82
2, 377368, Note_off_c, 0, 83, 64
2, 377376, Note_on_c, 0, 81, 82
2, 377468, Note_off_c, 0, 81, 64
2, 377472, Note_on_c, 0, 80, 63
2, 377564, Note_off_c, 0, 80, 64
2, 377568, Note_on_c, 0, 77, 63
2, 377660, Note_off_c, 0, 77, 64
2, 377664, Note_on_c, 0, 76, 63
2, 377756, Note_off_c, 0, 76, 64
2, 377760, Note_on_c, 0, 74, 63
2, 377852, Note_off_c, 0, 74, 64
2, 377856, Note_on_c, 0, 72, 82
2, 377952, Note_on_c, 0, 60, 82
2, 377996, Note_off_c, 0, 60, 64
2, 378000, Note_on_c, 0, 62, 82
2, 378044, Note_off_c, 0, 72, 64
2, 378044, Note_off_c, 0, 62, 64
2, 378048, Note_on_c, 0, 60, 82
2, 378140, Note_off_c, 0, 60, 64
2, 378144, Note_on_c, 0, 59, 82
2, 378208, Note_on_c, 0, 60, 82
2, 378236, Note_off_c, 0, 59, 64
2, 378396, Note_off_c, 0, 60, 64
2, 378432, Note_on_c, 0, 64, 82
2, 378620, Note_off_c, 0, 64, 64
2, 378624, Note_on_c, 0, 57, 82
2, 378720, Note_on_c, 0, 72, 82
2, 378764, Note_off_c, 0, 72, 64
2, 378768, Note_on_c, 0, 74, 82
2, 378812, Note_off_c, 0, 57, 64
2, 378812, Note_off_c, 0, 74, 64
2, 378816, Note_on_c, 0, 72, 82
2, 378908, Note_off_c, 0, 72, 64
2, 378912, Note_on_c, 0, 71, 82
2, 379004, Note_off_c, 0, 71, 64
2, 379008, Note_on_c, 0, 72, 82
2, 379196, Note_off_c, 0, 72, 64
2, 379200, Note_on_c, 0, 76, 82
2, 379388, Note_off_c, 0, 76, 64
2, 379392, Note_on_c, 0, 66, 82
2, 379484, Note_off_c, 0, 66, 64
2, 379488, Note_on_c, 0, 67, 82
2, 379580, Note_off_c, 0, 67, 64
2, 379584, Note_on_c, 0, 68, 82
2, 379676, Note_off_c, 0, 68, 64
2, 379680, Note_on_c, 0, 69, 82
2, 379772, Note_off_c, 0, 69, 64
2, 379776, Note_on_c, 0, 81, 82
2, 379868, Note_off_c, 0, 81, 64
2, 379872, Note_on_c, 0, 79, 82
2, 379964, Note_off_c, 0, 79, 64
2, 379968, Note_on_c, 0, 81, 82
2, 380060, Note_off_c, 0, 81, 64
2, 380064, Note_on_c, 0, 79, 82
2, 380156, Note_off_c, 0, 79, 64
2, 380160, Note_on_c, 0, 79, 82
2, 380204, Note_off_c, 0, 79, 64
2, 380208, Note_on_c, 0, 81, 82
2, 380252, Note_off_c, 0, 81, 64
2, 380256, Note_on_c, 0, 78, 82
2, 380348, Note_off_c, 0, 78, 64
2, 380352, Note_on_c, 0, 78, 82
2, 380396, Note_off_c, 0, 78, 64
2, 380400, Note_on_c, 0, 79, 82
2, 380444, Note_off_c, 0, 79, 64
2, 380448, Note_on_c, 0, 76, 82
2, 380540, Note_off_c, 0, 76, 64
2, 380544, Note_on_c, 0, 76, 82
2, 380588, Note_off_c, 0, 76, 64
2, 380592, Note_on_c, 0, 78, 82
2, 380592, Note_on_c, 0, 78, 82
2, 380636, Note_off_c, 0, 78, 64
2, 380636, Note_off_c, 0, 78, 64
2, 380640, Note_on_c, 0, 74, 82
2, 380732, Note_off_c, 0, 74, 64
2, 380736, Note_on_c, 0, 74, 82
2, 380780, Note_off_c, 0, 74, 64
2, 380784, Note_on_c, 0, 76, 82
2, 380828, Note_off_c, 0, 76, 64
2, 380832, Note_on_c, 0, 72, 82
2, 380924, Note_off_c, 0, 72, 64
2, 380928, Note_on_c, 0, 71, 82
2, 380928, Note_on_c, 0, 67, 82
2, 381116, Note_off_c, 0, 71, 64
2, 381116, Note_off_c, 0, 67, 64
2, 381120, Note_on_c, 0, 83, 82
2, 381308, Note_off_c, 0, 83, 64
2, 381312, Note_on_c, 0, 71, 82
2, 381312, Note_on_c, 0, 66, 82
2, 381500, Note_off_c, 0, 71, 64
2, 381500, Note_off_c, 0, 66, 64
2, 381504, Note_on_c, 0, 81, 82
2, 381692, Note_off_c, 0, 81, 64
2, 381696, Note_on_c, 0, 64, 88
2, 381728, Note_off_c, 0, 64, 64
2, 381732, Note_on_c, 0, 71, 88
2, 381764, Note_off_c, 0, 71, 64
2, 381768, Note_on_c, 0, 79, 82
2, 381820, Note_off_c, 0, 79, 64
2, 381824, Note_on_c, 0, 81, 82
2, 381884, Note_off_c, 0, 81, 64
2, 381888, Note_on_c, 0, 82, 82
2, 381980, Note_off_c, 0, 82, 64
2, 381984, Note_on_c, 0, 83, 82
2, 382076, Note_off_c, 0, 83, 64
2, 382080, Note_on_c, 0, 81, 82
2, 382172, Note_off_c, 0, 81, 64
2, 382176, Note_on_c, 0, 79, 82
2, 382268, Note_off_c, 0, 79, 64
2, 382272, Note_on_c, 0, 78, 82
2, 382364, Note_off_c, 0, 78, 64
2, 382368, Note_on_c, 0, 76, 82
2, 382460, Note_off_c, 0, 76, 64
2, 382464, Note_on_c, 0, 74, 82
2, 382652, Note_off_c, 0, 74, 64
2, 382656, Note_on_c, 0, 72, 82
2, 382844, Note_off_c, 0, 72, 64
2, 382848, Note_on_c, 0, 69, 82
2, 382848, Note_on_c, 0, 67, 82
2, 383036, Note_off_c, 0, 69, 64
2, 383036, Note_off_c, 0, 67, 64
2, 383040, Note_on_c, 0, 57, 82
2, 383228, Note_off_c, 0, 57, 64
2, 383232, Note_on_c, 0, 72, 82
2, 383420, Note_off_c, 0, 72, 64
2, 383424, Note_on_c, 0, 74, 82
2, 383612, Note_off_c, 0, 74, 64
2, 383616, Note_on_c, 0, 69, 82
2, 383616, Note_on_c, 0, 66, 82
2, 383804, Note_off_c, 0, 69, 64
2, 383804, Note_off_c, 0, 66, 64
2, 383808, Note_on_c, 0, 57, 82
2, 383996, Note_off_c, 0, 57, 64
2, 384000, Note_on_c, 0, 74, 82
2, 384188, Note_off_c, 0, 74, 64
2, 384192, Note_on_c, 0, 76, 82
2, 384380, Note_off_c, 0, 76, 64
2, 384384, Note_on_c, 0, 69, 82
2, 384384, Note_on_c, 0, 64, 82
2, 384572, Note_off_c, 0, 69, 64
2, 384572, Note_off_c, 0, 64, 64
2, 384576, Note_on_c, 0, 57, 82
2, 384764, Note_off_c, 0, 57, 64
2, 384768, Note_on_c, 0, 64, 89
2, 384800, Note_off_c, 0, 64, 64
2, 384804, Note_on_c, 0, 71, 89
2, 384836, Note_off_c, 0, 71, 64
2, 384840, Note_on_c, 0, 76, 82
2, 384892, Note_off_c, 0, 76, 64
2, 384896, Note_on_c, 0, 79, 82
2, 384960, Note_off_c, 0, 79, 64
2, 384960, Note_on_c, 0, 78, 82
2, 385052, Note_off_c, 0, 78, 64
2, 385056, Note_on_c, 0, 81, 82
2, 385148, Note_off_c, 0, 81, 64
2, 385152, Note_on_c, 0, 79, 82
2, 385340, Note_off_c, 0, 79, 64
2, 385344, Note_on_c, 0, 67, 82
2, 385532, Note_off_c, 0, 67, 64
2, 385536, Note_on_c, 0, 66, 82
2, 385724, Note_off_c, 0, 66, 64
2, 385728, Note_on_c, 0, 81, 82
2, 385728, Note_on_c, 0, 78, 82
2, 385916, Note_off_c, 0, 81, 64
2, 385916, Note_off_c, 0, 78, 64
2, 385920, Note_on_c, 0, 79, 82
2, 385920, Note_on_c, 0, 76, 82
2, 386108, Note_off_c, 0, 79, 64
2, 386108, Note_off_c, 0, 76, 64
2, 386112, Note_on_c, 0, 78, 82
2, 386112, Note_on_c, 0, 74, 82
2, 386300, Note_off_c, 0, 78, 64
2, 386300, Note_off_c, 0, 74, 64
2, 386304, Note_on_c, 0, 76, 82
2, 386304, Note_on_c, 0, 72, 82
2, 386492, Note_off_c, 0, 76, 64
2, 386492, Note_off_c, 0, 72, 64
2, 386496, Note_on_c, 0, 74, 82
2, 386496, Note_on_c, 0, 71, 82
2, 386684, Note_off_c, 0, 74, 64
2, 386684, Note_off_c, 0, 71, 64
2, 386688, Note_on_c, 0, 73, 82
2, 386688, Note_on_c, 0, 70, 82
2, 386876, Note_off_c, 0, 73, 64
2, 386876, Note_off_c, 0, 70, 64
2, 386880, Note_on_c, 0, 72, 82
2, 386880, Note_on_c, 0, 69, 82
2, 387068, Note_off_c, 0, 72, 64
2, 387068, Note_off_c, 0, 69, 64
2, 387072, Note_on_c, 0, 71, 82
2, 387072, Note_on_c, 0, 67, 82
2, 387260, Note_off_c, 0, 71, 64
2, 387260, Note_off_c, 0, 67, 64
2, 387264, Note_on_c, 0, 73, 82
2, 387356, Note_off_c, 0, 73, 64
2, 387360, Note_on_c, 0, 75, 82
2, 387452, Note_off_c, 0, 75, 64
2, 387456, Note_on_c, 0, 76, 82
2, 387548, Note_off_c, 0, 76, 64
2, 387552, Note_on_c, 0, 78, 82
2, 387644, Note_off_c, 0, 78, 64
2, 387648, Note_on_c, 0, 79, 82
2, 387740, Note_off_c, 0, 79, 64
2, 387744, Note_on_c, 0, 81, 82
2, 387836, Note_off_c, 0, 81, 64
2, 387840, Note_on_c, 0, 82, 82
2, 388020, Note_off_c, 0, 82, 64
2, 388032, Note_on_c, 0, 83, 82
2, 388364, Note_off_c, 0, 83, 64
2, 388416, Note_on_c, 0, 75, 82
2, 388416, Note_on_c, 0, 64, 82
2, 388416, Note_on_c, 0, 56, 82
2, 388596, Note_off_c, 0, 75, 64
2, 388596, Note_off_c, 0, 64, 64
2, 388596, Note_off_c, 0, 56, 64
2, 388608, Note_on_c, 0, 64, 82
2, 388608, Note_on_c, 0, 55, 82
2, 388608, Note_on_c, 0, 74, 82
2, 388700, Note_off_c, 0, 74, 64
2, 388704, Note_on_c, 0, 73, 82
2, 388788, Note_off_c, 0, 64, 64
2, 388788, Note_off_c, 0, 55, 64
2, 388796, Note_off_c, 0, 73, 64
2, 388800, Note_on_c, 0, 71, 82
2, 388892, Note_off_c, 0, 71, 64
2, 388896, Note_on_c, 0, 69, 82
2, 388988, Note_off_c, 0, 69, 64
2, 388992, Note_on_c, 0, 69, 63
2, 389180, Note_off_c, 0, 69, 64
2, 389184, Note_on_c, 0, 81, 63
2, 389184, Note_on_c, 0, 78, 63
2, 389232, Note_off_c, 0, 81, 64
2, 389232, Note_off_c, 0, 78, 64
2, 389280, Note_on_c, 0, 78, 63
2, 389280, Note_on_c, 0, 81, 63
2, 389328, Note_off_c, 0, 78, 64
2, 389328, Note_off_c, 0, 81, 64
2, 389376, Note_on_c, 0, 81, 63
2, 389376, Note_on_c, 0, 78, 63
2, 389424, Note_off_c, 0, 81, 64
2, 389424, Note_off_c, 0, 78, 64
2, 389472, Note_on_c, 0, 74, 63
2, 389520, Note_off_c, 0, 74, 64
2, 389568, Note_on_c, 0, 80, 63
2, 389568, Note_on_c, 0, 76, 63
2, 389616, Note_off_c, 0, 80, 64
2, 389616, Note_off_c, 0, 76, 64
2, 389664, Note_on_c, 0, 62, 63
2, 389712, Note_off_c, 0, 62, 64
2, 389760, Note_on_c, 0, 81, 63
2, 389760, Note_on_c, 0, 78, 63
2, 389808, Note_off_c, 0, 81, 64
2, 389808, Note_off_c, 0, 78, 64
2, 389856, Note_on_c, 0, 74, 63
2, 389904, Note_off_c, 0, 74, 64
2, 389936, Note_on_c, 0, 77, 63
2, 389952, Note_on_c, 0, 80, 63
2, 389984, Note_off_c, 0, 77, 64
2, 390000, Note_off_c, 0, 80, 64
2, 390048, Note_on_c, 0, 62, 63
2, 390096, Note_off_c, 0, 62, 64
2, 390144, Note_on_c, 0, 81, 63
2, 390144, Note_on_c, 0, 78, 63
2, 390236, Note_off_c, 0, 81, 64
2, 390236, Note_off_c, 0, 78, 64
2, 390240, Note_on_c, 0, 74, 63
2, 390332, Note_off_c, 0, 74, 64
2, 390336, Note_on_c, 0, 69, 63
2, 390428, Note_off_c, 0, 69, 64
2, 390432, Note_on_c, 0, 66, 63
2, 390432, Note_on_c, 0, 66, 63
2, 390524, Note_off_c, 0, 66, 64
2, 390524, Note_off_c, 0, 66, 64
2, 390528, Note_on_c, 0, 62, 63
2, 390620, Note_off_c, 0, 62, 64
2, 390624, Note_on_c, 0, 62, 63
2, 390716, Note_off_c, 0, 62, 64
2, 390720, Note_on_c, 0, 86, 63
2, 390812, Note_off_c, 0, 86, 64
2, 390816, Note_on_c, 0, 78, 63
2, 390908, Note_off_c, 0, 78, 64
2, 390912, Note_on_c, 0, 85, 63
2, 391004, Note_off_c, 0, 85, 64
2, 391008, Note_on_c, 0, 81, 63
2, 391100, Note_off_c, 0, 81, 64
2, 391104, Note_on_c, 0, 86, 63
2, 391196, Note_off_c, 0, 86, 64
2, 391200, Note_on_c, 0, 69, 63
2, 391292, Note_off_c, 0, 69, 64
2, 391296, Note_on_c, 0, 78, 63
2, 391388, Note_off_c, 0, 78, 64
2, 391392, Note_on_c, 0, 74, 63
2, 391484, Note_off_c, 0, 74, 64
2, 391488, Note_on_c, 0, 83, 63
2, 391580, Note_off_c, 0, 83, 64
2, 391584, Note_on_c, 0, 71, 63
2, 391676, Note_off_c, 0, 71, 64
2, 391680, Note_on_c, 0, 81, 63
2, 391772, Note_off_c, 0, 81, 64
2, 391776, Note_on_c, 0, 76, 63
2, 391868, Note_off_c, 0, 76, 64
2, 391872, Note_on_c, 0, 71, 63
2, 391964, Note_off_c, 0, 71, 64
2, 391968, Note_on_c, 0, 67, 63
2, 392060, Note_off_c, 0, 67, 64
2, 392064, Note_on_c, 0, 79, 63
2, 392064, Note_on_c, 0, 71, 63
2, 392064, Note_on_c, 0, 64, 63
2, 392156, Note_off_c, 0, 79, 64
2, 392156, Note_off_c, 0, 71, 64
2, 392156, Note_off_c, 0, 64, 64
2, 392160, Note_on_c, 0, 64, 63
2, 392252, Note_off_c, 0, 64, 64
2, 392256, Note_on_c, 0, 79, 63
2, 392256, Note_on_c, 0, 76, 63
2, 392348, Note_off_c, 0, 79, 64
2, 392348, Note_off_c, 0, 76, 64
2, 392352, Note_on_c, 0, 79, 63
2, 392352, Note_on_c, 0, 76, 63
2, 392444, Note_off_c, 0, 79, 64
2, 392444, Note_off_c, 0, 76, 64
2, 392448, Note_on_c, 0, 79, 63
2, 392448, Note_on_c, 0, 76, 63
2, 392496, Note_off_c, 0, 79, 64
2, 392496, Note_off_c, 0, 76, 64
2, 392544, Note_on_c, 0, 69, 63
2, 392592, Note_off_c, 0, 69, 64
2, 392640, Note_on_c, 0, 78, 63
2, 392640, Note_on_c, 0, 75, 63
2, 392688, Note_off_c, 0, 78, 64
2, 392688, Note_off_c, 0, 75, 64
2, 392736, Note_on_c, 0, 69, 63
2, 392784, Note_off_c, 0, 69, 64
2, 392832, Note_on_c, 0, 79, 63
2, 392832, Note_on_c, 0, 76, 63
2, 392880, Note_off_c, 0, 79, 64
2, 392880, Note_off_c, 0, 76, 64
2, 392928, Note_on_c, 0, 69, 63
2, 392976, Note_off_c, 0, 69, 64
2, 393024, Note_on_c, 0, 78, 63
2, 393024, Note_on_c, 0, 75, 63
2, 393072, Note_off_c, 0, 78, 64
2, 393072, Note_off_c, 0, 75, 64
2, 393120, Note_on_c, 0, 69, 63
2, 393120, Note_on_c, 0, 69, 63
2, 393168, Note_off_c, 0, 69, 64
2, 393168, Note_off_c, 0, 69, 64
2, 393216, Note_on_c, 0, 79, 63
2, 393216, Note_on_c, 0, 76, 63
2, 393308, Note_off_c, 0, 79, 64
2, 393308, Note_off_c, 0, 76, 64
2, 393312, Note_on_c, 0, 69, 63
2, 393404, Note_off_c, 0, 69, 64
2, 393408, Note_on_c, 0, 64, 63
2, 393500, Note_off_c, 0, 64, 64
2, 393504, Note_on_c, 0, 60, 63
2, 393596, Note_off_c, 0, 60, 64
2, 393600, Note_on_c, 0, 60, 63
2, 393692, Note_off_c, 0, 60, 64
2, 393696, Note_on_c, 0, 62, 63
2, 393788, Note_off_c, 0, 62, 64
2, 393792, Note_on_c, 0, 87, 63
2, 393884, Note_off_c, 0, 87, 64
2, 393888, Note_on_c, 0, 69, 63
2, 393980, Note_off_c, 0, 69, 64
2, 393984, Note_on_c, 0, 88, 63
2, 394076, Note_off_c, 0, 88, 64
2, 394080, Note_on_c, 0, 79, 63
2, 394172, Note_off_c, 0, 79, 64
2, 394176, Note_on_c, 0, 85, 63
2, 394268, Note_off_c, 0, 85, 64
2, 394272, Note_on_c, 0, 69, 63
2, 394364, Note_off_c, 0, 69, 64
2, 394368, Note_on_c, 0, 81, 63
2, 394460, Note_off_c, 0, 81, 64
2, 394464, Note_on_c, 0, 72, 63
2, 394556, Note_off_c, 0, 72, 64
2, 394560, Note_on_c, 0, 79, 63
2, 394652, Note_off_c, 0, 79, 64
2, 394656, Note_on_c, 0, 69, 63
2, 394748, Note_off_c, 0, 69, 64
2, 394752, Note_on_c, 0, 77, 63
2, 394844, Note_off_c, 0, 77, 64
2, 394848, Note_on_c, 0, 62, 63
2, 394940, Note_off_c, 0, 62, 64
2, 394944, Note_on_c, 0, 69, 63
2, 395036, Note_off_c, 0, 69, 64
2, 395040, Note_on_c, 0, 62, 63
2, 395132, Note_off_c, 0, 62, 64
2, 395136, Note_on_c, 0, 78, 63
2, 395324, Note_off_c, 0, 78, 64
2, 395328, Note_on_c, 0, 81, 94
2, 395420, Note_off_c, 0, 81, 64
2, 395424, Note_on_c, 0, 78, 94
2, 395516, Note_off_c, 0, 78, 64
2, 395520, Note_on_c, 0, 74, 94
2, 395612, Note_off_c, 0, 74, 64
2, 395616, Note_on_c, 0, 69, 94
2, 395708, Note_off_c, 0, 69, 64
2, 395712, Note_on_c, 0, 66, 94
2, 395804, Note_off_c, 0, 66, 64
2, 395808, Note_on_c, 0, 62, 94
2, 395900, Note_off_c, 0, 62, 64
2, 395904, Note_on_c, 0, 67, 94
2, 395996, Note_off_c, 0, 67, 64
2, 396000, Note_on_c, 0, 64, 94
2, 396092, Note_off_c, 0, 64, 64
2, 396096, Note_on_c, 0, 61, 94
2, 396188, Note_off_c, 0, 61, 64
2, 396192, Note_on_c, 0, 57, 94
2, 396284, Note_off_c, 0, 57, 64
2, 396288, Note_on_c, 0, 66, 94
2, 396380, Note_off_c, 0, 66, 64
2, 396384, Note_on_c, 0, 62, 94
2, 396476, Note_off_c, 0, 62, 64
2, 396480, Note_on_c, 0, 67, 94
2, 396572, Note_off_c, 0, 67, 64
2, 396576, Note_on_c, 0, 64, 94
2, 396668, Note_off_c, 0, 64, 64
2, 396672, Note_on_c, 0, 69, 94
2, 396764, Note_off_c, 0, 69, 64
2, 396864, Note_on_c, 0, 81, 63
2, 396956, Note_off_c, 0, 81, 64
2, 396960, Note_on_c, 0, 77, 63
2, 397052, Note_off_c, 0, 77, 64
2, 397056, Note_on_c, 0, 74, 52
2, 397148, Note_off_c, 0, 74, 64
2, 397152, Note_on_c, 0, 69, 52
2, 397244, Note_off_c, 0, 69, 64
2, 397248, Note_on_c, 0, 65, 52
2, 397340, Note_off_c, 0, 65, 64
2, 397344, Note_on_c, 0, 62, 52
2, 397436, Note_off_c, 0, 62, 64
2, 397440, Note_on_c, 0, 67, 52
2, 397532, Note_off_c, 0, 67, 64
2, 397536, Note_on_c, 0, 64, 52
2, 397628, Note_off_c, 0, 64, 64
2, 397632, Note_on_c, 0, 61, 52
2, 397724, Note_off_c, 0, 61, 64
2, 397728, Note_on_c, 0, 57, 52
2, 397820, Note_off_c, 0, 57, 64
2, 397824, Note_on_c, 0, 65, 52
2, 397916, Note_off_c, 0, 65, 64
2, 397920, Note_on_c, 0, 62, 52
2, 398012, Note_off_c, 0, 62, 64
2, 398016, Note_on_c, 0, 67, 52
2, 398108, Note_off_c, 0, 67, 64
2, 398112, Note_on_c, 0, 64, 52
2, 398204, Note_off_c, 0, 64, 64
2, 398208, Note_on_c, 0, 69, 52
2, 398300, Note_off_c, 0, 69, 64
2, 398400, Note_on_c, 0, 62, 52
2, 398588, Note_off_c, 0, 62, 64
2, 398592, Note_on_c, 0, 74, 52
2, 398592, Note_on_c, 0, 69, 52
2, 398716, Note_off_c, 0, 74, 64
2, 398780, Note_off_c, 0, 69, 64
2, 398784, Note_on_c, 0, 74, 52
2, 398972, Note_off_c, 0, 74, 64
2, 398976, Note_on_c, 0, 74, 52
2, 399164, Note_off_c, 0, 74, 64
2, 399168, Note_on_c, 0, 74, 52
2, 399348, Control_c, 0, 1, 60
2, 399356, Note_off_c, 0, 74, 64
2, 399360, Note_on_c, 0, 75, 52
2, 399360, Note_on_c, 0, 74, 52
2, 399548, Note_off_c, 0, 74, 64
2, 399552, Note_on_c, 0, 74, 52
2, 399740, Note_off_c, 0, 74, 64
2, 399744, Note_on_c, 0, 74, 52
2, 399932, Note_off_c, 0, 74, 64
2, 399936, Note_on_c, 0, 74, 52
2, 400124, Note_off_c, 0, 75, 64
2, 400124, Note_off_c, 0, 74, 64
2, 400128, Note_on_c, 0, 75, 52
2, 400128, Note_on_c, 0, 72, 52
2, 400892, Note_off_c, 0, 75, 64
2, 400892, Note_off_c, 0, 72, 64
2, 400896, Note_on_c, 0, 74, 52
2, 400896, Note_on_c, 0, 72, 52
2, 401660, Note_off_c, 0, 74, 64
2, 401660, Note_off_c, 0, 72, 64
2, 401664, Note_on_c, 0, 74, 52
2, 401664, Note_on_c, 0, 70, 52
2, 402428, Note_off_c, 0, 74, 64
2, 402428, Note_off_c, 0, 70, 64
2, 402432, Note_on_c, 0, 72, 52
2, 402432, Note_on_c, 0, 70, 52
2, 403196, Note_off_c, 0, 72, 64
2, 403196, Note_off_c, 0, 70, 64
2, 403200, Note_on_c, 0, 69, 52
2, 403200, Note_on_c, 0, 72, 52
2, 403772, Note_off_c, 0, 72, 64
2, 403776, Note_on_c, 0, 74, 52
2, 403956, Control_c, 0, 1, 55
2, 403964, Note_off_c, 0, 69, 64
2, 403964, Note_off_c, 0, 74, 64
2, 403968, Note_on_c, 0, 70, 52
2, 403968, Note_on_c, 0, 67, 52
2, 404156, Note_off_c, 0, 70, 64
2, 404156, Note_off_c, 0, 67, 64
2, 404160, Note_on_c, 0, 79, 52
2, 404532, Note_off_c, 0, 79, 64
2, 404544, Note_on_c, 0, 74, 52
2, 404544, Note_on_c, 0, 65, 52
2, 404732, Note_off_c, 0, 74, 64
2, 404732, Note_off_c, 0, 65, 64
2, 404736, Note_on_c, 0, 73, 52
2, 404736, Note_on_c, 0, 64, 52
2, 404924, Note_off_c, 0, 73, 64
2, 404924, Note_off_c, 0, 64, 64
2, 404928, Note_on_c, 0, 88, 52
2, 405300, Note_off_c, 0, 88, 64
2, 405312, Note_on_c, 0, 67, 52
2, 405312, Note_on_c, 0, 57, 52
2, 405500, Note_off_c, 0, 67, 64
2, 405500, Note_off_c, 0, 57, 64
2, 405504, Note_on_c, 0, 62, 52
2, 405504, Note_on_c, 0, 66, 52
2, 405692, Note_off_c, 0, 62, 64
2, 405692, Note_off_c, 0, 66, 64
2, 405696, Note_on_c, 0, 81, 52
2, 406068, Note_off_c, 0, 81, 64
2, 406080, Note_on_c, 0, 72, 52
2, 406080, Note_on_c, 0, 62, 52
2, 406268, Note_off_c, 0, 72, 64
2, 406268, Note_off_c, 0, 62, 64
2, 406272, Note_on_c, 0, 71, 52
2, 406272, Note_on_c, 0, 67, 52
2, 406460, Note_off_c, 0, 71, 64
2, 406460, Note_off_c, 0, 67, 64
2, 406464, Note_on_c, 0, 86, 52
2, 406836, Note_off_c, 0, 86, 64
2, 406848, Note_on_c, 0, 65, 52
2, 406848, Note_on_c, 0, 55, 52
2, 407036, Note_off_c, 0, 65, 64
2, 407036, Note_off_c, 0, 55, 64
2, 407040, Note_on_c, 0, 64, 52
2, 407040, Note_on_c, 0, 61, 52
2, 407228, Note_off_c, 0, 64, 64
2, 407228, Note_off_c, 0, 61, 64
2, 407232, Note_on_c, 0, 69, 52
2, 407420, Note_off_c, 0, 69, 64
2, 407424, Note_on_c, 0, 79, 52
2, 407424, Note_on_c, 0, 76, 52
2, 407612, Note_off_c, 0, 79, 64
2, 407612, Note_off_c, 0, 76, 64
2, 407616, Note_on_c, 0, 64, 52
2, 407616, Note_on_c, 0, 61, 52
2, 407804, Note_off_c, 0, 64, 64
2, 407804, Note_off_c, 0, 61, 64
2, 407808, Note_on_c, 0, 65, 52
2, 407808, Note_on_c, 0, 62, 52
2, 407808, Note_on_c, 0, 62, 52
2, 407996, Note_off_c, 0, 65, 64
2, 407996, Note_off_c, 0, 62, 64
2, 407996, Note_off_c, 0, 62, 64
2, 408000, Note_on_c, 0, 70, 52
2, 408188, Note_off_c, 0, 70, 64
2, 408192, Note_on_c, 0, 77, 52
2, 408192, Note_on_c, 0, 81, 52
2, 408380, Note_off_c, 0, 77, 64
2, 408380, Note_off_c, 0, 81, 64
2, 408384, Note_on_c, 0, 69, 52
2, 408384, Note_on_c, 0, 62, 52
2, 408572, Note_off_c, 0, 69, 64
2, 408572, Note_off_c, 0, 62, 64
2, 408576, Note_on_c, 0, 67, 52
2, 408576, Note_on_c, 0, 64, 52
2, 408764, Note_off_c, 0, 67, 64
2, 408764, Note_off_c, 0, 64, 64
2, 408768, Note_on_c, 0, 73, 52
2, 408956, Note_off_c, 0, 73, 64
2, 408960, Note_on_c, 0, 79, 52
2, 408960, Note_on_c, 0, 82, 52
2, 409148, Note_off_c, 0, 79, 64
2, 409148, Note_off_c, 0, 82, 64
2, 409152, Note_on_c, 0, 70, 52
2, 409152, Note_on_c, 0, 67, 52
2, 409340, Note_off_c, 0, 70, 64
2, 409340, Note_off_c, 0, 67, 64
2, 409344, Note_on_c, 0, 69, 52
2, 409344, Note_on_c, 0, 69, 52
2, 409344, Note_on_c, 0, 66, 52
2, 409532, Note_off_c, 0, 69, 64
2, 409532, Note_off_c, 0, 69, 64
2, 409532, Note_off_c, 0, 66, 64
2, 409536, Note_on_c, 0, 75, 52
2, 409724, Note_off_c, 0, 75, 64
2, 409728, Note_on_c, 0, 81, 52
2, 409728, Note_on_c, 0, 84, 52
2, 409916, Note_off_c, 0, 81, 64
2, 409916, Note_off_c, 0, 84, 64
2, 409920, Note_on_c, 0, 73, 52
2, 409920, Note_on_c, 0, 69, 52
2, 410108, Note_off_c, 0, 73, 64
2, 410108, Note_off_c, 0, 69, 64
2, 410112, Note_on_c, 0, 71, 52
2, 410112, Note_on_c, 0, 67, 52
2, 410300, Note_off_c, 0, 71, 64
2, 410300, Note_off_c, 0, 67, 64
2, 410304, Note_on_c, 0, 81, 52
2, 410492, Note_off_c, 0, 81, 64
2, 410496, Note_on_c, 0, 88, 52
2, 410684, Note_off_c, 0, 88, 64
2, 410688, Note_on_c, 0, 79, 52
2, 410688, Note_on_c, 0, 76, 52
2, 410876, Note_off_c, 0, 79, 64
2, 410876, Note_off_c, 0, 76, 64
2, 410880, Note_on_c, 0, 67, 52
2, 410880, Note_on_c, 0, 60, 52
2, 411068, Note_off_c, 0, 67, 64
2, 411068, Note_off_c, 0, 60, 64
2, 411072, Note_on_c, 0, 84, 52
2, 411072, Note_on_c, 0, 76, 52
2, 411260, Note_off_c, 0, 84, 64
2, 411260, Note_off_c, 0, 76, 64
2, 411264, Note_on_c, 0, 88, 52
2, 411452, Note_off_c, 0, 88, 64
2, 411456, Note_on_c, 0, 79, 52
2, 411456, Note_on_c, 0, 76, 52
2, 411644, Note_off_c, 0, 79, 64
2, 411644, Note_off_c, 0, 76, 64
2, 411648, Note_on_c, 0, 67, 52
2, 411648, Note_on_c, 0, 59, 52
2, 411836, Note_off_c, 0, 67, 64
2, 411836, Note_off_c, 0, 59, 64
2, 411840, Note_on_c, 0, 83, 52
2, 412028, Note_off_c, 0, 83, 64
2, 412032, Note_on_c, 0, 88, 52
2, 412220, Note_off_c, 0, 88, 64
2, 412224, Note_on_c, 0, 79, 52
2, 412224, Note_on_c, 0, 76, 52
2, 412412, Note_off_c, 0, 79, 64
2, 412412, Note_off_c, 0, 76, 64
2, 412416, Note_on_c, 0, 67, 52
2, 412416, Note_on_c, 0, 58, 52
2, 412604, Note_off_c, 0, 67, 64
2, 412604, Note_off_c, 0, 58, 64
2, 412608, Note_on_c, 0, 76, 52
2, 412608, Note_on_c, 0, 84, 52
2, 412796, Note_off_c, 0, 76, 64
2, 412796, Note_off_c, 0, 84, 64
2, 412800, Note_on_c, 0, 100, 52
2, 412800, Note_on_c, 0, 88, 52
2, 412988, Note_off_c, 0, 100, 64
2, 412988, Note_off_c, 0, 88, 64
2, 412992, Note_on_c, 0, 58, 52
2, 413180, Note_off_c, 0, 58, 64
2, 413184, Note_on_c, 0, 59, 52
2, 413216, Note_off_c, 0, 59, 64
2, 413220, Note_on_c, 0, 66, 52
2, 413252, Note_off_c, 0, 66, 64
2, 413256, Note_on_c, 0, 75, 52
2, 413288, Note_off_c, 0, 75, 64
2, 413292, Note_on_c, 0, 76, 52
2, 413372, Note_off_c, 0, 76, 64
2, 413376, Note_on_c, 0, 77, 52
2, 413468, Note_off_c, 0, 77, 64
2, 413472, Note_on_c, 0, 78, 52
2, 413564, Note_off_c, 0, 78, 64
2, 413568, Note_on_c, 0, 76, 52
2, 413660, Note_off_c, 0, 76, 64
2, 413664, Note_on_c, 0, 75, 52
2, 413756, Note_off_c, 0, 75, 64
2, 413760, Note_on_c, 0, 73, 52
2, 413852, Note_off_c, 0, 73, 64
2, 413856, Note_on_c, 0, 71, 52
2, 413856, Note_on_c, 0, 71, 52
2, 413948, Note_off_c, 0, 71, 64
2, 413948, Note_off_c, 0, 71, 64
2, 413952, Note_on_c, 0, 64, 52
2, 413984, Note_off_c, 0, 64, 64
2, 413988, Note_on_c, 0, 71, 52
2, 414020, Note_off_c, 0, 71, 64
2, 414024, Note_on_c, 0, 79, 52
2, 414056, Note_off_c, 0, 79, 64
2, 414060, Note_on_c, 0, 83, 52
2, 414140, Note_off_c, 0, 83, 64
2, 414144, Note_on_c, 0, 82, 52
2, 414236, Note_off_c, 0, 82, 64
2, 414240, Note_on_c, 0, 81, 52
2, 414332, Note_off_c, 0, 81, 64
2, 414336, Note_on_c, 0, 79, 52
2, 414428, Note_off_c, 0, 79, 64
2, 414432, Note_on_c, 0, 78, 52
2, 414432, Note_on_c, 0, 78, 52
2, 414524, Note_off_c, 0, 78, 64
2, 414524, Note_off_c, 0, 78, 64
2, 414528, Note_on_c, 0, 76, 52
2, 414620, Note_off_c, 0, 76, 64
2, 414624, Note_on_c, 0, 74, 52
2, 414716, Note_off_c, 0, 74, 64
2, 414720, Note_on_c, 0, 57, 52
2, 414752, Note_off_c, 0, 57, 64
2, 414756, Note_on_c, 0, 64, 52
2, 414788, Note_off_c, 0, 64, 64
2, 414792, Note_on_c, 0, 73, 52
2, 414824, Note_off_c, 0, 73, 64
2, 414828, Note_on_c, 0, 74, 52
2, 414908, Note_off_c, 0, 74, 64
2, 414912, Note_on_c, 0, 75, 52
2, 415004, Note_off_c, 0, 75, 64
2, 415008, Note_on_c, 0, 76, 52
2, 415100, Note_off_c, 0, 76, 64
2, 415104, Note_on_c, 0, 74, 52
2, 415196, Note_off_c, 0, 74, 64
2, 415200, Note_on_c, 0, 73, 52
2, 415292, Note_off_c, 0, 73, 64
2, 415296, Note_on_c, 0, 71, 52
2, 415388, Note_off_c, 0, 71, 64
2, 415392, Note_on_c, 0, 69, 52
2, 415484, Note_off_c, 0, 69, 64
2, 415488, Note_on_c, 0, 62, 52
2, 415520, Note_off_c, 0, 62, 64
2, 415524, Note_on_c, 0, 69, 52
2, 415556, Note_off_c, 0, 69, 64
2, 415560, Note_on_c, 0, 78, 52
2, 415592, Note_off_c, 0, 78, 64
2, 415596, Note_on_c, 0, 79, 52
2, 415676, Note_off_c, 0, 79, 64
2, 415680, Note_on_c, 0, 80, 52
2, 415772, Note_off_c, 0, 80, 64
2, 415776, Note_on_c, 0, 81, 52
2, 415868, Note_off_c, 0, 81, 64
2, 415872, Note_on_c, 0, 79, 52
2, 415964, Note_off_c, 0, 79, 64
2, 415968, Note_on_c, 0, 78, 52
2, 416060, Note_off_c, 0, 78, 64
2, 416064, Note_on_c, 0, 76, 52
2, 416156, Note_off_c, 0, 76, 64
2, 416160, Note_on_c, 0, 74, 52
2, 416252, Note_off_c, 0, 74, 64
2, 416256, Note_on_c, 0, 55, 75
2, 416348, Note_off_c, 0, 55, 64
2, 416352, Note_on_c, 0, 58, 75
2, 416444, Note_off_c, 0, 58, 64
2, 416448, Note_on_c, 0, 59, 75
2, 416540, Note_off_c, 0, 59, 64
2, 416544, Note_on_c, 0, 62, 75
2, 416636, Note_off_c, 0, 62, 64
2, 416640, Note_on_c, 0, 67, 75
2, 416732, Note_off_c, 0, 67, 64
2, 416736, Note_on_c, 0, 74, 75
2, 416828, Note_off_c, 0, 74, 64
2, 416832, Note_on_c, 0, 83, 75
2, 416924, Note_off_c, 0, 83, 64
2, 416928, Note_on_c, 0, 86, 75
2, 416976, Note_off_c, 0, 86, 64
2, 417024, Note_on_c, 0, 66, 75
2, 417116, Note_off_c, 0, 66, 64
2, 417120, Note_on_c, 0, 74, 75
2, 417212, Note_off_c, 0, 74, 64
2, 417216, Note_on_c, 0, 81, 75
2, 417308, Note_off_c, 0, 81, 64
2, 417312, Note_on_c, 0, 86, 75
2, 417360, Note_off_c, 0, 86, 64
2, 417408, Note_on_c, 0, 64, 75
2, 417500, Note_off_c, 0, 64, 64
2, 417504, Note_on_c, 0, 69, 75
2, 417596, Note_off_c, 0, 69, 64
2, 417600, Note_on_c, 0, 79, 75
2, 417692, Note_off_c, 0, 79, 64
2, 417696, Note_on_c, 0, 81, 75
2, 417744, Note_off_c, 0, 81, 64
2, 417792, Note_on_c, 0, 62, 75
2, 417884, Note_off_c, 0, 62, 64
2, 417888, Note_on_c, 0, 69, 75
2, 417980, Note_off_c, 0, 69, 64
2, 417984, Note_on_c, 0, 78, 75
2, 418076, Note_off_c, 0, 78, 64
2, 418080, Note_on_c, 0, 81, 75
2, 418128, Note_off_c, 0, 81, 64
2, 418176, Note_on_c, 0, 71, 60
2, 418224, Note_off_c, 0, 71, 64
2, 418272, Note_on_c, 0, 67, 60
2, 418320, Note_off_c, 0, 67, 64
2, 418368, Note_on_c, 0, 62, 60
2, 418416, Note_off_c, 0, 62, 64
2, 418464, Note_on_c, 0, 74, 60
2, 418512, Note_off_c, 0, 74, 64
2, 418560, Note_on_c, 0, 69, 60
2, 418608, Note_off_c, 0, 69, 64
2, 418656, Note_on_c, 0, 66, 60
2, 418704, Note_off_c, 0, 66, 64
2, 418752, Note_on_c, 0, 62, 60
2, 418800, Note_off_c, 0, 62, 64
2, 418848, Note_on_c, 0, 74, 60
2, 418896, Note_off_c, 0, 74, 64
2, 418944, Note_on_c, 0, 67, 60
2, 418992, Note_off_c, 0, 67, 64
2, 419040, Note_on_c, 0, 64, 60
2, 419088, Note_off_c, 0, 64, 64
2, 419136, Note_on_c, 0, 57, 60
2, 419184, Note_off_c, 0, 57, 64
2, 419232, Note_on_c, 0, 67, 60
2, 419280, Note_off_c, 0, 67, 64
2, 419328, Note_on_c, 0, 66, 60
2, 419376, Note_off_c, 0, 66, 64
2, 419424, Note_on_c, 0, 62, 60
2, 419472, Note_off_c, 0, 62, 64
2, 419520, Note_on_c, 0, 69, 60
2, 419568, Note_off_c, 0, 69, 64
2, 419616, Note_on_c, 0, 62, 60
2, 419664, Note_off_c, 0, 62, 64
2, 419712, Note_on_c, 0, 60, 75
2, 419804, Note_off_c, 0, 60, 64
2, 419808, Note_on_c, 0, 67, 75
2, 419900, Note_off_c, 0, 67, 64
2, 419904, Note_on_c, 0, 76, 75
2, 419996, Note_off_c, 0, 76, 64
2, 420000, Note_on_c, 0, 88, 75
2, 420048, Note_off_c, 0, 88, 64
2, 420096, Note_on_c, 0, 59, 75
2, 420188, Note_off_c, 0, 59, 64
2, 420192, Note_on_c, 0, 67, 75
2, 420284, Note_off_c, 0, 67, 64
2, 420288, Note_on_c, 0, 74, 75
2, 420380, Note_off_c, 0, 74, 64
2, 420384, Note_on_c, 0, 86, 75
2, 420432, Note_off_c, 0, 86, 64
2, 420480, Note_on_c, 0, 57, 75
2, 420572, Note_off_c, 0, 57, 64
2, 420576, Note_on_c, 0, 66, 75
2, 420668, Note_off_c, 0, 66, 64
2, 420672, Note_on_c, 0, 74, 75
2, 420764, Note_off_c, 0, 74, 64
2, 420768, Note_on_c, 0, 84, 75
2, 420816, Note_off_c, 0, 84, 64
2, 420864, Note_on_c, 0, 55, 60
2, 420956, Note_off_c, 0, 55, 64
2, 420960, Note_on_c, 0, 67, 60
2, 421052, Note_off_c, 0, 67, 64
2, 421056, Note_on_c, 0, 74, 60
2, 421148, Note_off_c, 0, 74, 64
2, 421152, Note_on_c, 0, 83, 60
2, 421200, Note_off_c, 0, 83, 64
2, 421248, Note_on_c, 0, 76, 60
2, 421296, Note_off_c, 0, 76, 64
2, 421344, Note_on_c, 0, 72, 60
2, 421392, Note_off_c, 0, 72, 64
2, 421440, Note_on_c, 0, 67, 60
2, 421488, Note_off_c, 0, 67, 64
2, 421536, Note_on_c, 0, 79, 60
2, 421584, Note_off_c, 0, 79, 64
2, 421632, Note_on_c, 0, 74, 60
2, 421680, Note_off_c, 0, 74, 64
2, 421728, Note_on_c, 0, 71, 60
2, 421776, Note_off_c, 0, 71, 64
2, 421824, Note_on_c, 0, 67, 60
2, 421872, Note_off_c, 0, 67, 64
2, 421920, Note_on_c, 0, 79, 60
2, 421968, Note_off_c, 0, 79, 64
2, 422016, Note_on_c, 0, 72, 60
2, 422064, Note_off_c, 0, 72, 64
2, 422112, Note_on_c, 0, 69, 60
2, 422160, Note_off_c, 0, 69, 64
2, 422208, Note_on_c, 0, 62, 60
2, 422256, Note_off_c, 0, 62, 64
2, 422304, Note_on_c, 0, 72, 60
2, 422352, Note_off_c, 0, 72, 64
2, 422400, Note_on_c, 0, 71, 60
2, 422492, Note_off_c, 0, 71, 64
2, 422496, Note_on_c, 0, 67, 60
2, 422588, Note_off_c, 0, 67, 64
2, 422592, Note_on_c, 0, 74, 60
2, 422684, Note_off_c, 0, 74, 64
2, 422688, Note_on_c, 0, 65, 60
2, 422780, Note_off_c, 0, 65, 64
2, 422784, Note_on_c, 0, 64, 60
2, 422876, Note_off_c, 0, 64, 64
2, 422880, Note_on_c, 0, 74, 60
2, 422972, Note_off_c, 0, 74, 64
2, 422976, Note_on_c, 0, 83, 60
2, 423068, Note_off_c, 0, 83, 64
2, 423072, Note_on_c, 0, 74, 60
2, 423164, Note_off_c, 0, 74, 64
2, 423168, Note_on_c, 0, 73, 60
2, 423260, Note_off_c, 0, 73, 64
2, 423264, Note_on_c, 0, 69, 60
2, 423356, Note_off_c, 0, 69, 64
2, 423360, Note_on_c, 0, 88, 60
2, 423452, Note_off_c, 0, 88, 64
2, 423456, Note_on_c, 0, 79, 60
2, 423548, Note_off_c, 0, 79, 64
2, 423552, Note_on_c, 0, 78, 60
2, 423644, Note_off_c, 0, 78, 64
2, 423648, Note_on_c, 0, 76, 60
2, 423740, Note_off_c, 0, 76, 64
2, 423744, Note_on_c, 0, 93, 60
2, 423836, Note_off_c, 0, 93, 64
2, 423840, Note_on_c, 0, 84, 60
2, 423932, Note_off_c, 0, 84, 64
2, 423936, Note_on_c, 0, 83, 60
2, 424028, Note_off_c, 0, 83, 64
2, 424032, Note_on_c, 0, 86, 60
2, 424124, Note_off_c, 0, 86, 64
2, 424128, Note_on_c, 0, 95, 60
2, 424220, Note_off_c, 0, 95, 64
2, 424224, Note_on_c, 0, 91, 60
2, 424316, Note_off_c, 0, 91, 64
2, 424320, Note_on_c, 0, 86, 60
2, 424412, Note_off_c, 0, 86, 64
2, 424416, Note_on_c, 0, 83, 60
2, 424508, Note_off_c, 0, 83, 64
2, 424512, Note_on_c, 0, 91, 60
2, 424604, Note_off_c, 0, 91, 64
2, 424608, Note_on_c, 0, 86, 60
2, 424700, Note_off_c, 0, 86, 64
2, 424704, Note_on_c, 0, 83, 60
2, 424796, Note_off_c, 0, 83, 64
2, 424800, Note_on_c, 0, 79, 60
2, 424892, Note_off_c, 0, 79, 64
2, 424896, Note_on_c, 0, 86, 60
2, 424988, Note_off_c, 0, 86, 64
2, 424992, Note_on_c, 0, 83, 60
2, 425084, Note_off_c, 0, 83, 64
2, 425088, Note_on_c, 0, 79, 63
2, 425132, Note_off_c, 0, 79, 64
2, 425136, Note_on_c, 0, 74, 63
2, 425180, Note_off_c, 0, 74, 64
2, 425184, Note_on_c, 0, 71, 63
2, 425228, Note_off_c, 0, 71, 64
2, 425232, Note_on_c, 0, 67, 63
2, 425276, Note_off_c, 0, 67, 64
2, 425280, Note_on_c, 0, 64, 63
2, 425324, Note_off_c, 0, 64, 64
2, 425328, Note_on_c, 0, 59, 66
2, 425372, Note_off_c, 0, 59, 64
2, 425376, Note_on_c, 0, 55, 68
2, 425468, Note_off_c, 0, 55, 64
2, 425472, Note_on_c, 0, 61, 65
2, 425516, Note_off_c, 0, 61, 64
2, 425520, Note_on_c, 0, 69, 64
2, 425564, Note_off_c, 0, 69, 64
2, 425568, Note_on_c, 0, 79, 64
2, 425612, Note_off_c, 0, 79, 64
2, 425616, Note_on_c, 0, 76, 64
2, 425660, Note_off_c, 0, 76, 64
2, 425664, Note_on_c, 0, 76, 64
2, 425708, Note_off_c, 0, 76, 64
2, 425712, Note_on_c, 0, 79, 64
2, 425756, Note_off_c, 0, 79, 64
2, 425760, Note_on_c, 0, 69, 64
2, 425804, Note_off_c, 0, 69, 64
2, 425808, Note_on_c, 0, 61, 67
2, 425852, Note_off_c, 0, 61, 64
2, 425856, Note_on_c, 0, 62, 66
2, 425900, Note_off_c, 0, 62, 64
2, 425904, Note_on_c, 0, 71, 65
2, 425948, Note_off_c, 0, 71, 64
2, 425952, Note_on_c, 0, 79, 65
2, 425996, Note_off_c, 0, 79, 64
2, 426000, Note_on_c, 0, 76, 65
2, 426044, Note_off_c, 0, 76, 64
2, 426048, Note_on_c, 0, 76, 65
2, 426092, Note_off_c, 0, 76, 64
2, 426096, Note_on_c, 0, 79, 66
2, 426140, Note_off_c, 0, 79, 64
2, 426144, Note_on_c, 0, 71, 66
2, 426188, Note_off_c, 0, 71, 64
2, 426192, Note_on_c, 0, 62, 67
2, 426236, Note_off_c, 0, 62, 64
2, 426240, Note_on_c, 0, 61, 68
2, 426284, Note_off_c, 0, 61, 64
2, 426288, Note_on_c, 0, 69, 66
2, 426332, Note_off_c, 0, 69, 64
2, 426336, Note_on_c, 0, 79, 66
2, 426380, Note_off_c, 0, 79, 64
2, 426384, Note_on_c, 0, 76, 66
2, 426428, Note_off_c, 0, 76, 64
2, 426432, Note_on_c, 0, 76, 67
2, 426476, Note_off_c, 0, 76, 64
2, 426480, Note_on_c, 0, 79, 67
2, 426524, Note_off_c, 0, 79, 64
2, 426528, Note_on_c, 0, 69, 67
2, 426572, Note_off_c, 0, 69, 64
2, 426576, Note_on_c, 0, 61, 69
2, 426620, Note_off_c, 0, 61, 64
2, 426624, Note_on_c, 0, 62, 68
2, 426668, Note_off_c, 0, 62, 64
2, 426672, Note_on_c, 0, 71, 67
2, 426716, Note_off_c, 0, 71, 64
2, 426720, Note_on_c, 0, 79, 68
2, 426764, Note_off_c, 0, 79, 64
2, 426768, Note_on_c, 0, 76, 68
2, 426812, Note_off_c, 0, 76, 64
2, 426816, Note_on_c, 0, 76, 68
2, 426860, Note_off_c, 0, 76, 64
2, 426864, Note_on_c, 0, 79, 68
2, 426908, Note_off_c, 0, 79, 64
2, 426912, Note_on_c, 0, 71, 68
2, 426956, Note_off_c, 0, 71, 64
2, 426960, Note_on_c, 0, 62, 69
2, 427004, Note_off_c, 0, 62, 64
2, 427008, Note_on_c, 0, 61, 71
2, 427052, Note_off_c, 0, 61, 64
2, 427056, Note_on_c, 0, 69, 69
2, 427100, Note_off_c, 0, 69, 64
2, 427104, Note_on_c, 0, 79, 69
2, 427148, Note_off_c, 0, 79, 64
2, 427152, Note_on_c, 0, 76, 69
2, 427196, Note_off_c, 0, 76, 64
2, 427200, Note_on_c, 0, 76, 69
2, 427244, Note_off_c, 0, 76, 64
2, 427248, Note_on_c, 0, 79, 69
2, 427292, Note_off_c, 0, 79, 64
2, 427296, Note_on_c, 0, 69, 69
2, 427340, Note_off_c, 0, 69, 64
2, 427344, Note_on_c, 0, 61, 72
2, 427388, Note_off_c, 0, 61, 64
2, 427392, Note_on_c, 0, 62, 71
2, 427436, Note_off_c, 0, 62, 64
2, 427440, Note_on_c, 0, 71, 70
2, 427484, Note_off_c, 0, 71, 64
2, 427488, Note_on_c, 0, 79, 70
2, 427532, Note_off_c, 0, 79, 64
2, 427536, Note_on_c, 0, 76, 70
2, 427580, Note_off_c, 0, 76, 64
2, 427584, Note_on_c, 0, 76, 70
2, 427628, Note_off_c, 0, 76, 64
2, 427632, Note_on_c, 0, 79, 71
2, 427676, Note_off_c, 0, 79, 64
2, 427680, Note_on_c, 0, 71, 71
2, 427724, Note_off_c, 0, 71, 64
2, 427728, Note_on_c, 0, 62, 72
2, 427772, Note_off_c, 0, 62, 64
2, 427776, Note_on_c, 0, 61, 73
2, 427820, Note_off_c, 0, 61, 64
2, 427824, Note_on_c, 0, 69, 71
2, 427868, Note_off_c, 0, 69, 64
2, 427872, Note_on_c, 0, 79, 71
2, 427916, Note_off_c, 0, 79, 64
2, 427920, Note_on_c, 0, 76, 71
2, 427964, Note_off_c, 0, 76, 64
2, 427968, Note_on_c, 0, 76, 72
2, 428012, Note_off_c, 0, 76, 64
2, 428016, Note_on_c, 0, 79, 72
2, 428060, Note_off_c, 0, 79, 64
2, 428064, Note_on_c, 0, 69, 72
2, 428108, Note_off_c, 0, 69, 64
2, 428112, Note_on_c, 0, 61, 73
2, 428156, Note_off_c, 0, 61, 64
2, 428160, Note_on_c, 0, 62, 74
2, 428204, Note_off_c, 0, 62, 64
2, 428208, Note_on_c, 0, 71, 72
2, 428252, Note_off_c, 0, 71, 64
2, 428256, Note_on_c, 0, 79, 73
2, 428300, Note_off_c, 0, 79, 64
2, 428304, Note_on_c, 0, 76, 73
2, 428348, Note_off_c, 0, 76, 64
2, 428352, Note_on_c, 0, 76, 73
2, 428396, Note_off_c, 0, 76, 64
2, 428400, Note_on_c, 0, 79, 73
2, 428444, Note_off_c, 0, 79, 64
2, 428448, Note_on_c, 0, 71, 73
2, 428492, Note_off_c, 0, 71, 64
2, 428496, Note_on_c, 0, 62, 74
2, 428540, Note_off_c, 0, 62, 64
2, 428544, Note_on_c, 0, 61, 76
2, 428588, Note_off_c, 0, 61, 64
2, 428592, Note_on_c, 0, 69, 74
2, 428636, Note_off_c, 0, 69, 64
2, 428640, Note_on_c, 0, 79, 74
2, 428684, Note_off_c, 0, 79, 64
2, 428688, Note_on_c, 0, 76, 74
2, 428732, Note_off_c, 0, 76, 64
2, 428736, Note_on_c, 0, 76, 74
2, 428780, Note_off_c, 0, 76, 64
2, 428784, Note_on_c, 0, 79, 74
2, 428828, Note_off_c, 0, 79, 64
2, 428832, Note_on_c, 0, 69, 74
2, 428876, Note_off_c, 0, 69, 64
2, 428880, Note_on_c, 0, 61, 77
2, 428924, Note_off_c, 0, 61, 64
2, 428928, Note_on_c, 0, 60, 77
2, 428972, Note_off_c, 0, 60, 64
2, 428976, Note_on_c, 0, 62, 76
2, 429020, Note_off_c, 0, 62, 64
2, 429024, Note_on_c, 0, 66, 75
2, 429068, Note_off_c, 0, 66, 64
2, 429072, Note_on_c, 0, 78, 75
2, 429116, Note_off_c, 0, 78, 64
2, 429120, Note_on_c, 0, 78, 75
2, 429164, Note_off_c, 0, 78, 64
2, 429168, Note_on_c, 0, 69, 76
2, 429212, Note_off_c, 0, 69, 64
2, 429216, Note_on_c, 0, 62, 77
2, 429260, Note_off_c, 0, 62, 64
2, 429264, Note_on_c, 0, 60, 78
2, 429308, Note_off_c, 0, 60, 64
2, 429312, Note_on_c, 0, 59, 79
2, 429356, Note_off_c, 0, 59, 64
2, 429360, Note_on_c, 0, 67, 76
2, 429404, Note_off_c, 0, 67, 64
2, 429408, Note_on_c, 0, 74, 76
2, 429452, Note_off_c, 0, 74, 64
2, 429456, Note_on_c, 0, 79, 76
2, 429500, Note_off_c, 0, 79, 64
2, 429504, Note_on_c, 0, 79, 77
2, 429548, Note_off_c, 0, 79, 64
2, 429552, Note_on_c, 0, 74, 77
2, 429596, Note_off_c, 0, 74, 64
2, 429600, Note_on_c, 0, 66, 77
2, 429644, Note_off_c, 0, 66, 64
2, 429648, Note_on_c, 0, 59, 80
2, 429692, Note_off_c, 0, 59, 64
2, 429696, Note_on_c, 0, 57, 81
2, 429740, Note_off_c, 0, 57, 64
2, 429744, Note_on_c, 0, 66, 77
2, 429788, Note_off_c, 0, 66, 64
2, 429792, Note_on_c, 0, 74, 78
2, 429836, Note_off_c, 0, 74, 64
2, 429840, Note_on_c, 0, 81, 78
2, 429884, Note_off_c, 0, 81, 64
2, 429888, Note_on_c, 0, 81, 78
2, 429932, Note_off_c, 0, 81, 64
2, 429936, Note_on_c, 0, 74, 78
2, 429980, Note_off_c, 0, 74, 64
2, 429984, Note_on_c, 0, 66, 78
2, 430028, Note_off_c, 0, 66, 64
2, 430032, Note_on_c, 0, 57, 82
2, 430076, Note_off_c, 0, 57, 64
2, 430080, Note_on_c, 0, 57, 84
2, 430124, Note_off_c, 0, 57, 64
2, 430128, Note_on_c, 0, 67, 79
2, 430172, Note_off_c, 0, 67, 64
2, 430176, Note_on_c, 0, 74, 79
2, 430220, Note_off_c, 0, 74, 64
2, 430224, Note_on_c, 0, 83, 79
2, 430268, Note_off_c, 0, 83, 64
2, 430272, Note_on_c, 0, 83, 79
2, 430316, Note_off_c, 0, 83, 64
2, 430320, Note_on_c, 0, 74, 79
2, 430364, Note_off_c, 0, 74, 64
2, 430368, Note_on_c, 0, 67, 79
2, 430412, Note_off_c, 0, 67, 64
2, 430416, Note_on_c, 0, 55, 86
2, 430460, Note_off_c, 0, 55, 64
2, 430464, Note_on_c, 0, 55, 86
2, 430508, Note_off_c, 0, 55, 64
2, 430512, Note_on_c, 0, 67, 80
2, 430556, Note_off_c, 0, 67, 64
2, 430576, Note_on_c, 0, 77, 80
2, 430608, Note_on_c, 0, 86, 80
2, 430620, Note_off_c, 0, 77, 64
2, 430652, Note_off_c, 0, 86, 64
2, 430656, Note_on_c, 0, 86, 80
2, 430700, Note_off_c, 0, 86, 64
2, 430704, Note_on_c, 0, 77, 81
2, 430748, Note_off_c, 0, 77, 64
2, 430752, Note_on_c, 0, 67, 81
2, 430796, Note_off_c, 0, 67, 64
2, 430800, Note_on_c, 0, 55, 87
2, 430844, Note_off_c, 0, 55, 64
2, 430848, Note_on_c, 0, 60, 84
2, 430892, Note_off_c, 0, 60, 64
2, 430896, Note_on_c, 0, 67, 81
2, 430940, Note_off_c, 0, 67, 64
2, 430944, Note_on_c, 0, 76, 81
2, 430988, Note_off_c, 0, 76, 64
2, 430992, Note_on_c, 0, 84, 81
2, 431036, Note_off_c, 0, 84, 64
2, 431040, Note_on_c, 0, 84, 82
2, 431084, Note_off_c, 0, 84, 64
2, 431088, Note_on_c, 0, 76, 82
2, 431132, Note_off_c, 0, 76, 64
2, 431136, Note_on_c, 0, 67, 82
2, 431180, Note_off_c, 0, 67, 64
2, 431184, Note_on_c, 0, 60, 85
2, 431228, Note_off_c, 0, 60, 64
2, 431232, Note_on_c, 0, 61, 85
2, 431276, Note_off_c, 0, 61, 64
2, 431280, Note_on_c, 0, 70, 82
2, 431324, Note_off_c, 0, 70, 64
2, 431328, Note_on_c, 0, 79, 84
2, 431372, Note_off_c, 0, 79, 64
2, 431376, Note_on_c, 0, 88, 84
2, 431420, Note_off_c, 0, 88, 64
2, 431424, Note_on_c, 0, 88, 84
2, 431468, Note_off_c, 0, 88, 64
2, 431472, Note_on_c, 0, 79, 84
2, 431516, Note_off_c, 0, 79, 64
2, 431520, Note_on_c, 0, 70, 84
2, 431564, Note_off_c, 0, 70, 64
2, 431568, Note_on_c, 0, 61, 86
2, 431612, Note_off_c, 0, 61, 64
2, 431616, Note_on_c, 0, 62, 86
2, 431660, Note_off_c, 0, 62, 64
2, 431664, Note_on_c, 0, 70, 85
2, 431708, Note_off_c, 0, 70, 64
2, 431712, Note_on_c, 0, 79, 85
2, 431756, Note_off_c, 0, 79, 64
2, 431760, Note_on_c, 0, 86, 85
2, 431804, Note_off_c, 0, 86, 64
2, 431808, Note_on_c, 0, 86, 85
2, 431852, Note_off_c, 0, 86, 64
2, 431856, Note_on_c, 0, 79, 85
2, 431900, Note_off_c, 0, 79, 64
2, 431904, Note_on_c, 0, 70, 85
2, 431948, Note_off_c, 0, 70, 64
2, 431952, Note_on_c, 0, 62, 87
2, 431996, Note_off_c, 0, 62, 64
2, 432000, Note_on_c, 0, 60, 88
2, 432044, Note_off_c, 0, 60, 64
2, 432048, Note_on_c, 0, 67, 86
2, 432092, Note_off_c, 0, 67, 64
2, 432096, Note_on_c, 0, 76, 86
2, 432140, Note_off_c, 0, 76, 64
2, 432144, Note_on_c, 0, 84, 86
2, 432188, Note_off_c, 0, 84, 64
2, 432192, Note_on_c, 0, 84, 86
2, 432236, Note_off_c, 0, 84, 64
2, 432240, Note_on_c, 0, 76, 87
2, 432284, Note_off_c, 0, 76, 64
2, 432288, Note_on_c, 0, 67, 87
2, 432332, Note_off_c, 0, 67, 64
2, 432336, Note_on_c, 0, 60, 89
2, 432380, Note_off_c, 0, 60, 64
2, 432384, Note_on_c, 0, 62, 88
2, 432428, Note_off_c, 0, 62, 64
2, 432432, Note_on_c, 0, 70, 87
2, 432476, Note_off_c, 0, 70, 64
2, 432480, Note_on_c, 0, 79, 87
2, 432524, Note_off_c, 0, 79, 64
2, 432528, Note_on_c, 0, 86, 87
2, 432572, Note_off_c, 0, 86, 64
2, 432576, Note_on_c, 0, 85, 88
2, 432620, Note_off_c, 0, 85, 64
2, 432624, Note_on_c, 0, 86, 89
2, 433296, Note_off_c, 0, 86, 64
2, 433344, Note_on_c, 0, 85, 89
2, 433436, Note_off_c, 0, 85, 64
2, 433440, Note_on_c, 0, 86, 88
2, 433532, Note_off_c, 0, 86, 64
2, 433536, Note_on_c, 0, 85, 88
2, 433628, Note_off_c, 0, 85, 64
2, 433632, Note_on_c, 0, 86, 87
2, 433724, Note_off_c, 0, 86, 64
2, 433728, Note_on_c, 0, 91, 87
2, 433820, Note_off_c, 0, 91, 64
2, 433824, Note_on_c, 0, 86, 86
2, 433916, Note_off_c, 0, 86, 64
2, 433920, Note_on_c, 0, 84, 86
2, 434012, Note_off_c, 0, 84, 64
2, 434012, Note_on_c, 0, 83, 86
2, 434104, Note_off_c, 0, 83, 64
2, 434112, Note_on_c, 0, 82, 85
2, 434204, Note_off_c, 0, 82, 64
2, 434208, Note_on_c, 0, 83, 85
2, 434300, Note_off_c, 0, 83, 64
2, 434304, Note_on_c, 0, 82, 84
2, 434396, Note_off_c, 0, 82, 64
2, 434400, Note_on_c, 0, 83, 84
2, 434492, Note_off_c, 0, 83, 64
2, 434496, Note_on_c, 0, 86, 82
2, 434588, Note_off_c, 0, 86, 64
2, 434592, Note_on_c, 0, 83, 82
2, 434684, Note_off_c, 0, 83, 64
2, 434688, Note_on_c, 0, 81, 81
2, 434780, Note_off_c, 0, 81, 64
2, 434784, Note_on_c, 0, 79, 81
2, 434876, Note_off_c, 0, 79, 64
2, 434880, Note_on_c, 0, 78, 81
2, 434972, Note_off_c, 0, 78, 64
2, 434976, Note_on_c, 0, 79, 80
2, 435068, Note_off_c, 0, 79, 64
2, 435072, Note_on_c, 0, 78, 80
2, 435164, Note_off_c, 0, 78, 64
2, 435168, Note_on_c, 0, 79, 79
2, 435260, Note_off_c, 0, 79, 64
2, 435264, Note_on_c, 0, 83, 79
2, 435356, Note_off_c, 0, 83, 64
2, 435360, Note_on_c, 0, 79, 78
2, 435452, Note_off_c, 0, 79, 64
2, 435456, Note_on_c, 0, 76, 78
2, 435548, Note_off_c, 0, 76, 64
2, 435552, Note_on_c, 0, 74, 78
2, 435644, Note_off_c, 0, 74, 64
2, 435648, Note_on_c, 0, 79, 77
2, 435740, Note_off_c, 0, 79, 64
2, 435744, Note_on_c, 0, 74, 77
2, 435836, Note_off_c, 0, 74, 64
2, 435840, Note_on_c, 0, 72, 76
2, 435932, Note_off_c, 0, 72, 64
2, 435936, Note_on_c, 0, 71, 76
2, 436028, Note_off_c, 0, 71, 64
2, 436032, Note_on_c, 0, 74, 75
2, 436124, Note_off_c, 0, 74, 64
2, 436128, Note_on_c, 0, 71, 75
2, 436220, Note_off_c, 0, 71, 64
2, 436224, Note_on_c, 0, 69, 74
2, 436316, Note_off_c, 0, 69, 64
2, 436320, Note_on_c, 0, 67, 74
2, 436412, Note_off_c, 0, 67, 64
2, 436416, Note_on_c, 0, 71, 74
2, 436508, Note_off_c, 0, 71, 64
2, 436512, Note_on_c, 0, 67, 73
2, 436604, Note_off_c, 0, 67, 64
2, 436608, Note_on_c, 0, 64, 73
2, 436700, Note_off_c, 0, 64, 64
2, 436704, Note_on_c, 0, 62, 73
2, 436796, Note_off_c, 0, 62, 64
2, 436800, Note_on_c, 0, 67, 72
2, 436892, Note_off_c, 0, 67, 64
2, 436896, Note_on_c, 0, 62, 72
2, 436988, Note_off_c, 0, 62, 64
2, 436992, Note_on_c, 0, 60, 73
2, 437084, Note_off_c, 0, 60, 64
2, 437088, Note_on_c, 0, 59, 74
2, 437180, Note_off_c, 0, 59, 64
2, 437184, Note_on_c, 0, 62, 71
2, 437276, Note_off_c, 0, 62, 64
2, 437280, Note_on_c, 0, 59, 73
2, 437372, Note_off_c, 0, 59, 64
2, 437376, Note_on_c, 0, 57, 73
2, 437468, Note_off_c, 0, 57, 64
2, 437472, Note_on_c, 0, 55, 74
2, 437564, Note_off_c, 0, 55, 64
2, 437568, Note_on_c, 0, 59, 71
2, 437660, Note_off_c, 0, 59, 64
2, 437664, Note_on_c, 0, 55, 73
2, 437756, Note_off_c, 0, 55, 64
2, 437760, Note_on_c, 0, 62, 68
2, 438636, Note_off_c, 0, 62, 64
2, 438720, Note_on_c, 0, 59, 64
2, 438912, Note_off_c, 0, 59, 64
2, 438912, Note_on_c, 0, 67, 65
2, 439096, Note_off_c, 0, 67, 64
2, 439104, Note_on_c, 0, 62, 66
2, 439296, Note_off_c, 0, 62, 64
2, 439296, Note_on_c, 0, 71, 68
2, 439480, Note_off_c, 0, 71, 64
2, 439488, Note_on_c, 0, 67, 69
2, 439680, Note_off_c, 0, 67, 64
2, 439680, Note_on_c, 0, 74, 70
2, 439864, Note_off_c, 0, 74, 64
2, 439872, Note_on_c, 0, 71, 72
2, 440064, Note_off_c, 0, 71, 64
2, 440064, Note_on_c, 0, 79, 73
2, 440248, Note_off_c, 0, 79, 64
2, 440256, Note_on_c, 0, 74, 74
2, 440448, Note_off_c, 0, 74, 64
2, 440448, Note_on_c, 0, 83, 76
2, 440632, Note_off_c, 0, 83, 64
2, 440640, Note_on_c, 0, 79, 78
2, 440832, Note_off_c, 0, 79, 64
2, 440832, Note_on_c, 0, 86, 80
2, 441016, Note_off_c, 0, 86, 64
2, 441024, Note_on_c, 0, 88, 81
2, 441212, Note_off_c, 0, 88, 64
2, 441216, Note_on_c, 0, 90, 82
2, 441404, Note_off_c, 0, 90, 64
2, 441408, Note_on_c, 0, 91, 84
2, 441596, Note_off_c, 0, 91, 64
2, 441600, Note_on_c, 0, 86, 81
2, 441600, Note_on_c, 0, 76, 81
2, 441600, Note_on_c, 0, 62, 81
2, 441788, Note_off_c, 0, 86, 64
2, 441788, Note_off_c, 0, 76, 64
2, 441788, Note_off_c, 0, 62, 64
2, 441792, Note_on_c, 0, 85, 79
2, 441792, Note_on_c, 0, 76, 79
2, 441980, Note_off_c, 0, 85, 64
2, 441980, Note_off_c, 0, 76, 64
2, 441984, Note_on_c, 0, 84, 77
2, 441984, Note_on_c, 0, 78, 77
2, 442172, Note_off_c, 0, 84, 64
2, 442172, Note_off_c, 0, 78, 64
2, 442176, Note_on_c, 0, 83, 75
2, 442176, Note_on_c, 0, 79, 75
2, 442364, Note_off_c, 0, 83, 64
2, 442364, Note_off_c, 0, 79, 64
2, 442368, Note_on_c, 0, 62, 73
2, 442368, Note_on_c, 0, 79, 73
2, 442368, Note_on_c, 0, 81, 73
2, 442748, Note_off_c, 0, 62, 64
2, 442748, Note_off_c, 0, 79, 64
2, 442748, Note_off_c, 0, 81, 64
2, 442752, Note_on_c, 0, 78, 73
2, 442752, Note_on_c, 0, 81, 73
2, 442940, Note_off_c, 0, 78, 64
2, 442944, Note_on_c, 0, 76, 73
2, 443132, Note_off_c, 0, 81, 64
2, 443132, Note_off_c, 0, 76, 64
2, 443136, Note_on_c, 0, 64, 84
2, 443180, Note_off_c, 0, 64, 64
2, 443184, Note_on_c, 0, 81, 73
2, 443184, Note_on_c, 0, 78, 73
2, 443228, Note_off_c, 0, 81, 64
2, 443232, Note_on_c, 0, 83, 73
2, 443276, Note_off_c, 0, 83, 64
2, 443280, Note_on_c, 0, 81, 73
2, 443324, Note_off_c, 0, 81, 64
2, 443328, Note_on_c, 0, 83, 73
2, 443372, Note_off_c, 0, 83, 64
2, 443376, Note_on_c, 0, 81, 73
2, 443420, Note_off_c, 0, 81, 64
2, 443424, Note_on_c, 0, 83, 73
2, 443468, Note_off_c, 0, 83, 64
2, 443472, Note_on_c, 0, 81, 73
2, 443516, Note_off_c, 0, 81, 64
2, 443520, Note_off_c, 0, 78, 64
2, 443520, Note_on_c, 0, 83, 73
2, 443564, Note_off_c, 0, 83, 64
2, 443568, Note_on_c, 0, 81, 73
2, 443612, Note_off_c, 0, 81, 64
2, 443616, Note_on_c, 0, 83, 73
2, 443660, Note_off_c, 0, 83, 64
2, 443664, Note_on_c, 0, 81, 73
2, 443708, Note_off_c, 0, 81, 64
2, 443712, Note_on_c, 0, 83, 73
2, 443756, Note_off_c, 0, 83, 64
2, 443760, Note_on_c, 0, 79, 73
2, 443804, Note_off_c, 0, 79, 64
2, 443808, Note_on_c, 0, 81, 73
2, 443900, Note_off_c, 0, 81, 64
2, 443904, Note_on_c, 0, 78, 78
2, 443904, Note_on_c, 0, 81, 78
2, 443996, Note_off_c, 0, 78, 64
2, 443996, Note_off_c, 0, 81, 64
2, 444000, Note_on_c, 0, 79, 73
2, 444092, Note_off_c, 0, 79, 64
2, 444096, Note_on_c, 0, 83, 78
2, 444192, Note_off_c, 0, 83, 64
2, 444192, Note_on_c, 0, 81, 73
2, 444280, Note_off_c, 0, 81, 64
2, 444288, Note_on_c, 0, 71, 82
2, 444288, Note_on_c, 0, 62, 82
2, 444288, Note_on_c, 0, 55, 82
2, 444288, Note_on_c, 0, 79, 72
2, 444476, Note_off_c, 0, 71, 64
2, 444476, Note_off_c, 0, 62, 64
2, 444476, Note_off_c, 0, 55, 64
2, 444476, Note_off_c, 0, 79, 64
2, 444480, Note_on_c, 0, 79, 73
2, 444480, Note_on_c, 0, 71, 73
2, 444480, Note_on_c, 0, 62, 73
2, 444480, Note_on_c, 0, 55, 73
2, 445052, Note_off_c, 0, 79, 64
2, 445052, Note_off_c, 0, 71, 64
2, 445052, Note_off_c, 0, 62, 64
2, 445052, Note_off_c, 0, 55, 64
2, 445052, End_track
3, 0, Start_track
3, 0, Title_t, "Concerto #3"
3, 0, Control_c, 1, 0, 0
3, 0, Program_c, 1, 48
3, 0, Control_c, 1, 10, 54
3, 0, Control_c, 1, 91, 66
3, 0, Control_c, 1, 93, 0
3, 0, Key_signature, 1, "major"
3, 0, Control_c, 1, 121, 0
3, 384, Control_c, 1, 10, 53
3, 480, Control_c, 1, 91, 73
3, 624, Program_c, 1, 48
3, 1536, Note_on_c, 1, 79, 92
3, 1536, Note_on_c, 1, 74, 92
3, 1536, Note_on_c, 1, 67, 92
3, 1536, Note_on_c, 1, 71, 92
3, 1868, Note_off_c, 1, 79, 64
3, 1868, Note_off_c, 1, 74, 64
3, 1868, Note_off_c, 1, 67, 64
3, 1868, Note_off_c, 1, 71, 64
3, 1920, Note_on_c, 1, 74, 71
3, 1920, Note_on_c, 1, 79, 71
3, 2484, Note_off_c, 1, 74, 64
3, 2484, Note_off_c, 1, 79, 64
3, 2496, Note_on_c, 1, 78, 71
3, 2592, Note_off_c, 1, 78, 64
3, 2592, Note_on_c, 1, 79, 71
3, 2680, Note_off_c, 1, 79, 64
3, 2688, Note_on_c, 1, 78, 71
3, 2784, Note_off_c, 1, 78, 64
3, 2784, Note_on_c, 1, 79, 71
3, 2872, Note_off_c, 1, 79, 64
3, 2880, Note_on_c, 1, 78, 71
3, 2976, Note_off_c, 1, 78, 64
3, 2976, Note_on_c, 1, 79, 71
3, 3064, Note_off_c, 1, 79, 64
3, 3072, Note_on_c, 1, 74, 92
3, 3072, Note_on_c, 1, 71, 92
3, 3072, Note_on_c, 1, 67, 92
3, 3072, Note_on_c, 1, 62, 92
3, 3404, Note_off_c, 1, 74, 64
3, 3404, Note_off_c, 1, 71, 64
3, 3404, Note_off_c, 1, 67, 64
3, 3404, Note_off_c, 1, 62, 64
3, 3456, Note_on_c, 1, 74, 71
3, 3456, Note_on_c, 1, 71, 71
3, 4020, Note_off_c, 1, 74, 64
3, 4020, Note_off_c, 1, 71, 64
3, 4032, Note_on_c, 1, 73, 71
3, 4128, Note_off_c, 1, 73, 64
3, 4128, Note_on_c, 1, 74, 71
3, 4216, Note_off_c, 1, 74, 64
3, 4224, Note_on_c, 1, 73, 71
3, 4320, Note_off_c, 1, 73, 64
3, 4320, Note_on_c, 1, 74, 71
3, 4408, Note_off_c, 1, 74, 64
3, 4416, Note_on_c, 1, 73, 71
3, 4512, Note_off_c, 1, 73, 64
3, 4512, Note_on_c, 1, 74, 71
3, 4600, Note_off_c, 1, 74, 64
3, 4608, Note_on_c, 1, 71, 92
3, 4608, Note_on_c, 1, 67, 92
3, 4608, Note_on_c, 1, 62, 92
3, 4940, Note_off_c, 1, 71, 64
3, 4940, Note_off_c, 1, 67, 64
3, 4940, Note_off_c, 1, 62, 64
3, 4992, Note_on_c, 1, 71, 71
3, 5556, Note_off_c, 1, 71, 64
3, 5568, Note_on_c, 1, 72, 76
3, 5608, Note_off_c, 1, 72, 64
3, 5616, Note_on_c, 1, 74, 76
3, 5656, Note_off_c, 1, 74, 64
3, 5664, Note_on_c, 1, 71, 76
3, 5704, Note_off_c, 1, 71, 64
3, 5712, Note_on_c, 1, 72, 76
3, 5752, Note_off_c, 1, 72, 64
3, 5760, Note_on_c, 1, 74, 71
3, 5860, Note_off_c, 1, 74, 64
3, 5952, Note_on_c, 1, 76, 71
3, 6052, Note_off_c, 1, 76, 64
3, 6144, Note_on_c, 1, 67, 71
3, 6336, Note_off_c, 1, 67, 64
3, 6336, Note_on_c, 1, 66, 71
3, 6520, Note_off_c, 1, 66, 64
3, 6528, Note_on_c, 1, 66, 71
3, 6716, Note_off_c, 1, 66, 64
3, 7680, Note_on_c, 1, 81, 92
3, 7680, Note_on_c, 1, 78, 92
3, 7680, Note_on_c, 1, 74, 92
3, 7680, Note_on_c, 1, 69, 92
3, 8424, Note_off_c, 1, 81, 64
3, 8424, Note_off_c, 1, 78, 64
3, 8424, Note_off_c, 1, 74, 64
3, 8424, Note_off_c, 1, 69, 64
3, 8448, Note_on_c, 1, 81, 92
3, 8448, Note_on_c, 1, 78, 92
3, 8544, Note_off_c, 1, 81, 64
3, 8544, Note_off_c, 1, 78, 64
3, 8544, Note_on_c, 1, 79, 92
3, 8544, Note_on_c, 1, 76, 92
3, 8632, Note_off_c, 1, 79, 64
3, 8632, Note_off_c, 1, 76, 64
3, 8640, Note_on_c, 1, 78, 96
3, 8640, Note_on_c, 1, 74, 96
3, 8680, Note_off_c, 1, 78, 64
3, 8680, Note_off_c, 1, 74, 64
3, 8736, Note_on_c, 1, 79, 96
3, 8736, Note_on_c, 1, 76, 96
3, 8776, Note_off_c, 1, 79, 64
3, 8776, Note_off_c, 1, 76, 64
3, 8832, Note_on_c, 1, 81, 92
3, 8832, Note_on_c, 1, 78, 92
3, 8928, Note_off_c, 1, 81, 64
3, 8928, Note_off_c, 1, 78, 64
3, 8928, Note_on_c, 1, 83, 92
3, 8928, Note_on_c, 1, 79, 92
3, 9016, Note_off_c, 1, 83, 64
3, 9016, Note_off_c, 1, 79, 64
3, 9024, Note_on_c, 1, 81, 92
3, 9024, Note_on_c, 1, 78, 92
3, 9120, Note_off_c, 1, 81, 64
3, 9120, Note_off_c, 1, 78, 64
3, 9120, Note_on_c, 1, 83, 92
3, 9120, Note_on_c, 1, 79, 92
3, 9208, Note_off_c, 1, 83, 64
3, 9208, Note_off_c, 1, 79, 64
3, 9216, Note_on_c, 1, 84, 92
3, 9216, Note_on_c, 1, 81, 92
3, 9504, Note_off_c, 1, 84, 64
3, 9504, Note_off_c, 1, 81, 64
3, 9504, Note_on_c, 1, 81, 92
3, 9504, Note_on_c, 1, 78, 92
3, 9592, Note_off_c, 1, 81, 64
3, 9592, Note_off_c, 1, 78, 64
3, 9600, Note_on_c, 1, 84, 92
3, 9600, Note_on_c, 1, 81, 92
3, 10272, Note_off_c, 1, 84, 64
3, 10272, Note_off_c, 1, 81, 64
3, 10272, Note_on_c, 1, 81, 92
3, 10272, Note_on_c, 1, 78, 92
3, 10360, Note_off_c, 1, 81, 64
3, 10360, Note_off_c, 1, 78, 64
3, 10368, Note_on_c, 1, 81, 92
3, 10368, Note_on_c, 1, 84, 92
3, 10940, Note_off_c, 1, 81, 64
3, 10940, Note_off_c, 1, 84, 64
3, 10944, Note_on_c, 1, 83, 71
3, 10944, Note_on_c, 1, 79, 71
3, 11044, Note_off_c, 1, 83, 64
3, 11044, Note_off_c, 1, 79, 64
3, 11136, Note_on_c, 1, 81, 71
3, 11136, Note_on_c, 1, 78, 71
3, 11236, Note_off_c, 1, 81, 64
3, 11236, Note_off_c, 1, 78, 64
3, 11328, Note_on_c, 1, 79, 71
3, 11328, Note_on_c, 1, 83, 71
3, 11428, Note_off_c, 1, 79, 64
3, 11428, Note_off_c, 1, 83, 64
3, 11520, Note_on_c, 1, 81, 71
3, 11520, Note_on_c, 1, 78, 71
3, 11620, Note_off_c, 1, 81, 64
3, 11620, Note_off_c, 1, 78, 64
3, 11712, Note_on_c, 1, 79, 71
3, 11712, Note_on_c, 1, 76, 71
3, 11812, Note_off_c, 1, 79, 64
3, 11812, Note_off_c, 1, 76, 64
3, 11904, Note_on_c, 1, 78, 71
3, 11904, Note_on_c, 1, 74, 71
3, 12004, Note_off_c, 1, 78, 64
3, 12004, Note_off_c, 1, 74, 64
3, 12096, Note_on_c, 1, 76, 71
3, 12096, Note_on_c, 1, 73, 71
3, 12196, Note_off_c, 1, 76, 64
3, 12196, Note_off_c, 1, 73, 64
3, 12288, Note_on_c, 1, 74, 71
3, 12480, Note_on_c, 1, 66, 71
3, 12672, Note_off_c, 1, 66, 64
3, 12672, Note_on_c, 1, 69, 71
3, 12864, Note_off_c, 1, 74, 64
3, 12864, Note_on_c, 1, 76, 71
3, 13048, Note_off_c, 1, 69, 64
3, 13048, Note_off_c, 1, 76, 64
3, 13056, Note_on_c, 1, 72, 71
3, 13248, Note_on_c, 1, 69, 71
3, 13440, Note_off_c, 1, 69, 64
3, 13440, Note_on_c, 1, 66, 71
3, 13632, Note_off_c, 1, 72, 64
3, 13632, Note_on_c, 1, 74, 71
3, 13816, Note_off_c, 1, 66, 64
3, 13816, Note_off_c, 1, 74, 64
3, 13824, Note_on_c, 1, 71, 71
3, 14016, Note_on_c, 1, 62, 71
3, 14208, Note_off_c, 1, 62, 64
3, 14208, Note_on_c, 1, 67, 71
3, 14400, Note_off_c, 1, 71, 64
3, 14400, Note_on_c, 1, 72, 71
3, 14584, Note_off_c, 1, 67, 64
3, 14584, Note_off_c, 1, 72, 64
3, 14592, Note_on_c, 1, 69, 71
3, 14784, Note_on_c, 1, 64, 71
3, 14976, Note_off_c, 1, 64, 64
3, 14976, Note_on_c, 1, 60, 71
3, 15168, Note_off_c, 1, 69, 64
3, 15168, Note_on_c, 1, 76, 71
3, 15352, Note_off_c, 1, 60, 64
3, 15352, Note_off_c, 1, 76, 64
3, 15360, Note_on_c, 1, 67, 71
3, 15552, Note_on_c, 1, 59, 71
3, 15744, Note_off_c, 1, 59, 64
3, 15744, Note_on_c, 1, 62, 71
3, 15932, Note_off_c, 1, 62, 64
3, 15936, Note_on_c, 1, 64, 71
3, 16120, Note_off_c, 1, 64, 64
3, 16128, Note_on_c, 1, 62, 71
3, 16316, Note_off_c, 1, 62, 64
3, 16320, Note_on_c, 1, 62, 71
3, 16508, Note_off_c, 1, 67, 64
3, 16508, Note_off_c, 1, 62, 64
3, 16512, Note_on_c, 1, 71, 81
3, 16584, Note_off_c, 1, 71, 64
3, 16588, Note_on_c, 1, 66, 71
3, 16588, Note_on_c, 1, 60, 71
3, 16588, Note_on_c, 1, 69, 71
3, 16700, Note_off_c, 1, 66, 64
3, 16700, Note_off_c, 1, 60, 64
3, 16704, Note_on_c, 1, 66, 71
3, 16704, Note_on_c, 1, 60, 71
3, 16888, Note_off_c, 1, 69, 64
3, 16892, Note_off_c, 1, 66, 64
3, 16892, Note_off_c, 1, 60, 64
3, 16896, Note_on_c, 1, 67, 92
3, 16896, Note_on_c, 1, 59, 92
3, 17084, Note_off_c, 1, 67, 64
3, 17084, Note_off_c, 1, 59, 64
3, 17088, Note_on_c, 1, 67, 92
3, 17088, Note_on_c, 1, 62, 92
3, 17088, Note_on_c, 1, 59, 92
3, 17180, Note_off_c, 1, 67, 64
3, 17180, Note_off_c, 1, 62, 64
3, 17180, Note_off_c, 1, 59, 64
3, 17184, Note_on_c, 1, 67, 92
3, 17184, Note_on_c, 1, 62, 92
3, 17184, Note_on_c, 1, 59, 92
3, 17276, Note_off_c, 1, 67, 64
3, 17276, Note_off_c, 1, 62, 64
3, 17276, Note_off_c, 1, 59, 64
3, 17280, Note_on_c, 1, 67, 92
3, 17280, Note_on_c, 1, 62, 92
3, 17280, Note_on_c, 1, 59, 92
3, 17468, Note_off_c, 1, 67, 64
3, 17468, Note_off_c, 1, 62, 64
3, 17468, Note_off_c, 1, 59, 64
3, 17472, Note_on_c, 1, 74, 92
3, 17472, Note_on_c, 1, 71, 92
3, 17472, Note_on_c, 1, 67, 92
3, 17472, Note_on_c, 1, 62, 92
3, 17564, Note_off_c, 1, 74, 64
3, 17564, Note_off_c, 1, 71, 64
3, 17564, Note_off_c, 1, 67, 64
3, 17564, Note_off_c, 1, 62, 64
3, 17568, Note_on_c, 1, 79, 92
3, 17568, Note_on_c, 1, 67, 92
3, 17568, Note_on_c, 1, 62, 92
3, 17568, Note_on_c, 1, 71, 92
3, 17660, Note_off_c, 1, 79, 64
3, 17660, Note_off_c, 1, 67, 64
3, 17660, Note_off_c, 1, 62, 64
3, 17660, Note_off_c, 1, 71, 64
3, 17664, Note_on_c, 1, 83, 92
3, 17664, Note_on_c, 1, 71, 92
3, 17664, Note_on_c, 1, 67, 92
3, 17664, Note_on_c, 1, 62, 92
3, 17852, Note_off_c, 1, 83, 64
3, 17852, Note_off_c, 1, 71, 64
3, 17852, Note_off_c, 1, 67, 64
3, 17852, Note_off_c, 1, 62, 64
3, 17856, Note_on_c, 1, 71, 92
3, 17856, Note_on_c, 1, 67, 92
3, 17856, Note_on_c, 1, 62, 92
3, 17856, Note_on_c, 1, 79, 92
3, 17948, Note_off_c, 1, 71, 64
3, 17948, Note_off_c, 1, 67, 64
3, 17948, Note_off_c, 1, 62, 64
3, 17948, Note_off_c, 1, 79, 64
3, 17952, Note_on_c, 1, 71, 92
3, 17952, Note_on_c, 1, 67, 92
3, 17952, Note_on_c, 1, 62, 92
3, 17952, Note_on_c, 1, 83, 92
3, 18044, Note_off_c, 1, 71, 64
3, 18044, Note_off_c, 1, 67, 64
3, 18044, Note_off_c, 1, 62, 64
3, 18044, Note_off_c, 1, 83, 64
3, 18048, Note_on_c, 1, 86, 92
3, 18048, Note_on_c, 1, 71, 92
3, 18048, Note_on_c, 1, 67, 92
3, 18048, Note_on_c, 1, 62, 92
3, 18236, Note_off_c, 1, 86, 64
3, 18236, Note_off_c, 1, 71, 64
3, 18236, Note_off_c, 1, 67, 64
3, 18236, Note_off_c, 1, 62, 64
3, 18240, Note_on_c, 1, 83, 92
3, 18240, Note_on_c, 1, 71, 92
3, 18240, Note_on_c, 1, 67, 92
3, 18240, Note_on_c, 1, 62, 92
3, 18332, Note_off_c, 1, 83, 64
3, 18332, Note_off_c, 1, 71, 64
3, 18332, Note_off_c, 1, 67, 64
3, 18332, Note_off_c, 1, 62, 64
3, 18336, Note_on_c, 1, 86, 92
3, 18336, Note_on_c, 1, 71, 92
3, 18336, Note_on_c, 1, 67, 92
3, 18336, Note_on_c, 1, 62, 92
3, 18428, Note_off_c, 1, 86, 64
3, 18428, Note_off_c, 1, 71, 64
3, 18428, Note_off_c, 1, 67, 64
3, 18428, Note_off_c, 1, 62, 64
3, 18432, Note_on_c, 1, 81, 92
3, 18432, Note_on_c, 1, 78, 92
3, 18432, Note_on_c, 1, 74, 92
3, 18432, Note_on_c, 1, 84, 92
3, 18620, Note_off_c, 1, 81, 64
3, 18620, Note_off_c, 1, 78, 64
3, 18620, Note_off_c, 1, 74, 64
3, 18624, Note_on_c, 1, 81, 92
3, 18624, Note_on_c, 1, 78, 92
3, 18624, Note_on_c, 1, 74, 92
3, 18716, Note_off_c, 1, 81, 64
3, 18716, Note_off_c, 1, 78, 64
3, 18716, Note_off_c, 1, 74, 64
3, 18720, Note_on_c, 1, 81, 92
3, 18720, Note_on_c, 1, 78, 92
3, 18720, Note_on_c, 1, 74, 92
3, 18812, Note_off_c, 1, 81, 64
3, 18812, Note_off_c, 1, 78, 64
3, 18812, Note_off_c, 1, 74, 64
3, 18816, Note_on_c, 1, 81, 92
3, 18816, Note_on_c, 1, 78, 92
3, 18816, Note_on_c, 1, 74, 92
3, 19004, Note_off_c, 1, 84, 64
3, 19004, Note_off_c, 1, 81, 64
3, 19004, Note_off_c, 1, 78, 64
3, 19004, Note_off_c, 1, 74, 64
3, 19008, Note_on_c, 1, 81, 92
3, 19008, Note_on_c, 1, 72, 92
3, 19008, Note_on_c, 1, 69, 92
3, 19008, Note_on_c, 1, 66, 92
3, 19008, Note_on_c, 1, 62, 92
3, 19100, Note_off_c, 1, 72, 64
3, 19100, Note_off_c, 1, 69, 64
3, 19100, Note_off_c, 1, 66, 64
3, 19100, Note_off_c, 1, 62, 64
3, 19104, Note_on_c, 1, 66, 92
3, 19104, Note_on_c, 1, 62, 92
3, 19104, Note_on_c, 1, 72, 92
3, 19104, Note_on_c, 1, 69, 92
3, 19196, Note_off_c, 1, 81, 64
3, 19196, Note_off_c, 1, 66, 64
3, 19196, Note_off_c, 1, 62, 64
3, 19196, Note_off_c, 1, 72, 64
3, 19196, Note_off_c, 1, 69, 64
3, 19200, Note_on_c, 1, 72, 92
3, 19200, Note_on_c, 1, 66, 92
3, 19200, Note_on_c, 1, 62, 92
3, 19200, Note_on_c, 1, 69, 92
3, 19200, Note_on_c, 1, 79, 102
3, 19292, Note_off_c, 1, 79, 64
3, 19296, Note_on_c, 1, 78, 92
3, 19388, Note_off_c, 1, 72, 64
3, 19388, Note_off_c, 1, 66, 64
3, 19388, Note_off_c, 1, 62, 64
3, 19388, Note_off_c, 1, 69, 64
3, 19388, Note_off_c, 1, 78, 64
3, 19392, Note_on_c, 1, 72, 92
3, 19392, Note_on_c, 1, 69, 92
3, 19392, Note_on_c, 1, 66, 92
3, 19392, Note_on_c, 1, 62, 92
3, 19392, Note_on_c, 1, 76, 92
3, 19484, Note_off_c, 1, 72, 64
3, 19484, Note_off_c, 1, 69, 64
3, 19484, Note_off_c, 1, 66, 64
3, 19484, Note_off_c, 1, 62, 64
3, 19484, Note_off_c, 1, 76, 64
3, 19488, Note_on_c, 1, 72, 92
3, 19488, Note_on_c, 1, 69, 92
3, 19488, Note_on_c, 1, 66, 92
3, 19488, Note_on_c, 1, 78, 92
3, 19488, Note_on_c, 1, 62, 92
3, 19580, Note_off_c, 1, 72, 64
3, 19580, Note_off_c, 1, 69, 64
3, 19580, Note_off_c, 1, 66, 64
3, 19580, Note_off_c, 1, 78, 64
3, 19580, Note_off_c, 1, 62, 64
3, 19584, Note_on_c, 1, 72, 92
3, 19584, Note_on_c, 1, 69, 92
3, 19584, Note_on_c, 1, 66, 92
3, 19584, Note_on_c, 1, 62, 92
3, 19584, Note_on_c, 1, 79, 102
3, 19676, Note_off_c, 1, 79, 64
3, 19680, Note_on_c, 1, 78, 92
3, 19772, Note_off_c, 1, 72, 64
3, 19772, Note_off_c, 1, 69, 64
3, 19772, Note_off_c, 1, 66, 64
3, 19772, Note_off_c, 1, 62, 64
3, 19772, Note_off_c, 1, 78, 64
3, 19776, Note_on_c, 1, 72, 92
3, 19776, Note_on_c, 1, 76, 92
3, 19776, Note_on_c, 1, 69, 92
3, 19776, Note_on_c, 1, 66, 92
3, 19776, Note_on_c, 1, 62, 92
3, 19868, Note_off_c, 1, 72, 64
3, 19868, Note_off_c, 1, 76, 64
3, 19868, Note_off_c, 1, 69, 64
3, 19868, Note_off_c, 1, 66, 64
3, 19868, Note_off_c, 1, 62, 64
3, 19872, Note_on_c, 1, 72, 92
3, 19872, Note_on_c, 1, 69, 92
3, 19872, Note_on_c, 1, 66, 92
3, 19872, Note_on_c, 1, 62, 92
3, 19872, Note_on_c, 1, 78, 92
3, 19964, Note_off_c, 1, 72, 64
3, 19964, Note_off_c, 1, 69, 64
3, 19964, Note_off_c, 1, 66, 64
3, 19964, Note_off_c, 1, 62, 64
3, 19964, Note_off_c, 1, 78, 64
3, 19968, Note_on_c, 1, 74, 92
3, 19968, Note_on_c, 1, 71, 92
3, 19968, Note_on_c, 1, 79, 92
3, 20156, Note_off_c, 1, 74, 64
3, 20156, Note_off_c, 1, 71, 64
3, 20160, Note_on_c, 1, 74, 92
3, 20160, Note_on_c, 1, 71, 92
3, 20252, Note_off_c, 1, 74, 64
3, 20252, Note_off_c, 1, 71, 64
3, 20256, Note_on_c, 1, 74, 92
3, 20256, Note_on_c, 1, 71, 92
3, 20348, Note_off_c, 1, 79, 64
3, 20348, Note_off_c, 1, 74, 64
3, 20348, Note_off_c, 1, 71, 64
3, 20352, Note_on_c, 1, 74, 92
3, 20352, Note_on_c, 1, 71, 92
3, 20540, Note_off_c, 1, 74, 64
3, 20540, Note_off_c, 1, 71, 64
3, 20544, Note_on_c, 1, 74, 92
3, 20544, Note_on_c, 1, 71, 92
3, 20544, Note_on_c, 1, 67, 92
3, 20544, Note_on_c, 1, 62, 92
3, 20636, Note_off_c, 1, 74, 64
3, 20636, Note_off_c, 1, 71, 64
3, 20636, Note_off_c, 1, 67, 64
3, 20636, Note_off_c, 1, 62, 64
3, 20640, Note_on_c, 1, 79, 102
3, 20640, Note_on_c, 1, 71, 92
3, 20640, Note_on_c, 1, 67, 92
3, 20640, Note_on_c, 1, 62, 92
3, 20732, Note_off_c, 1, 79, 64
3, 20732, Note_off_c, 1, 71, 64
3, 20732, Note_off_c, 1, 67, 64
3, 20732, Note_off_c, 1, 62, 64
3, 20736, Note_on_c, 1, 83, 92
3, 20736, Note_on_c, 1, 71, 92
3, 20736, Note_on_c, 1, 67, 92
3, 20736, Note_on_c, 1, 62, 92
3, 20924, Note_off_c, 1, 83, 64
3, 20924, Note_off_c, 1, 71, 64
3, 20924, Note_off_c, 1, 67, 64
3, 20924, Note_off_c, 1, 62, 64
3, 20928, Note_on_c, 1, 79, 92
3, 20928, Note_on_c, 1, 67, 92
3, 20928, Note_on_c, 1, 71, 92
3, 20928, Note_on_c, 1, 62, 92
3, 21020, Note_off_c, 1, 79, 64
3, 21020, Note_off_c, 1, 67, 64
3, 21020, Note_off_c, 1, 71, 64
3, 21020, Note_off_c, 1, 62, 64
3, 21024, Note_on_c, 1, 83, 102
3, 21024, Note_on_c, 1, 71, 92
3, 21024, Note_on_c, 1, 67, 92
3, 21024, Note_on_c, 1, 62, 92
3, 21116, Note_off_c, 1, 83, 64
3, 21116, Note_off_c, 1, 71, 64
3, 21116, Note_off_c, 1, 67, 64
3, 21116, Note_off_c, 1, 62, 64
3, 21120, Note_on_c, 1, 86, 92
3, 21120, Note_on_c, 1, 71, 92
3, 21120, Note_on_c, 1, 67, 92
3, 21120, Note_on_c, 1, 64, 92
3, 21308, Note_off_c, 1, 86, 64
3, 21308, Note_off_c, 1, 71, 64
3, 21308, Note_off_c, 1, 67, 64
3, 21308, Note_off_c, 1, 64, 64
3, 21312, Note_on_c, 1, 83, 92
3, 21312, Note_on_c, 1, 71, 92
3, 21312, Note_on_c, 1, 67, 92
3, 21312, Note_on_c, 1, 62, 92
3, 21404, Note_off_c, 1, 83, 64
3, 21404, Note_off_c, 1, 71, 64
3, 21404, Note_off_c, 1, 67, 64
3, 21404, Note_off_c, 1, 62, 64
3, 21408, Note_on_c, 1, 86, 92
3, 21408, Note_on_c, 1, 71, 92
3, 21408, Note_on_c, 1, 67, 92
3, 21408, Note_on_c, 1, 62, 92
3, 21500, Note_off_c, 1, 86, 64
3, 21500, Note_off_c, 1, 71, 64
3, 21500, Note_off_c, 1, 67, 64
3, 21500, Note_off_c, 1, 62, 64
3, 21504, Note_on_c, 1, 81, 92
3, 21504, Note_on_c, 1, 78, 92
3, 21504, Note_on_c, 1, 74, 92
3, 21504, Note_on_c, 1, 84, 92
3, 21692, Note_off_c, 1, 81, 64
3, 21692, Note_off_c, 1, 78, 64
3, 21692, Note_off_c, 1, 74, 64
3, 21696, Note_on_c, 1, 81, 92
3, 21696, Note_on_c, 1, 78, 92
3, 21696, Note_on_c, 1, 74, 92
3, 21788, Note_off_c, 1, 81, 64
3, 21788, Note_off_c, 1, 78, 64
3, 21788, Note_off_c, 1, 74, 64
3, 21792, Note_on_c, 1, 81, 92
3, 21792, Note_on_c, 1, 78, 92
3, 21792, Note_on_c, 1, 74, 92
3, 21884, Note_off_c, 1, 81, 64
3, 21884, Note_off_c, 1, 78, 64
3, 21884, Note_off_c, 1, 74, 64
3, 21888, Note_on_c, 1, 81, 92
3, 21888, Note_on_c, 1, 78, 92
3, 21888, Note_on_c, 1, 74, 92
3, 22076, Note_off_c, 1, 84, 64
3, 22076, Note_off_c, 1, 81, 64
3, 22076, Note_off_c, 1, 78, 64
3, 22076, Note_off_c, 1, 74, 64
3, 22080, Note_on_c, 1, 81, 92
3, 22080, Note_on_c, 1, 72, 92
3, 22080, Note_on_c, 1, 69, 92
3, 22080, Note_on_c, 1, 66, 92
3, 22080, Note_on_c, 1, 62, 92
3, 22172, Note_off_c, 1, 72, 64
3, 22172, Note_off_c, 1, 69, 64
3, 22172, Note_off_c, 1, 66, 64
3, 22172, Note_off_c, 1, 62, 64
3, 22176, Note_on_c, 1, 72, 92
3, 22176, Note_on_c, 1, 66, 92
3, 22176, Note_on_c, 1, 69, 92
3, 22176, Note_on_c, 1, 62, 92
3, 22268, Note_off_c, 1, 81, 64
3, 22268, Note_off_c, 1, 72, 64
3, 22268, Note_off_c, 1, 66, 64
3, 22268, Note_off_c, 1, 69, 64
3, 22268, Note_off_c, 1, 62, 64
3, 22272, Note_on_c, 1, 79, 102
3, 22272, Note_on_c, 1, 69, 92
3, 22272, Note_on_c, 1, 66, 92
3, 22272, Note_on_c, 1, 62, 92
3, 22272, Note_on_c, 1, 72, 92
3, 22364, Note_off_c, 1, 79, 64
3, 22368, Note_on_c, 1, 78, 92
3, 22460, Note_off_c, 1, 69, 64
3, 22460, Note_off_c, 1, 66, 64
3, 22460, Note_off_c, 1, 62, 64
3, 22460, Note_off_c, 1, 72, 64
3, 22460, Note_off_c, 1, 78, 64
3, 22464, Note_on_c, 1, 76, 92
3, 22464, Note_on_c, 1, 69, 92
3, 22464, Note_on_c, 1, 66, 92
3, 22464, Note_on_c, 1, 62, 92
3, 22464, Note_on_c, 1, 72, 92
3, 22556, Note_off_c, 1, 76, 64
3, 22556, Note_off_c, 1, 69, 64
3, 22556, Note_off_c, 1, 66, 64
3, 22556, Note_off_c, 1, 62, 64
3, 22556, Note_off_c, 1, 72, 64
3, 22560, Note_on_c, 1, 78, 92
3, 22560, Note_on_c, 1, 72, 92
3, 22560, Note_on_c, 1, 69, 92
3, 22560, Note_on_c, 1, 62, 92
3, 22560, Note_on_c, 1, 66, 92
3, 22652, Note_off_c, 1, 78, 64
3, 22652, Note_off_c, 1, 72, 64
3, 22652, Note_off_c, 1, 69, 64
3, 22652, Note_off_c, 1, 62, 64
3, 22652, Note_off_c, 1, 66, 64
3, 22656, Note_on_c, 1, 79, 102
3, 22656, Note_on_c, 1, 72, 92
3, 22656, Note_on_c, 1, 69, 92
3, 22656, Note_on_c, 1, 66, 92
3, 22656, Note_on_c, 1, 62, 92
3, 22748, Note_off_c, 1, 79, 64
3, 22752, Note_on_c, 1, 78, 92
3, 22844, Note_off_c, 1, 72, 64
3, 22844, Note_off_c, 1, 69, 64
3, 22844, Note_off_c, 1, 66, 64
3, 22844, Note_off_c, 1, 62, 64
3, 22844, Note_off_c, 1, 78, 64
3, 22848, Note_on_c, 1, 76, 92
3, 22848, Note_on_c, 1, 69, 92
3, 22848, Note_on_c, 1, 62, 92
3, 22848, Note_on_c, 1, 72, 92
3, 22848, Note_on_c, 1, 66, 92
3, 22940, Note_off_c, 1, 76, 64
3, 22940, Note_off_c, 1, 69, 64
3, 22940, Note_off_c, 1, 62, 64
3, 22940, Note_off_c, 1, 72, 64
3, 22940, Note_off_c, 1, 66, 64
3, 22944, Note_on_c, 1, 78, 92
3, 22944, Note_on_c, 1, 72, 92
3, 22944, Note_on_c, 1, 69, 92
3, 22944, Note_on_c, 1, 66, 92
3, 22944, Note_on_c, 1, 62, 92
3, 23036, Note_off_c, 1, 78, 64
3, 23036, Note_off_c, 1, 72, 64
3, 23036, Note_off_c, 1, 69, 64
3, 23036, Note_off_c, 1, 66, 64
3, 23036, Note_off_c, 1, 62, 64
3, 23040, Note_on_c, 1, 79, 92
3, 23040, Note_on_c, 1, 71, 92
3, 23228, Note_off_c, 1, 79, 64
3, 23228, Note_off_c, 1, 71, 64
3, 23232, Note_on_c, 1, 79, 92
3, 23232, Note_on_c, 1, 71, 92
3, 23612, Note_off_c, 1, 79, 64
3, 23612, Note_off_c, 1, 71, 64
3, 23616, Note_on_c, 1, 79, 92
3, 23616, Note_on_c, 1, 71, 92
3, 23984, Note_on_c, 1, 71, 92
3, 23996, Note_off_c, 1, 79, 64
3, 23996, Note_off_c, 1, 71, 64
3, 24000, Note_on_c, 1, 79, 92
3, 24364, Note_off_c, 1, 71, 64
3, 24380, Note_off_c, 1, 79, 64
3, 24384, Note_on_c, 1, 79, 92
3, 24384, Note_on_c, 1, 71, 92
3, 24572, Note_off_c, 1, 79, 64
3, 24572, Note_off_c, 1, 71, 64
3, 24576, Note_on_c, 1, 79, 92
3, 24576, Note_on_c, 1, 69, 92
3, 24764, Note_off_c, 1, 79, 64
3, 24764, Note_off_c, 1, 69, 64
3, 24768, Note_on_c, 1, 79, 92
3, 24768, Note_on_c, 1, 69, 92
3, 25148, Note_off_c, 1, 79, 64
3, 25148, Note_off_c, 1, 69, 64
3, 25152, Note_on_c, 1, 69, 92
3, 25152, Note_on_c, 1, 79, 92
3, 25532, Note_off_c, 1, 69, 64
3, 25532, Note_off_c, 1, 79, 64
3, 25536, Note_on_c, 1, 79, 92
3, 25536, Note_on_c, 1, 69, 92
3, 25904, Note_on_c, 1, 69, 92
3, 25916, Note_off_c, 1, 79, 64
3, 25916, Note_off_c, 1, 69, 64
3, 25920, Note_on_c, 1, 79, 92
3, 26092, Note_off_c, 1, 69, 64
3, 26108, Note_off_c, 1, 79, 64
3, 26112, Note_on_c, 1, 78, 92
3, 26112, Note_on_c, 1, 69, 92
3, 26492, Note_off_c, 1, 78, 64
3, 26492, Note_off_c, 1, 69, 64
3, 26688, Note_on_c, 1, 79, 92
3, 26688, Note_on_c, 1, 74, 92
3, 26688, Note_on_c, 1, 71, 92
3, 26876, Note_off_c, 1, 79, 64
3, 26876, Note_off_c, 1, 74, 64
3, 26876, Note_off_c, 1, 71, 64
3, 26880, Note_on_c, 1, 78, 92
3, 26880, Note_on_c, 1, 74, 92
3, 26880, Note_on_c, 1, 69, 92
3, 27260, Note_off_c, 1, 78, 64
3, 27260, Note_off_c, 1, 74, 64
3, 27260, Note_off_c, 1, 69, 64
3, 27456, Note_on_c, 1, 79, 92
3, 27456, Note_on_c, 1, 74, 92
3, 27456, Note_on_c, 1, 71, 92
3, 27644, Note_off_c, 1, 79, 64
3, 27644, Note_off_c, 1, 74, 64
3, 27644, Note_off_c, 1, 71, 64
3, 27648, Note_on_c, 1, 78, 92
3, 27648, Note_on_c, 1, 74, 92
3, 27648, Note_on_c, 1, 69, 92
3, 28028, Note_off_c, 1, 78, 64
3, 28028, Note_off_c, 1, 74, 64
3, 28028, Note_off_c, 1, 69, 64
3, 28416, Note_on_c, 1, 73, 92
3, 28468, Note_off_c, 1, 73, 64
3, 28472, Note_on_c, 1, 74, 81
3, 28736, Note_off_c, 1, 74, 64
3, 28800, Note_on_c, 1, 73, 92
3, 28852, Note_off_c, 1, 73, 64
3, 28856, Note_on_c, 1, 74, 81
3, 29120, Note_off_c, 1, 74, 64
3, 29184, Note_on_c, 1, 79, 71
3, 29184, Note_on_c, 1, 74, 71
3, 29184, Note_on_c, 1, 71, 71
3, 29184, Note_on_c, 1, 67, 71
3, 29276, Note_off_c, 1, 71, 64
3, 29276, Note_off_c, 1, 67, 64
3, 29280, Note_on_c, 1, 62, 71
3, 29372, Note_off_c, 1, 62, 64
3, 29376, Note_on_c, 1, 71, 71
3, 29376, Note_on_c, 1, 67, 71
3, 29468, Note_off_c, 1, 71, 64
3, 29468, Note_off_c, 1, 67, 64
3, 29472, Note_on_c, 1, 62, 71
3, 29564, Note_off_c, 1, 62, 64
3, 29568, Note_on_c, 1, 71, 71
3, 29568, Note_on_c, 1, 67, 71
3, 29660, Note_off_c, 1, 71, 64
3, 29660, Note_off_c, 1, 67, 64
3, 29664, Note_on_c, 1, 62, 71
3, 29756, Note_off_c, 1, 62, 64
3, 29760, Note_on_c, 1, 71, 71
3, 29760, Note_on_c, 1, 67, 71
3, 29852, Note_off_c, 1, 71, 64
3, 29852, Note_off_c, 1, 67, 64
3, 29856, Note_on_c, 1, 62, 71
3, 29940, Note_off_c, 1, 79, 64
3, 29940, Note_off_c, 1, 74, 64
3, 29948, Note_off_c, 1, 62, 64
3, 29952, Note_on_c, 1, 81, 71
3, 29952, Note_on_c, 1, 78, 71
3, 29952, Note_on_c, 1, 72, 71
3, 29952, Note_on_c, 1, 66, 71
3, 30044, Note_off_c, 1, 72, 64
3, 30044, Note_off_c, 1, 66, 64
3, 30048, Note_on_c, 1, 62, 71
3, 30128, Note_on_c, 1, 66, 71
3, 30140, Note_off_c, 1, 62, 64
3, 30144, Note_on_c, 1, 72, 71
3, 30220, Note_off_c, 1, 66, 64
3, 30236, Note_off_c, 1, 72, 64
3, 30240, Note_on_c, 1, 62, 71
3, 30332, Note_off_c, 1, 62, 64
3, 30336, Note_on_c, 1, 72, 71
3, 30336, Note_on_c, 1, 66, 71
3, 30428, Note_off_c, 1, 72, 64
3, 30428, Note_off_c, 1, 66, 64
3, 30432, Note_on_c, 1, 62, 71
3, 30524, Note_off_c, 1, 62, 64
3, 30528, Note_on_c, 1, 72, 71
3, 30528, Note_on_c, 1, 66, 71
3, 30620, Note_off_c, 1, 72, 64
3, 30620, Note_off_c, 1, 66, 64
3, 30624, Note_on_c, 1, 62, 71
3, 30708, Note_off_c, 1, 81, 64
3, 30708, Note_off_c, 1, 78, 64
3, 30716, Note_off_c, 1, 62, 64
3, 30720, Note_on_c, 1, 79, 71
3, 30720, Note_on_c, 1, 83, 71
3, 30720, Note_on_c, 1, 71, 71
3, 30720, Note_on_c, 1, 67, 71
3, 30812, Note_off_c, 1, 71, 64
3, 30812, Note_off_c, 1, 67, 64
3, 30816, Note_on_c, 1, 62, 71
3, 30908, Note_off_c, 1, 62, 64
3, 30912, Note_on_c, 1, 71, 71
3, 30912, Note_on_c, 1, 67, 71
3, 31004, Note_off_c, 1, 71, 64
3, 31004, Note_off_c, 1, 67, 64
3, 31008, Note_on_c, 1, 62, 71
3, 31100, Note_off_c, 1, 79, 64
3, 31100, Note_off_c, 1, 83, 64
3, 31100, Note_off_c, 1, 62, 64
3, 31104, Note_on_c, 1, 81, 71
3, 31104, Note_on_c, 1, 84, 71
3, 31104, Note_on_c, 1, 69, 71
3, 31104, Note_on_c, 1, 66, 71
3, 31196, Note_off_c, 1, 69, 64
3, 31196, Note_off_c, 1, 66, 64
3, 31200, Note_on_c, 1, 62, 71
3, 31292, Note_off_c, 1, 62, 64
3, 31296, Note_on_c, 1, 69, 71
3, 31296, Note_on_c, 1, 66, 71
3, 31388, Note_off_c, 1, 69, 64
3, 31388, Note_off_c, 1, 66, 64
3, 31392, Note_on_c, 1, 62, 71
3, 31484, Note_off_c, 1, 81, 64
3, 31484, Note_off_c, 1, 84, 64
3, 31484, Note_off_c, 1, 62, 64
3, 31488, Note_on_c, 1, 81, 71
3, 31488, Note_on_c, 1, 78, 71
3, 31488, Note_on_c, 1, 66, 71
3, 31488, Note_on_c, 1, 72, 71
3, 31580, Note_off_c, 1, 66, 64
3, 31580, Note_off_c, 1, 72, 64
3, 31584, Note_on_c, 1, 62, 71
3, 31676, Note_off_c, 1, 81, 64
3, 31676, Note_off_c, 1, 78, 64
3, 31676, Note_off_c, 1, 62, 64
3, 31680, Note_on_c, 1, 72, 71
3, 31680, Note_on_c, 1, 66, 71
3, 31772, Note_off_c, 1, 72, 64
3, 31772, Note_off_c, 1, 66, 64
3, 31776, Note_on_c, 1, 62, 71
3, 31868, Note_off_c, 1, 62, 64
3, 31872, Note_on_c, 1, 72, 71
3, 31872, Note_on_c, 1, 69, 71
3, 31964, Note_off_c, 1, 72, 64
3, 31964, Note_off_c, 1, 69, 64
3, 31968, Note_on_c, 1, 62, 71
3, 32060, Note_off_c, 1, 62, 64
3, 32064, Note_on_c, 1, 72, 71
3, 32064, Note_on_c, 1, 69, 71
3, 32156, Note_off_c, 1, 72, 64
3, 32156, Note_off_c, 1, 69, 64
3, 32160, Note_on_c, 1, 62, 71
3, 32252, Note_off_c, 1, 62, 64
3, 32256, Note_on_c, 1, 79, 71
3, 32256, Note_on_c, 1, 74, 71
3, 32256, Note_on_c, 1, 71, 71
3, 32256, Note_on_c, 1, 67, 71
3, 32348, Note_off_c, 1, 71, 64
3, 32348, Note_off_c, 1, 67, 64
3, 32352, Note_on_c, 1, 62, 71
3, 32444, Note_off_c, 1, 62, 64
3, 32448, Note_on_c, 1, 71, 71
3, 32448, Note_on_c, 1, 67, 71
3, 32540, Note_off_c, 1, 71, 64
3, 32540, Note_off_c, 1, 67, 64
3, 32544, Note_on_c, 1, 62, 71
3, 32636, Note_off_c, 1, 79, 64
3, 32636, Note_off_c, 1, 74, 64
3, 32636, Note_off_c, 1, 62, 64
3, 32640, Note_on_c, 1, 71, 71
3, 32640, Note_on_c, 1, 67, 71
3, 32640, Note_on_c, 1, 79, 71
3, 32640, Note_on_c, 1, 74, 71
3, 32732, Note_off_c, 1, 71, 64
3, 32732, Note_off_c, 1, 67, 64
3, 32736, Note_on_c, 1, 62, 71
3, 32828, Note_off_c, 1, 62, 64
3, 32832, Note_on_c, 1, 71, 71
3, 32832, Note_on_c, 1, 67, 71
3, 32924, Note_off_c, 1, 79, 64
3, 32924, Note_off_c, 1, 74, 64
3, 32924, Note_off_c, 1, 71, 64
3, 32924, Note_off_c, 1, 67, 64
3, 32928, Note_on_c, 1, 62, 71
3, 32928, Note_on_c, 1, 79, 71
3, 32928, Note_on_c, 1, 74, 71
3, 32928, Note_on_c, 1, 74, 71
3, 33020, Note_off_c, 1, 62, 64
3, 33020, Note_off_c, 1, 79, 64
3, 33020, Note_off_c, 1, 74, 64
3, 33020, Note_off_c, 1, 74, 64
3, 33024, Note_on_c, 1, 72, 71
3, 33024, Note_on_c, 1, 81, 71
3, 33024, Note_on_c, 1, 78, 71
3, 33024, Note_on_c, 1, 66, 71
3, 33116, Note_off_c, 1, 72, 64
3, 33116, Note_off_c, 1, 66, 64
3, 33120, Note_on_c, 1, 62, 71
3, 33212, Note_off_c, 1, 62, 64
3, 33216, Note_on_c, 1, 72, 71
3, 33216, Note_on_c, 1, 66, 71
3, 33308, Note_off_c, 1, 72, 64
3, 33308, Note_off_c, 1, 66, 64
3, 33312, Note_on_c, 1, 62, 71
3, 33404, Note_off_c, 1, 81, 64
3, 33404, Note_off_c, 1, 78, 64
3, 33404, Note_off_c, 1, 62, 64
3, 33408, Note_on_c, 1, 72, 71
3, 33408, Note_on_c, 1, 66, 71
3, 33408, Note_on_c, 1, 81, 71
3, 33408, Note_on_c, 1, 78, 71
3, 33500, Note_off_c, 1, 72, 64
3, 33500, Note_off_c, 1, 66, 64
3, 33504, Note_on_c, 1, 62, 71
3, 33596, Note_off_c, 1, 62, 64
3, 33600, Note_on_c, 1, 72, 71
3, 33600, Note_on_c, 1, 66, 71
3, 33692, Note_off_c, 1, 81, 64
3, 33692, Note_off_c, 1, 78, 64
3, 33692, Note_off_c, 1, 72, 64
3, 33692, Note_off_c, 1, 66, 64
3, 33696, Note_on_c, 1, 62, 71
3, 33696, Note_on_c, 1, 81, 71
3, 33696, Note_on_c, 1, 78, 71
3, 33788, Note_off_c, 1, 62, 64
3, 33788, Note_off_c, 1, 81, 64
3, 33788, Note_off_c, 1, 78, 64
3, 33792, Note_on_c, 1, 79, 71
3, 33792, Note_on_c, 1, 83, 71
3, 33792, Note_on_c, 1, 71, 71
3, 33792, Note_on_c, 1, 67, 71
3, 33884, Note_off_c, 1, 71, 64
3, 33884, Note_off_c, 1, 67, 64
3, 33888, Note_on_c, 1, 62, 71
3, 33980, Note_off_c, 1, 79, 64
3, 33980, Note_off_c, 1, 83, 64
3, 33980, Note_off_c, 1, 62, 64
3, 33984, Note_on_c, 1, 71, 71
3, 33984, Note_on_c, 1, 67, 71
3, 34076, Note_off_c, 1, 71, 64
3, 34076, Note_off_c, 1, 67, 64
3, 34080, Note_on_c, 1, 62, 71
3, 34172, Note_off_c, 1, 62, 64
3, 34176, Note_on_c, 1, 86, 81
3, 34176, Note_on_c, 1, 83, 81
3, 34176, Note_on_c, 1, 66, 71
3, 34176, Note_on_c, 1, 69, 71
3, 34224, Note_off_c, 1, 86, 64
3, 34224, Note_off_c, 1, 83, 64
3, 34232, Note_on_c, 1, 84, 71
3, 34232, Note_on_c, 1, 81, 71
3, 34268, Note_off_c, 1, 66, 64
3, 34268, Note_off_c, 1, 69, 64
3, 34272, Note_on_c, 1, 62, 71
3, 34360, Note_off_c, 1, 84, 64
3, 34360, Note_off_c, 1, 81, 64
3, 34364, Note_off_c, 1, 62, 64
3, 34368, Note_on_c, 1, 69, 71
3, 34368, Note_on_c, 1, 66, 71
3, 34460, Note_off_c, 1, 69, 64
3, 34460, Note_off_c, 1, 66, 64
3, 34464, Note_on_c, 1, 62, 71
3, 34556, Note_off_c, 1, 62, 64
3, 34560, Note_on_c, 1, 72, 71
3, 34560, Note_on_c, 1, 66, 71
3, 34560, Note_on_c, 1, 78, 71
3, 34560, Note_on_c, 1, 81, 71
3, 34652, Note_off_c, 1, 72, 64
3, 34652, Note_off_c, 1, 66, 64
3, 34656, Note_on_c, 1, 62, 71
3, 34748, Note_off_c, 1, 78, 64
3, 34748, Note_off_c, 1, 81, 64
3, 34748, Note_off_c, 1, 62, 64
3, 34752, Note_on_c, 1, 72, 71
3, 34752, Note_on_c, 1, 66, 71
3, 34844, Note_off_c, 1, 72, 64
3, 34844, Note_off_c, 1, 66, 64
3, 34848, Note_on_c, 1, 62, 71
3, 34940, Note_off_c, 1, 62, 64
3, 34944, Note_on_c, 1, 72, 71
3, 34944, Note_on_c, 1, 69, 71
3, 35036, Note_off_c, 1, 72, 64
3, 35036, Note_off_c, 1, 69, 64
3, 35040, Note_on_c, 1, 62, 71
3, 35132, Note_off_c, 1, 62, 64
3, 35136, Note_on_c, 1, 72, 71
3, 35136, Note_on_c, 1, 69, 71
3, 35228, Note_off_c, 1, 72, 64
3, 35228, Note_off_c, 1, 69, 64
3, 35232, Note_on_c, 1, 62, 71
3, 35324, Note_off_c, 1, 62, 64
3, 35328, Note_on_c, 1, 79, 92
3, 35328, Note_on_c, 1, 71, 92
3, 35428, Note_off_c, 1, 79, 64
3, 35428, Note_off_c, 1, 71, 64
3, 35520, Note_on_c, 1, 83, 92
3, 35620, Note_off_c, 1, 83, 64
3, 35712, Note_on_c, 1, 86, 92
3, 36000, Note_off_c, 1, 86, 64
3, 36288, Note_on_c, 1, 83, 92
3, 36388, Note_off_c, 1, 83, 64
3, 36480, Note_on_c, 1, 79, 92
3, 36668, Note_off_c, 1, 79, 64
3, 36864, Note_on_c, 1, 76, 92
3, 36964, Note_off_c, 1, 76, 64
3, 37056, Note_on_c, 1, 72, 92
3, 37156, Note_off_c, 1, 72, 64
3, 37248, Note_on_c, 1, 79, 92
3, 37536, Note_off_c, 1, 79, 64
3, 37824, Note_on_c, 1, 76, 92
3, 37924, Note_off_c, 1, 76, 64
3, 38016, Note_on_c, 1, 84, 92
3, 38204, Note_off_c, 1, 84, 64
3, 38400, Note_on_c, 1, 84, 102
3, 38452, Note_off_c, 1, 84, 64
3, 38456, Note_on_c, 1, 83, 92
3, 38588, Note_off_c, 1, 83, 64
3, 38592, Note_on_c, 1, 81, 92
3, 38684, Note_off_c, 1, 81, 64
3, 38688, Note_on_c, 1, 79, 92
3, 38780, Note_off_c, 1, 79, 64
3, 38784, Note_on_c, 1, 84, 102
3, 38836, Note_off_c, 1, 84, 64
3, 38840, Note_on_c, 1, 83, 92
3, 38972, Note_off_c, 1, 83, 64
3, 38976, Note_on_c, 1, 81, 92
3, 39068, Note_off_c, 1, 81, 64
3, 39072, Note_on_c, 1, 79, 92
3, 39164, Note_off_c, 1, 79, 64
3, 39168, Note_on_c, 1, 81, 92
3, 39212, Note_off_c, 1, 81, 64
3, 39216, Note_on_c, 1, 83, 92
3, 39260, Note_off_c, 1, 83, 64
3, 39264, Note_on_c, 1, 81, 92
3, 39308, Note_off_c, 1, 81, 64
3, 39312, Note_on_c, 1, 83, 92
3, 39356, Note_off_c, 1, 83, 64
3, 39360, Note_on_c, 1, 81, 92
3, 39404, Note_off_c, 1, 81, 64
3, 39408, Note_on_c, 1, 83, 92
3, 39452, Note_off_c, 1, 83, 64
3, 39456, Note_on_c, 1, 81, 92
3, 39500, Note_off_c, 1, 81, 64
3, 39504, Note_on_c, 1, 83, 92
3, 39548, Note_off_c, 1, 83, 64
3, 39552, Note_on_c, 1, 81, 92
3, 39596, Note_off_c, 1, 81, 64
3, 39600, Note_on_c, 1, 83, 92
3, 39644, Note_off_c, 1, 83, 64
3, 39648, Note_on_c, 1, 81, 92
3, 39692, Note_off_c, 1, 81, 64
3, 39696, Note_on_c, 1, 83, 92
3, 39740, Note_off_c, 1, 83, 64
3, 39744, Note_on_c, 1, 79, 92
3, 39836, Note_off_c, 1, 79, 64
3, 39840, Note_on_c, 1, 81, 92
3, 39932, Note_off_c, 1, 81, 64
3, 39936, Note_on_c, 1, 79, 97
3, 40316, Note_off_c, 1, 79, 64
3, 40512, Note_on_c, 1, 81, 87
3, 40548, Note_off_c, 1, 81, 64
3, 40560, Note_on_c, 1, 79, 87
3, 40604, Note_off_c, 1, 79, 64
3, 40608, Note_on_c, 1, 78, 76
3, 40696, Note_off_c, 1, 78, 64
3, 40704, Note_on_c, 1, 79, 76
3, 40804, Note_off_c, 1, 79, 64
3, 40896, Note_on_c, 1, 79, 76
3, 40996, Note_off_c, 1, 79, 64
3, 41088, Note_on_c, 1, 79, 76
3, 41188, Note_off_c, 1, 79, 64
3, 41280, Note_on_c, 1, 79, 76
3, 41380, Note_off_c, 1, 79, 64
3, 41472, Note_on_c, 1, 78, 87
3, 41504, Note_off_c, 1, 78, 64
3, 41520, Note_on_c, 1, 79, 87
3, 41552, Note_off_c, 1, 79, 64
3, 41568, Note_on_c, 1, 81, 76
3, 41820, Note_off_c, 1, 81, 64
3, 42048, Note_on_c, 1, 84, 76
3, 42144, Note_off_c, 1, 84, 64
3, 42144, Note_on_c, 1, 83, 76
3, 42232, Note_off_c, 1, 83, 64
3, 42240, Note_on_c, 1, 84, 76
3, 42340, Note_off_c, 1, 84, 64
3, 42432, Note_on_c, 1, 84, 76
3, 42532, Note_off_c, 1, 84, 64
3, 42624, Note_on_c, 1, 84, 76
3, 42724, Note_off_c, 1, 84, 64
3, 42816, Note_on_c, 1, 84, 76
3, 42916, Note_off_c, 1, 84, 64
3, 43008, Note_on_c, 1, 83, 87
3, 43040, Note_off_c, 1, 83, 64
3, 43056, Note_on_c, 1, 84, 87
3, 43088, Note_off_c, 1, 84, 64
3, 43104, Note_on_c, 1, 86, 76
3, 43356, Note_off_c, 1, 86, 64
3, 43584, Note_on_c, 1, 76, 87
3, 43620, Note_off_c, 1, 76, 64
3, 43632, Note_on_c, 1, 74, 76
3, 43676, Note_off_c, 1, 74, 64
3, 43680, Note_on_c, 1, 73, 76
3, 43768, Note_off_c, 1, 73, 64
3, 43776, Note_on_c, 1, 74, 76
3, 43876, Note_off_c, 1, 74, 64
3, 43968, Note_on_c, 1, 74, 76
3, 44068, Note_off_c, 1, 74, 64
3, 44160, Note_on_c, 1, 74, 76
3, 44352, Note_off_c, 1, 74, 64
3, 44352, Note_on_c, 1, 75, 76
3, 44536, Note_off_c, 1, 75, 64
3, 44544, Note_on_c, 1, 76, 87
3, 44576, Note_off_c, 1, 76, 64
3, 44592, Note_on_c, 1, 78, 87
3, 44624, Note_off_c, 1, 78, 64
3, 44640, Note_on_c, 1, 79, 76
3, 44892, Note_off_c, 1, 79, 64
3, 45120, Note_on_c, 1, 76, 76
3, 45220, Note_off_c, 1, 76, 64
3, 45312, Note_on_c, 1, 81, 87
3, 45344, Note_off_c, 1, 81, 64
3, 45360, Note_on_c, 1, 83, 87
3, 45392, Note_off_c, 1, 83, 64
3, 45408, Note_on_c, 1, 84, 76
3, 45660, Note_off_c, 1, 84, 64
3, 45888, Note_on_c, 1, 76, 76
3, 45988, Note_off_c, 1, 76, 64
3, 46080, Note_on_c, 1, 78, 87
3, 46112, Note_off_c, 1, 78, 64
3, 46128, Note_on_c, 1, 79, 87
3, 46160, Note_off_c, 1, 79, 64
3, 46176, Note_on_c, 1, 81, 76
3, 46428, Note_off_c, 1, 81, 64
3, 46656, Note_on_c, 1, 78, 76
3, 46752, Note_off_c, 1, 78, 64
3, 46752, Note_on_c, 1, 74, 76
3, 46840, Note_off_c, 1, 74, 64
3, 46848, Note_on_c, 1, 79, 76
3, 46948, Note_off_c, 1, 79, 64
3, 47040, Note_on_c, 1, 79, 76
3, 47140, Note_off_c, 1, 79, 64
3, 47232, Note_on_c, 1, 79, 76
3, 47332, Note_off_c, 1, 79, 64
3, 47424, Note_on_c, 1, 79, 76
3, 47524, Note_off_c, 1, 79, 64
3, 47616, Note_on_c, 1, 78, 87
3, 47648, Note_off_c, 1, 78, 64
3, 47664, Note_on_c, 1, 79, 87
3, 47696, Note_off_c, 1, 79, 64
3, 47712, Note_on_c, 1, 81, 76
3, 47964, Note_off_c, 1, 81, 64
3, 48192, Note_on_c, 1, 84, 76
3, 48288, Note_off_c, 1, 84, 64
3, 48288, Note_on_c, 1, 83, 76
3, 48376, Note_off_c, 1, 83, 64
3, 48384, Note_on_c, 1, 84, 76
3, 48484, Note_off_c, 1, 84, 64
3, 48576, Note_on_c, 1, 84, 76
3, 48676, Note_off_c, 1, 84, 64
3, 48768, Note_on_c, 1, 84, 76
3, 48868, Note_off_c, 1, 84, 64
3, 48960, Note_on_c, 1, 84, 76
3, 49060, Note_off_c, 1, 84, 64
3, 49152, Note_on_c, 1, 83, 87
3, 49184, Note_off_c, 1, 83, 64
3, 49200, Note_on_c, 1, 84, 87
3, 49232, Note_off_c, 1, 84, 64
3, 49248, Note_on_c, 1, 86, 76
3, 49500, Note_off_c, 1, 86, 64
3, 49728, Note_on_c, 1, 76, 87
3, 49764, Note_off_c, 1, 76, 64
3, 49776, Note_on_c, 1, 74, 87
3, 49824, Note_off_c, 1, 74, 64
3, 49824, Note_on_c, 1, 73, 76
3, 49916, Note_off_c, 1, 73, 64
3, 49920, Note_on_c, 1, 74, 76
3, 50020, Note_off_c, 1, 74, 64
3, 50112, Note_on_c, 1, 74, 76
3, 50212, Note_off_c, 1, 74, 64
3, 50304, Note_on_c, 1, 74, 76
3, 50496, Note_off_c, 1, 74, 64
3, 50496, Note_on_c, 1, 75, 76
3, 50680, Note_off_c, 1, 75, 64
3, 50688, Note_on_c, 1, 76, 87
3, 50720, Note_off_c, 1, 76, 64
3, 50736, Note_on_c, 1, 78, 87
3, 50768, Note_off_c, 1, 78, 64
3, 50784, Note_on_c, 1, 79, 76
3, 51036, Note_off_c, 1, 79, 64
3, 51072, Note_on_c, 1, 72, 87
3, 51104, Note_off_c, 1, 72, 64
3, 51120, Note_on_c, 1, 74, 87
3, 51152, Note_off_c, 1, 74, 64
3, 51168, Note_on_c, 1, 76, 76
3, 51420, Note_off_c, 1, 76, 64
3, 51456, Note_on_c, 1, 69, 87
3, 51488, Note_off_c, 1, 69, 64
3, 51504, Note_on_c, 1, 71, 87
3, 51536, Note_off_c, 1, 71, 64
3, 51552, Note_on_c, 1, 72, 76
3, 51804, Note_off_c, 1, 72, 64
3, 51840, Note_on_c, 1, 64, 87
3, 51872, Note_off_c, 1, 64, 64
3, 51888, Note_on_c, 1, 66, 87
3, 51920, Note_off_c, 1, 66, 64
3, 51936, Note_on_c, 1, 67, 76
3, 52188, Note_off_c, 1, 67, 64
3, 52224, Note_on_c, 1, 66, 71
3, 52412, Note_off_c, 1, 66, 64
3, 52416, Note_on_c, 1, 78, 71
3, 52416, Note_on_c, 1, 74, 71
3, 52512, Note_off_c, 1, 78, 64
3, 52512, Note_off_c, 1, 74, 64
3, 52512, Note_on_c, 1, 76, 71
3, 52512, Note_on_c, 1, 73, 71
3, 52600, Note_off_c, 1, 76, 64
3, 52600, Note_off_c, 1, 73, 64
3, 52608, Note_on_c, 1, 78, 71
3, 52608, Note_on_c, 1, 74, 71
3, 52800, Note_off_c, 1, 78, 64
3, 52800, Note_off_c, 1, 74, 64
3, 52800, Note_on_c, 1, 79, 71
3, 52800, Note_on_c, 1, 76, 71
3, 52984, Note_off_c, 1, 79, 64
3, 52984, Note_off_c, 1, 76, 64
3, 52992, Note_on_c, 1, 69, 71
3, 52992, Note_on_c, 1, 66, 71
3, 52992, Note_on_c, 1, 62, 71
3, 53184, Note_on_c, 1, 81, 71
3, 53184, Note_on_c, 1, 78, 71
3, 53280, Note_off_c, 1, 81, 64
3, 53280, Note_off_c, 1, 78, 64
3, 53280, Note_on_c, 1, 79, 71
3, 53280, Note_on_c, 1, 76, 71
3, 53368, Note_off_c, 1, 79, 64
3, 53368, Note_off_c, 1, 76, 64
3, 53372, Note_off_c, 1, 69, 64
3, 53372, Note_off_c, 1, 66, 64
3, 53372, Note_off_c, 1, 62, 64
3, 53376, Note_on_c, 1, 81, 71
3, 53376, Note_on_c, 1, 78, 71
3, 53568, Note_off_c, 1, 81, 64
3, 53568, Note_off_c, 1, 78, 64
3, 53568, Note_on_c, 1, 83, 71
3, 53568, Note_on_c, 1, 79, 71
3, 53752, Note_off_c, 1, 83, 64
3, 53752, Note_off_c, 1, 79, 64
3, 53760, Note_on_c, 1, 81, 92
3, 53760, Note_on_c, 1, 84, 92
3, 53952, Note_on_c, 1, 67, 71
3, 53952, Note_on_c, 1, 63, 71
3, 54144, Note_off_c, 1, 67, 64
3, 54144, Note_off_c, 1, 63, 64
3, 54144, Note_on_c, 1, 66, 71
3, 54144, Note_on_c, 1, 62, 71
3, 54336, Note_off_c, 1, 81, 64
3, 54336, Note_off_c, 1, 84, 64
3, 54336, Note_on_c, 1, 83, 71
3, 54336, Note_on_c, 1, 80, 71
3, 54520, Note_off_c, 1, 83, 64
3, 54520, Note_off_c, 1, 80, 64
3, 54528, Note_on_c, 1, 81, 92
3, 54528, Note_on_c, 1, 84, 92
3, 54712, Note_off_c, 1, 66, 64
3, 54712, Note_off_c, 1, 62, 64
3, 54720, Note_on_c, 1, 67, 71
3, 54720, Note_on_c, 1, 63, 71
3, 54912, Note_off_c, 1, 67, 64
3, 54912, Note_off_c, 1, 63, 64
3, 54912, Note_on_c, 1, 66, 71
3, 54912, Note_on_c, 1, 62, 71
3, 55104, Note_off_c, 1, 81, 64
3, 55104, Note_off_c, 1, 84, 64
3, 55104, Note_on_c, 1, 83, 71
3, 55104, Note_on_c, 1, 80, 71
3, 55288, Note_off_c, 1, 83, 64
3, 55288, Note_off_c, 1, 80, 64
3, 55292, Note_off_c, 1, 66, 64
3, 55292, Note_off_c, 1, 62, 64
3, 55296, Note_on_c, 1, 81, 92
3, 55296, Note_on_c, 1, 84, 92
3, 55396, Note_off_c, 1, 81, 64
3, 55396, Note_off_c, 1, 84, 64
3, 55488, Note_on_c, 1, 81, 92
3, 55488, Note_on_c, 1, 84, 92
3, 55588, Note_off_c, 1, 81, 64
3, 55588, Note_off_c, 1, 84, 64
3, 55872, Note_on_c, 1, 79, 92
3, 55872, Note_on_c, 1, 83, 92
3, 56064, Note_off_c, 1, 79, 64
3, 56064, Note_off_c, 1, 83, 64
3, 56064, Note_on_c, 1, 81, 92
3, 56064, Note_on_c, 1, 78, 92
3, 56248, Note_off_c, 1, 81, 64
3, 56248, Note_off_c, 1, 78, 64
3, 56256, Note_on_c, 1, 81, 92
3, 56256, Note_on_c, 1, 78, 92
3, 56356, Note_off_c, 1, 81, 64
3, 56356, Note_off_c, 1, 78, 64
3, 56640, Note_on_c, 1, 79, 92
3, 56640, Note_on_c, 1, 76, 92
3, 56832, Note_off_c, 1, 79, 64
3, 56832, Note_off_c, 1, 76, 64
3, 56832, Note_on_c, 1, 78, 92
3, 56832, Note_on_c, 1, 74, 92
3, 57016, Note_off_c, 1, 78, 64
3, 57016, Note_off_c, 1, 74, 64
3, 57024, Note_on_c, 1, 78, 92
3, 57024, Note_on_c, 1, 74, 92
3, 57124, Note_off_c, 1, 78, 64
3, 57124, Note_off_c, 1, 74, 64
3, 57408, Note_on_c, 1, 76, 92
3, 57408, Note_on_c, 1, 72, 92
3, 57600, Note_off_c, 1, 76, 64
3, 57600, Note_off_c, 1, 72, 64
3, 57600, Note_on_c, 1, 74, 92
3, 57600, Note_on_c, 1, 71, 92
3, 57784, Note_off_c, 1, 74, 64
3, 57784, Note_off_c, 1, 71, 64
3, 57792, Note_on_c, 1, 74, 92
3, 57792, Note_on_c, 1, 71, 92
3, 57892, Note_off_c, 1, 74, 64
3, 57892, Note_off_c, 1, 71, 64
3, 58176, Note_on_c, 1, 72, 92
3, 58176, Note_on_c, 1, 69, 92
3, 58364, Note_off_c, 1, 72, 64
3, 58364, Note_off_c, 1, 69, 64
3, 58368, Note_on_c, 1, 71, 92
3, 58368, Note_on_c, 1, 67, 92
3, 58368, Note_on_c, 1, 62, 92
3, 58556, Note_off_c, 1, 71, 64
3, 58556, Note_off_c, 1, 67, 64
3, 58556, Note_off_c, 1, 62, 64
3, 58560, Note_on_c, 1, 71, 71
3, 58560, Note_on_c, 1, 67, 71
3, 58560, Note_on_c, 1, 62, 71
3, 58748, Note_off_c, 1, 71, 64
3, 58748, Note_off_c, 1, 67, 64
3, 58748, Note_off_c, 1, 62, 64
3, 58752, Note_on_c, 1, 71, 71
3, 58752, Note_on_c, 1, 62, 71
3, 58752, Note_on_c, 1, 67, 71
3, 58940, Note_off_c, 1, 71, 64
3, 58940, Note_off_c, 1, 62, 64
3, 58940, Note_off_c, 1, 67, 64
3, 58944, Note_on_c, 1, 71, 71
3, 58944, Note_on_c, 1, 67, 71
3, 58944, Note_on_c, 1, 62, 71
3, 59132, Note_off_c, 1, 71, 64
3, 59132, Note_off_c, 1, 67, 64
3, 59132, Note_off_c, 1, 62, 64
3, 59136, Note_on_c, 1, 71, 71
3, 59136, Note_on_c, 1, 67, 71
3, 59136, Note_on_c, 1, 62, 71
3, 59520, Note_off_c, 1, 71, 64
3, 59520, Note_off_c, 1, 67, 64
3, 59520, Note_off_c, 1, 62, 64
3, 59904, Note_on_c, 1, 71, 92
3, 59904, Note_on_c, 1, 67, 92
3, 59904, Note_on_c, 1, 62, 92
3, 60092, Note_off_c, 1, 71, 64
3, 60092, Note_off_c, 1, 67, 64
3, 60092, Note_off_c, 1, 62, 64
3, 60096, Note_on_c, 1, 71, 71
3, 60096, Note_on_c, 1, 67, 71
3, 60096, Note_on_c, 1, 62, 71
3, 60284, Note_off_c, 1, 71, 64
3, 60284, Note_off_c, 1, 67, 64
3, 60284, Note_off_c, 1, 62, 64
3, 60288, Note_on_c, 1, 71, 71
3, 60288, Note_on_c, 1, 67, 71
3, 60288, Note_on_c, 1, 62, 71
3, 60476, Note_off_c, 1, 71, 64
3, 60476, Note_off_c, 1, 67, 64
3, 60476, Note_off_c, 1, 62, 64
3, 60480, Note_on_c, 1, 71, 71
3, 60480, Note_on_c, 1, 67, 71
3, 60480, Note_on_c, 1, 62, 71
3, 60668, Note_off_c, 1, 71, 64
3, 60668, Note_off_c, 1, 67, 64
3, 60668, Note_off_c, 1, 62, 64
3, 60672, Note_on_c, 1, 71, 71
3, 60672, Note_on_c, 1, 67, 71
3, 60672, Note_on_c, 1, 62, 71
3, 61056, Note_off_c, 1, 71, 64
3, 61056, Note_off_c, 1, 67, 64
3, 61056, Note_off_c, 1, 62, 64
3, 61440, Note_on_c, 1, 62, 71
3, 61628, Note_off_c, 1, 62, 64
3, 61632, Note_on_c, 1, 62, 71
3, 61820, Note_off_c, 1, 62, 64
3, 61824, Note_on_c, 1, 62, 71
3, 62012, Note_off_c, 1, 62, 64
3, 62016, Note_on_c, 1, 62, 71
3, 62204, Note_off_c, 1, 62, 64
3, 62208, Note_on_c, 1, 62, 71
3, 62400, Note_off_c, 1, 62, 64
3, 62400, Note_on_c, 1, 60, 71
3, 62584, Note_off_c, 1, 60, 64
3, 62592, Note_on_c, 1, 59, 71
3, 62692, Note_off_c, 1, 59, 64
3, 62784, Note_on_c, 1, 59, 71
3, 62884, Note_off_c, 1, 59, 64
3, 62976, Note_on_c, 1, 60, 71
3, 63164, Note_off_c, 1, 60, 64
3, 63360, Note_on_c, 1, 60, 71
3, 63548, Note_off_c, 1, 60, 64
3, 64512, Note_on_c, 1, 78, 87
3, 64512, Note_on_c, 1, 74, 87
3, 64512, Note_on_c, 1, 69, 87
3, 65276, Note_off_c, 1, 78, 64
3, 65276, Note_off_c, 1, 74, 64
3, 65276, Note_off_c, 1, 69, 64
3, 65280, Note_on_c, 1, 78, 71
3, 65372, Note_off_c, 1, 78, 64
3, 65376, Note_on_c, 1, 76, 71
3, 65468, Note_off_c, 1, 76, 64
3, 65472, Note_on_c, 1, 74, 71
3, 65564, Note_off_c, 1, 74, 64
3, 65568, Note_on_c, 1, 76, 71
3, 65660, Note_off_c, 1, 76, 64
3, 65664, Note_on_c, 1, 78, 71
3, 65756, Note_off_c, 1, 78, 64
3, 65760, Note_on_c, 1, 79, 71
3, 65852, Note_off_c, 1, 79, 64
3, 65856, Note_on_c, 1, 78, 71
3, 65948, Note_off_c, 1, 78, 64
3, 65952, Note_on_c, 1, 79, 71
3, 66044, Note_off_c, 1, 79, 64
3, 66048, Note_on_c, 1, 81, 71
3, 66332, Note_off_c, 1, 81, 64
3, 66336, Note_on_c, 1, 78, 71
3, 66428, Note_off_c, 1, 78, 64
3, 66432, Note_on_c, 1, 81, 71
3, 66812, Note_off_c, 1, 81, 64
3, 66816, Note_on_c, 1, 81, 71
3, 67100, Note_off_c, 1, 81, 64
3, 67104, Note_on_c, 1, 66, 71
3, 67196, Note_off_c, 1, 66, 64
3, 67200, Note_on_c, 1, 69, 71
3, 67772, Note_off_c, 1, 69, 64
3, 67776, Note_on_c, 1, 67, 71
3, 67876, Note_off_c, 1, 67, 64
3, 67968, Note_on_c, 1, 66, 71
3, 68068, Note_off_c, 1, 66, 64
3, 68160, Note_on_c, 1, 67, 71
3, 68260, Note_off_c, 1, 67, 64
3, 68352, Note_on_c, 1, 66, 71
3, 68452, Note_off_c, 1, 66, 64
3, 68544, Note_on_c, 1, 64, 71
3, 68644, Note_off_c, 1, 64, 64
3, 68736, Note_on_c, 1, 62, 71
3, 68836, Note_off_c, 1, 62, 64
3, 68928, Note_on_c, 1, 61, 71
3, 69028, Note_off_c, 1, 61, 64
3, 69120, Note_on_c, 1, 62, 71
3, 69220, Note_off_c, 1, 62, 64
3, 69312, Note_on_c, 1, 66, 71
3, 69312, Note_on_c, 1, 62, 71
3, 69504, Note_off_c, 1, 66, 64
3, 69504, Note_off_c, 1, 62, 64
3, 69504, Note_on_c, 1, 69, 71
3, 69504, Note_on_c, 1, 66, 71
3, 69880, Note_off_c, 1, 69, 64
3, 69880, Note_off_c, 1, 66, 64
3, 70064, Note_on_c, 1, 66, 71
3, 70080, Note_on_c, 1, 69, 71
3, 70256, Note_off_c, 1, 66, 64
3, 70256, Note_on_c, 1, 62, 71
3, 70272, Note_off_c, 1, 69, 64
3, 70272, Note_on_c, 1, 66, 71
3, 70632, Note_off_c, 1, 62, 64
3, 70648, Note_off_c, 1, 66, 64
3, 70832, Note_on_c, 1, 55, 71
3, 70848, Note_on_c, 1, 62, 71
3, 71024, Note_off_c, 1, 55, 64
3, 71040, Note_off_c, 1, 62, 64
3, 71040, Note_on_c, 1, 67, 71
3, 71040, Note_on_c, 1, 64, 71
3, 71416, Note_off_c, 1, 67, 64
3, 71416, Note_off_c, 1, 64, 64
3, 71600, Note_on_c, 1, 60, 71
3, 71616, Note_on_c, 1, 64, 71
3, 71792, Note_off_c, 1, 60, 64
3, 71808, Note_off_c, 1, 64, 64
3, 71808, Note_on_c, 1, 60, 71
3, 71808, Note_on_c, 1, 57, 71
3, 72184, Note_off_c, 1, 60, 64
3, 72184, Note_off_c, 1, 57, 64
3, 72384, Note_on_c, 1, 59, 71
3, 72384, Note_on_c, 1, 55, 71
3, 72560, Note_on_c, 1, 59, 71
3, 72576, Note_off_c, 1, 59, 64
3, 72576, Note_off_c, 1, 55, 64
3, 72576, Note_on_c, 1, 62, 71
3, 72748, Note_off_c, 1, 59, 64
3, 72764, Note_off_c, 1, 62, 64
3, 72768, Note_on_c, 1, 64, 71
3, 72768, Note_on_c, 1, 57, 71
3, 72952, Note_off_c, 1, 64, 64
3, 72952, Note_off_c, 1, 57, 64
3, 72960, Note_on_c, 1, 62, 71
3, 72960, Note_on_c, 1, 57, 71
3, 73060, Note_off_c, 1, 62, 64
3, 73060, Note_off_c, 1, 57, 64
3, 73152, Note_on_c, 1, 62, 71
3, 73152, Note_on_c, 1, 57, 71
3, 73252, Note_off_c, 1, 62, 64
3, 73252, Note_off_c, 1, 57, 64
3, 73344, Note_on_c, 1, 66, 71
3, 73344, Note_on_c, 1, 62, 71
3, 73344, Note_on_c, 1, 60, 71
3, 73444, Note_off_c, 1, 66, 64
3, 73444, Note_off_c, 1, 62, 64
3, 73444, Note_off_c, 1, 60, 64
3, 73536, Note_on_c, 1, 66, 71
3, 73536, Note_on_c, 1, 62, 71
3, 73536, Note_on_c, 1, 60, 71
3, 73636, Note_off_c, 1, 66, 64
3, 73636, Note_off_c, 1, 62, 64
3, 73636, Note_off_c, 1, 60, 64
3, 73728, Note_on_c, 1, 67, 92
3, 73728, Note_on_c, 1, 62, 92
3, 73728, Note_on_c, 1, 59, 92
3, 74108, Note_off_c, 1, 67, 64
3, 74108, Note_off_c, 1, 62, 64
3, 74108, Note_off_c, 1, 59, 64
3, 74208, Note_on_c, 1, 62, 92
3, 74300, Note_off_c, 1, 62, 64
3, 74304, Note_on_c, 1, 71, 92
3, 74352, Note_off_c, 1, 71, 64
3, 74400, Note_on_c, 1, 74, 92
3, 74448, Note_off_c, 1, 74, 64
3, 74496, Note_on_c, 1, 74, 102
3, 74548, Note_off_c, 1, 74, 64
3, 74552, Note_on_c, 1, 72, 92
3, 74672, Note_on_c, 1, 71, 92
3, 74684, Note_off_c, 1, 72, 64
3, 74764, Note_off_c, 1, 71, 64
3, 74784, Note_on_c, 1, 69, 92
3, 74876, Note_off_c, 1, 69, 64
3, 74880, Note_on_c, 1, 79, 102
3, 74932, Note_off_c, 1, 79, 64
3, 74936, Note_on_c, 1, 78, 92
3, 75068, Note_off_c, 1, 78, 64
3, 75072, Note_on_c, 1, 76, 92
3, 75164, Note_off_c, 1, 76, 64
3, 75168, Note_on_c, 1, 78, 92
3, 75168, Note_on_c, 1, 74, 92
3, 75260, Note_off_c, 1, 78, 64
3, 75260, Note_off_c, 1, 74, 64
3, 75264, Note_on_c, 1, 79, 92
3, 75452, Note_off_c, 1, 79, 64
3, 75456, Note_on_c, 1, 83, 92
3, 75644, Note_off_c, 1, 83, 64
3, 75744, Note_on_c, 1, 62, 92
3, 75792, Note_off_c, 1, 62, 64
3, 75840, Note_on_c, 1, 71, 92
3, 75888, Note_off_c, 1, 71, 64
3, 75936, Note_on_c, 1, 74, 92
3, 75984, Note_off_c, 1, 74, 64
3, 76032, Note_on_c, 1, 74, 102
3, 76084, Note_off_c, 1, 74, 64
3, 76088, Note_on_c, 1, 72, 92
3, 76220, Note_off_c, 1, 72, 64
3, 76224, Note_on_c, 1, 71, 92
3, 76316, Note_off_c, 1, 71, 64
3, 76320, Note_on_c, 1, 69, 92
3, 76412, Note_off_c, 1, 69, 64
3, 76416, Note_on_c, 1, 79, 102
3, 76468, Note_off_c, 1, 79, 64
3, 76472, Note_on_c, 1, 78, 92
3, 76604, Note_off_c, 1, 78, 64
3, 76608, Note_on_c, 1, 76, 92
3, 76700, Note_off_c, 1, 76, 64
3, 76704, Note_on_c, 1, 78, 92
3, 76796, Note_off_c, 1, 78, 64
3, 76800, Note_on_c, 1, 79, 92
3, 77180, Note_off_c, 1, 79, 64
3, 77184, Note_on_c, 1, 62, 92
3, 77184, Note_on_c, 1, 67, 92
3, 77184, Note_on_c, 1, 59, 92
3, 77468, Note_off_c, 1, 62, 64
3, 77468, Note_off_c, 1, 67, 64
3, 77468, Note_off_c, 1, 59, 64
3, 77472, Note_on_c, 1, 67, 92
3, 77472, Note_on_c, 1, 62, 92
3, 77472, Note_on_c, 1, 59, 92
3, 77564, Note_off_c, 1, 67, 64
3, 77564, Note_off_c, 1, 62, 64
3, 77564, Note_off_c, 1, 59, 64
3, 77568, Note_on_c, 1, 67, 92
3, 77568, Note_on_c, 1, 62, 92
3, 77568, Note_on_c, 1, 59, 92
3, 77948, Note_off_c, 1, 67, 64
3, 77948, Note_off_c, 1, 62, 64
3, 77948, Note_off_c, 1, 59, 64
3, 78528, Note_on_c, 1, 74, 71
3, 78528, Note_on_c, 1, 71, 71
3, 78716, Note_off_c, 1, 74, 64
3, 78716, Note_off_c, 1, 71, 64
3, 78720, Note_on_c, 1, 74, 71
3, 78720, Note_on_c, 1, 71, 71
3, 78908, Note_off_c, 1, 74, 64
3, 78908, Note_off_c, 1, 71, 64
3, 78912, Note_on_c, 1, 74, 71
3, 78912, Note_on_c, 1, 71, 71
3, 79100, Note_off_c, 1, 74, 64
3, 79100, Note_off_c, 1, 71, 64
3, 79104, Note_on_c, 1, 74, 71
3, 79104, Note_on_c, 1, 71, 71
3, 79292, Note_off_c, 1, 74, 64
3, 79292, Note_off_c, 1, 71, 64
3, 79296, Note_on_c, 1, 74, 71
3, 79296, Note_on_c, 1, 71, 71
3, 79484, Note_off_c, 1, 74, 64
3, 79484, Note_off_c, 1, 71, 64
3, 79488, Note_on_c, 1, 74, 71
3, 79488, Note_on_c, 1, 71, 71
3, 79676, Note_off_c, 1, 74, 64
3, 79676, Note_off_c, 1, 71, 64
3, 79680, Note_on_c, 1, 74, 71
3, 79680, Note_on_c, 1, 71, 71
3, 79868, Note_off_c, 1, 74, 64
3, 79868, Note_off_c, 1, 71, 64
3, 80064, Note_on_c, 1, 74, 71
3, 80064, Note_on_c, 1, 71, 71
3, 80240, Note_on_c, 1, 71, 71
3, 80252, Note_off_c, 1, 74, 64
3, 80252, Note_off_c, 1, 71, 64
3, 80256, Note_on_c, 1, 74, 71
3, 80428, Note_off_c, 1, 71, 64
3, 80444, Note_off_c, 1, 74, 64
3, 80448, Note_on_c, 1, 74, 71
3, 80448, Note_on_c, 1, 71, 71
3, 80636, Note_off_c, 1, 74, 64
3, 80636, Note_off_c, 1, 71, 64
3, 80640, Note_on_c, 1, 74, 71
3, 80640, Note_on_c, 1, 71, 71
3, 80828, Note_off_c, 1, 74, 64
3, 80828, Note_off_c, 1, 71, 64
3, 80832, Note_on_c, 1, 74, 71
3, 80832, Note_on_c, 1, 71, 71
3, 81008, Note_on_c, 1, 71, 71
3, 81020, Note_off_c, 1, 74, 64
3, 81020, Note_off_c, 1, 71, 64
3, 81024, Note_on_c, 1, 74, 71
3, 81196, Note_off_c, 1, 71, 64
3, 81212, Note_off_c, 1, 74, 64
3, 81216, Note_on_c, 1, 74, 71
3, 81216, Note_on_c, 1, 71, 71
3, 81404, Note_off_c, 1, 74, 64
3, 81404, Note_off_c, 1, 71, 64
3, 81600, Note_on_c, 1, 74, 71
3, 81600, Note_on_c, 1, 69, 71
3, 81776, Note_on_c, 1, 69, 71
3, 81788, Note_off_c, 1, 74, 64
3, 81788, Note_off_c, 1, 69, 64
3, 81792, Note_on_c, 1, 74, 71
3, 81964, Note_off_c, 1, 69, 64
3, 81980, Note_off_c, 1, 74, 64
3, 81984, Note_on_c, 1, 74, 71
3, 81984, Note_on_c, 1, 69, 71
3, 82160, Note_on_c, 1, 59, 71
3, 82172, Note_off_c, 1, 74, 64
3, 82172, Note_off_c, 1, 69, 64
3, 82176, Note_on_c, 1, 62, 71
3, 82348, Note_off_c, 1, 59, 64
3, 82364, Note_off_c, 1, 62, 64
3, 82368, Note_on_c, 1, 62, 71
3, 82368, Note_on_c, 1, 59, 71
3, 82556, Note_off_c, 1, 62, 64
3, 82556, Note_off_c, 1, 59, 64
3, 82560, Note_on_c, 1, 62, 71
3, 82560, Note_on_c, 1, 59, 71
3, 82748, Note_off_c, 1, 62, 64
3, 82748, Note_off_c, 1, 59, 64
3, 82752, Note_on_c, 1, 62, 71
3, 82752, Note_on_c, 1, 59, 71
3, 82940, Note_off_c, 1, 62, 64
3, 82940, Note_off_c, 1, 59, 64
3, 83136, Note_on_c, 1, 62, 71
3, 83136, Note_on_c, 1, 57, 71
3, 83324, Note_off_c, 1, 62, 64
3, 83324, Note_off_c, 1, 57, 64
3, 83328, Note_on_c, 1, 62, 71
3, 83328, Note_on_c, 1, 57, 71
3, 83516, Note_off_c, 1, 62, 64
3, 83516, Note_off_c, 1, 57, 64
3, 83520, Note_on_c, 1, 62, 71
3, 83520, Note_on_c, 1, 57, 71
3, 83708, Note_off_c, 1, 62, 64
3, 83708, Note_off_c, 1, 57, 64
3, 83712, Note_on_c, 1, 74, 71
3, 83712, Note_on_c, 1, 69, 71
3, 83900, Note_off_c, 1, 74, 64
3, 83900, Note_off_c, 1, 69, 64
3, 83904, Note_on_c, 1, 74, 71
3, 83904, Note_on_c, 1, 69, 71
3, 84092, Note_off_c, 1, 74, 64
3, 84092, Note_off_c, 1, 69, 64
3, 84096, Note_on_c, 1, 74, 71
3, 84096, Note_on_c, 1, 69, 71
3, 84284, Note_off_c, 1, 74, 64
3, 84284, Note_off_c, 1, 69, 64
3, 84288, Note_on_c, 1, 74, 71
3, 84288, Note_on_c, 1, 69, 71
3, 84476, Note_off_c, 1, 74, 64
3, 84476, Note_off_c, 1, 69, 64
3, 84672, Note_on_c, 1, 74, 71
3, 84672, Note_on_c, 1, 71, 71
3, 84672, Note_on_c, 1, 67, 71
3, 84860, Note_off_c, 1, 74, 64
3, 84860, Note_off_c, 1, 71, 64
3, 84860, Note_off_c, 1, 67, 64
3, 84864, Note_on_c, 1, 74, 71
3, 84864, Note_on_c, 1, 71, 71
3, 84864, Note_on_c, 1, 67, 71
3, 85052, Note_off_c, 1, 74, 64
3, 85052, Note_off_c, 1, 71, 64
3, 85052, Note_off_c, 1, 67, 64
3, 85056, Note_on_c, 1, 74, 71
3, 85056, Note_on_c, 1, 71, 71
3, 85056, Note_on_c, 1, 67, 71
3, 85244, Note_off_c, 1, 74, 64
3, 85244, Note_off_c, 1, 71, 64
3, 85244, Note_off_c, 1, 67, 64
3, 85248, Note_on_c, 1, 74, 71
3, 85248, Note_on_c, 1, 71, 71
3, 85248, Note_on_c, 1, 67, 71
3, 85436, Note_off_c, 1, 74, 64
3, 85436, Note_off_c, 1, 71, 64
3, 85436, Note_off_c, 1, 67, 64
3, 85440, Note_on_c, 1, 74, 71
3, 85440, Note_on_c, 1, 71, 71
3, 85440, Note_on_c, 1, 67, 71
3, 85628, Note_off_c, 1, 74, 64
3, 85628, Note_off_c, 1, 71, 64
3, 85628, Note_off_c, 1, 67, 64
3, 85632, Note_on_c, 1, 74, 71
3, 85632, Note_on_c, 1, 71, 71
3, 85632, Note_on_c, 1, 67, 71
3, 85820, Note_off_c, 1, 74, 64
3, 85820, Note_off_c, 1, 71, 64
3, 85820, Note_off_c, 1, 67, 64
3, 85824, Note_on_c, 1, 74, 71
3, 85824, Note_on_c, 1, 71, 71
3, 85824, Note_on_c, 1, 67, 71
3, 86012, Note_off_c, 1, 74, 64
3, 86012, Note_off_c, 1, 71, 64
3, 86012, Note_off_c, 1, 67, 64
3, 86208, Note_on_c, 1, 73, 71
3, 86208, Note_on_c, 1, 67, 71
3, 86396, Note_off_c, 1, 73, 64
3, 86396, Note_off_c, 1, 67, 64
3, 86400, Note_on_c, 1, 73, 71
3, 86400, Note_on_c, 1, 67, 71
3, 86588, Note_off_c, 1, 73, 64
3, 86588, Note_off_c, 1, 67, 64
3, 86592, Note_on_c, 1, 73, 71
3, 86592, Note_on_c, 1, 67, 71
3, 86780, Note_off_c, 1, 73, 64
3, 86780, Note_off_c, 1, 67, 64
3, 86976, Note_on_c, 1, 74, 71
3, 86976, Note_on_c, 1, 66, 71
3, 87164, Note_off_c, 1, 74, 64
3, 87164, Note_off_c, 1, 66, 64
3, 87168, Note_on_c, 1, 74, 71
3, 87168, Note_on_c, 1, 66, 71
3, 87356, Note_off_c, 1, 74, 64
3, 87356, Note_off_c, 1, 66, 64
3, 87360, Note_on_c, 1, 74, 71
3, 87360, Note_on_c, 1, 66, 71
3, 87548, Note_off_c, 1, 74, 64
3, 87548, Note_off_c, 1, 66, 64
3, 87744, Note_on_c, 1, 76, 71
3, 87744, Note_on_c, 1, 67, 71
3, 87932, Note_off_c, 1, 76, 64
3, 87932, Note_off_c, 1, 67, 64
3, 87936, Note_on_c, 1, 76, 71
3, 87936, Note_on_c, 1, 67, 71
3, 88124, Note_off_c, 1, 76, 64
3, 88124, Note_off_c, 1, 67, 64
3, 88128, Note_on_c, 1, 76, 71
3, 88128, Note_on_c, 1, 67, 71
3, 88316, Note_off_c, 1, 76, 64
3, 88316, Note_off_c, 1, 67, 64
3, 88320, Note_on_c, 1, 67, 71
3, 88320, Note_on_c, 1, 61, 71
3, 88508, Note_off_c, 1, 67, 64
3, 88508, Note_off_c, 1, 61, 64
3, 88512, Note_on_c, 1, 66, 71
3, 88512, Note_on_c, 1, 62, 71
3, 88700, Note_off_c, 1, 66, 64
3, 88700, Note_off_c, 1, 62, 64
3, 88704, Note_on_c, 1, 64, 71
3, 88704, Note_on_c, 1, 61, 71
3, 88804, Note_off_c, 1, 64, 64
3, 88804, Note_off_c, 1, 61, 64
3, 88896, Note_on_c, 1, 64, 71
3, 88896, Note_on_c, 1, 61, 71
3, 88996, Note_off_c, 1, 64, 64
3, 88996, Note_off_c, 1, 61, 64
3, 89088, Note_on_c, 1, 66, 71
3, 89088, Note_on_c, 1, 62, 71
3, 89276, Note_off_c, 1, 66, 64
3, 89276, Note_off_c, 1, 62, 64
3, 90816, Note_on_c, 1, 62, 71
3, 90816, Note_on_c, 1, 59, 71
3, 91004, Note_off_c, 1, 62, 64
3, 91004, Note_off_c, 1, 59, 64
3, 91008, Note_on_c, 1, 62, 71
3, 91008, Note_on_c, 1, 59, 71
3, 91196, Note_off_c, 1, 62, 64
3, 91196, Note_off_c, 1, 59, 64
3, 91200, Note_on_c, 1, 62, 71
3, 91200, Note_on_c, 1, 59, 71
3, 91388, Note_off_c, 1, 62, 64
3, 91388, Note_off_c, 1, 59, 64
3, 91392, Note_on_c, 1, 62, 71
3, 91392, Note_on_c, 1, 59, 71
3, 91772, Note_off_c, 1, 62, 64
3, 91772, Note_off_c, 1, 59, 64
3, 92160, Note_on_c, 1, 74, 92
3, 92540, Note_off_c, 1, 74, 64
3, 92544, Note_on_c, 1, 64, 92
3, 92924, Note_off_c, 1, 64, 64
3, 93696, Note_on_c, 1, 74, 92
3, 94076, Note_off_c, 1, 74, 64
3, 94080, Note_on_c, 1, 64, 92
3, 94460, Note_off_c, 1, 64, 64
3, 95424, Note_on_c, 1, 71, 71
3, 95424, Note_on_c, 1, 64, 71
3, 95424, Note_on_c, 1, 62, 71
3, 95612, Note_off_c, 1, 71, 64
3, 95612, Note_off_c, 1, 64, 64
3, 95612, Note_off_c, 1, 62, 64
3, 95616, Note_on_c, 1, 71, 71
3, 95616, Note_on_c, 1, 64, 71
3, 95616, Note_on_c, 1, 62, 71
3, 95804, Note_off_c, 1, 71, 64
3, 95804, Note_off_c, 1, 64, 64
3, 95804, Note_off_c, 1, 62, 64
3, 95808, Note_on_c, 1, 71, 71
3, 95808, Note_on_c, 1, 64, 71
3, 95808, Note_on_c, 1, 62, 71
3, 95996, Note_off_c, 1, 71, 64
3, 95996, Note_off_c, 1, 64, 64
3, 95996, Note_off_c, 1, 62, 64
3, 96000, Note_on_c, 1, 71, 71
3, 96000, Note_on_c, 1, 64, 71
3, 96000, Note_on_c, 1, 62, 71
3, 96188, Note_off_c, 1, 71, 64
3, 96188, Note_off_c, 1, 64, 64
3, 96188, Note_off_c, 1, 62, 64
3, 96192, Note_on_c, 1, 71, 71
3, 96192, Note_on_c, 1, 64, 71
3, 96192, Note_on_c, 1, 62, 71
3, 96380, Note_off_c, 1, 71, 64
3, 96380, Note_off_c, 1, 64, 64
3, 96380, Note_off_c, 1, 62, 64
3, 96384, Note_on_c, 1, 71, 71
3, 96384, Note_on_c, 1, 64, 71
3, 96384, Note_on_c, 1, 62, 71
3, 96560, Note_on_c, 1, 71, 71
3, 96572, Note_off_c, 1, 71, 64
3, 96572, Note_off_c, 1, 64, 64
3, 96572, Note_off_c, 1, 62, 64
3, 96576, Note_on_c, 1, 64, 71
3, 96576, Note_on_c, 1, 62, 71
3, 96748, Note_off_c, 1, 71, 64
3, 96764, Note_off_c, 1, 64, 64
3, 96764, Note_off_c, 1, 62, 64
3, 96768, Note_on_c, 1, 64, 71
3, 96768, Note_on_c, 1, 61, 71
3, 96768, Note_on_c, 1, 69, 71
3, 96956, Note_off_c, 1, 64, 64
3, 96956, Note_off_c, 1, 61, 64
3, 96956, Note_off_c, 1, 69, 64
3, 96960, Note_on_c, 1, 69, 92
3, 97052, Note_off_c, 1, 69, 64
3, 97056, Note_on_c, 1, 69, 92
3, 97148, Note_off_c, 1, 69, 64
3, 97152, Note_on_c, 1, 69, 92
3, 97340, Note_off_c, 1, 69, 64
3, 97344, Note_on_c, 1, 69, 92
3, 97344, Note_on_c, 1, 74, 92
3, 97344, Note_on_c, 1, 78, 92
3, 97532, Note_off_c, 1, 69, 64
3, 97532, Note_off_c, 1, 74, 64
3, 97532, Note_off_c, 1, 78, 64
3, 97536, Note_on_c, 1, 76, 92
3, 97536, Note_on_c, 1, 73, 92
3, 97536, Note_on_c, 1, 69, 92
3, 97724, Note_off_c, 1, 76, 64
3, 97724, Note_off_c, 1, 73, 64
3, 97724, Note_off_c, 1, 69, 64
3, 97728, Note_on_c, 1, 69, 92
3, 97820, Note_off_c, 1, 69, 64
3, 97824, Note_on_c, 1, 69, 92
3, 97916, Note_off_c, 1, 69, 64
3, 97920, Note_on_c, 1, 69, 92
3, 98108, Note_off_c, 1, 69, 64
3, 98112, Note_on_c, 1, 69, 92
3, 98112, Note_on_c, 1, 74, 92
3, 98112, Note_on_c, 1, 78, 92
3, 98300, Note_off_c, 1, 69, 64
3, 98300, Note_off_c, 1, 74, 64
3, 98300, Note_off_c, 1, 78, 64
3, 98304, Note_on_c, 1, 76, 92
3, 98304, Note_on_c, 1, 73, 92
3, 98304, Note_on_c, 1, 69, 92
3, 98492, Note_off_c, 1, 76, 64
3, 98492, Note_off_c, 1, 73, 64
3, 98492, Note_off_c, 1, 69, 64
3, 98496, Note_on_c, 1, 69, 92
3, 98588, Note_off_c, 1, 69, 64
3, 98592, Note_on_c, 1, 69, 92
3, 98684, Note_off_c, 1, 69, 64
3, 98688, Note_on_c, 1, 69, 92
3, 98876, Note_off_c, 1, 69, 64
3, 100032, Note_on_c, 1, 67, 71
3, 100224, Note_off_c, 1, 67, 64
3, 100224, Note_on_c, 1, 66, 71
3, 100408, Note_off_c, 1, 66, 64
3, 101568, Note_on_c, 1, 71, 71
3, 101568, Note_on_c, 1, 67, 71
3, 101660, Note_off_c, 1, 71, 64
3, 101660, Note_off_c, 1, 67, 64
3, 101664, Note_on_c, 1, 71, 71
3, 101664, Note_on_c, 1, 67, 71
3, 101756, Note_off_c, 1, 71, 64
3, 101756, Note_off_c, 1, 67, 64
3, 101760, Note_on_c, 1, 71, 71
3, 101760, Note_on_c, 1, 67, 71
3, 101948, Note_off_c, 1, 71, 64
3, 101948, Note_off_c, 1, 67, 64
3, 103104, Note_on_c, 1, 62, 71
3, 103296, Note_off_c, 1, 62, 64
3, 103296, Note_on_c, 1, 61, 71
3, 103480, Note_off_c, 1, 61, 64
3, 104640, Note_on_c, 1, 69, 71
3, 104640, Note_on_c, 1, 66, 71
3, 104732, Note_off_c, 1, 69, 64
3, 104732, Note_off_c, 1, 66, 64
3, 104736, Note_on_c, 1, 69, 71
3, 104736, Note_on_c, 1, 66, 71
3, 104828, Note_off_c, 1, 69, 64
3, 104828, Note_off_c, 1, 66, 64
3, 104832, Note_on_c, 1, 69, 71
3, 104832, Note_on_c, 1, 66, 71
3, 105020, Note_off_c, 1, 69, 64
3, 105020, Note_off_c, 1, 66, 64
3, 105408, Note_on_c, 1, 81, 71
3, 105408, Note_on_c, 1, 78, 71
3, 105508, Note_off_c, 1, 81, 64
3, 105508, Note_off_c, 1, 78, 64
3, 105792, Note_on_c, 1, 79, 71
3, 105792, Note_on_c, 1, 76, 71
3, 105892, Note_off_c, 1, 79, 64
3, 105892, Note_off_c, 1, 76, 64
3, 105984, Note_on_c, 1, 78, 71
3, 105984, Note_on_c, 1, 74, 71
3, 106084, Note_off_c, 1, 78, 64
3, 106084, Note_off_c, 1, 74, 64
3, 106944, Note_on_c, 1, 81, 71
3, 106944, Note_on_c, 1, 78, 71
3, 107044, Note_off_c, 1, 81, 64
3, 107044, Note_off_c, 1, 78, 64
3, 107328, Note_on_c, 1, 79, 71
3, 107328, Note_on_c, 1, 76, 71
3, 107428, Note_off_c, 1, 79, 64
3, 107428, Note_off_c, 1, 76, 64
3, 107520, Note_on_c, 1, 78, 71
3, 107520, Note_on_c, 1, 74, 71
3, 107620, Note_off_c, 1, 78, 64
3, 107620, Note_off_c, 1, 74, 64
3, 108096, Note_on_c, 1, 62, 71
3, 108096, Note_on_c, 1, 66, 76
3, 108136, Note_off_c, 1, 66, 64
3, 108144, Note_on_c, 1, 67, 76
3, 108184, Note_off_c, 1, 67, 64
3, 108192, Note_on_c, 1, 64, 76
3, 108232, Note_off_c, 1, 64, 64
3, 108240, Note_on_c, 1, 66, 76
3, 108280, Note_off_c, 1, 66, 64
3, 108284, Note_off_c, 1, 62, 64
3, 108288, Note_on_c, 1, 67, 76
3, 108288, Note_on_c, 1, 64, 76
3, 108388, Note_off_c, 1, 67, 64
3, 108388, Note_off_c, 1, 64, 64
3, 108480, Note_on_c, 1, 69, 76
3, 108480, Note_on_c, 1, 66, 76
3, 108580, Note_off_c, 1, 69, 64
3, 108580, Note_off_c, 1, 66, 64
3, 108672, Note_on_c, 1, 71, 76
3, 108672, Note_on_c, 1, 67, 76
3, 108772, Note_off_c, 1, 71, 64
3, 108772, Note_off_c, 1, 67, 64
3, 108864, Note_on_c, 1, 73, 76
3, 108864, Note_on_c, 1, 69, 76
3, 108964, Note_off_c, 1, 73, 64
3, 108964, Note_off_c, 1, 69, 64
3, 109056, Note_on_c, 1, 74, 76
3, 109056, Note_on_c, 1, 71, 76
3, 109156, Note_off_c, 1, 74, 64
3, 109156, Note_off_c, 1, 71, 64
3, 109248, Note_on_c, 1, 73, 76
3, 109248, Note_on_c, 1, 76, 76
3, 109288, Note_off_c, 1, 76, 64
3, 109296, Note_on_c, 1, 78, 76
3, 109336, Note_off_c, 1, 78, 64
3, 109344, Note_on_c, 1, 74, 76
3, 109384, Note_off_c, 1, 74, 64
3, 109392, Note_on_c, 1, 76, 76
3, 109432, Note_off_c, 1, 76, 64
3, 109436, Note_off_c, 1, 73, 64
3, 109440, Note_on_c, 1, 78, 76
3, 109440, Note_on_c, 1, 74, 76
3, 109540, Note_off_c, 1, 78, 64
3, 109540, Note_off_c, 1, 74, 64
3, 109632, Note_on_c, 1, 66, 76
3, 109732, Note_off_c, 1, 66, 64
3, 109824, Note_on_c, 1, 67, 76
3, 109924, Note_off_c, 1, 67, 64
3, 110016, Note_on_c, 1, 67, 73
3, 110016, Note_on_c, 1, 64, 73
3, 110208, Note_off_c, 1, 67, 64
3, 110208, Note_off_c, 1, 64, 64
3, 110208, Note_on_c, 1, 66, 74
3, 110208, Note_on_c, 1, 62, 74
3, 110396, Note_off_c, 1, 66, 64
3, 110396, Note_off_c, 1, 62, 64
3, 110400, Note_on_c, 1, 69, 75
3, 110400, Note_on_c, 1, 61, 75
3, 110584, Note_off_c, 1, 69, 64
3, 110584, Note_off_c, 1, 61, 64
3, 110592, Note_on_c, 1, 69, 75
3, 110592, Note_on_c, 1, 62, 75
3, 110780, Note_off_c, 1, 69, 64
3, 110780, Note_off_c, 1, 62, 64
3, 110784, Note_on_c, 1, 64, 76
3, 110784, Note_on_c, 1, 73, 76
3, 110876, Note_off_c, 1, 73, 64
3, 110880, Note_on_c, 1, 76, 77
3, 110972, Note_off_c, 1, 64, 64
3, 110972, Note_off_c, 1, 76, 64
3, 110976, Note_on_c, 1, 66, 77
3, 110976, Note_on_c, 1, 74, 77
3, 111076, Note_off_c, 1, 66, 64
3, 111076, Note_off_c, 1, 74, 64
3, 112512, Note_on_c, 1, 62, 81
3, 112512, Note_on_c, 1, 56, 81
3, 112892, Note_off_c, 1, 62, 64
3, 112892, Note_off_c, 1, 56, 64
3, 112896, Note_on_c, 1, 61, 81
3, 112896, Note_on_c, 1, 57, 81
3, 113264, Note_on_c, 1, 61, 81
3, 113276, Note_off_c, 1, 61, 64
3, 113276, Note_off_c, 1, 57, 64
3, 113280, Note_on_c, 1, 67, 81
3, 113644, Note_off_c, 1, 61, 64
3, 113660, Note_off_c, 1, 67, 64
3, 113664, Note_on_c, 1, 74, 81
3, 113664, Note_on_c, 1, 69, 81
3, 113664, Note_on_c, 1, 66, 81
3, 113664, Note_on_c, 1, 62, 81
3, 113756, Note_off_c, 1, 66, 64
3, 113756, Note_off_c, 1, 62, 64
3, 113760, Note_on_c, 1, 57, 81
3, 113852, Note_off_c, 1, 57, 64
3, 113856, Note_on_c, 1, 66, 81
3, 113856, Note_on_c, 1, 62, 81
3, 113948, Note_off_c, 1, 66, 64
3, 113948, Note_off_c, 1, 62, 64
3, 113952, Note_on_c, 1, 57, 81
3, 114044, Note_off_c, 1, 57, 64
3, 114048, Note_on_c, 1, 66, 81
3, 114048, Note_on_c, 1, 62, 81
3, 114140, Note_off_c, 1, 66, 64
3, 114140, Note_off_c, 1, 62, 64
3, 114144, Note_on_c, 1, 57, 81
3, 114236, Note_off_c, 1, 57, 64
3, 114240, Note_on_c, 1, 66, 81
3, 114240, Note_on_c, 1, 62, 81
3, 114332, Note_off_c, 1, 66, 64
3, 114332, Note_off_c, 1, 62, 64
3, 114336, Note_on_c, 1, 57, 81
3, 114416, Note_on_c, 1, 61, 81
3, 114428, Note_off_c, 1, 74, 64
3, 114428, Note_off_c, 1, 69, 64
3, 114428, Note_off_c, 1, 57, 64
3, 114432, Note_on_c, 1, 76, 81
3, 114432, Note_on_c, 1, 73, 81
3, 114432, Note_on_c, 1, 67, 81
3, 114508, Note_off_c, 1, 61, 64
3, 114524, Note_off_c, 1, 67, 64
3, 114528, Note_on_c, 1, 57, 81
3, 114620, Note_off_c, 1, 57, 64
3, 114624, Note_on_c, 1, 67, 81
3, 114624, Note_on_c, 1, 61, 81
3, 114716, Note_off_c, 1, 67, 64
3, 114716, Note_off_c, 1, 61, 64
3, 114720, Note_on_c, 1, 57, 81
3, 114812, Note_off_c, 1, 57, 64
3, 114816, Note_on_c, 1, 67, 81
3, 114816, Note_on_c, 1, 61, 81
3, 114908, Note_off_c, 1, 67, 64
3, 114908, Note_off_c, 1, 61, 64
3, 114912, Note_on_c, 1, 57, 81
3, 115004, Note_off_c, 1, 57, 64
3, 115008, Note_on_c, 1, 67, 81
3, 115008, Note_on_c, 1, 61, 81
3, 115100, Note_off_c, 1, 67, 64
3, 115100, Note_off_c, 1, 61, 64
3, 115104, Note_on_c, 1, 57, 81
3, 115196, Note_off_c, 1, 76, 64
3, 115196, Note_off_c, 1, 73, 64
3, 115196, Note_off_c, 1, 57, 64
3, 115200, Note_on_c, 1, 78, 81
3, 115200, Note_on_c, 1, 74, 81
3, 115200, Note_on_c, 1, 66, 81
3, 115200, Note_on_c, 1, 62, 81
3, 115244, Note_off_c, 1, 66, 64
3, 115244, Note_off_c, 1, 62, 64
3, 115296, Note_on_c, 1, 57, 81
3, 115340, Note_off_c, 1, 57, 64
3, 115392, Note_on_c, 1, 66, 81
3, 115392, Note_on_c, 1, 62, 81
3, 115436, Note_off_c, 1, 66, 64
3, 115436, Note_off_c, 1, 62, 64
3, 115488, Note_on_c, 1, 57, 81
3, 115532, Note_off_c, 1, 57, 64
3, 115580, Note_off_c, 1, 78, 64
3, 115580, Note_off_c, 1, 74, 64
3, 115584, Note_on_c, 1, 79, 81
3, 115584, Note_on_c, 1, 76, 81
3, 115584, Note_on_c, 1, 64, 81
3, 115584, Note_on_c, 1, 61, 81
3, 115628, Note_off_c, 1, 64, 64
3, 115628, Note_off_c, 1, 61, 64
3, 115680, Note_on_c, 1, 57, 81
3, 115724, Note_off_c, 1, 57, 64
3, 115776, Note_on_c, 1, 64, 81
3, 115776, Note_on_c, 1, 61, 81
3, 115820, Note_off_c, 1, 64, 64
3, 115820, Note_off_c, 1, 61, 64
3, 115872, Note_on_c, 1, 57, 81
3, 115916, Note_off_c, 1, 57, 64
3, 115964, Note_off_c, 1, 79, 64
3, 115964, Note_off_c, 1, 76, 64
3, 115968, Note_on_c, 1, 76, 81
3, 115968, Note_on_c, 1, 73, 81
3, 115968, Note_on_c, 1, 67, 81
3, 115968, Note_on_c, 1, 61, 81
3, 116012, Note_off_c, 1, 67, 64
3, 116012, Note_off_c, 1, 61, 64
3, 116064, Note_on_c, 1, 57, 81
3, 116108, Note_off_c, 1, 57, 64
3, 116156, Note_off_c, 1, 76, 64
3, 116156, Note_off_c, 1, 73, 64
3, 116160, Note_on_c, 1, 67, 81
3, 116160, Note_on_c, 1, 61, 81
3, 116204, Note_off_c, 1, 67, 64
3, 116204, Note_off_c, 1, 61, 64
3, 116256, Note_on_c, 1, 57, 81
3, 116300, Note_off_c, 1, 57, 64
3, 116352, Note_on_c, 1, 67, 81
3, 116352, Note_on_c, 1, 61, 81
3, 116396, Note_off_c, 1, 67, 64
3, 116396, Note_off_c, 1, 61, 64
3, 116448, Note_on_c, 1, 57, 81
3, 116492, Note_off_c, 1, 57, 64
3, 116544, Note_on_c, 1, 67, 81
3, 116544, Note_on_c, 1, 61, 81
3, 116588, Note_off_c, 1, 67, 64
3, 116588, Note_off_c, 1, 61, 64
3, 116640, Note_on_c, 1, 57, 81
3, 116684, Note_off_c, 1, 57, 64
3, 116736, Note_on_c, 1, 74, 81
3, 116736, Note_on_c, 1, 69, 81
3, 116736, Note_on_c, 1, 66, 81
3, 116736, Note_on_c, 1, 62, 81
3, 116828, Note_off_c, 1, 66, 64
3, 116828, Note_off_c, 1, 62, 64
3, 116832, Note_on_c, 1, 57, 81
3, 116924, Note_off_c, 1, 57, 64
3, 116928, Note_on_c, 1, 66, 81
3, 116928, Note_on_c, 1, 62, 81
3, 117020, Note_off_c, 1, 66, 64
3, 117020, Note_off_c, 1, 62, 64
3, 117024, Note_on_c, 1, 57, 81
3, 117116, Note_off_c, 1, 74, 64
3, 117116, Note_off_c, 1, 69, 64
3, 117116, Note_off_c, 1, 57, 64
3, 117120, Note_on_c, 1, 74, 81
3, 117120, Note_on_c, 1, 69, 81
3, 117120, Note_on_c, 1, 66, 81
3, 117120, Note_on_c, 1, 62, 81
3, 117212, Note_off_c, 1, 66, 64
3, 117212, Note_off_c, 1, 62, 64
3, 117216, Note_on_c, 1, 57, 81
3, 117308, Note_off_c, 1, 57, 64
3, 117312, Note_on_c, 1, 66, 81
3, 117312, Note_on_c, 1, 62, 81
3, 117392, Note_on_c, 1, 69, 81
3, 117404, Note_off_c, 1, 74, 64
3, 117404, Note_off_c, 1, 69, 64
3, 117404, Note_off_c, 1, 66, 64
3, 117404, Note_off_c, 1, 62, 64
3, 117408, Note_on_c, 1, 74, 81
3, 117408, Note_on_c, 1, 57, 81
3, 117484, Note_off_c, 1, 69, 64
3, 117500, Note_off_c, 1, 74, 64
3, 117500, Note_off_c, 1, 57, 64
3, 117504, Note_on_c, 1, 76, 81
3, 117504, Note_on_c, 1, 73, 81
3, 117504, Note_on_c, 1, 67, 81
3, 117504, Note_on_c, 1, 61, 81
3, 117596, Note_off_c, 1, 67, 64
3, 117596, Note_off_c, 1, 61, 64
3, 117600, Note_on_c, 1, 57, 81
3, 117692, Note_off_c, 1, 57, 64
3, 117696, Note_on_c, 1, 67, 81
3, 117696, Note_on_c, 1, 61, 81
3, 117788, Note_off_c, 1, 67, 64
3, 117788, Note_off_c, 1, 61, 64
3, 117792, Note_on_c, 1, 57, 81
3, 117884, Note_off_c, 1, 76, 64
3, 117884, Note_off_c, 1, 73, 64
3, 117884, Note_off_c, 1, 57, 64
3, 117888, Note_on_c, 1, 76, 81
3, 117888, Note_on_c, 1, 73, 81
3, 117888, Note_on_c, 1, 67, 81
3, 117888, Note_on_c, 1, 61, 81
3, 117980, Note_off_c, 1, 67, 64
3, 117980, Note_off_c, 1, 61, 64
3, 117984, Note_on_c, 1, 57, 81
3, 118076, Note_off_c, 1, 57, 64
3, 118080, Note_on_c, 1, 67, 81
3, 118080, Note_on_c, 1, 61, 81
3, 118172, Note_off_c, 1, 76, 64
3, 118172, Note_off_c, 1, 73, 64
3, 118172, Note_off_c, 1, 67, 64
3, 118172, Note_off_c, 1, 61, 64
3, 118176, Note_on_c, 1, 76, 81
3, 118176, Note_on_c, 1, 57, 81
3, 118176, Note_on_c, 1, 73, 81
3, 118268, Note_off_c, 1, 76, 64
3, 118268, Note_off_c, 1, 57, 64
3, 118268, Note_off_c, 1, 73, 64
3, 118272, Note_on_c, 1, 78, 81
3, 118272, Note_on_c, 1, 74, 81
3, 118272, Note_on_c, 1, 66, 81
3, 118272, Note_on_c, 1, 62, 81
3, 118364, Note_off_c, 1, 66, 64
3, 118364, Note_off_c, 1, 62, 64
3, 118368, Note_on_c, 1, 57, 81
3, 118460, Note_off_c, 1, 78, 64
3, 118460, Note_off_c, 1, 74, 64
3, 118460, Note_off_c, 1, 57, 64
3, 118464, Note_on_c, 1, 66, 81
3, 118464, Note_on_c, 1, 62, 81
3, 118556, Note_off_c, 1, 66, 64
3, 118556, Note_off_c, 1, 62, 64
3, 118560, Note_on_c, 1, 57, 81
3, 118608, Note_on_c, 1, 61, 81
3, 118652, Note_off_c, 1, 57, 64
3, 118656, Note_on_c, 1, 81, 92
3, 118656, Note_on_c, 1, 78, 92
3, 118656, Note_on_c, 1, 64, 81
3, 118700, Note_off_c, 1, 61, 64
3, 118708, Note_off_c, 1, 81, 64
3, 118708, Note_off_c, 1, 78, 64
3, 118712, Note_on_c, 1, 76, 81
3, 118712, Note_on_c, 1, 79, 81
3, 118748, Note_off_c, 1, 64, 64
3, 118752, Note_on_c, 1, 57, 81
3, 118844, Note_off_c, 1, 76, 64
3, 118844, Note_off_c, 1, 79, 64
3, 118844, Note_off_c, 1, 57, 64
3, 118848, Note_on_c, 1, 64, 81
3, 118848, Note_on_c, 1, 61, 81
3, 118940, Note_off_c, 1, 64, 64
3, 118940, Note_off_c, 1, 61, 64
3, 118944, Note_on_c, 1, 57, 81
3, 119036, Note_off_c, 1, 57, 64
3, 119040, Note_on_c, 1, 76, 81
3, 119040, Note_on_c, 1, 73, 81
3, 119040, Note_on_c, 1, 67, 81
3, 119040, Note_on_c, 1, 61, 81
3, 119132, Note_off_c, 1, 67, 64
3, 119132, Note_off_c, 1, 61, 64
3, 119136, Note_on_c, 1, 57, 81
3, 119228, Note_off_c, 1, 76, 64
3, 119228, Note_off_c, 1, 73, 64
3, 119228, Note_off_c, 1, 57, 64
3, 119232, Note_on_c, 1, 67, 81
3, 119232, Note_on_c, 1, 61, 81
3, 119324, Note_off_c, 1, 67, 64
3, 119324, Note_off_c, 1, 61, 64
3, 119328, Note_on_c, 1, 57, 81
3, 119420, Note_off_c, 1, 57, 64
3, 119424, Note_on_c, 1, 67, 81
3, 119424, Note_on_c, 1, 64, 81
3, 119516, Note_off_c, 1, 67, 64
3, 119516, Note_off_c, 1, 64, 64
3, 119520, Note_on_c, 1, 57, 81
3, 119600, Note_on_c, 1, 64, 81
3, 119612, Note_off_c, 1, 57, 64
3, 119616, Note_on_c, 1, 67, 81
3, 119692, Note_off_c, 1, 64, 64
3, 119708, Note_off_c, 1, 67, 64
3, 119712, Note_on_c, 1, 57, 81
3, 119804, Note_off_c, 1, 57, 64
3, 119808, Note_on_c, 1, 66, 81
3, 119808, Note_on_c, 1, 62, 81
3, 120188, Note_off_c, 1, 66, 64
3, 120188, Note_off_c, 1, 62, 64
3, 121728, Note_on_c, 1, 74, 81
3, 121728, Note_on_c, 1, 71, 81
3, 121728, Note_on_c, 1, 64, 81
3, 122108, Note_off_c, 1, 74, 64
3, 122108, Note_off_c, 1, 71, 64
3, 122108, Note_off_c, 1, 64, 64
3, 122112, Note_on_c, 1, 74, 81
3, 122112, Note_on_c, 1, 71, 81
3, 122112, Note_on_c, 1, 64, 81
3, 122492, Note_off_c, 1, 74, 64
3, 122492, Note_off_c, 1, 71, 64
3, 122492, Note_off_c, 1, 64, 64
3, 122496, Note_on_c, 1, 74, 81
3, 122496, Note_on_c, 1, 71, 81
3, 122496, Note_on_c, 1, 64, 81
3, 122876, Note_off_c, 1, 74, 64
3, 122876, Note_off_c, 1, 71, 64
3, 122876, Note_off_c, 1, 64, 64
3, 122880, Note_on_c, 1, 74, 81
3, 122880, Note_on_c, 1, 69, 81
3, 122880, Note_on_c, 1, 66, 81
3, 123068, Note_off_c, 1, 74, 64
3, 123068, Note_off_c, 1, 69, 64
3, 123068, Note_off_c, 1, 66, 64
3, 123072, Note_on_c, 1, 74, 81
3, 123072, Note_on_c, 1, 66, 81
3, 123260, Note_off_c, 1, 74, 64
3, 123260, Note_off_c, 1, 66, 64
3, 123264, Note_on_c, 1, 74, 81
3, 123264, Note_on_c, 1, 66, 81
3, 123452, Note_off_c, 1, 74, 64
3, 123452, Note_off_c, 1, 66, 64
3, 123456, Note_on_c, 1, 74, 81
3, 123456, Note_on_c, 1, 66, 81
3, 123644, Note_off_c, 1, 74, 64
3, 123644, Note_off_c, 1, 66, 64
3, 123648, Note_on_c, 1, 74, 81
3, 123648, Note_on_c, 1, 67, 81
3, 123836, Note_off_c, 1, 74, 64
3, 123836, Note_off_c, 1, 67, 64
3, 123840, Note_on_c, 1, 74, 81
3, 123840, Note_on_c, 1, 67, 81
3, 124028, Note_off_c, 1, 74, 64
3, 124028, Note_off_c, 1, 67, 64
3, 124032, Note_on_c, 1, 73, 81
3, 124032, Note_on_c, 1, 67, 81
3, 124208, Note_on_c, 1, 67, 81
3, 124220, Note_off_c, 1, 73, 64
3, 124220, Note_off_c, 1, 67, 64
3, 124224, Note_on_c, 1, 73, 81
3, 124396, Note_off_c, 1, 67, 64
3, 124412, Note_off_c, 1, 73, 64
3, 124416, Note_on_c, 1, 74, 87
3, 124416, Note_on_c, 1, 66, 87
3, 124796, Note_off_c, 1, 74, 64
3, 124796, Note_off_c, 1, 66, 64
3, 124992, Note_on_c, 1, 76, 87
3, 125028, Note_off_c, 1, 76, 64
3, 125040, Note_on_c, 1, 74, 76
3, 125084, Note_off_c, 1, 74, 64
3, 125088, Note_on_c, 1, 73, 76
3, 125176, Note_off_c, 1, 73, 64
3, 125184, Note_on_c, 1, 74, 76
3, 125284, Note_off_c, 1, 74, 64
3, 125376, Note_on_c, 1, 74, 76
3, 125476, Note_off_c, 1, 74, 64
3, 125568, Note_on_c, 1, 74, 76
3, 125668, Note_off_c, 1, 74, 64
3, 125760, Note_on_c, 1, 74, 76
3, 125860, Note_off_c, 1, 74, 64
3, 125952, Note_on_c, 1, 73, 87
3, 125984, Note_off_c, 1, 73, 64
3, 126000, Note_on_c, 1, 74, 87
3, 126032, Note_off_c, 1, 74, 64
3, 126048, Note_on_c, 1, 76, 76
3, 126300, Note_off_c, 1, 76, 64
3, 126528, Note_on_c, 1, 79, 76
3, 126624, Note_off_c, 1, 79, 64
3, 126624, Note_on_c, 1, 78, 76
3, 126712, Note_off_c, 1, 78, 64
3, 126720, Note_on_c, 1, 79, 76
3, 126820, Note_off_c, 1, 79, 64
3, 126912, Note_on_c, 1, 79, 76
3, 127012, Note_off_c, 1, 79, 64
3, 127104, Note_on_c, 1, 79, 76
3, 127204, Note_off_c, 1, 79, 64
3, 127296, Note_on_c, 1, 79, 76
3, 127396, Note_off_c, 1, 79, 64
3, 127488, Note_on_c, 1, 78, 87
3, 127520, Note_off_c, 1, 78, 64
3, 127536, Note_on_c, 1, 79, 87
3, 127568, Note_off_c, 1, 79, 64
3, 127584, Note_on_c, 1, 81, 76
3, 127836, Note_off_c, 1, 81, 64
3, 128064, Note_on_c, 1, 64, 87
3, 128100, Note_off_c, 1, 64, 64
3, 128112, Note_on_c, 1, 62, 76
3, 128148, Note_off_c, 1, 62, 64
3, 128160, Note_on_c, 1, 61, 76
3, 128248, Note_off_c, 1, 61, 64
3, 128256, Note_on_c, 1, 62, 76
3, 128356, Note_off_c, 1, 62, 64
3, 128448, Note_on_c, 1, 62, 76
3, 128548, Note_off_c, 1, 62, 64
3, 128640, Note_on_c, 1, 62, 76
3, 128740, Note_off_c, 1, 62, 64
3, 128832, Note_on_c, 1, 62, 76
3, 128932, Note_off_c, 1, 62, 64
3, 129024, Note_on_c, 1, 60, 87
3, 129056, Note_off_c, 1, 60, 64
3, 129072, Note_on_c, 1, 62, 87
3, 129104, Note_off_c, 1, 62, 64
3, 129136, Note_on_c, 1, 64, 76
3, 129388, Note_off_c, 1, 64, 64
3, 129600, Note_on_c, 1, 67, 76
3, 129696, Note_off_c, 1, 67, 64
3, 129696, Note_on_c, 1, 66, 76
3, 129784, Note_off_c, 1, 66, 64
3, 129792, Note_on_c, 1, 67, 76
3, 129892, Note_off_c, 1, 67, 64
3, 129984, Note_on_c, 1, 67, 76
3, 130084, Note_off_c, 1, 67, 64
3, 130176, Note_on_c, 1, 67, 76
3, 130276, Note_off_c, 1, 67, 64
3, 130368, Note_on_c, 1, 67, 76
3, 130468, Note_off_c, 1, 67, 64
3, 130560, Note_on_c, 1, 66, 71
3, 130652, Note_off_c, 1, 66, 64
3, 130752, Note_on_c, 1, 69, 71
3, 130752, Note_on_c, 1, 66, 71
3, 130844, Note_off_c, 1, 69, 64
3, 130844, Note_off_c, 1, 66, 64
3, 130944, Note_on_c, 1, 71, 71
3, 130944, Note_on_c, 1, 67, 71
3, 131036, Note_off_c, 1, 71, 64
3, 131036, Note_off_c, 1, 67, 64
3, 131136, Note_on_c, 1, 67, 71
3, 131136, Note_on_c, 1, 62, 71
3, 131228, Note_off_c, 1, 67, 64
3, 131228, Note_off_c, 1, 62, 64
3, 131328, Note_on_c, 1, 69, 71
3, 131328, Note_on_c, 1, 66, 71
3, 131420, Note_off_c, 1, 69, 64
3, 131420, Note_off_c, 1, 66, 64
3, 131520, Note_on_c, 1, 66, 71
3, 131520, Note_on_c, 1, 62, 71
3, 131612, Note_off_c, 1, 66, 64
3, 131612, Note_off_c, 1, 62, 64
3, 131712, Note_on_c, 1, 71, 71
3, 131712, Note_on_c, 1, 67, 71
3, 131804, Note_off_c, 1, 71, 64
3, 131804, Note_off_c, 1, 67, 64
3, 131904, Note_on_c, 1, 67, 71
3, 131904, Note_on_c, 1, 62, 71
3, 131996, Note_off_c, 1, 67, 64
3, 131996, Note_off_c, 1, 62, 64
3, 132096, Note_on_c, 1, 69, 71
3, 132096, Note_on_c, 1, 66, 71
3, 132144, Note_off_c, 1, 69, 64
3, 132144, Note_off_c, 1, 66, 64
3, 132192, Note_on_c, 1, 67, 71
3, 132192, Note_on_c, 1, 64, 71
3, 132240, Note_off_c, 1, 67, 64
3, 132240, Note_off_c, 1, 64, 64
3, 132288, Note_on_c, 1, 69, 71
3, 132288, Note_on_c, 1, 66, 71
3, 132336, Note_off_c, 1, 69, 64
3, 132336, Note_off_c, 1, 66, 64
3, 132384, Note_on_c, 1, 62, 71
3, 132432, Note_off_c, 1, 62, 64
3, 132480, Note_on_c, 1, 71, 71
3, 132480, Note_on_c, 1, 67, 71
3, 132528, Note_off_c, 1, 71, 64
3, 132528, Note_off_c, 1, 67, 64
3, 132576, Note_on_c, 1, 69, 71
3, 132576, Note_on_c, 1, 66, 71
3, 132624, Note_off_c, 1, 69, 64
3, 132624, Note_off_c, 1, 66, 64
3, 132672, Note_on_c, 1, 71, 71
3, 132672, Note_on_c, 1, 67, 71
3, 132720, Note_off_c, 1, 71, 64
3, 132720, Note_off_c, 1, 67, 64
3, 132768, Note_on_c, 1, 62, 71
3, 132816, Note_off_c, 1, 62, 64
3, 132864, Note_on_c, 1, 69, 71
3, 132864, Note_on_c, 1, 66, 71
3, 132912, Note_off_c, 1, 69, 64
3, 132912, Note_off_c, 1, 66, 64
3, 132960, Note_on_c, 1, 67, 71
3, 132960, Note_on_c, 1, 64, 71
3, 133008, Note_off_c, 1, 67, 64
3, 133008, Note_off_c, 1, 64, 64
3, 133056, Note_on_c, 1, 69, 71
3, 133056, Note_on_c, 1, 66, 71
3, 133104, Note_off_c, 1, 69, 64
3, 133104, Note_off_c, 1, 66, 64
3, 133152, Note_on_c, 1, 62, 71
3, 133200, Note_off_c, 1, 62, 64
3, 133248, Note_on_c, 1, 71, 71
3, 133248, Note_on_c, 1, 67, 71
3, 133296, Note_off_c, 1, 71, 64
3, 133296, Note_off_c, 1, 67, 64
3, 133344, Note_on_c, 1, 69, 71
3, 133344, Note_on_c, 1, 66, 71
3, 133392, Note_off_c, 1, 69, 64
3, 133392, Note_off_c, 1, 66, 64
3, 133440, Note_on_c, 1, 71, 71
3, 133440, Note_on_c, 1, 67, 71
3, 133488, Note_off_c, 1, 71, 64
3, 133488, Note_off_c, 1, 67, 64
3, 133536, Note_on_c, 1, 62, 71
3, 133584, Note_off_c, 1, 62, 64
3, 133632, Note_on_c, 1, 69, 71
3, 133632, Note_on_c, 1, 66, 71
3, 133732, Note_off_c, 1, 69, 64
3, 133732, Note_off_c, 1, 66, 64
3, 134016, Note_on_c, 1, 71, 71
3, 134016, Note_on_c, 1, 67, 71
3, 134116, Note_off_c, 1, 71, 64
3, 134116, Note_off_c, 1, 67, 64
3, 135360, Note_on_c, 1, 73, 71
3, 135360, Note_on_c, 1, 64, 71
3, 135552, Note_off_c, 1, 73, 64
3, 135552, Note_off_c, 1, 64, 64
3, 135552, Note_on_c, 1, 74, 71
3, 135552, Note_on_c, 1, 62, 71
3, 135736, Note_off_c, 1, 74, 64
3, 135736, Note_off_c, 1, 62, 64
3, 135744, Note_on_c, 1, 74, 71
3, 135744, Note_on_c, 1, 69, 71
3, 135932, Note_off_c, 1, 74, 64
3, 135932, Note_off_c, 1, 69, 64
3, 135936, Note_on_c, 1, 74, 71
3, 135936, Note_on_c, 1, 71, 71
3, 136036, Note_off_c, 1, 74, 64
3, 136036, Note_off_c, 1, 71, 64
3, 136128, Note_on_c, 1, 74, 71
3, 136128, Note_on_c, 1, 71, 71
3, 136228, Note_off_c, 1, 74, 64
3, 136228, Note_off_c, 1, 71, 64
3, 136320, Note_on_c, 1, 73, 71
3, 136320, Note_on_c, 1, 69, 71
3, 136420, Note_off_c, 1, 73, 64
3, 136420, Note_off_c, 1, 69, 64
3, 136512, Note_on_c, 1, 73, 71
3, 136512, Note_on_c, 1, 67, 71
3, 136612, Note_off_c, 1, 73, 64
3, 136612, Note_off_c, 1, 67, 64
3, 136704, Note_on_c, 1, 74, 71
3, 136704, Note_on_c, 1, 66, 71
3, 136804, Note_off_c, 1, 74, 64
3, 136804, Note_off_c, 1, 66, 64
3, 137088, Note_on_c, 1, 74, 71
3, 137088, Note_on_c, 1, 71, 71
3, 137088, Note_on_c, 1, 67, 71
3, 137188, Note_off_c, 1, 74, 64
3, 137188, Note_off_c, 1, 71, 64
3, 137188, Note_off_c, 1, 67, 64
3, 139008, Note_on_c, 1, 81, 71
3, 139008, Note_on_c, 1, 69, 71
3, 141308, Note_off_c, 1, 69, 64
3, 141308, Note_off_c, 1, 81, 64
3, 141312, Note_on_c, 1, 74, 71
3, 141312, Note_on_c, 1, 69, 71
3, 141312, Note_on_c, 1, 66, 71
3, 141404, Note_off_c, 1, 74, 64
3, 141404, Note_off_c, 1, 69, 64
3, 141404, Note_off_c, 1, 66, 64
3, 141408, Note_on_c, 1, 62, 71
3, 141500, Note_off_c, 1, 62, 64
3, 141504, Note_on_c, 1, 74, 71
3, 141504, Note_on_c, 1, 69, 71
3, 141504, Note_on_c, 1, 66, 71
3, 141596, Note_off_c, 1, 74, 64
3, 141596, Note_off_c, 1, 69, 64
3, 141596, Note_off_c, 1, 66, 64
3, 141600, Note_on_c, 1, 62, 71
3, 141692, Note_off_c, 1, 62, 64
3, 141696, Note_on_c, 1, 74, 71
3, 141696, Note_on_c, 1, 69, 71
3, 141696, Note_on_c, 1, 66, 71
3, 141788, Note_off_c, 1, 74, 64
3, 141788, Note_off_c, 1, 69, 64
3, 141788, Note_off_c, 1, 66, 64
3, 141792, Note_on_c, 1, 62, 71
3, 141884, Note_off_c, 1, 62, 64
3, 141888, Note_on_c, 1, 74, 71
3, 141888, Note_on_c, 1, 69, 71
3, 141888, Note_on_c, 1, 66, 71
3, 141980, Note_off_c, 1, 74, 64
3, 141980, Note_off_c, 1, 69, 64
3, 141980, Note_off_c, 1, 66, 64
3, 141984, Note_on_c, 1, 62, 71
3, 142076, Note_off_c, 1, 62, 64
3, 142080, Note_on_c, 1, 74, 71
3, 142080, Note_on_c, 1, 69, 71
3, 142080, Note_on_c, 1, 66, 71
3, 142172, Note_off_c, 1, 74, 64
3, 142172, Note_off_c, 1, 69, 64
3, 142172, Note_off_c, 1, 66, 64
3, 142176, Note_on_c, 1, 62, 71
3, 142268, Note_off_c, 1, 62, 64
3, 142272, Note_on_c, 1, 74, 71
3, 142272, Note_on_c, 1, 69, 71
3, 142272, Note_on_c, 1, 66, 71
3, 142364, Note_off_c, 1, 74, 64
3, 142364, Note_off_c, 1, 69, 64
3, 142364, Note_off_c, 1, 66, 64
3, 142368, Note_on_c, 1, 62, 71
3, 142460, Note_off_c, 1, 62, 64
3, 142464, Note_on_c, 1, 74, 71
3, 142464, Note_on_c, 1, 69, 71
3, 142464, Note_on_c, 1, 66, 71
3, 142556, Note_off_c, 1, 74, 64
3, 142556, Note_off_c, 1, 69, 64
3, 142556, Note_off_c, 1, 66, 64
3, 142560, Note_on_c, 1, 62, 71
3, 142652, Note_off_c, 1, 62, 64
3, 142656, Note_on_c, 1, 74, 71
3, 142656, Note_on_c, 1, 69, 71
3, 142656, Note_on_c, 1, 66, 71
3, 142748, Note_off_c, 1, 74, 64
3, 142748, Note_off_c, 1, 69, 64
3, 142748, Note_off_c, 1, 66, 64
3, 142752, Note_on_c, 1, 62, 71
3, 142844, Note_off_c, 1, 62, 64
3, 142848, Note_on_c, 1, 73, 72
3, 142848, Note_on_c, 1, 69, 72
3, 142848, Note_on_c, 1, 67, 72
3, 143036, Note_off_c, 1, 73, 64
3, 143036, Note_off_c, 1, 69, 64
3, 143036, Note_off_c, 1, 67, 64
3, 143040, Note_on_c, 1, 73, 74
3, 143040, Note_on_c, 1, 69, 74
3, 143040, Note_on_c, 1, 67, 74
3, 143228, Note_off_c, 1, 73, 64
3, 143228, Note_off_c, 1, 69, 64
3, 143228, Note_off_c, 1, 67, 64
3, 143232, Note_on_c, 1, 73, 77
3, 143232, Note_on_c, 1, 69, 77
3, 143232, Note_on_c, 1, 67, 76
3, 143420, Note_off_c, 1, 73, 64
3, 143420, Note_off_c, 1, 69, 64
3, 143420, Note_off_c, 1, 67, 64
3, 143424, Note_on_c, 1, 73, 79
3, 143424, Note_on_c, 1, 69, 79
3, 143424, Note_on_c, 1, 67, 79
3, 143612, Note_off_c, 1, 73, 64
3, 143612, Note_off_c, 1, 69, 64
3, 143612, Note_off_c, 1, 67, 64
3, 143616, Note_on_c, 1, 73, 82
3, 143616, Note_on_c, 1, 69, 82
3, 143616, Note_on_c, 1, 67, 82
3, 143804, Note_off_c, 1, 73, 64
3, 143804, Note_off_c, 1, 69, 64
3, 143804, Note_off_c, 1, 67, 64
3, 143808, Note_on_c, 1, 73, 85
3, 143808, Note_on_c, 1, 69, 85
3, 143808, Note_on_c, 1, 67, 85
3, 143996, Note_off_c, 1, 73, 64
3, 143996, Note_off_c, 1, 69, 64
3, 143996, Note_off_c, 1, 67, 64
3, 144000, Note_on_c, 1, 73, 88
3, 144000, Note_on_c, 1, 69, 88
3, 144000, Note_on_c, 1, 67, 88
3, 144188, Note_off_c, 1, 73, 64
3, 144188, Note_off_c, 1, 69, 64
3, 144188, Note_off_c, 1, 67, 64
3, 144192, Note_on_c, 1, 73, 90
3, 144192, Note_on_c, 1, 69, 90
3, 144192, Note_on_c, 1, 67, 90
3, 144380, Note_off_c, 1, 73, 64
3, 144380, Note_off_c, 1, 69, 64
3, 144380, Note_off_c, 1, 67, 64
3, 144384, Note_on_c, 1, 74, 92
3, 144384, Note_on_c, 1, 69, 92
3, 144384, Note_on_c, 1, 66, 92
3, 144384, Note_on_c, 1, 62, 92
3, 144572, Note_off_c, 1, 69, 64
3, 144572, Note_off_c, 1, 66, 64
3, 144572, Note_off_c, 1, 62, 64
3, 144576, Note_on_c, 1, 69, 92
3, 144576, Note_on_c, 1, 66, 92
3, 144668, Note_off_c, 1, 69, 64
3, 144668, Note_off_c, 1, 66, 64
3, 144672, Note_on_c, 1, 69, 92
3, 144672, Note_on_c, 1, 66, 92
3, 144764, Note_off_c, 1, 74, 64
3, 144764, Note_off_c, 1, 69, 64
3, 144764, Note_off_c, 1, 66, 64
3, 144768, Note_on_c, 1, 69, 92
3, 144768, Note_on_c, 1, 66, 92
3, 144768, Note_on_c, 1, 62, 92
3, 144956, Note_off_c, 1, 69, 64
3, 144956, Note_off_c, 1, 66, 64
3, 144956, Note_off_c, 1, 62, 64
3, 144960, Note_on_c, 1, 69, 92
3, 144960, Note_on_c, 1, 62, 92
3, 144960, Note_on_c, 1, 66, 92
3, 145052, Note_off_c, 1, 69, 64
3, 145052, Note_off_c, 1, 62, 64
3, 145052, Note_off_c, 1, 66, 64
3, 145056, Note_on_c, 1, 74, 92
3, 145056, Note_on_c, 1, 69, 92
3, 145056, Note_on_c, 1, 66, 92
3, 145056, Note_on_c, 1, 62, 92
3, 145148, Note_off_c, 1, 74, 64
3, 145148, Note_off_c, 1, 69, 64
3, 145148, Note_off_c, 1, 66, 64
3, 145148, Note_off_c, 1, 62, 64
3, 145152, Note_on_c, 1, 78, 92
3, 145152, Note_on_c, 1, 69, 92
3, 145152, Note_on_c, 1, 66, 92
3, 145152, Note_on_c, 1, 62, 92
3, 145340, Note_off_c, 1, 78, 64
3, 145340, Note_off_c, 1, 69, 64
3, 145340, Note_off_c, 1, 66, 64
3, 145340, Note_off_c, 1, 62, 64
3, 145344, Note_on_c, 1, 74, 92
3, 145344, Note_on_c, 1, 69, 92
3, 145344, Note_on_c, 1, 66, 92
3, 145344, Note_on_c, 1, 62, 92
3, 145436, Note_off_c, 1, 74, 64
3, 145436, Note_off_c, 1, 69, 64
3, 145436, Note_off_c, 1, 66, 64
3, 145436, Note_off_c, 1, 62, 64
3, 145440, Note_on_c, 1, 78, 92
3, 145440, Note_on_c, 1, 69, 92
3, 145440, Note_on_c, 1, 66, 92
3, 145440, Note_on_c, 1, 62, 92
3, 145532, Note_off_c, 1, 78, 64
3, 145532, Note_off_c, 1, 69, 64
3, 145532, Note_off_c, 1, 66, 64
3, 145532, Note_off_c, 1, 62, 64
3, 145536, Note_on_c, 1, 81, 92
3, 145536, Note_on_c, 1, 69, 92
3, 145536, Note_on_c, 1, 66, 92
3, 145536, Note_on_c, 1, 62, 92
3, 145724, Note_off_c, 1, 81, 64
3, 145724, Note_off_c, 1, 69, 64
3, 145724, Note_off_c, 1, 66, 64
3, 145724, Note_off_c, 1, 62, 64
3, 145728, Note_on_c, 1, 69, 92
3, 145728, Note_on_c, 1, 66, 92
3, 145728, Note_on_c, 1, 62, 92
3, 145728, Note_on_c, 1, 78, 92
3, 145820, Note_off_c, 1, 69, 64
3, 145820, Note_off_c, 1, 66, 64
3, 145820, Note_off_c, 1, 62, 64
3, 145820, Note_off_c, 1, 78, 64
3, 145824, Note_on_c, 1, 81, 92
3, 145824, Note_on_c, 1, 69, 92
3, 145824, Note_on_c, 1, 66, 92
3, 145824, Note_on_c, 1, 62, 92
3, 145916, Note_off_c, 1, 81, 64
3, 145916, Note_off_c, 1, 69, 64
3, 145916, Note_off_c, 1, 66, 64
3, 145916, Note_off_c, 1, 62, 64
3, 145920, Note_on_c, 1, 76, 92
3, 145920, Note_on_c, 1, 73, 92
3, 145920, Note_on_c, 1, 69, 92
3, 145920, Note_on_c, 1, 79, 92
3, 146108, Note_off_c, 1, 76, 64
3, 146108, Note_off_c, 1, 73, 64
3, 146108, Note_off_c, 1, 69, 64
3, 146112, Note_on_c, 1, 76, 92
3, 146112, Note_on_c, 1, 73, 92
3, 146112, Note_on_c, 1, 69, 92
3, 146204, Note_off_c, 1, 76, 64
3, 146204, Note_off_c, 1, 73, 64
3, 146204, Note_off_c, 1, 69, 64
3, 146208, Note_on_c, 1, 76, 92
3, 146208, Note_on_c, 1, 73, 92
3, 146208, Note_on_c, 1, 69, 92
3, 146300, Note_off_c, 1, 76, 64
3, 146300, Note_off_c, 1, 73, 64
3, 146300, Note_off_c, 1, 69, 64
3, 146304, Note_on_c, 1, 76, 92
3, 146304, Note_on_c, 1, 73, 92
3, 146304, Note_on_c, 1, 69, 92
3, 146492, Note_off_c, 1, 79, 64
3, 146492, Note_off_c, 1, 76, 64
3, 146492, Note_off_c, 1, 73, 64
3, 146492, Note_off_c, 1, 69, 64
3, 146496, Note_on_c, 1, 76, 92
3, 146496, Note_on_c, 1, 69, 92
3, 146496, Note_on_c, 1, 67, 92
3, 146496, Note_on_c, 1, 64, 92
3, 146496, Note_on_c, 1, 61, 92
3, 146588, Note_off_c, 1, 69, 64
3, 146588, Note_off_c, 1, 67, 64
3, 146588, Note_off_c, 1, 64, 64
3, 146588, Note_off_c, 1, 61, 64
3, 146592, Note_on_c, 1, 69, 92
3, 146592, Note_on_c, 1, 67, 92
3, 146592, Note_on_c, 1, 64, 92
3, 146592, Note_on_c, 1, 61, 92
3, 146684, Note_off_c, 1, 76, 64
3, 146684, Note_off_c, 1, 69, 64
3, 146684, Note_off_c, 1, 67, 64
3, 146684, Note_off_c, 1, 64, 64
3, 146684, Note_off_c, 1, 61, 64
3, 146688, Note_on_c, 1, 74, 97
3, 146688, Note_on_c, 1, 69, 92
3, 146688, Note_on_c, 1, 67, 92
3, 146688, Note_on_c, 1, 64, 92
3, 146780, Note_off_c, 1, 74, 64
3, 146784, Note_on_c, 1, 73, 92
3, 146876, Note_off_c, 1, 69, 64
3, 146876, Note_off_c, 1, 67, 64
3, 146876, Note_off_c, 1, 64, 64
3, 146876, Note_off_c, 1, 73, 64
3, 146880, Note_on_c, 1, 71, 92
3, 146880, Note_on_c, 1, 69, 92
3, 146880, Note_on_c, 1, 67, 92
3, 146880, Note_on_c, 1, 64, 92
3, 146972, Note_off_c, 1, 71, 64
3, 146972, Note_off_c, 1, 69, 64
3, 146972, Note_off_c, 1, 67, 64
3, 146972, Note_off_c, 1, 64, 64
3, 146976, Note_on_c, 1, 73, 92
3, 146976, Note_on_c, 1, 69, 92
3, 146976, Note_on_c, 1, 64, 92
3, 146976, Note_on_c, 1, 67, 92
3, 147068, Note_off_c, 1, 73, 64
3, 147068, Note_off_c, 1, 69, 64
3, 147068, Note_off_c, 1, 64, 64
3, 147068, Note_off_c, 1, 67, 64
3, 147072, Note_on_c, 1, 74, 97
3, 147072, Note_on_c, 1, 69, 92
3, 147072, Note_on_c, 1, 67, 92
3, 147072, Note_on_c, 1, 64, 92
3, 147164, Note_off_c, 1, 74, 64
3, 147168, Note_on_c, 1, 73, 92
3, 147260, Note_off_c, 1, 69, 64
3, 147260, Note_off_c, 1, 67, 64
3, 147260, Note_off_c, 1, 64, 64
3, 147260, Note_off_c, 1, 73, 64
3, 147264, Note_on_c, 1, 71, 92
3, 147264, Note_on_c, 1, 69, 92
3, 147264, Note_on_c, 1, 67, 92
3, 147264, Note_on_c, 1, 64, 92
3, 147356, Note_off_c, 1, 71, 64
3, 147356, Note_off_c, 1, 69, 64
3, 147356, Note_off_c, 1, 67, 64
3, 147356, Note_off_c, 1, 64, 64
3, 147360, Note_on_c, 1, 73, 92
3, 147360, Note_on_c, 1, 69, 92
3, 147360, Note_on_c, 1, 67, 92
3, 147360, Note_on_c, 1, 64, 92
3, 147452, Note_off_c, 1, 73, 64
3, 147452, Note_off_c, 1, 69, 64
3, 147452, Note_off_c, 1, 67, 64
3, 147452, Note_off_c, 1, 64, 64
3, 147456, Note_on_c, 1, 74, 92
3, 147456, Note_on_c, 1, 69, 92
3, 147456, Note_on_c, 1, 66, 92
3, 147644, Note_off_c, 1, 69, 64
3, 147644, Note_off_c, 1, 66, 64
3, 147648, Note_on_c, 1, 69, 92
3, 147648, Note_on_c, 1, 66, 92
3, 147740, Note_off_c, 1, 69, 64
3, 147740, Note_off_c, 1, 66, 64
3, 147744, Note_on_c, 1, 69, 92
3, 147744, Note_on_c, 1, 66, 92
3, 147836, Note_off_c, 1, 74, 64
3, 147836, Note_off_c, 1, 69, 64
3, 147836, Note_off_c, 1, 66, 64
3, 147840, Note_on_c, 1, 69, 92
3, 147840, Note_on_c, 1, 66, 92
3, 147840, Note_on_c, 1, 62, 92
3, 148028, Note_off_c, 1, 69, 64
3, 148028, Note_off_c, 1, 66, 64
3, 148028, Note_off_c, 1, 62, 64
3, 148032, Note_on_c, 1, 62, 92
3, 148032, Note_on_c, 1, 69, 92
3, 148032, Note_on_c, 1, 66, 92
3, 148124, Note_off_c, 1, 62, 64
3, 148124, Note_off_c, 1, 69, 64
3, 148124, Note_off_c, 1, 66, 64
3, 148128, Note_on_c, 1, 74, 92
3, 148128, Note_on_c, 1, 69, 92
3, 148128, Note_on_c, 1, 66, 92
3, 148128, Note_on_c, 1, 62, 92
3, 148220, Note_off_c, 1, 74, 64
3, 148220, Note_off_c, 1, 69, 64
3, 148220, Note_off_c, 1, 66, 64
3, 148220, Note_off_c, 1, 62, 64
3, 148224, Note_on_c, 1, 78, 92
3, 148224, Note_on_c, 1, 66, 92
3, 148224, Note_on_c, 1, 69, 92
3, 148224, Note_on_c, 1, 62, 92
3, 148412, Note_off_c, 1, 78, 64
3, 148412, Note_off_c, 1, 66, 64
3, 148412, Note_off_c, 1, 69, 64
3, 148412, Note_off_c, 1, 62, 64
3, 148416, Note_on_c, 1, 74, 92
3, 148416, Note_on_c, 1, 69, 92
3, 148416, Note_on_c, 1, 66, 92
3, 148416, Note_on_c, 1, 62, 92
3, 148508, Note_off_c, 1, 74, 64
3, 148508, Note_off_c, 1, 69, 64
3, 148508, Note_off_c, 1, 66, 64
3, 148508, Note_off_c, 1, 62, 64
3, 148512, Note_on_c, 1, 78, 92
3, 148512, Note_on_c, 1, 69, 92
3, 148512, Note_on_c, 1, 66, 92
3, 148512, Note_on_c, 1, 62, 92
3, 148604, Note_off_c, 1, 78, 64
3, 148604, Note_off_c, 1, 69, 64
3, 148604, Note_off_c, 1, 66, 64
3, 148604, Note_off_c, 1, 62, 64
3, 148608, Note_on_c, 1, 81, 92
3, 148608, Note_on_c, 1, 69, 92
3, 148608, Note_on_c, 1, 66, 92
3, 148608, Note_on_c, 1, 62, 92
3, 148796, Note_off_c, 1, 81, 64
3, 148796, Note_off_c, 1, 69, 64
3, 148796, Note_off_c, 1, 66, 64
3, 148796, Note_off_c, 1, 62, 64
3, 148800, Note_on_c, 1, 78, 92
3, 148800, Note_on_c, 1, 69, 92
3, 148800, Note_on_c, 1, 66, 92
3, 148800, Note_on_c, 1, 62, 92
3, 148892, Note_off_c, 1, 78, 64
3, 148892, Note_off_c, 1, 69, 64
3, 148892, Note_off_c, 1, 66, 64
3, 148892, Note_off_c, 1, 62, 64
3, 148896, Note_on_c, 1, 81, 92
3, 148896, Note_on_c, 1, 69, 92
3, 148896, Note_on_c, 1, 66, 92
3, 148896, Note_on_c, 1, 62, 92
3, 148988, Note_off_c, 1, 81, 64
3, 148988, Note_off_c, 1, 69, 64
3, 148988, Note_off_c, 1, 66, 64
3, 148988, Note_off_c, 1, 62, 64
3, 148992, Note_on_c, 1, 76, 92
3, 148992, Note_on_c, 1, 73, 92
3, 148992, Note_on_c, 1, 69, 92
3, 148992, Note_on_c, 1, 79, 92
3, 149180, Note_off_c, 1, 76, 64
3, 149180, Note_off_c, 1, 73, 64
3, 149180, Note_off_c, 1, 69, 64
3, 149184, Note_on_c, 1, 76, 92
3, 149184, Note_on_c, 1, 73, 92
3, 149184, Note_on_c, 1, 69, 92
3, 149276, Note_off_c, 1, 76, 64
3, 149276, Note_off_c, 1, 73, 64
3, 149276, Note_off_c, 1, 69, 64
3, 149280, Note_on_c, 1, 76, 92
3, 149280, Note_on_c, 1, 73, 92
3, 149280, Note_on_c, 1, 69, 92
3, 149372, Note_off_c, 1, 76, 64
3, 149372, Note_off_c, 1, 73, 64
3, 149372, Note_off_c, 1, 69, 64
3, 149376, Note_on_c, 1, 76, 92
3, 149376, Note_on_c, 1, 73, 92
3, 149376, Note_on_c, 1, 69, 92
3, 149564, Note_off_c, 1, 79, 64
3, 149564, Note_off_c, 1, 76, 64
3, 149564, Note_off_c, 1, 73, 64
3, 149564, Note_off_c, 1, 69, 64
3, 149568, Note_on_c, 1, 76, 92
3, 149568, Note_on_c, 1, 69, 92
3, 149568, Note_on_c, 1, 67, 92
3, 149568, Note_on_c, 1, 64, 92
3, 149568, Note_on_c, 1, 61, 92
3, 149660, Note_off_c, 1, 69, 64
3, 149660, Note_off_c, 1, 67, 64
3, 149660, Note_off_c, 1, 64, 64
3, 149660, Note_off_c, 1, 61, 64
3, 149664, Note_on_c, 1, 69, 92
3, 149664, Note_on_c, 1, 67, 92
3, 149664, Note_on_c, 1, 64, 92
3, 149664, Note_on_c, 1, 61, 92
3, 149756, Note_off_c, 1, 76, 64
3, 149756, Note_off_c, 1, 69, 64
3, 149756, Note_off_c, 1, 67, 64
3, 149756, Note_off_c, 1, 64, 64
3, 149756, Note_off_c, 1, 61, 64
3, 149760, Note_on_c, 1, 86, 97
3, 149760, Note_on_c, 1, 69, 92
3, 149760, Note_on_c, 1, 67, 92
3, 149760, Note_on_c, 1, 64, 92
3, 149852, Note_off_c, 1, 86, 64
3, 149856, Note_on_c, 1, 85, 92
3, 149948, Note_off_c, 1, 69, 64
3, 149948, Note_off_c, 1, 67, 64
3, 149948, Note_off_c, 1, 64, 64
3, 149948, Note_off_c, 1, 85, 64
3, 149952, Note_on_c, 1, 83, 92
3, 149952, Note_on_c, 1, 67, 92
3, 149952, Note_on_c, 1, 69, 92
3, 149952, Note_on_c, 1, 64, 92
3, 150044, Note_off_c, 1, 83, 64
3, 150044, Note_off_c, 1, 67, 64
3, 150044, Note_off_c, 1, 69, 64
3, 150044, Note_off_c, 1, 64, 64
3, 150048, Note_on_c, 1, 85, 92
3, 150048, Note_on_c, 1, 69, 92
3, 150048, Note_on_c, 1, 67, 92
3, 150048, Note_on_c, 1, 64, 92
3, 150140, Note_off_c, 1, 85, 64
3, 150140, Note_off_c, 1, 69, 64
3, 150140, Note_off_c, 1, 67, 64
3, 150140, Note_off_c, 1, 64, 64
3, 150144, Note_on_c, 1, 86, 97
3, 150144, Note_on_c, 1, 64, 92
3, 150144, Note_on_c, 1, 69, 92
3, 150144, Note_on_c, 1, 67, 92
3, 150236, Note_off_c, 1, 86, 64
3, 150240, Note_on_c, 1, 85, 93
3, 150332, Note_off_c, 1, 64, 64
3, 150332, Note_off_c, 1, 69, 64
3, 150332, Note_off_c, 1, 67, 64
3, 150332, Note_off_c, 1, 85, 64
3, 150336, Note_on_c, 1, 83, 92
3, 150336, Note_on_c, 1, 67, 92
3, 150336, Note_on_c, 1, 64, 92
3, 150336, Note_on_c, 1, 69, 92
3, 150428, Note_off_c, 1, 83, 64
3, 150428, Note_off_c, 1, 67, 64
3, 150428, Note_off_c, 1, 64, 64
3, 150428, Note_off_c, 1, 69, 64
3, 150432, Note_on_c, 1, 85, 92
3, 150432, Note_on_c, 1, 69, 92
3, 150432, Note_on_c, 1, 67, 92
3, 150432, Note_on_c, 1, 64, 92
3, 150524, Note_off_c, 1, 85, 64
3, 150524, Note_off_c, 1, 69, 64
3, 150524, Note_off_c, 1, 67, 64
3, 150524, Note_off_c, 1, 64, 64
3, 150528, Note_on_c, 1, 86, 97
3, 150716, Note_off_c, 1, 86, 64
3, 150720, Note_on_c, 1, 78, 97
3, 150908, Note_off_c, 1, 78, 64
3, 150912, Note_on_c, 1, 81, 102
3, 151484, Note_off_c, 1, 81, 64
3, 151488, Note_on_c, 1, 74, 97
3, 151676, Note_off_c, 1, 74, 64
3, 151680, Note_on_c, 1, 86, 102
3, 152252, Note_off_c, 1, 86, 64
3, 152256, Note_on_c, 1, 71, 97
3, 152444, Note_off_c, 1, 71, 64
3, 152448, Note_on_c, 1, 74, 97
3, 153020, Note_off_c, 1, 74, 64
3, 153024, Note_on_c, 1, 67, 97
3, 153212, Note_off_c, 1, 67, 64
3, 153216, Note_on_c, 1, 79, 97
3, 153596, Note_off_c, 1, 79, 64
3, 153600, Note_on_c, 1, 79, 97
3, 153652, Note_off_c, 1, 79, 64
3, 153656, Note_on_c, 1, 78, 92
3, 153788, Note_off_c, 1, 78, 64
3, 153792, Note_on_c, 1, 76, 92
3, 153884, Note_off_c, 1, 76, 64
3, 153888, Note_on_c, 1, 74, 92
3, 153980, Note_off_c, 1, 74, 64
3, 153984, Note_on_c, 1, 79, 97
3, 154036, Note_off_c, 1, 79, 64
3, 154040, Note_on_c, 1, 78, 92
3, 154172, Note_off_c, 1, 78, 64
3, 154176, Note_on_c, 1, 76, 92
3, 154268, Note_off_c, 1, 76, 64
3, 154272, Note_on_c, 1, 74, 92
3, 154364, Note_off_c, 1, 74, 64
3, 154368, Note_on_c, 1, 76, 92
3, 154412, Note_off_c, 1, 76, 64
3, 154416, Note_on_c, 1, 78, 92
3, 154460, Note_off_c, 1, 78, 64
3, 154464, Note_on_c, 1, 76, 92
3, 154508, Note_off_c, 1, 76, 64
3, 154512, Note_on_c, 1, 78, 92
3, 154556, Note_off_c, 1, 78, 64
3, 154560, Note_on_c, 1, 76, 92
3, 154604, Note_off_c, 1, 76, 64
3, 154608, Note_on_c, 1, 78, 92
3, 154652, Note_off_c, 1, 78, 64
3, 154656, Note_on_c, 1, 76, 92
3, 154700, Note_off_c, 1, 76, 64
3, 154704, Note_on_c, 1, 78, 92
3, 154748, Note_off_c, 1, 78, 64
3, 154752, Note_on_c, 1, 76, 92
3, 154796, Note_off_c, 1, 76, 64
3, 154800, Note_on_c, 1, 78, 92
3, 154844, Note_off_c, 1, 78, 64
3, 154848, Note_on_c, 1, 76, 92
3, 154892, Note_off_c, 1, 76, 64
3, 154896, Note_on_c, 1, 78, 92
3, 154940, Note_off_c, 1, 78, 64
3, 154944, Note_on_c, 1, 74, 92
3, 155032, Note_off_c, 1, 74, 64
3, 155040, Note_on_c, 1, 76, 92
3, 155128, Note_off_c, 1, 76, 64
3, 155136, Note_on_c, 1, 74, 92
3, 155516, Note_off_c, 1, 74, 64
3, 155616, Note_on_c, 1, 57, 92
3, 155664, Note_off_c, 1, 57, 64
3, 155712, Note_on_c, 1, 66, 92
3, 155760, Note_off_c, 1, 66, 64
3, 155808, Note_on_c, 1, 69, 92
3, 155856, Note_off_c, 1, 69, 64
3, 155904, Note_on_c, 1, 69, 102
3, 155956, Note_off_c, 1, 69, 64
3, 155960, Note_on_c, 1, 67, 92
3, 156092, Note_off_c, 1, 67, 64
3, 156096, Note_on_c, 1, 66, 92
3, 156188, Note_off_c, 1, 66, 64
3, 156192, Note_on_c, 1, 64, 92
3, 156284, Note_off_c, 1, 64, 64
3, 156288, Note_on_c, 1, 74, 102
3, 156340, Note_off_c, 1, 74, 64
3, 156344, Note_on_c, 1, 73, 92
3, 156476, Note_off_c, 1, 73, 64
3, 156480, Note_on_c, 1, 71, 92
3, 156572, Note_off_c, 1, 71, 64
3, 156576, Note_on_c, 1, 73, 92
3, 156668, Note_off_c, 1, 73, 64
3, 156672, Note_on_c, 1, 74, 92
3, 156860, Note_off_c, 1, 74, 64
3, 156864, Note_on_c, 1, 78, 92
3, 157052, Note_off_c, 1, 78, 64
3, 157152, Note_on_c, 1, 69, 92
3, 157200, Note_off_c, 1, 69, 64
3, 157248, Note_on_c, 1, 78, 92
3, 157296, Note_off_c, 1, 78, 64
3, 157344, Note_on_c, 1, 81, 92
3, 157392, Note_off_c, 1, 81, 64
3, 157440, Note_on_c, 1, 81, 102
3, 157492, Note_off_c, 1, 81, 64
3, 157496, Note_on_c, 1, 79, 92
3, 157628, Note_off_c, 1, 79, 64
3, 157632, Note_on_c, 1, 78, 92
3, 157724, Note_off_c, 1, 78, 64
3, 157728, Note_on_c, 1, 76, 92
3, 157820, Note_off_c, 1, 76, 64
3, 157824, Note_on_c, 1, 86, 102
3, 157876, Note_off_c, 1, 86, 64
3, 157880, Note_on_c, 1, 85, 92
3, 158012, Note_off_c, 1, 85, 64
3, 158016, Note_on_c, 1, 83, 92
3, 158108, Note_off_c, 1, 83, 64
3, 158112, Note_on_c, 1, 85, 92
3, 158204, Note_off_c, 1, 85, 64
3, 158208, Note_on_c, 1, 86, 92
3, 158396, Note_off_c, 1, 86, 64
3, 158400, Note_on_c, 1, 69, 92
3, 158592, Note_off_c, 1, 69, 64
3, 158592, Note_on_c, 1, 74, 92
3, 158776, Note_off_c, 1, 74, 64
3, 158784, Note_on_c, 1, 74, 71
3, 158884, Note_off_c, 1, 74, 64
3, 158976, Note_on_c, 1, 74, 71
3, 159076, Note_off_c, 1, 74, 64
3, 159168, Note_on_c, 1, 74, 71
3, 159268, Note_off_c, 1, 74, 64
3, 159360, Note_on_c, 1, 74, 71
3, 159460, Note_off_c, 1, 74, 64
3, 159552, Note_on_c, 1, 74, 71
3, 159652, Note_off_c, 1, 74, 64
3, 159936, Note_on_c, 1, 74, 92
3, 160128, Note_off_c, 1, 74, 64
3, 160128, Note_on_c, 1, 82, 92
3, 160312, Note_off_c, 1, 82, 64
3, 160320, Note_on_c, 1, 82, 71
3, 160420, Note_off_c, 1, 82, 64
3, 160512, Note_on_c, 1, 82, 71
3, 160612, Note_off_c, 1, 82, 64
3, 160704, Note_on_c, 1, 82, 71
3, 160804, Note_off_c, 1, 82, 64
3, 160896, Note_on_c, 1, 82, 71
3, 160996, Note_off_c, 1, 82, 64
3, 161088, Note_on_c, 1, 82, 71
3, 161188, Note_off_c, 1, 82, 64
3, 161472, Note_on_c, 1, 64, 92
3, 161664, Note_off_c, 1, 64, 64
3, 161664, Note_on_c, 1, 73, 92
3, 161848, Note_off_c, 1, 73, 64
3, 161856, Note_on_c, 1, 73, 71
3, 161956, Note_off_c, 1, 73, 64
3, 162048, Note_on_c, 1, 73, 71
3, 162148, Note_off_c, 1, 73, 64
3, 162240, Note_on_c, 1, 73, 71
3, 162340, Note_off_c, 1, 73, 64
3, 162432, Note_on_c, 1, 73, 71
3, 162532, Note_off_c, 1, 73, 64
3, 162624, Note_on_c, 1, 73, 71
3, 162724, Note_off_c, 1, 73, 64
3, 163008, Note_on_c, 1, 74, 71
3, 163008, Note_on_c, 1, 69, 71
3, 163108, Note_off_c, 1, 74, 64
3, 163108, Note_off_c, 1, 69, 64
3, 163200, Note_on_c, 1, 74, 71
3, 163200, Note_on_c, 1, 69, 71
3, 163300, Note_off_c, 1, 74, 64
3, 163300, Note_off_c, 1, 69, 64
3, 163392, Note_on_c, 1, 74, 71
3, 163392, Note_on_c, 1, 69, 71
3, 163492, Note_off_c, 1, 74, 64
3, 163492, Note_off_c, 1, 69, 64
3, 163776, Note_on_c, 1, 74, 71
3, 163776, Note_on_c, 1, 70, 71
3, 163876, Note_off_c, 1, 74, 64
3, 163876, Note_off_c, 1, 70, 64
3, 163968, Note_on_c, 1, 74, 71
3, 163968, Note_on_c, 1, 70, 71
3, 164068, Note_off_c, 1, 74, 64
3, 164068, Note_off_c, 1, 70, 64
3, 164160, Note_on_c, 1, 74, 71
3, 164160, Note_on_c, 1, 70, 71
3, 164260, Note_off_c, 1, 74, 64
3, 164260, Note_off_c, 1, 70, 64
3, 164352, Note_on_c, 1, 74, 71
3, 164352, Note_on_c, 1, 69, 71
3, 164452, Note_off_c, 1, 74, 64
3, 164452, Note_off_c, 1, 69, 64
3, 164736, Note_on_c, 1, 74, 71
3, 164736, Note_on_c, 1, 67, 71
3, 164836, Note_off_c, 1, 74, 64
3, 164836, Note_off_c, 1, 67, 64
3, 165120, Note_on_c, 1, 74, 71
3, 165120, Note_on_c, 1, 65, 71
3, 165220, Note_off_c, 1, 74, 64
3, 165220, Note_off_c, 1, 65, 64
3, 165504, Note_on_c, 1, 73, 71
3, 165504, Note_on_c, 1, 64, 71
3, 165604, Note_off_c, 1, 73, 64
3, 165604, Note_off_c, 1, 64, 64
3, 166080, Note_on_c, 1, 69, 97
3, 166272, Note_off_c, 1, 69, 64
3, 166272, Note_on_c, 1, 74, 97
3, 166456, Note_off_c, 1, 74, 64
3, 166464, Note_on_c, 1, 74, 76
3, 166564, Note_off_c, 1, 74, 64
3, 166656, Note_on_c, 1, 74, 76
3, 166756, Note_off_c, 1, 74, 64
3, 166848, Note_on_c, 1, 74, 76
3, 166948, Note_off_c, 1, 74, 64
3, 167040, Note_on_c, 1, 74, 76
3, 167140, Note_off_c, 1, 74, 64
3, 167232, Note_on_c, 1, 74, 76
3, 167332, Note_off_c, 1, 74, 64
3, 167616, Note_on_c, 1, 74, 97
3, 167808, Note_off_c, 1, 74, 64
3, 167808, Note_on_c, 1, 82, 97
3, 167992, Note_off_c, 1, 82, 64
3, 168000, Note_on_c, 1, 82, 76
3, 168100, Note_off_c, 1, 82, 64
3, 168192, Note_on_c, 1, 82, 76
3, 168292, Note_off_c, 1, 82, 64
3, 168384, Note_on_c, 1, 82, 76
3, 168484, Note_off_c, 1, 82, 64
3, 168576, Note_on_c, 1, 82, 76
3, 168676, Note_off_c, 1, 82, 64
3, 168768, Note_on_c, 1, 82, 76
3, 168868, Note_off_c, 1, 82, 64
3, 169152, Note_on_c, 1, 64, 97
3, 169344, Note_off_c, 1, 64, 64
3, 169344, Note_on_c, 1, 73, 97
3, 169528, Note_off_c, 1, 73, 64
3, 169536, Note_on_c, 1, 73, 76
3, 169636, Note_off_c, 1, 73, 64
3, 169728, Note_on_c, 1, 73, 76
3, 169828, Note_off_c, 1, 73, 64
3, 169920, Note_on_c, 1, 73, 76
3, 170020, Note_off_c, 1, 73, 64
3, 170112, Note_on_c, 1, 73, 76
3, 170212, Note_off_c, 1, 73, 64
3, 170304, Note_on_c, 1, 73, 76
3, 170404, Note_off_c, 1, 73, 64
3, 170688, Note_on_c, 1, 74, 76
3, 170688, Note_on_c, 1, 69, 76
3, 170788, Note_off_c, 1, 74, 64
3, 170788, Note_off_c, 1, 69, 64
3, 170880, Note_on_c, 1, 74, 76
3, 170880, Note_on_c, 1, 69, 76
3, 170980, Note_off_c, 1, 74, 64
3, 170980, Note_off_c, 1, 69, 64
3, 171072, Note_on_c, 1, 74, 76
3, 171072, Note_on_c, 1, 69, 76
3, 171172, Note_off_c, 1, 74, 64
3, 171172, Note_off_c, 1, 69, 64
3, 171456, Note_on_c, 1, 74, 76
3, 171456, Note_on_c, 1, 70, 76
3, 171556, Note_off_c, 1, 74, 64
3, 171556, Note_off_c, 1, 70, 64
3, 171648, Note_on_c, 1, 74, 76
3, 171648, Note_on_c, 1, 70, 76
3, 171748, Note_off_c, 1, 74, 64
3, 171748, Note_off_c, 1, 70, 64
3, 171840, Note_on_c, 1, 74, 76
3, 171840, Note_on_c, 1, 70, 76
3, 171940, Note_off_c, 1, 74, 64
3, 171940, Note_off_c, 1, 70, 64
3, 172032, Note_on_c, 1, 74, 76
3, 172032, Note_on_c, 1, 69, 76
3, 172132, Note_off_c, 1, 74, 64
3, 172132, Note_off_c, 1, 69, 64
3, 172416, Note_on_c, 1, 74, 76
3, 172416, Note_on_c, 1, 67, 76
3, 172516, Note_off_c, 1, 74, 64
3, 172516, Note_off_c, 1, 67, 64
3, 172800, Note_on_c, 1, 74, 76
3, 172800, Note_on_c, 1, 65, 76
3, 172900, Note_off_c, 1, 74, 64
3, 172900, Note_off_c, 1, 65, 64
3, 173184, Note_on_c, 1, 73, 76
3, 173184, Note_on_c, 1, 64, 76
3, 173284, Note_off_c, 1, 73, 64
3, 173284, Note_off_c, 1, 64, 64
3, 173568, Note_on_c, 1, 81, 76
3, 173568, Note_on_c, 1, 77, 76
3, 173760, Note_off_c, 1, 81, 64
3, 173760, Note_off_c, 1, 77, 64
3, 173760, Note_on_c, 1, 74, 76
3, 173944, Note_off_c, 1, 74, 64
3, 173952, Note_on_c, 1, 69, 76
3, 173952, Note_on_c, 1, 65, 76
3, 174144, Note_off_c, 1, 69, 64
3, 174144, Note_off_c, 1, 65, 64
3, 174144, Note_on_c, 1, 62, 76
3, 174328, Note_off_c, 1, 62, 64
3, 174336, Note_on_c, 1, 81, 76
3, 174336, Note_on_c, 1, 77, 76
3, 174528, Note_off_c, 1, 81, 64
3, 174528, Note_off_c, 1, 77, 64
3, 174528, Note_on_c, 1, 74, 76
3, 174712, Note_off_c, 1, 74, 64
3, 174720, Note_on_c, 1, 69, 76
3, 174720, Note_on_c, 1, 65, 76
3, 174912, Note_off_c, 1, 69, 64
3, 174912, Note_off_c, 1, 65, 64
3, 174912, Note_on_c, 1, 62, 76
3, 175096, Note_off_c, 1, 62, 64
3, 175104, Note_on_c, 1, 69, 71
3, 176640, Note_on_c, 1, 81, 71
3, 176640, Note_on_c, 1, 77, 71
3, 176828, Note_off_c, 1, 81, 64
3, 176828, Note_off_c, 1, 77, 64
3, 176832, Note_on_c, 1, 74, 71
3, 177020, Note_off_c, 1, 69, 64
3, 177020, Note_off_c, 1, 74, 64
3, 177024, Note_on_c, 1, 69, 71
3, 177024, Note_on_c, 1, 65, 71
3, 177212, Note_off_c, 1, 69, 64
3, 177212, Note_off_c, 1, 65, 64
3, 177216, Note_on_c, 1, 62, 71
3, 177404, Note_off_c, 1, 62, 64
3, 177408, Note_on_c, 1, 81, 71
3, 177408, Note_on_c, 1, 77, 71
3, 177596, Note_off_c, 1, 81, 64
3, 177596, Note_off_c, 1, 77, 64
3, 177600, Note_on_c, 1, 74, 71
3, 177788, Note_off_c, 1, 74, 64
3, 177792, Note_on_c, 1, 69, 71
3, 177792, Note_on_c, 1, 65, 71
3, 177980, Note_off_c, 1, 69, 64
3, 177980, Note_off_c, 1, 65, 64
3, 177984, Note_on_c, 1, 62, 71
3, 178172, Note_off_c, 1, 62, 64
3, 178176, Note_on_c, 1, 69, 71
3, 180092, Note_off_c, 1, 69, 64
3, 180672, Note_on_c, 1, 64, 97
3, 180708, Note_off_c, 1, 64, 64
3, 180712, Note_on_c, 1, 62, 92
3, 180764, Note_off_c, 1, 62, 64
3, 180768, Note_on_c, 1, 61, 92
3, 180860, Note_off_c, 1, 61, 64
3, 180864, Note_on_c, 1, 62, 92
3, 181052, Note_off_c, 1, 62, 64
3, 181056, Note_on_c, 1, 64, 92
3, 181244, Note_off_c, 1, 64, 64
3, 181248, Note_on_c, 1, 65, 92
3, 181628, Note_off_c, 1, 65, 64
3, 182976, Note_on_c, 1, 62, 71
3, 182976, Note_on_c, 1, 59, 71
3, 183164, Note_off_c, 1, 62, 64
3, 183164, Note_off_c, 1, 59, 64
3, 183168, Note_on_c, 1, 74, 71
3, 183168, Note_on_c, 1, 71, 71
3, 183356, Note_off_c, 1, 74, 64
3, 183356, Note_off_c, 1, 71, 64
3, 183360, Note_on_c, 1, 72, 71
3, 183360, Note_on_c, 1, 69, 71
3, 183536, Note_on_c, 1, 69, 71
3, 183548, Note_off_c, 1, 72, 64
3, 183548, Note_off_c, 1, 69, 64
3, 183552, Note_on_c, 1, 72, 71
3, 183724, Note_off_c, 1, 69, 64
3, 183740, Note_off_c, 1, 72, 64
3, 183744, Note_on_c, 1, 71, 71
3, 183744, Note_on_c, 1, 68, 71
3, 183932, Note_off_c, 1, 71, 64
3, 183932, Note_off_c, 1, 68, 64
3, 183936, Note_on_c, 1, 71, 71
3, 183936, Note_on_c, 1, 68, 71
3, 184124, Note_off_c, 1, 71, 64
3, 184124, Note_off_c, 1, 68, 64
3, 184128, Note_on_c, 1, 69, 71
3, 184128, Note_on_c, 1, 65, 71
3, 184316, Note_off_c, 1, 69, 64
3, 184316, Note_off_c, 1, 65, 64
3, 184320, Note_on_c, 1, 68, 71
3, 184320, Note_on_c, 1, 64, 71
3, 184700, Note_off_c, 1, 68, 64
3, 184700, Note_off_c, 1, 64, 64
3, 185280, Note_on_c, 1, 64, 97
3, 185316, Note_off_c, 1, 64, 64
3, 185320, Note_on_c, 1, 62, 92
3, 185372, Note_off_c, 1, 62, 64
3, 185376, Note_on_c, 1, 60, 92
3, 185468, Note_off_c, 1, 60, 64
3, 185472, Note_on_c, 1, 62, 92
3, 185660, Note_off_c, 1, 62, 64
3, 185664, Note_on_c, 1, 65, 92
3, 185852, Note_off_c, 1, 65, 64
3, 185856, Note_on_c, 1, 56, 92
3, 186236, Note_off_c, 1, 56, 64
3, 187584, Note_on_c, 1, 64, 92
3, 187776, Note_off_c, 1, 64, 64
3, 187776, Note_on_c, 1, 69, 92
3, 187960, Note_off_c, 1, 69, 64
3, 187968, Note_on_c, 1, 69, 76
3, 188068, Note_off_c, 1, 69, 64
3, 188160, Note_on_c, 1, 69, 76
3, 188260, Note_off_c, 1, 69, 64
3, 188352, Note_on_c, 1, 69, 76
3, 188452, Note_off_c, 1, 69, 64
3, 188544, Note_on_c, 1, 69, 76
3, 188644, Note_off_c, 1, 69, 64
3, 188736, Note_on_c, 1, 69, 76
3, 188836, Note_off_c, 1, 69, 64
3, 189120, Note_on_c, 1, 66, 92
3, 189312, Note_off_c, 1, 66, 64
3, 189312, Note_on_c, 1, 75, 92
3, 189496, Note_off_c, 1, 75, 64
3, 189504, Note_on_c, 1, 75, 76
3, 189604, Note_off_c, 1, 75, 64
3, 189696, Note_on_c, 1, 75, 76
3, 189796, Note_off_c, 1, 75, 64
3, 189888, Note_on_c, 1, 75, 76
3, 189988, Note_off_c, 1, 75, 64
3, 190080, Note_on_c, 1, 75, 76
3, 190180, Note_off_c, 1, 75, 64
3, 190272, Note_on_c, 1, 75, 76
3, 190372, Note_off_c, 1, 75, 64
3, 190464, Note_on_c, 1, 79, 71
3, 190464, Note_on_c, 1, 83, 71
3, 190656, Note_off_c, 1, 79, 64
3, 190656, Note_off_c, 1, 83, 64
3, 190656, Note_on_c, 1, 76, 71
3, 190840, Note_off_c, 1, 76, 64
3, 190848, Note_on_c, 1, 71, 71
3, 190848, Note_on_c, 1, 67, 71
3, 191040, Note_off_c, 1, 71, 64
3, 191040, Note_off_c, 1, 67, 64
3, 191040, Note_on_c, 1, 64, 71
3, 191224, Note_off_c, 1, 64, 64
3, 191232, Note_on_c, 1, 79, 71
3, 191232, Note_on_c, 1, 83, 71
3, 191424, Note_off_c, 1, 79, 64
3, 191424, Note_off_c, 1, 83, 64
3, 191424, Note_on_c, 1, 76, 71
3, 191608, Note_off_c, 1, 76, 64
3, 191616, Note_on_c, 1, 71, 71
3, 191616, Note_on_c, 1, 67, 71
3, 191808, Note_off_c, 1, 71, 64
3, 191808, Note_off_c, 1, 67, 64
3, 191808, Note_on_c, 1, 66, 71
3, 191992, Note_off_c, 1, 66, 64
3, 192000, Note_on_c, 1, 71, 71
3, 192384, Note_on_c, 1, 62, 71
3, 192572, Note_off_c, 1, 62, 64
3, 192576, Note_on_c, 1, 66, 71
3, 192764, Note_off_c, 1, 66, 64
3, 192768, Note_on_c, 1, 64, 71
3, 192956, Note_off_c, 1, 64, 64
3, 192960, Note_on_c, 1, 67, 71
3, 193148, Note_off_c, 1, 67, 64
3, 193152, Note_on_c, 1, 66, 71
3, 193340, Note_off_c, 1, 66, 64
3, 193344, Note_on_c, 1, 69, 71
3, 193532, Note_off_c, 1, 69, 64
3, 193536, Note_on_c, 1, 83, 92
3, 193536, Note_on_c, 1, 67, 92
3, 193724, Note_off_c, 1, 67, 64
3, 193916, Note_off_c, 1, 71, 64
3, 194300, Note_off_c, 1, 83, 64
3, 194304, Note_on_c, 1, 84, 92
3, 195068, Note_off_c, 1, 84, 64
3, 195072, Note_on_c, 1, 84, 102
3, 195124, Note_off_c, 1, 84, 64
3, 195128, Note_on_c, 1, 83, 92
3, 195256, Note_off_c, 1, 83, 64
3, 195264, Note_on_c, 1, 81, 92
3, 195356, Note_off_c, 1, 81, 64
3, 195360, Note_on_c, 1, 79, 92
3, 195452, Note_off_c, 1, 79, 64
3, 195456, Note_on_c, 1, 83, 102
3, 195508, Note_off_c, 1, 83, 64
3, 195512, Note_on_c, 1, 81, 92
3, 195640, Note_off_c, 1, 81, 64
3, 195648, Note_on_c, 1, 79, 92
3, 195740, Note_off_c, 1, 79, 64
3, 195744, Note_on_c, 1, 78, 92
3, 195836, Note_off_c, 1, 78, 64
3, 195840, Note_on_c, 1, 81, 102
3, 195892, Note_off_c, 1, 81, 64
3, 195896, Note_on_c, 1, 79, 92
3, 196024, Note_off_c, 1, 79, 64
3, 196032, Note_on_c, 1, 78, 92
3, 196124, Note_off_c, 1, 78, 64
3, 196128, Note_on_c, 1, 76, 92
3, 196220, Note_off_c, 1, 76, 64
3, 196224, Note_on_c, 1, 79, 102
3, 196276, Note_off_c, 1, 79, 64
3, 196280, Note_on_c, 1, 78, 92
3, 196408, Note_off_c, 1, 78, 64
3, 196416, Note_on_c, 1, 76, 92
3, 196508, Note_off_c, 1, 76, 64
3, 196512, Note_on_c, 1, 75, 92
3, 196604, Note_off_c, 1, 75, 64
3, 196608, Note_on_c, 1, 76, 102
3, 196796, Note_off_c, 1, 76, 64
3, 196800, Note_on_c, 1, 64, 102
3, 196992, Note_off_c, 1, 64, 64
3, 196992, Note_on_c, 1, 76, 102
3, 197176, Note_off_c, 1, 76, 64
3, 197184, Note_on_c, 1, 76, 92
3, 197284, Note_off_c, 1, 76, 64
3, 197376, Note_on_c, 1, 76, 92
3, 197476, Note_off_c, 1, 76, 64
3, 197568, Note_on_c, 1, 76, 92
3, 197668, Note_off_c, 1, 76, 64
3, 197760, Note_on_c, 1, 76, 92
3, 197860, Note_off_c, 1, 76, 64
3, 197952, Note_on_c, 1, 76, 92
3, 198052, Note_off_c, 1, 76, 64
3, 198336, Note_on_c, 1, 64, 102
3, 198528, Note_off_c, 1, 64, 64
3, 198528, Note_on_c, 1, 73, 102
3, 198712, Note_off_c, 1, 73, 64
3, 198720, Note_on_c, 1, 73, 92
3, 198820, Note_off_c, 1, 73, 64
3, 198912, Note_on_c, 1, 73, 92
3, 199012, Note_off_c, 1, 73, 64
3, 199104, Note_on_c, 1, 73, 92
3, 199204, Note_off_c, 1, 73, 64
3, 199296, Note_on_c, 1, 73, 92
3, 199396, Note_off_c, 1, 73, 64
3, 199488, Note_on_c, 1, 73, 92
3, 199588, Note_off_c, 1, 73, 64
3, 199680, Note_on_c, 1, 81, 71
3, 199680, Note_on_c, 1, 77, 71
3, 199872, Note_off_c, 1, 81, 64
3, 199872, Note_off_c, 1, 77, 64
3, 199872, Note_on_c, 1, 74, 71
3, 200056, Note_off_c, 1, 74, 64
3, 200064, Note_on_c, 1, 69, 71
3, 200064, Note_on_c, 1, 65, 71
3, 200256, Note_off_c, 1, 69, 64
3, 200256, Note_off_c, 1, 65, 64
3, 200256, Note_on_c, 1, 62, 71
3, 200440, Note_off_c, 1, 62, 64
3, 200448, Note_on_c, 1, 81, 71
3, 200448, Note_on_c, 1, 77, 71
3, 200640, Note_off_c, 1, 81, 64
3, 200640, Note_off_c, 1, 77, 64
3, 200640, Note_on_c, 1, 74, 71
3, 200824, Note_off_c, 1, 74, 64
3, 200832, Note_on_c, 1, 69, 71
3, 200832, Note_on_c, 1, 65, 71
3, 201024, Note_off_c, 1, 69, 64
3, 201024, Note_off_c, 1, 65, 64
3, 201024, Note_on_c, 1, 62, 71
3, 201208, Note_off_c, 1, 62, 64
3, 201216, Note_on_c, 1, 69, 71
3, 202752, Note_on_c, 1, 81, 92
3, 203132, Note_off_c, 1, 69, 64
3, 203516, Note_off_c, 1, 81, 64
3, 203520, Note_on_c, 1, 82, 92
3, 204284, Note_off_c, 1, 82, 64
3, 204288, Note_on_c, 1, 82, 102
3, 204340, Note_off_c, 1, 82, 64
3, 204344, Note_on_c, 1, 81, 92
3, 204472, Note_off_c, 1, 81, 64
3, 204480, Note_on_c, 1, 79, 92
3, 204572, Note_off_c, 1, 79, 64
3, 204576, Note_on_c, 1, 77, 92
3, 204668, Note_off_c, 1, 77, 64
3, 204672, Note_on_c, 1, 81, 102
3, 204724, Note_off_c, 1, 81, 64
3, 204728, Note_on_c, 1, 79, 92
3, 204856, Note_off_c, 1, 79, 64
3, 204864, Note_on_c, 1, 77, 92
3, 204956, Note_off_c, 1, 77, 64
3, 204960, Note_on_c, 1, 76, 92
3, 205052, Note_off_c, 1, 76, 64
3, 205056, Note_on_c, 1, 79, 102
3, 205108, Note_off_c, 1, 79, 64
3, 205112, Note_on_c, 1, 77, 92
3, 205240, Note_off_c, 1, 77, 64
3, 205248, Note_on_c, 1, 76, 92
3, 205340, Note_off_c, 1, 76, 64
3, 205344, Note_on_c, 1, 74, 92
3, 205436, Note_off_c, 1, 74, 64
3, 205440, Note_on_c, 1, 77, 102
3, 205492, Note_off_c, 1, 77, 64
3, 205496, Note_on_c, 1, 76, 92
3, 205624, Note_off_c, 1, 76, 64
3, 205632, Note_on_c, 1, 74, 92
3, 205724, Note_off_c, 1, 74, 64
3, 205728, Note_on_c, 1, 73, 92
3, 205820, Note_off_c, 1, 73, 64
3, 205824, Note_on_c, 1, 74, 102
3, 206012, Note_off_c, 1, 74, 64
3, 206016, Note_on_c, 1, 62, 102
3, 206208, Note_off_c, 1, 62, 64
3, 206208, Note_on_c, 1, 74, 102
3, 206392, Note_off_c, 1, 74, 64
3, 206400, Note_on_c, 1, 74, 92
3, 206500, Note_off_c, 1, 74, 64
3, 206592, Note_on_c, 1, 74, 92
3, 206692, Note_off_c, 1, 74, 64
3, 206784, Note_on_c, 1, 74, 92
3, 206884, Note_off_c, 1, 74, 64
3, 206976, Note_on_c, 1, 74, 92
3, 207076, Note_off_c, 1, 74, 64
3, 207168, Note_on_c, 1, 74, 92
3, 207268, Note_off_c, 1, 74, 64
3, 207552, Note_on_c, 1, 62, 102
3, 207744, Note_off_c, 1, 62, 64
3, 207744, Note_on_c, 1, 71, 102
3, 207928, Note_off_c, 1, 71, 64
3, 207936, Note_on_c, 1, 71, 92
3, 208036, Note_off_c, 1, 71, 64
3, 208128, Note_on_c, 1, 71, 92
3, 208228, Note_off_c, 1, 71, 64
3, 208320, Note_on_c, 1, 71, 92
3, 208420, Note_off_c, 1, 71, 64
3, 208512, Note_on_c, 1, 71, 92
3, 208612, Note_off_c, 1, 71, 64
3, 208704, Note_on_c, 1, 71, 92
3, 208804, Note_off_c, 1, 71, 64
3, 208896, Note_on_c, 1, 72, 71
3, 209084, Note_off_c, 1, 72, 64
3, 209088, Note_on_c, 1, 67, 71
3, 209088, Note_on_c, 1, 64, 71
3, 209088, Note_on_c, 1, 60, 71
3, 209188, Note_off_c, 1, 67, 64
3, 209188, Note_off_c, 1, 64, 64
3, 209188, Note_off_c, 1, 60, 64
3, 209264, Note_on_c, 1, 67, 71
3, 209264, Note_on_c, 1, 64, 71
3, 209264, Note_on_c, 1, 60, 71
3, 209364, Note_off_c, 1, 67, 64
3, 209364, Note_off_c, 1, 64, 64
3, 209364, Note_off_c, 1, 60, 64
3, 209472, Note_on_c, 1, 67, 71
3, 209472, Note_on_c, 1, 64, 71
3, 209472, Note_on_c, 1, 60, 71
3, 209572, Note_off_c, 1, 67, 64
3, 209572, Note_off_c, 1, 64, 64
3, 209572, Note_off_c, 1, 60, 64
3, 209856, Note_on_c, 1, 69, 71
3, 209856, Note_on_c, 1, 62, 71
3, 209856, Note_on_c, 1, 59, 71
3, 209956, Note_off_c, 1, 69, 64
3, 209956, Note_off_c, 1, 62, 64
3, 209956, Note_off_c, 1, 59, 64
3, 210048, Note_on_c, 1, 69, 71
3, 210048, Note_on_c, 1, 62, 71
3, 210048, Note_on_c, 1, 59, 71
3, 210148, Note_off_c, 1, 69, 64
3, 210148, Note_off_c, 1, 62, 64
3, 210148, Note_off_c, 1, 59, 64
3, 210240, Note_on_c, 1, 69, 71
3, 210240, Note_on_c, 1, 62, 71
3, 210240, Note_on_c, 1, 59, 71
3, 210340, Note_off_c, 1, 69, 64
3, 210340, Note_off_c, 1, 62, 64
3, 210340, Note_off_c, 1, 59, 64
3, 210432, Note_on_c, 1, 67, 71
3, 210432, Note_on_c, 1, 64, 71
3, 210432, Note_on_c, 1, 60, 71
3, 210532, Note_off_c, 1, 67, 64
3, 210532, Note_off_c, 1, 64, 64
3, 210532, Note_off_c, 1, 60, 64
3, 210816, Note_on_c, 1, 74, 71
3, 210816, Note_on_c, 1, 69, 71
3, 210816, Note_on_c, 1, 65, 71
3, 210916, Note_off_c, 1, 74, 64
3, 210916, Note_off_c, 1, 69, 64
3, 210916, Note_off_c, 1, 65, 64
3, 211200, Note_on_c, 1, 72, 71
3, 211200, Note_on_c, 1, 67, 71
3, 211200, Note_on_c, 1, 64, 71
3, 211300, Note_off_c, 1, 72, 64
3, 211300, Note_off_c, 1, 67, 64
3, 211300, Note_off_c, 1, 64, 64
3, 211584, Note_on_c, 1, 71, 71
3, 211584, Note_on_c, 1, 65, 71
3, 211584, Note_on_c, 1, 62, 71
3, 211684, Note_off_c, 1, 71, 64
3, 211684, Note_off_c, 1, 65, 64
3, 211684, Note_off_c, 1, 62, 64
3, 211968, Note_on_c, 1, 72, 71
3, 211968, Note_on_c, 1, 64, 71
3, 211968, Note_on_c, 1, 60, 71
3, 212156, Note_off_c, 1, 72, 64
3, 212156, Note_off_c, 1, 64, 64
3, 212156, Note_off_c, 1, 60, 64
3, 212160, Note_on_c, 1, 67, 71
3, 212160, Note_on_c, 1, 64, 71
3, 212348, Note_off_c, 1, 67, 64
3, 212348, Note_off_c, 1, 64, 64
3, 212352, Note_on_c, 1, 67, 71
3, 212352, Note_on_c, 1, 64, 71
3, 212540, Note_off_c, 1, 67, 64
3, 212540, Note_off_c, 1, 64, 64
3, 212544, Note_on_c, 1, 67, 71
3, 212544, Note_on_c, 1, 64, 71
3, 212732, Note_off_c, 1, 67, 64
3, 212732, Note_off_c, 1, 64, 64
3, 212736, Note_on_c, 1, 67, 71
3, 212736, Note_on_c, 1, 64, 71
3, 212924, Note_off_c, 1, 67, 64
3, 212924, Note_off_c, 1, 64, 64
3, 212928, Note_on_c, 1, 67, 71
3, 212928, Note_on_c, 1, 64, 71
3, 213116, Note_off_c, 1, 67, 64
3, 213116, Note_off_c, 1, 64, 64
3, 213120, Note_on_c, 1, 67, 71
3, 213120, Note_on_c, 1, 64, 71
3, 213308, Note_off_c, 1, 67, 64
3, 213308, Note_off_c, 1, 64, 64
3, 213312, Note_on_c, 1, 67, 71
3, 213312, Note_on_c, 1, 64, 71
3, 213500, Note_off_c, 1, 67, 64
3, 213500, Note_off_c, 1, 64, 64
3, 213696, Note_on_c, 1, 67, 71
3, 213696, Note_on_c, 1, 62, 71
3, 213884, Note_off_c, 1, 67, 64
3, 213884, Note_off_c, 1, 62, 64
3, 213888, Note_on_c, 1, 67, 71
3, 213888, Note_on_c, 1, 62, 71
3, 214076, Note_off_c, 1, 67, 64
3, 214076, Note_off_c, 1, 62, 64
3, 214080, Note_on_c, 1, 67, 71
3, 214080, Note_on_c, 1, 62, 71
3, 214268, Note_off_c, 1, 67, 64
3, 214268, Note_off_c, 1, 62, 64
3, 214272, Note_on_c, 1, 67, 71
3, 214272, Note_on_c, 1, 62, 71
3, 214460, Note_off_c, 1, 67, 64
3, 214460, Note_off_c, 1, 62, 64
3, 214464, Note_on_c, 1, 67, 71
3, 214464, Note_on_c, 1, 62, 71
3, 214652, Note_off_c, 1, 67, 64
3, 214652, Note_off_c, 1, 62, 64
3, 214656, Note_on_c, 1, 67, 71
3, 214656, Note_on_c, 1, 62, 71
3, 214844, Note_off_c, 1, 67, 64
3, 214844, Note_off_c, 1, 62, 64
3, 214848, Note_on_c, 1, 67, 71
3, 214848, Note_on_c, 1, 62, 71
3, 215036, Note_off_c, 1, 67, 64
3, 215036, Note_off_c, 1, 62, 64
3, 215232, Note_on_c, 1, 67, 71
3, 215232, Note_on_c, 1, 64, 71
3, 215420, Note_off_c, 1, 67, 64
3, 215420, Note_off_c, 1, 64, 64
3, 215424, Note_on_c, 1, 67, 71
3, 215424, Note_on_c, 1, 64, 71
3, 215612, Note_off_c, 1, 67, 64
3, 215612, Note_off_c, 1, 64, 64
3, 215616, Note_on_c, 1, 67, 71
3, 215616, Note_on_c, 1, 64, 71
3, 215804, Note_off_c, 1, 67, 64
3, 215804, Note_off_c, 1, 64, 64
3, 215808, Note_on_c, 1, 66, 71
3, 215808, Note_on_c, 1, 62, 71
3, 215996, Note_off_c, 1, 66, 64
3, 215996, Note_off_c, 1, 62, 64
3, 216000, Note_on_c, 1, 66, 71
3, 216000, Note_on_c, 1, 62, 71
3, 216188, Note_off_c, 1, 66, 64
3, 216188, Note_off_c, 1, 62, 64
3, 216192, Note_on_c, 1, 66, 71
3, 216192, Note_on_c, 1, 62, 71
3, 216380, Note_off_c, 1, 66, 64
3, 216380, Note_off_c, 1, 62, 64
3, 216384, Note_on_c, 1, 66, 71
3, 216384, Note_on_c, 1, 62, 71
3, 216572, Note_off_c, 1, 66, 64
3, 216572, Note_off_c, 1, 62, 64
3, 216768, Note_on_c, 1, 62, 71
3, 216768, Note_on_c, 1, 67, 71
3, 216956, Note_off_c, 1, 62, 64
3, 216956, Note_off_c, 1, 67, 64
3, 216960, Note_on_c, 1, 67, 71
3, 216960, Note_on_c, 1, 62, 71
3, 217148, Note_off_c, 1, 67, 64
3, 217148, Note_off_c, 1, 62, 64
3, 217152, Note_on_c, 1, 67, 71
3, 217152, Note_on_c, 1, 62, 71
3, 217328, Note_on_c, 1, 62, 71
3, 217340, Note_off_c, 1, 67, 64
3, 217340, Note_off_c, 1, 62, 64
3, 217344, Note_on_c, 1, 67, 71
3, 217516, Note_off_c, 1, 62, 64
3, 217532, Note_off_c, 1, 67, 64
3, 217536, Note_on_c, 1, 67, 71
3, 217536, Note_on_c, 1, 62, 71
3, 217724, Note_off_c, 1, 67, 64
3, 217724, Note_off_c, 1, 62, 64
3, 217728, Note_on_c, 1, 67, 71
3, 217728, Note_on_c, 1, 62, 71
3, 217916, Note_off_c, 1, 67, 64
3, 217916, Note_off_c, 1, 62, 64
3, 217920, Note_on_c, 1, 67, 71
3, 217920, Note_on_c, 1, 62, 71
3, 218108, Note_off_c, 1, 67, 64
3, 218108, Note_off_c, 1, 62, 64
3, 218304, Note_on_c, 1, 67, 71
3, 218304, Note_on_c, 1, 64, 71
3, 218492, Note_off_c, 1, 67, 64
3, 218492, Note_off_c, 1, 64, 64
3, 218496, Note_on_c, 1, 67, 71
3, 218496, Note_on_c, 1, 64, 71
3, 218684, Note_off_c, 1, 67, 64
3, 218684, Note_off_c, 1, 64, 64
3, 218688, Note_on_c, 1, 67, 71
3, 218688, Note_on_c, 1, 64, 71
3, 218876, Note_off_c, 1, 67, 64
3, 218876, Note_off_c, 1, 64, 64
3, 218880, Note_on_c, 1, 67, 71
3, 218880, Note_on_c, 1, 64, 71
3, 219068, Note_off_c, 1, 67, 64
3, 219068, Note_off_c, 1, 64, 64
3, 219072, Note_on_c, 1, 67, 71
3, 219072, Note_on_c, 1, 64, 71
3, 219260, Note_off_c, 1, 67, 64
3, 219260, Note_off_c, 1, 64, 64
3, 219264, Note_on_c, 1, 67, 71
3, 219264, Note_on_c, 1, 64, 71
3, 219452, Note_off_c, 1, 67, 64
3, 219452, Note_off_c, 1, 64, 64
3, 219456, Note_on_c, 1, 67, 71
3, 219456, Note_on_c, 1, 64, 71
3, 219644, Note_off_c, 1, 67, 64
3, 219644, Note_off_c, 1, 64, 64
3, 219840, Note_on_c, 1, 67, 71
3, 219840, Note_on_c, 1, 62, 71
3, 220016, Note_on_c, 1, 62, 71
3, 220028, Note_off_c, 1, 67, 64
3, 220028, Note_off_c, 1, 62, 64
3, 220032, Note_on_c, 1, 67, 71
3, 220204, Note_off_c, 1, 62, 64
3, 220208, Note_on_c, 1, 62, 71
3, 220220, Note_off_c, 1, 67, 64
3, 220224, Note_on_c, 1, 67, 71
3, 220396, Note_off_c, 1, 62, 64
3, 220412, Note_off_c, 1, 67, 64
3, 220416, Note_on_c, 1, 67, 71
3, 220416, Note_on_c, 1, 62, 71
3, 220604, Note_off_c, 1, 67, 64
3, 220604, Note_off_c, 1, 62, 64
3, 220608, Note_on_c, 1, 67, 71
3, 220608, Note_on_c, 1, 62, 71
3, 220796, Note_off_c, 1, 67, 64
3, 220796, Note_off_c, 1, 62, 64
3, 220800, Note_on_c, 1, 67, 71
3, 220800, Note_on_c, 1, 62, 71
3, 220988, Note_off_c, 1, 67, 64
3, 220988, Note_off_c, 1, 62, 64
3, 220992, Note_on_c, 1, 67, 71
3, 220992, Note_on_c, 1, 62, 71
3, 221180, Note_off_c, 1, 67, 64
3, 221180, Note_off_c, 1, 62, 64
3, 221376, Note_on_c, 1, 67, 71
3, 221376, Note_on_c, 1, 64, 71
3, 221564, Note_off_c, 1, 67, 64
3, 221564, Note_off_c, 1, 64, 64
3, 221568, Note_on_c, 1, 67, 71
3, 221568, Note_on_c, 1, 60, 71
3, 221756, Note_off_c, 1, 67, 64
3, 221756, Note_off_c, 1, 60, 64
3, 221760, Note_on_c, 1, 67, 71
3, 221760, Note_on_c, 1, 60, 71
3, 221948, Note_off_c, 1, 67, 64
3, 221948, Note_off_c, 1, 60, 64
3, 221952, Note_on_c, 1, 60, 71
3, 221952, Note_on_c, 1, 66, 71
3, 222140, Note_off_c, 1, 60, 64
3, 222140, Note_off_c, 1, 66, 64
3, 222144, Note_on_c, 1, 66, 71
3, 222144, Note_on_c, 1, 60, 71
3, 222320, Note_on_c, 1, 60, 71
3, 222332, Note_off_c, 1, 66, 64
3, 222332, Note_off_c, 1, 60, 64
3, 222336, Note_on_c, 1, 66, 71
3, 222508, Note_off_c, 1, 60, 64
3, 222524, Note_off_c, 1, 66, 64
3, 222528, Note_on_c, 1, 66, 71
3, 222528, Note_on_c, 1, 60, 71
3, 222716, Note_off_c, 1, 66, 64
3, 222716, Note_off_c, 1, 60, 64
3, 222720, Note_on_c, 1, 59, 71
3, 222720, Note_on_c, 1, 59, 71
3, 222820, Note_off_c, 1, 59, 64
3, 222908, Note_off_c, 1, 59, 64
3, 222912, Note_on_c, 1, 59, 71
3, 222912, Note_on_c, 1, 67, 71
3, 223100, Note_off_c, 1, 59, 64
3, 223100, Note_off_c, 1, 67, 64
3, 223104, Note_on_c, 1, 71, 71
3, 223104, Note_on_c, 1, 62, 71
3, 223292, Note_off_c, 1, 71, 64
3, 223292, Note_off_c, 1, 62, 64
3, 223296, Note_on_c, 1, 74, 71
3, 223296, Note_on_c, 1, 67, 71
3, 223484, Note_off_c, 1, 74, 64
3, 223484, Note_off_c, 1, 67, 64
3, 223488, Note_on_c, 1, 74, 71
3, 223488, Note_on_c, 1, 69, 71
3, 223676, Note_off_c, 1, 74, 64
3, 223676, Note_off_c, 1, 69, 64
3, 223680, Note_on_c, 1, 74, 71
3, 223680, Note_on_c, 1, 69, 71
3, 223868, Note_off_c, 1, 74, 64
3, 223868, Note_off_c, 1, 69, 64
3, 223872, Note_on_c, 1, 74, 71
3, 223872, Note_on_c, 1, 69, 71
3, 224060, Note_off_c, 1, 74, 64
3, 224060, Note_off_c, 1, 69, 64
3, 224064, Note_on_c, 1, 74, 71
3, 224064, Note_on_c, 1, 69, 71
3, 224252, Note_off_c, 1, 74, 64
3, 224252, Note_off_c, 1, 69, 64
3, 224256, Note_on_c, 1, 74, 71
3, 224256, Note_on_c, 1, 71, 71
3, 224356, Note_off_c, 1, 74, 64
3, 224356, Note_off_c, 1, 71, 64
3, 224448, Note_on_c, 1, 71, 71
3, 224448, Note_on_c, 1, 74, 71
3, 224488, Note_off_c, 1, 74, 64
3, 224496, Note_on_c, 1, 76, 71
3, 224536, Note_off_c, 1, 76, 64
3, 224544, Note_on_c, 1, 72, 71
3, 224584, Note_off_c, 1, 72, 64
3, 224592, Note_on_c, 1, 74, 71
3, 224632, Note_off_c, 1, 74, 64
3, 224636, Note_off_c, 1, 71, 64
3, 224640, Note_on_c, 1, 76, 71
3, 224640, Note_on_c, 1, 71, 71
3, 224828, Note_off_c, 1, 76, 64
3, 224828, Note_off_c, 1, 71, 64
3, 224832, Note_on_c, 1, 71, 71
3, 225020, Note_off_c, 1, 71, 64
3, 225024, Note_on_c, 1, 73, 71
3, 225024, Note_on_c, 1, 69, 71
3, 225212, Note_off_c, 1, 73, 64
3, 225212, Note_off_c, 1, 69, 64
3, 225216, Note_on_c, 1, 73, 71
3, 225216, Note_on_c, 1, 69, 71
3, 225404, Note_off_c, 1, 73, 64
3, 225404, Note_off_c, 1, 69, 64
3, 225408, Note_on_c, 1, 73, 71
3, 225408, Note_on_c, 1, 69, 71
3, 225596, Note_off_c, 1, 73, 64
3, 225596, Note_off_c, 1, 69, 64
3, 225600, Note_on_c, 1, 73, 71
3, 225600, Note_on_c, 1, 69, 71
3, 225788, Note_off_c, 1, 73, 64
3, 225788, Note_off_c, 1, 69, 64
3, 225792, Note_on_c, 1, 74, 71
3, 225792, Note_on_c, 1, 69, 71
3, 225980, Note_off_c, 1, 74, 64
3, 225980, Note_off_c, 1, 69, 64
3, 225984, Note_on_c, 1, 78, 71
3, 225984, Note_on_c, 1, 81, 71
3, 225984, Note_on_c, 1, 69, 71
3, 225984, Note_on_c, 1, 66, 71
3, 225984, Note_on_c, 1, 62, 71
3, 226084, Note_off_c, 1, 69, 64
3, 226084, Note_off_c, 1, 66, 64
3, 226084, Note_off_c, 1, 62, 64
3, 226176, Note_on_c, 1, 69, 71
3, 226176, Note_on_c, 1, 66, 71
3, 226176, Note_on_c, 1, 62, 71
3, 226276, Note_off_c, 1, 69, 64
3, 226276, Note_off_c, 1, 66, 64
3, 226276, Note_off_c, 1, 62, 64
3, 226364, Note_off_c, 1, 78, 64
3, 226364, Note_off_c, 1, 81, 64
3, 226368, Note_on_c, 1, 78, 71
3, 226368, Note_on_c, 1, 74, 71
3, 226368, Note_on_c, 1, 69, 71
3, 226368, Note_on_c, 1, 66, 71
3, 226368, Note_on_c, 1, 62, 71
3, 226468, Note_off_c, 1, 69, 64
3, 226468, Note_off_c, 1, 66, 64
3, 226468, Note_off_c, 1, 62, 64
3, 226556, Note_off_c, 1, 78, 64
3, 226556, Note_off_c, 1, 74, 64
3, 226560, Note_on_c, 1, 81, 71
3, 226560, Note_on_c, 1, 78, 71
3, 226560, Note_on_c, 1, 69, 71
3, 226560, Note_on_c, 1, 66, 71
3, 226560, Note_on_c, 1, 62, 71
3, 226748, Note_off_c, 1, 81, 64
3, 226748, Note_off_c, 1, 78, 64
3, 226748, Note_off_c, 1, 69, 64
3, 226748, Note_off_c, 1, 66, 64
3, 226748, Note_off_c, 1, 62, 64
3, 227520, Note_on_c, 1, 79, 71
3, 227520, Note_on_c, 1, 76, 71
3, 227900, Note_off_c, 1, 79, 64
3, 227900, Note_off_c, 1, 76, 64
3, 227904, Note_on_c, 1, 76, 71
3, 227904, Note_on_c, 1, 73, 71
3, 228092, Note_off_c, 1, 76, 64
3, 228092, Note_off_c, 1, 73, 64
3, 228096, Note_on_c, 1, 79, 71
3, 228096, Note_on_c, 1, 76, 71
3, 228284, Note_off_c, 1, 79, 64
3, 228284, Note_off_c, 1, 76, 64
3, 229152, Note_on_c, 1, 69, 92
3, 229152, Note_on_c, 1, 66, 92
3, 229152, Note_on_c, 1, 62, 92
3, 229200, Note_off_c, 1, 69, 64
3, 229200, Note_off_c, 1, 66, 64
3, 229200, Note_off_c, 1, 62, 64
3, 229248, Note_on_c, 1, 69, 92
3, 229248, Note_on_c, 1, 66, 92
3, 229248, Note_on_c, 1, 62, 92
3, 229392, Note_off_c, 1, 69, 64
3, 229392, Note_off_c, 1, 66, 64
3, 229392, Note_off_c, 1, 62, 64
3, 229536, Note_on_c, 1, 69, 92
3, 229536, Note_on_c, 1, 66, 92
3, 229536, Note_on_c, 1, 62, 92
3, 229584, Note_off_c, 1, 69, 64
3, 229584, Note_off_c, 1, 66, 64
3, 229584, Note_off_c, 1, 62, 64
3, 229632, Note_on_c, 1, 69, 92
3, 229632, Note_on_c, 1, 66, 92
3, 229632, Note_on_c, 1, 62, 92
3, 229820, Note_off_c, 1, 69, 64
3, 229820, Note_off_c, 1, 66, 64
3, 229820, Note_off_c, 1, 62, 64
3, 231072, Note_on_c, 1, 73, 92
3, 231072, Note_on_c, 1, 67, 92
3, 231120, Note_off_c, 1, 73, 64
3, 231120, Note_off_c, 1, 67, 64
3, 231168, Note_on_c, 1, 73, 92
3, 231168, Note_on_c, 1, 67, 92
3, 231312, Note_off_c, 1, 73, 64
3, 231312, Note_off_c, 1, 67, 64
3, 231456, Note_on_c, 1, 76, 92
3, 231456, Note_on_c, 1, 73, 92
3, 231456, Note_on_c, 1, 67, 92
3, 231504, Note_off_c, 1, 76, 64
3, 231504, Note_off_c, 1, 73, 64
3, 231504, Note_off_c, 1, 67, 64
3, 231552, Note_on_c, 1, 76, 92
3, 231552, Note_on_c, 1, 73, 92
3, 231552, Note_on_c, 1, 67, 92
3, 231836, Note_off_c, 1, 76, 64
3, 231836, Note_off_c, 1, 73, 64
3, 231836, Note_off_c, 1, 67, 64
3, 231840, Note_on_c, 1, 79, 92
3, 231840, Note_on_c, 1, 73, 92
3, 231840, Note_on_c, 1, 67, 92
3, 231888, Note_off_c, 1, 79, 64
3, 231888, Note_off_c, 1, 73, 64
3, 231888, Note_off_c, 1, 67, 64
3, 231936, Note_on_c, 1, 79, 97
3, 231936, Note_on_c, 1, 73, 97
3, 231936, Note_on_c, 1, 67, 97
3, 232124, Note_off_c, 1, 79, 64
3, 232124, Note_off_c, 1, 73, 64
3, 232124, Note_off_c, 1, 67, 64
3, 254976, Note_on_c, 1, 67, 71
3, 254976, Note_on_c, 1, 62, 71
3, 254976, Note_on_c, 1, 59, 71
3, 255356, Note_off_c, 1, 67, 64
3, 255356, Note_off_c, 1, 62, 64
3, 255356, Note_off_c, 1, 59, 64
3, 255456, Note_on_c, 1, 62, 71
3, 255548, Note_off_c, 1, 62, 64
3, 255552, Note_on_c, 1, 71, 71
3, 255644, Note_off_c, 1, 71, 64
3, 255648, Note_on_c, 1, 74, 71
3, 255740, Note_off_c, 1, 74, 64
3, 255744, Note_on_c, 1, 74, 71
3, 255836, Note_off_c, 1, 74, 64
3, 255840, Note_on_c, 1, 72, 71
3, 255932, Note_off_c, 1, 72, 64
3, 255936, Note_on_c, 1, 71, 71
3, 256028, Note_off_c, 1, 71, 64
3, 256032, Note_on_c, 1, 69, 71
3, 256124, Note_off_c, 1, 69, 64
3, 256128, Note_on_c, 1, 79, 71
3, 256220, Note_off_c, 1, 79, 64
3, 256224, Note_on_c, 1, 78, 71
3, 256316, Note_off_c, 1, 78, 64
3, 256320, Note_on_c, 1, 76, 71
3, 256412, Note_off_c, 1, 76, 64
3, 256416, Note_on_c, 1, 78, 71
3, 256508, Note_off_c, 1, 78, 64
3, 256512, Note_on_c, 1, 79, 71
3, 256700, Note_off_c, 1, 79, 64
3, 256704, Note_on_c, 1, 83, 71
3, 256892, Note_off_c, 1, 83, 64
3, 256992, Note_on_c, 1, 62, 71
3, 257084, Note_off_c, 1, 62, 64
3, 257088, Note_on_c, 1, 71, 71
3, 257180, Note_off_c, 1, 71, 64
3, 257184, Note_on_c, 1, 74, 71
3, 257276, Note_off_c, 1, 74, 64
3, 257280, Note_on_c, 1, 74, 71
3, 257372, Note_off_c, 1, 74, 64
3, 257376, Note_on_c, 1, 72, 71
3, 257468, Note_off_c, 1, 72, 64
3, 257472, Note_on_c, 1, 71, 71
3, 257564, Note_off_c, 1, 71, 64
3, 257568, Note_on_c, 1, 69, 71
3, 257660, Note_off_c, 1, 69, 64
3, 257664, Note_on_c, 1, 79, 71
3, 257756, Note_off_c, 1, 79, 64
3, 257760, Note_on_c, 1, 78, 71
3, 257852, Note_off_c, 1, 78, 64
3, 257856, Note_on_c, 1, 76, 71
3, 257948, Note_off_c, 1, 76, 64
3, 257952, Note_on_c, 1, 78, 71
3, 258044, Note_off_c, 1, 78, 64
3, 258048, Note_on_c, 1, 79, 92
3, 258428, Note_off_c, 1, 79, 64
3, 258624, Note_on_c, 1, 71, 92
3, 258624, Note_on_c, 1, 62, 92
3, 258812, Note_off_c, 1, 71, 64
3, 258812, Note_off_c, 1, 62, 64
3, 258816, Note_on_c, 1, 72, 92
3, 258816, Note_on_c, 1, 64, 92
3, 259196, Note_off_c, 1, 72, 64
3, 259196, Note_off_c, 1, 64, 64
3, 259392, Note_on_c, 1, 72, 92
3, 259392, Note_on_c, 1, 64, 92
3, 259580, Note_off_c, 1, 72, 64
3, 259580, Note_off_c, 1, 64, 64
3, 259584, Note_on_c, 1, 74, 92
3, 259584, Note_on_c, 1, 62, 92
3, 259964, Note_off_c, 1, 74, 64
3, 259964, Note_off_c, 1, 62, 64
3, 260160, Note_on_c, 1, 83, 92
3, 260160, Note_on_c, 1, 74, 92
3, 260160, Note_on_c, 1, 62, 92
3, 260348, Note_off_c, 1, 83, 64
3, 260348, Note_off_c, 1, 74, 64
3, 260348, Note_off_c, 1, 62, 64
3, 260352, Note_on_c, 1, 81, 92
3, 260352, Note_on_c, 1, 74, 92
3, 260352, Note_on_c, 1, 62, 92
3, 260732, Note_off_c, 1, 81, 64
3, 260732, Note_off_c, 1, 74, 64
3, 260732, Note_off_c, 1, 62, 64
3, 260928, Note_on_c, 1, 81, 92
3, 260928, Note_on_c, 1, 74, 92
3, 260928, Note_on_c, 1, 62, 92
3, 261116, Note_off_c, 1, 81, 64
3, 261116, Note_off_c, 1, 74, 64
3, 261116, Note_off_c, 1, 62, 64
3, 261120, Note_on_c, 1, 79, 92
3, 261120, Note_on_c, 1, 74, 92
3, 261120, Note_on_c, 1, 62, 92
3, 261500, Note_off_c, 1, 79, 64
3, 261500, Note_off_c, 1, 74, 64
3, 261500, Note_off_c, 1, 62, 64
3, 262256, Note_on_c, 1, 64, 92
3, 262256, Note_on_c, 1, 61, 92
3, 262272, Note_on_c, 1, 79, 92
3, 262272, Note_on_c, 1, 69, 92
3, 262636, Note_off_c, 1, 64, 64
3, 262636, Note_off_c, 1, 61, 64
3, 262652, Note_off_c, 1, 79, 64
3, 262652, Note_off_c, 1, 69, 64
3, 262656, Note_on_c, 1, 78, 92
3, 262656, Note_on_c, 1, 74, 92
3, 262656, Note_on_c, 1, 62, 92
3, 262844, Note_off_c, 1, 78, 64
3, 262844, Note_off_c, 1, 74, 64
3, 262848, Note_on_c, 1, 78, 92
3, 262848, Note_on_c, 1, 74, 92
3, 262940, Note_off_c, 1, 78, 64
3, 262940, Note_off_c, 1, 74, 64
3, 262944, Note_on_c, 1, 76, 92
3, 262944, Note_on_c, 1, 72, 92
3, 263036, Note_off_c, 1, 62, 64
3, 263036, Note_off_c, 1, 76, 64
3, 263036, Note_off_c, 1, 72, 64
3, 263040, Note_on_c, 1, 78, 92
3, 263040, Note_on_c, 1, 74, 92
3, 263228, Note_off_c, 1, 78, 64
3, 263228, Note_off_c, 1, 74, 64
3, 263232, Note_on_c, 1, 79, 92
3, 263232, Note_on_c, 1, 76, 92
3, 263420, Note_off_c, 1, 79, 64
3, 263420, Note_off_c, 1, 76, 64
3, 263424, Note_on_c, 1, 62, 92
3, 263616, Note_on_c, 1, 81, 92
3, 263616, Note_on_c, 1, 78, 92
3, 263708, Note_off_c, 1, 81, 64
3, 263708, Note_off_c, 1, 78, 64
3, 263712, Note_on_c, 1, 79, 92
3, 263712, Note_on_c, 1, 76, 92
3, 263804, Note_off_c, 1, 62, 64
3, 263804, Note_off_c, 1, 79, 64
3, 263804, Note_off_c, 1, 76, 64
3, 263808, Note_on_c, 1, 81, 92
3, 263808, Note_on_c, 1, 78, 92
3, 263996, Note_off_c, 1, 81, 64
3, 263996, Note_off_c, 1, 78, 64
3, 264000, Note_on_c, 1, 83, 92
3, 264000, Note_on_c, 1, 79, 92
3, 264188, Note_off_c, 1, 83, 64
3, 264188, Note_off_c, 1, 79, 64
3, 264192, Note_on_c, 1, 84, 102
3, 264192, Note_on_c, 1, 81, 102
3, 264384, Note_on_c, 1, 67, 81
3, 264384, Note_on_c, 1, 63, 81
3, 264572, Note_off_c, 1, 67, 64
3, 264572, Note_off_c, 1, 63, 64
3, 264576, Note_on_c, 1, 66, 81
3, 264576, Note_on_c, 1, 62, 81
3, 264764, Note_off_c, 1, 84, 64
3, 264764, Note_off_c, 1, 81, 64
3, 264768, Note_on_c, 1, 80, 81
3, 264768, Note_on_c, 1, 83, 81
3, 264956, Note_off_c, 1, 80, 64
3, 264956, Note_off_c, 1, 83, 64
3, 264960, Note_on_c, 1, 84, 102
3, 264960, Note_on_c, 1, 81, 102
3, 265148, Note_off_c, 1, 66, 64
3, 265148, Note_off_c, 1, 62, 64
3, 265152, Note_on_c, 1, 67, 81
3, 265152, Note_on_c, 1, 63, 81
3, 265328, Note_on_c, 1, 62, 81
3, 265340, Note_off_c, 1, 67, 64
3, 265340, Note_off_c, 1, 63, 64
3, 265344, Note_on_c, 1, 66, 81
3, 265532, Note_off_c, 1, 84, 64
3, 265532, Note_off_c, 1, 81, 64
3, 265536, Note_on_c, 1, 80, 81
3, 265536, Note_on_c, 1, 83, 81
3, 265708, Note_off_c, 1, 62, 64
3, 265724, Note_off_c, 1, 66, 64
3, 265724, Note_off_c, 1, 80, 64
3, 265724, Note_off_c, 1, 83, 64
3, 265728, Note_on_c, 1, 84, 81
3, 265728, Note_on_c, 1, 81, 81
3, 265820, Note_off_c, 1, 84, 64
3, 265820, Note_off_c, 1, 81, 64
3, 265920, Note_on_c, 1, 84, 81
3, 265920, Note_on_c, 1, 81, 81
3, 266012, Note_off_c, 1, 84, 64
3, 266012, Note_off_c, 1, 81, 64
3, 266304, Note_on_c, 1, 79, 81
3, 266304, Note_on_c, 1, 83, 81
3, 266492, Note_off_c, 1, 79, 64
3, 266492, Note_off_c, 1, 83, 64
3, 266496, Note_on_c, 1, 78, 81
3, 266496, Note_on_c, 1, 81, 81
3, 266684, Note_off_c, 1, 78, 64
3, 266684, Note_off_c, 1, 81, 64
3, 266688, Note_on_c, 1, 81, 81
3, 266688, Note_on_c, 1, 78, 81
3, 266780, Note_off_c, 1, 81, 64
3, 266780, Note_off_c, 1, 78, 64
3, 267072, Note_on_c, 1, 79, 81
3, 267072, Note_on_c, 1, 76, 81
3, 267260, Note_off_c, 1, 79, 64
3, 267260, Note_off_c, 1, 76, 64
3, 267264, Note_on_c, 1, 78, 81
3, 267264, Note_on_c, 1, 74, 81
3, 267452, Note_off_c, 1, 78, 64
3, 267452, Note_off_c, 1, 74, 64
3, 267456, Note_on_c, 1, 78, 81
3, 267456, Note_on_c, 1, 74, 81
3, 267548, Note_off_c, 1, 78, 64
3, 267548, Note_off_c, 1, 74, 64
3, 267840, Note_on_c, 1, 76, 81
3, 267840, Note_on_c, 1, 72, 81
3, 268028, Note_off_c, 1, 76, 64
3, 268028, Note_off_c, 1, 72, 64
3, 268032, Note_on_c, 1, 74, 81
3, 268032, Note_on_c, 1, 71, 81
3, 268220, Note_off_c, 1, 74, 64
3, 268220, Note_off_c, 1, 71, 64
3, 268224, Note_on_c, 1, 74, 81
3, 268224, Note_on_c, 1, 71, 81
3, 268316, Note_off_c, 1, 74, 64
3, 268316, Note_off_c, 1, 71, 64
3, 268608, Note_on_c, 1, 72, 81
3, 268608, Note_on_c, 1, 69, 81
3, 268796, Note_off_c, 1, 72, 64
3, 268796, Note_off_c, 1, 69, 64
3, 268800, Note_on_c, 1, 71, 92
3, 268800, Note_on_c, 1, 67, 92
3, 268800, Note_on_c, 1, 62, 92
3, 268988, Note_off_c, 1, 71, 64
3, 268988, Note_off_c, 1, 67, 64
3, 268988, Note_off_c, 1, 62, 64
3, 268992, Note_on_c, 1, 71, 71
3, 268992, Note_on_c, 1, 67, 71
3, 268992, Note_on_c, 1, 62, 71
3, 269180, Note_off_c, 1, 71, 64
3, 269180, Note_off_c, 1, 67, 64
3, 269180, Note_off_c, 1, 62, 64
3, 269184, Note_on_c, 1, 71, 71
3, 269184, Note_on_c, 1, 67, 71
3, 269184, Note_on_c, 1, 62, 71
3, 269372, Note_off_c, 1, 71, 64
3, 269372, Note_off_c, 1, 67, 64
3, 269372, Note_off_c, 1, 62, 64
3, 269376, Note_on_c, 1, 71, 71
3, 269376, Note_on_c, 1, 67, 71
3, 269376, Note_on_c, 1, 62, 71
3, 269564, Note_off_c, 1, 71, 64
3, 269564, Note_off_c, 1, 67, 64
3, 269564, Note_off_c, 1, 62, 64
3, 269568, Note_on_c, 1, 71, 71
3, 269568, Note_on_c, 1, 67, 71
3, 269568, Note_on_c, 1, 62, 71
3, 269948, Note_off_c, 1, 71, 64
3, 269948, Note_off_c, 1, 67, 64
3, 269948, Note_off_c, 1, 62, 64
3, 270336, Note_on_c, 1, 71, 92
3, 270336, Note_on_c, 1, 67, 92
3, 270336, Note_on_c, 1, 62, 92
3, 270524, Note_off_c, 1, 71, 64
3, 270524, Note_off_c, 1, 67, 64
3, 270524, Note_off_c, 1, 62, 64
3, 270528, Note_on_c, 1, 71, 71
3, 270528, Note_on_c, 1, 67, 71
3, 270528, Note_on_c, 1, 62, 71
3, 270716, Note_off_c, 1, 71, 64
3, 270716, Note_off_c, 1, 67, 64
3, 270716, Note_off_c, 1, 62, 64
3, 270720, Note_on_c, 1, 71, 71
3, 270720, Note_on_c, 1, 67, 71
3, 270720, Note_on_c, 1, 62, 71
3, 270908, Note_off_c, 1, 71, 64
3, 270908, Note_off_c, 1, 67, 64
3, 270908, Note_off_c, 1, 62, 64
3, 270912, Note_on_c, 1, 71, 71
3, 270912, Note_on_c, 1, 67, 71
3, 270912, Note_on_c, 1, 62, 71
3, 271100, Note_off_c, 1, 71, 64
3, 271100, Note_off_c, 1, 67, 64
3, 271100, Note_off_c, 1, 62, 64
3, 271104, Note_on_c, 1, 71, 71
3, 271104, Note_on_c, 1, 67, 71
3, 271104, Note_on_c, 1, 62, 71
3, 271484, Note_off_c, 1, 71, 64
3, 271484, Note_off_c, 1, 67, 64
3, 271484, Note_off_c, 1, 62, 64
3, 271872, Note_on_c, 1, 62, 71
3, 272060, Note_off_c, 1, 62, 64
3, 272064, Note_on_c, 1, 62, 71
3, 272252, Note_off_c, 1, 62, 64
3, 272256, Note_on_c, 1, 62, 71
3, 272444, Note_off_c, 1, 62, 64
3, 272448, Note_on_c, 1, 62, 71
3, 272636, Note_off_c, 1, 62, 64
3, 272640, Note_on_c, 1, 62, 71
3, 272828, Note_off_c, 1, 62, 64
3, 272832, Note_on_c, 1, 60, 71
3, 273020, Note_off_c, 1, 60, 64
3, 273024, Note_on_c, 1, 59, 71
3, 273124, Note_off_c, 1, 59, 64
3, 273216, Note_on_c, 1, 59, 71
3, 273316, Note_off_c, 1, 59, 64
3, 273408, Note_on_c, 1, 60, 71
3, 273596, Note_off_c, 1, 60, 64
3, 273792, Note_on_c, 1, 60, 71
3, 273980, Note_off_c, 1, 60, 64
3, 274944, Note_on_c, 1, 78, 81
3, 274944, Note_on_c, 1, 74, 81
3, 274944, Note_on_c, 1, 69, 81
3, 275708, Note_off_c, 1, 78, 64
3, 275708, Note_off_c, 1, 74, 64
3, 275708, Note_off_c, 1, 69, 64
3, 275712, Note_on_c, 1, 78, 71
3, 275808, Note_off_c, 1, 78, 64
3, 275808, Note_on_c, 1, 76, 71
3, 275900, Note_off_c, 1, 76, 64
3, 275904, Note_on_c, 1, 74, 71
3, 275996, Note_off_c, 1, 74, 64
3, 276000, Note_on_c, 1, 76, 71
3, 276088, Note_off_c, 1, 76, 64
3, 276096, Note_on_c, 1, 78, 71
3, 276192, Note_off_c, 1, 78, 64
3, 276192, Note_on_c, 1, 79, 71
3, 276284, Note_off_c, 1, 79, 64
3, 276288, Note_on_c, 1, 78, 71
3, 276380, Note_off_c, 1, 78, 64
3, 276384, Note_on_c, 1, 79, 71
3, 276472, Note_off_c, 1, 79, 64
3, 276480, Note_on_c, 1, 81, 71
3, 276764, Note_off_c, 1, 81, 64
3, 276768, Note_on_c, 1, 78, 71
3, 276860, Note_off_c, 1, 78, 64
3, 276864, Note_on_c, 1, 81, 71
3, 277532, Note_off_c, 1, 81, 64
3, 277536, Note_on_c, 1, 66, 71
3, 277616, Note_on_c, 1, 69, 71
3, 277628, Note_off_c, 1, 66, 64
3, 278188, Note_off_c, 1, 69, 64
3, 278208, Note_on_c, 1, 67, 71
3, 278396, Note_off_c, 1, 67, 64
3, 278400, Note_on_c, 1, 66, 71
3, 278500, Note_off_c, 1, 66, 64
3, 278592, Note_on_c, 1, 67, 71
3, 278692, Note_off_c, 1, 67, 64
3, 278784, Note_on_c, 1, 66, 71
3, 278884, Note_off_c, 1, 66, 64
3, 278976, Note_on_c, 1, 64, 71
3, 279076, Note_off_c, 1, 64, 64
3, 279168, Note_on_c, 1, 62, 71
3, 279268, Note_off_c, 1, 62, 64
3, 279360, Note_on_c, 1, 61, 71
3, 279460, Note_off_c, 1, 61, 64
3, 279552, Note_on_c, 1, 62, 71
3, 279740, Note_off_c, 1, 62, 64
3, 279744, Note_on_c, 1, 66, 71
3, 279744, Note_on_c, 1, 62, 71
3, 279936, Note_off_c, 1, 66, 64
3, 279936, Note_off_c, 1, 62, 64
3, 279936, Note_on_c, 1, 69, 71
3, 279936, Note_on_c, 1, 66, 71
3, 280312, Note_off_c, 1, 69, 64
3, 280312, Note_off_c, 1, 66, 64
3, 280512, Note_on_c, 1, 69, 71
3, 280512, Note_on_c, 1, 66, 71
3, 280704, Note_off_c, 1, 69, 64
3, 280704, Note_off_c, 1, 66, 64
3, 280704, Note_on_c, 1, 66, 71
3, 280704, Note_on_c, 1, 62, 71
3, 281080, Note_off_c, 1, 66, 64
3, 281080, Note_off_c, 1, 62, 64
3, 281280, Note_on_c, 1, 62, 71
3, 281280, Note_on_c, 1, 55, 71
3, 281472, Note_off_c, 1, 62, 64
3, 281472, Note_off_c, 1, 55, 64
3, 281472, Note_on_c, 1, 69, 71
3, 281472, Note_on_c, 1, 66, 71
3, 281848, Note_off_c, 1, 69, 64
3, 281848, Note_off_c, 1, 66, 64
3, 282048, Note_on_c, 1, 64, 71
3, 282048, Note_on_c, 1, 60, 71
3, 282240, Note_off_c, 1, 64, 64
3, 282240, Note_off_c, 1, 60, 64
3, 282240, Note_on_c, 1, 60, 71
3, 282240, Note_on_c, 1, 57, 71
3, 282616, Note_off_c, 1, 60, 64
3, 282616, Note_off_c, 1, 57, 64
3, 282816, Note_on_c, 1, 59, 71
3, 282816, Note_on_c, 1, 55, 71
3, 283004, Note_off_c, 1, 59, 64
3, 283004, Note_off_c, 1, 55, 64
3, 283008, Note_on_c, 1, 62, 71
3, 283008, Note_on_c, 1, 59, 71
3, 283196, Note_off_c, 1, 62, 64
3, 283196, Note_off_c, 1, 59, 64
3, 283200, Note_on_c, 1, 64, 71
3, 283200, Note_on_c, 1, 57, 71
3, 283388, Note_off_c, 1, 64, 64
3, 283388, Note_off_c, 1, 57, 64
3, 283392, Note_on_c, 1, 62, 71
3, 283392, Note_on_c, 1, 57, 71
3, 283580, Note_off_c, 1, 62, 64
3, 283580, Note_off_c, 1, 57, 64
3, 283584, Note_on_c, 1, 62, 71
3, 283584, Note_on_c, 1, 57, 71
3, 283772, Note_off_c, 1, 62, 64
3, 283772, Note_off_c, 1, 57, 64
3, 283776, Note_on_c, 1, 66, 71
3, 283776, Note_on_c, 1, 62, 71
3, 283776, Note_on_c, 1, 60, 71
3, 283964, Note_off_c, 1, 66, 64
3, 283964, Note_off_c, 1, 62, 64
3, 283964, Note_off_c, 1, 60, 64
3, 283968, Note_on_c, 1, 66, 71
3, 283968, Note_on_c, 1, 62, 71
3, 283968, Note_on_c, 1, 60, 71
3, 284156, Note_off_c, 1, 66, 64
3, 284156, Note_off_c, 1, 62, 64
3, 284156, Note_off_c, 1, 60, 64
3, 284160, Note_on_c, 1, 67, 92
3, 284160, Note_on_c, 1, 62, 92
3, 284160, Note_on_c, 1, 59, 92
3, 284540, Note_off_c, 1, 67, 64
3, 284540, Note_off_c, 1, 62, 64
3, 284540, Note_off_c, 1, 59, 64
3, 284640, Note_on_c, 1, 62, 92
3, 284732, Note_off_c, 1, 62, 64
3, 284736, Note_on_c, 1, 71, 92
3, 284828, Note_off_c, 1, 71, 64
3, 284832, Note_on_c, 1, 74, 92
3, 284924, Note_off_c, 1, 74, 64
3, 284928, Note_on_c, 1, 74, 92
3, 285020, Note_off_c, 1, 74, 64
3, 285024, Note_on_c, 1, 72, 92
3, 285116, Note_off_c, 1, 72, 64
3, 285120, Note_on_c, 1, 71, 92
3, 285212, Note_off_c, 1, 71, 64
3, 285216, Note_on_c, 1, 69, 92
3, 285308, Note_off_c, 1, 69, 64
3, 285312, Note_on_c, 1, 79, 92
3, 285404, Note_off_c, 1, 79, 64
3, 285408, Note_on_c, 1, 78, 92
3, 285500, Note_off_c, 1, 78, 64
3, 285504, Note_on_c, 1, 76, 92
3, 285596, Note_off_c, 1, 76, 64
3, 285600, Note_on_c, 1, 78, 92
3, 285692, Note_off_c, 1, 78, 64
3, 285696, Note_on_c, 1, 79, 92
3, 285884, Note_off_c, 1, 79, 64
3, 285888, Note_on_c, 1, 83, 92
3, 286076, Note_off_c, 1, 83, 64
3, 286176, Note_on_c, 1, 62, 92
3, 286268, Note_off_c, 1, 62, 64
3, 286272, Note_on_c, 1, 71, 92
3, 286364, Note_off_c, 1, 71, 64
3, 286368, Note_on_c, 1, 74, 92
3, 286460, Note_off_c, 1, 74, 64
3, 286464, Note_on_c, 1, 74, 92
3, 286556, Note_off_c, 1, 74, 64
3, 286560, Note_on_c, 1, 72, 92
3, 286652, Note_off_c, 1, 72, 64
3, 286656, Note_on_c, 1, 71, 92
3, 286748, Note_off_c, 1, 71, 64
3, 286752, Note_on_c, 1, 69, 92
3, 286844, Note_off_c, 1, 69, 64
3, 286848, Note_on_c, 1, 79, 92
3, 286940, Note_off_c, 1, 79, 64
3, 286944, Note_on_c, 1, 78, 92
3, 287036, Note_off_c, 1, 78, 64
3, 287040, Note_on_c, 1, 76, 92
3, 287132, Note_off_c, 1, 76, 64
3, 287136, Note_on_c, 1, 78, 92
3, 287228, Note_off_c, 1, 78, 64
3, 287232, Note_on_c, 1, 79, 92
3, 287600, Note_on_c, 1, 67, 92
3, 287600, Note_on_c, 1, 59, 92
3, 287612, Note_off_c, 1, 79, 64
3, 287616, Note_on_c, 1, 62, 92
3, 287884, Note_off_c, 1, 67, 64
3, 287884, Note_off_c, 1, 59, 64
3, 287888, Note_on_c, 1, 62, 92
3, 287900, Note_off_c, 1, 62, 64
3, 287904, Note_on_c, 1, 67, 92
3, 287904, Note_on_c, 1, 59, 92
3, 287980, Note_off_c, 1, 62, 64
3, 287996, Note_off_c, 1, 67, 64
3, 287996, Note_off_c, 1, 59, 64
3, 288000, Note_on_c, 1, 67, 92
3, 288000, Note_on_c, 1, 62, 92
3, 288000, Note_on_c, 1, 59, 92
3, 288380, Note_off_c, 1, 67, 64
3, 288380, Note_off_c, 1, 62, 64
3, 288380, Note_off_c, 1, 59, 64
3, 288960, Note_on_c, 1, 74, 71
3, 288960, Note_on_c, 1, 71, 71
3, 288960, Note_on_c, 1, 67, 71
3, 289148, Note_off_c, 1, 74, 64
3, 289148, Note_off_c, 1, 71, 64
3, 289148, Note_off_c, 1, 67, 64
3, 289152, Note_on_c, 1, 74, 71
3, 289152, Note_on_c, 1, 71, 71
3, 289152, Note_on_c, 1, 67, 71
3, 289340, Note_off_c, 1, 74, 64
3, 289340, Note_off_c, 1, 71, 64
3, 289340, Note_off_c, 1, 67, 64
3, 289344, Note_on_c, 1, 74, 71
3, 289344, Note_on_c, 1, 71, 71
3, 289344, Note_on_c, 1, 67, 71
3, 289532, Note_off_c, 1, 74, 64
3, 289532, Note_off_c, 1, 71, 64
3, 289532, Note_off_c, 1, 67, 64
3, 289536, Note_on_c, 1, 74, 71
3, 289536, Note_on_c, 1, 71, 71
3, 289536, Note_on_c, 1, 67, 71
3, 289724, Note_off_c, 1, 74, 64
3, 289724, Note_off_c, 1, 71, 64
3, 289724, Note_off_c, 1, 67, 64
3, 289728, Note_on_c, 1, 74, 71
3, 289728, Note_on_c, 1, 71, 71
3, 289728, Note_on_c, 1, 67, 71
3, 289916, Note_off_c, 1, 74, 64
3, 289916, Note_off_c, 1, 71, 64
3, 289916, Note_off_c, 1, 67, 64
3, 289920, Note_on_c, 1, 74, 71
3, 289920, Note_on_c, 1, 71, 71
3, 289920, Note_on_c, 1, 67, 71
3, 290108, Note_off_c, 1, 74, 64
3, 290108, Note_off_c, 1, 71, 64
3, 290108, Note_off_c, 1, 67, 64
3, 290112, Note_on_c, 1, 74, 71
3, 290112, Note_on_c, 1, 71, 71
3, 290112, Note_on_c, 1, 67, 71
3, 290300, Note_off_c, 1, 74, 64
3, 290300, Note_off_c, 1, 71, 64
3, 290300, Note_off_c, 1, 67, 64
3, 290496, Note_on_c, 1, 74, 71
3, 290496, Note_on_c, 1, 71, 71
3, 290496, Note_on_c, 1, 68, 71
3, 290672, Note_on_c, 1, 68, 71
3, 290684, Note_off_c, 1, 74, 64
3, 290684, Note_off_c, 1, 71, 64
3, 290684, Note_off_c, 1, 68, 64
3, 290688, Note_on_c, 1, 74, 71
3, 290688, Note_on_c, 1, 71, 71
3, 290860, Note_off_c, 1, 68, 64
3, 290876, Note_off_c, 1, 74, 64
3, 290876, Note_off_c, 1, 71, 64
3, 290880, Note_on_c, 1, 74, 71
3, 290880, Note_on_c, 1, 71, 71
3, 290880, Note_on_c, 1, 68, 71
3, 291068, Note_off_c, 1, 74, 64
3, 291068, Note_off_c, 1, 71, 64
3, 291068, Note_off_c, 1, 68, 64
3, 291072, Note_on_c, 1, 74, 71
3, 291072, Note_on_c, 1, 71, 71
3, 291072, Note_on_c, 1, 68, 71
3, 291248, Note_on_c, 1, 68, 71
3, 291260, Note_off_c, 1, 74, 64
3, 291260, Note_off_c, 1, 71, 64
3, 291260, Note_off_c, 1, 68, 64
3, 291264, Note_on_c, 1, 74, 71
3, 291264, Note_on_c, 1, 71, 71
3, 291436, Note_off_c, 1, 68, 64
3, 291452, Note_off_c, 1, 74, 64
3, 291452, Note_off_c, 1, 71, 64
3, 291456, Note_on_c, 1, 74, 71
3, 291456, Note_on_c, 1, 71, 71
3, 291456, Note_on_c, 1, 68, 71
3, 291644, Note_off_c, 1, 74, 64
3, 291644, Note_off_c, 1, 71, 64
3, 291644, Note_off_c, 1, 68, 64
3, 291648, Note_on_c, 1, 74, 71
3, 291648, Note_on_c, 1, 71, 71
3, 291648, Note_on_c, 1, 68, 71
3, 291836, Note_off_c, 1, 74, 64
3, 291836, Note_off_c, 1, 71, 64
3, 291836, Note_off_c, 1, 68, 64
3, 292016, Note_on_c, 1, 71, 71
3, 292032, Note_on_c, 1, 74, 71
3, 292032, Note_on_c, 1, 64, 71
3, 292204, Note_off_c, 1, 71, 64
3, 292220, Note_off_c, 1, 74, 64
3, 292220, Note_off_c, 1, 64, 64
3, 292224, Note_on_c, 1, 72, 71
3, 292224, Note_on_c, 1, 69, 71
3, 292224, Note_on_c, 1, 64, 71
3, 292412, Note_off_c, 1, 72, 64
3, 292412, Note_off_c, 1, 69, 64
3, 292412, Note_off_c, 1, 64, 64
3, 292416, Note_on_c, 1, 72, 71
3, 292416, Note_on_c, 1, 69, 71
3, 292416, Note_on_c, 1, 64, 71
3, 292604, Note_off_c, 1, 72, 64
3, 292604, Note_off_c, 1, 69, 64
3, 292604, Note_off_c, 1, 64, 64
3, 292608, Note_on_c, 1, 62, 71
3, 292796, Note_off_c, 1, 62, 64
3, 292800, Note_on_c, 1, 62, 71
3, 292988, Note_off_c, 1, 62, 64
3, 292992, Note_on_c, 1, 62, 71
3, 293180, Note_off_c, 1, 62, 64
3, 293200, Note_on_c, 1, 62, 71
3, 293388, Note_off_c, 1, 62, 64
3, 293568, Note_on_c, 1, 62, 71
3, 293756, Note_off_c, 1, 62, 64
3, 293760, Note_on_c, 1, 60, 71
3, 293948, Note_off_c, 1, 60, 64
3, 293952, Note_on_c, 1, 60, 71
3, 294140, Note_off_c, 1, 60, 64
3, 294144, Note_on_c, 1, 64, 71
3, 294144, Note_on_c, 1, 60, 71
3, 294332, Note_off_c, 1, 64, 64
3, 294336, Note_on_c, 1, 69, 71
3, 294524, Note_off_c, 1, 60, 64
3, 294524, Note_off_c, 1, 69, 64
3, 294528, Note_on_c, 1, 72, 71
3, 294528, Note_on_c, 1, 64, 71
3, 294716, Note_off_c, 1, 72, 64
3, 294716, Note_off_c, 1, 64, 64
3, 294720, Note_on_c, 1, 71, 71
3, 294720, Note_on_c, 1, 68, 71
3, 294908, Note_off_c, 1, 71, 64
3, 294908, Note_off_c, 1, 68, 64
3, 294912, Note_on_c, 1, 68, 71
3, 295100, Note_off_c, 1, 68, 64
3, 295104, Note_on_c, 1, 69, 71
3, 295292, Note_off_c, 1, 69, 64
3, 295296, Note_on_c, 1, 69, 71
3, 295296, Note_on_c, 1, 64, 71
3, 295296, Note_on_c, 1, 60, 71
3, 295484, Note_off_c, 1, 69, 64
3, 295484, Note_off_c, 1, 64, 64
3, 295484, Note_off_c, 1, 60, 64
3, 295488, Note_on_c, 1, 69, 71
3, 295488, Note_on_c, 1, 64, 71
3, 295488, Note_on_c, 1, 60, 71
3, 295676, Note_off_c, 1, 69, 64
3, 295676, Note_off_c, 1, 64, 64
3, 295676, Note_off_c, 1, 60, 64
3, 295680, Note_on_c, 1, 69, 71
3, 295680, Note_on_c, 1, 64, 71
3, 295680, Note_on_c, 1, 60, 71
3, 295868, Note_off_c, 1, 69, 64
3, 295868, Note_off_c, 1, 64, 64
3, 295868, Note_off_c, 1, 60, 64
3, 295872, Note_on_c, 1, 69, 71
3, 295872, Note_on_c, 1, 64, 71
3, 295872, Note_on_c, 1, 60, 71
3, 296048, Note_on_c, 1, 64, 71
3, 296048, Note_on_c, 1, 60, 71
3, 296060, Note_off_c, 1, 69, 64
3, 296060, Note_off_c, 1, 64, 64
3, 296060, Note_off_c, 1, 60, 64
3, 296064, Note_on_c, 1, 69, 71
3, 296236, Note_off_c, 1, 64, 64
3, 296236, Note_off_c, 1, 60, 64
3, 296252, Note_off_c, 1, 69, 64
3, 296256, Note_on_c, 1, 69, 71
3, 296256, Note_on_c, 1, 64, 71
3, 296256, Note_on_c, 1, 60, 71
3, 296444, Note_off_c, 1, 69, 64
3, 296444, Note_off_c, 1, 64, 64
3, 296444, Note_off_c, 1, 60, 64
3, 296640, Note_on_c, 1, 72, 71
3, 296640, Note_on_c, 1, 69, 71
3, 296828, Note_off_c, 1, 72, 64
3, 296828, Note_off_c, 1, 69, 64
3, 296832, Note_on_c, 1, 72, 71
3, 296832, Note_on_c, 1, 69, 71
3, 297020, Note_off_c, 1, 72, 64
3, 297020, Note_off_c, 1, 69, 64
3, 297024, Note_on_c, 1, 72, 71
3, 297024, Note_on_c, 1, 69, 71
3, 297212, Note_off_c, 1, 72, 64
3, 297212, Note_off_c, 1, 69, 64
3, 297408, Note_on_c, 1, 71, 71
3, 297408, Note_on_c, 1, 67, 71
3, 297596, Note_off_c, 1, 71, 64
3, 297596, Note_off_c, 1, 67, 64
3, 297600, Note_on_c, 1, 71, 71
3, 297600, Note_on_c, 1, 67, 71
3, 297788, Note_off_c, 1, 71, 64
3, 297788, Note_off_c, 1, 67, 64
3, 297792, Note_on_c, 1, 71, 71
3, 297792, Note_on_c, 1, 67, 71
3, 297980, Note_off_c, 1, 71, 64
3, 297980, Note_off_c, 1, 67, 64
3, 298176, Note_on_c, 1, 66, 71
3, 298176, Note_on_c, 1, 69, 71
3, 298364, Note_off_c, 1, 66, 64
3, 298364, Note_off_c, 1, 69, 64
3, 298368, Note_on_c, 1, 66, 71
3, 298368, Note_on_c, 1, 69, 71
3, 298556, Note_off_c, 1, 66, 64
3, 298556, Note_off_c, 1, 69, 64
3, 298560, Note_on_c, 1, 66, 71
3, 298560, Note_on_c, 1, 69, 71
3, 298748, Note_off_c, 1, 66, 64
3, 298748, Note_off_c, 1, 69, 64
3, 298752, Note_on_c, 1, 72, 71
3, 298752, Note_on_c, 1, 66, 71
3, 298940, Note_off_c, 1, 72, 64
3, 298940, Note_off_c, 1, 66, 64
3, 298944, Note_on_c, 1, 71, 71
3, 298944, Note_on_c, 1, 67, 71
3, 299132, Note_off_c, 1, 71, 64
3, 299132, Note_off_c, 1, 67, 64
3, 299136, Note_on_c, 1, 69, 71
3, 299136, Note_on_c, 1, 66, 71
3, 299236, Note_off_c, 1, 69, 64
3, 299236, Note_off_c, 1, 66, 64
3, 299328, Note_on_c, 1, 69, 71
3, 299328, Note_on_c, 1, 66, 71
3, 299428, Note_off_c, 1, 69, 64
3, 299428, Note_off_c, 1, 66, 64
3, 299520, Note_on_c, 1, 71, 71
3, 299520, Note_on_c, 1, 67, 71
3, 299708, Note_off_c, 1, 71, 64
3, 299708, Note_off_c, 1, 67, 64
3, 301248, Note_on_c, 1, 67, 71
3, 301248, Note_on_c, 1, 64, 71
3, 301248, Note_on_c, 1, 60, 71
3, 301424, Note_on_c, 1, 60, 71
3, 301436, Note_off_c, 1, 67, 64
3, 301436, Note_off_c, 1, 64, 64
3, 301436, Note_off_c, 1, 60, 64
3, 301440, Note_on_c, 1, 67, 71
3, 301440, Note_on_c, 1, 64, 71
3, 301612, Note_off_c, 1, 60, 64
3, 301628, Note_off_c, 1, 67, 64
3, 301628, Note_off_c, 1, 64, 64
3, 301632, Note_on_c, 1, 67, 71
3, 301632, Note_on_c, 1, 64, 71
3, 301632, Note_on_c, 1, 60, 71
3, 301820, Note_off_c, 1, 67, 64
3, 301820, Note_off_c, 1, 64, 64
3, 301820, Note_off_c, 1, 60, 64
3, 301824, Note_on_c, 1, 67, 71
3, 301824, Note_on_c, 1, 64, 71
3, 301824, Note_on_c, 1, 60, 71
3, 302204, Note_off_c, 1, 67, 64
3, 302204, Note_off_c, 1, 64, 64
3, 302204, Note_off_c, 1, 60, 64
3, 302592, Note_on_c, 1, 79, 89
3, 302972, Note_off_c, 1, 79, 64
3, 302976, Note_on_c, 1, 69, 89
3, 303356, Note_off_c, 1, 69, 64
3, 304128, Note_on_c, 1, 79, 92
3, 304508, Note_off_c, 1, 79, 64
3, 304512, Note_on_c, 1, 69, 92
3, 304892, Note_off_c, 1, 69, 64
3, 305856, Note_on_c, 1, 69, 71
3, 305856, Note_on_c, 1, 67, 71
3, 305856, Note_on_c, 1, 64, 71
3, 306044, Note_off_c, 1, 69, 64
3, 306044, Note_off_c, 1, 67, 64
3, 306044, Note_off_c, 1, 64, 64
3, 306048, Note_on_c, 1, 69, 71
3, 306048, Note_on_c, 1, 67, 71
3, 306048, Note_on_c, 1, 64, 71
3, 306236, Note_off_c, 1, 69, 64
3, 306236, Note_off_c, 1, 67, 64
3, 306236, Note_off_c, 1, 64, 64
3, 306240, Note_on_c, 1, 69, 71
3, 306240, Note_on_c, 1, 67, 71
3, 306240, Note_on_c, 1, 64, 71
3, 306428, Note_off_c, 1, 69, 64
3, 306428, Note_off_c, 1, 67, 64
3, 306428, Note_off_c, 1, 64, 64
3, 306432, Note_on_c, 1, 69, 71
3, 306432, Note_on_c, 1, 67, 71
3, 306432, Note_on_c, 1, 64, 71
3, 306620, Note_off_c, 1, 69, 64
3, 306620, Note_off_c, 1, 67, 64
3, 306620, Note_off_c, 1, 64, 64
3, 306624, Note_on_c, 1, 69, 71
3, 306624, Note_on_c, 1, 67, 71
3, 306624, Note_on_c, 1, 64, 71
3, 306800, Note_on_c, 1, 64, 71
3, 306812, Note_off_c, 1, 69, 64
3, 306812, Note_off_c, 1, 67, 64
3, 306812, Note_off_c, 1, 64, 64
3, 306816, Note_on_c, 1, 69, 71
3, 306816, Note_on_c, 1, 67, 71
3, 306988, Note_off_c, 1, 64, 64
3, 307004, Note_off_c, 1, 69, 64
3, 307004, Note_off_c, 1, 67, 64
3, 307008, Note_on_c, 1, 69, 71
3, 307008, Note_on_c, 1, 67, 71
3, 307008, Note_on_c, 1, 64, 71
3, 307196, Note_off_c, 1, 69, 64
3, 307196, Note_off_c, 1, 67, 64
3, 307196, Note_off_c, 1, 64, 64
3, 307200, Note_on_c, 1, 69, 92
3, 307200, Note_on_c, 1, 66, 92
3, 307200, Note_on_c, 1, 62, 92
3, 307580, Note_off_c, 1, 69, 64
3, 307580, Note_off_c, 1, 66, 64
3, 307580, Note_off_c, 1, 62, 64
3, 307776, Note_on_c, 1, 79, 92
3, 307776, Note_on_c, 1, 74, 92
3, 307776, Note_on_c, 1, 71, 92
3, 307964, Note_off_c, 1, 79, 64
3, 307964, Note_off_c, 1, 74, 64
3, 307964, Note_off_c, 1, 71, 64
3, 307968, Note_on_c, 1, 78, 92
3, 307968, Note_on_c, 1, 74, 92
3, 307968, Note_on_c, 1, 69, 92
3, 308348, Note_off_c, 1, 78, 64
3, 308348, Note_off_c, 1, 74, 64
3, 308348, Note_off_c, 1, 69, 64
3, 308544, Note_on_c, 1, 79, 92
3, 308544, Note_on_c, 1, 74, 92
3, 308544, Note_on_c, 1, 71, 92
3, 308732, Note_off_c, 1, 79, 64
3, 308732, Note_off_c, 1, 74, 64
3, 308732, Note_off_c, 1, 71, 64
3, 308736, Note_on_c, 1, 78, 92
3, 308736, Note_on_c, 1, 74, 92
3, 308736, Note_on_c, 1, 69, 92
3, 309116, Note_off_c, 1, 78, 64
3, 309116, Note_off_c, 1, 74, 64
3, 309116, Note_off_c, 1, 69, 64
3, 310464, Note_on_c, 1, 72, 71
3, 310464, Note_on_c, 1, 66, 71
3, 310652, Note_off_c, 1, 72, 64
3, 310652, Note_off_c, 1, 66, 64
3, 310656, Note_on_c, 1, 71, 71
3, 310656, Note_on_c, 1, 67, 71
3, 310844, Note_off_c, 1, 71, 64
3, 310844, Note_off_c, 1, 67, 64
3, 312000, Note_on_c, 1, 76, 71
3, 312000, Note_on_c, 1, 72, 71
3, 312000, Note_on_c, 1, 69, 71
3, 312092, Note_off_c, 1, 76, 64
3, 312092, Note_off_c, 1, 72, 64
3, 312092, Note_off_c, 1, 69, 64
3, 312096, Note_on_c, 1, 76, 71
3, 312096, Note_on_c, 1, 72, 71
3, 312096, Note_on_c, 1, 69, 71
3, 312188, Note_off_c, 1, 76, 64
3, 312188, Note_off_c, 1, 72, 64
3, 312188, Note_off_c, 1, 69, 64
3, 312192, Note_on_c, 1, 76, 71
3, 312192, Note_on_c, 1, 72, 71
3, 312192, Note_on_c, 1, 69, 71
3, 312380, Note_off_c, 1, 76, 64
3, 312380, Note_off_c, 1, 72, 64
3, 312380, Note_off_c, 1, 69, 64
3, 313536, Note_on_c, 1, 67, 71
3, 313536, Note_on_c, 1, 63, 71
3, 313724, Note_off_c, 1, 67, 64
3, 313724, Note_off_c, 1, 63, 64
3, 313728, Note_on_c, 1, 66, 71
3, 313728, Note_on_c, 1, 62, 71
3, 313916, Note_off_c, 1, 66, 64
3, 313916, Note_off_c, 1, 62, 64
3, 315072, Note_on_c, 1, 62, 71
3, 315072, Note_on_c, 1, 59, 71
3, 315164, Note_off_c, 1, 62, 64
3, 315164, Note_off_c, 1, 59, 64
3, 315168, Note_on_c, 1, 62, 71
3, 315168, Note_on_c, 1, 59, 71
3, 315260, Note_off_c, 1, 62, 64
3, 315260, Note_off_c, 1, 59, 64
3, 315264, Note_on_c, 1, 62, 71
3, 315264, Note_on_c, 1, 59, 71
3, 315452, Note_off_c, 1, 62, 64
3, 315452, Note_off_c, 1, 59, 64
3, 315840, Note_on_c, 1, 74, 71
3, 315840, Note_on_c, 1, 71, 71
3, 315940, Note_off_c, 1, 74, 64
3, 315940, Note_off_c, 1, 71, 64
3, 316224, Note_on_c, 1, 72, 71
3, 316224, Note_on_c, 1, 69, 71
3, 316324, Note_off_c, 1, 72, 64
3, 316324, Note_off_c, 1, 69, 64
3, 316416, Note_on_c, 1, 71, 71
3, 316416, Note_on_c, 1, 67, 71
3, 316516, Note_off_c, 1, 71, 64
3, 316516, Note_off_c, 1, 67, 64
3, 317376, Note_on_c, 1, 86, 71
3, 317376, Note_on_c, 1, 83, 71
3, 317476, Note_off_c, 1, 86, 64
3, 317476, Note_off_c, 1, 83, 64
3, 317760, Note_on_c, 1, 84, 71
3, 317760, Note_on_c, 1, 81, 71
3, 317860, Note_off_c, 1, 84, 64
3, 317860, Note_off_c, 1, 81, 64
3, 317952, Note_on_c, 1, 83, 71
3, 317952, Note_on_c, 1, 79, 71
3, 318052, Note_off_c, 1, 83, 64
3, 318052, Note_off_c, 1, 79, 64
3, 318528, Note_on_c, 1, 67, 71
3, 318528, Note_on_c, 1, 71, 71
3, 318568, Note_off_c, 1, 71, 64
3, 318576, Note_on_c, 1, 72, 71
3, 318616, Note_off_c, 1, 72, 64
3, 318624, Note_on_c, 1, 69, 71
3, 318664, Note_off_c, 1, 69, 64
3, 318672, Note_on_c, 1, 71, 71
3, 318712, Note_off_c, 1, 71, 64
3, 318716, Note_off_c, 1, 67, 64
3, 318720, Note_on_c, 1, 72, 71
3, 318720, Note_on_c, 1, 69, 71
3, 318820, Note_off_c, 1, 72, 64
3, 318820, Note_off_c, 1, 69, 64
3, 318912, Note_on_c, 1, 74, 71
3, 318912, Note_on_c, 1, 71, 71
3, 319012, Note_off_c, 1, 74, 64
3, 319012, Note_off_c, 1, 71, 64
3, 319104, Note_on_c, 1, 76, 71
3, 319104, Note_on_c, 1, 72, 71
3, 319204, Note_off_c, 1, 76, 64
3, 319204, Note_off_c, 1, 72, 64
3, 319296, Note_on_c, 1, 78, 71
3, 319296, Note_on_c, 1, 74, 71
3, 319396, Note_off_c, 1, 78, 64
3, 319396, Note_off_c, 1, 74, 64
3, 319488, Note_on_c, 1, 79, 71
3, 319488, Note_on_c, 1, 76, 71
3, 319588, Note_off_c, 1, 79, 64
3, 319588, Note_off_c, 1, 76, 64
3, 319680, Note_on_c, 1, 78, 71
3, 319680, Note_on_c, 1, 81, 71
3, 319720, Note_off_c, 1, 81, 64
3, 319728, Note_on_c, 1, 83, 71
3, 319768, Note_off_c, 1, 83, 64
3, 319776, Note_on_c, 1, 79, 71
3, 319816, Note_off_c, 1, 79, 64
3, 319824, Note_on_c, 1, 81, 71
3, 319864, Note_off_c, 1, 81, 64
3, 319868, Note_off_c, 1, 78, 64
3, 319872, Note_on_c, 1, 79, 71
3, 319872, Note_on_c, 1, 83, 71
3, 319972, Note_off_c, 1, 79, 64
3, 319972, Note_off_c, 1, 83, 64
3, 320064, Note_on_c, 1, 71, 71
3, 320164, Note_off_c, 1, 71, 64
3, 320256, Note_on_c, 1, 72, 71
3, 320356, Note_off_c, 1, 72, 64
3, 320448, Note_on_c, 1, 72, 71
3, 320448, Note_on_c, 1, 69, 71
3, 320636, Note_off_c, 1, 72, 64
3, 320636, Note_off_c, 1, 69, 64
3, 320640, Note_on_c, 1, 71, 71
3, 320640, Note_on_c, 1, 67, 71
3, 320828, Note_off_c, 1, 71, 64
3, 320828, Note_off_c, 1, 67, 64
3, 320832, Note_on_c, 1, 74, 71
3, 320832, Note_on_c, 1, 66, 71
3, 321020, Note_off_c, 1, 74, 64
3, 321020, Note_off_c, 1, 66, 64
3, 321024, Note_on_c, 1, 74, 71
3, 321024, Note_on_c, 1, 67, 71
3, 321212, Note_off_c, 1, 74, 64
3, 321212, Note_off_c, 1, 67, 64
3, 321216, Note_on_c, 1, 69, 71
3, 321216, Note_on_c, 1, 78, 71
3, 321308, Note_off_c, 1, 78, 64
3, 321312, Note_on_c, 1, 81, 71
3, 321404, Note_off_c, 1, 69, 64
3, 321404, Note_off_c, 1, 81, 64
3, 321408, Note_on_c, 1, 71, 71
3, 321408, Note_on_c, 1, 79, 71
3, 321508, Note_off_c, 1, 71, 64
3, 321508, Note_off_c, 1, 79, 64
3, 322944, Note_on_c, 1, 67, 71
3, 322944, Note_on_c, 1, 61, 71
3, 323324, Note_off_c, 1, 67, 64
3, 323324, Note_off_c, 1, 61, 64
3, 323328, Note_on_c, 1, 66, 71
3, 323328, Note_on_c, 1, 62, 71
3, 323708, Note_off_c, 1, 66, 64
3, 323708, Note_off_c, 1, 62, 64
3, 323712, Note_on_c, 1, 72, 71
3, 323712, Note_on_c, 1, 66, 71
3, 324092, Note_off_c, 1, 72, 64
3, 324092, Note_off_c, 1, 66, 64
3, 324096, Note_on_c, 1, 79, 87
3, 324096, Note_on_c, 1, 74, 87
3, 324096, Note_on_c, 1, 71, 87
3, 324096, Note_on_c, 1, 67, 87
3, 324188, Note_off_c, 1, 71, 64
3, 324188, Note_off_c, 1, 67, 64
3, 324192, Note_on_c, 1, 62, 87
3, 324284, Note_off_c, 1, 62, 64
3, 324288, Note_on_c, 1, 71, 87
3, 324288, Note_on_c, 1, 67, 87
3, 324380, Note_off_c, 1, 71, 64
3, 324380, Note_off_c, 1, 67, 64
3, 324384, Note_on_c, 1, 62, 87
3, 324476, Note_off_c, 1, 62, 64
3, 324480, Note_on_c, 1, 71, 87
3, 324480, Note_on_c, 1, 67, 87
3, 324572, Note_off_c, 1, 71, 64
3, 324572, Note_off_c, 1, 67, 64
3, 324576, Note_on_c, 1, 62, 87
3, 324668, Note_off_c, 1, 62, 64
3, 324672, Note_on_c, 1, 71, 87
3, 324672, Note_on_c, 1, 67, 87
3, 324764, Note_off_c, 1, 71, 64
3, 324764, Note_off_c, 1, 67, 64
3, 324768, Note_on_c, 1, 62, 87
3, 324860, Note_off_c, 1, 79, 64
3, 324860, Note_off_c, 1, 74, 64
3, 324860, Note_off_c, 1, 62, 64
3, 324864, Note_on_c, 1, 81, 87
3, 324864, Note_on_c, 1, 78, 87
3, 324864, Note_on_c, 1, 72, 87
3, 324864, Note_on_c, 1, 66, 87
3, 324956, Note_off_c, 1, 72, 64
3, 324956, Note_off_c, 1, 66, 64
3, 324960, Note_on_c, 1, 62, 87
3, 325052, Note_off_c, 1, 62, 64
3, 325056, Note_on_c, 1, 72, 87
3, 325056, Note_on_c, 1, 66, 87
3, 325148, Note_off_c, 1, 72, 64
3, 325148, Note_off_c, 1, 66, 64
3, 325152, Note_on_c, 1, 62, 87
3, 325244, Note_off_c, 1, 62, 64
3, 325248, Note_on_c, 1, 72, 87
3, 325248, Note_on_c, 1, 66, 87
3, 325340, Note_off_c, 1, 72, 64
3, 325340, Note_off_c, 1, 66, 64
3, 325344, Note_on_c, 1, 62, 87
3, 325436, Note_off_c, 1, 62, 64
3, 325440, Note_on_c, 1, 72, 87
3, 325440, Note_on_c, 1, 66, 87
3, 325532, Note_off_c, 1, 72, 64
3, 325532, Note_off_c, 1, 66, 64
3, 325536, Note_on_c, 1, 62, 87
3, 325628, Note_off_c, 1, 81, 64
3, 325628, Note_off_c, 1, 78, 64
3, 325628, Note_off_c, 1, 62, 64
3, 325632, Note_on_c, 1, 79, 87
3, 325632, Note_on_c, 1, 83, 87
3, 325632, Note_on_c, 1, 71, 87
3, 325632, Note_on_c, 1, 67, 87
3, 325724, Note_off_c, 1, 71, 64
3, 325724, Note_off_c, 1, 67, 64
3, 325728, Note_on_c, 1, 62, 87
3, 325820, Note_off_c, 1, 62, 64
3, 325824, Note_on_c, 1, 71, 87
3, 325824, Note_on_c, 1, 67, 87
3, 325916, Note_off_c, 1, 71, 64
3, 325916, Note_off_c, 1, 67, 64
3, 325920, Note_on_c, 1, 62, 87
3, 326012, Note_off_c, 1, 79, 64
3, 326012, Note_off_c, 1, 83, 64
3, 326012, Note_off_c, 1, 62, 64
3, 326016, Note_on_c, 1, 81, 87
3, 326016, Note_on_c, 1, 84, 87
3, 326016, Note_on_c, 1, 84, 87
3, 326016, Note_on_c, 1, 69, 87
3, 326016, Note_on_c, 1, 66, 87
3, 326108, Note_off_c, 1, 69, 64
3, 326108, Note_off_c, 1, 66, 64
3, 326112, Note_on_c, 1, 62, 87
3, 326204, Note_off_c, 1, 62, 64
3, 326208, Note_on_c, 1, 69, 87
3, 326208, Note_on_c, 1, 66, 87
3, 326300, Note_off_c, 1, 69, 64
3, 326300, Note_off_c, 1, 66, 64
3, 326304, Note_on_c, 1, 62, 87
3, 326384, Note_on_c, 1, 72, 87
3, 326396, Note_off_c, 1, 81, 64
3, 326396, Note_off_c, 1, 84, 64
3, 326396, Note_off_c, 1, 84, 64
3, 326396, Note_off_c, 1, 62, 64
3, 326400, Note_on_c, 1, 78, 87
3, 326400, Note_on_c, 1, 81, 87
3, 326400, Note_on_c, 1, 66, 87
3, 326476, Note_off_c, 1, 72, 64
3, 326492, Note_off_c, 1, 66, 64
3, 326496, Note_on_c, 1, 62, 87
3, 326588, Note_off_c, 1, 62, 64
3, 326592, Note_on_c, 1, 72, 87
3, 326592, Note_on_c, 1, 66, 87
3, 326684, Note_off_c, 1, 72, 64
3, 326684, Note_off_c, 1, 66, 64
3, 326688, Note_on_c, 1, 62, 87
3, 326780, Note_off_c, 1, 78, 64
3, 326780, Note_off_c, 1, 81, 64
3, 326780, Note_off_c, 1, 62, 64
3, 326784, Note_on_c, 1, 72, 87
3, 326784, Note_on_c, 1, 69, 87
3, 326876, Note_off_c, 1, 72, 64
3, 326876, Note_off_c, 1, 69, 64
3, 326880, Note_on_c, 1, 62, 87
3, 326972, Note_off_c, 1, 62, 64
3, 326976, Note_on_c, 1, 72, 87
3, 326976, Note_on_c, 1, 69, 87
3, 327068, Note_off_c, 1, 72, 64
3, 327068, Note_off_c, 1, 69, 64
3, 327072, Note_on_c, 1, 62, 87
3, 327164, Note_off_c, 1, 62, 64
3, 327168, Note_on_c, 1, 79, 87
3, 327168, Note_on_c, 1, 74, 87
3, 327168, Note_on_c, 1, 71, 87
3, 327168, Note_on_c, 1, 67, 87
3, 327260, Note_off_c, 1, 71, 64
3, 327260, Note_off_c, 1, 67, 64
3, 327264, Note_on_c, 1, 62, 87
3, 327356, Note_off_c, 1, 62, 64
3, 327360, Note_on_c, 1, 71, 87
3, 327360, Note_on_c, 1, 67, 87
3, 327452, Note_off_c, 1, 71, 64
3, 327452, Note_off_c, 1, 67, 64
3, 327456, Note_on_c, 1, 62, 87
3, 327548, Note_off_c, 1, 79, 64
3, 327548, Note_off_c, 1, 74, 64
3, 327548, Note_off_c, 1, 62, 64
3, 327552, Note_on_c, 1, 79, 87
3, 327552, Note_on_c, 1, 74, 87
3, 327552, Note_on_c, 1, 71, 87
3, 327552, Note_on_c, 1, 67, 87
3, 327644, Note_off_c, 1, 71, 64
3, 327644, Note_off_c, 1, 67, 64
3, 327648, Note_on_c, 1, 62, 87
3, 327740, Note_off_c, 1, 62, 64
3, 327744, Note_on_c, 1, 71, 87
3, 327744, Note_on_c, 1, 67, 87
3, 327836, Note_off_c, 1, 79, 64
3, 327836, Note_off_c, 1, 74, 64
3, 327836, Note_off_c, 1, 71, 64
3, 327836, Note_off_c, 1, 67, 64
3, 327840, Note_on_c, 1, 79, 87
3, 327840, Note_on_c, 1, 74, 87
3, 327840, Note_on_c, 1, 62, 87
3, 327920, Note_on_c, 1, 72, 87
3, 327932, Note_off_c, 1, 79, 64
3, 327932, Note_off_c, 1, 74, 64
3, 327932, Note_off_c, 1, 62, 64
3, 327936, Note_on_c, 1, 81, 87
3, 327936, Note_on_c, 1, 78, 87
3, 327936, Note_on_c, 1, 66, 87
3, 328012, Note_off_c, 1, 72, 64
3, 328028, Note_off_c, 1, 66, 64
3, 328032, Note_on_c, 1, 62, 87
3, 328124, Note_off_c, 1, 62, 64
3, 328128, Note_on_c, 1, 72, 87
3, 328128, Note_on_c, 1, 66, 87
3, 328220, Note_off_c, 1, 72, 64
3, 328220, Note_off_c, 1, 66, 64
3, 328224, Note_on_c, 1, 62, 87
3, 328304, Note_on_c, 1, 78, 87
3, 328316, Note_off_c, 1, 81, 64
3, 328316, Note_off_c, 1, 78, 64
3, 328316, Note_off_c, 1, 62, 64
3, 328320, Note_on_c, 1, 81, 87
3, 328320, Note_on_c, 1, 72, 87
3, 328320, Note_on_c, 1, 66, 87
3, 328412, Note_off_c, 1, 72, 64
3, 328412, Note_off_c, 1, 66, 64
3, 328416, Note_on_c, 1, 62, 87
3, 328508, Note_off_c, 1, 62, 64
3, 328512, Note_on_c, 1, 72, 87
3, 328512, Note_on_c, 1, 66, 87
3, 328588, Note_off_c, 1, 78, 64
3, 328592, Note_on_c, 1, 78, 87
3, 328604, Note_off_c, 1, 81, 64
3, 328604, Note_off_c, 1, 72, 64
3, 328604, Note_off_c, 1, 66, 64
3, 328608, Note_on_c, 1, 81, 87
3, 328608, Note_on_c, 1, 62, 87
3, 328684, Note_off_c, 1, 78, 64
3, 328700, Note_off_c, 1, 81, 64
3, 328700, Note_off_c, 1, 62, 64
3, 328704, Note_on_c, 1, 79, 87
3, 328704, Note_on_c, 1, 83, 87
3, 328704, Note_on_c, 1, 71, 87
3, 328704, Note_on_c, 1, 67, 87
3, 328796, Note_off_c, 1, 71, 64
3, 328796, Note_off_c, 1, 67, 64
3, 328800, Note_on_c, 1, 62, 87
3, 328892, Note_off_c, 1, 79, 64
3, 328892, Note_off_c, 1, 83, 64
3, 328892, Note_off_c, 1, 62, 64
3, 328896, Note_on_c, 1, 71, 87
3, 328896, Note_on_c, 1, 67, 87
3, 328988, Note_off_c, 1, 71, 64
3, 328988, Note_off_c, 1, 67, 64
3, 328992, Note_on_c, 1, 62, 87
3, 329084, Note_off_c, 1, 62, 64
3, 329088, Note_on_c, 1, 86, 87
3, 329088, Note_on_c, 1, 83, 87
3, 329088, Note_on_c, 1, 69, 87
3, 329088, Note_on_c, 1, 66, 87
3, 329132, Note_off_c, 1, 86, 64
3, 329132, Note_off_c, 1, 83, 64
3, 329136, Note_on_c, 1, 84, 87
3, 329136, Note_on_c, 1, 81, 87
3, 329180, Note_off_c, 1, 69, 64
3, 329180, Note_off_c, 1, 66, 64
3, 329184, Note_on_c, 1, 62, 87
3, 329276, Note_off_c, 1, 62, 64
3, 329280, Note_on_c, 1, 69, 87
3, 329280, Note_on_c, 1, 66, 87
3, 329372, Note_off_c, 1, 69, 64
3, 329372, Note_off_c, 1, 66, 64
3, 329376, Note_on_c, 1, 62, 87
3, 329464, Note_off_c, 1, 84, 64
3, 329464, Note_off_c, 1, 81, 64
3, 329468, Note_off_c, 1, 62, 64
3, 329472, Note_on_c, 1, 78, 87
3, 329472, Note_on_c, 1, 81, 87
3, 329472, Note_on_c, 1, 72, 87
3, 329472, Note_on_c, 1, 66, 87
3, 329564, Note_off_c, 1, 72, 64
3, 329564, Note_off_c, 1, 66, 64
3, 329568, Note_on_c, 1, 62, 87
3, 329660, Note_off_c, 1, 62, 64
3, 329664, Note_on_c, 1, 72, 87
3, 329664, Note_on_c, 1, 66, 87
3, 329756, Note_off_c, 1, 72, 64
3, 329756, Note_off_c, 1, 66, 64
3, 329760, Note_on_c, 1, 62, 87
3, 329852, Note_off_c, 1, 78, 64
3, 329852, Note_off_c, 1, 81, 64
3, 329852, Note_off_c, 1, 62, 64
3, 329856, Note_on_c, 1, 72, 87
3, 329856, Note_on_c, 1, 69, 87
3, 329948, Note_off_c, 1, 72, 64
3, 329948, Note_off_c, 1, 69, 64
3, 329952, Note_on_c, 1, 62, 87
3, 330044, Note_off_c, 1, 62, 64
3, 330048, Note_on_c, 1, 72, 87
3, 330048, Note_on_c, 1, 69, 87
3, 330140, Note_off_c, 1, 72, 64
3, 330140, Note_off_c, 1, 69, 64
3, 330144, Note_on_c, 1, 62, 87
3, 330236, Note_off_c, 1, 62, 64
3, 330240, Note_on_c, 1, 71, 87
3, 330240, Note_on_c, 1, 67, 87
3, 330620, Note_off_c, 1, 71, 64
3, 330620, Note_off_c, 1, 67, 64
3, 332144, Note_on_c, 1, 69, 87
3, 332144, Note_on_c, 1, 67, 87
3, 332524, Note_off_c, 1, 69, 64
3, 332524, Note_off_c, 1, 67, 64
3, 332528, Note_on_c, 1, 67, 87
3, 332544, Note_on_c, 1, 69, 87
3, 332908, Note_off_c, 1, 67, 64
3, 332924, Note_off_c, 1, 69, 64
3, 332928, Note_on_c, 1, 69, 87
3, 332928, Note_on_c, 1, 67, 87
3, 333308, Note_off_c, 1, 69, 64
3, 333308, Note_off_c, 1, 67, 64
3, 333312, Note_on_c, 1, 71, 87
3, 333312, Note_on_c, 1, 67, 87
3, 333500, Note_off_c, 1, 71, 64
3, 333500, Note_off_c, 1, 67, 64
3, 333504, Note_on_c, 1, 67, 87
3, 333504, Note_on_c, 1, 59, 87
3, 333692, Note_off_c, 1, 67, 64
3, 333692, Note_off_c, 1, 59, 64
3, 333696, Note_on_c, 1, 67, 87
3, 333696, Note_on_c, 1, 59, 87
3, 333884, Note_off_c, 1, 67, 64
3, 333884, Note_off_c, 1, 59, 64
3, 333888, Note_on_c, 1, 67, 87
3, 333888, Note_on_c, 1, 59, 87
3, 334076, Note_off_c, 1, 67, 64
3, 334076, Note_off_c, 1, 59, 64
3, 334080, Note_on_c, 1, 67, 87
3, 334080, Note_on_c, 1, 60, 87
3, 334268, Note_off_c, 1, 67, 64
3, 334268, Note_off_c, 1, 60, 64
3, 334272, Note_on_c, 1, 67, 87
3, 334272, Note_on_c, 1, 60, 87
3, 334460, Note_off_c, 1, 67, 64
3, 334460, Note_off_c, 1, 60, 64
3, 334464, Note_on_c, 1, 67, 87
3, 334464, Note_on_c, 1, 60, 87
3, 334652, Note_off_c, 1, 67, 64
3, 334652, Note_off_c, 1, 60, 64
3, 334656, Note_on_c, 1, 67, 87
3, 334656, Note_on_c, 1, 60, 87
3, 334844, Note_off_c, 1, 67, 64
3, 334844, Note_off_c, 1, 60, 64
3, 334848, Note_on_c, 1, 67, 87
3, 334848, Note_on_c, 1, 59, 87
3, 335228, Note_off_c, 1, 67, 64
3, 335228, Note_off_c, 1, 59, 64
3, 335424, Note_on_c, 1, 81, 97
3, 335460, Note_off_c, 1, 81, 64
3, 335472, Note_on_c, 1, 79, 87
3, 335520, Note_off_c, 1, 79, 64
3, 335520, Note_on_c, 1, 78, 87
3, 335608, Note_off_c, 1, 78, 64
3, 335616, Note_on_c, 1, 79, 87
3, 335716, Note_off_c, 1, 79, 64
3, 335808, Note_on_c, 1, 79, 87
3, 335908, Note_off_c, 1, 79, 64
3, 336000, Note_on_c, 1, 79, 87
3, 336100, Note_off_c, 1, 79, 64
3, 336192, Note_on_c, 1, 79, 87
3, 336292, Note_off_c, 1, 79, 64
3, 336384, Note_on_c, 1, 78, 97
3, 336424, Note_off_c, 1, 78, 64
3, 336432, Note_on_c, 1, 79, 87
3, 336476, Note_off_c, 1, 79, 64
3, 336480, Note_on_c, 1, 81, 87
3, 336760, Note_off_c, 1, 81, 64
3, 336960, Note_on_c, 1, 84, 87
3, 337056, Note_off_c, 1, 84, 64
3, 337056, Note_on_c, 1, 83, 87
3, 337144, Note_off_c, 1, 83, 64
3, 337152, Note_on_c, 1, 84, 87
3, 337252, Note_off_c, 1, 84, 64
3, 337344, Note_on_c, 1, 84, 87
3, 337444, Note_off_c, 1, 84, 64
3, 337536, Note_on_c, 1, 84, 87
3, 337636, Note_off_c, 1, 84, 64
3, 337728, Note_on_c, 1, 84, 87
3, 337828, Note_off_c, 1, 84, 64
3, 337920, Note_on_c, 1, 83, 97
3, 337960, Note_off_c, 1, 83, 64
3, 337968, Note_on_c, 1, 84, 87
3, 338012, Note_off_c, 1, 84, 64
3, 338016, Note_on_c, 1, 86, 87
3, 338104, Note_off_c, 1, 86, 64
3, 338496, Note_on_c, 1, 69, 97
3, 338532, Note_off_c, 1, 69, 64
3, 338544, Note_on_c, 1, 67, 87
3, 338592, Note_off_c, 1, 67, 64
3, 338592, Note_on_c, 1, 66, 87
3, 338680, Note_off_c, 1, 66, 64
3, 338688, Note_on_c, 1, 67, 87
3, 338788, Note_off_c, 1, 67, 64
3, 338880, Note_on_c, 1, 67, 87
3, 338980, Note_off_c, 1, 67, 64
3, 339072, Note_on_c, 1, 67, 87
3, 339172, Note_off_c, 1, 67, 64
3, 339264, Note_on_c, 1, 67, 87
3, 339364, Note_off_c, 1, 67, 64
3, 339456, Note_on_c, 1, 66, 97
3, 339496, Note_off_c, 1, 66, 64
3, 339504, Note_on_c, 1, 67, 87
3, 339548, Note_off_c, 1, 67, 64
3, 339568, Note_on_c, 1, 69, 87
3, 339852, Note_off_c, 1, 69, 64
3, 340032, Note_on_c, 1, 72, 87
3, 340128, Note_off_c, 1, 72, 64
3, 340128, Note_on_c, 1, 71, 87
3, 340216, Note_off_c, 1, 71, 64
3, 340224, Note_on_c, 1, 72, 87
3, 340324, Note_off_c, 1, 72, 64
3, 340416, Note_on_c, 1, 72, 87
3, 340516, Note_off_c, 1, 72, 64
3, 340608, Note_on_c, 1, 72, 87
3, 340708, Note_off_c, 1, 72, 64
3, 340800, Note_on_c, 1, 72, 87
3, 340900, Note_off_c, 1, 72, 64
3, 340992, Note_on_c, 1, 71, 87
3, 341092, Note_off_c, 1, 71, 64
3, 341184, Note_on_c, 1, 74, 87
3, 341184, Note_on_c, 1, 71, 87
3, 341284, Note_off_c, 1, 74, 64
3, 341284, Note_off_c, 1, 71, 64
3, 341376, Note_on_c, 1, 76, 87
3, 341376, Note_on_c, 1, 72, 87
3, 341476, Note_off_c, 1, 76, 64
3, 341476, Note_off_c, 1, 72, 64
3, 341568, Note_on_c, 1, 72, 87
3, 341568, Note_on_c, 1, 67, 87
3, 341668, Note_off_c, 1, 72, 64
3, 341668, Note_off_c, 1, 67, 64
3, 341760, Note_on_c, 1, 74, 87
3, 341760, Note_on_c, 1, 71, 87
3, 341860, Note_off_c, 1, 74, 64
3, 341860, Note_off_c, 1, 71, 64
3, 341952, Note_on_c, 1, 71, 87
3, 341952, Note_on_c, 1, 67, 87
3, 342052, Note_off_c, 1, 71, 64
3, 342052, Note_off_c, 1, 67, 64
3, 342144, Note_on_c, 1, 76, 87
3, 342144, Note_on_c, 1, 72, 87
3, 342244, Note_off_c, 1, 76, 64
3, 342244, Note_off_c, 1, 72, 64
3, 342336, Note_on_c, 1, 72, 87
3, 342336, Note_on_c, 1, 67, 87
3, 342436, Note_off_c, 1, 72, 64
3, 342436, Note_off_c, 1, 67, 64
3, 342528, Note_on_c, 1, 74, 87
3, 342528, Note_on_c, 1, 71, 87
3, 342576, Note_off_c, 1, 74, 64
3, 342576, Note_off_c, 1, 71, 64
3, 342624, Note_on_c, 1, 72, 87
3, 342624, Note_on_c, 1, 69, 87
3, 342672, Note_off_c, 1, 72, 64
3, 342672, Note_off_c, 1, 69, 64
3, 342720, Note_on_c, 1, 74, 87
3, 342720, Note_on_c, 1, 71, 87
3, 342768, Note_off_c, 1, 74, 64
3, 342768, Note_off_c, 1, 71, 64
3, 342816, Note_on_c, 1, 67, 87
3, 342864, Note_off_c, 1, 67, 64
3, 342912, Note_on_c, 1, 76, 87
3, 342912, Note_on_c, 1, 72, 87
3, 342960, Note_off_c, 1, 76, 64
3, 342960, Note_off_c, 1, 72, 64
3, 343008, Note_on_c, 1, 74, 87
3, 343008, Note_on_c, 1, 71, 87
3, 343056, Note_off_c, 1, 74, 64
3, 343056, Note_off_c, 1, 71, 64
3, 343104, Note_on_c, 1, 76, 87
3, 343104, Note_on_c, 1, 72, 87
3, 343152, Note_off_c, 1, 76, 64
3, 343152, Note_off_c, 1, 72, 64
3, 343200, Note_on_c, 1, 67, 87
3, 343248, Note_off_c, 1, 67, 64
3, 343296, Note_on_c, 1, 74, 87
3, 343296, Note_on_c, 1, 71, 87
3, 343344, Note_off_c, 1, 74, 64
3, 343344, Note_off_c, 1, 71, 64
3, 343392, Note_on_c, 1, 72, 87
3, 343392, Note_on_c, 1, 69, 87
3, 343440, Note_off_c, 1, 72, 64
3, 343440, Note_off_c, 1, 69, 64
3, 343488, Note_on_c, 1, 74, 87
3, 343488, Note_on_c, 1, 71, 87
3, 343536, Note_off_c, 1, 74, 64
3, 343536, Note_off_c, 1, 71, 64
3, 343584, Note_on_c, 1, 67, 87
3, 343632, Note_off_c, 1, 67, 64
3, 343680, Note_on_c, 1, 76, 87
3, 343680, Note_on_c, 1, 72, 87
3, 343728, Note_off_c, 1, 76, 64
3, 343728, Note_off_c, 1, 72, 64
3, 343776, Note_on_c, 1, 74, 87
3, 343776, Note_on_c, 1, 71, 87
3, 343824, Note_off_c, 1, 74, 64
3, 343824, Note_off_c, 1, 71, 64
3, 343872, Note_on_c, 1, 76, 87
3, 343872, Note_on_c, 1, 72, 87
3, 343920, Note_off_c, 1, 76, 64
3, 343920, Note_off_c, 1, 72, 64
3, 343968, Note_on_c, 1, 67, 87
3, 344016, Note_off_c, 1, 67, 64
3, 344064, Note_on_c, 1, 74, 87
3, 344064, Note_on_c, 1, 71, 87
3, 344164, Note_off_c, 1, 74, 64
3, 344164, Note_off_c, 1, 71, 64
3, 344448, Note_on_c, 1, 76, 87
3, 344448, Note_on_c, 1, 72, 87
3, 344548, Note_off_c, 1, 76, 64
3, 344548, Note_off_c, 1, 72, 64
3, 345792, Note_on_c, 1, 69, 87
3, 345792, Note_on_c, 1, 66, 87
3, 345984, Note_off_c, 1, 69, 64
3, 345984, Note_off_c, 1, 66, 64
3, 345984, Note_on_c, 1, 67, 87
3, 346168, Note_off_c, 1, 67, 64
3, 346176, Note_on_c, 1, 67, 87
3, 346276, Note_off_c, 1, 67, 64
3, 346368, Note_on_c, 1, 67, 87
3, 346468, Note_off_c, 1, 67, 64
3, 346560, Note_on_c, 1, 67, 87
3, 346660, Note_off_c, 1, 67, 64
3, 346752, Note_on_c, 1, 66, 87
3, 346852, Note_off_c, 1, 66, 64
3, 346944, Note_on_c, 1, 66, 87
3, 347044, Note_off_c, 1, 66, 64
3, 347136, Note_on_c, 1, 67, 87
3, 347236, Note_off_c, 1, 67, 64
3, 347520, Note_on_c, 1, 67, 87
3, 347520, Note_on_c, 1, 64, 87
3, 347620, Note_off_c, 1, 67, 64
3, 347620, Note_off_c, 1, 64, 64
3, 349440, Note_on_c, 1, 74, 81
3, 349440, Note_on_c, 1, 86, 81
3, 349632, Note_on_c, 1, 71, 81
3, 349732, Note_off_c, 1, 71, 64
3, 349824, Note_on_c, 1, 72, 81
3, 349924, Note_off_c, 1, 72, 64
3, 350016, Note_on_c, 1, 69, 81
3, 350116, Note_off_c, 1, 69, 64
3, 350208, Note_on_c, 1, 71, 81
3, 350308, Note_off_c, 1, 71, 64
3, 350400, Note_on_c, 1, 66, 81
3, 350500, Note_off_c, 1, 66, 64
3, 350592, Note_on_c, 1, 67, 81
3, 350692, Note_off_c, 1, 67, 64
3, 350784, Note_on_c, 1, 69, 81
3, 350884, Note_off_c, 1, 69, 64
3, 350976, Note_on_c, 1, 71, 81
3, 351168, Note_off_c, 1, 71, 64
3, 351168, Note_on_c, 1, 70, 81
3, 351356, Note_off_c, 1, 70, 64
3, 351360, Note_on_c, 1, 71, 81
3, 351548, Note_off_c, 1, 71, 64
3, 351552, Note_on_c, 1, 70, 81
3, 351736, Note_off_c, 1, 70, 64
3, 351740, Note_off_c, 1, 74, 64
3, 351740, Note_off_c, 1, 86, 64
3, 351744, Note_on_c, 1, 71, 87
3, 351744, Note_on_c, 1, 67, 87
3, 351836, Note_off_c, 1, 71, 64
3, 351836, Note_off_c, 1, 67, 64
3, 351840, Note_on_c, 1, 62, 87
3, 351932, Note_off_c, 1, 62, 64
3, 351936, Note_on_c, 1, 71, 87
3, 351936, Note_on_c, 1, 67, 87
3, 352028, Note_off_c, 1, 71, 64
3, 352028, Note_off_c, 1, 67, 64
3, 352032, Note_on_c, 1, 62, 87
3, 352124, Note_off_c, 1, 62, 64
3, 352128, Note_on_c, 1, 71, 87
3, 352128, Note_on_c, 1, 67, 87
3, 352220, Note_off_c, 1, 71, 64
3, 352220, Note_off_c, 1, 67, 64
3, 352224, Note_on_c, 1, 62, 87
3, 352316, Note_off_c, 1, 62, 64
3, 352320, Note_on_c, 1, 71, 87
3, 352320, Note_on_c, 1, 67, 87
3, 352412, Note_off_c, 1, 71, 64
3, 352412, Note_off_c, 1, 67, 64
3, 352416, Note_on_c, 1, 62, 87
3, 352508, Note_off_c, 1, 62, 64
3, 352512, Note_on_c, 1, 71, 72
3, 352512, Note_on_c, 1, 67, 72
3, 352604, Note_off_c, 1, 71, 64
3, 352604, Note_off_c, 1, 67, 64
3, 352608, Note_on_c, 1, 62, 72
3, 352700, Note_off_c, 1, 62, 64
3, 352704, Note_on_c, 1, 71, 73
3, 352704, Note_on_c, 1, 67, 73
3, 352796, Note_off_c, 1, 71, 64
3, 352796, Note_off_c, 1, 67, 64
3, 352800, Note_on_c, 1, 62, 74
3, 352892, Note_off_c, 1, 62, 64
3, 352896, Note_on_c, 1, 71, 75
3, 352896, Note_on_c, 1, 67, 75
3, 352988, Note_off_c, 1, 71, 64
3, 352988, Note_off_c, 1, 67, 64
3, 352992, Note_on_c, 1, 62, 76
3, 353084, Note_off_c, 1, 62, 64
3, 353088, Note_on_c, 1, 71, 77
3, 353088, Note_on_c, 1, 67, 77
3, 353180, Note_off_c, 1, 71, 64
3, 353180, Note_off_c, 1, 67, 64
3, 353184, Note_on_c, 1, 62, 77
3, 353276, Note_off_c, 1, 62, 64
3, 353280, Note_on_c, 1, 72, 78
3, 353280, Note_on_c, 1, 69, 78
3, 353280, Note_on_c, 1, 66, 78
3, 353372, Note_off_c, 1, 72, 64
3, 353372, Note_off_c, 1, 69, 64
3, 353372, Note_off_c, 1, 66, 64
3, 353376, Note_on_c, 1, 62, 79
3, 353468, Note_off_c, 1, 62, 64
3, 353472, Note_on_c, 1, 72, 80
3, 353472, Note_on_c, 1, 69, 80
3, 353472, Note_on_c, 1, 66, 80
3, 353564, Note_off_c, 1, 72, 64
3, 353564, Note_off_c, 1, 69, 64
3, 353564, Note_off_c, 1, 66, 64
3, 353568, Note_on_c, 1, 62, 81
3, 353660, Note_off_c, 1, 62, 64
3, 353664, Note_on_c, 1, 72, 82
3, 353664, Note_on_c, 1, 69, 82
3, 353664, Note_on_c, 1, 66, 82
3, 353756, Note_off_c, 1, 72, 64
3, 353756, Note_off_c, 1, 69, 64
3, 353756, Note_off_c, 1, 66, 64
3, 353760, Note_on_c, 1, 62, 82
3, 353852, Note_off_c, 1, 62, 64
3, 353856, Note_on_c, 1, 72, 84
3, 353856, Note_on_c, 1, 69, 84
3, 353856, Note_on_c, 1, 66, 84
3, 353948, Note_off_c, 1, 72, 64
3, 353948, Note_off_c, 1, 69, 64
3, 353948, Note_off_c, 1, 66, 64
3, 353952, Note_on_c, 1, 62, 85
3, 354032, Note_on_c, 1, 72, 86
3, 354044, Note_off_c, 1, 62, 64
3, 354048, Note_on_c, 1, 78, 86
3, 354048, Note_on_c, 1, 74, 86
3, 354124, Note_off_c, 1, 72, 64
3, 354140, Note_off_c, 1, 78, 64
3, 354140, Note_off_c, 1, 74, 64
3, 354144, Note_on_c, 1, 69, 87
3, 354236, Note_off_c, 1, 69, 64
3, 354240, Note_on_c, 1, 78, 88
3, 354240, Note_on_c, 1, 74, 88
3, 354240, Note_on_c, 1, 72, 88
3, 354332, Note_off_c, 1, 78, 64
3, 354332, Note_off_c, 1, 74, 64
3, 354332, Note_off_c, 1, 72, 64
3, 354336, Note_on_c, 1, 69, 88
3, 354428, Note_off_c, 1, 69, 64
3, 354432, Note_on_c, 1, 78, 89
3, 354432, Note_on_c, 1, 74, 89
3, 354432, Note_on_c, 1, 72, 89
3, 354524, Note_off_c, 1, 78, 64
3, 354524, Note_off_c, 1, 74, 64
3, 354524, Note_off_c, 1, 72, 64
3, 354528, Note_on_c, 1, 69, 90
3, 354620, Note_off_c, 1, 69, 64
3, 354624, Note_on_c, 1, 78, 91
3, 354624, Note_on_c, 1, 74, 91
3, 354624, Note_on_c, 1, 72, 91
3, 354716, Note_off_c, 1, 78, 64
3, 354716, Note_off_c, 1, 74, 64
3, 354716, Note_off_c, 1, 72, 64
3, 354720, Note_on_c, 1, 69, 92
3, 354812, Note_off_c, 1, 69, 64
3, 354816, Note_on_c, 1, 79, 92
3, 354816, Note_on_c, 1, 74, 92
3, 354816, Note_on_c, 1, 71, 92
3, 354816, Note_on_c, 1, 67, 92
3, 355004, Note_off_c, 1, 79, 64
3, 355004, Note_off_c, 1, 74, 64
3, 355004, Note_off_c, 1, 71, 64
3, 355004, Note_off_c, 1, 67, 64
3, 355008, Note_on_c, 1, 67, 92
3, 355100, Note_off_c, 1, 67, 64
3, 355104, Note_on_c, 1, 67, 92
3, 355196, Note_off_c, 1, 67, 64
3, 355200, Note_on_c, 1, 67, 92
3, 355388, Note_off_c, 1, 67, 64
3, 355392, Note_on_c, 1, 71, 92
3, 355392, Note_on_c, 1, 67, 92
3, 355392, Note_on_c, 1, 62, 92
3, 355580, Note_off_c, 1, 71, 64
3, 355580, Note_off_c, 1, 67, 64
3, 355580, Note_off_c, 1, 62, 64
3, 355584, Note_on_c, 1, 72, 92
3, 355584, Note_on_c, 1, 64, 92
3, 355584, Note_on_c, 1, 67, 92
3, 355772, Note_off_c, 1, 72, 64
3, 355772, Note_off_c, 1, 64, 64
3, 355772, Note_off_c, 1, 67, 64
3, 355776, Note_on_c, 1, 67, 92
3, 355868, Note_off_c, 1, 67, 64
3, 355872, Note_on_c, 1, 67, 92
3, 355964, Note_off_c, 1, 67, 64
3, 355968, Note_on_c, 1, 67, 92
3, 356156, Note_off_c, 1, 67, 64
3, 356160, Note_on_c, 1, 72, 92
3, 356160, Note_on_c, 1, 67, 92
3, 356160, Note_on_c, 1, 64, 92
3, 356348, Note_off_c, 1, 72, 64
3, 356348, Note_off_c, 1, 67, 64
3, 356348, Note_off_c, 1, 64, 64
3, 356352, Note_on_c, 1, 74, 92
3, 356352, Note_on_c, 1, 67, 92
3, 356352, Note_on_c, 1, 62, 92
3, 356540, Note_off_c, 1, 74, 64
3, 356540, Note_off_c, 1, 67, 64
3, 356540, Note_off_c, 1, 62, 64
3, 356544, Note_on_c, 1, 74, 92
3, 356636, Note_off_c, 1, 74, 64
3, 356640, Note_on_c, 1, 74, 92
3, 356732, Note_off_c, 1, 74, 64
3, 356736, Note_on_c, 1, 74, 92
3, 356924, Note_off_c, 1, 74, 64
3, 356928, Note_on_c, 1, 74, 92
3, 356928, Note_on_c, 1, 79, 92
3, 356928, Note_on_c, 1, 86, 92
3, 357104, Note_on_c, 1, 74, 92
3, 357116, Note_off_c, 1, 74, 64
3, 357116, Note_off_c, 1, 79, 64
3, 357116, Note_off_c, 1, 86, 64
3, 357120, Note_on_c, 1, 84, 92
3, 357120, Note_on_c, 1, 81, 92
3, 357292, Note_off_c, 1, 74, 64
3, 357308, Note_off_c, 1, 84, 64
3, 357308, Note_off_c, 1, 81, 64
3, 357312, Note_on_c, 1, 74, 92
3, 357404, Note_off_c, 1, 74, 64
3, 357408, Note_on_c, 1, 74, 92
3, 357500, Note_off_c, 1, 74, 64
3, 357504, Note_on_c, 1, 74, 92
3, 357692, Note_off_c, 1, 74, 64
3, 357696, Note_on_c, 1, 74, 92
3, 357696, Note_on_c, 1, 81, 92
3, 357696, Note_on_c, 1, 84, 92
3, 357884, Note_off_c, 1, 74, 64
3, 357884, Note_off_c, 1, 81, 64
3, 357884, Note_off_c, 1, 84, 64
3, 357888, Note_on_c, 1, 83, 92
3, 357888, Note_on_c, 1, 79, 92
3, 357888, Note_on_c, 1, 74, 92
3, 358076, Note_off_c, 1, 83, 64
3, 358076, Note_off_c, 1, 79, 64
3, 358076, Note_off_c, 1, 74, 64
3, 358080, Note_on_c, 1, 79, 92
3, 358080, Note_on_c, 1, 71, 92
3, 358080, Note_on_c, 1, 67, 92
3, 358460, Note_off_c, 1, 79, 64
3, 358460, Note_off_c, 1, 71, 64
3, 358460, Note_off_c, 1, 67, 64
3, 358464, Note_on_c, 1, 79, 92
3, 358464, Note_on_c, 1, 71, 92
3, 358464, Note_on_c, 1, 67, 92
3, 358832, Note_on_c, 1, 71, 92
3, 358844, Note_off_c, 1, 79, 64
3, 358844, Note_off_c, 1, 71, 64
3, 358844, Note_off_c, 1, 67, 64
3, 358848, Note_on_c, 1, 79, 92
3, 358848, Note_on_c, 1, 67, 92
3, 359212, Note_off_c, 1, 71, 64
3, 359228, Note_off_c, 1, 79, 64
3, 359228, Note_off_c, 1, 67, 64
3, 359232, Note_on_c, 1, 79, 92
3, 359232, Note_on_c, 1, 71, 92
3, 359232, Note_on_c, 1, 67, 92
3, 359420, Note_off_c, 1, 79, 64
3, 359420, Note_off_c, 1, 71, 64
3, 359420, Note_off_c, 1, 67, 64
3, 359424, Note_on_c, 1, 79, 92
3, 359424, Note_on_c, 1, 69, 92
3, 359424, Note_on_c, 1, 67, 92
3, 359612, Note_off_c, 1, 79, 64
3, 359612, Note_off_c, 1, 69, 64
3, 359612, Note_off_c, 1, 67, 64
3, 359616, Note_on_c, 1, 79, 92
3, 359616, Note_on_c, 1, 69, 92
3, 359616, Note_on_c, 1, 67, 92
3, 359984, Note_on_c, 1, 79, 92
3, 359996, Note_off_c, 1, 79, 64
3, 359996, Note_off_c, 1, 69, 64
3, 359996, Note_off_c, 1, 67, 64
3, 360000, Note_on_c, 1, 69, 92
3, 360000, Note_on_c, 1, 67, 92
3, 360364, Note_off_c, 1, 79, 64
3, 360368, Note_on_c, 1, 79, 92
3, 360368, Note_on_c, 1, 69, 92
3, 360380, Note_off_c, 1, 69, 64
3, 360380, Note_off_c, 1, 67, 64
3, 360384, Note_on_c, 1, 67, 92
3, 360748, Note_off_c, 1, 79, 64
3, 360748, Note_off_c, 1, 69, 64
3, 360764, Note_off_c, 1, 67, 64
3, 360768, Note_on_c, 1, 79, 92
3, 360768, Note_on_c, 1, 69, 92
3, 360768, Note_on_c, 1, 67, 92
3, 360956, Note_off_c, 1, 79, 64
3, 360956, Note_off_c, 1, 69, 64
3, 360956, Note_off_c, 1, 67, 64
3, 360960, Note_on_c, 1, 79, 92
3, 360960, Note_on_c, 1, 71, 92
3, 360960, Note_on_c, 1, 67, 92
3, 361532, Note_off_c, 1, 79, 64
3, 361532, Note_off_c, 1, 71, 64
3, 361532, Note_off_c, 1, 67, 64
3, 444288, Note_on_c, 1, 74, 92
3, 444288, Note_on_c, 1, 71, 92
3, 444288, Note_on_c, 1, 67, 92
3, 444288, Note_on_c, 1, 79, 92
3, 444476, Note_off_c, 1, 74, 64
3, 444476, Note_off_c, 1, 71, 64
3, 444476, Note_off_c, 1, 67, 64
3, 444480, Note_on_c, 1, 74, 92
3, 444480, Note_on_c, 1, 71, 92
3, 444480, Note_on_c, 1, 67, 92
3, 444572, Note_off_c, 1, 74, 64
3, 444572, Note_off_c, 1, 71, 64
3, 444572, Note_off_c, 1, 67, 64
3, 444576, Note_on_c, 1, 74, 92
3, 444576, Note_on_c, 1, 71, 92
3, 444576, Note_on_c, 1, 67, 92
3, 444668, Note_off_c, 1, 79, 64
3, 444668, Note_off_c, 1, 74, 64
3, 444668, Note_off_c, 1, 71, 64
3, 444668, Note_off_c, 1, 67, 64
3, 444672, Note_on_c, 1, 74, 92
3, 444672, Note_on_c, 1, 71, 92
3, 444672, Note_on_c, 1, 67, 92
3, 444860, Note_off_c, 1, 74, 64
3, 444860, Note_off_c, 1, 71, 64
3, 444860, Note_off_c, 1, 67, 64
3, 444864, Note_on_c, 1, 74, 92
3, 444864, Note_on_c, 1, 71, 92
3, 444864, Note_on_c, 1, 67, 92
3, 444864, Note_on_c, 1, 62, 92
3, 444944, Note_on_c, 1, 67, 92
3, 444956, Note_off_c, 1, 74, 64
3, 444956, Note_off_c, 1, 71, 64
3, 444956, Note_off_c, 1, 67, 64
3, 444956, Note_off_c, 1, 62, 64
3, 444960, Note_on_c, 1, 79, 92
3, 444960, Note_on_c, 1, 71, 92
3, 444960, Note_on_c, 1, 62, 92
3, 445036, Note_off_c, 1, 67, 64
3, 445052, Note_off_c, 1, 79, 64
3, 445052, Note_off_c, 1, 71, 64
3, 445052, Note_off_c, 1, 62, 64
3, 445056, Note_on_c, 1, 83, 92
3, 445056, Note_on_c, 1, 71, 92
3, 445056, Note_on_c, 1, 67, 92
3, 445056, Note_on_c, 1, 62, 92
3, 445232, Note_on_c, 1, 71, 92
3, 445232, Note_on_c, 1, 67, 92
3, 445232, Note_on_c, 1, 62, 92
3, 445244, Note_off_c, 1, 83, 64
3, 445244, Note_off_c, 1, 71, 64
3, 445244, Note_off_c, 1, 67, 64
3, 445244, Note_off_c, 1, 62, 64
3, 445248, Note_on_c, 1, 79, 92
3, 445324, Note_off_c, 1, 71, 64
3, 445324, Note_off_c, 1, 67, 64
3, 445324, Note_off_c, 1, 62, 64
3, 445340, Note_off_c, 1, 79, 64
3, 445344, Note_on_c, 1, 83, 92
3, 445344, Note_on_c, 1, 71, 92
3, 445344, Note_on_c, 1, 67, 92
3, 445344, Note_on_c, 1, 62, 92
3, 445424, Note_on_c, 1, 62, 92
3, 445436, Note_off_c, 1, 83, 64
3, 445436, Note_off_c, 1, 71, 64
3, 445436, Note_off_c, 1, 67, 64
3, 445436, Note_off_c, 1, 62, 64
3, 445440, Note_on_c, 1, 86, 92
3, 445440, Note_on_c, 1, 71, 92
3, 445440, Note_on_c, 1, 67, 92
3, 445600, Note_on_c, 1, 71, 92
3, 445612, Note_off_c, 1, 62, 64
3, 445616, Note_on_c, 1, 67, 92
3, 445616, Note_on_c, 1, 62, 92
3, 445628, Note_off_c, 1, 86, 64
3, 445628, Note_off_c, 1, 71, 64
3, 445628, Note_off_c, 1, 67, 64
3, 445632, Note_on_c, 1, 83, 92
3, 445692, Note_off_c, 1, 71, 64
3, 445708, Note_off_c, 1, 67, 64
3, 445708, Note_off_c, 1, 62, 64
3, 445724, Note_off_c, 1, 83, 64
3, 445728, Note_on_c, 1, 86, 92
3, 445728, Note_on_c, 1, 71, 92
3, 445728, Note_on_c, 1, 67, 92
3, 445728, Note_on_c, 1, 62, 92
3, 445820, Note_off_c, 1, 86, 64
3, 445820, Note_off_c, 1, 71, 64
3, 445820, Note_off_c, 1, 67, 64
3, 445820, Note_off_c, 1, 62, 64
3, 445824, Note_on_c, 1, 81, 92
3, 445824, Note_on_c, 1, 78, 92
3, 445824, Note_on_c, 1, 74, 92
3, 445824, Note_on_c, 1, 84, 92
3, 446012, Note_off_c, 1, 81, 64
3, 446012, Note_off_c, 1, 78, 64
3, 446012, Note_off_c, 1, 74, 64
3, 446016, Note_on_c, 1, 81, 92
3, 446016, Note_on_c, 1, 78, 92
3, 446016, Note_on_c, 1, 74, 92
3, 446108, Note_off_c, 1, 81, 64
3, 446108, Note_off_c, 1, 78, 64
3, 446108, Note_off_c, 1, 74, 64
3, 446112, Note_on_c, 1, 81, 92
3, 446112, Note_on_c, 1, 78, 92
3, 446112, Note_on_c, 1, 74, 92
3, 446204, Note_off_c, 1, 81, 64
3, 446204, Note_off_c, 1, 78, 64
3, 446204, Note_off_c, 1, 74, 64
3, 446208, Note_on_c, 1, 81, 92
3, 446208, Note_on_c, 1, 78, 92
3, 446208, Note_on_c, 1, 74, 92
3, 446208, Note_on_c, 1, 62, 92
3, 446384, Note_on_c, 1, 72, 92
3, 446384, Note_on_c, 1, 69, 92
3, 446396, Note_off_c, 1, 84, 64
3, 446396, Note_off_c, 1, 81, 64
3, 446396, Note_off_c, 1, 78, 64
3, 446396, Note_off_c, 1, 74, 64
3, 446396, Note_off_c, 1, 62, 64
3, 446400, Note_on_c, 1, 81, 92
3, 446400, Note_on_c, 1, 66, 92
3, 446400, Note_on_c, 1, 62, 92
3, 446476, Note_off_c, 1, 72, 64
3, 446476, Note_off_c, 1, 69, 64
3, 446492, Note_off_c, 1, 66, 64
3, 446492, Note_off_c, 1, 62, 64
3, 446496, Note_on_c, 1, 72, 92
3, 446496, Note_on_c, 1, 69, 92
3, 446496, Note_on_c, 1, 66, 92
3, 446496, Note_on_c, 1, 62, 92
3, 446576, Note_on_c, 1, 72, 92
3, 446576, Note_on_c, 1, 66, 92
3, 446588, Note_off_c, 1, 81, 64
3, 446588, Note_off_c, 1, 72, 64
3, 446588, Note_off_c, 1, 69, 64
3, 446588, Note_off_c, 1, 66, 64
3, 446588, Note_off_c, 1, 62, 64
3, 446592, Note_on_c, 1, 79, 92
3, 446592, Note_on_c, 1, 69, 92
3, 446592, Note_on_c, 1, 62, 92
3, 446684, Note_off_c, 1, 79, 64
3, 446688, Note_on_c, 1, 78, 92
3, 446764, Note_off_c, 1, 72, 64
3, 446764, Note_off_c, 1, 66, 64
3, 446768, Note_on_c, 1, 69, 92
3, 446768, Note_on_c, 1, 62, 92
3, 446780, Note_off_c, 1, 69, 64
3, 446780, Note_off_c, 1, 62, 64
3, 446780, Note_off_c, 1, 78, 64
3, 446784, Note_on_c, 1, 76, 92
3, 446784, Note_on_c, 1, 72, 92
3, 446784, Note_on_c, 1, 66, 92
3, 446860, Note_off_c, 1, 69, 64
3, 446860, Note_off_c, 1, 62, 64
3, 446864, Note_on_c, 1, 72, 92
3, 446864, Note_on_c, 1, 69, 92
3, 446864, Note_on_c, 1, 66, 92
3, 446864, Note_on_c, 1, 62, 92
3, 446876, Note_off_c, 1, 76, 64
3, 446876, Note_off_c, 1, 72, 64
3, 446876, Note_off_c, 1, 66, 64
3, 446880, Note_on_c, 1, 78, 92
3, 446956, Note_off_c, 1, 72, 64
3, 446956, Note_off_c, 1, 69, 64
3, 446956, Note_off_c, 1, 66, 64
3, 446956, Note_off_c, 1, 62, 64
3, 446972, Note_off_c, 1, 78, 64
3, 446976, Note_on_c, 1, 79, 92
3, 446976, Note_on_c, 1, 72, 92
3, 446976, Note_on_c, 1, 69, 92
3, 446976, Note_on_c, 1, 66, 92
3, 446976, Note_on_c, 1, 62, 92
3, 447068, Note_off_c, 1, 79, 64
3, 447072, Note_on_c, 1, 78, 92
3, 447152, Note_on_c, 1, 72, 92
3, 447152, Note_on_c, 1, 69, 92
3, 447152, Note_on_c, 1, 66, 92
3, 447152, Note_on_c, 1, 62, 92
3, 447164, Note_off_c, 1, 72, 64
3, 447164, Note_off_c, 1, 69, 64
3, 447164, Note_off_c, 1, 66, 64
3, 447164, Note_off_c, 1, 62, 64
3, 447164, Note_off_c, 1, 78, 64
3, 447168, Note_on_c, 1, 76, 92
3, 447244, Note_off_c, 1, 72, 64
3, 447244, Note_off_c, 1, 69, 64
3, 447244, Note_off_c, 1, 66, 64
3, 447244, Note_off_c, 1, 62, 64
3, 447248, Note_on_c, 1, 69, 92
3, 447248, Note_on_c, 1, 66, 92
3, 447248, Note_on_c, 1, 62, 92
3, 447260, Note_off_c, 1, 76, 64
3, 447264, Note_on_c, 1, 78, 92
3, 447264, Note_on_c, 1, 72, 92
3, 447340, Note_off_c, 1, 69, 64
3, 447340, Note_off_c, 1, 66, 64
3, 447340, Note_off_c, 1, 62, 64
3, 447356, Note_off_c, 1, 78, 64
3, 447356, Note_off_c, 1, 72, 64
3, 447360, Note_on_c, 1, 74, 92
3, 447360, Note_on_c, 1, 71, 92
3, 447360, Note_on_c, 1, 79, 92
3, 447548, Note_off_c, 1, 74, 64
3, 447548, Note_off_c, 1, 71, 64
3, 447552, Note_on_c, 1, 74, 92
3, 447552, Note_on_c, 1, 71, 92
3, 447644, Note_off_c, 1, 74, 64
3, 447644, Note_off_c, 1, 71, 64
3, 447648, Note_on_c, 1, 74, 92
3, 447648, Note_on_c, 1, 71, 92
3, 447740, Note_off_c, 1, 79, 64
3, 447740, Note_off_c, 1, 74, 64
3, 447740, Note_off_c, 1, 71, 64
3, 447744, Note_on_c, 1, 71, 92
3, 447744, Note_on_c, 1, 74, 92
3, 447920, Note_on_c, 1, 67, 92
3, 447920, Note_on_c, 1, 62, 92
3, 447932, Note_off_c, 1, 71, 64
3, 447932, Note_off_c, 1, 74, 64
3, 447936, Note_on_c, 1, 74, 92
3, 447936, Note_on_c, 1, 71, 92
3, 448012, Note_off_c, 1, 67, 64
3, 448012, Note_off_c, 1, 62, 64
3, 448028, Note_off_c, 1, 74, 64
3, 448028, Note_off_c, 1, 71, 64
3, 448032, Note_on_c, 1, 79, 92
3, 448032, Note_on_c, 1, 71, 92
3, 448032, Note_on_c, 1, 67, 92
3, 448032, Note_on_c, 1, 62, 92
3, 448124, Note_off_c, 1, 79, 64
3, 448124, Note_off_c, 1, 71, 64
3, 448124, Note_off_c, 1, 67, 64
3, 448124, Note_off_c, 1, 62, 64
3, 448128, Note_on_c, 1, 83, 92
3, 448128, Note_on_c, 1, 67, 92
3, 448128, Note_on_c, 1, 71, 92
3, 448128, Note_on_c, 1, 62, 92
3, 448316, Note_off_c, 1, 83, 64
3, 448316, Note_off_c, 1, 67, 64
3, 448316, Note_off_c, 1, 71, 64
3, 448316, Note_off_c, 1, 62, 64
3, 448320, Note_on_c, 1, 79, 92
3, 448320, Note_on_c, 1, 71, 92
3, 448320, Note_on_c, 1, 67, 92
3, 448320, Note_on_c, 1, 62, 92
3, 448412, Note_off_c, 1, 79, 64
3, 448412, Note_off_c, 1, 71, 64
3, 448412, Note_off_c, 1, 67, 64
3, 448412, Note_off_c, 1, 62, 64
3, 448416, Note_on_c, 1, 83, 92
3, 448416, Note_on_c, 1, 71, 92
3, 448416, Note_on_c, 1, 67, 92
3, 448416, Note_on_c, 1, 62, 92
3, 448508, Note_off_c, 1, 83, 64
3, 448508, Note_off_c, 1, 71, 64
3, 448508, Note_off_c, 1, 67, 64
3, 448508, Note_off_c, 1, 62, 64
3, 448512, Note_on_c, 1, 86, 92
3, 448512, Note_on_c, 1, 71, 92
3, 448512, Note_on_c, 1, 67, 92
3, 448512, Note_on_c, 1, 62, 92
3, 448700, Note_off_c, 1, 86, 64
3, 448700, Note_off_c, 1, 71, 64
3, 448700, Note_off_c, 1, 67, 64
3, 448700, Note_off_c, 1, 62, 64
3, 448704, Note_on_c, 1, 83, 92
3, 448704, Note_on_c, 1, 67, 92
3, 448704, Note_on_c, 1, 62, 92
3, 448704, Note_on_c, 1, 71, 92
3, 448796, Note_off_c, 1, 83, 64
3, 448796, Note_off_c, 1, 67, 64
3, 448796, Note_off_c, 1, 62, 64
3, 448796, Note_off_c, 1, 71, 64
3, 448800, Note_on_c, 1, 86, 92
3, 448800, Note_on_c, 1, 71, 92
3, 448800, Note_on_c, 1, 67, 92
3, 448800, Note_on_c, 1, 62, 92
3, 448892, Note_off_c, 1, 86, 64
3, 448892, Note_off_c, 1, 71, 64
3, 448892, Note_off_c, 1, 67, 64
3, 448892, Note_off_c, 1, 62, 64
3, 448896, Note_on_c, 1, 81, 92
3, 448896, Note_on_c, 1, 78, 92
3, 448896, Note_on_c, 1, 74, 92
3, 449084, Note_off_c, 1, 81, 64
3, 449084, Note_off_c, 1, 78, 64
3, 449084, Note_off_c, 1, 74, 64
3, 449088, Note_on_c, 1, 81, 92
3, 449088, Note_on_c, 1, 78, 92
3, 449088, Note_on_c, 1, 74, 92
3, 449180, Note_off_c, 1, 81, 64
3, 449180, Note_off_c, 1, 78, 64
3, 449180, Note_off_c, 1, 74, 64
3, 449184, Note_on_c, 1, 81, 92
3, 449184, Note_on_c, 1, 78, 92
3, 449184, Note_on_c, 1, 74, 92
3, 449276, Note_off_c, 1, 81, 64
3, 449276, Note_off_c, 1, 78, 64
3, 449276, Note_off_c, 1, 74, 64
3, 449280, Note_on_c, 1, 62, 92
3, 449280, Note_on_c, 1, 81, 92
3, 449280, Note_on_c, 1, 78, 92
3, 449280, Note_on_c, 1, 74, 92
3, 449468, Note_off_c, 1, 62, 64
3, 449468, Note_off_c, 1, 81, 64
3, 449468, Note_off_c, 1, 78, 64
3, 449468, Note_off_c, 1, 74, 64
3, 449472, Note_on_c, 1, 69, 92
3, 449472, Note_on_c, 1, 66, 92
3, 449472, Note_on_c, 1, 62, 92
3, 449472, Note_on_c, 1, 81, 92
3, 449472, Note_on_c, 1, 72, 92
3, 449552, Note_on_c, 1, 66, 92
3, 449564, Note_off_c, 1, 69, 64
3, 449564, Note_off_c, 1, 66, 64
3, 449564, Note_off_c, 1, 62, 64
3, 449564, Note_off_c, 1, 72, 64
3, 449568, Note_on_c, 1, 72, 92
3, 449568, Note_on_c, 1, 69, 92
3, 449568, Note_on_c, 1, 62, 92
3, 449644, Note_off_c, 1, 66, 64
3, 449660, Note_off_c, 1, 81, 64
3, 449660, Note_off_c, 1, 72, 64
3, 449660, Note_off_c, 1, 69, 64
3, 449660, Note_off_c, 1, 62, 64
3, 449664, Note_on_c, 1, 79, 92
3, 449664, Note_on_c, 1, 62, 92
3, 449664, Note_on_c, 1, 72, 92
3, 449664, Note_on_c, 1, 69, 92
3, 449664, Note_on_c, 1, 66, 92
3, 449756, Note_off_c, 1, 79, 64
3, 449760, Note_on_c, 1, 78, 92
3, 449852, Note_off_c, 1, 62, 64
3, 449852, Note_off_c, 1, 72, 64
3, 449852, Note_off_c, 1, 69, 64
3, 449852, Note_off_c, 1, 66, 64
3, 449852, Note_off_c, 1, 78, 64
3, 449856, Note_on_c, 1, 76, 92
3, 449856, Note_on_c, 1, 69, 92
3, 449856, Note_on_c, 1, 72, 92
3, 449856, Note_on_c, 1, 66, 92
3, 449856, Note_on_c, 1, 62, 92
3, 449948, Note_off_c, 1, 76, 64
3, 449948, Note_off_c, 1, 69, 64
3, 449948, Note_off_c, 1, 72, 64
3, 449948, Note_off_c, 1, 66, 64
3, 449948, Note_off_c, 1, 62, 64
3, 449952, Note_on_c, 1, 78, 92
3, 449952, Note_on_c, 1, 72, 92
3, 449952, Note_on_c, 1, 69, 92
3, 449952, Note_on_c, 1, 66, 92
3, 449952, Note_on_c, 1, 62, 92
3, 450044, Note_off_c, 1, 78, 64
3, 450044, Note_off_c, 1, 72, 64
3, 450044, Note_off_c, 1, 69, 64
3, 450044, Note_off_c, 1, 66, 64
3, 450044, Note_off_c, 1, 62, 64
3, 450048, Note_on_c, 1, 79, 92
3, 450048, Note_on_c, 1, 72, 92
3, 450048, Note_on_c, 1, 69, 92
3, 450048, Note_on_c, 1, 66, 92
3, 450048, Note_on_c, 1, 62, 92
3, 450140, Note_off_c, 1, 79, 64
3, 450144, Note_on_c, 1, 78, 92
3, 450236, Note_off_c, 1, 72, 64
3, 450236, Note_off_c, 1, 69, 64
3, 450236, Note_off_c, 1, 66, 64
3, 450236, Note_off_c, 1, 62, 64
3, 450236, Note_off_c, 1, 78, 64
3, 450240, Note_on_c, 1, 72, 92
3, 450240, Note_on_c, 1, 69, 92
3, 450240, Note_on_c, 1, 62, 92
3, 450240, Note_on_c, 1, 76, 92
3, 450240, Note_on_c, 1, 66, 92
3, 450332, Note_off_c, 1, 72, 64
3, 450332, Note_off_c, 1, 69, 64
3, 450332, Note_off_c, 1, 62, 64
3, 450332, Note_off_c, 1, 76, 64
3, 450332, Note_off_c, 1, 66, 64
3, 450336, Note_on_c, 1, 78, 92
3, 450336, Note_on_c, 1, 69, 92
3, 450336, Note_on_c, 1, 66, 92
3, 450336, Note_on_c, 1, 72, 92
3, 450336, Note_on_c, 1, 62, 92
3, 450428, Note_off_c, 1, 78, 64
3, 450428, Note_off_c, 1, 69, 64
3, 450428, Note_off_c, 1, 66, 64
3, 450428, Note_off_c, 1, 72, 64
3, 450428, Note_off_c, 1, 62, 64
3, 450432, Note_on_c, 1, 79, 97
3, 450620, Note_off_c, 1, 79, 64
3, 450624, Note_on_c, 1, 83, 97
3, 450812, Note_off_c, 1, 83, 64
3, 450816, Note_on_c, 1, 86, 97
3, 451388, Note_off_c, 1, 86, 64
3, 451392, Note_on_c, 1, 83, 97
3, 451580, Note_off_c, 1, 83, 64
3, 451584, Note_on_c, 1, 79, 97
3, 451964, Note_off_c, 1, 79, 64
3, 451968, Note_on_c, 1, 76, 97
3, 452156, Note_off_c, 1, 76, 64
3, 452160, Note_on_c, 1, 72, 97
3, 452348, Note_off_c, 1, 72, 64
3, 452352, Note_on_c, 1, 79, 97
3, 452924, Note_off_c, 1, 79, 64
3, 452928, Note_on_c, 1, 76, 97
3, 453116, Note_off_c, 1, 76, 64
3, 453120, Note_on_c, 1, 84, 97
3, 453500, Note_off_c, 1, 84, 64
3, 453504, Note_on_c, 1, 84, 97
3, 453596, Note_off_c, 1, 84, 64
3, 453600, Note_on_c, 1, 83, 97
3, 453692, Note_off_c, 1, 83, 64
3, 453696, Note_on_c, 1, 81, 97
3, 453788, Note_off_c, 1, 81, 64
3, 453792, Note_on_c, 1, 79, 97
3, 453884, Note_off_c, 1, 79, 64
3, 453888, Note_on_c, 1, 84, 97
3, 453980, Note_off_c, 1, 84, 64
3, 453984, Note_on_c, 1, 83, 97
3, 454076, Note_off_c, 1, 83, 64
3, 454080, Note_on_c, 1, 81, 97
3, 454172, Note_off_c, 1, 81, 64
3, 454176, Note_on_c, 1, 79, 97
3, 454268, Note_off_c, 1, 79, 64
3, 454272, Note_on_c, 1, 81, 97
3, 454316, Note_off_c, 1, 81, 64
3, 454320, Note_on_c, 1, 83, 97
3, 454364, Note_off_c, 1, 83, 64
3, 454368, Note_on_c, 1, 81, 97
3, 454412, Note_off_c, 1, 81, 64
3, 454416, Note_on_c, 1, 83, 97
3, 454460, Note_off_c, 1, 83, 64
3, 454464, Note_on_c, 1, 81, 97
3, 454508, Note_off_c, 1, 81, 64
3, 454512, Note_on_c, 1, 83, 97
3, 454556, Note_off_c, 1, 83, 64
3, 454560, Note_on_c, 1, 81, 97
3, 454604, Note_off_c, 1, 81, 64
3, 454608, Note_on_c, 1, 83, 97
3, 454652, Note_off_c, 1, 83, 64
3, 454656, Note_on_c, 1, 81, 97
3, 454700, Note_off_c, 1, 81, 64
3, 454704, Note_on_c, 1, 83, 97
3, 454748, Note_off_c, 1, 83, 64
3, 454752, Note_on_c, 1, 81, 97
3, 454796, Note_off_c, 1, 81, 64
3, 454800, Note_on_c, 1, 83, 97
3, 454844, Note_off_c, 1, 83, 64
3, 454848, Note_on_c, 1, 81, 97
3, 454892, Note_off_c, 1, 81, 64
3, 454896, Note_on_c, 1, 83, 97
3, 454940, Note_off_c, 1, 83, 64
3, 454944, Note_on_c, 1, 79, 97
3, 454988, Note_off_c, 1, 79, 64
3, 454992, Note_on_c, 1, 81, 97
3, 455036, Note_off_c, 1, 81, 64
3, 455040, Note_on_c, 1, 79, 97
3, 455420, Note_off_c, 1, 79, 64
3, 455520, Note_on_c, 1, 62, 97
3, 455612, Note_off_c, 1, 62, 64
3, 455616, Note_on_c, 1, 71, 97
3, 455708, Note_off_c, 1, 71, 64
3, 455712, Note_on_c, 1, 74, 97
3, 455804, Note_off_c, 1, 74, 64
3, 455808, Note_on_c, 1, 74, 97
3, 455900, Note_off_c, 1, 74, 64
3, 455904, Note_on_c, 1, 72, 97
3, 455996, Note_off_c, 1, 72, 64
3, 456000, Note_on_c, 1, 71, 97
3, 456092, Note_off_c, 1, 71, 64
3, 456096, Note_on_c, 1, 69, 97
3, 456188, Note_off_c, 1, 69, 64
3, 456192, Note_on_c, 1, 79, 97
3, 456284, Note_off_c, 1, 79, 64
3, 456288, Note_on_c, 1, 78, 97
3, 456380, Note_off_c, 1, 78, 64
3, 456384, Note_on_c, 1, 76, 97
3, 456476, Note_off_c, 1, 76, 64
3, 456480, Note_on_c, 1, 78, 97
3, 456572, Note_off_c, 1, 78, 64
3, 456576, Note_on_c, 1, 79, 97
3, 456764, Note_off_c, 1, 79, 64
3, 456768, Note_on_c, 1, 83, 97
3, 456956, Note_off_c, 1, 83, 64
3, 457056, Note_on_c, 1, 62, 97
3, 457148, Note_off_c, 1, 62, 64
3, 457152, Note_on_c, 1, 71, 97
3, 457244, Note_off_c, 1, 71, 64
3, 457248, Note_on_c, 1, 74, 97
3, 457340, Note_off_c, 1, 74, 64
3, 457344, Note_on_c, 1, 74, 97
3, 457436, Note_off_c, 1, 74, 64
3, 457440, Note_on_c, 1, 72, 97
3, 457532, Note_off_c, 1, 72, 64
3, 457536, Note_on_c, 1, 71, 97
3, 457628, Note_off_c, 1, 71, 64
3, 457632, Note_on_c, 1, 69, 97
3, 457724, Note_off_c, 1, 69, 64
3, 457728, Note_on_c, 1, 79, 97
3, 457820, Note_off_c, 1, 79, 64
3, 457824, Note_on_c, 1, 78, 97
3, 457916, Note_off_c, 1, 78, 64
3, 457920, Note_on_c, 1, 76, 97
3, 458012, Note_off_c, 1, 76, 64
3, 458016, Note_on_c, 1, 78, 97
3, 458108, Note_off_c, 1, 78, 64
3, 458112, Note_on_c, 1, 79, 97
3, 458492, Note_off_c, 1, 79, 64
3, 458496, Note_on_c, 1, 67, 97
3, 458496, Note_on_c, 1, 62, 97
3, 458496, Note_on_c, 1, 59, 97
3, 458780, Note_off_c, 1, 67, 64
3, 458780, Note_off_c, 1, 62, 64
3, 458780, Note_off_c, 1, 59, 64
3, 458784, Note_on_c, 1, 67, 97
3, 458784, Note_on_c, 1, 62, 97
3, 458784, Note_on_c, 1, 59, 97
3, 458876, Note_off_c, 1, 67, 64
3, 458876, Note_off_c, 1, 62, 64
3, 458876, Note_off_c, 1, 59, 64
3, 458880, Note_on_c, 1, 67, 97
3, 458880, Note_on_c, 1, 62, 97
3, 458880, Note_on_c, 1, 59, 97
3, 459260, Note_off_c, 1, 67, 64
3, 459260, Note_off_c, 1, 62, 64
3, 459260, Note_off_c, 1, 59, 64
3, 459260, End_track
4, 0, Start_track
4, 0, Title_t, "K216 -a- Allegro"
4, 0, Control_c, 2, 0, 0
4, 0, Program_c, 2, 48
4, 0, Control_c, 2, 10, 77
4, 0, Control_c, 2, 91, 67
4, 0, Control_c, 2, 93, 2
4, 0, Key_signature, 1, "major"
4, 0, Control_c, 2, 121, 0
4, 384, Control_c, 2, 10, 73
4, 480, Control_c, 2, 91, 73
4, 624, Program_c, 2, 48
4, 1536, Note_on_c, 2, 55, 92
4, 1536, Note_on_c, 2, 43, 92
4, 1724, Note_off_c, 2, 55, 64
4, 1724, Note_off_c, 2, 43, 64
4, 1728, Note_on_c, 2, 59, 92
4, 1916, Note_off_c, 2, 59, 64
4, 1920, Note_on_c, 2, 62, 71
4, 2108, Note_off_c, 2, 62, 64
4, 2112, Note_on_c, 2, 59, 71
4, 2300, Note_off_c, 2, 59, 64
4, 2304, Note_on_c, 2, 55, 71
4, 2492, Note_off_c, 2, 55, 64
4, 2496, Note_on_c, 2, 59, 71
4, 2684, Note_off_c, 2, 59, 64
4, 2688, Note_on_c, 2, 62, 71
4, 2876, Note_off_c, 2, 62, 64
4, 2880, Note_on_c, 2, 59, 71
4, 3068, Note_off_c, 2, 59, 64
4, 3072, Note_on_c, 2, 55, 92
4, 3072, Note_on_c, 2, 43, 92
4, 3260, Note_off_c, 2, 55, 64
4, 3260, Note_off_c, 2, 43, 64
4, 3264, Note_on_c, 2, 59, 92
4, 3452, Note_off_c, 2, 59, 64
4, 3456, Note_on_c, 2, 62, 71
4, 3644, Note_off_c, 2, 62, 64
4, 3648, Note_on_c, 2, 59, 71
4, 3836, Note_off_c, 2, 59, 64
4, 3840, Note_on_c, 2, 55, 71
4, 4028, Note_off_c, 2, 55, 64
4, 4032, Note_on_c, 2, 59, 71
4, 4220, Note_off_c, 2, 59, 64
4, 4224, Note_on_c, 2, 62, 71
4, 4412, Note_off_c, 2, 62, 64
4, 4416, Note_on_c, 2, 59, 71
4, 4604, Note_off_c, 2, 59, 64
4, 4608, Note_on_c, 2, 55, 92
4, 4608, Note_on_c, 2, 43, 92
4, 4796, Note_off_c, 2, 55, 64
4, 4796, Note_off_c, 2, 43, 64
4, 4800, Note_on_c, 2, 55, 92
4, 4800, Note_on_c, 2, 62, 92
4, 4988, Note_off_c, 2, 55, 64
4, 4988, Note_off_c, 2, 62, 64
4, 4992, Note_on_c, 2, 55, 71
4, 4992, Note_on_c, 2, 62, 71
4, 5180, Note_off_c, 2, 55, 64
4, 5180, Note_off_c, 2, 62, 64
4, 5184, Note_on_c, 2, 55, 71
4, 5184, Note_on_c, 2, 62, 71
4, 5372, Note_off_c, 2, 55, 64
4, 5372, Note_off_c, 2, 62, 64
4, 5376, Note_on_c, 2, 55, 71
4, 5376, Note_on_c, 2, 62, 71
4, 5568, Note_off_c, 2, 55, 64
4, 5568, Note_off_c, 2, 62, 64
4, 5568, Note_on_c, 2, 55, 71
4, 5568, Note_on_c, 2, 60, 71
4, 5752, Note_off_c, 2, 55, 64
4, 5752, Note_off_c, 2, 60, 64
4, 5760, Note_on_c, 2, 55, 71
4, 5760, Note_on_c, 2, 59, 71
4, 5948, Note_off_c, 2, 55, 64
4, 5948, Note_off_c, 2, 59, 64
4, 5952, Note_on_c, 2, 55, 71
4, 5952, Note_on_c, 2, 59, 71
4, 6140, Note_off_c, 2, 55, 64
4, 6140, Note_off_c, 2, 59, 64
4, 6144, Note_on_c, 2, 60, 71
4, 6144, Note_on_c, 2, 57, 71
4, 6524, Note_off_c, 2, 60, 64
4, 6524, Note_off_c, 2, 57, 64
4, 6528, Note_on_c, 2, 60, 71
4, 6528, Note_on_c, 2, 57, 71
4, 6908, Note_off_c, 2, 60, 64
4, 6908, Note_off_c, 2, 57, 64
4, 7680, Note_on_c, 2, 62, 92
4, 7680, Note_on_c, 2, 50, 92
4, 7868, Note_off_c, 2, 62, 64
4, 7868, Note_off_c, 2, 50, 64
4, 7872, Note_on_c, 2, 62, 92
4, 7872, Note_on_c, 2, 50, 92
4, 8060, Note_off_c, 2, 62, 64
4, 8060, Note_off_c, 2, 50, 64
4, 8064, Note_on_c, 2, 62, 92
4, 8064, Note_on_c, 2, 50, 92
4, 8252, Note_off_c, 2, 62, 64
4, 8252, Note_off_c, 2, 50, 64
4, 8256, Note_on_c, 2, 62, 92
4, 8256, Note_on_c, 2, 50, 92
4, 8444, Note_off_c, 2, 62, 64
4, 8444, Note_off_c, 2, 50, 64
4, 8448, Note_on_c, 2, 62, 92
4, 8448, Note_on_c, 2, 50, 92
4, 8636, Note_off_c, 2, 62, 64
4, 8636, Note_off_c, 2, 50, 64
4, 8640, Note_on_c, 2, 62, 92
4, 8640, Note_on_c, 2, 50, 92
4, 8828, Note_off_c, 2, 62, 64
4, 8828, Note_off_c, 2, 50, 64
4, 8832, Note_on_c, 2, 62, 92
4, 8832, Note_on_c, 2, 50, 92
4, 9020, Note_off_c, 2, 62, 64
4, 9020, Note_off_c, 2, 50, 64
4, 9024, Note_on_c, 2, 62, 92
4, 9024, Note_on_c, 2, 50, 92
4, 9212, Note_off_c, 2, 62, 64
4, 9212, Note_off_c, 2, 50, 64
4, 9216, Note_on_c, 2, 50, 92
4, 9788, Note_off_c, 2, 50, 64
4, 9792, Note_on_c, 2, 54, 92
4, 9884, Note_off_c, 2, 54, 64
4, 9888, Note_on_c, 2, 57, 92
4, 9980, Note_off_c, 2, 57, 64
4, 9984, Note_on_c, 2, 62, 92
4, 10556, Note_off_c, 2, 62, 64
4, 10560, Note_on_c, 2, 54, 92
4, 10652, Note_off_c, 2, 54, 64
4, 10656, Note_on_c, 2, 57, 92
4, 10748, Note_off_c, 2, 57, 64
4, 10752, Note_on_c, 2, 50, 92
4, 11132, Note_off_c, 2, 50, 64
4, 12480, Note_on_c, 2, 62, 71
4, 12480, Note_on_c, 2, 50, 71
4, 12668, Note_off_c, 2, 62, 64
4, 12668, Note_off_c, 2, 50, 64
4, 12672, Note_on_c, 2, 62, 71
4, 12672, Note_on_c, 2, 54, 71
4, 13052, Note_off_c, 2, 62, 64
4, 13052, Note_off_c, 2, 54, 64
4, 13248, Note_on_c, 2, 62, 71
4, 13248, Note_on_c, 2, 54, 71
4, 13436, Note_off_c, 2, 62, 64
4, 13436, Note_off_c, 2, 54, 64
4, 13440, Note_on_c, 2, 62, 71
4, 13440, Note_on_c, 2, 50, 71
4, 13820, Note_off_c, 2, 62, 64
4, 13820, Note_off_c, 2, 50, 64
4, 14016, Note_on_c, 2, 55, 71
4, 14204, Note_off_c, 2, 55, 64
4, 14208, Note_on_c, 2, 55, 71
4, 14208, Note_on_c, 2, 52, 71
4, 14588, Note_off_c, 2, 55, 64
4, 14588, Note_off_c, 2, 52, 64
4, 14784, Note_on_c, 2, 57, 71
4, 14784, Note_on_c, 2, 48, 71
4, 14972, Note_off_c, 2, 57, 64
4, 14972, Note_off_c, 2, 48, 64
4, 14976, Note_on_c, 2, 57, 71
4, 14976, Note_on_c, 2, 45, 71
4, 15356, Note_off_c, 2, 57, 64
4, 15356, Note_off_c, 2, 45, 64
4, 15552, Note_on_c, 2, 55, 71
4, 15552, Note_on_c, 2, 52, 71
4, 15740, Note_off_c, 2, 55, 64
4, 15740, Note_off_c, 2, 52, 64
4, 15744, Note_on_c, 2, 59, 71
4, 15744, Note_on_c, 2, 47, 71
4, 15932, Note_off_c, 2, 59, 64
4, 15932, Note_off_c, 2, 47, 64
4, 15936, Note_on_c, 2, 57, 71
4, 15936, Note_on_c, 2, 49, 71
4, 16124, Note_off_c, 2, 57, 64
4, 16124, Note_off_c, 2, 49, 64
4, 16128, Note_on_c, 2, 57, 71
4, 16128, Note_on_c, 2, 50, 71
4, 16228, Note_off_c, 2, 57, 64
4, 16228, Note_off_c, 2, 50, 64
4, 16320, Note_on_c, 2, 57, 71
4, 16320, Note_on_c, 2, 50, 71
4, 16420, Note_off_c, 2, 57, 64
4, 16420, Note_off_c, 2, 50, 64
4, 16512, Note_on_c, 2, 50, 71
4, 16612, Note_off_c, 2, 50, 64
4, 16704, Note_on_c, 2, 50, 71
4, 16804, Note_off_c, 2, 50, 64
4, 16896, Note_on_c, 2, 43, 92
4, 16896, Note_on_c, 2, 55, 92
4, 17084, Note_off_c, 2, 43, 64
4, 17084, Note_off_c, 2, 55, 64
4, 17088, Note_on_c, 2, 47, 92
4, 17180, Note_off_c, 2, 47, 64
4, 17184, Note_on_c, 2, 50, 92
4, 17276, Note_off_c, 2, 50, 64
4, 18432, Note_on_c, 2, 50, 92
4, 18620, Note_off_c, 2, 50, 64
4, 18624, Note_on_c, 2, 54, 92
4, 18716, Note_off_c, 2, 54, 64
4, 18720, Note_on_c, 2, 57, 92
4, 18812, Note_off_c, 2, 57, 64
4, 18816, Note_on_c, 2, 62, 92
4, 19004, Note_off_c, 2, 62, 64
4, 19968, Note_on_c, 2, 43, 92
4, 20156, Note_off_c, 2, 43, 64
4, 20160, Note_on_c, 2, 47, 92
4, 20252, Note_off_c, 2, 47, 64
4, 20256, Note_on_c, 2, 50, 92
4, 20348, Note_off_c, 2, 50, 64
4, 20352, Note_on_c, 2, 55, 92
4, 20540, Note_off_c, 2, 55, 64
4, 21504, Note_on_c, 2, 50, 92
4, 21692, Note_off_c, 2, 50, 64
4, 21696, Note_on_c, 2, 54, 92
4, 21788, Note_off_c, 2, 54, 64
4, 21792, Note_on_c, 2, 57, 92
4, 21884, Note_off_c, 2, 57, 64
4, 21888, Note_on_c, 2, 62, 92
4, 22076, Note_off_c, 2, 62, 64
4, 23040, Note_on_c, 2, 55, 92
4, 23132, Note_off_c, 2, 55, 64
4, 23136, Note_on_c, 2, 54, 92
4, 23228, Note_off_c, 2, 54, 64
4, 23232, Note_on_c, 2, 55, 92
4, 23324, Note_off_c, 2, 55, 64
4, 23328, Note_on_c, 2, 57, 92
4, 23420, Note_off_c, 2, 57, 64
4, 23424, Note_on_c, 2, 59, 92
4, 23516, Note_off_c, 2, 59, 64
4, 23520, Note_on_c, 2, 57, 92
4, 23612, Note_off_c, 2, 57, 64
4, 23616, Note_on_c, 2, 55, 92
4, 23708, Note_off_c, 2, 55, 64
4, 23712, Note_on_c, 2, 54, 92
4, 23804, Note_off_c, 2, 54, 64
4, 23808, Note_on_c, 2, 52, 92
4, 23900, Note_off_c, 2, 52, 64
4, 23904, Note_on_c, 2, 51, 92
4, 23996, Note_off_c, 2, 51, 64
4, 24000, Note_on_c, 2, 52, 92
4, 24092, Note_off_c, 2, 52, 64
4, 24096, Note_on_c, 2, 54, 92
4, 24188, Note_off_c, 2, 54, 64
4, 24192, Note_on_c, 2, 55, 92
4, 24284, Note_off_c, 2, 55, 64
4, 24288, Note_on_c, 2, 54, 92
4, 24380, Note_off_c, 2, 54, 64
4, 24384, Note_on_c, 2, 52, 92
4, 24476, Note_off_c, 2, 52, 64
4, 24480, Note_on_c, 2, 50, 92
4, 24572, Note_off_c, 2, 50, 64
4, 24576, Note_on_c, 2, 48, 92
4, 24668, Note_off_c, 2, 48, 64
4, 24672, Note_on_c, 2, 47, 92
4, 24764, Note_off_c, 2, 47, 64
4, 24768, Note_on_c, 2, 48, 92
4, 24860, Note_off_c, 2, 48, 64
4, 24864, Note_on_c, 2, 50, 92
4, 24956, Note_off_c, 2, 50, 64
4, 24960, Note_on_c, 2, 52, 92
4, 25052, Note_off_c, 2, 52, 64
4, 25056, Note_on_c, 2, 54, 92
4, 25148, Note_off_c, 2, 54, 64
4, 25152, Note_on_c, 2, 52, 92
4, 25244, Note_off_c, 2, 52, 64
4, 25248, Note_on_c, 2, 50, 92
4, 25340, Note_off_c, 2, 50, 64
4, 25344, Note_on_c, 2, 49, 92
4, 25436, Note_off_c, 2, 49, 64
4, 25440, Note_on_c, 2, 47, 92
4, 25532, Note_off_c, 2, 47, 64
4, 25536, Note_on_c, 2, 49, 92
4, 25628, Note_off_c, 2, 49, 64
4, 25632, Note_on_c, 2, 50, 92
4, 25724, Note_off_c, 2, 50, 64
4, 25728, Note_on_c, 2, 52, 92
4, 25820, Note_off_c, 2, 52, 64
4, 25824, Note_on_c, 2, 50, 92
4, 25916, Note_off_c, 2, 50, 64
4, 25920, Note_on_c, 2, 52, 92
4, 26012, Note_off_c, 2, 52, 64
4, 26016, Note_on_c, 2, 49, 92
4, 26108, Note_off_c, 2, 49, 64
4, 26112, Note_on_c, 2, 50, 92
4, 26300, Note_off_c, 2, 50, 64
4, 26304, Note_on_c, 2, 62, 92
4, 26396, Note_off_c, 2, 62, 64
4, 26400, Note_on_c, 2, 62, 92
4, 26492, Note_off_c, 2, 62, 64
4, 26496, Note_on_c, 2, 62, 92
4, 26684, Note_off_c, 2, 62, 64
4, 26688, Note_on_c, 2, 55, 92
4, 26876, Note_off_c, 2, 55, 64
4, 26880, Note_on_c, 2, 50, 92
4, 27068, Note_off_c, 2, 50, 64
4, 27072, Note_on_c, 2, 62, 92
4, 27164, Note_off_c, 2, 62, 64
4, 27168, Note_on_c, 2, 62, 92
4, 27260, Note_off_c, 2, 62, 64
4, 27264, Note_on_c, 2, 62, 92
4, 27452, Note_off_c, 2, 62, 64
4, 27456, Note_on_c, 2, 55, 92
4, 27644, Note_off_c, 2, 55, 64
4, 27648, Note_on_c, 2, 50, 92
4, 27836, Note_off_c, 2, 50, 64
4, 27840, Note_on_c, 2, 62, 92
4, 27932, Note_off_c, 2, 62, 64
4, 27936, Note_on_c, 2, 62, 92
4, 28028, Note_off_c, 2, 62, 64
4, 28032, Note_on_c, 2, 62, 92
4, 28220, Note_off_c, 2, 62, 64
4, 35328, Note_on_c, 2, 59, 92
4, 35328, Note_on_c, 2, 62, 92
4, 35328, Note_on_c, 2, 55, 92
4, 35420, Note_off_c, 2, 59, 64
4, 35420, Note_off_c, 2, 62, 64
4, 35424, Note_on_c, 2, 67, 92
4, 35516, Note_off_c, 2, 67, 64
4, 35520, Note_on_c, 2, 62, 92
4, 35520, Note_on_c, 2, 59, 92
4, 35612, Note_off_c, 2, 62, 64
4, 35612, Note_off_c, 2, 59, 64
4, 35616, Note_on_c, 2, 67, 92
4, 35708, Note_off_c, 2, 67, 64
4, 35712, Note_on_c, 2, 62, 92
4, 35712, Note_on_c, 2, 59, 92
4, 35804, Note_off_c, 2, 62, 64
4, 35804, Note_off_c, 2, 59, 64
4, 35808, Note_on_c, 2, 67, 92
4, 35900, Note_off_c, 2, 55, 64
4, 35900, Note_off_c, 2, 67, 64
4, 35904, Note_on_c, 2, 59, 92
4, 35904, Note_on_c, 2, 55, 92
4, 35996, Note_off_c, 2, 59, 64
4, 36000, Note_on_c, 2, 67, 92
4, 36080, Note_on_c, 2, 59, 92
4, 36092, Note_off_c, 2, 55, 64
4, 36092, Note_off_c, 2, 67, 64
4, 36096, Note_on_c, 2, 62, 92
4, 36188, Note_off_c, 2, 62, 64
4, 36192, Note_on_c, 2, 67, 92
4, 36284, Note_off_c, 2, 67, 64
4, 36288, Note_on_c, 2, 62, 92
4, 36288, Note_on_c, 2, 55, 92
4, 36380, Note_off_c, 2, 62, 64
4, 36380, Note_off_c, 2, 55, 64
4, 36384, Note_on_c, 2, 67, 92
4, 36476, Note_off_c, 2, 67, 64
4, 36480, Note_on_c, 2, 62, 92
4, 36572, Note_off_c, 2, 62, 64
4, 36576, Note_on_c, 2, 67, 92
4, 36652, Note_off_c, 2, 59, 64
4, 36668, Note_off_c, 2, 67, 64
4, 36672, Note_on_c, 2, 59, 92
4, 36672, Note_on_c, 2, 55, 92
4, 36764, Note_off_c, 2, 59, 64
4, 36768, Note_on_c, 2, 67, 92
4, 36860, Note_off_c, 2, 55, 64
4, 36860, Note_off_c, 2, 67, 64
4, 36864, Note_on_c, 2, 60, 92
4, 36864, Note_on_c, 2, 64, 92
4, 36956, Note_off_c, 2, 64, 64
4, 36960, Note_on_c, 2, 67, 92
4, 37052, Note_off_c, 2, 67, 64
4, 37056, Note_on_c, 2, 64, 92
4, 37148, Note_off_c, 2, 64, 64
4, 37152, Note_on_c, 2, 67, 92
4, 37244, Note_off_c, 2, 67, 64
4, 37248, Note_on_c, 2, 64, 92
4, 37340, Note_off_c, 2, 64, 64
4, 37344, Note_on_c, 2, 67, 92
4, 37424, Note_on_c, 2, 64, 92
4, 37436, Note_off_c, 2, 60, 64
4, 37436, Note_off_c, 2, 67, 64
4, 37440, Note_on_c, 2, 60, 92
4, 37516, Note_off_c, 2, 64, 64
4, 37536, Note_on_c, 2, 67, 92
4, 37628, Note_off_c, 2, 60, 64
4, 37628, Note_off_c, 2, 67, 64
4, 37632, Note_on_c, 2, 52, 92
4, 37632, Note_on_c, 2, 55, 92
4, 37724, Note_off_c, 2, 55, 64
4, 37728, Note_on_c, 2, 60, 92
4, 37820, Note_off_c, 2, 60, 64
4, 37824, Note_on_c, 2, 55, 92
4, 37916, Note_off_c, 2, 55, 64
4, 37920, Note_on_c, 2, 60, 92
4, 38012, Note_off_c, 2, 60, 64
4, 38016, Note_on_c, 2, 55, 92
4, 38108, Note_off_c, 2, 55, 64
4, 38112, Note_on_c, 2, 60, 92
4, 38204, Note_off_c, 2, 52, 64
4, 38204, Note_off_c, 2, 60, 64
4, 38208, Note_on_c, 2, 52, 92
4, 38208, Note_on_c, 2, 55, 92
4, 38300, Note_off_c, 2, 55, 64
4, 38304, Note_on_c, 2, 60, 92
4, 38396, Note_off_c, 2, 52, 64
4, 38396, Note_off_c, 2, 60, 64
4, 38400, Note_on_c, 2, 55, 92
4, 38400, Note_on_c, 2, 50, 92
4, 38492, Note_off_c, 2, 55, 64
4, 38492, Note_off_c, 2, 50, 64
4, 38496, Note_on_c, 2, 59, 92
4, 38588, Note_off_c, 2, 59, 64
4, 38592, Note_on_c, 2, 55, 92
4, 38592, Note_on_c, 2, 50, 92
4, 38684, Note_off_c, 2, 55, 64
4, 38684, Note_off_c, 2, 50, 64
4, 38688, Note_on_c, 2, 59, 92
4, 38780, Note_off_c, 2, 59, 64
4, 38784, Note_on_c, 2, 55, 92
4, 38784, Note_on_c, 2, 52, 92
4, 38876, Note_off_c, 2, 55, 64
4, 38876, Note_off_c, 2, 52, 64
4, 38880, Note_on_c, 2, 59, 92
4, 38972, Note_off_c, 2, 59, 64
4, 38976, Note_on_c, 2, 55, 92
4, 38976, Note_on_c, 2, 52, 92
4, 39068, Note_off_c, 2, 55, 64
4, 39068, Note_off_c, 2, 52, 64
4, 39072, Note_on_c, 2, 59, 92
4, 39164, Note_off_c, 2, 59, 64
4, 39168, Note_on_c, 2, 55, 92
4, 39168, Note_on_c, 2, 52, 92
4, 39168, Note_on_c, 2, 48, 92
4, 39260, Note_off_c, 2, 55, 64
4, 39260, Note_off_c, 2, 52, 64
4, 39260, Note_off_c, 2, 48, 64
4, 39264, Note_on_c, 2, 57, 92
4, 39356, Note_off_c, 2, 57, 64
4, 39360, Note_on_c, 2, 55, 92
4, 39360, Note_on_c, 2, 52, 92
4, 39360, Note_on_c, 2, 48, 92
4, 39452, Note_off_c, 2, 55, 64
4, 39452, Note_off_c, 2, 52, 64
4, 39452, Note_off_c, 2, 48, 64
4, 39456, Note_on_c, 2, 57, 92
4, 39548, Note_off_c, 2, 57, 64
4, 39552, Note_on_c, 2, 54, 92
4, 39552, Note_on_c, 2, 50, 92
4, 39644, Note_off_c, 2, 54, 64
4, 39644, Note_off_c, 2, 50, 64
4, 39648, Note_on_c, 2, 57, 92
4, 39740, Note_off_c, 2, 57, 64
4, 39744, Note_on_c, 2, 54, 92
4, 39744, Note_on_c, 2, 50, 92
4, 39836, Note_off_c, 2, 54, 64
4, 39836, Note_off_c, 2, 50, 64
4, 39840, Note_on_c, 2, 57, 92
4, 39932, Note_off_c, 2, 57, 64
4, 39936, Note_on_c, 2, 55, 81
4, 39936, Note_on_c, 2, 50, 81
4, 39936, Note_on_c, 2, 47, 81
4, 39936, Note_on_c, 2, 43, 81
4, 40124, Note_off_c, 2, 55, 64
4, 40124, Note_off_c, 2, 50, 64
4, 40124, Note_off_c, 2, 47, 64
4, 40124, Note_off_c, 2, 43, 64
4, 40128, Note_on_c, 2, 59, 60
4, 40228, Note_off_c, 2, 59, 64
4, 40320, Note_on_c, 2, 62, 81
4, 40512, Note_off_c, 2, 62, 64
4, 40512, Note_on_c, 2, 59, 60
4, 40696, Note_off_c, 2, 59, 64
4, 40704, Note_on_c, 2, 55, 60
4, 40804, Note_off_c, 2, 55, 64
4, 40896, Note_on_c, 2, 59, 60
4, 40996, Note_off_c, 2, 59, 64
4, 41088, Note_on_c, 2, 62, 81
4, 41280, Note_off_c, 2, 62, 64
4, 41280, Note_on_c, 2, 59, 60
4, 41464, Note_off_c, 2, 59, 64
4, 41472, Note_on_c, 2, 57, 60
4, 41572, Note_off_c, 2, 57, 64
4, 41664, Note_on_c, 2, 57, 60
4, 41764, Note_off_c, 2, 57, 64
4, 41856, Note_on_c, 2, 60, 81
4, 42048, Note_off_c, 2, 60, 64
4, 42048, Note_on_c, 2, 57, 60
4, 42232, Note_off_c, 2, 57, 64
4, 42240, Note_on_c, 2, 50, 60
4, 42340, Note_off_c, 2, 50, 64
4, 42432, Note_on_c, 2, 54, 60
4, 42532, Note_off_c, 2, 54, 64
4, 42624, Note_on_c, 2, 57, 81
4, 42816, Note_off_c, 2, 57, 64
4, 42816, Note_on_c, 2, 54, 60
4, 43000, Note_off_c, 2, 54, 64
4, 43008, Note_on_c, 2, 55, 60
4, 43108, Note_off_c, 2, 55, 64
4, 43200, Note_on_c, 2, 55, 60
4, 43300, Note_off_c, 2, 55, 64
4, 43392, Note_on_c, 2, 59, 81
4, 43584, Note_off_c, 2, 59, 64
4, 43584, Note_on_c, 2, 55, 60
4, 43768, Note_off_c, 2, 55, 64
4, 43776, Note_on_c, 2, 47, 60
4, 43876, Note_off_c, 2, 47, 64
4, 43968, Note_on_c, 2, 50, 60
4, 44068, Note_off_c, 2, 50, 64
4, 44160, Note_on_c, 2, 55, 81
4, 44352, Note_off_c, 2, 55, 64
4, 44352, Note_on_c, 2, 43, 60
4, 44536, Note_off_c, 2, 43, 64
4, 44544, Note_on_c, 2, 52, 60
4, 44644, Note_off_c, 2, 52, 64
4, 44736, Note_on_c, 2, 55, 60
4, 44836, Note_off_c, 2, 55, 64
4, 44928, Note_on_c, 2, 52, 81
4, 45120, Note_off_c, 2, 52, 64
4, 45120, Note_on_c, 2, 55, 60
4, 45304, Note_off_c, 2, 55, 64
4, 45312, Note_on_c, 2, 48, 60
4, 45412, Note_off_c, 2, 48, 64
4, 45504, Note_on_c, 2, 52, 60
4, 45604, Note_off_c, 2, 52, 64
4, 45696, Note_on_c, 2, 49, 81
4, 45888, Note_off_c, 2, 49, 64
4, 45888, Note_on_c, 2, 57, 60
4, 46072, Note_off_c, 2, 57, 64
4, 46080, Note_on_c, 2, 50, 60
4, 46180, Note_off_c, 2, 50, 64
4, 46272, Note_on_c, 2, 57, 60
4, 46372, Note_off_c, 2, 57, 64
4, 46464, Note_on_c, 2, 60, 81
4, 46656, Note_off_c, 2, 60, 64
4, 46656, Note_on_c, 2, 62, 60
4, 46840, Note_off_c, 2, 62, 64
4, 46848, Note_on_c, 2, 59, 60
4, 46948, Note_off_c, 2, 59, 64
4, 47040, Note_on_c, 2, 62, 60
4, 47140, Note_off_c, 2, 62, 64
4, 47232, Note_on_c, 2, 59, 81
4, 47424, Note_off_c, 2, 59, 64
4, 47424, Note_on_c, 2, 62, 60
4, 47608, Note_off_c, 2, 62, 64
4, 47616, Note_on_c, 2, 57, 60
4, 47716, Note_off_c, 2, 57, 64
4, 47808, Note_on_c, 2, 62, 60
4, 47908, Note_off_c, 2, 62, 64
4, 48000, Note_on_c, 2, 60, 81
4, 48192, Note_off_c, 2, 60, 64
4, 48192, Note_on_c, 2, 62, 60
4, 48376, Note_off_c, 2, 62, 64
4, 48384, Note_on_c, 2, 54, 60
4, 48484, Note_off_c, 2, 54, 64
4, 48576, Note_on_c, 2, 62, 60
4, 48676, Note_off_c, 2, 62, 64
4, 48768, Note_on_c, 2, 57, 81
4, 48960, Note_off_c, 2, 57, 64
4, 48960, Note_on_c, 2, 62, 60
4, 49144, Note_off_c, 2, 62, 64
4, 49152, Note_on_c, 2, 55, 60
4, 49252, Note_off_c, 2, 55, 64
4, 49344, Note_on_c, 2, 62, 60
4, 49444, Note_off_c, 2, 62, 64
4, 49536, Note_on_c, 2, 59, 81
4, 49728, Note_off_c, 2, 59, 64
4, 49728, Note_on_c, 2, 67, 60
4, 49912, Note_off_c, 2, 67, 64
4, 49920, Note_on_c, 2, 59, 60
4, 50020, Note_off_c, 2, 59, 64
4, 50112, Note_on_c, 2, 62, 60
4, 50212, Note_off_c, 2, 62, 64
4, 50304, Note_on_c, 2, 59, 81
4, 50496, Note_off_c, 2, 59, 64
4, 50496, Note_on_c, 2, 67, 60
4, 50680, Note_off_c, 2, 67, 64
4, 50688, Note_on_c, 2, 60, 60
4, 50788, Note_off_c, 2, 60, 64
4, 50880, Note_on_c, 2, 64, 60
4, 50980, Note_off_c, 2, 64, 64
4, 51072, Note_on_c, 2, 48, 60
4, 51172, Note_off_c, 2, 48, 64
4, 51264, Note_on_c, 2, 60, 60
4, 51364, Note_off_c, 2, 60, 64
4, 51456, Note_on_c, 2, 48, 60
4, 51556, Note_off_c, 2, 48, 64
4, 51648, Note_on_c, 2, 57, 60
4, 51748, Note_off_c, 2, 57, 64
4, 51840, Note_on_c, 2, 49, 60
4, 51940, Note_off_c, 2, 49, 64
4, 52032, Note_on_c, 2, 64, 60
4, 52132, Note_off_c, 2, 64, 64
4, 52224, Note_on_c, 2, 62, 66
4, 52224, Note_on_c, 2, 57, 66
4, 52224, Note_on_c, 2, 50, 66
4, 52604, Note_off_c, 2, 62, 64
4, 52604, Note_off_c, 2, 57, 64
4, 52604, Note_off_c, 2, 50, 64
4, 55296, Note_on_c, 2, 62, 92
4, 55296, Note_on_c, 2, 50, 92
4, 55484, Note_off_c, 2, 62, 64
4, 55484, Note_off_c, 2, 50, 64
4, 55488, Note_on_c, 2, 62, 92
4, 55676, Note_off_c, 2, 62, 64
4, 55680, Note_on_c, 2, 62, 92
4, 55868, Note_off_c, 2, 62, 64
4, 55872, Note_on_c, 2, 62, 92
4, 56060, Note_off_c, 2, 62, 64
4, 56064, Note_on_c, 2, 62, 92
4, 56252, Note_off_c, 2, 62, 64
4, 56256, Note_on_c, 2, 62, 92
4, 56444, Note_off_c, 2, 62, 64
4, 56448, Note_on_c, 2, 62, 92
4, 56636, Note_off_c, 2, 62, 64
4, 56640, Note_on_c, 2, 62, 92
4, 56828, Note_off_c, 2, 62, 64
4, 56832, Note_on_c, 2, 62, 92
4, 56832, Note_on_c, 2, 66, 92
4, 57020, Note_off_c, 2, 62, 64
4, 57024, Note_on_c, 2, 62, 92
4, 57212, Note_off_c, 2, 66, 64
4, 57212, Note_off_c, 2, 62, 64
4, 57216, Note_on_c, 2, 62, 92
4, 57404, Note_off_c, 2, 62, 64
4, 57408, Note_on_c, 2, 62, 92
4, 57596, Note_off_c, 2, 62, 64
4, 57600, Note_on_c, 2, 62, 92
4, 57788, Note_off_c, 2, 62, 64
4, 57792, Note_on_c, 2, 62, 92
4, 57980, Note_off_c, 2, 62, 64
4, 57984, Note_on_c, 2, 62, 92
4, 57984, Note_on_c, 2, 66, 92
4, 58172, Note_off_c, 2, 62, 64
4, 58172, Note_off_c, 2, 66, 64
4, 58176, Note_on_c, 2, 62, 92
4, 58176, Note_on_c, 2, 66, 92
4, 58364, Note_off_c, 2, 62, 64
4, 58364, Note_off_c, 2, 66, 64
4, 58368, Note_on_c, 2, 43, 92
4, 58748, Note_off_c, 2, 43, 64
4, 58752, Note_on_c, 2, 55, 71
4, 59132, Note_off_c, 2, 55, 64
4, 59904, Note_on_c, 2, 43, 92
4, 60284, Note_off_c, 2, 43, 64
4, 60288, Note_on_c, 2, 55, 71
4, 60668, Note_off_c, 2, 55, 64
4, 61440, Note_on_c, 2, 55, 71
4, 61628, Note_off_c, 2, 55, 64
4, 61632, Note_on_c, 2, 55, 71
4, 61820, Note_off_c, 2, 55, 64
4, 61824, Note_on_c, 2, 55, 71
4, 62012, Note_off_c, 2, 55, 64
4, 62016, Note_on_c, 2, 55, 71
4, 62204, Note_off_c, 2, 55, 64
4, 62208, Note_on_c, 2, 55, 71
4, 62396, Note_off_c, 2, 55, 64
4, 62400, Note_on_c, 2, 55, 71
4, 62588, Note_off_c, 2, 55, 64
4, 62592, Note_on_c, 2, 55, 71
4, 62780, Note_off_c, 2, 55, 64
4, 62784, Note_on_c, 2, 55, 71
4, 62972, Note_off_c, 2, 55, 64
4, 62976, Note_on_c, 2, 57, 71
4, 63164, Note_off_c, 2, 57, 64
4, 63360, Note_on_c, 2, 57, 71
4, 63548, Note_off_c, 2, 57, 64
4, 64512, Note_on_c, 2, 50, 87
4, 64700, Note_off_c, 2, 50, 64
4, 64704, Note_on_c, 2, 62, 71
4, 64892, Note_off_c, 2, 62, 64
4, 64896, Note_on_c, 2, 62, 71
4, 65084, Note_off_c, 2, 62, 64
4, 65088, Note_on_c, 2, 62, 71
4, 65276, Note_off_c, 2, 62, 64
4, 65280, Note_on_c, 2, 62, 71
4, 65660, Note_off_c, 2, 62, 64
4, 72384, Note_on_c, 2, 52, 71
4, 72572, Note_off_c, 2, 52, 64
4, 72576, Note_on_c, 2, 47, 71
4, 72764, Note_off_c, 2, 47, 64
4, 72768, Note_on_c, 2, 49, 71
4, 72956, Note_off_c, 2, 49, 64
4, 72960, Note_on_c, 2, 50, 71
4, 73060, Note_off_c, 2, 50, 64
4, 73152, Note_on_c, 2, 50, 71
4, 73252, Note_off_c, 2, 50, 64
4, 73344, Note_on_c, 2, 50, 71
4, 73444, Note_off_c, 2, 50, 64
4, 73536, Note_on_c, 2, 50, 71
4, 73636, Note_off_c, 2, 50, 64
4, 73728, Note_on_c, 2, 55, 92
4, 73828, Note_off_c, 2, 55, 64
4, 73920, Note_on_c, 2, 50, 92
4, 74020, Note_off_c, 2, 50, 64
4, 74112, Note_on_c, 2, 59, 92
4, 74212, Note_off_c, 2, 59, 64
4, 74304, Note_on_c, 2, 50, 92
4, 74404, Note_off_c, 2, 50, 64
4, 74496, Note_on_c, 2, 62, 92
4, 74496, Note_on_c, 2, 57, 92
4, 74496, Note_on_c, 2, 54, 92
4, 74596, Note_off_c, 2, 62, 64
4, 74596, Note_off_c, 2, 57, 64
4, 74596, Note_off_c, 2, 54, 64
4, 74688, Note_on_c, 2, 50, 92
4, 74788, Note_off_c, 2, 50, 64
4, 74880, Note_on_c, 2, 60, 92
4, 74880, Note_on_c, 2, 62, 92
4, 74980, Note_off_c, 2, 60, 64
4, 74980, Note_off_c, 2, 62, 64
4, 75072, Note_on_c, 2, 50, 92
4, 75172, Note_off_c, 2, 50, 64
4, 75264, Note_on_c, 2, 62, 92
4, 75264, Note_on_c, 2, 59, 92
4, 75364, Note_off_c, 2, 62, 64
4, 75364, Note_off_c, 2, 59, 64
4, 75456, Note_on_c, 2, 50, 92
4, 75556, Note_off_c, 2, 50, 64
4, 75648, Note_on_c, 2, 59, 92
4, 75648, Note_on_c, 2, 55, 92
4, 75748, Note_off_c, 2, 59, 64
4, 75748, Note_off_c, 2, 55, 64
4, 75840, Note_on_c, 2, 50, 92
4, 75940, Note_off_c, 2, 50, 64
4, 76032, Note_on_c, 2, 62, 92
4, 76032, Note_on_c, 2, 60, 92
4, 76032, Note_on_c, 2, 57, 92
4, 76132, Note_off_c, 2, 62, 64
4, 76132, Note_off_c, 2, 60, 64
4, 76132, Note_off_c, 2, 57, 64
4, 76224, Note_on_c, 2, 54, 92
4, 76324, Note_off_c, 2, 54, 64
4, 76416, Note_on_c, 2, 62, 92
4, 76416, Note_on_c, 2, 60, 92
4, 76416, Note_on_c, 2, 57, 92
4, 76516, Note_off_c, 2, 62, 64
4, 76516, Note_off_c, 2, 60, 64
4, 76516, Note_off_c, 2, 57, 64
4, 76608, Note_on_c, 2, 50, 92
4, 76708, Note_off_c, 2, 50, 64
4, 76800, Note_on_c, 2, 62, 92
4, 76800, Note_on_c, 2, 59, 92
4, 76800, Note_on_c, 2, 55, 92
4, 77180, Note_off_c, 2, 62, 64
4, 77180, Note_off_c, 2, 59, 64
4, 77180, Note_off_c, 2, 55, 64
4, 77184, Note_on_c, 2, 55, 92
4, 77564, Note_off_c, 2, 55, 64
4, 77568, Note_on_c, 2, 43, 92
4, 77948, Note_off_c, 2, 43, 64
4, 78336, Note_on_c, 2, 43, 92
4, 78524, Note_off_c, 2, 43, 64
4, 78528, Note_on_c, 2, 55, 71
4, 78716, Note_off_c, 2, 55, 64
4, 78720, Note_on_c, 2, 55, 71
4, 78908, Note_off_c, 2, 55, 64
4, 78912, Note_on_c, 2, 55, 71
4, 79100, Note_off_c, 2, 55, 64
4, 79104, Note_on_c, 2, 55, 71
4, 79292, Note_off_c, 2, 55, 64
4, 79296, Note_on_c, 2, 55, 71
4, 79484, Note_off_c, 2, 55, 64
4, 79488, Note_on_c, 2, 55, 71
4, 79676, Note_off_c, 2, 55, 64
4, 79680, Note_on_c, 2, 55, 71
4, 79868, Note_off_c, 2, 55, 64
4, 79872, Note_on_c, 2, 43, 71
4, 80060, Note_off_c, 2, 43, 64
4, 80064, Note_on_c, 2, 55, 71
4, 80252, Note_off_c, 2, 55, 64
4, 80256, Note_on_c, 2, 55, 71
4, 80444, Note_off_c, 2, 55, 64
4, 80448, Note_on_c, 2, 55, 71
4, 80636, Note_off_c, 2, 55, 64
4, 80640, Note_on_c, 2, 55, 71
4, 80828, Note_off_c, 2, 55, 64
4, 80832, Note_on_c, 2, 55, 71
4, 81020, Note_off_c, 2, 55, 64
4, 81024, Note_on_c, 2, 55, 71
4, 81212, Note_off_c, 2, 55, 64
4, 81216, Note_on_c, 2, 55, 71
4, 81404, Note_off_c, 2, 55, 64
4, 81408, Note_on_c, 2, 42, 71
4, 81596, Note_off_c, 2, 42, 64
4, 81600, Note_on_c, 2, 54, 71
4, 81788, Note_off_c, 2, 54, 64
4, 81792, Note_on_c, 2, 54, 71
4, 81980, Note_off_c, 2, 54, 64
4, 81984, Note_on_c, 2, 54, 71
4, 82172, Note_off_c, 2, 54, 64
4, 82176, Note_on_c, 2, 43, 71
4, 82364, Note_off_c, 2, 43, 64
4, 82368, Note_on_c, 2, 55, 71
4, 82556, Note_off_c, 2, 55, 64
4, 82560, Note_on_c, 2, 55, 71
4, 82748, Note_off_c, 2, 55, 64
4, 82752, Note_on_c, 2, 55, 71
4, 82940, Note_off_c, 2, 55, 64
4, 82944, Note_on_c, 2, 42, 71
4, 83132, Note_off_c, 2, 42, 64
4, 83136, Note_on_c, 2, 54, 71
4, 83324, Note_off_c, 2, 54, 64
4, 83328, Note_on_c, 2, 54, 71
4, 83516, Note_off_c, 2, 54, 64
4, 83520, Note_on_c, 2, 54, 71
4, 83708, Note_off_c, 2, 54, 64
4, 83712, Note_on_c, 2, 54, 71
4, 83900, Note_off_c, 2, 54, 64
4, 83904, Note_on_c, 2, 54, 71
4, 84092, Note_off_c, 2, 54, 64
4, 84096, Note_on_c, 2, 54, 71
4, 84284, Note_off_c, 2, 54, 64
4, 84288, Note_on_c, 2, 54, 71
4, 84476, Note_off_c, 2, 54, 64
4, 84480, Note_on_c, 2, 40, 71
4, 84668, Note_off_c, 2, 40, 64
4, 84672, Note_on_c, 2, 52, 71
4, 84860, Note_off_c, 2, 52, 64
4, 84864, Note_on_c, 2, 52, 71
4, 85052, Note_off_c, 2, 52, 64
4, 85056, Note_on_c, 2, 52, 71
4, 85244, Note_off_c, 2, 52, 64
4, 85248, Note_on_c, 2, 52, 71
4, 85436, Note_off_c, 2, 52, 64
4, 85440, Note_on_c, 2, 52, 71
4, 85628, Note_off_c, 2, 52, 64
4, 85632, Note_on_c, 2, 52, 71
4, 85820, Note_off_c, 2, 52, 64
4, 85824, Note_on_c, 2, 52, 71
4, 86012, Note_off_c, 2, 52, 64
4, 86016, Note_on_c, 2, 45, 71
4, 86204, Note_off_c, 2, 45, 64
4, 86208, Note_on_c, 2, 52, 71
4, 86396, Note_off_c, 2, 52, 64
4, 86400, Note_on_c, 2, 52, 71
4, 86588, Note_off_c, 2, 52, 64
4, 86592, Note_on_c, 2, 52, 71
4, 86780, Note_off_c, 2, 52, 64
4, 86784, Note_on_c, 2, 45, 71
4, 86972, Note_off_c, 2, 45, 64
4, 86976, Note_on_c, 2, 50, 71
4, 87164, Note_off_c, 2, 50, 64
4, 87168, Note_on_c, 2, 50, 71
4, 87356, Note_off_c, 2, 50, 64
4, 87360, Note_on_c, 2, 50, 71
4, 87548, Note_off_c, 2, 50, 64
4, 87552, Note_on_c, 2, 45, 71
4, 87740, Note_off_c, 2, 45, 64
4, 87744, Note_on_c, 2, 49, 71
4, 87932, Note_off_c, 2, 49, 64
4, 87936, Note_on_c, 2, 49, 71
4, 88124, Note_off_c, 2, 49, 64
4, 88128, Note_on_c, 2, 49, 71
4, 88316, Note_off_c, 2, 49, 64
4, 88320, Note_on_c, 2, 45, 71
4, 88320, Note_on_c, 2, 57, 71
4, 89468, Note_off_c, 2, 45, 64
4, 89468, Note_off_c, 2, 57, 64
4, 90816, Note_on_c, 2, 55, 71
4, 91004, Note_off_c, 2, 55, 64
4, 91008, Note_on_c, 2, 55, 71
4, 91196, Note_off_c, 2, 55, 64
4, 91200, Note_on_c, 2, 55, 71
4, 91388, Note_off_c, 2, 55, 64
4, 91392, Note_on_c, 2, 55, 71
4, 91772, Note_off_c, 2, 55, 64
4, 92160, Note_on_c, 2, 52, 92
4, 92160, Note_on_c, 2, 50, 92
4, 92160, Note_on_c, 2, 47, 92
4, 92160, Note_on_c, 2, 43, 92
4, 92924, Note_off_c, 2, 52, 64
4, 92924, Note_off_c, 2, 50, 64
4, 92924, Note_off_c, 2, 47, 64
4, 92924, Note_off_c, 2, 43, 64
4, 93696, Note_on_c, 2, 52, 92
4, 93696, Note_on_c, 2, 50, 92
4, 93696, Note_on_c, 2, 47, 92
4, 93696, Note_on_c, 2, 43, 92
4, 94460, Note_off_c, 2, 52, 64
4, 94460, Note_off_c, 2, 50, 64
4, 94460, Note_off_c, 2, 47, 64
4, 94460, Note_off_c, 2, 43, 64
4, 95424, Note_on_c, 2, 55, 71
4, 95524, Note_off_c, 2, 55, 64
4, 95616, Note_on_c, 2, 55, 71
4, 95716, Note_off_c, 2, 55, 64
4, 95808, Note_on_c, 2, 55, 71
4, 95908, Note_off_c, 2, 55, 64
4, 96000, Note_on_c, 2, 55, 71
4, 96100, Note_off_c, 2, 55, 64
4, 96192, Note_on_c, 2, 55, 71
4, 96292, Note_off_c, 2, 55, 64
4, 96384, Note_on_c, 2, 55, 71
4, 96576, Note_off_c, 2, 55, 64
4, 96576, Note_on_c, 2, 56, 71
4, 96760, Note_off_c, 2, 56, 64
4, 96768, Note_on_c, 2, 57, 71
4, 97148, Note_off_c, 2, 57, 64
4, 97344, Note_on_c, 2, 62, 92
4, 97444, Note_off_c, 2, 62, 64
4, 97536, Note_on_c, 2, 57, 92
4, 97724, Note_off_c, 2, 57, 64
4, 98112, Note_on_c, 2, 50, 92
4, 98212, Note_off_c, 2, 50, 64
4, 98304, Note_on_c, 2, 57, 92
4, 98492, Note_off_c, 2, 57, 64
4, 100032, Note_on_c, 2, 61, 71
4, 100220, Note_off_c, 2, 61, 64
4, 100224, Note_on_c, 2, 62, 71
4, 100412, Note_off_c, 2, 62, 64
4, 101568, Note_on_c, 2, 64, 71
4, 101660, Note_off_c, 2, 64, 64
4, 101664, Note_on_c, 2, 64, 71
4, 101756, Note_off_c, 2, 64, 64
4, 101760, Note_on_c, 2, 64, 71
4, 101948, Note_off_c, 2, 64, 64
4, 103104, Note_on_c, 2, 58, 71
4, 103296, Note_off_c, 2, 58, 64
4, 103296, Note_on_c, 2, 57, 71
4, 103480, Note_off_c, 2, 57, 64
4, 104640, Note_on_c, 2, 62, 71
4, 104732, Note_off_c, 2, 62, 64
4, 104736, Note_on_c, 2, 62, 71
4, 104828, Note_off_c, 2, 62, 64
4, 104832, Note_on_c, 2, 62, 71
4, 105020, Note_off_c, 2, 62, 64
4, 105216, Note_on_c, 2, 57, 71
4, 105216, Note_on_c, 2, 50, 71
4, 105404, Note_off_c, 2, 57, 64
4, 105404, Note_off_c, 2, 50, 64
4, 105600, Note_on_c, 2, 57, 71
4, 105600, Note_on_c, 2, 45, 71
4, 105788, Note_off_c, 2, 57, 64
4, 105788, Note_off_c, 2, 45, 64
4, 105984, Note_on_c, 2, 57, 71
4, 105984, Note_on_c, 2, 50, 71
4, 106172, Note_off_c, 2, 57, 64
4, 106172, Note_off_c, 2, 50, 64
4, 106752, Note_on_c, 2, 57, 71
4, 106752, Note_on_c, 2, 50, 71
4, 106852, Note_off_c, 2, 57, 64
4, 106852, Note_off_c, 2, 50, 64
4, 107136, Note_on_c, 2, 57, 71
4, 107136, Note_on_c, 2, 45, 71
4, 107236, Note_off_c, 2, 57, 64
4, 107236, Note_off_c, 2, 45, 64
4, 107520, Note_on_c, 2, 57, 71
4, 107520, Note_on_c, 2, 50, 71
4, 107620, Note_off_c, 2, 57, 64
4, 107620, Note_off_c, 2, 50, 64
4, 109632, Note_on_c, 2, 50, 72
4, 109820, Note_off_c, 2, 50, 64
4, 109824, Note_on_c, 2, 50, 72
4, 111076, Note_off_c, 2, 50, 64
4, 121728, Note_on_c, 2, 55, 81
4, 122108, Note_off_c, 2, 55, 64
4, 122112, Note_on_c, 2, 55, 81
4, 122492, Note_off_c, 2, 55, 64
4, 122496, Note_on_c, 2, 56, 81
4, 122876, Note_off_c, 2, 56, 64
4, 122880, Note_on_c, 2, 57, 81
4, 123068, Note_off_c, 2, 57, 64
4, 123072, Note_on_c, 2, 57, 81
4, 123260, Note_off_c, 2, 57, 64
4, 123264, Note_on_c, 2, 57, 81
4, 123452, Note_off_c, 2, 57, 64
4, 123456, Note_on_c, 2, 57, 81
4, 123644, Note_off_c, 2, 57, 64
4, 123648, Note_on_c, 2, 57, 81
4, 123836, Note_off_c, 2, 57, 64
4, 123840, Note_on_c, 2, 57, 81
4, 124028, Note_off_c, 2, 57, 64
4, 124032, Note_on_c, 2, 57, 81
4, 124220, Note_off_c, 2, 57, 64
4, 124224, Note_on_c, 2, 57, 81
4, 124412, Note_off_c, 2, 57, 64
4, 124416, Note_on_c, 2, 50, 76
4, 124516, Note_off_c, 2, 50, 64
4, 124608, Note_on_c, 2, 54, 76
4, 124708, Note_off_c, 2, 54, 64
4, 124800, Note_on_c, 2, 57, 87
4, 124992, Note_off_c, 2, 57, 64
4, 124992, Note_on_c, 2, 54, 66
4, 125176, Note_off_c, 2, 54, 64
4, 125184, Note_on_c, 2, 50, 66
4, 125284, Note_off_c, 2, 50, 64
4, 125376, Note_on_c, 2, 54, 66
4, 125476, Note_off_c, 2, 54, 64
4, 125568, Note_on_c, 2, 57, 87
4, 125760, Note_off_c, 2, 57, 64
4, 125760, Note_on_c, 2, 54, 66
4, 125944, Note_off_c, 2, 54, 64
4, 125952, Note_on_c, 2, 52, 66
4, 126052, Note_off_c, 2, 52, 64
4, 126144, Note_on_c, 2, 55, 66
4, 126244, Note_off_c, 2, 55, 64
4, 126336, Note_on_c, 2, 57, 91
4, 126528, Note_off_c, 2, 57, 64
4, 126528, Note_on_c, 2, 55, 66
4, 126712, Note_off_c, 2, 55, 64
4, 126720, Note_on_c, 2, 45, 66
4, 126820, Note_off_c, 2, 45, 64
4, 126912, Note_on_c, 2, 49, 66
4, 127012, Note_off_c, 2, 49, 64
4, 127104, Note_on_c, 2, 52, 91
4, 127296, Note_off_c, 2, 52, 64
4, 127296, Note_on_c, 2, 49, 66
4, 127480, Note_off_c, 2, 49, 64
4, 127488, Note_on_c, 2, 50, 66
4, 127588, Note_off_c, 2, 50, 64
4, 127680, Note_on_c, 2, 50, 66
4, 127780, Note_off_c, 2, 50, 64
4, 127872, Note_on_c, 2, 54, 91
4, 128064, Note_off_c, 2, 54, 64
4, 128064, Note_on_c, 2, 57, 66
4, 128248, Note_off_c, 2, 57, 64
4, 128256, Note_on_c, 2, 50, 66
4, 128356, Note_off_c, 2, 50, 64
4, 128448, Note_on_c, 2, 57, 66
4, 128548, Note_off_c, 2, 57, 64
4, 128640, Note_on_c, 2, 54, 91
4, 128832, Note_off_c, 2, 54, 64
4, 128832, Note_on_c, 2, 57, 66
4, 129016, Note_off_c, 2, 57, 64
4, 129024, Note_on_c, 2, 52, 66
4, 129124, Note_off_c, 2, 52, 64
4, 129216, Note_on_c, 2, 57, 66
4, 129316, Note_off_c, 2, 57, 64
4, 129408, Note_on_c, 2, 55, 91
4, 129600, Note_off_c, 2, 55, 64
4, 129600, Note_on_c, 2, 57, 66
4, 129784, Note_off_c, 2, 57, 64
4, 129792, Note_on_c, 2, 45, 66
4, 129892, Note_off_c, 2, 45, 64
4, 129984, Note_on_c, 2, 49, 66
4, 130084, Note_off_c, 2, 49, 64
4, 130176, Note_on_c, 2, 52, 91
4, 130368, Note_off_c, 2, 52, 64
4, 130368, Note_on_c, 2, 49, 66
4, 130552, Note_off_c, 2, 49, 64
4, 130560, Note_on_c, 2, 50, 71
4, 130660, Note_off_c, 2, 50, 64
4, 130944, Note_on_c, 2, 50, 71
4, 131044, Note_off_c, 2, 50, 64
4, 131328, Note_on_c, 2, 50, 71
4, 131428, Note_off_c, 2, 50, 64
4, 131712, Note_on_c, 2, 50, 71
4, 131812, Note_off_c, 2, 50, 64
4, 132096, Note_on_c, 2, 50, 71
4, 132196, Note_off_c, 2, 50, 64
4, 132480, Note_on_c, 2, 50, 71
4, 132580, Note_off_c, 2, 50, 64
4, 132864, Note_on_c, 2, 50, 71
4, 132964, Note_off_c, 2, 50, 64
4, 133248, Note_on_c, 2, 50, 71
4, 133348, Note_off_c, 2, 50, 64
4, 133632, Note_on_c, 2, 50, 71
4, 133732, Note_off_c, 2, 50, 64
4, 134016, Note_on_c, 2, 55, 71
4, 134116, Note_off_c, 2, 55, 64
4, 135360, Note_on_c, 2, 55, 71
4, 135552, Note_off_c, 2, 55, 64
4, 135552, Note_on_c, 2, 54, 71
4, 135736, Note_off_c, 2, 54, 64
4, 135744, Note_on_c, 2, 54, 71
4, 135844, Note_off_c, 2, 54, 64
4, 135936, Note_on_c, 2, 55, 71
4, 136036, Note_off_c, 2, 55, 64
4, 136128, Note_on_c, 2, 55, 71
4, 136228, Note_off_c, 2, 55, 64
4, 136320, Note_on_c, 2, 57, 71
4, 136420, Note_off_c, 2, 57, 64
4, 136512, Note_on_c, 2, 57, 71
4, 136612, Note_off_c, 2, 57, 64
4, 136704, Note_on_c, 2, 62, 71
4, 136804, Note_off_c, 2, 62, 64
4, 137088, Note_on_c, 2, 55, 71
4, 137188, Note_off_c, 2, 55, 64
4, 138432, Note_on_c, 2, 45, 92
4, 138432, Note_on_c, 2, 57, 92
4, 138524, Note_off_c, 2, 45, 64
4, 138524, Note_off_c, 2, 57, 64
4, 138528, Note_on_c, 2, 57, 92
4, 138528, Note_on_c, 2, 45, 92
4, 138620, Note_off_c, 2, 57, 64
4, 138620, Note_off_c, 2, 45, 64
4, 138624, Note_on_c, 2, 57, 92
4, 138624, Note_on_c, 2, 45, 92
4, 138812, Note_off_c, 2, 57, 64
4, 138812, Note_off_c, 2, 45, 64
4, 138816, Note_on_c, 2, 57, 92
4, 138816, Note_on_c, 2, 45, 92
4, 139004, Note_off_c, 2, 57, 64
4, 139004, Note_off_c, 2, 45, 64
4, 139008, Note_on_c, 2, 45, 71
4, 139008, Note_on_c, 2, 57, 71
4, 139196, Note_off_c, 2, 45, 64
4, 139196, Note_off_c, 2, 57, 64
4, 139200, Note_on_c, 2, 66, 71
4, 139300, Note_off_c, 2, 66, 64
4, 139392, Note_on_c, 2, 67, 71
4, 139492, Note_off_c, 2, 67, 64
4, 139584, Note_on_c, 2, 64, 71
4, 139684, Note_off_c, 2, 64, 64
4, 139776, Note_on_c, 2, 66, 71
4, 139964, Note_off_c, 2, 66, 64
4, 139968, Note_on_c, 2, 61, 71
4, 140156, Note_off_c, 2, 61, 64
4, 140160, Note_on_c, 2, 62, 71
4, 140348, Note_off_c, 2, 62, 64
4, 140352, Note_on_c, 2, 64, 71
4, 140540, Note_off_c, 2, 64, 64
4, 140544, Note_on_c, 2, 66, 71
4, 140732, Note_off_c, 2, 66, 64
4, 140736, Note_on_c, 2, 67, 71
4, 140924, Note_off_c, 2, 67, 64
4, 140928, Note_on_c, 2, 64, 71
4, 141116, Note_off_c, 2, 64, 64
4, 141120, Note_on_c, 2, 66, 71
4, 141308, Note_off_c, 2, 66, 64
4, 141312, Note_on_c, 2, 57, 71
4, 141500, Note_off_c, 2, 57, 64
4, 141504, Note_on_c, 2, 57, 71
4, 141692, Note_off_c, 2, 57, 64
4, 141696, Note_on_c, 2, 57, 71
4, 141884, Note_off_c, 2, 57, 64
4, 141888, Note_on_c, 2, 57, 71
4, 142076, Note_off_c, 2, 57, 64
4, 142080, Note_on_c, 2, 57, 71
4, 142268, Note_off_c, 2, 57, 64
4, 142272, Note_on_c, 2, 57, 71
4, 142460, Note_off_c, 2, 57, 64
4, 142464, Note_on_c, 2, 57, 71
4, 142652, Note_off_c, 2, 57, 64
4, 142656, Note_on_c, 2, 57, 71
4, 142844, Note_off_c, 2, 57, 64
4, 142848, Note_on_c, 2, 57, 72
4, 143036, Note_off_c, 2, 57, 64
4, 143040, Note_on_c, 2, 57, 74
4, 143228, Note_off_c, 2, 57, 64
4, 143232, Note_on_c, 2, 57, 77
4, 143420, Note_off_c, 2, 57, 64
4, 143424, Note_on_c, 2, 57, 79
4, 143612, Note_off_c, 2, 57, 64
4, 143616, Note_on_c, 2, 57, 82
4, 143616, Note_on_c, 2, 45, 82
4, 143804, Note_off_c, 2, 57, 64
4, 143804, Note_off_c, 2, 45, 64
4, 143808, Note_on_c, 2, 57, 85
4, 143808, Note_on_c, 2, 45, 85
4, 143996, Note_off_c, 2, 57, 64
4, 143996, Note_off_c, 2, 45, 64
4, 144000, Note_on_c, 2, 57, 88
4, 144000, Note_on_c, 2, 45, 88
4, 144188, Note_off_c, 2, 57, 64
4, 144188, Note_off_c, 2, 45, 64
4, 144192, Note_on_c, 2, 57, 90
4, 144192, Note_on_c, 2, 45, 90
4, 144380, Note_off_c, 2, 57, 64
4, 144380, Note_off_c, 2, 45, 64
4, 144384, Note_on_c, 2, 50, 92
4, 144572, Note_off_c, 2, 50, 64
4, 144576, Note_on_c, 2, 54, 92
4, 144668, Note_off_c, 2, 54, 64
4, 144672, Note_on_c, 2, 57, 92
4, 144764, Note_off_c, 2, 57, 64
4, 145920, Note_on_c, 2, 45, 92
4, 146108, Note_off_c, 2, 45, 64
4, 146112, Note_on_c, 2, 49, 92
4, 146204, Note_off_c, 2, 49, 64
4, 146208, Note_on_c, 2, 52, 92
4, 146300, Note_off_c, 2, 52, 64
4, 146304, Note_on_c, 2, 57, 92
4, 146492, Note_off_c, 2, 57, 64
4, 147456, Note_on_c, 2, 50, 92
4, 147644, Note_off_c, 2, 50, 64
4, 147648, Note_on_c, 2, 54, 92
4, 147740, Note_off_c, 2, 54, 64
4, 147744, Note_on_c, 2, 57, 92
4, 147836, Note_off_c, 2, 57, 64
4, 148992, Note_on_c, 2, 45, 92
4, 149180, Note_off_c, 2, 45, 64
4, 149184, Note_on_c, 2, 49, 92
4, 149276, Note_off_c, 2, 49, 64
4, 149280, Note_on_c, 2, 52, 92
4, 149372, Note_off_c, 2, 52, 64
4, 149376, Note_on_c, 2, 57, 92
4, 149564, Note_off_c, 2, 57, 64
4, 150528, Note_on_c, 2, 57, 92
4, 150528, Note_on_c, 2, 54, 92
4, 150528, Note_on_c, 2, 50, 92
4, 150620, Note_off_c, 2, 57, 64
4, 150620, Note_off_c, 2, 54, 64
4, 150624, Note_on_c, 2, 62, 92
4, 150716, Note_off_c, 2, 62, 64
4, 150720, Note_on_c, 2, 57, 92
4, 150720, Note_on_c, 2, 54, 92
4, 150812, Note_off_c, 2, 57, 64
4, 150812, Note_off_c, 2, 54, 64
4, 150816, Note_on_c, 2, 62, 92
4, 150908, Note_off_c, 2, 62, 64
4, 150912, Note_on_c, 2, 57, 92
4, 150912, Note_on_c, 2, 54, 92
4, 151004, Note_off_c, 2, 57, 64
4, 151004, Note_off_c, 2, 54, 64
4, 151008, Note_on_c, 2, 62, 92
4, 151100, Note_off_c, 2, 50, 64
4, 151100, Note_off_c, 2, 62, 64
4, 151104, Note_on_c, 2, 54, 92
4, 151104, Note_on_c, 2, 50, 92
4, 151196, Note_off_c, 2, 54, 64
4, 151200, Note_on_c, 2, 62, 92
4, 151292, Note_off_c, 2, 50, 64
4, 151292, Note_off_c, 2, 62, 64
4, 151296, Note_on_c, 2, 57, 92
4, 151296, Note_on_c, 2, 54, 92
4, 151388, Note_off_c, 2, 57, 64
4, 151392, Note_on_c, 2, 62, 92
4, 151484, Note_off_c, 2, 62, 64
4, 151488, Note_on_c, 2, 57, 92
4, 151580, Note_off_c, 2, 57, 64
4, 151584, Note_on_c, 2, 62, 92
4, 151676, Note_off_c, 2, 62, 64
4, 151680, Note_on_c, 2, 57, 92
4, 151772, Note_off_c, 2, 57, 64
4, 151776, Note_on_c, 2, 62, 92
4, 151868, Note_off_c, 2, 54, 64
4, 151868, Note_off_c, 2, 62, 64
4, 151872, Note_on_c, 2, 54, 92
4, 151872, Note_on_c, 2, 50, 92
4, 151964, Note_off_c, 2, 54, 64
4, 151968, Note_on_c, 2, 62, 92
4, 152060, Note_off_c, 2, 50, 64
4, 152060, Note_off_c, 2, 62, 64
4, 152064, Note_on_c, 2, 59, 92
4, 152064, Note_on_c, 2, 55, 92
4, 152156, Note_off_c, 2, 59, 64
4, 152160, Note_on_c, 2, 62, 92
4, 152252, Note_off_c, 2, 62, 64
4, 152256, Note_on_c, 2, 59, 92
4, 152348, Note_off_c, 2, 59, 64
4, 152352, Note_on_c, 2, 62, 92
4, 152444, Note_off_c, 2, 62, 64
4, 152448, Note_on_c, 2, 59, 92
4, 152540, Note_off_c, 2, 59, 64
4, 152544, Note_on_c, 2, 62, 92
4, 152636, Note_off_c, 2, 55, 64
4, 152636, Note_off_c, 2, 62, 64
4, 152640, Note_on_c, 2, 59, 92
4, 152640, Note_on_c, 2, 55, 92
4, 152732, Note_off_c, 2, 59, 64
4, 152736, Note_on_c, 2, 62, 92
4, 152828, Note_off_c, 2, 55, 64
4, 152828, Note_off_c, 2, 62, 64
4, 152832, Note_on_c, 2, 62, 92
4, 152832, Note_on_c, 2, 59, 92
4, 152924, Note_off_c, 2, 62, 64
4, 152928, Note_on_c, 2, 67, 92
4, 153020, Note_off_c, 2, 67, 64
4, 153024, Note_on_c, 2, 62, 92
4, 153116, Note_off_c, 2, 62, 64
4, 153120, Note_on_c, 2, 67, 92
4, 153212, Note_off_c, 2, 67, 64
4, 153216, Note_on_c, 2, 62, 92
4, 153308, Note_off_c, 2, 62, 64
4, 153312, Note_on_c, 2, 67, 92
4, 153404, Note_off_c, 2, 59, 64
4, 153404, Note_off_c, 2, 67, 64
4, 153408, Note_on_c, 2, 62, 92
4, 153408, Note_on_c, 2, 59, 92
4, 153500, Note_off_c, 2, 62, 64
4, 153504, Note_on_c, 2, 67, 92
4, 153596, Note_off_c, 2, 59, 64
4, 153596, Note_off_c, 2, 67, 64
4, 153600, Note_on_c, 2, 57, 92
4, 153600, Note_on_c, 2, 62, 92
4, 153692, Note_off_c, 2, 57, 64
4, 153692, Note_off_c, 2, 62, 64
4, 153696, Note_on_c, 2, 66, 92
4, 153788, Note_off_c, 2, 66, 64
4, 153792, Note_on_c, 2, 57, 92
4, 153792, Note_on_c, 2, 62, 92
4, 153884, Note_off_c, 2, 57, 64
4, 153884, Note_off_c, 2, 62, 64
4, 153888, Note_on_c, 2, 66, 92
4, 153980, Note_off_c, 2, 66, 64
4, 153984, Note_on_c, 2, 62, 92
4, 153984, Note_on_c, 2, 59, 92
4, 154076, Note_off_c, 2, 62, 64
4, 154076, Note_off_c, 2, 59, 64
4, 154080, Note_on_c, 2, 66, 92
4, 154172, Note_off_c, 2, 66, 64
4, 154176, Note_on_c, 2, 59, 92
4, 154176, Note_on_c, 2, 62, 92
4, 154268, Note_off_c, 2, 59, 64
4, 154268, Note_off_c, 2, 62, 64
4, 154272, Note_on_c, 2, 66, 92
4, 154364, Note_off_c, 2, 66, 64
4, 154368, Note_on_c, 2, 55, 92
4, 154368, Note_on_c, 2, 59, 92
4, 154368, Note_on_c, 2, 62, 92
4, 154460, Note_off_c, 2, 55, 64
4, 154460, Note_off_c, 2, 59, 64
4, 154460, Note_off_c, 2, 62, 64
4, 154464, Note_on_c, 2, 64, 92
4, 154556, Note_off_c, 2, 64, 64
4, 154560, Note_on_c, 2, 55, 92
4, 154560, Note_on_c, 2, 59, 92
4, 154560, Note_on_c, 2, 62, 92
4, 154652, Note_off_c, 2, 55, 64
4, 154652, Note_off_c, 2, 59, 64
4, 154652, Note_off_c, 2, 62, 64
4, 154656, Note_on_c, 2, 64, 92
4, 154748, Note_off_c, 2, 64, 64
4, 154752, Note_on_c, 2, 57, 92
4, 154752, Note_on_c, 2, 61, 92
4, 154844, Note_off_c, 2, 57, 64
4, 154844, Note_off_c, 2, 61, 64
4, 154848, Note_on_c, 2, 64, 92
4, 154940, Note_off_c, 2, 64, 64
4, 154944, Note_on_c, 2, 57, 92
4, 154944, Note_on_c, 2, 61, 92
4, 155036, Note_off_c, 2, 57, 64
4, 155036, Note_off_c, 2, 61, 64
4, 155040, Note_on_c, 2, 64, 92
4, 155132, Note_off_c, 2, 64, 64
4, 155136, Note_on_c, 2, 62, 92
4, 155136, Note_on_c, 2, 57, 92
4, 155136, Note_on_c, 2, 54, 92
4, 155136, Note_on_c, 2, 50, 92
4, 155236, Note_off_c, 2, 62, 64
4, 155236, Note_off_c, 2, 57, 64
4, 155236, Note_off_c, 2, 54, 64
4, 155236, Note_off_c, 2, 50, 64
4, 155328, Note_on_c, 2, 45, 92
4, 155428, Note_off_c, 2, 45, 64
4, 155520, Note_on_c, 2, 54, 92
4, 155620, Note_off_c, 2, 54, 64
4, 155712, Note_on_c, 2, 45, 92
4, 155812, Note_off_c, 2, 45, 64
4, 155904, Note_on_c, 2, 57, 92
4, 155904, Note_on_c, 2, 52, 92
4, 155904, Note_on_c, 2, 49, 92
4, 156004, Note_off_c, 2, 57, 64
4, 156004, Note_off_c, 2, 52, 64
4, 156004, Note_off_c, 2, 49, 64
4, 156096, Note_on_c, 2, 45, 92
4, 156196, Note_off_c, 2, 45, 64
4, 156288, Note_on_c, 2, 57, 92
4, 156288, Note_on_c, 2, 55, 92
4, 156388, Note_off_c, 2, 57, 64
4, 156388, Note_off_c, 2, 55, 64
4, 156480, Note_on_c, 2, 45, 92
4, 156580, Note_off_c, 2, 45, 64
4, 156672, Note_on_c, 2, 57, 92
4, 156672, Note_on_c, 2, 54, 92
4, 156772, Note_off_c, 2, 57, 64
4, 156772, Note_off_c, 2, 54, 64
4, 156864, Note_on_c, 2, 45, 92
4, 156964, Note_off_c, 2, 45, 64
4, 157056, Note_on_c, 2, 57, 92
4, 157056, Note_on_c, 2, 54, 92
4, 157056, Note_on_c, 2, 50, 92
4, 157156, Note_off_c, 2, 57, 64
4, 157156, Note_off_c, 2, 54, 64
4, 157156, Note_off_c, 2, 50, 64
4, 157248, Note_on_c, 2, 45, 92
4, 157348, Note_off_c, 2, 45, 64
4, 157440, Note_on_c, 2, 57, 92
4, 157440, Note_on_c, 2, 55, 92
4, 157440, Note_on_c, 2, 52, 92
4, 157540, Note_off_c, 2, 57, 64
4, 157540, Note_off_c, 2, 55, 64
4, 157540, Note_off_c, 2, 52, 64
4, 157632, Note_on_c, 2, 49, 92
4, 157732, Note_off_c, 2, 49, 64
4, 157824, Note_on_c, 2, 57, 92
4, 157824, Note_on_c, 2, 55, 92
4, 157824, Note_on_c, 2, 52, 92
4, 157924, Note_off_c, 2, 57, 64
4, 157924, Note_off_c, 2, 55, 64
4, 157924, Note_off_c, 2, 52, 64
4, 158016, Note_on_c, 2, 45, 92
4, 158116, Note_off_c, 2, 45, 64
4, 158208, Note_on_c, 2, 57, 71
4, 158208, Note_on_c, 2, 53, 71
4, 158208, Note_on_c, 2, 50, 71
4, 158588, Note_off_c, 2, 57, 64
4, 158588, Note_off_c, 2, 53, 64
4, 158588, Note_off_c, 2, 50, 64
4, 159744, Note_on_c, 2, 55, 71
4, 159744, Note_on_c, 2, 50, 71
4, 159744, Note_on_c, 2, 46, 71
4, 159744, Note_on_c, 2, 43, 71
4, 160124, Note_off_c, 2, 55, 64
4, 160124, Note_off_c, 2, 50, 64
4, 160124, Note_off_c, 2, 46, 64
4, 160124, Note_off_c, 2, 43, 64
4, 161280, Note_on_c, 2, 55, 71
4, 161280, Note_on_c, 2, 52, 71
4, 161280, Note_on_c, 2, 49, 71
4, 161280, Note_on_c, 2, 45, 71
4, 161660, Note_off_c, 2, 55, 64
4, 161660, Note_off_c, 2, 52, 64
4, 161660, Note_off_c, 2, 49, 64
4, 161660, Note_off_c, 2, 45, 64
4, 163008, Note_on_c, 2, 65, 71
4, 163008, Note_on_c, 2, 53, 71
4, 163108, Note_off_c, 2, 65, 64
4, 163108, Note_off_c, 2, 53, 64
4, 163200, Note_on_c, 2, 65, 71
4, 163200, Note_on_c, 2, 53, 71
4, 163300, Note_off_c, 2, 65, 64
4, 163300, Note_off_c, 2, 53, 64
4, 163392, Note_on_c, 2, 65, 71
4, 163392, Note_on_c, 2, 53, 71
4, 163492, Note_off_c, 2, 65, 64
4, 163492, Note_off_c, 2, 53, 64
4, 163776, Note_on_c, 2, 64, 71
4, 163776, Note_on_c, 2, 55, 71
4, 163876, Note_off_c, 2, 64, 64
4, 163876, Note_off_c, 2, 55, 64
4, 163968, Note_on_c, 2, 64, 71
4, 163968, Note_on_c, 2, 55, 71
4, 164068, Note_off_c, 2, 64, 64
4, 164068, Note_off_c, 2, 55, 64
4, 164160, Note_on_c, 2, 64, 71
4, 164160, Note_on_c, 2, 55, 71
4, 164260, Note_off_c, 2, 64, 64
4, 164260, Note_off_c, 2, 55, 64
4, 164352, Note_on_c, 2, 65, 71
4, 164352, Note_on_c, 2, 57, 71
4, 164452, Note_off_c, 2, 65, 64
4, 164452, Note_off_c, 2, 57, 64
4, 164736, Note_on_c, 2, 62, 71
4, 164736, Note_on_c, 2, 58, 71
4, 164836, Note_off_c, 2, 62, 64
4, 164836, Note_off_c, 2, 58, 64
4, 165120, Note_on_c, 2, 57, 71
4, 165220, Note_off_c, 2, 57, 64
4, 165504, Note_on_c, 2, 55, 71
4, 165504, Note_on_c, 2, 45, 71
4, 165604, Note_off_c, 2, 55, 64
4, 165604, Note_off_c, 2, 45, 64
4, 165888, Note_on_c, 2, 53, 92
4, 165888, Note_on_c, 2, 50, 92
4, 166268, Note_off_c, 2, 53, 64
4, 166268, Note_off_c, 2, 50, 64
4, 167424, Note_on_c, 2, 55, 96
4, 167424, Note_on_c, 2, 50, 96
4, 167424, Note_on_c, 2, 46, 96
4, 167424, Note_on_c, 2, 43, 96
4, 167804, Note_off_c, 2, 55, 64
4, 167804, Note_off_c, 2, 50, 64
4, 167804, Note_off_c, 2, 46, 64
4, 167804, Note_off_c, 2, 43, 64
4, 168960, Note_on_c, 2, 55, 96
4, 168960, Note_on_c, 2, 52, 96
4, 168960, Note_on_c, 2, 49, 96
4, 168960, Note_on_c, 2, 45, 96
4, 169340, Note_off_c, 2, 55, 64
4, 169340, Note_off_c, 2, 52, 64
4, 169340, Note_off_c, 2, 49, 64
4, 169340, Note_off_c, 2, 45, 64
4, 170688, Note_on_c, 2, 65, 71
4, 170688, Note_on_c, 2, 53, 71
4, 170788, Note_off_c, 2, 65, 64
4, 170788, Note_off_c, 2, 53, 64
4, 170880, Note_on_c, 2, 65, 71
4, 170880, Note_on_c, 2, 53, 71
4, 170980, Note_off_c, 2, 65, 64
4, 170980, Note_off_c, 2, 53, 64
4, 171072, Note_on_c, 2, 65, 71
4, 171072, Note_on_c, 2, 53, 71
4, 171172, Note_off_c, 2, 65, 64
4, 171172, Note_off_c, 2, 53, 64
4, 171456, Note_on_c, 2, 64, 71
4, 171456, Note_on_c, 2, 55, 71
4, 171556, Note_off_c, 2, 64, 64
4, 171556, Note_off_c, 2, 55, 64
4, 171648, Note_on_c, 2, 64, 71
4, 171648, Note_on_c, 2, 55, 71
4, 171748, Note_off_c, 2, 64, 64
4, 171748, Note_off_c, 2, 55, 64
4, 171840, Note_on_c, 2, 64, 71
4, 171840, Note_on_c, 2, 55, 71
4, 171940, Note_off_c, 2, 64, 64
4, 171940, Note_off_c, 2, 55, 64
4, 172032, Note_on_c, 2, 65, 71
4, 172032, Note_on_c, 2, 57, 71
4, 172132, Note_off_c, 2, 65, 64
4, 172132, Note_off_c, 2, 57, 64
4, 172416, Note_on_c, 2, 62, 71
4, 172416, Note_on_c, 2, 58, 71
4, 172516, Note_off_c, 2, 62, 64
4, 172516, Note_off_c, 2, 58, 64
4, 172800, Note_on_c, 2, 57, 71
4, 172900, Note_off_c, 2, 57, 64
4, 173184, Note_on_c, 2, 55, 71
4, 173184, Note_on_c, 2, 45, 71
4, 173284, Note_off_c, 2, 55, 64
4, 173284, Note_off_c, 2, 45, 64
4, 173568, Note_on_c, 2, 53, 71
4, 173568, Note_on_c, 2, 50, 71
4, 173948, Note_off_c, 2, 53, 64
4, 173948, Note_off_c, 2, 50, 64
4, 174336, Note_on_c, 2, 57, 71
4, 174336, Note_on_c, 2, 53, 71
4, 174336, Note_on_c, 2, 50, 71
4, 174716, Note_off_c, 2, 57, 64
4, 174716, Note_off_c, 2, 53, 64
4, 174716, Note_off_c, 2, 50, 64
4, 175104, Note_on_c, 2, 57, 71
4, 175104, Note_on_c, 2, 52, 71
4, 175104, Note_on_c, 2, 45, 71
4, 175484, Note_off_c, 2, 57, 64
4, 175484, Note_off_c, 2, 52, 64
4, 175484, Note_off_c, 2, 45, 64
4, 175488, Note_on_c, 2, 61, 71
4, 175676, Note_off_c, 2, 61, 64
4, 175680, Note_on_c, 2, 64, 71
4, 175868, Note_off_c, 2, 64, 64
4, 175872, Note_on_c, 2, 62, 71
4, 176060, Note_off_c, 2, 62, 64
4, 176064, Note_on_c, 2, 65, 71
4, 176252, Note_off_c, 2, 65, 64
4, 176256, Note_on_c, 2, 64, 71
4, 176444, Note_off_c, 2, 64, 64
4, 176448, Note_on_c, 2, 67, 71
4, 176636, Note_off_c, 2, 67, 64
4, 176640, Note_on_c, 2, 65, 71
4, 176640, Note_on_c, 2, 62, 71
4, 177020, Note_off_c, 2, 65, 64
4, 177020, Note_off_c, 2, 62, 64
4, 177408, Note_on_c, 2, 57, 71
4, 177408, Note_on_c, 2, 53, 71
4, 177408, Note_on_c, 2, 50, 71
4, 177788, Note_off_c, 2, 57, 64
4, 177788, Note_off_c, 2, 53, 64
4, 177788, Note_off_c, 2, 50, 64
4, 178176, Note_on_c, 2, 57, 71
4, 178176, Note_on_c, 2, 52, 71
4, 178176, Note_on_c, 2, 45, 71
4, 178556, Note_off_c, 2, 57, 64
4, 178556, Note_off_c, 2, 52, 64
4, 178556, Note_off_c, 2, 45, 64
4, 178560, Note_on_c, 2, 61, 71
4, 178748, Note_off_c, 2, 61, 64
4, 178752, Note_on_c, 2, 64, 71
4, 178940, Note_off_c, 2, 64, 64
4, 178944, Note_on_c, 2, 62, 71
4, 179132, Note_off_c, 2, 62, 64
4, 179136, Note_on_c, 2, 65, 71
4, 179324, Note_off_c, 2, 65, 64
4, 179328, Note_on_c, 2, 64, 71
4, 179516, Note_off_c, 2, 64, 64
4, 179520, Note_on_c, 2, 67, 71
4, 179708, Note_off_c, 2, 67, 64
4, 179712, Note_on_c, 2, 65, 71
4, 179712, Note_on_c, 2, 62, 71
4, 180092, Note_off_c, 2, 65, 64
4, 180092, Note_off_c, 2, 62, 64
4, 180672, Note_on_c, 2, 52, 97
4, 180708, Note_off_c, 2, 52, 64
4, 180712, Note_on_c, 2, 50, 92
4, 180764, Note_off_c, 2, 50, 64
4, 180768, Note_on_c, 2, 49, 92
4, 180860, Note_off_c, 2, 49, 64
4, 180864, Note_on_c, 2, 50, 92
4, 181052, Note_off_c, 2, 50, 64
4, 181056, Note_on_c, 2, 52, 92
4, 181244, Note_off_c, 2, 52, 64
4, 181248, Note_on_c, 2, 53, 92
4, 181628, Note_off_c, 2, 53, 64
4, 185280, Note_on_c, 2, 52, 96
4, 185316, Note_off_c, 2, 52, 64
4, 185320, Note_on_c, 2, 50, 92
4, 185372, Note_off_c, 2, 50, 64
4, 185376, Note_on_c, 2, 48, 92
4, 185468, Note_off_c, 2, 48, 64
4, 185472, Note_on_c, 2, 50, 92
4, 185660, Note_off_c, 2, 50, 64
4, 185664, Note_on_c, 2, 53, 92
4, 185852, Note_off_c, 2, 53, 64
4, 185856, Note_on_c, 2, 44, 92
4, 186236, Note_off_c, 2, 44, 64
4, 187392, Note_on_c, 2, 57, 92
4, 187392, Note_on_c, 2, 52, 92
4, 187392, Note_on_c, 2, 48, 92
4, 187392, Note_on_c, 2, 45, 92
4, 187772, Note_off_c, 2, 57, 64
4, 187772, Note_off_c, 2, 52, 64
4, 187772, Note_off_c, 2, 48, 64
4, 187772, Note_off_c, 2, 45, 64
4, 188928, Note_on_c, 2, 57, 92
4, 188928, Note_on_c, 2, 54, 92
4, 188928, Note_on_c, 2, 51, 92
4, 188928, Note_on_c, 2, 47, 92
4, 189308, Note_off_c, 2, 57, 64
4, 189308, Note_off_c, 2, 54, 64
4, 189308, Note_off_c, 2, 51, 64
4, 189308, Note_off_c, 2, 47, 64
4, 190464, Note_on_c, 2, 55, 71
4, 190464, Note_on_c, 2, 52, 71
4, 190844, Note_off_c, 2, 55, 64
4, 190844, Note_off_c, 2, 52, 64
4, 191232, Note_on_c, 2, 59, 71
4, 191232, Note_on_c, 2, 52, 71
4, 191232, Note_on_c, 2, 55, 71
4, 191612, Note_off_c, 2, 59, 64
4, 191612, Note_off_c, 2, 52, 64
4, 191612, Note_off_c, 2, 55, 64
4, 192000, Note_on_c, 2, 59, 71
4, 192000, Note_on_c, 2, 54, 71
4, 192000, Note_on_c, 2, 47, 71
4, 192380, Note_off_c, 2, 59, 64
4, 192380, Note_off_c, 2, 54, 64
4, 192380, Note_off_c, 2, 47, 64
4, 193728, Note_on_c, 2, 59, 71
4, 193728, Note_on_c, 2, 55, 71
4, 193728, Note_on_c, 2, 52, 71
4, 193828, Note_off_c, 2, 59, 64
4, 193828, Note_off_c, 2, 55, 64
4, 193828, Note_off_c, 2, 52, 64
4, 193920, Note_on_c, 2, 59, 71
4, 193920, Note_on_c, 2, 52, 71
4, 193920, Note_on_c, 2, 55, 71
4, 194020, Note_off_c, 2, 59, 64
4, 194020, Note_off_c, 2, 52, 64
4, 194020, Note_off_c, 2, 55, 64
4, 194112, Note_on_c, 2, 59, 71
4, 194112, Note_on_c, 2, 55, 71
4, 194112, Note_on_c, 2, 52, 71
4, 194212, Note_off_c, 2, 59, 64
4, 194212, Note_off_c, 2, 55, 64
4, 194212, Note_off_c, 2, 52, 64
4, 194496, Note_on_c, 2, 60, 71
4, 194496, Note_on_c, 2, 57, 71
4, 194496, Note_on_c, 2, 54, 71
4, 194496, Note_on_c, 2, 50, 71
4, 194596, Note_off_c, 2, 60, 64
4, 194596, Note_off_c, 2, 57, 64
4, 194596, Note_off_c, 2, 54, 64
4, 194596, Note_off_c, 2, 50, 64
4, 194688, Note_on_c, 2, 60, 71
4, 194688, Note_on_c, 2, 57, 71
4, 194688, Note_on_c, 2, 54, 71
4, 194688, Note_on_c, 2, 50, 71
4, 194788, Note_off_c, 2, 60, 64
4, 194788, Note_off_c, 2, 57, 64
4, 194788, Note_off_c, 2, 54, 64
4, 194788, Note_off_c, 2, 50, 64
4, 194880, Note_on_c, 2, 60, 71
4, 194880, Note_on_c, 2, 57, 71
4, 194880, Note_on_c, 2, 54, 71
4, 194880, Note_on_c, 2, 50, 71
4, 194980, Note_off_c, 2, 60, 64
4, 194980, Note_off_c, 2, 57, 64
4, 194980, Note_off_c, 2, 54, 64
4, 194980, Note_off_c, 2, 50, 64
4, 195072, Note_on_c, 2, 59, 71
4, 195072, Note_on_c, 2, 55, 71
4, 195072, Note_on_c, 2, 52, 71
4, 195172, Note_off_c, 2, 59, 64
4, 195172, Note_off_c, 2, 55, 64
4, 195172, Note_off_c, 2, 52, 64
4, 195456, Note_on_c, 2, 57, 71
4, 195456, Note_on_c, 2, 54, 71
4, 195456, Note_on_c, 2, 48, 71
4, 195456, Note_on_c, 2, 45, 71
4, 195556, Note_off_c, 2, 57, 64
4, 195556, Note_off_c, 2, 54, 64
4, 195556, Note_off_c, 2, 48, 64
4, 195556, Note_off_c, 2, 45, 64
4, 195840, Note_on_c, 2, 55, 71
4, 195840, Note_on_c, 2, 52, 71
4, 195840, Note_on_c, 2, 47, 71
4, 195940, Note_off_c, 2, 55, 64
4, 195940, Note_off_c, 2, 52, 64
4, 195940, Note_off_c, 2, 47, 64
4, 196224, Note_on_c, 2, 54, 71
4, 196224, Note_on_c, 2, 51, 71
4, 196224, Note_on_c, 2, 47, 71
4, 196324, Note_off_c, 2, 54, 64
4, 196324, Note_off_c, 2, 51, 64
4, 196324, Note_off_c, 2, 47, 64
4, 196608, Note_on_c, 2, 55, 71
4, 196608, Note_on_c, 2, 52, 71
4, 196988, Note_off_c, 2, 55, 64
4, 196988, Note_off_c, 2, 52, 64
4, 198144, Note_on_c, 2, 55, 71
4, 198144, Note_on_c, 2, 52, 71
4, 198144, Note_on_c, 2, 49, 71
4, 198144, Note_on_c, 2, 45, 71
4, 198524, Note_off_c, 2, 55, 64
4, 198524, Note_off_c, 2, 52, 64
4, 198524, Note_off_c, 2, 49, 64
4, 198524, Note_off_c, 2, 45, 64
4, 199680, Note_on_c, 2, 53, 71
4, 199680, Note_on_c, 2, 50, 71
4, 200060, Note_off_c, 2, 53, 64
4, 200060, Note_off_c, 2, 50, 64
4, 200448, Note_on_c, 2, 57, 71
4, 200448, Note_on_c, 2, 53, 71
4, 200448, Note_on_c, 2, 50, 71
4, 200828, Note_off_c, 2, 57, 64
4, 200828, Note_off_c, 2, 53, 64
4, 200828, Note_off_c, 2, 50, 64
4, 201216, Note_on_c, 2, 57, 71
4, 201216, Note_on_c, 2, 52, 71
4, 201216, Note_on_c, 2, 45, 71
4, 201596, Note_off_c, 2, 57, 64
4, 201596, Note_off_c, 2, 52, 64
4, 201596, Note_off_c, 2, 45, 64
4, 201600, Note_on_c, 2, 61, 71
4, 201792, Note_off_c, 2, 61, 64
4, 201792, Note_on_c, 2, 64, 71
4, 201980, Note_off_c, 2, 64, 64
4, 201984, Note_on_c, 2, 62, 71
4, 202172, Note_off_c, 2, 62, 64
4, 202176, Note_on_c, 2, 65, 71
4, 202364, Note_off_c, 2, 65, 64
4, 202368, Note_on_c, 2, 64, 71
4, 202556, Note_off_c, 2, 64, 64
4, 202560, Note_on_c, 2, 67, 71
4, 202744, Note_off_c, 2, 67, 64
4, 202752, Note_on_c, 2, 65, 71
4, 202940, Note_off_c, 2, 65, 64
4, 202944, Note_on_c, 2, 57, 71
4, 202944, Note_on_c, 2, 53, 71
4, 202944, Note_on_c, 2, 50, 71
4, 203044, Note_off_c, 2, 57, 64
4, 203044, Note_off_c, 2, 53, 64
4, 203044, Note_off_c, 2, 50, 64
4, 203136, Note_on_c, 2, 57, 71
4, 203136, Note_on_c, 2, 53, 71
4, 203136, Note_on_c, 2, 50, 71
4, 203236, Note_off_c, 2, 57, 64
4, 203236, Note_off_c, 2, 53, 64
4, 203236, Note_off_c, 2, 50, 64
4, 203328, Note_on_c, 2, 57, 71
4, 203328, Note_on_c, 2, 53, 71
4, 203328, Note_on_c, 2, 50, 71
4, 203428, Note_off_c, 2, 57, 64
4, 203428, Note_off_c, 2, 53, 64
4, 203428, Note_off_c, 2, 50, 64
4, 203712, Note_on_c, 2, 58, 71
4, 203712, Note_on_c, 2, 55, 71
4, 203712, Note_on_c, 2, 52, 71
4, 203712, Note_on_c, 2, 49, 71
4, 203812, Note_off_c, 2, 58, 64
4, 203812, Note_off_c, 2, 55, 64
4, 203812, Note_off_c, 2, 52, 64
4, 203812, Note_off_c, 2, 49, 64
4, 203904, Note_on_c, 2, 58, 71
4, 203904, Note_on_c, 2, 55, 71
4, 203904, Note_on_c, 2, 52, 71
4, 203904, Note_on_c, 2, 49, 71
4, 204004, Note_off_c, 2, 58, 64
4, 204004, Note_off_c, 2, 55, 64
4, 204004, Note_off_c, 2, 52, 64
4, 204004, Note_off_c, 2, 49, 64
4, 204096, Note_on_c, 2, 58, 71
4, 204096, Note_on_c, 2, 55, 71
4, 204096, Note_on_c, 2, 52, 71
4, 204096, Note_on_c, 2, 49, 71
4, 204196, Note_off_c, 2, 58, 64
4, 204196, Note_off_c, 2, 55, 64
4, 204196, Note_off_c, 2, 52, 64
4, 204196, Note_off_c, 2, 49, 64
4, 204288, Note_on_c, 2, 57, 71
4, 204288, Note_on_c, 2, 53, 71
4, 204288, Note_on_c, 2, 50, 71
4, 204388, Note_off_c, 2, 57, 64
4, 204388, Note_off_c, 2, 53, 64
4, 204388, Note_off_c, 2, 50, 64
4, 204672, Note_on_c, 2, 55, 71
4, 204672, Note_on_c, 2, 52, 71
4, 204672, Note_on_c, 2, 46, 71
4, 204672, Note_on_c, 2, 43, 71
4, 204772, Note_off_c, 2, 55, 64
4, 204772, Note_off_c, 2, 52, 64
4, 204772, Note_off_c, 2, 46, 64
4, 204772, Note_off_c, 2, 43, 64
4, 205056, Note_on_c, 2, 53, 71
4, 205056, Note_on_c, 2, 50, 71
4, 205056, Note_on_c, 2, 45, 71
4, 205156, Note_off_c, 2, 53, 64
4, 205156, Note_off_c, 2, 50, 64
4, 205156, Note_off_c, 2, 45, 64
4, 205440, Note_on_c, 2, 52, 71
4, 205440, Note_on_c, 2, 45, 71
4, 205440, Note_on_c, 2, 49, 71
4, 205540, Note_off_c, 2, 52, 64
4, 205540, Note_off_c, 2, 45, 64
4, 205540, Note_off_c, 2, 49, 64
4, 205824, Note_on_c, 2, 53, 92
4, 205824, Note_on_c, 2, 50, 92
4, 206204, Note_off_c, 2, 53, 64
4, 206204, Note_off_c, 2, 50, 64
4, 207360, Note_on_c, 2, 53, 92
4, 207360, Note_on_c, 2, 50, 92
4, 207360, Note_on_c, 2, 47, 92
4, 207360, Note_on_c, 2, 43, 92
4, 207740, Note_off_c, 2, 53, 64
4, 207740, Note_off_c, 2, 50, 64
4, 207740, Note_off_c, 2, 47, 64
4, 207740, Note_off_c, 2, 43, 64
4, 208896, Note_on_c, 2, 52, 71
4, 208896, Note_on_c, 2, 48, 71
4, 209084, Note_off_c, 2, 52, 64
4, 209084, Note_off_c, 2, 48, 64
4, 209088, Note_on_c, 2, 48, 71
4, 209188, Note_off_c, 2, 48, 64
4, 209280, Note_on_c, 2, 48, 71
4, 209380, Note_off_c, 2, 48, 64
4, 209472, Note_on_c, 2, 48, 71
4, 209572, Note_off_c, 2, 48, 64
4, 209856, Note_on_c, 2, 53, 71
4, 209956, Note_off_c, 2, 53, 64
4, 210048, Note_on_c, 2, 53, 71
4, 210148, Note_off_c, 2, 53, 64
4, 210240, Note_on_c, 2, 53, 71
4, 210340, Note_off_c, 2, 53, 64
4, 210432, Note_on_c, 2, 52, 71
4, 210532, Note_off_c, 2, 52, 64
4, 210816, Note_on_c, 2, 53, 71
4, 210916, Note_off_c, 2, 53, 64
4, 211200, Note_on_c, 2, 55, 71
4, 211300, Note_off_c, 2, 55, 64
4, 211584, Note_on_c, 2, 43, 71
4, 211684, Note_off_c, 2, 43, 64
4, 211968, Note_on_c, 2, 48, 71
4, 212156, Note_off_c, 2, 48, 64
4, 212160, Note_on_c, 2, 60, 71
4, 212348, Note_off_c, 2, 60, 64
4, 212352, Note_on_c, 2, 60, 71
4, 212540, Note_off_c, 2, 60, 64
4, 212544, Note_on_c, 2, 60, 71
4, 212732, Note_off_c, 2, 60, 64
4, 212736, Note_on_c, 2, 60, 71
4, 212924, Note_off_c, 2, 60, 64
4, 212928, Note_on_c, 2, 60, 71
4, 213116, Note_off_c, 2, 60, 64
4, 213120, Note_on_c, 2, 60, 71
4, 213308, Note_off_c, 2, 60, 64
4, 213312, Note_on_c, 2, 60, 71
4, 213500, Note_off_c, 2, 60, 64
4, 213504, Note_on_c, 2, 47, 71
4, 213692, Note_off_c, 2, 47, 64
4, 213696, Note_on_c, 2, 59, 71
4, 213884, Note_off_c, 2, 59, 64
4, 213888, Note_on_c, 2, 59, 71
4, 214076, Note_off_c, 2, 59, 64
4, 214080, Note_on_c, 2, 59, 71
4, 214268, Note_off_c, 2, 59, 64
4, 214272, Note_on_c, 2, 59, 71
4, 214460, Note_off_c, 2, 59, 64
4, 214464, Note_on_c, 2, 59, 71
4, 214652, Note_off_c, 2, 59, 64
4, 214656, Note_on_c, 2, 59, 71
4, 214844, Note_off_c, 2, 59, 64
4, 214848, Note_on_c, 2, 59, 71
4, 215036, Note_off_c, 2, 59, 64
4, 215040, Note_on_c, 2, 45, 71
4, 215228, Note_off_c, 2, 45, 64
4, 215232, Note_on_c, 2, 57, 71
4, 215420, Note_off_c, 2, 57, 64
4, 215424, Note_on_c, 2, 57, 71
4, 215612, Note_off_c, 2, 57, 64
4, 215616, Note_on_c, 2, 57, 71
4, 215804, Note_off_c, 2, 57, 64
4, 215808, Note_on_c, 2, 57, 71
4, 215996, Note_off_c, 2, 57, 64
4, 216000, Note_on_c, 2, 57, 71
4, 216188, Note_off_c, 2, 57, 64
4, 216192, Note_on_c, 2, 57, 71
4, 216380, Note_off_c, 2, 57, 64
4, 216384, Note_on_c, 2, 57, 71
4, 216572, Note_off_c, 2, 57, 64
4, 216576, Note_on_c, 2, 43, 71
4, 216764, Note_off_c, 2, 43, 64
4, 216768, Note_on_c, 2, 55, 71
4, 216956, Note_off_c, 2, 55, 64
4, 216960, Note_on_c, 2, 59, 71
4, 217148, Note_off_c, 2, 59, 64
4, 217152, Note_on_c, 2, 59, 71
4, 217340, Note_off_c, 2, 59, 64
4, 217344, Note_on_c, 2, 59, 71
4, 217532, Note_off_c, 2, 59, 64
4, 217536, Note_on_c, 2, 59, 71
4, 217724, Note_off_c, 2, 59, 64
4, 217728, Note_on_c, 2, 59, 71
4, 217916, Note_off_c, 2, 59, 64
4, 217920, Note_on_c, 2, 59, 71
4, 218108, Note_off_c, 2, 59, 64
4, 218112, Note_on_c, 2, 48, 71
4, 218300, Note_off_c, 2, 48, 64
4, 218304, Note_on_c, 2, 60, 71
4, 218492, Note_off_c, 2, 60, 64
4, 218496, Note_on_c, 2, 60, 71
4, 218684, Note_off_c, 2, 60, 64
4, 218688, Note_on_c, 2, 60, 71
4, 218876, Note_off_c, 2, 60, 64
4, 218880, Note_on_c, 2, 60, 71
4, 219068, Note_off_c, 2, 60, 64
4, 219072, Note_on_c, 2, 60, 71
4, 219260, Note_off_c, 2, 60, 64
4, 219264, Note_on_c, 2, 60, 71
4, 219452, Note_off_c, 2, 60, 64
4, 219456, Note_on_c, 2, 60, 71
4, 219644, Note_off_c, 2, 60, 64
4, 219648, Note_on_c, 2, 47, 71
4, 219836, Note_off_c, 2, 47, 64
4, 219840, Note_on_c, 2, 59, 71
4, 220028, Note_off_c, 2, 59, 64
4, 220032, Note_on_c, 2, 59, 71
4, 220220, Note_off_c, 2, 59, 64
4, 220224, Note_on_c, 2, 59, 71
4, 220412, Note_off_c, 2, 59, 64
4, 220416, Note_on_c, 2, 59, 71
4, 220604, Note_off_c, 2, 59, 64
4, 220608, Note_on_c, 2, 59, 71
4, 220796, Note_off_c, 2, 59, 64
4, 220800, Note_on_c, 2, 59, 71
4, 220988, Note_off_c, 2, 59, 64
4, 220992, Note_on_c, 2, 59, 71
4, 221180, Note_off_c, 2, 59, 64
4, 221184, Note_on_c, 2, 45, 71
4, 221372, Note_off_c, 2, 45, 64
4, 221376, Note_on_c, 2, 57, 71
4, 221564, Note_off_c, 2, 57, 64
4, 221568, Note_on_c, 2, 57, 71
4, 221756, Note_off_c, 2, 57, 64
4, 221760, Note_on_c, 2, 57, 71
4, 221948, Note_off_c, 2, 57, 64
4, 221952, Note_on_c, 2, 57, 71
4, 222140, Note_off_c, 2, 57, 64
4, 222144, Note_on_c, 2, 57, 71
4, 222332, Note_off_c, 2, 57, 64
4, 222336, Note_on_c, 2, 57, 71
4, 222524, Note_off_c, 2, 57, 64
4, 222528, Note_on_c, 2, 57, 71
4, 222716, Note_off_c, 2, 57, 64
4, 222720, Note_on_c, 2, 43, 71
4, 222908, Note_off_c, 2, 43, 64
4, 222912, Note_on_c, 2, 55, 71
4, 223100, Note_off_c, 2, 55, 64
4, 223104, Note_on_c, 2, 55, 71
4, 223292, Note_off_c, 2, 55, 64
4, 223296, Note_on_c, 2, 55, 71
4, 223484, Note_off_c, 2, 55, 64
4, 223488, Note_on_c, 2, 42, 71
4, 223676, Note_off_c, 2, 42, 64
4, 223680, Note_on_c, 2, 54, 71
4, 223868, Note_off_c, 2, 54, 64
4, 223872, Note_on_c, 2, 54, 71
4, 224060, Note_off_c, 2, 54, 64
4, 224064, Note_on_c, 2, 54, 71
4, 224252, Note_off_c, 2, 54, 64
4, 224256, Note_on_c, 2, 40, 71
4, 224444, Note_off_c, 2, 40, 64
4, 224448, Note_on_c, 2, 52, 71
4, 224636, Note_off_c, 2, 52, 64
4, 224640, Note_on_c, 2, 52, 71
4, 224828, Note_off_c, 2, 52, 64
4, 224832, Note_on_c, 2, 52, 71
4, 225020, Note_off_c, 2, 52, 64
4, 225024, Note_on_c, 2, 52, 71
4, 225024, Note_on_c, 2, 45, 71
4, 225212, Note_off_c, 2, 52, 64
4, 225212, Note_off_c, 2, 45, 64
4, 225216, Note_on_c, 2, 52, 71
4, 225216, Note_on_c, 2, 45, 71
4, 225404, Note_off_c, 2, 52, 64
4, 225404, Note_off_c, 2, 45, 64
4, 225408, Note_on_c, 2, 52, 71
4, 225408, Note_on_c, 2, 45, 71
4, 225596, Note_off_c, 2, 52, 64
4, 225596, Note_off_c, 2, 45, 64
4, 225600, Note_on_c, 2, 52, 71
4, 225600, Note_on_c, 2, 45, 71
4, 225788, Note_off_c, 2, 52, 64
4, 225788, Note_off_c, 2, 45, 64
4, 225792, Note_on_c, 2, 50, 71
4, 225980, Note_off_c, 2, 50, 64
4, 227520, Note_on_c, 2, 61, 71
4, 227520, Note_on_c, 2, 57, 71
4, 227520, Note_on_c, 2, 55, 71
4, 227520, Note_on_c, 2, 52, 71
4, 227620, Note_off_c, 2, 61, 64
4, 227620, Note_off_c, 2, 57, 64
4, 227620, Note_off_c, 2, 55, 64
4, 227620, Note_off_c, 2, 52, 64
4, 227712, Note_on_c, 2, 61, 71
4, 227712, Note_on_c, 2, 55, 71
4, 227712, Note_on_c, 2, 52, 71
4, 227712, Note_on_c, 2, 57, 71
4, 227812, Note_off_c, 2, 61, 64
4, 227812, Note_off_c, 2, 55, 64
4, 227812, Note_off_c, 2, 52, 64
4, 227812, Note_off_c, 2, 57, 64
4, 227904, Note_on_c, 2, 61, 71
4, 227904, Note_on_c, 2, 57, 71
4, 227904, Note_on_c, 2, 55, 71
4, 227904, Note_on_c, 2, 52, 71
4, 228004, Note_off_c, 2, 61, 64
4, 228004, Note_off_c, 2, 57, 64
4, 228004, Note_off_c, 2, 55, 64
4, 228004, Note_off_c, 2, 52, 64
4, 228096, Note_on_c, 2, 52, 71
4, 228096, Note_on_c, 2, 61, 71
4, 228096, Note_on_c, 2, 57, 71
4, 228096, Note_on_c, 2, 55, 71
4, 228284, Note_off_c, 2, 52, 64
4, 228284, Note_off_c, 2, 61, 64
4, 228284, Note_off_c, 2, 57, 64
4, 228284, Note_off_c, 2, 55, 64
4, 229152, Note_on_c, 2, 50, 92
4, 229152, Note_on_c, 2, 38, 92
4, 229244, Note_off_c, 2, 50, 64
4, 229244, Note_off_c, 2, 38, 64
4, 229248, Note_on_c, 2, 50, 92
4, 229248, Note_on_c, 2, 38, 92
4, 229532, Note_off_c, 2, 50, 64
4, 229532, Note_off_c, 2, 38, 64
4, 229536, Note_on_c, 2, 50, 92
4, 229536, Note_on_c, 2, 38, 92
4, 229628, Note_off_c, 2, 50, 64
4, 229628, Note_off_c, 2, 38, 64
4, 229632, Note_on_c, 2, 50, 92
4, 229632, Note_on_c, 2, 38, 92
4, 230012, Note_off_c, 2, 50, 64
4, 230012, Note_off_c, 2, 38, 64
4, 231072, Note_on_c, 2, 52, 92
4, 231072, Note_on_c, 2, 40, 92
4, 231164, Note_off_c, 2, 52, 64
4, 231164, Note_off_c, 2, 40, 64
4, 231168, Note_on_c, 2, 52, 92
4, 231168, Note_on_c, 2, 40, 92
4, 231452, Note_off_c, 2, 52, 64
4, 231452, Note_off_c, 2, 40, 64
4, 231552, Note_on_c, 2, 52, 92
4, 231552, Note_on_c, 2, 40, 92
4, 231932, Note_off_c, 2, 52, 64
4, 231932, Note_off_c, 2, 40, 64
4, 231936, Note_on_c, 2, 52, 92
4, 231936, Note_on_c, 2, 40, 92
4, 232316, Note_off_c, 2, 52, 64
4, 232316, Note_off_c, 2, 40, 64
4, 254976, Note_on_c, 2, 55, 71
4, 255164, Note_off_c, 2, 55, 64
4, 255168, Note_on_c, 2, 50, 71
4, 255356, Note_off_c, 2, 50, 64
4, 255360, Note_on_c, 2, 59, 71
4, 255548, Note_off_c, 2, 59, 64
4, 255552, Note_on_c, 2, 50, 71
4, 255740, Note_off_c, 2, 50, 64
4, 255744, Note_on_c, 2, 62, 71
4, 255744, Note_on_c, 2, 57, 71
4, 255744, Note_on_c, 2, 54, 71
4, 255932, Note_off_c, 2, 62, 64
4, 255932, Note_off_c, 2, 57, 64
4, 255932, Note_off_c, 2, 54, 64
4, 255936, Note_on_c, 2, 50, 71
4, 256124, Note_off_c, 2, 50, 64
4, 256128, Note_on_c, 2, 62, 71
4, 256128, Note_on_c, 2, 60, 71
4, 256316, Note_off_c, 2, 62, 64
4, 256316, Note_off_c, 2, 60, 64
4, 256320, Note_on_c, 2, 50, 71
4, 256508, Note_off_c, 2, 50, 64
4, 256512, Note_on_c, 2, 62, 71
4, 256512, Note_on_c, 2, 59, 71
4, 256700, Note_off_c, 2, 62, 64
4, 256700, Note_off_c, 2, 59, 64
4, 256704, Note_on_c, 2, 50, 71
4, 256892, Note_off_c, 2, 50, 64
4, 256896, Note_on_c, 2, 59, 71
4, 256896, Note_on_c, 2, 55, 71
4, 257084, Note_off_c, 2, 59, 64
4, 257084, Note_off_c, 2, 55, 64
4, 257088, Note_on_c, 2, 50, 71
4, 257276, Note_off_c, 2, 50, 64
4, 257280, Note_on_c, 2, 62, 71
4, 257280, Note_on_c, 2, 60, 71
4, 257280, Note_on_c, 2, 57, 71
4, 257468, Note_off_c, 2, 62, 64
4, 257468, Note_off_c, 2, 60, 64
4, 257468, Note_off_c, 2, 57, 64
4, 257472, Note_on_c, 2, 54, 71
4, 257660, Note_off_c, 2, 54, 64
4, 257664, Note_on_c, 2, 62, 71
4, 257664, Note_on_c, 2, 57, 71
4, 257664, Note_on_c, 2, 60, 71
4, 257852, Note_off_c, 2, 62, 64
4, 257852, Note_off_c, 2, 57, 64
4, 257852, Note_off_c, 2, 60, 64
4, 257856, Note_on_c, 2, 50, 71
4, 258044, Note_off_c, 2, 50, 64
4, 258048, Note_on_c, 2, 43, 92
4, 258048, Note_on_c, 2, 55, 92
4, 258428, Note_off_c, 2, 43, 64
4, 258428, Note_off_c, 2, 55, 64
4, 258624, Note_on_c, 2, 43, 92
4, 258624, Note_on_c, 2, 55, 92
4, 258812, Note_off_c, 2, 43, 64
4, 258812, Note_off_c, 2, 55, 64
4, 258816, Note_on_c, 2, 55, 92
4, 258816, Note_on_c, 2, 43, 92
4, 259196, Note_off_c, 2, 55, 64
4, 259196, Note_off_c, 2, 43, 64
4, 259392, Note_on_c, 2, 55, 92
4, 259392, Note_on_c, 2, 43, 92
4, 259580, Note_off_c, 2, 55, 64
4, 259580, Note_off_c, 2, 43, 64
4, 259584, Note_on_c, 2, 55, 92
4, 259584, Note_on_c, 2, 43, 92
4, 259964, Note_off_c, 2, 55, 64
4, 259964, Note_off_c, 2, 43, 64
4, 265728, Note_on_c, 2, 62, 76
4, 265728, Note_on_c, 2, 50, 76
4, 265916, Note_off_c, 2, 62, 64
4, 265916, Note_off_c, 2, 50, 64
4, 265920, Note_on_c, 2, 62, 76
4, 266108, Note_off_c, 2, 62, 64
4, 266112, Note_on_c, 2, 62, 76
4, 266300, Note_off_c, 2, 62, 64
4, 266304, Note_on_c, 2, 62, 76
4, 266492, Note_off_c, 2, 62, 64
4, 266496, Note_on_c, 2, 62, 76
4, 266684, Note_off_c, 2, 62, 64
4, 266688, Note_on_c, 2, 62, 76
4, 266876, Note_off_c, 2, 62, 64
4, 266880, Note_on_c, 2, 62, 76
4, 267068, Note_off_c, 2, 62, 64
4, 267072, Note_on_c, 2, 62, 76
4, 267260, Note_off_c, 2, 62, 64
4, 267264, Note_on_c, 2, 62, 76
4, 267452, Note_off_c, 2, 62, 64
4, 267456, Note_on_c, 2, 62, 76
4, 267644, Note_off_c, 2, 62, 64
4, 267648, Note_on_c, 2, 62, 76
4, 267836, Note_off_c, 2, 62, 64
4, 267840, Note_on_c, 2, 62, 76
4, 268028, Note_off_c, 2, 62, 64
4, 268032, Note_on_c, 2, 62, 76
4, 268220, Note_off_c, 2, 62, 64
4, 268224, Note_on_c, 2, 62, 76
4, 268412, Note_off_c, 2, 62, 64
4, 268416, Note_on_c, 2, 62, 76
4, 268416, Note_on_c, 2, 66, 76
4, 268604, Note_off_c, 2, 62, 64
4, 268604, Note_off_c, 2, 66, 64
4, 268608, Note_on_c, 2, 62, 76
4, 268608, Note_on_c, 2, 66, 76
4, 268796, Note_off_c, 2, 62, 64
4, 268796, Note_off_c, 2, 66, 64
4, 268800, Note_on_c, 2, 43, 71
4, 269180, Note_off_c, 2, 43, 64
4, 269184, Note_on_c, 2, 55, 71
4, 269564, Note_off_c, 2, 55, 64
4, 270336, Note_on_c, 2, 43, 71
4, 270716, Note_off_c, 2, 43, 64
4, 270720, Note_on_c, 2, 55, 71
4, 271100, Note_off_c, 2, 55, 64
4, 271872, Note_on_c, 2, 55, 71
4, 272060, Note_off_c, 2, 55, 64
4, 272064, Note_on_c, 2, 55, 71
4, 272252, Note_off_c, 2, 55, 64
4, 272256, Note_on_c, 2, 55, 71
4, 272444, Note_off_c, 2, 55, 64
4, 272448, Note_on_c, 2, 55, 71
4, 272636, Note_off_c, 2, 55, 64
4, 272640, Note_on_c, 2, 55, 71
4, 272828, Note_off_c, 2, 55, 64
4, 272832, Note_on_c, 2, 55, 71
4, 273020, Note_off_c, 2, 55, 64
4, 273024, Note_on_c, 2, 55, 71
4, 273212, Note_off_c, 2, 55, 64
4, 273216, Note_on_c, 2, 55, 71
4, 273404, Note_off_c, 2, 55, 64
4, 273408, Note_on_c, 2, 57, 71
4, 273788, Note_off_c, 2, 57, 64
4, 273792, Note_on_c, 2, 57, 71
4, 274172, Note_off_c, 2, 57, 64
4, 274944, Note_on_c, 2, 50, 81
4, 275132, Note_off_c, 2, 50, 64
4, 275136, Note_on_c, 2, 62, 71
4, 275324, Note_off_c, 2, 62, 64
4, 275328, Note_on_c, 2, 62, 71
4, 275516, Note_off_c, 2, 62, 64
4, 275520, Note_on_c, 2, 62, 71
4, 275708, Note_off_c, 2, 62, 64
4, 275712, Note_on_c, 2, 62, 71
4, 276092, Note_off_c, 2, 62, 64
4, 276480, Note_on_c, 2, 50, 71
4, 277052, Note_off_c, 2, 50, 64
4, 277056, Note_on_c, 2, 54, 71
4, 277148, Note_off_c, 2, 54, 64
4, 277152, Note_on_c, 2, 57, 71
4, 277244, Note_off_c, 2, 57, 64
4, 277248, Note_on_c, 2, 62, 71
4, 277820, Note_off_c, 2, 62, 64
4, 277824, Note_on_c, 2, 54, 71
4, 277916, Note_off_c, 2, 54, 64
4, 277920, Note_on_c, 2, 57, 71
4, 278012, Note_off_c, 2, 57, 64
4, 278016, Note_on_c, 2, 50, 71
4, 278396, Note_off_c, 2, 50, 64
4, 282816, Note_on_c, 2, 52, 71
4, 283004, Note_off_c, 2, 52, 64
4, 283008, Note_on_c, 2, 47, 71
4, 283196, Note_off_c, 2, 47, 64
4, 283200, Note_on_c, 2, 49, 71
4, 283388, Note_off_c, 2, 49, 64
4, 283392, Note_on_c, 2, 50, 71
4, 283580, Note_off_c, 2, 50, 64
4, 283584, Note_on_c, 2, 50, 71
4, 283772, Note_off_c, 2, 50, 64
4, 283776, Note_on_c, 2, 50, 71
4, 283964, Note_off_c, 2, 50, 64
4, 283968, Note_on_c, 2, 50, 71
4, 284156, Note_off_c, 2, 50, 64
4, 284160, Note_on_c, 2, 55, 92
4, 284348, Note_off_c, 2, 55, 64
4, 284352, Note_on_c, 2, 50, 92
4, 284540, Note_off_c, 2, 50, 64
4, 284544, Note_on_c, 2, 59, 92
4, 284732, Note_off_c, 2, 59, 64
4, 284736, Note_on_c, 2, 50, 92
4, 284924, Note_off_c, 2, 50, 64
4, 284928, Note_on_c, 2, 62, 92
4, 284928, Note_on_c, 2, 57, 92
4, 284928, Note_on_c, 2, 54, 92
4, 285116, Note_off_c, 2, 62, 64
4, 285116, Note_off_c, 2, 57, 64
4, 285116, Note_off_c, 2, 54, 64
4, 285120, Note_on_c, 2, 50, 92
4, 285308, Note_off_c, 2, 50, 64
4, 285312, Note_on_c, 2, 62, 92
4, 285312, Note_on_c, 2, 60, 92
4, 285500, Note_off_c, 2, 62, 64
4, 285500, Note_off_c, 2, 60, 64
4, 285504, Note_on_c, 2, 50, 92
4, 285692, Note_off_c, 2, 50, 64
4, 285696, Note_on_c, 2, 62, 92
4, 285696, Note_on_c, 2, 59, 92
4, 285884, Note_off_c, 2, 62, 64
4, 285884, Note_off_c, 2, 59, 64
4, 285888, Note_on_c, 2, 50, 92
4, 286076, Note_off_c, 2, 50, 64
4, 286080, Note_on_c, 2, 59, 92
4, 286080, Note_on_c, 2, 55, 92
4, 286268, Note_off_c, 2, 59, 64
4, 286268, Note_off_c, 2, 55, 64
4, 286272, Note_on_c, 2, 50, 92
4, 286460, Note_off_c, 2, 50, 64
4, 286464, Note_on_c, 2, 62, 92
4, 286464, Note_on_c, 2, 60, 92
4, 286464, Note_on_c, 2, 57, 92
4, 286652, Note_off_c, 2, 62, 64
4, 286652, Note_off_c, 2, 60, 64
4, 286652, Note_off_c, 2, 57, 64
4, 286656, Note_on_c, 2, 54, 92
4, 286844, Note_off_c, 2, 54, 64
4, 286848, Note_on_c, 2, 62, 92
4, 286848, Note_on_c, 2, 60, 92
4, 286848, Note_on_c, 2, 57, 92
4, 287036, Note_off_c, 2, 62, 64
4, 287036, Note_off_c, 2, 60, 64
4, 287036, Note_off_c, 2, 57, 64
4, 287040, Note_on_c, 2, 50, 92
4, 287228, Note_off_c, 2, 50, 64
4, 287232, Note_on_c, 2, 62, 92
4, 287232, Note_on_c, 2, 59, 92
4, 287232, Note_on_c, 2, 55, 92
4, 287612, Note_off_c, 2, 62, 64
4, 287612, Note_off_c, 2, 59, 64
4, 287612, Note_off_c, 2, 55, 64
4, 287616, Note_on_c, 2, 55, 92
4, 287996, Note_off_c, 2, 55, 64
4, 288000, Note_on_c, 2, 43, 92
4, 288380, Note_off_c, 2, 43, 64
4, 288768, Note_on_c, 2, 55, 71
4, 289148, Note_off_c, 2, 55, 64
4, 290304, Note_on_c, 2, 53, 71
4, 290684, Note_off_c, 2, 53, 64
4, 291840, Note_on_c, 2, 52, 71
4, 292220, Note_off_c, 2, 52, 64
4, 292224, Note_on_c, 2, 45, 71
4, 292604, Note_off_c, 2, 45, 64
4, 292608, Note_on_c, 2, 57, 71
4, 292608, Note_on_c, 2, 53, 71
4, 292796, Note_off_c, 2, 57, 64
4, 292796, Note_off_c, 2, 53, 64
4, 292800, Note_on_c, 2, 57, 71
4, 292800, Note_on_c, 2, 53, 71
4, 292988, Note_off_c, 2, 57, 64
4, 292988, Note_off_c, 2, 53, 64
4, 292992, Note_on_c, 2, 57, 71
4, 292992, Note_on_c, 2, 53, 71
4, 293180, Note_off_c, 2, 57, 64
4, 293180, Note_off_c, 2, 53, 64
4, 293184, Note_on_c, 2, 57, 71
4, 293184, Note_on_c, 2, 53, 71
4, 293372, Note_off_c, 2, 57, 64
4, 293372, Note_off_c, 2, 53, 64
4, 293376, Note_on_c, 2, 40, 71
4, 293568, Note_on_c, 2, 59, 71
4, 293568, Note_on_c, 2, 52, 71
4, 293756, Note_off_c, 2, 40, 64
4, 293756, Note_off_c, 2, 59, 64
4, 293756, Note_off_c, 2, 52, 64
4, 293760, Note_on_c, 2, 57, 71
4, 293760, Note_on_c, 2, 52, 71
4, 293760, Note_on_c, 2, 45, 71
4, 293948, Note_off_c, 2, 57, 64
4, 293948, Note_off_c, 2, 52, 64
4, 293952, Note_on_c, 2, 57, 71
4, 293952, Note_on_c, 2, 52, 71
4, 294140, Note_off_c, 2, 45, 64
4, 294140, Note_off_c, 2, 57, 64
4, 294140, Note_off_c, 2, 52, 64
4, 294144, Note_on_c, 2, 52, 71
4, 294912, Note_on_c, 2, 45, 71
4, 295100, Note_off_c, 2, 52, 64
4, 295100, Note_off_c, 2, 45, 64
4, 295104, Note_on_c, 2, 52, 71
4, 295292, Note_off_c, 2, 52, 64
4, 295296, Note_on_c, 2, 57, 71
4, 295484, Note_off_c, 2, 57, 64
4, 295488, Note_on_c, 2, 57, 71
4, 295676, Note_off_c, 2, 57, 64
4, 295680, Note_on_c, 2, 57, 71
4, 295868, Note_off_c, 2, 57, 64
4, 295872, Note_on_c, 2, 57, 71
4, 296060, Note_off_c, 2, 57, 64
4, 296064, Note_on_c, 2, 57, 71
4, 296252, Note_off_c, 2, 57, 64
4, 296256, Note_on_c, 2, 57, 71
4, 296444, Note_off_c, 2, 57, 64
4, 296448, Note_on_c, 2, 50, 71
4, 296636, Note_off_c, 2, 50, 64
4, 296640, Note_on_c, 2, 62, 71
4, 296828, Note_off_c, 2, 62, 64
4, 296832, Note_on_c, 2, 62, 71
4, 297020, Note_off_c, 2, 62, 64
4, 297024, Note_on_c, 2, 62, 71
4, 297212, Note_off_c, 2, 62, 64
4, 297216, Note_on_c, 2, 50, 71
4, 297404, Note_off_c, 2, 50, 64
4, 297408, Note_on_c, 2, 62, 71
4, 297596, Note_off_c, 2, 62, 64
4, 297600, Note_on_c, 2, 62, 71
4, 297788, Note_off_c, 2, 62, 64
4, 297792, Note_on_c, 2, 62, 71
4, 297980, Note_off_c, 2, 62, 64
4, 297984, Note_on_c, 2, 50, 71
4, 298172, Note_off_c, 2, 50, 64
4, 298176, Note_on_c, 2, 62, 71
4, 298364, Note_off_c, 2, 62, 64
4, 298368, Note_on_c, 2, 62, 71
4, 298556, Note_off_c, 2, 62, 64
4, 298560, Note_on_c, 2, 62, 71
4, 298748, Note_off_c, 2, 62, 64
4, 298752, Note_on_c, 2, 50, 71
4, 298752, Note_on_c, 2, 62, 71
4, 299516, Note_off_c, 2, 50, 64
4, 299520, Note_on_c, 2, 55, 71
4, 299900, Note_off_c, 2, 62, 64
4, 299900, Note_off_c, 2, 55, 64
4, 302592, Note_on_c, 2, 57, 89
4, 302592, Note_on_c, 2, 55, 89
4, 302592, Note_on_c, 2, 52, 89
4, 302592, Note_on_c, 2, 48, 89
4, 303356, Note_off_c, 2, 57, 64
4, 303356, Note_off_c, 2, 55, 64
4, 303356, Note_off_c, 2, 52, 64
4, 303356, Note_off_c, 2, 48, 64
4, 304128, Note_on_c, 2, 57, 89
4, 304128, Note_on_c, 2, 55, 89
4, 304128, Note_on_c, 2, 52, 89
4, 304128, Note_on_c, 2, 48, 89
4, 304892, Note_off_c, 2, 57, 64
4, 304892, Note_off_c, 2, 55, 64
4, 304892, Note_off_c, 2, 52, 64
4, 304892, Note_off_c, 2, 48, 64
4, 305856, Note_on_c, 2, 48, 71
4, 306044, Note_off_c, 2, 48, 64
4, 306048, Note_on_c, 2, 48, 71
4, 306236, Note_off_c, 2, 48, 64
4, 306240, Note_on_c, 2, 48, 71
4, 306428, Note_off_c, 2, 48, 64
4, 306432, Note_on_c, 2, 48, 71
4, 306620, Note_off_c, 2, 48, 64
4, 306624, Note_on_c, 2, 48, 71
4, 306812, Note_off_c, 2, 48, 64
4, 306816, Note_on_c, 2, 48, 71
4, 307004, Note_off_c, 2, 48, 64
4, 307008, Note_on_c, 2, 49, 71
4, 307196, Note_off_c, 2, 49, 64
4, 307200, Note_on_c, 2, 50, 92
4, 307388, Note_off_c, 2, 50, 64
4, 307392, Note_on_c, 2, 62, 92
4, 307484, Note_off_c, 2, 62, 64
4, 307488, Note_on_c, 2, 62, 92
4, 307580, Note_off_c, 2, 62, 64
4, 307584, Note_on_c, 2, 62, 92
4, 307772, Note_off_c, 2, 62, 64
4, 307776, Note_on_c, 2, 55, 92
4, 307964, Note_off_c, 2, 55, 64
4, 307968, Note_on_c, 2, 50, 92
4, 308156, Note_off_c, 2, 50, 64
4, 308160, Note_on_c, 2, 62, 92
4, 308252, Note_off_c, 2, 62, 64
4, 308256, Note_on_c, 2, 62, 92
4, 308348, Note_off_c, 2, 62, 64
4, 308352, Note_on_c, 2, 62, 92
4, 308540, Note_off_c, 2, 62, 64
4, 308544, Note_on_c, 2, 55, 92
4, 308732, Note_off_c, 2, 55, 64
4, 308736, Note_on_c, 2, 50, 92
4, 308924, Note_off_c, 2, 50, 64
4, 308928, Note_on_c, 2, 62, 92
4, 309020, Note_off_c, 2, 62, 64
4, 309024, Note_on_c, 2, 62, 92
4, 309116, Note_off_c, 2, 62, 64
4, 309120, Note_on_c, 2, 62, 92
4, 309308, Note_off_c, 2, 62, 64
4, 315072, Note_on_c, 2, 55, 71
4, 315164, Note_off_c, 2, 55, 64
4, 315168, Note_on_c, 2, 55, 71
4, 315260, Note_off_c, 2, 55, 64
4, 315264, Note_on_c, 2, 55, 71
4, 315452, Note_off_c, 2, 55, 64
4, 315648, Note_on_c, 2, 62, 71
4, 315648, Note_on_c, 2, 55, 71
4, 315748, Note_off_c, 2, 62, 64
4, 315748, Note_off_c, 2, 55, 64
4, 316032, Note_on_c, 2, 62, 71
4, 316032, Note_on_c, 2, 50, 71
4, 316132, Note_off_c, 2, 62, 64
4, 316132, Note_off_c, 2, 50, 64
4, 316416, Note_on_c, 2, 55, 71
4, 316416, Note_on_c, 2, 62, 71
4, 316516, Note_off_c, 2, 55, 64
4, 316516, Note_off_c, 2, 62, 64
4, 317184, Note_on_c, 2, 62, 71
4, 317184, Note_on_c, 2, 55, 71
4, 317284, Note_off_c, 2, 62, 64
4, 317284, Note_off_c, 2, 55, 64
4, 317568, Note_on_c, 2, 62, 71
4, 317568, Note_on_c, 2, 50, 71
4, 317668, Note_off_c, 2, 62, 64
4, 317668, Note_off_c, 2, 50, 64
4, 317952, Note_on_c, 2, 62, 71
4, 317952, Note_on_c, 2, 55, 71
4, 318052, Note_off_c, 2, 62, 64
4, 318052, Note_off_c, 2, 55, 64
4, 320064, Note_on_c, 2, 55, 71
4, 320252, Note_off_c, 2, 55, 64
4, 320256, Note_on_c, 2, 55, 71
4, 321596, Note_off_c, 2, 55, 64
4, 332160, Note_on_c, 2, 64, 87
4, 332160, Note_on_c, 2, 60, 87
4, 332540, Note_off_c, 2, 64, 64
4, 332540, Note_off_c, 2, 60, 64
4, 332544, Note_on_c, 2, 60, 87
4, 332544, Note_on_c, 2, 64, 87
4, 332924, Note_off_c, 2, 60, 64
4, 332924, Note_off_c, 2, 64, 64
4, 332928, Note_on_c, 2, 64, 87
4, 332928, Note_on_c, 2, 61, 87
4, 333308, Note_off_c, 2, 64, 64
4, 333308, Note_off_c, 2, 61, 64
4, 333312, Note_on_c, 2, 62, 87
4, 333500, Note_off_c, 2, 62, 64
4, 333504, Note_on_c, 2, 50, 87
4, 333692, Note_off_c, 2, 50, 64
4, 333696, Note_on_c, 2, 50, 87
4, 333884, Note_off_c, 2, 50, 64
4, 333888, Note_on_c, 2, 50, 87
4, 334076, Note_off_c, 2, 50, 64
4, 334080, Note_on_c, 2, 50, 87
4, 334268, Note_off_c, 2, 50, 64
4, 334272, Note_on_c, 2, 50, 87
4, 334460, Note_off_c, 2, 50, 64
4, 334464, Note_on_c, 2, 50, 87
4, 334652, Note_off_c, 2, 50, 64
4, 334656, Note_on_c, 2, 50, 87
4, 334844, Note_off_c, 2, 50, 64
4, 334848, Note_on_c, 2, 50, 87
4, 334848, Note_on_c, 2, 43, 87
4, 335036, Note_off_c, 2, 50, 64
4, 335036, Note_off_c, 2, 43, 64
4, 335040, Note_on_c, 2, 59, 87
4, 335140, Note_off_c, 2, 59, 64
4, 335232, Note_on_c, 2, 62, 97
4, 335424, Note_off_c, 2, 62, 64
4, 335424, Note_on_c, 2, 59, 87
4, 335608, Note_off_c, 2, 59, 64
4, 335616, Note_on_c, 2, 55, 87
4, 335716, Note_off_c, 2, 55, 64
4, 335808, Note_on_c, 2, 59, 87
4, 335908, Note_off_c, 2, 59, 64
4, 336000, Note_on_c, 2, 62, 97
4, 336192, Note_off_c, 2, 62, 64
4, 336192, Note_on_c, 2, 59, 87
4, 336376, Note_off_c, 2, 59, 64
4, 336384, Note_on_c, 2, 57, 87
4, 336484, Note_off_c, 2, 57, 64
4, 336576, Note_on_c, 2, 60, 87
4, 336676, Note_off_c, 2, 60, 64
4, 336768, Note_on_c, 2, 62, 97
4, 336960, Note_off_c, 2, 62, 64
4, 336960, Note_on_c, 2, 60, 87
4, 337144, Note_off_c, 2, 60, 64
4, 337152, Note_on_c, 2, 50, 87
4, 337252, Note_off_c, 2, 50, 64
4, 337344, Note_on_c, 2, 54, 87
4, 337444, Note_off_c, 2, 54, 64
4, 337536, Note_on_c, 2, 57, 97
4, 337728, Note_off_c, 2, 57, 64
4, 337728, Note_on_c, 2, 54, 87
4, 337912, Note_off_c, 2, 54, 64
4, 337920, Note_on_c, 2, 55, 87
4, 338020, Note_off_c, 2, 55, 64
4, 338112, Note_on_c, 2, 55, 87
4, 338212, Note_off_c, 2, 55, 64
4, 338304, Note_on_c, 2, 59, 97
4, 338496, Note_off_c, 2, 59, 64
4, 338496, Note_on_c, 2, 50, 87
4, 338680, Note_off_c, 2, 50, 64
4, 338688, Note_on_c, 2, 43, 87
4, 338788, Note_off_c, 2, 43, 64
4, 338880, Note_on_c, 2, 47, 87
4, 338980, Note_off_c, 2, 47, 64
4, 339072, Note_on_c, 2, 50, 97
4, 339264, Note_off_c, 2, 50, 64
4, 339264, Note_on_c, 2, 47, 87
4, 339448, Note_off_c, 2, 47, 64
4, 339456, Note_on_c, 2, 45, 87
4, 339556, Note_off_c, 2, 45, 64
4, 339648, Note_on_c, 2, 48, 87
4, 339748, Note_off_c, 2, 48, 64
4, 339840, Note_on_c, 2, 50, 97
4, 340032, Note_off_c, 2, 50, 64
4, 340032, Note_on_c, 2, 48, 87
4, 340216, Note_off_c, 2, 48, 64
4, 340224, Note_on_c, 2, 50, 87
4, 340324, Note_off_c, 2, 50, 64
4, 340416, Note_on_c, 2, 54, 87
4, 340516, Note_off_c, 2, 54, 64
4, 340608, Note_on_c, 2, 57, 97
4, 340800, Note_off_c, 2, 57, 64
4, 340800, Note_on_c, 2, 54, 87
4, 340984, Note_off_c, 2, 54, 64
4, 340992, Note_on_c, 2, 55, 87
4, 340992, Note_on_c, 2, 43, 87
4, 341092, Note_off_c, 2, 55, 64
4, 341092, Note_off_c, 2, 43, 64
4, 341376, Note_on_c, 2, 55, 87
4, 341476, Note_off_c, 2, 55, 64
4, 341760, Note_on_c, 2, 55, 87
4, 341860, Note_off_c, 2, 55, 64
4, 342144, Note_on_c, 2, 55, 87
4, 342244, Note_off_c, 2, 55, 64
4, 342528, Note_on_c, 2, 55, 87
4, 342528, Note_on_c, 2, 43, 87
4, 342628, Note_off_c, 2, 55, 64
4, 342628, Note_off_c, 2, 43, 64
4, 342912, Note_on_c, 2, 55, 87
4, 343012, Note_off_c, 2, 55, 64
4, 343296, Note_on_c, 2, 55, 87
4, 343396, Note_off_c, 2, 55, 64
4, 343680, Note_on_c, 2, 55, 87
4, 343780, Note_off_c, 2, 55, 64
4, 344064, Note_on_c, 2, 55, 87
4, 344164, Note_off_c, 2, 55, 64
4, 344448, Note_on_c, 2, 48, 87
4, 344548, Note_off_c, 2, 48, 64
4, 345792, Note_on_c, 2, 60, 87
4, 345984, Note_off_c, 2, 60, 64
4, 345984, Note_on_c, 2, 59, 87
4, 346168, Note_off_c, 2, 59, 64
4, 346176, Note_on_c, 2, 62, 87
4, 346176, Note_on_c, 2, 59, 87
4, 346276, Note_off_c, 2, 62, 64
4, 346276, Note_off_c, 2, 59, 64
4, 346368, Note_on_c, 2, 64, 87
4, 346368, Note_on_c, 2, 60, 87
4, 346468, Note_off_c, 2, 64, 64
4, 346468, Note_off_c, 2, 60, 64
4, 346560, Note_on_c, 2, 64, 87
4, 346560, Note_on_c, 2, 60, 87
4, 346660, Note_off_c, 2, 64, 64
4, 346660, Note_off_c, 2, 60, 64
4, 346752, Note_on_c, 2, 62, 87
4, 346852, Note_off_c, 2, 62, 64
4, 346944, Note_on_c, 2, 60, 87
4, 346944, Note_on_c, 2, 50, 87
4, 347044, Note_off_c, 2, 60, 64
4, 347044, Note_off_c, 2, 50, 64
4, 347136, Note_on_c, 2, 59, 87
4, 347136, Note_on_c, 2, 55, 87
4, 347236, Note_off_c, 2, 59, 64
4, 347236, Note_off_c, 2, 55, 64
4, 347520, Note_on_c, 2, 60, 87
4, 347520, Note_on_c, 2, 48, 87
4, 347620, Note_off_c, 2, 60, 64
4, 347620, Note_off_c, 2, 48, 64
4, 348864, Note_on_c, 2, 62, 87
4, 348864, Note_on_c, 2, 50, 87
4, 348956, Note_off_c, 2, 62, 64
4, 348956, Note_off_c, 2, 50, 64
4, 348960, Note_on_c, 2, 62, 87
4, 348960, Note_on_c, 2, 50, 87
4, 349052, Note_off_c, 2, 62, 64
4, 349052, Note_off_c, 2, 50, 64
4, 349056, Note_on_c, 2, 62, 87
4, 349056, Note_on_c, 2, 50, 87
4, 349244, Note_off_c, 2, 62, 64
4, 349244, Note_off_c, 2, 50, 64
4, 349248, Note_on_c, 2, 62, 87
4, 349248, Note_on_c, 2, 50, 87
4, 349436, Note_off_c, 2, 62, 64
4, 349436, Note_off_c, 2, 50, 64
4, 349440, Note_on_c, 2, 62, 87
4, 349440, Note_on_c, 2, 50, 87
4, 349628, Note_off_c, 2, 62, 64
4, 349628, Note_off_c, 2, 50, 64
4, 351744, Note_on_c, 2, 50, 87
4, 351932, Note_off_c, 2, 50, 64
4, 351936, Note_on_c, 2, 50, 87
4, 352124, Note_off_c, 2, 50, 64
4, 352128, Note_on_c, 2, 50, 87
4, 352316, Note_off_c, 2, 50, 64
4, 352320, Note_on_c, 2, 50, 87
4, 352508, Note_off_c, 2, 50, 64
4, 352512, Note_on_c, 2, 50, 72
4, 352700, Note_off_c, 2, 50, 64
4, 352704, Note_on_c, 2, 50, 73
4, 352892, Note_off_c, 2, 50, 64
4, 352896, Note_on_c, 2, 50, 75
4, 353084, Note_off_c, 2, 50, 64
4, 353088, Note_on_c, 2, 50, 77
4, 353276, Note_off_c, 2, 50, 64
4, 353280, Note_on_c, 2, 50, 78
4, 353468, Note_off_c, 2, 50, 64
4, 353472, Note_on_c, 2, 50, 80
4, 353660, Note_off_c, 2, 50, 64
4, 353664, Note_on_c, 2, 50, 82
4, 353852, Note_off_c, 2, 50, 64
4, 353856, Note_on_c, 2, 50, 84
4, 354044, Note_off_c, 2, 50, 64
4, 354048, Note_on_c, 2, 50, 86
4, 354236, Note_off_c, 2, 50, 64
4, 354240, Note_on_c, 2, 50, 88
4, 354428, Note_off_c, 2, 50, 64
4, 354432, Note_on_c, 2, 50, 89
4, 354620, Note_off_c, 2, 50, 64
4, 354624, Note_on_c, 2, 50, 91
4, 354812, Note_off_c, 2, 50, 64
4, 354816, Note_on_c, 2, 43, 92
4, 355004, Note_off_c, 2, 43, 64
4, 355008, Note_on_c, 2, 55, 92
4, 355100, Note_off_c, 2, 55, 64
4, 355104, Note_on_c, 2, 55, 92
4, 355196, Note_off_c, 2, 55, 64
4, 355200, Note_on_c, 2, 55, 92
4, 355388, Note_off_c, 2, 55, 64
4, 355392, Note_on_c, 2, 55, 92
4, 355580, Note_off_c, 2, 55, 64
4, 355584, Note_on_c, 2, 52, 92
4, 355772, Note_off_c, 2, 52, 64
4, 355776, Note_on_c, 2, 55, 92
4, 355868, Note_off_c, 2, 55, 64
4, 355872, Note_on_c, 2, 55, 92
4, 355964, Note_off_c, 2, 55, 64
4, 355968, Note_on_c, 2, 55, 92
4, 356156, Note_off_c, 2, 55, 64
4, 356160, Note_on_c, 2, 52, 92
4, 356348, Note_off_c, 2, 52, 64
4, 356352, Note_on_c, 2, 47, 92
4, 356540, Note_off_c, 2, 47, 64
4, 356544, Note_on_c, 2, 62, 92
4, 356636, Note_off_c, 2, 62, 64
4, 356640, Note_on_c, 2, 62, 92
4, 356732, Note_off_c, 2, 62, 64
4, 356736, Note_on_c, 2, 62, 92
4, 356924, Note_off_c, 2, 62, 64
4, 356928, Note_on_c, 2, 59, 92
4, 357116, Note_off_c, 2, 59, 64
4, 357120, Note_on_c, 2, 54, 92
4, 357308, Note_off_c, 2, 54, 64
4, 357312, Note_on_c, 2, 62, 92
4, 357404, Note_off_c, 2, 62, 64
4, 357408, Note_on_c, 2, 62, 92
4, 357500, Note_off_c, 2, 62, 64
4, 357504, Note_on_c, 2, 62, 92
4, 357692, Note_off_c, 2, 62, 64
4, 357696, Note_on_c, 2, 54, 92
4, 357884, Note_off_c, 2, 54, 64
4, 357888, Note_on_c, 2, 55, 92
4, 357980, Note_off_c, 2, 55, 64
4, 357984, Note_on_c, 2, 54, 92
4, 358076, Note_off_c, 2, 54, 64
4, 358080, Note_on_c, 2, 55, 92
4, 358172, Note_off_c, 2, 55, 64
4, 358176, Note_on_c, 2, 57, 92
4, 358268, Note_off_c, 2, 57, 64
4, 358272, Note_on_c, 2, 59, 92
4, 358364, Note_off_c, 2, 59, 64
4, 358368, Note_on_c, 2, 57, 92
4, 358460, Note_off_c, 2, 57, 64
4, 358464, Note_on_c, 2, 55, 92
4, 358556, Note_off_c, 2, 55, 64
4, 358560, Note_on_c, 2, 54, 92
4, 358652, Note_off_c, 2, 54, 64
4, 358656, Note_on_c, 2, 52, 92
4, 358748, Note_off_c, 2, 52, 64
4, 358752, Note_on_c, 2, 51, 92
4, 358844, Note_off_c, 2, 51, 64
4, 358848, Note_on_c, 2, 52, 92
4, 358940, Note_off_c, 2, 52, 64
4, 358944, Note_on_c, 2, 54, 92
4, 359036, Note_off_c, 2, 54, 64
4, 359040, Note_on_c, 2, 55, 92
4, 359132, Note_off_c, 2, 55, 64
4, 359136, Note_on_c, 2, 54, 92
4, 359228, Note_off_c, 2, 54, 64
4, 359232, Note_on_c, 2, 52, 92
4, 359324, Note_off_c, 2, 52, 64
4, 359328, Note_on_c, 2, 50, 92
4, 359420, Note_off_c, 2, 50, 64
4, 359424, Note_on_c, 2, 48, 92
4, 359516, Note_off_c, 2, 48, 64
4, 359520, Note_on_c, 2, 47, 92
4, 359612, Note_off_c, 2, 47, 64
4, 359616, Note_on_c, 2, 48, 92
4, 359708, Note_off_c, 2, 48, 64
4, 359712, Note_on_c, 2, 50, 92
4, 359804, Note_off_c, 2, 50, 64
4, 359808, Note_on_c, 2, 52, 92
4, 359900, Note_off_c, 2, 52, 64
4, 359904, Note_on_c, 2, 54, 92
4, 359996, Note_off_c, 2, 54, 64
4, 360000, Note_on_c, 2, 52, 92
4, 360092, Note_off_c, 2, 52, 64
4, 360096, Note_on_c, 2, 50, 92
4, 360188, Note_off_c, 2, 50, 64
4, 360192, Note_on_c, 2, 49, 92
4, 360284, Note_off_c, 2, 49, 64
4, 360288, Note_on_c, 2, 47, 92
4, 360380, Note_off_c, 2, 47, 64
4, 360384, Note_on_c, 2, 49, 92
4, 360476, Note_off_c, 2, 49, 64
4, 360480, Note_on_c, 2, 50, 92
4, 360572, Note_off_c, 2, 50, 64
4, 360576, Note_on_c, 2, 52, 92
4, 360668, Note_off_c, 2, 52, 64
4, 360672, Note_on_c, 2, 50, 92
4, 360764, Note_off_c, 2, 50, 64
4, 360768, Note_on_c, 2, 52, 92
4, 360860, Note_off_c, 2, 52, 64
4, 360864, Note_on_c, 2, 49, 92
4, 360956, Note_off_c, 2, 49, 64
4, 360960, Note_on_c, 2, 50, 92
4, 360960, Note_on_c, 2, 38, 92
4, 361532, Note_off_c, 2, 50, 64
4, 361532, Note_off_c, 2, 38, 64
4, 444288, Note_on_c, 2, 43, 92
4, 444476, Note_off_c, 2, 43, 64
4, 444480, Note_on_c, 2, 47, 92
4, 444572, Note_off_c, 2, 47, 64
4, 444576, Note_on_c, 2, 50, 92
4, 444668, Note_off_c, 2, 50, 64
4, 444672, Note_on_c, 2, 55, 92
4, 444860, Note_off_c, 2, 55, 64
4, 445824, Note_on_c, 2, 50, 92
4, 446012, Note_off_c, 2, 50, 64
4, 446016, Note_on_c, 2, 54, 92
4, 446108, Note_off_c, 2, 54, 64
4, 446112, Note_on_c, 2, 57, 92
4, 446204, Note_off_c, 2, 57, 64
4, 447360, Note_on_c, 2, 43, 92
4, 447548, Note_off_c, 2, 43, 64
4, 447552, Note_on_c, 2, 47, 92
4, 447644, Note_off_c, 2, 47, 64
4, 447648, Note_on_c, 2, 50, 92
4, 447740, Note_off_c, 2, 50, 64
4, 447744, Note_on_c, 2, 55, 92
4, 447932, Note_off_c, 2, 55, 64
4, 448896, Note_on_c, 2, 50, 92
4, 449084, Note_off_c, 2, 50, 64
4, 449088, Note_on_c, 2, 54, 92
4, 449180, Note_off_c, 2, 54, 64
4, 449184, Note_on_c, 2, 57, 92
4, 449276, Note_off_c, 2, 57, 64
4, 450432, Note_on_c, 2, 59, 92
4, 450432, Note_on_c, 2, 62, 92
4, 450432, Note_on_c, 2, 55, 92
4, 450524, Note_off_c, 2, 59, 64
4, 450524, Note_off_c, 2, 62, 64
4, 450528, Note_on_c, 2, 67, 92
4, 450620, Note_off_c, 2, 67, 64
4, 450624, Note_on_c, 2, 62, 92
4, 450624, Note_on_c, 2, 59, 92
4, 450716, Note_off_c, 2, 62, 64
4, 450716, Note_off_c, 2, 59, 64
4, 450720, Note_on_c, 2, 67, 92
4, 450812, Note_off_c, 2, 67, 64
4, 450816, Note_on_c, 2, 62, 92
4, 450816, Note_on_c, 2, 59, 92
4, 450908, Note_off_c, 2, 62, 64
4, 450908, Note_off_c, 2, 59, 64
4, 450928, Note_on_c, 2, 67, 92
4, 451004, Note_off_c, 2, 55, 64
4, 451008, Note_on_c, 2, 59, 92
4, 451008, Note_on_c, 2, 55, 92
4, 451020, Note_off_c, 2, 67, 64
4, 451100, Note_off_c, 2, 59, 64
4, 451104, Note_on_c, 2, 67, 92
4, 451196, Note_off_c, 2, 55, 64
4, 451196, Note_off_c, 2, 67, 64
4, 451200, Note_on_c, 2, 62, 92
4, 451200, Note_on_c, 2, 59, 92
4, 451292, Note_off_c, 2, 62, 64
4, 451296, Note_on_c, 2, 67, 92
4, 451388, Note_off_c, 2, 67, 64
4, 451392, Note_on_c, 2, 62, 92
4, 451484, Note_off_c, 2, 62, 64
4, 451488, Note_on_c, 2, 67, 92
4, 451580, Note_off_c, 2, 67, 64
4, 451584, Note_on_c, 2, 62, 92
4, 451676, Note_off_c, 2, 62, 64
4, 451680, Note_on_c, 2, 67, 92
4, 451772, Note_off_c, 2, 59, 64
4, 451772, Note_off_c, 2, 67, 64
4, 451776, Note_on_c, 2, 59, 92
4, 451776, Note_on_c, 2, 55, 92
4, 451868, Note_off_c, 2, 59, 64
4, 451872, Note_on_c, 2, 67, 92
4, 451964, Note_off_c, 2, 55, 64
4, 451964, Note_off_c, 2, 67, 64
4, 451968, Note_on_c, 2, 64, 92
4, 451968, Note_on_c, 2, 60, 92
4, 452060, Note_off_c, 2, 64, 64
4, 452064, Note_on_c, 2, 67, 92
4, 452156, Note_off_c, 2, 67, 64
4, 452160, Note_on_c, 2, 64, 92
4, 452252, Note_off_c, 2, 64, 64
4, 452256, Note_on_c, 2, 67, 92
4, 452348, Note_off_c, 2, 67, 64
4, 452352, Note_on_c, 2, 64, 92
4, 452444, Note_off_c, 2, 64, 64
4, 452448, Note_on_c, 2, 67, 92
4, 452540, Note_off_c, 2, 60, 64
4, 452540, Note_off_c, 2, 67, 64
4, 452544, Note_on_c, 2, 64, 92
4, 452544, Note_on_c, 2, 60, 92
4, 452636, Note_off_c, 2, 64, 64
4, 452640, Note_on_c, 2, 67, 92
4, 452732, Note_off_c, 2, 60, 64
4, 452732, Note_off_c, 2, 67, 64
4, 452736, Note_on_c, 2, 55, 92
4, 452736, Note_on_c, 2, 52, 92
4, 452828, Note_off_c, 2, 55, 64
4, 452832, Note_on_c, 2, 60, 92
4, 452924, Note_off_c, 2, 60, 64
4, 452928, Note_on_c, 2, 55, 92
4, 453020, Note_off_c, 2, 55, 64
4, 453024, Note_on_c, 2, 60, 92
4, 453116, Note_off_c, 2, 60, 64
4, 453120, Note_on_c, 2, 55, 92
4, 453212, Note_off_c, 2, 55, 64
4, 453216, Note_on_c, 2, 60, 92
4, 453308, Note_off_c, 2, 52, 64
4, 453308, Note_off_c, 2, 60, 64
4, 453312, Note_on_c, 2, 52, 92
4, 453312, Note_on_c, 2, 55, 92
4, 453404, Note_off_c, 2, 55, 64
4, 453408, Note_on_c, 2, 60, 92
4, 453500, Note_off_c, 2, 52, 64
4, 453500, Note_off_c, 2, 60, 64
4, 453504, Note_on_c, 2, 55, 92
4, 453504, Note_on_c, 2, 50, 92
4, 453596, Note_off_c, 2, 55, 64
4, 453596, Note_off_c, 2, 50, 64
4, 453600, Note_on_c, 2, 59, 92
4, 453692, Note_off_c, 2, 59, 64
4, 453696, Note_on_c, 2, 55, 92
4, 453696, Note_on_c, 2, 50, 92
4, 453788, Note_off_c, 2, 55, 64
4, 453788, Note_off_c, 2, 50, 64
4, 453792, Note_on_c, 2, 59, 92
4, 453884, Note_off_c, 2, 59, 64
4, 453888, Note_on_c, 2, 55, 92
4, 453888, Note_on_c, 2, 52, 92
4, 453980, Note_off_c, 2, 55, 64
4, 453980, Note_off_c, 2, 52, 64
4, 453984, Note_on_c, 2, 59, 92
4, 454076, Note_off_c, 2, 59, 64
4, 454080, Note_on_c, 2, 55, 92
4, 454080, Note_on_c, 2, 52, 92
4, 454172, Note_off_c, 2, 55, 64
4, 454172, Note_off_c, 2, 52, 64
4, 454176, Note_on_c, 2, 59, 92
4, 454268, Note_off_c, 2, 59, 64
4, 454272, Note_on_c, 2, 55, 92
4, 454272, Note_on_c, 2, 52, 92
4, 454272, Note_on_c, 2, 48, 92
4, 454364, Note_off_c, 2, 55, 64
4, 454364, Note_off_c, 2, 52, 64
4, 454364, Note_off_c, 2, 48, 64
4, 454368, Note_on_c, 2, 57, 92
4, 454460, Note_off_c, 2, 57, 64
4, 454464, Note_on_c, 2, 55, 92
4, 454464, Note_on_c, 2, 52, 92
4, 454464, Note_on_c, 2, 48, 92
4, 454556, Note_off_c, 2, 55, 64
4, 454556, Note_off_c, 2, 52, 64
4, 454556, Note_off_c, 2, 48, 64
4, 454560, Note_on_c, 2, 57, 92
4, 454652, Note_off_c, 2, 57, 64
4, 454656, Note_on_c, 2, 54, 92
4, 454656, Note_on_c, 2, 50, 92
4, 454748, Note_off_c, 2, 54, 64
4, 454748, Note_off_c, 2, 50, 64
4, 454752, Note_on_c, 2, 57, 92
4, 454844, Note_off_c, 2, 57, 64
4, 454848, Note_on_c, 2, 54, 92
4, 454848, Note_on_c, 2, 50, 92
4, 454940, Note_off_c, 2, 54, 64
4, 454940, Note_off_c, 2, 50, 64
4, 454944, Note_on_c, 2, 57, 92
4, 455036, Note_off_c, 2, 57, 64
4, 455040, Note_on_c, 2, 55, 92
4, 455040, Note_on_c, 2, 50, 92
4, 455040, Note_on_c, 2, 47, 92
4, 455040, Note_on_c, 2, 43, 92
4, 455228, Note_off_c, 2, 55, 64
4, 455228, Note_off_c, 2, 50, 64
4, 455228, Note_off_c, 2, 47, 64
4, 455228, Note_off_c, 2, 43, 64
4, 455232, Note_on_c, 2, 50, 92
4, 455420, Note_off_c, 2, 50, 64
4, 455424, Note_on_c, 2, 59, 92
4, 455612, Note_off_c, 2, 59, 64
4, 455616, Note_on_c, 2, 50, 92
4, 455804, Note_off_c, 2, 50, 64
4, 455808, Note_on_c, 2, 62, 92
4, 455808, Note_on_c, 2, 57, 92
4, 455808, Note_on_c, 2, 54, 92
4, 455996, Note_off_c, 2, 62, 64
4, 455996, Note_off_c, 2, 57, 64
4, 455996, Note_off_c, 2, 54, 64
4, 456000, Note_on_c, 2, 50, 92
4, 456188, Note_off_c, 2, 50, 64
4, 456192, Note_on_c, 2, 62, 92
4, 456192, Note_on_c, 2, 60, 92
4, 456380, Note_off_c, 2, 62, 64
4, 456380, Note_off_c, 2, 60, 64
4, 456384, Note_on_c, 2, 50, 92
4, 456572, Note_off_c, 2, 50, 64
4, 456576, Note_on_c, 2, 59, 92
4, 456576, Note_on_c, 2, 62, 92
4, 456764, Note_off_c, 2, 59, 64
4, 456764, Note_off_c, 2, 62, 64
4, 456768, Note_on_c, 2, 50, 92
4, 456956, Note_off_c, 2, 50, 64
4, 456960, Note_on_c, 2, 59, 92
4, 456960, Note_on_c, 2, 55, 92
4, 457148, Note_off_c, 2, 59, 64
4, 457148, Note_off_c, 2, 55, 64
4, 457152, Note_on_c, 2, 50, 92
4, 457340, Note_off_c, 2, 50, 64
4, 457344, Note_on_c, 2, 62, 92
4, 457344, Note_on_c, 2, 60, 92
4, 457344, Note_on_c, 2, 57, 92
4, 457532, Note_off_c, 2, 62, 64
4, 457532, Note_off_c, 2, 60, 64
4, 457532, Note_off_c, 2, 57, 64
4, 457536, Note_on_c, 2, 54, 92
4, 457724, Note_off_c, 2, 54, 64
4, 457728, Note_on_c, 2, 62, 92
4, 457728, Note_on_c, 2, 60, 92
4, 457728, Note_on_c, 2, 57, 92
4, 457916, Note_off_c, 2, 62, 64
4, 457916, Note_off_c, 2, 60, 64
4, 457916, Note_off_c, 2, 57, 64
4, 457920, Note_on_c, 2, 50, 92
4, 458108, Note_off_c, 2, 50, 64
4, 458112, Note_on_c, 2, 62, 92
4, 458112, Note_on_c, 2, 59, 92
4, 458112, Note_on_c, 2, 55, 92
4, 458492, Note_off_c, 2, 62, 64
4, 458492, Note_off_c, 2, 59, 64
4, 458492, Note_off_c, 2, 55, 64
4, 458496, Note_on_c, 2, 55, 92
4, 458876, Note_off_c, 2, 55, 64
4, 458880, Note_on_c, 2, 43, 92
4, 459260, Note_off_c, 2, 43, 64
4, 459260, End_track
5, 0, Start_track
5, 0, Title_t, "Midi by:"
5, 0, Key_signature, 0, "major"
5, 0, End_track
6, 0, Start_track
6, 0, Title_t, "B.Fisher"
6, 0, Key_signature, 0, "major"
6, 0, End_track
7, 0, Start_track
7, 0, Key_signature, 0, "major"
7, 0, End_track
8, 0, Start_track
8, 0, Key_signature, 0, "major"
8, 0, End_track
9, 0, Start_track
9, 0, Key_signature, 0, "major"
9, 0, End_track
10, 0, Start_track
10, 0, Key_signature, 0, "major"
10, 0, End_track
11, 0, Start_track
11, 0, Key_signature, 0, "major"
11, 0, End_track
12, 0, Start_track
12, 0, Key_signature, 0, "major"
12, 0, End_track
13, 0, Start_track
13, 0, Key_signature, 0, "major"
13, 0, End_track
14, 0, Start_track
14, 0, Key_signature, 0, "major"
14, 0, End_track
15, 0, Start_track
15, 0, Key_signature, 0, "major"
15, 0, End_track
16, 0, Start_track
16, 0, Key_signature, 0, "major"
16, 0, End_track
17, 0, Start_track
17, 0, Key_signature, 0, "major"
17, 0, End_track
0, 0, End_of_file
