0, 0, Header, 1, 8, 384
1, 0, Start_track
1, 0, Sequencer_specific, 3, 0, 0, 65
1, 0, Time_signature, 4, 2, 24, 8
1, 0, Key_signature, 0, "major"
1, 0, Tempo, 416667
1, 552960, Tempo, 441176
1, 554496, Tempo, 2000000
1, 554880, Tempo, 416667
1, 554880, End_track
2, 0, Start_track
2, 0, MIDI_port, 0
2, 0, Title_t, "Mozart"
2, 0, Control_c, 0, 0, 0
2, 0, Control_c, 0, 32, 0
2, 0, Program_c, 0, 73
2, 0, Control_c, 0, 7, 94
2, 0, Control_c, 0, 10, 63
2, 0, Control_c, 0, 91, 63
2, 0, Control_c, 0, 93, 52
2, 0, Control_c, 0, 121, 0
2, 96, Control_c, 0, 10, 63
2, 192, Control_c, 0, 91, 63
2, 240, Control_c, 0, 93, 40
2, 288, Program_c, 0, 73
2, 102912, Note_on_c, 0, 72, 73
2, 103100, Note_on_c, 0, 72, 0
2, 103104, Note_on_c, 0, 71, 73
2, 103292, Note_on_c, 0, 71, 0
2, 103296, Note_on_c, 0, 72, 73
2, 103388, Note_on_c, 0, 72, 0
2, 103488, Note_on_c, 0, 71, 73
2, 103580, Note_on_c, 0, 71, 0
2, 103680, Note_on_c, 0, 72, 73
2, 103772, Note_on_c, 0, 72, 0
2, 103872, Note_on_c, 0, 76, 73
2, 103964, Note_on_c, 0, 76, 0
2, 104064, Note_on_c, 0, 79, 73
2, 104156, Note_on_c, 0, 79, 0
2, 104256, Note_on_c, 0, 76, 73
2, 104348, Note_on_c, 0, 76, 0
2, 104448, Note_on_c, 0, 74, 73
2, 104636, Note_on_c, 0, 74, 0
2, 104640, Note_on_c, 0, 72, 73
2, 104828, Note_on_c, 0, 72, 0
2, 104832, Note_on_c, 0, 72, 73
2, 104924, Note_on_c, 0, 72, 0
2, 105024, Note_on_c, 0, 71, 73
2, 105116, Note_on_c, 0, 71, 0
2, 105216, Note_on_c, 0, 72, 73
2, 105596, Note_on_c, 0, 72, 0
2, 105984, Note_on_c, 0, 77, 73
2, 106172, Note_on_c, 0, 77, 0
2, 106176, Note_on_c, 0, 76, 73
2, 106364, Note_on_c, 0, 76, 0
2, 106368, Note_on_c, 0, 77, 73
2, 106460, Note_on_c, 0, 77, 0
2, 106560, Note_on_c, 0, 76, 73
2, 106652, Note_on_c, 0, 76, 0
2, 106752, Note_on_c, 0, 77, 73
2, 106844, Note_on_c, 0, 77, 0
2, 106944, Note_on_c, 0, 81, 73
2, 107036, Note_on_c, 0, 81, 0
2, 107136, Note_on_c, 0, 84, 73
2, 107228, Note_on_c, 0, 84, 0
2, 107328, Note_on_c, 0, 81, 73
2, 107420, Note_on_c, 0, 81, 0
2, 107520, Note_on_c, 0, 78, 73
2, 108284, Note_on_c, 0, 78, 0
2, 108288, Note_on_c, 0, 79, 73
2, 108668, Note_on_c, 0, 79, 0
2, 109056, Note_on_c, 0, 84, 73
2, 109100, Note_on_c, 0, 84, 0
2, 109104, Note_on_c, 0, 86, 73
2, 109148, Note_on_c, 0, 86, 0
2, 109152, Note_on_c, 0, 84, 73
2, 109196, Note_on_c, 0, 84, 0
2, 109200, Note_on_c, 0, 86, 73
2, 109244, Note_on_c, 0, 86, 0
2, 109248, Note_on_c, 0, 83, 73
2, 109340, Note_on_c, 0, 83, 0
2, 109440, Note_on_c, 0, 84, 73
2, 109532, Note_on_c, 0, 84, 0
2, 109632, Note_on_c, 0, 86, 73
2, 109724, Note_on_c, 0, 86, 0
2, 109824, Note_on_c, 0, 88, 73
2, 109916, Note_on_c, 0, 88, 0
2, 110016, Note_on_c, 0, 84, 73
2, 110108, Note_on_c, 0, 84, 0
2, 110208, Note_on_c, 0, 79, 73
2, 110300, Note_on_c, 0, 79, 0
2, 110400, Note_on_c, 0, 76, 73
2, 110492, Note_on_c, 0, 76, 0
2, 110592, Note_on_c, 0, 77, 73
2, 110684, Note_on_c, 0, 77, 0
2, 110784, Note_on_c, 0, 74, 73
2, 110876, Note_on_c, 0, 74, 0
2, 110976, Note_on_c, 0, 83, 73
2, 111068, Note_on_c, 0, 83, 0
2, 111168, Note_on_c, 0, 79, 73
2, 111260, Note_on_c, 0, 79, 0
2, 111360, Note_on_c, 0, 86, 73
2, 111452, Note_on_c, 0, 86, 0
2, 111552, Note_on_c, 0, 83, 73
2, 111644, Note_on_c, 0, 83, 0
2, 111744, Note_on_c, 0, 79, 73
2, 111836, Note_on_c, 0, 79, 0
2, 111936, Note_on_c, 0, 77, 73
2, 112028, Note_on_c, 0, 77, 0
2, 112128, Note_on_c, 0, 77, 73
2, 112320, Note_on_c, 0, 77, 0
2, 112320, Note_on_c, 0, 76, 73
2, 112504, Note_on_c, 0, 76, 0
2, 112512, Note_on_c, 0, 79, 73
2, 112604, Note_on_c, 0, 79, 0
2, 112704, Note_on_c, 0, 76, 73
2, 112796, Note_on_c, 0, 76, 0
2, 112896, Note_on_c, 0, 76, 73
2, 113088, Note_on_c, 0, 76, 0
2, 113088, Note_on_c, 0, 74, 73
2, 113272, Note_on_c, 0, 74, 0
2, 113280, Note_on_c, 0, 72, 73
2, 113372, Note_on_c, 0, 72, 0
2, 113472, Note_on_c, 0, 71, 73
2, 113564, Note_on_c, 0, 71, 0
2, 113664, Note_on_c, 0, 72, 73
2, 113756, Note_on_c, 0, 72, 0
2, 113856, Note_on_c, 0, 74, 73
2, 113948, Note_on_c, 0, 74, 0
2, 114048, Note_on_c, 0, 76, 73
2, 114140, Note_on_c, 0, 76, 0
2, 114240, Note_on_c, 0, 77, 73
2, 114332, Note_on_c, 0, 77, 0
2, 114432, Note_on_c, 0, 79, 73
2, 114524, Note_on_c, 0, 79, 0
2, 114624, Note_on_c, 0, 81, 73
2, 114716, Note_on_c, 0, 81, 0
2, 114816, Note_on_c, 0, 83, 73
2, 114908, Note_on_c, 0, 83, 0
2, 115008, Note_on_c, 0, 84, 73
2, 115100, Note_on_c, 0, 84, 0
2, 115200, Note_on_c, 0, 86, 73
2, 115292, Note_on_c, 0, 86, 0
2, 115392, Note_on_c, 0, 84, 73
2, 115484, Note_on_c, 0, 84, 0
2, 115584, Note_on_c, 0, 83, 73
2, 115676, Note_on_c, 0, 83, 0
2, 115776, Note_on_c, 0, 81, 73
2, 115868, Note_on_c, 0, 81, 0
2, 115968, Note_on_c, 0, 79, 73
2, 116060, Note_on_c, 0, 79, 0
2, 116160, Note_on_c, 0, 77, 73
2, 116252, Note_on_c, 0, 77, 0
2, 116352, Note_on_c, 0, 76, 73
2, 116444, Note_on_c, 0, 76, 0
2, 116544, Note_on_c, 0, 74, 73
2, 116636, Note_on_c, 0, 74, 0
2, 116736, Note_on_c, 0, 72, 73
2, 116928, Note_on_c, 0, 72, 0
2, 116928, Note_on_c, 0, 76, 73
2, 117112, Note_on_c, 0, 76, 0
2, 117120, Note_on_c, 0, 79, 73
2, 117212, Note_on_c, 0, 79, 0
2, 117312, Note_on_c, 0, 76, 73
2, 117404, Note_on_c, 0, 76, 0
2, 117504, Note_on_c, 0, 76, 73
2, 117696, Note_on_c, 0, 76, 0
2, 117696, Note_on_c, 0, 74, 73
2, 117880, Note_on_c, 0, 74, 0
2, 117888, Note_on_c, 0, 72, 73
2, 117980, Note_on_c, 0, 72, 0
2, 118080, Note_on_c, 0, 71, 73
2, 118172, Note_on_c, 0, 71, 0
2, 118272, Note_on_c, 0, 72, 73
2, 118652, Note_on_c, 0, 72, 0
2, 121536, Note_on_c, 0, 72, 73
2, 121724, Note_on_c, 0, 72, 0
2, 121728, Note_on_c, 0, 71, 73
2, 121916, Note_on_c, 0, 71, 0
2, 121920, Note_on_c, 0, 72, 73
2, 122108, Note_on_c, 0, 72, 0
2, 122112, Note_on_c, 0, 71, 73
2, 122300, Note_on_c, 0, 71, 0
2, 122304, Note_on_c, 0, 72, 73
2, 122492, Note_on_c, 0, 72, 0
2, 122496, Note_on_c, 0, 76, 73
2, 122684, Note_on_c, 0, 76, 0
2, 122688, Note_on_c, 0, 72, 73
2, 122876, Note_on_c, 0, 72, 0
2, 122880, Note_on_c, 0, 71, 73
2, 123644, Note_on_c, 0, 71, 0
2, 123648, Note_on_c, 0, 69, 82
2, 123712, Note_on_c, 0, 69, 0
2, 123712, Note_on_c, 0, 71, 82
2, 123776, Note_on_c, 0, 71, 0
2, 123776, Note_on_c, 0, 69, 82
2, 123840, Note_on_c, 0, 69, 0
2, 123840, Note_on_c, 0, 71, 82
2, 123904, Note_on_c, 0, 71, 0
2, 123904, Note_on_c, 0, 69, 82
2, 123968, Note_on_c, 0, 69, 0
2, 123968, Note_on_c, 0, 71, 82
2, 124032, Note_on_c, 0, 71, 0
2, 124032, Note_on_c, 0, 69, 82
2, 124096, Note_on_c, 0, 69, 0
2, 124096, Note_on_c, 0, 71, 82
2, 124160, Note_on_c, 0, 71, 0
2, 124160, Note_on_c, 0, 69, 82
2, 124224, Note_on_c, 0, 69, 0
2, 124224, Note_on_c, 0, 71, 82
2, 124288, Note_on_c, 0, 71, 0
2, 124288, Note_on_c, 0, 67, 82
2, 124352, Note_on_c, 0, 67, 0
2, 124352, Note_on_c, 0, 69, 82
2, 124416, Note_on_c, 0, 69, 0
2, 124416, Note_on_c, 0, 67, 73
2, 124796, Note_on_c, 0, 67, 0
2, 124800, Note_on_c, 0, 72, 73
2, 124892, Note_on_c, 0, 72, 0
2, 124992, Note_on_c, 0, 76, 73
2, 125084, Note_on_c, 0, 76, 0
2, 125184, Note_on_c, 0, 79, 73
2, 125372, Note_on_c, 0, 79, 0
2, 125376, Note_on_c, 0, 84, 73
2, 125564, Note_on_c, 0, 84, 0
2, 125568, Note_on_c, 0, 79, 73
2, 125660, Note_on_c, 0, 79, 0
2, 125760, Note_on_c, 0, 76, 73
2, 125852, Note_on_c, 0, 76, 0
2, 125952, Note_on_c, 0, 79, 73
2, 126716, Note_on_c, 0, 79, 0
2, 126720, Note_on_c, 0, 77, 73
2, 126784, Note_on_c, 0, 77, 0
2, 126784, Note_on_c, 0, 79, 73
2, 126848, Note_on_c, 0, 79, 0
2, 126848, Note_on_c, 0, 77, 73
2, 126912, Note_on_c, 0, 77, 0
2, 126912, Note_on_c, 0, 79, 73
2, 126976, Note_on_c, 0, 79, 0
2, 126976, Note_on_c, 0, 77, 73
2, 127040, Note_on_c, 0, 77, 0
2, 127040, Note_on_c, 0, 79, 73
2, 127104, Note_on_c, 0, 79, 0
2, 127104, Note_on_c, 0, 77, 73
2, 127168, Note_on_c, 0, 77, 0
2, 127168, Note_on_c, 0, 79, 73
2, 127232, Note_on_c, 0, 79, 0
2, 127232, Note_on_c, 0, 77, 73
2, 127296, Note_on_c, 0, 77, 0
2, 127296, Note_on_c, 0, 79, 73
2, 127360, Note_on_c, 0, 79, 0
2, 127360, Note_on_c, 0, 76, 73
2, 127424, Note_on_c, 0, 76, 0
2, 127424, Note_on_c, 0, 77, 73
2, 127488, Note_on_c, 0, 77, 0
2, 127488, Note_on_c, 0, 76, 73
2, 127580, Note_on_c, 0, 76, 0
2, 127680, Note_on_c, 0, 79, 73
2, 127772, Note_on_c, 0, 79, 0
2, 127872, Note_on_c, 0, 79, 73
2, 127944, Note_on_c, 0, 79, 0
2, 127948, Note_on_c, 0, 81, 73
2, 128020, Note_on_c, 0, 81, 0
2, 128024, Note_on_c, 0, 79, 73
2, 128096, Note_on_c, 0, 79, 0
2, 128100, Note_on_c, 0, 78, 73
2, 128172, Note_on_c, 0, 78, 0
2, 128176, Note_on_c, 0, 79, 73
2, 128248, Note_on_c, 0, 79, 0
2, 128256, Note_on_c, 0, 77, 73
2, 128444, Note_on_c, 0, 77, 0
2, 128448, Note_on_c, 0, 76, 73
2, 128636, Note_on_c, 0, 76, 0
2, 128640, Note_on_c, 0, 74, 73
2, 128732, Note_on_c, 0, 74, 0
2, 128832, Note_on_c, 0, 72, 73
2, 128924, Note_on_c, 0, 72, 0
2, 129024, Note_on_c, 0, 71, 73
2, 129788, Note_on_c, 0, 71, 0
2, 129792, Note_on_c, 0, 69, 82
2, 129856, Note_on_c, 0, 69, 0
2, 129856, Note_on_c, 0, 71, 82
2, 129920, Note_on_c, 0, 71, 0
2, 129920, Note_on_c, 0, 69, 82
2, 129984, Note_on_c, 0, 69, 0
2, 129984, Note_on_c, 0, 71, 82
2, 130048, Note_on_c, 0, 71, 0
2, 130048, Note_on_c, 0, 69, 82
2, 130112, Note_on_c, 0, 69, 0
2, 130112, Note_on_c, 0, 71, 82
2, 130176, Note_on_c, 0, 71, 0
2, 130176, Note_on_c, 0, 69, 82
2, 130240, Note_on_c, 0, 69, 0
2, 130240, Note_on_c, 0, 71, 82
2, 130304, Note_on_c, 0, 71, 0
2, 130304, Note_on_c, 0, 69, 82
2, 130368, Note_on_c, 0, 69, 0
2, 130368, Note_on_c, 0, 71, 82
2, 130432, Note_on_c, 0, 71, 0
2, 130432, Note_on_c, 0, 67, 82
2, 130496, Note_on_c, 0, 67, 0
2, 130496, Note_on_c, 0, 69, 82
2, 130560, Note_on_c, 0, 69, 0
2, 130560, Note_on_c, 0, 67, 73
2, 130652, Note_on_c, 0, 67, 0
2, 130752, Note_on_c, 0, 72, 73
2, 130844, Note_on_c, 0, 72, 0
2, 130944, Note_on_c, 0, 76, 73
2, 131036, Note_on_c, 0, 76, 0
2, 131136, Note_on_c, 0, 79, 73
2, 131228, Note_on_c, 0, 79, 0
2, 131328, Note_on_c, 0, 84, 73
2, 131516, Note_on_c, 0, 84, 0
2, 131520, Note_on_c, 0, 88, 73
2, 131708, Note_on_c, 0, 88, 0
2, 131712, Note_on_c, 0, 84, 73
2, 131804, Note_on_c, 0, 84, 0
2, 131904, Note_on_c, 0, 79, 73
2, 131996, Note_on_c, 0, 79, 0
2, 132096, Note_on_c, 0, 79, 73
2, 132860, Note_on_c, 0, 79, 0
2, 132864, Note_on_c, 0, 77, 73
2, 132928, Note_on_c, 0, 77, 0
2, 132928, Note_on_c, 0, 79, 73
2, 132992, Note_on_c, 0, 79, 0
2, 132992, Note_on_c, 0, 77, 73
2, 133056, Note_on_c, 0, 77, 0
2, 133056, Note_on_c, 0, 79, 73
2, 133120, Note_on_c, 0, 79, 0
2, 133120, Note_on_c, 0, 77, 73
2, 133184, Note_on_c, 0, 77, 0
2, 133184, Note_on_c, 0, 79, 73
2, 133248, Note_on_c, 0, 79, 0
2, 133248, Note_on_c, 0, 77, 73
2, 133312, Note_on_c, 0, 77, 0
2, 133312, Note_on_c, 0, 79, 73
2, 133376, Note_on_c, 0, 79, 0
2, 133376, Note_on_c, 0, 77, 73
2, 133440, Note_on_c, 0, 77, 0
2, 133440, Note_on_c, 0, 79, 73
2, 133504, Note_on_c, 0, 79, 0
2, 133504, Note_on_c, 0, 76, 73
2, 133568, Note_on_c, 0, 76, 0
2, 133568, Note_on_c, 0, 77, 73
2, 133632, Note_on_c, 0, 77, 0
2, 133824, Note_on_c, 0, 76, 73
2, 133916, Note_on_c, 0, 76, 0
2, 134016, Note_on_c, 0, 76, 73
2, 134088, Note_on_c, 0, 76, 0
2, 134092, Note_on_c, 0, 77, 73
2, 134164, Note_on_c, 0, 77, 0
2, 134168, Note_on_c, 0, 76, 73
2, 134240, Note_on_c, 0, 76, 0
2, 134244, Note_on_c, 0, 74, 73
2, 134316, Note_on_c, 0, 74, 0
2, 134320, Note_on_c, 0, 76, 73
2, 134392, Note_on_c, 0, 76, 0
2, 134400, Note_on_c, 0, 77, 73
2, 134588, Note_on_c, 0, 77, 0
2, 134592, Note_on_c, 0, 77, 73
2, 134684, Note_on_c, 0, 77, 0
2, 134784, Note_on_c, 0, 77, 73
2, 134856, Note_on_c, 0, 77, 0
2, 134860, Note_on_c, 0, 79, 73
2, 134932, Note_on_c, 0, 79, 0
2, 134936, Note_on_c, 0, 77, 73
2, 135008, Note_on_c, 0, 77, 0
2, 135012, Note_on_c, 0, 76, 73
2, 135084, Note_on_c, 0, 76, 0
2, 135088, Note_on_c, 0, 77, 73
2, 135160, Note_on_c, 0, 77, 0
2, 135168, Note_on_c, 0, 79, 73
2, 135356, Note_on_c, 0, 79, 0
2, 135360, Note_on_c, 0, 79, 73
2, 135452, Note_on_c, 0, 79, 0
2, 135552, Note_on_c, 0, 79, 73
2, 135624, Note_on_c, 0, 79, 0
2, 135628, Note_on_c, 0, 81, 73
2, 135700, Note_on_c, 0, 81, 0
2, 135704, Note_on_c, 0, 79, 73
2, 135776, Note_on_c, 0, 79, 0
2, 135780, Note_on_c, 0, 77, 73
2, 135852, Note_on_c, 0, 77, 0
2, 135856, Note_on_c, 0, 79, 73
2, 135928, Note_on_c, 0, 79, 0
2, 135936, Note_on_c, 0, 81, 73
2, 136124, Note_on_c, 0, 81, 0
2, 136128, Note_on_c, 0, 81, 73
2, 136220, Note_on_c, 0, 81, 0
2, 136320, Note_on_c, 0, 81, 73
2, 136392, Note_on_c, 0, 81, 0
2, 136396, Note_on_c, 0, 83, 73
2, 136468, Note_on_c, 0, 83, 0
2, 136472, Note_on_c, 0, 81, 73
2, 136544, Note_on_c, 0, 81, 0
2, 136548, Note_on_c, 0, 79, 73
2, 136620, Note_on_c, 0, 79, 0
2, 136624, Note_on_c, 0, 81, 73
2, 136696, Note_on_c, 0, 81, 0
2, 136704, Note_on_c, 0, 83, 73
2, 137084, Note_on_c, 0, 83, 0
2, 137088, Note_on_c, 0, 84, 73
2, 137468, Note_on_c, 0, 84, 0
2, 137472, Note_on_c, 0, 77, 73
2, 137660, Note_on_c, 0, 77, 0
2, 137856, Note_on_c, 0, 76, 73
2, 138044, Note_on_c, 0, 76, 0
2, 138240, Note_on_c, 0, 79, 73
2, 138812, Note_on_c, 0, 79, 0
2, 138816, Note_on_c, 0, 76, 73
2, 139004, Note_on_c, 0, 76, 0
2, 139008, Note_on_c, 0, 74, 73
2, 139388, Note_on_c, 0, 74, 0
2, 139776, Note_on_c, 0, 74, 73
2, 140924, Note_on_c, 0, 74, 0
2, 140928, Note_on_c, 0, 71, 73
2, 141116, Note_on_c, 0, 71, 0
2, 141120, Note_on_c, 0, 72, 73
2, 141308, Note_on_c, 0, 72, 0
2, 141312, Note_on_c, 0, 74, 73
2, 141692, Note_on_c, 0, 74, 0
2, 141696, Note_on_c, 0, 74, 75
2, 142076, Note_on_c, 0, 74, 0
2, 142080, Note_on_c, 0, 74, 77
2, 142460, Note_on_c, 0, 74, 0
2, 142464, Note_on_c, 0, 74, 78
2, 142844, Note_on_c, 0, 74, 0
2, 142848, Note_on_c, 0, 74, 79
2, 143416, Note_on_c, 0, 74, 0
2, 143424, Note_on_c, 0, 83, 80
2, 143608, Note_on_c, 0, 83, 0
2, 143616, Note_on_c, 0, 83, 80
2, 145144, Note_on_c, 0, 83, 0
2, 145152, Note_on_c, 0, 74, 75
2, 145912, Note_on_c, 0, 74, 0
2, 145920, Note_on_c, 0, 72, 73
2, 147064, Note_on_c, 0, 72, 0
2, 147072, Note_on_c, 0, 69, 73
2, 147256, Note_on_c, 0, 69, 0
2, 147264, Note_on_c, 0, 71, 73
2, 147448, Note_on_c, 0, 71, 0
2, 147456, Note_on_c, 0, 72, 73
2, 147836, Note_on_c, 0, 72, 0
2, 147840, Note_on_c, 0, 72, 75
2, 148220, Note_on_c, 0, 72, 0
2, 148224, Note_on_c, 0, 72, 77
2, 148604, Note_on_c, 0, 72, 0
2, 148608, Note_on_c, 0, 72, 78
2, 148988, Note_on_c, 0, 72, 0
2, 148992, Note_on_c, 0, 72, 79
2, 149560, Note_on_c, 0, 72, 0
2, 149568, Note_on_c, 0, 81, 80
2, 149752, Note_on_c, 0, 81, 0
2, 149760, Note_on_c, 0, 81, 80
2, 151288, Note_on_c, 0, 81, 0
2, 151296, Note_on_c, 0, 72, 75
2, 152056, Note_on_c, 0, 72, 0
2, 152064, Note_on_c, 0, 71, 73
2, 152440, Note_on_c, 0, 71, 0
2, 173952, Note_on_c, 0, 79, 73
2, 174324, Note_on_c, 0, 79, 0
2, 174336, Note_on_c, 0, 79, 73
2, 174708, Note_on_c, 0, 79, 0
2, 174720, Note_on_c, 0, 79, 73
2, 175092, Note_on_c, 0, 79, 0
2, 175104, Note_on_c, 0, 81, 73
2, 175196, Note_on_c, 0, 81, 0
2, 175200, Note_on_c, 0, 83, 73
2, 175292, Note_on_c, 0, 83, 0
2, 175296, Note_on_c, 0, 81, 73
2, 175388, Note_on_c, 0, 81, 0
2, 175392, Note_on_c, 0, 79, 73
2, 175484, Note_on_c, 0, 79, 0
2, 175488, Note_on_c, 0, 81, 73
2, 175676, Note_on_c, 0, 81, 0
2, 175680, Note_on_c, 0, 83, 73
2, 175868, Note_on_c, 0, 83, 0
2, 175872, Note_on_c, 0, 79, 73
2, 176244, Note_on_c, 0, 79, 0
2, 176256, Note_on_c, 0, 79, 73
2, 176636, Note_on_c, 0, 79, 0
2, 176640, Note_on_c, 0, 81, 73
2, 176732, Note_on_c, 0, 81, 0
2, 176736, Note_on_c, 0, 83, 73
2, 176828, Note_on_c, 0, 83, 0
2, 176832, Note_on_c, 0, 81, 73
2, 176924, Note_on_c, 0, 81, 0
2, 176928, Note_on_c, 0, 79, 73
2, 177020, Note_on_c, 0, 79, 0
2, 177024, Note_on_c, 0, 81, 73
2, 177212, Note_on_c, 0, 81, 0
2, 177216, Note_on_c, 0, 83, 73
2, 177404, Note_on_c, 0, 83, 0
2, 177408, Note_on_c, 0, 79, 73
2, 177780, Note_on_c, 0, 79, 0
2, 177792, Note_on_c, 0, 84, 73
2, 178172, Note_on_c, 0, 84, 0
2, 178176, Note_on_c, 0, 83, 73
2, 178940, Note_on_c, 0, 83, 0
2, 178944, Note_on_c, 0, 81, 73
2, 179324, Note_on_c, 0, 81, 0
2, 180096, Note_on_c, 0, 81, 90
2, 180468, Note_on_c, 0, 81, 0
2, 180480, Note_on_c, 0, 81, 90
2, 180852, Note_on_c, 0, 81, 0
2, 180864, Note_on_c, 0, 81, 90
2, 181236, Note_on_c, 0, 81, 0
2, 181248, Note_on_c, 0, 83, 90
2, 181340, Note_on_c, 0, 83, 0
2, 181344, Note_on_c, 0, 84, 90
2, 181436, Note_on_c, 0, 84, 0
2, 181440, Note_on_c, 0, 83, 90
2, 181520, Note_on_c, 0, 81, 90
2, 181532, Note_on_c, 0, 83, 0
2, 181612, Note_on_c, 0, 81, 0
2, 181632, Note_on_c, 0, 83, 90
2, 181820, Note_on_c, 0, 83, 0
2, 181824, Note_on_c, 0, 84, 90
2, 182012, Note_on_c, 0, 84, 0
2, 182016, Note_on_c, 0, 81, 90
2, 182388, Note_on_c, 0, 81, 0
2, 182400, Note_on_c, 0, 81, 90
2, 182780, Note_on_c, 0, 81, 0
2, 182784, Note_on_c, 0, 83, 90
2, 182876, Note_on_c, 0, 83, 0
2, 182880, Note_on_c, 0, 84, 90
2, 182972, Note_on_c, 0, 84, 0
2, 182976, Note_on_c, 0, 83, 90
2, 183068, Note_on_c, 0, 83, 0
2, 183072, Note_on_c, 0, 81, 90
2, 183164, Note_on_c, 0, 81, 0
2, 183168, Note_on_c, 0, 83, 90
2, 183356, Note_on_c, 0, 83, 0
2, 183360, Note_on_c, 0, 84, 90
2, 183548, Note_on_c, 0, 84, 0
2, 183552, Note_on_c, 0, 81, 90
2, 183924, Note_on_c, 0, 81, 0
2, 183936, Note_on_c, 0, 86, 90
2, 184316, Note_on_c, 0, 86, 0
2, 184320, Note_on_c, 0, 84, 90
2, 185084, Note_on_c, 0, 84, 0
2, 185088, Note_on_c, 0, 83, 90
2, 185468, Note_on_c, 0, 83, 0
2, 186048, Note_on_c, 0, 86, 90
2, 186236, Note_on_c, 0, 86, 0
2, 186240, Note_on_c, 0, 85, 90
2, 186428, Note_on_c, 0, 85, 0
2, 186432, Note_on_c, 0, 86, 90
2, 186620, Note_on_c, 0, 86, 0
2, 186624, Note_on_c, 0, 84, 90
2, 186812, Note_on_c, 0, 84, 0
2, 186816, Note_on_c, 0, 83, 90
2, 187004, Note_on_c, 0, 83, 0
2, 187008, Note_on_c, 0, 81, 90
2, 187196, Note_on_c, 0, 81, 0
2, 187200, Note_on_c, 0, 79, 90
2, 187388, Note_on_c, 0, 79, 0
2, 187392, Note_on_c, 0, 88, 82
2, 187964, Note_on_c, 0, 88, 0
2, 187968, Note_on_c, 0, 84, 85
2, 188156, Note_on_c, 0, 84, 0
2, 188160, Note_on_c, 0, 81, 89
2, 188540, Note_on_c, 0, 81, 0
2, 188928, Note_on_c, 0, 86, 85
2, 189500, Note_on_c, 0, 86, 0
2, 189504, Note_on_c, 0, 83, 86
2, 189692, Note_on_c, 0, 83, 0
2, 189696, Note_on_c, 0, 79, 90
2, 190076, Note_on_c, 0, 79, 0
2, 190464, Note_on_c, 0, 78, 90
2, 191036, Note_on_c, 0, 78, 0
2, 191040, Note_on_c, 0, 81, 90
2, 191228, Note_on_c, 0, 81, 0
2, 191232, Note_on_c, 0, 84, 90
2, 191612, Note_on_c, 0, 84, 0
2, 192384, Note_on_c, 0, 83, 99
2, 192756, Note_on_c, 0, 83, 0
2, 192768, Note_on_c, 0, 83, 99
2, 193140, Note_on_c, 0, 83, 0
2, 193152, Note_on_c, 0, 83, 99
2, 193524, Note_on_c, 0, 83, 0
2, 193536, Note_on_c, 0, 83, 73
2, 193916, Note_on_c, 0, 83, 0
2, 193920, Note_on_c, 0, 84, 73
2, 194108, Note_on_c, 0, 84, 0
2, 194112, Note_on_c, 0, 86, 73
2, 194300, Note_on_c, 0, 86, 0
2, 194304, Note_on_c, 0, 88, 73
2, 194684, Note_on_c, 0, 88, 0
2, 194688, Note_on_c, 0, 84, 73
2, 194876, Note_on_c, 0, 84, 0
2, 194880, Note_on_c, 0, 83, 73
2, 195068, Note_on_c, 0, 83, 0
2, 195072, Note_on_c, 0, 81, 73
2, 195136, Note_on_c, 0, 81, 0
2, 195136, Note_on_c, 0, 83, 73
2, 195200, Note_on_c, 0, 83, 0
2, 195200, Note_on_c, 0, 81, 73
2, 195264, Note_on_c, 0, 81, 0
2, 195264, Note_on_c, 0, 83, 73
2, 195328, Note_on_c, 0, 83, 0
2, 195328, Note_on_c, 0, 81, 73
2, 195392, Note_on_c, 0, 81, 0
2, 195392, Note_on_c, 0, 83, 73
2, 195456, Note_on_c, 0, 83, 0
2, 195456, Note_on_c, 0, 81, 73
2, 195520, Note_on_c, 0, 81, 0
2, 195520, Note_on_c, 0, 83, 73
2, 195584, Note_on_c, 0, 83, 0
2, 195584, Note_on_c, 0, 81, 73
2, 195648, Note_on_c, 0, 81, 0
2, 195648, Note_on_c, 0, 83, 73
2, 195712, Note_on_c, 0, 83, 0
2, 195712, Note_on_c, 0, 81, 73
2, 195776, Note_on_c, 0, 81, 0
2, 195776, Note_on_c, 0, 83, 73
2, 195840, Note_on_c, 0, 83, 0
2, 195840, Note_on_c, 0, 81, 73
2, 195904, Note_on_c, 0, 81, 0
2, 195904, Note_on_c, 0, 83, 73
2, 195968, Note_on_c, 0, 83, 0
2, 195968, Note_on_c, 0, 81, 73
2, 196032, Note_on_c, 0, 81, 0
2, 196032, Note_on_c, 0, 83, 73
2, 196096, Note_on_c, 0, 83, 0
2, 196096, Note_on_c, 0, 81, 73
2, 196128, Note_on_c, 0, 83, 73
2, 196160, Note_on_c, 0, 81, 0
2, 196160, Note_on_c, 0, 81, 73
2, 196192, Note_on_c, 0, 83, 0
2, 196220, Note_on_c, 0, 81, 0
2, 196224, Note_on_c, 0, 83, 73
2, 196288, Note_on_c, 0, 83, 0
2, 196288, Note_on_c, 0, 81, 73
2, 196352, Note_on_c, 0, 81, 0
2, 196352, Note_on_c, 0, 83, 73
2, 196416, Note_on_c, 0, 83, 0
2, 196416, Note_on_c, 0, 79, 73
2, 196508, Note_on_c, 0, 79, 0
2, 196512, Note_on_c, 0, 81, 73
2, 196604, Note_on_c, 0, 81, 0
2, 196608, Note_on_c, 0, 79, 73
2, 196988, Note_on_c, 0, 79, 0
2, 204288, Note_on_c, 0, 74, 73
2, 208892, Note_on_c, 0, 74, 0
2, 209088, Note_on_c, 0, 79, 73
2, 209276, Note_on_c, 0, 79, 0
2, 209280, Note_on_c, 0, 78, 73
2, 209468, Note_on_c, 0, 78, 0
2, 209472, Note_on_c, 0, 79, 73
2, 209660, Note_on_c, 0, 79, 0
2, 209664, Note_on_c, 0, 78, 73
2, 209852, Note_on_c, 0, 78, 0
2, 209856, Note_on_c, 0, 79, 73
2, 210044, Note_on_c, 0, 79, 0
2, 210048, Note_on_c, 0, 78, 73
2, 210236, Note_on_c, 0, 78, 0
2, 210240, Note_on_c, 0, 79, 73
2, 210428, Note_on_c, 0, 79, 0
2, 210432, Note_on_c, 0, 67, 90
2, 211196, Note_on_c, 0, 67, 0
2, 211200, Note_on_c, 0, 86, 82
2, 211964, Note_on_c, 0, 86, 0
2, 211968, Note_on_c, 0, 88, 82
2, 212348, Note_on_c, 0, 88, 0
2, 212736, Note_on_c, 0, 81, 89
2, 213120, Note_on_c, 0, 81, 0
2, 213120, Note_on_c, 0, 84, 85
2, 213212, Note_on_c, 0, 84, 0
2, 213312, Note_on_c, 0, 88, 83
2, 213404, Note_on_c, 0, 88, 0
2, 213504, Note_on_c, 0, 86, 86
2, 213884, Note_on_c, 0, 86, 0
2, 214272, Note_on_c, 0, 79, 90
2, 214652, Note_on_c, 0, 79, 0
2, 214656, Note_on_c, 0, 83, 90
2, 214748, Note_on_c, 0, 83, 0
2, 214848, Note_on_c, 0, 86, 90
2, 214940, Note_on_c, 0, 86, 0
2, 215040, Note_on_c, 0, 84, 90
2, 215420, Note_on_c, 0, 84, 0
2, 215808, Note_on_c, 0, 72, 93
2, 216188, Note_on_c, 0, 72, 0
2, 216192, Note_on_c, 0, 69, 96
2, 216284, Note_on_c, 0, 69, 0
2, 216384, Note_on_c, 0, 62, 99
2, 216476, Note_on_c, 0, 62, 0
2, 216576, Note_on_c, 0, 67, 99
2, 218108, Note_on_c, 0, 67, 0
2, 218112, Note_on_c, 0, 79, 110
2, 219644, Note_on_c, 0, 79, 0
2, 219648, Note_on_c, 0, 74, 110
2, 220412, Note_on_c, 0, 74, 0
2, 220416, Note_on_c, 0, 62, 115
2, 221180, Note_on_c, 0, 62, 0
2, 221184, Note_on_c, 0, 67, 104
2, 221564, Note_on_c, 0, 67, 0
2, 224640, Note_on_c, 0, 67, 80
2, 224732, Note_on_c, 0, 67, 0
2, 224832, Note_on_c, 0, 67, 80
2, 224924, Note_on_c, 0, 67, 0
2, 225024, Note_on_c, 0, 66, 80
2, 225216, Note_on_c, 0, 66, 0
2, 225216, Note_on_c, 0, 69, 80
2, 225400, Note_on_c, 0, 69, 0
2, 225408, Note_on_c, 0, 72, 80
2, 225500, Note_on_c, 0, 72, 0
2, 225600, Note_on_c, 0, 72, 80
2, 225692, Note_on_c, 0, 72, 0
2, 225792, Note_on_c, 0, 67, 80
2, 225984, Note_on_c, 0, 67, 0
2, 225984, Note_on_c, 0, 71, 80
2, 226168, Note_on_c, 0, 71, 0
2, 226176, Note_on_c, 0, 74, 80
2, 226268, Note_on_c, 0, 74, 0
2, 226368, Note_on_c, 0, 74, 80
2, 226460, Note_on_c, 0, 74, 0
2, 226560, Note_on_c, 0, 69, 80
2, 226752, Note_on_c, 0, 69, 0
2, 226752, Note_on_c, 0, 74, 80
2, 226936, Note_on_c, 0, 74, 0
2, 226944, Note_on_c, 0, 78, 80
2, 227036, Note_on_c, 0, 78, 0
2, 227136, Note_on_c, 0, 78, 80
2, 227228, Note_on_c, 0, 78, 0
2, 227328, Note_on_c, 0, 79, 80
2, 227708, Note_on_c, 0, 79, 0
2, 227712, Note_on_c, 0, 67, 80
2, 227804, Note_on_c, 0, 67, 0
2, 227904, Note_on_c, 0, 67, 80
2, 227996, Note_on_c, 0, 67, 0
2, 228096, Note_on_c, 0, 66, 80
2, 228288, Note_on_c, 0, 66, 0
2, 228288, Note_on_c, 0, 69, 80
2, 228472, Note_on_c, 0, 69, 0
2, 228480, Note_on_c, 0, 72, 80
2, 228572, Note_on_c, 0, 72, 0
2, 228672, Note_on_c, 0, 72, 80
2, 228764, Note_on_c, 0, 72, 0
2, 228864, Note_on_c, 0, 67, 80
2, 229056, Note_on_c, 0, 67, 0
2, 229056, Note_on_c, 0, 71, 80
2, 229240, Note_on_c, 0, 71, 0
2, 229248, Note_on_c, 0, 74, 80
2, 229340, Note_on_c, 0, 74, 0
2, 229440, Note_on_c, 0, 74, 80
2, 229532, Note_on_c, 0, 74, 0
2, 229632, Note_on_c, 0, 69, 80
2, 229824, Note_on_c, 0, 69, 0
2, 229824, Note_on_c, 0, 74, 80
2, 230008, Note_on_c, 0, 74, 0
2, 230016, Note_on_c, 0, 78, 80
2, 230108, Note_on_c, 0, 78, 0
2, 230208, Note_on_c, 0, 78, 80
2, 230300, Note_on_c, 0, 78, 0
2, 230400, Note_on_c, 0, 79, 108
2, 230780, Note_on_c, 0, 79, 0
2, 246912, Note_on_c, 0, 81, 73
2, 247100, Note_on_c, 0, 81, 0
2, 247104, Note_on_c, 0, 83, 73
2, 247292, Note_on_c, 0, 83, 0
2, 247296, Note_on_c, 0, 79, 73
2, 247484, Note_on_c, 0, 79, 0
2, 247680, Note_on_c, 0, 81, 73
2, 247868, Note_on_c, 0, 81, 0
2, 247872, Note_on_c, 0, 83, 73
2, 248060, Note_on_c, 0, 83, 0
2, 248064, Note_on_c, 0, 79, 73
2, 248252, Note_on_c, 0, 79, 0
2, 248448, Note_on_c, 0, 81, 73
2, 248636, Note_on_c, 0, 81, 0
2, 248640, Note_on_c, 0, 83, 73
2, 248828, Note_on_c, 0, 83, 0
2, 248832, Note_on_c, 0, 79, 73
2, 249020, Note_on_c, 0, 79, 0
2, 249216, Note_on_c, 0, 83, 73
2, 249404, Note_on_c, 0, 83, 0
2, 249600, Note_on_c, 0, 86, 69
2, 250748, Note_on_c, 0, 86, 0
2, 250752, Note_on_c, 0, 84, 73
2, 250844, Note_on_c, 0, 84, 0
2, 250944, Note_on_c, 0, 83, 73
2, 251036, Note_on_c, 0, 83, 0
2, 251136, Note_on_c, 0, 83, 73
2, 251328, Note_on_c, 0, 83, 0
2, 251328, Note_on_c, 0, 81, 73
2, 251512, Note_on_c, 0, 81, 0
2, 251520, Note_on_c, 0, 79, 73
2, 251612, Note_on_c, 0, 79, 0
2, 251712, Note_on_c, 0, 81, 73
2, 251804, Note_on_c, 0, 81, 0
2, 251904, Note_on_c, 0, 79, 73
2, 252668, Note_on_c, 0, 79, 0
2, 252672, Note_on_c, 0, 79, 73
2, 252860, Note_on_c, 0, 79, 0
2, 252864, Note_on_c, 0, 83, 73
2, 253052, Note_on_c, 0, 83, 0
2, 253056, Note_on_c, 0, 81, 73
2, 253244, Note_on_c, 0, 81, 0
2, 253248, Note_on_c, 0, 83, 73
2, 253436, Note_on_c, 0, 83, 0
2, 253440, Note_on_c, 0, 79, 82
2, 253628, Note_on_c, 0, 79, 0
2, 253632, Note_on_c, 0, 83, 82
2, 253820, Note_on_c, 0, 83, 0
2, 253824, Note_on_c, 0, 81, 82
2, 254012, Note_on_c, 0, 81, 0
2, 254016, Note_on_c, 0, 83, 82
2, 254204, Note_on_c, 0, 83, 0
2, 254208, Note_on_c, 0, 79, 82
2, 254396, Note_on_c, 0, 79, 0
2, 254400, Note_on_c, 0, 83, 82
2, 254588, Note_on_c, 0, 83, 0
2, 254592, Note_on_c, 0, 81, 82
2, 254780, Note_on_c, 0, 81, 0
2, 254784, Note_on_c, 0, 83, 82
2, 254972, Note_on_c, 0, 83, 0
2, 254976, Note_on_c, 0, 79, 82
2, 255356, Note_on_c, 0, 79, 0
2, 255360, Note_on_c, 0, 83, 82
2, 255548, Note_on_c, 0, 83, 0
2, 255744, Note_on_c, 0, 86, 77
2, 256892, Note_on_c, 0, 86, 0
2, 256896, Note_on_c, 0, 84, 82
2, 256988, Note_on_c, 0, 84, 0
2, 257088, Note_on_c, 0, 83, 82
2, 257180, Note_on_c, 0, 83, 0
2, 257280, Note_on_c, 0, 83, 82
2, 257472, Note_on_c, 0, 83, 0
2, 257472, Note_on_c, 0, 81, 82
2, 257656, Note_on_c, 0, 81, 0
2, 257664, Note_on_c, 0, 79, 82
2, 257756, Note_on_c, 0, 79, 0
2, 257856, Note_on_c, 0, 81, 82
2, 257948, Note_on_c, 0, 81, 0
2, 258048, Note_on_c, 0, 79, 82
2, 258428, Note_on_c, 0, 79, 0
2, 261120, Note_on_c, 0, 74, 73
2, 264188, Note_on_c, 0, 74, 0
2, 264192, Note_on_c, 0, 86, 79
2, 267260, Note_on_c, 0, 86, 0
2, 267264, Note_on_c, 0, 67, 95
2, 267644, Note_on_c, 0, 67, 0
2, 270336, Note_on_c, 0, 81, 73
2, 270524, Note_on_c, 0, 81, 0
2, 270528, Note_on_c, 0, 79, 73
2, 270716, Note_on_c, 0, 79, 0
2, 270720, Note_on_c, 0, 78, 73
2, 270908, Note_on_c, 0, 78, 0
2, 270912, Note_on_c, 0, 79, 73
2, 271100, Note_on_c, 0, 79, 0
2, 271104, Note_on_c, 0, 78, 73
2, 271292, Note_on_c, 0, 78, 0
2, 271296, Note_on_c, 0, 79, 73
2, 271484, Note_on_c, 0, 79, 0
2, 271488, Note_on_c, 0, 81, 73
2, 271676, Note_on_c, 0, 81, 0
2, 271680, Note_on_c, 0, 79, 73
2, 271868, Note_on_c, 0, 79, 0
2, 271872, Note_on_c, 0, 79, 73
2, 272060, Note_on_c, 0, 79, 0
2, 272064, Note_on_c, 0, 77, 73
2, 272252, Note_on_c, 0, 77, 0
2, 272256, Note_on_c, 0, 76, 73
2, 272444, Note_on_c, 0, 76, 0
2, 272448, Note_on_c, 0, 77, 73
2, 272636, Note_on_c, 0, 77, 0
2, 272640, Note_on_c, 0, 76, 73
2, 272828, Note_on_c, 0, 76, 0
2, 272832, Note_on_c, 0, 77, 73
2, 273020, Note_on_c, 0, 77, 0
2, 273024, Note_on_c, 0, 79, 73
2, 273212, Note_on_c, 0, 79, 0
2, 273216, Note_on_c, 0, 77, 73
2, 273404, Note_on_c, 0, 77, 0
2, 273408, Note_on_c, 0, 74, 99
2, 273596, Note_on_c, 0, 74, 0
2, 273600, Note_on_c, 0, 77, 99
2, 273788, Note_on_c, 0, 77, 0
2, 273792, Note_on_c, 0, 76, 99
2, 273980, Note_on_c, 0, 76, 0
2, 273984, Note_on_c, 0, 79, 99
2, 274172, Note_on_c, 0, 79, 0
2, 274176, Note_on_c, 0, 77, 99
2, 274556, Note_on_c, 0, 77, 0
2, 274944, Note_on_c, 0, 74, 73
2, 275132, Note_on_c, 0, 74, 0
2, 275136, Note_on_c, 0, 77, 73
2, 275324, Note_on_c, 0, 77, 0
2, 275328, Note_on_c, 0, 76, 73
2, 275516, Note_on_c, 0, 76, 0
2, 275520, Note_on_c, 0, 79, 73
2, 275708, Note_on_c, 0, 79, 0
2, 275712, Note_on_c, 0, 77, 73
2, 276092, Note_on_c, 0, 77, 0
2, 276480, Note_on_c, 0, 74, 99
2, 276668, Note_on_c, 0, 74, 0
2, 276672, Note_on_c, 0, 77, 99
2, 276860, Note_on_c, 0, 77, 0
2, 276864, Note_on_c, 0, 76, 99
2, 277052, Note_on_c, 0, 76, 0
2, 277056, Note_on_c, 0, 79, 99
2, 277244, Note_on_c, 0, 79, 0
2, 277248, Note_on_c, 0, 77, 99
2, 277436, Note_on_c, 0, 77, 0
2, 277440, Note_on_c, 0, 79, 99
2, 277628, Note_on_c, 0, 79, 0
2, 277632, Note_on_c, 0, 76, 99
2, 277820, Note_on_c, 0, 76, 0
2, 277824, Note_on_c, 0, 77, 99
2, 278012, Note_on_c, 0, 77, 0
2, 278016, Note_on_c, 0, 74, 73
2, 278204, Note_on_c, 0, 74, 0
2, 278208, Note_on_c, 0, 77, 73
2, 278396, Note_on_c, 0, 77, 0
2, 278400, Note_on_c, 0, 76, 73
2, 278588, Note_on_c, 0, 76, 0
2, 278592, Note_on_c, 0, 79, 73
2, 278780, Note_on_c, 0, 79, 0
2, 278784, Note_on_c, 0, 77, 73
2, 279164, Note_on_c, 0, 77, 0
2, 280320, Note_on_c, 0, 76, 62
2, 280508, Note_on_c, 0, 76, 0
2, 280704, Note_on_c, 0, 76, 62
2, 280892, Note_on_c, 0, 76, 0
2, 281088, Note_on_c, 0, 76, 62
2, 281852, Note_on_c, 0, 76, 0
2, 281856, Note_on_c, 0, 79, 62
2, 282044, Note_on_c, 0, 79, 0
2, 282048, Note_on_c, 0, 77, 62
2, 282236, Note_on_c, 0, 77, 0
2, 282240, Note_on_c, 0, 76, 62
2, 282332, Note_on_c, 0, 76, 0
2, 282432, Note_on_c, 0, 77, 62
2, 282524, Note_on_c, 0, 77, 0
2, 282624, Note_on_c, 0, 79, 62
2, 282812, Note_on_c, 0, 79, 0
2, 282816, Note_on_c, 0, 76, 62
2, 283004, Note_on_c, 0, 76, 0
2, 283008, Note_on_c, 0, 72, 62
2, 283196, Note_on_c, 0, 72, 0
2, 283392, Note_on_c, 0, 84, 62
2, 283964, Note_on_c, 0, 84, 0
2, 283968, Note_on_c, 0, 83, 62
2, 284156, Note_on_c, 0, 83, 0
2, 284160, Note_on_c, 0, 83, 62
2, 284348, Note_on_c, 0, 83, 0
2, 284352, Note_on_c, 0, 81, 62
2, 284540, Note_on_c, 0, 81, 0
2, 284544, Note_on_c, 0, 79, 62
2, 284924, Note_on_c, 0, 79, 0
2, 284928, Note_on_c, 0, 84, 62
2, 285500, Note_on_c, 0, 84, 0
2, 285504, Note_on_c, 0, 83, 62
2, 285692, Note_on_c, 0, 83, 0
2, 285696, Note_on_c, 0, 83, 62
2, 285884, Note_on_c, 0, 83, 0
2, 285888, Note_on_c, 0, 81, 62
2, 286076, Note_on_c, 0, 81, 0
2, 286080, Note_on_c, 0, 79, 62
2, 286460, Note_on_c, 0, 79, 0
2, 286464, Note_on_c, 0, 72, 62
2, 286652, Note_on_c, 0, 72, 0
2, 286848, Note_on_c, 0, 72, 62
2, 287036, Note_on_c, 0, 72, 0
2, 287232, Note_on_c, 0, 72, 62
2, 287996, Note_on_c, 0, 72, 0
2, 288000, Note_on_c, 0, 76, 62
2, 288188, Note_on_c, 0, 76, 0
2, 288192, Note_on_c, 0, 74, 62
2, 288380, Note_on_c, 0, 74, 0
2, 288384, Note_on_c, 0, 72, 62
2, 288476, Note_on_c, 0, 72, 0
2, 288576, Note_on_c, 0, 74, 62
2, 288668, Note_on_c, 0, 74, 0
2, 288768, Note_on_c, 0, 76, 62
2, 288956, Note_on_c, 0, 76, 0
2, 289152, Note_on_c, 0, 76, 62
2, 289340, Note_on_c, 0, 76, 0
2, 289536, Note_on_c, 0, 79, 62
2, 289728, Note_on_c, 0, 79, 0
2, 289728, Note_on_c, 0, 77, 62
2, 289912, Note_on_c, 0, 77, 0
2, 289920, Note_on_c, 0, 76, 62
2, 290012, Note_on_c, 0, 76, 0
2, 290112, Note_on_c, 0, 77, 62
2, 290204, Note_on_c, 0, 77, 0
2, 290304, Note_on_c, 0, 79, 62
2, 290488, Note_on_c, 0, 79, 0
2, 290688, Note_on_c, 0, 79, 62
2, 290872, Note_on_c, 0, 79, 0
2, 291072, Note_on_c, 0, 81, 62
2, 291164, Note_on_c, 0, 81, 0
2, 291264, Note_on_c, 0, 79, 62
2, 291356, Note_on_c, 0, 79, 0
2, 291456, Note_on_c, 0, 77, 62
2, 291644, Note_on_c, 0, 77, 0
2, 291648, Note_on_c, 0, 76, 62
2, 291836, Note_on_c, 0, 76, 0
2, 291840, Note_on_c, 0, 76, 62
2, 292220, Note_on_c, 0, 76, 0
2, 292224, Note_on_c, 0, 74, 62
2, 292604, Note_on_c, 0, 74, 0
2, 319488, Note_on_c, 0, 72, 99
2, 319676, Note_on_c, 0, 72, 0
2, 319676, Note_on_c, 0, 84, 99
2, 321016, Note_on_c, 0, 84, 0
2, 321024, Note_on_c, 0, 81, 105
2, 321788, Note_on_c, 0, 81, 0
2, 321792, Note_on_c, 0, 77, 105
2, 322556, Note_on_c, 0, 77, 0
2, 322560, Note_on_c, 0, 72, 99
2, 323708, Note_on_c, 0, 72, 0
2, 323712, Note_on_c, 0, 77, 99
2, 324092, Note_on_c, 0, 77, 0
2, 324096, Note_on_c, 0, 76, 99
2, 324476, Note_on_c, 0, 76, 0
2, 324480, Note_on_c, 0, 74, 99
2, 324540, Note_on_c, 0, 74, 0
2, 324544, Note_on_c, 0, 76, 99
2, 324604, Note_on_c, 0, 76, 0
2, 324608, Note_on_c, 0, 74, 99
2, 324668, Note_on_c, 0, 74, 0
2, 324672, Note_on_c, 0, 76, 99
2, 324732, Note_on_c, 0, 76, 0
2, 324736, Note_on_c, 0, 72, 99
2, 324796, Note_on_c, 0, 72, 0
2, 324800, Note_on_c, 0, 74, 99
2, 324860, Note_on_c, 0, 74, 0
2, 324864, Note_on_c, 0, 72, 99
2, 325628, Note_on_c, 0, 72, 0
2, 325824, Note_on_c, 0, 77, 99
2, 326012, Note_on_c, 0, 77, 0
2, 326016, Note_on_c, 0, 76, 99
2, 326204, Note_on_c, 0, 76, 0
2, 326208, Note_on_c, 0, 77, 99
2, 326396, Note_on_c, 0, 77, 0
2, 326400, Note_on_c, 0, 76, 99
2, 326588, Note_on_c, 0, 76, 0
2, 326592, Note_on_c, 0, 77, 99
2, 326780, Note_on_c, 0, 77, 0
2, 326784, Note_on_c, 0, 79, 99
2, 326972, Note_on_c, 0, 79, 0
2, 326976, Note_on_c, 0, 81, 99
2, 327164, Note_on_c, 0, 81, 0
2, 327168, Note_on_c, 0, 78, 99
2, 327932, Note_on_c, 0, 78, 0
2, 327936, Note_on_c, 0, 79, 99
2, 328700, Note_on_c, 0, 79, 0
2, 328704, Note_on_c, 0, 79, 99
2, 328892, Note_on_c, 0, 79, 0
2, 328896, Note_on_c, 0, 81, 99
2, 329084, Note_on_c, 0, 81, 0
2, 329088, Note_on_c, 0, 82, 99
2, 329276, Note_on_c, 0, 82, 0
2, 329280, Note_on_c, 0, 81, 99
2, 329468, Note_on_c, 0, 81, 0
2, 329472, Note_on_c, 0, 84, 99
2, 329660, Note_on_c, 0, 84, 0
2, 329664, Note_on_c, 0, 82, 99
2, 329852, Note_on_c, 0, 82, 0
2, 329856, Note_on_c, 0, 81, 99
2, 330044, Note_on_c, 0, 81, 0
2, 330048, Note_on_c, 0, 79, 99
2, 330236, Note_on_c, 0, 79, 0
2, 330240, Note_on_c, 0, 77, 99
2, 330332, Note_on_c, 0, 77, 0
2, 330336, Note_on_c, 0, 79, 99
2, 330428, Note_on_c, 0, 79, 0
2, 330432, Note_on_c, 0, 77, 99
2, 330524, Note_on_c, 0, 77, 0
2, 330528, Note_on_c, 0, 76, 99
2, 330620, Note_on_c, 0, 76, 0
2, 330624, Note_on_c, 0, 77, 99
2, 330812, Note_on_c, 0, 77, 0
2, 330816, Note_on_c, 0, 79, 99
2, 330908, Note_on_c, 0, 79, 0
2, 331008, Note_on_c, 0, 81, 99
2, 331100, Note_on_c, 0, 81, 0
2, 331104, Note_on_c, 0, 82, 99
2, 331196, Note_on_c, 0, 82, 0
2, 331200, Note_on_c, 0, 81, 99
2, 331292, Note_on_c, 0, 81, 0
2, 331296, Note_on_c, 0, 79, 99
2, 331388, Note_on_c, 0, 79, 0
2, 331392, Note_on_c, 0, 81, 99
2, 331580, Note_on_c, 0, 81, 0
2, 331584, Note_on_c, 0, 82, 99
2, 331676, Note_on_c, 0, 82, 0
2, 331776, Note_on_c, 0, 72, 115
2, 331948, Note_on_c, 0, 72, 0
2, 331968, Note_on_c, 0, 84, 108
2, 332060, Note_on_c, 0, 84, 0
2, 332160, Note_on_c, 0, 84, 108
2, 332252, Note_on_c, 0, 84, 0
2, 332352, Note_on_c, 0, 84, 108
2, 332444, Note_on_c, 0, 84, 0
2, 332544, Note_on_c, 0, 84, 108
2, 332636, Note_on_c, 0, 84, 0
2, 332736, Note_on_c, 0, 84, 108
2, 332828, Note_on_c, 0, 84, 0
2, 332928, Note_on_c, 0, 84, 108
2, 333020, Note_on_c, 0, 84, 0
2, 333120, Note_on_c, 0, 84, 108
2, 333212, Note_on_c, 0, 84, 0
2, 333312, Note_on_c, 0, 69, 115
2, 333484, Note_on_c, 0, 69, 0
2, 333504, Note_on_c, 0, 81, 108
2, 333676, Note_on_c, 0, 81, 0
2, 333696, Note_on_c, 0, 81, 108
2, 333788, Note_on_c, 0, 81, 0
2, 333888, Note_on_c, 0, 81, 108
2, 333980, Note_on_c, 0, 81, 0
2, 334080, Note_on_c, 0, 65, 115
2, 334172, Note_on_c, 0, 65, 0
2, 334272, Note_on_c, 0, 77, 108
2, 334364, Note_on_c, 0, 77, 0
2, 334464, Note_on_c, 0, 77, 108
2, 334556, Note_on_c, 0, 77, 0
2, 334656, Note_on_c, 0, 77, 108
2, 334748, Note_on_c, 0, 77, 0
2, 334848, Note_on_c, 0, 72, 108
2, 335228, Note_on_c, 0, 72, 0
2, 335232, Note_on_c, 0, 72, 108
2, 335612, Note_on_c, 0, 72, 0
2, 335616, Note_on_c, 0, 72, 108
2, 335788, Note_on_c, 0, 72, 0
2, 335808, Note_on_c, 0, 74, 108
2, 335980, Note_on_c, 0, 74, 0
2, 336000, Note_on_c, 0, 76, 108
2, 336172, Note_on_c, 0, 76, 0
2, 336192, Note_on_c, 0, 77, 108
2, 336364, Note_on_c, 0, 77, 0
2, 336384, Note_on_c, 0, 76, 108
2, 336764, Note_on_c, 0, 76, 0
2, 336768, Note_on_c, 0, 74, 108
2, 336832, Note_on_c, 0, 74, 0
2, 336832, Note_on_c, 0, 76, 108
2, 336896, Note_on_c, 0, 76, 0
2, 336896, Note_on_c, 0, 74, 108
2, 336960, Note_on_c, 0, 74, 0
2, 336960, Note_on_c, 0, 76, 108
2, 337024, Note_on_c, 0, 76, 0
2, 337024, Note_on_c, 0, 72, 108
2, 337088, Note_on_c, 0, 72, 0
2, 337088, Note_on_c, 0, 74, 108
2, 337152, Note_on_c, 0, 74, 0
2, 337152, Note_on_c, 0, 72, 108
2, 337916, Note_on_c, 0, 72, 0
2, 338112, Note_on_c, 0, 84, 108
2, 338300, Note_on_c, 0, 84, 0
2, 338304, Note_on_c, 0, 83, 108
2, 338492, Note_on_c, 0, 83, 0
2, 338496, Note_on_c, 0, 84, 108
2, 338684, Note_on_c, 0, 84, 0
2, 338688, Note_on_c, 0, 86, 108
2, 338876, Note_on_c, 0, 86, 0
2, 338880, Note_on_c, 0, 84, 108
2, 339068, Note_on_c, 0, 84, 0
2, 339072, Note_on_c, 0, 82, 108
2, 339248, Note_on_c, 0, 81, 108
2, 339260, Note_on_c, 0, 82, 0
2, 339436, Note_on_c, 0, 81, 0
2, 339456, Note_on_c, 0, 78, 108
2, 339644, Note_on_c, 0, 78, 0
2, 339648, Note_on_c, 0, 79, 108
2, 339836, Note_on_c, 0, 79, 0
2, 339840, Note_on_c, 0, 85, 108
2, 340028, Note_on_c, 0, 85, 0
2, 340032, Note_on_c, 0, 86, 108
2, 340220, Note_on_c, 0, 86, 0
2, 340224, Note_on_c, 0, 81, 108
2, 340412, Note_on_c, 0, 81, 0
2, 340416, Note_on_c, 0, 82, 108
2, 340604, Note_on_c, 0, 82, 0
2, 340608, Note_on_c, 0, 78, 108
2, 340796, Note_on_c, 0, 78, 0
2, 340800, Note_on_c, 0, 79, 108
2, 340988, Note_on_c, 0, 79, 0
2, 340992, Note_on_c, 0, 77, 108
2, 341756, Note_on_c, 0, 77, 0
2, 341760, Note_on_c, 0, 79, 108
2, 341820, Note_on_c, 0, 79, 0
2, 341824, Note_on_c, 0, 81, 108
2, 341884, Note_on_c, 0, 81, 0
2, 341888, Note_on_c, 0, 79, 108
2, 341948, Note_on_c, 0, 79, 0
2, 341952, Note_on_c, 0, 81, 108
2, 342012, Note_on_c, 0, 81, 0
2, 342016, Note_on_c, 0, 79, 108
2, 342076, Note_on_c, 0, 79, 0
2, 342080, Note_on_c, 0, 81, 108
2, 342140, Note_on_c, 0, 81, 0
2, 342144, Note_on_c, 0, 79, 108
2, 342204, Note_on_c, 0, 79, 0
2, 342208, Note_on_c, 0, 81, 108
2, 342268, Note_on_c, 0, 81, 0
2, 342272, Note_on_c, 0, 79, 108
2, 342332, Note_on_c, 0, 79, 0
2, 342336, Note_on_c, 0, 77, 108
2, 342428, Note_on_c, 0, 77, 0
2, 342432, Note_on_c, 0, 79, 108
2, 342524, Note_on_c, 0, 79, 0
2, 342528, Note_on_c, 0, 77, 108
2, 342908, Note_on_c, 0, 77, 0
2, 345600, Note_on_c, 0, 84, 82
2, 350204, Note_on_c, 0, 84, 0
2, 350208, Note_on_c, 0, 84, 69
2, 350780, Note_on_c, 0, 84, 0
2, 350784, Note_on_c, 0, 81, 72
2, 350972, Note_on_c, 0, 81, 0
2, 350976, Note_on_c, 0, 89, 66
2, 351356, Note_on_c, 0, 89, 0
2, 360960, Note_on_c, 0, 67, 99
2, 364028, Note_on_c, 0, 67, 0
2, 364032, Note_on_c, 0, 84, 99
2, 364124, Note_on_c, 0, 84, 0
2, 364224, Note_on_c, 0, 84, 99
2, 364316, Note_on_c, 0, 84, 0
2, 364416, Note_on_c, 0, 83, 99
2, 364508, Note_on_c, 0, 83, 0
2, 364608, Note_on_c, 0, 81, 99
2, 364700, Note_on_c, 0, 81, 0
2, 364800, Note_on_c, 0, 79, 99
2, 364892, Note_on_c, 0, 79, 0
2, 364992, Note_on_c, 0, 77, 99
2, 365084, Note_on_c, 0, 77, 0
2, 365184, Note_on_c, 0, 76, 99
2, 365276, Note_on_c, 0, 76, 0
2, 365376, Note_on_c, 0, 74, 99
2, 365468, Note_on_c, 0, 74, 0
2, 365568, Note_on_c, 0, 72, 99
2, 365660, Note_on_c, 0, 72, 0
2, 365760, Note_on_c, 0, 74, 99
2, 365852, Note_on_c, 0, 74, 0
2, 365952, Note_on_c, 0, 76, 99
2, 366044, Note_on_c, 0, 76, 0
2, 366144, Note_on_c, 0, 77, 99
2, 366236, Note_on_c, 0, 77, 0
2, 366336, Note_on_c, 0, 79, 99
2, 366428, Note_on_c, 0, 79, 0
2, 366528, Note_on_c, 0, 81, 99
2, 366620, Note_on_c, 0, 81, 0
2, 366720, Note_on_c, 0, 83, 99
2, 366812, Note_on_c, 0, 83, 0
2, 366912, Note_on_c, 0, 84, 99
2, 367004, Note_on_c, 0, 84, 0
2, 367104, Note_on_c, 0, 83, 99
2, 367196, Note_on_c, 0, 83, 0
2, 367296, Note_on_c, 0, 81, 99
2, 367388, Note_on_c, 0, 81, 0
2, 367488, Note_on_c, 0, 80, 99
2, 367580, Note_on_c, 0, 80, 0
2, 367680, Note_on_c, 0, 77, 99
2, 367772, Note_on_c, 0, 77, 0
2, 367872, Note_on_c, 0, 76, 99
2, 367964, Note_on_c, 0, 76, 0
2, 368064, Note_on_c, 0, 74, 99
2, 368156, Note_on_c, 0, 74, 0
2, 368256, Note_on_c, 0, 72, 99
2, 368348, Note_on_c, 0, 72, 0
2, 368448, Note_on_c, 0, 71, 99
2, 368540, Note_on_c, 0, 71, 0
2, 368640, Note_on_c, 0, 69, 99
2, 368732, Note_on_c, 0, 69, 0
2, 368832, Note_on_c, 0, 71, 99
2, 368924, Note_on_c, 0, 71, 0
2, 369024, Note_on_c, 0, 72, 99
2, 369116, Note_on_c, 0, 72, 0
2, 369216, Note_on_c, 0, 74, 99
2, 369308, Note_on_c, 0, 74, 0
2, 369408, Note_on_c, 0, 76, 99
2, 369500, Note_on_c, 0, 76, 0
2, 369600, Note_on_c, 0, 77, 99
2, 369692, Note_on_c, 0, 77, 0
2, 369792, Note_on_c, 0, 80, 99
2, 369884, Note_on_c, 0, 80, 0
2, 369984, Note_on_c, 0, 81, 99
2, 370076, Note_on_c, 0, 81, 0
2, 370176, Note_on_c, 0, 79, 99
2, 370268, Note_on_c, 0, 79, 0
2, 370368, Note_on_c, 0, 77, 99
2, 370460, Note_on_c, 0, 77, 0
2, 370560, Note_on_c, 0, 76, 99
2, 370652, Note_on_c, 0, 76, 0
2, 370752, Note_on_c, 0, 74, 99
2, 370844, Note_on_c, 0, 74, 0
2, 370944, Note_on_c, 0, 72, 99
2, 371036, Note_on_c, 0, 72, 0
2, 371136, Note_on_c, 0, 70, 99
2, 371228, Note_on_c, 0, 70, 0
2, 371328, Note_on_c, 0, 69, 99
2, 371420, Note_on_c, 0, 69, 0
2, 371520, Note_on_c, 0, 67, 99
2, 371612, Note_on_c, 0, 67, 0
2, 371712, Note_on_c, 0, 65, 82
2, 372092, Note_on_c, 0, 65, 0
2, 374784, Note_on_c, 0, 71, 73
2, 374976, Note_on_c, 0, 71, 0
2, 374976, Note_on_c, 0, 67, 73
2, 375160, Note_on_c, 0, 67, 0
2, 375168, Note_on_c, 0, 69, 73
2, 375260, Note_on_c, 0, 69, 0
2, 375360, Note_on_c, 0, 71, 73
2, 375452, Note_on_c, 0, 71, 0
2, 375552, Note_on_c, 0, 72, 73
2, 375644, Note_on_c, 0, 72, 0
2, 375744, Note_on_c, 0, 74, 73
2, 375836, Note_on_c, 0, 74, 0
2, 375936, Note_on_c, 0, 76, 73
2, 376028, Note_on_c, 0, 76, 0
2, 376128, Note_on_c, 0, 78, 73
2, 376220, Note_on_c, 0, 78, 0
2, 376320, Note_on_c, 0, 79, 73
2, 376508, Note_on_c, 0, 79, 0
2, 376512, Note_on_c, 0, 78, 73
2, 376700, Note_on_c, 0, 78, 0
2, 376704, Note_on_c, 0, 79, 73
2, 376892, Note_on_c, 0, 79, 0
2, 376896, Note_on_c, 0, 78, 73
2, 377084, Note_on_c, 0, 78, 0
2, 377088, Note_on_c, 0, 79, 73
2, 377276, Note_on_c, 0, 79, 0
2, 377280, Note_on_c, 0, 78, 73
2, 377468, Note_on_c, 0, 78, 0
2, 377472, Note_on_c, 0, 79, 73
2, 377660, Note_on_c, 0, 79, 0
2, 377664, Note_on_c, 0, 78, 73
2, 377852, Note_on_c, 0, 78, 0
2, 377856, Note_on_c, 0, 79, 73
2, 384380, Note_on_c, 0, 79, 0
2, 384576, Note_on_c, 0, 79, 73
2, 384764, Note_on_c, 0, 79, 0
2, 384768, Note_on_c, 0, 78, 73
2, 384956, Note_on_c, 0, 78, 0
2, 384960, Note_on_c, 0, 79, 73
2, 385148, Note_on_c, 0, 79, 0
2, 385152, Note_on_c, 0, 78, 73
2, 385340, Note_on_c, 0, 78, 0
2, 385344, Note_on_c, 0, 79, 73
2, 385532, Note_on_c, 0, 79, 0
2, 385536, Note_on_c, 0, 84, 90
2, 385916, Note_on_c, 0, 84, 0
2, 385920, Note_on_c, 0, 82, 92
2, 386300, Note_on_c, 0, 82, 0
2, 386304, Note_on_c, 0, 80, 93
2, 386684, Note_on_c, 0, 80, 0
2, 386688, Note_on_c, 0, 79, 93
2, 387068, Note_on_c, 0, 79, 0
2, 387072, Note_on_c, 0, 79, 99
2, 387644, Note_on_c, 0, 79, 0
2, 387648, Note_on_c, 0, 78, 99
2, 387836, Note_on_c, 0, 78, 0
2, 387840, Note_on_c, 0, 78, 99
2, 388988, Note_on_c, 0, 78, 0
2, 388992, Note_on_c, 0, 75, 99
2, 389372, Note_on_c, 0, 75, 0
2, 389376, Note_on_c, 0, 74, 99
2, 389756, Note_on_c, 0, 74, 0
2, 389760, Note_on_c, 0, 72, 99
2, 390140, Note_on_c, 0, 72, 0
2, 390144, Note_on_c, 0, 71, 99
2, 390336, Note_on_c, 0, 71, 0
2, 390336, Note_on_c, 0, 74, 99
2, 390520, Note_on_c, 0, 74, 0
2, 390528, Note_on_c, 0, 79, 99
2, 390620, Note_on_c, 0, 79, 0
2, 390720, Note_on_c, 0, 79, 99
2, 390812, Note_on_c, 0, 79, 0
2, 390912, Note_on_c, 0, 79, 99
2, 391676, Note_on_c, 0, 79, 0
2, 391680, Note_on_c, 0, 79, 99
2, 392060, Note_on_c, 0, 79, 0
2, 392064, Note_on_c, 0, 83, 93
2, 392156, Note_on_c, 0, 83, 0
2, 392256, Note_on_c, 0, 86, 90
2, 392348, Note_on_c, 0, 86, 0
2, 392448, Note_on_c, 0, 84, 92
2, 392640, Note_on_c, 0, 84, 0
2, 392640, Note_on_c, 0, 83, 93
2, 392824, Note_on_c, 0, 83, 0
2, 392832, Note_on_c, 0, 81, 99
2, 392924, Note_on_c, 0, 81, 0
2, 393024, Note_on_c, 0, 79, 99
2, 393116, Note_on_c, 0, 79, 0
2, 393216, Note_on_c, 0, 79, 99
2, 393596, Note_on_c, 0, 79, 0
2, 393600, Note_on_c, 0, 78, 99
2, 393980, Note_on_c, 0, 78, 0
2, 393984, Note_on_c, 0, 87, 86
2, 394748, Note_on_c, 0, 87, 0
2, 394752, Note_on_c, 0, 88, 86
2, 395132, Note_on_c, 0, 88, 0
2, 395136, Note_on_c, 0, 84, 89
2, 395516, Note_on_c, 0, 84, 0
2, 395520, Note_on_c, 0, 87, 86
2, 395900, Note_on_c, 0, 87, 0
2, 395904, Note_on_c, 0, 78, 99
2, 396284, Note_on_c, 0, 78, 0
2, 396288, Note_on_c, 0, 79, 99
2, 396668, Note_on_c, 0, 79, 0
2, 397056, Note_on_c, 0, 84, 90
2, 397436, Note_on_c, 0, 84, 0
2, 397440, Note_on_c, 0, 78, 99
2, 397820, Note_on_c, 0, 78, 0
2, 397824, Note_on_c, 0, 79, 99
2, 398204, Note_on_c, 0, 79, 0
2, 398592, Note_on_c, 0, 84, 90
2, 398972, Note_on_c, 0, 84, 0
2, 398976, Note_on_c, 0, 78, 99
2, 399356, Note_on_c, 0, 78, 0
2, 399360, Note_on_c, 0, 79, 66
2, 399740, Note_on_c, 0, 79, 0
2, 400128, Note_on_c, 0, 79, 66
2, 400508, Note_on_c, 0, 79, 0
2, 400896, Note_on_c, 0, 79, 66
2, 401084, Note_on_c, 0, 79, 0
2, 401088, Note_on_c, 0, 78, 66
2, 401276, Note_on_c, 0, 78, 0
2, 401280, Note_on_c, 0, 79, 66
2, 401468, Note_on_c, 0, 79, 0
2, 401472, Note_on_c, 0, 78, 66
2, 401660, Note_on_c, 0, 78, 0
2, 401664, Note_on_c, 0, 79, 66
2, 401852, Note_on_c, 0, 79, 0
2, 401856, Note_on_c, 0, 78, 66
2, 402044, Note_on_c, 0, 78, 0
2, 402048, Note_on_c, 0, 79, 66
2, 402236, Note_on_c, 0, 79, 0
2, 402240, Note_on_c, 0, 78, 66
2, 402428, Note_on_c, 0, 78, 0
2, 402432, Note_on_c, 0, 79, 66
2, 403580, Note_on_c, 0, 79, 0
2, 403584, Note_on_c, 0, 76, 66
2, 403772, Note_on_c, 0, 76, 0
2, 403776, Note_on_c, 0, 77, 66
2, 403964, Note_on_c, 0, 77, 0
2, 403968, Note_on_c, 0, 79, 66
2, 404340, Note_on_c, 0, 79, 0
2, 404352, Note_on_c, 0, 79, 66
2, 404724, Note_on_c, 0, 79, 0
2, 404736, Note_on_c, 0, 79, 66
2, 405108, Note_on_c, 0, 79, 0
2, 405120, Note_on_c, 0, 79, 66
2, 405492, Note_on_c, 0, 79, 0
2, 405504, Note_on_c, 0, 79, 70
2, 406076, Note_on_c, 0, 79, 0
2, 406080, Note_on_c, 0, 88, 70
2, 406268, Note_on_c, 0, 88, 0
2, 406272, Note_on_c, 0, 88, 70
2, 407804, Note_on_c, 0, 88, 0
2, 407808, Note_on_c, 0, 79, 62
2, 408572, Note_on_c, 0, 79, 0
2, 408576, Note_on_c, 0, 77, 62
2, 409724, Note_on_c, 0, 77, 0
2, 409728, Note_on_c, 0, 74, 60
2, 409916, Note_on_c, 0, 74, 0
2, 409920, Note_on_c, 0, 76, 59
2, 410108, Note_on_c, 0, 76, 0
2, 410112, Note_on_c, 0, 77, 57
2, 410484, Note_on_c, 0, 77, 0
2, 410496, Note_on_c, 0, 77, 57
2, 410868, Note_on_c, 0, 77, 0
2, 410880, Note_on_c, 0, 77, 57
2, 411252, Note_on_c, 0, 77, 0
2, 411264, Note_on_c, 0, 77, 57
2, 411636, Note_on_c, 0, 77, 0
2, 411648, Note_on_c, 0, 77, 57
2, 412220, Note_on_c, 0, 77, 0
2, 412224, Note_on_c, 0, 86, 57
2, 412412, Note_on_c, 0, 86, 0
2, 412416, Note_on_c, 0, 86, 57
2, 413948, Note_on_c, 0, 86, 0
2, 413952, Note_on_c, 0, 77, 57
2, 414716, Note_on_c, 0, 77, 0
2, 414720, Note_on_c, 0, 76, 57
2, 415100, Note_on_c, 0, 76, 0
2, 436608, Note_on_c, 0, 72, 73
2, 436980, Note_on_c, 0, 72, 0
2, 436992, Note_on_c, 0, 72, 73
2, 437364, Note_on_c, 0, 72, 0
2, 437376, Note_on_c, 0, 72, 73
2, 437748, Note_on_c, 0, 72, 0
2, 437760, Note_on_c, 0, 74, 73
2, 437852, Note_on_c, 0, 74, 0
2, 437856, Note_on_c, 0, 76, 73
2, 437948, Note_on_c, 0, 76, 0
2, 437952, Note_on_c, 0, 74, 73
2, 438044, Note_on_c, 0, 74, 0
2, 438048, Note_on_c, 0, 72, 73
2, 438140, Note_on_c, 0, 72, 0
2, 438144, Note_on_c, 0, 74, 73
2, 438332, Note_on_c, 0, 74, 0
2, 438336, Note_on_c, 0, 76, 73
2, 438524, Note_on_c, 0, 76, 0
2, 438528, Note_on_c, 0, 72, 73
2, 438908, Note_on_c, 0, 72, 0
2, 438912, Note_on_c, 0, 72, 73
2, 439292, Note_on_c, 0, 72, 0
2, 439296, Note_on_c, 0, 74, 73
2, 439388, Note_on_c, 0, 74, 0
2, 439392, Note_on_c, 0, 76, 73
2, 439484, Note_on_c, 0, 76, 0
2, 439488, Note_on_c, 0, 74, 73
2, 439580, Note_on_c, 0, 74, 0
2, 439584, Note_on_c, 0, 72, 73
2, 439676, Note_on_c, 0, 72, 0
2, 439680, Note_on_c, 0, 74, 73
2, 439868, Note_on_c, 0, 74, 0
2, 439872, Note_on_c, 0, 76, 73
2, 440060, Note_on_c, 0, 76, 0
2, 440064, Note_on_c, 0, 72, 73
2, 440444, Note_on_c, 0, 72, 0
2, 440448, Note_on_c, 0, 77, 73
2, 440828, Note_on_c, 0, 77, 0
2, 440832, Note_on_c, 0, 76, 73
2, 441596, Note_on_c, 0, 76, 0
2, 441600, Note_on_c, 0, 74, 73
2, 441980, Note_on_c, 0, 74, 0
2, 442752, Note_on_c, 0, 74, 82
2, 443124, Note_on_c, 0, 74, 0
2, 443136, Note_on_c, 0, 74, 82
2, 443508, Note_on_c, 0, 74, 0
2, 443520, Note_on_c, 0, 74, 82
2, 443892, Note_on_c, 0, 74, 0
2, 443904, Note_on_c, 0, 76, 82
2, 443996, Note_on_c, 0, 76, 0
2, 444000, Note_on_c, 0, 77, 82
2, 444092, Note_on_c, 0, 77, 0
2, 444096, Note_on_c, 0, 76, 82
2, 444188, Note_on_c, 0, 76, 0
2, 444192, Note_on_c, 0, 74, 82
2, 444284, Note_on_c, 0, 74, 0
2, 444288, Note_on_c, 0, 76, 82
2, 444476, Note_on_c, 0, 76, 0
2, 444480, Note_on_c, 0, 77, 82
2, 444668, Note_on_c, 0, 77, 0
2, 444672, Note_on_c, 0, 74, 82
2, 445052, Note_on_c, 0, 74, 0
2, 445056, Note_on_c, 0, 74, 82
2, 445436, Note_on_c, 0, 74, 0
2, 445440, Note_on_c, 0, 76, 82
2, 445532, Note_on_c, 0, 76, 0
2, 445536, Note_on_c, 0, 77, 82
2, 445628, Note_on_c, 0, 77, 0
2, 445632, Note_on_c, 0, 76, 82
2, 445724, Note_on_c, 0, 76, 0
2, 445728, Note_on_c, 0, 74, 82
2, 445820, Note_on_c, 0, 74, 0
2, 445824, Note_on_c, 0, 76, 82
2, 446012, Note_on_c, 0, 76, 0
2, 446016, Note_on_c, 0, 77, 82
2, 446204, Note_on_c, 0, 77, 0
2, 446208, Note_on_c, 0, 74, 82
2, 446588, Note_on_c, 0, 74, 0
2, 446592, Note_on_c, 0, 79, 82
2, 446972, Note_on_c, 0, 79, 0
2, 446976, Note_on_c, 0, 77, 82
2, 447740, Note_on_c, 0, 77, 0
2, 447744, Note_on_c, 0, 76, 82
2, 448124, Note_on_c, 0, 76, 0
2, 448704, Note_on_c, 0, 79, 82
2, 448892, Note_on_c, 0, 79, 0
2, 448896, Note_on_c, 0, 78, 82
2, 449084, Note_on_c, 0, 78, 0
2, 449088, Note_on_c, 0, 79, 82
2, 449276, Note_on_c, 0, 79, 0
2, 449280, Note_on_c, 0, 77, 82
2, 449468, Note_on_c, 0, 77, 0
2, 449472, Note_on_c, 0, 76, 82
2, 449660, Note_on_c, 0, 76, 0
2, 449664, Note_on_c, 0, 74, 82
2, 449852, Note_on_c, 0, 74, 0
2, 449856, Note_on_c, 0, 72, 82
2, 450044, Note_on_c, 0, 72, 0
2, 450064, Note_on_c, 0, 81, 82
2, 450624, Note_on_c, 0, 77, 82
2, 450636, Note_on_c, 0, 81, 0
2, 450812, Note_on_c, 0, 77, 0
2, 450816, Note_on_c, 0, 74, 82
2, 451196, Note_on_c, 0, 74, 0
2, 451584, Note_on_c, 0, 79, 82
2, 452156, Note_on_c, 0, 79, 0
2, 452160, Note_on_c, 0, 76, 82
2, 452348, Note_on_c, 0, 76, 0
2, 452352, Note_on_c, 0, 72, 82
2, 452732, Note_on_c, 0, 72, 0
2, 453120, Note_on_c, 0, 71, 82
2, 453692, Note_on_c, 0, 71, 0
2, 453696, Note_on_c, 0, 74, 82
2, 453884, Note_on_c, 0, 74, 0
2, 453888, Note_on_c, 0, 77, 82
2, 454268, Note_on_c, 0, 77, 0
2, 455040, Note_on_c, 0, 76, 99
2, 455412, Note_on_c, 0, 76, 0
2, 455424, Note_on_c, 0, 76, 99
2, 455796, Note_on_c, 0, 76, 0
2, 455808, Note_on_c, 0, 76, 99
2, 456180, Note_on_c, 0, 76, 0
2, 456192, Note_on_c, 0, 76, 73
2, 456572, Note_on_c, 0, 76, 0
2, 456576, Note_on_c, 0, 77, 73
2, 456764, Note_on_c, 0, 77, 0
2, 456768, Note_on_c, 0, 79, 73
2, 456956, Note_on_c, 0, 79, 0
2, 456960, Note_on_c, 0, 81, 73
2, 457340, Note_on_c, 0, 81, 0
2, 457344, Note_on_c, 0, 77, 73
2, 457532, Note_on_c, 0, 77, 0
2, 457536, Note_on_c, 0, 76, 73
2, 457724, Note_on_c, 0, 76, 0
2, 457728, Note_on_c, 0, 74, 73
2, 457788, Note_on_c, 0, 74, 0
2, 457792, Note_on_c, 0, 76, 73
2, 457852, Note_on_c, 0, 76, 0
2, 457856, Note_on_c, 0, 74, 73
2, 457916, Note_on_c, 0, 74, 0
2, 457920, Note_on_c, 0, 76, 73
2, 457980, Note_on_c, 0, 76, 0
2, 457984, Note_on_c, 0, 74, 73
2, 458044, Note_on_c, 0, 74, 0
2, 458048, Note_on_c, 0, 76, 73
2, 458108, Note_on_c, 0, 76, 0
2, 458112, Note_on_c, 0, 74, 73
2, 458172, Note_on_c, 0, 74, 0
2, 458176, Note_on_c, 0, 76, 73
2, 458236, Note_on_c, 0, 76, 0
2, 458240, Note_on_c, 0, 74, 73
2, 458300, Note_on_c, 0, 74, 0
2, 458304, Note_on_c, 0, 76, 73
2, 458364, Note_on_c, 0, 76, 0
2, 458368, Note_on_c, 0, 74, 73
2, 458428, Note_on_c, 0, 74, 0
2, 458432, Note_on_c, 0, 76, 73
2, 458492, Note_on_c, 0, 76, 0
2, 458496, Note_on_c, 0, 74, 73
2, 458556, Note_on_c, 0, 74, 0
2, 458560, Note_on_c, 0, 76, 73
2, 458620, Note_on_c, 0, 76, 0
2, 458624, Note_on_c, 0, 74, 73
2, 458684, Note_on_c, 0, 74, 0
2, 458688, Note_on_c, 0, 76, 73
2, 458748, Note_on_c, 0, 76, 0
2, 458752, Note_on_c, 0, 74, 73
2, 458812, Note_on_c, 0, 74, 0
2, 458816, Note_on_c, 0, 76, 73
2, 458876, Note_on_c, 0, 76, 0
2, 458880, Note_on_c, 0, 74, 73
2, 458940, Note_on_c, 0, 74, 0
2, 458944, Note_on_c, 0, 76, 73
2, 459004, Note_on_c, 0, 76, 0
2, 459008, Note_on_c, 0, 74, 73
2, 459068, Note_on_c, 0, 74, 0
2, 459072, Note_on_c, 0, 72, 73
2, 459164, Note_on_c, 0, 72, 0
2, 459168, Note_on_c, 0, 74, 73
2, 459260, Note_on_c, 0, 74, 0
2, 459264, Note_on_c, 0, 72, 82
2, 459836, Note_on_c, 0, 72, 0
2, 465600, Note_on_c, 0, 79, 73
2, 465788, Note_on_c, 0, 79, 0
2, 465792, Note_on_c, 0, 78, 73
2, 465980, Note_on_c, 0, 78, 0
2, 465984, Note_on_c, 0, 79, 73
2, 466172, Note_on_c, 0, 79, 0
2, 466176, Note_on_c, 0, 78, 73
2, 466364, Note_on_c, 0, 78, 0
2, 466368, Note_on_c, 0, 79, 73
2, 466556, Note_on_c, 0, 79, 0
2, 466560, Note_on_c, 0, 78, 73
2, 466748, Note_on_c, 0, 78, 0
2, 466752, Note_on_c, 0, 79, 73
2, 466940, Note_on_c, 0, 79, 0
2, 466944, Note_on_c, 0, 67, 82
2, 471548, Note_on_c, 0, 67, 0
2, 471744, Note_on_c, 0, 84, 73
2, 471932, Note_on_c, 0, 84, 0
2, 471936, Note_on_c, 0, 83, 73
2, 472124, Note_on_c, 0, 83, 0
2, 472128, Note_on_c, 0, 84, 73
2, 472316, Note_on_c, 0, 84, 0
2, 472320, Note_on_c, 0, 83, 73
2, 472508, Note_on_c, 0, 83, 0
2, 472512, Note_on_c, 0, 84, 73
2, 472700, Note_on_c, 0, 84, 0
2, 472704, Note_on_c, 0, 83, 73
2, 472892, Note_on_c, 0, 83, 0
2, 472896, Note_on_c, 0, 84, 73
2, 473084, Note_on_c, 0, 84, 0
2, 473088, Note_on_c, 0, 64, 106
2, 473852, Note_on_c, 0, 64, 0
2, 473856, Note_on_c, 0, 79, 90
2, 474620, Note_on_c, 0, 79, 0
2, 474624, Note_on_c, 0, 81, 90
2, 475004, Note_on_c, 0, 81, 0
2, 475392, Note_on_c, 0, 86, 90
2, 475484, Note_on_c, 0, 86, 0
2, 475584, Note_on_c, 0, 85, 90
2, 475676, Note_on_c, 0, 85, 0
2, 475776, Note_on_c, 0, 86, 90
2, 475868, Note_on_c, 0, 86, 0
2, 475968, Note_on_c, 0, 83, 90
2, 476060, Note_on_c, 0, 83, 0
2, 476160, Note_on_c, 0, 79, 90
2, 476540, Note_on_c, 0, 79, 0
2, 476928, Note_on_c, 0, 84, 90
2, 477020, Note_on_c, 0, 84, 0
2, 477120, Note_on_c, 0, 83, 90
2, 477212, Note_on_c, 0, 83, 0
2, 477312, Note_on_c, 0, 84, 90
2, 477404, Note_on_c, 0, 84, 0
2, 477504, Note_on_c, 0, 81, 90
2, 477596, Note_on_c, 0, 81, 0
2, 477696, Note_on_c, 0, 77, 90
2, 478268, Note_on_c, 0, 77, 0
2, 478272, Note_on_c, 0, 76, 90
2, 478364, Note_on_c, 0, 76, 0
2, 478464, Note_on_c, 0, 74, 90
2, 478556, Note_on_c, 0, 74, 0
2, 478656, Note_on_c, 0, 72, 90
2, 478748, Note_on_c, 0, 72, 0
2, 478848, Note_on_c, 0, 74, 90
2, 478940, Note_on_c, 0, 74, 0
2, 479040, Note_on_c, 0, 71, 90
2, 479132, Note_on_c, 0, 71, 0
2, 479232, Note_on_c, 0, 72, 90
2, 481148, Note_on_c, 0, 72, 0
2, 481152, Note_on_c, 0, 81, 99
2, 481524, Note_on_c, 0, 81, 0
2, 481536, Note_on_c, 0, 81, 99
2, 481908, Note_on_c, 0, 81, 0
2, 481920, Note_on_c, 0, 81, 99
2, 482292, Note_on_c, 0, 81, 0
2, 482304, Note_on_c, 0, 79, 99
2, 483068, Note_on_c, 0, 79, 0
2, 483072, Note_on_c, 0, 67, 112
2, 483836, Note_on_c, 0, 67, 0
2, 483840, Note_on_c, 0, 72, 99
2, 484220, Note_on_c, 0, 72, 0
2, 493056, Note_on_c, 0, 79, 73
2, 493116, Note_on_c, 0, 79, 0
2, 493120, Note_on_c, 0, 81, 73
2, 493180, Note_on_c, 0, 81, 0
2, 493184, Note_on_c, 0, 79, 73
2, 493244, Note_on_c, 0, 79, 0
2, 493248, Note_on_c, 0, 81, 73
2, 493308, Note_on_c, 0, 81, 0
2, 493312, Note_on_c, 0, 79, 73
2, 493372, Note_on_c, 0, 79, 0
2, 493376, Note_on_c, 0, 81, 73
2, 493436, Note_on_c, 0, 81, 0
2, 493440, Note_on_c, 0, 79, 73
2, 493500, Note_on_c, 0, 79, 0
2, 493504, Note_on_c, 0, 81, 73
2, 493564, Note_on_c, 0, 81, 0
2, 493568, Note_on_c, 0, 79, 73
2, 493628, Note_on_c, 0, 79, 0
2, 493632, Note_on_c, 0, 81, 73
2, 493692, Note_on_c, 0, 81, 0
2, 493696, Note_on_c, 0, 79, 73
2, 493756, Note_on_c, 0, 79, 0
2, 493760, Note_on_c, 0, 81, 73
2, 493820, Note_on_c, 0, 81, 0
2, 493824, Note_on_c, 0, 79, 73
2, 493884, Note_on_c, 0, 79, 0
2, 493888, Note_on_c, 0, 81, 73
2, 493948, Note_on_c, 0, 81, 0
2, 493952, Note_on_c, 0, 79, 73
2, 494012, Note_on_c, 0, 79, 0
2, 494016, Note_on_c, 0, 81, 73
2, 494076, Note_on_c, 0, 81, 0
2, 494080, Note_on_c, 0, 79, 73
2, 494140, Note_on_c, 0, 79, 0
2, 494144, Note_on_c, 0, 81, 73
2, 494204, Note_on_c, 0, 81, 0
2, 494208, Note_on_c, 0, 79, 73
2, 494268, Note_on_c, 0, 79, 0
2, 494272, Note_on_c, 0, 81, 73
2, 494332, Note_on_c, 0, 81, 0
2, 494336, Note_on_c, 0, 79, 73
2, 494396, Note_on_c, 0, 79, 0
2, 494400, Note_on_c, 0, 81, 73
2, 494460, Note_on_c, 0, 81, 0
2, 494464, Note_on_c, 0, 79, 73
2, 494524, Note_on_c, 0, 79, 0
2, 494528, Note_on_c, 0, 81, 73
2, 494588, Note_on_c, 0, 81, 0
2, 494592, Note_on_c, 0, 79, 73
2, 494652, Note_on_c, 0, 79, 0
2, 494656, Note_on_c, 0, 81, 73
2, 494716, Note_on_c, 0, 81, 0
2, 494720, Note_on_c, 0, 79, 73
2, 494780, Note_on_c, 0, 79, 0
2, 494784, Note_on_c, 0, 81, 73
2, 494844, Note_on_c, 0, 81, 0
2, 494848, Note_on_c, 0, 79, 73
2, 494908, Note_on_c, 0, 79, 0
2, 494912, Note_on_c, 0, 81, 73
2, 494972, Note_on_c, 0, 81, 0
2, 494976, Note_on_c, 0, 79, 73
2, 495036, Note_on_c, 0, 79, 0
2, 495040, Note_on_c, 0, 81, 73
2, 495100, Note_on_c, 0, 81, 0
2, 495104, Note_on_c, 0, 79, 73
2, 495164, Note_on_c, 0, 79, 0
2, 495168, Note_on_c, 0, 81, 73
2, 495228, Note_on_c, 0, 81, 0
2, 495232, Note_on_c, 0, 79, 73
2, 495292, Note_on_c, 0, 79, 0
2, 495296, Note_on_c, 0, 81, 73
2, 495356, Note_on_c, 0, 81, 0
2, 495360, Note_on_c, 0, 79, 73
2, 495420, Note_on_c, 0, 79, 0
2, 495424, Note_on_c, 0, 81, 73
2, 495484, Note_on_c, 0, 81, 0
2, 495488, Note_on_c, 0, 79, 73
2, 495548, Note_on_c, 0, 79, 0
2, 495552, Note_on_c, 0, 81, 73
2, 495612, Note_on_c, 0, 81, 0
2, 495616, Note_on_c, 0, 79, 73
2, 495676, Note_on_c, 0, 79, 0
2, 495680, Note_on_c, 0, 81, 73
2, 495740, Note_on_c, 0, 81, 0
2, 495744, Note_on_c, 0, 79, 73
2, 495804, Note_on_c, 0, 79, 0
2, 495808, Note_on_c, 0, 81, 73
2, 495868, Note_on_c, 0, 81, 0
2, 495872, Note_on_c, 0, 79, 73
2, 495932, Note_on_c, 0, 79, 0
2, 495936, Note_on_c, 0, 81, 73
2, 495996, Note_on_c, 0, 81, 0
2, 496000, Note_on_c, 0, 79, 73
2, 496060, Note_on_c, 0, 79, 0
2, 496064, Note_on_c, 0, 78, 73
2, 496124, Note_on_c, 0, 78, 0
2, 496128, Note_on_c, 0, 79, 73
2, 496508, Note_on_c, 0, 79, 0
2, 498432, Note_on_c, 0, 79, 73
2, 498812, Note_on_c, 0, 79, 0
2, 498816, Note_on_c, 0, 77, 73
2, 499196, Note_on_c, 0, 77, 0
2, 501504, Note_on_c, 0, 72, 73
2, 501884, Note_on_c, 0, 72, 0
2, 501888, Note_on_c, 0, 71, 73
2, 502268, Note_on_c, 0, 71, 0
2, 507264, Note_on_c, 0, 79, 90
2, 508028, Note_on_c, 0, 79, 0
2, 508032, Note_on_c, 0, 83, 90
2, 508108, Note_on_c, 0, 83, 0
2, 508108, Note_on_c, 0, 84, 90
2, 508184, Note_on_c, 0, 84, 0
2, 508184, Note_on_c, 0, 83, 90
2, 508260, Note_on_c, 0, 83, 0
2, 508260, Note_on_c, 0, 81, 90
2, 508336, Note_on_c, 0, 81, 0
2, 508336, Note_on_c, 0, 83, 90
2, 508412, Note_on_c, 0, 83, 0
2, 508416, Note_on_c, 0, 84, 90
2, 514748, Note_on_c, 0, 84, 0
2, 514752, Note_on_c, 0, 79, 99
2, 514940, Note_on_c, 0, 79, 0
2, 514944, Note_on_c, 0, 79, 99
2, 515708, Note_on_c, 0, 79, 0
2, 515712, Note_on_c, 0, 77, 99
2, 515900, Note_on_c, 0, 77, 0
2, 515904, Note_on_c, 0, 76, 99
2, 516092, Note_on_c, 0, 76, 0
2, 516096, Note_on_c, 0, 76, 99
2, 516284, Note_on_c, 0, 76, 0
2, 516288, Note_on_c, 0, 74, 99
2, 516476, Note_on_c, 0, 74, 0
2, 516480, Note_on_c, 0, 72, 99
2, 517244, Note_on_c, 0, 72, 0
2, 517248, Note_on_c, 0, 71, 99
2, 517628, Note_on_c, 0, 71, 0
2, 517632, Note_on_c, 0, 72, 99
2, 518012, Note_on_c, 0, 72, 0
2, 521088, Note_on_c, 0, 72, 80
2, 521180, Note_on_c, 0, 72, 0
2, 521280, Note_on_c, 0, 72, 80
2, 521372, Note_on_c, 0, 72, 0
2, 521472, Note_on_c, 0, 71, 80
2, 521664, Note_on_c, 0, 71, 0
2, 521664, Note_on_c, 0, 74, 80
2, 521848, Note_on_c, 0, 74, 0
2, 521856, Note_on_c, 0, 77, 80
2, 521948, Note_on_c, 0, 77, 0
2, 522048, Note_on_c, 0, 77, 80
2, 522140, Note_on_c, 0, 77, 0
2, 522240, Note_on_c, 0, 72, 90
2, 522432, Note_on_c, 0, 72, 0
2, 522432, Note_on_c, 0, 76, 90
2, 522616, Note_on_c, 0, 76, 0
2, 522624, Note_on_c, 0, 79, 90
2, 522716, Note_on_c, 0, 79, 0
2, 522816, Note_on_c, 0, 79, 90
2, 522908, Note_on_c, 0, 79, 0
2, 523008, Note_on_c, 0, 74, 90
2, 523200, Note_on_c, 0, 74, 0
2, 523200, Note_on_c, 0, 79, 90
2, 523384, Note_on_c, 0, 79, 0
2, 523392, Note_on_c, 0, 83, 90
2, 523484, Note_on_c, 0, 83, 0
2, 523584, Note_on_c, 0, 83, 90
2, 523676, Note_on_c, 0, 83, 0
2, 523776, Note_on_c, 0, 84, 99
2, 524156, Note_on_c, 0, 84, 0
2, 524160, Note_on_c, 0, 72, 99
2, 524252, Note_on_c, 0, 72, 0
2, 524352, Note_on_c, 0, 72, 99
2, 524444, Note_on_c, 0, 72, 0
2, 524544, Note_on_c, 0, 71, 99
2, 524736, Note_on_c, 0, 71, 0
2, 524736, Note_on_c, 0, 74, 99
2, 524920, Note_on_c, 0, 74, 0
2, 524928, Note_on_c, 0, 77, 99
2, 525020, Note_on_c, 0, 77, 0
2, 525120, Note_on_c, 0, 77, 99
2, 525212, Note_on_c, 0, 77, 0
2, 525312, Note_on_c, 0, 72, 99
2, 525504, Note_on_c, 0, 72, 0
2, 525504, Note_on_c, 0, 76, 99
2, 525688, Note_on_c, 0, 76, 0
2, 525696, Note_on_c, 0, 79, 99
2, 525788, Note_on_c, 0, 79, 0
2, 525888, Note_on_c, 0, 79, 99
2, 525980, Note_on_c, 0, 79, 0
2, 526080, Note_on_c, 0, 74, 99
2, 526272, Note_on_c, 0, 74, 0
2, 526272, Note_on_c, 0, 79, 99
2, 526456, Note_on_c, 0, 79, 0
2, 526464, Note_on_c, 0, 83, 99
2, 526556, Note_on_c, 0, 83, 0
2, 526656, Note_on_c, 0, 83, 99
2, 526748, Note_on_c, 0, 83, 0
2, 526848, Note_on_c, 0, 84, 108
2, 527228, Note_on_c, 0, 84, 0
2, 542208, Note_on_c, 0, 72, 90
2, 542396, Note_on_c, 0, 72, 0
2, 542592, Note_on_c, 0, 84, 99
2, 543356, Note_on_c, 0, 84, 0
2, 543360, Note_on_c, 0, 83, 90
2, 543452, Note_on_c, 0, 83, 0
2, 543552, Note_on_c, 0, 81, 90
2, 543644, Note_on_c, 0, 81, 0
2, 543744, Note_on_c, 0, 81, 90
2, 543936, Note_on_c, 0, 81, 0
2, 543936, Note_on_c, 0, 79, 90
2, 544120, Note_on_c, 0, 79, 0
2, 544128, Note_on_c, 0, 77, 90
2, 544220, Note_on_c, 0, 77, 0
2, 544320, Note_on_c, 0, 76, 90
2, 544412, Note_on_c, 0, 76, 0
2, 544512, Note_on_c, 0, 76, 90
2, 544704, Note_on_c, 0, 76, 0
2, 544704, Note_on_c, 0, 74, 90
2, 544888, Note_on_c, 0, 74, 0
2, 544896, Note_on_c, 0, 72, 90
2, 544988, Note_on_c, 0, 72, 0
2, 545088, Note_on_c, 0, 71, 90
2, 545180, Note_on_c, 0, 71, 0
2, 545280, Note_on_c, 0, 72, 99
2, 545468, Note_on_c, 0, 72, 0
2, 545664, Note_on_c, 0, 84, 105
2, 546428, Note_on_c, 0, 84, 0
2, 546432, Note_on_c, 0, 83, 99
2, 546524, Note_on_c, 0, 83, 0
2, 546624, Note_on_c, 0, 81, 99
2, 546716, Note_on_c, 0, 81, 0
2, 546816, Note_on_c, 0, 81, 99
2, 547008, Note_on_c, 0, 81, 0
2, 547008, Note_on_c, 0, 79, 99
2, 547192, Note_on_c, 0, 79, 0
2, 547200, Note_on_c, 0, 77, 99
2, 547292, Note_on_c, 0, 77, 0
2, 547392, Note_on_c, 0, 76, 99
2, 547484, Note_on_c, 0, 76, 0
2, 547584, Note_on_c, 0, 76, 99
2, 547776, Note_on_c, 0, 76, 0
2, 547776, Note_on_c, 0, 74, 99
2, 547960, Note_on_c, 0, 74, 0
2, 547968, Note_on_c, 0, 72, 99
2, 548060, Note_on_c, 0, 72, 0
2, 548160, Note_on_c, 0, 71, 99
2, 548252, Note_on_c, 0, 71, 0
2, 548352, Note_on_c, 0, 72, 99
2, 548732, Note_on_c, 0, 72, 0
2, 554496, Note_on_c, 0, 84, 99
2, 555040, Note_on_c, 0, 84, 0
2, 555088, Note_on_c, 0, 79, 99
2, 555248, Note_on_c, 0, 79, 0
2, 555264, Note_on_c, 0, 83, 99
2, 555324, Note_on_c, 0, 83, 0
2, 555328, Note_on_c, 0, 84, 99
2, 555388, Note_on_c, 0, 84, 0
2, 555392, Note_on_c, 0, 83, 99
2, 555452, Note_on_c, 0, 83, 0
2, 555456, Note_on_c, 0, 84, 99
2, 555516, Note_on_c, 0, 84, 0
2, 555520, Note_on_c, 0, 83, 99
2, 555580, Note_on_c, 0, 83, 0
2, 555584, Note_on_c, 0, 84, 99
2, 555644, Note_on_c, 0, 84, 0
2, 555648, Note_on_c, 0, 83, 99
2, 555708, Note_on_c, 0, 83, 0
2, 555712, Note_on_c, 0, 84, 99
2, 555772, Note_on_c, 0, 84, 0
2, 555776, Note_on_c, 0, 83, 99
2, 555836, Note_on_c, 0, 83, 0
2, 555840, Note_on_c, 0, 84, 99
2, 555900, Note_on_c, 0, 84, 0
2, 555904, Note_on_c, 0, 81, 99
2, 555964, Note_on_c, 0, 81, 0
2, 555968, Note_on_c, 0, 83, 99
2, 556028, Note_on_c, 0, 83, 0
2, 556032, Note_on_c, 0, 84, 99
2, 556412, Note_on_c, 0, 84, 0
2, 566784, Note_on_c, 0, 72, 73
2, 567548, Note_on_c, 0, 72, 0
2, 567552, Note_on_c, 0, 71, 73
2, 568316, Note_on_c, 0, 71, 0
2, 568320, Note_on_c, 0, 72, 73
2, 568700, Note_on_c, 0, 72, 0
2, 568704, Note_on_c, 0, 67, 73
2, 568796, Note_on_c, 0, 67, 0
2, 568896, Note_on_c, 0, 64, 73
2, 568988, Note_on_c, 0, 64, 0
2, 569088, Note_on_c, 0, 60, 73
2, 569468, Note_on_c, 0, 60, 0
2, 569856, Note_on_c, 0, 72, 73
2, 570044, Note_on_c, 0, 72, 0
2, 570048, Note_on_c, 0, 71, 73
2, 570236, Note_on_c, 0, 71, 0
2, 570240, Note_on_c, 0, 72, 73
2, 570428, Note_on_c, 0, 72, 0
2, 570432, Note_on_c, 0, 71, 73
2, 570620, Note_on_c, 0, 71, 0
2, 570624, Note_on_c, 0, 72, 73
2, 571004, Note_on_c, 0, 72, 0
2, 571392, Note_on_c, 0, 84, 73
2, 571580, Note_on_c, 0, 84, 0
2, 571584, Note_on_c, 0, 83, 73
2, 571772, Note_on_c, 0, 83, 0
2, 571776, Note_on_c, 0, 84, 73
2, 571964, Note_on_c, 0, 84, 0
2, 571968, Note_on_c, 0, 83, 73
2, 572156, Note_on_c, 0, 83, 0
2, 572160, Note_on_c, 0, 84, 73
2, 572540, Note_on_c, 0, 84, 0
2, 572928, Note_on_c, 0, 79, 73
2, 575228, Note_on_c, 0, 79, 0
2, 575232, Note_on_c, 0, 71, 73
2, 575996, Note_on_c, 0, 71, 0
2, 576000, Note_on_c, 0, 72, 73
2, 576380, Note_on_c, 0, 72, 0
2, 576384, Note_on_c, 0, 76, 73
2, 576764, Note_on_c, 0, 76, 0
2, 576768, Note_on_c, 0, 77, 73
2, 576956, Note_on_c, 0, 77, 0
2, 576960, Note_on_c, 0, 76, 73
2, 577148, Note_on_c, 0, 76, 0
2, 577152, Note_on_c, 0, 74, 73
2, 577340, Note_on_c, 0, 74, 0
2, 577344, Note_on_c, 0, 72, 73
2, 577532, Note_on_c, 0, 72, 0
2, 577536, Note_on_c, 0, 72, 73
2, 577916, Note_on_c, 0, 72, 0
2, 577920, Note_on_c, 0, 71, 73
2, 578300, Note_on_c, 0, 71, 0
2, 578304, Note_on_c, 0, 76, 73
2, 578492, Note_on_c, 0, 76, 0
2, 578688, Note_on_c, 0, 76, 73
2, 578876, Note_on_c, 0, 76, 0
2, 579072, Note_on_c, 0, 76, 73
2, 579836, Note_on_c, 0, 76, 0
2, 579840, Note_on_c, 0, 79, 73
2, 580032, Note_on_c, 0, 79, 0
2, 580032, Note_on_c, 0, 77, 73
2, 580216, Note_on_c, 0, 77, 0
2, 580224, Note_on_c, 0, 76, 73
2, 580316, Note_on_c, 0, 76, 0
2, 580416, Note_on_c, 0, 77, 73
2, 580508, Note_on_c, 0, 77, 0
2, 580608, Note_on_c, 0, 79, 73
2, 580800, Note_on_c, 0, 79, 0
2, 580800, Note_on_c, 0, 76, 73
2, 580984, Note_on_c, 0, 76, 0
2, 580992, Note_on_c, 0, 72, 73
2, 581180, Note_on_c, 0, 72, 0
2, 581376, Note_on_c, 0, 84, 73
2, 581948, Note_on_c, 0, 84, 0
2, 581952, Note_on_c, 0, 83, 73
2, 582140, Note_on_c, 0, 83, 0
2, 582144, Note_on_c, 0, 83, 73
2, 582332, Note_on_c, 0, 83, 0
2, 582336, Note_on_c, 0, 81, 73
2, 582524, Note_on_c, 0, 81, 0
2, 582528, Note_on_c, 0, 79, 73
2, 582908, Note_on_c, 0, 79, 0
2, 582912, Note_on_c, 0, 84, 73
2, 583484, Note_on_c, 0, 84, 0
2, 583488, Note_on_c, 0, 83, 73
2, 583676, Note_on_c, 0, 83, 0
2, 583680, Note_on_c, 0, 83, 73
2, 583868, Note_on_c, 0, 83, 0
2, 583872, Note_on_c, 0, 81, 73
2, 584060, Note_on_c, 0, 81, 0
2, 584064, Note_on_c, 0, 79, 73
2, 584436, Note_on_c, 0, 79, 0
2, 584448, Note_on_c, 0, 72, 90
2, 584820, Note_on_c, 0, 72, 0
2, 584832, Note_on_c, 0, 72, 90
2, 585212, Note_on_c, 0, 72, 0
2, 585216, Note_on_c, 0, 72, 90
2, 585980, Note_on_c, 0, 72, 0
2, 585984, Note_on_c, 0, 76, 90
2, 586176, Note_on_c, 0, 76, 0
2, 586176, Note_on_c, 0, 74, 90
2, 586360, Note_on_c, 0, 74, 0
2, 586368, Note_on_c, 0, 72, 90
2, 586460, Note_on_c, 0, 72, 0
2, 586560, Note_on_c, 0, 74, 90
2, 586652, Note_on_c, 0, 74, 0
2, 586752, Note_on_c, 0, 76, 90
2, 586940, Note_on_c, 0, 76, 0
2, 587136, Note_on_c, 0, 76, 90
2, 587324, Note_on_c, 0, 76, 0
2, 587520, Note_on_c, 0, 79, 90
2, 587712, Note_on_c, 0, 79, 0
2, 587712, Note_on_c, 0, 77, 90
2, 587896, Note_on_c, 0, 77, 0
2, 587904, Note_on_c, 0, 76, 90
2, 587996, Note_on_c, 0, 76, 0
2, 588096, Note_on_c, 0, 77, 90
2, 588188, Note_on_c, 0, 77, 0
2, 588288, Note_on_c, 0, 79, 90
2, 588480, Note_on_c, 0, 79, 0
2, 588480, Note_on_c, 0, 76, 90
2, 588664, Note_on_c, 0, 76, 0
2, 588672, Note_on_c, 0, 79, 90
2, 588764, Note_on_c, 0, 79, 0
2, 588864, Note_on_c, 0, 76, 90
2, 588956, Note_on_c, 0, 76, 0
2, 589056, Note_on_c, 0, 79, 90
2, 589248, Note_on_c, 0, 79, 0
2, 589248, Note_on_c, 0, 77, 90
2, 589432, Note_on_c, 0, 77, 0
2, 589440, Note_on_c, 0, 76, 90
2, 589532, Note_on_c, 0, 76, 0
2, 589632, Note_on_c, 0, 74, 90
2, 589724, Note_on_c, 0, 74, 0
2, 589824, Note_on_c, 0, 72, 82
2, 590012, Note_on_c, 0, 72, 0
2, 592896, Note_on_c, 0, 79, 73
2, 592960, Note_on_c, 0, 79, 0
2, 592960, Note_on_c, 0, 81, 73
2, 593024, Note_on_c, 0, 81, 0
2, 593024, Note_on_c, 0, 79, 73
2, 593088, Note_on_c, 0, 79, 0
2, 593088, Note_on_c, 0, 81, 73
2, 593152, Note_on_c, 0, 81, 0
2, 593152, Note_on_c, 0, 79, 73
2, 593216, Note_on_c, 0, 79, 0
2, 593216, Note_on_c, 0, 81, 73
2, 593280, Note_on_c, 0, 81, 0
2, 593280, Note_on_c, 0, 79, 73
2, 593344, Note_on_c, 0, 79, 0
2, 593344, Note_on_c, 0, 81, 73
2, 593408, Note_on_c, 0, 81, 0
2, 593408, Note_on_c, 0, 79, 73
2, 593472, Note_on_c, 0, 79, 0
2, 593472, Note_on_c, 0, 81, 73
2, 593536, Note_on_c, 0, 81, 0
2, 593536, Note_on_c, 0, 79, 73
2, 593600, Note_on_c, 0, 79, 0
2, 593600, Note_on_c, 0, 81, 73
2, 593664, Note_on_c, 0, 81, 0
2, 593664, Note_on_c, 0, 79, 73
2, 593728, Note_on_c, 0, 79, 0
2, 593728, Note_on_c, 0, 81, 73
2, 593792, Note_on_c, 0, 81, 0
2, 593792, Note_on_c, 0, 79, 73
2, 593856, Note_on_c, 0, 79, 0
2, 593856, Note_on_c, 0, 81, 73
2, 593920, Note_on_c, 0, 81, 0
2, 593920, Note_on_c, 0, 79, 73
2, 593984, Note_on_c, 0, 79, 0
2, 593984, Note_on_c, 0, 81, 73
2, 594048, Note_on_c, 0, 81, 0
2, 594048, Note_on_c, 0, 79, 73
2, 594112, Note_on_c, 0, 79, 0
2, 594112, Note_on_c, 0, 81, 73
2, 594176, Note_on_c, 0, 81, 0
2, 594176, Note_on_c, 0, 79, 73
2, 594240, Note_on_c, 0, 79, 0
2, 594240, Note_on_c, 0, 81, 73
2, 594304, Note_on_c, 0, 81, 0
2, 594304, Note_on_c, 0, 79, 73
2, 594368, Note_on_c, 0, 79, 0
2, 594368, Note_on_c, 0, 81, 73
2, 594432, Note_on_c, 0, 81, 0
2, 594432, Note_on_c, 0, 79, 73
2, 594496, Note_on_c, 0, 79, 0
2, 594496, Note_on_c, 0, 81, 73
2, 594560, Note_on_c, 0, 81, 0
2, 594560, Note_on_c, 0, 79, 73
2, 594624, Note_on_c, 0, 79, 0
2, 594624, Note_on_c, 0, 81, 73
2, 594688, Note_on_c, 0, 81, 0
2, 594688, Note_on_c, 0, 79, 73
2, 594752, Note_on_c, 0, 79, 0
2, 594752, Note_on_c, 0, 81, 73
2, 594816, Note_on_c, 0, 81, 0
2, 594816, Note_on_c, 0, 79, 73
2, 594880, Note_on_c, 0, 79, 0
2, 594880, Note_on_c, 0, 81, 73
2, 594944, Note_on_c, 0, 81, 0
2, 594944, Note_on_c, 0, 79, 73
2, 595008, Note_on_c, 0, 79, 0
2, 595008, Note_on_c, 0, 81, 73
2, 595072, Note_on_c, 0, 81, 0
2, 595072, Note_on_c, 0, 79, 73
2, 595136, Note_on_c, 0, 79, 0
2, 595136, Note_on_c, 0, 81, 73
2, 595200, Note_on_c, 0, 81, 0
2, 595200, Note_on_c, 0, 79, 73
2, 595264, Note_on_c, 0, 79, 0
2, 595264, Note_on_c, 0, 81, 73
2, 595328, Note_on_c, 0, 81, 0
2, 595328, Note_on_c, 0, 79, 73
2, 595392, Note_on_c, 0, 79, 0
2, 595392, Note_on_c, 0, 81, 73
2, 595456, Note_on_c, 0, 81, 0
2, 595456, Note_on_c, 0, 79, 73
2, 595520, Note_on_c, 0, 79, 0
2, 595520, Note_on_c, 0, 81, 73
2, 595584, Note_on_c, 0, 81, 0
2, 595584, Note_on_c, 0, 79, 73
2, 595648, Note_on_c, 0, 79, 0
2, 595648, Note_on_c, 0, 81, 73
2, 595712, Note_on_c, 0, 81, 0
2, 595712, Note_on_c, 0, 79, 73
2, 595776, Note_on_c, 0, 79, 0
2, 595776, Note_on_c, 0, 81, 73
2, 595840, Note_on_c, 0, 81, 0
2, 595840, Note_on_c, 0, 79, 73
2, 595904, Note_on_c, 0, 79, 0
2, 595904, Note_on_c, 0, 81, 73
2, 595968, Note_on_c, 0, 81, 0
2, 595968, Note_on_c, 0, 79, 73
2, 596032, Note_on_c, 0, 79, 0
2, 596032, Note_on_c, 0, 81, 73
2, 596096, Note_on_c, 0, 81, 0
2, 596096, Note_on_c, 0, 79, 73
2, 596160, Note_on_c, 0, 79, 0
2, 596160, Note_on_c, 0, 81, 73
2, 596224, Note_on_c, 0, 81, 0
2, 596224, Note_on_c, 0, 79, 73
2, 596288, Note_on_c, 0, 79, 0
2, 596288, Note_on_c, 0, 81, 73
2, 596352, Note_on_c, 0, 81, 0
2, 596352, Note_on_c, 0, 79, 73
2, 596416, Note_on_c, 0, 79, 0
2, 596416, Note_on_c, 0, 81, 73
2, 596480, Note_on_c, 0, 81, 0
2, 596480, Note_on_c, 0, 79, 73
2, 596544, Note_on_c, 0, 79, 0
2, 596544, Note_on_c, 0, 81, 73
2, 596608, Note_on_c, 0, 81, 0
2, 596608, Note_on_c, 0, 79, 73
2, 596672, Note_on_c, 0, 79, 0
2, 596672, Note_on_c, 0, 81, 73
2, 596736, Note_on_c, 0, 81, 0
2, 596736, Note_on_c, 0, 79, 73
2, 596800, Note_on_c, 0, 79, 0
2, 596800, Note_on_c, 0, 81, 73
2, 596864, Note_on_c, 0, 81, 0
2, 596864, Note_on_c, 0, 79, 73
2, 596928, Note_on_c, 0, 79, 0
2, 596928, Note_on_c, 0, 81, 73
2, 596992, Note_on_c, 0, 81, 0
2, 596992, Note_on_c, 0, 79, 73
2, 597056, Note_on_c, 0, 79, 0
2, 597056, Note_on_c, 0, 81, 73
2, 597120, Note_on_c, 0, 81, 0
2, 597120, Note_on_c, 0, 79, 73
2, 597184, Note_on_c, 0, 79, 0
2, 597184, Note_on_c, 0, 81, 73
2, 597248, Note_on_c, 0, 81, 0
2, 597248, Note_on_c, 0, 79, 73
2, 597312, Note_on_c, 0, 79, 0
2, 597312, Note_on_c, 0, 81, 73
2, 597376, Note_on_c, 0, 81, 0
2, 597376, Note_on_c, 0, 79, 73
2, 597440, Note_on_c, 0, 79, 0
2, 597440, Note_on_c, 0, 81, 73
2, 597504, Note_on_c, 0, 81, 0
2, 597504, Note_on_c, 0, 79, 73
2, 598076, Note_on_c, 0, 79, 0
2, 598080, Note_on_c, 0, 76, 73
2, 598268, Note_on_c, 0, 76, 0
2, 598272, Note_on_c, 0, 84, 73
2, 598652, Note_on_c, 0, 84, 0
2, 598652, End_track
3, 0, Start_track
3, 0, MIDI_port, 0
3, 0, Title_t, "Flute &"
3, 0, Control_c, 1, 0, 0
3, 0, Control_c, 1, 32, 0
3, 0, Program_c, 1, 48
3, 0, Control_c, 1, 7, 94
3, 0, Control_c, 1, 10, 39
3, 0, Control_c, 1, 91, 63
3, 0, Control_c, 1, 93, 45
3, 0, Control_c, 1, 121, 0
3, 96, Control_c, 1, 10, 43
3, 192, Control_c, 1, 91, 63
3, 240, Control_c, 1, 93, 40
3, 288, Program_c, 1, 48
3, 2304, Note_on_c, 1, 76, 79
3, 2492, Note_on_c, 1, 76, 0
3, 2688, Note_on_c, 1, 76, 79
3, 2876, Note_on_c, 1, 76, 0
3, 3072, Note_on_c, 1, 76, 79
3, 3832, Note_on_c, 1, 76, 0
3, 3840, Note_on_c, 1, 79, 79
3, 4028, Note_on_c, 1, 79, 0
3, 4032, Note_on_c, 1, 77, 79
3, 4220, Note_on_c, 1, 77, 0
3, 4224, Note_on_c, 1, 76, 79
3, 4412, Note_on_c, 1, 76, 0
3, 4416, Note_on_c, 1, 77, 79
3, 4604, Note_on_c, 1, 77, 0
3, 4608, Note_on_c, 1, 79, 79
3, 4796, Note_on_c, 1, 79, 0
3, 4800, Note_on_c, 1, 76, 79
3, 4988, Note_on_c, 1, 76, 0
3, 4992, Note_on_c, 1, 72, 79
3, 5372, Note_on_c, 1, 72, 0
3, 5376, Note_on_c, 1, 84, 79
3, 5948, Note_on_c, 1, 84, 0
3, 5952, Note_on_c, 1, 83, 79
3, 6140, Note_on_c, 1, 83, 0
3, 6144, Note_on_c, 1, 83, 79
3, 6332, Note_on_c, 1, 83, 0
3, 6336, Note_on_c, 1, 81, 79
3, 6524, Note_on_c, 1, 81, 0
3, 6528, Note_on_c, 1, 79, 79
3, 6908, Note_on_c, 1, 79, 0
3, 6912, Note_on_c, 1, 84, 79
3, 7484, Note_on_c, 1, 84, 0
3, 7488, Note_on_c, 1, 83, 79
3, 7676, Note_on_c, 1, 83, 0
3, 7680, Note_on_c, 1, 83, 79
3, 7868, Note_on_c, 1, 83, 0
3, 7872, Note_on_c, 1, 81, 79
3, 8060, Note_on_c, 1, 81, 0
3, 8064, Note_on_c, 1, 79, 79
3, 8444, Note_on_c, 1, 79, 0
3, 8448, Note_on_c, 1, 72, 79
3, 8636, Note_on_c, 1, 72, 0
3, 8832, Note_on_c, 1, 72, 79
3, 9020, Note_on_c, 1, 72, 0
3, 9216, Note_on_c, 1, 72, 79
3, 9980, Note_on_c, 1, 72, 0
3, 9984, Note_on_c, 1, 76, 79
3, 10172, Note_on_c, 1, 76, 0
3, 10176, Note_on_c, 1, 74, 79
3, 10364, Note_on_c, 1, 74, 0
3, 10368, Note_on_c, 1, 72, 79
3, 10556, Note_on_c, 1, 72, 0
3, 10560, Note_on_c, 1, 74, 79
3, 10748, Note_on_c, 1, 74, 0
3, 10752, Note_on_c, 1, 76, 79
3, 10940, Note_on_c, 1, 76, 0
3, 11136, Note_on_c, 1, 76, 79
3, 11324, Note_on_c, 1, 76, 0
3, 11520, Note_on_c, 1, 79, 79
3, 11708, Note_on_c, 1, 79, 0
3, 11712, Note_on_c, 1, 77, 79
3, 11900, Note_on_c, 1, 77, 0
3, 11904, Note_on_c, 1, 76, 79
3, 12092, Note_on_c, 1, 76, 0
3, 12096, Note_on_c, 1, 77, 79
3, 12284, Note_on_c, 1, 77, 0
3, 12288, Note_on_c, 1, 79, 79
3, 12476, Note_on_c, 1, 79, 0
3, 12672, Note_on_c, 1, 79, 79
3, 12860, Note_on_c, 1, 79, 0
3, 13056, Note_on_c, 1, 81, 79
3, 13056, Note_on_c, 1, 77, 79
3, 13244, Note_on_c, 1, 77, 0
3, 13244, Note_on_c, 1, 81, 0
3, 13248, Note_on_c, 1, 79, 79
3, 13248, Note_on_c, 1, 76, 79
3, 13436, Note_on_c, 1, 76, 0
3, 13436, Note_on_c, 1, 79, 0
3, 13440, Note_on_c, 1, 77, 79
3, 13440, Note_on_c, 1, 74, 79
3, 13532, Note_on_c, 1, 74, 0
3, 13532, Note_on_c, 1, 77, 0
3, 13632, Note_on_c, 1, 76, 79
3, 13632, Note_on_c, 1, 72, 79
3, 13724, Note_on_c, 1, 72, 0
3, 13724, Note_on_c, 1, 76, 0
3, 13824, Note_on_c, 1, 76, 79
3, 14204, Note_on_c, 1, 76, 0
3, 14208, Note_on_c, 1, 74, 79
3, 14588, Note_on_c, 1, 74, 0
3, 14592, Note_on_c, 1, 76, 79
3, 14592, Note_on_c, 1, 72, 79
3, 14780, Note_on_c, 1, 72, 0
3, 14780, Note_on_c, 1, 76, 0
3, 14976, Note_on_c, 1, 76, 79
3, 14976, Note_on_c, 1, 72, 79
3, 15164, Note_on_c, 1, 72, 0
3, 15164, Note_on_c, 1, 76, 0
3, 15360, Note_on_c, 1, 76, 79
3, 15360, Note_on_c, 1, 72, 79
3, 16124, Note_on_c, 1, 72, 0
3, 16124, Note_on_c, 1, 76, 0
3, 16128, Note_on_c, 1, 79, 79
3, 16128, Note_on_c, 1, 76, 79
3, 16316, Note_on_c, 1, 76, 0
3, 16316, Note_on_c, 1, 79, 0
3, 16320, Note_on_c, 1, 77, 79
3, 16320, Note_on_c, 1, 74, 79
3, 16508, Note_on_c, 1, 74, 0
3, 16508, Note_on_c, 1, 77, 0
3, 16512, Note_on_c, 1, 76, 79
3, 16512, Note_on_c, 1, 72, 79
3, 16700, Note_on_c, 1, 72, 0
3, 16700, Note_on_c, 1, 76, 0
3, 16704, Note_on_c, 1, 77, 79
3, 16704, Note_on_c, 1, 74, 79
3, 16892, Note_on_c, 1, 74, 0
3, 16892, Note_on_c, 1, 77, 0
3, 16896, Note_on_c, 1, 79, 79
3, 16896, Note_on_c, 1, 76, 79
3, 17084, Note_on_c, 1, 76, 0
3, 17084, Note_on_c, 1, 79, 0
3, 17088, Note_on_c, 1, 76, 79
3, 17276, Note_on_c, 1, 76, 0
3, 17280, Note_on_c, 1, 72, 79
3, 17648, Note_on_c, 1, 84, 79
3, 17660, Note_on_c, 1, 72, 0
3, 17664, Note_on_c, 1, 76, 79
3, 18220, Note_on_c, 1, 84, 0
3, 18236, Note_on_c, 1, 76, 0
3, 18240, Note_on_c, 1, 83, 79
3, 18240, Note_on_c, 1, 79, 79
3, 18428, Note_on_c, 1, 79, 0
3, 18428, Note_on_c, 1, 83, 0
3, 18432, Note_on_c, 1, 83, 79
3, 18432, Note_on_c, 1, 79, 79
3, 18620, Note_on_c, 1, 79, 0
3, 18620, Note_on_c, 1, 83, 0
3, 18624, Note_on_c, 1, 81, 79
3, 18624, Note_on_c, 1, 77, 79
3, 18812, Note_on_c, 1, 77, 0
3, 18812, Note_on_c, 1, 81, 0
3, 18816, Note_on_c, 1, 79, 79
3, 18816, Note_on_c, 1, 76, 79
3, 19196, Note_on_c, 1, 76, 0
3, 19196, Note_on_c, 1, 79, 0
3, 19200, Note_on_c, 1, 84, 79
3, 19200, Note_on_c, 1, 76, 79
3, 19772, Note_on_c, 1, 76, 0
3, 19772, Note_on_c, 1, 84, 0
3, 19776, Note_on_c, 1, 83, 79
3, 19776, Note_on_c, 1, 79, 79
3, 19964, Note_on_c, 1, 79, 0
3, 19964, Note_on_c, 1, 83, 0
3, 19968, Note_on_c, 1, 79, 79
3, 19968, Note_on_c, 1, 83, 79
3, 20156, Note_on_c, 1, 83, 0
3, 20156, Note_on_c, 1, 79, 0
3, 20160, Note_on_c, 1, 81, 79
3, 20160, Note_on_c, 1, 77, 79
3, 20348, Note_on_c, 1, 77, 0
3, 20348, Note_on_c, 1, 81, 0
3, 20352, Note_on_c, 1, 79, 79
3, 20352, Note_on_c, 1, 76, 79
3, 20732, Note_on_c, 1, 76, 0
3, 20732, Note_on_c, 1, 79, 0
3, 20736, Note_on_c, 1, 72, 79
3, 20736, Note_on_c, 1, 64, 79
3, 21116, Note_on_c, 1, 64, 0
3, 21116, Note_on_c, 1, 72, 0
3, 21120, Note_on_c, 1, 72, 79
3, 21500, Note_on_c, 1, 72, 0
3, 21504, Note_on_c, 1, 72, 79
3, 21504, Note_on_c, 1, 64, 79
3, 22268, Note_on_c, 1, 64, 0
3, 22268, Note_on_c, 1, 72, 0
3, 22272, Note_on_c, 1, 76, 79
3, 22272, Note_on_c, 1, 72, 79
3, 22460, Note_on_c, 1, 72, 0
3, 22460, Note_on_c, 1, 76, 0
3, 22464, Note_on_c, 1, 74, 79
3, 22464, Note_on_c, 1, 71, 79
3, 22652, Note_on_c, 1, 71, 0
3, 22652, Note_on_c, 1, 74, 0
3, 22656, Note_on_c, 1, 72, 79
3, 22656, Note_on_c, 1, 69, 79
3, 22844, Note_on_c, 1, 69, 0
3, 22844, Note_on_c, 1, 72, 0
3, 22848, Note_on_c, 1, 74, 79
3, 22848, Note_on_c, 1, 71, 79
3, 23036, Note_on_c, 1, 71, 0
3, 23036, Note_on_c, 1, 74, 0
3, 23040, Note_on_c, 1, 76, 79
3, 23040, Note_on_c, 1, 72, 79
3, 23420, Note_on_c, 1, 72, 0
3, 23420, Note_on_c, 1, 76, 0
3, 23424, Note_on_c, 1, 76, 79
3, 23424, Note_on_c, 1, 72, 79
3, 23804, Note_on_c, 1, 72, 0
3, 23804, Note_on_c, 1, 76, 0
3, 23808, Note_on_c, 1, 79, 79
3, 23808, Note_on_c, 1, 76, 79
3, 23996, Note_on_c, 1, 76, 0
3, 23996, Note_on_c, 1, 79, 0
3, 24000, Note_on_c, 1, 77, 79
3, 24000, Note_on_c, 1, 74, 79
3, 24188, Note_on_c, 1, 74, 0
3, 24188, Note_on_c, 1, 77, 0
3, 24192, Note_on_c, 1, 76, 79
3, 24192, Note_on_c, 1, 72, 79
3, 24380, Note_on_c, 1, 72, 0
3, 24380, Note_on_c, 1, 76, 0
3, 24384, Note_on_c, 1, 77, 79
3, 24384, Note_on_c, 1, 74, 79
3, 24572, Note_on_c, 1, 74, 0
3, 24572, Note_on_c, 1, 77, 0
3, 24576, Note_on_c, 1, 79, 79
3, 24576, Note_on_c, 1, 76, 79
3, 24956, Note_on_c, 1, 76, 0
3, 24956, Note_on_c, 1, 79, 0
3, 24960, Note_on_c, 1, 76, 79
3, 24960, Note_on_c, 1, 72, 79
3, 25340, Note_on_c, 1, 72, 0
3, 25340, Note_on_c, 1, 76, 0
3, 25344, Note_on_c, 1, 79, 79
3, 25344, Note_on_c, 1, 76, 79
3, 25532, Note_on_c, 1, 76, 0
3, 25532, Note_on_c, 1, 79, 0
3, 25536, Note_on_c, 1, 77, 79
3, 25536, Note_on_c, 1, 74, 79
3, 25724, Note_on_c, 1, 74, 0
3, 25724, Note_on_c, 1, 77, 0
3, 25728, Note_on_c, 1, 76, 79
3, 25728, Note_on_c, 1, 72, 79
3, 25916, Note_on_c, 1, 72, 0
3, 25916, Note_on_c, 1, 76, 0
3, 25920, Note_on_c, 1, 74, 79
3, 25920, Note_on_c, 1, 71, 79
3, 26108, Note_on_c, 1, 74, 0
3, 26112, Note_on_c, 1, 72, 103
3, 26116, Note_on_c, 1, 71, 0
3, 26492, Note_on_c, 1, 72, 0
3, 26688, Note_on_c, 1, 84, 103
3, 26876, Note_on_c, 1, 84, 0
3, 26880, Note_on_c, 1, 84, 103
3, 27068, Note_on_c, 1, 84, 0
3, 27072, Note_on_c, 1, 84, 103
3, 27260, Note_on_c, 1, 84, 0
3, 27264, Note_on_c, 1, 84, 103
3, 27452, Note_on_c, 1, 84, 0
3, 27456, Note_on_c, 1, 84, 103
3, 27644, Note_on_c, 1, 84, 0
3, 27648, Note_on_c, 1, 83, 108
3, 27688, Note_on_c, 1, 83, 0
3, 27696, Note_on_c, 1, 84, 103
3, 27816, Note_on_c, 1, 84, 0
3, 27840, Note_on_c, 1, 86, 103
3, 28120, Note_on_c, 1, 86, 0
3, 28224, Note_on_c, 1, 77, 103
3, 28412, Note_on_c, 1, 77, 0
3, 28416, Note_on_c, 1, 77, 103
3, 28604, Note_on_c, 1, 77, 0
3, 28608, Note_on_c, 1, 77, 103
3, 28796, Note_on_c, 1, 77, 0
3, 28800, Note_on_c, 1, 77, 103
3, 28988, Note_on_c, 1, 77, 0
3, 28992, Note_on_c, 1, 77, 103
3, 29180, Note_on_c, 1, 77, 0
3, 29184, Note_on_c, 1, 76, 108
3, 29224, Note_on_c, 1, 76, 0
3, 29232, Note_on_c, 1, 77, 103
3, 29352, Note_on_c, 1, 77, 0
3, 29376, Note_on_c, 1, 79, 103
3, 29656, Note_on_c, 1, 79, 0
3, 29760, Note_on_c, 1, 84, 103
3, 29948, Note_on_c, 1, 84, 0
3, 29952, Note_on_c, 1, 84, 103
3, 30140, Note_on_c, 1, 84, 0
3, 30144, Note_on_c, 1, 84, 103
3, 30332, Note_on_c, 1, 84, 0
3, 30336, Note_on_c, 1, 84, 103
3, 30524, Note_on_c, 1, 84, 0
3, 30528, Note_on_c, 1, 84, 103
3, 30716, Note_on_c, 1, 84, 0
3, 30720, Note_on_c, 1, 83, 108
3, 30760, Note_on_c, 1, 83, 0
3, 30768, Note_on_c, 1, 84, 103
3, 30888, Note_on_c, 1, 84, 0
3, 30912, Note_on_c, 1, 86, 103
3, 31192, Note_on_c, 1, 86, 0
3, 31296, Note_on_c, 1, 77, 103
3, 31484, Note_on_c, 1, 77, 0
3, 31488, Note_on_c, 1, 77, 103
3, 31676, Note_on_c, 1, 77, 0
3, 31680, Note_on_c, 1, 77, 103
3, 31868, Note_on_c, 1, 77, 0
3, 31872, Note_on_c, 1, 77, 103
3, 32060, Note_on_c, 1, 77, 0
3, 32064, Note_on_c, 1, 77, 103
3, 32252, Note_on_c, 1, 77, 0
3, 32256, Note_on_c, 1, 76, 79
3, 32636, Note_on_c, 1, 76, 0
3, 32640, Note_on_c, 1, 76, 103
3, 33404, Note_on_c, 1, 76, 0
3, 33408, Note_on_c, 1, 76, 79
3, 33788, Note_on_c, 1, 76, 0
3, 33792, Note_on_c, 1, 81, 79
3, 34172, Note_on_c, 1, 81, 0
3, 34176, Note_on_c, 1, 79, 79
3, 34556, Note_on_c, 1, 79, 0
3, 34560, Note_on_c, 1, 77, 79
3, 34940, Note_on_c, 1, 77, 0
3, 34944, Note_on_c, 1, 76, 79
3, 35324, Note_on_c, 1, 76, 0
3, 35328, Note_on_c, 1, 74, 79
3, 35708, Note_on_c, 1, 74, 0
3, 35712, Note_on_c, 1, 77, 103
3, 36476, Note_on_c, 1, 77, 0
3, 36480, Note_on_c, 1, 76, 79
3, 36860, Note_on_c, 1, 76, 0
3, 36864, Note_on_c, 1, 81, 79
3, 37244, Note_on_c, 1, 81, 0
3, 37248, Note_on_c, 1, 79, 79
3, 37628, Note_on_c, 1, 79, 0
3, 37632, Note_on_c, 1, 77, 79
3, 38012, Note_on_c, 1, 77, 0
3, 38016, Note_on_c, 1, 76, 79
3, 38396, Note_on_c, 1, 76, 0
3, 38400, Note_on_c, 1, 74, 79
3, 38780, Note_on_c, 1, 74, 0
3, 39072, Note_on_c, 1, 76, 79
3, 39164, Note_on_c, 1, 76, 0
3, 39168, Note_on_c, 1, 74, 79
3, 39548, Note_on_c, 1, 74, 0
3, 39840, Note_on_c, 1, 76, 79
3, 39932, Note_on_c, 1, 76, 0
3, 39936, Note_on_c, 1, 74, 79
3, 40316, Note_on_c, 1, 74, 0
3, 40608, Note_on_c, 1, 76, 79
3, 40700, Note_on_c, 1, 76, 0
3, 40704, Note_on_c, 1, 74, 79
3, 41084, Note_on_c, 1, 74, 0
3, 41376, Note_on_c, 1, 76, 79
3, 41468, Note_on_c, 1, 76, 0
3, 41472, Note_on_c, 1, 74, 79
3, 41852, Note_on_c, 1, 74, 0
3, 44544, Note_on_c, 1, 79, 79
3, 44544, Note_on_c, 1, 67, 79
3, 45692, Note_on_c, 1, 67, 0
3, 45692, Note_on_c, 1, 79, 0
3, 45696, Note_on_c, 1, 84, 79
3, 45788, Note_on_c, 1, 84, 0
3, 45792, Note_on_c, 1, 76, 79
3, 46076, Note_on_c, 1, 76, 0
3, 46080, Note_on_c, 1, 79, 79
3, 46460, Note_on_c, 1, 79, 0
3, 46464, Note_on_c, 1, 77, 79
3, 46844, Note_on_c, 1, 77, 0
3, 47616, Note_on_c, 1, 76, 79
3, 48764, Note_on_c, 1, 76, 0
3, 48768, Note_on_c, 1, 77, 79
3, 48860, Note_on_c, 1, 77, 0
3, 48864, Note_on_c, 1, 81, 79
3, 49148, Note_on_c, 1, 81, 0
3, 49152, Note_on_c, 1, 72, 79
3, 49532, Note_on_c, 1, 72, 0
3, 49536, Note_on_c, 1, 71, 79
3, 49916, Note_on_c, 1, 71, 0
3, 50688, Note_on_c, 1, 72, 79
3, 51836, Note_on_c, 1, 72, 0
3, 51840, Note_on_c, 1, 74, 79
3, 52028, Note_on_c, 1, 74, 0
3, 52032, Note_on_c, 1, 76, 79
3, 52220, Note_on_c, 1, 76, 0
3, 52224, Note_on_c, 1, 77, 79
3, 53372, Note_on_c, 1, 77, 0
3, 53376, Note_on_c, 1, 79, 79
3, 53564, Note_on_c, 1, 79, 0
3, 53568, Note_on_c, 1, 81, 79
3, 53756, Note_on_c, 1, 81, 0
3, 53760, Note_on_c, 1, 79, 79
3, 54140, Note_on_c, 1, 79, 0
3, 54144, Note_on_c, 1, 72, 79
3, 54524, Note_on_c, 1, 72, 0
3, 54528, Note_on_c, 1, 74, 79
3, 54908, Note_on_c, 1, 74, 0
3, 54912, Note_on_c, 1, 77, 79
3, 55292, Note_on_c, 1, 77, 0
3, 55296, Note_on_c, 1, 75, 79
3, 55676, Note_on_c, 1, 75, 0
3, 55680, Note_on_c, 1, 76, 79
3, 55680, Note_on_c, 1, 79, 79
3, 56060, Note_on_c, 1, 79, 0
3, 56060, Note_on_c, 1, 76, 0
3, 56064, Note_on_c, 1, 79, 79
3, 56252, Note_on_c, 1, 79, 0
3, 56256, Note_on_c, 1, 76, 79
3, 56444, Note_on_c, 1, 76, 0
3, 56448, Note_on_c, 1, 77, 79
3, 56636, Note_on_c, 1, 77, 0
3, 56640, Note_on_c, 1, 74, 79
3, 56828, Note_on_c, 1, 74, 0
3, 56832, Note_on_c, 1, 72, 103
3, 57980, Note_on_c, 1, 72, 0
3, 57984, Note_on_c, 1, 74, 103
3, 58172, Note_on_c, 1, 74, 0
3, 58176, Note_on_c, 1, 76, 103
3, 58364, Note_on_c, 1, 76, 0
3, 58368, Note_on_c, 1, 77, 103
3, 58748, Note_on_c, 1, 77, 0
3, 58752, Note_on_c, 1, 77, 103
3, 59132, Note_on_c, 1, 77, 0
3, 59136, Note_on_c, 1, 77, 103
3, 59516, Note_on_c, 1, 77, 0
3, 59520, Note_on_c, 1, 79, 103
3, 59708, Note_on_c, 1, 79, 0
3, 59712, Note_on_c, 1, 81, 103
3, 59900, Note_on_c, 1, 81, 0
3, 59904, Note_on_c, 1, 79, 103
3, 60092, Note_on_c, 1, 79, 0
3, 60096, Note_on_c, 1, 81, 103
3, 60284, Note_on_c, 1, 81, 0
3, 60288, Note_on_c, 1, 83, 103
3, 60476, Note_on_c, 1, 83, 0
3, 60480, Note_on_c, 1, 84, 103
3, 60668, Note_on_c, 1, 84, 0
3, 60672, Note_on_c, 1, 83, 103
3, 60860, Note_on_c, 1, 83, 0
3, 60864, Note_on_c, 1, 84, 103
3, 61052, Note_on_c, 1, 84, 0
3, 61056, Note_on_c, 1, 83, 103
3, 61244, Note_on_c, 1, 83, 0
3, 61248, Note_on_c, 1, 84, 103
3, 61436, Note_on_c, 1, 84, 0
3, 61440, Note_on_c, 1, 80, 103
3, 61628, Note_on_c, 1, 80, 0
3, 61632, Note_on_c, 1, 81, 103
3, 61820, Note_on_c, 1, 81, 0
3, 61824, Note_on_c, 1, 80, 103
3, 62012, Note_on_c, 1, 80, 0
3, 62016, Note_on_c, 1, 81, 103
3, 62204, Note_on_c, 1, 81, 0
3, 62208, Note_on_c, 1, 76, 103
3, 62396, Note_on_c, 1, 76, 0
3, 62400, Note_on_c, 1, 77, 103
3, 62588, Note_on_c, 1, 77, 0
3, 62592, Note_on_c, 1, 76, 103
3, 62780, Note_on_c, 1, 76, 0
3, 62784, Note_on_c, 1, 77, 103
3, 62972, Note_on_c, 1, 77, 0
3, 62976, Note_on_c, 1, 76, 103
3, 63356, Note_on_c, 1, 76, 0
3, 63360, Note_on_c, 1, 79, 103
3, 64124, Note_on_c, 1, 79, 0
3, 64128, Note_on_c, 1, 77, 103
3, 64316, Note_on_c, 1, 77, 0
3, 64320, Note_on_c, 1, 76, 103
3, 64508, Note_on_c, 1, 76, 0
3, 64512, Note_on_c, 1, 76, 103
3, 64700, Note_on_c, 1, 76, 0
3, 64704, Note_on_c, 1, 74, 103
3, 64880, Note_on_c, 1, 72, 103
3, 64892, Note_on_c, 1, 74, 0
3, 65644, Note_on_c, 1, 72, 0
3, 65664, Note_on_c, 1, 71, 103
3, 66044, Note_on_c, 1, 71, 0
3, 66048, Note_on_c, 1, 72, 103
3, 66428, Note_on_c, 1, 72, 0
3, 66432, Note_on_c, 1, 60, 103
3, 66620, Note_on_c, 1, 60, 0
3, 66624, Note_on_c, 1, 60, 103
3, 66812, Note_on_c, 1, 60, 0
3, 66816, Note_on_c, 1, 59, 103
3, 67004, Note_on_c, 1, 59, 0
3, 67008, Note_on_c, 1, 62, 103
3, 67196, Note_on_c, 1, 62, 0
3, 67200, Note_on_c, 1, 65, 103
3, 67388, Note_on_c, 1, 65, 0
3, 67392, Note_on_c, 1, 65, 103
3, 67580, Note_on_c, 1, 65, 0
3, 67584, Note_on_c, 1, 64, 103
3, 67772, Note_on_c, 1, 64, 0
3, 67776, Note_on_c, 1, 67, 103
3, 67964, Note_on_c, 1, 67, 0
3, 67968, Note_on_c, 1, 72, 103
3, 68156, Note_on_c, 1, 72, 0
3, 68160, Note_on_c, 1, 72, 103
3, 68348, Note_on_c, 1, 72, 0
3, 68352, Note_on_c, 1, 71, 103
3, 68540, Note_on_c, 1, 71, 0
3, 68544, Note_on_c, 1, 74, 103
3, 68732, Note_on_c, 1, 74, 0
3, 68736, Note_on_c, 1, 77, 103
3, 68924, Note_on_c, 1, 77, 0
3, 68928, Note_on_c, 1, 77, 103
3, 69116, Note_on_c, 1, 77, 0
3, 69120, Note_on_c, 1, 76, 103
3, 69500, Note_on_c, 1, 76, 0
3, 69504, Note_on_c, 1, 72, 103
3, 69692, Note_on_c, 1, 72, 0
3, 69696, Note_on_c, 1, 72, 103
3, 69884, Note_on_c, 1, 72, 0
3, 69888, Note_on_c, 1, 71, 103
3, 70076, Note_on_c, 1, 71, 0
3, 70080, Note_on_c, 1, 74, 103
3, 70268, Note_on_c, 1, 74, 0
3, 70272, Note_on_c, 1, 77, 103
3, 70460, Note_on_c, 1, 77, 0
3, 70464, Note_on_c, 1, 77, 103
3, 70652, Note_on_c, 1, 77, 0
3, 70656, Note_on_c, 1, 72, 103
3, 70844, Note_on_c, 1, 72, 0
3, 70848, Note_on_c, 1, 76, 103
3, 71036, Note_on_c, 1, 76, 0
3, 71040, Note_on_c, 1, 79, 103
3, 71228, Note_on_c, 1, 79, 0
3, 71232, Note_on_c, 1, 79, 103
3, 71420, Note_on_c, 1, 79, 0
3, 71424, Note_on_c, 1, 74, 103
3, 71612, Note_on_c, 1, 74, 0
3, 71616, Note_on_c, 1, 79, 103
3, 71804, Note_on_c, 1, 79, 0
3, 71808, Note_on_c, 1, 83, 103
3, 71996, Note_on_c, 1, 83, 0
3, 72000, Note_on_c, 1, 83, 103
3, 72188, Note_on_c, 1, 83, 0
3, 72192, Note_on_c, 1, 84, 103
3, 72572, Note_on_c, 1, 84, 0
3, 72576, Note_on_c, 1, 72, 103
3, 72764, Note_on_c, 1, 72, 0
3, 72768, Note_on_c, 1, 72, 103
3, 72956, Note_on_c, 1, 72, 0
3, 72960, Note_on_c, 1, 71, 103
3, 73148, Note_on_c, 1, 71, 0
3, 73152, Note_on_c, 1, 74, 103
3, 73340, Note_on_c, 1, 74, 0
3, 73344, Note_on_c, 1, 77, 103
3, 73532, Note_on_c, 1, 77, 0
3, 73536, Note_on_c, 1, 77, 103
3, 73724, Note_on_c, 1, 77, 0
3, 73728, Note_on_c, 1, 72, 103
3, 73916, Note_on_c, 1, 72, 0
3, 73920, Note_on_c, 1, 76, 103
3, 74108, Note_on_c, 1, 76, 0
3, 74112, Note_on_c, 1, 79, 103
3, 74300, Note_on_c, 1, 79, 0
3, 74304, Note_on_c, 1, 79, 103
3, 74492, Note_on_c, 1, 79, 0
3, 74496, Note_on_c, 1, 74, 103
3, 74684, Note_on_c, 1, 74, 0
3, 74688, Note_on_c, 1, 79, 103
3, 74876, Note_on_c, 1, 79, 0
3, 74880, Note_on_c, 1, 83, 103
3, 75068, Note_on_c, 1, 83, 0
3, 75072, Note_on_c, 1, 83, 103
3, 75260, Note_on_c, 1, 83, 0
3, 75264, Note_on_c, 1, 84, 103
3, 75644, Note_on_c, 1, 84, 0
3, 75920, Note_on_c, 1, 76, 103
3, 75936, Note_on_c, 1, 84, 103
3, 76012, Note_on_c, 1, 76, 0
3, 76028, Note_on_c, 1, 84, 0
3, 76032, Note_on_c, 1, 84, 103
3, 76032, Note_on_c, 1, 76, 103
3, 76412, Note_on_c, 1, 76, 0
3, 76412, Note_on_c, 1, 84, 0
3, 76704, Note_on_c, 1, 84, 103
3, 76704, Note_on_c, 1, 76, 103
3, 76796, Note_on_c, 1, 76, 0
3, 76796, Note_on_c, 1, 84, 0
3, 76800, Note_on_c, 1, 84, 103
3, 76800, Note_on_c, 1, 74, 103
3, 77180, Note_on_c, 1, 74, 0
3, 77180, Note_on_c, 1, 84, 0
3, 77472, Note_on_c, 1, 84, 103
3, 77472, Note_on_c, 1, 74, 103
3, 77564, Note_on_c, 1, 74, 0
3, 77564, Note_on_c, 1, 84, 0
3, 77568, Note_on_c, 1, 83, 103
3, 77568, Note_on_c, 1, 74, 103
3, 77948, Note_on_c, 1, 74, 0
3, 77948, Note_on_c, 1, 83, 0
3, 78240, Note_on_c, 1, 83, 103
3, 78240, Note_on_c, 1, 74, 103
3, 78332, Note_on_c, 1, 74, 0
3, 78332, Note_on_c, 1, 83, 0
3, 78336, Note_on_c, 1, 84, 103
3, 78336, Note_on_c, 1, 76, 103
3, 79100, Note_on_c, 1, 76, 0
3, 79100, Note_on_c, 1, 84, 0
3, 79104, Note_on_c, 1, 60, 103
3, 79292, Note_on_c, 1, 60, 0
3, 79296, Note_on_c, 1, 55, 103
3, 79484, Note_on_c, 1, 55, 0
3, 79488, Note_on_c, 1, 64, 103
3, 79676, Note_on_c, 1, 64, 0
3, 79680, Note_on_c, 1, 64, 103
3, 79868, Note_on_c, 1, 64, 0
3, 79872, Note_on_c, 1, 64, 103
3, 80060, Note_on_c, 1, 64, 0
3, 80064, Note_on_c, 1, 60, 103
3, 80252, Note_on_c, 1, 60, 0
3, 80256, Note_on_c, 1, 67, 103
3, 80444, Note_on_c, 1, 67, 0
3, 80448, Note_on_c, 1, 67, 103
3, 80636, Note_on_c, 1, 67, 0
3, 80640, Note_on_c, 1, 67, 103
3, 80828, Note_on_c, 1, 67, 0
3, 80832, Note_on_c, 1, 64, 103
3, 81020, Note_on_c, 1, 64, 0
3, 81024, Note_on_c, 1, 72, 103
3, 81212, Note_on_c, 1, 72, 0
3, 81216, Note_on_c, 1, 72, 103
3, 81404, Note_on_c, 1, 72, 0
3, 81408, Note_on_c, 1, 72, 103
3, 81408, Note_on_c, 1, 67, 103
3, 81408, Note_on_c, 1, 64, 103
3, 82940, Note_on_c, 1, 64, 0
3, 82940, Note_on_c, 1, 67, 0
3, 82940, Note_on_c, 1, 72, 0
3, 82944, Note_on_c, 1, 74, 103
3, 82944, Note_on_c, 1, 71, 103
3, 82944, Note_on_c, 1, 67, 103
3, 84476, Note_on_c, 1, 67, 0
3, 84476, Note_on_c, 1, 71, 0
3, 84476, Note_on_c, 1, 74, 0
3, 84480, Note_on_c, 1, 76, 79
3, 84480, Note_on_c, 1, 72, 79
3, 84668, Note_on_c, 1, 76, 0
3, 84672, Note_on_c, 1, 79, 79
3, 84860, Note_on_c, 1, 79, 0
3, 84860, Note_on_c, 1, 72, 0
3, 84864, Note_on_c, 1, 76, 79
3, 84864, Note_on_c, 1, 67, 79
3, 85052, Note_on_c, 1, 76, 0
3, 85056, Note_on_c, 1, 74, 79
3, 85244, Note_on_c, 1, 74, 0
3, 85248, Note_on_c, 1, 72, 79
3, 85628, Note_on_c, 1, 72, 0
3, 85628, Note_on_c, 1, 67, 0
3, 85632, Note_on_c, 1, 74, 79
3, 85632, Note_on_c, 1, 71, 79
3, 86012, Note_on_c, 1, 71, 0
3, 86012, Note_on_c, 1, 74, 0
3, 86016, Note_on_c, 1, 76, 79
3, 86016, Note_on_c, 1, 72, 79
3, 86204, Note_on_c, 1, 76, 0
3, 86208, Note_on_c, 1, 79, 79
3, 86396, Note_on_c, 1, 79, 0
3, 86396, Note_on_c, 1, 72, 0
3, 86400, Note_on_c, 1, 76, 79
3, 86400, Note_on_c, 1, 67, 79
3, 86588, Note_on_c, 1, 76, 0
3, 86592, Note_on_c, 1, 74, 79
3, 86780, Note_on_c, 1, 74, 0
3, 86784, Note_on_c, 1, 72, 79
3, 87164, Note_on_c, 1, 72, 0
3, 87164, Note_on_c, 1, 67, 0
3, 87168, Note_on_c, 1, 74, 79
3, 87168, Note_on_c, 1, 71, 79
3, 87548, Note_on_c, 1, 71, 0
3, 87548, Note_on_c, 1, 74, 0
3, 87552, Note_on_c, 1, 76, 79
3, 87552, Note_on_c, 1, 72, 79
3, 87740, Note_on_c, 1, 76, 0
3, 87744, Note_on_c, 1, 79, 79
3, 87932, Note_on_c, 1, 79, 0
3, 87932, Note_on_c, 1, 72, 0
3, 87936, Note_on_c, 1, 76, 79
3, 87936, Note_on_c, 1, 67, 79
3, 88124, Note_on_c, 1, 76, 0
3, 88128, Note_on_c, 1, 74, 79
3, 88316, Note_on_c, 1, 74, 0
3, 88320, Note_on_c, 1, 72, 79
3, 88576, Note_on_c, 1, 72, 0
3, 88700, Note_on_c, 1, 67, 0
3, 88704, Note_on_c, 1, 76, 79
3, 88704, Note_on_c, 1, 71, 79
3, 88892, Note_on_c, 1, 76, 0
3, 88896, Note_on_c, 1, 74, 79
3, 89084, Note_on_c, 1, 74, 0
3, 89084, Note_on_c, 1, 71, 0
3, 89088, Note_on_c, 1, 79, 79
3, 89088, Note_on_c, 1, 72, 79
3, 89468, Note_on_c, 1, 72, 0
3, 89660, Note_on_c, 1, 79, 0
3, 89664, Note_on_c, 1, 76, 79
3, 89852, Note_on_c, 1, 76, 0
3, 89856, Note_on_c, 1, 84, 79
3, 90236, Note_on_c, 1, 84, 0
3, 90624, Note_on_c, 1, 72, 71
3, 90812, Note_on_c, 1, 72, 0
3, 90816, Note_on_c, 1, 71, 71
3, 91004, Note_on_c, 1, 71, 0
3, 91008, Note_on_c, 1, 72, 71
3, 91196, Note_on_c, 1, 72, 0
3, 91200, Note_on_c, 1, 71, 71
3, 91388, Note_on_c, 1, 71, 0
3, 91392, Note_on_c, 1, 72, 71
3, 91772, Note_on_c, 1, 72, 0
3, 91776, Note_on_c, 1, 76, 71
3, 92156, Note_on_c, 1, 76, 0
3, 92160, Note_on_c, 1, 74, 71
3, 92348, Note_on_c, 1, 74, 0
3, 92352, Note_on_c, 1, 72, 71
3, 92540, Note_on_c, 1, 72, 0
3, 92544, Note_on_c, 1, 72, 71
3, 92732, Note_on_c, 1, 72, 0
3, 92736, Note_on_c, 1, 71, 71
3, 92924, Note_on_c, 1, 71, 0
3, 92928, Note_on_c, 1, 72, 71
3, 93308, Note_on_c, 1, 72, 0
3, 93696, Note_on_c, 1, 77, 71
3, 93884, Note_on_c, 1, 77, 0
3, 93888, Note_on_c, 1, 76, 71
3, 94076, Note_on_c, 1, 76, 0
3, 94080, Note_on_c, 1, 77, 71
3, 94268, Note_on_c, 1, 77, 0
3, 94272, Note_on_c, 1, 76, 71
3, 94460, Note_on_c, 1, 76, 0
3, 94464, Note_on_c, 1, 77, 71
3, 94844, Note_on_c, 1, 77, 0
3, 94848, Note_on_c, 1, 81, 71
3, 95228, Note_on_c, 1, 81, 0
3, 95232, Note_on_c, 1, 78, 71
3, 95420, Note_on_c, 1, 78, 0
3, 95424, Note_on_c, 1, 79, 71
3, 95612, Note_on_c, 1, 79, 0
3, 95616, Note_on_c, 1, 79, 71
3, 95804, Note_on_c, 1, 79, 0
3, 95808, Note_on_c, 1, 78, 71
3, 95996, Note_on_c, 1, 78, 0
3, 96000, Note_on_c, 1, 79, 71
3, 96380, Note_on_c, 1, 79, 0
3, 96768, Note_on_c, 1, 84, 71
3, 96956, Note_on_c, 1, 84, 0
3, 96960, Note_on_c, 1, 83, 71
3, 97148, Note_on_c, 1, 83, 0
3, 97152, Note_on_c, 1, 84, 71
3, 97340, Note_on_c, 1, 84, 0
3, 97344, Note_on_c, 1, 83, 71
3, 97532, Note_on_c, 1, 83, 0
3, 97536, Note_on_c, 1, 84, 71
3, 97916, Note_on_c, 1, 84, 0
3, 97920, Note_on_c, 1, 76, 71
3, 98300, Note_on_c, 1, 76, 0
3, 98304, Note_on_c, 1, 79, 71
3, 98492, Note_on_c, 1, 79, 0
3, 98496, Note_on_c, 1, 77, 71
3, 98684, Note_on_c, 1, 77, 0
3, 98688, Note_on_c, 1, 77, 71
3, 98876, Note_on_c, 1, 77, 0
3, 98880, Note_on_c, 1, 74, 71
3, 99068, Note_on_c, 1, 74, 0
3, 99072, Note_on_c, 1, 86, 71
3, 99452, Note_on_c, 1, 86, 0
3, 99648, Note_on_c, 1, 77, 71
3, 99836, Note_on_c, 1, 77, 0
3, 99840, Note_on_c, 1, 76, 71
3, 100028, Note_on_c, 1, 76, 0
3, 100032, Note_on_c, 1, 79, 71
3, 100220, Note_on_c, 1, 79, 0
3, 100224, Note_on_c, 1, 72, 71
3, 100412, Note_on_c, 1, 72, 0
3, 100416, Note_on_c, 1, 76, 71
3, 100604, Note_on_c, 1, 76, 0
3, 100608, Note_on_c, 1, 74, 71
3, 100796, Note_on_c, 1, 74, 0
3, 100800, Note_on_c, 1, 77, 71
3, 100988, Note_on_c, 1, 77, 0
3, 100992, Note_on_c, 1, 71, 71
3, 101180, Note_on_c, 1, 71, 0
3, 101184, Note_on_c, 1, 74, 71
3, 101372, Note_on_c, 1, 74, 0
3, 101376, Note_on_c, 1, 72, 71
3, 101564, Note_on_c, 1, 72, 0
3, 101568, Note_on_c, 1, 76, 71
3, 101756, Note_on_c, 1, 76, 0
3, 101760, Note_on_c, 1, 67, 71
3, 101948, Note_on_c, 1, 67, 0
3, 101952, Note_on_c, 1, 72, 71
3, 102140, Note_on_c, 1, 72, 0
3, 102144, Note_on_c, 1, 64, 71
3, 102332, Note_on_c, 1, 64, 0
3, 102336, Note_on_c, 1, 67, 71
3, 102524, Note_on_c, 1, 67, 0
3, 102528, Note_on_c, 1, 65, 71
3, 102716, Note_on_c, 1, 65, 0
3, 102720, Note_on_c, 1, 62, 71
3, 102908, Note_on_c, 1, 62, 0
3, 118272, Note_on_c, 1, 72, 103
3, 118652, Note_on_c, 1, 72, 0
3, 118656, Note_on_c, 1, 72, 103
3, 118656, Note_on_c, 1, 64, 103
3, 118844, Note_on_c, 1, 64, 0
3, 118844, Note_on_c, 1, 72, 0
3, 118848, Note_on_c, 1, 72, 103
3, 118848, Note_on_c, 1, 64, 103
3, 119036, Note_on_c, 1, 64, 0
3, 119036, Note_on_c, 1, 72, 0
3, 119040, Note_on_c, 1, 72, 103
3, 119040, Note_on_c, 1, 64, 103
3, 119420, Note_on_c, 1, 64, 0
3, 119420, Note_on_c, 1, 72, 0
3, 119424, Note_on_c, 1, 72, 103
3, 119424, Note_on_c, 1, 64, 103
3, 119804, Note_on_c, 1, 64, 0
3, 119804, Note_on_c, 1, 72, 0
3, 119808, Note_on_c, 1, 72, 103
3, 119808, Note_on_c, 1, 64, 103
3, 120188, Note_on_c, 1, 64, 0
3, 120188, Note_on_c, 1, 72, 0
3, 120192, Note_on_c, 1, 76, 103
3, 120192, Note_on_c, 1, 72, 103
3, 120380, Note_on_c, 1, 72, 0
3, 120380, Note_on_c, 1, 76, 0
3, 120384, Note_on_c, 1, 76, 103
3, 120384, Note_on_c, 1, 72, 103
3, 120572, Note_on_c, 1, 72, 0
3, 120572, Note_on_c, 1, 76, 0
3, 120576, Note_on_c, 1, 76, 103
3, 120576, Note_on_c, 1, 72, 103
3, 120956, Note_on_c, 1, 72, 0
3, 120956, Note_on_c, 1, 76, 0
3, 120960, Note_on_c, 1, 79, 103
3, 120960, Note_on_c, 1, 76, 103
3, 120960, Note_on_c, 1, 72, 103
3, 121340, Note_on_c, 1, 72, 0
3, 121340, Note_on_c, 1, 76, 0
3, 121340, Note_on_c, 1, 79, 0
3, 121344, Note_on_c, 1, 84, 103
3, 121344, Note_on_c, 1, 79, 103
3, 121344, Note_on_c, 1, 76, 103
3, 121344, Note_on_c, 1, 72, 103
3, 121724, Note_on_c, 1, 72, 0
3, 121724, Note_on_c, 1, 84, 0
3, 121724, Note_on_c, 1, 79, 0
3, 121724, Note_on_c, 1, 76, 0
3, 122880, Note_on_c, 1, 65, 79
3, 123260, Note_on_c, 1, 65, 0
3, 123264, Note_on_c, 1, 65, 79
3, 123644, Note_on_c, 1, 65, 0
3, 123648, Note_on_c, 1, 65, 79
3, 124028, Note_on_c, 1, 65, 0
3, 124032, Note_on_c, 1, 65, 79
3, 124412, Note_on_c, 1, 65, 0
3, 124416, Note_on_c, 1, 64, 79
3, 125948, Note_on_c, 1, 64, 0
3, 125952, Note_on_c, 1, 64, 79
3, 126332, Note_on_c, 1, 64, 0
3, 126336, Note_on_c, 1, 64, 79
3, 126716, Note_on_c, 1, 64, 0
3, 126720, Note_on_c, 1, 62, 79
3, 127100, Note_on_c, 1, 62, 0
3, 127104, Note_on_c, 1, 62, 79
3, 127484, Note_on_c, 1, 62, 0
3, 127488, Note_on_c, 1, 60, 79
3, 128252, Note_on_c, 1, 60, 0
3, 128256, Note_on_c, 1, 67, 79
3, 129020, Note_on_c, 1, 67, 0
3, 129024, Note_on_c, 1, 65, 79
3, 129212, Note_on_c, 1, 65, 0
3, 129216, Note_on_c, 1, 60, 79
3, 129404, Note_on_c, 1, 60, 0
3, 129408, Note_on_c, 1, 65, 79
3, 129596, Note_on_c, 1, 65, 0
3, 129600, Note_on_c, 1, 60, 79
3, 129788, Note_on_c, 1, 60, 0
3, 129792, Note_on_c, 1, 65, 79
3, 129980, Note_on_c, 1, 65, 0
3, 129984, Note_on_c, 1, 60, 79
3, 130172, Note_on_c, 1, 60, 0
3, 130176, Note_on_c, 1, 65, 79
3, 130364, Note_on_c, 1, 65, 0
3, 130368, Note_on_c, 1, 60, 79
3, 130556, Note_on_c, 1, 60, 0
3, 130560, Note_on_c, 1, 64, 79
3, 132092, Note_on_c, 1, 64, 0
3, 134016, Note_on_c, 1, 72, 79
3, 134780, Note_on_c, 1, 72, 0
3, 134784, Note_on_c, 1, 72, 79
3, 135536, Note_on_c, 1, 72, 79
3, 135548, Note_on_c, 1, 72, 0
3, 136300, Note_on_c, 1, 72, 0
3, 136320, Note_on_c, 1, 72, 79
3, 136700, Note_on_c, 1, 72, 0
3, 136704, Note_on_c, 1, 77, 79
3, 137084, Note_on_c, 1, 77, 0
3, 137088, Note_on_c, 1, 76, 79
3, 137468, Note_on_c, 1, 76, 0
3, 137472, Note_on_c, 1, 74, 79
3, 137852, Note_on_c, 1, 74, 0
3, 137856, Note_on_c, 1, 72, 79
3, 138236, Note_on_c, 1, 72, 0
3, 138240, Note_on_c, 1, 76, 79
3, 138524, Note_on_c, 1, 76, 0
3, 138816, Note_on_c, 1, 72, 79
3, 139004, Note_on_c, 1, 72, 0
3, 139008, Note_on_c, 1, 71, 79
3, 139388, Note_on_c, 1, 71, 0
3, 139776, Note_on_c, 1, 71, 71
3, 139964, Note_on_c, 1, 71, 0
3, 139968, Note_on_c, 1, 67, 71
3, 140156, Note_on_c, 1, 67, 0
3, 140160, Note_on_c, 1, 62, 71
3, 140348, Note_on_c, 1, 62, 0
3, 140352, Note_on_c, 1, 60, 71
3, 140540, Note_on_c, 1, 60, 0
3, 140544, Note_on_c, 1, 59, 71
3, 140732, Note_on_c, 1, 59, 0
3, 140736, Note_on_c, 1, 62, 71
3, 140924, Note_on_c, 1, 62, 0
3, 140928, Note_on_c, 1, 67, 71
3, 141116, Note_on_c, 1, 67, 0
3, 141120, Note_on_c, 1, 69, 71
3, 141308, Note_on_c, 1, 69, 0
3, 141312, Note_on_c, 1, 71, 71
3, 141500, Note_on_c, 1, 71, 0
3, 141504, Note_on_c, 1, 67, 71
3, 141692, Note_on_c, 1, 67, 0
3, 141696, Note_on_c, 1, 62, 71
3, 141884, Note_on_c, 1, 62, 0
3, 141888, Note_on_c, 1, 60, 71
3, 142076, Note_on_c, 1, 60, 0
3, 142080, Note_on_c, 1, 59, 71
3, 142268, Note_on_c, 1, 59, 0
3, 142272, Note_on_c, 1, 62, 71
3, 142460, Note_on_c, 1, 62, 0
3, 142464, Note_on_c, 1, 67, 71
3, 142652, Note_on_c, 1, 67, 0
3, 142656, Note_on_c, 1, 69, 71
3, 142844, Note_on_c, 1, 69, 0
3, 142848, Note_on_c, 1, 71, 71
3, 143036, Note_on_c, 1, 71, 0
3, 143040, Note_on_c, 1, 64, 72
3, 143228, Note_on_c, 1, 64, 0
3, 143232, Note_on_c, 1, 68, 73
3, 143420, Note_on_c, 1, 68, 0
3, 143424, Note_on_c, 1, 71, 74
3, 143612, Note_on_c, 1, 71, 0
3, 143616, Note_on_c, 1, 74, 75
3, 143804, Note_on_c, 1, 74, 0
3, 143808, Note_on_c, 1, 68, 76
3, 143996, Note_on_c, 1, 68, 0
3, 144000, Note_on_c, 1, 71, 77
3, 144188, Note_on_c, 1, 71, 0
3, 144192, Note_on_c, 1, 74, 78
3, 144380, Note_on_c, 1, 74, 0
3, 144384, Note_on_c, 1, 80, 79
3, 144572, Note_on_c, 1, 80, 0
3, 144576, Note_on_c, 1, 71, 80
3, 144764, Note_on_c, 1, 71, 0
3, 144768, Note_on_c, 1, 74, 81
3, 144956, Note_on_c, 1, 74, 0
3, 144960, Note_on_c, 1, 80, 82
3, 145148, Note_on_c, 1, 80, 0
3, 145152, Note_on_c, 1, 83, 83
3, 145340, Note_on_c, 1, 83, 0
3, 145920, Note_on_c, 1, 69, 71
3, 146108, Note_on_c, 1, 69, 0
3, 146112, Note_on_c, 1, 64, 71
3, 146300, Note_on_c, 1, 64, 0
3, 146304, Note_on_c, 1, 60, 71
3, 146492, Note_on_c, 1, 60, 0
3, 146496, Note_on_c, 1, 59, 71
3, 146684, Note_on_c, 1, 59, 0
3, 146688, Note_on_c, 1, 57, 71
3, 146876, Note_on_c, 1, 57, 0
3, 146880, Note_on_c, 1, 59, 71
3, 147068, Note_on_c, 1, 59, 0
3, 147072, Note_on_c, 1, 64, 71
3, 147260, Note_on_c, 1, 64, 0
3, 147264, Note_on_c, 1, 68, 71
3, 147452, Note_on_c, 1, 68, 0
3, 147456, Note_on_c, 1, 69, 71
3, 147644, Note_on_c, 1, 69, 0
3, 147648, Note_on_c, 1, 64, 71
3, 147836, Note_on_c, 1, 64, 0
3, 147840, Note_on_c, 1, 60, 71
3, 148028, Note_on_c, 1, 60, 0
3, 148032, Note_on_c, 1, 59, 71
3, 148220, Note_on_c, 1, 59, 0
3, 148224, Note_on_c, 1, 57, 71
3, 148412, Note_on_c, 1, 57, 0
3, 148416, Note_on_c, 1, 60, 71
3, 148604, Note_on_c, 1, 60, 0
3, 148608, Note_on_c, 1, 64, 71
3, 148796, Note_on_c, 1, 64, 0
3, 148800, Note_on_c, 1, 67, 71
3, 148988, Note_on_c, 1, 67, 0
3, 148992, Note_on_c, 1, 66, 71
3, 149180, Note_on_c, 1, 66, 0
3, 149184, Note_on_c, 1, 62, 71
3, 149372, Note_on_c, 1, 62, 0
3, 149376, Note_on_c, 1, 66, 71
3, 149564, Note_on_c, 1, 66, 0
3, 149568, Note_on_c, 1, 69, 71
3, 149756, Note_on_c, 1, 69, 0
3, 149760, Note_on_c, 1, 72, 71
3, 149948, Note_on_c, 1, 72, 0
3, 149952, Note_on_c, 1, 66, 71
3, 150140, Note_on_c, 1, 66, 0
3, 150144, Note_on_c, 1, 69, 71
3, 150332, Note_on_c, 1, 69, 0
3, 150336, Note_on_c, 1, 72, 71
3, 150524, Note_on_c, 1, 72, 0
3, 150528, Note_on_c, 1, 78, 71
3, 150716, Note_on_c, 1, 78, 0
3, 150720, Note_on_c, 1, 69, 71
3, 150908, Note_on_c, 1, 69, 0
3, 150912, Note_on_c, 1, 72, 71
3, 151100, Note_on_c, 1, 72, 0
3, 151104, Note_on_c, 1, 78, 71
3, 151292, Note_on_c, 1, 78, 0
3, 151296, Note_on_c, 1, 81, 71
3, 151484, Note_on_c, 1, 81, 0
3, 152256, Note_on_c, 1, 71, 92
3, 152444, Note_on_c, 1, 71, 0
3, 152448, Note_on_c, 1, 74, 92
3, 152636, Note_on_c, 1, 74, 0
3, 152640, Note_on_c, 1, 79, 92
3, 152828, Note_on_c, 1, 79, 0
3, 152832, Note_on_c, 1, 78, 92
3, 153020, Note_on_c, 1, 78, 0
3, 153024, Note_on_c, 1, 74, 92
3, 153212, Note_on_c, 1, 74, 0
3, 153216, Note_on_c, 1, 81, 92
3, 153404, Note_on_c, 1, 81, 0
3, 153408, Note_on_c, 1, 78, 92
3, 153596, Note_on_c, 1, 78, 0
3, 153600, Note_on_c, 1, 79, 92
3, 153788, Note_on_c, 1, 79, 0
3, 153792, Note_on_c, 1, 74, 92
3, 153980, Note_on_c, 1, 74, 0
3, 153984, Note_on_c, 1, 83, 92
3, 154172, Note_on_c, 1, 83, 0
3, 154176, Note_on_c, 1, 79, 92
3, 154364, Note_on_c, 1, 79, 0
3, 154368, Note_on_c, 1, 81, 92
3, 154556, Note_on_c, 1, 81, 0
3, 154560, Note_on_c, 1, 74, 92
3, 154748, Note_on_c, 1, 74, 0
3, 154752, Note_on_c, 1, 84, 92
3, 154940, Note_on_c, 1, 84, 0
3, 154944, Note_on_c, 1, 81, 92
3, 155132, Note_on_c, 1, 81, 0
3, 155136, Note_on_c, 1, 83, 92
3, 155324, Note_on_c, 1, 83, 0
3, 155328, Note_on_c, 1, 74, 92
3, 155516, Note_on_c, 1, 74, 0
3, 155520, Note_on_c, 1, 86, 92
3, 155708, Note_on_c, 1, 86, 0
3, 155712, Note_on_c, 1, 83, 92
3, 155900, Note_on_c, 1, 83, 0
3, 155904, Note_on_c, 1, 78, 92
3, 156092, Note_on_c, 1, 78, 0
3, 156096, Note_on_c, 1, 74, 92
3, 156284, Note_on_c, 1, 74, 0
3, 156288, Note_on_c, 1, 81, 92
3, 156476, Note_on_c, 1, 81, 0
3, 156480, Note_on_c, 1, 78, 92
3, 156668, Note_on_c, 1, 78, 0
3, 156672, Note_on_c, 1, 79, 92
3, 156860, Note_on_c, 1, 79, 0
3, 156864, Note_on_c, 1, 74, 92
3, 157052, Note_on_c, 1, 74, 0
3, 157056, Note_on_c, 1, 83, 92
3, 157244, Note_on_c, 1, 83, 0
3, 157248, Note_on_c, 1, 79, 92
3, 157436, Note_on_c, 1, 79, 0
3, 157440, Note_on_c, 1, 81, 92
3, 157628, Note_on_c, 1, 81, 0
3, 157632, Note_on_c, 1, 74, 92
3, 157820, Note_on_c, 1, 74, 0
3, 157824, Note_on_c, 1, 84, 92
3, 158012, Note_on_c, 1, 84, 0
3, 158016, Note_on_c, 1, 81, 92
3, 158204, Note_on_c, 1, 81, 0
3, 158208, Note_on_c, 1, 83, 92
3, 158396, Note_on_c, 1, 83, 0
3, 158400, Note_on_c, 1, 74, 92
3, 158588, Note_on_c, 1, 74, 0
3, 158592, Note_on_c, 1, 86, 92
3, 158780, Note_on_c, 1, 86, 0
3, 158784, Note_on_c, 1, 83, 92
3, 158972, Note_on_c, 1, 83, 0
3, 158976, Note_on_c, 1, 76, 92
3, 159164, Note_on_c, 1, 76, 0
3, 159168, Note_on_c, 1, 80, 92
3, 159356, Note_on_c, 1, 80, 0
3, 159360, Note_on_c, 1, 81, 92
3, 159548, Note_on_c, 1, 81, 0
3, 159552, Note_on_c, 1, 84, 92
3, 159740, Note_on_c, 1, 84, 0
3, 159744, Note_on_c, 1, 74, 92
3, 159932, Note_on_c, 1, 74, 0
3, 159936, Note_on_c, 1, 78, 92
3, 160124, Note_on_c, 1, 78, 0
3, 160128, Note_on_c, 1, 79, 92
3, 160316, Note_on_c, 1, 79, 0
3, 160320, Note_on_c, 1, 83, 92
3, 160508, Note_on_c, 1, 83, 0
3, 160512, Note_on_c, 1, 72, 92
3, 160700, Note_on_c, 1, 72, 0
3, 160704, Note_on_c, 1, 76, 92
3, 160892, Note_on_c, 1, 76, 0
3, 160896, Note_on_c, 1, 78, 92
3, 161084, Note_on_c, 1, 78, 0
3, 161088, Note_on_c, 1, 81, 92
3, 161276, Note_on_c, 1, 81, 0
3, 161280, Note_on_c, 1, 71, 92
3, 161468, Note_on_c, 1, 71, 0
3, 161472, Note_on_c, 1, 75, 92
3, 161660, Note_on_c, 1, 75, 0
3, 161664, Note_on_c, 1, 76, 92
3, 161852, Note_on_c, 1, 76, 0
3, 161856, Note_on_c, 1, 79, 92
3, 162044, Note_on_c, 1, 79, 0
3, 162048, Note_on_c, 1, 69, 92
3, 162236, Note_on_c, 1, 69, 0
3, 162240, Note_on_c, 1, 73, 92
3, 162428, Note_on_c, 1, 73, 0
3, 162432, Note_on_c, 1, 74, 92
3, 162620, Note_on_c, 1, 74, 0
3, 162624, Note_on_c, 1, 78, 92
3, 162812, Note_on_c, 1, 78, 0
3, 162816, Note_on_c, 1, 67, 92
3, 163004, Note_on_c, 1, 67, 0
3, 163008, Note_on_c, 1, 69, 92
3, 163196, Note_on_c, 1, 69, 0
3, 163200, Note_on_c, 1, 73, 92
3, 163388, Note_on_c, 1, 73, 0
3, 163392, Note_on_c, 1, 76, 92
3, 163580, Note_on_c, 1, 76, 0
3, 163584, Note_on_c, 1, 79, 92
3, 163772, Note_on_c, 1, 79, 0
3, 163776, Note_on_c, 1, 76, 92
3, 163964, Note_on_c, 1, 76, 0
3, 163968, Note_on_c, 1, 73, 92
3, 164156, Note_on_c, 1, 73, 0
3, 164160, Note_on_c, 1, 67, 92
3, 164348, Note_on_c, 1, 67, 0
3, 164352, Note_on_c, 1, 66, 92
3, 164540, Note_on_c, 1, 66, 0
3, 164544, Note_on_c, 1, 69, 92
3, 164732, Note_on_c, 1, 69, 0
3, 164736, Note_on_c, 1, 74, 92
3, 164924, Note_on_c, 1, 74, 0
3, 164928, Note_on_c, 1, 78, 92
3, 165116, Note_on_c, 1, 78, 0
3, 165120, Note_on_c, 1, 81, 92
3, 165308, Note_on_c, 1, 81, 0
3, 165312, Note_on_c, 1, 78, 92
3, 165500, Note_on_c, 1, 78, 0
3, 165504, Note_on_c, 1, 74, 92
3, 165692, Note_on_c, 1, 74, 0
3, 165696, Note_on_c, 1, 69, 92
3, 165884, Note_on_c, 1, 69, 0
3, 165888, Note_on_c, 1, 67, 92
3, 166076, Note_on_c, 1, 67, 0
3, 166080, Note_on_c, 1, 69, 92
3, 166268, Note_on_c, 1, 69, 0
3, 166272, Note_on_c, 1, 73, 92
3, 166460, Note_on_c, 1, 73, 0
3, 166464, Note_on_c, 1, 76, 92
3, 166652, Note_on_c, 1, 76, 0
3, 166656, Note_on_c, 1, 79, 92
3, 166844, Note_on_c, 1, 79, 0
3, 166848, Note_on_c, 1, 76, 92
3, 167036, Note_on_c, 1, 76, 0
3, 167040, Note_on_c, 1, 73, 92
3, 167228, Note_on_c, 1, 73, 0
3, 167232, Note_on_c, 1, 67, 92
3, 167420, Note_on_c, 1, 67, 0
3, 167424, Note_on_c, 1, 66, 92
3, 167612, Note_on_c, 1, 66, 0
3, 167616, Note_on_c, 1, 62, 92
3, 167804, Note_on_c, 1, 62, 0
3, 167808, Note_on_c, 1, 66, 92
3, 167996, Note_on_c, 1, 66, 0
3, 168000, Note_on_c, 1, 69, 92
3, 168188, Note_on_c, 1, 69, 0
3, 168192, Note_on_c, 1, 74, 92
3, 168380, Note_on_c, 1, 74, 0
3, 168384, Note_on_c, 1, 73, 92
3, 168572, Note_on_c, 1, 73, 0
3, 168576, Note_on_c, 1, 74, 92
3, 168764, Note_on_c, 1, 74, 0
3, 168768, Note_on_c, 1, 73, 92
3, 168956, Note_on_c, 1, 73, 0
3, 168960, Note_on_c, 1, 74, 92
3, 169148, Note_on_c, 1, 74, 0
3, 169152, Note_on_c, 1, 74, 92
3, 169340, Note_on_c, 1, 74, 0
3, 169344, Note_on_c, 1, 78, 92
3, 169532, Note_on_c, 1, 78, 0
3, 169536, Note_on_c, 1, 81, 92
3, 169724, Note_on_c, 1, 81, 0
3, 169728, Note_on_c, 1, 86, 92
3, 169916, Note_on_c, 1, 86, 0
3, 169920, Note_on_c, 1, 85, 92
3, 170108, Note_on_c, 1, 85, 0
3, 170112, Note_on_c, 1, 86, 92
3, 170300, Note_on_c, 1, 86, 0
3, 170304, Note_on_c, 1, 85, 92
3, 170492, Note_on_c, 1, 85, 0
3, 170496, Note_on_c, 1, 86, 103
3, 170684, Note_on_c, 1, 86, 0
3, 170688, Note_on_c, 1, 73, 103
3, 170876, Note_on_c, 1, 73, 0
3, 170880, Note_on_c, 1, 74, 103
3, 171068, Note_on_c, 1, 74, 0
3, 171072, Note_on_c, 1, 76, 103
3, 171260, Note_on_c, 1, 76, 0
3, 171264, Note_on_c, 1, 72, 103
3, 171452, Note_on_c, 1, 72, 0
3, 171456, Note_on_c, 1, 71, 103
3, 171644, Note_on_c, 1, 71, 0
3, 171648, Note_on_c, 1, 72, 103
3, 171836, Note_on_c, 1, 72, 0
3, 171840, Note_on_c, 1, 74, 103
3, 172028, Note_on_c, 1, 74, 0
3, 172032, Note_on_c, 1, 71, 103
3, 172220, Note_on_c, 1, 71, 0
3, 172224, Note_on_c, 1, 70, 103
3, 172412, Note_on_c, 1, 70, 0
3, 172416, Note_on_c, 1, 71, 103
3, 172604, Note_on_c, 1, 71, 0
3, 172608, Note_on_c, 1, 72, 103
3, 172796, Note_on_c, 1, 72, 0
3, 172800, Note_on_c, 1, 69, 103
3, 172988, Note_on_c, 1, 69, 0
3, 172992, Note_on_c, 1, 68, 103
3, 173180, Note_on_c, 1, 68, 0
3, 173184, Note_on_c, 1, 69, 103
3, 173372, Note_on_c, 1, 69, 0
3, 173376, Note_on_c, 1, 71, 103
3, 173564, Note_on_c, 1, 71, 0
3, 173568, Note_on_c, 1, 67, 103
3, 173948, Note_on_c, 1, 67, 0
3, 175104, Note_on_c, 1, 66, 96
3, 175104, Note_on_c, 1, 62, 96
3, 175104, Note_on_c, 1, 60, 96
3, 175868, Note_on_c, 1, 60, 0
3, 175868, Note_on_c, 1, 62, 0
3, 175868, Note_on_c, 1, 66, 0
3, 175872, Note_on_c, 1, 67, 96
3, 175872, Note_on_c, 1, 62, 96
3, 175872, Note_on_c, 1, 59, 96
3, 176252, Note_on_c, 1, 59, 0
3, 176252, Note_on_c, 1, 62, 0
3, 176252, Note_on_c, 1, 67, 0
3, 176640, Note_on_c, 1, 66, 96
3, 176640, Note_on_c, 1, 62, 96
3, 176640, Note_on_c, 1, 60, 96
3, 177404, Note_on_c, 1, 60, 0
3, 177404, Note_on_c, 1, 62, 0
3, 177404, Note_on_c, 1, 66, 0
3, 177408, Note_on_c, 1, 67, 96
3, 177408, Note_on_c, 1, 62, 96
3, 177408, Note_on_c, 1, 59, 96
3, 177788, Note_on_c, 1, 59, 0
3, 177788, Note_on_c, 1, 62, 0
3, 177788, Note_on_c, 1, 67, 0
3, 177792, Note_on_c, 1, 72, 96
3, 177792, Note_on_c, 1, 67, 96
3, 178172, Note_on_c, 1, 67, 0
3, 178172, Note_on_c, 1, 72, 0
3, 178176, Note_on_c, 1, 71, 96
3, 178176, Note_on_c, 1, 67, 96
3, 178368, Note_on_c, 1, 74, 96
3, 178556, Note_on_c, 1, 74, 0
3, 178560, Note_on_c, 1, 73, 96
3, 178748, Note_on_c, 1, 73, 0
3, 178752, Note_on_c, 1, 74, 96
3, 178940, Note_on_c, 1, 74, 0
3, 178940, Note_on_c, 1, 67, 0
3, 178940, Note_on_c, 1, 71, 0
3, 178944, Note_on_c, 1, 69, 96
3, 178944, Note_on_c, 1, 66, 96
3, 178944, Note_on_c, 1, 73, 96
3, 179132, Note_on_c, 1, 73, 0
3, 179136, Note_on_c, 1, 74, 96
3, 179324, Note_on_c, 1, 74, 0
3, 179324, Note_on_c, 1, 66, 0
3, 179324, Note_on_c, 1, 69, 0
3, 179328, Note_on_c, 1, 73, 96
3, 179516, Note_on_c, 1, 73, 0
3, 179520, Note_on_c, 1, 74, 96
3, 179708, Note_on_c, 1, 74, 0
3, 179712, Note_on_c, 1, 62, 96
3, 181248, Note_on_c, 1, 59, 96
3, 182012, Note_on_c, 1, 59, 0
3, 182016, Note_on_c, 1, 60, 96
3, 182396, Note_on_c, 1, 60, 0
3, 182784, Note_on_c, 1, 71, 96
3, 183548, Note_on_c, 1, 71, 0
3, 183552, Note_on_c, 1, 72, 96
3, 183932, Note_on_c, 1, 72, 0
3, 183936, Note_on_c, 1, 74, 96
3, 183936, Note_on_c, 1, 66, 96
3, 184316, Note_on_c, 1, 66, 0
3, 184316, Note_on_c, 1, 74, 0
3, 184316, Note_on_c, 1, 62, 0
3, 184320, Note_on_c, 1, 72, 96
3, 184320, Note_on_c, 1, 69, 96
3, 184512, Note_on_c, 1, 79, 96
3, 184700, Note_on_c, 1, 79, 0
3, 184704, Note_on_c, 1, 78, 96
3, 184892, Note_on_c, 1, 78, 0
3, 184896, Note_on_c, 1, 79, 96
3, 185084, Note_on_c, 1, 79, 0
3, 185084, Note_on_c, 1, 69, 0
3, 185084, Note_on_c, 1, 72, 0
3, 185088, Note_on_c, 1, 71, 96
3, 185088, Note_on_c, 1, 67, 96
3, 185088, Note_on_c, 1, 78, 96
3, 185276, Note_on_c, 1, 78, 0
3, 185280, Note_on_c, 1, 79, 96
3, 185468, Note_on_c, 1, 79, 0
3, 185468, Note_on_c, 1, 67, 0
3, 185468, Note_on_c, 1, 71, 0
3, 185472, Note_on_c, 1, 78, 96
3, 185660, Note_on_c, 1, 78, 0
3, 185664, Note_on_c, 1, 79, 96
3, 185852, Note_on_c, 1, 79, 0
3, 186240, Note_on_c, 1, 62, 96
3, 186620, Note_on_c, 1, 62, 0
3, 186624, Note_on_c, 1, 74, 96
3, 187004, Note_on_c, 1, 74, 0
3, 187008, Note_on_c, 1, 71, 96
3, 187388, Note_on_c, 1, 71, 0
3, 187392, Note_on_c, 1, 69, 92
3, 187580, Note_on_c, 1, 69, 0
3, 187584, Note_on_c, 1, 68, 92
3, 187772, Note_on_c, 1, 68, 0
3, 187776, Note_on_c, 1, 69, 92
3, 187964, Note_on_c, 1, 69, 0
3, 187968, Note_on_c, 1, 72, 92
3, 188156, Note_on_c, 1, 72, 0
3, 188160, Note_on_c, 1, 76, 92
3, 188348, Note_on_c, 1, 76, 0
3, 188352, Note_on_c, 1, 76, 92
3, 188540, Note_on_c, 1, 76, 0
3, 188544, Note_on_c, 1, 72, 92
3, 188732, Note_on_c, 1, 72, 0
3, 188736, Note_on_c, 1, 69, 92
3, 188924, Note_on_c, 1, 69, 0
3, 188928, Note_on_c, 1, 67, 92
3, 189116, Note_on_c, 1, 67, 0
3, 189120, Note_on_c, 1, 66, 92
3, 189308, Note_on_c, 1, 66, 0
3, 189312, Note_on_c, 1, 67, 92
3, 189500, Note_on_c, 1, 67, 0
3, 189504, Note_on_c, 1, 71, 92
3, 189692, Note_on_c, 1, 71, 0
3, 189696, Note_on_c, 1, 74, 92
3, 189884, Note_on_c, 1, 74, 0
3, 189888, Note_on_c, 1, 74, 92
3, 190076, Note_on_c, 1, 74, 0
3, 190080, Note_on_c, 1, 71, 92
3, 190268, Note_on_c, 1, 71, 0
3, 190272, Note_on_c, 1, 67, 92
3, 190460, Note_on_c, 1, 67, 0
3, 190464, Note_on_c, 1, 72, 92
3, 190652, Note_on_c, 1, 72, 0
3, 190656, Note_on_c, 1, 69, 92
3, 190844, Note_on_c, 1, 69, 0
3, 190848, Note_on_c, 1, 72, 92
3, 191036, Note_on_c, 1, 72, 0
3, 191040, Note_on_c, 1, 69, 92
3, 191228, Note_on_c, 1, 69, 0
3, 191232, Note_on_c, 1, 66, 92
3, 191420, Note_on_c, 1, 66, 0
3, 191424, Note_on_c, 1, 66, 92
3, 191612, Note_on_c, 1, 66, 0
3, 191616, Note_on_c, 1, 67, 92
3, 191804, Note_on_c, 1, 67, 0
3, 191808, Note_on_c, 1, 69, 92
3, 191996, Note_on_c, 1, 69, 0
3, 192000, Note_on_c, 1, 71, 92
3, 192368, Note_on_c, 1, 71, 92
3, 192380, Note_on_c, 1, 71, 0
3, 192384, Note_on_c, 1, 69, 92
3, 192384, Note_on_c, 1, 65, 92
3, 192764, Note_on_c, 1, 65, 0
3, 192764, Note_on_c, 1, 69, 0
3, 192768, Note_on_c, 1, 67, 92
3, 193132, Note_on_c, 1, 71, 0
3, 193148, Note_on_c, 1, 67, 0
3, 193152, Note_on_c, 1, 69, 92
3, 193152, Note_on_c, 1, 65, 92
3, 193152, Note_on_c, 1, 71, 92
3, 193532, Note_on_c, 1, 65, 0
3, 193532, Note_on_c, 1, 69, 0
3, 193536, Note_on_c, 1, 67, 92
3, 193916, Note_on_c, 1, 67, 0
3, 193916, Note_on_c, 1, 71, 0
3, 194304, Note_on_c, 1, 69, 92
3, 194304, Note_on_c, 1, 67, 92
3, 194684, Note_on_c, 1, 67, 0
3, 194684, Note_on_c, 1, 69, 0
3, 195072, Note_on_c, 1, 69, 71
3, 195260, Note_on_c, 1, 69, 0
3, 195264, Note_on_c, 1, 72, 71
3, 195452, Note_on_c, 1, 72, 0
3, 195456, Note_on_c, 1, 71, 71
3, 195644, Note_on_c, 1, 71, 0
3, 195648, Note_on_c, 1, 72, 71
3, 195836, Note_on_c, 1, 72, 0
3, 195840, Note_on_c, 1, 74, 71
3, 196028, Note_on_c, 1, 74, 0
3, 196032, Note_on_c, 1, 72, 71
3, 196220, Note_on_c, 1, 72, 0
3, 196224, Note_on_c, 1, 71, 71
3, 196412, Note_on_c, 1, 71, 0
3, 196416, Note_on_c, 1, 72, 71
3, 196604, Note_on_c, 1, 72, 0
3, 196608, Note_on_c, 1, 71, 101
3, 196796, Note_on_c, 1, 71, 0
3, 196800, Note_on_c, 1, 71, 101
3, 196988, Note_on_c, 1, 71, 0
3, 196992, Note_on_c, 1, 69, 101
3, 197180, Note_on_c, 1, 69, 0
3, 197184, Note_on_c, 1, 67, 101
3, 197372, Note_on_c, 1, 67, 0
3, 197376, Note_on_c, 1, 66, 101
3, 197564, Note_on_c, 1, 66, 0
3, 197568, Note_on_c, 1, 64, 101
3, 197744, Note_on_c, 1, 59, 101
3, 197756, Note_on_c, 1, 64, 0
3, 197932, Note_on_c, 1, 59, 0
3, 197952, Note_on_c, 1, 57, 101
3, 198140, Note_on_c, 1, 57, 0
3, 198144, Note_on_c, 1, 59, 71
3, 198524, Note_on_c, 1, 59, 0
3, 198528, Note_on_c, 1, 67, 71
3, 198908, Note_on_c, 1, 67, 0
3, 198912, Note_on_c, 1, 67, 71
3, 199292, Note_on_c, 1, 67, 0
3, 199296, Note_on_c, 1, 67, 71
3, 199676, Note_on_c, 1, 67, 0
3, 199680, Note_on_c, 1, 69, 71
3, 199680, Note_on_c, 1, 66, 71
3, 200252, Note_on_c, 1, 66, 0
3, 200252, Note_on_c, 1, 69, 0
3, 200256, Note_on_c, 1, 71, 71
3, 200444, Note_on_c, 1, 71, 0
3, 200448, Note_on_c, 1, 67, 71
3, 200828, Note_on_c, 1, 67, 0
3, 200832, Note_on_c, 1, 67, 71
3, 201212, Note_on_c, 1, 67, 0
3, 201216, Note_on_c, 1, 66, 71
3, 201216, Note_on_c, 1, 69, 71
3, 201788, Note_on_c, 1, 69, 0
3, 201788, Note_on_c, 1, 66, 0
3, 201792, Note_on_c, 1, 71, 71
3, 201980, Note_on_c, 1, 71, 0
3, 201984, Note_on_c, 1, 67, 71
3, 202364, Note_on_c, 1, 67, 0
3, 202368, Note_on_c, 1, 67, 71
3, 202748, Note_on_c, 1, 67, 0
3, 202752, Note_on_c, 1, 71, 71
3, 202752, Note_on_c, 1, 67, 71
3, 203516, Note_on_c, 1, 67, 0
3, 203516, Note_on_c, 1, 71, 0
3, 203520, Note_on_c, 1, 69, 71
3, 203520, Note_on_c, 1, 66, 71
3, 203900, Note_on_c, 1, 66, 0
3, 203900, Note_on_c, 1, 69, 0
3, 204672, Note_on_c, 1, 66, 71
3, 204672, Note_on_c, 1, 69, 71
3, 205052, Note_on_c, 1, 69, 0
3, 205052, Note_on_c, 1, 66, 0
3, 205056, Note_on_c, 1, 66, 71
3, 205056, Note_on_c, 1, 69, 71
3, 205436, Note_on_c, 1, 69, 0
3, 205436, Note_on_c, 1, 66, 0
3, 205440, Note_on_c, 1, 66, 71
3, 205440, Note_on_c, 1, 69, 71
3, 205820, Note_on_c, 1, 69, 0
3, 205820, Note_on_c, 1, 66, 0
3, 205824, Note_on_c, 1, 71, 71
3, 205824, Note_on_c, 1, 67, 71
3, 206396, Note_on_c, 1, 67, 0
3, 206396, Note_on_c, 1, 71, 0
3, 206400, Note_on_c, 1, 72, 71
3, 206400, Note_on_c, 1, 69, 71
3, 206588, Note_on_c, 1, 69, 0
3, 206588, Note_on_c, 1, 72, 0
3, 206592, Note_on_c, 1, 69, 71
3, 206592, Note_on_c, 1, 66, 71
3, 206972, Note_on_c, 1, 66, 0
3, 206972, Note_on_c, 1, 69, 0
3, 206976, Note_on_c, 1, 69, 71
3, 206976, Note_on_c, 1, 66, 71
3, 207356, Note_on_c, 1, 66, 0
3, 207356, Note_on_c, 1, 69, 0
3, 207360, Note_on_c, 1, 71, 71
3, 207360, Note_on_c, 1, 67, 71
3, 207932, Note_on_c, 1, 67, 0
3, 207932, Note_on_c, 1, 71, 0
3, 207936, Note_on_c, 1, 72, 71
3, 207936, Note_on_c, 1, 69, 71
3, 208124, Note_on_c, 1, 69, 0
3, 208124, Note_on_c, 1, 72, 0
3, 208128, Note_on_c, 1, 69, 71
3, 208128, Note_on_c, 1, 66, 71
3, 208508, Note_on_c, 1, 66, 0
3, 208508, Note_on_c, 1, 69, 0
3, 208512, Note_on_c, 1, 74, 71
3, 208512, Note_on_c, 1, 69, 71
3, 208892, Note_on_c, 1, 69, 0
3, 208892, Note_on_c, 1, 74, 0
3, 208896, Note_on_c, 1, 72, 71
3, 208896, Note_on_c, 1, 69, 71
3, 209660, Note_on_c, 1, 69, 0
3, 209660, Note_on_c, 1, 72, 0
3, 209664, Note_on_c, 1, 71, 71
3, 209664, Note_on_c, 1, 67, 71
3, 210044, Note_on_c, 1, 67, 0
3, 210044, Note_on_c, 1, 71, 0
3, 210624, Note_on_c, 1, 74, 71
3, 210812, Note_on_c, 1, 74, 0
3, 210816, Note_on_c, 1, 73, 71
3, 211004, Note_on_c, 1, 73, 0
3, 211008, Note_on_c, 1, 74, 71
3, 211196, Note_on_c, 1, 74, 0
3, 211200, Note_on_c, 1, 72, 71
3, 211388, Note_on_c, 1, 72, 0
3, 211392, Note_on_c, 1, 71, 71
3, 211580, Note_on_c, 1, 71, 0
3, 211584, Note_on_c, 1, 69, 71
3, 211772, Note_on_c, 1, 69, 0
3, 211776, Note_on_c, 1, 67, 71
3, 211964, Note_on_c, 1, 67, 0
3, 211968, Note_on_c, 1, 76, 92
3, 212348, Note_on_c, 1, 76, 0
3, 212352, Note_on_c, 1, 76, 92
3, 212540, Note_on_c, 1, 76, 0
3, 212544, Note_on_c, 1, 72, 92
3, 212732, Note_on_c, 1, 72, 0
3, 212736, Note_on_c, 1, 69, 92
3, 213116, Note_on_c, 1, 69, 0
3, 213504, Note_on_c, 1, 74, 92
3, 213884, Note_on_c, 1, 74, 0
3, 213888, Note_on_c, 1, 74, 92
3, 214076, Note_on_c, 1, 74, 0
3, 214080, Note_on_c, 1, 71, 92
3, 214268, Note_on_c, 1, 71, 0
3, 214272, Note_on_c, 1, 67, 92
3, 214652, Note_on_c, 1, 67, 0
3, 215040, Note_on_c, 1, 66, 92
3, 215420, Note_on_c, 1, 66, 0
3, 215424, Note_on_c, 1, 66, 92
3, 215612, Note_on_c, 1, 66, 0
3, 215616, Note_on_c, 1, 69, 92
3, 215804, Note_on_c, 1, 69, 0
3, 215808, Note_on_c, 1, 72, 92
3, 216188, Note_on_c, 1, 72, 0
3, 216768, Note_on_c, 1, 71, 103
3, 216956, Note_on_c, 1, 71, 0
3, 216960, Note_on_c, 1, 72, 103
3, 217148, Note_on_c, 1, 72, 0
3, 217152, Note_on_c, 1, 74, 103
3, 217340, Note_on_c, 1, 74, 0
3, 217344, Note_on_c, 1, 76, 103
3, 217532, Note_on_c, 1, 76, 0
3, 217536, Note_on_c, 1, 78, 103
3, 217724, Note_on_c, 1, 78, 0
3, 217728, Note_on_c, 1, 79, 103
3, 217916, Note_on_c, 1, 79, 0
3, 217920, Note_on_c, 1, 81, 103
3, 218108, Note_on_c, 1, 81, 0
3, 218112, Note_on_c, 1, 83, 103
3, 218112, Note_on_c, 1, 67, 103
3, 218492, Note_on_c, 1, 67, 0
3, 218492, Note_on_c, 1, 83, 0
3, 218496, Note_on_c, 1, 84, 103
3, 218496, Note_on_c, 1, 69, 103
3, 218876, Note_on_c, 1, 69, 0
3, 218876, Note_on_c, 1, 84, 0
3, 218880, Note_on_c, 1, 86, 103
3, 218880, Note_on_c, 1, 71, 103
3, 219260, Note_on_c, 1, 71, 0
3, 219260, Note_on_c, 1, 86, 0
3, 219264, Note_on_c, 1, 72, 103
3, 219280, Note_on_c, 1, 88, 103
3, 219644, Note_on_c, 1, 72, 0
3, 219648, Note_on_c, 1, 62, 103
3, 219648, Note_on_c, 1, 81, 103
3, 219648, Note_on_c, 1, 65, 103
3, 219660, Note_on_c, 1, 88, 0
3, 219708, Note_on_c, 1, 65, 0
3, 219708, Note_on_c, 1, 81, 0
3, 219712, Note_on_c, 1, 83, 103
3, 219712, Note_on_c, 1, 67, 103
3, 219772, Note_on_c, 1, 67, 0
3, 219772, Note_on_c, 1, 83, 0
3, 219776, Note_on_c, 1, 81, 103
3, 219776, Note_on_c, 1, 65, 103
3, 219836, Note_on_c, 1, 65, 0
3, 219836, Note_on_c, 1, 81, 0
3, 219840, Note_on_c, 1, 83, 103
3, 219840, Note_on_c, 1, 67, 103
3, 219900, Note_on_c, 1, 67, 0
3, 219900, Note_on_c, 1, 83, 0
3, 219904, Note_on_c, 1, 81, 103
3, 219904, Note_on_c, 1, 65, 103
3, 219964, Note_on_c, 1, 65, 0
3, 219964, Note_on_c, 1, 81, 0
3, 219968, Note_on_c, 1, 83, 103
3, 219968, Note_on_c, 1, 67, 103
3, 220028, Note_on_c, 1, 67, 0
3, 220028, Note_on_c, 1, 83, 0
3, 220028, Note_on_c, 1, 62, 0
3, 220032, Note_on_c, 1, 81, 103
3, 220032, Note_on_c, 1, 65, 103
3, 220092, Note_on_c, 1, 65, 0
3, 220092, Note_on_c, 1, 81, 0
3, 220096, Note_on_c, 1, 83, 103
3, 220096, Note_on_c, 1, 67, 103
3, 220156, Note_on_c, 1, 67, 0
3, 220156, Note_on_c, 1, 83, 0
3, 220160, Note_on_c, 1, 81, 103
3, 220160, Note_on_c, 1, 65, 103
3, 220220, Note_on_c, 1, 65, 0
3, 220220, Note_on_c, 1, 81, 0
3, 220224, Note_on_c, 1, 83, 103
3, 220224, Note_on_c, 1, 67, 103
3, 220284, Note_on_c, 1, 67, 0
3, 220284, Note_on_c, 1, 83, 0
3, 220288, Note_on_c, 1, 81, 103
3, 220288, Note_on_c, 1, 65, 103
3, 220348, Note_on_c, 1, 65, 0
3, 220348, Note_on_c, 1, 81, 0
3, 220352, Note_on_c, 1, 83, 103
3, 220368, Note_on_c, 1, 67, 103
3, 220412, Note_on_c, 1, 83, 0
3, 220416, Note_on_c, 1, 81, 103
3, 220416, Note_on_c, 1, 65, 103
3, 220428, Note_on_c, 1, 67, 0
3, 220476, Note_on_c, 1, 65, 0
3, 220476, Note_on_c, 1, 81, 0
3, 220480, Note_on_c, 1, 83, 103
3, 220480, Note_on_c, 1, 67, 103
3, 220540, Note_on_c, 1, 67, 0
3, 220540, Note_on_c, 1, 83, 0
3, 220544, Note_on_c, 1, 81, 103
3, 220544, Note_on_c, 1, 65, 103
3, 220604, Note_on_c, 1, 65, 0
3, 220604, Note_on_c, 1, 81, 0
3, 220608, Note_on_c, 1, 83, 103
3, 220608, Note_on_c, 1, 67, 103
3, 220668, Note_on_c, 1, 67, 0
3, 220668, Note_on_c, 1, 83, 0
3, 220672, Note_on_c, 1, 81, 103
3, 220672, Note_on_c, 1, 65, 103
3, 220732, Note_on_c, 1, 65, 0
3, 220732, Note_on_c, 1, 81, 0
3, 220736, Note_on_c, 1, 83, 103
3, 220736, Note_on_c, 1, 67, 103
3, 220796, Note_on_c, 1, 67, 0
3, 220796, Note_on_c, 1, 83, 0
3, 220800, Note_on_c, 1, 81, 103
3, 220800, Note_on_c, 1, 65, 103
3, 220860, Note_on_c, 1, 65, 0
3, 220860, Note_on_c, 1, 81, 0
3, 220864, Note_on_c, 1, 83, 103
3, 220864, Note_on_c, 1, 67, 103
3, 220924, Note_on_c, 1, 67, 0
3, 220924, Note_on_c, 1, 83, 0
3, 220928, Note_on_c, 1, 81, 103
3, 220928, Note_on_c, 1, 65, 103
3, 220988, Note_on_c, 1, 65, 0
3, 220988, Note_on_c, 1, 81, 0
3, 220992, Note_on_c, 1, 79, 103
3, 220992, Note_on_c, 1, 64, 103
3, 221084, Note_on_c, 1, 64, 0
3, 221084, Note_on_c, 1, 79, 0
3, 221088, Note_on_c, 1, 81, 103
3, 221088, Note_on_c, 1, 65, 103
3, 221180, Note_on_c, 1, 65, 0
3, 221180, Note_on_c, 1, 81, 0
3, 221184, Note_on_c, 1, 79, 103
3, 221184, Note_on_c, 1, 67, 103
3, 221564, Note_on_c, 1, 67, 0
3, 221564, Note_on_c, 1, 79, 0
3, 221568, Note_on_c, 1, 67, 92
3, 221756, Note_on_c, 1, 67, 0
3, 221760, Note_on_c, 1, 67, 92
3, 221948, Note_on_c, 1, 67, 0
3, 221952, Note_on_c, 1, 66, 92
3, 222140, Note_on_c, 1, 66, 0
3, 222144, Note_on_c, 1, 69, 92
3, 222332, Note_on_c, 1, 69, 0
3, 222336, Note_on_c, 1, 72, 92
3, 222524, Note_on_c, 1, 72, 0
3, 222528, Note_on_c, 1, 72, 92
3, 222716, Note_on_c, 1, 72, 0
3, 222720, Note_on_c, 1, 71, 92
3, 222908, Note_on_c, 1, 71, 0
3, 222912, Note_on_c, 1, 74, 92
3, 223100, Note_on_c, 1, 74, 0
3, 223104, Note_on_c, 1, 79, 92
3, 223292, Note_on_c, 1, 79, 0
3, 223296, Note_on_c, 1, 79, 92
3, 223484, Note_on_c, 1, 79, 0
3, 223488, Note_on_c, 1, 78, 92
3, 223488, Note_on_c, 1, 66, 92
3, 223676, Note_on_c, 1, 66, 0
3, 223676, Note_on_c, 1, 78, 0
3, 223680, Note_on_c, 1, 81, 92
3, 223680, Note_on_c, 1, 69, 92
3, 223868, Note_on_c, 1, 69, 0
3, 223868, Note_on_c, 1, 81, 0
3, 223872, Note_on_c, 1, 84, 92
3, 223872, Note_on_c, 1, 72, 92
3, 224060, Note_on_c, 1, 72, 0
3, 224060, Note_on_c, 1, 84, 0
3, 224064, Note_on_c, 1, 84, 92
3, 224064, Note_on_c, 1, 72, 92
3, 224252, Note_on_c, 1, 72, 0
3, 224252, Note_on_c, 1, 84, 0
3, 224256, Note_on_c, 1, 83, 92
3, 224256, Note_on_c, 1, 71, 92
3, 224444, Note_on_c, 1, 71, 0
3, 224496, Note_on_c, 1, 74, 92
3, 224540, Note_on_c, 1, 74, 0
3, 224544, Note_on_c, 1, 79, 92
3, 224588, Note_on_c, 1, 79, 0
3, 224592, Note_on_c, 1, 83, 92
3, 224636, Note_on_c, 1, 83, 0
3, 224636, Note_on_c, 1, 83, 0
3, 224640, Note_on_c, 1, 86, 92
3, 225020, Note_on_c, 1, 86, 0
3, 225024, Note_on_c, 1, 69, 92
3, 225264, Note_on_c, 1, 74, 92
3, 225308, Note_on_c, 1, 74, 0
3, 225312, Note_on_c, 1, 78, 92
3, 225356, Note_on_c, 1, 78, 0
3, 225360, Note_on_c, 1, 81, 92
3, 225404, Note_on_c, 1, 81, 0
3, 225404, Note_on_c, 1, 69, 0
3, 225408, Note_on_c, 1, 86, 92
3, 225788, Note_on_c, 1, 86, 0
3, 225792, Note_on_c, 1, 71, 92
3, 226032, Note_on_c, 1, 74, 92
3, 226076, Note_on_c, 1, 74, 0
3, 226080, Note_on_c, 1, 79, 92
3, 226124, Note_on_c, 1, 79, 0
3, 226128, Note_on_c, 1, 83, 92
3, 226172, Note_on_c, 1, 83, 0
3, 226172, Note_on_c, 1, 71, 0
3, 226176, Note_on_c, 1, 86, 92
3, 226556, Note_on_c, 1, 86, 0
3, 226560, Note_on_c, 1, 66, 92
3, 226800, Note_on_c, 1, 74, 92
3, 226844, Note_on_c, 1, 74, 0
3, 226848, Note_on_c, 1, 81, 92
3, 226892, Note_on_c, 1, 81, 0
3, 226896, Note_on_c, 1, 84, 92
3, 226940, Note_on_c, 1, 84, 0
3, 226940, Note_on_c, 1, 66, 0
3, 226944, Note_on_c, 1, 86, 92
3, 227324, Note_on_c, 1, 86, 0
3, 227328, Note_on_c, 1, 67, 92
3, 227568, Note_on_c, 1, 74, 92
3, 227612, Note_on_c, 1, 74, 0
3, 227616, Note_on_c, 1, 79, 92
3, 227660, Note_on_c, 1, 79, 0
3, 227664, Note_on_c, 1, 83, 92
3, 227708, Note_on_c, 1, 83, 0
3, 227708, Note_on_c, 1, 67, 0
3, 227712, Note_on_c, 1, 86, 92
3, 228092, Note_on_c, 1, 86, 0
3, 228096, Note_on_c, 1, 69, 92
3, 228336, Note_on_c, 1, 74, 92
3, 228380, Note_on_c, 1, 74, 0
3, 228384, Note_on_c, 1, 78, 92
3, 228428, Note_on_c, 1, 78, 0
3, 228432, Note_on_c, 1, 81, 92
3, 228476, Note_on_c, 1, 81, 0
3, 228476, Note_on_c, 1, 69, 0
3, 228480, Note_on_c, 1, 86, 92
3, 228860, Note_on_c, 1, 86, 0
3, 228864, Note_on_c, 1, 71, 92
3, 229104, Note_on_c, 1, 74, 92
3, 229148, Note_on_c, 1, 74, 0
3, 229152, Note_on_c, 1, 79, 92
3, 229196, Note_on_c, 1, 79, 0
3, 229200, Note_on_c, 1, 83, 92
3, 229244, Note_on_c, 1, 83, 0
3, 229244, Note_on_c, 1, 71, 0
3, 229248, Note_on_c, 1, 86, 92
3, 229628, Note_on_c, 1, 86, 0
3, 229632, Note_on_c, 1, 66, 92
3, 229872, Note_on_c, 1, 74, 92
3, 229916, Note_on_c, 1, 74, 0
3, 229920, Note_on_c, 1, 81, 92
3, 229964, Note_on_c, 1, 81, 0
3, 229968, Note_on_c, 1, 84, 92
3, 230012, Note_on_c, 1, 84, 0
3, 230012, Note_on_c, 1, 66, 0
3, 230016, Note_on_c, 1, 86, 92
3, 230396, Note_on_c, 1, 86, 0
3, 230528, Note_on_c, 1, 83, 71
3, 230652, Note_on_c, 1, 83, 0
3, 230656, Note_on_c, 1, 84, 71
3, 230780, Note_on_c, 1, 84, 0
3, 230784, Note_on_c, 1, 86, 71
3, 230908, Note_on_c, 1, 86, 0
3, 230912, Note_on_c, 1, 84, 71
3, 231036, Note_on_c, 1, 84, 0
3, 231040, Note_on_c, 1, 83, 71
3, 231164, Note_on_c, 1, 83, 0
3, 231296, Note_on_c, 1, 79, 71
3, 231420, Note_on_c, 1, 79, 0
3, 231424, Note_on_c, 1, 81, 71
3, 231548, Note_on_c, 1, 81, 0
3, 231552, Note_on_c, 1, 83, 71
3, 231676, Note_on_c, 1, 83, 0
3, 231680, Note_on_c, 1, 81, 71
3, 231804, Note_on_c, 1, 81, 0
3, 231808, Note_on_c, 1, 79, 71
3, 231932, Note_on_c, 1, 79, 0
3, 232064, Note_on_c, 1, 76, 71
3, 232188, Note_on_c, 1, 76, 0
3, 232192, Note_on_c, 1, 78, 71
3, 232316, Note_on_c, 1, 78, 0
3, 232320, Note_on_c, 1, 79, 71
3, 232444, Note_on_c, 1, 79, 0
3, 232448, Note_on_c, 1, 78, 71
3, 232572, Note_on_c, 1, 78, 0
3, 232576, Note_on_c, 1, 76, 71
3, 232700, Note_on_c, 1, 76, 0
3, 232832, Note_on_c, 1, 72, 71
3, 232956, Note_on_c, 1, 72, 0
3, 232960, Note_on_c, 1, 74, 71
3, 233084, Note_on_c, 1, 74, 0
3, 233088, Note_on_c, 1, 76, 71
3, 233212, Note_on_c, 1, 76, 0
3, 233216, Note_on_c, 1, 74, 71
3, 233340, Note_on_c, 1, 74, 0
3, 233344, Note_on_c, 1, 72, 71
3, 233468, Note_on_c, 1, 72, 0
3, 233472, Note_on_c, 1, 84, 92
3, 233472, Note_on_c, 1, 81, 92
3, 233472, Note_on_c, 1, 74, 92
3, 234236, Note_on_c, 1, 74, 0
3, 234236, Note_on_c, 1, 81, 0
3, 234236, Note_on_c, 1, 84, 0
3, 234240, Note_on_c, 1, 83, 92
3, 234240, Note_on_c, 1, 79, 92
3, 234240, Note_on_c, 1, 74, 92
3, 234620, Note_on_c, 1, 74, 0
3, 234620, Note_on_c, 1, 79, 0
3, 234620, Note_on_c, 1, 83, 0
3, 234624, Note_on_c, 1, 74, 92
3, 234624, Note_on_c, 1, 71, 92
3, 234624, Note_on_c, 1, 79, 92
3, 235004, Note_on_c, 1, 79, 0
3, 235004, Note_on_c, 1, 71, 0
3, 235004, Note_on_c, 1, 74, 0
3, 235008, Note_on_c, 1, 78, 92
3, 235008, Note_on_c, 1, 74, 92
3, 235008, Note_on_c, 1, 69, 92
3, 235388, Note_on_c, 1, 69, 0
3, 235388, Note_on_c, 1, 74, 0
3, 235388, Note_on_c, 1, 78, 0
3, 235392, Note_on_c, 1, 79, 92
3, 235392, Note_on_c, 1, 74, 92
3, 235392, Note_on_c, 1, 71, 92
3, 235772, Note_on_c, 1, 71, 0
3, 235772, Note_on_c, 1, 74, 0
3, 235772, Note_on_c, 1, 79, 0
3, 235776, Note_on_c, 1, 81, 92
3, 235776, Note_on_c, 1, 76, 92
3, 235776, Note_on_c, 1, 69, 92
3, 236144, Note_on_c, 1, 72, 92
3, 236156, Note_on_c, 1, 69, 0
3, 236156, Note_on_c, 1, 81, 0
3, 236156, Note_on_c, 1, 76, 0
3, 236160, Note_on_c, 1, 78, 92
3, 236160, Note_on_c, 1, 69, 92
3, 236524, Note_on_c, 1, 72, 0
3, 236540, Note_on_c, 1, 69, 0
3, 236540, Note_on_c, 1, 78, 0
3, 239616, Note_on_c, 1, 84, 92
3, 239616, Note_on_c, 1, 81, 92
3, 239616, Note_on_c, 1, 74, 92
3, 240380, Note_on_c, 1, 74, 0
3, 240380, Note_on_c, 1, 81, 0
3, 240380, Note_on_c, 1, 84, 0
3, 240384, Note_on_c, 1, 83, 92
3, 240384, Note_on_c, 1, 79, 92
3, 240384, Note_on_c, 1, 74, 92
3, 240764, Note_on_c, 1, 74, 0
3, 240764, Note_on_c, 1, 79, 0
3, 240764, Note_on_c, 1, 83, 0
3, 240768, Note_on_c, 1, 79, 92
3, 240768, Note_on_c, 1, 74, 92
3, 240768, Note_on_c, 1, 71, 92
3, 241148, Note_on_c, 1, 71, 0
3, 241148, Note_on_c, 1, 74, 0
3, 241148, Note_on_c, 1, 79, 0
3, 241152, Note_on_c, 1, 78, 92
3, 241152, Note_on_c, 1, 74, 92
3, 241152, Note_on_c, 1, 69, 92
3, 241532, Note_on_c, 1, 69, 0
3, 241532, Note_on_c, 1, 74, 0
3, 241532, Note_on_c, 1, 78, 0
3, 241536, Note_on_c, 1, 79, 92
3, 241536, Note_on_c, 1, 74, 92
3, 241536, Note_on_c, 1, 71, 92
3, 241916, Note_on_c, 1, 71, 0
3, 241916, Note_on_c, 1, 74, 0
3, 241916, Note_on_c, 1, 79, 0
3, 241920, Note_on_c, 1, 81, 92
3, 241920, Note_on_c, 1, 76, 92
3, 241920, Note_on_c, 1, 69, 92
3, 242300, Note_on_c, 1, 69, 0
3, 242300, Note_on_c, 1, 76, 0
3, 242300, Note_on_c, 1, 81, 0
3, 242304, Note_on_c, 1, 78, 92
3, 242304, Note_on_c, 1, 72, 92
3, 242304, Note_on_c, 1, 69, 92
3, 242684, Note_on_c, 1, 69, 0
3, 242684, Note_on_c, 1, 72, 0
3, 242684, Note_on_c, 1, 78, 0
3, 242688, Note_on_c, 1, 81, 92
3, 242688, Note_on_c, 1, 84, 92
3, 242688, Note_on_c, 1, 74, 92
3, 243452, Note_on_c, 1, 74, 0
3, 243452, Note_on_c, 1, 84, 0
3, 243452, Note_on_c, 1, 81, 0
3, 243456, Note_on_c, 1, 83, 92
3, 243456, Note_on_c, 1, 79, 92
3, 243456, Note_on_c, 1, 74, 92
3, 243836, Note_on_c, 1, 74, 0
3, 243836, Note_on_c, 1, 79, 0
3, 243836, Note_on_c, 1, 83, 0
3, 243840, Note_on_c, 1, 79, 92
3, 243840, Note_on_c, 1, 74, 92
3, 243840, Note_on_c, 1, 71, 92
3, 244220, Note_on_c, 1, 71, 0
3, 244220, Note_on_c, 1, 74, 0
3, 244220, Note_on_c, 1, 79, 0
3, 244224, Note_on_c, 1, 78, 92
3, 244224, Note_on_c, 1, 74, 92
3, 244224, Note_on_c, 1, 69, 92
3, 244604, Note_on_c, 1, 69, 0
3, 244604, Note_on_c, 1, 74, 0
3, 244604, Note_on_c, 1, 78, 0
3, 244608, Note_on_c, 1, 79, 92
3, 244608, Note_on_c, 1, 74, 92
3, 244608, Note_on_c, 1, 71, 92
3, 244988, Note_on_c, 1, 71, 0
3, 244988, Note_on_c, 1, 74, 0
3, 244988, Note_on_c, 1, 79, 0
3, 244992, Note_on_c, 1, 81, 92
3, 244992, Note_on_c, 1, 76, 92
3, 244992, Note_on_c, 1, 69, 92
3, 245372, Note_on_c, 1, 69, 0
3, 245372, Note_on_c, 1, 76, 0
3, 245372, Note_on_c, 1, 81, 0
3, 245376, Note_on_c, 1, 78, 92
3, 245376, Note_on_c, 1, 72, 92
3, 245376, Note_on_c, 1, 69, 92
3, 245756, Note_on_c, 1, 69, 0
3, 245756, Note_on_c, 1, 72, 0
3, 245756, Note_on_c, 1, 78, 0
3, 245760, Note_on_c, 1, 79, 71
3, 245760, Note_on_c, 1, 74, 71
3, 245760, Note_on_c, 1, 71, 71
3, 245760, Note_on_c, 1, 67, 71
3, 245948, Note_on_c, 1, 71, 0
3, 245948, Note_on_c, 1, 79, 0
3, 245948, Note_on_c, 1, 74, 0
3, 245952, Note_on_c, 1, 74, 71
3, 246140, Note_on_c, 1, 74, 0
3, 246144, Note_on_c, 1, 71, 71
3, 246332, Note_on_c, 1, 71, 0
3, 246336, Note_on_c, 1, 74, 71
3, 246524, Note_on_c, 1, 74, 0
3, 246528, Note_on_c, 1, 71, 71
3, 246716, Note_on_c, 1, 71, 0
3, 246720, Note_on_c, 1, 74, 71
3, 246908, Note_on_c, 1, 74, 0
3, 246908, Note_on_c, 1, 67, 0
3, 246912, Note_on_c, 1, 72, 71
3, 247100, Note_on_c, 1, 72, 0
3, 247104, Note_on_c, 1, 74, 71
3, 247292, Note_on_c, 1, 74, 0
3, 247296, Note_on_c, 1, 71, 71
3, 247296, Note_on_c, 1, 67, 71
3, 247484, Note_on_c, 1, 71, 0
3, 247488, Note_on_c, 1, 74, 71
3, 247676, Note_on_c, 1, 74, 0
3, 247676, Note_on_c, 1, 67, 0
3, 247680, Note_on_c, 1, 72, 71
3, 247868, Note_on_c, 1, 72, 0
3, 247872, Note_on_c, 1, 74, 71
3, 248060, Note_on_c, 1, 74, 0
3, 248064, Note_on_c, 1, 71, 71
3, 248252, Note_on_c, 1, 71, 0
3, 248256, Note_on_c, 1, 74, 71
3, 248444, Note_on_c, 1, 74, 0
3, 248448, Note_on_c, 1, 72, 71
3, 248636, Note_on_c, 1, 72, 0
3, 248640, Note_on_c, 1, 74, 71
3, 248828, Note_on_c, 1, 74, 0
3, 248832, Note_on_c, 1, 71, 71
3, 248832, Note_on_c, 1, 67, 71
3, 249020, Note_on_c, 1, 71, 0
3, 249024, Note_on_c, 1, 74, 71
3, 249212, Note_on_c, 1, 74, 0
3, 249216, Note_on_c, 1, 71, 71
3, 249404, Note_on_c, 1, 71, 0
3, 249408, Note_on_c, 1, 74, 71
3, 249596, Note_on_c, 1, 74, 0
3, 249600, Note_on_c, 1, 71, 71
3, 249788, Note_on_c, 1, 71, 0
3, 249792, Note_on_c, 1, 74, 71
3, 249980, Note_on_c, 1, 74, 0
3, 249984, Note_on_c, 1, 71, 71
3, 250172, Note_on_c, 1, 71, 0
3, 250176, Note_on_c, 1, 74, 71
3, 250364, Note_on_c, 1, 74, 0
3, 250364, Note_on_c, 1, 67, 0
3, 250368, Note_on_c, 1, 71, 71
3, 250556, Note_on_c, 1, 71, 0
3, 250560, Note_on_c, 1, 74, 71
3, 250748, Note_on_c, 1, 74, 0
3, 250752, Note_on_c, 1, 71, 71
3, 250940, Note_on_c, 1, 71, 0
3, 250944, Note_on_c, 1, 74, 71
3, 251132, Note_on_c, 1, 74, 0
3, 251136, Note_on_c, 1, 72, 71
3, 251324, Note_on_c, 1, 72, 0
3, 251328, Note_on_c, 1, 74, 71
3, 251516, Note_on_c, 1, 74, 0
3, 251520, Note_on_c, 1, 72, 71
3, 251708, Note_on_c, 1, 72, 0
3, 251712, Note_on_c, 1, 74, 71
3, 251900, Note_on_c, 1, 74, 0
3, 251904, Note_on_c, 1, 71, 71
3, 251904, Note_on_c, 1, 67, 71
3, 252092, Note_on_c, 1, 67, 0
3, 252092, Note_on_c, 1, 71, 0
3, 252096, Note_on_c, 1, 74, 71
3, 252096, Note_on_c, 1, 62, 71
3, 252284, Note_on_c, 1, 62, 0
3, 252284, Note_on_c, 1, 74, 0
3, 252288, Note_on_c, 1, 71, 71
3, 252288, Note_on_c, 1, 67, 71
3, 252476, Note_on_c, 1, 67, 0
3, 252476, Note_on_c, 1, 71, 0
3, 252480, Note_on_c, 1, 74, 71
3, 252480, Note_on_c, 1, 62, 71
3, 252668, Note_on_c, 1, 62, 0
3, 252668, Note_on_c, 1, 74, 0
3, 252672, Note_on_c, 1, 71, 71
3, 252672, Note_on_c, 1, 67, 71
3, 252860, Note_on_c, 1, 67, 0
3, 252860, Note_on_c, 1, 71, 0
3, 252864, Note_on_c, 1, 74, 71
3, 252864, Note_on_c, 1, 62, 71
3, 253052, Note_on_c, 1, 62, 0
3, 253052, Note_on_c, 1, 74, 0
3, 253056, Note_on_c, 1, 72, 71
3, 253056, Note_on_c, 1, 66, 71
3, 253244, Note_on_c, 1, 66, 0
3, 253244, Note_on_c, 1, 72, 0
3, 253248, Note_on_c, 1, 74, 71
3, 253248, Note_on_c, 1, 62, 71
3, 253436, Note_on_c, 1, 62, 0
3, 253436, Note_on_c, 1, 74, 0
3, 253440, Note_on_c, 1, 71, 71
3, 253440, Note_on_c, 1, 67, 71
3, 253628, Note_on_c, 1, 67, 0
3, 253628, Note_on_c, 1, 71, 0
3, 253632, Note_on_c, 1, 74, 71
3, 253632, Note_on_c, 1, 62, 71
3, 253820, Note_on_c, 1, 62, 0
3, 253820, Note_on_c, 1, 74, 0
3, 253824, Note_on_c, 1, 72, 71
3, 253824, Note_on_c, 1, 66, 71
3, 254012, Note_on_c, 1, 66, 0
3, 254012, Note_on_c, 1, 72, 0
3, 254016, Note_on_c, 1, 74, 71
3, 254016, Note_on_c, 1, 62, 71
3, 254204, Note_on_c, 1, 62, 0
3, 254204, Note_on_c, 1, 74, 0
3, 254208, Note_on_c, 1, 71, 71
3, 254208, Note_on_c, 1, 67, 71
3, 254396, Note_on_c, 1, 67, 0
3, 254396, Note_on_c, 1, 71, 0
3, 254400, Note_on_c, 1, 74, 71
3, 254400, Note_on_c, 1, 62, 71
3, 254588, Note_on_c, 1, 62, 0
3, 254588, Note_on_c, 1, 74, 0
3, 254592, Note_on_c, 1, 72, 71
3, 254592, Note_on_c, 1, 66, 71
3, 254780, Note_on_c, 1, 66, 0
3, 254780, Note_on_c, 1, 72, 0
3, 254784, Note_on_c, 1, 74, 71
3, 254784, Note_on_c, 1, 62, 71
3, 254972, Note_on_c, 1, 62, 0
3, 254972, Note_on_c, 1, 74, 0
3, 254976, Note_on_c, 1, 71, 71
3, 254976, Note_on_c, 1, 67, 71
3, 255164, Note_on_c, 1, 67, 0
3, 255164, Note_on_c, 1, 71, 0
3, 255168, Note_on_c, 1, 74, 71
3, 255168, Note_on_c, 1, 62, 71
3, 255356, Note_on_c, 1, 62, 0
3, 255356, Note_on_c, 1, 74, 0
3, 255360, Note_on_c, 1, 71, 71
3, 255360, Note_on_c, 1, 67, 71
3, 255548, Note_on_c, 1, 67, 0
3, 255548, Note_on_c, 1, 71, 0
3, 255552, Note_on_c, 1, 74, 71
3, 255552, Note_on_c, 1, 62, 71
3, 255740, Note_on_c, 1, 62, 0
3, 255740, Note_on_c, 1, 74, 0
3, 255744, Note_on_c, 1, 71, 71
3, 255744, Note_on_c, 1, 67, 71
3, 255932, Note_on_c, 1, 67, 0
3, 255932, Note_on_c, 1, 71, 0
3, 255936, Note_on_c, 1, 74, 71
3, 255936, Note_on_c, 1, 62, 71
3, 256124, Note_on_c, 1, 62, 0
3, 256124, Note_on_c, 1, 74, 0
3, 256128, Note_on_c, 1, 71, 71
3, 256128, Note_on_c, 1, 67, 71
3, 256316, Note_on_c, 1, 67, 0
3, 256316, Note_on_c, 1, 71, 0
3, 256320, Note_on_c, 1, 74, 71
3, 256320, Note_on_c, 1, 62, 71
3, 256508, Note_on_c, 1, 62, 0
3, 256508, Note_on_c, 1, 74, 0
3, 256512, Note_on_c, 1, 71, 71
3, 256512, Note_on_c, 1, 67, 71
3, 256892, Note_on_c, 1, 67, 0
3, 256892, Note_on_c, 1, 71, 0
3, 256896, Note_on_c, 1, 69, 71
3, 257084, Note_on_c, 1, 69, 0
3, 257088, Note_on_c, 1, 67, 71
3, 257276, Note_on_c, 1, 67, 0
3, 257280, Note_on_c, 1, 67, 71
3, 257468, Note_on_c, 1, 67, 0
3, 257472, Note_on_c, 1, 66, 71
3, 257660, Note_on_c, 1, 66, 0
3, 257664, Note_on_c, 1, 64, 71
3, 257852, Note_on_c, 1, 64, 0
3, 257856, Note_on_c, 1, 66, 71
3, 258044, Note_on_c, 1, 66, 0
3, 258048, Note_on_c, 1, 67, 71
3, 258428, Note_on_c, 1, 67, 0
3, 258816, Note_on_c, 1, 69, 80
3, 258908, Note_on_c, 1, 69, 0
3, 258912, Note_on_c, 1, 81, 71
3, 259196, Note_on_c, 1, 81, 0
3, 259200, Note_on_c, 1, 74, 80
3, 259292, Note_on_c, 1, 74, 0
3, 259296, Note_on_c, 1, 86, 71
3, 259580, Note_on_c, 1, 86, 0
3, 259584, Note_on_c, 1, 71, 80
3, 259676, Note_on_c, 1, 71, 0
3, 259680, Note_on_c, 1, 83, 71
3, 259964, Note_on_c, 1, 83, 0
3, 260352, Note_on_c, 1, 69, 80
3, 260444, Note_on_c, 1, 69, 0
3, 260448, Note_on_c, 1, 81, 71
3, 260732, Note_on_c, 1, 81, 0
3, 260736, Note_on_c, 1, 74, 80
3, 260828, Note_on_c, 1, 74, 0
3, 260832, Note_on_c, 1, 86, 71
3, 261116, Note_on_c, 1, 86, 0
3, 261120, Note_on_c, 1, 67, 90
3, 261212, Note_on_c, 1, 67, 0
3, 261216, Note_on_c, 1, 79, 80
3, 261500, Note_on_c, 1, 79, 0
3, 261888, Note_on_c, 1, 69, 90
3, 261980, Note_on_c, 1, 69, 0
3, 261984, Note_on_c, 1, 81, 80
3, 262268, Note_on_c, 1, 81, 0
3, 262272, Note_on_c, 1, 74, 90
3, 262364, Note_on_c, 1, 74, 0
3, 262368, Note_on_c, 1, 86, 80
3, 262652, Note_on_c, 1, 86, 0
3, 262656, Note_on_c, 1, 71, 92
3, 262748, Note_on_c, 1, 71, 0
3, 262752, Note_on_c, 1, 83, 90
3, 263036, Note_on_c, 1, 83, 0
3, 263040, Note_on_c, 1, 74, 92
3, 263132, Note_on_c, 1, 74, 0
3, 263136, Note_on_c, 1, 86, 90
3, 263420, Note_on_c, 1, 86, 0
3, 263424, Note_on_c, 1, 69, 92
3, 263516, Note_on_c, 1, 69, 0
3, 263520, Note_on_c, 1, 81, 90
3, 263804, Note_on_c, 1, 81, 0
3, 263808, Note_on_c, 1, 74, 92
3, 263900, Note_on_c, 1, 74, 0
3, 263904, Note_on_c, 1, 86, 90
3, 264188, Note_on_c, 1, 86, 0
3, 264192, Note_on_c, 1, 67, 92
3, 264284, Note_on_c, 1, 67, 0
3, 264288, Note_on_c, 1, 79, 92
3, 264572, Note_on_c, 1, 79, 0
3, 264576, Note_on_c, 1, 74, 92
3, 264668, Note_on_c, 1, 74, 0
3, 264672, Note_on_c, 1, 86, 92
3, 264956, Note_on_c, 1, 86, 0
3, 264960, Note_on_c, 1, 69, 92
3, 265052, Note_on_c, 1, 69, 0
3, 265056, Note_on_c, 1, 81, 92
3, 265340, Note_on_c, 1, 81, 0
3, 265344, Note_on_c, 1, 74, 92
3, 265436, Note_on_c, 1, 74, 0
3, 265440, Note_on_c, 1, 86, 92
3, 265724, Note_on_c, 1, 86, 0
3, 265728, Note_on_c, 1, 71, 92
3, 265820, Note_on_c, 1, 71, 0
3, 265824, Note_on_c, 1, 83, 92
3, 266108, Note_on_c, 1, 83, 0
3, 266112, Note_on_c, 1, 74, 92
3, 266204, Note_on_c, 1, 74, 0
3, 266208, Note_on_c, 1, 86, 92
3, 266492, Note_on_c, 1, 86, 0
3, 266496, Note_on_c, 1, 69, 92
3, 266588, Note_on_c, 1, 69, 0
3, 266592, Note_on_c, 1, 81, 92
3, 266876, Note_on_c, 1, 81, 0
3, 266880, Note_on_c, 1, 74, 92
3, 266972, Note_on_c, 1, 74, 0
3, 266976, Note_on_c, 1, 86, 92
3, 267260, Note_on_c, 1, 86, 0
3, 267264, Note_on_c, 1, 81, 71
3, 267452, Note_on_c, 1, 81, 0
3, 267456, Note_on_c, 1, 79, 71
3, 267644, Note_on_c, 1, 79, 0
3, 267648, Note_on_c, 1, 78, 71
3, 267836, Note_on_c, 1, 78, 0
3, 267840, Note_on_c, 1, 79, 71
3, 268028, Note_on_c, 1, 79, 0
3, 268032, Note_on_c, 1, 78, 71
3, 268220, Note_on_c, 1, 78, 0
3, 268224, Note_on_c, 1, 79, 71
3, 268412, Note_on_c, 1, 79, 0
3, 268416, Note_on_c, 1, 81, 71
3, 268604, Note_on_c, 1, 81, 0
3, 268608, Note_on_c, 1, 79, 71
3, 268796, Note_on_c, 1, 79, 0
3, 268800, Note_on_c, 1, 79, 71
3, 268988, Note_on_c, 1, 79, 0
3, 268992, Note_on_c, 1, 77, 71
3, 269180, Note_on_c, 1, 77, 0
3, 269184, Note_on_c, 1, 76, 71
3, 269372, Note_on_c, 1, 76, 0
3, 269376, Note_on_c, 1, 77, 71
3, 269564, Note_on_c, 1, 77, 0
3, 269568, Note_on_c, 1, 76, 71
3, 269756, Note_on_c, 1, 76, 0
3, 269760, Note_on_c, 1, 77, 71
3, 269948, Note_on_c, 1, 77, 0
3, 269952, Note_on_c, 1, 79, 71
3, 270140, Note_on_c, 1, 79, 0
3, 270144, Note_on_c, 1, 77, 71
3, 270332, Note_on_c, 1, 77, 0
3, 270336, Note_on_c, 1, 77, 71
3, 270524, Note_on_c, 1, 77, 0
3, 270528, Note_on_c, 1, 76, 71
3, 270716, Note_on_c, 1, 76, 0
3, 270720, Note_on_c, 1, 75, 71
3, 270908, Note_on_c, 1, 75, 0
3, 270912, Note_on_c, 1, 76, 71
3, 271100, Note_on_c, 1, 76, 0
3, 271104, Note_on_c, 1, 75, 71
3, 271292, Note_on_c, 1, 75, 0
3, 271296, Note_on_c, 1, 76, 71
3, 271484, Note_on_c, 1, 76, 0
3, 271488, Note_on_c, 1, 77, 71
3, 271676, Note_on_c, 1, 77, 0
3, 271680, Note_on_c, 1, 76, 71
3, 271868, Note_on_c, 1, 76, 0
3, 271872, Note_on_c, 1, 76, 71
3, 272060, Note_on_c, 1, 76, 0
3, 272064, Note_on_c, 1, 74, 71
3, 272252, Note_on_c, 1, 74, 0
3, 272256, Note_on_c, 1, 73, 71
3, 272444, Note_on_c, 1, 73, 0
3, 272448, Note_on_c, 1, 74, 71
3, 272636, Note_on_c, 1, 74, 0
3, 272640, Note_on_c, 1, 73, 71
3, 272828, Note_on_c, 1, 73, 0
3, 272832, Note_on_c, 1, 74, 71
3, 273020, Note_on_c, 1, 74, 0
3, 273024, Note_on_c, 1, 76, 71
3, 273212, Note_on_c, 1, 76, 0
3, 273216, Note_on_c, 1, 74, 71
3, 273404, Note_on_c, 1, 74, 0
3, 273408, Note_on_c, 1, 71, 92
3, 273596, Note_on_c, 1, 71, 0
3, 273600, Note_on_c, 1, 74, 92
3, 273788, Note_on_c, 1, 74, 0
3, 273792, Note_on_c, 1, 72, 92
3, 273980, Note_on_c, 1, 72, 0
3, 273984, Note_on_c, 1, 76, 92
3, 274172, Note_on_c, 1, 76, 0
3, 274176, Note_on_c, 1, 74, 71
3, 274176, Note_on_c, 1, 62, 71
3, 274176, Note_on_c, 1, 59, 71
3, 274364, Note_on_c, 1, 59, 0
3, 274364, Note_on_c, 1, 62, 0
3, 274368, Note_on_c, 1, 65, 71
3, 274556, Note_on_c, 1, 65, 0
3, 274556, Note_on_c, 1, 74, 0
3, 274560, Note_on_c, 1, 79, 71
3, 274560, Note_on_c, 1, 67, 71
3, 274560, Note_on_c, 1, 64, 71
3, 274560, Note_on_c, 1, 60, 71
3, 274748, Note_on_c, 1, 60, 0
3, 274748, Note_on_c, 1, 64, 0
3, 274752, Note_on_c, 1, 67, 71
3, 274940, Note_on_c, 1, 67, 0
3, 274940, Note_on_c, 1, 67, 0
3, 274940, Note_on_c, 1, 79, 0
3, 274944, Note_on_c, 1, 71, 71
3, 274944, Note_on_c, 1, 65, 71
3, 274944, Note_on_c, 1, 62, 71
3, 275132, Note_on_c, 1, 71, 0
3, 275136, Note_on_c, 1, 74, 71
3, 275324, Note_on_c, 1, 74, 0
3, 275324, Note_on_c, 1, 62, 0
3, 275324, Note_on_c, 1, 65, 0
3, 275328, Note_on_c, 1, 73, 71
3, 275516, Note_on_c, 1, 73, 0
3, 275520, Note_on_c, 1, 76, 71
3, 275708, Note_on_c, 1, 76, 0
3, 275712, Note_on_c, 1, 74, 71
3, 275712, Note_on_c, 1, 71, 71
3, 275900, Note_on_c, 1, 71, 0
3, 275900, Note_on_c, 1, 74, 0
3, 275904, Note_on_c, 1, 77, 71
3, 276092, Note_on_c, 1, 77, 0
3, 276096, Note_on_c, 1, 76, 71
3, 276096, Note_on_c, 1, 73, 71
3, 276096, Note_on_c, 1, 67, 71
3, 276096, Note_on_c, 1, 55, 71
3, 276284, Note_on_c, 1, 73, 0
3, 276284, Note_on_c, 1, 76, 0
3, 276288, Note_on_c, 1, 79, 71
3, 276476, Note_on_c, 1, 79, 0
3, 276476, Note_on_c, 1, 67, 0
3, 276476, Note_on_c, 1, 55, 0
3, 276480, Note_on_c, 1, 77, 92
3, 276480, Note_on_c, 1, 74, 92
3, 276480, Note_on_c, 1, 71, 92
3, 276668, Note_on_c, 1, 71, 0
3, 276668, Note_on_c, 1, 74, 0
3, 276668, Note_on_c, 1, 77, 0
3, 276672, Note_on_c, 1, 74, 92
3, 276860, Note_on_c, 1, 74, 0
3, 276864, Note_on_c, 1, 72, 92
3, 277052, Note_on_c, 1, 72, 0
3, 277056, Note_on_c, 1, 76, 92
3, 277244, Note_on_c, 1, 76, 0
3, 277248, Note_on_c, 1, 74, 92
3, 277436, Note_on_c, 1, 74, 0
3, 277440, Note_on_c, 1, 76, 92
3, 277628, Note_on_c, 1, 76, 0
3, 277632, Note_on_c, 1, 72, 92
3, 277820, Note_on_c, 1, 72, 0
3, 277824, Note_on_c, 1, 74, 92
3, 278012, Note_on_c, 1, 74, 0
3, 278016, Note_on_c, 1, 71, 71
3, 278204, Note_on_c, 1, 71, 0
3, 278208, Note_on_c, 1, 74, 71
3, 278396, Note_on_c, 1, 74, 0
3, 278400, Note_on_c, 1, 72, 71
3, 278588, Note_on_c, 1, 72, 0
3, 278592, Note_on_c, 1, 76, 71
3, 278780, Note_on_c, 1, 76, 0
3, 278784, Note_on_c, 1, 74, 71
3, 278784, Note_on_c, 1, 71, 71
3, 278972, Note_on_c, 1, 71, 0
3, 278972, Note_on_c, 1, 74, 0
3, 278976, Note_on_c, 1, 77, 71
3, 279164, Note_on_c, 1, 77, 0
3, 279168, Note_on_c, 1, 76, 71
3, 279168, Note_on_c, 1, 72, 71
3, 279356, Note_on_c, 1, 72, 0
3, 279356, Note_on_c, 1, 76, 0
3, 279360, Note_on_c, 1, 79, 71
3, 279548, Note_on_c, 1, 79, 0
3, 279552, Note_on_c, 1, 77, 61
3, 279552, Note_on_c, 1, 74, 61
3, 279932, Note_on_c, 1, 74, 0
3, 279932, Note_on_c, 1, 77, 0
3, 280320, Note_on_c, 1, 60, 61
3, 280508, Note_on_c, 1, 60, 0
3, 280512, Note_on_c, 1, 55, 61
3, 280700, Note_on_c, 1, 55, 0
3, 280704, Note_on_c, 1, 60, 61
3, 280892, Note_on_c, 1, 60, 0
3, 280896, Note_on_c, 1, 55, 61
3, 281084, Note_on_c, 1, 55, 0
3, 281088, Note_on_c, 1, 60, 61
3, 281276, Note_on_c, 1, 60, 0
3, 281280, Note_on_c, 1, 64, 61
3, 281468, Note_on_c, 1, 64, 0
3, 281472, Note_on_c, 1, 67, 61
3, 281660, Note_on_c, 1, 67, 0
3, 281664, Note_on_c, 1, 60, 61
3, 281852, Note_on_c, 1, 60, 0
3, 281856, Note_on_c, 1, 59, 61
3, 282044, Note_on_c, 1, 59, 0
3, 282048, Note_on_c, 1, 62, 61
3, 282236, Note_on_c, 1, 62, 0
3, 282240, Note_on_c, 1, 67, 61
3, 282428, Note_on_c, 1, 67, 0
3, 282432, Note_on_c, 1, 62, 61
3, 282620, Note_on_c, 1, 62, 0
3, 282624, Note_on_c, 1, 64, 61
3, 282812, Note_on_c, 1, 64, 0
3, 282816, Note_on_c, 1, 67, 61
3, 283004, Note_on_c, 1, 67, 0
3, 283008, Note_on_c, 1, 72, 61
3, 283196, Note_on_c, 1, 72, 0
3, 283200, Note_on_c, 1, 67, 61
3, 283388, Note_on_c, 1, 67, 0
3, 283392, Note_on_c, 1, 64, 61
3, 283580, Note_on_c, 1, 64, 0
3, 283584, Note_on_c, 1, 60, 61
3, 283772, Note_on_c, 1, 60, 0
3, 283776, Note_on_c, 1, 64, 61
3, 283964, Note_on_c, 1, 64, 0
3, 283968, Note_on_c, 1, 60, 61
3, 284156, Note_on_c, 1, 60, 0
3, 284160, Note_on_c, 1, 65, 61
3, 284348, Note_on_c, 1, 65, 0
3, 284352, Note_on_c, 1, 60, 61
3, 284540, Note_on_c, 1, 60, 0
3, 284544, Note_on_c, 1, 64, 61
3, 284732, Note_on_c, 1, 64, 0
3, 284736, Note_on_c, 1, 60, 61
3, 284924, Note_on_c, 1, 60, 0
3, 284928, Note_on_c, 1, 64, 61
3, 285116, Note_on_c, 1, 64, 0
3, 285120, Note_on_c, 1, 60, 61
3, 285308, Note_on_c, 1, 60, 0
3, 285312, Note_on_c, 1, 64, 61
3, 285500, Note_on_c, 1, 64, 0
3, 285504, Note_on_c, 1, 60, 61
3, 285692, Note_on_c, 1, 60, 0
3, 285696, Note_on_c, 1, 65, 61
3, 285884, Note_on_c, 1, 65, 0
3, 285888, Note_on_c, 1, 60, 61
3, 286076, Note_on_c, 1, 60, 0
3, 286080, Note_on_c, 1, 64, 61
3, 286268, Note_on_c, 1, 64, 0
3, 286272, Note_on_c, 1, 60, 61
3, 286460, Note_on_c, 1, 60, 0
3, 286464, Note_on_c, 1, 64, 61
3, 286652, Note_on_c, 1, 64, 0
3, 286656, Note_on_c, 1, 65, 61
3, 286844, Note_on_c, 1, 65, 0
3, 286848, Note_on_c, 1, 67, 61
3, 287036, Note_on_c, 1, 67, 0
3, 287040, Note_on_c, 1, 64, 61
3, 287228, Note_on_c, 1, 64, 0
3, 287232, Note_on_c, 1, 60, 61
3, 287420, Note_on_c, 1, 60, 0
3, 287424, Note_on_c, 1, 64, 61
3, 287612, Note_on_c, 1, 64, 0
3, 287616, Note_on_c, 1, 67, 61
3, 287804, Note_on_c, 1, 67, 0
3, 287808, Note_on_c, 1, 72, 61
3, 287996, Note_on_c, 1, 72, 0
3, 288000, Note_on_c, 1, 59, 61
3, 288188, Note_on_c, 1, 59, 0
3, 288192, Note_on_c, 1, 62, 61
3, 288380, Note_on_c, 1, 62, 0
3, 288384, Note_on_c, 1, 67, 61
3, 288572, Note_on_c, 1, 67, 0
3, 288576, Note_on_c, 1, 71, 61
3, 288764, Note_on_c, 1, 71, 0
3, 288768, Note_on_c, 1, 60, 61
3, 288956, Note_on_c, 1, 60, 0
3, 288960, Note_on_c, 1, 64, 61
3, 289148, Note_on_c, 1, 64, 0
3, 289152, Note_on_c, 1, 67, 61
3, 289340, Note_on_c, 1, 67, 0
3, 289344, Note_on_c, 1, 72, 61
3, 289532, Note_on_c, 1, 72, 0
3, 289536, Note_on_c, 1, 62, 61
3, 289724, Note_on_c, 1, 62, 0
3, 289728, Note_on_c, 1, 67, 61
3, 289916, Note_on_c, 1, 67, 0
3, 289920, Note_on_c, 1, 71, 61
3, 290108, Note_on_c, 1, 71, 0
3, 290112, Note_on_c, 1, 74, 61
3, 290300, Note_on_c, 1, 74, 0
3, 290304, Note_on_c, 1, 64, 61
3, 290492, Note_on_c, 1, 64, 0
3, 290496, Note_on_c, 1, 67, 61
3, 290684, Note_on_c, 1, 67, 0
3, 290688, Note_on_c, 1, 72, 61
3, 290876, Note_on_c, 1, 72, 0
3, 290880, Note_on_c, 1, 76, 61
3, 291068, Note_on_c, 1, 76, 0
3, 291072, Note_on_c, 1, 77, 61
3, 291260, Note_on_c, 1, 77, 0
3, 291264, Note_on_c, 1, 76, 61
3, 291452, Note_on_c, 1, 76, 0
3, 291456, Note_on_c, 1, 74, 61
3, 291644, Note_on_c, 1, 74, 0
3, 291648, Note_on_c, 1, 72, 61
3, 291836, Note_on_c, 1, 72, 0
3, 291840, Note_on_c, 1, 67, 92
3, 292028, Note_on_c, 1, 67, 0
3, 292032, Note_on_c, 1, 72, 92
3, 292220, Note_on_c, 1, 72, 0
3, 292224, Note_on_c, 1, 71, 92
3, 292412, Note_on_c, 1, 71, 0
3, 292416, Note_on_c, 1, 69, 92
3, 292604, Note_on_c, 1, 69, 0
3, 292608, Note_on_c, 1, 76, 92
3, 292608, Note_on_c, 1, 72, 92
3, 292988, Note_on_c, 1, 72, 0
3, 292988, Note_on_c, 1, 76, 0
3, 292992, Note_on_c, 1, 76, 92
3, 292992, Note_on_c, 1, 72, 92
3, 293372, Note_on_c, 1, 72, 0
3, 293372, Note_on_c, 1, 76, 0
3, 293376, Note_on_c, 1, 76, 92
3, 293376, Note_on_c, 1, 72, 92
3, 294140, Note_on_c, 1, 72, 0
3, 294140, Note_on_c, 1, 76, 0
3, 294144, Note_on_c, 1, 79, 92
3, 294144, Note_on_c, 1, 76, 92
3, 294332, Note_on_c, 1, 76, 0
3, 294332, Note_on_c, 1, 79, 0
3, 294336, Note_on_c, 1, 77, 92
3, 294336, Note_on_c, 1, 74, 92
3, 294524, Note_on_c, 1, 74, 0
3, 294524, Note_on_c, 1, 77, 0
3, 294528, Note_on_c, 1, 76, 92
3, 294528, Note_on_c, 1, 72, 92
3, 294716, Note_on_c, 1, 72, 0
3, 294716, Note_on_c, 1, 76, 0
3, 294720, Note_on_c, 1, 77, 92
3, 294720, Note_on_c, 1, 74, 92
3, 294908, Note_on_c, 1, 74, 0
3, 294908, Note_on_c, 1, 77, 0
3, 294912, Note_on_c, 1, 79, 92
3, 294912, Note_on_c, 1, 76, 92
3, 295100, Note_on_c, 1, 76, 0
3, 295100, Note_on_c, 1, 79, 0
3, 295104, Note_on_c, 1, 76, 92
3, 295292, Note_on_c, 1, 76, 0
3, 295296, Note_on_c, 1, 72, 92
3, 295664, Note_on_c, 1, 84, 92
3, 295676, Note_on_c, 1, 72, 0
3, 295680, Note_on_c, 1, 72, 92
3, 296236, Note_on_c, 1, 84, 0
3, 296256, Note_on_c, 1, 83, 92
3, 296444, Note_on_c, 1, 83, 0
3, 296448, Note_on_c, 1, 83, 92
3, 296636, Note_on_c, 1, 83, 0
3, 296640, Note_on_c, 1, 81, 92
3, 296828, Note_on_c, 1, 81, 0
3, 296832, Note_on_c, 1, 79, 92
3, 297212, Note_on_c, 1, 79, 0
3, 297212, Note_on_c, 1, 72, 0
3, 297216, Note_on_c, 1, 72, 92
3, 297216, Note_on_c, 1, 84, 92
3, 297788, Note_on_c, 1, 84, 0
3, 297792, Note_on_c, 1, 83, 92
3, 297980, Note_on_c, 1, 83, 0
3, 297984, Note_on_c, 1, 83, 92
3, 298172, Note_on_c, 1, 83, 0
3, 298176, Note_on_c, 1, 81, 92
3, 298364, Note_on_c, 1, 81, 0
3, 298368, Note_on_c, 1, 79, 92
3, 298748, Note_on_c, 1, 79, 0
3, 298748, Note_on_c, 1, 72, 0
3, 298752, Note_on_c, 1, 72, 92
3, 299132, Note_on_c, 1, 72, 0
3, 299136, Note_on_c, 1, 72, 92
3, 299516, Note_on_c, 1, 72, 0
3, 299520, Note_on_c, 1, 72, 92
3, 300284, Note_on_c, 1, 72, 0
3, 300288, Note_on_c, 1, 76, 92
3, 300288, Note_on_c, 1, 72, 92
3, 300476, Note_on_c, 1, 72, 0
3, 300476, Note_on_c, 1, 76, 0
3, 300480, Note_on_c, 1, 74, 92
3, 300480, Note_on_c, 1, 71, 92
3, 300668, Note_on_c, 1, 71, 0
3, 300668, Note_on_c, 1, 74, 0
3, 300672, Note_on_c, 1, 72, 92
3, 300672, Note_on_c, 1, 69, 92
3, 300860, Note_on_c, 1, 69, 0
3, 300860, Note_on_c, 1, 72, 0
3, 300864, Note_on_c, 1, 74, 92
3, 300864, Note_on_c, 1, 71, 92
3, 301052, Note_on_c, 1, 71, 0
3, 301052, Note_on_c, 1, 74, 0
3, 301056, Note_on_c, 1, 76, 92
3, 301056, Note_on_c, 1, 72, 92
3, 301436, Note_on_c, 1, 72, 0
3, 301436, Note_on_c, 1, 76, 0
3, 301440, Note_on_c, 1, 76, 92
3, 301440, Note_on_c, 1, 72, 92
3, 301820, Note_on_c, 1, 72, 0
3, 301820, Note_on_c, 1, 76, 0
3, 301824, Note_on_c, 1, 79, 92
3, 301824, Note_on_c, 1, 76, 92
3, 302012, Note_on_c, 1, 76, 0
3, 302012, Note_on_c, 1, 79, 0
3, 302016, Note_on_c, 1, 77, 92
3, 302016, Note_on_c, 1, 74, 92
3, 302204, Note_on_c, 1, 74, 0
3, 302204, Note_on_c, 1, 77, 0
3, 302208, Note_on_c, 1, 76, 92
3, 302208, Note_on_c, 1, 72, 92
3, 302396, Note_on_c, 1, 72, 0
3, 302396, Note_on_c, 1, 76, 0
3, 302400, Note_on_c, 1, 77, 92
3, 302400, Note_on_c, 1, 74, 92
3, 302588, Note_on_c, 1, 74, 0
3, 302588, Note_on_c, 1, 77, 0
3, 302592, Note_on_c, 1, 79, 92
3, 302592, Note_on_c, 1, 76, 92
3, 302972, Note_on_c, 1, 76, 0
3, 302972, Note_on_c, 1, 79, 0
3, 302976, Note_on_c, 1, 76, 92
3, 302976, Note_on_c, 1, 72, 92
3, 303356, Note_on_c, 1, 72, 0
3, 303356, Note_on_c, 1, 76, 0
3, 303360, Note_on_c, 1, 79, 92
3, 303360, Note_on_c, 1, 76, 92
3, 303548, Note_on_c, 1, 76, 0
3, 303548, Note_on_c, 1, 79, 0
3, 303552, Note_on_c, 1, 77, 92
3, 303552, Note_on_c, 1, 74, 92
3, 303740, Note_on_c, 1, 74, 0
3, 303740, Note_on_c, 1, 77, 0
3, 303744, Note_on_c, 1, 76, 92
3, 303744, Note_on_c, 1, 72, 92
3, 303932, Note_on_c, 1, 72, 0
3, 303932, Note_on_c, 1, 76, 0
3, 303936, Note_on_c, 1, 74, 92
3, 303936, Note_on_c, 1, 71, 92
3, 304124, Note_on_c, 1, 71, 0
3, 304124, Note_on_c, 1, 74, 0
3, 304128, Note_on_c, 1, 72, 92
3, 304508, Note_on_c, 1, 72, 0
3, 304512, Note_on_c, 1, 60, 92
3, 304700, Note_on_c, 1, 60, 0
3, 304704, Note_on_c, 1, 60, 92
3, 304892, Note_on_c, 1, 60, 0
3, 304896, Note_on_c, 1, 59, 92
3, 305084, Note_on_c, 1, 59, 0
3, 305088, Note_on_c, 1, 62, 92
3, 305276, Note_on_c, 1, 62, 0
3, 305280, Note_on_c, 1, 65, 92
3, 305468, Note_on_c, 1, 65, 0
3, 305472, Note_on_c, 1, 65, 92
3, 305660, Note_on_c, 1, 65, 0
3, 305664, Note_on_c, 1, 64, 92
3, 305852, Note_on_c, 1, 64, 0
3, 305856, Note_on_c, 1, 67, 92
3, 306044, Note_on_c, 1, 67, 0
3, 306048, Note_on_c, 1, 72, 92
3, 306236, Note_on_c, 1, 72, 0
3, 306240, Note_on_c, 1, 72, 92
3, 306428, Note_on_c, 1, 72, 0
3, 306432, Note_on_c, 1, 71, 92
3, 306620, Note_on_c, 1, 71, 0
3, 306640, Note_on_c, 1, 74, 92
3, 306816, Note_on_c, 1, 77, 92
3, 306828, Note_on_c, 1, 74, 0
3, 307004, Note_on_c, 1, 77, 0
3, 307008, Note_on_c, 1, 77, 92
3, 307196, Note_on_c, 1, 77, 0
3, 307200, Note_on_c, 1, 76, 92
3, 307580, Note_on_c, 1, 76, 0
3, 307584, Note_on_c, 1, 72, 92
3, 307772, Note_on_c, 1, 72, 0
3, 307776, Note_on_c, 1, 72, 92
3, 307964, Note_on_c, 1, 72, 0
3, 307968, Note_on_c, 1, 71, 92
3, 308156, Note_on_c, 1, 71, 0
3, 308160, Note_on_c, 1, 74, 92
3, 308348, Note_on_c, 1, 74, 0
3, 308352, Note_on_c, 1, 77, 92
3, 308540, Note_on_c, 1, 77, 0
3, 308544, Note_on_c, 1, 77, 92
3, 308732, Note_on_c, 1, 77, 0
3, 308736, Note_on_c, 1, 72, 92
3, 308924, Note_on_c, 1, 72, 0
3, 308928, Note_on_c, 1, 76, 92
3, 309116, Note_on_c, 1, 76, 0
3, 309120, Note_on_c, 1, 79, 92
3, 309308, Note_on_c, 1, 79, 0
3, 309312, Note_on_c, 1, 79, 92
3, 309500, Note_on_c, 1, 79, 0
3, 309504, Note_on_c, 1, 74, 92
3, 309692, Note_on_c, 1, 74, 0
3, 309696, Note_on_c, 1, 79, 92
3, 309884, Note_on_c, 1, 79, 0
3, 309888, Note_on_c, 1, 83, 92
3, 310076, Note_on_c, 1, 83, 0
3, 310080, Note_on_c, 1, 83, 92
3, 310268, Note_on_c, 1, 83, 0
3, 310272, Note_on_c, 1, 84, 92
3, 310652, Note_on_c, 1, 84, 0
3, 310656, Note_on_c, 1, 72, 92
3, 310844, Note_on_c, 1, 72, 0
3, 310848, Note_on_c, 1, 72, 92
3, 311036, Note_on_c, 1, 72, 0
3, 311040, Note_on_c, 1, 71, 92
3, 311228, Note_on_c, 1, 71, 0
3, 311232, Note_on_c, 1, 74, 92
3, 311420, Note_on_c, 1, 74, 0
3, 311424, Note_on_c, 1, 77, 92
3, 311612, Note_on_c, 1, 77, 0
3, 311616, Note_on_c, 1, 77, 92
3, 311804, Note_on_c, 1, 77, 0
3, 311808, Note_on_c, 1, 72, 92
3, 311996, Note_on_c, 1, 72, 0
3, 312000, Note_on_c, 1, 76, 92
3, 312188, Note_on_c, 1, 76, 0
3, 312192, Note_on_c, 1, 79, 92
3, 312380, Note_on_c, 1, 79, 0
3, 312384, Note_on_c, 1, 79, 92
3, 312572, Note_on_c, 1, 79, 0
3, 312576, Note_on_c, 1, 71, 92
3, 312764, Note_on_c, 1, 71, 0
3, 312768, Note_on_c, 1, 76, 92
3, 312956, Note_on_c, 1, 76, 0
3, 312960, Note_on_c, 1, 80, 92
3, 313148, Note_on_c, 1, 80, 0
3, 313152, Note_on_c, 1, 80, 92
3, 313340, Note_on_c, 1, 80, 0
3, 313344, Note_on_c, 1, 81, 92
3, 313724, Note_on_c, 1, 81, 0
3, 313728, Note_on_c, 1, 69, 92
3, 313916, Note_on_c, 1, 69, 0
3, 313920, Note_on_c, 1, 69, 92
3, 314108, Note_on_c, 1, 69, 0
3, 314112, Note_on_c, 1, 68, 92
3, 314300, Note_on_c, 1, 68, 0
3, 314304, Note_on_c, 1, 71, 92
3, 314492, Note_on_c, 1, 71, 0
3, 314496, Note_on_c, 1, 74, 92
3, 314684, Note_on_c, 1, 74, 0
3, 314688, Note_on_c, 1, 74, 92
3, 314876, Note_on_c, 1, 74, 0
3, 314880, Note_on_c, 1, 69, 92
3, 315068, Note_on_c, 1, 69, 0
3, 315072, Note_on_c, 1, 72, 92
3, 315260, Note_on_c, 1, 72, 0
3, 315264, Note_on_c, 1, 76, 92
3, 315452, Note_on_c, 1, 76, 0
3, 315456, Note_on_c, 1, 76, 92
3, 315644, Note_on_c, 1, 76, 0
3, 315648, Note_on_c, 1, 82, 92
3, 315836, Note_on_c, 1, 82, 0
3, 315840, Note_on_c, 1, 79, 92
3, 316028, Note_on_c, 1, 79, 0
3, 316032, Note_on_c, 1, 76, 92
3, 316220, Note_on_c, 1, 76, 0
3, 316224, Note_on_c, 1, 76, 92
3, 316412, Note_on_c, 1, 76, 0
3, 316416, Note_on_c, 1, 77, 92
3, 316796, Note_on_c, 1, 77, 0
3, 316800, Note_on_c, 1, 65, 92
3, 316988, Note_on_c, 1, 65, 0
3, 316992, Note_on_c, 1, 65, 92
3, 317180, Note_on_c, 1, 65, 0
3, 317184, Note_on_c, 1, 64, 92
3, 317372, Note_on_c, 1, 64, 0
3, 317376, Note_on_c, 1, 67, 92
3, 317564, Note_on_c, 1, 67, 0
3, 317568, Note_on_c, 1, 70, 92
3, 317756, Note_on_c, 1, 70, 0
3, 317760, Note_on_c, 1, 70, 92
3, 317948, Note_on_c, 1, 70, 0
3, 317952, Note_on_c, 1, 65, 92
3, 318140, Note_on_c, 1, 65, 0
3, 318144, Note_on_c, 1, 69, 92
3, 318332, Note_on_c, 1, 69, 0
3, 318336, Note_on_c, 1, 72, 92
3, 318524, Note_on_c, 1, 72, 0
3, 318528, Note_on_c, 1, 72, 92
3, 318716, Note_on_c, 1, 72, 0
3, 318720, Note_on_c, 1, 67, 92
3, 318908, Note_on_c, 1, 67, 0
3, 318912, Note_on_c, 1, 72, 92
3, 319100, Note_on_c, 1, 72, 0
3, 319104, Note_on_c, 1, 76, 92
3, 319292, Note_on_c, 1, 76, 0
3, 319296, Note_on_c, 1, 76, 92
3, 319484, Note_on_c, 1, 76, 0
3, 319488, Note_on_c, 1, 77, 71
3, 319488, Note_on_c, 1, 69, 71
3, 319868, Note_on_c, 1, 69, 0
3, 319868, Note_on_c, 1, 77, 0
3, 319872, Note_on_c, 1, 65, 71
3, 319872, Note_on_c, 1, 57, 71
3, 320060, Note_on_c, 1, 57, 0
3, 320060, Note_on_c, 1, 65, 0
3, 320064, Note_on_c, 1, 60, 71
3, 320252, Note_on_c, 1, 60, 0
3, 320256, Note_on_c, 1, 65, 71
3, 320256, Note_on_c, 1, 57, 71
3, 320444, Note_on_c, 1, 57, 0
3, 320444, Note_on_c, 1, 65, 0
3, 320448, Note_on_c, 1, 60, 71
3, 320624, Note_on_c, 1, 57, 71
3, 320636, Note_on_c, 1, 60, 0
3, 320640, Note_on_c, 1, 65, 71
3, 320812, Note_on_c, 1, 57, 0
3, 320828, Note_on_c, 1, 65, 0
3, 320832, Note_on_c, 1, 60, 71
3, 321020, Note_on_c, 1, 60, 0
3, 321024, Note_on_c, 1, 65, 71
3, 321024, Note_on_c, 1, 57, 71
3, 321212, Note_on_c, 1, 57, 0
3, 321212, Note_on_c, 1, 65, 0
3, 321216, Note_on_c, 1, 60, 71
3, 321404, Note_on_c, 1, 60, 0
3, 321408, Note_on_c, 1, 65, 71
3, 321408, Note_on_c, 1, 57, 71
3, 321596, Note_on_c, 1, 57, 0
3, 321596, Note_on_c, 1, 65, 0
3, 321600, Note_on_c, 1, 60, 71
3, 321788, Note_on_c, 1, 60, 0
3, 321792, Note_on_c, 1, 65, 71
3, 321792, Note_on_c, 1, 57, 71
3, 321980, Note_on_c, 1, 57, 0
3, 321980, Note_on_c, 1, 65, 0
3, 321984, Note_on_c, 1, 60, 71
3, 322172, Note_on_c, 1, 60, 0
3, 322176, Note_on_c, 1, 65, 71
3, 322176, Note_on_c, 1, 57, 71
3, 322364, Note_on_c, 1, 57, 0
3, 322364, Note_on_c, 1, 65, 0
3, 322368, Note_on_c, 1, 60, 71
3, 322556, Note_on_c, 1, 60, 0
3, 322560, Note_on_c, 1, 65, 71
3, 322560, Note_on_c, 1, 57, 71
3, 322748, Note_on_c, 1, 57, 0
3, 322748, Note_on_c, 1, 65, 0
3, 322752, Note_on_c, 1, 60, 71
3, 322940, Note_on_c, 1, 60, 0
3, 322944, Note_on_c, 1, 65, 71
3, 322944, Note_on_c, 1, 57, 71
3, 323132, Note_on_c, 1, 57, 0
3, 323132, Note_on_c, 1, 65, 0
3, 323136, Note_on_c, 1, 60, 71
3, 323324, Note_on_c, 1, 60, 0
3, 323328, Note_on_c, 1, 65, 71
3, 323328, Note_on_c, 1, 57, 71
3, 323516, Note_on_c, 1, 57, 0
3, 323516, Note_on_c, 1, 65, 0
3, 323520, Note_on_c, 1, 60, 71
3, 323708, Note_on_c, 1, 60, 0
3, 323712, Note_on_c, 1, 65, 71
3, 323712, Note_on_c, 1, 57, 71
3, 323900, Note_on_c, 1, 57, 0
3, 323900, Note_on_c, 1, 65, 0
3, 323904, Note_on_c, 1, 60, 71
3, 324092, Note_on_c, 1, 60, 0
3, 324096, Note_on_c, 1, 65, 71
3, 324096, Note_on_c, 1, 58, 71
3, 324284, Note_on_c, 1, 58, 0
3, 324284, Note_on_c, 1, 65, 0
3, 324288, Note_on_c, 1, 58, 71
3, 324476, Note_on_c, 1, 58, 0
3, 324480, Note_on_c, 1, 65, 71
3, 324668, Note_on_c, 1, 65, 0
3, 324672, Note_on_c, 1, 58, 71
3, 324860, Note_on_c, 1, 58, 0
3, 324864, Note_on_c, 1, 65, 71
3, 324864, Note_on_c, 1, 57, 71
3, 325052, Note_on_c, 1, 57, 0
3, 325052, Note_on_c, 1, 65, 0
3, 325056, Note_on_c, 1, 60, 71
3, 325244, Note_on_c, 1, 60, 0
3, 325248, Note_on_c, 1, 65, 71
3, 325248, Note_on_c, 1, 57, 71
3, 325436, Note_on_c, 1, 57, 0
3, 325436, Note_on_c, 1, 65, 0
3, 325440, Note_on_c, 1, 60, 71
3, 325628, Note_on_c, 1, 60, 0
3, 325632, Note_on_c, 1, 65, 71
3, 325632, Note_on_c, 1, 60, 71
3, 327164, Note_on_c, 1, 60, 0
3, 327164, Note_on_c, 1, 65, 0
3, 327360, Note_on_c, 1, 74, 79
3, 327548, Note_on_c, 1, 74, 0
3, 327552, Note_on_c, 1, 72, 79
3, 327740, Note_on_c, 1, 72, 0
3, 327744, Note_on_c, 1, 74, 79
3, 327932, Note_on_c, 1, 74, 0
3, 327936, Note_on_c, 1, 70, 79
3, 328124, Note_on_c, 1, 70, 0
3, 328128, Note_on_c, 1, 69, 79
3, 328316, Note_on_c, 1, 69, 0
3, 328320, Note_on_c, 1, 67, 79
3, 328508, Note_on_c, 1, 67, 0
3, 328512, Note_on_c, 1, 65, 79
3, 328700, Note_on_c, 1, 65, 0
3, 328704, Note_on_c, 1, 64, 79
3, 328892, Note_on_c, 1, 64, 0
3, 328896, Note_on_c, 1, 65, 79
3, 329084, Note_on_c, 1, 65, 0
3, 329088, Note_on_c, 1, 67, 79
3, 329276, Note_on_c, 1, 67, 0
3, 329280, Note_on_c, 1, 65, 79
3, 329468, Note_on_c, 1, 65, 0
3, 329472, Note_on_c, 1, 69, 79
3, 329660, Note_on_c, 1, 69, 0
3, 329664, Note_on_c, 1, 67, 79
3, 329852, Note_on_c, 1, 67, 0
3, 329856, Note_on_c, 1, 65, 79
3, 330044, Note_on_c, 1, 65, 0
3, 330048, Note_on_c, 1, 64, 79
3, 330236, Note_on_c, 1, 64, 0
3, 330240, Note_on_c, 1, 65, 79
3, 330620, Note_on_c, 1, 65, 0
3, 331776, Note_on_c, 1, 65, 103
3, 331776, Note_on_c, 1, 57, 103
3, 331964, Note_on_c, 1, 57, 0
3, 331964, Note_on_c, 1, 65, 0
3, 331968, Note_on_c, 1, 60, 103
3, 332156, Note_on_c, 1, 60, 0
3, 332160, Note_on_c, 1, 65, 103
3, 332160, Note_on_c, 1, 57, 103
3, 332348, Note_on_c, 1, 57, 0
3, 332348, Note_on_c, 1, 65, 0
3, 332352, Note_on_c, 1, 60, 103
3, 332540, Note_on_c, 1, 60, 0
3, 332544, Note_on_c, 1, 65, 103
3, 332544, Note_on_c, 1, 57, 103
3, 332732, Note_on_c, 1, 57, 0
3, 332732, Note_on_c, 1, 65, 0
3, 332736, Note_on_c, 1, 60, 103
3, 332924, Note_on_c, 1, 60, 0
3, 332928, Note_on_c, 1, 65, 103
3, 332928, Note_on_c, 1, 57, 103
3, 333116, Note_on_c, 1, 57, 0
3, 333116, Note_on_c, 1, 65, 0
3, 333120, Note_on_c, 1, 60, 103
3, 333308, Note_on_c, 1, 60, 0
3, 333312, Note_on_c, 1, 65, 103
3, 333312, Note_on_c, 1, 57, 103
3, 333500, Note_on_c, 1, 57, 0
3, 333500, Note_on_c, 1, 65, 0
3, 333504, Note_on_c, 1, 60, 103
3, 333692, Note_on_c, 1, 60, 0
3, 333696, Note_on_c, 1, 65, 103
3, 333696, Note_on_c, 1, 57, 103
3, 333884, Note_on_c, 1, 57, 0
3, 333884, Note_on_c, 1, 65, 0
3, 333888, Note_on_c, 1, 60, 103
3, 334076, Note_on_c, 1, 60, 0
3, 334080, Note_on_c, 1, 65, 103
3, 334080, Note_on_c, 1, 57, 103
3, 334268, Note_on_c, 1, 57, 0
3, 334268, Note_on_c, 1, 65, 0
3, 334272, Note_on_c, 1, 60, 103
3, 334460, Note_on_c, 1, 60, 0
3, 334464, Note_on_c, 1, 65, 103
3, 334464, Note_on_c, 1, 57, 103
3, 334652, Note_on_c, 1, 57, 0
3, 334652, Note_on_c, 1, 65, 0
3, 334656, Note_on_c, 1, 60, 103
3, 334844, Note_on_c, 1, 60, 0
3, 334848, Note_on_c, 1, 65, 103
3, 334848, Note_on_c, 1, 57, 103
3, 335036, Note_on_c, 1, 57, 0
3, 335036, Note_on_c, 1, 65, 0
3, 335040, Note_on_c, 1, 60, 103
3, 335228, Note_on_c, 1, 60, 0
3, 335232, Note_on_c, 1, 65, 103
3, 335232, Note_on_c, 1, 57, 103
3, 335420, Note_on_c, 1, 57, 0
3, 335420, Note_on_c, 1, 65, 0
3, 335424, Note_on_c, 1, 60, 103
3, 335612, Note_on_c, 1, 60, 0
3, 335616, Note_on_c, 1, 65, 103
3, 335616, Note_on_c, 1, 57, 103
3, 335804, Note_on_c, 1, 57, 0
3, 335804, Note_on_c, 1, 65, 0
3, 335808, Note_on_c, 1, 60, 103
3, 335996, Note_on_c, 1, 60, 0
3, 336000, Note_on_c, 1, 65, 103
3, 336000, Note_on_c, 1, 57, 103
3, 336188, Note_on_c, 1, 57, 0
3, 336188, Note_on_c, 1, 65, 0
3, 336192, Note_on_c, 1, 60, 103
3, 336380, Note_on_c, 1, 60, 0
3, 336384, Note_on_c, 1, 65, 103
3, 336384, Note_on_c, 1, 59, 103
3, 336572, Note_on_c, 1, 59, 0
3, 336572, Note_on_c, 1, 65, 0
3, 336576, Note_on_c, 1, 59, 103
3, 336764, Note_on_c, 1, 59, 0
3, 336768, Note_on_c, 1, 65, 103
3, 336956, Note_on_c, 1, 65, 0
3, 336960, Note_on_c, 1, 59, 103
3, 337148, Note_on_c, 1, 59, 0
3, 337152, Note_on_c, 1, 65, 103
3, 337152, Note_on_c, 1, 57, 103
3, 337340, Note_on_c, 1, 57, 0
3, 337340, Note_on_c, 1, 65, 0
3, 337344, Note_on_c, 1, 60, 103
3, 337532, Note_on_c, 1, 60, 0
3, 337536, Note_on_c, 1, 65, 103
3, 337536, Note_on_c, 1, 57, 103
3, 337724, Note_on_c, 1, 57, 0
3, 337724, Note_on_c, 1, 65, 0
3, 337728, Note_on_c, 1, 60, 103
3, 337916, Note_on_c, 1, 60, 0
3, 337920, Note_on_c, 1, 65, 103
3, 337920, Note_on_c, 1, 60, 103
3, 339452, Note_on_c, 1, 60, 0
3, 339456, Note_on_c, 1, 67, 103
3, 340988, Note_on_c, 1, 67, 0
3, 340988, Note_on_c, 1, 65, 0
3, 340992, Note_on_c, 1, 69, 96
3, 340992, Note_on_c, 1, 65, 96
3, 341756, Note_on_c, 1, 69, 0
3, 341760, Note_on_c, 1, 67, 96
3, 342140, Note_on_c, 1, 65, 0
3, 342144, Note_on_c, 1, 64, 96
3, 342524, Note_on_c, 1, 64, 0
3, 342524, Note_on_c, 1, 67, 0
3, 342528, Note_on_c, 1, 77, 96
3, 342528, Note_on_c, 1, 72, 96
3, 342528, Note_on_c, 1, 65, 96
3, 344060, Note_on_c, 1, 65, 0
3, 344060, Note_on_c, 1, 72, 0
3, 344060, Note_on_c, 1, 77, 0
3, 344064, Note_on_c, 1, 79, 96
3, 344064, Note_on_c, 1, 72, 96
3, 344064, Note_on_c, 1, 67, 96
3, 345596, Note_on_c, 1, 67, 0
3, 345596, Note_on_c, 1, 72, 0
3, 345596, Note_on_c, 1, 79, 0
3, 345600, Note_on_c, 1, 81, 92
3, 345600, Note_on_c, 1, 77, 92
3, 345600, Note_on_c, 1, 65, 92
3, 345788, Note_on_c, 1, 65, 0
3, 345788, Note_on_c, 1, 81, 0
3, 345792, Note_on_c, 1, 84, 92
3, 345792, Note_on_c, 1, 60, 92
3, 345980, Note_on_c, 1, 60, 0
3, 345980, Note_on_c, 1, 84, 0
3, 345980, Note_on_c, 1, 77, 0
3, 345984, Note_on_c, 1, 81, 92
3, 345984, Note_on_c, 1, 72, 92
3, 345984, Note_on_c, 1, 65, 92
3, 346172, Note_on_c, 1, 65, 0
3, 346172, Note_on_c, 1, 81, 0
3, 346176, Note_on_c, 1, 79, 92
3, 346176, Note_on_c, 1, 67, 92
3, 346364, Note_on_c, 1, 67, 0
3, 346364, Note_on_c, 1, 79, 0
3, 346368, Note_on_c, 1, 77, 92
3, 346368, Note_on_c, 1, 69, 92
3, 346556, Note_on_c, 1, 69, 0
3, 346560, Note_on_c, 1, 65, 92
3, 346748, Note_on_c, 1, 65, 0
3, 346748, Note_on_c, 1, 77, 0
3, 346748, Note_on_c, 1, 72, 0
3, 346752, Note_on_c, 1, 79, 92
3, 346752, Note_on_c, 1, 76, 92
3, 346752, Note_on_c, 1, 67, 92
3, 346940, Note_on_c, 1, 67, 0
3, 346944, Note_on_c, 1, 64, 92
3, 347132, Note_on_c, 1, 64, 0
3, 347132, Note_on_c, 1, 76, 0
3, 347132, Note_on_c, 1, 79, 0
3, 347136, Note_on_c, 1, 81, 92
3, 347136, Note_on_c, 1, 77, 92
3, 347136, Note_on_c, 1, 65, 92
3, 347324, Note_on_c, 1, 65, 0
3, 347324, Note_on_c, 1, 81, 0
3, 347328, Note_on_c, 1, 84, 92
3, 347328, Note_on_c, 1, 60, 92
3, 347516, Note_on_c, 1, 60, 0
3, 347516, Note_on_c, 1, 84, 0
3, 347516, Note_on_c, 1, 77, 0
3, 347520, Note_on_c, 1, 81, 92
3, 347520, Note_on_c, 1, 65, 92
3, 347536, Note_on_c, 1, 72, 92
3, 347708, Note_on_c, 1, 65, 0
3, 347708, Note_on_c, 1, 81, 0
3, 347712, Note_on_c, 1, 79, 92
3, 347712, Note_on_c, 1, 67, 92
3, 347900, Note_on_c, 1, 67, 0
3, 347900, Note_on_c, 1, 79, 0
3, 347904, Note_on_c, 1, 77, 92
3, 347904, Note_on_c, 1, 69, 92
3, 348092, Note_on_c, 1, 69, 0
3, 348096, Note_on_c, 1, 65, 92
3, 348272, Note_on_c, 1, 76, 92
3, 348284, Note_on_c, 1, 65, 0
3, 348284, Note_on_c, 1, 77, 0
3, 348288, Note_on_c, 1, 79, 92
3, 348288, Note_on_c, 1, 67, 92
3, 348300, Note_on_c, 1, 72, 0
3, 348476, Note_on_c, 1, 67, 0
3, 348480, Note_on_c, 1, 64, 92
3, 348652, Note_on_c, 1, 76, 0
3, 348668, Note_on_c, 1, 64, 0
3, 348668, Note_on_c, 1, 79, 0
3, 348672, Note_on_c, 1, 81, 92
3, 348672, Note_on_c, 1, 77, 92
3, 348672, Note_on_c, 1, 65, 92
3, 348860, Note_on_c, 1, 65, 0
3, 348860, Note_on_c, 1, 81, 0
3, 348864, Note_on_c, 1, 84, 92
3, 348864, Note_on_c, 1, 60, 92
3, 349052, Note_on_c, 1, 60, 0
3, 349052, Note_on_c, 1, 84, 0
3, 349052, Note_on_c, 1, 77, 0
3, 349056, Note_on_c, 1, 81, 92
3, 349056, Note_on_c, 1, 65, 92
3, 349072, Note_on_c, 1, 72, 92
3, 349244, Note_on_c, 1, 65, 0
3, 349244, Note_on_c, 1, 81, 0
3, 349248, Note_on_c, 1, 79, 92
3, 349248, Note_on_c, 1, 67, 92
3, 349436, Note_on_c, 1, 67, 0
3, 349436, Note_on_c, 1, 79, 0
3, 349440, Note_on_c, 1, 77, 92
3, 349440, Note_on_c, 1, 69, 92
3, 349628, Note_on_c, 1, 69, 0
3, 349632, Note_on_c, 1, 65, 92
3, 349820, Note_on_c, 1, 65, 0
3, 349820, Note_on_c, 1, 77, 0
3, 349824, Note_on_c, 1, 76, 92
3, 349824, Note_on_c, 1, 81, 92
3, 349824, Note_on_c, 1, 67, 92
3, 349836, Note_on_c, 1, 72, 0
3, 350012, Note_on_c, 1, 67, 0
3, 350012, Note_on_c, 1, 81, 0
3, 350016, Note_on_c, 1, 79, 92
3, 350016, Note_on_c, 1, 64, 92
3, 350204, Note_on_c, 1, 64, 0
3, 350204, Note_on_c, 1, 79, 0
3, 350204, Note_on_c, 1, 76, 0
3, 350208, Note_on_c, 1, 65, 92
3, 350208, Note_on_c, 1, 77, 92
3, 350396, Note_on_c, 1, 77, 0
3, 350396, Note_on_c, 1, 65, 0
3, 350400, Note_on_c, 1, 65, 92
3, 350588, Note_on_c, 1, 65, 0
3, 350592, Note_on_c, 1, 69, 92
3, 350780, Note_on_c, 1, 69, 0
3, 350784, Note_on_c, 1, 65, 92
3, 350972, Note_on_c, 1, 65, 0
3, 350976, Note_on_c, 1, 72, 92
3, 351164, Note_on_c, 1, 72, 0
3, 351168, Note_on_c, 1, 69, 92
3, 351356, Note_on_c, 1, 69, 0
3, 351360, Note_on_c, 1, 72, 92
3, 351548, Note_on_c, 1, 72, 0
3, 351552, Note_on_c, 1, 69, 92
3, 351740, Note_on_c, 1, 69, 0
3, 351744, Note_on_c, 1, 77, 80
3, 351744, Note_on_c, 1, 65, 80
3, 351932, Note_on_c, 1, 65, 0
3, 351932, Note_on_c, 1, 77, 0
3, 351936, Note_on_c, 1, 76, 80
3, 351936, Note_on_c, 1, 72, 80
3, 352124, Note_on_c, 1, 72, 0
3, 352124, Note_on_c, 1, 76, 0
3, 352128, Note_on_c, 1, 77, 80
3, 352128, Note_on_c, 1, 69, 80
3, 352316, Note_on_c, 1, 69, 0
3, 352316, Note_on_c, 1, 77, 0
3, 352320, Note_on_c, 1, 76, 80
3, 352320, Note_on_c, 1, 72, 80
3, 352508, Note_on_c, 1, 72, 0
3, 352508, Note_on_c, 1, 76, 0
3, 352512, Note_on_c, 1, 77, 80
3, 352512, Note_on_c, 1, 65, 80
3, 352700, Note_on_c, 1, 65, 0
3, 352704, Note_on_c, 1, 72, 80
3, 352892, Note_on_c, 1, 72, 0
3, 352892, Note_on_c, 1, 77, 0
3, 352896, Note_on_c, 1, 81, 80
3, 352896, Note_on_c, 1, 69, 80
3, 353084, Note_on_c, 1, 69, 0
3, 353088, Note_on_c, 1, 72, 80
3, 353276, Note_on_c, 1, 72, 0
3, 353276, Note_on_c, 1, 81, 0
3, 353280, Note_on_c, 1, 81, 80
3, 353280, Note_on_c, 1, 64, 80
3, 353468, Note_on_c, 1, 64, 0
3, 353468, Note_on_c, 1, 81, 0
3, 353472, Note_on_c, 1, 79, 80
3, 353472, Note_on_c, 1, 73, 80
3, 353660, Note_on_c, 1, 73, 0
3, 353660, Note_on_c, 1, 79, 0
3, 353664, Note_on_c, 1, 79, 80
3, 353664, Note_on_c, 1, 69, 80
3, 353852, Note_on_c, 1, 69, 0
3, 353852, Note_on_c, 1, 79, 0
3, 353856, Note_on_c, 1, 78, 80
3, 353856, Note_on_c, 1, 73, 80
3, 354044, Note_on_c, 1, 73, 0
3, 354044, Note_on_c, 1, 78, 0
3, 354048, Note_on_c, 1, 79, 80
3, 354048, Note_on_c, 1, 64, 80
3, 354236, Note_on_c, 1, 64, 0
3, 354240, Note_on_c, 1, 73, 80
3, 354428, Note_on_c, 1, 73, 0
3, 354428, Note_on_c, 1, 79, 0
3, 354432, Note_on_c, 1, 69, 80
3, 354620, Note_on_c, 1, 69, 0
3, 354624, Note_on_c, 1, 73, 80
3, 354812, Note_on_c, 1, 73, 0
3, 354816, Note_on_c, 1, 88, 80
3, 354816, Note_on_c, 1, 60, 80
3, 355004, Note_on_c, 1, 60, 0
3, 355004, Note_on_c, 1, 88, 0
3, 355008, Note_on_c, 1, 87, 80
3, 355008, Note_on_c, 1, 69, 80
3, 355196, Note_on_c, 1, 69, 0
3, 355196, Note_on_c, 1, 87, 0
3, 355200, Note_on_c, 1, 88, 80
3, 355200, Note_on_c, 1, 64, 80
3, 355388, Note_on_c, 1, 64, 0
3, 355388, Note_on_c, 1, 88, 0
3, 355392, Note_on_c, 1, 87, 80
3, 355392, Note_on_c, 1, 69, 80
3, 355580, Note_on_c, 1, 69, 0
3, 355580, Note_on_c, 1, 87, 0
3, 355584, Note_on_c, 1, 88, 80
3, 355584, Note_on_c, 1, 60, 80
3, 355772, Note_on_c, 1, 60, 0
3, 355776, Note_on_c, 1, 69, 80
3, 355964, Note_on_c, 1, 69, 0
3, 355964, Note_on_c, 1, 88, 0
3, 355968, Note_on_c, 1, 76, 80
3, 355968, Note_on_c, 1, 64, 80
3, 356156, Note_on_c, 1, 64, 0
3, 356160, Note_on_c, 1, 69, 80
3, 356348, Note_on_c, 1, 69, 0
3, 356348, Note_on_c, 1, 76, 0
3, 356352, Note_on_c, 1, 79, 80
3, 356352, Note_on_c, 1, 62, 80
3, 356540, Note_on_c, 1, 62, 0
3, 356540, Note_on_c, 1, 79, 0
3, 356544, Note_on_c, 1, 77, 80
3, 356544, Note_on_c, 1, 69, 80
3, 356732, Note_on_c, 1, 69, 0
3, 356732, Note_on_c, 1, 77, 0
3, 356736, Note_on_c, 1, 77, 80
3, 356736, Note_on_c, 1, 65, 80
3, 356912, Note_on_c, 1, 69, 80
3, 356924, Note_on_c, 1, 65, 0
3, 356924, Note_on_c, 1, 77, 0
3, 356928, Note_on_c, 1, 76, 80
3, 357100, Note_on_c, 1, 69, 0
3, 357116, Note_on_c, 1, 76, 0
3, 357120, Note_on_c, 1, 77, 80
3, 357120, Note_on_c, 1, 62, 80
3, 357308, Note_on_c, 1, 62, 0
3, 357312, Note_on_c, 1, 69, 80
3, 357500, Note_on_c, 1, 69, 0
3, 357500, Note_on_c, 1, 77, 0
3, 357504, Note_on_c, 1, 65, 80
3, 357692, Note_on_c, 1, 65, 0
3, 357696, Note_on_c, 1, 69, 80
3, 357884, Note_on_c, 1, 69, 0
3, 357888, Note_on_c, 1, 77, 80
3, 357888, Note_on_c, 1, 62, 80
3, 358076, Note_on_c, 1, 62, 0
3, 358076, Note_on_c, 1, 77, 0
3, 358080, Note_on_c, 1, 76, 80
3, 358080, Note_on_c, 1, 69, 80
3, 358268, Note_on_c, 1, 69, 0
3, 358268, Note_on_c, 1, 76, 0
3, 358272, Note_on_c, 1, 77, 80
3, 358272, Note_on_c, 1, 65, 80
3, 358460, Note_on_c, 1, 65, 0
3, 358460, Note_on_c, 1, 77, 0
3, 358464, Note_on_c, 1, 76, 80
3, 358464, Note_on_c, 1, 69, 80
3, 358652, Note_on_c, 1, 69, 0
3, 358652, Note_on_c, 1, 76, 0
3, 358656, Note_on_c, 1, 77, 80
3, 358656, Note_on_c, 1, 60, 80
3, 358844, Note_on_c, 1, 60, 0
3, 358848, Note_on_c, 1, 68, 80
3, 359036, Note_on_c, 1, 68, 0
3, 359036, Note_on_c, 1, 77, 0
3, 359040, Note_on_c, 1, 77, 80
3, 359040, Note_on_c, 1, 62, 80
3, 359228, Note_on_c, 1, 62, 0
3, 359232, Note_on_c, 1, 68, 80
3, 359420, Note_on_c, 1, 68, 0
3, 359420, Note_on_c, 1, 77, 0
3, 359424, Note_on_c, 1, 77, 80
3, 359424, Note_on_c, 1, 59, 80
3, 359612, Note_on_c, 1, 59, 0
3, 359612, Note_on_c, 1, 77, 0
3, 359616, Note_on_c, 1, 89, 80
3, 359616, Note_on_c, 1, 67, 80
3, 359804, Note_on_c, 1, 67, 0
3, 359804, Note_on_c, 1, 89, 0
3, 359808, Note_on_c, 1, 89, 80
3, 359808, Note_on_c, 1, 62, 80
3, 359996, Note_on_c, 1, 62, 0
3, 359996, Note_on_c, 1, 89, 0
3, 360000, Note_on_c, 1, 88, 80
3, 360000, Note_on_c, 1, 67, 80
3, 360188, Note_on_c, 1, 67, 0
3, 360188, Note_on_c, 1, 88, 0
3, 360192, Note_on_c, 1, 89, 80
3, 360192, Note_on_c, 1, 59, 80
3, 360380, Note_on_c, 1, 59, 0
3, 360384, Note_on_c, 1, 67, 80
3, 360572, Note_on_c, 1, 67, 0
3, 360572, Note_on_c, 1, 89, 0
3, 360576, Note_on_c, 1, 62, 80
3, 360764, Note_on_c, 1, 62, 0
3, 360768, Note_on_c, 1, 67, 80
3, 360956, Note_on_c, 1, 67, 0
3, 360960, Note_on_c, 1, 89, 90
3, 361052, Note_on_c, 1, 89, 0
3, 361152, Note_on_c, 1, 88, 90
3, 361244, Note_on_c, 1, 88, 0
3, 361344, Note_on_c, 1, 86, 90
3, 361436, Note_on_c, 1, 86, 0
3, 361536, Note_on_c, 1, 84, 90
3, 361628, Note_on_c, 1, 84, 0
3, 361728, Note_on_c, 1, 83, 90
3, 361820, Note_on_c, 1, 83, 0
3, 361920, Note_on_c, 1, 81, 90
3, 362012, Note_on_c, 1, 81, 0
3, 362112, Note_on_c, 1, 79, 90
3, 362204, Note_on_c, 1, 79, 0
3, 362304, Note_on_c, 1, 77, 90
3, 362396, Note_on_c, 1, 77, 0
3, 362496, Note_on_c, 1, 76, 90
3, 362588, Note_on_c, 1, 76, 0
3, 362688, Note_on_c, 1, 77, 90
3, 362780, Note_on_c, 1, 77, 0
3, 362880, Note_on_c, 1, 79, 90
3, 362972, Note_on_c, 1, 79, 0
3, 363072, Note_on_c, 1, 81, 90
3, 363164, Note_on_c, 1, 81, 0
3, 363264, Note_on_c, 1, 83, 90
3, 363356, Note_on_c, 1, 83, 0
3, 363456, Note_on_c, 1, 84, 90
3, 363548, Note_on_c, 1, 84, 0
3, 363648, Note_on_c, 1, 86, 90
3, 363740, Note_on_c, 1, 86, 0
3, 363840, Note_on_c, 1, 88, 90
3, 363932, Note_on_c, 1, 88, 0
3, 364032, Note_on_c, 1, 89, 90
3, 364220, Note_on_c, 1, 89, 0
3, 364224, Note_on_c, 1, 88, 90
3, 364412, Note_on_c, 1, 88, 0
3, 364416, Note_on_c, 1, 86, 90
3, 364604, Note_on_c, 1, 86, 0
3, 364608, Note_on_c, 1, 84, 90
3, 364796, Note_on_c, 1, 84, 0
3, 364800, Note_on_c, 1, 83, 90
3, 364988, Note_on_c, 1, 83, 0
3, 364992, Note_on_c, 1, 81, 90
3, 365180, Note_on_c, 1, 81, 0
3, 365184, Note_on_c, 1, 79, 90
3, 365372, Note_on_c, 1, 79, 0
3, 365376, Note_on_c, 1, 77, 90
3, 365564, Note_on_c, 1, 77, 0
3, 365568, Note_on_c, 1, 76, 90
3, 365756, Note_on_c, 1, 76, 0
3, 365760, Note_on_c, 1, 77, 90
3, 365948, Note_on_c, 1, 77, 0
3, 365952, Note_on_c, 1, 79, 90
3, 366140, Note_on_c, 1, 79, 0
3, 366144, Note_on_c, 1, 81, 90
3, 366332, Note_on_c, 1, 81, 0
3, 366336, Note_on_c, 1, 83, 90
3, 366524, Note_on_c, 1, 83, 0
3, 366528, Note_on_c, 1, 84, 90
3, 366716, Note_on_c, 1, 84, 0
3, 366720, Note_on_c, 1, 86, 90
3, 366908, Note_on_c, 1, 86, 0
3, 366912, Note_on_c, 1, 88, 90
3, 367100, Note_on_c, 1, 88, 0
3, 367104, Note_on_c, 1, 86, 90
3, 367292, Note_on_c, 1, 86, 0
3, 367296, Note_on_c, 1, 84, 90
3, 367484, Note_on_c, 1, 84, 0
3, 367488, Note_on_c, 1, 83, 90
3, 367676, Note_on_c, 1, 83, 0
3, 367680, Note_on_c, 1, 81, 90
3, 367868, Note_on_c, 1, 81, 0
3, 367872, Note_on_c, 1, 80, 90
3, 368060, Note_on_c, 1, 80, 0
3, 368064, Note_on_c, 1, 77, 90
3, 368252, Note_on_c, 1, 77, 0
3, 368256, Note_on_c, 1, 76, 90
3, 368444, Note_on_c, 1, 76, 0
3, 368448, Note_on_c, 1, 74, 90
3, 368636, Note_on_c, 1, 74, 0
3, 368640, Note_on_c, 1, 72, 90
3, 368828, Note_on_c, 1, 72, 0
3, 368832, Note_on_c, 1, 74, 90
3, 369020, Note_on_c, 1, 74, 0
3, 369024, Note_on_c, 1, 76, 90
3, 369212, Note_on_c, 1, 76, 0
3, 369216, Note_on_c, 1, 77, 90
3, 369404, Note_on_c, 1, 77, 0
3, 369408, Note_on_c, 1, 80, 90
3, 369596, Note_on_c, 1, 80, 0
3, 369600, Note_on_c, 1, 81, 90
3, 369788, Note_on_c, 1, 81, 0
3, 369792, Note_on_c, 1, 83, 90
3, 369980, Note_on_c, 1, 83, 0
3, 369984, Note_on_c, 1, 84, 90
3, 370172, Note_on_c, 1, 84, 0
3, 370176, Note_on_c, 1, 82, 90
3, 370364, Note_on_c, 1, 82, 0
3, 370368, Note_on_c, 1, 81, 90
3, 370556, Note_on_c, 1, 81, 0
3, 370560, Note_on_c, 1, 79, 90
3, 370748, Note_on_c, 1, 79, 0
3, 370752, Note_on_c, 1, 77, 90
3, 370940, Note_on_c, 1, 77, 0
3, 370944, Note_on_c, 1, 76, 90
3, 371132, Note_on_c, 1, 76, 0
3, 371136, Note_on_c, 1, 74, 90
3, 371324, Note_on_c, 1, 74, 0
3, 371328, Note_on_c, 1, 72, 90
3, 371516, Note_on_c, 1, 72, 0
3, 371520, Note_on_c, 1, 70, 90
3, 371708, Note_on_c, 1, 70, 0
3, 371712, Note_on_c, 1, 69, 90
3, 371900, Note_on_c, 1, 69, 0
3, 371904, Note_on_c, 1, 74, 90
3, 372092, Note_on_c, 1, 74, 0
3, 372096, Note_on_c, 1, 73, 90
3, 372284, Note_on_c, 1, 73, 0
3, 372288, Note_on_c, 1, 76, 90
3, 372476, Note_on_c, 1, 76, 0
3, 372480, Note_on_c, 1, 74, 90
3, 372668, Note_on_c, 1, 74, 0
3, 372672, Note_on_c, 1, 77, 90
3, 372860, Note_on_c, 1, 77, 0
3, 372864, Note_on_c, 1, 76, 90
3, 373052, Note_on_c, 1, 76, 0
3, 373056, Note_on_c, 1, 79, 90
3, 373244, Note_on_c, 1, 79, 0
3, 373248, Note_on_c, 1, 77, 90
3, 373436, Note_on_c, 1, 77, 0
3, 373440, Note_on_c, 1, 81, 90
3, 373628, Note_on_c, 1, 81, 0
3, 373632, Note_on_c, 1, 79, 90
3, 373820, Note_on_c, 1, 79, 0
3, 373824, Note_on_c, 1, 82, 90
3, 374012, Note_on_c, 1, 82, 0
3, 374016, Note_on_c, 1, 81, 90
3, 374204, Note_on_c, 1, 81, 0
3, 374208, Note_on_c, 1, 77, 90
3, 374396, Note_on_c, 1, 77, 0
3, 374400, Note_on_c, 1, 74, 90
3, 374588, Note_on_c, 1, 74, 0
3, 374592, Note_on_c, 1, 72, 90
3, 374780, Note_on_c, 1, 72, 0
3, 374784, Note_on_c, 1, 79, 90
3, 374784, Note_on_c, 1, 74, 90
3, 374784, Note_on_c, 1, 71, 90
3, 375164, Note_on_c, 1, 71, 0
3, 375164, Note_on_c, 1, 74, 0
3, 375164, Note_on_c, 1, 79, 0
3, 378624, Note_on_c, 1, 75, 80
3, 378624, Note_on_c, 1, 72, 80
3, 379004, Note_on_c, 1, 72, 0
3, 379004, Note_on_c, 1, 75, 0
3, 379008, Note_on_c, 1, 75, 80
3, 379008, Note_on_c, 1, 72, 80
3, 379388, Note_on_c, 1, 72, 0
3, 379388, Note_on_c, 1, 75, 0
3, 379392, Note_on_c, 1, 75, 80
3, 379392, Note_on_c, 1, 72, 80
3, 379392, Note_on_c, 1, 63, 80
3, 379392, Note_on_c, 1, 60, 80
3, 380156, Note_on_c, 1, 60, 0
3, 380156, Note_on_c, 1, 75, 0
3, 380156, Note_on_c, 1, 72, 0
3, 380156, Note_on_c, 1, 63, 0
3, 380160, Note_on_c, 1, 79, 80
3, 380160, Note_on_c, 1, 75, 80
3, 380160, Note_on_c, 1, 67, 80
3, 380160, Note_on_c, 1, 63, 80
3, 380348, Note_on_c, 1, 63, 0
3, 380348, Note_on_c, 1, 79, 0
3, 380348, Note_on_c, 1, 75, 0
3, 380348, Note_on_c, 1, 67, 0
3, 380352, Note_on_c, 1, 77, 80
3, 380352, Note_on_c, 1, 74, 80
3, 380352, Note_on_c, 1, 65, 80
3, 380352, Note_on_c, 1, 62, 80
3, 380528, Note_on_c, 1, 60, 80
3, 380540, Note_on_c, 1, 62, 0
3, 380540, Note_on_c, 1, 65, 0
3, 380540, Note_on_c, 1, 77, 0
3, 380540, Note_on_c, 1, 74, 0
3, 380544, Note_on_c, 1, 75, 80
3, 380544, Note_on_c, 1, 72, 80
3, 380544, Note_on_c, 1, 63, 80
3, 380716, Note_on_c, 1, 60, 0
3, 380732, Note_on_c, 1, 75, 0
3, 380732, Note_on_c, 1, 72, 0
3, 380732, Note_on_c, 1, 63, 0
3, 380736, Note_on_c, 1, 77, 80
3, 380736, Note_on_c, 1, 74, 80
3, 380736, Note_on_c, 1, 65, 80
3, 380736, Note_on_c, 1, 62, 80
3, 380924, Note_on_c, 1, 62, 0
3, 380924, Note_on_c, 1, 77, 0
3, 380924, Note_on_c, 1, 74, 0
3, 380924, Note_on_c, 1, 65, 0
3, 380928, Note_on_c, 1, 79, 80
3, 380928, Note_on_c, 1, 75, 80
3, 380928, Note_on_c, 1, 67, 80
3, 380928, Note_on_c, 1, 63, 80
3, 381116, Note_on_c, 1, 63, 0
3, 381116, Note_on_c, 1, 79, 0
3, 381116, Note_on_c, 1, 75, 0
3, 381116, Note_on_c, 1, 67, 0
3, 381120, Note_on_c, 1, 75, 80
3, 381120, Note_on_c, 1, 63, 80
3, 381308, Note_on_c, 1, 63, 0
3, 381308, Note_on_c, 1, 75, 0
3, 381312, Note_on_c, 1, 72, 80
3, 381312, Note_on_c, 1, 60, 80
3, 381692, Note_on_c, 1, 60, 0
3, 381692, Note_on_c, 1, 72, 0
3, 381696, Note_on_c, 1, 74, 80
3, 381696, Note_on_c, 1, 71, 80
3, 381696, Note_on_c, 1, 62, 80
3, 381696, Note_on_c, 1, 59, 80
3, 382076, Note_on_c, 1, 59, 0
3, 382076, Note_on_c, 1, 74, 0
3, 382076, Note_on_c, 1, 71, 0
3, 382076, Note_on_c, 1, 62, 0
3, 382080, Note_on_c, 1, 74, 80
3, 382080, Note_on_c, 1, 71, 80
3, 382080, Note_on_c, 1, 62, 80
3, 382080, Note_on_c, 1, 59, 80
3, 382460, Note_on_c, 1, 59, 0
3, 382460, Note_on_c, 1, 74, 0
3, 382460, Note_on_c, 1, 71, 0
3, 382460, Note_on_c, 1, 62, 0
3, 382464, Note_on_c, 1, 74, 80
3, 382464, Note_on_c, 1, 71, 80
3, 382464, Note_on_c, 1, 62, 80
3, 382464, Note_on_c, 1, 59, 80
3, 383228, Note_on_c, 1, 59, 0
3, 383228, Note_on_c, 1, 74, 0
3, 383228, Note_on_c, 1, 71, 0
3, 383228, Note_on_c, 1, 62, 0
3, 383232, Note_on_c, 1, 77, 80
3, 383232, Note_on_c, 1, 74, 80
3, 383232, Note_on_c, 1, 65, 80
3, 383232, Note_on_c, 1, 62, 80
3, 383420, Note_on_c, 1, 62, 0
3, 383420, Note_on_c, 1, 77, 0
3, 383420, Note_on_c, 1, 74, 0
3, 383420, Note_on_c, 1, 65, 0
3, 383424, Note_on_c, 1, 75, 80
3, 383424, Note_on_c, 1, 72, 80
3, 383424, Note_on_c, 1, 63, 80
3, 383424, Note_on_c, 1, 60, 80
3, 383600, Note_on_c, 1, 71, 80
3, 383600, Note_on_c, 1, 62, 80
3, 383600, Note_on_c, 1, 59, 80
3, 383612, Note_on_c, 1, 60, 0
3, 383612, Note_on_c, 1, 63, 0
3, 383612, Note_on_c, 1, 75, 0
3, 383612, Note_on_c, 1, 72, 0
3, 383616, Note_on_c, 1, 74, 80
3, 383788, Note_on_c, 1, 59, 0
3, 383788, Note_on_c, 1, 62, 0
3, 383788, Note_on_c, 1, 71, 0
3, 383804, Note_on_c, 1, 74, 0
3, 383808, Note_on_c, 1, 75, 80
3, 383808, Note_on_c, 1, 72, 80
3, 383808, Note_on_c, 1, 63, 80
3, 383824, Note_on_c, 1, 60, 80
3, 383996, Note_on_c, 1, 63, 0
3, 383996, Note_on_c, 1, 75, 0
3, 383996, Note_on_c, 1, 72, 0
3, 384000, Note_on_c, 1, 77, 80
3, 384000, Note_on_c, 1, 74, 80
3, 384000, Note_on_c, 1, 65, 80
3, 384000, Note_on_c, 1, 62, 80
3, 384012, Note_on_c, 1, 60, 0
3, 384188, Note_on_c, 1, 65, 0
3, 384188, Note_on_c, 1, 77, 0
3, 384188, Note_on_c, 1, 74, 0
3, 384188, Note_on_c, 1, 62, 0
3, 384192, Note_on_c, 1, 74, 80
3, 384192, Note_on_c, 1, 62, 80
3, 384380, Note_on_c, 1, 62, 0
3, 384380, Note_on_c, 1, 74, 0
3, 384384, Note_on_c, 1, 71, 80
3, 384384, Note_on_c, 1, 59, 80
3, 384764, Note_on_c, 1, 71, 0
3, 385148, Note_on_c, 1, 59, 0
3, 385536, Note_on_c, 1, 72, 92
3, 385536, Note_on_c, 1, 67, 92
3, 385916, Note_on_c, 1, 67, 0
3, 385916, Note_on_c, 1, 72, 0
3, 385920, Note_on_c, 1, 70, 92
3, 385920, Note_on_c, 1, 64, 92
3, 386300, Note_on_c, 1, 64, 0
3, 386300, Note_on_c, 1, 70, 0
3, 386304, Note_on_c, 1, 68, 92
3, 386304, Note_on_c, 1, 63, 92
3, 386684, Note_on_c, 1, 63, 0
3, 386684, Note_on_c, 1, 68, 0
3, 386688, Note_on_c, 1, 67, 92
3, 386688, Note_on_c, 1, 62, 92
3, 387068, Note_on_c, 1, 62, 0
3, 387068, Note_on_c, 1, 67, 0
3, 387264, Note_on_c, 1, 60, 92
3, 387452, Note_on_c, 1, 60, 0
3, 387456, Note_on_c, 1, 63, 92
3, 387644, Note_on_c, 1, 63, 0
3, 387648, Note_on_c, 1, 66, 92
3, 387836, Note_on_c, 1, 66, 0
3, 387840, Note_on_c, 1, 72, 92
3, 388028, Note_on_c, 1, 72, 0
3, 388032, Note_on_c, 1, 66, 92
3, 388220, Note_on_c, 1, 66, 0
3, 388224, Note_on_c, 1, 63, 92
3, 388412, Note_on_c, 1, 63, 0
3, 388416, Note_on_c, 1, 60, 92
3, 388604, Note_on_c, 1, 60, 0
3, 388800, Note_on_c, 1, 60, 92
3, 388988, Note_on_c, 1, 60, 0
3, 388992, Note_on_c, 1, 63, 92
3, 389180, Note_on_c, 1, 63, 0
3, 389184, Note_on_c, 1, 66, 92
3, 389372, Note_on_c, 1, 66, 0
3, 389376, Note_on_c, 1, 74, 92
3, 389564, Note_on_c, 1, 74, 0
3, 389568, Note_on_c, 1, 66, 92
3, 389756, Note_on_c, 1, 66, 0
3, 389760, Note_on_c, 1, 63, 92
3, 389948, Note_on_c, 1, 63, 0
3, 389952, Note_on_c, 1, 60, 92
3, 390140, Note_on_c, 1, 60, 0
3, 390336, Note_on_c, 1, 62, 92
3, 390524, Note_on_c, 1, 62, 0
3, 390544, Note_on_c, 1, 67, 92
3, 390720, Note_on_c, 1, 71, 92
3, 390732, Note_on_c, 1, 67, 0
3, 390908, Note_on_c, 1, 71, 0
3, 390912, Note_on_c, 1, 74, 92
3, 391100, Note_on_c, 1, 74, 0
3, 391104, Note_on_c, 1, 71, 92
3, 391292, Note_on_c, 1, 71, 0
3, 391296, Note_on_c, 1, 67, 92
3, 391484, Note_on_c, 1, 67, 0
3, 391488, Note_on_c, 1, 62, 92
3, 391676, Note_on_c, 1, 62, 0
3, 391680, Note_on_c, 1, 60, 92
3, 391868, Note_on_c, 1, 60, 0
3, 391872, Note_on_c, 1, 62, 92
3, 392060, Note_on_c, 1, 62, 0
3, 392064, Note_on_c, 1, 67, 92
3, 392252, Note_on_c, 1, 67, 0
3, 392256, Note_on_c, 1, 71, 92
3, 392444, Note_on_c, 1, 71, 0
3, 392448, Note_on_c, 1, 75, 92
3, 392636, Note_on_c, 1, 75, 0
3, 392640, Note_on_c, 1, 74, 92
3, 392828, Note_on_c, 1, 74, 0
3, 392832, Note_on_c, 1, 72, 92
3, 393020, Note_on_c, 1, 72, 0
3, 393024, Note_on_c, 1, 71, 92
3, 393212, Note_on_c, 1, 71, 0
3, 393216, Note_on_c, 1, 72, 92
3, 393404, Note_on_c, 1, 72, 0
3, 393408, Note_on_c, 1, 60, 92
3, 393596, Note_on_c, 1, 60, 0
3, 393600, Note_on_c, 1, 63, 92
3, 393788, Note_on_c, 1, 63, 0
3, 393792, Note_on_c, 1, 66, 92
3, 393980, Note_on_c, 1, 66, 0
3, 393984, Note_on_c, 1, 72, 92
3, 394172, Note_on_c, 1, 72, 0
3, 394176, Note_on_c, 1, 66, 92
3, 394364, Note_on_c, 1, 66, 0
3, 394368, Note_on_c, 1, 63, 92
3, 394556, Note_on_c, 1, 63, 0
3, 394560, Note_on_c, 1, 60, 92
3, 394748, Note_on_c, 1, 60, 0
3, 394944, Note_on_c, 1, 60, 92
3, 395132, Note_on_c, 1, 60, 0
3, 395136, Note_on_c, 1, 63, 92
3, 395324, Note_on_c, 1, 63, 0
3, 395328, Note_on_c, 1, 66, 92
3, 395516, Note_on_c, 1, 66, 0
3, 395520, Note_on_c, 1, 72, 92
3, 395708, Note_on_c, 1, 72, 0
3, 395712, Note_on_c, 1, 66, 92
3, 395900, Note_on_c, 1, 66, 0
3, 395904, Note_on_c, 1, 63, 92
3, 396092, Note_on_c, 1, 63, 0
3, 396096, Note_on_c, 1, 60, 92
3, 396284, Note_on_c, 1, 60, 0
3, 396480, Note_on_c, 1, 59, 92
3, 396668, Note_on_c, 1, 59, 0
3, 396672, Note_on_c, 1, 62, 92
3, 396860, Note_on_c, 1, 62, 0
3, 396864, Note_on_c, 1, 67, 92
3, 397052, Note_on_c, 1, 67, 0
3, 397248, Note_on_c, 1, 60, 92
3, 397436, Note_on_c, 1, 60, 0
3, 397440, Note_on_c, 1, 63, 92
3, 397628, Note_on_c, 1, 63, 0
3, 397632, Note_on_c, 1, 66, 92
3, 397820, Note_on_c, 1, 66, 0
3, 398016, Note_on_c, 1, 59, 92
3, 398204, Note_on_c, 1, 59, 0
3, 398208, Note_on_c, 1, 62, 92
3, 398396, Note_on_c, 1, 62, 0
3, 398400, Note_on_c, 1, 67, 92
3, 398588, Note_on_c, 1, 67, 0
3, 398784, Note_on_c, 1, 60, 61
3, 398972, Note_on_c, 1, 60, 0
3, 398976, Note_on_c, 1, 63, 61
3, 399164, Note_on_c, 1, 63, 0
3, 399168, Note_on_c, 1, 66, 61
3, 399356, Note_on_c, 1, 66, 0
3, 399552, Note_on_c, 1, 59, 61
3, 399740, Note_on_c, 1, 59, 0
3, 399744, Note_on_c, 1, 62, 61
3, 399932, Note_on_c, 1, 62, 0
3, 399936, Note_on_c, 1, 59, 61
3, 400124, Note_on_c, 1, 59, 0
3, 400320, Note_on_c, 1, 61, 61
3, 400508, Note_on_c, 1, 61, 0
3, 400512, Note_on_c, 1, 64, 61
3, 400700, Note_on_c, 1, 64, 0
3, 400704, Note_on_c, 1, 61, 61
3, 400892, Note_on_c, 1, 61, 0
3, 401088, Note_on_c, 1, 62, 61
3, 401276, Note_on_c, 1, 62, 0
3, 401280, Note_on_c, 1, 65, 61
3, 401468, Note_on_c, 1, 65, 0
3, 401472, Note_on_c, 1, 62, 61
3, 401660, Note_on_c, 1, 62, 0
3, 401856, Note_on_c, 1, 59, 61
3, 402044, Note_on_c, 1, 59, 0
3, 402048, Note_on_c, 1, 62, 61
3, 402236, Note_on_c, 1, 62, 0
3, 402240, Note_on_c, 1, 59, 61
3, 402428, Note_on_c, 1, 59, 0
3, 402432, Note_on_c, 1, 60, 71
3, 402620, Note_on_c, 1, 60, 0
3, 402624, Note_on_c, 1, 64, 71
3, 402812, Note_on_c, 1, 64, 0
3, 402816, Note_on_c, 1, 67, 71
3, 403004, Note_on_c, 1, 67, 0
3, 403008, Note_on_c, 1, 65, 71
3, 403196, Note_on_c, 1, 65, 0
3, 403200, Note_on_c, 1, 64, 71
3, 403388, Note_on_c, 1, 64, 0
3, 403392, Note_on_c, 1, 67, 71
3, 403580, Note_on_c, 1, 67, 0
3, 403584, Note_on_c, 1, 72, 71
3, 403772, Note_on_c, 1, 72, 0
3, 403776, Note_on_c, 1, 74, 71
3, 403964, Note_on_c, 1, 74, 0
3, 403968, Note_on_c, 1, 76, 71
3, 404156, Note_on_c, 1, 76, 0
3, 404160, Note_on_c, 1, 72, 71
3, 404348, Note_on_c, 1, 72, 0
3, 404352, Note_on_c, 1, 67, 71
3, 404540, Note_on_c, 1, 67, 0
3, 404544, Note_on_c, 1, 65, 71
3, 404732, Note_on_c, 1, 65, 0
3, 404736, Note_on_c, 1, 64, 71
3, 404924, Note_on_c, 1, 64, 0
3, 404928, Note_on_c, 1, 67, 71
3, 405116, Note_on_c, 1, 67, 0
3, 405120, Note_on_c, 1, 72, 71
3, 405308, Note_on_c, 1, 72, 0
3, 405312, Note_on_c, 1, 74, 71
3, 405500, Note_on_c, 1, 74, 0
3, 405504, Note_on_c, 1, 76, 71
3, 405692, Note_on_c, 1, 76, 0
3, 405696, Note_on_c, 1, 69, 71
3, 405884, Note_on_c, 1, 69, 0
3, 405888, Note_on_c, 1, 73, 71
3, 406076, Note_on_c, 1, 73, 0
3, 406080, Note_on_c, 1, 76, 71
3, 406268, Note_on_c, 1, 76, 0
3, 406272, Note_on_c, 1, 79, 71
3, 406460, Note_on_c, 1, 79, 0
3, 406464, Note_on_c, 1, 73, 71
3, 406652, Note_on_c, 1, 73, 0
3, 406656, Note_on_c, 1, 76, 71
3, 406844, Note_on_c, 1, 76, 0
3, 406848, Note_on_c, 1, 79, 71
3, 407036, Note_on_c, 1, 79, 0
3, 407040, Note_on_c, 1, 85, 71
3, 407228, Note_on_c, 1, 85, 0
3, 407232, Note_on_c, 1, 76, 71
3, 407420, Note_on_c, 1, 76, 0
3, 407424, Note_on_c, 1, 79, 71
3, 407612, Note_on_c, 1, 79, 0
3, 407616, Note_on_c, 1, 85, 71
3, 407804, Note_on_c, 1, 85, 0
3, 407808, Note_on_c, 1, 88, 71
3, 408188, Note_on_c, 1, 88, 0
3, 408576, Note_on_c, 1, 74, 71
3, 408764, Note_on_c, 1, 74, 0
3, 408768, Note_on_c, 1, 69, 71
3, 408956, Note_on_c, 1, 69, 0
3, 408960, Note_on_c, 1, 65, 71
3, 409148, Note_on_c, 1, 65, 0
3, 409152, Note_on_c, 1, 64, 71
3, 409340, Note_on_c, 1, 64, 0
3, 409344, Note_on_c, 1, 62, 71
3, 409532, Note_on_c, 1, 62, 0
3, 409536, Note_on_c, 1, 65, 71
3, 409724, Note_on_c, 1, 65, 0
3, 409728, Note_on_c, 1, 69, 71
3, 409916, Note_on_c, 1, 69, 0
3, 409920, Note_on_c, 1, 73, 71
3, 410108, Note_on_c, 1, 73, 0
3, 410112, Note_on_c, 1, 74, 71
3, 410300, Note_on_c, 1, 74, 0
3, 410304, Note_on_c, 1, 69, 71
3, 410492, Note_on_c, 1, 69, 0
3, 410496, Note_on_c, 1, 65, 71
3, 410684, Note_on_c, 1, 65, 0
3, 410688, Note_on_c, 1, 64, 71
3, 410876, Note_on_c, 1, 64, 0
3, 410880, Note_on_c, 1, 62, 71
3, 411068, Note_on_c, 1, 62, 0
3, 411072, Note_on_c, 1, 65, 71
3, 411260, Note_on_c, 1, 65, 0
3, 411264, Note_on_c, 1, 69, 71
3, 411452, Note_on_c, 1, 69, 0
3, 411456, Note_on_c, 1, 72, 71
3, 411644, Note_on_c, 1, 72, 0
3, 411648, Note_on_c, 1, 71, 71
3, 411836, Note_on_c, 1, 71, 0
3, 411840, Note_on_c, 1, 67, 71
3, 412028, Note_on_c, 1, 67, 0
3, 412032, Note_on_c, 1, 71, 71
3, 412220, Note_on_c, 1, 71, 0
3, 412224, Note_on_c, 1, 74, 71
3, 412412, Note_on_c, 1, 74, 0
3, 412416, Note_on_c, 1, 77, 71
3, 412604, Note_on_c, 1, 77, 0
3, 412608, Note_on_c, 1, 71, 71
3, 412796, Note_on_c, 1, 71, 0
3, 412800, Note_on_c, 1, 74, 71
3, 412988, Note_on_c, 1, 74, 0
3, 412992, Note_on_c, 1, 77, 71
3, 413180, Note_on_c, 1, 77, 0
3, 413184, Note_on_c, 1, 83, 71
3, 413372, Note_on_c, 1, 83, 0
3, 413376, Note_on_c, 1, 74, 71
3, 413564, Note_on_c, 1, 74, 0
3, 413568, Note_on_c, 1, 77, 71
3, 413756, Note_on_c, 1, 77, 0
3, 413760, Note_on_c, 1, 83, 71
3, 413948, Note_on_c, 1, 83, 0
3, 413952, Note_on_c, 1, 86, 71
3, 414332, Note_on_c, 1, 86, 0
3, 414912, Note_on_c, 1, 79, 92
3, 415100, Note_on_c, 1, 79, 0
3, 415104, Note_on_c, 1, 76, 92
3, 415292, Note_on_c, 1, 76, 0
3, 415296, Note_on_c, 1, 72, 92
3, 415484, Note_on_c, 1, 72, 0
3, 415488, Note_on_c, 1, 71, 92
3, 415676, Note_on_c, 1, 71, 0
3, 415680, Note_on_c, 1, 67, 92
3, 415868, Note_on_c, 1, 67, 0
3, 415872, Note_on_c, 1, 74, 92
3, 416060, Note_on_c, 1, 74, 0
3, 416064, Note_on_c, 1, 71, 92
3, 416252, Note_on_c, 1, 71, 0
3, 416256, Note_on_c, 1, 72, 92
3, 416444, Note_on_c, 1, 72, 0
3, 416448, Note_on_c, 1, 67, 92
3, 416636, Note_on_c, 1, 67, 0
3, 416640, Note_on_c, 1, 76, 92
3, 416828, Note_on_c, 1, 76, 0
3, 416832, Note_on_c, 1, 72, 92
3, 417020, Note_on_c, 1, 72, 0
3, 417024, Note_on_c, 1, 74, 92
3, 417212, Note_on_c, 1, 74, 0
3, 417216, Note_on_c, 1, 67, 92
3, 417404, Note_on_c, 1, 67, 0
3, 417408, Note_on_c, 1, 77, 92
3, 417596, Note_on_c, 1, 77, 0
3, 417600, Note_on_c, 1, 74, 92
3, 417788, Note_on_c, 1, 74, 0
3, 417792, Note_on_c, 1, 76, 92
3, 417980, Note_on_c, 1, 76, 0
3, 417984, Note_on_c, 1, 72, 92
3, 418172, Note_on_c, 1, 72, 0
3, 418176, Note_on_c, 1, 84, 92
3, 418364, Note_on_c, 1, 84, 0
3, 418368, Note_on_c, 1, 79, 92
3, 418556, Note_on_c, 1, 79, 0
3, 418560, Note_on_c, 1, 83, 92
3, 418748, Note_on_c, 1, 83, 0
3, 418752, Note_on_c, 1, 79, 92
3, 418940, Note_on_c, 1, 79, 0
3, 418944, Note_on_c, 1, 86, 92
3, 419132, Note_on_c, 1, 86, 0
3, 419136, Note_on_c, 1, 83, 92
3, 419324, Note_on_c, 1, 83, 0
3, 419328, Note_on_c, 1, 84, 92
3, 419516, Note_on_c, 1, 84, 0
3, 419520, Note_on_c, 1, 79, 92
3, 419708, Note_on_c, 1, 79, 0
3, 419712, Note_on_c, 1, 88, 92
3, 419900, Note_on_c, 1, 88, 0
3, 419904, Note_on_c, 1, 84, 92
3, 420092, Note_on_c, 1, 84, 0
3, 420096, Note_on_c, 1, 86, 92
3, 420284, Note_on_c, 1, 86, 0
3, 420288, Note_on_c, 1, 79, 92
3, 420476, Note_on_c, 1, 79, 0
3, 420480, Note_on_c, 1, 89, 92
3, 420668, Note_on_c, 1, 89, 0
3, 420672, Note_on_c, 1, 86, 92
3, 420860, Note_on_c, 1, 86, 0
3, 420864, Note_on_c, 1, 88, 92
3, 421052, Note_on_c, 1, 88, 0
3, 421056, Note_on_c, 1, 84, 92
3, 421244, Note_on_c, 1, 84, 0
3, 421248, Note_on_c, 1, 79, 92
3, 421436, Note_on_c, 1, 79, 0
3, 421440, Note_on_c, 1, 79, 92
3, 421628, Note_on_c, 1, 79, 0
3, 421632, Note_on_c, 1, 81, 92
3, 421820, Note_on_c, 1, 81, 0
3, 421824, Note_on_c, 1, 84, 92
3, 422012, Note_on_c, 1, 84, 0
3, 422016, Note_on_c, 1, 86, 92
3, 422204, Note_on_c, 1, 86, 0
3, 422208, Note_on_c, 1, 89, 92
3, 422396, Note_on_c, 1, 89, 0
3, 422400, Note_on_c, 1, 79, 92
3, 422588, Note_on_c, 1, 79, 0
3, 422592, Note_on_c, 1, 83, 92
3, 422780, Note_on_c, 1, 83, 0
3, 422784, Note_on_c, 1, 84, 92
3, 422972, Note_on_c, 1, 84, 0
3, 422976, Note_on_c, 1, 88, 92
3, 423164, Note_on_c, 1, 88, 0
3, 423168, Note_on_c, 1, 77, 92
3, 423356, Note_on_c, 1, 77, 0
3, 423360, Note_on_c, 1, 81, 92
3, 423548, Note_on_c, 1, 81, 0
3, 423552, Note_on_c, 1, 83, 92
3, 423740, Note_on_c, 1, 83, 0
3, 423744, Note_on_c, 1, 86, 92
3, 423932, Note_on_c, 1, 86, 0
3, 423936, Note_on_c, 1, 76, 92
3, 424124, Note_on_c, 1, 76, 0
3, 424128, Note_on_c, 1, 80, 92
3, 424316, Note_on_c, 1, 80, 0
3, 424320, Note_on_c, 1, 81, 92
3, 424508, Note_on_c, 1, 81, 0
3, 424512, Note_on_c, 1, 84, 92
3, 424700, Note_on_c, 1, 84, 0
3, 424704, Note_on_c, 1, 74, 92
3, 424892, Note_on_c, 1, 74, 0
3, 424896, Note_on_c, 1, 78, 92
3, 425084, Note_on_c, 1, 78, 0
3, 425088, Note_on_c, 1, 79, 92
3, 425276, Note_on_c, 1, 79, 0
3, 425280, Note_on_c, 1, 83, 92
3, 425468, Note_on_c, 1, 83, 0
3, 425472, Note_on_c, 1, 72, 92
3, 425660, Note_on_c, 1, 72, 0
3, 425664, Note_on_c, 1, 74, 92
3, 425852, Note_on_c, 1, 74, 0
3, 425856, Note_on_c, 1, 78, 92
3, 426044, Note_on_c, 1, 78, 0
3, 426048, Note_on_c, 1, 81, 92
3, 426236, Note_on_c, 1, 81, 0
3, 426240, Note_on_c, 1, 84, 92
3, 426428, Note_on_c, 1, 84, 0
3, 426432, Note_on_c, 1, 81, 92
3, 426620, Note_on_c, 1, 81, 0
3, 426624, Note_on_c, 1, 78, 92
3, 426812, Note_on_c, 1, 78, 0
3, 426816, Note_on_c, 1, 72, 92
3, 427004, Note_on_c, 1, 72, 0
3, 427008, Note_on_c, 1, 71, 92
3, 427196, Note_on_c, 1, 71, 0
3, 427200, Note_on_c, 1, 74, 92
3, 427388, Note_on_c, 1, 74, 0
3, 427392, Note_on_c, 1, 79, 92
3, 427580, Note_on_c, 1, 79, 0
3, 427584, Note_on_c, 1, 83, 92
3, 427772, Note_on_c, 1, 83, 0
3, 427776, Note_on_c, 1, 86, 92
3, 427964, Note_on_c, 1, 86, 0
3, 427968, Note_on_c, 1, 83, 92
3, 428156, Note_on_c, 1, 83, 0
3, 428160, Note_on_c, 1, 79, 92
3, 428348, Note_on_c, 1, 79, 0
3, 428352, Note_on_c, 1, 74, 92
3, 428540, Note_on_c, 1, 74, 0
3, 428544, Note_on_c, 1, 72, 92
3, 428732, Note_on_c, 1, 72, 0
3, 428736, Note_on_c, 1, 74, 92
3, 428924, Note_on_c, 1, 74, 0
3, 428928, Note_on_c, 1, 78, 92
3, 429116, Note_on_c, 1, 78, 0
3, 429120, Note_on_c, 1, 81, 92
3, 429308, Note_on_c, 1, 81, 0
3, 429312, Note_on_c, 1, 84, 92
3, 429500, Note_on_c, 1, 84, 0
3, 429504, Note_on_c, 1, 81, 92
3, 429692, Note_on_c, 1, 81, 0
3, 429696, Note_on_c, 1, 78, 92
3, 429884, Note_on_c, 1, 78, 0
3, 429888, Note_on_c, 1, 72, 92
3, 430076, Note_on_c, 1, 72, 0
3, 430080, Note_on_c, 1, 71, 92
3, 430268, Note_on_c, 1, 71, 0
3, 430272, Note_on_c, 1, 67, 92
3, 430460, Note_on_c, 1, 67, 0
3, 430464, Note_on_c, 1, 71, 92
3, 430652, Note_on_c, 1, 71, 0
3, 430656, Note_on_c, 1, 74, 92
3, 430844, Note_on_c, 1, 74, 0
3, 430848, Note_on_c, 1, 79, 92
3, 431036, Note_on_c, 1, 79, 0
3, 431040, Note_on_c, 1, 78, 92
3, 431228, Note_on_c, 1, 78, 0
3, 431232, Note_on_c, 1, 79, 92
3, 431420, Note_on_c, 1, 79, 0
3, 431424, Note_on_c, 1, 78, 92
3, 431612, Note_on_c, 1, 78, 0
3, 431616, Note_on_c, 1, 79, 92
3, 431804, Note_on_c, 1, 79, 0
3, 431808, Note_on_c, 1, 67, 92
3, 431996, Note_on_c, 1, 67, 0
3, 432000, Note_on_c, 1, 71, 92
3, 432188, Note_on_c, 1, 71, 0
3, 432192, Note_on_c, 1, 74, 92
3, 432380, Note_on_c, 1, 74, 0
3, 432384, Note_on_c, 1, 79, 92
3, 432384, Note_on_c, 1, 67, 92
3, 432572, Note_on_c, 1, 67, 0
3, 432572, Note_on_c, 1, 79, 0
3, 432576, Note_on_c, 1, 78, 92
3, 432592, Note_on_c, 1, 66, 92
3, 432764, Note_on_c, 1, 78, 0
3, 432768, Note_on_c, 1, 79, 92
3, 432768, Note_on_c, 1, 67, 92
3, 432780, Note_on_c, 1, 66, 0
3, 432956, Note_on_c, 1, 67, 0
3, 432956, Note_on_c, 1, 79, 0
3, 432960, Note_on_c, 1, 78, 92
3, 432960, Note_on_c, 1, 66, 92
3, 433148, Note_on_c, 1, 66, 0
3, 433148, Note_on_c, 1, 78, 0
3, 433152, Note_on_c, 1, 79, 92
3, 433152, Note_on_c, 1, 67, 92
3, 433340, Note_on_c, 1, 67, 0
3, 433532, Note_on_c, 1, 79, 0
3, 433536, Note_on_c, 1, 67, 92
3, 433724, Note_on_c, 1, 67, 0
3, 433728, Note_on_c, 1, 69, 92
3, 433916, Note_on_c, 1, 69, 0
3, 433920, Note_on_c, 1, 65, 92
3, 434108, Note_on_c, 1, 65, 0
3, 434112, Note_on_c, 1, 64, 92
3, 434300, Note_on_c, 1, 64, 0
3, 434304, Note_on_c, 1, 65, 92
3, 434492, Note_on_c, 1, 65, 0
3, 434496, Note_on_c, 1, 67, 92
3, 434684, Note_on_c, 1, 67, 0
3, 434688, Note_on_c, 1, 64, 92
3, 434876, Note_on_c, 1, 64, 0
3, 434880, Note_on_c, 1, 63, 92
3, 435068, Note_on_c, 1, 63, 0
3, 435072, Note_on_c, 1, 64, 92
3, 435260, Note_on_c, 1, 64, 0
3, 435264, Note_on_c, 1, 65, 92
3, 435452, Note_on_c, 1, 65, 0
3, 435456, Note_on_c, 1, 62, 92
3, 435644, Note_on_c, 1, 62, 0
3, 435648, Note_on_c, 1, 61, 92
3, 435836, Note_on_c, 1, 61, 0
3, 435840, Note_on_c, 1, 62, 92
3, 436028, Note_on_c, 1, 62, 0
3, 436032, Note_on_c, 1, 64, 92
3, 436220, Note_on_c, 1, 64, 0
3, 436224, Note_on_c, 1, 60, 92
3, 436604, Note_on_c, 1, 60, 0
3, 437760, Note_on_c, 1, 59, 87
3, 437760, Note_on_c, 1, 55, 87
3, 438524, Note_on_c, 1, 59, 0
3, 438528, Note_on_c, 1, 60, 87
3, 438908, Note_on_c, 1, 60, 0
3, 438908, Note_on_c, 1, 55, 0
3, 439296, Note_on_c, 1, 59, 87
3, 439296, Note_on_c, 1, 55, 87
3, 440060, Note_on_c, 1, 59, 0
3, 440064, Note_on_c, 1, 60, 87
3, 440444, Note_on_c, 1, 60, 0
3, 440444, Note_on_c, 1, 55, 0
3, 441024, Note_on_c, 1, 79, 87
3, 441212, Note_on_c, 1, 79, 0
3, 441216, Note_on_c, 1, 78, 87
3, 441404, Note_on_c, 1, 78, 0
3, 441408, Note_on_c, 1, 79, 87
3, 441596, Note_on_c, 1, 79, 0
3, 441600, Note_on_c, 1, 78, 87
3, 441788, Note_on_c, 1, 78, 0
3, 441792, Note_on_c, 1, 79, 87
3, 441980, Note_on_c, 1, 79, 0
3, 441984, Note_on_c, 1, 78, 87
3, 442172, Note_on_c, 1, 78, 0
3, 442176, Note_on_c, 1, 79, 87
3, 442364, Note_on_c, 1, 79, 0
3, 442368, Note_on_c, 1, 67, 87
3, 443900, Note_on_c, 1, 67, 0
3, 443904, Note_on_c, 1, 67, 87
3, 443904, Note_on_c, 1, 64, 87
3, 443904, Note_on_c, 1, 60, 87
3, 444668, Note_on_c, 1, 60, 0
3, 444672, Note_on_c, 1, 65, 87
3, 444672, Note_on_c, 1, 62, 87
3, 445052, Note_on_c, 1, 62, 0
3, 445052, Note_on_c, 1, 65, 0
3, 445436, Note_on_c, 1, 64, 0
3, 445436, Note_on_c, 1, 67, 0
3, 445440, Note_on_c, 1, 64, 87
3, 445440, Note_on_c, 1, 60, 87
3, 446204, Note_on_c, 1, 60, 0
3, 446204, Note_on_c, 1, 64, 0
3, 446208, Note_on_c, 1, 65, 87
3, 446208, Note_on_c, 1, 62, 87
3, 446588, Note_on_c, 1, 62, 0
3, 446588, Note_on_c, 1, 65, 0
3, 446592, Note_on_c, 1, 67, 87
3, 446592, Note_on_c, 1, 59, 87
3, 446972, Note_on_c, 1, 59, 0
3, 446972, Note_on_c, 1, 67, 0
3, 446976, Note_on_c, 1, 65, 87
3, 446976, Note_on_c, 1, 62, 87
3, 447168, Note_on_c, 1, 72, 87
3, 447356, Note_on_c, 1, 72, 0
3, 447360, Note_on_c, 1, 71, 87
3, 447548, Note_on_c, 1, 71, 0
3, 447552, Note_on_c, 1, 72, 87
3, 447740, Note_on_c, 1, 72, 0
3, 447740, Note_on_c, 1, 62, 0
3, 447740, Note_on_c, 1, 65, 0
3, 447744, Note_on_c, 1, 64, 87
3, 447744, Note_on_c, 1, 60, 87
3, 447744, Note_on_c, 1, 71, 87
3, 447932, Note_on_c, 1, 71, 0
3, 447936, Note_on_c, 1, 72, 87
3, 448124, Note_on_c, 1, 72, 0
3, 448124, Note_on_c, 1, 60, 0
3, 448124, Note_on_c, 1, 64, 0
3, 448128, Note_on_c, 1, 71, 87
3, 448316, Note_on_c, 1, 71, 0
3, 448320, Note_on_c, 1, 72, 87
3, 448508, Note_on_c, 1, 72, 0
3, 448896, Note_on_c, 1, 55, 87
3, 449276, Note_on_c, 1, 55, 0
3, 449280, Note_on_c, 1, 67, 87
3, 449660, Note_on_c, 1, 67, 0
3, 449664, Note_on_c, 1, 64, 87
3, 450044, Note_on_c, 1, 64, 0
3, 450048, Note_on_c, 1, 62, 92
3, 450236, Note_on_c, 1, 62, 0
3, 450240, Note_on_c, 1, 61, 92
3, 450428, Note_on_c, 1, 61, 0
3, 450432, Note_on_c, 1, 62, 92
3, 450620, Note_on_c, 1, 62, 0
3, 450624, Note_on_c, 1, 65, 92
3, 450812, Note_on_c, 1, 65, 0
3, 450816, Note_on_c, 1, 69, 92
3, 451004, Note_on_c, 1, 69, 0
3, 451008, Note_on_c, 1, 69, 92
3, 451196, Note_on_c, 1, 69, 0
3, 451200, Note_on_c, 1, 65, 92
3, 451388, Note_on_c, 1, 65, 0
3, 451392, Note_on_c, 1, 62, 92
3, 451580, Note_on_c, 1, 62, 0
3, 451584, Note_on_c, 1, 60, 92
3, 451772, Note_on_c, 1, 60, 0
3, 451776, Note_on_c, 1, 59, 92
3, 451964, Note_on_c, 1, 59, 0
3, 451968, Note_on_c, 1, 60, 92
3, 452156, Note_on_c, 1, 60, 0
3, 452160, Note_on_c, 1, 64, 92
3, 452348, Note_on_c, 1, 64, 0
3, 452352, Note_on_c, 1, 67, 92
3, 452540, Note_on_c, 1, 67, 0
3, 452544, Note_on_c, 1, 67, 92
3, 452732, Note_on_c, 1, 67, 0
3, 452736, Note_on_c, 1, 64, 92
3, 452924, Note_on_c, 1, 64, 0
3, 452928, Note_on_c, 1, 60, 92
3, 453116, Note_on_c, 1, 60, 0
3, 453120, Note_on_c, 1, 65, 92
3, 453308, Note_on_c, 1, 65, 0
3, 453312, Note_on_c, 1, 62, 92
3, 453500, Note_on_c, 1, 62, 0
3, 453504, Note_on_c, 1, 65, 92
3, 453692, Note_on_c, 1, 65, 0
3, 453696, Note_on_c, 1, 62, 92
3, 453884, Note_on_c, 1, 62, 0
3, 453888, Note_on_c, 1, 59, 92
3, 454076, Note_on_c, 1, 59, 0
3, 454080, Note_on_c, 1, 59, 92
3, 454268, Note_on_c, 1, 59, 0
3, 454272, Note_on_c, 1, 60, 92
3, 454460, Note_on_c, 1, 60, 0
3, 454464, Note_on_c, 1, 62, 92
3, 454652, Note_on_c, 1, 62, 0
3, 454656, Note_on_c, 1, 64, 92
3, 455036, Note_on_c, 1, 64, 0
3, 455040, Note_on_c, 1, 74, 92
3, 455040, Note_on_c, 1, 71, 92
3, 455420, Note_on_c, 1, 71, 0
3, 455420, Note_on_c, 1, 74, 0
3, 455424, Note_on_c, 1, 72, 92
3, 455424, Note_on_c, 1, 69, 92
3, 455804, Note_on_c, 1, 69, 0
3, 455804, Note_on_c, 1, 72, 0
3, 455808, Note_on_c, 1, 74, 92
3, 455808, Note_on_c, 1, 71, 92
3, 456188, Note_on_c, 1, 71, 0
3, 456188, Note_on_c, 1, 74, 0
3, 456192, Note_on_c, 1, 72, 92
3, 456208, Note_on_c, 1, 69, 92
3, 456572, Note_on_c, 1, 72, 0
3, 456588, Note_on_c, 1, 69, 0
3, 456960, Note_on_c, 1, 74, 92
3, 456960, Note_on_c, 1, 72, 92
3, 456960, Note_on_c, 1, 69, 92
3, 456960, Note_on_c, 1, 65, 92
3, 457340, Note_on_c, 1, 65, 0
3, 457340, Note_on_c, 1, 74, 0
3, 457340, Note_on_c, 1, 72, 0
3, 457340, Note_on_c, 1, 69, 0
3, 457728, Note_on_c, 1, 62, 87
3, 457916, Note_on_c, 1, 62, 0
3, 457920, Note_on_c, 1, 65, 87
3, 458108, Note_on_c, 1, 65, 0
3, 458112, Note_on_c, 1, 64, 87
3, 458300, Note_on_c, 1, 64, 0
3, 458304, Note_on_c, 1, 65, 87
3, 458492, Note_on_c, 1, 65, 0
3, 458496, Note_on_c, 1, 67, 87
3, 458684, Note_on_c, 1, 67, 0
3, 458688, Note_on_c, 1, 65, 87
3, 458876, Note_on_c, 1, 65, 0
3, 458880, Note_on_c, 1, 64, 87
3, 459068, Note_on_c, 1, 64, 0
3, 459072, Note_on_c, 1, 65, 87
3, 459260, Note_on_c, 1, 65, 0
3, 459264, Note_on_c, 1, 64, 92
3, 459452, Note_on_c, 1, 64, 0
3, 459456, Note_on_c, 1, 76, 92
3, 459644, Note_on_c, 1, 76, 0
3, 459648, Note_on_c, 1, 74, 92
3, 459836, Note_on_c, 1, 74, 0
3, 459840, Note_on_c, 1, 72, 92
3, 460028, Note_on_c, 1, 72, 0
3, 460032, Note_on_c, 1, 71, 92
3, 460220, Note_on_c, 1, 71, 0
3, 460224, Note_on_c, 1, 69, 92
3, 460412, Note_on_c, 1, 69, 0
3, 460416, Note_on_c, 1, 67, 92
3, 460604, Note_on_c, 1, 67, 0
3, 460608, Note_on_c, 1, 65, 92
3, 460796, Note_on_c, 1, 65, 0
3, 460800, Note_on_c, 1, 64, 71
3, 460992, Note_on_c, 1, 67, 71
3, 461180, Note_on_c, 1, 67, 0
3, 461180, Note_on_c, 1, 64, 0
3, 461184, Note_on_c, 1, 72, 71
3, 461184, Note_on_c, 1, 64, 71
3, 461372, Note_on_c, 1, 64, 0
3, 461376, Note_on_c, 1, 67, 71
3, 461564, Note_on_c, 1, 67, 0
3, 461564, Note_on_c, 1, 72, 0
3, 461568, Note_on_c, 1, 72, 71
3, 461568, Note_on_c, 1, 60, 71
3, 461756, Note_on_c, 1, 60, 0
3, 461760, Note_on_c, 1, 67, 71
3, 461948, Note_on_c, 1, 67, 0
3, 461948, Note_on_c, 1, 72, 0
3, 461952, Note_on_c, 1, 72, 71
3, 461952, Note_on_c, 1, 64, 71
3, 462140, Note_on_c, 1, 64, 0
3, 462144, Note_on_c, 1, 67, 71
3, 462332, Note_on_c, 1, 67, 0
3, 462332, Note_on_c, 1, 72, 0
3, 462336, Note_on_c, 1, 74, 71
3, 462336, Note_on_c, 1, 55, 71
3, 462524, Note_on_c, 1, 55, 0
3, 462528, Note_on_c, 1, 67, 71
3, 462716, Note_on_c, 1, 67, 0
3, 462716, Note_on_c, 1, 74, 0
3, 462720, Note_on_c, 1, 74, 71
3, 462720, Note_on_c, 1, 65, 71
3, 462908, Note_on_c, 1, 65, 0
3, 462908, Note_on_c, 1, 74, 0
3, 462912, Note_on_c, 1, 76, 71
3, 462912, Note_on_c, 1, 67, 71
3, 463100, Note_on_c, 1, 67, 0
3, 463100, Note_on_c, 1, 76, 0
3, 463104, Note_on_c, 1, 72, 71
3, 463104, Note_on_c, 1, 64, 71
3, 463292, Note_on_c, 1, 64, 0
3, 463296, Note_on_c, 1, 67, 71
3, 463484, Note_on_c, 1, 67, 0
3, 463484, Note_on_c, 1, 72, 0
3, 463488, Note_on_c, 1, 72, 71
3, 463488, Note_on_c, 1, 60, 71
3, 463676, Note_on_c, 1, 60, 0
3, 463680, Note_on_c, 1, 67, 71
3, 463868, Note_on_c, 1, 67, 0
3, 463868, Note_on_c, 1, 72, 0
3, 463872, Note_on_c, 1, 74, 71
3, 463872, Note_on_c, 1, 55, 71
3, 464060, Note_on_c, 1, 55, 0
3, 464064, Note_on_c, 1, 67, 71
3, 464252, Note_on_c, 1, 67, 0
3, 464252, Note_on_c, 1, 74, 0
3, 464256, Note_on_c, 1, 74, 71
3, 464256, Note_on_c, 1, 65, 71
3, 464444, Note_on_c, 1, 65, 0
3, 464444, Note_on_c, 1, 74, 0
3, 464448, Note_on_c, 1, 76, 71
3, 464448, Note_on_c, 1, 67, 71
3, 464636, Note_on_c, 1, 67, 0
3, 464636, Note_on_c, 1, 76, 0
3, 464640, Note_on_c, 1, 72, 71
3, 464640, Note_on_c, 1, 64, 71
3, 464828, Note_on_c, 1, 64, 0
3, 464832, Note_on_c, 1, 67, 71
3, 465020, Note_on_c, 1, 67, 0
3, 465020, Note_on_c, 1, 72, 0
3, 465024, Note_on_c, 1, 77, 71
3, 465024, Note_on_c, 1, 74, 71
3, 465024, Note_on_c, 1, 59, 71
3, 465024, Note_on_c, 1, 55, 71
3, 465212, Note_on_c, 1, 55, 0
3, 465212, Note_on_c, 1, 59, 0
3, 465216, Note_on_c, 1, 67, 71
3, 465404, Note_on_c, 1, 67, 0
3, 465404, Note_on_c, 1, 74, 0
3, 465404, Note_on_c, 1, 77, 0
3, 465408, Note_on_c, 1, 76, 71
3, 465408, Note_on_c, 1, 72, 71
3, 465408, Note_on_c, 1, 60, 71
3, 465596, Note_on_c, 1, 60, 0
3, 465600, Note_on_c, 1, 67, 71
3, 465788, Note_on_c, 1, 67, 0
3, 465792, Note_on_c, 1, 66, 71
3, 465980, Note_on_c, 1, 66, 0
3, 465984, Note_on_c, 1, 67, 71
3, 466172, Note_on_c, 1, 67, 0
3, 466172, Note_on_c, 1, 72, 0
3, 466172, Note_on_c, 1, 76, 0
3, 466176, Note_on_c, 1, 74, 71
3, 466176, Note_on_c, 1, 71, 71
3, 466176, Note_on_c, 1, 66, 71
3, 466364, Note_on_c, 1, 66, 0
3, 466368, Note_on_c, 1, 67, 71
3, 466556, Note_on_c, 1, 67, 0
3, 466556, Note_on_c, 1, 71, 0
3, 466556, Note_on_c, 1, 74, 0
3, 466560, Note_on_c, 1, 66, 71
3, 466748, Note_on_c, 1, 66, 0
3, 466752, Note_on_c, 1, 67, 71
3, 466940, Note_on_c, 1, 67, 0
3, 466944, Note_on_c, 1, 55, 71
3, 467132, Note_on_c, 1, 55, 0
3, 467136, Note_on_c, 1, 62, 71
3, 467324, Note_on_c, 1, 62, 0
3, 467328, Note_on_c, 1, 74, 71
3, 467328, Note_on_c, 1, 71, 71
3, 467328, Note_on_c, 1, 59, 71
3, 467516, Note_on_c, 1, 59, 0
3, 467520, Note_on_c, 1, 62, 71
3, 467708, Note_on_c, 1, 62, 0
3, 467708, Note_on_c, 1, 71, 0
3, 467708, Note_on_c, 1, 74, 0
3, 467712, Note_on_c, 1, 74, 71
3, 467712, Note_on_c, 1, 71, 71
3, 467712, Note_on_c, 1, 55, 71
3, 467900, Note_on_c, 1, 55, 0
3, 467904, Note_on_c, 1, 62, 71
3, 468092, Note_on_c, 1, 62, 0
3, 468092, Note_on_c, 1, 71, 0
3, 468092, Note_on_c, 1, 74, 0
3, 468096, Note_on_c, 1, 74, 71
3, 468096, Note_on_c, 1, 71, 71
3, 468096, Note_on_c, 1, 59, 71
3, 468284, Note_on_c, 1, 59, 0
3, 468288, Note_on_c, 1, 62, 71
3, 468476, Note_on_c, 1, 62, 0
3, 468476, Note_on_c, 1, 71, 0
3, 468476, Note_on_c, 1, 74, 0
3, 468480, Note_on_c, 1, 76, 71
3, 468480, Note_on_c, 1, 72, 71
3, 468480, Note_on_c, 1, 55, 71
3, 468668, Note_on_c, 1, 55, 0
3, 468672, Note_on_c, 1, 64, 71
3, 468860, Note_on_c, 1, 64, 0
3, 468860, Note_on_c, 1, 72, 0
3, 468860, Note_on_c, 1, 76, 0
3, 468864, Note_on_c, 1, 76, 71
3, 468864, Note_on_c, 1, 60, 71
3, 469052, Note_on_c, 1, 60, 0
3, 469052, Note_on_c, 1, 76, 0
3, 469056, Note_on_c, 1, 77, 71
3, 469056, Note_on_c, 1, 64, 71
3, 469232, Note_on_c, 1, 55, 71
3, 469244, Note_on_c, 1, 64, 0
3, 469244, Note_on_c, 1, 77, 0
3, 469248, Note_on_c, 1, 74, 71
3, 469420, Note_on_c, 1, 55, 0
3, 469440, Note_on_c, 1, 62, 71
3, 469616, Note_on_c, 1, 59, 71
3, 469628, Note_on_c, 1, 62, 0
3, 469628, Note_on_c, 1, 74, 0
3, 469632, Note_on_c, 1, 74, 71
3, 469632, Note_on_c, 1, 71, 71
3, 469804, Note_on_c, 1, 59, 0
3, 469824, Note_on_c, 1, 62, 71
3, 470012, Note_on_c, 1, 62, 0
3, 470012, Note_on_c, 1, 71, 0
3, 470012, Note_on_c, 1, 74, 0
3, 470016, Note_on_c, 1, 76, 71
3, 470016, Note_on_c, 1, 72, 71
3, 470016, Note_on_c, 1, 55, 71
3, 470204, Note_on_c, 1, 55, 0
3, 470208, Note_on_c, 1, 64, 71
3, 470396, Note_on_c, 1, 64, 0
3, 470396, Note_on_c, 1, 72, 0
3, 470396, Note_on_c, 1, 76, 0
3, 470400, Note_on_c, 1, 76, 71
3, 470400, Note_on_c, 1, 60, 71
3, 470588, Note_on_c, 1, 60, 0
3, 470588, Note_on_c, 1, 76, 0
3, 470592, Note_on_c, 1, 77, 71
3, 470592, Note_on_c, 1, 64, 71
3, 470768, Note_on_c, 1, 55, 71
3, 470780, Note_on_c, 1, 64, 0
3, 470780, Note_on_c, 1, 77, 0
3, 470784, Note_on_c, 1, 74, 71
3, 470956, Note_on_c, 1, 55, 0
3, 470976, Note_on_c, 1, 62, 71
3, 471164, Note_on_c, 1, 62, 0
3, 471164, Note_on_c, 1, 74, 0
3, 471168, Note_on_c, 1, 79, 71
3, 471168, Note_on_c, 1, 71, 71
3, 471168, Note_on_c, 1, 59, 71
3, 471168, Note_on_c, 1, 55, 71
3, 471356, Note_on_c, 1, 55, 0
3, 471356, Note_on_c, 1, 59, 0
3, 471360, Note_on_c, 1, 62, 71
3, 471548, Note_on_c, 1, 62, 0
3, 471548, Note_on_c, 1, 71, 0
3, 471548, Note_on_c, 1, 79, 0
3, 471552, Note_on_c, 1, 77, 71
3, 471552, Note_on_c, 1, 74, 71
3, 472316, Note_on_c, 1, 74, 0
3, 472316, Note_on_c, 1, 77, 0
3, 472320, Note_on_c, 1, 76, 71
3, 472320, Note_on_c, 1, 72, 71
3, 472700, Note_on_c, 1, 72, 0
3, 472700, Note_on_c, 1, 76, 0
3, 473280, Note_on_c, 1, 79, 71
3, 473468, Note_on_c, 1, 79, 0
3, 473472, Note_on_c, 1, 78, 71
3, 473660, Note_on_c, 1, 78, 0
3, 473664, Note_on_c, 1, 79, 71
3, 473852, Note_on_c, 1, 79, 0
3, 473856, Note_on_c, 1, 77, 71
3, 474044, Note_on_c, 1, 77, 0
3, 474048, Note_on_c, 1, 76, 71
3, 474236, Note_on_c, 1, 76, 0
3, 474240, Note_on_c, 1, 74, 71
3, 474428, Note_on_c, 1, 74, 0
3, 474432, Note_on_c, 1, 72, 71
3, 474620, Note_on_c, 1, 72, 0
3, 474624, Note_on_c, 1, 81, 92
3, 474812, Note_on_c, 1, 81, 0
3, 474816, Note_on_c, 1, 80, 92
3, 475004, Note_on_c, 1, 80, 0
3, 475008, Note_on_c, 1, 81, 92
3, 475196, Note_on_c, 1, 81, 0
3, 475200, Note_on_c, 1, 77, 92
3, 475388, Note_on_c, 1, 77, 0
3, 475392, Note_on_c, 1, 74, 92
3, 475772, Note_on_c, 1, 74, 0
3, 476160, Note_on_c, 1, 79, 92
3, 476348, Note_on_c, 1, 79, 0
3, 476352, Note_on_c, 1, 77, 92
3, 476540, Note_on_c, 1, 77, 0
3, 476544, Note_on_c, 1, 79, 92
3, 476732, Note_on_c, 1, 79, 0
3, 476736, Note_on_c, 1, 76, 92
3, 476924, Note_on_c, 1, 76, 0
3, 476928, Note_on_c, 1, 72, 92
3, 477308, Note_on_c, 1, 72, 0
3, 477696, Note_on_c, 1, 71, 92
3, 477884, Note_on_c, 1, 71, 0
3, 477888, Note_on_c, 1, 72, 92
3, 478076, Note_on_c, 1, 72, 0
3, 478080, Note_on_c, 1, 74, 92
3, 478268, Note_on_c, 1, 74, 0
3, 478272, Note_on_c, 1, 76, 92
3, 478460, Note_on_c, 1, 76, 0
3, 478464, Note_on_c, 1, 77, 92
3, 478844, Note_on_c, 1, 77, 0
3, 479424, Note_on_c, 1, 76, 92
3, 479600, Note_on_c, 1, 62, 92
3, 479612, Note_on_c, 1, 76, 0
3, 479616, Note_on_c, 1, 77, 92
3, 479788, Note_on_c, 1, 62, 0
3, 479804, Note_on_c, 1, 77, 0
3, 479808, Note_on_c, 1, 79, 92
3, 479808, Note_on_c, 1, 64, 92
3, 479996, Note_on_c, 1, 64, 0
3, 479996, Note_on_c, 1, 79, 0
3, 480000, Note_on_c, 1, 81, 92
3, 480000, Note_on_c, 1, 65, 92
3, 480188, Note_on_c, 1, 65, 0
3, 480188, Note_on_c, 1, 81, 0
3, 480192, Note_on_c, 1, 83, 92
3, 480192, Note_on_c, 1, 67, 92
3, 480380, Note_on_c, 1, 67, 0
3, 480380, Note_on_c, 1, 83, 0
3, 480384, Note_on_c, 1, 84, 92
3, 480384, Note_on_c, 1, 69, 92
3, 480572, Note_on_c, 1, 69, 0
3, 480572, Note_on_c, 1, 84, 0
3, 480576, Note_on_c, 1, 86, 92
3, 480576, Note_on_c, 1, 71, 92
3, 480764, Note_on_c, 1, 71, 0
3, 480764, Note_on_c, 1, 86, 0
3, 480768, Note_on_c, 1, 88, 92
3, 480768, Note_on_c, 1, 72, 92
3, 480956, Note_on_c, 1, 72, 0
3, 480956, Note_on_c, 1, 88, 0
3, 480960, Note_on_c, 1, 86, 92
3, 480960, Note_on_c, 1, 71, 92
3, 481148, Note_on_c, 1, 71, 0
3, 481148, Note_on_c, 1, 86, 0
3, 481152, Note_on_c, 1, 84, 92
3, 481152, Note_on_c, 1, 69, 92
3, 481340, Note_on_c, 1, 69, 0
3, 481340, Note_on_c, 1, 84, 0
3, 481344, Note_on_c, 1, 83, 92
3, 481344, Note_on_c, 1, 67, 92
3, 481532, Note_on_c, 1, 67, 0
3, 481532, Note_on_c, 1, 83, 0
3, 481536, Note_on_c, 1, 81, 92
3, 481536, Note_on_c, 1, 65, 92
3, 481724, Note_on_c, 1, 65, 0
3, 481724, Note_on_c, 1, 81, 0
3, 481728, Note_on_c, 1, 79, 92
3, 481728, Note_on_c, 1, 64, 92
3, 481916, Note_on_c, 1, 64, 0
3, 481916, Note_on_c, 1, 79, 0
3, 481920, Note_on_c, 1, 77, 92
3, 481920, Note_on_c, 1, 62, 92
3, 482108, Note_on_c, 1, 62, 0
3, 482108, Note_on_c, 1, 77, 0
3, 482112, Note_on_c, 1, 76, 92
3, 482112, Note_on_c, 1, 60, 92
3, 482300, Note_on_c, 1, 60, 0
3, 482300, Note_on_c, 1, 76, 0
3, 482304, Note_on_c, 1, 74, 92
3, 482364, Note_on_c, 1, 74, 0
3, 482368, Note_on_c, 1, 76, 92
3, 482428, Note_on_c, 1, 76, 0
3, 482432, Note_on_c, 1, 74, 92
3, 482492, Note_on_c, 1, 74, 0
3, 482496, Note_on_c, 1, 76, 92
3, 482556, Note_on_c, 1, 76, 0
3, 482560, Note_on_c, 1, 74, 92
3, 482620, Note_on_c, 1, 74, 0
3, 482624, Note_on_c, 1, 76, 92
3, 482684, Note_on_c, 1, 76, 0
3, 482688, Note_on_c, 1, 74, 92
3, 482748, Note_on_c, 1, 74, 0
3, 482752, Note_on_c, 1, 76, 92
3, 482812, Note_on_c, 1, 76, 0
3, 482816, Note_on_c, 1, 74, 92
3, 482876, Note_on_c, 1, 74, 0
3, 482880, Note_on_c, 1, 76, 92
3, 482940, Note_on_c, 1, 76, 0
3, 482944, Note_on_c, 1, 74, 92
3, 483004, Note_on_c, 1, 74, 0
3, 483008, Note_on_c, 1, 76, 92
3, 483068, Note_on_c, 1, 76, 0
3, 483072, Note_on_c, 1, 74, 92
3, 483132, Note_on_c, 1, 74, 0
3, 483136, Note_on_c, 1, 76, 92
3, 483196, Note_on_c, 1, 76, 0
3, 483200, Note_on_c, 1, 74, 92
3, 483260, Note_on_c, 1, 74, 0
3, 483264, Note_on_c, 1, 76, 92
3, 483324, Note_on_c, 1, 76, 0
3, 483328, Note_on_c, 1, 74, 92
3, 483388, Note_on_c, 1, 74, 0
3, 483392, Note_on_c, 1, 76, 92
3, 483452, Note_on_c, 1, 76, 0
3, 483456, Note_on_c, 1, 74, 92
3, 483516, Note_on_c, 1, 74, 0
3, 483520, Note_on_c, 1, 76, 92
3, 483580, Note_on_c, 1, 76, 0
3, 483584, Note_on_c, 1, 74, 92
3, 483644, Note_on_c, 1, 74, 0
3, 483648, Note_on_c, 1, 72, 92
3, 483740, Note_on_c, 1, 72, 0
3, 483744, Note_on_c, 1, 74, 92
3, 483836, Note_on_c, 1, 74, 0
3, 483840, Note_on_c, 1, 72, 104
3, 484220, Note_on_c, 1, 72, 0
3, 484224, Note_on_c, 1, 77, 107
3, 484988, Note_on_c, 1, 77, 0
3, 484992, Note_on_c, 1, 76, 101
3, 485372, Note_on_c, 1, 76, 0
3, 485376, Note_on_c, 1, 81, 101
3, 485756, Note_on_c, 1, 81, 0
3, 485760, Note_on_c, 1, 79, 101
3, 486140, Note_on_c, 1, 79, 0
3, 486144, Note_on_c, 1, 77, 101
3, 486524, Note_on_c, 1, 77, 0
3, 486528, Note_on_c, 1, 76, 101
3, 486908, Note_on_c, 1, 76, 0
3, 486912, Note_on_c, 1, 74, 101
3, 487292, Note_on_c, 1, 74, 0
3, 487296, Note_on_c, 1, 77, 107
3, 488060, Note_on_c, 1, 77, 0
3, 488064, Note_on_c, 1, 76, 101
3, 488444, Note_on_c, 1, 76, 0
3, 488448, Note_on_c, 1, 81, 104
3, 488828, Note_on_c, 1, 81, 0
3, 488832, Note_on_c, 1, 79, 101
3, 489212, Note_on_c, 1, 79, 0
3, 489216, Note_on_c, 1, 77, 101
3, 489596, Note_on_c, 1, 77, 0
3, 489600, Note_on_c, 1, 76, 101
3, 489980, Note_on_c, 1, 76, 0
3, 489984, Note_on_c, 1, 74, 101
3, 490364, Note_on_c, 1, 74, 0
3, 490656, Note_on_c, 1, 76, 101
3, 490748, Note_on_c, 1, 76, 0
3, 490752, Note_on_c, 1, 74, 101
3, 491132, Note_on_c, 1, 74, 0
3, 491424, Note_on_c, 1, 76, 101
3, 491516, Note_on_c, 1, 76, 0
3, 491520, Note_on_c, 1, 74, 101
3, 491900, Note_on_c, 1, 74, 0
3, 492192, Note_on_c, 1, 76, 101
3, 492284, Note_on_c, 1, 76, 0
3, 492288, Note_on_c, 1, 74, 101
3, 492668, Note_on_c, 1, 74, 0
3, 492960, Note_on_c, 1, 76, 101
3, 493052, Note_on_c, 1, 76, 0
3, 493056, Note_on_c, 1, 74, 101
3, 493180, Note_on_c, 1, 74, 0
3, 493184, Note_on_c, 1, 65, 101
3, 493308, Note_on_c, 1, 65, 0
3, 493312, Note_on_c, 1, 67, 101
3, 493436, Note_on_c, 1, 67, 0
3, 493440, Note_on_c, 1, 71, 101
3, 493564, Note_on_c, 1, 71, 0
3, 493568, Note_on_c, 1, 67, 101
3, 493692, Note_on_c, 1, 67, 0
3, 493696, Note_on_c, 1, 65, 101
3, 493820, Note_on_c, 1, 65, 0
3, 493824, Note_on_c, 1, 62, 101
3, 493948, Note_on_c, 1, 62, 0
3, 493952, Note_on_c, 1, 65, 101
3, 494076, Note_on_c, 1, 65, 0
3, 494080, Note_on_c, 1, 67, 101
3, 494204, Note_on_c, 1, 67, 0
3, 494208, Note_on_c, 1, 71, 101
3, 494332, Note_on_c, 1, 71, 0
3, 494336, Note_on_c, 1, 67, 101
3, 494460, Note_on_c, 1, 67, 0
3, 494464, Note_on_c, 1, 65, 101
3, 494588, Note_on_c, 1, 65, 0
3, 494592, Note_on_c, 1, 62, 101
3, 494716, Note_on_c, 1, 62, 0
3, 494720, Note_on_c, 1, 65, 101
3, 494844, Note_on_c, 1, 65, 0
3, 494848, Note_on_c, 1, 67, 101
3, 494972, Note_on_c, 1, 67, 0
3, 494976, Note_on_c, 1, 71, 101
3, 495100, Note_on_c, 1, 71, 0
3, 495104, Note_on_c, 1, 67, 101
3, 495228, Note_on_c, 1, 67, 0
3, 495232, Note_on_c, 1, 65, 101
3, 495356, Note_on_c, 1, 65, 0
3, 495360, Note_on_c, 1, 62, 101
3, 495484, Note_on_c, 1, 62, 0
3, 495488, Note_on_c, 1, 65, 101
3, 495612, Note_on_c, 1, 65, 0
3, 495616, Note_on_c, 1, 67, 101
3, 495740, Note_on_c, 1, 67, 0
3, 495744, Note_on_c, 1, 71, 101
3, 495868, Note_on_c, 1, 71, 0
3, 495872, Note_on_c, 1, 67, 101
3, 495996, Note_on_c, 1, 67, 0
3, 496000, Note_on_c, 1, 65, 101
3, 496124, Note_on_c, 1, 65, 0
3, 496128, Note_on_c, 1, 72, 101
3, 496128, Note_on_c, 1, 67, 101
3, 496128, Note_on_c, 1, 64, 101
3, 496508, Note_on_c, 1, 64, 0
3, 496508, Note_on_c, 1, 67, 0
3, 496508, Note_on_c, 1, 72, 0
3, 496528, Note_on_c, 1, 79, 101
3, 497280, Note_on_c, 1, 84, 101
3, 497292, Note_on_c, 1, 79, 0
3, 497372, Note_on_c, 1, 84, 0
3, 497376, Note_on_c, 1, 76, 101
3, 497660, Note_on_c, 1, 76, 0
3, 497664, Note_on_c, 1, 79, 101
3, 498044, Note_on_c, 1, 79, 0
3, 498048, Note_on_c, 1, 77, 101
3, 498428, Note_on_c, 1, 77, 0
3, 498432, Note_on_c, 1, 62, 101
3, 498444, Note_on_c, 1, 65, 101
3, 498460, Note_on_c, 1, 67, 101
3, 498476, Note_on_c, 1, 71, 101
3, 498812, Note_on_c, 1, 62, 0
3, 498824, Note_on_c, 1, 65, 0
3, 498840, Note_on_c, 1, 67, 0
3, 498856, Note_on_c, 1, 71, 0
3, 499200, Note_on_c, 1, 76, 101
3, 500348, Note_on_c, 1, 76, 0
3, 500352, Note_on_c, 1, 77, 101
3, 500432, Note_on_c, 1, 81, 101
3, 500444, Note_on_c, 1, 77, 0
3, 500716, Note_on_c, 1, 81, 0
3, 500736, Note_on_c, 1, 72, 101
3, 501116, Note_on_c, 1, 72, 0
3, 501120, Note_on_c, 1, 71, 101
3, 501500, Note_on_c, 1, 71, 0
3, 501504, Note_on_c, 1, 62, 101
3, 501516, Note_on_c, 1, 65, 101
3, 501532, Note_on_c, 1, 67, 101
3, 501884, Note_on_c, 1, 62, 0
3, 501896, Note_on_c, 1, 65, 0
3, 501912, Note_on_c, 1, 67, 0
3, 502272, Note_on_c, 1, 72, 101
3, 503420, Note_on_c, 1, 72, 0
3, 503424, Note_on_c, 1, 74, 101
3, 503612, Note_on_c, 1, 74, 0
3, 503616, Note_on_c, 1, 76, 101
3, 503804, Note_on_c, 1, 76, 0
3, 503808, Note_on_c, 1, 77, 101
3, 504956, Note_on_c, 1, 77, 0
3, 504960, Note_on_c, 1, 79, 101
3, 505148, Note_on_c, 1, 79, 0
3, 505152, Note_on_c, 1, 81, 101
3, 505340, Note_on_c, 1, 81, 0
3, 505344, Note_on_c, 1, 79, 101
3, 505724, Note_on_c, 1, 79, 0
3, 505728, Note_on_c, 1, 72, 101
3, 506108, Note_on_c, 1, 72, 0
3, 506112, Note_on_c, 1, 74, 101
3, 506492, Note_on_c, 1, 74, 0
3, 506496, Note_on_c, 1, 77, 101
3, 506876, Note_on_c, 1, 77, 0
3, 506880, Note_on_c, 1, 75, 101
3, 507260, Note_on_c, 1, 75, 0
3, 507264, Note_on_c, 1, 79, 101
3, 507264, Note_on_c, 1, 76, 101
3, 507644, Note_on_c, 1, 76, 0
3, 507644, Note_on_c, 1, 79, 0
3, 507648, Note_on_c, 1, 79, 101
3, 507836, Note_on_c, 1, 79, 0
3, 507840, Note_on_c, 1, 76, 101
3, 508028, Note_on_c, 1, 76, 0
3, 508032, Note_on_c, 1, 77, 101
3, 508220, Note_on_c, 1, 77, 0
3, 508224, Note_on_c, 1, 74, 101
3, 508412, Note_on_c, 1, 74, 0
3, 508416, Note_on_c, 1, 72, 101
3, 509564, Note_on_c, 1, 72, 0
3, 509568, Note_on_c, 1, 74, 101
3, 509756, Note_on_c, 1, 74, 0
3, 509760, Note_on_c, 1, 76, 101
3, 509948, Note_on_c, 1, 76, 0
3, 509952, Note_on_c, 1, 77, 101
3, 510332, Note_on_c, 1, 77, 0
3, 510336, Note_on_c, 1, 77, 101
3, 510716, Note_on_c, 1, 77, 0
3, 510720, Note_on_c, 1, 77, 101
3, 511100, Note_on_c, 1, 77, 0
3, 511104, Note_on_c, 1, 79, 101
3, 511292, Note_on_c, 1, 79, 0
3, 511296, Note_on_c, 1, 81, 101
3, 511484, Note_on_c, 1, 81, 0
3, 511488, Note_on_c, 1, 79, 101
3, 511676, Note_on_c, 1, 79, 0
3, 511680, Note_on_c, 1, 81, 101
3, 511868, Note_on_c, 1, 81, 0
3, 511872, Note_on_c, 1, 83, 101
3, 512060, Note_on_c, 1, 83, 0
3, 512064, Note_on_c, 1, 84, 101
3, 512252, Note_on_c, 1, 84, 0
3, 512256, Note_on_c, 1, 83, 101
3, 512444, Note_on_c, 1, 83, 0
3, 512448, Note_on_c, 1, 84, 101
3, 512636, Note_on_c, 1, 84, 0
3, 512640, Note_on_c, 1, 83, 101
3, 512828, Note_on_c, 1, 83, 0
3, 512832, Note_on_c, 1, 84, 101
3, 513020, Note_on_c, 1, 84, 0
3, 513024, Note_on_c, 1, 80, 101
3, 513212, Note_on_c, 1, 80, 0
3, 513216, Note_on_c, 1, 81, 101
3, 513404, Note_on_c, 1, 81, 0
3, 513408, Note_on_c, 1, 80, 101
3, 513596, Note_on_c, 1, 80, 0
3, 513600, Note_on_c, 1, 81, 101
3, 513788, Note_on_c, 1, 81, 0
3, 513792, Note_on_c, 1, 76, 101
3, 513980, Note_on_c, 1, 76, 0
3, 513984, Note_on_c, 1, 77, 101
3, 514172, Note_on_c, 1, 77, 0
3, 514176, Note_on_c, 1, 76, 101
3, 514364, Note_on_c, 1, 76, 0
3, 514368, Note_on_c, 1, 77, 101
3, 514556, Note_on_c, 1, 77, 0
3, 514560, Note_on_c, 1, 76, 101
3, 514560, Note_on_c, 1, 60, 101
3, 514560, Note_on_c, 1, 55, 101
3, 514748, Note_on_c, 1, 60, 0
3, 514748, Note_on_c, 1, 76, 0
3, 514752, Note_on_c, 1, 67, 101
3, 514752, Note_on_c, 1, 64, 101
3, 514940, Note_on_c, 1, 64, 0
3, 514940, Note_on_c, 1, 67, 0
3, 514944, Note_on_c, 1, 64, 101
3, 514944, Note_on_c, 1, 60, 101
3, 515132, Note_on_c, 1, 60, 0
3, 515132, Note_on_c, 1, 64, 0
3, 515136, Note_on_c, 1, 67, 101
3, 515136, Note_on_c, 1, 64, 101
3, 515324, Note_on_c, 1, 64, 0
3, 515324, Note_on_c, 1, 67, 0
3, 515328, Note_on_c, 1, 64, 101
3, 515328, Note_on_c, 1, 60, 101
3, 515516, Note_on_c, 1, 60, 0
3, 515516, Note_on_c, 1, 64, 0
3, 515520, Note_on_c, 1, 67, 101
3, 515520, Note_on_c, 1, 64, 101
3, 515696, Note_on_c, 1, 62, 101
3, 515708, Note_on_c, 1, 64, 0
3, 515708, Note_on_c, 1, 67, 0
3, 515712, Note_on_c, 1, 65, 101
3, 515884, Note_on_c, 1, 62, 0
3, 515900, Note_on_c, 1, 65, 0
3, 515904, Note_on_c, 1, 64, 101
3, 515904, Note_on_c, 1, 60, 101
3, 516092, Note_on_c, 1, 60, 0
3, 516092, Note_on_c, 1, 64, 0
3, 516092, Note_on_c, 1, 55, 0
3, 516096, Note_on_c, 1, 55, 101
3, 516096, Note_on_c, 1, 67, 101
3, 516096, Note_on_c, 1, 64, 101
3, 516284, Note_on_c, 1, 64, 0
3, 516284, Note_on_c, 1, 67, 0
3, 516288, Note_on_c, 1, 65, 101
3, 516288, Note_on_c, 1, 62, 101
3, 516476, Note_on_c, 1, 62, 0
3, 516476, Note_on_c, 1, 65, 0
3, 516480, Note_on_c, 1, 64, 101
3, 516480, Note_on_c, 1, 60, 101
3, 516668, Note_on_c, 1, 60, 0
3, 516668, Note_on_c, 1, 64, 0
3, 516672, Note_on_c, 1, 64, 101
3, 516672, Note_on_c, 1, 60, 101
3, 516860, Note_on_c, 1, 60, 0
3, 516860, Note_on_c, 1, 64, 0
3, 516864, Note_on_c, 1, 64, 101
3, 516864, Note_on_c, 1, 60, 101
3, 517052, Note_on_c, 1, 60, 0
3, 517052, Note_on_c, 1, 64, 0
3, 517056, Note_on_c, 1, 67, 101
3, 517056, Note_on_c, 1, 64, 101
3, 517244, Note_on_c, 1, 64, 0
3, 517244, Note_on_c, 1, 67, 0
3, 517248, Note_on_c, 1, 65, 101
3, 517248, Note_on_c, 1, 62, 101
3, 517436, Note_on_c, 1, 62, 0
3, 517436, Note_on_c, 1, 65, 0
3, 517440, Note_on_c, 1, 62, 101
3, 517440, Note_on_c, 1, 59, 101
3, 517628, Note_on_c, 1, 59, 0
3, 517628, Note_on_c, 1, 62, 0
3, 517628, Note_on_c, 1, 55, 0
3, 517632, Note_on_c, 1, 72, 92
3, 517632, Note_on_c, 1, 67, 92
3, 517632, Note_on_c, 1, 64, 92
3, 518012, Note_on_c, 1, 64, 0
3, 518012, Note_on_c, 1, 67, 0
3, 518012, Note_on_c, 1, 72, 0
3, 518016, Note_on_c, 1, 60, 92
3, 518204, Note_on_c, 1, 60, 0
3, 518208, Note_on_c, 1, 60, 92
3, 518396, Note_on_c, 1, 60, 0
3, 518400, Note_on_c, 1, 59, 92
3, 518588, Note_on_c, 1, 59, 0
3, 518592, Note_on_c, 1, 62, 92
3, 518780, Note_on_c, 1, 62, 0
3, 518784, Note_on_c, 1, 65, 92
3, 518972, Note_on_c, 1, 65, 0
3, 518976, Note_on_c, 1, 65, 92
3, 519164, Note_on_c, 1, 65, 0
3, 519168, Note_on_c, 1, 64, 92
3, 519356, Note_on_c, 1, 64, 0
3, 519360, Note_on_c, 1, 67, 92
3, 519548, Note_on_c, 1, 67, 0
3, 519552, Note_on_c, 1, 72, 92
3, 519740, Note_on_c, 1, 72, 0
3, 519744, Note_on_c, 1, 72, 92
3, 519932, Note_on_c, 1, 72, 0
3, 519936, Note_on_c, 1, 71, 92
3, 520124, Note_on_c, 1, 71, 0
3, 520128, Note_on_c, 1, 74, 92
3, 520316, Note_on_c, 1, 74, 0
3, 520320, Note_on_c, 1, 77, 92
3, 520508, Note_on_c, 1, 77, 0
3, 520512, Note_on_c, 1, 77, 92
3, 520700, Note_on_c, 1, 77, 0
3, 520704, Note_on_c, 1, 76, 92
3, 520944, Note_on_c, 1, 67, 92
3, 520988, Note_on_c, 1, 67, 0
3, 520992, Note_on_c, 1, 72, 92
3, 521036, Note_on_c, 1, 72, 0
3, 521040, Note_on_c, 1, 76, 92
3, 521084, Note_on_c, 1, 76, 0
3, 521084, Note_on_c, 1, 76, 0
3, 521088, Note_on_c, 1, 79, 92
3, 521468, Note_on_c, 1, 79, 0
3, 521712, Note_on_c, 1, 67, 92
3, 521756, Note_on_c, 1, 67, 0
3, 521760, Note_on_c, 1, 71, 92
3, 521804, Note_on_c, 1, 71, 0
3, 521808, Note_on_c, 1, 74, 92
3, 521852, Note_on_c, 1, 74, 0
3, 521856, Note_on_c, 1, 79, 92
3, 522236, Note_on_c, 1, 79, 0
3, 522480, Note_on_c, 1, 67, 92
3, 522524, Note_on_c, 1, 67, 0
3, 522528, Note_on_c, 1, 72, 92
3, 522572, Note_on_c, 1, 72, 0
3, 522576, Note_on_c, 1, 76, 92
3, 522620, Note_on_c, 1, 76, 0
3, 522624, Note_on_c, 1, 79, 92
3, 523004, Note_on_c, 1, 79, 0
3, 523248, Note_on_c, 1, 67, 92
3, 523292, Note_on_c, 1, 67, 0
3, 523296, Note_on_c, 1, 74, 92
3, 523340, Note_on_c, 1, 74, 0
3, 523344, Note_on_c, 1, 77, 92
3, 523388, Note_on_c, 1, 77, 0
3, 523392, Note_on_c, 1, 79, 92
3, 523772, Note_on_c, 1, 79, 0
3, 524016, Note_on_c, 1, 67, 92
3, 524060, Note_on_c, 1, 67, 0
3, 524064, Note_on_c, 1, 72, 92
3, 524108, Note_on_c, 1, 72, 0
3, 524112, Note_on_c, 1, 76, 92
3, 524156, Note_on_c, 1, 76, 0
3, 524160, Note_on_c, 1, 79, 92
3, 524540, Note_on_c, 1, 79, 0
3, 524784, Note_on_c, 1, 67, 92
3, 524828, Note_on_c, 1, 67, 0
3, 524832, Note_on_c, 1, 71, 92
3, 524876, Note_on_c, 1, 71, 0
3, 524880, Note_on_c, 1, 74, 92
3, 524924, Note_on_c, 1, 74, 0
3, 524928, Note_on_c, 1, 79, 92
3, 525308, Note_on_c, 1, 79, 0
3, 525552, Note_on_c, 1, 67, 92
3, 525596, Note_on_c, 1, 67, 0
3, 525600, Note_on_c, 1, 72, 92
3, 525644, Note_on_c, 1, 72, 0
3, 525648, Note_on_c, 1, 76, 92
3, 525692, Note_on_c, 1, 76, 0
3, 525696, Note_on_c, 1, 79, 92
3, 526076, Note_on_c, 1, 79, 0
3, 526320, Note_on_c, 1, 67, 92
3, 526364, Note_on_c, 1, 67, 0
3, 526368, Note_on_c, 1, 74, 92
3, 526412, Note_on_c, 1, 74, 0
3, 526416, Note_on_c, 1, 77, 92
3, 526460, Note_on_c, 1, 77, 0
3, 526464, Note_on_c, 1, 79, 92
3, 526844, Note_on_c, 1, 79, 0
3, 526976, Note_on_c, 1, 76, 71
3, 527100, Note_on_c, 1, 76, 0
3, 527104, Note_on_c, 1, 77, 71
3, 527228, Note_on_c, 1, 77, 0
3, 527232, Note_on_c, 1, 79, 71
3, 527356, Note_on_c, 1, 79, 0
3, 527360, Note_on_c, 1, 77, 71
3, 527484, Note_on_c, 1, 77, 0
3, 527488, Note_on_c, 1, 76, 71
3, 527612, Note_on_c, 1, 76, 0
3, 527744, Note_on_c, 1, 72, 71
3, 527868, Note_on_c, 1, 72, 0
3, 527872, Note_on_c, 1, 74, 71
3, 527996, Note_on_c, 1, 74, 0
3, 528000, Note_on_c, 1, 76, 71
3, 528124, Note_on_c, 1, 76, 0
3, 528128, Note_on_c, 1, 74, 71
3, 528252, Note_on_c, 1, 74, 0
3, 528256, Note_on_c, 1, 72, 71
3, 528380, Note_on_c, 1, 72, 0
3, 528512, Note_on_c, 1, 69, 71
3, 528636, Note_on_c, 1, 69, 0
3, 528640, Note_on_c, 1, 71, 71
3, 528764, Note_on_c, 1, 71, 0
3, 528768, Note_on_c, 1, 72, 71
3, 528892, Note_on_c, 1, 72, 0
3, 528896, Note_on_c, 1, 71, 71
3, 529020, Note_on_c, 1, 71, 0
3, 529024, Note_on_c, 1, 69, 71
3, 529148, Note_on_c, 1, 69, 0
3, 529280, Note_on_c, 1, 65, 71
3, 529404, Note_on_c, 1, 65, 0
3, 529408, Note_on_c, 1, 67, 71
3, 529532, Note_on_c, 1, 67, 0
3, 529536, Note_on_c, 1, 69, 71
3, 529660, Note_on_c, 1, 69, 0
3, 529664, Note_on_c, 1, 67, 71
3, 529788, Note_on_c, 1, 67, 0
3, 529792, Note_on_c, 1, 65, 71
3, 529916, Note_on_c, 1, 65, 0
3, 529920, Note_on_c, 1, 83, 92
3, 529920, Note_on_c, 1, 79, 92
3, 529920, Note_on_c, 1, 74, 92
3, 530684, Note_on_c, 1, 74, 0
3, 530684, Note_on_c, 1, 79, 0
3, 530684, Note_on_c, 1, 83, 0
3, 530688, Note_on_c, 1, 84, 92
3, 530688, Note_on_c, 1, 79, 92
3, 530688, Note_on_c, 1, 76, 92
3, 530688, Note_on_c, 1, 72, 92
3, 531068, Note_on_c, 1, 72, 0
3, 531068, Note_on_c, 1, 84, 0
3, 531068, Note_on_c, 1, 79, 0
3, 531068, Note_on_c, 1, 76, 0
3, 531072, Note_on_c, 1, 76, 92
3, 531072, Note_on_c, 1, 72, 92
3, 531072, Note_on_c, 1, 67, 92
3, 531452, Note_on_c, 1, 67, 0
3, 531452, Note_on_c, 1, 72, 0
3, 531452, Note_on_c, 1, 76, 0
3, 531456, Note_on_c, 1, 77, 92
3, 531456, Note_on_c, 1, 72, 92
3, 531456, Note_on_c, 1, 69, 92
3, 531836, Note_on_c, 1, 69, 0
3, 531836, Note_on_c, 1, 72, 0
3, 531836, Note_on_c, 1, 77, 0
3, 531840, Note_on_c, 1, 81, 92
3, 531840, Note_on_c, 1, 77, 92
3, 531840, Note_on_c, 1, 72, 92
3, 532220, Note_on_c, 1, 72, 0
3, 532220, Note_on_c, 1, 77, 0
3, 532220, Note_on_c, 1, 81, 0
3, 532224, Note_on_c, 1, 79, 92
3, 532224, Note_on_c, 1, 76, 92
3, 532224, Note_on_c, 1, 72, 92
3, 532604, Note_on_c, 1, 72, 0
3, 532604, Note_on_c, 1, 76, 0
3, 532604, Note_on_c, 1, 79, 0
3, 532608, Note_on_c, 1, 71, 92
3, 532608, Note_on_c, 1, 67, 92
3, 532608, Note_on_c, 1, 62, 92
3, 532988, Note_on_c, 1, 62, 0
3, 532988, Note_on_c, 1, 67, 0
3, 532988, Note_on_c, 1, 71, 0
3, 532992, Note_on_c, 1, 72, 71
3, 533120, Note_on_c, 1, 88, 71
3, 533244, Note_on_c, 1, 88, 0
3, 533248, Note_on_c, 1, 86, 71
3, 533372, Note_on_c, 1, 86, 0
3, 533372, Note_on_c, 1, 72, 0
3, 533376, Note_on_c, 1, 84, 71
3, 533500, Note_on_c, 1, 84, 0
3, 533504, Note_on_c, 1, 86, 71
3, 533628, Note_on_c, 1, 86, 0
3, 533632, Note_on_c, 1, 88, 71
3, 533756, Note_on_c, 1, 88, 0
3, 533760, Note_on_c, 1, 69, 71
3, 533888, Note_on_c, 1, 84, 71
3, 534012, Note_on_c, 1, 84, 0
3, 534016, Note_on_c, 1, 83, 71
3, 534140, Note_on_c, 1, 83, 0
3, 534140, Note_on_c, 1, 69, 0
3, 534144, Note_on_c, 1, 81, 71
3, 534268, Note_on_c, 1, 81, 0
3, 534272, Note_on_c, 1, 83, 71
3, 534396, Note_on_c, 1, 83, 0
3, 534400, Note_on_c, 1, 84, 71
3, 534524, Note_on_c, 1, 84, 0
3, 534528, Note_on_c, 1, 65, 71
3, 534656, Note_on_c, 1, 81, 71
3, 534780, Note_on_c, 1, 81, 0
3, 534784, Note_on_c, 1, 79, 71
3, 534908, Note_on_c, 1, 79, 0
3, 534908, Note_on_c, 1, 65, 0
3, 534912, Note_on_c, 1, 77, 71
3, 535036, Note_on_c, 1, 77, 0
3, 535040, Note_on_c, 1, 79, 71
3, 535164, Note_on_c, 1, 79, 0
3, 535168, Note_on_c, 1, 81, 71
3, 535292, Note_on_c, 1, 81, 0
3, 535296, Note_on_c, 1, 62, 71
3, 535424, Note_on_c, 1, 77, 71
3, 535548, Note_on_c, 1, 77, 0
3, 535552, Note_on_c, 1, 76, 71
3, 535676, Note_on_c, 1, 76, 0
3, 535676, Note_on_c, 1, 62, 0
3, 535680, Note_on_c, 1, 74, 71
3, 535804, Note_on_c, 1, 74, 0
3, 535808, Note_on_c, 1, 76, 71
3, 535932, Note_on_c, 1, 76, 0
3, 535936, Note_on_c, 1, 77, 71
3, 536060, Note_on_c, 1, 77, 0
3, 536064, Note_on_c, 1, 83, 92
3, 536064, Note_on_c, 1, 79, 92
3, 536064, Note_on_c, 1, 74, 92
3, 536828, Note_on_c, 1, 74, 0
3, 536828, Note_on_c, 1, 79, 0
3, 536828, Note_on_c, 1, 83, 0
3, 536832, Note_on_c, 1, 84, 92
3, 536832, Note_on_c, 1, 79, 92
3, 536832, Note_on_c, 1, 76, 92
3, 536832, Note_on_c, 1, 72, 92
3, 537212, Note_on_c, 1, 72, 0
3, 537212, Note_on_c, 1, 84, 0
3, 537212, Note_on_c, 1, 79, 0
3, 537212, Note_on_c, 1, 76, 0
3, 537216, Note_on_c, 1, 76, 92
3, 537216, Note_on_c, 1, 72, 92
3, 537216, Note_on_c, 1, 67, 92
3, 537596, Note_on_c, 1, 67, 0
3, 537596, Note_on_c, 1, 72, 0
3, 537596, Note_on_c, 1, 76, 0
3, 537600, Note_on_c, 1, 77, 92
3, 537600, Note_on_c, 1, 72, 92
3, 537600, Note_on_c, 1, 69, 92
3, 537980, Note_on_c, 1, 69, 0
3, 537980, Note_on_c, 1, 72, 0
3, 537980, Note_on_c, 1, 77, 0
3, 537984, Note_on_c, 1, 81, 92
3, 537984, Note_on_c, 1, 77, 92
3, 537984, Note_on_c, 1, 72, 92
3, 538364, Note_on_c, 1, 72, 0
3, 538364, Note_on_c, 1, 77, 0
3, 538364, Note_on_c, 1, 81, 0
3, 538368, Note_on_c, 1, 79, 92
3, 538368, Note_on_c, 1, 76, 92
3, 538368, Note_on_c, 1, 72, 92
3, 538748, Note_on_c, 1, 72, 0
3, 538748, Note_on_c, 1, 76, 0
3, 538748, Note_on_c, 1, 79, 0
3, 538752, Note_on_c, 1, 71, 92
3, 538752, Note_on_c, 1, 67, 92
3, 538752, Note_on_c, 1, 62, 92
3, 539132, Note_on_c, 1, 62, 0
3, 539132, Note_on_c, 1, 67, 0
3, 539132, Note_on_c, 1, 71, 0
3, 539136, Note_on_c, 1, 83, 92
3, 539136, Note_on_c, 1, 79, 92
3, 539136, Note_on_c, 1, 74, 92
3, 539900, Note_on_c, 1, 74, 0
3, 539900, Note_on_c, 1, 79, 0
3, 539900, Note_on_c, 1, 83, 0
3, 539904, Note_on_c, 1, 84, 92
3, 539904, Note_on_c, 1, 79, 92
3, 539904, Note_on_c, 1, 76, 92
3, 539904, Note_on_c, 1, 72, 92
3, 540284, Note_on_c, 1, 72, 0
3, 540284, Note_on_c, 1, 84, 0
3, 540284, Note_on_c, 1, 79, 0
3, 540284, Note_on_c, 1, 76, 0
3, 540288, Note_on_c, 1, 76, 92
3, 540288, Note_on_c, 1, 72, 92
3, 540288, Note_on_c, 1, 67, 92
3, 540668, Note_on_c, 1, 67, 0
3, 540668, Note_on_c, 1, 72, 0
3, 540668, Note_on_c, 1, 76, 0
3, 540672, Note_on_c, 1, 77, 92
3, 540672, Note_on_c, 1, 72, 92
3, 540672, Note_on_c, 1, 69, 92
3, 541052, Note_on_c, 1, 69, 0
3, 541052, Note_on_c, 1, 72, 0
3, 541052, Note_on_c, 1, 77, 0
3, 541056, Note_on_c, 1, 81, 92
3, 541056, Note_on_c, 1, 77, 92
3, 541056, Note_on_c, 1, 72, 92
3, 541436, Note_on_c, 1, 72, 0
3, 541436, Note_on_c, 1, 77, 0
3, 541436, Note_on_c, 1, 81, 0
3, 541440, Note_on_c, 1, 79, 92
3, 541440, Note_on_c, 1, 76, 92
3, 541440, Note_on_c, 1, 72, 92
3, 541820, Note_on_c, 1, 72, 0
3, 541820, Note_on_c, 1, 76, 0
3, 541820, Note_on_c, 1, 79, 0
3, 541824, Note_on_c, 1, 71, 92
3, 541824, Note_on_c, 1, 67, 92
3, 541824, Note_on_c, 1, 62, 92
3, 542204, Note_on_c, 1, 62, 0
3, 542204, Note_on_c, 1, 67, 0
3, 542204, Note_on_c, 1, 71, 0
3, 542208, Note_on_c, 1, 72, 92
3, 542208, Note_on_c, 1, 64, 92
3, 542588, Note_on_c, 1, 64, 0
3, 542588, Note_on_c, 1, 72, 0
3, 542976, Note_on_c, 1, 72, 92
3, 542976, Note_on_c, 1, 69, 92
3, 542976, Note_on_c, 1, 65, 92
3, 542976, Note_on_c, 1, 62, 92
3, 543356, Note_on_c, 1, 62, 0
3, 543356, Note_on_c, 1, 72, 0
3, 543356, Note_on_c, 1, 69, 0
3, 543356, Note_on_c, 1, 65, 0
3, 543744, Note_on_c, 1, 72, 92
3, 543744, Note_on_c, 1, 67, 92
3, 543744, Note_on_c, 1, 64, 92
3, 544124, Note_on_c, 1, 64, 0
3, 544124, Note_on_c, 1, 67, 0
3, 544124, Note_on_c, 1, 72, 0
3, 544512, Note_on_c, 1, 71, 92
3, 544512, Note_on_c, 1, 65, 92
3, 544512, Note_on_c, 1, 62, 92
3, 544892, Note_on_c, 1, 62, 0
3, 544892, Note_on_c, 1, 65, 0
3, 544892, Note_on_c, 1, 71, 0
3, 545280, Note_on_c, 1, 72, 92
3, 545280, Note_on_c, 1, 69, 92
3, 545280, Note_on_c, 1, 64, 92
3, 545280, Note_on_c, 1, 60, 92
3, 545660, Note_on_c, 1, 60, 0
3, 545660, Note_on_c, 1, 72, 0
3, 545660, Note_on_c, 1, 69, 0
3, 545660, Note_on_c, 1, 64, 0
3, 546048, Note_on_c, 1, 72, 92
3, 546048, Note_on_c, 1, 69, 92
3, 546048, Note_on_c, 1, 65, 92
3, 546048, Note_on_c, 1, 62, 92
3, 546428, Note_on_c, 1, 62, 0
3, 546428, Note_on_c, 1, 72, 0
3, 546428, Note_on_c, 1, 69, 0
3, 546428, Note_on_c, 1, 65, 0
3, 546816, Note_on_c, 1, 72, 92
3, 546816, Note_on_c, 1, 67, 92
3, 546816, Note_on_c, 1, 64, 92
3, 547196, Note_on_c, 1, 64, 0
3, 547196, Note_on_c, 1, 67, 0
3, 547196, Note_on_c, 1, 72, 0
3, 547584, Note_on_c, 1, 71, 92
3, 547584, Note_on_c, 1, 67, 92
3, 547584, Note_on_c, 1, 65, 92
3, 547584, Note_on_c, 1, 62, 92
3, 547964, Note_on_c, 1, 62, 0
3, 547964, Note_on_c, 1, 71, 0
3, 547964, Note_on_c, 1, 67, 0
3, 547964, Note_on_c, 1, 65, 0
3, 548352, Note_on_c, 1, 72, 92
3, 548352, Note_on_c, 1, 67, 92
3, 548352, Note_on_c, 1, 64, 92
3, 548352, Note_on_c, 1, 60, 92
3, 548540, Note_on_c, 1, 60, 0
3, 548540, Note_on_c, 1, 72, 0
3, 548540, Note_on_c, 1, 67, 0
3, 548540, Note_on_c, 1, 64, 0
3, 548544, Note_on_c, 1, 71, 92
3, 548732, Note_on_c, 1, 71, 0
3, 548736, Note_on_c, 1, 72, 92
3, 548924, Note_on_c, 1, 72, 0
3, 548928, Note_on_c, 1, 74, 92
3, 549116, Note_on_c, 1, 74, 0
3, 549120, Note_on_c, 1, 76, 92
3, 549308, Note_on_c, 1, 76, 0
3, 549312, Note_on_c, 1, 74, 92
3, 549500, Note_on_c, 1, 74, 0
3, 549504, Note_on_c, 1, 72, 92
3, 549692, Note_on_c, 1, 72, 0
3, 549696, Note_on_c, 1, 71, 92
3, 549884, Note_on_c, 1, 71, 0
3, 549888, Note_on_c, 1, 69, 92
3, 550076, Note_on_c, 1, 69, 0
3, 550080, Note_on_c, 1, 68, 92
3, 550268, Note_on_c, 1, 68, 0
3, 550272, Note_on_c, 1, 69, 92
3, 550460, Note_on_c, 1, 69, 0
3, 550464, Note_on_c, 1, 71, 92
3, 550652, Note_on_c, 1, 71, 0
3, 550656, Note_on_c, 1, 72, 92
3, 550844, Note_on_c, 1, 72, 0
3, 550848, Note_on_c, 1, 71, 92
3, 551036, Note_on_c, 1, 71, 0
3, 551040, Note_on_c, 1, 69, 92
3, 551228, Note_on_c, 1, 69, 0
3, 551232, Note_on_c, 1, 67, 92
3, 551420, Note_on_c, 1, 67, 0
3, 551424, Note_on_c, 1, 65, 92
3, 551804, Note_on_c, 1, 65, 0
3, 551808, Note_on_c, 1, 81, 92
3, 551808, Note_on_c, 1, 77, 92
3, 551808, Note_on_c, 1, 72, 92
3, 552188, Note_on_c, 1, 72, 0
3, 552188, Note_on_c, 1, 77, 0
3, 552188, Note_on_c, 1, 81, 0
3, 552576, Note_on_c, 1, 83, 92
3, 552576, Note_on_c, 1, 79, 92
3, 552576, Note_on_c, 1, 77, 92
3, 552576, Note_on_c, 1, 74, 92
3, 552956, Note_on_c, 1, 74, 0
3, 552956, Note_on_c, 1, 83, 0
3, 552956, Note_on_c, 1, 79, 0
3, 552956, Note_on_c, 1, 77, 0
3, 553344, Note_on_c, 1, 84, 92
3, 553344, Note_on_c, 1, 79, 92
3, 553344, Note_on_c, 1, 76, 92
3, 553344, Note_on_c, 1, 72, 92
3, 553724, Note_on_c, 1, 72, 0
3, 553724, Note_on_c, 1, 84, 0
3, 553724, Note_on_c, 1, 79, 0
3, 553724, Note_on_c, 1, 76, 0
3, 554112, Note_on_c, 1, 78, 92
3, 554112, Note_on_c, 1, 72, 92
3, 554112, Note_on_c, 1, 66, 92
3, 554492, Note_on_c, 1, 66, 0
3, 554492, Note_on_c, 1, 72, 0
3, 554492, Note_on_c, 1, 78, 0
3, 554496, Note_on_c, 1, 79, 92
3, 554496, Note_on_c, 1, 76, 92
3, 554496, Note_on_c, 1, 72, 92
3, 554496, Note_on_c, 1, 67, 92
3, 555072, Note_on_c, 1, 72, 92
3, 555260, Note_on_c, 1, 72, 0
3, 555260, Note_on_c, 1, 72, 0
3, 555260, Note_on_c, 1, 79, 0
3, 555260, Note_on_c, 1, 76, 0
3, 555260, Note_on_c, 1, 67, 0
3, 555264, Note_on_c, 1, 74, 92
3, 555324, Note_on_c, 1, 74, 0
3, 555328, Note_on_c, 1, 76, 92
3, 555388, Note_on_c, 1, 76, 0
3, 555392, Note_on_c, 1, 74, 92
3, 555452, Note_on_c, 1, 74, 0
3, 555456, Note_on_c, 1, 76, 92
3, 555516, Note_on_c, 1, 76, 0
3, 555520, Note_on_c, 1, 74, 92
3, 555580, Note_on_c, 1, 74, 0
3, 555584, Note_on_c, 1, 76, 92
3, 555644, Note_on_c, 1, 76, 0
3, 555648, Note_on_c, 1, 74, 92
3, 555708, Note_on_c, 1, 74, 0
3, 555712, Note_on_c, 1, 76, 92
3, 555772, Note_on_c, 1, 76, 0
3, 555776, Note_on_c, 1, 74, 92
3, 555836, Note_on_c, 1, 74, 0
3, 555840, Note_on_c, 1, 76, 92
3, 555900, Note_on_c, 1, 76, 0
3, 555904, Note_on_c, 1, 72, 92
3, 555964, Note_on_c, 1, 72, 0
3, 555968, Note_on_c, 1, 74, 92
3, 556028, Note_on_c, 1, 74, 0
3, 556032, Note_on_c, 1, 72, 92
3, 556412, Note_on_c, 1, 72, 0
3, 556608, Note_on_c, 1, 84, 92
3, 556796, Note_on_c, 1, 84, 0
3, 556800, Note_on_c, 1, 84, 92
3, 556988, Note_on_c, 1, 84, 0
3, 556992, Note_on_c, 1, 84, 92
3, 557180, Note_on_c, 1, 84, 0
3, 557184, Note_on_c, 1, 84, 92
3, 557372, Note_on_c, 1, 84, 0
3, 557376, Note_on_c, 1, 84, 92
3, 557564, Note_on_c, 1, 84, 0
3, 557568, Note_on_c, 1, 83, 95
3, 557608, Note_on_c, 1, 83, 0
3, 557616, Note_on_c, 1, 84, 92
3, 557736, Note_on_c, 1, 84, 0
3, 557760, Note_on_c, 1, 86, 92
3, 558044, Note_on_c, 1, 86, 0
3, 558144, Note_on_c, 1, 77, 92
3, 558332, Note_on_c, 1, 77, 0
3, 558336, Note_on_c, 1, 77, 92
3, 558524, Note_on_c, 1, 77, 0
3, 558528, Note_on_c, 1, 77, 92
3, 558716, Note_on_c, 1, 77, 0
3, 558720, Note_on_c, 1, 77, 92
3, 558908, Note_on_c, 1, 77, 0
3, 558912, Note_on_c, 1, 77, 92
3, 559100, Note_on_c, 1, 77, 0
3, 559104, Note_on_c, 1, 76, 95
3, 559144, Note_on_c, 1, 76, 0
3, 559152, Note_on_c, 1, 77, 92
3, 559272, Note_on_c, 1, 77, 0
3, 559296, Note_on_c, 1, 79, 92
3, 559576, Note_on_c, 1, 79, 0
3, 559680, Note_on_c, 1, 84, 92
3, 559868, Note_on_c, 1, 84, 0
3, 559872, Note_on_c, 1, 84, 92
3, 560060, Note_on_c, 1, 84, 0
3, 560064, Note_on_c, 1, 84, 92
3, 560252, Note_on_c, 1, 84, 0
3, 560256, Note_on_c, 1, 84, 92
3, 560444, Note_on_c, 1, 84, 0
3, 560448, Note_on_c, 1, 84, 92
3, 560636, Note_on_c, 1, 84, 0
3, 560640, Note_on_c, 1, 83, 95
3, 560680, Note_on_c, 1, 83, 0
3, 560688, Note_on_c, 1, 84, 92
3, 560808, Note_on_c, 1, 84, 0
3, 560832, Note_on_c, 1, 86, 92
3, 561112, Note_on_c, 1, 86, 0
3, 561216, Note_on_c, 1, 77, 92
3, 561404, Note_on_c, 1, 77, 0
3, 561408, Note_on_c, 1, 77, 92
3, 561596, Note_on_c, 1, 77, 0
3, 561600, Note_on_c, 1, 77, 92
3, 561788, Note_on_c, 1, 77, 0
3, 561792, Note_on_c, 1, 77, 92
3, 561980, Note_on_c, 1, 77, 0
3, 561984, Note_on_c, 1, 77, 92
3, 562172, Note_on_c, 1, 77, 0
3, 562176, Note_on_c, 1, 76, 92
3, 562556, Note_on_c, 1, 76, 0
3, 562848, Note_on_c, 1, 84, 92
3, 562848, Note_on_c, 1, 76, 92
3, 562940, Note_on_c, 1, 76, 0
3, 562940, Note_on_c, 1, 84, 0
3, 562944, Note_on_c, 1, 84, 92
3, 562944, Note_on_c, 1, 76, 92
3, 563324, Note_on_c, 1, 76, 0
3, 563324, Note_on_c, 1, 84, 0
3, 563616, Note_on_c, 1, 84, 92
3, 563616, Note_on_c, 1, 76, 92
3, 563708, Note_on_c, 1, 76, 0
3, 563708, Note_on_c, 1, 84, 0
3, 563712, Note_on_c, 1, 84, 92
3, 563712, Note_on_c, 1, 74, 92
3, 564092, Note_on_c, 1, 74, 0
3, 564092, Note_on_c, 1, 84, 0
3, 564368, Note_on_c, 1, 74, 92
3, 564384, Note_on_c, 1, 84, 92
3, 564460, Note_on_c, 1, 74, 0
3, 564476, Note_on_c, 1, 84, 0
3, 564480, Note_on_c, 1, 83, 92
3, 564480, Note_on_c, 1, 74, 92
3, 564860, Note_on_c, 1, 74, 0
3, 564860, Note_on_c, 1, 83, 0
3, 565152, Note_on_c, 1, 83, 92
3, 565152, Note_on_c, 1, 74, 92
3, 565244, Note_on_c, 1, 74, 0
3, 565244, Note_on_c, 1, 83, 0
3, 565248, Note_on_c, 1, 84, 86
3, 565248, Note_on_c, 1, 79, 86
3, 565248, Note_on_c, 1, 76, 86
3, 566012, Note_on_c, 1, 76, 0
3, 566012, Note_on_c, 1, 79, 0
3, 566012, Note_on_c, 1, 84, 0
3, 566016, Note_on_c, 1, 76, 71
3, 566016, Note_on_c, 1, 60, 71
3, 566204, Note_on_c, 1, 60, 0
3, 566208, Note_on_c, 1, 64, 71
3, 566396, Note_on_c, 1, 64, 0
3, 566396, Note_on_c, 1, 76, 0
3, 566400, Note_on_c, 1, 76, 71
3, 566400, Note_on_c, 1, 67, 71
3, 566588, Note_on_c, 1, 67, 0
3, 566592, Note_on_c, 1, 64, 71
3, 566780, Note_on_c, 1, 64, 0
3, 566780, Note_on_c, 1, 76, 0
3, 566784, Note_on_c, 1, 76, 71
3, 566784, Note_on_c, 1, 60, 71
3, 566972, Note_on_c, 1, 60, 0
3, 566976, Note_on_c, 1, 55, 71
3, 567164, Note_on_c, 1, 55, 0
3, 567168, Note_on_c, 1, 60, 71
3, 567356, Note_on_c, 1, 60, 0
3, 567360, Note_on_c, 1, 55, 71
3, 567548, Note_on_c, 1, 55, 0
3, 567548, Note_on_c, 1, 76, 0
3, 567552, Note_on_c, 1, 79, 71
3, 567552, Note_on_c, 1, 62, 71
3, 567740, Note_on_c, 1, 62, 0
3, 567740, Note_on_c, 1, 79, 0
3, 567744, Note_on_c, 1, 77, 71
3, 567744, Note_on_c, 1, 55, 71
3, 567932, Note_on_c, 1, 55, 0
3, 567932, Note_on_c, 1, 77, 0
3, 567936, Note_on_c, 1, 76, 71
3, 567936, Note_on_c, 1, 62, 71
3, 568124, Note_on_c, 1, 62, 0
3, 568124, Note_on_c, 1, 76, 0
3, 568128, Note_on_c, 1, 77, 71
3, 568128, Note_on_c, 1, 55, 71
3, 568316, Note_on_c, 1, 55, 0
3, 568316, Note_on_c, 1, 77, 0
3, 568320, Note_on_c, 1, 79, 71
3, 568320, Note_on_c, 1, 64, 71
3, 568508, Note_on_c, 1, 64, 0
3, 568508, Note_on_c, 1, 79, 0
3, 568512, Note_on_c, 1, 76, 71
3, 568512, Note_on_c, 1, 60, 71
3, 568700, Note_on_c, 1, 60, 0
3, 568700, Note_on_c, 1, 76, 0
3, 568704, Note_on_c, 1, 72, 71
3, 568704, Note_on_c, 1, 64, 71
3, 568892, Note_on_c, 1, 64, 0
3, 568896, Note_on_c, 1, 67, 71
3, 569084, Note_on_c, 1, 67, 0
3, 569084, Note_on_c, 1, 72, 0
3, 569088, Note_on_c, 1, 84, 71
3, 569088, Note_on_c, 1, 64, 71
3, 569276, Note_on_c, 1, 64, 0
3, 569280, Note_on_c, 1, 60, 71
3, 569468, Note_on_c, 1, 60, 0
3, 569472, Note_on_c, 1, 64, 71
3, 569660, Note_on_c, 1, 64, 0
3, 569660, Note_on_c, 1, 84, 0
3, 569664, Note_on_c, 1, 83, 71
3, 569664, Note_on_c, 1, 60, 71
3, 569852, Note_on_c, 1, 60, 0
3, 569852, Note_on_c, 1, 83, 0
3, 569856, Note_on_c, 1, 83, 71
3, 569856, Note_on_c, 1, 65, 71
3, 570044, Note_on_c, 1, 65, 0
3, 570044, Note_on_c, 1, 83, 0
3, 570048, Note_on_c, 1, 81, 71
3, 570048, Note_on_c, 1, 60, 71
3, 570236, Note_on_c, 1, 60, 0
3, 570236, Note_on_c, 1, 81, 0
3, 570240, Note_on_c, 1, 79, 71
3, 570240, Note_on_c, 1, 64, 71
3, 570428, Note_on_c, 1, 64, 0
3, 570432, Note_on_c, 1, 60, 71
3, 570620, Note_on_c, 1, 60, 0
3, 570620, Note_on_c, 1, 79, 0
3, 570624, Note_on_c, 1, 84, 71
3, 570624, Note_on_c, 1, 64, 71
3, 570812, Note_on_c, 1, 64, 0
3, 570816, Note_on_c, 1, 60, 71
3, 571004, Note_on_c, 1, 60, 0
3, 571008, Note_on_c, 1, 64, 71
3, 571196, Note_on_c, 1, 64, 0
3, 571196, Note_on_c, 1, 84, 0
3, 571200, Note_on_c, 1, 83, 71
3, 571200, Note_on_c, 1, 60, 71
3, 571388, Note_on_c, 1, 60, 0
3, 571388, Note_on_c, 1, 83, 0
3, 571392, Note_on_c, 1, 83, 71
3, 571392, Note_on_c, 1, 65, 71
3, 571580, Note_on_c, 1, 65, 0
3, 571580, Note_on_c, 1, 83, 0
3, 571584, Note_on_c, 1, 81, 71
3, 571584, Note_on_c, 1, 60, 71
3, 571772, Note_on_c, 1, 60, 0
3, 571772, Note_on_c, 1, 81, 0
3, 571776, Note_on_c, 1, 79, 71
3, 571776, Note_on_c, 1, 64, 71
3, 571964, Note_on_c, 1, 64, 0
3, 571968, Note_on_c, 1, 60, 71
3, 572156, Note_on_c, 1, 60, 0
3, 572156, Note_on_c, 1, 79, 0
3, 572160, Note_on_c, 1, 72, 71
3, 572160, Note_on_c, 1, 64, 71
3, 572348, Note_on_c, 1, 64, 0
3, 572352, Note_on_c, 1, 65, 71
3, 572540, Note_on_c, 1, 65, 0
3, 572540, Note_on_c, 1, 72, 0
3, 572544, Note_on_c, 1, 72, 71
3, 572544, Note_on_c, 1, 67, 71
3, 572732, Note_on_c, 1, 67, 0
3, 572736, Note_on_c, 1, 64, 71
3, 572924, Note_on_c, 1, 64, 0
3, 572924, Note_on_c, 1, 72, 0
3, 572928, Note_on_c, 1, 72, 71
3, 572928, Note_on_c, 1, 60, 71
3, 573116, Note_on_c, 1, 60, 0
3, 573120, Note_on_c, 1, 55, 71
3, 573308, Note_on_c, 1, 55, 0
3, 573312, Note_on_c, 1, 60, 71
3, 573500, Note_on_c, 1, 60, 0
3, 573504, Note_on_c, 1, 55, 71
3, 573692, Note_on_c, 1, 55, 0
3, 573692, Note_on_c, 1, 72, 0
3, 573696, Note_on_c, 1, 76, 71
3, 573696, Note_on_c, 1, 59, 71
3, 573884, Note_on_c, 1, 59, 0
3, 573884, Note_on_c, 1, 76, 0
3, 573888, Note_on_c, 1, 74, 71
3, 573888, Note_on_c, 1, 55, 71
3, 574076, Note_on_c, 1, 55, 0
3, 574076, Note_on_c, 1, 74, 0
3, 574080, Note_on_c, 1, 72, 71
3, 574080, Note_on_c, 1, 59, 71
3, 574268, Note_on_c, 1, 59, 0
3, 574268, Note_on_c, 1, 72, 0
3, 574272, Note_on_c, 1, 74, 71
3, 574272, Note_on_c, 1, 55, 71
3, 574460, Note_on_c, 1, 55, 0
3, 574460, Note_on_c, 1, 74, 0
3, 574464, Note_on_c, 1, 76, 71
3, 574464, Note_on_c, 1, 60, 71
3, 574652, Note_on_c, 1, 60, 0
3, 574656, Note_on_c, 1, 55, 71
3, 574844, Note_on_c, 1, 55, 0
3, 574844, Note_on_c, 1, 76, 0
3, 574848, Note_on_c, 1, 76, 71
3, 574848, Note_on_c, 1, 60, 71
3, 575036, Note_on_c, 1, 60, 0
3, 575040, Note_on_c, 1, 55, 71
3, 575228, Note_on_c, 1, 55, 0
3, 575228, Note_on_c, 1, 76, 0
3, 575232, Note_on_c, 1, 79, 71
3, 575232, Note_on_c, 1, 62, 71
3, 575420, Note_on_c, 1, 62, 0
3, 575420, Note_on_c, 1, 79, 0
3, 575424, Note_on_c, 1, 77, 71
3, 575424, Note_on_c, 1, 55, 71
3, 575600, Note_on_c, 1, 62, 71
3, 575612, Note_on_c, 1, 55, 0
3, 575612, Note_on_c, 1, 77, 0
3, 575616, Note_on_c, 1, 76, 71
3, 575788, Note_on_c, 1, 62, 0
3, 575804, Note_on_c, 1, 76, 0
3, 575808, Note_on_c, 1, 77, 71
3, 575808, Note_on_c, 1, 55, 71
3, 575996, Note_on_c, 1, 55, 0
3, 575996, Note_on_c, 1, 77, 0
3, 576000, Note_on_c, 1, 79, 71
3, 576380, Note_on_c, 1, 79, 0
3, 576384, Note_on_c, 1, 79, 71
3, 576764, Note_on_c, 1, 79, 0
3, 576768, Note_on_c, 1, 81, 71
3, 576956, Note_on_c, 1, 81, 0
3, 576960, Note_on_c, 1, 79, 71
3, 577148, Note_on_c, 1, 79, 0
3, 577152, Note_on_c, 1, 77, 71
3, 577340, Note_on_c, 1, 77, 0
3, 577344, Note_on_c, 1, 76, 71
3, 577532, Note_on_c, 1, 76, 0
3, 577536, Note_on_c, 1, 76, 71
3, 577916, Note_on_c, 1, 76, 0
3, 577920, Note_on_c, 1, 74, 71
3, 577920, Note_on_c, 1, 67, 71
3, 578108, Note_on_c, 1, 67, 0
3, 578112, Note_on_c, 1, 66, 71
3, 578300, Note_on_c, 1, 66, 0
3, 578300, Note_on_c, 1, 74, 0
3, 578304, Note_on_c, 1, 67, 71
3, 578492, Note_on_c, 1, 67, 0
3, 578496, Note_on_c, 1, 65, 71
3, 578684, Note_on_c, 1, 65, 0
3, 578688, Note_on_c, 1, 64, 71
3, 578876, Note_on_c, 1, 64, 0
3, 578880, Note_on_c, 1, 62, 71
3, 579068, Note_on_c, 1, 62, 0
3, 579072, Note_on_c, 1, 72, 71
3, 579260, Note_on_c, 1, 72, 0
3, 579264, Note_on_c, 1, 67, 71
3, 579452, Note_on_c, 1, 67, 0
3, 579456, Note_on_c, 1, 64, 71
3, 579644, Note_on_c, 1, 64, 0
3, 579648, Note_on_c, 1, 72, 71
3, 579836, Note_on_c, 1, 72, 0
3, 579840, Note_on_c, 1, 71, 71
3, 580028, Note_on_c, 1, 71, 0
3, 580032, Note_on_c, 1, 67, 71
3, 580220, Note_on_c, 1, 67, 0
3, 580224, Note_on_c, 1, 62, 71
3, 580412, Note_on_c, 1, 62, 0
3, 580416, Note_on_c, 1, 71, 71
3, 580604, Note_on_c, 1, 71, 0
3, 580608, Note_on_c, 1, 72, 71
3, 580796, Note_on_c, 1, 72, 0
3, 580800, Note_on_c, 1, 67, 71
3, 580988, Note_on_c, 1, 67, 0
3, 580992, Note_on_c, 1, 64, 71
3, 581180, Note_on_c, 1, 64, 0
3, 581184, Note_on_c, 1, 67, 71
3, 581372, Note_on_c, 1, 67, 0
3, 581376, Note_on_c, 1, 72, 71
3, 581756, Note_on_c, 1, 72, 0
3, 582144, Note_on_c, 1, 72, 71
3, 582332, Note_on_c, 1, 72, 0
3, 582336, Note_on_c, 1, 71, 71
3, 582524, Note_on_c, 1, 71, 0
3, 582528, Note_on_c, 1, 72, 71
3, 582716, Note_on_c, 1, 72, 0
3, 582720, Note_on_c, 1, 71, 71
3, 582908, Note_on_c, 1, 71, 0
3, 582912, Note_on_c, 1, 72, 71
3, 583292, Note_on_c, 1, 72, 0
3, 583680, Note_on_c, 1, 84, 71
3, 583868, Note_on_c, 1, 84, 0
3, 583872, Note_on_c, 1, 83, 71
3, 584060, Note_on_c, 1, 83, 0
3, 584064, Note_on_c, 1, 84, 71
3, 584252, Note_on_c, 1, 84, 0
3, 584256, Note_on_c, 1, 83, 71
3, 584444, Note_on_c, 1, 83, 0
3, 584448, Note_on_c, 1, 84, 71
3, 584828, Note_on_c, 1, 84, 0
3, 585216, Note_on_c, 1, 60, 92
3, 585404, Note_on_c, 1, 60, 0
3, 585408, Note_on_c, 1, 64, 92
3, 585596, Note_on_c, 1, 64, 0
3, 585600, Note_on_c, 1, 67, 92
3, 585788, Note_on_c, 1, 67, 0
3, 585792, Note_on_c, 1, 72, 92
3, 585980, Note_on_c, 1, 72, 0
3, 585984, Note_on_c, 1, 59, 92
3, 586172, Note_on_c, 1, 59, 0
3, 586176, Note_on_c, 1, 62, 92
3, 586364, Note_on_c, 1, 62, 0
3, 586368, Note_on_c, 1, 67, 92
3, 586556, Note_on_c, 1, 67, 0
3, 586560, Note_on_c, 1, 71, 92
3, 586748, Note_on_c, 1, 71, 0
3, 586752, Note_on_c, 1, 60, 92
3, 586940, Note_on_c, 1, 60, 0
3, 586944, Note_on_c, 1, 64, 92
3, 587132, Note_on_c, 1, 64, 0
3, 587136, Note_on_c, 1, 67, 92
3, 587324, Note_on_c, 1, 67, 0
3, 587328, Note_on_c, 1, 72, 92
3, 587516, Note_on_c, 1, 72, 0
3, 587520, Note_on_c, 1, 62, 92
3, 587708, Note_on_c, 1, 62, 0
3, 587712, Note_on_c, 1, 67, 92
3, 587900, Note_on_c, 1, 67, 0
3, 587904, Note_on_c, 1, 71, 92
3, 588092, Note_on_c, 1, 71, 0
3, 588096, Note_on_c, 1, 74, 92
3, 588284, Note_on_c, 1, 74, 0
3, 588288, Note_on_c, 1, 76, 92
3, 588476, Note_on_c, 1, 76, 0
3, 588480, Note_on_c, 1, 72, 92
3, 588668, Note_on_c, 1, 72, 0
3, 588672, Note_on_c, 1, 76, 92
3, 588860, Note_on_c, 1, 76, 0
3, 588864, Note_on_c, 1, 72, 92
3, 589052, Note_on_c, 1, 72, 0
3, 589056, Note_on_c, 1, 76, 92
3, 589244, Note_on_c, 1, 76, 0
3, 589248, Note_on_c, 1, 74, 92
3, 589436, Note_on_c, 1, 74, 0
3, 589440, Note_on_c, 1, 72, 92
3, 589628, Note_on_c, 1, 72, 0
3, 589632, Note_on_c, 1, 71, 92
3, 589820, Note_on_c, 1, 71, 0
3, 589824, Note_on_c, 1, 72, 92
3, 589824, Note_on_c, 1, 67, 92
3, 589824, Note_on_c, 1, 64, 92
3, 591356, Note_on_c, 1, 64, 0
3, 591356, Note_on_c, 1, 67, 0
3, 591356, Note_on_c, 1, 72, 0
3, 591360, Note_on_c, 1, 74, 92
3, 591360, Note_on_c, 1, 71, 92
3, 591360, Note_on_c, 1, 67, 92
3, 592892, Note_on_c, 1, 67, 0
3, 592892, Note_on_c, 1, 71, 0
3, 592892, Note_on_c, 1, 74, 0
3, 592896, Note_on_c, 1, 76, 71
3, 592896, Note_on_c, 1, 72, 71
3, 593084, Note_on_c, 1, 76, 0
3, 593088, Note_on_c, 1, 79, 71
3, 593276, Note_on_c, 1, 79, 0
3, 593276, Note_on_c, 1, 72, 0
3, 593280, Note_on_c, 1, 76, 71
3, 593280, Note_on_c, 1, 67, 71
3, 593468, Note_on_c, 1, 76, 0
3, 593472, Note_on_c, 1, 74, 71
3, 593660, Note_on_c, 1, 74, 0
3, 593664, Note_on_c, 1, 72, 71
3, 594044, Note_on_c, 1, 72, 0
3, 594044, Note_on_c, 1, 67, 0
3, 594048, Note_on_c, 1, 74, 71
3, 594048, Note_on_c, 1, 71, 71
3, 594428, Note_on_c, 1, 71, 0
3, 594428, Note_on_c, 1, 74, 0
3, 594432, Note_on_c, 1, 76, 71
3, 594432, Note_on_c, 1, 72, 71
3, 594620, Note_on_c, 1, 76, 0
3, 594624, Note_on_c, 1, 79, 71
3, 594812, Note_on_c, 1, 79, 0
3, 594812, Note_on_c, 1, 72, 0
3, 594816, Note_on_c, 1, 76, 71
3, 594816, Note_on_c, 1, 67, 71
3, 595004, Note_on_c, 1, 76, 0
3, 595008, Note_on_c, 1, 74, 71
3, 595196, Note_on_c, 1, 74, 0
3, 595200, Note_on_c, 1, 72, 71
3, 595580, Note_on_c, 1, 72, 0
3, 595580, Note_on_c, 1, 67, 0
3, 595584, Note_on_c, 1, 74, 71
3, 595584, Note_on_c, 1, 71, 71
3, 595964, Note_on_c, 1, 71, 0
3, 595964, Note_on_c, 1, 74, 0
3, 595968, Note_on_c, 1, 76, 71
3, 595968, Note_on_c, 1, 72, 71
3, 596156, Note_on_c, 1, 76, 0
3, 596160, Note_on_c, 1, 79, 71
3, 596348, Note_on_c, 1, 79, 0
3, 596348, Note_on_c, 1, 72, 0
3, 596352, Note_on_c, 1, 76, 71
3, 596352, Note_on_c, 1, 67, 71
3, 596540, Note_on_c, 1, 76, 0
3, 596544, Note_on_c, 1, 74, 71
3, 596732, Note_on_c, 1, 74, 0
3, 596736, Note_on_c, 1, 72, 71
3, 597116, Note_on_c, 1, 72, 0
3, 597116, Note_on_c, 1, 67, 0
3, 597120, Note_on_c, 1, 74, 71
3, 597120, Note_on_c, 1, 71, 71
3, 597500, Note_on_c, 1, 71, 0
3, 597500, Note_on_c, 1, 74, 0
3, 597504, Note_on_c, 1, 76, 71
3, 597504, Note_on_c, 1, 72, 71
3, 597692, Note_on_c, 1, 76, 0
3, 597696, Note_on_c, 1, 72, 71
3, 597884, Note_on_c, 1, 72, 0
3, 597884, Note_on_c, 1, 72, 0
3, 597888, Note_on_c, 1, 76, 71
3, 598076, Note_on_c, 1, 76, 0
3, 598080, Note_on_c, 1, 79, 71
3, 598268, Note_on_c, 1, 79, 0
3, 598272, Note_on_c, 1, 76, 71
3, 598652, Note_on_c, 1, 76, 0
3, 598656, Note_on_c, 1, 83, 92
3, 598656, Note_on_c, 1, 79, 92
3, 598656, Note_on_c, 1, 74, 92
3, 599036, Note_on_c, 1, 74, 0
3, 599036, Note_on_c, 1, 79, 0
3, 599036, Note_on_c, 1, 83, 0
3, 599040, Note_on_c, 1, 84, 96
3, 599040, Note_on_c, 1, 79, 96
3, 599040, Note_on_c, 1, 76, 96
3, 599420, Note_on_c, 1, 76, 0
3, 599420, Note_on_c, 1, 79, 0
3, 599420, Note_on_c, 1, 84, 0
3, 599424, Note_on_c, 1, 72, 96
3, 599424, Note_on_c, 1, 67, 96
3, 599804, Note_on_c, 1, 67, 0
3, 599804, Note_on_c, 1, 72, 0
3, 599808, Note_on_c, 1, 76, 96
3, 599808, Note_on_c, 1, 72, 96
3, 599808, Note_on_c, 1, 67, 96
3, 600188, Note_on_c, 1, 67, 0
3, 600188, Note_on_c, 1, 72, 0
3, 600188, Note_on_c, 1, 76, 0
3, 600192, Note_on_c, 1, 83, 96
3, 600192, Note_on_c, 1, 79, 96
3, 600192, Note_on_c, 1, 74, 96
3, 600572, Note_on_c, 1, 74, 0
3, 600572, Note_on_c, 1, 79, 0
3, 600572, Note_on_c, 1, 83, 0
3, 600576, Note_on_c, 1, 84, 96
3, 600576, Note_on_c, 1, 79, 96
3, 600576, Note_on_c, 1, 76, 96
3, 600956, Note_on_c, 1, 76, 0
3, 600956, Note_on_c, 1, 79, 0
3, 600956, Note_on_c, 1, 84, 0
3, 600960, Note_on_c, 1, 72, 96
3, 600960, Note_on_c, 1, 67, 96
3, 601340, Note_on_c, 1, 67, 0
3, 601340, Note_on_c, 1, 72, 0
3, 601344, Note_on_c, 1, 76, 96
3, 601344, Note_on_c, 1, 72, 96
3, 601344, Note_on_c, 1, 67, 96
3, 601724, Note_on_c, 1, 67, 0
3, 601724, Note_on_c, 1, 72, 0
3, 601724, Note_on_c, 1, 76, 0
3, 601728, Note_on_c, 1, 83, 96
3, 601728, Note_on_c, 1, 79, 96
3, 601728, Note_on_c, 1, 74, 96
3, 602108, Note_on_c, 1, 74, 0
3, 602108, Note_on_c, 1, 79, 0
3, 602108, Note_on_c, 1, 83, 0
3, 602112, Note_on_c, 1, 84, 96
3, 602112, Note_on_c, 1, 79, 96
3, 602112, Note_on_c, 1, 76, 96
3, 602876, Note_on_c, 1, 76, 0
3, 602876, Note_on_c, 1, 79, 0
3, 602876, Note_on_c, 1, 84, 0
3, 602880, Note_on_c, 1, 84, 96
3, 602880, Note_on_c, 1, 79, 96
3, 602880, Note_on_c, 1, 76, 96
3, 603644, Note_on_c, 1, 76, 0
3, 603644, Note_on_c, 1, 79, 0
3, 603644, Note_on_c, 1, 84, 0
3, 603648, Note_on_c, 1, 84, 96
3, 603648, Note_on_c, 1, 79, 96
3, 603648, Note_on_c, 1, 76, 96
3, 603648, Note_on_c, 1, 72, 96
3, 605180, Note_on_c, 1, 72, 0
3, 605180, Note_on_c, 1, 84, 0
3, 605180, Note_on_c, 1, 79, 0
3, 605180, Note_on_c, 1, 76, 0
3, 605180, End_track
4, 0, Start_track
4, 0, MIDI_port, 0
4, 0, Title_t, "Harp"
4, 0, Control_c, 2, 0, 0
4, 0, Control_c, 2, 32, 0
4, 0, Program_c, 2, 48
4, 0, Control_c, 2, 7, 94
4, 0, Control_c, 2, 10, 91
4, 0, Control_c, 2, 91, 63
4, 0, Control_c, 2, 93, 48
4, 0, Control_c, 2, 121, 0
4, 96, Control_c, 2, 10, 83
4, 192, Control_c, 2, 91, 63
4, 240, Control_c, 2, 93, 40
4, 288, Program_c, 2, 48
4, 2304, Note_on_c, 2, 60, 72
4, 2492, Note_on_c, 2, 60, 0
4, 2496, Note_on_c, 2, 64, 72
4, 2684, Note_on_c, 2, 64, 0
4, 2688, Note_on_c, 2, 67, 72
4, 2876, Note_on_c, 2, 67, 0
4, 2880, Note_on_c, 2, 64, 72
4, 3068, Note_on_c, 2, 64, 0
4, 3072, Note_on_c, 2, 60, 72
4, 3260, Note_on_c, 2, 60, 0
4, 3264, Note_on_c, 2, 55, 72
4, 3452, Note_on_c, 2, 55, 0
4, 3456, Note_on_c, 2, 64, 72
4, 3644, Note_on_c, 2, 64, 0
4, 3648, Note_on_c, 2, 55, 72
4, 3836, Note_on_c, 2, 55, 0
4, 3840, Note_on_c, 2, 62, 72
4, 4028, Note_on_c, 2, 62, 0
4, 4032, Note_on_c, 2, 55, 72
4, 4220, Note_on_c, 2, 55, 0
4, 4224, Note_on_c, 2, 62, 72
4, 4412, Note_on_c, 2, 62, 0
4, 4416, Note_on_c, 2, 55, 72
4, 4604, Note_on_c, 2, 55, 0
4, 4608, Note_on_c, 2, 64, 72
4, 4796, Note_on_c, 2, 64, 0
4, 4800, Note_on_c, 2, 60, 72
4, 4988, Note_on_c, 2, 60, 0
4, 4992, Note_on_c, 2, 64, 72
4, 5180, Note_on_c, 2, 64, 0
4, 5184, Note_on_c, 2, 67, 72
4, 5372, Note_on_c, 2, 67, 0
4, 5376, Note_on_c, 2, 64, 72
4, 5564, Note_on_c, 2, 64, 0
4, 5568, Note_on_c, 2, 60, 72
4, 5756, Note_on_c, 2, 60, 0
4, 5760, Note_on_c, 2, 64, 72
4, 5948, Note_on_c, 2, 64, 0
4, 5952, Note_on_c, 2, 60, 72
4, 6140, Note_on_c, 2, 60, 0
4, 6144, Note_on_c, 2, 65, 72
4, 6332, Note_on_c, 2, 65, 0
4, 6336, Note_on_c, 2, 60, 72
4, 6524, Note_on_c, 2, 60, 0
4, 6528, Note_on_c, 2, 64, 72
4, 6716, Note_on_c, 2, 64, 0
4, 6720, Note_on_c, 2, 60, 72
4, 6908, Note_on_c, 2, 60, 0
4, 6912, Note_on_c, 2, 64, 72
4, 7100, Note_on_c, 2, 64, 0
4, 7104, Note_on_c, 2, 60, 72
4, 7292, Note_on_c, 2, 60, 0
4, 7296, Note_on_c, 2, 64, 72
4, 7484, Note_on_c, 2, 64, 0
4, 7488, Note_on_c, 2, 60, 72
4, 7676, Note_on_c, 2, 60, 0
4, 7680, Note_on_c, 2, 65, 72
4, 7868, Note_on_c, 2, 65, 0
4, 7872, Note_on_c, 2, 60, 72
4, 8060, Note_on_c, 2, 60, 0
4, 8064, Note_on_c, 2, 64, 72
4, 8252, Note_on_c, 2, 64, 0
4, 8256, Note_on_c, 2, 65, 72
4, 8444, Note_on_c, 2, 65, 0
4, 8448, Note_on_c, 2, 67, 72
4, 8636, Note_on_c, 2, 67, 0
4, 8640, Note_on_c, 2, 65, 72
4, 8828, Note_on_c, 2, 65, 0
4, 8832, Note_on_c, 2, 64, 72
4, 9020, Note_on_c, 2, 64, 0
4, 9024, Note_on_c, 2, 62, 72
4, 9212, Note_on_c, 2, 62, 0
4, 9216, Note_on_c, 2, 60, 72
4, 9404, Note_on_c, 2, 60, 0
4, 9408, Note_on_c, 2, 64, 72
4, 9596, Note_on_c, 2, 64, 0
4, 9600, Note_on_c, 2, 67, 72
4, 9788, Note_on_c, 2, 67, 0
4, 9792, Note_on_c, 2, 72, 72
4, 9980, Note_on_c, 2, 72, 0
4, 9984, Note_on_c, 2, 55, 72
4, 10172, Note_on_c, 2, 55, 0
4, 10176, Note_on_c, 2, 59, 72
4, 10364, Note_on_c, 2, 59, 0
4, 10368, Note_on_c, 2, 62, 72
4, 10556, Note_on_c, 2, 62, 0
4, 10560, Note_on_c, 2, 67, 72
4, 10748, Note_on_c, 2, 67, 0
4, 10752, Note_on_c, 2, 60, 72
4, 10940, Note_on_c, 2, 60, 0
4, 10944, Note_on_c, 2, 64, 72
4, 11132, Note_on_c, 2, 64, 0
4, 11136, Note_on_c, 2, 67, 72
4, 11324, Note_on_c, 2, 67, 0
4, 11328, Note_on_c, 2, 72, 72
4, 11516, Note_on_c, 2, 72, 0
4, 11520, Note_on_c, 2, 55, 72
4, 11708, Note_on_c, 2, 55, 0
4, 11712, Note_on_c, 2, 59, 72
4, 11900, Note_on_c, 2, 59, 0
4, 11904, Note_on_c, 2, 62, 72
4, 12092, Note_on_c, 2, 62, 0
4, 12096, Note_on_c, 2, 67, 72
4, 12284, Note_on_c, 2, 67, 0
4, 12288, Note_on_c, 2, 60, 72
4, 12476, Note_on_c, 2, 60, 0
4, 12480, Note_on_c, 2, 64, 72
4, 12668, Note_on_c, 2, 64, 0
4, 12672, Note_on_c, 2, 67, 72
4, 12860, Note_on_c, 2, 67, 0
4, 12864, Note_on_c, 2, 72, 72
4, 13052, Note_on_c, 2, 72, 0
4, 13056, Note_on_c, 2, 60, 72
4, 13436, Note_on_c, 2, 60, 0
4, 13440, Note_on_c, 2, 60, 72
4, 13820, Note_on_c, 2, 60, 0
4, 13824, Note_on_c, 2, 67, 72
4, 14012, Note_on_c, 2, 67, 0
4, 14016, Note_on_c, 2, 72, 72
4, 14204, Note_on_c, 2, 72, 0
4, 14208, Note_on_c, 2, 71, 72
4, 14396, Note_on_c, 2, 71, 0
4, 14400, Note_on_c, 2, 69, 72
4, 14588, Note_on_c, 2, 69, 0
4, 14592, Note_on_c, 2, 67, 72
4, 14780, Note_on_c, 2, 67, 0
4, 14784, Note_on_c, 2, 65, 72
4, 14972, Note_on_c, 2, 65, 0
4, 14976, Note_on_c, 2, 64, 72
4, 15164, Note_on_c, 2, 64, 0
4, 15168, Note_on_c, 2, 62, 72
4, 15356, Note_on_c, 2, 62, 0
4, 15360, Note_on_c, 2, 60, 72
4, 15548, Note_on_c, 2, 60, 0
4, 15552, Note_on_c, 2, 55, 72
4, 15740, Note_on_c, 2, 55, 0
4, 15744, Note_on_c, 2, 60, 72
4, 15932, Note_on_c, 2, 60, 0
4, 15936, Note_on_c, 2, 55, 72
4, 16124, Note_on_c, 2, 55, 0
4, 16128, Note_on_c, 2, 59, 72
4, 16316, Note_on_c, 2, 59, 0
4, 16320, Note_on_c, 2, 55, 72
4, 16508, Note_on_c, 2, 55, 0
4, 16512, Note_on_c, 2, 59, 72
4, 16700, Note_on_c, 2, 59, 0
4, 16704, Note_on_c, 2, 55, 72
4, 16892, Note_on_c, 2, 55, 0
4, 16896, Note_on_c, 2, 60, 72
4, 17084, Note_on_c, 2, 60, 0
4, 17088, Note_on_c, 2, 64, 72
4, 17276, Note_on_c, 2, 64, 0
4, 17280, Note_on_c, 2, 67, 72
4, 17468, Note_on_c, 2, 67, 0
4, 17472, Note_on_c, 2, 64, 72
4, 17660, Note_on_c, 2, 64, 0
4, 17664, Note_on_c, 2, 60, 72
4, 17852, Note_on_c, 2, 60, 0
4, 17856, Note_on_c, 2, 59, 72
4, 18044, Note_on_c, 2, 59, 0
4, 18048, Note_on_c, 2, 60, 72
4, 18236, Note_on_c, 2, 60, 0
4, 18240, Note_on_c, 2, 59, 72
4, 18428, Note_on_c, 2, 59, 0
4, 18432, Note_on_c, 2, 60, 72
4, 18620, Note_on_c, 2, 60, 0
4, 18624, Note_on_c, 2, 59, 72
4, 18812, Note_on_c, 2, 59, 0
4, 18816, Note_on_c, 2, 60, 72
4, 19004, Note_on_c, 2, 60, 0
4, 19008, Note_on_c, 2, 59, 72
4, 19196, Note_on_c, 2, 59, 0
4, 19200, Note_on_c, 2, 60, 72
4, 19388, Note_on_c, 2, 60, 0
4, 19392, Note_on_c, 2, 59, 72
4, 19580, Note_on_c, 2, 59, 0
4, 19584, Note_on_c, 2, 60, 72
4, 19772, Note_on_c, 2, 60, 0
4, 19776, Note_on_c, 2, 59, 72
4, 19964, Note_on_c, 2, 59, 0
4, 19968, Note_on_c, 2, 60, 72
4, 20156, Note_on_c, 2, 60, 0
4, 20160, Note_on_c, 2, 59, 72
4, 20348, Note_on_c, 2, 59, 0
4, 20352, Note_on_c, 2, 60, 72
4, 20540, Note_on_c, 2, 60, 0
4, 20544, Note_on_c, 2, 59, 72
4, 20732, Note_on_c, 2, 59, 0
4, 20736, Note_on_c, 2, 60, 72
4, 21116, Note_on_c, 2, 60, 0
4, 21120, Note_on_c, 2, 64, 72
4, 21500, Note_on_c, 2, 64, 0
4, 21504, Note_on_c, 2, 48, 58
4, 21504, Note_on_c, 2, 64, 72
4, 21692, Note_on_c, 2, 48, 0
4, 21696, Note_on_c, 2, 52, 58
4, 21884, Note_on_c, 2, 52, 0
4, 21888, Note_on_c, 2, 55, 58
4, 22076, Note_on_c, 2, 55, 0
4, 22080, Note_on_c, 2, 60, 58
4, 22268, Note_on_c, 2, 60, 0
4, 22268, Note_on_c, 2, 64, 0
4, 22272, Note_on_c, 2, 55, 58
4, 22460, Note_on_c, 2, 55, 0
4, 22464, Note_on_c, 2, 59, 58
4, 22652, Note_on_c, 2, 59, 0
4, 22656, Note_on_c, 2, 62, 58
4, 22844, Note_on_c, 2, 62, 0
4, 22848, Note_on_c, 2, 67, 58
4, 23036, Note_on_c, 2, 67, 0
4, 23040, Note_on_c, 2, 60, 72
4, 23228, Note_on_c, 2, 60, 0
4, 23232, Note_on_c, 2, 64, 72
4, 23420, Note_on_c, 2, 64, 0
4, 23424, Note_on_c, 2, 67, 72
4, 23612, Note_on_c, 2, 67, 0
4, 23616, Note_on_c, 2, 72, 72
4, 23804, Note_on_c, 2, 72, 0
4, 23808, Note_on_c, 2, 55, 72
4, 23996, Note_on_c, 2, 55, 0
4, 24000, Note_on_c, 2, 59, 72
4, 24188, Note_on_c, 2, 59, 0
4, 24192, Note_on_c, 2, 62, 72
4, 24380, Note_on_c, 2, 62, 0
4, 24384, Note_on_c, 2, 67, 72
4, 24572, Note_on_c, 2, 67, 0
4, 24576, Note_on_c, 2, 52, 58
4, 24764, Note_on_c, 2, 52, 0
4, 24768, Note_on_c, 2, 55, 58
4, 24956, Note_on_c, 2, 55, 0
4, 24960, Note_on_c, 2, 60, 58
4, 25148, Note_on_c, 2, 60, 0
4, 25152, Note_on_c, 2, 64, 58
4, 25340, Note_on_c, 2, 64, 0
4, 25344, Note_on_c, 2, 55, 58
4, 26108, Note_on_c, 2, 55, 0
4, 26112, Note_on_c, 2, 48, 90
4, 26300, Note_on_c, 2, 48, 0
4, 26304, Note_on_c, 2, 50, 90
4, 26492, Note_on_c, 2, 50, 0
4, 26496, Note_on_c, 2, 52, 90
4, 26684, Note_on_c, 2, 52, 0
4, 26688, Note_on_c, 2, 50, 90
4, 26876, Note_on_c, 2, 50, 0
4, 26880, Note_on_c, 2, 48, 90
4, 27068, Note_on_c, 2, 48, 0
4, 27072, Note_on_c, 2, 50, 90
4, 27260, Note_on_c, 2, 50, 0
4, 27264, Note_on_c, 2, 52, 90
4, 27452, Note_on_c, 2, 52, 0
4, 27456, Note_on_c, 2, 53, 90
4, 27644, Note_on_c, 2, 53, 0
4, 27648, Note_on_c, 2, 55, 90
4, 27836, Note_on_c, 2, 55, 0
4, 27840, Note_on_c, 2, 57, 90
4, 28028, Note_on_c, 2, 57, 0
4, 28032, Note_on_c, 2, 59, 90
4, 28220, Note_on_c, 2, 59, 0
4, 28224, Note_on_c, 2, 57, 90
4, 28412, Note_on_c, 2, 57, 0
4, 28416, Note_on_c, 2, 55, 90
4, 28604, Note_on_c, 2, 55, 0
4, 28608, Note_on_c, 2, 57, 90
4, 28796, Note_on_c, 2, 57, 0
4, 28800, Note_on_c, 2, 59, 90
4, 28988, Note_on_c, 2, 59, 0
4, 28992, Note_on_c, 2, 55, 90
4, 29180, Note_on_c, 2, 55, 0
4, 29184, Note_on_c, 2, 60, 90
4, 29372, Note_on_c, 2, 60, 0
4, 29376, Note_on_c, 2, 64, 90
4, 29564, Note_on_c, 2, 64, 0
4, 29568, Note_on_c, 2, 60, 90
4, 29756, Note_on_c, 2, 60, 0
4, 29760, Note_on_c, 2, 55, 90
4, 29948, Note_on_c, 2, 55, 0
4, 29952, Note_on_c, 2, 52, 90
4, 30140, Note_on_c, 2, 52, 0
4, 30144, Note_on_c, 2, 55, 90
4, 30332, Note_on_c, 2, 55, 0
4, 30336, Note_on_c, 2, 52, 90
4, 30524, Note_on_c, 2, 52, 0
4, 30528, Note_on_c, 2, 48, 90
4, 30716, Note_on_c, 2, 48, 0
4, 30720, Note_on_c, 2, 43, 90
4, 30908, Note_on_c, 2, 43, 0
4, 30912, Note_on_c, 2, 47, 90
4, 31100, Note_on_c, 2, 47, 0
4, 31104, Note_on_c, 2, 50, 90
4, 31292, Note_on_c, 2, 50, 0
4, 31296, Note_on_c, 2, 55, 90
4, 31484, Note_on_c, 2, 55, 0
4, 31488, Note_on_c, 2, 59, 90
4, 31676, Note_on_c, 2, 59, 0
4, 31680, Note_on_c, 2, 62, 90
4, 31868, Note_on_c, 2, 62, 0
4, 31872, Note_on_c, 2, 59, 90
4, 32060, Note_on_c, 2, 59, 0
4, 32064, Note_on_c, 2, 55, 90
4, 32252, Note_on_c, 2, 55, 0
4, 32256, Note_on_c, 2, 60, 58
4, 32636, Note_on_c, 2, 60, 0
4, 32640, Note_on_c, 2, 57, 90
4, 32640, Note_on_c, 2, 57, 90
4, 32784, Note_on_c, 2, 60, 58
4, 32828, Note_on_c, 2, 57, 0
4, 32972, Note_on_c, 2, 60, 0
4, 33024, Note_on_c, 2, 57, 58
4, 33212, Note_on_c, 2, 57, 0
4, 33216, Note_on_c, 2, 60, 58
4, 33404, Note_on_c, 2, 60, 0
4, 33404, Note_on_c, 2, 57, 0
4, 33408, Note_on_c, 2, 55, 58
4, 33408, Note_on_c, 2, 55, 58
4, 33596, Note_on_c, 2, 55, 0
4, 33600, Note_on_c, 2, 60, 58
4, 33788, Note_on_c, 2, 60, 0
4, 33788, Note_on_c, 2, 55, 0
4, 33792, Note_on_c, 2, 53, 58
4, 33792, Note_on_c, 2, 53, 58
4, 33980, Note_on_c, 2, 53, 0
4, 33984, Note_on_c, 2, 60, 58
4, 34172, Note_on_c, 2, 60, 0
4, 34172, Note_on_c, 2, 53, 0
4, 34176, Note_on_c, 2, 52, 58
4, 34176, Note_on_c, 2, 52, 58
4, 34364, Note_on_c, 2, 52, 0
4, 34368, Note_on_c, 2, 60, 58
4, 34556, Note_on_c, 2, 60, 0
4, 34556, Note_on_c, 2, 52, 0
4, 34560, Note_on_c, 2, 57, 58
4, 34560, Note_on_c, 2, 57, 58
4, 34748, Note_on_c, 2, 57, 0
4, 34752, Note_on_c, 2, 60, 58
4, 34940, Note_on_c, 2, 60, 0
4, 34940, Note_on_c, 2, 57, 0
4, 34944, Note_on_c, 2, 55, 58
4, 34944, Note_on_c, 2, 55, 58
4, 35132, Note_on_c, 2, 55, 0
4, 35136, Note_on_c, 2, 60, 58
4, 35324, Note_on_c, 2, 60, 0
4, 35324, Note_on_c, 2, 55, 0
4, 35328, Note_on_c, 2, 53, 58
4, 35328, Note_on_c, 2, 53, 58
4, 35516, Note_on_c, 2, 53, 0
4, 35520, Note_on_c, 2, 60, 58
4, 35708, Note_on_c, 2, 60, 0
4, 35708, Note_on_c, 2, 53, 0
4, 35712, Note_on_c, 2, 57, 90
4, 35712, Note_on_c, 2, 57, 90
4, 35900, Note_on_c, 2, 57, 0
4, 35904, Note_on_c, 2, 60, 58
4, 36092, Note_on_c, 2, 60, 0
4, 36096, Note_on_c, 2, 57, 58
4, 36284, Note_on_c, 2, 57, 0
4, 36288, Note_on_c, 2, 60, 58
4, 36476, Note_on_c, 2, 60, 0
4, 36476, Note_on_c, 2, 57, 0
4, 36480, Note_on_c, 2, 55, 58
4, 36480, Note_on_c, 2, 55, 58
4, 36668, Note_on_c, 2, 55, 0
4, 36672, Note_on_c, 2, 60, 58
4, 36860, Note_on_c, 2, 60, 0
4, 36860, Note_on_c, 2, 55, 0
4, 36864, Note_on_c, 2, 53, 58
4, 36864, Note_on_c, 2, 53, 58
4, 37052, Note_on_c, 2, 53, 0
4, 37056, Note_on_c, 2, 60, 58
4, 37244, Note_on_c, 2, 60, 0
4, 37244, Note_on_c, 2, 53, 0
4, 37248, Note_on_c, 2, 52, 58
4, 37248, Note_on_c, 2, 52, 58
4, 37424, Note_on_c, 2, 60, 58
4, 37436, Note_on_c, 2, 52, 0
4, 37612, Note_on_c, 2, 60, 0
4, 37628, Note_on_c, 2, 52, 0
4, 37632, Note_on_c, 2, 57, 58
4, 37632, Note_on_c, 2, 57, 58
4, 37820, Note_on_c, 2, 57, 0
4, 37824, Note_on_c, 2, 60, 58
4, 38012, Note_on_c, 2, 60, 0
4, 38012, Note_on_c, 2, 57, 0
4, 38016, Note_on_c, 2, 55, 58
4, 38016, Note_on_c, 2, 55, 58
4, 38204, Note_on_c, 2, 55, 0
4, 38208, Note_on_c, 2, 60, 58
4, 38396, Note_on_c, 2, 60, 0
4, 38396, Note_on_c, 2, 55, 0
4, 38400, Note_on_c, 2, 53, 58
4, 38592, Note_on_c, 2, 57, 58
4, 38780, Note_on_c, 2, 57, 0
4, 38784, Note_on_c, 2, 60, 58
4, 38972, Note_on_c, 2, 60, 0
4, 38976, Note_on_c, 2, 57, 58
4, 39164, Note_on_c, 2, 57, 0
4, 39168, Note_on_c, 2, 60, 58
4, 39356, Note_on_c, 2, 60, 0
4, 39360, Note_on_c, 2, 57, 58
4, 39548, Note_on_c, 2, 57, 0
4, 39552, Note_on_c, 2, 60, 58
4, 39740, Note_on_c, 2, 60, 0
4, 39744, Note_on_c, 2, 57, 58
4, 39932, Note_on_c, 2, 57, 0
4, 39932, Note_on_c, 2, 53, 0
4, 39936, Note_on_c, 2, 60, 58
4, 39936, Note_on_c, 2, 54, 58
4, 40124, Note_on_c, 2, 60, 0
4, 40128, Note_on_c, 2, 57, 58
4, 40316, Note_on_c, 2, 57, 0
4, 40320, Note_on_c, 2, 60, 58
4, 40508, Note_on_c, 2, 60, 0
4, 40512, Note_on_c, 2, 57, 58
4, 40700, Note_on_c, 2, 57, 0
4, 40704, Note_on_c, 2, 60, 58
4, 40892, Note_on_c, 2, 60, 0
4, 40896, Note_on_c, 2, 57, 58
4, 41084, Note_on_c, 2, 57, 0
4, 41088, Note_on_c, 2, 60, 58
4, 41276, Note_on_c, 2, 60, 0
4, 41280, Note_on_c, 2, 57, 58
4, 41468, Note_on_c, 2, 57, 0
4, 41468, Note_on_c, 2, 54, 0
4, 41472, Note_on_c, 2, 55, 58
4, 41660, Note_on_c, 2, 55, 0
4, 41664, Note_on_c, 2, 62, 58
4, 41852, Note_on_c, 2, 62, 0
4, 41856, Note_on_c, 2, 59, 58
4, 42044, Note_on_c, 2, 59, 0
4, 42048, Note_on_c, 2, 62, 58
4, 42236, Note_on_c, 2, 62, 0
4, 42240, Note_on_c, 2, 55, 58
4, 42428, Note_on_c, 2, 55, 0
4, 42432, Note_on_c, 2, 62, 58
4, 42620, Note_on_c, 2, 62, 0
4, 42624, Note_on_c, 2, 59, 58
4, 42812, Note_on_c, 2, 59, 0
4, 42816, Note_on_c, 2, 62, 58
4, 43004, Note_on_c, 2, 62, 0
4, 43008, Note_on_c, 2, 55, 58
4, 43196, Note_on_c, 2, 55, 0
4, 43200, Note_on_c, 2, 62, 58
4, 43388, Note_on_c, 2, 62, 0
4, 43392, Note_on_c, 2, 59, 58
4, 43580, Note_on_c, 2, 59, 0
4, 43584, Note_on_c, 2, 62, 58
4, 43772, Note_on_c, 2, 62, 0
4, 43776, Note_on_c, 2, 55, 58
4, 43964, Note_on_c, 2, 55, 0
4, 43968, Note_on_c, 2, 62, 58
4, 44156, Note_on_c, 2, 62, 0
4, 44160, Note_on_c, 2, 59, 58
4, 44348, Note_on_c, 2, 59, 0
4, 44352, Note_on_c, 2, 62, 58
4, 44540, Note_on_c, 2, 62, 0
4, 44928, Note_on_c, 2, 48, 58
4, 45308, Note_on_c, 2, 48, 0
4, 45312, Note_on_c, 2, 52, 58
4, 45692, Note_on_c, 2, 52, 0
4, 45696, Note_on_c, 2, 48, 58
4, 46076, Note_on_c, 2, 48, 0
4, 46464, Note_on_c, 2, 50, 58
4, 46844, Note_on_c, 2, 50, 0
4, 46848, Note_on_c, 2, 47, 58
4, 47228, Note_on_c, 2, 47, 0
4, 47232, Note_on_c, 2, 43, 58
4, 47612, Note_on_c, 2, 43, 0
4, 48000, Note_on_c, 2, 48, 58
4, 48380, Note_on_c, 2, 48, 0
4, 48384, Note_on_c, 2, 57, 58
4, 48764, Note_on_c, 2, 57, 0
4, 48768, Note_on_c, 2, 53, 58
4, 49148, Note_on_c, 2, 53, 0
4, 49536, Note_on_c, 2, 55, 58
4, 49916, Note_on_c, 2, 55, 0
4, 49920, Note_on_c, 2, 43, 58
4, 50300, Note_on_c, 2, 43, 0
4, 50304, Note_on_c, 2, 53, 58
4, 50684, Note_on_c, 2, 53, 0
4, 51072, Note_on_c, 2, 64, 58
4, 51072, Note_on_c, 2, 52, 58
4, 51452, Note_on_c, 2, 52, 0
4, 51452, Note_on_c, 2, 64, 0
4, 51456, Note_on_c, 2, 62, 58
4, 51456, Note_on_c, 2, 50, 58
4, 51836, Note_on_c, 2, 50, 0
4, 51836, Note_on_c, 2, 62, 0
4, 51840, Note_on_c, 2, 60, 58
4, 51840, Note_on_c, 2, 48, 58
4, 52220, Note_on_c, 2, 48, 0
4, 52220, Note_on_c, 2, 60, 0
4, 52608, Note_on_c, 2, 57, 58
4, 52608, Note_on_c, 2, 69, 58
4, 52988, Note_on_c, 2, 69, 0
4, 52988, Note_on_c, 2, 57, 0
4, 52992, Note_on_c, 2, 55, 58
4, 52992, Note_on_c, 2, 67, 58
4, 53372, Note_on_c, 2, 67, 0
4, 53372, Note_on_c, 2, 55, 0
4, 53376, Note_on_c, 2, 53, 58
4, 53376, Note_on_c, 2, 65, 58
4, 53756, Note_on_c, 2, 65, 0
4, 53756, Note_on_c, 2, 53, 0
4, 53760, Note_on_c, 2, 64, 58
4, 53760, Note_on_c, 2, 52, 58
4, 54140, Note_on_c, 2, 52, 0
4, 54140, Note_on_c, 2, 64, 0
4, 54144, Note_on_c, 2, 57, 58
4, 54144, Note_on_c, 2, 60, 58
4, 54524, Note_on_c, 2, 57, 0
4, 54528, Note_on_c, 2, 53, 58
4, 54908, Note_on_c, 2, 53, 0
4, 54908, Note_on_c, 2, 60, 0
4, 54912, Note_on_c, 2, 55, 58
4, 54912, Note_on_c, 2, 59, 58
4, 55292, Note_on_c, 2, 59, 0
4, 55292, Note_on_c, 2, 55, 0
4, 55296, Note_on_c, 2, 59, 58
4, 55676, Note_on_c, 2, 59, 0
4, 55680, Note_on_c, 2, 60, 58
4, 55680, Note_on_c, 2, 48, 58
4, 56060, Note_on_c, 2, 48, 0
4, 56060, Note_on_c, 2, 60, 0
4, 56064, Note_on_c, 2, 52, 58
4, 56444, Note_on_c, 2, 52, 0
4, 56448, Note_on_c, 2, 55, 58
4, 56828, Note_on_c, 2, 55, 0
4, 57216, Note_on_c, 2, 60, 81
4, 57596, Note_on_c, 2, 60, 0
4, 57600, Note_on_c, 2, 59, 81
4, 57980, Note_on_c, 2, 59, 0
4, 57984, Note_on_c, 2, 58, 81
4, 58364, Note_on_c, 2, 58, 0
4, 58368, Note_on_c, 2, 57, 81
4, 58748, Note_on_c, 2, 57, 0
4, 58752, Note_on_c, 2, 60, 81
4, 59132, Note_on_c, 2, 60, 0
4, 59136, Note_on_c, 2, 57, 81
4, 59516, Note_on_c, 2, 57, 0
4, 59520, Note_on_c, 2, 53, 81
4, 59900, Note_on_c, 2, 53, 0
4, 59904, Note_on_c, 2, 52, 81
4, 61436, Note_on_c, 2, 52, 0
4, 61440, Note_on_c, 2, 53, 81
4, 62204, Note_on_c, 2, 53, 0
4, 62208, Note_on_c, 2, 57, 81
4, 62972, Note_on_c, 2, 57, 0
4, 62976, Note_on_c, 2, 64, 81
4, 62976, Note_on_c, 2, 55, 81
4, 63164, Note_on_c, 2, 64, 0
4, 63168, Note_on_c, 2, 60, 81
4, 63356, Note_on_c, 2, 60, 0
4, 63360, Note_on_c, 2, 64, 81
4, 63548, Note_on_c, 2, 64, 0
4, 63552, Note_on_c, 2, 60, 81
4, 63740, Note_on_c, 2, 60, 0
4, 63744, Note_on_c, 2, 64, 81
4, 63932, Note_on_c, 2, 64, 0
4, 63936, Note_on_c, 2, 64, 81
4, 64124, Note_on_c, 2, 64, 0
4, 64128, Note_on_c, 2, 65, 81
4, 64316, Note_on_c, 2, 65, 0
4, 64320, Note_on_c, 2, 67, 81
4, 64508, Note_on_c, 2, 67, 0
4, 64508, Note_on_c, 2, 55, 0
4, 64512, Note_on_c, 2, 55, 81
4, 64512, Note_on_c, 2, 67, 81
4, 64700, Note_on_c, 2, 67, 0
4, 64704, Note_on_c, 2, 65, 81
4, 64892, Note_on_c, 2, 65, 0
4, 64896, Note_on_c, 2, 64, 81
4, 65084, Note_on_c, 2, 64, 0
4, 65088, Note_on_c, 2, 67, 81
4, 65276, Note_on_c, 2, 67, 0
4, 65280, Note_on_c, 2, 64, 81
4, 65468, Note_on_c, 2, 64, 0
4, 65472, Note_on_c, 2, 67, 81
4, 65660, Note_on_c, 2, 67, 0
4, 65664, Note_on_c, 2, 65, 81
4, 65852, Note_on_c, 2, 65, 0
4, 65856, Note_on_c, 2, 62, 81
4, 66044, Note_on_c, 2, 62, 0
4, 66044, Note_on_c, 2, 55, 0
4, 66048, Note_on_c, 2, 60, 90
4, 66048, Note_on_c, 2, 64, 90
4, 66428, Note_on_c, 2, 64, 0
4, 66428, Note_on_c, 2, 60, 0
4, 66432, Note_on_c, 2, 48, 90
4, 66620, Note_on_c, 2, 48, 0
4, 66624, Note_on_c, 2, 48, 90
4, 66812, Note_on_c, 2, 48, 0
4, 66816, Note_on_c, 2, 47, 90
4, 67004, Note_on_c, 2, 47, 0
4, 67008, Note_on_c, 2, 50, 90
4, 67196, Note_on_c, 2, 50, 0
4, 67200, Note_on_c, 2, 53, 90
4, 67388, Note_on_c, 2, 53, 0
4, 67392, Note_on_c, 2, 53, 90
4, 67580, Note_on_c, 2, 53, 0
4, 67584, Note_on_c, 2, 52, 90
4, 67772, Note_on_c, 2, 52, 0
4, 67776, Note_on_c, 2, 55, 90
4, 67964, Note_on_c, 2, 55, 0
4, 67968, Note_on_c, 2, 60, 90
4, 68156, Note_on_c, 2, 60, 0
4, 68160, Note_on_c, 2, 60, 90
4, 68348, Note_on_c, 2, 60, 0
4, 68352, Note_on_c, 2, 59, 90
4, 68732, Note_on_c, 2, 59, 0
4, 68736, Note_on_c, 2, 55, 90
4, 68924, Note_on_c, 2, 55, 0
4, 68928, Note_on_c, 2, 55, 90
4, 69116, Note_on_c, 2, 55, 0
4, 69120, Note_on_c, 2, 60, 90
4, 69500, Note_on_c, 2, 60, 0
4, 69504, Note_on_c, 2, 55, 90
4, 69692, Note_on_c, 2, 55, 0
4, 69696, Note_on_c, 2, 55, 90
4, 69884, Note_on_c, 2, 55, 0
4, 69888, Note_on_c, 2, 62, 90
4, 69888, Note_on_c, 2, 65, 90
4, 70268, Note_on_c, 2, 65, 0
4, 70268, Note_on_c, 2, 62, 0
4, 70272, Note_on_c, 2, 55, 90
4, 70460, Note_on_c, 2, 55, 0
4, 70464, Note_on_c, 2, 55, 90
4, 70652, Note_on_c, 2, 55, 0
4, 70656, Note_on_c, 2, 60, 90
4, 70656, Note_on_c, 2, 64, 90
4, 71036, Note_on_c, 2, 64, 0
4, 71036, Note_on_c, 2, 60, 0
4, 71040, Note_on_c, 2, 55, 90
4, 71228, Note_on_c, 2, 55, 0
4, 71232, Note_on_c, 2, 55, 90
4, 71420, Note_on_c, 2, 55, 0
4, 71424, Note_on_c, 2, 59, 90
4, 71424, Note_on_c, 2, 62, 90
4, 71804, Note_on_c, 2, 62, 0
4, 71804, Note_on_c, 2, 59, 0
4, 71808, Note_on_c, 2, 55, 90
4, 71996, Note_on_c, 2, 55, 0
4, 72000, Note_on_c, 2, 55, 90
4, 72188, Note_on_c, 2, 55, 0
4, 72192, Note_on_c, 2, 64, 90
4, 72192, Note_on_c, 2, 60, 90
4, 72572, Note_on_c, 2, 60, 0
4, 72572, Note_on_c, 2, 64, 0
4, 72576, Note_on_c, 2, 55, 90
4, 72764, Note_on_c, 2, 55, 0
4, 72768, Note_on_c, 2, 55, 90
4, 72956, Note_on_c, 2, 55, 0
4, 72960, Note_on_c, 2, 65, 90
4, 72960, Note_on_c, 2, 62, 90
4, 73340, Note_on_c, 2, 62, 0
4, 73340, Note_on_c, 2, 65, 0
4, 73344, Note_on_c, 2, 55, 90
4, 73532, Note_on_c, 2, 55, 0
4, 73536, Note_on_c, 2, 55, 90
4, 73724, Note_on_c, 2, 55, 0
4, 73728, Note_on_c, 2, 60, 90
4, 73728, Note_on_c, 2, 64, 90
4, 74108, Note_on_c, 2, 64, 0
4, 74108, Note_on_c, 2, 60, 0
4, 74112, Note_on_c, 2, 55, 90
4, 74300, Note_on_c, 2, 55, 0
4, 74304, Note_on_c, 2, 55, 90
4, 74492, Note_on_c, 2, 55, 0
4, 74496, Note_on_c, 2, 59, 90
4, 74496, Note_on_c, 2, 62, 90
4, 74876, Note_on_c, 2, 62, 0
4, 74876, Note_on_c, 2, 59, 0
4, 74880, Note_on_c, 2, 55, 90
4, 75068, Note_on_c, 2, 55, 0
4, 75072, Note_on_c, 2, 55, 90
4, 75260, Note_on_c, 2, 55, 0
4, 75264, Note_on_c, 2, 60, 90
4, 75264, Note_on_c, 2, 64, 90
4, 75644, Note_on_c, 2, 64, 0
4, 75644, Note_on_c, 2, 60, 0
4, 75648, Note_on_c, 2, 60, 90
4, 75648, Note_on_c, 2, 64, 90
4, 75936, Note_on_c, 2, 60, 90
4, 76028, Note_on_c, 2, 60, 0
4, 76028, Note_on_c, 2, 64, 0
4, 76028, Note_on_c, 2, 60, 0
4, 76032, Note_on_c, 2, 57, 90
4, 76412, Note_on_c, 2, 57, 0
4, 76416, Note_on_c, 2, 60, 90
4, 76416, Note_on_c, 2, 64, 90
4, 76704, Note_on_c, 2, 57, 90
4, 76796, Note_on_c, 2, 57, 0
4, 76796, Note_on_c, 2, 64, 0
4, 76796, Note_on_c, 2, 60, 0
4, 76800, Note_on_c, 2, 53, 90
4, 77180, Note_on_c, 2, 53, 0
4, 77184, Note_on_c, 2, 62, 90
4, 77184, Note_on_c, 2, 60, 90
4, 77472, Note_on_c, 2, 53, 90
4, 77564, Note_on_c, 2, 53, 0
4, 77564, Note_on_c, 2, 60, 0
4, 77564, Note_on_c, 2, 62, 0
4, 77568, Note_on_c, 2, 55, 90
4, 77948, Note_on_c, 2, 55, 0
4, 77952, Note_on_c, 2, 62, 90
4, 77952, Note_on_c, 2, 59, 90
4, 78240, Note_on_c, 2, 55, 90
4, 78332, Note_on_c, 2, 55, 0
4, 78332, Note_on_c, 2, 59, 0
4, 78332, Note_on_c, 2, 62, 0
4, 78336, Note_on_c, 2, 60, 90
4, 78336, Note_on_c, 2, 48, 90
4, 79100, Note_on_c, 2, 48, 0
4, 79100, Note_on_c, 2, 60, 0
4, 79104, Note_on_c, 2, 48, 90
4, 79292, Note_on_c, 2, 48, 0
4, 79296, Note_on_c, 2, 43, 90
4, 79484, Note_on_c, 2, 43, 0
4, 79488, Note_on_c, 2, 52, 90
4, 79676, Note_on_c, 2, 52, 0
4, 79680, Note_on_c, 2, 52, 90
4, 79868, Note_on_c, 2, 52, 0
4, 79872, Note_on_c, 2, 52, 90
4, 80060, Note_on_c, 2, 52, 0
4, 80064, Note_on_c, 2, 48, 90
4, 80252, Note_on_c, 2, 48, 0
4, 80256, Note_on_c, 2, 55, 90
4, 80444, Note_on_c, 2, 55, 0
4, 80448, Note_on_c, 2, 55, 90
4, 80636, Note_on_c, 2, 55, 0
4, 80640, Note_on_c, 2, 55, 90
4, 80828, Note_on_c, 2, 55, 0
4, 80832, Note_on_c, 2, 52, 90
4, 81020, Note_on_c, 2, 52, 0
4, 81024, Note_on_c, 2, 60, 90
4, 81212, Note_on_c, 2, 60, 0
4, 81216, Note_on_c, 2, 60, 90
4, 81404, Note_on_c, 2, 60, 0
4, 81408, Note_on_c, 2, 60, 90
4, 82172, Note_on_c, 2, 60, 0
4, 84480, Note_on_c, 2, 60, 58
4, 84668, Note_on_c, 2, 60, 0
4, 84672, Note_on_c, 2, 55, 58
4, 84860, Note_on_c, 2, 55, 0
4, 84864, Note_on_c, 2, 60, 58
4, 85052, Note_on_c, 2, 60, 0
4, 85056, Note_on_c, 2, 62, 58
4, 85244, Note_on_c, 2, 62, 0
4, 85248, Note_on_c, 2, 64, 58
4, 85436, Note_on_c, 2, 64, 0
4, 85440, Note_on_c, 2, 60, 58
4, 85628, Note_on_c, 2, 60, 0
4, 85632, Note_on_c, 2, 62, 58
4, 85632, Note_on_c, 2, 55, 58
4, 85820, Note_on_c, 2, 55, 0
4, 85820, Note_on_c, 2, 62, 0
4, 85824, Note_on_c, 2, 59, 58
4, 86012, Note_on_c, 2, 59, 0
4, 86016, Note_on_c, 2, 60, 58
4, 86204, Note_on_c, 2, 60, 0
4, 86208, Note_on_c, 2, 55, 58
4, 86396, Note_on_c, 2, 55, 0
4, 86400, Note_on_c, 2, 60, 58
4, 86588, Note_on_c, 2, 60, 0
4, 86592, Note_on_c, 2, 62, 58
4, 86780, Note_on_c, 2, 62, 0
4, 86784, Note_on_c, 2, 64, 58
4, 86972, Note_on_c, 2, 64, 0
4, 86976, Note_on_c, 2, 60, 58
4, 87164, Note_on_c, 2, 60, 0
4, 87168, Note_on_c, 2, 62, 58
4, 87168, Note_on_c, 2, 55, 58
4, 87356, Note_on_c, 2, 55, 0
4, 87356, Note_on_c, 2, 62, 0
4, 87360, Note_on_c, 2, 59, 58
4, 87548, Note_on_c, 2, 59, 0
4, 87552, Note_on_c, 2, 60, 58
4, 87740, Note_on_c, 2, 60, 0
4, 87744, Note_on_c, 2, 55, 58
4, 87932, Note_on_c, 2, 55, 0
4, 87936, Note_on_c, 2, 60, 58
4, 88124, Note_on_c, 2, 60, 0
4, 88128, Note_on_c, 2, 62, 58
4, 88316, Note_on_c, 2, 62, 0
4, 88320, Note_on_c, 2, 64, 58
4, 88508, Note_on_c, 2, 64, 0
4, 88512, Note_on_c, 2, 60, 58
4, 88700, Note_on_c, 2, 60, 0
4, 88704, Note_on_c, 2, 62, 58
4, 88704, Note_on_c, 2, 55, 58
4, 88892, Note_on_c, 2, 55, 0
4, 88892, Note_on_c, 2, 62, 0
4, 88896, Note_on_c, 2, 59, 58
4, 89084, Note_on_c, 2, 59, 0
4, 89088, Note_on_c, 2, 60, 58
4, 89276, Note_on_c, 2, 60, 0
4, 89280, Note_on_c, 2, 64, 58
4, 89468, Note_on_c, 2, 64, 0
4, 89472, Note_on_c, 2, 60, 58
4, 89660, Note_on_c, 2, 60, 0
4, 89664, Note_on_c, 2, 64, 58
4, 89852, Note_on_c, 2, 64, 0
4, 89856, Note_on_c, 2, 60, 58
4, 90236, Note_on_c, 2, 60, 0
4, 90624, Note_on_c, 2, 60, 71
4, 90812, Note_on_c, 2, 60, 0
4, 90816, Note_on_c, 2, 67, 71
4, 91004, Note_on_c, 2, 67, 0
4, 91008, Note_on_c, 2, 64, 71
4, 91196, Note_on_c, 2, 64, 0
4, 91200, Note_on_c, 2, 67, 71
4, 91388, Note_on_c, 2, 67, 0
4, 91392, Note_on_c, 2, 60, 71
4, 91580, Note_on_c, 2, 60, 0
4, 91584, Note_on_c, 2, 67, 71
4, 91772, Note_on_c, 2, 67, 0
4, 91776, Note_on_c, 2, 64, 71
4, 91964, Note_on_c, 2, 64, 0
4, 91968, Note_on_c, 2, 67, 71
4, 92156, Note_on_c, 2, 67, 0
4, 92160, Note_on_c, 2, 60, 71
4, 92348, Note_on_c, 2, 60, 0
4, 92352, Note_on_c, 2, 67, 71
4, 92540, Note_on_c, 2, 67, 0
4, 92544, Note_on_c, 2, 64, 71
4, 92732, Note_on_c, 2, 64, 0
4, 92736, Note_on_c, 2, 67, 71
4, 92924, Note_on_c, 2, 67, 0
4, 92928, Note_on_c, 2, 60, 71
4, 93116, Note_on_c, 2, 60, 0
4, 93120, Note_on_c, 2, 67, 71
4, 93308, Note_on_c, 2, 67, 0
4, 93312, Note_on_c, 2, 64, 71
4, 93500, Note_on_c, 2, 64, 0
4, 93504, Note_on_c, 2, 67, 71
4, 93692, Note_on_c, 2, 67, 0
4, 93696, Note_on_c, 2, 60, 71
4, 93884, Note_on_c, 2, 60, 0
4, 93888, Note_on_c, 2, 69, 71
4, 94076, Note_on_c, 2, 69, 0
4, 94080, Note_on_c, 2, 65, 71
4, 94268, Note_on_c, 2, 65, 0
4, 94272, Note_on_c, 2, 69, 71
4, 94460, Note_on_c, 2, 69, 0
4, 94464, Note_on_c, 2, 60, 71
4, 94652, Note_on_c, 2, 60, 0
4, 94656, Note_on_c, 2, 69, 71
4, 94844, Note_on_c, 2, 69, 0
4, 94848, Note_on_c, 2, 65, 71
4, 95036, Note_on_c, 2, 65, 0
4, 95040, Note_on_c, 2, 69, 71
4, 95228, Note_on_c, 2, 69, 0
4, 95232, Note_on_c, 2, 60, 71
4, 95420, Note_on_c, 2, 60, 0
4, 95424, Note_on_c, 2, 67, 71
4, 95612, Note_on_c, 2, 67, 0
4, 95616, Note_on_c, 2, 64, 71
4, 95804, Note_on_c, 2, 64, 0
4, 95808, Note_on_c, 2, 67, 71
4, 95984, Note_on_c, 2, 60, 71
4, 95996, Note_on_c, 2, 67, 0
4, 96172, Note_on_c, 2, 60, 0
4, 96192, Note_on_c, 2, 67, 71
4, 96380, Note_on_c, 2, 67, 0
4, 96384, Note_on_c, 2, 64, 71
4, 96572, Note_on_c, 2, 64, 0
4, 96576, Note_on_c, 2, 67, 71
4, 96764, Note_on_c, 2, 67, 0
4, 96768, Note_on_c, 2, 60, 71
4, 96956, Note_on_c, 2, 60, 0
4, 96960, Note_on_c, 2, 67, 71
4, 97148, Note_on_c, 2, 67, 0
4, 97152, Note_on_c, 2, 64, 71
4, 97340, Note_on_c, 2, 64, 0
4, 97344, Note_on_c, 2, 67, 71
4, 97532, Note_on_c, 2, 67, 0
4, 97536, Note_on_c, 2, 60, 71
4, 97724, Note_on_c, 2, 60, 0
4, 97728, Note_on_c, 2, 67, 71
4, 97916, Note_on_c, 2, 67, 0
4, 97920, Note_on_c, 2, 64, 71
4, 98108, Note_on_c, 2, 64, 0
4, 98112, Note_on_c, 2, 67, 71
4, 98300, Note_on_c, 2, 67, 0
4, 98304, Note_on_c, 2, 60, 71
4, 98492, Note_on_c, 2, 60, 0
4, 98496, Note_on_c, 2, 69, 71
4, 98684, Note_on_c, 2, 69, 0
4, 98688, Note_on_c, 2, 62, 71
4, 98876, Note_on_c, 2, 62, 0
4, 98880, Note_on_c, 2, 69, 71
4, 99068, Note_on_c, 2, 69, 0
4, 99072, Note_on_c, 2, 60, 71
4, 99260, Note_on_c, 2, 60, 0
4, 99264, Note_on_c, 2, 67, 71
4, 99452, Note_on_c, 2, 67, 0
4, 99456, Note_on_c, 2, 62, 71
4, 99644, Note_on_c, 2, 62, 0
4, 99648, Note_on_c, 2, 67, 71
4, 99836, Note_on_c, 2, 67, 0
4, 99840, Note_on_c, 2, 60, 52
4, 100220, Note_on_c, 2, 60, 0
4, 100224, Note_on_c, 2, 57, 52
4, 100604, Note_on_c, 2, 57, 0
4, 100608, Note_on_c, 2, 53, 52
4, 100988, Note_on_c, 2, 53, 0
4, 100992, Note_on_c, 2, 55, 52
4, 101372, Note_on_c, 2, 55, 0
4, 101376, Note_on_c, 2, 48, 52
4, 101756, Note_on_c, 2, 48, 0
4, 118272, Note_on_c, 2, 60, 90
4, 118460, Note_on_c, 2, 60, 0
4, 118464, Note_on_c, 2, 64, 90
4, 118652, Note_on_c, 2, 64, 0
4, 118656, Note_on_c, 2, 62, 90
4, 118844, Note_on_c, 2, 62, 0
4, 118848, Note_on_c, 2, 60, 90
4, 119036, Note_on_c, 2, 60, 0
4, 119040, Note_on_c, 2, 59, 90
4, 119228, Note_on_c, 2, 59, 0
4, 119232, Note_on_c, 2, 57, 90
4, 119420, Note_on_c, 2, 57, 0
4, 119424, Note_on_c, 2, 55, 90
4, 119612, Note_on_c, 2, 55, 0
4, 119616, Note_on_c, 2, 53, 90
4, 119804, Note_on_c, 2, 53, 0
4, 119808, Note_on_c, 2, 52, 90
4, 119996, Note_on_c, 2, 52, 0
4, 120000, Note_on_c, 2, 60, 90
4, 120188, Note_on_c, 2, 60, 0
4, 120192, Note_on_c, 2, 59, 90
4, 120380, Note_on_c, 2, 59, 0
4, 120384, Note_on_c, 2, 57, 90
4, 120572, Note_on_c, 2, 57, 0
4, 120576, Note_on_c, 2, 55, 90
4, 120764, Note_on_c, 2, 55, 0
4, 120768, Note_on_c, 2, 53, 90
4, 120956, Note_on_c, 2, 53, 0
4, 120960, Note_on_c, 2, 52, 90
4, 121148, Note_on_c, 2, 52, 0
4, 121152, Note_on_c, 2, 50, 90
4, 121340, Note_on_c, 2, 50, 0
4, 121344, Note_on_c, 2, 48, 90
4, 121724, Note_on_c, 2, 48, 0
4, 122880, Note_on_c, 2, 60, 58
4, 123260, Note_on_c, 2, 60, 0
4, 123264, Note_on_c, 2, 60, 58
4, 123644, Note_on_c, 2, 60, 0
4, 123648, Note_on_c, 2, 60, 58
4, 124028, Note_on_c, 2, 60, 0
4, 124032, Note_on_c, 2, 60, 58
4, 124412, Note_on_c, 2, 60, 0
4, 124416, Note_on_c, 2, 60, 58
4, 125948, Note_on_c, 2, 60, 0
4, 125952, Note_on_c, 2, 55, 58
4, 126332, Note_on_c, 2, 55, 0
4, 126336, Note_on_c, 2, 55, 58
4, 126716, Note_on_c, 2, 55, 0
4, 126720, Note_on_c, 2, 55, 58
4, 127100, Note_on_c, 2, 55, 0
4, 127104, Note_on_c, 2, 55, 58
4, 127484, Note_on_c, 2, 55, 0
4, 127488, Note_on_c, 2, 60, 58
4, 129020, Note_on_c, 2, 60, 0
4, 130560, Note_on_c, 2, 60, 58
4, 132092, Note_on_c, 2, 60, 0
4, 132096, Note_on_c, 2, 64, 58
4, 132284, Note_on_c, 2, 64, 0
4, 132288, Note_on_c, 2, 55, 58
4, 132476, Note_on_c, 2, 55, 0
4, 132480, Note_on_c, 2, 64, 58
4, 132668, Note_on_c, 2, 64, 0
4, 132672, Note_on_c, 2, 55, 58
4, 132860, Note_on_c, 2, 55, 0
4, 132864, Note_on_c, 2, 62, 58
4, 133052, Note_on_c, 2, 62, 0
4, 133056, Note_on_c, 2, 55, 58
4, 133244, Note_on_c, 2, 55, 0
4, 133248, Note_on_c, 2, 62, 58
4, 133436, Note_on_c, 2, 62, 0
4, 133440, Note_on_c, 2, 55, 58
4, 133628, Note_on_c, 2, 55, 0
4, 133632, Note_on_c, 2, 60, 60
4, 134204, Note_on_c, 2, 60, 0
4, 134208, Note_on_c, 2, 60, 60
4, 134396, Note_on_c, 2, 60, 0
4, 134400, Note_on_c, 2, 62, 60
4, 134972, Note_on_c, 2, 62, 0
4, 134976, Note_on_c, 2, 62, 60
4, 135164, Note_on_c, 2, 62, 0
4, 135168, Note_on_c, 2, 64, 60
4, 135740, Note_on_c, 2, 64, 0
4, 135744, Note_on_c, 2, 64, 60
4, 135920, Note_on_c, 2, 65, 60
4, 135932, Note_on_c, 2, 64, 0
4, 136492, Note_on_c, 2, 65, 0
4, 136512, Note_on_c, 2, 65, 60
4, 136700, Note_on_c, 2, 65, 0
4, 136704, Note_on_c, 2, 62, 60
4, 137084, Note_on_c, 2, 62, 0
4, 137088, Note_on_c, 2, 60, 60
4, 137468, Note_on_c, 2, 60, 0
4, 137472, Note_on_c, 2, 59, 60
4, 137660, Note_on_c, 2, 59, 0
4, 137856, Note_on_c, 2, 60, 60
4, 138044, Note_on_c, 2, 60, 0
4, 138432, Note_on_c, 2, 67, 60
4, 138620, Note_on_c, 2, 67, 0
4, 138624, Note_on_c, 2, 66, 60
4, 138812, Note_on_c, 2, 66, 0
4, 138816, Note_on_c, 2, 67, 60
4, 139004, Note_on_c, 2, 67, 0
4, 139008, Note_on_c, 2, 66, 60
4, 139196, Note_on_c, 2, 66, 0
4, 139200, Note_on_c, 2, 67, 60
4, 139344, Note_on_c, 2, 62, 60
4, 139388, Note_on_c, 2, 67, 0
4, 139532, Note_on_c, 2, 62, 0
4, 139584, Note_on_c, 2, 59, 60
4, 139772, Note_on_c, 2, 59, 0
4, 139776, Note_on_c, 2, 55, 60
4, 140156, Note_on_c, 2, 55, 0
4, 141312, Note_on_c, 2, 43, 60
4, 141692, Note_on_c, 2, 43, 0
4, 142848, Note_on_c, 2, 52, 60
4, 142848, Note_on_c, 2, 40, 60
4, 143228, Note_on_c, 2, 40, 0
4, 143228, Note_on_c, 2, 52, 0
4, 145344, Note_on_c, 2, 59, 64
4, 145532, Note_on_c, 2, 59, 0
4, 145536, Note_on_c, 2, 56, 59
4, 145724, Note_on_c, 2, 56, 0
4, 145728, Note_on_c, 2, 52, 54
4, 145916, Note_on_c, 2, 52, 0
4, 145920, Note_on_c, 2, 57, 52
4, 146300, Note_on_c, 2, 57, 0
4, 147456, Note_on_c, 2, 45, 52
4, 147836, Note_on_c, 2, 45, 0
4, 148992, Note_on_c, 2, 50, 52
4, 148992, Note_on_c, 2, 38, 52
4, 149372, Note_on_c, 2, 38, 0
4, 149372, Note_on_c, 2, 50, 0
4, 151488, Note_on_c, 2, 57, 52
4, 151676, Note_on_c, 2, 57, 0
4, 151680, Note_on_c, 2, 54, 52
4, 151868, Note_on_c, 2, 54, 0
4, 151872, Note_on_c, 2, 50, 52
4, 152060, Note_on_c, 2, 50, 0
4, 152064, Note_on_c, 2, 55, 72
4, 152444, Note_on_c, 2, 55, 0
4, 152832, Note_on_c, 2, 60, 72
4, 152832, Note_on_c, 2, 48, 72
4, 153212, Note_on_c, 2, 48, 0
4, 153212, Note_on_c, 2, 60, 0
4, 153600, Note_on_c, 2, 59, 72
4, 153600, Note_on_c, 2, 47, 72
4, 153980, Note_on_c, 2, 47, 0
4, 153980, Note_on_c, 2, 59, 0
4, 154368, Note_on_c, 2, 54, 72
4, 154368, Note_on_c, 2, 42, 72
4, 154748, Note_on_c, 2, 42, 0
4, 154748, Note_on_c, 2, 54, 0
4, 155136, Note_on_c, 2, 55, 72
4, 155136, Note_on_c, 2, 43, 72
4, 155516, Note_on_c, 2, 43, 0
4, 155516, Note_on_c, 2, 55, 0
4, 155904, Note_on_c, 2, 60, 72
4, 155904, Note_on_c, 2, 48, 72
4, 156284, Note_on_c, 2, 48, 0
4, 156284, Note_on_c, 2, 60, 0
4, 156672, Note_on_c, 2, 59, 72
4, 156672, Note_on_c, 2, 47, 72
4, 157052, Note_on_c, 2, 47, 0
4, 157052, Note_on_c, 2, 59, 0
4, 157440, Note_on_c, 2, 54, 72
4, 157440, Note_on_c, 2, 42, 72
4, 157820, Note_on_c, 2, 42, 0
4, 157820, Note_on_c, 2, 54, 0
4, 158208, Note_on_c, 2, 55, 81
4, 158208, Note_on_c, 2, 43, 81
4, 158588, Note_on_c, 2, 43, 0
4, 158588, Note_on_c, 2, 55, 0
4, 158976, Note_on_c, 2, 60, 92
4, 159164, Note_on_c, 2, 60, 0
4, 159168, Note_on_c, 2, 64, 92
4, 159356, Note_on_c, 2, 64, 0
4, 159360, Note_on_c, 2, 66, 92
4, 159548, Note_on_c, 2, 66, 0
4, 159552, Note_on_c, 2, 69, 92
4, 159740, Note_on_c, 2, 69, 0
4, 159744, Note_on_c, 2, 60, 92
4, 159932, Note_on_c, 2, 60, 0
4, 159936, Note_on_c, 2, 62, 92
4, 160124, Note_on_c, 2, 62, 0
4, 160128, Note_on_c, 2, 64, 92
4, 160256, Note_on_c, 2, 67, 92
4, 160316, Note_on_c, 2, 64, 0
4, 160444, Note_on_c, 2, 67, 0
4, 160512, Note_on_c, 2, 60, 92
4, 160700, Note_on_c, 2, 60, 0
4, 160704, Note_on_c, 2, 62, 92
4, 160892, Note_on_c, 2, 62, 0
4, 160896, Note_on_c, 2, 64, 92
4, 161084, Note_on_c, 2, 64, 0
4, 161088, Note_on_c, 2, 66, 92
4, 161276, Note_on_c, 2, 66, 0
4, 161280, Note_on_c, 2, 55, 81
4, 161468, Note_on_c, 2, 55, 0
4, 161472, Note_on_c, 2, 59, 81
4, 161660, Note_on_c, 2, 59, 0
4, 161664, Note_on_c, 2, 61, 81
4, 161852, Note_on_c, 2, 61, 0
4, 161856, Note_on_c, 2, 64, 81
4, 162044, Note_on_c, 2, 64, 0
4, 162048, Note_on_c, 2, 54, 81
4, 162236, Note_on_c, 2, 54, 0
4, 162240, Note_on_c, 2, 57, 81
4, 162428, Note_on_c, 2, 57, 0
4, 162432, Note_on_c, 2, 59, 81
4, 162620, Note_on_c, 2, 59, 0
4, 162624, Note_on_c, 2, 62, 81
4, 162812, Note_on_c, 2, 62, 0
4, 162816, Note_on_c, 2, 61, 81
4, 162816, Note_on_c, 2, 57, 81
4, 162816, Note_on_c, 2, 55, 81
4, 162816, Note_on_c, 2, 52, 81
4, 163580, Note_on_c, 2, 52, 0
4, 163580, Note_on_c, 2, 61, 0
4, 163580, Note_on_c, 2, 57, 0
4, 163580, Note_on_c, 2, 55, 0
4, 164352, Note_on_c, 2, 62, 81
4, 164352, Note_on_c, 2, 57, 81
4, 164352, Note_on_c, 2, 54, 81
4, 164352, Note_on_c, 2, 50, 81
4, 165116, Note_on_c, 2, 50, 0
4, 165116, Note_on_c, 2, 62, 0
4, 165116, Note_on_c, 2, 57, 0
4, 165116, Note_on_c, 2, 54, 0
4, 165888, Note_on_c, 2, 61, 81
4, 165888, Note_on_c, 2, 57, 81
4, 165888, Note_on_c, 2, 55, 81
4, 165888, Note_on_c, 2, 52, 81
4, 166652, Note_on_c, 2, 52, 0
4, 166652, Note_on_c, 2, 61, 0
4, 166652, Note_on_c, 2, 57, 0
4, 166652, Note_on_c, 2, 55, 0
4, 167424, Note_on_c, 2, 50, 81
4, 167804, Note_on_c, 2, 50, 0
4, 167808, Note_on_c, 2, 54, 81
4, 167996, Note_on_c, 2, 54, 0
4, 168000, Note_on_c, 2, 57, 81
4, 168188, Note_on_c, 2, 57, 0
4, 168192, Note_on_c, 2, 62, 81
4, 168380, Note_on_c, 2, 62, 0
4, 168384, Note_on_c, 2, 61, 81
4, 168572, Note_on_c, 2, 61, 0
4, 168576, Note_on_c, 2, 62, 81
4, 168764, Note_on_c, 2, 62, 0
4, 168768, Note_on_c, 2, 61, 81
4, 168956, Note_on_c, 2, 61, 0
4, 168960, Note_on_c, 2, 62, 81
4, 169148, Note_on_c, 2, 62, 0
4, 169152, Note_on_c, 2, 50, 81
4, 169340, Note_on_c, 2, 50, 0
4, 169344, Note_on_c, 2, 54, 81
4, 169532, Note_on_c, 2, 54, 0
4, 169536, Note_on_c, 2, 57, 81
4, 169724, Note_on_c, 2, 57, 0
4, 169728, Note_on_c, 2, 62, 81
4, 169916, Note_on_c, 2, 62, 0
4, 169920, Note_on_c, 2, 61, 81
4, 170108, Note_on_c, 2, 61, 0
4, 170112, Note_on_c, 2, 62, 81
4, 170300, Note_on_c, 2, 62, 0
4, 170304, Note_on_c, 2, 61, 81
4, 170492, Note_on_c, 2, 61, 0
4, 170496, Note_on_c, 2, 62, 94
4, 170684, Note_on_c, 2, 62, 0
4, 170688, Note_on_c, 2, 61, 94
4, 170876, Note_on_c, 2, 61, 0
4, 170880, Note_on_c, 2, 62, 94
4, 171068, Note_on_c, 2, 62, 0
4, 171072, Note_on_c, 2, 64, 94
4, 171260, Note_on_c, 2, 64, 0
4, 171264, Note_on_c, 2, 60, 94
4, 171452, Note_on_c, 2, 60, 0
4, 171456, Note_on_c, 2, 59, 94
4, 171644, Note_on_c, 2, 59, 0
4, 171648, Note_on_c, 2, 60, 94
4, 171836, Note_on_c, 2, 60, 0
4, 171840, Note_on_c, 2, 62, 94
4, 172028, Note_on_c, 2, 62, 0
4, 172032, Note_on_c, 2, 59, 94
4, 172220, Note_on_c, 2, 59, 0
4, 172224, Note_on_c, 2, 58, 94
4, 172412, Note_on_c, 2, 58, 0
4, 172416, Note_on_c, 2, 59, 94
4, 172604, Note_on_c, 2, 59, 0
4, 172608, Note_on_c, 2, 60, 94
4, 172796, Note_on_c, 2, 60, 0
4, 172800, Note_on_c, 2, 57, 94
4, 172988, Note_on_c, 2, 57, 0
4, 172992, Note_on_c, 2, 56, 94
4, 173180, Note_on_c, 2, 56, 0
4, 173184, Note_on_c, 2, 57, 94
4, 173372, Note_on_c, 2, 57, 0
4, 173376, Note_on_c, 2, 59, 94
4, 173564, Note_on_c, 2, 59, 0
4, 173568, Note_on_c, 2, 55, 94
4, 173948, Note_on_c, 2, 55, 0
4, 175104, Note_on_c, 2, 50, 71
4, 175868, Note_on_c, 2, 50, 0
4, 175872, Note_on_c, 2, 55, 71
4, 176252, Note_on_c, 2, 55, 0
4, 176640, Note_on_c, 2, 50, 71
4, 177404, Note_on_c, 2, 50, 0
4, 177408, Note_on_c, 2, 55, 71
4, 177788, Note_on_c, 2, 55, 0
4, 177792, Note_on_c, 2, 64, 71
4, 178172, Note_on_c, 2, 64, 0
4, 178176, Note_on_c, 2, 62, 71
4, 178940, Note_on_c, 2, 62, 0
4, 179712, Note_on_c, 2, 57, 71
4, 179712, Note_on_c, 2, 54, 71
4, 179712, Note_on_c, 2, 50, 71
4, 180092, Note_on_c, 2, 50, 0
4, 180092, Note_on_c, 2, 54, 0
4, 180092, Note_on_c, 2, 57, 0
4, 181248, Note_on_c, 2, 55, 71
4, 182012, Note_on_c, 2, 55, 0
4, 182016, Note_on_c, 2, 57, 71
4, 182016, Note_on_c, 2, 54, 71
4, 182396, Note_on_c, 2, 54, 0
4, 182396, Note_on_c, 2, 57, 0
4, 182784, Note_on_c, 2, 55, 71
4, 183548, Note_on_c, 2, 55, 0
4, 183552, Note_on_c, 2, 54, 71
4, 183932, Note_on_c, 2, 54, 0
4, 183936, Note_on_c, 2, 50, 71
4, 184316, Note_on_c, 2, 50, 0
4, 184320, Note_on_c, 2, 55, 71
4, 185084, Note_on_c, 2, 55, 0
4, 185856, Note_on_c, 2, 67, 71
4, 185856, Note_on_c, 2, 59, 71
4, 187388, Note_on_c, 2, 59, 0
4, 187388, Note_on_c, 2, 67, 0
4, 187392, Note_on_c, 2, 60, 72
4, 187392, Note_on_c, 2, 64, 72
4, 187772, Note_on_c, 2, 64, 0
4, 187772, Note_on_c, 2, 60, 0
4, 188160, Note_on_c, 2, 60, 72
4, 188540, Note_on_c, 2, 60, 0
4, 188928, Note_on_c, 2, 59, 72
4, 188928, Note_on_c, 2, 62, 72
4, 189308, Note_on_c, 2, 62, 0
4, 189308, Note_on_c, 2, 59, 0
4, 189696, Note_on_c, 2, 59, 72
4, 190076, Note_on_c, 2, 59, 0
4, 190464, Note_on_c, 2, 57, 72
4, 190652, Note_on_c, 2, 57, 0
4, 190656, Note_on_c, 2, 54, 72
4, 190844, Note_on_c, 2, 54, 0
4, 190848, Note_on_c, 2, 57, 72
4, 191036, Note_on_c, 2, 57, 0
4, 191040, Note_on_c, 2, 54, 72
4, 191228, Note_on_c, 2, 54, 0
4, 191232, Note_on_c, 2, 50, 72
4, 191420, Note_on_c, 2, 50, 0
4, 191424, Note_on_c, 2, 62, 72
4, 191612, Note_on_c, 2, 62, 0
4, 191616, Note_on_c, 2, 64, 72
4, 191804, Note_on_c, 2, 64, 0
4, 191808, Note_on_c, 2, 66, 72
4, 191996, Note_on_c, 2, 66, 0
4, 192000, Note_on_c, 2, 67, 72
4, 192380, Note_on_c, 2, 67, 0
4, 192384, Note_on_c, 2, 63, 72
4, 192764, Note_on_c, 2, 63, 0
4, 192768, Note_on_c, 2, 64, 72
4, 193148, Note_on_c, 2, 64, 0
4, 193152, Note_on_c, 2, 63, 72
4, 193532, Note_on_c, 2, 63, 0
4, 193536, Note_on_c, 2, 64, 72
4, 193916, Note_on_c, 2, 64, 0
4, 194304, Note_on_c, 2, 60, 72
4, 194304, Note_on_c, 2, 64, 72
4, 194684, Note_on_c, 2, 64, 0
4, 194684, Note_on_c, 2, 60, 0
4, 195072, Note_on_c, 2, 62, 71
4, 195072, Note_on_c, 2, 67, 71
4, 195452, Note_on_c, 2, 67, 0
4, 195452, Note_on_c, 2, 62, 0
4, 195456, Note_on_c, 2, 62, 71
4, 195456, Note_on_c, 2, 67, 71
4, 195836, Note_on_c, 2, 67, 0
4, 195836, Note_on_c, 2, 62, 0
4, 195840, Note_on_c, 2, 62, 71
4, 195840, Note_on_c, 2, 66, 71
4, 196220, Note_on_c, 2, 66, 0
4, 196220, Note_on_c, 2, 62, 0
4, 196224, Note_on_c, 2, 62, 71
4, 196224, Note_on_c, 2, 66, 71
4, 196604, Note_on_c, 2, 66, 0
4, 196604, Note_on_c, 2, 62, 0
4, 196608, Note_on_c, 2, 55, 91
4, 196796, Note_on_c, 2, 55, 0
4, 196800, Note_on_c, 2, 67, 91
4, 196988, Note_on_c, 2, 67, 0
4, 196992, Note_on_c, 2, 66, 91
4, 197180, Note_on_c, 2, 66, 0
4, 197184, Note_on_c, 2, 64, 91
4, 197372, Note_on_c, 2, 64, 0
4, 197376, Note_on_c, 2, 62, 91
4, 197564, Note_on_c, 2, 62, 0
4, 197568, Note_on_c, 2, 60, 91
4, 197756, Note_on_c, 2, 60, 0
4, 197760, Note_on_c, 2, 59, 91
4, 197948, Note_on_c, 2, 59, 0
4, 197952, Note_on_c, 2, 57, 91
4, 198140, Note_on_c, 2, 57, 0
4, 198144, Note_on_c, 2, 55, 71
4, 198332, Note_on_c, 2, 55, 0
4, 198336, Note_on_c, 2, 62, 52
4, 198524, Note_on_c, 2, 62, 0
4, 198528, Note_on_c, 2, 59, 52
4, 198716, Note_on_c, 2, 59, 0
4, 198720, Note_on_c, 2, 62, 52
4, 198908, Note_on_c, 2, 62, 0
4, 198912, Note_on_c, 2, 55, 52
4, 199100, Note_on_c, 2, 55, 0
4, 199104, Note_on_c, 2, 62, 52
4, 199292, Note_on_c, 2, 62, 0
4, 199296, Note_on_c, 2, 59, 52
4, 199484, Note_on_c, 2, 59, 0
4, 199504, Note_on_c, 2, 62, 52
4, 199680, Note_on_c, 2, 50, 52
4, 199692, Note_on_c, 2, 62, 0
4, 199868, Note_on_c, 2, 50, 0
4, 199872, Note_on_c, 2, 62, 52
4, 200060, Note_on_c, 2, 62, 0
4, 200064, Note_on_c, 2, 60, 52
4, 200252, Note_on_c, 2, 60, 0
4, 200256, Note_on_c, 2, 62, 52
4, 200444, Note_on_c, 2, 62, 0
4, 200448, Note_on_c, 2, 55, 52
4, 200636, Note_on_c, 2, 55, 0
4, 200640, Note_on_c, 2, 62, 52
4, 200828, Note_on_c, 2, 62, 0
4, 200832, Note_on_c, 2, 59, 52
4, 201020, Note_on_c, 2, 59, 0
4, 201024, Note_on_c, 2, 62, 52
4, 201212, Note_on_c, 2, 62, 0
4, 201216, Note_on_c, 2, 50, 52
4, 201404, Note_on_c, 2, 50, 0
4, 201408, Note_on_c, 2, 62, 52
4, 201596, Note_on_c, 2, 62, 0
4, 201600, Note_on_c, 2, 60, 52
4, 201788, Note_on_c, 2, 60, 0
4, 201792, Note_on_c, 2, 62, 52
4, 201980, Note_on_c, 2, 62, 0
4, 201984, Note_on_c, 2, 55, 52
4, 202172, Note_on_c, 2, 55, 0
4, 202176, Note_on_c, 2, 62, 52
4, 202364, Note_on_c, 2, 62, 0
4, 202368, Note_on_c, 2, 59, 52
4, 202556, Note_on_c, 2, 59, 0
4, 202560, Note_on_c, 2, 62, 52
4, 202748, Note_on_c, 2, 62, 0
4, 202752, Note_on_c, 2, 50, 52
4, 202940, Note_on_c, 2, 50, 0
4, 202944, Note_on_c, 2, 62, 52
4, 203132, Note_on_c, 2, 62, 0
4, 203136, Note_on_c, 2, 61, 52
4, 203324, Note_on_c, 2, 61, 0
4, 203328, Note_on_c, 2, 62, 52
4, 203516, Note_on_c, 2, 62, 0
4, 203520, Note_on_c, 2, 61, 52
4, 203708, Note_on_c, 2, 61, 0
4, 203712, Note_on_c, 2, 62, 52
4, 203900, Note_on_c, 2, 62, 0
4, 203904, Note_on_c, 2, 61, 52
4, 204092, Note_on_c, 2, 61, 0
4, 204096, Note_on_c, 2, 62, 52
4, 204284, Note_on_c, 2, 62, 0
4, 204288, Note_on_c, 2, 50, 52
4, 204476, Note_on_c, 2, 50, 0
4, 204480, Note_on_c, 2, 57, 52
4, 204668, Note_on_c, 2, 57, 0
4, 204672, Note_on_c, 2, 54, 52
4, 204860, Note_on_c, 2, 54, 0
4, 204864, Note_on_c, 2, 57, 52
4, 205052, Note_on_c, 2, 57, 0
4, 205056, Note_on_c, 2, 50, 52
4, 205244, Note_on_c, 2, 50, 0
4, 205248, Note_on_c, 2, 57, 52
4, 205436, Note_on_c, 2, 57, 0
4, 205440, Note_on_c, 2, 54, 52
4, 205628, Note_on_c, 2, 54, 0
4, 205632, Note_on_c, 2, 57, 52
4, 205820, Note_on_c, 2, 57, 0
4, 205824, Note_on_c, 2, 50, 52
4, 206012, Note_on_c, 2, 50, 0
4, 206016, Note_on_c, 2, 59, 52
4, 206204, Note_on_c, 2, 59, 0
4, 206208, Note_on_c, 2, 55, 52
4, 206396, Note_on_c, 2, 55, 0
4, 206400, Note_on_c, 2, 59, 52
4, 206588, Note_on_c, 2, 59, 0
4, 206592, Note_on_c, 2, 50, 52
4, 206780, Note_on_c, 2, 50, 0
4, 206784, Note_on_c, 2, 57, 52
4, 206972, Note_on_c, 2, 57, 0
4, 206976, Note_on_c, 2, 54, 52
4, 207164, Note_on_c, 2, 54, 0
4, 207168, Note_on_c, 2, 57, 52
4, 207356, Note_on_c, 2, 57, 0
4, 207360, Note_on_c, 2, 50, 52
4, 207548, Note_on_c, 2, 50, 0
4, 207552, Note_on_c, 2, 59, 52
4, 207740, Note_on_c, 2, 59, 0
4, 207744, Note_on_c, 2, 55, 52
4, 207932, Note_on_c, 2, 55, 0
4, 207936, Note_on_c, 2, 59, 52
4, 208124, Note_on_c, 2, 59, 0
4, 208128, Note_on_c, 2, 50, 52
4, 208316, Note_on_c, 2, 50, 0
4, 208320, Note_on_c, 2, 57, 52
4, 208508, Note_on_c, 2, 57, 0
4, 208512, Note_on_c, 2, 54, 52
4, 208700, Note_on_c, 2, 54, 0
4, 208704, Note_on_c, 2, 57, 52
4, 208892, Note_on_c, 2, 57, 0
4, 208896, Note_on_c, 2, 43, 52
4, 209084, Note_on_c, 2, 43, 0
4, 209088, Note_on_c, 2, 55, 52
4, 209276, Note_on_c, 2, 55, 0
4, 209280, Note_on_c, 2, 54, 52
4, 209468, Note_on_c, 2, 54, 0
4, 209472, Note_on_c, 2, 55, 52
4, 209660, Note_on_c, 2, 55, 0
4, 209664, Note_on_c, 2, 54, 52
4, 209852, Note_on_c, 2, 54, 0
4, 209856, Note_on_c, 2, 55, 52
4, 210044, Note_on_c, 2, 55, 0
4, 210048, Note_on_c, 2, 54, 52
4, 210236, Note_on_c, 2, 54, 0
4, 210240, Note_on_c, 2, 55, 52
4, 210428, Note_on_c, 2, 55, 0
4, 210432, Note_on_c, 2, 43, 52
4, 211196, Note_on_c, 2, 43, 0
4, 211584, Note_on_c, 2, 47, 52
4, 211964, Note_on_c, 2, 47, 0
4, 211968, Note_on_c, 2, 48, 72
4, 212156, Note_on_c, 2, 48, 0
4, 212160, Note_on_c, 2, 52, 72
4, 212348, Note_on_c, 2, 52, 0
4, 212352, Note_on_c, 2, 57, 72
4, 212540, Note_on_c, 2, 57, 0
4, 212544, Note_on_c, 2, 60, 72
4, 212732, Note_on_c, 2, 60, 0
4, 212736, Note_on_c, 2, 48, 72
4, 212924, Note_on_c, 2, 48, 0
4, 212928, Note_on_c, 2, 52, 72
4, 213116, Note_on_c, 2, 52, 0
4, 213120, Note_on_c, 2, 57, 72
4, 213308, Note_on_c, 2, 57, 0
4, 213312, Note_on_c, 2, 60, 72
4, 213500, Note_on_c, 2, 60, 0
4, 213504, Note_on_c, 2, 47, 72
4, 213692, Note_on_c, 2, 47, 0
4, 213696, Note_on_c, 2, 50, 72
4, 213884, Note_on_c, 2, 50, 0
4, 213888, Note_on_c, 2, 55, 72
4, 214076, Note_on_c, 2, 55, 0
4, 214080, Note_on_c, 2, 59, 72
4, 214268, Note_on_c, 2, 59, 0
4, 214272, Note_on_c, 2, 47, 72
4, 214460, Note_on_c, 2, 47, 0
4, 214464, Note_on_c, 2, 50, 72
4, 214652, Note_on_c, 2, 50, 0
4, 214656, Note_on_c, 2, 55, 72
4, 214844, Note_on_c, 2, 55, 0
4, 214848, Note_on_c, 2, 59, 72
4, 215036, Note_on_c, 2, 59, 0
4, 215040, Note_on_c, 2, 45, 72
4, 215228, Note_on_c, 2, 45, 0
4, 215232, Note_on_c, 2, 48, 72
4, 215420, Note_on_c, 2, 48, 0
4, 215424, Note_on_c, 2, 50, 72
4, 215612, Note_on_c, 2, 50, 0
4, 215616, Note_on_c, 2, 54, 72
4, 215804, Note_on_c, 2, 54, 0
4, 215808, Note_on_c, 2, 45, 72
4, 215996, Note_on_c, 2, 45, 0
4, 216000, Note_on_c, 2, 48, 72
4, 216188, Note_on_c, 2, 48, 0
4, 216192, Note_on_c, 2, 50, 72
4, 216380, Note_on_c, 2, 50, 0
4, 216384, Note_on_c, 2, 54, 72
4, 216572, Note_on_c, 2, 54, 0
4, 216576, Note_on_c, 2, 55, 81
4, 216956, Note_on_c, 2, 55, 0
4, 216960, Note_on_c, 2, 57, 81
4, 217148, Note_on_c, 2, 57, 0
4, 217152, Note_on_c, 2, 59, 81
4, 217340, Note_on_c, 2, 59, 0
4, 217344, Note_on_c, 2, 60, 81
4, 217532, Note_on_c, 2, 60, 0
4, 217536, Note_on_c, 2, 62, 81
4, 217724, Note_on_c, 2, 62, 0
4, 217728, Note_on_c, 2, 64, 103
4, 217916, Note_on_c, 2, 64, 0
4, 217920, Note_on_c, 2, 66, 103
4, 218108, Note_on_c, 2, 66, 0
4, 221568, Note_on_c, 2, 55, 81
4, 221756, Note_on_c, 2, 55, 0
4, 221952, Note_on_c, 2, 54, 81
4, 222140, Note_on_c, 2, 54, 0
4, 222144, Note_on_c, 2, 57, 81
4, 222332, Note_on_c, 2, 57, 0
4, 222336, Note_on_c, 2, 60, 81
4, 222524, Note_on_c, 2, 60, 0
4, 222720, Note_on_c, 2, 59, 81
4, 222908, Note_on_c, 2, 59, 0
4, 222912, Note_on_c, 2, 62, 81
4, 223100, Note_on_c, 2, 62, 0
4, 223104, Note_on_c, 2, 67, 81
4, 223292, Note_on_c, 2, 67, 0
4, 223296, Note_on_c, 2, 67, 92
4, 223484, Note_on_c, 2, 67, 0
4, 223488, Note_on_c, 2, 66, 92
4, 223676, Note_on_c, 2, 66, 0
4, 223680, Note_on_c, 2, 69, 92
4, 223868, Note_on_c, 2, 69, 0
4, 223872, Note_on_c, 2, 72, 92
4, 224060, Note_on_c, 2, 72, 0
4, 224064, Note_on_c, 2, 72, 92
4, 224252, Note_on_c, 2, 72, 0
4, 224640, Note_on_c, 2, 62, 92
4, 224828, Note_on_c, 2, 62, 0
4, 224832, Note_on_c, 2, 62, 92
4, 225020, Note_on_c, 2, 62, 0
4, 225408, Note_on_c, 2, 62, 92
4, 225596, Note_on_c, 2, 62, 0
4, 225600, Note_on_c, 2, 62, 92
4, 225788, Note_on_c, 2, 62, 0
4, 226176, Note_on_c, 2, 62, 92
4, 226364, Note_on_c, 2, 62, 0
4, 226368, Note_on_c, 2, 62, 92
4, 226556, Note_on_c, 2, 62, 0
4, 226944, Note_on_c, 2, 62, 92
4, 227132, Note_on_c, 2, 62, 0
4, 227136, Note_on_c, 2, 62, 92
4, 227324, Note_on_c, 2, 62, 0
4, 227712, Note_on_c, 2, 62, 92
4, 227900, Note_on_c, 2, 62, 0
4, 227904, Note_on_c, 2, 62, 92
4, 228092, Note_on_c, 2, 62, 0
4, 228480, Note_on_c, 2, 62, 92
4, 228668, Note_on_c, 2, 62, 0
4, 228672, Note_on_c, 2, 62, 92
4, 228860, Note_on_c, 2, 62, 0
4, 229200, Note_on_c, 2, 62, 92
4, 229388, Note_on_c, 2, 62, 0
4, 229440, Note_on_c, 2, 62, 92
4, 229628, Note_on_c, 2, 62, 0
4, 230016, Note_on_c, 2, 62, 92
4, 230204, Note_on_c, 2, 62, 0
4, 230208, Note_on_c, 2, 62, 92
4, 230396, Note_on_c, 2, 62, 0
4, 230400, Note_on_c, 2, 67, 92
4, 230780, Note_on_c, 2, 67, 0
4, 231168, Note_on_c, 2, 64, 71
4, 231548, Note_on_c, 2, 64, 0
4, 231936, Note_on_c, 2, 60, 52
4, 232316, Note_on_c, 2, 60, 0
4, 232704, Note_on_c, 2, 57, 52
4, 233084, Note_on_c, 2, 57, 0
4, 233664, Note_on_c, 2, 50, 72
4, 233852, Note_on_c, 2, 50, 0
4, 233856, Note_on_c, 2, 52, 72
4, 234044, Note_on_c, 2, 52, 0
4, 234048, Note_on_c, 2, 54, 72
4, 234236, Note_on_c, 2, 54, 0
4, 234240, Note_on_c, 2, 55, 72
4, 234428, Note_on_c, 2, 55, 0
4, 234432, Note_on_c, 2, 57, 72
4, 234620, Note_on_c, 2, 57, 0
4, 234624, Note_on_c, 2, 59, 72
4, 234812, Note_on_c, 2, 59, 0
4, 234816, Note_on_c, 2, 60, 72
4, 235004, Note_on_c, 2, 60, 0
4, 235008, Note_on_c, 2, 62, 72
4, 235388, Note_on_c, 2, 62, 0
4, 235392, Note_on_c, 2, 59, 72
4, 235772, Note_on_c, 2, 59, 0
4, 235776, Note_on_c, 2, 60, 72
4, 236156, Note_on_c, 2, 60, 0
4, 236160, Note_on_c, 2, 62, 72
4, 236540, Note_on_c, 2, 62, 0
4, 236544, Note_on_c, 2, 67, 72
4, 236800, Note_on_c, 2, 67, 0
4, 237312, Note_on_c, 2, 64, 72
4, 237568, Note_on_c, 2, 64, 0
4, 238080, Note_on_c, 2, 60, 82
4, 238336, Note_on_c, 2, 60, 0
4, 238848, Note_on_c, 2, 57, 82
4, 239104, Note_on_c, 2, 57, 0
4, 239808, Note_on_c, 2, 50, 72
4, 239996, Note_on_c, 2, 50, 0
4, 240000, Note_on_c, 2, 52, 72
4, 240188, Note_on_c, 2, 52, 0
4, 240192, Note_on_c, 2, 54, 72
4, 240380, Note_on_c, 2, 54, 0
4, 240384, Note_on_c, 2, 55, 72
4, 240572, Note_on_c, 2, 55, 0
4, 240592, Note_on_c, 2, 57, 72
4, 240768, Note_on_c, 2, 59, 72
4, 240780, Note_on_c, 2, 57, 0
4, 240956, Note_on_c, 2, 59, 0
4, 240960, Note_on_c, 2, 60, 72
4, 241148, Note_on_c, 2, 60, 0
4, 241152, Note_on_c, 2, 62, 72
4, 241532, Note_on_c, 2, 62, 0
4, 241536, Note_on_c, 2, 59, 72
4, 241916, Note_on_c, 2, 59, 0
4, 241920, Note_on_c, 2, 60, 72
4, 242300, Note_on_c, 2, 60, 0
4, 242304, Note_on_c, 2, 62, 72
4, 242684, Note_on_c, 2, 62, 0
4, 242880, Note_on_c, 2, 50, 72
4, 243068, Note_on_c, 2, 50, 0
4, 243072, Note_on_c, 2, 52, 72
4, 243260, Note_on_c, 2, 52, 0
4, 243264, Note_on_c, 2, 54, 72
4, 243452, Note_on_c, 2, 54, 0
4, 243456, Note_on_c, 2, 55, 72
4, 243644, Note_on_c, 2, 55, 0
4, 243648, Note_on_c, 2, 57, 72
4, 243836, Note_on_c, 2, 57, 0
4, 243840, Note_on_c, 2, 59, 72
4, 244028, Note_on_c, 2, 59, 0
4, 244032, Note_on_c, 2, 60, 72
4, 244220, Note_on_c, 2, 60, 0
4, 244224, Note_on_c, 2, 62, 72
4, 244604, Note_on_c, 2, 62, 0
4, 244608, Note_on_c, 2, 59, 72
4, 244988, Note_on_c, 2, 59, 0
4, 244992, Note_on_c, 2, 60, 72
4, 245372, Note_on_c, 2, 60, 0
4, 245376, Note_on_c, 2, 62, 72
4, 245756, Note_on_c, 2, 62, 0
4, 245760, Note_on_c, 2, 55, 71
4, 246912, Note_on_c, 2, 62, 71
4, 247292, Note_on_c, 2, 62, 0
4, 247292, Note_on_c, 2, 55, 0
4, 247296, Note_on_c, 2, 55, 71
4, 247680, Note_on_c, 2, 66, 71
4, 248060, Note_on_c, 2, 66, 0
4, 248064, Note_on_c, 2, 55, 71
4, 248444, Note_on_c, 2, 55, 0
4, 248448, Note_on_c, 2, 66, 71
4, 248828, Note_on_c, 2, 66, 0
4, 248828, Note_on_c, 2, 55, 0
4, 248832, Note_on_c, 2, 55, 71
4, 249980, Note_on_c, 2, 55, 0
4, 249984, Note_on_c, 2, 59, 71
4, 250364, Note_on_c, 2, 59, 0
4, 250368, Note_on_c, 2, 62, 71
4, 250368, Note_on_c, 2, 67, 71
4, 251132, Note_on_c, 2, 67, 0
4, 251132, Note_on_c, 2, 62, 0
4, 251136, Note_on_c, 2, 62, 71
4, 251136, Note_on_c, 2, 66, 71
4, 251900, Note_on_c, 2, 66, 0
4, 251900, Note_on_c, 2, 62, 0
4, 256896, Note_on_c, 2, 59, 52
4, 257276, Note_on_c, 2, 59, 0
4, 257280, Note_on_c, 2, 62, 52
4, 257660, Note_on_c, 2, 62, 0
4, 257664, Note_on_c, 2, 50, 52
4, 258044, Note_on_c, 2, 50, 0
4, 258048, Note_on_c, 2, 55, 52
4, 258236, Note_on_c, 2, 55, 0
4, 258240, Note_on_c, 2, 59, 52
4, 258428, Note_on_c, 2, 59, 0
4, 258432, Note_on_c, 2, 62, 52
4, 258620, Note_on_c, 2, 62, 0
4, 258624, Note_on_c, 2, 62, 52
4, 258812, Note_on_c, 2, 62, 0
4, 258816, Note_on_c, 2, 54, 52
4, 259004, Note_on_c, 2, 54, 0
4, 259008, Note_on_c, 2, 57, 52
4, 259196, Note_on_c, 2, 57, 0
4, 259200, Note_on_c, 2, 62, 52
4, 259388, Note_on_c, 2, 62, 0
4, 259392, Note_on_c, 2, 62, 52
4, 259580, Note_on_c, 2, 62, 0
4, 259584, Note_on_c, 2, 55, 52
4, 259772, Note_on_c, 2, 55, 0
4, 259776, Note_on_c, 2, 59, 52
4, 259964, Note_on_c, 2, 59, 0
4, 259968, Note_on_c, 2, 62, 52
4, 260156, Note_on_c, 2, 62, 0
4, 260160, Note_on_c, 2, 62, 52
4, 260348, Note_on_c, 2, 62, 0
4, 260352, Note_on_c, 2, 50, 52
4, 260540, Note_on_c, 2, 50, 0
4, 260544, Note_on_c, 2, 54, 52
4, 260732, Note_on_c, 2, 54, 0
4, 260736, Note_on_c, 2, 62, 52
4, 260924, Note_on_c, 2, 62, 0
4, 260928, Note_on_c, 2, 62, 52
4, 261116, Note_on_c, 2, 62, 0
4, 261120, Note_on_c, 2, 55, 59
4, 261308, Note_on_c, 2, 55, 0
4, 261312, Note_on_c, 2, 59, 59
4, 261500, Note_on_c, 2, 59, 0
4, 261504, Note_on_c, 2, 62, 59
4, 261692, Note_on_c, 2, 62, 0
4, 261696, Note_on_c, 2, 62, 59
4, 261884, Note_on_c, 2, 62, 0
4, 261888, Note_on_c, 2, 54, 59
4, 262076, Note_on_c, 2, 54, 0
4, 262080, Note_on_c, 2, 57, 59
4, 262268, Note_on_c, 2, 57, 0
4, 262272, Note_on_c, 2, 62, 59
4, 262460, Note_on_c, 2, 62, 0
4, 262464, Note_on_c, 2, 62, 59
4, 262652, Note_on_c, 2, 62, 0
4, 262656, Note_on_c, 2, 55, 67
4, 262844, Note_on_c, 2, 55, 0
4, 262848, Note_on_c, 2, 59, 67
4, 263036, Note_on_c, 2, 59, 0
4, 263040, Note_on_c, 2, 62, 67
4, 263228, Note_on_c, 2, 62, 0
4, 263232, Note_on_c, 2, 62, 67
4, 263420, Note_on_c, 2, 62, 0
4, 263424, Note_on_c, 2, 50, 67
4, 263612, Note_on_c, 2, 50, 0
4, 263616, Note_on_c, 2, 54, 67
4, 263804, Note_on_c, 2, 54, 0
4, 263808, Note_on_c, 2, 62, 67
4, 263996, Note_on_c, 2, 62, 0
4, 264000, Note_on_c, 2, 62, 67
4, 264188, Note_on_c, 2, 62, 0
4, 264192, Note_on_c, 2, 55, 72
4, 264380, Note_on_c, 2, 55, 0
4, 264384, Note_on_c, 2, 59, 72
4, 264572, Note_on_c, 2, 59, 0
4, 264576, Note_on_c, 2, 62, 72
4, 264764, Note_on_c, 2, 62, 0
4, 264768, Note_on_c, 2, 62, 72
4, 264956, Note_on_c, 2, 62, 0
4, 264960, Note_on_c, 2, 54, 72
4, 265148, Note_on_c, 2, 54, 0
4, 265152, Note_on_c, 2, 57, 72
4, 265340, Note_on_c, 2, 57, 0
4, 265344, Note_on_c, 2, 62, 72
4, 265532, Note_on_c, 2, 62, 0
4, 265536, Note_on_c, 2, 62, 72
4, 265724, Note_on_c, 2, 62, 0
4, 265728, Note_on_c, 2, 55, 81
4, 265916, Note_on_c, 2, 55, 0
4, 265920, Note_on_c, 2, 59, 81
4, 266108, Note_on_c, 2, 59, 0
4, 266112, Note_on_c, 2, 62, 81
4, 266300, Note_on_c, 2, 62, 0
4, 266304, Note_on_c, 2, 62, 81
4, 266492, Note_on_c, 2, 62, 0
4, 266496, Note_on_c, 2, 50, 81
4, 266684, Note_on_c, 2, 50, 0
4, 266688, Note_on_c, 2, 54, 81
4, 266876, Note_on_c, 2, 54, 0
4, 266880, Note_on_c, 2, 62, 81
4, 267068, Note_on_c, 2, 62, 0
4, 267072, Note_on_c, 2, 62, 81
4, 267260, Note_on_c, 2, 62, 0
4, 267264, Note_on_c, 2, 59, 52
4, 267264, Note_on_c, 2, 55, 59
4, 267644, Note_on_c, 2, 59, 0
4, 273404, Note_on_c, 2, 55, 0
4, 273408, Note_on_c, 2, 43, 81
4, 274172, Note_on_c, 2, 43, 0
4, 276480, Note_on_c, 2, 43, 81
4, 278780, Note_on_c, 2, 43, 0
4, 278784, Note_on_c, 2, 62, 71
4, 278784, Note_on_c, 2, 59, 71
4, 278972, Note_on_c, 2, 59, 0
4, 278972, Note_on_c, 2, 62, 0
4, 278976, Note_on_c, 2, 65, 71
4, 279120, Note_on_c, 2, 64, 71
4, 279164, Note_on_c, 2, 65, 0
4, 279168, Note_on_c, 2, 60, 71
4, 279308, Note_on_c, 2, 64, 0
4, 279356, Note_on_c, 2, 60, 0
4, 279360, Note_on_c, 2, 67, 71
4, 279548, Note_on_c, 2, 67, 0
4, 279552, Note_on_c, 2, 62, 71
4, 279552, Note_on_c, 2, 65, 71
4, 279932, Note_on_c, 2, 65, 0
4, 279932, Note_on_c, 2, 62, 0
4, 281088, Note_on_c, 2, 48, 45
4, 281468, Note_on_c, 2, 48, 0
4, 281856, Note_on_c, 2, 43, 45
4, 282236, Note_on_c, 2, 43, 0
4, 282624, Note_on_c, 2, 36, 45
4, 283004, Note_on_c, 2, 36, 0
4, 284160, Note_on_c, 2, 48, 45
4, 284540, Note_on_c, 2, 48, 0
4, 285696, Note_on_c, 2, 48, 45
4, 286076, Note_on_c, 2, 48, 0
4, 287232, Note_on_c, 2, 52, 45
4, 287612, Note_on_c, 2, 52, 0
4, 288000, Note_on_c, 2, 55, 45
4, 288380, Note_on_c, 2, 55, 0
4, 288768, Note_on_c, 2, 48, 45
4, 289148, Note_on_c, 2, 48, 0
4, 289536, Note_on_c, 2, 43, 45
4, 289916, Note_on_c, 2, 43, 0
4, 290304, Note_on_c, 2, 48, 45
4, 290684, Note_on_c, 2, 48, 0
4, 291072, Note_on_c, 2, 60, 45
4, 291452, Note_on_c, 2, 60, 0
4, 291840, Note_on_c, 2, 55, 81
4, 292604, Note_on_c, 2, 55, 0
4, 292608, Note_on_c, 2, 67, 81
4, 292796, Note_on_c, 2, 67, 0
4, 292800, Note_on_c, 2, 65, 81
4, 292988, Note_on_c, 2, 65, 0
4, 292992, Note_on_c, 2, 64, 81
4, 293180, Note_on_c, 2, 64, 0
4, 293184, Note_on_c, 2, 62, 81
4, 293372, Note_on_c, 2, 62, 0
4, 293376, Note_on_c, 2, 60, 81
4, 293564, Note_on_c, 2, 60, 0
4, 293568, Note_on_c, 2, 55, 81
4, 293756, Note_on_c, 2, 55, 0
4, 293760, Note_on_c, 2, 60, 81
4, 293948, Note_on_c, 2, 60, 0
4, 293952, Note_on_c, 2, 55, 81
4, 294096, Note_on_c, 2, 62, 81
4, 294140, Note_on_c, 2, 55, 0
4, 294284, Note_on_c, 2, 62, 0
4, 294336, Note_on_c, 2, 55, 81
4, 294524, Note_on_c, 2, 55, 0
4, 294528, Note_on_c, 2, 62, 81
4, 294716, Note_on_c, 2, 62, 0
4, 294720, Note_on_c, 2, 55, 81
4, 294908, Note_on_c, 2, 55, 0
4, 294912, Note_on_c, 2, 64, 81
4, 295040, Note_on_c, 2, 64, 0
4, 295104, Note_on_c, 2, 60, 81
4, 295232, Note_on_c, 2, 60, 0
4, 295296, Note_on_c, 2, 64, 81
4, 295424, Note_on_c, 2, 64, 0
4, 295488, Note_on_c, 2, 67, 81
4, 295616, Note_on_c, 2, 67, 0
4, 295680, Note_on_c, 2, 64, 81
4, 295808, Note_on_c, 2, 64, 0
4, 295872, Note_on_c, 2, 60, 81
4, 296000, Note_on_c, 2, 60, 0
4, 296064, Note_on_c, 2, 64, 81
4, 296192, Note_on_c, 2, 64, 0
4, 296256, Note_on_c, 2, 60, 81
4, 296384, Note_on_c, 2, 60, 0
4, 296448, Note_on_c, 2, 65, 81
4, 296576, Note_on_c, 2, 65, 0
4, 296640, Note_on_c, 2, 60, 81
4, 296768, Note_on_c, 2, 60, 0
4, 296832, Note_on_c, 2, 64, 81
4, 296960, Note_on_c, 2, 64, 0
4, 297024, Note_on_c, 2, 60, 81
4, 297152, Note_on_c, 2, 60, 0
4, 297216, Note_on_c, 2, 64, 81
4, 297344, Note_on_c, 2, 64, 0
4, 297408, Note_on_c, 2, 60, 81
4, 297536, Note_on_c, 2, 60, 0
4, 297600, Note_on_c, 2, 64, 81
4, 297728, Note_on_c, 2, 64, 0
4, 297792, Note_on_c, 2, 60, 81
4, 297920, Note_on_c, 2, 60, 0
4, 297984, Note_on_c, 2, 65, 81
4, 298112, Note_on_c, 2, 65, 0
4, 298176, Note_on_c, 2, 60, 81
4, 298304, Note_on_c, 2, 60, 0
4, 298368, Note_on_c, 2, 64, 81
4, 298496, Note_on_c, 2, 64, 0
4, 298560, Note_on_c, 2, 60, 81
4, 298688, Note_on_c, 2, 60, 0
4, 298752, Note_on_c, 2, 64, 81
4, 298880, Note_on_c, 2, 64, 0
4, 298944, Note_on_c, 2, 65, 81
4, 299072, Note_on_c, 2, 65, 0
4, 299136, Note_on_c, 2, 67, 81
4, 299264, Note_on_c, 2, 67, 0
4, 299328, Note_on_c, 2, 64, 81
4, 299456, Note_on_c, 2, 64, 0
4, 299520, Note_on_c, 2, 60, 81
4, 299648, Note_on_c, 2, 60, 0
4, 299712, Note_on_c, 2, 64, 81
4, 299840, Note_on_c, 2, 64, 0
4, 299904, Note_on_c, 2, 67, 81
4, 300032, Note_on_c, 2, 67, 0
4, 300096, Note_on_c, 2, 72, 81
4, 300224, Note_on_c, 2, 72, 0
4, 300288, Note_on_c, 2, 55, 81
4, 300416, Note_on_c, 2, 55, 0
4, 300480, Note_on_c, 2, 59, 81
4, 300608, Note_on_c, 2, 59, 0
4, 300672, Note_on_c, 2, 62, 81
4, 300800, Note_on_c, 2, 62, 0
4, 300864, Note_on_c, 2, 67, 81
4, 300992, Note_on_c, 2, 67, 0
4, 301056, Note_on_c, 2, 60, 81
4, 301184, Note_on_c, 2, 60, 0
4, 301248, Note_on_c, 2, 64, 81
4, 301376, Note_on_c, 2, 64, 0
4, 301440, Note_on_c, 2, 67, 81
4, 301568, Note_on_c, 2, 67, 0
4, 301632, Note_on_c, 2, 72, 81
4, 301760, Note_on_c, 2, 72, 0
4, 301824, Note_on_c, 2, 55, 81
4, 301952, Note_on_c, 2, 55, 0
4, 302016, Note_on_c, 2, 59, 81
4, 302144, Note_on_c, 2, 59, 0
4, 302208, Note_on_c, 2, 62, 81
4, 302336, Note_on_c, 2, 62, 0
4, 302400, Note_on_c, 2, 67, 81
4, 302528, Note_on_c, 2, 67, 0
4, 302592, Note_on_c, 2, 52, 81
4, 302972, Note_on_c, 2, 52, 0
4, 302976, Note_on_c, 2, 48, 81
4, 303356, Note_on_c, 2, 48, 0
4, 303360, Note_on_c, 2, 55, 81
4, 303740, Note_on_c, 2, 55, 0
4, 303744, Note_on_c, 2, 43, 81
4, 304124, Note_on_c, 2, 43, 0
4, 304128, Note_on_c, 2, 48, 81
4, 304508, Note_on_c, 2, 48, 0
4, 304512, Note_on_c, 2, 48, 81
4, 304700, Note_on_c, 2, 48, 0
4, 304704, Note_on_c, 2, 48, 81
4, 304892, Note_on_c, 2, 48, 0
4, 304896, Note_on_c, 2, 47, 81
4, 305084, Note_on_c, 2, 47, 0
4, 305088, Note_on_c, 2, 50, 81
4, 305276, Note_on_c, 2, 50, 0
4, 305280, Note_on_c, 2, 53, 81
4, 305468, Note_on_c, 2, 53, 0
4, 305472, Note_on_c, 2, 53, 81
4, 305660, Note_on_c, 2, 53, 0
4, 305664, Note_on_c, 2, 52, 81
4, 305852, Note_on_c, 2, 52, 0
4, 305856, Note_on_c, 2, 55, 81
4, 306044, Note_on_c, 2, 55, 0
4, 306048, Note_on_c, 2, 60, 81
4, 306236, Note_on_c, 2, 60, 0
4, 306240, Note_on_c, 2, 60, 81
4, 306428, Note_on_c, 2, 60, 0
4, 306432, Note_on_c, 2, 59, 81
4, 306812, Note_on_c, 2, 59, 0
4, 306816, Note_on_c, 2, 55, 81
4, 307004, Note_on_c, 2, 55, 0
4, 307008, Note_on_c, 2, 55, 81
4, 307196, Note_on_c, 2, 55, 0
4, 307200, Note_on_c, 2, 60, 81
4, 307580, Note_on_c, 2, 60, 0
4, 307584, Note_on_c, 2, 55, 81
4, 307772, Note_on_c, 2, 55, 0
4, 307776, Note_on_c, 2, 55, 81
4, 307964, Note_on_c, 2, 55, 0
4, 307968, Note_on_c, 2, 62, 81
4, 307968, Note_on_c, 2, 65, 81
4, 308348, Note_on_c, 2, 65, 0
4, 308348, Note_on_c, 2, 62, 0
4, 308352, Note_on_c, 2, 55, 81
4, 308540, Note_on_c, 2, 55, 0
4, 308544, Note_on_c, 2, 55, 81
4, 308732, Note_on_c, 2, 55, 0
4, 308736, Note_on_c, 2, 60, 81
4, 308736, Note_on_c, 2, 64, 81
4, 309116, Note_on_c, 2, 64, 0
4, 309116, Note_on_c, 2, 60, 0
4, 309120, Note_on_c, 2, 55, 81
4, 309308, Note_on_c, 2, 55, 0
4, 309312, Note_on_c, 2, 55, 81
4, 309500, Note_on_c, 2, 55, 0
4, 309504, Note_on_c, 2, 59, 81
4, 309504, Note_on_c, 2, 62, 81
4, 309884, Note_on_c, 2, 62, 0
4, 309884, Note_on_c, 2, 59, 0
4, 309888, Note_on_c, 2, 55, 81
4, 310076, Note_on_c, 2, 55, 0
4, 310080, Note_on_c, 2, 55, 81
4, 310268, Note_on_c, 2, 55, 0
4, 310272, Note_on_c, 2, 64, 81
4, 310272, Note_on_c, 2, 60, 81
4, 310652, Note_on_c, 2, 60, 0
4, 310652, Note_on_c, 2, 64, 0
4, 310656, Note_on_c, 2, 55, 81
4, 310844, Note_on_c, 2, 55, 0
4, 310848, Note_on_c, 2, 55, 81
4, 311036, Note_on_c, 2, 55, 0
4, 311040, Note_on_c, 2, 62, 81
4, 311040, Note_on_c, 2, 65, 81
4, 311420, Note_on_c, 2, 65, 0
4, 311420, Note_on_c, 2, 62, 0
4, 311424, Note_on_c, 2, 55, 81
4, 311612, Note_on_c, 2, 55, 0
4, 311616, Note_on_c, 2, 55, 81
4, 311804, Note_on_c, 2, 55, 0
4, 311808, Note_on_c, 2, 64, 81
4, 311808, Note_on_c, 2, 60, 81
4, 312188, Note_on_c, 2, 60, 0
4, 312188, Note_on_c, 2, 64, 0
4, 312192, Note_on_c, 2, 55, 81
4, 312380, Note_on_c, 2, 55, 0
4, 312384, Note_on_c, 2, 55, 81
4, 312572, Note_on_c, 2, 55, 0
4, 312576, Note_on_c, 2, 62, 81
4, 312576, Note_on_c, 2, 56, 81
4, 312956, Note_on_c, 2, 56, 0
4, 312956, Note_on_c, 2, 62, 0
4, 312960, Note_on_c, 2, 52, 81
4, 313148, Note_on_c, 2, 52, 0
4, 313152, Note_on_c, 2, 52, 81
4, 313340, Note_on_c, 2, 52, 0
4, 313344, Note_on_c, 2, 60, 81
4, 313344, Note_on_c, 2, 57, 81
4, 313724, Note_on_c, 2, 57, 0
4, 313724, Note_on_c, 2, 60, 0
4, 313728, Note_on_c, 2, 52, 81
4, 313916, Note_on_c, 2, 52, 0
4, 313920, Note_on_c, 2, 52, 81
4, 314108, Note_on_c, 2, 52, 0
4, 314112, Note_on_c, 2, 59, 81
4, 314112, Note_on_c, 2, 62, 81
4, 314492, Note_on_c, 2, 62, 0
4, 314492, Note_on_c, 2, 59, 0
4, 314496, Note_on_c, 2, 52, 81
4, 314684, Note_on_c, 2, 52, 0
4, 314688, Note_on_c, 2, 52, 81
4, 314876, Note_on_c, 2, 52, 0
4, 314880, Note_on_c, 2, 60, 81
4, 314880, Note_on_c, 2, 57, 81
4, 315260, Note_on_c, 2, 57, 0
4, 315260, Note_on_c, 2, 60, 0
4, 315264, Note_on_c, 2, 48, 81
4, 315452, Note_on_c, 2, 48, 0
4, 315456, Note_on_c, 2, 48, 81
4, 315644, Note_on_c, 2, 48, 0
4, 315648, Note_on_c, 2, 55, 81
4, 315648, Note_on_c, 2, 52, 81
4, 316028, Note_on_c, 2, 52, 0
4, 316028, Note_on_c, 2, 55, 0
4, 316032, Note_on_c, 2, 48, 81
4, 316220, Note_on_c, 2, 48, 0
4, 316224, Note_on_c, 2, 48, 81
4, 316412, Note_on_c, 2, 48, 0
4, 316416, Note_on_c, 2, 57, 81
4, 316416, Note_on_c, 2, 53, 81
4, 316796, Note_on_c, 2, 53, 0
4, 316796, Note_on_c, 2, 57, 0
4, 316800, Note_on_c, 2, 48, 81
4, 316988, Note_on_c, 2, 48, 0
4, 316992, Note_on_c, 2, 48, 81
4, 317180, Note_on_c, 2, 48, 0
4, 317184, Note_on_c, 2, 58, 81
4, 317184, Note_on_c, 2, 55, 81
4, 317564, Note_on_c, 2, 55, 0
4, 317564, Note_on_c, 2, 58, 0
4, 317568, Note_on_c, 2, 48, 81
4, 317756, Note_on_c, 2, 48, 0
4, 317760, Note_on_c, 2, 48, 81
4, 317948, Note_on_c, 2, 48, 0
4, 317952, Note_on_c, 2, 57, 81
4, 317952, Note_on_c, 2, 53, 81
4, 318332, Note_on_c, 2, 53, 0
4, 318332, Note_on_c, 2, 57, 0
4, 318336, Note_on_c, 2, 48, 81
4, 318524, Note_on_c, 2, 48, 0
4, 318528, Note_on_c, 2, 48, 81
4, 318716, Note_on_c, 2, 48, 0
4, 318720, Note_on_c, 2, 58, 81
4, 318720, Note_on_c, 2, 55, 81
4, 318720, Note_on_c, 2, 52, 81
4, 319100, Note_on_c, 2, 52, 0
4, 319100, Note_on_c, 2, 55, 0
4, 319100, Note_on_c, 2, 58, 0
4, 319104, Note_on_c, 2, 48, 81
4, 319292, Note_on_c, 2, 48, 0
4, 319296, Note_on_c, 2, 48, 81
4, 319484, Note_on_c, 2, 48, 0
4, 319488, Note_on_c, 2, 57, 52
4, 319488, Note_on_c, 2, 53, 52
4, 319868, Note_on_c, 2, 53, 0
4, 319868, Note_on_c, 2, 57, 0
4, 319872, Note_on_c, 2, 53, 52
4, 320252, Note_on_c, 2, 53, 0
4, 320256, Note_on_c, 2, 53, 52
4, 320636, Note_on_c, 2, 53, 0
4, 320640, Note_on_c, 2, 53, 52
4, 321020, Note_on_c, 2, 53, 0
4, 321024, Note_on_c, 2, 53, 52
4, 321404, Note_on_c, 2, 53, 0
4, 321408, Note_on_c, 2, 53, 52
4, 321788, Note_on_c, 2, 53, 0
4, 321792, Note_on_c, 2, 53, 52
4, 322172, Note_on_c, 2, 53, 0
4, 322176, Note_on_c, 2, 53, 52
4, 322556, Note_on_c, 2, 53, 0
4, 322560, Note_on_c, 2, 53, 52
4, 322940, Note_on_c, 2, 53, 0
4, 322944, Note_on_c, 2, 53, 52
4, 323324, Note_on_c, 2, 53, 0
4, 323328, Note_on_c, 2, 53, 52
4, 323708, Note_on_c, 2, 53, 0
4, 323712, Note_on_c, 2, 53, 52
4, 324092, Note_on_c, 2, 53, 0
4, 324096, Note_on_c, 2, 53, 52
4, 324476, Note_on_c, 2, 53, 0
4, 324480, Note_on_c, 2, 53, 52
4, 324860, Note_on_c, 2, 53, 0
4, 324864, Note_on_c, 2, 53, 52
4, 325244, Note_on_c, 2, 53, 0
4, 325248, Note_on_c, 2, 53, 52
4, 325628, Note_on_c, 2, 53, 0
4, 325632, Note_on_c, 2, 57, 52
4, 327164, Note_on_c, 2, 57, 0
4, 327168, Note_on_c, 2, 62, 58
4, 327168, Note_on_c, 2, 58, 58
4, 328700, Note_on_c, 2, 58, 0
4, 328700, Note_on_c, 2, 62, 0
4, 328704, Note_on_c, 2, 60, 58
4, 329084, Note_on_c, 2, 60, 0
4, 329088, Note_on_c, 2, 60, 58
4, 329088, Note_on_c, 2, 48, 58
4, 329468, Note_on_c, 2, 48, 0
4, 329472, Note_on_c, 2, 48, 58
4, 329852, Note_on_c, 2, 48, 0
4, 329852, Note_on_c, 2, 60, 0
4, 329856, Note_on_c, 2, 60, 58
4, 329856, Note_on_c, 2, 48, 58
4, 330044, Note_on_c, 2, 60, 0
4, 330048, Note_on_c, 2, 58, 58
4, 330236, Note_on_c, 2, 58, 0
4, 330236, Note_on_c, 2, 48, 0
4, 330240, Note_on_c, 2, 57, 58
4, 330240, Note_on_c, 2, 53, 58
4, 330620, Note_on_c, 2, 53, 0
4, 330620, Note_on_c, 2, 57, 0
4, 331776, Note_on_c, 2, 41, 81
4, 332156, Note_on_c, 2, 41, 0
4, 332160, Note_on_c, 2, 41, 81
4, 332540, Note_on_c, 2, 41, 0
4, 332544, Note_on_c, 2, 41, 81
4, 332924, Note_on_c, 2, 41, 0
4, 332928, Note_on_c, 2, 41, 81
4, 333308, Note_on_c, 2, 41, 0
4, 333312, Note_on_c, 2, 41, 81
4, 333692, Note_on_c, 2, 41, 0
4, 333696, Note_on_c, 2, 41, 81
4, 334076, Note_on_c, 2, 41, 0
4, 334080, Note_on_c, 2, 41, 81
4, 334460, Note_on_c, 2, 41, 0
4, 334464, Note_on_c, 2, 41, 81
4, 334844, Note_on_c, 2, 41, 0
4, 334848, Note_on_c, 2, 41, 81
4, 335228, Note_on_c, 2, 41, 0
4, 335232, Note_on_c, 2, 41, 81
4, 335612, Note_on_c, 2, 41, 0
4, 335616, Note_on_c, 2, 41, 81
4, 335996, Note_on_c, 2, 41, 0
4, 336000, Note_on_c, 2, 41, 81
4, 336380, Note_on_c, 2, 41, 0
4, 336384, Note_on_c, 2, 41, 94
4, 336764, Note_on_c, 2, 41, 0
4, 336768, Note_on_c, 2, 41, 94
4, 337148, Note_on_c, 2, 41, 0
4, 337152, Note_on_c, 2, 41, 94
4, 337916, Note_on_c, 2, 41, 0
4, 337920, Note_on_c, 2, 57, 94
4, 339452, Note_on_c, 2, 57, 0
4, 339456, Note_on_c, 2, 62, 94
4, 339456, Note_on_c, 2, 58, 94
4, 340988, Note_on_c, 2, 58, 0
4, 340988, Note_on_c, 2, 62, 0
4, 340992, Note_on_c, 2, 60, 71
4, 341372, Note_on_c, 2, 60, 0
4, 341376, Note_on_c, 2, 62, 71
4, 341756, Note_on_c, 2, 62, 0
4, 341760, Note_on_c, 2, 58, 71
4, 342140, Note_on_c, 2, 58, 0
4, 342144, Note_on_c, 2, 60, 71
4, 342524, Note_on_c, 2, 60, 0
4, 342528, Note_on_c, 2, 57, 71
4, 344060, Note_on_c, 2, 57, 0
4, 344064, Note_on_c, 2, 60, 71
4, 345596, Note_on_c, 2, 60, 0
4, 360960, Note_on_c, 2, 59, 90
4, 360960, Note_on_c, 2, 67, 90
4, 361724, Note_on_c, 2, 67, 0
4, 361724, Note_on_c, 2, 59, 0
4, 362112, Note_on_c, 2, 59, 90
4, 362112, Note_on_c, 2, 67, 90
4, 362492, Note_on_c, 2, 59, 0
4, 362496, Note_on_c, 2, 60, 90
4, 362496, Note_on_c, 2, 67, 90
4, 362500, Note_on_c, 2, 67, 0
4, 363260, Note_on_c, 2, 60, 0
4, 363260, Note_on_c, 2, 67, 0
4, 363648, Note_on_c, 2, 67, 90
4, 363648, Note_on_c, 2, 60, 90
4, 364028, Note_on_c, 2, 67, 0
4, 364032, Note_on_c, 2, 59, 90
4, 364032, Note_on_c, 2, 64, 90
4, 364036, Note_on_c, 2, 60, 0
4, 364796, Note_on_c, 2, 64, 0
4, 364796, Note_on_c, 2, 59, 0
4, 365184, Note_on_c, 2, 59, 90
4, 365184, Note_on_c, 2, 64, 90
4, 365564, Note_on_c, 2, 64, 0
4, 365564, Note_on_c, 2, 59, 0
4, 365568, Note_on_c, 2, 60, 90
4, 365568, Note_on_c, 2, 64, 90
4, 366332, Note_on_c, 2, 64, 0
4, 366332, Note_on_c, 2, 60, 0
4, 366720, Note_on_c, 2, 60, 90
4, 366720, Note_on_c, 2, 64, 90
4, 367100, Note_on_c, 2, 60, 0
4, 367104, Note_on_c, 2, 59, 90
4, 367104, Note_on_c, 2, 64, 90
4, 367108, Note_on_c, 2, 64, 0
4, 367868, Note_on_c, 2, 59, 0
4, 367868, Note_on_c, 2, 64, 0
4, 368256, Note_on_c, 2, 64, 90
4, 368256, Note_on_c, 2, 59, 90
4, 368636, Note_on_c, 2, 59, 0
4, 368636, Note_on_c, 2, 64, 0
4, 368640, Note_on_c, 2, 57, 90
4, 368640, Note_on_c, 2, 64, 90
4, 369404, Note_on_c, 2, 64, 0
4, 369404, Note_on_c, 2, 57, 0
4, 369792, Note_on_c, 2, 64, 90
4, 369792, Note_on_c, 2, 57, 90
4, 370172, Note_on_c, 2, 57, 0
4, 370172, Note_on_c, 2, 64, 0
4, 370176, Note_on_c, 2, 60, 72
4, 370176, Note_on_c, 2, 52, 72
4, 370940, Note_on_c, 2, 52, 0
4, 370940, Note_on_c, 2, 60, 0
4, 371328, Note_on_c, 2, 60, 72
4, 371328, Note_on_c, 2, 52, 72
4, 371708, Note_on_c, 2, 52, 0
4, 371708, Note_on_c, 2, 60, 0
4, 371712, Note_on_c, 2, 60, 72
4, 371712, Note_on_c, 2, 53, 72
4, 372092, Note_on_c, 2, 53, 0
4, 372092, Note_on_c, 2, 60, 0
4, 374016, Note_on_c, 2, 53, 72
4, 374396, Note_on_c, 2, 53, 0
4, 374400, Note_on_c, 2, 54, 72
4, 374780, Note_on_c, 2, 54, 0
4, 374784, Note_on_c, 2, 55, 72
4, 375164, Note_on_c, 2, 55, 0
4, 385536, Note_on_c, 2, 63, 79
4, 385916, Note_on_c, 2, 63, 0
4, 385920, Note_on_c, 2, 62, 79
4, 386300, Note_on_c, 2, 62, 0
4, 386304, Note_on_c, 2, 60, 79
4, 386684, Note_on_c, 2, 60, 0
4, 386688, Note_on_c, 2, 58, 79
4, 387068, Note_on_c, 2, 58, 0
4, 387072, Note_on_c, 2, 56, 79
4, 387072, Note_on_c, 2, 44, 79
4, 387452, Note_on_c, 2, 44, 0
4, 387452, Note_on_c, 2, 56, 0
4, 388608, Note_on_c, 2, 56, 79
4, 388608, Note_on_c, 2, 44, 79
4, 388988, Note_on_c, 2, 44, 0
4, 388988, Note_on_c, 2, 56, 0
4, 390144, Note_on_c, 2, 55, 79
4, 390144, Note_on_c, 2, 41, 79
4, 390524, Note_on_c, 2, 41, 0
4, 390524, Note_on_c, 2, 55, 0
4, 391680, Note_on_c, 2, 55, 79
4, 391680, Note_on_c, 2, 43, 79
4, 392060, Note_on_c, 2, 43, 0
4, 392060, Note_on_c, 2, 55, 0
4, 393216, Note_on_c, 2, 56, 79
4, 393216, Note_on_c, 2, 44, 79
4, 393596, Note_on_c, 2, 44, 0
4, 393596, Note_on_c, 2, 56, 0
4, 394752, Note_on_c, 2, 56, 79
4, 394752, Note_on_c, 2, 44, 79
4, 395132, Note_on_c, 2, 44, 0
4, 395132, Note_on_c, 2, 56, 0
4, 396288, Note_on_c, 2, 55, 79
4, 396288, Note_on_c, 2, 43, 79
4, 396668, Note_on_c, 2, 43, 0
4, 396668, Note_on_c, 2, 55, 0
4, 397056, Note_on_c, 2, 55, 79
4, 397436, Note_on_c, 2, 55, 0
4, 397824, Note_on_c, 2, 55, 79
4, 397824, Note_on_c, 2, 43, 79
4, 398204, Note_on_c, 2, 43, 0
4, 398204, Note_on_c, 2, 55, 0
4, 398592, Note_on_c, 2, 55, 49
4, 398972, Note_on_c, 2, 55, 0
4, 399360, Note_on_c, 2, 55, 49
4, 399740, Note_on_c, 2, 55, 0
4, 400128, Note_on_c, 2, 55, 49
4, 400508, Note_on_c, 2, 55, 0
4, 400896, Note_on_c, 2, 55, 49
4, 401276, Note_on_c, 2, 55, 0
4, 401664, Note_on_c, 2, 55, 49
4, 402044, Note_on_c, 2, 55, 0
4, 402432, Note_on_c, 2, 48, 57
4, 402812, Note_on_c, 2, 48, 0
4, 403968, Note_on_c, 2, 36, 57
4, 404348, Note_on_c, 2, 36, 0
4, 405504, Note_on_c, 2, 57, 57
4, 405504, Note_on_c, 2, 45, 57
4, 405884, Note_on_c, 2, 45, 0
4, 405884, Note_on_c, 2, 57, 0
4, 408000, Note_on_c, 2, 64, 57
4, 408188, Note_on_c, 2, 64, 0
4, 408192, Note_on_c, 2, 61, 57
4, 408380, Note_on_c, 2, 61, 0
4, 408384, Note_on_c, 2, 57, 57
4, 408572, Note_on_c, 2, 57, 0
4, 408576, Note_on_c, 2, 62, 57
4, 408956, Note_on_c, 2, 62, 0
4, 410112, Note_on_c, 2, 50, 57
4, 410492, Note_on_c, 2, 50, 0
4, 411648, Note_on_c, 2, 55, 57
4, 411648, Note_on_c, 2, 43, 57
4, 412028, Note_on_c, 2, 43, 0
4, 412028, Note_on_c, 2, 55, 0
4, 414144, Note_on_c, 2, 62, 57
4, 414332, Note_on_c, 2, 62, 0
4, 414336, Note_on_c, 2, 59, 57
4, 414524, Note_on_c, 2, 59, 0
4, 414528, Note_on_c, 2, 55, 57
4, 414716, Note_on_c, 2, 55, 0
4, 414720, Note_on_c, 2, 60, 79
4, 415100, Note_on_c, 2, 60, 0
4, 415488, Note_on_c, 2, 53, 79
4, 415488, Note_on_c, 2, 41, 79
4, 415868, Note_on_c, 2, 41, 0
4, 415868, Note_on_c, 2, 53, 0
4, 416256, Note_on_c, 2, 52, 79
4, 416256, Note_on_c, 2, 40, 79
4, 416636, Note_on_c, 2, 40, 0
4, 416636, Note_on_c, 2, 52, 0
4, 417024, Note_on_c, 2, 59, 79
4, 417024, Note_on_c, 2, 47, 79
4, 417404, Note_on_c, 2, 47, 0
4, 417404, Note_on_c, 2, 59, 0
4, 417792, Note_on_c, 2, 60, 79
4, 417792, Note_on_c, 2, 48, 79
4, 418172, Note_on_c, 2, 48, 0
4, 418172, Note_on_c, 2, 60, 0
4, 418560, Note_on_c, 2, 65, 79
4, 418560, Note_on_c, 2, 53, 79
4, 418940, Note_on_c, 2, 53, 0
4, 418940, Note_on_c, 2, 65, 0
4, 419328, Note_on_c, 2, 64, 79
4, 419328, Note_on_c, 2, 52, 79
4, 419708, Note_on_c, 2, 52, 0
4, 419708, Note_on_c, 2, 64, 0
4, 420096, Note_on_c, 2, 59, 92
4, 420096, Note_on_c, 2, 71, 92
4, 420476, Note_on_c, 2, 71, 0
4, 420476, Note_on_c, 2, 59, 0
4, 420864, Note_on_c, 2, 60, 92
4, 420864, Note_on_c, 2, 72, 92
4, 421244, Note_on_c, 2, 72, 0
4, 421244, Note_on_c, 2, 60, 0
4, 421632, Note_on_c, 2, 62, 92
4, 421820, Note_on_c, 2, 62, 0
4, 421824, Note_on_c, 2, 65, 92
4, 422012, Note_on_c, 2, 65, 0
4, 422016, Note_on_c, 2, 67, 92
4, 422204, Note_on_c, 2, 67, 0
4, 422208, Note_on_c, 2, 71, 92
4, 422396, Note_on_c, 2, 71, 0
4, 422400, Note_on_c, 2, 64, 92
4, 422588, Note_on_c, 2, 64, 0
4, 422592, Note_on_c, 2, 67, 92
4, 422780, Note_on_c, 2, 67, 0
4, 422784, Note_on_c, 2, 69, 92
4, 422972, Note_on_c, 2, 69, 0
4, 422976, Note_on_c, 2, 72, 92
4, 423164, Note_on_c, 2, 72, 0
4, 423168, Note_on_c, 2, 62, 92
4, 423356, Note_on_c, 2, 62, 0
4, 423360, Note_on_c, 2, 65, 92
4, 423504, Note_on_c, 2, 67, 92
4, 423548, Note_on_c, 2, 65, 0
4, 423692, Note_on_c, 2, 67, 0
4, 423744, Note_on_c, 2, 71, 92
4, 423932, Note_on_c, 2, 71, 0
4, 423936, Note_on_c, 2, 60, 92
4, 424124, Note_on_c, 2, 60, 0
4, 424128, Note_on_c, 2, 64, 92
4, 424316, Note_on_c, 2, 64, 0
4, 424320, Note_on_c, 2, 66, 92
4, 424508, Note_on_c, 2, 66, 0
4, 424512, Note_on_c, 2, 69, 92
4, 424700, Note_on_c, 2, 69, 0
4, 424704, Note_on_c, 2, 59, 92
4, 424892, Note_on_c, 2, 59, 0
4, 424896, Note_on_c, 2, 62, 92
4, 425084, Note_on_c, 2, 62, 0
4, 425088, Note_on_c, 2, 64, 92
4, 425276, Note_on_c, 2, 64, 0
4, 425280, Note_on_c, 2, 67, 92
4, 425468, Note_on_c, 2, 67, 0
4, 425472, Note_on_c, 2, 62, 92
4, 425472, Note_on_c, 2, 66, 92
4, 425472, Note_on_c, 2, 57, 92
4, 425472, Note_on_c, 2, 60, 92
4, 426236, Note_on_c, 2, 60, 0
4, 426236, Note_on_c, 2, 62, 0
4, 426236, Note_on_c, 2, 66, 0
4, 426236, Note_on_c, 2, 57, 0
4, 427008, Note_on_c, 2, 55, 92
4, 427008, Note_on_c, 2, 59, 92
4, 427008, Note_on_c, 2, 62, 92
4, 427008, Note_on_c, 2, 67, 92
4, 427772, Note_on_c, 2, 67, 0
4, 427772, Note_on_c, 2, 55, 0
4, 427772, Note_on_c, 2, 59, 0
4, 427772, Note_on_c, 2, 62, 0
4, 428544, Note_on_c, 2, 54, 89
4, 428544, Note_on_c, 2, 50, 89
4, 428544, Note_on_c, 2, 48, 89
4, 428544, Note_on_c, 2, 45, 89
4, 429308, Note_on_c, 2, 45, 0
4, 429308, Note_on_c, 2, 54, 0
4, 429308, Note_on_c, 2, 50, 0
4, 429308, Note_on_c, 2, 48, 0
4, 430080, Note_on_c, 2, 43, 89
4, 430460, Note_on_c, 2, 43, 0
4, 430464, Note_on_c, 2, 47, 89
4, 430652, Note_on_c, 2, 47, 0
4, 430656, Note_on_c, 2, 50, 89
4, 430844, Note_on_c, 2, 50, 0
4, 430848, Note_on_c, 2, 55, 89
4, 431036, Note_on_c, 2, 55, 0
4, 431040, Note_on_c, 2, 54, 89
4, 431228, Note_on_c, 2, 54, 0
4, 431232, Note_on_c, 2, 55, 89
4, 431420, Note_on_c, 2, 55, 0
4, 431424, Note_on_c, 2, 54, 89
4, 431612, Note_on_c, 2, 54, 0
4, 431616, Note_on_c, 2, 55, 89
4, 431804, Note_on_c, 2, 55, 0
4, 431808, Note_on_c, 2, 55, 89
4, 431996, Note_on_c, 2, 55, 0
4, 432000, Note_on_c, 2, 59, 89
4, 432188, Note_on_c, 2, 59, 0
4, 432192, Note_on_c, 2, 62, 89
4, 432380, Note_on_c, 2, 62, 0
4, 433152, Note_on_c, 2, 55, 89
4, 433340, Note_on_c, 2, 55, 0
4, 433344, Note_on_c, 2, 54, 89
4, 433532, Note_on_c, 2, 54, 0
4, 433536, Note_on_c, 2, 55, 89
4, 433724, Note_on_c, 2, 55, 0
4, 433728, Note_on_c, 2, 57, 89
4, 433916, Note_on_c, 2, 57, 0
4, 433920, Note_on_c, 2, 53, 89
4, 434108, Note_on_c, 2, 53, 0
4, 434112, Note_on_c, 2, 52, 89
4, 434300, Note_on_c, 2, 52, 0
4, 434304, Note_on_c, 2, 53, 89
4, 434492, Note_on_c, 2, 53, 0
4, 434496, Note_on_c, 2, 55, 89
4, 434684, Note_on_c, 2, 55, 0
4, 434688, Note_on_c, 2, 52, 89
4, 434876, Note_on_c, 2, 52, 0
4, 434880, Note_on_c, 2, 51, 89
4, 435068, Note_on_c, 2, 51, 0
4, 435072, Note_on_c, 2, 52, 89
4, 435260, Note_on_c, 2, 52, 0
4, 435264, Note_on_c, 2, 53, 89
4, 435452, Note_on_c, 2, 53, 0
4, 435456, Note_on_c, 2, 50, 89
4, 435644, Note_on_c, 2, 50, 0
4, 435648, Note_on_c, 2, 49, 89
4, 435836, Note_on_c, 2, 49, 0
4, 435840, Note_on_c, 2, 50, 89
4, 436028, Note_on_c, 2, 50, 0
4, 436032, Note_on_c, 2, 52, 89
4, 436220, Note_on_c, 2, 52, 0
4, 436224, Note_on_c, 2, 48, 74
4, 436604, Note_on_c, 2, 48, 0
4, 437760, Note_on_c, 2, 53, 70
4, 437760, Note_on_c, 2, 43, 70
4, 438524, Note_on_c, 2, 43, 0
4, 438524, Note_on_c, 2, 53, 0
4, 438528, Note_on_c, 2, 52, 70
4, 438528, Note_on_c, 2, 48, 70
4, 438908, Note_on_c, 2, 48, 0
4, 438908, Note_on_c, 2, 52, 0
4, 439296, Note_on_c, 2, 53, 70
4, 439296, Note_on_c, 2, 43, 70
4, 440060, Note_on_c, 2, 43, 0
4, 440060, Note_on_c, 2, 53, 0
4, 440064, Note_on_c, 2, 52, 70
4, 440064, Note_on_c, 2, 48, 70
4, 440444, Note_on_c, 2, 48, 0
4, 440444, Note_on_c, 2, 52, 0
4, 440448, Note_on_c, 2, 65, 70
4, 440448, Note_on_c, 2, 60, 70
4, 440448, Note_on_c, 2, 57, 70
4, 440828, Note_on_c, 2, 57, 0
4, 440828, Note_on_c, 2, 60, 0
4, 440828, Note_on_c, 2, 65, 0
4, 440832, Note_on_c, 2, 64, 70
4, 440832, Note_on_c, 2, 60, 70
4, 440832, Note_on_c, 2, 55, 70
4, 441596, Note_on_c, 2, 55, 0
4, 441596, Note_on_c, 2, 60, 0
4, 441596, Note_on_c, 2, 64, 0
4, 441600, Note_on_c, 2, 62, 70
4, 441600, Note_on_c, 2, 59, 70
4, 441980, Note_on_c, 2, 59, 0
4, 441980, Note_on_c, 2, 62, 0
4, 442368, Note_on_c, 2, 62, 70
4, 442368, Note_on_c, 2, 59, 70
4, 442368, Note_on_c, 2, 55, 70
4, 442748, Note_on_c, 2, 55, 0
4, 442748, Note_on_c, 2, 59, 0
4, 442748, Note_on_c, 2, 62, 0
4, 443904, Note_on_c, 2, 48, 70
4, 444668, Note_on_c, 2, 48, 0
4, 444672, Note_on_c, 2, 47, 70
4, 445052, Note_on_c, 2, 47, 0
4, 445440, Note_on_c, 2, 55, 70
4, 445440, Note_on_c, 2, 48, 70
4, 446204, Note_on_c, 2, 48, 0
4, 446208, Note_on_c, 2, 47, 70
4, 446588, Note_on_c, 2, 47, 0
4, 446592, Note_on_c, 2, 43, 70
4, 446972, Note_on_c, 2, 43, 0
4, 446972, Note_on_c, 2, 55, 0
4, 446976, Note_on_c, 2, 48, 70
4, 447740, Note_on_c, 2, 48, 0
4, 448512, Note_on_c, 2, 60, 70
4, 448512, Note_on_c, 2, 52, 70
4, 450044, Note_on_c, 2, 52, 0
4, 450044, Note_on_c, 2, 60, 0
4, 450048, Note_on_c, 2, 57, 92
4, 450048, Note_on_c, 2, 53, 92
4, 450428, Note_on_c, 2, 53, 0
4, 450428, Note_on_c, 2, 57, 0
4, 450816, Note_on_c, 2, 53, 92
4, 451196, Note_on_c, 2, 53, 0
4, 451584, Note_on_c, 2, 55, 92
4, 451584, Note_on_c, 2, 52, 92
4, 451964, Note_on_c, 2, 52, 0
4, 451964, Note_on_c, 2, 55, 0
4, 452352, Note_on_c, 2, 52, 92
4, 452732, Note_on_c, 2, 52, 0
4, 453120, Note_on_c, 2, 62, 92
4, 453308, Note_on_c, 2, 62, 0
4, 453312, Note_on_c, 2, 59, 92
4, 453500, Note_on_c, 2, 59, 0
4, 453504, Note_on_c, 2, 62, 92
4, 453692, Note_on_c, 2, 62, 0
4, 453696, Note_on_c, 2, 59, 92
4, 453884, Note_on_c, 2, 59, 0
4, 453888, Note_on_c, 2, 55, 92
4, 454076, Note_on_c, 2, 55, 0
4, 454080, Note_on_c, 2, 55, 92
4, 454268, Note_on_c, 2, 55, 0
4, 454272, Note_on_c, 2, 57, 92
4, 454460, Note_on_c, 2, 57, 0
4, 454464, Note_on_c, 2, 59, 92
4, 454652, Note_on_c, 2, 59, 0
4, 454656, Note_on_c, 2, 60, 92
4, 455036, Note_on_c, 2, 60, 0
4, 455040, Note_on_c, 2, 56, 92
4, 455420, Note_on_c, 2, 56, 0
4, 455424, Note_on_c, 2, 57, 92
4, 455804, Note_on_c, 2, 57, 0
4, 455808, Note_on_c, 2, 56, 92
4, 456188, Note_on_c, 2, 56, 0
4, 456192, Note_on_c, 2, 57, 92
4, 456572, Note_on_c, 2, 57, 0
4, 457728, Note_on_c, 2, 60, 70
4, 457728, Note_on_c, 2, 55, 70
4, 458108, Note_on_c, 2, 55, 0
4, 458108, Note_on_c, 2, 60, 0
4, 458112, Note_on_c, 2, 60, 70
4, 458112, Note_on_c, 2, 55, 70
4, 458492, Note_on_c, 2, 55, 0
4, 458492, Note_on_c, 2, 60, 0
4, 458496, Note_on_c, 2, 59, 70
4, 458496, Note_on_c, 2, 55, 70
4, 458876, Note_on_c, 2, 55, 0
4, 458876, Note_on_c, 2, 59, 0
4, 458880, Note_on_c, 2, 59, 70
4, 458880, Note_on_c, 2, 55, 70
4, 459260, Note_on_c, 2, 55, 0
4, 459260, Note_on_c, 2, 59, 0
4, 459264, Note_on_c, 2, 60, 92
4, 459452, Note_on_c, 2, 60, 0
4, 459456, Note_on_c, 2, 60, 92
4, 459644, Note_on_c, 2, 60, 0
4, 459648, Note_on_c, 2, 59, 92
4, 459836, Note_on_c, 2, 59, 0
4, 459840, Note_on_c, 2, 57, 92
4, 460028, Note_on_c, 2, 57, 0
4, 460032, Note_on_c, 2, 55, 92
4, 460220, Note_on_c, 2, 55, 0
4, 460224, Note_on_c, 2, 53, 92
4, 460412, Note_on_c, 2, 53, 0
4, 460416, Note_on_c, 2, 52, 92
4, 460604, Note_on_c, 2, 52, 0
4, 460608, Note_on_c, 2, 50, 92
4, 460796, Note_on_c, 2, 50, 0
4, 460800, Note_on_c, 2, 48, 57
4, 460988, Note_on_c, 2, 48, 0
4, 471552, Note_on_c, 2, 48, 57
4, 471740, Note_on_c, 2, 48, 0
4, 471744, Note_on_c, 2, 60, 57
4, 471932, Note_on_c, 2, 60, 0
4, 471936, Note_on_c, 2, 59, 57
4, 472124, Note_on_c, 2, 59, 0
4, 472128, Note_on_c, 2, 60, 57
4, 472316, Note_on_c, 2, 60, 0
4, 472320, Note_on_c, 2, 59, 57
4, 472508, Note_on_c, 2, 59, 0
4, 472512, Note_on_c, 2, 60, 57
4, 472700, Note_on_c, 2, 60, 0
4, 472704, Note_on_c, 2, 59, 57
4, 472892, Note_on_c, 2, 59, 0
4, 472896, Note_on_c, 2, 60, 57
4, 473084, Note_on_c, 2, 60, 0
4, 473088, Note_on_c, 2, 48, 57
4, 473852, Note_on_c, 2, 48, 0
4, 474240, Note_on_c, 2, 52, 57
4, 474620, Note_on_c, 2, 52, 0
4, 474624, Note_on_c, 2, 53, 79
4, 475004, Note_on_c, 2, 53, 0
4, 475008, Note_on_c, 2, 65, 79
4, 475196, Note_on_c, 2, 65, 0
4, 475200, Note_on_c, 2, 62, 79
4, 475388, Note_on_c, 2, 62, 0
4, 475392, Note_on_c, 2, 59, 79
4, 475772, Note_on_c, 2, 59, 0
4, 475776, Note_on_c, 2, 59, 79
4, 475964, Note_on_c, 2, 59, 0
4, 475968, Note_on_c, 2, 55, 79
4, 476156, Note_on_c, 2, 55, 0
4, 476160, Note_on_c, 2, 52, 79
4, 476528, Note_on_c, 2, 64, 79
4, 476540, Note_on_c, 2, 52, 0
4, 476716, Note_on_c, 2, 64, 0
4, 476736, Note_on_c, 2, 60, 79
4, 476924, Note_on_c, 2, 60, 0
4, 476928, Note_on_c, 2, 57, 79
4, 477308, Note_on_c, 2, 57, 0
4, 477312, Note_on_c, 2, 57, 79
4, 477500, Note_on_c, 2, 57, 0
4, 477504, Note_on_c, 2, 53, 79
4, 477692, Note_on_c, 2, 53, 0
4, 477696, Note_on_c, 2, 50, 79
4, 478076, Note_on_c, 2, 50, 0
4, 478080, Note_on_c, 2, 62, 79
4, 478268, Note_on_c, 2, 62, 0
4, 478272, Note_on_c, 2, 60, 79
4, 478460, Note_on_c, 2, 60, 0
4, 478464, Note_on_c, 2, 59, 79
4, 478652, Note_on_c, 2, 59, 0
4, 478656, Note_on_c, 2, 57, 79
4, 478844, Note_on_c, 2, 57, 0
4, 478848, Note_on_c, 2, 59, 79
4, 479036, Note_on_c, 2, 59, 0
4, 479040, Note_on_c, 2, 55, 79
4, 479228, Note_on_c, 2, 55, 0
4, 479232, Note_on_c, 2, 60, 79
4, 479612, Note_on_c, 2, 60, 0
4, 482304, Note_on_c, 2, 59, 92
4, 482364, Note_on_c, 2, 59, 0
4, 482368, Note_on_c, 2, 60, 92
4, 482428, Note_on_c, 2, 60, 0
4, 482432, Note_on_c, 2, 59, 92
4, 482492, Note_on_c, 2, 59, 0
4, 482496, Note_on_c, 2, 60, 92
4, 482556, Note_on_c, 2, 60, 0
4, 482560, Note_on_c, 2, 59, 92
4, 482620, Note_on_c, 2, 59, 0
4, 482624, Note_on_c, 2, 60, 92
4, 482684, Note_on_c, 2, 60, 0
4, 482688, Note_on_c, 2, 59, 92
4, 482748, Note_on_c, 2, 59, 0
4, 482752, Note_on_c, 2, 60, 92
4, 482812, Note_on_c, 2, 60, 0
4, 482816, Note_on_c, 2, 59, 92
4, 482876, Note_on_c, 2, 59, 0
4, 482880, Note_on_c, 2, 60, 92
4, 482940, Note_on_c, 2, 60, 0
4, 482944, Note_on_c, 2, 59, 92
4, 483004, Note_on_c, 2, 59, 0
4, 483008, Note_on_c, 2, 60, 92
4, 483068, Note_on_c, 2, 60, 0
4, 483072, Note_on_c, 2, 59, 92
4, 483132, Note_on_c, 2, 59, 0
4, 483136, Note_on_c, 2, 60, 92
4, 483196, Note_on_c, 2, 60, 0
4, 483200, Note_on_c, 2, 59, 92
4, 483260, Note_on_c, 2, 59, 0
4, 483264, Note_on_c, 2, 60, 92
4, 483324, Note_on_c, 2, 60, 0
4, 483328, Note_on_c, 2, 59, 92
4, 483388, Note_on_c, 2, 59, 0
4, 483392, Note_on_c, 2, 60, 92
4, 483452, Note_on_c, 2, 60, 0
4, 483456, Note_on_c, 2, 59, 92
4, 483516, Note_on_c, 2, 59, 0
4, 483520, Note_on_c, 2, 60, 92
4, 483580, Note_on_c, 2, 60, 0
4, 483584, Note_on_c, 2, 59, 92
4, 483644, Note_on_c, 2, 59, 0
4, 483648, Note_on_c, 2, 57, 92
4, 483740, Note_on_c, 2, 57, 0
4, 483744, Note_on_c, 2, 59, 92
4, 483836, Note_on_c, 2, 59, 0
4, 483840, Note_on_c, 2, 60, 92
4, 484208, Note_on_c, 2, 57, 90
4, 484220, Note_on_c, 2, 60, 0
4, 484224, Note_on_c, 2, 57, 90
4, 484412, Note_on_c, 2, 57, 0
4, 484416, Note_on_c, 2, 60, 90
4, 484604, Note_on_c, 2, 60, 0
4, 484608, Note_on_c, 2, 57, 90
4, 484796, Note_on_c, 2, 57, 0
4, 484800, Note_on_c, 2, 60, 90
4, 484972, Note_on_c, 2, 57, 0
4, 484988, Note_on_c, 2, 60, 0
4, 484992, Note_on_c, 2, 55, 90
4, 484992, Note_on_c, 2, 55, 90
4, 485180, Note_on_c, 2, 55, 0
4, 485184, Note_on_c, 2, 60, 90
4, 485372, Note_on_c, 2, 60, 0
4, 485372, Note_on_c, 2, 55, 0
4, 485376, Note_on_c, 2, 53, 90
4, 485376, Note_on_c, 2, 53, 90
4, 485564, Note_on_c, 2, 53, 0
4, 485568, Note_on_c, 2, 60, 90
4, 485756, Note_on_c, 2, 60, 0
4, 485756, Note_on_c, 2, 53, 0
4, 485760, Note_on_c, 2, 52, 90
4, 485760, Note_on_c, 2, 52, 90
4, 485948, Note_on_c, 2, 52, 0
4, 485952, Note_on_c, 2, 60, 90
4, 486140, Note_on_c, 2, 60, 0
4, 486140, Note_on_c, 2, 52, 0
4, 486144, Note_on_c, 2, 57, 90
4, 486144, Note_on_c, 2, 57, 90
4, 486332, Note_on_c, 2, 57, 0
4, 486336, Note_on_c, 2, 60, 90
4, 486524, Note_on_c, 2, 60, 0
4, 486524, Note_on_c, 2, 57, 0
4, 486528, Note_on_c, 2, 55, 90
4, 486528, Note_on_c, 2, 55, 90
4, 486716, Note_on_c, 2, 55, 0
4, 486720, Note_on_c, 2, 60, 90
4, 486908, Note_on_c, 2, 60, 0
4, 486908, Note_on_c, 2, 55, 0
4, 486912, Note_on_c, 2, 53, 90
4, 486912, Note_on_c, 2, 53, 90
4, 487100, Note_on_c, 2, 53, 0
4, 487104, Note_on_c, 2, 60, 90
4, 487280, Note_on_c, 2, 57, 90
4, 487292, Note_on_c, 2, 60, 0
4, 487292, Note_on_c, 2, 53, 0
4, 487296, Note_on_c, 2, 57, 90
4, 487484, Note_on_c, 2, 57, 0
4, 487488, Note_on_c, 2, 60, 90
4, 487676, Note_on_c, 2, 60, 0
4, 487680, Note_on_c, 2, 57, 90
4, 487868, Note_on_c, 2, 57, 0
4, 487872, Note_on_c, 2, 60, 90
4, 488044, Note_on_c, 2, 57, 0
4, 488060, Note_on_c, 2, 60, 0
4, 488064, Note_on_c, 2, 55, 90
4, 488064, Note_on_c, 2, 55, 90
4, 488252, Note_on_c, 2, 55, 0
4, 488256, Note_on_c, 2, 60, 90
4, 488444, Note_on_c, 2, 60, 0
4, 488444, Note_on_c, 2, 55, 0
4, 488448, Note_on_c, 2, 53, 90
4, 488448, Note_on_c, 2, 53, 90
4, 488636, Note_on_c, 2, 53, 0
4, 488640, Note_on_c, 2, 60, 90
4, 488828, Note_on_c, 2, 60, 0
4, 488828, Note_on_c, 2, 53, 0
4, 488832, Note_on_c, 2, 52, 90
4, 488832, Note_on_c, 2, 52, 90
4, 489020, Note_on_c, 2, 52, 0
4, 489024, Note_on_c, 2, 60, 90
4, 489212, Note_on_c, 2, 60, 0
4, 489212, Note_on_c, 2, 52, 0
4, 489216, Note_on_c, 2, 57, 90
4, 489216, Note_on_c, 2, 57, 90
4, 489404, Note_on_c, 2, 57, 0
4, 489408, Note_on_c, 2, 60, 90
4, 489596, Note_on_c, 2, 60, 0
4, 489596, Note_on_c, 2, 57, 0
4, 489600, Note_on_c, 2, 55, 90
4, 489600, Note_on_c, 2, 55, 90
4, 489788, Note_on_c, 2, 55, 0
4, 489792, Note_on_c, 2, 60, 90
4, 489980, Note_on_c, 2, 60, 0
4, 489980, Note_on_c, 2, 55, 0
4, 489984, Note_on_c, 2, 53, 90
4, 490176, Note_on_c, 2, 57, 90
4, 490364, Note_on_c, 2, 57, 0
4, 490368, Note_on_c, 2, 60, 90
4, 490556, Note_on_c, 2, 60, 0
4, 490560, Note_on_c, 2, 57, 90
4, 490748, Note_on_c, 2, 57, 0
4, 490752, Note_on_c, 2, 60, 90
4, 490940, Note_on_c, 2, 60, 0
4, 490944, Note_on_c, 2, 57, 90
4, 491132, Note_on_c, 2, 57, 0
4, 491136, Note_on_c, 2, 60, 90
4, 491324, Note_on_c, 2, 60, 0
4, 491328, Note_on_c, 2, 57, 90
4, 491516, Note_on_c, 2, 57, 0
4, 491516, Note_on_c, 2, 53, 0
4, 491520, Note_on_c, 2, 60, 90
4, 491520, Note_on_c, 2, 54, 90
4, 491708, Note_on_c, 2, 60, 0
4, 491712, Note_on_c, 2, 57, 90
4, 491900, Note_on_c, 2, 57, 0
4, 491904, Note_on_c, 2, 60, 90
4, 492092, Note_on_c, 2, 60, 0
4, 492096, Note_on_c, 2, 57, 90
4, 492284, Note_on_c, 2, 57, 0
4, 492288, Note_on_c, 2, 60, 90
4, 492476, Note_on_c, 2, 60, 0
4, 492480, Note_on_c, 2, 57, 90
4, 492668, Note_on_c, 2, 57, 0
4, 492672, Note_on_c, 2, 60, 90
4, 492860, Note_on_c, 2, 60, 0
4, 492864, Note_on_c, 2, 57, 90
4, 493052, Note_on_c, 2, 57, 0
4, 493052, Note_on_c, 2, 54, 0
4, 493056, Note_on_c, 2, 59, 90
4, 493056, Note_on_c, 2, 55, 90
4, 493244, Note_on_c, 2, 55, 0
4, 493244, Note_on_c, 2, 59, 0
4, 493248, Note_on_c, 2, 43, 90
4, 493436, Note_on_c, 2, 43, 0
4, 493440, Note_on_c, 2, 50, 90
4, 493628, Note_on_c, 2, 50, 0
4, 493632, Note_on_c, 2, 43, 90
4, 493820, Note_on_c, 2, 43, 0
4, 493824, Note_on_c, 2, 47, 90
4, 494012, Note_on_c, 2, 47, 0
4, 494016, Note_on_c, 2, 43, 90
4, 494204, Note_on_c, 2, 43, 0
4, 494208, Note_on_c, 2, 50, 90
4, 494396, Note_on_c, 2, 50, 0
4, 494400, Note_on_c, 2, 43, 90
4, 494588, Note_on_c, 2, 43, 0
4, 494592, Note_on_c, 2, 47, 90
4, 494780, Note_on_c, 2, 47, 0
4, 494784, Note_on_c, 2, 43, 90
4, 494972, Note_on_c, 2, 43, 0
4, 494976, Note_on_c, 2, 50, 90
4, 495164, Note_on_c, 2, 50, 0
4, 495168, Note_on_c, 2, 43, 90
4, 495356, Note_on_c, 2, 43, 0
4, 495360, Note_on_c, 2, 47, 90
4, 495548, Note_on_c, 2, 47, 0
4, 495552, Note_on_c, 2, 43, 90
4, 495740, Note_on_c, 2, 43, 0
4, 495744, Note_on_c, 2, 50, 90
4, 495932, Note_on_c, 2, 50, 0
4, 495936, Note_on_c, 2, 43, 90
4, 496124, Note_on_c, 2, 43, 0
4, 496128, Note_on_c, 2, 48, 90
4, 496508, Note_on_c, 2, 48, 0
4, 496512, Note_on_c, 2, 48, 90
4, 496892, Note_on_c, 2, 48, 0
4, 496896, Note_on_c, 2, 52, 90
4, 497276, Note_on_c, 2, 52, 0
4, 497280, Note_on_c, 2, 48, 90
4, 497660, Note_on_c, 2, 48, 0
4, 498048, Note_on_c, 2, 50, 90
4, 498428, Note_on_c, 2, 50, 0
4, 498432, Note_on_c, 2, 47, 90
4, 498444, Note_on_c, 2, 50, 90
4, 498460, Note_on_c, 2, 55, 90
4, 498812, Note_on_c, 2, 47, 0
4, 498816, Note_on_c, 2, 43, 90
4, 498824, Note_on_c, 2, 50, 0
4, 498840, Note_on_c, 2, 55, 0
4, 499196, Note_on_c, 2, 43, 0
4, 499584, Note_on_c, 2, 48, 90
4, 499964, Note_on_c, 2, 48, 0
4, 499968, Note_on_c, 2, 57, 90
4, 500348, Note_on_c, 2, 57, 0
4, 500352, Note_on_c, 2, 53, 90
4, 500732, Note_on_c, 2, 53, 0
4, 501120, Note_on_c, 2, 55, 90
4, 501500, Note_on_c, 2, 55, 0
4, 501504, Note_on_c, 2, 43, 90
4, 501516, Note_on_c, 2, 50, 90
4, 501532, Note_on_c, 2, 53, 90
4, 501884, Note_on_c, 2, 43, 0
4, 501888, Note_on_c, 2, 53, 90
4, 501896, Note_on_c, 2, 50, 0
4, 501912, Note_on_c, 2, 53, 0
4, 502268, Note_on_c, 2, 53, 0
4, 502656, Note_on_c, 2, 64, 90
4, 502656, Note_on_c, 2, 52, 90
4, 503036, Note_on_c, 2, 52, 0
4, 503036, Note_on_c, 2, 64, 0
4, 503040, Note_on_c, 2, 62, 90
4, 503040, Note_on_c, 2, 50, 90
4, 503420, Note_on_c, 2, 50, 0
4, 503420, Note_on_c, 2, 62, 0
4, 503424, Note_on_c, 2, 60, 90
4, 503424, Note_on_c, 2, 48, 90
4, 503804, Note_on_c, 2, 48, 0
4, 503804, Note_on_c, 2, 60, 0
4, 504192, Note_on_c, 2, 69, 90
4, 504192, Note_on_c, 2, 57, 90
4, 504572, Note_on_c, 2, 57, 0
4, 504572, Note_on_c, 2, 69, 0
4, 504576, Note_on_c, 2, 67, 90
4, 504576, Note_on_c, 2, 55, 90
4, 504956, Note_on_c, 2, 55, 0
4, 504956, Note_on_c, 2, 67, 0
4, 504960, Note_on_c, 2, 65, 90
4, 504960, Note_on_c, 2, 53, 90
4, 505340, Note_on_c, 2, 53, 0
4, 505340, Note_on_c, 2, 65, 0
4, 505344, Note_on_c, 2, 64, 90
4, 505344, Note_on_c, 2, 52, 90
4, 505724, Note_on_c, 2, 52, 0
4, 505724, Note_on_c, 2, 64, 0
4, 505728, Note_on_c, 2, 57, 90
4, 505728, Note_on_c, 2, 60, 90
4, 506108, Note_on_c, 2, 57, 0
4, 506112, Note_on_c, 2, 53, 90
4, 506492, Note_on_c, 2, 53, 0
4, 506492, Note_on_c, 2, 60, 0
4, 506496, Note_on_c, 2, 55, 90
4, 506496, Note_on_c, 2, 59, 90
4, 506876, Note_on_c, 2, 59, 0
4, 506876, Note_on_c, 2, 55, 0
4, 506880, Note_on_c, 2, 59, 90
4, 507260, Note_on_c, 2, 59, 0
4, 507264, Note_on_c, 2, 60, 90
4, 507644, Note_on_c, 2, 60, 0
4, 507648, Note_on_c, 2, 60, 90
4, 507648, Note_on_c, 2, 64, 90
4, 508028, Note_on_c, 2, 64, 0
4, 508028, Note_on_c, 2, 60, 0
4, 508032, Note_on_c, 2, 62, 90
4, 508032, Note_on_c, 2, 55, 90
4, 508412, Note_on_c, 2, 55, 0
4, 508412, Note_on_c, 2, 62, 0
4, 508800, Note_on_c, 2, 60, 101
4, 509180, Note_on_c, 2, 60, 0
4, 509184, Note_on_c, 2, 59, 101
4, 509564, Note_on_c, 2, 59, 0
4, 509568, Note_on_c, 2, 58, 101
4, 509948, Note_on_c, 2, 58, 0
4, 509952, Note_on_c, 2, 57, 101
4, 510332, Note_on_c, 2, 57, 0
4, 510336, Note_on_c, 2, 60, 101
4, 510716, Note_on_c, 2, 60, 0
4, 510720, Note_on_c, 2, 57, 101
4, 511100, Note_on_c, 2, 57, 0
4, 511104, Note_on_c, 2, 53, 101
4, 511484, Note_on_c, 2, 53, 0
4, 511488, Note_on_c, 2, 52, 101
4, 513020, Note_on_c, 2, 52, 0
4, 513024, Note_on_c, 2, 53, 101
4, 513788, Note_on_c, 2, 53, 0
4, 513792, Note_on_c, 2, 57, 101
4, 514556, Note_on_c, 2, 57, 0
4, 517632, Note_on_c, 2, 60, 89
4, 517632, Note_on_c, 2, 48, 89
4, 518012, Note_on_c, 2, 48, 0
4, 518012, Note_on_c, 2, 60, 0
4, 518016, Note_on_c, 2, 48, 89
4, 518204, Note_on_c, 2, 48, 0
4, 518208, Note_on_c, 2, 48, 89
4, 518396, Note_on_c, 2, 48, 0
4, 518400, Note_on_c, 2, 47, 89
4, 518588, Note_on_c, 2, 47, 0
4, 518592, Note_on_c, 2, 50, 89
4, 518780, Note_on_c, 2, 50, 0
4, 518784, Note_on_c, 2, 53, 89
4, 518972, Note_on_c, 2, 53, 0
4, 518976, Note_on_c, 2, 53, 89
4, 519164, Note_on_c, 2, 53, 0
4, 519168, Note_on_c, 2, 52, 89
4, 519356, Note_on_c, 2, 52, 0
4, 519360, Note_on_c, 2, 55, 89
4, 519548, Note_on_c, 2, 55, 0
4, 519552, Note_on_c, 2, 60, 89
4, 519740, Note_on_c, 2, 60, 0
4, 519744, Note_on_c, 2, 60, 89
4, 519932, Note_on_c, 2, 60, 0
4, 519936, Note_on_c, 2, 59, 89
4, 520124, Note_on_c, 2, 59, 0
4, 520128, Note_on_c, 2, 62, 89
4, 520316, Note_on_c, 2, 62, 0
4, 520320, Note_on_c, 2, 65, 89
4, 520508, Note_on_c, 2, 65, 0
4, 520512, Note_on_c, 2, 65, 89
4, 520700, Note_on_c, 2, 65, 0
4, 520704, Note_on_c, 2, 64, 79
4, 521084, Note_on_c, 2, 64, 0
4, 521088, Note_on_c, 2, 55, 79
4, 521276, Note_on_c, 2, 55, 0
4, 521280, Note_on_c, 2, 55, 79
4, 521468, Note_on_c, 2, 55, 0
4, 521472, Note_on_c, 2, 62, 79
4, 521852, Note_on_c, 2, 62, 0
4, 521856, Note_on_c, 2, 55, 79
4, 522044, Note_on_c, 2, 55, 0
4, 522048, Note_on_c, 2, 55, 79
4, 522236, Note_on_c, 2, 55, 0
4, 522240, Note_on_c, 2, 64, 79
4, 522620, Note_on_c, 2, 64, 0
4, 522624, Note_on_c, 2, 55, 79
4, 522812, Note_on_c, 2, 55, 0
4, 522816, Note_on_c, 2, 55, 79
4, 523004, Note_on_c, 2, 55, 0
4, 523008, Note_on_c, 2, 59, 79
4, 523388, Note_on_c, 2, 59, 0
4, 523392, Note_on_c, 2, 55, 79
4, 523580, Note_on_c, 2, 55, 0
4, 523584, Note_on_c, 2, 55, 79
4, 523772, Note_on_c, 2, 55, 0
4, 523776, Note_on_c, 2, 60, 79
4, 524156, Note_on_c, 2, 60, 0
4, 524160, Note_on_c, 2, 55, 79
4, 524348, Note_on_c, 2, 55, 0
4, 524352, Note_on_c, 2, 55, 79
4, 524540, Note_on_c, 2, 55, 0
4, 524544, Note_on_c, 2, 62, 79
4, 524924, Note_on_c, 2, 62, 0
4, 524928, Note_on_c, 2, 55, 79
4, 525116, Note_on_c, 2, 55, 0
4, 525120, Note_on_c, 2, 55, 79
4, 525308, Note_on_c, 2, 55, 0
4, 525312, Note_on_c, 2, 64, 79
4, 525692, Note_on_c, 2, 64, 0
4, 525696, Note_on_c, 2, 55, 79
4, 525884, Note_on_c, 2, 55, 0
4, 525888, Note_on_c, 2, 55, 79
4, 526076, Note_on_c, 2, 55, 0
4, 526080, Note_on_c, 2, 59, 79
4, 526460, Note_on_c, 2, 59, 0
4, 526464, Note_on_c, 2, 55, 79
4, 526652, Note_on_c, 2, 55, 0
4, 526656, Note_on_c, 2, 55, 79
4, 526844, Note_on_c, 2, 55, 0
4, 526848, Note_on_c, 2, 60, 89
4, 527228, Note_on_c, 2, 60, 0
4, 527616, Note_on_c, 2, 57, 57
4, 527996, Note_on_c, 2, 57, 0
4, 528384, Note_on_c, 2, 53, 57
4, 528764, Note_on_c, 2, 53, 0
4, 529152, Note_on_c, 2, 50, 57
4, 529532, Note_on_c, 2, 50, 0
4, 530112, Note_on_c, 2, 55, 79
4, 530300, Note_on_c, 2, 55, 0
4, 530320, Note_on_c, 2, 54, 79
4, 530496, Note_on_c, 2, 53, 79
4, 530508, Note_on_c, 2, 54, 0
4, 530684, Note_on_c, 2, 53, 0
4, 530688, Note_on_c, 2, 52, 79
4, 530876, Note_on_c, 2, 52, 0
4, 530880, Note_on_c, 2, 60, 79
4, 531068, Note_on_c, 2, 60, 0
4, 531072, Note_on_c, 2, 59, 79
4, 531260, Note_on_c, 2, 59, 0
4, 531264, Note_on_c, 2, 58, 79
4, 531452, Note_on_c, 2, 58, 0
4, 531456, Note_on_c, 2, 57, 79
4, 531836, Note_on_c, 2, 57, 0
4, 531840, Note_on_c, 2, 53, 79
4, 532220, Note_on_c, 2, 53, 0
4, 532224, Note_on_c, 2, 55, 79
4, 532604, Note_on_c, 2, 55, 0
4, 532608, Note_on_c, 2, 43, 79
4, 532988, Note_on_c, 2, 43, 0
4, 536256, Note_on_c, 2, 55, 79
4, 536444, Note_on_c, 2, 55, 0
4, 536448, Note_on_c, 2, 54, 79
4, 536636, Note_on_c, 2, 54, 0
4, 536640, Note_on_c, 2, 53, 79
4, 536828, Note_on_c, 2, 53, 0
4, 536832, Note_on_c, 2, 52, 79
4, 537020, Note_on_c, 2, 52, 0
4, 537024, Note_on_c, 2, 60, 79
4, 537212, Note_on_c, 2, 60, 0
4, 537216, Note_on_c, 2, 59, 79
4, 537404, Note_on_c, 2, 59, 0
4, 537408, Note_on_c, 2, 58, 79
4, 537596, Note_on_c, 2, 58, 0
4, 537600, Note_on_c, 2, 57, 79
4, 537980, Note_on_c, 2, 57, 0
4, 537984, Note_on_c, 2, 53, 79
4, 538364, Note_on_c, 2, 53, 0
4, 538368, Note_on_c, 2, 55, 79
4, 538748, Note_on_c, 2, 55, 0
4, 538752, Note_on_c, 2, 43, 79
4, 539132, Note_on_c, 2, 43, 0
4, 539328, Note_on_c, 2, 55, 79
4, 539516, Note_on_c, 2, 55, 0
4, 539520, Note_on_c, 2, 54, 79
4, 539708, Note_on_c, 2, 54, 0
4, 539712, Note_on_c, 2, 53, 79
4, 539900, Note_on_c, 2, 53, 0
4, 539904, Note_on_c, 2, 52, 79
4, 540092, Note_on_c, 2, 52, 0
4, 540096, Note_on_c, 2, 60, 79
4, 540284, Note_on_c, 2, 60, 0
4, 540288, Note_on_c, 2, 59, 79
4, 540476, Note_on_c, 2, 59, 0
4, 540480, Note_on_c, 2, 58, 79
4, 540668, Note_on_c, 2, 58, 0
4, 540672, Note_on_c, 2, 57, 79
4, 541052, Note_on_c, 2, 57, 0
4, 541056, Note_on_c, 2, 53, 79
4, 541436, Note_on_c, 2, 53, 0
4, 541440, Note_on_c, 2, 55, 79
4, 541820, Note_on_c, 2, 55, 0
4, 541824, Note_on_c, 2, 43, 79
4, 542204, Note_on_c, 2, 43, 0
4, 542208, Note_on_c, 2, 45, 79
4, 542396, Note_on_c, 2, 45, 0
4, 542400, Note_on_c, 2, 48, 79
4, 542588, Note_on_c, 2, 48, 0
4, 542592, Note_on_c, 2, 52, 79
4, 542780, Note_on_c, 2, 52, 0
4, 542784, Note_on_c, 2, 57, 79
4, 542972, Note_on_c, 2, 57, 0
4, 542976, Note_on_c, 2, 41, 79
4, 543164, Note_on_c, 2, 41, 0
4, 543168, Note_on_c, 2, 45, 79
4, 543356, Note_on_c, 2, 45, 0
4, 543360, Note_on_c, 2, 50, 79
4, 543548, Note_on_c, 2, 50, 0
4, 543552, Note_on_c, 2, 53, 79
4, 543740, Note_on_c, 2, 53, 0
4, 543744, Note_on_c, 2, 43, 79
4, 543932, Note_on_c, 2, 43, 0
4, 543936, Note_on_c, 2, 48, 79
4, 544124, Note_on_c, 2, 48, 0
4, 544128, Note_on_c, 2, 52, 79
4, 544316, Note_on_c, 2, 52, 0
4, 544320, Note_on_c, 2, 55, 79
4, 544508, Note_on_c, 2, 55, 0
4, 544512, Note_on_c, 2, 43, 79
4, 544700, Note_on_c, 2, 43, 0
4, 544704, Note_on_c, 2, 50, 79
4, 544892, Note_on_c, 2, 50, 0
4, 544896, Note_on_c, 2, 53, 79
4, 545084, Note_on_c, 2, 53, 0
4, 545088, Note_on_c, 2, 55, 79
4, 545276, Note_on_c, 2, 55, 0
4, 545280, Note_on_c, 2, 45, 89
4, 545468, Note_on_c, 2, 45, 0
4, 545472, Note_on_c, 2, 48, 89
4, 545660, Note_on_c, 2, 48, 0
4, 545664, Note_on_c, 2, 52, 89
4, 545852, Note_on_c, 2, 52, 0
4, 545856, Note_on_c, 2, 57, 89
4, 546044, Note_on_c, 2, 57, 0
4, 546048, Note_on_c, 2, 41, 89
4, 546236, Note_on_c, 2, 41, 0
4, 546240, Note_on_c, 2, 45, 89
4, 546428, Note_on_c, 2, 45, 0
4, 546432, Note_on_c, 2, 50, 89
4, 546620, Note_on_c, 2, 50, 0
4, 546624, Note_on_c, 2, 53, 89
4, 546812, Note_on_c, 2, 53, 0
4, 546816, Note_on_c, 2, 43, 89
4, 547004, Note_on_c, 2, 43, 0
4, 547008, Note_on_c, 2, 48, 89
4, 547196, Note_on_c, 2, 48, 0
4, 547200, Note_on_c, 2, 52, 89
4, 547388, Note_on_c, 2, 52, 0
4, 547392, Note_on_c, 2, 55, 89
4, 547580, Note_on_c, 2, 55, 0
4, 547584, Note_on_c, 2, 43, 89
4, 547772, Note_on_c, 2, 43, 0
4, 547776, Note_on_c, 2, 47, 89
4, 547964, Note_on_c, 2, 47, 0
4, 547968, Note_on_c, 2, 50, 89
4, 548156, Note_on_c, 2, 50, 0
4, 548160, Note_on_c, 2, 55, 89
4, 548348, Note_on_c, 2, 55, 0
4, 548352, Note_on_c, 2, 48, 89
4, 548540, Note_on_c, 2, 48, 0
4, 548544, Note_on_c, 2, 59, 89
4, 548732, Note_on_c, 2, 59, 0
4, 548736, Note_on_c, 2, 60, 89
4, 548924, Note_on_c, 2, 60, 0
4, 548928, Note_on_c, 2, 62, 89
4, 549116, Note_on_c, 2, 62, 0
4, 549120, Note_on_c, 2, 64, 89
4, 549308, Note_on_c, 2, 64, 0
4, 549312, Note_on_c, 2, 62, 89
4, 549500, Note_on_c, 2, 62, 0
4, 549504, Note_on_c, 2, 60, 89
4, 549692, Note_on_c, 2, 60, 0
4, 549696, Note_on_c, 2, 59, 89
4, 549884, Note_on_c, 2, 59, 0
4, 549888, Note_on_c, 2, 57, 89
4, 550076, Note_on_c, 2, 57, 0
4, 550080, Note_on_c, 2, 56, 89
4, 550268, Note_on_c, 2, 56, 0
4, 550272, Note_on_c, 2, 57, 89
4, 550460, Note_on_c, 2, 57, 0
4, 550464, Note_on_c, 2, 59, 89
4, 550652, Note_on_c, 2, 59, 0
4, 550656, Note_on_c, 2, 60, 89
4, 550844, Note_on_c, 2, 60, 0
4, 550848, Note_on_c, 2, 59, 89
4, 551036, Note_on_c, 2, 59, 0
4, 551040, Note_on_c, 2, 57, 89
4, 551228, Note_on_c, 2, 57, 0
4, 551232, Note_on_c, 2, 55, 89
4, 551420, Note_on_c, 2, 55, 0
4, 551424, Note_on_c, 2, 53, 89
4, 551804, Note_on_c, 2, 53, 0
4, 552192, Note_on_c, 2, 50, 89
4, 552192, Note_on_c, 2, 38, 89
4, 552572, Note_on_c, 2, 38, 0
4, 552572, Note_on_c, 2, 50, 0
4, 552960, Note_on_c, 2, 48, 89
4, 552960, Note_on_c, 2, 36, 89
4, 553340, Note_on_c, 2, 36, 0
4, 553340, Note_on_c, 2, 48, 0
4, 553728, Note_on_c, 2, 57, 89
4, 553728, Note_on_c, 2, 45, 89
4, 554108, Note_on_c, 2, 45, 0
4, 554108, Note_on_c, 2, 57, 0
4, 554496, Note_on_c, 2, 55, 89
4, 554496, Note_on_c, 2, 43, 89
4, 555260, Note_on_c, 2, 43, 0
4, 555260, Note_on_c, 2, 55, 0
4, 556032, Note_on_c, 2, 48, 89
4, 556220, Note_on_c, 2, 48, 0
4, 556224, Note_on_c, 2, 50, 89
4, 556412, Note_on_c, 2, 50, 0
4, 556416, Note_on_c, 2, 52, 89
4, 556604, Note_on_c, 2, 52, 0
4, 556608, Note_on_c, 2, 50, 89
4, 556796, Note_on_c, 2, 50, 0
4, 556800, Note_on_c, 2, 48, 89
4, 556988, Note_on_c, 2, 48, 0
4, 556992, Note_on_c, 2, 50, 89
4, 557180, Note_on_c, 2, 50, 0
4, 557184, Note_on_c, 2, 52, 89
4, 557372, Note_on_c, 2, 52, 0
4, 557376, Note_on_c, 2, 53, 89
4, 557564, Note_on_c, 2, 53, 0
4, 557568, Note_on_c, 2, 55, 89
4, 557756, Note_on_c, 2, 55, 0
4, 557760, Note_on_c, 2, 57, 89
4, 557948, Note_on_c, 2, 57, 0
4, 557952, Note_on_c, 2, 59, 89
4, 558140, Note_on_c, 2, 59, 0
4, 558144, Note_on_c, 2, 57, 89
4, 558332, Note_on_c, 2, 57, 0
4, 558336, Note_on_c, 2, 55, 89
4, 558524, Note_on_c, 2, 55, 0
4, 558528, Note_on_c, 2, 57, 89
4, 558716, Note_on_c, 2, 57, 0
4, 558720, Note_on_c, 2, 59, 89
4, 558908, Note_on_c, 2, 59, 0
4, 558912, Note_on_c, 2, 55, 89
4, 559100, Note_on_c, 2, 55, 0
4, 559104, Note_on_c, 2, 60, 89
4, 559292, Note_on_c, 2, 60, 0
4, 559296, Note_on_c, 2, 64, 89
4, 559484, Note_on_c, 2, 64, 0
4, 559488, Note_on_c, 2, 60, 89
4, 559676, Note_on_c, 2, 60, 0
4, 559680, Note_on_c, 2, 55, 89
4, 559868, Note_on_c, 2, 55, 0
4, 559872, Note_on_c, 2, 52, 89
4, 560060, Note_on_c, 2, 52, 0
4, 560064, Note_on_c, 2, 55, 89
4, 560252, Note_on_c, 2, 55, 0
4, 560256, Note_on_c, 2, 52, 89
4, 560444, Note_on_c, 2, 52, 0
4, 560448, Note_on_c, 2, 48, 89
4, 560636, Note_on_c, 2, 48, 0
4, 560640, Note_on_c, 2, 43, 89
4, 560828, Note_on_c, 2, 43, 0
4, 560832, Note_on_c, 2, 47, 89
4, 561020, Note_on_c, 2, 47, 0
4, 561024, Note_on_c, 2, 50, 89
4, 561212, Note_on_c, 2, 50, 0
4, 561216, Note_on_c, 2, 55, 89
4, 561404, Note_on_c, 2, 55, 0
4, 561408, Note_on_c, 2, 59, 89
4, 561596, Note_on_c, 2, 59, 0
4, 561600, Note_on_c, 2, 62, 89
4, 561788, Note_on_c, 2, 62, 0
4, 561792, Note_on_c, 2, 59, 89
4, 561980, Note_on_c, 2, 59, 0
4, 561984, Note_on_c, 2, 55, 89
4, 562172, Note_on_c, 2, 55, 0
4, 562176, Note_on_c, 2, 60, 92
4, 562556, Note_on_c, 2, 60, 0
4, 562560, Note_on_c, 2, 60, 92
4, 562560, Note_on_c, 2, 64, 92
4, 562848, Note_on_c, 2, 60, 92
4, 562940, Note_on_c, 2, 60, 0
4, 562940, Note_on_c, 2, 64, 0
4, 562940, Note_on_c, 2, 60, 0
4, 562944, Note_on_c, 2, 57, 92
4, 563324, Note_on_c, 2, 57, 0
4, 563328, Note_on_c, 2, 64, 92
4, 563344, Note_on_c, 2, 60, 92
4, 563616, Note_on_c, 2, 57, 92
4, 563708, Note_on_c, 2, 57, 0
4, 563708, Note_on_c, 2, 64, 0
4, 563712, Note_on_c, 2, 53, 92
4, 563724, Note_on_c, 2, 60, 0
4, 564092, Note_on_c, 2, 53, 0
4, 564096, Note_on_c, 2, 62, 92
4, 564096, Note_on_c, 2, 60, 92
4, 564384, Note_on_c, 2, 53, 92
4, 564476, Note_on_c, 2, 53, 0
4, 564476, Note_on_c, 2, 60, 0
4, 564476, Note_on_c, 2, 62, 0
4, 564480, Note_on_c, 2, 55, 92
4, 564860, Note_on_c, 2, 55, 0
4, 564864, Note_on_c, 2, 62, 92
4, 564864, Note_on_c, 2, 59, 92
4, 565152, Note_on_c, 2, 55, 92
4, 565244, Note_on_c, 2, 55, 0
4, 565244, Note_on_c, 2, 59, 0
4, 565244, Note_on_c, 2, 62, 0
4, 565248, Note_on_c, 2, 48, 69
4, 566012, Note_on_c, 2, 48, 0
4, 576000, Note_on_c, 2, 64, 57
4, 576188, Note_on_c, 2, 64, 0
4, 576192, Note_on_c, 2, 60, 57
4, 576380, Note_on_c, 2, 60, 0
4, 576384, Note_on_c, 2, 55, 57
4, 576572, Note_on_c, 2, 55, 0
4, 576576, Note_on_c, 2, 52, 57
4, 576764, Note_on_c, 2, 52, 0
4, 576768, Note_on_c, 2, 48, 57
4, 577148, Note_on_c, 2, 48, 0
4, 577152, Note_on_c, 2, 60, 57
4, 577532, Note_on_c, 2, 60, 0
4, 577536, Note_on_c, 2, 55, 57
4, 577916, Note_on_c, 2, 55, 0
4, 579072, Note_on_c, 2, 60, 57
4, 579452, Note_on_c, 2, 60, 0
4, 579840, Note_on_c, 2, 55, 57
4, 580220, Note_on_c, 2, 55, 0
4, 580608, Note_on_c, 2, 48, 57
4, 580988, Note_on_c, 2, 48, 0
4, 581376, Note_on_c, 2, 64, 57
4, 581564, Note_on_c, 2, 64, 0
4, 581568, Note_on_c, 2, 60, 57
4, 581756, Note_on_c, 2, 60, 0
4, 581760, Note_on_c, 2, 64, 57
4, 581948, Note_on_c, 2, 64, 0
4, 581952, Note_on_c, 2, 60, 57
4, 582140, Note_on_c, 2, 60, 0
4, 582144, Note_on_c, 2, 65, 57
4, 582332, Note_on_c, 2, 65, 0
4, 582336, Note_on_c, 2, 60, 57
4, 582524, Note_on_c, 2, 60, 0
4, 582528, Note_on_c, 2, 64, 57
4, 582716, Note_on_c, 2, 64, 0
4, 582720, Note_on_c, 2, 60, 57
4, 582908, Note_on_c, 2, 60, 0
4, 582912, Note_on_c, 2, 64, 57
4, 583100, Note_on_c, 2, 64, 0
4, 583104, Note_on_c, 2, 60, 57
4, 583292, Note_on_c, 2, 60, 0
4, 583296, Note_on_c, 2, 64, 57
4, 583484, Note_on_c, 2, 64, 0
4, 583488, Note_on_c, 2, 60, 57
4, 583676, Note_on_c, 2, 60, 0
4, 583680, Note_on_c, 2, 65, 57
4, 583868, Note_on_c, 2, 65, 0
4, 583872, Note_on_c, 2, 60, 57
4, 584060, Note_on_c, 2, 60, 0
4, 584064, Note_on_c, 2, 65, 57
4, 584252, Note_on_c, 2, 65, 0
4, 584256, Note_on_c, 2, 60, 57
4, 584444, Note_on_c, 2, 60, 0
4, 584448, Note_on_c, 2, 64, 57
4, 584636, Note_on_c, 2, 64, 0
4, 584640, Note_on_c, 2, 60, 57
4, 584828, Note_on_c, 2, 60, 0
4, 584832, Note_on_c, 2, 64, 57
4, 585020, Note_on_c, 2, 64, 0
4, 585024, Note_on_c, 2, 60, 57
4, 585212, Note_on_c, 2, 60, 0
4, 585216, Note_on_c, 2, 48, 79
4, 585596, Note_on_c, 2, 48, 0
4, 585984, Note_on_c, 2, 43, 79
4, 586364, Note_on_c, 2, 43, 0
4, 586752, Note_on_c, 2, 48, 79
4, 587132, Note_on_c, 2, 48, 0
4, 587520, Note_on_c, 2, 55, 79
4, 587900, Note_on_c, 2, 55, 0
4, 588288, Note_on_c, 2, 52, 79
4, 588668, Note_on_c, 2, 52, 0
4, 588672, Note_on_c, 2, 48, 79
4, 589052, Note_on_c, 2, 48, 0
4, 589056, Note_on_c, 2, 55, 79
4, 589436, Note_on_c, 2, 55, 0
4, 589440, Note_on_c, 2, 43, 79
4, 589820, Note_on_c, 2, 43, 0
4, 589824, Note_on_c, 2, 48, 79
4, 590204, Note_on_c, 2, 48, 0
4, 592896, Note_on_c, 2, 60, 57
4, 593084, Note_on_c, 2, 60, 0
4, 593088, Note_on_c, 2, 55, 57
4, 593276, Note_on_c, 2, 55, 0
4, 593280, Note_on_c, 2, 60, 57
4, 593468, Note_on_c, 2, 60, 0
4, 593472, Note_on_c, 2, 62, 57
4, 593660, Note_on_c, 2, 62, 0
4, 593664, Note_on_c, 2, 64, 57
4, 593852, Note_on_c, 2, 64, 0
4, 593856, Note_on_c, 2, 60, 57
4, 594044, Note_on_c, 2, 60, 0
4, 594048, Note_on_c, 2, 62, 57
4, 594236, Note_on_c, 2, 62, 0
4, 594240, Note_on_c, 2, 59, 57
4, 594428, Note_on_c, 2, 59, 0
4, 594432, Note_on_c, 2, 60, 57
4, 594620, Note_on_c, 2, 60, 0
4, 594624, Note_on_c, 2, 55, 57
4, 594812, Note_on_c, 2, 55, 0
4, 594816, Note_on_c, 2, 60, 57
4, 595004, Note_on_c, 2, 60, 0
4, 595008, Note_on_c, 2, 62, 57
4, 595196, Note_on_c, 2, 62, 0
4, 595200, Note_on_c, 2, 64, 57
4, 595388, Note_on_c, 2, 64, 0
4, 595392, Note_on_c, 2, 60, 57
4, 595580, Note_on_c, 2, 60, 0
4, 595584, Note_on_c, 2, 62, 57
4, 595772, Note_on_c, 2, 62, 0
4, 595776, Note_on_c, 2, 59, 57
4, 595964, Note_on_c, 2, 59, 0
4, 595968, Note_on_c, 2, 60, 57
4, 596156, Note_on_c, 2, 60, 0
4, 596160, Note_on_c, 2, 55, 57
4, 596348, Note_on_c, 2, 55, 0
4, 596352, Note_on_c, 2, 60, 57
4, 596540, Note_on_c, 2, 60, 0
4, 596544, Note_on_c, 2, 62, 57
4, 596732, Note_on_c, 2, 62, 0
4, 596736, Note_on_c, 2, 64, 57
4, 596924, Note_on_c, 2, 64, 0
4, 596928, Note_on_c, 2, 60, 57
4, 597116, Note_on_c, 2, 60, 0
4, 597120, Note_on_c, 2, 62, 57
4, 597308, Note_on_c, 2, 62, 0
4, 597312, Note_on_c, 2, 59, 57
4, 597500, Note_on_c, 2, 59, 0
4, 597504, Note_on_c, 2, 60, 57
4, 597692, Note_on_c, 2, 60, 0
4, 597696, Note_on_c, 2, 55, 57
4, 597884, Note_on_c, 2, 55, 0
4, 597888, Note_on_c, 2, 60, 57
4, 598076, Note_on_c, 2, 60, 0
4, 598080, Note_on_c, 2, 64, 57
4, 598268, Note_on_c, 2, 64, 0
4, 598272, Note_on_c, 2, 60, 57
4, 598652, Note_on_c, 2, 60, 0
4, 598656, Note_on_c, 2, 55, 89
4, 599036, Note_on_c, 2, 55, 0
4, 599040, Note_on_c, 2, 60, 92
4, 599040, Note_on_c, 2, 48, 92
4, 599420, Note_on_c, 2, 48, 0
4, 599420, Note_on_c, 2, 60, 0
4, 599424, Note_on_c, 2, 64, 92
4, 599424, Note_on_c, 2, 60, 92
4, 599804, Note_on_c, 2, 60, 0
4, 599804, Note_on_c, 2, 64, 0
4, 599808, Note_on_c, 2, 64, 92
4, 599808, Note_on_c, 2, 60, 92
4, 600188, Note_on_c, 2, 60, 0
4, 600188, Note_on_c, 2, 64, 0
4, 600192, Note_on_c, 2, 55, 92
4, 600572, Note_on_c, 2, 55, 0
4, 600576, Note_on_c, 2, 60, 92
4, 600576, Note_on_c, 2, 48, 92
4, 600956, Note_on_c, 2, 48, 0
4, 600956, Note_on_c, 2, 60, 0
4, 600960, Note_on_c, 2, 60, 92
4, 600960, Note_on_c, 2, 64, 92
4, 601340, Note_on_c, 2, 64, 0
4, 601340, Note_on_c, 2, 60, 0
4, 601344, Note_on_c, 2, 60, 92
4, 601344, Note_on_c, 2, 64, 92
4, 601724, Note_on_c, 2, 64, 0
4, 601724, Note_on_c, 2, 60, 0
4, 601728, Note_on_c, 2, 55, 92
4, 602108, Note_on_c, 2, 55, 0
4, 602112, Note_on_c, 2, 60, 92
4, 602112, Note_on_c, 2, 48, 92
4, 602876, Note_on_c, 2, 48, 0
4, 602876, Note_on_c, 2, 60, 0
4, 602880, Note_on_c, 2, 60, 92
4, 602880, Note_on_c, 2, 48, 92
4, 603644, Note_on_c, 2, 48, 0
4, 603644, Note_on_c, 2, 60, 0
4, 603648, Note_on_c, 2, 48, 92
4, 603648, Note_on_c, 2, 36, 92
4, 605180, Note_on_c, 2, 36, 0
4, 605180, Note_on_c, 2, 48, 0
4, 605180, End_track
5, 0, Start_track
5, 0, MIDI_port, 0
5, 0, Title_t, "Concerto"
5, 0, Control_c, 3, 0, 0
5, 0, Control_c, 3, 32, 0
5, 0, Program_c, 3, 46
5, 0, Control_c, 3, 7, 94
5, 0, Control_c, 3, 10, 63
5, 0, Control_c, 3, 91, 63
5, 0, Control_c, 3, 93, 48
5, 0, Control_c, 3, 121, 0
5, 96, Control_c, 3, 10, 63
5, 192, Control_c, 3, 91, 63
5, 240, Control_c, 3, 93, 40
5, 288, Program_c, 3, 46
5, 90620, Program_c, 3, 46
5, 90624, Note_on_c, 3, 72, 73
5, 90624, Note_on_c, 3, 60, 73
5, 90812, Note_on_c, 3, 60, 0
5, 90812, Note_on_c, 3, 72, 0
5, 90816, Note_on_c, 3, 71, 73
5, 90816, Note_on_c, 3, 67, 73
5, 91004, Note_on_c, 3, 67, 0
5, 91004, Note_on_c, 3, 71, 0
5, 91008, Note_on_c, 3, 72, 73
5, 91008, Note_on_c, 3, 64, 73
5, 91196, Note_on_c, 3, 64, 0
5, 91196, Note_on_c, 3, 72, 0
5, 91200, Note_on_c, 3, 71, 73
5, 91200, Note_on_c, 3, 67, 73
5, 91388, Note_on_c, 3, 67, 0
5, 91388, Note_on_c, 3, 71, 0
5, 91392, Note_on_c, 3, 72, 73
5, 91392, Note_on_c, 3, 60, 73
5, 91580, Note_on_c, 3, 60, 0
5, 91584, Note_on_c, 3, 67, 73
5, 91772, Note_on_c, 3, 67, 0
5, 91772, Note_on_c, 3, 72, 0
5, 91776, Note_on_c, 3, 76, 73
5, 91776, Note_on_c, 3, 64, 73
5, 91964, Note_on_c, 3, 64, 0
5, 91968, Note_on_c, 3, 67, 73
5, 92156, Note_on_c, 3, 67, 0
5, 92156, Note_on_c, 3, 76, 0
5, 92160, Note_on_c, 3, 74, 73
5, 92160, Note_on_c, 3, 60, 73
5, 92348, Note_on_c, 3, 60, 0
5, 92348, Note_on_c, 3, 74, 0
5, 92352, Note_on_c, 3, 72, 73
5, 92352, Note_on_c, 3, 67, 73
5, 92540, Note_on_c, 3, 67, 0
5, 92540, Note_on_c, 3, 72, 0
5, 92544, Note_on_c, 3, 72, 73
5, 92544, Note_on_c, 3, 64, 73
5, 92732, Note_on_c, 3, 64, 0
5, 92732, Note_on_c, 3, 72, 0
5, 92736, Note_on_c, 3, 71, 73
5, 92736, Note_on_c, 3, 67, 73
5, 92924, Note_on_c, 3, 67, 0
5, 92924, Note_on_c, 3, 71, 0
5, 92928, Note_on_c, 3, 72, 73
5, 92928, Note_on_c, 3, 60, 73
5, 93116, Note_on_c, 3, 60, 0
5, 93120, Note_on_c, 3, 67, 73
5, 93308, Note_on_c, 3, 67, 0
5, 93308, Note_on_c, 3, 72, 0
5, 93312, Note_on_c, 3, 64, 73
5, 93500, Note_on_c, 3, 64, 0
5, 93504, Note_on_c, 3, 67, 73
5, 93692, Note_on_c, 3, 67, 0
5, 93696, Note_on_c, 3, 77, 73
5, 93696, Note_on_c, 3, 60, 73
5, 93884, Note_on_c, 3, 60, 0
5, 93884, Note_on_c, 3, 77, 0
5, 93888, Note_on_c, 3, 76, 73
5, 93888, Note_on_c, 3, 69, 73
5, 94076, Note_on_c, 3, 69, 0
5, 94076, Note_on_c, 3, 76, 0
5, 94080, Note_on_c, 3, 77, 73
5, 94080, Note_on_c, 3, 65, 73
5, 94268, Note_on_c, 3, 65, 0
5, 94268, Note_on_c, 3, 77, 0
5, 94272, Note_on_c, 3, 76, 73
5, 94272, Note_on_c, 3, 69, 73
5, 94460, Note_on_c, 3, 69, 0
5, 94460, Note_on_c, 3, 76, 0
5, 94464, Note_on_c, 3, 77, 73
5, 94464, Note_on_c, 3, 60, 73
5, 94652, Note_on_c, 3, 60, 0
5, 94656, Note_on_c, 3, 69, 73
5, 94844, Note_on_c, 3, 69, 0
5, 94844, Note_on_c, 3, 77, 0
5, 94848, Note_on_c, 3, 81, 73
5, 94848, Note_on_c, 3, 65, 73
5, 95036, Note_on_c, 3, 65, 0
5, 95040, Note_on_c, 3, 69, 73
5, 95228, Note_on_c, 3, 69, 0
5, 95228, Note_on_c, 3, 81, 0
5, 95232, Note_on_c, 3, 78, 73
5, 95232, Note_on_c, 3, 60, 73
5, 95420, Note_on_c, 3, 60, 0
5, 95420, Note_on_c, 3, 78, 0
5, 95424, Note_on_c, 3, 79, 73
5, 95424, Note_on_c, 3, 67, 73
5, 95612, Note_on_c, 3, 67, 0
5, 95612, Note_on_c, 3, 79, 0
5, 95616, Note_on_c, 3, 79, 73
5, 95616, Note_on_c, 3, 64, 73
5, 95804, Note_on_c, 3, 64, 0
5, 95804, Note_on_c, 3, 79, 0
5, 95808, Note_on_c, 3, 78, 73
5, 95808, Note_on_c, 3, 67, 73
5, 95984, Note_on_c, 3, 60, 73
5, 95996, Note_on_c, 3, 67, 0
5, 95996, Note_on_c, 3, 78, 0
5, 96000, Note_on_c, 3, 79, 73
5, 96172, Note_on_c, 3, 60, 0
5, 96192, Note_on_c, 3, 67, 73
5, 96380, Note_on_c, 3, 67, 0
5, 96380, Note_on_c, 3, 79, 0
5, 96384, Note_on_c, 3, 64, 73
5, 96572, Note_on_c, 3, 64, 0
5, 96576, Note_on_c, 3, 67, 73
5, 96764, Note_on_c, 3, 67, 0
5, 96768, Note_on_c, 3, 84, 73
5, 96768, Note_on_c, 3, 60, 73
5, 96956, Note_on_c, 3, 60, 0
5, 96956, Note_on_c, 3, 84, 0
5, 96960, Note_on_c, 3, 83, 73
5, 96960, Note_on_c, 3, 67, 73
5, 97148, Note_on_c, 3, 67, 0
5, 97148, Note_on_c, 3, 83, 0
5, 97152, Note_on_c, 3, 84, 73
5, 97152, Note_on_c, 3, 64, 73
5, 97340, Note_on_c, 3, 64, 0
5, 97340, Note_on_c, 3, 84, 0
5, 97344, Note_on_c, 3, 83, 73
5, 97344, Note_on_c, 3, 67, 73
5, 97532, Note_on_c, 3, 67, 0
5, 97532, Note_on_c, 3, 83, 0
5, 97536, Note_on_c, 3, 84, 73
5, 97536, Note_on_c, 3, 60, 73
5, 97724, Note_on_c, 3, 60, 0
5, 97728, Note_on_c, 3, 67, 73
5, 97916, Note_on_c, 3, 67, 0
5, 97916, Note_on_c, 3, 84, 0
5, 97920, Note_on_c, 3, 76, 73
5, 97920, Note_on_c, 3, 64, 73
5, 98108, Note_on_c, 3, 64, 0
5, 98112, Note_on_c, 3, 67, 73
5, 98300, Note_on_c, 3, 67, 0
5, 98300, Note_on_c, 3, 76, 0
5, 98304, Note_on_c, 3, 79, 73
5, 98304, Note_on_c, 3, 60, 73
5, 98492, Note_on_c, 3, 60, 0
5, 98492, Note_on_c, 3, 79, 0
5, 98496, Note_on_c, 3, 77, 73
5, 98496, Note_on_c, 3, 69, 73
5, 98684, Note_on_c, 3, 69, 0
5, 98684, Note_on_c, 3, 77, 0
5, 98688, Note_on_c, 3, 77, 73
5, 98688, Note_on_c, 3, 62, 73
5, 98876, Note_on_c, 3, 62, 0
5, 98876, Note_on_c, 3, 77, 0
5, 98880, Note_on_c, 3, 74, 73
5, 98880, Note_on_c, 3, 69, 73
5, 99068, Note_on_c, 3, 69, 0
5, 99068, Note_on_c, 3, 74, 0
5, 99072, Note_on_c, 3, 60, 73
5, 99072, Note_on_c, 3, 86, 73
5, 99260, Note_on_c, 3, 60, 0
5, 99264, Note_on_c, 3, 67, 73
5, 99452, Note_on_c, 3, 67, 0
5, 99452, Note_on_c, 3, 86, 0
5, 99456, Note_on_c, 3, 62, 73
5, 99644, Note_on_c, 3, 62, 0
5, 99648, Note_on_c, 3, 77, 73
5, 99648, Note_on_c, 3, 67, 73
5, 99836, Note_on_c, 3, 67, 0
5, 99836, Note_on_c, 3, 77, 0
5, 99840, Note_on_c, 3, 76, 73
5, 100028, Note_on_c, 3, 76, 0
5, 100032, Note_on_c, 3, 79, 73
5, 100220, Note_on_c, 3, 79, 0
5, 100224, Note_on_c, 3, 72, 73
5, 100412, Note_on_c, 3, 72, 0
5, 100416, Note_on_c, 3, 76, 73
5, 100604, Note_on_c, 3, 76, 0
5, 100608, Note_on_c, 3, 74, 73
5, 100796, Note_on_c, 3, 74, 0
5, 100800, Note_on_c, 3, 77, 73
5, 100988, Note_on_c, 3, 77, 0
5, 100992, Note_on_c, 3, 71, 73
5, 101180, Note_on_c, 3, 71, 0
5, 101184, Note_on_c, 3, 74, 73
5, 101372, Note_on_c, 3, 74, 0
5, 101376, Note_on_c, 3, 72, 73
5, 101564, Note_on_c, 3, 72, 0
5, 101568, Note_on_c, 3, 76, 73
5, 101756, Note_on_c, 3, 76, 0
5, 101760, Note_on_c, 3, 67, 73
5, 101948, Note_on_c, 3, 67, 0
5, 101952, Note_on_c, 3, 72, 73
5, 102140, Note_on_c, 3, 72, 0
5, 102144, Note_on_c, 3, 64, 73
5, 102332, Note_on_c, 3, 64, 0
5, 102336, Note_on_c, 3, 67, 73
5, 102524, Note_on_c, 3, 67, 0
5, 102528, Note_on_c, 3, 65, 60
5, 102716, Note_on_c, 3, 65, 0
5, 102720, Note_on_c, 3, 62, 60
5, 102908, Note_on_c, 3, 62, 0
5, 102912, Note_on_c, 3, 60, 60
5, 103100, Note_on_c, 3, 60, 0
5, 103104, Note_on_c, 3, 67, 60
5, 103292, Note_on_c, 3, 67, 0
5, 103296, Note_on_c, 3, 64, 60
5, 103484, Note_on_c, 3, 64, 0
5, 103488, Note_on_c, 3, 67, 60
5, 103676, Note_on_c, 3, 67, 0
5, 103680, Note_on_c, 3, 60, 60
5, 103868, Note_on_c, 3, 60, 0
5, 103872, Note_on_c, 3, 67, 60
5, 104060, Note_on_c, 3, 67, 0
5, 104064, Note_on_c, 3, 64, 60
5, 104252, Note_on_c, 3, 64, 0
5, 104256, Note_on_c, 3, 67, 60
5, 104444, Note_on_c, 3, 67, 0
5, 104448, Note_on_c, 3, 60, 60
5, 104636, Note_on_c, 3, 60, 0
5, 104640, Note_on_c, 3, 67, 60
5, 104828, Note_on_c, 3, 67, 0
5, 104832, Note_on_c, 3, 64, 60
5, 105020, Note_on_c, 3, 64, 0
5, 105024, Note_on_c, 3, 67, 60
5, 105212, Note_on_c, 3, 67, 0
5, 105216, Note_on_c, 3, 60, 60
5, 105404, Note_on_c, 3, 60, 0
5, 105408, Note_on_c, 3, 67, 60
5, 105596, Note_on_c, 3, 67, 0
5, 105600, Note_on_c, 3, 64, 60
5, 105788, Note_on_c, 3, 64, 0
5, 105792, Note_on_c, 3, 67, 60
5, 105980, Note_on_c, 3, 67, 0
5, 105984, Note_on_c, 3, 60, 60
5, 106172, Note_on_c, 3, 60, 0
5, 106176, Note_on_c, 3, 69, 60
5, 106364, Note_on_c, 3, 69, 0
5, 106368, Note_on_c, 3, 65, 60
5, 106556, Note_on_c, 3, 65, 0
5, 106560, Note_on_c, 3, 69, 60
5, 106748, Note_on_c, 3, 69, 0
5, 106752, Note_on_c, 3, 60, 60
5, 106940, Note_on_c, 3, 60, 0
5, 106944, Note_on_c, 3, 69, 60
5, 107132, Note_on_c, 3, 69, 0
5, 107136, Note_on_c, 3, 65, 60
5, 107324, Note_on_c, 3, 65, 0
5, 107328, Note_on_c, 3, 69, 60
5, 107516, Note_on_c, 3, 69, 0
5, 107520, Note_on_c, 3, 60, 60
5, 107708, Note_on_c, 3, 60, 0
5, 107712, Note_on_c, 3, 67, 60
5, 107900, Note_on_c, 3, 67, 0
5, 107904, Note_on_c, 3, 64, 60
5, 108092, Note_on_c, 3, 64, 0
5, 108096, Note_on_c, 3, 67, 60
5, 108284, Note_on_c, 3, 67, 0
5, 108288, Note_on_c, 3, 60, 60
5, 108476, Note_on_c, 3, 60, 0
5, 108480, Note_on_c, 3, 67, 60
5, 108668, Note_on_c, 3, 67, 0
5, 108672, Note_on_c, 3, 64, 60
5, 108860, Note_on_c, 3, 64, 0
5, 108864, Note_on_c, 3, 67, 60
5, 109052, Note_on_c, 3, 67, 0
5, 109056, Note_on_c, 3, 60, 60
5, 109244, Note_on_c, 3, 60, 0
5, 109248, Note_on_c, 3, 67, 60
5, 109436, Note_on_c, 3, 67, 0
5, 109440, Note_on_c, 3, 64, 60
5, 109628, Note_on_c, 3, 64, 0
5, 109632, Note_on_c, 3, 67, 60
5, 109820, Note_on_c, 3, 67, 0
5, 109824, Note_on_c, 3, 60, 60
5, 110012, Note_on_c, 3, 60, 0
5, 110016, Note_on_c, 3, 67, 60
5, 110204, Note_on_c, 3, 67, 0
5, 110208, Note_on_c, 3, 64, 60
5, 110396, Note_on_c, 3, 64, 0
5, 110400, Note_on_c, 3, 67, 60
5, 110588, Note_on_c, 3, 67, 0
5, 110592, Note_on_c, 3, 62, 60
5, 110780, Note_on_c, 3, 62, 0
5, 110784, Note_on_c, 3, 67, 60
5, 110972, Note_on_c, 3, 67, 0
5, 110976, Note_on_c, 3, 65, 60
5, 111164, Note_on_c, 3, 65, 0
5, 111168, Note_on_c, 3, 67, 60
5, 111356, Note_on_c, 3, 67, 0
5, 111360, Note_on_c, 3, 62, 60
5, 111548, Note_on_c, 3, 62, 0
5, 111552, Note_on_c, 3, 67, 60
5, 111740, Note_on_c, 3, 67, 0
5, 111744, Note_on_c, 3, 65, 60
5, 111932, Note_on_c, 3, 65, 0
5, 111936, Note_on_c, 3, 67, 60
5, 112124, Note_on_c, 3, 67, 0
5, 112128, Note_on_c, 3, 60, 60
5, 112508, Note_on_c, 3, 60, 0
5, 113664, Note_on_c, 3, 76, 60
5, 113852, Note_on_c, 3, 76, 0
5, 113856, Note_on_c, 3, 77, 60
5, 114044, Note_on_c, 3, 77, 0
5, 114048, Note_on_c, 3, 79, 60
5, 114236, Note_on_c, 3, 79, 0
5, 114240, Note_on_c, 3, 81, 60
5, 114428, Note_on_c, 3, 81, 0
5, 114432, Note_on_c, 3, 83, 60
5, 114620, Note_on_c, 3, 83, 0
5, 114624, Note_on_c, 3, 84, 60
5, 114812, Note_on_c, 3, 84, 0
5, 114816, Note_on_c, 3, 86, 60
5, 115004, Note_on_c, 3, 86, 0
5, 115008, Note_on_c, 3, 88, 60
5, 115196, Note_on_c, 3, 88, 0
5, 115200, Note_on_c, 3, 89, 60
5, 115388, Note_on_c, 3, 89, 0
5, 115392, Note_on_c, 3, 88, 60
5, 115580, Note_on_c, 3, 88, 0
5, 115584, Note_on_c, 3, 86, 60
5, 115772, Note_on_c, 3, 86, 0
5, 115776, Note_on_c, 3, 84, 60
5, 115964, Note_on_c, 3, 84, 0
5, 115968, Note_on_c, 3, 83, 60
5, 116156, Note_on_c, 3, 83, 0
5, 116160, Note_on_c, 3, 81, 60
5, 116348, Note_on_c, 3, 81, 0
5, 116352, Note_on_c, 3, 79, 60
5, 116540, Note_on_c, 3, 79, 0
5, 116544, Note_on_c, 3, 77, 60
5, 116732, Note_on_c, 3, 77, 0
5, 116736, Note_on_c, 3, 76, 60
5, 116924, Note_on_c, 3, 76, 0
5, 116928, Note_on_c, 3, 79, 60
5, 117116, Note_on_c, 3, 79, 0
5, 117120, Note_on_c, 3, 84, 60
5, 117308, Note_on_c, 3, 84, 0
5, 117312, Note_on_c, 3, 79, 60
5, 117500, Note_on_c, 3, 79, 0
5, 117504, Note_on_c, 3, 79, 60
5, 117692, Note_on_c, 3, 79, 0
5, 117696, Note_on_c, 3, 77, 60
5, 117884, Note_on_c, 3, 77, 0
5, 117888, Note_on_c, 3, 76, 60
5, 118076, Note_on_c, 3, 76, 0
5, 118080, Note_on_c, 3, 74, 60
5, 118268, Note_on_c, 3, 74, 0
5, 139776, Note_on_c, 3, 71, 60
5, 139964, Note_on_c, 3, 71, 0
5, 139968, Note_on_c, 3, 67, 60
5, 140156, Note_on_c, 3, 67, 0
5, 140160, Note_on_c, 3, 62, 60
5, 140348, Note_on_c, 3, 62, 0
5, 140352, Note_on_c, 3, 60, 60
5, 140540, Note_on_c, 3, 60, 0
5, 140544, Note_on_c, 3, 59, 60
5, 140732, Note_on_c, 3, 59, 0
5, 140736, Note_on_c, 3, 62, 60
5, 140924, Note_on_c, 3, 62, 0
5, 140928, Note_on_c, 3, 67, 60
5, 141116, Note_on_c, 3, 67, 0
5, 141120, Note_on_c, 3, 69, 60
5, 141308, Note_on_c, 3, 69, 0
5, 141312, Note_on_c, 3, 71, 60
5, 141500, Note_on_c, 3, 71, 0
5, 141504, Note_on_c, 3, 67, 60
5, 141692, Note_on_c, 3, 67, 0
5, 141696, Note_on_c, 3, 62, 60
5, 141884, Note_on_c, 3, 62, 0
5, 141888, Note_on_c, 3, 60, 60
5, 142076, Note_on_c, 3, 60, 0
5, 142080, Note_on_c, 3, 59, 60
5, 142268, Note_on_c, 3, 59, 0
5, 142272, Note_on_c, 3, 62, 60
5, 142460, Note_on_c, 3, 62, 0
5, 142464, Note_on_c, 3, 67, 60
5, 142652, Note_on_c, 3, 67, 0
5, 142656, Note_on_c, 3, 69, 60
5, 142844, Note_on_c, 3, 69, 0
5, 142848, Note_on_c, 3, 71, 61
5, 143036, Note_on_c, 3, 71, 0
5, 143040, Note_on_c, 3, 64, 62
5, 143228, Note_on_c, 3, 64, 0
5, 143232, Note_on_c, 3, 68, 63
5, 143420, Note_on_c, 3, 68, 0
5, 143424, Note_on_c, 3, 71, 64
5, 143612, Note_on_c, 3, 71, 0
5, 143616, Note_on_c, 3, 74, 65
5, 143804, Note_on_c, 3, 74, 0
5, 143808, Note_on_c, 3, 68, 66
5, 143996, Note_on_c, 3, 68, 0
5, 144000, Note_on_c, 3, 71, 67
5, 144188, Note_on_c, 3, 71, 0
5, 144192, Note_on_c, 3, 74, 68
5, 144380, Note_on_c, 3, 74, 0
5, 144384, Note_on_c, 3, 80, 69
5, 144572, Note_on_c, 3, 80, 0
5, 144576, Note_on_c, 3, 71, 70
5, 144764, Note_on_c, 3, 71, 0
5, 144768, Note_on_c, 3, 74, 71
5, 144956, Note_on_c, 3, 74, 0
5, 144960, Note_on_c, 3, 80, 72
5, 145148, Note_on_c, 3, 80, 0
5, 145152, Note_on_c, 3, 83, 73
5, 145340, Note_on_c, 3, 83, 0
5, 145920, Note_on_c, 3, 69, 60
5, 146108, Note_on_c, 3, 69, 0
5, 146112, Note_on_c, 3, 64, 60
5, 146300, Note_on_c, 3, 64, 0
5, 146304, Note_on_c, 3, 60, 60
5, 146492, Note_on_c, 3, 60, 0
5, 146496, Note_on_c, 3, 59, 60
5, 146684, Note_on_c, 3, 59, 0
5, 146688, Note_on_c, 3, 57, 60
5, 146876, Note_on_c, 3, 57, 0
5, 146880, Note_on_c, 3, 59, 60
5, 147068, Note_on_c, 3, 59, 0
5, 147072, Note_on_c, 3, 64, 60
5, 147260, Note_on_c, 3, 64, 0
5, 147264, Note_on_c, 3, 68, 60
5, 147452, Note_on_c, 3, 68, 0
5, 147456, Note_on_c, 3, 69, 60
5, 147644, Note_on_c, 3, 69, 0
5, 147648, Note_on_c, 3, 64, 60
5, 147836, Note_on_c, 3, 64, 0
5, 147840, Note_on_c, 3, 60, 60
5, 148028, Note_on_c, 3, 60, 0
5, 148032, Note_on_c, 3, 59, 60
5, 148220, Note_on_c, 3, 59, 0
5, 148224, Note_on_c, 3, 57, 60
5, 148412, Note_on_c, 3, 57, 0
5, 148416, Note_on_c, 3, 60, 60
5, 148604, Note_on_c, 3, 60, 0
5, 148608, Note_on_c, 3, 64, 60
5, 148796, Note_on_c, 3, 64, 0
5, 148800, Note_on_c, 3, 67, 60
5, 148988, Note_on_c, 3, 67, 0
5, 148992, Note_on_c, 3, 66, 60
5, 149180, Note_on_c, 3, 66, 0
5, 149184, Note_on_c, 3, 62, 60
5, 149372, Note_on_c, 3, 62, 0
5, 149376, Note_on_c, 3, 66, 60
5, 149564, Note_on_c, 3, 66, 0
5, 149568, Note_on_c, 3, 69, 60
5, 149756, Note_on_c, 3, 69, 0
5, 149760, Note_on_c, 3, 72, 60
5, 149948, Note_on_c, 3, 72, 0
5, 149952, Note_on_c, 3, 66, 60
5, 150140, Note_on_c, 3, 66, 0
5, 150144, Note_on_c, 3, 69, 60
5, 150332, Note_on_c, 3, 69, 0
5, 150336, Note_on_c, 3, 72, 60
5, 150524, Note_on_c, 3, 72, 0
5, 150528, Note_on_c, 3, 78, 60
5, 150716, Note_on_c, 3, 78, 0
5, 150720, Note_on_c, 3, 69, 60
5, 150908, Note_on_c, 3, 69, 0
5, 150912, Note_on_c, 3, 72, 60
5, 151100, Note_on_c, 3, 72, 0
5, 151104, Note_on_c, 3, 78, 60
5, 151292, Note_on_c, 3, 78, 0
5, 151296, Note_on_c, 3, 81, 60
5, 151484, Note_on_c, 3, 81, 0
5, 152256, Note_on_c, 3, 71, 82
5, 152444, Note_on_c, 3, 71, 0
5, 152448, Note_on_c, 3, 74, 82
5, 152636, Note_on_c, 3, 74, 0
5, 152640, Note_on_c, 3, 79, 82
5, 152828, Note_on_c, 3, 79, 0
5, 152832, Note_on_c, 3, 78, 82
5, 153020, Note_on_c, 3, 78, 0
5, 153024, Note_on_c, 3, 74, 82
5, 153212, Note_on_c, 3, 74, 0
5, 153216, Note_on_c, 3, 81, 82
5, 153404, Note_on_c, 3, 81, 0
5, 153408, Note_on_c, 3, 78, 82
5, 153596, Note_on_c, 3, 78, 0
5, 153600, Note_on_c, 3, 79, 82
5, 153788, Note_on_c, 3, 79, 0
5, 153792, Note_on_c, 3, 74, 82
5, 153980, Note_on_c, 3, 74, 0
5, 153984, Note_on_c, 3, 83, 82
5, 154172, Note_on_c, 3, 83, 0
5, 154176, Note_on_c, 3, 79, 82
5, 154364, Note_on_c, 3, 79, 0
5, 154368, Note_on_c, 3, 81, 82
5, 154556, Note_on_c, 3, 81, 0
5, 154560, Note_on_c, 3, 74, 82
5, 154748, Note_on_c, 3, 74, 0
5, 154752, Note_on_c, 3, 84, 82
5, 154940, Note_on_c, 3, 84, 0
5, 154944, Note_on_c, 3, 81, 82
5, 155132, Note_on_c, 3, 81, 0
5, 155136, Note_on_c, 3, 83, 82
5, 155324, Note_on_c, 3, 83, 0
5, 155328, Note_on_c, 3, 74, 82
5, 155516, Note_on_c, 3, 74, 0
5, 155520, Note_on_c, 3, 86, 82
5, 155708, Note_on_c, 3, 86, 0
5, 155712, Note_on_c, 3, 83, 82
5, 155900, Note_on_c, 3, 83, 0
5, 155904, Note_on_c, 3, 78, 82
5, 156092, Note_on_c, 3, 78, 0
5, 156096, Note_on_c, 3, 74, 82
5, 156284, Note_on_c, 3, 74, 0
5, 156288, Note_on_c, 3, 81, 82
5, 156476, Note_on_c, 3, 81, 0
5, 156480, Note_on_c, 3, 78, 82
5, 156668, Note_on_c, 3, 78, 0
5, 156672, Note_on_c, 3, 79, 82
5, 156860, Note_on_c, 3, 79, 0
5, 156864, Note_on_c, 3, 74, 82
5, 157052, Note_on_c, 3, 74, 0
5, 157056, Note_on_c, 3, 83, 82
5, 157244, Note_on_c, 3, 83, 0
5, 157248, Note_on_c, 3, 79, 82
5, 157436, Note_on_c, 3, 79, 0
5, 157440, Note_on_c, 3, 81, 82
5, 157628, Note_on_c, 3, 81, 0
5, 157632, Note_on_c, 3, 74, 82
5, 157820, Note_on_c, 3, 74, 0
5, 157824, Note_on_c, 3, 84, 82
5, 158012, Note_on_c, 3, 84, 0
5, 158016, Note_on_c, 3, 81, 82
5, 158204, Note_on_c, 3, 81, 0
5, 158208, Note_on_c, 3, 83, 92
5, 158396, Note_on_c, 3, 83, 0
5, 158400, Note_on_c, 3, 74, 92
5, 158588, Note_on_c, 3, 74, 0
5, 158592, Note_on_c, 3, 86, 92
5, 158780, Note_on_c, 3, 86, 0
5, 158784, Note_on_c, 3, 83, 92
5, 158972, Note_on_c, 3, 83, 0
5, 158976, Note_on_c, 3, 76, 92
5, 158976, Note_on_c, 3, 60, 92
5, 159164, Note_on_c, 3, 60, 0
5, 159164, Note_on_c, 3, 76, 0
5, 159168, Note_on_c, 3, 80, 92
5, 159168, Note_on_c, 3, 64, 92
5, 159356, Note_on_c, 3, 64, 0
5, 159356, Note_on_c, 3, 80, 0
5, 159360, Note_on_c, 3, 81, 92
5, 159360, Note_on_c, 3, 66, 92
5, 159548, Note_on_c, 3, 66, 0
5, 159548, Note_on_c, 3, 81, 0
5, 159552, Note_on_c, 3, 84, 92
5, 159552, Note_on_c, 3, 69, 92
5, 159740, Note_on_c, 3, 69, 0
5, 159740, Note_on_c, 3, 84, 0
5, 159744, Note_on_c, 3, 74, 92
5, 159744, Note_on_c, 3, 57, 92
5, 159932, Note_on_c, 3, 57, 0
5, 159932, Note_on_c, 3, 74, 0
5, 159936, Note_on_c, 3, 78, 92
5, 159936, Note_on_c, 3, 62, 92
5, 160124, Note_on_c, 3, 62, 0
5, 160124, Note_on_c, 3, 78, 0
5, 160128, Note_on_c, 3, 79, 92
5, 160128, Note_on_c, 3, 64, 92
5, 160304, Note_on_c, 3, 67, 92
5, 160316, Note_on_c, 3, 64, 0
5, 160316, Note_on_c, 3, 79, 0
5, 160320, Note_on_c, 3, 83, 92
5, 160492, Note_on_c, 3, 67, 0
5, 160508, Note_on_c, 3, 83, 0
5, 160512, Note_on_c, 3, 72, 92
5, 160512, Note_on_c, 3, 57, 92
5, 160700, Note_on_c, 3, 57, 0
5, 160700, Note_on_c, 3, 72, 0
5, 160704, Note_on_c, 3, 76, 92
5, 160704, Note_on_c, 3, 60, 92
5, 160892, Note_on_c, 3, 60, 0
5, 160892, Note_on_c, 3, 76, 0
5, 160896, Note_on_c, 3, 78, 92
5, 160896, Note_on_c, 3, 62, 92
5, 161084, Note_on_c, 3, 62, 0
5, 161084, Note_on_c, 3, 78, 0
5, 161088, Note_on_c, 3, 81, 92
5, 161088, Note_on_c, 3, 66, 92
5, 161276, Note_on_c, 3, 66, 0
5, 161276, Note_on_c, 3, 81, 0
5, 161280, Note_on_c, 3, 71, 92
5, 161468, Note_on_c, 3, 71, 0
5, 161472, Note_on_c, 3, 75, 92
5, 161660, Note_on_c, 3, 75, 0
5, 161664, Note_on_c, 3, 76, 92
5, 161852, Note_on_c, 3, 76, 0
5, 161856, Note_on_c, 3, 79, 92
5, 162044, Note_on_c, 3, 79, 0
5, 162048, Note_on_c, 3, 69, 92
5, 162236, Note_on_c, 3, 69, 0
5, 162240, Note_on_c, 3, 73, 92
5, 162428, Note_on_c, 3, 73, 0
5, 162432, Note_on_c, 3, 74, 92
5, 162620, Note_on_c, 3, 74, 0
5, 162624, Note_on_c, 3, 78, 92
5, 162812, Note_on_c, 3, 78, 0
5, 162816, Note_on_c, 3, 67, 92
5, 163004, Note_on_c, 3, 67, 0
5, 163008, Note_on_c, 3, 69, 92
5, 163196, Note_on_c, 3, 69, 0
5, 163200, Note_on_c, 3, 73, 92
5, 163388, Note_on_c, 3, 73, 0
5, 163392, Note_on_c, 3, 76, 92
5, 163580, Note_on_c, 3, 76, 0
5, 163584, Note_on_c, 3, 79, 92
5, 163772, Note_on_c, 3, 79, 0
5, 163776, Note_on_c, 3, 76, 92
5, 163964, Note_on_c, 3, 76, 0
5, 163968, Note_on_c, 3, 73, 92
5, 164156, Note_on_c, 3, 73, 0
5, 164160, Note_on_c, 3, 67, 92
5, 164348, Note_on_c, 3, 67, 0
5, 164352, Note_on_c, 3, 66, 92
5, 164540, Note_on_c, 3, 66, 0
5, 164544, Note_on_c, 3, 69, 92
5, 164732, Note_on_c, 3, 69, 0
5, 164736, Note_on_c, 3, 74, 92
5, 164924, Note_on_c, 3, 74, 0
5, 164928, Note_on_c, 3, 78, 92
5, 165116, Note_on_c, 3, 78, 0
5, 165120, Note_on_c, 3, 81, 92
5, 165308, Note_on_c, 3, 81, 0
5, 165312, Note_on_c, 3, 78, 92
5, 165500, Note_on_c, 3, 78, 0
5, 165504, Note_on_c, 3, 74, 92
5, 165692, Note_on_c, 3, 74, 0
5, 165696, Note_on_c, 3, 69, 92
5, 165884, Note_on_c, 3, 69, 0
5, 165888, Note_on_c, 3, 67, 92
5, 166076, Note_on_c, 3, 67, 0
5, 166080, Note_on_c, 3, 69, 92
5, 166268, Note_on_c, 3, 69, 0
5, 166272, Note_on_c, 3, 73, 92
5, 166460, Note_on_c, 3, 73, 0
5, 166464, Note_on_c, 3, 76, 92
5, 166652, Note_on_c, 3, 76, 0
5, 166656, Note_on_c, 3, 79, 92
5, 166844, Note_on_c, 3, 79, 0
5, 166848, Note_on_c, 3, 76, 92
5, 167036, Note_on_c, 3, 76, 0
5, 167040, Note_on_c, 3, 73, 92
5, 167228, Note_on_c, 3, 73, 0
5, 167232, Note_on_c, 3, 67, 92
5, 167420, Note_on_c, 3, 67, 0
5, 167424, Note_on_c, 3, 66, 92
5, 167612, Note_on_c, 3, 66, 0
5, 167616, Note_on_c, 3, 62, 92
5, 167804, Note_on_c, 3, 62, 0
5, 167808, Note_on_c, 3, 66, 92
5, 167996, Note_on_c, 3, 66, 0
5, 168000, Note_on_c, 3, 69, 92
5, 168188, Note_on_c, 3, 69, 0
5, 168192, Note_on_c, 3, 74, 92
5, 168380, Note_on_c, 3, 74, 0
5, 168384, Note_on_c, 3, 73, 92
5, 168572, Note_on_c, 3, 73, 0
5, 168576, Note_on_c, 3, 74, 92
5, 168764, Note_on_c, 3, 74, 0
5, 168768, Note_on_c, 3, 73, 92
5, 168956, Note_on_c, 3, 73, 0
5, 168960, Note_on_c, 3, 74, 92
5, 169148, Note_on_c, 3, 74, 0
5, 169152, Note_on_c, 3, 74, 92
5, 169340, Note_on_c, 3, 74, 0
5, 169344, Note_on_c, 3, 78, 92
5, 169532, Note_on_c, 3, 78, 0
5, 169536, Note_on_c, 3, 81, 92
5, 169724, Note_on_c, 3, 81, 0
5, 169728, Note_on_c, 3, 86, 92
5, 169916, Note_on_c, 3, 86, 0
5, 169920, Note_on_c, 3, 85, 92
5, 170108, Note_on_c, 3, 85, 0
5, 170112, Note_on_c, 3, 86, 92
5, 170300, Note_on_c, 3, 86, 0
5, 170304, Note_on_c, 3, 85, 92
5, 170492, Note_on_c, 3, 85, 0
5, 170496, Note_on_c, 3, 86, 92
5, 170624, Note_on_c, 3, 86, 0
5, 187392, Note_on_c, 3, 69, 82
5, 187580, Note_on_c, 3, 69, 0
5, 187584, Note_on_c, 3, 68, 82
5, 187772, Note_on_c, 3, 68, 0
5, 187776, Note_on_c, 3, 69, 82
5, 187964, Note_on_c, 3, 69, 0
5, 187968, Note_on_c, 3, 72, 82
5, 188156, Note_on_c, 3, 72, 0
5, 188160, Note_on_c, 3, 76, 82
5, 188348, Note_on_c, 3, 76, 0
5, 188352, Note_on_c, 3, 76, 82
5, 188540, Note_on_c, 3, 76, 0
5, 188544, Note_on_c, 3, 72, 82
5, 188732, Note_on_c, 3, 72, 0
5, 188736, Note_on_c, 3, 69, 82
5, 188924, Note_on_c, 3, 69, 0
5, 188928, Note_on_c, 3, 67, 82
5, 189116, Note_on_c, 3, 67, 0
5, 189120, Note_on_c, 3, 66, 82
5, 189308, Note_on_c, 3, 66, 0
5, 189312, Note_on_c, 3, 67, 82
5, 189500, Note_on_c, 3, 67, 0
5, 189504, Note_on_c, 3, 71, 82
5, 189692, Note_on_c, 3, 71, 0
5, 189696, Note_on_c, 3, 74, 82
5, 189884, Note_on_c, 3, 74, 0
5, 189888, Note_on_c, 3, 74, 82
5, 190076, Note_on_c, 3, 74, 0
5, 190080, Note_on_c, 3, 71, 82
5, 190268, Note_on_c, 3, 71, 0
5, 190272, Note_on_c, 3, 67, 82
5, 190460, Note_on_c, 3, 67, 0
5, 190464, Note_on_c, 3, 72, 82
5, 190652, Note_on_c, 3, 72, 0
5, 190656, Note_on_c, 3, 69, 82
5, 190844, Note_on_c, 3, 69, 0
5, 190848, Note_on_c, 3, 72, 82
5, 191036, Note_on_c, 3, 72, 0
5, 191040, Note_on_c, 3, 69, 82
5, 191228, Note_on_c, 3, 69, 0
5, 191232, Note_on_c, 3, 66, 82
5, 191420, Note_on_c, 3, 66, 0
5, 191424, Note_on_c, 3, 66, 82
5, 191612, Note_on_c, 3, 66, 0
5, 191616, Note_on_c, 3, 67, 82
5, 191804, Note_on_c, 3, 67, 0
5, 191808, Note_on_c, 3, 69, 82
5, 191996, Note_on_c, 3, 69, 0
5, 192000, Note_on_c, 3, 71, 82
5, 192368, Note_on_c, 3, 71, 82
5, 192380, Note_on_c, 3, 71, 0
5, 192384, Note_on_c, 3, 69, 82
5, 192384, Note_on_c, 3, 65, 82
5, 192764, Note_on_c, 3, 65, 0
5, 192764, Note_on_c, 3, 69, 0
5, 192768, Note_on_c, 3, 67, 82
5, 193132, Note_on_c, 3, 71, 0
5, 193148, Note_on_c, 3, 67, 0
5, 193152, Note_on_c, 3, 69, 82
5, 193152, Note_on_c, 3, 65, 82
5, 193152, Note_on_c, 3, 71, 82
5, 193532, Note_on_c, 3, 65, 0
5, 193532, Note_on_c, 3, 69, 0
5, 193536, Note_on_c, 3, 67, 82
5, 193916, Note_on_c, 3, 67, 0
5, 193916, Note_on_c, 3, 71, 0
5, 194304, Note_on_c, 3, 69, 82
5, 194304, Note_on_c, 3, 67, 82
5, 194684, Note_on_c, 3, 67, 0
5, 194684, Note_on_c, 3, 69, 0
5, 195072, Note_on_c, 3, 69, 60
5, 195072, Note_on_c, 3, 67, 60
5, 195072, Note_on_c, 3, 62, 60
5, 195260, Note_on_c, 3, 69, 0
5, 195264, Note_on_c, 3, 72, 60
5, 195452, Note_on_c, 3, 72, 0
5, 195452, Note_on_c, 3, 62, 0
5, 195452, Note_on_c, 3, 67, 0
5, 195456, Note_on_c, 3, 71, 60
5, 195456, Note_on_c, 3, 67, 60
5, 195456, Note_on_c, 3, 62, 60
5, 195644, Note_on_c, 3, 71, 0
5, 195648, Note_on_c, 3, 72, 60
5, 195836, Note_on_c, 3, 72, 0
5, 195836, Note_on_c, 3, 62, 0
5, 195836, Note_on_c, 3, 67, 0
5, 195840, Note_on_c, 3, 74, 60
5, 195840, Note_on_c, 3, 66, 60
5, 195840, Note_on_c, 3, 62, 60
5, 196028, Note_on_c, 3, 74, 0
5, 196032, Note_on_c, 3, 72, 60
5, 196220, Note_on_c, 3, 72, 0
5, 196220, Note_on_c, 3, 62, 0
5, 196220, Note_on_c, 3, 66, 0
5, 196224, Note_on_c, 3, 71, 60
5, 196224, Note_on_c, 3, 66, 60
5, 196224, Note_on_c, 3, 62, 60
5, 196412, Note_on_c, 3, 71, 0
5, 196416, Note_on_c, 3, 72, 60
5, 196604, Note_on_c, 3, 72, 0
5, 196604, Note_on_c, 3, 62, 0
5, 196604, Note_on_c, 3, 66, 0
5, 198144, Note_on_c, 3, 59, 66
5, 198524, Note_on_c, 3, 59, 0
5, 198528, Note_on_c, 3, 67, 66
5, 198908, Note_on_c, 3, 67, 0
5, 198912, Note_on_c, 3, 67, 66
5, 199292, Note_on_c, 3, 67, 0
5, 199296, Note_on_c, 3, 67, 66
5, 199676, Note_on_c, 3, 67, 0
5, 199680, Note_on_c, 3, 69, 66
5, 199680, Note_on_c, 3, 66, 66
5, 200252, Note_on_c, 3, 66, 0
5, 200252, Note_on_c, 3, 69, 0
5, 200256, Note_on_c, 3, 71, 66
5, 200444, Note_on_c, 3, 71, 0
5, 200448, Note_on_c, 3, 67, 66
5, 200828, Note_on_c, 3, 67, 0
5, 200832, Note_on_c, 3, 67, 66
5, 201212, Note_on_c, 3, 67, 0
5, 201216, Note_on_c, 3, 66, 66
5, 201216, Note_on_c, 3, 69, 66
5, 201788, Note_on_c, 3, 69, 0
5, 201788, Note_on_c, 3, 66, 0
5, 201792, Note_on_c, 3, 71, 66
5, 201980, Note_on_c, 3, 71, 0
5, 201984, Note_on_c, 3, 67, 66
5, 202364, Note_on_c, 3, 67, 0
5, 202368, Note_on_c, 3, 67, 66
5, 202748, Note_on_c, 3, 67, 0
5, 202752, Note_on_c, 3, 71, 66
5, 202752, Note_on_c, 3, 67, 66
5, 203516, Note_on_c, 3, 67, 0
5, 203516, Note_on_c, 3, 71, 0
5, 203520, Note_on_c, 3, 69, 66
5, 203520, Note_on_c, 3, 66, 66
5, 203900, Note_on_c, 3, 66, 0
5, 203900, Note_on_c, 3, 69, 0
5, 204672, Note_on_c, 3, 66, 66
5, 204672, Note_on_c, 3, 69, 66
5, 205052, Note_on_c, 3, 69, 0
5, 205052, Note_on_c, 3, 66, 0
5, 205056, Note_on_c, 3, 66, 66
5, 205056, Note_on_c, 3, 69, 66
5, 205436, Note_on_c, 3, 69, 0
5, 205436, Note_on_c, 3, 66, 0
5, 205440, Note_on_c, 3, 66, 66
5, 205440, Note_on_c, 3, 69, 66
5, 205820, Note_on_c, 3, 69, 0
5, 205820, Note_on_c, 3, 66, 0
5, 205824, Note_on_c, 3, 71, 66
5, 205824, Note_on_c, 3, 67, 66
5, 206396, Note_on_c, 3, 67, 0
5, 206396, Note_on_c, 3, 71, 0
5, 206400, Note_on_c, 3, 72, 66
5, 206400, Note_on_c, 3, 69, 66
5, 206588, Note_on_c, 3, 69, 0
5, 206588, Note_on_c, 3, 72, 0
5, 206592, Note_on_c, 3, 69, 66
5, 206592, Note_on_c, 3, 66, 66
5, 206972, Note_on_c, 3, 66, 0
5, 206972, Note_on_c, 3, 69, 0
5, 206976, Note_on_c, 3, 69, 66
5, 206976, Note_on_c, 3, 66, 66
5, 207356, Note_on_c, 3, 66, 0
5, 207356, Note_on_c, 3, 69, 0
5, 207360, Note_on_c, 3, 71, 66
5, 207360, Note_on_c, 3, 67, 66
5, 207932, Note_on_c, 3, 67, 0
5, 207932, Note_on_c, 3, 71, 0
5, 207936, Note_on_c, 3, 72, 66
5, 207936, Note_on_c, 3, 69, 66
5, 208124, Note_on_c, 3, 69, 0
5, 208124, Note_on_c, 3, 72, 0
5, 208128, Note_on_c, 3, 69, 66
5, 208128, Note_on_c, 3, 66, 66
5, 208508, Note_on_c, 3, 66, 0
5, 208508, Note_on_c, 3, 69, 0
5, 208512, Note_on_c, 3, 74, 66
5, 208512, Note_on_c, 3, 69, 66
5, 208892, Note_on_c, 3, 69, 0
5, 208892, Note_on_c, 3, 74, 0
5, 208896, Note_on_c, 3, 72, 66
5, 208896, Note_on_c, 3, 69, 66
5, 209660, Note_on_c, 3, 69, 0
5, 209660, Note_on_c, 3, 72, 0
5, 209664, Note_on_c, 3, 71, 66
5, 209664, Note_on_c, 3, 67, 66
5, 210044, Note_on_c, 3, 67, 0
5, 210044, Note_on_c, 3, 71, 0
5, 210624, Note_on_c, 3, 74, 66
5, 210812, Note_on_c, 3, 74, 0
5, 210816, Note_on_c, 3, 73, 66
5, 211004, Note_on_c, 3, 73, 0
5, 211008, Note_on_c, 3, 74, 66
5, 211196, Note_on_c, 3, 74, 0
5, 211200, Note_on_c, 3, 72, 66
5, 211388, Note_on_c, 3, 72, 0
5, 211392, Note_on_c, 3, 71, 66
5, 211580, Note_on_c, 3, 71, 0
5, 211584, Note_on_c, 3, 69, 66
5, 211772, Note_on_c, 3, 69, 0
5, 211776, Note_on_c, 3, 67, 66
5, 211964, Note_on_c, 3, 67, 0
5, 211968, Note_on_c, 3, 76, 90
5, 212348, Note_on_c, 3, 76, 0
5, 212352, Note_on_c, 3, 76, 90
5, 212540, Note_on_c, 3, 76, 0
5, 212544, Note_on_c, 3, 72, 90
5, 212732, Note_on_c, 3, 72, 0
5, 212736, Note_on_c, 3, 69, 90
5, 213116, Note_on_c, 3, 69, 0
5, 213504, Note_on_c, 3, 74, 90
5, 213884, Note_on_c, 3, 74, 0
5, 213888, Note_on_c, 3, 74, 90
5, 214076, Note_on_c, 3, 74, 0
5, 214080, Note_on_c, 3, 71, 90
5, 214268, Note_on_c, 3, 71, 0
5, 214272, Note_on_c, 3, 67, 90
5, 214652, Note_on_c, 3, 67, 0
5, 215040, Note_on_c, 3, 66, 90
5, 215420, Note_on_c, 3, 66, 0
5, 215424, Note_on_c, 3, 66, 90
5, 215612, Note_on_c, 3, 66, 0
5, 215616, Note_on_c, 3, 69, 90
5, 215804, Note_on_c, 3, 69, 0
5, 215808, Note_on_c, 3, 72, 90
5, 216188, Note_on_c, 3, 72, 0
5, 216768, Note_on_c, 3, 71, 82
5, 216956, Note_on_c, 3, 71, 0
5, 216960, Note_on_c, 3, 72, 82
5, 217148, Note_on_c, 3, 72, 0
5, 217152, Note_on_c, 3, 74, 82
5, 217340, Note_on_c, 3, 74, 0
5, 217344, Note_on_c, 3, 76, 82
5, 217532, Note_on_c, 3, 76, 0
5, 217536, Note_on_c, 3, 78, 82
5, 217724, Note_on_c, 3, 78, 0
5, 217728, Note_on_c, 3, 79, 82
5, 217728, Note_on_c, 3, 64, 82
5, 217916, Note_on_c, 3, 64, 0
5, 217916, Note_on_c, 3, 79, 0
5, 217920, Note_on_c, 3, 81, 82
5, 217920, Note_on_c, 3, 66, 82
5, 218108, Note_on_c, 3, 66, 0
5, 218108, Note_on_c, 3, 81, 0
5, 218112, Note_on_c, 3, 83, 82
5, 218112, Note_on_c, 3, 67, 82
5, 218492, Note_on_c, 3, 67, 0
5, 218492, Note_on_c, 3, 83, 0
5, 218496, Note_on_c, 3, 84, 82
5, 218496, Note_on_c, 3, 69, 82
5, 218876, Note_on_c, 3, 69, 0
5, 218876, Note_on_c, 3, 84, 0
5, 218880, Note_on_c, 3, 86, 82
5, 218880, Note_on_c, 3, 71, 82
5, 219260, Note_on_c, 3, 71, 0
5, 219260, Note_on_c, 3, 86, 0
5, 219264, Note_on_c, 3, 72, 82
5, 219280, Note_on_c, 3, 88, 82
5, 219644, Note_on_c, 3, 72, 0
5, 219660, Note_on_c, 3, 88, 0
5, 221184, Note_on_c, 3, 79, 84
5, 221184, Note_on_c, 3, 67, 84
5, 221564, Note_on_c, 3, 67, 0
5, 221564, Note_on_c, 3, 79, 0
5, 221568, Note_on_c, 3, 67, 92
5, 221756, Note_on_c, 3, 67, 0
5, 221760, Note_on_c, 3, 67, 92
5, 221948, Note_on_c, 3, 67, 0
5, 221952, Note_on_c, 3, 66, 92
5, 222140, Note_on_c, 3, 66, 0
5, 222144, Note_on_c, 3, 69, 92
5, 222332, Note_on_c, 3, 69, 0
5, 222336, Note_on_c, 3, 72, 92
5, 222524, Note_on_c, 3, 72, 0
5, 222528, Note_on_c, 3, 72, 92
5, 222716, Note_on_c, 3, 72, 0
5, 222720, Note_on_c, 3, 71, 92
5, 222908, Note_on_c, 3, 71, 0
5, 222912, Note_on_c, 3, 74, 92
5, 223100, Note_on_c, 3, 74, 0
5, 223104, Note_on_c, 3, 79, 92
5, 223292, Note_on_c, 3, 79, 0
5, 223296, Note_on_c, 3, 79, 92
5, 223484, Note_on_c, 3, 79, 0
5, 223488, Note_on_c, 3, 78, 92
5, 223488, Note_on_c, 3, 66, 92
5, 223676, Note_on_c, 3, 66, 0
5, 223676, Note_on_c, 3, 78, 0
5, 223680, Note_on_c, 3, 81, 92
5, 223680, Note_on_c, 3, 69, 92
5, 223868, Note_on_c, 3, 69, 0
5, 223868, Note_on_c, 3, 81, 0
5, 223872, Note_on_c, 3, 84, 92
5, 223872, Note_on_c, 3, 72, 92
5, 224060, Note_on_c, 3, 72, 0
5, 224060, Note_on_c, 3, 84, 0
5, 224064, Note_on_c, 3, 84, 92
5, 224064, Note_on_c, 3, 72, 92
5, 224252, Note_on_c, 3, 72, 0
5, 224252, Note_on_c, 3, 84, 0
5, 224256, Note_on_c, 3, 83, 92
5, 224256, Note_on_c, 3, 71, 92
5, 224444, Note_on_c, 3, 71, 0
5, 224496, Note_on_c, 3, 74, 92
5, 224540, Note_on_c, 3, 74, 0
5, 224544, Note_on_c, 3, 79, 92
5, 224588, Note_on_c, 3, 79, 0
5, 224592, Note_on_c, 3, 83, 92
5, 224636, Note_on_c, 3, 83, 0
5, 224636, Note_on_c, 3, 83, 0
5, 224640, Note_on_c, 3, 86, 92
5, 224640, Note_on_c, 3, 62, 92
5, 224828, Note_on_c, 3, 62, 0
5, 224832, Note_on_c, 3, 62, 92
5, 225020, Note_on_c, 3, 62, 0
5, 225020, Note_on_c, 3, 86, 0
5, 225024, Note_on_c, 3, 69, 92
5, 225264, Note_on_c, 3, 74, 92
5, 225308, Note_on_c, 3, 74, 0
5, 225312, Note_on_c, 3, 78, 92
5, 225356, Note_on_c, 3, 78, 0
5, 225360, Note_on_c, 3, 81, 92
5, 225404, Note_on_c, 3, 81, 0
5, 225404, Note_on_c, 3, 69, 0
5, 225408, Note_on_c, 3, 86, 92
5, 225408, Note_on_c, 3, 62, 92
5, 225596, Note_on_c, 3, 62, 0
5, 225600, Note_on_c, 3, 62, 92
5, 225788, Note_on_c, 3, 62, 0
5, 225788, Note_on_c, 3, 86, 0
5, 225792, Note_on_c, 3, 71, 92
5, 226032, Note_on_c, 3, 74, 92
5, 226076, Note_on_c, 3, 74, 0
5, 226080, Note_on_c, 3, 79, 92
5, 226124, Note_on_c, 3, 79, 0
5, 226128, Note_on_c, 3, 83, 92
5, 226172, Note_on_c, 3, 83, 0
5, 226172, Note_on_c, 3, 71, 0
5, 226176, Note_on_c, 3, 86, 92
5, 226176, Note_on_c, 3, 62, 92
5, 226364, Note_on_c, 3, 62, 0
5, 226368, Note_on_c, 3, 62, 92
5, 226556, Note_on_c, 3, 62, 0
5, 226556, Note_on_c, 3, 86, 0
5, 226560, Note_on_c, 3, 66, 92
5, 226800, Note_on_c, 3, 74, 92
5, 226844, Note_on_c, 3, 74, 0
5, 226848, Note_on_c, 3, 81, 92
5, 226892, Note_on_c, 3, 81, 0
5, 226896, Note_on_c, 3, 84, 92
5, 226940, Note_on_c, 3, 84, 0
5, 226940, Note_on_c, 3, 66, 0
5, 226944, Note_on_c, 3, 86, 92
5, 226944, Note_on_c, 3, 62, 92
5, 227132, Note_on_c, 3, 62, 0
5, 227136, Note_on_c, 3, 62, 92
5, 227324, Note_on_c, 3, 62, 0
5, 227324, Note_on_c, 3, 86, 0
5, 227328, Note_on_c, 3, 67, 92
5, 227568, Note_on_c, 3, 74, 92
5, 227612, Note_on_c, 3, 74, 0
5, 227616, Note_on_c, 3, 79, 92
5, 227660, Note_on_c, 3, 79, 0
5, 227664, Note_on_c, 3, 83, 92
5, 227708, Note_on_c, 3, 83, 0
5, 227708, Note_on_c, 3, 67, 0
5, 227712, Note_on_c, 3, 86, 92
5, 227712, Note_on_c, 3, 62, 92
5, 227900, Note_on_c, 3, 62, 0
5, 227904, Note_on_c, 3, 62, 92
5, 228092, Note_on_c, 3, 62, 0
5, 228092, Note_on_c, 3, 86, 0
5, 228096, Note_on_c, 3, 69, 92
5, 228336, Note_on_c, 3, 74, 92
5, 228380, Note_on_c, 3, 74, 0
5, 228384, Note_on_c, 3, 78, 92
5, 228428, Note_on_c, 3, 78, 0
5, 228432, Note_on_c, 3, 81, 92
5, 228476, Note_on_c, 3, 81, 0
5, 228476, Note_on_c, 3, 69, 0
5, 228480, Note_on_c, 3, 86, 92
5, 228480, Note_on_c, 3, 62, 92
5, 228668, Note_on_c, 3, 62, 0
5, 228672, Note_on_c, 3, 62, 92
5, 228860, Note_on_c, 3, 62, 0
5, 228860, Note_on_c, 3, 86, 0
5, 228864, Note_on_c, 3, 71, 92
5, 229104, Note_on_c, 3, 74, 92
5, 229148, Note_on_c, 3, 74, 0
5, 229152, Note_on_c, 3, 79, 92
5, 229196, Note_on_c, 3, 79, 0
5, 229200, Note_on_c, 3, 83, 92
5, 229244, Note_on_c, 3, 83, 0
5, 229244, Note_on_c, 3, 71, 0
5, 229248, Note_on_c, 3, 86, 92
5, 229248, Note_on_c, 3, 62, 92
5, 229436, Note_on_c, 3, 62, 0
5, 229440, Note_on_c, 3, 62, 92
5, 229628, Note_on_c, 3, 62, 0
5, 229628, Note_on_c, 3, 86, 0
5, 229632, Note_on_c, 3, 66, 92
5, 229872, Note_on_c, 3, 74, 92
5, 229916, Note_on_c, 3, 74, 0
5, 229920, Note_on_c, 3, 81, 92
5, 229964, Note_on_c, 3, 81, 0
5, 229968, Note_on_c, 3, 84, 92
5, 230012, Note_on_c, 3, 84, 0
5, 230012, Note_on_c, 3, 66, 0
5, 230016, Note_on_c, 3, 86, 92
5, 230016, Note_on_c, 3, 62, 92
5, 230204, Note_on_c, 3, 62, 0
5, 230208, Note_on_c, 3, 62, 92
5, 230396, Note_on_c, 3, 62, 0
5, 230396, Note_on_c, 3, 86, 0
5, 230400, Note_on_c, 3, 67, 92
5, 230528, Note_on_c, 3, 83, 60
5, 230652, Note_on_c, 3, 83, 0
5, 230656, Note_on_c, 3, 84, 60
5, 230780, Note_on_c, 3, 84, 0
5, 230780, Note_on_c, 3, 67, 0
5, 230784, Note_on_c, 3, 86, 60
5, 230908, Note_on_c, 3, 86, 0
5, 230912, Note_on_c, 3, 84, 60
5, 231036, Note_on_c, 3, 84, 0
5, 231040, Note_on_c, 3, 83, 60
5, 231164, Note_on_c, 3, 83, 0
5, 231168, Note_on_c, 3, 64, 60
5, 231296, Note_on_c, 3, 79, 60
5, 231420, Note_on_c, 3, 79, 0
5, 231424, Note_on_c, 3, 81, 60
5, 231548, Note_on_c, 3, 81, 0
5, 231548, Note_on_c, 3, 64, 0
5, 231552, Note_on_c, 3, 83, 60
5, 231676, Note_on_c, 3, 83, 0
5, 231680, Note_on_c, 3, 81, 60
5, 231804, Note_on_c, 3, 81, 0
5, 231808, Note_on_c, 3, 79, 60
5, 231932, Note_on_c, 3, 79, 0
5, 232064, Note_on_c, 3, 76, 60
5, 232188, Note_on_c, 3, 76, 0
5, 232192, Note_on_c, 3, 78, 60
5, 232316, Note_on_c, 3, 78, 0
5, 232320, Note_on_c, 3, 79, 60
5, 232444, Note_on_c, 3, 79, 0
5, 232448, Note_on_c, 3, 78, 60
5, 232572, Note_on_c, 3, 78, 0
5, 232576, Note_on_c, 3, 76, 60
5, 232700, Note_on_c, 3, 76, 0
5, 232832, Note_on_c, 3, 72, 60
5, 232956, Note_on_c, 3, 72, 0
5, 232960, Note_on_c, 3, 74, 60
5, 233084, Note_on_c, 3, 74, 0
5, 233088, Note_on_c, 3, 76, 60
5, 233212, Note_on_c, 3, 76, 0
5, 233216, Note_on_c, 3, 74, 60
5, 233340, Note_on_c, 3, 74, 0
5, 233344, Note_on_c, 3, 72, 60
5, 233468, Note_on_c, 3, 72, 0
5, 233472, Note_on_c, 3, 84, 82
5, 233472, Note_on_c, 3, 81, 82
5, 233472, Note_on_c, 3, 74, 82
5, 234236, Note_on_c, 3, 74, 0
5, 234236, Note_on_c, 3, 81, 0
5, 234236, Note_on_c, 3, 84, 0
5, 234240, Note_on_c, 3, 83, 82
5, 234240, Note_on_c, 3, 79, 82
5, 234240, Note_on_c, 3, 74, 82
5, 234620, Note_on_c, 3, 74, 0
5, 234620, Note_on_c, 3, 79, 0
5, 234620, Note_on_c, 3, 83, 0
5, 234624, Note_on_c, 3, 74, 82
5, 234624, Note_on_c, 3, 71, 82
5, 234624, Note_on_c, 3, 79, 82
5, 235004, Note_on_c, 3, 79, 0
5, 235004, Note_on_c, 3, 71, 0
5, 235004, Note_on_c, 3, 74, 0
5, 235008, Note_on_c, 3, 78, 82
5, 235008, Note_on_c, 3, 74, 82
5, 235008, Note_on_c, 3, 69, 82
5, 235388, Note_on_c, 3, 69, 0
5, 235388, Note_on_c, 3, 74, 0
5, 235388, Note_on_c, 3, 78, 0
5, 235392, Note_on_c, 3, 79, 82
5, 235392, Note_on_c, 3, 74, 82
5, 235392, Note_on_c, 3, 71, 82
5, 235772, Note_on_c, 3, 71, 0
5, 235772, Note_on_c, 3, 74, 0
5, 235772, Note_on_c, 3, 79, 0
5, 235776, Note_on_c, 3, 81, 82
5, 235776, Note_on_c, 3, 76, 82
5, 235776, Note_on_c, 3, 69, 82
5, 236144, Note_on_c, 3, 72, 82
5, 236156, Note_on_c, 3, 69, 0
5, 236156, Note_on_c, 3, 81, 0
5, 236156, Note_on_c, 3, 76, 0
5, 236160, Note_on_c, 3, 78, 82
5, 236160, Note_on_c, 3, 69, 82
5, 236524, Note_on_c, 3, 72, 0
5, 236540, Note_on_c, 3, 69, 0
5, 236540, Note_on_c, 3, 78, 0
5, 236672, Note_on_c, 3, 83, 60
5, 236796, Note_on_c, 3, 83, 0
5, 236800, Note_on_c, 3, 84, 60
5, 236924, Note_on_c, 3, 84, 0
5, 236928, Note_on_c, 3, 86, 60
5, 237052, Note_on_c, 3, 86, 0
5, 237056, Note_on_c, 3, 84, 60
5, 237180, Note_on_c, 3, 84, 0
5, 237184, Note_on_c, 3, 83, 60
5, 237308, Note_on_c, 3, 83, 0
5, 237440, Note_on_c, 3, 79, 60
5, 237564, Note_on_c, 3, 79, 0
5, 237568, Note_on_c, 3, 81, 60
5, 237692, Note_on_c, 3, 81, 0
5, 237696, Note_on_c, 3, 83, 60
5, 237820, Note_on_c, 3, 83, 0
5, 237824, Note_on_c, 3, 81, 60
5, 237948, Note_on_c, 3, 81, 0
5, 237952, Note_on_c, 3, 79, 60
5, 238076, Note_on_c, 3, 79, 0
5, 238208, Note_on_c, 3, 76, 60
5, 238332, Note_on_c, 3, 76, 0
5, 238336, Note_on_c, 3, 78, 60
5, 238460, Note_on_c, 3, 78, 0
5, 238464, Note_on_c, 3, 79, 60
5, 238588, Note_on_c, 3, 79, 0
5, 238592, Note_on_c, 3, 78, 60
5, 238716, Note_on_c, 3, 78, 0
5, 238720, Note_on_c, 3, 76, 60
5, 238844, Note_on_c, 3, 76, 0
5, 238976, Note_on_c, 3, 72, 60
5, 239100, Note_on_c, 3, 72, 0
5, 239104, Note_on_c, 3, 74, 60
5, 239228, Note_on_c, 3, 74, 0
5, 239232, Note_on_c, 3, 76, 60
5, 239356, Note_on_c, 3, 76, 0
5, 239360, Note_on_c, 3, 74, 60
5, 239484, Note_on_c, 3, 74, 0
5, 239488, Note_on_c, 3, 72, 60
5, 239612, Note_on_c, 3, 72, 0
5, 239616, Note_on_c, 3, 84, 82
5, 239616, Note_on_c, 3, 81, 82
5, 239616, Note_on_c, 3, 74, 82
5, 240380, Note_on_c, 3, 74, 0
5, 240380, Note_on_c, 3, 81, 0
5, 240380, Note_on_c, 3, 84, 0
5, 240384, Note_on_c, 3, 83, 82
5, 240384, Note_on_c, 3, 79, 82
5, 240384, Note_on_c, 3, 74, 82
5, 240764, Note_on_c, 3, 74, 0
5, 240764, Note_on_c, 3, 79, 0
5, 240764, Note_on_c, 3, 83, 0
5, 240768, Note_on_c, 3, 79, 82
5, 240768, Note_on_c, 3, 74, 82
5, 240768, Note_on_c, 3, 71, 82
5, 241148, Note_on_c, 3, 71, 0
5, 241148, Note_on_c, 3, 74, 0
5, 241148, Note_on_c, 3, 79, 0
5, 241152, Note_on_c, 3, 78, 82
5, 241152, Note_on_c, 3, 74, 82
5, 241152, Note_on_c, 3, 69, 82
5, 241532, Note_on_c, 3, 69, 0
5, 241532, Note_on_c, 3, 74, 0
5, 241532, Note_on_c, 3, 78, 0
5, 241536, Note_on_c, 3, 79, 82
5, 241536, Note_on_c, 3, 74, 82
5, 241536, Note_on_c, 3, 71, 82
5, 241916, Note_on_c, 3, 71, 0
5, 241916, Note_on_c, 3, 74, 0
5, 241916, Note_on_c, 3, 79, 0
5, 241920, Note_on_c, 3, 81, 82
5, 241920, Note_on_c, 3, 76, 82
5, 241920, Note_on_c, 3, 69, 82
5, 242300, Note_on_c, 3, 69, 0
5, 242300, Note_on_c, 3, 76, 0
5, 242300, Note_on_c, 3, 81, 0
5, 242304, Note_on_c, 3, 78, 82
5, 242304, Note_on_c, 3, 72, 82
5, 242304, Note_on_c, 3, 69, 82
5, 242684, Note_on_c, 3, 69, 0
5, 242684, Note_on_c, 3, 72, 0
5, 242684, Note_on_c, 3, 78, 0
5, 242688, Note_on_c, 3, 81, 82
5, 242688, Note_on_c, 3, 84, 82
5, 242688, Note_on_c, 3, 74, 82
5, 243452, Note_on_c, 3, 74, 0
5, 243452, Note_on_c, 3, 84, 0
5, 243452, Note_on_c, 3, 81, 0
5, 243456, Note_on_c, 3, 83, 82
5, 243456, Note_on_c, 3, 79, 82
5, 243456, Note_on_c, 3, 74, 82
5, 243836, Note_on_c, 3, 74, 0
5, 243836, Note_on_c, 3, 79, 0
5, 243836, Note_on_c, 3, 83, 0
5, 243840, Note_on_c, 3, 79, 82
5, 243840, Note_on_c, 3, 74, 82
5, 243840, Note_on_c, 3, 71, 82
5, 244220, Note_on_c, 3, 71, 0
5, 244220, Note_on_c, 3, 74, 0
5, 244220, Note_on_c, 3, 79, 0
5, 244224, Note_on_c, 3, 78, 82
5, 244224, Note_on_c, 3, 74, 82
5, 244224, Note_on_c, 3, 69, 82
5, 244604, Note_on_c, 3, 69, 0
5, 244604, Note_on_c, 3, 74, 0
5, 244604, Note_on_c, 3, 78, 0
5, 244608, Note_on_c, 3, 79, 82
5, 244608, Note_on_c, 3, 74, 82
5, 244608, Note_on_c, 3, 71, 82
5, 244988, Note_on_c, 3, 71, 0
5, 244988, Note_on_c, 3, 74, 0
5, 244988, Note_on_c, 3, 79, 0
5, 244992, Note_on_c, 3, 81, 82
5, 244992, Note_on_c, 3, 76, 82
5, 244992, Note_on_c, 3, 69, 82
5, 245372, Note_on_c, 3, 69, 0
5, 245372, Note_on_c, 3, 76, 0
5, 245372, Note_on_c, 3, 81, 0
5, 245376, Note_on_c, 3, 78, 82
5, 245376, Note_on_c, 3, 72, 82
5, 245376, Note_on_c, 3, 69, 82
5, 245756, Note_on_c, 3, 69, 0
5, 245756, Note_on_c, 3, 72, 0
5, 245756, Note_on_c, 3, 78, 0
5, 245760, Note_on_c, 3, 79, 60
5, 245760, Note_on_c, 3, 74, 60
5, 245760, Note_on_c, 3, 71, 60
5, 245760, Note_on_c, 3, 67, 60
5, 245760, Note_on_c, 3, 55, 60
5, 245948, Note_on_c, 3, 71, 0
5, 245948, Note_on_c, 3, 79, 0
5, 245948, Note_on_c, 3, 74, 0
5, 245952, Note_on_c, 3, 74, 60
5, 246140, Note_on_c, 3, 74, 0
5, 246144, Note_on_c, 3, 71, 60
5, 246332, Note_on_c, 3, 71, 0
5, 246336, Note_on_c, 3, 74, 60
5, 246524, Note_on_c, 3, 74, 0
5, 246528, Note_on_c, 3, 71, 60
5, 246716, Note_on_c, 3, 71, 0
5, 246720, Note_on_c, 3, 74, 60
5, 246908, Note_on_c, 3, 74, 0
5, 246908, Note_on_c, 3, 67, 0
5, 246912, Note_on_c, 3, 72, 60
5, 246912, Note_on_c, 3, 66, 60
5, 247100, Note_on_c, 3, 72, 0
5, 247104, Note_on_c, 3, 74, 60
5, 247292, Note_on_c, 3, 74, 0
5, 247292, Note_on_c, 3, 66, 0
5, 247292, Note_on_c, 3, 55, 0
5, 247296, Note_on_c, 3, 71, 60
5, 247296, Note_on_c, 3, 67, 60
5, 247296, Note_on_c, 3, 55, 60
5, 247484, Note_on_c, 3, 71, 0
5, 247488, Note_on_c, 3, 74, 60
5, 247676, Note_on_c, 3, 74, 0
5, 247676, Note_on_c, 3, 67, 0
5, 247680, Note_on_c, 3, 72, 60
5, 247680, Note_on_c, 3, 66, 60
5, 247868, Note_on_c, 3, 72, 0
5, 247872, Note_on_c, 3, 74, 60
5, 248060, Note_on_c, 3, 74, 0
5, 248060, Note_on_c, 3, 66, 0
5, 248064, Note_on_c, 3, 71, 60
5, 248064, Note_on_c, 3, 67, 60
5, 248252, Note_on_c, 3, 71, 0
5, 248256, Note_on_c, 3, 74, 60
5, 248444, Note_on_c, 3, 74, 0
5, 248444, Note_on_c, 3, 67, 0
5, 248448, Note_on_c, 3, 72, 60
5, 248448, Note_on_c, 3, 66, 60
5, 248636, Note_on_c, 3, 72, 0
5, 248640, Note_on_c, 3, 74, 60
5, 248828, Note_on_c, 3, 74, 0
5, 248828, Note_on_c, 3, 66, 0
5, 248828, Note_on_c, 3, 55, 0
5, 248832, Note_on_c, 3, 71, 60
5, 248832, Note_on_c, 3, 67, 60
5, 248832, Note_on_c, 3, 55, 60
5, 249020, Note_on_c, 3, 71, 0
5, 249024, Note_on_c, 3, 74, 60
5, 249212, Note_on_c, 3, 74, 0
5, 249216, Note_on_c, 3, 71, 60
5, 249404, Note_on_c, 3, 71, 0
5, 249408, Note_on_c, 3, 74, 60
5, 249596, Note_on_c, 3, 74, 0
5, 249600, Note_on_c, 3, 71, 60
5, 249788, Note_on_c, 3, 71, 0
5, 249792, Note_on_c, 3, 74, 60
5, 249980, Note_on_c, 3, 74, 0
5, 249980, Note_on_c, 3, 55, 0
5, 249984, Note_on_c, 3, 71, 60
5, 249984, Note_on_c, 3, 59, 60
5, 250172, Note_on_c, 3, 71, 0
5, 250176, Note_on_c, 3, 74, 60
5, 250364, Note_on_c, 3, 74, 0
5, 250364, Note_on_c, 3, 59, 0
5, 250364, Note_on_c, 3, 67, 0
5, 250368, Note_on_c, 3, 67, 60
5, 250368, Note_on_c, 3, 62, 60
5, 250368, Note_on_c, 3, 71, 60
5, 250556, Note_on_c, 3, 71, 0
5, 250560, Note_on_c, 3, 74, 60
5, 250748, Note_on_c, 3, 74, 0
5, 250752, Note_on_c, 3, 71, 60
5, 250940, Note_on_c, 3, 71, 0
5, 250944, Note_on_c, 3, 74, 60
5, 251132, Note_on_c, 3, 74, 0
5, 251132, Note_on_c, 3, 62, 0
5, 251132, Note_on_c, 3, 67, 0
5, 251136, Note_on_c, 3, 66, 60
5, 251136, Note_on_c, 3, 62, 60
5, 251136, Note_on_c, 3, 72, 60
5, 251324, Note_on_c, 3, 72, 0
5, 251328, Note_on_c, 3, 74, 60
5, 251516, Note_on_c, 3, 74, 0
5, 251520, Note_on_c, 3, 72, 60
5, 251708, Note_on_c, 3, 72, 0
5, 251712, Note_on_c, 3, 74, 60
5, 251900, Note_on_c, 3, 74, 0
5, 251900, Note_on_c, 3, 62, 0
5, 251900, Note_on_c, 3, 66, 0
5, 251904, Note_on_c, 3, 71, 60
5, 251904, Note_on_c, 3, 67, 60
5, 252092, Note_on_c, 3, 67, 0
5, 252092, Note_on_c, 3, 71, 0
5, 252096, Note_on_c, 3, 74, 60
5, 252096, Note_on_c, 3, 62, 60
5, 252284, Note_on_c, 3, 62, 0
5, 252284, Note_on_c, 3, 74, 0
5, 252288, Note_on_c, 3, 71, 60
5, 252288, Note_on_c, 3, 67, 60
5, 252476, Note_on_c, 3, 67, 0
5, 252476, Note_on_c, 3, 71, 0
5, 252480, Note_on_c, 3, 74, 60
5, 252480, Note_on_c, 3, 62, 60
5, 252668, Note_on_c, 3, 62, 0
5, 252668, Note_on_c, 3, 74, 0
5, 252672, Note_on_c, 3, 71, 60
5, 252672, Note_on_c, 3, 67, 60
5, 252860, Note_on_c, 3, 67, 0
5, 252860, Note_on_c, 3, 71, 0
5, 252864, Note_on_c, 3, 74, 60
5, 252864, Note_on_c, 3, 62, 60
5, 253052, Note_on_c, 3, 62, 0
5, 253052, Note_on_c, 3, 74, 0
5, 253056, Note_on_c, 3, 72, 60
5, 253056, Note_on_c, 3, 66, 60
5, 253244, Note_on_c, 3, 66, 0
5, 253244, Note_on_c, 3, 72, 0
5, 253248, Note_on_c, 3, 74, 60
5, 253248, Note_on_c, 3, 62, 60
5, 253436, Note_on_c, 3, 62, 0
5, 253436, Note_on_c, 3, 74, 0
5, 253440, Note_on_c, 3, 71, 60
5, 253440, Note_on_c, 3, 67, 60
5, 253628, Note_on_c, 3, 67, 0
5, 253628, Note_on_c, 3, 71, 0
5, 253632, Note_on_c, 3, 74, 60
5, 253632, Note_on_c, 3, 62, 60
5, 253820, Note_on_c, 3, 62, 0
5, 253820, Note_on_c, 3, 74, 0
5, 253824, Note_on_c, 3, 72, 60
5, 253824, Note_on_c, 3, 66, 60
5, 254012, Note_on_c, 3, 66, 0
5, 254012, Note_on_c, 3, 72, 0
5, 254016, Note_on_c, 3, 74, 60
5, 254016, Note_on_c, 3, 62, 60
5, 254204, Note_on_c, 3, 62, 0
5, 254204, Note_on_c, 3, 74, 0
5, 254208, Note_on_c, 3, 71, 60
5, 254208, Note_on_c, 3, 67, 60
5, 254396, Note_on_c, 3, 67, 0
5, 254396, Note_on_c, 3, 71, 0
5, 254400, Note_on_c, 3, 74, 60
5, 254400, Note_on_c, 3, 62, 60
5, 254588, Note_on_c, 3, 62, 0
5, 254588, Note_on_c, 3, 74, 0
5, 254592, Note_on_c, 3, 72, 60
5, 254592, Note_on_c, 3, 66, 60
5, 254780, Note_on_c, 3, 66, 0
5, 254780, Note_on_c, 3, 72, 0
5, 254784, Note_on_c, 3, 74, 60
5, 254784, Note_on_c, 3, 62, 60
5, 254972, Note_on_c, 3, 62, 0
5, 254972, Note_on_c, 3, 74, 0
5, 254976, Note_on_c, 3, 71, 60
5, 254976, Note_on_c, 3, 67, 60
5, 255164, Note_on_c, 3, 67, 0
5, 255164, Note_on_c, 3, 71, 0
5, 255168, Note_on_c, 3, 74, 60
5, 255168, Note_on_c, 3, 62, 60
5, 255356, Note_on_c, 3, 62, 0
5, 255356, Note_on_c, 3, 74, 0
5, 255360, Note_on_c, 3, 71, 60
5, 255360, Note_on_c, 3, 67, 60
5, 255548, Note_on_c, 3, 67, 0
5, 255548, Note_on_c, 3, 71, 0
5, 255552, Note_on_c, 3, 74, 60
5, 255552, Note_on_c, 3, 62, 60
5, 255740, Note_on_c, 3, 62, 0
5, 255740, Note_on_c, 3, 74, 0
5, 255744, Note_on_c, 3, 71, 60
5, 255744, Note_on_c, 3, 67, 60
5, 255932, Note_on_c, 3, 67, 0
5, 255932, Note_on_c, 3, 71, 0
5, 255936, Note_on_c, 3, 74, 60
5, 255936, Note_on_c, 3, 62, 60
5, 256124, Note_on_c, 3, 62, 0
5, 256124, Note_on_c, 3, 74, 0
5, 256128, Note_on_c, 3, 71, 60
5, 256128, Note_on_c, 3, 67, 60
5, 256316, Note_on_c, 3, 67, 0
5, 256316, Note_on_c, 3, 71, 0
5, 256320, Note_on_c, 3, 74, 60
5, 256320, Note_on_c, 3, 62, 60
5, 256508, Note_on_c, 3, 62, 0
5, 256508, Note_on_c, 3, 74, 0
5, 256512, Note_on_c, 3, 71, 60
5, 256512, Note_on_c, 3, 67, 60
5, 256892, Note_on_c, 3, 67, 0
5, 256892, Note_on_c, 3, 71, 0
5, 256896, Note_on_c, 3, 69, 60
5, 257084, Note_on_c, 3, 69, 0
5, 257088, Note_on_c, 3, 67, 60
5, 257276, Note_on_c, 3, 67, 0
5, 257280, Note_on_c, 3, 67, 60
5, 257468, Note_on_c, 3, 67, 0
5, 257472, Note_on_c, 3, 66, 60
5, 257660, Note_on_c, 3, 66, 0
5, 257664, Note_on_c, 3, 64, 60
5, 257852, Note_on_c, 3, 64, 0
5, 257856, Note_on_c, 3, 66, 60
5, 258044, Note_on_c, 3, 66, 0
5, 258048, Note_on_c, 3, 67, 60
5, 258428, Note_on_c, 3, 67, 0
5, 258816, Note_on_c, 3, 69, 69
5, 258908, Note_on_c, 3, 69, 0
5, 258912, Note_on_c, 3, 81, 60
5, 259196, Note_on_c, 3, 81, 0
5, 259200, Note_on_c, 3, 74, 69
5, 259292, Note_on_c, 3, 74, 0
5, 259296, Note_on_c, 3, 86, 60
5, 259580, Note_on_c, 3, 86, 0
5, 259584, Note_on_c, 3, 71, 69
5, 259676, Note_on_c, 3, 71, 0
5, 259680, Note_on_c, 3, 83, 60
5, 259964, Note_on_c, 3, 83, 0
5, 260352, Note_on_c, 3, 69, 69
5, 260444, Note_on_c, 3, 69, 0
5, 260448, Note_on_c, 3, 81, 60
5, 260732, Note_on_c, 3, 81, 0
5, 260736, Note_on_c, 3, 74, 69
5, 260828, Note_on_c, 3, 74, 0
5, 260832, Note_on_c, 3, 86, 60
5, 261116, Note_on_c, 3, 86, 0
5, 261120, Note_on_c, 3, 67, 75
5, 261212, Note_on_c, 3, 67, 0
5, 261216, Note_on_c, 3, 79, 69
5, 261500, Note_on_c, 3, 79, 0
5, 261888, Note_on_c, 3, 69, 75
5, 261980, Note_on_c, 3, 69, 0
5, 261984, Note_on_c, 3, 81, 69
5, 262268, Note_on_c, 3, 81, 0
5, 262272, Note_on_c, 3, 74, 75
5, 262364, Note_on_c, 3, 74, 0
5, 262368, Note_on_c, 3, 86, 69
5, 262652, Note_on_c, 3, 86, 0
5, 262656, Note_on_c, 3, 71, 82
5, 262748, Note_on_c, 3, 71, 0
5, 262752, Note_on_c, 3, 83, 75
5, 263036, Note_on_c, 3, 83, 0
5, 263040, Note_on_c, 3, 74, 82
5, 263132, Note_on_c, 3, 74, 0
5, 263136, Note_on_c, 3, 86, 75
5, 263420, Note_on_c, 3, 86, 0
5, 263424, Note_on_c, 3, 69, 82
5, 263516, Note_on_c, 3, 69, 0
5, 263520, Note_on_c, 3, 81, 75
5, 263804, Note_on_c, 3, 81, 0
5, 263808, Note_on_c, 3, 74, 82
5, 263900, Note_on_c, 3, 74, 0
5, 263904, Note_on_c, 3, 86, 75
5, 264188, Note_on_c, 3, 86, 0
5, 264192, Note_on_c, 3, 67, 92
5, 264284, Note_on_c, 3, 67, 0
5, 264288, Note_on_c, 3, 79, 82
5, 264572, Note_on_c, 3, 79, 0
5, 264576, Note_on_c, 3, 74, 92
5, 264668, Note_on_c, 3, 74, 0
5, 264672, Note_on_c, 3, 86, 82
5, 264956, Note_on_c, 3, 86, 0
5, 264960, Note_on_c, 3, 69, 92
5, 265052, Note_on_c, 3, 69, 0
5, 265056, Note_on_c, 3, 81, 82
5, 265340, Note_on_c, 3, 81, 0
5, 265344, Note_on_c, 3, 74, 92
5, 265436, Note_on_c, 3, 74, 0
5, 265440, Note_on_c, 3, 86, 82
5, 265724, Note_on_c, 3, 86, 0
5, 265728, Note_on_c, 3, 71, 99
5, 265820, Note_on_c, 3, 71, 0
5, 265824, Note_on_c, 3, 83, 92
5, 266108, Note_on_c, 3, 83, 0
5, 266112, Note_on_c, 3, 74, 99
5, 266204, Note_on_c, 3, 74, 0
5, 266208, Note_on_c, 3, 86, 92
5, 266492, Note_on_c, 3, 86, 0
5, 266496, Note_on_c, 3, 69, 99
5, 266588, Note_on_c, 3, 69, 0
5, 266592, Note_on_c, 3, 81, 92
5, 266876, Note_on_c, 3, 81, 0
5, 266880, Note_on_c, 3, 74, 99
5, 266972, Note_on_c, 3, 74, 0
5, 266976, Note_on_c, 3, 86, 92
5, 267260, Note_on_c, 3, 86, 0
5, 267264, Note_on_c, 3, 81, 60
5, 267452, Note_on_c, 3, 81, 0
5, 267456, Note_on_c, 3, 79, 60
5, 267644, Note_on_c, 3, 79, 0
5, 267648, Note_on_c, 3, 78, 60
5, 267836, Note_on_c, 3, 78, 0
5, 267840, Note_on_c, 3, 79, 60
5, 268028, Note_on_c, 3, 79, 0
5, 268032, Note_on_c, 3, 78, 60
5, 268220, Note_on_c, 3, 78, 0
5, 268224, Note_on_c, 3, 79, 60
5, 268412, Note_on_c, 3, 79, 0
5, 268416, Note_on_c, 3, 81, 60
5, 268604, Note_on_c, 3, 81, 0
5, 268608, Note_on_c, 3, 79, 60
5, 268796, Note_on_c, 3, 79, 0
5, 268800, Note_on_c, 3, 79, 60
5, 268988, Note_on_c, 3, 79, 0
5, 268992, Note_on_c, 3, 77, 60
5, 269180, Note_on_c, 3, 77, 0
5, 269184, Note_on_c, 3, 76, 60
5, 269372, Note_on_c, 3, 76, 0
5, 269376, Note_on_c, 3, 77, 60
5, 269564, Note_on_c, 3, 77, 0
5, 269568, Note_on_c, 3, 76, 60
5, 269756, Note_on_c, 3, 76, 0
5, 269760, Note_on_c, 3, 77, 60
5, 269948, Note_on_c, 3, 77, 0
5, 269952, Note_on_c, 3, 79, 60
5, 270140, Note_on_c, 3, 79, 0
5, 270144, Note_on_c, 3, 77, 60
5, 270332, Note_on_c, 3, 77, 0
5, 270336, Note_on_c, 3, 77, 60
5, 270524, Note_on_c, 3, 77, 0
5, 270528, Note_on_c, 3, 76, 60
5, 270716, Note_on_c, 3, 76, 0
5, 270720, Note_on_c, 3, 75, 60
5, 270908, Note_on_c, 3, 75, 0
5, 270912, Note_on_c, 3, 76, 60
5, 271100, Note_on_c, 3, 76, 0
5, 271104, Note_on_c, 3, 75, 60
5, 271292, Note_on_c, 3, 75, 0
5, 271296, Note_on_c, 3, 76, 60
5, 271484, Note_on_c, 3, 76, 0
5, 271488, Note_on_c, 3, 77, 60
5, 271676, Note_on_c, 3, 77, 0
5, 271680, Note_on_c, 3, 76, 60
5, 271868, Note_on_c, 3, 76, 0
5, 271872, Note_on_c, 3, 76, 60
5, 272060, Note_on_c, 3, 76, 0
5, 272064, Note_on_c, 3, 74, 60
5, 272252, Note_on_c, 3, 74, 0
5, 272256, Note_on_c, 3, 73, 60
5, 272444, Note_on_c, 3, 73, 0
5, 272448, Note_on_c, 3, 74, 60
5, 272636, Note_on_c, 3, 74, 0
5, 272640, Note_on_c, 3, 73, 60
5, 272828, Note_on_c, 3, 73, 0
5, 272832, Note_on_c, 3, 74, 60
5, 273020, Note_on_c, 3, 74, 0
5, 273024, Note_on_c, 3, 76, 60
5, 273212, Note_on_c, 3, 76, 0
5, 273216, Note_on_c, 3, 74, 60
5, 273404, Note_on_c, 3, 74, 0
5, 273408, Note_on_c, 3, 71, 92
5, 273596, Note_on_c, 3, 71, 0
5, 273600, Note_on_c, 3, 74, 92
5, 273788, Note_on_c, 3, 74, 0
5, 273792, Note_on_c, 3, 72, 92
5, 273980, Note_on_c, 3, 72, 0
5, 273984, Note_on_c, 3, 76, 92
5, 274172, Note_on_c, 3, 76, 0
5, 274176, Note_on_c, 3, 74, 60
5, 274176, Note_on_c, 3, 62, 60
5, 274176, Note_on_c, 3, 59, 60
5, 274364, Note_on_c, 3, 59, 0
5, 274364, Note_on_c, 3, 62, 0
5, 274368, Note_on_c, 3, 65, 60
5, 274556, Note_on_c, 3, 65, 0
5, 274556, Note_on_c, 3, 74, 0
5, 274560, Note_on_c, 3, 79, 60
5, 274560, Note_on_c, 3, 67, 60
5, 274560, Note_on_c, 3, 64, 60
5, 274560, Note_on_c, 3, 60, 60
5, 274748, Note_on_c, 3, 60, 0
5, 274748, Note_on_c, 3, 64, 0
5, 274752, Note_on_c, 3, 67, 60
5, 274940, Note_on_c, 3, 67, 0
5, 274940, Note_on_c, 3, 67, 0
5, 274940, Note_on_c, 3, 79, 0
5, 274944, Note_on_c, 3, 71, 60
5, 274944, Note_on_c, 3, 65, 60
5, 274944, Note_on_c, 3, 62, 60
5, 275132, Note_on_c, 3, 71, 0
5, 275136, Note_on_c, 3, 74, 60
5, 275324, Note_on_c, 3, 74, 0
5, 275324, Note_on_c, 3, 62, 0
5, 275324, Note_on_c, 3, 65, 0
5, 275328, Note_on_c, 3, 73, 60
5, 275516, Note_on_c, 3, 73, 0
5, 275520, Note_on_c, 3, 76, 60
5, 275708, Note_on_c, 3, 76, 0
5, 275712, Note_on_c, 3, 74, 60
5, 275712, Note_on_c, 3, 71, 60
5, 275900, Note_on_c, 3, 71, 0
5, 275900, Note_on_c, 3, 74, 0
5, 275904, Note_on_c, 3, 77, 60
5, 276092, Note_on_c, 3, 77, 0
5, 276096, Note_on_c, 3, 76, 60
5, 276096, Note_on_c, 3, 73, 60
5, 276096, Note_on_c, 3, 67, 60
5, 276096, Note_on_c, 3, 55, 60
5, 276284, Note_on_c, 3, 73, 0
5, 276284, Note_on_c, 3, 76, 0
5, 276288, Note_on_c, 3, 79, 60
5, 276476, Note_on_c, 3, 79, 0
5, 276476, Note_on_c, 3, 67, 0
5, 276476, Note_on_c, 3, 55, 0
5, 276480, Note_on_c, 3, 77, 92
5, 276480, Note_on_c, 3, 74, 92
5, 276480, Note_on_c, 3, 71, 92
5, 276668, Note_on_c, 3, 71, 0
5, 276668, Note_on_c, 3, 74, 0
5, 276668, Note_on_c, 3, 77, 0
5, 276672, Note_on_c, 3, 74, 92
5, 276860, Note_on_c, 3, 74, 0
5, 276864, Note_on_c, 3, 72, 92
5, 277052, Note_on_c, 3, 72, 0
5, 277056, Note_on_c, 3, 76, 92
5, 277244, Note_on_c, 3, 76, 0
5, 277248, Note_on_c, 3, 74, 92
5, 277436, Note_on_c, 3, 74, 0
5, 277440, Note_on_c, 3, 76, 92
5, 277628, Note_on_c, 3, 76, 0
5, 277632, Note_on_c, 3, 72, 92
5, 277820, Note_on_c, 3, 72, 0
5, 277824, Note_on_c, 3, 74, 92
5, 278012, Note_on_c, 3, 74, 0
5, 278016, Note_on_c, 3, 71, 60
5, 278204, Note_on_c, 3, 71, 0
5, 278208, Note_on_c, 3, 74, 60
5, 278396, Note_on_c, 3, 74, 0
5, 278400, Note_on_c, 3, 72, 60
5, 278588, Note_on_c, 3, 72, 0
5, 278592, Note_on_c, 3, 76, 60
5, 278780, Note_on_c, 3, 76, 0
5, 278784, Note_on_c, 3, 74, 60
5, 278784, Note_on_c, 3, 71, 60
5, 278784, Note_on_c, 3, 62, 60
5, 278784, Note_on_c, 3, 59, 60
5, 278972, Note_on_c, 3, 59, 0
5, 278972, Note_on_c, 3, 74, 0
5, 278972, Note_on_c, 3, 71, 0
5, 278972, Note_on_c, 3, 62, 0
5, 278976, Note_on_c, 3, 77, 60
5, 278976, Note_on_c, 3, 65, 60
5, 279164, Note_on_c, 3, 65, 0
5, 279164, Note_on_c, 3, 77, 0
5, 279168, Note_on_c, 3, 76, 60
5, 279168, Note_on_c, 3, 72, 60
5, 279168, Note_on_c, 3, 64, 60
5, 279168, Note_on_c, 3, 60, 60
5, 279356, Note_on_c, 3, 60, 0
5, 279356, Note_on_c, 3, 76, 0
5, 279356, Note_on_c, 3, 72, 0
5, 279356, Note_on_c, 3, 64, 0
5, 279360, Note_on_c, 3, 79, 60
5, 279360, Note_on_c, 3, 67, 60
5, 279548, Note_on_c, 3, 67, 0
5, 279548, Note_on_c, 3, 79, 0
5, 279552, Note_on_c, 3, 77, 50
5, 279552, Note_on_c, 3, 74, 50
5, 279552, Note_on_c, 3, 65, 50
5, 279552, Note_on_c, 3, 62, 50
5, 279932, Note_on_c, 3, 62, 0
5, 279932, Note_on_c, 3, 77, 0
5, 279932, Note_on_c, 3, 74, 0
5, 279932, Note_on_c, 3, 65, 0
5, 280320, Note_on_c, 3, 60, 50
5, 280508, Note_on_c, 3, 60, 0
5, 280512, Note_on_c, 3, 55, 50
5, 280700, Note_on_c, 3, 55, 0
5, 280704, Note_on_c, 3, 60, 50
5, 280892, Note_on_c, 3, 60, 0
5, 280896, Note_on_c, 3, 55, 50
5, 281084, Note_on_c, 3, 55, 0
5, 281088, Note_on_c, 3, 60, 50
5, 281276, Note_on_c, 3, 60, 0
5, 281280, Note_on_c, 3, 64, 50
5, 281468, Note_on_c, 3, 64, 0
5, 281472, Note_on_c, 3, 67, 50
5, 281660, Note_on_c, 3, 67, 0
5, 281664, Note_on_c, 3, 60, 50
5, 281852, Note_on_c, 3, 60, 0
5, 281856, Note_on_c, 3, 59, 50
5, 282044, Note_on_c, 3, 59, 0
5, 282048, Note_on_c, 3, 62, 50
5, 282236, Note_on_c, 3, 62, 0
5, 282240, Note_on_c, 3, 67, 50
5, 282428, Note_on_c, 3, 67, 0
5, 282432, Note_on_c, 3, 62, 50
5, 282620, Note_on_c, 3, 62, 0
5, 282624, Note_on_c, 3, 64, 50
5, 282812, Note_on_c, 3, 64, 0
5, 282816, Note_on_c, 3, 67, 50
5, 283004, Note_on_c, 3, 67, 0
5, 283008, Note_on_c, 3, 72, 50
5, 283196, Note_on_c, 3, 72, 0
5, 283200, Note_on_c, 3, 67, 50
5, 283388, Note_on_c, 3, 67, 0
5, 283392, Note_on_c, 3, 64, 50
5, 283580, Note_on_c, 3, 64, 0
5, 283584, Note_on_c, 3, 60, 50
5, 283772, Note_on_c, 3, 60, 0
5, 283776, Note_on_c, 3, 64, 50
5, 283964, Note_on_c, 3, 64, 0
5, 283968, Note_on_c, 3, 60, 50
5, 284156, Note_on_c, 3, 60, 0
5, 284160, Note_on_c, 3, 65, 50
5, 284348, Note_on_c, 3, 65, 0
5, 284352, Note_on_c, 3, 60, 50
5, 284540, Note_on_c, 3, 60, 0
5, 284544, Note_on_c, 3, 64, 50
5, 284732, Note_on_c, 3, 64, 0
5, 284736, Note_on_c, 3, 60, 50
5, 284924, Note_on_c, 3, 60, 0
5, 284928, Note_on_c, 3, 64, 50
5, 285116, Note_on_c, 3, 64, 0
5, 285120, Note_on_c, 3, 60, 50
5, 285308, Note_on_c, 3, 60, 0
5, 285312, Note_on_c, 3, 64, 50
5, 285500, Note_on_c, 3, 64, 0
5, 285504, Note_on_c, 3, 60, 50
5, 285692, Note_on_c, 3, 60, 0
5, 285696, Note_on_c, 3, 65, 50
5, 285884, Note_on_c, 3, 65, 0
5, 285888, Note_on_c, 3, 60, 50
5, 286076, Note_on_c, 3, 60, 0
5, 286080, Note_on_c, 3, 64, 50
5, 286268, Note_on_c, 3, 64, 0
5, 286272, Note_on_c, 3, 60, 50
5, 286460, Note_on_c, 3, 60, 0
5, 286464, Note_on_c, 3, 64, 50
5, 286652, Note_on_c, 3, 64, 0
5, 286656, Note_on_c, 3, 65, 50
5, 286844, Note_on_c, 3, 65, 0
5, 286848, Note_on_c, 3, 67, 50
5, 287036, Note_on_c, 3, 67, 0
5, 287040, Note_on_c, 3, 64, 50
5, 287228, Note_on_c, 3, 64, 0
5, 287232, Note_on_c, 3, 60, 50
5, 287420, Note_on_c, 3, 60, 0
5, 287424, Note_on_c, 3, 64, 50
5, 287612, Note_on_c, 3, 64, 0
5, 287616, Note_on_c, 3, 67, 50
5, 287804, Note_on_c, 3, 67, 0
5, 287808, Note_on_c, 3, 72, 50
5, 287996, Note_on_c, 3, 72, 0
5, 288000, Note_on_c, 3, 59, 50
5, 288188, Note_on_c, 3, 59, 0
5, 288192, Note_on_c, 3, 62, 50
5, 288380, Note_on_c, 3, 62, 0
5, 288384, Note_on_c, 3, 67, 50
5, 288572, Note_on_c, 3, 67, 0
5, 288576, Note_on_c, 3, 71, 50
5, 288764, Note_on_c, 3, 71, 0
5, 288768, Note_on_c, 3, 60, 50
5, 288956, Note_on_c, 3, 60, 0
5, 288960, Note_on_c, 3, 64, 50
5, 289148, Note_on_c, 3, 64, 0
5, 289152, Note_on_c, 3, 67, 50
5, 289340, Note_on_c, 3, 67, 0
5, 289344, Note_on_c, 3, 72, 50
5, 289532, Note_on_c, 3, 72, 0
5, 289536, Note_on_c, 3, 62, 50
5, 289724, Note_on_c, 3, 62, 0
5, 289728, Note_on_c, 3, 67, 50
5, 289916, Note_on_c, 3, 67, 0
5, 289920, Note_on_c, 3, 71, 50
5, 290108, Note_on_c, 3, 71, 0
5, 290112, Note_on_c, 3, 74, 50
5, 290300, Note_on_c, 3, 74, 0
5, 290304, Note_on_c, 3, 64, 50
5, 290492, Note_on_c, 3, 64, 0
5, 290496, Note_on_c, 3, 67, 50
5, 290684, Note_on_c, 3, 67, 0
5, 290688, Note_on_c, 3, 72, 50
5, 290876, Note_on_c, 3, 72, 0
5, 290880, Note_on_c, 3, 76, 50
5, 291068, Note_on_c, 3, 76, 0
5, 291072, Note_on_c, 3, 77, 50
5, 291260, Note_on_c, 3, 77, 0
5, 291264, Note_on_c, 3, 76, 50
5, 291452, Note_on_c, 3, 76, 0
5, 291456, Note_on_c, 3, 74, 50
5, 291644, Note_on_c, 3, 74, 0
5, 291648, Note_on_c, 3, 72, 50
5, 291836, Note_on_c, 3, 72, 0
5, 291840, Note_on_c, 3, 67, 92
5, 292028, Note_on_c, 3, 67, 0
5, 292032, Note_on_c, 3, 72, 92
5, 292220, Note_on_c, 3, 72, 0
5, 292224, Note_on_c, 3, 71, 92
5, 292412, Note_on_c, 3, 71, 0
5, 292416, Note_on_c, 3, 69, 92
5, 292604, Note_on_c, 3, 69, 0
5, 292608, Note_on_c, 3, 76, 92
5, 292608, Note_on_c, 3, 72, 92
5, 292608, Note_on_c, 3, 67, 92
5, 292796, Note_on_c, 3, 67, 0
5, 292800, Note_on_c, 3, 65, 92
5, 292988, Note_on_c, 3, 65, 0
5, 292988, Note_on_c, 3, 72, 0
5, 292988, Note_on_c, 3, 76, 0
5, 292992, Note_on_c, 3, 76, 92
5, 292992, Note_on_c, 3, 72, 92
5, 292992, Note_on_c, 3, 64, 92
5, 293180, Note_on_c, 3, 64, 0
5, 293184, Note_on_c, 3, 62, 92
5, 293372, Note_on_c, 3, 62, 0
5, 293372, Note_on_c, 3, 72, 0
5, 293372, Note_on_c, 3, 76, 0
5, 293376, Note_on_c, 3, 76, 92
5, 293376, Note_on_c, 3, 72, 92
5, 293376, Note_on_c, 3, 60, 92
5, 293564, Note_on_c, 3, 60, 0
5, 293568, Note_on_c, 3, 55, 92
5, 293756, Note_on_c, 3, 55, 0
5, 293760, Note_on_c, 3, 60, 92
5, 293948, Note_on_c, 3, 60, 0
5, 293952, Note_on_c, 3, 55, 92
5, 294140, Note_on_c, 3, 55, 0
5, 294140, Note_on_c, 3, 72, 0
5, 294140, Note_on_c, 3, 76, 0
5, 294144, Note_on_c, 3, 79, 92
5, 294144, Note_on_c, 3, 76, 92
5, 294144, Note_on_c, 3, 62, 92
5, 294332, Note_on_c, 3, 62, 0
5, 294332, Note_on_c, 3, 76, 0
5, 294332, Note_on_c, 3, 79, 0
5, 294336, Note_on_c, 3, 77, 92
5, 294336, Note_on_c, 3, 74, 92
5, 294336, Note_on_c, 3, 55, 92
5, 294524, Note_on_c, 3, 55, 0
5, 294524, Note_on_c, 3, 74, 0
5, 294524, Note_on_c, 3, 77, 0
5, 294528, Note_on_c, 3, 76, 92
5, 294528, Note_on_c, 3, 72, 92
5, 294528, Note_on_c, 3, 62, 92
5, 294716, Note_on_c, 3, 62, 0
5, 294716, Note_on_c, 3, 72, 0
5, 294716, Note_on_c, 3, 76, 0
5, 294720, Note_on_c, 3, 77, 92
5, 294720, Note_on_c, 3, 74, 92
5, 294720, Note_on_c, 3, 55, 92
5, 294908, Note_on_c, 3, 55, 0
5, 294908, Note_on_c, 3, 74, 0
5, 294908, Note_on_c, 3, 77, 0
5, 294912, Note_on_c, 3, 79, 92
5, 294912, Note_on_c, 3, 76, 92
5, 294912, Note_on_c, 3, 64, 92
5, 295100, Note_on_c, 3, 64, 0
5, 295100, Note_on_c, 3, 76, 0
5, 295100, Note_on_c, 3, 79, 0
5, 295104, Note_on_c, 3, 76, 92
5, 295104, Note_on_c, 3, 60, 92
5, 295292, Note_on_c, 3, 60, 0
5, 295292, Note_on_c, 3, 76, 0
5, 295296, Note_on_c, 3, 72, 92
5, 295296, Note_on_c, 3, 64, 92
5, 295484, Note_on_c, 3, 64, 0
5, 295488, Note_on_c, 3, 67, 92
5, 295664, Note_on_c, 3, 84, 92
5, 295676, Note_on_c, 3, 67, 0
5, 295676, Note_on_c, 3, 72, 0
5, 295680, Note_on_c, 3, 72, 92
5, 295680, Note_on_c, 3, 64, 92
5, 295868, Note_on_c, 3, 64, 0
5, 295872, Note_on_c, 3, 60, 92
5, 296060, Note_on_c, 3, 60, 0
5, 296064, Note_on_c, 3, 64, 92
5, 296236, Note_on_c, 3, 84, 0
5, 296252, Note_on_c, 3, 64, 0
5, 296256, Note_on_c, 3, 83, 92
5, 296256, Note_on_c, 3, 60, 92
5, 296444, Note_on_c, 3, 60, 0
5, 296444, Note_on_c, 3, 83, 0
5, 296448, Note_on_c, 3, 83, 92
5, 296448, Note_on_c, 3, 65, 92
5, 296636, Note_on_c, 3, 65, 0
5, 296636, Note_on_c, 3, 83, 0
5, 296640, Note_on_c, 3, 81, 92
5, 296640, Note_on_c, 3, 60, 92
5, 296828, Note_on_c, 3, 60, 0
5, 296828, Note_on_c, 3, 81, 0
5, 296832, Note_on_c, 3, 79, 92
5, 296832, Note_on_c, 3, 64, 92
5, 297020, Note_on_c, 3, 64, 0
5, 297024, Note_on_c, 3, 60, 92
5, 297212, Note_on_c, 3, 60, 0
5, 297212, Note_on_c, 3, 79, 0
5, 297212, Note_on_c, 3, 72, 0
5, 297216, Note_on_c, 3, 72, 92
5, 297216, Note_on_c, 3, 84, 92
5, 297216, Note_on_c, 3, 64, 92
5, 297404, Note_on_c, 3, 64, 0
5, 297408, Note_on_c, 3, 60, 92
5, 297596, Note_on_c, 3, 60, 0
5, 297600, Note_on_c, 3, 64, 92
5, 297788, Note_on_c, 3, 64, 0
5, 297788, Note_on_c, 3, 84, 0
5, 297792, Note_on_c, 3, 83, 92
5, 297792, Note_on_c, 3, 60, 92
5, 297980, Note_on_c, 3, 60, 0
5, 297980, Note_on_c, 3, 83, 0
5, 297984, Note_on_c, 3, 83, 92
5, 297984, Note_on_c, 3, 65, 92
5, 298172, Note_on_c, 3, 65, 0
5, 298172, Note_on_c, 3, 83, 0
5, 298176, Note_on_c, 3, 81, 92
5, 298176, Note_on_c, 3, 60, 92
5, 298364, Note_on_c, 3, 60, 0
5, 298364, Note_on_c, 3, 81, 0
5, 298368, Note_on_c, 3, 79, 92
5, 298368, Note_on_c, 3, 64, 92
5, 298556, Note_on_c, 3, 64, 0
5, 298560, Note_on_c, 3, 60, 92
5, 298748, Note_on_c, 3, 60, 0
5, 298748, Note_on_c, 3, 79, 0
5, 298748, Note_on_c, 3, 72, 0
5, 298752, Note_on_c, 3, 72, 92
5, 298752, Note_on_c, 3, 64, 92
5, 298940, Note_on_c, 3, 64, 0
5, 298944, Note_on_c, 3, 65, 92
5, 299132, Note_on_c, 3, 65, 0
5, 299132, Note_on_c, 3, 72, 0
5, 299136, Note_on_c, 3, 72, 92
5, 299136, Note_on_c, 3, 67, 92
5, 299324, Note_on_c, 3, 67, 0
5, 299328, Note_on_c, 3, 64, 92
5, 299516, Note_on_c, 3, 64, 0
5, 299516, Note_on_c, 3, 72, 0
5, 299520, Note_on_c, 3, 72, 92
5, 299520, Note_on_c, 3, 60, 92
5, 299708, Note_on_c, 3, 60, 0
5, 299712, Note_on_c, 3, 64, 92
5, 299900, Note_on_c, 3, 64, 0
5, 299904, Note_on_c, 3, 67, 92
5, 300092, Note_on_c, 3, 67, 0
5, 300096, Note_on_c, 3, 72, 92
5, 300284, Note_on_c, 3, 72, 0
5, 300284, Note_on_c, 3, 72, 0
5, 300288, Note_on_c, 3, 76, 92
5, 300288, Note_on_c, 3, 72, 92
5, 300288, Note_on_c, 3, 55, 92
5, 300476, Note_on_c, 3, 55, 0
5, 300476, Note_on_c, 3, 72, 0
5, 300476, Note_on_c, 3, 76, 0
5, 300480, Note_on_c, 3, 74, 92
5, 300480, Note_on_c, 3, 71, 92
5, 300480, Note_on_c, 3, 59, 92
5, 300668, Note_on_c, 3, 59, 0
5, 300668, Note_on_c, 3, 71, 0
5, 300668, Note_on_c, 3, 74, 0
5, 300672, Note_on_c, 3, 72, 92
5, 300672, Note_on_c, 3, 69, 92
5, 300672, Note_on_c, 3, 62, 92
5, 300860, Note_on_c, 3, 62, 0
5, 300860, Note_on_c, 3, 69, 0
5, 300860, Note_on_c, 3, 72, 0
5, 300864, Note_on_c, 3, 74, 92
5, 300864, Note_on_c, 3, 71, 92
5, 300864, Note_on_c, 3, 67, 92
5, 301052, Note_on_c, 3, 67, 0
5, 301052, Note_on_c, 3, 71, 0
5, 301052, Note_on_c, 3, 74, 0
5, 301056, Note_on_c, 3, 76, 92
5, 301056, Note_on_c, 3, 72, 92
5, 301056, Note_on_c, 3, 60, 92
5, 301244, Note_on_c, 3, 60, 0
5, 301248, Note_on_c, 3, 64, 92
5, 301436, Note_on_c, 3, 64, 0
5, 301436, Note_on_c, 3, 72, 0
5, 301436, Note_on_c, 3, 76, 0
5, 301440, Note_on_c, 3, 76, 92
5, 301440, Note_on_c, 3, 72, 92
5, 301440, Note_on_c, 3, 67, 92
5, 301628, Note_on_c, 3, 67, 0
5, 301632, Note_on_c, 3, 72, 92
5, 301820, Note_on_c, 3, 72, 0
5, 301820, Note_on_c, 3, 72, 0
5, 301820, Note_on_c, 3, 76, 0
5, 301824, Note_on_c, 3, 79, 92
5, 301824, Note_on_c, 3, 76, 92
5, 301824, Note_on_c, 3, 55, 92
5, 302012, Note_on_c, 3, 55, 0
5, 302012, Note_on_c, 3, 76, 0
5, 302012, Note_on_c, 3, 79, 0
5, 302016, Note_on_c, 3, 77, 92
5, 302016, Note_on_c, 3, 74, 92
5, 302016, Note_on_c, 3, 59, 92
5, 302204, Note_on_c, 3, 59, 0
5, 302204, Note_on_c, 3, 74, 0
5, 302204, Note_on_c, 3, 77, 0
5, 302208, Note_on_c, 3, 76, 92
5, 302208, Note_on_c, 3, 72, 92
5, 302208, Note_on_c, 3, 62, 92
5, 302396, Note_on_c, 3, 62, 0
5, 302396, Note_on_c, 3, 72, 0
5, 302396, Note_on_c, 3, 76, 0
5, 302400, Note_on_c, 3, 77, 92
5, 302400, Note_on_c, 3, 74, 92
5, 302400, Note_on_c, 3, 67, 92
5, 302588, Note_on_c, 3, 67, 0
5, 302588, Note_on_c, 3, 74, 0
5, 302588, Note_on_c, 3, 77, 0
5, 302592, Note_on_c, 3, 79, 92
5, 302592, Note_on_c, 3, 76, 92
5, 302972, Note_on_c, 3, 76, 0
5, 302972, Note_on_c, 3, 79, 0
5, 302976, Note_on_c, 3, 76, 92
5, 302976, Note_on_c, 3, 72, 92
5, 303356, Note_on_c, 3, 72, 0
5, 303356, Note_on_c, 3, 76, 0
5, 303360, Note_on_c, 3, 79, 92
5, 303360, Note_on_c, 3, 76, 92
5, 303548, Note_on_c, 3, 76, 0
5, 303548, Note_on_c, 3, 79, 0
5, 303552, Note_on_c, 3, 77, 92
5, 303552, Note_on_c, 3, 74, 92
5, 303740, Note_on_c, 3, 74, 0
5, 303740, Note_on_c, 3, 77, 0
5, 303744, Note_on_c, 3, 76, 92
5, 303744, Note_on_c, 3, 72, 92
5, 303932, Note_on_c, 3, 72, 0
5, 303932, Note_on_c, 3, 76, 0
5, 303936, Note_on_c, 3, 74, 92
5, 303936, Note_on_c, 3, 71, 92
5, 304124, Note_on_c, 3, 71, 0
5, 304124, Note_on_c, 3, 74, 0
5, 304128, Note_on_c, 3, 72, 92
5, 304508, Note_on_c, 3, 72, 0
5, 319872, Note_on_c, 3, 65, 60
5, 319872, Note_on_c, 3, 57, 60
5, 320060, Note_on_c, 3, 57, 0
5, 320060, Note_on_c, 3, 65, 0
5, 320064, Note_on_c, 3, 60, 60
5, 320252, Note_on_c, 3, 60, 0
5, 320256, Note_on_c, 3, 65, 60
5, 320256, Note_on_c, 3, 57, 60
5, 320444, Note_on_c, 3, 57, 0
5, 320444, Note_on_c, 3, 65, 0
5, 320448, Note_on_c, 3, 60, 60
5, 320624, Note_on_c, 3, 57, 60
5, 320636, Note_on_c, 3, 60, 0
5, 320640, Note_on_c, 3, 65, 60
5, 320812, Note_on_c, 3, 57, 0
5, 320828, Note_on_c, 3, 65, 0
5, 320832, Note_on_c, 3, 60, 60
5, 321020, Note_on_c, 3, 60, 0
5, 321024, Note_on_c, 3, 65, 60
5, 321024, Note_on_c, 3, 57, 60
5, 321212, Note_on_c, 3, 57, 0
5, 321212, Note_on_c, 3, 65, 0
5, 321216, Note_on_c, 3, 60, 60
5, 321404, Note_on_c, 3, 60, 0
5, 321408, Note_on_c, 3, 65, 60
5, 321408, Note_on_c, 3, 57, 60
5, 321596, Note_on_c, 3, 57, 0
5, 321596, Note_on_c, 3, 65, 0
5, 321600, Note_on_c, 3, 60, 60
5, 321788, Note_on_c, 3, 60, 0
5, 321792, Note_on_c, 3, 65, 60
5, 321792, Note_on_c, 3, 57, 60
5, 321980, Note_on_c, 3, 57, 0
5, 321980, Note_on_c, 3, 65, 0
5, 321984, Note_on_c, 3, 60, 60
5, 322172, Note_on_c, 3, 60, 0
5, 322176, Note_on_c, 3, 65, 60
5, 322176, Note_on_c, 3, 57, 60
5, 322364, Note_on_c, 3, 57, 0
5, 322364, Note_on_c, 3, 65, 0
5, 322368, Note_on_c, 3, 60, 60
5, 322556, Note_on_c, 3, 60, 0
5, 322560, Note_on_c, 3, 65, 60
5, 322560, Note_on_c, 3, 57, 60
5, 322748, Note_on_c, 3, 57, 0
5, 322748, Note_on_c, 3, 65, 0
5, 322752, Note_on_c, 3, 60, 60
5, 322940, Note_on_c, 3, 60, 0
5, 322944, Note_on_c, 3, 65, 60
5, 322944, Note_on_c, 3, 57, 60
5, 323132, Note_on_c, 3, 57, 0
5, 323132, Note_on_c, 3, 65, 0
5, 323136, Note_on_c, 3, 60, 60
5, 323324, Note_on_c, 3, 60, 0
5, 323328, Note_on_c, 3, 65, 60
5, 323328, Note_on_c, 3, 57, 60
5, 323516, Note_on_c, 3, 57, 0
5, 323516, Note_on_c, 3, 65, 0
5, 323520, Note_on_c, 3, 60, 60
5, 323708, Note_on_c, 3, 60, 0
5, 323712, Note_on_c, 3, 65, 60
5, 323712, Note_on_c, 3, 57, 60
5, 323900, Note_on_c, 3, 57, 0
5, 323900, Note_on_c, 3, 65, 0
5, 323904, Note_on_c, 3, 60, 60
5, 324092, Note_on_c, 3, 60, 0
5, 324096, Note_on_c, 3, 65, 60
5, 324096, Note_on_c, 3, 58, 60
5, 324284, Note_on_c, 3, 58, 0
5, 324284, Note_on_c, 3, 65, 0
5, 324288, Note_on_c, 3, 58, 60
5, 324476, Note_on_c, 3, 58, 0
5, 324480, Note_on_c, 3, 65, 60
5, 324668, Note_on_c, 3, 65, 0
5, 324672, Note_on_c, 3, 58, 60
5, 324860, Note_on_c, 3, 58, 0
5, 324864, Note_on_c, 3, 65, 60
5, 324864, Note_on_c, 3, 57, 60
5, 325052, Note_on_c, 3, 57, 0
5, 325052, Note_on_c, 3, 65, 0
5, 325056, Note_on_c, 3, 60, 60
5, 325244, Note_on_c, 3, 60, 0
5, 325248, Note_on_c, 3, 65, 60
5, 325248, Note_on_c, 3, 57, 60
5, 325436, Note_on_c, 3, 57, 0
5, 325436, Note_on_c, 3, 65, 0
5, 325440, Note_on_c, 3, 60, 60
5, 325628, Note_on_c, 3, 60, 0
5, 325632, Note_on_c, 3, 65, 60
5, 325632, Note_on_c, 3, 60, 60
5, 327164, Note_on_c, 3, 60, 0
5, 327164, Note_on_c, 3, 65, 0
5, 327360, Note_on_c, 3, 74, 55
5, 327548, Note_on_c, 3, 74, 0
5, 327552, Note_on_c, 3, 72, 55
5, 327740, Note_on_c, 3, 72, 0
5, 327744, Note_on_c, 3, 74, 55
5, 327932, Note_on_c, 3, 74, 0
5, 327936, Note_on_c, 3, 70, 55
5, 328124, Note_on_c, 3, 70, 0
5, 328128, Note_on_c, 3, 69, 55
5, 328316, Note_on_c, 3, 69, 0
5, 328320, Note_on_c, 3, 67, 55
5, 328508, Note_on_c, 3, 67, 0
5, 328512, Note_on_c, 3, 65, 55
5, 328700, Note_on_c, 3, 65, 0
5, 328704, Note_on_c, 3, 64, 55
5, 328892, Note_on_c, 3, 64, 0
5, 328896, Note_on_c, 3, 65, 55
5, 329084, Note_on_c, 3, 65, 0
5, 329088, Note_on_c, 3, 67, 55
5, 329276, Note_on_c, 3, 67, 0
5, 329280, Note_on_c, 3, 65, 55
5, 329468, Note_on_c, 3, 65, 0
5, 329472, Note_on_c, 3, 69, 55
5, 329660, Note_on_c, 3, 69, 0
5, 329664, Note_on_c, 3, 67, 55
5, 329852, Note_on_c, 3, 67, 0
5, 329856, Note_on_c, 3, 65, 55
5, 330044, Note_on_c, 3, 65, 0
5, 330048, Note_on_c, 3, 64, 55
5, 330236, Note_on_c, 3, 64, 0
5, 330240, Note_on_c, 3, 65, 55
5, 330620, Note_on_c, 3, 65, 0
5, 331776, Note_on_c, 3, 65, 75
5, 331776, Note_on_c, 3, 57, 75
5, 331964, Note_on_c, 3, 57, 0
5, 331964, Note_on_c, 3, 65, 0
5, 331968, Note_on_c, 3, 60, 75
5, 332156, Note_on_c, 3, 60, 0
5, 332160, Note_on_c, 3, 65, 75
5, 332160, Note_on_c, 3, 57, 75
5, 332348, Note_on_c, 3, 57, 0
5, 332348, Note_on_c, 3, 65, 0
5, 332352, Note_on_c, 3, 60, 75
5, 332540, Note_on_c, 3, 60, 0
5, 332544, Note_on_c, 3, 65, 75
5, 332544, Note_on_c, 3, 57, 75
5, 332732, Note_on_c, 3, 57, 0
5, 332732, Note_on_c, 3, 65, 0
5, 332736, Note_on_c, 3, 60, 75
5, 332924, Note_on_c, 3, 60, 0
5, 332928, Note_on_c, 3, 65, 75
5, 332928, Note_on_c, 3, 57, 75
5, 333116, Note_on_c, 3, 57, 0
5, 333116, Note_on_c, 3, 65, 0
5, 333120, Note_on_c, 3, 60, 75
5, 333308, Note_on_c, 3, 60, 0
5, 333312, Note_on_c, 3, 65, 75
5, 333312, Note_on_c, 3, 57, 75
5, 333500, Note_on_c, 3, 57, 0
5, 333500, Note_on_c, 3, 65, 0
5, 333504, Note_on_c, 3, 60, 75
5, 333692, Note_on_c, 3, 60, 0
5, 333696, Note_on_c, 3, 65, 75
5, 333696, Note_on_c, 3, 57, 75
5, 333884, Note_on_c, 3, 57, 0
5, 333884, Note_on_c, 3, 65, 0
5, 333888, Note_on_c, 3, 60, 75
5, 334076, Note_on_c, 3, 60, 0
5, 334080, Note_on_c, 3, 65, 75
5, 334080, Note_on_c, 3, 57, 75
5, 334268, Note_on_c, 3, 57, 0
5, 334268, Note_on_c, 3, 65, 0
5, 334272, Note_on_c, 3, 60, 75
5, 334460, Note_on_c, 3, 60, 0
5, 334464, Note_on_c, 3, 65, 75
5, 334464, Note_on_c, 3, 57, 75
5, 334652, Note_on_c, 3, 57, 0
5, 334652, Note_on_c, 3, 65, 0
5, 334656, Note_on_c, 3, 60, 75
5, 334844, Note_on_c, 3, 60, 0
5, 334848, Note_on_c, 3, 65, 75
5, 334848, Note_on_c, 3, 57, 75
5, 335036, Note_on_c, 3, 57, 0
5, 335036, Note_on_c, 3, 65, 0
5, 335040, Note_on_c, 3, 60, 75
5, 335228, Note_on_c, 3, 60, 0
5, 335232, Note_on_c, 3, 65, 75
5, 335232, Note_on_c, 3, 57, 75
5, 335420, Note_on_c, 3, 57, 0
5, 335420, Note_on_c, 3, 65, 0
5, 335424, Note_on_c, 3, 60, 75
5, 335612, Note_on_c, 3, 60, 0
5, 335616, Note_on_c, 3, 65, 75
5, 335616, Note_on_c, 3, 57, 75
5, 335804, Note_on_c, 3, 57, 0
5, 335804, Note_on_c, 3, 65, 0
5, 335808, Note_on_c, 3, 60, 75
5, 335996, Note_on_c, 3, 60, 0
5, 336000, Note_on_c, 3, 65, 75
5, 336000, Note_on_c, 3, 57, 75
5, 336188, Note_on_c, 3, 57, 0
5, 336188, Note_on_c, 3, 65, 0
5, 336192, Note_on_c, 3, 60, 75
5, 336380, Note_on_c, 3, 60, 0
5, 345600, Note_on_c, 3, 81, 92
5, 345600, Note_on_c, 3, 77, 92
5, 345600, Note_on_c, 3, 65, 92
5, 345788, Note_on_c, 3, 65, 0
5, 345788, Note_on_c, 3, 81, 0
5, 345792, Note_on_c, 3, 84, 92
5, 345792, Note_on_c, 3, 60, 92
5, 345980, Note_on_c, 3, 60, 0
5, 345980, Note_on_c, 3, 84, 0
5, 345980, Note_on_c, 3, 77, 0
5, 345984, Note_on_c, 3, 81, 92
5, 345984, Note_on_c, 3, 72, 92
5, 345984, Note_on_c, 3, 65, 92
5, 346172, Note_on_c, 3, 65, 0
5, 346172, Note_on_c, 3, 81, 0
5, 346176, Note_on_c, 3, 79, 92
5, 346176, Note_on_c, 3, 67, 92
5, 346364, Note_on_c, 3, 67, 0
5, 346364, Note_on_c, 3, 79, 0
5, 346368, Note_on_c, 3, 77, 92
5, 346368, Note_on_c, 3, 69, 92
5, 346556, Note_on_c, 3, 69, 0
5, 346560, Note_on_c, 3, 65, 92
5, 346748, Note_on_c, 3, 65, 0
5, 346748, Note_on_c, 3, 77, 0
5, 346748, Note_on_c, 3, 72, 0
5, 346752, Note_on_c, 3, 79, 92
5, 346752, Note_on_c, 3, 76, 92
5, 346752, Note_on_c, 3, 67, 92
5, 346940, Note_on_c, 3, 67, 0
5, 346944, Note_on_c, 3, 64, 92
5, 347132, Note_on_c, 3, 64, 0
5, 347132, Note_on_c, 3, 76, 0
5, 347132, Note_on_c, 3, 79, 0
5, 347136, Note_on_c, 3, 81, 92
5, 347136, Note_on_c, 3, 77, 92
5, 347136, Note_on_c, 3, 65, 92
5, 347324, Note_on_c, 3, 65, 0
5, 347324, Note_on_c, 3, 81, 0
5, 347328, Note_on_c, 3, 84, 92
5, 347328, Note_on_c, 3, 60, 92
5, 347516, Note_on_c, 3, 60, 0
5, 347516, Note_on_c, 3, 84, 0
5, 347516, Note_on_c, 3, 77, 0
5, 347520, Note_on_c, 3, 81, 92
5, 347520, Note_on_c, 3, 65, 92
5, 347536, Note_on_c, 3, 72, 92
5, 347708, Note_on_c, 3, 65, 0
5, 347708, Note_on_c, 3, 81, 0
5, 347712, Note_on_c, 3, 79, 92
5, 347712, Note_on_c, 3, 67, 92
5, 347900, Note_on_c, 3, 67, 0
5, 347900, Note_on_c, 3, 79, 0
5, 347904, Note_on_c, 3, 77, 92
5, 347904, Note_on_c, 3, 69, 92
5, 348092, Note_on_c, 3, 69, 0
5, 348096, Note_on_c, 3, 65, 92
5, 348272, Note_on_c, 3, 76, 92
5, 348284, Note_on_c, 3, 65, 0
5, 348284, Note_on_c, 3, 77, 0
5, 348288, Note_on_c, 3, 79, 92
5, 348288, Note_on_c, 3, 67, 92
5, 348300, Note_on_c, 3, 72, 0
5, 348476, Note_on_c, 3, 67, 0
5, 348480, Note_on_c, 3, 64, 92
5, 348652, Note_on_c, 3, 76, 0
5, 348668, Note_on_c, 3, 64, 0
5, 348668, Note_on_c, 3, 79, 0
5, 348672, Note_on_c, 3, 81, 92
5, 348672, Note_on_c, 3, 77, 92
5, 348672, Note_on_c, 3, 65, 92
5, 348860, Note_on_c, 3, 65, 0
5, 348860, Note_on_c, 3, 81, 0
5, 348864, Note_on_c, 3, 84, 92
5, 348864, Note_on_c, 3, 60, 92
5, 349052, Note_on_c, 3, 60, 0
5, 349052, Note_on_c, 3, 84, 0
5, 349052, Note_on_c, 3, 77, 0
5, 349056, Note_on_c, 3, 81, 92
5, 349056, Note_on_c, 3, 65, 92
5, 349072, Note_on_c, 3, 72, 92
5, 349244, Note_on_c, 3, 65, 0
5, 349244, Note_on_c, 3, 81, 0
5, 349248, Note_on_c, 3, 79, 92
5, 349248, Note_on_c, 3, 67, 92
5, 349436, Note_on_c, 3, 67, 0
5, 349436, Note_on_c, 3, 79, 0
5, 349440, Note_on_c, 3, 77, 92
5, 349440, Note_on_c, 3, 69, 92
5, 349628, Note_on_c, 3, 69, 0
5, 349632, Note_on_c, 3, 65, 92
5, 349820, Note_on_c, 3, 65, 0
5, 349820, Note_on_c, 3, 77, 0
5, 349824, Note_on_c, 3, 76, 92
5, 349824, Note_on_c, 3, 81, 92
5, 349824, Note_on_c, 3, 67, 92
5, 349836, Note_on_c, 3, 72, 0
5, 350012, Note_on_c, 3, 67, 0
5, 350012, Note_on_c, 3, 81, 0
5, 350016, Note_on_c, 3, 79, 92
5, 350016, Note_on_c, 3, 64, 92
5, 350204, Note_on_c, 3, 64, 0
5, 350204, Note_on_c, 3, 79, 0
5, 350204, Note_on_c, 3, 76, 0
5, 350208, Note_on_c, 3, 65, 92
5, 350208, Note_on_c, 3, 77, 92
5, 350396, Note_on_c, 3, 77, 0
5, 350396, Note_on_c, 3, 65, 0
5, 350400, Note_on_c, 3, 65, 92
5, 350588, Note_on_c, 3, 65, 0
5, 350592, Note_on_c, 3, 69, 92
5, 350780, Note_on_c, 3, 69, 0
5, 350784, Note_on_c, 3, 65, 92
5, 350972, Note_on_c, 3, 65, 0
5, 350976, Note_on_c, 3, 72, 92
5, 351164, Note_on_c, 3, 72, 0
5, 351168, Note_on_c, 3, 69, 92
5, 351356, Note_on_c, 3, 69, 0
5, 351360, Note_on_c, 3, 72, 92
5, 351548, Note_on_c, 3, 72, 0
5, 351552, Note_on_c, 3, 69, 92
5, 351740, Note_on_c, 3, 69, 0
5, 351744, Note_on_c, 3, 77, 69
5, 351744, Note_on_c, 3, 65, 69
5, 351932, Note_on_c, 3, 65, 0
5, 351932, Note_on_c, 3, 77, 0
5, 351936, Note_on_c, 3, 76, 69
5, 351936, Note_on_c, 3, 72, 69
5, 352124, Note_on_c, 3, 72, 0
5, 352124, Note_on_c, 3, 76, 0
5, 352128, Note_on_c, 3, 77, 69
5, 352128, Note_on_c, 3, 69, 69
5, 352316, Note_on_c, 3, 69, 0
5, 352316, Note_on_c, 3, 77, 0
5, 352320, Note_on_c, 3, 76, 69
5, 352320, Note_on_c, 3, 72, 69
5, 352508, Note_on_c, 3, 72, 0
5, 352508, Note_on_c, 3, 76, 0
5, 352512, Note_on_c, 3, 77, 69
5, 352512, Note_on_c, 3, 65, 69
5, 352700, Note_on_c, 3, 65, 0
5, 352704, Note_on_c, 3, 72, 69
5, 352892, Note_on_c, 3, 72, 0
5, 352892, Note_on_c, 3, 77, 0
5, 352896, Note_on_c, 3, 81, 69
5, 352896, Note_on_c, 3, 69, 69
5, 353084, Note_on_c, 3, 69, 0
5, 353088, Note_on_c, 3, 72, 69
5, 353276, Note_on_c, 3, 72, 0
5, 353276, Note_on_c, 3, 81, 0
5, 353280, Note_on_c, 3, 81, 69
5, 353280, Note_on_c, 3, 64, 69
5, 353468, Note_on_c, 3, 64, 0
5, 353468, Note_on_c, 3, 81, 0
5, 353472, Note_on_c, 3, 79, 69
5, 353472, Note_on_c, 3, 73, 69
5, 353660, Note_on_c, 3, 73, 0
5, 353660, Note_on_c, 3, 79, 0
5, 353664, Note_on_c, 3, 79, 69
5, 353664, Note_on_c, 3, 69, 69
5, 353852, Note_on_c, 3, 69, 0
5, 353852, Note_on_c, 3, 79, 0
5, 353856, Note_on_c, 3, 78, 69
5, 353856, Note_on_c, 3, 73, 69
5, 354044, Note_on_c, 3, 73, 0
5, 354044, Note_on_c, 3, 78, 0
5, 354048, Note_on_c, 3, 79, 69
5, 354048, Note_on_c, 3, 64, 69
5, 354236, Note_on_c, 3, 64, 0
5, 354240, Note_on_c, 3, 73, 69
5, 354428, Note_on_c, 3, 73, 0
5, 354428, Note_on_c, 3, 79, 0
5, 354432, Note_on_c, 3, 69, 69
5, 354620, Note_on_c, 3, 69, 0
5, 354624, Note_on_c, 3, 73, 69
5, 354812, Note_on_c, 3, 73, 0
5, 354816, Note_on_c, 3, 88, 69
5, 354816, Note_on_c, 3, 60, 69
5, 355004, Note_on_c, 3, 60, 0
5, 355004, Note_on_c, 3, 88, 0
5, 355008, Note_on_c, 3, 87, 69
5, 355008, Note_on_c, 3, 69, 69
5, 355196, Note_on_c, 3, 69, 0
5, 355196, Note_on_c, 3, 87, 0
5, 355200, Note_on_c, 3, 88, 69
5, 355200, Note_on_c, 3, 64, 69
5, 355388, Note_on_c, 3, 64, 0
5, 355388, Note_on_c, 3, 88, 0
5, 355392, Note_on_c, 3, 87, 69
5, 355392, Note_on_c, 3, 69, 69
5, 355580, Note_on_c, 3, 69, 0
5, 355580, Note_on_c, 3, 87, 0
5, 355584, Note_on_c, 3, 88, 69
5, 355584, Note_on_c, 3, 60, 69
5, 355772, Note_on_c, 3, 60, 0
5, 355776, Note_on_c, 3, 69, 69
5, 355964, Note_on_c, 3, 69, 0
5, 355964, Note_on_c, 3, 88, 0
5, 355968, Note_on_c, 3, 76, 69
5, 355968, Note_on_c, 3, 64, 69
5, 356156, Note_on_c, 3, 64, 0
5, 356160, Note_on_c, 3, 69, 69
5, 356348, Note_on_c, 3, 69, 0
5, 356348, Note_on_c, 3, 76, 0
5, 356352, Note_on_c, 3, 79, 69
5, 356352, Note_on_c, 3, 62, 69
5, 356540, Note_on_c, 3, 62, 0
5, 356540, Note_on_c, 3, 79, 0
5, 356544, Note_on_c, 3, 77, 69
5, 356544, Note_on_c, 3, 69, 69
5, 356732, Note_on_c, 3, 69, 0
5, 356732, Note_on_c, 3, 77, 0
5, 356736, Note_on_c, 3, 77, 69
5, 356736, Note_on_c, 3, 65, 69
5, 356912, Note_on_c, 3, 69, 69
5, 356924, Note_on_c, 3, 65, 0
5, 356924, Note_on_c, 3, 77, 0
5, 356928, Note_on_c, 3, 76, 69
5, 357100, Note_on_c, 3, 69, 0
5, 357116, Note_on_c, 3, 76, 0
5, 357120, Note_on_c, 3, 77, 69
5, 357120, Note_on_c, 3, 62, 69
5, 357308, Note_on_c, 3, 62, 0
5, 357312, Note_on_c, 3, 69, 69
5, 357500, Note_on_c, 3, 69, 0
5, 357500, Note_on_c, 3, 77, 0
5, 357504, Note_on_c, 3, 65, 69
5, 357692, Note_on_c, 3, 65, 0
5, 357696, Note_on_c, 3, 69, 69
5, 357884, Note_on_c, 3, 69, 0
5, 357888, Note_on_c, 3, 77, 69
5, 357888, Note_on_c, 3, 62, 69
5, 358076, Note_on_c, 3, 62, 0
5, 358076, Note_on_c, 3, 77, 0
5, 358080, Note_on_c, 3, 76, 69
5, 358080, Note_on_c, 3, 69, 69
5, 358268, Note_on_c, 3, 69, 0
5, 358268, Note_on_c, 3, 76, 0
5, 358272, Note_on_c, 3, 77, 69
5, 358272, Note_on_c, 3, 65, 69
5, 358460, Note_on_c, 3, 65, 0
5, 358460, Note_on_c, 3, 77, 0
5, 358464, Note_on_c, 3, 76, 69
5, 358464, Note_on_c, 3, 69, 69
5, 358652, Note_on_c, 3, 69, 0
5, 358652, Note_on_c, 3, 76, 0
5, 358656, Note_on_c, 3, 77, 69
5, 358656, Note_on_c, 3, 60, 69
5, 358844, Note_on_c, 3, 60, 0
5, 358848, Note_on_c, 3, 68, 69
5, 359036, Note_on_c, 3, 68, 0
5, 359036, Note_on_c, 3, 77, 0
5, 359040, Note_on_c, 3, 77, 69
5, 359040, Note_on_c, 3, 62, 69
5, 359228, Note_on_c, 3, 62, 0
5, 359232, Note_on_c, 3, 68, 69
5, 359420, Note_on_c, 3, 68, 0
5, 359420, Note_on_c, 3, 77, 0
5, 359424, Note_on_c, 3, 77, 69
5, 359424, Note_on_c, 3, 59, 69
5, 359612, Note_on_c, 3, 59, 0
5, 359612, Note_on_c, 3, 77, 0
5, 359616, Note_on_c, 3, 89, 69
5, 359616, Note_on_c, 3, 67, 69
5, 359804, Note_on_c, 3, 67, 0
5, 359804, Note_on_c, 3, 89, 0
5, 359808, Note_on_c, 3, 89, 69
5, 359808, Note_on_c, 3, 62, 69
5, 359996, Note_on_c, 3, 62, 0
5, 359996, Note_on_c, 3, 89, 0
5, 360000, Note_on_c, 3, 88, 69
5, 360000, Note_on_c, 3, 67, 69
5, 360188, Note_on_c, 3, 67, 0
5, 360188, Note_on_c, 3, 88, 0
5, 360192, Note_on_c, 3, 89, 69
5, 360192, Note_on_c, 3, 59, 69
5, 360380, Note_on_c, 3, 59, 0
5, 360384, Note_on_c, 3, 67, 69
5, 360572, Note_on_c, 3, 67, 0
5, 360572, Note_on_c, 3, 89, 0
5, 360576, Note_on_c, 3, 62, 69
5, 360764, Note_on_c, 3, 62, 0
5, 360768, Note_on_c, 3, 67, 69
5, 360956, Note_on_c, 3, 67, 0
5, 360960, Note_on_c, 3, 89, 75
5, 360960, Note_on_c, 3, 67, 75
5, 360960, Note_on_c, 3, 59, 75
5, 361052, Note_on_c, 3, 89, 0
5, 361152, Note_on_c, 3, 88, 75
5, 361244, Note_on_c, 3, 88, 0
5, 361344, Note_on_c, 3, 86, 75
5, 361436, Note_on_c, 3, 86, 0
5, 361536, Note_on_c, 3, 84, 75
5, 361628, Note_on_c, 3, 84, 0
5, 361724, Note_on_c, 3, 59, 0
5, 361724, Note_on_c, 3, 67, 0
5, 361728, Note_on_c, 3, 83, 75
5, 361820, Note_on_c, 3, 83, 0
5, 361920, Note_on_c, 3, 81, 75
5, 362012, Note_on_c, 3, 81, 0
5, 362112, Note_on_c, 3, 59, 75
5, 362112, Note_on_c, 3, 67, 75
5, 362112, Note_on_c, 3, 79, 75
5, 362204, Note_on_c, 3, 79, 0
5, 362304, Note_on_c, 3, 77, 75
5, 362396, Note_on_c, 3, 77, 0
5, 362492, Note_on_c, 3, 67, 0
5, 362492, Note_on_c, 3, 59, 0
5, 362496, Note_on_c, 3, 76, 75
5, 362496, Note_on_c, 3, 67, 75
5, 362496, Note_on_c, 3, 60, 75
5, 362588, Note_on_c, 3, 76, 0
5, 362688, Note_on_c, 3, 77, 75
5, 362780, Note_on_c, 3, 77, 0
5, 362880, Note_on_c, 3, 79, 75
5, 362972, Note_on_c, 3, 79, 0
5, 363072, Note_on_c, 3, 81, 75
5, 363164, Note_on_c, 3, 81, 0
5, 363260, Note_on_c, 3, 60, 0
5, 363260, Note_on_c, 3, 67, 0
5, 363264, Note_on_c, 3, 83, 75
5, 363356, Note_on_c, 3, 83, 0
5, 363456, Note_on_c, 3, 84, 75
5, 363548, Note_on_c, 3, 84, 0
5, 363648, Note_on_c, 3, 86, 75
5, 363648, Note_on_c, 3, 67, 75
5, 363648, Note_on_c, 3, 60, 75
5, 363740, Note_on_c, 3, 86, 0
5, 363840, Note_on_c, 3, 88, 75
5, 363932, Note_on_c, 3, 88, 0
5, 364028, Note_on_c, 3, 60, 0
5, 364028, Note_on_c, 3, 67, 0
5, 364032, Note_on_c, 3, 89, 75
5, 364032, Note_on_c, 3, 67, 75
5, 364032, Note_on_c, 3, 59, 75
5, 364220, Note_on_c, 3, 89, 0
5, 364224, Note_on_c, 3, 88, 75
5, 364412, Note_on_c, 3, 88, 0
5, 364416, Note_on_c, 3, 86, 75
5, 364604, Note_on_c, 3, 86, 0
5, 364608, Note_on_c, 3, 84, 75
5, 364796, Note_on_c, 3, 84, 0
5, 364796, Note_on_c, 3, 59, 0
5, 364796, Note_on_c, 3, 67, 0
5, 364800, Note_on_c, 3, 83, 75
5, 364988, Note_on_c, 3, 83, 0
5, 364992, Note_on_c, 3, 81, 75
5, 365180, Note_on_c, 3, 81, 0
5, 365184, Note_on_c, 3, 79, 75
5, 365184, Note_on_c, 3, 67, 75
5, 365184, Note_on_c, 3, 59, 75
5, 365372, Note_on_c, 3, 79, 0
5, 365376, Note_on_c, 3, 77, 75
5, 365564, Note_on_c, 3, 77, 0
5, 365564, Note_on_c, 3, 59, 0
5, 365564, Note_on_c, 3, 67, 0
5, 365568, Note_on_c, 3, 76, 75
5, 365568, Note_on_c, 3, 67, 75
5, 365568, Note_on_c, 3, 60, 75
5, 365756, Note_on_c, 3, 76, 0
5, 365760, Note_on_c, 3, 77, 75
5, 365948, Note_on_c, 3, 77, 0
5, 365952, Note_on_c, 3, 79, 75
5, 366140, Note_on_c, 3, 79, 0
5, 366144, Note_on_c, 3, 81, 75
5, 366332, Note_on_c, 3, 81, 0
5, 366332, Note_on_c, 3, 60, 0
5, 366332, Note_on_c, 3, 67, 0
5, 366336, Note_on_c, 3, 83, 75
5, 366524, Note_on_c, 3, 83, 0
5, 366528, Note_on_c, 3, 84, 75
5, 366716, Note_on_c, 3, 84, 0
5, 366720, Note_on_c, 3, 86, 75
5, 366720, Note_on_c, 3, 67, 75
5, 366720, Note_on_c, 3, 60, 75
5, 366908, Note_on_c, 3, 86, 0
5, 366912, Note_on_c, 3, 88, 75
5, 367100, Note_on_c, 3, 88, 0
5, 367100, Note_on_c, 3, 60, 0
5, 367100, Note_on_c, 3, 67, 0
5, 367104, Note_on_c, 3, 86, 75
5, 367104, Note_on_c, 3, 64, 75
5, 367104, Note_on_c, 3, 56, 75
5, 367292, Note_on_c, 3, 86, 0
5, 367296, Note_on_c, 3, 84, 75
5, 367484, Note_on_c, 3, 84, 0
5, 367488, Note_on_c, 3, 83, 75
5, 367676, Note_on_c, 3, 83, 0
5, 367680, Note_on_c, 3, 81, 75
5, 367868, Note_on_c, 3, 81, 0
5, 367868, Note_on_c, 3, 56, 0
5, 367868, Note_on_c, 3, 64, 0
5, 367872, Note_on_c, 3, 80, 75
5, 368060, Note_on_c, 3, 80, 0
5, 368064, Note_on_c, 3, 77, 75
5, 368252, Note_on_c, 3, 77, 0
5, 368256, Note_on_c, 3, 76, 75
5, 368256, Note_on_c, 3, 56, 75
5, 368256, Note_on_c, 3, 64, 75
5, 368444, Note_on_c, 3, 76, 0
5, 368448, Note_on_c, 3, 74, 75
5, 368636, Note_on_c, 3, 74, 0
5, 368636, Note_on_c, 3, 64, 0
5, 368636, Note_on_c, 3, 56, 0
5, 368640, Note_on_c, 3, 72, 75
5, 368640, Note_on_c, 3, 64, 75
5, 368640, Note_on_c, 3, 57, 75
5, 368828, Note_on_c, 3, 72, 0
5, 368832, Note_on_c, 3, 74, 75
5, 369020, Note_on_c, 3, 74, 0
5, 369024, Note_on_c, 3, 76, 75
5, 369212, Note_on_c, 3, 76, 0
5, 369216, Note_on_c, 3, 77, 75
5, 369404, Note_on_c, 3, 77, 0
5, 369404, Note_on_c, 3, 57, 0
5, 369404, Note_on_c, 3, 64, 0
5, 369408, Note_on_c, 3, 80, 75
5, 369596, Note_on_c, 3, 80, 0
5, 369600, Note_on_c, 3, 81, 75
5, 369788, Note_on_c, 3, 81, 0
5, 369792, Note_on_c, 3, 83, 75
5, 369792, Note_on_c, 3, 64, 75
5, 369792, Note_on_c, 3, 57, 75
5, 369980, Note_on_c, 3, 83, 0
5, 369984, Note_on_c, 3, 84, 75
5, 370172, Note_on_c, 3, 84, 0
5, 370172, Note_on_c, 3, 57, 0
5, 370172, Note_on_c, 3, 64, 0
5, 370176, Note_on_c, 3, 82, 75
5, 370364, Note_on_c, 3, 82, 0
5, 370368, Note_on_c, 3, 81, 75
5, 370556, Note_on_c, 3, 81, 0
5, 370560, Note_on_c, 3, 79, 75
5, 370748, Note_on_c, 3, 79, 0
5, 370752, Note_on_c, 3, 77, 75
5, 370940, Note_on_c, 3, 77, 0
5, 370944, Note_on_c, 3, 76, 75
5, 371132, Note_on_c, 3, 76, 0
5, 371136, Note_on_c, 3, 74, 75
5, 371324, Note_on_c, 3, 74, 0
5, 371328, Note_on_c, 3, 72, 75
5, 371516, Note_on_c, 3, 72, 0
5, 371520, Note_on_c, 3, 70, 75
5, 371708, Note_on_c, 3, 70, 0
5, 371712, Note_on_c, 3, 69, 75
5, 371900, Note_on_c, 3, 69, 0
5, 371904, Note_on_c, 3, 74, 75
5, 372092, Note_on_c, 3, 74, 0
5, 372096, Note_on_c, 3, 73, 75
5, 372284, Note_on_c, 3, 73, 0
5, 372288, Note_on_c, 3, 76, 75
5, 372476, Note_on_c, 3, 76, 0
5, 372480, Note_on_c, 3, 74, 75
5, 372668, Note_on_c, 3, 74, 0
5, 372672, Note_on_c, 3, 77, 75
5, 372860, Note_on_c, 3, 77, 0
5, 372864, Note_on_c, 3, 76, 75
5, 373052, Note_on_c, 3, 76, 0
5, 373056, Note_on_c, 3, 79, 75
5, 373244, Note_on_c, 3, 79, 0
5, 373248, Note_on_c, 3, 77, 75
5, 373436, Note_on_c, 3, 77, 0
5, 373440, Note_on_c, 3, 81, 75
5, 373628, Note_on_c, 3, 81, 0
5, 373632, Note_on_c, 3, 79, 75
5, 373820, Note_on_c, 3, 79, 0
5, 373824, Note_on_c, 3, 82, 75
5, 374012, Note_on_c, 3, 82, 0
5, 374016, Note_on_c, 3, 81, 75
5, 374204, Note_on_c, 3, 81, 0
5, 374208, Note_on_c, 3, 77, 75
5, 374396, Note_on_c, 3, 77, 0
5, 374400, Note_on_c, 3, 74, 75
5, 374588, Note_on_c, 3, 74, 0
5, 374592, Note_on_c, 3, 72, 75
5, 374780, Note_on_c, 3, 72, 0
5, 374784, Note_on_c, 3, 79, 75
5, 374784, Note_on_c, 3, 74, 75
5, 374784, Note_on_c, 3, 71, 75
5, 375164, Note_on_c, 3, 71, 0
5, 375164, Note_on_c, 3, 74, 0
5, 375164, Note_on_c, 3, 79, 0
5, 378624, Note_on_c, 3, 75, 69
5, 378624, Note_on_c, 3, 72, 69
5, 379004, Note_on_c, 3, 72, 0
5, 379004, Note_on_c, 3, 75, 0
5, 379008, Note_on_c, 3, 75, 69
5, 379008, Note_on_c, 3, 72, 69
5, 379388, Note_on_c, 3, 72, 0
5, 379388, Note_on_c, 3, 75, 0
5, 379392, Note_on_c, 3, 75, 69
5, 379392, Note_on_c, 3, 72, 69
5, 379392, Note_on_c, 3, 63, 69
5, 379392, Note_on_c, 3, 60, 69
5, 380156, Note_on_c, 3, 60, 0
5, 380156, Note_on_c, 3, 75, 0
5, 380156, Note_on_c, 3, 72, 0
5, 380156, Note_on_c, 3, 63, 0
5, 380160, Note_on_c, 3, 79, 69
5, 380160, Note_on_c, 3, 75, 69
5, 380160, Note_on_c, 3, 67, 69
5, 380160, Note_on_c, 3, 63, 69
5, 380348, Note_on_c, 3, 63, 0
5, 380348, Note_on_c, 3, 79, 0
5, 380348, Note_on_c, 3, 75, 0
5, 380348, Note_on_c, 3, 67, 0
5, 380352, Note_on_c, 3, 77, 69
5, 380352, Note_on_c, 3, 74, 69
5, 380352, Note_on_c, 3, 65, 69
5, 380352, Note_on_c, 3, 62, 69
5, 380528, Note_on_c, 3, 60, 69
5, 380540, Note_on_c, 3, 62, 0
5, 380540, Note_on_c, 3, 65, 0
5, 380540, Note_on_c, 3, 77, 0
5, 380540, Note_on_c, 3, 74, 0
5, 380544, Note_on_c, 3, 75, 69
5, 380544, Note_on_c, 3, 72, 69
5, 380544, Note_on_c, 3, 63, 69
5, 380716, Note_on_c, 3, 60, 0
5, 380732, Note_on_c, 3, 75, 0
5, 380732, Note_on_c, 3, 72, 0
5, 380732, Note_on_c, 3, 63, 0
5, 380736, Note_on_c, 3, 77, 69
5, 380736, Note_on_c, 3, 74, 69
5, 380736, Note_on_c, 3, 65, 69
5, 380736, Note_on_c, 3, 62, 69
5, 380924, Note_on_c, 3, 62, 0
5, 380924, Note_on_c, 3, 77, 0
5, 380924, Note_on_c, 3, 74, 0
5, 380924, Note_on_c, 3, 65, 0
5, 380928, Note_on_c, 3, 79, 69
5, 380928, Note_on_c, 3, 75, 69
5, 380928, Note_on_c, 3, 67, 69
5, 380928, Note_on_c, 3, 63, 69
5, 381116, Note_on_c, 3, 63, 0
5, 381116, Note_on_c, 3, 79, 0
5, 381116, Note_on_c, 3, 75, 0
5, 381116, Note_on_c, 3, 67, 0
5, 381120, Note_on_c, 3, 75, 69
5, 381120, Note_on_c, 3, 63, 69
5, 381308, Note_on_c, 3, 63, 0
5, 381308, Note_on_c, 3, 75, 0
5, 381312, Note_on_c, 3, 72, 69
5, 381312, Note_on_c, 3, 60, 69
5, 381692, Note_on_c, 3, 60, 0
5, 381692, Note_on_c, 3, 72, 0
5, 381696, Note_on_c, 3, 74, 69
5, 381696, Note_on_c, 3, 71, 69
5, 381696, Note_on_c, 3, 62, 69
5, 381696, Note_on_c, 3, 59, 69
5, 382076, Note_on_c, 3, 59, 0
5, 382076, Note_on_c, 3, 74, 0
5, 382076, Note_on_c, 3, 71, 0
5, 382076, Note_on_c, 3, 62, 0
5, 382080, Note_on_c, 3, 74, 69
5, 382080, Note_on_c, 3, 71, 69
5, 382080, Note_on_c, 3, 62, 69
5, 382080, Note_on_c, 3, 59, 69
5, 382460, Note_on_c, 3, 59, 0
5, 382460, Note_on_c, 3, 74, 0
5, 382460, Note_on_c, 3, 71, 0
5, 382460, Note_on_c, 3, 62, 0
5, 382464, Note_on_c, 3, 74, 69
5, 382464, Note_on_c, 3, 71, 69
5, 382464, Note_on_c, 3, 62, 69
5, 382464, Note_on_c, 3, 59, 69
5, 383228, Note_on_c, 3, 59, 0
5, 383228, Note_on_c, 3, 74, 0
5, 383228, Note_on_c, 3, 71, 0
5, 383228, Note_on_c, 3, 62, 0
5, 383232, Note_on_c, 3, 77, 69
5, 383232, Note_on_c, 3, 74, 69
5, 383232, Note_on_c, 3, 65, 69
5, 383232, Note_on_c, 3, 62, 69
5, 383420, Note_on_c, 3, 62, 0
5, 383420, Note_on_c, 3, 77, 0
5, 383420, Note_on_c, 3, 74, 0
5, 383420, Note_on_c, 3, 65, 0
5, 383424, Note_on_c, 3, 75, 69
5, 383424, Note_on_c, 3, 72, 69
5, 383424, Note_on_c, 3, 63, 69
5, 383424, Note_on_c, 3, 60, 69
5, 383600, Note_on_c, 3, 71, 69
5, 383600, Note_on_c, 3, 62, 69
5, 383600, Note_on_c, 3, 59, 69
5, 383612, Note_on_c, 3, 60, 0
5, 383612, Note_on_c, 3, 63, 0
5, 383612, Note_on_c, 3, 75, 0
5, 383612, Note_on_c, 3, 72, 0
5, 383616, Note_on_c, 3, 74, 69
5, 383788, Note_on_c, 3, 59, 0
5, 383788, Note_on_c, 3, 62, 0
5, 383788, Note_on_c, 3, 71, 0
5, 383804, Note_on_c, 3, 74, 0
5, 383808, Note_on_c, 3, 75, 69
5, 383808, Note_on_c, 3, 72, 69
5, 383808, Note_on_c, 3, 63, 69
5, 383824, Note_on_c, 3, 60, 69
5, 383996, Note_on_c, 3, 63, 0
5, 383996, Note_on_c, 3, 75, 0
5, 383996, Note_on_c, 3, 72, 0
5, 384000, Note_on_c, 3, 77, 69
5, 384000, Note_on_c, 3, 74, 69
5, 384000, Note_on_c, 3, 65, 69
5, 384000, Note_on_c, 3, 62, 69
5, 384012, Note_on_c, 3, 60, 0
5, 384188, Note_on_c, 3, 65, 0
5, 384188, Note_on_c, 3, 77, 0
5, 384188, Note_on_c, 3, 74, 0
5, 384188, Note_on_c, 3, 62, 0
5, 384192, Note_on_c, 3, 74, 69
5, 384192, Note_on_c, 3, 62, 69
5, 384380, Note_on_c, 3, 62, 0
5, 384380, Note_on_c, 3, 74, 0
5, 384384, Note_on_c, 3, 71, 69
5, 384384, Note_on_c, 3, 59, 69
5, 384764, Note_on_c, 3, 71, 0
5, 385148, Note_on_c, 3, 59, 0
5, 385536, Note_on_c, 3, 72, 82
5, 385536, Note_on_c, 3, 67, 82
5, 385916, Note_on_c, 3, 67, 0
5, 385916, Note_on_c, 3, 72, 0
5, 385920, Note_on_c, 3, 70, 82
5, 385920, Note_on_c, 3, 64, 82
5, 386300, Note_on_c, 3, 64, 0
5, 386300, Note_on_c, 3, 70, 0
5, 386304, Note_on_c, 3, 68, 82
5, 386304, Note_on_c, 3, 63, 82
5, 386684, Note_on_c, 3, 63, 0
5, 386684, Note_on_c, 3, 68, 0
5, 386688, Note_on_c, 3, 67, 82
5, 386688, Note_on_c, 3, 62, 82
5, 387068, Note_on_c, 3, 62, 0
5, 387068, Note_on_c, 3, 67, 0
5, 387264, Note_on_c, 3, 60, 82
5, 387452, Note_on_c, 3, 60, 0
5, 387456, Note_on_c, 3, 63, 82
5, 387644, Note_on_c, 3, 63, 0
5, 387648, Note_on_c, 3, 66, 82
5, 387836, Note_on_c, 3, 66, 0
5, 387840, Note_on_c, 3, 72, 82
5, 388028, Note_on_c, 3, 72, 0
5, 388032, Note_on_c, 3, 66, 82
5, 388220, Note_on_c, 3, 66, 0
5, 388224, Note_on_c, 3, 63, 82
5, 388412, Note_on_c, 3, 63, 0
5, 388416, Note_on_c, 3, 60, 82
5, 388604, Note_on_c, 3, 60, 0
5, 388800, Note_on_c, 3, 60, 82
5, 388988, Note_on_c, 3, 60, 0
5, 388992, Note_on_c, 3, 63, 82
5, 389180, Note_on_c, 3, 63, 0
5, 389184, Note_on_c, 3, 66, 82
5, 389372, Note_on_c, 3, 66, 0
5, 389376, Note_on_c, 3, 74, 82
5, 389564, Note_on_c, 3, 74, 0
5, 389568, Note_on_c, 3, 66, 82
5, 389756, Note_on_c, 3, 66, 0
5, 389760, Note_on_c, 3, 63, 82
5, 389948, Note_on_c, 3, 63, 0
5, 389952, Note_on_c, 3, 60, 82
5, 390140, Note_on_c, 3, 60, 0
5, 390336, Note_on_c, 3, 62, 82
5, 390524, Note_on_c, 3, 62, 0
5, 390544, Note_on_c, 3, 67, 82
5, 390720, Note_on_c, 3, 71, 82
5, 390732, Note_on_c, 3, 67, 0
5, 390908, Note_on_c, 3, 71, 0
5, 390912, Note_on_c, 3, 74, 82
5, 391100, Note_on_c, 3, 74, 0
5, 391104, Note_on_c, 3, 71, 82
5, 391292, Note_on_c, 3, 71, 0
5, 391296, Note_on_c, 3, 67, 82
5, 391484, Note_on_c, 3, 67, 0
5, 391488, Note_on_c, 3, 62, 82
5, 391676, Note_on_c, 3, 62, 0
5, 391680, Note_on_c, 3, 60, 82
5, 391868, Note_on_c, 3, 60, 0
5, 391872, Note_on_c, 3, 62, 82
5, 392060, Note_on_c, 3, 62, 0
5, 392064, Note_on_c, 3, 67, 82
5, 392252, Note_on_c, 3, 67, 0
5, 392256, Note_on_c, 3, 71, 82
5, 392444, Note_on_c, 3, 71, 0
5, 392448, Note_on_c, 3, 75, 82
5, 392636, Note_on_c, 3, 75, 0
5, 392640, Note_on_c, 3, 74, 82
5, 392828, Note_on_c, 3, 74, 0
5, 392832, Note_on_c, 3, 72, 82
5, 393020, Note_on_c, 3, 72, 0
5, 393024, Note_on_c, 3, 71, 82
5, 393212, Note_on_c, 3, 71, 0
5, 393216, Note_on_c, 3, 72, 82
5, 393404, Note_on_c, 3, 72, 0
5, 393408, Note_on_c, 3, 60, 82
5, 393596, Note_on_c, 3, 60, 0
5, 393600, Note_on_c, 3, 63, 82
5, 393788, Note_on_c, 3, 63, 0
5, 393792, Note_on_c, 3, 66, 82
5, 393980, Note_on_c, 3, 66, 0
5, 393984, Note_on_c, 3, 72, 82
5, 394172, Note_on_c, 3, 72, 0
5, 394176, Note_on_c, 3, 66, 82
5, 394364, Note_on_c, 3, 66, 0
5, 394368, Note_on_c, 3, 63, 82
5, 394556, Note_on_c, 3, 63, 0
5, 394560, Note_on_c, 3, 60, 82
5, 394748, Note_on_c, 3, 60, 0
5, 394944, Note_on_c, 3, 60, 82
5, 395132, Note_on_c, 3, 60, 0
5, 395136, Note_on_c, 3, 63, 82
5, 395324, Note_on_c, 3, 63, 0
5, 395328, Note_on_c, 3, 66, 82
5, 395516, Note_on_c, 3, 66, 0
5, 395520, Note_on_c, 3, 72, 82
5, 395708, Note_on_c, 3, 72, 0
5, 395712, Note_on_c, 3, 66, 82
5, 395900, Note_on_c, 3, 66, 0
5, 395904, Note_on_c, 3, 63, 82
5, 396092, Note_on_c, 3, 63, 0
5, 396096, Note_on_c, 3, 60, 82
5, 396284, Note_on_c, 3, 60, 0
5, 396480, Note_on_c, 3, 59, 82
5, 396668, Note_on_c, 3, 59, 0
5, 396672, Note_on_c, 3, 62, 82
5, 396860, Note_on_c, 3, 62, 0
5, 396864, Note_on_c, 3, 67, 82
5, 397052, Note_on_c, 3, 67, 0
5, 397248, Note_on_c, 3, 60, 82
5, 397436, Note_on_c, 3, 60, 0
5, 397440, Note_on_c, 3, 63, 82
5, 397628, Note_on_c, 3, 63, 0
5, 397632, Note_on_c, 3, 66, 82
5, 397820, Note_on_c, 3, 66, 0
5, 398016, Note_on_c, 3, 59, 82
5, 398204, Note_on_c, 3, 59, 0
5, 398208, Note_on_c, 3, 62, 82
5, 398396, Note_on_c, 3, 62, 0
5, 398400, Note_on_c, 3, 67, 82
5, 398588, Note_on_c, 3, 67, 0
5, 398784, Note_on_c, 3, 60, 50
5, 398972, Note_on_c, 3, 60, 0
5, 398976, Note_on_c, 3, 63, 50
5, 399164, Note_on_c, 3, 63, 0
5, 399168, Note_on_c, 3, 66, 50
5, 399356, Note_on_c, 3, 66, 0
5, 399552, Note_on_c, 3, 59, 50
5, 399740, Note_on_c, 3, 59, 0
5, 399744, Note_on_c, 3, 62, 50
5, 399932, Note_on_c, 3, 62, 0
5, 399936, Note_on_c, 3, 59, 50
5, 400124, Note_on_c, 3, 59, 0
5, 400320, Note_on_c, 3, 61, 50
5, 400508, Note_on_c, 3, 61, 0
5, 400512, Note_on_c, 3, 64, 50
5, 400700, Note_on_c, 3, 64, 0
5, 400704, Note_on_c, 3, 61, 50
5, 400892, Note_on_c, 3, 61, 0
5, 401088, Note_on_c, 3, 62, 50
5, 401276, Note_on_c, 3, 62, 0
5, 401280, Note_on_c, 3, 65, 50
5, 401468, Note_on_c, 3, 65, 0
5, 401472, Note_on_c, 3, 62, 50
5, 401660, Note_on_c, 3, 62, 0
5, 401856, Note_on_c, 3, 59, 50
5, 402044, Note_on_c, 3, 59, 0
5, 402048, Note_on_c, 3, 62, 50
5, 402236, Note_on_c, 3, 62, 0
5, 402240, Note_on_c, 3, 59, 50
5, 402428, Note_on_c, 3, 59, 0
5, 402432, Note_on_c, 3, 60, 60
5, 402620, Note_on_c, 3, 60, 0
5, 402624, Note_on_c, 3, 64, 60
5, 402812, Note_on_c, 3, 64, 0
5, 402816, Note_on_c, 3, 67, 60
5, 403004, Note_on_c, 3, 67, 0
5, 403008, Note_on_c, 3, 65, 60
5, 403196, Note_on_c, 3, 65, 0
5, 403200, Note_on_c, 3, 64, 60
5, 403388, Note_on_c, 3, 64, 0
5, 403392, Note_on_c, 3, 67, 60
5, 403580, Note_on_c, 3, 67, 0
5, 403584, Note_on_c, 3, 72, 60
5, 403772, Note_on_c, 3, 72, 0
5, 403776, Note_on_c, 3, 74, 60
5, 403964, Note_on_c, 3, 74, 0
5, 403968, Note_on_c, 3, 76, 60
5, 404156, Note_on_c, 3, 76, 0
5, 404160, Note_on_c, 3, 72, 60
5, 404348, Note_on_c, 3, 72, 0
5, 404352, Note_on_c, 3, 67, 60
5, 404540, Note_on_c, 3, 67, 0
5, 404544, Note_on_c, 3, 65, 60
5, 404732, Note_on_c, 3, 65, 0
5, 404736, Note_on_c, 3, 64, 60
5, 404924, Note_on_c, 3, 64, 0
5, 404928, Note_on_c, 3, 67, 60
5, 405116, Note_on_c, 3, 67, 0
5, 405120, Note_on_c, 3, 72, 60
5, 405308, Note_on_c, 3, 72, 0
5, 405312, Note_on_c, 3, 74, 60
5, 405500, Note_on_c, 3, 74, 0
5, 405504, Note_on_c, 3, 76, 60
5, 405692, Note_on_c, 3, 76, 0
5, 405696, Note_on_c, 3, 69, 60
5, 405884, Note_on_c, 3, 69, 0
5, 405888, Note_on_c, 3, 73, 60
5, 406076, Note_on_c, 3, 73, 0
5, 406080, Note_on_c, 3, 76, 60
5, 406268, Note_on_c, 3, 76, 0
5, 406272, Note_on_c, 3, 79, 60
5, 406460, Note_on_c, 3, 79, 0
5, 406464, Note_on_c, 3, 73, 60
5, 406652, Note_on_c, 3, 73, 0
5, 406656, Note_on_c, 3, 76, 60
5, 406844, Note_on_c, 3, 76, 0
5, 406848, Note_on_c, 3, 79, 60
5, 407036, Note_on_c, 3, 79, 0
5, 407040, Note_on_c, 3, 85, 60
5, 407228, Note_on_c, 3, 85, 0
5, 407232, Note_on_c, 3, 76, 60
5, 407420, Note_on_c, 3, 76, 0
5, 407424, Note_on_c, 3, 79, 60
5, 407612, Note_on_c, 3, 79, 0
5, 407616, Note_on_c, 3, 85, 60
5, 407804, Note_on_c, 3, 85, 0
5, 407808, Note_on_c, 3, 88, 60
5, 408188, Note_on_c, 3, 88, 0
5, 408576, Note_on_c, 3, 74, 60
5, 408764, Note_on_c, 3, 74, 0
5, 408768, Note_on_c, 3, 69, 60
5, 408956, Note_on_c, 3, 69, 0
5, 408960, Note_on_c, 3, 65, 60
5, 409148, Note_on_c, 3, 65, 0
5, 409152, Note_on_c, 3, 64, 60
5, 409340, Note_on_c, 3, 64, 0
5, 409344, Note_on_c, 3, 62, 60
5, 409532, Note_on_c, 3, 62, 0
5, 409536, Note_on_c, 3, 65, 60
5, 409724, Note_on_c, 3, 65, 0
5, 409728, Note_on_c, 3, 69, 60
5, 409916, Note_on_c, 3, 69, 0
5, 409920, Note_on_c, 3, 73, 60
5, 410108, Note_on_c, 3, 73, 0
5, 410112, Note_on_c, 3, 74, 60
5, 410300, Note_on_c, 3, 74, 0
5, 410304, Note_on_c, 3, 69, 60
5, 410492, Note_on_c, 3, 69, 0
5, 410496, Note_on_c, 3, 65, 60
5, 410684, Note_on_c, 3, 65, 0
5, 410688, Note_on_c, 3, 64, 60
5, 410876, Note_on_c, 3, 64, 0
5, 410880, Note_on_c, 3, 62, 60
5, 411068, Note_on_c, 3, 62, 0
5, 411072, Note_on_c, 3, 65, 60
5, 411260, Note_on_c, 3, 65, 0
5, 411264, Note_on_c, 3, 69, 60
5, 411452, Note_on_c, 3, 69, 0
5, 411456, Note_on_c, 3, 72, 60
5, 411644, Note_on_c, 3, 72, 0
5, 411648, Note_on_c, 3, 71, 60
5, 411836, Note_on_c, 3, 71, 0
5, 411840, Note_on_c, 3, 67, 60
5, 412028, Note_on_c, 3, 67, 0
5, 412032, Note_on_c, 3, 71, 60
5, 412220, Note_on_c, 3, 71, 0
5, 412224, Note_on_c, 3, 74, 60
5, 412412, Note_on_c, 3, 74, 0
5, 412416, Note_on_c, 3, 77, 60
5, 412604, Note_on_c, 3, 77, 0
5, 412608, Note_on_c, 3, 71, 60
5, 412796, Note_on_c, 3, 71, 0
5, 412800, Note_on_c, 3, 74, 60
5, 412988, Note_on_c, 3, 74, 0
5, 412992, Note_on_c, 3, 77, 60
5, 413180, Note_on_c, 3, 77, 0
5, 413184, Note_on_c, 3, 83, 60
5, 413372, Note_on_c, 3, 83, 0
5, 413376, Note_on_c, 3, 74, 60
5, 413564, Note_on_c, 3, 74, 0
5, 413568, Note_on_c, 3, 77, 60
5, 413756, Note_on_c, 3, 77, 0
5, 413760, Note_on_c, 3, 83, 60
5, 413948, Note_on_c, 3, 83, 0
5, 413952, Note_on_c, 3, 86, 60
5, 414332, Note_on_c, 3, 86, 0
5, 414912, Note_on_c, 3, 79, 82
5, 415100, Note_on_c, 3, 79, 0
5, 415104, Note_on_c, 3, 76, 82
5, 415292, Note_on_c, 3, 76, 0
5, 415296, Note_on_c, 3, 72, 82
5, 415484, Note_on_c, 3, 72, 0
5, 415488, Note_on_c, 3, 71, 82
5, 415676, Note_on_c, 3, 71, 0
5, 415680, Note_on_c, 3, 67, 82
5, 415868, Note_on_c, 3, 67, 0
5, 415872, Note_on_c, 3, 74, 82
5, 416060, Note_on_c, 3, 74, 0
5, 416064, Note_on_c, 3, 71, 82
5, 416252, Note_on_c, 3, 71, 0
5, 416256, Note_on_c, 3, 72, 82
5, 416444, Note_on_c, 3, 72, 0
5, 416448, Note_on_c, 3, 67, 82
5, 416636, Note_on_c, 3, 67, 0
5, 416640, Note_on_c, 3, 76, 82
5, 416828, Note_on_c, 3, 76, 0
5, 416832, Note_on_c, 3, 72, 82
5, 417020, Note_on_c, 3, 72, 0
5, 417024, Note_on_c, 3, 74, 82
5, 417212, Note_on_c, 3, 74, 0
5, 417216, Note_on_c, 3, 67, 82
5, 417404, Note_on_c, 3, 67, 0
5, 417408, Note_on_c, 3, 77, 82
5, 417596, Note_on_c, 3, 77, 0
5, 417600, Note_on_c, 3, 74, 82
5, 417788, Note_on_c, 3, 74, 0
5, 417792, Note_on_c, 3, 76, 82
5, 417980, Note_on_c, 3, 76, 0
5, 417984, Note_on_c, 3, 72, 82
5, 418172, Note_on_c, 3, 72, 0
5, 418176, Note_on_c, 3, 84, 82
5, 418364, Note_on_c, 3, 84, 0
5, 418368, Note_on_c, 3, 79, 82
5, 418556, Note_on_c, 3, 79, 0
5, 418560, Note_on_c, 3, 83, 82
5, 418748, Note_on_c, 3, 83, 0
5, 418752, Note_on_c, 3, 79, 82
5, 418940, Note_on_c, 3, 79, 0
5, 418944, Note_on_c, 3, 86, 82
5, 419132, Note_on_c, 3, 86, 0
5, 419136, Note_on_c, 3, 83, 82
5, 419324, Note_on_c, 3, 83, 0
5, 419328, Note_on_c, 3, 84, 82
5, 419516, Note_on_c, 3, 84, 0
5, 419520, Note_on_c, 3, 79, 82
5, 419708, Note_on_c, 3, 79, 0
5, 419712, Note_on_c, 3, 88, 82
5, 419900, Note_on_c, 3, 88, 0
5, 419904, Note_on_c, 3, 84, 82
5, 420092, Note_on_c, 3, 84, 0
5, 420096, Note_on_c, 3, 86, 82
5, 420096, Note_on_c, 3, 71, 82
5, 420096, Note_on_c, 3, 59, 82
5, 420284, Note_on_c, 3, 86, 0
5, 420288, Note_on_c, 3, 79, 82
5, 420476, Note_on_c, 3, 79, 0
5, 420476, Note_on_c, 3, 59, 0
5, 420476, Note_on_c, 3, 71, 0
5, 420480, Note_on_c, 3, 89, 82
5, 420668, Note_on_c, 3, 89, 0
5, 420672, Note_on_c, 3, 86, 82
5, 420860, Note_on_c, 3, 86, 0
5, 420864, Note_on_c, 3, 88, 92
5, 420864, Note_on_c, 3, 72, 92
5, 420864, Note_on_c, 3, 60, 92
5, 421052, Note_on_c, 3, 88, 0
5, 421056, Note_on_c, 3, 84, 92
5, 421244, Note_on_c, 3, 84, 0
5, 421244, Note_on_c, 3, 60, 0
5, 421244, Note_on_c, 3, 72, 0
5, 421248, Note_on_c, 3, 79, 92
5, 421436, Note_on_c, 3, 79, 0
5, 421440, Note_on_c, 3, 79, 92
5, 421628, Note_on_c, 3, 79, 0
5, 421632, Note_on_c, 3, 81, 92
5, 421632, Note_on_c, 3, 65, 92
5, 421820, Note_on_c, 3, 65, 0
5, 421820, Note_on_c, 3, 81, 0
5, 421824, Note_on_c, 3, 84, 92
5, 421824, Note_on_c, 3, 69, 92
5, 422012, Note_on_c, 3, 69, 0
5, 422012, Note_on_c, 3, 84, 0
5, 422016, Note_on_c, 3, 86, 92
5, 422016, Note_on_c, 3, 71, 92
5, 422204, Note_on_c, 3, 71, 0
5, 422204, Note_on_c, 3, 86, 0
5, 422208, Note_on_c, 3, 89, 92
5, 422208, Note_on_c, 3, 74, 92
5, 422396, Note_on_c, 3, 74, 0
5, 422396, Note_on_c, 3, 89, 0
5, 422400, Note_on_c, 3, 79, 92
5, 422400, Note_on_c, 3, 64, 92
5, 422588, Note_on_c, 3, 64, 0
5, 422588, Note_on_c, 3, 79, 0
5, 422592, Note_on_c, 3, 83, 92
5, 422592, Note_on_c, 3, 67, 92
5, 422780, Note_on_c, 3, 67, 0
5, 422780, Note_on_c, 3, 83, 0
5, 422784, Note_on_c, 3, 84, 92
5, 422784, Note_on_c, 3, 69, 92
5, 422972, Note_on_c, 3, 69, 0
5, 422972, Note_on_c, 3, 84, 0
5, 422976, Note_on_c, 3, 88, 92
5, 422976, Note_on_c, 3, 72, 92
5, 423164, Note_on_c, 3, 72, 0
5, 423164, Note_on_c, 3, 88, 0
5, 423168, Note_on_c, 3, 77, 92
5, 423168, Note_on_c, 3, 62, 92
5, 423356, Note_on_c, 3, 62, 0
5, 423356, Note_on_c, 3, 77, 0
5, 423360, Note_on_c, 3, 81, 92
5, 423360, Note_on_c, 3, 65, 92
5, 423548, Note_on_c, 3, 65, 0
5, 423548, Note_on_c, 3, 81, 0
5, 423552, Note_on_c, 3, 83, 92
5, 423552, Note_on_c, 3, 67, 92
5, 423740, Note_on_c, 3, 67, 0
5, 423740, Note_on_c, 3, 83, 0
5, 423744, Note_on_c, 3, 86, 92
5, 423744, Note_on_c, 3, 71, 92
5, 423932, Note_on_c, 3, 71, 0
5, 423932, Note_on_c, 3, 86, 0
5, 423936, Note_on_c, 3, 76, 92
5, 423936, Note_on_c, 3, 60, 92
5, 424124, Note_on_c, 3, 60, 0
5, 424124, Note_on_c, 3, 76, 0
5, 424128, Note_on_c, 3, 80, 92
5, 424128, Note_on_c, 3, 64, 92
5, 424316, Note_on_c, 3, 64, 0
5, 424316, Note_on_c, 3, 80, 0
5, 424320, Note_on_c, 3, 81, 92
5, 424320, Note_on_c, 3, 66, 92
5, 424508, Note_on_c, 3, 66, 0
5, 424508, Note_on_c, 3, 81, 0
5, 424512, Note_on_c, 3, 84, 92
5, 424512, Note_on_c, 3, 69, 92
5, 424700, Note_on_c, 3, 69, 0
5, 424700, Note_on_c, 3, 84, 0
5, 424704, Note_on_c, 3, 74, 92
5, 424704, Note_on_c, 3, 59, 92
5, 424892, Note_on_c, 3, 59, 0
5, 424892, Note_on_c, 3, 74, 0
5, 424896, Note_on_c, 3, 78, 92
5, 424896, Note_on_c, 3, 62, 92
5, 425084, Note_on_c, 3, 62, 0
5, 425084, Note_on_c, 3, 78, 0
5, 425088, Note_on_c, 3, 79, 92
5, 425088, Note_on_c, 3, 64, 92
5, 425276, Note_on_c, 3, 64, 0
5, 425276, Note_on_c, 3, 79, 0
5, 425280, Note_on_c, 3, 83, 92
5, 425280, Note_on_c, 3, 67, 92
5, 425468, Note_on_c, 3, 67, 0
5, 425468, Note_on_c, 3, 83, 0
5, 425472, Note_on_c, 3, 72, 92
5, 425472, Note_on_c, 3, 66, 92
5, 425472, Note_on_c, 3, 62, 92
5, 425472, Note_on_c, 3, 60, 92
5, 425472, Note_on_c, 3, 57, 92
5, 425660, Note_on_c, 3, 72, 0
5, 425664, Note_on_c, 3, 74, 92
5, 425852, Note_on_c, 3, 74, 0
5, 425856, Note_on_c, 3, 78, 92
5, 426044, Note_on_c, 3, 78, 0
5, 426048, Note_on_c, 3, 81, 92
5, 426236, Note_on_c, 3, 81, 0
5, 426236, Note_on_c, 3, 57, 0
5, 426236, Note_on_c, 3, 66, 0
5, 426236, Note_on_c, 3, 62, 0
5, 426236, Note_on_c, 3, 60, 0
5, 426240, Note_on_c, 3, 84, 92
5, 426428, Note_on_c, 3, 84, 0
5, 426432, Note_on_c, 3, 81, 92
5, 426620, Note_on_c, 3, 81, 0
5, 426624, Note_on_c, 3, 78, 92
5, 426812, Note_on_c, 3, 78, 0
5, 426816, Note_on_c, 3, 72, 92
5, 427004, Note_on_c, 3, 72, 0
5, 427008, Note_on_c, 3, 71, 92
5, 427008, Note_on_c, 3, 67, 92
5, 427008, Note_on_c, 3, 62, 92
5, 427008, Note_on_c, 3, 59, 92
5, 427008, Note_on_c, 3, 55, 92
5, 427196, Note_on_c, 3, 71, 0
5, 427200, Note_on_c, 3, 74, 92
5, 427388, Note_on_c, 3, 74, 0
5, 427392, Note_on_c, 3, 79, 92
5, 427580, Note_on_c, 3, 79, 0
5, 427584, Note_on_c, 3, 83, 92
5, 427772, Note_on_c, 3, 83, 0
5, 427772, Note_on_c, 3, 55, 0
5, 427772, Note_on_c, 3, 67, 0
5, 427772, Note_on_c, 3, 62, 0
5, 427772, Note_on_c, 3, 59, 0
5, 427776, Note_on_c, 3, 86, 92
5, 427964, Note_on_c, 3, 86, 0
5, 427968, Note_on_c, 3, 83, 92
5, 428156, Note_on_c, 3, 83, 0
5, 428160, Note_on_c, 3, 79, 92
5, 428348, Note_on_c, 3, 79, 0
5, 428352, Note_on_c, 3, 74, 92
5, 428540, Note_on_c, 3, 74, 0
5, 428544, Note_on_c, 3, 72, 92
5, 428732, Note_on_c, 3, 72, 0
5, 428736, Note_on_c, 3, 74, 92
5, 428924, Note_on_c, 3, 74, 0
5, 428928, Note_on_c, 3, 78, 92
5, 429116, Note_on_c, 3, 78, 0
5, 429120, Note_on_c, 3, 81, 92
5, 429308, Note_on_c, 3, 81, 0
5, 429312, Note_on_c, 3, 84, 92
5, 429500, Note_on_c, 3, 84, 0
5, 429504, Note_on_c, 3, 81, 92
5, 429692, Note_on_c, 3, 81, 0
5, 429696, Note_on_c, 3, 78, 92
5, 429884, Note_on_c, 3, 78, 0
5, 429888, Note_on_c, 3, 72, 92
5, 430076, Note_on_c, 3, 72, 0
5, 430080, Note_on_c, 3, 71, 72
5, 430268, Note_on_c, 3, 71, 0
5, 430272, Note_on_c, 3, 67, 72
5, 430460, Note_on_c, 3, 67, 0
5, 430464, Note_on_c, 3, 71, 72
5, 430652, Note_on_c, 3, 71, 0
5, 430656, Note_on_c, 3, 74, 72
5, 430844, Note_on_c, 3, 74, 0
5, 430848, Note_on_c, 3, 79, 72
5, 431036, Note_on_c, 3, 79, 0
5, 431040, Note_on_c, 3, 78, 72
5, 431228, Note_on_c, 3, 78, 0
5, 431232, Note_on_c, 3, 79, 72
5, 431420, Note_on_c, 3, 79, 0
5, 431424, Note_on_c, 3, 78, 72
5, 431612, Note_on_c, 3, 78, 0
5, 431616, Note_on_c, 3, 79, 72
5, 431804, Note_on_c, 3, 79, 0
5, 431808, Note_on_c, 3, 67, 72
5, 431996, Note_on_c, 3, 67, 0
5, 432000, Note_on_c, 3, 71, 72
5, 432188, Note_on_c, 3, 71, 0
5, 432192, Note_on_c, 3, 74, 72
5, 432380, Note_on_c, 3, 74, 0
5, 432384, Note_on_c, 3, 79, 72
5, 432384, Note_on_c, 3, 67, 72
5, 432572, Note_on_c, 3, 67, 0
5, 432572, Note_on_c, 3, 79, 0
5, 432576, Note_on_c, 3, 78, 72
5, 432592, Note_on_c, 3, 66, 72
5, 432764, Note_on_c, 3, 78, 0
5, 432768, Note_on_c, 3, 79, 72
5, 432768, Note_on_c, 3, 67, 72
5, 432780, Note_on_c, 3, 66, 0
5, 432956, Note_on_c, 3, 67, 0
5, 432956, Note_on_c, 3, 79, 0
5, 432960, Note_on_c, 3, 78, 72
5, 432960, Note_on_c, 3, 66, 72
5, 433148, Note_on_c, 3, 66, 0
5, 433148, Note_on_c, 3, 78, 0
5, 433152, Note_on_c, 3, 79, 72
5, 433152, Note_on_c, 3, 67, 72
5, 433340, Note_on_c, 3, 67, 0
5, 433532, Note_on_c, 3, 79, 0
5, 433536, Note_on_c, 3, 67, 72
5, 433724, Note_on_c, 3, 67, 0
5, 433728, Note_on_c, 3, 69, 72
5, 433916, Note_on_c, 3, 69, 0
5, 433920, Note_on_c, 3, 65, 72
5, 434108, Note_on_c, 3, 65, 0
5, 434112, Note_on_c, 3, 64, 72
5, 434300, Note_on_c, 3, 64, 0
5, 434304, Note_on_c, 3, 65, 72
5, 434492, Note_on_c, 3, 65, 0
5, 434496, Note_on_c, 3, 67, 72
5, 434684, Note_on_c, 3, 67, 0
5, 434688, Note_on_c, 3, 64, 72
5, 434876, Note_on_c, 3, 64, 0
5, 434880, Note_on_c, 3, 63, 72
5, 435068, Note_on_c, 3, 63, 0
5, 435072, Note_on_c, 3, 64, 72
5, 435260, Note_on_c, 3, 64, 0
5, 435264, Note_on_c, 3, 65, 72
5, 435452, Note_on_c, 3, 65, 0
5, 435456, Note_on_c, 3, 62, 72
5, 435644, Note_on_c, 3, 62, 0
5, 435648, Note_on_c, 3, 61, 72
5, 435836, Note_on_c, 3, 61, 0
5, 435840, Note_on_c, 3, 62, 72
5, 436028, Note_on_c, 3, 62, 0
5, 436032, Note_on_c, 3, 64, 72
5, 436220, Note_on_c, 3, 64, 0
5, 436224, Note_on_c, 3, 60, 116
5, 436480, Note_on_c, 3, 60, 0
5, 460800, Note_on_c, 3, 64, 60
5, 460992, Note_on_c, 3, 67, 60
5, 461180, Note_on_c, 3, 67, 0
5, 461180, Note_on_c, 3, 64, 0
5, 461184, Note_on_c, 3, 72, 60
5, 461184, Note_on_c, 3, 64, 60
5, 461372, Note_on_c, 3, 64, 0
5, 461376, Note_on_c, 3, 67, 60
5, 461564, Note_on_c, 3, 67, 0
5, 461564, Note_on_c, 3, 72, 0
5, 461568, Note_on_c, 3, 72, 60
5, 461568, Note_on_c, 3, 60, 60
5, 461756, Note_on_c, 3, 60, 0
5, 461760, Note_on_c, 3, 67, 60
5, 461948, Note_on_c, 3, 67, 0
5, 461948, Note_on_c, 3, 72, 0
5, 461952, Note_on_c, 3, 72, 60
5, 461952, Note_on_c, 3, 64, 60
5, 462140, Note_on_c, 3, 64, 0
5, 462144, Note_on_c, 3, 67, 60
5, 462332, Note_on_c, 3, 67, 0
5, 462332, Note_on_c, 3, 72, 0
5, 462336, Note_on_c, 3, 74, 60
5, 462336, Note_on_c, 3, 55, 60
5, 462524, Note_on_c, 3, 55, 0
5, 462528, Note_on_c, 3, 67, 60
5, 462716, Note_on_c, 3, 67, 0
5, 462716, Note_on_c, 3, 74, 0
5, 462720, Note_on_c, 3, 74, 60
5, 462720, Note_on_c, 3, 65, 60
5, 462908, Note_on_c, 3, 65, 0
5, 462908, Note_on_c, 3, 74, 0
5, 462912, Note_on_c, 3, 76, 60
5, 462912, Note_on_c, 3, 67, 60
5, 463100, Note_on_c, 3, 67, 0
5, 463100, Note_on_c, 3, 76, 0
5, 463104, Note_on_c, 3, 72, 60
5, 463104, Note_on_c, 3, 64, 60
5, 463292, Note_on_c, 3, 64, 0
5, 463296, Note_on_c, 3, 67, 60
5, 463484, Note_on_c, 3, 67, 0
5, 463484, Note_on_c, 3, 72, 0
5, 463488, Note_on_c, 3, 72, 60
5, 463488, Note_on_c, 3, 60, 60
5, 463676, Note_on_c, 3, 60, 0
5, 463680, Note_on_c, 3, 67, 60
5, 463868, Note_on_c, 3, 67, 0
5, 463868, Note_on_c, 3, 72, 0
5, 463872, Note_on_c, 3, 74, 60
5, 463872, Note_on_c, 3, 55, 60
5, 464060, Note_on_c, 3, 55, 0
5, 464064, Note_on_c, 3, 67, 60
5, 464252, Note_on_c, 3, 67, 0
5, 464252, Note_on_c, 3, 74, 0
5, 464256, Note_on_c, 3, 74, 60
5, 464256, Note_on_c, 3, 65, 60
5, 464444, Note_on_c, 3, 65, 0
5, 464444, Note_on_c, 3, 74, 0
5, 464448, Note_on_c, 3, 76, 60
5, 464448, Note_on_c, 3, 67, 60
5, 464636, Note_on_c, 3, 67, 0
5, 464636, Note_on_c, 3, 76, 0
5, 464640, Note_on_c, 3, 72, 60
5, 464640, Note_on_c, 3, 64, 60
5, 464828, Note_on_c, 3, 64, 0
5, 464832, Note_on_c, 3, 67, 60
5, 465020, Note_on_c, 3, 67, 0
5, 465020, Note_on_c, 3, 72, 0
5, 465024, Note_on_c, 3, 77, 60
5, 465024, Note_on_c, 3, 74, 60
5, 465024, Note_on_c, 3, 59, 60
5, 465024, Note_on_c, 3, 55, 60
5, 465212, Note_on_c, 3, 55, 0
5, 465212, Note_on_c, 3, 59, 0
5, 465216, Note_on_c, 3, 67, 60
5, 465404, Note_on_c, 3, 67, 0
5, 465404, Note_on_c, 3, 74, 0
5, 465404, Note_on_c, 3, 77, 0
5, 465408, Note_on_c, 3, 76, 60
5, 465408, Note_on_c, 3, 72, 60
5, 465408, Note_on_c, 3, 60, 60
5, 465596, Note_on_c, 3, 60, 0
5, 465600, Note_on_c, 3, 67, 60
5, 465788, Note_on_c, 3, 67, 0
5, 465792, Note_on_c, 3, 66, 60
5, 465980, Note_on_c, 3, 66, 0
5, 465984, Note_on_c, 3, 67, 60
5, 466172, Note_on_c, 3, 67, 0
5, 466172, Note_on_c, 3, 72, 0
5, 466172, Note_on_c, 3, 76, 0
5, 466176, Note_on_c, 3, 74, 60
5, 466176, Note_on_c, 3, 71, 60
5, 466176, Note_on_c, 3, 66, 60
5, 466364, Note_on_c, 3, 66, 0
5, 466368, Note_on_c, 3, 67, 60
5, 466556, Note_on_c, 3, 67, 0
5, 466556, Note_on_c, 3, 71, 0
5, 466556, Note_on_c, 3, 74, 0
5, 466560, Note_on_c, 3, 66, 60
5, 466748, Note_on_c, 3, 66, 0
5, 466752, Note_on_c, 3, 67, 60
5, 466940, Note_on_c, 3, 67, 0
5, 466944, Note_on_c, 3, 55, 60
5, 467132, Note_on_c, 3, 55, 0
5, 467136, Note_on_c, 3, 62, 60
5, 467324, Note_on_c, 3, 62, 0
5, 467328, Note_on_c, 3, 74, 60
5, 467328, Note_on_c, 3, 71, 60
5, 467328, Note_on_c, 3, 59, 60
5, 467516, Note_on_c, 3, 59, 0
5, 467520, Note_on_c, 3, 62, 60
5, 467708, Note_on_c, 3, 62, 0
5, 467708, Note_on_c, 3, 71, 0
5, 467708, Note_on_c, 3, 74, 0
5, 467712, Note_on_c, 3, 74, 60
5, 467712, Note_on_c, 3, 71, 60
5, 467712, Note_on_c, 3, 55, 60
5, 467900, Note_on_c, 3, 55, 0
5, 467904, Note_on_c, 3, 62, 60
5, 468092, Note_on_c, 3, 62, 0
5, 468092, Note_on_c, 3, 71, 0
5, 468092, Note_on_c, 3, 74, 0
5, 468096, Note_on_c, 3, 74, 60
5, 468096, Note_on_c, 3, 71, 60
5, 468096, Note_on_c, 3, 59, 60
5, 468284, Note_on_c, 3, 59, 0
5, 468288, Note_on_c, 3, 62, 60
5, 468476, Note_on_c, 3, 62, 0
5, 468476, Note_on_c, 3, 71, 0
5, 468476, Note_on_c, 3, 74, 0
5, 468480, Note_on_c, 3, 76, 60
5, 468480, Note_on_c, 3, 72, 60
5, 468480, Note_on_c, 3, 55, 60
5, 468668, Note_on_c, 3, 55, 0
5, 468672, Note_on_c, 3, 64, 60
5, 468860, Note_on_c, 3, 64, 0
5, 468860, Note_on_c, 3, 72, 0
5, 468860, Note_on_c, 3, 76, 0
5, 468864, Note_on_c, 3, 76, 60
5, 468864, Note_on_c, 3, 60, 60
5, 469052, Note_on_c, 3, 60, 0
5, 469052, Note_on_c, 3, 76, 0
5, 469056, Note_on_c, 3, 77, 60
5, 469056, Note_on_c, 3, 64, 60
5, 469232, Note_on_c, 3, 55, 60
5, 469244, Note_on_c, 3, 64, 0
5, 469244, Note_on_c, 3, 77, 0
5, 469248, Note_on_c, 3, 74, 60
5, 469420, Note_on_c, 3, 55, 0
5, 469440, Note_on_c, 3, 62, 60
5, 469616, Note_on_c, 3, 59, 60
5, 469628, Note_on_c, 3, 62, 0
5, 469628, Note_on_c, 3, 74, 0
5, 469632, Note_on_c, 3, 74, 60
5, 469632, Note_on_c, 3, 71, 60
5, 469804, Note_on_c, 3, 59, 0
5, 469824, Note_on_c, 3, 62, 60
5, 470012, Note_on_c, 3, 62, 0
5, 470012, Note_on_c, 3, 71, 0
5, 470012, Note_on_c, 3, 74, 0
5, 470016, Note_on_c, 3, 76, 60
5, 470016, Note_on_c, 3, 72, 60
5, 470016, Note_on_c, 3, 55, 60
5, 470204, Note_on_c, 3, 55, 0
5, 470208, Note_on_c, 3, 64, 60
5, 470396, Note_on_c, 3, 64, 0
5, 470396, Note_on_c, 3, 72, 0
5, 470396, Note_on_c, 3, 76, 0
5, 470400, Note_on_c, 3, 76, 60
5, 470400, Note_on_c, 3, 60, 60
5, 470588, Note_on_c, 3, 60, 0
5, 470588, Note_on_c, 3, 76, 0
5, 470592, Note_on_c, 3, 77, 60
5, 470592, Note_on_c, 3, 64, 60
5, 470768, Note_on_c, 3, 55, 60
5, 470780, Note_on_c, 3, 64, 0
5, 470780, Note_on_c, 3, 77, 0
5, 470784, Note_on_c, 3, 74, 60
5, 470956, Note_on_c, 3, 55, 0
5, 470976, Note_on_c, 3, 62, 60
5, 471164, Note_on_c, 3, 62, 0
5, 471164, Note_on_c, 3, 74, 0
5, 471168, Note_on_c, 3, 79, 60
5, 471168, Note_on_c, 3, 71, 60
5, 471168, Note_on_c, 3, 59, 60
5, 471168, Note_on_c, 3, 55, 60
5, 471356, Note_on_c, 3, 55, 0
5, 471356, Note_on_c, 3, 59, 0
5, 471360, Note_on_c, 3, 62, 60
5, 471548, Note_on_c, 3, 62, 0
5, 471548, Note_on_c, 3, 71, 0
5, 471548, Note_on_c, 3, 79, 0
5, 471552, Note_on_c, 3, 77, 60
5, 471552, Note_on_c, 3, 74, 60
5, 472316, Note_on_c, 3, 74, 0
5, 472316, Note_on_c, 3, 77, 0
5, 472320, Note_on_c, 3, 76, 60
5, 472320, Note_on_c, 3, 72, 60
5, 472700, Note_on_c, 3, 72, 0
5, 472700, Note_on_c, 3, 76, 0
5, 473280, Note_on_c, 3, 79, 60
5, 473468, Note_on_c, 3, 79, 0
5, 473472, Note_on_c, 3, 78, 60
5, 473660, Note_on_c, 3, 78, 0
5, 473664, Note_on_c, 3, 79, 60
5, 473852, Note_on_c, 3, 79, 0
5, 473856, Note_on_c, 3, 77, 60
5, 474044, Note_on_c, 3, 77, 0
5, 474048, Note_on_c, 3, 76, 60
5, 474236, Note_on_c, 3, 76, 0
5, 474240, Note_on_c, 3, 74, 60
5, 474428, Note_on_c, 3, 74, 0
5, 474432, Note_on_c, 3, 72, 60
5, 474620, Note_on_c, 3, 72, 0
5, 474624, Note_on_c, 3, 81, 82
5, 474812, Note_on_c, 3, 81, 0
5, 474816, Note_on_c, 3, 80, 82
5, 475004, Note_on_c, 3, 80, 0
5, 475008, Note_on_c, 3, 81, 82
5, 475196, Note_on_c, 3, 81, 0
5, 475200, Note_on_c, 3, 77, 82
5, 475388, Note_on_c, 3, 77, 0
5, 475392, Note_on_c, 3, 74, 82
5, 475772, Note_on_c, 3, 74, 0
5, 476160, Note_on_c, 3, 79, 82
5, 476348, Note_on_c, 3, 79, 0
5, 476352, Note_on_c, 3, 77, 82
5, 476540, Note_on_c, 3, 77, 0
5, 476544, Note_on_c, 3, 79, 82
5, 476732, Note_on_c, 3, 79, 0
5, 476736, Note_on_c, 3, 76, 82
5, 476924, Note_on_c, 3, 76, 0
5, 476928, Note_on_c, 3, 72, 82
5, 477308, Note_on_c, 3, 72, 0
5, 477696, Note_on_c, 3, 71, 82
5, 477884, Note_on_c, 3, 71, 0
5, 477888, Note_on_c, 3, 72, 82
5, 478076, Note_on_c, 3, 72, 0
5, 478080, Note_on_c, 3, 74, 82
5, 478268, Note_on_c, 3, 74, 0
5, 478272, Note_on_c, 3, 76, 82
5, 478460, Note_on_c, 3, 76, 0
5, 478464, Note_on_c, 3, 77, 82
5, 478844, Note_on_c, 3, 77, 0
5, 479424, Note_on_c, 3, 76, 82
5, 479600, Note_on_c, 3, 62, 82
5, 479612, Note_on_c, 3, 76, 0
5, 479616, Note_on_c, 3, 77, 82
5, 479788, Note_on_c, 3, 62, 0
5, 479804, Note_on_c, 3, 77, 0
5, 479808, Note_on_c, 3, 79, 82
5, 479808, Note_on_c, 3, 64, 82
5, 479996, Note_on_c, 3, 64, 0
5, 479996, Note_on_c, 3, 79, 0
5, 480000, Note_on_c, 3, 81, 82
5, 480000, Note_on_c, 3, 65, 82
5, 480188, Note_on_c, 3, 65, 0
5, 480188, Note_on_c, 3, 81, 0
5, 480192, Note_on_c, 3, 83, 82
5, 480192, Note_on_c, 3, 67, 82
5, 480380, Note_on_c, 3, 67, 0
5, 480380, Note_on_c, 3, 83, 0
5, 480384, Note_on_c, 3, 84, 82
5, 480384, Note_on_c, 3, 69, 82
5, 480572, Note_on_c, 3, 69, 0
5, 480572, Note_on_c, 3, 84, 0
5, 480576, Note_on_c, 3, 86, 82
5, 480576, Note_on_c, 3, 71, 82
5, 480764, Note_on_c, 3, 71, 0
5, 480764, Note_on_c, 3, 86, 0
5, 480768, Note_on_c, 3, 88, 82
5, 480768, Note_on_c, 3, 72, 82
5, 480956, Note_on_c, 3, 72, 0
5, 480956, Note_on_c, 3, 88, 0
5, 480960, Note_on_c, 3, 86, 82
5, 480960, Note_on_c, 3, 71, 82
5, 481148, Note_on_c, 3, 71, 0
5, 481148, Note_on_c, 3, 86, 0
5, 481152, Note_on_c, 3, 84, 82
5, 481152, Note_on_c, 3, 69, 82
5, 481340, Note_on_c, 3, 69, 0
5, 481340, Note_on_c, 3, 84, 0
5, 481344, Note_on_c, 3, 83, 82
5, 481344, Note_on_c, 3, 67, 82
5, 481532, Note_on_c, 3, 67, 0
5, 481532, Note_on_c, 3, 83, 0
5, 481536, Note_on_c, 3, 81, 82
5, 481536, Note_on_c, 3, 65, 82
5, 481724, Note_on_c, 3, 65, 0
5, 481724, Note_on_c, 3, 81, 0
5, 481728, Note_on_c, 3, 79, 82
5, 481728, Note_on_c, 3, 64, 82
5, 481916, Note_on_c, 3, 64, 0
5, 481916, Note_on_c, 3, 79, 0
5, 481920, Note_on_c, 3, 77, 82
5, 481920, Note_on_c, 3, 62, 82
5, 482108, Note_on_c, 3, 62, 0
5, 482108, Note_on_c, 3, 77, 0
5, 482112, Note_on_c, 3, 76, 82
5, 482112, Note_on_c, 3, 60, 82
5, 482300, Note_on_c, 3, 60, 0
5, 482300, Note_on_c, 3, 76, 0
5, 514560, Note_on_c, 3, 76, 82
5, 514560, Note_on_c, 3, 60, 82
5, 514560, Note_on_c, 3, 55, 82
5, 514748, Note_on_c, 3, 60, 0
5, 514748, Note_on_c, 3, 76, 0
5, 514752, Note_on_c, 3, 67, 82
5, 514752, Note_on_c, 3, 64, 82
5, 514940, Note_on_c, 3, 64, 0
5, 514940, Note_on_c, 3, 67, 0
5, 514944, Note_on_c, 3, 64, 82
5, 514944, Note_on_c, 3, 60, 82
5, 515132, Note_on_c, 3, 60, 0
5, 515132, Note_on_c, 3, 64, 0
5, 515136, Note_on_c, 3, 67, 82
5, 515136, Note_on_c, 3, 64, 82
5, 515324, Note_on_c, 3, 64, 0
5, 515324, Note_on_c, 3, 67, 0
5, 515328, Note_on_c, 3, 64, 82
5, 515328, Note_on_c, 3, 60, 82
5, 515516, Note_on_c, 3, 60, 0
5, 515516, Note_on_c, 3, 64, 0
5, 515520, Note_on_c, 3, 67, 82
5, 515520, Note_on_c, 3, 64, 82
5, 515696, Note_on_c, 3, 62, 82
5, 515708, Note_on_c, 3, 64, 0
5, 515708, Note_on_c, 3, 67, 0
5, 515712, Note_on_c, 3, 65, 82
5, 515884, Note_on_c, 3, 62, 0
5, 515900, Note_on_c, 3, 65, 0
5, 515904, Note_on_c, 3, 64, 82
5, 515904, Note_on_c, 3, 60, 82
5, 516092, Note_on_c, 3, 60, 0
5, 516092, Note_on_c, 3, 64, 0
5, 516092, Note_on_c, 3, 55, 0
5, 516096, Note_on_c, 3, 55, 82
5, 516096, Note_on_c, 3, 67, 82
5, 516096, Note_on_c, 3, 64, 82
5, 516284, Note_on_c, 3, 64, 0
5, 516284, Note_on_c, 3, 67, 0
5, 516288, Note_on_c, 3, 65, 82
5, 516288, Note_on_c, 3, 62, 82
5, 516476, Note_on_c, 3, 62, 0
5, 516476, Note_on_c, 3, 65, 0
5, 516480, Note_on_c, 3, 64, 82
5, 516480, Note_on_c, 3, 60, 82
5, 516668, Note_on_c, 3, 60, 0
5, 516668, Note_on_c, 3, 64, 0
5, 516672, Note_on_c, 3, 64, 82
5, 516672, Note_on_c, 3, 60, 82
5, 516860, Note_on_c, 3, 60, 0
5, 516860, Note_on_c, 3, 64, 0
5, 516864, Note_on_c, 3, 64, 82
5, 516864, Note_on_c, 3, 60, 82
5, 517052, Note_on_c, 3, 60, 0
5, 517052, Note_on_c, 3, 64, 0
5, 517056, Note_on_c, 3, 67, 82
5, 517056, Note_on_c, 3, 64, 82
5, 517244, Note_on_c, 3, 64, 0
5, 517244, Note_on_c, 3, 67, 0
5, 517248, Note_on_c, 3, 65, 82
5, 517248, Note_on_c, 3, 62, 82
5, 517436, Note_on_c, 3, 62, 0
5, 517436, Note_on_c, 3, 65, 0
5, 517440, Note_on_c, 3, 62, 82
5, 517440, Note_on_c, 3, 59, 82
5, 517628, Note_on_c, 3, 59, 0
5, 517628, Note_on_c, 3, 62, 0
5, 517628, Note_on_c, 3, 55, 0
5, 517632, Note_on_c, 3, 72, 92
5, 517632, Note_on_c, 3, 67, 92
5, 517632, Note_on_c, 3, 64, 92
5, 518012, Note_on_c, 3, 64, 0
5, 518012, Note_on_c, 3, 67, 0
5, 518012, Note_on_c, 3, 72, 0
5, 518016, Note_on_c, 3, 60, 92
5, 518204, Note_on_c, 3, 60, 0
5, 518208, Note_on_c, 3, 60, 92
5, 518396, Note_on_c, 3, 60, 0
5, 518400, Note_on_c, 3, 59, 92
5, 518588, Note_on_c, 3, 59, 0
5, 518592, Note_on_c, 3, 62, 92
5, 518780, Note_on_c, 3, 62, 0
5, 518784, Note_on_c, 3, 65, 92
5, 518972, Note_on_c, 3, 65, 0
5, 518976, Note_on_c, 3, 65, 92
5, 519164, Note_on_c, 3, 65, 0
5, 519168, Note_on_c, 3, 64, 92
5, 519356, Note_on_c, 3, 64, 0
5, 519360, Note_on_c, 3, 67, 92
5, 519548, Note_on_c, 3, 67, 0
5, 519552, Note_on_c, 3, 72, 92
5, 519740, Note_on_c, 3, 72, 0
5, 519744, Note_on_c, 3, 72, 92
5, 519932, Note_on_c, 3, 72, 0
5, 519936, Note_on_c, 3, 71, 92
5, 520124, Note_on_c, 3, 71, 0
5, 520128, Note_on_c, 3, 74, 92
5, 520316, Note_on_c, 3, 74, 0
5, 520320, Note_on_c, 3, 77, 92
5, 520508, Note_on_c, 3, 77, 0
5, 520512, Note_on_c, 3, 77, 92
5, 520700, Note_on_c, 3, 77, 0
5, 520704, Note_on_c, 3, 76, 82
5, 520944, Note_on_c, 3, 67, 82
5, 520988, Note_on_c, 3, 67, 0
5, 520992, Note_on_c, 3, 72, 82
5, 521036, Note_on_c, 3, 72, 0
5, 521040, Note_on_c, 3, 76, 82
5, 521084, Note_on_c, 3, 76, 0
5, 521084, Note_on_c, 3, 76, 0
5, 521088, Note_on_c, 3, 79, 82
5, 521468, Note_on_c, 3, 79, 0
5, 521712, Note_on_c, 3, 67, 82
5, 521756, Note_on_c, 3, 67, 0
5, 521760, Note_on_c, 3, 71, 82
5, 521804, Note_on_c, 3, 71, 0
5, 521808, Note_on_c, 3, 74, 82
5, 521852, Note_on_c, 3, 74, 0
5, 521856, Note_on_c, 3, 79, 82
5, 522236, Note_on_c, 3, 79, 0
5, 522480, Note_on_c, 3, 67, 82
5, 522524, Note_on_c, 3, 67, 0
5, 522528, Note_on_c, 3, 72, 82
5, 522572, Note_on_c, 3, 72, 0
5, 522576, Note_on_c, 3, 76, 82
5, 522620, Note_on_c, 3, 76, 0
5, 522624, Note_on_c, 3, 79, 82
5, 523004, Note_on_c, 3, 79, 0
5, 523248, Note_on_c, 3, 67, 82
5, 523292, Note_on_c, 3, 67, 0
5, 523296, Note_on_c, 3, 74, 82
5, 523340, Note_on_c, 3, 74, 0
5, 523344, Note_on_c, 3, 77, 82
5, 523388, Note_on_c, 3, 77, 0
5, 523392, Note_on_c, 3, 79, 82
5, 523772, Note_on_c, 3, 79, 0
5, 524016, Note_on_c, 3, 67, 82
5, 524060, Note_on_c, 3, 67, 0
5, 524064, Note_on_c, 3, 72, 82
5, 524108, Note_on_c, 3, 72, 0
5, 524112, Note_on_c, 3, 76, 82
5, 524156, Note_on_c, 3, 76, 0
5, 524160, Note_on_c, 3, 79, 82
5, 524540, Note_on_c, 3, 79, 0
5, 524784, Note_on_c, 3, 67, 82
5, 524828, Note_on_c, 3, 67, 0
5, 524832, Note_on_c, 3, 71, 82
5, 524876, Note_on_c, 3, 71, 0
5, 524880, Note_on_c, 3, 74, 82
5, 524924, Note_on_c, 3, 74, 0
5, 524928, Note_on_c, 3, 79, 82
5, 525308, Note_on_c, 3, 79, 0
5, 525552, Note_on_c, 3, 67, 82
5, 525596, Note_on_c, 3, 67, 0
5, 525600, Note_on_c, 3, 72, 82
5, 525644, Note_on_c, 3, 72, 0
5, 525648, Note_on_c, 3, 76, 82
5, 525692, Note_on_c, 3, 76, 0
5, 525696, Note_on_c, 3, 79, 82
5, 526076, Note_on_c, 3, 79, 0
5, 526320, Note_on_c, 3, 67, 82
5, 526364, Note_on_c, 3, 67, 0
5, 526368, Note_on_c, 3, 74, 82
5, 526412, Note_on_c, 3, 74, 0
5, 526416, Note_on_c, 3, 77, 82
5, 526460, Note_on_c, 3, 77, 0
5, 526464, Note_on_c, 3, 79, 82
5, 526844, Note_on_c, 3, 79, 0
5, 526976, Note_on_c, 3, 76, 60
5, 527100, Note_on_c, 3, 76, 0
5, 527104, Note_on_c, 3, 77, 60
5, 527228, Note_on_c, 3, 77, 0
5, 527232, Note_on_c, 3, 79, 60
5, 527356, Note_on_c, 3, 79, 0
5, 527360, Note_on_c, 3, 77, 60
5, 527484, Note_on_c, 3, 77, 0
5, 527488, Note_on_c, 3, 76, 60
5, 527612, Note_on_c, 3, 76, 0
5, 527744, Note_on_c, 3, 72, 60
5, 527868, Note_on_c, 3, 72, 0
5, 527872, Note_on_c, 3, 74, 60
5, 527996, Note_on_c, 3, 74, 0
5, 528000, Note_on_c, 3, 76, 60
5, 528124, Note_on_c, 3, 76, 0
5, 528128, Note_on_c, 3, 74, 60
5, 528252, Note_on_c, 3, 74, 0
5, 528256, Note_on_c, 3, 72, 60
5, 528380, Note_on_c, 3, 72, 0
5, 528512, Note_on_c, 3, 69, 60
5, 528636, Note_on_c, 3, 69, 0
5, 528640, Note_on_c, 3, 71, 60
5, 528764, Note_on_c, 3, 71, 0
5, 528768, Note_on_c, 3, 72, 60
5, 528892, Note_on_c, 3, 72, 0
5, 528896, Note_on_c, 3, 71, 60
5, 529020, Note_on_c, 3, 71, 0
5, 529024, Note_on_c, 3, 69, 60
5, 529148, Note_on_c, 3, 69, 0
5, 529280, Note_on_c, 3, 65, 60
5, 529404, Note_on_c, 3, 65, 0
5, 529408, Note_on_c, 3, 67, 60
5, 529532, Note_on_c, 3, 67, 0
5, 529536, Note_on_c, 3, 69, 60
5, 529660, Note_on_c, 3, 69, 0
5, 529664, Note_on_c, 3, 67, 60
5, 529788, Note_on_c, 3, 67, 0
5, 529792, Note_on_c, 3, 65, 60
5, 529916, Note_on_c, 3, 65, 0
5, 529920, Note_on_c, 3, 83, 82
5, 529920, Note_on_c, 3, 79, 82
5, 529920, Note_on_c, 3, 74, 82
5, 530684, Note_on_c, 3, 74, 0
5, 530684, Note_on_c, 3, 79, 0
5, 530684, Note_on_c, 3, 83, 0
5, 530688, Note_on_c, 3, 84, 82
5, 530688, Note_on_c, 3, 79, 82
5, 530688, Note_on_c, 3, 76, 82
5, 530688, Note_on_c, 3, 72, 82
5, 531068, Note_on_c, 3, 72, 0
5, 531068, Note_on_c, 3, 84, 0
5, 531068, Note_on_c, 3, 79, 0
5, 531068, Note_on_c, 3, 76, 0
5, 531072, Note_on_c, 3, 76, 82
5, 531072, Note_on_c, 3, 72, 82
5, 531072, Note_on_c, 3, 67, 82
5, 531452, Note_on_c, 3, 67, 0
5, 531452, Note_on_c, 3, 72, 0
5, 531452, Note_on_c, 3, 76, 0
5, 531456, Note_on_c, 3, 77, 82
5, 531456, Note_on_c, 3, 72, 82
5, 531456, Note_on_c, 3, 69, 82
5, 531836, Note_on_c, 3, 69, 0
5, 531836, Note_on_c, 3, 72, 0
5, 531836, Note_on_c, 3, 77, 0
5, 531840, Note_on_c, 3, 81, 82
5, 531840, Note_on_c, 3, 77, 82
5, 531840, Note_on_c, 3, 72, 82
5, 532220, Note_on_c, 3, 72, 0
5, 532220, Note_on_c, 3, 77, 0
5, 532220, Note_on_c, 3, 81, 0
5, 532224, Note_on_c, 3, 79, 82
5, 532224, Note_on_c, 3, 76, 82
5, 532224, Note_on_c, 3, 72, 82
5, 532604, Note_on_c, 3, 72, 0
5, 532604, Note_on_c, 3, 76, 0
5, 532604, Note_on_c, 3, 79, 0
5, 532608, Note_on_c, 3, 71, 82
5, 532608, Note_on_c, 3, 67, 82
5, 532608, Note_on_c, 3, 62, 82
5, 532988, Note_on_c, 3, 62, 0
5, 532988, Note_on_c, 3, 67, 0
5, 532988, Note_on_c, 3, 71, 0
5, 532992, Note_on_c, 3, 72, 60
5, 533120, Note_on_c, 3, 88, 60
5, 533244, Note_on_c, 3, 88, 0
5, 533248, Note_on_c, 3, 86, 60
5, 533372, Note_on_c, 3, 86, 0
5, 533372, Note_on_c, 3, 72, 0
5, 533376, Note_on_c, 3, 84, 60
5, 533500, Note_on_c, 3, 84, 0
5, 533504, Note_on_c, 3, 86, 60
5, 533628, Note_on_c, 3, 86, 0
5, 533632, Note_on_c, 3, 88, 60
5, 533756, Note_on_c, 3, 88, 0
5, 533760, Note_on_c, 3, 69, 60
5, 533888, Note_on_c, 3, 84, 60
5, 534012, Note_on_c, 3, 84, 0
5, 534016, Note_on_c, 3, 83, 60
5, 534140, Note_on_c, 3, 83, 0
5, 534140, Note_on_c, 3, 69, 0
5, 534144, Note_on_c, 3, 81, 60
5, 534268, Note_on_c, 3, 81, 0
5, 534272, Note_on_c, 3, 83, 60
5, 534396, Note_on_c, 3, 83, 0
5, 534400, Note_on_c, 3, 84, 60
5, 534524, Note_on_c, 3, 84, 0
5, 534528, Note_on_c, 3, 65, 60
5, 534656, Note_on_c, 3, 81, 60
5, 534780, Note_on_c, 3, 81, 0
5, 534784, Note_on_c, 3, 79, 60
5, 534908, Note_on_c, 3, 79, 0
5, 534908, Note_on_c, 3, 65, 0
5, 534912, Note_on_c, 3, 77, 60
5, 535036, Note_on_c, 3, 77, 0
5, 535040, Note_on_c, 3, 79, 60
5, 535164, Note_on_c, 3, 79, 0
5, 535168, Note_on_c, 3, 81, 60
5, 535292, Note_on_c, 3, 81, 0
5, 535296, Note_on_c, 3, 62, 60
5, 535424, Note_on_c, 3, 77, 60
5, 535548, Note_on_c, 3, 77, 0
5, 535552, Note_on_c, 3, 76, 60
5, 535676, Note_on_c, 3, 76, 0
5, 535676, Note_on_c, 3, 62, 0
5, 535680, Note_on_c, 3, 74, 60
5, 535804, Note_on_c, 3, 74, 0
5, 535808, Note_on_c, 3, 76, 60
5, 535932, Note_on_c, 3, 76, 0
5, 535936, Note_on_c, 3, 77, 60
5, 536060, Note_on_c, 3, 77, 0
5, 536064, Note_on_c, 3, 83, 82
5, 536064, Note_on_c, 3, 79, 82
5, 536064, Note_on_c, 3, 74, 82
5, 536828, Note_on_c, 3, 74, 0
5, 536828, Note_on_c, 3, 79, 0
5, 536828, Note_on_c, 3, 83, 0
5, 536832, Note_on_c, 3, 84, 82
5, 536832, Note_on_c, 3, 79, 82
5, 536832, Note_on_c, 3, 76, 82
5, 536832, Note_on_c, 3, 72, 82
5, 537212, Note_on_c, 3, 72, 0
5, 537212, Note_on_c, 3, 84, 0
5, 537212, Note_on_c, 3, 79, 0
5, 537212, Note_on_c, 3, 76, 0
5, 537216, Note_on_c, 3, 76, 82
5, 537216, Note_on_c, 3, 72, 82
5, 537216, Note_on_c, 3, 67, 82
5, 537596, Note_on_c, 3, 67, 0
5, 537596, Note_on_c, 3, 72, 0
5, 537596, Note_on_c, 3, 76, 0
5, 537600, Note_on_c, 3, 77, 82
5, 537600, Note_on_c, 3, 72, 82
5, 537600, Note_on_c, 3, 69, 82
5, 537980, Note_on_c, 3, 69, 0
5, 537980, Note_on_c, 3, 72, 0
5, 537980, Note_on_c, 3, 77, 0
5, 537984, Note_on_c, 3, 81, 82
5, 537984, Note_on_c, 3, 77, 82
5, 537984, Note_on_c, 3, 72, 82
5, 538364, Note_on_c, 3, 72, 0
5, 538364, Note_on_c, 3, 77, 0
5, 538364, Note_on_c, 3, 81, 0
5, 538368, Note_on_c, 3, 79, 82
5, 538368, Note_on_c, 3, 76, 82
5, 538368, Note_on_c, 3, 72, 82
5, 538748, Note_on_c, 3, 72, 0
5, 538748, Note_on_c, 3, 76, 0
5, 538748, Note_on_c, 3, 79, 0
5, 538752, Note_on_c, 3, 71, 82
5, 538752, Note_on_c, 3, 67, 82
5, 538752, Note_on_c, 3, 62, 82
5, 539132, Note_on_c, 3, 62, 0
5, 539132, Note_on_c, 3, 67, 0
5, 539132, Note_on_c, 3, 71, 0
5, 539136, Note_on_c, 3, 83, 82
5, 539136, Note_on_c, 3, 79, 82
5, 539136, Note_on_c, 3, 74, 82
5, 539900, Note_on_c, 3, 74, 0
5, 539900, Note_on_c, 3, 79, 0
5, 539900, Note_on_c, 3, 83, 0
5, 539904, Note_on_c, 3, 84, 82
5, 539904, Note_on_c, 3, 79, 82
5, 539904, Note_on_c, 3, 76, 82
5, 539904, Note_on_c, 3, 72, 82
5, 540284, Note_on_c, 3, 72, 0
5, 540284, Note_on_c, 3, 84, 0
5, 540284, Note_on_c, 3, 79, 0
5, 540284, Note_on_c, 3, 76, 0
5, 540288, Note_on_c, 3, 76, 82
5, 540288, Note_on_c, 3, 72, 82
5, 540288, Note_on_c, 3, 67, 82
5, 540668, Note_on_c, 3, 67, 0
5, 540668, Note_on_c, 3, 72, 0
5, 540668, Note_on_c, 3, 76, 0
5, 540672, Note_on_c, 3, 77, 82
5, 540672, Note_on_c, 3, 72, 82
5, 540672, Note_on_c, 3, 69, 82
5, 541052, Note_on_c, 3, 69, 0
5, 541052, Note_on_c, 3, 72, 0
5, 541052, Note_on_c, 3, 77, 0
5, 541056, Note_on_c, 3, 81, 82
5, 541056, Note_on_c, 3, 77, 82
5, 541056, Note_on_c, 3, 72, 82
5, 541436, Note_on_c, 3, 72, 0
5, 541436, Note_on_c, 3, 77, 0
5, 541436, Note_on_c, 3, 81, 0
5, 541440, Note_on_c, 3, 79, 82
5, 541440, Note_on_c, 3, 76, 82
5, 541440, Note_on_c, 3, 72, 82
5, 541820, Note_on_c, 3, 72, 0
5, 541820, Note_on_c, 3, 76, 0
5, 541820, Note_on_c, 3, 79, 0
5, 541824, Note_on_c, 3, 71, 82
5, 541824, Note_on_c, 3, 67, 82
5, 541824, Note_on_c, 3, 62, 82
5, 542204, Note_on_c, 3, 62, 0
5, 542204, Note_on_c, 3, 67, 0
5, 542204, Note_on_c, 3, 71, 0
5, 542208, Note_on_c, 3, 72, 82
5, 542208, Note_on_c, 3, 64, 82
5, 542588, Note_on_c, 3, 64, 0
5, 542588, Note_on_c, 3, 72, 0
5, 542976, Note_on_c, 3, 72, 82
5, 542976, Note_on_c, 3, 69, 82
5, 542976, Note_on_c, 3, 65, 82
5, 542976, Note_on_c, 3, 62, 82
5, 543356, Note_on_c, 3, 62, 0
5, 543356, Note_on_c, 3, 72, 0
5, 543356, Note_on_c, 3, 69, 0
5, 543356, Note_on_c, 3, 65, 0
5, 543744, Note_on_c, 3, 72, 82
5, 543744, Note_on_c, 3, 67, 82
5, 543744, Note_on_c, 3, 64, 82
5, 544124, Note_on_c, 3, 64, 0
5, 544124, Note_on_c, 3, 67, 0
5, 544124, Note_on_c, 3, 72, 0
5, 544512, Note_on_c, 3, 71, 82
5, 544512, Note_on_c, 3, 65, 82
5, 544512, Note_on_c, 3, 62, 82
5, 544892, Note_on_c, 3, 62, 0
5, 544892, Note_on_c, 3, 65, 0
5, 544892, Note_on_c, 3, 71, 0
5, 545280, Note_on_c, 3, 72, 92
5, 545280, Note_on_c, 3, 69, 92
5, 545280, Note_on_c, 3, 64, 92
5, 545280, Note_on_c, 3, 60, 92
5, 545660, Note_on_c, 3, 60, 0
5, 545660, Note_on_c, 3, 72, 0
5, 545660, Note_on_c, 3, 69, 0
5, 545660, Note_on_c, 3, 64, 0
5, 546048, Note_on_c, 3, 72, 92
5, 546048, Note_on_c, 3, 69, 92
5, 546048, Note_on_c, 3, 65, 92
5, 546048, Note_on_c, 3, 62, 92
5, 546428, Note_on_c, 3, 62, 0
5, 546428, Note_on_c, 3, 72, 0
5, 546428, Note_on_c, 3, 69, 0
5, 546428, Note_on_c, 3, 65, 0
5, 546816, Note_on_c, 3, 72, 92
5, 546816, Note_on_c, 3, 67, 92
5, 546816, Note_on_c, 3, 64, 92
5, 547196, Note_on_c, 3, 64, 0
5, 547196, Note_on_c, 3, 67, 0
5, 547196, Note_on_c, 3, 72, 0
5, 547584, Note_on_c, 3, 71, 92
5, 547584, Note_on_c, 3, 67, 92
5, 547584, Note_on_c, 3, 65, 92
5, 547584, Note_on_c, 3, 62, 92
5, 547964, Note_on_c, 3, 62, 0
5, 547964, Note_on_c, 3, 71, 0
5, 547964, Note_on_c, 3, 67, 0
5, 547964, Note_on_c, 3, 65, 0
5, 548352, Note_on_c, 3, 72, 92
5, 548352, Note_on_c, 3, 67, 92
5, 548352, Note_on_c, 3, 64, 92
5, 548352, Note_on_c, 3, 60, 92
5, 548540, Note_on_c, 3, 60, 0
5, 548540, Note_on_c, 3, 72, 0
5, 548540, Note_on_c, 3, 67, 0
5, 548540, Note_on_c, 3, 64, 0
5, 548544, Note_on_c, 3, 71, 92
5, 548732, Note_on_c, 3, 71, 0
5, 548736, Note_on_c, 3, 72, 92
5, 548924, Note_on_c, 3, 72, 0
5, 548928, Note_on_c, 3, 74, 92
5, 549116, Note_on_c, 3, 74, 0
5, 549120, Note_on_c, 3, 76, 92
5, 549308, Note_on_c, 3, 76, 0
5, 549312, Note_on_c, 3, 74, 92
5, 549500, Note_on_c, 3, 74, 0
5, 549504, Note_on_c, 3, 72, 92
5, 549692, Note_on_c, 3, 72, 0
5, 549696, Note_on_c, 3, 71, 92
5, 549884, Note_on_c, 3, 71, 0
5, 549888, Note_on_c, 3, 69, 92
5, 550076, Note_on_c, 3, 69, 0
5, 550080, Note_on_c, 3, 68, 92
5, 550268, Note_on_c, 3, 68, 0
5, 550272, Note_on_c, 3, 69, 92
5, 550460, Note_on_c, 3, 69, 0
5, 550464, Note_on_c, 3, 71, 92
5, 550652, Note_on_c, 3, 71, 0
5, 550656, Note_on_c, 3, 72, 92
5, 550844, Note_on_c, 3, 72, 0
5, 550848, Note_on_c, 3, 71, 92
5, 551036, Note_on_c, 3, 71, 0
5, 551040, Note_on_c, 3, 69, 92
5, 551228, Note_on_c, 3, 69, 0
5, 551232, Note_on_c, 3, 67, 92
5, 551420, Note_on_c, 3, 67, 0
5, 551424, Note_on_c, 3, 65, 92
5, 551804, Note_on_c, 3, 65, 0
5, 551808, Note_on_c, 3, 81, 92
5, 551808, Note_on_c, 3, 77, 92
5, 551808, Note_on_c, 3, 72, 92
5, 552188, Note_on_c, 3, 72, 0
5, 552188, Note_on_c, 3, 77, 0
5, 552188, Note_on_c, 3, 81, 0
5, 552576, Note_on_c, 3, 83, 92
5, 552576, Note_on_c, 3, 79, 92
5, 552576, Note_on_c, 3, 77, 92
5, 552576, Note_on_c, 3, 74, 92
5, 552956, Note_on_c, 3, 74, 0
5, 552956, Note_on_c, 3, 83, 0
5, 552956, Note_on_c, 3, 79, 0
5, 552956, Note_on_c, 3, 77, 0
5, 553344, Note_on_c, 3, 84, 92
5, 553344, Note_on_c, 3, 79, 92
5, 553344, Note_on_c, 3, 76, 92
5, 553344, Note_on_c, 3, 72, 92
5, 553724, Note_on_c, 3, 72, 0
5, 553724, Note_on_c, 3, 84, 0
5, 553724, Note_on_c, 3, 79, 0
5, 553724, Note_on_c, 3, 76, 0
5, 554112, Note_on_c, 3, 78, 92
5, 554112, Note_on_c, 3, 72, 92
5, 554112, Note_on_c, 3, 66, 92
5, 554492, Note_on_c, 3, 66, 0
5, 554492, Note_on_c, 3, 72, 0
5, 554492, Note_on_c, 3, 78, 0
5, 554496, Note_on_c, 3, 79, 92
5, 554496, Note_on_c, 3, 76, 92
5, 554496, Note_on_c, 3, 72, 92
5, 554496, Note_on_c, 3, 67, 92
5, 555072, Note_on_c, 3, 72, 0
5, 555260, Note_on_c, 3, 79, 0
5, 555260, Note_on_c, 3, 76, 0
5, 555260, Note_on_c, 3, 67, 0
5, 556032, Note_on_c, 3, 72, 92
5, 556412, Note_on_c, 3, 72, 0
5, 556608, Note_on_c, 3, 84, 92
5, 556796, Note_on_c, 3, 84, 0
5, 556800, Note_on_c, 3, 84, 92
5, 556988, Note_on_c, 3, 84, 0
5, 556992, Note_on_c, 3, 84, 92
5, 557180, Note_on_c, 3, 84, 0
5, 557184, Note_on_c, 3, 84, 92
5, 557372, Note_on_c, 3, 84, 0
5, 557376, Note_on_c, 3, 84, 92
5, 557564, Note_on_c, 3, 84, 0
5, 557568, Note_on_c, 3, 83, 95
5, 557608, Note_on_c, 3, 83, 0
5, 557616, Note_on_c, 3, 84, 92
5, 557736, Note_on_c, 3, 84, 0
5, 557760, Note_on_c, 3, 86, 92
5, 558040, Note_on_c, 3, 86, 0
5, 558144, Note_on_c, 3, 77, 92
5, 558332, Note_on_c, 3, 77, 0
5, 558336, Note_on_c, 3, 77, 92
5, 558524, Note_on_c, 3, 77, 0
5, 558528, Note_on_c, 3, 77, 92
5, 558716, Note_on_c, 3, 77, 0
5, 558720, Note_on_c, 3, 77, 92
5, 558908, Note_on_c, 3, 77, 0
5, 558912, Note_on_c, 3, 77, 92
5, 559100, Note_on_c, 3, 77, 0
5, 559104, Note_on_c, 3, 76, 95
5, 559144, Note_on_c, 3, 76, 0
5, 559152, Note_on_c, 3, 77, 92
5, 559272, Note_on_c, 3, 77, 0
5, 559296, Note_on_c, 3, 79, 92
5, 559576, Note_on_c, 3, 79, 0
5, 559680, Note_on_c, 3, 84, 92
5, 559868, Note_on_c, 3, 84, 0
5, 559872, Note_on_c, 3, 84, 92
5, 560060, Note_on_c, 3, 84, 0
5, 560064, Note_on_c, 3, 84, 92
5, 560252, Note_on_c, 3, 84, 0
5, 560256, Note_on_c, 3, 84, 92
5, 560444, Note_on_c, 3, 84, 0
5, 560448, Note_on_c, 3, 84, 92
5, 560636, Note_on_c, 3, 84, 0
5, 560640, Note_on_c, 3, 83, 95
5, 560680, Note_on_c, 3, 83, 0
5, 560688, Note_on_c, 3, 84, 92
5, 560808, Note_on_c, 3, 84, 0
5, 560832, Note_on_c, 3, 86, 92
5, 561112, Note_on_c, 3, 86, 0
5, 561216, Note_on_c, 3, 77, 92
5, 561404, Note_on_c, 3, 77, 0
5, 561408, Note_on_c, 3, 77, 92
5, 561596, Note_on_c, 3, 77, 0
5, 561600, Note_on_c, 3, 77, 92
5, 561788, Note_on_c, 3, 77, 0
5, 561792, Note_on_c, 3, 77, 92
5, 561980, Note_on_c, 3, 77, 0
5, 561984, Note_on_c, 3, 77, 92
5, 562172, Note_on_c, 3, 77, 0
5, 562176, Note_on_c, 3, 76, 92
5, 562556, Note_on_c, 3, 76, 0
5, 566784, Note_on_c, 3, 76, 60
5, 566784, Note_on_c, 3, 60, 60
5, 566972, Note_on_c, 3, 60, 0
5, 566976, Note_on_c, 3, 55, 60
5, 567164, Note_on_c, 3, 55, 0
5, 567168, Note_on_c, 3, 60, 60
5, 567356, Note_on_c, 3, 60, 0
5, 567360, Note_on_c, 3, 55, 60
5, 567548, Note_on_c, 3, 55, 0
5, 567548, Note_on_c, 3, 76, 0
5, 567552, Note_on_c, 3, 79, 60
5, 567552, Note_on_c, 3, 62, 60
5, 567740, Note_on_c, 3, 62, 0
5, 567740, Note_on_c, 3, 79, 0
5, 567744, Note_on_c, 3, 77, 60
5, 567744, Note_on_c, 3, 55, 60
5, 567932, Note_on_c, 3, 55, 0
5, 567932, Note_on_c, 3, 77, 0
5, 567936, Note_on_c, 3, 76, 60
5, 567936, Note_on_c, 3, 62, 60
5, 568124, Note_on_c, 3, 62, 0
5, 568124, Note_on_c, 3, 76, 0
5, 568128, Note_on_c, 3, 77, 60
5, 568128, Note_on_c, 3, 55, 60
5, 568316, Note_on_c, 3, 55, 0
5, 568316, Note_on_c, 3, 77, 0
5, 568320, Note_on_c, 3, 79, 60
5, 568320, Note_on_c, 3, 64, 60
5, 568508, Note_on_c, 3, 64, 0
5, 568508, Note_on_c, 3, 79, 0
5, 568512, Note_on_c, 3, 76, 60
5, 568512, Note_on_c, 3, 60, 60
5, 568700, Note_on_c, 3, 60, 0
5, 568700, Note_on_c, 3, 76, 0
5, 568704, Note_on_c, 3, 72, 60
5, 568704, Note_on_c, 3, 64, 60
5, 568892, Note_on_c, 3, 64, 0
5, 568896, Note_on_c, 3, 67, 60
5, 569084, Note_on_c, 3, 67, 0
5, 569084, Note_on_c, 3, 72, 0
5, 569088, Note_on_c, 3, 84, 60
5, 569088, Note_on_c, 3, 64, 60
5, 569276, Note_on_c, 3, 64, 0
5, 569280, Note_on_c, 3, 60, 60
5, 569468, Note_on_c, 3, 60, 0
5, 569472, Note_on_c, 3, 64, 60
5, 569660, Note_on_c, 3, 64, 0
5, 569660, Note_on_c, 3, 84, 0
5, 569664, Note_on_c, 3, 83, 60
5, 569664, Note_on_c, 3, 60, 60
5, 569852, Note_on_c, 3, 60, 0
5, 569852, Note_on_c, 3, 83, 0
5, 569856, Note_on_c, 3, 83, 60
5, 569856, Note_on_c, 3, 65, 60
5, 570044, Note_on_c, 3, 65, 0
5, 570044, Note_on_c, 3, 83, 0
5, 570048, Note_on_c, 3, 81, 60
5, 570048, Note_on_c, 3, 60, 60
5, 570236, Note_on_c, 3, 60, 0
5, 570236, Note_on_c, 3, 81, 0
5, 570240, Note_on_c, 3, 79, 60
5, 570240, Note_on_c, 3, 64, 60
5, 570428, Note_on_c, 3, 64, 0
5, 570432, Note_on_c, 3, 60, 60
5, 570620, Note_on_c, 3, 60, 0
5, 570620, Note_on_c, 3, 79, 0
5, 570624, Note_on_c, 3, 84, 60
5, 570624, Note_on_c, 3, 64, 60
5, 570812, Note_on_c, 3, 64, 0
5, 570816, Note_on_c, 3, 60, 60
5, 571004, Note_on_c, 3, 60, 0
5, 571008, Note_on_c, 3, 64, 60
5, 571196, Note_on_c, 3, 64, 0
5, 571196, Note_on_c, 3, 84, 0
5, 571200, Note_on_c, 3, 83, 60
5, 571200, Note_on_c, 3, 60, 60
5, 571388, Note_on_c, 3, 60, 0
5, 571388, Note_on_c, 3, 83, 0
5, 571392, Note_on_c, 3, 83, 60
5, 571392, Note_on_c, 3, 65, 60
5, 571580, Note_on_c, 3, 65, 0
5, 571580, Note_on_c, 3, 83, 0
5, 571584, Note_on_c, 3, 81, 60
5, 571584, Note_on_c, 3, 60, 60
5, 571772, Note_on_c, 3, 60, 0
5, 571772, Note_on_c, 3, 81, 0
5, 571776, Note_on_c, 3, 79, 60
5, 571776, Note_on_c, 3, 64, 60
5, 571964, Note_on_c, 3, 64, 0
5, 571968, Note_on_c, 3, 60, 60
5, 572156, Note_on_c, 3, 60, 0
5, 572156, Note_on_c, 3, 79, 0
5, 572160, Note_on_c, 3, 72, 60
5, 572160, Note_on_c, 3, 64, 60
5, 572348, Note_on_c, 3, 64, 0
5, 572352, Note_on_c, 3, 65, 60
5, 572540, Note_on_c, 3, 65, 0
5, 572540, Note_on_c, 3, 72, 0
5, 572544, Note_on_c, 3, 72, 60
5, 572544, Note_on_c, 3, 67, 60
5, 572732, Note_on_c, 3, 67, 0
5, 572736, Note_on_c, 3, 64, 60
5, 572924, Note_on_c, 3, 64, 0
5, 572924, Note_on_c, 3, 72, 0
5, 572928, Note_on_c, 3, 72, 60
5, 572928, Note_on_c, 3, 60, 60
5, 573116, Note_on_c, 3, 60, 0
5, 573120, Note_on_c, 3, 55, 60
5, 573308, Note_on_c, 3, 55, 0
5, 573312, Note_on_c, 3, 60, 60
5, 573500, Note_on_c, 3, 60, 0
5, 573504, Note_on_c, 3, 55, 60
5, 573692, Note_on_c, 3, 55, 0
5, 573692, Note_on_c, 3, 72, 0
5, 573696, Note_on_c, 3, 76, 60
5, 573696, Note_on_c, 3, 59, 60
5, 573884, Note_on_c, 3, 59, 0
5, 573884, Note_on_c, 3, 76, 0
5, 573888, Note_on_c, 3, 74, 60
5, 573888, Note_on_c, 3, 55, 60
5, 574076, Note_on_c, 3, 55, 0
5, 574076, Note_on_c, 3, 74, 0
5, 574080, Note_on_c, 3, 72, 60
5, 574080, Note_on_c, 3, 59, 60
5, 574268, Note_on_c, 3, 59, 0
5, 574268, Note_on_c, 3, 72, 0
5, 574272, Note_on_c, 3, 74, 60
5, 574272, Note_on_c, 3, 55, 60
5, 574460, Note_on_c, 3, 55, 0
5, 574460, Note_on_c, 3, 74, 0
5, 574464, Note_on_c, 3, 76, 60
5, 574464, Note_on_c, 3, 60, 60
5, 574652, Note_on_c, 3, 60, 0
5, 574656, Note_on_c, 3, 55, 60
5, 574844, Note_on_c, 3, 55, 0
5, 574844, Note_on_c, 3, 76, 0
5, 574848, Note_on_c, 3, 76, 60
5, 574848, Note_on_c, 3, 60, 60
5, 575036, Note_on_c, 3, 60, 0
5, 575040, Note_on_c, 3, 55, 60
5, 575228, Note_on_c, 3, 55, 0
5, 575228, Note_on_c, 3, 76, 0
5, 575232, Note_on_c, 3, 79, 60
5, 575232, Note_on_c, 3, 62, 60
5, 575420, Note_on_c, 3, 62, 0
5, 575420, Note_on_c, 3, 79, 0
5, 575424, Note_on_c, 3, 77, 60
5, 575424, Note_on_c, 3, 55, 60
5, 575600, Note_on_c, 3, 62, 60
5, 575612, Note_on_c, 3, 55, 0
5, 575612, Note_on_c, 3, 77, 0
5, 575616, Note_on_c, 3, 76, 60
5, 575788, Note_on_c, 3, 62, 0
5, 575804, Note_on_c, 3, 76, 0
5, 575808, Note_on_c, 3, 77, 60
5, 575808, Note_on_c, 3, 55, 60
5, 575996, Note_on_c, 3, 55, 0
5, 575996, Note_on_c, 3, 77, 0
5, 576000, Note_on_c, 3, 79, 60
5, 576380, Note_on_c, 3, 79, 0
5, 576384, Note_on_c, 3, 79, 60
5, 576764, Note_on_c, 3, 79, 0
5, 576768, Note_on_c, 3, 81, 60
5, 576956, Note_on_c, 3, 81, 0
5, 576960, Note_on_c, 3, 79, 60
5, 577148, Note_on_c, 3, 79, 0
5, 577152, Note_on_c, 3, 77, 60
5, 577340, Note_on_c, 3, 77, 0
5, 577344, Note_on_c, 3, 76, 60
5, 577532, Note_on_c, 3, 76, 0
5, 577536, Note_on_c, 3, 76, 60
5, 577916, Note_on_c, 3, 76, 0
5, 577920, Note_on_c, 3, 74, 60
5, 577920, Note_on_c, 3, 67, 60
5, 578108, Note_on_c, 3, 67, 0
5, 578112, Note_on_c, 3, 66, 60
5, 578300, Note_on_c, 3, 66, 0
5, 578300, Note_on_c, 3, 74, 0
5, 578304, Note_on_c, 3, 67, 60
5, 578492, Note_on_c, 3, 67, 0
5, 578496, Note_on_c, 3, 65, 60
5, 578684, Note_on_c, 3, 65, 0
5, 578688, Note_on_c, 3, 64, 60
5, 578876, Note_on_c, 3, 64, 0
5, 578880, Note_on_c, 3, 62, 60
5, 579068, Note_on_c, 3, 62, 0
5, 579072, Note_on_c, 3, 72, 60
5, 579260, Note_on_c, 3, 72, 0
5, 579264, Note_on_c, 3, 67, 60
5, 579452, Note_on_c, 3, 67, 0
5, 579456, Note_on_c, 3, 64, 60
5, 579644, Note_on_c, 3, 64, 0
5, 579648, Note_on_c, 3, 72, 60
5, 579836, Note_on_c, 3, 72, 0
5, 579840, Note_on_c, 3, 71, 60
5, 580028, Note_on_c, 3, 71, 0
5, 580032, Note_on_c, 3, 67, 60
5, 580220, Note_on_c, 3, 67, 0
5, 580224, Note_on_c, 3, 62, 60
5, 580412, Note_on_c, 3, 62, 0
5, 580416, Note_on_c, 3, 71, 60
5, 580604, Note_on_c, 3, 71, 0
5, 580608, Note_on_c, 3, 72, 60
5, 580796, Note_on_c, 3, 72, 0
5, 580800, Note_on_c, 3, 67, 60
5, 580988, Note_on_c, 3, 67, 0
5, 580992, Note_on_c, 3, 64, 60
5, 581180, Note_on_c, 3, 64, 0
5, 581184, Note_on_c, 3, 67, 60
5, 581372, Note_on_c, 3, 67, 0
5, 581376, Note_on_c, 3, 72, 60
5, 581756, Note_on_c, 3, 72, 0
5, 582144, Note_on_c, 3, 72, 60
5, 582332, Note_on_c, 3, 72, 0
5, 582336, Note_on_c, 3, 71, 60
5, 582524, Note_on_c, 3, 71, 0
5, 582528, Note_on_c, 3, 72, 60
5, 582716, Note_on_c, 3, 72, 0
5, 582720, Note_on_c, 3, 71, 60
5, 582908, Note_on_c, 3, 71, 0
5, 582912, Note_on_c, 3, 72, 60
5, 583292, Note_on_c, 3, 72, 0
5, 583680, Note_on_c, 3, 84, 60
5, 583868, Note_on_c, 3, 84, 0
5, 583872, Note_on_c, 3, 83, 60
5, 584060, Note_on_c, 3, 83, 0
5, 584064, Note_on_c, 3, 84, 60
5, 584252, Note_on_c, 3, 84, 0
5, 584256, Note_on_c, 3, 83, 60
5, 584444, Note_on_c, 3, 83, 0
5, 584448, Note_on_c, 3, 84, 60
5, 584828, Note_on_c, 3, 84, 0
5, 585216, Note_on_c, 3, 60, 82
5, 585404, Note_on_c, 3, 60, 0
5, 585408, Note_on_c, 3, 64, 82
5, 585596, Note_on_c, 3, 64, 0
5, 585600, Note_on_c, 3, 67, 82
5, 585788, Note_on_c, 3, 67, 0
5, 585792, Note_on_c, 3, 72, 82
5, 585980, Note_on_c, 3, 72, 0
5, 585984, Note_on_c, 3, 59, 82
5, 586172, Note_on_c, 3, 59, 0
5, 586176, Note_on_c, 3, 62, 82
5, 586364, Note_on_c, 3, 62, 0
5, 586368, Note_on_c, 3, 67, 82
5, 586556, Note_on_c, 3, 67, 0
5, 586560, Note_on_c, 3, 71, 82
5, 586748, Note_on_c, 3, 71, 0
5, 586752, Note_on_c, 3, 60, 82
5, 586940, Note_on_c, 3, 60, 0
5, 586944, Note_on_c, 3, 64, 82
5, 587132, Note_on_c, 3, 64, 0
5, 587136, Note_on_c, 3, 67, 82
5, 587324, Note_on_c, 3, 67, 0
5, 587328, Note_on_c, 3, 72, 82
5, 587516, Note_on_c, 3, 72, 0
5, 587520, Note_on_c, 3, 62, 82
5, 587708, Note_on_c, 3, 62, 0
5, 587712, Note_on_c, 3, 67, 82
5, 587900, Note_on_c, 3, 67, 0
5, 587904, Note_on_c, 3, 71, 82
5, 588092, Note_on_c, 3, 71, 0
5, 588096, Note_on_c, 3, 74, 82
5, 588284, Note_on_c, 3, 74, 0
5, 588288, Note_on_c, 3, 76, 82
5, 588476, Note_on_c, 3, 76, 0
5, 588480, Note_on_c, 3, 72, 82
5, 588668, Note_on_c, 3, 72, 0
5, 588672, Note_on_c, 3, 76, 82
5, 588860, Note_on_c, 3, 76, 0
5, 588864, Note_on_c, 3, 72, 82
5, 589052, Note_on_c, 3, 72, 0
5, 589056, Note_on_c, 3, 76, 82
5, 589244, Note_on_c, 3, 76, 0
5, 589248, Note_on_c, 3, 74, 82
5, 589436, Note_on_c, 3, 74, 0
5, 589440, Note_on_c, 3, 72, 82
5, 589628, Note_on_c, 3, 72, 0
5, 589632, Note_on_c, 3, 71, 82
5, 589820, Note_on_c, 3, 71, 0
5, 589824, Note_on_c, 3, 72, 82
5, 589824, Note_on_c, 3, 67, 82
5, 589824, Note_on_c, 3, 64, 82
5, 591356, Note_on_c, 3, 64, 0
5, 591356, Note_on_c, 3, 67, 0
5, 591356, Note_on_c, 3, 72, 0
5, 591360, Note_on_c, 3, 74, 82
5, 591360, Note_on_c, 3, 71, 82
5, 591360, Note_on_c, 3, 67, 82
5, 592892, Note_on_c, 3, 67, 0
5, 592892, Note_on_c, 3, 71, 0
5, 592892, Note_on_c, 3, 74, 0
5, 592896, Note_on_c, 3, 76, 60
5, 592896, Note_on_c, 3, 72, 60
5, 593084, Note_on_c, 3, 76, 0
5, 593088, Note_on_c, 3, 79, 60
5, 593276, Note_on_c, 3, 79, 0
5, 593276, Note_on_c, 3, 72, 0
5, 593280, Note_on_c, 3, 76, 60
5, 593280, Note_on_c, 3, 67, 60
5, 593468, Note_on_c, 3, 76, 0
5, 593472, Note_on_c, 3, 74, 60
5, 593660, Note_on_c, 3, 74, 0
5, 593664, Note_on_c, 3, 72, 60
5, 594044, Note_on_c, 3, 72, 0
5, 594044, Note_on_c, 3, 67, 0
5, 594048, Note_on_c, 3, 74, 60
5, 594048, Note_on_c, 3, 71, 60
5, 594428, Note_on_c, 3, 71, 0
5, 594428, Note_on_c, 3, 74, 0
5, 594432, Note_on_c, 3, 76, 60
5, 594432, Note_on_c, 3, 72, 60
5, 594620, Note_on_c, 3, 76, 0
5, 594624, Note_on_c, 3, 79, 60
5, 594812, Note_on_c, 3, 79, 0
5, 594812, Note_on_c, 3, 72, 0
5, 594816, Note_on_c, 3, 76, 60
5, 594816, Note_on_c, 3, 67, 60
5, 595004, Note_on_c, 3, 76, 0
5, 595008, Note_on_c, 3, 74, 60
5, 595196, Note_on_c, 3, 74, 0
5, 595200, Note_on_c, 3, 72, 60
5, 595580, Note_on_c, 3, 72, 0
5, 595580, Note_on_c, 3, 67, 0
5, 595584, Note_on_c, 3, 74, 60
5, 595584, Note_on_c, 3, 71, 60
5, 595964, Note_on_c, 3, 71, 0
5, 595964, Note_on_c, 3, 74, 0
5, 595968, Note_on_c, 3, 76, 60
5, 595968, Note_on_c, 3, 72, 60
5, 596156, Note_on_c, 3, 76, 0
5, 596160, Note_on_c, 3, 79, 60
5, 596348, Note_on_c, 3, 79, 0
5, 596348, Note_on_c, 3, 72, 0
5, 596352, Note_on_c, 3, 76, 60
5, 596352, Note_on_c, 3, 67, 60
5, 596540, Note_on_c, 3, 76, 0
5, 596544, Note_on_c, 3, 74, 60
5, 596732, Note_on_c, 3, 74, 0
5, 596736, Note_on_c, 3, 72, 60
5, 597116, Note_on_c, 3, 72, 0
5, 597116, Note_on_c, 3, 67, 0
5, 597120, Note_on_c, 3, 74, 60
5, 597120, Note_on_c, 3, 71, 60
5, 597500, Note_on_c, 3, 71, 0
5, 597500, Note_on_c, 3, 74, 0
5, 597504, Note_on_c, 3, 76, 60
5, 597504, Note_on_c, 3, 72, 60
5, 597692, Note_on_c, 3, 76, 0
5, 597696, Note_on_c, 3, 72, 60
5, 597884, Note_on_c, 3, 72, 0
5, 597884, Note_on_c, 3, 72, 0
5, 597888, Note_on_c, 3, 76, 60
5, 598076, Note_on_c, 3, 76, 0
5, 598080, Note_on_c, 3, 79, 60
5, 598268, Note_on_c, 3, 79, 0
5, 598272, Note_on_c, 3, 76, 60
5, 598652, Note_on_c, 3, 76, 0
5, 598656, Note_on_c, 3, 83, 92
5, 598656, Note_on_c, 3, 79, 92
5, 598656, Note_on_c, 3, 74, 92
5, 599036, Note_on_c, 3, 74, 0
5, 599036, Note_on_c, 3, 79, 0
5, 599036, Note_on_c, 3, 83, 0
5, 599040, Note_on_c, 3, 84, 90
5, 599040, Note_on_c, 3, 79, 90
5, 599040, Note_on_c, 3, 76, 90
5, 599420, Note_on_c, 3, 76, 0
5, 599420, Note_on_c, 3, 79, 0
5, 599420, Note_on_c, 3, 84, 0
5, 599424, Note_on_c, 3, 72, 90
5, 599424, Note_on_c, 3, 67, 90
5, 599804, Note_on_c, 3, 67, 0
5, 599804, Note_on_c, 3, 72, 0
5, 599808, Note_on_c, 3, 76, 90
5, 599808, Note_on_c, 3, 72, 90
5, 599808, Note_on_c, 3, 67, 90
5, 600188, Note_on_c, 3, 67, 0
5, 600188, Note_on_c, 3, 72, 0
5, 600188, Note_on_c, 3, 76, 0
5, 600192, Note_on_c, 3, 83, 90
5, 600192, Note_on_c, 3, 79, 90
5, 600192, Note_on_c, 3, 74, 90
5, 600572, Note_on_c, 3, 74, 0
5, 600572, Note_on_c, 3, 79, 0
5, 600572, Note_on_c, 3, 83, 0
5, 600576, Note_on_c, 3, 84, 90
5, 600576, Note_on_c, 3, 79, 90
5, 600576, Note_on_c, 3, 76, 90
5, 600956, Note_on_c, 3, 76, 0
5, 600956, Note_on_c, 3, 79, 0
5, 600956, Note_on_c, 3, 84, 0
5, 600960, Note_on_c, 3, 72, 90
5, 600960, Note_on_c, 3, 67, 90
5, 601340, Note_on_c, 3, 67, 0
5, 601340, Note_on_c, 3, 72, 0
5, 601344, Note_on_c, 3, 76, 90
5, 601344, Note_on_c, 3, 72, 90
5, 601344, Note_on_c, 3, 67, 90
5, 601724, Note_on_c, 3, 67, 0
5, 601724, Note_on_c, 3, 72, 0
5, 601724, Note_on_c, 3, 76, 0
5, 601728, Note_on_c, 3, 83, 90
5, 601728, Note_on_c, 3, 79, 90
5, 601728, Note_on_c, 3, 74, 90
5, 602108, Note_on_c, 3, 74, 0
5, 602108, Note_on_c, 3, 79, 0
5, 602108, Note_on_c, 3, 83, 0
5, 602112, Note_on_c, 3, 84, 90
5, 602112, Note_on_c, 3, 79, 90
5, 602112, Note_on_c, 3, 76, 90
5, 602876, Note_on_c, 3, 76, 0
5, 602876, Note_on_c, 3, 79, 0
5, 602876, Note_on_c, 3, 84, 0
5, 602880, Note_on_c, 3, 84, 90
5, 602880, Note_on_c, 3, 79, 90
5, 602880, Note_on_c, 3, 76, 90
5, 603644, Note_on_c, 3, 76, 0
5, 603644, Note_on_c, 3, 79, 0
5, 603644, Note_on_c, 3, 84, 0
5, 603648, Note_on_c, 3, 84, 90
5, 603648, Note_on_c, 3, 79, 90
5, 603648, Note_on_c, 3, 76, 90
5, 603648, Note_on_c, 3, 72, 90
5, 605180, Note_on_c, 3, 72, 0
5, 605180, Note_on_c, 3, 84, 0
5, 605180, Note_on_c, 3, 79, 0
5, 605180, Note_on_c, 3, 76, 0
5, 605180, End_track
6, 0, Start_track
6, 0, MIDI_port, 0
6, 0, Title_t, "K299-c-Rondo Allegro"
6, 0, Control_c, 4, 0, 0
6, 0, Control_c, 4, 32, 0
6, 0, Program_c, 4, 46
6, 0, Control_c, 4, 7, 94
6, 0, Control_c, 4, 10, 66
6, 0, Control_c, 4, 91, 63
6, 0, Control_c, 4, 93, 44
6, 0, Control_c, 4, 121, 0
6, 96, Control_c, 4, 10, 63
6, 192, Control_c, 4, 91, 63
6, 240, Control_c, 4, 93, 40
6, 288, Program_c, 4, 46
6, 99840, Note_on_c, 4, 60, 55
6, 100220, Note_on_c, 4, 60, 0
6, 100224, Note_on_c, 4, 57, 55
6, 100604, Note_on_c, 4, 57, 0
6, 100608, Note_on_c, 4, 53, 55
6, 100988, Note_on_c, 4, 53, 0
6, 100992, Note_on_c, 4, 55, 55
6, 101372, Note_on_c, 4, 55, 0
6, 101376, Note_on_c, 4, 48, 55
6, 101756, Note_on_c, 4, 48, 0
6, 102912, Note_on_c, 4, 48, 55
6, 103292, Note_on_c, 4, 48, 0
6, 103296, Note_on_c, 4, 52, 55
6, 103676, Note_on_c, 4, 52, 0
6, 103680, Note_on_c, 4, 55, 55
6, 104060, Note_on_c, 4, 55, 0
6, 104064, Note_on_c, 4, 52, 55
6, 104444, Note_on_c, 4, 52, 0
6, 104448, Note_on_c, 4, 48, 55
6, 104828, Note_on_c, 4, 48, 0
6, 104832, Note_on_c, 4, 52, 55
6, 105212, Note_on_c, 4, 52, 0
6, 105216, Note_on_c, 4, 55, 55
6, 105596, Note_on_c, 4, 55, 0
6, 105600, Note_on_c, 4, 52, 55
6, 105980, Note_on_c, 4, 52, 0
6, 105984, Note_on_c, 4, 48, 55
6, 106364, Note_on_c, 4, 48, 0
6, 106368, Note_on_c, 4, 53, 55
6, 106748, Note_on_c, 4, 53, 0
6, 106752, Note_on_c, 4, 57, 55
6, 107132, Note_on_c, 4, 57, 0
6, 107136, Note_on_c, 4, 53, 55
6, 107516, Note_on_c, 4, 53, 0
6, 107520, Note_on_c, 4, 48, 55
6, 107900, Note_on_c, 4, 48, 0
6, 107904, Note_on_c, 4, 52, 55
6, 108284, Note_on_c, 4, 52, 0
6, 108288, Note_on_c, 4, 55, 55
6, 108668, Note_on_c, 4, 55, 0
6, 108672, Note_on_c, 4, 52, 55
6, 109052, Note_on_c, 4, 52, 0
6, 109056, Note_on_c, 4, 48, 55
6, 109436, Note_on_c, 4, 48, 0
6, 109440, Note_on_c, 4, 52, 55
6, 109820, Note_on_c, 4, 52, 0
6, 109824, Note_on_c, 4, 55, 55
6, 110204, Note_on_c, 4, 55, 0
6, 110208, Note_on_c, 4, 48, 55
6, 110588, Note_on_c, 4, 48, 0
6, 110592, Note_on_c, 4, 47, 55
6, 110972, Note_on_c, 4, 47, 0
6, 110976, Note_on_c, 4, 50, 55
6, 111356, Note_on_c, 4, 50, 0
6, 111360, Note_on_c, 4, 55, 55
6, 111740, Note_on_c, 4, 55, 0
6, 111744, Note_on_c, 4, 47, 55
6, 112124, Note_on_c, 4, 47, 0
6, 112128, Note_on_c, 4, 48, 55
6, 112508, Note_on_c, 4, 48, 0
6, 112512, Note_on_c, 4, 52, 55
6, 112892, Note_on_c, 4, 52, 0
6, 112896, Note_on_c, 4, 53, 55
6, 113276, Note_on_c, 4, 53, 0
6, 113280, Note_on_c, 4, 55, 55
6, 113660, Note_on_c, 4, 55, 0
6, 113664, Note_on_c, 4, 60, 55
6, 114044, Note_on_c, 4, 60, 0
6, 115200, Note_on_c, 4, 59, 55
6, 115580, Note_on_c, 4, 59, 0
6, 116736, Note_on_c, 4, 60, 55
6, 117116, Note_on_c, 4, 60, 0
6, 117120, Note_on_c, 4, 64, 55
6, 117500, Note_on_c, 4, 64, 0
6, 117504, Note_on_c, 4, 67, 55
6, 117884, Note_on_c, 4, 67, 0
6, 117888, Note_on_c, 4, 55, 55
6, 118268, Note_on_c, 4, 55, 0
6, 139776, Note_on_c, 4, 55, 55
6, 140156, Note_on_c, 4, 55, 0
6, 141312, Note_on_c, 4, 43, 55
6, 141692, Note_on_c, 4, 43, 0
6, 142848, Note_on_c, 4, 52, 55
6, 142848, Note_on_c, 4, 40, 55
6, 143228, Note_on_c, 4, 40, 0
6, 143228, Note_on_c, 4, 52, 0
6, 145344, Note_on_c, 4, 59, 66
6, 145532, Note_on_c, 4, 59, 0
6, 145536, Note_on_c, 4, 56, 62
6, 145724, Note_on_c, 4, 56, 0
6, 145728, Note_on_c, 4, 52, 55
6, 145916, Note_on_c, 4, 52, 0
6, 145920, Note_on_c, 4, 57, 55
6, 146300, Note_on_c, 4, 57, 0
6, 147456, Note_on_c, 4, 45, 55
6, 147836, Note_on_c, 4, 45, 0
6, 148992, Note_on_c, 4, 50, 55
6, 148992, Note_on_c, 4, 38, 55
6, 149372, Note_on_c, 4, 38, 0
6, 149372, Note_on_c, 4, 50, 0
6, 151488, Note_on_c, 4, 57, 55
6, 151676, Note_on_c, 4, 57, 0
6, 151680, Note_on_c, 4, 54, 55
6, 151868, Note_on_c, 4, 54, 0
6, 151872, Note_on_c, 4, 50, 55
6, 152060, Note_on_c, 4, 50, 0
6, 152064, Note_on_c, 4, 55, 74
6, 152444, Note_on_c, 4, 55, 0
6, 152832, Note_on_c, 4, 60, 74
6, 152832, Note_on_c, 4, 48, 74
6, 153212, Note_on_c, 4, 48, 0
6, 153212, Note_on_c, 4, 60, 0
6, 153600, Note_on_c, 4, 59, 74
6, 153600, Note_on_c, 4, 47, 74
6, 153980, Note_on_c, 4, 47, 0
6, 153980, Note_on_c, 4, 59, 0
6, 154368, Note_on_c, 4, 54, 74
6, 154368, Note_on_c, 4, 42, 74
6, 154748, Note_on_c, 4, 42, 0
6, 154748, Note_on_c, 4, 54, 0
6, 155136, Note_on_c, 4, 55, 74
6, 155136, Note_on_c, 4, 43, 74
6, 155516, Note_on_c, 4, 43, 0
6, 155516, Note_on_c, 4, 55, 0
6, 155904, Note_on_c, 4, 60, 74
6, 155904, Note_on_c, 4, 48, 74
6, 156284, Note_on_c, 4, 48, 0
6, 156284, Note_on_c, 4, 60, 0
6, 156672, Note_on_c, 4, 59, 74
6, 156672, Note_on_c, 4, 47, 74
6, 157052, Note_on_c, 4, 47, 0
6, 157052, Note_on_c, 4, 59, 0
6, 157440, Note_on_c, 4, 54, 74
6, 157440, Note_on_c, 4, 42, 74
6, 157820, Note_on_c, 4, 42, 0
6, 157820, Note_on_c, 4, 54, 0
6, 158208, Note_on_c, 4, 55, 83
6, 158208, Note_on_c, 4, 43, 83
6, 158588, Note_on_c, 4, 43, 0
6, 158588, Note_on_c, 4, 55, 0
6, 161280, Note_on_c, 4, 55, 83
6, 161468, Note_on_c, 4, 55, 0
6, 161472, Note_on_c, 4, 59, 83
6, 161660, Note_on_c, 4, 59, 0
6, 161664, Note_on_c, 4, 61, 83
6, 161852, Note_on_c, 4, 61, 0
6, 161856, Note_on_c, 4, 64, 83
6, 162044, Note_on_c, 4, 64, 0
6, 162048, Note_on_c, 4, 54, 83
6, 162236, Note_on_c, 4, 54, 0
6, 162240, Note_on_c, 4, 57, 83
6, 162428, Note_on_c, 4, 57, 0
6, 162432, Note_on_c, 4, 59, 83
6, 162620, Note_on_c, 4, 59, 0
6, 162624, Note_on_c, 4, 62, 83
6, 162812, Note_on_c, 4, 62, 0
6, 162816, Note_on_c, 4, 61, 83
6, 162816, Note_on_c, 4, 57, 83
6, 162816, Note_on_c, 4, 55, 83
6, 162816, Note_on_c, 4, 52, 83
6, 163580, Note_on_c, 4, 52, 0
6, 163580, Note_on_c, 4, 61, 0
6, 163580, Note_on_c, 4, 57, 0
6, 163580, Note_on_c, 4, 55, 0
6, 164352, Note_on_c, 4, 62, 83
6, 164352, Note_on_c, 4, 57, 83
6, 164352, Note_on_c, 4, 54, 83
6, 164352, Note_on_c, 4, 50, 83
6, 165116, Note_on_c, 4, 50, 0
6, 165116, Note_on_c, 4, 62, 0
6, 165116, Note_on_c, 4, 57, 0
6, 165116, Note_on_c, 4, 54, 0
6, 165888, Note_on_c, 4, 61, 83
6, 165888, Note_on_c, 4, 57, 83
6, 165888, Note_on_c, 4, 55, 83
6, 165888, Note_on_c, 4, 52, 83
6, 166652, Note_on_c, 4, 52, 0
6, 166652, Note_on_c, 4, 61, 0
6, 166652, Note_on_c, 4, 57, 0
6, 166652, Note_on_c, 4, 55, 0
6, 167424, Note_on_c, 4, 50, 83
6, 167804, Note_on_c, 4, 50, 0
6, 167808, Note_on_c, 4, 54, 83
6, 167996, Note_on_c, 4, 54, 0
6, 168000, Note_on_c, 4, 57, 83
6, 168188, Note_on_c, 4, 57, 0
6, 168192, Note_on_c, 4, 62, 83
6, 168380, Note_on_c, 4, 62, 0
6, 168384, Note_on_c, 4, 61, 83
6, 168572, Note_on_c, 4, 61, 0
6, 168576, Note_on_c, 4, 62, 83
6, 168764, Note_on_c, 4, 62, 0
6, 168768, Note_on_c, 4, 61, 83
6, 168956, Note_on_c, 4, 61, 0
6, 168960, Note_on_c, 4, 62, 83
6, 169148, Note_on_c, 4, 62, 0
6, 169152, Note_on_c, 4, 50, 83
6, 169340, Note_on_c, 4, 50, 0
6, 169344, Note_on_c, 4, 54, 83
6, 169532, Note_on_c, 4, 54, 0
6, 169536, Note_on_c, 4, 57, 83
6, 169724, Note_on_c, 4, 57, 0
6, 169728, Note_on_c, 4, 62, 83
6, 169916, Note_on_c, 4, 62, 0
6, 169920, Note_on_c, 4, 61, 83
6, 170108, Note_on_c, 4, 61, 0
6, 170112, Note_on_c, 4, 62, 83
6, 170300, Note_on_c, 4, 62, 0
6, 170304, Note_on_c, 4, 61, 83
6, 170492, Note_on_c, 4, 61, 0
6, 170496, Note_on_c, 4, 62, 83
6, 170624, Note_on_c, 4, 62, 0
6, 187392, Note_on_c, 4, 60, 74
6, 187392, Note_on_c, 4, 64, 74
6, 187772, Note_on_c, 4, 64, 0
6, 187772, Note_on_c, 4, 60, 0
6, 188160, Note_on_c, 4, 60, 74
6, 188540, Note_on_c, 4, 60, 0
6, 188928, Note_on_c, 4, 59, 74
6, 188928, Note_on_c, 4, 62, 74
6, 189308, Note_on_c, 4, 62, 0
6, 189308, Note_on_c, 4, 59, 0
6, 189696, Note_on_c, 4, 59, 74
6, 190076, Note_on_c, 4, 59, 0
6, 190464, Note_on_c, 4, 57, 74
6, 190652, Note_on_c, 4, 57, 0
6, 190656, Note_on_c, 4, 54, 74
6, 190844, Note_on_c, 4, 54, 0
6, 190848, Note_on_c, 4, 57, 74
6, 191036, Note_on_c, 4, 57, 0
6, 191040, Note_on_c, 4, 54, 74
6, 191228, Note_on_c, 4, 54, 0
6, 191232, Note_on_c, 4, 50, 74
6, 191420, Note_on_c, 4, 50, 0
6, 191424, Note_on_c, 4, 62, 74
6, 191612, Note_on_c, 4, 62, 0
6, 191616, Note_on_c, 4, 64, 74
6, 191804, Note_on_c, 4, 64, 0
6, 191808, Note_on_c, 4, 66, 74
6, 191996, Note_on_c, 4, 66, 0
6, 192000, Note_on_c, 4, 67, 74
6, 192380, Note_on_c, 4, 67, 0
6, 192384, Note_on_c, 4, 63, 74
6, 192764, Note_on_c, 4, 63, 0
6, 192768, Note_on_c, 4, 64, 74
6, 193148, Note_on_c, 4, 64, 0
6, 193152, Note_on_c, 4, 63, 74
6, 193532, Note_on_c, 4, 63, 0
6, 193536, Note_on_c, 4, 64, 74
6, 193916, Note_on_c, 4, 64, 0
6, 194304, Note_on_c, 4, 60, 74
6, 194304, Note_on_c, 4, 64, 74
6, 194684, Note_on_c, 4, 64, 0
6, 194684, Note_on_c, 4, 60, 0
6, 198144, Note_on_c, 4, 55, 60
6, 198332, Note_on_c, 4, 55, 0
6, 198336, Note_on_c, 4, 62, 60
6, 198524, Note_on_c, 4, 62, 0
6, 198528, Note_on_c, 4, 59, 60
6, 198716, Note_on_c, 4, 59, 0
6, 198720, Note_on_c, 4, 62, 60
6, 198908, Note_on_c, 4, 62, 0
6, 198912, Note_on_c, 4, 55, 60
6, 199100, Note_on_c, 4, 55, 0
6, 199104, Note_on_c, 4, 62, 60
6, 199292, Note_on_c, 4, 62, 0
6, 199296, Note_on_c, 4, 59, 60
6, 199484, Note_on_c, 4, 59, 0
6, 199504, Note_on_c, 4, 62, 60
6, 199680, Note_on_c, 4, 50, 60
6, 199692, Note_on_c, 4, 62, 0
6, 199868, Note_on_c, 4, 50, 0
6, 199872, Note_on_c, 4, 62, 60
6, 200060, Note_on_c, 4, 62, 0
6, 200064, Note_on_c, 4, 60, 60
6, 200252, Note_on_c, 4, 60, 0
6, 200256, Note_on_c, 4, 62, 60
6, 200444, Note_on_c, 4, 62, 0
6, 200448, Note_on_c, 4, 55, 60
6, 200636, Note_on_c, 4, 55, 0
6, 200640, Note_on_c, 4, 62, 60
6, 200828, Note_on_c, 4, 62, 0
6, 200832, Note_on_c, 4, 59, 60
6, 201020, Note_on_c, 4, 59, 0
6, 201024, Note_on_c, 4, 62, 60
6, 201212, Note_on_c, 4, 62, 0
6, 201216, Note_on_c, 4, 50, 60
6, 201404, Note_on_c, 4, 50, 0
6, 201408, Note_on_c, 4, 62, 60
6, 201596, Note_on_c, 4, 62, 0
6, 201600, Note_on_c, 4, 60, 60
6, 201788, Note_on_c, 4, 60, 0
6, 201792, Note_on_c, 4, 62, 60
6, 201980, Note_on_c, 4, 62, 0
6, 201984, Note_on_c, 4, 55, 60
6, 202172, Note_on_c, 4, 55, 0
6, 202176, Note_on_c, 4, 62, 60
6, 202364, Note_on_c, 4, 62, 0
6, 202368, Note_on_c, 4, 59, 60
6, 202556, Note_on_c, 4, 59, 0
6, 202560, Note_on_c, 4, 62, 60
6, 202748, Note_on_c, 4, 62, 0
6, 202752, Note_on_c, 4, 50, 60
6, 202940, Note_on_c, 4, 50, 0
6, 202944, Note_on_c, 4, 62, 60
6, 203132, Note_on_c, 4, 62, 0
6, 203136, Note_on_c, 4, 61, 60
6, 203324, Note_on_c, 4, 61, 0
6, 203328, Note_on_c, 4, 62, 60
6, 203516, Note_on_c, 4, 62, 0
6, 203520, Note_on_c, 4, 61, 60
6, 203708, Note_on_c, 4, 61, 0
6, 203712, Note_on_c, 4, 62, 60
6, 203900, Note_on_c, 4, 62, 0
6, 203904, Note_on_c, 4, 61, 60
6, 204092, Note_on_c, 4, 61, 0
6, 204096, Note_on_c, 4, 62, 60
6, 204284, Note_on_c, 4, 62, 0
6, 204288, Note_on_c, 4, 50, 60
6, 204476, Note_on_c, 4, 50, 0
6, 204480, Note_on_c, 4, 57, 60
6, 204668, Note_on_c, 4, 57, 0
6, 204672, Note_on_c, 4, 54, 60
6, 204860, Note_on_c, 4, 54, 0
6, 204864, Note_on_c, 4, 57, 60
6, 205052, Note_on_c, 4, 57, 0
6, 205056, Note_on_c, 4, 50, 60
6, 205244, Note_on_c, 4, 50, 0
6, 205248, Note_on_c, 4, 57, 60
6, 205436, Note_on_c, 4, 57, 0
6, 205440, Note_on_c, 4, 54, 60
6, 205628, Note_on_c, 4, 54, 0
6, 205632, Note_on_c, 4, 57, 60
6, 205820, Note_on_c, 4, 57, 0
6, 205824, Note_on_c, 4, 50, 60
6, 206012, Note_on_c, 4, 50, 0
6, 206016, Note_on_c, 4, 59, 60
6, 206204, Note_on_c, 4, 59, 0
6, 206208, Note_on_c, 4, 55, 60
6, 206396, Note_on_c, 4, 55, 0
6, 206400, Note_on_c, 4, 59, 60
6, 206588, Note_on_c, 4, 59, 0
6, 206592, Note_on_c, 4, 50, 60
6, 206780, Note_on_c, 4, 50, 0
6, 206784, Note_on_c, 4, 57, 60
6, 206972, Note_on_c, 4, 57, 0
6, 206976, Note_on_c, 4, 54, 60
6, 207164, Note_on_c, 4, 54, 0
6, 207168, Note_on_c, 4, 57, 60
6, 207356, Note_on_c, 4, 57, 0
6, 207360, Note_on_c, 4, 50, 60
6, 207548, Note_on_c, 4, 50, 0
6, 207552, Note_on_c, 4, 59, 60
6, 207740, Note_on_c, 4, 59, 0
6, 207744, Note_on_c, 4, 55, 60
6, 207932, Note_on_c, 4, 55, 0
6, 207936, Note_on_c, 4, 59, 60
6, 208124, Note_on_c, 4, 59, 0
6, 208128, Note_on_c, 4, 50, 60
6, 208316, Note_on_c, 4, 50, 0
6, 208320, Note_on_c, 4, 57, 60
6, 208508, Note_on_c, 4, 57, 0
6, 208512, Note_on_c, 4, 54, 60
6, 208700, Note_on_c, 4, 54, 0
6, 208704, Note_on_c, 4, 57, 60
6, 208892, Note_on_c, 4, 57, 0
6, 208896, Note_on_c, 4, 43, 60
6, 209084, Note_on_c, 4, 43, 0
6, 209088, Note_on_c, 4, 55, 60
6, 209276, Note_on_c, 4, 55, 0
6, 209280, Note_on_c, 4, 54, 60
6, 209468, Note_on_c, 4, 54, 0
6, 209472, Note_on_c, 4, 55, 60
6, 209660, Note_on_c, 4, 55, 0
6, 209664, Note_on_c, 4, 54, 60
6, 209852, Note_on_c, 4, 54, 0
6, 209856, Note_on_c, 4, 55, 60
6, 210044, Note_on_c, 4, 55, 0
6, 210048, Note_on_c, 4, 54, 60
6, 210236, Note_on_c, 4, 54, 0
6, 210240, Note_on_c, 4, 55, 60
6, 210428, Note_on_c, 4, 55, 0
6, 210432, Note_on_c, 4, 43, 60
6, 211196, Note_on_c, 4, 43, 0
6, 211584, Note_on_c, 4, 47, 60
6, 211964, Note_on_c, 4, 47, 0
6, 211968, Note_on_c, 4, 48, 81
6, 212156, Note_on_c, 4, 48, 0
6, 212160, Note_on_c, 4, 52, 81
6, 212348, Note_on_c, 4, 52, 0
6, 212352, Note_on_c, 4, 57, 81
6, 212540, Note_on_c, 4, 57, 0
6, 212544, Note_on_c, 4, 60, 81
6, 212732, Note_on_c, 4, 60, 0
6, 212736, Note_on_c, 4, 48, 81
6, 212924, Note_on_c, 4, 48, 0
6, 212928, Note_on_c, 4, 52, 81
6, 213116, Note_on_c, 4, 52, 0
6, 213120, Note_on_c, 4, 57, 81
6, 213308, Note_on_c, 4, 57, 0
6, 213312, Note_on_c, 4, 60, 81
6, 213500, Note_on_c, 4, 60, 0
6, 213504, Note_on_c, 4, 47, 81
6, 213692, Note_on_c, 4, 47, 0
6, 213696, Note_on_c, 4, 50, 81
6, 213884, Note_on_c, 4, 50, 0
6, 213888, Note_on_c, 4, 55, 81
6, 214076, Note_on_c, 4, 55, 0
6, 214080, Note_on_c, 4, 59, 81
6, 214268, Note_on_c, 4, 59, 0
6, 214272, Note_on_c, 4, 47, 81
6, 214460, Note_on_c, 4, 47, 0
6, 214464, Note_on_c, 4, 50, 81
6, 214652, Note_on_c, 4, 50, 0
6, 214656, Note_on_c, 4, 55, 81
6, 214844, Note_on_c, 4, 55, 0
6, 214848, Note_on_c, 4, 59, 81
6, 215036, Note_on_c, 4, 59, 0
6, 215040, Note_on_c, 4, 45, 81
6, 215228, Note_on_c, 4, 45, 0
6, 215232, Note_on_c, 4, 48, 81
6, 215420, Note_on_c, 4, 48, 0
6, 215424, Note_on_c, 4, 50, 81
6, 215612, Note_on_c, 4, 50, 0
6, 215616, Note_on_c, 4, 54, 81
6, 215804, Note_on_c, 4, 54, 0
6, 215808, Note_on_c, 4, 45, 81
6, 215996, Note_on_c, 4, 45, 0
6, 216000, Note_on_c, 4, 48, 81
6, 216188, Note_on_c, 4, 48, 0
6, 216192, Note_on_c, 4, 50, 81
6, 216380, Note_on_c, 4, 50, 0
6, 216384, Note_on_c, 4, 54, 81
6, 216572, Note_on_c, 4, 54, 0
6, 216576, Note_on_c, 4, 55, 74
6, 216956, Note_on_c, 4, 55, 0
6, 216960, Note_on_c, 4, 57, 74
6, 217148, Note_on_c, 4, 57, 0
6, 217152, Note_on_c, 4, 59, 74
6, 217340, Note_on_c, 4, 59, 0
6, 217344, Note_on_c, 4, 60, 74
6, 217532, Note_on_c, 4, 60, 0
6, 217536, Note_on_c, 4, 62, 74
6, 217724, Note_on_c, 4, 62, 0
6, 221568, Note_on_c, 4, 55, 81
6, 221756, Note_on_c, 4, 55, 0
6, 221760, Note_on_c, 4, 55, 81
6, 221948, Note_on_c, 4, 55, 0
6, 221952, Note_on_c, 4, 54, 81
6, 222140, Note_on_c, 4, 54, 0
6, 222144, Note_on_c, 4, 57, 81
6, 222332, Note_on_c, 4, 57, 0
6, 222336, Note_on_c, 4, 60, 81
6, 222524, Note_on_c, 4, 60, 0
6, 222528, Note_on_c, 4, 60, 81
6, 222716, Note_on_c, 4, 60, 0
6, 222720, Note_on_c, 4, 59, 81
6, 222908, Note_on_c, 4, 59, 0
6, 222912, Note_on_c, 4, 62, 81
6, 223100, Note_on_c, 4, 62, 0
6, 223104, Note_on_c, 4, 67, 81
6, 223292, Note_on_c, 4, 67, 0
6, 223296, Note_on_c, 4, 67, 81
6, 223484, Note_on_c, 4, 67, 0
6, 231936, Note_on_c, 4, 60, 53
6, 232316, Note_on_c, 4, 60, 0
6, 232704, Note_on_c, 4, 57, 53
6, 233084, Note_on_c, 4, 57, 0
6, 233664, Note_on_c, 4, 50, 73
6, 233852, Note_on_c, 4, 50, 0
6, 233856, Note_on_c, 4, 52, 73
6, 234044, Note_on_c, 4, 52, 0
6, 234048, Note_on_c, 4, 54, 73
6, 234236, Note_on_c, 4, 54, 0
6, 234240, Note_on_c, 4, 55, 73
6, 234428, Note_on_c, 4, 55, 0
6, 234432, Note_on_c, 4, 57, 73
6, 234620, Note_on_c, 4, 57, 0
6, 234624, Note_on_c, 4, 59, 73
6, 234812, Note_on_c, 4, 59, 0
6, 234816, Note_on_c, 4, 60, 73
6, 235004, Note_on_c, 4, 60, 0
6, 235008, Note_on_c, 4, 62, 73
6, 235388, Note_on_c, 4, 62, 0
6, 235392, Note_on_c, 4, 59, 73
6, 235772, Note_on_c, 4, 59, 0
6, 235776, Note_on_c, 4, 60, 73
6, 236156, Note_on_c, 4, 60, 0
6, 236160, Note_on_c, 4, 62, 73
6, 236540, Note_on_c, 4, 62, 0
6, 236544, Note_on_c, 4, 67, 55
6, 236924, Note_on_c, 4, 67, 0
6, 237312, Note_on_c, 4, 64, 55
6, 237692, Note_on_c, 4, 64, 0
6, 238080, Note_on_c, 4, 60, 55
6, 238460, Note_on_c, 4, 60, 0
6, 238848, Note_on_c, 4, 57, 55
6, 239228, Note_on_c, 4, 57, 0
6, 239808, Note_on_c, 4, 50, 74
6, 239996, Note_on_c, 4, 50, 0
6, 240000, Note_on_c, 4, 52, 74
6, 240188, Note_on_c, 4, 52, 0
6, 240192, Note_on_c, 4, 54, 74
6, 240380, Note_on_c, 4, 54, 0
6, 240384, Note_on_c, 4, 55, 74
6, 240572, Note_on_c, 4, 55, 0
6, 240592, Note_on_c, 4, 57, 74
6, 240768, Note_on_c, 4, 59, 74
6, 240780, Note_on_c, 4, 57, 0
6, 240956, Note_on_c, 4, 59, 0
6, 240960, Note_on_c, 4, 60, 74
6, 241148, Note_on_c, 4, 60, 0
6, 241152, Note_on_c, 4, 62, 74
6, 241532, Note_on_c, 4, 62, 0
6, 241536, Note_on_c, 4, 59, 74
6, 241916, Note_on_c, 4, 59, 0
6, 241920, Note_on_c, 4, 60, 74
6, 242300, Note_on_c, 4, 60, 0
6, 242304, Note_on_c, 4, 62, 74
6, 242684, Note_on_c, 4, 62, 0
6, 242880, Note_on_c, 4, 50, 74
6, 243068, Note_on_c, 4, 50, 0
6, 243072, Note_on_c, 4, 52, 74
6, 243260, Note_on_c, 4, 52, 0
6, 243264, Note_on_c, 4, 54, 74
6, 243452, Note_on_c, 4, 54, 0
6, 243456, Note_on_c, 4, 55, 74
6, 243644, Note_on_c, 4, 55, 0
6, 243648, Note_on_c, 4, 57, 74
6, 243836, Note_on_c, 4, 57, 0
6, 243840, Note_on_c, 4, 59, 74
6, 244028, Note_on_c, 4, 59, 0
6, 244032, Note_on_c, 4, 60, 74
6, 244220, Note_on_c, 4, 60, 0
6, 244224, Note_on_c, 4, 62, 74
6, 244604, Note_on_c, 4, 62, 0
6, 244608, Note_on_c, 4, 59, 74
6, 244988, Note_on_c, 4, 59, 0
6, 244992, Note_on_c, 4, 60, 74
6, 245372, Note_on_c, 4, 60, 0
6, 245376, Note_on_c, 4, 62, 74
6, 245756, Note_on_c, 4, 62, 0
6, 256896, Note_on_c, 4, 59, 55
6, 257276, Note_on_c, 4, 59, 0
6, 257280, Note_on_c, 4, 62, 55
6, 257660, Note_on_c, 4, 62, 0
6, 257664, Note_on_c, 4, 50, 55
6, 258044, Note_on_c, 4, 50, 0
6, 258048, Note_on_c, 4, 55, 55
6, 258236, Note_on_c, 4, 55, 0
6, 258240, Note_on_c, 4, 59, 55
6, 258428, Note_on_c, 4, 59, 0
6, 258432, Note_on_c, 4, 62, 55
6, 258620, Note_on_c, 4, 62, 0
6, 258624, Note_on_c, 4, 62, 55
6, 258812, Note_on_c, 4, 62, 0
6, 258816, Note_on_c, 4, 54, 55
6, 259004, Note_on_c, 4, 54, 0
6, 259008, Note_on_c, 4, 57, 55
6, 259196, Note_on_c, 4, 57, 0
6, 259200, Note_on_c, 4, 62, 55
6, 259388, Note_on_c, 4, 62, 0
6, 259392, Note_on_c, 4, 62, 55
6, 259580, Note_on_c, 4, 62, 0
6, 259584, Note_on_c, 4, 55, 55
6, 259772, Note_on_c, 4, 55, 0
6, 259776, Note_on_c, 4, 59, 55
6, 259964, Note_on_c, 4, 59, 0
6, 259968, Note_on_c, 4, 62, 55
6, 260156, Note_on_c, 4, 62, 0
6, 260160, Note_on_c, 4, 62, 55
6, 260348, Note_on_c, 4, 62, 0
6, 260352, Note_on_c, 4, 50, 55
6, 260540, Note_on_c, 4, 50, 0
6, 260544, Note_on_c, 4, 54, 55
6, 260732, Note_on_c, 4, 54, 0
6, 260736, Note_on_c, 4, 62, 55
6, 260924, Note_on_c, 4, 62, 0
6, 260928, Note_on_c, 4, 62, 55
6, 261116, Note_on_c, 4, 62, 0
6, 261120, Note_on_c, 4, 55, 62
6, 261308, Note_on_c, 4, 55, 0
6, 261312, Note_on_c, 4, 59, 62
6, 261500, Note_on_c, 4, 59, 0
6, 261504, Note_on_c, 4, 62, 62
6, 261692, Note_on_c, 4, 62, 0
6, 261696, Note_on_c, 4, 62, 62
6, 261884, Note_on_c, 4, 62, 0
6, 261888, Note_on_c, 4, 54, 62
6, 262076, Note_on_c, 4, 54, 0
6, 262080, Note_on_c, 4, 57, 62
6, 262268, Note_on_c, 4, 57, 0
6, 262272, Note_on_c, 4, 62, 62
6, 262460, Note_on_c, 4, 62, 0
6, 262464, Note_on_c, 4, 62, 62
6, 262652, Note_on_c, 4, 62, 0
6, 262656, Note_on_c, 4, 55, 68
6, 262844, Note_on_c, 4, 55, 0
6, 262848, Note_on_c, 4, 59, 68
6, 263036, Note_on_c, 4, 59, 0
6, 263040, Note_on_c, 4, 62, 68
6, 263228, Note_on_c, 4, 62, 0
6, 263232, Note_on_c, 4, 62, 68
6, 263420, Note_on_c, 4, 62, 0
6, 263424, Note_on_c, 4, 50, 68
6, 263612, Note_on_c, 4, 50, 0
6, 263616, Note_on_c, 4, 54, 68
6, 263804, Note_on_c, 4, 54, 0
6, 263808, Note_on_c, 4, 62, 68
6, 263996, Note_on_c, 4, 62, 0
6, 264000, Note_on_c, 4, 62, 68
6, 264188, Note_on_c, 4, 62, 0
6, 264192, Note_on_c, 4, 55, 74
6, 264380, Note_on_c, 4, 55, 0
6, 264384, Note_on_c, 4, 59, 74
6, 264572, Note_on_c, 4, 59, 0
6, 264576, Note_on_c, 4, 62, 74
6, 264764, Note_on_c, 4, 62, 0
6, 264768, Note_on_c, 4, 62, 74
6, 264956, Note_on_c, 4, 62, 0
6, 264960, Note_on_c, 4, 54, 74
6, 265148, Note_on_c, 4, 54, 0
6, 265152, Note_on_c, 4, 57, 74
6, 265340, Note_on_c, 4, 57, 0
6, 265344, Note_on_c, 4, 62, 74
6, 265532, Note_on_c, 4, 62, 0
6, 265536, Note_on_c, 4, 62, 74
6, 265724, Note_on_c, 4, 62, 0
6, 265728, Note_on_c, 4, 55, 83
6, 265916, Note_on_c, 4, 55, 0
6, 265920, Note_on_c, 4, 59, 83
6, 266108, Note_on_c, 4, 59, 0
6, 266112, Note_on_c, 4, 62, 83
6, 266300, Note_on_c, 4, 62, 0
6, 266304, Note_on_c, 4, 62, 83
6, 266492, Note_on_c, 4, 62, 0
6, 266496, Note_on_c, 4, 50, 83
6, 266684, Note_on_c, 4, 50, 0
6, 266688, Note_on_c, 4, 54, 83
6, 266876, Note_on_c, 4, 54, 0
6, 266880, Note_on_c, 4, 62, 83
6, 267068, Note_on_c, 4, 62, 0
6, 267072, Note_on_c, 4, 62, 83
6, 267260, Note_on_c, 4, 62, 0
6, 267264, Note_on_c, 4, 59, 55
6, 267264, Note_on_c, 4, 55, 62
6, 267644, Note_on_c, 4, 59, 0
6, 273404, Note_on_c, 4, 55, 0
6, 273408, Note_on_c, 4, 43, 83
6, 274172, Note_on_c, 4, 43, 0
6, 276480, Note_on_c, 4, 43, 83
6, 278780, Note_on_c, 4, 43, 0
6, 281088, Note_on_c, 4, 48, 45
6, 281468, Note_on_c, 4, 48, 0
6, 281856, Note_on_c, 4, 43, 45
6, 282236, Note_on_c, 4, 43, 0
6, 282624, Note_on_c, 4, 36, 45
6, 283004, Note_on_c, 4, 36, 0
6, 284160, Note_on_c, 4, 48, 45
6, 284540, Note_on_c, 4, 48, 0
6, 285696, Note_on_c, 4, 48, 45
6, 286076, Note_on_c, 4, 48, 0
6, 287232, Note_on_c, 4, 52, 45
6, 287612, Note_on_c, 4, 52, 0
6, 288000, Note_on_c, 4, 55, 45
6, 288380, Note_on_c, 4, 55, 0
6, 288768, Note_on_c, 4, 48, 45
6, 289148, Note_on_c, 4, 48, 0
6, 289536, Note_on_c, 4, 43, 45
6, 289916, Note_on_c, 4, 43, 0
6, 290304, Note_on_c, 4, 48, 45
6, 290684, Note_on_c, 4, 48, 0
6, 291072, Note_on_c, 4, 60, 45
6, 291452, Note_on_c, 4, 60, 0
6, 291840, Note_on_c, 4, 55, 83
6, 292604, Note_on_c, 4, 55, 0
6, 302592, Note_on_c, 4, 52, 83
6, 302972, Note_on_c, 4, 52, 0
6, 302976, Note_on_c, 4, 48, 83
6, 303356, Note_on_c, 4, 48, 0
6, 303360, Note_on_c, 4, 55, 83
6, 303740, Note_on_c, 4, 55, 0
6, 303744, Note_on_c, 4, 43, 83
6, 304124, Note_on_c, 4, 43, 0
6, 304128, Note_on_c, 4, 48, 83
6, 304508, Note_on_c, 4, 48, 0
6, 319872, Note_on_c, 4, 53, 55
6, 320252, Note_on_c, 4, 53, 0
6, 320256, Note_on_c, 4, 53, 55
6, 320636, Note_on_c, 4, 53, 0
6, 320640, Note_on_c, 4, 53, 55
6, 321020, Note_on_c, 4, 53, 0
6, 321024, Note_on_c, 4, 53, 55
6, 321404, Note_on_c, 4, 53, 0
6, 321408, Note_on_c, 4, 53, 55
6, 321788, Note_on_c, 4, 53, 0
6, 321792, Note_on_c, 4, 53, 55
6, 322172, Note_on_c, 4, 53, 0
6, 322176, Note_on_c, 4, 53, 55
6, 322556, Note_on_c, 4, 53, 0
6, 322560, Note_on_c, 4, 53, 55
6, 322940, Note_on_c, 4, 53, 0
6, 322944, Note_on_c, 4, 53, 55
6, 323324, Note_on_c, 4, 53, 0
6, 323328, Note_on_c, 4, 53, 55
6, 323708, Note_on_c, 4, 53, 0
6, 323712, Note_on_c, 4, 53, 55
6, 324092, Note_on_c, 4, 53, 0
6, 324096, Note_on_c, 4, 53, 55
6, 324476, Note_on_c, 4, 53, 0
6, 324480, Note_on_c, 4, 53, 55
6, 324860, Note_on_c, 4, 53, 0
6, 324864, Note_on_c, 4, 53, 55
6, 325244, Note_on_c, 4, 53, 0
6, 325248, Note_on_c, 4, 53, 55
6, 325628, Note_on_c, 4, 53, 0
6, 325632, Note_on_c, 4, 57, 55
6, 327164, Note_on_c, 4, 57, 0
6, 327168, Note_on_c, 4, 62, 50
6, 327168, Note_on_c, 4, 58, 50
6, 328700, Note_on_c, 4, 58, 0
6, 328700, Note_on_c, 4, 62, 0
6, 328704, Note_on_c, 4, 60, 50
6, 329084, Note_on_c, 4, 60, 0
6, 329088, Note_on_c, 4, 60, 50
6, 329088, Note_on_c, 4, 48, 50
6, 329468, Note_on_c, 4, 48, 0
6, 329472, Note_on_c, 4, 48, 50
6, 329852, Note_on_c, 4, 48, 0
6, 329852, Note_on_c, 4, 60, 0
6, 329856, Note_on_c, 4, 60, 50
6, 329856, Note_on_c, 4, 48, 50
6, 330044, Note_on_c, 4, 60, 0
6, 330048, Note_on_c, 4, 58, 50
6, 330236, Note_on_c, 4, 58, 0
6, 330236, Note_on_c, 4, 48, 0
6, 330240, Note_on_c, 4, 57, 50
6, 330240, Note_on_c, 4, 53, 50
6, 330620, Note_on_c, 4, 53, 0
6, 330620, Note_on_c, 4, 57, 0
6, 331776, Note_on_c, 4, 41, 68
6, 332156, Note_on_c, 4, 41, 0
6, 332160, Note_on_c, 4, 41, 68
6, 332540, Note_on_c, 4, 41, 0
6, 332544, Note_on_c, 4, 41, 68
6, 332924, Note_on_c, 4, 41, 0
6, 332928, Note_on_c, 4, 41, 68
6, 333308, Note_on_c, 4, 41, 0
6, 333312, Note_on_c, 4, 41, 68
6, 333692, Note_on_c, 4, 41, 0
6, 333696, Note_on_c, 4, 41, 68
6, 334076, Note_on_c, 4, 41, 0
6, 334080, Note_on_c, 4, 41, 68
6, 334460, Note_on_c, 4, 41, 0
6, 334464, Note_on_c, 4, 41, 68
6, 334844, Note_on_c, 4, 41, 0
6, 334848, Note_on_c, 4, 41, 68
6, 335228, Note_on_c, 4, 41, 0
6, 335232, Note_on_c, 4, 41, 68
6, 335612, Note_on_c, 4, 41, 0
6, 335616, Note_on_c, 4, 41, 68
6, 335996, Note_on_c, 4, 41, 0
6, 336000, Note_on_c, 4, 41, 68
6, 336380, Note_on_c, 4, 41, 0
6, 370176, Note_on_c, 4, 60, 74
6, 370176, Note_on_c, 4, 52, 74
6, 370940, Note_on_c, 4, 52, 0
6, 370940, Note_on_c, 4, 60, 0
6, 371328, Note_on_c, 4, 60, 74
6, 371328, Note_on_c, 4, 52, 74
6, 371708, Note_on_c, 4, 52, 0
6, 371708, Note_on_c, 4, 60, 0
6, 371712, Note_on_c, 4, 60, 74
6, 371712, Note_on_c, 4, 53, 74
6, 372092, Note_on_c, 4, 53, 0
6, 372092, Note_on_c, 4, 60, 0
6, 374016, Note_on_c, 4, 53, 74
6, 374396, Note_on_c, 4, 53, 0
6, 374400, Note_on_c, 4, 54, 74
6, 374780, Note_on_c, 4, 54, 0
6, 374784, Note_on_c, 4, 55, 74
6, 375164, Note_on_c, 4, 55, 0
6, 385536, Note_on_c, 4, 63, 74
6, 385916, Note_on_c, 4, 63, 0
6, 385920, Note_on_c, 4, 62, 74
6, 386300, Note_on_c, 4, 62, 0
6, 386304, Note_on_c, 4, 60, 74
6, 386684, Note_on_c, 4, 60, 0
6, 386688, Note_on_c, 4, 58, 74
6, 387068, Note_on_c, 4, 58, 0
6, 387072, Note_on_c, 4, 56, 74
6, 387072, Note_on_c, 4, 44, 74
6, 387452, Note_on_c, 4, 44, 0
6, 387452, Note_on_c, 4, 56, 0
6, 388608, Note_on_c, 4, 56, 74
6, 388608, Note_on_c, 4, 44, 74
6, 388988, Note_on_c, 4, 44, 0
6, 388988, Note_on_c, 4, 56, 0
6, 390144, Note_on_c, 4, 55, 74
6, 390144, Note_on_c, 4, 41, 74
6, 390524, Note_on_c, 4, 41, 0
6, 390524, Note_on_c, 4, 55, 0
6, 391680, Note_on_c, 4, 55, 74
6, 391680, Note_on_c, 4, 43, 74
6, 392060, Note_on_c, 4, 43, 0
6, 392060, Note_on_c, 4, 55, 0
6, 393216, Note_on_c, 4, 56, 74
6, 393216, Note_on_c, 4, 44, 74
6, 393596, Note_on_c, 4, 44, 0
6, 393596, Note_on_c, 4, 56, 0
6, 394752, Note_on_c, 4, 56, 74
6, 394752, Note_on_c, 4, 44, 74
6, 395132, Note_on_c, 4, 44, 0
6, 395132, Note_on_c, 4, 56, 0
6, 396288, Note_on_c, 4, 55, 74
6, 396288, Note_on_c, 4, 43, 74
6, 396668, Note_on_c, 4, 43, 0
6, 396668, Note_on_c, 4, 55, 0
6, 397056, Note_on_c, 4, 55, 74
6, 397436, Note_on_c, 4, 55, 0
6, 397824, Note_on_c, 4, 55, 74
6, 397824, Note_on_c, 4, 43, 74
6, 398204, Note_on_c, 4, 43, 0
6, 398204, Note_on_c, 4, 55, 0
6, 398592, Note_on_c, 4, 55, 45
6, 398972, Note_on_c, 4, 55, 0
6, 399360, Note_on_c, 4, 55, 45
6, 399740, Note_on_c, 4, 55, 0
6, 400128, Note_on_c, 4, 55, 45
6, 400508, Note_on_c, 4, 55, 0
6, 400896, Note_on_c, 4, 55, 45
6, 401276, Note_on_c, 4, 55, 0
6, 401664, Note_on_c, 4, 55, 45
6, 402044, Note_on_c, 4, 55, 0
6, 402432, Note_on_c, 4, 48, 55
6, 402812, Note_on_c, 4, 48, 0
6, 403968, Note_on_c, 4, 36, 55
6, 404348, Note_on_c, 4, 36, 0
6, 405504, Note_on_c, 4, 57, 55
6, 405504, Note_on_c, 4, 45, 55
6, 405884, Note_on_c, 4, 45, 0
6, 405884, Note_on_c, 4, 57, 0
6, 408000, Note_on_c, 4, 64, 55
6, 408188, Note_on_c, 4, 64, 0
6, 408192, Note_on_c, 4, 61, 55
6, 408380, Note_on_c, 4, 61, 0
6, 408384, Note_on_c, 4, 57, 55
6, 408572, Note_on_c, 4, 57, 0
6, 408576, Note_on_c, 4, 62, 55
6, 408956, Note_on_c, 4, 62, 0
6, 410112, Note_on_c, 4, 50, 55
6, 410492, Note_on_c, 4, 50, 0
6, 411648, Note_on_c, 4, 55, 55
6, 411648, Note_on_c, 4, 43, 55
6, 412028, Note_on_c, 4, 43, 0
6, 412028, Note_on_c, 4, 55, 0
6, 414144, Note_on_c, 4, 62, 55
6, 414332, Note_on_c, 4, 62, 0
6, 414336, Note_on_c, 4, 59, 55
6, 414524, Note_on_c, 4, 59, 0
6, 414528, Note_on_c, 4, 55, 55
6, 414716, Note_on_c, 4, 55, 0
6, 414720, Note_on_c, 4, 60, 74
6, 415100, Note_on_c, 4, 60, 0
6, 415488, Note_on_c, 4, 53, 74
6, 415488, Note_on_c, 4, 41, 74
6, 415868, Note_on_c, 4, 41, 0
6, 415868, Note_on_c, 4, 53, 0
6, 416256, Note_on_c, 4, 52, 74
6, 416256, Note_on_c, 4, 40, 74
6, 416636, Note_on_c, 4, 40, 0
6, 416636, Note_on_c, 4, 52, 0
6, 417024, Note_on_c, 4, 59, 74
6, 417024, Note_on_c, 4, 47, 74
6, 417404, Note_on_c, 4, 47, 0
6, 417404, Note_on_c, 4, 59, 0
6, 417792, Note_on_c, 4, 60, 74
6, 417792, Note_on_c, 4, 48, 74
6, 418172, Note_on_c, 4, 48, 0
6, 418172, Note_on_c, 4, 60, 0
6, 418560, Note_on_c, 4, 65, 74
6, 418560, Note_on_c, 4, 53, 74
6, 418940, Note_on_c, 4, 53, 0
6, 418940, Note_on_c, 4, 65, 0
6, 419328, Note_on_c, 4, 64, 74
6, 419328, Note_on_c, 4, 52, 74
6, 419708, Note_on_c, 4, 52, 0
6, 419708, Note_on_c, 4, 64, 0
6, 428544, Note_on_c, 4, 54, 83
6, 428544, Note_on_c, 4, 50, 83
6, 428544, Note_on_c, 4, 48, 83
6, 428544, Note_on_c, 4, 45, 83
6, 429308, Note_on_c, 4, 45, 0
6, 429308, Note_on_c, 4, 54, 0
6, 429308, Note_on_c, 4, 50, 0
6, 429308, Note_on_c, 4, 48, 0
6, 430080, Note_on_c, 4, 43, 64
6, 430460, Note_on_c, 4, 43, 0
6, 430464, Note_on_c, 4, 47, 64
6, 430652, Note_on_c, 4, 47, 0
6, 430656, Note_on_c, 4, 50, 64
6, 430844, Note_on_c, 4, 50, 0
6, 430848, Note_on_c, 4, 55, 64
6, 431036, Note_on_c, 4, 55, 0
6, 431040, Note_on_c, 4, 54, 64
6, 431228, Note_on_c, 4, 54, 0
6, 431232, Note_on_c, 4, 55, 64
6, 431420, Note_on_c, 4, 55, 0
6, 431424, Note_on_c, 4, 54, 64
6, 431612, Note_on_c, 4, 54, 0
6, 431616, Note_on_c, 4, 55, 64
6, 431804, Note_on_c, 4, 55, 0
6, 431808, Note_on_c, 4, 55, 64
6, 431996, Note_on_c, 4, 55, 0
6, 432000, Note_on_c, 4, 59, 64
6, 432188, Note_on_c, 4, 59, 0
6, 432192, Note_on_c, 4, 62, 64
6, 432380, Note_on_c, 4, 62, 0
6, 433152, Note_on_c, 4, 55, 64
6, 433340, Note_on_c, 4, 55, 0
6, 433344, Note_on_c, 4, 54, 64
6, 433532, Note_on_c, 4, 54, 0
6, 433536, Note_on_c, 4, 55, 64
6, 433724, Note_on_c, 4, 55, 0
6, 433728, Note_on_c, 4, 57, 64
6, 433916, Note_on_c, 4, 57, 0
6, 433920, Note_on_c, 4, 53, 64
6, 434108, Note_on_c, 4, 53, 0
6, 434112, Note_on_c, 4, 52, 64
6, 434300, Note_on_c, 4, 52, 0
6, 434304, Note_on_c, 4, 53, 64
6, 434492, Note_on_c, 4, 53, 0
6, 434496, Note_on_c, 4, 55, 64
6, 434684, Note_on_c, 4, 55, 0
6, 434688, Note_on_c, 4, 52, 64
6, 434876, Note_on_c, 4, 52, 0
6, 434880, Note_on_c, 4, 51, 64
6, 435068, Note_on_c, 4, 51, 0
6, 435072, Note_on_c, 4, 52, 64
6, 435260, Note_on_c, 4, 52, 0
6, 435264, Note_on_c, 4, 53, 64
6, 435452, Note_on_c, 4, 53, 0
6, 435456, Note_on_c, 4, 50, 64
6, 435644, Note_on_c, 4, 50, 0
6, 435648, Note_on_c, 4, 49, 64
6, 435836, Note_on_c, 4, 49, 0
6, 435840, Note_on_c, 4, 50, 64
6, 436028, Note_on_c, 4, 50, 0
6, 436032, Note_on_c, 4, 52, 64
6, 436220, Note_on_c, 4, 52, 0
6, 436224, Note_on_c, 4, 48, 64
6, 436604, Note_on_c, 4, 48, 0
6, 460800, Note_on_c, 4, 48, 55
6, 460988, Note_on_c, 4, 48, 0
6, 471552, Note_on_c, 4, 48, 55
6, 471740, Note_on_c, 4, 48, 0
6, 471744, Note_on_c, 4, 60, 55
6, 471932, Note_on_c, 4, 60, 0
6, 471936, Note_on_c, 4, 59, 55
6, 472124, Note_on_c, 4, 59, 0
6, 472128, Note_on_c, 4, 60, 55
6, 472316, Note_on_c, 4, 60, 0
6, 472320, Note_on_c, 4, 59, 55
6, 472508, Note_on_c, 4, 59, 0
6, 472512, Note_on_c, 4, 60, 55
6, 472700, Note_on_c, 4, 60, 0
6, 472704, Note_on_c, 4, 59, 55
6, 472892, Note_on_c, 4, 59, 0
6, 472896, Note_on_c, 4, 60, 55
6, 473084, Note_on_c, 4, 60, 0
6, 473088, Note_on_c, 4, 48, 55
6, 473852, Note_on_c, 4, 48, 0
6, 474240, Note_on_c, 4, 52, 55
6, 474620, Note_on_c, 4, 52, 0
6, 474624, Note_on_c, 4, 53, 74
6, 475004, Note_on_c, 4, 53, 0
6, 475008, Note_on_c, 4, 65, 74
6, 475196, Note_on_c, 4, 65, 0
6, 475200, Note_on_c, 4, 62, 74
6, 475388, Note_on_c, 4, 62, 0
6, 475392, Note_on_c, 4, 59, 74
6, 475772, Note_on_c, 4, 59, 0
6, 475776, Note_on_c, 4, 59, 74
6, 475964, Note_on_c, 4, 59, 0
6, 475968, Note_on_c, 4, 55, 74
6, 476156, Note_on_c, 4, 55, 0
6, 476160, Note_on_c, 4, 52, 74
6, 476528, Note_on_c, 4, 64, 74
6, 476540, Note_on_c, 4, 52, 0
6, 476716, Note_on_c, 4, 64, 0
6, 476736, Note_on_c, 4, 60, 74
6, 476924, Note_on_c, 4, 60, 0
6, 476928, Note_on_c, 4, 57, 74
6, 477308, Note_on_c, 4, 57, 0
6, 477312, Note_on_c, 4, 57, 74
6, 477500, Note_on_c, 4, 57, 0
6, 477504, Note_on_c, 4, 53, 74
6, 477692, Note_on_c, 4, 53, 0
6, 477696, Note_on_c, 4, 50, 74
6, 478076, Note_on_c, 4, 50, 0
6, 478080, Note_on_c, 4, 62, 74
6, 478268, Note_on_c, 4, 62, 0
6, 478272, Note_on_c, 4, 60, 74
6, 478460, Note_on_c, 4, 60, 0
6, 478464, Note_on_c, 4, 59, 74
6, 478652, Note_on_c, 4, 59, 0
6, 478656, Note_on_c, 4, 57, 74
6, 478844, Note_on_c, 4, 57, 0
6, 478848, Note_on_c, 4, 59, 74
6, 479036, Note_on_c, 4, 59, 0
6, 479040, Note_on_c, 4, 55, 74
6, 479228, Note_on_c, 4, 55, 0
6, 479232, Note_on_c, 4, 60, 74
6, 479612, Note_on_c, 4, 60, 0
6, 517632, Note_on_c, 4, 60, 83
6, 517632, Note_on_c, 4, 48, 83
6, 518012, Note_on_c, 4, 48, 0
6, 518012, Note_on_c, 4, 60, 0
6, 518016, Note_on_c, 4, 48, 83
6, 518204, Note_on_c, 4, 48, 0
6, 518208, Note_on_c, 4, 48, 83
6, 518396, Note_on_c, 4, 48, 0
6, 518400, Note_on_c, 4, 47, 83
6, 518588, Note_on_c, 4, 47, 0
6, 518592, Note_on_c, 4, 50, 83
6, 518780, Note_on_c, 4, 50, 0
6, 518784, Note_on_c, 4, 53, 83
6, 518972, Note_on_c, 4, 53, 0
6, 518976, Note_on_c, 4, 53, 83
6, 519164, Note_on_c, 4, 53, 0
6, 519168, Note_on_c, 4, 52, 83
6, 519356, Note_on_c, 4, 52, 0
6, 519360, Note_on_c, 4, 55, 83
6, 519548, Note_on_c, 4, 55, 0
6, 519552, Note_on_c, 4, 60, 83
6, 519740, Note_on_c, 4, 60, 0
6, 519744, Note_on_c, 4, 60, 83
6, 519932, Note_on_c, 4, 60, 0
6, 519936, Note_on_c, 4, 59, 83
6, 520124, Note_on_c, 4, 59, 0
6, 520128, Note_on_c, 4, 62, 83
6, 520316, Note_on_c, 4, 62, 0
6, 520320, Note_on_c, 4, 65, 83
6, 520508, Note_on_c, 4, 65, 0
6, 520512, Note_on_c, 4, 65, 83
6, 520700, Note_on_c, 4, 65, 0
6, 520704, Note_on_c, 4, 64, 74
6, 521084, Note_on_c, 4, 64, 0
6, 521088, Note_on_c, 4, 55, 74
6, 521276, Note_on_c, 4, 55, 0
6, 521280, Note_on_c, 4, 55, 74
6, 521468, Note_on_c, 4, 55, 0
6, 521472, Note_on_c, 4, 62, 74
6, 521852, Note_on_c, 4, 62, 0
6, 521856, Note_on_c, 4, 55, 74
6, 522044, Note_on_c, 4, 55, 0
6, 522048, Note_on_c, 4, 55, 74
6, 522236, Note_on_c, 4, 55, 0
6, 522240, Note_on_c, 4, 64, 74
6, 522620, Note_on_c, 4, 64, 0
6, 522624, Note_on_c, 4, 55, 74
6, 522812, Note_on_c, 4, 55, 0
6, 522816, Note_on_c, 4, 55, 74
6, 523004, Note_on_c, 4, 55, 0
6, 523008, Note_on_c, 4, 59, 74
6, 523388, Note_on_c, 4, 59, 0
6, 523392, Note_on_c, 4, 55, 74
6, 523580, Note_on_c, 4, 55, 0
6, 523584, Note_on_c, 4, 55, 74
6, 523772, Note_on_c, 4, 55, 0
6, 523776, Note_on_c, 4, 60, 74
6, 524156, Note_on_c, 4, 60, 0
6, 524160, Note_on_c, 4, 55, 74
6, 524348, Note_on_c, 4, 55, 0
6, 524352, Note_on_c, 4, 55, 74
6, 524540, Note_on_c, 4, 55, 0
6, 524544, Note_on_c, 4, 62, 74
6, 524924, Note_on_c, 4, 62, 0
6, 524928, Note_on_c, 4, 55, 74
6, 525116, Note_on_c, 4, 55, 0
6, 525120, Note_on_c, 4, 55, 74
6, 525308, Note_on_c, 4, 55, 0
6, 525312, Note_on_c, 4, 64, 74
6, 525692, Note_on_c, 4, 64, 0
6, 525696, Note_on_c, 4, 55, 74
6, 525884, Note_on_c, 4, 55, 0
6, 525888, Note_on_c, 4, 55, 74
6, 526076, Note_on_c, 4, 55, 0
6, 526080, Note_on_c, 4, 59, 74
6, 526460, Note_on_c, 4, 59, 0
6, 526464, Note_on_c, 4, 55, 74
6, 526652, Note_on_c, 4, 55, 0
6, 526656, Note_on_c, 4, 55, 74
6, 526844, Note_on_c, 4, 55, 0
6, 526848, Note_on_c, 4, 60, 83
6, 527228, Note_on_c, 4, 60, 0
6, 527616, Note_on_c, 4, 57, 55
6, 527996, Note_on_c, 4, 57, 0
6, 528384, Note_on_c, 4, 53, 55
6, 528764, Note_on_c, 4, 53, 0
6, 529152, Note_on_c, 4, 50, 55
6, 529532, Note_on_c, 4, 50, 0
6, 530112, Note_on_c, 4, 55, 74
6, 530300, Note_on_c, 4, 55, 0
6, 530320, Note_on_c, 4, 54, 74
6, 530496, Note_on_c, 4, 53, 74
6, 530508, Note_on_c, 4, 54, 0
6, 530684, Note_on_c, 4, 53, 0
6, 530688, Note_on_c, 4, 52, 74
6, 530876, Note_on_c, 4, 52, 0
6, 530880, Note_on_c, 4, 60, 74
6, 531068, Note_on_c, 4, 60, 0
6, 531072, Note_on_c, 4, 59, 74
6, 531260, Note_on_c, 4, 59, 0
6, 531264, Note_on_c, 4, 58, 74
6, 531452, Note_on_c, 4, 58, 0
6, 531456, Note_on_c, 4, 57, 74
6, 531836, Note_on_c, 4, 57, 0
6, 531840, Note_on_c, 4, 53, 74
6, 532220, Note_on_c, 4, 53, 0
6, 532224, Note_on_c, 4, 55, 74
6, 532604, Note_on_c, 4, 55, 0
6, 532608, Note_on_c, 4, 43, 74
6, 532988, Note_on_c, 4, 43, 0
6, 536256, Note_on_c, 4, 55, 74
6, 536444, Note_on_c, 4, 55, 0
6, 536448, Note_on_c, 4, 54, 74
6, 536636, Note_on_c, 4, 54, 0
6, 536640, Note_on_c, 4, 53, 74
6, 536828, Note_on_c, 4, 53, 0
6, 536832, Note_on_c, 4, 52, 74
6, 537020, Note_on_c, 4, 52, 0
6, 537024, Note_on_c, 4, 60, 74
6, 537212, Note_on_c, 4, 60, 0
6, 537216, Note_on_c, 4, 59, 74
6, 537404, Note_on_c, 4, 59, 0
6, 537408, Note_on_c, 4, 58, 74
6, 537596, Note_on_c, 4, 58, 0
6, 537600, Note_on_c, 4, 57, 74
6, 537980, Note_on_c, 4, 57, 0
6, 537984, Note_on_c, 4, 53, 74
6, 538364, Note_on_c, 4, 53, 0
6, 538368, Note_on_c, 4, 55, 74
6, 538748, Note_on_c, 4, 55, 0
6, 538752, Note_on_c, 4, 43, 74
6, 539132, Note_on_c, 4, 43, 0
6, 539328, Note_on_c, 4, 55, 74
6, 539516, Note_on_c, 4, 55, 0
6, 539520, Note_on_c, 4, 54, 74
6, 539708, Note_on_c, 4, 54, 0
6, 539712, Note_on_c, 4, 53, 74
6, 539900, Note_on_c, 4, 53, 0
6, 539904, Note_on_c, 4, 52, 74
6, 540092, Note_on_c, 4, 52, 0
6, 540096, Note_on_c, 4, 60, 74
6, 540284, Note_on_c, 4, 60, 0
6, 540288, Note_on_c, 4, 59, 74
6, 540476, Note_on_c, 4, 59, 0
6, 540480, Note_on_c, 4, 58, 74
6, 540668, Note_on_c, 4, 58, 0
6, 540672, Note_on_c, 4, 57, 74
6, 541052, Note_on_c, 4, 57, 0
6, 541056, Note_on_c, 4, 53, 74
6, 541436, Note_on_c, 4, 53, 0
6, 541440, Note_on_c, 4, 55, 74
6, 541820, Note_on_c, 4, 55, 0
6, 541824, Note_on_c, 4, 43, 74
6, 542204, Note_on_c, 4, 43, 0
6, 542208, Note_on_c, 4, 45, 74
6, 542396, Note_on_c, 4, 45, 0
6, 542400, Note_on_c, 4, 48, 74
6, 542588, Note_on_c, 4, 48, 0
6, 542592, Note_on_c, 4, 52, 74
6, 542780, Note_on_c, 4, 52, 0
6, 542784, Note_on_c, 4, 57, 74
6, 542972, Note_on_c, 4, 57, 0
6, 542976, Note_on_c, 4, 41, 74
6, 543164, Note_on_c, 4, 41, 0
6, 543168, Note_on_c, 4, 45, 74
6, 543356, Note_on_c, 4, 45, 0
6, 543360, Note_on_c, 4, 50, 74
6, 543548, Note_on_c, 4, 50, 0
6, 543552, Note_on_c, 4, 53, 74
6, 543740, Note_on_c, 4, 53, 0
6, 543744, Note_on_c, 4, 43, 74
6, 543932, Note_on_c, 4, 43, 0
6, 543936, Note_on_c, 4, 48, 74
6, 544124, Note_on_c, 4, 48, 0
6, 544128, Note_on_c, 4, 52, 74
6, 544316, Note_on_c, 4, 52, 0
6, 544320, Note_on_c, 4, 55, 74
6, 544508, Note_on_c, 4, 55, 0
6, 544512, Note_on_c, 4, 43, 74
6, 544700, Note_on_c, 4, 43, 0
6, 544704, Note_on_c, 4, 50, 74
6, 544892, Note_on_c, 4, 50, 0
6, 544896, Note_on_c, 4, 53, 74
6, 545084, Note_on_c, 4, 53, 0
6, 545088, Note_on_c, 4, 55, 74
6, 545276, Note_on_c, 4, 55, 0
6, 545280, Note_on_c, 4, 45, 83
6, 545468, Note_on_c, 4, 45, 0
6, 545472, Note_on_c, 4, 48, 83
6, 545660, Note_on_c, 4, 48, 0
6, 545664, Note_on_c, 4, 52, 83
6, 545852, Note_on_c, 4, 52, 0
6, 545856, Note_on_c, 4, 57, 83
6, 546044, Note_on_c, 4, 57, 0
6, 546048, Note_on_c, 4, 41, 83
6, 546236, Note_on_c, 4, 41, 0
6, 546240, Note_on_c, 4, 45, 83
6, 546428, Note_on_c, 4, 45, 0
6, 546432, Note_on_c, 4, 50, 83
6, 546620, Note_on_c, 4, 50, 0
6, 546624, Note_on_c, 4, 53, 83
6, 546812, Note_on_c, 4, 53, 0
6, 546816, Note_on_c, 4, 43, 83
6, 547004, Note_on_c, 4, 43, 0
6, 547008, Note_on_c, 4, 48, 83
6, 547196, Note_on_c, 4, 48, 0
6, 547200, Note_on_c, 4, 52, 83
6, 547388, Note_on_c, 4, 52, 0
6, 547392, Note_on_c, 4, 55, 83
6, 547580, Note_on_c, 4, 55, 0
6, 547584, Note_on_c, 4, 43, 83
6, 547772, Note_on_c, 4, 43, 0
6, 547776, Note_on_c, 4, 47, 83
6, 547964, Note_on_c, 4, 47, 0
6, 547968, Note_on_c, 4, 50, 83
6, 548156, Note_on_c, 4, 50, 0
6, 548160, Note_on_c, 4, 55, 83
6, 548348, Note_on_c, 4, 55, 0
6, 548352, Note_on_c, 4, 48, 83
6, 548540, Note_on_c, 4, 48, 0
6, 548544, Note_on_c, 4, 59, 83
6, 548732, Note_on_c, 4, 59, 0
6, 548736, Note_on_c, 4, 60, 83
6, 548924, Note_on_c, 4, 60, 0
6, 548928, Note_on_c, 4, 62, 83
6, 549116, Note_on_c, 4, 62, 0
6, 549120, Note_on_c, 4, 64, 83
6, 549308, Note_on_c, 4, 64, 0
6, 549312, Note_on_c, 4, 62, 83
6, 549500, Note_on_c, 4, 62, 0
6, 549504, Note_on_c, 4, 60, 83
6, 549692, Note_on_c, 4, 60, 0
6, 549696, Note_on_c, 4, 59, 83
6, 549884, Note_on_c, 4, 59, 0
6, 549888, Note_on_c, 4, 57, 83
6, 550076, Note_on_c, 4, 57, 0
6, 550080, Note_on_c, 4, 56, 83
6, 550268, Note_on_c, 4, 56, 0
6, 550272, Note_on_c, 4, 57, 83
6, 550460, Note_on_c, 4, 57, 0
6, 550464, Note_on_c, 4, 59, 83
6, 550652, Note_on_c, 4, 59, 0
6, 550656, Note_on_c, 4, 60, 83
6, 550844, Note_on_c, 4, 60, 0
6, 550848, Note_on_c, 4, 59, 83
6, 551036, Note_on_c, 4, 59, 0
6, 551040, Note_on_c, 4, 57, 83
6, 551228, Note_on_c, 4, 57, 0
6, 551232, Note_on_c, 4, 55, 83
6, 551420, Note_on_c, 4, 55, 0
6, 551424, Note_on_c, 4, 53, 83
6, 551804, Note_on_c, 4, 53, 0
6, 552192, Note_on_c, 4, 50, 83
6, 552192, Note_on_c, 4, 38, 83
6, 552572, Note_on_c, 4, 38, 0
6, 552572, Note_on_c, 4, 50, 0
6, 552960, Note_on_c, 4, 48, 83
6, 552960, Note_on_c, 4, 36, 83
6, 553340, Note_on_c, 4, 36, 0
6, 553340, Note_on_c, 4, 48, 0
6, 553728, Note_on_c, 4, 57, 83
6, 553728, Note_on_c, 4, 45, 83
6, 554108, Note_on_c, 4, 45, 0
6, 554108, Note_on_c, 4, 57, 0
6, 554496, Note_on_c, 4, 55, 83
6, 554496, Note_on_c, 4, 43, 83
6, 555260, Note_on_c, 4, 43, 0
6, 555260, Note_on_c, 4, 55, 0
6, 556032, Note_on_c, 4, 48, 83
6, 556220, Note_on_c, 4, 48, 0
6, 556224, Note_on_c, 4, 50, 83
6, 556412, Note_on_c, 4, 50, 0
6, 556416, Note_on_c, 4, 52, 83
6, 556604, Note_on_c, 4, 52, 0
6, 556608, Note_on_c, 4, 50, 83
6, 556796, Note_on_c, 4, 50, 0
6, 556800, Note_on_c, 4, 48, 83
6, 556988, Note_on_c, 4, 48, 0
6, 556992, Note_on_c, 4, 50, 83
6, 557180, Note_on_c, 4, 50, 0
6, 557184, Note_on_c, 4, 52, 83
6, 557372, Note_on_c, 4, 52, 0
6, 557376, Note_on_c, 4, 53, 83
6, 557564, Note_on_c, 4, 53, 0
6, 557568, Note_on_c, 4, 55, 83
6, 557756, Note_on_c, 4, 55, 0
6, 557760, Note_on_c, 4, 57, 83
6, 557948, Note_on_c, 4, 57, 0
6, 557952, Note_on_c, 4, 59, 83
6, 558140, Note_on_c, 4, 59, 0
6, 558144, Note_on_c, 4, 57, 83
6, 558332, Note_on_c, 4, 57, 0
6, 558336, Note_on_c, 4, 55, 83
6, 558524, Note_on_c, 4, 55, 0
6, 558528, Note_on_c, 4, 57, 83
6, 558716, Note_on_c, 4, 57, 0
6, 558720, Note_on_c, 4, 59, 83
6, 558908, Note_on_c, 4, 59, 0
6, 558912, Note_on_c, 4, 55, 83
6, 559100, Note_on_c, 4, 55, 0
6, 559104, Note_on_c, 4, 60, 83
6, 559292, Note_on_c, 4, 60, 0
6, 559296, Note_on_c, 4, 64, 83
6, 559484, Note_on_c, 4, 64, 0
6, 559488, Note_on_c, 4, 60, 83
6, 559676, Note_on_c, 4, 60, 0
6, 559680, Note_on_c, 4, 55, 83
6, 559868, Note_on_c, 4, 55, 0
6, 559872, Note_on_c, 4, 52, 83
6, 560060, Note_on_c, 4, 52, 0
6, 560064, Note_on_c, 4, 55, 83
6, 560252, Note_on_c, 4, 55, 0
6, 560256, Note_on_c, 4, 52, 83
6, 560444, Note_on_c, 4, 52, 0
6, 560448, Note_on_c, 4, 48, 83
6, 560636, Note_on_c, 4, 48, 0
6, 560640, Note_on_c, 4, 43, 83
6, 560828, Note_on_c, 4, 43, 0
6, 560832, Note_on_c, 4, 47, 83
6, 561020, Note_on_c, 4, 47, 0
6, 561024, Note_on_c, 4, 50, 83
6, 561212, Note_on_c, 4, 50, 0
6, 561216, Note_on_c, 4, 55, 83
6, 561404, Note_on_c, 4, 55, 0
6, 561408, Note_on_c, 4, 59, 83
6, 561596, Note_on_c, 4, 59, 0
6, 561600, Note_on_c, 4, 62, 83
6, 561788, Note_on_c, 4, 62, 0
6, 561792, Note_on_c, 4, 59, 83
6, 561980, Note_on_c, 4, 59, 0
6, 561984, Note_on_c, 4, 55, 83
6, 562172, Note_on_c, 4, 55, 0
6, 562176, Note_on_c, 4, 60, 83
6, 562556, Note_on_c, 4, 60, 0
6, 576000, Note_on_c, 4, 64, 55
6, 576188, Note_on_c, 4, 64, 0
6, 576192, Note_on_c, 4, 60, 55
6, 576380, Note_on_c, 4, 60, 0
6, 576384, Note_on_c, 4, 55, 55
6, 576572, Note_on_c, 4, 55, 0
6, 576576, Note_on_c, 4, 52, 55
6, 576764, Note_on_c, 4, 52, 0
6, 576768, Note_on_c, 4, 48, 55
6, 577148, Note_on_c, 4, 48, 0
6, 577152, Note_on_c, 4, 60, 55
6, 577532, Note_on_c, 4, 60, 0
6, 577536, Note_on_c, 4, 55, 55
6, 577916, Note_on_c, 4, 55, 0
6, 579072, Note_on_c, 4, 60, 55
6, 579452, Note_on_c, 4, 60, 0
6, 579840, Note_on_c, 4, 55, 55
6, 580220, Note_on_c, 4, 55, 0
6, 580608, Note_on_c, 4, 48, 55
6, 580988, Note_on_c, 4, 48, 0
6, 581376, Note_on_c, 4, 64, 55
6, 581564, Note_on_c, 4, 64, 0
6, 581568, Note_on_c, 4, 60, 55
6, 581756, Note_on_c, 4, 60, 0
6, 581760, Note_on_c, 4, 64, 55
6, 581948, Note_on_c, 4, 64, 0
6, 581952, Note_on_c, 4, 60, 55
6, 582140, Note_on_c, 4, 60, 0
6, 582144, Note_on_c, 4, 65, 55
6, 582332, Note_on_c, 4, 65, 0
6, 582336, Note_on_c, 4, 60, 55
6, 582524, Note_on_c, 4, 60, 0
6, 582528, Note_on_c, 4, 64, 55
6, 582716, Note_on_c, 4, 64, 0
6, 582720, Note_on_c, 4, 60, 55
6, 582908, Note_on_c, 4, 60, 0
6, 582912, Note_on_c, 4, 64, 55
6, 583100, Note_on_c, 4, 64, 0
6, 583104, Note_on_c, 4, 60, 55
6, 583292, Note_on_c, 4, 60, 0
6, 583296, Note_on_c, 4, 64, 55
6, 583484, Note_on_c, 4, 64, 0
6, 583488, Note_on_c, 4, 60, 55
6, 583676, Note_on_c, 4, 60, 0
6, 583680, Note_on_c, 4, 65, 55
6, 583868, Note_on_c, 4, 65, 0
6, 583872, Note_on_c, 4, 60, 55
6, 584060, Note_on_c, 4, 60, 0
6, 584064, Note_on_c, 4, 65, 55
6, 584252, Note_on_c, 4, 65, 0
6, 584256, Note_on_c, 4, 60, 55
6, 584444, Note_on_c, 4, 60, 0
6, 584448, Note_on_c, 4, 64, 55
6, 584636, Note_on_c, 4, 64, 0
6, 584640, Note_on_c, 4, 60, 55
6, 584828, Note_on_c, 4, 60, 0
6, 584832, Note_on_c, 4, 64, 55
6, 585020, Note_on_c, 4, 64, 0
6, 585024, Note_on_c, 4, 60, 55
6, 585212, Note_on_c, 4, 60, 0
6, 585216, Note_on_c, 4, 48, 74
6, 585596, Note_on_c, 4, 48, 0
6, 585984, Note_on_c, 4, 43, 74
6, 586364, Note_on_c, 4, 43, 0
6, 586752, Note_on_c, 4, 48, 74
6, 587132, Note_on_c, 4, 48, 0
6, 587520, Note_on_c, 4, 55, 74
6, 587900, Note_on_c, 4, 55, 0
6, 588288, Note_on_c, 4, 52, 74
6, 588668, Note_on_c, 4, 52, 0
6, 588672, Note_on_c, 4, 48, 74
6, 589052, Note_on_c, 4, 48, 0
6, 589056, Note_on_c, 4, 55, 74
6, 589436, Note_on_c, 4, 55, 0
6, 589440, Note_on_c, 4, 43, 74
6, 589820, Note_on_c, 4, 43, 0
6, 589824, Note_on_c, 4, 48, 74
6, 590204, Note_on_c, 4, 48, 0
6, 592896, Note_on_c, 4, 60, 55
6, 593084, Note_on_c, 4, 60, 0
6, 593088, Note_on_c, 4, 55, 55
6, 593276, Note_on_c, 4, 55, 0
6, 593280, Note_on_c, 4, 60, 55
6, 593468, Note_on_c, 4, 60, 0
6, 593472, Note_on_c, 4, 62, 55
6, 593660, Note_on_c, 4, 62, 0
6, 593664, Note_on_c, 4, 64, 55
6, 593852, Note_on_c, 4, 64, 0
6, 593856, Note_on_c, 4, 60, 55
6, 594044, Note_on_c, 4, 60, 0
6, 594048, Note_on_c, 4, 62, 55
6, 594236, Note_on_c, 4, 62, 0
6, 594240, Note_on_c, 4, 59, 55
6, 594428, Note_on_c, 4, 59, 0
6, 594432, Note_on_c, 4, 60, 55
6, 594620, Note_on_c, 4, 60, 0
6, 594624, Note_on_c, 4, 55, 55
6, 594812, Note_on_c, 4, 55, 0
6, 594816, Note_on_c, 4, 60, 55
6, 595004, Note_on_c, 4, 60, 0
6, 595008, Note_on_c, 4, 62, 55
6, 595196, Note_on_c, 4, 62, 0
6, 595200, Note_on_c, 4, 64, 55
6, 595388, Note_on_c, 4, 64, 0
6, 595392, Note_on_c, 4, 60, 55
6, 595580, Note_on_c, 4, 60, 0
6, 595584, Note_on_c, 4, 62, 55
6, 595772, Note_on_c, 4, 62, 0
6, 595776, Note_on_c, 4, 59, 55
6, 595964, Note_on_c, 4, 59, 0
6, 595968, Note_on_c, 4, 60, 55
6, 596156, Note_on_c, 4, 60, 0
6, 596160, Note_on_c, 4, 55, 55
6, 596348, Note_on_c, 4, 55, 0
6, 596352, Note_on_c, 4, 60, 55
6, 596540, Note_on_c, 4, 60, 0
6, 596544, Note_on_c, 4, 62, 55
6, 596732, Note_on_c, 4, 62, 0
6, 596736, Note_on_c, 4, 64, 55
6, 596924, Note_on_c, 4, 64, 0
6, 596928, Note_on_c, 4, 60, 55
6, 597116, Note_on_c, 4, 60, 0
6, 597120, Note_on_c, 4, 62, 55
6, 597308, Note_on_c, 4, 62, 0
6, 597312, Note_on_c, 4, 59, 55
6, 597500, Note_on_c, 4, 59, 0
6, 597504, Note_on_c, 4, 60, 55
6, 597692, Note_on_c, 4, 60, 0
6, 597696, Note_on_c, 4, 55, 55
6, 597884, Note_on_c, 4, 55, 0
6, 597888, Note_on_c, 4, 60, 55
6, 598076, Note_on_c, 4, 60, 0
6, 598080, Note_on_c, 4, 64, 55
6, 598268, Note_on_c, 4, 64, 0
6, 598272, Note_on_c, 4, 60, 55
6, 598652, Note_on_c, 4, 60, 0
6, 598656, Note_on_c, 4, 55, 83
6, 599036, Note_on_c, 4, 55, 0
6, 599040, Note_on_c, 4, 60, 89
6, 599040, Note_on_c, 4, 48, 89
6, 599420, Note_on_c, 4, 48, 0
6, 599420, Note_on_c, 4, 60, 0
6, 599424, Note_on_c, 4, 64, 89
6, 599424, Note_on_c, 4, 60, 89
6, 599804, Note_on_c, 4, 60, 0
6, 599804, Note_on_c, 4, 64, 0
6, 599808, Note_on_c, 4, 64, 89
6, 599808, Note_on_c, 4, 60, 89
6, 600188, Note_on_c, 4, 60, 0
6, 600188, Note_on_c, 4, 64, 0
6, 600192, Note_on_c, 4, 55, 89
6, 600572, Note_on_c, 4, 55, 0
6, 600576, Note_on_c, 4, 60, 89
6, 600576, Note_on_c, 4, 48, 89
6, 600956, Note_on_c, 4, 48, 0
6, 600956, Note_on_c, 4, 60, 0
6, 600960, Note_on_c, 4, 60, 89
6, 600960, Note_on_c, 4, 64, 89
6, 601340, Note_on_c, 4, 64, 0
6, 601340, Note_on_c, 4, 60, 0
6, 601344, Note_on_c, 4, 60, 89
6, 601344, Note_on_c, 4, 64, 89
6, 601724, Note_on_c, 4, 64, 0
6, 601724, Note_on_c, 4, 60, 0
6, 601728, Note_on_c, 4, 55, 89
6, 602108, Note_on_c, 4, 55, 0
6, 602112, Note_on_c, 4, 60, 89
6, 602112, Note_on_c, 4, 48, 89
6, 602876, Note_on_c, 4, 48, 0
6, 602876, Note_on_c, 4, 60, 0
6, 602880, Note_on_c, 4, 60, 89
6, 602880, Note_on_c, 4, 48, 89
6, 603644, Note_on_c, 4, 48, 0
6, 603644, Note_on_c, 4, 60, 0
6, 603648, Note_on_c, 4, 48, 89
6, 603648, Note_on_c, 4, 36, 89
6, 605180, Note_on_c, 4, 36, 0
6, 605180, Note_on_c, 4, 48, 0
6, 605180, End_track
7, 0, Start_track
7, 0, MIDI_port, 0
7, 0, Title_t, "by Bob"
7, 0, Control_c, 5, 121, 127
7, 0, End_track
8, 0, Start_track
8, 0, MIDI_port, 0
8, 0, Title_t, "Fisher"
8, 0, Control_c, 6, 121, 127
8, 0, End_track
0, 0, End_of_file
