0, 0, Header, 1, 16, 384
1, 0, Start_track
1, 0, Time_signature, 3, 3, 96, 8
1, 0, Sequencer_specific, 3, 0, 0, 65
1, 0, Tempo, 1200000
1, 0, End_track
2, 0, Start_track
2, 0, Title_t, "Mozart - Piano"
2, 0, Control_c, 0, 0, 0
2, 0, Program_c, 0, 0
2, 0, Control_c, 0, 7, 80
2, 0, Control_c, 0, 10, 82
2, 0, Control_c, 0, 91, 55
2, 0, Control_c, 0, 93, 53
2, 0, Key_signature, -3, "major"
2, 0, Control_c, 0, 127, 0
2, 48, Control_c, 0, 10, 73
2, 96, Control_c, 0, 91, 63
2, 120, Control_c, 0, 93, 40
2, 144, Program_c, 0, 0
2, 768, Note_on_c, 0, 79, 60
2, 768, Note_on_c, 0, 82, 60
2, 896, Note_off_c, 0, 79, 100
2, 896, Note_off_c, 0, 82, 100
2, 960, Note_on_c, 0, 77, 60
2, 960, Note_on_c, 0, 80, 60
2, 1088, Note_off_c, 0, 77, 100
2, 1088, Note_off_c, 0, 80, 100
2, 1152, Note_on_c, 0, 79, 60
2, 1152, Note_on_c, 0, 75, 60
2, 1280, Note_off_c, 0, 79, 100
2, 1280, Note_off_c, 0, 75, 100
2, 1344, Note_on_c, 0, 77, 60
2, 1344, Note_on_c, 0, 74, 60
2, 1472, Note_off_c, 0, 77, 100
2, 1472, Note_off_c, 0, 74, 100
2, 1536, Note_on_c, 0, 75, 60
2, 1536, Note_on_c, 0, 72, 60
2, 1664, Note_off_c, 0, 75, 100
2, 1664, Note_off_c, 0, 72, 100
2, 1728, Note_on_c, 0, 74, 60
2, 1728, Note_on_c, 0, 70, 60
2, 1856, Note_off_c, 0, 74, 100
2, 1856, Note_off_c, 0, 70, 100
2, 1920, Note_on_c, 0, 72, 60
2, 1920, Note_on_c, 0, 68, 60
2, 2048, Note_off_c, 0, 72, 100
2, 2048, Note_off_c, 0, 68, 100
2, 2112, Note_on_c, 0, 70, 60
2, 2112, Note_on_c, 0, 67, 60
2, 2240, Note_off_c, 0, 70, 100
2, 2240, Note_off_c, 0, 67, 100
2, 2304, Note_on_c, 0, 65, 90
2, 2304, Note_on_c, 0, 70, 90
2, 2432, Note_off_c, 0, 65, 100
2, 2496, Note_on_c, 0, 63, 90
2, 2560, Note_off_c, 0, 70, 100
2, 2624, Note_off_c, 0, 63, 100
2, 2688, Note_on_c, 0, 62, 90
2, 2816, Note_off_c, 0, 62, 100
2, 2880, Note_on_c, 0, 70, 90
2, 2880, Note_on_c, 0, 62, 90
2, 3008, Note_off_c, 0, 70, 100
2, 3008, Note_off_c, 0, 62, 100
2, 3072, Note_on_c, 0, 72, 90
2, 3072, Note_on_c, 0, 63, 90
2, 3200, Note_off_c, 0, 72, 100
2, 3200, Note_off_c, 0, 63, 100
2, 3264, Note_on_c, 0, 74, 90
2, 3264, Note_on_c, 0, 65, 90
2, 3392, Note_off_c, 0, 74, 100
2, 3392, Note_off_c, 0, 65, 100
2, 3456, Note_on_c, 0, 75, 60
2, 3456, Note_on_c, 0, 67, 60
2, 3712, Note_off_c, 0, 75, 100
2, 3712, Note_off_c, 0, 67, 100
2, 3840, Note_on_c, 0, 72, 60
2, 3840, Note_on_c, 0, 68, 60
2, 3968, Note_off_c, 0, 72, 100
2, 3968, Note_off_c, 0, 68, 100
2, 4032, Note_on_c, 0, 70, 60
2, 4032, Note_on_c, 0, 67, 60
2, 4288, Note_off_c, 0, 70, 100
2, 4288, Note_off_c, 0, 67, 100
2, 4416, Note_on_c, 0, 65, 60
2, 4416, Note_on_c, 0, 68, 60
2, 4436, Note_off_c, 0, 68, 64
2, 4440, Note_on_c, 0, 70, 60
2, 4460, Note_off_c, 0, 70, 64
2, 4464, Note_on_c, 0, 68, 60
2, 4480, Note_off_c, 0, 65, 100
2, 4484, Note_off_c, 0, 68, 64
2, 4488, Note_on_c, 0, 70, 60
2, 4508, Note_off_c, 0, 70, 64
2, 4512, Note_on_c, 0, 67, 60
2, 4544, Note_off_c, 0, 67, 100
2, 4560, Note_on_c, 0, 68, 60
2, 4592, Note_off_c, 0, 68, 100
2, 4608, Note_on_c, 0, 67, 60
2, 4736, Note_off_c, 0, 67, 100
2, 4800, Note_on_c, 0, 74, 60
2, 4928, Note_off_c, 0, 74, 100
2, 4992, Note_on_c, 0, 75, 60
2, 5120, Note_off_c, 0, 75, 100
2, 5376, Note_on_c, 0, 82, 60
2, 5504, Note_off_c, 0, 82, 100
2, 5584, Note_on_c, 0, 79, 60
2, 5712, Note_off_c, 0, 79, 100
2, 5856, Note_on_c, 0, 77, 60
2, 5920, Note_off_c, 0, 77, 100
2, 5952, Note_on_c, 0, 79, 60
2, 6016, Note_off_c, 0, 79, 100
2, 6048, Note_on_c, 0, 80, 60
2, 6112, Note_off_c, 0, 80, 100
2, 6144, Note_on_c, 0, 82, 60
2, 6208, Note_off_c, 0, 82, 100
2, 6240, Note_on_c, 0, 84, 60
2, 6304, Note_off_c, 0, 84, 100
2, 6336, Note_on_c, 0, 84, 60
2, 6400, Note_off_c, 0, 84, 100
2, 6432, Note_on_c, 0, 82, 60
2, 6496, Note_off_c, 0, 82, 100
2, 6528, Note_on_c, 0, 80, 60
2, 6592, Note_off_c, 0, 80, 100
2, 6624, Note_on_c, 0, 79, 60
2, 6688, Note_off_c, 0, 79, 100
2, 6720, Note_on_c, 0, 77, 60
2, 6784, Note_off_c, 0, 77, 100
2, 6816, Note_on_c, 0, 74, 60
2, 6880, Note_off_c, 0, 74, 100
2, 6912, Note_on_c, 0, 75, 90
2, 6960, Note_off_c, 0, 75, 100
2, 6976, Note_on_c, 0, 70, 90
2, 7024, Note_off_c, 0, 70, 100
2, 7040, Note_on_c, 0, 67, 90
2, 7088, Note_off_c, 0, 67, 100
2, 7104, Note_on_c, 0, 70, 90
2, 7152, Note_off_c, 0, 70, 100
2, 7168, Note_on_c, 0, 67, 90
2, 7216, Note_off_c, 0, 67, 100
2, 7232, Note_on_c, 0, 63, 90
2, 7280, Note_off_c, 0, 63, 100
2, 7296, Note_on_c, 0, 62, 90
2, 7344, Note_off_c, 0, 62, 100
2, 7360, Note_on_c, 0, 65, 90
2, 7408, Note_off_c, 0, 65, 100
2, 7424, Note_on_c, 0, 68, 90
2, 7472, Note_off_c, 0, 68, 100
2, 7488, Note_on_c, 0, 67, 90
2, 7536, Note_off_c, 0, 67, 100
2, 7552, Note_on_c, 0, 70, 90
2, 7600, Note_off_c, 0, 70, 100
2, 7616, Note_on_c, 0, 67, 90
2, 7664, Note_off_c, 0, 67, 100
2, 7680, Note_on_c, 0, 75, 90
2, 7728, Note_off_c, 0, 75, 100
2, 7744, Note_on_c, 0, 70, 90
2, 7792, Note_off_c, 0, 70, 100
2, 7808, Note_on_c, 0, 67, 90
2, 7856, Note_off_c, 0, 67, 100
2, 7872, Note_on_c, 0, 68, 90
2, 7920, Note_off_c, 0, 68, 100
2, 7936, Note_on_c, 0, 65, 90
2, 7984, Note_off_c, 0, 65, 100
2, 8000, Note_on_c, 0, 62, 90
2, 8048, Note_off_c, 0, 62, 100
2, 8064, Note_on_c, 0, 63, 90
2, 8192, Note_off_c, 0, 63, 100
2, 8448, Note_on_c, 0, 63, 60
2, 8448, Note_on_c, 0, 58, 60
2, 8576, Note_off_c, 0, 63, 100
2, 8576, Note_off_c, 0, 58, 100
2, 8640, Note_on_c, 0, 63, 60
2, 8640, Note_on_c, 0, 58, 60
2, 8768, Note_off_c, 0, 63, 100
2, 8768, Note_off_c, 0, 58, 100
2, 9216, Note_on_c, 0, 79, 79
2, 9216, Note_on_c, 0, 63, 70
2, 9280, Note_off_c, 0, 63, 100
2, 9312, Note_on_c, 0, 67, 70
2, 9344, Note_off_c, 0, 79, 100
2, 9376, Note_off_c, 0, 67, 100
2, 9408, Note_on_c, 0, 79, 79
2, 9408, Note_on_c, 0, 70, 70
2, 9440, Note_off_c, 0, 79, 100
2, 9456, Note_on_c, 0, 80, 79
2, 9472, Note_off_c, 0, 70, 100
2, 9488, Note_off_c, 0, 80, 100
2, 9504, Note_on_c, 0, 79, 79
2, 9504, Note_on_c, 0, 67, 70
2, 9536, Note_off_c, 0, 79, 100
2, 9552, Note_on_c, 0, 77, 79
2, 9568, Note_off_c, 0, 67, 100
2, 9584, Note_off_c, 0, 77, 100
2, 9600, Note_on_c, 0, 75, 79
2, 9600, Note_on_c, 0, 70, 70
2, 9664, Note_off_c, 0, 70, 100
2, 9696, Note_on_c, 0, 67, 70
2, 9728, Note_off_c, 0, 75, 100
2, 9760, Note_off_c, 0, 67, 100
2, 9792, Note_on_c, 0, 63, 49
2, 9856, Note_off_c, 0, 63, 100
2, 9888, Note_on_c, 0, 67, 49
2, 9936, Note_on_c, 0, 80, 60
2, 9952, Note_off_c, 0, 67, 100
2, 9968, Note_off_c, 0, 80, 100
2, 9984, Note_on_c, 0, 82, 60
2, 9984, Note_on_c, 0, 70, 49
2, 10048, Note_off_c, 0, 70, 100
2, 10064, Note_on_c, 0, 67, 49
2, 10112, Note_off_c, 0, 82, 100
2, 10128, Note_off_c, 0, 67, 100
2, 10128, Note_on_c, 0, 80, 60
2, 10160, Note_off_c, 0, 80, 100
2, 10176, Note_on_c, 0, 82, 60
2, 10176, Note_on_c, 0, 63, 49
2, 10240, Note_off_c, 0, 63, 100
2, 10272, Note_on_c, 0, 67, 49
2, 10304, Note_off_c, 0, 82, 100
2, 10336, Note_off_c, 0, 67, 100
2, 10368, Note_on_c, 0, 77, 79
2, 10368, Note_on_c, 0, 62, 70
2, 10432, Note_off_c, 0, 62, 100
2, 10464, Note_on_c, 0, 65, 70
2, 10496, Note_off_c, 0, 77, 100
2, 10528, Note_off_c, 0, 65, 100
2, 10560, Note_on_c, 0, 77, 79
2, 10560, Note_on_c, 0, 70, 70
2, 10592, Note_off_c, 0, 77, 100
2, 10608, Note_on_c, 0, 79, 79
2, 10624, Note_off_c, 0, 70, 100
2, 10640, Note_off_c, 0, 79, 100
2, 10656, Note_on_c, 0, 77, 79
2, 10656, Note_on_c, 0, 65, 70
2, 10688, Note_off_c, 0, 77, 100
2, 10688, Note_on_c, 0, 75, 79
2, 10720, Note_off_c, 0, 65, 100
2, 10720, Note_off_c, 0, 75, 100
2, 10752, Note_on_c, 0, 74, 79
2, 10752, Note_on_c, 0, 70, 70
2, 10816, Note_off_c, 0, 70, 100
2, 10848, Note_on_c, 0, 65, 70
2, 10880, Note_off_c, 0, 74, 100
2, 10912, Note_off_c, 0, 65, 100
2, 10944, Note_on_c, 0, 63, 49
2, 11008, Note_off_c, 0, 63, 100
2, 11040, Note_on_c, 0, 65, 49
2, 11088, Note_on_c, 0, 80, 60
2, 11104, Note_off_c, 0, 65, 100
2, 11120, Note_off_c, 0, 80, 100
2, 11136, Note_on_c, 0, 82, 60
2, 11136, Note_on_c, 0, 70, 49
2, 11200, Note_off_c, 0, 70, 100
2, 11232, Note_on_c, 0, 65, 49
2, 11264, Note_off_c, 0, 82, 100
2, 11280, Note_on_c, 0, 80, 60
2, 11296, Note_off_c, 0, 65, 100
2, 11312, Note_off_c, 0, 80, 100
2, 11328, Note_on_c, 0, 82, 60
2, 11328, Note_on_c, 0, 62, 49
2, 11392, Note_off_c, 0, 62, 100
2, 11424, Note_on_c, 0, 65, 49
2, 11456, Note_off_c, 0, 82, 100
2, 11488, Note_off_c, 0, 65, 100
2, 11520, Note_on_c, 0, 82, 60
2, 11520, Note_on_c, 0, 60, 49
2, 11584, Note_off_c, 0, 82, 100
2, 11584, Note_off_c, 0, 60, 100
2, 11616, Note_on_c, 0, 81, 60
2, 11616, Note_on_c, 0, 63, 49
2, 11680, Note_off_c, 0, 81, 100
2, 11680, Note_off_c, 0, 63, 100
2, 11712, Note_on_c, 0, 84, 60
2, 11712, Note_on_c, 0, 65, 49
2, 11776, Note_off_c, 0, 84, 100
2, 11776, Note_off_c, 0, 65, 100
2, 11808, Note_on_c, 0, 81, 60
2, 11808, Note_on_c, 0, 63, 49
2, 11872, Note_off_c, 0, 81, 100
2, 11872, Note_off_c, 0, 63, 100
2, 11904, Note_on_c, 0, 77, 60
2, 11904, Note_on_c, 0, 57, 49
2, 11968, Note_off_c, 0, 77, 100
2, 11968, Note_off_c, 0, 57, 100
2, 12000, Note_on_c, 0, 75, 60
2, 12000, Note_on_c, 0, 60, 49
2, 12064, Note_off_c, 0, 75, 100
2, 12064, Note_off_c, 0, 60, 100
2, 12096, Note_on_c, 0, 74, 60
2, 12096, Note_on_c, 0, 58, 49
2, 12160, Note_off_c, 0, 58, 100
2, 12192, Note_on_c, 0, 62, 49
2, 12224, Note_off_c, 0, 74, 100
2, 12256, Note_off_c, 0, 62, 100
2, 12288, Note_on_c, 0, 65, 49
2, 12352, Note_off_c, 0, 65, 100
2, 12384, Note_on_c, 0, 62, 49
2, 12448, Note_off_c, 0, 62, 100
2, 12480, Note_on_c, 0, 82, 60
2, 12480, Note_on_c, 0, 65, 49
2, 12544, Note_off_c, 0, 65, 100
2, 12576, Note_on_c, 0, 62, 49
2, 12608, Note_off_c, 0, 82, 100
2, 12640, Note_off_c, 0, 62, 100
2, 12672, Note_on_c, 0, 82, 60
2, 12672, Note_on_c, 0, 60, 49
2, 12736, Note_off_c, 0, 82, 100
2, 12736, Note_off_c, 0, 60, 100
2, 12768, Note_on_c, 0, 81, 60
2, 12768, Note_on_c, 0, 63, 49
2, 12832, Note_off_c, 0, 81, 100
2, 12832, Note_off_c, 0, 63, 100
2, 12864, Note_on_c, 0, 84, 60
2, 12864, Note_on_c, 0, 65, 49
2, 12928, Note_off_c, 0, 84, 100
2, 12928, Note_off_c, 0, 65, 100
2, 12960, Note_on_c, 0, 81, 60
2, 12960, Note_on_c, 0, 63, 49
2, 13024, Note_off_c, 0, 81, 100
2, 13024, Note_off_c, 0, 63, 100
2, 13056, Note_on_c, 0, 77, 60
2, 13056, Note_on_c, 0, 57, 49
2, 13120, Note_off_c, 0, 77, 100
2, 13120, Note_off_c, 0, 57, 100
2, 13152, Note_on_c, 0, 75, 60
2, 13152, Note_on_c, 0, 60, 49
2, 13216, Note_off_c, 0, 75, 100
2, 13216, Note_off_c, 0, 60, 100
2, 13248, Note_on_c, 0, 74, 60
2, 13248, Note_on_c, 0, 58, 49
2, 13312, Note_off_c, 0, 58, 100
2, 13344, Note_on_c, 0, 62, 49
2, 13376, Note_off_c, 0, 74, 100
2, 13408, Note_off_c, 0, 62, 100
2, 13440, Note_on_c, 0, 65, 49
2, 13504, Note_off_c, 0, 65, 100
2, 13536, Note_on_c, 0, 62, 49
2, 13600, Note_off_c, 0, 62, 100
2, 13632, Note_on_c, 0, 74, 79
2, 13632, Note_on_c, 0, 58, 70
2, 13696, Note_off_c, 0, 58, 100
2, 13728, Note_on_c, 0, 62, 70
2, 13760, Note_off_c, 0, 74, 100
2, 13792, Note_off_c, 0, 62, 100
2, 13824, Note_on_c, 0, 71, 79
2, 13888, Note_off_c, 0, 71, 100
2, 13920, Note_on_c, 0, 72, 79
2, 13984, Note_off_c, 0, 72, 100
2, 14208, Note_on_c, 0, 74, 81
2, 14272, Note_off_c, 0, 74, 100
2, 14304, Note_on_c, 0, 75, 81
2, 14368, Note_off_c, 0, 75, 100
2, 14592, Note_on_c, 0, 78, 85
2, 14656, Note_off_c, 0, 78, 100
2, 14688, Note_on_c, 0, 79, 85
2, 14752, Note_off_c, 0, 79, 100
2, 14784, Note_on_c, 0, 77, 87
2, 14816, Note_off_c, 0, 77, 100
2, 14832, Note_on_c, 0, 75, 87
2, 14864, Note_off_c, 0, 75, 100
2, 14880, Note_on_c, 0, 74, 88
2, 14912, Note_off_c, 0, 74, 100
2, 14928, Note_on_c, 0, 72, 88
2, 14960, Note_off_c, 0, 72, 100
2, 14976, Note_on_c, 0, 70, 85
2, 15232, Note_off_c, 0, 70, 100
2, 15360, Note_on_c, 0, 69, 82
2, 15488, Note_off_c, 0, 69, 100
2, 16320, Note_on_c, 0, 77, 60
2, 16368, Note_off_c, 0, 77, 100
2, 16384, Note_on_c, 0, 74, 60
2, 16432, Note_off_c, 0, 74, 100
2, 16448, Note_on_c, 0, 75, 60
2, 16496, Note_off_c, 0, 75, 100
2, 16512, Note_on_c, 0, 77, 60
2, 16560, Note_off_c, 0, 77, 100
2, 16576, Note_on_c, 0, 74, 60
2, 16624, Note_off_c, 0, 74, 100
2, 16640, Note_on_c, 0, 75, 60
2, 16688, Note_off_c, 0, 75, 100
2, 16704, Note_on_c, 0, 77, 60
2, 16832, Note_off_c, 0, 77, 100
2, 16896, Note_on_c, 0, 79, 60
2, 17024, Note_off_c, 0, 79, 100
2, 17088, Note_on_c, 0, 75, 60
2, 17216, Note_off_c, 0, 75, 100
2, 17472, Note_on_c, 0, 75, 60
2, 17520, Note_off_c, 0, 75, 100
2, 17536, Note_on_c, 0, 72, 60
2, 17584, Note_off_c, 0, 72, 100
2, 17600, Note_on_c, 0, 74, 60
2, 17648, Note_off_c, 0, 74, 100
2, 17664, Note_on_c, 0, 75, 60
2, 17712, Note_off_c, 0, 75, 100
2, 17728, Note_on_c, 0, 72, 60
2, 17776, Note_off_c, 0, 72, 100
2, 17792, Note_on_c, 0, 74, 60
2, 17840, Note_off_c, 0, 74, 100
2, 17856, Note_on_c, 0, 75, 60
2, 17984, Note_off_c, 0, 75, 100
2, 18048, Note_on_c, 0, 77, 60
2, 18176, Note_off_c, 0, 77, 100
2, 18240, Note_on_c, 0, 74, 60
2, 18368, Note_off_c, 0, 74, 100
2, 18432, Note_on_c, 0, 68, 90
2, 18560, Note_off_c, 0, 68, 100
2, 18624, Note_on_c, 0, 82, 90
2, 18752, Note_off_c, 0, 82, 100
2, 18816, Note_on_c, 0, 82, 90
2, 18944, Note_off_c, 0, 82, 100
2, 19008, Note_on_c, 0, 80, 90
2, 19072, Note_off_c, 0, 80, 100
2, 19104, Note_on_c, 0, 79, 90
2, 19168, Note_off_c, 0, 79, 100
2, 19200, Note_on_c, 0, 77, 90
2, 19264, Note_off_c, 0, 77, 100
2, 19296, Note_on_c, 0, 75, 90
2, 19360, Note_off_c, 0, 75, 100
2, 19392, Note_on_c, 0, 74, 90
2, 19456, Note_off_c, 0, 74, 100
2, 19488, Note_on_c, 0, 72, 90
2, 19552, Note_off_c, 0, 72, 100
2, 19584, Note_on_c, 0, 70, 90
2, 19606, Note_off_c, 0, 70, 64
2, 19608, Note_on_c, 0, 72, 90
2, 19630, Note_off_c, 0, 72, 64
2, 19632, Note_on_c, 0, 70, 90
2, 19654, Note_off_c, 0, 70, 64
2, 19656, Note_on_c, 0, 72, 90
2, 19678, Note_off_c, 0, 72, 64
2, 19680, Note_on_c, 0, 70, 90
2, 19702, Note_off_c, 0, 70, 64
2, 19704, Note_on_c, 0, 72, 90
2, 19726, Note_off_c, 0, 72, 64
2, 19728, Note_on_c, 0, 70, 90
2, 19750, Note_off_c, 0, 70, 64
2, 19752, Note_on_c, 0, 72, 90
2, 19774, Note_off_c, 0, 72, 64
2, 19776, Note_on_c, 0, 69, 90
2, 19870, Note_off_c, 0, 69, 64
2, 19872, Note_on_c, 0, 70, 90
2, 19966, Note_off_c, 0, 70, 64
2, 19968, Note_on_c, 0, 72, 90
2, 20062, Note_off_c, 0, 72, 100
2, 20064, Note_on_c, 0, 69, 90
2, 20158, Note_off_c, 0, 69, 100
2, 20160, Note_on_c, 0, 70, 90
2, 20288, Note_off_c, 0, 70, 100
2, 20736, Note_on_c, 0, 70, 60
2, 20864, Note_off_c, 0, 70, 100
2, 20928, Note_on_c, 0, 82, 60
2, 21056, Note_off_c, 0, 82, 100
2, 21120, Note_on_c, 0, 82, 60
2, 21248, Note_off_c, 0, 82, 100
2, 21312, Note_on_c, 0, 81, 60
2, 21376, Note_off_c, 0, 81, 100
2, 21408, Note_on_c, 0, 79, 60
2, 21472, Note_off_c, 0, 79, 100
2, 21504, Note_on_c, 0, 77, 60
2, 21568, Note_off_c, 0, 77, 100
2, 21600, Note_on_c, 0, 75, 60
2, 21664, Note_off_c, 0, 75, 100
2, 21696, Note_on_c, 0, 74, 60
2, 21760, Note_off_c, 0, 74, 100
2, 21792, Note_on_c, 0, 72, 60
2, 21856, Note_off_c, 0, 72, 100
2, 21888, Note_on_c, 0, 70, 60
2, 21910, Note_off_c, 0, 70, 64
2, 21912, Note_on_c, 0, 72, 60
2, 21934, Note_off_c, 0, 72, 64
2, 21936, Note_on_c, 0, 70, 60
2, 21958, Note_off_c, 0, 70, 64
2, 21960, Note_on_c, 0, 72, 60
2, 21982, Note_off_c, 0, 72, 64
2, 21984, Note_on_c, 0, 70, 60
2, 22006, Note_off_c, 0, 70, 64
2, 22008, Note_on_c, 0, 72, 60
2, 22030, Note_off_c, 0, 72, 64
2, 22032, Note_on_c, 0, 70, 60
2, 22054, Note_off_c, 0, 70, 64
2, 22056, Note_on_c, 0, 72, 60
2, 22078, Note_off_c, 0, 72, 64
2, 22086, Note_on_c, 0, 69, 60
2, 22176, Note_on_c, 0, 70, 60
2, 22180, Note_off_c, 0, 69, 64
2, 22270, Note_off_c, 0, 70, 64
2, 22272, Note_on_c, 0, 72, 60
2, 22366, Note_off_c, 0, 72, 64
2, 22368, Note_on_c, 0, 69, 60
2, 22462, Note_off_c, 0, 69, 64
2, 22464, Note_on_c, 0, 80, 90
2, 22464, Note_on_c, 0, 68, 90
2, 22592, Note_off_c, 0, 80, 100
2, 22592, Note_off_c, 0, 68, 100
2, 22656, Note_on_c, 0, 79, 90
2, 22656, Note_on_c, 0, 67, 90
2, 22784, Note_off_c, 0, 79, 100
2, 22784, Note_off_c, 0, 67, 100
2, 22848, Note_on_c, 0, 82, 90
2, 22848, Note_on_c, 0, 70, 90
2, 22976, Note_off_c, 0, 82, 100
2, 22976, Note_off_c, 0, 70, 100
2, 23040, Note_on_c, 0, 74, 60
2, 23062, Note_off_c, 0, 74, 64
2, 23064, Note_on_c, 0, 75, 60
2, 23086, Note_off_c, 0, 75, 64
2, 23088, Note_on_c, 0, 74, 60
2, 23110, Note_off_c, 0, 74, 64
2, 23112, Note_on_c, 0, 75, 60
2, 23134, Note_off_c, 0, 75, 64
2, 23136, Note_on_c, 0, 74, 60
2, 23158, Note_off_c, 0, 74, 64
2, 23160, Note_on_c, 0, 75, 60
2, 23182, Note_off_c, 0, 75, 64
2, 23184, Note_on_c, 0, 74, 60
2, 23206, Note_off_c, 0, 74, 64
2, 23208, Note_on_c, 0, 75, 60
2, 23230, Note_off_c, 0, 75, 64
2, 23232, Note_on_c, 0, 72, 60
2, 23326, Note_off_c, 0, 72, 64
2, 23328, Note_on_c, 0, 74, 60
2, 23422, Note_off_c, 0, 74, 64
2, 23424, Note_on_c, 0, 75, 60
2, 23518, Note_off_c, 0, 75, 100
2, 23520, Note_on_c, 0, 72, 60
2, 23614, Note_off_c, 0, 72, 100
2, 23616, Note_on_c, 0, 80, 90
2, 23616, Note_on_c, 0, 68, 90
2, 23744, Note_off_c, 0, 80, 100
2, 23744, Note_off_c, 0, 68, 100
2, 23808, Note_on_c, 0, 79, 90
2, 23808, Note_on_c, 0, 67, 90
2, 23936, Note_off_c, 0, 79, 100
2, 23936, Note_off_c, 0, 67, 100
2, 24000, Note_on_c, 0, 82, 90
2, 24000, Note_on_c, 0, 70, 90
2, 24128, Note_off_c, 0, 82, 100
2, 24128, Note_off_c, 0, 70, 100
2, 24192, Note_on_c, 0, 74, 60
2, 24214, Note_off_c, 0, 74, 64
2, 24216, Note_on_c, 0, 75, 60
2, 24238, Note_off_c, 0, 75, 64
2, 24240, Note_on_c, 0, 74, 60
2, 24262, Note_off_c, 0, 74, 64
2, 24264, Note_on_c, 0, 75, 60
2, 24286, Note_off_c, 0, 75, 64
2, 24288, Note_on_c, 0, 74, 60
2, 24310, Note_off_c, 0, 74, 64
2, 24312, Note_on_c, 0, 75, 60
2, 24334, Note_off_c, 0, 75, 64
2, 24336, Note_on_c, 0, 74, 60
2, 24358, Note_off_c, 0, 74, 64
2, 24360, Note_on_c, 0, 75, 60
2, 24382, Note_off_c, 0, 75, 64
2, 24384, Note_on_c, 0, 72, 60
2, 24478, Note_off_c, 0, 72, 64
2, 24480, Note_on_c, 0, 74, 60
2, 24574, Note_off_c, 0, 74, 64
2, 24576, Note_on_c, 0, 75, 60
2, 24670, Note_off_c, 0, 75, 100
2, 24672, Note_on_c, 0, 72, 60
2, 24766, Note_off_c, 0, 72, 100
2, 24768, Note_on_c, 0, 70, 90
2, 24816, Note_off_c, 0, 70, 100
2, 24832, Note_on_c, 0, 74, 90
2, 24880, Note_off_c, 0, 74, 100
2, 24896, Note_on_c, 0, 77, 90
2, 24944, Note_off_c, 0, 77, 100
2, 24960, Note_on_c, 0, 82, 90
2, 25008, Note_off_c, 0, 82, 100
2, 25024, Note_on_c, 0, 77, 90
2, 25072, Note_off_c, 0, 77, 100
2, 25088, Note_on_c, 0, 74, 90
2, 25136, Note_off_c, 0, 74, 100
2, 25152, Note_on_c, 0, 75, 90
2, 25200, Note_off_c, 0, 75, 100
2, 25216, Note_on_c, 0, 72, 90
2, 25264, Note_off_c, 0, 72, 100
2, 25280, Note_on_c, 0, 69, 90
2, 25328, Note_off_c, 0, 69, 100
2, 25344, Note_on_c, 0, 70, 90
2, 25392, Note_off_c, 0, 70, 100
2, 25408, Note_on_c, 0, 74, 90
2, 25456, Note_off_c, 0, 74, 100
2, 25472, Note_on_c, 0, 65, 90
2, 25520, Note_off_c, 0, 65, 100
2, 25536, Note_on_c, 0, 70, 90
2, 25584, Note_off_c, 0, 70, 100
2, 25600, Note_on_c, 0, 65, 90
2, 25648, Note_off_c, 0, 65, 100
2, 25664, Note_on_c, 0, 62, 90
2, 25712, Note_off_c, 0, 62, 100
2, 25728, Note_on_c, 0, 63, 90
2, 25776, Note_off_c, 0, 63, 100
2, 25792, Note_on_c, 0, 60, 90
2, 25840, Note_off_c, 0, 60, 100
2, 25856, Note_on_c, 0, 57, 90
2, 25904, Note_off_c, 0, 57, 100
2, 25920, Note_on_c, 0, 58, 60
2, 26048, Note_off_c, 0, 58, 100
2, 26304, Note_on_c, 0, 58, 60
2, 26304, Note_on_c, 0, 53, 60
2, 26432, Note_off_c, 0, 58, 100
2, 26432, Note_off_c, 0, 53, 100
2, 26496, Note_on_c, 0, 58, 60
2, 26496, Note_on_c, 0, 53, 60
2, 26624, Note_off_c, 0, 58, 100
2, 26624, Note_off_c, 0, 53, 100
2, 27264, Note_on_c, 0, 79, 60
2, 27264, Note_on_c, 0, 82, 60
2, 27392, Note_off_c, 0, 79, 100
2, 27392, Note_off_c, 0, 82, 100
2, 27456, Note_on_c, 0, 77, 60
2, 27456, Note_on_c, 0, 80, 60
2, 27584, Note_off_c, 0, 77, 100
2, 27584, Note_off_c, 0, 80, 100
2, 27648, Note_on_c, 0, 79, 60
2, 27648, Note_on_c, 0, 75, 60
2, 27776, Note_off_c, 0, 79, 100
2, 27776, Note_off_c, 0, 75, 100
2, 27840, Note_on_c, 0, 77, 60
2, 27840, Note_on_c, 0, 74, 60
2, 27968, Note_off_c, 0, 77, 100
2, 27968, Note_off_c, 0, 74, 100
2, 28032, Note_on_c, 0, 75, 60
2, 28032, Note_on_c, 0, 72, 60
2, 28160, Note_off_c, 0, 75, 100
2, 28160, Note_off_c, 0, 72, 100
2, 28224, Note_on_c, 0, 74, 60
2, 28224, Note_on_c, 0, 70, 60
2, 28352, Note_off_c, 0, 74, 100
2, 28352, Note_off_c, 0, 70, 100
2, 28416, Note_on_c, 0, 72, 60
2, 28416, Note_on_c, 0, 68, 60
2, 28544, Note_off_c, 0, 72, 100
2, 28544, Note_off_c, 0, 68, 100
2, 28608, Note_on_c, 0, 70, 60
2, 28608, Note_on_c, 0, 67, 60
2, 28736, Note_off_c, 0, 70, 100
2, 28736, Note_off_c, 0, 67, 100
2, 28800, Note_on_c, 0, 65, 90
2, 28800, Note_on_c, 0, 70, 90
2, 28928, Note_off_c, 0, 65, 100
2, 28992, Note_on_c, 0, 63, 90
2, 29056, Note_off_c, 0, 70, 100
2, 29120, Note_off_c, 0, 63, 100
2, 29184, Note_on_c, 0, 62, 90
2, 29312, Note_off_c, 0, 62, 100
2, 29376, Note_on_c, 0, 70, 90
2, 29376, Note_on_c, 0, 62, 90
2, 29504, Note_off_c, 0, 70, 100
2, 29504, Note_off_c, 0, 62, 100
2, 29568, Note_on_c, 0, 72, 90
2, 29568, Note_on_c, 0, 63, 90
2, 29696, Note_off_c, 0, 72, 100
2, 29696, Note_off_c, 0, 63, 100
2, 29760, Note_on_c, 0, 74, 90
2, 29760, Note_on_c, 0, 65, 90
2, 29888, Note_off_c, 0, 74, 100
2, 29888, Note_off_c, 0, 65, 100
2, 29952, Note_on_c, 0, 75, 60
2, 29952, Note_on_c, 0, 67, 60
2, 30208, Note_off_c, 0, 75, 100
2, 30208, Note_off_c, 0, 67, 100
2, 30336, Note_on_c, 0, 72, 60
2, 30336, Note_on_c, 0, 68, 60
2, 30464, Note_off_c, 0, 72, 100
2, 30464, Note_off_c, 0, 68, 100
2, 30528, Note_on_c, 0, 70, 60
2, 30528, Note_on_c, 0, 67, 60
2, 30784, Note_off_c, 0, 70, 100
2, 30784, Note_off_c, 0, 67, 100
2, 30912, Note_on_c, 0, 65, 60
2, 30912, Note_on_c, 0, 68, 60
2, 30932, Note_off_c, 0, 68, 64
2, 30936, Note_on_c, 0, 70, 60
2, 30956, Note_off_c, 0, 70, 64
2, 30960, Note_on_c, 0, 68, 60
2, 30976, Note_off_c, 0, 65, 100
2, 30980, Note_off_c, 0, 68, 64
2, 30984, Note_on_c, 0, 70, 60
2, 31004, Note_off_c, 0, 70, 64
2, 31008, Note_on_c, 0, 67, 60
2, 31040, Note_off_c, 0, 67, 100
2, 31056, Note_on_c, 0, 68, 60
2, 31088, Note_off_c, 0, 68, 100
2, 31104, Note_on_c, 0, 67, 60
2, 31232, Note_off_c, 0, 67, 100
2, 31296, Note_on_c, 0, 74, 60
2, 31424, Note_off_c, 0, 74, 100
2, 31488, Note_on_c, 0, 75, 60
2, 31616, Note_off_c, 0, 75, 100
2, 31872, Note_on_c, 0, 82, 60
2, 32000, Note_off_c, 0, 82, 100
2, 32080, Note_on_c, 0, 79, 60
2, 32208, Note_off_c, 0, 79, 100
2, 32352, Note_on_c, 0, 77, 60
2, 32416, Note_off_c, 0, 77, 100
2, 32448, Note_on_c, 0, 79, 60
2, 32512, Note_off_c, 0, 79, 100
2, 32544, Note_on_c, 0, 80, 60
2, 32608, Note_off_c, 0, 80, 100
2, 32640, Note_on_c, 0, 82, 60
2, 32704, Note_off_c, 0, 82, 100
2, 32736, Note_on_c, 0, 84, 60
2, 32800, Note_off_c, 0, 84, 100
2, 32832, Note_on_c, 0, 84, 60
2, 32896, Note_off_c, 0, 84, 100
2, 32928, Note_on_c, 0, 82, 60
2, 32992, Note_off_c, 0, 82, 100
2, 33024, Note_on_c, 0, 80, 60
2, 33088, Note_off_c, 0, 80, 100
2, 33120, Note_on_c, 0, 79, 60
2, 33184, Note_off_c, 0, 79, 100
2, 33216, Note_on_c, 0, 77, 60
2, 33280, Note_off_c, 0, 77, 100
2, 33312, Note_on_c, 0, 74, 60
2, 33376, Note_off_c, 0, 74, 100
2, 33408, Note_on_c, 0, 75, 90
2, 33456, Note_off_c, 0, 75, 100
2, 33472, Note_on_c, 0, 70, 90
2, 33520, Note_off_c, 0, 70, 100
2, 33536, Note_on_c, 0, 67, 90
2, 33584, Note_off_c, 0, 67, 100
2, 33600, Note_on_c, 0, 70, 90
2, 33648, Note_off_c, 0, 70, 100
2, 33664, Note_on_c, 0, 67, 90
2, 33712, Note_off_c, 0, 67, 100
2, 33728, Note_on_c, 0, 63, 90
2, 33776, Note_off_c, 0, 63, 100
2, 33792, Note_on_c, 0, 62, 90
2, 33840, Note_off_c, 0, 62, 100
2, 33856, Note_on_c, 0, 65, 90
2, 33904, Note_off_c, 0, 65, 100
2, 33920, Note_on_c, 0, 68, 90
2, 33968, Note_off_c, 0, 68, 100
2, 33984, Note_on_c, 0, 67, 90
2, 34032, Note_off_c, 0, 67, 100
2, 34048, Note_on_c, 0, 70, 90
2, 34096, Note_off_c, 0, 70, 100
2, 34112, Note_on_c, 0, 67, 90
2, 34160, Note_off_c, 0, 67, 100
2, 34176, Note_on_c, 0, 75, 90
2, 34224, Note_off_c, 0, 75, 100
2, 34240, Note_on_c, 0, 70, 90
2, 34288, Note_off_c, 0, 70, 100
2, 34304, Note_on_c, 0, 67, 90
2, 34352, Note_off_c, 0, 67, 100
2, 34368, Note_on_c, 0, 68, 90
2, 34416, Note_off_c, 0, 68, 100
2, 34432, Note_on_c, 0, 65, 90
2, 34480, Note_off_c, 0, 65, 100
2, 34496, Note_on_c, 0, 62, 90
2, 34544, Note_off_c, 0, 62, 100
2, 34560, Note_on_c, 0, 63, 90
2, 34688, Note_off_c, 0, 63, 100
2, 34944, Note_on_c, 0, 63, 60
2, 34944, Note_on_c, 0, 58, 60
2, 35072, Note_off_c, 0, 63, 100
2, 35072, Note_off_c, 0, 58, 100
2, 35136, Note_on_c, 0, 63, 60
2, 35136, Note_on_c, 0, 58, 60
2, 35264, Note_off_c, 0, 63, 100
2, 35264, Note_off_c, 0, 58, 100
2, 35712, Note_on_c, 0, 79, 79
2, 35712, Note_on_c, 0, 63, 70
2, 35776, Note_off_c, 0, 63, 100
2, 35808, Note_on_c, 0, 67, 70
2, 35840, Note_off_c, 0, 79, 100
2, 35872, Note_off_c, 0, 67, 100
2, 35904, Note_on_c, 0, 79, 79
2, 35904, Note_on_c, 0, 70, 70
2, 35936, Note_off_c, 0, 79, 100
2, 35952, Note_on_c, 0, 80, 79
2, 35968, Note_off_c, 0, 70, 100
2, 35984, Note_off_c, 0, 80, 100
2, 36000, Note_on_c, 0, 79, 79
2, 36000, Note_on_c, 0, 67, 70
2, 36032, Note_off_c, 0, 79, 100
2, 36048, Note_on_c, 0, 77, 79
2, 36064, Note_off_c, 0, 67, 100
2, 36080, Note_off_c, 0, 77, 100
2, 36096, Note_on_c, 0, 75, 79
2, 36096, Note_on_c, 0, 70, 70
2, 36160, Note_off_c, 0, 70, 100
2, 36192, Note_on_c, 0, 67, 70
2, 36224, Note_off_c, 0, 75, 100
2, 36256, Note_off_c, 0, 67, 100
2, 36288, Note_on_c, 0, 63, 49
2, 36352, Note_off_c, 0, 63, 100
2, 36384, Note_on_c, 0, 67, 49
2, 36432, Note_on_c, 0, 80, 60
2, 36448, Note_off_c, 0, 67, 100
2, 36464, Note_off_c, 0, 80, 100
2, 36480, Note_on_c, 0, 82, 60
2, 36480, Note_on_c, 0, 70, 49
2, 36544, Note_off_c, 0, 70, 100
2, 36560, Note_on_c, 0, 67, 49
2, 36608, Note_off_c, 0, 82, 100
2, 36624, Note_off_c, 0, 67, 100
2, 36624, Note_on_c, 0, 80, 60
2, 36656, Note_off_c, 0, 80, 100
2, 36672, Note_on_c, 0, 82, 60
2, 36672, Note_on_c, 0, 63, 49
2, 36736, Note_off_c, 0, 63, 100
2, 36768, Note_on_c, 0, 67, 49
2, 36800, Note_off_c, 0, 82, 100
2, 36832, Note_off_c, 0, 67, 100
2, 36864, Note_on_c, 0, 77, 79
2, 36864, Note_on_c, 0, 62, 70
2, 36928, Note_off_c, 0, 62, 100
2, 36960, Note_on_c, 0, 65, 70
2, 36992, Note_off_c, 0, 77, 100
2, 37024, Note_off_c, 0, 65, 100
2, 37056, Note_on_c, 0, 77, 79
2, 37056, Note_on_c, 0, 70, 70
2, 37088, Note_off_c, 0, 77, 100
2, 37104, Note_on_c, 0, 79, 79
2, 37120, Note_off_c, 0, 70, 100
2, 37136, Note_off_c, 0, 79, 100
2, 37152, Note_on_c, 0, 77, 79
2, 37152, Note_on_c, 0, 65, 70
2, 37184, Note_off_c, 0, 77, 100
2, 37184, Note_on_c, 0, 75, 79
2, 37216, Note_off_c, 0, 65, 100
2, 37216, Note_off_c, 0, 75, 100
2, 37248, Note_on_c, 0, 74, 79
2, 37248, Note_on_c, 0, 70, 70
2, 37312, Note_off_c, 0, 70, 100
2, 37344, Note_on_c, 0, 65, 70
2, 37376, Note_off_c, 0, 74, 100
2, 37408, Note_off_c, 0, 65, 100
2, 37440, Note_on_c, 0, 63, 49
2, 37504, Note_off_c, 0, 63, 100
2, 37536, Note_on_c, 0, 65, 49
2, 37584, Note_on_c, 0, 80, 60
2, 37600, Note_off_c, 0, 65, 100
2, 37616, Note_off_c, 0, 80, 100
2, 37632, Note_on_c, 0, 82, 60
2, 37632, Note_on_c, 0, 70, 49
2, 37696, Note_off_c, 0, 70, 100
2, 37728, Note_on_c, 0, 65, 49
2, 37760, Note_off_c, 0, 82, 100
2, 37776, Note_on_c, 0, 80, 60
2, 37792, Note_off_c, 0, 65, 100
2, 37808, Note_off_c, 0, 80, 100
2, 37824, Note_on_c, 0, 82, 60
2, 37824, Note_on_c, 0, 62, 49
2, 37888, Note_off_c, 0, 62, 100
2, 37920, Note_on_c, 0, 65, 49
2, 37952, Note_off_c, 0, 82, 100
2, 37984, Note_off_c, 0, 65, 100
2, 38016, Note_on_c, 0, 82, 60
2, 38016, Note_on_c, 0, 60, 49
2, 38080, Note_off_c, 0, 82, 100
2, 38080, Note_off_c, 0, 60, 100
2, 38112, Note_on_c, 0, 81, 60
2, 38112, Note_on_c, 0, 63, 49
2, 38176, Note_off_c, 0, 81, 100
2, 38176, Note_off_c, 0, 63, 100
2, 38208, Note_on_c, 0, 84, 60
2, 38208, Note_on_c, 0, 65, 49
2, 38272, Note_off_c, 0, 84, 100
2, 38272, Note_off_c, 0, 65, 100
2, 38304, Note_on_c, 0, 81, 60
2, 38304, Note_on_c, 0, 63, 49
2, 38368, Note_off_c, 0, 81, 100
2, 38368, Note_off_c, 0, 63, 100
2, 38400, Note_on_c, 0, 77, 60
2, 38400, Note_on_c, 0, 57, 49
2, 38464, Note_off_c, 0, 77, 100
2, 38464, Note_off_c, 0, 57, 100
2, 38496, Note_on_c, 0, 75, 60
2, 38496, Note_on_c, 0, 60, 49
2, 38560, Note_off_c, 0, 75, 100
2, 38560, Note_off_c, 0, 60, 100
2, 38592, Note_on_c, 0, 74, 60
2, 38592, Note_on_c, 0, 58, 49
2, 38656, Note_off_c, 0, 58, 100
2, 38688, Note_on_c, 0, 62, 49
2, 38720, Note_off_c, 0, 74, 100
2, 38752, Note_off_c, 0, 62, 100
2, 38784, Note_on_c, 0, 65, 49
2, 38848, Note_off_c, 0, 65, 100
2, 38880, Note_on_c, 0, 62, 49
2, 38944, Note_off_c, 0, 62, 100
2, 38976, Note_on_c, 0, 82, 60
2, 38976, Note_on_c, 0, 65, 49
2, 39040, Note_off_c, 0, 65, 100
2, 39072, Note_on_c, 0, 62, 49
2, 39104, Note_off_c, 0, 82, 100
2, 39136, Note_off_c, 0, 62, 100
2, 39168, Note_on_c, 0, 82, 60
2, 39168, Note_on_c, 0, 60, 49
2, 39232, Note_off_c, 0, 82, 100
2, 39232, Note_off_c, 0, 60, 100
2, 39264, Note_on_c, 0, 81, 60
2, 39264, Note_on_c, 0, 63, 49
2, 39328, Note_off_c, 0, 81, 100
2, 39328, Note_off_c, 0, 63, 100
2, 39360, Note_on_c, 0, 84, 60
2, 39360, Note_on_c, 0, 65, 49
2, 39424, Note_off_c, 0, 84, 100
2, 39424, Note_off_c, 0, 65, 100
2, 39456, Note_on_c, 0, 81, 60
2, 39456, Note_on_c, 0, 63, 49
2, 39520, Note_off_c, 0, 81, 100
2, 39520, Note_off_c, 0, 63, 100
2, 39552, Note_on_c, 0, 77, 60
2, 39552, Note_on_c, 0, 57, 49
2, 39616, Note_off_c, 0, 77, 100
2, 39616, Note_off_c, 0, 57, 100
2, 39648, Note_on_c, 0, 75, 60
2, 39648, Note_on_c, 0, 60, 49
2, 39712, Note_off_c, 0, 75, 100
2, 39712, Note_off_c, 0, 60, 100
2, 39744, Note_on_c, 0, 74, 60
2, 39744, Note_on_c, 0, 58, 49
2, 39808, Note_off_c, 0, 58, 100
2, 39840, Note_on_c, 0, 62, 49
2, 39872, Note_off_c, 0, 74, 100
2, 39904, Note_off_c, 0, 62, 100
2, 39936, Note_on_c, 0, 65, 49
2, 40000, Note_off_c, 0, 65, 100
2, 40032, Note_on_c, 0, 62, 49
2, 40096, Note_off_c, 0, 62, 100
2, 40128, Note_on_c, 0, 74, 79
2, 40128, Note_on_c, 0, 58, 70
2, 40192, Note_off_c, 0, 58, 100
2, 40224, Note_on_c, 0, 62, 70
2, 40256, Note_off_c, 0, 74, 100
2, 40288, Note_off_c, 0, 62, 100
2, 40320, Note_on_c, 0, 71, 79
2, 40384, Note_off_c, 0, 71, 100
2, 40416, Note_on_c, 0, 72, 79
2, 40480, Note_off_c, 0, 72, 100
2, 40704, Note_on_c, 0, 74, 81
2, 40768, Note_off_c, 0, 74, 100
2, 40800, Note_on_c, 0, 75, 81
2, 40864, Note_off_c, 0, 75, 100
2, 41088, Note_on_c, 0, 78, 85
2, 41152, Note_off_c, 0, 78, 100
2, 41184, Note_on_c, 0, 79, 85
2, 41248, Note_off_c, 0, 79, 100
2, 41280, Note_on_c, 0, 77, 87
2, 41312, Note_off_c, 0, 77, 100
2, 41328, Note_on_c, 0, 75, 87
2, 41360, Note_off_c, 0, 75, 100
2, 41376, Note_on_c, 0, 74, 88
2, 41408, Note_off_c, 0, 74, 100
2, 41424, Note_on_c, 0, 72, 88
2, 41456, Note_off_c, 0, 72, 100
2, 41472, Note_on_c, 0, 70, 85
2, 41728, Note_off_c, 0, 70, 100
2, 41856, Note_on_c, 0, 69, 82
2, 41984, Note_off_c, 0, 69, 100
2, 42816, Note_on_c, 0, 77, 60
2, 42864, Note_off_c, 0, 77, 100
2, 42880, Note_on_c, 0, 74, 60
2, 42928, Note_off_c, 0, 74, 100
2, 42944, Note_on_c, 0, 75, 60
2, 42992, Note_off_c, 0, 75, 100
2, 43008, Note_on_c, 0, 77, 60
2, 43056, Note_off_c, 0, 77, 100
2, 43072, Note_on_c, 0, 74, 60
2, 43120, Note_off_c, 0, 74, 100
2, 43136, Note_on_c, 0, 75, 60
2, 43184, Note_off_c, 0, 75, 100
2, 43200, Note_on_c, 0, 77, 60
2, 43328, Note_off_c, 0, 77, 100
2, 43392, Note_on_c, 0, 79, 60
2, 43520, Note_off_c, 0, 79, 100
2, 43584, Note_on_c, 0, 75, 60
2, 43712, Note_off_c, 0, 75, 100
2, 43968, Note_on_c, 0, 75, 60
2, 44016, Note_off_c, 0, 75, 100
2, 44032, Note_on_c, 0, 72, 60
2, 44080, Note_off_c, 0, 72, 100
2, 44096, Note_on_c, 0, 74, 60
2, 44144, Note_off_c, 0, 74, 100
2, 44160, Note_on_c, 0, 75, 60
2, 44208, Note_off_c, 0, 75, 100
2, 44224, Note_on_c, 0, 72, 60
2, 44272, Note_off_c, 0, 72, 100
2, 44288, Note_on_c, 0, 74, 60
2, 44336, Note_off_c, 0, 74, 100
2, 44352, Note_on_c, 0, 75, 60
2, 44480, Note_off_c, 0, 75, 100
2, 44544, Note_on_c, 0, 77, 60
2, 44672, Note_off_c, 0, 77, 100
2, 44736, Note_on_c, 0, 74, 60
2, 44864, Note_off_c, 0, 74, 100
2, 44928, Note_on_c, 0, 68, 90
2, 45056, Note_off_c, 0, 68, 100
2, 45120, Note_on_c, 0, 82, 90
2, 45248, Note_off_c, 0, 82, 100
2, 45312, Note_on_c, 0, 82, 90
2, 45440, Note_off_c, 0, 82, 100
2, 45504, Note_on_c, 0, 80, 90
2, 45568, Note_off_c, 0, 80, 100
2, 45600, Note_on_c, 0, 79, 90
2, 45664, Note_off_c, 0, 79, 100
2, 45696, Note_on_c, 0, 77, 90
2, 45760, Note_off_c, 0, 77, 100
2, 45792, Note_on_c, 0, 75, 90
2, 45856, Note_off_c, 0, 75, 100
2, 45888, Note_on_c, 0, 74, 90
2, 45952, Note_off_c, 0, 74, 100
2, 45984, Note_on_c, 0, 72, 90
2, 46048, Note_off_c, 0, 72, 100
2, 46080, Note_on_c, 0, 70, 90
2, 46102, Note_off_c, 0, 70, 64
2, 46104, Note_on_c, 0, 72, 90
2, 46126, Note_off_c, 0, 72, 64
2, 46128, Note_on_c, 0, 70, 90
2, 46150, Note_off_c, 0, 70, 64
2, 46152, Note_on_c, 0, 72, 90
2, 46174, Note_off_c, 0, 72, 64
2, 46176, Note_on_c, 0, 70, 90
2, 46198, Note_off_c, 0, 70, 64
2, 46200, Note_on_c, 0, 72, 90
2, 46222, Note_off_c, 0, 72, 64
2, 46224, Note_on_c, 0, 70, 90
2, 46246, Note_off_c, 0, 70, 64
2, 46248, Note_on_c, 0, 72, 90
2, 46270, Note_off_c, 0, 72, 64
2, 46272, Note_on_c, 0, 69, 90
2, 46366, Note_off_c, 0, 69, 64
2, 46368, Note_on_c, 0, 70, 90
2, 46462, Note_off_c, 0, 70, 64
2, 46464, Note_on_c, 0, 72, 90
2, 46558, Note_off_c, 0, 72, 100
2, 46560, Note_on_c, 0, 69, 90
2, 46654, Note_off_c, 0, 69, 100
2, 46656, Note_on_c, 0, 70, 90
2, 46784, Note_off_c, 0, 70, 100
2, 47232, Note_on_c, 0, 70, 60
2, 47360, Note_off_c, 0, 70, 100
2, 47424, Note_on_c, 0, 82, 60
2, 47552, Note_off_c, 0, 82, 100
2, 47616, Note_on_c, 0, 82, 60
2, 47744, Note_off_c, 0, 82, 100
2, 47808, Note_on_c, 0, 81, 60
2, 47872, Note_off_c, 0, 81, 100
2, 47904, Note_on_c, 0, 79, 60
2, 47968, Note_off_c, 0, 79, 100
2, 48000, Note_on_c, 0, 77, 60
2, 48064, Note_off_c, 0, 77, 100
2, 48096, Note_on_c, 0, 75, 60
2, 48160, Note_off_c, 0, 75, 100
2, 48192, Note_on_c, 0, 74, 60
2, 48256, Note_off_c, 0, 74, 100
2, 48288, Note_on_c, 0, 72, 60
2, 48352, Note_off_c, 0, 72, 100
2, 48384, Note_on_c, 0, 70, 60
2, 48406, Note_off_c, 0, 70, 64
2, 48408, Note_on_c, 0, 72, 60
2, 48430, Note_off_c, 0, 72, 64
2, 48432, Note_on_c, 0, 70, 60
2, 48454, Note_off_c, 0, 70, 64
2, 48456, Note_on_c, 0, 72, 60
2, 48478, Note_off_c, 0, 72, 64
2, 48480, Note_on_c, 0, 70, 60
2, 48502, Note_off_c, 0, 70, 64
2, 48504, Note_on_c, 0, 72, 60
2, 48526, Note_off_c, 0, 72, 64
2, 48528, Note_on_c, 0, 70, 60
2, 48550, Note_off_c, 0, 70, 64
2, 48552, Note_on_c, 0, 72, 60
2, 48574, Note_off_c, 0, 72, 64
2, 48582, Note_on_c, 0, 69, 60
2, 48672, Note_on_c, 0, 70, 60
2, 48676, Note_off_c, 0, 69, 64
2, 48766, Note_off_c, 0, 70, 64
2, 48768, Note_on_c, 0, 72, 60
2, 48862, Note_off_c, 0, 72, 64
2, 48864, Note_on_c, 0, 69, 60
2, 48958, Note_off_c, 0, 69, 64
2, 48960, Note_on_c, 0, 80, 90
2, 48960, Note_on_c, 0, 68, 90
2, 49088, Note_off_c, 0, 80, 100
2, 49088, Note_off_c, 0, 68, 100
2, 49152, Note_on_c, 0, 79, 90
2, 49152, Note_on_c, 0, 67, 90
2, 49280, Note_off_c, 0, 79, 100
2, 49280, Note_off_c, 0, 67, 100
2, 49344, Note_on_c, 0, 82, 90
2, 49344, Note_on_c, 0, 70, 90
2, 49472, Note_off_c, 0, 82, 100
2, 49472, Note_off_c, 0, 70, 100
2, 49536, Note_on_c, 0, 74, 60
2, 49558, Note_off_c, 0, 74, 64
2, 49560, Note_on_c, 0, 75, 60
2, 49582, Note_off_c, 0, 75, 64
2, 49584, Note_on_c, 0, 74, 60
2, 49606, Note_off_c, 0, 74, 64
2, 49608, Note_on_c, 0, 75, 60
2, 49630, Note_off_c, 0, 75, 64
2, 49632, Note_on_c, 0, 74, 60
2, 49654, Note_off_c, 0, 74, 64
2, 49656, Note_on_c, 0, 75, 60
2, 49678, Note_off_c, 0, 75, 64
2, 49680, Note_on_c, 0, 74, 60
2, 49702, Note_off_c, 0, 74, 64
2, 49704, Note_on_c, 0, 75, 60
2, 49726, Note_off_c, 0, 75, 64
2, 49728, Note_on_c, 0, 72, 60
2, 49822, Note_off_c, 0, 72, 64
2, 49824, Note_on_c, 0, 74, 60
2, 49918, Note_off_c, 0, 74, 64
2, 49920, Note_on_c, 0, 75, 60
2, 50014, Note_off_c, 0, 75, 100
2, 50016, Note_on_c, 0, 72, 60
2, 50110, Note_off_c, 0, 72, 100
2, 50112, Note_on_c, 0, 80, 90
2, 50112, Note_on_c, 0, 68, 90
2, 50240, Note_off_c, 0, 80, 100
2, 50240, Note_off_c, 0, 68, 100
2, 50304, Note_on_c, 0, 79, 90
2, 50304, Note_on_c, 0, 67, 90
2, 50432, Note_off_c, 0, 79, 100
2, 50432, Note_off_c, 0, 67, 100
2, 50496, Note_on_c, 0, 82, 90
2, 50496, Note_on_c, 0, 70, 90
2, 50624, Note_off_c, 0, 82, 100
2, 50624, Note_off_c, 0, 70, 100
2, 50688, Note_on_c, 0, 74, 60
2, 50710, Note_off_c, 0, 74, 64
2, 50712, Note_on_c, 0, 75, 60
2, 50734, Note_off_c, 0, 75, 64
2, 50736, Note_on_c, 0, 74, 60
2, 50758, Note_off_c, 0, 74, 64
2, 50760, Note_on_c, 0, 75, 60
2, 50782, Note_off_c, 0, 75, 64
2, 50784, Note_on_c, 0, 74, 60
2, 50806, Note_off_c, 0, 74, 64
2, 50808, Note_on_c, 0, 75, 60
2, 50830, Note_off_c, 0, 75, 64
2, 50832, Note_on_c, 0, 74, 60
2, 50854, Note_off_c, 0, 74, 64
2, 50856, Note_on_c, 0, 75, 60
2, 50878, Note_off_c, 0, 75, 64
2, 50880, Note_on_c, 0, 72, 60
2, 50974, Note_off_c, 0, 72, 64
2, 50976, Note_on_c, 0, 74, 60
2, 51070, Note_off_c, 0, 74, 64
2, 51072, Note_on_c, 0, 75, 60
2, 51166, Note_off_c, 0, 75, 100
2, 51168, Note_on_c, 0, 72, 60
2, 51262, Note_off_c, 0, 72, 100
2, 51264, Note_on_c, 0, 70, 90
2, 51312, Note_off_c, 0, 70, 100
2, 51328, Note_on_c, 0, 74, 90
2, 51376, Note_off_c, 0, 74, 100
2, 51392, Note_on_c, 0, 77, 90
2, 51440, Note_off_c, 0, 77, 100
2, 51456, Note_on_c, 0, 82, 90
2, 51504, Note_off_c, 0, 82, 100
2, 51520, Note_on_c, 0, 77, 90
2, 51568, Note_off_c, 0, 77, 100
2, 51584, Note_on_c, 0, 74, 90
2, 51632, Note_off_c, 0, 74, 100
2, 51648, Note_on_c, 0, 75, 90
2, 51696, Note_off_c, 0, 75, 100
2, 51712, Note_on_c, 0, 72, 90
2, 51760, Note_off_c, 0, 72, 100
2, 51776, Note_on_c, 0, 69, 90
2, 51824, Note_off_c, 0, 69, 100
2, 51840, Note_on_c, 0, 70, 90
2, 51888, Note_off_c, 0, 70, 100
2, 51904, Note_on_c, 0, 74, 90
2, 51952, Note_off_c, 0, 74, 100
2, 51968, Note_on_c, 0, 65, 90
2, 52016, Note_off_c, 0, 65, 100
2, 52032, Note_on_c, 0, 70, 90
2, 52080, Note_off_c, 0, 70, 100
2, 52096, Note_on_c, 0, 65, 90
2, 52144, Note_off_c, 0, 65, 100
2, 52160, Note_on_c, 0, 62, 90
2, 52208, Note_off_c, 0, 62, 100
2, 52224, Note_on_c, 0, 63, 90
2, 52272, Note_off_c, 0, 63, 100
2, 52288, Note_on_c, 0, 60, 90
2, 52336, Note_off_c, 0, 60, 100
2, 52352, Note_on_c, 0, 57, 90
2, 52400, Note_off_c, 0, 57, 100
2, 52416, Note_on_c, 0, 58, 60
2, 52544, Note_off_c, 0, 58, 100
2, 52800, Note_on_c, 0, 58, 60
2, 52800, Note_on_c, 0, 53, 60
2, 52928, Note_off_c, 0, 58, 100
2, 52928, Note_off_c, 0, 53, 100
2, 52992, Note_on_c, 0, 58, 60
2, 52992, Note_on_c, 0, 53, 60
2, 53120, Note_off_c, 0, 58, 100
2, 53120, Note_off_c, 0, 53, 100
2, 53632, Note_on_c, 0, 69, 60
2, 53680, Note_off_c, 0, 69, 100
2, 53696, Note_on_c, 0, 70, 60
2, 53744, Note_off_c, 0, 70, 100
2, 53760, Note_on_c, 0, 70, 60
2, 53808, Note_off_c, 0, 70, 100
2, 53824, Note_on_c, 0, 69, 60
2, 53872, Note_off_c, 0, 69, 100
2, 53888, Note_on_c, 0, 70, 60
2, 53936, Note_off_c, 0, 70, 100
2, 53952, Note_on_c, 0, 72, 60
2, 54000, Note_off_c, 0, 72, 100
2, 54016, Note_on_c, 0, 69, 60
2, 54064, Note_off_c, 0, 69, 100
2, 54080, Note_on_c, 0, 70, 60
2, 54128, Note_off_c, 0, 70, 100
2, 54144, Note_on_c, 0, 82, 90
2, 54144, Note_on_c, 0, 58, 90
2, 54192, Note_off_c, 0, 58, 100
2, 54208, Note_on_c, 0, 62, 90
2, 54256, Note_off_c, 0, 62, 100
2, 54272, Note_on_c, 0, 65, 90
2, 54320, Note_off_c, 0, 65, 100
2, 54336, Note_on_c, 0, 58, 90
2, 54384, Note_off_c, 0, 58, 100
2, 54400, Note_off_c, 0, 82, 100
2, 54400, Note_on_c, 0, 63, 90
2, 54448, Note_off_c, 0, 63, 100
2, 54464, Note_on_c, 0, 67, 90
2, 54512, Note_off_c, 0, 67, 100
2, 54528, Note_on_c, 0, 58, 90
2, 54528, Note_on_c, 0, 74, 90
2, 54550, Note_off_c, 0, 74, 64
2, 54552, Note_on_c, 0, 75, 90
2, 54574, Note_off_c, 0, 75, 64
2, 54576, Note_off_c, 0, 58, 100
2, 54576, Note_on_c, 0, 74, 90
2, 54592, Note_on_c, 0, 65, 90
2, 54598, Note_off_c, 0, 74, 64
2, 54600, Note_on_c, 0, 75, 90
2, 54622, Note_off_c, 0, 75, 64
2, 54624, Note_on_c, 0, 72, 90
2, 54640, Note_off_c, 0, 65, 100
2, 54656, Note_on_c, 0, 68, 90
2, 54672, Note_off_c, 0, 72, 64
2, 54672, Note_on_c, 0, 74, 90
2, 54704, Note_off_c, 0, 68, 100
2, 54720, Note_off_c, 0, 74, 64
2, 54720, Note_on_c, 0, 75, 90
2, 54720, Note_on_c, 0, 67, 90
2, 54720, Note_on_c, 0, 58, 90
2, 54768, Note_off_c, 0, 75, 100
2, 54784, Note_on_c, 0, 69, 60
2, 54832, Note_off_c, 0, 69, 100
2, 54848, Note_off_c, 0, 67, 100
2, 54848, Note_off_c, 0, 58, 100
2, 54848, Note_on_c, 0, 70, 60
2, 54896, Note_off_c, 0, 70, 100
2, 54912, Note_on_c, 0, 72, 60
2, 54960, Note_off_c, 0, 72, 100
2, 54976, Note_on_c, 0, 69, 60
2, 55024, Note_off_c, 0, 69, 100
2, 55040, Note_on_c, 0, 70, 60
2, 55088, Note_off_c, 0, 70, 100
2, 55104, Note_on_c, 0, 72, 60
2, 55152, Note_off_c, 0, 72, 100
2, 55168, Note_on_c, 0, 69, 60
2, 55216, Note_off_c, 0, 69, 100
2, 55232, Note_on_c, 0, 70, 60
2, 55280, Note_off_c, 0, 70, 100
2, 55296, Note_on_c, 0, 82, 90
2, 55296, Note_on_c, 0, 58, 90
2, 55344, Note_off_c, 0, 58, 100
2, 55360, Note_on_c, 0, 63, 90
2, 55408, Note_off_c, 0, 63, 100
2, 55424, Note_on_c, 0, 67, 90
2, 55472, Note_off_c, 0, 67, 100
2, 55488, Note_on_c, 0, 58, 90
2, 55536, Note_off_c, 0, 58, 100
2, 55552, Note_off_c, 0, 82, 100
2, 55556, Note_on_c, 0, 65, 90
2, 55604, Note_off_c, 0, 65, 100
2, 55616, Note_on_c, 0, 68, 90
2, 55664, Note_off_c, 0, 68, 100
2, 55680, Note_on_c, 0, 58, 90
2, 55680, Note_on_c, 0, 76, 90
2, 55702, Note_off_c, 0, 76, 64
2, 55704, Note_on_c, 0, 77, 90
2, 55726, Note_off_c, 0, 77, 64
2, 55728, Note_off_c, 0, 58, 100
2, 55728, Note_on_c, 0, 76, 90
2, 55744, Note_on_c, 0, 67, 90
2, 55750, Note_off_c, 0, 76, 64
2, 55752, Note_on_c, 0, 77, 90
2, 55774, Note_off_c, 0, 77, 64
2, 55776, Note_on_c, 0, 74, 90
2, 55792, Note_off_c, 0, 67, 100
2, 55808, Note_on_c, 0, 70, 90
2, 55824, Note_off_c, 0, 74, 64
2, 55824, Note_on_c, 0, 76, 90
2, 55856, Note_off_c, 0, 70, 100
2, 55872, Note_off_c, 0, 76, 64
2, 55872, Note_on_c, 0, 77, 90
2, 55920, Note_off_c, 0, 77, 100
2, 55936, Note_on_c, 0, 69, 90
2, 55984, Note_off_c, 0, 69, 100
2, 56000, Note_on_c, 0, 70, 90
2, 56048, Note_off_c, 0, 70, 100
2, 56064, Note_on_c, 0, 72, 60
2, 56112, Note_off_c, 0, 72, 100
2, 56128, Note_on_c, 0, 69, 60
2, 56176, Note_off_c, 0, 69, 100
2, 56192, Note_on_c, 0, 70, 60
2, 56240, Note_off_c, 0, 70, 100
2, 56256, Note_on_c, 0, 72, 60
2, 56304, Note_off_c, 0, 72, 100
2, 56320, Note_on_c, 0, 69, 60
2, 56368, Note_off_c, 0, 69, 100
2, 56384, Note_on_c, 0, 70, 60
2, 56432, Note_off_c, 0, 70, 100
2, 56448, Note_on_c, 0, 82, 90
2, 56448, Note_on_c, 0, 58, 90
2, 56496, Note_off_c, 0, 58, 100
2, 56512, Note_on_c, 0, 65, 90
2, 56560, Note_off_c, 0, 65, 100
2, 56576, Note_on_c, 0, 68, 90
2, 56624, Note_off_c, 0, 68, 100
2, 56640, Note_on_c, 0, 58, 90
2, 56688, Note_off_c, 0, 58, 100
2, 56704, Note_off_c, 0, 82, 100
2, 56704, Note_on_c, 0, 63, 90
2, 56752, Note_off_c, 0, 63, 100
2, 56768, Note_on_c, 0, 67, 90
2, 56816, Note_off_c, 0, 67, 100
2, 56832, Note_on_c, 0, 58, 90
2, 56832, Note_on_c, 0, 77, 90
2, 56854, Note_off_c, 0, 77, 64
2, 56856, Note_on_c, 0, 79, 90
2, 56878, Note_off_c, 0, 79, 64
2, 56880, Note_off_c, 0, 58, 100
2, 56880, Note_on_c, 0, 77, 90
2, 56896, Note_on_c, 0, 62, 90
2, 56902, Note_off_c, 0, 77, 64
2, 56904, Note_on_c, 0, 79, 90
2, 56926, Note_off_c, 0, 79, 64
2, 56928, Note_on_c, 0, 75, 90
2, 56944, Note_off_c, 0, 62, 100
2, 56960, Note_on_c, 0, 65, 90
2, 56976, Note_off_c, 0, 75, 64
2, 56976, Note_on_c, 0, 77, 90
2, 57008, Note_off_c, 0, 65, 100
2, 57024, Note_off_c, 0, 77, 64
2, 57024, Note_on_c, 0, 63, 90
2, 57024, Note_on_c, 0, 57, 90
2, 57152, Note_off_c, 0, 63, 100
2, 57152, Note_off_c, 0, 57, 100
2, 57216, Note_on_c, 0, 78, 60
2, 57344, Note_off_c, 0, 78, 100
2, 57408, Note_on_c, 0, 75, 60
2, 57536, Note_off_c, 0, 75, 100
2, 57600, Note_on_c, 0, 63, 60
2, 57600, Note_on_c, 0, 59, 60
2, 57728, Note_off_c, 0, 63, 100
2, 57728, Note_off_c, 0, 59, 100
2, 57792, Note_on_c, 0, 75, 60
2, 57920, Note_off_c, 0, 75, 100
2, 57984, Note_on_c, 0, 69, 60
2, 58112, Note_off_c, 0, 69, 100
2, 58176, Note_on_c, 0, 62, 60
2, 58176, Note_on_c, 0, 58, 60
2, 58304, Note_off_c, 0, 62, 100
2, 58304, Note_off_c, 0, 58, 100
2, 58368, Note_on_c, 0, 70, 90
2, 58496, Note_off_c, 0, 70, 100
2, 58560, Note_on_c, 0, 74, 90
2, 58688, Note_off_c, 0, 74, 100
2, 58752, Note_on_c, 0, 77, 90
2, 58880, Note_off_c, 0, 77, 100
2, 58944, Note_on_c, 0, 81, 90
2, 59072, Note_off_c, 0, 81, 100
2, 59136, Note_on_c, 0, 82, 90
2, 59264, Note_off_c, 0, 82, 100
2, 59328, Note_on_c, 0, 70, 90
2, 59456, Note_off_c, 0, 70, 100
2, 59712, Note_on_c, 0, 68, 60
2, 59712, Note_on_c, 0, 62, 60
2, 59840, Note_off_c, 0, 68, 100
2, 59840, Note_off_c, 0, 62, 100
2, 59904, Note_on_c, 0, 68, 60
2, 59904, Note_on_c, 0, 62, 60
2, 60032, Note_off_c, 0, 68, 100
2, 60032, Note_off_c, 0, 62, 100
2, 60672, Note_on_c, 0, 79, 60
2, 60672, Note_on_c, 0, 82, 60
2, 60720, Note_off_c, 0, 82, 100
2, 60736, Note_on_c, 0, 84, 60
2, 60784, Note_off_c, 0, 84, 100
2, 60800, Note_off_c, 0, 79, 100
2, 60800, Note_on_c, 0, 82, 60
2, 60848, Note_off_c, 0, 82, 100
2, 60864, Note_on_c, 0, 77, 60
2, 60864, Note_on_c, 0, 80, 60
2, 60912, Note_off_c, 0, 80, 100
2, 60928, Note_on_c, 0, 82, 60
2, 60976, Note_off_c, 0, 82, 100
2, 60992, Note_off_c, 0, 77, 100
2, 60992, Note_on_c, 0, 80, 60
2, 61040, Note_off_c, 0, 80, 100
2, 61056, Note_on_c, 0, 75, 60
2, 61056, Note_on_c, 0, 79, 60
2, 61104, Note_off_c, 0, 79, 100
2, 61120, Note_on_c, 0, 82, 60
2, 61168, Note_off_c, 0, 82, 100
2, 61184, Note_off_c, 0, 75, 100
2, 61184, Note_on_c, 0, 79, 60
2, 61232, Note_off_c, 0, 79, 100
2, 61248, Note_on_c, 0, 74, 69
2, 61248, Note_on_c, 0, 77, 69
2, 61296, Note_off_c, 0, 77, 100
2, 61312, Note_on_c, 0, 79, 69
2, 61360, Note_off_c, 0, 79, 100
2, 61376, Note_off_c, 0, 74, 100
2, 61376, Note_on_c, 0, 77, 70
2, 61424, Note_off_c, 0, 77, 100
2, 61440, Note_on_c, 0, 72, 72
2, 61440, Note_on_c, 0, 75, 72
2, 61488, Note_off_c, 0, 75, 100
2, 61504, Note_on_c, 0, 77, 73
2, 61552, Note_off_c, 0, 77, 100
2, 61568, Note_off_c, 0, 72, 100
2, 61568, Note_on_c, 0, 75, 75
2, 61616, Note_off_c, 0, 75, 100
2, 61632, Note_on_c, 0, 70, 76
2, 61632, Note_on_c, 0, 74, 76
2, 61680, Note_off_c, 0, 74, 100
2, 61696, Note_on_c, 0, 75, 78
2, 61744, Note_off_c, 0, 75, 100
2, 61760, Note_off_c, 0, 70, 100
2, 61760, Note_on_c, 0, 74, 79
2, 61808, Note_off_c, 0, 74, 100
2, 61824, Note_on_c, 0, 68, 81
2, 61824, Note_on_c, 0, 72, 81
2, 61872, Note_off_c, 0, 72, 100
2, 61888, Note_on_c, 0, 74, 82
2, 61936, Note_off_c, 0, 74, 100
2, 61952, Note_off_c, 0, 68, 100
2, 61952, Note_on_c, 0, 72, 84
2, 62000, Note_off_c, 0, 72, 100
2, 62016, Note_on_c, 0, 67, 87
2, 62016, Note_on_c, 0, 70, 87
2, 62144, Note_off_c, 0, 67, 100
2, 62144, Note_off_c, 0, 70, 100
2, 62208, Note_on_c, 0, 70, 90
2, 62208, Note_on_c, 0, 65, 90
2, 62336, Note_off_c, 0, 65, 100
2, 62400, Note_on_c, 0, 63, 90
2, 62528, Note_off_c, 0, 63, 100
2, 62592, Note_off_c, 0, 70, 100
2, 62592, Note_on_c, 0, 62, 90
2, 62720, Note_off_c, 0, 62, 100
2, 62784, Note_on_c, 0, 70, 82
2, 62784, Note_on_c, 0, 62, 82
2, 62912, Note_off_c, 0, 70, 100
2, 62912, Note_off_c, 0, 62, 100
2, 62976, Note_on_c, 0, 72, 75
2, 62976, Note_on_c, 0, 63, 75
2, 63104, Note_off_c, 0, 72, 100
2, 63104, Note_off_c, 0, 63, 100
2, 63168, Note_on_c, 0, 74, 67
2, 63168, Note_on_c, 0, 65, 67
2, 63296, Note_off_c, 0, 74, 100
2, 63296, Note_off_c, 0, 65, 100
2, 63360, Note_on_c, 0, 75, 60
2, 63408, Note_off_c, 0, 75, 100
2, 63424, Note_on_c, 0, 79, 60
2, 63472, Note_off_c, 0, 79, 100
2, 63488, Note_on_c, 0, 77, 60
2, 63536, Note_off_c, 0, 77, 100
2, 63552, Note_on_c, 0, 75, 60
2, 63600, Note_off_c, 0, 75, 100
2, 63616, Note_on_c, 0, 74, 60
2, 63664, Note_off_c, 0, 74, 100
2, 63680, Note_on_c, 0, 75, 60
2, 63728, Note_off_c, 0, 75, 100
2, 63744, Note_on_c, 0, 72, 60
2, 63792, Note_off_c, 0, 72, 100
2, 63808, Note_on_c, 0, 74, 60
2, 63856, Note_off_c, 0, 74, 100
2, 63872, Note_on_c, 0, 72, 60
2, 63920, Note_off_c, 0, 72, 100
2, 63936, Note_on_c, 0, 70, 60
2, 63936, Note_on_c, 0, 67, 60
2, 64192, Note_off_c, 0, 70, 100
2, 64192, Note_off_c, 0, 67, 100
2, 64320, Note_on_c, 0, 65, 60
2, 64320, Note_on_c, 0, 68, 60
2, 64342, Note_off_c, 0, 68, 64
2, 64344, Note_on_c, 0, 70, 60
2, 64366, Note_off_c, 0, 70, 64
2, 64368, Note_on_c, 0, 68, 60
2, 64390, Note_off_c, 0, 68, 64
2, 64392, Note_on_c, 0, 70, 60
2, 64414, Note_off_c, 0, 70, 64
2, 64416, Note_on_c, 0, 67, 60
2, 64448, Note_off_c, 0, 65, 100
2, 64448, Note_off_c, 0, 67, 100
2, 64464, Note_on_c, 0, 68, 60
2, 64496, Note_off_c, 0, 68, 100
2, 64512, Note_on_c, 0, 67, 60
2, 64640, Note_off_c, 0, 67, 100
2, 64704, Note_on_c, 0, 74, 60
2, 64832, Note_off_c, 0, 74, 100
2, 64896, Note_on_c, 0, 75, 60
2, 65024, Note_off_c, 0, 75, 100
2, 65280, Note_on_c, 0, 82, 60
2, 65408, Note_off_c, 0, 82, 100
2, 65472, Note_on_c, 0, 79, 60
2, 65600, Note_off_c, 0, 79, 100
2, 65760, Note_on_c, 0, 77, 60
2, 65824, Note_off_c, 0, 77, 100
2, 65856, Note_on_c, 0, 79, 60
2, 65920, Note_off_c, 0, 79, 100
2, 65952, Note_on_c, 0, 80, 60
2, 66016, Note_off_c, 0, 80, 100
2, 66048, Note_on_c, 0, 82, 60
2, 66112, Note_off_c, 0, 82, 100
2, 66144, Note_on_c, 0, 84, 60
2, 66208, Note_off_c, 0, 84, 100
2, 66240, Note_on_c, 0, 84, 60
2, 66304, Note_off_c, 0, 84, 100
2, 66336, Note_on_c, 0, 82, 60
2, 66400, Note_off_c, 0, 82, 100
2, 66432, Note_on_c, 0, 80, 60
2, 66496, Note_off_c, 0, 80, 100
2, 66528, Note_on_c, 0, 79, 60
2, 66592, Note_off_c, 0, 79, 100
2, 66624, Note_on_c, 0, 77, 60
2, 66688, Note_off_c, 0, 77, 100
2, 66720, Note_on_c, 0, 74, 60
2, 66784, Note_off_c, 0, 74, 100
2, 66816, Note_on_c, 0, 75, 88
2, 66864, Note_off_c, 0, 75, 100
2, 66880, Note_on_c, 0, 70, 88
2, 66928, Note_off_c, 0, 70, 100
2, 66944, Note_on_c, 0, 67, 87
2, 66992, Note_off_c, 0, 67, 100
2, 67008, Note_on_c, 0, 70, 85
2, 67056, Note_off_c, 0, 70, 100
2, 67072, Note_on_c, 0, 67, 84
2, 67120, Note_off_c, 0, 67, 100
2, 67136, Note_on_c, 0, 63, 82
2, 67184, Note_off_c, 0, 63, 100
2, 67200, Note_on_c, 0, 62, 81
2, 67248, Note_off_c, 0, 62, 100
2, 67264, Note_on_c, 0, 65, 79
2, 67312, Note_off_c, 0, 65, 100
2, 67328, Note_on_c, 0, 68, 78
2, 67376, Note_off_c, 0, 68, 100
2, 67392, Note_on_c, 0, 67, 76
2, 67440, Note_off_c, 0, 67, 100
2, 67456, Note_on_c, 0, 70, 75
2, 67504, Note_off_c, 0, 70, 100
2, 67520, Note_on_c, 0, 67, 75
2, 67568, Note_off_c, 0, 67, 100
2, 67584, Note_on_c, 0, 75, 73
2, 67632, Note_off_c, 0, 75, 100
2, 67648, Note_on_c, 0, 70, 72
2, 67696, Note_off_c, 0, 70, 100
2, 67712, Note_on_c, 0, 67, 70
2, 67760, Note_off_c, 0, 67, 100
2, 67776, Note_on_c, 0, 68, 69
2, 67824, Note_off_c, 0, 68, 100
2, 67840, Note_on_c, 0, 65, 67
2, 67888, Note_off_c, 0, 65, 100
2, 67904, Note_on_c, 0, 62, 66
2, 67952, Note_off_c, 0, 62, 100
2, 67968, Note_on_c, 0, 63, 64
2, 68096, Note_off_c, 0, 63, 100
2, 68352, Note_on_c, 0, 63, 60
2, 68352, Note_on_c, 0, 58, 60
2, 68480, Note_off_c, 0, 63, 100
2, 68480, Note_off_c, 0, 58, 100
2, 68544, Note_on_c, 0, 63, 60
2, 68544, Note_on_c, 0, 58, 60
2, 68672, Note_off_c, 0, 63, 100
2, 68672, Note_off_c, 0, 58, 100
2, 69120, Note_on_c, 0, 75, 79
2, 69120, Note_on_c, 0, 60, 70
2, 69184, Note_off_c, 0, 60, 100
2, 69216, Note_on_c, 0, 63, 70
2, 69248, Note_off_c, 0, 75, 100
2, 69280, Note_off_c, 0, 63, 100
2, 69312, Note_on_c, 0, 75, 79
2, 69312, Note_on_c, 0, 68, 70
2, 69344, Note_off_c, 0, 75, 100
2, 69360, Note_on_c, 0, 77, 79
2, 69376, Note_off_c, 0, 68, 100
2, 69392, Note_off_c, 0, 77, 100
2, 69408, Note_on_c, 0, 75, 79
2, 69408, Note_on_c, 0, 63, 70
2, 69440, Note_off_c, 0, 75, 100
2, 69456, Note_on_c, 0, 73, 79
2, 69472, Note_off_c, 0, 63, 100
2, 69488, Note_off_c, 0, 73, 100
2, 69504, Note_on_c, 0, 72, 79
2, 69504, Note_on_c, 0, 68, 70
2, 69568, Note_off_c, 0, 68, 100
2, 69600, Note_on_c, 0, 63, 70
2, 69632, Note_off_c, 0, 72, 100
2, 69664, Note_off_c, 0, 63, 100
2, 69696, Note_on_c, 0, 60, 49
2, 69760, Note_off_c, 0, 60, 100
2, 69792, Note_on_c, 0, 63, 49
2, 69840, Note_on_c, 0, 79, 60
2, 69856, Note_off_c, 0, 63, 100
2, 69872, Note_off_c, 0, 79, 100
2, 69888, Note_on_c, 0, 80, 60
2, 69888, Note_on_c, 0, 68, 49
2, 69952, Note_off_c, 0, 68, 100
2, 69984, Note_on_c, 0, 63, 49
2, 70016, Note_off_c, 0, 80, 100
2, 70032, Note_on_c, 0, 79, 60
2, 70048, Note_off_c, 0, 63, 100
2, 70064, Note_off_c, 0, 79, 100
2, 70080, Note_on_c, 0, 80, 60
2, 70080, Note_on_c, 0, 60, 49
2, 70144, Note_off_c, 0, 60, 100
2, 70176, Note_on_c, 0, 63, 49
2, 70208, Note_off_c, 0, 80, 100
2, 70240, Note_off_c, 0, 63, 100
2, 70272, Note_on_c, 0, 79, 79
2, 70400, Note_off_c, 0, 79, 100
2, 70464, Note_on_c, 0, 79, 79
2, 70496, Note_off_c, 0, 79, 100
2, 70512, Note_on_c, 0, 80, 79
2, 70544, Note_off_c, 0, 80, 100
2, 70560, Note_on_c, 0, 82, 79
2, 70592, Note_off_c, 0, 82, 100
2, 70608, Note_on_c, 0, 80, 79
2, 70640, Note_off_c, 0, 80, 100
2, 70656, Note_on_c, 0, 79, 79
2, 70784, Note_off_c, 0, 79, 100
2, 70992, Note_on_c, 0, 84, 60
2, 71024, Note_off_c, 0, 84, 100
2, 71040, Note_on_c, 0, 85, 60
2, 71168, Note_off_c, 0, 85, 100
2, 71184, Note_on_c, 0, 84, 60
2, 71216, Note_off_c, 0, 84, 100
2, 71232, Note_on_c, 0, 85, 60
2, 71360, Note_off_c, 0, 85, 100
2, 71424, Note_on_c, 0, 84, 79
2, 71552, Note_off_c, 0, 84, 100
2, 71616, Note_on_c, 0, 84, 79
2, 71648, Note_off_c, 0, 84, 100
2, 71664, Note_on_c, 0, 85, 79
2, 71696, Note_off_c, 0, 85, 100
2, 71712, Note_on_c, 0, 87, 79
2, 71744, Note_off_c, 0, 87, 100
2, 71760, Note_on_c, 0, 85, 79
2, 71792, Note_off_c, 0, 85, 100
2, 71808, Note_on_c, 0, 84, 79
2, 71936, Note_off_c, 0, 84, 100
2, 72144, Note_on_c, 0, 75, 60
2, 72176, Note_off_c, 0, 75, 100
2, 72192, Note_on_c, 0, 77, 60
2, 72320, Note_off_c, 0, 77, 100
2, 72336, Note_on_c, 0, 75, 60
2, 72368, Note_off_c, 0, 75, 100
2, 72384, Note_on_c, 0, 77, 60
2, 72512, Note_off_c, 0, 77, 100
2, 72576, Note_on_c, 0, 77, 60
2, 72640, Note_off_c, 0, 77, 100
2, 72672, Note_on_c, 0, 76, 60
2, 72736, Note_off_c, 0, 76, 100
2, 72768, Note_on_c, 0, 79, 60
2, 72832, Note_off_c, 0, 79, 100
2, 72864, Note_on_c, 0, 76, 60
2, 72928, Note_off_c, 0, 76, 100
2, 72960, Note_on_c, 0, 72, 60
2, 73024, Note_off_c, 0, 72, 100
2, 73056, Note_on_c, 0, 70, 60
2, 73120, Note_off_c, 0, 70, 100
2, 73152, Note_on_c, 0, 68, 60
2, 73280, Note_off_c, 0, 68, 100
2, 73536, Note_on_c, 0, 75, 60
2, 73664, Note_off_c, 0, 75, 100
2, 73728, Note_on_c, 0, 75, 60
2, 73792, Note_off_c, 0, 75, 100
2, 73824, Note_on_c, 0, 74, 60
2, 73888, Note_off_c, 0, 74, 100
2, 73920, Note_on_c, 0, 77, 60
2, 73984, Note_off_c, 0, 77, 100
2, 74016, Note_on_c, 0, 74, 60
2, 74080, Note_off_c, 0, 74, 100
2, 74112, Note_on_c, 0, 70, 60
2, 74176, Note_off_c, 0, 70, 100
2, 74208, Note_on_c, 0, 68, 60
2, 74272, Note_off_c, 0, 68, 100
2, 74304, Note_on_c, 0, 67, 79
2, 74432, Note_off_c, 0, 67, 100
2, 74688, Note_on_c, 0, 79, 79
2, 74816, Note_off_c, 0, 79, 100
2, 74880, Note_on_c, 0, 76, 81
2, 74944, Note_off_c, 0, 76, 100
2, 74976, Note_on_c, 0, 77, 81
2, 75040, Note_off_c, 0, 77, 100
2, 75264, Note_on_c, 0, 79, 82
2, 75328, Note_off_c, 0, 79, 100
2, 75360, Note_on_c, 0, 80, 82
2, 75424, Note_off_c, 0, 80, 100
2, 75648, Note_on_c, 0, 82, 84
2, 75712, Note_off_c, 0, 82, 100
2, 75744, Note_on_c, 0, 84, 85
2, 75808, Note_off_c, 0, 84, 100
2, 75840, Note_on_c, 0, 82, 85
2, 75872, Note_off_c, 0, 82, 100
2, 75888, Note_on_c, 0, 80, 85
2, 75920, Note_off_c, 0, 80, 100
2, 75936, Note_on_c, 0, 79, 85
2, 75968, Note_off_c, 0, 79, 100
2, 75984, Note_on_c, 0, 77, 85
2, 76016, Note_off_c, 0, 77, 100
2, 76032, Note_on_c, 0, 75, 87
2, 76224, Note_on_c, 0, 74, 87
2, 76288, Note_off_c, 0, 75, 100
2, 76352, Note_off_c, 0, 74, 100
2, 77376, Note_on_c, 0, 82, 60
2, 77376, Note_on_c, 0, 67, 60
2, 77424, Note_off_c, 0, 82, 100
2, 77424, Note_off_c, 0, 67, 100
2, 77440, Note_on_c, 0, 79, 60
2, 77440, Note_on_c, 0, 63, 60
2, 77488, Note_off_c, 0, 79, 100
2, 77488, Note_off_c, 0, 63, 100
2, 77504, Note_on_c, 0, 80, 60
2, 77504, Note_on_c, 0, 65, 60
2, 77552, Note_off_c, 0, 80, 100
2, 77552, Note_off_c, 0, 65, 100
2, 77568, Note_on_c, 0, 82, 60
2, 77568, Note_on_c, 0, 67, 60
2, 77616, Note_off_c, 0, 82, 100
2, 77616, Note_off_c, 0, 67, 100
2, 77632, Note_on_c, 0, 79, 60
2, 77632, Note_on_c, 0, 63, 60
2, 77680, Note_off_c, 0, 79, 100
2, 77680, Note_off_c, 0, 63, 100
2, 77696, Note_on_c, 0, 80, 60
2, 77696, Note_on_c, 0, 65, 60
2, 77744, Note_off_c, 0, 80, 100
2, 77744, Note_off_c, 0, 65, 100
2, 77760, Note_on_c, 0, 82, 60
2, 77760, Note_on_c, 0, 67, 60
2, 77888, Note_off_c, 0, 82, 100
2, 77888, Note_off_c, 0, 67, 100
2, 77952, Note_on_c, 0, 84, 60
2, 77952, Note_on_c, 0, 68, 60
2, 78080, Note_off_c, 0, 84, 100
2, 78080, Note_off_c, 0, 68, 100
2, 78144, Note_on_c, 0, 80, 60
2, 78144, Note_on_c, 0, 65, 60
2, 78272, Note_off_c, 0, 80, 100
2, 78272, Note_off_c, 0, 65, 100
2, 78528, Note_on_c, 0, 80, 60
2, 78528, Note_on_c, 0, 65, 60
2, 78576, Note_off_c, 0, 80, 100
2, 78576, Note_off_c, 0, 65, 100
2, 78592, Note_on_c, 0, 77, 60
2, 78592, Note_on_c, 0, 62, 60
2, 78640, Note_off_c, 0, 77, 100
2, 78640, Note_off_c, 0, 62, 100
2, 78656, Note_on_c, 0, 79, 60
2, 78656, Note_on_c, 0, 63, 60
2, 78704, Note_off_c, 0, 79, 100
2, 78704, Note_off_c, 0, 63, 100
2, 78720, Note_on_c, 0, 80, 60
2, 78720, Note_on_c, 0, 65, 60
2, 78768, Note_off_c, 0, 80, 100
2, 78768, Note_off_c, 0, 65, 100
2, 78784, Note_on_c, 0, 77, 60
2, 78784, Note_on_c, 0, 62, 60
2, 78832, Note_off_c, 0, 77, 100
2, 78832, Note_off_c, 0, 62, 100
2, 78848, Note_on_c, 0, 79, 60
2, 78848, Note_on_c, 0, 63, 60
2, 78896, Note_off_c, 0, 79, 100
2, 78896, Note_off_c, 0, 63, 100
2, 78912, Note_on_c, 0, 80, 60
2, 78912, Note_on_c, 0, 65, 60
2, 79040, Note_off_c, 0, 80, 100
2, 79040, Note_off_c, 0, 65, 100
2, 79104, Note_on_c, 0, 82, 60
2, 79104, Note_on_c, 0, 67, 60
2, 79232, Note_off_c, 0, 82, 100
2, 79232, Note_off_c, 0, 67, 100
2, 79296, Note_on_c, 0, 79, 60
2, 79296, Note_on_c, 0, 63, 60
2, 79424, Note_off_c, 0, 79, 100
2, 79424, Note_off_c, 0, 63, 100
2, 79488, Note_on_c, 0, 75, 90
2, 79488, Note_on_c, 0, 55, 90
2, 79536, Note_off_c, 0, 55, 100
2, 79552, Note_on_c, 0, 58, 90
2, 79600, Note_off_c, 0, 58, 100
2, 79616, Note_off_c, 0, 75, 100
2, 79616, Note_on_c, 0, 63, 90
2, 79664, Note_off_c, 0, 63, 100
2, 79680, Note_on_c, 0, 87, 90
2, 79680, Note_on_c, 0, 55, 90
2, 79728, Note_off_c, 0, 55, 100
2, 79744, Note_on_c, 0, 58, 90
2, 79792, Note_off_c, 0, 58, 100
2, 79808, Note_off_c, 0, 87, 100
2, 79808, Note_on_c, 0, 63, 90
2, 79856, Note_off_c, 0, 63, 100
2, 79872, Note_on_c, 0, 87, 90
2, 79872, Note_on_c, 0, 55, 90
2, 79920, Note_off_c, 0, 55, 100
2, 79936, Note_on_c, 0, 58, 90
2, 79984, Note_off_c, 0, 58, 100
2, 80000, Note_off_c, 0, 87, 100
2, 80000, Note_on_c, 0, 63, 90
2, 80048, Note_off_c, 0, 63, 100
2, 80064, Note_on_c, 0, 86, 90
2, 80064, Note_on_c, 0, 56, 90
2, 80112, Note_off_c, 0, 56, 100
2, 80128, Note_off_c, 0, 86, 100
2, 80128, Note_on_c, 0, 60, 90
2, 80160, Note_on_c, 0, 84, 90
2, 80176, Note_off_c, 0, 60, 100
2, 80192, Note_on_c, 0, 63, 90
2, 80224, Note_off_c, 0, 84, 100
2, 80240, Note_off_c, 0, 63, 100
2, 80256, Note_on_c, 0, 82, 90
2, 80256, Note_on_c, 0, 56, 90
2, 80304, Note_off_c, 0, 56, 100
2, 80320, Note_off_c, 0, 82, 100
2, 80320, Note_on_c, 0, 60, 90
2, 80352, Note_on_c, 0, 80, 90
2, 80368, Note_off_c, 0, 60, 100
2, 80384, Note_on_c, 0, 63, 90
2, 80416, Note_off_c, 0, 80, 100
2, 80432, Note_off_c, 0, 63, 100
2, 80448, Note_on_c, 0, 79, 90
2, 80448, Note_on_c, 0, 56, 90
2, 80496, Note_off_c, 0, 56, 100
2, 80512, Note_off_c, 0, 79, 100
2, 80512, Note_on_c, 0, 60, 90
2, 80544, Note_on_c, 0, 77, 90
2, 80560, Note_off_c, 0, 60, 100
2, 80576, Note_on_c, 0, 65, 90
2, 80608, Note_off_c, 0, 77, 100
2, 80624, Note_off_c, 0, 65, 100
2, 80640, Note_on_c, 0, 58, 90
2, 80640, Note_on_c, 0, 75, 90
2, 80662, Note_off_c, 0, 75, 64
2, 80664, Note_on_c, 0, 77, 90
2, 80686, Note_off_c, 0, 77, 64
2, 80688, Note_off_c, 0, 58, 100
2, 80688, Note_on_c, 0, 75, 90
2, 80704, Note_on_c, 0, 63, 90
2, 80710, Note_off_c, 0, 75, 64
2, 80712, Note_on_c, 0, 77, 90
2, 80734, Note_off_c, 0, 77, 64
2, 80736, Note_on_c, 0, 75, 90
2, 80752, Note_off_c, 0, 63, 100
2, 80758, Note_off_c, 0, 75, 64
2, 80760, Note_on_c, 0, 77, 90
2, 80768, Note_on_c, 0, 67, 90
2, 80782, Note_off_c, 0, 77, 64
2, 80784, Note_on_c, 0, 75, 90
2, 80806, Note_off_c, 0, 75, 64
2, 80808, Note_on_c, 0, 77, 90
2, 80816, Note_off_c, 0, 67, 100
2, 80830, Note_off_c, 0, 77, 64
2, 80832, Note_on_c, 0, 58, 90
2, 80832, Note_on_c, 0, 74, 90
2, 80880, Note_off_c, 0, 58, 100
2, 80896, Note_on_c, 0, 63, 90
2, 80926, Note_off_c, 0, 74, 64
2, 80928, Note_on_c, 0, 75, 90
2, 80944, Note_off_c, 0, 63, 100
2, 80960, Note_on_c, 0, 67, 90
2, 81008, Note_off_c, 0, 67, 100
2, 81022, Note_off_c, 0, 75, 64
2, 81024, Note_on_c, 0, 77, 90
2, 81024, Note_on_c, 0, 58, 90
2, 81072, Note_off_c, 0, 58, 100
2, 81088, Note_on_c, 0, 65, 90
2, 81118, Note_off_c, 0, 77, 100
2, 81120, Note_on_c, 0, 74, 90
2, 81136, Note_off_c, 0, 65, 100
2, 81152, Note_on_c, 0, 68, 90
2, 81200, Note_off_c, 0, 68, 100
2, 81214, Note_off_c, 0, 74, 100
2, 81216, Note_on_c, 0, 75, 90
2, 81216, Note_on_c, 0, 60, 90
2, 81264, Note_off_c, 0, 60, 100
2, 81280, Note_on_c, 0, 63, 90
2, 81328, Note_off_c, 0, 63, 100
2, 81344, Note_off_c, 0, 75, 100
2, 81344, Note_on_c, 0, 67, 90
2, 81392, Note_off_c, 0, 67, 100
2, 81408, Note_on_c, 0, 60, 90
2, 81456, Note_off_c, 0, 60, 100
2, 81472, Note_on_c, 0, 63, 90
2, 81520, Note_off_c, 0, 63, 100
2, 81536, Note_on_c, 0, 67, 90
2, 81584, Note_off_c, 0, 67, 100
2, 81600, Note_on_c, 0, 56, 90
2, 81648, Note_off_c, 0, 56, 100
2, 81664, Note_on_c, 0, 60, 90
2, 81712, Note_off_c, 0, 60, 100
2, 81728, Note_on_c, 0, 65, 90
2, 81776, Note_off_c, 0, 65, 100
2, 81792, Note_on_c, 0, 70, 60
2, 81920, Note_off_c, 0, 70, 100
2, 81984, Note_on_c, 0, 79, 60
2, 82032, Note_off_c, 0, 79, 100
2, 82048, Note_on_c, 0, 74, 60
2, 82096, Note_off_c, 0, 74, 100
2, 82112, Note_on_c, 0, 75, 60
2, 82160, Note_off_c, 0, 75, 100
2, 82176, Note_on_c, 0, 79, 60
2, 82224, Note_off_c, 0, 79, 100
2, 82240, Note_on_c, 0, 74, 60
2, 82288, Note_off_c, 0, 74, 100
2, 82304, Note_on_c, 0, 75, 60
2, 82352, Note_off_c, 0, 75, 100
2, 82368, Note_on_c, 0, 74, 60
2, 82432, Note_off_c, 0, 74, 100
2, 82464, Note_on_c, 0, 72, 60
2, 82528, Note_off_c, 0, 72, 100
2, 82560, Note_on_c, 0, 70, 60
2, 82624, Note_off_c, 0, 70, 100
2, 82656, Note_on_c, 0, 68, 60
2, 82720, Note_off_c, 0, 68, 100
2, 82752, Note_on_c, 0, 67, 60
2, 82816, Note_off_c, 0, 67, 100
2, 82848, Note_on_c, 0, 65, 60
2, 82912, Note_off_c, 0, 65, 100
2, 82944, Note_on_c, 0, 63, 60
2, 82966, Note_off_c, 0, 63, 64
2, 82968, Note_on_c, 0, 65, 60
2, 82990, Note_off_c, 0, 65, 64
2, 82992, Note_on_c, 0, 63, 60
2, 83014, Note_off_c, 0, 63, 64
2, 83016, Note_on_c, 0, 65, 60
2, 83038, Note_off_c, 0, 65, 64
2, 83040, Note_on_c, 0, 63, 60
2, 83062, Note_off_c, 0, 63, 64
2, 83064, Note_on_c, 0, 65, 60
2, 83086, Note_off_c, 0, 65, 64
2, 83088, Note_on_c, 0, 63, 60
2, 83110, Note_off_c, 0, 63, 64
2, 83112, Note_on_c, 0, 65, 60
2, 83134, Note_off_c, 0, 65, 64
2, 83136, Note_on_c, 0, 62, 60
2, 83230, Note_off_c, 0, 62, 64
2, 83232, Note_on_c, 0, 63, 60
2, 83326, Note_off_c, 0, 63, 64
2, 83328, Note_on_c, 0, 65, 60
2, 83422, Note_off_c, 0, 65, 100
2, 83424, Note_on_c, 0, 62, 60
2, 83518, Note_off_c, 0, 62, 100
2, 83520, Note_on_c, 0, 73, 90
2, 83520, Note_on_c, 0, 61, 90
2, 83648, Note_off_c, 0, 73, 100
2, 83648, Note_off_c, 0, 61, 100
2, 83712, Note_on_c, 0, 72, 90
2, 83712, Note_on_c, 0, 60, 90
2, 83840, Note_off_c, 0, 72, 100
2, 83840, Note_off_c, 0, 60, 100
2, 83904, Note_on_c, 0, 75, 90
2, 83904, Note_on_c, 0, 63, 90
2, 84032, Note_off_c, 0, 75, 100
2, 84032, Note_off_c, 0, 63, 100
2, 84096, Note_on_c, 0, 67, 60
2, 84118, Note_off_c, 0, 67, 64
2, 84120, Note_on_c, 0, 68, 60
2, 84142, Note_off_c, 0, 68, 64
2, 84144, Note_on_c, 0, 67, 60
2, 84166, Note_off_c, 0, 67, 64
2, 84168, Note_on_c, 0, 68, 60
2, 84190, Note_off_c, 0, 68, 64
2, 84192, Note_on_c, 0, 67, 60
2, 84214, Note_off_c, 0, 67, 64
2, 84216, Note_on_c, 0, 68, 60
2, 84238, Note_off_c, 0, 68, 64
2, 84240, Note_on_c, 0, 67, 60
2, 84262, Note_off_c, 0, 67, 64
2, 84264, Note_on_c, 0, 68, 60
2, 84286, Note_off_c, 0, 68, 64
2, 84288, Note_on_c, 0, 65, 60
2, 84382, Note_off_c, 0, 65, 64
2, 84384, Note_on_c, 0, 67, 60
2, 84478, Note_off_c, 0, 67, 64
2, 84480, Note_on_c, 0, 68, 60
2, 84574, Note_off_c, 0, 68, 100
2, 84576, Note_on_c, 0, 65, 60
2, 84670, Note_off_c, 0, 65, 100
2, 84672, Note_on_c, 0, 85, 90
2, 84672, Note_on_c, 0, 73, 90
2, 84672, Note_on_c, 0, 55, 90
2, 84720, Note_off_c, 0, 55, 100
2, 84736, Note_on_c, 0, 58, 90
2, 84784, Note_off_c, 0, 58, 100
2, 84800, Note_off_c, 0, 85, 100
2, 84800, Note_off_c, 0, 73, 100
2, 84800, Note_on_c, 0, 64, 90
2, 84848, Note_off_c, 0, 64, 100
2, 84864, Note_on_c, 0, 84, 90
2, 84864, Note_on_c, 0, 72, 90
2, 84864, Note_on_c, 0, 56, 90
2, 84912, Note_off_c, 0, 56, 100
2, 84928, Note_on_c, 0, 60, 90
2, 84976, Note_off_c, 0, 60, 100
2, 84992, Note_off_c, 0, 84, 100
2, 84992, Note_off_c, 0, 72, 100
2, 84992, Note_on_c, 0, 65, 90
2, 85040, Note_off_c, 0, 65, 100
2, 85056, Note_on_c, 0, 87, 90
2, 85056, Note_on_c, 0, 75, 90
2, 85056, Note_on_c, 0, 57, 90
2, 85104, Note_off_c, 0, 57, 100
2, 85120, Note_on_c, 0, 60, 90
2, 85168, Note_off_c, 0, 60, 100
2, 85184, Note_off_c, 0, 87, 100
2, 85184, Note_off_c, 0, 75, 100
2, 85184, Note_on_c, 0, 66, 90
2, 85232, Note_off_c, 0, 66, 100
2, 85248, Note_on_c, 0, 58, 60
2, 85248, Note_on_c, 0, 79, 60
2, 85270, Note_off_c, 0, 79, 64
2, 85272, Note_on_c, 0, 80, 60
2, 85294, Note_off_c, 0, 80, 64
2, 85296, Note_off_c, 0, 58, 100
2, 85296, Note_on_c, 0, 79, 60
2, 85312, Note_on_c, 0, 63, 60
2, 85318, Note_off_c, 0, 79, 64
2, 85320, Note_on_c, 0, 80, 60
2, 85342, Note_off_c, 0, 80, 64
2, 85344, Note_on_c, 0, 79, 60
2, 85360, Note_off_c, 0, 63, 100
2, 85366, Note_off_c, 0, 79, 64
2, 85368, Note_on_c, 0, 80, 60
2, 85376, Note_on_c, 0, 67, 60
2, 85390, Note_off_c, 0, 80, 64
2, 85392, Note_on_c, 0, 79, 60
2, 85414, Note_off_c, 0, 79, 64
2, 85416, Note_on_c, 0, 80, 60
2, 85424, Note_off_c, 0, 67, 100
2, 85438, Note_off_c, 0, 80, 64
2, 85440, Note_on_c, 0, 58, 60
2, 85440, Note_on_c, 0, 77, 60
2, 85488, Note_off_c, 0, 58, 100
2, 85504, Note_on_c, 0, 63, 60
2, 85534, Note_off_c, 0, 77, 64
2, 85536, Note_on_c, 0, 79, 60
2, 85552, Note_off_c, 0, 63, 100
2, 85568, Note_on_c, 0, 67, 60
2, 85616, Note_off_c, 0, 67, 100
2, 85630, Note_off_c, 0, 79, 64
2, 85632, Note_on_c, 0, 80, 60
2, 85632, Note_on_c, 0, 58, 60
2, 85680, Note_off_c, 0, 58, 100
2, 85696, Note_on_c, 0, 62, 60
2, 85726, Note_off_c, 0, 80, 100
2, 85728, Note_on_c, 0, 77, 60
2, 85744, Note_off_c, 0, 62, 100
2, 85760, Note_on_c, 0, 68, 60
2, 85808, Note_off_c, 0, 68, 100
2, 85822, Note_off_c, 0, 77, 100
2, 85824, Note_on_c, 0, 75, 90
2, 85824, Note_on_c, 0, 67, 90
2, 85824, Note_on_c, 0, 63, 90
2, 85872, Note_off_c, 0, 75, 100
2, 85888, Note_on_c, 0, 79, 90
2, 85936, Note_off_c, 0, 79, 100
2, 85952, Note_off_c, 0, 67, 100
2, 85952, Note_off_c, 0, 63, 100
2, 85952, Note_on_c, 0, 82, 90
2, 86000, Note_off_c, 0, 82, 100
2, 86016, Note_on_c, 0, 87, 90
2, 86064, Note_off_c, 0, 87, 100
2, 86080, Note_on_c, 0, 82, 90
2, 86128, Note_off_c, 0, 82, 100
2, 86144, Note_on_c, 0, 79, 90
2, 86192, Note_off_c, 0, 79, 100
2, 86208, Note_on_c, 0, 80, 90
2, 86256, Note_off_c, 0, 80, 100
2, 86272, Note_on_c, 0, 77, 90
2, 86320, Note_off_c, 0, 77, 100
2, 86336, Note_on_c, 0, 74, 90
2, 86384, Note_off_c, 0, 74, 100
2, 86400, Note_on_c, 0, 75, 90
2, 86448, Note_off_c, 0, 75, 100
2, 86464, Note_on_c, 0, 79, 90
2, 86512, Note_off_c, 0, 79, 100
2, 86528, Note_on_c, 0, 70, 90
2, 86576, Note_off_c, 0, 70, 100
2, 86592, Note_on_c, 0, 75, 90
2, 86640, Note_off_c, 0, 75, 100
2, 86656, Note_on_c, 0, 70, 90
2, 86704, Note_off_c, 0, 70, 100
2, 86720, Note_on_c, 0, 67, 90
2, 86768, Note_off_c, 0, 67, 100
2, 86784, Note_on_c, 0, 68, 90
2, 86832, Note_off_c, 0, 68, 100
2, 86848, Note_on_c, 0, 65, 90
2, 86896, Note_off_c, 0, 65, 100
2, 86912, Note_on_c, 0, 62, 90
2, 86960, Note_off_c, 0, 62, 100
2, 86976, Note_on_c, 0, 63, 90
2, 87070, Note_off_c, 0, 63, 100
2, 87360, Note_on_c, 0, 63, 60
2, 87360, Note_on_c, 0, 58, 60
2, 87454, Note_off_c, 0, 63, 100
2, 87454, Note_off_c, 0, 58, 100
2, 87552, Note_on_c, 0, 63, 60
2, 87552, Note_on_c, 0, 58, 60
2, 87646, Note_off_c, 0, 63, 100
2, 87646, Note_off_c, 0, 58, 100
2, 87646, End_track
3, 0, Start_track
3, 0, Title_t, "Sonata  #6"
3, 0, Control_c, 1, 0, 0
3, 0, Program_c, 1, 0
3, 0, Control_c, 1, 7, 80
3, 0, Control_c, 1, 10, 52
3, 0, Control_c, 1, 91, 68
3, 0, Control_c, 1, 93, 51
3, 0, Key_signature, -3, "major"
3, 0, Control_c, 1, 127, 0
3, 48, Control_c, 1, 10, 53
3, 96, Control_c, 1, 91, 63
3, 120, Control_c, 1, 93, 40
3, 144, Program_c, 1, 0
3, 576, Note_on_c, 1, 51, 90
3, 576, Note_on_c, 1, 39, 90
3, 704, Note_off_c, 1, 51, 100
3, 704, Note_off_c, 1, 39, 100
3, 2112, Note_on_c, 1, 63, 60
3, 2112, Note_on_c, 1, 51, 60
3, 2240, Note_off_c, 1, 63, 100
3, 2240, Note_off_c, 1, 51, 100
3, 2304, Note_on_c, 1, 62, 90
3, 2304, Note_on_c, 1, 50, 90
3, 2432, Note_off_c, 1, 62, 100
3, 2432, Note_off_c, 1, 50, 100
3, 2496, Note_on_c, 1, 60, 90
3, 2496, Note_on_c, 1, 48, 90
3, 2624, Note_off_c, 1, 60, 100
3, 2624, Note_off_c, 1, 48, 100
3, 2688, Note_on_c, 1, 58, 90
3, 2688, Note_on_c, 1, 46, 90
3, 2816, Note_off_c, 1, 58, 100
3, 2816, Note_off_c, 1, 46, 100
3, 2880, Note_on_c, 1, 56, 90
3, 2880, Note_on_c, 1, 44, 90
3, 3008, Note_off_c, 1, 56, 100
3, 3008, Note_off_c, 1, 44, 100
3, 3072, Note_on_c, 1, 55, 90
3, 3072, Note_on_c, 1, 43, 90
3, 3200, Note_off_c, 1, 55, 100
3, 3200, Note_off_c, 1, 43, 100
3, 3264, Note_on_c, 1, 53, 90
3, 3264, Note_on_c, 1, 41, 90
3, 3392, Note_off_c, 1, 53, 100
3, 3392, Note_off_c, 1, 41, 100
3, 3456, Note_on_c, 1, 51, 60
3, 3456, Note_on_c, 1, 39, 60
3, 3584, Note_off_c, 1, 51, 100
3, 3584, Note_off_c, 1, 39, 100
3, 3648, Note_on_c, 1, 60, 60
3, 3776, Note_off_c, 1, 60, 100
3, 3840, Note_on_c, 1, 56, 60
3, 3968, Note_off_c, 1, 56, 100
3, 4032, Note_on_c, 1, 58, 60
3, 4032, Note_on_c, 1, 58, 60
3, 4160, Note_off_c, 1, 58, 100
3, 4224, Note_on_c, 1, 60, 60
3, 4352, Note_off_c, 1, 60, 100
3, 4416, Note_off_c, 1, 58, 100
3, 4416, Note_on_c, 1, 62, 60
3, 4544, Note_off_c, 1, 62, 100
3, 4608, Note_on_c, 1, 63, 60
3, 4736, Note_off_c, 1, 63, 100
3, 5184, Note_on_c, 1, 55, 60
3, 5190, Note_on_c, 1, 58, 60
3, 5198, Note_on_c, 1, 63, 60
3, 5312, Note_off_c, 1, 55, 100
3, 5318, Note_off_c, 1, 58, 100
3, 5326, Note_off_c, 1, 63, 100
3, 5760, Note_on_c, 1, 56, 60
3, 5766, Note_on_c, 1, 60, 60
3, 5774, Note_on_c, 1, 65, 60
3, 5888, Note_off_c, 1, 56, 100
3, 5894, Note_off_c, 1, 60, 100
3, 5902, Note_off_c, 1, 65, 100
3, 6336, Note_on_c, 1, 58, 60
3, 6342, Note_on_c, 1, 62, 60
3, 6350, Note_on_c, 1, 65, 60
3, 6358, Note_on_c, 1, 68, 60
3, 6464, Note_off_c, 1, 58, 100
3, 6470, Note_off_c, 1, 62, 100
3, 6478, Note_off_c, 1, 65, 100
3, 6486, Note_off_c, 1, 68, 100
3, 6912, Note_on_c, 1, 63, 90
3, 6912, Note_on_c, 1, 51, 90
3, 7040, Note_off_c, 1, 63, 100
3, 7040, Note_off_c, 1, 51, 100
3, 7296, Note_on_c, 1, 58, 90
3, 7296, Note_on_c, 1, 46, 90
3, 7424, Note_off_c, 1, 58, 100
3, 7424, Note_off_c, 1, 46, 100
3, 7488, Note_on_c, 1, 51, 90
3, 7488, Note_on_c, 1, 39, 90
3, 7616, Note_off_c, 1, 51, 100
3, 7616, Note_off_c, 1, 39, 100
3, 7680, Note_on_c, 1, 55, 90
3, 7680, Note_on_c, 1, 43, 90
3, 7808, Note_off_c, 1, 55, 100
3, 7808, Note_off_c, 1, 43, 100
3, 7872, Note_on_c, 1, 58, 90
3, 7872, Note_on_c, 1, 46, 90
3, 8000, Note_off_c, 1, 58, 100
3, 8000, Note_off_c, 1, 46, 100
3, 8064, Note_on_c, 1, 51, 90
3, 8064, Note_on_c, 1, 39, 90
3, 8192, Note_off_c, 1, 51, 100
3, 8192, Note_off_c, 1, 39, 100
3, 8448, Note_on_c, 1, 55, 60
3, 8448, Note_on_c, 1, 51, 60
3, 8576, Note_off_c, 1, 55, 100
3, 8576, Note_off_c, 1, 51, 100
3, 8640, Note_on_c, 1, 55, 60
3, 8640, Note_on_c, 1, 51, 60
3, 8768, Note_off_c, 1, 55, 100
3, 8768, Note_off_c, 1, 51, 100
3, 13824, Note_on_c, 1, 51, 70
3, 13888, Note_off_c, 1, 51, 100
3, 13920, Note_on_c, 1, 55, 70
3, 13984, Note_off_c, 1, 55, 100
3, 14016, Note_on_c, 1, 60, 70
3, 14080, Note_off_c, 1, 60, 100
3, 14112, Note_on_c, 1, 55, 70
3, 14176, Note_off_c, 1, 55, 100
3, 14208, Note_on_c, 1, 51, 70
3, 14272, Note_off_c, 1, 51, 100
3, 14304, Note_on_c, 1, 55, 70
3, 14368, Note_off_c, 1, 55, 100
3, 14400, Note_on_c, 1, 60, 70
3, 14464, Note_off_c, 1, 60, 100
3, 14496, Note_on_c, 1, 55, 70
3, 14560, Note_off_c, 1, 55, 100
3, 14592, Note_on_c, 1, 51, 70
3, 14656, Note_off_c, 1, 51, 100
3, 14688, Note_on_c, 1, 55, 70
3, 14752, Note_off_c, 1, 55, 100
3, 14784, Note_on_c, 1, 60, 70
3, 14848, Note_off_c, 1, 60, 100
3, 14880, Note_on_c, 1, 51, 70
3, 14944, Note_off_c, 1, 51, 100
3, 14976, Note_on_c, 1, 62, 70
3, 14976, Note_on_c, 1, 53, 70
3, 15232, Note_off_c, 1, 62, 100
3, 15232, Note_off_c, 1, 53, 100
3, 15360, Note_on_c, 1, 60, 70
3, 15488, Note_off_c, 1, 60, 100
3, 15552, Note_on_c, 1, 51, 60
3, 15552, Note_on_c, 1, 39, 60
3, 15680, Note_off_c, 1, 51, 100
3, 15680, Note_off_c, 1, 39, 100
3, 15728, Note_on_c, 1, 50, 60
3, 15728, Note_on_c, 1, 38, 60
3, 15856, Note_off_c, 1, 50, 100
3, 15856, Note_off_c, 1, 38, 100
3, 15936, Note_on_c, 1, 48, 90
3, 15936, Note_on_c, 1, 36, 90
3, 16064, Note_off_c, 1, 48, 100
3, 16064, Note_off_c, 1, 36, 100
3, 16128, Note_on_c, 1, 46, 90
3, 16128, Note_on_c, 1, 34, 90
3, 16256, Note_off_c, 1, 46, 100
3, 16256, Note_off_c, 1, 34, 100
3, 16320, Note_on_c, 1, 62, 60
3, 16368, Note_off_c, 1, 62, 100
3, 16400, Note_on_c, 1, 56, 60
3, 16448, Note_off_c, 1, 56, 100
3, 16448, Note_on_c, 1, 60, 60
3, 16496, Note_off_c, 1, 60, 100
3, 16512, Note_on_c, 1, 62, 60
3, 16560, Note_off_c, 1, 62, 100
3, 16576, Note_on_c, 1, 58, 60
3, 16624, Note_off_c, 1, 58, 100
3, 16640, Note_on_c, 1, 60, 60
3, 16688, Note_off_c, 1, 60, 100
3, 16704, Note_on_c, 1, 62, 60
3, 16832, Note_off_c, 1, 62, 100
3, 16896, Note_on_c, 1, 63, 60
3, 17024, Note_off_c, 1, 63, 100
3, 17104, Note_on_c, 1, 60, 60
3, 17232, Note_off_c, 1, 60, 100
3, 17280, Note_on_c, 1, 53, 90
3, 17280, Note_on_c, 1, 41, 90
3, 17472, Note_off_c, 1, 53, 100
3, 17472, Note_off_c, 1, 41, 100
3, 17472, Note_on_c, 1, 60, 60
3, 17520, Note_off_c, 1, 60, 100
3, 17536, Note_on_c, 1, 57, 60
3, 17584, Note_off_c, 1, 57, 100
3, 17600, Note_on_c, 1, 58, 60
3, 17648, Note_off_c, 1, 58, 100
3, 17664, Note_on_c, 1, 60, 60
3, 17712, Note_off_c, 1, 60, 100
3, 17728, Note_on_c, 1, 57, 60
3, 17776, Note_off_c, 1, 57, 100
3, 17792, Note_on_c, 1, 58, 60
3, 17840, Note_off_c, 1, 58, 100
3, 17856, Note_on_c, 1, 60, 60
3, 17984, Note_off_c, 1, 60, 100
3, 18048, Note_on_c, 1, 62, 60
3, 18176, Note_off_c, 1, 62, 100
3, 18240, Note_on_c, 1, 58, 60
3, 18368, Note_off_c, 1, 58, 100
3, 18432, Note_on_c, 1, 50, 79
3, 18480, Note_off_c, 1, 50, 100
3, 18496, Note_on_c, 1, 53, 79
3, 18544, Note_off_c, 1, 53, 100
3, 18560, Note_on_c, 1, 58, 79
3, 18608, Note_off_c, 1, 58, 100
3, 18624, Note_on_c, 1, 50, 79
3, 18672, Note_off_c, 1, 50, 100
3, 18688, Note_on_c, 1, 53, 79
3, 18736, Note_off_c, 1, 53, 100
3, 18752, Note_on_c, 1, 58, 79
3, 18800, Note_off_c, 1, 58, 100
3, 18816, Note_on_c, 1, 50, 79
3, 18864, Note_off_c, 1, 50, 100
3, 18880, Note_on_c, 1, 53, 79
3, 18928, Note_off_c, 1, 53, 100
3, 18944, Note_on_c, 1, 58, 79
3, 18992, Note_off_c, 1, 58, 100
3, 19008, Note_on_c, 1, 51, 79
3, 19056, Note_off_c, 1, 51, 100
3, 19072, Note_on_c, 1, 55, 79
3, 19120, Note_off_c, 1, 55, 100
3, 19136, Note_on_c, 1, 58, 79
3, 19184, Note_off_c, 1, 58, 100
3, 19200, Note_on_c, 1, 51, 79
3, 19248, Note_off_c, 1, 51, 100
3, 19264, Note_on_c, 1, 55, 79
3, 19312, Note_off_c, 1, 55, 100
3, 19328, Note_on_c, 1, 58, 79
3, 19376, Note_off_c, 1, 58, 100
3, 19392, Note_on_c, 1, 51, 79
3, 19440, Note_off_c, 1, 51, 100
3, 19456, Note_on_c, 1, 55, 79
3, 19504, Note_off_c, 1, 55, 100
3, 19520, Note_on_c, 1, 58, 79
3, 19568, Note_off_c, 1, 58, 100
3, 19584, Note_on_c, 1, 53, 79
3, 19632, Note_off_c, 1, 53, 100
3, 19648, Note_on_c, 1, 58, 79
3, 19696, Note_off_c, 1, 58, 100
3, 19712, Note_on_c, 1, 62, 79
3, 19760, Note_off_c, 1, 62, 100
3, 19776, Note_on_c, 1, 53, 79
3, 19824, Note_off_c, 1, 53, 100
3, 19840, Note_on_c, 1, 58, 79
3, 19888, Note_off_c, 1, 58, 100
3, 19904, Note_on_c, 1, 62, 79
3, 19952, Note_off_c, 1, 62, 100
3, 19968, Note_on_c, 1, 53, 79
3, 20016, Note_off_c, 1, 53, 100
3, 20032, Note_on_c, 1, 60, 79
3, 20080, Note_off_c, 1, 60, 100
3, 20096, Note_on_c, 1, 63, 79
3, 20144, Note_off_c, 1, 63, 100
3, 20160, Note_on_c, 1, 55, 79
3, 20208, Note_off_c, 1, 55, 100
3, 20224, Note_on_c, 1, 58, 79
3, 20272, Note_off_c, 1, 58, 100
3, 20288, Note_on_c, 1, 62, 79
3, 20336, Note_off_c, 1, 62, 100
3, 20352, Note_on_c, 1, 53, 79
3, 20400, Note_off_c, 1, 53, 100
3, 20416, Note_on_c, 1, 58, 79
3, 20464, Note_off_c, 1, 58, 100
3, 20480, Note_on_c, 1, 62, 79
3, 20528, Note_off_c, 1, 62, 100
3, 20544, Note_on_c, 1, 51, 79
3, 20592, Note_off_c, 1, 51, 100
3, 20608, Note_on_c, 1, 55, 79
3, 20656, Note_off_c, 1, 55, 100
3, 20672, Note_on_c, 1, 60, 79
3, 20720, Note_off_c, 1, 60, 100
3, 20736, Note_on_c, 1, 50, 49
3, 20784, Note_off_c, 1, 50, 100
3, 20800, Note_on_c, 1, 53, 49
3, 20848, Note_off_c, 1, 53, 100
3, 20864, Note_on_c, 1, 58, 49
3, 20912, Note_off_c, 1, 58, 100
3, 20928, Note_on_c, 1, 50, 49
3, 20976, Note_off_c, 1, 50, 100
3, 20992, Note_on_c, 1, 53, 49
3, 21040, Note_off_c, 1, 53, 100
3, 21056, Note_on_c, 1, 58, 49
3, 21104, Note_off_c, 1, 58, 100
3, 21120, Note_on_c, 1, 50, 49
3, 21168, Note_off_c, 1, 50, 100
3, 21184, Note_on_c, 1, 53, 49
3, 21232, Note_off_c, 1, 53, 100
3, 21248, Note_on_c, 1, 58, 49
3, 21296, Note_off_c, 1, 58, 100
3, 21312, Note_on_c, 1, 51, 49
3, 21360, Note_off_c, 1, 51, 100
3, 21376, Note_on_c, 1, 55, 49
3, 21424, Note_off_c, 1, 55, 100
3, 21440, Note_on_c, 1, 58, 49
3, 21488, Note_off_c, 1, 58, 100
3, 21504, Note_on_c, 1, 51, 49
3, 21552, Note_off_c, 1, 51, 100
3, 21568, Note_on_c, 1, 55, 49
3, 21616, Note_off_c, 1, 55, 100
3, 21632, Note_on_c, 1, 58, 49
3, 21680, Note_off_c, 1, 58, 100
3, 21696, Note_on_c, 1, 51, 49
3, 21744, Note_off_c, 1, 51, 100
3, 21760, Note_on_c, 1, 55, 49
3, 21808, Note_off_c, 1, 55, 100
3, 21824, Note_on_c, 1, 60, 49
3, 21872, Note_off_c, 1, 60, 100
3, 21888, Note_on_c, 1, 53, 49
3, 21936, Note_off_c, 1, 53, 100
3, 21952, Note_on_c, 1, 58, 49
3, 22000, Note_off_c, 1, 58, 100
3, 22016, Note_on_c, 1, 62, 49
3, 22064, Note_off_c, 1, 62, 100
3, 22080, Note_on_c, 1, 53, 49
3, 22128, Note_off_c, 1, 53, 100
3, 22144, Note_on_c, 1, 58, 49
3, 22192, Note_off_c, 1, 58, 100
3, 22208, Note_on_c, 1, 62, 49
3, 22256, Note_off_c, 1, 62, 100
3, 22272, Note_on_c, 1, 53, 49
3, 22320, Note_off_c, 1, 53, 100
3, 22336, Note_on_c, 1, 60, 49
3, 22384, Note_off_c, 1, 60, 100
3, 22400, Note_on_c, 1, 63, 49
3, 22448, Note_off_c, 1, 63, 100
3, 22464, Note_on_c, 1, 53, 90
3, 22512, Note_off_c, 1, 53, 100
3, 22528, Note_on_c, 1, 59, 90
3, 22576, Note_off_c, 1, 59, 100
3, 22592, Note_on_c, 1, 62, 90
3, 22640, Note_off_c, 1, 62, 100
3, 22656, Note_on_c, 1, 50, 90
3, 22704, Note_off_c, 1, 50, 100
3, 22720, Note_on_c, 1, 55, 90
3, 22768, Note_off_c, 1, 55, 100
3, 22784, Note_on_c, 1, 60, 90
3, 22832, Note_off_c, 1, 60, 100
3, 22848, Note_on_c, 1, 52, 90
3, 22896, Note_off_c, 1, 52, 100
3, 22912, Note_on_c, 1, 55, 90
3, 22960, Note_off_c, 1, 55, 100
3, 22976, Note_on_c, 1, 61, 90
3, 23024, Note_off_c, 1, 61, 100
3, 23040, Note_on_c, 1, 53, 49
3, 23088, Note_off_c, 1, 53, 100
3, 23104, Note_on_c, 1, 58, 49
3, 23152, Note_off_c, 1, 58, 100
3, 23168, Note_on_c, 1, 62, 49
3, 23216, Note_off_c, 1, 62, 100
3, 23232, Note_on_c, 1, 53, 49
3, 23280, Note_off_c, 1, 53, 100
3, 23296, Note_on_c, 1, 58, 49
3, 23344, Note_off_c, 1, 58, 100
3, 23360, Note_on_c, 1, 62, 49
3, 23408, Note_off_c, 1, 62, 100
3, 23424, Note_on_c, 1, 53, 49
3, 23472, Note_off_c, 1, 53, 100
3, 23488, Note_on_c, 1, 57, 49
3, 23536, Note_off_c, 1, 57, 100
3, 23552, Note_on_c, 1, 60, 49
3, 23600, Note_off_c, 1, 60, 100
3, 23616, Note_on_c, 1, 53, 90
3, 23664, Note_off_c, 1, 53, 100
3, 23680, Note_on_c, 1, 59, 90
3, 23728, Note_off_c, 1, 59, 100
3, 23744, Note_on_c, 1, 62, 90
3, 23792, Note_off_c, 1, 62, 100
3, 23808, Note_on_c, 1, 51, 90
3, 23856, Note_off_c, 1, 51, 100
3, 23872, Note_on_c, 1, 55, 90
3, 23920, Note_off_c, 1, 55, 100
3, 23936, Note_on_c, 1, 60, 90
3, 23984, Note_off_c, 1, 60, 100
3, 24000, Note_on_c, 1, 52, 90
3, 24048, Note_off_c, 1, 52, 100
3, 24064, Note_on_c, 1, 55, 90
3, 24112, Note_off_c, 1, 55, 100
3, 24128, Note_on_c, 1, 62, 90
3, 24176, Note_off_c, 1, 62, 100
3, 24192, Note_on_c, 1, 53, 49
3, 24240, Note_off_c, 1, 53, 100
3, 24256, Note_on_c, 1, 58, 49
3, 24304, Note_off_c, 1, 58, 100
3, 24320, Note_on_c, 1, 62, 49
3, 24368, Note_off_c, 1, 62, 100
3, 24384, Note_on_c, 1, 53, 49
3, 24432, Note_off_c, 1, 53, 100
3, 24448, Note_on_c, 1, 58, 49
3, 24496, Note_off_c, 1, 58, 100
3, 24512, Note_on_c, 1, 62, 49
3, 24560, Note_off_c, 1, 62, 100
3, 24576, Note_on_c, 1, 53, 49
3, 24624, Note_off_c, 1, 53, 100
3, 24640, Note_on_c, 1, 57, 49
3, 24688, Note_off_c, 1, 57, 100
3, 24704, Note_on_c, 1, 63, 49
3, 24752, Note_off_c, 1, 63, 100
3, 24768, Note_on_c, 1, 58, 90
3, 24768, Note_on_c, 1, 62, 90
3, 24896, Note_off_c, 1, 58, 100
3, 24896, Note_off_c, 1, 62, 100
3, 25152, Note_on_c, 1, 53, 90
3, 25152, Note_on_c, 1, 41, 90
3, 25280, Note_off_c, 1, 53, 100
3, 25280, Note_off_c, 1, 41, 100
3, 25344, Note_on_c, 1, 58, 90
3, 25344, Note_on_c, 1, 46, 90
3, 25472, Note_off_c, 1, 58, 100
3, 25472, Note_off_c, 1, 46, 100
3, 25536, Note_on_c, 1, 50, 90
3, 25536, Note_on_c, 1, 38, 90
3, 25664, Note_off_c, 1, 50, 100
3, 25664, Note_off_c, 1, 38, 100
3, 25728, Note_on_c, 1, 53, 90
3, 25728, Note_on_c, 1, 41, 90
3, 25856, Note_off_c, 1, 53, 100
3, 25856, Note_off_c, 1, 41, 100
3, 25920, Note_on_c, 1, 46, 60
3, 25920, Note_on_c, 1, 34, 60
3, 26048, Note_off_c, 1, 46, 100
3, 26048, Note_off_c, 1, 34, 100
3, 26304, Note_on_c, 1, 50, 60
3, 26304, Note_on_c, 1, 46, 60
3, 26432, Note_off_c, 1, 50, 100
3, 26432, Note_off_c, 1, 46, 100
3, 26496, Note_on_c, 1, 50, 60
3, 26496, Note_on_c, 1, 46, 60
3, 26624, Note_off_c, 1, 50, 100
3, 26624, Note_off_c, 1, 46, 100
3, 27072, Note_on_c, 1, 51, 90
3, 27072, Note_on_c, 1, 39, 90
3, 27200, Note_off_c, 1, 51, 100
3, 27200, Note_off_c, 1, 39, 100
3, 28608, Note_on_c, 1, 63, 60
3, 28608, Note_on_c, 1, 51, 60
3, 28736, Note_off_c, 1, 63, 100
3, 28736, Note_off_c, 1, 51, 100
3, 28800, Note_on_c, 1, 62, 90
3, 28800, Note_on_c, 1, 50, 90
3, 28928, Note_off_c, 1, 62, 100
3, 28928, Note_off_c, 1, 50, 100
3, 28992, Note_on_c, 1, 60, 90
3, 28992, Note_on_c, 1, 48, 90
3, 29120, Note_off_c, 1, 60, 100
3, 29120, Note_off_c, 1, 48, 100
3, 29184, Note_on_c, 1, 58, 90
3, 29184, Note_on_c, 1, 46, 90
3, 29312, Note_off_c, 1, 58, 100
3, 29312, Note_off_c, 1, 46, 100
3, 29376, Note_on_c, 1, 56, 90
3, 29376, Note_on_c, 1, 44, 90
3, 29504, Note_off_c, 1, 56, 100
3, 29504, Note_off_c, 1, 44, 100
3, 29568, Note_on_c, 1, 55, 90
3, 29568, Note_on_c, 1, 43, 90
3, 29696, Note_off_c, 1, 55, 100
3, 29696, Note_off_c, 1, 43, 100
3, 29760, Note_on_c, 1, 53, 90
3, 29760, Note_on_c, 1, 41, 90
3, 29888, Note_off_c, 1, 53, 100
3, 29888, Note_off_c, 1, 41, 100
3, 29952, Note_on_c, 1, 51, 60
3, 29952, Note_on_c, 1, 39, 60
3, 30080, Note_off_c, 1, 51, 100
3, 30080, Note_off_c, 1, 39, 100
3, 30144, Note_on_c, 1, 60, 60
3, 30272, Note_off_c, 1, 60, 100
3, 30336, Note_on_c, 1, 56, 60
3, 30464, Note_off_c, 1, 56, 100
3, 30528, Note_on_c, 1, 58, 60
3, 30528, Note_on_c, 1, 58, 60
3, 30656, Note_off_c, 1, 58, 100
3, 30720, Note_on_c, 1, 60, 60
3, 30848, Note_off_c, 1, 60, 100
3, 30912, Note_off_c, 1, 58, 100
3, 30912, Note_on_c, 1, 62, 60
3, 31040, Note_off_c, 1, 62, 100
3, 31104, Note_on_c, 1, 63, 60
3, 31232, Note_off_c, 1, 63, 100
3, 31680, Note_on_c, 1, 55, 60
3, 31686, Note_on_c, 1, 58, 60
3, 31694, Note_on_c, 1, 63, 60
3, 31808, Note_off_c, 1, 55, 100
3, 31814, Note_off_c, 1, 58, 100
3, 31822, Note_off_c, 1, 63, 100
3, 32256, Note_on_c, 1, 56, 60
3, 32262, Note_on_c, 1, 60, 60
3, 32270, Note_on_c, 1, 65, 60
3, 32384, Note_off_c, 1, 56, 100
3, 32390, Note_off_c, 1, 60, 100
3, 32398, Note_off_c, 1, 65, 100
3, 32832, Note_on_c, 1, 58, 60
3, 32838, Note_on_c, 1, 62, 60
3, 32846, Note_on_c, 1, 65, 60
3, 32854, Note_on_c, 1, 68, 60
3, 32960, Note_off_c, 1, 58, 100
3, 32966, Note_off_c, 1, 62, 100
3, 32974, Note_off_c, 1, 65, 100
3, 32982, Note_off_c, 1, 68, 100
3, 33408, Note_on_c, 1, 63, 90
3, 33408, Note_on_c, 1, 51, 90
3, 33536, Note_off_c, 1, 63, 100
3, 33536, Note_off_c, 1, 51, 100
3, 33792, Note_on_c, 1, 58, 90
3, 33792, Note_on_c, 1, 46, 90
3, 33920, Note_off_c, 1, 58, 100
3, 33920, Note_off_c, 1, 46, 100
3, 33984, Note_on_c, 1, 51, 90
3, 33984, Note_on_c, 1, 39, 90
3, 34112, Note_off_c, 1, 51, 100
3, 34112, Note_off_c, 1, 39, 100
3, 34176, Note_on_c, 1, 55, 90
3, 34176, Note_on_c, 1, 43, 90
3, 34304, Note_off_c, 1, 55, 100
3, 34304, Note_off_c, 1, 43, 100
3, 34368, Note_on_c, 1, 58, 90
3, 34368, Note_on_c, 1, 46, 90
3, 34496, Note_off_c, 1, 58, 100
3, 34496, Note_off_c, 1, 46, 100
3, 34560, Note_on_c, 1, 51, 90
3, 34560, Note_on_c, 1, 39, 90
3, 34688, Note_off_c, 1, 51, 100
3, 34688, Note_off_c, 1, 39, 100
3, 34944, Note_on_c, 1, 55, 60
3, 34944, Note_on_c, 1, 51, 60
3, 35072, Note_off_c, 1, 55, 100
3, 35072, Note_off_c, 1, 51, 100
3, 35136, Note_on_c, 1, 55, 60
3, 35136, Note_on_c, 1, 51, 60
3, 35264, Note_off_c, 1, 55, 100
3, 35264, Note_off_c, 1, 51, 100
3, 40320, Note_on_c, 1, 51, 70
3, 40384, Note_off_c, 1, 51, 100
3, 40416, Note_on_c, 1, 55, 70
3, 40480, Note_off_c, 1, 55, 100
3, 40512, Note_on_c, 1, 60, 70
3, 40576, Note_off_c, 1, 60, 100
3, 40608, Note_on_c, 1, 55, 70
3, 40672, Note_off_c, 1, 55, 100
3, 40704, Note_on_c, 1, 51, 70
3, 40768, Note_off_c, 1, 51, 100
3, 40800, Note_on_c, 1, 55, 70
3, 40864, Note_off_c, 1, 55, 100
3, 40896, Note_on_c, 1, 60, 70
3, 40960, Note_off_c, 1, 60, 100
3, 40992, Note_on_c, 1, 55, 70
3, 41056, Note_off_c, 1, 55, 100
3, 41088, Note_on_c, 1, 51, 70
3, 41152, Note_off_c, 1, 51, 100
3, 41184, Note_on_c, 1, 55, 70
3, 41248, Note_off_c, 1, 55, 100
3, 41280, Note_on_c, 1, 60, 70
3, 41344, Note_off_c, 1, 60, 100
3, 41376, Note_on_c, 1, 51, 70
3, 41440, Note_off_c, 1, 51, 100
3, 41472, Note_on_c, 1, 62, 70
3, 41472, Note_on_c, 1, 53, 70
3, 41728, Note_off_c, 1, 62, 100
3, 41728, Note_off_c, 1, 53, 100
3, 41856, Note_on_c, 1, 60, 70
3, 41984, Note_off_c, 1, 60, 100
3, 42048, Note_on_c, 1, 51, 60
3, 42048, Note_on_c, 1, 39, 60
3, 42176, Note_off_c, 1, 51, 100
3, 42176, Note_off_c, 1, 39, 100
3, 42224, Note_on_c, 1, 50, 60
3, 42224, Note_on_c, 1, 38, 60
3, 42352, Note_off_c, 1, 50, 100
3, 42352, Note_off_c, 1, 38, 100
3, 42432, Note_on_c, 1, 48, 90
3, 42432, Note_on_c, 1, 36, 90
3, 42560, Note_off_c, 1, 48, 100
3, 42560, Note_off_c, 1, 36, 100
3, 42624, Note_on_c, 1, 46, 90
3, 42624, Note_on_c, 1, 34, 90
3, 42752, Note_off_c, 1, 46, 100
3, 42752, Note_off_c, 1, 34, 100
3, 42816, Note_on_c, 1, 62, 60
3, 42864, Note_off_c, 1, 62, 100
3, 42896, Note_on_c, 1, 56, 60
3, 42944, Note_off_c, 1, 56, 100
3, 42944, Note_on_c, 1, 60, 60
3, 42992, Note_off_c, 1, 60, 100
3, 43008, Note_on_c, 1, 62, 60
3, 43056, Note_off_c, 1, 62, 100
3, 43072, Note_on_c, 1, 58, 60
3, 43120, Note_off_c, 1, 58, 100
3, 43136, Note_on_c, 1, 60, 60
3, 43184, Note_off_c, 1, 60, 100
3, 43200, Note_on_c, 1, 62, 60
3, 43328, Note_off_c, 1, 62, 100
3, 43392, Note_on_c, 1, 63, 60
3, 43520, Note_off_c, 1, 63, 100
3, 43600, Note_on_c, 1, 60, 60
3, 43728, Note_off_c, 1, 60, 100
3, 43776, Note_on_c, 1, 53, 90
3, 43776, Note_on_c, 1, 41, 90
3, 43968, Note_off_c, 1, 53, 100
3, 43968, Note_off_c, 1, 41, 100
3, 43968, Note_on_c, 1, 60, 60
3, 44016, Note_off_c, 1, 60, 100
3, 44032, Note_on_c, 1, 57, 60
3, 44080, Note_off_c, 1, 57, 100
3, 44096, Note_on_c, 1, 58, 60
3, 44144, Note_off_c, 1, 58, 100
3, 44160, Note_on_c, 1, 60, 60
3, 44208, Note_off_c, 1, 60, 100
3, 44224, Note_on_c, 1, 57, 60
3, 44272, Note_off_c, 1, 57, 100
3, 44288, Note_on_c, 1, 58, 60
3, 44336, Note_off_c, 1, 58, 100
3, 44352, Note_on_c, 1, 60, 60
3, 44480, Note_off_c, 1, 60, 100
3, 44544, Note_on_c, 1, 62, 60
3, 44672, Note_off_c, 1, 62, 100
3, 44736, Note_on_c, 1, 58, 60
3, 44864, Note_off_c, 1, 58, 100
3, 44928, Note_on_c, 1, 50, 79
3, 44976, Note_off_c, 1, 50, 100
3, 44992, Note_on_c, 1, 53, 79
3, 45040, Note_off_c, 1, 53, 100
3, 45056, Note_on_c, 1, 58, 79
3, 45104, Note_off_c, 1, 58, 100
3, 45120, Note_on_c, 1, 50, 79
3, 45168, Note_off_c, 1, 50, 100
3, 45184, Note_on_c, 1, 53, 79
3, 45232, Note_off_c, 1, 53, 100
3, 45248, Note_on_c, 1, 58, 79
3, 45296, Note_off_c, 1, 58, 100
3, 45312, Note_on_c, 1, 50, 79
3, 45360, Note_off_c, 1, 50, 100
3, 45376, Note_on_c, 1, 53, 79
3, 45424, Note_off_c, 1, 53, 100
3, 45440, Note_on_c, 1, 58, 79
3, 45488, Note_off_c, 1, 58, 100
3, 45504, Note_on_c, 1, 51, 79
3, 45552, Note_off_c, 1, 51, 100
3, 45568, Note_on_c, 1, 55, 79
3, 45616, Note_off_c, 1, 55, 100
3, 45632, Note_on_c, 1, 58, 79
3, 45680, Note_off_c, 1, 58, 100
3, 45696, Note_on_c, 1, 51, 79
3, 45744, Note_off_c, 1, 51, 100
3, 45760, Note_on_c, 1, 55, 79
3, 45808, Note_off_c, 1, 55, 100
3, 45824, Note_on_c, 1, 58, 79
3, 45872, Note_off_c, 1, 58, 100
3, 45888, Note_on_c, 1, 51, 79
3, 45936, Note_off_c, 1, 51, 100
3, 45952, Note_on_c, 1, 55, 79
3, 46000, Note_off_c, 1, 55, 100
3, 46016, Note_on_c, 1, 58, 79
3, 46064, Note_off_c, 1, 58, 100
3, 46080, Note_on_c, 1, 53, 79
3, 46128, Note_off_c, 1, 53, 100
3, 46144, Note_on_c, 1, 58, 79
3, 46192, Note_off_c, 1, 58, 100
3, 46208, Note_on_c, 1, 62, 79
3, 46256, Note_off_c, 1, 62, 100
3, 46272, Note_on_c, 1, 53, 79
3, 46320, Note_off_c, 1, 53, 100
3, 46336, Note_on_c, 1, 58, 79
3, 46384, Note_off_c, 1, 58, 100
3, 46400, Note_on_c, 1, 62, 79
3, 46448, Note_off_c, 1, 62, 100
3, 46464, Note_on_c, 1, 53, 79
3, 46512, Note_off_c, 1, 53, 100
3, 46528, Note_on_c, 1, 60, 79
3, 46576, Note_off_c, 1, 60, 100
3, 46592, Note_on_c, 1, 63, 79
3, 46640, Note_off_c, 1, 63, 100
3, 46656, Note_on_c, 1, 55, 79
3, 46704, Note_off_c, 1, 55, 100
3, 46720, Note_on_c, 1, 58, 79
3, 46768, Note_off_c, 1, 58, 100
3, 46784, Note_on_c, 1, 62, 79
3, 46832, Note_off_c, 1, 62, 100
3, 46848, Note_on_c, 1, 53, 79
3, 46896, Note_off_c, 1, 53, 100
3, 46912, Note_on_c, 1, 58, 79
3, 46960, Note_off_c, 1, 58, 100
3, 46976, Note_on_c, 1, 62, 79
3, 47024, Note_off_c, 1, 62, 100
3, 47040, Note_on_c, 1, 51, 79
3, 47088, Note_off_c, 1, 51, 100
3, 47104, Note_on_c, 1, 55, 79
3, 47152, Note_off_c, 1, 55, 100
3, 47168, Note_on_c, 1, 60, 79
3, 47216, Note_off_c, 1, 60, 100
3, 47232, Note_on_c, 1, 50, 49
3, 47280, Note_off_c, 1, 50, 100
3, 47296, Note_on_c, 1, 53, 49
3, 47344, Note_off_c, 1, 53, 100
3, 47360, Note_on_c, 1, 58, 49
3, 47408, Note_off_c, 1, 58, 100
3, 47424, Note_on_c, 1, 50, 49
3, 47472, Note_off_c, 1, 50, 100
3, 47488, Note_on_c, 1, 53, 49
3, 47536, Note_off_c, 1, 53, 100
3, 47552, Note_on_c, 1, 58, 49
3, 47600, Note_off_c, 1, 58, 100
3, 47616, Note_on_c, 1, 50, 49
3, 47664, Note_off_c, 1, 50, 100
3, 47680, Note_on_c, 1, 53, 49
3, 47728, Note_off_c, 1, 53, 100
3, 47744, Note_on_c, 1, 58, 49
3, 47792, Note_off_c, 1, 58, 100
3, 47808, Note_on_c, 1, 51, 49
3, 47856, Note_off_c, 1, 51, 100
3, 47872, Note_on_c, 1, 55, 49
3, 47920, Note_off_c, 1, 55, 100
3, 47936, Note_on_c, 1, 58, 49
3, 47984, Note_off_c, 1, 58, 100
3, 48000, Note_on_c, 1, 51, 49
3, 48048, Note_off_c, 1, 51, 100
3, 48064, Note_on_c, 1, 55, 49
3, 48112, Note_off_c, 1, 55, 100
3, 48128, Note_on_c, 1, 58, 49
3, 48176, Note_off_c, 1, 58, 100
3, 48192, Note_on_c, 1, 51, 49
3, 48240, Note_off_c, 1, 51, 100
3, 48256, Note_on_c, 1, 55, 49
3, 48304, Note_off_c, 1, 55, 100
3, 48320, Note_on_c, 1, 60, 49
3, 48368, Note_off_c, 1, 60, 100
3, 48384, Note_on_c, 1, 53, 49
3, 48432, Note_off_c, 1, 53, 100
3, 48448, Note_on_c, 1, 58, 49
3, 48496, Note_off_c, 1, 58, 100
3, 48512, Note_on_c, 1, 62, 49
3, 48560, Note_off_c, 1, 62, 100
3, 48576, Note_on_c, 1, 53, 49
3, 48624, Note_off_c, 1, 53, 100
3, 48640, Note_on_c, 1, 58, 49
3, 48688, Note_off_c, 1, 58, 100
3, 48704, Note_on_c, 1, 62, 49
3, 48752, Note_off_c, 1, 62, 100
3, 48768, Note_on_c, 1, 53, 49
3, 48816, Note_off_c, 1, 53, 100
3, 48832, Note_on_c, 1, 60, 49
3, 48880, Note_off_c, 1, 60, 100
3, 48896, Note_on_c, 1, 63, 49
3, 48944, Note_off_c, 1, 63, 100
3, 48960, Note_on_c, 1, 53, 90
3, 49008, Note_off_c, 1, 53, 100
3, 49024, Note_on_c, 1, 59, 90
3, 49072, Note_off_c, 1, 59, 100
3, 49088, Note_on_c, 1, 62, 90
3, 49136, Note_off_c, 1, 62, 100
3, 49152, Note_on_c, 1, 50, 90
3, 49200, Note_off_c, 1, 50, 100
3, 49216, Note_on_c, 1, 55, 90
3, 49264, Note_off_c, 1, 55, 100
3, 49280, Note_on_c, 1, 60, 90
3, 49328, Note_off_c, 1, 60, 100
3, 49344, Note_on_c, 1, 52, 90
3, 49392, Note_off_c, 1, 52, 100
3, 49408, Note_on_c, 1, 55, 90
3, 49456, Note_off_c, 1, 55, 100
3, 49472, Note_on_c, 1, 61, 90
3, 49520, Note_off_c, 1, 61, 100
3, 49536, Note_on_c, 1, 53, 49
3, 49584, Note_off_c, 1, 53, 100
3, 49600, Note_on_c, 1, 58, 49
3, 49648, Note_off_c, 1, 58, 100
3, 49664, Note_on_c, 1, 62, 49
3, 49712, Note_off_c, 1, 62, 100
3, 49728, Note_on_c, 1, 53, 49
3, 49776, Note_off_c, 1, 53, 100
3, 49792, Note_on_c, 1, 58, 49
3, 49840, Note_off_c, 1, 58, 100
3, 49856, Note_on_c, 1, 62, 49
3, 49904, Note_off_c, 1, 62, 100
3, 49920, Note_on_c, 1, 53, 49
3, 49968, Note_off_c, 1, 53, 100
3, 49984, Note_on_c, 1, 57, 49
3, 50032, Note_off_c, 1, 57, 100
3, 50048, Note_on_c, 1, 60, 49
3, 50096, Note_off_c, 1, 60, 100
3, 50112, Note_on_c, 1, 53, 90
3, 50160, Note_off_c, 1, 53, 100
3, 50176, Note_on_c, 1, 59, 90
3, 50224, Note_off_c, 1, 59, 100
3, 50240, Note_on_c, 1, 62, 90
3, 50288, Note_off_c, 1, 62, 100
3, 50304, Note_on_c, 1, 51, 90
3, 50352, Note_off_c, 1, 51, 100
3, 50368, Note_on_c, 1, 55, 90
3, 50416, Note_off_c, 1, 55, 100
3, 50432, Note_on_c, 1, 60, 90
3, 50480, Note_off_c, 1, 60, 100
3, 50496, Note_on_c, 1, 52, 90
3, 50544, Note_off_c, 1, 52, 100
3, 50560, Note_on_c, 1, 55, 90
3, 50608, Note_off_c, 1, 55, 100
3, 50624, Note_on_c, 1, 62, 90
3, 50672, Note_off_c, 1, 62, 100
3, 50688, Note_on_c, 1, 53, 49
3, 50736, Note_off_c, 1, 53, 100
3, 50752, Note_on_c, 1, 58, 49
3, 50800, Note_off_c, 1, 58, 100
3, 50816, Note_on_c, 1, 62, 49
3, 50864, Note_off_c, 1, 62, 100
3, 50880, Note_on_c, 1, 53, 49
3, 50928, Note_off_c, 1, 53, 100
3, 50944, Note_on_c, 1, 58, 49
3, 50992, Note_off_c, 1, 58, 100
3, 51008, Note_on_c, 1, 62, 49
3, 51056, Note_off_c, 1, 62, 100
3, 51072, Note_on_c, 1, 53, 49
3, 51120, Note_off_c, 1, 53, 100
3, 51136, Note_on_c, 1, 57, 49
3, 51184, Note_off_c, 1, 57, 100
3, 51200, Note_on_c, 1, 63, 49
3, 51248, Note_off_c, 1, 63, 100
3, 51264, Note_on_c, 1, 58, 90
3, 51264, Note_on_c, 1, 62, 90
3, 51392, Note_off_c, 1, 58, 100
3, 51392, Note_off_c, 1, 62, 100
3, 51648, Note_on_c, 1, 53, 90
3, 51648, Note_on_c, 1, 41, 90
3, 51776, Note_off_c, 1, 53, 100
3, 51776, Note_off_c, 1, 41, 100
3, 51840, Note_on_c, 1, 58, 90
3, 51840, Note_on_c, 1, 46, 90
3, 51968, Note_off_c, 1, 58, 100
3, 51968, Note_off_c, 1, 46, 100
3, 52032, Note_on_c, 1, 50, 90
3, 52032, Note_on_c, 1, 38, 90
3, 52160, Note_off_c, 1, 50, 100
3, 52160, Note_off_c, 1, 38, 100
3, 52224, Note_on_c, 1, 53, 90
3, 52224, Note_on_c, 1, 41, 90
3, 52352, Note_off_c, 1, 53, 100
3, 52352, Note_off_c, 1, 41, 100
3, 52416, Note_on_c, 1, 46, 60
3, 52416, Note_on_c, 1, 34, 60
3, 52544, Note_off_c, 1, 46, 100
3, 52544, Note_off_c, 1, 34, 100
3, 52800, Note_on_c, 1, 50, 60
3, 52800, Note_on_c, 1, 46, 60
3, 52928, Note_off_c, 1, 50, 100
3, 52928, Note_off_c, 1, 46, 100
3, 52992, Note_on_c, 1, 50, 60
3, 52992, Note_on_c, 1, 46, 60
3, 53120, Note_off_c, 1, 50, 100
3, 53120, Note_off_c, 1, 46, 100
3, 53568, Note_on_c, 1, 58, 90
3, 53568, Note_on_c, 1, 46, 90
3, 53696, Note_off_c, 1, 58, 100
3, 53696, Note_off_c, 1, 46, 100
3, 59712, Note_on_c, 1, 46, 60
3, 59712, Note_on_c, 1, 53, 60
3, 59840, Note_off_c, 1, 46, 100
3, 59840, Note_off_c, 1, 53, 100
3, 59904, Note_on_c, 1, 53, 60
3, 59904, Note_on_c, 1, 46, 60
3, 60032, Note_off_c, 1, 53, 100
3, 60032, Note_off_c, 1, 46, 100
3, 60480, Note_on_c, 1, 51, 90
3, 60480, Note_on_c, 1, 39, 90
3, 60608, Note_off_c, 1, 51, 100
3, 60608, Note_off_c, 1, 39, 100
3, 62016, Note_on_c, 1, 63, 85
3, 62064, Note_off_c, 1, 63, 100
3, 62080, Note_on_c, 1, 65, 87
3, 62128, Note_off_c, 1, 65, 100
3, 62144, Note_on_c, 1, 63, 88
3, 62192, Note_off_c, 1, 63, 100
3, 62208, Note_on_c, 1, 62, 60
3, 62256, Note_off_c, 1, 62, 100
3, 62272, Note_on_c, 1, 63, 60
3, 62320, Note_off_c, 1, 63, 100
3, 62336, Note_on_c, 1, 62, 60
3, 62384, Note_off_c, 1, 62, 100
3, 62400, Note_on_c, 1, 60, 90
3, 62448, Note_off_c, 1, 60, 100
3, 62464, Note_on_c, 1, 62, 90
3, 62512, Note_off_c, 1, 62, 100
3, 62528, Note_on_c, 1, 60, 90
3, 62576, Note_off_c, 1, 60, 100
3, 62592, Note_on_c, 1, 58, 90
3, 62640, Note_off_c, 1, 58, 100
3, 62656, Note_on_c, 1, 60, 90
3, 62704, Note_off_c, 1, 60, 100
3, 62720, Note_on_c, 1, 58, 90
3, 62768, Note_off_c, 1, 58, 100
3, 62784, Note_on_c, 1, 56, 87
3, 62832, Note_off_c, 1, 56, 100
3, 62848, Note_on_c, 1, 58, 84
3, 62896, Note_off_c, 1, 58, 100
3, 62912, Note_on_c, 1, 56, 81
3, 62960, Note_off_c, 1, 56, 100
3, 62976, Note_on_c, 1, 55, 78
3, 63024, Note_off_c, 1, 55, 100
3, 63040, Note_on_c, 1, 56, 75
3, 63088, Note_off_c, 1, 56, 100
3, 63104, Note_on_c, 1, 55, 72
3, 63152, Note_off_c, 1, 55, 100
3, 63168, Note_on_c, 1, 53, 69
3, 63216, Note_off_c, 1, 53, 100
3, 63232, Note_on_c, 1, 55, 66
3, 63280, Note_off_c, 1, 55, 100
3, 63296, Note_on_c, 1, 53, 63
3, 63344, Note_off_c, 1, 53, 100
3, 63360, Note_on_c, 1, 51, 60
3, 63488, Note_off_c, 1, 51, 100
3, 63552, Note_on_c, 1, 60, 60
3, 63680, Note_off_c, 1, 60, 100
3, 63744, Note_on_c, 1, 56, 60
3, 63872, Note_off_c, 1, 56, 100
3, 63936, Note_on_c, 1, 58, 60
3, 63984, Note_off_c, 1, 58, 100
3, 64000, Note_on_c, 1, 60, 60
3, 64048, Note_off_c, 1, 60, 100
3, 64064, Note_on_c, 1, 58, 60
3, 64112, Note_off_c, 1, 58, 100
3, 64128, Note_on_c, 1, 60, 60
3, 64176, Note_off_c, 1, 60, 100
3, 64192, Note_on_c, 1, 62, 60
3, 64240, Note_off_c, 1, 62, 100
3, 64256, Note_on_c, 1, 60, 60
3, 64304, Note_off_c, 1, 60, 100
3, 64320, Note_on_c, 1, 62, 60
3, 64336, Note_on_c, 1, 62, 60
3, 64368, Note_off_c, 1, 62, 100
3, 64384, Note_off_c, 1, 62, 100
3, 64384, Note_on_c, 1, 63, 60
3, 64432, Note_off_c, 1, 63, 100
3, 64448, Note_on_c, 1, 62, 60
3, 64496, Note_off_c, 1, 62, 100
3, 64512, Note_on_c, 1, 63, 60
3, 64640, Note_off_c, 1, 63, 100
3, 65088, Note_on_c, 1, 55, 60
3, 65094, Note_on_c, 1, 58, 60
3, 65102, Note_on_c, 1, 63, 60
3, 65216, Note_off_c, 1, 55, 100
3, 65222, Note_off_c, 1, 58, 100
3, 65230, Note_off_c, 1, 63, 100
3, 65664, Note_on_c, 1, 56, 60
3, 65670, Note_on_c, 1, 60, 60
3, 65678, Note_on_c, 1, 65, 60
3, 65792, Note_off_c, 1, 56, 100
3, 65798, Note_off_c, 1, 60, 100
3, 65806, Note_off_c, 1, 65, 100
3, 66240, Note_on_c, 1, 58, 60
3, 66246, Note_on_c, 1, 65, 60
3, 66254, Note_on_c, 1, 62, 60
3, 66262, Note_on_c, 1, 68, 60
3, 66368, Note_off_c, 1, 58, 100
3, 66374, Note_off_c, 1, 65, 100
3, 66382, Note_off_c, 1, 62, 100
3, 66390, Note_off_c, 1, 68, 100
3, 66816, Note_on_c, 1, 63, 88
3, 66816, Note_on_c, 1, 51, 88
3, 66944, Note_off_c, 1, 63, 100
3, 66944, Note_off_c, 1, 51, 100
3, 67200, Note_on_c, 1, 58, 81
3, 67200, Note_on_c, 1, 46, 81
3, 67328, Note_off_c, 1, 58, 100
3, 67328, Note_off_c, 1, 46, 100
3, 67392, Note_on_c, 1, 51, 76
3, 67392, Note_on_c, 1, 39, 76
3, 67520, Note_off_c, 1, 51, 100
3, 67520, Note_off_c, 1, 39, 100
3, 67584, Note_on_c, 1, 55, 73
3, 67584, Note_on_c, 1, 43, 73
3, 67712, Note_off_c, 1, 55, 100
3, 67712, Note_off_c, 1, 43, 100
3, 67776, Note_on_c, 1, 58, 69
3, 67776, Note_on_c, 1, 46, 69
3, 67904, Note_off_c, 1, 58, 100
3, 67904, Note_off_c, 1, 46, 100
3, 67968, Note_on_c, 1, 39, 64
3, 67968, Note_on_c, 1, 51, 64
3, 68096, Note_off_c, 1, 39, 100
3, 68096, Note_off_c, 1, 51, 100
3, 68352, Note_on_c, 1, 55, 60
3, 68352, Note_on_c, 1, 51, 60
3, 68480, Note_off_c, 1, 55, 100
3, 68480, Note_off_c, 1, 51, 100
3, 68544, Note_on_c, 1, 55, 60
3, 68544, Note_on_c, 1, 51, 60
3, 68672, Note_off_c, 1, 55, 100
3, 68672, Note_off_c, 1, 51, 100
3, 70272, Note_on_c, 1, 58, 70
3, 70336, Note_off_c, 1, 58, 100
3, 70368, Note_on_c, 1, 61, 70
3, 70432, Note_off_c, 1, 61, 100
3, 70464, Note_on_c, 1, 63, 70
3, 70528, Note_off_c, 1, 63, 100
3, 70560, Note_on_c, 1, 61, 70
3, 70624, Note_off_c, 1, 61, 100
3, 70656, Note_on_c, 1, 63, 70
3, 70720, Note_off_c, 1, 63, 100
3, 70752, Note_on_c, 1, 61, 70
3, 70816, Note_off_c, 1, 61, 100
3, 70848, Note_on_c, 1, 55, 49
3, 70912, Note_off_c, 1, 55, 100
3, 70944, Note_on_c, 1, 58, 49
3, 71008, Note_off_c, 1, 58, 100
3, 71040, Note_on_c, 1, 63, 49
3, 71104, Note_off_c, 1, 63, 100
3, 71136, Note_on_c, 1, 58, 49
3, 71200, Note_off_c, 1, 58, 100
3, 71232, Note_on_c, 1, 55, 49
3, 71296, Note_off_c, 1, 55, 100
3, 71328, Note_on_c, 1, 58, 49
3, 71392, Note_off_c, 1, 58, 100
3, 71424, Note_on_c, 1, 56, 70
3, 71488, Note_off_c, 1, 56, 100
3, 71520, Note_on_c, 1, 60, 70
3, 71584, Note_off_c, 1, 60, 100
3, 71616, Note_on_c, 1, 63, 70
3, 71680, Note_off_c, 1, 63, 100
3, 71712, Note_on_c, 1, 60, 70
3, 71776, Note_off_c, 1, 60, 100
3, 71808, Note_on_c, 1, 64, 70
3, 71872, Note_off_c, 1, 64, 100
3, 71904, Note_on_c, 1, 58, 70
3, 71968, Note_off_c, 1, 58, 100
3, 72000, Note_on_c, 1, 65, 49
3, 72064, Note_off_c, 1, 65, 100
3, 72096, Note_on_c, 1, 60, 49
3, 72160, Note_off_c, 1, 60, 100
3, 72192, Note_on_c, 1, 56, 49
3, 72256, Note_off_c, 1, 56, 100
3, 72288, Note_on_c, 1, 60, 49
3, 72352, Note_off_c, 1, 60, 100
3, 72384, Note_on_c, 1, 53, 49
3, 72448, Note_off_c, 1, 53, 100
3, 72480, Note_on_c, 1, 56, 49
3, 72544, Note_off_c, 1, 56, 100
3, 72576, Note_on_c, 1, 55, 49
3, 72640, Note_off_c, 1, 55, 100
3, 72672, Note_on_c, 1, 58, 49
3, 72736, Note_off_c, 1, 58, 100
3, 72768, Note_on_c, 1, 60, 49
3, 72832, Note_off_c, 1, 60, 100
3, 72864, Note_on_c, 1, 58, 49
3, 72928, Note_off_c, 1, 58, 100
3, 72960, Note_on_c, 1, 52, 49
3, 73024, Note_off_c, 1, 52, 100
3, 73056, Note_on_c, 1, 55, 49
3, 73120, Note_off_c, 1, 55, 100
3, 73152, Note_on_c, 1, 53, 49
3, 73216, Note_off_c, 1, 53, 100
3, 73248, Note_on_c, 1, 56, 49
3, 73312, Note_off_c, 1, 56, 100
3, 73344, Note_on_c, 1, 62, 49
3, 73408, Note_off_c, 1, 62, 100
3, 73440, Note_on_c, 1, 56, 49
3, 73504, Note_off_c, 1, 56, 100
3, 73536, Note_on_c, 1, 55, 49
3, 73600, Note_off_c, 1, 55, 100
3, 73632, Note_on_c, 1, 58, 49
3, 73696, Note_off_c, 1, 58, 100
3, 73728, Note_on_c, 1, 53, 49
3, 73792, Note_off_c, 1, 53, 100
3, 73824, Note_on_c, 1, 56, 49
3, 73888, Note_off_c, 1, 56, 100
3, 73920, Note_on_c, 1, 58, 49
3, 73984, Note_off_c, 1, 58, 100
3, 74016, Note_on_c, 1, 56, 49
3, 74080, Note_off_c, 1, 56, 100
3, 74112, Note_on_c, 1, 50, 49
3, 74176, Note_off_c, 1, 50, 100
3, 74208, Note_on_c, 1, 53, 49
3, 74272, Note_off_c, 1, 53, 100
3, 74304, Note_on_c, 1, 51, 70
3, 74368, Note_off_c, 1, 51, 100
3, 74400, Note_on_c, 1, 55, 70
3, 74464, Note_off_c, 1, 55, 100
3, 74496, Note_on_c, 1, 58, 70
3, 74560, Note_off_c, 1, 58, 100
3, 74592, Note_on_c, 1, 63, 70
3, 74656, Note_off_c, 1, 63, 100
3, 74688, Note_on_c, 1, 58, 70
3, 74752, Note_off_c, 1, 58, 100
3, 74784, Note_on_c, 1, 55, 70
3, 74848, Note_off_c, 1, 55, 100
3, 74880, Note_on_c, 1, 56, 72
3, 74944, Note_off_c, 1, 56, 100
3, 74976, Note_on_c, 1, 60, 72
3, 75040, Note_off_c, 1, 60, 100
3, 75072, Note_on_c, 1, 65, 73
3, 75136, Note_off_c, 1, 65, 100
3, 75168, Note_on_c, 1, 60, 75
3, 75232, Note_off_c, 1, 60, 100
3, 75264, Note_on_c, 1, 56, 75
3, 75328, Note_off_c, 1, 56, 100
3, 75360, Note_on_c, 1, 60, 76
3, 75424, Note_off_c, 1, 60, 100
3, 75456, Note_on_c, 1, 65, 78
3, 75520, Note_off_c, 1, 65, 100
3, 75552, Note_on_c, 1, 60, 78
3, 75616, Note_off_c, 1, 60, 100
3, 75648, Note_on_c, 1, 56, 79
3, 75712, Note_off_c, 1, 56, 100
3, 75744, Note_on_c, 1, 60, 81
3, 75808, Note_off_c, 1, 60, 100
3, 75840, Note_on_c, 1, 65, 81
3, 75904, Note_off_c, 1, 65, 100
3, 75936, Note_on_c, 1, 56, 82
3, 76000, Note_off_c, 1, 56, 100
3, 76032, Note_on_c, 1, 67, 84
3, 76032, Note_on_c, 1, 58, 84
3, 76224, Note_on_c, 1, 65, 85
3, 76288, Note_off_c, 1, 67, 100
3, 76352, Note_off_c, 1, 65, 100
3, 76416, Note_off_c, 1, 58, 100
3, 76608, Note_on_c, 1, 56, 60
3, 76608, Note_on_c, 1, 44, 60
3, 76736, Note_off_c, 1, 56, 100
3, 76736, Note_off_c, 1, 44, 100
3, 76800, Note_on_c, 1, 55, 60
3, 76800, Note_on_c, 1, 43, 60
3, 76928, Note_off_c, 1, 55, 100
3, 76928, Note_off_c, 1, 43, 100
3, 76992, Note_on_c, 1, 53, 60
3, 76992, Note_on_c, 1, 41, 60
3, 77120, Note_off_c, 1, 53, 100
3, 77120, Note_off_c, 1, 41, 100
3, 77184, Note_on_c, 1, 51, 60
3, 77184, Note_on_c, 1, 39, 60
3, 77312, Note_off_c, 1, 51, 100
3, 77312, Note_off_c, 1, 39, 100
3, 78336, Note_on_c, 1, 46, 90
3, 78336, Note_on_c, 1, 34, 90
3, 78464, Note_off_c, 1, 46, 100
3, 78464, Note_off_c, 1, 34, 100
3, 81792, Note_on_c, 1, 55, 49
3, 81840, Note_off_c, 1, 55, 100
3, 81856, Note_on_c, 1, 58, 49
3, 81904, Note_off_c, 1, 58, 100
3, 81920, Note_on_c, 1, 63, 49
3, 81968, Note_off_c, 1, 63, 100
3, 81984, Note_on_c, 1, 55, 49
3, 82032, Note_off_c, 1, 55, 100
3, 82048, Note_on_c, 1, 58, 49
3, 82096, Note_off_c, 1, 58, 100
3, 82112, Note_on_c, 1, 63, 49
3, 82160, Note_off_c, 1, 63, 100
3, 82176, Note_on_c, 1, 55, 49
3, 82224, Note_off_c, 1, 55, 100
3, 82240, Note_on_c, 1, 58, 49
3, 82288, Note_off_c, 1, 58, 100
3, 82336, Note_on_c, 1, 63, 49
3, 82368, Note_on_c, 1, 56, 49
3, 82384, Note_off_c, 1, 63, 100
3, 82416, Note_off_c, 1, 56, 100
3, 82432, Note_on_c, 1, 60, 49
3, 82480, Note_off_c, 1, 60, 100
3, 82496, Note_on_c, 1, 63, 49
3, 82544, Note_off_c, 1, 63, 100
3, 82560, Note_on_c, 1, 56, 49
3, 82608, Note_off_c, 1, 56, 100
3, 82624, Note_on_c, 1, 60, 49
3, 82672, Note_off_c, 1, 60, 100
3, 82688, Note_on_c, 1, 63, 49
3, 82736, Note_off_c, 1, 63, 100
3, 82752, Note_on_c, 1, 44, 49
3, 82800, Note_off_c, 1, 44, 100
3, 82816, Note_on_c, 1, 48, 49
3, 82864, Note_off_c, 1, 48, 100
3, 82880, Note_on_c, 1, 53, 49
3, 82928, Note_off_c, 1, 53, 100
3, 82944, Note_on_c, 1, 46, 49
3, 82992, Note_off_c, 1, 46, 100
3, 83008, Note_on_c, 1, 51, 49
3, 83056, Note_off_c, 1, 51, 100
3, 83072, Note_on_c, 1, 55, 49
3, 83120, Note_off_c, 1, 55, 100
3, 83136, Note_on_c, 1, 46, 49
3, 83184, Note_off_c, 1, 46, 100
3, 83200, Note_on_c, 1, 51, 49
3, 83248, Note_off_c, 1, 51, 100
3, 83264, Note_on_c, 1, 55, 49
3, 83312, Note_off_c, 1, 55, 100
3, 83328, Note_on_c, 1, 46, 49
3, 83376, Note_off_c, 1, 46, 100
3, 83392, Note_on_c, 1, 53, 49
3, 83440, Note_off_c, 1, 53, 100
3, 83456, Note_on_c, 1, 56, 49
3, 83504, Note_off_c, 1, 56, 100
3, 83520, Note_on_c, 1, 44, 90
3, 83568, Note_off_c, 1, 44, 100
3, 83584, Note_on_c, 1, 46, 90
3, 83632, Note_off_c, 1, 46, 100
3, 83648, Note_on_c, 1, 52, 90
3, 83696, Note_off_c, 1, 52, 100
3, 83712, Note_on_c, 1, 44, 90
3, 83760, Note_off_c, 1, 44, 100
3, 83776, Note_on_c, 1, 48, 90
3, 83824, Note_off_c, 1, 48, 100
3, 83840, Note_on_c, 1, 53, 90
3, 83888, Note_off_c, 1, 53, 100
3, 83904, Note_on_c, 1, 45, 90
3, 83952, Note_off_c, 1, 45, 100
3, 83968, Note_on_c, 1, 48, 90
3, 84016, Note_off_c, 1, 48, 100
3, 84032, Note_on_c, 1, 55, 90
3, 84080, Note_off_c, 1, 55, 100
3, 84096, Note_on_c, 1, 46, 49
3, 84144, Note_off_c, 1, 46, 100
3, 84160, Note_on_c, 1, 51, 49
3, 84208, Note_off_c, 1, 51, 100
3, 84224, Note_on_c, 1, 55, 49
3, 84272, Note_off_c, 1, 55, 100
3, 84288, Note_on_c, 1, 46, 49
3, 84336, Note_off_c, 1, 46, 100
3, 84352, Note_on_c, 1, 51, 49
3, 84400, Note_off_c, 1, 51, 100
3, 84416, Note_on_c, 1, 55, 49
3, 84464, Note_off_c, 1, 55, 100
3, 84480, Note_on_c, 1, 46, 49
3, 84528, Note_off_c, 1, 46, 100
3, 84544, Note_on_c, 1, 50, 49
3, 84592, Note_off_c, 1, 50, 100
3, 84608, Note_on_c, 1, 53, 49
3, 84656, Note_off_c, 1, 53, 100
3, 86208, Note_on_c, 1, 58, 90
3, 86208, Note_on_c, 1, 46, 90
3, 86336, Note_off_c, 1, 58, 100
3, 86336, Note_off_c, 1, 46, 100
3, 86400, Note_on_c, 1, 63, 90
3, 86400, Note_on_c, 1, 51, 90
3, 86528, Note_off_c, 1, 63, 100
3, 86528, Note_off_c, 1, 51, 100
3, 86592, Note_on_c, 1, 55, 90
3, 86592, Note_on_c, 1, 43, 90
3, 86720, Note_off_c, 1, 55, 100
3, 86720, Note_off_c, 1, 43, 100
3, 86784, Note_on_c, 1, 58, 90
3, 86784, Note_on_c, 1, 46, 90
3, 86912, Note_off_c, 1, 58, 100
3, 86912, Note_off_c, 1, 46, 100
3, 86976, Note_on_c, 1, 51, 90
3, 86976, Note_on_c, 1, 39, 90
3, 87070, Note_off_c, 1, 51, 100
3, 87070, Note_off_c, 1, 39, 100
3, 87360, Note_on_c, 1, 55, 60
3, 87360, Note_on_c, 1, 51, 60
3, 87454, Note_off_c, 1, 55, 100
3, 87454, Note_off_c, 1, 51, 100
3, 87552, Note_on_c, 1, 55, 60
3, 87552, Note_on_c, 1, 51, 60
3, 87646, Note_off_c, 1, 55, 100
3, 87646, Note_off_c, 1, 51, 100
3, 87646, End_track
4, 0, Start_track
4, 0, Title_t, "K281 -b-Andante"
4, 0, Key_signature, -3, "major"
4, 0, End_track
5, 0, Start_track
5, 0, Title_t, "Midi by:"
5, 0, Key_signature, -3, "major"
5, 0, End_track
6, 0, Start_track
6, 0, Title_t, "B.Fisher"
6, 0, Key_signature, -3, "major"
6, 0, End_track
7, 0, Start_track
7, 0, Key_signature, -3, "major"
7, 0, End_track
8, 0, Start_track
8, 0, Key_signature, -3, "major"
8, 0, End_track
9, 0, Start_track
9, 0, Key_signature, -3, "major"
9, 0, End_track
10, 0, Start_track
10, 0, Key_signature, -3, "major"
10, 0, End_track
11, 0, Start_track
11, 0, Key_signature, -3, "major"
11, 0, End_track
12, 0, Start_track
12, 0, Key_signature, -3, "major"
12, 0, End_track
13, 0, Start_track
13, 0, Key_signature, -3, "major"
13, 0, End_track
14, 0, Start_track
14, 0, Key_signature, -3, "major"
14, 0, End_track
15, 0, Start_track
15, 0, Key_signature, -3, "major"
15, 0, End_track
16, 0, Start_track
16, 0, Key_signature, -3, "major"
16, 0, End_track
0, 0, End_of_file
