0, 0, Header, 1, 21, 384
1, 0, Start_track
1, 0, Time_signature, 3, 2, 96, 8
1, 0, Sequencer_specific, 3, 0, 0, 65
1, 0, Tempo, 517241
1, 0, End_track
2, 0, Start_track
2, 0, Title_t, "Mozart"
2, 0, Control_c, 0, 0, 0
2, 0, Program_c, 0, 0
2, 0, Control_c, 0, 7, 99
2, 0, Control_c, 0, 10, 81
2, 0, Control_c, 0, 91, 58
2, 0, Control_c, 0, 93, 57
2, 0, Key_signature, 3, "major"
2, 0, Control_c, 0, 121, 0
2, 96, Control_c, 0, 10, 73
2, 192, Control_c, 0, 91, 63
2, 240, Control_c, 0, 93, 40
2, 288, Program_c, 0, 0
2, 1152, Note_on_c, 0, 61, 79
2, 1196, Note_off_c, 0, 61, 0
2, 1200, Note_on_c, 0, 64, 79
2, 1244, Note_off_c, 0, 64, 0
2, 1248, Note_on_c, 0, 69, 79
2, 1920, Note_on_c, 0, 64, 79
2, 2012, Note_off_c, 0, 69, 0
2, 2300, Note_off_c, 0, 64, 0
2, 2304, Note_on_c, 0, 73, 79
2, 2492, Note_off_c, 0, 73, 0
2, 2496, Note_on_c, 0, 74, 79
2, 2588, Note_off_c, 0, 74, 0
2, 2592, Note_on_c, 0, 71, 79
2, 2684, Note_off_c, 0, 71, 0
2, 2688, Note_on_c, 0, 69, 79
2, 3068, Note_off_c, 0, 69, 0
2, 3456, Note_on_c, 0, 76, 59
2, 3644, Note_off_c, 0, 76, 0
2, 3648, Note_on_c, 0, 78, 59
2, 3740, Note_off_c, 0, 78, 0
2, 3744, Note_on_c, 0, 74, 59
2, 3836, Note_off_c, 0, 74, 0
2, 3840, Note_on_c, 0, 73, 59
2, 4220, Note_off_c, 0, 73, 0
2, 4224, Note_on_c, 0, 85, 59
2, 4224, Note_on_c, 0, 66, 59
2, 4224, Note_on_c, 0, 57, 59
2, 4604, Note_off_c, 0, 85, 0
2, 4604, Note_off_c, 0, 66, 0
2, 4604, Note_off_c, 0, 57, 0
2, 4608, Note_on_c, 0, 75, 59
2, 4608, Note_on_c, 0, 69, 59
2, 4608, Note_on_c, 0, 59, 59
2, 4988, Note_off_c, 0, 75, 0
2, 4988, Note_off_c, 0, 69, 0
2, 4988, Note_off_c, 0, 59, 0
2, 4992, Note_on_c, 0, 76, 59
2, 4992, Note_on_c, 0, 68, 59
2, 4992, Note_on_c, 0, 64, 59
2, 5372, Note_off_c, 0, 68, 0
2, 5372, Note_off_c, 0, 64, 0
2, 5564, Note_off_c, 0, 76, 0
2, 5568, Note_on_c, 0, 77, 59
2, 5756, Note_off_c, 0, 77, 0
2, 5760, Note_on_c, 0, 80, 59
2, 5948, Note_off_c, 0, 80, 0
2, 5952, Note_on_c, 0, 78, 59
2, 6140, Note_off_c, 0, 78, 0
2, 6144, Note_on_c, 0, 76, 59
2, 6332, Note_off_c, 0, 76, 0
2, 6336, Note_on_c, 0, 74, 59
2, 6524, Note_off_c, 0, 74, 0
2, 6528, Note_on_c, 0, 73, 59
2, 6716, Note_off_c, 0, 73, 0
2, 6720, Note_on_c, 0, 71, 59
2, 6908, Note_off_c, 0, 71, 0
2, 6912, Note_on_c, 0, 69, 59
2, 7100, Note_off_c, 0, 69, 0
2, 7104, Note_on_c, 0, 68, 59
2, 7292, Note_off_c, 0, 68, 0
2, 7296, Note_on_c, 0, 76, 59
2, 7484, Note_off_c, 0, 76, 0
2, 7488, Note_on_c, 0, 74, 59
2, 7676, Note_off_c, 0, 74, 0
2, 8064, Note_on_c, 0, 71, 61
2, 8252, Note_off_c, 0, 71, 0
2, 8256, Note_on_c, 0, 69, 62
2, 8444, Note_off_c, 0, 69, 0
2, 8448, Note_on_c, 0, 78, 63
2, 8636, Note_off_c, 0, 78, 0
2, 8640, Note_on_c, 0, 76, 65
2, 8828, Note_off_c, 0, 76, 0
2, 9216, Note_on_c, 0, 73, 79
2, 9404, Note_off_c, 0, 73, 0
2, 9408, Note_on_c, 0, 71, 79
2, 9596, Note_off_c, 0, 71, 0
2, 9600, Note_on_c, 0, 80, 79
2, 9788, Note_off_c, 0, 80, 0
2, 9792, Note_on_c, 0, 78, 79
2, 9980, Note_off_c, 0, 78, 0
2, 10368, Note_on_c, 0, 64, 59
2, 10748, Note_off_c, 0, 64, 0
2, 10752, Note_on_c, 0, 76, 59
2, 10940, Note_off_c, 0, 76, 0
2, 10944, Note_on_c, 0, 74, 59
2, 11132, Note_off_c, 0, 74, 0
2, 11136, Note_on_c, 0, 73, 59
2, 11324, Note_off_c, 0, 73, 0
2, 11328, Note_on_c, 0, 71, 59
2, 11516, Note_off_c, 0, 71, 0
2, 11520, Note_on_c, 0, 69, 59
2, 11708, Note_off_c, 0, 69, 0
2, 11712, Note_on_c, 0, 68, 59
2, 11900, Note_off_c, 0, 68, 0
2, 11904, Note_on_c, 0, 69, 59
2, 12284, Note_off_c, 0, 69, 0
2, 12672, Note_on_c, 0, 71, 79
2, 12716, Note_off_c, 0, 71, 0
2, 12720, Note_on_c, 0, 76, 79
2, 12764, Note_off_c, 0, 76, 0
2, 12768, Note_on_c, 0, 80, 79
2, 12812, Note_off_c, 0, 80, 0
2, 12816, Note_on_c, 0, 83, 79
2, 13824, Note_on_c, 0, 83, 79
2, 13848, Note_off_c, 0, 83, 0
2, 13916, Note_off_c, 0, 83, 0
2, 13920, Note_on_c, 0, 81, 79
2, 14012, Note_off_c, 0, 81, 0
2, 14016, Note_on_c, 0, 80, 79
2, 14108, Note_off_c, 0, 80, 0
2, 14112, Note_on_c, 0, 78, 79
2, 14204, Note_off_c, 0, 78, 0
2, 14208, Note_on_c, 0, 78, 79
2, 14300, Note_off_c, 0, 78, 0
2, 14304, Note_on_c, 0, 76, 79
2, 14396, Note_off_c, 0, 76, 0
2, 14400, Note_on_c, 0, 75, 79
2, 14492, Note_off_c, 0, 75, 0
2, 14496, Note_on_c, 0, 73, 79
2, 14588, Note_off_c, 0, 73, 0
2, 14592, Note_on_c, 0, 71, 79
2, 14684, Note_off_c, 0, 71, 0
2, 14688, Note_on_c, 0, 69, 79
2, 14780, Note_off_c, 0, 69, 0
2, 14784, Note_on_c, 0, 68, 79
2, 14876, Note_off_c, 0, 68, 0
2, 14880, Note_on_c, 0, 69, 79
2, 14972, Note_off_c, 0, 69, 0
2, 14976, Note_on_c, 0, 68, 79
2, 15068, Note_off_c, 0, 68, 0
2, 15072, Note_on_c, 0, 71, 79
2, 15164, Note_off_c, 0, 71, 0
2, 15168, Note_on_c, 0, 76, 79
2, 15260, Note_off_c, 0, 76, 0
2, 15264, Note_on_c, 0, 80, 79
2, 15356, Note_off_c, 0, 80, 0
2, 15360, Note_on_c, 0, 83, 79
2, 16124, Note_off_c, 0, 83, 0
2, 16128, Note_on_c, 0, 83, 79
2, 16220, Note_off_c, 0, 83, 0
2, 16224, Note_on_c, 0, 81, 79
2, 16316, Note_off_c, 0, 81, 0
2, 16320, Note_on_c, 0, 80, 79
2, 16412, Note_off_c, 0, 80, 0
2, 16416, Note_on_c, 0, 78, 79
2, 16508, Note_off_c, 0, 78, 0
2, 16512, Note_on_c, 0, 78, 79
2, 16604, Note_off_c, 0, 78, 0
2, 16608, Note_on_c, 0, 76, 79
2, 16700, Note_off_c, 0, 76, 0
2, 16704, Note_on_c, 0, 75, 79
2, 16796, Note_off_c, 0, 75, 0
2, 16800, Note_on_c, 0, 73, 79
2, 16892, Note_off_c, 0, 73, 0
2, 16896, Note_on_c, 0, 71, 79
2, 16988, Note_off_c, 0, 71, 0
2, 16992, Note_on_c, 0, 69, 79
2, 17084, Note_off_c, 0, 69, 0
2, 17088, Note_on_c, 0, 68, 79
2, 17180, Note_off_c, 0, 68, 0
2, 17184, Note_on_c, 0, 69, 79
2, 17276, Note_off_c, 0, 69, 0
2, 17280, Note_on_c, 0, 68, 79
2, 17372, Note_off_c, 0, 68, 0
2, 17376, Note_on_c, 0, 71, 79
2, 17468, Note_off_c, 0, 71, 0
2, 17472, Note_on_c, 0, 69, 79
2, 17564, Note_off_c, 0, 69, 0
2, 17568, Note_on_c, 0, 68, 79
2, 17660, Note_off_c, 0, 68, 0
2, 17664, Note_on_c, 0, 69, 79
2, 17756, Note_off_c, 0, 69, 0
2, 17760, Note_on_c, 0, 71, 79
2, 17852, Note_off_c, 0, 71, 0
2, 17856, Note_on_c, 0, 73, 79
2, 17948, Note_off_c, 0, 73, 0
2, 17952, Note_on_c, 0, 75, 79
2, 18044, Note_off_c, 0, 75, 0
2, 18048, Note_on_c, 0, 76, 79
2, 18140, Note_off_c, 0, 76, 0
2, 18144, Note_on_c, 0, 78, 79
2, 18236, Note_off_c, 0, 78, 0
2, 18240, Note_on_c, 0, 80, 79
2, 18332, Note_off_c, 0, 80, 0
2, 18336, Note_on_c, 0, 81, 79
2, 18428, Note_off_c, 0, 81, 0
2, 18432, Note_on_c, 0, 83, 79
2, 18524, Note_off_c, 0, 83, 0
2, 18528, Note_on_c, 0, 85, 79
2, 18620, Note_off_c, 0, 85, 0
2, 18624, Note_on_c, 0, 87, 79
2, 18716, Note_off_c, 0, 87, 0
2, 18720, Note_on_c, 0, 88, 79
2, 18812, Note_off_c, 0, 88, 0
2, 18816, Note_on_c, 0, 87, 79
2, 18908, Note_off_c, 0, 87, 0
2, 18912, Note_on_c, 0, 85, 79
2, 19004, Note_off_c, 0, 85, 0
2, 19024, Note_on_c, 0, 83, 79
2, 19104, Note_on_c, 0, 81, 79
2, 19116, Note_off_c, 0, 83, 0
2, 19196, Note_off_c, 0, 81, 0
2, 19200, Note_on_c, 0, 80, 79
2, 19292, Note_off_c, 0, 80, 0
2, 19296, Note_on_c, 0, 78, 79
2, 19388, Note_off_c, 0, 78, 0
2, 19392, Note_on_c, 0, 76, 79
2, 19484, Note_off_c, 0, 76, 0
2, 19488, Note_on_c, 0, 75, 79
2, 19580, Note_off_c, 0, 75, 0
2, 19584, Note_on_c, 0, 73, 59
2, 19584, Note_on_c, 0, 66, 59
2, 19584, Note_on_c, 0, 57, 59
2, 19772, Note_off_c, 0, 73, 0
2, 19872, Note_on_c, 0, 85, 59
2, 19964, Note_off_c, 0, 66, 0
2, 19964, Note_off_c, 0, 57, 0
2, 19964, Note_off_c, 0, 85, 0
2, 19968, Note_on_c, 0, 76, 59
2, 19968, Note_on_c, 0, 68, 59
2, 19968, Note_on_c, 0, 59, 59
2, 20336, Note_on_c, 0, 75, 59
2, 20348, Note_off_c, 0, 76, 0
2, 20348, Note_off_c, 0, 68, 0
2, 20352, Note_on_c, 0, 80, 59
2, 20352, Note_on_c, 0, 69, 59
2, 20540, Note_off_c, 0, 80, 0
2, 20544, Note_on_c, 0, 78, 59
2, 20716, Note_off_c, 0, 75, 0
2, 20732, Note_off_c, 0, 59, 0
2, 20732, Note_off_c, 0, 69, 0
2, 20732, Note_off_c, 0, 78, 0
2, 20736, Note_on_c, 0, 76, 59
2, 20736, Note_on_c, 0, 68, 59
2, 21116, Note_off_c, 0, 76, 0
2, 21116, Note_off_c, 0, 68, 0
2, 21888, Note_on_c, 0, 61, 79
2, 21932, Note_off_c, 0, 61, 0
2, 21936, Note_on_c, 0, 64, 79
2, 21980, Note_off_c, 0, 64, 0
2, 21984, Note_on_c, 0, 69, 79
2, 22656, Note_on_c, 0, 64, 79
2, 22748, Note_off_c, 0, 69, 0
2, 23036, Note_off_c, 0, 64, 0
2, 23040, Note_on_c, 0, 73, 79
2, 23228, Note_off_c, 0, 73, 0
2, 23232, Note_on_c, 0, 74, 79
2, 23324, Note_off_c, 0, 74, 0
2, 23328, Note_on_c, 0, 71, 79
2, 23420, Note_off_c, 0, 71, 0
2, 23424, Note_on_c, 0, 69, 79
2, 23804, Note_off_c, 0, 69, 0
2, 24192, Note_on_c, 0, 76, 59
2, 24380, Note_off_c, 0, 76, 0
2, 24384, Note_on_c, 0, 78, 59
2, 24476, Note_off_c, 0, 78, 0
2, 24480, Note_on_c, 0, 74, 59
2, 24572, Note_off_c, 0, 74, 0
2, 24576, Note_on_c, 0, 73, 59
2, 24956, Note_off_c, 0, 73, 0
2, 24960, Note_on_c, 0, 85, 59
2, 24960, Note_on_c, 0, 66, 59
2, 24960, Note_on_c, 0, 57, 59
2, 25340, Note_off_c, 0, 85, 0
2, 25340, Note_off_c, 0, 66, 0
2, 25340, Note_off_c, 0, 57, 0
2, 25344, Note_on_c, 0, 75, 59
2, 25344, Note_on_c, 0, 69, 59
2, 25344, Note_on_c, 0, 59, 59
2, 25724, Note_off_c, 0, 75, 0
2, 25724, Note_off_c, 0, 69, 0
2, 25724, Note_off_c, 0, 59, 0
2, 25728, Note_on_c, 0, 76, 59
2, 25728, Note_on_c, 0, 68, 59
2, 25728, Note_on_c, 0, 64, 59
2, 26108, Note_off_c, 0, 68, 0
2, 26108, Note_off_c, 0, 64, 0
2, 26300, Note_off_c, 0, 76, 0
2, 26304, Note_on_c, 0, 77, 59
2, 26492, Note_off_c, 0, 77, 0
2, 26496, Note_on_c, 0, 80, 59
2, 26684, Note_off_c, 0, 80, 0
2, 26688, Note_on_c, 0, 78, 59
2, 26876, Note_off_c, 0, 78, 0
2, 26880, Note_on_c, 0, 76, 59
2, 27068, Note_off_c, 0, 76, 0
2, 27072, Note_on_c, 0, 74, 59
2, 27260, Note_off_c, 0, 74, 0
2, 27264, Note_on_c, 0, 73, 59
2, 27452, Note_off_c, 0, 73, 0
2, 27456, Note_on_c, 0, 71, 59
2, 27644, Note_off_c, 0, 71, 0
2, 27648, Note_on_c, 0, 69, 59
2, 27836, Note_off_c, 0, 69, 0
2, 27840, Note_on_c, 0, 68, 59
2, 28028, Note_off_c, 0, 68, 0
2, 28032, Note_on_c, 0, 76, 59
2, 28220, Note_off_c, 0, 76, 0
2, 28224, Note_on_c, 0, 74, 59
2, 28412, Note_off_c, 0, 74, 0
2, 28800, Note_on_c, 0, 71, 61
2, 28988, Note_off_c, 0, 71, 0
2, 28992, Note_on_c, 0, 69, 63
2, 29180, Note_off_c, 0, 69, 0
2, 29184, Note_on_c, 0, 78, 66
2, 29372, Note_off_c, 0, 78, 0
2, 29376, Note_on_c, 0, 76, 70
2, 29564, Note_off_c, 0, 76, 0
2, 29952, Note_on_c, 0, 73, 79
2, 30140, Note_off_c, 0, 73, 0
2, 30144, Note_on_c, 0, 71, 79
2, 30332, Note_off_c, 0, 71, 0
2, 30336, Note_on_c, 0, 80, 79
2, 30524, Note_off_c, 0, 80, 0
2, 30528, Note_on_c, 0, 78, 79
2, 30716, Note_off_c, 0, 78, 0
2, 31104, Note_on_c, 0, 64, 59
2, 31484, Note_off_c, 0, 64, 0
2, 31488, Note_on_c, 0, 76, 59
2, 31676, Note_off_c, 0, 76, 0
2, 31680, Note_on_c, 0, 74, 59
2, 31868, Note_off_c, 0, 74, 0
2, 31872, Note_on_c, 0, 73, 59
2, 32060, Note_off_c, 0, 73, 0
2, 32064, Note_on_c, 0, 71, 59
2, 32252, Note_off_c, 0, 71, 0
2, 32256, Note_on_c, 0, 69, 59
2, 32444, Note_off_c, 0, 69, 0
2, 32448, Note_on_c, 0, 68, 59
2, 32636, Note_off_c, 0, 68, 0
2, 32640, Note_on_c, 0, 69, 59
2, 33020, Note_off_c, 0, 69, 0
2, 33408, Note_on_c, 0, 71, 79
2, 33452, Note_off_c, 0, 71, 0
2, 33456, Note_on_c, 0, 76, 79
2, 33500, Note_off_c, 0, 76, 0
2, 33504, Note_on_c, 0, 80, 79
2, 33548, Note_off_c, 0, 80, 0
2, 33552, Note_on_c, 0, 83, 79
2, 34560, Note_on_c, 0, 83, 79
2, 34584, Note_off_c, 0, 83, 0
2, 34652, Note_off_c, 0, 83, 0
2, 34656, Note_on_c, 0, 81, 79
2, 34748, Note_off_c, 0, 81, 0
2, 34752, Note_on_c, 0, 80, 79
2, 34844, Note_off_c, 0, 80, 0
2, 34848, Note_on_c, 0, 78, 79
2, 34940, Note_off_c, 0, 78, 0
2, 34944, Note_on_c, 0, 78, 79
2, 35036, Note_off_c, 0, 78, 0
2, 35040, Note_on_c, 0, 76, 79
2, 35132, Note_off_c, 0, 76, 0
2, 35136, Note_on_c, 0, 75, 79
2, 35228, Note_off_c, 0, 75, 0
2, 35232, Note_on_c, 0, 73, 79
2, 35324, Note_off_c, 0, 73, 0
2, 35328, Note_on_c, 0, 71, 79
2, 35420, Note_off_c, 0, 71, 0
2, 35424, Note_on_c, 0, 69, 79
2, 35516, Note_off_c, 0, 69, 0
2, 35520, Note_on_c, 0, 68, 79
2, 35612, Note_off_c, 0, 68, 0
2, 35616, Note_on_c, 0, 69, 79
2, 35708, Note_off_c, 0, 69, 0
2, 35712, Note_on_c, 0, 68, 79
2, 35804, Note_off_c, 0, 68, 0
2, 35808, Note_on_c, 0, 71, 79
2, 35900, Note_off_c, 0, 71, 0
2, 35904, Note_on_c, 0, 76, 79
2, 35996, Note_off_c, 0, 76, 0
2, 36000, Note_on_c, 0, 80, 79
2, 36092, Note_off_c, 0, 80, 0
2, 36096, Note_on_c, 0, 83, 79
2, 36860, Note_off_c, 0, 83, 0
2, 36864, Note_on_c, 0, 83, 79
2, 36956, Note_off_c, 0, 83, 0
2, 36960, Note_on_c, 0, 81, 79
2, 37052, Note_off_c, 0, 81, 0
2, 37056, Note_on_c, 0, 80, 79
2, 37148, Note_off_c, 0, 80, 0
2, 37152, Note_on_c, 0, 78, 79
2, 37244, Note_off_c, 0, 78, 0
2, 37248, Note_on_c, 0, 78, 79
2, 37340, Note_off_c, 0, 78, 0
2, 37344, Note_on_c, 0, 76, 79
2, 37436, Note_off_c, 0, 76, 0
2, 37440, Note_on_c, 0, 75, 79
2, 37532, Note_off_c, 0, 75, 0
2, 37536, Note_on_c, 0, 73, 79
2, 37628, Note_off_c, 0, 73, 0
2, 37632, Note_on_c, 0, 71, 79
2, 37724, Note_off_c, 0, 71, 0
2, 37728, Note_on_c, 0, 69, 79
2, 37820, Note_off_c, 0, 69, 0
2, 37824, Note_on_c, 0, 68, 79
2, 37916, Note_off_c, 0, 68, 0
2, 37920, Note_on_c, 0, 69, 79
2, 38012, Note_off_c, 0, 69, 0
2, 38016, Note_on_c, 0, 68, 79
2, 38108, Note_off_c, 0, 68, 0
2, 38112, Note_on_c, 0, 71, 79
2, 38204, Note_off_c, 0, 71, 0
2, 38208, Note_on_c, 0, 69, 79
2, 38300, Note_off_c, 0, 69, 0
2, 38304, Note_on_c, 0, 68, 79
2, 38396, Note_off_c, 0, 68, 0
2, 38400, Note_on_c, 0, 69, 79
2, 38492, Note_off_c, 0, 69, 0
2, 38496, Note_on_c, 0, 71, 79
2, 38588, Note_off_c, 0, 71, 0
2, 38592, Note_on_c, 0, 73, 79
2, 38684, Note_off_c, 0, 73, 0
2, 38688, Note_on_c, 0, 75, 79
2, 38780, Note_off_c, 0, 75, 0
2, 38784, Note_on_c, 0, 76, 79
2, 38876, Note_off_c, 0, 76, 0
2, 38880, Note_on_c, 0, 78, 79
2, 38972, Note_off_c, 0, 78, 0
2, 38976, Note_on_c, 0, 80, 79
2, 39068, Note_off_c, 0, 80, 0
2, 39072, Note_on_c, 0, 81, 79
2, 39164, Note_off_c, 0, 81, 0
2, 39168, Note_on_c, 0, 83, 79
2, 39260, Note_off_c, 0, 83, 0
2, 39264, Note_on_c, 0, 85, 79
2, 39356, Note_off_c, 0, 85, 0
2, 39360, Note_on_c, 0, 87, 79
2, 39452, Note_off_c, 0, 87, 0
2, 39456, Note_on_c, 0, 88, 79
2, 39548, Note_off_c, 0, 88, 0
2, 39552, Note_on_c, 0, 87, 79
2, 39644, Note_off_c, 0, 87, 0
2, 39648, Note_on_c, 0, 85, 79
2, 39740, Note_off_c, 0, 85, 0
2, 39760, Note_on_c, 0, 83, 79
2, 39840, Note_on_c, 0, 81, 79
2, 39852, Note_off_c, 0, 83, 0
2, 39932, Note_off_c, 0, 81, 0
2, 39936, Note_on_c, 0, 80, 79
2, 40028, Note_off_c, 0, 80, 0
2, 40032, Note_on_c, 0, 78, 79
2, 40124, Note_off_c, 0, 78, 0
2, 40128, Note_on_c, 0, 76, 79
2, 40220, Note_off_c, 0, 76, 0
2, 40224, Note_on_c, 0, 75, 79
2, 40316, Note_off_c, 0, 75, 0
2, 40320, Note_on_c, 0, 73, 59
2, 40320, Note_on_c, 0, 66, 59
2, 40320, Note_on_c, 0, 57, 59
2, 40508, Note_off_c, 0, 73, 0
2, 40608, Note_on_c, 0, 85, 59
2, 40700, Note_off_c, 0, 66, 0
2, 40700, Note_off_c, 0, 57, 0
2, 40700, Note_off_c, 0, 85, 0
2, 40704, Note_on_c, 0, 76, 59
2, 40704, Note_on_c, 0, 68, 59
2, 40704, Note_on_c, 0, 59, 59
2, 41072, Note_on_c, 0, 75, 59
2, 41084, Note_off_c, 0, 76, 0
2, 41084, Note_off_c, 0, 68, 0
2, 41088, Note_on_c, 0, 80, 59
2, 41088, Note_on_c, 0, 69, 59
2, 41276, Note_off_c, 0, 80, 0
2, 41280, Note_on_c, 0, 78, 59
2, 41452, Note_off_c, 0, 75, 0
2, 41468, Note_off_c, 0, 59, 0
2, 41468, Note_off_c, 0, 69, 0
2, 41468, Note_off_c, 0, 78, 0
2, 41472, Note_on_c, 0, 76, 59
2, 41472, Note_on_c, 0, 68, 59
2, 41852, Note_off_c, 0, 76, 0
2, 41852, Note_off_c, 0, 68, 0
2, 42624, Note_on_c, 0, 64, 79
2, 42668, Note_off_c, 0, 64, 0
2, 42672, Note_on_c, 0, 76, 79
2, 43004, Note_off_c, 0, 76, 0
2, 43008, Note_on_c, 0, 66, 79
2, 43052, Note_off_c, 0, 66, 0
2, 43056, Note_on_c, 0, 78, 79
2, 43388, Note_off_c, 0, 78, 0
2, 43392, Note_on_c, 0, 67, 79
2, 43436, Note_off_c, 0, 67, 0
2, 43440, Note_on_c, 0, 79, 79
2, 43772, Note_off_c, 0, 79, 64
2, 43776, Note_on_c, 0, 71, 59
2, 44156, Note_off_c, 0, 71, 0
2, 44160, Note_on_c, 0, 70, 59
2, 44540, Note_off_c, 0, 70, 0
2, 44832, Note_on_c, 0, 70, 59
2, 44924, Note_off_c, 0, 70, 0
2, 44928, Note_on_c, 0, 73, 61
2, 45308, Note_off_c, 0, 73, 0
2, 45312, Note_on_c, 0, 71, 63
2, 45692, Note_off_c, 0, 71, 0
2, 45984, Note_on_c, 0, 71, 69
2, 46076, Note_off_c, 0, 71, 0
2, 46080, Note_on_c, 0, 74, 70
2, 46460, Note_off_c, 0, 74, 0
2, 46464, Note_on_c, 0, 73, 73
2, 46844, Note_off_c, 0, 73, 0
2, 47136, Note_on_c, 0, 73, 78
2, 47228, Note_off_c, 0, 73, 0
2, 47232, Note_on_c, 0, 76, 79
2, 47420, Note_off_c, 0, 76, 0
2, 47424, Note_on_c, 0, 74, 79
2, 47612, Note_off_c, 0, 74, 0
2, 47616, Note_on_c, 0, 77, 79
2, 47804, Note_off_c, 0, 77, 0
2, 47808, Note_on_c, 0, 76, 79
2, 47996, Note_off_c, 0, 76, 0
2, 48000, Note_on_c, 0, 79, 79
2, 48188, Note_off_c, 0, 79, 0
2, 48192, Note_on_c, 0, 77, 79
2, 48380, Note_off_c, 0, 77, 0
2, 48384, Note_on_c, 0, 69, 59
2, 48764, Note_off_c, 0, 69, 0
2, 48768, Note_on_c, 0, 68, 59
2, 49148, Note_off_c, 0, 68, 0
2, 49440, Note_on_c, 0, 68, 59
2, 49532, Note_off_c, 0, 68, 0
2, 49536, Note_on_c, 0, 71, 59
2, 49916, Note_off_c, 0, 71, 0
2, 49920, Note_on_c, 0, 69, 59
2, 50300, Note_off_c, 0, 69, 0
2, 50592, Note_on_c, 0, 69, 59
2, 50684, Note_off_c, 0, 69, 0
2, 50688, Note_on_c, 0, 73, 61
2, 51068, Note_off_c, 0, 73, 0
2, 51072, Note_on_c, 0, 71, 63
2, 51452, Note_off_c, 0, 71, 0
2, 51744, Note_on_c, 0, 71, 69
2, 51836, Note_off_c, 0, 71, 0
2, 51840, Note_on_c, 0, 74, 70
2, 52028, Note_off_c, 0, 74, 0
2, 52032, Note_on_c, 0, 72, 71
2, 52220, Note_off_c, 0, 72, 0
2, 52224, Note_on_c, 0, 71, 73
2, 52412, Note_off_c, 0, 71, 0
2, 52416, Note_on_c, 0, 69, 74
2, 52604, Note_off_c, 0, 69, 0
2, 52608, Note_on_c, 0, 81, 75
2, 52796, Note_off_c, 0, 81, 0
2, 52800, Note_on_c, 0, 81, 77
2, 52988, Note_off_c, 0, 81, 0
2, 52992, Note_on_c, 0, 83, 79
2, 53180, Note_off_c, 0, 83, 0
2, 53184, Note_on_c, 0, 81, 79
2, 53372, Note_off_c, 0, 81, 0
2, 53376, Note_on_c, 0, 79, 79
2, 53564, Note_off_c, 0, 79, 0
2, 53568, Note_on_c, 0, 77, 79
2, 53756, Note_off_c, 0, 77, 0
2, 53760, Note_on_c, 0, 76, 79
2, 53948, Note_off_c, 0, 76, 0
2, 53952, Note_on_c, 0, 75, 79
2, 54140, Note_off_c, 0, 75, 0
2, 54144, Note_on_c, 0, 84, 79
2, 54908, Note_off_c, 0, 84, 0
2, 54912, Note_on_c, 0, 75, 59
2, 55292, Note_off_c, 0, 75, 0
2, 55296, Note_on_c, 0, 76, 59
2, 55868, Note_off_c, 0, 76, 0
2, 55872, Note_on_c, 0, 78, 59
2, 55964, Note_off_c, 0, 78, 0
2, 55984, Note_on_c, 0, 76, 59
2, 56064, Note_on_c, 0, 76, 59
2, 56076, Note_off_c, 0, 76, 0
2, 56156, Note_off_c, 0, 76, 0
2, 56160, Note_on_c, 0, 74, 59
2, 56252, Note_off_c, 0, 74, 0
2, 56256, Note_on_c, 0, 73, 59
2, 56348, Note_off_c, 0, 73, 0
2, 56352, Note_on_c, 0, 71, 59
2, 56444, Note_off_c, 0, 71, 0
2, 56448, Note_on_c, 0, 61, 79
2, 56492, Note_off_c, 0, 61, 0
2, 56496, Note_on_c, 0, 64, 79
2, 56528, Note_on_c, 0, 69, 79
2, 56540, Note_off_c, 0, 64, 0
2, 57216, Note_on_c, 0, 64, 79
2, 57292, Note_off_c, 0, 69, 0
2, 57596, Note_off_c, 0, 64, 0
2, 57600, Note_on_c, 0, 73, 79
2, 57788, Note_off_c, 0, 73, 0
2, 57792, Note_on_c, 0, 74, 79
2, 57884, Note_off_c, 0, 74, 0
2, 57888, Note_on_c, 0, 71, 79
2, 57980, Note_off_c, 0, 71, 0
2, 57984, Note_on_c, 0, 69, 79
2, 58364, Note_off_c, 0, 69, 0
2, 58752, Note_on_c, 0, 76, 59
2, 58940, Note_off_c, 0, 76, 0
2, 58960, Note_on_c, 0, 78, 59
2, 59040, Note_on_c, 0, 74, 59
2, 59052, Note_off_c, 0, 78, 0
2, 59132, Note_off_c, 0, 74, 0
2, 59136, Note_on_c, 0, 73, 59
2, 59516, Note_off_c, 0, 73, 0
2, 59520, Note_on_c, 0, 85, 59
2, 59520, Note_on_c, 0, 66, 59
2, 59520, Note_on_c, 0, 57, 59
2, 59900, Note_off_c, 0, 85, 0
2, 59900, Note_off_c, 0, 66, 0
2, 59900, Note_off_c, 0, 57, 0
2, 59904, Note_on_c, 0, 75, 59
2, 59904, Note_on_c, 0, 69, 59
2, 59904, Note_on_c, 0, 59, 59
2, 60284, Note_off_c, 0, 75, 0
2, 60284, Note_off_c, 0, 69, 0
2, 60284, Note_off_c, 0, 59, 0
2, 60288, Note_on_c, 0, 76, 59
2, 60288, Note_on_c, 0, 68, 59
2, 60288, Note_on_c, 0, 64, 59
2, 60668, Note_off_c, 0, 68, 0
2, 60668, Note_off_c, 0, 64, 0
2, 60860, Note_off_c, 0, 76, 0
2, 60864, Note_on_c, 0, 77, 59
2, 61052, Note_off_c, 0, 77, 0
2, 61056, Note_on_c, 0, 80, 59
2, 61244, Note_off_c, 0, 80, 0
2, 61248, Note_on_c, 0, 78, 59
2, 61436, Note_off_c, 0, 78, 0
2, 61440, Note_on_c, 0, 76, 59
2, 61628, Note_off_c, 0, 76, 0
2, 61632, Note_on_c, 0, 74, 59
2, 61820, Note_off_c, 0, 74, 0
2, 61824, Note_on_c, 0, 73, 59
2, 62012, Note_off_c, 0, 73, 0
2, 62016, Note_on_c, 0, 71, 59
2, 62204, Note_off_c, 0, 71, 0
2, 62208, Note_on_c, 0, 69, 59
2, 62396, Note_off_c, 0, 69, 0
2, 62400, Note_on_c, 0, 68, 59
2, 62588, Note_off_c, 0, 68, 0
2, 62592, Note_on_c, 0, 76, 59
2, 62780, Note_off_c, 0, 76, 0
2, 62784, Note_on_c, 0, 74, 59
2, 62972, Note_off_c, 0, 74, 0
2, 63360, Note_on_c, 0, 71, 61
2, 63548, Note_off_c, 0, 71, 0
2, 63552, Note_on_c, 0, 69, 63
2, 63740, Note_off_c, 0, 69, 0
2, 63744, Note_on_c, 0, 78, 66
2, 63932, Note_off_c, 0, 78, 0
2, 63936, Note_on_c, 0, 76, 70
2, 64124, Note_off_c, 0, 76, 0
2, 64512, Note_on_c, 0, 71, 79
2, 64700, Note_off_c, 0, 71, 0
2, 64704, Note_on_c, 0, 69, 79
2, 64892, Note_off_c, 0, 69, 0
2, 64896, Note_on_c, 0, 81, 79
2, 65084, Note_off_c, 0, 81, 0
2, 65088, Note_on_c, 0, 79, 79
2, 65276, Note_off_c, 0, 79, 0
2, 65664, Note_on_c, 0, 79, 59
2, 65852, Note_off_c, 0, 79, 0
2, 65856, Note_on_c, 0, 78, 59
2, 66044, Note_off_c, 0, 78, 0
2, 66048, Note_on_c, 0, 76, 59
2, 66236, Note_off_c, 0, 76, 0
2, 66240, Note_on_c, 0, 74, 59
2, 66428, Note_off_c, 0, 74, 0
2, 66432, Note_on_c, 0, 73, 59
2, 66608, Note_on_c, 0, 71, 59
2, 66620, Note_off_c, 0, 73, 0
2, 66796, Note_off_c, 0, 71, 0
2, 66816, Note_on_c, 0, 76, 59
2, 66908, Note_off_c, 0, 76, 0
2, 66912, Note_on_c, 0, 78, 59
2, 66940, Note_off_c, 0, 78, 0
2, 66944, Note_on_c, 0, 76, 59
2, 66972, Note_off_c, 0, 76, 0
2, 66976, Note_on_c, 0, 74, 59
2, 67004, Note_off_c, 0, 74, 0
2, 67008, Note_on_c, 0, 76, 59
2, 67100, Note_off_c, 0, 76, 0
2, 67104, Note_on_c, 0, 78, 59
2, 67196, Note_off_c, 0, 78, 0
2, 67200, Note_on_c, 0, 69, 59
2, 67580, Note_off_c, 0, 69, 0
2, 67584, Note_on_c, 0, 68, 59
2, 67964, Note_off_c, 0, 68, 0
2, 67968, Note_on_c, 0, 69, 79
2, 68012, Note_off_c, 0, 69, 0
2, 68016, Note_on_c, 0, 73, 79
2, 68048, Note_on_c, 0, 76, 79
2, 68060, Note_off_c, 0, 73, 0
2, 68352, Note_on_c, 0, 76, 79
2, 68428, Note_off_c, 0, 76, 0
2, 69116, Note_off_c, 0, 76, 0
2, 69120, Note_on_c, 0, 76, 79
2, 69212, Note_off_c, 0, 76, 0
2, 69216, Note_on_c, 0, 74, 79
2, 69308, Note_off_c, 0, 74, 0
2, 69312, Note_on_c, 0, 73, 79
2, 69404, Note_off_c, 0, 73, 0
2, 69408, Note_on_c, 0, 71, 79
2, 69500, Note_off_c, 0, 71, 0
2, 69504, Note_on_c, 0, 71, 79
2, 69596, Note_off_c, 0, 71, 0
2, 69600, Note_on_c, 0, 69, 79
2, 69692, Note_off_c, 0, 69, 0
2, 69696, Note_on_c, 0, 68, 79
2, 69788, Note_off_c, 0, 68, 0
2, 69792, Note_on_c, 0, 66, 79
2, 69884, Note_off_c, 0, 66, 0
2, 69888, Note_on_c, 0, 64, 79
2, 69980, Note_off_c, 0, 64, 0
2, 69984, Note_on_c, 0, 62, 79
2, 70076, Note_off_c, 0, 62, 0
2, 70080, Note_on_c, 0, 61, 79
2, 70172, Note_off_c, 0, 61, 0
2, 70176, Note_on_c, 0, 62, 79
2, 70268, Note_off_c, 0, 62, 0
2, 70272, Note_on_c, 0, 61, 79
2, 70364, Note_off_c, 0, 61, 0
2, 70368, Note_on_c, 0, 64, 79
2, 70460, Note_off_c, 0, 64, 0
2, 70464, Note_on_c, 0, 69, 79
2, 70556, Note_off_c, 0, 69, 0
2, 70560, Note_on_c, 0, 73, 79
2, 70652, Note_off_c, 0, 73, 0
2, 70656, Note_on_c, 0, 76, 79
2, 71228, Note_off_c, 0, 76, 0
2, 71232, Note_on_c, 0, 88, 79
2, 71420, Note_off_c, 0, 88, 0
2, 71424, Note_on_c, 0, 88, 79
2, 71516, Note_off_c, 0, 88, 0
2, 71520, Note_on_c, 0, 86, 79
2, 71612, Note_off_c, 0, 86, 0
2, 71616, Note_on_c, 0, 85, 79
2, 71708, Note_off_c, 0, 85, 0
2, 71712, Note_on_c, 0, 83, 79
2, 71804, Note_off_c, 0, 83, 0
2, 71808, Note_on_c, 0, 83, 79
2, 71900, Note_off_c, 0, 83, 0
2, 71904, Note_on_c, 0, 81, 79
2, 71996, Note_off_c, 0, 81, 0
2, 72000, Note_on_c, 0, 80, 79
2, 72092, Note_off_c, 0, 80, 0
2, 72096, Note_on_c, 0, 78, 79
2, 72188, Note_off_c, 0, 78, 0
2, 72192, Note_on_c, 0, 76, 79
2, 72284, Note_off_c, 0, 76, 0
2, 72288, Note_on_c, 0, 74, 79
2, 72380, Note_off_c, 0, 74, 0
2, 72384, Note_on_c, 0, 73, 79
2, 72476, Note_off_c, 0, 73, 0
2, 72480, Note_on_c, 0, 74, 79
2, 72572, Note_off_c, 0, 74, 0
2, 72576, Note_on_c, 0, 73, 79
2, 72668, Note_off_c, 0, 73, 0
2, 72672, Note_on_c, 0, 76, 79
2, 72764, Note_off_c, 0, 76, 0
2, 72768, Note_on_c, 0, 74, 79
2, 72860, Note_off_c, 0, 74, 0
2, 72864, Note_on_c, 0, 73, 79
2, 72956, Note_off_c, 0, 73, 0
2, 72960, Note_on_c, 0, 74, 79
2, 73052, Note_off_c, 0, 74, 0
2, 73056, Note_on_c, 0, 76, 79
2, 73148, Note_off_c, 0, 76, 0
2, 73152, Note_on_c, 0, 78, 79
2, 73244, Note_off_c, 0, 78, 0
2, 73248, Note_on_c, 0, 80, 79
2, 73340, Note_off_c, 0, 80, 0
2, 73344, Note_on_c, 0, 81, 79
2, 73436, Note_off_c, 0, 81, 0
2, 73440, Note_on_c, 0, 83, 79
2, 73532, Note_off_c, 0, 83, 0
2, 73536, Note_on_c, 0, 85, 79
2, 73628, Note_off_c, 0, 85, 0
2, 73632, Note_on_c, 0, 86, 79
2, 73724, Note_off_c, 0, 86, 0
2, 73728, Note_on_c, 0, 88, 79
2, 73820, Note_off_c, 0, 88, 0
2, 73824, Note_on_c, 0, 86, 79
2, 73916, Note_off_c, 0, 86, 0
2, 73920, Note_on_c, 0, 85, 79
2, 74012, Note_off_c, 0, 85, 0
2, 74016, Note_on_c, 0, 83, 79
2, 74108, Note_off_c, 0, 83, 0
2, 74112, Note_on_c, 0, 81, 79
2, 74204, Note_off_c, 0, 81, 0
2, 74208, Note_on_c, 0, 80, 79
2, 74300, Note_off_c, 0, 80, 0
2, 74304, Note_on_c, 0, 78, 79
2, 74396, Note_off_c, 0, 78, 0
2, 74400, Note_on_c, 0, 76, 79
2, 74492, Note_off_c, 0, 76, 0
2, 74496, Note_on_c, 0, 74, 79
2, 74588, Note_off_c, 0, 74, 0
2, 74592, Note_on_c, 0, 73, 79
2, 74684, Note_off_c, 0, 73, 0
2, 74688, Note_on_c, 0, 71, 79
2, 74780, Note_off_c, 0, 71, 0
2, 74784, Note_on_c, 0, 69, 79
2, 74876, Note_off_c, 0, 69, 0
2, 74880, Note_on_c, 0, 78, 79
2, 74924, Note_off_c, 0, 78, 0
2, 74928, Note_on_c, 0, 80, 79
2, 74972, Note_off_c, 0, 80, 0
2, 74976, Note_on_c, 0, 78, 79
2, 75020, Note_off_c, 0, 78, 0
2, 75024, Note_on_c, 0, 76, 79
2, 75068, Note_off_c, 0, 76, 0
2, 75072, Note_on_c, 0, 78, 79
2, 75132, Note_off_c, 0, 78, 0
2, 75136, Note_on_c, 0, 80, 79
2, 75196, Note_off_c, 0, 80, 0
2, 75200, Note_on_c, 0, 81, 79
2, 75260, Note_off_c, 0, 81, 0
2, 75264, Note_on_c, 0, 69, 79
2, 75644, Note_off_c, 0, 69, 0
2, 75648, Note_on_c, 0, 68, 79
2, 75648, Note_on_c, 0, 73, 79
2, 75836, Note_off_c, 0, 73, 0
2, 75840, Note_on_c, 0, 71, 79
2, 76028, Note_off_c, 0, 68, 0
2, 76028, Note_off_c, 0, 71, 0
2, 76032, Note_on_c, 0, 69, 79
2, 76412, Note_off_c, 0, 69, 0
2, 77184, Note_on_c, 0, 64, 79
2, 77228, Note_off_c, 0, 64, 0
2, 77232, Note_on_c, 0, 76, 79
2, 77564, Note_off_c, 0, 76, 0
2, 77568, Note_on_c, 0, 66, 79
2, 77612, Note_off_c, 0, 66, 0
2, 77616, Note_on_c, 0, 78, 79
2, 77948, Note_off_c, 0, 78, 0
2, 77952, Note_on_c, 0, 67, 79
2, 77996, Note_off_c, 0, 67, 0
2, 78000, Note_on_c, 0, 79, 79
2, 78332, Note_off_c, 0, 79, 64
2, 78336, Note_on_c, 0, 71, 59
2, 78716, Note_off_c, 0, 71, 0
2, 78720, Note_on_c, 0, 70, 59
2, 79100, Note_off_c, 0, 70, 0
2, 79392, Note_on_c, 0, 70, 59
2, 79484, Note_off_c, 0, 70, 0
2, 79488, Note_on_c, 0, 73, 61
2, 79868, Note_off_c, 0, 73, 0
2, 79872, Note_on_c, 0, 71, 63
2, 80252, Note_off_c, 0, 71, 0
2, 80544, Note_on_c, 0, 71, 69
2, 80636, Note_off_c, 0, 71, 0
2, 80640, Note_on_c, 0, 74, 70
2, 81020, Note_off_c, 0, 74, 0
2, 81024, Note_on_c, 0, 73, 73
2, 81404, Note_off_c, 0, 73, 0
2, 81696, Note_on_c, 0, 73, 78
2, 81788, Note_off_c, 0, 73, 0
2, 81792, Note_on_c, 0, 76, 79
2, 81980, Note_off_c, 0, 76, 0
2, 81984, Note_on_c, 0, 74, 79
2, 82172, Note_off_c, 0, 74, 0
2, 82176, Note_on_c, 0, 77, 79
2, 82364, Note_off_c, 0, 77, 0
2, 82368, Note_on_c, 0, 76, 79
2, 82556, Note_off_c, 0, 76, 0
2, 82560, Note_on_c, 0, 79, 79
2, 82748, Note_off_c, 0, 79, 0
2, 82752, Note_on_c, 0, 77, 79
2, 82940, Note_off_c, 0, 77, 0
2, 82944, Note_on_c, 0, 69, 59
2, 83324, Note_off_c, 0, 69, 0
2, 83328, Note_on_c, 0, 68, 59
2, 83708, Note_off_c, 0, 68, 0
2, 84000, Note_on_c, 0, 68, 59
2, 84092, Note_off_c, 0, 68, 0
2, 84096, Note_on_c, 0, 71, 59
2, 84476, Note_off_c, 0, 71, 0
2, 84480, Note_on_c, 0, 69, 59
2, 84860, Note_off_c, 0, 69, 0
2, 85152, Note_on_c, 0, 69, 59
2, 85244, Note_off_c, 0, 69, 0
2, 85248, Note_on_c, 0, 73, 61
2, 85628, Note_off_c, 0, 73, 0
2, 85632, Note_on_c, 0, 71, 63
2, 86012, Note_off_c, 0, 71, 0
2, 86304, Note_on_c, 0, 71, 69
2, 86396, Note_off_c, 0, 71, 0
2, 86400, Note_on_c, 0, 74, 70
2, 86588, Note_off_c, 0, 74, 0
2, 86592, Note_on_c, 0, 72, 71
2, 86780, Note_off_c, 0, 72, 0
2, 86784, Note_on_c, 0, 71, 73
2, 86972, Note_off_c, 0, 71, 0
2, 86976, Note_on_c, 0, 69, 74
2, 87164, Note_off_c, 0, 69, 0
2, 87168, Note_on_c, 0, 81, 75
2, 87356, Note_off_c, 0, 81, 0
2, 87360, Note_on_c, 0, 81, 77
2, 87548, Note_off_c, 0, 81, 0
2, 87552, Note_on_c, 0, 83, 79
2, 87740, Note_off_c, 0, 83, 0
2, 87744, Note_on_c, 0, 81, 79
2, 87932, Note_off_c, 0, 81, 0
2, 87936, Note_on_c, 0, 79, 79
2, 88124, Note_off_c, 0, 79, 0
2, 88128, Note_on_c, 0, 77, 79
2, 88316, Note_off_c, 0, 77, 0
2, 88320, Note_on_c, 0, 76, 79
2, 88508, Note_off_c, 0, 76, 0
2, 88512, Note_on_c, 0, 75, 79
2, 88700, Note_off_c, 0, 75, 0
2, 88704, Note_on_c, 0, 84, 79
2, 89468, Note_off_c, 0, 84, 0
2, 89472, Note_on_c, 0, 75, 59
2, 89852, Note_off_c, 0, 75, 0
2, 89856, Note_on_c, 0, 76, 59
2, 90428, Note_off_c, 0, 76, 0
2, 90432, Note_on_c, 0, 78, 59
2, 90524, Note_off_c, 0, 78, 0
2, 90544, Note_on_c, 0, 76, 59
2, 90624, Note_on_c, 0, 76, 59
2, 90636, Note_off_c, 0, 76, 0
2, 90716, Note_off_c, 0, 76, 0
2, 90720, Note_on_c, 0, 74, 59
2, 90812, Note_off_c, 0, 74, 0
2, 90816, Note_on_c, 0, 73, 59
2, 90908, Note_off_c, 0, 73, 0
2, 90912, Note_on_c, 0, 71, 59
2, 91004, Note_off_c, 0, 71, 0
2, 91008, Note_on_c, 0, 61, 79
2, 91052, Note_off_c, 0, 61, 0
2, 91056, Note_on_c, 0, 64, 79
2, 91088, Note_on_c, 0, 69, 79
2, 91100, Note_off_c, 0, 64, 0
2, 91776, Note_on_c, 0, 64, 79
2, 91852, Note_off_c, 0, 69, 0
2, 92156, Note_off_c, 0, 64, 0
2, 92160, Note_on_c, 0, 73, 79
2, 92348, Note_off_c, 0, 73, 0
2, 92352, Note_on_c, 0, 74, 79
2, 92444, Note_off_c, 0, 74, 0
2, 92448, Note_on_c, 0, 71, 79
2, 92540, Note_off_c, 0, 71, 0
2, 92544, Note_on_c, 0, 69, 79
2, 92924, Note_off_c, 0, 69, 0
2, 93312, Note_on_c, 0, 76, 59
2, 93500, Note_off_c, 0, 76, 0
2, 93520, Note_on_c, 0, 78, 59
2, 93600, Note_on_c, 0, 74, 59
2, 93612, Note_off_c, 0, 78, 0
2, 93692, Note_off_c, 0, 74, 0
2, 93696, Note_on_c, 0, 73, 59
2, 94076, Note_off_c, 0, 73, 0
2, 94080, Note_on_c, 0, 85, 59
2, 94080, Note_on_c, 0, 66, 59
2, 94080, Note_on_c, 0, 57, 59
2, 94460, Note_off_c, 0, 85, 0
2, 94460, Note_off_c, 0, 66, 0
2, 94460, Note_off_c, 0, 57, 0
2, 94464, Note_on_c, 0, 75, 59
2, 94464, Note_on_c, 0, 69, 59
2, 94464, Note_on_c, 0, 59, 59
2, 94844, Note_off_c, 0, 75, 0
2, 94844, Note_off_c, 0, 69, 0
2, 94844, Note_off_c, 0, 59, 0
2, 94848, Note_on_c, 0, 76, 59
2, 94848, Note_on_c, 0, 68, 59
2, 94848, Note_on_c, 0, 64, 59
2, 95228, Note_off_c, 0, 68, 0
2, 95228, Note_off_c, 0, 64, 0
2, 95420, Note_off_c, 0, 76, 0
2, 95424, Note_on_c, 0, 77, 59
2, 95612, Note_off_c, 0, 77, 0
2, 95616, Note_on_c, 0, 80, 59
2, 95804, Note_off_c, 0, 80, 0
2, 95808, Note_on_c, 0, 78, 59
2, 95996, Note_off_c, 0, 78, 0
2, 96000, Note_on_c, 0, 76, 59
2, 96188, Note_off_c, 0, 76, 0
2, 96192, Note_on_c, 0, 74, 59
2, 96380, Note_off_c, 0, 74, 0
2, 96384, Note_on_c, 0, 73, 59
2, 96572, Note_off_c, 0, 73, 0
2, 96576, Note_on_c, 0, 71, 59
2, 96764, Note_off_c, 0, 71, 0
2, 96768, Note_on_c, 0, 69, 59
2, 96956, Note_off_c, 0, 69, 0
2, 96960, Note_on_c, 0, 68, 59
2, 97148, Note_off_c, 0, 68, 0
2, 97152, Note_on_c, 0, 76, 59
2, 97340, Note_off_c, 0, 76, 0
2, 97344, Note_on_c, 0, 74, 59
2, 97532, Note_off_c, 0, 74, 0
2, 97920, Note_on_c, 0, 71, 61
2, 98108, Note_off_c, 0, 71, 0
2, 98112, Note_on_c, 0, 69, 63
2, 98300, Note_off_c, 0, 69, 0
2, 98304, Note_on_c, 0, 78, 66
2, 98492, Note_off_c, 0, 78, 0
2, 98496, Note_on_c, 0, 76, 70
2, 98684, Note_off_c, 0, 76, 0
2, 99072, Note_on_c, 0, 71, 79
2, 99260, Note_off_c, 0, 71, 0
2, 99264, Note_on_c, 0, 69, 79
2, 99452, Note_off_c, 0, 69, 0
2, 99456, Note_on_c, 0, 81, 79
2, 99644, Note_off_c, 0, 81, 0
2, 99648, Note_on_c, 0, 79, 79
2, 99836, Note_off_c, 0, 79, 0
2, 100224, Note_on_c, 0, 79, 59
2, 100412, Note_off_c, 0, 79, 0
2, 100416, Note_on_c, 0, 78, 59
2, 100604, Note_off_c, 0, 78, 0
2, 100608, Note_on_c, 0, 76, 59
2, 100796, Note_off_c, 0, 76, 0
2, 100800, Note_on_c, 0, 74, 59
2, 100988, Note_off_c, 0, 74, 0
2, 100992, Note_on_c, 0, 73, 59
2, 101168, Note_on_c, 0, 71, 59
2, 101180, Note_off_c, 0, 73, 0
2, 101356, Note_off_c, 0, 71, 0
2, 101376, Note_on_c, 0, 76, 59
2, 101468, Note_off_c, 0, 76, 0
2, 101472, Note_on_c, 0, 78, 59
2, 101500, Note_off_c, 0, 78, 0
2, 101504, Note_on_c, 0, 76, 59
2, 101532, Note_off_c, 0, 76, 0
2, 101536, Note_on_c, 0, 74, 59
2, 101564, Note_off_c, 0, 74, 0
2, 101568, Note_on_c, 0, 76, 59
2, 101660, Note_off_c, 0, 76, 0
2, 101664, Note_on_c, 0, 78, 59
2, 101756, Note_off_c, 0, 78, 0
2, 101760, Note_on_c, 0, 69, 59
2, 102140, Note_off_c, 0, 69, 0
2, 102144, Note_on_c, 0, 68, 59
2, 102524, Note_off_c, 0, 68, 0
2, 102528, Note_on_c, 0, 69, 79
2, 102572, Note_off_c, 0, 69, 0
2, 102576, Note_on_c, 0, 73, 79
2, 102608, Note_on_c, 0, 76, 79
2, 102620, Note_off_c, 0, 73, 0
2, 102912, Note_on_c, 0, 76, 79
2, 102988, Note_off_c, 0, 76, 0
2, 103676, Note_off_c, 0, 76, 0
2, 103680, Note_on_c, 0, 76, 79
2, 103772, Note_off_c, 0, 76, 0
2, 103776, Note_on_c, 0, 74, 79
2, 103868, Note_off_c, 0, 74, 0
2, 103872, Note_on_c, 0, 73, 79
2, 103964, Note_off_c, 0, 73, 0
2, 103968, Note_on_c, 0, 71, 79
2, 104060, Note_off_c, 0, 71, 0
2, 104064, Note_on_c, 0, 71, 79
2, 104156, Note_off_c, 0, 71, 0
2, 104160, Note_on_c, 0, 69, 79
2, 104252, Note_off_c, 0, 69, 0
2, 104256, Note_on_c, 0, 68, 79
2, 104348, Note_off_c, 0, 68, 0
2, 104352, Note_on_c, 0, 66, 79
2, 104444, Note_off_c, 0, 66, 0
2, 104448, Note_on_c, 0, 64, 79
2, 104540, Note_off_c, 0, 64, 0
2, 104544, Note_on_c, 0, 62, 79
2, 104636, Note_off_c, 0, 62, 0
2, 104640, Note_on_c, 0, 61, 79
2, 104732, Note_off_c, 0, 61, 0
2, 104736, Note_on_c, 0, 62, 79
2, 104828, Note_off_c, 0, 62, 0
2, 104832, Note_on_c, 0, 61, 79
2, 104924, Note_off_c, 0, 61, 0
2, 104928, Note_on_c, 0, 64, 79
2, 105020, Note_off_c, 0, 64, 0
2, 105024, Note_on_c, 0, 69, 79
2, 105116, Note_off_c, 0, 69, 0
2, 105120, Note_on_c, 0, 73, 79
2, 105212, Note_off_c, 0, 73, 0
2, 105216, Note_on_c, 0, 76, 79
2, 105788, Note_off_c, 0, 76, 0
2, 105792, Note_on_c, 0, 88, 79
2, 105980, Note_off_c, 0, 88, 0
2, 105984, Note_on_c, 0, 88, 79
2, 106076, Note_off_c, 0, 88, 0
2, 106080, Note_on_c, 0, 86, 79
2, 106172, Note_off_c, 0, 86, 0
2, 106176, Note_on_c, 0, 85, 79
2, 106268, Note_off_c, 0, 85, 0
2, 106272, Note_on_c, 0, 83, 79
2, 106364, Note_off_c, 0, 83, 0
2, 106368, Note_on_c, 0, 83, 79
2, 106460, Note_off_c, 0, 83, 0
2, 106464, Note_on_c, 0, 81, 79
2, 106556, Note_off_c, 0, 81, 0
2, 106560, Note_on_c, 0, 80, 79
2, 106652, Note_off_c, 0, 80, 0
2, 106656, Note_on_c, 0, 78, 79
2, 106748, Note_off_c, 0, 78, 0
2, 106752, Note_on_c, 0, 76, 79
2, 106844, Note_off_c, 0, 76, 0
2, 106848, Note_on_c, 0, 74, 79
2, 106940, Note_off_c, 0, 74, 0
2, 106944, Note_on_c, 0, 73, 79
2, 107036, Note_off_c, 0, 73, 0
2, 107040, Note_on_c, 0, 74, 79
2, 107132, Note_off_c, 0, 74, 0
2, 107136, Note_on_c, 0, 73, 79
2, 107228, Note_off_c, 0, 73, 0
2, 107232, Note_on_c, 0, 76, 79
2, 107324, Note_off_c, 0, 76, 0
2, 107328, Note_on_c, 0, 74, 79
2, 107420, Note_off_c, 0, 74, 0
2, 107424, Note_on_c, 0, 73, 79
2, 107516, Note_off_c, 0, 73, 0
2, 107520, Note_on_c, 0, 74, 79
2, 107612, Note_off_c, 0, 74, 0
2, 107616, Note_on_c, 0, 76, 79
2, 107708, Note_off_c, 0, 76, 0
2, 107712, Note_on_c, 0, 78, 79
2, 107804, Note_off_c, 0, 78, 0
2, 107808, Note_on_c, 0, 80, 79
2, 107900, Note_off_c, 0, 80, 0
2, 107904, Note_on_c, 0, 81, 79
2, 107996, Note_off_c, 0, 81, 0
2, 108000, Note_on_c, 0, 83, 79
2, 108092, Note_off_c, 0, 83, 0
2, 108096, Note_on_c, 0, 85, 79
2, 108188, Note_off_c, 0, 85, 0
2, 108192, Note_on_c, 0, 86, 79
2, 108284, Note_off_c, 0, 86, 0
2, 108288, Note_on_c, 0, 88, 79
2, 108380, Note_off_c, 0, 88, 0
2, 108384, Note_on_c, 0, 86, 79
2, 108476, Note_off_c, 0, 86, 0
2, 108480, Note_on_c, 0, 85, 79
2, 108572, Note_off_c, 0, 85, 0
2, 108576, Note_on_c, 0, 83, 79
2, 108668, Note_off_c, 0, 83, 0
2, 108672, Note_on_c, 0, 81, 79
2, 108764, Note_off_c, 0, 81, 0
2, 108768, Note_on_c, 0, 80, 79
2, 108860, Note_off_c, 0, 80, 0
2, 108864, Note_on_c, 0, 78, 79
2, 108956, Note_off_c, 0, 78, 0
2, 108960, Note_on_c, 0, 76, 79
2, 109052, Note_off_c, 0, 76, 0
2, 109056, Note_on_c, 0, 74, 79
2, 109148, Note_off_c, 0, 74, 0
2, 109152, Note_on_c, 0, 73, 79
2, 109244, Note_off_c, 0, 73, 0
2, 109248, Note_on_c, 0, 71, 79
2, 109340, Note_off_c, 0, 71, 0
2, 109344, Note_on_c, 0, 69, 79
2, 109436, Note_off_c, 0, 69, 0
2, 109440, Note_on_c, 0, 78, 79
2, 109484, Note_off_c, 0, 78, 0
2, 109488, Note_on_c, 0, 80, 79
2, 109532, Note_off_c, 0, 80, 0
2, 109536, Note_on_c, 0, 78, 79
2, 109580, Note_off_c, 0, 78, 0
2, 109584, Note_on_c, 0, 76, 79
2, 109628, Note_off_c, 0, 76, 0
2, 109632, Note_on_c, 0, 78, 79
2, 109692, Note_off_c, 0, 78, 0
2, 109696, Note_on_c, 0, 80, 79
2, 109756, Note_off_c, 0, 80, 0
2, 109760, Note_on_c, 0, 81, 79
2, 109820, Note_off_c, 0, 81, 0
2, 109824, Note_on_c, 0, 69, 79
2, 110204, Note_off_c, 0, 69, 0
2, 110208, Note_on_c, 0, 68, 79
2, 110208, Note_on_c, 0, 73, 79
2, 110396, Note_off_c, 0, 73, 0
2, 110400, Note_on_c, 0, 71, 79
2, 110588, Note_off_c, 0, 68, 0
2, 110588, Note_off_c, 0, 71, 0
2, 110592, Note_on_c, 0, 69, 79
2, 110972, Note_off_c, 0, 69, 0
2, 111744, Key_signature, 2, "major"
2, 111744, Note_on_c, 0, 69, 59
2, 111744, Note_on_c, 0, 66, 59
2, 111744, Note_on_c, 0, 66, 59
2, 111932, Note_off_c, 0, 66, 0
2, 111936, Note_on_c, 0, 57, 59
2, 112124, Note_off_c, 0, 69, 0
2, 112124, Note_off_c, 0, 57, 0
2, 112128, Note_on_c, 0, 66, 59
2, 112128, Note_on_c, 0, 62, 59
2, 112316, Note_off_c, 0, 62, 0
2, 112320, Note_on_c, 0, 57, 59
2, 112508, Note_off_c, 0, 66, 0
2, 112508, Note_off_c, 0, 66, 0
2, 112508, Note_off_c, 0, 57, 0
2, 112512, Note_on_c, 0, 67, 59
2, 112512, Note_on_c, 0, 64, 59
2, 112700, Note_off_c, 0, 64, 0
2, 112704, Note_on_c, 0, 57, 59
2, 112892, Note_off_c, 0, 67, 0
2, 112892, Note_off_c, 0, 57, 0
2, 112896, Note_on_c, 0, 69, 59
2, 112896, Note_on_c, 0, 66, 59
2, 113084, Note_off_c, 0, 66, 0
2, 113088, Note_on_c, 0, 57, 59
2, 113264, Note_on_c, 0, 62, 59
2, 113276, Note_off_c, 0, 69, 0
2, 113276, Note_off_c, 0, 57, 0
2, 113280, Note_on_c, 0, 66, 59
2, 113452, Note_off_c, 0, 62, 0
2, 113456, Note_on_c, 0, 64, 59
2, 113468, Note_off_c, 0, 66, 0
2, 113472, Note_on_c, 0, 61, 59
2, 113644, Note_off_c, 0, 64, 0
2, 113648, Note_on_c, 0, 66, 59
2, 113660, Note_off_c, 0, 61, 0
2, 113664, Note_on_c, 0, 62, 59
2, 113836, Note_off_c, 0, 66, 0
2, 113840, Note_on_c, 0, 67, 59
2, 113852, Note_off_c, 0, 62, 0
2, 113856, Note_on_c, 0, 64, 59
2, 114028, Note_off_c, 0, 67, 0
2, 114044, Note_off_c, 0, 64, 0
2, 114048, Note_on_c, 0, 69, 59
2, 114048, Note_on_c, 0, 66, 59
2, 114048, Note_on_c, 0, 66, 59
2, 114048, Note_on_c, 0, 69, 59
2, 114236, Note_off_c, 0, 66, 0
2, 114240, Note_on_c, 0, 62, 59
2, 114428, Note_off_c, 0, 69, 0
2, 114428, Note_off_c, 0, 62, 0
2, 114432, Note_on_c, 0, 71, 59
2, 114432, Note_on_c, 0, 67, 59
2, 114620, Note_off_c, 0, 67, 0
2, 114624, Note_on_c, 0, 62, 59
2, 114812, Note_off_c, 0, 66, 0
2, 114812, Note_off_c, 0, 69, 0
2, 114812, Note_off_c, 0, 71, 0
2, 114812, Note_off_c, 0, 62, 0
2, 114816, Note_on_c, 0, 73, 59
2, 114816, Note_on_c, 0, 67, 59
2, 115004, Note_off_c, 0, 67, 0
2, 115008, Note_on_c, 0, 64, 59
2, 115196, Note_off_c, 0, 73, 0
2, 115196, Note_off_c, 0, 64, 0
2, 115200, Note_on_c, 0, 74, 59
2, 115200, Note_on_c, 0, 66, 59
2, 115388, Note_off_c, 0, 66, 0
2, 115392, Note_on_c, 0, 69, 59
2, 115580, Note_off_c, 0, 74, 0
2, 115580, Note_off_c, 0, 69, 0
2, 115584, Note_on_c, 0, 66, 59
2, 115584, Note_on_c, 0, 62, 59
2, 115584, Note_on_c, 0, 78, 59
2, 115772, Note_off_c, 0, 66, 0
2, 115772, Note_off_c, 0, 62, 0
2, 115772, Note_off_c, 0, 78, 0
2, 115776, Note_on_c, 0, 64, 59
2, 115776, Note_on_c, 0, 61, 59
2, 115776, Note_on_c, 0, 76, 59
2, 115964, Note_off_c, 0, 64, 0
2, 115964, Note_off_c, 0, 61, 0
2, 115964, Note_off_c, 0, 76, 0
2, 115968, Note_on_c, 0, 66, 59
2, 115968, Note_on_c, 0, 62, 59
2, 115968, Note_on_c, 0, 78, 59
2, 116156, Note_off_c, 0, 66, 0
2, 116156, Note_off_c, 0, 62, 0
2, 116156, Note_off_c, 0, 78, 0
2, 116160, Note_on_c, 0, 67, 59
2, 116160, Note_on_c, 0, 64, 59
2, 116160, Note_on_c, 0, 79, 59
2, 116348, Note_off_c, 0, 67, 0
2, 116348, Note_off_c, 0, 64, 0
2, 116348, Note_off_c, 0, 79, 0
2, 116352, Note_on_c, 0, 69, 59
2, 116352, Note_on_c, 0, 66, 59
2, 116352, Note_on_c, 0, 81, 59
2, 116352, Note_on_c, 0, 81, 59
2, 116540, Note_off_c, 0, 66, 0
2, 116544, Note_on_c, 0, 62, 59
2, 116732, Note_off_c, 0, 69, 0
2, 116732, Note_off_c, 0, 81, 0
2, 116732, Note_off_c, 0, 62, 0
2, 116736, Note_on_c, 0, 71, 59
2, 116736, Note_on_c, 0, 67, 59
2, 116736, Note_on_c, 0, 83, 59
2, 116924, Note_off_c, 0, 67, 0
2, 116928, Note_on_c, 0, 62, 59
2, 117116, Note_off_c, 0, 81, 0
2, 117116, Note_off_c, 0, 71, 0
2, 117116, Note_off_c, 0, 83, 0
2, 117116, Note_off_c, 0, 62, 0
2, 117120, Note_on_c, 0, 73, 59
2, 117120, Note_on_c, 0, 67, 59
2, 117120, Note_on_c, 0, 85, 59
2, 117308, Note_off_c, 0, 67, 0
2, 117312, Note_on_c, 0, 64, 59
2, 117500, Note_off_c, 0, 73, 0
2, 117500, Note_off_c, 0, 85, 0
2, 117500, Note_off_c, 0, 64, 0
2, 117504, Note_on_c, 0, 66, 59
2, 117504, Note_on_c, 0, 74, 59
2, 117504, Note_on_c, 0, 86, 59
2, 117504, Note_on_c, 0, 86, 59
2, 117692, Note_off_c, 0, 66, 0
2, 117696, Note_on_c, 0, 69, 59
2, 117884, Note_off_c, 0, 74, 0
2, 117884, Note_off_c, 0, 86, 0
2, 117884, Note_off_c, 0, 69, 0
2, 117888, Note_on_c, 0, 66, 66
2, 117888, Note_on_c, 0, 74, 66
2, 118076, Note_off_c, 0, 66, 0
2, 118076, Note_off_c, 0, 74, 0
2, 118080, Note_on_c, 0, 64, 66
2, 118080, Note_on_c, 0, 73, 66
2, 118268, Note_off_c, 0, 86, 0
2, 118268, Note_off_c, 0, 64, 0
2, 118268, Note_off_c, 0, 73, 0
2, 118272, Note_on_c, 0, 62, 66
2, 118272, Note_on_c, 0, 71, 66
2, 118460, Note_off_c, 0, 62, 0
2, 118460, Note_off_c, 0, 71, 0
2, 118464, Note_on_c, 0, 61, 66
2, 118464, Note_on_c, 0, 69, 66
2, 118652, Note_off_c, 0, 61, 0
2, 118652, Note_off_c, 0, 69, 0
2, 118656, Note_on_c, 0, 68, 67
2, 118656, Note_on_c, 0, 59, 67
2, 118844, Note_off_c, 0, 59, 0
2, 118848, Note_on_c, 0, 64, 69
2, 119036, Note_off_c, 0, 68, 0
2, 119036, Note_off_c, 0, 64, 0
2, 119040, Note_on_c, 0, 69, 70
2, 119040, Note_on_c, 0, 61, 70
2, 119228, Note_off_c, 0, 61, 0
2, 119232, Note_on_c, 0, 64, 71
2, 119420, Note_off_c, 0, 69, 0
2, 119420, Note_off_c, 0, 64, 0
2, 119424, Note_on_c, 0, 73, 73
2, 119424, Note_on_c, 0, 69, 73
2, 119612, Note_off_c, 0, 69, 0
2, 119616, Note_on_c, 0, 64, 74
2, 119804, Note_off_c, 0, 73, 0
2, 119804, Note_off_c, 0, 64, 0
2, 119808, Note_on_c, 0, 71, 75
2, 119808, Note_on_c, 0, 68, 75
2, 119984, Note_on_c, 0, 64, 77
2, 119996, Note_off_c, 0, 68, 0
2, 120172, Note_off_c, 0, 64, 0
2, 120188, Note_off_c, 0, 71, 0
2, 120192, Note_on_c, 0, 74, 59
2, 120192, Note_on_c, 0, 66, 59
2, 120192, Note_on_c, 0, 86, 59
2, 120380, Note_off_c, 0, 74, 0
2, 120380, Note_off_c, 0, 66, 0
2, 120380, Note_off_c, 0, 86, 0
2, 120384, Note_on_c, 0, 73, 59
2, 120384, Note_on_c, 0, 64, 59
2, 120384, Note_on_c, 0, 85, 59
2, 120572, Note_off_c, 0, 73, 0
2, 120572, Note_off_c, 0, 64, 0
2, 120572, Note_off_c, 0, 85, 0
2, 120576, Note_on_c, 0, 71, 59
2, 120576, Note_on_c, 0, 62, 59
2, 120576, Note_on_c, 0, 83, 59
2, 120764, Note_off_c, 0, 71, 0
2, 120764, Note_off_c, 0, 62, 0
2, 120764, Note_off_c, 0, 83, 0
2, 120768, Note_on_c, 0, 69, 59
2, 120768, Note_on_c, 0, 61, 59
2, 120768, Note_on_c, 0, 81, 59
2, 120956, Note_off_c, 0, 69, 0
2, 120956, Note_off_c, 0, 61, 0
2, 120956, Note_off_c, 0, 81, 0
2, 120960, Note_on_c, 0, 87, 59
2, 121004, Note_off_c, 0, 87, 0
2, 121008, Note_on_c, 0, 88, 59
2, 121008, Note_on_c, 0, 88, 59
2, 121008, Note_on_c, 0, 68, 59
2, 121008, Note_on_c, 0, 59, 59
2, 121152, Note_off_c, 0, 59, 0
2, 121152, Note_on_c, 0, 64, 59
2, 121340, Note_off_c, 0, 88, 0
2, 121340, Note_off_c, 0, 68, 0
2, 121340, Note_off_c, 0, 64, 0
2, 121344, Note_on_c, 0, 87, 59
2, 121388, Note_off_c, 0, 87, 0
2, 121392, Note_on_c, 0, 69, 59
2, 121392, Note_on_c, 0, 88, 59
2, 121392, Note_on_c, 0, 61, 59
2, 121536, Note_off_c, 0, 61, 0
2, 121536, Note_on_c, 0, 64, 59
2, 121724, Note_off_c, 0, 88, 0
2, 121724, Note_off_c, 0, 69, 0
2, 121724, Note_off_c, 0, 88, 0
2, 121724, Note_off_c, 0, 64, 0
2, 121728, Note_on_c, 0, 87, 59
2, 121772, Note_off_c, 0, 87, 0
2, 121776, Note_on_c, 0, 88, 59
2, 121776, Note_on_c, 0, 73, 59
2, 121776, Note_on_c, 0, 69, 59
2, 121920, Note_off_c, 0, 69, 0
2, 121920, Note_on_c, 0, 64, 59
2, 122108, Note_off_c, 0, 88, 0
2, 122108, Note_off_c, 0, 73, 0
2, 122108, Note_off_c, 0, 64, 0
2, 122112, Note_on_c, 0, 87, 59
2, 122156, Note_off_c, 0, 87, 0
2, 122160, Note_on_c, 0, 88, 59
2, 122160, Note_on_c, 0, 88, 59
2, 122160, Note_on_c, 0, 71, 59
2, 122160, Note_on_c, 0, 68, 59
2, 122304, Note_off_c, 0, 68, 0
2, 122304, Note_on_c, 0, 64, 59
2, 122492, Note_off_c, 0, 88, 0
2, 122492, Note_off_c, 0, 71, 0
2, 122492, Note_off_c, 0, 64, 0
2, 122496, Note_on_c, 0, 64, 74
2, 122496, Note_on_c, 0, 73, 74
2, 122684, Note_off_c, 0, 73, 0
2, 122688, Note_on_c, 0, 71, 74
2, 122876, Note_off_c, 0, 88, 0
2, 122876, Note_off_c, 0, 71, 0
2, 122880, Note_on_c, 0, 73, 74
2, 123068, Note_off_c, 0, 73, 0
2, 123072, Note_on_c, 0, 74, 74
2, 123260, Note_off_c, 0, 64, 0
2, 123260, Note_off_c, 0, 74, 0
2, 123264, Note_on_c, 0, 76, 74
2, 123264, Note_on_c, 0, 64, 74
2, 123452, Note_off_c, 0, 64, 0
2, 123456, Note_on_c, 0, 69, 74
2, 123644, Note_off_c, 0, 76, 0
2, 123644, Note_off_c, 0, 69, 0
2, 123648, Note_on_c, 0, 73, 74
2, 123648, Note_on_c, 0, 69, 74
2, 123836, Note_off_c, 0, 69, 0
2, 123840, Note_on_c, 0, 64, 74
2, 124028, Note_off_c, 0, 73, 0
2, 124028, Note_off_c, 0, 64, 0
2, 124032, Note_on_c, 0, 71, 74
2, 124032, Note_on_c, 0, 68, 74
2, 124220, Note_off_c, 0, 68, 0
2, 124224, Note_on_c, 0, 64, 74
2, 124412, Note_off_c, 0, 71, 0
2, 124412, Note_off_c, 0, 64, 0
2, 124416, Note_on_c, 0, 69, 74
2, 124416, Note_on_c, 0, 69, 74
2, 124604, Note_off_c, 0, 69, 0
2, 124608, Note_on_c, 0, 64, 74
2, 124796, Note_off_c, 0, 69, 0
2, 124796, Note_off_c, 0, 64, 0
2, 124800, Note_on_c, 0, 73, 59
2, 124800, Note_on_c, 0, 69, 59
2, 124800, Note_on_c, 0, 85, 59
2, 124988, Note_off_c, 0, 73, 0
2, 124988, Note_off_c, 0, 69, 0
2, 124988, Note_off_c, 0, 85, 0
2, 124992, Note_on_c, 0, 71, 59
2, 124992, Note_on_c, 0, 68, 59
2, 124992, Note_on_c, 0, 83, 59
2, 125180, Note_off_c, 0, 71, 0
2, 125180, Note_off_c, 0, 68, 0
2, 125180, Note_off_c, 0, 83, 0
2, 125184, Note_on_c, 0, 73, 59
2, 125184, Note_on_c, 0, 69, 59
2, 125184, Note_on_c, 0, 85, 59
2, 125372, Note_off_c, 0, 73, 0
2, 125372, Note_off_c, 0, 69, 0
2, 125372, Note_off_c, 0, 85, 0
2, 125376, Note_on_c, 0, 74, 59
2, 125376, Note_on_c, 0, 71, 59
2, 125376, Note_on_c, 0, 86, 59
2, 125564, Note_off_c, 0, 74, 0
2, 125564, Note_off_c, 0, 71, 0
2, 125564, Note_off_c, 0, 86, 0
2, 125568, Note_on_c, 0, 76, 59
2, 125568, Note_on_c, 0, 73, 59
2, 125568, Note_on_c, 0, 88, 59
2, 125568, Note_on_c, 0, 88, 59
2, 125756, Note_off_c, 0, 73, 0
2, 125760, Note_on_c, 0, 64, 59
2, 125948, Note_off_c, 0, 76, 0
2, 125948, Note_off_c, 0, 88, 0
2, 125948, Note_off_c, 0, 64, 0
2, 125952, Note_on_c, 0, 73, 59
2, 125952, Note_on_c, 0, 69, 59
2, 125952, Note_on_c, 0, 85, 59
2, 126140, Note_off_c, 0, 69, 0
2, 126144, Note_on_c, 0, 64, 59
2, 126332, Note_off_c, 0, 88, 0
2, 126332, Note_off_c, 0, 73, 0
2, 126332, Note_off_c, 0, 85, 0
2, 126332, Note_off_c, 0, 64, 0
2, 126336, Note_on_c, 0, 71, 59
2, 126336, Note_on_c, 0, 68, 59
2, 126336, Note_on_c, 0, 83, 59
2, 126524, Note_off_c, 0, 68, 0
2, 126528, Note_on_c, 0, 64, 59
2, 126716, Note_off_c, 0, 71, 0
2, 126716, Note_off_c, 0, 83, 0
2, 126716, Note_off_c, 0, 64, 0
2, 126720, Note_on_c, 0, 69, 59
2, 126720, Note_on_c, 0, 81, 59
2, 126908, Note_off_c, 0, 69, 0
2, 126912, Note_on_c, 0, 64, 79
2, 127100, Note_off_c, 0, 81, 0
2, 127100, Note_off_c, 0, 64, 0
2, 127104, Note_on_c, 0, 66, 79
2, 127292, Note_off_c, 0, 66, 0
2, 127296, Note_on_c, 0, 74, 79
2, 127484, Note_off_c, 0, 74, 0
2, 127488, Note_on_c, 0, 71, 79
2, 127676, Note_off_c, 0, 71, 0
2, 127680, Note_on_c, 0, 68, 79
2, 127868, Note_off_c, 0, 68, 0
2, 127872, Note_on_c, 0, 69, 79
2, 128060, Note_off_c, 0, 69, 0
2, 128064, Note_on_c, 0, 64, 79
2, 128252, Note_off_c, 0, 64, 0
2, 128256, Note_on_c, 0, 66, 79
2, 128444, Note_off_c, 0, 66, 0
2, 128448, Note_on_c, 0, 74, 79
2, 128636, Note_off_c, 0, 74, 0
2, 128640, Note_on_c, 0, 71, 79
2, 128828, Note_off_c, 0, 71, 0
2, 128832, Note_on_c, 0, 68, 79
2, 129020, Note_off_c, 0, 68, 0
2, 129024, Note_on_c, 0, 69, 79
2, 129212, Note_off_c, 0, 69, 0
2, 129216, Note_on_c, 0, 68, 79
2, 129404, Note_off_c, 0, 68, 0
2, 129408, Note_on_c, 0, 69, 79
2, 129596, Note_off_c, 0, 69, 0
2, 129600, Note_on_c, 0, 71, 79
2, 129788, Note_off_c, 0, 71, 0
2, 129792, Note_on_c, 0, 67, 79
2, 129980, Note_off_c, 0, 67, 0
2, 129984, Note_on_c, 0, 64, 79
2, 130172, Note_off_c, 0, 64, 0
2, 130176, Note_on_c, 0, 69, 59
2, 130176, Note_on_c, 0, 66, 59
2, 130176, Note_on_c, 0, 66, 59
2, 130364, Note_off_c, 0, 66, 0
2, 130368, Note_on_c, 0, 57, 59
2, 130556, Note_off_c, 0, 69, 0
2, 130556, Note_off_c, 0, 57, 0
2, 130560, Note_on_c, 0, 66, 59
2, 130560, Note_on_c, 0, 62, 59
2, 130748, Note_off_c, 0, 62, 0
2, 130752, Note_on_c, 0, 57, 59
2, 130940, Note_off_c, 0, 66, 0
2, 130940, Note_off_c, 0, 66, 0
2, 130940, Note_off_c, 0, 57, 0
2, 130944, Note_on_c, 0, 67, 59
2, 130944, Note_on_c, 0, 64, 59
2, 131132, Note_off_c, 0, 64, 0
2, 131136, Note_on_c, 0, 57, 59
2, 131324, Note_off_c, 0, 67, 0
2, 131324, Note_off_c, 0, 57, 0
2, 131328, Note_on_c, 0, 69, 59
2, 131328, Note_on_c, 0, 66, 59
2, 131516, Note_off_c, 0, 66, 0
2, 131520, Note_on_c, 0, 57, 59
2, 131696, Note_on_c, 0, 62, 59
2, 131708, Note_off_c, 0, 69, 0
2, 131708, Note_off_c, 0, 57, 0
2, 131712, Note_on_c, 0, 66, 59
2, 131884, Note_off_c, 0, 62, 0
2, 131888, Note_on_c, 0, 64, 59
2, 131900, Note_off_c, 0, 66, 0
2, 131904, Note_on_c, 0, 61, 59
2, 132076, Note_off_c, 0, 64, 0
2, 132080, Note_on_c, 0, 66, 59
2, 132092, Note_off_c, 0, 61, 0
2, 132096, Note_on_c, 0, 62, 59
2, 132268, Note_off_c, 0, 66, 0
2, 132272, Note_on_c, 0, 67, 59
2, 132284, Note_off_c, 0, 62, 0
2, 132288, Note_on_c, 0, 64, 59
2, 132460, Note_off_c, 0, 67, 0
2, 132476, Note_off_c, 0, 64, 0
2, 132480, Note_on_c, 0, 69, 59
2, 132480, Note_on_c, 0, 66, 59
2, 132480, Note_on_c, 0, 66, 59
2, 132480, Note_on_c, 0, 69, 59
2, 132668, Note_off_c, 0, 66, 0
2, 132672, Note_on_c, 0, 62, 59
2, 132860, Note_off_c, 0, 69, 0
2, 132860, Note_off_c, 0, 62, 0
2, 132864, Note_on_c, 0, 71, 59
2, 132864, Note_on_c, 0, 67, 59
2, 133052, Note_off_c, 0, 67, 0
2, 133056, Note_on_c, 0, 62, 59
2, 133244, Note_off_c, 0, 66, 0
2, 133244, Note_off_c, 0, 69, 0
2, 133244, Note_off_c, 0, 71, 0
2, 133244, Note_off_c, 0, 62, 0
2, 133248, Note_on_c, 0, 73, 59
2, 133248, Note_on_c, 0, 67, 59
2, 133436, Note_off_c, 0, 67, 0
2, 133440, Note_on_c, 0, 64, 59
2, 133628, Note_off_c, 0, 73, 0
2, 133628, Note_off_c, 0, 64, 0
2, 133632, Note_on_c, 0, 74, 59
2, 133632, Note_on_c, 0, 66, 59
2, 133820, Note_off_c, 0, 66, 0
2, 133824, Note_on_c, 0, 69, 59
2, 134012, Note_off_c, 0, 74, 0
2, 134012, Note_off_c, 0, 69, 0
2, 134016, Note_on_c, 0, 66, 59
2, 134016, Note_on_c, 0, 62, 59
2, 134016, Note_on_c, 0, 78, 59
2, 134204, Note_off_c, 0, 66, 0
2, 134204, Note_off_c, 0, 62, 0
2, 134204, Note_off_c, 0, 78, 0
2, 134208, Note_on_c, 0, 64, 59
2, 134208, Note_on_c, 0, 61, 59
2, 134208, Note_on_c, 0, 76, 59
2, 134396, Note_off_c, 0, 64, 0
2, 134396, Note_off_c, 0, 61, 0
2, 134396, Note_off_c, 0, 76, 0
2, 134400, Note_on_c, 0, 66, 59
2, 134400, Note_on_c, 0, 62, 59
2, 134400, Note_on_c, 0, 78, 59
2, 134588, Note_off_c, 0, 66, 0
2, 134588, Note_off_c, 0, 62, 0
2, 134588, Note_off_c, 0, 78, 0
2, 134592, Note_on_c, 0, 67, 59
2, 134592, Note_on_c, 0, 64, 59
2, 134592, Note_on_c, 0, 79, 59
2, 134780, Note_off_c, 0, 67, 0
2, 134780, Note_off_c, 0, 64, 0
2, 134780, Note_off_c, 0, 79, 0
2, 134784, Note_on_c, 0, 69, 59
2, 134784, Note_on_c, 0, 66, 59
2, 134784, Note_on_c, 0, 81, 59
2, 134784, Note_on_c, 0, 81, 59
2, 134972, Note_off_c, 0, 66, 0
2, 134976, Note_on_c, 0, 62, 59
2, 135164, Note_off_c, 0, 69, 0
2, 135164, Note_off_c, 0, 81, 0
2, 135164, Note_off_c, 0, 62, 0
2, 135168, Note_on_c, 0, 71, 59
2, 135168, Note_on_c, 0, 67, 59
2, 135168, Note_on_c, 0, 83, 59
2, 135356, Note_off_c, 0, 67, 0
2, 135360, Note_on_c, 0, 62, 59
2, 135548, Note_off_c, 0, 81, 0
2, 135548, Note_off_c, 0, 71, 0
2, 135548, Note_off_c, 0, 83, 0
2, 135548, Note_off_c, 0, 62, 0
2, 135552, Note_on_c, 0, 73, 59
2, 135552, Note_on_c, 0, 67, 59
2, 135552, Note_on_c, 0, 85, 59
2, 135740, Note_off_c, 0, 67, 0
2, 135744, Note_on_c, 0, 64, 59
2, 135932, Note_off_c, 0, 73, 0
2, 135932, Note_off_c, 0, 85, 0
2, 135932, Note_off_c, 0, 64, 0
2, 135936, Note_on_c, 0, 66, 59
2, 135936, Note_on_c, 0, 74, 59
2, 135936, Note_on_c, 0, 86, 59
2, 135936, Note_on_c, 0, 86, 59
2, 136124, Note_off_c, 0, 66, 0
2, 136128, Note_on_c, 0, 69, 59
2, 136316, Note_off_c, 0, 74, 0
2, 136316, Note_off_c, 0, 86, 0
2, 136316, Note_off_c, 0, 69, 0
2, 136320, Note_on_c, 0, 66, 66
2, 136320, Note_on_c, 0, 74, 66
2, 136508, Note_off_c, 0, 66, 0
2, 136508, Note_off_c, 0, 74, 0
2, 136512, Note_on_c, 0, 64, 66
2, 136512, Note_on_c, 0, 73, 66
2, 136700, Note_off_c, 0, 86, 0
2, 136700, Note_off_c, 0, 64, 0
2, 136700, Note_off_c, 0, 73, 0
2, 136704, Note_on_c, 0, 62, 66
2, 136704, Note_on_c, 0, 71, 66
2, 136892, Note_off_c, 0, 62, 0
2, 136892, Note_off_c, 0, 71, 0
2, 136896, Note_on_c, 0, 61, 66
2, 136896, Note_on_c, 0, 69, 66
2, 137084, Note_off_c, 0, 61, 0
2, 137084, Note_off_c, 0, 69, 0
2, 137088, Note_on_c, 0, 68, 67
2, 137088, Note_on_c, 0, 59, 67
2, 137276, Note_off_c, 0, 59, 0
2, 137280, Note_on_c, 0, 64, 69
2, 137468, Note_off_c, 0, 68, 0
2, 137468, Note_off_c, 0, 64, 0
2, 137472, Note_on_c, 0, 69, 70
2, 137472, Note_on_c, 0, 61, 70
2, 137660, Note_off_c, 0, 61, 0
2, 137664, Note_on_c, 0, 64, 71
2, 137852, Note_off_c, 0, 69, 0
2, 137852, Note_off_c, 0, 64, 0
2, 137856, Note_on_c, 0, 73, 73
2, 137856, Note_on_c, 0, 69, 73
2, 138044, Note_off_c, 0, 69, 0
2, 138048, Note_on_c, 0, 64, 74
2, 138236, Note_off_c, 0, 73, 0
2, 138236, Note_off_c, 0, 64, 0
2, 138240, Note_on_c, 0, 71, 75
2, 138240, Note_on_c, 0, 68, 75
2, 138416, Note_on_c, 0, 64, 77
2, 138428, Note_off_c, 0, 68, 0
2, 138604, Note_off_c, 0, 64, 0
2, 138620, Note_off_c, 0, 71, 0
2, 138624, Note_on_c, 0, 74, 59
2, 138624, Note_on_c, 0, 66, 59
2, 138624, Note_on_c, 0, 86, 59
2, 138812, Note_off_c, 0, 74, 0
2, 138812, Note_off_c, 0, 66, 0
2, 138812, Note_off_c, 0, 86, 0
2, 138816, Note_on_c, 0, 73, 59
2, 138816, Note_on_c, 0, 64, 59
2, 138816, Note_on_c, 0, 85, 59
2, 139004, Note_off_c, 0, 73, 0
2, 139004, Note_off_c, 0, 64, 0
2, 139004, Note_off_c, 0, 85, 0
2, 139008, Note_on_c, 0, 71, 59
2, 139008, Note_on_c, 0, 62, 59
2, 139008, Note_on_c, 0, 83, 59
2, 139196, Note_off_c, 0, 71, 0
2, 139196, Note_off_c, 0, 62, 0
2, 139196, Note_off_c, 0, 83, 0
2, 139200, Note_on_c, 0, 69, 59
2, 139200, Note_on_c, 0, 61, 59
2, 139200, Note_on_c, 0, 81, 59
2, 139388, Note_off_c, 0, 69, 0
2, 139388, Note_off_c, 0, 61, 0
2, 139388, Note_off_c, 0, 81, 0
2, 139392, Note_on_c, 0, 87, 59
2, 139436, Note_off_c, 0, 87, 0
2, 139440, Note_on_c, 0, 88, 59
2, 139440, Note_on_c, 0, 88, 59
2, 139440, Note_on_c, 0, 68, 59
2, 139440, Note_on_c, 0, 59, 59
2, 139584, Note_off_c, 0, 59, 0
2, 139584, Note_on_c, 0, 64, 59
2, 139772, Note_off_c, 0, 88, 0
2, 139772, Note_off_c, 0, 68, 0
2, 139772, Note_off_c, 0, 64, 0
2, 139776, Note_on_c, 0, 87, 59
2, 139820, Note_off_c, 0, 87, 0
2, 139824, Note_on_c, 0, 88, 59
2, 139824, Note_on_c, 0, 69, 59
2, 139824, Note_on_c, 0, 61, 59
2, 139968, Note_off_c, 0, 61, 0
2, 139968, Note_on_c, 0, 64, 59
2, 140156, Note_off_c, 0, 88, 0
2, 140156, Note_off_c, 0, 88, 0
2, 140156, Note_off_c, 0, 69, 0
2, 140156, Note_off_c, 0, 64, 0
2, 140160, Note_on_c, 0, 87, 59
2, 140204, Note_off_c, 0, 87, 0
2, 140208, Note_on_c, 0, 88, 59
2, 140208, Note_on_c, 0, 73, 59
2, 140208, Note_on_c, 0, 69, 59
2, 140352, Note_off_c, 0, 69, 0
2, 140352, Note_on_c, 0, 64, 59
2, 140540, Note_off_c, 0, 88, 0
2, 140540, Note_off_c, 0, 73, 0
2, 140540, Note_off_c, 0, 64, 0
2, 140544, Note_on_c, 0, 87, 59
2, 140588, Note_off_c, 0, 87, 0
2, 140592, Note_on_c, 0, 88, 59
2, 140592, Note_on_c, 0, 88, 59
2, 140592, Note_on_c, 0, 71, 59
2, 140592, Note_on_c, 0, 68, 59
2, 140736, Note_off_c, 0, 68, 0
2, 140736, Note_on_c, 0, 64, 59
2, 140924, Note_off_c, 0, 88, 0
2, 140924, Note_off_c, 0, 71, 0
2, 140924, Note_off_c, 0, 64, 0
2, 140928, Note_on_c, 0, 73, 74
2, 140928, Note_on_c, 0, 64, 74
2, 141116, Note_off_c, 0, 73, 0
2, 141120, Note_on_c, 0, 71, 74
2, 141308, Note_off_c, 0, 88, 0
2, 141308, Note_off_c, 0, 71, 0
2, 141312, Note_on_c, 0, 73, 74
2, 141500, Note_off_c, 0, 73, 0
2, 141504, Note_on_c, 0, 74, 74
2, 141692, Note_off_c, 0, 64, 0
2, 141692, Note_off_c, 0, 74, 0
2, 141696, Note_on_c, 0, 76, 74
2, 141696, Note_on_c, 0, 64, 74
2, 141884, Note_off_c, 0, 64, 0
2, 141888, Note_on_c, 0, 69, 74
2, 142076, Note_off_c, 0, 76, 0
2, 142076, Note_off_c, 0, 69, 0
2, 142080, Note_on_c, 0, 73, 74
2, 142080, Note_on_c, 0, 69, 74
2, 142268, Note_off_c, 0, 69, 0
2, 142272, Note_on_c, 0, 64, 74
2, 142460, Note_off_c, 0, 73, 0
2, 142460, Note_off_c, 0, 64, 0
2, 142464, Note_on_c, 0, 71, 74
2, 142464, Note_on_c, 0, 68, 74
2, 142652, Note_off_c, 0, 68, 0
2, 142656, Note_on_c, 0, 64, 74
2, 142844, Note_off_c, 0, 71, 0
2, 142844, Note_off_c, 0, 64, 0
2, 142848, Note_on_c, 0, 69, 74
2, 142848, Note_on_c, 0, 69, 74
2, 143036, Note_off_c, 0, 69, 0
2, 143040, Note_on_c, 0, 64, 74
2, 143228, Note_off_c, 0, 69, 0
2, 143228, Note_off_c, 0, 64, 0
2, 143232, Note_on_c, 0, 73, 59
2, 143232, Note_on_c, 0, 69, 59
2, 143232, Note_on_c, 0, 85, 59
2, 143420, Note_off_c, 0, 73, 0
2, 143420, Note_off_c, 0, 69, 0
2, 143420, Note_off_c, 0, 85, 0
2, 143424, Note_on_c, 0, 71, 59
2, 143424, Note_on_c, 0, 68, 59
2, 143424, Note_on_c, 0, 83, 59
2, 143612, Note_off_c, 0, 71, 0
2, 143612, Note_off_c, 0, 68, 0
2, 143612, Note_off_c, 0, 83, 0
2, 143616, Note_on_c, 0, 73, 59
2, 143616, Note_on_c, 0, 69, 59
2, 143616, Note_on_c, 0, 85, 59
2, 143804, Note_off_c, 0, 73, 0
2, 143804, Note_off_c, 0, 69, 0
2, 143804, Note_off_c, 0, 85, 0
2, 143808, Note_on_c, 0, 74, 59
2, 143808, Note_on_c, 0, 71, 59
2, 143808, Note_on_c, 0, 86, 59
2, 143996, Note_off_c, 0, 74, 0
2, 143996, Note_off_c, 0, 71, 0
2, 143996, Note_off_c, 0, 86, 0
2, 144000, Note_on_c, 0, 76, 59
2, 144000, Note_on_c, 0, 73, 59
2, 144000, Note_on_c, 0, 88, 59
2, 144000, Note_on_c, 0, 88, 59
2, 144188, Note_off_c, 0, 73, 0
2, 144192, Note_on_c, 0, 64, 59
2, 144380, Note_off_c, 0, 76, 0
2, 144380, Note_off_c, 0, 88, 0
2, 144380, Note_off_c, 0, 64, 0
2, 144384, Note_on_c, 0, 73, 59
2, 144384, Note_on_c, 0, 69, 59
2, 144384, Note_on_c, 0, 85, 59
2, 144572, Note_off_c, 0, 69, 0
2, 144576, Note_on_c, 0, 64, 59
2, 144764, Note_off_c, 0, 88, 0
2, 144764, Note_off_c, 0, 73, 0
2, 144764, Note_off_c, 0, 85, 0
2, 144764, Note_off_c, 0, 64, 0
2, 144768, Note_on_c, 0, 71, 59
2, 144768, Note_on_c, 0, 68, 59
2, 144768, Note_on_c, 0, 83, 59
2, 144956, Note_off_c, 0, 68, 0
2, 144960, Note_on_c, 0, 64, 59
2, 145148, Note_off_c, 0, 71, 0
2, 145148, Note_off_c, 0, 83, 0
2, 145148, Note_off_c, 0, 64, 0
2, 145152, Note_on_c, 0, 69, 59
2, 145152, Note_on_c, 0, 81, 59
2, 145340, Note_off_c, 0, 69, 0
2, 145344, Note_on_c, 0, 64, 79
2, 145532, Note_off_c, 0, 81, 0
2, 145532, Note_off_c, 0, 64, 0
2, 145536, Note_on_c, 0, 66, 79
2, 145724, Note_off_c, 0, 66, 0
2, 145728, Note_on_c, 0, 74, 79
2, 145916, Note_off_c, 0, 74, 0
2, 145920, Note_on_c, 0, 71, 79
2, 146108, Note_off_c, 0, 71, 0
2, 146112, Note_on_c, 0, 68, 79
2, 146300, Note_off_c, 0, 68, 0
2, 146304, Note_on_c, 0, 69, 79
2, 146492, Note_off_c, 0, 69, 0
2, 146496, Note_on_c, 0, 64, 79
2, 146684, Note_off_c, 0, 64, 0
2, 146688, Note_on_c, 0, 66, 79
2, 146876, Note_off_c, 0, 66, 0
2, 146880, Note_on_c, 0, 74, 79
2, 147068, Note_off_c, 0, 74, 0
2, 147072, Note_on_c, 0, 71, 79
2, 147260, Note_off_c, 0, 71, 0
2, 147264, Note_on_c, 0, 68, 79
2, 147452, Note_off_c, 0, 68, 0
2, 147456, Note_on_c, 0, 69, 79
2, 147644, Note_off_c, 0, 69, 0
2, 147648, Note_on_c, 0, 68, 79
2, 147836, Note_off_c, 0, 68, 0
2, 147840, Note_on_c, 0, 69, 79
2, 148028, Note_off_c, 0, 69, 0
2, 148032, Note_on_c, 0, 71, 79
2, 148220, Note_off_c, 0, 71, 0
2, 148224, Note_on_c, 0, 67, 79
2, 148412, Note_off_c, 0, 67, 0
2, 148416, Note_on_c, 0, 64, 79
2, 148604, Note_off_c, 0, 64, 0
2, 148608, Note_on_c, 0, 69, 59
2, 148608, Note_on_c, 0, 66, 59
2, 148796, Note_off_c, 0, 66, 0
2, 148800, Note_on_c, 0, 59, 59
2, 148988, Note_off_c, 0, 69, 0
2, 148988, Note_off_c, 0, 59, 0
2, 148992, Note_on_c, 0, 66, 59
2, 148992, Note_on_c, 0, 63, 59
2, 149180, Note_off_c, 0, 63, 0
2, 149184, Note_on_c, 0, 59, 59
2, 149372, Note_off_c, 0, 66, 0
2, 149372, Note_off_c, 0, 59, 0
2, 149376, Note_on_c, 0, 67, 59
2, 149376, Note_on_c, 0, 64, 59
2, 149564, Note_off_c, 0, 64, 0
2, 149568, Note_on_c, 0, 59, 59
2, 149756, Note_off_c, 0, 67, 0
2, 149756, Note_off_c, 0, 59, 0
2, 149760, Note_on_c, 0, 69, 59
2, 149760, Note_on_c, 0, 66, 59
2, 149948, Note_off_c, 0, 66, 0
2, 149952, Note_on_c, 0, 59, 59
2, 150140, Note_off_c, 0, 69, 0
2, 150140, Note_off_c, 0, 59, 0
2, 150144, Note_on_c, 0, 66, 61
2, 150144, Note_on_c, 0, 63, 61
2, 150144, Note_on_c, 0, 84, 61
2, 150332, Note_off_c, 0, 63, 0
2, 150332, Note_off_c, 0, 84, 0
2, 150336, Note_on_c, 0, 59, 65
2, 150336, Note_on_c, 0, 83, 65
2, 150524, Note_off_c, 0, 66, 0
2, 150524, Note_off_c, 0, 59, 0
2, 150524, Note_off_c, 0, 83, 0
2, 150528, Note_on_c, 0, 67, 70
2, 150528, Note_on_c, 0, 64, 70
2, 150528, Note_on_c, 0, 81, 70
2, 150716, Note_off_c, 0, 64, 0
2, 150716, Note_off_c, 0, 81, 0
2, 150720, Note_on_c, 0, 59, 77
2, 150720, Note_on_c, 0, 79, 77
2, 150908, Note_off_c, 0, 67, 0
2, 150908, Note_off_c, 0, 59, 0
2, 150908, Note_off_c, 0, 79, 0
2, 150912, Note_on_c, 0, 69, 79
2, 150912, Note_on_c, 0, 66, 79
2, 150912, Note_on_c, 0, 78, 79
2, 150912, Note_on_c, 0, 78, 79
2, 151100, Note_off_c, 0, 66, 0
2, 151104, Note_on_c, 0, 59, 79
2, 151292, Note_off_c, 0, 69, 0
2, 151292, Note_off_c, 0, 78, 0
2, 151292, Note_off_c, 0, 59, 0
2, 151296, Note_on_c, 0, 66, 77
2, 151296, Note_on_c, 0, 63, 77
2, 151296, Note_on_c, 0, 81, 77
2, 151484, Note_off_c, 0, 63, 0
2, 151484, Note_off_c, 0, 81, 0
2, 151488, Note_on_c, 0, 59, 71
2, 151488, Note_on_c, 0, 79, 71
2, 151676, Note_off_c, 0, 78, 0
2, 151676, Note_off_c, 0, 66, 0
2, 151676, Note_off_c, 0, 59, 0
2, 151676, Note_off_c, 0, 79, 0
2, 151680, Note_on_c, 0, 67, 66
2, 151680, Note_on_c, 0, 64, 66
2, 151680, Note_on_c, 0, 78, 66
2, 151868, Note_off_c, 0, 64, 0
2, 151868, Note_off_c, 0, 78, 0
2, 151872, Note_on_c, 0, 59, 63
2, 151872, Note_on_c, 0, 76, 63
2, 152060, Note_off_c, 0, 67, 0
2, 152060, Note_off_c, 0, 59, 0
2, 152060, Note_off_c, 0, 76, 0
2, 152064, Note_on_c, 0, 69, 59
2, 152064, Note_on_c, 0, 66, 59
2, 152064, Note_on_c, 0, 75, 59
2, 152444, Note_off_c, 0, 69, 0
2, 152444, Note_off_c, 0, 66, 0
2, 152444, Note_off_c, 0, 75, 0
2, 152448, Note_on_c, 0, 83, 79
2, 152448, Note_on_c, 0, 71, 79
2, 152636, Note_off_c, 0, 83, 0
2, 152636, Note_off_c, 0, 71, 0
2, 152640, Note_on_c, 0, 81, 79
2, 152640, Note_on_c, 0, 69, 79
2, 152828, Note_off_c, 0, 81, 0
2, 152828, Note_off_c, 0, 69, 0
2, 152832, Note_on_c, 0, 79, 79
2, 152832, Note_on_c, 0, 67, 79
2, 153020, Note_off_c, 0, 79, 0
2, 153020, Note_off_c, 0, 67, 0
2, 153024, Note_on_c, 0, 78, 79
2, 153024, Note_on_c, 0, 66, 79
2, 153212, Note_off_c, 0, 78, 0
2, 153212, Note_off_c, 0, 66, 0
2, 153216, Note_on_c, 0, 76, 79
2, 153216, Note_on_c, 0, 64, 79
2, 153596, Note_off_c, 0, 76, 0
2, 153596, Note_off_c, 0, 64, 0
2, 153600, Note_on_c, 0, 76, 79
2, 153600, Note_on_c, 0, 64, 79
2, 153980, Note_off_c, 0, 76, 0
2, 153980, Note_off_c, 0, 64, 0
2, 153984, Note_on_c, 0, 83, 79
2, 153984, Note_on_c, 0, 71, 79
2, 154364, Note_off_c, 0, 83, 0
2, 154364, Note_off_c, 0, 71, 0
2, 154368, Note_on_c, 0, 76, 79
2, 154368, Note_on_c, 0, 64, 79
2, 154748, Note_off_c, 0, 76, 0
2, 154748, Note_off_c, 0, 64, 0
2, 154752, Note_on_c, 0, 83, 79
2, 154752, Note_on_c, 0, 71, 79
2, 154928, Note_on_c, 0, 69, 79
2, 154940, Note_off_c, 0, 83, 0
2, 154940, Note_off_c, 0, 71, 0
2, 154944, Note_on_c, 0, 81, 79
2, 155116, Note_off_c, 0, 69, 0
2, 155132, Note_off_c, 0, 81, 0
2, 155136, Note_on_c, 0, 79, 79
2, 155136, Note_on_c, 0, 67, 79
2, 155324, Note_off_c, 0, 79, 0
2, 155324, Note_off_c, 0, 67, 0
2, 155328, Note_on_c, 0, 78, 79
2, 155328, Note_on_c, 0, 66, 79
2, 155516, Note_off_c, 0, 78, 0
2, 155516, Note_off_c, 0, 66, 0
2, 155520, Note_on_c, 0, 76, 79
2, 155520, Note_on_c, 0, 64, 79
2, 155900, Note_off_c, 0, 76, 0
2, 155900, Note_off_c, 0, 64, 0
2, 155904, Note_on_c, 0, 76, 79
2, 155904, Note_on_c, 0, 64, 79
2, 156284, Note_off_c, 0, 76, 0
2, 156284, Note_off_c, 0, 64, 0
2, 156288, Note_on_c, 0, 83, 79
2, 156288, Note_on_c, 0, 71, 79
2, 156668, Note_off_c, 0, 83, 0
2, 156668, Note_off_c, 0, 71, 0
2, 156672, Note_on_c, 0, 76, 79
2, 156672, Note_on_c, 0, 64, 79
2, 157052, Note_off_c, 0, 76, 0
2, 157052, Note_off_c, 0, 64, 0
2, 157056, Note_on_c, 0, 76, 59
2, 157244, Note_off_c, 0, 76, 0
2, 157248, Note_on_c, 0, 74, 59
2, 157436, Note_off_c, 0, 74, 0
2, 157440, Note_on_c, 0, 76, 59
2, 157628, Note_off_c, 0, 76, 0
2, 157632, Note_on_c, 0, 77, 59
2, 157820, Note_off_c, 0, 77, 0
2, 157824, Note_on_c, 0, 79, 59
2, 157824, Note_on_c, 0, 60, 59
2, 157824, Note_on_c, 0, 60, 59
2, 158012, Note_off_c, 0, 60, 0
2, 158016, Note_on_c, 0, 64, 59
2, 158192, Note_on_c, 0, 79, 59
2, 158204, Note_off_c, 0, 79, 0
2, 158204, Note_off_c, 0, 64, 0
2, 158208, Note_on_c, 0, 67, 59
2, 158396, Note_off_c, 0, 67, 0
2, 158400, Note_on_c, 0, 64, 59
2, 158588, Note_off_c, 0, 60, 0
2, 158588, Note_off_c, 0, 64, 0
2, 158592, Note_on_c, 0, 65, 59
2, 158592, Note_on_c, 0, 59, 59
2, 158764, Note_off_c, 0, 79, 0
2, 158780, Note_off_c, 0, 65, 0
2, 158780, Note_off_c, 0, 59, 0
2, 158784, Note_on_c, 0, 79, 59
2, 158784, Note_on_c, 0, 62, 59
2, 158972, Note_off_c, 0, 79, 0
2, 158972, Note_off_c, 0, 62, 0
2, 158976, Note_on_c, 0, 84, 59
2, 158976, Note_on_c, 0, 60, 59
2, 158976, Note_on_c, 0, 60, 59
2, 159164, Note_off_c, 0, 60, 0
2, 159168, Note_on_c, 0, 64, 59
2, 159356, Note_off_c, 0, 84, 0
2, 159356, Note_off_c, 0, 64, 0
2, 159360, Note_on_c, 0, 79, 59
2, 159360, Note_on_c, 0, 67, 59
2, 159548, Note_off_c, 0, 67, 0
2, 159552, Note_on_c, 0, 64, 59
2, 159740, Note_off_c, 0, 60, 0
2, 159740, Note_off_c, 0, 79, 0
2, 159740, Note_off_c, 0, 64, 0
2, 159744, Note_on_c, 0, 65, 59
2, 159744, Note_on_c, 0, 59, 59
2, 159932, Note_off_c, 0, 65, 0
2, 159932, Note_off_c, 0, 59, 0
2, 159936, Note_on_c, 0, 62, 59
2, 160124, Note_off_c, 0, 62, 0
2, 160128, Note_on_c, 0, 79, 61
2, 160128, Note_on_c, 0, 60, 61
2, 160128, Note_on_c, 0, 60, 61
2, 160316, Note_off_c, 0, 60, 0
2, 160320, Note_on_c, 0, 64, 61
2, 160496, Note_on_c, 0, 79, 62
2, 160508, Note_off_c, 0, 79, 0
2, 160508, Note_off_c, 0, 64, 0
2, 160512, Note_on_c, 0, 67, 62
2, 160700, Note_off_c, 0, 67, 0
2, 160704, Note_on_c, 0, 64, 62
2, 160892, Note_off_c, 0, 60, 0
2, 160892, Note_off_c, 0, 64, 0
2, 160896, Note_on_c, 0, 65, 63
2, 160896, Note_on_c, 0, 59, 63
2, 161068, Note_off_c, 0, 79, 0
2, 161084, Note_off_c, 0, 65, 0
2, 161084, Note_off_c, 0, 59, 0
2, 161088, Note_on_c, 0, 79, 63
2, 161088, Note_on_c, 0, 62, 63
2, 161276, Note_off_c, 0, 79, 0
2, 161276, Note_off_c, 0, 62, 0
2, 161280, Note_on_c, 0, 84, 65
2, 161280, Note_on_c, 0, 60, 65
2, 161280, Note_on_c, 0, 60, 65
2, 161468, Note_off_c, 0, 60, 0
2, 161472, Note_on_c, 0, 64, 66
2, 161660, Note_off_c, 0, 84, 0
2, 161660, Note_off_c, 0, 64, 0
2, 161664, Note_on_c, 0, 79, 66
2, 161664, Note_on_c, 0, 67, 66
2, 161852, Note_off_c, 0, 67, 0
2, 161856, Note_on_c, 0, 64, 67
2, 162044, Note_off_c, 0, 60, 0
2, 162044, Note_off_c, 0, 79, 0
2, 162044, Note_off_c, 0, 64, 0
2, 162048, Note_on_c, 0, 60, 67
2, 162236, Note_off_c, 0, 60, 0
2, 162240, Note_on_c, 0, 64, 69
2, 162336, Note_on_c, 0, 79, 69
2, 162428, Note_off_c, 0, 64, 0
2, 162428, Note_off_c, 0, 79, 0
2, 162432, Note_on_c, 0, 88, 70
2, 162432, Note_on_c, 0, 58, 70
2, 162432, Note_on_c, 0, 58, 70
2, 162620, Note_off_c, 0, 58, 0
2, 162624, Note_on_c, 0, 60, 70
2, 162812, Note_off_c, 0, 88, 0
2, 162812, Note_off_c, 0, 60, 0
2, 162816, Note_on_c, 0, 79, 71
2, 162816, Note_on_c, 0, 64, 71
2, 163004, Note_off_c, 0, 64, 0
2, 163008, Note_on_c, 0, 67, 71
2, 163196, Note_off_c, 0, 58, 0
2, 163196, Note_off_c, 0, 79, 0
2, 163196, Note_off_c, 0, 67, 0
2, 163200, Note_on_c, 0, 64, 73
2, 163388, Note_off_c, 0, 64, 0
2, 163392, Note_on_c, 0, 60, 73
2, 163488, Note_on_c, 0, 79, 74
2, 163580, Note_off_c, 0, 60, 0
2, 163580, Note_off_c, 0, 79, 0
2, 163584, Note_on_c, 0, 88, 74
2, 163584, Note_on_c, 0, 57, 74
2, 163584, Note_on_c, 0, 57, 74
2, 163772, Note_off_c, 0, 57, 0
2, 163776, Note_on_c, 0, 61, 75
2, 163964, Note_off_c, 0, 88, 0
2, 163964, Note_off_c, 0, 61, 0
2, 163968, Note_on_c, 0, 79, 75
2, 163968, Note_on_c, 0, 64, 75
2, 164156, Note_off_c, 0, 64, 0
2, 164160, Note_on_c, 0, 67, 77
2, 164348, Note_off_c, 0, 57, 0
2, 164348, Note_off_c, 0, 79, 0
2, 164348, Note_off_c, 0, 67, 0
2, 164352, Note_on_c, 0, 64, 77
2, 164540, Note_off_c, 0, 64, 0
2, 164544, Note_on_c, 0, 61, 78
2, 164640, Note_on_c, 0, 79, 78
2, 164732, Note_off_c, 0, 61, 0
2, 164732, Note_off_c, 0, 79, 0
2, 164736, Note_on_c, 0, 79, 79
2, 164736, Note_on_c, 0, 62, 79
2, 164736, Note_on_c, 0, 57, 79
2, 164924, Note_off_c, 0, 79, 0
2, 164928, Note_on_c, 0, 77, 79
2, 165116, Note_off_c, 0, 77, 0
2, 165120, Note_on_c, 0, 76, 79
2, 165308, Note_off_c, 0, 76, 0
2, 165312, Note_on_c, 0, 77, 79
2, 165500, Note_off_c, 0, 62, 0
2, 165500, Note_off_c, 0, 57, 0
2, 165500, Note_off_c, 0, 77, 0
2, 165504, Note_on_c, 0, 76, 79
2, 165504, Note_on_c, 0, 64, 79
2, 165504, Note_on_c, 0, 56, 79
2, 165692, Note_off_c, 0, 76, 0
2, 165692, Note_off_c, 0, 64, 0
2, 165696, Note_on_c, 0, 74, 79
2, 165696, Note_on_c, 0, 65, 79
2, 165884, Note_off_c, 0, 56, 0
2, 165884, Note_off_c, 0, 74, 0
2, 165884, Note_off_c, 0, 65, 0
2, 165888, Note_on_c, 0, 73, 79
2, 165888, Note_on_c, 0, 64, 79
2, 165888, Note_on_c, 0, 57, 79
2, 166076, Note_off_c, 0, 73, 0
2, 166080, Note_on_c, 0, 80, 79
2, 166268, Note_off_c, 0, 64, 0
2, 166268, Note_off_c, 0, 57, 0
2, 166268, Note_off_c, 0, 80, 0
2, 166272, Note_on_c, 0, 81, 79
2, 166460, Note_off_c, 0, 81, 0
2, 166464, Note_on_c, 0, 80, 79
2, 166652, Note_off_c, 0, 80, 0
2, 166656, Note_on_c, 0, 81, 79
2, 166844, Note_off_c, 0, 81, 0
2, 166848, Note_on_c, 0, 76, 79
2, 167036, Note_off_c, 0, 76, 0
2, 167040, Note_on_c, 0, 79, 79
2, 167040, Note_on_c, 0, 68, 79
2, 167040, Note_on_c, 0, 62, 79
2, 167040, Note_on_c, 0, 58, 79
2, 167228, Note_off_c, 0, 79, 0
2, 167232, Note_on_c, 0, 77, 79
2, 167420, Note_off_c, 0, 77, 0
2, 167424, Note_on_c, 0, 76, 79
2, 167612, Note_off_c, 0, 76, 0
2, 167616, Note_on_c, 0, 77, 79
2, 167804, Note_off_c, 0, 77, 0
2, 167808, Note_on_c, 0, 76, 79
2, 167996, Note_off_c, 0, 76, 0
2, 168000, Note_on_c, 0, 74, 79
2, 168188, Note_off_c, 0, 68, 0
2, 168188, Note_off_c, 0, 62, 0
2, 168188, Note_off_c, 0, 58, 0
2, 168188, Note_off_c, 0, 74, 0
2, 168192, Note_on_c, 0, 81, 74
2, 168192, Note_on_c, 0, 69, 74
2, 168192, Note_on_c, 0, 61, 74
2, 168192, Note_on_c, 0, 57, 74
2, 168380, Note_off_c, 0, 81, 0
2, 168384, Note_on_c, 0, 80, 74
2, 168572, Note_off_c, 0, 69, 0
2, 168572, Note_off_c, 0, 61, 0
2, 168572, Note_off_c, 0, 57, 0
2, 168572, Note_off_c, 0, 80, 0
2, 168576, Note_on_c, 0, 81, 74
2, 168764, Note_off_c, 0, 81, 0
2, 168768, Note_on_c, 0, 76, 74
2, 168944, Note_on_c, 0, 57, 74
2, 168956, Note_off_c, 0, 76, 0
2, 168960, Note_on_c, 0, 77, 74
2, 168960, Note_on_c, 0, 65, 74
2, 168960, Note_on_c, 0, 62, 74
2, 169148, Note_off_c, 0, 77, 0
2, 169152, Note_on_c, 0, 74, 74
2, 169324, Note_off_c, 0, 57, 0
2, 169340, Note_off_c, 0, 65, 0
2, 169340, Note_off_c, 0, 62, 0
2, 169340, Note_off_c, 0, 74, 0
2, 169344, Note_on_c, 0, 81, 74
2, 169344, Note_on_c, 0, 64, 74
2, 169344, Note_on_c, 0, 61, 74
2, 169344, Note_on_c, 0, 57, 74
2, 169532, Note_off_c, 0, 81, 0
2, 169536, Note_on_c, 0, 80, 74
2, 169724, Note_off_c, 0, 64, 0
2, 169724, Note_off_c, 0, 61, 0
2, 169724, Note_off_c, 0, 57, 0
2, 169724, Note_off_c, 0, 80, 0
2, 169728, Note_on_c, 0, 81, 74
2, 169916, Note_off_c, 0, 81, 0
2, 169920, Note_on_c, 0, 76, 74
2, 170108, Note_off_c, 0, 76, 0
2, 170112, Note_on_c, 0, 77, 74
2, 170112, Note_on_c, 0, 65, 74
2, 170112, Note_on_c, 0, 62, 74
2, 170112, Note_on_c, 0, 57, 74
2, 170300, Note_off_c, 0, 77, 0
2, 170304, Note_on_c, 0, 74, 74
2, 170492, Note_off_c, 0, 65, 0
2, 170492, Note_off_c, 0, 62, 0
2, 170492, Note_off_c, 0, 57, 0
2, 170492, Note_off_c, 0, 74, 0
2, 170496, Note_on_c, 0, 69, 74
2, 170496, Note_on_c, 0, 64, 74
2, 170496, Note_on_c, 0, 61, 74
2, 170496, Note_on_c, 0, 57, 74
2, 170684, Note_off_c, 0, 69, 0
2, 170688, Note_on_c, 0, 68, 74
2, 170876, Note_off_c, 0, 64, 0
2, 170876, Note_off_c, 0, 61, 0
2, 170876, Note_off_c, 0, 57, 0
2, 170876, Note_off_c, 0, 68, 0
2, 170880, Note_on_c, 0, 69, 74
2, 171068, Note_off_c, 0, 69, 0
2, 171072, Note_on_c, 0, 68, 74
2, 171260, Note_off_c, 0, 68, 0
2, 171264, Note_on_c, 0, 69, 74
2, 171452, Note_off_c, 0, 69, 0
2, 171456, Note_on_c, 0, 68, 74
2, 171644, Note_off_c, 0, 68, 0
2, 171648, Note_on_c, 0, 69, 59
2, 171648, Note_on_c, 0, 66, 59
2, 171836, Note_off_c, 0, 66, 0
2, 171840, Note_on_c, 0, 57, 59
2, 172028, Note_off_c, 0, 69, 0
2, 172028, Note_off_c, 0, 57, 0
2, 172032, Note_on_c, 0, 66, 59
2, 172032, Note_on_c, 0, 62, 59
2, 172220, Note_off_c, 0, 62, 0
2, 172224, Note_on_c, 0, 57, 59
2, 172412, Note_off_c, 0, 66, 0
2, 172412, Note_off_c, 0, 57, 0
2, 172416, Note_on_c, 0, 67, 59
2, 172416, Note_on_c, 0, 64, 59
2, 172604, Note_off_c, 0, 64, 0
2, 172608, Note_on_c, 0, 57, 59
2, 172796, Note_off_c, 0, 67, 0
2, 172796, Note_off_c, 0, 57, 0
2, 172800, Note_on_c, 0, 69, 59
2, 172800, Note_on_c, 0, 66, 59
2, 172988, Note_off_c, 0, 66, 0
2, 172992, Note_on_c, 0, 62, 59
2, 173180, Note_off_c, 0, 69, 0
2, 173180, Note_off_c, 0, 62, 0
2, 173184, Note_on_c, 0, 74, 74
2, 173184, Note_on_c, 0, 71, 74
2, 173372, Note_off_c, 0, 74, 0
2, 173372, Note_off_c, 0, 71, 0
2, 173376, Note_on_c, 0, 73, 74
2, 173376, Note_on_c, 0, 69, 74
2, 173564, Note_off_c, 0, 73, 0
2, 173564, Note_off_c, 0, 69, 0
2, 173568, Note_on_c, 0, 71, 74
2, 173568, Note_on_c, 0, 67, 74
2, 173756, Note_off_c, 0, 71, 0
2, 173756, Note_off_c, 0, 67, 0
2, 173760, Note_on_c, 0, 69, 74
2, 173760, Note_on_c, 0, 66, 74
2, 173948, Note_off_c, 0, 69, 0
2, 173948, Note_off_c, 0, 66, 0
2, 173952, Note_on_c, 0, 67, 74
2, 173952, Note_on_c, 0, 67, 74
2, 174140, Note_off_c, 0, 67, 0
2, 174144, Note_on_c, 0, 62, 74
2, 174332, Note_off_c, 0, 67, 0
2, 174332, Note_off_c, 0, 62, 0
2, 174336, Note_on_c, 0, 69, 74
2, 174336, Note_on_c, 0, 66, 74
2, 174524, Note_off_c, 0, 66, 0
2, 174528, Note_on_c, 0, 62, 74
2, 174716, Note_off_c, 0, 69, 0
2, 174716, Note_off_c, 0, 62, 0
2, 174720, Note_on_c, 0, 71, 74
2, 174720, Note_on_c, 0, 67, 74
2, 174908, Note_off_c, 0, 67, 0
2, 174912, Note_on_c, 0, 62, 74
2, 175100, Note_off_c, 0, 71, 0
2, 175100, Note_off_c, 0, 62, 0
2, 175104, Note_on_c, 0, 69, 74
2, 175104, Note_on_c, 0, 66, 74
2, 175292, Note_off_c, 0, 66, 0
2, 175296, Note_on_c, 0, 62, 74
2, 175484, Note_off_c, 0, 69, 0
2, 175484, Note_off_c, 0, 62, 0
2, 175488, Note_on_c, 0, 74, 59
2, 175488, Note_on_c, 0, 71, 59
2, 175488, Note_on_c, 0, 86, 59
2, 175676, Note_off_c, 0, 74, 0
2, 175676, Note_off_c, 0, 71, 0
2, 175676, Note_off_c, 0, 86, 0
2, 175680, Note_on_c, 0, 73, 59
2, 175680, Note_on_c, 0, 69, 59
2, 175680, Note_on_c, 0, 85, 59
2, 175868, Note_off_c, 0, 73, 0
2, 175868, Note_off_c, 0, 69, 0
2, 175868, Note_off_c, 0, 85, 0
2, 175872, Note_on_c, 0, 71, 59
2, 175872, Note_on_c, 0, 67, 59
2, 175872, Note_on_c, 0, 83, 59
2, 176060, Note_off_c, 0, 71, 0
2, 176060, Note_off_c, 0, 67, 0
2, 176060, Note_off_c, 0, 83, 0
2, 176064, Note_on_c, 0, 69, 59
2, 176064, Note_on_c, 0, 66, 59
2, 176064, Note_on_c, 0, 81, 59
2, 176252, Note_off_c, 0, 69, 0
2, 176252, Note_off_c, 0, 66, 0
2, 176252, Note_off_c, 0, 81, 0
2, 176256, Note_on_c, 0, 67, 59
2, 176256, Note_on_c, 0, 64, 59
2, 176256, Note_on_c, 0, 79, 59
2, 176444, Note_off_c, 0, 64, 0
2, 176448, Note_on_c, 0, 62, 59
2, 176636, Note_off_c, 0, 67, 0
2, 176636, Note_off_c, 0, 79, 0
2, 176636, Note_off_c, 0, 62, 0
2, 176640, Note_on_c, 0, 69, 59
2, 176640, Note_on_c, 0, 66, 59
2, 176640, Note_on_c, 0, 81, 59
2, 176828, Note_off_c, 0, 66, 0
2, 176832, Note_on_c, 0, 62, 59
2, 177020, Note_off_c, 0, 69, 0
2, 177020, Note_off_c, 0, 81, 0
2, 177020, Note_off_c, 0, 62, 0
2, 177024, Note_on_c, 0, 71, 59
2, 177024, Note_on_c, 0, 67, 59
2, 177024, Note_on_c, 0, 83, 59
2, 177212, Note_off_c, 0, 67, 0
2, 177216, Note_on_c, 0, 62, 59
2, 177404, Note_off_c, 0, 71, 0
2, 177404, Note_off_c, 0, 83, 0
2, 177404, Note_off_c, 0, 62, 0
2, 177408, Note_on_c, 0, 69, 59
2, 177408, Note_on_c, 0, 66, 59
2, 177408, Note_on_c, 0, 81, 59
2, 177596, Note_off_c, 0, 66, 0
2, 177600, Note_on_c, 0, 62, 59
2, 177788, Note_off_c, 0, 69, 0
2, 177788, Note_off_c, 0, 62, 0
2, 177792, Note_on_c, 0, 71, 66
2, 177792, Note_on_c, 0, 67, 66
2, 177980, Note_off_c, 0, 71, 0
2, 177980, Note_off_c, 0, 67, 0
2, 177984, Note_on_c, 0, 69, 66
2, 177984, Note_on_c, 0, 66, 66
2, 178172, Note_off_c, 0, 81, 0
2, 178172, Note_off_c, 0, 69, 0
2, 178172, Note_off_c, 0, 66, 0
2, 178176, Note_on_c, 0, 67, 66
2, 178176, Note_on_c, 0, 64, 66
2, 178364, Note_off_c, 0, 67, 0
2, 178364, Note_off_c, 0, 64, 0
2, 178368, Note_on_c, 0, 66, 66
2, 178368, Note_on_c, 0, 62, 66
2, 178556, Note_off_c, 0, 66, 0
2, 178556, Note_off_c, 0, 62, 0
2, 178560, Note_on_c, 0, 64, 69
2, 178560, Note_on_c, 0, 61, 69
2, 178748, Note_off_c, 0, 61, 0
2, 178752, Note_on_c, 0, 57, 70
2, 178940, Note_off_c, 0, 64, 0
2, 178940, Note_off_c, 0, 57, 0
2, 178944, Note_on_c, 0, 69, 71
2, 178944, Note_on_c, 0, 62, 71
2, 179132, Note_off_c, 0, 62, 0
2, 179136, Note_on_c, 0, 57, 73
2, 179324, Note_off_c, 0, 69, 0
2, 179324, Note_off_c, 0, 57, 0
2, 179328, Note_on_c, 0, 66, 74
2, 179328, Note_on_c, 0, 62, 74
2, 179516, Note_off_c, 0, 62, 0
2, 179520, Note_on_c, 0, 57, 75
2, 179708, Note_off_c, 0, 66, 0
2, 179708, Note_off_c, 0, 57, 0
2, 179712, Note_on_c, 0, 64, 77
2, 179712, Note_on_c, 0, 61, 77
2, 179900, Note_off_c, 0, 61, 0
2, 179904, Note_on_c, 0, 57, 78
2, 180092, Note_off_c, 0, 64, 0
2, 180092, Note_off_c, 0, 57, 0
2, 180096, Note_on_c, 0, 71, 59
2, 180096, Note_on_c, 0, 67, 59
2, 180096, Note_on_c, 0, 83, 59
2, 180284, Note_off_c, 0, 71, 0
2, 180284, Note_off_c, 0, 67, 0
2, 180284, Note_off_c, 0, 83, 0
2, 180288, Note_on_c, 0, 69, 59
2, 180288, Note_on_c, 0, 66, 59
2, 180288, Note_on_c, 0, 81, 59
2, 180476, Note_off_c, 0, 69, 0
2, 180476, Note_off_c, 0, 66, 0
2, 180476, Note_off_c, 0, 81, 0
2, 180480, Note_on_c, 0, 67, 59
2, 180480, Note_on_c, 0, 64, 59
2, 180480, Note_on_c, 0, 79, 59
2, 180668, Note_off_c, 0, 67, 0
2, 180668, Note_off_c, 0, 64, 0
2, 180668, Note_off_c, 0, 79, 0
2, 180672, Note_on_c, 0, 66, 59
2, 180672, Note_on_c, 0, 62, 59
2, 180672, Note_on_c, 0, 78, 59
2, 180860, Note_off_c, 0, 66, 0
2, 180860, Note_off_c, 0, 62, 0
2, 180860, Note_off_c, 0, 78, 0
2, 180864, Note_on_c, 0, 80, 59
2, 180908, Note_off_c, 0, 80, 0
2, 180912, Note_on_c, 0, 81, 59
2, 180912, Note_on_c, 0, 64, 59
2, 180912, Note_on_c, 0, 61, 59
2, 181056, Note_off_c, 0, 61, 0
2, 181056, Note_on_c, 0, 57, 59
2, 181244, Note_off_c, 0, 81, 0
2, 181244, Note_off_c, 0, 64, 0
2, 181244, Note_off_c, 0, 57, 0
2, 181248, Note_on_c, 0, 80, 59
2, 181292, Note_off_c, 0, 80, 0
2, 181296, Note_on_c, 0, 81, 59
2, 181296, Note_on_c, 0, 69, 59
2, 181296, Note_on_c, 0, 66, 59
2, 181440, Note_off_c, 0, 66, 0
2, 181440, Note_on_c, 0, 57, 59
2, 181628, Note_off_c, 0, 81, 0
2, 181628, Note_off_c, 0, 69, 0
2, 181628, Note_off_c, 0, 57, 0
2, 181632, Note_on_c, 0, 80, 59
2, 181676, Note_off_c, 0, 80, 0
2, 181680, Note_on_c, 0, 81, 59
2, 181680, Note_on_c, 0, 66, 59
2, 181680, Note_on_c, 0, 62, 59
2, 181824, Note_off_c, 0, 62, 0
2, 181824, Note_on_c, 0, 57, 59
2, 182012, Note_off_c, 0, 81, 64
2, 182012, Note_off_c, 0, 66, 0
2, 182012, Note_off_c, 0, 57, 0
2, 182016, Note_on_c, 0, 80, 59
2, 182060, Note_off_c, 0, 80, 0
2, 182064, Note_on_c, 0, 81, 59
2, 182064, Note_on_c, 0, 61, 59
2, 182064, Note_on_c, 0, 64, 59
2, 182208, Note_off_c, 0, 64, 0
2, 182208, Note_on_c, 0, 69, 59
2, 182396, Note_off_c, 0, 81, 0
2, 182396, Note_off_c, 0, 61, 0
2, 182396, Note_off_c, 0, 69, 0
2, 182400, Note_on_c, 0, 74, 79
2, 182400, Note_on_c, 0, 62, 79
2, 182588, Note_off_c, 0, 74, 0
2, 182592, Note_on_c, 0, 73, 79
2, 182780, Note_off_c, 0, 73, 0
2, 182784, Note_on_c, 0, 74, 79
2, 182972, Note_off_c, 0, 74, 0
2, 182976, Note_on_c, 0, 71, 79
2, 183164, Note_off_c, 0, 62, 0
2, 183164, Note_off_c, 0, 71, 0
2, 183168, Note_on_c, 0, 69, 59
2, 183168, Note_on_c, 0, 62, 59
2, 183356, Note_off_c, 0, 62, 0
2, 183360, Note_on_c, 0, 57, 59
2, 183548, Note_off_c, 0, 69, 0
2, 183548, Note_off_c, 0, 57, 0
2, 183552, Note_on_c, 0, 67, 59
2, 183552, Note_on_c, 0, 64, 59
2, 183740, Note_off_c, 0, 64, 0
2, 183744, Note_on_c, 0, 59, 59
2, 183932, Note_off_c, 0, 67, 0
2, 183932, Note_off_c, 0, 59, 0
2, 183936, Note_on_c, 0, 64, 79
2, 183936, Note_on_c, 0, 61, 79
2, 184124, Note_off_c, 0, 61, 0
2, 184128, Note_on_c, 0, 57, 75
2, 184316, Note_off_c, 0, 64, 0
2, 184316, Note_off_c, 0, 57, 0
2, 184320, Note_on_c, 0, 66, 70
2, 184320, Note_on_c, 0, 62, 70
2, 184508, Note_off_c, 0, 66, 0
2, 184512, Note_on_c, 0, 69, 65
2, 184700, Note_off_c, 0, 62, 0
2, 184700, Note_off_c, 0, 69, 0
2, 184704, Note_on_c, 0, 74, 59
2, 184704, Note_on_c, 0, 71, 59
2, 184704, Note_on_c, 0, 86, 59
2, 184892, Note_off_c, 0, 74, 0
2, 184892, Note_off_c, 0, 71, 0
2, 184892, Note_off_c, 0, 86, 0
2, 184896, Note_on_c, 0, 70, 59
2, 184896, Note_on_c, 0, 73, 59
2, 184896, Note_on_c, 0, 85, 59
2, 185084, Note_off_c, 0, 70, 0
2, 185084, Note_off_c, 0, 73, 0
2, 185084, Note_off_c, 0, 85, 0
2, 185088, Note_on_c, 0, 74, 59
2, 185088, Note_on_c, 0, 71, 59
2, 185088, Note_on_c, 0, 86, 59
2, 185276, Note_off_c, 0, 74, 0
2, 185276, Note_off_c, 0, 71, 0
2, 185276, Note_off_c, 0, 86, 0
2, 185280, Note_on_c, 0, 71, 59
2, 185280, Note_on_c, 0, 67, 59
2, 185280, Note_on_c, 0, 83, 59
2, 185468, Note_off_c, 0, 71, 0
2, 185468, Note_off_c, 0, 67, 0
2, 185468, Note_off_c, 0, 83, 0
2, 185472, Note_on_c, 0, 69, 59
2, 185472, Note_on_c, 0, 66, 59
2, 185472, Note_on_c, 0, 81, 59
2, 185660, Note_off_c, 0, 66, 0
2, 185664, Note_on_c, 0, 62, 59
2, 185852, Note_off_c, 0, 69, 0
2, 185852, Note_off_c, 0, 81, 0
2, 185852, Note_off_c, 0, 62, 0
2, 185856, Note_on_c, 0, 67, 59
2, 185856, Note_on_c, 0, 64, 59
2, 185856, Note_on_c, 0, 79, 59
2, 186044, Note_off_c, 0, 64, 0
2, 186048, Note_on_c, 0, 59, 59
2, 186236, Note_off_c, 0, 67, 0
2, 186236, Note_off_c, 0, 79, 0
2, 186236, Note_off_c, 0, 59, 0
2, 186240, Note_on_c, 0, 64, 59
2, 186240, Note_on_c, 0, 61, 59
2, 186240, Note_on_c, 0, 76, 59
2, 186428, Note_off_c, 0, 61, 0
2, 186432, Note_on_c, 0, 57, 59
2, 186620, Note_off_c, 0, 64, 0
2, 186620, Note_off_c, 0, 76, 0
2, 186620, Note_off_c, 0, 57, 0
2, 186624, Note_on_c, 0, 62, 59
2, 186624, Note_on_c, 0, 66, 59
2, 186624, Note_on_c, 0, 78, 59
2, 186812, Note_off_c, 0, 66, 0
2, 186816, Note_on_c, 0, 69, 59
2, 186816, Note_on_c, 0, 59, 59
2, 187004, Note_off_c, 0, 62, 0
2, 187004, Note_off_c, 0, 78, 0
2, 187004, Note_off_c, 0, 69, 0
2, 187008, Note_on_c, 0, 69, 74
2, 187196, Note_off_c, 0, 59, 0
2, 187196, Note_off_c, 0, 69, 0
2, 187216, Note_on_c, 0, 67, 74
2, 187392, Note_on_c, 0, 64, 74
2, 187404, Note_off_c, 0, 67, 0
2, 187580, Note_off_c, 0, 64, 0
2, 187584, Note_on_c, 0, 61, 74
2, 187772, Note_off_c, 0, 61, 0
2, 187776, Note_on_c, 0, 62, 79
2, 187964, Note_off_c, 0, 62, 0
2, 187968, Note_on_c, 0, 66, 79
2, 188156, Note_off_c, 0, 66, 0
2, 188160, Note_on_c, 0, 69, 79
2, 188160, Note_on_c, 0, 59, 79
2, 188348, Note_off_c, 0, 69, 0
2, 188352, Note_on_c, 0, 67, 79
2, 188540, Note_off_c, 0, 59, 0
2, 188540, Note_off_c, 0, 67, 0
2, 188544, Note_on_c, 0, 64, 79
2, 188732, Note_off_c, 0, 64, 0
2, 188736, Note_on_c, 0, 61, 79
2, 188924, Note_off_c, 0, 61, 0
2, 188928, Note_on_c, 0, 62, 79
2, 189116, Note_off_c, 0, 62, 0
2, 189120, Note_on_c, 0, 61, 79
2, 189308, Note_off_c, 0, 61, 0
2, 189312, Note_on_c, 0, 62, 79
2, 189500, Note_off_c, 0, 62, 0
2, 189504, Note_on_c, 0, 64, 79
2, 189692, Note_off_c, 0, 64, 0
2, 189696, Note_on_c, 0, 66, 79
2, 189884, Note_off_c, 0, 66, 0
2, 189888, Note_on_c, 0, 67, 79
2, 190076, Note_off_c, 0, 67, 0
2, 190080, Note_on_c, 0, 69, 59
2, 190080, Note_on_c, 0, 66, 59
2, 190268, Note_off_c, 0, 66, 0
2, 190272, Note_on_c, 0, 59, 59
2, 190460, Note_off_c, 0, 69, 0
2, 190460, Note_off_c, 0, 59, 0
2, 190464, Note_on_c, 0, 66, 59
2, 190464, Note_on_c, 0, 63, 59
2, 190652, Note_off_c, 0, 63, 0
2, 190656, Note_on_c, 0, 59, 59
2, 190844, Note_off_c, 0, 66, 0
2, 190844, Note_off_c, 0, 59, 0
2, 190848, Note_on_c, 0, 67, 59
2, 190848, Note_on_c, 0, 64, 59
2, 191036, Note_off_c, 0, 64, 0
2, 191040, Note_on_c, 0, 59, 59
2, 191228, Note_off_c, 0, 67, 0
2, 191228, Note_off_c, 0, 59, 0
2, 191232, Note_on_c, 0, 69, 59
2, 191232, Note_on_c, 0, 66, 59
2, 191420, Note_off_c, 0, 66, 0
2, 191424, Note_on_c, 0, 59, 59
2, 191612, Note_off_c, 0, 69, 0
2, 191612, Note_off_c, 0, 59, 0
2, 191616, Note_on_c, 0, 66, 61
2, 191616, Note_on_c, 0, 63, 61
2, 191616, Note_on_c, 0, 84, 61
2, 191804, Note_off_c, 0, 63, 0
2, 191804, Note_off_c, 0, 84, 0
2, 191808, Note_on_c, 0, 59, 65
2, 191808, Note_on_c, 0, 83, 65
2, 191996, Note_off_c, 0, 66, 0
2, 191996, Note_off_c, 0, 59, 0
2, 191996, Note_off_c, 0, 83, 0
2, 192000, Note_on_c, 0, 67, 70
2, 192000, Note_on_c, 0, 64, 70
2, 192000, Note_on_c, 0, 81, 70
2, 192188, Note_off_c, 0, 64, 0
2, 192188, Note_off_c, 0, 81, 0
2, 192192, Note_on_c, 0, 59, 77
2, 192192, Note_on_c, 0, 79, 77
2, 192380, Note_off_c, 0, 67, 0
2, 192380, Note_off_c, 0, 59, 0
2, 192380, Note_off_c, 0, 79, 0
2, 192384, Note_on_c, 0, 69, 79
2, 192384, Note_on_c, 0, 66, 79
2, 192384, Note_on_c, 0, 78, 79
2, 192384, Note_on_c, 0, 78, 79
2, 192572, Note_off_c, 0, 66, 0
2, 192576, Note_on_c, 0, 59, 79
2, 192764, Note_off_c, 0, 69, 0
2, 192764, Note_off_c, 0, 78, 0
2, 192764, Note_off_c, 0, 59, 0
2, 192768, Note_on_c, 0, 66, 77
2, 192768, Note_on_c, 0, 63, 77
2, 192768, Note_on_c, 0, 81, 77
2, 192956, Note_off_c, 0, 63, 0
2, 192956, Note_off_c, 0, 81, 0
2, 192960, Note_on_c, 0, 59, 73
2, 192960, Note_on_c, 0, 79, 73
2, 193148, Note_off_c, 0, 78, 0
2, 193148, Note_off_c, 0, 66, 0
2, 193148, Note_off_c, 0, 59, 0
2, 193148, Note_off_c, 0, 79, 0
2, 193152, Note_on_c, 0, 67, 69
2, 193152, Note_on_c, 0, 64, 69
2, 193152, Note_on_c, 0, 78, 69
2, 193340, Note_off_c, 0, 64, 0
2, 193340, Note_off_c, 0, 78, 0
2, 193344, Note_on_c, 0, 59, 63
2, 193344, Note_on_c, 0, 76, 63
2, 193532, Note_off_c, 0, 67, 0
2, 193532, Note_off_c, 0, 59, 0
2, 193532, Note_off_c, 0, 76, 0
2, 193536, Note_on_c, 0, 69, 59
2, 193536, Note_on_c, 0, 66, 59
2, 193536, Note_on_c, 0, 75, 59
2, 193916, Note_off_c, 0, 69, 0
2, 193916, Note_off_c, 0, 66, 0
2, 193916, Note_off_c, 0, 75, 0
2, 193920, Note_on_c, 0, 83, 79
2, 193920, Note_on_c, 0, 71, 79
2, 194108, Note_off_c, 0, 83, 0
2, 194108, Note_off_c, 0, 71, 0
2, 194112, Note_on_c, 0, 81, 79
2, 194112, Note_on_c, 0, 69, 79
2, 194300, Note_off_c, 0, 81, 0
2, 194300, Note_off_c, 0, 69, 0
2, 194304, Note_on_c, 0, 79, 79
2, 194304, Note_on_c, 0, 67, 79
2, 194492, Note_off_c, 0, 79, 0
2, 194492, Note_off_c, 0, 67, 0
2, 194496, Note_on_c, 0, 78, 79
2, 194496, Note_on_c, 0, 66, 79
2, 194684, Note_off_c, 0, 78, 0
2, 194684, Note_off_c, 0, 66, 0
2, 194688, Note_on_c, 0, 76, 79
2, 194688, Note_on_c, 0, 64, 79
2, 195068, Note_off_c, 0, 76, 0
2, 195068, Note_off_c, 0, 64, 0
2, 195072, Note_on_c, 0, 76, 79
2, 195072, Note_on_c, 0, 64, 79
2, 195452, Note_off_c, 0, 76, 0
2, 195452, Note_off_c, 0, 64, 0
2, 195456, Note_on_c, 0, 83, 79
2, 195456, Note_on_c, 0, 71, 79
2, 195836, Note_off_c, 0, 83, 0
2, 195836, Note_off_c, 0, 71, 0
2, 195840, Note_on_c, 0, 76, 79
2, 195840, Note_on_c, 0, 64, 79
2, 196220, Note_off_c, 0, 76, 0
2, 196220, Note_off_c, 0, 64, 0
2, 196224, Note_on_c, 0, 83, 79
2, 196224, Note_on_c, 0, 71, 79
2, 196400, Note_on_c, 0, 69, 79
2, 196412, Note_off_c, 0, 83, 0
2, 196412, Note_off_c, 0, 71, 0
2, 196416, Note_on_c, 0, 81, 79
2, 196588, Note_off_c, 0, 69, 0
2, 196604, Note_off_c, 0, 81, 0
2, 196608, Note_on_c, 0, 79, 79
2, 196608, Note_on_c, 0, 67, 79
2, 196796, Note_off_c, 0, 79, 0
2, 196796, Note_off_c, 0, 67, 0
2, 196800, Note_on_c, 0, 78, 79
2, 196800, Note_on_c, 0, 66, 79
2, 196988, Note_off_c, 0, 78, 0
2, 196988, Note_off_c, 0, 66, 0
2, 196992, Note_on_c, 0, 76, 79
2, 196992, Note_on_c, 0, 64, 79
2, 197372, Note_off_c, 0, 76, 0
2, 197372, Note_off_c, 0, 64, 0
2, 197376, Note_on_c, 0, 76, 79
2, 197376, Note_on_c, 0, 64, 79
2, 197756, Note_off_c, 0, 76, 0
2, 197756, Note_off_c, 0, 64, 0
2, 197760, Note_on_c, 0, 83, 79
2, 197760, Note_on_c, 0, 71, 79
2, 198140, Note_off_c, 0, 83, 0
2, 198140, Note_off_c, 0, 71, 0
2, 198144, Note_on_c, 0, 76, 79
2, 198144, Note_on_c, 0, 64, 79
2, 198524, Note_off_c, 0, 76, 0
2, 198524, Note_off_c, 0, 64, 0
2, 198528, Note_on_c, 0, 76, 59
2, 198716, Note_off_c, 0, 76, 0
2, 198720, Note_on_c, 0, 74, 59
2, 198908, Note_off_c, 0, 74, 0
2, 198912, Note_on_c, 0, 76, 59
2, 199100, Note_off_c, 0, 76, 0
2, 199104, Note_on_c, 0, 77, 59
2, 199292, Note_off_c, 0, 77, 0
2, 199296, Note_on_c, 0, 79, 59
2, 199296, Note_on_c, 0, 60, 59
2, 199296, Note_on_c, 0, 60, 59
2, 199484, Note_off_c, 0, 60, 0
2, 199488, Note_on_c, 0, 64, 59
2, 199664, Note_on_c, 0, 79, 59
2, 199676, Note_off_c, 0, 79, 0
2, 199676, Note_off_c, 0, 64, 0
2, 199680, Note_on_c, 0, 67, 59
2, 199868, Note_off_c, 0, 67, 0
2, 199872, Note_on_c, 0, 64, 59
2, 200060, Note_off_c, 0, 60, 0
2, 200060, Note_off_c, 0, 64, 0
2, 200064, Note_on_c, 0, 65, 59
2, 200064, Note_on_c, 0, 59, 59
2, 200236, Note_off_c, 0, 79, 0
2, 200252, Note_off_c, 0, 65, 0
2, 200252, Note_off_c, 0, 59, 0
2, 200256, Note_on_c, 0, 79, 59
2, 200256, Note_on_c, 0, 62, 59
2, 200444, Note_off_c, 0, 79, 0
2, 200444, Note_off_c, 0, 62, 0
2, 200448, Note_on_c, 0, 84, 59
2, 200448, Note_on_c, 0, 60, 59
2, 200448, Note_on_c, 0, 60, 59
2, 200636, Note_off_c, 0, 60, 0
2, 200640, Note_on_c, 0, 64, 59
2, 200828, Note_off_c, 0, 84, 0
2, 200828, Note_off_c, 0, 64, 0
2, 200832, Note_on_c, 0, 79, 59
2, 200832, Note_on_c, 0, 67, 59
2, 201020, Note_off_c, 0, 67, 0
2, 201024, Note_on_c, 0, 64, 59
2, 201212, Note_off_c, 0, 60, 0
2, 201212, Note_off_c, 0, 79, 0
2, 201212, Note_off_c, 0, 64, 0
2, 201216, Note_on_c, 0, 65, 59
2, 201216, Note_on_c, 0, 59, 59
2, 201404, Note_off_c, 0, 65, 0
2, 201404, Note_off_c, 0, 59, 0
2, 201408, Note_on_c, 0, 62, 59
2, 201596, Note_off_c, 0, 62, 0
2, 201600, Note_on_c, 0, 79, 61
2, 201600, Note_on_c, 0, 60, 61
2, 201600, Note_on_c, 0, 60, 61
2, 201788, Note_off_c, 0, 60, 0
2, 201792, Note_on_c, 0, 64, 61
2, 201968, Note_on_c, 0, 79, 62
2, 201980, Note_off_c, 0, 79, 0
2, 201980, Note_off_c, 0, 64, 0
2, 201984, Note_on_c, 0, 67, 62
2, 202172, Note_off_c, 0, 67, 0
2, 202176, Note_on_c, 0, 64, 62
2, 202364, Note_off_c, 0, 60, 0
2, 202364, Note_off_c, 0, 64, 0
2, 202368, Note_on_c, 0, 65, 63
2, 202368, Note_on_c, 0, 59, 63
2, 202540, Note_off_c, 0, 79, 0
2, 202556, Note_off_c, 0, 65, 0
2, 202556, Note_off_c, 0, 59, 0
2, 202560, Note_on_c, 0, 79, 63
2, 202560, Note_on_c, 0, 62, 63
2, 202748, Note_off_c, 0, 79, 0
2, 202748, Note_off_c, 0, 62, 0
2, 202752, Note_on_c, 0, 84, 65
2, 202752, Note_on_c, 0, 60, 65
2, 202752, Note_on_c, 0, 60, 65
2, 202940, Note_off_c, 0, 60, 0
2, 202944, Note_on_c, 0, 64, 66
2, 203132, Note_off_c, 0, 84, 0
2, 203132, Note_off_c, 0, 64, 0
2, 203136, Note_on_c, 0, 79, 66
2, 203136, Note_on_c, 0, 67, 66
2, 203324, Note_off_c, 0, 67, 0
2, 203328, Note_on_c, 0, 64, 67
2, 203516, Note_off_c, 0, 60, 0
2, 203516, Note_off_c, 0, 79, 0
2, 203516, Note_off_c, 0, 64, 0
2, 203520, Note_on_c, 0, 60, 67
2, 203708, Note_off_c, 0, 60, 0
2, 203712, Note_on_c, 0, 64, 69
2, 203808, Note_on_c, 0, 79, 69
2, 203900, Note_off_c, 0, 64, 0
2, 203900, Note_off_c, 0, 79, 0
2, 203904, Note_on_c, 0, 88, 70
2, 203904, Note_on_c, 0, 58, 70
2, 203904, Note_on_c, 0, 58, 70
2, 204092, Note_off_c, 0, 58, 0
2, 204096, Note_on_c, 0, 60, 70
2, 204284, Note_off_c, 0, 88, 0
2, 204284, Note_off_c, 0, 60, 0
2, 204288, Note_on_c, 0, 79, 71
2, 204288, Note_on_c, 0, 64, 71
2, 204476, Note_off_c, 0, 64, 0
2, 204480, Note_on_c, 0, 67, 71
2, 204668, Note_off_c, 0, 58, 0
2, 204668, Note_off_c, 0, 79, 0
2, 204668, Note_off_c, 0, 67, 0
2, 204672, Note_on_c, 0, 64, 73
2, 204860, Note_off_c, 0, 64, 0
2, 204864, Note_on_c, 0, 60, 73
2, 204960, Note_on_c, 0, 79, 74
2, 205052, Note_off_c, 0, 60, 0
2, 205052, Note_off_c, 0, 79, 0
2, 205056, Note_on_c, 0, 88, 74
2, 205056, Note_on_c, 0, 57, 74
2, 205056, Note_on_c, 0, 57, 74
2, 205244, Note_off_c, 0, 57, 0
2, 205248, Note_on_c, 0, 61, 75
2, 205436, Note_off_c, 0, 88, 0
2, 205436, Note_off_c, 0, 61, 0
2, 205440, Note_on_c, 0, 79, 75
2, 205440, Note_on_c, 0, 64, 75
2, 205628, Note_off_c, 0, 64, 0
2, 205632, Note_on_c, 0, 67, 77
2, 205820, Note_off_c, 0, 57, 0
2, 205820, Note_off_c, 0, 79, 0
2, 205820, Note_off_c, 0, 67, 0
2, 205824, Note_on_c, 0, 64, 77
2, 206012, Note_off_c, 0, 64, 0
2, 206016, Note_on_c, 0, 61, 78
2, 206112, Note_on_c, 0, 79, 78
2, 206204, Note_off_c, 0, 61, 0
2, 206204, Note_off_c, 0, 79, 0
2, 206208, Note_on_c, 0, 79, 79
2, 206208, Note_on_c, 0, 62, 79
2, 206208, Note_on_c, 0, 57, 79
2, 206396, Note_off_c, 0, 79, 0
2, 206400, Note_on_c, 0, 77, 79
2, 206588, Note_off_c, 0, 77, 0
2, 206592, Note_on_c, 0, 76, 79
2, 206780, Note_off_c, 0, 76, 0
2, 206784, Note_on_c, 0, 77, 79
2, 206972, Note_off_c, 0, 62, 0
2, 206972, Note_off_c, 0, 57, 0
2, 206972, Note_off_c, 0, 77, 0
2, 206976, Note_on_c, 0, 76, 79
2, 206976, Note_on_c, 0, 64, 79
2, 206976, Note_on_c, 0, 56, 79
2, 207164, Note_off_c, 0, 76, 0
2, 207164, Note_off_c, 0, 64, 0
2, 207168, Note_on_c, 0, 74, 79
2, 207168, Note_on_c, 0, 65, 79
2, 207356, Note_off_c, 0, 56, 0
2, 207356, Note_off_c, 0, 74, 0
2, 207356, Note_off_c, 0, 65, 0
2, 207360, Note_on_c, 0, 73, 79
2, 207360, Note_on_c, 0, 64, 79
2, 207360, Note_on_c, 0, 57, 79
2, 207548, Note_off_c, 0, 73, 0
2, 207552, Note_on_c, 0, 80, 79
2, 207740, Note_off_c, 0, 64, 0
2, 207740, Note_off_c, 0, 57, 0
2, 207740, Note_off_c, 0, 80, 0
2, 207744, Note_on_c, 0, 81, 79
2, 207932, Note_off_c, 0, 81, 0
2, 207936, Note_on_c, 0, 80, 79
2, 208124, Note_off_c, 0, 80, 0
2, 208128, Note_on_c, 0, 81, 79
2, 208316, Note_off_c, 0, 81, 0
2, 208320, Note_on_c, 0, 76, 79
2, 208508, Note_off_c, 0, 76, 0
2, 208512, Note_on_c, 0, 79, 79
2, 208512, Note_on_c, 0, 68, 79
2, 208512, Note_on_c, 0, 62, 79
2, 208512, Note_on_c, 0, 58, 79
2, 208700, Note_off_c, 0, 79, 0
2, 208704, Note_on_c, 0, 77, 79
2, 208892, Note_off_c, 0, 77, 0
2, 208896, Note_on_c, 0, 76, 79
2, 209084, Note_off_c, 0, 76, 0
2, 209088, Note_on_c, 0, 77, 79
2, 209276, Note_off_c, 0, 77, 0
2, 209280, Note_on_c, 0, 76, 79
2, 209468, Note_off_c, 0, 76, 0
2, 209472, Note_on_c, 0, 74, 79
2, 209660, Note_off_c, 0, 68, 0
2, 209660, Note_off_c, 0, 62, 0
2, 209660, Note_off_c, 0, 58, 0
2, 209660, Note_off_c, 0, 74, 0
2, 209664, Note_on_c, 0, 81, 74
2, 209664, Note_on_c, 0, 69, 74
2, 209664, Note_on_c, 0, 61, 74
2, 209664, Note_on_c, 0, 57, 74
2, 209852, Note_off_c, 0, 81, 0
2, 209856, Note_on_c, 0, 80, 74
2, 210044, Note_off_c, 0, 69, 0
2, 210044, Note_off_c, 0, 61, 0
2, 210044, Note_off_c, 0, 57, 0
2, 210044, Note_off_c, 0, 80, 0
2, 210048, Note_on_c, 0, 81, 74
2, 210236, Note_off_c, 0, 81, 0
2, 210240, Note_on_c, 0, 76, 74
2, 210416, Note_on_c, 0, 57, 74
2, 210428, Note_off_c, 0, 76, 0
2, 210432, Note_on_c, 0, 77, 74
2, 210432, Note_on_c, 0, 65, 74
2, 210432, Note_on_c, 0, 62, 74
2, 210620, Note_off_c, 0, 77, 0
2, 210624, Note_on_c, 0, 74, 74
2, 210796, Note_off_c, 0, 57, 0
2, 210812, Note_off_c, 0, 65, 0
2, 210812, Note_off_c, 0, 62, 0
2, 210812, Note_off_c, 0, 74, 0
2, 210816, Note_on_c, 0, 81, 74
2, 210816, Note_on_c, 0, 64, 74
2, 210816, Note_on_c, 0, 61, 74
2, 210816, Note_on_c, 0, 57, 74
2, 211004, Note_off_c, 0, 81, 0
2, 211008, Note_on_c, 0, 80, 74
2, 211196, Note_off_c, 0, 64, 0
2, 211196, Note_off_c, 0, 61, 0
2, 211196, Note_off_c, 0, 57, 0
2, 211196, Note_off_c, 0, 80, 0
2, 211200, Note_on_c, 0, 81, 74
2, 211388, Note_off_c, 0, 81, 0
2, 211392, Note_on_c, 0, 76, 74
2, 211580, Note_off_c, 0, 76, 0
2, 211584, Note_on_c, 0, 77, 74
2, 211584, Note_on_c, 0, 65, 74
2, 211584, Note_on_c, 0, 62, 74
2, 211584, Note_on_c, 0, 57, 74
2, 211772, Note_off_c, 0, 77, 0
2, 211776, Note_on_c, 0, 74, 74
2, 211964, Note_off_c, 0, 65, 0
2, 211964, Note_off_c, 0, 62, 0
2, 211964, Note_off_c, 0, 57, 0
2, 211964, Note_off_c, 0, 74, 0
2, 211968, Note_on_c, 0, 69, 74
2, 211968, Note_on_c, 0, 64, 74
2, 211968, Note_on_c, 0, 61, 74
2, 211968, Note_on_c, 0, 57, 74
2, 212156, Note_off_c, 0, 69, 0
2, 212160, Note_on_c, 0, 68, 74
2, 212348, Note_off_c, 0, 64, 0
2, 212348, Note_off_c, 0, 61, 0
2, 212348, Note_off_c, 0, 57, 0
2, 212348, Note_off_c, 0, 68, 0
2, 212352, Note_on_c, 0, 69, 74
2, 212540, Note_off_c, 0, 69, 0
2, 212544, Note_on_c, 0, 68, 74
2, 212732, Note_off_c, 0, 68, 0
2, 212736, Note_on_c, 0, 69, 74
2, 212924, Note_off_c, 0, 69, 0
2, 212928, Note_on_c, 0, 68, 74
2, 213116, Note_off_c, 0, 68, 0
2, 213120, Note_on_c, 0, 69, 59
2, 213120, Note_on_c, 0, 66, 59
2, 213308, Note_off_c, 0, 66, 0
2, 213312, Note_on_c, 0, 57, 59
2, 213500, Note_off_c, 0, 69, 0
2, 213500, Note_off_c, 0, 57, 0
2, 213504, Note_on_c, 0, 66, 59
2, 213504, Note_on_c, 0, 62, 59
2, 213692, Note_off_c, 0, 62, 0
2, 213696, Note_on_c, 0, 57, 59
2, 213884, Note_off_c, 0, 66, 0
2, 213884, Note_off_c, 0, 57, 0
2, 213888, Note_on_c, 0, 67, 59
2, 213888, Note_on_c, 0, 64, 59
2, 214076, Note_off_c, 0, 64, 0
2, 214080, Note_on_c, 0, 57, 59
2, 214268, Note_off_c, 0, 67, 0
2, 214268, Note_off_c, 0, 57, 0
2, 214272, Note_on_c, 0, 69, 59
2, 214272, Note_on_c, 0, 66, 59
2, 214460, Note_off_c, 0, 66, 0
2, 214464, Note_on_c, 0, 62, 59
2, 214652, Note_off_c, 0, 69, 0
2, 214652, Note_off_c, 0, 62, 0
2, 214656, Note_on_c, 0, 74, 74
2, 214656, Note_on_c, 0, 71, 74
2, 214844, Note_off_c, 0, 74, 0
2, 214844, Note_off_c, 0, 71, 0
2, 214848, Note_on_c, 0, 73, 74
2, 214848, Note_on_c, 0, 69, 74
2, 215036, Note_off_c, 0, 73, 0
2, 215036, Note_off_c, 0, 69, 0
2, 215040, Note_on_c, 0, 71, 74
2, 215040, Note_on_c, 0, 67, 74
2, 215228, Note_off_c, 0, 71, 0
2, 215228, Note_off_c, 0, 67, 0
2, 215232, Note_on_c, 0, 69, 74
2, 215232, Note_on_c, 0, 66, 74
2, 215420, Note_off_c, 0, 69, 0
2, 215420, Note_off_c, 0, 66, 0
2, 215424, Note_on_c, 0, 67, 74
2, 215424, Note_on_c, 0, 67, 74
2, 215612, Note_off_c, 0, 67, 0
2, 215616, Note_on_c, 0, 62, 74
2, 215804, Note_off_c, 0, 67, 0
2, 215804, Note_off_c, 0, 62, 0
2, 215808, Note_on_c, 0, 69, 74
2, 215808, Note_on_c, 0, 66, 74
2, 215996, Note_off_c, 0, 66, 0
2, 216000, Note_on_c, 0, 62, 74
2, 216188, Note_off_c, 0, 69, 0
2, 216188, Note_off_c, 0, 62, 0
2, 216192, Note_on_c, 0, 71, 74
2, 216192, Note_on_c, 0, 67, 74
2, 216380, Note_off_c, 0, 67, 0
2, 216384, Note_on_c, 0, 62, 74
2, 216572, Note_off_c, 0, 71, 0
2, 216572, Note_off_c, 0, 62, 0
2, 216576, Note_on_c, 0, 69, 74
2, 216576, Note_on_c, 0, 66, 74
2, 216764, Note_off_c, 0, 66, 0
2, 216768, Note_on_c, 0, 62, 74
2, 216956, Note_off_c, 0, 69, 0
2, 216956, Note_off_c, 0, 62, 0
2, 216960, Note_on_c, 0, 74, 59
2, 216960, Note_on_c, 0, 71, 59
2, 216960, Note_on_c, 0, 86, 59
2, 217148, Note_off_c, 0, 74, 0
2, 217148, Note_off_c, 0, 71, 0
2, 217148, Note_off_c, 0, 86, 0
2, 217152, Note_on_c, 0, 73, 59
2, 217152, Note_on_c, 0, 69, 59
2, 217152, Note_on_c, 0, 85, 59
2, 217340, Note_off_c, 0, 73, 0
2, 217340, Note_off_c, 0, 69, 0
2, 217340, Note_off_c, 0, 85, 0
2, 217344, Note_on_c, 0, 71, 59
2, 217344, Note_on_c, 0, 67, 59
2, 217344, Note_on_c, 0, 83, 59
2, 217532, Note_off_c, 0, 71, 0
2, 217532, Note_off_c, 0, 67, 0
2, 217532, Note_off_c, 0, 83, 0
2, 217536, Note_on_c, 0, 69, 59
2, 217536, Note_on_c, 0, 66, 59
2, 217536, Note_on_c, 0, 81, 59
2, 217724, Note_off_c, 0, 69, 0
2, 217724, Note_off_c, 0, 66, 0
2, 217724, Note_off_c, 0, 81, 0
2, 217728, Note_on_c, 0, 67, 59
2, 217728, Note_on_c, 0, 64, 59
2, 217728, Note_on_c, 0, 79, 59
2, 217916, Note_off_c, 0, 64, 0
2, 217920, Note_on_c, 0, 62, 59
2, 218108, Note_off_c, 0, 67, 0
2, 218108, Note_off_c, 0, 79, 0
2, 218108, Note_off_c, 0, 62, 0
2, 218112, Note_on_c, 0, 69, 59
2, 218112, Note_on_c, 0, 66, 59
2, 218112, Note_on_c, 0, 81, 59
2, 218300, Note_off_c, 0, 66, 0
2, 218304, Note_on_c, 0, 62, 59
2, 218492, Note_off_c, 0, 69, 0
2, 218492, Note_off_c, 0, 81, 0
2, 218492, Note_off_c, 0, 62, 0
2, 218496, Note_on_c, 0, 71, 59
2, 218496, Note_on_c, 0, 67, 59
2, 218496, Note_on_c, 0, 83, 59
2, 218684, Note_off_c, 0, 67, 0
2, 218688, Note_on_c, 0, 62, 59
2, 218876, Note_off_c, 0, 71, 0
2, 218876, Note_off_c, 0, 83, 0
2, 218876, Note_off_c, 0, 62, 0
2, 218880, Note_on_c, 0, 69, 59
2, 218880, Note_on_c, 0, 66, 59
2, 218880, Note_on_c, 0, 81, 59
2, 219068, Note_off_c, 0, 66, 0
2, 219072, Note_on_c, 0, 62, 59
2, 219260, Note_off_c, 0, 69, 0
2, 219260, Note_off_c, 0, 62, 0
2, 219264, Note_on_c, 0, 71, 66
2, 219264, Note_on_c, 0, 67, 66
2, 219452, Note_off_c, 0, 71, 0
2, 219452, Note_off_c, 0, 67, 0
2, 219456, Note_on_c, 0, 69, 66
2, 219456, Note_on_c, 0, 66, 66
2, 219644, Note_off_c, 0, 81, 0
2, 219644, Note_off_c, 0, 69, 0
2, 219644, Note_off_c, 0, 66, 0
2, 219648, Note_on_c, 0, 67, 66
2, 219648, Note_on_c, 0, 64, 66
2, 219836, Note_off_c, 0, 67, 0
2, 219836, Note_off_c, 0, 64, 0
2, 219840, Note_on_c, 0, 66, 66
2, 219840, Note_on_c, 0, 62, 66
2, 220028, Note_off_c, 0, 66, 0
2, 220028, Note_off_c, 0, 62, 0
2, 220032, Note_on_c, 0, 64, 69
2, 220032, Note_on_c, 0, 61, 69
2, 220220, Note_off_c, 0, 61, 0
2, 220224, Note_on_c, 0, 57, 70
2, 220412, Note_off_c, 0, 64, 0
2, 220412, Note_off_c, 0, 57, 0
2, 220416, Note_on_c, 0, 69, 71
2, 220416, Note_on_c, 0, 62, 71
2, 220604, Note_off_c, 0, 62, 0
2, 220608, Note_on_c, 0, 57, 73
2, 220796, Note_off_c, 0, 69, 0
2, 220796, Note_off_c, 0, 57, 0
2, 220800, Note_on_c, 0, 66, 74
2, 220800, Note_on_c, 0, 62, 74
2, 220988, Note_off_c, 0, 62, 0
2, 220992, Note_on_c, 0, 57, 75
2, 221180, Note_off_c, 0, 66, 0
2, 221180, Note_off_c, 0, 57, 0
2, 221184, Note_on_c, 0, 64, 77
2, 221184, Note_on_c, 0, 61, 77
2, 221372, Note_off_c, 0, 61, 0
2, 221376, Note_on_c, 0, 57, 78
2, 221564, Note_off_c, 0, 64, 0
2, 221564, Note_off_c, 0, 57, 0
2, 221568, Note_on_c, 0, 71, 59
2, 221568, Note_on_c, 0, 67, 59
2, 221568, Note_on_c, 0, 83, 59
2, 221756, Note_off_c, 0, 71, 0
2, 221756, Note_off_c, 0, 67, 0
2, 221756, Note_off_c, 0, 83, 0
2, 221760, Note_on_c, 0, 69, 59
2, 221760, Note_on_c, 0, 66, 59
2, 221760, Note_on_c, 0, 81, 59
2, 221948, Note_off_c, 0, 69, 0
2, 221948, Note_off_c, 0, 66, 0
2, 221948, Note_off_c, 0, 81, 0
2, 221952, Note_on_c, 0, 67, 59
2, 221952, Note_on_c, 0, 64, 59
2, 221952, Note_on_c, 0, 79, 59
2, 222140, Note_off_c, 0, 67, 0
2, 222140, Note_off_c, 0, 64, 0
2, 222140, Note_off_c, 0, 79, 0
2, 222144, Note_on_c, 0, 66, 59
2, 222144, Note_on_c, 0, 62, 59
2, 222144, Note_on_c, 0, 78, 59
2, 222332, Note_off_c, 0, 66, 0
2, 222332, Note_off_c, 0, 62, 0
2, 222332, Note_off_c, 0, 78, 0
2, 222336, Note_on_c, 0, 80, 59
2, 222380, Note_off_c, 0, 80, 0
2, 222384, Note_on_c, 0, 81, 59
2, 222384, Note_on_c, 0, 64, 59
2, 222384, Note_on_c, 0, 61, 59
2, 222528, Note_off_c, 0, 61, 0
2, 222528, Note_on_c, 0, 57, 59
2, 222716, Note_off_c, 0, 81, 0
2, 222716, Note_off_c, 0, 64, 0
2, 222716, Note_off_c, 0, 57, 0
2, 222720, Note_on_c, 0, 80, 59
2, 222764, Note_off_c, 0, 80, 0
2, 222768, Note_on_c, 0, 81, 59
2, 222768, Note_on_c, 0, 69, 59
2, 222768, Note_on_c, 0, 66, 59
2, 222912, Note_off_c, 0, 66, 0
2, 222912, Note_on_c, 0, 57, 59
2, 223100, Note_off_c, 0, 81, 0
2, 223100, Note_off_c, 0, 69, 0
2, 223100, Note_off_c, 0, 57, 0
2, 223104, Note_on_c, 0, 80, 59
2, 223148, Note_off_c, 0, 80, 0
2, 223152, Note_on_c, 0, 81, 59
2, 223152, Note_on_c, 0, 66, 59
2, 223152, Note_on_c, 0, 62, 59
2, 223296, Note_off_c, 0, 62, 0
2, 223296, Note_on_c, 0, 57, 59
2, 223484, Note_off_c, 0, 81, 64
2, 223484, Note_off_c, 0, 66, 0
2, 223484, Note_off_c, 0, 57, 0
2, 223488, Note_on_c, 0, 80, 59
2, 223532, Note_off_c, 0, 80, 0
2, 223536, Note_on_c, 0, 81, 59
2, 223536, Note_on_c, 0, 61, 59
2, 223536, Note_on_c, 0, 64, 59
2, 223680, Note_off_c, 0, 64, 0
2, 223680, Note_on_c, 0, 69, 59
2, 223868, Note_off_c, 0, 81, 0
2, 223868, Note_off_c, 0, 61, 0
2, 223868, Note_off_c, 0, 69, 0
2, 223872, Note_on_c, 0, 74, 79
2, 223872, Note_on_c, 0, 62, 79
2, 224060, Note_off_c, 0, 74, 0
2, 224064, Note_on_c, 0, 73, 79
2, 224252, Note_off_c, 0, 73, 0
2, 224256, Note_on_c, 0, 74, 79
2, 224444, Note_off_c, 0, 74, 0
2, 224448, Note_on_c, 0, 71, 79
2, 224636, Note_off_c, 0, 62, 0
2, 224636, Note_off_c, 0, 71, 0
2, 224640, Note_on_c, 0, 69, 59
2, 224640, Note_on_c, 0, 62, 59
2, 224828, Note_off_c, 0, 62, 0
2, 224832, Note_on_c, 0, 57, 59
2, 225020, Note_off_c, 0, 69, 0
2, 225020, Note_off_c, 0, 57, 0
2, 225024, Note_on_c, 0, 67, 59
2, 225024, Note_on_c, 0, 64, 59
2, 225212, Note_off_c, 0, 64, 0
2, 225216, Note_on_c, 0, 59, 59
2, 225404, Note_off_c, 0, 67, 0
2, 225404, Note_off_c, 0, 59, 0
2, 225408, Note_on_c, 0, 64, 79
2, 225408, Note_on_c, 0, 61, 79
2, 225596, Note_off_c, 0, 61, 0
2, 225600, Note_on_c, 0, 57, 75
2, 225788, Note_off_c, 0, 64, 0
2, 225788, Note_off_c, 0, 57, 0
2, 225792, Note_on_c, 0, 66, 70
2, 225792, Note_on_c, 0, 62, 70
2, 225980, Note_off_c, 0, 66, 0
2, 225984, Note_on_c, 0, 69, 65
2, 226172, Note_off_c, 0, 62, 0
2, 226172, Note_off_c, 0, 69, 0
2, 226176, Note_on_c, 0, 74, 59
2, 226176, Note_on_c, 0, 71, 59
2, 226176, Note_on_c, 0, 86, 59
2, 226364, Note_off_c, 0, 74, 0
2, 226364, Note_off_c, 0, 71, 0
2, 226364, Note_off_c, 0, 86, 0
2, 226368, Note_on_c, 0, 70, 59
2, 226368, Note_on_c, 0, 73, 59
2, 226368, Note_on_c, 0, 85, 59
2, 226556, Note_off_c, 0, 70, 0
2, 226556, Note_off_c, 0, 73, 0
2, 226556, Note_off_c, 0, 85, 0
2, 226560, Note_on_c, 0, 74, 59
2, 226560, Note_on_c, 0, 71, 59
2, 226560, Note_on_c, 0, 86, 59
2, 226748, Note_off_c, 0, 74, 0
2, 226748, Note_off_c, 0, 71, 0
2, 226748, Note_off_c, 0, 86, 0
2, 226752, Note_on_c, 0, 71, 59
2, 226752, Note_on_c, 0, 67, 59
2, 226752, Note_on_c, 0, 83, 59
2, 226940, Note_off_c, 0, 71, 0
2, 226940, Note_off_c, 0, 67, 0
2, 226940, Note_off_c, 0, 83, 0
2, 226944, Note_on_c, 0, 69, 59
2, 226944, Note_on_c, 0, 66, 59
2, 226944, Note_on_c, 0, 81, 59
2, 227132, Note_off_c, 0, 66, 0
2, 227136, Note_on_c, 0, 62, 59
2, 227324, Note_off_c, 0, 69, 0
2, 227324, Note_off_c, 0, 81, 0
2, 227324, Note_off_c, 0, 62, 0
2, 227328, Note_on_c, 0, 67, 59
2, 227328, Note_on_c, 0, 64, 59
2, 227328, Note_on_c, 0, 79, 59
2, 227516, Note_off_c, 0, 64, 0
2, 227520, Note_on_c, 0, 59, 59
2, 227708, Note_off_c, 0, 67, 0
2, 227708, Note_off_c, 0, 79, 0
2, 227708, Note_off_c, 0, 59, 0
2, 227712, Note_on_c, 0, 64, 59
2, 227712, Note_on_c, 0, 61, 59
2, 227712, Note_on_c, 0, 76, 59
2, 227900, Note_off_c, 0, 61, 0
2, 227904, Note_on_c, 0, 57, 59
2, 228092, Note_off_c, 0, 64, 0
2, 228092, Note_off_c, 0, 76, 0
2, 228092, Note_off_c, 0, 57, 0
2, 228096, Note_on_c, 0, 62, 59
2, 228096, Note_on_c, 0, 66, 59
2, 228096, Note_on_c, 0, 78, 59
2, 228284, Note_off_c, 0, 66, 0
2, 228288, Note_on_c, 0, 69, 59
2, 228288, Note_on_c, 0, 59, 59
2, 228476, Note_off_c, 0, 62, 0
2, 228476, Note_off_c, 0, 78, 0
2, 228476, Note_off_c, 0, 69, 0
2, 228480, Note_on_c, 0, 69, 74
2, 228668, Note_off_c, 0, 59, 0
2, 228668, Note_off_c, 0, 69, 0
2, 228688, Note_on_c, 0, 67, 74
2, 228864, Note_on_c, 0, 64, 74
2, 228876, Note_off_c, 0, 67, 0
2, 229052, Note_off_c, 0, 64, 0
2, 229056, Note_on_c, 0, 61, 74
2, 229244, Note_off_c, 0, 61, 0
2, 229248, Note_on_c, 0, 62, 79
2, 229436, Note_off_c, 0, 62, 0
2, 229440, Note_on_c, 0, 66, 79
2, 229628, Note_off_c, 0, 66, 0
2, 229632, Note_on_c, 0, 69, 79
2, 229632, Note_on_c, 0, 59, 79
2, 229820, Note_off_c, 0, 69, 0
2, 229824, Note_on_c, 0, 67, 79
2, 230012, Note_off_c, 0, 59, 0
2, 230012, Note_off_c, 0, 67, 0
2, 230016, Note_on_c, 0, 64, 79
2, 230204, Note_off_c, 0, 64, 0
2, 230208, Note_on_c, 0, 61, 79
2, 230396, Note_off_c, 0, 61, 0
2, 230400, Note_on_c, 0, 62, 79
2, 230588, Note_off_c, 0, 62, 0
2, 230588, End_track
3, 0, Start_track
3, 0, Title_t, "Sonata # 16"
3, 0, Control_c, 1, 0, 0
3, 0, Program_c, 1, 0
3, 0, Control_c, 1, 7, 99
3, 0, Control_c, 1, 10, 54
3, 0, Control_c, 1, 91, 95
3, 0, Control_c, 1, 93, 57
3, 0, Key_signature, 3, "major"
3, 0, Control_c, 1, 121, 0
3, 96, Control_c, 1, 10, 53
3, 192, Control_c, 1, 91, 68
3, 240, Control_c, 1, 93, 40
3, 288, Program_c, 1, 0
3, 1152, Note_on_c, 1, 57, 79
3, 1152, Note_on_c, 1, 45, 79
3, 1916, Note_off_c, 1, 57, 0
3, 1916, Note_off_c, 1, 45, 0
3, 1920, Note_on_c, 1, 52, 79
3, 1920, Note_on_c, 1, 40, 79
3, 2300, Note_off_c, 1, 52, 0
3, 2300, Note_off_c, 1, 40, 0
3, 2304, Note_on_c, 1, 61, 79
3, 2304, Note_on_c, 1, 49, 79
3, 2684, Note_off_c, 1, 61, 0
3, 2684, Note_off_c, 1, 49, 0
3, 2688, Note_on_c, 1, 57, 79
3, 2688, Note_on_c, 1, 45, 79
3, 3068, Note_off_c, 1, 57, 0
3, 3068, Note_off_c, 1, 45, 0
3, 6912, Note_on_c, 1, 52, 59
3, 7100, Note_off_c, 1, 52, 0
3, 7104, Note_on_c, 1, 62, 59
3, 7292, Note_off_c, 1, 62, 0
3, 7296, Note_on_c, 1, 59, 59
3, 7484, Note_off_c, 1, 59, 0
3, 7488, Note_on_c, 1, 62, 59
3, 7676, Note_off_c, 1, 62, 0
3, 7680, Note_on_c, 1, 59, 59
3, 7868, Note_off_c, 1, 59, 0
3, 7872, Note_on_c, 1, 62, 59
3, 8060, Note_off_c, 1, 62, 0
3, 8064, Note_on_c, 1, 52, 59
3, 8252, Note_off_c, 1, 52, 0
3, 8256, Note_on_c, 1, 61, 59
3, 8444, Note_off_c, 1, 61, 0
3, 8448, Note_on_c, 1, 57, 59
3, 8636, Note_off_c, 1, 57, 0
3, 8640, Note_on_c, 1, 61, 59
3, 8828, Note_off_c, 1, 61, 0
3, 8832, Note_on_c, 1, 57, 59
3, 9020, Note_off_c, 1, 57, 0
3, 9024, Note_on_c, 1, 61, 59
3, 9212, Note_off_c, 1, 61, 0
3, 9216, Note_on_c, 1, 50, 59
3, 9404, Note_off_c, 1, 50, 0
3, 9408, Note_on_c, 1, 59, 59
3, 9596, Note_off_c, 1, 59, 0
3, 9600, Note_on_c, 1, 54, 59
3, 9788, Note_off_c, 1, 54, 0
3, 9792, Note_on_c, 1, 59, 59
3, 9980, Note_off_c, 1, 59, 0
3, 9984, Note_on_c, 1, 54, 59
3, 10172, Note_off_c, 1, 54, 0
3, 10176, Note_on_c, 1, 59, 59
3, 10364, Note_off_c, 1, 59, 0
3, 10368, Note_on_c, 1, 50, 59
3, 10748, Note_off_c, 1, 50, 0
3, 11520, Note_on_c, 1, 62, 59
3, 11520, Note_on_c, 1, 52, 59
3, 11900, Note_off_c, 1, 62, 0
3, 11900, Note_off_c, 1, 52, 0
3, 11904, Note_on_c, 1, 57, 59
3, 11904, Note_on_c, 1, 61, 59
3, 12284, Note_off_c, 1, 57, 0
3, 12284, Note_off_c, 1, 61, 0
3, 12672, Note_on_c, 1, 52, 79
3, 12672, Note_on_c, 1, 52, 79
3, 12860, Note_off_c, 1, 52, 0
3, 12864, Note_on_c, 1, 56, 79
3, 13052, Note_off_c, 1, 56, 0
3, 13056, Note_on_c, 1, 59, 79
3, 13244, Note_off_c, 1, 59, 0
3, 13248, Note_on_c, 1, 56, 79
3, 13436, Note_off_c, 1, 52, 0
3, 13436, Note_off_c, 1, 56, 0
3, 13440, Note_on_c, 1, 54, 79
3, 13628, Note_off_c, 1, 54, 0
3, 13632, Note_on_c, 1, 52, 79
3, 13820, Note_off_c, 1, 52, 0
3, 13824, Note_on_c, 1, 51, 79
3, 14012, Note_off_c, 1, 51, 0
3, 14016, Note_on_c, 1, 52, 79
3, 14204, Note_off_c, 1, 52, 0
3, 14208, Note_on_c, 1, 54, 79
3, 14396, Note_off_c, 1, 54, 0
3, 14400, Note_on_c, 1, 47, 79
3, 14588, Note_off_c, 1, 47, 0
3, 14592, Note_on_c, 1, 49, 79
3, 14780, Note_off_c, 1, 49, 0
3, 14784, Note_on_c, 1, 51, 79
3, 14972, Note_off_c, 1, 51, 0
3, 14976, Note_on_c, 1, 52, 79
3, 14976, Note_on_c, 1, 52, 79
3, 15164, Note_off_c, 1, 52, 0
3, 15168, Note_on_c, 1, 56, 79
3, 15356, Note_off_c, 1, 56, 0
3, 15360, Note_on_c, 1, 59, 79
3, 15548, Note_off_c, 1, 59, 0
3, 15552, Note_on_c, 1, 56, 79
3, 15740, Note_off_c, 1, 52, 0
3, 15740, Note_off_c, 1, 56, 0
3, 15744, Note_on_c, 1, 54, 79
3, 15932, Note_off_c, 1, 54, 0
3, 15936, Note_on_c, 1, 52, 79
3, 16124, Note_off_c, 1, 52, 0
3, 16128, Note_on_c, 1, 51, 79
3, 16316, Note_off_c, 1, 51, 0
3, 16320, Note_on_c, 1, 52, 79
3, 16508, Note_off_c, 1, 52, 0
3, 16512, Note_on_c, 1, 54, 79
3, 16700, Note_off_c, 1, 54, 0
3, 16704, Note_on_c, 1, 47, 79
3, 16892, Note_off_c, 1, 47, 0
3, 16896, Note_on_c, 1, 49, 79
3, 17084, Note_off_c, 1, 49, 0
3, 17088, Note_on_c, 1, 51, 79
3, 17276, Note_off_c, 1, 51, 0
3, 17280, Note_on_c, 1, 52, 79
3, 17660, Note_off_c, 1, 52, 0
3, 21120, Note_on_c, 1, 52, 59
3, 21500, Note_off_c, 1, 52, 0
3, 21888, Note_on_c, 1, 57, 79
3, 21888, Note_on_c, 1, 45, 79
3, 22652, Note_off_c, 1, 57, 0
3, 22652, Note_off_c, 1, 45, 0
3, 22656, Note_on_c, 1, 52, 79
3, 22656, Note_on_c, 1, 40, 79
3, 23036, Note_off_c, 1, 52, 0
3, 23036, Note_off_c, 1, 40, 0
3, 23040, Note_on_c, 1, 61, 79
3, 23040, Note_on_c, 1, 49, 79
3, 23420, Note_off_c, 1, 61, 0
3, 23420, Note_off_c, 1, 49, 0
3, 23424, Note_on_c, 1, 57, 79
3, 23424, Note_on_c, 1, 45, 79
3, 23804, Note_off_c, 1, 57, 0
3, 23804, Note_off_c, 1, 45, 0
3, 27648, Note_on_c, 1, 52, 59
3, 27836, Note_off_c, 1, 52, 0
3, 27840, Note_on_c, 1, 62, 59
3, 28028, Note_off_c, 1, 62, 0
3, 28032, Note_on_c, 1, 59, 59
3, 28220, Note_off_c, 1, 59, 0
3, 28224, Note_on_c, 1, 62, 59
3, 28412, Note_off_c, 1, 62, 0
3, 28416, Note_on_c, 1, 59, 59
3, 28604, Note_off_c, 1, 59, 0
3, 28608, Note_on_c, 1, 62, 59
3, 28796, Note_off_c, 1, 62, 0
3, 28800, Note_on_c, 1, 52, 59
3, 28988, Note_off_c, 1, 52, 0
3, 28992, Note_on_c, 1, 61, 59
3, 29180, Note_off_c, 1, 61, 0
3, 29184, Note_on_c, 1, 57, 59
3, 29372, Note_off_c, 1, 57, 0
3, 29376, Note_on_c, 1, 61, 59
3, 29564, Note_off_c, 1, 61, 0
3, 29568, Note_on_c, 1, 57, 59
3, 29756, Note_off_c, 1, 57, 0
3, 29760, Note_on_c, 1, 61, 59
3, 29948, Note_off_c, 1, 61, 0
3, 29952, Note_on_c, 1, 50, 59
3, 30140, Note_off_c, 1, 50, 0
3, 30144, Note_on_c, 1, 59, 59
3, 30332, Note_off_c, 1, 59, 0
3, 30336, Note_on_c, 1, 54, 59
3, 30524, Note_off_c, 1, 54, 0
3, 30528, Note_on_c, 1, 59, 59
3, 30716, Note_off_c, 1, 59, 0
3, 30720, Note_on_c, 1, 54, 59
3, 30908, Note_off_c, 1, 54, 0
3, 30912, Note_on_c, 1, 59, 59
3, 31100, Note_off_c, 1, 59, 0
3, 31104, Note_on_c, 1, 50, 59
3, 31484, Note_off_c, 1, 50, 0
3, 32256, Note_on_c, 1, 62, 59
3, 32256, Note_on_c, 1, 52, 59
3, 32636, Note_off_c, 1, 62, 0
3, 32636, Note_off_c, 1, 52, 0
3, 32640, Note_on_c, 1, 57, 59
3, 32640, Note_on_c, 1, 61, 59
3, 33020, Note_off_c, 1, 57, 0
3, 33020, Note_off_c, 1, 61, 0
3, 33408, Note_on_c, 1, 52, 79
3, 33408, Note_on_c, 1, 52, 79
3, 33596, Note_off_c, 1, 52, 0
3, 33600, Note_on_c, 1, 56, 79
3, 33788, Note_off_c, 1, 56, 0
3, 33792, Note_on_c, 1, 59, 79
3, 33980, Note_off_c, 1, 59, 0
3, 33984, Note_on_c, 1, 56, 79
3, 34172, Note_off_c, 1, 52, 0
3, 34172, Note_off_c, 1, 56, 0
3, 34176, Note_on_c, 1, 54, 79
3, 34364, Note_off_c, 1, 54, 0
3, 34368, Note_on_c, 1, 52, 79
3, 34556, Note_off_c, 1, 52, 0
3, 34560, Note_on_c, 1, 51, 79
3, 34748, Note_off_c, 1, 51, 0
3, 34752, Note_on_c, 1, 52, 79
3, 34940, Note_off_c, 1, 52, 0
3, 34944, Note_on_c, 1, 54, 79
3, 35132, Note_off_c, 1, 54, 0
3, 35136, Note_on_c, 1, 47, 79
3, 35324, Note_off_c, 1, 47, 0
3, 35328, Note_on_c, 1, 49, 79
3, 35516, Note_off_c, 1, 49, 0
3, 35520, Note_on_c, 1, 51, 79
3, 35708, Note_off_c, 1, 51, 0
3, 35712, Note_on_c, 1, 52, 79
3, 35712, Note_on_c, 1, 52, 79
3, 35900, Note_off_c, 1, 52, 0
3, 35904, Note_on_c, 1, 56, 79
3, 36092, Note_off_c, 1, 56, 0
3, 36096, Note_on_c, 1, 59, 79
3, 36284, Note_off_c, 1, 59, 0
3, 36288, Note_on_c, 1, 56, 79
3, 36476, Note_off_c, 1, 52, 0
3, 36476, Note_off_c, 1, 56, 0
3, 36480, Note_on_c, 1, 54, 79
3, 36668, Note_off_c, 1, 54, 0
3, 36672, Note_on_c, 1, 52, 79
3, 36860, Note_off_c, 1, 52, 0
3, 36864, Note_on_c, 1, 51, 79
3, 37052, Note_off_c, 1, 51, 0
3, 37056, Note_on_c, 1, 52, 79
3, 37244, Note_off_c, 1, 52, 0
3, 37248, Note_on_c, 1, 54, 79
3, 37436, Note_off_c, 1, 54, 0
3, 37440, Note_on_c, 1, 47, 79
3, 37628, Note_off_c, 1, 47, 0
3, 37632, Note_on_c, 1, 49, 79
3, 37820, Note_off_c, 1, 49, 0
3, 37824, Note_on_c, 1, 51, 79
3, 38012, Note_off_c, 1, 51, 0
3, 38016, Note_on_c, 1, 52, 79
3, 38396, Note_off_c, 1, 52, 0
3, 41856, Note_on_c, 1, 52, 59
3, 42236, Note_off_c, 1, 52, 0
3, 43776, Note_on_c, 1, 54, 59
3, 43964, Note_off_c, 1, 54, 0
3, 43968, Note_on_c, 1, 61, 59
3, 44156, Note_off_c, 1, 61, 0
3, 44160, Note_on_c, 1, 66, 59
3, 44348, Note_off_c, 1, 66, 0
3, 44368, Note_on_c, 1, 64, 59
3, 44544, Note_on_c, 1, 62, 59
3, 44556, Note_off_c, 1, 64, 0
3, 44732, Note_off_c, 1, 62, 0
3, 44736, Note_on_c, 1, 61, 59
3, 44924, Note_off_c, 1, 61, 0
3, 44928, Note_on_c, 1, 54, 61
3, 45116, Note_off_c, 1, 54, 0
3, 45120, Note_on_c, 1, 62, 62
3, 45308, Note_off_c, 1, 62, 0
3, 45312, Note_on_c, 1, 66, 63
3, 45500, Note_off_c, 1, 66, 0
3, 45504, Note_on_c, 1, 62, 65
3, 45692, Note_off_c, 1, 62, 0
3, 45696, Note_on_c, 1, 61, 66
3, 45884, Note_off_c, 1, 61, 0
3, 45888, Note_on_c, 1, 59, 67
3, 46076, Note_off_c, 1, 59, 0
3, 46080, Note_on_c, 1, 54, 70
3, 46268, Note_off_c, 1, 54, 0
3, 46272, Note_on_c, 1, 58, 71
3, 46460, Note_off_c, 1, 58, 0
3, 46464, Note_on_c, 1, 64, 73
3, 46652, Note_off_c, 1, 64, 0
3, 46656, Note_on_c, 1, 61, 74
3, 46844, Note_off_c, 1, 61, 0
3, 46848, Note_on_c, 1, 59, 75
3, 47036, Note_off_c, 1, 59, 0
3, 47040, Note_on_c, 1, 58, 77
3, 47228, Note_off_c, 1, 58, 0
3, 47232, Note_on_c, 1, 59, 79
3, 47612, Note_off_c, 1, 59, 0
3, 48384, Note_on_c, 1, 52, 59
3, 48572, Note_off_c, 1, 52, 0
3, 48576, Note_on_c, 1, 59, 59
3, 48764, Note_off_c, 1, 59, 0
3, 48768, Note_on_c, 1, 64, 59
3, 48956, Note_off_c, 1, 64, 0
3, 48960, Note_on_c, 1, 62, 59
3, 49148, Note_off_c, 1, 62, 0
3, 49152, Note_on_c, 1, 60, 59
3, 49340, Note_off_c, 1, 60, 0
3, 49344, Note_on_c, 1, 59, 59
3, 49532, Note_off_c, 1, 59, 0
3, 49536, Note_on_c, 1, 52, 59
3, 49724, Note_off_c, 1, 52, 0
3, 49728, Note_on_c, 1, 61, 59
3, 49916, Note_off_c, 1, 61, 0
3, 49920, Note_on_c, 1, 64, 59
3, 50108, Note_off_c, 1, 64, 0
3, 50112, Note_on_c, 1, 61, 59
3, 50300, Note_off_c, 1, 61, 0
3, 50304, Note_on_c, 1, 59, 59
3, 50492, Note_off_c, 1, 59, 0
3, 50496, Note_on_c, 1, 57, 59
3, 50684, Note_off_c, 1, 57, 0
3, 50688, Note_on_c, 1, 52, 61
3, 50876, Note_off_c, 1, 52, 0
3, 50880, Note_on_c, 1, 56, 62
3, 51068, Note_off_c, 1, 56, 0
3, 51072, Note_on_c, 1, 62, 63
3, 51260, Note_off_c, 1, 62, 0
3, 51264, Note_on_c, 1, 59, 65
3, 51452, Note_off_c, 1, 59, 0
3, 51456, Note_on_c, 1, 57, 66
3, 51644, Note_off_c, 1, 57, 0
3, 51648, Note_on_c, 1, 56, 67
3, 51836, Note_off_c, 1, 56, 0
3, 51840, Note_on_c, 1, 57, 70
3, 52604, Note_off_c, 1, 57, 0
3, 52608, Note_on_c, 1, 55, 75
3, 52608, Note_on_c, 1, 43, 75
3, 52988, Note_off_c, 1, 55, 0
3, 52988, Note_off_c, 1, 43, 0
3, 52992, Note_on_c, 1, 53, 79
3, 52992, Note_on_c, 1, 41, 79
3, 53756, Note_off_c, 1, 53, 0
3, 53756, Note_off_c, 1, 41, 0
3, 54144, Note_on_c, 1, 53, 79
3, 54144, Note_on_c, 1, 57, 79
3, 54332, Note_off_c, 1, 57, 0
3, 54336, Note_on_c, 1, 56, 59
3, 54524, Note_off_c, 1, 56, 0
3, 54528, Note_on_c, 1, 57, 59
3, 54716, Note_off_c, 1, 57, 0
3, 54720, Note_on_c, 1, 60, 59
3, 54908, Note_off_c, 1, 60, 0
3, 54912, Note_on_c, 1, 59, 59
3, 55100, Note_off_c, 1, 59, 0
3, 55104, Note_on_c, 1, 57, 59
3, 55292, Note_off_c, 1, 53, 0
3, 55292, Note_off_c, 1, 57, 0
3, 55296, Note_on_c, 1, 56, 59
3, 55296, Note_on_c, 1, 52, 59
3, 55676, Note_off_c, 1, 56, 0
3, 55676, Note_off_c, 1, 52, 0
3, 56448, Note_on_c, 1, 57, 79
3, 56448, Note_on_c, 1, 45, 79
3, 57212, Note_off_c, 1, 57, 0
3, 57212, Note_off_c, 1, 45, 0
3, 57216, Note_on_c, 1, 52, 79
3, 57216, Note_on_c, 1, 40, 79
3, 57596, Note_off_c, 1, 52, 0
3, 57596, Note_off_c, 1, 40, 0
3, 57600, Note_on_c, 1, 61, 79
3, 57600, Note_on_c, 1, 49, 79
3, 57980, Note_off_c, 1, 61, 0
3, 57980, Note_off_c, 1, 49, 0
3, 57984, Note_on_c, 1, 57, 79
3, 57984, Note_on_c, 1, 45, 79
3, 58364, Note_off_c, 1, 57, 0
3, 58364, Note_off_c, 1, 45, 0
3, 62208, Note_on_c, 1, 52, 59
3, 62396, Note_off_c, 1, 52, 0
3, 62400, Note_on_c, 1, 62, 59
3, 62588, Note_off_c, 1, 62, 0
3, 62592, Note_on_c, 1, 59, 59
3, 62780, Note_off_c, 1, 59, 0
3, 62784, Note_on_c, 1, 62, 59
3, 62972, Note_off_c, 1, 62, 0
3, 62976, Note_on_c, 1, 59, 59
3, 63164, Note_off_c, 1, 59, 0
3, 63168, Note_on_c, 1, 62, 59
3, 63356, Note_off_c, 1, 62, 0
3, 63360, Note_on_c, 1, 52, 62
3, 63548, Note_off_c, 1, 52, 0
3, 63552, Note_on_c, 1, 61, 65
3, 63740, Note_off_c, 1, 61, 0
3, 63744, Note_on_c, 1, 57, 67
3, 63932, Note_off_c, 1, 57, 0
3, 63936, Note_on_c, 1, 61, 71
3, 64124, Note_off_c, 1, 61, 0
3, 64128, Note_on_c, 1, 57, 74
3, 64316, Note_off_c, 1, 57, 0
3, 64320, Note_on_c, 1, 61, 77
3, 64508, Note_off_c, 1, 61, 0
3, 64512, Note_on_c, 1, 52, 79
3, 64700, Note_off_c, 1, 52, 0
3, 64704, Note_on_c, 1, 61, 79
3, 64892, Note_off_c, 1, 61, 0
3, 64896, Note_on_c, 1, 57, 79
3, 65084, Note_off_c, 1, 57, 0
3, 65088, Note_on_c, 1, 61, 79
3, 65276, Note_off_c, 1, 61, 0
3, 65280, Note_on_c, 1, 57, 79
3, 65468, Note_off_c, 1, 57, 0
3, 65472, Note_on_c, 1, 61, 79
3, 65660, Note_off_c, 1, 61, 0
3, 65664, Note_on_c, 1, 62, 59
3, 65664, Note_on_c, 1, 57, 59
3, 65664, Note_on_c, 1, 50, 59
3, 66044, Note_off_c, 1, 62, 0
3, 66044, Note_off_c, 1, 57, 0
3, 66044, Note_off_c, 1, 50, 0
3, 66816, Note_on_c, 1, 49, 59
3, 67100, Note_off_c, 1, 49, 0
3, 67104, Note_on_c, 1, 50, 59
3, 67196, Note_off_c, 1, 50, 0
3, 67200, Note_on_c, 1, 61, 59
3, 67216, Note_on_c, 1, 52, 59
3, 67580, Note_off_c, 1, 61, 0
3, 67584, Note_on_c, 1, 59, 59
3, 67964, Note_off_c, 1, 59, 0
3, 67968, Note_on_c, 1, 57, 79
3, 67968, Note_on_c, 1, 57, 79
3, 67980, Note_off_c, 1, 52, 0
3, 68156, Note_off_c, 1, 57, 0
3, 68160, Note_on_c, 1, 61, 79
3, 68348, Note_off_c, 1, 61, 0
3, 68352, Note_on_c, 1, 64, 79
3, 68540, Note_off_c, 1, 64, 0
3, 68544, Note_on_c, 1, 61, 79
3, 68732, Note_off_c, 1, 57, 0
3, 68732, Note_off_c, 1, 61, 0
3, 68736, Note_on_c, 1, 59, 79
3, 68924, Note_off_c, 1, 59, 0
3, 68928, Note_on_c, 1, 57, 79
3, 69116, Note_off_c, 1, 57, 0
3, 69120, Note_on_c, 1, 56, 79
3, 69308, Note_off_c, 1, 56, 0
3, 69312, Note_on_c, 1, 57, 79
3, 69500, Note_off_c, 1, 57, 0
3, 69504, Note_on_c, 1, 59, 79
3, 69692, Note_off_c, 1, 59, 0
3, 69696, Note_on_c, 1, 52, 79
3, 69884, Note_off_c, 1, 52, 0
3, 69888, Note_on_c, 1, 54, 79
3, 70076, Note_off_c, 1, 54, 0
3, 70080, Note_on_c, 1, 56, 79
3, 70268, Note_off_c, 1, 56, 0
3, 70272, Note_on_c, 1, 57, 79
3, 70272, Note_on_c, 1, 57, 79
3, 70460, Note_off_c, 1, 57, 0
3, 70464, Note_on_c, 1, 61, 79
3, 70652, Note_off_c, 1, 61, 0
3, 70656, Note_on_c, 1, 64, 79
3, 70844, Note_off_c, 1, 64, 0
3, 70848, Note_on_c, 1, 61, 79
3, 71036, Note_off_c, 1, 57, 0
3, 71036, Note_off_c, 1, 61, 0
3, 71040, Note_on_c, 1, 59, 79
3, 71228, Note_off_c, 1, 59, 0
3, 71232, Note_on_c, 1, 57, 79
3, 71420, Note_off_c, 1, 57, 0
3, 71424, Note_on_c, 1, 56, 79
3, 71612, Note_off_c, 1, 56, 0
3, 71616, Note_on_c, 1, 57, 79
3, 71804, Note_off_c, 1, 57, 0
3, 71808, Note_on_c, 1, 59, 79
3, 71996, Note_off_c, 1, 59, 0
3, 72000, Note_on_c, 1, 52, 79
3, 72188, Note_off_c, 1, 52, 0
3, 72192, Note_on_c, 1, 54, 79
3, 72380, Note_off_c, 1, 54, 0
3, 72384, Note_on_c, 1, 56, 79
3, 72572, Note_off_c, 1, 56, 0
3, 72576, Note_on_c, 1, 57, 79
3, 72956, Note_off_c, 1, 57, 0
3, 72960, Note_on_c, 1, 57, 79
3, 72960, Note_on_c, 1, 54, 79
3, 73340, Note_off_c, 1, 57, 0
3, 73340, Note_off_c, 1, 54, 0
3, 73344, Note_on_c, 1, 57, 79
3, 73344, Note_on_c, 1, 54, 79
3, 73344, Note_on_c, 1, 50, 79
3, 73724, Note_off_c, 1, 57, 0
3, 73724, Note_off_c, 1, 54, 0
3, 73724, Note_off_c, 1, 50, 0
3, 73728, Note_on_c, 1, 57, 79
3, 73728, Note_on_c, 1, 52, 79
3, 73728, Note_on_c, 1, 49, 79
3, 74108, Note_off_c, 1, 57, 0
3, 74108, Note_off_c, 1, 52, 0
3, 74108, Note_off_c, 1, 49, 0
3, 74880, Note_on_c, 1, 57, 79
3, 74880, Note_on_c, 1, 50, 79
3, 75260, Note_off_c, 1, 57, 0
3, 75260, Note_off_c, 1, 50, 0
3, 75264, Note_on_c, 1, 61, 79
3, 75264, Note_on_c, 1, 52, 79
3, 75644, Note_off_c, 1, 61, 0
3, 75648, Note_on_c, 1, 62, 79
3, 76028, Note_off_c, 1, 52, 0
3, 76028, Note_off_c, 1, 62, 0
3, 76032, Note_on_c, 1, 61, 79
3, 76032, Note_on_c, 1, 57, 79
3, 76412, Note_off_c, 1, 61, 0
3, 76412, Note_off_c, 1, 57, 0
3, 76416, Note_on_c, 1, 45, 79
3, 76796, Note_off_c, 1, 45, 0
3, 78336, Note_on_c, 1, 54, 59
3, 78524, Note_off_c, 1, 54, 0
3, 78528, Note_on_c, 1, 61, 59
3, 78716, Note_off_c, 1, 61, 0
3, 78720, Note_on_c, 1, 66, 59
3, 78908, Note_off_c, 1, 66, 0
3, 78928, Note_on_c, 1, 64, 59
3, 79104, Note_on_c, 1, 62, 59
3, 79116, Note_off_c, 1, 64, 0
3, 79292, Note_off_c, 1, 62, 0
3, 79296, Note_on_c, 1, 61, 59
3, 79484, Note_off_c, 1, 61, 0
3, 79488, Note_on_c, 1, 54, 61
3, 79676, Note_off_c, 1, 54, 0
3, 79680, Note_on_c, 1, 62, 62
3, 79868, Note_off_c, 1, 62, 0
3, 79872, Note_on_c, 1, 66, 63
3, 80060, Note_off_c, 1, 66, 0
3, 80064, Note_on_c, 1, 62, 65
3, 80252, Note_off_c, 1, 62, 0
3, 80256, Note_on_c, 1, 61, 66
3, 80444, Note_off_c, 1, 61, 0
3, 80448, Note_on_c, 1, 59, 67
3, 80636, Note_off_c, 1, 59, 0
3, 80640, Note_on_c, 1, 54, 70
3, 80828, Note_off_c, 1, 54, 0
3, 80832, Note_on_c, 1, 58, 71
3, 81020, Note_off_c, 1, 58, 0
3, 81024, Note_on_c, 1, 64, 73
3, 81212, Note_off_c, 1, 64, 0
3, 81216, Note_on_c, 1, 61, 74
3, 81404, Note_off_c, 1, 61, 0
3, 81408, Note_on_c, 1, 59, 75
3, 81596, Note_off_c, 1, 59, 0
3, 81600, Note_on_c, 1, 58, 77
3, 81788, Note_off_c, 1, 58, 0
3, 81792, Note_on_c, 1, 59, 79
3, 82172, Note_off_c, 1, 59, 0
3, 82944, Note_on_c, 1, 52, 59
3, 83132, Note_off_c, 1, 52, 0
3, 83136, Note_on_c, 1, 59, 59
3, 83324, Note_off_c, 1, 59, 0
3, 83328, Note_on_c, 1, 64, 59
3, 83516, Note_off_c, 1, 64, 0
3, 83520, Note_on_c, 1, 62, 59
3, 83708, Note_off_c, 1, 62, 0
3, 83712, Note_on_c, 1, 60, 59
3, 83900, Note_off_c, 1, 60, 0
3, 83904, Note_on_c, 1, 59, 59
3, 84092, Note_off_c, 1, 59, 0
3, 84096, Note_on_c, 1, 52, 59
3, 84284, Note_off_c, 1, 52, 0
3, 84288, Note_on_c, 1, 61, 59
3, 84476, Note_off_c, 1, 61, 0
3, 84480, Note_on_c, 1, 64, 59
3, 84668, Note_off_c, 1, 64, 0
3, 84672, Note_on_c, 1, 61, 59
3, 84860, Note_off_c, 1, 61, 0
3, 84864, Note_on_c, 1, 59, 59
3, 85052, Note_off_c, 1, 59, 0
3, 85056, Note_on_c, 1, 57, 59
3, 85244, Note_off_c, 1, 57, 0
3, 85248, Note_on_c, 1, 52, 61
3, 85436, Note_off_c, 1, 52, 0
3, 85440, Note_on_c, 1, 56, 62
3, 85628, Note_off_c, 1, 56, 0
3, 85632, Note_on_c, 1, 62, 63
3, 85820, Note_off_c, 1, 62, 0
3, 85824, Note_on_c, 1, 59, 65
3, 86012, Note_off_c, 1, 59, 0
3, 86016, Note_on_c, 1, 57, 66
3, 86204, Note_off_c, 1, 57, 0
3, 86208, Note_on_c, 1, 56, 67
3, 86396, Note_off_c, 1, 56, 0
3, 86400, Note_on_c, 1, 57, 70
3, 87164, Note_off_c, 1, 57, 0
3, 87168, Note_on_c, 1, 55, 75
3, 87168, Note_on_c, 1, 43, 75
3, 87548, Note_off_c, 1, 55, 0
3, 87548, Note_off_c, 1, 43, 0
3, 87552, Note_on_c, 1, 53, 79
3, 87552, Note_on_c, 1, 41, 79
3, 88316, Note_off_c, 1, 53, 0
3, 88316, Note_off_c, 1, 41, 0
3, 88704, Note_on_c, 1, 53, 79
3, 88704, Note_on_c, 1, 57, 79
3, 88892, Note_off_c, 1, 57, 0
3, 88896, Note_on_c, 1, 56, 59
3, 89084, Note_off_c, 1, 56, 0
3, 89088, Note_on_c, 1, 57, 59
3, 89276, Note_off_c, 1, 57, 0
3, 89280, Note_on_c, 1, 60, 59
3, 89468, Note_off_c, 1, 60, 0
3, 89472, Note_on_c, 1, 59, 59
3, 89660, Note_off_c, 1, 59, 0
3, 89664, Note_on_c, 1, 57, 59
3, 89852, Note_off_c, 1, 53, 0
3, 89852, Note_off_c, 1, 57, 0
3, 89856, Note_on_c, 1, 56, 59
3, 89856, Note_on_c, 1, 52, 59
3, 90236, Note_off_c, 1, 56, 0
3, 90236, Note_off_c, 1, 52, 0
3, 91008, Note_on_c, 1, 57, 79
3, 91008, Note_on_c, 1, 45, 79
3, 91772, Note_off_c, 1, 57, 0
3, 91772, Note_off_c, 1, 45, 0
3, 91776, Note_on_c, 1, 52, 79
3, 91776, Note_on_c, 1, 40, 79
3, 92156, Note_off_c, 1, 52, 0
3, 92156, Note_off_c, 1, 40, 0
3, 92160, Note_on_c, 1, 61, 79
3, 92160, Note_on_c, 1, 49, 79
3, 92540, Note_off_c, 1, 61, 0
3, 92540, Note_off_c, 1, 49, 0
3, 92544, Note_on_c, 1, 57, 79
3, 92544, Note_on_c, 1, 45, 79
3, 92924, Note_off_c, 1, 57, 0
3, 92924, Note_off_c, 1, 45, 0
3, 96768, Note_on_c, 1, 52, 59
3, 96956, Note_off_c, 1, 52, 0
3, 96960, Note_on_c, 1, 62, 59
3, 97148, Note_off_c, 1, 62, 0
3, 97152, Note_on_c, 1, 59, 59
3, 97340, Note_off_c, 1, 59, 0
3, 97344, Note_on_c, 1, 62, 59
3, 97532, Note_off_c, 1, 62, 0
3, 97536, Note_on_c, 1, 59, 59
3, 97724, Note_off_c, 1, 59, 0
3, 97728, Note_on_c, 1, 62, 59
3, 97916, Note_off_c, 1, 62, 0
3, 97920, Note_on_c, 1, 52, 62
3, 98108, Note_off_c, 1, 52, 0
3, 98112, Note_on_c, 1, 61, 65
3, 98300, Note_off_c, 1, 61, 0
3, 98304, Note_on_c, 1, 57, 67
3, 98492, Note_off_c, 1, 57, 0
3, 98496, Note_on_c, 1, 61, 71
3, 98684, Note_off_c, 1, 61, 0
3, 98688, Note_on_c, 1, 57, 74
3, 98876, Note_off_c, 1, 57, 0
3, 98880, Note_on_c, 1, 61, 77
3, 99068, Note_off_c, 1, 61, 0
3, 99072, Note_on_c, 1, 52, 79
3, 99260, Note_off_c, 1, 52, 0
3, 99264, Note_on_c, 1, 61, 79
3, 99452, Note_off_c, 1, 61, 0
3, 99456, Note_on_c, 1, 57, 79
3, 99644, Note_off_c, 1, 57, 0
3, 99648, Note_on_c, 1, 61, 79
3, 99836, Note_off_c, 1, 61, 0
3, 99840, Note_on_c, 1, 57, 79
3, 100028, Note_off_c, 1, 57, 0
3, 100032, Note_on_c, 1, 61, 79
3, 100220, Note_off_c, 1, 61, 0
3, 100224, Note_on_c, 1, 62, 59
3, 100224, Note_on_c, 1, 57, 59
3, 100224, Note_on_c, 1, 50, 59
3, 100604, Note_off_c, 1, 62, 0
3, 100604, Note_off_c, 1, 57, 0
3, 100604, Note_off_c, 1, 50, 0
3, 101376, Note_on_c, 1, 49, 59
3, 101660, Note_off_c, 1, 49, 0
3, 101664, Note_on_c, 1, 50, 59
3, 101756, Note_off_c, 1, 50, 0
3, 101760, Note_on_c, 1, 61, 59
3, 101776, Note_on_c, 1, 52, 59
3, 102140, Note_off_c, 1, 61, 0
3, 102144, Note_on_c, 1, 59, 59
3, 102524, Note_off_c, 1, 59, 0
3, 102528, Note_on_c, 1, 57, 79
3, 102528, Note_on_c, 1, 57, 79
3, 102540, Note_off_c, 1, 52, 0
3, 102716, Note_off_c, 1, 57, 0
3, 102720, Note_on_c, 1, 61, 79
3, 102908, Note_off_c, 1, 61, 0
3, 102912, Note_on_c, 1, 64, 79
3, 103100, Note_off_c, 1, 64, 0
3, 103104, Note_on_c, 1, 61, 79
3, 103292, Note_off_c, 1, 57, 0
3, 103292, Note_off_c, 1, 61, 0
3, 103296, Note_on_c, 1, 59, 79
3, 103484, Note_off_c, 1, 59, 0
3, 103488, Note_on_c, 1, 57, 79
3, 103676, Note_off_c, 1, 57, 0
3, 103680, Note_on_c, 1, 56, 79
3, 103868, Note_off_c, 1, 56, 0
3, 103872, Note_on_c, 1, 57, 79
3, 104060, Note_off_c, 1, 57, 0
3, 104064, Note_on_c, 1, 59, 79
3, 104252, Note_off_c, 1, 59, 0
3, 104256, Note_on_c, 1, 52, 79
3, 104444, Note_off_c, 1, 52, 0
3, 104448, Note_on_c, 1, 54, 79
3, 104636, Note_off_c, 1, 54, 0
3, 104640, Note_on_c, 1, 56, 79
3, 104828, Note_off_c, 1, 56, 0
3, 104832, Note_on_c, 1, 57, 79
3, 104832, Note_on_c, 1, 57, 79
3, 105020, Note_off_c, 1, 57, 0
3, 105024, Note_on_c, 1, 61, 79
3, 105212, Note_off_c, 1, 61, 0
3, 105216, Note_on_c, 1, 64, 79
3, 105404, Note_off_c, 1, 64, 0
3, 105408, Note_on_c, 1, 61, 79
3, 105596, Note_off_c, 1, 57, 0
3, 105596, Note_off_c, 1, 61, 0
3, 105600, Note_on_c, 1, 59, 79
3, 105788, Note_off_c, 1, 59, 0
3, 105792, Note_on_c, 1, 57, 79
3, 105980, Note_off_c, 1, 57, 0
3, 105984, Note_on_c, 1, 56, 79
3, 106172, Note_off_c, 1, 56, 0
3, 106176, Note_on_c, 1, 57, 79
3, 106364, Note_off_c, 1, 57, 0
3, 106368, Note_on_c, 1, 59, 79
3, 106556, Note_off_c, 1, 59, 0
3, 106560, Note_on_c, 1, 52, 79
3, 106748, Note_off_c, 1, 52, 0
3, 106752, Note_on_c, 1, 54, 79
3, 106940, Note_off_c, 1, 54, 0
3, 106944, Note_on_c, 1, 56, 79
3, 107132, Note_off_c, 1, 56, 0
3, 107136, Note_on_c, 1, 57, 79
3, 107516, Note_off_c, 1, 57, 0
3, 107520, Note_on_c, 1, 57, 79
3, 107520, Note_on_c, 1, 54, 79
3, 107900, Note_off_c, 1, 57, 0
3, 107900, Note_off_c, 1, 54, 0
3, 107904, Note_on_c, 1, 57, 79
3, 107904, Note_on_c, 1, 54, 79
3, 107904, Note_on_c, 1, 50, 79
3, 108284, Note_off_c, 1, 57, 0
3, 108284, Note_off_c, 1, 54, 0
3, 108284, Note_off_c, 1, 50, 0
3, 108288, Note_on_c, 1, 57, 79
3, 108288, Note_on_c, 1, 52, 79
3, 108288, Note_on_c, 1, 49, 79
3, 108668, Note_off_c, 1, 57, 0
3, 108668, Note_off_c, 1, 52, 0
3, 108668, Note_off_c, 1, 49, 0
3, 109440, Note_on_c, 1, 57, 79
3, 109440, Note_on_c, 1, 50, 79
3, 109820, Note_off_c, 1, 57, 0
3, 109820, Note_off_c, 1, 50, 0
3, 109824, Note_on_c, 1, 61, 79
3, 109824, Note_on_c, 1, 52, 79
3, 110204, Note_off_c, 1, 61, 0
3, 110208, Note_on_c, 1, 62, 79
3, 110588, Note_off_c, 1, 52, 0
3, 110588, Note_off_c, 1, 62, 0
3, 110592, Note_on_c, 1, 61, 79
3, 110592, Note_on_c, 1, 57, 79
3, 110972, Note_off_c, 1, 61, 0
3, 110972, Note_off_c, 1, 57, 0
3, 110976, Note_on_c, 1, 45, 79
3, 111356, Note_off_c, 1, 45, 0
3, 111744, Key_signature, 2, "major"
3, 111744, Note_on_c, 1, 50, 59
3, 111744, Note_on_c, 1, 38, 59
3, 112892, Note_off_c, 1, 50, 0
3, 112892, Note_off_c, 1, 38, 0
3, 112896, Note_on_c, 1, 50, 59
3, 112896, Note_on_c, 1, 38, 59
3, 113276, Note_off_c, 1, 50, 0
3, 113276, Note_off_c, 1, 38, 0
3, 114816, Note_on_c, 1, 57, 59
3, 114816, Note_on_c, 1, 45, 59
3, 115196, Note_off_c, 1, 57, 0
3, 115196, Note_off_c, 1, 45, 0
3, 115200, Note_on_c, 1, 50, 59
3, 115200, Note_on_c, 1, 38, 59
3, 115580, Note_off_c, 1, 50, 0
3, 115580, Note_off_c, 1, 38, 0
3, 118656, Note_on_c, 1, 52, 67
3, 119036, Note_off_c, 1, 52, 0
3, 119040, Note_on_c, 1, 49, 70
3, 119420, Note_off_c, 1, 49, 0
3, 119424, Note_on_c, 1, 45, 73
3, 119804, Note_off_c, 1, 45, 0
3, 119808, Note_on_c, 1, 52, 75
3, 120188, Note_off_c, 1, 52, 0
3, 122496, Note_on_c, 1, 45, 74
3, 122684, Note_off_c, 1, 45, 0
3, 122688, Note_on_c, 1, 44, 74
3, 122876, Note_off_c, 1, 44, 0
3, 122880, Note_on_c, 1, 45, 74
3, 123068, Note_off_c, 1, 45, 0
3, 123072, Note_on_c, 1, 47, 74
3, 123260, Note_off_c, 1, 47, 0
3, 123264, Note_on_c, 1, 49, 74
3, 123264, Note_on_c, 1, 49, 74
3, 123644, Note_off_c, 1, 49, 0
3, 123648, Note_on_c, 1, 52, 74
3, 124028, Note_off_c, 1, 49, 0
3, 124028, Note_off_c, 1, 52, 0
3, 124032, Note_on_c, 1, 40, 74
3, 124412, Note_off_c, 1, 40, 0
3, 124416, Note_on_c, 1, 45, 74
3, 124796, Note_off_c, 1, 45, 0
3, 127104, Note_on_c, 1, 59, 79
3, 127104, Note_on_c, 1, 50, 79
3, 127104, Note_on_c, 1, 50, 79
3, 127104, Note_on_c, 1, 59, 79
3, 127484, Note_off_c, 1, 59, 0
3, 127484, Note_off_c, 1, 50, 0
3, 127488, Note_on_c, 1, 62, 79
3, 127488, Note_on_c, 1, 52, 79
3, 127868, Note_off_c, 1, 50, 0
3, 127868, Note_off_c, 1, 59, 0
3, 127868, Note_off_c, 1, 62, 0
3, 127868, Note_off_c, 1, 52, 0
3, 127872, Note_on_c, 1, 61, 79
3, 127872, Note_on_c, 1, 57, 79
3, 128252, Note_off_c, 1, 61, 0
3, 128252, Note_off_c, 1, 57, 0
3, 128256, Note_on_c, 1, 59, 79
3, 128256, Note_on_c, 1, 50, 79
3, 128256, Note_on_c, 1, 59, 79
3, 128256, Note_on_c, 1, 50, 79
3, 128636, Note_off_c, 1, 59, 0
3, 128636, Note_off_c, 1, 50, 0
3, 128640, Note_on_c, 1, 62, 79
3, 128640, Note_on_c, 1, 52, 79
3, 129020, Note_off_c, 1, 59, 0
3, 129020, Note_off_c, 1, 50, 0
3, 129020, Note_off_c, 1, 62, 0
3, 129020, Note_off_c, 1, 52, 0
3, 129024, Note_on_c, 1, 61, 79
3, 129024, Note_on_c, 1, 57, 79
3, 129404, Note_off_c, 1, 61, 0
3, 129404, Note_off_c, 1, 57, 0
3, 130176, Note_on_c, 1, 50, 59
3, 130176, Note_on_c, 1, 38, 59
3, 131324, Note_off_c, 1, 50, 0
3, 131324, Note_off_c, 1, 38, 0
3, 131328, Note_on_c, 1, 50, 59
3, 131328, Note_on_c, 1, 38, 59
3, 131708, Note_off_c, 1, 50, 0
3, 131708, Note_off_c, 1, 38, 0
3, 133248, Note_on_c, 1, 57, 59
3, 133248, Note_on_c, 1, 45, 59
3, 133628, Note_off_c, 1, 57, 0
3, 133628, Note_off_c, 1, 45, 0
3, 133632, Note_on_c, 1, 50, 59
3, 133632, Note_on_c, 1, 38, 59
3, 134012, Note_off_c, 1, 50, 0
3, 134012, Note_off_c, 1, 38, 0
3, 137088, Note_on_c, 1, 52, 67
3, 137468, Note_off_c, 1, 52, 0
3, 137472, Note_on_c, 1, 49, 70
3, 137852, Note_off_c, 1, 49, 0
3, 137856, Note_on_c, 1, 45, 73
3, 138236, Note_off_c, 1, 45, 0
3, 138240, Note_on_c, 1, 52, 75
3, 138620, Note_off_c, 1, 52, 0
3, 140928, Note_on_c, 1, 45, 74
3, 141116, Note_off_c, 1, 45, 0
3, 141120, Note_on_c, 1, 44, 74
3, 141308, Note_off_c, 1, 44, 0
3, 141312, Note_on_c, 1, 45, 74
3, 141500, Note_off_c, 1, 45, 0
3, 141504, Note_on_c, 1, 47, 74
3, 141692, Note_off_c, 1, 47, 0
3, 141696, Note_on_c, 1, 49, 74
3, 141696, Note_on_c, 1, 49, 74
3, 142076, Note_off_c, 1, 49, 0
3, 142080, Note_on_c, 1, 52, 74
3, 142460, Note_off_c, 1, 49, 0
3, 142460, Note_off_c, 1, 52, 0
3, 142464, Note_on_c, 1, 40, 74
3, 142844, Note_off_c, 1, 40, 0
3, 142848, Note_on_c, 1, 45, 74
3, 143228, Note_off_c, 1, 45, 0
3, 145536, Note_on_c, 1, 59, 79
3, 145536, Note_on_c, 1, 50, 79
3, 145536, Note_on_c, 1, 50, 79
3, 145536, Note_on_c, 1, 59, 79
3, 145916, Note_off_c, 1, 59, 0
3, 145916, Note_off_c, 1, 50, 0
3, 145920, Note_on_c, 1, 62, 79
3, 145920, Note_on_c, 1, 52, 79
3, 146300, Note_off_c, 1, 50, 0
3, 146300, Note_off_c, 1, 59, 0
3, 146300, Note_off_c, 1, 62, 0
3, 146300, Note_off_c, 1, 52, 0
3, 146304, Note_on_c, 1, 61, 79
3, 146304, Note_on_c, 1, 57, 79
3, 146684, Note_off_c, 1, 61, 0
3, 146684, Note_off_c, 1, 57, 0
3, 146688, Note_on_c, 1, 59, 79
3, 146688, Note_on_c, 1, 50, 79
3, 146688, Note_on_c, 1, 59, 79
3, 146688, Note_on_c, 1, 50, 79
3, 147068, Note_off_c, 1, 59, 0
3, 147068, Note_off_c, 1, 50, 0
3, 147072, Note_on_c, 1, 62, 79
3, 147072, Note_on_c, 1, 52, 79
3, 147452, Note_off_c, 1, 59, 0
3, 147452, Note_off_c, 1, 50, 0
3, 147452, Note_off_c, 1, 62, 0
3, 147452, Note_off_c, 1, 52, 0
3, 147456, Note_on_c, 1, 61, 79
3, 147456, Note_on_c, 1, 57, 79
3, 147836, Note_off_c, 1, 61, 0
3, 147836, Note_off_c, 1, 57, 0
3, 148608, Note_on_c, 1, 47, 59
3, 148608, Note_on_c, 1, 35, 59
3, 149756, Note_off_c, 1, 47, 0
3, 149756, Note_off_c, 1, 35, 0
3, 149760, Note_on_c, 1, 47, 59
3, 149760, Note_on_c, 1, 35, 59
3, 150524, Note_off_c, 1, 47, 0
3, 150524, Note_off_c, 1, 35, 0
3, 152448, Note_on_c, 1, 59, 79
3, 152448, Note_on_c, 1, 47, 79
3, 152636, Note_off_c, 1, 59, 0
3, 152636, Note_off_c, 1, 47, 0
3, 152640, Note_on_c, 1, 45, 79
3, 152640, Note_on_c, 1, 57, 79
3, 152828, Note_off_c, 1, 45, 0
3, 152828, Note_off_c, 1, 57, 0
3, 152832, Note_on_c, 1, 55, 79
3, 152832, Note_on_c, 1, 43, 79
3, 153020, Note_off_c, 1, 55, 0
3, 153020, Note_off_c, 1, 43, 0
3, 153024, Note_on_c, 1, 54, 79
3, 153024, Note_on_c, 1, 42, 79
3, 153212, Note_off_c, 1, 54, 0
3, 153212, Note_off_c, 1, 42, 0
3, 153216, Note_on_c, 1, 52, 79
3, 153216, Note_on_c, 1, 40, 79
3, 153596, Note_off_c, 1, 52, 0
3, 153596, Note_off_c, 1, 40, 0
3, 153600, Note_on_c, 1, 52, 79
3, 153616, Note_on_c, 1, 40, 79
3, 153980, Note_off_c, 1, 52, 0
3, 153984, Note_on_c, 1, 59, 79
3, 153984, Note_on_c, 1, 47, 79
3, 153996, Note_off_c, 1, 40, 0
3, 154364, Note_off_c, 1, 59, 0
3, 154364, Note_off_c, 1, 47, 0
3, 154368, Note_on_c, 1, 52, 79
3, 154368, Note_on_c, 1, 40, 79
3, 154748, Note_off_c, 1, 52, 0
3, 154748, Note_off_c, 1, 40, 0
3, 154752, Note_on_c, 1, 59, 79
3, 154752, Note_on_c, 1, 47, 79
3, 154940, Note_off_c, 1, 59, 0
3, 154940, Note_off_c, 1, 47, 0
3, 154944, Note_on_c, 1, 57, 79
3, 154944, Note_on_c, 1, 45, 79
3, 155120, Note_on_c, 1, 43, 79
3, 155132, Note_off_c, 1, 57, 0
3, 155132, Note_off_c, 1, 45, 0
3, 155136, Note_on_c, 1, 55, 79
3, 155308, Note_off_c, 1, 43, 0
3, 155312, Note_on_c, 1, 42, 79
3, 155324, Note_off_c, 1, 55, 0
3, 155328, Note_on_c, 1, 54, 79
3, 155500, Note_off_c, 1, 42, 0
3, 155516, Note_off_c, 1, 54, 0
3, 155520, Note_on_c, 1, 52, 79
3, 155520, Note_on_c, 1, 40, 79
3, 155900, Note_off_c, 1, 52, 0
3, 155900, Note_off_c, 1, 40, 0
3, 155904, Note_on_c, 1, 52, 79
3, 155904, Note_on_c, 1, 40, 79
3, 156284, Note_off_c, 1, 52, 0
3, 156284, Note_off_c, 1, 40, 0
3, 156288, Note_on_c, 1, 59, 79
3, 156288, Note_on_c, 1, 47, 79
3, 156668, Note_off_c, 1, 59, 0
3, 156668, Note_off_c, 1, 47, 0
3, 156672, Note_on_c, 1, 52, 79
3, 156672, Note_on_c, 1, 40, 79
3, 157052, Note_off_c, 1, 52, 0
3, 157052, Note_off_c, 1, 40, 0
3, 171648, Note_on_c, 1, 50, 59
3, 171648, Note_on_c, 1, 38, 59
3, 172796, Note_off_c, 1, 50, 0
3, 172796, Note_off_c, 1, 38, 0
3, 172800, Note_on_c, 1, 50, 59
3, 172800, Note_on_c, 1, 38, 59
3, 173564, Note_off_c, 1, 50, 0
3, 173564, Note_off_c, 1, 38, 0
3, 173952, Note_on_c, 1, 47, 74
3, 174332, Note_off_c, 1, 47, 0
3, 174336, Note_on_c, 1, 45, 74
3, 174716, Note_off_c, 1, 45, 0
3, 174720, Note_on_c, 1, 43, 74
3, 175100, Note_off_c, 1, 43, 0
3, 175104, Note_on_c, 1, 50, 74
3, 175868, Note_off_c, 1, 50, 0
3, 178560, Note_on_c, 1, 45, 69
3, 178940, Note_off_c, 1, 45, 0
3, 178944, Note_on_c, 1, 42, 71
3, 179324, Note_off_c, 1, 42, 0
3, 179328, Note_on_c, 1, 38, 74
3, 179708, Note_off_c, 1, 38, 0
3, 179712, Note_on_c, 1, 45, 77
3, 180476, Note_off_c, 1, 45, 0
3, 182400, Note_on_c, 1, 59, 79
3, 182588, Note_off_c, 1, 59, 0
3, 182592, Note_on_c, 1, 58, 79
3, 182780, Note_off_c, 1, 58, 0
3, 182784, Note_on_c, 1, 59, 79
3, 182972, Note_off_c, 1, 59, 0
3, 182976, Note_on_c, 1, 55, 79
3, 183164, Note_off_c, 1, 55, 0
3, 183168, Note_on_c, 1, 54, 59
3, 183548, Note_off_c, 1, 54, 0
3, 183552, Note_on_c, 1, 52, 59
3, 183932, Note_off_c, 1, 52, 0
3, 183936, Note_on_c, 1, 45, 79
3, 184316, Note_off_c, 1, 45, 0
3, 184320, Note_on_c, 1, 50, 70
3, 185084, Note_off_c, 1, 50, 0
3, 187008, Note_on_c, 1, 43, 74
3, 187388, Note_off_c, 1, 43, 0
3, 187392, Note_on_c, 1, 55, 74
3, 187392, Note_on_c, 1, 45, 74
3, 187772, Note_off_c, 1, 55, 0
3, 187772, Note_off_c, 1, 45, 0
3, 187776, Note_on_c, 1, 54, 79
3, 187776, Note_on_c, 1, 50, 79
3, 188156, Note_off_c, 1, 54, 0
3, 188156, Note_off_c, 1, 50, 0
3, 188160, Note_on_c, 1, 43, 79
3, 188540, Note_off_c, 1, 43, 0
3, 188544, Note_on_c, 1, 55, 79
3, 188544, Note_on_c, 1, 45, 79
3, 188924, Note_off_c, 1, 55, 0
3, 188924, Note_off_c, 1, 45, 0
3, 188928, Note_on_c, 1, 54, 79
3, 188928, Note_on_c, 1, 50, 79
3, 189308, Note_off_c, 1, 54, 0
3, 189308, Note_off_c, 1, 50, 0
3, 190080, Note_on_c, 1, 47, 59
3, 190080, Note_on_c, 1, 35, 59
3, 191228, Note_off_c, 1, 47, 0
3, 191228, Note_off_c, 1, 35, 0
3, 191232, Note_on_c, 1, 47, 59
3, 191232, Note_on_c, 1, 35, 59
3, 191996, Note_off_c, 1, 47, 0
3, 191996, Note_off_c, 1, 35, 0
3, 193920, Note_on_c, 1, 59, 79
3, 193920, Note_on_c, 1, 47, 79
3, 194108, Note_off_c, 1, 59, 0
3, 194108, Note_off_c, 1, 47, 0
3, 194112, Note_on_c, 1, 57, 79
3, 194112, Note_on_c, 1, 45, 79
3, 194300, Note_off_c, 1, 57, 0
3, 194300, Note_off_c, 1, 45, 0
3, 194304, Note_on_c, 1, 55, 79
3, 194304, Note_on_c, 1, 43, 79
3, 194492, Note_off_c, 1, 55, 0
3, 194492, Note_off_c, 1, 43, 0
3, 194496, Note_on_c, 1, 54, 79
3, 194496, Note_on_c, 1, 42, 79
3, 194684, Note_off_c, 1, 54, 0
3, 194684, Note_off_c, 1, 42, 0
3, 194688, Note_on_c, 1, 52, 79
3, 194688, Note_on_c, 1, 40, 79
3, 195068, Note_off_c, 1, 52, 0
3, 195068, Note_off_c, 1, 40, 0
3, 195072, Note_on_c, 1, 52, 79
3, 195088, Note_on_c, 1, 40, 79
3, 195452, Note_off_c, 1, 52, 0
3, 195456, Note_on_c, 1, 59, 79
3, 195456, Note_on_c, 1, 47, 79
3, 195468, Note_off_c, 1, 40, 0
3, 195836, Note_off_c, 1, 59, 0
3, 195836, Note_off_c, 1, 47, 0
3, 195840, Note_on_c, 1, 52, 79
3, 195840, Note_on_c, 1, 40, 79
3, 196220, Note_off_c, 1, 52, 0
3, 196220, Note_off_c, 1, 40, 0
3, 196224, Note_on_c, 1, 59, 79
3, 196224, Note_on_c, 1, 47, 79
3, 196412, Note_off_c, 1, 59, 0
3, 196412, Note_off_c, 1, 47, 0
3, 196416, Note_on_c, 1, 57, 79
3, 196416, Note_on_c, 1, 45, 79
3, 196592, Note_on_c, 1, 43, 79
3, 196604, Note_off_c, 1, 57, 0
3, 196604, Note_off_c, 1, 45, 0
3, 196608, Note_on_c, 1, 55, 79
3, 196780, Note_off_c, 1, 43, 0
3, 196784, Note_on_c, 1, 42, 79
3, 196796, Note_off_c, 1, 55, 0
3, 196800, Note_on_c, 1, 54, 79
3, 196972, Note_off_c, 1, 42, 0
3, 196988, Note_off_c, 1, 54, 0
3, 196992, Note_on_c, 1, 52, 79
3, 196992, Note_on_c, 1, 40, 79
3, 197372, Note_off_c, 1, 52, 0
3, 197372, Note_off_c, 1, 40, 0
3, 197376, Note_on_c, 1, 52, 79
3, 197376, Note_on_c, 1, 40, 79
3, 197756, Note_off_c, 1, 52, 0
3, 197756, Note_off_c, 1, 40, 0
3, 197760, Note_on_c, 1, 59, 79
3, 197760, Note_on_c, 1, 47, 79
3, 198140, Note_off_c, 1, 59, 0
3, 198140, Note_off_c, 1, 47, 0
3, 198144, Note_on_c, 1, 52, 79
3, 198144, Note_on_c, 1, 40, 79
3, 198524, Note_off_c, 1, 52, 0
3, 198524, Note_off_c, 1, 40, 0
3, 213120, Note_on_c, 1, 50, 59
3, 213120, Note_on_c, 1, 38, 59
3, 214268, Note_off_c, 1, 50, 0
3, 214268, Note_off_c, 1, 38, 0
3, 214272, Note_on_c, 1, 50, 59
3, 214272, Note_on_c, 1, 38, 59
3, 215036, Note_off_c, 1, 50, 0
3, 215036, Note_off_c, 1, 38, 0
3, 215424, Note_on_c, 1, 47, 74
3, 215804, Note_off_c, 1, 47, 0
3, 215808, Note_on_c, 1, 45, 74
3, 216188, Note_off_c, 1, 45, 0
3, 216192, Note_on_c, 1, 43, 74
3, 216572, Note_off_c, 1, 43, 0
3, 216576, Note_on_c, 1, 50, 74
3, 217340, Note_off_c, 1, 50, 0
3, 220032, Note_on_c, 1, 45, 69
3, 220412, Note_off_c, 1, 45, 0
3, 220416, Note_on_c, 1, 42, 71
3, 220796, Note_off_c, 1, 42, 0
3, 220800, Note_on_c, 1, 38, 74
3, 221180, Note_off_c, 1, 38, 0
3, 221184, Note_on_c, 1, 45, 77
3, 221948, Note_off_c, 1, 45, 0
3, 223872, Note_on_c, 1, 59, 79
3, 224060, Note_off_c, 1, 59, 0
3, 224064, Note_on_c, 1, 58, 79
3, 224252, Note_off_c, 1, 58, 0
3, 224256, Note_on_c, 1, 59, 79
3, 224444, Note_off_c, 1, 59, 0
3, 224448, Note_on_c, 1, 55, 79
3, 224636, Note_off_c, 1, 55, 0
3, 224640, Note_on_c, 1, 54, 59
3, 225020, Note_off_c, 1, 54, 0
3, 225024, Note_on_c, 1, 52, 59
3, 225404, Note_off_c, 1, 52, 0
3, 225408, Note_on_c, 1, 45, 79
3, 225788, Note_off_c, 1, 45, 0
3, 225792, Note_on_c, 1, 50, 70
3, 226556, Note_off_c, 1, 50, 0
3, 228480, Note_on_c, 1, 43, 74
3, 228860, Note_off_c, 1, 43, 0
3, 228864, Note_on_c, 1, 55, 74
3, 228864, Note_on_c, 1, 45, 74
3, 229244, Note_off_c, 1, 55, 0
3, 229244, Note_off_c, 1, 45, 0
3, 229248, Note_on_c, 1, 54, 79
3, 229248, Note_on_c, 1, 50, 79
3, 229628, Note_off_c, 1, 54, 0
3, 229628, Note_off_c, 1, 50, 0
3, 229632, Note_on_c, 1, 43, 79
3, 230012, Note_off_c, 1, 43, 0
3, 230016, Note_on_c, 1, 55, 79
3, 230016, Note_on_c, 1, 45, 79
3, 230396, Note_off_c, 1, 55, 0
3, 230396, Note_off_c, 1, 45, 0
3, 230400, Note_on_c, 1, 54, 79
3, 230400, Note_on_c, 1, 50, 79
3, 230780, Note_off_c, 1, 54, 0
3, 230780, Note_off_c, 1, 50, 0
3, 230784, Note_on_c, 1, 38, 79
3, 231164, Note_off_c, 1, 38, 0
3, 231164, End_track
4, 0, Start_track
4, 0, Title_t, "by Bob"
4, 0, Key_signature, 3, "major"
4, 0, End_track
5, 0, Start_track
5, 0, Title_t, "Fisher"
5, 0, Key_signature, 3, "major"
5, 0, End_track
6, 0, Start_track
6, 0, Key_signature, 3, "major"
6, 0, End_track
7, 0, Start_track
7, 0, Key_signature, 3, "major"
7, 0, End_track
8, 0, Start_track
8, 0, Key_signature, 3, "major"
8, 0, End_track
9, 0, Start_track
9, 0, Key_signature, 3, "major"
9, 0, End_track
10, 0, Start_track
10, 0, Key_signature, 3, "major"
10, 0, End_track
11, 0, Start_track
11, 0, Key_signature, 3, "major"
11, 0, End_track
12, 0, Start_track
12, 0, Key_signature, 3, "major"
12, 0, End_track
13, 0, Start_track
13, 0, Key_signature, 3, "major"
13, 0, End_track
14, 0, Start_track
14, 0, Key_signature, 3, "major"
14, 0, End_track
15, 0, Start_track
15, 0, Key_signature, 3, "major"
15, 0, End_track
16, 0, Start_track
16, 0, Key_signature, 3, "major"
16, 0, End_track
17, 0, Start_track
17, 0, Key_signature, 3, "major"
17, 0, End_track
18, 0, Start_track
18, 0, Key_signature, 3, "major"
18, 0, End_track
19, 0, Start_track
19, 0, Key_signature, 3, "major"
19, 0, End_track
20, 0, Start_track
20, 0, Key_signature, 3, "major"
20, 0, End_track
21, 0, Start_track
21, 0, Key_signature, 3, "major"
21, 0, End_track
0, 0, End_of_file
