0, 0, Header, 1, 17, 384
1, 0, Start_track
1, 0, Time_signature, 2, 2, 96, 8
1, 0, Sequencer_specific, 3, 0, 0, 65
1, 0, Tempo, 326086
1, 0, End_track
2, 0, Start_track
2, 0, Control_c, 0, 0, 0
2, 0, Program_c, 0, 0
2, 0, Control_c, 0, 10, 84
2, 0, Control_c, 0, 91, 54
2, 0, Control_c, 0, 93, 56
2, 0, Key_signature, 0, "major"
2, 0, Control_c, 0, 121, 0
2, 96, Control_c, 0, 10, 73
2, 144, Control_c, 0, 91, 63
2, 192, Control_c, 0, 93, 40
2, 288, Program_c, 0, 0
2, 768, Note_on_c, 0, 72, 60
2, 768, Note_on_c, 0, 69, 60
2, 1340, Note_off_c, 0, 72, 0
2, 1340, Note_off_c, 0, 69, 0
2, 1344, Note_on_c, 0, 71, 60
2, 1344, Note_on_c, 0, 68, 60
2, 1532, Note_off_c, 0, 71, 0
2, 1532, Note_off_c, 0, 68, 0
2, 1536, Note_on_c, 0, 69, 75
2, 1536, Note_on_c, 0, 64, 75
2, 2108, Note_off_c, 0, 69, 0
2, 2112, Note_on_c, 0, 68, 75
2, 2300, Note_off_c, 0, 64, 0
2, 2300, Note_off_c, 0, 68, 0
2, 2304, Note_on_c, 0, 69, 75
2, 2304, Note_on_c, 0, 64, 75
2, 2876, Note_off_c, 0, 69, 0
2, 2880, Note_on_c, 0, 71, 75
2, 3068, Note_off_c, 0, 64, 0
2, 3068, Note_off_c, 0, 71, 0
2, 3072, Note_on_c, 0, 69, 75
2, 3072, Note_on_c, 0, 74, 75
2, 3260, Note_off_c, 0, 74, 0
2, 3264, Note_on_c, 0, 72, 75
2, 3452, Note_off_c, 0, 69, 0
2, 3452, Note_off_c, 0, 72, 0
2, 3456, Note_on_c, 0, 71, 75
2, 3456, Note_on_c, 0, 68, 75
2, 3836, Note_off_c, 0, 71, 0
2, 3836, Note_off_c, 0, 68, 0
2, 3840, Note_on_c, 0, 74, 60
2, 3840, Note_on_c, 0, 69, 60
2, 4412, Note_off_c, 0, 74, 0
2, 4416, Note_on_c, 0, 72, 60
2, 4604, Note_off_c, 0, 69, 0
2, 4604, Note_off_c, 0, 72, 0
2, 4608, Note_on_c, 0, 77, 75
2, 4608, Note_on_c, 0, 69, 75
2, 5180, Note_off_c, 0, 77, 0
2, 5184, Note_on_c, 0, 76, 75
2, 5372, Note_off_c, 0, 69, 0
2, 5372, Note_off_c, 0, 76, 0
2, 5376, Note_on_c, 0, 74, 75
2, 5376, Note_on_c, 0, 68, 75
2, 5948, Note_off_c, 0, 74, 0
2, 5948, Note_off_c, 0, 68, 0
2, 5952, Note_on_c, 0, 72, 75
2, 5952, Note_on_c, 0, 69, 75
2, 6140, Note_off_c, 0, 72, 0
2, 6140, Note_off_c, 0, 69, 0
2, 6144, Note_on_c, 0, 72, 75
2, 6144, Note_on_c, 0, 68, 75
2, 6332, Note_off_c, 0, 72, 0
2, 6336, Note_on_c, 0, 71, 75
2, 6524, Note_off_c, 0, 68, 0
2, 6524, Note_off_c, 0, 71, 0
2, 6528, Note_on_c, 0, 68, 75
2, 6716, Note_off_c, 0, 68, 0
2, 6720, Note_on_c, 0, 64, 75
2, 6908, Note_off_c, 0, 64, 0
2, 6912, Note_on_c, 0, 72, 60
2, 6912, Note_on_c, 0, 69, 60
2, 7484, Note_off_c, 0, 72, 0
2, 7484, Note_off_c, 0, 69, 0
2, 7488, Note_on_c, 0, 71, 60
2, 7488, Note_on_c, 0, 68, 60
2, 7676, Note_off_c, 0, 71, 0
2, 7676, Note_off_c, 0, 68, 0
2, 7680, Note_on_c, 0, 69, 75
2, 7680, Note_on_c, 0, 64, 75
2, 8252, Note_off_c, 0, 69, 0
2, 8256, Note_on_c, 0, 68, 75
2, 8444, Note_off_c, 0, 64, 0
2, 8444, Note_off_c, 0, 68, 0
2, 8448, Note_on_c, 0, 69, 75
2, 8448, Note_on_c, 0, 64, 75
2, 9020, Note_off_c, 0, 69, 0
2, 9024, Note_on_c, 0, 71, 75
2, 9212, Note_off_c, 0, 64, 0
2, 9212, Note_off_c, 0, 71, 0
2, 9216, Note_on_c, 0, 74, 75
2, 9216, Note_on_c, 0, 69, 75
2, 9404, Note_off_c, 0, 74, 0
2, 9408, Note_on_c, 0, 72, 75
2, 9596, Note_off_c, 0, 69, 0
2, 9596, Note_off_c, 0, 72, 0
2, 9600, Note_on_c, 0, 71, 75
2, 9600, Note_on_c, 0, 68, 75
2, 9980, Note_off_c, 0, 71, 0
2, 9980, Note_off_c, 0, 68, 0
2, 9984, Note_on_c, 0, 77, 82
2, 9984, Note_on_c, 0, 69, 82
2, 10556, Note_off_c, 0, 77, 0
2, 10560, Note_on_c, 0, 76, 82
2, 10748, Note_off_c, 0, 69, 0
2, 10748, Note_off_c, 0, 76, 0
2, 10752, Note_on_c, 0, 74, 75
2, 10752, Note_on_c, 0, 69, 75
2, 11324, Note_off_c, 0, 74, 0
2, 11328, Note_on_c, 0, 72, 75
2, 11516, Note_off_c, 0, 69, 0
2, 11516, Note_off_c, 0, 72, 0
2, 11520, Note_on_c, 0, 72, 75
2, 11708, Note_off_c, 0, 72, 0
2, 11712, Note_on_c, 0, 71, 75
2, 11900, Note_off_c, 0, 71, 0
2, 11904, Note_on_c, 0, 69, 75
2, 12092, Note_off_c, 0, 69, 0
2, 12096, Note_on_c, 0, 68, 75
2, 12284, Note_off_c, 0, 68, 0
2, 12288, Note_on_c, 0, 69, 75
2, 12476, Note_off_c, 0, 69, 0
2, 12480, Note_on_c, 0, 73, 75
2, 12668, Note_off_c, 0, 73, 0
2, 12672, Note_on_c, 0, 74, 75
2, 12860, Note_off_c, 0, 74, 0
2, 12864, Note_on_c, 0, 76, 75
2, 13052, Note_off_c, 0, 76, 0
2, 13056, Note_on_c, 0, 79, 90
2, 13056, Note_on_c, 0, 69, 90
2, 13628, Note_off_c, 0, 79, 0
2, 13632, Note_on_c, 0, 76, 60
2, 13820, Note_off_c, 0, 69, 0
2, 13820, Note_off_c, 0, 76, 0
2, 13824, Note_on_c, 0, 80, 90
2, 13824, Note_on_c, 0, 74, 90
2, 14396, Note_off_c, 0, 80, 0
2, 14396, Note_off_c, 0, 74, 0
2, 14400, Note_on_c, 0, 81, 60
2, 14400, Note_on_c, 0, 72, 60
2, 14588, Note_off_c, 0, 81, 0
2, 14588, Note_off_c, 0, 72, 0
2, 14592, Note_on_c, 0, 76, 75
2, 14592, Note_on_c, 0, 72, 75
2, 14780, Note_off_c, 0, 76, 0
2, 14780, Note_off_c, 0, 72, 0
2, 14784, Note_on_c, 0, 74, 75
2, 14784, Note_on_c, 0, 71, 75
2, 14972, Note_off_c, 0, 74, 0
2, 14972, Note_off_c, 0, 71, 0
2, 14976, Note_on_c, 0, 72, 75
2, 14976, Note_on_c, 0, 69, 75
2, 15164, Note_off_c, 0, 72, 0
2, 15164, Note_off_c, 0, 69, 0
2, 15168, Note_on_c, 0, 71, 75
2, 15168, Note_on_c, 0, 68, 75
2, 15356, Note_off_c, 0, 71, 0
2, 15356, Note_off_c, 0, 68, 0
2, 15360, Note_on_c, 0, 69, 75
2, 15548, Note_off_c, 0, 69, 0
2, 15552, Note_on_c, 0, 72, 75
2, 15740, Note_off_c, 0, 72, 0
2, 15744, Note_on_c, 0, 74, 75
2, 15932, Note_off_c, 0, 74, 0
2, 15936, Note_on_c, 0, 76, 75
2, 16124, Note_off_c, 0, 76, 0
2, 16128, Note_on_c, 0, 77, 60
2, 16700, Note_off_c, 0, 77, 0
2, 16704, Note_on_c, 0, 81, 60
2, 16892, Note_off_c, 0, 81, 0
2, 16896, Note_on_c, 0, 77, 75
2, 17084, Note_off_c, 0, 77, 0
2, 17088, Note_on_c, 0, 76, 75
2, 17276, Note_off_c, 0, 76, 0
2, 17280, Note_on_c, 0, 75, 75
2, 17468, Note_off_c, 0, 75, 0
2, 17472, Note_on_c, 0, 76, 75
2, 17660, Note_off_c, 0, 76, 0
2, 17664, Note_on_c, 0, 81, 75
2, 18236, Note_off_c, 0, 81, 0
2, 18240, Note_on_c, 0, 84, 75
2, 18428, Note_off_c, 0, 84, 0
2, 18432, Note_on_c, 0, 81, 75
2, 18620, Note_off_c, 0, 81, 0
2, 18624, Note_on_c, 0, 79, 75
2, 18812, Note_off_c, 0, 79, 0
2, 18816, Note_on_c, 0, 78, 75
2, 19004, Note_off_c, 0, 78, 0
2, 19008, Note_on_c, 0, 79, 75
2, 19196, Note_off_c, 0, 79, 0
2, 19200, Note_on_c, 0, 72, 75
2, 19200, Note_on_c, 0, 84, 75
2, 19244, Note_off_c, 0, 72, 0
2, 19392, Note_on_c, 0, 64, 75
2, 19584, Note_on_c, 0, 67, 75
2, 19772, Note_off_c, 0, 84, 0
2, 19772, Note_off_c, 0, 67, 0
2, 19776, Note_on_c, 0, 83, 75
2, 19776, Note_on_c, 0, 72, 75
2, 19964, Note_off_c, 0, 64, 0
2, 19964, Note_off_c, 0, 83, 0
2, 19964, Note_off_c, 0, 72, 0
2, 19968, Note_on_c, 0, 83, 78
2, 19968, Note_on_c, 0, 65, 78
2, 20156, Note_off_c, 0, 83, 0
2, 20156, Note_off_c, 0, 65, 0
2, 20160, Note_on_c, 0, 81, 81
2, 20160, Note_on_c, 0, 72, 81
2, 20348, Note_off_c, 0, 81, 0
2, 20348, Note_off_c, 0, 72, 0
2, 20352, Note_on_c, 0, 81, 84
2, 20352, Note_on_c, 0, 64, 84
2, 20540, Note_off_c, 0, 81, 0
2, 20540, Note_off_c, 0, 64, 0
2, 20544, Note_on_c, 0, 79, 87
2, 20544, Note_on_c, 0, 72, 87
2, 20732, Note_off_c, 0, 79, 0
2, 20732, Note_off_c, 0, 72, 0
2, 20736, Note_on_c, 0, 79, 75
2, 20736, Note_on_c, 0, 62, 75
2, 20796, Note_off_c, 0, 79, 0
2, 20800, Note_on_c, 0, 83, 75
2, 20860, Note_off_c, 0, 83, 0
2, 20864, Note_on_c, 0, 79, 75
2, 20924, Note_off_c, 0, 62, 0
2, 20924, Note_off_c, 0, 79, 0
2, 20928, Note_on_c, 0, 77, 75
2, 20928, Note_on_c, 0, 71, 75
2, 21116, Note_off_c, 0, 77, 0
2, 21116, Note_off_c, 0, 71, 0
2, 21120, Note_on_c, 0, 77, 75
2, 21120, Note_on_c, 0, 60, 75
2, 21180, Note_off_c, 0, 77, 0
2, 21184, Note_on_c, 0, 81, 75
2, 21244, Note_off_c, 0, 81, 0
2, 21248, Note_on_c, 0, 77, 75
2, 21308, Note_off_c, 0, 60, 0
2, 21308, Note_off_c, 0, 77, 0
2, 21312, Note_on_c, 0, 76, 75
2, 21312, Note_on_c, 0, 72, 75
2, 21500, Note_off_c, 0, 76, 0
2, 21500, Note_off_c, 0, 72, 0
2, 21504, Note_on_c, 0, 76, 75
2, 21504, Note_on_c, 0, 72, 75
2, 21504, Note_on_c, 0, 67, 75
2, 21884, Note_off_c, 0, 76, 0
2, 21884, Note_off_c, 0, 72, 0
2, 21884, Note_off_c, 0, 67, 0
2, 21888, Note_on_c, 0, 74, 75
2, 21888, Note_on_c, 0, 71, 75
2, 21888, Note_on_c, 0, 55, 75
2, 22268, Note_off_c, 0, 74, 0
2, 22268, Note_off_c, 0, 71, 0
2, 22268, Note_off_c, 0, 55, 0
2, 22272, Note_on_c, 0, 75, 60
2, 22272, Note_on_c, 0, 72, 60
2, 22464, Note_on_c, 0, 60, 60
2, 22652, Note_off_c, 0, 60, 0
2, 22656, Note_on_c, 0, 67, 60
2, 22844, Note_off_c, 0, 75, 0
2, 22844, Note_off_c, 0, 72, 0
2, 22844, Note_off_c, 0, 67, 0
2, 22848, Note_on_c, 0, 74, 60
2, 22848, Note_on_c, 0, 71, 60
2, 22848, Note_on_c, 0, 65, 60
2, 23036, Note_off_c, 0, 74, 0
2, 23036, Note_off_c, 0, 71, 0
2, 23036, Note_off_c, 0, 65, 0
2, 23040, Note_on_c, 0, 72, 75
2, 23232, Note_on_c, 0, 60, 75
2, 23424, Note_on_c, 0, 63, 75
2, 23612, Note_off_c, 0, 72, 0
2, 23612, Note_off_c, 0, 63, 0
2, 23616, Note_on_c, 0, 74, 75
2, 23616, Note_on_c, 0, 71, 75
2, 23616, Note_on_c, 0, 62, 75
2, 23804, Note_off_c, 0, 60, 0
2, 23804, Note_off_c, 0, 74, 0
2, 23804, Note_off_c, 0, 71, 0
2, 23804, Note_off_c, 0, 62, 0
2, 23808, Note_on_c, 0, 75, 75
2, 23808, Note_on_c, 0, 72, 75
2, 24380, Note_off_c, 0, 75, 0
2, 24384, Note_on_c, 0, 77, 75
2, 24572, Note_off_c, 0, 72, 0
2, 24572, Note_off_c, 0, 77, 0
2, 24576, Note_on_c, 0, 75, 75
2, 24576, Note_on_c, 0, 72, 75
2, 24956, Note_off_c, 0, 75, 0
2, 24956, Note_off_c, 0, 72, 0
2, 24960, Note_on_c, 0, 74, 75
2, 24960, Note_on_c, 0, 71, 75
2, 25340, Note_off_c, 0, 74, 0
2, 25340, Note_off_c, 0, 71, 0
2, 25344, Note_on_c, 0, 77, 60
2, 25344, Note_on_c, 0, 74, 60
2, 25916, Note_off_c, 0, 77, 0
2, 25916, Note_off_c, 0, 74, 0
2, 25920, Note_on_c, 0, 76, 60
2, 25920, Note_on_c, 0, 72, 60
2, 26108, Note_off_c, 0, 76, 0
2, 26108, Note_off_c, 0, 72, 0
2, 26112, Note_on_c, 0, 74, 75
2, 26112, Note_on_c, 0, 71, 75
2, 26684, Note_off_c, 0, 74, 0
2, 26684, Note_off_c, 0, 71, 0
2, 26688, Note_on_c, 0, 76, 75
2, 26688, Note_on_c, 0, 72, 75
2, 26876, Note_off_c, 0, 76, 0
2, 26876, Note_off_c, 0, 72, 0
2, 26880, Note_on_c, 0, 77, 75
2, 26880, Note_on_c, 0, 74, 75
2, 27452, Note_off_c, 0, 77, 0
2, 27452, Note_off_c, 0, 74, 0
2, 27456, Note_on_c, 0, 79, 75
2, 27456, Note_on_c, 0, 76, 75
2, 27644, Note_off_c, 0, 79, 0
2, 27644, Note_off_c, 0, 76, 0
2, 27648, Note_on_c, 0, 77, 75
2, 27648, Note_on_c, 0, 74, 75
2, 28028, Note_off_c, 0, 77, 0
2, 28028, Note_off_c, 0, 74, 0
2, 28032, Note_on_c, 0, 76, 75
2, 28032, Note_on_c, 0, 72, 75
2, 28412, Note_off_c, 0, 76, 0
2, 28412, Note_off_c, 0, 72, 0
2, 28416, Note_on_c, 0, 84, 90
2, 28416, Note_on_c, 0, 79, 90
2, 28988, Note_off_c, 0, 84, 0
2, 28988, Note_off_c, 0, 79, 0
2, 28992, Note_on_c, 0, 83, 90
2, 28992, Note_on_c, 0, 77, 90
2, 29180, Note_off_c, 0, 83, 0
2, 29180, Note_off_c, 0, 77, 0
2, 29184, Note_on_c, 0, 81, 75
2, 29184, Note_on_c, 0, 76, 75
2, 29756, Note_off_c, 0, 81, 0
2, 29756, Note_off_c, 0, 76, 0
2, 29760, Note_on_c, 0, 79, 75
2, 29760, Note_on_c, 0, 74, 75
2, 29948, Note_off_c, 0, 79, 0
2, 29948, Note_off_c, 0, 74, 0
2, 29952, Note_on_c, 0, 77, 75
2, 29952, Note_on_c, 0, 72, 75
2, 30524, Note_off_c, 0, 77, 0
2, 30524, Note_off_c, 0, 72, 0
2, 30528, Note_on_c, 0, 76, 75
2, 30528, Note_on_c, 0, 71, 75
2, 30716, Note_off_c, 0, 76, 0
2, 30716, Note_off_c, 0, 71, 0
2, 30720, Note_on_c, 0, 74, 75
2, 30720, Note_on_c, 0, 69, 75
2, 31292, Note_off_c, 0, 74, 0
2, 31292, Note_off_c, 0, 69, 0
2, 31296, Note_on_c, 0, 73, 75
2, 31296, Note_on_c, 0, 67, 75
2, 31484, Note_off_c, 0, 73, 0
2, 31484, Note_off_c, 0, 67, 0
2, 31488, Note_on_c, 0, 74, 75
2, 31676, Note_off_c, 0, 74, 0
2, 31680, Note_on_c, 0, 69, 75
2, 31868, Note_off_c, 0, 69, 0
2, 31872, Note_on_c, 0, 76, 75
2, 32060, Note_off_c, 0, 76, 0
2, 32064, Note_on_c, 0, 69, 75
2, 32252, Note_off_c, 0, 69, 0
2, 32256, Note_on_c, 0, 77, 75
2, 32444, Note_off_c, 0, 77, 0
2, 32448, Note_on_c, 0, 81, 75
2, 32636, Note_off_c, 0, 81, 0
2, 32640, Note_on_c, 0, 77, 75
2, 32828, Note_off_c, 0, 77, 0
2, 32832, Note_on_c, 0, 74, 75
2, 33020, Note_off_c, 0, 74, 0
2, 33024, Note_on_c, 0, 72, 60
2, 33024, Note_on_c, 0, 67, 60
2, 33024, Note_on_c, 0, 64, 60
2, 33404, Note_off_c, 0, 72, 0
2, 33404, Note_off_c, 0, 67, 0
2, 33404, Note_off_c, 0, 64, 0
2, 33408, Note_on_c, 0, 74, 60
2, 33408, Note_on_c, 0, 71, 67
2, 33408, Note_on_c, 0, 67, 67
2, 33788, Note_off_c, 0, 74, 0
2, 33792, Note_on_c, 0, 74, 67
2, 33980, Note_off_c, 0, 74, 0
2, 33984, Note_on_c, 0, 75, 75
2, 34172, Note_off_c, 0, 67, 0
2, 34172, Note_off_c, 0, 71, 0
2, 34172, Note_off_c, 0, 75, 0
2, 34176, Note_on_c, 0, 76, 82
2, 34176, Note_on_c, 0, 72, 82
2, 34176, Note_on_c, 0, 67, 82
2, 34364, Note_off_c, 0, 76, 0
2, 34364, Note_off_c, 0, 72, 0
2, 34364, Note_off_c, 0, 67, 0
2, 34368, Note_on_c, 0, 79, 90
2, 34556, Note_off_c, 0, 79, 0
2, 34560, Note_on_c, 0, 84, 75
2, 34560, Note_on_c, 0, 79, 75
2, 35132, Note_off_c, 0, 84, 0
2, 35132, Note_off_c, 0, 79, 0
2, 35136, Note_on_c, 0, 83, 75
2, 35136, Note_on_c, 0, 77, 75
2, 35324, Note_off_c, 0, 83, 0
2, 35324, Note_off_c, 0, 77, 0
2, 35328, Note_on_c, 0, 81, 75
2, 35328, Note_on_c, 0, 76, 75
2, 35900, Note_off_c, 0, 81, 0
2, 35900, Note_off_c, 0, 76, 0
2, 35904, Note_on_c, 0, 79, 75
2, 35904, Note_on_c, 0, 74, 75
2, 36092, Note_off_c, 0, 79, 0
2, 36092, Note_off_c, 0, 74, 0
2, 36096, Note_on_c, 0, 77, 75
2, 36096, Note_on_c, 0, 72, 75
2, 36668, Note_off_c, 0, 77, 0
2, 36668, Note_off_c, 0, 72, 0
2, 36672, Note_on_c, 0, 76, 75
2, 36672, Note_on_c, 0, 71, 75
2, 36860, Note_off_c, 0, 76, 0
2, 36860, Note_off_c, 0, 71, 0
2, 36864, Note_on_c, 0, 74, 75
2, 36864, Note_on_c, 0, 69, 75
2, 37436, Note_off_c, 0, 74, 0
2, 37436, Note_off_c, 0, 69, 0
2, 37440, Note_on_c, 0, 73, 75
2, 37440, Note_on_c, 0, 67, 75
2, 37628, Note_off_c, 0, 73, 0
2, 37628, Note_off_c, 0, 67, 0
2, 37632, Note_on_c, 0, 74, 75
2, 37820, Note_off_c, 0, 74, 0
2, 37824, Note_on_c, 0, 69, 75
2, 38012, Note_off_c, 0, 69, 0
2, 38016, Note_on_c, 0, 76, 75
2, 38204, Note_off_c, 0, 76, 0
2, 38208, Note_on_c, 0, 69, 75
2, 38396, Note_off_c, 0, 69, 0
2, 38400, Note_on_c, 0, 77, 75
2, 38588, Note_off_c, 0, 77, 0
2, 38592, Note_on_c, 0, 79, 75
2, 38780, Note_off_c, 0, 79, 0
2, 38784, Note_on_c, 0, 81, 75
2, 38972, Note_off_c, 0, 81, 0
2, 38976, Note_on_c, 0, 77, 75
2, 39164, Note_off_c, 0, 77, 0
2, 39168, Note_on_c, 0, 76, 75
2, 39168, Note_on_c, 0, 72, 75
2, 39168, Note_on_c, 0, 67, 75
2, 39548, Note_off_c, 0, 76, 0
2, 39548, Note_off_c, 0, 72, 0
2, 39548, Note_off_c, 0, 67, 0
2, 39552, Note_on_c, 0, 74, 75
2, 39552, Note_on_c, 0, 67, 75
2, 39552, Note_on_c, 0, 71, 75
2, 39932, Note_off_c, 0, 74, 0
2, 39932, Note_off_c, 0, 67, 0
2, 39936, Note_on_c, 0, 73, 75
2, 39940, Note_off_c, 0, 71, 0
2, 40128, Note_on_c, 0, 67, 75
2, 40316, Note_off_c, 0, 67, 0
2, 40320, Note_on_c, 0, 69, 75
2, 40508, Note_off_c, 0, 69, 0
2, 40512, Note_on_c, 0, 70, 75
2, 40700, Note_off_c, 0, 73, 0
2, 40700, Note_off_c, 0, 70, 0
2, 40704, Note_on_c, 0, 74, 90
2, 40892, Note_off_c, 0, 74, 0
2, 40896, Note_on_c, 0, 69, 90
2, 41084, Note_off_c, 0, 69, 0
2, 41088, Note_on_c, 0, 76, 90
2, 41276, Note_off_c, 0, 76, 0
2, 41280, Note_on_c, 0, 69, 90
2, 41468, Note_off_c, 0, 69, 0
2, 41472, Note_on_c, 0, 77, 75
2, 41660, Note_off_c, 0, 77, 0
2, 41664, Note_on_c, 0, 79, 75
2, 41852, Note_off_c, 0, 79, 0
2, 41856, Note_on_c, 0, 81, 75
2, 42044, Note_off_c, 0, 81, 0
2, 42048, Note_on_c, 0, 77, 75
2, 42236, Note_off_c, 0, 77, 0
2, 42240, Note_on_c, 0, 76, 75
2, 42240, Note_on_c, 0, 72, 75
2, 42240, Note_on_c, 0, 67, 75
2, 42620, Note_off_c, 0, 76, 0
2, 42620, Note_off_c, 0, 72, 0
2, 42620, Note_off_c, 0, 67, 0
2, 42624, Note_on_c, 0, 74, 75
2, 42624, Note_on_c, 0, 71, 75
2, 42624, Note_on_c, 0, 67, 75
2, 43004, Note_off_c, 0, 74, 0
2, 43004, Note_off_c, 0, 71, 0
2, 43004, Note_off_c, 0, 67, 0
2, 43008, Note_on_c, 0, 73, 90
2, 43200, Note_on_c, 0, 67, 60
2, 43388, Note_off_c, 0, 67, 0
2, 43392, Note_on_c, 0, 69, 60
2, 43580, Note_off_c, 0, 69, 0
2, 43584, Note_on_c, 0, 70, 60
2, 43772, Note_off_c, 0, 73, 0
2, 43772, Note_off_c, 0, 70, 0
2, 43776, Note_on_c, 0, 69, 75
2, 43776, Note_on_c, 0, 74, 75
2, 43964, Note_off_c, 0, 74, 0
2, 43968, Note_on_c, 0, 76, 75
2, 44156, Note_off_c, 0, 76, 0
2, 44160, Note_on_c, 0, 77, 75
2, 44348, Note_off_c, 0, 77, 0
2, 44352, Note_on_c, 0, 74, 75
2, 44540, Note_off_c, 0, 69, 0
2, 44540, Note_off_c, 0, 74, 0
2, 44544, Note_on_c, 0, 75, 90
2, 44736, Note_on_c, 0, 69, 60
2, 44924, Note_off_c, 0, 69, 0
2, 44928, Note_on_c, 0, 71, 60
2, 45116, Note_off_c, 0, 71, 0
2, 45120, Note_on_c, 0, 72, 60
2, 45308, Note_off_c, 0, 75, 0
2, 45308, Note_off_c, 0, 72, 0
2, 45312, Note_on_c, 0, 76, 75
2, 45312, Note_on_c, 0, 71, 75
2, 45500, Note_off_c, 0, 76, 0
2, 45504, Note_on_c, 0, 78, 75
2, 45692, Note_off_c, 0, 78, 0
2, 45696, Note_on_c, 0, 79, 75
2, 45884, Note_off_c, 0, 79, 0
2, 45888, Note_on_c, 0, 76, 75
2, 46076, Note_off_c, 0, 71, 0
2, 46076, Note_off_c, 0, 76, 0
2, 46080, Note_on_c, 0, 84, 90
2, 46080, Note_on_c, 0, 76, 90
2, 46652, Note_off_c, 0, 84, 0
2, 46656, Note_on_c, 0, 83, 90
2, 46844, Note_off_c, 0, 76, 0
2, 46844, Note_off_c, 0, 83, 0
2, 46848, Note_on_c, 0, 81, 85
2, 46848, Note_on_c, 0, 76, 82
2, 47420, Note_off_c, 0, 81, 0
2, 47424, Note_on_c, 0, 79, 79
2, 47612, Note_off_c, 0, 76, 0
2, 47612, Note_off_c, 0, 79, 0
2, 47616, Note_on_c, 0, 78, 75
2, 47616, Note_on_c, 0, 72, 75
2, 48188, Note_off_c, 0, 78, 0
2, 48188, Note_off_c, 0, 72, 0
2, 48192, Note_on_c, 0, 76, 75
2, 48192, Note_on_c, 0, 73, 75
2, 48380, Note_off_c, 0, 76, 0
2, 48380, Note_off_c, 0, 73, 0
2, 48384, Note_on_c, 0, 76, 75
2, 48384, Note_on_c, 0, 71, 75
2, 48572, Note_off_c, 0, 76, 0
2, 48576, Note_on_c, 0, 75, 75
2, 48764, Note_off_c, 0, 71, 0
2, 48764, Note_off_c, 0, 75, 0
2, 48768, Note_on_c, 0, 73, 75
2, 48956, Note_off_c, 0, 73, 0
2, 48960, Note_on_c, 0, 71, 75
2, 49148, Note_off_c, 0, 71, 0
2, 49344, Note_on_c, 0, 71, 90
2, 49536, Note_on_c, 0, 76, 90
2, 49724, Note_off_c, 0, 76, 0
2, 49728, Note_on_c, 0, 75, 90
2, 49916, Note_off_c, 0, 71, 0
2, 49916, Note_off_c, 0, 75, 0
2, 50112, Note_on_c, 0, 71, 75
2, 50304, Note_on_c, 0, 79, 75
2, 50492, Note_off_c, 0, 79, 0
2, 50496, Note_on_c, 0, 78, 75
2, 50684, Note_off_c, 0, 71, 0
2, 50684, Note_off_c, 0, 78, 0
2, 50880, Note_on_c, 0, 71, 75
2, 51072, Note_on_c, 0, 79, 75
2, 51260, Note_off_c, 0, 79, 0
2, 51264, Note_on_c, 0, 81, 75
2, 51452, Note_off_c, 0, 71, 0
2, 51452, Note_off_c, 0, 81, 0
2, 51648, Note_on_c, 0, 71, 75
2, 51840, Note_on_c, 0, 79, 75
2, 52028, Note_off_c, 0, 79, 0
2, 52032, Note_on_c, 0, 78, 75
2, 52220, Note_off_c, 0, 71, 0
2, 52220, Note_off_c, 0, 78, 0
2, 52416, Note_on_c, 0, 71, 75
2, 52608, Note_on_c, 0, 81, 75
2, 52796, Note_off_c, 0, 81, 0
2, 52800, Note_on_c, 0, 79, 75
2, 52988, Note_off_c, 0, 71, 0
2, 52988, Note_off_c, 0, 79, 0
2, 53184, Note_on_c, 0, 71, 75
2, 53376, Note_on_c, 0, 78, 75
2, 53564, Note_off_c, 0, 78, 0
2, 53568, Note_on_c, 0, 79, 75
2, 53756, Note_off_c, 0, 71, 0
2, 53756, Note_off_c, 0, 79, 0
2, 53952, Note_on_c, 0, 71, 75
2, 54144, Note_on_c, 0, 81, 75
2, 54332, Note_off_c, 0, 81, 0
2, 54336, Note_on_c, 0, 83, 75
2, 54524, Note_off_c, 0, 71, 0
2, 54524, Note_off_c, 0, 83, 0
2, 54720, Note_on_c, 0, 71, 75
2, 54912, Note_on_c, 0, 81, 75
2, 55100, Note_off_c, 0, 81, 0
2, 55104, Note_on_c, 0, 79, 75
2, 55292, Note_off_c, 0, 71, 0
2, 55292, Note_off_c, 0, 79, 0
2, 55296, Note_on_c, 0, 71, 75
2, 55484, Note_off_c, 0, 71, 0
2, 55488, Note_on_c, 0, 83, 75
2, 55676, Note_off_c, 0, 83, 0
2, 55680, Note_on_c, 0, 88, 75
2, 55868, Note_off_c, 0, 88, 0
2, 55872, Note_on_c, 0, 86, 75
2, 56060, Note_off_c, 0, 86, 0
2, 56064, Note_on_c, 0, 67, 75
2, 56252, Note_off_c, 0, 67, 0
2, 56256, Note_on_c, 0, 79, 75
2, 56444, Note_off_c, 0, 79, 0
2, 56448, Note_on_c, 0, 84, 75
2, 56636, Note_off_c, 0, 84, 0
2, 56640, Note_on_c, 0, 83, 75
2, 56828, Note_off_c, 0, 83, 0
2, 56832, Note_on_c, 0, 64, 75
2, 57020, Note_off_c, 0, 64, 0
2, 57024, Note_on_c, 0, 76, 75
2, 57212, Note_off_c, 0, 76, 0
2, 57216, Note_on_c, 0, 81, 75
2, 57404, Note_off_c, 0, 81, 0
2, 57408, Note_on_c, 0, 79, 75
2, 57596, Note_off_c, 0, 79, 0
2, 57600, Note_on_c, 0, 60, 75
2, 57788, Note_off_c, 0, 60, 0
2, 57792, Note_on_c, 0, 72, 75
2, 57980, Note_off_c, 0, 72, 0
2, 57984, Note_on_c, 0, 77, 75
2, 58172, Note_off_c, 0, 77, 0
2, 58176, Note_on_c, 0, 76, 75
2, 58364, Note_off_c, 0, 76, 0
2, 58368, Note_on_c, 0, 75, 75
2, 58556, Note_off_c, 0, 75, 0
2, 58560, Note_on_c, 0, 78, 75
2, 58748, Note_off_c, 0, 78, 0
2, 58752, Note_on_c, 0, 71, 75
2, 58940, Note_off_c, 0, 71, 0
2, 58944, Note_on_c, 0, 81, 75
2, 59132, Note_off_c, 0, 81, 0
2, 59136, Note_on_c, 0, 79, 75
2, 59324, Note_off_c, 0, 79, 0
2, 59328, Note_on_c, 0, 76, 75
2, 59516, Note_off_c, 0, 76, 0
2, 59520, Note_on_c, 0, 84, 75
2, 59708, Note_off_c, 0, 84, 0
2, 59712, Note_on_c, 0, 81, 75
2, 59900, Note_off_c, 0, 81, 0
2, 59904, Note_on_c, 0, 79, 75
2, 60092, Note_off_c, 0, 79, 0
2, 60096, Note_on_c, 0, 83, 75
2, 60284, Note_off_c, 0, 83, 0
2, 60288, Note_on_c, 0, 75, 75
2, 60476, Note_off_c, 0, 75, 0
2, 60480, Note_on_c, 0, 78, 75
2, 60668, Note_off_c, 0, 78, 0
2, 60672, Note_on_c, 0, 76, 75
2, 60860, Note_off_c, 0, 76, 0
2, 60864, Note_on_c, 0, 71, 75
2, 61052, Note_off_c, 0, 71, 0
2, 61056, Note_on_c, 0, 67, 75
2, 61244, Note_off_c, 0, 67, 0
2, 61248, Note_on_c, 0, 64, 75
2, 61436, Note_off_c, 0, 64, 0
2, 61440, Note_on_c, 0, 71, 75
2, 61628, Note_off_c, 0, 71, 0
2, 61632, Note_on_c, 0, 83, 75
2, 61820, Note_off_c, 0, 83, 0
2, 61824, Note_on_c, 0, 88, 75
2, 62012, Note_off_c, 0, 88, 0
2, 62016, Note_on_c, 0, 86, 75
2, 62204, Note_off_c, 0, 86, 0
2, 62208, Note_on_c, 0, 67, 75
2, 62396, Note_off_c, 0, 67, 0
2, 62400, Note_on_c, 0, 79, 75
2, 62588, Note_off_c, 0, 79, 0
2, 62592, Note_on_c, 0, 84, 75
2, 62780, Note_off_c, 0, 84, 0
2, 62784, Note_on_c, 0, 83, 75
2, 62972, Note_off_c, 0, 83, 0
2, 62976, Note_on_c, 0, 64, 75
2, 63164, Note_off_c, 0, 64, 0
2, 63168, Note_on_c, 0, 76, 75
2, 63356, Note_off_c, 0, 76, 0
2, 63360, Note_on_c, 0, 81, 75
2, 63548, Note_off_c, 0, 81, 0
2, 63552, Note_on_c, 0, 79, 75
2, 63740, Note_off_c, 0, 79, 0
2, 63744, Note_on_c, 0, 60, 75
2, 63932, Note_off_c, 0, 60, 0
2, 63936, Note_on_c, 0, 72, 75
2, 64124, Note_off_c, 0, 72, 0
2, 64128, Note_on_c, 0, 77, 75
2, 64316, Note_off_c, 0, 77, 0
2, 64320, Note_on_c, 0, 76, 75
2, 64508, Note_off_c, 0, 76, 0
2, 64512, Note_on_c, 0, 75, 75
2, 64700, Note_off_c, 0, 75, 0
2, 64704, Note_on_c, 0, 78, 75
2, 64892, Note_off_c, 0, 78, 0
2, 64896, Note_on_c, 0, 71, 75
2, 65084, Note_off_c, 0, 71, 0
2, 65088, Note_on_c, 0, 81, 75
2, 65276, Note_off_c, 0, 81, 0
2, 65280, Note_on_c, 0, 79, 75
2, 65468, Note_off_c, 0, 79, 0
2, 65472, Note_on_c, 0, 76, 75
2, 65660, Note_off_c, 0, 76, 0
2, 65664, Note_on_c, 0, 84, 75
2, 65852, Note_off_c, 0, 84, 0
2, 65856, Note_on_c, 0, 81, 75
2, 66044, Note_off_c, 0, 81, 0
2, 66048, Note_on_c, 0, 79, 75
2, 66236, Note_off_c, 0, 79, 0
2, 66240, Note_on_c, 0, 83, 75
2, 66428, Note_off_c, 0, 83, 0
2, 66432, Note_on_c, 0, 75, 75
2, 66620, Note_off_c, 0, 75, 0
2, 66624, Note_on_c, 0, 78, 75
2, 66812, Note_off_c, 0, 78, 0
2, 66816, Note_on_c, 0, 76, 60
2, 66816, Note_on_c, 0, 76, 60
2, 66816, Note_on_c, 0, 76, 60
2, 67388, Note_off_c, 0, 76, 0
2, 67388, Note_off_c, 0, 76, 0
2, 67392, Note_on_c, 0, 74, 60
2, 67580, Note_off_c, 0, 76, 0
2, 67580, Note_off_c, 0, 74, 0
2, 67584, Note_on_c, 0, 76, 75
2, 67584, Note_on_c, 0, 72, 75
2, 67772, Note_off_c, 0, 72, 0
2, 67776, Note_on_c, 0, 71, 75
2, 67964, Note_off_c, 0, 71, 0
2, 67968, Note_on_c, 0, 69, 75
2, 68156, Note_off_c, 0, 69, 0
2, 68160, Note_on_c, 0, 72, 75
2, 68348, Note_off_c, 0, 76, 0
2, 68348, Note_off_c, 0, 72, 0
2, 68352, Note_on_c, 0, 77, 75
2, 68352, Note_on_c, 0, 74, 75
2, 68924, Note_off_c, 0, 74, 0
2, 68928, Note_on_c, 0, 72, 75
2, 69116, Note_off_c, 0, 77, 0
2, 69116, Note_off_c, 0, 72, 0
2, 69120, Note_on_c, 0, 77, 75
2, 69120, Note_on_c, 0, 71, 75
2, 69308, Note_off_c, 0, 71, 0
2, 69312, Note_on_c, 0, 69, 75
2, 69500, Note_off_c, 0, 69, 0
2, 69504, Note_on_c, 0, 67, 75
2, 69692, Note_off_c, 0, 67, 0
2, 69696, Note_on_c, 0, 71, 75
2, 69884, Note_off_c, 0, 77, 0
2, 69884, Note_off_c, 0, 71, 0
2, 69888, Note_on_c, 0, 76, 75
2, 69888, Note_on_c, 0, 72, 75
2, 70460, Note_off_c, 0, 72, 0
2, 70464, Note_on_c, 0, 71, 75
2, 70652, Note_off_c, 0, 76, 0
2, 70652, Note_off_c, 0, 71, 0
2, 70656, Note_on_c, 0, 76, 75
2, 70656, Note_on_c, 0, 71, 75
2, 70844, Note_off_c, 0, 71, 0
2, 70848, Note_on_c, 0, 67, 75
2, 71036, Note_off_c, 0, 67, 0
2, 71040, Note_on_c, 0, 65, 75
2, 71228, Note_off_c, 0, 65, 0
2, 71232, Note_on_c, 0, 69, 75
2, 71420, Note_off_c, 0, 76, 0
2, 71420, Note_off_c, 0, 69, 0
2, 71424, Note_on_c, 0, 74, 75
2, 71424, Note_on_c, 0, 71, 75
2, 71996, Note_off_c, 0, 71, 0
2, 72000, Note_on_c, 0, 69, 75
2, 72188, Note_off_c, 0, 74, 0
2, 72188, Note_off_c, 0, 69, 0
2, 72192, Note_on_c, 0, 74, 75
2, 72192, Note_on_c, 0, 68, 75
2, 72380, Note_off_c, 0, 68, 0
2, 72384, Note_on_c, 0, 69, 75
2, 72572, Note_off_c, 0, 69, 0
2, 72576, Note_on_c, 0, 71, 75
2, 72764, Note_off_c, 0, 71, 0
2, 72768, Note_on_c, 0, 68, 75
2, 72956, Note_off_c, 0, 74, 0
2, 72956, Note_off_c, 0, 68, 0
2, 72960, Note_on_c, 0, 72, 75
2, 73148, Note_off_c, 0, 72, 0
2, 73152, Note_on_c, 0, 69, 75
2, 73340, Note_off_c, 0, 69, 0
2, 73344, Note_on_c, 0, 76, 75
2, 73536, Note_on_c, 0, 71, 75
2, 73724, Note_off_c, 0, 76, 0
2, 73724, Note_off_c, 0, 71, 0
2, 73728, Note_on_c, 0, 69, 75
2, 73728, Note_on_c, 0, 76, 75
2, 73916, Note_off_c, 0, 76, 0
2, 73920, Note_on_c, 0, 77, 75
2, 74108, Note_off_c, 0, 77, 0
2, 74112, Note_on_c, 0, 74, 75
2, 74300, Note_off_c, 0, 69, 0
2, 74300, Note_off_c, 0, 74, 0
2, 74304, Note_on_c, 0, 71, 75
2, 74492, Note_off_c, 0, 71, 0
2, 74496, Note_on_c, 0, 68, 75
2, 74688, Note_on_c, 0, 76, 75
2, 74876, Note_off_c, 0, 76, 0
2, 74880, Note_on_c, 0, 72, 75
2, 75068, Note_off_c, 0, 68, 0
2, 75068, Note_off_c, 0, 72, 0
2, 75072, Note_on_c, 0, 69, 75
2, 75260, Note_off_c, 0, 69, 0
2, 75264, Note_on_c, 0, 65, 75
2, 75456, Note_on_c, 0, 74, 75
2, 75644, Note_off_c, 0, 74, 0
2, 75648, Note_on_c, 0, 71, 75
2, 75836, Note_off_c, 0, 65, 0
2, 75836, Note_off_c, 0, 71, 0
2, 75840, Note_on_c, 0, 69, 75
2, 75840, Note_on_c, 0, 66, 75
2, 76028, Note_off_c, 0, 69, 0
2, 76028, Note_off_c, 0, 66, 0
2, 76032, Note_on_c, 0, 68, 75
2, 76032, Note_on_c, 0, 64, 75
2, 76220, Note_off_c, 0, 68, 0
2, 76220, Note_off_c, 0, 64, 0
2, 76224, Note_on_c, 0, 71, 75
2, 76412, Note_off_c, 0, 71, 0
2, 76416, Note_on_c, 0, 76, 75
2, 76604, Note_off_c, 0, 76, 0
2, 76608, Note_on_c, 0, 68, 75
2, 76796, Note_off_c, 0, 68, 0
2, 76800, Note_on_c, 0, 69, 75
2, 76988, Note_off_c, 0, 69, 0
2, 76992, Note_on_c, 0, 76, 75
2, 77180, Note_off_c, 0, 76, 0
2, 77184, Note_on_c, 0, 75, 75
2, 77372, Note_off_c, 0, 75, 0
2, 77376, Note_on_c, 0, 69, 75
2, 77564, Note_off_c, 0, 69, 0
2, 77568, Note_on_c, 0, 68, 78
2, 77756, Note_off_c, 0, 68, 0
2, 77760, Note_on_c, 0, 71, 78
2, 77948, Note_off_c, 0, 71, 0
2, 77952, Note_on_c, 0, 76, 78
2, 78140, Note_off_c, 0, 76, 0
2, 78144, Note_on_c, 0, 68, 78
2, 78332, Note_off_c, 0, 68, 0
2, 78336, Note_on_c, 0, 69, 81
2, 78524, Note_off_c, 0, 69, 0
2, 78528, Note_on_c, 0, 76, 81
2, 78716, Note_off_c, 0, 76, 0
2, 78720, Note_on_c, 0, 75, 81
2, 78908, Note_off_c, 0, 75, 0
2, 78912, Note_on_c, 0, 69, 81
2, 79100, Note_off_c, 0, 69, 0
2, 79104, Note_on_c, 0, 68, 84
2, 79292, Note_off_c, 0, 68, 0
2, 79296, Note_on_c, 0, 71, 84
2, 79484, Note_off_c, 0, 71, 0
2, 79488, Note_on_c, 0, 76, 84
2, 79676, Note_off_c, 0, 76, 0
2, 79680, Note_on_c, 0, 68, 84
2, 79868, Note_off_c, 0, 68, 0
2, 79872, Note_on_c, 0, 69, 87
2, 80060, Note_off_c, 0, 69, 0
2, 80064, Note_on_c, 0, 76, 87
2, 80252, Note_off_c, 0, 76, 0
2, 80256, Note_on_c, 0, 75, 87
2, 80444, Note_off_c, 0, 75, 0
2, 80448, Note_on_c, 0, 69, 87
2, 80636, Note_off_c, 0, 69, 0
2, 80640, Note_on_c, 0, 68, 60
2, 80828, Note_off_c, 0, 68, 0
2, 80832, Note_on_c, 0, 71, 60
2, 81020, Note_off_c, 0, 71, 0
2, 81024, Note_on_c, 0, 76, 60
2, 81212, Note_off_c, 0, 76, 0
2, 81216, Note_on_c, 0, 75, 60
2, 81404, Note_off_c, 0, 75, 0
2, 81408, Note_on_c, 0, 74, 75
2, 81596, Note_off_c, 0, 74, 0
2, 81600, Note_on_c, 0, 73, 75
2, 81788, Note_off_c, 0, 73, 0
2, 81792, Note_on_c, 0, 74, 75
2, 81980, Note_off_c, 0, 74, 0
2, 81984, Note_on_c, 0, 71, 75
2, 82172, Note_off_c, 0, 71, 0
2, 82176, Note_on_c, 0, 72, 60
2, 82176, Note_on_c, 0, 69, 60
2, 82748, Note_off_c, 0, 72, 0
2, 82748, Note_off_c, 0, 69, 0
2, 82752, Note_on_c, 0, 71, 60
2, 82752, Note_on_c, 0, 68, 60
2, 82940, Note_off_c, 0, 71, 0
2, 82940, Note_off_c, 0, 68, 0
2, 82944, Note_on_c, 0, 69, 75
2, 82944, Note_on_c, 0, 64, 75
2, 83516, Note_off_c, 0, 69, 0
2, 83520, Note_on_c, 0, 68, 75
2, 83708, Note_off_c, 0, 64, 0
2, 83708, Note_off_c, 0, 68, 0
2, 83712, Note_on_c, 0, 69, 75
2, 83712, Note_on_c, 0, 64, 75
2, 84284, Note_off_c, 0, 69, 0
2, 84288, Note_on_c, 0, 71, 75
2, 84476, Note_off_c, 0, 64, 0
2, 84476, Note_off_c, 0, 71, 0
2, 84480, Note_on_c, 0, 69, 75
2, 84480, Note_on_c, 0, 74, 75
2, 84668, Note_off_c, 0, 74, 0
2, 84672, Note_on_c, 0, 72, 75
2, 84860, Note_off_c, 0, 69, 0
2, 84860, Note_off_c, 0, 72, 0
2, 84864, Note_on_c, 0, 71, 75
2, 84864, Note_on_c, 0, 68, 75
2, 85244, Note_off_c, 0, 71, 0
2, 85244, Note_off_c, 0, 68, 0
2, 85248, Note_on_c, 0, 69, 67
2, 85248, Note_on_c, 0, 74, 67
2, 85820, Note_off_c, 0, 74, 0
2, 85824, Note_on_c, 0, 72, 67
2, 86012, Note_off_c, 0, 69, 0
2, 86012, Note_off_c, 0, 72, 0
2, 86016, Note_on_c, 0, 77, 75
2, 86016, Note_on_c, 0, 69, 75
2, 86588, Note_off_c, 0, 77, 0
2, 86592, Note_on_c, 0, 76, 75
2, 86780, Note_off_c, 0, 69, 0
2, 86780, Note_off_c, 0, 76, 0
2, 86784, Note_on_c, 0, 74, 75
2, 86784, Note_on_c, 0, 68, 75
2, 87356, Note_off_c, 0, 74, 0
2, 87356, Note_off_c, 0, 68, 0
2, 87360, Note_on_c, 0, 72, 75
2, 87360, Note_on_c, 0, 69, 75
2, 87548, Note_off_c, 0, 72, 0
2, 87548, Note_off_c, 0, 69, 0
2, 87552, Note_on_c, 0, 72, 75
2, 87552, Note_on_c, 0, 68, 75
2, 87740, Note_off_c, 0, 72, 0
2, 87744, Note_on_c, 0, 71, 75
2, 87932, Note_off_c, 0, 68, 0
2, 87932, Note_off_c, 0, 71, 0
2, 87936, Note_on_c, 0, 68, 75
2, 88124, Note_off_c, 0, 68, 0
2, 88128, Note_on_c, 0, 64, 75
2, 88316, Note_off_c, 0, 64, 0
2, 88320, Note_on_c, 0, 72, 60
2, 88320, Note_on_c, 0, 69, 60
2, 88892, Note_off_c, 0, 72, 0
2, 88892, Note_off_c, 0, 69, 0
2, 88896, Note_on_c, 0, 71, 60
2, 88896, Note_on_c, 0, 68, 60
2, 89084, Note_off_c, 0, 71, 0
2, 89084, Note_off_c, 0, 68, 0
2, 89088, Note_on_c, 0, 69, 75
2, 89088, Note_on_c, 0, 64, 75
2, 89660, Note_off_c, 0, 69, 0
2, 89664, Note_on_c, 0, 68, 75
2, 89852, Note_off_c, 0, 64, 0
2, 89852, Note_off_c, 0, 68, 0
2, 89856, Note_on_c, 0, 69, 75
2, 89856, Note_on_c, 0, 64, 75
2, 90428, Note_off_c, 0, 69, 0
2, 90432, Note_on_c, 0, 71, 75
2, 90620, Note_off_c, 0, 64, 0
2, 90620, Note_off_c, 0, 71, 0
2, 90624, Note_on_c, 0, 69, 75
2, 90624, Note_on_c, 0, 74, 75
2, 90812, Note_off_c, 0, 74, 0
2, 90816, Note_on_c, 0, 72, 75
2, 91004, Note_off_c, 0, 69, 0
2, 91004, Note_off_c, 0, 72, 0
2, 91008, Note_on_c, 0, 71, 75
2, 91008, Note_on_c, 0, 68, 75
2, 91388, Note_off_c, 0, 71, 0
2, 91388, Note_off_c, 0, 68, 0
2, 91392, Note_on_c, 0, 77, 82
2, 91392, Note_on_c, 0, 69, 82
2, 91964, Note_off_c, 0, 77, 0
2, 91968, Note_on_c, 0, 76, 82
2, 92156, Note_off_c, 0, 69, 0
2, 92156, Note_off_c, 0, 76, 0
2, 92160, Note_on_c, 0, 74, 75
2, 92160, Note_on_c, 0, 69, 75
2, 92732, Note_off_c, 0, 74, 0
2, 92736, Note_on_c, 0, 72, 75
2, 92924, Note_off_c, 0, 69, 0
2, 92924, Note_off_c, 0, 72, 0
2, 92928, Note_on_c, 0, 72, 75
2, 93116, Note_off_c, 0, 72, 0
2, 93120, Note_on_c, 0, 71, 75
2, 93308, Note_off_c, 0, 71, 0
2, 93312, Note_on_c, 0, 69, 75
2, 93500, Note_off_c, 0, 69, 0
2, 93504, Note_on_c, 0, 68, 75
2, 93692, Note_off_c, 0, 68, 0
2, 93696, Note_on_c, 0, 69, 75
2, 93884, Note_off_c, 0, 69, 0
2, 93888, Note_on_c, 0, 73, 75
2, 94076, Note_off_c, 0, 73, 0
2, 94080, Note_on_c, 0, 74, 75
2, 94268, Note_off_c, 0, 74, 0
2, 94272, Note_on_c, 0, 76, 75
2, 94460, Note_off_c, 0, 76, 0
2, 94464, Note_on_c, 0, 77, 75
2, 94464, Note_on_c, 0, 69, 75
2, 95036, Note_off_c, 0, 77, 0
2, 95040, Note_on_c, 0, 76, 75
2, 95228, Note_off_c, 0, 69, 0
2, 95228, Note_off_c, 0, 76, 0
2, 95232, Note_on_c, 0, 80, 79
2, 95232, Note_on_c, 0, 74, 79
2, 95804, Note_off_c, 0, 80, 0
2, 95804, Note_off_c, 0, 74, 0
2, 95808, Note_on_c, 0, 81, 81
2, 95808, Note_on_c, 0, 74, 81
2, 95996, Note_off_c, 0, 81, 0
2, 95996, Note_off_c, 0, 74, 0
2, 96000, Note_on_c, 0, 83, 82
2, 96000, Note_on_c, 0, 76, 82
2, 96572, Note_off_c, 0, 83, 0
2, 96572, Note_off_c, 0, 76, 0
2, 96576, Note_on_c, 0, 84, 84
2, 96576, Note_on_c, 0, 81, 84
2, 96764, Note_off_c, 0, 84, 0
2, 96764, Note_off_c, 0, 81, 0
2, 96768, Note_on_c, 0, 86, 85
2, 96768, Note_on_c, 0, 80, 85
2, 97148, Note_off_c, 0, 80, 0
2, 97152, Note_on_c, 0, 81, 87
2, 97340, Note_off_c, 0, 81, 0
2, 97344, Note_on_c, 0, 83, 87
2, 97532, Note_off_c, 0, 86, 0
2, 97532, Note_off_c, 0, 83, 0
2, 97536, Note_on_c, 0, 84, 90
2, 97536, Note_on_c, 0, 81, 90
2, 98108, Note_off_c, 0, 84, 0
2, 98108, Note_off_c, 0, 81, 0
2, 98112, Note_on_c, 0, 83, 90
2, 98112, Note_on_c, 0, 79, 90
2, 98300, Note_off_c, 0, 83, 0
2, 98300, Note_off_c, 0, 79, 0
2, 98304, Note_on_c, 0, 81, 75
2, 98304, Note_on_c, 0, 77, 75
2, 98876, Note_off_c, 0, 81, 0
2, 98876, Note_off_c, 0, 77, 0
2, 98880, Note_on_c, 0, 79, 75
2, 98880, Note_on_c, 0, 76, 75
2, 99068, Note_off_c, 0, 79, 0
2, 99068, Note_off_c, 0, 76, 0
2, 99072, Note_on_c, 0, 77, 75
2, 99072, Note_on_c, 0, 74, 75
2, 99644, Note_off_c, 0, 77, 0
2, 99644, Note_off_c, 0, 74, 0
2, 99648, Note_on_c, 0, 76, 75
2, 99648, Note_on_c, 0, 72, 75
2, 99836, Note_off_c, 0, 76, 0
2, 99836, Note_off_c, 0, 72, 0
2, 99840, Note_on_c, 0, 74, 75
2, 99840, Note_on_c, 0, 71, 75
2, 100412, Note_off_c, 0, 74, 0
2, 100412, Note_off_c, 0, 71, 0
2, 100416, Note_on_c, 0, 72, 63
2, 100416, Note_on_c, 0, 69, 63
2, 100604, Note_off_c, 0, 72, 0
2, 100604, Note_off_c, 0, 69, 0
2, 100608, Note_on_c, 0, 71, 60
2, 100608, Note_on_c, 0, 65, 60
2, 100608, Note_on_c, 0, 68, 60
2, 100988, Note_off_c, 0, 71, 0
2, 100988, Note_off_c, 0, 65, 0
2, 100988, Note_off_c, 0, 68, 0
2, 100992, Note_on_c, 0, 74, 60
2, 101180, Note_off_c, 0, 74, 0
2, 101184, Note_on_c, 0, 77, 60
2, 101372, Note_off_c, 0, 77, 0
2, 101376, Note_on_c, 0, 69, 75
2, 101376, Note_on_c, 0, 77, 75
2, 101564, Note_off_c, 0, 77, 0
2, 101568, Note_on_c, 0, 76, 75
2, 101756, Note_off_c, 0, 69, 0
2, 101756, Note_off_c, 0, 76, 0
2, 101760, Note_on_c, 0, 74, 75
2, 101948, Note_off_c, 0, 74, 0
2, 101952, Note_on_c, 0, 72, 75
2, 102140, Note_off_c, 0, 72, 0
2, 102144, Note_on_c, 0, 72, 75
2, 102332, Note_off_c, 0, 72, 0
2, 102336, Note_on_c, 0, 71, 75
2, 102524, Note_off_c, 0, 71, 0
2, 102528, Note_on_c, 0, 69, 75
2, 102716, Note_off_c, 0, 69, 0
2, 102720, Note_on_c, 0, 68, 75
2, 102908, Note_off_c, 0, 68, 0
2, 102912, Note_on_c, 0, 69, 75
2, 103100, Note_off_c, 0, 69, 0
2, 103104, Note_on_c, 0, 72, 75
2, 103292, Note_off_c, 0, 72, 0
2, 103296, Note_on_c, 0, 76, 75
2, 103484, Note_off_c, 0, 76, 0
2, 103488, Note_on_c, 0, 80, 75
2, 103488, Note_on_c, 0, 83, 75
2, 103676, Note_off_c, 0, 80, 0
2, 103676, Note_off_c, 0, 83, 0
2, 103680, Note_on_c, 0, 84, 90
2, 103680, Note_on_c, 0, 81, 90
2, 104252, Note_off_c, 0, 84, 0
2, 104252, Note_off_c, 0, 81, 0
2, 104256, Note_on_c, 0, 83, 90
2, 104256, Note_on_c, 0, 79, 90
2, 104444, Note_off_c, 0, 83, 0
2, 104444, Note_off_c, 0, 79, 0
2, 104448, Note_on_c, 0, 81, 75
2, 104448, Note_on_c, 0, 77, 75
2, 105020, Note_off_c, 0, 81, 0
2, 105020, Note_off_c, 0, 77, 0
2, 105024, Note_on_c, 0, 79, 75
2, 105024, Note_on_c, 0, 76, 75
2, 105212, Note_off_c, 0, 79, 0
2, 105212, Note_off_c, 0, 76, 0
2, 105216, Note_on_c, 0, 77, 75
2, 105216, Note_on_c, 0, 74, 75
2, 105788, Note_off_c, 0, 77, 0
2, 105788, Note_off_c, 0, 74, 0
2, 105792, Note_on_c, 0, 76, 75
2, 105792, Note_on_c, 0, 72, 75
2, 105980, Note_off_c, 0, 76, 0
2, 105980, Note_off_c, 0, 72, 0
2, 105984, Note_on_c, 0, 74, 75
2, 105984, Note_on_c, 0, 71, 75
2, 106556, Note_off_c, 0, 74, 0
2, 106556, Note_off_c, 0, 71, 0
2, 106560, Note_on_c, 0, 72, 63
2, 106560, Note_on_c, 0, 69, 63
2, 106748, Note_off_c, 0, 72, 0
2, 106748, Note_off_c, 0, 69, 0
2, 106752, Note_on_c, 0, 71, 60
2, 106752, Note_on_c, 0, 68, 60
2, 106752, Note_on_c, 0, 65, 60
2, 107132, Note_off_c, 0, 71, 0
2, 107132, Note_off_c, 0, 68, 0
2, 107132, Note_off_c, 0, 65, 0
2, 107136, Note_on_c, 0, 74, 60
2, 107324, Note_off_c, 0, 74, 0
2, 107328, Note_on_c, 0, 77, 60
2, 107516, Note_off_c, 0, 77, 0
2, 107520, Note_on_c, 0, 69, 75
2, 107520, Note_on_c, 0, 77, 75
2, 107708, Note_off_c, 0, 77, 0
2, 107712, Note_on_c, 0, 76, 75
2, 107900, Note_off_c, 0, 69, 0
2, 107900, Note_off_c, 0, 76, 0
2, 107904, Note_on_c, 0, 74, 75
2, 108092, Note_off_c, 0, 74, 0
2, 108096, Note_on_c, 0, 72, 75
2, 108284, Note_off_c, 0, 72, 0
2, 108288, Note_on_c, 0, 72, 75
2, 108476, Note_off_c, 0, 72, 0
2, 108480, Note_on_c, 0, 71, 75
2, 108668, Note_off_c, 0, 71, 0
2, 108672, Note_on_c, 0, 69, 75
2, 108860, Note_off_c, 0, 69, 0
2, 108864, Note_on_c, 0, 68, 75
2, 109052, Note_off_c, 0, 68, 0
2, 109056, Note_on_c, 0, 69, 75
2, 109244, Note_off_c, 0, 69, 0
2, 109248, Note_on_c, 0, 64, 75
2, 109436, Note_off_c, 0, 64, 0
2, 109440, Note_on_c, 0, 69, 75
2, 109628, Note_off_c, 0, 69, 0
2, 109632, Note_on_c, 0, 71, 75
2, 109820, Note_off_c, 0, 71, 0
2, 109824, Key_signature, 3, "major"
2, 109824, Note_on_c, 0, 73, 60
2, 109824, Note_on_c, 0, 69, 60
2, 110396, Note_off_c, 0, 73, 0
2, 110396, Note_off_c, 0, 69, 0
2, 110400, Note_on_c, 0, 76, 60
2, 110400, Note_on_c, 0, 73, 60
2, 110588, Note_off_c, 0, 76, 0
2, 110588, Note_off_c, 0, 73, 0
2, 110592, Note_on_c, 0, 76, 75
2, 110592, Note_on_c, 0, 73, 75
2, 110780, Note_off_c, 0, 76, 0
2, 110780, Note_off_c, 0, 73, 0
2, 110784, Note_on_c, 0, 74, 75
2, 110784, Note_on_c, 0, 71, 75
2, 110972, Note_off_c, 0, 74, 0
2, 110972, Note_off_c, 0, 71, 0
2, 110976, Note_on_c, 0, 74, 75
2, 110976, Note_on_c, 0, 71, 75
2, 111164, Note_off_c, 0, 74, 0
2, 111164, Note_off_c, 0, 71, 0
2, 111168, Note_on_c, 0, 73, 75
2, 111168, Note_on_c, 0, 69, 75
2, 111356, Note_off_c, 0, 73, 0
2, 111356, Note_off_c, 0, 69, 0
2, 111360, Note_on_c, 0, 73, 75
2, 111360, Note_on_c, 0, 69, 75
2, 111548, Note_off_c, 0, 73, 0
2, 111548, Note_off_c, 0, 69, 0
2, 111552, Note_on_c, 0, 71, 75
2, 111552, Note_on_c, 0, 68, 75
2, 111740, Note_off_c, 0, 71, 0
2, 111740, Note_off_c, 0, 68, 0
2, 111744, Note_on_c, 0, 71, 75
2, 111744, Note_on_c, 0, 68, 75
2, 111932, Note_off_c, 0, 71, 0
2, 111932, Note_off_c, 0, 68, 0
2, 111936, Note_on_c, 0, 74, 75
2, 111936, Note_on_c, 0, 71, 75
2, 112124, Note_off_c, 0, 74, 0
2, 112124, Note_off_c, 0, 71, 0
2, 112128, Note_on_c, 0, 74, 75
2, 112128, Note_on_c, 0, 71, 75
2, 112316, Note_off_c, 0, 74, 0
2, 112316, Note_off_c, 0, 71, 0
2, 112320, Note_on_c, 0, 73, 75
2, 112320, Note_on_c, 0, 69, 75
2, 112508, Note_off_c, 0, 73, 0
2, 112508, Note_off_c, 0, 69, 0
2, 112512, Note_on_c, 0, 73, 75
2, 112512, Note_on_c, 0, 69, 75
2, 112892, Note_off_c, 0, 73, 0
2, 112892, Note_off_c, 0, 69, 0
2, 112896, Note_on_c, 0, 81, 90
2, 112896, Note_on_c, 0, 73, 90
2, 113468, Note_off_c, 0, 81, 0
2, 113468, Note_off_c, 0, 73, 0
2, 113472, Note_on_c, 0, 80, 60
2, 113472, Note_on_c, 0, 76, 60
2, 113660, Note_off_c, 0, 80, 0
2, 113660, Note_off_c, 0, 76, 0
2, 113664, Note_on_c, 0, 80, 75
2, 113664, Note_on_c, 0, 76, 75
2, 113852, Note_off_c, 0, 80, 0
2, 113852, Note_off_c, 0, 76, 0
2, 113856, Note_on_c, 0, 78, 75
2, 113856, Note_on_c, 0, 74, 75
2, 114044, Note_off_c, 0, 78, 0
2, 114044, Note_off_c, 0, 74, 0
2, 114048, Note_on_c, 0, 78, 75
2, 114048, Note_on_c, 0, 74, 75
2, 114236, Note_off_c, 0, 78, 0
2, 114236, Note_off_c, 0, 74, 0
2, 114240, Note_on_c, 0, 76, 75
2, 114240, Note_on_c, 0, 73, 75
2, 114428, Note_off_c, 0, 76, 0
2, 114428, Note_off_c, 0, 73, 0
2, 114432, Note_on_c, 0, 76, 75
2, 114432, Note_on_c, 0, 73, 75
2, 114620, Note_off_c, 0, 76, 0
2, 114620, Note_off_c, 0, 73, 0
2, 114624, Note_on_c, 0, 74, 75
2, 114624, Note_on_c, 0, 71, 75
2, 114812, Note_off_c, 0, 74, 0
2, 114812, Note_off_c, 0, 71, 0
2, 114816, Note_on_c, 0, 74, 75
2, 114816, Note_on_c, 0, 71, 75
2, 115004, Note_off_c, 0, 74, 0
2, 115004, Note_off_c, 0, 71, 0
2, 115008, Note_on_c, 0, 73, 75
2, 115008, Note_on_c, 0, 69, 75
2, 115196, Note_off_c, 0, 73, 0
2, 115196, Note_off_c, 0, 69, 0
2, 115200, Note_on_c, 0, 73, 75
2, 115200, Note_on_c, 0, 69, 75
2, 115388, Note_off_c, 0, 73, 0
2, 115388, Note_off_c, 0, 69, 0
2, 115392, Note_on_c, 0, 71, 75
2, 115392, Note_on_c, 0, 68, 75
2, 115580, Note_off_c, 0, 71, 0
2, 115580, Note_off_c, 0, 68, 0
2, 115584, Note_on_c, 0, 69, 75
2, 115964, Note_off_c, 0, 69, 0
2, 115968, Note_on_c, 0, 73, 75
2, 115968, Note_on_c, 0, 69, 75
2, 116540, Note_off_c, 0, 73, 0
2, 116540, Note_off_c, 0, 69, 0
2, 116544, Note_on_c, 0, 76, 75
2, 116544, Note_on_c, 0, 73, 75
2, 116732, Note_off_c, 0, 76, 0
2, 116732, Note_off_c, 0, 73, 0
2, 116736, Note_on_c, 0, 76, 75
2, 116736, Note_on_c, 0, 73, 75
2, 116924, Note_off_c, 0, 76, 0
2, 116924, Note_off_c, 0, 73, 0
2, 116928, Note_on_c, 0, 74, 75
2, 116928, Note_on_c, 0, 71, 75
2, 117116, Note_off_c, 0, 74, 0
2, 117116, Note_off_c, 0, 71, 0
2, 117120, Note_on_c, 0, 74, 75
2, 117120, Note_on_c, 0, 71, 75
2, 117308, Note_off_c, 0, 74, 0
2, 117308, Note_off_c, 0, 71, 0
2, 117312, Note_on_c, 0, 73, 75
2, 117312, Note_on_c, 0, 69, 75
2, 117500, Note_off_c, 0, 73, 0
2, 117500, Note_off_c, 0, 69, 0
2, 117504, Note_on_c, 0, 73, 75
2, 117504, Note_on_c, 0, 69, 75
2, 117692, Note_off_c, 0, 73, 0
2, 117692, Note_off_c, 0, 69, 0
2, 117696, Note_on_c, 0, 71, 75
2, 117696, Note_on_c, 0, 68, 75
2, 117884, Note_off_c, 0, 71, 0
2, 117884, Note_off_c, 0, 68, 0
2, 117888, Note_on_c, 0, 71, 75
2, 117888, Note_on_c, 0, 68, 75
2, 118076, Note_off_c, 0, 71, 0
2, 118076, Note_off_c, 0, 68, 0
2, 118080, Note_on_c, 0, 74, 75
2, 118080, Note_on_c, 0, 71, 75
2, 118268, Note_off_c, 0, 74, 0
2, 118268, Note_off_c, 0, 71, 0
2, 118272, Note_on_c, 0, 74, 75
2, 118272, Note_on_c, 0, 71, 75
2, 118460, Note_off_c, 0, 74, 0
2, 118460, Note_off_c, 0, 71, 0
2, 118464, Note_on_c, 0, 73, 75
2, 118464, Note_on_c, 0, 69, 75
2, 118652, Note_off_c, 0, 73, 0
2, 118652, Note_off_c, 0, 69, 0
2, 118656, Note_on_c, 0, 73, 75
2, 118656, Note_on_c, 0, 69, 75
2, 119036, Note_off_c, 0, 73, 0
2, 119036, Note_off_c, 0, 69, 0
2, 119040, Note_on_c, 0, 69, 75
2, 119040, Note_on_c, 0, 73, 75
2, 119228, Note_off_c, 0, 73, 0
2, 119232, Note_on_c, 0, 71, 75
2, 119420, Note_off_c, 0, 71, 0
2, 119612, Note_off_c, 0, 69, 0
2, 119616, Note_on_c, 0, 71, 75
2, 119616, Note_on_c, 0, 69, 75
2, 119804, Note_off_c, 0, 71, 0
2, 119804, Note_off_c, 0, 69, 0
2, 119808, Note_on_c, 0, 71, 79
2, 119808, Note_on_c, 0, 68, 79
2, 119996, Note_off_c, 0, 71, 0
2, 120000, Note_on_c, 0, 76, 82
2, 120188, Note_off_c, 0, 68, 0
2, 120188, Note_off_c, 0, 76, 0
2, 120192, Note_on_c, 0, 73, 85
2, 120192, Note_on_c, 0, 69, 85
2, 120380, Note_off_c, 0, 73, 0
2, 120384, Note_on_c, 0, 78, 88
2, 120572, Note_off_c, 0, 69, 0
2, 120572, Note_off_c, 0, 78, 0
2, 120576, Note_on_c, 0, 76, 90
2, 120576, Note_on_c, 0, 68, 90
2, 120576, Note_on_c, 0, 71, 90
2, 120956, Note_off_c, 0, 76, 0
2, 120956, Note_off_c, 0, 68, 0
2, 120960, Note_on_c, 0, 75, 90
2, 120960, Note_on_c, 0, 66, 90
2, 121340, Note_off_c, 0, 71, 0
2, 121340, Note_off_c, 0, 75, 0
2, 121340, Note_off_c, 0, 66, 0
2, 121344, Note_on_c, 0, 76, 90
2, 121344, Note_on_c, 0, 71, 90
2, 121344, Note_on_c, 0, 68, 90
2, 121724, Note_off_c, 0, 76, 0
2, 121724, Note_off_c, 0, 71, 0
2, 121724, Note_off_c, 0, 68, 0
2, 122112, Note_on_c, 0, 73, 60
2, 122112, Note_on_c, 0, 69, 60
2, 122684, Note_off_c, 0, 73, 0
2, 122684, Note_off_c, 0, 69, 0
2, 122688, Note_on_c, 0, 76, 60
2, 122688, Note_on_c, 0, 73, 60
2, 122876, Note_off_c, 0, 76, 0
2, 122876, Note_off_c, 0, 73, 0
2, 122880, Note_on_c, 0, 76, 75
2, 122880, Note_on_c, 0, 73, 75
2, 123068, Note_off_c, 0, 76, 0
2, 123068, Note_off_c, 0, 73, 0
2, 123072, Note_on_c, 0, 74, 75
2, 123072, Note_on_c, 0, 71, 75
2, 123260, Note_off_c, 0, 74, 0
2, 123260, Note_off_c, 0, 71, 0
2, 123264, Note_on_c, 0, 74, 75
2, 123264, Note_on_c, 0, 71, 75
2, 123452, Note_off_c, 0, 74, 0
2, 123452, Note_off_c, 0, 71, 0
2, 123456, Note_on_c, 0, 73, 75
2, 123456, Note_on_c, 0, 69, 75
2, 123644, Note_off_c, 0, 73, 0
2, 123644, Note_off_c, 0, 69, 0
2, 123648, Note_on_c, 0, 73, 75
2, 123648, Note_on_c, 0, 69, 75
2, 123836, Note_off_c, 0, 73, 0
2, 123836, Note_off_c, 0, 69, 0
2, 123840, Note_on_c, 0, 71, 75
2, 123840, Note_on_c, 0, 68, 75
2, 124028, Note_off_c, 0, 71, 0
2, 124028, Note_off_c, 0, 68, 0
2, 124032, Note_on_c, 0, 71, 75
2, 124032, Note_on_c, 0, 68, 75
2, 124220, Note_off_c, 0, 71, 0
2, 124220, Note_off_c, 0, 68, 0
2, 124224, Note_on_c, 0, 74, 75
2, 124224, Note_on_c, 0, 71, 75
2, 124412, Note_off_c, 0, 74, 0
2, 124412, Note_off_c, 0, 71, 0
2, 124416, Note_on_c, 0, 74, 75
2, 124416, Note_on_c, 0, 71, 75
2, 124604, Note_off_c, 0, 74, 0
2, 124604, Note_off_c, 0, 71, 0
2, 124608, Note_on_c, 0, 73, 75
2, 124608, Note_on_c, 0, 69, 75
2, 124796, Note_off_c, 0, 73, 0
2, 124796, Note_off_c, 0, 69, 0
2, 124800, Note_on_c, 0, 73, 75
2, 124800, Note_on_c, 0, 69, 75
2, 125180, Note_off_c, 0, 73, 0
2, 125180, Note_off_c, 0, 69, 0
2, 125184, Note_on_c, 0, 81, 90
2, 125184, Note_on_c, 0, 73, 90
2, 125756, Note_off_c, 0, 81, 0
2, 125756, Note_off_c, 0, 73, 0
2, 125760, Note_on_c, 0, 80, 60
2, 125760, Note_on_c, 0, 76, 60
2, 125948, Note_off_c, 0, 80, 0
2, 125948, Note_off_c, 0, 76, 0
2, 125952, Note_on_c, 0, 80, 75
2, 125952, Note_on_c, 0, 76, 75
2, 126140, Note_off_c, 0, 80, 0
2, 126140, Note_off_c, 0, 76, 0
2, 126144, Note_on_c, 0, 78, 75
2, 126144, Note_on_c, 0, 74, 75
2, 126332, Note_off_c, 0, 78, 0
2, 126332, Note_off_c, 0, 74, 0
2, 126336, Note_on_c, 0, 78, 75
2, 126336, Note_on_c, 0, 74, 75
2, 126524, Note_off_c, 0, 78, 0
2, 126524, Note_off_c, 0, 74, 0
2, 126528, Note_on_c, 0, 76, 75
2, 126528, Note_on_c, 0, 73, 75
2, 126716, Note_off_c, 0, 76, 0
2, 126716, Note_off_c, 0, 73, 0
2, 126720, Note_on_c, 0, 76, 75
2, 126720, Note_on_c, 0, 73, 75
2, 126908, Note_off_c, 0, 76, 0
2, 126908, Note_off_c, 0, 73, 0
2, 126912, Note_on_c, 0, 74, 75
2, 126912, Note_on_c, 0, 71, 75
2, 127100, Note_off_c, 0, 74, 0
2, 127100, Note_off_c, 0, 71, 0
2, 127104, Note_on_c, 0, 74, 75
2, 127104, Note_on_c, 0, 71, 75
2, 127292, Note_off_c, 0, 74, 0
2, 127292, Note_off_c, 0, 71, 0
2, 127296, Note_on_c, 0, 73, 75
2, 127296, Note_on_c, 0, 69, 75
2, 127484, Note_off_c, 0, 73, 0
2, 127484, Note_off_c, 0, 69, 0
2, 127488, Note_on_c, 0, 73, 75
2, 127488, Note_on_c, 0, 69, 75
2, 127676, Note_off_c, 0, 73, 0
2, 127676, Note_off_c, 0, 69, 0
2, 127680, Note_on_c, 0, 71, 75
2, 127680, Note_on_c, 0, 68, 75
2, 127868, Note_off_c, 0, 71, 0
2, 127868, Note_off_c, 0, 68, 0
2, 127872, Note_on_c, 0, 69, 75
2, 128252, Note_off_c, 0, 69, 0
2, 128256, Note_on_c, 0, 73, 75
2, 128256, Note_on_c, 0, 69, 75
2, 128828, Note_off_c, 0, 73, 0
2, 128828, Note_off_c, 0, 69, 0
2, 128832, Note_on_c, 0, 76, 75
2, 128832, Note_on_c, 0, 73, 75
2, 129020, Note_off_c, 0, 76, 0
2, 129020, Note_off_c, 0, 73, 0
2, 129024, Note_on_c, 0, 76, 75
2, 129024, Note_on_c, 0, 73, 75
2, 129212, Note_off_c, 0, 76, 0
2, 129212, Note_off_c, 0, 73, 0
2, 129216, Note_on_c, 0, 74, 75
2, 129216, Note_on_c, 0, 71, 75
2, 129404, Note_off_c, 0, 74, 0
2, 129404, Note_off_c, 0, 71, 0
2, 129408, Note_on_c, 0, 74, 75
2, 129408, Note_on_c, 0, 71, 75
2, 129596, Note_off_c, 0, 74, 0
2, 129596, Note_off_c, 0, 71, 0
2, 129600, Note_on_c, 0, 73, 75
2, 129600, Note_on_c, 0, 69, 75
2, 129788, Note_off_c, 0, 73, 0
2, 129788, Note_off_c, 0, 69, 0
2, 129792, Note_on_c, 0, 73, 75
2, 129792, Note_on_c, 0, 69, 75
2, 129980, Note_off_c, 0, 73, 0
2, 129980, Note_off_c, 0, 69, 0
2, 129984, Note_on_c, 0, 71, 75
2, 129984, Note_on_c, 0, 68, 75
2, 130172, Note_off_c, 0, 71, 0
2, 130172, Note_off_c, 0, 68, 0
2, 130176, Note_on_c, 0, 71, 75
2, 130176, Note_on_c, 0, 68, 75
2, 130364, Note_off_c, 0, 71, 0
2, 130364, Note_off_c, 0, 68, 0
2, 130368, Note_on_c, 0, 74, 75
2, 130368, Note_on_c, 0, 71, 75
2, 130556, Note_off_c, 0, 74, 0
2, 130556, Note_off_c, 0, 71, 0
2, 130560, Note_on_c, 0, 74, 75
2, 130560, Note_on_c, 0, 71, 75
2, 130748, Note_off_c, 0, 74, 0
2, 130748, Note_off_c, 0, 71, 0
2, 130752, Note_on_c, 0, 73, 75
2, 130752, Note_on_c, 0, 69, 75
2, 130940, Note_off_c, 0, 73, 0
2, 130940, Note_off_c, 0, 69, 0
2, 130944, Note_on_c, 0, 73, 75
2, 130944, Note_on_c, 0, 69, 75
2, 131324, Note_off_c, 0, 73, 0
2, 131324, Note_off_c, 0, 69, 0
2, 131328, Note_on_c, 0, 69, 75
2, 131328, Note_on_c, 0, 73, 75
2, 131516, Note_off_c, 0, 73, 0
2, 131520, Note_on_c, 0, 71, 75
2, 131708, Note_off_c, 0, 71, 0
2, 131900, Note_off_c, 0, 69, 0
2, 131904, Note_on_c, 0, 71, 75
2, 131904, Note_on_c, 0, 69, 75
2, 132092, Note_off_c, 0, 71, 0
2, 132092, Note_off_c, 0, 69, 0
2, 132096, Note_on_c, 0, 71, 79
2, 132096, Note_on_c, 0, 68, 79
2, 132284, Note_off_c, 0, 71, 0
2, 132288, Note_on_c, 0, 76, 82
2, 132476, Note_off_c, 0, 68, 0
2, 132476, Note_off_c, 0, 76, 0
2, 132480, Note_on_c, 0, 73, 85
2, 132480, Note_on_c, 0, 69, 85
2, 132668, Note_off_c, 0, 73, 0
2, 132672, Note_on_c, 0, 78, 88
2, 132860, Note_off_c, 0, 69, 0
2, 132860, Note_off_c, 0, 78, 0
2, 132864, Note_on_c, 0, 76, 90
2, 132864, Note_on_c, 0, 68, 90
2, 132864, Note_on_c, 0, 71, 90
2, 133244, Note_off_c, 0, 76, 0
2, 133244, Note_off_c, 0, 68, 0
2, 133248, Note_on_c, 0, 75, 90
2, 133248, Note_on_c, 0, 66, 90
2, 133628, Note_off_c, 0, 71, 0
2, 133628, Note_off_c, 0, 75, 0
2, 133628, Note_off_c, 0, 66, 0
2, 133632, Note_on_c, 0, 76, 90
2, 133632, Note_on_c, 0, 71, 90
2, 133632, Note_on_c, 0, 68, 90
2, 134012, Note_off_c, 0, 76, 0
2, 134012, Note_off_c, 0, 71, 0
2, 134012, Note_off_c, 0, 68, 0
2, 134400, Note_on_c, 0, 76, 60
2, 134588, Note_off_c, 0, 76, 0
2, 134592, Note_on_c, 0, 75, 60
2, 134780, Note_off_c, 0, 75, 0
2, 134784, Note_on_c, 0, 76, 60
2, 134972, Note_off_c, 0, 76, 0
2, 134976, Note_on_c, 0, 78, 60
2, 135164, Note_off_c, 0, 78, 0
2, 135168, Note_on_c, 0, 76, 75
2, 135356, Note_off_c, 0, 76, 0
2, 135360, Note_on_c, 0, 74, 75
2, 135548, Note_off_c, 0, 74, 0
2, 135552, Note_on_c, 0, 73, 75
2, 135740, Note_off_c, 0, 73, 0
2, 135744, Note_on_c, 0, 71, 75
2, 135932, Note_off_c, 0, 71, 0
2, 135936, Note_on_c, 0, 70, 75
2, 135936, Note_on_c, 0, 68, 75
2, 135936, Note_on_c, 0, 64, 75
2, 136124, Note_off_c, 0, 70, 0
2, 136128, Note_on_c, 0, 71, 75
2, 136316, Note_off_c, 0, 68, 0
2, 136316, Note_off_c, 0, 64, 0
2, 136316, Note_off_c, 0, 71, 0
2, 136320, Note_on_c, 0, 73, 75
2, 136320, Note_on_c, 0, 68, 75
2, 136320, Note_on_c, 0, 64, 75
2, 136508, Note_off_c, 0, 73, 0
2, 136512, Note_on_c, 0, 70, 75
2, 136700, Note_off_c, 0, 68, 0
2, 136700, Note_off_c, 0, 64, 0
2, 136700, Note_off_c, 0, 70, 0
2, 136704, Note_on_c, 0, 71, 75
2, 136704, Note_on_c, 0, 66, 75
2, 136704, Note_on_c, 0, 62, 75
2, 136892, Note_off_c, 0, 71, 0
2, 136896, Note_on_c, 0, 70, 75
2, 137084, Note_off_c, 0, 66, 0
2, 137084, Note_off_c, 0, 62, 0
2, 137084, Note_off_c, 0, 70, 0
2, 137088, Note_on_c, 0, 71, 75
2, 137276, Note_off_c, 0, 71, 0
2, 137280, Note_on_c, 0, 73, 75
2, 137468, Note_off_c, 0, 73, 0
2, 137472, Note_on_c, 0, 74, 75
2, 137516, Note_off_c, 0, 74, 0
2, 137520, Note_on_c, 0, 76, 75
2, 137564, Note_off_c, 0, 76, 0
2, 137568, Note_on_c, 0, 74, 75
2, 137660, Note_off_c, 0, 74, 0
2, 137664, Note_on_c, 0, 73, 75
2, 137852, Note_off_c, 0, 73, 0
2, 137856, Note_on_c, 0, 74, 75
2, 138044, Note_off_c, 0, 74, 0
2, 138048, Note_on_c, 0, 76, 75
2, 138236, Note_off_c, 0, 76, 0
2, 138240, Note_on_c, 0, 74, 75
2, 138428, Note_off_c, 0, 74, 0
2, 138432, Note_on_c, 0, 73, 75
2, 138620, Note_off_c, 0, 73, 0
2, 138624, Note_on_c, 0, 71, 75
2, 138812, Note_off_c, 0, 71, 0
2, 138816, Note_on_c, 0, 69, 75
2, 139004, Note_off_c, 0, 69, 0
2, 139008, Note_on_c, 0, 68, 75
2, 139008, Note_on_c, 0, 66, 75
2, 139008, Note_on_c, 0, 62, 75
2, 139196, Note_off_c, 0, 68, 0
2, 139200, Note_on_c, 0, 69, 75
2, 139388, Note_off_c, 0, 66, 0
2, 139388, Note_off_c, 0, 62, 0
2, 139388, Note_off_c, 0, 69, 0
2, 139392, Note_on_c, 0, 71, 75
2, 139392, Note_on_c, 0, 66, 75
2, 139392, Note_on_c, 0, 62, 75
2, 139580, Note_off_c, 0, 71, 0
2, 139584, Note_on_c, 0, 68, 75
2, 139772, Note_off_c, 0, 66, 0
2, 139772, Note_off_c, 0, 62, 0
2, 139772, Note_off_c, 0, 68, 0
2, 139776, Note_on_c, 0, 69, 75
2, 139776, Note_on_c, 0, 64, 75
2, 139776, Note_on_c, 0, 61, 75
2, 139964, Note_off_c, 0, 69, 0
2, 139968, Note_on_c, 0, 73, 75
2, 140156, Note_off_c, 0, 64, 0
2, 140156, Note_off_c, 0, 61, 0
2, 140156, Note_off_c, 0, 73, 0
2, 140160, Note_on_c, 0, 76, 75
2, 140348, Note_off_c, 0, 76, 0
2, 140352, Note_on_c, 0, 73, 75
2, 140540, Note_off_c, 0, 73, 0
2, 140544, Note_on_c, 0, 81, 90
2, 140544, Note_on_c, 0, 73, 90
2, 141116, Note_off_c, 0, 81, 0
2, 141116, Note_off_c, 0, 73, 0
2, 141120, Note_on_c, 0, 80, 60
2, 141120, Note_on_c, 0, 76, 60
2, 141308, Note_off_c, 0, 80, 0
2, 141308, Note_off_c, 0, 76, 0
2, 141312, Note_on_c, 0, 80, 75
2, 141312, Note_on_c, 0, 76, 75
2, 141500, Note_off_c, 0, 80, 0
2, 141500, Note_off_c, 0, 76, 0
2, 141504, Note_on_c, 0, 78, 75
2, 141504, Note_on_c, 0, 74, 75
2, 141692, Note_off_c, 0, 78, 0
2, 141692, Note_off_c, 0, 74, 0
2, 141696, Note_on_c, 0, 78, 75
2, 141696, Note_on_c, 0, 74, 75
2, 141884, Note_off_c, 0, 78, 0
2, 141884, Note_off_c, 0, 74, 0
2, 141888, Note_on_c, 0, 76, 75
2, 141888, Note_on_c, 0, 73, 75
2, 142076, Note_off_c, 0, 76, 0
2, 142076, Note_off_c, 0, 73, 0
2, 142080, Note_on_c, 0, 76, 75
2, 142080, Note_on_c, 0, 73, 75
2, 142268, Note_off_c, 0, 76, 0
2, 142268, Note_off_c, 0, 73, 0
2, 142272, Note_on_c, 0, 74, 75
2, 142272, Note_on_c, 0, 71, 75
2, 142460, Note_off_c, 0, 74, 0
2, 142460, Note_off_c, 0, 71, 0
2, 142464, Note_on_c, 0, 74, 75
2, 142464, Note_on_c, 0, 71, 75
2, 142652, Note_off_c, 0, 74, 0
2, 142652, Note_off_c, 0, 71, 0
2, 142656, Note_on_c, 0, 73, 75
2, 142656, Note_on_c, 0, 69, 75
2, 142844, Note_off_c, 0, 73, 0
2, 142844, Note_off_c, 0, 69, 0
2, 142848, Note_on_c, 0, 73, 75
2, 142848, Note_on_c, 0, 69, 75
2, 143036, Note_off_c, 0, 73, 0
2, 143036, Note_off_c, 0, 69, 0
2, 143040, Note_on_c, 0, 71, 75
2, 143040, Note_on_c, 0, 68, 75
2, 143228, Note_off_c, 0, 71, 0
2, 143228, Note_off_c, 0, 68, 0
2, 143232, Note_on_c, 0, 69, 75
2, 143612, Note_off_c, 0, 69, 0
2, 143616, Note_on_c, 0, 71, 90
2, 143616, Note_on_c, 0, 68, 90
2, 144188, Note_off_c, 0, 71, 0
2, 144192, Note_on_c, 0, 73, 60
2, 144380, Note_off_c, 0, 68, 0
2, 144380, Note_off_c, 0, 73, 0
2, 144384, Note_on_c, 0, 71, 75
2, 144572, Note_off_c, 0, 71, 0
2, 144576, Note_on_c, 0, 69, 75
2, 144764, Note_off_c, 0, 69, 0
2, 144768, Note_on_c, 0, 69, 75
2, 145148, Note_off_c, 0, 69, 0
2, 145152, Note_on_c, 0, 71, 90
2, 145152, Note_on_c, 0, 68, 90
2, 145724, Note_off_c, 0, 71, 0
2, 145728, Note_on_c, 0, 73, 60
2, 145916, Note_off_c, 0, 68, 0
2, 145916, Note_off_c, 0, 73, 0
2, 145920, Note_on_c, 0, 69, 75
2, 146300, Note_off_c, 0, 69, 0
2, 146688, Note_on_c, 0, 76, 60
2, 146876, Note_off_c, 0, 76, 0
2, 146880, Note_on_c, 0, 75, 60
2, 147068, Note_off_c, 0, 75, 0
2, 147072, Note_on_c, 0, 76, 60
2, 147260, Note_off_c, 0, 76, 0
2, 147264, Note_on_c, 0, 78, 60
2, 147452, Note_off_c, 0, 78, 0
2, 147456, Note_on_c, 0, 76, 75
2, 147644, Note_off_c, 0, 76, 0
2, 147648, Note_on_c, 0, 74, 75
2, 147836, Note_off_c, 0, 74, 0
2, 147840, Note_on_c, 0, 73, 75
2, 148028, Note_off_c, 0, 73, 0
2, 148032, Note_on_c, 0, 71, 75
2, 148220, Note_off_c, 0, 71, 0
2, 148224, Note_on_c, 0, 70, 75
2, 148224, Note_on_c, 0, 68, 75
2, 148224, Note_on_c, 0, 64, 75
2, 148412, Note_off_c, 0, 70, 0
2, 148416, Note_on_c, 0, 71, 75
2, 148604, Note_off_c, 0, 68, 0
2, 148604, Note_off_c, 0, 64, 0
2, 148604, Note_off_c, 0, 71, 0
2, 148608, Note_on_c, 0, 73, 75
2, 148608, Note_on_c, 0, 68, 75
2, 148608, Note_on_c, 0, 64, 75
2, 148796, Note_off_c, 0, 73, 0
2, 148800, Note_on_c, 0, 70, 75
2, 148988, Note_off_c, 0, 68, 0
2, 148988, Note_off_c, 0, 64, 0
2, 148988, Note_off_c, 0, 70, 0
2, 148992, Note_on_c, 0, 71, 75
2, 148992, Note_on_c, 0, 66, 75
2, 148992, Note_on_c, 0, 62, 75
2, 149180, Note_off_c, 0, 71, 0
2, 149184, Note_on_c, 0, 70, 75
2, 149372, Note_off_c, 0, 66, 0
2, 149372, Note_off_c, 0, 62, 0
2, 149372, Note_off_c, 0, 70, 0
2, 149376, Note_on_c, 0, 71, 75
2, 149564, Note_off_c, 0, 71, 0
2, 149568, Note_on_c, 0, 73, 75
2, 149756, Note_off_c, 0, 73, 0
2, 149760, Note_on_c, 0, 74, 75
2, 149804, Note_off_c, 0, 74, 0
2, 149808, Note_on_c, 0, 76, 75
2, 149852, Note_off_c, 0, 76, 0
2, 149856, Note_on_c, 0, 74, 75
2, 149948, Note_off_c, 0, 74, 0
2, 149952, Note_on_c, 0, 73, 75
2, 150140, Note_off_c, 0, 73, 0
2, 150144, Note_on_c, 0, 74, 75
2, 150332, Note_off_c, 0, 74, 0
2, 150336, Note_on_c, 0, 76, 75
2, 150524, Note_off_c, 0, 76, 0
2, 150528, Note_on_c, 0, 74, 75
2, 150716, Note_off_c, 0, 74, 0
2, 150720, Note_on_c, 0, 73, 75
2, 150908, Note_off_c, 0, 73, 0
2, 150912, Note_on_c, 0, 71, 75
2, 151100, Note_off_c, 0, 71, 0
2, 151104, Note_on_c, 0, 69, 75
2, 151292, Note_off_c, 0, 69, 0
2, 151296, Note_on_c, 0, 68, 75
2, 151296, Note_on_c, 0, 66, 75
2, 151296, Note_on_c, 0, 62, 75
2, 151484, Note_off_c, 0, 68, 0
2, 151488, Note_on_c, 0, 69, 75
2, 151676, Note_off_c, 0, 66, 0
2, 151676, Note_off_c, 0, 62, 0
2, 151676, Note_off_c, 0, 69, 0
2, 151680, Note_on_c, 0, 71, 75
2, 151680, Note_on_c, 0, 66, 75
2, 151680, Note_on_c, 0, 62, 75
2, 151868, Note_off_c, 0, 71, 0
2, 151872, Note_on_c, 0, 68, 75
2, 152060, Note_off_c, 0, 66, 0
2, 152060, Note_off_c, 0, 62, 0
2, 152060, Note_off_c, 0, 68, 0
2, 152064, Note_on_c, 0, 69, 75
2, 152064, Note_on_c, 0, 64, 75
2, 152064, Note_on_c, 0, 61, 75
2, 152252, Note_off_c, 0, 69, 0
2, 152256, Note_on_c, 0, 73, 75
2, 152444, Note_off_c, 0, 64, 0
2, 152444, Note_off_c, 0, 61, 0
2, 152444, Note_off_c, 0, 73, 0
2, 152448, Note_on_c, 0, 76, 75
2, 152636, Note_off_c, 0, 76, 0
2, 152640, Note_on_c, 0, 73, 75
2, 152828, Note_off_c, 0, 73, 0
2, 152832, Note_on_c, 0, 81, 90
2, 152832, Note_on_c, 0, 73, 90
2, 153404, Note_off_c, 0, 81, 0
2, 153404, Note_off_c, 0, 73, 0
2, 153408, Note_on_c, 0, 80, 60
2, 153408, Note_on_c, 0, 76, 60
2, 153596, Note_off_c, 0, 80, 0
2, 153596, Note_off_c, 0, 76, 0
2, 153600, Note_on_c, 0, 80, 75
2, 153600, Note_on_c, 0, 76, 75
2, 153788, Note_off_c, 0, 80, 0
2, 153788, Note_off_c, 0, 76, 0
2, 153792, Note_on_c, 0, 78, 75
2, 153792, Note_on_c, 0, 74, 75
2, 153980, Note_off_c, 0, 78, 0
2, 153980, Note_off_c, 0, 74, 0
2, 153984, Note_on_c, 0, 78, 75
2, 153984, Note_on_c, 0, 74, 75
2, 154172, Note_off_c, 0, 78, 0
2, 154172, Note_off_c, 0, 74, 0
2, 154176, Note_on_c, 0, 76, 75
2, 154176, Note_on_c, 0, 73, 75
2, 154364, Note_off_c, 0, 76, 0
2, 154364, Note_off_c, 0, 73, 0
2, 154368, Note_on_c, 0, 76, 75
2, 154368, Note_on_c, 0, 73, 75
2, 154556, Note_off_c, 0, 76, 0
2, 154556, Note_off_c, 0, 73, 0
2, 154560, Note_on_c, 0, 74, 75
2, 154560, Note_on_c, 0, 71, 75
2, 154748, Note_off_c, 0, 74, 0
2, 154748, Note_off_c, 0, 71, 0
2, 154752, Note_on_c, 0, 74, 75
2, 154752, Note_on_c, 0, 71, 75
2, 154940, Note_off_c, 0, 74, 0
2, 154940, Note_off_c, 0, 71, 0
2, 154944, Note_on_c, 0, 73, 75
2, 154944, Note_on_c, 0, 69, 75
2, 155132, Note_off_c, 0, 73, 0
2, 155132, Note_off_c, 0, 69, 0
2, 155136, Note_on_c, 0, 73, 75
2, 155136, Note_on_c, 0, 69, 75
2, 155324, Note_off_c, 0, 73, 0
2, 155324, Note_off_c, 0, 69, 0
2, 155328, Note_on_c, 0, 71, 75
2, 155328, Note_on_c, 0, 68, 75
2, 155516, Note_off_c, 0, 71, 0
2, 155516, Note_off_c, 0, 68, 0
2, 155520, Note_on_c, 0, 69, 75
2, 155900, Note_off_c, 0, 69, 0
2, 155904, Note_on_c, 0, 71, 90
2, 155904, Note_on_c, 0, 68, 90
2, 156476, Note_off_c, 0, 71, 0
2, 156480, Note_on_c, 0, 73, 60
2, 156668, Note_off_c, 0, 68, 0
2, 156668, Note_off_c, 0, 73, 0
2, 156672, Note_on_c, 0, 71, 75
2, 156860, Note_off_c, 0, 71, 0
2, 156864, Note_on_c, 0, 69, 75
2, 157052, Note_off_c, 0, 69, 0
2, 157056, Note_on_c, 0, 69, 75
2, 157436, Note_off_c, 0, 69, 0
2, 157440, Note_on_c, 0, 71, 90
2, 157440, Note_on_c, 0, 68, 90
2, 158012, Note_off_c, 0, 71, 0
2, 158016, Note_on_c, 0, 73, 60
2, 158204, Note_off_c, 0, 68, 0
2, 158204, Note_off_c, 0, 73, 0
2, 158208, Note_on_c, 0, 69, 75
2, 158396, Note_off_c, 0, 69, 0
2, 158400, Note_on_c, 0, 64, 75
2, 158588, Note_off_c, 0, 64, 0
2, 158592, Note_on_c, 0, 69, 75
2, 158780, Note_off_c, 0, 69, 0
2, 158784, Note_on_c, 0, 71, 75
2, 158972, Note_off_c, 0, 71, 0
2, 158976, Key_signature, 0, "major"
2, 158976, Note_on_c, 0, 72, 60
2, 158976, Note_on_c, 0, 69, 60
2, 159548, Note_off_c, 0, 72, 0
2, 159548, Note_off_c, 0, 69, 0
2, 159552, Note_on_c, 0, 71, 60
2, 159552, Note_on_c, 0, 68, 60
2, 159740, Note_off_c, 0, 71, 0
2, 159740, Note_off_c, 0, 68, 0
2, 159744, Note_on_c, 0, 64, 75
2, 159744, Note_on_c, 0, 69, 75
2, 160316, Note_off_c, 0, 69, 0
2, 160508, Note_off_c, 0, 64, 0
2, 160512, Note_on_c, 0, 64, 75
2, 160512, Note_on_c, 0, 69, 75
2, 161084, Note_off_c, 0, 69, 0
2, 161088, Note_on_c, 0, 71, 75
2, 161276, Note_off_c, 0, 64, 0
2, 161276, Note_off_c, 0, 71, 0
2, 161280, Note_on_c, 0, 74, 75
2, 161280, Note_on_c, 0, 69, 75
2, 161468, Note_off_c, 0, 74, 0
2, 161472, Note_on_c, 0, 72, 75
2, 161660, Note_off_c, 0, 69, 0
2, 161660, Note_off_c, 0, 72, 0
2, 161664, Note_on_c, 0, 71, 75
2, 161664, Note_on_c, 0, 68, 75
2, 162044, Note_off_c, 0, 71, 0
2, 162044, Note_off_c, 0, 68, 0
2, 162048, Note_on_c, 0, 74, 60
2, 162048, Note_on_c, 0, 69, 60
2, 162620, Note_off_c, 0, 74, 0
2, 162624, Note_on_c, 0, 72, 60
2, 162812, Note_off_c, 0, 69, 0
2, 162812, Note_off_c, 0, 72, 0
2, 162816, Note_on_c, 0, 77, 75
2, 162816, Note_on_c, 0, 69, 75
2, 163388, Note_off_c, 0, 77, 0
2, 163392, Note_on_c, 0, 76, 75
2, 163580, Note_off_c, 0, 69, 0
2, 163580, Note_off_c, 0, 76, 0
2, 163584, Note_on_c, 0, 74, 75
2, 163584, Note_on_c, 0, 68, 75
2, 164156, Note_off_c, 0, 74, 0
2, 164156, Note_off_c, 0, 68, 0
2, 164160, Note_on_c, 0, 72, 75
2, 164160, Note_on_c, 0, 69, 75
2, 164348, Note_off_c, 0, 72, 0
2, 164348, Note_off_c, 0, 69, 0
2, 164352, Note_on_c, 0, 72, 75
2, 164352, Note_on_c, 0, 68, 75
2, 164540, Note_off_c, 0, 72, 0
2, 164544, Note_on_c, 0, 71, 75
2, 164732, Note_off_c, 0, 68, 0
2, 164732, Note_off_c, 0, 71, 0
2, 164736, Note_on_c, 0, 68, 75
2, 164924, Note_off_c, 0, 68, 0
2, 164928, Note_on_c, 0, 64, 75
2, 165116, Note_off_c, 0, 64, 0
2, 165120, Note_on_c, 0, 72, 60
2, 165120, Note_on_c, 0, 69, 60
2, 165692, Note_off_c, 0, 72, 0
2, 165692, Note_off_c, 0, 69, 0
2, 165696, Note_on_c, 0, 71, 60
2, 165696, Note_on_c, 0, 68, 60
2, 165884, Note_off_c, 0, 71, 0
2, 165884, Note_off_c, 0, 68, 0
2, 165888, Note_on_c, 0, 69, 75
2, 165888, Note_on_c, 0, 64, 75
2, 166460, Note_off_c, 0, 69, 0
2, 166464, Note_on_c, 0, 68, 75
2, 166652, Note_off_c, 0, 64, 0
2, 166652, Note_off_c, 0, 68, 0
2, 166656, Note_on_c, 0, 69, 75
2, 166656, Note_on_c, 0, 64, 75
2, 167228, Note_off_c, 0, 69, 0
2, 167232, Note_on_c, 0, 71, 75
2, 167420, Note_off_c, 0, 64, 0
2, 167420, Note_off_c, 0, 71, 0
2, 167424, Note_on_c, 0, 74, 75
2, 167424, Note_on_c, 0, 69, 75
2, 167612, Note_off_c, 0, 74, 0
2, 167616, Note_on_c, 0, 72, 75
2, 167804, Note_off_c, 0, 69, 0
2, 167804, Note_off_c, 0, 72, 0
2, 167808, Note_on_c, 0, 71, 75
2, 167808, Note_on_c, 0, 68, 75
2, 168188, Note_off_c, 0, 71, 0
2, 168188, Note_off_c, 0, 68, 0
2, 168192, Note_on_c, 0, 77, 82
2, 168192, Note_on_c, 0, 69, 82
2, 168764, Note_off_c, 0, 77, 0
2, 168768, Note_on_c, 0, 76, 82
2, 168956, Note_off_c, 0, 69, 0
2, 168956, Note_off_c, 0, 76, 0
2, 168960, Note_on_c, 0, 74, 75
2, 168960, Note_on_c, 0, 69, 75
2, 169532, Note_off_c, 0, 74, 0
2, 169536, Note_on_c, 0, 72, 75
2, 169724, Note_off_c, 0, 69, 0
2, 169724, Note_off_c, 0, 72, 0
2, 169728, Note_on_c, 0, 72, 75
2, 169916, Note_off_c, 0, 72, 0
2, 169920, Note_on_c, 0, 71, 75
2, 170108, Note_off_c, 0, 71, 0
2, 170112, Note_on_c, 0, 69, 75
2, 170300, Note_off_c, 0, 69, 0
2, 170304, Note_on_c, 0, 68, 75
2, 170492, Note_off_c, 0, 68, 0
2, 170496, Note_on_c, 0, 69, 75
2, 170684, Note_off_c, 0, 69, 0
2, 170688, Note_on_c, 0, 73, 75
2, 170876, Note_off_c, 0, 73, 0
2, 170880, Note_on_c, 0, 74, 75
2, 171068, Note_off_c, 0, 74, 0
2, 171072, Note_on_c, 0, 76, 75
2, 171260, Note_off_c, 0, 76, 0
2, 171264, Note_on_c, 0, 77, 90
2, 171264, Note_on_c, 0, 69, 90
2, 171836, Note_off_c, 0, 77, 0
2, 171840, Note_on_c, 0, 76, 60
2, 172028, Note_off_c, 0, 69, 0
2, 172028, Note_off_c, 0, 76, 0
2, 172032, Note_on_c, 0, 80, 90
2, 172032, Note_on_c, 0, 74, 90
2, 172604, Note_off_c, 0, 80, 0
2, 172604, Note_off_c, 0, 74, 0
2, 172608, Note_on_c, 0, 81, 60
2, 172608, Note_on_c, 0, 72, 60
2, 172796, Note_off_c, 0, 81, 0
2, 172796, Note_off_c, 0, 72, 0
2, 172800, Note_on_c, 0, 76, 75
2, 172800, Note_on_c, 0, 72, 75
2, 172988, Note_off_c, 0, 76, 0
2, 172988, Note_off_c, 0, 72, 0
2, 172992, Note_on_c, 0, 74, 75
2, 172992, Note_on_c, 0, 71, 75
2, 173180, Note_off_c, 0, 74, 0
2, 173180, Note_off_c, 0, 71, 0
2, 173184, Note_on_c, 0, 72, 75
2, 173184, Note_on_c, 0, 69, 75
2, 173372, Note_off_c, 0, 72, 0
2, 173372, Note_off_c, 0, 69, 0
2, 173376, Note_on_c, 0, 71, 75
2, 173376, Note_on_c, 0, 68, 75
2, 173564, Note_off_c, 0, 71, 0
2, 173564, Note_off_c, 0, 68, 0
2, 173568, Note_on_c, 0, 69, 75
2, 173756, Note_off_c, 0, 69, 0
2, 173760, Note_on_c, 0, 72, 75
2, 173948, Note_off_c, 0, 72, 0
2, 173952, Note_on_c, 0, 76, 75
2, 174140, Note_off_c, 0, 76, 0
2, 174144, Note_on_c, 0, 81, 75
2, 174332, Note_off_c, 0, 81, 0
2, 174336, Note_on_c, 0, 83, 90
2, 174528, Note_on_c, 0, 61, 60
2, 174716, Note_off_c, 0, 61, 0
2, 174720, Note_on_c, 0, 67, 60
2, 174908, Note_off_c, 0, 83, 0
2, 174908, Note_off_c, 0, 67, 0
2, 174912, Note_on_c, 0, 79, 60
2, 174912, Note_on_c, 0, 70, 60
2, 175100, Note_off_c, 0, 79, 0
2, 175100, Note_off_c, 0, 70, 0
2, 175104, Note_on_c, 0, 79, 75
2, 175292, Note_off_c, 0, 79, 0
2, 175296, Note_on_c, 0, 77, 75
2, 175296, Note_on_c, 0, 62, 75
2, 175484, Note_off_c, 0, 77, 0
2, 175484, Note_off_c, 0, 62, 0
2, 175488, Note_on_c, 0, 76, 75
2, 175488, Note_on_c, 0, 65, 75
2, 175676, Note_off_c, 0, 76, 0
2, 175676, Note_off_c, 0, 65, 0
2, 175680, Note_on_c, 0, 74, 75
2, 175680, Note_on_c, 0, 69, 75
2, 175868, Note_off_c, 0, 74, 0
2, 175868, Note_off_c, 0, 69, 0
2, 175872, Note_on_c, 0, 84, 90
2, 176064, Note_on_c, 0, 63, 60
2, 176252, Note_off_c, 0, 63, 0
2, 176256, Note_on_c, 0, 69, 60
2, 176444, Note_off_c, 0, 84, 0
2, 176444, Note_off_c, 0, 69, 0
2, 176448, Note_on_c, 0, 81, 60
2, 176448, Note_on_c, 0, 72, 60
2, 176636, Note_off_c, 0, 81, 0
2, 176636, Note_off_c, 0, 72, 0
2, 176640, Note_on_c, 0, 81, 75
2, 176828, Note_off_c, 0, 81, 0
2, 176832, Note_on_c, 0, 80, 75
2, 176832, Note_on_c, 0, 64, 75
2, 177020, Note_off_c, 0, 80, 0
2, 177020, Note_off_c, 0, 64, 0
2, 177024, Note_on_c, 0, 78, 75
2, 177024, Note_on_c, 0, 68, 75
2, 177212, Note_off_c, 0, 78, 0
2, 177212, Note_off_c, 0, 68, 0
2, 177216, Note_on_c, 0, 76, 75
2, 177216, Note_on_c, 0, 71, 75
2, 177404, Note_off_c, 0, 76, 0
2, 177404, Note_off_c, 0, 71, 0
2, 177408, Note_on_c, 0, 86, 90
2, 177408, Note_on_c, 0, 81, 60
2, 177980, Note_off_c, 0, 81, 0
2, 177984, Note_on_c, 0, 80, 60
2, 178172, Note_off_c, 0, 86, 0
2, 178172, Note_off_c, 0, 80, 0
2, 178176, Note_on_c, 0, 86, 60
2, 178176, Note_on_c, 0, 81, 60
2, 178748, Note_off_c, 0, 81, 0
2, 178752, Note_on_c, 0, 80, 60
2, 178940, Note_off_c, 0, 86, 0
2, 178940, Note_off_c, 0, 80, 0
2, 178944, Note_on_c, 0, 86, 90
2, 178944, Note_on_c, 0, 81, 60
2, 179516, Note_off_c, 0, 81, 0
2, 179520, Note_on_c, 0, 80, 60
2, 179708, Note_off_c, 0, 86, 0
2, 179708, Note_off_c, 0, 80, 0
2, 179712, Note_on_c, 0, 86, 90
2, 179712, Note_on_c, 0, 81, 60
2, 180284, Note_off_c, 0, 81, 0
2, 180288, Note_on_c, 0, 80, 60
2, 180476, Note_off_c, 0, 86, 0
2, 180476, Note_off_c, 0, 80, 0
2, 180672, Note_on_c, 0, 64, 60
2, 180864, Note_on_c, 0, 76, 60
2, 181052, Note_off_c, 0, 76, 0
2, 181056, Note_on_c, 0, 74, 60
2, 181244, Note_off_c, 0, 64, 0
2, 181244, Note_off_c, 0, 74, 0
2, 181440, Note_on_c, 0, 64, 75
2, 181632, Note_on_c, 0, 72, 75
2, 181820, Note_off_c, 0, 72, 0
2, 181824, Note_on_c, 0, 71, 75
2, 182012, Note_off_c, 0, 64, 0
2, 182012, Note_off_c, 0, 71, 0
2, 182208, Note_on_c, 0, 64, 75
2, 182400, Note_on_c, 0, 69, 75
2, 182588, Note_off_c, 0, 69, 0
2, 182592, Note_on_c, 0, 71, 75
2, 182780, Note_off_c, 0, 64, 0
2, 182780, Note_off_c, 0, 71, 0
2, 182976, Note_on_c, 0, 64, 75
2, 183168, Note_on_c, 0, 69, 75
2, 183356, Note_off_c, 0, 69, 0
2, 183360, Note_on_c, 0, 68, 75
2, 183548, Note_off_c, 0, 64, 0
2, 183548, Note_off_c, 0, 68, 0
2, 183552, Note_on_c, 0, 74, 75
2, 183552, Note_on_c, 0, 62, 75
2, 184124, Note_off_c, 0, 74, 0
2, 184124, Note_off_c, 0, 62, 0
2, 184128, Note_on_c, 0, 72, 75
2, 184128, Note_on_c, 0, 60, 75
2, 184316, Note_off_c, 0, 72, 0
2, 184316, Note_off_c, 0, 60, 0
2, 184320, Note_on_c, 0, 71, 75
2, 184320, Note_on_c, 0, 59, 75
2, 184892, Note_off_c, 0, 71, 0
2, 184892, Note_off_c, 0, 59, 0
2, 184896, Note_on_c, 0, 72, 75
2, 184896, Note_on_c, 0, 60, 75
2, 185084, Note_off_c, 0, 72, 0
2, 185084, Note_off_c, 0, 60, 0
2, 185088, Note_on_c, 0, 74, 75
2, 185088, Note_on_c, 0, 62, 75
2, 185660, Note_off_c, 0, 74, 0
2, 185660, Note_off_c, 0, 62, 0
2, 185664, Note_on_c, 0, 76, 75
2, 185664, Note_on_c, 0, 64, 75
2, 185852, Note_off_c, 0, 76, 0
2, 185852, Note_off_c, 0, 64, 0
2, 185856, Note_on_c, 0, 74, 75
2, 185856, Note_on_c, 0, 62, 75
2, 186236, Note_off_c, 0, 74, 0
2, 186236, Note_off_c, 0, 62, 0
2, 186240, Note_on_c, 0, 72, 75
2, 186240, Note_on_c, 0, 60, 75
2, 186620, Note_off_c, 0, 72, 0
2, 186620, Note_off_c, 0, 60, 0
2, 186624, Note_on_c, 0, 81, 90
2, 186624, Note_on_c, 0, 76, 90
2, 187196, Note_off_c, 0, 81, 0
2, 187196, Note_off_c, 0, 76, 0
2, 187200, Note_on_c, 0, 79, 90
2, 187200, Note_on_c, 0, 74, 90
2, 187388, Note_off_c, 0, 79, 0
2, 187388, Note_off_c, 0, 74, 0
2, 187392, Note_on_c, 0, 77, 75
2, 187392, Note_on_c, 0, 72, 75
2, 187964, Note_off_c, 0, 77, 0
2, 187964, Note_off_c, 0, 72, 0
2, 187968, Note_on_c, 0, 76, 75
2, 187968, Note_on_c, 0, 71, 75
2, 188156, Note_off_c, 0, 76, 0
2, 188156, Note_off_c, 0, 71, 0
2, 188160, Note_on_c, 0, 74, 75
2, 188160, Note_on_c, 0, 69, 75
2, 188732, Note_off_c, 0, 74, 0
2, 188732, Note_off_c, 0, 69, 0
2, 188736, Note_on_c, 0, 72, 75
2, 188736, Note_on_c, 0, 67, 75
2, 188924, Note_off_c, 0, 72, 0
2, 188928, Note_on_c, 0, 71, 75
2, 188928, Note_on_c, 0, 65, 75
2, 188932, Note_off_c, 0, 67, 0
2, 189500, Note_off_c, 0, 71, 0
2, 189500, Note_off_c, 0, 65, 0
2, 189504, Note_on_c, 0, 69, 75
2, 189504, Note_on_c, 0, 64, 75
2, 189692, Note_off_c, 0, 69, 0
2, 189692, Note_off_c, 0, 64, 0
2, 189696, Note_on_c, 0, 68, 75
2, 189884, Note_off_c, 0, 68, 0
2, 189888, Note_on_c, 0, 71, 75
2, 190076, Note_off_c, 0, 71, 0
2, 190080, Note_on_c, 0, 64, 75
2, 190268, Note_off_c, 0, 64, 0
2, 190272, Note_on_c, 0, 74, 75
2, 190460, Note_off_c, 0, 74, 0
2, 190464, Note_on_c, 0, 72, 75
2, 190652, Note_off_c, 0, 72, 0
2, 190656, Note_on_c, 0, 69, 75
2, 190844, Note_off_c, 0, 69, 0
2, 190848, Note_on_c, 0, 77, 75
2, 191036, Note_off_c, 0, 77, 0
2, 191040, Note_on_c, 0, 74, 75
2, 191228, Note_off_c, 0, 74, 0
2, 191232, Note_on_c, 0, 72, 75
2, 191232, Note_on_c, 0, 69, 75
2, 191232, Note_on_c, 0, 64, 75
2, 191612, Note_off_c, 0, 72, 0
2, 191612, Note_off_c, 0, 69, 0
2, 191612, Note_off_c, 0, 64, 0
2, 191616, Note_on_c, 0, 71, 75
2, 191616, Note_on_c, 0, 68, 75
2, 191616, Note_on_c, 0, 64, 75
2, 191996, Note_off_c, 0, 71, 0
2, 191996, Note_off_c, 0, 68, 0
2, 191996, Note_off_c, 0, 64, 0
2, 192000, Note_on_c, 0, 69, 75
2, 192380, Note_off_c, 0, 69, 0
2, 192768, Note_on_c, 0, 64, 75
2, 192956, Note_off_c, 0, 64, 0
2, 192960, Note_on_c, 0, 76, 75
2, 193148, Note_off_c, 0, 76, 0
2, 193152, Note_on_c, 0, 81, 75
2, 193340, Note_off_c, 0, 81, 0
2, 193344, Note_on_c, 0, 79, 75
2, 193532, Note_off_c, 0, 79, 0
2, 193536, Note_on_c, 0, 60, 75
2, 193724, Note_off_c, 0, 60, 0
2, 193728, Note_on_c, 0, 72, 75
2, 193916, Note_off_c, 0, 72, 0
2, 193920, Note_on_c, 0, 77, 75
2, 194108, Note_off_c, 0, 77, 0
2, 194112, Note_on_c, 0, 76, 75
2, 194300, Note_off_c, 0, 76, 0
2, 194304, Note_on_c, 0, 57, 75
2, 194492, Note_off_c, 0, 57, 0
2, 194496, Note_on_c, 0, 69, 75
2, 194684, Note_off_c, 0, 69, 0
2, 194688, Note_on_c, 0, 74, 75
2, 194876, Note_off_c, 0, 74, 0
2, 194880, Note_on_c, 0, 72, 75
2, 195068, Note_off_c, 0, 72, 0
2, 195072, Note_on_c, 0, 53, 75
2, 195260, Note_off_c, 0, 53, 0
2, 195264, Note_on_c, 0, 65, 75
2, 195452, Note_off_c, 0, 65, 0
2, 195456, Note_on_c, 0, 71, 75
2, 195644, Note_off_c, 0, 71, 0
2, 195648, Note_on_c, 0, 69, 75
2, 195836, Note_off_c, 0, 69, 0
2, 195840, Note_on_c, 0, 68, 75
2, 196028, Note_off_c, 0, 68, 0
2, 196032, Note_on_c, 0, 71, 75
2, 196220, Note_off_c, 0, 71, 0
2, 196224, Note_on_c, 0, 64, 75
2, 196412, Note_off_c, 0, 64, 0
2, 196416, Note_on_c, 0, 74, 75
2, 196604, Note_off_c, 0, 74, 0
2, 196608, Note_on_c, 0, 72, 75
2, 196796, Note_off_c, 0, 72, 0
2, 196800, Note_on_c, 0, 69, 75
2, 196988, Note_off_c, 0, 69, 0
2, 196992, Note_on_c, 0, 77, 75
2, 197180, Note_off_c, 0, 77, 0
2, 197184, Note_on_c, 0, 74, 75
2, 197372, Note_off_c, 0, 74, 0
2, 197376, Note_on_c, 0, 72, 75
2, 197376, Note_on_c, 0, 69, 75
2, 197376, Note_on_c, 0, 64, 75
2, 197756, Note_off_c, 0, 72, 0
2, 197756, Note_off_c, 0, 69, 0
2, 197756, Note_off_c, 0, 64, 0
2, 197760, Note_on_c, 0, 71, 75
2, 197760, Note_on_c, 0, 68, 75
2, 197760, Note_on_c, 0, 64, 75
2, 198140, Note_off_c, 0, 71, 0
2, 198140, Note_off_c, 0, 68, 0
2, 198140, Note_off_c, 0, 64, 0
2, 198144, Note_on_c, 0, 73, 90
2, 198336, Note_on_c, 0, 67, 60
2, 198524, Note_off_c, 0, 67, 0
2, 198528, Note_on_c, 0, 69, 60
2, 198716, Note_off_c, 0, 69, 0
2, 198720, Note_on_c, 0, 70, 60
2, 198908, Note_off_c, 0, 73, 0
2, 198908, Note_off_c, 0, 70, 0
2, 198912, Note_on_c, 0, 69, 75
2, 198912, Note_on_c, 0, 74, 75
2, 199100, Note_off_c, 0, 74, 0
2, 199104, Note_on_c, 0, 76, 75
2, 199292, Note_off_c, 0, 76, 0
2, 199296, Note_on_c, 0, 77, 75
2, 199484, Note_off_c, 0, 77, 0
2, 199488, Note_on_c, 0, 74, 75
2, 199676, Note_off_c, 0, 69, 0
2, 199676, Note_off_c, 0, 74, 0
2, 199680, Note_on_c, 0, 75, 90
2, 199872, Note_on_c, 0, 69, 60
2, 200060, Note_off_c, 0, 69, 0
2, 200064, Note_on_c, 0, 71, 60
2, 200252, Note_off_c, 0, 71, 0
2, 200256, Note_on_c, 0, 72, 60
2, 200444, Note_off_c, 0, 75, 0
2, 200444, Note_off_c, 0, 72, 0
2, 200448, Note_on_c, 0, 71, 75
2, 200448, Note_on_c, 0, 76, 75
2, 200636, Note_off_c, 0, 76, 0
2, 200640, Note_on_c, 0, 78, 75
2, 200828, Note_off_c, 0, 78, 0
2, 200832, Note_on_c, 0, 80, 75
2, 201020, Note_off_c, 0, 80, 0
2, 201024, Note_on_c, 0, 76, 75
2, 201212, Note_off_c, 0, 71, 0
2, 201212, Note_off_c, 0, 76, 0
2, 201216, Note_on_c, 0, 79, 90
2, 201408, Note_on_c, 0, 74, 90
2, 201596, Note_off_c, 0, 74, 0
2, 201600, Note_on_c, 0, 76, 90
2, 201788, Note_off_c, 0, 76, 0
2, 201792, Note_on_c, 0, 77, 90
2, 201980, Note_off_c, 0, 79, 0
2, 201980, Note_off_c, 0, 77, 0
2, 201984, Note_on_c, 0, 84, 75
2, 201984, Note_on_c, 0, 76, 75
2, 202172, Note_off_c, 0, 84, 0
2, 202172, Note_off_c, 0, 76, 0
2, 202176, Note_on_c, 0, 76, 75
2, 202364, Note_off_c, 0, 76, 0
2, 202368, Note_on_c, 0, 77, 75
2, 202556, Note_off_c, 0, 77, 0
2, 202560, Note_on_c, 0, 74, 75
2, 202748, Note_off_c, 0, 74, 0
2, 202752, Note_on_c, 0, 72, 75
2, 202940, Note_off_c, 0, 72, 0
2, 202944, Note_on_c, 0, 69, 75
2, 203132, Note_off_c, 0, 69, 0
2, 203136, Note_on_c, 0, 76, 75
2, 203324, Note_off_c, 0, 76, 0
2, 203328, Note_on_c, 0, 68, 75
2, 203516, Note_off_c, 0, 68, 0
2, 203520, Note_on_c, 0, 84, 60
2, 203712, Note_on_c, 0, 76, 60
2, 203900, Note_off_c, 0, 76, 0
2, 203904, Note_on_c, 0, 81, 60
2, 204092, Note_off_c, 0, 84, 0
2, 204092, Note_off_c, 0, 81, 0
2, 204096, Note_on_c, 0, 79, 60
2, 204096, Note_on_c, 0, 83, 60
2, 204284, Note_off_c, 0, 79, 0
2, 204284, Note_off_c, 0, 83, 0
2, 204288, Note_on_c, 0, 81, 75
2, 204480, Note_on_c, 0, 72, 75
2, 204668, Note_off_c, 0, 72, 0
2, 204672, Note_on_c, 0, 77, 75
2, 204860, Note_off_c, 0, 81, 0
2, 204860, Note_off_c, 0, 77, 0
2, 204864, Note_on_c, 0, 76, 75
2, 204864, Note_on_c, 0, 79, 75
2, 205052, Note_off_c, 0, 76, 0
2, 205052, Note_off_c, 0, 79, 0
2, 205056, Note_on_c, 0, 77, 75
2, 205248, Note_on_c, 0, 69, 75
2, 205436, Note_off_c, 0, 69, 0
2, 205440, Note_on_c, 0, 74, 75
2, 205628, Note_off_c, 0, 77, 0
2, 205628, Note_off_c, 0, 74, 0
2, 205632, Note_on_c, 0, 76, 75
2, 205632, Note_on_c, 0, 72, 75
2, 205820, Note_off_c, 0, 76, 0
2, 205820, Note_off_c, 0, 72, 0
2, 205824, Note_on_c, 0, 74, 75
2, 206016, Note_on_c, 0, 65, 75
2, 206204, Note_off_c, 0, 65, 0
2, 206208, Note_on_c, 0, 71, 75
2, 206396, Note_off_c, 0, 74, 0
2, 206396, Note_off_c, 0, 71, 0
2, 206400, Note_on_c, 0, 69, 75
2, 206400, Note_on_c, 0, 72, 75
2, 206588, Note_off_c, 0, 69, 0
2, 206588, Note_off_c, 0, 72, 0
2, 206592, Note_on_c, 0, 71, 75
2, 206972, Note_off_c, 0, 71, 0
2, 206976, Note_on_c, 0, 77, 90
2, 206976, Note_on_c, 0, 71, 90
2, 206976, Note_on_c, 0, 65, 90
2, 207356, Note_off_c, 0, 77, 0
2, 207356, Note_off_c, 0, 71, 0
2, 207356, Note_off_c, 0, 65, 0
2, 207360, Note_on_c, 0, 76, 75
2, 207360, Note_on_c, 0, 72, 75
2, 207360, Note_on_c, 0, 69, 75
2, 207740, Note_off_c, 0, 76, 0
2, 207740, Note_off_c, 0, 72, 0
2, 207740, Note_off_c, 0, 69, 0
2, 207744, Note_on_c, 0, 59, 75
2, 207744, Note_on_c, 0, 68, 75
2, 207744, Note_on_c, 0, 64, 75
2, 207932, Note_off_c, 0, 59, 0
2, 207932, Note_off_c, 0, 68, 0
2, 208124, Note_off_c, 0, 64, 0
2, 208128, Note_on_c, 0, 84, 60
2, 208320, Note_on_c, 0, 76, 60
2, 208508, Note_off_c, 0, 76, 0
2, 208512, Note_on_c, 0, 81, 60
2, 208700, Note_off_c, 0, 84, 0
2, 208700, Note_off_c, 0, 81, 0
2, 208704, Note_on_c, 0, 79, 60
2, 208704, Note_on_c, 0, 83, 60
2, 208892, Note_off_c, 0, 79, 0
2, 208892, Note_off_c, 0, 83, 0
2, 208896, Note_on_c, 0, 81, 75
2, 209088, Note_on_c, 0, 72, 75
2, 209276, Note_off_c, 0, 72, 0
2, 209280, Note_on_c, 0, 77, 75
2, 209468, Note_off_c, 0, 81, 0
2, 209468, Note_off_c, 0, 77, 0
2, 209472, Note_on_c, 0, 76, 75
2, 209472, Note_on_c, 0, 79, 75
2, 209660, Note_off_c, 0, 76, 0
2, 209660, Note_off_c, 0, 79, 0
2, 209664, Note_on_c, 0, 77, 75
2, 209856, Note_on_c, 0, 69, 75
2, 210044, Note_off_c, 0, 69, 0
2, 210048, Note_on_c, 0, 74, 75
2, 210236, Note_off_c, 0, 77, 0
2, 210236, Note_off_c, 0, 74, 0
2, 210240, Note_on_c, 0, 72, 75
2, 210240, Note_on_c, 0, 76, 75
2, 210428, Note_off_c, 0, 72, 0
2, 210428, Note_off_c, 0, 76, 0
2, 210432, Note_on_c, 0, 74, 75
2, 210624, Note_on_c, 0, 65, 75
2, 210812, Note_off_c, 0, 65, 0
2, 210816, Note_on_c, 0, 71, 75
2, 211004, Note_off_c, 0, 74, 0
2, 211004, Note_off_c, 0, 71, 0
2, 211008, Note_on_c, 0, 69, 75
2, 211008, Note_on_c, 0, 72, 75
2, 211196, Note_off_c, 0, 69, 0
2, 211196, Note_off_c, 0, 72, 0
2, 211200, Note_on_c, 0, 71, 90
2, 211580, Note_off_c, 0, 71, 0
2, 211584, Note_on_c, 0, 77, 90
2, 211584, Note_on_c, 0, 71, 90
2, 211584, Note_on_c, 0, 65, 90
2, 211964, Note_off_c, 0, 77, 0
2, 211964, Note_off_c, 0, 71, 0
2, 211964, Note_off_c, 0, 65, 0
2, 211968, Note_on_c, 0, 76, 75
2, 211968, Note_on_c, 0, 72, 75
2, 211968, Note_on_c, 0, 69, 75
2, 212348, Note_off_c, 0, 76, 0
2, 212348, Note_off_c, 0, 72, 0
2, 212348, Note_off_c, 0, 69, 0
2, 212352, Note_on_c, 0, 68, 75
2, 212352, Note_on_c, 0, 64, 75
2, 212352, Note_on_c, 0, 59, 75
2, 212732, Note_off_c, 0, 68, 0
2, 212732, Note_off_c, 0, 64, 0
2, 212732, Note_off_c, 0, 59, 0
2, 212736, Note_on_c, 0, 69, 75
2, 212924, Note_off_c, 0, 69, 0
2, 212928, Note_on_c, 0, 64, 75
2, 213116, Note_off_c, 0, 64, 0
2, 213120, Note_on_c, 0, 72, 75
2, 213308, Note_off_c, 0, 72, 0
2, 213312, Note_on_c, 0, 69, 75
2, 213500, Note_off_c, 0, 69, 0
2, 213504, Note_on_c, 0, 76, 82
2, 213692, Note_off_c, 0, 76, 0
2, 213696, Note_on_c, 0, 72, 82
2, 213884, Note_off_c, 0, 72, 0
2, 213888, Note_on_c, 0, 71, 82
2, 214076, Note_off_c, 0, 71, 0
2, 214080, Note_on_c, 0, 68, 82
2, 214268, Note_off_c, 0, 68, 0
2, 214272, Note_on_c, 0, 69, 75
2, 214460, Note_off_c, 0, 69, 0
2, 214464, Note_on_c, 0, 76, 75
2, 214464, Note_on_c, 0, 64, 75
2, 214652, Note_off_c, 0, 76, 0
2, 214652, Note_off_c, 0, 64, 0
2, 214656, Note_on_c, 0, 76, 75
2, 214656, Note_on_c, 0, 64, 75
2, 214844, Note_off_c, 0, 76, 0
2, 214844, Note_off_c, 0, 64, 0
2, 214848, Note_on_c, 0, 76, 75
2, 214848, Note_on_c, 0, 64, 75
2, 215036, Note_off_c, 0, 76, 0
2, 215036, Note_off_c, 0, 64, 0
2, 215040, Note_on_c, 0, 76, 75
2, 215040, Note_on_c, 0, 64, 75
2, 215228, Note_off_c, 0, 76, 0
2, 215228, Note_off_c, 0, 64, 0
2, 215232, Note_on_c, 0, 76, 75
2, 215232, Note_on_c, 0, 64, 75
2, 215420, Note_off_c, 0, 76, 0
2, 215420, Note_off_c, 0, 64, 0
2, 215424, Note_on_c, 0, 76, 75
2, 215424, Note_on_c, 0, 64, 75
2, 215612, Note_off_c, 0, 76, 0
2, 215612, Note_off_c, 0, 64, 0
2, 215616, Note_on_c, 0, 76, 75
2, 215616, Note_on_c, 0, 64, 75
2, 215804, Note_off_c, 0, 76, 0
2, 215804, Note_off_c, 0, 64, 0
2, 215808, Note_on_c, 0, 76, 75
2, 215808, Note_on_c, 0, 64, 75
2, 216188, Note_off_c, 0, 76, 0
2, 216188, Note_off_c, 0, 64, 0
2, 216192, Note_on_c, 0, 81, 105
2, 216192, Note_on_c, 0, 76, 105
2, 216192, Note_on_c, 0, 72, 105
2, 216572, Note_off_c, 0, 81, 0
2, 216572, Note_off_c, 0, 76, 0
2, 216572, Note_off_c, 0, 72, 0
2, 216576, Note_on_c, 0, 84, 75
2, 216576, Note_on_c, 0, 81, 75
2, 216576, Note_on_c, 0, 76, 75
2, 216956, Note_off_c, 0, 84, 0
2, 216956, Note_off_c, 0, 81, 0
2, 216956, Note_off_c, 0, 76, 0
2, 216960, Note_on_c, 0, 83, 75
2, 216960, Note_on_c, 0, 79, 75
2, 216960, Note_on_c, 0, 76, 75
2, 216960, Note_on_c, 0, 74, 75
2, 217340, Note_off_c, 0, 83, 0
2, 217340, Note_off_c, 0, 79, 0
2, 217340, Note_off_c, 0, 76, 0
2, 217340, Note_off_c, 0, 74, 0
2, 217344, Note_on_c, 0, 81, 75
2, 217344, Note_on_c, 0, 76, 75
2, 217344, Note_on_c, 0, 72, 75
2, 217724, Note_off_c, 0, 81, 0
2, 217724, Note_off_c, 0, 76, 0
2, 217724, Note_off_c, 0, 72, 0
2, 217728, Note_on_c, 0, 69, 75
2, 217728, Note_on_c, 0, 64, 75
2, 217728, Note_on_c, 0, 60, 75
2, 218108, Note_off_c, 0, 69, 0
2, 218108, Note_off_c, 0, 64, 0
2, 218108, Note_off_c, 0, 60, 0
2, 218112, Note_on_c, 0, 69, 75
2, 218112, Note_on_c, 0, 64, 75
2, 218112, Note_on_c, 0, 60, 75
2, 218492, Note_off_c, 0, 69, 0
2, 218492, Note_off_c, 0, 64, 0
2, 218492, Note_off_c, 0, 60, 0
2, 218492, End_track
3, 0, Start_track
3, 0, Control_c, 1, 0, 0
3, 0, Program_c, 1, 0
3, 0, Control_c, 1, 10, 48
3, 0, Control_c, 1, 91, 92
3, 0, Control_c, 1, 93, 52
3, 0, Key_signature, 0, "major"
3, 0, Control_c, 1, 121, 0
3, 96, Control_c, 1, 10, 53
3, 144, Control_c, 1, 91, 63
3, 192, Control_c, 1, 93, 40
3, 288, Program_c, 1, 0
3, 960, Note_on_c, 1, 57, 60
3, 1152, Note_on_c, 1, 65, 60
3, 1340, Note_off_c, 1, 65, 0
3, 1344, Note_on_c, 1, 62, 60
3, 1532, Note_off_c, 1, 57, 0
3, 1532, Note_off_c, 1, 62, 0
3, 1728, Note_on_c, 1, 57, 75
3, 1920, Note_on_c, 1, 60, 75
3, 2108, Note_off_c, 1, 60, 0
3, 2112, Note_on_c, 1, 59, 75
3, 2300, Note_off_c, 1, 57, 0
3, 2300, Note_off_c, 1, 59, 0
3, 2496, Note_on_c, 1, 57, 75
3, 2684, Note_off_c, 1, 57, 0
3, 2688, Note_on_c, 1, 60, 75
3, 2876, Note_off_c, 1, 60, 0
3, 2880, Note_on_c, 1, 56, 75
3, 3068, Note_off_c, 1, 56, 0
3, 3264, Note_on_c, 1, 57, 75
3, 3452, Note_off_c, 1, 57, 0
3, 3456, Note_on_c, 1, 64, 75
3, 3644, Note_off_c, 1, 64, 0
3, 3648, Note_on_c, 1, 52, 75
3, 3836, Note_off_c, 1, 52, 0
3, 4032, Note_on_c, 1, 53, 60
3, 4220, Note_off_c, 1, 53, 0
3, 4224, Note_on_c, 1, 65, 60
3, 4412, Note_off_c, 1, 65, 0
3, 4416, Note_on_c, 1, 64, 60
3, 4604, Note_off_c, 1, 64, 0
3, 4800, Note_on_c, 1, 50, 75
3, 4988, Note_off_c, 1, 50, 0
3, 4992, Note_on_c, 1, 62, 75
3, 5180, Note_off_c, 1, 62, 0
3, 5184, Note_on_c, 1, 60, 75
3, 5372, Note_off_c, 1, 60, 0
3, 5568, Note_on_c, 1, 47, 75
3, 5756, Note_off_c, 1, 47, 0
3, 5760, Note_on_c, 1, 59, 75
3, 5948, Note_off_c, 1, 59, 0
3, 5952, Note_on_c, 1, 57, 75
3, 6140, Note_off_c, 1, 57, 0
3, 6144, Note_on_c, 1, 64, 75
3, 6144, Note_on_c, 1, 52, 75
3, 6524, Note_off_c, 1, 64, 0
3, 6524, Note_off_c, 1, 52, 0
3, 6528, Note_on_c, 1, 52, 75
3, 6908, Note_off_c, 1, 52, 0
3, 7104, Note_on_c, 1, 57, 60
3, 7296, Note_on_c, 1, 64, 60
3, 7484, Note_off_c, 1, 64, 0
3, 7488, Note_on_c, 1, 62, 60
3, 7676, Note_off_c, 1, 57, 0
3, 7676, Note_off_c, 1, 62, 0
3, 7872, Note_on_c, 1, 57, 75
3, 8064, Note_on_c, 1, 60, 75
3, 8252, Note_off_c, 1, 60, 0
3, 8256, Note_on_c, 1, 59, 75
3, 8444, Note_off_c, 1, 57, 0
3, 8444, Note_off_c, 1, 59, 0
3, 8640, Note_on_c, 1, 57, 75
3, 8828, Note_off_c, 1, 57, 0
3, 8832, Note_on_c, 1, 60, 75
3, 9020, Note_off_c, 1, 60, 0
3, 9024, Note_on_c, 1, 56, 75
3, 9212, Note_off_c, 1, 56, 0
3, 9408, Note_on_c, 1, 57, 75
3, 9596, Note_off_c, 1, 57, 0
3, 9600, Note_on_c, 1, 64, 75
3, 9788, Note_off_c, 1, 64, 0
3, 9792, Note_on_c, 1, 52, 75
3, 9980, Note_off_c, 1, 52, 0
3, 10176, Note_on_c, 1, 50, 82
3, 10364, Note_off_c, 1, 50, 0
3, 10368, Note_on_c, 1, 62, 82
3, 10556, Note_off_c, 1, 62, 0
3, 10560, Note_on_c, 1, 60, 82
3, 10748, Note_off_c, 1, 60, 0
3, 10944, Note_on_c, 1, 53, 75
3, 11132, Note_off_c, 1, 53, 0
3, 11136, Note_on_c, 1, 65, 75
3, 11324, Note_off_c, 1, 65, 0
3, 11328, Note_on_c, 1, 64, 75
3, 11516, Note_off_c, 1, 64, 0
3, 11520, Note_on_c, 1, 62, 75
3, 11900, Note_off_c, 1, 62, 0
3, 11904, Note_on_c, 1, 64, 75
3, 12284, Note_off_c, 1, 64, 0
3, 12288, Note_on_c, 1, 65, 75
3, 12668, Note_off_c, 1, 65, 0
3, 13248, Note_on_c, 1, 50, 90
3, 13436, Note_off_c, 1, 50, 0
3, 13440, Note_on_c, 1, 62, 60
3, 13628, Note_off_c, 1, 62, 0
3, 13632, Note_on_c, 1, 60, 60
3, 13820, Note_off_c, 1, 60, 0
3, 14016, Note_on_c, 1, 47, 90
3, 14204, Note_off_c, 1, 47, 0
3, 14208, Note_on_c, 1, 59, 60
3, 14396, Note_off_c, 1, 59, 0
3, 14400, Note_on_c, 1, 57, 60
3, 14588, Note_off_c, 1, 57, 0
3, 14592, Note_on_c, 1, 60, 75
3, 14972, Note_off_c, 1, 60, 0
3, 14976, Note_on_c, 1, 64, 75
3, 15356, Note_off_c, 1, 64, 0
3, 15360, Note_on_c, 1, 57, 75
3, 15740, Note_off_c, 1, 57, 0
3, 16320, Note_on_c, 1, 53, 60
3, 16508, Note_off_c, 1, 53, 0
3, 16512, Note_on_c, 1, 60, 60
3, 16700, Note_off_c, 1, 60, 0
3, 16704, Note_on_c, 1, 65, 60
3, 16892, Note_off_c, 1, 65, 0
3, 17088, Note_on_c, 1, 55, 75
3, 17276, Note_off_c, 1, 55, 0
3, 17280, Note_on_c, 1, 60, 75
3, 17468, Note_off_c, 1, 60, 0
3, 17472, Note_on_c, 1, 64, 75
3, 17660, Note_off_c, 1, 64, 0
3, 17856, Note_on_c, 1, 53, 75
3, 18044, Note_off_c, 1, 53, 0
3, 18048, Note_on_c, 1, 57, 75
3, 18236, Note_off_c, 1, 57, 0
3, 18240, Note_on_c, 1, 60, 75
3, 18428, Note_off_c, 1, 60, 0
3, 18624, Note_on_c, 1, 52, 75
3, 18812, Note_off_c, 1, 52, 0
3, 18816, Note_on_c, 1, 55, 75
3, 19004, Note_off_c, 1, 55, 0
3, 19008, Note_on_c, 1, 60, 75
3, 19196, Note_off_c, 1, 60, 0
3, 24000, Note_on_c, 1, 60, 75
3, 24188, Note_off_c, 1, 60, 0
3, 24192, Note_on_c, 1, 63, 75
3, 24380, Note_off_c, 1, 63, 0
3, 24384, Note_on_c, 1, 56, 75
3, 24572, Note_off_c, 1, 56, 0
3, 24768, Note_on_c, 1, 55, 75
3, 24956, Note_off_c, 1, 55, 0
3, 24960, Note_on_c, 1, 54, 75
3, 25148, Note_off_c, 1, 54, 0
3, 25152, Note_on_c, 1, 55, 75
3, 25340, Note_off_c, 1, 55, 0
3, 25536, Note_on_c, 1, 55, 60
3, 25728, Note_on_c, 1, 59, 60
3, 25916, Note_off_c, 1, 59, 0
3, 25920, Note_on_c, 1, 60, 60
3, 26108, Note_off_c, 1, 55, 0
3, 26108, Note_off_c, 1, 60, 0
3, 26304, Note_on_c, 1, 55, 75
3, 26496, Note_on_c, 1, 65, 75
3, 26684, Note_off_c, 1, 65, 0
3, 26688, Note_on_c, 1, 64, 75
3, 26876, Note_off_c, 1, 55, 0
3, 26876, Note_off_c, 1, 64, 0
3, 27072, Note_on_c, 1, 62, 75
3, 27260, Note_off_c, 1, 62, 0
3, 27264, Note_on_c, 1, 59, 75
3, 27452, Note_off_c, 1, 59, 0
3, 27456, Note_on_c, 1, 55, 75
3, 27644, Note_off_c, 1, 55, 0
3, 27840, Note_on_c, 1, 59, 75
3, 28028, Note_off_c, 1, 59, 0
3, 28032, Note_on_c, 1, 60, 75
3, 28220, Note_off_c, 1, 60, 0
3, 28224, Note_on_c, 1, 48, 75
3, 28412, Note_off_c, 1, 48, 0
3, 28416, Note_on_c, 1, 52, 90
3, 28604, Note_off_c, 1, 52, 0
3, 28608, Note_on_c, 1, 64, 90
3, 28796, Note_off_c, 1, 64, 0
3, 28800, Note_on_c, 1, 67, 90
3, 28988, Note_off_c, 1, 67, 0
3, 28992, Note_on_c, 1, 62, 90
3, 29180, Note_off_c, 1, 62, 0
3, 29184, Note_on_c, 1, 48, 75
3, 29372, Note_off_c, 1, 48, 0
3, 29376, Note_on_c, 1, 60, 75
3, 29564, Note_off_c, 1, 60, 0
3, 29568, Note_on_c, 1, 64, 75
3, 29756, Note_off_c, 1, 64, 0
3, 29760, Note_on_c, 1, 59, 75
3, 29948, Note_off_c, 1, 59, 0
3, 29952, Note_on_c, 1, 45, 75
3, 30140, Note_off_c, 1, 45, 0
3, 30144, Note_on_c, 1, 57, 75
3, 30332, Note_off_c, 1, 57, 0
3, 30336, Note_on_c, 1, 60, 75
3, 30524, Note_off_c, 1, 60, 0
3, 30528, Note_on_c, 1, 55, 75
3, 30716, Note_off_c, 1, 55, 0
3, 30720, Note_on_c, 1, 41, 75
3, 30908, Note_off_c, 1, 41, 0
3, 30912, Note_on_c, 1, 53, 75
3, 31100, Note_off_c, 1, 53, 0
3, 31104, Note_on_c, 1, 57, 75
3, 31292, Note_off_c, 1, 57, 0
3, 31296, Note_on_c, 1, 52, 75
3, 31484, Note_off_c, 1, 52, 0
3, 31488, Note_on_c, 1, 53, 75
3, 31868, Note_off_c, 1, 53, 0
3, 31872, Note_on_c, 1, 49, 75
3, 32252, Note_off_c, 1, 49, 0
3, 32256, Note_on_c, 1, 50, 75
3, 32636, Note_off_c, 1, 50, 0
3, 32832, Note_on_c, 1, 53, 75
3, 33020, Note_off_c, 1, 53, 0
3, 33024, Note_on_c, 1, 55, 60
3, 33404, Note_off_c, 1, 55, 0
3, 33408, Note_on_c, 1, 43, 60
3, 33788, Note_off_c, 1, 43, 0
3, 33792, Note_on_c, 1, 48, 75
3, 34172, Note_off_c, 1, 48, 0
3, 34176, Note_on_c, 1, 48, 90
3, 34364, Note_off_c, 1, 48, 0
3, 34560, Note_on_c, 1, 52, 75
3, 34748, Note_off_c, 1, 52, 0
3, 34752, Note_on_c, 1, 64, 75
3, 34940, Note_off_c, 1, 64, 0
3, 34944, Note_on_c, 1, 67, 75
3, 35132, Note_off_c, 1, 67, 0
3, 35136, Note_on_c, 1, 62, 75
3, 35324, Note_off_c, 1, 62, 0
3, 35328, Note_on_c, 1, 48, 75
3, 35516, Note_off_c, 1, 48, 0
3, 35520, Note_on_c, 1, 60, 75
3, 35708, Note_off_c, 1, 60, 0
3, 35712, Note_on_c, 1, 64, 75
3, 35900, Note_off_c, 1, 64, 0
3, 35904, Note_on_c, 1, 59, 75
3, 36092, Note_off_c, 1, 59, 0
3, 36096, Note_on_c, 1, 45, 75
3, 36284, Note_off_c, 1, 45, 0
3, 36288, Note_on_c, 1, 57, 75
3, 36476, Note_off_c, 1, 57, 0
3, 36480, Note_on_c, 1, 60, 75
3, 36668, Note_off_c, 1, 60, 0
3, 36672, Note_on_c, 1, 55, 75
3, 36860, Note_off_c, 1, 55, 0
3, 36864, Note_on_c, 1, 41, 75
3, 37052, Note_off_c, 1, 41, 0
3, 37056, Note_on_c, 1, 53, 75
3, 37244, Note_off_c, 1, 53, 0
3, 37248, Note_on_c, 1, 57, 75
3, 37436, Note_off_c, 1, 57, 0
3, 37440, Note_on_c, 1, 52, 75
3, 37628, Note_off_c, 1, 52, 0
3, 37632, Note_on_c, 1, 53, 75
3, 38012, Note_off_c, 1, 53, 0
3, 38016, Note_on_c, 1, 49, 75
3, 38396, Note_off_c, 1, 49, 0
3, 38400, Note_on_c, 1, 50, 75
3, 38588, Note_off_c, 1, 50, 0
3, 38592, Note_on_c, 1, 52, 75
3, 38780, Note_off_c, 1, 52, 0
3, 38784, Note_on_c, 1, 53, 75
3, 38972, Note_off_c, 1, 53, 0
3, 38976, Note_on_c, 1, 50, 75
3, 39164, Note_off_c, 1, 50, 0
3, 39168, Note_on_c, 1, 55, 75
3, 39356, Note_off_c, 1, 55, 0
3, 39360, Note_on_c, 1, 54, 75
3, 39548, Note_off_c, 1, 54, 0
3, 39552, Note_on_c, 1, 55, 75
3, 39740, Note_off_c, 1, 55, 0
3, 39744, Note_on_c, 1, 43, 75
3, 39932, Note_off_c, 1, 43, 0
3, 40128, Note_on_c, 1, 58, 75
3, 40316, Note_off_c, 1, 58, 0
3, 40320, Note_on_c, 1, 57, 75
3, 40508, Note_off_c, 1, 57, 0
3, 40512, Note_on_c, 1, 55, 75
3, 40700, Note_off_c, 1, 55, 0
3, 40704, Note_on_c, 1, 53, 90
3, 41084, Note_off_c, 1, 53, 0
3, 41088, Note_on_c, 1, 49, 90
3, 41468, Note_off_c, 1, 49, 0
3, 41472, Note_on_c, 1, 50, 75
3, 41660, Note_off_c, 1, 50, 0
3, 41664, Note_on_c, 1, 52, 75
3, 41852, Note_off_c, 1, 52, 0
3, 41856, Note_on_c, 1, 53, 75
3, 42044, Note_off_c, 1, 53, 0
3, 42048, Note_on_c, 1, 50, 75
3, 42236, Note_off_c, 1, 50, 0
3, 42240, Note_on_c, 1, 55, 75
3, 42428, Note_off_c, 1, 55, 0
3, 42432, Note_on_c, 1, 54, 75
3, 42620, Note_off_c, 1, 54, 0
3, 42624, Note_on_c, 1, 55, 75
3, 42812, Note_off_c, 1, 55, 0
3, 42816, Note_on_c, 1, 45, 75
3, 43004, Note_off_c, 1, 45, 0
3, 43200, Note_on_c, 1, 58, 60
3, 43388, Note_off_c, 1, 58, 0
3, 43392, Note_on_c, 1, 57, 60
3, 43580, Note_off_c, 1, 57, 0
3, 43584, Note_on_c, 1, 55, 60
3, 43772, Note_off_c, 1, 55, 0
3, 43776, Note_on_c, 1, 53, 75
3, 43964, Note_off_c, 1, 53, 0
3, 43968, Note_on_c, 1, 52, 75
3, 44156, Note_off_c, 1, 52, 0
3, 44160, Note_on_c, 1, 50, 75
3, 44348, Note_off_c, 1, 50, 0
3, 44352, Note_on_c, 1, 53, 75
3, 44540, Note_off_c, 1, 53, 0
3, 44736, Note_on_c, 1, 60, 60
3, 44924, Note_off_c, 1, 60, 0
3, 44928, Note_on_c, 1, 59, 60
3, 45116, Note_off_c, 1, 59, 0
3, 45120, Note_on_c, 1, 57, 60
3, 45308, Note_off_c, 1, 57, 0
3, 45312, Note_on_c, 1, 55, 75
3, 45500, Note_off_c, 1, 55, 0
3, 45504, Note_on_c, 1, 54, 75
3, 45692, Note_off_c, 1, 54, 0
3, 45696, Note_on_c, 1, 52, 75
3, 45884, Note_off_c, 1, 52, 0
3, 45888, Note_on_c, 1, 55, 75
3, 46076, Note_off_c, 1, 55, 0
3, 46080, Note_on_c, 1, 57, 90
3, 46268, Note_off_c, 1, 57, 0
3, 46272, Note_on_c, 1, 45, 90
3, 46460, Note_off_c, 1, 45, 0
3, 46464, Note_on_c, 1, 57, 90
3, 46652, Note_off_c, 1, 57, 0
3, 46656, Note_on_c, 1, 59, 90
3, 46844, Note_off_c, 1, 59, 0
3, 46848, Note_on_c, 1, 60, 72
3, 47036, Note_off_c, 1, 60, 0
3, 47040, Note_on_c, 1, 48, 69
3, 47228, Note_off_c, 1, 48, 0
3, 47232, Note_on_c, 1, 60, 66
3, 47420, Note_off_c, 1, 60, 0
3, 47424, Note_on_c, 1, 59, 63
3, 47612, Note_off_c, 1, 59, 0
3, 47616, Note_on_c, 1, 59, 75
3, 47804, Note_off_c, 1, 59, 0
3, 47808, Note_on_c, 1, 45, 75
3, 47996, Note_off_c, 1, 45, 0
3, 48000, Note_on_c, 1, 57, 75
3, 48188, Note_off_c, 1, 57, 0
3, 48192, Note_on_c, 1, 58, 75
3, 48380, Note_off_c, 1, 58, 0
3, 48384, Note_on_c, 1, 59, 75
3, 48764, Note_off_c, 1, 59, 0
3, 49152, Note_on_c, 1, 55, 90
3, 49152, Note_on_c, 1, 43, 90
3, 49724, Note_off_c, 1, 55, 0
3, 49724, Note_off_c, 1, 43, 0
3, 49728, Note_on_c, 1, 54, 90
3, 49728, Note_on_c, 1, 42, 90
3, 49916, Note_off_c, 1, 54, 0
3, 49916, Note_off_c, 1, 42, 0
3, 49920, Note_on_c, 1, 52, 75
3, 49920, Note_on_c, 1, 40, 75
3, 50492, Note_off_c, 1, 52, 0
3, 50492, Note_off_c, 1, 40, 0
3, 50496, Note_on_c, 1, 51, 75
3, 50496, Note_on_c, 1, 39, 75
3, 50684, Note_off_c, 1, 51, 0
3, 50684, Note_off_c, 1, 39, 0
3, 50688, Note_on_c, 1, 52, 75
3, 50688, Note_on_c, 1, 40, 75
3, 51260, Note_off_c, 1, 52, 0
3, 51260, Note_off_c, 1, 40, 0
3, 51264, Note_on_c, 1, 54, 75
3, 51264, Note_on_c, 1, 42, 75
3, 51452, Note_off_c, 1, 54, 0
3, 51452, Note_off_c, 1, 42, 0
3, 51456, Note_on_c, 1, 52, 75
3, 51456, Note_on_c, 1, 40, 75
3, 52028, Note_off_c, 1, 52, 0
3, 52028, Note_off_c, 1, 40, 0
3, 52032, Note_on_c, 1, 51, 75
3, 52032, Note_on_c, 1, 39, 75
3, 52220, Note_off_c, 1, 51, 0
3, 52220, Note_off_c, 1, 39, 0
3, 52224, Note_on_c, 1, 54, 75
3, 52224, Note_on_c, 1, 42, 75
3, 52796, Note_off_c, 1, 54, 0
3, 52796, Note_off_c, 1, 42, 0
3, 52800, Note_on_c, 1, 52, 75
3, 52800, Note_on_c, 1, 40, 75
3, 52988, Note_off_c, 1, 52, 0
3, 52988, Note_off_c, 1, 40, 0
3, 52992, Note_on_c, 1, 51, 75
3, 52992, Note_on_c, 1, 39, 75
3, 53564, Note_off_c, 1, 51, 0
3, 53564, Note_off_c, 1, 39, 0
3, 53568, Note_on_c, 1, 52, 75
3, 53568, Note_on_c, 1, 40, 75
3, 53756, Note_off_c, 1, 52, 0
3, 53756, Note_off_c, 1, 40, 0
3, 53760, Note_on_c, 1, 54, 75
3, 53760, Note_on_c, 1, 42, 75
3, 54332, Note_off_c, 1, 54, 0
3, 54332, Note_off_c, 1, 42, 0
3, 54336, Note_on_c, 1, 55, 75
3, 54336, Note_on_c, 1, 43, 75
3, 54524, Note_off_c, 1, 55, 0
3, 54524, Note_off_c, 1, 43, 0
3, 54528, Note_on_c, 1, 54, 75
3, 54528, Note_on_c, 1, 42, 75
3, 55100, Note_off_c, 1, 54, 0
3, 55100, Note_off_c, 1, 42, 0
3, 55104, Note_on_c, 1, 52, 75
3, 55104, Note_on_c, 1, 40, 75
3, 55292, Note_off_c, 1, 52, 0
3, 55292, Note_off_c, 1, 40, 0
3, 55296, Note_on_c, 1, 59, 75
3, 55296, Note_on_c, 1, 55, 75
3, 55868, Note_off_c, 1, 59, 0
3, 55868, Note_off_c, 1, 55, 0
3, 55872, Note_on_c, 1, 57, 75
3, 55872, Note_on_c, 1, 54, 75
3, 56060, Note_off_c, 1, 57, 0
3, 56060, Note_off_c, 1, 54, 0
3, 56064, Note_on_c, 1, 55, 75
3, 56064, Note_on_c, 1, 52, 75
3, 56636, Note_off_c, 1, 55, 0
3, 56636, Note_off_c, 1, 52, 0
3, 56640, Note_on_c, 1, 54, 75
3, 56640, Note_on_c, 1, 50, 75
3, 56828, Note_off_c, 1, 54, 0
3, 56828, Note_off_c, 1, 50, 0
3, 56832, Note_on_c, 1, 52, 75
3, 56832, Note_on_c, 1, 48, 75
3, 57404, Note_off_c, 1, 52, 0
3, 57404, Note_off_c, 1, 48, 0
3, 57408, Note_on_c, 1, 50, 75
3, 57408, Note_on_c, 1, 47, 75
3, 57596, Note_off_c, 1, 50, 0
3, 57596, Note_off_c, 1, 47, 0
3, 57600, Note_on_c, 1, 48, 75
3, 57600, Note_on_c, 1, 45, 75
3, 58172, Note_off_c, 1, 48, 0
3, 58172, Note_off_c, 1, 45, 0
3, 58176, Note_on_c, 1, 47, 75
3, 58176, Note_on_c, 1, 43, 75
3, 58364, Note_off_c, 1, 47, 0
3, 58364, Note_off_c, 1, 43, 0
3, 58368, Note_on_c, 1, 45, 75
3, 58368, Note_on_c, 1, 42, 75
3, 58752, Note_on_c, 1, 47, 75
3, 58752, Note_on_c, 1, 39, 75
3, 58940, Note_off_c, 1, 45, 0
3, 58940, Note_off_c, 1, 42, 0
3, 59132, Note_off_c, 1, 47, 0
3, 59132, Note_off_c, 1, 39, 0
3, 59136, Note_on_c, 1, 47, 75
3, 59136, Note_on_c, 1, 40, 75
3, 59516, Note_off_c, 1, 47, 0
3, 59516, Note_off_c, 1, 40, 0
3, 59520, Note_on_c, 1, 45, 75
3, 59900, Note_off_c, 1, 45, 0
3, 59904, Note_on_c, 1, 47, 75
3, 60284, Note_off_c, 1, 47, 0
3, 60288, Note_on_c, 1, 35, 75
3, 60668, Note_off_c, 1, 35, 0
3, 60672, Note_on_c, 1, 40, 75
3, 61052, Note_off_c, 1, 40, 0
3, 61440, Note_on_c, 1, 59, 75
3, 61440, Note_on_c, 1, 55, 75
3, 62012, Note_off_c, 1, 59, 0
3, 62012, Note_off_c, 1, 55, 0
3, 62016, Note_on_c, 1, 57, 75
3, 62016, Note_on_c, 1, 54, 75
3, 62204, Note_off_c, 1, 57, 0
3, 62204, Note_off_c, 1, 54, 0
3, 62208, Note_on_c, 1, 55, 75
3, 62208, Note_on_c, 1, 52, 75
3, 62780, Note_off_c, 1, 55, 0
3, 62780, Note_off_c, 1, 52, 0
3, 62784, Note_on_c, 1, 54, 75
3, 62784, Note_on_c, 1, 50, 75
3, 62972, Note_off_c, 1, 54, 0
3, 62972, Note_off_c, 1, 50, 0
3, 62976, Note_on_c, 1, 52, 75
3, 62976, Note_on_c, 1, 48, 75
3, 63548, Note_off_c, 1, 52, 0
3, 63548, Note_off_c, 1, 48, 0
3, 63552, Note_on_c, 1, 50, 75
3, 63552, Note_on_c, 1, 47, 75
3, 63740, Note_off_c, 1, 50, 0
3, 63740, Note_off_c, 1, 47, 0
3, 63744, Note_on_c, 1, 48, 75
3, 63744, Note_on_c, 1, 45, 75
3, 64316, Note_off_c, 1, 48, 0
3, 64316, Note_off_c, 1, 45, 0
3, 64320, Note_on_c, 1, 47, 75
3, 64320, Note_on_c, 1, 43, 75
3, 64508, Note_off_c, 1, 47, 0
3, 64508, Note_off_c, 1, 43, 0
3, 64512, Note_on_c, 1, 45, 75
3, 64512, Note_on_c, 1, 42, 75
3, 64896, Note_on_c, 1, 47, 75
3, 64896, Note_on_c, 1, 39, 75
3, 65084, Note_off_c, 1, 45, 0
3, 65084, Note_off_c, 1, 42, 0
3, 65276, Note_off_c, 1, 47, 0
3, 65276, Note_off_c, 1, 39, 0
3, 65280, Note_on_c, 1, 47, 75
3, 65280, Note_on_c, 1, 40, 75
3, 65660, Note_off_c, 1, 47, 0
3, 65660, Note_off_c, 1, 40, 0
3, 65664, Note_on_c, 1, 45, 75
3, 66044, Note_off_c, 1, 45, 0
3, 66048, Note_on_c, 1, 47, 75
3, 66428, Note_off_c, 1, 47, 0
3, 66432, Note_on_c, 1, 35, 75
3, 66812, Note_off_c, 1, 35, 0
3, 67008, Note_on_c, 1, 52, 60
3, 67196, Note_off_c, 1, 52, 0
3, 67200, Note_on_c, 1, 54, 60
3, 67388, Note_off_c, 1, 54, 0
3, 67392, Note_on_c, 1, 56, 60
3, 67580, Note_off_c, 1, 56, 0
3, 67584, Note_on_c, 1, 57, 75
3, 67772, Note_off_c, 1, 57, 0
3, 67776, Note_on_c, 1, 59, 75
3, 67964, Note_off_c, 1, 59, 0
3, 67968, Note_on_c, 1, 60, 75
3, 68156, Note_off_c, 1, 60, 0
3, 68160, Note_on_c, 1, 57, 75
3, 68348, Note_off_c, 1, 57, 0
3, 68544, Note_on_c, 1, 50, 75
3, 68732, Note_off_c, 1, 50, 0
3, 68736, Note_on_c, 1, 52, 75
3, 68924, Note_off_c, 1, 52, 0
3, 68928, Note_on_c, 1, 53, 75
3, 69116, Note_off_c, 1, 53, 0
3, 69120, Note_on_c, 1, 55, 75
3, 69308, Note_off_c, 1, 55, 0
3, 69312, Note_on_c, 1, 57, 75
3, 69500, Note_off_c, 1, 57, 0
3, 69504, Note_on_c, 1, 59, 75
3, 69692, Note_off_c, 1, 59, 0
3, 69696, Note_on_c, 1, 55, 75
3, 69884, Note_off_c, 1, 55, 0
3, 70080, Note_on_c, 1, 48, 75
3, 70268, Note_off_c, 1, 48, 0
3, 70272, Note_on_c, 1, 50, 75
3, 70460, Note_off_c, 1, 50, 0
3, 70464, Note_on_c, 1, 52, 75
3, 70652, Note_off_c, 1, 52, 0
3, 70656, Note_on_c, 1, 53, 75
3, 70844, Note_off_c, 1, 53, 0
3, 70848, Note_on_c, 1, 55, 75
3, 71036, Note_off_c, 1, 55, 0
3, 71040, Note_on_c, 1, 57, 75
3, 71228, Note_off_c, 1, 57, 0
3, 71232, Note_on_c, 1, 53, 75
3, 71420, Note_off_c, 1, 53, 0
3, 71616, Note_on_c, 1, 47, 75
3, 71804, Note_off_c, 1, 47, 0
3, 71808, Note_on_c, 1, 48, 75
3, 71996, Note_off_c, 1, 48, 0
3, 72000, Note_on_c, 1, 50, 75
3, 72188, Note_off_c, 1, 50, 0
3, 72192, Note_on_c, 1, 52, 75
3, 72380, Note_off_c, 1, 52, 0
3, 72384, Note_on_c, 1, 54, 75
3, 72572, Note_off_c, 1, 54, 0
3, 72576, Note_on_c, 1, 56, 75
3, 72764, Note_off_c, 1, 56, 0
3, 72768, Note_on_c, 1, 52, 75
3, 72956, Note_off_c, 1, 52, 0
3, 72960, Note_on_c, 1, 57, 75
3, 73340, Note_off_c, 1, 57, 0
3, 73536, Note_on_c, 1, 55, 75
3, 73724, Note_off_c, 1, 55, 0
3, 73728, Note_on_c, 1, 53, 75
3, 74300, Note_off_c, 1, 53, 0
3, 74304, Note_on_c, 1, 50, 75
3, 74492, Note_off_c, 1, 50, 0
3, 74496, Note_on_c, 1, 52, 75
3, 75068, Note_off_c, 1, 52, 0
3, 75072, Note_on_c, 1, 48, 75
3, 75260, Note_off_c, 1, 48, 0
3, 75264, Note_on_c, 1, 50, 75
3, 75836, Note_off_c, 1, 50, 0
3, 75840, Note_on_c, 1, 51, 75
3, 76028, Note_off_c, 1, 51, 0
3, 76032, Note_on_c, 1, 52, 75
3, 76796, Note_off_c, 1, 52, 0
3, 76800, Note_on_c, 1, 57, 75
3, 76800, Note_on_c, 1, 53, 75
3, 77564, Note_off_c, 1, 57, 0
3, 77564, Note_off_c, 1, 53, 0
3, 77568, Note_on_c, 1, 59, 78
3, 77568, Note_on_c, 1, 52, 78
3, 78332, Note_off_c, 1, 59, 0
3, 78332, Note_off_c, 1, 52, 0
3, 78336, Note_on_c, 1, 57, 81
3, 78336, Note_on_c, 1, 53, 81
3, 79100, Note_off_c, 1, 57, 0
3, 79100, Note_off_c, 1, 53, 0
3, 79104, Note_on_c, 1, 59, 84
3, 79104, Note_on_c, 1, 52, 84
3, 79868, Note_off_c, 1, 59, 0
3, 79868, Note_off_c, 1, 52, 0
3, 79872, Note_on_c, 1, 57, 87
3, 79872, Note_on_c, 1, 53, 87
3, 80636, Note_off_c, 1, 57, 0
3, 80636, Note_off_c, 1, 53, 0
3, 80640, Note_on_c, 1, 59, 60
3, 80640, Note_on_c, 1, 52, 60
3, 81020, Note_off_c, 1, 59, 0
3, 81020, Note_off_c, 1, 52, 0
3, 82368, Note_on_c, 1, 57, 60
3, 82560, Note_on_c, 1, 64, 60
3, 82748, Note_off_c, 1, 64, 0
3, 82752, Note_on_c, 1, 62, 60
3, 82940, Note_off_c, 1, 57, 0
3, 82940, Note_off_c, 1, 62, 0
3, 83136, Note_on_c, 1, 57, 75
3, 83328, Note_on_c, 1, 60, 75
3, 83516, Note_off_c, 1, 60, 0
3, 83520, Note_on_c, 1, 59, 75
3, 83708, Note_off_c, 1, 57, 0
3, 83708, Note_off_c, 1, 59, 0
3, 83904, Note_on_c, 1, 57, 75
3, 84092, Note_off_c, 1, 57, 0
3, 84096, Note_on_c, 1, 60, 75
3, 84284, Note_off_c, 1, 60, 0
3, 84288, Note_on_c, 1, 56, 75
3, 84476, Note_off_c, 1, 56, 0
3, 84672, Note_on_c, 1, 57, 75
3, 84860, Note_off_c, 1, 57, 0
3, 84864, Note_on_c, 1, 64, 75
3, 85052, Note_off_c, 1, 64, 0
3, 85056, Note_on_c, 1, 52, 75
3, 85244, Note_off_c, 1, 52, 0
3, 85440, Note_on_c, 1, 53, 67
3, 85628, Note_off_c, 1, 53, 0
3, 85632, Note_on_c, 1, 65, 67
3, 85820, Note_off_c, 1, 65, 0
3, 85824, Note_on_c, 1, 64, 67
3, 86012, Note_off_c, 1, 64, 0
3, 86208, Note_on_c, 1, 50, 75
3, 86396, Note_off_c, 1, 50, 0
3, 86400, Note_on_c, 1, 62, 75
3, 86588, Note_off_c, 1, 62, 0
3, 86592, Note_on_c, 1, 60, 75
3, 86780, Note_off_c, 1, 60, 0
3, 86976, Note_on_c, 1, 47, 75
3, 87164, Note_off_c, 1, 47, 0
3, 87168, Note_on_c, 1, 59, 75
3, 87356, Note_off_c, 1, 59, 0
3, 87360, Note_on_c, 1, 57, 75
3, 87548, Note_off_c, 1, 57, 0
3, 87552, Note_on_c, 1, 64, 75
3, 87552, Note_on_c, 1, 52, 75
3, 87932, Note_off_c, 1, 64, 0
3, 87932, Note_off_c, 1, 52, 0
3, 87936, Note_on_c, 1, 52, 75
3, 88316, Note_off_c, 1, 52, 0
3, 88512, Note_on_c, 1, 57, 60
3, 88704, Note_on_c, 1, 64, 60
3, 88892, Note_off_c, 1, 64, 0
3, 88896, Note_on_c, 1, 62, 60
3, 89084, Note_off_c, 1, 57, 0
3, 89084, Note_off_c, 1, 62, 0
3, 89280, Note_on_c, 1, 57, 75
3, 89472, Note_on_c, 1, 60, 75
3, 89660, Note_off_c, 1, 60, 0
3, 89664, Note_on_c, 1, 59, 75
3, 89852, Note_off_c, 1, 57, 0
3, 89852, Note_off_c, 1, 59, 0
3, 90048, Note_on_c, 1, 57, 75
3, 90236, Note_off_c, 1, 57, 0
3, 90240, Note_on_c, 1, 60, 75
3, 90428, Note_off_c, 1, 60, 0
3, 90432, Note_on_c, 1, 56, 75
3, 90620, Note_off_c, 1, 56, 0
3, 90816, Note_on_c, 1, 57, 75
3, 91004, Note_off_c, 1, 57, 0
3, 91008, Note_on_c, 1, 64, 75
3, 91196, Note_off_c, 1, 64, 0
3, 91200, Note_on_c, 1, 52, 75
3, 91388, Note_off_c, 1, 52, 0
3, 91584, Note_on_c, 1, 50, 82
3, 91772, Note_off_c, 1, 50, 0
3, 91776, Note_on_c, 1, 62, 82
3, 91964, Note_off_c, 1, 62, 0
3, 91968, Note_on_c, 1, 60, 82
3, 92156, Note_off_c, 1, 60, 0
3, 92352, Note_on_c, 1, 53, 75
3, 92540, Note_off_c, 1, 53, 0
3, 92544, Note_on_c, 1, 65, 75
3, 92732, Note_off_c, 1, 65, 0
3, 92736, Note_on_c, 1, 64, 75
3, 92924, Note_off_c, 1, 64, 0
3, 92928, Note_on_c, 1, 62, 75
3, 93308, Note_off_c, 1, 62, 0
3, 93312, Note_on_c, 1, 64, 75
3, 93692, Note_off_c, 1, 64, 0
3, 93696, Note_on_c, 1, 65, 75
3, 94076, Note_off_c, 1, 65, 0
3, 94656, Note_on_c, 1, 50, 75
3, 94844, Note_off_c, 1, 50, 0
3, 94848, Note_on_c, 1, 62, 75
3, 95036, Note_off_c, 1, 62, 0
3, 95040, Note_on_c, 1, 60, 75
3, 95228, Note_off_c, 1, 60, 0
3, 95424, Note_on_c, 1, 47, 78
3, 95612, Note_off_c, 1, 47, 0
3, 95616, Note_on_c, 1, 59, 78
3, 95804, Note_off_c, 1, 59, 0
3, 95808, Note_on_c, 1, 57, 78
3, 95996, Note_off_c, 1, 57, 0
3, 96192, Note_on_c, 1, 44, 81
3, 96380, Note_off_c, 1, 44, 0
3, 96384, Note_on_c, 1, 56, 81
3, 96572, Note_off_c, 1, 56, 0
3, 96576, Note_on_c, 1, 54, 81
3, 96764, Note_off_c, 1, 54, 0
3, 96768, Note_on_c, 1, 52, 84
3, 96956, Note_off_c, 1, 52, 0
3, 96960, Note_on_c, 1, 40, 84
3, 97148, Note_off_c, 1, 40, 0
3, 97152, Note_on_c, 1, 42, 87
3, 97340, Note_off_c, 1, 42, 0
3, 97344, Note_on_c, 1, 44, 87
3, 97532, Note_off_c, 1, 44, 0
3, 97536, Note_on_c, 1, 45, 90
3, 97724, Note_off_c, 1, 45, 0
3, 97728, Note_on_c, 1, 57, 90
3, 97916, Note_off_c, 1, 57, 0
3, 97920, Note_on_c, 1, 60, 90
3, 98108, Note_off_c, 1, 60, 0
3, 98112, Note_on_c, 1, 64, 90
3, 98300, Note_off_c, 1, 64, 0
3, 98304, Note_on_c, 1, 41, 75
3, 98492, Note_off_c, 1, 41, 0
3, 98496, Note_on_c, 1, 53, 75
3, 98684, Note_off_c, 1, 53, 0
3, 98688, Note_on_c, 1, 57, 75
3, 98876, Note_off_c, 1, 57, 0
3, 98880, Note_on_c, 1, 60, 75
3, 99068, Note_off_c, 1, 60, 0
3, 99072, Note_on_c, 1, 38, 75
3, 99260, Note_off_c, 1, 38, 0
3, 99264, Note_on_c, 1, 50, 75
3, 99452, Note_off_c, 1, 50, 0
3, 99456, Note_on_c, 1, 53, 75
3, 99644, Note_off_c, 1, 53, 0
3, 99648, Note_on_c, 1, 57, 75
3, 99836, Note_off_c, 1, 57, 0
3, 99840, Note_on_c, 1, 35, 72
3, 100028, Note_off_c, 1, 35, 0
3, 100032, Note_on_c, 1, 47, 69
3, 100220, Note_off_c, 1, 47, 0
3, 100224, Note_on_c, 1, 50, 66
3, 100412, Note_off_c, 1, 50, 0
3, 100416, Note_on_c, 1, 53, 63
3, 100604, Note_off_c, 1, 53, 0
3, 100608, Note_on_c, 1, 38, 60
3, 100796, Note_off_c, 1, 38, 0
3, 100800, Note_on_c, 1, 50, 60
3, 100988, Note_off_c, 1, 50, 0
3, 100992, Note_on_c, 1, 53, 60
3, 101180, Note_off_c, 1, 53, 0
3, 101184, Note_on_c, 1, 50, 60
3, 101372, Note_off_c, 1, 50, 0
3, 101376, Note_on_c, 1, 48, 75
3, 101756, Note_off_c, 1, 48, 0
3, 101760, Note_on_c, 1, 53, 75
3, 102140, Note_off_c, 1, 53, 0
3, 102144, Note_on_c, 1, 50, 75
3, 102524, Note_off_c, 1, 50, 0
3, 102528, Note_on_c, 1, 52, 75
3, 102908, Note_off_c, 1, 52, 0
3, 102912, Note_on_c, 1, 45, 75
3, 103292, Note_off_c, 1, 45, 0
3, 103680, Note_on_c, 1, 45, 90
3, 103868, Note_off_c, 1, 45, 0
3, 103872, Note_on_c, 1, 57, 90
3, 104060, Note_off_c, 1, 57, 0
3, 104064, Note_on_c, 1, 60, 90
3, 104252, Note_off_c, 1, 60, 0
3, 104256, Note_on_c, 1, 64, 90
3, 104444, Note_off_c, 1, 64, 0
3, 104448, Note_on_c, 1, 41, 75
3, 104636, Note_off_c, 1, 41, 0
3, 104640, Note_on_c, 1, 53, 75
3, 104828, Note_off_c, 1, 53, 0
3, 104832, Note_on_c, 1, 57, 75
3, 105020, Note_off_c, 1, 57, 0
3, 105024, Note_on_c, 1, 60, 75
3, 105212, Note_off_c, 1, 60, 0
3, 105216, Note_on_c, 1, 38, 75
3, 105404, Note_off_c, 1, 38, 0
3, 105408, Note_on_c, 1, 50, 75
3, 105596, Note_off_c, 1, 50, 0
3, 105600, Note_on_c, 1, 53, 75
3, 105788, Note_off_c, 1, 53, 0
3, 105792, Note_on_c, 1, 57, 75
3, 105980, Note_off_c, 1, 57, 0
3, 105984, Note_on_c, 1, 35, 72
3, 106172, Note_off_c, 1, 35, 0
3, 106176, Note_on_c, 1, 47, 69
3, 106364, Note_off_c, 1, 47, 0
3, 106368, Note_on_c, 1, 50, 66
3, 106556, Note_off_c, 1, 50, 0
3, 106560, Note_on_c, 1, 53, 63
3, 106748, Note_off_c, 1, 53, 0
3, 106752, Note_on_c, 1, 38, 60
3, 106940, Note_off_c, 1, 38, 0
3, 106944, Note_on_c, 1, 50, 60
3, 107132, Note_off_c, 1, 50, 0
3, 107136, Note_on_c, 1, 53, 60
3, 107324, Note_off_c, 1, 53, 0
3, 107328, Note_on_c, 1, 50, 60
3, 107516, Note_off_c, 1, 50, 0
3, 107520, Note_on_c, 1, 48, 75
3, 107900, Note_off_c, 1, 48, 0
3, 107904, Note_on_c, 1, 53, 75
3, 107904, Note_on_c, 1, 41, 75
3, 108284, Note_off_c, 1, 53, 0
3, 108284, Note_off_c, 1, 41, 0
3, 108288, Note_on_c, 1, 50, 75
3, 108288, Note_on_c, 1, 38, 75
3, 108668, Note_off_c, 1, 50, 0
3, 108668, Note_off_c, 1, 38, 0
3, 108672, Note_on_c, 1, 52, 75
3, 108672, Note_on_c, 1, 40, 75
3, 109052, Note_off_c, 1, 52, 0
3, 109052, Note_off_c, 1, 40, 0
3, 109056, Note_on_c, 1, 45, 75
3, 109056, Note_on_c, 1, 33, 75
3, 109436, Note_off_c, 1, 45, 0
3, 109436, Note_off_c, 1, 33, 0
3, 109824, Key_signature, 3, "major"
3, 109824, Note_on_c, 1, 57, 60
3, 109824, Note_on_c, 1, 57, 60
3, 110012, Note_off_c, 1, 57, 0
3, 110016, Note_on_c, 1, 61, 60
3, 110204, Note_off_c, 1, 61, 0
3, 110208, Note_on_c, 1, 64, 60
3, 110396, Note_off_c, 1, 64, 0
3, 110400, Note_on_c, 1, 61, 60
3, 110588, Note_off_c, 1, 57, 0
3, 110588, Note_off_c, 1, 61, 0
3, 110592, Note_on_c, 1, 57, 75
3, 110592, Note_on_c, 1, 57, 75
3, 110780, Note_off_c, 1, 57, 0
3, 110784, Note_on_c, 1, 62, 75
3, 110972, Note_off_c, 1, 62, 0
3, 110976, Note_on_c, 1, 66, 75
3, 111164, Note_off_c, 1, 66, 0
3, 111168, Note_on_c, 1, 62, 75
3, 111356, Note_off_c, 1, 57, 0
3, 111356, Note_off_c, 1, 62, 0
3, 111360, Note_on_c, 1, 57, 75
3, 111360, Note_on_c, 1, 57, 75
3, 111548, Note_off_c, 1, 57, 0
3, 111552, Note_on_c, 1, 59, 75
3, 111740, Note_off_c, 1, 59, 0
3, 111744, Note_on_c, 1, 62, 75
3, 111932, Note_off_c, 1, 62, 0
3, 111936, Note_on_c, 1, 59, 75
3, 112124, Note_off_c, 1, 57, 0
3, 112124, Note_off_c, 1, 59, 0
3, 112128, Note_on_c, 1, 57, 75
3, 112128, Note_on_c, 1, 57, 75
3, 112316, Note_off_c, 1, 57, 0
3, 112320, Note_on_c, 1, 61, 75
3, 112508, Note_off_c, 1, 57, 0
3, 112508, Note_off_c, 1, 61, 0
3, 112512, Note_on_c, 1, 64, 75
3, 112700, Note_off_c, 1, 64, 0
3, 112704, Note_on_c, 1, 61, 75
3, 112892, Note_off_c, 1, 61, 0
3, 112896, Note_on_c, 1, 57, 90
3, 112896, Note_on_c, 1, 57, 90
3, 113084, Note_off_c, 1, 57, 0
3, 113088, Note_on_c, 1, 61, 60
3, 113276, Note_off_c, 1, 61, 0
3, 113280, Note_on_c, 1, 64, 60
3, 113468, Note_off_c, 1, 64, 0
3, 113472, Note_on_c, 1, 61, 60
3, 113660, Note_off_c, 1, 57, 0
3, 113660, Note_off_c, 1, 61, 0
3, 113664, Note_on_c, 1, 57, 75
3, 113664, Note_on_c, 1, 57, 75
3, 113852, Note_off_c, 1, 57, 0
3, 113856, Note_on_c, 1, 62, 75
3, 114044, Note_off_c, 1, 62, 0
3, 114048, Note_on_c, 1, 66, 75
3, 114236, Note_off_c, 1, 66, 0
3, 114240, Note_on_c, 1, 62, 75
3, 114428, Note_off_c, 1, 57, 0
3, 114428, Note_off_c, 1, 62, 0
3, 114432, Note_on_c, 1, 57, 75
3, 114432, Note_on_c, 1, 57, 75
3, 114620, Note_off_c, 1, 57, 0
3, 114624, Note_on_c, 1, 59, 75
3, 114812, Note_off_c, 1, 59, 0
3, 114816, Note_on_c, 1, 62, 75
3, 115004, Note_off_c, 1, 62, 0
3, 115008, Note_on_c, 1, 61, 75
3, 115196, Note_off_c, 1, 57, 0
3, 115196, Note_off_c, 1, 61, 0
3, 115200, Note_on_c, 1, 62, 75
3, 115200, Note_on_c, 1, 57, 75
3, 115388, Note_off_c, 1, 62, 0
3, 115392, Note_on_c, 1, 64, 75
3, 115580, Note_off_c, 1, 57, 0
3, 115580, Note_off_c, 1, 64, 0
3, 115584, Note_on_c, 1, 61, 75
3, 115772, Note_off_c, 1, 61, 0
3, 115776, Note_on_c, 1, 57, 75
3, 115964, Note_off_c, 1, 57, 0
3, 115968, Note_on_c, 1, 57, 75
3, 115968, Note_on_c, 1, 57, 75
3, 116156, Note_off_c, 1, 57, 0
3, 116160, Note_on_c, 1, 61, 75
3, 116348, Note_off_c, 1, 61, 0
3, 116352, Note_on_c, 1, 64, 75
3, 116540, Note_off_c, 1, 64, 0
3, 116544, Note_on_c, 1, 61, 75
3, 116732, Note_off_c, 1, 57, 0
3, 116732, Note_off_c, 1, 61, 0
3, 116736, Note_on_c, 1, 57, 75
3, 116736, Note_on_c, 1, 57, 75
3, 116924, Note_off_c, 1, 57, 0
3, 116928, Note_on_c, 1, 62, 75
3, 117116, Note_off_c, 1, 62, 0
3, 117120, Note_on_c, 1, 66, 75
3, 117308, Note_off_c, 1, 66, 0
3, 117312, Note_on_c, 1, 62, 75
3, 117500, Note_off_c, 1, 57, 0
3, 117500, Note_off_c, 1, 62, 0
3, 117504, Note_on_c, 1, 57, 75
3, 117504, Note_on_c, 1, 57, 75
3, 117692, Note_off_c, 1, 57, 0
3, 117696, Note_on_c, 1, 59, 75
3, 117884, Note_off_c, 1, 59, 0
3, 117888, Note_on_c, 1, 62, 75
3, 118076, Note_off_c, 1, 62, 0
3, 118080, Note_on_c, 1, 59, 75
3, 118268, Note_off_c, 1, 57, 0
3, 118268, Note_off_c, 1, 59, 0
3, 118272, Note_on_c, 1, 57, 75
3, 118272, Note_on_c, 1, 57, 75
3, 118460, Note_off_c, 1, 57, 0
3, 118464, Note_on_c, 1, 61, 75
3, 118652, Note_off_c, 1, 61, 0
3, 118656, Note_on_c, 1, 64, 75
3, 118844, Note_off_c, 1, 64, 0
3, 118848, Note_on_c, 1, 61, 75
3, 119036, Note_off_c, 1, 57, 0
3, 119036, Note_off_c, 1, 61, 0
3, 119040, Note_on_c, 1, 59, 75
3, 119040, Note_on_c, 1, 59, 75
3, 119228, Note_off_c, 1, 59, 0
3, 119232, Note_on_c, 1, 63, 75
3, 119420, Note_off_c, 1, 63, 0
3, 119424, Note_on_c, 1, 66, 75
3, 119612, Note_off_c, 1, 66, 0
3, 119616, Note_on_c, 1, 63, 75
3, 119804, Note_off_c, 1, 59, 0
3, 119804, Note_off_c, 1, 63, 0
3, 119808, Note_on_c, 1, 64, 75
3, 120188, Note_off_c, 1, 64, 0
3, 120192, Note_on_c, 1, 57, 85
3, 120572, Note_off_c, 1, 57, 0
3, 120576, Note_on_c, 1, 59, 90
3, 121340, Note_off_c, 1, 59, 0
3, 121344, Note_on_c, 1, 64, 90
3, 121724, Note_off_c, 1, 64, 0
3, 121728, Note_on_c, 1, 52, 90
3, 122108, Note_off_c, 1, 52, 0
3, 122112, Note_on_c, 1, 57, 60
3, 122112, Note_on_c, 1, 57, 60
3, 122300, Note_off_c, 1, 57, 0
3, 122304, Note_on_c, 1, 61, 60
3, 122492, Note_off_c, 1, 61, 0
3, 122496, Note_on_c, 1, 64, 60
3, 122684, Note_off_c, 1, 64, 0
3, 122688, Note_on_c, 1, 61, 60
3, 122876, Note_off_c, 1, 57, 0
3, 122876, Note_off_c, 1, 61, 0
3, 122880, Note_on_c, 1, 57, 75
3, 122880, Note_on_c, 1, 57, 75
3, 123068, Note_off_c, 1, 57, 0
3, 123072, Note_on_c, 1, 62, 75
3, 123260, Note_off_c, 1, 62, 0
3, 123264, Note_on_c, 1, 66, 75
3, 123452, Note_off_c, 1, 66, 0
3, 123456, Note_on_c, 1, 62, 75
3, 123644, Note_off_c, 1, 57, 0
3, 123644, Note_off_c, 1, 62, 0
3, 123648, Note_on_c, 1, 57, 75
3, 123648, Note_on_c, 1, 57, 75
3, 123836, Note_off_c, 1, 57, 0
3, 123840, Note_on_c, 1, 59, 75
3, 124028, Note_off_c, 1, 59, 0
3, 124032, Note_on_c, 1, 62, 75
3, 124220, Note_off_c, 1, 62, 0
3, 124224, Note_on_c, 1, 59, 75
3, 124412, Note_off_c, 1, 57, 0
3, 124412, Note_off_c, 1, 59, 0
3, 124416, Note_on_c, 1, 57, 75
3, 124416, Note_on_c, 1, 57, 75
3, 124604, Note_off_c, 1, 57, 0
3, 124608, Note_on_c, 1, 61, 75
3, 124796, Note_off_c, 1, 57, 0
3, 124796, Note_off_c, 1, 61, 0
3, 124800, Note_on_c, 1, 64, 75
3, 124988, Note_off_c, 1, 64, 0
3, 124992, Note_on_c, 1, 61, 75
3, 125180, Note_off_c, 1, 61, 0
3, 125184, Note_on_c, 1, 57, 90
3, 125184, Note_on_c, 1, 57, 90
3, 125372, Note_off_c, 1, 57, 0
3, 125376, Note_on_c, 1, 61, 60
3, 125564, Note_off_c, 1, 61, 0
3, 125568, Note_on_c, 1, 64, 60
3, 125756, Note_off_c, 1, 64, 0
3, 125760, Note_on_c, 1, 61, 60
3, 125948, Note_off_c, 1, 57, 0
3, 125948, Note_off_c, 1, 61, 0
3, 125952, Note_on_c, 1, 57, 75
3, 125952, Note_on_c, 1, 57, 75
3, 126140, Note_off_c, 1, 57, 0
3, 126144, Note_on_c, 1, 62, 75
3, 126332, Note_off_c, 1, 62, 0
3, 126336, Note_on_c, 1, 66, 75
3, 126524, Note_off_c, 1, 66, 0
3, 126528, Note_on_c, 1, 62, 75
3, 126716, Note_off_c, 1, 57, 0
3, 126716, Note_off_c, 1, 62, 0
3, 126720, Note_on_c, 1, 57, 75
3, 126720, Note_on_c, 1, 57, 75
3, 126908, Note_off_c, 1, 57, 0
3, 126912, Note_on_c, 1, 59, 75
3, 127100, Note_off_c, 1, 59, 0
3, 127104, Note_on_c, 1, 62, 75
3, 127292, Note_off_c, 1, 62, 0
3, 127296, Note_on_c, 1, 61, 75
3, 127484, Note_off_c, 1, 57, 0
3, 127484, Note_off_c, 1, 61, 0
3, 127488, Note_on_c, 1, 62, 75
3, 127488, Note_on_c, 1, 57, 75
3, 127676, Note_off_c, 1, 62, 0
3, 127680, Note_on_c, 1, 64, 75
3, 127868, Note_off_c, 1, 57, 0
3, 127868, Note_off_c, 1, 64, 0
3, 127872, Note_on_c, 1, 61, 75
3, 128060, Note_off_c, 1, 61, 0
3, 128064, Note_on_c, 1, 57, 75
3, 128252, Note_off_c, 1, 57, 0
3, 128256, Note_on_c, 1, 57, 75
3, 128256, Note_on_c, 1, 57, 75
3, 128444, Note_off_c, 1, 57, 0
3, 128448, Note_on_c, 1, 61, 75
3, 128636, Note_off_c, 1, 61, 0
3, 128640, Note_on_c, 1, 64, 75
3, 128828, Note_off_c, 1, 64, 0
3, 128832, Note_on_c, 1, 61, 75
3, 129020, Note_off_c, 1, 57, 0
3, 129020, Note_off_c, 1, 61, 0
3, 129024, Note_on_c, 1, 57, 75
3, 129024, Note_on_c, 1, 57, 75
3, 129212, Note_off_c, 1, 57, 0
3, 129216, Note_on_c, 1, 62, 75
3, 129404, Note_off_c, 1, 62, 0
3, 129408, Note_on_c, 1, 66, 75
3, 129596, Note_off_c, 1, 66, 0
3, 129600, Note_on_c, 1, 62, 75
3, 129788, Note_off_c, 1, 57, 0
3, 129788, Note_off_c, 1, 62, 0
3, 129792, Note_on_c, 1, 57, 75
3, 129792, Note_on_c, 1, 57, 75
3, 129980, Note_off_c, 1, 57, 0
3, 129984, Note_on_c, 1, 59, 75
3, 130172, Note_off_c, 1, 59, 0
3, 130176, Note_on_c, 1, 62, 75
3, 130364, Note_off_c, 1, 62, 0
3, 130368, Note_on_c, 1, 59, 75
3, 130556, Note_off_c, 1, 57, 0
3, 130556, Note_off_c, 1, 59, 0
3, 130560, Note_on_c, 1, 57, 75
3, 130560, Note_on_c, 1, 57, 75
3, 130748, Note_off_c, 1, 57, 0
3, 130752, Note_on_c, 1, 61, 75
3, 130940, Note_off_c, 1, 61, 0
3, 130944, Note_on_c, 1, 64, 75
3, 131132, Note_off_c, 1, 64, 0
3, 131136, Note_on_c, 1, 61, 75
3, 131324, Note_off_c, 1, 57, 0
3, 131324, Note_off_c, 1, 61, 0
3, 131328, Note_on_c, 1, 59, 75
3, 131328, Note_on_c, 1, 59, 75
3, 131516, Note_off_c, 1, 59, 0
3, 131520, Note_on_c, 1, 63, 75
3, 131708, Note_off_c, 1, 63, 0
3, 131712, Note_on_c, 1, 66, 75
3, 131900, Note_off_c, 1, 66, 0
3, 131904, Note_on_c, 1, 63, 75
3, 132092, Note_off_c, 1, 59, 0
3, 132092, Note_off_c, 1, 63, 0
3, 132096, Note_on_c, 1, 64, 75
3, 132476, Note_off_c, 1, 64, 0
3, 132480, Note_on_c, 1, 57, 85
3, 132860, Note_off_c, 1, 57, 0
3, 132864, Note_on_c, 1, 59, 90
3, 133628, Note_off_c, 1, 59, 0
3, 133632, Note_on_c, 1, 64, 90
3, 134012, Note_off_c, 1, 64, 0
3, 134016, Note_on_c, 1, 52, 90
3, 134396, Note_off_c, 1, 52, 0
3, 140544, Note_on_c, 1, 57, 90
3, 140544, Note_on_c, 1, 57, 90
3, 140732, Note_off_c, 1, 57, 0
3, 140736, Note_on_c, 1, 61, 60
3, 140924, Note_off_c, 1, 61, 0
3, 140928, Note_on_c, 1, 64, 60
3, 141116, Note_off_c, 1, 64, 0
3, 141120, Note_on_c, 1, 61, 60
3, 141308, Note_off_c, 1, 57, 0
3, 141308, Note_off_c, 1, 61, 0
3, 141312, Note_on_c, 1, 57, 75
3, 141312, Note_on_c, 1, 57, 75
3, 141500, Note_off_c, 1, 57, 0
3, 141504, Note_on_c, 1, 62, 75
3, 141692, Note_off_c, 1, 62, 0
3, 141696, Note_on_c, 1, 66, 75
3, 141884, Note_off_c, 1, 66, 0
3, 141888, Note_on_c, 1, 62, 75
3, 142076, Note_off_c, 1, 57, 0
3, 142076, Note_off_c, 1, 62, 0
3, 142080, Note_on_c, 1, 57, 75
3, 142080, Note_on_c, 1, 57, 75
3, 142268, Note_off_c, 1, 57, 0
3, 142272, Note_on_c, 1, 59, 75
3, 142460, Note_off_c, 1, 59, 0
3, 142464, Note_on_c, 1, 62, 75
3, 142652, Note_off_c, 1, 62, 0
3, 142656, Note_on_c, 1, 61, 75
3, 142844, Note_off_c, 1, 57, 0
3, 142844, Note_off_c, 1, 61, 0
3, 142848, Note_on_c, 1, 57, 75
3, 142848, Note_on_c, 1, 62, 75
3, 143036, Note_off_c, 1, 62, 0
3, 143040, Note_on_c, 1, 64, 75
3, 143228, Note_off_c, 1, 57, 0
3, 143228, Note_off_c, 1, 64, 0
3, 143232, Note_on_c, 1, 61, 75
3, 143420, Note_off_c, 1, 61, 0
3, 143424, Note_on_c, 1, 57, 75
3, 143612, Note_off_c, 1, 57, 0
3, 143616, Note_on_c, 1, 57, 90
3, 143616, Note_on_c, 1, 62, 90
3, 143804, Note_off_c, 1, 62, 0
3, 143808, Note_on_c, 1, 64, 60
3, 143996, Note_off_c, 1, 57, 0
3, 143996, Note_off_c, 1, 64, 0
3, 144000, Note_on_c, 1, 57, 60
3, 144000, Note_on_c, 1, 62, 60
3, 144188, Note_off_c, 1, 62, 0
3, 144192, Note_on_c, 1, 64, 60
3, 144380, Note_off_c, 1, 57, 0
3, 144380, Note_off_c, 1, 64, 0
3, 144384, Note_on_c, 1, 57, 75
3, 144384, Note_on_c, 1, 61, 75
3, 144572, Note_off_c, 1, 61, 0
3, 144576, Note_on_c, 1, 64, 75
3, 144764, Note_off_c, 1, 64, 0
3, 144768, Note_on_c, 1, 61, 75
3, 144956, Note_off_c, 1, 61, 0
3, 144960, Note_on_c, 1, 64, 75
3, 145148, Note_off_c, 1, 57, 0
3, 145148, Note_off_c, 1, 64, 0
3, 145152, Note_on_c, 1, 57, 90
3, 145152, Note_on_c, 1, 62, 90
3, 145340, Note_off_c, 1, 62, 0
3, 145344, Note_on_c, 1, 64, 60
3, 145532, Note_off_c, 1, 57, 0
3, 145532, Note_off_c, 1, 64, 0
3, 145536, Note_on_c, 1, 57, 60
3, 145536, Note_on_c, 1, 62, 60
3, 145724, Note_off_c, 1, 62, 0
3, 145728, Note_on_c, 1, 64, 60
3, 145916, Note_off_c, 1, 57, 0
3, 145916, Note_off_c, 1, 64, 0
3, 145920, Note_on_c, 1, 61, 75
3, 145920, Note_on_c, 1, 57, 75
3, 146300, Note_off_c, 1, 61, 0
3, 146300, Note_off_c, 1, 57, 0
3, 146304, Note_on_c, 1, 45, 75
3, 146684, Note_off_c, 1, 45, 0
3, 152832, Note_on_c, 1, 57, 90
3, 152832, Note_on_c, 1, 57, 90
3, 153020, Note_off_c, 1, 57, 0
3, 153024, Note_on_c, 1, 61, 60
3, 153212, Note_off_c, 1, 61, 0
3, 153216, Note_on_c, 1, 64, 60
3, 153404, Note_off_c, 1, 64, 0
3, 153408, Note_on_c, 1, 61, 60
3, 153596, Note_off_c, 1, 57, 0
3, 153596, Note_off_c, 1, 61, 0
3, 153600, Note_on_c, 1, 57, 75
3, 153600, Note_on_c, 1, 57, 75
3, 153788, Note_off_c, 1, 57, 0
3, 153792, Note_on_c, 1, 62, 75
3, 153980, Note_off_c, 1, 62, 0
3, 153984, Note_on_c, 1, 66, 75
3, 154172, Note_off_c, 1, 66, 0
3, 154176, Note_on_c, 1, 62, 75
3, 154364, Note_off_c, 1, 57, 0
3, 154364, Note_off_c, 1, 62, 0
3, 154368, Note_on_c, 1, 57, 75
3, 154368, Note_on_c, 1, 57, 75
3, 154556, Note_off_c, 1, 57, 0
3, 154560, Note_on_c, 1, 59, 75
3, 154748, Note_off_c, 1, 59, 0
3, 154752, Note_on_c, 1, 62, 75
3, 154940, Note_off_c, 1, 62, 0
3, 154944, Note_on_c, 1, 61, 75
3, 155132, Note_off_c, 1, 57, 0
3, 155132, Note_off_c, 1, 61, 0
3, 155136, Note_on_c, 1, 57, 75
3, 155136, Note_on_c, 1, 62, 75
3, 155324, Note_off_c, 1, 62, 0
3, 155328, Note_on_c, 1, 64, 75
3, 155516, Note_off_c, 1, 57, 0
3, 155516, Note_off_c, 1, 64, 0
3, 155520, Note_on_c, 1, 61, 75
3, 155708, Note_off_c, 1, 61, 0
3, 155712, Note_on_c, 1, 57, 75
3, 155900, Note_off_c, 1, 57, 0
3, 155904, Note_on_c, 1, 57, 90
3, 155904, Note_on_c, 1, 62, 90
3, 156092, Note_off_c, 1, 62, 0
3, 156096, Note_on_c, 1, 64, 60
3, 156284, Note_off_c, 1, 57, 0
3, 156284, Note_off_c, 1, 64, 0
3, 156288, Note_on_c, 1, 57, 60
3, 156288, Note_on_c, 1, 62, 60
3, 156476, Note_off_c, 1, 62, 0
3, 156480, Note_on_c, 1, 64, 60
3, 156668, Note_off_c, 1, 57, 0
3, 156668, Note_off_c, 1, 64, 0
3, 156672, Note_on_c, 1, 57, 75
3, 156672, Note_on_c, 1, 61, 75
3, 156860, Note_off_c, 1, 61, 0
3, 156864, Note_on_c, 1, 64, 75
3, 157052, Note_off_c, 1, 64, 0
3, 157056, Note_on_c, 1, 61, 75
3, 157244, Note_off_c, 1, 61, 0
3, 157248, Note_on_c, 1, 64, 75
3, 157436, Note_off_c, 1, 57, 0
3, 157436, Note_off_c, 1, 64, 0
3, 157440, Note_on_c, 1, 57, 90
3, 157440, Note_on_c, 1, 62, 90
3, 157628, Note_off_c, 1, 62, 0
3, 157632, Note_on_c, 1, 64, 60
3, 157820, Note_off_c, 1, 57, 0
3, 157820, Note_off_c, 1, 64, 0
3, 157824, Note_on_c, 1, 57, 60
3, 157824, Note_on_c, 1, 62, 60
3, 158012, Note_off_c, 1, 62, 0
3, 158016, Note_on_c, 1, 64, 60
3, 158204, Note_off_c, 1, 57, 0
3, 158204, Note_off_c, 1, 64, 0
3, 158208, Note_on_c, 1, 61, 75
3, 158208, Note_on_c, 1, 57, 75
3, 158588, Note_off_c, 1, 61, 0
3, 158588, Note_off_c, 1, 57, 0
3, 158976, Key_signature, 0, "major"
3, 159168, Note_on_c, 1, 57, 60
3, 159360, Note_on_c, 1, 64, 60
3, 159548, Note_off_c, 1, 64, 0
3, 159552, Note_on_c, 1, 62, 60
3, 159740, Note_off_c, 1, 57, 0
3, 159740, Note_off_c, 1, 62, 0
3, 159936, Note_on_c, 1, 57, 75
3, 160128, Note_on_c, 1, 60, 75
3, 160316, Note_off_c, 1, 60, 0
3, 160320, Note_on_c, 1, 59, 75
3, 160508, Note_off_c, 1, 57, 0
3, 160508, Note_off_c, 1, 59, 0
3, 160704, Note_on_c, 1, 57, 75
3, 160892, Note_off_c, 1, 57, 0
3, 160896, Note_on_c, 1, 60, 75
3, 161084, Note_off_c, 1, 60, 0
3, 161088, Note_on_c, 1, 56, 75
3, 161276, Note_off_c, 1, 56, 0
3, 161472, Note_on_c, 1, 57, 75
3, 161660, Note_off_c, 1, 57, 0
3, 161664, Note_on_c, 1, 64, 75
3, 161852, Note_off_c, 1, 64, 0
3, 161856, Note_on_c, 1, 52, 75
3, 162044, Note_off_c, 1, 52, 0
3, 162240, Note_on_c, 1, 53, 60
3, 162428, Note_off_c, 1, 53, 0
3, 162432, Note_on_c, 1, 65, 60
3, 162620, Note_off_c, 1, 65, 0
3, 162624, Note_on_c, 1, 64, 60
3, 162812, Note_off_c, 1, 64, 0
3, 163008, Note_on_c, 1, 50, 75
3, 163196, Note_off_c, 1, 50, 0
3, 163200, Note_on_c, 1, 62, 75
3, 163388, Note_off_c, 1, 62, 0
3, 163392, Note_on_c, 1, 60, 75
3, 163580, Note_off_c, 1, 60, 0
3, 163776, Note_on_c, 1, 47, 75
3, 163964, Note_off_c, 1, 47, 0
3, 163968, Note_on_c, 1, 59, 75
3, 164156, Note_off_c, 1, 59, 0
3, 164160, Note_on_c, 1, 57, 75
3, 164348, Note_off_c, 1, 57, 0
3, 164352, Note_on_c, 1, 64, 75
3, 164352, Note_on_c, 1, 52, 75
3, 164732, Note_off_c, 1, 64, 0
3, 164732, Note_off_c, 1, 52, 0
3, 164736, Note_on_c, 1, 52, 75
3, 165116, Note_off_c, 1, 52, 0
3, 165312, Note_on_c, 1, 57, 60
3, 165504, Note_on_c, 1, 64, 60
3, 165692, Note_off_c, 1, 64, 0
3, 165696, Note_on_c, 1, 62, 60
3, 165884, Note_off_c, 1, 57, 0
3, 165884, Note_off_c, 1, 62, 0
3, 166080, Note_on_c, 1, 57, 75
3, 166272, Note_on_c, 1, 60, 75
3, 166460, Note_off_c, 1, 60, 0
3, 166464, Note_on_c, 1, 59, 75
3, 166652, Note_off_c, 1, 57, 0
3, 166652, Note_off_c, 1, 59, 0
3, 166848, Note_on_c, 1, 57, 75
3, 167036, Note_off_c, 1, 57, 0
3, 167040, Note_on_c, 1, 60, 75
3, 167228, Note_off_c, 1, 60, 0
3, 167232, Note_on_c, 1, 56, 75
3, 167420, Note_off_c, 1, 56, 0
3, 167616, Note_on_c, 1, 57, 75
3, 167804, Note_off_c, 1, 57, 0
3, 167808, Note_on_c, 1, 64, 75
3, 167996, Note_off_c, 1, 64, 0
3, 168000, Note_on_c, 1, 52, 75
3, 168188, Note_off_c, 1, 52, 0
3, 168384, Note_on_c, 1, 50, 82
3, 168572, Note_off_c, 1, 50, 0
3, 168576, Note_on_c, 1, 62, 82
3, 168764, Note_off_c, 1, 62, 0
3, 168768, Note_on_c, 1, 60, 82
3, 168956, Note_off_c, 1, 60, 0
3, 169152, Note_on_c, 1, 53, 75
3, 169340, Note_off_c, 1, 53, 0
3, 169344, Note_on_c, 1, 65, 75
3, 169532, Note_off_c, 1, 65, 0
3, 169536, Note_on_c, 1, 64, 75
3, 169724, Note_off_c, 1, 64, 0
3, 169728, Note_on_c, 1, 62, 75
3, 170108, Note_off_c, 1, 62, 0
3, 170112, Note_on_c, 1, 64, 75
3, 170492, Note_off_c, 1, 64, 0
3, 170496, Note_on_c, 1, 65, 75
3, 170876, Note_off_c, 1, 65, 0
3, 171456, Note_on_c, 1, 50, 90
3, 171644, Note_off_c, 1, 50, 0
3, 171648, Note_on_c, 1, 62, 60
3, 171836, Note_off_c, 1, 62, 0
3, 171840, Note_on_c, 1, 60, 60
3, 172028, Note_off_c, 1, 60, 0
3, 172224, Note_on_c, 1, 47, 90
3, 172412, Note_off_c, 1, 47, 0
3, 172416, Note_on_c, 1, 59, 60
3, 172604, Note_off_c, 1, 59, 0
3, 172608, Note_on_c, 1, 57, 60
3, 172796, Note_off_c, 1, 57, 0
3, 172800, Note_on_c, 1, 62, 75
3, 173180, Note_off_c, 1, 62, 0
3, 173184, Note_on_c, 1, 64, 75
3, 173564, Note_off_c, 1, 64, 0
3, 173568, Note_on_c, 1, 57, 75
3, 173948, Note_off_c, 1, 57, 0
3, 177600, Note_on_c, 1, 53, 90
3, 177788, Note_off_c, 1, 53, 0
3, 177792, Note_on_c, 1, 65, 60
3, 177980, Note_off_c, 1, 65, 0
3, 177984, Note_on_c, 1, 64, 60
3, 178172, Note_off_c, 1, 64, 0
3, 178368, Note_on_c, 1, 53, 90
3, 178556, Note_off_c, 1, 53, 0
3, 178560, Note_on_c, 1, 65, 60
3, 178748, Note_off_c, 1, 65, 0
3, 178752, Note_on_c, 1, 64, 60
3, 178940, Note_off_c, 1, 64, 0
3, 179136, Note_on_c, 1, 53, 90
3, 179324, Note_off_c, 1, 53, 0
3, 179328, Note_on_c, 1, 65, 60
3, 179516, Note_off_c, 1, 65, 0
3, 179520, Note_on_c, 1, 64, 60
3, 179708, Note_off_c, 1, 64, 0
3, 179904, Note_on_c, 1, 53, 90
3, 180092, Note_off_c, 1, 53, 0
3, 180096, Note_on_c, 1, 65, 60
3, 180284, Note_off_c, 1, 65, 0
3, 180288, Note_on_c, 1, 64, 60
3, 180476, Note_off_c, 1, 64, 0
3, 180480, Note_on_c, 1, 48, 66
3, 180480, Note_on_c, 1, 36, 66
3, 181052, Note_off_c, 1, 48, 0
3, 181052, Note_off_c, 1, 36, 0
3, 181056, Note_on_c, 1, 47, 66
3, 181056, Note_on_c, 1, 35, 66
3, 181244, Note_off_c, 1, 47, 0
3, 181244, Note_off_c, 1, 35, 0
3, 181248, Note_on_c, 1, 45, 75
3, 181248, Note_on_c, 1, 33, 75
3, 181820, Note_off_c, 1, 45, 0
3, 181820, Note_off_c, 1, 33, 0
3, 181824, Note_on_c, 1, 47, 75
3, 181824, Note_on_c, 1, 35, 75
3, 182012, Note_off_c, 1, 47, 0
3, 182012, Note_off_c, 1, 35, 0
3, 182016, Note_on_c, 1, 48, 75
3, 182016, Note_on_c, 1, 36, 75
3, 182588, Note_off_c, 1, 48, 0
3, 182588, Note_off_c, 1, 36, 0
3, 182592, Note_on_c, 1, 50, 75
3, 182592, Note_on_c, 1, 38, 75
3, 182780, Note_off_c, 1, 50, 0
3, 182780, Note_off_c, 1, 38, 0
3, 182784, Note_on_c, 1, 48, 75
3, 182784, Note_on_c, 1, 36, 75
3, 183164, Note_off_c, 1, 48, 0
3, 183164, Note_off_c, 1, 36, 0
3, 183168, Note_on_c, 1, 47, 75
3, 183168, Note_on_c, 1, 35, 75
3, 183548, Note_off_c, 1, 47, 0
3, 183548, Note_off_c, 1, 35, 0
3, 183744, Note_on_c, 1, 52, 75
3, 183932, Note_off_c, 1, 52, 0
3, 183936, Note_on_c, 1, 59, 75
3, 184124, Note_off_c, 1, 59, 0
3, 184128, Note_on_c, 1, 57, 75
3, 184316, Note_off_c, 1, 57, 0
3, 184512, Note_on_c, 1, 52, 75
3, 184700, Note_off_c, 1, 52, 0
3, 184704, Note_on_c, 1, 56, 75
3, 184892, Note_off_c, 1, 56, 0
3, 184896, Note_on_c, 1, 57, 75
3, 185084, Note_off_c, 1, 57, 0
3, 185280, Note_on_c, 1, 52, 75
3, 185468, Note_off_c, 1, 52, 0
3, 185472, Note_on_c, 1, 59, 75
3, 185660, Note_off_c, 1, 59, 0
3, 185664, Note_on_c, 1, 60, 75
3, 185860, Note_off_c, 1, 60, 0
3, 186048, Note_on_c, 1, 52, 75
3, 186236, Note_off_c, 1, 52, 0
3, 186240, Note_on_c, 1, 59, 75
3, 186428, Note_off_c, 1, 59, 0
3, 186432, Note_on_c, 1, 57, 75
3, 186620, Note_off_c, 1, 57, 0
3, 186624, Note_on_c, 1, 48, 90
3, 186812, Note_off_c, 1, 48, 0
3, 186816, Note_on_c, 1, 60, 90
3, 187004, Note_off_c, 1, 60, 0
3, 187008, Note_on_c, 1, 64, 90
3, 187196, Note_off_c, 1, 64, 0
3, 187200, Note_on_c, 1, 59, 90
3, 187388, Note_off_c, 1, 59, 0
3, 187392, Note_on_c, 1, 45, 75
3, 187580, Note_off_c, 1, 45, 0
3, 187584, Note_on_c, 1, 57, 75
3, 187772, Note_off_c, 1, 57, 0
3, 187776, Note_on_c, 1, 60, 75
3, 187964, Note_off_c, 1, 60, 0
3, 187968, Note_on_c, 1, 55, 75
3, 188156, Note_off_c, 1, 55, 0
3, 188160, Note_on_c, 1, 41, 75
3, 188348, Note_off_c, 1, 41, 0
3, 188352, Note_on_c, 1, 53, 75
3, 188540, Note_off_c, 1, 53, 0
3, 188544, Note_on_c, 1, 57, 75
3, 188732, Note_off_c, 1, 57, 0
3, 188736, Note_on_c, 1, 52, 75
3, 188924, Note_off_c, 1, 52, 0
3, 188928, Note_on_c, 1, 38, 75
3, 189116, Note_off_c, 1, 38, 0
3, 189120, Note_on_c, 1, 50, 75
3, 189308, Note_off_c, 1, 50, 0
3, 189312, Note_on_c, 1, 53, 75
3, 189500, Note_off_c, 1, 53, 0
3, 189504, Note_on_c, 1, 48, 75
3, 189692, Note_off_c, 1, 48, 0
3, 189696, Note_on_c, 1, 47, 75
3, 190076, Note_off_c, 1, 47, 0
3, 190080, Note_on_c, 1, 44, 75
3, 190460, Note_off_c, 1, 44, 0
3, 190464, Note_on_c, 1, 45, 75
3, 190844, Note_off_c, 1, 45, 0
3, 190848, Note_on_c, 1, 50, 75
3, 191228, Note_off_c, 1, 50, 0
3, 191232, Note_on_c, 1, 52, 75
3, 191612, Note_off_c, 1, 52, 0
3, 191616, Note_on_c, 1, 40, 75
3, 191996, Note_off_c, 1, 40, 0
3, 192000, Note_on_c, 1, 33, 75
3, 192188, Note_off_c, 1, 33, 0
3, 192192, Note_on_c, 1, 36, 75
3, 192380, Note_off_c, 1, 36, 0
3, 192384, Note_on_c, 1, 40, 75
3, 192572, Note_off_c, 1, 40, 0
3, 192576, Note_on_c, 1, 45, 75
3, 192764, Note_off_c, 1, 45, 0
3, 192768, Note_on_c, 1, 52, 75
3, 192768, Note_on_c, 1, 48, 75
3, 193340, Note_off_c, 1, 52, 0
3, 193340, Note_off_c, 1, 48, 0
3, 193344, Note_on_c, 1, 50, 75
3, 193344, Note_on_c, 1, 47, 75
3, 193532, Note_off_c, 1, 50, 0
3, 193532, Note_off_c, 1, 47, 0
3, 193536, Note_on_c, 1, 48, 75
3, 193536, Note_on_c, 1, 45, 75
3, 194108, Note_off_c, 1, 48, 0
3, 194108, Note_off_c, 1, 45, 0
3, 194112, Note_on_c, 1, 47, 75
3, 194112, Note_on_c, 1, 43, 75
3, 194300, Note_off_c, 1, 47, 0
3, 194300, Note_off_c, 1, 43, 0
3, 194304, Note_on_c, 1, 45, 75
3, 194304, Note_on_c, 1, 41, 75
3, 194876, Note_off_c, 1, 45, 0
3, 194876, Note_off_c, 1, 41, 0
3, 194880, Note_on_c, 1, 43, 75
3, 194880, Note_on_c, 1, 40, 75
3, 195068, Note_off_c, 1, 43, 0
3, 195068, Note_off_c, 1, 40, 0
3, 195072, Note_on_c, 1, 41, 75
3, 195072, Note_on_c, 1, 38, 75
3, 195644, Note_off_c, 1, 41, 0
3, 195644, Note_off_c, 1, 38, 0
3, 195648, Note_on_c, 1, 40, 75
3, 195648, Note_on_c, 1, 36, 75
3, 195836, Note_off_c, 1, 40, 0
3, 195836, Note_off_c, 1, 36, 0
3, 195840, Note_on_c, 1, 38, 75
3, 195840, Note_on_c, 1, 35, 75
3, 196220, Note_off_c, 1, 38, 0
3, 196220, Note_off_c, 1, 35, 0
3, 196224, Note_on_c, 1, 52, 75
3, 196224, Note_on_c, 1, 44, 75
3, 196604, Note_off_c, 1, 52, 0
3, 196604, Note_off_c, 1, 44, 0
3, 196608, Note_on_c, 1, 53, 75
3, 196608, Note_on_c, 1, 45, 75
3, 196988, Note_off_c, 1, 53, 0
3, 196988, Note_off_c, 1, 45, 0
3, 196992, Note_on_c, 1, 50, 75
3, 197372, Note_off_c, 1, 50, 0
3, 197376, Note_on_c, 1, 52, 75
3, 197564, Note_off_c, 1, 52, 0
3, 197568, Note_on_c, 1, 51, 75
3, 197756, Note_off_c, 1, 51, 0
3, 197760, Note_on_c, 1, 52, 75
3, 197948, Note_off_c, 1, 52, 0
3, 197952, Note_on_c, 1, 40, 75
3, 198140, Note_off_c, 1, 40, 0
3, 198336, Note_on_c, 1, 58, 90
3, 198524, Note_off_c, 1, 58, 0
3, 198528, Note_on_c, 1, 57, 60
3, 198716, Note_off_c, 1, 57, 0
3, 198720, Note_on_c, 1, 55, 60
3, 198908, Note_off_c, 1, 55, 0
3, 198912, Note_on_c, 1, 53, 75
3, 199100, Note_off_c, 1, 53, 0
3, 199104, Note_on_c, 1, 52, 75
3, 199292, Note_off_c, 1, 52, 0
3, 199296, Note_on_c, 1, 50, 75
3, 199484, Note_off_c, 1, 50, 0
3, 199488, Note_on_c, 1, 53, 75
3, 199676, Note_off_c, 1, 53, 0
3, 199872, Note_on_c, 1, 60, 90
3, 200060, Note_off_c, 1, 60, 0
3, 200064, Note_on_c, 1, 59, 60
3, 200252, Note_off_c, 1, 59, 0
3, 200256, Note_on_c, 1, 57, 60
3, 200444, Note_off_c, 1, 57, 0
3, 200448, Note_on_c, 1, 56, 75
3, 200636, Note_off_c, 1, 56, 0
3, 200640, Note_on_c, 1, 54, 75
3, 200828, Note_off_c, 1, 54, 0
3, 200832, Note_on_c, 1, 52, 75
3, 201020, Note_off_c, 1, 52, 0
3, 201024, Note_on_c, 1, 56, 75
3, 201212, Note_off_c, 1, 56, 0
3, 201408, Note_on_c, 1, 65, 90
3, 201596, Note_off_c, 1, 65, 0
3, 201600, Note_on_c, 1, 64, 90
3, 201788, Note_off_c, 1, 64, 0
3, 201792, Note_on_c, 1, 62, 90
3, 201980, Note_off_c, 1, 62, 0
3, 201984, Note_on_c, 1, 60, 75
3, 202364, Note_off_c, 1, 60, 0
3, 202368, Note_on_c, 1, 62, 75
3, 202748, Note_off_c, 1, 62, 0
3, 202752, Note_on_c, 1, 64, 75
3, 203132, Note_off_c, 1, 64, 0
3, 203136, Note_on_c, 1, 52, 75
3, 203516, Note_off_c, 1, 52, 0
3, 206976, Note_on_c, 1, 59, 90
3, 206976, Note_on_c, 1, 53, 90
3, 206976, Note_on_c, 1, 50, 90
3, 207356, Note_off_c, 1, 59, 0
3, 207356, Note_off_c, 1, 53, 0
3, 207356, Note_off_c, 1, 50, 0
3, 207360, Note_on_c, 1, 60, 75
3, 207360, Note_on_c, 1, 57, 75
3, 207360, Note_on_c, 1, 52, 75
3, 207740, Note_off_c, 1, 60, 0
3, 207740, Note_off_c, 1, 57, 0
3, 207740, Note_off_c, 1, 52, 0
3, 207744, Note_on_c, 1, 52, 75
3, 207744, Note_on_c, 1, 40, 75
3, 208124, Note_off_c, 1, 52, 0
3, 208124, Note_off_c, 1, 40, 0
3, 211584, Note_on_c, 1, 59, 90
3, 211584, Note_on_c, 1, 53, 90
3, 211584, Note_on_c, 1, 50, 90
3, 211964, Note_off_c, 1, 59, 0
3, 211964, Note_off_c, 1, 53, 0
3, 211964, Note_off_c, 1, 50, 0
3, 211968, Note_on_c, 1, 60, 75
3, 211968, Note_on_c, 1, 57, 75
3, 211968, Note_on_c, 1, 52, 75
3, 212348, Note_off_c, 1, 60, 0
3, 212348, Note_off_c, 1, 57, 0
3, 212348, Note_off_c, 1, 52, 0
3, 212352, Note_on_c, 1, 52, 75
3, 212352, Note_on_c, 1, 40, 75
3, 212732, Note_off_c, 1, 52, 0
3, 212732, Note_off_c, 1, 40, 0
3, 212736, Note_on_c, 1, 45, 75
3, 213116, Note_off_c, 1, 45, 0
3, 214272, Note_on_c, 1, 45, 82
3, 214460, Note_off_c, 1, 45, 0
3, 214464, Note_on_c, 1, 40, 82
3, 214652, Note_off_c, 1, 40, 0
3, 214656, Note_on_c, 1, 48, 82
3, 214844, Note_off_c, 1, 48, 0
3, 214848, Note_on_c, 1, 45, 82
3, 215036, Note_off_c, 1, 45, 0
3, 215040, Note_on_c, 1, 52, 82
3, 215228, Note_off_c, 1, 52, 0
3, 215232, Note_on_c, 1, 48, 82
3, 215420, Note_off_c, 1, 48, 0
3, 215424, Note_on_c, 1, 47, 82
3, 215612, Note_off_c, 1, 47, 0
3, 215616, Note_on_c, 1, 44, 82
3, 215804, Note_off_c, 1, 44, 0
3, 215808, Note_on_c, 1, 45, 75
3, 215996, Note_off_c, 1, 45, 0
3, 216000, Note_on_c, 1, 52, 75
3, 216000, Note_on_c, 1, 40, 75
3, 216188, Note_off_c, 1, 52, 0
3, 216188, Note_off_c, 1, 40, 0
3, 216192, Note_on_c, 1, 52, 75
3, 216192, Note_on_c, 1, 40, 75
3, 216380, Note_off_c, 1, 52, 0
3, 216380, Note_off_c, 1, 40, 0
3, 216384, Note_on_c, 1, 52, 75
3, 216384, Note_on_c, 1, 40, 75
3, 216572, Note_off_c, 1, 52, 0
3, 216572, Note_off_c, 1, 40, 0
3, 216576, Note_on_c, 1, 52, 75
3, 216576, Note_on_c, 1, 40, 75
3, 216764, Note_off_c, 1, 52, 0
3, 216764, Note_off_c, 1, 40, 0
3, 216768, Note_on_c, 1, 52, 75
3, 216768, Note_on_c, 1, 40, 75
3, 216956, Note_off_c, 1, 52, 0
3, 216956, Note_off_c, 1, 40, 0
3, 216960, Note_on_c, 1, 52, 75
3, 216960, Note_on_c, 1, 40, 75
3, 217148, Note_off_c, 1, 52, 0
3, 217148, Note_off_c, 1, 40, 0
3, 217152, Note_on_c, 1, 52, 75
3, 217152, Note_on_c, 1, 40, 75
3, 217340, Note_off_c, 1, 52, 0
3, 217340, Note_off_c, 1, 40, 0
3, 217344, Note_on_c, 1, 57, 75
3, 217344, Note_on_c, 1, 45, 75
3, 217724, Note_off_c, 1, 57, 0
3, 217724, Note_off_c, 1, 45, 0
3, 217728, Note_on_c, 1, 45, 75
3, 217728, Note_on_c, 1, 33, 75
3, 218108, Note_off_c, 1, 45, 0
3, 218108, Note_off_c, 1, 33, 0
3, 218112, Note_on_c, 1, 45, 75
3, 218112, Note_on_c, 1, 33, 75
3, 218492, Note_off_c, 1, 45, 0
3, 218492, Note_off_c, 1, 33, 0
3, 218492, End_track
4, 0, Start_track
4, 0, Key_signature, 0, "major"
4, 109824, Key_signature, 3, "major"
4, 158976, Key_signature, 0, "major"
4, 158976, End_track
5, 0, Start_track
5, 0, Key_signature, 0, "major"
5, 109824, Key_signature, 3, "major"
5, 158976, Key_signature, 0, "major"
5, 158976, End_track
6, 0, Start_track
6, 0, Key_signature, 0, "major"
6, 0, End_track
7, 0, Start_track
7, 0, Key_signature, 0, "major"
7, 0, End_track
8, 0, Start_track
8, 0, Key_signature, 0, "major"
8, 0, End_track
9, 0, Start_track
9, 0, Key_signature, 0, "major"
9, 0, End_track
10, 0, Start_track
10, 0, Key_signature, 0, "major"
10, 0, End_track
11, 0, Start_track
11, 0, Key_signature, 0, "major"
11, 0, End_track
12, 0, Start_track
12, 0, Key_signature, 0, "major"
12, 0, End_track
13, 0, Start_track
13, 0, Key_signature, 0, "major"
13, 0, End_track
14, 0, Start_track
14, 0, Key_signature, 0, "major"
14, 0, End_track
15, 0, Start_track
15, 0, Key_signature, 0, "major"
15, 0, End_track
16, 0, Start_track
16, 0, Key_signature, 0, "major"
16, 0, End_track
17, 0, Start_track
17, 0, Key_signature, 0, "major"
17, 0, End_track
0, 0, End_of_file
