0, 0, Header, 1, 16, 384
1, 0, Start_track
1, 0, Time_signature, 4, 2, 96, 8
1, 0, Sequencer_specific, 3, 0, 0, 65
1, 0, Tempo, 1428571
1, 0, End_track
2, 0, Start_track
2, 0, Title_t, "Mozart - Piano"
2, 0, Control_c, 0, 0, 0
2, 0, Program_c, 0, 0
2, 0, Control_c, 0, 7, 80
2, 0, Control_c, 0, 10, 81
2, 0, Control_c, 0, 91, 48
2, 0, Control_c, 0, 93, 47
2, 0, Key_signature, -2, "minor"
2, 0, Control_c, 0, 121, 0
2, 96, Control_c, 0, 10, 73
2, 144, Control_c, 0, 91, 63
2, 192, Control_c, 0, 93, 40
2, 288, Program_c, 0, 0
2, 1536, Note_on_c, 0, 70, 45
2, 1916, Note_off_c, 0, 70, 0
2, 1920, Note_on_c, 0, 74, 45
2, 2012, Note_off_c, 0, 74, 0
2, 2016, Note_on_c, 0, 75, 45
2, 2060, Note_off_c, 0, 75, 0
2, 2064, Note_on_c, 0, 74, 45
2, 2108, Note_off_c, 0, 74, 0
2, 2112, Note_on_c, 0, 72, 45
2, 2156, Note_off_c, 0, 72, 0
2, 2160, Note_on_c, 0, 74, 45
2, 2204, Note_off_c, 0, 74, 0
2, 2208, Note_on_c, 0, 75, 45
2, 2300, Note_off_c, 0, 75, 0
2, 2304, Note_on_c, 0, 76, 45
2, 2588, Note_off_c, 0, 76, 0
2, 2592, Note_on_c, 0, 77, 45
2, 2684, Note_off_c, 0, 77, 0
2, 2688, Note_on_c, 0, 72, 45
2, 2876, Note_off_c, 0, 72, 0
2, 3072, Note_on_c, 0, 75, 45
2, 3164, Note_off_c, 0, 75, 0
2, 3168, Note_on_c, 0, 77, 45
2, 3212, Note_off_c, 0, 77, 0
2, 3216, Note_on_c, 0, 75, 45
2, 3260, Note_off_c, 0, 75, 0
2, 3264, Note_on_c, 0, 74, 45
2, 3308, Note_off_c, 0, 74, 0
2, 3312, Note_on_c, 0, 75, 45
2, 3356, Note_off_c, 0, 75, 0
2, 3360, Note_on_c, 0, 77, 45
2, 3452, Note_off_c, 0, 77, 0
2, 3456, Note_on_c, 0, 79, 45
2, 3548, Note_off_c, 0, 79, 0
2, 3552, Note_on_c, 0, 81, 45
2, 3596, Note_off_c, 0, 81, 0
2, 3600, Note_on_c, 0, 79, 45
2, 3644, Note_off_c, 0, 79, 0
2, 3648, Note_on_c, 0, 77, 45
2, 3692, Note_off_c, 0, 77, 0
2, 3696, Note_on_c, 0, 79, 45
2, 3740, Note_off_c, 0, 79, 0
2, 3744, Note_on_c, 0, 81, 45
2, 3836, Note_off_c, 0, 81, 0
2, 3840, Note_on_c, 0, 81, 45
2, 3932, Note_off_c, 0, 81, 0
2, 4128, Note_on_c, 0, 82, 45
2, 4220, Note_off_c, 0, 82, 0
2, 4224, Note_on_c, 0, 77, 45
2, 4412, Note_off_c, 0, 77, 0
2, 4608, Note_on_c, 0, 79, 60
2, 4800, Note_on_c, 0, 80, 60
2, 4892, Note_off_c, 0, 79, 0
2, 4892, Note_off_c, 0, 80, 0
2, 4896, Note_on_c, 0, 79, 60
2, 4988, Note_off_c, 0, 79, 0
2, 4992, Note_on_c, 0, 77, 60
2, 5084, Note_off_c, 0, 77, 0
2, 5088, Note_on_c, 0, 75, 60
2, 5180, Note_off_c, 0, 75, 0
2, 5184, Note_on_c, 0, 74, 60
2, 5276, Note_off_c, 0, 74, 0
2, 5280, Note_on_c, 0, 72, 60
2, 5372, Note_off_c, 0, 72, 0
2, 5376, Note_on_c, 0, 76, 60
2, 5468, Note_off_c, 0, 76, 0
2, 5472, Note_on_c, 0, 77, 60
2, 5660, Note_off_c, 0, 77, 0
2, 5664, Note_on_c, 0, 79, 60
2, 5708, Note_off_c, 0, 79, 0
2, 5712, Note_on_c, 0, 77, 60
2, 5756, Note_off_c, 0, 77, 0
2, 5760, Note_on_c, 0, 75, 60
2, 5852, Note_off_c, 0, 75, 0
2, 5856, Note_on_c, 0, 74, 60
2, 5948, Note_off_c, 0, 74, 0
2, 5952, Note_on_c, 0, 72, 60
2, 6044, Note_off_c, 0, 72, 0
2, 6048, Note_on_c, 0, 70, 60
2, 6140, Note_off_c, 0, 70, 0
2, 6144, Note_on_c, 0, 77, 90
2, 6236, Note_off_c, 0, 77, 0
2, 6240, Note_on_c, 0, 75, 60
2, 6428, Note_off_c, 0, 75, 0
2, 6432, Note_on_c, 0, 72, 60
2, 6524, Note_off_c, 0, 72, 0
2, 6528, Note_on_c, 0, 75, 90
2, 6620, Note_off_c, 0, 75, 0
2, 6624, Note_on_c, 0, 74, 60
2, 6812, Note_off_c, 0, 74, 0
2, 6816, Note_on_c, 0, 70, 60
2, 6908, Note_off_c, 0, 70, 0
2, 6928, Note_on_c, 0, 74, 60
2, 7200, Note_on_c, 0, 75, 60
2, 7212, Note_off_c, 0, 74, 0
2, 7244, Note_off_c, 0, 75, 0
2, 7248, Note_on_c, 0, 74, 60
2, 7292, Note_off_c, 0, 74, 0
2, 7296, Note_on_c, 0, 72, 60
2, 7388, Note_off_c, 0, 72, 0
2, 7392, Note_on_c, 0, 77, 60
2, 7484, Note_off_c, 0, 77, 0
2, 7488, Note_on_c, 0, 75, 60
2, 7580, Note_off_c, 0, 75, 0
2, 7584, Note_on_c, 0, 72, 60
2, 7676, Note_off_c, 0, 72, 0
2, 7680, Note_on_c, 0, 70, 60
2, 7772, Note_off_c, 0, 70, 0
2, 7776, Note_on_c, 0, 72, 60
2, 7820, Note_off_c, 0, 72, 0
2, 7824, Note_on_c, 0, 70, 60
2, 7868, Note_off_c, 0, 70, 0
2, 7872, Note_on_c, 0, 69, 60
2, 7916, Note_off_c, 0, 69, 0
2, 7920, Note_on_c, 0, 70, 60
2, 7964, Note_off_c, 0, 70, 0
2, 7968, Note_on_c, 0, 72, 60
2, 8060, Note_off_c, 0, 72, 0
2, 8064, Note_on_c, 0, 73, 60
2, 8156, Note_off_c, 0, 73, 0
2, 8160, Note_on_c, 0, 75, 60
2, 8204, Note_off_c, 0, 75, 0
2, 8208, Note_on_c, 0, 73, 60
2, 8252, Note_off_c, 0, 73, 0
2, 8256, Note_on_c, 0, 72, 60
2, 8300, Note_off_c, 0, 72, 0
2, 8304, Note_on_c, 0, 73, 60
2, 8348, Note_off_c, 0, 73, 0
2, 8352, Note_on_c, 0, 75, 60
2, 8444, Note_off_c, 0, 75, 0
2, 8448, Note_on_c, 0, 76, 60
2, 8732, Note_off_c, 0, 76, 0
2, 8736, Note_on_c, 0, 77, 60
2, 8828, Note_off_c, 0, 77, 0
2, 8832, Note_on_c, 0, 72, 60
2, 9020, Note_off_c, 0, 72, 0
2, 9216, Note_on_c, 0, 75, 67
2, 9308, Note_off_c, 0, 75, 0
2, 9312, Note_on_c, 0, 77, 69
2, 9356, Note_off_c, 0, 77, 0
2, 9360, Note_on_c, 0, 75, 70
2, 9404, Note_off_c, 0, 75, 0
2, 9408, Note_on_c, 0, 74, 72
2, 9452, Note_off_c, 0, 74, 0
2, 9456, Note_on_c, 0, 75, 73
2, 9500, Note_off_c, 0, 75, 0
2, 9504, Note_on_c, 0, 77, 75
2, 9596, Note_off_c, 0, 77, 0
2, 9616, Note_on_c, 0, 78, 76
2, 9696, Note_on_c, 0, 80, 78
2, 9708, Note_off_c, 0, 78, 0
2, 9740, Note_off_c, 0, 80, 0
2, 9744, Note_on_c, 0, 78, 79
2, 9788, Note_off_c, 0, 78, 0
2, 9792, Note_on_c, 0, 77, 81
2, 9836, Note_off_c, 0, 77, 0
2, 9840, Note_on_c, 0, 78, 82
2, 9884, Note_off_c, 0, 78, 0
2, 9888, Note_on_c, 0, 80, 84
2, 9980, Note_off_c, 0, 80, 0
2, 9984, Note_on_c, 0, 81, 85
2, 10268, Note_off_c, 0, 81, 0
2, 10272, Note_on_c, 0, 82, 87
2, 10364, Note_off_c, 0, 82, 0
2, 10368, Note_on_c, 0, 77, 88
2, 10556, Note_off_c, 0, 77, 0
2, 10752, Note_on_c, 0, 76, 90
2, 10796, Note_off_c, 0, 76, 0
2, 10800, Note_on_c, 0, 85, 90
2, 11136, Note_on_c, 0, 85, 90
2, 11180, Note_off_c, 0, 85, 0
2, 11228, Note_off_c, 0, 85, 0
2, 11232, Note_on_c, 0, 84, 60
2, 11276, Note_off_c, 0, 84, 0
2, 11280, Note_on_c, 0, 82, 60
2, 11324, Note_off_c, 0, 82, 0
2, 11328, Note_on_c, 0, 80, 60
2, 11372, Note_off_c, 0, 80, 0
2, 11376, Note_on_c, 0, 79, 60
2, 11420, Note_off_c, 0, 79, 0
2, 11424, Note_on_c, 0, 77, 60
2, 11468, Note_off_c, 0, 77, 0
2, 11472, Note_on_c, 0, 76, 60
2, 11516, Note_off_c, 0, 76, 0
2, 11520, Note_on_c, 0, 79, 60
2, 11708, Note_off_c, 0, 79, 0
2, 11712, Note_on_c, 0, 77, 60
2, 11900, Note_off_c, 0, 77, 0
2, 11904, Note_on_c, 0, 77, 60
2, 11996, Note_off_c, 0, 77, 0
2, 12000, Note_on_c, 0, 75, 60
2, 12188, Note_off_c, 0, 75, 0
2, 12192, Note_on_c, 0, 73, 60
2, 12284, Note_off_c, 0, 73, 0
2, 12288, Note_on_c, 0, 72, 60
2, 12380, Note_off_c, 0, 72, 0
2, 12384, Note_on_c, 0, 73, 60
2, 12428, Note_off_c, 0, 73, 0
2, 12432, Note_on_c, 0, 72, 60
2, 12476, Note_off_c, 0, 72, 0
2, 12480, Note_on_c, 0, 70, 60
2, 12524, Note_off_c, 0, 70, 0
2, 12528, Note_on_c, 0, 72, 60
2, 12572, Note_off_c, 0, 72, 0
2, 12576, Note_on_c, 0, 73, 60
2, 12668, Note_off_c, 0, 73, 0
2, 12672, Note_on_c, 0, 65, 60
2, 12672, Note_on_c, 0, 65, 60
2, 12860, Note_off_c, 0, 65, 0
2, 12860, Note_off_c, 0, 65, 0
2, 12864, Note_on_c, 0, 68, 60
2, 12864, Note_on_c, 0, 64, 60
2, 12956, Note_off_c, 0, 68, 0
2, 12960, Note_on_c, 0, 67, 60
2, 13052, Note_off_c, 0, 64, 0
2, 13052, Note_off_c, 0, 67, 0
2, 13056, Note_on_c, 0, 65, 60
2, 13056, Note_on_c, 0, 65, 60
2, 13436, Note_off_c, 0, 65, 0
2, 13436, Note_off_c, 0, 65, 0
2, 13824, Note_on_c, 0, 70, 60
2, 14012, Note_off_c, 0, 70, 0
2, 14208, Note_on_c, 0, 67, 60
2, 14396, Note_off_c, 0, 67, 0
2, 14400, Note_on_c, 0, 64, 60
2, 14588, Note_off_c, 0, 64, 0
2, 14592, Note_on_c, 0, 72, 60
2, 14732, Note_off_c, 0, 72, 0
2, 14736, Note_on_c, 0, 69, 60
2, 14780, Note_off_c, 0, 69, 0
2, 14784, Note_on_c, 0, 72, 60
2, 14972, Note_off_c, 0, 72, 0
2, 15360, Note_on_c, 0, 70, 60
2, 15548, Note_off_c, 0, 70, 0
2, 15744, Note_on_c, 0, 70, 60
2, 15932, Note_off_c, 0, 70, 0
2, 15936, Note_on_c, 0, 64, 60
2, 16124, Note_off_c, 0, 64, 0
2, 16128, Note_on_c, 0, 72, 60
2, 16268, Note_off_c, 0, 72, 0
2, 16288, Note_on_c, 0, 69, 60
2, 16320, Note_on_c, 0, 72, 60
2, 16332, Note_off_c, 0, 69, 0
2, 16508, Note_off_c, 0, 72, 0
2, 16512, Note_on_c, 0, 77, 90
2, 16512, Note_on_c, 0, 81, 90
2, 16604, Note_off_c, 0, 77, 0
2, 16604, Note_off_c, 0, 81, 0
2, 16608, Note_on_c, 0, 76, 60
2, 16608, Note_on_c, 0, 79, 60
2, 16700, Note_off_c, 0, 76, 0
2, 16700, Note_off_c, 0, 79, 0
2, 16704, Note_on_c, 0, 77, 60
2, 16704, Note_on_c, 0, 74, 60
2, 16796, Note_off_c, 0, 77, 0
2, 16796, Note_off_c, 0, 74, 0
2, 16800, Note_on_c, 0, 76, 60
2, 16800, Note_on_c, 0, 73, 60
2, 16892, Note_off_c, 0, 76, 0
2, 16892, Note_off_c, 0, 73, 0
2, 16896, Note_on_c, 0, 77, 90
2, 16896, Note_on_c, 0, 74, 90
2, 16988, Note_off_c, 0, 77, 0
2, 16988, Note_off_c, 0, 74, 0
2, 16992, Note_on_c, 0, 76, 60
2, 16992, Note_on_c, 0, 72, 60
2, 17084, Note_off_c, 0, 76, 0
2, 17084, Note_off_c, 0, 72, 0
2, 17088, Note_on_c, 0, 74, 60
2, 17088, Note_on_c, 0, 70, 60
2, 17180, Note_off_c, 0, 74, 0
2, 17180, Note_off_c, 0, 70, 0
2, 17184, Note_on_c, 0, 73, 60
2, 17184, Note_on_c, 0, 69, 60
2, 17276, Note_off_c, 0, 73, 0
2, 17276, Note_off_c, 0, 69, 0
2, 17280, Note_on_c, 0, 74, 90
2, 17280, Note_on_c, 0, 70, 90
2, 17372, Note_off_c, 0, 74, 0
2, 17372, Note_off_c, 0, 70, 0
2, 17376, Note_on_c, 0, 72, 60
2, 17376, Note_on_c, 0, 69, 60
2, 17468, Note_off_c, 0, 72, 0
2, 17468, Note_off_c, 0, 69, 0
2, 17472, Note_on_c, 0, 70, 60
2, 17472, Note_on_c, 0, 67, 60
2, 17564, Note_off_c, 0, 70, 0
2, 17564, Note_off_c, 0, 67, 0
2, 17568, Note_on_c, 0, 69, 60
2, 17568, Note_on_c, 0, 66, 60
2, 17660, Note_off_c, 0, 69, 0
2, 17660, Note_off_c, 0, 66, 0
2, 17664, Note_on_c, 0, 69, 90
2, 17664, Note_on_c, 0, 66, 90
2, 17664, Note_on_c, 0, 62, 90
2, 18044, Note_off_c, 0, 69, 0
2, 18044, Note_off_c, 0, 66, 0
2, 18044, Note_off_c, 0, 62, 0
2, 18048, Note_on_c, 0, 67, 60
2, 18048, Note_on_c, 0, 62, 60
2, 18048, Note_on_c, 0, 70, 60
2, 18140, Note_off_c, 0, 67, 0
2, 18140, Note_off_c, 0, 62, 0
2, 18140, Note_off_c, 0, 70, 0
2, 18144, Note_on_c, 0, 72, 60
2, 18164, Note_off_c, 0, 72, 0
2, 18168, Note_on_c, 0, 70, 60
2, 18188, Note_off_c, 0, 70, 0
2, 18192, Note_on_c, 0, 69, 60
2, 18212, Note_off_c, 0, 69, 0
2, 18216, Note_on_c, 0, 70, 60
2, 18236, Note_off_c, 0, 70, 0
2, 18240, Note_on_c, 0, 72, 60
2, 18332, Note_off_c, 0, 72, 0
2, 18336, Note_on_c, 0, 74, 60
2, 18428, Note_off_c, 0, 74, 0
2, 18432, Note_on_c, 0, 72, 60
2, 18492, Note_off_c, 0, 72, 0
2, 18496, Note_on_c, 0, 70, 60
2, 18556, Note_off_c, 0, 70, 0
2, 18560, Note_on_c, 0, 69, 60
2, 18620, Note_off_c, 0, 69, 0
2, 18624, Note_on_c, 0, 67, 60
2, 18684, Note_off_c, 0, 67, 0
2, 18688, Note_on_c, 0, 70, 60
2, 18748, Note_off_c, 0, 70, 0
2, 18752, Note_on_c, 0, 74, 60
2, 18812, Note_off_c, 0, 74, 0
2, 18816, Note_on_c, 0, 65, 60
2, 19004, Note_off_c, 0, 65, 0
2, 19008, Note_on_c, 0, 67, 60
2, 19008, Note_on_c, 0, 64, 60
2, 19196, Note_off_c, 0, 67, 0
2, 19196, Note_off_c, 0, 64, 0
2, 19200, Note_on_c, 0, 67, 60
2, 19200, Note_on_c, 0, 64, 60
2, 19344, Note_on_c, 0, 68, 60
2, 19388, Note_off_c, 0, 67, 0
2, 19388, Note_off_c, 0, 64, 0
2, 19388, Note_off_c, 0, 68, 0
2, 19392, Note_on_c, 0, 69, 60
2, 19392, Note_on_c, 0, 65, 60
2, 19580, Note_off_c, 0, 69, 0
2, 19580, Note_off_c, 0, 65, 0
2, 19968, Note_on_c, 0, 70, 60
2, 20156, Note_off_c, 0, 70, 0
2, 20376, Note_on_c, 0, 67, 60
2, 20544, Note_on_c, 0, 64, 60
2, 20564, Note_off_c, 0, 67, 0
2, 20732, Note_off_c, 0, 64, 0
2, 20736, Note_on_c, 0, 72, 60
2, 20880, Note_off_c, 0, 72, 0
2, 20880, Note_on_c, 0, 69, 60
2, 20924, Note_off_c, 0, 69, 0
2, 20928, Note_on_c, 0, 72, 60
2, 21116, Note_off_c, 0, 72, 0
2, 21504, Note_on_c, 0, 70, 60
2, 21692, Note_off_c, 0, 70, 0
2, 21888, Note_on_c, 0, 67, 60
2, 22076, Note_off_c, 0, 67, 0
2, 22080, Note_on_c, 0, 64, 60
2, 22268, Note_off_c, 0, 64, 0
2, 22272, Note_on_c, 0, 72, 60
2, 22412, Note_off_c, 0, 72, 0
2, 22416, Note_on_c, 0, 77, 60
2, 22460, Note_off_c, 0, 77, 0
2, 22464, Note_on_c, 0, 72, 60
2, 22652, Note_off_c, 0, 72, 0
2, 22656, Note_on_c, 0, 81, 90
2, 22656, Note_on_c, 0, 77, 90
2, 22748, Note_off_c, 0, 81, 0
2, 22748, Note_off_c, 0, 77, 0
2, 22752, Note_on_c, 0, 79, 60
2, 22752, Note_on_c, 0, 76, 60
2, 22844, Note_off_c, 0, 79, 0
2, 22844, Note_off_c, 0, 76, 0
2, 22848, Note_on_c, 0, 77, 60
2, 22848, Note_on_c, 0, 74, 60
2, 22940, Note_off_c, 0, 77, 0
2, 22940, Note_off_c, 0, 74, 0
2, 22944, Note_on_c, 0, 76, 60
2, 22944, Note_on_c, 0, 73, 60
2, 23036, Note_off_c, 0, 76, 0
2, 23036, Note_off_c, 0, 73, 0
2, 23040, Note_on_c, 0, 77, 90
2, 23040, Note_on_c, 0, 74, 90
2, 23132, Note_off_c, 0, 77, 0
2, 23132, Note_off_c, 0, 74, 0
2, 23136, Note_on_c, 0, 76, 60
2, 23136, Note_on_c, 0, 72, 60
2, 23228, Note_off_c, 0, 76, 0
2, 23228, Note_off_c, 0, 72, 0
2, 23232, Note_on_c, 0, 74, 60
2, 23232, Note_on_c, 0, 70, 60
2, 23324, Note_off_c, 0, 74, 0
2, 23324, Note_off_c, 0, 70, 0
2, 23328, Note_on_c, 0, 73, 60
2, 23328, Note_on_c, 0, 69, 60
2, 23420, Note_off_c, 0, 73, 0
2, 23420, Note_off_c, 0, 69, 0
2, 23424, Note_on_c, 0, 74, 90
2, 23424, Note_on_c, 0, 70, 90
2, 23516, Note_off_c, 0, 74, 0
2, 23516, Note_off_c, 0, 70, 0
2, 23520, Note_on_c, 0, 72, 60
2, 23520, Note_on_c, 0, 69, 60
2, 23612, Note_off_c, 0, 72, 0
2, 23612, Note_off_c, 0, 69, 0
2, 23616, Note_on_c, 0, 70, 60
2, 23616, Note_on_c, 0, 67, 60
2, 23708, Note_off_c, 0, 70, 0
2, 23708, Note_off_c, 0, 67, 0
2, 23712, Note_on_c, 0, 69, 60
2, 23712, Note_on_c, 0, 66, 60
2, 23804, Note_off_c, 0, 69, 0
2, 23804, Note_off_c, 0, 66, 0
2, 23808, Note_on_c, 0, 62, 87
2, 23808, Note_on_c, 0, 66, 87
2, 23808, Note_on_c, 0, 69, 87
2, 24188, Note_off_c, 0, 62, 0
2, 24188, Note_off_c, 0, 66, 0
2, 24188, Note_off_c, 0, 69, 0
2, 24192, Note_on_c, 0, 62, 60
2, 24192, Note_on_c, 0, 67, 60
2, 24192, Note_on_c, 0, 70, 60
2, 24288, Note_on_c, 0, 72, 60
2, 24308, Note_off_c, 0, 72, 0
2, 24312, Note_on_c, 0, 70, 60
2, 24332, Note_off_c, 0, 70, 0
2, 24336, Note_on_c, 0, 69, 60
2, 24356, Note_off_c, 0, 69, 0
2, 24360, Note_on_c, 0, 70, 60
2, 24380, Note_off_c, 0, 62, 0
2, 24380, Note_off_c, 0, 67, 0
2, 24380, Note_off_c, 0, 70, 0
2, 24380, Note_off_c, 0, 70, 0
2, 24384, Note_on_c, 0, 72, 60
2, 24476, Note_off_c, 0, 72, 0
2, 24480, Note_on_c, 0, 74, 60
2, 24572, Note_off_c, 0, 74, 0
2, 24576, Note_on_c, 0, 72, 60
2, 24636, Note_off_c, 0, 72, 0
2, 24640, Note_on_c, 0, 77, 60
2, 24700, Note_off_c, 0, 77, 0
2, 24704, Note_on_c, 0, 69, 60
2, 24764, Note_off_c, 0, 69, 0
2, 24768, Note_on_c, 0, 67, 60
2, 24828, Note_off_c, 0, 67, 0
2, 24832, Note_on_c, 0, 70, 60
2, 24892, Note_off_c, 0, 70, 0
2, 24896, Note_on_c, 0, 74, 60
2, 24956, Note_off_c, 0, 74, 0
2, 24960, Note_on_c, 0, 65, 60
2, 25148, Note_off_c, 0, 65, 0
2, 25152, Note_on_c, 0, 64, 60
2, 25340, Note_off_c, 0, 64, 0
2, 25344, Note_on_c, 0, 69, 90
2, 25388, Note_off_c, 0, 69, 0
2, 25392, Note_on_c, 0, 81, 90
2, 25440, Note_on_c, 0, 81, 90
2, 25488, Note_on_c, 0, 77, 90
2, 25508, Note_off_c, 0, 81, 0
2, 25508, Note_off_c, 0, 77, 0
2, 25520, Note_off_c, 0, 81, 0
2, 25536, Note_on_c, 0, 77, 90
2, 25556, Note_off_c, 0, 77, 0
2, 25560, Note_on_c, 0, 79, 90
2, 25580, Note_off_c, 0, 79, 0
2, 25584, Note_on_c, 0, 77, 90
2, 25604, Note_off_c, 0, 77, 0
2, 25608, Note_on_c, 0, 79, 90
2, 25628, Note_off_c, 0, 79, 0
2, 25632, Note_on_c, 0, 77, 90
2, 25652, Note_off_c, 0, 77, 0
2, 25656, Note_on_c, 0, 79, 90
2, 25676, Note_off_c, 0, 79, 0
2, 25680, Note_on_c, 0, 76, 90
2, 25700, Note_off_c, 0, 76, 0
2, 25704, Note_on_c, 0, 77, 90
2, 25724, Note_off_c, 0, 77, 0
2, 25728, Note_on_c, 0, 70, 90
2, 25772, Note_off_c, 0, 70, 0
2, 25776, Note_on_c, 0, 82, 90
2, 25824, Note_on_c, 0, 82, 90
2, 25872, Note_on_c, 0, 79, 90
2, 25892, Note_off_c, 0, 82, 0
2, 25892, Note_off_c, 0, 79, 0
2, 25904, Note_off_c, 0, 82, 0
2, 25920, Note_on_c, 0, 79, 90
2, 25940, Note_off_c, 0, 79, 0
2, 25944, Note_on_c, 0, 81, 90
2, 25964, Note_off_c, 0, 81, 0
2, 25968, Note_on_c, 0, 79, 90
2, 25988, Note_off_c, 0, 79, 0
2, 25992, Note_on_c, 0, 81, 90
2, 26012, Note_off_c, 0, 81, 0
2, 26016, Note_on_c, 0, 79, 90
2, 26036, Note_off_c, 0, 79, 0
2, 26040, Note_on_c, 0, 81, 90
2, 26060, Note_off_c, 0, 81, 0
2, 26064, Note_on_c, 0, 78, 90
2, 26084, Note_off_c, 0, 78, 0
2, 26088, Note_on_c, 0, 79, 90
2, 26108, Note_off_c, 0, 79, 0
2, 26112, Note_on_c, 0, 84, 90
2, 26252, Note_off_c, 0, 84, 0
2, 26256, Note_on_c, 0, 81, 90
2, 26300, Note_off_c, 0, 81, 0
2, 26304, Note_on_c, 0, 77, 90
2, 26492, Note_off_c, 0, 77, 0
2, 26496, Note_on_c, 0, 77, 90
2, 26588, Note_off_c, 0, 77, 0
2, 26592, Note_on_c, 0, 75, 90
2, 26684, Note_off_c, 0, 75, 0
2, 26688, Note_on_c, 0, 74, 90
2, 26780, Note_off_c, 0, 74, 0
2, 26784, Note_on_c, 0, 73, 90
2, 26876, Note_off_c, 0, 73, 0
2, 26880, Note_on_c, 0, 74, 90
2, 26972, Note_off_c, 0, 74, 0
2, 26976, Note_on_c, 0, 76, 90
2, 27020, Note_off_c, 0, 76, 0
2, 27024, Note_on_c, 0, 78, 90
2, 27068, Note_off_c, 0, 78, 0
2, 27072, Note_on_c, 0, 79, 90
2, 27116, Note_off_c, 0, 79, 0
2, 27120, Note_on_c, 0, 81, 90
2, 27164, Note_off_c, 0, 81, 0
2, 27168, Note_on_c, 0, 82, 90
2, 27212, Note_off_c, 0, 82, 0
2, 27216, Note_on_c, 0, 85, 90
2, 27260, Note_off_c, 0, 85, 0
2, 27264, Note_on_c, 0, 86, 90
2, 27308, Note_off_c, 0, 86, 0
2, 27312, Note_on_c, 0, 84, 60
2, 27356, Note_off_c, 0, 84, 0
2, 27360, Note_on_c, 0, 82, 60
2, 27404, Note_off_c, 0, 82, 0
2, 27408, Note_on_c, 0, 81, 60
2, 27452, Note_off_c, 0, 81, 0
2, 27456, Note_on_c, 0, 79, 60
2, 27500, Note_off_c, 0, 79, 0
2, 27504, Note_on_c, 0, 77, 60
2, 27548, Note_off_c, 0, 77, 0
2, 27552, Note_on_c, 0, 76, 60
2, 27596, Note_off_c, 0, 76, 0
2, 27600, Note_on_c, 0, 74, 60
2, 27644, Note_off_c, 0, 74, 0
2, 27648, Note_on_c, 0, 72, 60
2, 27836, Note_off_c, 0, 72, 0
2, 27840, Note_on_c, 0, 84, 90
2, 28028, Note_off_c, 0, 84, 0
2, 28032, Note_on_c, 0, 84, 60
2, 28124, Note_off_c, 0, 84, 0
2, 28128, Note_on_c, 0, 81, 60
2, 28220, Note_off_c, 0, 81, 0
2, 28224, Note_on_c, 0, 77, 60
2, 28316, Note_off_c, 0, 77, 0
2, 28320, Note_on_c, 0, 72, 60
2, 28364, Note_off_c, 0, 72, 0
2, 28368, Note_on_c, 0, 69, 60
2, 28412, Note_off_c, 0, 69, 0
2, 28416, Note_on_c, 0, 77, 60
2, 28460, Note_off_c, 0, 77, 0
2, 28512, Note_on_c, 0, 65, 60
2, 28556, Note_off_c, 0, 65, 0
2, 28560, Note_on_c, 0, 67, 60
2, 28580, Note_off_c, 0, 67, 0
2, 28584, Note_on_c, 0, 69, 60
2, 28604, Note_off_c, 0, 69, 0
2, 28608, Note_on_c, 0, 67, 60
2, 28628, Note_off_c, 0, 67, 0
2, 28632, Note_on_c, 0, 69, 60
2, 28652, Note_off_c, 0, 69, 0
2, 28656, Note_on_c, 0, 67, 60
2, 28676, Note_off_c, 0, 67, 0
2, 28680, Note_on_c, 0, 69, 60
2, 28700, Note_off_c, 0, 69, 0
2, 28704, Note_on_c, 0, 67, 60
2, 28724, Note_off_c, 0, 67, 0
2, 28728, Note_on_c, 0, 69, 60
2, 28748, Note_off_c, 0, 69, 0
2, 28752, Note_on_c, 0, 67, 60
2, 28772, Note_off_c, 0, 67, 0
2, 28776, Note_on_c, 0, 69, 60
2, 28796, Note_off_c, 0, 69, 0
2, 28800, Note_on_c, 0, 67, 60
2, 28820, Note_off_c, 0, 67, 0
2, 28824, Note_on_c, 0, 69, 60
2, 28844, Note_off_c, 0, 69, 0
2, 28848, Note_on_c, 0, 67, 60
2, 28868, Note_off_c, 0, 67, 0
2, 28872, Note_on_c, 0, 69, 60
2, 28892, Note_off_c, 0, 69, 0
2, 28896, Note_on_c, 0, 67, 60
2, 28916, Note_off_c, 0, 67, 0
2, 28920, Note_on_c, 0, 69, 60
2, 28940, Note_off_c, 0, 69, 0
2, 28944, Note_on_c, 0, 67, 60
2, 28964, Note_off_c, 0, 67, 0
2, 28968, Note_on_c, 0, 69, 60
2, 28988, Note_off_c, 0, 69, 0
2, 28992, Note_on_c, 0, 67, 60
2, 29012, Note_off_c, 0, 67, 0
2, 29016, Note_on_c, 0, 69, 60
2, 29036, Note_off_c, 0, 69, 0
2, 29040, Note_on_c, 0, 67, 60
2, 29060, Note_off_c, 0, 67, 0
2, 29064, Note_on_c, 0, 69, 60
2, 29084, Note_off_c, 0, 69, 0
2, 29088, Note_on_c, 0, 65, 60
2, 29132, Note_off_c, 0, 65, 0
2, 29136, Note_on_c, 0, 67, 60
2, 29180, Note_off_c, 0, 67, 0
2, 29184, Note_on_c, 0, 65, 60
2, 29372, Note_off_c, 0, 65, 0
2, 29424, Note_on_c, 0, 77, 60
2, 29468, Note_off_c, 0, 77, 0
2, 29472, Note_on_c, 0, 77, 60
2, 29564, Note_off_c, 0, 77, 0
2, 29568, Note_on_c, 0, 84, 60
2, 29660, Note_off_c, 0, 84, 0
2, 29664, Note_on_c, 0, 82, 60
2, 29756, Note_off_c, 0, 82, 0
2, 29760, Note_on_c, 0, 81, 60
2, 29852, Note_off_c, 0, 81, 0
2, 29856, Note_on_c, 0, 79, 60
2, 29948, Note_off_c, 0, 79, 0
2, 29952, Note_on_c, 0, 79, 60
2, 30044, Note_off_c, 0, 79, 0
2, 30048, Note_on_c, 0, 77, 60
2, 30140, Note_off_c, 0, 77, 0
2, 30192, Note_on_c, 0, 77, 60
2, 30236, Note_off_c, 0, 77, 0
2, 30240, Note_on_c, 0, 77, 60
2, 30332, Note_off_c, 0, 77, 0
2, 30336, Note_on_c, 0, 84, 60
2, 30428, Note_off_c, 0, 84, 0
2, 30432, Note_on_c, 0, 82, 60
2, 30524, Note_off_c, 0, 82, 0
2, 30528, Note_on_c, 0, 81, 60
2, 30620, Note_off_c, 0, 81, 0
2, 30624, Note_on_c, 0, 79, 60
2, 30716, Note_off_c, 0, 79, 0
2, 30720, Note_on_c, 0, 79, 60
2, 30764, Note_off_c, 0, 79, 0
2, 30768, Note_on_c, 0, 77, 60
2, 30912, Note_on_c, 0, 77, 60
2, 30956, Note_off_c, 0, 77, 0
2, 31100, Note_off_c, 0, 77, 0
2, 31104, Note_on_c, 0, 77, 60
2, 31292, Note_off_c, 0, 77, 0
2, 31296, Note_on_c, 0, 77, 60
2, 31484, Note_off_c, 0, 77, 0
2, 31488, Note_on_c, 0, 77, 60
2, 31868, Note_off_c, 0, 77, 0
2, 31872, Note_on_c, 0, 76, 60
2, 31916, Note_off_c, 0, 76, 0
2, 31920, Note_on_c, 0, 77, 60
2, 31964, Note_off_c, 0, 77, 0
2, 31968, Note_on_c, 0, 79, 60
2, 32012, Note_off_c, 0, 79, 0
2, 32016, Note_on_c, 0, 77, 60
2, 32060, Note_off_c, 0, 77, 0
2, 32064, Note_on_c, 0, 77, 60
2, 32108, Note_off_c, 0, 77, 0
2, 32112, Note_on_c, 0, 75, 60
2, 32156, Note_off_c, 0, 75, 0
2, 32160, Note_on_c, 0, 74, 60
2, 32204, Note_off_c, 0, 74, 0
2, 32208, Note_on_c, 0, 72, 60
2, 32252, Note_off_c, 0, 72, 0
2, 32256, Note_on_c, 0, 78, 60
2, 32300, Note_off_c, 0, 78, 0
2, 32304, Note_on_c, 0, 79, 60
2, 32544, Note_on_c, 0, 81, 60
2, 32588, Note_off_c, 0, 79, 0
2, 32588, Note_off_c, 0, 81, 0
2, 32592, Note_on_c, 0, 79, 60
2, 32636, Note_off_c, 0, 79, 0
2, 32640, Note_on_c, 0, 77, 60
2, 32732, Note_off_c, 0, 77, 0
2, 32736, Note_on_c, 0, 75, 60
2, 32828, Note_off_c, 0, 75, 0
2, 32832, Note_on_c, 0, 74, 60
2, 32924, Note_off_c, 0, 74, 0
2, 32928, Note_on_c, 0, 72, 60
2, 33020, Note_off_c, 0, 72, 0
2, 33024, Note_on_c, 0, 79, 60
2, 33068, Note_off_c, 0, 79, 0
2, 33072, Note_on_c, 0, 77, 60
2, 33312, Note_on_c, 0, 79, 60
2, 33356, Note_off_c, 0, 77, 0
2, 33356, Note_off_c, 0, 79, 0
2, 33360, Note_on_c, 0, 77, 60
2, 33404, Note_off_c, 0, 77, 0
2, 33408, Note_on_c, 0, 77, 60
2, 33452, Note_off_c, 0, 77, 0
2, 33456, Note_on_c, 0, 75, 60
2, 33500, Note_off_c, 0, 75, 0
2, 33504, Note_on_c, 0, 75, 60
2, 33548, Note_off_c, 0, 75, 0
2, 33552, Note_on_c, 0, 74, 60
2, 33596, Note_off_c, 0, 74, 0
2, 33600, Note_on_c, 0, 74, 60
2, 33644, Note_off_c, 0, 74, 0
2, 33648, Note_on_c, 0, 72, 60
2, 33692, Note_off_c, 0, 72, 0
2, 33696, Note_on_c, 0, 72, 60
2, 33740, Note_off_c, 0, 72, 0
2, 33744, Note_on_c, 0, 70, 60
2, 33788, Note_off_c, 0, 70, 0
2, 33792, Note_on_c, 0, 75, 60
2, 33864, Note_on_c, 0, 77, 60
2, 33884, Note_off_c, 0, 75, 0
2, 33908, Note_off_c, 0, 77, 0
2, 33936, Note_on_c, 0, 75, 60
2, 33980, Note_off_c, 0, 75, 0
2, 33984, Note_on_c, 0, 74, 60
2, 34028, Note_off_c, 0, 74, 0
2, 34032, Note_on_c, 0, 75, 60
2, 34076, Note_off_c, 0, 75, 0
2, 34080, Note_on_c, 0, 77, 60
2, 34172, Note_off_c, 0, 77, 0
2, 34176, Note_on_c, 0, 79, 60
2, 34268, Note_off_c, 0, 79, 0
2, 34272, Note_on_c, 0, 81, 60
2, 34316, Note_off_c, 0, 81, 0
2, 34320, Note_on_c, 0, 79, 60
2, 34364, Note_off_c, 0, 79, 0
2, 34368, Note_on_c, 0, 77, 60
2, 34412, Note_off_c, 0, 77, 0
2, 34416, Note_on_c, 0, 79, 60
2, 34460, Note_off_c, 0, 79, 0
2, 34464, Note_on_c, 0, 81, 60
2, 34556, Note_off_c, 0, 81, 0
2, 34584, Note_on_c, 0, 81, 60
2, 34848, Note_on_c, 0, 82, 60
2, 34868, Note_off_c, 0, 81, 0
2, 34940, Note_off_c, 0, 82, 0
2, 34944, Note_on_c, 0, 77, 60
2, 35132, Note_off_c, 0, 77, 0
2, 35328, Note_on_c, 0, 78, 60
2, 35372, Note_off_c, 0, 78, 0
2, 35376, Note_on_c, 0, 79, 60
2, 35616, Note_on_c, 0, 80, 60
2, 35660, Note_off_c, 0, 79, 0
2, 35660, Note_off_c, 0, 80, 0
2, 35664, Note_on_c, 0, 79, 60
2, 35708, Note_off_c, 0, 79, 0
2, 35712, Note_on_c, 0, 77, 60
2, 35804, Note_off_c, 0, 77, 0
2, 35808, Note_on_c, 0, 75, 60
2, 35900, Note_off_c, 0, 75, 0
2, 35904, Note_on_c, 0, 74, 60
2, 35996, Note_off_c, 0, 74, 0
2, 36000, Note_on_c, 0, 72, 60
2, 36092, Note_off_c, 0, 72, 0
2, 36096, Note_on_c, 0, 79, 60
2, 36140, Note_off_c, 0, 79, 0
2, 36144, Note_on_c, 0, 77, 60
2, 36384, Note_on_c, 0, 79, 60
2, 36428, Note_off_c, 0, 77, 0
2, 36428, Note_off_c, 0, 79, 0
2, 36432, Note_on_c, 0, 77, 60
2, 36476, Note_off_c, 0, 77, 0
2, 36480, Note_on_c, 0, 77, 60
2, 36524, Note_off_c, 0, 77, 0
2, 36528, Note_on_c, 0, 75, 60
2, 36572, Note_off_c, 0, 75, 0
2, 36576, Note_on_c, 0, 75, 60
2, 36620, Note_off_c, 0, 75, 0
2, 36624, Note_on_c, 0, 74, 60
2, 36668, Note_off_c, 0, 74, 0
2, 36672, Note_on_c, 0, 74, 60
2, 36716, Note_off_c, 0, 74, 0
2, 36720, Note_on_c, 0, 72, 60
2, 36764, Note_off_c, 0, 72, 0
2, 36768, Note_on_c, 0, 72, 60
2, 36812, Note_off_c, 0, 72, 0
2, 36816, Note_on_c, 0, 70, 60
2, 36860, Note_off_c, 0, 70, 0
2, 36864, Note_on_c, 0, 77, 90
2, 36908, Note_off_c, 0, 77, 0
2, 36912, Note_on_c, 0, 76, 60
2, 36956, Note_off_c, 0, 76, 0
2, 36960, Note_on_c, 0, 75, 60
2, 37148, Note_off_c, 0, 75, 0
2, 37152, Note_on_c, 0, 72, 60
2, 37244, Note_off_c, 0, 72, 0
2, 37248, Note_on_c, 0, 75, 90
2, 37292, Note_off_c, 0, 75, 0
2, 37296, Note_on_c, 0, 73, 60
2, 37340, Note_off_c, 0, 73, 0
2, 37344, Note_on_c, 0, 74, 60
2, 37532, Note_off_c, 0, 74, 0
2, 37536, Note_on_c, 0, 70, 60
2, 37628, Note_off_c, 0, 70, 0
2, 37632, Note_on_c, 0, 74, 60
2, 37916, Note_off_c, 0, 74, 0
2, 37920, Note_on_c, 0, 75, 60
2, 37964, Note_off_c, 0, 75, 0
2, 37968, Note_on_c, 0, 74, 60
2, 38012, Note_off_c, 0, 74, 0
2, 38016, Note_on_c, 0, 72, 60
2, 38076, Note_off_c, 0, 72, 0
2, 38080, Note_on_c, 0, 77, 60
2, 38140, Note_off_c, 0, 77, 0
2, 38144, Note_on_c, 0, 76, 60
2, 38204, Note_off_c, 0, 76, 0
2, 38208, Note_on_c, 0, 75, 60
2, 38252, Note_off_c, 0, 75, 0
2, 38256, Note_on_c, 0, 74, 60
2, 38300, Note_off_c, 0, 74, 0
2, 38304, Note_on_c, 0, 75, 60
2, 38348, Note_off_c, 0, 75, 0
2, 38352, Note_on_c, 0, 74, 60
2, 38396, Note_off_c, 0, 74, 0
2, 38400, Note_on_c, 0, 70, 60
2, 38492, Note_off_c, 0, 70, 0
2, 38496, Note_on_c, 0, 72, 60
2, 38540, Note_off_c, 0, 72, 0
2, 38544, Note_on_c, 0, 70, 60
2, 38588, Note_off_c, 0, 70, 0
2, 38592, Note_on_c, 0, 69, 60
2, 38636, Note_off_c, 0, 69, 0
2, 38640, Note_on_c, 0, 70, 60
2, 38684, Note_off_c, 0, 70, 0
2, 38688, Note_on_c, 0, 72, 60
2, 38780, Note_off_c, 0, 72, 0
2, 38784, Note_on_c, 0, 73, 60
2, 38876, Note_off_c, 0, 73, 0
2, 38880, Note_on_c, 0, 75, 60
2, 38924, Note_off_c, 0, 75, 0
2, 38928, Note_on_c, 0, 73, 60
2, 38972, Note_off_c, 0, 73, 0
2, 38976, Note_on_c, 0, 72, 60
2, 39020, Note_off_c, 0, 72, 0
2, 39024, Note_on_c, 0, 73, 60
2, 39068, Note_off_c, 0, 73, 0
2, 39072, Note_on_c, 0, 75, 60
2, 39164, Note_off_c, 0, 75, 0
2, 39192, Note_on_c, 0, 76, 60
2, 39456, Note_on_c, 0, 77, 60
2, 39476, Note_off_c, 0, 76, 0
2, 39548, Note_off_c, 0, 77, 0
2, 39552, Note_on_c, 0, 72, 60
2, 39740, Note_off_c, 0, 72, 0
2, 39936, Note_on_c, 0, 63, 63
2, 40080, Note_on_c, 0, 63, 63
2, 40124, Note_off_c, 0, 63, 0
2, 40124, Note_off_c, 0, 63, 0
2, 40128, Note_on_c, 0, 65, 64
2, 40172, Note_off_c, 0, 65, 0
2, 40176, Note_on_c, 0, 63, 64
2, 40220, Note_off_c, 0, 63, 0
2, 40224, Note_on_c, 0, 62, 67
2, 40244, Note_off_c, 0, 62, 0
2, 40248, Note_on_c, 0, 63, 67
2, 40268, Note_off_c, 0, 63, 0
2, 40272, Note_on_c, 0, 64, 70
2, 40292, Note_off_c, 0, 64, 0
2, 40296, Note_on_c, 0, 65, 70
2, 40316, Note_off_c, 0, 65, 0
2, 40320, Note_on_c, 0, 66, 72
2, 40340, Note_off_c, 0, 66, 0
2, 40344, Note_on_c, 0, 67, 72
2, 40364, Note_off_c, 0, 67, 0
2, 40368, Note_on_c, 0, 68, 73
2, 40388, Note_off_c, 0, 68, 0
2, 40392, Note_on_c, 0, 69, 73
2, 40412, Note_off_c, 0, 69, 0
2, 40416, Note_on_c, 0, 70, 75
2, 40436, Note_off_c, 0, 70, 0
2, 40440, Note_on_c, 0, 71, 75
2, 40460, Note_off_c, 0, 71, 0
2, 40464, Note_on_c, 0, 72, 76
2, 40484, Note_off_c, 0, 72, 0
2, 40488, Note_on_c, 0, 73, 76
2, 40508, Note_off_c, 0, 73, 0
2, 40512, Note_on_c, 0, 74, 78
2, 40532, Note_off_c, 0, 74, 0
2, 40536, Note_on_c, 0, 75, 78
2, 40556, Note_off_c, 0, 75, 0
2, 40560, Note_on_c, 0, 76, 79
2, 40580, Note_off_c, 0, 76, 0
2, 40584, Note_on_c, 0, 77, 79
2, 40604, Note_off_c, 0, 77, 0
2, 40608, Note_on_c, 0, 78, 81
2, 40628, Note_off_c, 0, 78, 0
2, 40632, Note_on_c, 0, 79, 81
2, 40652, Note_off_c, 0, 79, 0
2, 40656, Note_on_c, 0, 80, 82
2, 40676, Note_off_c, 0, 80, 0
2, 40680, Note_on_c, 0, 81, 82
2, 40700, Note_off_c, 0, 81, 0
2, 40704, Note_on_c, 0, 81, 84
2, 40796, Note_off_c, 0, 81, 0
2, 40800, Note_on_c, 0, 82, 84
2, 40844, Note_off_c, 0, 82, 0
2, 40848, Note_on_c, 0, 81, 85
2, 40892, Note_off_c, 0, 81, 0
2, 40896, Note_on_c, 0, 79, 85
2, 40940, Note_off_c, 0, 79, 0
2, 40944, Note_on_c, 0, 81, 87
2, 40988, Note_off_c, 0, 81, 0
2, 40992, Note_on_c, 0, 82, 87
2, 41084, Note_off_c, 0, 82, 0
2, 41088, Note_on_c, 0, 77, 88
2, 41276, Note_off_c, 0, 77, 0
2, 41472, Note_on_c, 0, 76, 90
2, 41516, Note_off_c, 0, 76, 0
2, 41520, Note_on_c, 0, 85, 90
2, 41760, Note_on_c, 0, 85, 60
2, 41768, Note_off_c, 0, 85, 0
2, 41852, Note_off_c, 0, 85, 0
2, 41904, Note_on_c, 0, 84, 60
2, 41948, Note_off_c, 0, 84, 0
2, 41952, Note_on_c, 0, 82, 60
2, 42044, Note_off_c, 0, 82, 0
2, 42048, Note_on_c, 0, 80, 60
2, 42092, Note_off_c, 0, 80, 0
2, 42096, Note_on_c, 0, 79, 60
2, 42140, Note_off_c, 0, 79, 0
2, 42144, Note_on_c, 0, 77, 60
2, 42188, Note_off_c, 0, 77, 0
2, 42192, Note_on_c, 0, 76, 60
2, 42236, Note_off_c, 0, 76, 0
2, 42240, Note_on_c, 0, 79, 60
2, 42428, Note_off_c, 0, 79, 0
2, 42432, Note_on_c, 0, 77, 60
2, 42620, Note_off_c, 0, 77, 0
2, 42624, Note_on_c, 0, 77, 60
2, 42716, Note_off_c, 0, 77, 0
2, 42720, Note_on_c, 0, 76, 60
2, 42812, Note_off_c, 0, 76, 0
2, 42864, Note_on_c, 0, 75, 60
2, 42908, Note_off_c, 0, 75, 0
2, 42912, Note_on_c, 0, 74, 60
2, 42956, Note_off_c, 0, 74, 0
2, 42960, Note_on_c, 0, 73, 60
2, 43004, Note_off_c, 0, 73, 0
2, 43008, Note_on_c, 0, 72, 60
2, 43100, Note_off_c, 0, 72, 0
2, 43104, Note_on_c, 0, 73, 60
2, 43148, Note_off_c, 0, 73, 0
2, 43152, Note_on_c, 0, 72, 60
2, 43196, Note_off_c, 0, 72, 0
2, 43200, Note_on_c, 0, 70, 60
2, 43244, Note_off_c, 0, 70, 0
2, 43248, Note_on_c, 0, 72, 60
2, 43292, Note_off_c, 0, 72, 0
2, 43296, Note_on_c, 0, 73, 60
2, 43388, Note_off_c, 0, 73, 0
2, 43392, Note_on_c, 0, 65, 60
2, 43580, Note_off_c, 0, 65, 0
2, 43584, Note_on_c, 0, 64, 60
2, 43584, Note_on_c, 0, 68, 60
2, 43676, Note_off_c, 0, 68, 0
2, 43680, Note_on_c, 0, 67, 60
2, 43772, Note_off_c, 0, 64, 0
2, 43772, Note_off_c, 0, 67, 0
2, 43776, Note_on_c, 0, 65, 60
2, 43964, Note_off_c, 0, 65, 0
2, 44544, Note_on_c, 0, 75, 60
2, 44732, Note_off_c, 0, 75, 0
2, 44928, Note_on_c, 0, 72, 60
2, 45116, Note_off_c, 0, 72, 0
2, 45120, Note_on_c, 0, 69, 60
2, 45308, Note_off_c, 0, 69, 0
2, 45312, Note_on_c, 0, 77, 60
2, 45452, Note_off_c, 0, 77, 0
2, 45456, Note_on_c, 0, 74, 60
2, 45500, Note_off_c, 0, 74, 0
2, 45504, Note_on_c, 0, 77, 60
2, 45692, Note_off_c, 0, 77, 0
2, 46080, Note_on_c, 0, 77, 60
2, 46172, Note_off_c, 0, 77, 0
2, 46176, Note_on_c, 0, 75, 60
2, 46268, Note_off_c, 0, 75, 0
2, 46464, Note_on_c, 0, 74, 60
2, 46556, Note_off_c, 0, 74, 0
2, 46560, Note_on_c, 0, 72, 60
2, 46604, Note_off_c, 0, 72, 0
2, 46656, Note_on_c, 0, 70, 60
2, 46748, Note_off_c, 0, 70, 0
2, 46752, Note_on_c, 0, 69, 60
2, 46796, Note_off_c, 0, 69, 0
2, 46848, Note_on_c, 0, 77, 60
2, 46988, Note_off_c, 0, 77, 0
2, 46992, Note_on_c, 0, 74, 60
2, 47036, Note_off_c, 0, 74, 0
2, 47040, Note_on_c, 0, 77, 60
2, 47228, Note_off_c, 0, 77, 0
2, 47232, Note_on_c, 0, 82, 87
2, 47232, Note_on_c, 0, 86, 87
2, 47232, Note_on_c, 0, 74, 87
2, 47232, Note_on_c, 0, 70, 87
2, 47324, Note_off_c, 0, 82, 0
2, 47324, Note_off_c, 0, 86, 0
2, 47324, Note_off_c, 0, 74, 0
2, 47324, Note_off_c, 0, 70, 0
2, 47328, Note_on_c, 0, 84, 60
2, 47328, Note_on_c, 0, 81, 60
2, 47328, Note_on_c, 0, 72, 60
2, 47328, Note_on_c, 0, 69, 60
2, 47420, Note_off_c, 0, 84, 0
2, 47420, Note_off_c, 0, 81, 0
2, 47420, Note_off_c, 0, 72, 0
2, 47420, Note_off_c, 0, 69, 0
2, 47424, Note_on_c, 0, 82, 60
2, 47424, Note_on_c, 0, 79, 60
2, 47424, Note_on_c, 0, 70, 60
2, 47424, Note_on_c, 0, 67, 60
2, 47516, Note_off_c, 0, 82, 0
2, 47516, Note_off_c, 0, 79, 0
2, 47516, Note_off_c, 0, 70, 0
2, 47516, Note_off_c, 0, 67, 0
2, 47520, Note_on_c, 0, 81, 60
2, 47520, Note_on_c, 0, 78, 60
2, 47520, Note_on_c, 0, 69, 60
2, 47520, Note_on_c, 0, 66, 60
2, 47612, Note_off_c, 0, 81, 0
2, 47612, Note_off_c, 0, 78, 0
2, 47612, Note_off_c, 0, 69, 0
2, 47612, Note_off_c, 0, 66, 0
2, 47616, Note_on_c, 0, 82, 87
2, 47616, Note_on_c, 0, 79, 87
2, 47616, Note_on_c, 0, 70, 87
2, 47616, Note_on_c, 0, 67, 87
2, 47708, Note_off_c, 0, 82, 0
2, 47708, Note_off_c, 0, 79, 0
2, 47708, Note_off_c, 0, 70, 0
2, 47708, Note_off_c, 0, 67, 0
2, 47712, Note_on_c, 0, 81, 60
2, 47712, Note_on_c, 0, 77, 60
2, 47712, Note_on_c, 0, 69, 60
2, 47712, Note_on_c, 0, 65, 60
2, 47804, Note_off_c, 0, 81, 0
2, 47804, Note_off_c, 0, 77, 0
2, 47804, Note_off_c, 0, 69, 0
2, 47804, Note_off_c, 0, 65, 0
2, 47808, Note_on_c, 0, 79, 60
2, 47808, Note_on_c, 0, 75, 60
2, 47808, Note_on_c, 0, 67, 60
2, 47808, Note_on_c, 0, 63, 60
2, 47900, Note_off_c, 0, 79, 0
2, 47900, Note_off_c, 0, 75, 0
2, 47900, Note_off_c, 0, 67, 0
2, 47900, Note_off_c, 0, 63, 0
2, 47904, Note_on_c, 0, 78, 60
2, 47904, Note_on_c, 0, 74, 60
2, 47904, Note_on_c, 0, 66, 60
2, 47904, Note_on_c, 0, 62, 60
2, 47996, Note_off_c, 0, 78, 0
2, 47996, Note_off_c, 0, 74, 0
2, 47996, Note_off_c, 0, 66, 0
2, 47996, Note_off_c, 0, 62, 0
2, 48000, Note_on_c, 0, 79, 87
2, 48000, Note_on_c, 0, 75, 87
2, 48000, Note_on_c, 0, 67, 87
2, 48000, Note_on_c, 0, 63, 87
2, 48092, Note_off_c, 0, 79, 0
2, 48092, Note_off_c, 0, 75, 0
2, 48092, Note_off_c, 0, 67, 0
2, 48092, Note_off_c, 0, 63, 0
2, 48096, Note_on_c, 0, 77, 60
2, 48096, Note_on_c, 0, 74, 60
2, 48096, Note_on_c, 0, 65, 60
2, 48096, Note_on_c, 0, 62, 60
2, 48188, Note_off_c, 0, 77, 0
2, 48188, Note_off_c, 0, 74, 0
2, 48188, Note_off_c, 0, 65, 0
2, 48188, Note_off_c, 0, 62, 0
2, 48192, Note_on_c, 0, 75, 60
2, 48192, Note_on_c, 0, 72, 60
2, 48192, Note_on_c, 0, 63, 60
2, 48192, Note_on_c, 0, 60, 60
2, 48284, Note_off_c, 0, 75, 0
2, 48284, Note_off_c, 0, 72, 0
2, 48284, Note_off_c, 0, 63, 0
2, 48284, Note_off_c, 0, 60, 0
2, 48288, Note_on_c, 0, 74, 60
2, 48288, Note_on_c, 0, 71, 60
2, 48288, Note_on_c, 0, 62, 60
2, 48288, Note_on_c, 0, 59, 60
2, 48380, Note_off_c, 0, 74, 0
2, 48380, Note_off_c, 0, 71, 0
2, 48380, Note_off_c, 0, 62, 0
2, 48380, Note_off_c, 0, 59, 0
2, 48384, Note_on_c, 0, 74, 87
2, 48384, Note_on_c, 0, 71, 87
2, 48384, Note_on_c, 0, 67, 87
2, 48384, Note_on_c, 0, 65, 87
2, 48384, Note_on_c, 0, 62, 87
2, 48384, Note_on_c, 0, 59, 87
2, 48384, Note_on_c, 0, 55, 87
2, 48764, Note_off_c, 0, 74, 0
2, 48764, Note_off_c, 0, 71, 0
2, 48764, Note_off_c, 0, 67, 0
2, 48764, Note_off_c, 0, 65, 0
2, 48764, Note_off_c, 0, 62, 0
2, 48764, Note_off_c, 0, 59, 0
2, 48764, Note_off_c, 0, 55, 0
2, 48768, Note_on_c, 0, 75, 60
2, 48768, Note_on_c, 0, 72, 60
2, 48768, Note_on_c, 0, 67, 60
2, 48768, Note_on_c, 0, 60, 60
2, 48768, Note_on_c, 0, 63, 60
2, 48860, Note_off_c, 0, 75, 0
2, 48860, Note_off_c, 0, 72, 0
2, 48860, Note_off_c, 0, 67, 0
2, 48864, Note_on_c, 0, 77, 60
2, 48884, Note_off_c, 0, 77, 0
2, 48888, Note_on_c, 0, 75, 60
2, 48908, Note_off_c, 0, 75, 0
2, 48912, Note_on_c, 0, 74, 60
2, 48932, Note_off_c, 0, 74, 0
2, 48936, Note_on_c, 0, 75, 60
2, 48956, Note_off_c, 0, 63, 0
2, 48956, Note_off_c, 0, 75, 0
2, 48960, Note_on_c, 0, 77, 60
2, 48960, Note_on_c, 0, 69, 60
2, 49052, Note_off_c, 0, 77, 0
2, 49056, Note_on_c, 0, 79, 60
2, 49148, Note_off_c, 0, 60, 0
2, 49148, Note_off_c, 0, 69, 0
2, 49148, Note_off_c, 0, 79, 0
2, 49152, Note_on_c, 0, 79, 60
2, 49152, Note_on_c, 0, 70, 60
2, 49152, Note_on_c, 0, 62, 60
2, 49196, Note_off_c, 0, 79, 0
2, 49200, Note_on_c, 0, 77, 60
2, 49244, Note_off_c, 0, 77, 0
2, 49248, Note_on_c, 0, 75, 60
2, 49292, Note_off_c, 0, 75, 0
2, 49296, Note_on_c, 0, 74, 60
2, 49340, Note_off_c, 0, 70, 0
2, 49340, Note_off_c, 0, 62, 0
2, 49340, Note_off_c, 0, 74, 0
2, 49344, Note_on_c, 0, 71, 60
2, 49344, Note_on_c, 0, 67, 60
2, 49344, Note_on_c, 0, 63, 60
2, 49388, Note_off_c, 0, 71, 0
2, 49392, Note_on_c, 0, 72, 60
2, 49436, Note_off_c, 0, 72, 0
2, 49440, Note_on_c, 0, 75, 60
2, 49484, Note_off_c, 0, 75, 0
2, 49488, Note_on_c, 0, 79, 60
2, 49532, Note_off_c, 0, 67, 0
2, 49532, Note_off_c, 0, 63, 0
2, 49532, Note_off_c, 0, 79, 0
2, 49536, Note_on_c, 0, 70, 60
2, 49724, Note_off_c, 0, 70, 0
2, 49728, Note_on_c, 0, 72, 60
2, 49728, Note_on_c, 0, 69, 60
2, 49916, Note_off_c, 0, 72, 0
2, 49916, Note_off_c, 0, 69, 0
2, 49920, Note_on_c, 0, 69, 60
2, 49920, Note_on_c, 0, 72, 60
2, 50060, Note_off_c, 0, 72, 0
2, 50064, Note_on_c, 0, 73, 60
2, 50108, Note_off_c, 0, 69, 0
2, 50108, Note_off_c, 0, 73, 0
2, 50112, Note_on_c, 0, 70, 60
2, 50112, Note_on_c, 0, 74, 60
2, 50300, Note_off_c, 0, 70, 0
2, 50300, Note_off_c, 0, 74, 0
2, 50688, Note_on_c, 0, 77, 60
2, 50780, Note_off_c, 0, 77, 0
2, 50784, Note_on_c, 0, 75, 60
2, 50876, Note_off_c, 0, 75, 0
2, 51072, Note_on_c, 0, 74, 60
2, 51164, Note_off_c, 0, 74, 0
2, 51168, Note_on_c, 0, 72, 60
2, 51260, Note_off_c, 0, 72, 0
2, 51264, Note_on_c, 0, 70, 60
2, 51356, Note_off_c, 0, 70, 0
2, 51360, Note_on_c, 0, 69, 60
2, 51452, Note_off_c, 0, 69, 0
2, 51456, Note_on_c, 0, 77, 60
2, 51740, Note_off_c, 0, 77, 0
2, 51744, Note_on_c, 0, 74, 60
2, 51836, Note_off_c, 0, 74, 0
2, 51840, Note_on_c, 0, 77, 60
2, 52028, Note_off_c, 0, 77, 0
2, 52224, Note_on_c, 0, 77, 60
2, 52268, Note_off_c, 0, 77, 0
2, 52272, Note_on_c, 0, 76, 60
2, 52316, Note_off_c, 0, 76, 0
2, 52320, Note_on_c, 0, 75, 60
2, 52412, Note_off_c, 0, 75, 0
2, 52608, Note_on_c, 0, 74, 60
2, 52652, Note_off_c, 0, 74, 0
2, 52656, Note_on_c, 0, 74, 60
2, 52700, Note_off_c, 0, 74, 0
2, 52704, Note_on_c, 0, 75, 60
2, 52748, Note_off_c, 0, 75, 0
2, 52752, Note_on_c, 0, 72, 60
2, 52796, Note_off_c, 0, 72, 0
2, 52800, Note_on_c, 0, 70, 60
2, 52844, Note_off_c, 0, 70, 0
2, 52848, Note_on_c, 0, 70, 60
2, 52892, Note_off_c, 0, 70, 0
2, 52896, Note_on_c, 0, 72, 60
2, 52940, Note_off_c, 0, 72, 0
2, 52944, Note_on_c, 0, 69, 60
2, 52988, Note_off_c, 0, 69, 0
2, 52992, Note_on_c, 0, 77, 60
2, 53016, Note_on_c, 0, 79, 60
2, 53036, Note_off_c, 0, 77, 0
2, 53036, Note_off_c, 0, 79, 0
2, 53040, Note_on_c, 0, 77, 60
2, 53060, Note_off_c, 0, 77, 0
2, 53064, Note_on_c, 0, 76, 60
2, 53084, Note_off_c, 0, 76, 0
2, 53088, Note_on_c, 0, 77, 60
2, 53132, Note_off_c, 0, 77, 0
2, 53136, Note_on_c, 0, 82, 60
2, 53180, Note_off_c, 0, 82, 0
2, 53184, Note_on_c, 0, 77, 60
2, 53372, Note_off_c, 0, 77, 0
2, 53376, Note_on_c, 0, 74, 90
2, 53376, Note_on_c, 0, 70, 90
2, 53424, Note_on_c, 0, 86, 90
2, 53424, Note_on_c, 0, 82, 90
2, 53468, Note_off_c, 0, 74, 0
2, 53468, Note_off_c, 0, 70, 0
2, 53472, Note_on_c, 0, 72, 60
2, 53472, Note_on_c, 0, 69, 60
2, 53516, Note_off_c, 0, 86, 0
2, 53516, Note_off_c, 0, 82, 0
2, 53520, Note_on_c, 0, 81, 60
2, 53520, Note_on_c, 0, 84, 60
2, 53564, Note_off_c, 0, 72, 0
2, 53564, Note_off_c, 0, 69, 0
2, 53568, Note_on_c, 0, 70, 60
2, 53568, Note_on_c, 0, 67, 60
2, 53612, Note_off_c, 0, 81, 0
2, 53612, Note_off_c, 0, 84, 0
2, 53616, Note_on_c, 0, 82, 60
2, 53616, Note_on_c, 0, 79, 60
2, 53660, Note_off_c, 0, 70, 0
2, 53660, Note_off_c, 0, 67, 0
2, 53664, Note_on_c, 0, 69, 60
2, 53664, Note_on_c, 0, 66, 60
2, 53708, Note_off_c, 0, 82, 0
2, 53708, Note_off_c, 0, 79, 0
2, 53712, Note_on_c, 0, 78, 60
2, 53712, Note_on_c, 0, 81, 60
2, 53756, Note_off_c, 0, 69, 0
2, 53756, Note_off_c, 0, 66, 0
2, 53760, Note_on_c, 0, 67, 90
2, 53760, Note_on_c, 0, 70, 90
2, 53804, Note_off_c, 0, 78, 0
2, 53804, Note_off_c, 0, 81, 0
2, 53808, Note_on_c, 0, 82, 90
2, 53808, Note_on_c, 0, 79, 90
2, 53852, Note_off_c, 0, 67, 0
2, 53852, Note_off_c, 0, 70, 0
2, 53856, Note_on_c, 0, 65, 60
2, 53856, Note_on_c, 0, 69, 60
2, 53900, Note_off_c, 0, 82, 0
2, 53900, Note_off_c, 0, 79, 0
2, 53904, Note_on_c, 0, 77, 60
2, 53904, Note_on_c, 0, 81, 60
2, 53948, Note_off_c, 0, 65, 0
2, 53948, Note_off_c, 0, 69, 0
2, 53952, Note_on_c, 0, 63, 60
2, 53952, Note_on_c, 0, 67, 60
2, 53996, Note_off_c, 0, 77, 0
2, 53996, Note_off_c, 0, 81, 0
2, 54000, Note_on_c, 0, 79, 60
2, 54000, Note_on_c, 0, 75, 60
2, 54044, Note_off_c, 0, 63, 0
2, 54044, Note_off_c, 0, 67, 0
2, 54048, Note_on_c, 0, 62, 60
2, 54048, Note_on_c, 0, 66, 60
2, 54092, Note_off_c, 0, 79, 0
2, 54092, Note_off_c, 0, 75, 0
2, 54096, Note_on_c, 0, 74, 60
2, 54096, Note_on_c, 0, 79, 60
2, 54140, Note_off_c, 0, 62, 0
2, 54140, Note_off_c, 0, 66, 0
2, 54144, Note_on_c, 0, 67, 90
2, 54144, Note_on_c, 0, 63, 90
2, 54188, Note_off_c, 0, 74, 0
2, 54188, Note_off_c, 0, 79, 0
2, 54192, Note_on_c, 0, 79, 90
2, 54192, Note_on_c, 0, 75, 90
2, 54236, Note_off_c, 0, 67, 0
2, 54236, Note_off_c, 0, 63, 0
2, 54240, Note_on_c, 0, 65, 60
2, 54240, Note_on_c, 0, 62, 60
2, 54284, Note_off_c, 0, 79, 0
2, 54284, Note_off_c, 0, 75, 0
2, 54288, Note_on_c, 0, 74, 60
2, 54288, Note_on_c, 0, 77, 60
2, 54332, Note_off_c, 0, 65, 0
2, 54332, Note_off_c, 0, 62, 0
2, 54336, Note_on_c, 0, 60, 60
2, 54336, Note_on_c, 0, 63, 60
2, 54380, Note_off_c, 0, 74, 0
2, 54380, Note_off_c, 0, 77, 0
2, 54384, Note_on_c, 0, 75, 60
2, 54384, Note_on_c, 0, 72, 60
2, 54428, Note_off_c, 0, 60, 0
2, 54428, Note_off_c, 0, 63, 0
2, 54432, Note_on_c, 0, 59, 60
2, 54432, Note_on_c, 0, 62, 60
2, 54476, Note_off_c, 0, 75, 0
2, 54476, Note_off_c, 0, 72, 0
2, 54480, Note_on_c, 0, 74, 60
2, 54480, Note_on_c, 0, 71, 60
2, 54524, Note_off_c, 0, 59, 0
2, 54524, Note_off_c, 0, 62, 0
2, 54524, Note_off_c, 0, 74, 0
2, 54524, Note_off_c, 0, 71, 0
2, 54528, Note_on_c, 0, 67, 87
2, 54528, Note_on_c, 0, 71, 87
2, 54528, Note_on_c, 0, 74, 87
2, 54528, Note_on_c, 0, 65, 87
2, 54528, Note_on_c, 0, 62, 87
2, 54528, Note_on_c, 0, 59, 87
2, 54528, Note_on_c, 0, 55, 87
2, 54908, Note_off_c, 0, 67, 0
2, 54908, Note_off_c, 0, 71, 0
2, 54908, Note_off_c, 0, 74, 0
2, 54908, Note_off_c, 0, 65, 0
2, 54908, Note_off_c, 0, 62, 0
2, 54908, Note_off_c, 0, 59, 0
2, 54908, Note_off_c, 0, 55, 0
2, 54912, Note_on_c, 0, 75, 60
2, 54912, Note_on_c, 0, 72, 60
2, 54912, Note_on_c, 0, 67, 60
2, 54912, Note_on_c, 0, 60, 60
2, 54912, Note_on_c, 0, 63, 60
2, 55004, Note_off_c, 0, 75, 0
2, 55004, Note_off_c, 0, 72, 0
2, 55004, Note_off_c, 0, 67, 0
2, 55008, Note_on_c, 0, 77, 60
2, 55028, Note_off_c, 0, 77, 0
2, 55032, Note_on_c, 0, 75, 60
2, 55052, Note_off_c, 0, 75, 0
2, 55056, Note_on_c, 0, 74, 60
2, 55076, Note_off_c, 0, 74, 0
2, 55080, Note_on_c, 0, 75, 60
2, 55100, Note_off_c, 0, 63, 0
2, 55100, Note_off_c, 0, 75, 0
2, 55104, Note_on_c, 0, 77, 60
2, 55104, Note_on_c, 0, 69, 60
2, 55196, Note_off_c, 0, 77, 0
2, 55200, Note_on_c, 0, 79, 60
2, 55292, Note_off_c, 0, 60, 0
2, 55292, Note_off_c, 0, 69, 0
2, 55292, Note_off_c, 0, 79, 0
2, 55296, Note_on_c, 0, 77, 60
2, 55296, Note_on_c, 0, 70, 60
2, 55296, Note_on_c, 0, 62, 60
2, 55356, Note_off_c, 0, 77, 0
2, 55360, Note_on_c, 0, 82, 60
2, 55420, Note_off_c, 0, 82, 0
2, 55424, Note_on_c, 0, 75, 60
2, 55484, Note_off_c, 0, 70, 0
2, 55484, Note_off_c, 0, 62, 0
2, 55484, Note_off_c, 0, 75, 0
2, 55488, Note_on_c, 0, 72, 60
2, 55488, Note_on_c, 0, 67, 60
2, 55488, Note_on_c, 0, 63, 60
2, 55548, Note_off_c, 0, 72, 0
2, 55552, Note_on_c, 0, 75, 60
2, 55612, Note_off_c, 0, 75, 0
2, 55616, Note_on_c, 0, 79, 60
2, 55676, Note_off_c, 0, 67, 0
2, 55676, Note_off_c, 0, 63, 0
2, 55676, Note_off_c, 0, 79, 0
2, 55680, Note_on_c, 0, 70, 60
2, 55868, Note_off_c, 0, 70, 0
2, 55872, Note_on_c, 0, 69, 60
2, 56000, Note_off_c, 0, 69, 0
2, 56064, Note_on_c, 0, 60, 90
2, 56108, Note_off_c, 0, 60, 0
2, 56112, Note_on_c, 0, 74, 90
2, 56168, Note_on_c, 0, 74, 90
2, 56240, Note_off_c, 0, 74, 0
2, 56256, Note_on_c, 0, 70, 90
2, 56264, Note_off_c, 0, 74, 0
2, 56276, Note_off_c, 0, 70, 0
2, 56304, Note_on_c, 0, 70, 90
2, 56324, Note_off_c, 0, 70, 0
2, 56328, Note_on_c, 0, 72, 90
2, 56348, Note_off_c, 0, 72, 0
2, 56352, Note_on_c, 0, 70, 90
2, 56372, Note_off_c, 0, 70, 0
2, 56376, Note_on_c, 0, 72, 90
2, 56396, Note_off_c, 0, 72, 0
2, 56400, Note_on_c, 0, 69, 90
2, 56420, Note_off_c, 0, 69, 0
2, 56424, Note_on_c, 0, 70, 90
2, 56444, Note_off_c, 0, 70, 0
2, 56448, Note_on_c, 0, 62, 90
2, 56492, Note_off_c, 0, 62, 0
2, 56496, Note_on_c, 0, 75, 90
2, 56544, Note_on_c, 0, 75, 90
2, 56624, Note_off_c, 0, 75, 0
2, 56640, Note_off_c, 0, 75, 0
2, 56640, Note_on_c, 0, 72, 90
2, 56660, Note_off_c, 0, 72, 0
2, 56688, Note_on_c, 0, 72, 90
2, 56708, Note_off_c, 0, 72, 0
2, 56712, Note_on_c, 0, 74, 90
2, 56732, Note_off_c, 0, 74, 0
2, 56736, Note_on_c, 0, 72, 90
2, 56756, Note_off_c, 0, 72, 0
2, 56760, Note_on_c, 0, 74, 90
2, 56780, Note_off_c, 0, 74, 0
2, 56784, Note_on_c, 0, 71, 90
2, 56804, Note_off_c, 0, 71, 0
2, 56808, Note_on_c, 0, 72, 90
2, 56828, Note_off_c, 0, 72, 0
2, 56832, Note_on_c, 0, 77, 90
2, 56972, Note_off_c, 0, 77, 0
2, 56976, Note_on_c, 0, 74, 90
2, 57020, Note_off_c, 0, 74, 0
2, 57024, Note_on_c, 0, 82, 90
2, 57212, Note_off_c, 0, 82, 0
2, 57216, Note_on_c, 0, 82, 90
2, 57308, Note_off_c, 0, 82, 0
2, 57312, Note_on_c, 0, 80, 90
2, 57404, Note_off_c, 0, 80, 0
2, 57408, Note_on_c, 0, 79, 90
2, 57500, Note_off_c, 0, 79, 0
2, 57504, Note_on_c, 0, 78, 90
2, 57596, Note_off_c, 0, 78, 0
2, 57600, Note_on_c, 0, 78, 90
2, 57644, Note_off_c, 0, 78, 0
2, 57648, Note_on_c, 0, 79, 90
2, 57692, Note_off_c, 0, 79, 0
2, 57696, Note_on_c, 0, 82, 90
2, 57740, Note_off_c, 0, 82, 0
2, 57744, Note_on_c, 0, 79, 90
2, 57788, Note_off_c, 0, 79, 0
2, 57792, Note_on_c, 0, 74, 90
2, 57836, Note_off_c, 0, 74, 0
2, 57840, Note_on_c, 0, 75, 90
2, 57884, Note_off_c, 0, 75, 0
2, 57888, Note_on_c, 0, 79, 90
2, 57932, Note_off_c, 0, 79, 0
2, 57936, Note_on_c, 0, 75, 90
2, 57980, Note_off_c, 0, 75, 0
2, 57984, Note_on_c, 0, 71, 90
2, 58028, Note_off_c, 0, 71, 0
2, 58032, Note_on_c, 0, 72, 90
2, 58076, Note_off_c, 0, 72, 0
2, 58080, Note_on_c, 0, 75, 90
2, 58124, Note_off_c, 0, 75, 0
2, 58128, Note_on_c, 0, 74, 90
2, 58172, Note_off_c, 0, 74, 0
2, 58176, Note_on_c, 0, 77, 90
2, 58220, Note_off_c, 0, 77, 0
2, 58224, Note_on_c, 0, 75, 90
2, 58268, Note_off_c, 0, 75, 0
2, 58272, Note_on_c, 0, 74, 90
2, 58316, Note_off_c, 0, 74, 0
2, 58320, Note_on_c, 0, 72, 90
2, 58364, Note_off_c, 0, 72, 0
2, 58368, Note_on_c, 0, 65, 90
2, 58412, Note_off_c, 0, 65, 0
2, 58416, Note_on_c, 0, 77, 90
2, 58464, Note_on_c, 0, 77, 90
2, 58508, Note_off_c, 0, 77, 0
2, 58652, Note_off_c, 0, 77, 0
2, 58656, Note_on_c, 0, 77, 90
2, 58748, Note_off_c, 0, 77, 0
2, 58752, Note_on_c, 0, 77, 90
2, 58796, Note_off_c, 0, 77, 0
2, 58800, Note_on_c, 0, 75, 90
2, 58844, Note_off_c, 0, 75, 0
2, 58848, Note_on_c, 0, 74, 90
2, 58892, Note_off_c, 0, 74, 0
2, 58896, Note_on_c, 0, 75, 90
2, 58940, Note_off_c, 0, 75, 0
2, 58944, Note_on_c, 0, 77, 90
2, 58988, Note_off_c, 0, 77, 0
2, 58992, Note_on_c, 0, 79, 90
2, 59036, Note_off_c, 0, 79, 0
2, 59040, Note_on_c, 0, 81, 90
2, 59084, Note_off_c, 0, 81, 0
2, 59088, Note_on_c, 0, 82, 90
2, 59132, Note_off_c, 0, 82, 0
2, 59136, Note_on_c, 0, 72, 90
2, 59156, Note_off_c, 0, 72, 0
2, 59160, Note_on_c, 0, 74, 90
2, 59180, Note_off_c, 0, 74, 0
2, 59184, Note_on_c, 0, 72, 90
2, 59204, Note_off_c, 0, 72, 0
2, 59208, Note_on_c, 0, 74, 90
2, 59228, Note_off_c, 0, 74, 0
2, 59232, Note_on_c, 0, 72, 90
2, 59252, Note_off_c, 0, 72, 0
2, 59256, Note_on_c, 0, 74, 90
2, 59276, Note_off_c, 0, 74, 0
2, 59280, Note_on_c, 0, 72, 90
2, 59300, Note_off_c, 0, 72, 0
2, 59304, Note_on_c, 0, 74, 90
2, 59324, Note_off_c, 0, 74, 0
2, 59328, Note_on_c, 0, 72, 90
2, 59348, Note_off_c, 0, 72, 0
2, 59352, Note_on_c, 0, 74, 90
2, 59372, Note_off_c, 0, 74, 0
2, 59376, Note_on_c, 0, 72, 90
2, 59396, Note_off_c, 0, 72, 0
2, 59400, Note_on_c, 0, 74, 90
2, 59420, Note_off_c, 0, 74, 0
2, 59424, Note_on_c, 0, 72, 90
2, 59444, Note_off_c, 0, 72, 0
2, 59448, Note_on_c, 0, 74, 90
2, 59468, Note_off_c, 0, 74, 0
2, 59472, Note_on_c, 0, 72, 90
2, 59492, Note_off_c, 0, 72, 0
2, 59496, Note_on_c, 0, 74, 90
2, 59516, Note_off_c, 0, 74, 0
2, 59520, Note_on_c, 0, 72, 90
2, 59540, Note_off_c, 0, 72, 0
2, 59544, Note_on_c, 0, 74, 90
2, 59564, Note_off_c, 0, 74, 0
2, 59568, Note_on_c, 0, 72, 90
2, 59588, Note_off_c, 0, 72, 0
2, 59592, Note_on_c, 0, 74, 90
2, 59612, Note_off_c, 0, 74, 0
2, 59616, Note_on_c, 0, 72, 90
2, 59636, Note_off_c, 0, 72, 0
2, 59640, Note_on_c, 0, 74, 90
2, 59660, Note_off_c, 0, 74, 0
2, 59664, Note_on_c, 0, 72, 90
2, 59684, Note_off_c, 0, 72, 0
2, 59688, Note_on_c, 0, 74, 90
2, 59708, Note_off_c, 0, 74, 0
2, 59712, Note_on_c, 0, 72, 90
2, 59732, Note_off_c, 0, 72, 0
2, 59736, Note_on_c, 0, 74, 90
2, 59756, Note_off_c, 0, 74, 0
2, 59760, Note_on_c, 0, 72, 90
2, 59780, Note_off_c, 0, 72, 0
2, 59808, Note_on_c, 0, 70, 90
2, 59852, Note_off_c, 0, 70, 0
2, 59856, Note_on_c, 0, 72, 90
2, 59900, Note_off_c, 0, 72, 0
2, 59904, Note_on_c, 0, 70, 60
2, 59904, Note_on_c, 0, 55, 60
2, 59904, Note_on_c, 0, 55, 60
2, 60000, Note_on_c, 0, 62, 60
2, 60092, Note_off_c, 0, 70, 0
2, 60092, Note_off_c, 0, 62, 0
2, 60096, Note_on_c, 0, 65, 60
2, 60144, Note_on_c, 0, 70, 60
2, 60188, Note_off_c, 0, 65, 0
2, 60188, Note_off_c, 0, 70, 0
2, 60192, Note_on_c, 0, 70, 60
2, 60192, Note_on_c, 0, 68, 60
2, 60284, Note_off_c, 0, 70, 0
2, 60284, Note_off_c, 0, 68, 0
2, 60288, Note_on_c, 0, 77, 60
2, 60288, Note_on_c, 0, 67, 60
2, 60380, Note_off_c, 0, 77, 0
2, 60384, Note_on_c, 0, 75, 60
2, 60476, Note_off_c, 0, 67, 0
2, 60476, Note_off_c, 0, 75, 0
2, 60480, Note_on_c, 0, 74, 60
2, 60480, Note_on_c, 0, 63, 60
2, 60572, Note_off_c, 0, 74, 0
2, 60576, Note_on_c, 0, 72, 60
2, 60668, Note_off_c, 0, 55, 0
2, 60668, Note_off_c, 0, 55, 0
2, 60668, Note_off_c, 0, 63, 0
2, 60668, Note_off_c, 0, 72, 0
2, 60672, Note_on_c, 0, 72, 60
2, 60672, Note_on_c, 0, 62, 60
2, 60672, Note_on_c, 0, 58, 60
2, 60764, Note_off_c, 0, 72, 0
2, 60764, Note_off_c, 0, 62, 0
2, 60768, Note_on_c, 0, 70, 60
2, 60768, Note_on_c, 0, 65, 60
2, 60860, Note_off_c, 0, 70, 0
2, 60860, Note_off_c, 0, 65, 0
2, 60864, Note_on_c, 0, 68, 60
2, 60912, Note_on_c, 0, 70, 60
2, 60956, Note_off_c, 0, 68, 0
2, 60956, Note_off_c, 0, 70, 0
2, 60960, Note_on_c, 0, 70, 60
2, 60960, Note_on_c, 0, 66, 60
2, 61052, Note_off_c, 0, 70, 0
2, 61052, Note_off_c, 0, 66, 0
2, 61056, Note_on_c, 0, 77, 60
2, 61056, Note_on_c, 0, 67, 60
2, 61148, Note_off_c, 0, 77, 0
2, 61152, Note_on_c, 0, 75, 60
2, 61244, Note_off_c, 0, 67, 0
2, 61244, Note_off_c, 0, 75, 0
2, 61248, Note_on_c, 0, 74, 60
2, 61248, Note_on_c, 0, 63, 60
2, 61340, Note_off_c, 0, 74, 0
2, 61344, Note_on_c, 0, 72, 60
2, 61436, Note_off_c, 0, 58, 0
2, 61436, Note_off_c, 0, 63, 0
2, 61436, Note_off_c, 0, 72, 0
2, 61440, Note_on_c, 0, 70, 60
2, 61440, Note_on_c, 0, 58, 60
2, 61440, Note_on_c, 0, 58, 60
2, 61532, Note_off_c, 0, 70, 0
2, 61532, Note_off_c, 0, 58, 0
2, 61536, Note_on_c, 0, 62, 60
2, 61536, Note_on_c, 0, 65, 60
2, 61584, Note_on_c, 0, 75, 60
2, 61628, Note_off_c, 0, 62, 0
2, 61628, Note_off_c, 0, 65, 0
2, 61632, Note_on_c, 0, 67, 60
2, 61632, Note_on_c, 0, 63, 60
2, 61724, Note_off_c, 0, 75, 0
2, 61724, Note_off_c, 0, 67, 0
2, 61724, Note_off_c, 0, 63, 0
2, 61728, Note_on_c, 0, 63, 60
2, 61728, Note_on_c, 0, 60, 60
2, 61776, Note_on_c, 0, 69, 60
2, 61820, Note_off_c, 0, 58, 0
2, 61820, Note_off_c, 0, 63, 0
2, 61820, Note_off_c, 0, 60, 0
2, 61820, Note_off_c, 0, 69, 0
2, 61824, Note_on_c, 0, 70, 60
2, 61824, Note_on_c, 0, 62, 60
2, 61824, Note_on_c, 0, 58, 60
2, 61824, Note_on_c, 0, 58, 60
2, 61916, Note_off_c, 0, 70, 0
2, 61916, Note_off_c, 0, 62, 0
2, 61916, Note_off_c, 0, 58, 0
2, 61920, Note_on_c, 0, 79, 60
2, 61920, Note_on_c, 0, 65, 60
2, 61920, Note_on_c, 0, 62, 60
2, 62012, Note_off_c, 0, 65, 0
2, 62012, Note_off_c, 0, 62, 0
2, 62016, Note_on_c, 0, 67, 60
2, 62016, Note_on_c, 0, 63, 60
2, 62060, Note_off_c, 0, 79, 0
2, 62108, Note_off_c, 0, 67, 0
2, 62108, Note_off_c, 0, 63, 0
2, 62112, Note_on_c, 0, 63, 60
2, 62112, Note_on_c, 0, 60, 60
2, 62160, Note_on_c, 0, 69, 60
2, 62204, Note_off_c, 0, 58, 0
2, 62204, Note_off_c, 0, 63, 0
2, 62204, Note_off_c, 0, 60, 0
2, 62204, Note_off_c, 0, 69, 0
2, 62208, Note_on_c, 0, 65, 87
2, 62208, Note_on_c, 0, 63, 87
2, 62208, Note_on_c, 0, 60, 87
2, 62208, Note_on_c, 0, 69, 87
2, 62588, Note_off_c, 0, 65, 0
2, 62588, Note_off_c, 0, 63, 0
2, 62588, Note_off_c, 0, 60, 0
2, 62588, Note_off_c, 0, 69, 0
2, 62592, Note_on_c, 0, 70, 60
2, 62592, Note_on_c, 0, 65, 60
2, 62592, Note_on_c, 0, 62, 60
2, 62972, Note_off_c, 0, 70, 0
2, 62972, Note_off_c, 0, 65, 0
2, 62972, Note_off_c, 0, 62, 0
2, 62972, End_track
3, 0, Start_track
3, 0, Title_t, "Sonata  # 1"
3, 0, Control_c, 1, 0, 0
3, 0, Program_c, 1, 0
3, 0, Control_c, 1, 7, 80
3, 0, Control_c, 1, 10, 54
3, 0, Control_c, 1, 91, 76
3, 0, Control_c, 1, 93, 46
3, 0, Key_signature, -2, "minor"
3, 0, Control_c, 1, 121, 0
3, 96, Control_c, 1, 10, 53
3, 144, Control_c, 1, 91, 63
3, 188, Control_c, 1, 93, 40
3, 288, Program_c, 1, 0
3, 1536, Note_on_c, 1, 58, 45
3, 1628, Note_off_c, 1, 58, 0
3, 1632, Note_on_c, 1, 65, 45
3, 1724, Note_off_c, 1, 65, 0
3, 1728, Note_on_c, 1, 62, 45
3, 1820, Note_off_c, 1, 62, 0
3, 1824, Note_on_c, 1, 65, 45
3, 1916, Note_off_c, 1, 65, 0
3, 1920, Note_on_c, 1, 58, 45
3, 2012, Note_off_c, 1, 58, 0
3, 2016, Note_on_c, 1, 65, 45
3, 2108, Note_off_c, 1, 65, 0
3, 2112, Note_on_c, 1, 62, 45
3, 2204, Note_off_c, 1, 62, 0
3, 2208, Note_on_c, 1, 65, 45
3, 2300, Note_off_c, 1, 65, 0
3, 2304, Note_on_c, 1, 57, 45
3, 2396, Note_off_c, 1, 57, 0
3, 2400, Note_on_c, 1, 65, 45
3, 2492, Note_off_c, 1, 65, 0
3, 2496, Note_on_c, 1, 60, 45
3, 2588, Note_off_c, 1, 60, 0
3, 2592, Note_on_c, 1, 65, 45
3, 2684, Note_off_c, 1, 65, 0
3, 2688, Note_on_c, 1, 57, 45
3, 2780, Note_off_c, 1, 57, 0
3, 2784, Note_on_c, 1, 65, 45
3, 2876, Note_off_c, 1, 65, 0
3, 2880, Note_on_c, 1, 60, 45
3, 2972, Note_off_c, 1, 60, 0
3, 2976, Note_on_c, 1, 65, 45
3, 3068, Note_off_c, 1, 65, 0
3, 3072, Note_on_c, 1, 55, 45
3, 3164, Note_off_c, 1, 55, 0
3, 3168, Note_on_c, 1, 63, 45
3, 3260, Note_off_c, 1, 63, 0
3, 3264, Note_on_c, 1, 58, 45
3, 3356, Note_off_c, 1, 58, 0
3, 3360, Note_on_c, 1, 63, 45
3, 3452, Note_off_c, 1, 63, 0
3, 3456, Note_on_c, 1, 51, 45
3, 3548, Note_off_c, 1, 51, 0
3, 3552, Note_on_c, 1, 58, 45
3, 3644, Note_off_c, 1, 58, 0
3, 3648, Note_on_c, 1, 55, 45
3, 3740, Note_off_c, 1, 55, 0
3, 3744, Note_on_c, 1, 58, 45
3, 3836, Note_off_c, 1, 58, 0
3, 3840, Note_on_c, 1, 50, 45
3, 3932, Note_off_c, 1, 50, 0
3, 3936, Note_on_c, 1, 58, 45
3, 4028, Note_off_c, 1, 58, 0
3, 4032, Note_on_c, 1, 53, 45
3, 4124, Note_off_c, 1, 53, 0
3, 4128, Note_on_c, 1, 58, 45
3, 4220, Note_off_c, 1, 58, 0
3, 4224, Note_on_c, 1, 50, 45
3, 4316, Note_off_c, 1, 50, 0
3, 4320, Note_on_c, 1, 58, 45
3, 4412, Note_off_c, 1, 58, 0
3, 4416, Note_on_c, 1, 53, 45
3, 4508, Note_off_c, 1, 53, 0
3, 4512, Note_on_c, 1, 58, 45
3, 4604, Note_off_c, 1, 58, 0
3, 4608, Note_on_c, 1, 51, 45
3, 4700, Note_off_c, 1, 51, 0
3, 4704, Note_on_c, 1, 55, 45
3, 4796, Note_off_c, 1, 55, 0
3, 4800, Note_on_c, 1, 51, 45
3, 4892, Note_off_c, 1, 51, 0
3, 4896, Note_on_c, 1, 59, 45
3, 4988, Note_off_c, 1, 59, 0
3, 4992, Note_on_c, 1, 51, 45
3, 5084, Note_off_c, 1, 51, 0
3, 5088, Note_on_c, 1, 60, 45
3, 5180, Note_off_c, 1, 60, 0
3, 5184, Note_on_c, 1, 51, 45
3, 5276, Note_off_c, 1, 51, 0
3, 5280, Note_on_c, 1, 63, 45
3, 5372, Note_off_c, 1, 63, 0
3, 5376, Note_on_c, 1, 50, 45
3, 5468, Note_off_c, 1, 50, 0
3, 5472, Note_on_c, 1, 53, 45
3, 5564, Note_off_c, 1, 53, 0
3, 5568, Note_on_c, 1, 50, 45
3, 5660, Note_off_c, 1, 50, 0
3, 5664, Note_on_c, 1, 57, 45
3, 5756, Note_off_c, 1, 57, 0
3, 5760, Note_on_c, 1, 50, 45
3, 5852, Note_off_c, 1, 50, 0
3, 5856, Note_on_c, 1, 58, 45
3, 5948, Note_off_c, 1, 58, 0
3, 5952, Note_on_c, 1, 50, 45
3, 6044, Note_off_c, 1, 50, 0
3, 6048, Note_on_c, 1, 62, 45
3, 6140, Note_off_c, 1, 62, 0
3, 6144, Note_on_c, 1, 57, 45
3, 6236, Note_off_c, 1, 57, 0
3, 6240, Note_on_c, 1, 65, 45
3, 6332, Note_off_c, 1, 65, 0
3, 6336, Note_on_c, 1, 60, 45
3, 6428, Note_off_c, 1, 60, 0
3, 6432, Note_on_c, 1, 65, 45
3, 6524, Note_off_c, 1, 65, 0
3, 6528, Note_on_c, 1, 58, 45
3, 6620, Note_off_c, 1, 58, 0
3, 6624, Note_on_c, 1, 65, 45
3, 6716, Note_off_c, 1, 65, 0
3, 6720, Note_on_c, 1, 62, 45
3, 6812, Note_off_c, 1, 62, 0
3, 6816, Note_on_c, 1, 65, 45
3, 6908, Note_off_c, 1, 65, 0
3, 6912, Note_on_c, 1, 53, 45
3, 7004, Note_off_c, 1, 53, 0
3, 7008, Note_on_c, 1, 62, 45
3, 7100, Note_off_c, 1, 62, 0
3, 7104, Note_on_c, 1, 58, 45
3, 7196, Note_off_c, 1, 58, 0
3, 7200, Note_on_c, 1, 62, 45
3, 7292, Note_off_c, 1, 62, 0
3, 7296, Note_on_c, 1, 60, 45
3, 7296, Note_on_c, 1, 57, 45
3, 7296, Note_on_c, 1, 53, 45
3, 7484, Note_off_c, 1, 60, 0
3, 7484, Note_off_c, 1, 57, 0
3, 7484, Note_off_c, 1, 53, 0
3, 7680, Note_on_c, 1, 58, 45
3, 7772, Note_off_c, 1, 58, 0
3, 7776, Note_on_c, 1, 65, 45
3, 7868, Note_off_c, 1, 65, 0
3, 7872, Note_on_c, 1, 61, 45
3, 7964, Note_off_c, 1, 61, 0
3, 7968, Note_on_c, 1, 65, 45
3, 8060, Note_off_c, 1, 65, 0
3, 8064, Note_on_c, 1, 58, 45
3, 8156, Note_off_c, 1, 58, 0
3, 8160, Note_on_c, 1, 65, 45
3, 8252, Note_off_c, 1, 65, 0
3, 8256, Note_on_c, 1, 61, 45
3, 8348, Note_off_c, 1, 61, 0
3, 8352, Note_on_c, 1, 65, 45
3, 8444, Note_off_c, 1, 65, 0
3, 8448, Note_on_c, 1, 56, 45
3, 8540, Note_off_c, 1, 56, 0
3, 8544, Note_on_c, 1, 65, 45
3, 8636, Note_off_c, 1, 65, 0
3, 8640, Note_on_c, 1, 60, 45
3, 8732, Note_off_c, 1, 60, 0
3, 8736, Note_on_c, 1, 65, 45
3, 8828, Note_off_c, 1, 65, 0
3, 8832, Note_on_c, 1, 56, 45
3, 8924, Note_off_c, 1, 56, 0
3, 8928, Note_on_c, 1, 65, 45
3, 9020, Note_off_c, 1, 65, 0
3, 9024, Note_on_c, 1, 60, 45
3, 9116, Note_off_c, 1, 60, 0
3, 9120, Note_on_c, 1, 65, 45
3, 9212, Note_off_c, 1, 65, 0
3, 9216, Note_on_c, 1, 54, 48
3, 9308, Note_off_c, 1, 54, 0
3, 9312, Note_on_c, 1, 63, 49
3, 9404, Note_off_c, 1, 63, 0
3, 9408, Note_on_c, 1, 58, 51
3, 9500, Note_off_c, 1, 58, 0
3, 9504, Note_on_c, 1, 63, 52
3, 9596, Note_off_c, 1, 63, 0
3, 9600, Note_on_c, 1, 51, 54
3, 9692, Note_off_c, 1, 51, 0
3, 9696, Note_on_c, 1, 58, 54
3, 9788, Note_off_c, 1, 58, 0
3, 9792, Note_on_c, 1, 54, 54
3, 9884, Note_off_c, 1, 54, 0
3, 9888, Note_on_c, 1, 58, 54
3, 9980, Note_off_c, 1, 58, 0
3, 9984, Note_on_c, 1, 50, 52
3, 10076, Note_off_c, 1, 50, 0
3, 10080, Note_on_c, 1, 58, 51
3, 10172, Note_off_c, 1, 58, 0
3, 10176, Note_on_c, 1, 53, 49
3, 10268, Note_off_c, 1, 53, 0
3, 10272, Note_on_c, 1, 58, 48
3, 10364, Note_off_c, 1, 58, 0
3, 10368, Note_on_c, 1, 49, 46
3, 10460, Note_off_c, 1, 49, 0
3, 10464, Note_on_c, 1, 58, 46
3, 10556, Note_off_c, 1, 58, 0
3, 10560, Note_on_c, 1, 53, 45
3, 10652, Note_off_c, 1, 53, 0
3, 10656, Note_on_c, 1, 58, 45
3, 10748, Note_off_c, 1, 58, 0
3, 10752, Note_on_c, 1, 48, 82
3, 10844, Note_off_c, 1, 48, 0
3, 10848, Note_on_c, 1, 58, 79
3, 10940, Note_off_c, 1, 58, 0
3, 10944, Note_on_c, 1, 55, 75
3, 11036, Note_off_c, 1, 55, 0
3, 11040, Note_on_c, 1, 58, 67
3, 11132, Note_off_c, 1, 58, 0
3, 11136, Note_on_c, 1, 48, 60
3, 11228, Note_off_c, 1, 48, 0
3, 11232, Note_on_c, 1, 58, 45
3, 11324, Note_off_c, 1, 58, 0
3, 11328, Note_on_c, 1, 55, 45
3, 11420, Note_off_c, 1, 55, 0
3, 11424, Note_on_c, 1, 58, 45
3, 11516, Note_off_c, 1, 58, 0
3, 11520, Note_on_c, 1, 49, 45
3, 11612, Note_off_c, 1, 49, 0
3, 11616, Note_on_c, 1, 56, 45
3, 11708, Note_off_c, 1, 56, 0
3, 11728, Note_on_c, 1, 53, 45
3, 11808, Note_on_c, 1, 56, 45
3, 11820, Note_off_c, 1, 53, 0
3, 11900, Note_off_c, 1, 56, 0
3, 11920, Note_on_c, 1, 46, 45
3, 12000, Note_on_c, 1, 55, 45
3, 12012, Note_off_c, 1, 46, 0
3, 12092, Note_off_c, 1, 55, 0
3, 12096, Note_on_c, 1, 49, 45
3, 12188, Note_off_c, 1, 49, 0
3, 12192, Note_on_c, 1, 55, 45
3, 12284, Note_off_c, 1, 55, 0
3, 12288, Note_on_c, 1, 48, 45
3, 12380, Note_off_c, 1, 48, 0
3, 12384, Note_on_c, 1, 57, 45
3, 12476, Note_off_c, 1, 57, 0
3, 12480, Note_on_c, 1, 53, 45
3, 12572, Note_off_c, 1, 53, 0
3, 12576, Note_on_c, 1, 57, 45
3, 12668, Note_off_c, 1, 57, 0
3, 12672, Note_on_c, 1, 48, 45
3, 12764, Note_off_c, 1, 48, 0
3, 12768, Note_on_c, 1, 58, 45
3, 12860, Note_off_c, 1, 58, 0
3, 12864, Note_on_c, 1, 55, 45
3, 12956, Note_off_c, 1, 55, 0
3, 12960, Note_on_c, 1, 58, 45
3, 13052, Note_off_c, 1, 58, 0
3, 13056, Note_on_c, 1, 57, 45
3, 13056, Note_on_c, 1, 53, 45
3, 13148, Note_off_c, 1, 57, 0
3, 13152, Note_on_c, 1, 60, 45
3, 13244, Note_off_c, 1, 53, 0
3, 13244, Note_off_c, 1, 60, 0
3, 13248, Note_on_c, 1, 60, 45
3, 13340, Note_off_c, 1, 60, 0
3, 13344, Note_on_c, 1, 60, 45
3, 13436, Note_off_c, 1, 60, 0
3, 13440, Note_on_c, 1, 57, 45
3, 13440, Note_on_c, 1, 53, 45
3, 13532, Note_off_c, 1, 57, 0
3, 13536, Note_on_c, 1, 60, 45
3, 13628, Note_off_c, 1, 53, 0
3, 13628, Note_off_c, 1, 60, 0
3, 13632, Note_on_c, 1, 58, 45
3, 13632, Note_on_c, 1, 55, 45
3, 13724, Note_off_c, 1, 58, 0
3, 13728, Note_on_c, 1, 60, 45
3, 13820, Note_off_c, 1, 55, 0
3, 13820, Note_off_c, 1, 60, 0
3, 13824, Note_on_c, 1, 55, 45
3, 13824, Note_on_c, 1, 52, 45
3, 13916, Note_off_c, 1, 55, 0
3, 13920, Note_on_c, 1, 60, 45
3, 14012, Note_off_c, 1, 52, 0
3, 14012, Note_off_c, 1, 60, 0
3, 14016, Note_on_c, 1, 60, 45
3, 14108, Note_off_c, 1, 60, 0
3, 14112, Note_on_c, 1, 60, 45
3, 14204, Note_off_c, 1, 60, 0
3, 14208, Note_on_c, 1, 52, 45
3, 14208, Note_on_c, 1, 48, 45
3, 14300, Note_off_c, 1, 52, 0
3, 14304, Note_on_c, 1, 60, 45
3, 14396, Note_off_c, 1, 48, 0
3, 14396, Note_off_c, 1, 60, 0
3, 14400, Note_on_c, 1, 58, 45
3, 14400, Note_on_c, 1, 55, 45
3, 14492, Note_off_c, 1, 58, 0
3, 14496, Note_on_c, 1, 60, 45
3, 14588, Note_off_c, 1, 55, 0
3, 14588, Note_off_c, 1, 60, 0
3, 14592, Note_on_c, 1, 57, 45
3, 14592, Note_on_c, 1, 53, 45
3, 14684, Note_off_c, 1, 57, 0
3, 14688, Note_on_c, 1, 60, 45
3, 14780, Note_off_c, 1, 53, 0
3, 14780, Note_off_c, 1, 60, 0
3, 14784, Note_on_c, 1, 60, 45
3, 14876, Note_off_c, 1, 60, 0
3, 14880, Note_on_c, 1, 60, 45
3, 14972, Note_off_c, 1, 60, 0
3, 14976, Note_on_c, 1, 57, 45
3, 14976, Note_on_c, 1, 53, 45
3, 15068, Note_off_c, 1, 57, 0
3, 15072, Note_on_c, 1, 60, 45
3, 15164, Note_off_c, 1, 53, 0
3, 15164, Note_off_c, 1, 60, 0
3, 15168, Note_on_c, 1, 58, 45
3, 15168, Note_on_c, 1, 55, 45
3, 15260, Note_off_c, 1, 58, 0
3, 15264, Note_on_c, 1, 60, 45
3, 15356, Note_off_c, 1, 55, 0
3, 15356, Note_off_c, 1, 60, 0
3, 15360, Note_on_c, 1, 55, 45
3, 15360, Note_on_c, 1, 52, 45
3, 15452, Note_off_c, 1, 55, 0
3, 15456, Note_on_c, 1, 60, 45
3, 15548, Note_off_c, 1, 52, 0
3, 15548, Note_off_c, 1, 60, 0
3, 15552, Note_on_c, 1, 60, 45
3, 15644, Note_off_c, 1, 60, 0
3, 15648, Note_on_c, 1, 60, 45
3, 15740, Note_off_c, 1, 60, 0
3, 15744, Note_on_c, 1, 52, 45
3, 15744, Note_on_c, 1, 48, 45
3, 15836, Note_off_c, 1, 52, 0
3, 15840, Note_on_c, 1, 60, 45
3, 15932, Note_off_c, 1, 48, 0
3, 15932, Note_off_c, 1, 60, 0
3, 15936, Note_on_c, 1, 58, 45
3, 15936, Note_on_c, 1, 55, 45
3, 16028, Note_off_c, 1, 58, 0
3, 16032, Note_on_c, 1, 60, 45
3, 16124, Note_off_c, 1, 55, 0
3, 16124, Note_off_c, 1, 60, 0
3, 16128, Note_on_c, 1, 57, 45
3, 16128, Note_on_c, 1, 53, 45
3, 16316, Note_off_c, 1, 57, 0
3, 16316, Note_off_c, 1, 53, 0
3, 17664, Note_on_c, 1, 60, 90
3, 17664, Note_on_c, 1, 57, 90
3, 17664, Note_on_c, 1, 54, 90
3, 17664, Note_on_c, 1, 50, 90
3, 18044, Note_off_c, 1, 60, 0
3, 18044, Note_off_c, 1, 57, 0
3, 18044, Note_off_c, 1, 54, 0
3, 18044, Note_off_c, 1, 50, 0
3, 18048, Note_on_c, 1, 55, 60
3, 18048, Note_on_c, 1, 58, 60
3, 18236, Note_off_c, 1, 58, 0
3, 18240, Note_on_c, 1, 64, 60
3, 18428, Note_off_c, 1, 55, 0
3, 18428, Note_off_c, 1, 64, 0
3, 18432, Note_on_c, 1, 57, 60
3, 18432, Note_on_c, 1, 65, 60
3, 18480, Note_on_c, 1, 63, 60
3, 18548, Note_off_c, 1, 63, 0
3, 18620, Note_off_c, 1, 57, 0
3, 18620, Note_off_c, 1, 65, 0
3, 18624, Note_on_c, 1, 58, 60
3, 18624, Note_on_c, 1, 62, 60
3, 18812, Note_off_c, 1, 58, 0
3, 18812, Note_off_c, 1, 62, 0
3, 18816, Note_on_c, 1, 57, 60
3, 18816, Note_on_c, 1, 48, 60
3, 18960, Note_on_c, 1, 70, 60
3, 19004, Note_off_c, 1, 57, 0
3, 19008, Note_on_c, 1, 58, 60
3, 19052, Note_off_c, 1, 70, 0
3, 19196, Note_off_c, 1, 48, 0
3, 19196, Note_off_c, 1, 58, 0
3, 19200, Note_on_c, 1, 53, 60
3, 19200, Note_on_c, 1, 58, 60
3, 19292, Note_off_c, 1, 58, 0
3, 19296, Note_on_c, 1, 60, 60
3, 19388, Note_off_c, 1, 53, 0
3, 19388, Note_off_c, 1, 60, 0
3, 19392, Note_on_c, 1, 60, 60
3, 19484, Note_off_c, 1, 60, 0
3, 19488, Note_on_c, 1, 60, 60
3, 19580, Note_off_c, 1, 60, 0
3, 19584, Note_on_c, 1, 53, 60
3, 19600, Note_on_c, 1, 57, 60
3, 19680, Note_on_c, 1, 60, 60
3, 19692, Note_off_c, 1, 57, 0
3, 19772, Note_off_c, 1, 53, 0
3, 19772, Note_off_c, 1, 60, 0
3, 19776, Note_on_c, 1, 58, 60
3, 19776, Note_on_c, 1, 55, 60
3, 19868, Note_off_c, 1, 58, 0
3, 19872, Note_on_c, 1, 60, 60
3, 19964, Note_off_c, 1, 55, 0
3, 19964, Note_off_c, 1, 60, 0
3, 19968, Note_on_c, 1, 55, 60
3, 19968, Note_on_c, 1, 52, 60
3, 20060, Note_off_c, 1, 55, 0
3, 20064, Note_on_c, 1, 60, 60
3, 20156, Note_off_c, 1, 52, 0
3, 20156, Note_off_c, 1, 60, 0
3, 20160, Note_on_c, 1, 60, 60
3, 20252, Note_off_c, 1, 60, 0
3, 20256, Note_on_c, 1, 60, 60
3, 20348, Note_off_c, 1, 60, 0
3, 20352, Note_on_c, 1, 52, 60
3, 20352, Note_on_c, 1, 48, 60
3, 20444, Note_off_c, 1, 52, 0
3, 20448, Note_on_c, 1, 60, 60
3, 20540, Note_off_c, 1, 48, 0
3, 20540, Note_off_c, 1, 60, 0
3, 20544, Note_on_c, 1, 58, 60
3, 20544, Note_on_c, 1, 55, 60
3, 20636, Note_off_c, 1, 58, 0
3, 20640, Note_on_c, 1, 60, 60
3, 20732, Note_off_c, 1, 55, 0
3, 20732, Note_off_c, 1, 60, 0
3, 20736, Note_on_c, 1, 57, 60
3, 20736, Note_on_c, 1, 53, 60
3, 20828, Note_off_c, 1, 57, 0
3, 20832, Note_on_c, 1, 60, 60
3, 20924, Note_off_c, 1, 53, 0
3, 20924, Note_off_c, 1, 60, 0
3, 20928, Note_on_c, 1, 60, 60
3, 21020, Note_off_c, 1, 60, 0
3, 21024, Note_on_c, 1, 60, 60
3, 21116, Note_off_c, 1, 60, 0
3, 21120, Note_on_c, 1, 57, 60
3, 21120, Note_on_c, 1, 53, 60
3, 21212, Note_off_c, 1, 57, 0
3, 21216, Note_on_c, 1, 60, 60
3, 21308, Note_off_c, 1, 53, 0
3, 21308, Note_off_c, 1, 60, 0
3, 21312, Note_on_c, 1, 58, 60
3, 21312, Note_on_c, 1, 55, 60
3, 21404, Note_off_c, 1, 58, 0
3, 21408, Note_on_c, 1, 60, 60
3, 21500, Note_off_c, 1, 55, 0
3, 21500, Note_off_c, 1, 60, 0
3, 21504, Note_on_c, 1, 55, 60
3, 21504, Note_on_c, 1, 52, 60
3, 21596, Note_off_c, 1, 55, 0
3, 21600, Note_on_c, 1, 60, 60
3, 21692, Note_off_c, 1, 52, 0
3, 21692, Note_off_c, 1, 60, 0
3, 21696, Note_on_c, 1, 60, 60
3, 21788, Note_off_c, 1, 60, 0
3, 21792, Note_on_c, 1, 60, 60
3, 21884, Note_off_c, 1, 60, 0
3, 21888, Note_on_c, 1, 52, 60
3, 21888, Note_on_c, 1, 48, 60
3, 21980, Note_off_c, 1, 52, 0
3, 21984, Note_on_c, 1, 60, 60
3, 22076, Note_off_c, 1, 48, 0
3, 22076, Note_off_c, 1, 60, 0
3, 22080, Note_on_c, 1, 58, 60
3, 22080, Note_on_c, 1, 55, 60
3, 22172, Note_off_c, 1, 58, 0
3, 22176, Note_on_c, 1, 60, 60
3, 22268, Note_off_c, 1, 55, 0
3, 22268, Note_off_c, 1, 60, 0
3, 22272, Note_on_c, 1, 57, 60
3, 22272, Note_on_c, 1, 53, 60
3, 22460, Note_off_c, 1, 57, 0
3, 22460, Note_off_c, 1, 53, 0
3, 23808, Note_on_c, 1, 60, 87
3, 23808, Note_on_c, 1, 50, 87
3, 23808, Note_on_c, 1, 57, 87
3, 23808, Note_on_c, 1, 54, 87
3, 24188, Note_off_c, 1, 60, 0
3, 24188, Note_off_c, 1, 50, 0
3, 24188, Note_off_c, 1, 57, 0
3, 24188, Note_off_c, 1, 54, 0
3, 24192, Note_on_c, 1, 55, 60
3, 24192, Note_on_c, 1, 58, 60
3, 24380, Note_off_c, 1, 58, 0
3, 24384, Note_on_c, 1, 64, 60
3, 24572, Note_off_c, 1, 55, 0
3, 24572, Note_off_c, 1, 64, 0
3, 24576, Note_on_c, 1, 57, 60
3, 24576, Note_on_c, 1, 65, 60
3, 24764, Note_off_c, 1, 57, 0
3, 24764, Note_off_c, 1, 65, 0
3, 24768, Note_on_c, 1, 58, 60
3, 24768, Note_on_c, 1, 62, 60
3, 24956, Note_off_c, 1, 58, 0
3, 24956, Note_off_c, 1, 62, 0
3, 24960, Note_on_c, 1, 57, 60
3, 24960, Note_on_c, 1, 48, 60
3, 25148, Note_off_c, 1, 57, 0
3, 25152, Note_on_c, 1, 55, 60
3, 25340, Note_off_c, 1, 48, 0
3, 25340, Note_off_c, 1, 55, 0
3, 25344, Note_on_c, 1, 53, 82
3, 25436, Note_off_c, 1, 53, 0
3, 25440, Note_on_c, 1, 57, 82
3, 25532, Note_off_c, 1, 57, 0
3, 25536, Note_on_c, 1, 62, 82
3, 25628, Note_off_c, 1, 62, 0
3, 25728, Note_on_c, 1, 55, 82
3, 25820, Note_off_c, 1, 55, 0
3, 25824, Note_on_c, 1, 58, 82
3, 25916, Note_off_c, 1, 58, 0
3, 25920, Note_on_c, 1, 64, 82
3, 26012, Note_off_c, 1, 64, 0
3, 26208, Note_on_c, 1, 57, 82
3, 26300, Note_off_c, 1, 57, 0
3, 26304, Note_on_c, 1, 60, 82
3, 26396, Note_off_c, 1, 60, 0
3, 26400, Note_on_c, 1, 65, 82
3, 26492, Note_off_c, 1, 65, 0
3, 26496, Note_on_c, 1, 65, 82
3, 26496, Note_on_c, 1, 57, 82
3, 26588, Note_off_c, 1, 65, 0
3, 26588, Note_off_c, 1, 57, 0
3, 26880, Note_on_c, 1, 58, 82
3, 26880, Note_on_c, 1, 62, 82
3, 26880, Note_on_c, 1, 65, 82
3, 27068, Note_off_c, 1, 58, 0
3, 27068, Note_off_c, 1, 62, 0
3, 27068, Note_off_c, 1, 65, 0
3, 27264, Note_on_c, 1, 58, 82
3, 27264, Note_on_c, 1, 62, 82
3, 27264, Note_on_c, 1, 67, 82
3, 27452, Note_off_c, 1, 58, 0
3, 27452, Note_off_c, 1, 62, 0
3, 27452, Note_off_c, 1, 67, 0
3, 27648, Note_on_c, 1, 48, 60
3, 27740, Note_off_c, 1, 48, 0
3, 27744, Note_on_c, 1, 57, 60
3, 27792, Note_on_c, 1, 53, 60
3, 27836, Note_off_c, 1, 57, 0
3, 27884, Note_off_c, 1, 53, 0
3, 27936, Note_on_c, 1, 57, 60
3, 28028, Note_off_c, 1, 57, 0
3, 28056, Note_on_c, 1, 48, 60
3, 28128, Note_on_c, 1, 57, 60
3, 28148, Note_off_c, 1, 48, 0
3, 28220, Note_off_c, 1, 57, 0
3, 28224, Note_on_c, 1, 53, 60
3, 28316, Note_off_c, 1, 53, 0
3, 28320, Note_on_c, 1, 57, 60
3, 28412, Note_off_c, 1, 57, 0
3, 28416, Note_on_c, 1, 48, 60
3, 28508, Note_off_c, 1, 48, 0
3, 28512, Note_on_c, 1, 58, 60
3, 28604, Note_off_c, 1, 58, 0
3, 28608, Note_on_c, 1, 52, 60
3, 28700, Note_off_c, 1, 52, 0
3, 28704, Note_on_c, 1, 58, 60
3, 28796, Note_off_c, 1, 58, 0
3, 28800, Note_on_c, 1, 48, 60
3, 28892, Note_off_c, 1, 48, 0
3, 28896, Note_on_c, 1, 58, 60
3, 28988, Note_off_c, 1, 58, 0
3, 28992, Note_on_c, 1, 52, 60
3, 29084, Note_off_c, 1, 52, 0
3, 29088, Note_on_c, 1, 58, 60
3, 29180, Note_off_c, 1, 58, 0
3, 29184, Note_on_c, 1, 53, 60
3, 29184, Note_on_c, 1, 53, 60
3, 29276, Note_off_c, 1, 53, 0
3, 29280, Note_on_c, 1, 60, 60
3, 29372, Note_off_c, 1, 60, 0
3, 29376, Note_on_c, 1, 65, 60
3, 29468, Note_off_c, 1, 65, 0
3, 29472, Note_on_c, 1, 63, 60
3, 29564, Note_off_c, 1, 63, 0
3, 29568, Note_on_c, 1, 62, 60
3, 29756, Note_off_c, 1, 62, 0
3, 29760, Note_on_c, 1, 58, 60
3, 29948, Note_off_c, 1, 53, 0
3, 29948, Note_off_c, 1, 58, 0
3, 29952, Note_on_c, 1, 53, 60
3, 29952, Note_on_c, 1, 57, 60
3, 30044, Note_off_c, 1, 57, 0
3, 30048, Note_on_c, 1, 60, 60
3, 30140, Note_off_c, 1, 60, 0
3, 30144, Note_on_c, 1, 65, 60
3, 30236, Note_off_c, 1, 65, 0
3, 30240, Note_on_c, 1, 63, 60
3, 30332, Note_off_c, 1, 63, 0
3, 30336, Note_on_c, 1, 62, 60
3, 30524, Note_off_c, 1, 62, 0
3, 30528, Note_on_c, 1, 58, 60
3, 30716, Note_off_c, 1, 53, 0
3, 30716, Note_off_c, 1, 58, 0
3, 30720, Note_on_c, 1, 57, 60
3, 30720, Note_on_c, 1, 53, 60
3, 30720, Note_on_c, 1, 53, 60
3, 30812, Note_off_c, 1, 57, 0
3, 30812, Note_off_c, 1, 53, 0
3, 30816, Note_on_c, 1, 58, 60
3, 30816, Note_on_c, 1, 55, 60
3, 30908, Note_off_c, 1, 58, 0
3, 30908, Note_off_c, 1, 55, 0
3, 30912, Note_on_c, 1, 57, 60
3, 30912, Note_on_c, 1, 60, 60
3, 31004, Note_off_c, 1, 57, 0
3, 31004, Note_off_c, 1, 60, 0
3, 31008, Note_on_c, 1, 62, 60
3, 31008, Note_on_c, 1, 58, 60
3, 31100, Note_off_c, 1, 62, 0
3, 31100, Note_off_c, 1, 58, 0
3, 31104, Note_on_c, 1, 63, 60
3, 31104, Note_on_c, 1, 60, 60
3, 31196, Note_off_c, 1, 63, 0
3, 31196, Note_off_c, 1, 60, 0
3, 31200, Note_on_c, 1, 58, 60
3, 31200, Note_on_c, 1, 62, 60
3, 31292, Note_off_c, 1, 58, 0
3, 31292, Note_off_c, 1, 62, 0
3, 31296, Note_on_c, 1, 60, 60
3, 31296, Note_on_c, 1, 63, 60
3, 31388, Note_off_c, 1, 60, 0
3, 31388, Note_off_c, 1, 63, 0
3, 31392, Note_on_c, 1, 58, 60
3, 31392, Note_on_c, 1, 62, 60
3, 31484, Note_off_c, 1, 53, 0
3, 31484, Note_off_c, 1, 58, 0
3, 31484, Note_off_c, 1, 62, 0
3, 31488, Note_on_c, 1, 60, 60
3, 31488, Note_on_c, 1, 63, 60
3, 31488, Note_on_c, 1, 53, 60
3, 31868, Note_off_c, 1, 60, 0
3, 31868, Note_off_c, 1, 63, 0
3, 31868, Note_off_c, 1, 53, 0
3, 32256, Note_on_c, 1, 51, 45
3, 32348, Note_off_c, 1, 51, 0
3, 32352, Note_on_c, 1, 55, 45
3, 32444, Note_off_c, 1, 55, 0
3, 32448, Note_on_c, 1, 51, 45
3, 32540, Note_off_c, 1, 51, 0
3, 32544, Note_on_c, 1, 59, 45
3, 32636, Note_off_c, 1, 59, 0
3, 32640, Note_on_c, 1, 51, 45
3, 32732, Note_off_c, 1, 51, 0
3, 32736, Note_on_c, 1, 60, 45
3, 32828, Note_off_c, 1, 60, 0
3, 32832, Note_on_c, 1, 51, 45
3, 32924, Note_off_c, 1, 51, 0
3, 32928, Note_on_c, 1, 63, 45
3, 33020, Note_off_c, 1, 63, 0
3, 33024, Note_on_c, 1, 50, 45
3, 33116, Note_off_c, 1, 50, 0
3, 33120, Note_on_c, 1, 53, 45
3, 33212, Note_off_c, 1, 53, 0
3, 33216, Note_on_c, 1, 50, 45
3, 33308, Note_off_c, 1, 50, 0
3, 33312, Note_on_c, 1, 57, 45
3, 33404, Note_off_c, 1, 57, 0
3, 33408, Note_on_c, 1, 50, 45
3, 33500, Note_off_c, 1, 50, 0
3, 33504, Note_on_c, 1, 58, 45
3, 33596, Note_off_c, 1, 58, 0
3, 33600, Note_on_c, 1, 50, 45
3, 33692, Note_off_c, 1, 50, 0
3, 33696, Note_on_c, 1, 62, 45
3, 33788, Note_off_c, 1, 62, 0
3, 33792, Note_on_c, 1, 55, 45
3, 33884, Note_off_c, 1, 55, 0
3, 33888, Note_on_c, 1, 63, 45
3, 33980, Note_off_c, 1, 63, 0
3, 33984, Note_on_c, 1, 58, 45
3, 34076, Note_off_c, 1, 58, 0
3, 34080, Note_on_c, 1, 63, 45
3, 34172, Note_off_c, 1, 63, 0
3, 34176, Note_on_c, 1, 51, 45
3, 34268, Note_off_c, 1, 51, 0
3, 34272, Note_on_c, 1, 58, 45
3, 34364, Note_off_c, 1, 58, 0
3, 34368, Note_on_c, 1, 55, 45
3, 34460, Note_off_c, 1, 55, 0
3, 34464, Note_on_c, 1, 58, 45
3, 34556, Note_off_c, 1, 58, 0
3, 34560, Note_on_c, 1, 50, 45
3, 34652, Note_off_c, 1, 50, 0
3, 34656, Note_on_c, 1, 58, 45
3, 34748, Note_off_c, 1, 58, 0
3, 34752, Note_on_c, 1, 53, 45
3, 34844, Note_off_c, 1, 53, 0
3, 34848, Note_on_c, 1, 58, 45
3, 34940, Note_off_c, 1, 58, 0
3, 34944, Note_on_c, 1, 50, 45
3, 35036, Note_off_c, 1, 50, 0
3, 35040, Note_on_c, 1, 58, 45
3, 35132, Note_off_c, 1, 58, 0
3, 35136, Note_on_c, 1, 53, 45
3, 35228, Note_off_c, 1, 53, 0
3, 35232, Note_on_c, 1, 58, 45
3, 35324, Note_off_c, 1, 58, 0
3, 35328, Note_on_c, 1, 51, 45
3, 35420, Note_off_c, 1, 51, 0
3, 35424, Note_on_c, 1, 55, 45
3, 35516, Note_off_c, 1, 55, 0
3, 35520, Note_on_c, 1, 51, 45
3, 35612, Note_off_c, 1, 51, 0
3, 35616, Note_on_c, 1, 59, 45
3, 35708, Note_off_c, 1, 59, 0
3, 35712, Note_on_c, 1, 51, 45
3, 35804, Note_off_c, 1, 51, 0
3, 35808, Note_on_c, 1, 60, 45
3, 35900, Note_off_c, 1, 60, 0
3, 35904, Note_on_c, 1, 51, 45
3, 35996, Note_off_c, 1, 51, 0
3, 36000, Note_on_c, 1, 63, 45
3, 36092, Note_off_c, 1, 63, 0
3, 36096, Note_on_c, 1, 50, 45
3, 36188, Note_off_c, 1, 50, 0
3, 36192, Note_on_c, 1, 53, 45
3, 36284, Note_off_c, 1, 53, 0
3, 36288, Note_on_c, 1, 50, 45
3, 36380, Note_off_c, 1, 50, 0
3, 36384, Note_on_c, 1, 57, 45
3, 36476, Note_off_c, 1, 57, 0
3, 36480, Note_on_c, 1, 50, 45
3, 36572, Note_off_c, 1, 50, 0
3, 36576, Note_on_c, 1, 58, 45
3, 36668, Note_off_c, 1, 58, 0
3, 36672, Note_on_c, 1, 50, 45
3, 36764, Note_off_c, 1, 50, 0
3, 36768, Note_on_c, 1, 62, 45
3, 36860, Note_off_c, 1, 62, 0
3, 36864, Note_on_c, 1, 57, 45
3, 36960, Note_on_c, 1, 65, 45
3, 37004, Note_off_c, 1, 57, 0
3, 37052, Note_off_c, 1, 65, 0
3, 37056, Note_on_c, 1, 60, 45
3, 37148, Note_off_c, 1, 60, 0
3, 37152, Note_on_c, 1, 65, 45
3, 37244, Note_off_c, 1, 65, 0
3, 37248, Note_on_c, 1, 58, 45
3, 37340, Note_off_c, 1, 58, 0
3, 37344, Note_on_c, 1, 65, 45
3, 37436, Note_off_c, 1, 65, 0
3, 37440, Note_on_c, 1, 62, 45
3, 37532, Note_off_c, 1, 62, 0
3, 37536, Note_on_c, 1, 65, 45
3, 37628, Note_off_c, 1, 65, 0
3, 37632, Note_on_c, 1, 53, 45
3, 37724, Note_off_c, 1, 53, 0
3, 37728, Note_on_c, 1, 62, 45
3, 37820, Note_off_c, 1, 62, 0
3, 37824, Note_on_c, 1, 58, 45
3, 37916, Note_off_c, 1, 58, 0
3, 37920, Note_on_c, 1, 62, 45
3, 38012, Note_off_c, 1, 62, 0
3, 38016, Note_on_c, 1, 60, 45
3, 38016, Note_on_c, 1, 57, 45
3, 38016, Note_on_c, 1, 53, 45
3, 38204, Note_off_c, 1, 60, 0
3, 38204, Note_off_c, 1, 57, 0
3, 38204, Note_off_c, 1, 53, 0
3, 38400, Note_on_c, 1, 58, 45
3, 38492, Note_off_c, 1, 58, 0
3, 38496, Note_on_c, 1, 65, 45
3, 38588, Note_off_c, 1, 65, 0
3, 38592, Note_on_c, 1, 61, 45
3, 38684, Note_off_c, 1, 61, 0
3, 38688, Note_on_c, 1, 65, 45
3, 38780, Note_off_c, 1, 65, 0
3, 38784, Note_on_c, 1, 58, 45
3, 38876, Note_off_c, 1, 58, 0
3, 38880, Note_on_c, 1, 65, 45
3, 38972, Note_off_c, 1, 65, 0
3, 38976, Note_on_c, 1, 61, 45
3, 39068, Note_off_c, 1, 61, 0
3, 39072, Note_on_c, 1, 65, 45
3, 39164, Note_off_c, 1, 65, 0
3, 39168, Note_on_c, 1, 56, 45
3, 39260, Note_off_c, 1, 56, 0
3, 39264, Note_on_c, 1, 65, 45
3, 39356, Note_off_c, 1, 65, 0
3, 39360, Note_on_c, 1, 60, 45
3, 39452, Note_off_c, 1, 60, 0
3, 39456, Note_on_c, 1, 65, 45
3, 39548, Note_off_c, 1, 65, 0
3, 39552, Note_on_c, 1, 56, 45
3, 39644, Note_off_c, 1, 56, 0
3, 39648, Note_on_c, 1, 65, 45
3, 39740, Note_off_c, 1, 65, 0
3, 39744, Note_on_c, 1, 60, 45
3, 39836, Note_off_c, 1, 60, 0
3, 39840, Note_on_c, 1, 65, 45
3, 39932, Note_off_c, 1, 65, 0
3, 39936, Note_on_c, 1, 54, 48
3, 40028, Note_off_c, 1, 54, 0
3, 40032, Note_on_c, 1, 58, 49
3, 40124, Note_off_c, 1, 58, 0
3, 40128, Note_on_c, 1, 54, 51
3, 40220, Note_off_c, 1, 54, 0
3, 40224, Note_on_c, 1, 58, 52
3, 40316, Note_off_c, 1, 58, 0
3, 40320, Note_on_c, 1, 51, 54
3, 40412, Note_off_c, 1, 51, 0
3, 40416, Note_on_c, 1, 58, 55
3, 40508, Note_off_c, 1, 58, 0
3, 40512, Note_on_c, 1, 54, 58
3, 40604, Note_off_c, 1, 54, 0
3, 40608, Note_on_c, 1, 58, 61
3, 40700, Note_off_c, 1, 58, 0
3, 40704, Note_on_c, 1, 50, 63
3, 40796, Note_off_c, 1, 50, 0
3, 40800, Note_on_c, 1, 58, 64
3, 40892, Note_off_c, 1, 58, 0
3, 40896, Note_on_c, 1, 53, 66
3, 40988, Note_off_c, 1, 53, 0
3, 40992, Note_on_c, 1, 58, 69
3, 41084, Note_off_c, 1, 58, 0
3, 41088, Note_on_c, 1, 49, 72
3, 41180, Note_off_c, 1, 49, 0
3, 41184, Note_on_c, 1, 58, 75
3, 41276, Note_off_c, 1, 58, 0
3, 41280, Note_on_c, 1, 53, 78
3, 41372, Note_off_c, 1, 53, 0
3, 41376, Note_on_c, 1, 58, 81
3, 41468, Note_off_c, 1, 58, 0
3, 41472, Note_on_c, 1, 48, 82
3, 41564, Note_off_c, 1, 48, 0
3, 41568, Note_on_c, 1, 58, 82
3, 41660, Note_off_c, 1, 58, 0
3, 41664, Note_on_c, 1, 55, 82
3, 41756, Note_off_c, 1, 55, 0
3, 41760, Note_on_c, 1, 58, 82
3, 41852, Note_off_c, 1, 58, 0
3, 41856, Note_on_c, 1, 48, 45
3, 41948, Note_off_c, 1, 48, 0
3, 41952, Note_on_c, 1, 58, 45
3, 42044, Note_off_c, 1, 58, 0
3, 42048, Note_on_c, 1, 55, 45
3, 42140, Note_off_c, 1, 55, 0
3, 42144, Note_on_c, 1, 58, 45
3, 42236, Note_off_c, 1, 58, 0
3, 42240, Note_on_c, 1, 49, 45
3, 42332, Note_off_c, 1, 49, 0
3, 42336, Note_on_c, 1, 56, 45
3, 42428, Note_off_c, 1, 56, 0
3, 42432, Note_on_c, 1, 53, 45
3, 42524, Note_off_c, 1, 53, 0
3, 42528, Note_on_c, 1, 56, 45
3, 42620, Note_off_c, 1, 56, 0
3, 42624, Note_on_c, 1, 46, 45
3, 42716, Note_off_c, 1, 46, 0
3, 42720, Note_on_c, 1, 55, 45
3, 42812, Note_off_c, 1, 55, 0
3, 42816, Note_on_c, 1, 49, 45
3, 42908, Note_off_c, 1, 49, 0
3, 42912, Note_on_c, 1, 55, 45
3, 43004, Note_off_c, 1, 55, 0
3, 43008, Note_on_c, 1, 48, 45
3, 43100, Note_off_c, 1, 48, 0
3, 43104, Note_on_c, 1, 56, 45
3, 43196, Note_off_c, 1, 56, 0
3, 43200, Note_on_c, 1, 53, 45
3, 43292, Note_off_c, 1, 53, 0
3, 43296, Note_on_c, 1, 56, 45
3, 43388, Note_off_c, 1, 56, 0
3, 43392, Note_on_c, 1, 48, 45
3, 43484, Note_off_c, 1, 48, 0
3, 43488, Note_on_c, 1, 58, 45
3, 43580, Note_off_c, 1, 58, 0
3, 43584, Note_on_c, 1, 55, 45
3, 43676, Note_off_c, 1, 55, 0
3, 43680, Note_on_c, 1, 58, 45
3, 43772, Note_off_c, 1, 58, 0
3, 43776, Note_on_c, 1, 57, 45
3, 43776, Note_on_c, 1, 53, 45
3, 43868, Note_off_c, 1, 57, 0
3, 43872, Note_on_c, 1, 65, 45
3, 43964, Note_off_c, 1, 53, 0
3, 43964, Note_off_c, 1, 65, 0
3, 43968, Note_on_c, 1, 65, 45
3, 44060, Note_off_c, 1, 65, 0
3, 44064, Note_on_c, 1, 65, 45
3, 44156, Note_off_c, 1, 65, 0
3, 44160, Note_on_c, 1, 62, 45
3, 44160, Note_on_c, 1, 58, 45
3, 44252, Note_off_c, 1, 62, 0
3, 44256, Note_on_c, 1, 65, 45
3, 44348, Note_off_c, 1, 58, 0
3, 44348, Note_off_c, 1, 65, 0
3, 44352, Note_on_c, 1, 60, 45
3, 44352, Note_on_c, 1, 63, 45
3, 44444, Note_off_c, 1, 63, 0
3, 44448, Note_on_c, 1, 65, 45
3, 44540, Note_off_c, 1, 60, 0
3, 44540, Note_off_c, 1, 65, 0
3, 44544, Note_on_c, 1, 60, 45
3, 44544, Note_on_c, 1, 57, 45
3, 44636, Note_off_c, 1, 60, 0
3, 44640, Note_on_c, 1, 65, 45
3, 44732, Note_off_c, 1, 57, 0
3, 44732, Note_off_c, 1, 65, 0
3, 44736, Note_on_c, 1, 65, 45
3, 44828, Note_off_c, 1, 65, 0
3, 44832, Note_on_c, 1, 65, 45
3, 44924, Note_off_c, 1, 65, 0
3, 44928, Note_on_c, 1, 57, 45
3, 44928, Note_on_c, 1, 53, 45
3, 45020, Note_off_c, 1, 57, 0
3, 45024, Note_on_c, 1, 65, 45
3, 45116, Note_off_c, 1, 53, 0
3, 45116, Note_off_c, 1, 65, 0
3, 45120, Note_on_c, 1, 63, 45
3, 45120, Note_on_c, 1, 60, 45
3, 45212, Note_off_c, 1, 63, 0
3, 45216, Note_on_c, 1, 65, 45
3, 45308, Note_off_c, 1, 60, 0
3, 45308, Note_off_c, 1, 65, 0
3, 45312, Note_on_c, 1, 62, 45
3, 45312, Note_on_c, 1, 58, 45
3, 45404, Note_off_c, 1, 62, 0
3, 45408, Note_on_c, 1, 65, 45
3, 45500, Note_off_c, 1, 58, 0
3, 45500, Note_off_c, 1, 65, 0
3, 45504, Note_on_c, 1, 65, 45
3, 45596, Note_off_c, 1, 65, 0
3, 45600, Note_on_c, 1, 65, 45
3, 45692, Note_off_c, 1, 65, 0
3, 45696, Note_on_c, 1, 62, 45
3, 45696, Note_on_c, 1, 58, 45
3, 45788, Note_off_c, 1, 62, 0
3, 45792, Note_on_c, 1, 65, 45
3, 45884, Note_off_c, 1, 58, 0
3, 45884, Note_off_c, 1, 65, 0
3, 45888, Note_on_c, 1, 63, 45
3, 45888, Note_on_c, 1, 60, 45
3, 45980, Note_off_c, 1, 63, 0
3, 45984, Note_on_c, 1, 65, 45
3, 46076, Note_off_c, 1, 60, 0
3, 46076, Note_off_c, 1, 65, 0
3, 46080, Note_on_c, 1, 60, 45
3, 46080, Note_on_c, 1, 57, 45
3, 46172, Note_off_c, 1, 60, 0
3, 46176, Note_on_c, 1, 65, 45
3, 46268, Note_off_c, 1, 57, 0
3, 46268, Note_off_c, 1, 65, 0
3, 46272, Note_on_c, 1, 65, 45
3, 46364, Note_off_c, 1, 65, 0
3, 46368, Note_on_c, 1, 65, 45
3, 46460, Note_off_c, 1, 65, 0
3, 46464, Note_on_c, 1, 57, 45
3, 46464, Note_on_c, 1, 53, 45
3, 46556, Note_off_c, 1, 57, 0
3, 46560, Note_on_c, 1, 65, 45
3, 46652, Note_off_c, 1, 53, 0
3, 46652, Note_off_c, 1, 65, 0
3, 46656, Note_on_c, 1, 63, 45
3, 46656, Note_on_c, 1, 60, 45
3, 46748, Note_off_c, 1, 63, 0
3, 46752, Note_on_c, 1, 65, 45
3, 46844, Note_off_c, 1, 60, 0
3, 46844, Note_off_c, 1, 65, 0
3, 46848, Note_on_c, 1, 62, 45
3, 46848, Note_on_c, 1, 58, 45
3, 47036, Note_off_c, 1, 62, 0
3, 47036, Note_off_c, 1, 58, 0
3, 49536, Note_on_c, 1, 53, 45
3, 49536, Note_on_c, 1, 62, 45
3, 49724, Note_off_c, 1, 62, 0
3, 49728, Note_on_c, 1, 63, 45
3, 49916, Note_off_c, 1, 53, 0
3, 49916, Note_off_c, 1, 63, 0
3, 49920, Note_on_c, 1, 58, 45
3, 49920, Note_on_c, 1, 63, 45
3, 50012, Note_off_c, 1, 63, 0
3, 50016, Note_on_c, 1, 65, 45
3, 50108, Note_off_c, 1, 58, 0
3, 50108, Note_off_c, 1, 65, 0
3, 50112, Note_on_c, 1, 65, 45
3, 50204, Note_off_c, 1, 65, 0
3, 50208, Note_on_c, 1, 65, 45
3, 50300, Note_off_c, 1, 65, 0
3, 50304, Note_on_c, 1, 62, 45
3, 50304, Note_on_c, 1, 58, 45
3, 50396, Note_off_c, 1, 62, 0
3, 50400, Note_on_c, 1, 65, 45
3, 50492, Note_off_c, 1, 58, 0
3, 50492, Note_off_c, 1, 65, 0
3, 50496, Note_on_c, 1, 63, 45
3, 50496, Note_on_c, 1, 60, 45
3, 50588, Note_off_c, 1, 63, 0
3, 50592, Note_on_c, 1, 65, 45
3, 50684, Note_off_c, 1, 60, 0
3, 50684, Note_off_c, 1, 65, 0
3, 50688, Note_on_c, 1, 60, 45
3, 50688, Note_on_c, 1, 57, 45
3, 50780, Note_off_c, 1, 60, 0
3, 50784, Note_on_c, 1, 65, 45
3, 50876, Note_off_c, 1, 57, 0
3, 50876, Note_off_c, 1, 65, 0
3, 50880, Note_on_c, 1, 65, 45
3, 50972, Note_off_c, 1, 65, 0
3, 50976, Note_on_c, 1, 65, 45
3, 51068, Note_off_c, 1, 65, 0
3, 51072, Note_on_c, 1, 57, 45
3, 51072, Note_on_c, 1, 53, 45
3, 51164, Note_off_c, 1, 57, 0
3, 51168, Note_on_c, 1, 65, 45
3, 51260, Note_off_c, 1, 53, 0
3, 51260, Note_off_c, 1, 65, 0
3, 51264, Note_on_c, 1, 63, 45
3, 51264, Note_on_c, 1, 60, 45
3, 51356, Note_off_c, 1, 63, 0
3, 51360, Note_on_c, 1, 65, 45
3, 51452, Note_off_c, 1, 60, 0
3, 51452, Note_off_c, 1, 65, 0
3, 51456, Note_on_c, 1, 62, 45
3, 51456, Note_on_c, 1, 58, 45
3, 51548, Note_off_c, 1, 62, 0
3, 51552, Note_on_c, 1, 65, 45
3, 51644, Note_off_c, 1, 58, 0
3, 51644, Note_off_c, 1, 65, 0
3, 51648, Note_on_c, 1, 65, 45
3, 51740, Note_off_c, 1, 65, 0
3, 51744, Note_on_c, 1, 65, 45
3, 51836, Note_off_c, 1, 65, 0
3, 51840, Note_on_c, 1, 62, 45
3, 51840, Note_on_c, 1, 58, 45
3, 51932, Note_off_c, 1, 62, 0
3, 51936, Note_on_c, 1, 65, 45
3, 52028, Note_off_c, 1, 58, 0
3, 52028, Note_off_c, 1, 65, 0
3, 52032, Note_on_c, 1, 63, 45
3, 52032, Note_on_c, 1, 60, 45
3, 52124, Note_off_c, 1, 63, 0
3, 52128, Note_on_c, 1, 65, 45
3, 52220, Note_off_c, 1, 60, 0
3, 52220, Note_off_c, 1, 65, 0
3, 52224, Note_on_c, 1, 60, 45
3, 52224, Note_on_c, 1, 57, 45
3, 52316, Note_off_c, 1, 60, 0
3, 52320, Note_on_c, 1, 65, 45
3, 52412, Note_off_c, 1, 57, 0
3, 52412, Note_off_c, 1, 65, 0
3, 52416, Note_on_c, 1, 65, 45
3, 52508, Note_off_c, 1, 65, 0
3, 52512, Note_on_c, 1, 65, 45
3, 52604, Note_off_c, 1, 65, 0
3, 52608, Note_on_c, 1, 57, 45
3, 52608, Note_on_c, 1, 53, 45
3, 52700, Note_off_c, 1, 57, 0
3, 52704, Note_on_c, 1, 65, 45
3, 52796, Note_off_c, 1, 53, 0
3, 52796, Note_off_c, 1, 65, 0
3, 52800, Note_on_c, 1, 63, 45
3, 52800, Note_on_c, 1, 60, 45
3, 52892, Note_off_c, 1, 63, 0
3, 52896, Note_on_c, 1, 65, 45
3, 52988, Note_off_c, 1, 60, 0
3, 52988, Note_off_c, 1, 65, 0
3, 52992, Note_on_c, 1, 58, 45
3, 52992, Note_on_c, 1, 62, 45
3, 53180, Note_off_c, 1, 58, 0
3, 53180, Note_off_c, 1, 62, 0
3, 55680, Note_on_c, 1, 53, 45
3, 55680, Note_on_c, 1, 62, 45
3, 55868, Note_off_c, 1, 62, 0
3, 55872, Note_on_c, 1, 60, 45
3, 56060, Note_off_c, 1, 53, 0
3, 56060, Note_off_c, 1, 60, 0
3, 56160, Note_on_c, 1, 46, 82
3, 56252, Note_off_c, 1, 46, 0
3, 56256, Note_on_c, 1, 50, 82
3, 56348, Note_off_c, 1, 50, 0
3, 56352, Note_on_c, 1, 55, 82
3, 56444, Note_off_c, 1, 55, 0
3, 56544, Note_on_c, 1, 46, 82
3, 56636, Note_off_c, 1, 46, 0
3, 56640, Note_on_c, 1, 51, 82
3, 56732, Note_off_c, 1, 51, 0
3, 56736, Note_on_c, 1, 57, 82
3, 56828, Note_off_c, 1, 57, 0
3, 56928, Note_on_c, 1, 50, 82
3, 57020, Note_off_c, 1, 50, 0
3, 57024, Note_on_c, 1, 53, 82
3, 57116, Note_off_c, 1, 53, 0
3, 57120, Note_on_c, 1, 58, 82
3, 57212, Note_off_c, 1, 58, 0
3, 57216, Note_on_c, 1, 58, 82
3, 57216, Note_on_c, 1, 50, 82
3, 57404, Note_off_c, 1, 58, 0
3, 57408, Note_on_c, 1, 56, 82
3, 57408, Note_on_c, 1, 58, 82
3, 57596, Note_off_c, 1, 50, 0
3, 57596, Note_off_c, 1, 56, 0
3, 57596, Note_off_c, 1, 58, 0
3, 57600, Note_on_c, 1, 51, 82
3, 57600, Note_on_c, 1, 58, 82
3, 57600, Note_on_c, 1, 55, 82
3, 57788, Note_off_c, 1, 51, 0
3, 57788, Note_off_c, 1, 58, 0
3, 57788, Note_off_c, 1, 55, 0
3, 57984, Note_on_c, 1, 60, 60
3, 57984, Note_on_c, 1, 55, 60
3, 57984, Note_on_c, 1, 51, 60
3, 58172, Note_off_c, 1, 60, 0
3, 58172, Note_off_c, 1, 55, 0
3, 58172, Note_off_c, 1, 51, 0
3, 58368, Note_on_c, 1, 53, 66
3, 58460, Note_off_c, 1, 53, 0
3, 58464, Note_on_c, 1, 62, 72
3, 58556, Note_off_c, 1, 62, 0
3, 58560, Note_on_c, 1, 57, 75
3, 58652, Note_off_c, 1, 57, 0
3, 58656, Note_on_c, 1, 62, 76
3, 58748, Note_off_c, 1, 62, 0
3, 58752, Note_on_c, 1, 53, 78
3, 58844, Note_off_c, 1, 53, 0
3, 58848, Note_on_c, 1, 62, 79
3, 58940, Note_off_c, 1, 62, 0
3, 58944, Note_on_c, 1, 58, 81
3, 59036, Note_off_c, 1, 58, 0
3, 59040, Note_on_c, 1, 62, 82
3, 59132, Note_off_c, 1, 62, 0
3, 59136, Note_on_c, 1, 53, 82
3, 59228, Note_off_c, 1, 53, 0
3, 59232, Note_on_c, 1, 63, 82
3, 59324, Note_off_c, 1, 63, 0
3, 59328, Note_on_c, 1, 57, 82
3, 59420, Note_off_c, 1, 57, 0
3, 59424, Note_on_c, 1, 63, 82
3, 59516, Note_off_c, 1, 63, 0
3, 59520, Note_on_c, 1, 53, 82
3, 59612, Note_off_c, 1, 53, 0
3, 59616, Note_on_c, 1, 63, 75
3, 59708, Note_off_c, 1, 63, 0
3, 59712, Note_on_c, 1, 57, 67
3, 59804, Note_off_c, 1, 57, 0
3, 59808, Note_on_c, 1, 63, 63
3, 59900, Note_off_c, 1, 63, 0
3, 62208, Note_on_c, 1, 58, 87
3, 62208, Note_on_c, 1, 46, 87
3, 62588, Note_off_c, 1, 58, 0
3, 62588, Note_off_c, 1, 46, 0
3, 62592, Note_on_c, 1, 58, 60
3, 62592, Note_on_c, 1, 46, 60
3, 62972, Note_off_c, 1, 58, 0
3, 62972, Note_off_c, 1, 46, 0
3, 62972, End_track
4, 0, Start_track
4, 0, Title_t, "K332 -b -Adagio"
4, 0, Control_c, 2, 10, 63
4, 0, Control_c, 2, 91, 0
4, 0, Control_c, 2, 93, 0
4, 0, Key_signature, -2, "minor"
4, 0, End_track
5, 0, Start_track
5, 0, Title_t, "Midi by:"
5, 0, Key_signature, -2, "minor"
5, 0, End_track
6, 0, Start_track
6, 0, Title_t, "B.Fisher"
6, 0, Key_signature, -2, "minor"
6, 0, End_track
7, 0, Start_track
7, 0, Key_signature, -2, "minor"
7, 0, End_track
8, 0, Start_track
8, 0, Key_signature, -2, "minor"
8, 0, End_track
9, 0, Start_track
9, 0, Key_signature, -2, "minor"
9, 0, End_track
10, 0, Start_track
10, 0, Key_signature, -2, "minor"
10, 0, End_track
11, 0, Start_track
11, 0, Key_signature, -2, "minor"
11, 0, End_track
12, 0, Start_track
12, 0, Key_signature, -2, "minor"
12, 0, End_track
13, 0, Start_track
13, 0, Key_signature, -2, "minor"
13, 0, End_track
14, 0, Start_track
14, 0, Key_signature, -2, "minor"
14, 0, End_track
15, 0, Start_track
15, 0, Key_signature, -2, "minor"
15, 0, End_track
16, 0, Start_track
16, 0, Key_signature, -2, "minor"
16, 0, End_track
0, 0, End_of_file
