0, 0, Header, 1, 7, 384
1, 0, Start_track
1, 0, Sequencer_specific, 3, 0, 0, 65
1, 0, Time_signature, 4, 2, 24, 8
1, 0, Key_signature, 0, "major"
1, 0, Tempo, 508475
1, 30720, Tempo, 582524
1, 32256, Tempo, 508475
1, 135168, Tempo, 582524
1, 136704, Tempo, 508475
1, 324096, Tempo, 582524
1, 325632, Tempo, 508475
1, 383232, Tempo, 571429
1, 384000, Tempo, 1500000
1, 384384, Tempo, 508475
1, 405504, Tempo, 566038
1, 407040, Tempo, 697674
1, 407040, End_track
2, 0, Start_track
2, 0, MIDI_port, 0
2, 0, Title_t, "Mozart"
2, 0, Control_c, 0, 0, 0
2, 0, Control_c, 0, 32, 0
2, 0, Program_c, 0, 73
2, 0, Control_c, 0, 7, 98
2, 0, Control_c, 0, 10, 63
2, 0, Control_c, 0, 91, 63
2, 0, Control_c, 0, 93, 44
2, 0, Control_c, 0, 121, 0
2, 96, Control_c, 0, 10, 63
2, 192, Control_c, 0, 91, 53
2, 240, Control_c, 0, 93, 40
2, 288, Program_c, 0, 73
2, 328, Control_c, 0, 1, 10
2, 1632, Note_on_c, 0, 84, 100
2, 2112, Note_on_c, 0, 79, 100
2, 2204, Note_on_c, 0, 79, 0
2, 2204, Note_on_c, 0, 84, 0
2, 2304, Note_on_c, 0, 76, 100
2, 2396, Note_on_c, 0, 76, 0
2, 2496, Note_on_c, 0, 72, 100
2, 2588, Note_on_c, 0, 72, 0
2, 2688, Note_on_c, 0, 76, 100
2, 2780, Note_on_c, 0, 76, 0
2, 2880, Note_on_c, 0, 79, 100
2, 2972, Note_on_c, 0, 79, 0
2, 3072, Note_on_c, 0, 84, 100
2, 3644, Note_on_c, 0, 84, 0
2, 3648, Note_on_c, 0, 79, 100
2, 3740, Note_on_c, 0, 79, 0
2, 3840, Note_on_c, 0, 76, 100
2, 3932, Note_on_c, 0, 76, 0
2, 4032, Note_on_c, 0, 72, 100
2, 4124, Note_on_c, 0, 72, 0
2, 4224, Note_on_c, 0, 76, 100
2, 4316, Note_on_c, 0, 76, 0
2, 4416, Note_on_c, 0, 79, 100
2, 4508, Note_on_c, 0, 79, 0
2, 4608, Note_on_c, 0, 84, 100
2, 4988, Note_on_c, 0, 84, 0
2, 67680, Note_on_c, 0, 84, 100
2, 68156, Note_on_c, 0, 84, 0
2, 68160, Note_on_c, 0, 79, 100
2, 68252, Note_on_c, 0, 79, 0
2, 68352, Note_on_c, 0, 76, 100
2, 68444, Note_on_c, 0, 76, 0
2, 68544, Note_on_c, 0, 72, 100
2, 68636, Note_on_c, 0, 72, 0
2, 68736, Note_on_c, 0, 76, 100
2, 68828, Note_on_c, 0, 76, 0
2, 68928, Note_on_c, 0, 79, 100
2, 69020, Note_on_c, 0, 79, 0
2, 69120, Note_on_c, 0, 84, 100
2, 69692, Note_on_c, 0, 84, 0
2, 69696, Note_on_c, 0, 79, 100
2, 69788, Note_on_c, 0, 79, 0
2, 69888, Note_on_c, 0, 76, 100
2, 69980, Note_on_c, 0, 76, 0
2, 70080, Note_on_c, 0, 72, 100
2, 70172, Note_on_c, 0, 72, 0
2, 70272, Note_on_c, 0, 76, 100
2, 70364, Note_on_c, 0, 76, 0
2, 70464, Note_on_c, 0, 79, 100
2, 70556, Note_on_c, 0, 79, 0
2, 70656, Note_on_c, 0, 84, 100
2, 71016, Note_on_c, 0, 84, 0
2, 71040, Note_on_c, 0, 72, 75
2, 71400, Note_on_c, 0, 72, 0
2, 71424, Note_on_c, 0, 71, 75
2, 71784, Note_on_c, 0, 71, 0
2, 71808, Note_on_c, 0, 72, 75
2, 72168, Note_on_c, 0, 72, 0
2, 72192, Note_on_c, 0, 74, 100
2, 72372, Note_on_c, 0, 74, 0
2, 72576, Note_on_c, 0, 74, 75
2, 72936, Note_on_c, 0, 74, 0
2, 72960, Note_on_c, 0, 73, 75
2, 73320, Note_on_c, 0, 73, 0
2, 73344, Note_on_c, 0, 74, 75
2, 73704, Note_on_c, 0, 74, 0
2, 73728, Note_on_c, 0, 76, 100
2, 73908, Note_on_c, 0, 76, 0
2, 74112, Note_on_c, 0, 76, 75
2, 74472, Note_on_c, 0, 76, 0
2, 74496, Note_on_c, 0, 75, 75
2, 74856, Note_on_c, 0, 75, 0
2, 74880, Note_on_c, 0, 76, 75
2, 75240, Note_on_c, 0, 76, 0
2, 75264, Note_on_c, 0, 77, 75
2, 75624, Note_on_c, 0, 77, 0
2, 75648, Note_on_c, 0, 79, 75
2, 76008, Note_on_c, 0, 79, 0
2, 76032, Note_on_c, 0, 81, 75
2, 76392, Note_on_c, 0, 81, 0
2, 76416, Note_on_c, 0, 83, 75
2, 76776, Note_on_c, 0, 83, 0
2, 76800, Note_on_c, 0, 84, 100
2, 78312, Note_on_c, 0, 84, 0
2, 78336, Note_on_c, 0, 79, 100
2, 79848, Note_on_c, 0, 79, 0
2, 79872, Note_on_c, 0, 72, 100
2, 81384, Note_on_c, 0, 72, 0
2, 81408, Note_on_c, 0, 67, 100
2, 82920, Note_on_c, 0, 67, 0
2, 82944, Note_on_c, 0, 72, 78
2, 83132, Note_on_c, 0, 72, 0
2, 83136, Note_on_c, 0, 74, 78
2, 83184, Note_on_c, 0, 74, 0
2, 83232, Note_on_c, 0, 76, 78
2, 83280, Note_on_c, 0, 76, 0
2, 83328, Note_on_c, 0, 77, 78
2, 83376, Note_on_c, 0, 77, 0
2, 83424, Note_on_c, 0, 79, 78
2, 83472, Note_on_c, 0, 79, 0
2, 83520, Note_on_c, 0, 81, 78
2, 83568, Note_on_c, 0, 81, 0
2, 83616, Note_on_c, 0, 83, 78
2, 83664, Note_on_c, 0, 83, 0
2, 83712, Note_on_c, 0, 84, 78
2, 83760, Note_on_c, 0, 84, 0
2, 83808, Note_on_c, 0, 83, 78
2, 83856, Note_on_c, 0, 83, 0
2, 83904, Note_on_c, 0, 84, 78
2, 83952, Note_on_c, 0, 84, 0
2, 84000, Note_on_c, 0, 83, 78
2, 84048, Note_on_c, 0, 83, 0
2, 84096, Note_on_c, 0, 84, 78
2, 84144, Note_on_c, 0, 84, 0
2, 84192, Note_on_c, 0, 83, 78
2, 84240, Note_on_c, 0, 83, 0
2, 84288, Note_on_c, 0, 81, 78
2, 84336, Note_on_c, 0, 81, 0
2, 84384, Note_on_c, 0, 79, 78
2, 84432, Note_on_c, 0, 79, 0
2, 84480, Note_on_c, 0, 81, 78
2, 84572, Note_on_c, 0, 81, 0
2, 84576, Note_on_c, 0, 72, 78
2, 84668, Note_on_c, 0, 72, 0
2, 84672, Note_on_c, 0, 74, 78
2, 84720, Note_on_c, 0, 74, 0
2, 84768, Note_on_c, 0, 76, 78
2, 84816, Note_on_c, 0, 76, 0
2, 84864, Note_on_c, 0, 77, 78
2, 84912, Note_on_c, 0, 77, 0
2, 84960, Note_on_c, 0, 79, 78
2, 85008, Note_on_c, 0, 79, 0
2, 85056, Note_on_c, 0, 81, 78
2, 85104, Note_on_c, 0, 81, 0
2, 85152, Note_on_c, 0, 83, 78
2, 85200, Note_on_c, 0, 83, 0
2, 85248, Note_on_c, 0, 84, 78
2, 85296, Note_on_c, 0, 84, 0
2, 85344, Note_on_c, 0, 83, 78
2, 85392, Note_on_c, 0, 83, 0
2, 85440, Note_on_c, 0, 84, 78
2, 85488, Note_on_c, 0, 84, 0
2, 85536, Note_on_c, 0, 83, 78
2, 85584, Note_on_c, 0, 83, 0
2, 85632, Note_on_c, 0, 86, 78
2, 85680, Note_on_c, 0, 86, 0
2, 85728, Note_on_c, 0, 84, 78
2, 85776, Note_on_c, 0, 84, 0
2, 85824, Note_on_c, 0, 83, 78
2, 85872, Note_on_c, 0, 83, 0
2, 85920, Note_on_c, 0, 81, 78
2, 85968, Note_on_c, 0, 81, 0
2, 86016, Note_on_c, 0, 79, 79
2, 86108, Note_on_c, 0, 79, 0
2, 86112, Note_on_c, 0, 72, 80
2, 86204, Note_on_c, 0, 72, 0
2, 86208, Note_on_c, 0, 74, 82
2, 86256, Note_on_c, 0, 74, 0
2, 86304, Note_on_c, 0, 76, 84
2, 86352, Note_on_c, 0, 76, 0
2, 86400, Note_on_c, 0, 77, 86
2, 86448, Note_on_c, 0, 77, 0
2, 86496, Note_on_c, 0, 79, 87
2, 86544, Note_on_c, 0, 79, 0
2, 86592, Note_on_c, 0, 81, 89
2, 86640, Note_on_c, 0, 81, 0
2, 86688, Note_on_c, 0, 83, 90
2, 86736, Note_on_c, 0, 83, 0
2, 86784, Note_on_c, 0, 84, 92
2, 86876, Note_on_c, 0, 84, 0
2, 86880, Note_on_c, 0, 86, 94
2, 86972, Note_on_c, 0, 86, 0
2, 86976, Note_on_c, 0, 88, 95
2, 87024, Note_on_c, 0, 88, 0
2, 87072, Note_on_c, 0, 86, 97
2, 87120, Note_on_c, 0, 86, 0
2, 87168, Note_on_c, 0, 84, 98
2, 87216, Note_on_c, 0, 84, 0
2, 87264, Note_on_c, 0, 83, 100
2, 87312, Note_on_c, 0, 83, 0
2, 87360, Note_on_c, 0, 81, 101
2, 87408, Note_on_c, 0, 81, 0
2, 87456, Note_on_c, 0, 79, 103
2, 87504, Note_on_c, 0, 79, 0
2, 87552, Note_on_c, 0, 79, 105
2, 87640, Note_on_c, 0, 79, 0
2, 87648, Note_on_c, 0, 77, 105
2, 87736, Note_on_c, 0, 77, 0
2, 87744, Note_on_c, 0, 81, 105
2, 87832, Note_on_c, 0, 81, 0
2, 87840, Note_on_c, 0, 77, 105
2, 87928, Note_on_c, 0, 77, 0
2, 87936, Note_on_c, 0, 76, 105
2, 88660, Note_on_c, 0, 76, 0
2, 88704, Note_on_c, 0, 74, 105
2, 88744, Note_on_c, 0, 74, 0
2, 88752, Note_on_c, 0, 76, 105
2, 88792, Note_on_c, 0, 76, 0
2, 88800, Note_on_c, 0, 74, 105
2, 88840, Note_on_c, 0, 74, 0
2, 88848, Note_on_c, 0, 76, 105
2, 88888, Note_on_c, 0, 76, 0
2, 88896, Note_on_c, 0, 72, 105
2, 88976, Note_on_c, 0, 72, 0
2, 88992, Note_on_c, 0, 74, 105
2, 89072, Note_on_c, 0, 74, 0
2, 89088, Note_on_c, 0, 72, 105
2, 89468, Note_on_c, 0, 72, 0
2, 95232, Note_on_c, 0, 72, 105
2, 95420, Note_on_c, 0, 72, 0
2, 95424, Note_on_c, 0, 88, 100
2, 95800, Note_on_c, 0, 88, 0
2, 95808, Note_on_c, 0, 86, 100
2, 95900, Note_on_c, 0, 86, 0
2, 96000, Note_on_c, 0, 69, 105
2, 96188, Note_on_c, 0, 69, 0
2, 96192, Note_on_c, 0, 84, 100
2, 96568, Note_on_c, 0, 84, 0
2, 96576, Note_on_c, 0, 83, 100
2, 96668, Note_on_c, 0, 83, 0
2, 96768, Note_on_c, 0, 65, 105
2, 96956, Note_on_c, 0, 65, 0
2, 96960, Note_on_c, 0, 81, 100
2, 97320, Note_on_c, 0, 81, 0
2, 97344, Note_on_c, 0, 79, 100
2, 97436, Note_on_c, 0, 79, 0
2, 97536, Note_on_c, 0, 77, 100
2, 97628, Note_on_c, 0, 77, 0
2, 97728, Note_on_c, 0, 76, 100
2, 97820, Note_on_c, 0, 76, 0
2, 97920, Note_on_c, 0, 74, 100
2, 98012, Note_on_c, 0, 74, 0
2, 98112, Note_on_c, 0, 72, 100
2, 98204, Note_on_c, 0, 72, 0
2, 98304, Note_on_c, 0, 79, 100
2, 100020, Note_on_c, 0, 79, 0
2, 100032, Note_on_c, 0, 79, 100
2, 100212, Note_on_c, 0, 79, 0
2, 100224, Note_on_c, 0, 81, 100
2, 100404, Note_on_c, 0, 81, 0
2, 100416, Note_on_c, 0, 83, 100
2, 100596, Note_on_c, 0, 83, 0
2, 100608, Note_on_c, 0, 84, 100
2, 100788, Note_on_c, 0, 84, 0
2, 100800, Note_on_c, 0, 86, 100
2, 100980, Note_on_c, 0, 86, 0
2, 100992, Note_on_c, 0, 88, 100
2, 101172, Note_on_c, 0, 88, 0
2, 101184, Note_on_c, 0, 90, 100
2, 101364, Note_on_c, 0, 90, 0
2, 101376, Note_on_c, 0, 91, 100
2, 101940, Note_on_c, 0, 91, 0
2, 104448, Note_on_c, 0, 74, 75
2, 104628, Note_on_c, 0, 74, 0
2, 104640, Note_on_c, 0, 86, 75
2, 105204, Note_on_c, 0, 86, 0
2, 105216, Note_on_c, 0, 83, 75
2, 105304, Note_on_c, 0, 83, 0
2, 105312, Note_on_c, 0, 86, 75
2, 105400, Note_on_c, 0, 86, 0
2, 105408, Note_on_c, 0, 83, 75
2, 105496, Note_on_c, 0, 83, 0
2, 105504, Note_on_c, 0, 81, 75
2, 105592, Note_on_c, 0, 81, 0
2, 105600, Note_on_c, 0, 83, 75
2, 105780, Note_on_c, 0, 83, 0
2, 105792, Note_on_c, 0, 84, 75
2, 105880, Note_on_c, 0, 84, 0
2, 105984, Note_on_c, 0, 88, 75
2, 106164, Note_on_c, 0, 88, 0
2, 106176, Note_on_c, 0, 86, 75
2, 106356, Note_on_c, 0, 86, 0
2, 106368, Note_on_c, 0, 86, 75
2, 107112, Note_on_c, 0, 86, 0
2, 107136, Note_on_c, 0, 84, 75
2, 107224, Note_on_c, 0, 84, 0
2, 107232, Note_on_c, 0, 83, 75
2, 107320, Note_on_c, 0, 83, 0
2, 107328, Note_on_c, 0, 81, 75
2, 107416, Note_on_c, 0, 81, 0
2, 107424, Note_on_c, 0, 79, 75
2, 107512, Note_on_c, 0, 79, 0
2, 107520, Note_on_c, 0, 79, 75
2, 107700, Note_on_c, 0, 79, 0
2, 107712, Note_on_c, 0, 88, 75
2, 107892, Note_on_c, 0, 88, 0
2, 107904, Note_on_c, 0, 88, 75
2, 109032, Note_on_c, 0, 88, 0
2, 109056, Note_on_c, 0, 86, 75
2, 109416, Note_on_c, 0, 86, 0
2, 109440, Note_on_c, 0, 79, 75
2, 109800, Note_on_c, 0, 79, 0
2, 109824, Note_on_c, 0, 81, 75
2, 110388, Note_on_c, 0, 81, 0
2, 110400, Note_on_c, 0, 83, 75
2, 110488, Note_on_c, 0, 83, 0
2, 110496, Note_on_c, 0, 84, 75
2, 110584, Note_on_c, 0, 84, 0
2, 110592, Note_on_c, 0, 83, 75
2, 110952, Note_on_c, 0, 83, 0
2, 112128, Note_on_c, 0, 74, 90
2, 113076, Note_on_c, 0, 74, 0
2, 113088, Note_on_c, 0, 76, 90
2, 113176, Note_on_c, 0, 76, 0
2, 113184, Note_on_c, 0, 74, 90
2, 113272, Note_on_c, 0, 74, 0
2, 113280, Note_on_c, 0, 72, 90
2, 113368, Note_on_c, 0, 72, 0
2, 113376, Note_on_c, 0, 71, 90
2, 113464, Note_on_c, 0, 71, 0
2, 113472, Note_on_c, 0, 69, 90
2, 113560, Note_on_c, 0, 69, 0
2, 113568, Note_on_c, 0, 67, 90
2, 113656, Note_on_c, 0, 67, 0
2, 113664, Note_on_c, 0, 67, 90
2, 113844, Note_on_c, 0, 67, 0
2, 113856, Note_on_c, 0, 76, 90
2, 114036, Note_on_c, 0, 76, 0
2, 114048, Note_on_c, 0, 76, 90
2, 114612, Note_on_c, 0, 76, 0
2, 114624, Note_on_c, 0, 79, 90
2, 114804, Note_on_c, 0, 79, 0
2, 114816, Note_on_c, 0, 78, 90
2, 114996, Note_on_c, 0, 78, 0
2, 115008, Note_on_c, 0, 76, 90
2, 115188, Note_on_c, 0, 76, 0
2, 115200, Note_on_c, 0, 76, 90
2, 115380, Note_on_c, 0, 76, 0
2, 115392, Note_on_c, 0, 74, 90
2, 115572, Note_on_c, 0, 74, 0
2, 115584, Note_on_c, 0, 72, 90
2, 115672, Note_on_c, 0, 72, 0
2, 115680, Note_on_c, 0, 71, 90
2, 115768, Note_on_c, 0, 71, 0
2, 115776, Note_on_c, 0, 69, 90
2, 115864, Note_on_c, 0, 69, 0
2, 115872, Note_on_c, 0, 67, 90
2, 115960, Note_on_c, 0, 67, 0
2, 115968, Note_on_c, 0, 69, 90
2, 116532, Note_on_c, 0, 69, 0
2, 116544, Note_on_c, 0, 71, 90
2, 116632, Note_on_c, 0, 71, 0
2, 116640, Note_on_c, 0, 72, 90
2, 116728, Note_on_c, 0, 72, 0
2, 116736, Note_on_c, 0, 71, 88
2, 116824, Note_on_c, 0, 71, 0
2, 116832, Note_on_c, 0, 74, 86
2, 116920, Note_on_c, 0, 74, 0
2, 116928, Note_on_c, 0, 76, 84
2, 117016, Note_on_c, 0, 76, 0
2, 117024, Note_on_c, 0, 78, 82
2, 117112, Note_on_c, 0, 78, 0
2, 117120, Note_on_c, 0, 79, 80
2, 117208, Note_on_c, 0, 79, 0
2, 117216, Note_on_c, 0, 81, 78
2, 117304, Note_on_c, 0, 81, 0
2, 117312, Note_on_c, 0, 83, 76
2, 117400, Note_on_c, 0, 83, 0
2, 117408, Note_on_c, 0, 84, 75
2, 117496, Note_on_c, 0, 84, 0
2, 117504, Note_on_c, 0, 86, 75
2, 117684, Note_on_c, 0, 86, 0
2, 117696, Note_on_c, 0, 86, 75
2, 118056, Note_on_c, 0, 86, 0
2, 118080, Note_on_c, 0, 84, 75
2, 118168, Note_on_c, 0, 84, 0
2, 118176, Note_on_c, 0, 83, 75
2, 118264, Note_on_c, 0, 83, 0
2, 118272, Note_on_c, 0, 83, 75
2, 118452, Note_on_c, 0, 83, 0
2, 118464, Note_on_c, 0, 81, 75
2, 118644, Note_on_c, 0, 81, 0
2, 118656, Note_on_c, 0, 81, 75
2, 119220, Note_on_c, 0, 81, 0
2, 119232, Note_on_c, 0, 83, 75
2, 119320, Note_on_c, 0, 83, 0
2, 119328, Note_on_c, 0, 81, 75
2, 119416, Note_on_c, 0, 81, 0
2, 119424, Note_on_c, 0, 81, 75
2, 119512, Note_on_c, 0, 81, 0
2, 119520, Note_on_c, 0, 79, 75
2, 119608, Note_on_c, 0, 79, 0
2, 119616, Note_on_c, 0, 78, 75
2, 119704, Note_on_c, 0, 78, 0
2, 119712, Note_on_c, 0, 79, 75
2, 119800, Note_on_c, 0, 79, 0
2, 119808, Note_on_c, 0, 78, 75
2, 120372, Note_on_c, 0, 78, 0
2, 122688, Note_on_c, 0, 62, 100
2, 122868, Note_on_c, 0, 62, 0
2, 122880, Note_on_c, 0, 86, 100
2, 123240, Note_on_c, 0, 86, 0
2, 123264, Note_on_c, 0, 83, 100
2, 123444, Note_on_c, 0, 83, 0
2, 123648, Note_on_c, 0, 83, 100
2, 124008, Note_on_c, 0, 83, 0
2, 124032, Note_on_c, 0, 79, 100
2, 124212, Note_on_c, 0, 79, 0
2, 124416, Note_on_c, 0, 79, 100
2, 124776, Note_on_c, 0, 79, 0
2, 124800, Note_on_c, 0, 74, 100
2, 124980, Note_on_c, 0, 74, 0
2, 125184, Note_on_c, 0, 71, 100
2, 125544, Note_on_c, 0, 71, 0
2, 125568, Note_on_c, 0, 67, 100
2, 125748, Note_on_c, 0, 67, 0
2, 125952, Note_on_c, 0, 62, 100
2, 126516, Note_on_c, 0, 62, 0
2, 127872, Note_on_c, 0, 62, 105
2, 128344, Note_on_c, 0, 62, 0
2, 128352, Note_on_c, 0, 74, 100
2, 128440, Note_on_c, 0, 74, 0
2, 128448, Note_on_c, 0, 76, 100
2, 128536, Note_on_c, 0, 76, 0
2, 128544, Note_on_c, 0, 78, 100
2, 128632, Note_on_c, 0, 78, 0
2, 128640, Note_on_c, 0, 79, 100
2, 128728, Note_on_c, 0, 79, 0
2, 128736, Note_on_c, 0, 81, 100
2, 128824, Note_on_c, 0, 81, 0
2, 128832, Note_on_c, 0, 83, 98
2, 128920, Note_on_c, 0, 83, 0
2, 128928, Note_on_c, 0, 84, 97
2, 129016, Note_on_c, 0, 84, 0
2, 129024, Note_on_c, 0, 86, 97
2, 129400, Note_on_c, 0, 86, 0
2, 129408, Note_on_c, 0, 83, 98
2, 129592, Note_on_c, 0, 83, 0
2, 129792, Note_on_c, 0, 83, 100
2, 130168, Note_on_c, 0, 83, 0
2, 130176, Note_on_c, 0, 79, 101
2, 130360, Note_on_c, 0, 79, 0
2, 130560, Note_on_c, 0, 79, 101
2, 130936, Note_on_c, 0, 79, 0
2, 130944, Note_on_c, 0, 74, 103
2, 131128, Note_on_c, 0, 74, 0
2, 131328, Note_on_c, 0, 71, 106
2, 131704, Note_on_c, 0, 71, 0
2, 131712, Note_on_c, 0, 67, 106
2, 131896, Note_on_c, 0, 67, 0
2, 132096, Note_on_c, 0, 62, 109
2, 132856, Note_on_c, 0, 62, 0
2, 136704, Note_on_c, 0, 79, 78
2, 138232, Note_on_c, 0, 79, 0
2, 138240, Note_on_c, 0, 74, 81
2, 139768, Note_on_c, 0, 74, 0
2, 139776, Note_on_c, 0, 67, 85
2, 140344, Note_on_c, 0, 67, 0
2, 140544, Note_on_c, 0, 74, 70
2, 140632, Note_on_c, 0, 74, 0
2, 140736, Note_on_c, 0, 76, 70
2, 140824, Note_on_c, 0, 76, 0
2, 140928, Note_on_c, 0, 78, 70
2, 141016, Note_on_c, 0, 78, 0
2, 141120, Note_on_c, 0, 79, 70
2, 141208, Note_on_c, 0, 79, 0
2, 141312, Note_on_c, 0, 79, 70
2, 141492, Note_on_c, 0, 79, 0
2, 141504, Note_on_c, 0, 78, 70
2, 141684, Note_on_c, 0, 78, 0
2, 141696, Note_on_c, 0, 76, 70
2, 141876, Note_on_c, 0, 76, 0
2, 141888, Note_on_c, 0, 74, 70
2, 142068, Note_on_c, 0, 74, 0
2, 142080, Note_on_c, 0, 74, 70
2, 142168, Note_on_c, 0, 74, 0
2, 142176, Note_on_c, 0, 72, 70
2, 142264, Note_on_c, 0, 72, 0
2, 142272, Note_on_c, 0, 71, 70
2, 142360, Note_on_c, 0, 71, 0
2, 142368, Note_on_c, 0, 72, 70
2, 142456, Note_on_c, 0, 72, 0
2, 142464, Note_on_c, 0, 76, 70
2, 142644, Note_on_c, 0, 76, 0
2, 142656, Note_on_c, 0, 72, 70
2, 142836, Note_on_c, 0, 72, 0
2, 142848, Note_on_c, 0, 70, 70
2, 143028, Note_on_c, 0, 70, 0
2, 143040, Note_on_c, 0, 71, 70
2, 143220, Note_on_c, 0, 71, 0
2, 143424, Note_on_c, 0, 71, 70
2, 143512, Note_on_c, 0, 71, 0
2, 143520, Note_on_c, 0, 72, 70
2, 143608, Note_on_c, 0, 72, 0
2, 143616, Note_on_c, 0, 74, 70
2, 143704, Note_on_c, 0, 74, 0
2, 143808, Note_on_c, 0, 76, 70
2, 143896, Note_on_c, 0, 76, 0
2, 144000, Note_on_c, 0, 78, 70
2, 144088, Note_on_c, 0, 78, 0
2, 144192, Note_on_c, 0, 79, 70
2, 144280, Note_on_c, 0, 79, 0
2, 144384, Note_on_c, 0, 79, 70
2, 144564, Note_on_c, 0, 79, 0
2, 144576, Note_on_c, 0, 78, 70
2, 144756, Note_on_c, 0, 78, 0
2, 144768, Note_on_c, 0, 76, 70
2, 144948, Note_on_c, 0, 76, 0
2, 144960, Note_on_c, 0, 74, 70
2, 145140, Note_on_c, 0, 74, 0
2, 145152, Note_on_c, 0, 74, 70
2, 145240, Note_on_c, 0, 74, 0
2, 145248, Note_on_c, 0, 72, 70
2, 145336, Note_on_c, 0, 72, 0
2, 145344, Note_on_c, 0, 71, 70
2, 145432, Note_on_c, 0, 71, 0
2, 145440, Note_on_c, 0, 72, 70
2, 145528, Note_on_c, 0, 72, 0
2, 145536, Note_on_c, 0, 76, 70
2, 145716, Note_on_c, 0, 76, 0
2, 145728, Note_on_c, 0, 72, 70
2, 145908, Note_on_c, 0, 72, 0
2, 145920, Note_on_c, 0, 71, 70
2, 146100, Note_on_c, 0, 71, 0
2, 146112, Note_on_c, 0, 79, 70
2, 146472, Note_on_c, 0, 79, 0
2, 146496, Note_on_c, 0, 77, 70
2, 146676, Note_on_c, 0, 77, 0
2, 146688, Note_on_c, 0, 77, 70
2, 146868, Note_on_c, 0, 77, 0
2, 146880, Note_on_c, 0, 76, 70
2, 147240, Note_on_c, 0, 76, 0
2, 147264, Note_on_c, 0, 74, 70
2, 147624, Note_on_c, 0, 74, 0
2, 147648, Note_on_c, 0, 72, 70
2, 148008, Note_on_c, 0, 72, 0
2, 148032, Note_on_c, 0, 79, 70
2, 148212, Note_on_c, 0, 79, 0
2, 148224, Note_on_c, 0, 79, 70
2, 148404, Note_on_c, 0, 79, 0
2, 148416, Note_on_c, 0, 77, 70
2, 148776, Note_on_c, 0, 77, 0
2, 148800, Note_on_c, 0, 76, 70
2, 149160, Note_on_c, 0, 76, 0
2, 149184, Note_on_c, 0, 74, 70
2, 149544, Note_on_c, 0, 74, 0
2, 149568, Note_on_c, 0, 79, 70
2, 149748, Note_on_c, 0, 79, 0
2, 149760, Note_on_c, 0, 79, 70
2, 149936, Note_on_c, 0, 77, 70
2, 149940, Note_on_c, 0, 79, 0
2, 150296, Note_on_c, 0, 77, 0
2, 150336, Note_on_c, 0, 75, 70
2, 150516, Note_on_c, 0, 75, 0
2, 150528, Note_on_c, 0, 76, 101
2, 150568, Note_on_c, 0, 76, 0
2, 150576, Note_on_c, 0, 78, 101
2, 150616, Note_on_c, 0, 78, 0
2, 150640, Note_on_c, 0, 79, 101
2, 150912, Note_on_c, 0, 79, 101
2, 150920, Note_on_c, 0, 79, 0
2, 151000, Note_on_c, 0, 79, 0
2, 151104, Note_on_c, 0, 79, 101
2, 151192, Note_on_c, 0, 79, 0
2, 151296, Note_on_c, 0, 79, 101
2, 151656, Note_on_c, 0, 79, 0
2, 152064, Note_on_c, 0, 76, 101
2, 152104, Note_on_c, 0, 76, 0
2, 152112, Note_on_c, 0, 78, 101
2, 152152, Note_on_c, 0, 78, 0
2, 152160, Note_on_c, 0, 79, 101
2, 152440, Note_on_c, 0, 79, 0
2, 152448, Note_on_c, 0, 79, 101
2, 152536, Note_on_c, 0, 79, 0
2, 152640, Note_on_c, 0, 79, 101
2, 152728, Note_on_c, 0, 79, 0
2, 152832, Note_on_c, 0, 79, 101
2, 153192, Note_on_c, 0, 79, 0
2, 153600, Note_on_c, 0, 69, 106
2, 153980, Note_on_c, 0, 69, 0
2, 154368, Note_on_c, 0, 84, 94
2, 154748, Note_on_c, 0, 84, 0
2, 155136, Note_on_c, 0, 67, 107
2, 155516, Note_on_c, 0, 67, 0
2, 155904, Note_on_c, 0, 83, 94
2, 156284, Note_on_c, 0, 83, 0
2, 156672, Note_on_c, 0, 81, 101
2, 156764, Note_on_c, 0, 81, 0
2, 156864, Note_on_c, 0, 83, 101
2, 156904, Note_on_c, 0, 83, 0
2, 156912, Note_on_c, 0, 81, 101
2, 156960, Note_on_c, 0, 80, 101
2, 157000, Note_on_c, 0, 81, 0
2, 157052, Note_on_c, 0, 80, 0
2, 157056, Note_on_c, 0, 81, 101
2, 157148, Note_on_c, 0, 81, 0
2, 157248, Note_on_c, 0, 84, 101
2, 157340, Note_on_c, 0, 84, 0
2, 157440, Note_on_c, 0, 83, 101
2, 157532, Note_on_c, 0, 83, 0
2, 157632, Note_on_c, 0, 81, 101
2, 157724, Note_on_c, 0, 81, 0
2, 157824, Note_on_c, 0, 79, 101
2, 157916, Note_on_c, 0, 79, 0
2, 158016, Note_on_c, 0, 78, 101
2, 158108, Note_on_c, 0, 78, 0
2, 158208, Note_on_c, 0, 79, 101
2, 158300, Note_on_c, 0, 79, 0
2, 158400, Note_on_c, 0, 81, 101
2, 158492, Note_on_c, 0, 81, 0
2, 158592, Note_on_c, 0, 83, 101
2, 158684, Note_on_c, 0, 83, 0
2, 158784, Note_on_c, 0, 84, 101
2, 158876, Note_on_c, 0, 84, 0
2, 158976, Note_on_c, 0, 86, 101
2, 159548, Note_on_c, 0, 86, 0
2, 159744, Note_on_c, 0, 72, 100
2, 159924, Note_on_c, 0, 72, 0
2, 159936, Note_on_c, 0, 84, 94
2, 159984, Note_on_c, 0, 84, 0
2, 160032, Note_on_c, 0, 86, 94
2, 160080, Note_on_c, 0, 86, 0
2, 160128, Note_on_c, 0, 88, 94
2, 160176, Note_on_c, 0, 88, 0
2, 160224, Note_on_c, 0, 86, 94
2, 160272, Note_on_c, 0, 86, 0
2, 160320, Note_on_c, 0, 84, 94
2, 160368, Note_on_c, 0, 84, 0
2, 160416, Note_on_c, 0, 83, 94
2, 160464, Note_on_c, 0, 83, 0
2, 160512, Note_on_c, 0, 83, 94
2, 160604, Note_on_c, 0, 83, 0
2, 160608, Note_on_c, 0, 80, 94
2, 160700, Note_on_c, 0, 80, 0
2, 160704, Note_on_c, 0, 81, 94
2, 160752, Note_on_c, 0, 81, 0
2, 160800, Note_on_c, 0, 80, 94
2, 160848, Note_on_c, 0, 80, 0
2, 160896, Note_on_c, 0, 78, 94
2, 160944, Note_on_c, 0, 78, 0
2, 160992, Note_on_c, 0, 76, 94
2, 161040, Note_on_c, 0, 76, 0
2, 161088, Note_on_c, 0, 74, 94
2, 161136, Note_on_c, 0, 74, 0
2, 161184, Note_on_c, 0, 72, 94
2, 161232, Note_on_c, 0, 72, 0
2, 161280, Note_on_c, 0, 71, 94
2, 161372, Note_on_c, 0, 71, 0
2, 161472, Note_on_c, 0, 83, 94
2, 161520, Note_on_c, 0, 83, 0
2, 161568, Note_on_c, 0, 84, 94
2, 161616, Note_on_c, 0, 84, 0
2, 161664, Note_on_c, 0, 86, 94
2, 161712, Note_on_c, 0, 86, 0
2, 161760, Note_on_c, 0, 84, 94
2, 161808, Note_on_c, 0, 84, 0
2, 161856, Note_on_c, 0, 83, 94
2, 161904, Note_on_c, 0, 83, 0
2, 161952, Note_on_c, 0, 81, 94
2, 162000, Note_on_c, 0, 81, 0
2, 162048, Note_on_c, 0, 79, 94
2, 162140, Note_on_c, 0, 79, 0
2, 162144, Note_on_c, 0, 78, 94
2, 162236, Note_on_c, 0, 78, 0
2, 162240, Note_on_c, 0, 79, 94
2, 162288, Note_on_c, 0, 79, 0
2, 162336, Note_on_c, 0, 78, 94
2, 162384, Note_on_c, 0, 78, 0
2, 162432, Note_on_c, 0, 76, 94
2, 162480, Note_on_c, 0, 76, 0
2, 162528, Note_on_c, 0, 74, 94
2, 162576, Note_on_c, 0, 74, 0
2, 162624, Note_on_c, 0, 72, 94
2, 162672, Note_on_c, 0, 72, 0
2, 162720, Note_on_c, 0, 71, 94
2, 162768, Note_on_c, 0, 71, 0
2, 162816, Note_on_c, 0, 69, 94
2, 163380, Note_on_c, 0, 69, 0
2, 163392, Note_on_c, 0, 84, 94
2, 163572, Note_on_c, 0, 84, 0
2, 163584, Note_on_c, 0, 83, 94
2, 163676, Note_on_c, 0, 83, 0
2, 163776, Note_on_c, 0, 81, 94
2, 163868, Note_on_c, 0, 81, 0
2, 163968, Note_on_c, 0, 79, 94
2, 164060, Note_on_c, 0, 79, 0
2, 164160, Note_on_c, 0, 78, 94
2, 164252, Note_on_c, 0, 78, 0
2, 164352, Note_on_c, 0, 79, 94
2, 164916, Note_on_c, 0, 79, 0
2, 165120, Note_on_c, 0, 84, 70
2, 165208, Note_on_c, 0, 84, 0
2, 165216, Note_on_c, 0, 83, 70
2, 165304, Note_on_c, 0, 83, 0
2, 165312, Note_on_c, 0, 81, 70
2, 165400, Note_on_c, 0, 81, 0
2, 165408, Note_on_c, 0, 83, 70
2, 165496, Note_on_c, 0, 83, 0
2, 165504, Note_on_c, 0, 86, 70
2, 165592, Note_on_c, 0, 86, 0
2, 165600, Note_on_c, 0, 84, 70
2, 165688, Note_on_c, 0, 84, 0
2, 165696, Note_on_c, 0, 83, 70
2, 165784, Note_on_c, 0, 83, 0
2, 165792, Note_on_c, 0, 84, 70
2, 165880, Note_on_c, 0, 84, 0
2, 165888, Note_on_c, 0, 86, 71
2, 166068, Note_on_c, 0, 86, 0
2, 166080, Note_on_c, 0, 83, 71
2, 166260, Note_on_c, 0, 83, 0
2, 166272, Note_on_c, 0, 79, 74
2, 166364, Note_on_c, 0, 79, 0
2, 166464, Note_on_c, 0, 79, 74
2, 166556, Note_on_c, 0, 79, 0
2, 166656, Note_on_c, 0, 84, 78
2, 166744, Note_on_c, 0, 84, 0
2, 166752, Note_on_c, 0, 83, 78
2, 166840, Note_on_c, 0, 83, 0
2, 166848, Note_on_c, 0, 81, 81
2, 166936, Note_on_c, 0, 81, 0
2, 166944, Note_on_c, 0, 83, 81
2, 167032, Note_on_c, 0, 83, 0
2, 167040, Note_on_c, 0, 86, 84
2, 167128, Note_on_c, 0, 86, 0
2, 167136, Note_on_c, 0, 84, 84
2, 167224, Note_on_c, 0, 84, 0
2, 167232, Note_on_c, 0, 83, 88
2, 167320, Note_on_c, 0, 83, 0
2, 167328, Note_on_c, 0, 84, 88
2, 167416, Note_on_c, 0, 84, 0
2, 167424, Note_on_c, 0, 86, 89
2, 167604, Note_on_c, 0, 86, 0
2, 167616, Note_on_c, 0, 83, 89
2, 167796, Note_on_c, 0, 83, 0
2, 167808, Note_on_c, 0, 79, 93
2, 167900, Note_on_c, 0, 79, 0
2, 168000, Note_on_c, 0, 79, 93
2, 168092, Note_on_c, 0, 79, 0
2, 168192, Note_on_c, 0, 84, 94
2, 168280, Note_on_c, 0, 84, 0
2, 168288, Note_on_c, 0, 83, 94
2, 168376, Note_on_c, 0, 83, 0
2, 168384, Note_on_c, 0, 81, 97
2, 168472, Note_on_c, 0, 81, 0
2, 168480, Note_on_c, 0, 83, 97
2, 168568, Note_on_c, 0, 83, 0
2, 168576, Note_on_c, 0, 86, 98
2, 168664, Note_on_c, 0, 86, 0
2, 168672, Note_on_c, 0, 84, 98
2, 168760, Note_on_c, 0, 84, 0
2, 168768, Note_on_c, 0, 83, 100
2, 168856, Note_on_c, 0, 83, 0
2, 168864, Note_on_c, 0, 84, 100
2, 168952, Note_on_c, 0, 84, 0
2, 168960, Note_on_c, 0, 86, 101
2, 169052, Note_on_c, 0, 86, 0
2, 169152, Note_on_c, 0, 86, 101
2, 169240, Note_on_c, 0, 86, 0
2, 169248, Note_on_c, 0, 88, 101
2, 169336, Note_on_c, 0, 88, 0
2, 169344, Note_on_c, 0, 84, 101
2, 169436, Note_on_c, 0, 84, 0
2, 169536, Note_on_c, 0, 84, 101
2, 169624, Note_on_c, 0, 84, 0
2, 169632, Note_on_c, 0, 86, 101
2, 169720, Note_on_c, 0, 86, 0
2, 169728, Note_on_c, 0, 83, 101
2, 169820, Note_on_c, 0, 83, 0
2, 169920, Note_on_c, 0, 83, 101
2, 170008, Note_on_c, 0, 83, 0
2, 170016, Note_on_c, 0, 84, 101
2, 170104, Note_on_c, 0, 84, 0
2, 170112, Note_on_c, 0, 81, 101
2, 170204, Note_on_c, 0, 81, 0
2, 170304, Note_on_c, 0, 81, 101
2, 170392, Note_on_c, 0, 81, 0
2, 170400, Note_on_c, 0, 83, 101
2, 170488, Note_on_c, 0, 83, 0
2, 170496, Note_on_c, 0, 79, 101
2, 170584, Note_on_c, 0, 79, 0
2, 170592, Note_on_c, 0, 74, 101
2, 170680, Note_on_c, 0, 74, 0
2, 170688, Note_on_c, 0, 76, 101
2, 170736, Note_on_c, 0, 76, 0
2, 170784, Note_on_c, 0, 77, 101
2, 170832, Note_on_c, 0, 77, 0
2, 170880, Note_on_c, 0, 79, 101
2, 170928, Note_on_c, 0, 79, 0
2, 170976, Note_on_c, 0, 81, 100
2, 171024, Note_on_c, 0, 81, 0
2, 171072, Note_on_c, 0, 83, 98
2, 171120, Note_on_c, 0, 83, 0
2, 171168, Note_on_c, 0, 84, 97
2, 171216, Note_on_c, 0, 84, 0
2, 171264, Note_on_c, 0, 86, 94
2, 177000, Note_on_c, 0, 86, 0
2, 177024, Note_on_c, 0, 71, 101
2, 177384, Note_on_c, 0, 71, 0
2, 177408, Note_on_c, 0, 72, 101
2, 177768, Note_on_c, 0, 72, 0
2, 177792, Note_on_c, 0, 88, 88
2, 178152, Note_on_c, 0, 88, 0
2, 178176, Note_on_c, 0, 86, 88
2, 178268, Note_on_c, 0, 86, 0
2, 178368, Note_on_c, 0, 83, 89
2, 178728, Note_on_c, 0, 83, 0
2, 178752, Note_on_c, 0, 79, 88
2, 178932, Note_on_c, 0, 79, 0
2, 178944, Note_on_c, 0, 84, 88
2, 179036, Note_on_c, 0, 84, 0
2, 179136, Note_on_c, 0, 81, 88
2, 179496, Note_on_c, 0, 81, 0
2, 179520, Note_on_c, 0, 78, 89
2, 179700, Note_on_c, 0, 78, 0
2, 179712, Note_on_c, 0, 86, 100
2, 179800, Note_on_c, 0, 86, 0
2, 179808, Note_on_c, 0, 84, 100
2, 179896, Note_on_c, 0, 84, 0
2, 179904, Note_on_c, 0, 83, 100
2, 179992, Note_on_c, 0, 83, 0
2, 180000, Note_on_c, 0, 81, 101
2, 180088, Note_on_c, 0, 81, 0
2, 180096, Note_on_c, 0, 79, 101
2, 180184, Note_on_c, 0, 79, 0
2, 180192, Note_on_c, 0, 78, 101
2, 180280, Note_on_c, 0, 78, 0
2, 180288, Note_on_c, 0, 76, 101
2, 180376, Note_on_c, 0, 76, 0
2, 180384, Note_on_c, 0, 74, 101
2, 180472, Note_on_c, 0, 74, 0
2, 180480, Note_on_c, 0, 76, 101
2, 180568, Note_on_c, 0, 76, 0
2, 180576, Note_on_c, 0, 77, 101
2, 180664, Note_on_c, 0, 77, 0
2, 180672, Note_on_c, 0, 79, 100
2, 180760, Note_on_c, 0, 79, 0
2, 180768, Note_on_c, 0, 81, 100
2, 180856, Note_on_c, 0, 81, 0
2, 180864, Note_on_c, 0, 83, 98
2, 180952, Note_on_c, 0, 83, 0
2, 180960, Note_on_c, 0, 84, 98
2, 181048, Note_on_c, 0, 84, 0
2, 181056, Note_on_c, 0, 86, 97
2, 181144, Note_on_c, 0, 86, 0
2, 181152, Note_on_c, 0, 88, 94
2, 181240, Note_on_c, 0, 88, 0
2, 181248, Note_on_c, 0, 62, 111
2, 181376, Note_on_c, 0, 62, 0
2, 181376, Note_on_c, 0, 67, 109
2, 181440, Note_on_c, 0, 67, 0
2, 181504, Note_on_c, 0, 71, 106
2, 181568, Note_on_c, 0, 71, 0
2, 181632, Note_on_c, 0, 74, 103
2, 181696, Note_on_c, 0, 74, 0
2, 181760, Note_on_c, 0, 79, 100
2, 181824, Note_on_c, 0, 79, 0
2, 181888, Note_on_c, 0, 83, 98
2, 181952, Note_on_c, 0, 83, 0
2, 182016, Note_on_c, 0, 86, 97
2, 182392, Note_on_c, 0, 86, 0
2, 182400, Note_on_c, 0, 84, 98
2, 182492, Note_on_c, 0, 84, 0
2, 182496, Note_on_c, 0, 83, 100
2, 182588, Note_on_c, 0, 83, 0
2, 182592, Note_on_c, 0, 81, 100
2, 182684, Note_on_c, 0, 81, 0
2, 182688, Note_on_c, 0, 79, 101
2, 182780, Note_on_c, 0, 79, 0
2, 182784, Note_on_c, 0, 81, 101
2, 182832, Note_on_c, 0, 81, 0
2, 182832, Note_on_c, 0, 83, 101
2, 182880, Note_on_c, 0, 83, 0
2, 182880, Note_on_c, 0, 81, 101
2, 182928, Note_on_c, 0, 81, 0
2, 182928, Note_on_c, 0, 83, 101
2, 182976, Note_on_c, 0, 83, 0
2, 182976, Note_on_c, 0, 81, 101
2, 183024, Note_on_c, 0, 81, 0
2, 183024, Note_on_c, 0, 83, 101
2, 183072, Note_on_c, 0, 83, 0
2, 183072, Note_on_c, 0, 81, 101
2, 183120, Note_on_c, 0, 81, 0
2, 183120, Note_on_c, 0, 83, 101
2, 183168, Note_on_c, 0, 83, 0
2, 183168, Note_on_c, 0, 81, 101
2, 183216, Note_on_c, 0, 81, 0
2, 183216, Note_on_c, 0, 83, 101
2, 183264, Note_on_c, 0, 83, 0
2, 183264, Note_on_c, 0, 81, 101
2, 183312, Note_on_c, 0, 81, 0
2, 183312, Note_on_c, 0, 83, 101
2, 183360, Note_on_c, 0, 83, 0
2, 183360, Note_on_c, 0, 81, 101
2, 183408, Note_on_c, 0, 81, 0
2, 183408, Note_on_c, 0, 83, 101
2, 183456, Note_on_c, 0, 83, 0
2, 183456, Note_on_c, 0, 81, 101
2, 183504, Note_on_c, 0, 81, 0
2, 183504, Note_on_c, 0, 83, 101
2, 183552, Note_on_c, 0, 83, 0
2, 183552, Note_on_c, 0, 81, 101
2, 183600, Note_on_c, 0, 81, 0
2, 183600, Note_on_c, 0, 83, 101
2, 183648, Note_on_c, 0, 83, 0
2, 183648, Note_on_c, 0, 81, 101
2, 183696, Note_on_c, 0, 81, 0
2, 183696, Note_on_c, 0, 83, 101
2, 183744, Note_on_c, 0, 83, 0
2, 183744, Note_on_c, 0, 81, 101
2, 183792, Note_on_c, 0, 81, 0
2, 183792, Note_on_c, 0, 83, 101
2, 183840, Note_on_c, 0, 83, 0
2, 183840, Note_on_c, 0, 81, 101
2, 183888, Note_on_c, 0, 81, 0
2, 183888, Note_on_c, 0, 83, 101
2, 183936, Note_on_c, 0, 83, 0
2, 183936, Note_on_c, 0, 81, 101
2, 183984, Note_on_c, 0, 81, 0
2, 183984, Note_on_c, 0, 83, 101
2, 184032, Note_on_c, 0, 83, 0
2, 184032, Note_on_c, 0, 81, 101
2, 184080, Note_on_c, 0, 81, 0
2, 184080, Note_on_c, 0, 83, 101
2, 184128, Note_on_c, 0, 83, 0
2, 184128, Note_on_c, 0, 79, 101
2, 184220, Note_on_c, 0, 79, 0
2, 184224, Note_on_c, 0, 81, 101
2, 184316, Note_on_c, 0, 81, 0
2, 184320, Note_on_c, 0, 79, 101
2, 184700, Note_on_c, 0, 79, 0
2, 204288, Note_on_c, 0, 76, 74
2, 204856, Note_on_c, 0, 76, 0
2, 204864, Note_on_c, 0, 77, 70
2, 204952, Note_on_c, 0, 77, 0
2, 204960, Note_on_c, 0, 76, 70
2, 205048, Note_on_c, 0, 76, 0
2, 205056, Note_on_c, 0, 71, 70
2, 205624, Note_on_c, 0, 71, 0
2, 205632, Note_on_c, 0, 74, 70
2, 205816, Note_on_c, 0, 74, 0
2, 205824, Note_on_c, 0, 72, 70
2, 206008, Note_on_c, 0, 72, 0
2, 206016, Note_on_c, 0, 76, 70
2, 206200, Note_on_c, 0, 76, 0
2, 206208, Note_on_c, 0, 81, 70
2, 206300, Note_on_c, 0, 81, 0
2, 206400, Note_on_c, 0, 84, 70
2, 206492, Note_on_c, 0, 84, 0
2, 206592, Note_on_c, 0, 88, 70
2, 207156, Note_on_c, 0, 88, 0
2, 207168, Note_on_c, 0, 88, 70
2, 207348, Note_on_c, 0, 88, 0
2, 207360, Note_on_c, 0, 88, 70
2, 207540, Note_on_c, 0, 88, 0
2, 207552, Note_on_c, 0, 80, 70
2, 207732, Note_on_c, 0, 80, 0
2, 207744, Note_on_c, 0, 80, 70
2, 208308, Note_on_c, 0, 80, 0
2, 208320, Note_on_c, 0, 88, 70
2, 208500, Note_on_c, 0, 88, 0
2, 208512, Note_on_c, 0, 87, 70
2, 208692, Note_on_c, 0, 87, 0
2, 208704, Note_on_c, 0, 88, 70
2, 208884, Note_on_c, 0, 88, 0
2, 208896, Note_on_c, 0, 88, 70
2, 209076, Note_on_c, 0, 88, 0
2, 209088, Note_on_c, 0, 81, 70
2, 209268, Note_on_c, 0, 81, 0
2, 209280, Note_on_c, 0, 81, 70
2, 209844, Note_on_c, 0, 81, 0
2, 209856, Note_on_c, 0, 84, 70
2, 210036, Note_on_c, 0, 84, 0
2, 210048, Note_on_c, 0, 80, 70
2, 210228, Note_on_c, 0, 80, 0
2, 210240, Note_on_c, 0, 81, 70
2, 210420, Note_on_c, 0, 81, 0
2, 210432, Note_on_c, 0, 79, 70
2, 210520, Note_on_c, 0, 79, 0
2, 210528, Note_on_c, 0, 77, 70
2, 210616, Note_on_c, 0, 77, 0
2, 210624, Note_on_c, 0, 76, 70
2, 210712, Note_on_c, 0, 76, 0
2, 210720, Note_on_c, 0, 77, 70
2, 210808, Note_on_c, 0, 77, 0
2, 210816, Note_on_c, 0, 79, 70
2, 210904, Note_on_c, 0, 79, 0
2, 210912, Note_on_c, 0, 77, 70
2, 211000, Note_on_c, 0, 77, 0
2, 211008, Note_on_c, 0, 76, 70
2, 211096, Note_on_c, 0, 76, 0
2, 211104, Note_on_c, 0, 74, 70
2, 211192, Note_on_c, 0, 74, 0
2, 211200, Note_on_c, 0, 72, 70
2, 211560, Note_on_c, 0, 72, 0
2, 211584, Note_on_c, 0, 71, 70
2, 211624, Note_on_c, 0, 71, 0
2, 211632, Note_on_c, 0, 72, 70
2, 211672, Note_on_c, 0, 72, 0
2, 211680, Note_on_c, 0, 71, 70
2, 211720, Note_on_c, 0, 71, 0
2, 211728, Note_on_c, 0, 72, 70
2, 211768, Note_on_c, 0, 72, 0
2, 211776, Note_on_c, 0, 71, 70
2, 211816, Note_on_c, 0, 71, 0
2, 211824, Note_on_c, 0, 72, 70
2, 211864, Note_on_c, 0, 72, 0
2, 211872, Note_on_c, 0, 69, 70
2, 211912, Note_on_c, 0, 69, 0
2, 211920, Note_on_c, 0, 71, 70
2, 211960, Note_on_c, 0, 71, 0
2, 211968, Note_on_c, 0, 69, 98
2, 212060, Note_on_c, 0, 69, 0
2, 212160, Note_on_c, 0, 84, 94
2, 212252, Note_on_c, 0, 84, 0
2, 212352, Note_on_c, 0, 71, 98
2, 212444, Note_on_c, 0, 71, 0
2, 212544, Note_on_c, 0, 86, 94
2, 212636, Note_on_c, 0, 86, 0
2, 212736, Note_on_c, 0, 72, 98
2, 212828, Note_on_c, 0, 72, 0
2, 212928, Note_on_c, 0, 88, 94
2, 213020, Note_on_c, 0, 88, 0
2, 213120, Note_on_c, 0, 86, 94
2, 213208, Note_on_c, 0, 86, 0
2, 213216, Note_on_c, 0, 84, 94
2, 213304, Note_on_c, 0, 84, 0
2, 213312, Note_on_c, 0, 83, 94
2, 213400, Note_on_c, 0, 83, 0
2, 213408, Note_on_c, 0, 81, 94
2, 213496, Note_on_c, 0, 81, 0
2, 213504, Note_on_c, 0, 80, 94
2, 213592, Note_on_c, 0, 80, 0
2, 213600, Note_on_c, 0, 81, 94
2, 213688, Note_on_c, 0, 81, 0
2, 213696, Note_on_c, 0, 80, 94
2, 213784, Note_on_c, 0, 80, 0
2, 213792, Note_on_c, 0, 81, 94
2, 213880, Note_on_c, 0, 81, 0
2, 213888, Note_on_c, 0, 79, 94
2, 213976, Note_on_c, 0, 79, 0
2, 213984, Note_on_c, 0, 77, 94
2, 214072, Note_on_c, 0, 77, 0
2, 214080, Note_on_c, 0, 76, 94
2, 214168, Note_on_c, 0, 76, 0
2, 214176, Note_on_c, 0, 74, 94
2, 214264, Note_on_c, 0, 74, 0
2, 214272, Note_on_c, 0, 72, 94
2, 214632, Note_on_c, 0, 72, 0
2, 214656, Note_on_c, 0, 71, 94
2, 214696, Note_on_c, 0, 71, 0
2, 214704, Note_on_c, 0, 72, 94
2, 214744, Note_on_c, 0, 72, 0
2, 214752, Note_on_c, 0, 71, 94
2, 214792, Note_on_c, 0, 71, 0
2, 214800, Note_on_c, 0, 72, 94
2, 214840, Note_on_c, 0, 72, 0
2, 214848, Note_on_c, 0, 71, 94
2, 214888, Note_on_c, 0, 71, 0
2, 214896, Note_on_c, 0, 72, 94
2, 214936, Note_on_c, 0, 72, 0
2, 214944, Note_on_c, 0, 69, 94
2, 214984, Note_on_c, 0, 69, 0
2, 214992, Note_on_c, 0, 71, 94
2, 215032, Note_on_c, 0, 71, 0
2, 215040, Note_on_c, 0, 69, 98
2, 215400, Note_on_c, 0, 69, 0
2, 219648, Note_on_c, 0, 81, 70
2, 220212, Note_on_c, 0, 81, 0
2, 220224, Note_on_c, 0, 82, 70
2, 220312, Note_on_c, 0, 82, 0
2, 220320, Note_on_c, 0, 81, 70
2, 220408, Note_on_c, 0, 81, 0
2, 220416, Note_on_c, 0, 76, 68
2, 220980, Note_on_c, 0, 76, 0
2, 220992, Note_on_c, 0, 79, 64
2, 221172, Note_on_c, 0, 79, 0
2, 221184, Note_on_c, 0, 77, 62
2, 221272, Note_on_c, 0, 77, 0
2, 221280, Note_on_c, 0, 81, 62
2, 221368, Note_on_c, 0, 81, 0
2, 221376, Note_on_c, 0, 80, 62
2, 221464, Note_on_c, 0, 80, 0
2, 221472, Note_on_c, 0, 81, 62
2, 221560, Note_on_c, 0, 81, 0
2, 221568, Note_on_c, 0, 80, 62
2, 221656, Note_on_c, 0, 80, 0
2, 221664, Note_on_c, 0, 81, 62
2, 221752, Note_on_c, 0, 81, 0
2, 221760, Note_on_c, 0, 80, 62
2, 221848, Note_on_c, 0, 80, 0
2, 221856, Note_on_c, 0, 81, 62
2, 221944, Note_on_c, 0, 81, 0
2, 221952, Note_on_c, 0, 80, 62
2, 222040, Note_on_c, 0, 80, 0
2, 222048, Note_on_c, 0, 81, 62
2, 222136, Note_on_c, 0, 81, 0
2, 222144, Note_on_c, 0, 80, 62
2, 222232, Note_on_c, 0, 80, 0
2, 222240, Note_on_c, 0, 81, 62
2, 222328, Note_on_c, 0, 81, 0
2, 222336, Note_on_c, 0, 80, 62
2, 222424, Note_on_c, 0, 80, 0
2, 222432, Note_on_c, 0, 77, 62
2, 222520, Note_on_c, 0, 77, 0
2, 222528, Note_on_c, 0, 76, 62
2, 222616, Note_on_c, 0, 76, 0
2, 222624, Note_on_c, 0, 74, 62
2, 222712, Note_on_c, 0, 74, 0
2, 222720, Note_on_c, 0, 74, 62
2, 222900, Note_on_c, 0, 74, 0
2, 222912, Note_on_c, 0, 73, 62
2, 223092, Note_on_c, 0, 73, 0
2, 223104, Note_on_c, 0, 73, 62
2, 223668, Note_on_c, 0, 73, 0
2, 223680, Note_on_c, 0, 82, 62
2, 223860, Note_on_c, 0, 82, 0
2, 223872, Note_on_c, 0, 81, 62
2, 224052, Note_on_c, 0, 81, 0
2, 224064, Note_on_c, 0, 73, 62
2, 224244, Note_on_c, 0, 73, 0
2, 224256, Note_on_c, 0, 74, 62
2, 224444, Note_on_c, 0, 74, 0
2, 224448, Note_on_c, 0, 76, 62
2, 224496, Note_on_c, 0, 76, 0
2, 224544, Note_on_c, 0, 77, 62
2, 224592, Note_on_c, 0, 77, 0
2, 224640, Note_on_c, 0, 79, 63
2, 224688, Note_on_c, 0, 79, 0
2, 224736, Note_on_c, 0, 81, 64
2, 224784, Note_on_c, 0, 81, 0
2, 224832, Note_on_c, 0, 83, 65
2, 224880, Note_on_c, 0, 83, 0
2, 224928, Note_on_c, 0, 85, 66
2, 224976, Note_on_c, 0, 85, 0
2, 225024, Note_on_c, 0, 86, 67
2, 225116, Note_on_c, 0, 86, 0
2, 225216, Note_on_c, 0, 86, 69
2, 225308, Note_on_c, 0, 86, 0
2, 225408, Note_on_c, 0, 86, 71
2, 225500, Note_on_c, 0, 86, 0
2, 225600, Note_on_c, 0, 86, 73
2, 225692, Note_on_c, 0, 86, 0
2, 225792, Note_on_c, 0, 76, 75
2, 226152, Note_on_c, 0, 76, 0
2, 226176, Note_on_c, 0, 81, 79
2, 226264, Note_on_c, 0, 81, 0
2, 226272, Note_on_c, 0, 79, 80
2, 226360, Note_on_c, 0, 79, 0
2, 226368, Note_on_c, 0, 77, 81
2, 226456, Note_on_c, 0, 77, 0
2, 226464, Note_on_c, 0, 76, 82
2, 226552, Note_on_c, 0, 76, 0
2, 226560, Note_on_c, 0, 74, 83
2, 226920, Note_on_c, 0, 74, 0
2, 226944, Note_on_c, 0, 73, 87
2, 227304, Note_on_c, 0, 73, 0
2, 227328, Note_on_c, 0, 62, 90
2, 227420, Note_on_c, 0, 62, 0
2, 227520, Note_on_c, 0, 77, 90
2, 227612, Note_on_c, 0, 77, 0
2, 227712, Note_on_c, 0, 64, 90
2, 227804, Note_on_c, 0, 64, 0
2, 227904, Note_on_c, 0, 79, 90
2, 227996, Note_on_c, 0, 79, 0
2, 228096, Note_on_c, 0, 65, 90
2, 228188, Note_on_c, 0, 65, 0
2, 228288, Note_on_c, 0, 81, 90
2, 228380, Note_on_c, 0, 81, 0
2, 228480, Note_on_c, 0, 79, 90
2, 228568, Note_on_c, 0, 79, 0
2, 228576, Note_on_c, 0, 77, 90
2, 228664, Note_on_c, 0, 77, 0
2, 228672, Note_on_c, 0, 76, 90
2, 228760, Note_on_c, 0, 76, 0
2, 228768, Note_on_c, 0, 74, 90
2, 228856, Note_on_c, 0, 74, 0
2, 228864, Note_on_c, 0, 67, 91
2, 228956, Note_on_c, 0, 67, 0
2, 229056, Note_on_c, 0, 86, 92
2, 229148, Note_on_c, 0, 86, 0
2, 229248, Note_on_c, 0, 84, 93
2, 229336, Note_on_c, 0, 84, 0
2, 229344, Note_on_c, 0, 82, 94
2, 229432, Note_on_c, 0, 82, 0
2, 229440, Note_on_c, 0, 81, 94
2, 229528, Note_on_c, 0, 81, 0
2, 229536, Note_on_c, 0, 79, 95
2, 229624, Note_on_c, 0, 79, 0
2, 229632, Note_on_c, 0, 77, 96
2, 229992, Note_on_c, 0, 77, 0
2, 230016, Note_on_c, 0, 76, 98
2, 230064, Note_on_c, 0, 76, 0
2, 230064, Note_on_c, 0, 77, 98
2, 230112, Note_on_c, 0, 77, 0
2, 230112, Note_on_c, 0, 76, 99
2, 230160, Note_on_c, 0, 76, 0
2, 230160, Note_on_c, 0, 77, 99
2, 230208, Note_on_c, 0, 77, 0
2, 230208, Note_on_c, 0, 76, 99
2, 230256, Note_on_c, 0, 76, 0
2, 230256, Note_on_c, 0, 77, 100
2, 230304, Note_on_c, 0, 77, 0
2, 230304, Note_on_c, 0, 74, 100
2, 230352, Note_on_c, 0, 74, 0
2, 230352, Note_on_c, 0, 76, 100
2, 230400, Note_on_c, 0, 76, 0
2, 230400, Note_on_c, 0, 74, 100
2, 231144, Note_on_c, 0, 74, 0
2, 231152, Note_on_c, 0, 62, 95
2, 232664, Note_on_c, 0, 62, 0
2, 232704, Note_on_c, 0, 61, 95
2, 233448, Note_on_c, 0, 61, 0
2, 233472, Note_on_c, 0, 60, 105
2, 234984, Note_on_c, 0, 60, 0
2, 235200, Note_on_c, 0, 81, 75
2, 235292, Note_on_c, 0, 81, 0
2, 235392, Note_on_c, 0, 81, 75
2, 235484, Note_on_c, 0, 81, 0
2, 235584, Note_on_c, 0, 81, 75
2, 235676, Note_on_c, 0, 81, 0
2, 235776, Note_on_c, 0, 83, 75
2, 235864, Note_on_c, 0, 83, 0
2, 235872, Note_on_c, 0, 81, 75
2, 235960, Note_on_c, 0, 81, 0
2, 235968, Note_on_c, 0, 80, 75
2, 236056, Note_on_c, 0, 80, 0
2, 236064, Note_on_c, 0, 81, 75
2, 236152, Note_on_c, 0, 81, 0
2, 236160, Note_on_c, 0, 83, 75
2, 236248, Note_on_c, 0, 83, 0
2, 236256, Note_on_c, 0, 81, 75
2, 236344, Note_on_c, 0, 81, 0
2, 236352, Note_on_c, 0, 80, 75
2, 236440, Note_on_c, 0, 80, 0
2, 236448, Note_on_c, 0, 81, 75
2, 236536, Note_on_c, 0, 81, 0
2, 236544, Note_on_c, 0, 80, 76
2, 236636, Note_on_c, 0, 80, 0
2, 236736, Note_on_c, 0, 80, 77
2, 236828, Note_on_c, 0, 80, 0
2, 236928, Note_on_c, 0, 80, 78
2, 237020, Note_on_c, 0, 80, 0
2, 237120, Note_on_c, 0, 80, 80
2, 237212, Note_on_c, 0, 80, 0
2, 237312, Note_on_c, 0, 80, 83
2, 237400, Note_on_c, 0, 80, 0
2, 237408, Note_on_c, 0, 81, 86
2, 237496, Note_on_c, 0, 81, 0
2, 237504, Note_on_c, 0, 83, 89
2, 237592, Note_on_c, 0, 83, 0
2, 237600, Note_on_c, 0, 81, 92
2, 237688, Note_on_c, 0, 81, 0
2, 237696, Note_on_c, 0, 80, 94
2, 237784, Note_on_c, 0, 80, 0
2, 237792, Note_on_c, 0, 81, 97
2, 237880, Note_on_c, 0, 81, 0
2, 237888, Note_on_c, 0, 83, 99
2, 237976, Note_on_c, 0, 83, 0
2, 237984, Note_on_c, 0, 81, 100
2, 238072, Note_on_c, 0, 81, 0
2, 238080, Note_on_c, 0, 80, 100
2, 238172, Note_on_c, 0, 80, 0
2, 238272, Note_on_c, 0, 86, 100
2, 238364, Note_on_c, 0, 86, 0
2, 238464, Note_on_c, 0, 86, 100
2, 238556, Note_on_c, 0, 86, 0
2, 238656, Note_on_c, 0, 86, 100
2, 238748, Note_on_c, 0, 86, 0
2, 238848, Note_on_c, 0, 86, 100
2, 238936, Note_on_c, 0, 86, 0
2, 238944, Note_on_c, 0, 85, 100
2, 239032, Note_on_c, 0, 85, 0
2, 239040, Note_on_c, 0, 86, 100
2, 239128, Note_on_c, 0, 86, 0
2, 239136, Note_on_c, 0, 85, 100
2, 239224, Note_on_c, 0, 85, 0
2, 239232, Note_on_c, 0, 86, 100
2, 239320, Note_on_c, 0, 86, 0
2, 239328, Note_on_c, 0, 83, 100
2, 239416, Note_on_c, 0, 83, 0
2, 239424, Note_on_c, 0, 81, 100
2, 239512, Note_on_c, 0, 81, 0
2, 239520, Note_on_c, 0, 80, 100
2, 239608, Note_on_c, 0, 80, 0
2, 239616, Note_on_c, 0, 81, 100
2, 240360, Note_on_c, 0, 81, 0
2, 240384, Note_on_c, 0, 69, 95
2, 241896, Note_on_c, 0, 69, 0
2, 241920, Note_on_c, 0, 68, 95
2, 242664, Note_on_c, 0, 68, 0
2, 242688, Note_on_c, 0, 67, 100
2, 245736, Note_on_c, 0, 67, 0
2, 245760, Note_on_c, 0, 67, 105
2, 245848, Note_on_c, 0, 67, 0
2, 245856, Note_on_c, 0, 79, 100
2, 248824, Note_on_c, 0, 79, 0
2, 248928, Note_on_c, 0, 79, 76
2, 249016, Note_on_c, 0, 79, 0
2, 249024, Note_on_c, 0, 78, 77
2, 249112, Note_on_c, 0, 78, 0
2, 249120, Note_on_c, 0, 79, 78
2, 249208, Note_on_c, 0, 79, 0
2, 249216, Note_on_c, 0, 80, 79
2, 249304, Note_on_c, 0, 80, 0
2, 249312, Note_on_c, 0, 79, 79
2, 249400, Note_on_c, 0, 79, 0
2, 249408, Note_on_c, 0, 78, 80
2, 249496, Note_on_c, 0, 78, 0
2, 249504, Note_on_c, 0, 79, 81
2, 249592, Note_on_c, 0, 79, 0
2, 249600, Note_on_c, 0, 77, 82
2, 249688, Note_on_c, 0, 77, 0
2, 249696, Note_on_c, 0, 75, 83
2, 249784, Note_on_c, 0, 75, 0
2, 249792, Note_on_c, 0, 74, 83
2, 249880, Note_on_c, 0, 74, 0
2, 249888, Note_on_c, 0, 75, 84
2, 249976, Note_on_c, 0, 75, 0
2, 249984, Note_on_c, 0, 74, 85
2, 250072, Note_on_c, 0, 74, 0
2, 250080, Note_on_c, 0, 72, 86
2, 250168, Note_on_c, 0, 72, 0
2, 250176, Note_on_c, 0, 71, 86
2, 250264, Note_on_c, 0, 71, 0
2, 250272, Note_on_c, 0, 72, 87
2, 250360, Note_on_c, 0, 72, 0
2, 250368, Note_on_c, 0, 71, 88
2, 250456, Note_on_c, 0, 71, 0
2, 250464, Note_on_c, 0, 79, 89
2, 250552, Note_on_c, 0, 79, 0
2, 250560, Note_on_c, 0, 78, 90
2, 250648, Note_on_c, 0, 78, 0
2, 250656, Note_on_c, 0, 79, 90
2, 250744, Note_on_c, 0, 79, 0
2, 250752, Note_on_c, 0, 80, 91
2, 250840, Note_on_c, 0, 80, 0
2, 250848, Note_on_c, 0, 79, 92
2, 250936, Note_on_c, 0, 79, 0
2, 250944, Note_on_c, 0, 78, 93
2, 251032, Note_on_c, 0, 78, 0
2, 251040, Note_on_c, 0, 79, 93
2, 251128, Note_on_c, 0, 79, 0
2, 251136, Note_on_c, 0, 77, 94
2, 251224, Note_on_c, 0, 77, 0
2, 251232, Note_on_c, 0, 75, 95
2, 251320, Note_on_c, 0, 75, 0
2, 251328, Note_on_c, 0, 74, 96
2, 251416, Note_on_c, 0, 74, 0
2, 251424, Note_on_c, 0, 75, 97
2, 251512, Note_on_c, 0, 75, 0
2, 251520, Note_on_c, 0, 74, 97
2, 251608, Note_on_c, 0, 74, 0
2, 251616, Note_on_c, 0, 72, 98
2, 251704, Note_on_c, 0, 72, 0
2, 251712, Note_on_c, 0, 71, 99
2, 251800, Note_on_c, 0, 71, 0
2, 251808, Note_on_c, 0, 72, 99
2, 251896, Note_on_c, 0, 72, 0
2, 251904, Note_on_c, 0, 71, 100
2, 252264, Note_on_c, 0, 71, 0
2, 252672, Note_on_c, 0, 72, 100
2, 252764, Note_on_c, 0, 72, 0
2, 252768, Note_on_c, 0, 84, 75
2, 253244, Note_on_c, 0, 84, 0
2, 253248, Note_on_c, 0, 75, 75
2, 253436, Note_on_c, 0, 75, 0
2, 253440, Note_on_c, 0, 74, 75
2, 253820, Note_on_c, 0, 74, 0
2, 254208, Note_on_c, 0, 72, 100
2, 254300, Note_on_c, 0, 72, 0
2, 254304, Note_on_c, 0, 84, 75
2, 254780, Note_on_c, 0, 84, 0
2, 254784, Note_on_c, 0, 75, 75
2, 254972, Note_on_c, 0, 75, 0
2, 254976, Note_on_c, 0, 74, 75
2, 255024, Note_on_c, 0, 74, 0
2, 255024, Note_on_c, 0, 76, 75
2, 255072, Note_on_c, 0, 76, 0
2, 255072, Note_on_c, 0, 74, 75
2, 255120, Note_on_c, 0, 74, 0
2, 255120, Note_on_c, 0, 76, 75
2, 255168, Note_on_c, 0, 76, 0
2, 255168, Note_on_c, 0, 74, 75
2, 255216, Note_on_c, 0, 74, 0
2, 255216, Note_on_c, 0, 76, 75
2, 255264, Note_on_c, 0, 76, 0
2, 255264, Note_on_c, 0, 74, 75
2, 255312, Note_on_c, 0, 74, 0
2, 255312, Note_on_c, 0, 76, 75
2, 255360, Note_on_c, 0, 76, 0
2, 255360, Note_on_c, 0, 74, 75
2, 255408, Note_on_c, 0, 74, 0
2, 255408, Note_on_c, 0, 76, 75
2, 255456, Note_on_c, 0, 76, 0
2, 255456, Note_on_c, 0, 74, 75
2, 255504, Note_on_c, 0, 74, 0
2, 255504, Note_on_c, 0, 76, 75
2, 255552, Note_on_c, 0, 76, 0
2, 255552, Note_on_c, 0, 72, 75
2, 255644, Note_on_c, 0, 72, 0
2, 255648, Note_on_c, 0, 74, 75
2, 255740, Note_on_c, 0, 74, 0
2, 255744, Note_on_c, 0, 76, 76
2, 255792, Note_on_c, 0, 76, 0
2, 255792, Note_on_c, 0, 77, 76
2, 255840, Note_on_c, 0, 77, 0
2, 255840, Note_on_c, 0, 76, 76
2, 255888, Note_on_c, 0, 76, 0
2, 255888, Note_on_c, 0, 77, 76
2, 255936, Note_on_c, 0, 77, 0
2, 255936, Note_on_c, 0, 76, 77
2, 255984, Note_on_c, 0, 76, 0
2, 255984, Note_on_c, 0, 77, 77
2, 256032, Note_on_c, 0, 77, 0
2, 256032, Note_on_c, 0, 76, 77
2, 256080, Note_on_c, 0, 76, 0
2, 256080, Note_on_c, 0, 77, 78
2, 256128, Note_on_c, 0, 77, 0
2, 256128, Note_on_c, 0, 76, 78
2, 256176, Note_on_c, 0, 76, 0
2, 256176, Note_on_c, 0, 77, 78
2, 256224, Note_on_c, 0, 77, 0
2, 256224, Note_on_c, 0, 76, 79
2, 256272, Note_on_c, 0, 76, 0
2, 256272, Note_on_c, 0, 77, 79
2, 256320, Note_on_c, 0, 77, 0
2, 256320, Note_on_c, 0, 74, 79
2, 256412, Note_on_c, 0, 74, 0
2, 256416, Note_on_c, 0, 76, 80
2, 256508, Note_on_c, 0, 76, 0
2, 256512, Note_on_c, 0, 77, 81
2, 256560, Note_on_c, 0, 77, 0
2, 256560, Note_on_c, 0, 79, 81
2, 256608, Note_on_c, 0, 79, 0
2, 256608, Note_on_c, 0, 77, 81
2, 256656, Note_on_c, 0, 77, 0
2, 256656, Note_on_c, 0, 79, 81
2, 256704, Note_on_c, 0, 79, 0
2, 256704, Note_on_c, 0, 77, 82
2, 256752, Note_on_c, 0, 77, 0
2, 256752, Note_on_c, 0, 79, 82
2, 256800, Note_on_c, 0, 79, 0
2, 256800, Note_on_c, 0, 77, 82
2, 256848, Note_on_c, 0, 77, 0
2, 256848, Note_on_c, 0, 79, 83
2, 256896, Note_on_c, 0, 79, 0
2, 256896, Note_on_c, 0, 77, 83
2, 256944, Note_on_c, 0, 77, 0
2, 256944, Note_on_c, 0, 79, 83
2, 256992, Note_on_c, 0, 79, 0
2, 256992, Note_on_c, 0, 77, 84
2, 257040, Note_on_c, 0, 77, 0
2, 257040, Note_on_c, 0, 79, 84
2, 257088, Note_on_c, 0, 79, 0
2, 257088, Note_on_c, 0, 76, 84
2, 257180, Note_on_c, 0, 76, 0
2, 257184, Note_on_c, 0, 77, 85
2, 257276, Note_on_c, 0, 77, 0
2, 257280, Note_on_c, 0, 79, 86
2, 257328, Note_on_c, 0, 79, 0
2, 257328, Note_on_c, 0, 81, 86
2, 257376, Note_on_c, 0, 81, 0
2, 257376, Note_on_c, 0, 79, 86
2, 257424, Note_on_c, 0, 79, 0
2, 257424, Note_on_c, 0, 81, 86
2, 257472, Note_on_c, 0, 81, 0
2, 257472, Note_on_c, 0, 79, 87
2, 257520, Note_on_c, 0, 79, 0
2, 257520, Note_on_c, 0, 81, 87
2, 257568, Note_on_c, 0, 81, 0
2, 257568, Note_on_c, 0, 79, 87
2, 257616, Note_on_c, 0, 79, 0
2, 257616, Note_on_c, 0, 81, 88
2, 257664, Note_on_c, 0, 81, 0
2, 257664, Note_on_c, 0, 79, 88
2, 257712, Note_on_c, 0, 79, 0
2, 257712, Note_on_c, 0, 81, 88
2, 257760, Note_on_c, 0, 81, 0
2, 257760, Note_on_c, 0, 79, 89
2, 257808, Note_on_c, 0, 79, 0
2, 257808, Note_on_c, 0, 81, 89
2, 257856, Note_on_c, 0, 81, 0
2, 257856, Note_on_c, 0, 77, 89
2, 257948, Note_on_c, 0, 77, 0
2, 257952, Note_on_c, 0, 79, 90
2, 258044, Note_on_c, 0, 79, 0
2, 258048, Note_on_c, 0, 81, 91
2, 258096, Note_on_c, 0, 81, 0
2, 258096, Note_on_c, 0, 83, 91
2, 258144, Note_on_c, 0, 83, 0
2, 258144, Note_on_c, 0, 81, 91
2, 258192, Note_on_c, 0, 81, 0
2, 258192, Note_on_c, 0, 83, 91
2, 258240, Note_on_c, 0, 83, 0
2, 258240, Note_on_c, 0, 81, 92
2, 258288, Note_on_c, 0, 81, 0
2, 258288, Note_on_c, 0, 83, 92
2, 258336, Note_on_c, 0, 83, 0
2, 258336, Note_on_c, 0, 81, 92
2, 258384, Note_on_c, 0, 81, 0
2, 258384, Note_on_c, 0, 83, 93
2, 258432, Note_on_c, 0, 83, 0
2, 258432, Note_on_c, 0, 81, 93
2, 258480, Note_on_c, 0, 81, 0
2, 258480, Note_on_c, 0, 83, 93
2, 258528, Note_on_c, 0, 83, 0
2, 258528, Note_on_c, 0, 81, 94
2, 258576, Note_on_c, 0, 81, 0
2, 258576, Note_on_c, 0, 83, 94
2, 258624, Note_on_c, 0, 83, 0
2, 258624, Note_on_c, 0, 79, 94
2, 258716, Note_on_c, 0, 79, 0
2, 258720, Note_on_c, 0, 81, 95
2, 258812, Note_on_c, 0, 81, 0
2, 258816, Note_on_c, 0, 83, 96
2, 258864, Note_on_c, 0, 83, 0
2, 258864, Note_on_c, 0, 84, 96
2, 258912, Note_on_c, 0, 84, 0
2, 258912, Note_on_c, 0, 83, 96
2, 258960, Note_on_c, 0, 83, 0
2, 258960, Note_on_c, 0, 84, 96
2, 259008, Note_on_c, 0, 84, 0
2, 259008, Note_on_c, 0, 83, 97
2, 259056, Note_on_c, 0, 83, 0
2, 259056, Note_on_c, 0, 84, 97
2, 259104, Note_on_c, 0, 84, 0
2, 259104, Note_on_c, 0, 83, 97
2, 259152, Note_on_c, 0, 83, 0
2, 259152, Note_on_c, 0, 84, 98
2, 259200, Note_on_c, 0, 84, 0
2, 259200, Note_on_c, 0, 83, 98
2, 259248, Note_on_c, 0, 83, 0
2, 259248, Note_on_c, 0, 84, 98
2, 259296, Note_on_c, 0, 84, 0
2, 259296, Note_on_c, 0, 83, 99
2, 259344, Note_on_c, 0, 83, 0
2, 259344, Note_on_c, 0, 84, 99
2, 259392, Note_on_c, 0, 84, 0
2, 259392, Note_on_c, 0, 81, 99
2, 259484, Note_on_c, 0, 81, 0
2, 259488, Note_on_c, 0, 83, 99
2, 259580, Note_on_c, 0, 83, 0
2, 259584, Note_on_c, 0, 84, 100
2, 260156, Note_on_c, 0, 84, 0
2, 269184, Note_on_c, 0, 72, 80
2, 269364, Note_on_c, 0, 72, 0
2, 269376, Note_on_c, 0, 84, 75
2, 269556, Note_on_c, 0, 84, 0
2, 269568, Note_on_c, 0, 71, 80
2, 269748, Note_on_c, 0, 71, 0
2, 269760, Note_on_c, 0, 83, 75
2, 269940, Note_on_c, 0, 83, 0
2, 269952, Note_on_c, 0, 72, 80
2, 270132, Note_on_c, 0, 72, 0
2, 270144, Note_on_c, 0, 84, 75
2, 270324, Note_on_c, 0, 84, 0
2, 270336, Note_on_c, 0, 86, 100
2, 270696, Note_on_c, 0, 86, 0
2, 270720, Note_on_c, 0, 74, 80
2, 270900, Note_on_c, 0, 74, 0
2, 270912, Note_on_c, 0, 86, 75
2, 271092, Note_on_c, 0, 86, 0
2, 271104, Note_on_c, 0, 73, 80
2, 271284, Note_on_c, 0, 73, 0
2, 271296, Note_on_c, 0, 85, 75
2, 271476, Note_on_c, 0, 85, 0
2, 271488, Note_on_c, 0, 74, 80
2, 271668, Note_on_c, 0, 74, 0
2, 271680, Note_on_c, 0, 86, 75
2, 271860, Note_on_c, 0, 86, 0
2, 271872, Note_on_c, 0, 88, 100
2, 272232, Note_on_c, 0, 88, 0
2, 272256, Note_on_c, 0, 64, 80
2, 272436, Note_on_c, 0, 64, 0
2, 272448, Note_on_c, 0, 76, 75
2, 272628, Note_on_c, 0, 76, 0
2, 272640, Note_on_c, 0, 63, 80
2, 272820, Note_on_c, 0, 63, 0
2, 272832, Note_on_c, 0, 75, 75
2, 273012, Note_on_c, 0, 75, 0
2, 273024, Note_on_c, 0, 64, 80
2, 273204, Note_on_c, 0, 64, 0
2, 273216, Note_on_c, 0, 76, 75
2, 273396, Note_on_c, 0, 76, 0
2, 273408, Note_on_c, 0, 65, 81
2, 273500, Note_on_c, 0, 65, 0
2, 273600, Note_on_c, 0, 77, 79
2, 273692, Note_on_c, 0, 77, 0
2, 273792, Note_on_c, 0, 67, 87
2, 273884, Note_on_c, 0, 67, 0
2, 273984, Note_on_c, 0, 79, 85
2, 274076, Note_on_c, 0, 79, 0
2, 274176, Note_on_c, 0, 69, 93
2, 274268, Note_on_c, 0, 69, 0
2, 274368, Note_on_c, 0, 81, 92
2, 274460, Note_on_c, 0, 81, 0
2, 274560, Note_on_c, 0, 71, 100
2, 274652, Note_on_c, 0, 71, 0
2, 274752, Note_on_c, 0, 83, 98
2, 274844, Note_on_c, 0, 83, 0
2, 274944, Note_on_c, 0, 84, 100
2, 276456, Note_on_c, 0, 84, 0
2, 276480, Note_on_c, 0, 79, 100
2, 277992, Note_on_c, 0, 79, 0
2, 278016, Note_on_c, 0, 72, 100
2, 279528, Note_on_c, 0, 72, 0
2, 279552, Note_on_c, 0, 67, 100
2, 281064, Note_on_c, 0, 67, 0
2, 281088, Note_on_c, 0, 72, 105
2, 281276, Note_on_c, 0, 72, 0
2, 281280, Note_on_c, 0, 88, 100
2, 281656, Note_on_c, 0, 88, 0
2, 281664, Note_on_c, 0, 86, 100
2, 281756, Note_on_c, 0, 86, 0
2, 281856, Note_on_c, 0, 69, 105
2, 282044, Note_on_c, 0, 69, 0
2, 282048, Note_on_c, 0, 84, 100
2, 282424, Note_on_c, 0, 84, 0
2, 282432, Note_on_c, 0, 83, 100
2, 282524, Note_on_c, 0, 83, 0
2, 282624, Note_on_c, 0, 65, 105
2, 282812, Note_on_c, 0, 65, 0
2, 282816, Note_on_c, 0, 81, 100
2, 283192, Note_on_c, 0, 81, 0
2, 283200, Note_on_c, 0, 79, 100
2, 283292, Note_on_c, 0, 79, 0
2, 283392, Note_on_c, 0, 77, 100
2, 283484, Note_on_c, 0, 77, 0
2, 283584, Note_on_c, 0, 76, 100
2, 283676, Note_on_c, 0, 76, 0
2, 283776, Note_on_c, 0, 74, 100
2, 283868, Note_on_c, 0, 74, 0
2, 283968, Note_on_c, 0, 72, 100
2, 284060, Note_on_c, 0, 72, 0
2, 284160, Note_on_c, 0, 79, 100
2, 285672, Note_on_c, 0, 79, 0
2, 285696, Note_on_c, 0, 79, 100
2, 285876, Note_on_c, 0, 79, 0
2, 285888, Note_on_c, 0, 79, 100
2, 285980, Note_on_c, 0, 79, 0
2, 286080, Note_on_c, 0, 81, 100
2, 286172, Note_on_c, 0, 81, 0
2, 286272, Note_on_c, 0, 83, 100
2, 286364, Note_on_c, 0, 83, 0
2, 286464, Note_on_c, 0, 84, 100
2, 286556, Note_on_c, 0, 84, 0
2, 286656, Note_on_c, 0, 86, 100
2, 286748, Note_on_c, 0, 86, 0
2, 286848, Note_on_c, 0, 88, 100
2, 286940, Note_on_c, 0, 88, 0
2, 287040, Note_on_c, 0, 90, 100
2, 287132, Note_on_c, 0, 90, 0
2, 287232, Note_on_c, 0, 91, 100
2, 287796, Note_on_c, 0, 91, 0
2, 290304, Note_on_c, 0, 67, 82
2, 290484, Note_on_c, 0, 67, 0
2, 290496, Note_on_c, 0, 79, 75
2, 291060, Note_on_c, 0, 79, 0
2, 291072, Note_on_c, 0, 76, 75
2, 291164, Note_on_c, 0, 76, 0
2, 291168, Note_on_c, 0, 77, 75
2, 291248, Note_on_c, 0, 77, 0
2, 291264, Note_on_c, 0, 76, 75
2, 291344, Note_on_c, 0, 76, 0
2, 291360, Note_on_c, 0, 74, 75
2, 291440, Note_on_c, 0, 74, 0
2, 291456, Note_on_c, 0, 76, 75
2, 291636, Note_on_c, 0, 76, 0
2, 291648, Note_on_c, 0, 77, 75
2, 291740, Note_on_c, 0, 77, 0
2, 291840, Note_on_c, 0, 81, 75
2, 292028, Note_on_c, 0, 81, 0
2, 292032, Note_on_c, 0, 79, 75
2, 292212, Note_on_c, 0, 79, 0
2, 292224, Note_on_c, 0, 79, 75
2, 292988, Note_on_c, 0, 79, 0
2, 292992, Note_on_c, 0, 77, 75
2, 293080, Note_on_c, 0, 77, 0
2, 293088, Note_on_c, 0, 76, 75
2, 293176, Note_on_c, 0, 76, 0
2, 293184, Note_on_c, 0, 74, 75
2, 293272, Note_on_c, 0, 74, 0
2, 293280, Note_on_c, 0, 72, 75
2, 293368, Note_on_c, 0, 72, 0
2, 293376, Note_on_c, 0, 72, 75
2, 293556, Note_on_c, 0, 72, 0
2, 293568, Note_on_c, 0, 81, 75
2, 293748, Note_on_c, 0, 81, 0
2, 293760, Note_on_c, 0, 81, 75
2, 294120, Note_on_c, 0, 81, 0
2, 294144, Note_on_c, 0, 81, 75
2, 294324, Note_on_c, 0, 81, 0
2, 294336, Note_on_c, 0, 83, 75
2, 294424, Note_on_c, 0, 83, 0
2, 294432, Note_on_c, 0, 84, 75
2, 294520, Note_on_c, 0, 84, 0
2, 294528, Note_on_c, 0, 83, 75
2, 294708, Note_on_c, 0, 83, 0
2, 294720, Note_on_c, 0, 81, 75
2, 294808, Note_on_c, 0, 81, 0
2, 294912, Note_on_c, 0, 79, 75
2, 295272, Note_on_c, 0, 79, 0
2, 295296, Note_on_c, 0, 72, 75
2, 295656, Note_on_c, 0, 72, 0
2, 295680, Note_on_c, 0, 74, 75
2, 296040, Note_on_c, 0, 74, 0
2, 296064, Note_on_c, 0, 74, 75
2, 296244, Note_on_c, 0, 74, 0
2, 296256, Note_on_c, 0, 76, 75
2, 296344, Note_on_c, 0, 76, 0
2, 296352, Note_on_c, 0, 77, 75
2, 296440, Note_on_c, 0, 77, 0
2, 296448, Note_on_c, 0, 76, 75
2, 296808, Note_on_c, 0, 76, 0
2, 297984, Note_on_c, 0, 79, 90
2, 298932, Note_on_c, 0, 79, 0
2, 298944, Note_on_c, 0, 81, 90
2, 299032, Note_on_c, 0, 81, 0
2, 299040, Note_on_c, 0, 79, 90
2, 299128, Note_on_c, 0, 79, 0
2, 299136, Note_on_c, 0, 77, 90
2, 299224, Note_on_c, 0, 77, 0
2, 299232, Note_on_c, 0, 76, 90
2, 299320, Note_on_c, 0, 76, 0
2, 299328, Note_on_c, 0, 74, 90
2, 299416, Note_on_c, 0, 74, 0
2, 299424, Note_on_c, 0, 72, 90
2, 299512, Note_on_c, 0, 72, 0
2, 299520, Note_on_c, 0, 72, 90
2, 299700, Note_on_c, 0, 72, 0
2, 299712, Note_on_c, 0, 74, 90
2, 299800, Note_on_c, 0, 74, 0
2, 299808, Note_on_c, 0, 76, 90
2, 299896, Note_on_c, 0, 76, 0
2, 299904, Note_on_c, 0, 77, 90
2, 299992, Note_on_c, 0, 77, 0
2, 300000, Note_on_c, 0, 79, 90
2, 300088, Note_on_c, 0, 79, 0
2, 300096, Note_on_c, 0, 81, 90
2, 300184, Note_on_c, 0, 81, 0
2, 300192, Note_on_c, 0, 83, 90
2, 300280, Note_on_c, 0, 83, 0
2, 300288, Note_on_c, 0, 84, 91
2, 300376, Note_on_c, 0, 84, 0
2, 300384, Note_on_c, 0, 83, 91
2, 300472, Note_on_c, 0, 83, 0
2, 300480, Note_on_c, 0, 84, 91
2, 300568, Note_on_c, 0, 84, 0
2, 300576, Note_on_c, 0, 83, 92
2, 300664, Note_on_c, 0, 83, 0
2, 300672, Note_on_c, 0, 86, 92
2, 300760, Note_on_c, 0, 86, 0
2, 300768, Note_on_c, 0, 84, 93
2, 300856, Note_on_c, 0, 84, 0
2, 300864, Note_on_c, 0, 83, 93
2, 300952, Note_on_c, 0, 83, 0
2, 300960, Note_on_c, 0, 81, 93
2, 301048, Note_on_c, 0, 81, 0
2, 301056, Note_on_c, 0, 79, 94
2, 301416, Note_on_c, 0, 79, 0
2, 301440, Note_on_c, 0, 84, 96
2, 301800, Note_on_c, 0, 84, 0
2, 301824, Note_on_c, 0, 86, 97
2, 302388, Note_on_c, 0, 86, 0
2, 302400, Note_on_c, 0, 88, 100
2, 302488, Note_on_c, 0, 88, 0
2, 302496, Note_on_c, 0, 89, 100
2, 302584, Note_on_c, 0, 89, 0
2, 302592, Note_on_c, 0, 88, 100
2, 302680, Note_on_c, 0, 88, 0
2, 302688, Note_on_c, 0, 84, 100
2, 302776, Note_on_c, 0, 84, 0
2, 302784, Note_on_c, 0, 79, 100
2, 302832, Note_on_c, 0, 79, 0
2, 302880, Note_on_c, 0, 76, 100
2, 302928, Note_on_c, 0, 76, 0
2, 302976, Note_on_c, 0, 72, 100
2, 303024, Note_on_c, 0, 72, 0
2, 303072, Note_on_c, 0, 76, 100
2, 303120, Note_on_c, 0, 76, 0
2, 303168, Note_on_c, 0, 79, 100
2, 303216, Note_on_c, 0, 79, 0
2, 303264, Note_on_c, 0, 84, 100
2, 303312, Note_on_c, 0, 84, 0
2, 303360, Note_on_c, 0, 88, 100
2, 303452, Note_on_c, 0, 88, 0
2, 303552, Note_on_c, 0, 72, 100
2, 303644, Note_on_c, 0, 72, 0
2, 303744, Note_on_c, 0, 71, 100
2, 303836, Note_on_c, 0, 71, 0
2, 303936, Note_on_c, 0, 86, 100
2, 304028, Note_on_c, 0, 86, 0
2, 304128, Note_on_c, 0, 84, 100
2, 304216, Note_on_c, 0, 84, 0
2, 304224, Note_on_c, 0, 81, 100
2, 304312, Note_on_c, 0, 81, 0
2, 304320, Note_on_c, 0, 76, 100
2, 304368, Note_on_c, 0, 76, 0
2, 304416, Note_on_c, 0, 72, 100
2, 304464, Note_on_c, 0, 72, 0
2, 304512, Note_on_c, 0, 69, 100
2, 304560, Note_on_c, 0, 69, 0
2, 304608, Note_on_c, 0, 72, 100
2, 304656, Note_on_c, 0, 72, 0
2, 304704, Note_on_c, 0, 76, 100
2, 304752, Note_on_c, 0, 76, 0
2, 304800, Note_on_c, 0, 81, 100
2, 304848, Note_on_c, 0, 81, 0
2, 304896, Note_on_c, 0, 84, 100
2, 304988, Note_on_c, 0, 84, 0
2, 305088, Note_on_c, 0, 69, 100
2, 305180, Note_on_c, 0, 69, 0
2, 305280, Note_on_c, 0, 67, 100
2, 305372, Note_on_c, 0, 67, 0
2, 305472, Note_on_c, 0, 82, 100
2, 305564, Note_on_c, 0, 82, 0
2, 305664, Note_on_c, 0, 81, 100
2, 305752, Note_on_c, 0, 81, 0
2, 305760, Note_on_c, 0, 77, 100
2, 305848, Note_on_c, 0, 77, 0
2, 305856, Note_on_c, 0, 72, 100
2, 305904, Note_on_c, 0, 72, 0
2, 305952, Note_on_c, 0, 69, 100
2, 306000, Note_on_c, 0, 69, 0
2, 306048, Note_on_c, 0, 65, 100
2, 306096, Note_on_c, 0, 65, 0
2, 306144, Note_on_c, 0, 69, 100
2, 306192, Note_on_c, 0, 69, 0
2, 306240, Note_on_c, 0, 72, 100
2, 306288, Note_on_c, 0, 72, 0
2, 306336, Note_on_c, 0, 77, 100
2, 306384, Note_on_c, 0, 77, 0
2, 306432, Note_on_c, 0, 81, 100
2, 306524, Note_on_c, 0, 81, 0
2, 306624, Note_on_c, 0, 65, 100
2, 306716, Note_on_c, 0, 65, 0
2, 306816, Note_on_c, 0, 64, 100
2, 306908, Note_on_c, 0, 64, 0
2, 307008, Note_on_c, 0, 79, 100
2, 307100, Note_on_c, 0, 79, 0
2, 307200, Note_on_c, 0, 79, 100
2, 307288, Note_on_c, 0, 79, 0
2, 307296, Note_on_c, 0, 77, 100
2, 307384, Note_on_c, 0, 77, 0
2, 307392, Note_on_c, 0, 76, 100
2, 307480, Note_on_c, 0, 76, 0
2, 307488, Note_on_c, 0, 77, 100
2, 307576, Note_on_c, 0, 77, 0
2, 307584, Note_on_c, 0, 77, 100
2, 307672, Note_on_c, 0, 77, 0
2, 307680, Note_on_c, 0, 76, 100
2, 307768, Note_on_c, 0, 76, 0
2, 307776, Note_on_c, 0, 74, 100
2, 307864, Note_on_c, 0, 74, 0
2, 307872, Note_on_c, 0, 76, 100
2, 307960, Note_on_c, 0, 76, 0
2, 307968, Note_on_c, 0, 76, 100
2, 308056, Note_on_c, 0, 76, 0
2, 308064, Note_on_c, 0, 74, 100
2, 308152, Note_on_c, 0, 74, 0
2, 308160, Note_on_c, 0, 73, 100
2, 308248, Note_on_c, 0, 73, 0
2, 308256, Note_on_c, 0, 74, 100
2, 308344, Note_on_c, 0, 74, 0
2, 308352, Note_on_c, 0, 74, 100
2, 308440, Note_on_c, 0, 74, 0
2, 308448, Note_on_c, 0, 72, 100
2, 308536, Note_on_c, 0, 72, 0
2, 308544, Note_on_c, 0, 71, 100
2, 308632, Note_on_c, 0, 71, 0
2, 308640, Note_on_c, 0, 72, 100
2, 308728, Note_on_c, 0, 72, 0
2, 308736, Note_on_c, 0, 71, 100
2, 309096, Note_on_c, 0, 71, 0
2, 311616, Note_on_c, 0, 67, 100
2, 311796, Note_on_c, 0, 67, 0
2, 311808, Note_on_c, 0, 88, 100
2, 312168, Note_on_c, 0, 88, 0
2, 312192, Note_on_c, 0, 84, 100
2, 312372, Note_on_c, 0, 84, 0
2, 312576, Note_on_c, 0, 84, 100
2, 312936, Note_on_c, 0, 84, 0
2, 312960, Note_on_c, 0, 79, 100
2, 313140, Note_on_c, 0, 79, 0
2, 313344, Note_on_c, 0, 79, 100
2, 313704, Note_on_c, 0, 79, 0
2, 313728, Note_on_c, 0, 76, 100
2, 313908, Note_on_c, 0, 76, 0
2, 314112, Note_on_c, 0, 76, 100
2, 314472, Note_on_c, 0, 76, 0
2, 314496, Note_on_c, 0, 72, 100
2, 314676, Note_on_c, 0, 72, 0
2, 314880, Note_on_c, 0, 67, 100
2, 315240, Note_on_c, 0, 67, 0
2, 316416, Note_on_c, 0, 67, 100
2, 316604, Note_on_c, 0, 67, 0
2, 316608, Note_on_c, 0, 69, 100
2, 316656, Note_on_c, 0, 69, 0
2, 316704, Note_on_c, 0, 71, 100
2, 316752, Note_on_c, 0, 71, 0
2, 316800, Note_on_c, 0, 72, 100
2, 316848, Note_on_c, 0, 72, 0
2, 316896, Note_on_c, 0, 74, 100
2, 316944, Note_on_c, 0, 74, 0
2, 316992, Note_on_c, 0, 76, 100
2, 317040, Note_on_c, 0, 76, 0
2, 317088, Note_on_c, 0, 77, 100
2, 317136, Note_on_c, 0, 77, 0
2, 317184, Note_on_c, 0, 79, 100
2, 317232, Note_on_c, 0, 79, 0
2, 317280, Note_on_c, 0, 81, 100
2, 317328, Note_on_c, 0, 81, 0
2, 317376, Note_on_c, 0, 83, 100
2, 317424, Note_on_c, 0, 83, 0
2, 317472, Note_on_c, 0, 84, 100
2, 317520, Note_on_c, 0, 84, 0
2, 317568, Note_on_c, 0, 86, 100
2, 317660, Note_on_c, 0, 86, 0
2, 317760, Note_on_c, 0, 86, 100
2, 317852, Note_on_c, 0, 86, 0
2, 317952, Note_on_c, 0, 88, 100
2, 318312, Note_on_c, 0, 88, 0
2, 318336, Note_on_c, 0, 84, 100
2, 318516, Note_on_c, 0, 84, 0
2, 318720, Note_on_c, 0, 84, 100
2, 318900, Note_on_c, 0, 84, 0
2, 319104, Note_on_c, 0, 79, 100
2, 319284, Note_on_c, 0, 79, 0
2, 319488, Note_on_c, 0, 79, 100
2, 319848, Note_on_c, 0, 79, 0
2, 319872, Note_on_c, 0, 76, 100
2, 320052, Note_on_c, 0, 76, 0
2, 320256, Note_on_c, 0, 76, 100
2, 320616, Note_on_c, 0, 76, 0
2, 320640, Note_on_c, 0, 72, 100
2, 320820, Note_on_c, 0, 72, 0
2, 321024, Note_on_c, 0, 79, 100
2, 321404, Note_on_c, 0, 79, 0
2, 325632, Note_on_c, 0, 84, 75
2, 327144, Note_on_c, 0, 84, 0
2, 327168, Note_on_c, 0, 79, 75
2, 328680, Note_on_c, 0, 79, 0
2, 328704, Note_on_c, 0, 72, 75
2, 329064, Note_on_c, 0, 72, 0
2, 329472, Note_on_c, 0, 79, 75
2, 329564, Note_on_c, 0, 79, 0
2, 329664, Note_on_c, 0, 81, 75
2, 329756, Note_on_c, 0, 81, 0
2, 329856, Note_on_c, 0, 83, 75
2, 329948, Note_on_c, 0, 83, 0
2, 330048, Note_on_c, 0, 84, 75
2, 330140, Note_on_c, 0, 84, 0
2, 330240, Note_on_c, 0, 84, 75
2, 330420, Note_on_c, 0, 84, 0
2, 330432, Note_on_c, 0, 83, 75
2, 330612, Note_on_c, 0, 83, 0
2, 330624, Note_on_c, 0, 81, 75
2, 330804, Note_on_c, 0, 81, 0
2, 330816, Note_on_c, 0, 79, 75
2, 330996, Note_on_c, 0, 79, 0
2, 331008, Note_on_c, 0, 79, 75
2, 331096, Note_on_c, 0, 79, 0
2, 331104, Note_on_c, 0, 77, 75
2, 331192, Note_on_c, 0, 77, 0
2, 331200, Note_on_c, 0, 76, 75
2, 331288, Note_on_c, 0, 76, 0
2, 331296, Note_on_c, 0, 77, 75
2, 331384, Note_on_c, 0, 77, 0
2, 331392, Note_on_c, 0, 81, 75
2, 331572, Note_on_c, 0, 81, 0
2, 331584, Note_on_c, 0, 77, 75
2, 331764, Note_on_c, 0, 77, 0
2, 331776, Note_on_c, 0, 75, 75
2, 331956, Note_on_c, 0, 75, 0
2, 331968, Note_on_c, 0, 76, 75
2, 332148, Note_on_c, 0, 76, 0
2, 332352, Note_on_c, 0, 76, 75
2, 332440, Note_on_c, 0, 76, 0
2, 332448, Note_on_c, 0, 77, 75
2, 332536, Note_on_c, 0, 77, 0
2, 332544, Note_on_c, 0, 79, 75
2, 332636, Note_on_c, 0, 79, 0
2, 332736, Note_on_c, 0, 81, 75
2, 332828, Note_on_c, 0, 81, 0
2, 332928, Note_on_c, 0, 83, 75
2, 333020, Note_on_c, 0, 83, 0
2, 333120, Note_on_c, 0, 84, 75
2, 333212, Note_on_c, 0, 84, 0
2, 333312, Note_on_c, 0, 84, 75
2, 333492, Note_on_c, 0, 84, 0
2, 333504, Note_on_c, 0, 83, 75
2, 333684, Note_on_c, 0, 83, 0
2, 333696, Note_on_c, 0, 81, 75
2, 333876, Note_on_c, 0, 81, 0
2, 333888, Note_on_c, 0, 79, 75
2, 334068, Note_on_c, 0, 79, 0
2, 334080, Note_on_c, 0, 79, 75
2, 334168, Note_on_c, 0, 79, 0
2, 334176, Note_on_c, 0, 77, 75
2, 334264, Note_on_c, 0, 77, 0
2, 334272, Note_on_c, 0, 76, 75
2, 334360, Note_on_c, 0, 76, 0
2, 334368, Note_on_c, 0, 77, 75
2, 334456, Note_on_c, 0, 77, 0
2, 334464, Note_on_c, 0, 81, 75
2, 334644, Note_on_c, 0, 81, 0
2, 334656, Note_on_c, 0, 77, 75
2, 334836, Note_on_c, 0, 77, 0
2, 334848, Note_on_c, 0, 76, 76
2, 335028, Note_on_c, 0, 76, 0
2, 335040, Note_on_c, 0, 84, 77
2, 335400, Note_on_c, 0, 84, 0
2, 335424, Note_on_c, 0, 82, 79
2, 335604, Note_on_c, 0, 82, 0
2, 335616, Note_on_c, 0, 82, 80
2, 335796, Note_on_c, 0, 82, 0
2, 335808, Note_on_c, 0, 81, 81
2, 336168, Note_on_c, 0, 81, 0
2, 336192, Note_on_c, 0, 79, 83
2, 336372, Note_on_c, 0, 79, 0
2, 336384, Note_on_c, 0, 79, 84
2, 336564, Note_on_c, 0, 79, 0
2, 336576, Note_on_c, 0, 77, 85
2, 336936, Note_on_c, 0, 77, 0
2, 336960, Note_on_c, 0, 84, 87
2, 337140, Note_on_c, 0, 84, 0
2, 337152, Note_on_c, 0, 84, 88
2, 337332, Note_on_c, 0, 84, 0
2, 337344, Note_on_c, 0, 82, 89
2, 337704, Note_on_c, 0, 82, 0
2, 337728, Note_on_c, 0, 81, 91
2, 337908, Note_on_c, 0, 81, 0
2, 337920, Note_on_c, 0, 81, 92
2, 338100, Note_on_c, 0, 81, 0
2, 338112, Note_on_c, 0, 79, 93
2, 338472, Note_on_c, 0, 79, 0
2, 338496, Note_on_c, 0, 84, 95
2, 338676, Note_on_c, 0, 84, 0
2, 338688, Note_on_c, 0, 84, 96
2, 338868, Note_on_c, 0, 84, 0
2, 338880, Note_on_c, 0, 82, 97
2, 339240, Note_on_c, 0, 82, 0
2, 339264, Note_on_c, 0, 80, 99
2, 339444, Note_on_c, 0, 80, 0
2, 339456, Note_on_c, 0, 81, 100
2, 339496, Note_on_c, 0, 81, 0
2, 339504, Note_on_c, 0, 83, 100
2, 339544, Note_on_c, 0, 83, 0
2, 339552, Note_on_c, 0, 84, 100
2, 339832, Note_on_c, 0, 84, 0
2, 339840, Note_on_c, 0, 84, 100
2, 339932, Note_on_c, 0, 84, 0
2, 340032, Note_on_c, 0, 84, 100
2, 340124, Note_on_c, 0, 84, 0
2, 340224, Note_on_c, 0, 84, 100
2, 340584, Note_on_c, 0, 84, 0
2, 340992, Note_on_c, 0, 81, 100
2, 341032, Note_on_c, 0, 81, 0
2, 341040, Note_on_c, 0, 83, 100
2, 341080, Note_on_c, 0, 83, 0
2, 341088, Note_on_c, 0, 84, 100
2, 341368, Note_on_c, 0, 84, 0
2, 341376, Note_on_c, 0, 84, 100
2, 341468, Note_on_c, 0, 84, 0
2, 341568, Note_on_c, 0, 84, 100
2, 341660, Note_on_c, 0, 84, 0
2, 341760, Note_on_c, 0, 84, 100
2, 342120, Note_on_c, 0, 84, 0
2, 342528, Note_on_c, 0, 74, 100
2, 342908, Note_on_c, 0, 74, 0
2, 343296, Note_on_c, 0, 89, 100
2, 343676, Note_on_c, 0, 89, 0
2, 344064, Note_on_c, 0, 72, 100
2, 344444, Note_on_c, 0, 72, 0
2, 344832, Note_on_c, 0, 88, 100
2, 345212, Note_on_c, 0, 88, 0
2, 345600, Note_on_c, 0, 74, 100
2, 345692, Note_on_c, 0, 74, 0
2, 345792, Note_on_c, 0, 79, 100
2, 345832, Note_on_c, 0, 79, 0
2, 345840, Note_on_c, 0, 77, 100
2, 345880, Note_on_c, 0, 77, 0
2, 345888, Note_on_c, 0, 76, 100
2, 345980, Note_on_c, 0, 76, 0
2, 345984, Note_on_c, 0, 77, 100
2, 346076, Note_on_c, 0, 77, 0
2, 346176, Note_on_c, 0, 81, 100
2, 346268, Note_on_c, 0, 81, 0
2, 346368, Note_on_c, 0, 79, 100
2, 346460, Note_on_c, 0, 79, 0
2, 346560, Note_on_c, 0, 77, 100
2, 346652, Note_on_c, 0, 77, 0
2, 346752, Note_on_c, 0, 76, 100
2, 346844, Note_on_c, 0, 76, 0
2, 346944, Note_on_c, 0, 74, 100
2, 347036, Note_on_c, 0, 74, 0
2, 347136, Note_on_c, 0, 72, 100
2, 347228, Note_on_c, 0, 72, 0
2, 347328, Note_on_c, 0, 74, 100
2, 347420, Note_on_c, 0, 74, 0
2, 347520, Note_on_c, 0, 76, 100
2, 347612, Note_on_c, 0, 76, 0
2, 347712, Note_on_c, 0, 77, 100
2, 347804, Note_on_c, 0, 77, 0
2, 347904, Note_on_c, 0, 79, 100
2, 348284, Note_on_c, 0, 79, 0
2, 348672, Note_on_c, 0, 74, 90
2, 348764, Note_on_c, 0, 74, 0
2, 348864, Note_on_c, 0, 86, 90
2, 348912, Note_on_c, 0, 86, 0
2, 348960, Note_on_c, 0, 88, 90
2, 349008, Note_on_c, 0, 88, 0
2, 349052, Note_on_c, 0, 89, 90
2, 349100, Note_on_c, 0, 89, 0
2, 349152, Note_on_c, 0, 88, 90
2, 349200, Note_on_c, 0, 88, 0
2, 349248, Note_on_c, 0, 86, 90
2, 349296, Note_on_c, 0, 86, 0
2, 349344, Note_on_c, 0, 84, 90
2, 349392, Note_on_c, 0, 84, 0
2, 349440, Note_on_c, 0, 83, 90
2, 349532, Note_on_c, 0, 83, 0
2, 349536, Note_on_c, 0, 84, 90
2, 349628, Note_on_c, 0, 84, 0
2, 349632, Note_on_c, 0, 86, 90
2, 349680, Note_on_c, 0, 86, 0
2, 349728, Note_on_c, 0, 84, 90
2, 349776, Note_on_c, 0, 84, 0
2, 349824, Note_on_c, 0, 83, 90
2, 349872, Note_on_c, 0, 83, 0
2, 349920, Note_on_c, 0, 81, 90
2, 349968, Note_on_c, 0, 81, 0
2, 350016, Note_on_c, 0, 79, 90
2, 350064, Note_on_c, 0, 79, 0
2, 350112, Note_on_c, 0, 77, 90
2, 350160, Note_on_c, 0, 77, 0
2, 350208, Note_on_c, 0, 76, 90
2, 350300, Note_on_c, 0, 76, 0
2, 350400, Note_on_c, 0, 88, 90
2, 350448, Note_on_c, 0, 88, 0
2, 350496, Note_on_c, 0, 87, 90
2, 350544, Note_on_c, 0, 87, 0
2, 350592, Note_on_c, 0, 88, 90
2, 350640, Note_on_c, 0, 88, 0
2, 350688, Note_on_c, 0, 86, 90
2, 350736, Note_on_c, 0, 86, 0
2, 350784, Note_on_c, 0, 84, 90
2, 350832, Note_on_c, 0, 84, 0
2, 350880, Note_on_c, 0, 83, 90
2, 350928, Note_on_c, 0, 83, 0
2, 350976, Note_on_c, 0, 81, 90
2, 351068, Note_on_c, 0, 81, 0
2, 351072, Note_on_c, 0, 83, 90
2, 351164, Note_on_c, 0, 83, 0
2, 351168, Note_on_c, 0, 84, 90
2, 351216, Note_on_c, 0, 84, 0
2, 351264, Note_on_c, 0, 83, 90
2, 351312, Note_on_c, 0, 83, 0
2, 351360, Note_on_c, 0, 81, 90
2, 351408, Note_on_c, 0, 81, 0
2, 351456, Note_on_c, 0, 79, 90
2, 351504, Note_on_c, 0, 79, 0
2, 351552, Note_on_c, 0, 77, 90
2, 351600, Note_on_c, 0, 77, 0
2, 351648, Note_on_c, 0, 76, 90
2, 351696, Note_on_c, 0, 76, 0
2, 351744, Note_on_c, 0, 74, 90
2, 352124, Note_on_c, 0, 74, 0
2, 352320, Note_on_c, 0, 89, 90
2, 352500, Note_on_c, 0, 89, 0
2, 352512, Note_on_c, 0, 88, 90
2, 352604, Note_on_c, 0, 88, 0
2, 352704, Note_on_c, 0, 86, 90
2, 352796, Note_on_c, 0, 86, 0
2, 352896, Note_on_c, 0, 84, 90
2, 352988, Note_on_c, 0, 84, 0
2, 353088, Note_on_c, 0, 83, 90
2, 353180, Note_on_c, 0, 83, 0
2, 353280, Note_on_c, 0, 84, 90
2, 353660, Note_on_c, 0, 84, 0
2, 354048, Note_on_c, 0, 77, 75
2, 354136, Note_on_c, 0, 77, 0
2, 354144, Note_on_c, 0, 76, 75
2, 354232, Note_on_c, 0, 76, 0
2, 354240, Note_on_c, 0, 74, 75
2, 354328, Note_on_c, 0, 74, 0
2, 354336, Note_on_c, 0, 76, 75
2, 354424, Note_on_c, 0, 76, 0
2, 354432, Note_on_c, 0, 79, 75
2, 354520, Note_on_c, 0, 79, 0
2, 354528, Note_on_c, 0, 77, 75
2, 354616, Note_on_c, 0, 77, 0
2, 354624, Note_on_c, 0, 76, 75
2, 354712, Note_on_c, 0, 76, 0
2, 354720, Note_on_c, 0, 77, 75
2, 354808, Note_on_c, 0, 77, 0
2, 354816, Note_on_c, 0, 79, 75
2, 354996, Note_on_c, 0, 79, 0
2, 355008, Note_on_c, 0, 84, 75
2, 355188, Note_on_c, 0, 84, 0
2, 355200, Note_on_c, 0, 79, 75
2, 355292, Note_on_c, 0, 79, 0
2, 355392, Note_on_c, 0, 79, 75
2, 355484, Note_on_c, 0, 79, 0
2, 355584, Note_on_c, 0, 77, 76
2, 355672, Note_on_c, 0, 77, 0
2, 355680, Note_on_c, 0, 76, 77
2, 355768, Note_on_c, 0, 76, 0
2, 355776, Note_on_c, 0, 74, 78
2, 355864, Note_on_c, 0, 74, 0
2, 355872, Note_on_c, 0, 76, 79
2, 355960, Note_on_c, 0, 76, 0
2, 355968, Note_on_c, 0, 79, 80
2, 356056, Note_on_c, 0, 79, 0
2, 356064, Note_on_c, 0, 77, 81
2, 356152, Note_on_c, 0, 77, 0
2, 356160, Note_on_c, 0, 76, 82
2, 356248, Note_on_c, 0, 76, 0
2, 356256, Note_on_c, 0, 77, 83
2, 356344, Note_on_c, 0, 77, 0
2, 356352, Note_on_c, 0, 79, 84
2, 356532, Note_on_c, 0, 79, 0
2, 356544, Note_on_c, 0, 84, 86
2, 356724, Note_on_c, 0, 84, 0
2, 356736, Note_on_c, 0, 79, 88
2, 356828, Note_on_c, 0, 79, 0
2, 356928, Note_on_c, 0, 79, 90
2, 357020, Note_on_c, 0, 79, 0
2, 357120, Note_on_c, 0, 77, 92
2, 357208, Note_on_c, 0, 77, 0
2, 357216, Note_on_c, 0, 76, 93
2, 357304, Note_on_c, 0, 76, 0
2, 357312, Note_on_c, 0, 74, 94
2, 357400, Note_on_c, 0, 74, 0
2, 357408, Note_on_c, 0, 76, 95
2, 357496, Note_on_c, 0, 76, 0
2, 357504, Note_on_c, 0, 79, 96
2, 357592, Note_on_c, 0, 79, 0
2, 357600, Note_on_c, 0, 77, 97
2, 357688, Note_on_c, 0, 77, 0
2, 357696, Note_on_c, 0, 76, 98
2, 357784, Note_on_c, 0, 76, 0
2, 357792, Note_on_c, 0, 77, 99
2, 357880, Note_on_c, 0, 77, 0
2, 357888, Note_on_c, 0, 79, 100
2, 357980, Note_on_c, 0, 79, 0
2, 358080, Note_on_c, 0, 79, 100
2, 358168, Note_on_c, 0, 79, 0
2, 358176, Note_on_c, 0, 81, 100
2, 358264, Note_on_c, 0, 81, 0
2, 358272, Note_on_c, 0, 77, 100
2, 358364, Note_on_c, 0, 77, 0
2, 358464, Note_on_c, 0, 77, 100
2, 358552, Note_on_c, 0, 77, 0
2, 358560, Note_on_c, 0, 79, 100
2, 358648, Note_on_c, 0, 79, 0
2, 358656, Note_on_c, 0, 76, 100
2, 358748, Note_on_c, 0, 76, 0
2, 358848, Note_on_c, 0, 76, 100
2, 358936, Note_on_c, 0, 76, 0
2, 358944, Note_on_c, 0, 77, 100
2, 359032, Note_on_c, 0, 77, 0
2, 359040, Note_on_c, 0, 74, 100
2, 359132, Note_on_c, 0, 74, 0
2, 359232, Note_on_c, 0, 74, 100
2, 359320, Note_on_c, 0, 74, 0
2, 359328, Note_on_c, 0, 76, 100
2, 359416, Note_on_c, 0, 76, 0
2, 359424, Note_on_c, 0, 72, 100
2, 359512, Note_on_c, 0, 72, 0
2, 359520, Note_on_c, 0, 67, 100
2, 359608, Note_on_c, 0, 67, 0
2, 359616, Note_on_c, 0, 69, 100
2, 359664, Note_on_c, 0, 69, 0
2, 359712, Note_on_c, 0, 71, 100
2, 359760, Note_on_c, 0, 71, 0
2, 359808, Note_on_c, 0, 72, 100
2, 359856, Note_on_c, 0, 72, 0
2, 359904, Note_on_c, 0, 74, 100
2, 359952, Note_on_c, 0, 74, 0
2, 360000, Note_on_c, 0, 76, 100
2, 360048, Note_on_c, 0, 76, 0
2, 360096, Note_on_c, 0, 77, 100
2, 360144, Note_on_c, 0, 77, 0
2, 360192, Note_on_c, 0, 79, 90
2, 364028, Note_on_c, 0, 79, 0
2, 364032, Note_on_c, 0, 91, 80
2, 364352, Note_on_c, 0, 91, 0
2, 364416, Note_on_c, 0, 89, 85
2, 364736, Note_on_c, 0, 89, 0
2, 364800, Note_on_c, 0, 88, 90
2, 365120, Note_on_c, 0, 88, 0
2, 365184, Note_on_c, 0, 86, 95
2, 365504, Note_on_c, 0, 86, 0
2, 365568, Note_on_c, 0, 84, 100
2, 365888, Note_on_c, 0, 84, 0
2, 365952, Note_on_c, 0, 64, 103
2, 366272, Note_on_c, 0, 64, 0
2, 366336, Note_on_c, 0, 65, 103
2, 366656, Note_on_c, 0, 65, 0
2, 366720, Note_on_c, 0, 81, 90
2, 367040, Note_on_c, 0, 81, 0
2, 367104, Note_on_c, 0, 79, 90
2, 367192, Note_on_c, 0, 79, 0
2, 367296, Note_on_c, 0, 76, 90
2, 367636, Note_on_c, 0, 76, 0
2, 367680, Note_on_c, 0, 72, 90
2, 367856, Note_on_c, 0, 72, 0
2, 367872, Note_on_c, 0, 77, 90
2, 367960, Note_on_c, 0, 77, 0
2, 368064, Note_on_c, 0, 74, 90
2, 368404, Note_on_c, 0, 74, 0
2, 368448, Note_on_c, 0, 71, 90
2, 368624, Note_on_c, 0, 71, 0
2, 368640, Note_on_c, 0, 84, 100
2, 368728, Note_on_c, 0, 84, 0
2, 368736, Note_on_c, 0, 83, 100
2, 368824, Note_on_c, 0, 83, 0
2, 368832, Note_on_c, 0, 81, 100
2, 368920, Note_on_c, 0, 81, 0
2, 368928, Note_on_c, 0, 79, 100
2, 369016, Note_on_c, 0, 79, 0
2, 369024, Note_on_c, 0, 77, 100
2, 369112, Note_on_c, 0, 77, 0
2, 369120, Note_on_c, 0, 76, 100
2, 369208, Note_on_c, 0, 76, 0
2, 369216, Note_on_c, 0, 74, 100
2, 369304, Note_on_c, 0, 74, 0
2, 369312, Note_on_c, 0, 72, 100
2, 369400, Note_on_c, 0, 72, 0
2, 369408, Note_on_c, 0, 81, 100
2, 369496, Note_on_c, 0, 81, 0
2, 369504, Note_on_c, 0, 79, 100
2, 369592, Note_on_c, 0, 79, 0
2, 369600, Note_on_c, 0, 77, 100
2, 369688, Note_on_c, 0, 77, 0
2, 369696, Note_on_c, 0, 76, 100
2, 369784, Note_on_c, 0, 76, 0
2, 369792, Note_on_c, 0, 74, 100
2, 369880, Note_on_c, 0, 74, 0
2, 369888, Note_on_c, 0, 72, 100
2, 369976, Note_on_c, 0, 72, 0
2, 369984, Note_on_c, 0, 71, 100
2, 370072, Note_on_c, 0, 71, 0
2, 370080, Note_on_c, 0, 69, 100
2, 370168, Note_on_c, 0, 69, 0
2, 370176, Note_on_c, 0, 67, 100
2, 370740, Note_on_c, 0, 67, 0
2, 370752, Note_on_c, 0, 69, 100
2, 370840, Note_on_c, 0, 69, 0
2, 370848, Note_on_c, 0, 71, 100
2, 370936, Note_on_c, 0, 71, 0
2, 370944, Note_on_c, 0, 72, 100
2, 371032, Note_on_c, 0, 72, 0
2, 371040, Note_on_c, 0, 74, 100
2, 371128, Note_on_c, 0, 74, 0
2, 371136, Note_on_c, 0, 76, 100
2, 371224, Note_on_c, 0, 76, 0
2, 371232, Note_on_c, 0, 77, 100
2, 371320, Note_on_c, 0, 77, 0
2, 371328, Note_on_c, 0, 79, 100
2, 371420, Note_on_c, 0, 79, 0
2, 371424, Note_on_c, 0, 81, 100
2, 371516, Note_on_c, 0, 81, 0
2, 371520, Note_on_c, 0, 83, 100
2, 371612, Note_on_c, 0, 83, 0
2, 371616, Note_on_c, 0, 84, 100
2, 371708, Note_on_c, 0, 84, 0
2, 371712, Note_on_c, 0, 86, 100
2, 371760, Note_on_c, 0, 86, 0
2, 371760, Note_on_c, 0, 88, 100
2, 371808, Note_on_c, 0, 88, 0
2, 371808, Note_on_c, 0, 86, 100
2, 371856, Note_on_c, 0, 86, 0
2, 371856, Note_on_c, 0, 88, 100
2, 371904, Note_on_c, 0, 88, 0
2, 371904, Note_on_c, 0, 86, 100
2, 371952, Note_on_c, 0, 86, 0
2, 371952, Note_on_c, 0, 88, 100
2, 372000, Note_on_c, 0, 88, 0
2, 372000, Note_on_c, 0, 86, 100
2, 372048, Note_on_c, 0, 86, 0
2, 372048, Note_on_c, 0, 88, 100
2, 372096, Note_on_c, 0, 88, 0
2, 372096, Note_on_c, 0, 86, 100
2, 372144, Note_on_c, 0, 86, 0
2, 372144, Note_on_c, 0, 88, 100
2, 372192, Note_on_c, 0, 88, 0
2, 372192, Note_on_c, 0, 86, 100
2, 372240, Note_on_c, 0, 86, 0
2, 372240, Note_on_c, 0, 88, 100
2, 372288, Note_on_c, 0, 88, 0
2, 372288, Note_on_c, 0, 86, 100
2, 372336, Note_on_c, 0, 86, 0
2, 372336, Note_on_c, 0, 88, 100
2, 372384, Note_on_c, 0, 88, 0
2, 372384, Note_on_c, 0, 86, 100
2, 372432, Note_on_c, 0, 86, 0
2, 372432, Note_on_c, 0, 88, 100
2, 372480, Note_on_c, 0, 88, 0
2, 372480, Note_on_c, 0, 86, 100
2, 372528, Note_on_c, 0, 86, 0
2, 372528, Note_on_c, 0, 88, 100
2, 372576, Note_on_c, 0, 88, 0
2, 372576, Note_on_c, 0, 86, 100
2, 372624, Note_on_c, 0, 86, 0
2, 372624, Note_on_c, 0, 88, 100
2, 372672, Note_on_c, 0, 88, 0
2, 372672, Note_on_c, 0, 86, 100
2, 372720, Note_on_c, 0, 86, 0
2, 372720, Note_on_c, 0, 88, 100
2, 372768, Note_on_c, 0, 88, 0
2, 372768, Note_on_c, 0, 86, 100
2, 372816, Note_on_c, 0, 86, 0
2, 372816, Note_on_c, 0, 88, 100
2, 372864, Note_on_c, 0, 88, 0
2, 372864, Note_on_c, 0, 86, 100
2, 372912, Note_on_c, 0, 86, 0
2, 372912, Note_on_c, 0, 88, 100
2, 372960, Note_on_c, 0, 88, 0
2, 372960, Note_on_c, 0, 86, 100
2, 373008, Note_on_c, 0, 86, 0
2, 373008, Note_on_c, 0, 88, 100
2, 373056, Note_on_c, 0, 88, 0
2, 373056, Note_on_c, 0, 84, 100
2, 373148, Note_on_c, 0, 84, 0
2, 373152, Note_on_c, 0, 86, 100
2, 373244, Note_on_c, 0, 86, 0
2, 373248, Note_on_c, 0, 84, 100
2, 373820, Note_on_c, 0, 84, 0
2, 384000, Note_on_c, 0, 84, 95
2, 384572, Note_on_c, 0, 84, 0
2, 384576, Note_on_c, 0, 81, 95
2, 384764, Note_on_c, 0, 81, 0
2, 384768, Note_on_c, 0, 83, 95
2, 384816, Note_on_c, 0, 83, 0
2, 384816, Note_on_c, 0, 84, 95
2, 384864, Note_on_c, 0, 84, 0
2, 384864, Note_on_c, 0, 83, 95
2, 384912, Note_on_c, 0, 83, 0
2, 384912, Note_on_c, 0, 84, 95
2, 384960, Note_on_c, 0, 84, 0
2, 384960, Note_on_c, 0, 83, 95
2, 385008, Note_on_c, 0, 83, 0
2, 385008, Note_on_c, 0, 84, 95
2, 385056, Note_on_c, 0, 84, 0
2, 385056, Note_on_c, 0, 83, 95
2, 385104, Note_on_c, 0, 83, 0
2, 385104, Note_on_c, 0, 84, 95
2, 385152, Note_on_c, 0, 84, 0
2, 385152, Note_on_c, 0, 83, 95
2, 385200, Note_on_c, 0, 83, 0
2, 385200, Note_on_c, 0, 84, 95
2, 385248, Note_on_c, 0, 84, 0
2, 385248, Note_on_c, 0, 83, 95
2, 385296, Note_on_c, 0, 83, 0
2, 385296, Note_on_c, 0, 84, 95
2, 385344, Note_on_c, 0, 84, 0
2, 385344, Note_on_c, 0, 81, 95
2, 385436, Note_on_c, 0, 81, 0
2, 385440, Note_on_c, 0, 83, 95
2, 385532, Note_on_c, 0, 83, 0
2, 385536, Note_on_c, 0, 84, 100
2, 385872, Note_on_c, 0, 84, 0
2, 402432, Note_on_c, 0, 84, 100
2, 405840, Note_on_c, 0, 84, 0
2, 405888, Note_on_c, 0, 84, 100
2, 406224, Note_on_c, 0, 84, 0
2, 406272, Note_on_c, 0, 84, 100
2, 406608, Note_on_c, 0, 84, 0
2, 406656, Note_on_c, 0, 84, 100
2, 406992, Note_on_c, 0, 84, 0
2, 407040, Note_on_c, 0, 84, 100
2, 407376, Note_on_c, 0, 84, 0
2, 407376, End_track
3, 0, Start_track
3, 0, MIDI_port, 0
3, 0, Title_t, "Flute & Harp"
3, 0, Control_c, 1, 0, 0
3, 0, Control_c, 1, 32, 0
3, 0, Program_c, 1, 48
3, 0, Control_c, 1, 7, 98
3, 0, Control_c, 1, 10, 33
3, 0, Control_c, 1, 91, 70
3, 0, Control_c, 1, 93, 48
3, 0, Control_c, 1, 121, 0
3, 96, Control_c, 1, 10, 43
3, 192, Control_c, 1, 91, 63
3, 240, Control_c, 1, 93, 40
3, 296, Program_c, 1, 48
3, 1536, Note_on_c, 1, 60, 110
3, 1568, Note_on_c, 1, 60, 0
3, 1568, Note_on_c, 1, 64, 110
3, 1600, Note_on_c, 1, 64, 0
3, 1600, Note_on_c, 1, 67, 110
3, 1632, Note_on_c, 1, 67, 0
3, 1632, Note_on_c, 1, 72, 110
3, 2096, Note_on_c, 1, 72, 0
3, 2112, Note_on_c, 1, 67, 110
3, 2204, Note_on_c, 1, 67, 0
3, 2304, Note_on_c, 1, 64, 110
3, 2396, Note_on_c, 1, 64, 0
3, 2496, Note_on_c, 1, 60, 110
3, 2588, Note_on_c, 1, 60, 0
3, 2688, Note_on_c, 1, 64, 110
3, 2780, Note_on_c, 1, 64, 0
3, 2880, Note_on_c, 1, 67, 110
3, 2972, Note_on_c, 1, 67, 0
3, 3072, Note_on_c, 1, 72, 110
3, 3644, Note_on_c, 1, 72, 0
3, 3648, Note_on_c, 1, 67, 110
3, 3740, Note_on_c, 1, 67, 0
3, 3840, Note_on_c, 1, 64, 110
3, 3932, Note_on_c, 1, 64, 0
3, 4032, Note_on_c, 1, 60, 110
3, 4124, Note_on_c, 1, 60, 0
3, 4224, Note_on_c, 1, 64, 110
3, 4316, Note_on_c, 1, 64, 0
3, 4416, Note_on_c, 1, 67, 110
3, 4508, Note_on_c, 1, 67, 0
3, 4608, Note_on_c, 1, 72, 110
3, 4988, Note_on_c, 1, 72, 0
3, 5184, Note_on_c, 1, 60, 82
3, 5372, Note_on_c, 1, 60, 0
3, 5568, Note_on_c, 1, 59, 82
3, 5756, Note_on_c, 1, 59, 0
3, 5952, Note_on_c, 1, 60, 82
3, 6140, Note_on_c, 1, 60, 0
3, 6144, Note_on_c, 1, 62, 110
3, 6236, Note_on_c, 1, 62, 0
3, 6336, Note_on_c, 1, 62, 82
3, 6428, Note_on_c, 1, 62, 0
3, 6720, Note_on_c, 1, 62, 82
3, 6908, Note_on_c, 1, 62, 0
3, 7104, Note_on_c, 1, 61, 82
3, 7292, Note_on_c, 1, 61, 0
3, 7488, Note_on_c, 1, 62, 82
3, 7676, Note_on_c, 1, 62, 0
3, 7680, Note_on_c, 1, 64, 110
3, 7772, Note_on_c, 1, 64, 0
3, 7872, Note_on_c, 1, 64, 82
3, 7964, Note_on_c, 1, 64, 0
3, 8256, Note_on_c, 1, 64, 82
3, 8444, Note_on_c, 1, 64, 0
3, 8640, Note_on_c, 1, 63, 82
3, 8828, Note_on_c, 1, 63, 0
3, 9024, Note_on_c, 1, 64, 82
3, 9212, Note_on_c, 1, 64, 0
3, 9408, Note_on_c, 1, 65, 86
3, 9596, Note_on_c, 1, 65, 0
3, 9792, Note_on_c, 1, 67, 93
3, 9980, Note_on_c, 1, 67, 0
3, 10176, Note_on_c, 1, 69, 100
3, 10364, Note_on_c, 1, 69, 0
3, 10560, Note_on_c, 1, 71, 106
3, 10748, Note_on_c, 1, 71, 0
3, 10752, Note_on_c, 1, 72, 110
3, 11132, Note_on_c, 1, 72, 0
3, 11136, Note_on_c, 1, 81, 110
3, 11136, Note_on_c, 1, 84, 110
3, 11324, Note_on_c, 1, 84, 0
3, 11324, Note_on_c, 1, 81, 0
3, 11520, Note_on_c, 1, 83, 110
3, 11520, Note_on_c, 1, 79, 110
3, 11708, Note_on_c, 1, 79, 0
3, 11708, Note_on_c, 1, 83, 0
3, 11904, Note_on_c, 1, 81, 110
3, 11904, Note_on_c, 1, 77, 110
3, 12092, Note_on_c, 1, 77, 0
3, 12092, Note_on_c, 1, 81, 0
3, 12288, Note_on_c, 1, 79, 110
3, 12288, Note_on_c, 1, 76, 110
3, 12860, Note_on_c, 1, 76, 0
3, 12860, Note_on_c, 1, 79, 0
3, 12864, Note_on_c, 1, 77, 110
3, 12864, Note_on_c, 1, 74, 110
3, 13052, Note_on_c, 1, 74, 0
3, 13052, Note_on_c, 1, 77, 0
3, 13056, Note_on_c, 1, 76, 110
3, 13056, Note_on_c, 1, 72, 110
3, 13436, Note_on_c, 1, 72, 0
3, 13436, Note_on_c, 1, 76, 0
3, 13440, Note_on_c, 1, 72, 110
3, 13440, Note_on_c, 1, 76, 110
3, 13520, Note_on_c, 1, 76, 0
3, 13536, Note_on_c, 1, 77, 110
3, 13616, Note_on_c, 1, 77, 0
3, 13632, Note_on_c, 1, 79, 110
3, 13712, Note_on_c, 1, 79, 0
3, 13728, Note_on_c, 1, 76, 110
3, 13808, Note_on_c, 1, 76, 0
3, 13820, Note_on_c, 1, 72, 0
3, 13824, Note_on_c, 1, 81, 110
3, 13824, Note_on_c, 1, 77, 110
3, 14204, Note_on_c, 1, 77, 0
3, 14204, Note_on_c, 1, 81, 0
3, 14208, Note_on_c, 1, 81, 82
3, 14208, Note_on_c, 1, 72, 82
3, 14300, Note_on_c, 1, 72, 0
3, 14300, Note_on_c, 1, 81, 0
3, 14592, Note_on_c, 1, 79, 82
3, 14592, Note_on_c, 1, 71, 82
3, 14684, Note_on_c, 1, 71, 0
3, 14684, Note_on_c, 1, 79, 0
3, 14976, Note_on_c, 1, 77, 82
3, 14976, Note_on_c, 1, 69, 82
3, 15068, Note_on_c, 1, 69, 0
3, 15068, Note_on_c, 1, 77, 0
3, 15360, Note_on_c, 1, 76, 82
3, 15360, Note_on_c, 1, 67, 82
3, 15932, Note_on_c, 1, 67, 0
3, 15932, Note_on_c, 1, 76, 0
3, 15936, Note_on_c, 1, 74, 82
3, 15936, Note_on_c, 1, 65, 82
3, 16124, Note_on_c, 1, 65, 0
3, 16124, Note_on_c, 1, 74, 0
3, 16128, Note_on_c, 1, 72, 82
3, 16128, Note_on_c, 1, 64, 82
3, 16508, Note_on_c, 1, 64, 0
3, 16508, Note_on_c, 1, 72, 0
3, 16512, Note_on_c, 1, 72, 110
3, 16604, Note_on_c, 1, 72, 0
3, 16608, Note_on_c, 1, 74, 110
3, 16700, Note_on_c, 1, 74, 0
3, 16704, Note_on_c, 1, 76, 110
3, 16796, Note_on_c, 1, 76, 0
3, 16800, Note_on_c, 1, 72, 110
3, 16892, Note_on_c, 1, 72, 0
3, 16896, Note_on_c, 1, 77, 110
3, 16896, Note_on_c, 1, 74, 110
3, 17276, Note_on_c, 1, 74, 0
3, 17276, Note_on_c, 1, 77, 0
3, 17280, Note_on_c, 1, 77, 110
3, 17280, Note_on_c, 1, 86, 110
3, 18044, Note_on_c, 1, 86, 0
3, 18044, Note_on_c, 1, 77, 0
3, 18048, Note_on_c, 1, 77, 110
3, 18048, Note_on_c, 1, 74, 110
3, 18428, Note_on_c, 1, 74, 0
3, 18428, Note_on_c, 1, 77, 0
3, 18432, Note_on_c, 1, 76, 110
3, 18432, Note_on_c, 1, 72, 110
3, 18812, Note_on_c, 1, 72, 0
3, 18812, Note_on_c, 1, 76, 0
3, 18816, Note_on_c, 1, 84, 110
3, 18816, Note_on_c, 1, 76, 110
3, 19580, Note_on_c, 1, 76, 0
3, 19580, Note_on_c, 1, 84, 0
3, 19584, Note_on_c, 1, 76, 110
3, 19584, Note_on_c, 1, 72, 110
3, 19964, Note_on_c, 1, 72, 0
3, 19964, Note_on_c, 1, 76, 0
3, 19968, Note_on_c, 1, 74, 110
3, 19968, Note_on_c, 1, 69, 110
3, 20348, Note_on_c, 1, 69, 0
3, 20348, Note_on_c, 1, 74, 0
3, 20352, Note_on_c, 1, 79, 110
3, 20444, Note_on_c, 1, 79, 0
3, 20448, Note_on_c, 1, 77, 110
3, 20540, Note_on_c, 1, 77, 0
3, 20544, Note_on_c, 1, 76, 110
3, 20636, Note_on_c, 1, 76, 0
3, 20640, Note_on_c, 1, 74, 110
3, 20732, Note_on_c, 1, 74, 0
3, 20736, Note_on_c, 1, 72, 110
3, 20736, Note_on_c, 1, 64, 110
3, 21116, Note_on_c, 1, 64, 0
3, 21116, Note_on_c, 1, 72, 0
3, 21120, Note_on_c, 1, 71, 110
3, 21120, Note_on_c, 1, 62, 110
3, 21500, Note_on_c, 1, 62, 0
3, 21500, Note_on_c, 1, 71, 0
3, 21504, Note_on_c, 1, 72, 82
3, 21596, Note_on_c, 1, 72, 0
3, 21600, Note_on_c, 1, 76, 82
3, 21692, Note_on_c, 1, 76, 0
3, 21696, Note_on_c, 1, 74, 82
3, 21788, Note_on_c, 1, 74, 0
3, 21792, Note_on_c, 1, 77, 82
3, 21884, Note_on_c, 1, 77, 0
3, 21888, Note_on_c, 1, 76, 82
3, 21980, Note_on_c, 1, 76, 0
3, 21984, Note_on_c, 1, 79, 82
3, 22076, Note_on_c, 1, 79, 0
3, 22080, Note_on_c, 1, 77, 82
3, 22172, Note_on_c, 1, 77, 0
3, 22176, Note_on_c, 1, 83, 82
3, 22268, Note_on_c, 1, 83, 0
3, 22272, Note_on_c, 1, 79, 82
3, 22364, Note_on_c, 1, 79, 0
3, 22464, Note_on_c, 1, 81, 82
3, 22556, Note_on_c, 1, 81, 0
3, 22656, Note_on_c, 1, 83, 82
3, 22748, Note_on_c, 1, 83, 0
3, 22848, Note_on_c, 1, 84, 82
3, 22940, Note_on_c, 1, 84, 0
3, 23040, Note_on_c, 1, 77, 110
3, 23040, Note_on_c, 1, 74, 110
3, 23420, Note_on_c, 1, 74, 0
3, 23420, Note_on_c, 1, 77, 0
3, 23424, Note_on_c, 1, 77, 110
3, 23424, Note_on_c, 1, 86, 110
3, 24188, Note_on_c, 1, 86, 0
3, 24188, Note_on_c, 1, 77, 0
3, 24192, Note_on_c, 1, 77, 110
3, 24192, Note_on_c, 1, 74, 110
3, 24572, Note_on_c, 1, 74, 0
3, 24572, Note_on_c, 1, 77, 0
3, 24576, Note_on_c, 1, 76, 110
3, 24576, Note_on_c, 1, 72, 110
3, 24956, Note_on_c, 1, 72, 0
3, 24956, Note_on_c, 1, 76, 0
3, 24960, Note_on_c, 1, 76, 110
3, 24960, Note_on_c, 1, 84, 110
3, 25724, Note_on_c, 1, 84, 0
3, 25724, Note_on_c, 1, 76, 0
3, 25728, Note_on_c, 1, 76, 110
3, 25728, Note_on_c, 1, 72, 110
3, 26108, Note_on_c, 1, 72, 0
3, 26108, Note_on_c, 1, 76, 0
3, 26112, Note_on_c, 1, 74, 110
3, 26204, Note_on_c, 1, 74, 0
3, 26208, Note_on_c, 1, 77, 110
3, 26300, Note_on_c, 1, 77, 0
3, 26304, Note_on_c, 1, 76, 110
3, 26396, Note_on_c, 1, 76, 0
3, 26400, Note_on_c, 1, 79, 110
3, 26492, Note_on_c, 1, 79, 0
3, 26496, Note_on_c, 1, 77, 110
3, 26588, Note_on_c, 1, 77, 0
3, 26592, Note_on_c, 1, 81, 110
3, 26684, Note_on_c, 1, 81, 0
3, 26688, Note_on_c, 1, 79, 110
3, 26780, Note_on_c, 1, 79, 0
3, 26784, Note_on_c, 1, 82, 110
3, 26876, Note_on_c, 1, 82, 0
3, 26880, Note_on_c, 1, 81, 110
3, 26972, Note_on_c, 1, 81, 0
3, 26976, Note_on_c, 1, 79, 110
3, 27068, Note_on_c, 1, 79, 0
3, 27072, Note_on_c, 1, 77, 110
3, 27164, Note_on_c, 1, 77, 0
3, 27168, Note_on_c, 1, 76, 110
3, 27260, Note_on_c, 1, 76, 0
3, 27264, Note_on_c, 1, 74, 110
3, 27356, Note_on_c, 1, 74, 0
3, 27360, Note_on_c, 1, 72, 110
3, 27452, Note_on_c, 1, 72, 0
3, 27456, Note_on_c, 1, 71, 110
3, 27548, Note_on_c, 1, 71, 0
3, 27552, Note_on_c, 1, 72, 110
3, 27644, Note_on_c, 1, 72, 0
3, 27648, Note_on_c, 1, 71, 110
3, 27836, Note_on_c, 1, 71, 0
3, 27840, Note_on_c, 1, 74, 110
3, 28028, Note_on_c, 1, 74, 0
3, 28032, Note_on_c, 1, 77, 110
3, 28220, Note_on_c, 1, 77, 0
3, 28224, Note_on_c, 1, 83, 110
3, 28224, Note_on_c, 1, 74, 110
3, 28316, Note_on_c, 1, 74, 0
3, 28316, Note_on_c, 1, 83, 0
3, 28416, Note_on_c, 1, 84, 110
3, 28416, Note_on_c, 1, 76, 110
3, 28508, Note_on_c, 1, 76, 0
3, 28508, Note_on_c, 1, 84, 0
3, 28608, Note_on_c, 1, 84, 110
3, 28608, Note_on_c, 1, 76, 110
3, 28700, Note_on_c, 1, 76, 0
3, 28700, Note_on_c, 1, 84, 0
3, 28800, Note_on_c, 1, 84, 110
3, 28800, Note_on_c, 1, 76, 110
3, 28892, Note_on_c, 1, 76, 0
3, 28892, Note_on_c, 1, 84, 0
3, 28992, Note_on_c, 1, 84, 110
3, 28992, Note_on_c, 1, 76, 110
3, 29084, Note_on_c, 1, 76, 0
3, 29084, Note_on_c, 1, 84, 0
3, 29184, Note_on_c, 1, 83, 110
3, 29184, Note_on_c, 1, 74, 110
3, 29276, Note_on_c, 1, 74, 0
3, 29276, Note_on_c, 1, 83, 0
3, 29376, Note_on_c, 1, 74, 110
3, 29564, Note_on_c, 1, 74, 0
3, 29568, Note_on_c, 1, 77, 110
3, 29756, Note_on_c, 1, 77, 0
3, 29760, Note_on_c, 1, 83, 110
3, 29760, Note_on_c, 1, 74, 110
3, 29852, Note_on_c, 1, 74, 0
3, 29852, Note_on_c, 1, 83, 0
3, 29952, Note_on_c, 1, 84, 110
3, 29952, Note_on_c, 1, 76, 110
3, 30044, Note_on_c, 1, 76, 0
3, 30044, Note_on_c, 1, 84, 0
3, 30144, Note_on_c, 1, 84, 110
3, 30144, Note_on_c, 1, 76, 110
3, 30236, Note_on_c, 1, 76, 0
3, 30236, Note_on_c, 1, 84, 0
3, 30336, Note_on_c, 1, 84, 110
3, 30336, Note_on_c, 1, 76, 110
3, 30428, Note_on_c, 1, 76, 0
3, 30428, Note_on_c, 1, 84, 0
3, 30528, Note_on_c, 1, 84, 110
3, 30528, Note_on_c, 1, 76, 110
3, 30620, Note_on_c, 1, 76, 0
3, 30620, Note_on_c, 1, 84, 0
3, 30720, Note_on_c, 1, 83, 110
3, 30720, Note_on_c, 1, 74, 110
3, 31100, Note_on_c, 1, 74, 0
3, 31100, Note_on_c, 1, 83, 0
3, 31104, Note_on_c, 1, 79, 110
3, 31104, Note_on_c, 1, 74, 110
3, 31104, Note_on_c, 1, 71, 110
3, 31104, Note_on_c, 1, 67, 110
3, 31484, Note_on_c, 1, 67, 0
3, 31484, Note_on_c, 1, 79, 0
3, 31484, Note_on_c, 1, 74, 0
3, 31484, Note_on_c, 1, 71, 0
3, 31488, Note_on_c, 1, 55, 110
3, 31868, Note_on_c, 1, 55, 0
3, 32256, Note_on_c, 1, 64, 82
3, 32256, Note_on_c, 1, 60, 82
3, 32444, Note_on_c, 1, 60, 0
3, 32444, Note_on_c, 1, 64, 0
3, 32640, Note_on_c, 1, 64, 82
3, 32640, Note_on_c, 1, 60, 82
3, 32828, Note_on_c, 1, 60, 0
3, 32828, Note_on_c, 1, 64, 0
3, 33024, Note_on_c, 1, 64, 82
3, 33024, Note_on_c, 1, 60, 82
3, 33212, Note_on_c, 1, 60, 0
3, 33212, Note_on_c, 1, 64, 0
3, 33408, Note_on_c, 1, 64, 82
3, 33408, Note_on_c, 1, 60, 82
3, 33596, Note_on_c, 1, 60, 0
3, 33596, Note_on_c, 1, 64, 0
3, 33792, Note_on_c, 1, 65, 82
3, 33792, Note_on_c, 1, 62, 82
3, 33980, Note_on_c, 1, 62, 0
3, 33980, Note_on_c, 1, 65, 0
3, 34176, Note_on_c, 1, 65, 82
3, 34176, Note_on_c, 1, 62, 82
3, 34364, Note_on_c, 1, 62, 0
3, 34364, Note_on_c, 1, 65, 0
3, 34560, Note_on_c, 1, 65, 82
3, 34560, Note_on_c, 1, 62, 82
3, 34748, Note_on_c, 1, 62, 0
3, 34748, Note_on_c, 1, 65, 0
3, 34944, Note_on_c, 1, 65, 82
3, 34944, Note_on_c, 1, 62, 82
3, 35132, Note_on_c, 1, 62, 0
3, 35132, Note_on_c, 1, 65, 0
3, 35328, Note_on_c, 1, 79, 82
3, 35328, Note_on_c, 1, 76, 82
3, 35420, Note_on_c, 1, 79, 0
3, 35424, Note_on_c, 1, 81, 82
3, 35516, Note_on_c, 1, 81, 0
3, 35516, Note_on_c, 1, 76, 0
3, 35520, Note_on_c, 1, 79, 82
3, 35612, Note_on_c, 1, 79, 0
3, 35616, Note_on_c, 1, 77, 82
3, 35708, Note_on_c, 1, 77, 0
3, 35712, Note_on_c, 1, 76, 82
3, 35712, Note_on_c, 1, 72, 82
3, 36092, Note_on_c, 1, 72, 0
3, 36092, Note_on_c, 1, 76, 0
3, 36096, Note_on_c, 1, 79, 82
3, 36188, Note_on_c, 1, 79, 0
3, 36288, Note_on_c, 1, 81, 82
3, 36380, Note_on_c, 1, 81, 0
3, 36480, Note_on_c, 1, 83, 82
3, 36572, Note_on_c, 1, 83, 0
3, 36672, Note_on_c, 1, 84, 82
3, 36764, Note_on_c, 1, 84, 0
3, 36864, Note_on_c, 1, 84, 82
3, 37052, Note_on_c, 1, 84, 0
3, 37056, Note_on_c, 1, 83, 82
3, 37244, Note_on_c, 1, 83, 0
3, 37248, Note_on_c, 1, 81, 82
3, 37436, Note_on_c, 1, 81, 0
3, 37440, Note_on_c, 1, 79, 82
3, 37628, Note_on_c, 1, 79, 0
3, 37632, Note_on_c, 1, 79, 82
3, 37724, Note_on_c, 1, 79, 0
3, 37728, Note_on_c, 1, 77, 82
3, 37820, Note_on_c, 1, 77, 0
3, 37824, Note_on_c, 1, 76, 82
3, 37916, Note_on_c, 1, 76, 0
3, 37920, Note_on_c, 1, 77, 82
3, 38012, Note_on_c, 1, 77, 0
3, 38016, Note_on_c, 1, 81, 82
3, 38204, Note_on_c, 1, 81, 0
3, 38208, Note_on_c, 1, 77, 82
3, 38300, Note_on_c, 1, 77, 0
3, 38400, Note_on_c, 1, 75, 82
3, 38588, Note_on_c, 1, 75, 0
3, 38592, Note_on_c, 1, 76, 82
3, 38780, Note_on_c, 1, 76, 0
3, 38976, Note_on_c, 1, 76, 82
3, 39068, Note_on_c, 1, 76, 0
3, 39072, Note_on_c, 1, 77, 82
3, 39164, Note_on_c, 1, 77, 0
3, 39168, Note_on_c, 1, 79, 82
3, 39260, Note_on_c, 1, 79, 0
3, 39360, Note_on_c, 1, 81, 82
3, 39452, Note_on_c, 1, 81, 0
3, 39552, Note_on_c, 1, 83, 82
3, 39644, Note_on_c, 1, 83, 0
3, 39744, Note_on_c, 1, 84, 82
3, 39836, Note_on_c, 1, 84, 0
3, 39936, Note_on_c, 1, 84, 82
3, 40124, Note_on_c, 1, 84, 0
3, 40128, Note_on_c, 1, 83, 82
3, 40316, Note_on_c, 1, 83, 0
3, 40320, Note_on_c, 1, 81, 82
3, 40508, Note_on_c, 1, 81, 0
3, 40512, Note_on_c, 1, 79, 82
3, 40700, Note_on_c, 1, 79, 0
3, 40704, Note_on_c, 1, 79, 82
3, 40796, Note_on_c, 1, 79, 0
3, 40800, Note_on_c, 1, 77, 82
3, 40892, Note_on_c, 1, 77, 0
3, 40896, Note_on_c, 1, 76, 82
3, 40988, Note_on_c, 1, 76, 0
3, 40992, Note_on_c, 1, 77, 82
3, 41084, Note_on_c, 1, 77, 0
3, 41088, Note_on_c, 1, 81, 82
3, 41276, Note_on_c, 1, 81, 0
3, 41280, Note_on_c, 1, 77, 82
3, 41372, Note_on_c, 1, 77, 0
3, 41472, Note_on_c, 1, 76, 82
3, 41564, Note_on_c, 1, 76, 0
3, 41664, Note_on_c, 1, 84, 82
3, 42044, Note_on_c, 1, 84, 0
3, 42048, Note_on_c, 1, 82, 82
3, 42236, Note_on_c, 1, 82, 0
3, 42240, Note_on_c, 1, 82, 82
3, 42428, Note_on_c, 1, 82, 0
3, 42432, Note_on_c, 1, 81, 82
3, 42812, Note_on_c, 1, 81, 0
3, 42816, Note_on_c, 1, 79, 82
3, 43004, Note_on_c, 1, 79, 0
3, 43008, Note_on_c, 1, 79, 84
3, 43196, Note_on_c, 1, 79, 0
3, 43200, Note_on_c, 1, 77, 85
3, 43580, Note_on_c, 1, 77, 0
3, 43584, Note_on_c, 1, 84, 88
3, 43772, Note_on_c, 1, 84, 0
3, 43776, Note_on_c, 1, 84, 90
3, 43964, Note_on_c, 1, 84, 0
3, 43968, Note_on_c, 1, 82, 91
3, 44348, Note_on_c, 1, 82, 0
3, 44352, Note_on_c, 1, 81, 94
3, 44540, Note_on_c, 1, 81, 0
3, 44544, Note_on_c, 1, 81, 96
3, 44732, Note_on_c, 1, 81, 0
3, 44736, Note_on_c, 1, 79, 97
3, 45116, Note_on_c, 1, 79, 0
3, 45120, Note_on_c, 1, 84, 101
3, 45308, Note_on_c, 1, 84, 0
3, 45312, Note_on_c, 1, 84, 103
3, 45500, Note_on_c, 1, 84, 0
3, 45504, Note_on_c, 1, 82, 103
3, 45884, Note_on_c, 1, 82, 0
3, 45888, Note_on_c, 1, 80, 106
3, 46076, Note_on_c, 1, 80, 0
3, 46080, Note_on_c, 1, 80, 107
3, 46268, Note_on_c, 1, 80, 0
3, 46272, Note_on_c, 1, 81, 104
3, 46364, Note_on_c, 1, 81, 0
3, 46464, Note_on_c, 1, 83, 102
3, 46556, Note_on_c, 1, 83, 0
3, 46656, Note_on_c, 1, 84, 99
3, 46748, Note_on_c, 1, 84, 0
3, 46848, Note_on_c, 1, 76, 94
3, 46940, Note_on_c, 1, 76, 0
3, 47040, Note_on_c, 1, 77, 91
3, 47132, Note_on_c, 1, 77, 0
3, 47232, Note_on_c, 1, 80, 88
3, 47324, Note_on_c, 1, 80, 0
3, 47424, Note_on_c, 1, 81, 85
3, 47516, Note_on_c, 1, 81, 0
3, 47616, Note_on_c, 1, 73, 82
3, 47708, Note_on_c, 1, 73, 0
3, 47808, Note_on_c, 1, 74, 85
3, 47900, Note_on_c, 1, 74, 0
3, 48000, Note_on_c, 1, 76, 88
3, 48000, Note_on_c, 1, 73, 88
3, 48092, Note_on_c, 1, 73, 0
3, 48092, Note_on_c, 1, 76, 0
3, 48192, Note_on_c, 1, 77, 92
3, 48192, Note_on_c, 1, 74, 92
3, 48284, Note_on_c, 1, 74, 0
3, 48284, Note_on_c, 1, 77, 0
3, 48384, Note_on_c, 1, 76, 95
3, 48384, Note_on_c, 1, 73, 95
3, 48476, Note_on_c, 1, 73, 0
3, 48476, Note_on_c, 1, 76, 0
3, 48576, Note_on_c, 1, 77, 99
3, 48576, Note_on_c, 1, 74, 99
3, 48668, Note_on_c, 1, 74, 0
3, 48668, Note_on_c, 1, 77, 0
3, 48768, Note_on_c, 1, 79, 103
3, 48768, Note_on_c, 1, 76, 103
3, 48860, Note_on_c, 1, 76, 0
3, 48860, Note_on_c, 1, 79, 0
3, 48960, Note_on_c, 1, 81, 105
3, 48960, Note_on_c, 1, 77, 105
3, 49052, Note_on_c, 1, 77, 0
3, 49052, Note_on_c, 1, 81, 0
3, 49152, Note_on_c, 1, 79, 110
3, 49152, Note_on_c, 1, 76, 110
3, 49152, Note_on_c, 1, 72, 110
3, 49532, Note_on_c, 1, 72, 0
3, 49532, Note_on_c, 1, 76, 0
3, 49532, Note_on_c, 1, 79, 0
3, 49536, Note_on_c, 1, 79, 110
3, 49536, Note_on_c, 1, 76, 110
3, 50108, Note_on_c, 1, 76, 0
3, 50108, Note_on_c, 1, 79, 0
3, 50112, Note_on_c, 1, 81, 110
3, 50112, Note_on_c, 1, 77, 110
3, 50204, Note_on_c, 1, 77, 0
3, 50204, Note_on_c, 1, 81, 0
3, 50208, Note_on_c, 1, 79, 110
3, 50208, Note_on_c, 1, 76, 110
3, 50300, Note_on_c, 1, 76, 0
3, 50300, Note_on_c, 1, 79, 0
3, 50304, Note_on_c, 1, 77, 110
3, 50304, Note_on_c, 1, 74, 110
3, 50492, Note_on_c, 1, 74, 0
3, 50492, Note_on_c, 1, 77, 0
3, 50496, Note_on_c, 1, 76, 110
3, 50496, Note_on_c, 1, 72, 110
3, 50588, Note_on_c, 1, 72, 0
3, 50588, Note_on_c, 1, 76, 0
3, 50688, Note_on_c, 1, 76, 110
3, 50688, Note_on_c, 1, 67, 110
3, 50972, Note_on_c, 1, 67, 0
3, 50972, Note_on_c, 1, 76, 0
3, 50976, Note_on_c, 1, 74, 110
3, 50976, Note_on_c, 1, 65, 110
3, 51068, Note_on_c, 1, 65, 0
3, 51068, Note_on_c, 1, 74, 0
3, 51072, Note_on_c, 1, 72, 110
3, 51072, Note_on_c, 1, 64, 110
3, 51836, Note_on_c, 1, 64, 0
3, 51836, Note_on_c, 1, 72, 0
3, 51840, Note_on_c, 1, 71, 110
3, 51840, Note_on_c, 1, 62, 110
3, 52220, Note_on_c, 1, 62, 0
3, 52220, Note_on_c, 1, 71, 0
3, 52224, Note_on_c, 1, 64, 93
3, 52224, Note_on_c, 1, 72, 93
3, 52604, Note_on_c, 1, 72, 0
3, 52604, Note_on_c, 1, 64, 0
3, 52992, Note_on_c, 1, 77, 82
3, 53084, Note_on_c, 1, 77, 0
3, 53088, Note_on_c, 1, 76, 82
3, 53180, Note_on_c, 1, 76, 0
3, 53184, Note_on_c, 1, 74, 82
3, 53276, Note_on_c, 1, 74, 0
3, 53280, Note_on_c, 1, 76, 82
3, 53372, Note_on_c, 1, 76, 0
3, 53376, Note_on_c, 1, 79, 82
3, 53468, Note_on_c, 1, 79, 0
3, 53472, Note_on_c, 1, 77, 82
3, 53564, Note_on_c, 1, 77, 0
3, 53568, Note_on_c, 1, 76, 82
3, 53660, Note_on_c, 1, 76, 0
3, 53664, Note_on_c, 1, 77, 82
3, 53756, Note_on_c, 1, 77, 0
3, 53760, Note_on_c, 1, 79, 82
3, 53948, Note_on_c, 1, 79, 0
3, 53952, Note_on_c, 1, 84, 82
3, 54140, Note_on_c, 1, 84, 0
3, 54144, Note_on_c, 1, 79, 82
3, 54332, Note_on_c, 1, 79, 0
3, 54336, Note_on_c, 1, 79, 82
3, 54524, Note_on_c, 1, 79, 0
3, 54528, Note_on_c, 1, 77, 82
3, 54620, Note_on_c, 1, 77, 0
3, 54624, Note_on_c, 1, 76, 82
3, 54716, Note_on_c, 1, 76, 0
3, 54720, Note_on_c, 1, 74, 82
3, 54812, Note_on_c, 1, 74, 0
3, 54816, Note_on_c, 1, 76, 82
3, 54908, Note_on_c, 1, 76, 0
3, 54912, Note_on_c, 1, 79, 82
3, 55004, Note_on_c, 1, 79, 0
3, 55008, Note_on_c, 1, 77, 82
3, 55100, Note_on_c, 1, 77, 0
3, 55104, Note_on_c, 1, 76, 82
3, 55196, Note_on_c, 1, 76, 0
3, 55200, Note_on_c, 1, 77, 82
3, 55292, Note_on_c, 1, 77, 0
3, 55296, Note_on_c, 1, 79, 82
3, 55484, Note_on_c, 1, 79, 0
3, 55488, Note_on_c, 1, 84, 82
3, 55676, Note_on_c, 1, 84, 0
3, 55680, Note_on_c, 1, 79, 82
3, 55868, Note_on_c, 1, 79, 0
3, 55872, Note_on_c, 1, 79, 82
3, 56060, Note_on_c, 1, 79, 0
3, 56064, Note_on_c, 1, 77, 82
3, 56156, Note_on_c, 1, 77, 0
3, 56160, Note_on_c, 1, 76, 82
3, 56252, Note_on_c, 1, 76, 0
3, 56256, Note_on_c, 1, 74, 82
3, 56348, Note_on_c, 1, 74, 0
3, 56352, Note_on_c, 1, 76, 82
3, 56444, Note_on_c, 1, 76, 0
3, 56448, Note_on_c, 1, 79, 82
3, 56540, Note_on_c, 1, 79, 0
3, 56544, Note_on_c, 1, 77, 82
3, 56636, Note_on_c, 1, 77, 0
3, 56640, Note_on_c, 1, 76, 82
3, 56732, Note_on_c, 1, 76, 0
3, 56736, Note_on_c, 1, 77, 82
3, 56828, Note_on_c, 1, 77, 0
3, 56832, Note_on_c, 1, 79, 83
3, 56924, Note_on_c, 1, 79, 0
3, 56928, Note_on_c, 1, 81, 84
3, 57020, Note_on_c, 1, 81, 0
3, 57024, Note_on_c, 1, 79, 85
3, 57116, Note_on_c, 1, 79, 0
3, 57120, Note_on_c, 1, 81, 86
3, 57212, Note_on_c, 1, 81, 0
3, 57216, Note_on_c, 1, 77, 89
3, 57308, Note_on_c, 1, 77, 0
3, 57312, Note_on_c, 1, 79, 91
3, 57404, Note_on_c, 1, 79, 0
3, 57408, Note_on_c, 1, 77, 92
3, 57500, Note_on_c, 1, 77, 0
3, 57504, Note_on_c, 1, 79, 94
3, 57596, Note_on_c, 1, 79, 0
3, 57600, Note_on_c, 1, 76, 96
3, 57692, Note_on_c, 1, 76, 0
3, 57696, Note_on_c, 1, 77, 97
3, 57788, Note_on_c, 1, 77, 0
3, 57792, Note_on_c, 1, 76, 100
3, 57884, Note_on_c, 1, 76, 0
3, 57888, Note_on_c, 1, 77, 101
3, 57980, Note_on_c, 1, 77, 0
3, 57984, Note_on_c, 1, 74, 103
3, 58076, Note_on_c, 1, 74, 0
3, 58080, Note_on_c, 1, 76, 104
3, 58172, Note_on_c, 1, 76, 0
3, 58176, Note_on_c, 1, 74, 105
3, 58268, Note_on_c, 1, 74, 0
3, 58272, Note_on_c, 1, 76, 107
3, 58364, Note_on_c, 1, 76, 0
3, 58368, Note_on_c, 1, 72, 110
3, 58460, Note_on_c, 1, 72, 0
3, 58464, Note_on_c, 1, 74, 110
3, 58556, Note_on_c, 1, 74, 0
3, 58560, Note_on_c, 1, 76, 110
3, 58652, Note_on_c, 1, 76, 0
3, 58656, Note_on_c, 1, 77, 110
3, 58748, Note_on_c, 1, 77, 0
3, 58752, Note_on_c, 1, 79, 110
3, 58844, Note_on_c, 1, 79, 0
3, 58848, Note_on_c, 1, 81, 110
3, 58940, Note_on_c, 1, 81, 0
3, 58944, Note_on_c, 1, 83, 110
3, 59036, Note_on_c, 1, 83, 0
3, 59040, Note_on_c, 1, 84, 110
3, 59132, Note_on_c, 1, 84, 0
3, 59136, Note_on_c, 1, 69, 110
3, 59228, Note_on_c, 1, 69, 0
3, 59232, Note_on_c, 1, 71, 110
3, 59324, Note_on_c, 1, 71, 0
3, 59328, Note_on_c, 1, 72, 110
3, 59420, Note_on_c, 1, 72, 0
3, 59424, Note_on_c, 1, 74, 110
3, 59516, Note_on_c, 1, 74, 0
3, 59520, Note_on_c, 1, 76, 110
3, 59612, Note_on_c, 1, 76, 0
3, 59616, Note_on_c, 1, 77, 110
3, 59708, Note_on_c, 1, 77, 0
3, 59712, Note_on_c, 1, 79, 110
3, 59804, Note_on_c, 1, 79, 0
3, 59808, Note_on_c, 1, 81, 110
3, 59900, Note_on_c, 1, 81, 0
3, 59904, Note_on_c, 1, 67, 110
3, 59996, Note_on_c, 1, 67, 0
3, 60000, Note_on_c, 1, 69, 110
3, 60092, Note_on_c, 1, 69, 0
3, 60096, Note_on_c, 1, 71, 110
3, 60188, Note_on_c, 1, 71, 0
3, 60192, Note_on_c, 1, 72, 110
3, 60284, Note_on_c, 1, 72, 0
3, 60288, Note_on_c, 1, 74, 110
3, 60380, Note_on_c, 1, 74, 0
3, 60384, Note_on_c, 1, 76, 110
3, 60476, Note_on_c, 1, 76, 0
3, 60480, Note_on_c, 1, 77, 110
3, 60572, Note_on_c, 1, 77, 0
3, 60576, Note_on_c, 1, 79, 110
3, 60668, Note_on_c, 1, 79, 0
3, 60672, Note_on_c, 1, 76, 110
3, 60672, Note_on_c, 1, 79, 110
3, 60860, Note_on_c, 1, 79, 0
3, 60860, Note_on_c, 1, 76, 0
3, 60864, Note_on_c, 1, 77, 110
3, 60864, Note_on_c, 1, 74, 110
3, 61052, Note_on_c, 1, 74, 0
3, 61052, Note_on_c, 1, 77, 0
3, 61056, Note_on_c, 1, 76, 110
3, 61056, Note_on_c, 1, 72, 110
3, 61148, Note_on_c, 1, 72, 0
3, 61148, Note_on_c, 1, 76, 0
3, 61248, Note_on_c, 1, 74, 110
3, 61248, Note_on_c, 1, 67, 110
3, 61340, Note_on_c, 1, 67, 0
3, 61340, Note_on_c, 1, 74, 0
3, 61440, Note_on_c, 1, 72, 110
3, 61440, Note_on_c, 1, 67, 110
3, 61440, Note_on_c, 1, 64, 110
3, 61820, Note_on_c, 1, 64, 0
3, 61820, Note_on_c, 1, 67, 0
3, 61820, Note_on_c, 1, 72, 0
3, 62016, Note_on_c, 1, 79, 110
3, 62076, Note_on_c, 1, 79, 0
3, 62080, Note_on_c, 1, 81, 110
3, 62140, Note_on_c, 1, 81, 0
3, 62144, Note_on_c, 1, 83, 110
3, 62204, Note_on_c, 1, 83, 0
3, 62208, Note_on_c, 1, 84, 110
3, 62588, Note_on_c, 1, 84, 0
3, 62784, Note_on_c, 1, 79, 110
3, 62844, Note_on_c, 1, 79, 0
3, 62848, Note_on_c, 1, 81, 110
3, 62908, Note_on_c, 1, 81, 0
3, 62912, Note_on_c, 1, 83, 110
3, 62972, Note_on_c, 1, 83, 0
3, 62976, Note_on_c, 1, 84, 110
3, 63356, Note_on_c, 1, 84, 0
3, 63552, Note_on_c, 1, 79, 110
3, 63612, Note_on_c, 1, 79, 0
3, 63616, Note_on_c, 1, 81, 110
3, 63676, Note_on_c, 1, 81, 0
3, 63680, Note_on_c, 1, 83, 110
3, 63740, Note_on_c, 1, 83, 0
3, 63744, Note_on_c, 1, 84, 110
3, 63932, Note_on_c, 1, 84, 0
3, 63936, Note_on_c, 1, 79, 110
3, 63996, Note_on_c, 1, 79, 0
3, 64000, Note_on_c, 1, 81, 110
3, 64060, Note_on_c, 1, 81, 0
3, 64064, Note_on_c, 1, 83, 110
3, 64124, Note_on_c, 1, 83, 0
3, 64128, Note_on_c, 1, 84, 110
3, 64316, Note_on_c, 1, 84, 0
3, 64320, Note_on_c, 1, 79, 110
3, 64380, Note_on_c, 1, 79, 0
3, 64384, Note_on_c, 1, 81, 110
3, 64444, Note_on_c, 1, 81, 0
3, 64448, Note_on_c, 1, 83, 110
3, 64508, Note_on_c, 1, 83, 0
3, 64512, Note_on_c, 1, 84, 110
3, 64892, Note_on_c, 1, 84, 0
3, 64900, Note_on_c, 1, 60, 82
3, 64900, Note_on_c, 1, 84, 82
3, 65088, Note_on_c, 1, 72, 82
3, 65276, Note_on_c, 1, 72, 0
3, 65280, Note_on_c, 1, 84, 0
3, 65280, Note_on_c, 1, 60, 0
3, 65280, Note_on_c, 1, 83, 82
3, 65280, Note_on_c, 1, 59, 82
3, 65472, Note_on_c, 1, 71, 82
3, 65660, Note_on_c, 1, 71, 0
3, 65660, Note_on_c, 1, 59, 0
3, 65660, Note_on_c, 1, 83, 0
3, 65664, Note_on_c, 1, 81, 82
3, 65664, Note_on_c, 1, 57, 82
3, 65856, Note_on_c, 1, 69, 82
3, 66044, Note_on_c, 1, 69, 0
3, 66044, Note_on_c, 1, 57, 0
3, 66044, Note_on_c, 1, 81, 0
3, 66048, Note_on_c, 1, 79, 110
3, 66048, Note_on_c, 1, 67, 100
3, 66048, Note_on_c, 1, 55, 100
3, 66236, Note_on_c, 1, 67, 0
3, 66240, Note_on_c, 1, 67, 93
3, 66428, Note_on_c, 1, 67, 0
3, 66428, Note_on_c, 1, 55, 0
3, 66428, Note_on_c, 1, 79, 0
3, 66432, Note_on_c, 1, 77, 82
3, 66812, Note_on_c, 1, 77, 0
3, 66816, Note_on_c, 1, 76, 82
3, 67196, Note_on_c, 1, 76, 0
3, 67200, Note_on_c, 1, 74, 82
3, 67580, Note_on_c, 1, 74, 0
3, 67584, Note_on_c, 1, 72, 110
3, 67616, Note_on_c, 1, 72, 0
3, 67616, Note_on_c, 1, 76, 110
3, 67648, Note_on_c, 1, 76, 0
3, 67648, Note_on_c, 1, 79, 110
3, 67680, Note_on_c, 1, 79, 0
3, 67680, Note_on_c, 1, 84, 110
3, 68152, Note_on_c, 1, 84, 0
3, 68160, Note_on_c, 1, 79, 110
3, 68252, Note_on_c, 1, 79, 0
3, 68352, Note_on_c, 1, 76, 110
3, 68444, Note_on_c, 1, 76, 0
3, 68544, Note_on_c, 1, 72, 110
3, 68636, Note_on_c, 1, 72, 0
3, 68736, Note_on_c, 1, 76, 110
3, 68828, Note_on_c, 1, 76, 0
3, 68928, Note_on_c, 1, 79, 110
3, 69020, Note_on_c, 1, 79, 0
3, 69120, Note_on_c, 1, 84, 110
3, 69692, Note_on_c, 1, 84, 0
3, 69696, Note_on_c, 1, 79, 110
3, 69788, Note_on_c, 1, 79, 0
3, 69888, Note_on_c, 1, 76, 110
3, 69980, Note_on_c, 1, 76, 0
3, 70080, Note_on_c, 1, 72, 110
3, 70172, Note_on_c, 1, 72, 0
3, 70272, Note_on_c, 1, 76, 110
3, 70364, Note_on_c, 1, 76, 0
3, 70464, Note_on_c, 1, 79, 110
3, 70556, Note_on_c, 1, 79, 0
3, 70656, Note_on_c, 1, 84, 110
3, 71036, Note_on_c, 1, 84, 0
3, 82944, Note_on_c, 1, 72, 82
3, 83132, Note_on_c, 1, 72, 0
3, 83136, Note_on_c, 1, 67, 82
3, 83136, Note_on_c, 1, 64, 82
3, 83228, Note_on_c, 1, 64, 0
3, 83228, Note_on_c, 1, 67, 0
3, 83328, Note_on_c, 1, 67, 82
3, 83328, Note_on_c, 1, 64, 82
3, 83420, Note_on_c, 1, 64, 0
3, 83420, Note_on_c, 1, 67, 0
3, 83520, Note_on_c, 1, 67, 82
3, 83520, Note_on_c, 1, 64, 82
3, 83612, Note_on_c, 1, 64, 0
3, 83612, Note_on_c, 1, 67, 0
3, 83712, Note_on_c, 1, 67, 82
3, 83712, Note_on_c, 1, 64, 82
3, 83900, Note_on_c, 1, 64, 0
3, 83900, Note_on_c, 1, 67, 0
3, 83904, Note_on_c, 1, 67, 82
3, 83904, Note_on_c, 1, 64, 82
3, 84092, Note_on_c, 1, 64, 0
3, 84092, Note_on_c, 1, 67, 0
3, 84096, Note_on_c, 1, 67, 82
3, 84096, Note_on_c, 1, 64, 82
3, 84284, Note_on_c, 1, 64, 0
3, 84284, Note_on_c, 1, 67, 0
3, 84288, Note_on_c, 1, 67, 82
3, 84288, Note_on_c, 1, 64, 82
3, 84476, Note_on_c, 1, 64, 0
3, 84476, Note_on_c, 1, 67, 0
3, 84672, Note_on_c, 1, 69, 82
3, 84672, Note_on_c, 1, 65, 82
3, 84860, Note_on_c, 1, 65, 0
3, 84860, Note_on_c, 1, 69, 0
3, 84864, Note_on_c, 1, 69, 82
3, 84864, Note_on_c, 1, 65, 82
3, 85052, Note_on_c, 1, 65, 0
3, 85052, Note_on_c, 1, 69, 0
3, 85056, Note_on_c, 1, 69, 82
3, 85056, Note_on_c, 1, 65, 82
3, 85244, Note_on_c, 1, 65, 0
3, 85244, Note_on_c, 1, 69, 0
3, 85248, Note_on_c, 1, 69, 82
3, 85248, Note_on_c, 1, 65, 82
3, 85436, Note_on_c, 1, 65, 0
3, 85436, Note_on_c, 1, 69, 0
3, 85440, Note_on_c, 1, 69, 82
3, 85440, Note_on_c, 1, 65, 82
3, 85628, Note_on_c, 1, 65, 0
3, 85628, Note_on_c, 1, 69, 0
3, 85632, Note_on_c, 1, 65, 82
3, 85648, Note_on_c, 1, 69, 82
3, 85820, Note_on_c, 1, 65, 0
3, 85824, Note_on_c, 1, 69, 82
3, 85824, Note_on_c, 1, 65, 82
3, 85836, Note_on_c, 1, 69, 0
3, 86012, Note_on_c, 1, 65, 0
3, 86012, Note_on_c, 1, 69, 0
3, 86208, Note_on_c, 1, 67, 82
3, 86208, Note_on_c, 1, 64, 82
3, 86396, Note_on_c, 1, 64, 0
3, 86396, Note_on_c, 1, 67, 0
3, 86400, Note_on_c, 1, 67, 82
3, 86400, Note_on_c, 1, 64, 82
3, 86588, Note_on_c, 1, 64, 0
3, 86588, Note_on_c, 1, 67, 0
3, 86592, Note_on_c, 1, 67, 82
3, 86592, Note_on_c, 1, 64, 82
3, 86780, Note_on_c, 1, 64, 0
3, 86780, Note_on_c, 1, 67, 0
3, 86784, Note_on_c, 1, 67, 82
3, 86784, Note_on_c, 1, 64, 82
3, 86972, Note_on_c, 1, 64, 0
3, 86972, Note_on_c, 1, 67, 0
3, 86976, Note_on_c, 1, 67, 82
3, 86976, Note_on_c, 1, 64, 82
3, 87164, Note_on_c, 1, 64, 0
3, 87164, Note_on_c, 1, 67, 0
3, 87168, Note_on_c, 1, 67, 82
3, 87168, Note_on_c, 1, 64, 82
3, 87356, Note_on_c, 1, 64, 0
3, 87356, Note_on_c, 1, 67, 0
3, 87360, Note_on_c, 1, 67, 82
3, 87360, Note_on_c, 1, 64, 82
3, 87548, Note_on_c, 1, 64, 0
3, 87548, Note_on_c, 1, 67, 0
3, 87552, Note_on_c, 1, 67, 82
3, 87552, Note_on_c, 1, 64, 82
3, 87740, Note_on_c, 1, 64, 0
3, 87740, Note_on_c, 1, 67, 0
3, 87744, Note_on_c, 1, 65, 82
3, 87744, Note_on_c, 1, 62, 82
3, 87932, Note_on_c, 1, 62, 0
3, 87932, Note_on_c, 1, 65, 0
3, 87936, Note_on_c, 1, 64, 82
3, 87936, Note_on_c, 1, 60, 82
3, 88028, Note_on_c, 1, 60, 0
3, 88028, Note_on_c, 1, 64, 0
3, 88128, Note_on_c, 1, 64, 82
3, 88128, Note_on_c, 1, 60, 82
3, 88220, Note_on_c, 1, 60, 0
3, 88220, Note_on_c, 1, 64, 0
3, 88320, Note_on_c, 1, 64, 82
3, 88320, Note_on_c, 1, 60, 82
3, 88508, Note_on_c, 1, 60, 0
3, 88508, Note_on_c, 1, 64, 0
3, 88512, Note_on_c, 1, 67, 82
3, 88512, Note_on_c, 1, 64, 82
3, 88700, Note_on_c, 1, 64, 0
3, 88700, Note_on_c, 1, 67, 0
3, 88704, Note_on_c, 1, 65, 82
3, 88704, Note_on_c, 1, 62, 82
3, 88892, Note_on_c, 1, 62, 0
3, 88892, Note_on_c, 1, 65, 0
3, 88896, Note_on_c, 1, 62, 82
3, 88896, Note_on_c, 1, 59, 82
3, 89084, Note_on_c, 1, 59, 0
3, 89084, Note_on_c, 1, 62, 0
3, 89088, Note_on_c, 1, 72, 82
3, 89088, Note_on_c, 1, 59, 82
3, 89216, Note_on_c, 1, 59, 0
3, 89216, Note_on_c, 1, 72, 0
3, 93696, Note_on_c, 1, 79, 82
3, 93984, Note_on_c, 1, 77, 82
3, 94076, Note_on_c, 1, 77, 0
3, 94080, Note_on_c, 1, 76, 82
3, 94268, Note_on_c, 1, 79, 0
3, 94460, Note_on_c, 1, 76, 0
3, 94464, Note_on_c, 1, 76, 82
3, 94556, Note_on_c, 1, 76, 0
3, 94560, Note_on_c, 1, 72, 82
3, 94652, Note_on_c, 1, 72, 0
3, 94656, Note_on_c, 1, 76, 82
3, 94748, Note_on_c, 1, 76, 0
3, 94752, Note_on_c, 1, 79, 82
3, 94844, Note_on_c, 1, 79, 0
3, 94848, Note_on_c, 1, 79, 82
3, 94940, Note_on_c, 1, 79, 0
3, 94944, Note_on_c, 1, 77, 82
3, 95036, Note_on_c, 1, 77, 0
3, 95040, Note_on_c, 1, 76, 82
3, 95132, Note_on_c, 1, 76, 0
3, 95136, Note_on_c, 1, 74, 82
3, 95228, Note_on_c, 1, 74, 0
3, 95232, Note_on_c, 1, 72, 110
3, 95324, Note_on_c, 1, 72, 0
3, 95328, Note_on_c, 1, 76, 110
3, 95420, Note_on_c, 1, 76, 0
3, 95424, Note_on_c, 1, 79, 110
3, 95516, Note_on_c, 1, 79, 0
3, 95520, Note_on_c, 1, 84, 110
3, 95612, Note_on_c, 1, 84, 0
3, 95616, Note_on_c, 1, 72, 110
3, 95708, Note_on_c, 1, 72, 0
3, 95712, Note_on_c, 1, 84, 110
3, 95804, Note_on_c, 1, 84, 0
3, 95808, Note_on_c, 1, 71, 110
3, 95900, Note_on_c, 1, 71, 0
3, 95904, Note_on_c, 1, 83, 110
3, 95996, Note_on_c, 1, 83, 0
3, 96000, Note_on_c, 1, 69, 110
3, 96092, Note_on_c, 1, 69, 0
3, 96096, Note_on_c, 1, 72, 110
3, 96188, Note_on_c, 1, 72, 0
3, 96192, Note_on_c, 1, 76, 110
3, 96284, Note_on_c, 1, 76, 0
3, 96288, Note_on_c, 1, 81, 110
3, 96380, Note_on_c, 1, 81, 0
3, 96384, Note_on_c, 1, 69, 110
3, 96476, Note_on_c, 1, 69, 0
3, 96480, Note_on_c, 1, 81, 110
3, 96572, Note_on_c, 1, 81, 0
3, 96576, Note_on_c, 1, 67, 110
3, 96668, Note_on_c, 1, 67, 0
3, 96672, Note_on_c, 1, 79, 110
3, 96764, Note_on_c, 1, 79, 0
3, 96768, Note_on_c, 1, 65, 110
3, 96860, Note_on_c, 1, 65, 0
3, 96864, Note_on_c, 1, 69, 110
3, 96956, Note_on_c, 1, 69, 0
3, 96960, Note_on_c, 1, 72, 110
3, 97052, Note_on_c, 1, 72, 0
3, 97056, Note_on_c, 1, 77, 110
3, 97148, Note_on_c, 1, 77, 0
3, 97152, Note_on_c, 1, 65, 110
3, 97244, Note_on_c, 1, 65, 0
3, 97248, Note_on_c, 1, 77, 110
3, 97340, Note_on_c, 1, 77, 0
3, 97344, Note_on_c, 1, 64, 110
3, 97436, Note_on_c, 1, 64, 0
3, 97440, Note_on_c, 1, 76, 110
3, 97532, Note_on_c, 1, 76, 0
3, 97536, Note_on_c, 1, 62, 110
3, 97628, Note_on_c, 1, 62, 0
3, 97632, Note_on_c, 1, 74, 110
3, 97724, Note_on_c, 1, 74, 0
3, 97728, Note_on_c, 1, 60, 110
3, 97820, Note_on_c, 1, 60, 0
3, 97824, Note_on_c, 1, 72, 110
3, 97916, Note_on_c, 1, 72, 0
3, 97920, Note_on_c, 1, 59, 110
3, 98012, Note_on_c, 1, 59, 0
3, 98016, Note_on_c, 1, 71, 110
3, 98108, Note_on_c, 1, 71, 0
3, 98112, Note_on_c, 1, 57, 110
3, 98204, Note_on_c, 1, 57, 0
3, 98208, Note_on_c, 1, 69, 110
3, 98300, Note_on_c, 1, 69, 0
3, 99072, Note_on_c, 1, 60, 85
3, 99164, Note_on_c, 1, 60, 0
3, 99168, Note_on_c, 1, 64, 85
3, 99260, Note_on_c, 1, 64, 0
3, 99264, Note_on_c, 1, 62, 85
3, 99356, Note_on_c, 1, 62, 0
3, 99360, Note_on_c, 1, 65, 85
3, 99452, Note_on_c, 1, 65, 0
3, 99456, Note_on_c, 1, 64, 85
3, 99548, Note_on_c, 1, 64, 0
3, 99552, Note_on_c, 1, 67, 85
3, 99644, Note_on_c, 1, 67, 0
3, 99648, Note_on_c, 1, 66, 85
3, 99740, Note_on_c, 1, 66, 0
3, 99744, Note_on_c, 1, 69, 85
3, 99836, Note_on_c, 1, 69, 0
3, 99840, Note_on_c, 1, 67, 85
3, 100028, Note_on_c, 1, 67, 0
3, 100032, Note_on_c, 1, 67, 85
3, 100124, Note_on_c, 1, 67, 0
3, 100128, Note_on_c, 1, 71, 85
3, 100220, Note_on_c, 1, 71, 0
3, 100224, Note_on_c, 1, 69, 85
3, 100316, Note_on_c, 1, 69, 0
3, 100320, Note_on_c, 1, 72, 85
3, 100412, Note_on_c, 1, 72, 0
3, 100416, Note_on_c, 1, 71, 85
3, 100496, Note_on_c, 1, 74, 85
3, 100508, Note_on_c, 1, 71, 0
3, 100588, Note_on_c, 1, 74, 0
3, 100608, Note_on_c, 1, 72, 85
3, 100700, Note_on_c, 1, 72, 0
3, 100704, Note_on_c, 1, 76, 85
3, 100796, Note_on_c, 1, 76, 0
3, 100800, Note_on_c, 1, 74, 85
3, 100892, Note_on_c, 1, 74, 0
3, 100896, Note_on_c, 1, 77, 85
3, 100988, Note_on_c, 1, 77, 0
3, 100992, Note_on_c, 1, 76, 85
3, 101084, Note_on_c, 1, 76, 0
3, 101088, Note_on_c, 1, 79, 85
3, 101180, Note_on_c, 1, 79, 0
3, 101184, Note_on_c, 1, 78, 85
3, 101276, Note_on_c, 1, 78, 0
3, 101280, Note_on_c, 1, 81, 85
3, 101372, Note_on_c, 1, 81, 0
3, 101376, Note_on_c, 1, 79, 110
3, 101564, Note_on_c, 1, 79, 0
3, 101568, Note_on_c, 1, 81, 110
3, 101608, Note_on_c, 1, 81, 0
3, 101616, Note_on_c, 1, 79, 110
3, 101656, Note_on_c, 1, 79, 0
3, 101664, Note_on_c, 1, 78, 110
3, 101704, Note_on_c, 1, 78, 0
3, 101712, Note_on_c, 1, 79, 110
3, 101752, Note_on_c, 1, 79, 0
3, 101760, Note_on_c, 1, 83, 110
3, 101948, Note_on_c, 1, 83, 0
3, 101952, Note_on_c, 1, 79, 110
3, 102044, Note_on_c, 1, 79, 0
3, 102144, Note_on_c, 1, 74, 110
3, 102236, Note_on_c, 1, 74, 0
3, 102336, Note_on_c, 1, 79, 110
3, 102428, Note_on_c, 1, 79, 0
3, 102528, Note_on_c, 1, 71, 110
3, 102620, Note_on_c, 1, 71, 0
3, 102720, Note_on_c, 1, 74, 110
3, 102812, Note_on_c, 1, 74, 0
3, 102912, Note_on_c, 1, 67, 110
3, 103004, Note_on_c, 1, 67, 0
3, 103104, Note_on_c, 1, 69, 110
3, 103144, Note_on_c, 1, 69, 0
3, 103152, Note_on_c, 1, 67, 110
3, 103192, Note_on_c, 1, 67, 0
3, 103200, Note_on_c, 1, 66, 110
3, 103240, Note_on_c, 1, 66, 0
3, 103248, Note_on_c, 1, 67, 110
3, 103288, Note_on_c, 1, 67, 0
3, 103296, Note_on_c, 1, 71, 110
3, 103484, Note_on_c, 1, 71, 0
3, 103488, Note_on_c, 1, 67, 110
3, 103580, Note_on_c, 1, 67, 0
3, 103680, Note_on_c, 1, 62, 110
3, 103772, Note_on_c, 1, 62, 0
3, 103872, Note_on_c, 1, 67, 110
3, 103964, Note_on_c, 1, 67, 0
3, 104064, Note_on_c, 1, 59, 110
3, 104156, Note_on_c, 1, 59, 0
3, 104256, Note_on_c, 1, 62, 110
3, 104348, Note_on_c, 1, 62, 0
3, 104448, Note_on_c, 1, 55, 110
3, 104828, Note_on_c, 1, 55, 0
3, 116736, Note_on_c, 1, 67, 82
3, 116828, Note_on_c, 1, 67, 0
3, 116928, Note_on_c, 1, 67, 82
3, 117020, Note_on_c, 1, 67, 0
3, 117120, Note_on_c, 1, 67, 82
3, 117212, Note_on_c, 1, 67, 0
3, 117312, Note_on_c, 1, 67, 82
3, 117404, Note_on_c, 1, 67, 0
3, 117504, Note_on_c, 1, 67, 82
3, 117596, Note_on_c, 1, 67, 0
3, 117696, Note_on_c, 1, 67, 82
3, 117788, Note_on_c, 1, 67, 0
3, 117888, Note_on_c, 1, 67, 82
3, 117980, Note_on_c, 1, 67, 0
3, 118080, Note_on_c, 1, 67, 82
3, 118172, Note_on_c, 1, 67, 0
3, 118272, Note_on_c, 1, 64, 82
3, 118364, Note_on_c, 1, 64, 0
3, 118464, Note_on_c, 1, 64, 82
3, 118556, Note_on_c, 1, 64, 0
3, 118656, Note_on_c, 1, 64, 82
3, 118748, Note_on_c, 1, 64, 0
3, 118848, Note_on_c, 1, 64, 82
3, 118940, Note_on_c, 1, 64, 0
3, 119040, Note_on_c, 1, 76, 82
3, 119132, Note_on_c, 1, 76, 0
3, 119232, Note_on_c, 1, 76, 82
3, 119324, Note_on_c, 1, 76, 0
3, 119424, Note_on_c, 1, 76, 82
3, 119516, Note_on_c, 1, 76, 0
3, 119616, Note_on_c, 1, 76, 82
3, 119708, Note_on_c, 1, 76, 0
3, 132096, Note_on_c, 1, 81, 82
3, 132096, Note_on_c, 1, 78, 82
3, 132284, Note_on_c, 1, 78, 0
3, 132284, Note_on_c, 1, 81, 0
3, 132288, Note_on_c, 1, 81, 82
3, 132476, Note_on_c, 1, 81, 0
3, 132480, Note_on_c, 1, 84, 110
3, 132668, Note_on_c, 1, 84, 0
3, 132672, Note_on_c, 1, 81, 110
3, 132672, Note_on_c, 1, 78, 110
3, 132672, Note_on_c, 1, 74, 110
3, 132764, Note_on_c, 1, 74, 0
3, 132764, Note_on_c, 1, 78, 0
3, 132764, Note_on_c, 1, 81, 0
3, 132864, Note_on_c, 1, 83, 110
3, 132864, Note_on_c, 1, 79, 110
3, 132864, Note_on_c, 1, 74, 110
3, 132956, Note_on_c, 1, 74, 0
3, 132956, Note_on_c, 1, 79, 0
3, 132956, Note_on_c, 1, 83, 0
3, 133056, Note_on_c, 1, 83, 110
3, 133056, Note_on_c, 1, 79, 110
3, 133056, Note_on_c, 1, 74, 110
3, 133148, Note_on_c, 1, 74, 0
3, 133148, Note_on_c, 1, 79, 0
3, 133148, Note_on_c, 1, 83, 0
3, 133248, Note_on_c, 1, 83, 110
3, 133248, Note_on_c, 1, 79, 110
3, 133248, Note_on_c, 1, 74, 110
3, 133340, Note_on_c, 1, 74, 0
3, 133340, Note_on_c, 1, 79, 0
3, 133340, Note_on_c, 1, 83, 0
3, 133440, Note_on_c, 1, 83, 110
3, 133440, Note_on_c, 1, 79, 110
3, 133440, Note_on_c, 1, 74, 110
3, 133532, Note_on_c, 1, 74, 0
3, 133532, Note_on_c, 1, 79, 0
3, 133532, Note_on_c, 1, 83, 0
3, 133632, Note_on_c, 1, 81, 110
3, 133632, Note_on_c, 1, 78, 110
3, 133632, Note_on_c, 1, 74, 110
3, 133820, Note_on_c, 1, 74, 0
3, 133820, Note_on_c, 1, 78, 0
3, 133820, Note_on_c, 1, 81, 0
3, 133824, Note_on_c, 1, 81, 110
3, 134012, Note_on_c, 1, 81, 0
3, 134016, Note_on_c, 1, 84, 110
3, 134204, Note_on_c, 1, 84, 0
3, 134208, Note_on_c, 1, 81, 110
3, 134208, Note_on_c, 1, 78, 110
3, 134208, Note_on_c, 1, 74, 110
3, 134300, Note_on_c, 1, 74, 0
3, 134300, Note_on_c, 1, 78, 0
3, 134300, Note_on_c, 1, 81, 0
3, 134400, Note_on_c, 1, 83, 110
3, 134400, Note_on_c, 1, 79, 110
3, 134400, Note_on_c, 1, 74, 110
3, 134492, Note_on_c, 1, 74, 0
3, 134492, Note_on_c, 1, 79, 0
3, 134492, Note_on_c, 1, 83, 0
3, 134592, Note_on_c, 1, 83, 110
3, 134592, Note_on_c, 1, 79, 110
3, 134592, Note_on_c, 1, 74, 110
3, 134684, Note_on_c, 1, 74, 0
3, 134684, Note_on_c, 1, 79, 0
3, 134684, Note_on_c, 1, 83, 0
3, 134784, Note_on_c, 1, 83, 110
3, 134784, Note_on_c, 1, 79, 110
3, 134784, Note_on_c, 1, 74, 110
3, 134876, Note_on_c, 1, 74, 0
3, 134876, Note_on_c, 1, 79, 0
3, 134876, Note_on_c, 1, 83, 0
3, 134976, Note_on_c, 1, 83, 110
3, 134976, Note_on_c, 1, 79, 110
3, 134976, Note_on_c, 1, 74, 110
3, 135068, Note_on_c, 1, 74, 0
3, 135068, Note_on_c, 1, 79, 0
3, 135068, Note_on_c, 1, 83, 0
3, 135168, Note_on_c, 1, 81, 110
3, 135168, Note_on_c, 1, 78, 110
3, 135168, Note_on_c, 1, 74, 110
3, 135548, Note_on_c, 1, 74, 0
3, 135548, Note_on_c, 1, 78, 0
3, 135548, Note_on_c, 1, 81, 0
3, 135552, Note_on_c, 1, 86, 110
3, 135552, Note_on_c, 1, 81, 110
3, 135552, Note_on_c, 1, 78, 110
3, 135552, Note_on_c, 1, 74, 110
3, 135932, Note_on_c, 1, 74, 0
3, 135932, Note_on_c, 1, 86, 0
3, 135932, Note_on_c, 1, 81, 0
3, 135932, Note_on_c, 1, 78, 0
3, 135936, Note_on_c, 1, 62, 110
3, 136316, Note_on_c, 1, 62, 0
3, 136704, Note_on_c, 1, 71, 82
3, 136704, Note_on_c, 1, 67, 82
3, 136892, Note_on_c, 1, 67, 0
3, 136892, Note_on_c, 1, 71, 0
3, 136896, Note_on_c, 1, 62, 82
3, 137084, Note_on_c, 1, 62, 0
3, 137088, Note_on_c, 1, 71, 82
3, 137088, Note_on_c, 1, 67, 82
3, 137276, Note_on_c, 1, 67, 0
3, 137276, Note_on_c, 1, 71, 0
3, 137280, Note_on_c, 1, 62, 82
3, 137468, Note_on_c, 1, 62, 0
3, 137472, Note_on_c, 1, 71, 82
3, 137472, Note_on_c, 1, 67, 82
3, 137660, Note_on_c, 1, 67, 0
3, 137660, Note_on_c, 1, 71, 0
3, 137664, Note_on_c, 1, 62, 82
3, 137852, Note_on_c, 1, 62, 0
3, 137856, Note_on_c, 1, 71, 82
3, 137856, Note_on_c, 1, 67, 82
3, 138044, Note_on_c, 1, 67, 0
3, 138044, Note_on_c, 1, 71, 0
3, 138048, Note_on_c, 1, 62, 82
3, 138236, Note_on_c, 1, 62, 0
3, 138240, Note_on_c, 1, 71, 82
3, 138240, Note_on_c, 1, 67, 82
3, 138428, Note_on_c, 1, 67, 0
3, 138428, Note_on_c, 1, 71, 0
3, 138432, Note_on_c, 1, 62, 82
3, 138620, Note_on_c, 1, 62, 0
3, 138624, Note_on_c, 1, 71, 82
3, 138624, Note_on_c, 1, 67, 82
3, 138812, Note_on_c, 1, 67, 0
3, 138812, Note_on_c, 1, 71, 0
3, 138816, Note_on_c, 1, 62, 82
3, 139004, Note_on_c, 1, 62, 0
3, 139008, Note_on_c, 1, 71, 82
3, 139008, Note_on_c, 1, 67, 82
3, 139196, Note_on_c, 1, 67, 0
3, 139196, Note_on_c, 1, 71, 0
3, 139200, Note_on_c, 1, 62, 82
3, 139388, Note_on_c, 1, 62, 0
3, 139392, Note_on_c, 1, 71, 82
3, 139392, Note_on_c, 1, 67, 82
3, 139580, Note_on_c, 1, 67, 0
3, 139580, Note_on_c, 1, 71, 0
3, 139584, Note_on_c, 1, 62, 82
3, 139772, Note_on_c, 1, 62, 0
3, 139776, Note_on_c, 1, 74, 82
3, 139776, Note_on_c, 1, 71, 82
3, 139868, Note_on_c, 1, 74, 0
3, 139872, Note_on_c, 1, 76, 82
3, 139964, Note_on_c, 1, 76, 0
3, 139968, Note_on_c, 1, 74, 82
3, 140060, Note_on_c, 1, 74, 0
3, 140064, Note_on_c, 1, 72, 82
3, 140156, Note_on_c, 1, 72, 0
3, 140156, Note_on_c, 1, 71, 0
3, 140160, Note_on_c, 1, 71, 82
3, 140160, Note_on_c, 1, 67, 82
3, 140540, Note_on_c, 1, 67, 0
3, 140540, Note_on_c, 1, 71, 0
3, 140544, Note_on_c, 1, 62, 82
3, 140636, Note_on_c, 1, 62, 0
3, 140736, Note_on_c, 1, 64, 82
3, 140828, Note_on_c, 1, 64, 0
3, 140928, Note_on_c, 1, 66, 82
3, 141020, Note_on_c, 1, 66, 0
3, 141120, Note_on_c, 1, 67, 82
3, 141212, Note_on_c, 1, 67, 0
3, 141312, Note_on_c, 1, 67, 82
3, 141500, Note_on_c, 1, 67, 0
3, 141504, Note_on_c, 1, 66, 82
3, 141692, Note_on_c, 1, 66, 0
3, 141696, Note_on_c, 1, 64, 82
3, 141884, Note_on_c, 1, 64, 0
3, 141888, Note_on_c, 1, 62, 82
3, 142076, Note_on_c, 1, 62, 0
3, 142080, Note_on_c, 1, 62, 82
3, 142172, Note_on_c, 1, 62, 0
3, 142176, Note_on_c, 1, 60, 82
3, 142268, Note_on_c, 1, 60, 0
3, 142272, Note_on_c, 1, 59, 82
3, 142364, Note_on_c, 1, 59, 0
3, 142384, Note_on_c, 1, 60, 82
3, 142464, Note_on_c, 1, 64, 82
3, 142476, Note_on_c, 1, 60, 0
3, 142652, Note_on_c, 1, 64, 0
3, 142656, Note_on_c, 1, 60, 82
3, 142844, Note_on_c, 1, 60, 0
3, 142848, Note_on_c, 1, 58, 82
3, 143036, Note_on_c, 1, 58, 0
3, 143040, Note_on_c, 1, 59, 82
3, 143228, Note_on_c, 1, 59, 0
3, 143424, Note_on_c, 1, 59, 82
3, 143516, Note_on_c, 1, 59, 0
3, 143520, Note_on_c, 1, 60, 82
3, 143612, Note_on_c, 1, 60, 0
3, 143616, Note_on_c, 1, 62, 82
3, 143708, Note_on_c, 1, 62, 0
3, 143808, Note_on_c, 1, 64, 82
3, 143900, Note_on_c, 1, 64, 0
3, 144000, Note_on_c, 1, 66, 82
3, 144092, Note_on_c, 1, 66, 0
3, 144192, Note_on_c, 1, 67, 82
3, 144284, Note_on_c, 1, 67, 0
3, 144384, Note_on_c, 1, 67, 82
3, 144572, Note_on_c, 1, 67, 0
3, 144576, Note_on_c, 1, 66, 82
3, 144764, Note_on_c, 1, 66, 0
3, 144768, Note_on_c, 1, 64, 82
3, 144956, Note_on_c, 1, 64, 0
3, 144960, Note_on_c, 1, 62, 82
3, 145148, Note_on_c, 1, 62, 0
3, 145152, Note_on_c, 1, 62, 82
3, 145244, Note_on_c, 1, 62, 0
3, 145248, Note_on_c, 1, 60, 82
3, 145340, Note_on_c, 1, 60, 0
3, 145344, Note_on_c, 1, 59, 82
3, 145436, Note_on_c, 1, 59, 0
3, 145440, Note_on_c, 1, 60, 82
3, 145532, Note_on_c, 1, 60, 0
3, 145536, Note_on_c, 1, 64, 82
3, 145680, Note_on_c, 1, 60, 82
3, 145724, Note_on_c, 1, 64, 0
3, 145868, Note_on_c, 1, 60, 0
3, 145920, Note_on_c, 1, 59, 82
3, 145920, Note_on_c, 1, 62, 82
3, 146012, Note_on_c, 1, 62, 0
3, 146016, Note_on_c, 1, 64, 82
3, 146108, Note_on_c, 1, 64, 0
3, 146112, Note_on_c, 1, 62, 82
3, 146204, Note_on_c, 1, 62, 0
3, 146208, Note_on_c, 1, 60, 82
3, 146300, Note_on_c, 1, 60, 0
3, 146300, Note_on_c, 1, 59, 0
3, 146304, Note_on_c, 1, 59, 82
3, 146304, Note_on_c, 1, 55, 82
3, 146684, Note_on_c, 1, 55, 0
3, 146684, Note_on_c, 1, 59, 0
3, 147456, Note_on_c, 1, 64, 85
3, 147456, Note_on_c, 1, 67, 85
3, 147548, Note_on_c, 1, 67, 0
3, 147552, Note_on_c, 1, 69, 85
3, 147644, Note_on_c, 1, 69, 0
3, 147648, Note_on_c, 1, 67, 86
3, 147740, Note_on_c, 1, 67, 0
3, 147744, Note_on_c, 1, 65, 86
3, 147836, Note_on_c, 1, 65, 0
3, 147836, Note_on_c, 1, 64, 0
3, 147840, Note_on_c, 1, 64, 86
3, 147840, Note_on_c, 1, 60, 86
3, 148220, Note_on_c, 1, 60, 0
3, 148220, Note_on_c, 1, 64, 0
3, 148992, Note_on_c, 1, 65, 91
3, 148992, Note_on_c, 1, 62, 91
3, 149084, Note_on_c, 1, 65, 0
3, 149088, Note_on_c, 1, 67, 92
3, 149180, Note_on_c, 1, 67, 0
3, 149184, Note_on_c, 1, 65, 92
3, 149276, Note_on_c, 1, 65, 0
3, 149280, Note_on_c, 1, 64, 92
3, 149372, Note_on_c, 1, 64, 0
3, 149372, Note_on_c, 1, 62, 0
3, 149376, Note_on_c, 1, 62, 93
3, 149376, Note_on_c, 1, 59, 93
3, 149756, Note_on_c, 1, 59, 0
3, 149756, Note_on_c, 1, 62, 0
3, 156672, Note_on_c, 1, 76, 99
3, 156764, Note_on_c, 1, 76, 0
3, 156768, Note_on_c, 1, 72, 99
3, 156860, Note_on_c, 1, 72, 0
3, 156864, Note_on_c, 1, 76, 99
3, 156956, Note_on_c, 1, 76, 0
3, 156960, Note_on_c, 1, 72, 99
3, 157052, Note_on_c, 1, 72, 0
3, 157056, Note_on_c, 1, 69, 99
3, 157244, Note_on_c, 1, 69, 0
3, 157248, Note_on_c, 1, 76, 99
3, 157248, Note_on_c, 1, 72, 99
3, 157340, Note_on_c, 1, 72, 0
3, 157340, Note_on_c, 1, 76, 0
3, 157440, Note_on_c, 1, 74, 99
3, 157440, Note_on_c, 1, 71, 99
3, 157532, Note_on_c, 1, 71, 0
3, 157532, Note_on_c, 1, 74, 0
3, 157632, Note_on_c, 1, 72, 99
3, 157632, Note_on_c, 1, 69, 99
3, 157724, Note_on_c, 1, 69, 0
3, 157724, Note_on_c, 1, 72, 0
3, 157824, Note_on_c, 1, 71, 99
3, 157824, Note_on_c, 1, 67, 99
3, 157916, Note_on_c, 1, 67, 0
3, 157916, Note_on_c, 1, 71, 0
3, 158016, Note_on_c, 1, 69, 99
3, 158016, Note_on_c, 1, 66, 99
3, 158108, Note_on_c, 1, 66, 0
3, 158108, Note_on_c, 1, 69, 0
3, 158208, Note_on_c, 1, 67, 99
3, 158300, Note_on_c, 1, 67, 0
3, 158304, Note_on_c, 1, 71, 99
3, 158396, Note_on_c, 1, 71, 0
3, 158400, Note_on_c, 1, 69, 99
3, 158492, Note_on_c, 1, 69, 0
3, 158496, Note_on_c, 1, 72, 99
3, 158588, Note_on_c, 1, 72, 0
3, 158592, Note_on_c, 1, 71, 99
3, 158684, Note_on_c, 1, 71, 0
3, 158688, Note_on_c, 1, 74, 99
3, 158780, Note_on_c, 1, 74, 0
3, 158784, Note_on_c, 1, 72, 99
3, 158876, Note_on_c, 1, 72, 0
3, 158880, Note_on_c, 1, 76, 99
3, 158972, Note_on_c, 1, 76, 0
3, 158976, Note_on_c, 1, 74, 95
3, 159068, Note_on_c, 1, 74, 0
3, 159168, Note_on_c, 1, 76, 92
3, 159260, Note_on_c, 1, 76, 0
3, 159360, Note_on_c, 1, 78, 89
3, 159452, Note_on_c, 1, 78, 0
3, 159552, Note_on_c, 1, 79, 85
3, 159644, Note_on_c, 1, 79, 0
3, 159744, Note_on_c, 1, 69, 82
3, 159836, Note_on_c, 1, 69, 0
3, 159840, Note_on_c, 1, 71, 82
3, 159932, Note_on_c, 1, 71, 0
3, 159936, Note_on_c, 1, 69, 82
3, 160028, Note_on_c, 1, 69, 0
3, 160032, Note_on_c, 1, 71, 82
3, 160124, Note_on_c, 1, 71, 0
3, 160128, Note_on_c, 1, 69, 82
3, 160508, Note_on_c, 1, 69, 0
3, 160512, Note_on_c, 1, 84, 82
3, 160604, Note_on_c, 1, 84, 0
3, 160608, Note_on_c, 1, 83, 82
3, 160700, Note_on_c, 1, 83, 0
3, 160704, Note_on_c, 1, 84, 82
3, 160796, Note_on_c, 1, 84, 0
3, 160800, Note_on_c, 1, 83, 82
3, 160892, Note_on_c, 1, 83, 0
3, 160896, Note_on_c, 1, 84, 82
3, 161276, Note_on_c, 1, 84, 0
3, 161280, Note_on_c, 1, 67, 82
3, 161372, Note_on_c, 1, 67, 0
3, 161376, Note_on_c, 1, 69, 82
3, 161468, Note_on_c, 1, 69, 0
3, 161472, Note_on_c, 1, 67, 82
3, 161564, Note_on_c, 1, 67, 0
3, 161568, Note_on_c, 1, 69, 82
3, 161660, Note_on_c, 1, 69, 0
3, 161664, Note_on_c, 1, 67, 82
3, 162044, Note_on_c, 1, 67, 0
3, 162048, Note_on_c, 1, 83, 82
3, 162140, Note_on_c, 1, 83, 0
3, 162144, Note_on_c, 1, 82, 82
3, 162236, Note_on_c, 1, 82, 0
3, 162240, Note_on_c, 1, 83, 82
3, 162332, Note_on_c, 1, 83, 0
3, 162336, Note_on_c, 1, 82, 82
3, 162428, Note_on_c, 1, 82, 0
3, 162432, Note_on_c, 1, 67, 82
3, 162432, Note_on_c, 1, 83, 82
3, 162524, Note_on_c, 1, 67, 0
3, 162528, Note_on_c, 1, 66, 82
3, 162620, Note_on_c, 1, 66, 0
3, 162624, Note_on_c, 1, 64, 82
3, 162716, Note_on_c, 1, 64, 0
3, 162720, Note_on_c, 1, 62, 82
3, 162812, Note_on_c, 1, 62, 0
3, 162812, Note_on_c, 1, 83, 0
3, 165120, Note_on_c, 1, 67, 88
3, 165308, Note_on_c, 1, 67, 0
3, 165312, Note_on_c, 1, 62, 82
3, 165500, Note_on_c, 1, 62, 0
3, 165504, Note_on_c, 1, 69, 88
3, 165692, Note_on_c, 1, 69, 0
3, 165696, Note_on_c, 1, 62, 82
3, 165884, Note_on_c, 1, 62, 0
3, 165888, Note_on_c, 1, 71, 88
3, 166076, Note_on_c, 1, 71, 0
3, 166080, Note_on_c, 1, 62, 82
3, 166268, Note_on_c, 1, 62, 0
3, 166272, Note_on_c, 1, 71, 88
3, 166460, Note_on_c, 1, 71, 0
3, 166464, Note_on_c, 1, 62, 82
3, 166652, Note_on_c, 1, 62, 0
3, 166656, Note_on_c, 1, 67, 88
3, 166844, Note_on_c, 1, 67, 0
3, 166848, Note_on_c, 1, 62, 82
3, 167036, Note_on_c, 1, 62, 0
3, 167040, Note_on_c, 1, 69, 88
3, 167228, Note_on_c, 1, 69, 0
3, 167232, Note_on_c, 1, 62, 82
3, 167420, Note_on_c, 1, 62, 0
3, 167424, Note_on_c, 1, 71, 88
3, 167612, Note_on_c, 1, 71, 0
3, 167616, Note_on_c, 1, 62, 82
3, 167804, Note_on_c, 1, 62, 0
3, 167808, Note_on_c, 1, 71, 88
3, 167996, Note_on_c, 1, 71, 0
3, 168000, Note_on_c, 1, 62, 82
3, 168188, Note_on_c, 1, 62, 0
3, 168192, Note_on_c, 1, 67, 88
3, 168380, Note_on_c, 1, 67, 0
3, 168384, Note_on_c, 1, 62, 82
3, 168572, Note_on_c, 1, 62, 0
3, 168576, Note_on_c, 1, 69, 88
3, 168764, Note_on_c, 1, 69, 0
3, 168768, Note_on_c, 1, 62, 82
3, 168956, Note_on_c, 1, 62, 0
3, 168960, Note_on_c, 1, 71, 88
3, 169148, Note_on_c, 1, 71, 0
3, 169152, Note_on_c, 1, 62, 82
3, 169340, Note_on_c, 1, 62, 0
3, 169344, Note_on_c, 1, 69, 88
3, 169532, Note_on_c, 1, 69, 0
3, 169536, Note_on_c, 1, 62, 82
3, 169724, Note_on_c, 1, 62, 0
3, 169728, Note_on_c, 1, 67, 88
3, 169916, Note_on_c, 1, 67, 0
3, 169920, Note_on_c, 1, 62, 82
3, 170108, Note_on_c, 1, 62, 0
3, 170112, Note_on_c, 1, 66, 88
3, 170300, Note_on_c, 1, 66, 0
3, 170304, Note_on_c, 1, 62, 82
3, 170492, Note_on_c, 1, 62, 0
3, 184704, Note_on_c, 1, 79, 110
3, 184704, Note_on_c, 1, 76, 110
3, 184892, Note_on_c, 1, 76, 0
3, 184892, Note_on_c, 1, 79, 0
3, 185088, Note_on_c, 1, 78, 110
3, 185088, Note_on_c, 1, 74, 110
3, 185276, Note_on_c, 1, 74, 0
3, 185276, Note_on_c, 1, 78, 0
3, 185472, Note_on_c, 1, 76, 110
3, 185472, Note_on_c, 1, 72, 110
3, 185660, Note_on_c, 1, 72, 0
3, 185660, Note_on_c, 1, 76, 0
3, 185856, Note_on_c, 1, 74, 110
3, 185856, Note_on_c, 1, 71, 110
3, 186428, Note_on_c, 1, 71, 0
3, 186428, Note_on_c, 1, 74, 0
3, 186432, Note_on_c, 1, 72, 110
3, 186432, Note_on_c, 1, 69, 110
3, 186524, Note_on_c, 1, 69, 0
3, 186524, Note_on_c, 1, 72, 0
3, 186624, Note_on_c, 1, 71, 110
3, 186624, Note_on_c, 1, 67, 110
3, 187004, Note_on_c, 1, 67, 0
3, 187004, Note_on_c, 1, 71, 0
3, 187008, Note_on_c, 1, 67, 110
3, 187008, Note_on_c, 1, 71, 110
3, 187100, Note_on_c, 1, 71, 0
3, 187104, Note_on_c, 1, 72, 110
3, 187196, Note_on_c, 1, 72, 0
3, 187200, Note_on_c, 1, 74, 110
3, 187292, Note_on_c, 1, 74, 0
3, 187296, Note_on_c, 1, 71, 110
3, 187388, Note_on_c, 1, 71, 0
3, 187388, Note_on_c, 1, 67, 0
3, 187392, Note_on_c, 1, 76, 110
3, 187392, Note_on_c, 1, 72, 110
3, 187772, Note_on_c, 1, 72, 0
3, 187772, Note_on_c, 1, 76, 0
3, 187776, Note_on_c, 1, 76, 82
3, 187776, Note_on_c, 1, 67, 82
3, 187964, Note_on_c, 1, 67, 0
3, 187964, Note_on_c, 1, 76, 0
3, 188160, Note_on_c, 1, 74, 82
3, 188160, Note_on_c, 1, 66, 82
3, 188348, Note_on_c, 1, 66, 0
3, 188348, Note_on_c, 1, 74, 0
3, 188544, Note_on_c, 1, 72, 82
3, 188544, Note_on_c, 1, 64, 82
3, 188732, Note_on_c, 1, 64, 0
3, 188732, Note_on_c, 1, 72, 0
3, 188928, Note_on_c, 1, 71, 82
3, 188928, Note_on_c, 1, 62, 82
3, 189500, Note_on_c, 1, 62, 0
3, 189500, Note_on_c, 1, 71, 0
3, 189504, Note_on_c, 1, 69, 82
3, 189504, Note_on_c, 1, 60, 82
3, 189692, Note_on_c, 1, 60, 0
3, 189692, Note_on_c, 1, 69, 0
3, 189696, Note_on_c, 1, 67, 82
3, 189696, Note_on_c, 1, 59, 82
3, 190076, Note_on_c, 1, 59, 0
3, 190076, Note_on_c, 1, 67, 0
3, 190080, Note_on_c, 1, 67, 110
3, 190172, Note_on_c, 1, 67, 0
3, 190176, Note_on_c, 1, 69, 110
3, 190268, Note_on_c, 1, 69, 0
3, 190272, Note_on_c, 1, 71, 110
3, 190364, Note_on_c, 1, 71, 0
3, 190368, Note_on_c, 1, 67, 110
3, 190460, Note_on_c, 1, 67, 0
3, 190464, Note_on_c, 1, 72, 115
3, 190464, Note_on_c, 1, 69, 115
3, 190832, Note_on_c, 1, 84, 115
3, 190844, Note_on_c, 1, 69, 0
3, 190844, Note_on_c, 1, 72, 0
3, 190848, Note_on_c, 1, 81, 115
3, 190848, Note_on_c, 1, 74, 115
3, 191596, Note_on_c, 1, 84, 0
3, 191612, Note_on_c, 1, 74, 0
3, 191612, Note_on_c, 1, 81, 0
3, 191616, Note_on_c, 1, 72, 115
3, 191616, Note_on_c, 1, 69, 115
3, 191996, Note_on_c, 1, 69, 0
3, 191996, Note_on_c, 1, 72, 0
3, 192000, Note_on_c, 1, 71, 115
3, 192000, Note_on_c, 1, 67, 115
3, 192380, Note_on_c, 1, 67, 0
3, 192380, Note_on_c, 1, 71, 0
3, 192384, Note_on_c, 1, 83, 115
3, 192384, Note_on_c, 1, 79, 115
3, 192384, Note_on_c, 1, 74, 115
3, 193148, Note_on_c, 1, 74, 0
3, 193148, Note_on_c, 1, 79, 0
3, 193148, Note_on_c, 1, 83, 0
3, 193152, Note_on_c, 1, 71, 115
3, 193152, Note_on_c, 1, 67, 115
3, 193532, Note_on_c, 1, 67, 0
3, 193532, Note_on_c, 1, 71, 0
3, 193536, Note_on_c, 1, 69, 115
3, 193536, Note_on_c, 1, 64, 115
3, 193916, Note_on_c, 1, 64, 0
3, 193916, Note_on_c, 1, 69, 0
3, 193920, Note_on_c, 1, 78, 115
3, 194012, Note_on_c, 1, 78, 0
3, 194016, Note_on_c, 1, 76, 115
3, 194108, Note_on_c, 1, 76, 0
3, 194112, Note_on_c, 1, 74, 115
3, 194204, Note_on_c, 1, 74, 0
3, 194208, Note_on_c, 1, 72, 115
3, 194300, Note_on_c, 1, 72, 0
3, 194304, Note_on_c, 1, 71, 115
3, 194304, Note_on_c, 1, 67, 115
3, 194684, Note_on_c, 1, 67, 0
3, 194684, Note_on_c, 1, 71, 0
3, 194688, Note_on_c, 1, 69, 115
3, 194688, Note_on_c, 1, 66, 115
3, 195068, Note_on_c, 1, 66, 0
3, 195068, Note_on_c, 1, 69, 0
3, 195072, Note_on_c, 1, 86, 115
3, 195164, Note_on_c, 1, 86, 0
3, 195168, Note_on_c, 1, 84, 115
3, 195260, Note_on_c, 1, 84, 0
3, 195264, Note_on_c, 1, 83, 115
3, 195356, Note_on_c, 1, 83, 0
3, 195360, Note_on_c, 1, 81, 115
3, 195452, Note_on_c, 1, 81, 0
3, 195456, Note_on_c, 1, 79, 115
3, 195548, Note_on_c, 1, 79, 0
3, 195552, Note_on_c, 1, 78, 115
3, 195644, Note_on_c, 1, 78, 0
3, 195648, Note_on_c, 1, 76, 115
3, 195740, Note_on_c, 1, 76, 0
3, 195744, Note_on_c, 1, 74, 115
3, 195836, Note_on_c, 1, 74, 0
3, 195840, Note_on_c, 1, 76, 115
3, 195932, Note_on_c, 1, 76, 0
3, 196032, Note_on_c, 1, 79, 115
3, 196124, Note_on_c, 1, 79, 0
3, 196224, Note_on_c, 1, 84, 115
3, 196316, Note_on_c, 1, 84, 0
3, 196416, Note_on_c, 1, 88, 115
3, 196508, Note_on_c, 1, 88, 0
3, 196608, Note_on_c, 1, 62, 115
3, 196988, Note_on_c, 1, 62, 0
3, 196992, Note_on_c, 1, 83, 115
3, 196992, Note_on_c, 1, 86, 115
3, 197372, Note_on_c, 1, 86, 0
3, 197372, Note_on_c, 1, 83, 0
3, 197376, Note_on_c, 1, 83, 115
3, 197376, Note_on_c, 1, 86, 115
3, 197564, Note_on_c, 1, 86, 0
3, 197564, Note_on_c, 1, 83, 0
3, 197568, Note_on_c, 1, 84, 115
3, 197568, Note_on_c, 1, 88, 115
3, 197648, Note_on_c, 1, 86, 115
3, 197660, Note_on_c, 1, 88, 0
3, 197660, Note_on_c, 1, 84, 0
3, 197664, Note_on_c, 1, 83, 115
3, 197740, Note_on_c, 1, 86, 0
3, 197744, Note_on_c, 1, 84, 115
3, 197756, Note_on_c, 1, 83, 0
3, 197776, Note_on_c, 1, 81, 115
3, 197932, Note_on_c, 1, 84, 0
3, 197952, Note_on_c, 1, 79, 115
3, 197952, Note_on_c, 1, 83, 115
3, 197964, Note_on_c, 1, 81, 0
3, 198044, Note_on_c, 1, 83, 0
3, 198044, Note_on_c, 1, 79, 0
3, 198144, Note_on_c, 1, 83, 115
3, 198144, Note_on_c, 1, 74, 115
3, 198428, Note_on_c, 1, 74, 0
3, 198428, Note_on_c, 1, 83, 0
3, 198432, Note_on_c, 1, 81, 115
3, 198432, Note_on_c, 1, 72, 115
3, 198524, Note_on_c, 1, 72, 0
3, 198524, Note_on_c, 1, 81, 0
3, 198528, Note_on_c, 1, 79, 115
3, 198528, Note_on_c, 1, 71, 115
3, 199292, Note_on_c, 1, 71, 0
3, 199292, Note_on_c, 1, 79, 0
3, 199296, Note_on_c, 1, 69, 115
3, 199296, Note_on_c, 1, 78, 115
3, 199676, Note_on_c, 1, 78, 0
3, 199676, Note_on_c, 1, 69, 0
3, 199680, Note_on_c, 1, 79, 115
3, 199680, Note_on_c, 1, 71, 115
3, 200060, Note_on_c, 1, 71, 0
3, 200060, Note_on_c, 1, 79, 0
3, 200256, Note_on_c, 1, 67, 82
3, 200348, Note_on_c, 1, 67, 0
3, 200640, Note_on_c, 1, 66, 82
3, 200732, Note_on_c, 1, 66, 0
3, 201024, Note_on_c, 1, 64, 82
3, 201116, Note_on_c, 1, 64, 0
3, 201216, Note_on_c, 1, 63, 110
3, 201308, Note_on_c, 1, 63, 0
3, 201408, Note_on_c, 1, 63, 82
3, 201500, Note_on_c, 1, 63, 0
3, 201792, Note_on_c, 1, 64, 82
3, 201980, Note_on_c, 1, 64, 0
3, 202176, Note_on_c, 1, 62, 82
3, 202364, Note_on_c, 1, 62, 0
3, 202560, Note_on_c, 1, 60, 82
3, 202748, Note_on_c, 1, 60, 0
3, 202752, Note_on_c, 1, 59, 110
3, 202844, Note_on_c, 1, 59, 0
3, 202944, Note_on_c, 1, 59, 110
3, 203036, Note_on_c, 1, 59, 0
3, 203328, Note_on_c, 1, 60, 82
3, 203516, Note_on_c, 1, 60, 0
3, 203712, Note_on_c, 1, 59, 82
3, 203900, Note_on_c, 1, 59, 0
3, 204096, Note_on_c, 1, 57, 82
3, 204284, Note_on_c, 1, 57, 0
3, 204480, Note_on_c, 1, 56, 82
3, 204668, Note_on_c, 1, 56, 0
3, 204672, Note_on_c, 1, 59, 82
3, 204860, Note_on_c, 1, 59, 0
3, 204864, Note_on_c, 1, 64, 82
3, 205052, Note_on_c, 1, 64, 0
3, 205248, Note_on_c, 1, 56, 82
3, 205436, Note_on_c, 1, 56, 0
3, 205440, Note_on_c, 1, 59, 82
3, 205628, Note_on_c, 1, 59, 0
3, 205632, Note_on_c, 1, 64, 82
3, 205820, Note_on_c, 1, 64, 0
3, 206016, Note_on_c, 1, 57, 82
3, 206204, Note_on_c, 1, 57, 0
3, 206208, Note_on_c, 1, 60, 82
3, 206396, Note_on_c, 1, 60, 0
3, 206400, Note_on_c, 1, 64, 82
3, 206588, Note_on_c, 1, 64, 0
3, 206784, Note_on_c, 1, 57, 82
3, 206972, Note_on_c, 1, 57, 0
3, 206976, Note_on_c, 1, 60, 82
3, 207164, Note_on_c, 1, 60, 0
3, 207168, Note_on_c, 1, 64, 82
3, 207356, Note_on_c, 1, 64, 0
3, 207552, Note_on_c, 1, 59, 82
3, 207740, Note_on_c, 1, 59, 0
3, 207744, Note_on_c, 1, 62, 82
3, 207932, Note_on_c, 1, 62, 0
3, 207936, Note_on_c, 1, 64, 82
3, 208124, Note_on_c, 1, 64, 0
3, 208320, Note_on_c, 1, 59, 82
3, 208508, Note_on_c, 1, 59, 0
3, 208512, Note_on_c, 1, 64, 82
3, 208700, Note_on_c, 1, 64, 0
3, 208704, Note_on_c, 1, 68, 82
3, 208892, Note_on_c, 1, 68, 0
3, 209088, Note_on_c, 1, 60, 82
3, 209276, Note_on_c, 1, 60, 0
3, 209280, Note_on_c, 1, 64, 82
3, 209468, Note_on_c, 1, 64, 0
3, 209472, Note_on_c, 1, 69, 82
3, 209660, Note_on_c, 1, 69, 0
3, 209856, Note_on_c, 1, 60, 82
3, 210044, Note_on_c, 1, 60, 0
3, 210048, Note_on_c, 1, 64, 82
3, 210236, Note_on_c, 1, 64, 0
3, 210240, Note_on_c, 1, 69, 82
3, 210428, Note_on_c, 1, 69, 0
3, 210432, Note_on_c, 1, 69, 82
3, 210816, Note_on_c, 1, 74, 82
3, 211196, Note_on_c, 1, 74, 0
3, 211200, Note_on_c, 1, 72, 82
3, 211580, Note_on_c, 1, 72, 0
3, 211580, Note_on_c, 1, 69, 0
3, 211584, Note_on_c, 1, 71, 82
3, 211584, Note_on_c, 1, 68, 82
3, 211964, Note_on_c, 1, 68, 0
3, 211964, Note_on_c, 1, 71, 0
3, 211968, Note_on_c, 1, 72, 82
3, 211968, Note_on_c, 1, 69, 82
3, 212156, Note_on_c, 1, 69, 0
3, 212156, Note_on_c, 1, 72, 0
3, 212352, Note_on_c, 1, 68, 82
3, 212540, Note_on_c, 1, 68, 0
3, 212736, Note_on_c, 1, 69, 82
3, 212924, Note_on_c, 1, 69, 0
3, 213504, Note_on_c, 1, 65, 82
3, 213504, Note_on_c, 1, 59, 82
3, 214076, Note_on_c, 1, 59, 0
3, 214076, Note_on_c, 1, 65, 0
3, 214080, Note_on_c, 1, 74, 82
3, 214080, Note_on_c, 1, 71, 82
3, 214080, Note_on_c, 1, 65, 82
3, 214268, Note_on_c, 1, 65, 0
3, 214268, Note_on_c, 1, 71, 0
3, 214268, Note_on_c, 1, 74, 0
3, 214272, Note_on_c, 1, 72, 82
3, 214272, Note_on_c, 1, 69, 82
3, 214272, Note_on_c, 1, 64, 82
3, 214640, Note_on_c, 1, 62, 82
3, 214652, Note_on_c, 1, 64, 0
3, 214652, Note_on_c, 1, 72, 0
3, 214652, Note_on_c, 1, 69, 0
3, 214656, Note_on_c, 1, 71, 82
3, 214656, Note_on_c, 1, 68, 82
3, 215020, Note_on_c, 1, 62, 0
3, 215036, Note_on_c, 1, 68, 0
3, 215036, Note_on_c, 1, 71, 0
3, 219840, Note_on_c, 1, 61, 82
3, 220028, Note_on_c, 1, 61, 0
3, 220032, Note_on_c, 1, 64, 82
3, 220220, Note_on_c, 1, 64, 0
3, 220224, Note_on_c, 1, 69, 82
3, 220412, Note_on_c, 1, 69, 0
3, 220608, Note_on_c, 1, 61, 82
3, 220796, Note_on_c, 1, 61, 0
3, 220800, Note_on_c, 1, 64, 82
3, 220988, Note_on_c, 1, 64, 0
3, 220992, Note_on_c, 1, 69, 82
3, 221180, Note_on_c, 1, 69, 0
3, 221376, Note_on_c, 1, 62, 82
3, 221564, Note_on_c, 1, 62, 0
3, 221568, Note_on_c, 1, 65, 82
3, 221756, Note_on_c, 1, 65, 0
3, 221760, Note_on_c, 1, 69, 82
3, 221948, Note_on_c, 1, 69, 0
3, 222144, Note_on_c, 1, 62, 82
3, 222332, Note_on_c, 1, 62, 0
3, 222336, Note_on_c, 1, 65, 82
3, 222524, Note_on_c, 1, 65, 0
3, 222528, Note_on_c, 1, 69, 82
3, 222716, Note_on_c, 1, 69, 0
3, 222912, Note_on_c, 1, 64, 82
3, 223100, Note_on_c, 1, 64, 0
3, 223104, Note_on_c, 1, 67, 82
3, 223292, Note_on_c, 1, 67, 0
3, 223296, Note_on_c, 1, 70, 82
3, 223484, Note_on_c, 1, 70, 0
3, 223680, Note_on_c, 1, 64, 82
3, 223868, Note_on_c, 1, 64, 0
3, 223872, Note_on_c, 1, 73, 82
3, 223872, Note_on_c, 1, 67, 82
3, 224060, Note_on_c, 1, 67, 0
3, 224060, Note_on_c, 1, 73, 0
3, 224064, Note_on_c, 1, 76, 82
3, 224252, Note_on_c, 1, 76, 0
3, 224448, Note_on_c, 1, 69, 82
3, 224540, Note_on_c, 1, 69, 0
3, 224640, Note_on_c, 1, 81, 82
3, 224732, Note_on_c, 1, 81, 0
3, 224832, Note_on_c, 1, 77, 82
3, 224924, Note_on_c, 1, 77, 0
3, 225024, Note_on_c, 1, 74, 82
3, 225116, Note_on_c, 1, 74, 0
3, 225216, Note_on_c, 1, 69, 82
3, 225308, Note_on_c, 1, 69, 0
3, 225408, Note_on_c, 1, 65, 82
3, 225500, Note_on_c, 1, 65, 0
3, 225600, Note_on_c, 1, 62, 82
3, 225692, Note_on_c, 1, 62, 0
3, 225792, Note_on_c, 1, 62, 82
3, 226176, Note_on_c, 1, 70, 82
3, 226364, Note_on_c, 1, 62, 0
3, 226368, Note_on_c, 1, 64, 82
3, 226556, Note_on_c, 1, 64, 0
3, 226556, Note_on_c, 1, 70, 0
3, 226560, Note_on_c, 1, 69, 82
3, 226560, Note_on_c, 1, 65, 82
3, 226928, Note_on_c, 1, 64, 82
3, 226940, Note_on_c, 1, 65, 0
3, 226940, Note_on_c, 1, 69, 0
3, 226944, Note_on_c, 1, 67, 82
3, 227308, Note_on_c, 1, 64, 0
3, 227324, Note_on_c, 1, 67, 0
3, 227328, Note_on_c, 1, 65, 82
3, 227328, Note_on_c, 1, 62, 82
3, 227516, Note_on_c, 1, 62, 0
3, 227516, Note_on_c, 1, 65, 0
3, 227712, Note_on_c, 1, 61, 82
3, 227900, Note_on_c, 1, 61, 0
3, 228096, Note_on_c, 1, 62, 82
3, 228284, Note_on_c, 1, 62, 0
3, 228864, Note_on_c, 1, 67, 82
3, 228864, Note_on_c, 1, 62, 82
3, 229436, Note_on_c, 1, 67, 0
3, 229440, Note_on_c, 1, 69, 82
3, 229532, Note_on_c, 1, 69, 0
3, 229536, Note_on_c, 1, 70, 82
3, 229628, Note_on_c, 1, 70, 0
3, 229628, Note_on_c, 1, 62, 0
3, 229632, Note_on_c, 1, 65, 82
3, 229632, Note_on_c, 1, 62, 82
3, 230012, Note_on_c, 1, 62, 0
3, 230012, Note_on_c, 1, 65, 0
3, 230016, Note_on_c, 1, 64, 82
3, 230016, Note_on_c, 1, 61, 82
3, 230396, Note_on_c, 1, 61, 0
3, 230396, Note_on_c, 1, 64, 0
3, 248832, Note_on_c, 1, 71, 82
3, 249212, Note_on_c, 1, 71, 0
3, 250560, Note_on_c, 1, 59, 82
3, 250748, Note_on_c, 1, 59, 0
3, 250752, Note_on_c, 1, 60, 82
3, 250940, Note_on_c, 1, 60, 0
3, 250944, Note_on_c, 1, 62, 82
3, 251132, Note_on_c, 1, 62, 0
3, 251136, Note_on_c, 1, 63, 82
3, 251324, Note_on_c, 1, 63, 0
3, 251328, Note_on_c, 1, 64, 82
3, 251516, Note_on_c, 1, 64, 0
3, 251520, Note_on_c, 1, 65, 82
3, 251708, Note_on_c, 1, 65, 0
3, 251712, Note_on_c, 1, 66, 82
3, 251900, Note_on_c, 1, 66, 0
3, 251904, Note_on_c, 1, 67, 82
3, 251996, Note_on_c, 1, 67, 0
3, 252096, Note_on_c, 1, 79, 82
3, 252096, Note_on_c, 1, 67, 82
3, 252188, Note_on_c, 1, 67, 0
3, 252188, Note_on_c, 1, 79, 0
3, 252288, Note_on_c, 1, 78, 82
3, 252288, Note_on_c, 1, 66, 82
3, 252380, Note_on_c, 1, 66, 0
3, 252380, Note_on_c, 1, 78, 0
3, 252480, Note_on_c, 1, 79, 82
3, 252480, Note_on_c, 1, 67, 82
3, 252572, Note_on_c, 1, 67, 0
3, 252572, Note_on_c, 1, 79, 0
3, 252864, Note_on_c, 1, 72, 110
3, 252904, Note_on_c, 1, 72, 0
3, 252912, Note_on_c, 1, 75, 110
3, 252952, Note_on_c, 1, 75, 0
3, 252960, Note_on_c, 1, 78, 110
3, 253000, Note_on_c, 1, 78, 0
3, 253008, Note_on_c, 1, 81, 110
3, 253048, Note_on_c, 1, 81, 0
3, 253056, Note_on_c, 1, 84, 110
3, 253148, Note_on_c, 1, 84, 0
3, 253248, Note_on_c, 1, 72, 82
3, 253340, Note_on_c, 1, 72, 0
3, 253440, Note_on_c, 1, 71, 82
3, 253628, Note_on_c, 1, 71, 0
3, 253632, Note_on_c, 1, 79, 82
3, 253632, Note_on_c, 1, 67, 82
3, 253820, Note_on_c, 1, 67, 0
3, 253820, Note_on_c, 1, 79, 0
3, 253824, Note_on_c, 1, 78, 82
3, 253824, Note_on_c, 1, 66, 82
3, 254012, Note_on_c, 1, 66, 0
3, 254012, Note_on_c, 1, 78, 0
3, 254016, Note_on_c, 1, 79, 82
3, 254016, Note_on_c, 1, 67, 82
3, 254204, Note_on_c, 1, 67, 0
3, 254204, Note_on_c, 1, 79, 0
3, 254400, Note_on_c, 1, 72, 110
3, 254440, Note_on_c, 1, 72, 0
3, 254448, Note_on_c, 1, 75, 110
3, 254488, Note_on_c, 1, 75, 0
3, 254496, Note_on_c, 1, 78, 110
3, 254536, Note_on_c, 1, 78, 0
3, 254544, Note_on_c, 1, 81, 110
3, 254584, Note_on_c, 1, 81, 0
3, 254592, Note_on_c, 1, 84, 110
3, 254684, Note_on_c, 1, 84, 0
3, 254784, Note_on_c, 1, 72, 82
3, 254876, Note_on_c, 1, 72, 0
3, 254976, Note_on_c, 1, 74, 82
3, 254976, Note_on_c, 1, 71, 82
3, 255068, Note_on_c, 1, 71, 0
3, 255068, Note_on_c, 1, 74, 0
3, 255168, Note_on_c, 1, 62, 82
3, 255168, Note_on_c, 1, 59, 82
3, 255260, Note_on_c, 1, 59, 0
3, 255260, Note_on_c, 1, 62, 0
3, 255552, Note_on_c, 1, 74, 82
3, 255552, Note_on_c, 1, 71, 82
3, 255644, Note_on_c, 1, 71, 0
3, 255644, Note_on_c, 1, 74, 0
3, 255744, Note_on_c, 1, 76, 84
3, 255744, Note_on_c, 1, 72, 84
3, 255836, Note_on_c, 1, 72, 0
3, 255836, Note_on_c, 1, 76, 0
3, 255936, Note_on_c, 1, 64, 86
3, 255936, Note_on_c, 1, 60, 86
3, 256028, Note_on_c, 1, 60, 0
3, 256028, Note_on_c, 1, 64, 0
3, 256320, Note_on_c, 1, 76, 90
3, 256320, Note_on_c, 1, 72, 90
3, 256412, Note_on_c, 1, 72, 0
3, 256412, Note_on_c, 1, 76, 0
3, 256512, Note_on_c, 1, 77, 92
3, 256512, Note_on_c, 1, 74, 92
3, 256604, Note_on_c, 1, 74, 0
3, 256604, Note_on_c, 1, 77, 0
3, 256704, Note_on_c, 1, 65, 93
3, 256704, Note_on_c, 1, 62, 93
3, 256796, Note_on_c, 1, 62, 0
3, 256796, Note_on_c, 1, 65, 0
3, 257088, Note_on_c, 1, 77, 95
3, 257088, Note_on_c, 1, 74, 95
3, 257180, Note_on_c, 1, 74, 0
3, 257180, Note_on_c, 1, 77, 0
3, 257280, Note_on_c, 1, 79, 96
3, 257280, Note_on_c, 1, 76, 96
3, 257372, Note_on_c, 1, 76, 0
3, 257372, Note_on_c, 1, 79, 0
3, 257472, Note_on_c, 1, 67, 97
3, 257472, Note_on_c, 1, 64, 97
3, 257564, Note_on_c, 1, 64, 0
3, 257564, Note_on_c, 1, 67, 0
3, 257856, Note_on_c, 1, 79, 100
3, 257856, Note_on_c, 1, 76, 100
3, 257948, Note_on_c, 1, 76, 0
3, 257948, Note_on_c, 1, 79, 0
3, 258048, Note_on_c, 1, 81, 101
3, 258048, Note_on_c, 1, 77, 101
3, 258140, Note_on_c, 1, 77, 0
3, 258140, Note_on_c, 1, 81, 0
3, 258240, Note_on_c, 1, 69, 102
3, 258240, Note_on_c, 1, 65, 102
3, 258332, Note_on_c, 1, 65, 0
3, 258332, Note_on_c, 1, 69, 0
3, 258624, Note_on_c, 1, 81, 103
3, 258624, Note_on_c, 1, 77, 103
3, 258716, Note_on_c, 1, 77, 0
3, 258716, Note_on_c, 1, 81, 0
3, 258816, Note_on_c, 1, 83, 104
3, 258816, Note_on_c, 1, 77, 104
3, 258816, Note_on_c, 1, 74, 104
3, 258908, Note_on_c, 1, 74, 0
3, 258908, Note_on_c, 1, 77, 0
3, 258908, Note_on_c, 1, 83, 0
3, 259008, Note_on_c, 1, 71, 105
3, 259008, Note_on_c, 1, 65, 105
3, 259008, Note_on_c, 1, 62, 105
3, 259100, Note_on_c, 1, 62, 0
3, 259100, Note_on_c, 1, 65, 0
3, 259100, Note_on_c, 1, 71, 0
3, 259392, Note_on_c, 1, 83, 107
3, 259392, Note_on_c, 1, 77, 107
3, 259392, Note_on_c, 1, 74, 107
3, 259484, Note_on_c, 1, 74, 0
3, 259484, Note_on_c, 1, 77, 0
3, 259484, Note_on_c, 1, 83, 0
3, 259584, Note_on_c, 1, 72, 110
3, 259596, Note_on_c, 1, 76, 110
3, 259612, Note_on_c, 1, 79, 110
3, 259628, Note_on_c, 1, 84, 110
3, 260156, Note_on_c, 1, 72, 0
3, 260160, Note_on_c, 1, 79, 110
3, 260168, Note_on_c, 1, 76, 0
3, 260184, Note_on_c, 1, 79, 0
3, 260200, Note_on_c, 1, 84, 0
3, 260252, Note_on_c, 1, 79, 0
3, 260352, Note_on_c, 1, 76, 110
3, 260444, Note_on_c, 1, 76, 0
3, 260544, Note_on_c, 1, 72, 110
3, 260636, Note_on_c, 1, 72, 0
3, 260736, Note_on_c, 1, 76, 110
3, 260828, Note_on_c, 1, 76, 0
3, 260928, Note_on_c, 1, 79, 110
3, 261020, Note_on_c, 1, 79, 0
3, 261120, Note_on_c, 1, 84, 110
3, 261692, Note_on_c, 1, 84, 0
3, 261696, Note_on_c, 1, 79, 110
3, 261788, Note_on_c, 1, 79, 0
3, 261888, Note_on_c, 1, 76, 110
3, 261980, Note_on_c, 1, 76, 0
3, 262080, Note_on_c, 1, 72, 110
3, 262172, Note_on_c, 1, 72, 0
3, 262272, Note_on_c, 1, 76, 110
3, 262364, Note_on_c, 1, 76, 0
3, 262464, Note_on_c, 1, 79, 110
3, 262556, Note_on_c, 1, 79, 0
3, 262656, Note_on_c, 1, 84, 110
3, 263036, Note_on_c, 1, 84, 0
3, 263040, Note_on_c, 1, 72, 82
3, 263420, Note_on_c, 1, 72, 0
3, 263424, Note_on_c, 1, 71, 82
3, 263804, Note_on_c, 1, 71, 0
3, 263808, Note_on_c, 1, 72, 82
3, 264188, Note_on_c, 1, 72, 0
3, 264192, Note_on_c, 1, 74, 110
3, 264380, Note_on_c, 1, 74, 0
3, 264576, Note_on_c, 1, 74, 82
3, 264956, Note_on_c, 1, 74, 0
3, 264960, Note_on_c, 1, 73, 82
3, 265340, Note_on_c, 1, 73, 0
3, 265344, Note_on_c, 1, 74, 82
3, 265724, Note_on_c, 1, 74, 0
3, 265728, Note_on_c, 1, 76, 110
3, 265728, Note_on_c, 1, 64, 110
3, 265820, Note_on_c, 1, 64, 0
3, 265920, Note_on_c, 1, 64, 82
3, 266012, Note_on_c, 1, 64, 0
3, 266108, Note_on_c, 1, 76, 0
3, 266112, Note_on_c, 1, 76, 82
3, 266304, Note_on_c, 1, 64, 82
3, 266492, Note_on_c, 1, 64, 0
3, 266492, Note_on_c, 1, 76, 0
3, 266496, Note_on_c, 1, 75, 82
3, 266704, Note_on_c, 1, 63, 82
3, 266876, Note_on_c, 1, 75, 0
3, 266880, Note_on_c, 1, 76, 82
3, 266892, Note_on_c, 1, 63, 0
3, 267072, Note_on_c, 1, 64, 82
3, 267260, Note_on_c, 1, 64, 0
3, 267260, Note_on_c, 1, 76, 0
3, 267264, Note_on_c, 1, 77, 83
3, 267456, Note_on_c, 1, 65, 91
3, 267644, Note_on_c, 1, 65, 0
3, 267644, Note_on_c, 1, 77, 0
3, 267648, Note_on_c, 1, 79, 90
3, 267840, Note_on_c, 1, 67, 98
3, 268028, Note_on_c, 1, 67, 0
3, 268028, Note_on_c, 1, 79, 0
3, 268032, Note_on_c, 1, 81, 96
3, 268224, Note_on_c, 1, 69, 105
3, 268412, Note_on_c, 1, 69, 0
3, 268412, Note_on_c, 1, 81, 0
3, 268416, Note_on_c, 1, 83, 103
3, 268608, Note_on_c, 1, 71, 110
3, 268796, Note_on_c, 1, 71, 0
3, 268796, Note_on_c, 1, 83, 0
3, 268800, Note_on_c, 1, 72, 110
3, 268800, Note_on_c, 1, 84, 110
3, 268928, Note_on_c, 1, 84, 0
3, 268928, Note_on_c, 1, 72, 0
3, 281088, Note_on_c, 1, 72, 110
3, 281088, Note_on_c, 1, 60, 110
3, 281180, Note_on_c, 1, 72, 0
3, 281184, Note_on_c, 1, 76, 110
3, 281276, Note_on_c, 1, 76, 0
3, 281280, Note_on_c, 1, 79, 110
3, 281372, Note_on_c, 1, 79, 0
3, 281468, Note_on_c, 1, 60, 0
3, 281472, Note_on_c, 1, 72, 110
3, 281564, Note_on_c, 1, 72, 0
3, 281664, Note_on_c, 1, 71, 110
3, 281756, Note_on_c, 1, 71, 0
3, 281760, Note_on_c, 1, 83, 110
3, 281852, Note_on_c, 1, 83, 0
3, 281856, Note_on_c, 1, 69, 110
3, 281948, Note_on_c, 1, 69, 0
3, 281952, Note_on_c, 1, 72, 110
3, 282044, Note_on_c, 1, 72, 0
3, 282048, Note_on_c, 1, 76, 110
3, 282140, Note_on_c, 1, 76, 0
3, 282144, Note_on_c, 1, 81, 110
3, 282236, Note_on_c, 1, 81, 0
3, 282240, Note_on_c, 1, 69, 110
3, 282332, Note_on_c, 1, 69, 0
3, 282336, Note_on_c, 1, 81, 110
3, 282428, Note_on_c, 1, 81, 0
3, 282432, Note_on_c, 1, 67, 110
3, 282524, Note_on_c, 1, 67, 0
3, 282528, Note_on_c, 1, 79, 110
3, 282620, Note_on_c, 1, 79, 0
3, 282624, Note_on_c, 1, 65, 110
3, 282716, Note_on_c, 1, 65, 0
3, 282720, Note_on_c, 1, 69, 110
3, 282812, Note_on_c, 1, 69, 0
3, 282816, Note_on_c, 1, 72, 110
3, 282908, Note_on_c, 1, 72, 0
3, 282912, Note_on_c, 1, 77, 110
3, 283004, Note_on_c, 1, 77, 0
3, 283008, Note_on_c, 1, 65, 110
3, 283100, Note_on_c, 1, 65, 0
3, 283104, Note_on_c, 1, 77, 110
3, 283196, Note_on_c, 1, 77, 0
3, 283200, Note_on_c, 1, 64, 110
3, 283292, Note_on_c, 1, 64, 0
3, 283296, Note_on_c, 1, 76, 110
3, 283388, Note_on_c, 1, 76, 0
3, 283392, Note_on_c, 1, 62, 110
3, 283484, Note_on_c, 1, 62, 0
3, 283488, Note_on_c, 1, 74, 110
3, 283580, Note_on_c, 1, 74, 0
3, 283584, Note_on_c, 1, 60, 110
3, 283676, Note_on_c, 1, 60, 0
3, 283680, Note_on_c, 1, 72, 110
3, 283772, Note_on_c, 1, 72, 0
3, 283776, Note_on_c, 1, 59, 110
3, 283868, Note_on_c, 1, 59, 0
3, 283872, Note_on_c, 1, 71, 110
3, 283964, Note_on_c, 1, 71, 0
3, 283968, Note_on_c, 1, 57, 110
3, 284060, Note_on_c, 1, 57, 0
3, 284064, Note_on_c, 1, 69, 110
3, 284156, Note_on_c, 1, 69, 0
3, 284160, Note_on_c, 1, 55, 110
3, 284348, Note_on_c, 1, 55, 0
3, 284352, Note_on_c, 1, 55, 110
3, 284444, Note_on_c, 1, 55, 0
3, 284448, Note_on_c, 1, 59, 110
3, 284540, Note_on_c, 1, 59, 0
3, 284544, Note_on_c, 1, 57, 110
3, 284636, Note_on_c, 1, 57, 0
3, 284640, Note_on_c, 1, 60, 110
3, 284732, Note_on_c, 1, 60, 0
3, 284736, Note_on_c, 1, 59, 110
3, 284828, Note_on_c, 1, 59, 0
3, 284832, Note_on_c, 1, 62, 110
3, 284924, Note_on_c, 1, 62, 0
3, 284928, Note_on_c, 1, 60, 110
3, 285020, Note_on_c, 1, 60, 0
3, 285024, Note_on_c, 1, 64, 110
3, 285116, Note_on_c, 1, 64, 0
3, 285120, Note_on_c, 1, 62, 110
3, 285212, Note_on_c, 1, 62, 0
3, 285216, Note_on_c, 1, 65, 110
3, 285308, Note_on_c, 1, 65, 0
3, 285312, Note_on_c, 1, 64, 110
3, 285404, Note_on_c, 1, 64, 0
3, 285408, Note_on_c, 1, 67, 110
3, 285500, Note_on_c, 1, 67, 0
3, 285504, Note_on_c, 1, 66, 110
3, 285596, Note_on_c, 1, 66, 0
3, 285600, Note_on_c, 1, 69, 110
3, 285692, Note_on_c, 1, 69, 0
3, 285696, Note_on_c, 1, 67, 110
3, 285884, Note_on_c, 1, 67, 0
3, 285888, Note_on_c, 1, 67, 110
3, 285980, Note_on_c, 1, 67, 0
3, 285984, Note_on_c, 1, 71, 110
3, 286076, Note_on_c, 1, 71, 0
3, 286080, Note_on_c, 1, 69, 110
3, 286172, Note_on_c, 1, 69, 0
3, 286176, Note_on_c, 1, 72, 110
3, 286268, Note_on_c, 1, 72, 0
3, 286272, Note_on_c, 1, 71, 110
3, 286364, Note_on_c, 1, 71, 0
3, 286368, Note_on_c, 1, 74, 110
3, 286460, Note_on_c, 1, 74, 0
3, 286464, Note_on_c, 1, 72, 110
3, 286556, Note_on_c, 1, 72, 0
3, 286560, Note_on_c, 1, 76, 110
3, 286652, Note_on_c, 1, 76, 0
3, 286656, Note_on_c, 1, 74, 110
3, 286748, Note_on_c, 1, 74, 0
3, 286752, Note_on_c, 1, 77, 110
3, 286844, Note_on_c, 1, 77, 0
3, 286848, Note_on_c, 1, 76, 110
3, 286940, Note_on_c, 1, 76, 0
3, 286944, Note_on_c, 1, 79, 110
3, 287036, Note_on_c, 1, 79, 0
3, 287040, Note_on_c, 1, 78, 110
3, 287132, Note_on_c, 1, 78, 0
3, 287136, Note_on_c, 1, 81, 110
3, 287228, Note_on_c, 1, 81, 0
3, 287232, Note_on_c, 1, 79, 110
3, 287324, Note_on_c, 1, 79, 0
3, 287424, Note_on_c, 1, 81, 110
3, 287464, Note_on_c, 1, 81, 0
3, 287472, Note_on_c, 1, 79, 110
3, 287512, Note_on_c, 1, 79, 0
3, 287520, Note_on_c, 1, 78, 110
3, 287560, Note_on_c, 1, 78, 0
3, 287568, Note_on_c, 1, 79, 110
3, 287608, Note_on_c, 1, 79, 0
3, 287616, Note_on_c, 1, 83, 110
3, 287804, Note_on_c, 1, 83, 0
3, 287808, Note_on_c, 1, 79, 110
3, 287900, Note_on_c, 1, 79, 0
3, 288000, Note_on_c, 1, 74, 110
3, 288092, Note_on_c, 1, 74, 0
3, 288192, Note_on_c, 1, 79, 110
3, 288284, Note_on_c, 1, 79, 0
3, 288384, Note_on_c, 1, 71, 110
3, 288476, Note_on_c, 1, 71, 0
3, 288576, Note_on_c, 1, 74, 110
3, 288668, Note_on_c, 1, 74, 0
3, 288768, Note_on_c, 1, 67, 110
3, 288860, Note_on_c, 1, 67, 0
3, 288960, Note_on_c, 1, 69, 110
3, 289000, Note_on_c, 1, 69, 0
3, 289008, Note_on_c, 1, 67, 110
3, 289048, Note_on_c, 1, 67, 0
3, 289056, Note_on_c, 1, 66, 110
3, 289096, Note_on_c, 1, 66, 0
3, 289104, Note_on_c, 1, 67, 110
3, 289144, Note_on_c, 1, 67, 0
3, 289152, Note_on_c, 1, 71, 110
3, 289340, Note_on_c, 1, 71, 0
3, 289344, Note_on_c, 1, 67, 110
3, 289436, Note_on_c, 1, 67, 0
3, 289536, Note_on_c, 1, 62, 110
3, 289628, Note_on_c, 1, 62, 0
3, 289728, Note_on_c, 1, 67, 110
3, 289820, Note_on_c, 1, 67, 0
3, 289920, Note_on_c, 1, 59, 110
3, 290012, Note_on_c, 1, 59, 0
3, 290112, Note_on_c, 1, 62, 110
3, 290204, Note_on_c, 1, 62, 0
3, 290304, Note_on_c, 1, 55, 110
3, 290684, Note_on_c, 1, 55, 0
3, 302784, Note_on_c, 1, 76, 82
3, 302784, Note_on_c, 1, 67, 82
3, 302876, Note_on_c, 1, 67, 0
3, 302876, Note_on_c, 1, 76, 0
3, 302976, Note_on_c, 1, 76, 82
3, 302976, Note_on_c, 1, 67, 82
3, 303068, Note_on_c, 1, 67, 0
3, 303068, Note_on_c, 1, 76, 0
3, 303168, Note_on_c, 1, 76, 82
3, 303168, Note_on_c, 1, 67, 82
3, 303260, Note_on_c, 1, 67, 0
3, 303260, Note_on_c, 1, 76, 0
3, 303360, Note_on_c, 1, 76, 82
3, 303360, Note_on_c, 1, 67, 82
3, 303452, Note_on_c, 1, 67, 0
3, 303452, Note_on_c, 1, 76, 0
3, 303552, Note_on_c, 1, 76, 82
3, 303552, Note_on_c, 1, 67, 82
3, 303644, Note_on_c, 1, 67, 0
3, 303644, Note_on_c, 1, 76, 0
3, 303744, Note_on_c, 1, 64, 82
3, 303744, Note_on_c, 1, 74, 82
3, 303932, Note_on_c, 1, 74, 0
3, 303936, Note_on_c, 1, 71, 82
3, 304124, Note_on_c, 1, 71, 0
3, 304128, Note_on_c, 1, 69, 82
3, 304220, Note_on_c, 1, 69, 0
3, 304220, Note_on_c, 1, 64, 0
3, 304320, Note_on_c, 1, 72, 82
3, 304320, Note_on_c, 1, 64, 82
3, 304412, Note_on_c, 1, 64, 0
3, 304412, Note_on_c, 1, 72, 0
3, 304512, Note_on_c, 1, 72, 82
3, 304512, Note_on_c, 1, 64, 82
3, 304604, Note_on_c, 1, 64, 0
3, 304604, Note_on_c, 1, 72, 0
3, 304704, Note_on_c, 1, 72, 82
3, 304704, Note_on_c, 1, 64, 82
3, 304796, Note_on_c, 1, 64, 0
3, 304796, Note_on_c, 1, 72, 0
3, 304896, Note_on_c, 1, 72, 82
3, 304896, Note_on_c, 1, 64, 82
3, 304988, Note_on_c, 1, 64, 0
3, 304988, Note_on_c, 1, 72, 0
3, 305088, Note_on_c, 1, 72, 82
3, 305088, Note_on_c, 1, 64, 82
3, 305180, Note_on_c, 1, 64, 0
3, 305180, Note_on_c, 1, 72, 0
3, 305280, Note_on_c, 1, 60, 82
3, 305280, Note_on_c, 1, 70, 82
3, 305468, Note_on_c, 1, 70, 0
3, 305472, Note_on_c, 1, 67, 82
3, 305660, Note_on_c, 1, 67, 0
3, 305664, Note_on_c, 1, 65, 82
3, 305756, Note_on_c, 1, 65, 0
3, 305756, Note_on_c, 1, 60, 0
3, 305856, Note_on_c, 1, 69, 82
3, 305856, Note_on_c, 1, 60, 82
3, 305948, Note_on_c, 1, 60, 0
3, 305948, Note_on_c, 1, 69, 0
3, 306048, Note_on_c, 1, 69, 82
3, 306048, Note_on_c, 1, 60, 82
3, 306140, Note_on_c, 1, 60, 0
3, 306140, Note_on_c, 1, 69, 0
3, 306240, Note_on_c, 1, 69, 82
3, 306240, Note_on_c, 1, 60, 82
3, 306332, Note_on_c, 1, 60, 0
3, 306332, Note_on_c, 1, 69, 0
3, 306432, Note_on_c, 1, 69, 82
3, 306432, Note_on_c, 1, 60, 82
3, 306524, Note_on_c, 1, 60, 0
3, 306524, Note_on_c, 1, 69, 0
3, 306624, Note_on_c, 1, 69, 82
3, 306624, Note_on_c, 1, 60, 82
3, 306716, Note_on_c, 1, 60, 0
3, 306716, Note_on_c, 1, 69, 0
3, 306816, Note_on_c, 1, 57, 82
3, 306816, Note_on_c, 1, 69, 82
3, 307004, Note_on_c, 1, 69, 0
3, 307008, Note_on_c, 1, 64, 82
3, 307196, Note_on_c, 1, 64, 0
3, 307200, Note_on_c, 1, 62, 82
3, 307200, Note_on_c, 1, 57, 82
3, 307292, Note_on_c, 1, 57, 0
3, 307576, Note_on_c, 1, 62, 0
3, 307576, Note_on_c, 1, 57, 0
3, 307584, Note_on_c, 1, 58, 82
3, 307584, Note_on_c, 1, 61, 82
3, 307960, Note_on_c, 1, 61, 0
3, 307960, Note_on_c, 1, 58, 0
3, 307968, Note_on_c, 1, 69, 82
3, 307968, Note_on_c, 1, 57, 82
3, 308344, Note_on_c, 1, 69, 0
3, 308352, Note_on_c, 1, 62, 82
3, 308728, Note_on_c, 1, 62, 0
3, 308728, Note_on_c, 1, 57, 0
3, 321024, Note_on_c, 1, 74, 82
3, 321024, Note_on_c, 1, 71, 82
3, 321212, Note_on_c, 1, 71, 0
3, 321212, Note_on_c, 1, 74, 0
3, 321216, Note_on_c, 1, 74, 110
3, 321404, Note_on_c, 1, 74, 0
3, 321408, Note_on_c, 1, 77, 110
3, 321596, Note_on_c, 1, 77, 0
3, 321600, Note_on_c, 1, 83, 110
3, 321600, Note_on_c, 1, 79, 110
3, 321600, Note_on_c, 1, 74, 110
3, 321692, Note_on_c, 1, 74, 0
3, 321692, Note_on_c, 1, 79, 0
3, 321692, Note_on_c, 1, 83, 0
3, 321792, Note_on_c, 1, 84, 110
3, 321792, Note_on_c, 1, 79, 110
3, 321792, Note_on_c, 1, 76, 110
3, 321884, Note_on_c, 1, 76, 0
3, 321884, Note_on_c, 1, 79, 0
3, 321884, Note_on_c, 1, 84, 0
3, 321984, Note_on_c, 1, 84, 110
3, 321984, Note_on_c, 1, 79, 110
3, 321984, Note_on_c, 1, 76, 110
3, 322076, Note_on_c, 1, 76, 0
3, 322076, Note_on_c, 1, 79, 0
3, 322076, Note_on_c, 1, 84, 0
3, 322176, Note_on_c, 1, 84, 110
3, 322176, Note_on_c, 1, 79, 110
3, 322176, Note_on_c, 1, 76, 110
3, 322268, Note_on_c, 1, 76, 0
3, 322268, Note_on_c, 1, 79, 0
3, 322268, Note_on_c, 1, 84, 0
3, 322368, Note_on_c, 1, 84, 110
3, 322368, Note_on_c, 1, 79, 110
3, 322368, Note_on_c, 1, 76, 110
3, 322460, Note_on_c, 1, 76, 0
3, 322460, Note_on_c, 1, 79, 0
3, 322460, Note_on_c, 1, 84, 0
3, 322560, Note_on_c, 1, 83, 110
3, 322560, Note_on_c, 1, 79, 110
3, 322560, Note_on_c, 1, 74, 110
3, 322652, Note_on_c, 1, 74, 0
3, 322652, Note_on_c, 1, 79, 0
3, 322652, Note_on_c, 1, 83, 0
3, 322752, Note_on_c, 1, 74, 110
3, 322940, Note_on_c, 1, 74, 0
3, 322944, Note_on_c, 1, 77, 110
3, 323132, Note_on_c, 1, 77, 0
3, 323136, Note_on_c, 1, 83, 110
3, 323136, Note_on_c, 1, 79, 110
3, 323136, Note_on_c, 1, 74, 110
3, 323228, Note_on_c, 1, 74, 0
3, 323228, Note_on_c, 1, 79, 0
3, 323228, Note_on_c, 1, 83, 0
3, 323328, Note_on_c, 1, 84, 110
3, 323328, Note_on_c, 1, 79, 110
3, 323328, Note_on_c, 1, 76, 110
3, 323420, Note_on_c, 1, 76, 0
3, 323420, Note_on_c, 1, 79, 0
3, 323420, Note_on_c, 1, 84, 0
3, 323520, Note_on_c, 1, 84, 110
3, 323520, Note_on_c, 1, 76, 110
3, 323520, Note_on_c, 1, 79, 110
3, 323612, Note_on_c, 1, 79, 0
3, 323612, Note_on_c, 1, 76, 0
3, 323612, Note_on_c, 1, 84, 0
3, 323712, Note_on_c, 1, 84, 110
3, 323712, Note_on_c, 1, 79, 110
3, 323712, Note_on_c, 1, 76, 110
3, 323804, Note_on_c, 1, 76, 0
3, 323804, Note_on_c, 1, 79, 0
3, 323804, Note_on_c, 1, 84, 0
3, 323904, Note_on_c, 1, 84, 110
3, 323904, Note_on_c, 1, 79, 110
3, 323904, Note_on_c, 1, 76, 110
3, 323996, Note_on_c, 1, 76, 0
3, 323996, Note_on_c, 1, 79, 0
3, 323996, Note_on_c, 1, 84, 0
3, 324096, Note_on_c, 1, 83, 110
3, 324096, Note_on_c, 1, 79, 110
3, 324096, Note_on_c, 1, 74, 110
3, 324476, Note_on_c, 1, 74, 0
3, 324476, Note_on_c, 1, 79, 0
3, 324476, Note_on_c, 1, 83, 0
3, 324480, Note_on_c, 1, 79, 110
3, 324480, Note_on_c, 1, 74, 110
3, 324480, Note_on_c, 1, 71, 110
3, 324480, Note_on_c, 1, 67, 110
3, 324860, Note_on_c, 1, 67, 0
3, 324860, Note_on_c, 1, 79, 0
3, 324860, Note_on_c, 1, 74, 0
3, 324860, Note_on_c, 1, 71, 0
3, 324864, Note_on_c, 1, 55, 110
3, 325244, Note_on_c, 1, 55, 0
3, 328704, Note_on_c, 1, 64, 82
3, 328704, Note_on_c, 1, 67, 82
3, 328796, Note_on_c, 1, 67, 0
3, 328800, Note_on_c, 1, 69, 82
3, 328892, Note_on_c, 1, 69, 0
3, 328896, Note_on_c, 1, 67, 82
3, 328988, Note_on_c, 1, 67, 0
3, 328992, Note_on_c, 1, 65, 82
3, 329084, Note_on_c, 1, 65, 0
3, 329084, Note_on_c, 1, 64, 0
3, 329088, Note_on_c, 1, 64, 82
3, 329088, Note_on_c, 1, 60, 82
3, 329468, Note_on_c, 1, 60, 0
3, 329468, Note_on_c, 1, 64, 0
3, 329472, Note_on_c, 1, 67, 82
3, 329564, Note_on_c, 1, 67, 0
3, 329664, Note_on_c, 1, 69, 82
3, 329756, Note_on_c, 1, 69, 0
3, 329856, Note_on_c, 1, 71, 82
3, 329948, Note_on_c, 1, 71, 0
3, 330048, Note_on_c, 1, 72, 82
3, 330140, Note_on_c, 1, 72, 0
3, 330240, Note_on_c, 1, 72, 82
3, 330428, Note_on_c, 1, 72, 0
3, 330432, Note_on_c, 1, 71, 82
3, 330620, Note_on_c, 1, 71, 0
3, 330624, Note_on_c, 1, 69, 82
3, 330812, Note_on_c, 1, 69, 0
3, 330816, Note_on_c, 1, 67, 82
3, 331004, Note_on_c, 1, 67, 0
3, 331008, Note_on_c, 1, 67, 82
3, 331100, Note_on_c, 1, 67, 0
3, 331104, Note_on_c, 1, 65, 82
3, 331196, Note_on_c, 1, 65, 0
3, 331200, Note_on_c, 1, 64, 82
3, 331292, Note_on_c, 1, 64, 0
3, 331296, Note_on_c, 1, 65, 82
3, 331388, Note_on_c, 1, 65, 0
3, 331392, Note_on_c, 1, 69, 82
3, 331580, Note_on_c, 1, 69, 0
3, 331584, Note_on_c, 1, 65, 82
3, 331772, Note_on_c, 1, 65, 0
3, 331776, Note_on_c, 1, 63, 82
3, 331964, Note_on_c, 1, 63, 0
3, 331968, Note_on_c, 1, 64, 82
3, 332156, Note_on_c, 1, 64, 0
3, 332352, Note_on_c, 1, 64, 82
3, 332444, Note_on_c, 1, 64, 0
3, 332448, Note_on_c, 1, 65, 82
3, 332540, Note_on_c, 1, 65, 0
3, 332544, Note_on_c, 1, 67, 82
3, 332636, Note_on_c, 1, 67, 0
3, 332736, Note_on_c, 1, 69, 82
3, 332828, Note_on_c, 1, 69, 0
3, 332928, Note_on_c, 1, 71, 82
3, 333020, Note_on_c, 1, 71, 0
3, 333120, Note_on_c, 1, 72, 82
3, 333212, Note_on_c, 1, 72, 0
3, 333312, Note_on_c, 1, 72, 82
3, 333500, Note_on_c, 1, 72, 0
3, 333504, Note_on_c, 1, 71, 82
3, 333692, Note_on_c, 1, 71, 0
3, 333696, Note_on_c, 1, 69, 82
3, 333884, Note_on_c, 1, 69, 0
3, 333888, Note_on_c, 1, 67, 82
3, 334076, Note_on_c, 1, 67, 0
3, 334080, Note_on_c, 1, 67, 82
3, 334172, Note_on_c, 1, 67, 0
3, 334176, Note_on_c, 1, 65, 82
3, 334268, Note_on_c, 1, 65, 0
3, 334272, Note_on_c, 1, 64, 82
3, 334364, Note_on_c, 1, 64, 0
3, 334368, Note_on_c, 1, 65, 82
3, 334460, Note_on_c, 1, 65, 0
3, 334464, Note_on_c, 1, 69, 82
3, 334652, Note_on_c, 1, 69, 0
3, 334656, Note_on_c, 1, 65, 82
3, 334844, Note_on_c, 1, 65, 0
3, 334848, Note_on_c, 1, 64, 83
3, 334848, Note_on_c, 1, 67, 83
3, 334940, Note_on_c, 1, 67, 0
3, 334944, Note_on_c, 1, 69, 83
3, 335036, Note_on_c, 1, 69, 0
3, 335040, Note_on_c, 1, 67, 83
3, 335132, Note_on_c, 1, 67, 0
3, 335136, Note_on_c, 1, 65, 85
3, 335228, Note_on_c, 1, 65, 0
3, 335228, Note_on_c, 1, 64, 0
3, 335232, Note_on_c, 1, 64, 85
3, 335232, Note_on_c, 1, 60, 85
3, 335612, Note_on_c, 1, 60, 0
3, 335612, Note_on_c, 1, 64, 0
3, 336384, Note_on_c, 1, 69, 89
3, 336384, Note_on_c, 1, 72, 89
3, 336476, Note_on_c, 1, 72, 0
3, 336480, Note_on_c, 1, 74, 89
3, 336572, Note_on_c, 1, 74, 0
3, 336576, Note_on_c, 1, 72, 91
3, 336668, Note_on_c, 1, 72, 0
3, 336672, Note_on_c, 1, 70, 91
3, 336764, Note_on_c, 1, 70, 0
3, 336764, Note_on_c, 1, 69, 0
3, 336768, Note_on_c, 1, 69, 91
3, 336768, Note_on_c, 1, 65, 91
3, 337148, Note_on_c, 1, 65, 0
3, 337148, Note_on_c, 1, 69, 0
3, 337920, Note_on_c, 1, 67, 94
3, 337920, Note_on_c, 1, 70, 94
3, 338012, Note_on_c, 1, 70, 0
3, 338016, Note_on_c, 1, 72, 95
3, 338108, Note_on_c, 1, 72, 0
3, 338112, Note_on_c, 1, 70, 95
3, 338204, Note_on_c, 1, 70, 0
3, 338208, Note_on_c, 1, 69, 95
3, 338300, Note_on_c, 1, 69, 0
3, 338300, Note_on_c, 1, 67, 0
3, 338304, Note_on_c, 1, 67, 96
3, 338304, Note_on_c, 1, 64, 96
3, 338684, Note_on_c, 1, 64, 0
3, 338684, Note_on_c, 1, 67, 0
3, 345600, Note_on_c, 1, 69, 99
3, 345692, Note_on_c, 1, 69, 0
3, 345792, Note_on_c, 1, 76, 99
3, 345832, Note_on_c, 1, 76, 0
3, 345840, Note_on_c, 1, 74, 99
3, 345880, Note_on_c, 1, 74, 0
3, 345888, Note_on_c, 1, 73, 99
3, 345984, Note_on_c, 1, 74, 99
3, 346076, Note_on_c, 1, 74, 0
3, 346076, Note_on_c, 1, 73, 0
3, 346176, Note_on_c, 1, 77, 99
3, 346268, Note_on_c, 1, 77, 0
3, 346368, Note_on_c, 1, 76, 99
3, 346460, Note_on_c, 1, 76, 0
3, 346560, Note_on_c, 1, 74, 99
3, 346652, Note_on_c, 1, 74, 0
3, 346752, Note_on_c, 1, 72, 99
3, 346844, Note_on_c, 1, 72, 0
3, 346944, Note_on_c, 1, 71, 99
3, 347036, Note_on_c, 1, 71, 0
3, 347136, Note_on_c, 1, 72, 99
3, 347228, Note_on_c, 1, 72, 0
3, 347232, Note_on_c, 1, 76, 99
3, 347324, Note_on_c, 1, 76, 0
3, 347328, Note_on_c, 1, 74, 99
3, 347420, Note_on_c, 1, 74, 0
3, 347424, Note_on_c, 1, 77, 99
3, 347516, Note_on_c, 1, 77, 0
3, 347520, Note_on_c, 1, 76, 99
3, 347612, Note_on_c, 1, 76, 0
3, 347616, Note_on_c, 1, 79, 99
3, 347708, Note_on_c, 1, 79, 0
3, 347712, Note_on_c, 1, 77, 99
3, 347804, Note_on_c, 1, 77, 0
3, 347808, Note_on_c, 1, 81, 99
3, 347900, Note_on_c, 1, 81, 0
3, 347904, Note_on_c, 1, 79, 94
3, 347996, Note_on_c, 1, 79, 0
3, 348096, Note_on_c, 1, 81, 90
3, 348188, Note_on_c, 1, 81, 0
3, 348288, Note_on_c, 1, 83, 85
3, 348380, Note_on_c, 1, 83, 0
3, 348480, Note_on_c, 1, 84, 83
3, 348572, Note_on_c, 1, 84, 0
3, 348672, Note_on_c, 1, 77, 82
3, 348764, Note_on_c, 1, 77, 0
3, 348768, Note_on_c, 1, 79, 82
3, 348860, Note_on_c, 1, 79, 0
3, 348864, Note_on_c, 1, 77, 82
3, 348956, Note_on_c, 1, 77, 0
3, 348960, Note_on_c, 1, 79, 82
3, 349052, Note_on_c, 1, 79, 0
3, 349056, Note_on_c, 1, 77, 82
3, 349436, Note_on_c, 1, 77, 0
3, 349440, Note_on_c, 1, 89, 82
3, 349532, Note_on_c, 1, 89, 0
3, 349536, Note_on_c, 1, 88, 82
3, 349628, Note_on_c, 1, 88, 0
3, 349632, Note_on_c, 1, 89, 82
3, 349724, Note_on_c, 1, 89, 0
3, 349728, Note_on_c, 1, 88, 82
3, 349820, Note_on_c, 1, 88, 0
3, 349824, Note_on_c, 1, 89, 82
3, 350204, Note_on_c, 1, 89, 0
3, 350208, Note_on_c, 1, 79, 82
3, 350300, Note_on_c, 1, 79, 0
3, 350304, Note_on_c, 1, 78, 82
3, 350396, Note_on_c, 1, 78, 0
3, 350400, Note_on_c, 1, 79, 82
3, 350492, Note_on_c, 1, 79, 0
3, 350496, Note_on_c, 1, 78, 82
3, 350576, Note_on_c, 1, 79, 82
3, 350588, Note_on_c, 1, 78, 0
3, 350956, Note_on_c, 1, 79, 0
3, 350976, Note_on_c, 1, 88, 82
3, 351068, Note_on_c, 1, 88, 0
3, 351072, Note_on_c, 1, 87, 82
3, 351164, Note_on_c, 1, 87, 0
3, 351168, Note_on_c, 1, 88, 82
3, 351260, Note_on_c, 1, 88, 0
3, 351264, Note_on_c, 1, 87, 82
3, 351356, Note_on_c, 1, 87, 0
3, 351360, Note_on_c, 1, 88, 82
3, 351740, Note_on_c, 1, 88, 0
3, 354432, Note_on_c, 1, 62, 82
3, 354620, Note_on_c, 1, 62, 0
3, 354816, Note_on_c, 1, 64, 82
3, 355004, Note_on_c, 1, 64, 0
3, 355200, Note_on_c, 1, 64, 82
3, 355388, Note_on_c, 1, 64, 0
3, 355584, Note_on_c, 1, 60, 82
3, 355772, Note_on_c, 1, 60, 0
3, 355968, Note_on_c, 1, 62, 82
3, 356156, Note_on_c, 1, 62, 0
3, 356352, Note_on_c, 1, 64, 82
3, 356540, Note_on_c, 1, 64, 0
3, 356736, Note_on_c, 1, 64, 82
3, 356924, Note_on_c, 1, 64, 0
3, 357120, Note_on_c, 1, 60, 82
3, 357308, Note_on_c, 1, 60, 0
3, 357504, Note_on_c, 1, 62, 82
3, 357692, Note_on_c, 1, 62, 0
3, 357888, Note_on_c, 1, 64, 82
3, 358076, Note_on_c, 1, 64, 0
3, 358272, Note_on_c, 1, 62, 82
3, 358460, Note_on_c, 1, 62, 0
3, 358656, Note_on_c, 1, 60, 82
3, 358844, Note_on_c, 1, 60, 0
3, 359040, Note_on_c, 1, 59, 82
3, 359228, Note_on_c, 1, 59, 0
3, 359424, Note_on_c, 1, 60, 82
3, 359612, Note_on_c, 1, 60, 0
3, 373248, Note_on_c, 1, 72, 110
3, 373248, Note_on_c, 1, 67, 110
3, 373248, Note_on_c, 1, 64, 110
3, 373632, Note_on_c, 1, 64, 0
3, 373632, Note_on_c, 1, 67, 0
3, 373632, Note_on_c, 1, 72, 0
3, 373824, Note_on_c, 1, 79, 110
3, 374012, Note_on_c, 1, 79, 0
3, 374016, Note_on_c, 1, 76, 110
3, 374108, Note_on_c, 1, 76, 0
3, 374208, Note_on_c, 1, 72, 110
3, 374300, Note_on_c, 1, 72, 0
3, 374400, Note_on_c, 1, 76, 110
3, 374492, Note_on_c, 1, 76, 0
3, 374592, Note_on_c, 1, 79, 110
3, 374684, Note_on_c, 1, 79, 0
3, 374784, Note_on_c, 1, 84, 110
3, 375260, Note_on_c, 1, 84, 0
3, 375360, Note_on_c, 1, 79, 110
3, 375452, Note_on_c, 1, 79, 0
3, 375552, Note_on_c, 1, 76, 110
3, 375644, Note_on_c, 1, 76, 0
3, 375744, Note_on_c, 1, 72, 110
3, 375836, Note_on_c, 1, 72, 0
3, 375936, Note_on_c, 1, 76, 110
3, 376028, Note_on_c, 1, 76, 0
3, 376128, Note_on_c, 1, 79, 110
3, 376220, Note_on_c, 1, 79, 0
3, 376320, Note_on_c, 1, 84, 110
3, 376320, Note_on_c, 1, 76, 110
3, 376892, Note_on_c, 1, 76, 0
3, 376892, Note_on_c, 1, 84, 0
3, 376896, Note_on_c, 1, 83, 110
3, 376896, Note_on_c, 1, 74, 110
3, 377084, Note_on_c, 1, 74, 0
3, 377084, Note_on_c, 1, 83, 0
3, 377088, Note_on_c, 1, 81, 110
3, 377088, Note_on_c, 1, 72, 110
3, 377660, Note_on_c, 1, 72, 0
3, 377660, Note_on_c, 1, 81, 0
3, 377664, Note_on_c, 1, 79, 110
3, 377664, Note_on_c, 1, 71, 110
3, 377852, Note_on_c, 1, 71, 0
3, 377852, Note_on_c, 1, 79, 0
3, 377856, Note_on_c, 1, 77, 110
3, 377856, Note_on_c, 1, 69, 110
3, 378428, Note_on_c, 1, 69, 0
3, 378428, Note_on_c, 1, 77, 0
3, 378432, Note_on_c, 1, 76, 110
3, 378432, Note_on_c, 1, 67, 110
3, 378620, Note_on_c, 1, 67, 0
3, 378620, Note_on_c, 1, 76, 0
3, 378624, Note_on_c, 1, 74, 110
3, 378624, Note_on_c, 1, 65, 110
3, 379196, Note_on_c, 1, 65, 0
3, 379196, Note_on_c, 1, 74, 0
3, 379200, Note_on_c, 1, 73, 110
3, 379200, Note_on_c, 1, 64, 110
3, 379388, Note_on_c, 1, 64, 0
3, 379388, Note_on_c, 1, 73, 0
3, 379392, Note_on_c, 1, 74, 110
3, 379484, Note_on_c, 1, 74, 0
3, 379488, Note_on_c, 1, 77, 110
3, 379580, Note_on_c, 1, 77, 0
3, 379584, Note_on_c, 1, 76, 110
3, 379676, Note_on_c, 1, 76, 0
3, 379680, Note_on_c, 1, 79, 110
3, 379772, Note_on_c, 1, 79, 0
3, 379776, Note_on_c, 1, 77, 110
3, 379868, Note_on_c, 1, 77, 0
3, 379872, Note_on_c, 1, 81, 110
3, 379964, Note_on_c, 1, 81, 0
3, 379968, Note_on_c, 1, 79, 110
3, 380060, Note_on_c, 1, 79, 0
3, 380064, Note_on_c, 1, 82, 110
3, 380156, Note_on_c, 1, 82, 0
3, 380160, Note_on_c, 1, 81, 110
3, 380252, Note_on_c, 1, 81, 0
3, 380256, Note_on_c, 1, 79, 110
3, 380348, Note_on_c, 1, 79, 0
3, 380352, Note_on_c, 1, 77, 110
3, 380444, Note_on_c, 1, 77, 0
3, 380448, Note_on_c, 1, 76, 110
3, 380540, Note_on_c, 1, 76, 0
3, 380544, Note_on_c, 1, 74, 110
3, 380636, Note_on_c, 1, 74, 0
3, 380640, Note_on_c, 1, 72, 110
3, 380732, Note_on_c, 1, 72, 0
3, 380736, Note_on_c, 1, 71, 110
3, 380828, Note_on_c, 1, 71, 0
3, 380832, Note_on_c, 1, 72, 110
3, 380924, Note_on_c, 1, 72, 0
3, 380928, Note_on_c, 1, 71, 110
3, 381116, Note_on_c, 1, 71, 0
3, 381120, Note_on_c, 1, 74, 110
3, 381308, Note_on_c, 1, 74, 0
3, 381312, Note_on_c, 1, 77, 110
3, 381500, Note_on_c, 1, 77, 0
3, 381504, Note_on_c, 1, 83, 110
3, 381504, Note_on_c, 1, 79, 110
3, 381504, Note_on_c, 1, 74, 110
3, 381596, Note_on_c, 1, 74, 0
3, 381596, Note_on_c, 1, 79, 0
3, 381596, Note_on_c, 1, 83, 0
3, 381696, Note_on_c, 1, 84, 110
3, 381696, Note_on_c, 1, 79, 110
3, 381696, Note_on_c, 1, 76, 110
3, 381788, Note_on_c, 1, 76, 0
3, 381788, Note_on_c, 1, 79, 0
3, 381788, Note_on_c, 1, 84, 0
3, 381888, Note_on_c, 1, 84, 110
3, 381888, Note_on_c, 1, 79, 110
3, 381888, Note_on_c, 1, 76, 110
3, 381980, Note_on_c, 1, 76, 0
3, 381980, Note_on_c, 1, 79, 0
3, 381980, Note_on_c, 1, 84, 0
3, 382080, Note_on_c, 1, 84, 110
3, 382080, Note_on_c, 1, 79, 110
3, 382080, Note_on_c, 1, 76, 110
3, 382172, Note_on_c, 1, 76, 0
3, 382172, Note_on_c, 1, 79, 0
3, 382172, Note_on_c, 1, 84, 0
3, 382272, Note_on_c, 1, 84, 110
3, 382272, Note_on_c, 1, 79, 110
3, 382272, Note_on_c, 1, 76, 110
3, 382364, Note_on_c, 1, 76, 0
3, 382364, Note_on_c, 1, 79, 0
3, 382364, Note_on_c, 1, 84, 0
3, 382464, Note_on_c, 1, 83, 110
3, 382464, Note_on_c, 1, 79, 110
3, 382464, Note_on_c, 1, 74, 110
3, 382652, Note_on_c, 1, 74, 0
3, 382652, Note_on_c, 1, 79, 0
3, 382652, Note_on_c, 1, 83, 0
3, 382656, Note_on_c, 1, 74, 110
3, 382844, Note_on_c, 1, 74, 0
3, 382848, Note_on_c, 1, 77, 110
3, 383036, Note_on_c, 1, 77, 0
3, 383040, Note_on_c, 1, 79, 110
3, 383040, Note_on_c, 1, 83, 110
3, 383040, Note_on_c, 1, 74, 110
3, 383172, Note_on_c, 1, 74, 0
3, 383172, Note_on_c, 1, 83, 0
3, 383172, Note_on_c, 1, 79, 0
3, 383232, Note_on_c, 1, 84, 110
3, 383232, Note_on_c, 1, 79, 110
3, 383232, Note_on_c, 1, 76, 110
3, 383364, Note_on_c, 1, 76, 0
3, 383364, Note_on_c, 1, 79, 0
3, 383364, Note_on_c, 1, 84, 0
3, 383424, Note_on_c, 1, 84, 110
3, 383424, Note_on_c, 1, 79, 110
3, 383424, Note_on_c, 1, 76, 110
3, 383556, Note_on_c, 1, 76, 0
3, 383556, Note_on_c, 1, 79, 0
3, 383556, Note_on_c, 1, 84, 0
3, 383616, Note_on_c, 1, 84, 110
3, 383616, Note_on_c, 1, 79, 110
3, 383616, Note_on_c, 1, 76, 110
3, 383748, Note_on_c, 1, 76, 0
3, 383748, Note_on_c, 1, 79, 0
3, 383748, Note_on_c, 1, 84, 0
3, 383808, Note_on_c, 1, 84, 110
3, 383808, Note_on_c, 1, 79, 110
3, 383808, Note_on_c, 1, 76, 110
3, 383940, Note_on_c, 1, 76, 0
3, 383940, Note_on_c, 1, 79, 0
3, 383940, Note_on_c, 1, 84, 0
3, 384000, Note_on_c, 1, 76, 110
3, 384000, Note_on_c, 1, 72, 110
3, 384000, Note_on_c, 1, 67, 110
3, 384572, Note_on_c, 1, 67, 0
3, 384572, Note_on_c, 1, 72, 0
3, 384572, Note_on_c, 1, 76, 0
3, 384576, Note_on_c, 1, 72, 110
3, 384764, Note_on_c, 1, 72, 0
3, 384768, Note_on_c, 1, 74, 110
3, 384812, Note_on_c, 1, 74, 0
3, 384816, Note_on_c, 1, 76, 110
3, 384860, Note_on_c, 1, 76, 0
3, 384864, Note_on_c, 1, 74, 110
3, 384908, Note_on_c, 1, 74, 0
3, 384912, Note_on_c, 1, 76, 110
3, 384956, Note_on_c, 1, 76, 0
3, 384960, Note_on_c, 1, 74, 110
3, 385004, Note_on_c, 1, 74, 0
3, 385008, Note_on_c, 1, 76, 110
3, 385052, Note_on_c, 1, 76, 0
3, 385056, Note_on_c, 1, 74, 110
3, 385100, Note_on_c, 1, 74, 0
3, 385104, Note_on_c, 1, 76, 110
3, 385148, Note_on_c, 1, 76, 0
3, 385152, Note_on_c, 1, 74, 110
3, 385196, Note_on_c, 1, 74, 0
3, 385200, Note_on_c, 1, 76, 110
3, 385244, Note_on_c, 1, 76, 0
3, 385248, Note_on_c, 1, 74, 110
3, 385292, Note_on_c, 1, 74, 0
3, 385296, Note_on_c, 1, 76, 110
3, 385340, Note_on_c, 1, 76, 0
3, 385344, Note_on_c, 1, 72, 110
3, 385436, Note_on_c, 1, 72, 0
3, 385440, Note_on_c, 1, 74, 110
3, 385532, Note_on_c, 1, 74, 0
3, 385536, Note_on_c, 1, 72, 110
3, 385916, Note_on_c, 1, 72, 0
3, 385920, Note_on_c, 1, 81, 110
3, 385920, Note_on_c, 1, 84, 110
3, 386108, Note_on_c, 1, 84, 0
3, 386108, Note_on_c, 1, 81, 0
3, 386304, Note_on_c, 1, 79, 110
3, 386304, Note_on_c, 1, 83, 110
3, 386492, Note_on_c, 1, 83, 0
3, 386492, Note_on_c, 1, 79, 0
3, 386688, Note_on_c, 1, 77, 110
3, 386688, Note_on_c, 1, 81, 110
3, 386876, Note_on_c, 1, 81, 0
3, 386876, Note_on_c, 1, 77, 0
3, 387072, Note_on_c, 1, 79, 110
3, 387072, Note_on_c, 1, 76, 110
3, 387644, Note_on_c, 1, 76, 0
3, 387644, Note_on_c, 1, 79, 0
3, 387648, Note_on_c, 1, 77, 110
3, 387648, Note_on_c, 1, 74, 110
3, 387836, Note_on_c, 1, 74, 0
3, 387836, Note_on_c, 1, 77, 0
3, 387840, Note_on_c, 1, 76, 110
3, 387840, Note_on_c, 1, 72, 110
3, 388220, Note_on_c, 1, 72, 0
3, 388220, Note_on_c, 1, 76, 0
3, 388224, Note_on_c, 1, 72, 110
3, 388224, Note_on_c, 1, 76, 110
3, 388316, Note_on_c, 1, 76, 0
3, 388320, Note_on_c, 1, 77, 110
3, 388412, Note_on_c, 1, 77, 0
3, 388416, Note_on_c, 1, 79, 110
3, 388508, Note_on_c, 1, 79, 0
3, 388512, Note_on_c, 1, 76, 110
3, 388604, Note_on_c, 1, 76, 0
3, 388604, Note_on_c, 1, 72, 0
3, 388608, Note_on_c, 1, 81, 82
3, 388608, Note_on_c, 1, 77, 82
3, 388988, Note_on_c, 1, 77, 0
3, 388988, Note_on_c, 1, 81, 0
3, 388992, Note_on_c, 1, 81, 82
3, 388992, Note_on_c, 1, 72, 82
3, 389180, Note_on_c, 1, 72, 0
3, 389180, Note_on_c, 1, 81, 0
3, 389376, Note_on_c, 1, 79, 82
3, 389376, Note_on_c, 1, 71, 82
3, 389564, Note_on_c, 1, 71, 0
3, 389564, Note_on_c, 1, 79, 0
3, 389760, Note_on_c, 1, 77, 82
3, 389760, Note_on_c, 1, 69, 82
3, 389948, Note_on_c, 1, 69, 0
3, 389948, Note_on_c, 1, 77, 0
3, 390144, Note_on_c, 1, 76, 82
3, 390144, Note_on_c, 1, 67, 82
3, 390716, Note_on_c, 1, 67, 0
3, 390716, Note_on_c, 1, 76, 0
3, 390720, Note_on_c, 1, 74, 82
3, 390720, Note_on_c, 1, 65, 82
3, 390908, Note_on_c, 1, 65, 0
3, 390908, Note_on_c, 1, 74, 0
3, 390912, Note_on_c, 1, 72, 110
3, 390912, Note_on_c, 1, 64, 110
3, 391292, Note_on_c, 1, 64, 0
3, 391292, Note_on_c, 1, 72, 0
3, 391296, Note_on_c, 1, 72, 110
3, 391388, Note_on_c, 1, 72, 0
3, 391392, Note_on_c, 1, 74, 110
3, 391484, Note_on_c, 1, 74, 0
3, 391488, Note_on_c, 1, 76, 110
3, 391580, Note_on_c, 1, 76, 0
3, 391584, Note_on_c, 1, 72, 110
3, 391676, Note_on_c, 1, 72, 0
3, 391680, Note_on_c, 1, 77, 110
3, 391680, Note_on_c, 1, 74, 110
3, 392060, Note_on_c, 1, 74, 0
3, 392060, Note_on_c, 1, 77, 0
3, 392064, Note_on_c, 1, 86, 110
3, 392064, Note_on_c, 1, 77, 110
3, 392828, Note_on_c, 1, 77, 0
3, 392828, Note_on_c, 1, 86, 0
3, 392832, Note_on_c, 1, 77, 110
3, 392832, Note_on_c, 1, 74, 110
3, 393212, Note_on_c, 1, 74, 0
3, 393212, Note_on_c, 1, 77, 0
3, 393216, Note_on_c, 1, 76, 110
3, 393216, Note_on_c, 1, 72, 110
3, 393596, Note_on_c, 1, 72, 0
3, 393596, Note_on_c, 1, 76, 0
3, 393600, Note_on_c, 1, 76, 110
3, 393616, Note_on_c, 1, 84, 110
3, 394364, Note_on_c, 1, 76, 0
3, 394368, Note_on_c, 1, 76, 110
3, 394368, Note_on_c, 1, 72, 110
3, 394380, Note_on_c, 1, 84, 0
3, 394748, Note_on_c, 1, 72, 0
3, 394748, Note_on_c, 1, 76, 0
3, 394752, Note_on_c, 1, 74, 110
3, 394752, Note_on_c, 1, 69, 110
3, 395132, Note_on_c, 1, 69, 0
3, 395132, Note_on_c, 1, 74, 0
3, 395136, Note_on_c, 1, 79, 110
3, 395228, Note_on_c, 1, 79, 0
3, 395232, Note_on_c, 1, 77, 110
3, 395324, Note_on_c, 1, 77, 0
3, 395328, Note_on_c, 1, 76, 110
3, 395420, Note_on_c, 1, 76, 0
3, 395424, Note_on_c, 1, 74, 110
3, 395516, Note_on_c, 1, 74, 0
3, 395520, Note_on_c, 1, 72, 110
3, 395520, Note_on_c, 1, 64, 110
3, 395900, Note_on_c, 1, 64, 0
3, 395900, Note_on_c, 1, 72, 0
3, 395904, Note_on_c, 1, 71, 110
3, 395904, Note_on_c, 1, 62, 110
3, 396284, Note_on_c, 1, 62, 0
3, 396284, Note_on_c, 1, 71, 0
3, 396288, Note_on_c, 1, 72, 110
3, 396380, Note_on_c, 1, 72, 0
3, 396384, Note_on_c, 1, 74, 110
3, 396476, Note_on_c, 1, 74, 0
3, 396480, Note_on_c, 1, 76, 110
3, 396572, Note_on_c, 1, 76, 0
3, 396576, Note_on_c, 1, 77, 110
3, 396668, Note_on_c, 1, 77, 0
3, 396672, Note_on_c, 1, 79, 110
3, 396764, Note_on_c, 1, 79, 0
3, 396768, Note_on_c, 1, 81, 110
3, 396860, Note_on_c, 1, 81, 0
3, 396864, Note_on_c, 1, 83, 110
3, 396956, Note_on_c, 1, 83, 0
3, 396960, Note_on_c, 1, 84, 110
3, 397052, Note_on_c, 1, 84, 0
3, 397056, Note_on_c, 1, 69, 110
3, 397148, Note_on_c, 1, 69, 0
3, 397152, Note_on_c, 1, 71, 110
3, 397244, Note_on_c, 1, 71, 0
3, 397248, Note_on_c, 1, 72, 110
3, 397340, Note_on_c, 1, 72, 0
3, 397344, Note_on_c, 1, 74, 110
3, 397436, Note_on_c, 1, 74, 0
3, 397440, Note_on_c, 1, 76, 110
3, 397532, Note_on_c, 1, 76, 0
3, 397536, Note_on_c, 1, 77, 110
3, 397628, Note_on_c, 1, 77, 0
3, 397632, Note_on_c, 1, 79, 110
3, 397724, Note_on_c, 1, 79, 0
3, 397728, Note_on_c, 1, 81, 110
3, 397820, Note_on_c, 1, 81, 0
3, 397824, Note_on_c, 1, 67, 110
3, 397916, Note_on_c, 1, 67, 0
3, 397920, Note_on_c, 1, 69, 110
3, 398012, Note_on_c, 1, 69, 0
3, 398016, Note_on_c, 1, 71, 110
3, 398108, Note_on_c, 1, 71, 0
3, 398112, Note_on_c, 1, 72, 110
3, 398204, Note_on_c, 1, 72, 0
3, 398208, Note_on_c, 1, 74, 110
3, 398300, Note_on_c, 1, 74, 0
3, 398304, Note_on_c, 1, 76, 110
3, 398396, Note_on_c, 1, 76, 0
3, 398400, Note_on_c, 1, 77, 110
3, 398492, Note_on_c, 1, 77, 0
3, 398496, Note_on_c, 1, 79, 110
3, 398588, Note_on_c, 1, 79, 0
3, 398592, Note_on_c, 1, 79, 110
3, 398592, Note_on_c, 1, 76, 110
3, 398780, Note_on_c, 1, 76, 0
3, 398780, Note_on_c, 1, 79, 0
3, 398784, Note_on_c, 1, 77, 110
3, 398784, Note_on_c, 1, 74, 110
3, 398972, Note_on_c, 1, 74, 0
3, 398972, Note_on_c, 1, 77, 0
3, 398976, Note_on_c, 1, 76, 110
3, 398976, Note_on_c, 1, 72, 110
3, 399068, Note_on_c, 1, 72, 0
3, 399068, Note_on_c, 1, 76, 0
3, 399168, Note_on_c, 1, 74, 110
3, 399168, Note_on_c, 1, 67, 110
3, 399260, Note_on_c, 1, 67, 0
3, 399260, Note_on_c, 1, 74, 0
3, 399360, Note_on_c, 1, 72, 110
3, 399360, Note_on_c, 1, 67, 110
3, 399360, Note_on_c, 1, 64, 110
3, 399740, Note_on_c, 1, 64, 0
3, 399740, Note_on_c, 1, 67, 0
3, 399740, Note_on_c, 1, 72, 0
3, 399936, Note_on_c, 1, 79, 110
3, 399996, Note_on_c, 1, 79, 0
3, 400000, Note_on_c, 1, 81, 110
3, 400060, Note_on_c, 1, 81, 0
3, 400064, Note_on_c, 1, 83, 110
3, 400124, Note_on_c, 1, 83, 0
3, 400128, Note_on_c, 1, 84, 110
3, 400508, Note_on_c, 1, 84, 0
3, 400704, Note_on_c, 1, 79, 110
3, 400764, Note_on_c, 1, 79, 0
3, 400768, Note_on_c, 1, 81, 110
3, 400828, Note_on_c, 1, 81, 0
3, 400832, Note_on_c, 1, 83, 110
3, 400892, Note_on_c, 1, 83, 0
3, 400896, Note_on_c, 1, 84, 110
3, 401276, Note_on_c, 1, 84, 0
3, 401472, Note_on_c, 1, 79, 110
3, 401532, Note_on_c, 1, 79, 0
3, 401536, Note_on_c, 1, 81, 110
3, 401596, Note_on_c, 1, 81, 0
3, 401600, Note_on_c, 1, 83, 110
3, 401660, Note_on_c, 1, 83, 0
3, 401664, Note_on_c, 1, 84, 110
3, 401852, Note_on_c, 1, 84, 0
3, 401856, Note_on_c, 1, 79, 110
3, 401916, Note_on_c, 1, 79, 0
3, 401920, Note_on_c, 1, 81, 110
3, 401980, Note_on_c, 1, 81, 0
3, 401984, Note_on_c, 1, 83, 110
3, 402044, Note_on_c, 1, 83, 0
3, 402048, Note_on_c, 1, 84, 110
3, 402236, Note_on_c, 1, 84, 0
3, 402240, Note_on_c, 1, 79, 110
3, 402300, Note_on_c, 1, 79, 0
3, 402304, Note_on_c, 1, 81, 110
3, 402364, Note_on_c, 1, 81, 0
3, 402368, Note_on_c, 1, 83, 110
3, 402428, Note_on_c, 1, 83, 0
3, 402432, Note_on_c, 1, 84, 121
3, 402620, Note_on_c, 1, 84, 0
3, 402624, Note_on_c, 1, 79, 121
3, 402624, Note_on_c, 1, 76, 121
3, 402624, Note_on_c, 1, 72, 121
3, 402716, Note_on_c, 1, 79, 0
3, 402720, Note_on_c, 1, 84, 121
3, 402812, Note_on_c, 1, 84, 0
3, 402812, Note_on_c, 1, 72, 0
3, 402812, Note_on_c, 1, 76, 0
3, 402816, Note_on_c, 1, 79, 121
3, 402816, Note_on_c, 1, 76, 121
3, 402816, Note_on_c, 1, 72, 121
3, 402908, Note_on_c, 1, 79, 0
3, 402912, Note_on_c, 1, 84, 121
3, 403004, Note_on_c, 1, 84, 0
3, 403004, Note_on_c, 1, 72, 0
3, 403004, Note_on_c, 1, 76, 0
3, 403008, Note_on_c, 1, 79, 121
3, 403008, Note_on_c, 1, 76, 121
3, 403008, Note_on_c, 1, 72, 121
3, 403100, Note_on_c, 1, 79, 0
3, 403104, Note_on_c, 1, 84, 121
3, 403196, Note_on_c, 1, 84, 0
3, 403196, Note_on_c, 1, 72, 0
3, 403196, Note_on_c, 1, 76, 0
3, 403200, Note_on_c, 1, 79, 121
3, 403200, Note_on_c, 1, 76, 121
3, 403200, Note_on_c, 1, 72, 121
3, 403292, Note_on_c, 1, 79, 0
3, 403296, Note_on_c, 1, 84, 121
3, 403388, Note_on_c, 1, 84, 0
3, 403388, Note_on_c, 1, 72, 0
3, 403388, Note_on_c, 1, 76, 0
3, 403392, Note_on_c, 1, 79, 121
3, 403392, Note_on_c, 1, 76, 121
3, 403392, Note_on_c, 1, 72, 121
3, 403484, Note_on_c, 1, 79, 0
3, 403488, Note_on_c, 1, 84, 121
3, 403580, Note_on_c, 1, 84, 0
3, 403580, Note_on_c, 1, 72, 0
3, 403580, Note_on_c, 1, 76, 0
3, 403584, Note_on_c, 1, 79, 121
3, 403584, Note_on_c, 1, 76, 121
3, 403584, Note_on_c, 1, 72, 121
3, 403676, Note_on_c, 1, 79, 0
3, 403680, Note_on_c, 1, 84, 121
3, 403772, Note_on_c, 1, 84, 0
3, 403772, Note_on_c, 1, 72, 0
3, 403772, Note_on_c, 1, 76, 0
3, 403776, Note_on_c, 1, 79, 121
3, 403776, Note_on_c, 1, 76, 121
3, 403776, Note_on_c, 1, 72, 121
3, 403868, Note_on_c, 1, 79, 0
3, 403872, Note_on_c, 1, 84, 121
3, 403964, Note_on_c, 1, 84, 0
3, 403964, Note_on_c, 1, 72, 0
3, 403964, Note_on_c, 1, 76, 0
3, 403968, Note_on_c, 1, 76, 121
3, 403968, Note_on_c, 1, 72, 121
3, 403968, Note_on_c, 1, 79, 121
3, 404060, Note_on_c, 1, 79, 0
3, 404064, Note_on_c, 1, 84, 121
3, 404156, Note_on_c, 1, 84, 0
3, 404156, Note_on_c, 1, 72, 0
3, 404156, Note_on_c, 1, 76, 0
3, 404160, Note_on_c, 1, 76, 121
3, 404160, Note_on_c, 1, 72, 121
3, 404160, Note_on_c, 1, 79, 121
3, 404252, Note_on_c, 1, 79, 0
3, 404256, Note_on_c, 1, 84, 121
3, 404348, Note_on_c, 1, 84, 0
3, 404348, Note_on_c, 1, 72, 0
3, 404348, Note_on_c, 1, 76, 0
3, 404352, Note_on_c, 1, 76, 121
3, 404352, Note_on_c, 1, 72, 121
3, 404352, Note_on_c, 1, 79, 121
3, 404432, Note_on_c, 1, 84, 121
3, 404444, Note_on_c, 1, 79, 0
3, 404524, Note_on_c, 1, 84, 0
3, 404540, Note_on_c, 1, 72, 0
3, 404540, Note_on_c, 1, 76, 0
3, 404544, Note_on_c, 1, 76, 121
3, 404544, Note_on_c, 1, 72, 121
3, 404544, Note_on_c, 1, 79, 121
3, 404636, Note_on_c, 1, 79, 0
3, 404640, Note_on_c, 1, 84, 121
3, 404732, Note_on_c, 1, 84, 0
3, 404732, Note_on_c, 1, 72, 0
3, 404732, Note_on_c, 1, 76, 0
3, 404736, Note_on_c, 1, 76, 121
3, 404736, Note_on_c, 1, 72, 121
3, 404736, Note_on_c, 1, 79, 121
3, 404828, Note_on_c, 1, 79, 0
3, 404832, Note_on_c, 1, 84, 121
3, 404924, Note_on_c, 1, 84, 0
3, 404924, Note_on_c, 1, 72, 0
3, 404924, Note_on_c, 1, 76, 0
3, 404928, Note_on_c, 1, 76, 121
3, 404928, Note_on_c, 1, 72, 121
3, 404928, Note_on_c, 1, 79, 121
3, 405020, Note_on_c, 1, 79, 0
3, 405024, Note_on_c, 1, 84, 121
3, 405116, Note_on_c, 1, 84, 0
3, 405116, Note_on_c, 1, 72, 0
3, 405116, Note_on_c, 1, 76, 0
3, 405120, Note_on_c, 1, 76, 121
3, 405120, Note_on_c, 1, 72, 121
3, 405120, Note_on_c, 1, 79, 121
3, 405212, Note_on_c, 1, 79, 0
3, 405216, Note_on_c, 1, 84, 121
3, 405308, Note_on_c, 1, 84, 0
3, 405308, Note_on_c, 1, 72, 0
3, 405308, Note_on_c, 1, 76, 0
3, 405312, Note_on_c, 1, 76, 121
3, 405312, Note_on_c, 1, 72, 121
3, 405312, Note_on_c, 1, 79, 121
3, 405404, Note_on_c, 1, 79, 0
3, 405408, Note_on_c, 1, 84, 121
3, 405500, Note_on_c, 1, 84, 0
3, 405500, Note_on_c, 1, 72, 0
3, 405500, Note_on_c, 1, 76, 0
3, 405504, Note_on_c, 1, 79, 121
3, 405504, Note_on_c, 1, 76, 121
3, 405504, Note_on_c, 1, 72, 121
3, 405884, Note_on_c, 1, 72, 0
3, 405884, Note_on_c, 1, 76, 0
3, 405884, Note_on_c, 1, 79, 0
3, 405888, Note_on_c, 1, 84, 121
3, 405888, Note_on_c, 1, 79, 121
3, 405888, Note_on_c, 1, 76, 121
3, 405888, Note_on_c, 1, 72, 121
3, 406268, Note_on_c, 1, 72, 0
3, 406268, Note_on_c, 1, 84, 0
3, 406268, Note_on_c, 1, 79, 0
3, 406268, Note_on_c, 1, 76, 0
3, 406272, Note_on_c, 1, 84, 121
3, 406272, Note_on_c, 1, 79, 121
3, 406272, Note_on_c, 1, 76, 121
3, 406272, Note_on_c, 1, 72, 121
3, 406652, Note_on_c, 1, 72, 0
3, 406652, Note_on_c, 1, 84, 0
3, 406652, Note_on_c, 1, 79, 0
3, 406652, Note_on_c, 1, 76, 0
3, 406656, Note_on_c, 1, 84, 121
3, 406656, Note_on_c, 1, 79, 121
3, 406656, Note_on_c, 1, 72, 121
3, 406656, Note_on_c, 1, 76, 121
3, 407036, Note_on_c, 1, 76, 0
3, 407036, Note_on_c, 1, 84, 0
3, 407036, Note_on_c, 1, 79, 0
3, 407036, Note_on_c, 1, 72, 0
3, 407040, Note_on_c, 1, 84, 121
3, 407040, Note_on_c, 1, 79, 121
3, 407040, Note_on_c, 1, 76, 121
3, 407040, Note_on_c, 1, 72, 121
3, 407420, Note_on_c, 1, 72, 0
3, 407420, Note_on_c, 1, 84, 0
3, 407420, Note_on_c, 1, 79, 0
3, 407420, Note_on_c, 1, 76, 0
3, 407420, End_track
4, 0, Start_track
4, 0, MIDI_port, 0
4, 0, Title_t, "Concerto - 1778"
4, 0, Control_c, 2, 0, 0
4, 0, Control_c, 2, 32, 0
4, 0, Program_c, 2, 48
4, 0, Control_c, 2, 7, 98
4, 0, Control_c, 2, 10, 96
4, 0, Control_c, 2, 91, 63
4, 0, Control_c, 2, 93, 52
4, 0, Control_c, 2, 121, 0
4, 96, Control_c, 2, 10, 83
4, 192, Control_c, 2, 91, 63
4, 240, Control_c, 2, 93, 40
4, 288, Program_c, 2, 48
4, 1632, Note_on_c, 2, 48, 93
4, 2108, Note_on_c, 2, 48, 0
4, 2112, Note_on_c, 2, 43, 93
4, 2204, Note_on_c, 2, 43, 0
4, 2304, Note_on_c, 2, 40, 93
4, 2396, Note_on_c, 2, 40, 0
4, 2496, Note_on_c, 2, 36, 93
4, 2588, Note_on_c, 2, 36, 0
4, 2688, Note_on_c, 2, 40, 93
4, 2780, Note_on_c, 2, 40, 0
4, 2880, Note_on_c, 2, 43, 93
4, 2972, Note_on_c, 2, 43, 0
4, 3072, Note_on_c, 2, 48, 93
4, 3644, Note_on_c, 2, 48, 0
4, 3648, Note_on_c, 2, 43, 93
4, 3740, Note_on_c, 2, 43, 0
4, 3840, Note_on_c, 2, 40, 93
4, 3932, Note_on_c, 2, 40, 0
4, 4032, Note_on_c, 2, 36, 93
4, 4124, Note_on_c, 2, 36, 0
4, 4224, Note_on_c, 2, 40, 93
4, 4316, Note_on_c, 2, 40, 0
4, 4416, Note_on_c, 2, 43, 93
4, 4508, Note_on_c, 2, 43, 0
4, 4608, Note_on_c, 2, 48, 93
4, 4988, Note_on_c, 2, 48, 0
4, 4992, Note_on_c, 2, 48, 66
4, 5372, Note_on_c, 2, 48, 0
4, 5376, Note_on_c, 2, 47, 66
4, 5756, Note_on_c, 2, 47, 0
4, 5760, Note_on_c, 2, 48, 66
4, 6140, Note_on_c, 2, 48, 0
4, 6144, Note_on_c, 2, 50, 93
4, 6524, Note_on_c, 2, 50, 0
4, 6528, Note_on_c, 2, 50, 66
4, 6908, Note_on_c, 2, 50, 0
4, 6912, Note_on_c, 2, 49, 66
4, 7292, Note_on_c, 2, 49, 0
4, 7296, Note_on_c, 2, 50, 66
4, 7676, Note_on_c, 2, 50, 0
4, 7680, Note_on_c, 2, 52, 93
4, 8060, Note_on_c, 2, 52, 0
4, 8064, Note_on_c, 2, 52, 66
4, 8444, Note_on_c, 2, 52, 0
4, 8448, Note_on_c, 2, 51, 66
4, 8828, Note_on_c, 2, 51, 0
4, 8832, Note_on_c, 2, 52, 66
4, 9212, Note_on_c, 2, 52, 0
4, 9216, Note_on_c, 2, 53, 72
4, 9596, Note_on_c, 2, 53, 0
4, 9600, Note_on_c, 2, 55, 79
4, 9980, Note_on_c, 2, 55, 0
4, 9984, Note_on_c, 2, 57, 85
4, 10364, Note_on_c, 2, 57, 0
4, 10368, Note_on_c, 2, 59, 90
4, 10748, Note_on_c, 2, 59, 0
4, 10752, Note_on_c, 2, 60, 93
4, 10940, Note_on_c, 2, 60, 0
4, 10944, Note_on_c, 2, 60, 93
4, 11132, Note_on_c, 2, 60, 0
4, 11136, Note_on_c, 2, 60, 93
4, 11324, Note_on_c, 2, 60, 0
4, 11328, Note_on_c, 2, 60, 93
4, 11516, Note_on_c, 2, 60, 0
4, 11520, Note_on_c, 2, 60, 93
4, 11708, Note_on_c, 2, 60, 0
4, 11712, Note_on_c, 2, 60, 93
4, 11900, Note_on_c, 2, 60, 0
4, 11904, Note_on_c, 2, 60, 93
4, 12092, Note_on_c, 2, 60, 0
4, 12096, Note_on_c, 2, 60, 93
4, 12284, Note_on_c, 2, 60, 0
4, 12288, Note_on_c, 2, 60, 93
4, 12476, Note_on_c, 2, 60, 0
4, 12480, Note_on_c, 2, 60, 93
4, 12668, Note_on_c, 2, 60, 0
4, 12672, Note_on_c, 2, 60, 93
4, 12860, Note_on_c, 2, 60, 0
4, 12864, Note_on_c, 2, 60, 93
4, 13052, Note_on_c, 2, 60, 0
4, 13056, Note_on_c, 2, 60, 93
4, 13244, Note_on_c, 2, 60, 0
4, 13248, Note_on_c, 2, 60, 93
4, 13436, Note_on_c, 2, 60, 0
4, 13440, Note_on_c, 2, 60, 93
4, 13628, Note_on_c, 2, 60, 0
4, 13632, Note_on_c, 2, 60, 93
4, 13820, Note_on_c, 2, 60, 0
4, 13824, Note_on_c, 2, 60, 93
4, 14012, Note_on_c, 2, 60, 0
4, 14016, Note_on_c, 2, 48, 66
4, 14204, Note_on_c, 2, 48, 0
4, 14208, Note_on_c, 2, 48, 66
4, 14396, Note_on_c, 2, 48, 0
4, 14400, Note_on_c, 2, 48, 66
4, 14588, Note_on_c, 2, 48, 0
4, 14592, Note_on_c, 2, 48, 66
4, 14780, Note_on_c, 2, 48, 0
4, 14784, Note_on_c, 2, 48, 66
4, 14972, Note_on_c, 2, 48, 0
4, 14976, Note_on_c, 2, 48, 66
4, 15164, Note_on_c, 2, 48, 0
4, 15168, Note_on_c, 2, 48, 66
4, 15356, Note_on_c, 2, 48, 0
4, 15360, Note_on_c, 2, 48, 66
4, 15548, Note_on_c, 2, 48, 0
4, 15552, Note_on_c, 2, 48, 66
4, 15740, Note_on_c, 2, 48, 0
4, 15744, Note_on_c, 2, 48, 66
4, 15932, Note_on_c, 2, 48, 0
4, 15936, Note_on_c, 2, 48, 66
4, 16124, Note_on_c, 2, 48, 0
4, 16128, Note_on_c, 2, 48, 66
4, 16316, Note_on_c, 2, 48, 0
4, 16320, Note_on_c, 2, 60, 93
4, 16508, Note_on_c, 2, 60, 0
4, 16512, Note_on_c, 2, 60, 93
4, 16700, Note_on_c, 2, 60, 0
4, 16704, Note_on_c, 2, 60, 93
4, 16892, Note_on_c, 2, 60, 0
4, 16896, Note_on_c, 2, 59, 93
4, 16988, Note_on_c, 2, 59, 0
4, 17088, Note_on_c, 2, 62, 93
4, 17180, Note_on_c, 2, 62, 0
4, 17280, Note_on_c, 2, 59, 93
4, 17372, Note_on_c, 2, 59, 0
4, 17472, Note_on_c, 2, 55, 93
4, 17564, Note_on_c, 2, 55, 0
4, 17664, Note_on_c, 2, 53, 93
4, 17756, Note_on_c, 2, 53, 0
4, 17856, Note_on_c, 2, 50, 93
4, 17948, Note_on_c, 2, 50, 0
4, 18048, Note_on_c, 2, 47, 93
4, 18140, Note_on_c, 2, 47, 0
4, 18240, Note_on_c, 2, 43, 93
4, 18332, Note_on_c, 2, 43, 0
4, 18432, Note_on_c, 2, 48, 93
4, 18524, Note_on_c, 2, 48, 0
4, 18624, Note_on_c, 2, 64, 93
4, 18716, Note_on_c, 2, 64, 0
4, 18816, Note_on_c, 2, 60, 93
4, 18908, Note_on_c, 2, 60, 0
4, 19008, Note_on_c, 2, 55, 93
4, 19100, Note_on_c, 2, 55, 0
4, 19200, Note_on_c, 2, 52, 93
4, 19292, Note_on_c, 2, 52, 0
4, 19392, Note_on_c, 2, 55, 93
4, 19484, Note_on_c, 2, 55, 0
4, 19584, Note_on_c, 2, 52, 93
4, 19676, Note_on_c, 2, 52, 0
4, 19776, Note_on_c, 2, 48, 93
4, 19868, Note_on_c, 2, 48, 0
4, 19968, Note_on_c, 2, 53, 93
4, 20060, Note_on_c, 2, 53, 0
4, 20160, Note_on_c, 2, 53, 93
4, 20252, Note_on_c, 2, 53, 0
4, 20352, Note_on_c, 2, 53, 93
4, 20444, Note_on_c, 2, 53, 0
4, 20544, Note_on_c, 2, 53, 93
4, 20636, Note_on_c, 2, 53, 0
4, 20736, Note_on_c, 2, 55, 93
4, 20828, Note_on_c, 2, 55, 0
4, 20928, Note_on_c, 2, 55, 93
4, 21020, Note_on_c, 2, 55, 0
4, 21120, Note_on_c, 2, 55, 93
4, 21212, Note_on_c, 2, 55, 0
4, 21312, Note_on_c, 2, 55, 93
4, 21404, Note_on_c, 2, 55, 0
4, 21504, Note_on_c, 2, 48, 66
4, 21596, Note_on_c, 2, 48, 0
4, 21696, Note_on_c, 2, 50, 66
4, 21788, Note_on_c, 2, 50, 0
4, 21888, Note_on_c, 2, 52, 66
4, 21980, Note_on_c, 2, 52, 0
4, 22080, Note_on_c, 2, 53, 66
4, 22172, Note_on_c, 2, 53, 0
4, 22272, Note_on_c, 2, 55, 66
4, 22652, Note_on_c, 2, 55, 0
4, 23040, Note_on_c, 2, 59, 93
4, 23132, Note_on_c, 2, 59, 0
4, 23232, Note_on_c, 2, 62, 93
4, 23324, Note_on_c, 2, 62, 0
4, 23424, Note_on_c, 2, 59, 93
4, 23516, Note_on_c, 2, 59, 0
4, 23616, Note_on_c, 2, 55, 93
4, 23708, Note_on_c, 2, 55, 0
4, 23808, Note_on_c, 2, 53, 93
4, 23900, Note_on_c, 2, 53, 0
4, 24000, Note_on_c, 2, 50, 93
4, 24092, Note_on_c, 2, 50, 0
4, 24192, Note_on_c, 2, 47, 93
4, 24284, Note_on_c, 2, 47, 0
4, 24384, Note_on_c, 2, 43, 93
4, 24476, Note_on_c, 2, 43, 0
4, 24576, Note_on_c, 2, 48, 93
4, 24668, Note_on_c, 2, 48, 0
4, 24768, Note_on_c, 2, 64, 93
4, 24860, Note_on_c, 2, 64, 0
4, 24960, Note_on_c, 2, 60, 93
4, 25052, Note_on_c, 2, 60, 0
4, 25152, Note_on_c, 2, 56, 93
4, 25244, Note_on_c, 2, 56, 0
4, 25344, Note_on_c, 2, 57, 93
4, 25436, Note_on_c, 2, 57, 0
4, 25536, Note_on_c, 2, 60, 93
4, 25628, Note_on_c, 2, 60, 0
4, 25728, Note_on_c, 2, 57, 93
4, 25820, Note_on_c, 2, 57, 0
4, 25920, Note_on_c, 2, 52, 93
4, 26012, Note_on_c, 2, 52, 0
4, 26112, Note_on_c, 2, 53, 93
4, 26204, Note_on_c, 2, 53, 0
4, 26304, Note_on_c, 2, 55, 93
4, 26396, Note_on_c, 2, 55, 0
4, 26496, Note_on_c, 2, 57, 93
4, 26588, Note_on_c, 2, 57, 0
4, 26688, Note_on_c, 2, 52, 93
4, 26780, Note_on_c, 2, 52, 0
4, 26880, Note_on_c, 2, 53, 93
4, 26972, Note_on_c, 2, 53, 0
4, 27072, Note_on_c, 2, 53, 93
4, 27164, Note_on_c, 2, 53, 0
4, 27264, Note_on_c, 2, 54, 93
4, 27356, Note_on_c, 2, 54, 0
4, 27456, Note_on_c, 2, 54, 93
4, 27548, Note_on_c, 2, 54, 0
4, 27648, Note_on_c, 2, 55, 93
4, 27740, Note_on_c, 2, 55, 0
4, 27840, Note_on_c, 2, 59, 93
4, 27932, Note_on_c, 2, 59, 0
4, 28032, Note_on_c, 2, 62, 93
4, 28124, Note_on_c, 2, 62, 0
4, 28224, Note_on_c, 2, 55, 93
4, 28316, Note_on_c, 2, 55, 0
4, 28416, Note_on_c, 2, 60, 93
4, 28508, Note_on_c, 2, 60, 0
4, 28608, Note_on_c, 2, 55, 93
4, 28700, Note_on_c, 2, 55, 0
4, 28800, Note_on_c, 2, 52, 93
4, 28892, Note_on_c, 2, 52, 0
4, 28992, Note_on_c, 2, 48, 93
4, 29084, Note_on_c, 2, 48, 0
4, 29184, Note_on_c, 2, 55, 93
4, 29276, Note_on_c, 2, 55, 0
4, 29376, Note_on_c, 2, 59, 93
4, 29468, Note_on_c, 2, 59, 0
4, 29568, Note_on_c, 2, 62, 93
4, 29660, Note_on_c, 2, 62, 0
4, 29760, Note_on_c, 2, 55, 93
4, 29852, Note_on_c, 2, 55, 0
4, 29952, Note_on_c, 2, 60, 93
4, 30044, Note_on_c, 2, 60, 0
4, 30144, Note_on_c, 2, 55, 93
4, 30236, Note_on_c, 2, 55, 0
4, 30336, Note_on_c, 2, 52, 93
4, 30428, Note_on_c, 2, 52, 0
4, 30528, Note_on_c, 2, 48, 93
4, 30620, Note_on_c, 2, 48, 0
4, 30720, Note_on_c, 2, 43, 93
4, 31100, Note_on_c, 2, 43, 0
4, 31104, Note_on_c, 2, 55, 93
4, 31484, Note_on_c, 2, 55, 0
4, 31488, Note_on_c, 2, 43, 93
4, 31868, Note_on_c, 2, 43, 0
4, 32448, Note_on_c, 2, 55, 66
4, 32636, Note_on_c, 2, 55, 0
4, 32832, Note_on_c, 2, 55, 66
4, 33020, Note_on_c, 2, 55, 0
4, 33216, Note_on_c, 2, 55, 66
4, 33404, Note_on_c, 2, 55, 0
4, 33600, Note_on_c, 2, 55, 66
4, 33788, Note_on_c, 2, 55, 0
4, 33984, Note_on_c, 2, 55, 66
4, 34172, Note_on_c, 2, 55, 0
4, 34368, Note_on_c, 2, 55, 66
4, 34556, Note_on_c, 2, 55, 0
4, 34752, Note_on_c, 2, 55, 66
4, 34940, Note_on_c, 2, 55, 0
4, 35136, Note_on_c, 2, 55, 66
4, 35324, Note_on_c, 2, 55, 0
4, 35328, Note_on_c, 2, 60, 66
4, 35328, Note_on_c, 2, 48, 66
4, 35708, Note_on_c, 2, 48, 0
4, 36092, Note_on_c, 2, 60, 0
4, 36096, Note_on_c, 2, 64, 66
4, 36096, Note_on_c, 2, 52, 66
4, 36476, Note_on_c, 2, 52, 0
4, 36860, Note_on_c, 2, 64, 0
4, 36864, Note_on_c, 2, 50, 66
4, 36864, Note_on_c, 2, 62, 66
4, 37244, Note_on_c, 2, 50, 0
4, 37628, Note_on_c, 2, 62, 0
4, 37632, Note_on_c, 2, 55, 66
4, 37632, Note_on_c, 2, 43, 66
4, 38012, Note_on_c, 2, 43, 0
4, 38396, Note_on_c, 2, 55, 0
4, 38400, Note_on_c, 2, 60, 66
4, 38400, Note_on_c, 2, 48, 66
4, 38780, Note_on_c, 2, 48, 0
4, 39164, Note_on_c, 2, 60, 0
4, 39168, Note_on_c, 2, 64, 66
4, 39168, Note_on_c, 2, 52, 66
4, 39548, Note_on_c, 2, 52, 0
4, 39932, Note_on_c, 2, 64, 0
4, 39936, Note_on_c, 2, 62, 66
4, 39936, Note_on_c, 2, 50, 66
4, 40316, Note_on_c, 2, 50, 0
4, 40700, Note_on_c, 2, 62, 0
4, 40704, Note_on_c, 2, 55, 66
4, 40704, Note_on_c, 2, 43, 66
4, 41084, Note_on_c, 2, 43, 0
4, 41468, Note_on_c, 2, 55, 0
4, 41472, Note_on_c, 2, 48, 66
4, 41472, Note_on_c, 2, 60, 66
4, 41852, Note_on_c, 2, 48, 0
4, 42236, Note_on_c, 2, 60, 0
4, 42240, Note_on_c, 2, 48, 66
4, 42240, Note_on_c, 2, 58, 66
4, 42620, Note_on_c, 2, 48, 0
4, 43004, Note_on_c, 2, 58, 0
4, 43008, Note_on_c, 2, 57, 66
4, 43008, Note_on_c, 2, 48, 66
4, 43388, Note_on_c, 2, 48, 0
4, 43772, Note_on_c, 2, 57, 0
4, 43776, Note_on_c, 2, 53, 66
4, 43776, Note_on_c, 2, 48, 66
4, 44156, Note_on_c, 2, 48, 0
4, 44540, Note_on_c, 2, 53, 0
4, 44544, Note_on_c, 2, 52, 66
4, 44544, Note_on_c, 2, 48, 66
4, 44924, Note_on_c, 2, 48, 0
4, 45308, Note_on_c, 2, 52, 0
4, 45312, Note_on_c, 2, 64, 66
4, 45312, Note_on_c, 2, 48, 66
4, 45692, Note_on_c, 2, 48, 0
4, 46076, Note_on_c, 2, 64, 0
4, 46080, Note_on_c, 2, 65, 66
4, 46080, Note_on_c, 2, 53, 66
4, 46460, Note_on_c, 2, 53, 0
4, 46460, Note_on_c, 2, 65, 0
4, 49152, Note_on_c, 2, 55, 93
4, 49244, Note_on_c, 2, 55, 0
4, 49344, Note_on_c, 2, 55, 93
4, 49436, Note_on_c, 2, 55, 0
4, 49536, Note_on_c, 2, 55, 93
4, 49628, Note_on_c, 2, 55, 0
4, 49728, Note_on_c, 2, 55, 93
4, 49820, Note_on_c, 2, 55, 0
4, 49920, Note_on_c, 2, 55, 93
4, 50108, Note_on_c, 2, 55, 0
4, 50112, Note_on_c, 2, 55, 93
4, 50300, Note_on_c, 2, 55, 0
4, 50304, Note_on_c, 2, 55, 93
4, 50492, Note_on_c, 2, 55, 0
4, 50496, Note_on_c, 2, 55, 93
4, 50684, Note_on_c, 2, 55, 0
4, 50688, Note_on_c, 2, 55, 93
4, 50876, Note_on_c, 2, 55, 0
4, 50880, Note_on_c, 2, 55, 93
4, 51068, Note_on_c, 2, 55, 0
4, 51072, Note_on_c, 2, 55, 93
4, 51260, Note_on_c, 2, 55, 0
4, 51264, Note_on_c, 2, 55, 93
4, 51452, Note_on_c, 2, 55, 0
4, 51456, Note_on_c, 2, 55, 93
4, 51644, Note_on_c, 2, 55, 0
4, 51648, Note_on_c, 2, 55, 93
4, 51836, Note_on_c, 2, 55, 0
4, 51840, Note_on_c, 2, 55, 93
4, 52028, Note_on_c, 2, 55, 0
4, 52032, Note_on_c, 2, 55, 93
4, 52220, Note_on_c, 2, 55, 0
4, 52224, Note_on_c, 2, 60, 92
4, 52316, Note_on_c, 2, 60, 0
4, 52320, Note_on_c, 2, 55, 89
4, 52412, Note_on_c, 2, 55, 0
4, 52416, Note_on_c, 2, 57, 85
4, 52508, Note_on_c, 2, 57, 0
4, 52512, Note_on_c, 2, 59, 82
4, 52604, Note_on_c, 2, 59, 0
4, 52608, Note_on_c, 2, 60, 79
4, 52700, Note_on_c, 2, 60, 0
4, 52704, Note_on_c, 2, 62, 75
4, 52796, Note_on_c, 2, 62, 0
4, 52800, Note_on_c, 2, 64, 72
4, 52892, Note_on_c, 2, 64, 0
4, 52896, Note_on_c, 2, 62, 69
4, 52988, Note_on_c, 2, 62, 0
4, 52992, Note_on_c, 2, 60, 66
4, 53084, Note_on_c, 2, 60, 0
4, 53184, Note_on_c, 2, 55, 66
4, 53276, Note_on_c, 2, 55, 0
4, 53376, Note_on_c, 2, 62, 66
4, 53468, Note_on_c, 2, 62, 0
4, 53568, Note_on_c, 2, 55, 66
4, 53660, Note_on_c, 2, 55, 0
4, 53760, Note_on_c, 2, 64, 66
4, 53852, Note_on_c, 2, 64, 0
4, 53952, Note_on_c, 2, 55, 66
4, 54044, Note_on_c, 2, 55, 0
4, 54144, Note_on_c, 2, 64, 66
4, 54236, Note_on_c, 2, 64, 0
4, 54336, Note_on_c, 2, 55, 66
4, 54428, Note_on_c, 2, 55, 0
4, 54528, Note_on_c, 2, 60, 66
4, 54620, Note_on_c, 2, 60, 0
4, 54720, Note_on_c, 2, 55, 66
4, 54812, Note_on_c, 2, 55, 0
4, 54912, Note_on_c, 2, 62, 66
4, 55004, Note_on_c, 2, 62, 0
4, 55104, Note_on_c, 2, 55, 66
4, 55196, Note_on_c, 2, 55, 0
4, 55296, Note_on_c, 2, 64, 66
4, 55388, Note_on_c, 2, 64, 0
4, 55488, Note_on_c, 2, 55, 66
4, 55580, Note_on_c, 2, 55, 0
4, 55680, Note_on_c, 2, 64, 66
4, 55772, Note_on_c, 2, 64, 0
4, 55872, Note_on_c, 2, 55, 66
4, 55964, Note_on_c, 2, 55, 0
4, 56064, Note_on_c, 2, 60, 66
4, 56156, Note_on_c, 2, 60, 0
4, 56256, Note_on_c, 2, 55, 66
4, 56348, Note_on_c, 2, 55, 0
4, 56448, Note_on_c, 2, 60, 66
4, 56540, Note_on_c, 2, 60, 0
4, 56640, Note_on_c, 2, 55, 66
4, 56732, Note_on_c, 2, 55, 0
4, 56832, Note_on_c, 2, 64, 67
4, 56924, Note_on_c, 2, 64, 0
4, 57024, Note_on_c, 2, 55, 70
4, 57116, Note_on_c, 2, 55, 0
4, 57216, Note_on_c, 2, 62, 73
4, 57308, Note_on_c, 2, 62, 0
4, 57408, Note_on_c, 2, 55, 77
4, 57500, Note_on_c, 2, 55, 0
4, 57600, Note_on_c, 2, 60, 80
4, 57692, Note_on_c, 2, 60, 0
4, 57792, Note_on_c, 2, 55, 83
4, 57884, Note_on_c, 2, 55, 0
4, 57984, Note_on_c, 2, 59, 86
4, 58076, Note_on_c, 2, 59, 0
4, 58176, Note_on_c, 2, 55, 90
4, 58268, Note_on_c, 2, 55, 0
4, 58368, Note_on_c, 2, 52, 93
4, 58556, Note_on_c, 2, 52, 0
4, 58560, Note_on_c, 2, 52, 93
4, 58748, Note_on_c, 2, 52, 0
4, 58752, Note_on_c, 2, 52, 93
4, 58940, Note_on_c, 2, 52, 0
4, 58944, Note_on_c, 2, 52, 93
4, 59132, Note_on_c, 2, 52, 0
4, 59136, Note_on_c, 2, 53, 93
4, 59324, Note_on_c, 2, 53, 0
4, 59328, Note_on_c, 2, 53, 93
4, 59516, Note_on_c, 2, 53, 0
4, 59520, Note_on_c, 2, 53, 93
4, 59708, Note_on_c, 2, 53, 0
4, 59712, Note_on_c, 2, 53, 93
4, 59900, Note_on_c, 2, 53, 0
4, 59904, Note_on_c, 2, 55, 93
4, 60092, Note_on_c, 2, 55, 0
4, 60096, Note_on_c, 2, 55, 93
4, 60284, Note_on_c, 2, 55, 0
4, 60288, Note_on_c, 2, 55, 93
4, 60476, Note_on_c, 2, 55, 0
4, 60480, Note_on_c, 2, 55, 93
4, 60668, Note_on_c, 2, 55, 0
4, 60672, Note_on_c, 2, 55, 93
4, 60860, Note_on_c, 2, 55, 0
4, 60864, Note_on_c, 2, 55, 93
4, 61052, Note_on_c, 2, 55, 0
4, 61056, Note_on_c, 2, 43, 93
4, 61244, Note_on_c, 2, 43, 0
4, 61248, Note_on_c, 2, 43, 93
4, 61436, Note_on_c, 2, 43, 0
4, 61440, Note_on_c, 2, 48, 93
4, 61628, Note_on_c, 2, 48, 0
4, 61632, Note_on_c, 2, 52, 93
4, 61820, Note_on_c, 2, 52, 0
4, 61824, Note_on_c, 2, 55, 93
4, 62012, Note_on_c, 2, 55, 0
4, 62016, Note_on_c, 2, 52, 93
4, 62204, Note_on_c, 2, 52, 0
4, 62208, Note_on_c, 2, 48, 93
4, 62396, Note_on_c, 2, 48, 0
4, 62400, Note_on_c, 2, 52, 93
4, 62588, Note_on_c, 2, 52, 0
4, 62592, Note_on_c, 2, 55, 93
4, 62780, Note_on_c, 2, 55, 0
4, 62784, Note_on_c, 2, 52, 93
4, 62972, Note_on_c, 2, 52, 0
4, 62976, Note_on_c, 2, 48, 93
4, 63164, Note_on_c, 2, 48, 0
4, 63168, Note_on_c, 2, 52, 93
4, 63356, Note_on_c, 2, 52, 0
4, 63360, Note_on_c, 2, 55, 93
4, 63548, Note_on_c, 2, 55, 0
4, 63552, Note_on_c, 2, 52, 93
4, 63740, Note_on_c, 2, 52, 0
4, 63744, Note_on_c, 2, 48, 93
4, 63932, Note_on_c, 2, 48, 0
4, 63936, Note_on_c, 2, 52, 93
4, 64124, Note_on_c, 2, 52, 0
4, 64128, Note_on_c, 2, 55, 93
4, 64316, Note_on_c, 2, 55, 0
4, 64320, Note_on_c, 2, 52, 93
4, 64508, Note_on_c, 2, 52, 0
4, 64512, Note_on_c, 2, 48, 93
4, 64892, Note_on_c, 2, 48, 0
4, 66432, Note_on_c, 2, 53, 66
4, 66624, Note_on_c, 2, 65, 66
4, 66812, Note_on_c, 2, 65, 0
4, 66812, Note_on_c, 2, 53, 0
4, 66816, Note_on_c, 2, 52, 66
4, 67008, Note_on_c, 2, 64, 66
4, 67196, Note_on_c, 2, 64, 0
4, 67196, Note_on_c, 2, 52, 0
4, 67200, Note_on_c, 2, 50, 66
4, 67392, Note_on_c, 2, 62, 66
4, 67580, Note_on_c, 2, 62, 0
4, 67580, Note_on_c, 2, 50, 0
4, 67584, Note_on_c, 2, 48, 93
4, 67616, Note_on_c, 2, 48, 0
4, 67616, Note_on_c, 2, 52, 93
4, 67648, Note_on_c, 2, 52, 0
4, 67648, Note_on_c, 2, 55, 93
4, 67680, Note_on_c, 2, 55, 0
4, 67680, Note_on_c, 2, 60, 93
4, 68152, Note_on_c, 2, 60, 0
4, 68160, Note_on_c, 2, 55, 93
4, 68252, Note_on_c, 2, 55, 0
4, 68352, Note_on_c, 2, 52, 93
4, 68444, Note_on_c, 2, 52, 0
4, 68544, Note_on_c, 2, 48, 93
4, 68636, Note_on_c, 2, 48, 0
4, 68736, Note_on_c, 2, 52, 93
4, 68828, Note_on_c, 2, 52, 0
4, 68928, Note_on_c, 2, 55, 93
4, 69020, Note_on_c, 2, 55, 0
4, 69120, Note_on_c, 2, 60, 93
4, 69692, Note_on_c, 2, 60, 0
4, 69696, Note_on_c, 2, 55, 93
4, 69788, Note_on_c, 2, 55, 0
4, 69888, Note_on_c, 2, 52, 93
4, 69980, Note_on_c, 2, 52, 0
4, 70080, Note_on_c, 2, 48, 93
4, 70172, Note_on_c, 2, 48, 0
4, 70272, Note_on_c, 2, 52, 93
4, 70364, Note_on_c, 2, 52, 0
4, 70464, Note_on_c, 2, 55, 93
4, 70556, Note_on_c, 2, 55, 0
4, 70656, Note_on_c, 2, 60, 93
4, 71036, Note_on_c, 2, 60, 0
4, 71040, Note_on_c, 2, 48, 66
4, 71420, Note_on_c, 2, 48, 0
4, 82944, Note_on_c, 2, 48, 110
4, 83136, Note_on_c, 2, 60, 66
4, 83200, Note_on_c, 2, 48, 0
4, 83324, Note_on_c, 2, 60, 0
4, 83328, Note_on_c, 2, 60, 66
4, 83516, Note_on_c, 2, 60, 0
4, 83520, Note_on_c, 2, 60, 66
4, 83708, Note_on_c, 2, 60, 0
4, 83712, Note_on_c, 2, 60, 66
4, 83900, Note_on_c, 2, 60, 0
4, 83904, Note_on_c, 2, 60, 66
4, 84092, Note_on_c, 2, 60, 0
4, 84096, Note_on_c, 2, 60, 66
4, 84284, Note_on_c, 2, 60, 0
4, 84288, Note_on_c, 2, 60, 66
4, 84476, Note_on_c, 2, 60, 0
4, 84480, Note_on_c, 2, 48, 66
4, 84672, Note_on_c, 2, 60, 66
4, 84860, Note_on_c, 2, 60, 0
4, 84860, Note_on_c, 2, 48, 0
4, 84864, Note_on_c, 2, 60, 66
4, 85052, Note_on_c, 2, 60, 0
4, 85056, Note_on_c, 2, 60, 66
4, 85244, Note_on_c, 2, 60, 0
4, 85248, Note_on_c, 2, 60, 66
4, 85436, Note_on_c, 2, 60, 0
4, 85440, Note_on_c, 2, 60, 66
4, 85628, Note_on_c, 2, 60, 0
4, 85632, Note_on_c, 2, 60, 66
4, 85820, Note_on_c, 2, 60, 0
4, 85824, Note_on_c, 2, 60, 66
4, 86012, Note_on_c, 2, 60, 0
4, 86016, Note_on_c, 2, 48, 66
4, 86208, Note_on_c, 2, 60, 66
4, 86396, Note_on_c, 2, 60, 0
4, 86396, Note_on_c, 2, 48, 0
4, 86400, Note_on_c, 2, 60, 66
4, 86588, Note_on_c, 2, 60, 0
4, 86592, Note_on_c, 2, 60, 66
4, 86780, Note_on_c, 2, 60, 0
4, 86784, Note_on_c, 2, 60, 66
4, 86972, Note_on_c, 2, 60, 0
4, 86976, Note_on_c, 2, 60, 66
4, 87164, Note_on_c, 2, 60, 0
4, 87168, Note_on_c, 2, 60, 66
4, 87356, Note_on_c, 2, 60, 0
4, 87360, Note_on_c, 2, 60, 66
4, 87548, Note_on_c, 2, 60, 0
4, 87552, Note_on_c, 2, 57, 66
4, 87552, Note_on_c, 2, 53, 66
4, 88316, Note_on_c, 2, 53, 0
4, 88316, Note_on_c, 2, 57, 0
4, 88320, Note_on_c, 2, 55, 66
4, 89084, Note_on_c, 2, 55, 0
4, 93696, Note_on_c, 2, 55, 80
4, 93884, Note_on_c, 2, 55, 0
4, 93888, Note_on_c, 2, 64, 80
4, 94076, Note_on_c, 2, 64, 0
4, 94080, Note_on_c, 2, 60, 80
4, 94268, Note_on_c, 2, 60, 0
4, 94272, Note_on_c, 2, 64, 80
4, 94460, Note_on_c, 2, 64, 0
4, 94464, Note_on_c, 2, 55, 80
4, 94652, Note_on_c, 2, 55, 0
4, 94656, Note_on_c, 2, 60, 80
4, 94844, Note_on_c, 2, 60, 0
4, 94848, Note_on_c, 2, 55, 80
4, 95036, Note_on_c, 2, 55, 0
4, 95040, Note_on_c, 2, 59, 80
4, 95228, Note_on_c, 2, 59, 0
4, 95232, Note_on_c, 2, 60, 85
4, 95612, Note_on_c, 2, 60, 0
4, 95616, Note_on_c, 2, 60, 85
4, 95616, Note_on_c, 2, 48, 85
4, 95708, Note_on_c, 2, 48, 0
4, 95708, Note_on_c, 2, 60, 0
4, 95808, Note_on_c, 2, 59, 85
4, 95808, Note_on_c, 2, 47, 85
4, 95900, Note_on_c, 2, 47, 0
4, 95900, Note_on_c, 2, 59, 0
4, 96000, Note_on_c, 2, 57, 85
4, 96000, Note_on_c, 2, 45, 85
4, 96380, Note_on_c, 2, 45, 0
4, 96380, Note_on_c, 2, 57, 0
4, 96384, Note_on_c, 2, 57, 85
4, 96384, Note_on_c, 2, 45, 85
4, 96476, Note_on_c, 2, 45, 0
4, 96476, Note_on_c, 2, 57, 0
4, 96576, Note_on_c, 2, 55, 85
4, 96576, Note_on_c, 2, 43, 85
4, 96668, Note_on_c, 2, 43, 0
4, 96668, Note_on_c, 2, 55, 0
4, 96768, Note_on_c, 2, 53, 85
4, 96768, Note_on_c, 2, 41, 85
4, 97148, Note_on_c, 2, 41, 0
4, 97148, Note_on_c, 2, 53, 0
4, 97152, Note_on_c, 2, 53, 85
4, 97152, Note_on_c, 2, 41, 85
4, 97244, Note_on_c, 2, 41, 0
4, 97244, Note_on_c, 2, 53, 0
4, 97344, Note_on_c, 2, 52, 85
4, 97344, Note_on_c, 2, 40, 85
4, 97436, Note_on_c, 2, 40, 0
4, 97436, Note_on_c, 2, 52, 0
4, 97536, Note_on_c, 2, 50, 85
4, 97536, Note_on_c, 2, 38, 85
4, 97628, Note_on_c, 2, 38, 0
4, 97628, Note_on_c, 2, 50, 0
4, 97728, Note_on_c, 2, 48, 85
4, 97820, Note_on_c, 2, 48, 0
4, 97920, Note_on_c, 2, 47, 85
4, 98012, Note_on_c, 2, 47, 0
4, 98112, Note_on_c, 2, 45, 85
4, 98204, Note_on_c, 2, 45, 0
4, 98304, Note_on_c, 2, 55, 85
4, 98304, Note_on_c, 2, 43, 85
4, 98492, Note_on_c, 2, 43, 0
4, 98492, Note_on_c, 2, 55, 0
4, 98496, Note_on_c, 2, 43, 85
4, 98496, Note_on_c, 2, 55, 85
4, 98588, Note_on_c, 2, 55, 0
4, 98588, Note_on_c, 2, 43, 0
4, 98592, Note_on_c, 2, 59, 85
4, 98684, Note_on_c, 2, 59, 0
4, 98688, Note_on_c, 2, 45, 85
4, 98688, Note_on_c, 2, 57, 85
4, 98780, Note_on_c, 2, 57, 0
4, 98780, Note_on_c, 2, 45, 0
4, 98784, Note_on_c, 2, 60, 85
4, 98876, Note_on_c, 2, 60, 0
4, 98880, Note_on_c, 2, 47, 85
4, 98880, Note_on_c, 2, 59, 85
4, 98972, Note_on_c, 2, 59, 0
4, 98972, Note_on_c, 2, 47, 0
4, 98976, Note_on_c, 2, 62, 85
4, 99068, Note_on_c, 2, 62, 0
4, 99072, Note_on_c, 2, 48, 85
4, 99164, Note_on_c, 2, 48, 0
4, 99264, Note_on_c, 2, 50, 85
4, 99356, Note_on_c, 2, 50, 0
4, 99456, Note_on_c, 2, 52, 85
4, 99548, Note_on_c, 2, 52, 0
4, 99648, Note_on_c, 2, 54, 85
4, 99740, Note_on_c, 2, 54, 0
4, 99840, Note_on_c, 2, 55, 85
4, 100028, Note_on_c, 2, 55, 0
4, 100032, Note_on_c, 2, 43, 85
4, 100124, Note_on_c, 2, 43, 0
4, 100128, Note_on_c, 2, 55, 85
4, 100220, Note_on_c, 2, 55, 0
4, 100224, Note_on_c, 2, 45, 85
4, 100316, Note_on_c, 2, 45, 0
4, 100320, Note_on_c, 2, 57, 85
4, 100412, Note_on_c, 2, 57, 0
4, 100416, Note_on_c, 2, 47, 85
4, 100508, Note_on_c, 2, 47, 0
4, 100512, Note_on_c, 2, 59, 85
4, 100604, Note_on_c, 2, 59, 0
4, 100608, Note_on_c, 2, 48, 85
4, 100700, Note_on_c, 2, 48, 0
4, 100704, Note_on_c, 2, 60, 85
4, 100796, Note_on_c, 2, 60, 0
4, 100800, Note_on_c, 2, 50, 85
4, 100892, Note_on_c, 2, 50, 0
4, 100896, Note_on_c, 2, 62, 85
4, 100988, Note_on_c, 2, 62, 0
4, 100992, Note_on_c, 2, 52, 85
4, 101084, Note_on_c, 2, 52, 0
4, 101088, Note_on_c, 2, 64, 85
4, 101180, Note_on_c, 2, 64, 0
4, 101184, Note_on_c, 2, 53, 85
4, 101276, Note_on_c, 2, 53, 0
4, 101280, Note_on_c, 2, 65, 85
4, 101372, Note_on_c, 2, 65, 0
4, 101376, Note_on_c, 2, 67, 93
4, 101376, Note_on_c, 2, 55, 93
4, 101756, Note_on_c, 2, 55, 0
4, 101756, Note_on_c, 2, 67, 0
4, 103104, Note_on_c, 2, 55, 93
4, 103196, Note_on_c, 2, 55, 0
4, 103296, Note_on_c, 2, 59, 93
4, 103388, Note_on_c, 2, 59, 0
4, 103488, Note_on_c, 2, 55, 93
4, 103580, Note_on_c, 2, 55, 0
4, 103680, Note_on_c, 2, 50, 93
4, 103772, Note_on_c, 2, 50, 0
4, 103872, Note_on_c, 2, 55, 93
4, 103964, Note_on_c, 2, 55, 0
4, 104064, Note_on_c, 2, 47, 93
4, 104156, Note_on_c, 2, 47, 0
4, 104256, Note_on_c, 2, 50, 93
4, 104348, Note_on_c, 2, 50, 0
4, 104448, Note_on_c, 2, 43, 93
4, 104828, Note_on_c, 2, 43, 0
4, 116736, Note_on_c, 2, 43, 66
4, 116924, Note_on_c, 2, 43, 0
4, 116928, Note_on_c, 2, 55, 66
4, 117020, Note_on_c, 2, 55, 0
4, 117120, Note_on_c, 2, 55, 66
4, 117212, Note_on_c, 2, 55, 0
4, 117312, Note_on_c, 2, 55, 66
4, 117404, Note_on_c, 2, 55, 0
4, 117504, Note_on_c, 2, 59, 66
4, 117596, Note_on_c, 2, 59, 0
4, 117696, Note_on_c, 2, 59, 66
4, 117788, Note_on_c, 2, 59, 0
4, 117888, Note_on_c, 2, 59, 66
4, 117980, Note_on_c, 2, 59, 0
4, 118080, Note_on_c, 2, 59, 66
4, 118172, Note_on_c, 2, 59, 0
4, 118272, Note_on_c, 2, 60, 66
4, 118364, Note_on_c, 2, 60, 0
4, 118464, Note_on_c, 2, 60, 66
4, 118556, Note_on_c, 2, 60, 0
4, 118656, Note_on_c, 2, 60, 66
4, 118748, Note_on_c, 2, 60, 0
4, 118848, Note_on_c, 2, 60, 66
4, 118940, Note_on_c, 2, 60, 0
4, 119040, Note_on_c, 2, 60, 66
4, 119132, Note_on_c, 2, 60, 0
4, 119232, Note_on_c, 2, 60, 66
4, 119324, Note_on_c, 2, 60, 0
4, 119424, Note_on_c, 2, 61, 66
4, 119516, Note_on_c, 2, 61, 0
4, 119616, Note_on_c, 2, 61, 66
4, 119708, Note_on_c, 2, 61, 0
4, 119808, Note_on_c, 2, 38, 93
4, 119808, Note_on_c, 2, 50, 93
4, 119936, Note_on_c, 2, 50, 0
4, 119996, Note_on_c, 2, 38, 0
4, 132096, Note_on_c, 2, 50, 93
4, 132284, Note_on_c, 2, 50, 0
4, 132288, Note_on_c, 2, 54, 93
4, 132476, Note_on_c, 2, 54, 0
4, 132480, Note_on_c, 2, 57, 93
4, 132668, Note_on_c, 2, 57, 0
4, 132672, Note_on_c, 2, 50, 93
4, 132860, Note_on_c, 2, 50, 0
4, 132864, Note_on_c, 2, 55, 93
4, 133052, Note_on_c, 2, 55, 0
4, 133056, Note_on_c, 2, 50, 93
4, 133244, Note_on_c, 2, 50, 0
4, 133248, Note_on_c, 2, 47, 93
4, 133436, Note_on_c, 2, 47, 0
4, 133440, Note_on_c, 2, 43, 93
4, 133628, Note_on_c, 2, 43, 0
4, 133632, Note_on_c, 2, 50, 93
4, 133820, Note_on_c, 2, 50, 0
4, 133824, Note_on_c, 2, 54, 93
4, 134012, Note_on_c, 2, 54, 0
4, 134016, Note_on_c, 2, 57, 93
4, 134204, Note_on_c, 2, 57, 0
4, 134208, Note_on_c, 2, 50, 93
4, 134396, Note_on_c, 2, 50, 0
4, 134400, Note_on_c, 2, 55, 93
4, 134588, Note_on_c, 2, 55, 0
4, 134592, Note_on_c, 2, 62, 93
4, 134780, Note_on_c, 2, 62, 0
4, 134784, Note_on_c, 2, 59, 93
4, 134972, Note_on_c, 2, 59, 0
4, 134976, Note_on_c, 2, 55, 93
4, 135164, Note_on_c, 2, 55, 0
4, 135168, Note_on_c, 2, 50, 93
4, 135548, Note_on_c, 2, 50, 0
4, 135552, Note_on_c, 2, 62, 93
4, 135932, Note_on_c, 2, 62, 0
4, 135936, Note_on_c, 2, 50, 93
4, 136316, Note_on_c, 2, 50, 0
4, 139776, Note_on_c, 2, 55, 66
4, 139776, Note_on_c, 2, 43, 66
4, 140156, Note_on_c, 2, 43, 0
4, 140540, Note_on_c, 2, 55, 0
4, 140544, Note_on_c, 2, 59, 66
4, 140544, Note_on_c, 2, 47, 66
4, 140924, Note_on_c, 2, 47, 0
4, 141308, Note_on_c, 2, 59, 0
4, 141312, Note_on_c, 2, 57, 66
4, 141312, Note_on_c, 2, 45, 66
4, 141692, Note_on_c, 2, 45, 0
4, 142076, Note_on_c, 2, 57, 0
4, 142080, Note_on_c, 2, 50, 66
4, 142080, Note_on_c, 2, 38, 66
4, 142460, Note_on_c, 2, 38, 0
4, 142844, Note_on_c, 2, 50, 0
4, 142848, Note_on_c, 2, 55, 66
4, 142848, Note_on_c, 2, 43, 66
4, 143228, Note_on_c, 2, 43, 0
4, 143612, Note_on_c, 2, 55, 0
4, 143616, Note_on_c, 2, 59, 66
4, 143616, Note_on_c, 2, 47, 66
4, 143996, Note_on_c, 2, 47, 0
4, 144380, Note_on_c, 2, 59, 0
4, 144384, Note_on_c, 2, 57, 66
4, 144384, Note_on_c, 2, 45, 66
4, 144764, Note_on_c, 2, 45, 0
4, 145148, Note_on_c, 2, 57, 0
4, 145152, Note_on_c, 2, 50, 66
4, 145152, Note_on_c, 2, 38, 66
4, 145532, Note_on_c, 2, 38, 0
4, 145916, Note_on_c, 2, 50, 0
4, 145920, Note_on_c, 2, 55, 66
4, 145920, Note_on_c, 2, 43, 66
4, 146300, Note_on_c, 2, 43, 0
4, 146684, Note_on_c, 2, 55, 0
4, 146688, Note_on_c, 2, 53, 66
4, 146688, Note_on_c, 2, 43, 66
4, 147068, Note_on_c, 2, 43, 0
4, 147452, Note_on_c, 2, 53, 0
4, 147456, Note_on_c, 2, 43, 66
4, 147456, Note_on_c, 2, 52, 66
4, 147836, Note_on_c, 2, 43, 0
4, 148220, Note_on_c, 2, 52, 0
4, 148224, Note_on_c, 2, 43, 66
4, 148224, Note_on_c, 2, 48, 66
4, 148604, Note_on_c, 2, 43, 0
4, 148988, Note_on_c, 2, 48, 0
4, 148992, Note_on_c, 2, 47, 66
4, 148992, Note_on_c, 2, 43, 66
4, 149372, Note_on_c, 2, 43, 0
4, 149756, Note_on_c, 2, 47, 0
4, 149760, Note_on_c, 2, 59, 66
4, 149760, Note_on_c, 2, 43, 66
4, 150140, Note_on_c, 2, 43, 0
4, 150524, Note_on_c, 2, 59, 0
4, 156672, Note_on_c, 2, 48, 84
4, 156764, Note_on_c, 2, 48, 0
4, 156864, Note_on_c, 2, 60, 84
4, 156956, Note_on_c, 2, 60, 0
4, 157056, Note_on_c, 2, 48, 84
4, 157148, Note_on_c, 2, 48, 0
4, 157248, Note_on_c, 2, 60, 84
4, 157340, Note_on_c, 2, 60, 0
4, 157440, Note_on_c, 2, 50, 84
4, 157532, Note_on_c, 2, 50, 0
4, 157632, Note_on_c, 2, 62, 84
4, 157724, Note_on_c, 2, 62, 0
4, 157824, Note_on_c, 2, 50, 84
4, 157916, Note_on_c, 2, 50, 0
4, 158016, Note_on_c, 2, 62, 84
4, 158108, Note_on_c, 2, 62, 0
4, 158208, Note_on_c, 2, 55, 84
4, 158208, Note_on_c, 2, 43, 84
4, 158300, Note_on_c, 2, 43, 0
4, 158300, Note_on_c, 2, 55, 0
4, 158400, Note_on_c, 2, 57, 84
4, 158400, Note_on_c, 2, 45, 84
4, 158492, Note_on_c, 2, 45, 0
4, 158492, Note_on_c, 2, 57, 0
4, 158592, Note_on_c, 2, 59, 84
4, 158592, Note_on_c, 2, 47, 84
4, 158684, Note_on_c, 2, 47, 0
4, 158684, Note_on_c, 2, 59, 0
4, 158784, Note_on_c, 2, 60, 84
4, 158784, Note_on_c, 2, 48, 84
4, 158876, Note_on_c, 2, 48, 0
4, 158876, Note_on_c, 2, 60, 0
4, 158976, Note_on_c, 2, 62, 84
4, 158976, Note_on_c, 2, 50, 84
4, 159356, Note_on_c, 2, 50, 0
4, 159356, Note_on_c, 2, 62, 0
4, 160128, Note_on_c, 2, 60, 82
4, 160220, Note_on_c, 2, 60, 0
4, 160224, Note_on_c, 2, 59, 82
4, 160316, Note_on_c, 2, 59, 0
4, 160320, Note_on_c, 2, 57, 82
4, 160412, Note_on_c, 2, 57, 0
4, 160416, Note_on_c, 2, 55, 82
4, 160508, Note_on_c, 2, 55, 0
4, 160512, Note_on_c, 2, 54, 82
4, 160892, Note_on_c, 2, 54, 0
4, 160896, Note_on_c, 2, 50, 82
4, 160988, Note_on_c, 2, 50, 0
4, 160992, Note_on_c, 2, 48, 82
4, 161084, Note_on_c, 2, 48, 0
4, 161088, Note_on_c, 2, 47, 82
4, 161180, Note_on_c, 2, 47, 0
4, 161184, Note_on_c, 2, 45, 82
4, 161276, Note_on_c, 2, 45, 0
4, 161280, Note_on_c, 2, 43, 82
4, 161660, Note_on_c, 2, 43, 0
4, 161664, Note_on_c, 2, 59, 82
4, 161756, Note_on_c, 2, 59, 0
4, 161760, Note_on_c, 2, 57, 82
4, 161852, Note_on_c, 2, 57, 0
4, 161856, Note_on_c, 2, 55, 82
4, 161948, Note_on_c, 2, 55, 0
4, 161952, Note_on_c, 2, 54, 82
4, 162044, Note_on_c, 2, 54, 0
4, 162048, Note_on_c, 2, 52, 82
4, 162428, Note_on_c, 2, 52, 0
4, 182784, Note_on_c, 2, 50, 93
4, 182972, Note_on_c, 2, 50, 0
4, 182976, Note_on_c, 2, 50, 93
4, 183164, Note_on_c, 2, 50, 0
4, 183168, Note_on_c, 2, 50, 93
4, 183356, Note_on_c, 2, 50, 0
4, 183360, Note_on_c, 2, 50, 93
4, 183548, Note_on_c, 2, 50, 0
4, 183552, Note_on_c, 2, 50, 93
4, 183740, Note_on_c, 2, 50, 0
4, 183744, Note_on_c, 2, 50, 93
4, 183932, Note_on_c, 2, 50, 0
4, 183936, Note_on_c, 2, 50, 93
4, 184124, Note_on_c, 2, 50, 0
4, 184128, Note_on_c, 2, 50, 93
4, 184316, Note_on_c, 2, 50, 0
4, 184320, Note_on_c, 2, 59, 93
4, 184320, Note_on_c, 2, 55, 93
4, 184320, Note_on_c, 2, 43, 93
4, 184508, Note_on_c, 2, 43, 0
4, 184512, Note_on_c, 2, 55, 93
4, 184700, Note_on_c, 2, 55, 0
4, 184700, Note_on_c, 2, 55, 0
4, 184700, Note_on_c, 2, 59, 0
4, 184704, Note_on_c, 2, 55, 93
4, 184892, Note_on_c, 2, 55, 0
4, 184896, Note_on_c, 2, 55, 93
4, 185084, Note_on_c, 2, 55, 0
4, 185088, Note_on_c, 2, 55, 93
4, 185276, Note_on_c, 2, 55, 0
4, 185280, Note_on_c, 2, 55, 93
4, 185468, Note_on_c, 2, 55, 0
4, 185472, Note_on_c, 2, 55, 93
4, 185660, Note_on_c, 2, 55, 0
4, 185664, Note_on_c, 2, 55, 93
4, 185852, Note_on_c, 2, 55, 0
4, 185856, Note_on_c, 2, 55, 93
4, 186044, Note_on_c, 2, 55, 0
4, 186048, Note_on_c, 2, 55, 93
4, 186236, Note_on_c, 2, 55, 0
4, 186240, Note_on_c, 2, 55, 93
4, 186428, Note_on_c, 2, 55, 0
4, 186432, Note_on_c, 2, 55, 93
4, 186620, Note_on_c, 2, 55, 0
4, 186624, Note_on_c, 2, 55, 93
4, 186812, Note_on_c, 2, 55, 0
4, 186816, Note_on_c, 2, 55, 93
4, 187004, Note_on_c, 2, 55, 0
4, 187008, Note_on_c, 2, 55, 93
4, 187196, Note_on_c, 2, 55, 0
4, 187200, Note_on_c, 2, 55, 93
4, 187388, Note_on_c, 2, 55, 0
4, 187392, Note_on_c, 2, 55, 93
4, 187580, Note_on_c, 2, 55, 0
4, 187584, Note_on_c, 2, 55, 93
4, 187772, Note_on_c, 2, 55, 0
4, 187776, Note_on_c, 2, 55, 66
4, 187964, Note_on_c, 2, 55, 0
4, 187968, Note_on_c, 2, 55, 66
4, 188156, Note_on_c, 2, 55, 0
4, 188160, Note_on_c, 2, 55, 66
4, 188348, Note_on_c, 2, 55, 0
4, 188352, Note_on_c, 2, 55, 66
4, 188540, Note_on_c, 2, 55, 0
4, 188544, Note_on_c, 2, 55, 66
4, 188732, Note_on_c, 2, 55, 0
4, 188736, Note_on_c, 2, 55, 66
4, 188924, Note_on_c, 2, 55, 0
4, 188944, Note_on_c, 2, 55, 66
4, 189120, Note_on_c, 2, 55, 66
4, 189132, Note_on_c, 2, 55, 0
4, 189308, Note_on_c, 2, 55, 0
4, 189312, Note_on_c, 2, 55, 66
4, 189500, Note_on_c, 2, 55, 0
4, 189504, Note_on_c, 2, 55, 66
4, 189692, Note_on_c, 2, 55, 0
4, 189696, Note_on_c, 2, 55, 66
4, 189884, Note_on_c, 2, 55, 0
4, 189888, Note_on_c, 2, 55, 93
4, 190076, Note_on_c, 2, 55, 0
4, 190080, Note_on_c, 2, 55, 93
4, 190268, Note_on_c, 2, 55, 0
4, 190272, Note_on_c, 2, 55, 93
4, 190460, Note_on_c, 2, 55, 0
4, 190464, Note_on_c, 2, 54, 93
4, 190652, Note_on_c, 2, 54, 0
4, 190656, Note_on_c, 2, 57, 93
4, 190844, Note_on_c, 2, 57, 0
4, 190848, Note_on_c, 2, 54, 93
4, 191036, Note_on_c, 2, 54, 0
4, 191040, Note_on_c, 2, 50, 93
4, 191228, Note_on_c, 2, 50, 0
4, 191232, Note_on_c, 2, 54, 93
4, 191420, Note_on_c, 2, 54, 0
4, 191424, Note_on_c, 2, 57, 93
4, 191612, Note_on_c, 2, 57, 0
4, 191616, Note_on_c, 2, 54, 93
4, 191804, Note_on_c, 2, 54, 0
4, 191808, Note_on_c, 2, 50, 93
4, 191996, Note_on_c, 2, 50, 0
4, 192000, Note_on_c, 2, 55, 93
4, 192188, Note_on_c, 2, 55, 0
4, 192192, Note_on_c, 2, 59, 93
4, 192380, Note_on_c, 2, 59, 0
4, 192384, Note_on_c, 2, 55, 93
4, 192572, Note_on_c, 2, 55, 0
4, 192576, Note_on_c, 2, 50, 93
4, 192764, Note_on_c, 2, 50, 0
4, 192768, Note_on_c, 2, 47, 93
4, 192956, Note_on_c, 2, 47, 0
4, 192960, Note_on_c, 2, 50, 93
4, 193148, Note_on_c, 2, 50, 0
4, 193152, Note_on_c, 2, 47, 93
4, 193340, Note_on_c, 2, 47, 0
4, 193344, Note_on_c, 2, 43, 93
4, 193532, Note_on_c, 2, 43, 0
4, 193536, Note_on_c, 2, 48, 93
4, 193724, Note_on_c, 2, 48, 0
4, 193728, Note_on_c, 2, 48, 93
4, 193916, Note_on_c, 2, 48, 0
4, 193920, Note_on_c, 2, 48, 93
4, 194108, Note_on_c, 2, 48, 0
4, 194112, Note_on_c, 2, 48, 93
4, 194300, Note_on_c, 2, 48, 0
4, 194304, Note_on_c, 2, 50, 93
4, 194492, Note_on_c, 2, 50, 0
4, 194496, Note_on_c, 2, 50, 93
4, 194684, Note_on_c, 2, 50, 0
4, 194688, Note_on_c, 2, 50, 93
4, 194876, Note_on_c, 2, 50, 0
4, 194880, Note_on_c, 2, 50, 93
4, 195068, Note_on_c, 2, 50, 0
4, 195072, Note_on_c, 2, 47, 93
4, 195260, Note_on_c, 2, 47, 0
4, 195264, Note_on_c, 2, 47, 93
4, 195452, Note_on_c, 2, 47, 0
4, 195456, Note_on_c, 2, 47, 93
4, 195644, Note_on_c, 2, 47, 0
4, 195648, Note_on_c, 2, 47, 93
4, 195836, Note_on_c, 2, 47, 0
4, 195840, Note_on_c, 2, 48, 93
4, 196028, Note_on_c, 2, 48, 0
4, 196032, Note_on_c, 2, 48, 93
4, 196220, Note_on_c, 2, 48, 0
4, 196224, Note_on_c, 2, 48, 93
4, 196412, Note_on_c, 2, 48, 0
4, 196416, Note_on_c, 2, 48, 93
4, 196604, Note_on_c, 2, 48, 0
4, 196608, Note_on_c, 2, 50, 93
4, 196796, Note_on_c, 2, 50, 0
4, 196800, Note_on_c, 2, 50, 93
4, 196988, Note_on_c, 2, 50, 0
4, 196992, Note_on_c, 2, 50, 93
4, 197180, Note_on_c, 2, 50, 0
4, 197184, Note_on_c, 2, 50, 93
4, 197372, Note_on_c, 2, 50, 0
4, 197376, Note_on_c, 2, 50, 93
4, 197564, Note_on_c, 2, 50, 0
4, 197568, Note_on_c, 2, 50, 93
4, 197756, Note_on_c, 2, 50, 0
4, 197760, Note_on_c, 2, 50, 93
4, 197948, Note_on_c, 2, 50, 0
4, 197952, Note_on_c, 2, 50, 93
4, 198140, Note_on_c, 2, 50, 0
4, 198144, Note_on_c, 2, 50, 93
4, 198332, Note_on_c, 2, 50, 0
4, 198336, Note_on_c, 2, 50, 93
4, 198524, Note_on_c, 2, 50, 0
4, 198528, Note_on_c, 2, 50, 93
4, 198716, Note_on_c, 2, 50, 0
4, 198720, Note_on_c, 2, 50, 93
4, 198908, Note_on_c, 2, 50, 0
4, 198912, Note_on_c, 2, 50, 93
4, 199100, Note_on_c, 2, 50, 0
4, 199104, Note_on_c, 2, 50, 93
4, 199292, Note_on_c, 2, 50, 0
4, 199296, Note_on_c, 2, 50, 93
4, 199484, Note_on_c, 2, 50, 0
4, 199488, Note_on_c, 2, 50, 93
4, 199676, Note_on_c, 2, 50, 0
4, 199680, Note_on_c, 2, 43, 93
4, 200060, Note_on_c, 2, 43, 0
4, 200064, Note_on_c, 2, 55, 66
4, 200444, Note_on_c, 2, 55, 0
4, 200448, Note_on_c, 2, 54, 66
4, 200828, Note_on_c, 2, 54, 0
4, 200832, Note_on_c, 2, 52, 66
4, 201212, Note_on_c, 2, 52, 0
4, 201216, Note_on_c, 2, 51, 93
4, 201596, Note_on_c, 2, 51, 0
4, 201600, Note_on_c, 2, 52, 66
4, 201980, Note_on_c, 2, 52, 0
4, 201984, Note_on_c, 2, 50, 66
4, 202364, Note_on_c, 2, 50, 0
4, 202368, Note_on_c, 2, 48, 66
4, 202748, Note_on_c, 2, 48, 0
4, 202752, Note_on_c, 2, 47, 93
4, 203132, Note_on_c, 2, 47, 0
4, 203136, Note_on_c, 2, 48, 66
4, 203516, Note_on_c, 2, 48, 0
4, 203520, Note_on_c, 2, 47, 66
4, 203900, Note_on_c, 2, 47, 0
4, 203904, Note_on_c, 2, 45, 66
4, 204284, Note_on_c, 2, 45, 0
4, 204288, Note_on_c, 2, 44, 93
4, 204668, Note_on_c, 2, 44, 0
4, 205056, Note_on_c, 2, 44, 66
4, 205436, Note_on_c, 2, 44, 0
4, 205824, Note_on_c, 2, 45, 66
4, 206204, Note_on_c, 2, 45, 0
4, 206592, Note_on_c, 2, 45, 66
4, 206972, Note_on_c, 2, 45, 0
4, 207360, Note_on_c, 2, 56, 66
4, 207360, Note_on_c, 2, 52, 66
4, 207360, Note_on_c, 2, 50, 66
4, 207360, Note_on_c, 2, 47, 66
4, 207740, Note_on_c, 2, 47, 0
4, 208128, Note_on_c, 2, 47, 66
4, 208508, Note_on_c, 2, 47, 0
4, 208892, Note_on_c, 2, 50, 0
4, 208892, Note_on_c, 2, 52, 0
4, 208892, Note_on_c, 2, 56, 0
4, 208896, Note_on_c, 2, 57, 66
4, 208896, Note_on_c, 2, 52, 66
4, 208896, Note_on_c, 2, 48, 66
4, 209276, Note_on_c, 2, 48, 0
4, 209664, Note_on_c, 2, 48, 66
4, 210044, Note_on_c, 2, 48, 0
4, 210428, Note_on_c, 2, 52, 0
4, 210428, Note_on_c, 2, 57, 0
4, 210432, Note_on_c, 2, 59, 66
4, 210432, Note_on_c, 2, 50, 66
4, 211196, Note_on_c, 2, 50, 0
4, 211196, Note_on_c, 2, 59, 0
4, 211200, Note_on_c, 2, 64, 66
4, 211200, Note_on_c, 2, 52, 66
4, 211580, Note_on_c, 2, 52, 0
4, 211580, Note_on_c, 2, 64, 0
4, 211584, Note_on_c, 2, 64, 66
4, 211584, Note_on_c, 2, 52, 66
4, 211964, Note_on_c, 2, 52, 0
4, 211964, Note_on_c, 2, 64, 0
4, 211968, Note_on_c, 2, 64, 66
4, 211968, Note_on_c, 2, 57, 66
4, 212156, Note_on_c, 2, 57, 0
4, 212156, Note_on_c, 2, 64, 0
4, 212352, Note_on_c, 2, 64, 66
4, 212352, Note_on_c, 2, 59, 66
4, 212352, Note_on_c, 2, 62, 66
4, 212540, Note_on_c, 2, 62, 0
4, 212540, Note_on_c, 2, 59, 0
4, 212540, Note_on_c, 2, 64, 0
4, 212736, Note_on_c, 2, 64, 66
4, 212736, Note_on_c, 2, 60, 66
4, 212924, Note_on_c, 2, 60, 0
4, 212924, Note_on_c, 2, 64, 0
4, 213504, Note_on_c, 2, 50, 80
4, 214268, Note_on_c, 2, 50, 0
4, 214272, Note_on_c, 2, 52, 80
4, 214652, Note_on_c, 2, 52, 0
4, 214656, Note_on_c, 2, 52, 80
4, 215036, Note_on_c, 2, 52, 0
4, 215040, Note_on_c, 2, 57, 94
4, 215040, Note_on_c, 2, 45, 93
4, 215420, Note_on_c, 2, 45, 0
4, 215420, Note_on_c, 2, 57, 0
4, 219648, Note_on_c, 2, 49, 93
4, 220028, Note_on_c, 2, 49, 0
4, 220416, Note_on_c, 2, 49, 66
4, 220796, Note_on_c, 2, 49, 0
4, 221184, Note_on_c, 2, 50, 66
4, 221564, Note_on_c, 2, 50, 0
4, 221952, Note_on_c, 2, 50, 66
4, 222332, Note_on_c, 2, 50, 0
4, 222720, Note_on_c, 2, 61, 66
4, 222720, Note_on_c, 2, 58, 66
4, 222720, Note_on_c, 2, 52, 66
4, 223100, Note_on_c, 2, 52, 0
4, 223484, Note_on_c, 2, 58, 0
4, 223488, Note_on_c, 2, 52, 66
4, 223868, Note_on_c, 2, 52, 0
4, 223872, Note_on_c, 2, 61, 66
4, 223872, Note_on_c, 2, 57, 66
4, 224252, Note_on_c, 2, 57, 0
4, 224252, Note_on_c, 2, 61, 0
4, 224252, Note_on_c, 2, 61, 0
4, 224256, Note_on_c, 2, 62, 66
4, 224256, Note_on_c, 2, 57, 66
4, 224256, Note_on_c, 2, 53, 66
4, 224636, Note_on_c, 2, 53, 0
4, 225024, Note_on_c, 2, 53, 66
4, 225404, Note_on_c, 2, 53, 0
4, 225788, Note_on_c, 2, 57, 0
4, 225788, Note_on_c, 2, 62, 0
4, 225792, Note_on_c, 2, 58, 66
4, 225792, Note_on_c, 2, 55, 66
4, 226172, Note_on_c, 2, 55, 0
4, 226172, Note_on_c, 2, 58, 0
4, 226176, Note_on_c, 2, 55, 66
4, 226556, Note_on_c, 2, 55, 0
4, 226560, Note_on_c, 2, 57, 66
4, 226940, Note_on_c, 2, 57, 0
4, 226944, Note_on_c, 2, 57, 66
4, 227324, Note_on_c, 2, 57, 0
4, 227328, Note_on_c, 2, 57, 66
4, 227328, Note_on_c, 2, 50, 66
4, 227516, Note_on_c, 2, 50, 0
4, 227516, Note_on_c, 2, 57, 0
4, 227712, Note_on_c, 2, 57, 66
4, 227712, Note_on_c, 2, 55, 66
4, 227712, Note_on_c, 2, 52, 66
4, 227900, Note_on_c, 2, 52, 0
4, 227900, Note_on_c, 2, 55, 0
4, 227900, Note_on_c, 2, 57, 0
4, 228096, Note_on_c, 2, 57, 66
4, 228096, Note_on_c, 2, 53, 66
4, 228284, Note_on_c, 2, 53, 0
4, 228284, Note_on_c, 2, 57, 0
4, 228864, Note_on_c, 2, 58, 66
4, 229628, Note_on_c, 2, 58, 0
4, 229632, Note_on_c, 2, 57, 66
4, 230012, Note_on_c, 2, 57, 0
4, 230016, Note_on_c, 2, 45, 66
4, 230396, Note_on_c, 2, 45, 0
4, 248832, Note_on_c, 2, 55, 66
4, 249020, Note_on_c, 2, 55, 0
4, 249024, Note_on_c, 2, 47, 66
4, 249212, Note_on_c, 2, 47, 0
4, 249216, Note_on_c, 2, 48, 66
4, 249404, Note_on_c, 2, 48, 0
4, 249408, Note_on_c, 2, 50, 66
4, 249596, Note_on_c, 2, 50, 0
4, 249600, Note_on_c, 2, 51, 66
4, 249788, Note_on_c, 2, 51, 0
4, 249792, Note_on_c, 2, 52, 66
4, 249980, Note_on_c, 2, 52, 0
4, 249984, Note_on_c, 2, 53, 66
4, 250172, Note_on_c, 2, 53, 0
4, 250176, Note_on_c, 2, 54, 66
4, 250364, Note_on_c, 2, 54, 0
4, 250368, Note_on_c, 2, 55, 66
4, 250748, Note_on_c, 2, 55, 0
4, 252672, Note_on_c, 2, 54, 93
4, 252672, Note_on_c, 2, 54, 93
4, 252712, Note_on_c, 2, 54, 0
4, 252720, Note_on_c, 2, 57, 93
4, 252760, Note_on_c, 2, 57, 0
4, 252768, Note_on_c, 2, 60, 93
4, 252808, Note_on_c, 2, 60, 0
4, 252816, Note_on_c, 2, 63, 93
4, 252856, Note_on_c, 2, 63, 0
4, 253436, Note_on_c, 2, 54, 0
4, 253440, Note_on_c, 2, 55, 93
4, 253628, Note_on_c, 2, 55, 0
4, 254192, Note_on_c, 2, 54, 93
4, 254208, Note_on_c, 2, 54, 93
4, 254232, Note_on_c, 2, 54, 0
4, 254256, Note_on_c, 2, 57, 93
4, 254296, Note_on_c, 2, 57, 0
4, 254304, Note_on_c, 2, 60, 93
4, 254344, Note_on_c, 2, 60, 0
4, 254352, Note_on_c, 2, 63, 93
4, 254392, Note_on_c, 2, 63, 0
4, 254972, Note_on_c, 2, 54, 0
4, 254976, Note_on_c, 2, 55, 66
4, 255068, Note_on_c, 2, 55, 0
4, 255168, Note_on_c, 2, 55, 66
4, 255260, Note_on_c, 2, 55, 0
4, 255360, Note_on_c, 2, 43, 66
4, 255452, Note_on_c, 2, 43, 0
4, 255936, Note_on_c, 2, 55, 66
4, 256028, Note_on_c, 2, 55, 0
4, 256128, Note_on_c, 2, 43, 66
4, 256220, Note_on_c, 2, 43, 0
4, 256704, Note_on_c, 2, 55, 67
4, 256796, Note_on_c, 2, 55, 0
4, 256896, Note_on_c, 2, 43, 68
4, 256988, Note_on_c, 2, 43, 0
4, 257472, Note_on_c, 2, 55, 73
4, 257564, Note_on_c, 2, 55, 0
4, 257664, Note_on_c, 2, 43, 75
4, 257756, Note_on_c, 2, 43, 0
4, 258240, Note_on_c, 2, 55, 81
4, 258332, Note_on_c, 2, 55, 0
4, 258432, Note_on_c, 2, 43, 83
4, 258524, Note_on_c, 2, 43, 0
4, 259008, Note_on_c, 2, 55, 89
4, 259100, Note_on_c, 2, 55, 0
4, 259200, Note_on_c, 2, 43, 90
4, 259292, Note_on_c, 2, 43, 0
4, 259584, Note_on_c, 2, 48, 93
4, 259596, Note_on_c, 2, 52, 93
4, 259612, Note_on_c, 2, 55, 93
4, 259628, Note_on_c, 2, 60, 93
4, 260156, Note_on_c, 2, 48, 0
4, 260160, Note_on_c, 2, 55, 93
4, 260168, Note_on_c, 2, 52, 0
4, 260184, Note_on_c, 2, 55, 0
4, 260200, Note_on_c, 2, 60, 0
4, 260252, Note_on_c, 2, 55, 0
4, 260352, Note_on_c, 2, 52, 93
4, 260444, Note_on_c, 2, 52, 0
4, 260544, Note_on_c, 2, 48, 93
4, 260636, Note_on_c, 2, 48, 0
4, 260736, Note_on_c, 2, 52, 93
4, 260828, Note_on_c, 2, 52, 0
4, 260928, Note_on_c, 2, 55, 93
4, 261020, Note_on_c, 2, 55, 0
4, 261120, Note_on_c, 2, 60, 93
4, 261692, Note_on_c, 2, 60, 0
4, 261696, Note_on_c, 2, 55, 93
4, 261788, Note_on_c, 2, 55, 0
4, 261888, Note_on_c, 2, 52, 93
4, 261980, Note_on_c, 2, 52, 0
4, 262080, Note_on_c, 2, 48, 93
4, 262172, Note_on_c, 2, 48, 0
4, 262272, Note_on_c, 2, 52, 93
4, 262364, Note_on_c, 2, 52, 0
4, 262464, Note_on_c, 2, 55, 93
4, 262556, Note_on_c, 2, 55, 0
4, 262656, Note_on_c, 2, 60, 93
4, 263036, Note_on_c, 2, 60, 0
4, 263040, Note_on_c, 2, 48, 66
4, 263232, Note_on_c, 2, 60, 66
4, 263420, Note_on_c, 2, 60, 0
4, 263420, Note_on_c, 2, 48, 0
4, 263424, Note_on_c, 2, 47, 66
4, 263616, Note_on_c, 2, 59, 66
4, 263804, Note_on_c, 2, 59, 0
4, 263804, Note_on_c, 2, 47, 0
4, 263808, Note_on_c, 2, 48, 66
4, 264000, Note_on_c, 2, 60, 66
4, 264188, Note_on_c, 2, 60, 0
4, 264188, Note_on_c, 2, 48, 0
4, 264192, Note_on_c, 2, 50, 93
4, 264192, Note_on_c, 2, 62, 93
4, 264284, Note_on_c, 2, 62, 0
4, 264380, Note_on_c, 2, 50, 0
4, 264384, Note_on_c, 2, 62, 66
4, 264476, Note_on_c, 2, 62, 0
4, 264576, Note_on_c, 2, 50, 66
4, 264768, Note_on_c, 2, 62, 66
4, 264956, Note_on_c, 2, 62, 0
4, 264956, Note_on_c, 2, 50, 0
4, 264960, Note_on_c, 2, 49, 66
4, 265152, Note_on_c, 2, 61, 66
4, 265340, Note_on_c, 2, 61, 0
4, 265340, Note_on_c, 2, 49, 0
4, 265344, Note_on_c, 2, 50, 66
4, 265536, Note_on_c, 2, 62, 66
4, 265724, Note_on_c, 2, 62, 0
4, 265724, Note_on_c, 2, 50, 0
4, 265728, Note_on_c, 2, 52, 93
4, 266108, Note_on_c, 2, 52, 0
4, 266112, Note_on_c, 2, 52, 66
4, 266492, Note_on_c, 2, 52, 0
4, 266496, Note_on_c, 2, 51, 66
4, 266876, Note_on_c, 2, 51, 0
4, 266880, Note_on_c, 2, 52, 66
4, 267260, Note_on_c, 2, 52, 0
4, 267264, Note_on_c, 2, 53, 66
4, 267644, Note_on_c, 2, 53, 0
4, 267648, Note_on_c, 2, 55, 66
4, 268028, Note_on_c, 2, 55, 0
4, 268032, Note_on_c, 2, 57, 66
4, 268412, Note_on_c, 2, 57, 0
4, 268416, Note_on_c, 2, 59, 66
4, 268796, Note_on_c, 2, 59, 0
4, 268800, Note_on_c, 2, 60, 93
4, 268988, Note_on_c, 2, 60, 0
4, 281472, Note_on_c, 2, 60, 95
4, 281472, Note_on_c, 2, 48, 95
4, 281564, Note_on_c, 2, 48, 0
4, 281564, Note_on_c, 2, 60, 0
4, 281664, Note_on_c, 2, 59, 95
4, 281664, Note_on_c, 2, 47, 95
4, 281756, Note_on_c, 2, 47, 0
4, 281756, Note_on_c, 2, 59, 0
4, 281856, Note_on_c, 2, 57, 95
4, 281856, Note_on_c, 2, 45, 95
4, 282236, Note_on_c, 2, 45, 0
4, 282236, Note_on_c, 2, 57, 0
4, 282240, Note_on_c, 2, 57, 95
4, 282240, Note_on_c, 2, 45, 95
4, 282332, Note_on_c, 2, 45, 0
4, 282332, Note_on_c, 2, 57, 0
4, 282432, Note_on_c, 2, 55, 95
4, 282432, Note_on_c, 2, 43, 95
4, 282524, Note_on_c, 2, 43, 0
4, 282524, Note_on_c, 2, 55, 0
4, 282624, Note_on_c, 2, 53, 95
4, 282624, Note_on_c, 2, 41, 95
4, 283004, Note_on_c, 2, 41, 0
4, 283004, Note_on_c, 2, 53, 0
4, 283008, Note_on_c, 2, 53, 95
4, 283008, Note_on_c, 2, 41, 95
4, 283100, Note_on_c, 2, 41, 0
4, 283100, Note_on_c, 2, 53, 0
4, 283200, Note_on_c, 2, 52, 95
4, 283200, Note_on_c, 2, 40, 95
4, 283292, Note_on_c, 2, 40, 0
4, 283292, Note_on_c, 2, 52, 0
4, 283392, Note_on_c, 2, 50, 95
4, 283392, Note_on_c, 2, 38, 95
4, 283484, Note_on_c, 2, 38, 0
4, 283484, Note_on_c, 2, 50, 0
4, 283584, Note_on_c, 2, 48, 95
4, 283676, Note_on_c, 2, 48, 0
4, 283776, Note_on_c, 2, 47, 95
4, 283868, Note_on_c, 2, 47, 0
4, 283968, Note_on_c, 2, 45, 95
4, 284060, Note_on_c, 2, 45, 0
4, 284160, Note_on_c, 2, 43, 95
4, 284348, Note_on_c, 2, 43, 0
4, 284352, Note_on_c, 2, 43, 95
4, 284444, Note_on_c, 2, 43, 0
4, 284544, Note_on_c, 2, 45, 95
4, 284636, Note_on_c, 2, 45, 0
4, 284736, Note_on_c, 2, 47, 95
4, 284828, Note_on_c, 2, 47, 0
4, 284928, Note_on_c, 2, 48, 95
4, 285020, Note_on_c, 2, 48, 0
4, 285120, Note_on_c, 2, 50, 95
4, 285212, Note_on_c, 2, 50, 0
4, 285312, Note_on_c, 2, 52, 95
4, 285404, Note_on_c, 2, 52, 0
4, 285504, Note_on_c, 2, 54, 95
4, 285596, Note_on_c, 2, 54, 0
4, 285696, Note_on_c, 2, 55, 95
4, 285884, Note_on_c, 2, 55, 0
4, 285888, Note_on_c, 2, 43, 95
4, 285980, Note_on_c, 2, 43, 0
4, 285984, Note_on_c, 2, 55, 95
4, 286076, Note_on_c, 2, 55, 0
4, 286080, Note_on_c, 2, 45, 95
4, 286172, Note_on_c, 2, 45, 0
4, 286176, Note_on_c, 2, 57, 95
4, 286268, Note_on_c, 2, 57, 0
4, 286272, Note_on_c, 2, 47, 95
4, 286364, Note_on_c, 2, 47, 0
4, 286368, Note_on_c, 2, 59, 95
4, 286460, Note_on_c, 2, 59, 0
4, 286464, Note_on_c, 2, 48, 95
4, 286556, Note_on_c, 2, 48, 0
4, 286560, Note_on_c, 2, 60, 95
4, 286652, Note_on_c, 2, 60, 0
4, 286656, Note_on_c, 2, 50, 95
4, 286748, Note_on_c, 2, 50, 0
4, 286752, Note_on_c, 2, 62, 95
4, 286844, Note_on_c, 2, 62, 0
4, 286848, Note_on_c, 2, 52, 95
4, 286940, Note_on_c, 2, 52, 0
4, 286944, Note_on_c, 2, 64, 95
4, 287036, Note_on_c, 2, 64, 0
4, 287040, Note_on_c, 2, 54, 95
4, 287132, Note_on_c, 2, 54, 0
4, 287136, Note_on_c, 2, 66, 95
4, 287228, Note_on_c, 2, 66, 0
4, 287232, Note_on_c, 2, 67, 93
4, 287232, Note_on_c, 2, 55, 93
4, 287488, Note_on_c, 2, 55, 0
4, 287488, Note_on_c, 2, 67, 0
4, 288960, Note_on_c, 2, 55, 93
4, 289052, Note_on_c, 2, 55, 0
4, 289152, Note_on_c, 2, 59, 93
4, 289244, Note_on_c, 2, 59, 0
4, 289344, Note_on_c, 2, 55, 93
4, 289436, Note_on_c, 2, 55, 0
4, 289536, Note_on_c, 2, 50, 93
4, 289628, Note_on_c, 2, 50, 0
4, 289728, Note_on_c, 2, 55, 93
4, 289820, Note_on_c, 2, 55, 0
4, 289920, Note_on_c, 2, 47, 93
4, 290012, Note_on_c, 2, 47, 0
4, 290112, Note_on_c, 2, 50, 93
4, 290204, Note_on_c, 2, 50, 0
4, 290304, Note_on_c, 2, 43, 93
4, 290684, Note_on_c, 2, 43, 0
4, 302592, Note_on_c, 2, 60, 66
4, 302592, Note_on_c, 2, 48, 66
4, 302972, Note_on_c, 2, 48, 0
4, 303740, Note_on_c, 2, 60, 0
4, 303744, Note_on_c, 2, 56, 66
4, 304124, Note_on_c, 2, 56, 0
4, 304128, Note_on_c, 2, 57, 66
4, 305276, Note_on_c, 2, 57, 0
4, 305280, Note_on_c, 2, 52, 66
4, 305660, Note_on_c, 2, 52, 0
4, 305664, Note_on_c, 2, 53, 66
4, 306812, Note_on_c, 2, 53, 0
4, 306816, Note_on_c, 2, 49, 66
4, 307196, Note_on_c, 2, 49, 0
4, 307200, Note_on_c, 2, 50, 66
4, 307580, Note_on_c, 2, 50, 0
4, 307584, Note_on_c, 2, 55, 66
4, 307584, Note_on_c, 2, 52, 66
4, 307964, Note_on_c, 2, 52, 0
4, 307964, Note_on_c, 2, 55, 0
4, 307968, Note_on_c, 2, 53, 66
4, 308348, Note_on_c, 2, 53, 0
4, 308352, Note_on_c, 2, 54, 66
4, 308732, Note_on_c, 2, 54, 0
4, 321024, Note_on_c, 2, 55, 93
4, 321116, Note_on_c, 2, 55, 0
4, 321216, Note_on_c, 2, 59, 93
4, 321308, Note_on_c, 2, 59, 0
4, 321408, Note_on_c, 2, 62, 93
4, 321500, Note_on_c, 2, 62, 0
4, 321600, Note_on_c, 2, 55, 93
4, 321692, Note_on_c, 2, 55, 0
4, 321792, Note_on_c, 2, 60, 93
4, 321884, Note_on_c, 2, 60, 0
4, 321984, Note_on_c, 2, 55, 93
4, 322076, Note_on_c, 2, 55, 0
4, 322176, Note_on_c, 2, 52, 93
4, 322268, Note_on_c, 2, 52, 0
4, 322368, Note_on_c, 2, 48, 93
4, 322460, Note_on_c, 2, 48, 0
4, 322560, Note_on_c, 2, 55, 93
4, 322652, Note_on_c, 2, 55, 0
4, 322752, Note_on_c, 2, 59, 93
4, 322844, Note_on_c, 2, 59, 0
4, 322944, Note_on_c, 2, 62, 93
4, 323036, Note_on_c, 2, 62, 0
4, 323136, Note_on_c, 2, 55, 93
4, 323228, Note_on_c, 2, 55, 0
4, 323328, Note_on_c, 2, 60, 93
4, 323420, Note_on_c, 2, 60, 0
4, 323520, Note_on_c, 2, 55, 93
4, 323612, Note_on_c, 2, 55, 0
4, 323712, Note_on_c, 2, 52, 93
4, 323804, Note_on_c, 2, 52, 0
4, 323904, Note_on_c, 2, 48, 93
4, 323996, Note_on_c, 2, 48, 0
4, 324096, Note_on_c, 2, 43, 93
4, 324476, Note_on_c, 2, 43, 0
4, 324480, Note_on_c, 2, 55, 93
4, 324860, Note_on_c, 2, 55, 0
4, 324864, Note_on_c, 2, 43, 93
4, 325244, Note_on_c, 2, 43, 0
4, 325632, Note_on_c, 2, 64, 66
4, 325632, Note_on_c, 2, 60, 66
4, 325820, Note_on_c, 2, 60, 0
4, 325820, Note_on_c, 2, 64, 0
4, 325824, Note_on_c, 2, 55, 66
4, 326012, Note_on_c, 2, 55, 0
4, 326016, Note_on_c, 2, 64, 66
4, 326016, Note_on_c, 2, 60, 66
4, 326204, Note_on_c, 2, 60, 0
4, 326204, Note_on_c, 2, 64, 0
4, 326208, Note_on_c, 2, 55, 66
4, 326396, Note_on_c, 2, 55, 0
4, 326400, Note_on_c, 2, 64, 66
4, 326400, Note_on_c, 2, 60, 66
4, 326588, Note_on_c, 2, 60, 0
4, 326588, Note_on_c, 2, 64, 0
4, 326592, Note_on_c, 2, 55, 66
4, 326780, Note_on_c, 2, 55, 0
4, 326784, Note_on_c, 2, 64, 66
4, 326784, Note_on_c, 2, 60, 66
4, 326972, Note_on_c, 2, 60, 0
4, 326972, Note_on_c, 2, 64, 0
4, 326976, Note_on_c, 2, 55, 66
4, 327164, Note_on_c, 2, 55, 0
4, 327168, Note_on_c, 2, 62, 66
4, 327168, Note_on_c, 2, 65, 66
4, 327356, Note_on_c, 2, 65, 0
4, 327356, Note_on_c, 2, 62, 0
4, 327360, Note_on_c, 2, 55, 66
4, 327548, Note_on_c, 2, 55, 0
4, 327552, Note_on_c, 2, 65, 66
4, 327552, Note_on_c, 2, 62, 66
4, 327740, Note_on_c, 2, 62, 0
4, 327740, Note_on_c, 2, 65, 0
4, 327744, Note_on_c, 2, 55, 66
4, 327932, Note_on_c, 2, 55, 0
4, 327936, Note_on_c, 2, 65, 66
4, 327936, Note_on_c, 2, 62, 66
4, 328124, Note_on_c, 2, 62, 0
4, 328124, Note_on_c, 2, 65, 0
4, 328128, Note_on_c, 2, 55, 66
4, 328316, Note_on_c, 2, 55, 0
4, 328320, Note_on_c, 2, 65, 66
4, 328320, Note_on_c, 2, 62, 66
4, 328508, Note_on_c, 2, 62, 0
4, 328508, Note_on_c, 2, 65, 0
4, 328512, Note_on_c, 2, 55, 66
4, 328700, Note_on_c, 2, 55, 0
4, 328704, Note_on_c, 2, 60, 66
4, 328704, Note_on_c, 2, 48, 66
4, 329084, Note_on_c, 2, 48, 0
4, 329468, Note_on_c, 2, 60, 0
4, 329472, Note_on_c, 2, 64, 66
4, 329472, Note_on_c, 2, 52, 66
4, 329852, Note_on_c, 2, 52, 0
4, 330236, Note_on_c, 2, 64, 0
4, 330240, Note_on_c, 2, 62, 66
4, 330240, Note_on_c, 2, 50, 66
4, 330620, Note_on_c, 2, 50, 0
4, 331004, Note_on_c, 2, 62, 0
4, 331008, Note_on_c, 2, 55, 66
4, 331008, Note_on_c, 2, 43, 66
4, 331388, Note_on_c, 2, 43, 0
4, 331772, Note_on_c, 2, 55, 0
4, 331776, Note_on_c, 2, 60, 66
4, 331776, Note_on_c, 2, 48, 66
4, 332156, Note_on_c, 2, 48, 0
4, 332528, Note_on_c, 2, 52, 66
4, 332540, Note_on_c, 2, 60, 0
4, 332544, Note_on_c, 2, 64, 66
4, 332908, Note_on_c, 2, 52, 0
4, 333308, Note_on_c, 2, 64, 0
4, 333312, Note_on_c, 2, 62, 66
4, 333312, Note_on_c, 2, 50, 66
4, 333692, Note_on_c, 2, 50, 0
4, 334076, Note_on_c, 2, 62, 0
4, 334080, Note_on_c, 2, 55, 66
4, 334080, Note_on_c, 2, 43, 66
4, 334460, Note_on_c, 2, 43, 0
4, 334844, Note_on_c, 2, 55, 0
4, 334848, Note_on_c, 2, 48, 66
4, 334848, Note_on_c, 2, 60, 66
4, 335228, Note_on_c, 2, 48, 0
4, 335612, Note_on_c, 2, 60, 0
4, 335616, Note_on_c, 2, 48, 67
4, 335616, Note_on_c, 2, 58, 67
4, 335996, Note_on_c, 2, 48, 0
4, 336380, Note_on_c, 2, 58, 0
4, 336384, Note_on_c, 2, 48, 70
4, 336384, Note_on_c, 2, 57, 70
4, 336764, Note_on_c, 2, 48, 0
4, 337148, Note_on_c, 2, 57, 0
4, 337152, Note_on_c, 2, 48, 73
4, 337152, Note_on_c, 2, 53, 73
4, 337532, Note_on_c, 2, 48, 0
4, 337916, Note_on_c, 2, 53, 0
4, 337920, Note_on_c, 2, 52, 79
4, 337920, Note_on_c, 2, 48, 79
4, 338300, Note_on_c, 2, 48, 0
4, 338688, Note_on_c, 2, 48, 85
4, 339068, Note_on_c, 2, 48, 0
4, 339452, Note_on_c, 2, 52, 0
4, 345600, Note_on_c, 2, 53, 88
4, 345788, Note_on_c, 2, 53, 0
4, 345792, Note_on_c, 2, 65, 88
4, 345980, Note_on_c, 2, 65, 0
4, 345984, Note_on_c, 2, 53, 88
4, 346172, Note_on_c, 2, 53, 0
4, 346176, Note_on_c, 2, 65, 88
4, 346268, Note_on_c, 2, 65, 0
4, 346368, Note_on_c, 2, 55, 88
4, 346460, Note_on_c, 2, 55, 0
4, 346560, Note_on_c, 2, 67, 88
4, 346652, Note_on_c, 2, 67, 0
4, 346752, Note_on_c, 2, 55, 88
4, 346844, Note_on_c, 2, 55, 0
4, 346944, Note_on_c, 2, 67, 88
4, 347036, Note_on_c, 2, 67, 0
4, 347136, Note_on_c, 2, 60, 88
4, 347136, Note_on_c, 2, 48, 88
4, 347228, Note_on_c, 2, 48, 0
4, 347228, Note_on_c, 2, 60, 0
4, 347328, Note_on_c, 2, 62, 88
4, 347328, Note_on_c, 2, 50, 88
4, 347420, Note_on_c, 2, 50, 0
4, 347420, Note_on_c, 2, 62, 0
4, 347520, Note_on_c, 2, 64, 88
4, 347520, Note_on_c, 2, 52, 88
4, 347612, Note_on_c, 2, 52, 0
4, 347612, Note_on_c, 2, 64, 0
4, 347712, Note_on_c, 2, 65, 83
4, 347712, Note_on_c, 2, 53, 78
4, 347804, Note_on_c, 2, 53, 0
4, 347804, Note_on_c, 2, 65, 0
4, 347904, Note_on_c, 2, 67, 73
4, 347904, Note_on_c, 2, 55, 69
4, 348284, Note_on_c, 2, 55, 0
4, 348284, Note_on_c, 2, 67, 0
4, 349056, Note_on_c, 2, 62, 66
4, 349148, Note_on_c, 2, 62, 0
4, 349152, Note_on_c, 2, 60, 66
4, 349244, Note_on_c, 2, 60, 0
4, 349248, Note_on_c, 2, 59, 66
4, 349328, Note_on_c, 2, 57, 66
4, 349340, Note_on_c, 2, 59, 0
4, 349420, Note_on_c, 2, 57, 0
4, 349440, Note_on_c, 2, 55, 66
4, 349820, Note_on_c, 2, 55, 0
4, 349824, Note_on_c, 2, 67, 66
4, 349916, Note_on_c, 2, 67, 0
4, 349920, Note_on_c, 2, 65, 66
4, 350012, Note_on_c, 2, 65, 0
4, 350016, Note_on_c, 2, 64, 66
4, 350108, Note_on_c, 2, 64, 0
4, 350112, Note_on_c, 2, 62, 66
4, 350204, Note_on_c, 2, 62, 0
4, 350208, Note_on_c, 2, 60, 66
4, 350588, Note_on_c, 2, 60, 0
4, 350592, Note_on_c, 2, 55, 66
4, 350684, Note_on_c, 2, 55, 0
4, 350688, Note_on_c, 2, 53, 66
4, 350780, Note_on_c, 2, 53, 0
4, 350784, Note_on_c, 2, 52, 66
4, 350876, Note_on_c, 2, 52, 0
4, 350880, Note_on_c, 2, 50, 66
4, 350972, Note_on_c, 2, 50, 0
4, 350976, Note_on_c, 2, 48, 66
4, 351356, Note_on_c, 2, 48, 0
4, 351360, Note_on_c, 2, 60, 66
4, 351452, Note_on_c, 2, 60, 0
4, 351456, Note_on_c, 2, 59, 66
4, 351548, Note_on_c, 2, 59, 0
4, 351552, Note_on_c, 2, 57, 66
4, 351644, Note_on_c, 2, 57, 0
4, 351648, Note_on_c, 2, 55, 66
4, 351740, Note_on_c, 2, 55, 0
4, 354240, Note_on_c, 2, 55, 66
4, 354428, Note_on_c, 2, 55, 0
4, 354624, Note_on_c, 2, 55, 66
4, 354812, Note_on_c, 2, 55, 0
4, 355008, Note_on_c, 2, 55, 66
4, 355196, Note_on_c, 2, 55, 0
4, 355392, Note_on_c, 2, 55, 66
4, 355580, Note_on_c, 2, 55, 0
4, 355776, Note_on_c, 2, 55, 66
4, 355964, Note_on_c, 2, 55, 0
4, 356160, Note_on_c, 2, 55, 66
4, 356348, Note_on_c, 2, 55, 0
4, 356544, Note_on_c, 2, 55, 66
4, 356732, Note_on_c, 2, 55, 0
4, 356928, Note_on_c, 2, 55, 66
4, 357116, Note_on_c, 2, 55, 0
4, 357312, Note_on_c, 2, 55, 66
4, 357500, Note_on_c, 2, 55, 0
4, 357696, Note_on_c, 2, 55, 66
4, 357884, Note_on_c, 2, 55, 0
4, 358080, Note_on_c, 2, 55, 66
4, 358268, Note_on_c, 2, 55, 0
4, 358464, Note_on_c, 2, 55, 66
4, 358652, Note_on_c, 2, 55, 0
4, 358848, Note_on_c, 2, 55, 66
4, 359036, Note_on_c, 2, 55, 0
4, 359232, Note_on_c, 2, 55, 66
4, 359420, Note_on_c, 2, 55, 0
4, 373248, Note_on_c, 2, 60, 100
4, 373248, Note_on_c, 2, 48, 100
4, 373632, Note_on_c, 2, 48, 0
4, 373632, Note_on_c, 2, 60, 0
4, 374016, Note_on_c, 2, 60, 93
4, 374588, Note_on_c, 2, 60, 0
4, 374592, Note_on_c, 2, 55, 93
4, 374684, Note_on_c, 2, 55, 0
4, 374784, Note_on_c, 2, 52, 93
4, 374876, Note_on_c, 2, 52, 0
4, 374976, Note_on_c, 2, 48, 93
4, 375068, Note_on_c, 2, 48, 0
4, 375168, Note_on_c, 2, 52, 93
4, 375260, Note_on_c, 2, 52, 0
4, 375360, Note_on_c, 2, 55, 93
4, 375452, Note_on_c, 2, 55, 0
4, 375536, Note_on_c, 2, 60, 93
4, 376012, Note_on_c, 2, 60, 0
4, 376128, Note_on_c, 2, 55, 93
4, 376220, Note_on_c, 2, 55, 0
4, 376320, Note_on_c, 2, 52, 93
4, 376412, Note_on_c, 2, 52, 0
4, 376512, Note_on_c, 2, 48, 93
4, 376604, Note_on_c, 2, 48, 0
4, 376704, Note_on_c, 2, 52, 93
4, 376796, Note_on_c, 2, 52, 0
4, 376896, Note_on_c, 2, 55, 93
4, 376988, Note_on_c, 2, 55, 0
4, 377088, Note_on_c, 2, 60, 93
4, 377180, Note_on_c, 2, 60, 0
4, 377280, Note_on_c, 2, 57, 93
4, 377372, Note_on_c, 2, 57, 0
4, 377472, Note_on_c, 2, 60, 93
4, 377564, Note_on_c, 2, 60, 0
4, 377664, Note_on_c, 2, 64, 93
4, 377756, Note_on_c, 2, 64, 0
4, 377856, Note_on_c, 2, 57, 93
4, 377948, Note_on_c, 2, 57, 0
4, 378048, Note_on_c, 2, 53, 93
4, 378140, Note_on_c, 2, 53, 0
4, 378240, Note_on_c, 2, 57, 93
4, 378332, Note_on_c, 2, 57, 0
4, 378432, Note_on_c, 2, 60, 93
4, 378524, Note_on_c, 2, 60, 0
4, 378624, Note_on_c, 2, 53, 93
4, 378716, Note_on_c, 2, 53, 0
4, 378816, Note_on_c, 2, 50, 93
4, 378908, Note_on_c, 2, 50, 0
4, 379008, Note_on_c, 2, 53, 93
4, 379100, Note_on_c, 2, 53, 0
4, 379200, Note_on_c, 2, 57, 93
4, 379292, Note_on_c, 2, 57, 0
4, 379392, Note_on_c, 2, 53, 93
4, 379484, Note_on_c, 2, 53, 0
4, 379584, Note_on_c, 2, 49, 93
4, 379676, Note_on_c, 2, 49, 0
4, 379776, Note_on_c, 2, 50, 93
4, 379868, Note_on_c, 2, 50, 0
4, 379968, Note_on_c, 2, 52, 93
4, 380060, Note_on_c, 2, 52, 0
4, 380160, Note_on_c, 2, 53, 93
4, 380252, Note_on_c, 2, 53, 0
4, 380352, Note_on_c, 2, 53, 93
4, 380444, Note_on_c, 2, 53, 0
4, 380544, Note_on_c, 2, 54, 93
4, 380636, Note_on_c, 2, 54, 0
4, 380736, Note_on_c, 2, 54, 93
4, 380828, Note_on_c, 2, 54, 0
4, 380928, Note_on_c, 2, 55, 93
4, 381020, Note_on_c, 2, 55, 0
4, 381120, Note_on_c, 2, 59, 93
4, 381212, Note_on_c, 2, 59, 0
4, 381312, Note_on_c, 2, 62, 93
4, 381404, Note_on_c, 2, 62, 0
4, 381504, Note_on_c, 2, 55, 93
4, 381596, Note_on_c, 2, 55, 0
4, 381696, Note_on_c, 2, 60, 93
4, 381788, Note_on_c, 2, 60, 0
4, 381888, Note_on_c, 2, 55, 93
4, 381980, Note_on_c, 2, 55, 0
4, 382080, Note_on_c, 2, 52, 93
4, 382172, Note_on_c, 2, 52, 0
4, 382272, Note_on_c, 2, 48, 93
4, 382364, Note_on_c, 2, 48, 0
4, 382464, Note_on_c, 2, 55, 93
4, 382596, Note_on_c, 2, 55, 0
4, 382656, Note_on_c, 2, 59, 93
4, 382788, Note_on_c, 2, 59, 0
4, 382848, Note_on_c, 2, 62, 93
4, 382980, Note_on_c, 2, 62, 0
4, 383040, Note_on_c, 2, 55, 93
4, 383172, Note_on_c, 2, 55, 0
4, 383232, Note_on_c, 2, 60, 93
4, 383364, Note_on_c, 2, 60, 0
4, 383424, Note_on_c, 2, 55, 93
4, 383556, Note_on_c, 2, 55, 0
4, 383616, Note_on_c, 2, 52, 93
4, 383748, Note_on_c, 2, 52, 0
4, 383808, Note_on_c, 2, 48, 93
4, 383940, Note_on_c, 2, 48, 0
4, 384000, Note_on_c, 2, 55, 93
4, 384000, Note_on_c, 2, 43, 93
4, 384572, Note_on_c, 2, 43, 0
4, 384572, Note_on_c, 2, 55, 0
4, 385536, Note_on_c, 2, 48, 93
4, 385536, Note_on_c, 2, 52, 93
4, 385536, Note_on_c, 2, 55, 93
4, 385536, Note_on_c, 2, 60, 93
4, 385724, Note_on_c, 2, 60, 0
4, 385724, Note_on_c, 2, 48, 0
4, 385724, Note_on_c, 2, 52, 0
4, 385724, Note_on_c, 2, 55, 0
4, 385728, Note_on_c, 2, 60, 93
4, 385916, Note_on_c, 2, 60, 0
4, 385920, Note_on_c, 2, 60, 93
4, 386108, Note_on_c, 2, 60, 0
4, 386112, Note_on_c, 2, 60, 93
4, 386300, Note_on_c, 2, 60, 0
4, 386304, Note_on_c, 2, 60, 93
4, 386492, Note_on_c, 2, 60, 0
4, 386496, Note_on_c, 2, 60, 93
4, 386684, Note_on_c, 2, 60, 0
4, 386688, Note_on_c, 2, 60, 93
4, 386876, Note_on_c, 2, 60, 0
4, 386880, Note_on_c, 2, 60, 93
4, 387068, Note_on_c, 2, 60, 0
4, 387072, Note_on_c, 2, 60, 93
4, 387260, Note_on_c, 2, 60, 0
4, 387264, Note_on_c, 2, 60, 93
4, 387452, Note_on_c, 2, 60, 0
4, 387456, Note_on_c, 2, 60, 93
4, 387644, Note_on_c, 2, 60, 0
4, 387648, Note_on_c, 2, 60, 93
4, 387836, Note_on_c, 2, 60, 0
4, 387840, Note_on_c, 2, 60, 93
4, 388028, Note_on_c, 2, 60, 0
4, 388032, Note_on_c, 2, 60, 93
4, 388220, Note_on_c, 2, 60, 0
4, 388224, Note_on_c, 2, 60, 93
4, 388412, Note_on_c, 2, 60, 0
4, 388416, Note_on_c, 2, 60, 93
4, 388604, Note_on_c, 2, 60, 0
4, 388608, Note_on_c, 2, 60, 66
4, 388796, Note_on_c, 2, 60, 0
4, 388800, Note_on_c, 2, 48, 66
4, 388988, Note_on_c, 2, 48, 0
4, 388992, Note_on_c, 2, 48, 66
4, 389180, Note_on_c, 2, 48, 0
4, 389184, Note_on_c, 2, 48, 66
4, 389372, Note_on_c, 2, 48, 0
4, 389376, Note_on_c, 2, 48, 66
4, 389564, Note_on_c, 2, 48, 0
4, 389568, Note_on_c, 2, 48, 66
4, 389756, Note_on_c, 2, 48, 0
4, 389760, Note_on_c, 2, 48, 66
4, 389948, Note_on_c, 2, 48, 0
4, 389952, Note_on_c, 2, 48, 66
4, 390140, Note_on_c, 2, 48, 0
4, 390144, Note_on_c, 2, 48, 66
4, 390332, Note_on_c, 2, 48, 0
4, 390336, Note_on_c, 2, 48, 66
4, 390524, Note_on_c, 2, 48, 0
4, 390528, Note_on_c, 2, 48, 66
4, 390716, Note_on_c, 2, 48, 0
4, 390720, Note_on_c, 2, 48, 66
4, 390908, Note_on_c, 2, 48, 0
4, 390912, Note_on_c, 2, 48, 66
4, 391100, Note_on_c, 2, 48, 0
4, 391104, Note_on_c, 2, 60, 93
4, 391292, Note_on_c, 2, 60, 0
4, 391296, Note_on_c, 2, 60, 93
4, 391484, Note_on_c, 2, 60, 0
4, 391488, Note_on_c, 2, 60, 93
4, 391676, Note_on_c, 2, 60, 0
4, 391680, Note_on_c, 2, 59, 93
4, 391868, Note_on_c, 2, 59, 0
4, 391872, Note_on_c, 2, 62, 93
4, 392060, Note_on_c, 2, 62, 0
4, 392064, Note_on_c, 2, 59, 93
4, 392252, Note_on_c, 2, 59, 0
4, 392256, Note_on_c, 2, 55, 93
4, 392444, Note_on_c, 2, 55, 0
4, 392448, Note_on_c, 2, 53, 93
4, 392636, Note_on_c, 2, 53, 0
4, 392640, Note_on_c, 2, 50, 93
4, 392828, Note_on_c, 2, 50, 0
4, 392832, Note_on_c, 2, 47, 93
4, 393020, Note_on_c, 2, 47, 0
4, 393024, Note_on_c, 2, 43, 93
4, 393212, Note_on_c, 2, 43, 0
4, 393216, Note_on_c, 2, 48, 93
4, 393404, Note_on_c, 2, 48, 0
4, 393408, Note_on_c, 2, 64, 93
4, 393596, Note_on_c, 2, 64, 0
4, 393600, Note_on_c, 2, 60, 93
4, 393788, Note_on_c, 2, 60, 0
4, 393792, Note_on_c, 2, 56, 93
4, 393980, Note_on_c, 2, 56, 0
4, 393984, Note_on_c, 2, 57, 93
4, 394172, Note_on_c, 2, 57, 0
4, 394176, Note_on_c, 2, 60, 93
4, 394364, Note_on_c, 2, 60, 0
4, 394368, Note_on_c, 2, 57, 93
4, 394556, Note_on_c, 2, 57, 0
4, 394560, Note_on_c, 2, 52, 93
4, 394748, Note_on_c, 2, 52, 0
4, 394752, Note_on_c, 2, 53, 93
4, 394940, Note_on_c, 2, 53, 0
4, 394944, Note_on_c, 2, 53, 93
4, 395132, Note_on_c, 2, 53, 0
4, 395136, Note_on_c, 2, 53, 93
4, 395324, Note_on_c, 2, 53, 0
4, 395328, Note_on_c, 2, 53, 93
4, 395516, Note_on_c, 2, 53, 0
4, 395520, Note_on_c, 2, 55, 93
4, 395708, Note_on_c, 2, 55, 0
4, 395712, Note_on_c, 2, 55, 93
4, 395900, Note_on_c, 2, 55, 0
4, 395904, Note_on_c, 2, 55, 93
4, 396092, Note_on_c, 2, 55, 0
4, 396096, Note_on_c, 2, 55, 93
4, 396284, Note_on_c, 2, 55, 0
4, 396288, Note_on_c, 2, 52, 93
4, 396476, Note_on_c, 2, 52, 0
4, 396480, Note_on_c, 2, 52, 93
4, 396668, Note_on_c, 2, 52, 0
4, 396672, Note_on_c, 2, 52, 93
4, 396860, Note_on_c, 2, 52, 0
4, 396864, Note_on_c, 2, 52, 93
4, 397052, Note_on_c, 2, 52, 0
4, 397056, Note_on_c, 2, 53, 93
4, 397244, Note_on_c, 2, 53, 0
4, 397248, Note_on_c, 2, 53, 93
4, 397436, Note_on_c, 2, 53, 0
4, 397440, Note_on_c, 2, 53, 93
4, 397628, Note_on_c, 2, 53, 0
4, 397632, Note_on_c, 2, 53, 93
4, 397820, Note_on_c, 2, 53, 0
4, 397824, Note_on_c, 2, 55, 93
4, 398012, Note_on_c, 2, 55, 0
4, 398016, Note_on_c, 2, 55, 93
4, 398204, Note_on_c, 2, 55, 0
4, 398208, Note_on_c, 2, 55, 93
4, 398396, Note_on_c, 2, 55, 0
4, 398400, Note_on_c, 2, 55, 93
4, 398588, Note_on_c, 2, 55, 0
4, 398592, Note_on_c, 2, 55, 93
4, 398780, Note_on_c, 2, 55, 0
4, 398784, Note_on_c, 2, 55, 93
4, 398972, Note_on_c, 2, 55, 0
4, 398976, Note_on_c, 2, 43, 93
4, 399164, Note_on_c, 2, 43, 0
4, 399168, Note_on_c, 2, 43, 93
4, 399356, Note_on_c, 2, 43, 0
4, 399360, Note_on_c, 2, 48, 93
4, 399548, Note_on_c, 2, 48, 0
4, 399552, Note_on_c, 2, 52, 93
4, 399740, Note_on_c, 2, 52, 0
4, 399744, Note_on_c, 2, 55, 93
4, 399932, Note_on_c, 2, 55, 0
4, 399936, Note_on_c, 2, 52, 93
4, 400124, Note_on_c, 2, 52, 0
4, 400128, Note_on_c, 2, 48, 93
4, 400316, Note_on_c, 2, 48, 0
4, 400320, Note_on_c, 2, 52, 93
4, 400508, Note_on_c, 2, 52, 0
4, 400512, Note_on_c, 2, 55, 93
4, 400700, Note_on_c, 2, 55, 0
4, 400704, Note_on_c, 2, 52, 93
4, 400892, Note_on_c, 2, 52, 0
4, 400896, Note_on_c, 2, 48, 93
4, 401084, Note_on_c, 2, 48, 0
4, 401088, Note_on_c, 2, 52, 93
4, 401276, Note_on_c, 2, 52, 0
4, 401280, Note_on_c, 2, 55, 93
4, 401468, Note_on_c, 2, 55, 0
4, 401472, Note_on_c, 2, 52, 93
4, 401660, Note_on_c, 2, 52, 0
4, 401664, Note_on_c, 2, 48, 93
4, 401852, Note_on_c, 2, 48, 0
4, 401856, Note_on_c, 2, 52, 93
4, 402044, Note_on_c, 2, 52, 0
4, 402048, Note_on_c, 2, 55, 93
4, 402236, Note_on_c, 2, 55, 0
4, 402240, Note_on_c, 2, 52, 93
4, 402428, Note_on_c, 2, 52, 0
4, 402432, Note_on_c, 2, 60, 104
4, 403004, Note_on_c, 2, 60, 0
4, 403008, Note_on_c, 2, 55, 104
4, 403184, Note_on_c, 2, 52, 104
4, 403196, Note_on_c, 2, 55, 0
4, 403200, Note_on_c, 2, 60, 104
4, 403372, Note_on_c, 2, 52, 0
4, 403392, Note_on_c, 2, 48, 104
4, 403580, Note_on_c, 2, 48, 0
4, 403584, Note_on_c, 2, 52, 104
4, 403772, Note_on_c, 2, 52, 0
4, 403772, Note_on_c, 2, 60, 0
4, 403776, Note_on_c, 2, 55, 104
4, 403776, Note_on_c, 2, 55, 104
4, 403964, Note_on_c, 2, 55, 0
4, 403964, Note_on_c, 2, 55, 0
4, 403968, Note_on_c, 2, 60, 104
4, 403968, Note_on_c, 2, 52, 104
4, 404156, Note_on_c, 2, 52, 0
4, 404160, Note_on_c, 2, 48, 104
4, 404348, Note_on_c, 2, 48, 0
4, 404352, Note_on_c, 2, 52, 104
4, 404540, Note_on_c, 2, 52, 0
4, 404540, Note_on_c, 2, 60, 0
4, 404544, Note_on_c, 2, 55, 104
4, 404544, Note_on_c, 2, 55, 104
4, 404720, Note_on_c, 2, 60, 104
4, 404732, Note_on_c, 2, 55, 0
4, 404732, Note_on_c, 2, 55, 0
4, 404736, Note_on_c, 2, 52, 104
4, 404924, Note_on_c, 2, 52, 0
4, 404928, Note_on_c, 2, 48, 104
4, 405116, Note_on_c, 2, 48, 0
4, 405120, Note_on_c, 2, 52, 104
4, 405292, Note_on_c, 2, 60, 0
4, 405308, Note_on_c, 2, 52, 0
4, 405312, Note_on_c, 2, 55, 104
4, 405312, Note_on_c, 2, 55, 104
4, 405500, Note_on_c, 2, 55, 0
4, 405500, Note_on_c, 2, 55, 0
4, 405504, Note_on_c, 2, 60, 104
4, 405884, Note_on_c, 2, 60, 0
4, 405888, Note_on_c, 2, 60, 104
4, 405888, Note_on_c, 2, 48, 104
4, 406268, Note_on_c, 2, 48, 0
4, 406268, Note_on_c, 2, 60, 0
4, 406272, Note_on_c, 2, 55, 104
4, 406272, Note_on_c, 2, 43, 104
4, 406652, Note_on_c, 2, 43, 0
4, 406652, Note_on_c, 2, 55, 0
4, 406656, Note_on_c, 2, 52, 104
4, 406656, Note_on_c, 2, 40, 104
4, 407036, Note_on_c, 2, 40, 0
4, 407036, Note_on_c, 2, 52, 0
4, 407040, Note_on_c, 2, 48, 104
4, 407040, Note_on_c, 2, 36, 104
4, 407420, Note_on_c, 2, 36, 0
4, 407420, Note_on_c, 2, 48, 0
4, 407420, End_track
5, 0, Start_track
5, 0, MIDI_port, 0
5, 0, Title_t, "K299A - Allegro"
5, 0, Control_c, 3, 0, 0
5, 0, Control_c, 3, 32, 0
5, 0, Program_c, 3, 46
5, 0, Control_c, 3, 7, 98
5, 0, Control_c, 3, 10, 63
5, 0, Control_c, 3, 91, 67
5, 0, Control_c, 3, 93, 47
5, 0, Control_c, 3, 121, 0
5, 96, Control_c, 3, 10, 63
5, 192, Control_c, 3, 91, 63
5, 240, Control_c, 3, 93, 40
5, 288, Program_c, 3, 46
5, 1536, Note_on_c, 3, 60, 85
5, 1568, Note_on_c, 3, 60, 0
5, 1568, Note_on_c, 3, 64, 85
5, 1600, Note_on_c, 3, 64, 0
5, 1600, Note_on_c, 3, 67, 85
5, 1632, Note_on_c, 3, 67, 0
5, 1632, Note_on_c, 3, 72, 85
5, 2108, Note_on_c, 3, 72, 0
5, 2112, Note_on_c, 3, 67, 85
5, 2204, Note_on_c, 3, 67, 0
5, 2304, Note_on_c, 3, 64, 85
5, 2396, Note_on_c, 3, 64, 0
5, 2496, Note_on_c, 3, 60, 85
5, 2588, Note_on_c, 3, 60, 0
5, 2688, Note_on_c, 3, 64, 85
5, 2780, Note_on_c, 3, 64, 0
5, 2880, Note_on_c, 3, 67, 85
5, 2972, Note_on_c, 3, 67, 0
5, 3072, Note_on_c, 3, 72, 85
5, 3644, Note_on_c, 3, 72, 0
5, 3648, Note_on_c, 3, 67, 85
5, 3740, Note_on_c, 3, 67, 0
5, 3840, Note_on_c, 3, 64, 85
5, 3932, Note_on_c, 3, 64, 0
5, 4032, Note_on_c, 3, 60, 85
5, 4124, Note_on_c, 3, 60, 0
5, 4224, Note_on_c, 3, 64, 85
5, 4316, Note_on_c, 3, 64, 0
5, 4416, Note_on_c, 3, 67, 85
5, 4508, Note_on_c, 3, 67, 0
5, 4608, Note_on_c, 3, 72, 85
5, 4988, Note_on_c, 3, 72, 0
5, 67584, Note_on_c, 3, 72, 85
5, 67616, Note_on_c, 3, 72, 0
5, 67616, Note_on_c, 3, 76, 85
5, 67648, Note_on_c, 3, 76, 0
5, 67648, Note_on_c, 3, 79, 85
5, 67680, Note_on_c, 3, 79, 0
5, 67680, Note_on_c, 3, 84, 85
5, 68152, Note_on_c, 3, 84, 0
5, 68160, Note_on_c, 3, 79, 85
5, 68252, Note_on_c, 3, 79, 0
5, 68352, Note_on_c, 3, 76, 85
5, 68444, Note_on_c, 3, 76, 0
5, 68544, Note_on_c, 3, 72, 85
5, 68636, Note_on_c, 3, 72, 0
5, 68736, Note_on_c, 3, 76, 85
5, 68828, Note_on_c, 3, 76, 0
5, 68928, Note_on_c, 3, 79, 85
5, 69020, Note_on_c, 3, 79, 0
5, 69120, Note_on_c, 3, 84, 85
5, 69692, Note_on_c, 3, 84, 0
5, 69696, Note_on_c, 3, 79, 85
5, 69788, Note_on_c, 3, 79, 0
5, 69888, Note_on_c, 3, 76, 85
5, 69980, Note_on_c, 3, 76, 0
5, 70080, Note_on_c, 3, 72, 85
5, 70172, Note_on_c, 3, 72, 0
5, 70272, Note_on_c, 3, 76, 85
5, 70364, Note_on_c, 3, 76, 0
5, 70464, Note_on_c, 3, 79, 85
5, 70556, Note_on_c, 3, 79, 0
5, 70656, Note_on_c, 3, 84, 85
5, 71036, Note_on_c, 3, 84, 0
5, 71136, Note_on_c, 3, 60, 60
5, 71228, Note_on_c, 3, 60, 0
5, 71232, Note_on_c, 3, 72, 60
5, 71324, Note_on_c, 3, 72, 0
5, 71328, Note_on_c, 3, 60, 60
5, 71420, Note_on_c, 3, 60, 0
5, 71520, Note_on_c, 3, 59, 60
5, 71612, Note_on_c, 3, 59, 0
5, 71616, Note_on_c, 3, 71, 60
5, 71708, Note_on_c, 3, 71, 0
5, 71712, Note_on_c, 3, 59, 60
5, 71804, Note_on_c, 3, 59, 0
5, 71904, Note_on_c, 3, 60, 60
5, 71996, Note_on_c, 3, 60, 0
5, 72000, Note_on_c, 3, 72, 60
5, 72092, Note_on_c, 3, 72, 0
5, 72096, Note_on_c, 3, 60, 60
5, 72188, Note_on_c, 3, 60, 0
5, 72288, Note_on_c, 3, 62, 85
5, 72380, Note_on_c, 3, 62, 0
5, 72384, Note_on_c, 3, 74, 85
5, 72476, Note_on_c, 3, 74, 0
5, 72480, Note_on_c, 3, 62, 85
5, 72572, Note_on_c, 3, 62, 0
5, 72672, Note_on_c, 3, 62, 60
5, 72764, Note_on_c, 3, 62, 0
5, 72768, Note_on_c, 3, 74, 60
5, 72860, Note_on_c, 3, 74, 0
5, 72864, Note_on_c, 3, 62, 60
5, 72956, Note_on_c, 3, 62, 0
5, 73056, Note_on_c, 3, 61, 60
5, 73148, Note_on_c, 3, 61, 0
5, 73152, Note_on_c, 3, 73, 60
5, 73244, Note_on_c, 3, 73, 0
5, 73248, Note_on_c, 3, 61, 60
5, 73340, Note_on_c, 3, 61, 0
5, 73440, Note_on_c, 3, 62, 60
5, 73532, Note_on_c, 3, 62, 0
5, 73536, Note_on_c, 3, 74, 60
5, 73628, Note_on_c, 3, 74, 0
5, 73632, Note_on_c, 3, 62, 60
5, 73724, Note_on_c, 3, 62, 0
5, 73824, Note_on_c, 3, 64, 85
5, 73916, Note_on_c, 3, 64, 0
5, 73920, Note_on_c, 3, 76, 85
5, 74012, Note_on_c, 3, 76, 0
5, 74016, Note_on_c, 3, 64, 85
5, 74108, Note_on_c, 3, 64, 0
5, 74208, Note_on_c, 3, 64, 60
5, 74300, Note_on_c, 3, 64, 0
5, 74304, Note_on_c, 3, 76, 60
5, 74396, Note_on_c, 3, 76, 0
5, 74400, Note_on_c, 3, 64, 60
5, 74492, Note_on_c, 3, 64, 0
5, 74592, Note_on_c, 3, 63, 60
5, 74684, Note_on_c, 3, 63, 0
5, 74688, Note_on_c, 3, 75, 60
5, 74780, Note_on_c, 3, 75, 0
5, 74784, Note_on_c, 3, 63, 60
5, 74876, Note_on_c, 3, 63, 0
5, 74976, Note_on_c, 3, 64, 60
5, 75068, Note_on_c, 3, 64, 0
5, 75072, Note_on_c, 3, 76, 60
5, 75164, Note_on_c, 3, 76, 0
5, 75168, Note_on_c, 3, 64, 60
5, 75260, Note_on_c, 3, 64, 0
5, 75360, Note_on_c, 3, 65, 60
5, 75452, Note_on_c, 3, 65, 0
5, 75456, Note_on_c, 3, 77, 60
5, 75548, Note_on_c, 3, 77, 0
5, 75552, Note_on_c, 3, 65, 60
5, 75644, Note_on_c, 3, 65, 0
5, 75744, Note_on_c, 3, 67, 60
5, 75836, Note_on_c, 3, 67, 0
5, 75840, Note_on_c, 3, 77, 60
5, 75932, Note_on_c, 3, 77, 0
5, 75936, Note_on_c, 3, 67, 60
5, 76028, Note_on_c, 3, 67, 0
5, 76128, Note_on_c, 3, 69, 60
5, 76220, Note_on_c, 3, 69, 0
5, 76224, Note_on_c, 3, 81, 60
5, 76316, Note_on_c, 3, 81, 0
5, 76320, Note_on_c, 3, 69, 60
5, 76412, Note_on_c, 3, 69, 0
5, 76512, Note_on_c, 3, 71, 60
5, 76604, Note_on_c, 3, 71, 0
5, 76608, Note_on_c, 3, 83, 60
5, 76700, Note_on_c, 3, 83, 0
5, 76704, Note_on_c, 3, 71, 60
5, 76796, Note_on_c, 3, 71, 0
5, 77184, Note_on_c, 3, 72, 85
5, 77276, Note_on_c, 3, 72, 0
5, 77280, Note_on_c, 3, 76, 85
5, 77372, Note_on_c, 3, 76, 0
5, 77376, Note_on_c, 3, 79, 85
5, 77468, Note_on_c, 3, 79, 0
5, 77472, Note_on_c, 3, 84, 85
5, 77564, Note_on_c, 3, 84, 0
5, 77568, Note_on_c, 3, 76, 85
5, 77660, Note_on_c, 3, 76, 0
5, 77664, Note_on_c, 3, 79, 85
5, 77756, Note_on_c, 3, 79, 0
5, 77760, Note_on_c, 3, 84, 85
5, 77852, Note_on_c, 3, 84, 0
5, 77856, Note_on_c, 3, 88, 85
5, 77948, Note_on_c, 3, 88, 0
5, 77952, Note_on_c, 3, 86, 85
5, 78044, Note_on_c, 3, 86, 0
5, 78048, Note_on_c, 3, 84, 85
5, 78140, Note_on_c, 3, 84, 0
5, 78144, Note_on_c, 3, 83, 85
5, 78236, Note_on_c, 3, 83, 0
5, 78240, Note_on_c, 3, 84, 85
5, 78332, Note_on_c, 3, 84, 0
5, 78336, Note_on_c, 3, 84, 85
5, 78336, Note_on_c, 3, 71, 85
5, 78428, Note_on_c, 3, 71, 0
5, 78428, Note_on_c, 3, 84, 0
5, 78432, Note_on_c, 3, 83, 85
5, 78524, Note_on_c, 3, 83, 0
5, 78528, Note_on_c, 3, 84, 85
5, 78528, Note_on_c, 3, 69, 85
5, 78620, Note_on_c, 3, 69, 0
5, 78620, Note_on_c, 3, 84, 0
5, 78624, Note_on_c, 3, 81, 85
5, 78716, Note_on_c, 3, 81, 0
5, 78720, Note_on_c, 3, 83, 85
5, 78720, Note_on_c, 3, 67, 85
5, 78812, Note_on_c, 3, 67, 0
5, 78812, Note_on_c, 3, 83, 0
5, 78816, Note_on_c, 3, 79, 85
5, 78908, Note_on_c, 3, 79, 0
5, 78912, Note_on_c, 3, 81, 85
5, 78912, Note_on_c, 3, 65, 85
5, 79004, Note_on_c, 3, 65, 0
5, 79004, Note_on_c, 3, 81, 0
5, 79008, Note_on_c, 3, 77, 85
5, 79100, Note_on_c, 3, 77, 0
5, 79104, Note_on_c, 3, 79, 85
5, 79104, Note_on_c, 3, 64, 85
5, 79196, Note_on_c, 3, 64, 0
5, 79196, Note_on_c, 3, 79, 0
5, 79200, Note_on_c, 3, 76, 85
5, 79292, Note_on_c, 3, 76, 0
5, 79296, Note_on_c, 3, 77, 85
5, 79296, Note_on_c, 3, 62, 85
5, 79388, Note_on_c, 3, 62, 0
5, 79388, Note_on_c, 3, 77, 0
5, 79392, Note_on_c, 3, 74, 85
5, 79484, Note_on_c, 3, 74, 0
5, 79488, Note_on_c, 3, 76, 85
5, 79488, Note_on_c, 3, 60, 85
5, 79580, Note_on_c, 3, 60, 0
5, 79580, Note_on_c, 3, 76, 0
5, 79584, Note_on_c, 3, 72, 85
5, 79676, Note_on_c, 3, 72, 0
5, 79680, Note_on_c, 3, 74, 85
5, 79680, Note_on_c, 3, 59, 85
5, 79772, Note_on_c, 3, 59, 0
5, 79772, Note_on_c, 3, 74, 0
5, 79776, Note_on_c, 3, 71, 85
5, 79868, Note_on_c, 3, 71, 0
5, 80256, Note_on_c, 3, 72, 77
5, 80348, Note_on_c, 3, 72, 0
5, 80352, Note_on_c, 3, 76, 77
5, 80444, Note_on_c, 3, 76, 0
5, 80448, Note_on_c, 3, 79, 77
5, 80540, Note_on_c, 3, 79, 0
5, 80544, Note_on_c, 3, 84, 77
5, 80636, Note_on_c, 3, 84, 0
5, 80640, Note_on_c, 3, 76, 77
5, 80732, Note_on_c, 3, 76, 0
5, 80736, Note_on_c, 3, 79, 77
5, 80828, Note_on_c, 3, 79, 0
5, 80832, Note_on_c, 3, 84, 77
5, 80924, Note_on_c, 3, 84, 0
5, 80928, Note_on_c, 3, 88, 77
5, 81020, Note_on_c, 3, 88, 0
5, 81024, Note_on_c, 3, 86, 77
5, 81116, Note_on_c, 3, 86, 0
5, 81120, Note_on_c, 3, 84, 77
5, 81212, Note_on_c, 3, 84, 0
5, 81216, Note_on_c, 3, 83, 77
5, 81308, Note_on_c, 3, 83, 0
5, 81312, Note_on_c, 3, 84, 77
5, 81404, Note_on_c, 3, 84, 0
5, 81408, Note_on_c, 3, 86, 77
5, 81408, Note_on_c, 3, 71, 77
5, 81500, Note_on_c, 3, 71, 0
5, 81500, Note_on_c, 3, 86, 0
5, 81504, Note_on_c, 3, 83, 77
5, 81596, Note_on_c, 3, 83, 0
5, 81600, Note_on_c, 3, 84, 77
5, 81600, Note_on_c, 3, 69, 77
5, 81692, Note_on_c, 3, 69, 0
5, 81692, Note_on_c, 3, 84, 0
5, 81696, Note_on_c, 3, 81, 77
5, 81788, Note_on_c, 3, 81, 0
5, 81792, Note_on_c, 3, 83, 77
5, 81792, Note_on_c, 3, 67, 77
5, 81884, Note_on_c, 3, 67, 0
5, 81884, Note_on_c, 3, 83, 0
5, 81888, Note_on_c, 3, 79, 77
5, 81980, Note_on_c, 3, 79, 0
5, 81984, Note_on_c, 3, 81, 77
5, 81984, Note_on_c, 3, 65, 77
5, 82076, Note_on_c, 3, 65, 0
5, 82076, Note_on_c, 3, 81, 0
5, 82080, Note_on_c, 3, 77, 77
5, 82172, Note_on_c, 3, 77, 0
5, 82176, Note_on_c, 3, 79, 77
5, 82176, Note_on_c, 3, 64, 77
5, 82268, Note_on_c, 3, 64, 0
5, 82268, Note_on_c, 3, 79, 0
5, 82272, Note_on_c, 3, 76, 77
5, 82364, Note_on_c, 3, 76, 0
5, 82368, Note_on_c, 3, 77, 77
5, 82368, Note_on_c, 3, 62, 77
5, 82460, Note_on_c, 3, 62, 0
5, 82460, Note_on_c, 3, 77, 0
5, 82464, Note_on_c, 3, 74, 77
5, 82556, Note_on_c, 3, 74, 0
5, 82560, Note_on_c, 3, 76, 77
5, 82560, Note_on_c, 3, 60, 77
5, 82652, Note_on_c, 3, 60, 0
5, 82652, Note_on_c, 3, 76, 0
5, 82656, Note_on_c, 3, 72, 77
5, 82748, Note_on_c, 3, 72, 0
5, 82752, Note_on_c, 3, 74, 77
5, 82752, Note_on_c, 3, 59, 77
5, 82844, Note_on_c, 3, 59, 0
5, 82844, Note_on_c, 3, 74, 0
5, 82848, Note_on_c, 3, 71, 77
5, 82940, Note_on_c, 3, 71, 0
5, 82944, Note_on_c, 3, 72, 77
5, 83072, Note_on_c, 3, 72, 0
5, 89088, Note_on_c, 3, 59, 60
5, 89088, Note_on_c, 3, 72, 60
5, 89276, Note_on_c, 3, 72, 0
5, 89276, Note_on_c, 3, 59, 0
5, 89280, Note_on_c, 3, 74, 60
5, 89280, Note_on_c, 3, 67, 60
5, 89372, Note_on_c, 3, 67, 0
5, 89372, Note_on_c, 3, 74, 0
5, 89376, Note_on_c, 3, 76, 60
5, 89468, Note_on_c, 3, 76, 0
5, 89472, Note_on_c, 3, 77, 60
5, 89472, Note_on_c, 3, 64, 60
5, 89564, Note_on_c, 3, 64, 0
5, 89564, Note_on_c, 3, 77, 0
5, 89568, Note_on_c, 3, 79, 60
5, 89660, Note_on_c, 3, 79, 0
5, 89664, Note_on_c, 3, 81, 60
5, 89664, Note_on_c, 3, 67, 60
5, 89756, Note_on_c, 3, 67, 0
5, 89756, Note_on_c, 3, 81, 0
5, 89760, Note_on_c, 3, 83, 60
5, 89852, Note_on_c, 3, 83, 0
5, 89856, Note_on_c, 3, 84, 60
5, 89856, Note_on_c, 3, 60, 60
5, 89948, Note_on_c, 3, 60, 0
5, 89948, Note_on_c, 3, 84, 0
5, 89952, Note_on_c, 3, 83, 60
5, 90044, Note_on_c, 3, 83, 0
5, 90048, Note_on_c, 3, 84, 60
5, 90048, Note_on_c, 3, 67, 60
5, 90140, Note_on_c, 3, 84, 0
5, 90144, Note_on_c, 3, 83, 60
5, 90236, Note_on_c, 3, 83, 0
5, 90236, Note_on_c, 3, 67, 0
5, 90240, Note_on_c, 3, 84, 60
5, 90240, Note_on_c, 3, 64, 60
5, 90332, Note_on_c, 3, 84, 0
5, 90336, Note_on_c, 3, 83, 60
5, 90428, Note_on_c, 3, 83, 0
5, 90428, Note_on_c, 3, 64, 0
5, 90432, Note_on_c, 3, 81, 60
5, 90432, Note_on_c, 3, 67, 60
5, 90524, Note_on_c, 3, 81, 0
5, 90528, Note_on_c, 3, 79, 60
5, 90620, Note_on_c, 3, 79, 0
5, 90620, Note_on_c, 3, 67, 0
5, 90624, Note_on_c, 3, 81, 60
5, 90624, Note_on_c, 3, 60, 60
5, 90716, Note_on_c, 3, 81, 0
5, 90720, Note_on_c, 3, 72, 60
5, 90812, Note_on_c, 3, 72, 0
5, 90812, Note_on_c, 3, 60, 0
5, 90816, Note_on_c, 3, 74, 60
5, 90816, Note_on_c, 3, 69, 60
5, 90908, Note_on_c, 3, 74, 0
5, 90912, Note_on_c, 3, 76, 60
5, 91004, Note_on_c, 3, 76, 0
5, 91004, Note_on_c, 3, 69, 0
5, 91008, Note_on_c, 3, 77, 60
5, 91008, Note_on_c, 3, 65, 60
5, 91100, Note_on_c, 3, 77, 0
5, 91104, Note_on_c, 3, 79, 60
5, 91196, Note_on_c, 3, 79, 0
5, 91196, Note_on_c, 3, 65, 0
5, 91200, Note_on_c, 3, 81, 60
5, 91200, Note_on_c, 3, 69, 60
5, 91292, Note_on_c, 3, 81, 0
5, 91296, Note_on_c, 3, 83, 60
5, 91388, Note_on_c, 3, 83, 0
5, 91388, Note_on_c, 3, 69, 0
5, 91392, Note_on_c, 3, 84, 60
5, 91392, Note_on_c, 3, 60, 60
5, 91484, Note_on_c, 3, 84, 0
5, 91488, Note_on_c, 3, 83, 60
5, 91580, Note_on_c, 3, 83, 0
5, 91580, Note_on_c, 3, 60, 0
5, 91584, Note_on_c, 3, 84, 60
5, 91584, Note_on_c, 3, 69, 60
5, 91676, Note_on_c, 3, 84, 0
5, 91680, Note_on_c, 3, 83, 60
5, 91772, Note_on_c, 3, 83, 0
5, 91772, Note_on_c, 3, 69, 0
5, 91776, Note_on_c, 3, 84, 60
5, 91776, Note_on_c, 3, 65, 60
5, 91868, Note_on_c, 3, 84, 0
5, 91872, Note_on_c, 3, 83, 60
5, 91964, Note_on_c, 3, 83, 0
5, 91964, Note_on_c, 3, 65, 0
5, 91968, Note_on_c, 3, 81, 60
5, 91968, Note_on_c, 3, 69, 60
5, 92060, Note_on_c, 3, 81, 0
5, 92064, Note_on_c, 3, 79, 60
5, 92156, Note_on_c, 3, 79, 0
5, 92156, Note_on_c, 3, 69, 0
5, 92160, Note_on_c, 3, 79, 60
5, 92160, Note_on_c, 3, 60, 60
5, 92252, Note_on_c, 3, 79, 0
5, 92256, Note_on_c, 3, 72, 60
5, 92348, Note_on_c, 3, 72, 0
5, 92348, Note_on_c, 3, 60, 0
5, 92352, Note_on_c, 3, 74, 60
5, 92352, Note_on_c, 3, 67, 60
5, 92444, Note_on_c, 3, 74, 0
5, 92448, Note_on_c, 3, 76, 60
5, 92540, Note_on_c, 3, 76, 0
5, 92540, Note_on_c, 3, 67, 0
5, 92544, Note_on_c, 3, 77, 60
5, 92544, Note_on_c, 3, 64, 60
5, 92636, Note_on_c, 3, 77, 0
5, 92640, Note_on_c, 3, 79, 60
5, 92732, Note_on_c, 3, 79, 0
5, 92732, Note_on_c, 3, 64, 0
5, 92736, Note_on_c, 3, 81, 60
5, 92736, Note_on_c, 3, 67, 60
5, 92828, Note_on_c, 3, 81, 0
5, 92832, Note_on_c, 3, 83, 60
5, 92924, Note_on_c, 3, 83, 0
5, 92924, Note_on_c, 3, 67, 0
5, 92928, Note_on_c, 3, 84, 60
5, 92928, Note_on_c, 3, 60, 60
5, 93020, Note_on_c, 3, 84, 0
5, 93024, Note_on_c, 3, 86, 60
5, 93116, Note_on_c, 3, 86, 0
5, 93116, Note_on_c, 3, 60, 0
5, 93120, Note_on_c, 3, 88, 60
5, 93120, Note_on_c, 3, 67, 60
5, 93212, Note_on_c, 3, 88, 0
5, 93216, Note_on_c, 3, 86, 60
5, 93308, Note_on_c, 3, 86, 0
5, 93308, Note_on_c, 3, 67, 0
5, 93312, Note_on_c, 3, 84, 60
5, 93312, Note_on_c, 3, 64, 60
5, 93404, Note_on_c, 3, 84, 0
5, 93408, Note_on_c, 3, 83, 60
5, 93500, Note_on_c, 3, 83, 0
5, 93500, Note_on_c, 3, 64, 0
5, 93504, Note_on_c, 3, 81, 60
5, 93504, Note_on_c, 3, 67, 60
5, 93596, Note_on_c, 3, 81, 0
5, 93600, Note_on_c, 3, 79, 60
5, 93692, Note_on_c, 3, 79, 0
5, 93692, Note_on_c, 3, 67, 0
5, 93696, Note_on_c, 3, 79, 85
5, 93984, Note_on_c, 3, 77, 85
5, 94076, Note_on_c, 3, 77, 0
5, 94080, Note_on_c, 3, 76, 85
5, 94268, Note_on_c, 3, 79, 0
5, 94460, Note_on_c, 3, 76, 0
5, 94464, Note_on_c, 3, 76, 85
5, 94556, Note_on_c, 3, 76, 0
5, 94560, Note_on_c, 3, 72, 85
5, 94652, Note_on_c, 3, 72, 0
5, 94656, Note_on_c, 3, 76, 85
5, 94748, Note_on_c, 3, 76, 0
5, 94752, Note_on_c, 3, 79, 85
5, 94844, Note_on_c, 3, 79, 0
5, 94848, Note_on_c, 3, 79, 85
5, 94940, Note_on_c, 3, 79, 0
5, 94944, Note_on_c, 3, 77, 85
5, 95036, Note_on_c, 3, 77, 0
5, 95040, Note_on_c, 3, 76, 85
5, 95132, Note_on_c, 3, 76, 0
5, 95136, Note_on_c, 3, 74, 85
5, 95228, Note_on_c, 3, 74, 0
5, 95232, Note_on_c, 3, 72, 85
5, 95324, Note_on_c, 3, 72, 0
5, 95328, Note_on_c, 3, 76, 85
5, 95420, Note_on_c, 3, 76, 0
5, 95424, Note_on_c, 3, 79, 85
5, 95516, Note_on_c, 3, 79, 0
5, 95520, Note_on_c, 3, 84, 85
5, 95612, Note_on_c, 3, 84, 0
5, 95616, Note_on_c, 3, 72, 85
5, 95708, Note_on_c, 3, 72, 0
5, 95712, Note_on_c, 3, 84, 85
5, 95804, Note_on_c, 3, 84, 0
5, 95808, Note_on_c, 3, 71, 85
5, 95900, Note_on_c, 3, 71, 0
5, 95904, Note_on_c, 3, 83, 85
5, 95996, Note_on_c, 3, 83, 0
5, 96000, Note_on_c, 3, 69, 85
5, 96092, Note_on_c, 3, 69, 0
5, 96096, Note_on_c, 3, 72, 85
5, 96188, Note_on_c, 3, 72, 0
5, 96192, Note_on_c, 3, 76, 85
5, 96284, Note_on_c, 3, 76, 0
5, 96288, Note_on_c, 3, 81, 85
5, 96380, Note_on_c, 3, 81, 0
5, 96384, Note_on_c, 3, 69, 85
5, 96476, Note_on_c, 3, 69, 0
5, 96480, Note_on_c, 3, 81, 85
5, 96572, Note_on_c, 3, 81, 0
5, 96576, Note_on_c, 3, 67, 85
5, 96668, Note_on_c, 3, 67, 0
5, 96672, Note_on_c, 3, 79, 85
5, 96764, Note_on_c, 3, 79, 0
5, 96768, Note_on_c, 3, 65, 85
5, 96860, Note_on_c, 3, 65, 0
5, 96864, Note_on_c, 3, 69, 85
5, 96956, Note_on_c, 3, 69, 0
5, 96960, Note_on_c, 3, 72, 85
5, 97052, Note_on_c, 3, 72, 0
5, 97056, Note_on_c, 3, 77, 85
5, 97148, Note_on_c, 3, 77, 0
5, 97152, Note_on_c, 3, 65, 85
5, 97244, Note_on_c, 3, 65, 0
5, 97248, Note_on_c, 3, 77, 85
5, 97340, Note_on_c, 3, 77, 0
5, 97344, Note_on_c, 3, 64, 85
5, 97436, Note_on_c, 3, 64, 0
5, 97440, Note_on_c, 3, 76, 85
5, 97532, Note_on_c, 3, 76, 0
5, 97536, Note_on_c, 3, 62, 85
5, 97628, Note_on_c, 3, 62, 0
5, 97632, Note_on_c, 3, 74, 85
5, 97724, Note_on_c, 3, 74, 0
5, 97728, Note_on_c, 3, 60, 85
5, 97820, Note_on_c, 3, 60, 0
5, 97824, Note_on_c, 3, 72, 85
5, 97916, Note_on_c, 3, 72, 0
5, 97920, Note_on_c, 3, 59, 85
5, 98012, Note_on_c, 3, 59, 0
5, 98016, Note_on_c, 3, 71, 85
5, 98108, Note_on_c, 3, 71, 0
5, 98112, Note_on_c, 3, 57, 85
5, 98204, Note_on_c, 3, 57, 0
5, 98208, Note_on_c, 3, 69, 85
5, 98300, Note_on_c, 3, 69, 0
5, 99072, Note_on_c, 3, 60, 85
5, 99164, Note_on_c, 3, 60, 0
5, 99168, Note_on_c, 3, 64, 85
5, 99260, Note_on_c, 3, 64, 0
5, 99264, Note_on_c, 3, 62, 85
5, 99356, Note_on_c, 3, 62, 0
5, 99360, Note_on_c, 3, 65, 85
5, 99452, Note_on_c, 3, 65, 0
5, 99456, Note_on_c, 3, 64, 85
5, 99548, Note_on_c, 3, 64, 0
5, 99552, Note_on_c, 3, 67, 85
5, 99644, Note_on_c, 3, 67, 0
5, 99648, Note_on_c, 3, 66, 85
5, 99740, Note_on_c, 3, 66, 0
5, 99744, Note_on_c, 3, 69, 85
5, 99836, Note_on_c, 3, 69, 0
5, 99840, Note_on_c, 3, 67, 85
5, 100028, Note_on_c, 3, 67, 0
5, 100032, Note_on_c, 3, 67, 85
5, 100124, Note_on_c, 3, 67, 0
5, 100128, Note_on_c, 3, 71, 85
5, 100220, Note_on_c, 3, 71, 0
5, 100224, Note_on_c, 3, 69, 85
5, 100316, Note_on_c, 3, 69, 0
5, 100320, Note_on_c, 3, 72, 85
5, 100412, Note_on_c, 3, 72, 0
5, 100416, Note_on_c, 3, 71, 85
5, 100496, Note_on_c, 3, 74, 85
5, 100508, Note_on_c, 3, 71, 0
5, 100588, Note_on_c, 3, 74, 0
5, 100608, Note_on_c, 3, 72, 85
5, 100700, Note_on_c, 3, 72, 0
5, 100704, Note_on_c, 3, 76, 85
5, 100796, Note_on_c, 3, 76, 0
5, 100800, Note_on_c, 3, 74, 85
5, 100892, Note_on_c, 3, 74, 0
5, 100896, Note_on_c, 3, 77, 85
5, 100988, Note_on_c, 3, 77, 0
5, 100992, Note_on_c, 3, 76, 85
5, 101084, Note_on_c, 3, 76, 0
5, 101088, Note_on_c, 3, 79, 85
5, 101180, Note_on_c, 3, 79, 0
5, 101184, Note_on_c, 3, 78, 85
5, 101276, Note_on_c, 3, 78, 0
5, 101280, Note_on_c, 3, 81, 85
5, 101372, Note_on_c, 3, 81, 0
5, 101376, Note_on_c, 3, 79, 85
5, 101564, Note_on_c, 3, 79, 0
5, 106368, Note_on_c, 3, 71, 85
5, 106460, Note_on_c, 3, 71, 0
5, 106464, Note_on_c, 3, 74, 85
5, 106556, Note_on_c, 3, 74, 0
5, 106560, Note_on_c, 3, 71, 85
5, 106652, Note_on_c, 3, 71, 0
5, 106656, Note_on_c, 3, 67, 85
5, 106748, Note_on_c, 3, 67, 0
5, 107136, Note_on_c, 3, 71, 85
5, 107228, Note_on_c, 3, 71, 0
5, 107232, Note_on_c, 3, 74, 85
5, 107324, Note_on_c, 3, 74, 0
5, 107328, Note_on_c, 3, 71, 85
5, 107420, Note_on_c, 3, 71, 0
5, 107424, Note_on_c, 3, 67, 85
5, 107516, Note_on_c, 3, 67, 0
5, 107904, Note_on_c, 3, 72, 85
5, 107996, Note_on_c, 3, 72, 0
5, 108000, Note_on_c, 3, 76, 85
5, 108092, Note_on_c, 3, 76, 0
5, 108096, Note_on_c, 3, 72, 85
5, 108188, Note_on_c, 3, 72, 0
5, 108192, Note_on_c, 3, 67, 85
5, 108284, Note_on_c, 3, 67, 0
5, 108672, Note_on_c, 3, 72, 85
5, 108764, Note_on_c, 3, 72, 0
5, 108768, Note_on_c, 3, 76, 85
5, 108860, Note_on_c, 3, 76, 0
5, 108864, Note_on_c, 3, 72, 85
5, 108956, Note_on_c, 3, 72, 0
5, 108960, Note_on_c, 3, 67, 85
5, 109052, Note_on_c, 3, 67, 0
5, 109152, Note_on_c, 3, 71, 85
5, 109244, Note_on_c, 3, 71, 0
5, 109248, Note_on_c, 3, 67, 85
5, 109340, Note_on_c, 3, 67, 0
5, 109344, Note_on_c, 3, 62, 85
5, 109436, Note_on_c, 3, 62, 0
5, 109536, Note_on_c, 3, 67, 85
5, 109628, Note_on_c, 3, 67, 0
5, 109632, Note_on_c, 3, 64, 85
5, 109724, Note_on_c, 3, 64, 0
5, 109728, Note_on_c, 3, 59, 85
5, 109820, Note_on_c, 3, 59, 0
5, 109920, Note_on_c, 3, 69, 85
5, 110012, Note_on_c, 3, 69, 0
5, 110016, Note_on_c, 3, 67, 85
5, 110108, Note_on_c, 3, 67, 0
5, 110112, Note_on_c, 3, 64, 85
5, 110204, Note_on_c, 3, 64, 0
5, 110304, Note_on_c, 3, 69, 85
5, 110396, Note_on_c, 3, 69, 0
5, 110400, Note_on_c, 3, 66, 85
5, 110492, Note_on_c, 3, 66, 0
5, 110496, Note_on_c, 3, 62, 85
5, 110588, Note_on_c, 3, 62, 0
5, 110688, Note_on_c, 3, 86, 85
5, 110780, Note_on_c, 3, 86, 0
5, 110784, Note_on_c, 3, 83, 85
5, 110876, Note_on_c, 3, 83, 0
5, 110880, Note_on_c, 3, 79, 85
5, 110972, Note_on_c, 3, 79, 0
5, 110976, Note_on_c, 3, 74, 85
5, 111068, Note_on_c, 3, 74, 0
5, 111072, Note_on_c, 3, 83, 85
5, 111164, Note_on_c, 3, 83, 0
5, 111168, Note_on_c, 3, 79, 85
5, 111260, Note_on_c, 3, 79, 0
5, 111264, Note_on_c, 3, 74, 85
5, 111356, Note_on_c, 3, 74, 0
5, 111360, Note_on_c, 3, 71, 85
5, 111452, Note_on_c, 3, 71, 0
5, 111456, Note_on_c, 3, 79, 85
5, 111548, Note_on_c, 3, 79, 0
5, 111552, Note_on_c, 3, 74, 85
5, 111644, Note_on_c, 3, 74, 0
5, 111648, Note_on_c, 3, 71, 85
5, 111740, Note_on_c, 3, 71, 0
5, 111744, Note_on_c, 3, 67, 85
5, 111836, Note_on_c, 3, 67, 0
5, 111840, Note_on_c, 3, 74, 85
5, 111932, Note_on_c, 3, 74, 0
5, 111936, Note_on_c, 3, 71, 85
5, 112028, Note_on_c, 3, 71, 0
5, 112032, Note_on_c, 3, 67, 85
5, 112124, Note_on_c, 3, 67, 0
5, 112512, Note_on_c, 3, 62, 85
5, 112604, Note_on_c, 3, 62, 0
5, 112608, Note_on_c, 3, 67, 85
5, 112700, Note_on_c, 3, 67, 0
5, 112704, Note_on_c, 3, 62, 85
5, 112796, Note_on_c, 3, 62, 0
5, 112800, Note_on_c, 3, 59, 85
5, 112892, Note_on_c, 3, 59, 0
5, 113280, Note_on_c, 3, 62, 85
5, 113372, Note_on_c, 3, 62, 0
5, 113376, Note_on_c, 3, 67, 85
5, 113468, Note_on_c, 3, 67, 0
5, 113472, Note_on_c, 3, 62, 85
5, 113564, Note_on_c, 3, 62, 0
5, 113568, Note_on_c, 3, 59, 85
5, 113660, Note_on_c, 3, 59, 0
5, 114048, Note_on_c, 3, 64, 85
5, 114140, Note_on_c, 3, 64, 0
5, 114144, Note_on_c, 3, 67, 85
5, 114236, Note_on_c, 3, 67, 0
5, 114240, Note_on_c, 3, 64, 85
5, 114332, Note_on_c, 3, 64, 0
5, 114336, Note_on_c, 3, 60, 85
5, 114428, Note_on_c, 3, 60, 0
5, 114816, Note_on_c, 3, 64, 85
5, 114908, Note_on_c, 3, 64, 0
5, 114912, Note_on_c, 3, 67, 85
5, 115004, Note_on_c, 3, 67, 0
5, 115008, Note_on_c, 3, 64, 85
5, 115100, Note_on_c, 3, 64, 0
5, 115104, Note_on_c, 3, 60, 85
5, 115196, Note_on_c, 3, 60, 0
5, 115296, Note_on_c, 3, 59, 85
5, 115388, Note_on_c, 3, 59, 0
5, 115392, Note_on_c, 3, 62, 85
5, 115484, Note_on_c, 3, 62, 0
5, 115488, Note_on_c, 3, 67, 85
5, 115580, Note_on_c, 3, 67, 0
5, 115680, Note_on_c, 3, 59, 85
5, 115772, Note_on_c, 3, 59, 0
5, 115776, Note_on_c, 3, 64, 85
5, 115868, Note_on_c, 3, 64, 0
5, 115872, Note_on_c, 3, 67, 85
5, 115964, Note_on_c, 3, 67, 0
5, 116064, Note_on_c, 3, 57, 85
5, 116156, Note_on_c, 3, 57, 0
5, 116160, Note_on_c, 3, 64, 85
5, 116252, Note_on_c, 3, 64, 0
5, 116256, Note_on_c, 3, 67, 85
5, 116348, Note_on_c, 3, 67, 0
5, 116448, Note_on_c, 3, 57, 85
5, 116540, Note_on_c, 3, 57, 0
5, 116544, Note_on_c, 3, 62, 85
5, 116636, Note_on_c, 3, 62, 0
5, 116640, Note_on_c, 3, 66, 85
5, 116732, Note_on_c, 3, 66, 0
5, 119904, Note_on_c, 3, 84, 85
5, 119996, Note_on_c, 3, 84, 0
5, 120000, Note_on_c, 3, 81, 85
5, 120092, Note_on_c, 3, 81, 0
5, 120096, Note_on_c, 3, 78, 85
5, 120188, Note_on_c, 3, 78, 0
5, 120192, Note_on_c, 3, 72, 85
5, 120288, Note_on_c, 3, 81, 85
5, 120380, Note_on_c, 3, 81, 0
5, 120380, Note_on_c, 3, 72, 0
5, 120384, Note_on_c, 3, 78, 85
5, 120476, Note_on_c, 3, 78, 0
5, 120480, Note_on_c, 3, 74, 85
5, 120572, Note_on_c, 3, 74, 0
5, 120576, Note_on_c, 3, 69, 85
5, 120672, Note_on_c, 3, 78, 85
5, 120764, Note_on_c, 3, 78, 0
5, 120764, Note_on_c, 3, 69, 0
5, 120768, Note_on_c, 3, 74, 85
5, 120860, Note_on_c, 3, 74, 0
5, 120864, Note_on_c, 3, 72, 85
5, 120956, Note_on_c, 3, 72, 0
5, 120960, Note_on_c, 3, 66, 85
5, 121056, Note_on_c, 3, 74, 85
5, 121148, Note_on_c, 3, 74, 0
5, 121148, Note_on_c, 3, 66, 0
5, 121152, Note_on_c, 3, 72, 85
5, 121244, Note_on_c, 3, 72, 0
5, 121248, Note_on_c, 3, 69, 85
5, 121340, Note_on_c, 3, 69, 0
5, 121344, Note_on_c, 3, 62, 85
5, 121440, Note_on_c, 3, 72, 85
5, 121532, Note_on_c, 3, 72, 0
5, 121532, Note_on_c, 3, 62, 0
5, 121536, Note_on_c, 3, 69, 85
5, 121628, Note_on_c, 3, 69, 0
5, 121632, Note_on_c, 3, 66, 85
5, 121724, Note_on_c, 3, 66, 0
5, 121728, Note_on_c, 3, 60, 85
5, 121824, Note_on_c, 3, 69, 85
5, 121916, Note_on_c, 3, 69, 0
5, 121916, Note_on_c, 3, 60, 0
5, 121920, Note_on_c, 3, 66, 85
5, 122012, Note_on_c, 3, 66, 0
5, 122016, Note_on_c, 3, 62, 85
5, 122108, Note_on_c, 3, 62, 0
5, 122112, Note_on_c, 3, 57, 85
5, 122208, Note_on_c, 3, 66, 85
5, 122300, Note_on_c, 3, 66, 0
5, 122300, Note_on_c, 3, 57, 0
5, 122304, Note_on_c, 3, 62, 85
5, 122396, Note_on_c, 3, 62, 0
5, 122400, Note_on_c, 3, 60, 85
5, 122492, Note_on_c, 3, 60, 0
5, 122496, Note_on_c, 3, 54, 85
5, 122592, Note_on_c, 3, 62, 85
5, 122684, Note_on_c, 3, 62, 0
5, 122684, Note_on_c, 3, 54, 0
5, 122688, Note_on_c, 3, 60, 85
5, 122780, Note_on_c, 3, 60, 0
5, 122784, Note_on_c, 3, 57, 85
5, 122876, Note_on_c, 3, 57, 0
5, 122976, Note_on_c, 3, 59, 85
5, 123068, Note_on_c, 3, 59, 0
5, 123072, Note_on_c, 3, 62, 85
5, 123164, Note_on_c, 3, 62, 0
5, 123168, Note_on_c, 3, 59, 85
5, 123260, Note_on_c, 3, 59, 0
5, 123264, Note_on_c, 3, 67, 85
5, 123356, Note_on_c, 3, 67, 0
5, 123360, Note_on_c, 3, 62, 85
5, 123452, Note_on_c, 3, 62, 0
5, 123456, Note_on_c, 3, 71, 85
5, 123548, Note_on_c, 3, 71, 0
5, 123552, Note_on_c, 3, 67, 85
5, 123644, Note_on_c, 3, 67, 0
5, 123648, Note_on_c, 3, 74, 85
5, 123744, Note_on_c, 3, 62, 85
5, 123836, Note_on_c, 3, 62, 0
5, 123836, Note_on_c, 3, 74, 0
5, 123840, Note_on_c, 3, 67, 85
5, 123932, Note_on_c, 3, 67, 0
5, 123936, Note_on_c, 3, 62, 85
5, 124028, Note_on_c, 3, 62, 0
5, 124032, Note_on_c, 3, 71, 85
5, 124124, Note_on_c, 3, 71, 0
5, 124128, Note_on_c, 3, 67, 85
5, 124220, Note_on_c, 3, 67, 0
5, 124224, Note_on_c, 3, 74, 85
5, 124316, Note_on_c, 3, 74, 0
5, 124320, Note_on_c, 3, 71, 85
5, 124412, Note_on_c, 3, 71, 0
5, 124416, Note_on_c, 3, 79, 85
5, 124512, Note_on_c, 3, 67, 85
5, 124604, Note_on_c, 3, 67, 0
5, 124604, Note_on_c, 3, 79, 0
5, 124608, Note_on_c, 3, 71, 85
5, 124700, Note_on_c, 3, 71, 0
5, 124704, Note_on_c, 3, 67, 85
5, 124796, Note_on_c, 3, 67, 0
5, 124800, Note_on_c, 3, 74, 85
5, 124892, Note_on_c, 3, 74, 0
5, 124896, Note_on_c, 3, 71, 85
5, 124988, Note_on_c, 3, 71, 0
5, 124992, Note_on_c, 3, 79, 85
5, 125084, Note_on_c, 3, 79, 0
5, 125088, Note_on_c, 3, 74, 85
5, 125180, Note_on_c, 3, 74, 0
5, 125184, Note_on_c, 3, 83, 85
5, 125280, Note_on_c, 3, 74, 85
5, 125372, Note_on_c, 3, 74, 0
5, 125372, Note_on_c, 3, 83, 0
5, 125376, Note_on_c, 3, 79, 85
5, 125468, Note_on_c, 3, 79, 0
5, 125472, Note_on_c, 3, 74, 85
5, 125564, Note_on_c, 3, 74, 0
5, 125568, Note_on_c, 3, 83, 85
5, 125660, Note_on_c, 3, 83, 0
5, 125664, Note_on_c, 3, 79, 85
5, 125756, Note_on_c, 3, 79, 0
5, 125760, Note_on_c, 3, 86, 85
5, 125852, Note_on_c, 3, 86, 0
5, 125856, Note_on_c, 3, 83, 85
5, 125948, Note_on_c, 3, 83, 0
5, 126048, Note_on_c, 3, 84, 85
5, 126140, Note_on_c, 3, 84, 0
5, 126144, Note_on_c, 3, 81, 85
5, 126236, Note_on_c, 3, 81, 0
5, 126240, Note_on_c, 3, 78, 85
5, 126332, Note_on_c, 3, 78, 0
5, 126336, Note_on_c, 3, 72, 85
5, 126432, Note_on_c, 3, 81, 85
5, 126524, Note_on_c, 3, 81, 0
5, 126524, Note_on_c, 3, 72, 0
5, 126528, Note_on_c, 3, 78, 85
5, 126620, Note_on_c, 3, 78, 0
5, 126624, Note_on_c, 3, 74, 85
5, 126716, Note_on_c, 3, 74, 0
5, 126720, Note_on_c, 3, 69, 85
5, 126816, Note_on_c, 3, 78, 85
5, 126908, Note_on_c, 3, 78, 0
5, 126908, Note_on_c, 3, 69, 0
5, 126912, Note_on_c, 3, 74, 85
5, 127004, Note_on_c, 3, 74, 0
5, 127008, Note_on_c, 3, 72, 85
5, 127100, Note_on_c, 3, 72, 0
5, 127104, Note_on_c, 3, 66, 85
5, 127200, Note_on_c, 3, 74, 85
5, 127292, Note_on_c, 3, 74, 0
5, 127292, Note_on_c, 3, 66, 0
5, 127296, Note_on_c, 3, 72, 85
5, 127388, Note_on_c, 3, 72, 0
5, 127392, Note_on_c, 3, 69, 85
5, 127484, Note_on_c, 3, 69, 0
5, 127488, Note_on_c, 3, 62, 85
5, 127584, Note_on_c, 3, 72, 85
5, 127676, Note_on_c, 3, 72, 0
5, 127676, Note_on_c, 3, 62, 0
5, 127680, Note_on_c, 3, 69, 85
5, 127772, Note_on_c, 3, 69, 0
5, 127776, Note_on_c, 3, 66, 85
5, 127868, Note_on_c, 3, 66, 0
5, 127872, Note_on_c, 3, 60, 85
5, 127968, Note_on_c, 3, 69, 85
5, 128060, Note_on_c, 3, 69, 0
5, 128060, Note_on_c, 3, 60, 0
5, 128064, Note_on_c, 3, 66, 85
5, 128156, Note_on_c, 3, 66, 0
5, 128160, Note_on_c, 3, 62, 85
5, 128252, Note_on_c, 3, 62, 0
5, 128256, Note_on_c, 3, 57, 85
5, 128352, Note_on_c, 3, 66, 85
5, 128444, Note_on_c, 3, 66, 0
5, 128444, Note_on_c, 3, 57, 0
5, 128448, Note_on_c, 3, 62, 85
5, 128540, Note_on_c, 3, 62, 0
5, 128544, Note_on_c, 3, 60, 85
5, 128636, Note_on_c, 3, 60, 0
5, 128640, Note_on_c, 3, 54, 85
5, 128736, Note_on_c, 3, 62, 85
5, 128828, Note_on_c, 3, 62, 0
5, 128828, Note_on_c, 3, 54, 0
5, 128832, Note_on_c, 3, 60, 85
5, 128924, Note_on_c, 3, 60, 0
5, 128928, Note_on_c, 3, 57, 85
5, 129020, Note_on_c, 3, 57, 0
5, 129120, Note_on_c, 3, 59, 85
5, 129212, Note_on_c, 3, 59, 0
5, 129216, Note_on_c, 3, 62, 85
5, 129308, Note_on_c, 3, 62, 0
5, 129312, Note_on_c, 3, 59, 85
5, 129404, Note_on_c, 3, 59, 0
5, 129408, Note_on_c, 3, 67, 85
5, 129500, Note_on_c, 3, 67, 0
5, 129504, Note_on_c, 3, 62, 85
5, 129596, Note_on_c, 3, 62, 0
5, 129600, Note_on_c, 3, 71, 85
5, 129692, Note_on_c, 3, 71, 0
5, 129696, Note_on_c, 3, 67, 85
5, 129788, Note_on_c, 3, 67, 0
5, 129792, Note_on_c, 3, 74, 85
5, 129888, Note_on_c, 3, 62, 85
5, 129980, Note_on_c, 3, 62, 0
5, 129980, Note_on_c, 3, 74, 0
5, 129984, Note_on_c, 3, 67, 85
5, 130076, Note_on_c, 3, 67, 0
5, 130080, Note_on_c, 3, 62, 85
5, 130172, Note_on_c, 3, 62, 0
5, 130176, Note_on_c, 3, 71, 85
5, 130268, Note_on_c, 3, 71, 0
5, 130272, Note_on_c, 3, 67, 85
5, 130364, Note_on_c, 3, 67, 0
5, 130368, Note_on_c, 3, 74, 85
5, 130460, Note_on_c, 3, 74, 0
5, 130464, Note_on_c, 3, 71, 85
5, 130556, Note_on_c, 3, 71, 0
5, 130656, Note_on_c, 3, 67, 85
5, 130748, Note_on_c, 3, 67, 0
5, 130752, Note_on_c, 3, 71, 85
5, 130844, Note_on_c, 3, 71, 0
5, 130848, Note_on_c, 3, 67, 85
5, 130940, Note_on_c, 3, 67, 0
5, 130944, Note_on_c, 3, 74, 85
5, 131036, Note_on_c, 3, 74, 0
5, 131040, Note_on_c, 3, 71, 85
5, 131132, Note_on_c, 3, 71, 0
5, 131136, Note_on_c, 3, 79, 85
5, 131228, Note_on_c, 3, 79, 0
5, 131232, Note_on_c, 3, 74, 85
5, 131324, Note_on_c, 3, 74, 0
5, 131328, Note_on_c, 3, 83, 85
5, 131424, Note_on_c, 3, 74, 85
5, 131516, Note_on_c, 3, 74, 0
5, 131516, Note_on_c, 3, 83, 0
5, 131520, Note_on_c, 3, 79, 85
5, 131612, Note_on_c, 3, 79, 0
5, 131616, Note_on_c, 3, 74, 85
5, 131708, Note_on_c, 3, 74, 0
5, 131712, Note_on_c, 3, 83, 85
5, 131804, Note_on_c, 3, 83, 0
5, 131808, Note_on_c, 3, 79, 85
5, 131900, Note_on_c, 3, 79, 0
5, 131904, Note_on_c, 3, 86, 85
5, 131996, Note_on_c, 3, 86, 0
5, 132000, Note_on_c, 3, 83, 85
5, 132092, Note_on_c, 3, 83, 0
5, 150528, Note_on_c, 3, 77, 77
5, 150528, Note_on_c, 3, 60, 77
5, 150620, Note_on_c, 3, 77, 0
5, 150624, Note_on_c, 3, 79, 77
5, 150716, Note_on_c, 3, 79, 0
5, 150716, Note_on_c, 3, 60, 0
5, 150720, Note_on_c, 3, 84, 77
5, 150720, Note_on_c, 3, 64, 77
5, 150812, Note_on_c, 3, 84, 0
5, 150816, Note_on_c, 3, 79, 77
5, 150908, Note_on_c, 3, 79, 0
5, 150908, Note_on_c, 3, 64, 0
5, 150912, Note_on_c, 3, 88, 77
5, 150912, Note_on_c, 3, 67, 77
5, 151004, Note_on_c, 3, 88, 0
5, 151008, Note_on_c, 3, 84, 77
5, 151100, Note_on_c, 3, 84, 0
5, 151100, Note_on_c, 3, 67, 0
5, 151104, Note_on_c, 3, 79, 77
5, 151104, Note_on_c, 3, 60, 77
5, 151196, Note_on_c, 3, 79, 0
5, 151200, Note_on_c, 3, 76, 77
5, 151280, Note_on_c, 3, 59, 77
5, 151292, Note_on_c, 3, 76, 0
5, 151292, Note_on_c, 3, 60, 0
5, 151296, Note_on_c, 3, 74, 77
5, 151388, Note_on_c, 3, 74, 0
5, 151392, Note_on_c, 3, 79, 77
5, 151468, Note_on_c, 3, 59, 0
5, 151484, Note_on_c, 3, 79, 0
5, 151488, Note_on_c, 3, 83, 77
5, 151488, Note_on_c, 3, 62, 77
5, 151580, Note_on_c, 3, 83, 0
5, 151584, Note_on_c, 3, 79, 77
5, 151676, Note_on_c, 3, 79, 0
5, 151676, Note_on_c, 3, 62, 0
5, 151680, Note_on_c, 3, 86, 77
5, 151680, Note_on_c, 3, 67, 77
5, 151772, Note_on_c, 3, 86, 0
5, 151776, Note_on_c, 3, 83, 77
5, 151868, Note_on_c, 3, 83, 0
5, 151868, Note_on_c, 3, 67, 0
5, 151872, Note_on_c, 3, 79, 77
5, 151872, Note_on_c, 3, 59, 77
5, 151964, Note_on_c, 3, 79, 0
5, 151968, Note_on_c, 3, 74, 77
5, 152060, Note_on_c, 3, 74, 0
5, 152060, Note_on_c, 3, 59, 0
5, 152064, Note_on_c, 3, 76, 77
5, 152064, Note_on_c, 3, 60, 77
5, 152156, Note_on_c, 3, 76, 0
5, 152160, Note_on_c, 3, 79, 77
5, 152252, Note_on_c, 3, 79, 0
5, 152252, Note_on_c, 3, 60, 0
5, 152256, Note_on_c, 3, 84, 77
5, 152256, Note_on_c, 3, 64, 77
5, 152348, Note_on_c, 3, 84, 0
5, 152352, Note_on_c, 3, 79, 77
5, 152444, Note_on_c, 3, 79, 0
5, 152444, Note_on_c, 3, 64, 0
5, 152448, Note_on_c, 3, 88, 77
5, 152448, Note_on_c, 3, 67, 77
5, 152540, Note_on_c, 3, 88, 0
5, 152544, Note_on_c, 3, 84, 77
5, 152636, Note_on_c, 3, 84, 0
5, 152636, Note_on_c, 3, 67, 0
5, 152640, Note_on_c, 3, 79, 77
5, 152640, Note_on_c, 3, 60, 77
5, 152732, Note_on_c, 3, 79, 0
5, 152736, Note_on_c, 3, 76, 77
5, 152828, Note_on_c, 3, 76, 0
5, 152828, Note_on_c, 3, 60, 0
5, 152832, Note_on_c, 3, 74, 77
5, 152832, Note_on_c, 3, 59, 77
5, 152924, Note_on_c, 3, 74, 0
5, 152928, Note_on_c, 3, 79, 77
5, 153020, Note_on_c, 3, 79, 0
5, 153020, Note_on_c, 3, 59, 0
5, 153024, Note_on_c, 3, 83, 77
5, 153024, Note_on_c, 3, 62, 77
5, 153116, Note_on_c, 3, 83, 0
5, 153120, Note_on_c, 3, 79, 77
5, 153212, Note_on_c, 3, 79, 0
5, 153212, Note_on_c, 3, 62, 0
5, 153216, Note_on_c, 3, 84, 77
5, 153216, Note_on_c, 3, 67, 77
5, 153308, Note_on_c, 3, 84, 0
5, 153312, Note_on_c, 3, 83, 77
5, 153404, Note_on_c, 3, 83, 0
5, 153404, Note_on_c, 3, 67, 0
5, 153408, Note_on_c, 3, 79, 77
5, 153408, Note_on_c, 3, 59, 77
5, 153500, Note_on_c, 3, 79, 0
5, 153504, Note_on_c, 3, 74, 77
5, 153596, Note_on_c, 3, 74, 0
5, 153596, Note_on_c, 3, 59, 0
5, 153600, Note_on_c, 3, 72, 77
5, 153600, Note_on_c, 3, 57, 77
5, 153788, Note_on_c, 3, 57, 0
5, 153788, Note_on_c, 3, 72, 0
5, 153792, Note_on_c, 3, 84, 77
5, 153792, Note_on_c, 3, 69, 77
5, 153884, Note_on_c, 3, 69, 0
5, 153884, Note_on_c, 3, 84, 0
5, 153888, Note_on_c, 3, 86, 77
5, 153888, Note_on_c, 3, 71, 77
5, 153980, Note_on_c, 3, 71, 0
5, 153980, Note_on_c, 3, 86, 0
5, 153984, Note_on_c, 3, 88, 77
5, 153984, Note_on_c, 3, 72, 77
5, 154076, Note_on_c, 3, 72, 0
5, 154076, Note_on_c, 3, 88, 0
5, 154080, Note_on_c, 3, 86, 77
5, 154080, Note_on_c, 3, 71, 77
5, 154172, Note_on_c, 3, 71, 0
5, 154172, Note_on_c, 3, 86, 0
5, 154176, Note_on_c, 3, 84, 77
5, 154176, Note_on_c, 3, 69, 77
5, 154268, Note_on_c, 3, 69, 0
5, 154268, Note_on_c, 3, 84, 0
5, 154272, Note_on_c, 3, 83, 77
5, 154272, Note_on_c, 3, 67, 77
5, 154364, Note_on_c, 3, 67, 0
5, 154364, Note_on_c, 3, 83, 0
5, 154368, Note_on_c, 3, 81, 77
5, 154368, Note_on_c, 3, 66, 77
5, 154460, Note_on_c, 3, 66, 0
5, 154460, Note_on_c, 3, 81, 0
5, 154464, Note_on_c, 3, 83, 77
5, 154464, Note_on_c, 3, 67, 77
5, 154556, Note_on_c, 3, 67, 0
5, 154556, Note_on_c, 3, 83, 0
5, 154560, Note_on_c, 3, 81, 77
5, 154560, Note_on_c, 3, 66, 77
5, 154652, Note_on_c, 3, 66, 0
5, 154652, Note_on_c, 3, 81, 0
5, 154656, Note_on_c, 3, 79, 77
5, 154656, Note_on_c, 3, 64, 77
5, 154748, Note_on_c, 3, 64, 0
5, 154748, Note_on_c, 3, 79, 0
5, 154752, Note_on_c, 3, 78, 77
5, 154752, Note_on_c, 3, 62, 77
5, 154844, Note_on_c, 3, 62, 0
5, 154844, Note_on_c, 3, 78, 0
5, 154848, Note_on_c, 3, 76, 77
5, 154848, Note_on_c, 3, 60, 77
5, 154940, Note_on_c, 3, 60, 0
5, 154940, Note_on_c, 3, 76, 0
5, 154944, Note_on_c, 3, 74, 77
5, 154944, Note_on_c, 3, 59, 77
5, 155036, Note_on_c, 3, 59, 0
5, 155036, Note_on_c, 3, 74, 0
5, 155040, Note_on_c, 3, 72, 77
5, 155040, Note_on_c, 3, 57, 77
5, 155132, Note_on_c, 3, 57, 0
5, 155132, Note_on_c, 3, 72, 0
5, 155136, Note_on_c, 3, 71, 77
5, 155136, Note_on_c, 3, 55, 77
5, 155324, Note_on_c, 3, 55, 0
5, 155324, Note_on_c, 3, 71, 0
5, 155328, Note_on_c, 3, 83, 77
5, 155328, Note_on_c, 3, 67, 77
5, 155420, Note_on_c, 3, 67, 0
5, 155420, Note_on_c, 3, 83, 0
5, 155424, Note_on_c, 3, 84, 77
5, 155424, Note_on_c, 3, 69, 77
5, 155516, Note_on_c, 3, 69, 0
5, 155516, Note_on_c, 3, 84, 0
5, 155520, Note_on_c, 3, 71, 77
5, 155536, Note_on_c, 3, 86, 77
5, 155612, Note_on_c, 3, 71, 0
5, 155616, Note_on_c, 3, 84, 77
5, 155616, Note_on_c, 3, 69, 77
5, 155628, Note_on_c, 3, 86, 0
5, 155708, Note_on_c, 3, 69, 0
5, 155708, Note_on_c, 3, 84, 0
5, 155712, Note_on_c, 3, 83, 77
5, 155712, Note_on_c, 3, 67, 77
5, 155792, Note_on_c, 3, 66, 77
5, 155804, Note_on_c, 3, 67, 0
5, 155804, Note_on_c, 3, 83, 0
5, 155808, Note_on_c, 3, 81, 77
5, 155884, Note_on_c, 3, 66, 0
5, 155900, Note_on_c, 3, 81, 0
5, 155904, Note_on_c, 3, 79, 77
5, 155904, Note_on_c, 3, 64, 77
5, 155996, Note_on_c, 3, 64, 0
5, 155996, Note_on_c, 3, 79, 0
5, 156000, Note_on_c, 3, 81, 77
5, 156000, Note_on_c, 3, 66, 77
5, 156092, Note_on_c, 3, 66, 0
5, 156092, Note_on_c, 3, 81, 0
5, 156096, Note_on_c, 3, 79, 77
5, 156096, Note_on_c, 3, 64, 77
5, 156176, Note_on_c, 3, 62, 77
5, 156188, Note_on_c, 3, 64, 0
5, 156188, Note_on_c, 3, 79, 0
5, 156192, Note_on_c, 3, 78, 77
5, 156268, Note_on_c, 3, 62, 0
5, 156272, Note_on_c, 3, 60, 77
5, 156284, Note_on_c, 3, 78, 0
5, 156288, Note_on_c, 3, 76, 77
5, 156364, Note_on_c, 3, 60, 0
5, 156380, Note_on_c, 3, 76, 0
5, 156384, Note_on_c, 3, 74, 77
5, 156384, Note_on_c, 3, 59, 77
5, 156476, Note_on_c, 3, 59, 0
5, 156476, Note_on_c, 3, 74, 0
5, 156480, Note_on_c, 3, 72, 77
5, 156480, Note_on_c, 3, 57, 77
5, 156572, Note_on_c, 3, 57, 0
5, 156572, Note_on_c, 3, 72, 0
5, 156576, Note_on_c, 3, 71, 77
5, 156576, Note_on_c, 3, 55, 77
5, 156668, Note_on_c, 3, 55, 0
5, 156668, Note_on_c, 3, 71, 0
5, 156672, Note_on_c, 3, 76, 77
5, 156764, Note_on_c, 3, 76, 0
5, 156768, Note_on_c, 3, 72, 77
5, 156860, Note_on_c, 3, 72, 0
5, 156864, Note_on_c, 3, 76, 77
5, 156956, Note_on_c, 3, 76, 0
5, 156960, Note_on_c, 3, 72, 77
5, 157052, Note_on_c, 3, 72, 0
5, 157056, Note_on_c, 3, 69, 77
5, 157244, Note_on_c, 3, 69, 0
5, 157248, Note_on_c, 3, 76, 77
5, 157248, Note_on_c, 3, 72, 77
5, 157340, Note_on_c, 3, 72, 0
5, 157340, Note_on_c, 3, 76, 0
5, 157440, Note_on_c, 3, 74, 77
5, 157440, Note_on_c, 3, 71, 77
5, 157532, Note_on_c, 3, 71, 0
5, 157532, Note_on_c, 3, 74, 0
5, 157632, Note_on_c, 3, 72, 77
5, 157632, Note_on_c, 3, 69, 77
5, 157724, Note_on_c, 3, 69, 0
5, 157724, Note_on_c, 3, 72, 0
5, 157824, Note_on_c, 3, 71, 77
5, 157824, Note_on_c, 3, 67, 77
5, 157916, Note_on_c, 3, 67, 0
5, 157916, Note_on_c, 3, 71, 0
5, 158016, Note_on_c, 3, 69, 77
5, 158016, Note_on_c, 3, 66, 77
5, 158108, Note_on_c, 3, 66, 0
5, 158108, Note_on_c, 3, 69, 0
5, 158208, Note_on_c, 3, 67, 77
5, 158300, Note_on_c, 3, 67, 0
5, 158304, Note_on_c, 3, 71, 77
5, 158396, Note_on_c, 3, 71, 0
5, 158400, Note_on_c, 3, 69, 77
5, 158492, Note_on_c, 3, 69, 0
5, 158496, Note_on_c, 3, 72, 77
5, 158588, Note_on_c, 3, 72, 0
5, 158592, Note_on_c, 3, 71, 77
5, 158684, Note_on_c, 3, 71, 0
5, 158688, Note_on_c, 3, 74, 77
5, 158780, Note_on_c, 3, 74, 0
5, 158784, Note_on_c, 3, 72, 77
5, 158876, Note_on_c, 3, 72, 0
5, 158880, Note_on_c, 3, 76, 77
5, 158972, Note_on_c, 3, 76, 0
5, 158976, Note_on_c, 3, 74, 77
5, 159068, Note_on_c, 3, 74, 0
5, 159168, Note_on_c, 3, 76, 72
5, 159260, Note_on_c, 3, 76, 0
5, 159360, Note_on_c, 3, 78, 67
5, 159452, Note_on_c, 3, 78, 0
5, 159552, Note_on_c, 3, 79, 62
5, 159644, Note_on_c, 3, 79, 0
5, 159744, Note_on_c, 3, 69, 60
5, 159836, Note_on_c, 3, 69, 0
5, 159840, Note_on_c, 3, 71, 60
5, 159932, Note_on_c, 3, 71, 0
5, 159936, Note_on_c, 3, 69, 60
5, 160028, Note_on_c, 3, 69, 0
5, 160032, Note_on_c, 3, 71, 60
5, 160124, Note_on_c, 3, 71, 0
5, 160128, Note_on_c, 3, 69, 60
5, 160508, Note_on_c, 3, 69, 0
5, 160512, Note_on_c, 3, 84, 60
5, 160604, Note_on_c, 3, 84, 0
5, 160608, Note_on_c, 3, 83, 60
5, 160700, Note_on_c, 3, 83, 0
5, 160704, Note_on_c, 3, 84, 60
5, 160796, Note_on_c, 3, 84, 0
5, 160800, Note_on_c, 3, 83, 60
5, 160892, Note_on_c, 3, 83, 0
5, 160896, Note_on_c, 3, 84, 60
5, 161276, Note_on_c, 3, 84, 0
5, 161280, Note_on_c, 3, 67, 60
5, 161372, Note_on_c, 3, 67, 0
5, 161376, Note_on_c, 3, 69, 60
5, 161468, Note_on_c, 3, 69, 0
5, 161472, Note_on_c, 3, 67, 60
5, 161564, Note_on_c, 3, 67, 0
5, 161568, Note_on_c, 3, 69, 60
5, 161660, Note_on_c, 3, 69, 0
5, 161664, Note_on_c, 3, 67, 60
5, 162044, Note_on_c, 3, 67, 0
5, 162048, Note_on_c, 3, 83, 60
5, 162140, Note_on_c, 3, 83, 0
5, 162144, Note_on_c, 3, 82, 60
5, 162236, Note_on_c, 3, 82, 0
5, 162240, Note_on_c, 3, 83, 60
5, 162332, Note_on_c, 3, 83, 0
5, 162336, Note_on_c, 3, 82, 60
5, 162428, Note_on_c, 3, 82, 0
5, 162432, Note_on_c, 3, 67, 60
5, 162432, Note_on_c, 3, 83, 60
5, 162524, Note_on_c, 3, 67, 0
5, 162528, Note_on_c, 3, 66, 60
5, 162620, Note_on_c, 3, 66, 0
5, 162624, Note_on_c, 3, 64, 60
5, 162716, Note_on_c, 3, 64, 0
5, 162720, Note_on_c, 3, 62, 60
5, 162812, Note_on_c, 3, 62, 0
5, 162812, Note_on_c, 3, 83, 0
5, 162816, Note_on_c, 3, 60, 61
5, 162908, Note_on_c, 3, 60, 0
5, 162912, Note_on_c, 3, 64, 62
5, 163004, Note_on_c, 3, 64, 0
5, 163008, Note_on_c, 3, 69, 64
5, 163100, Note_on_c, 3, 69, 0
5, 163104, Note_on_c, 3, 72, 65
5, 163196, Note_on_c, 3, 72, 0
5, 163200, Note_on_c, 3, 76, 67
5, 163292, Note_on_c, 3, 76, 0
5, 163296, Note_on_c, 3, 81, 68
5, 163388, Note_on_c, 3, 81, 0
5, 163392, Note_on_c, 3, 84, 70
5, 163484, Note_on_c, 3, 84, 0
5, 163488, Note_on_c, 3, 88, 71
5, 163568, Note_on_c, 3, 71, 73
5, 163580, Note_on_c, 3, 88, 0
5, 163584, Note_on_c, 3, 86, 73
5, 163676, Note_on_c, 3, 86, 0
5, 163680, Note_on_c, 3, 83, 75
5, 163756, Note_on_c, 3, 71, 0
5, 163772, Note_on_c, 3, 83, 0
5, 163776, Note_on_c, 3, 84, 76
5, 163868, Note_on_c, 3, 84, 0
5, 163872, Note_on_c, 3, 81, 78
5, 163964, Note_on_c, 3, 81, 0
5, 163968, Note_on_c, 3, 83, 79
5, 163968, Note_on_c, 3, 62, 79
5, 164060, Note_on_c, 3, 83, 0
5, 164064, Note_on_c, 3, 79, 81
5, 164156, Note_on_c, 3, 79, 0
5, 164156, Note_on_c, 3, 62, 0
5, 164160, Note_on_c, 3, 81, 82
5, 164252, Note_on_c, 3, 81, 0
5, 164256, Note_on_c, 3, 78, 84
5, 164348, Note_on_c, 3, 78, 0
5, 164352, Note_on_c, 3, 79, 85
5, 164444, Note_on_c, 3, 79, 0
5, 164448, Note_on_c, 3, 74, 82
5, 164540, Note_on_c, 3, 74, 0
5, 164544, Note_on_c, 3, 76, 79
5, 164636, Note_on_c, 3, 76, 0
5, 164640, Note_on_c, 3, 72, 76
5, 164732, Note_on_c, 3, 72, 0
5, 164736, Note_on_c, 3, 74, 72
5, 164828, Note_on_c, 3, 74, 0
5, 164832, Note_on_c, 3, 71, 69
5, 164924, Note_on_c, 3, 71, 0
5, 164928, Note_on_c, 3, 72, 66
5, 165020, Note_on_c, 3, 72, 0
5, 165024, Note_on_c, 3, 69, 63
5, 165116, Note_on_c, 3, 69, 0
5, 165120, Note_on_c, 3, 67, 65
5, 165308, Note_on_c, 3, 67, 0
5, 165312, Note_on_c, 3, 62, 60
5, 165500, Note_on_c, 3, 62, 0
5, 165504, Note_on_c, 3, 69, 65
5, 165692, Note_on_c, 3, 69, 0
5, 165696, Note_on_c, 3, 62, 60
5, 165884, Note_on_c, 3, 62, 0
5, 165888, Note_on_c, 3, 71, 65
5, 166076, Note_on_c, 3, 71, 0
5, 166080, Note_on_c, 3, 62, 60
5, 166268, Note_on_c, 3, 62, 0
5, 166272, Note_on_c, 3, 71, 65
5, 166460, Note_on_c, 3, 71, 0
5, 166464, Note_on_c, 3, 62, 60
5, 166652, Note_on_c, 3, 62, 0
5, 166656, Note_on_c, 3, 67, 65
5, 166844, Note_on_c, 3, 67, 0
5, 166848, Note_on_c, 3, 62, 60
5, 167036, Note_on_c, 3, 62, 0
5, 167040, Note_on_c, 3, 69, 65
5, 167228, Note_on_c, 3, 69, 0
5, 167232, Note_on_c, 3, 62, 60
5, 167420, Note_on_c, 3, 62, 0
5, 167424, Note_on_c, 3, 71, 65
5, 167612, Note_on_c, 3, 71, 0
5, 167616, Note_on_c, 3, 62, 60
5, 167804, Note_on_c, 3, 62, 0
5, 167808, Note_on_c, 3, 71, 65
5, 167996, Note_on_c, 3, 71, 0
5, 168000, Note_on_c, 3, 62, 60
5, 168188, Note_on_c, 3, 62, 0
5, 168192, Note_on_c, 3, 67, 65
5, 168380, Note_on_c, 3, 67, 0
5, 168384, Note_on_c, 3, 62, 60
5, 168572, Note_on_c, 3, 62, 0
5, 168576, Note_on_c, 3, 69, 65
5, 168764, Note_on_c, 3, 69, 0
5, 168768, Note_on_c, 3, 62, 60
5, 168956, Note_on_c, 3, 62, 0
5, 168960, Note_on_c, 3, 71, 66
5, 169148, Note_on_c, 3, 71, 0
5, 169152, Note_on_c, 3, 62, 60
5, 169340, Note_on_c, 3, 62, 0
5, 169344, Note_on_c, 3, 69, 65
5, 169532, Note_on_c, 3, 69, 0
5, 169536, Note_on_c, 3, 62, 60
5, 169724, Note_on_c, 3, 62, 0
5, 169728, Note_on_c, 3, 67, 65
5, 169916, Note_on_c, 3, 67, 0
5, 169920, Note_on_c, 3, 62, 60
5, 170108, Note_on_c, 3, 62, 0
5, 170112, Note_on_c, 3, 66, 65
5, 170300, Note_on_c, 3, 66, 0
5, 170304, Note_on_c, 3, 62, 60
5, 170492, Note_on_c, 3, 62, 0
5, 171264, Note_on_c, 3, 72, 60
5, 171356, Note_on_c, 3, 72, 0
5, 171360, Note_on_c, 3, 71, 60
5, 171452, Note_on_c, 3, 71, 0
5, 171456, Note_on_c, 3, 69, 60
5, 171548, Note_on_c, 3, 69, 0
5, 171552, Note_on_c, 3, 71, 60
5, 171644, Note_on_c, 3, 71, 0
5, 171648, Note_on_c, 3, 74, 60
5, 171740, Note_on_c, 3, 74, 0
5, 171744, Note_on_c, 3, 72, 60
5, 171836, Note_on_c, 3, 72, 0
5, 171840, Note_on_c, 3, 71, 60
5, 171932, Note_on_c, 3, 71, 0
5, 171936, Note_on_c, 3, 72, 60
5, 172028, Note_on_c, 3, 72, 0
5, 172032, Note_on_c, 3, 74, 60
5, 172220, Note_on_c, 3, 74, 0
5, 172224, Note_on_c, 3, 79, 60
5, 172412, Note_on_c, 3, 79, 0
5, 172416, Note_on_c, 3, 74, 60
5, 172508, Note_on_c, 3, 74, 0
5, 172608, Note_on_c, 3, 74, 60
5, 172700, Note_on_c, 3, 74, 0
5, 172800, Note_on_c, 3, 72, 60
5, 172892, Note_on_c, 3, 72, 0
5, 172896, Note_on_c, 3, 71, 60
5, 172988, Note_on_c, 3, 71, 0
5, 172992, Note_on_c, 3, 69, 60
5, 173084, Note_on_c, 3, 69, 0
5, 173088, Note_on_c, 3, 71, 60
5, 173180, Note_on_c, 3, 71, 0
5, 173184, Note_on_c, 3, 74, 60
5, 173276, Note_on_c, 3, 74, 0
5, 173280, Note_on_c, 3, 72, 60
5, 173372, Note_on_c, 3, 72, 0
5, 173376, Note_on_c, 3, 71, 60
5, 173468, Note_on_c, 3, 71, 0
5, 173472, Note_on_c, 3, 72, 60
5, 173564, Note_on_c, 3, 72, 0
5, 173568, Note_on_c, 3, 74, 60
5, 173660, Note_on_c, 3, 74, 0
5, 173664, Note_on_c, 3, 79, 60
5, 173756, Note_on_c, 3, 79, 0
5, 173760, Note_on_c, 3, 83, 60
5, 173852, Note_on_c, 3, 83, 0
5, 173856, Note_on_c, 3, 79, 60
5, 173948, Note_on_c, 3, 79, 0
5, 173952, Note_on_c, 3, 74, 60
5, 174044, Note_on_c, 3, 74, 0
5, 174144, Note_on_c, 3, 74, 60
5, 174236, Note_on_c, 3, 74, 0
5, 174336, Note_on_c, 3, 84, 60
5, 174336, Note_on_c, 3, 67, 65
5, 174428, Note_on_c, 3, 84, 0
5, 174432, Note_on_c, 3, 83, 60
5, 174524, Note_on_c, 3, 83, 0
5, 174524, Note_on_c, 3, 67, 0
5, 174528, Note_on_c, 3, 81, 60
5, 174528, Note_on_c, 3, 62, 60
5, 174620, Note_on_c, 3, 81, 0
5, 174624, Note_on_c, 3, 83, 60
5, 174716, Note_on_c, 3, 83, 0
5, 174716, Note_on_c, 3, 62, 0
5, 174720, Note_on_c, 3, 86, 60
5, 174720, Note_on_c, 3, 69, 65
5, 174812, Note_on_c, 3, 86, 0
5, 174816, Note_on_c, 3, 84, 60
5, 174908, Note_on_c, 3, 84, 0
5, 174908, Note_on_c, 3, 69, 0
5, 174912, Note_on_c, 3, 83, 60
5, 174912, Note_on_c, 3, 62, 60
5, 175004, Note_on_c, 3, 83, 0
5, 175008, Note_on_c, 3, 84, 60
5, 175100, Note_on_c, 3, 84, 0
5, 175100, Note_on_c, 3, 62, 0
5, 175104, Note_on_c, 3, 86, 61
5, 175104, Note_on_c, 3, 71, 66
5, 175196, Note_on_c, 3, 86, 0
5, 175200, Note_on_c, 3, 83, 62
5, 175280, Note_on_c, 3, 62, 62
5, 175292, Note_on_c, 3, 83, 0
5, 175292, Note_on_c, 3, 71, 0
5, 175296, Note_on_c, 3, 86, 63
5, 175388, Note_on_c, 3, 86, 0
5, 175392, Note_on_c, 3, 83, 64
5, 175468, Note_on_c, 3, 62, 0
5, 175484, Note_on_c, 3, 83, 0
5, 175488, Note_on_c, 3, 84, 65
5, 175488, Note_on_c, 3, 69, 71
5, 175580, Note_on_c, 3, 84, 0
5, 175584, Note_on_c, 3, 81, 66
5, 175676, Note_on_c, 3, 81, 0
5, 175676, Note_on_c, 3, 69, 0
5, 175680, Note_on_c, 3, 84, 67
5, 175680, Note_on_c, 3, 62, 67
5, 175772, Note_on_c, 3, 84, 0
5, 175776, Note_on_c, 3, 81, 68
5, 175868, Note_on_c, 3, 81, 0
5, 175868, Note_on_c, 3, 62, 0
5, 175872, Note_on_c, 3, 83, 69
5, 175872, Note_on_c, 3, 67, 74
5, 175964, Note_on_c, 3, 83, 0
5, 175968, Note_on_c, 3, 79, 70
5, 176060, Note_on_c, 3, 79, 0
5, 176060, Note_on_c, 3, 67, 0
5, 176064, Note_on_c, 3, 83, 71
5, 176064, Note_on_c, 3, 62, 71
5, 176156, Note_on_c, 3, 83, 0
5, 176160, Note_on_c, 3, 79, 72
5, 176252, Note_on_c, 3, 79, 0
5, 176252, Note_on_c, 3, 62, 0
5, 176256, Note_on_c, 3, 81, 73
5, 176256, Note_on_c, 3, 66, 78
5, 176348, Note_on_c, 3, 81, 0
5, 176352, Note_on_c, 3, 78, 74
5, 176444, Note_on_c, 3, 78, 0
5, 176444, Note_on_c, 3, 66, 0
5, 176448, Note_on_c, 3, 81, 75
5, 176448, Note_on_c, 3, 62, 75
5, 176540, Note_on_c, 3, 81, 0
5, 176544, Note_on_c, 3, 78, 76
5, 176636, Note_on_c, 3, 78, 0
5, 176636, Note_on_c, 3, 62, 0
5, 176640, Note_on_c, 3, 74, 77
5, 176732, Note_on_c, 3, 74, 0
5, 176736, Note_on_c, 3, 79, 77
5, 176828, Note_on_c, 3, 79, 0
5, 176832, Note_on_c, 3, 83, 77
5, 176924, Note_on_c, 3, 83, 0
5, 176928, Note_on_c, 3, 86, 77
5, 177020, Note_on_c, 3, 86, 0
5, 177024, Note_on_c, 3, 84, 77
5, 177116, Note_on_c, 3, 84, 0
5, 177120, Note_on_c, 3, 83, 77
5, 177212, Note_on_c, 3, 83, 0
5, 177216, Note_on_c, 3, 81, 77
5, 177308, Note_on_c, 3, 81, 0
5, 177312, Note_on_c, 3, 79, 77
5, 177404, Note_on_c, 3, 79, 0
5, 177408, Note_on_c, 3, 76, 77
5, 177500, Note_on_c, 3, 76, 0
5, 177504, Note_on_c, 3, 81, 77
5, 177596, Note_on_c, 3, 81, 0
5, 177600, Note_on_c, 3, 84, 77
5, 177692, Note_on_c, 3, 84, 0
5, 177696, Note_on_c, 3, 88, 77
5, 177788, Note_on_c, 3, 88, 0
5, 177792, Note_on_c, 3, 86, 77
5, 177884, Note_on_c, 3, 86, 0
5, 177888, Note_on_c, 3, 84, 77
5, 177980, Note_on_c, 3, 84, 0
5, 177984, Note_on_c, 3, 83, 77
5, 178076, Note_on_c, 3, 83, 0
5, 178080, Note_on_c, 3, 81, 77
5, 178172, Note_on_c, 3, 81, 0
5, 178272, Note_on_c, 3, 83, 77
5, 178364, Note_on_c, 3, 83, 0
5, 178368, Note_on_c, 3, 86, 77
5, 178460, Note_on_c, 3, 86, 0
5, 178464, Note_on_c, 3, 83, 77
5, 178556, Note_on_c, 3, 83, 0
5, 178560, Note_on_c, 3, 71, 77
5, 178560, Note_on_c, 3, 62, 77
5, 178656, Note_on_c, 3, 79, 77
5, 178748, Note_on_c, 3, 79, 0
5, 178748, Note_on_c, 3, 62, 0
5, 178748, Note_on_c, 3, 71, 0
5, 178752, Note_on_c, 3, 83, 77
5, 178844, Note_on_c, 3, 83, 0
5, 178848, Note_on_c, 3, 79, 77
5, 178940, Note_on_c, 3, 79, 0
5, 178944, Note_on_c, 3, 72, 77
5, 178944, Note_on_c, 3, 62, 77
5, 179040, Note_on_c, 3, 81, 77
5, 179132, Note_on_c, 3, 81, 0
5, 179132, Note_on_c, 3, 62, 0
5, 179132, Note_on_c, 3, 72, 0
5, 179136, Note_on_c, 3, 84, 77
5, 179228, Note_on_c, 3, 84, 0
5, 179232, Note_on_c, 3, 81, 77
5, 179324, Note_on_c, 3, 81, 0
5, 179328, Note_on_c, 3, 69, 77
5, 179328, Note_on_c, 3, 62, 77
5, 179424, Note_on_c, 3, 78, 77
5, 179516, Note_on_c, 3, 78, 0
5, 179516, Note_on_c, 3, 62, 0
5, 179516, Note_on_c, 3, 69, 0
5, 179520, Note_on_c, 3, 81, 77
5, 179612, Note_on_c, 3, 81, 0
5, 179616, Note_on_c, 3, 78, 77
5, 179708, Note_on_c, 3, 78, 0
5, 179712, Note_on_c, 3, 67, 78
5, 179724, Note_on_c, 3, 71, 78
5, 179740, Note_on_c, 3, 74, 78
5, 179756, Note_on_c, 3, 79, 78
5, 180092, Note_on_c, 3, 67, 0
5, 180104, Note_on_c, 3, 71, 0
5, 180120, Note_on_c, 3, 74, 0
5, 180136, Note_on_c, 3, 79, 0
5, 180480, Note_on_c, 3, 67, 81
5, 180492, Note_on_c, 3, 72, 81
5, 180508, Note_on_c, 3, 76, 81
5, 180524, Note_on_c, 3, 79, 81
5, 180860, Note_on_c, 3, 67, 0
5, 180872, Note_on_c, 3, 72, 0
5, 180888, Note_on_c, 3, 76, 0
5, 180904, Note_on_c, 3, 79, 0
5, 181632, Note_on_c, 3, 62, 85
5, 181724, Note_on_c, 3, 62, 0
5, 181728, Note_on_c, 3, 67, 85
5, 181820, Note_on_c, 3, 67, 0
5, 181824, Note_on_c, 3, 71, 86
5, 181916, Note_on_c, 3, 71, 0
5, 181920, Note_on_c, 3, 74, 86
5, 182012, Note_on_c, 3, 74, 0
5, 182016, Note_on_c, 3, 62, 87
5, 182108, Note_on_c, 3, 62, 0
5, 182112, Note_on_c, 3, 67, 87
5, 182204, Note_on_c, 3, 67, 0
5, 182208, Note_on_c, 3, 71, 87
5, 182300, Note_on_c, 3, 71, 0
5, 182304, Note_on_c, 3, 74, 88
5, 182396, Note_on_c, 3, 74, 0
5, 182400, Note_on_c, 3, 74, 88
5, 182492, Note_on_c, 3, 74, 0
5, 182496, Note_on_c, 3, 79, 88
5, 182588, Note_on_c, 3, 79, 0
5, 182592, Note_on_c, 3, 83, 89
5, 182684, Note_on_c, 3, 83, 0
5, 182880, Note_on_c, 3, 81, 90
5, 182972, Note_on_c, 3, 81, 0
5, 182976, Note_on_c, 3, 78, 90
5, 183068, Note_on_c, 3, 78, 0
5, 183072, Note_on_c, 3, 74, 91
5, 183164, Note_on_c, 3, 74, 0
5, 183168, Note_on_c, 3, 72, 91
5, 183260, Note_on_c, 3, 72, 0
5, 183264, Note_on_c, 3, 69, 91
5, 183356, Note_on_c, 3, 69, 0
5, 183360, Note_on_c, 3, 66, 92
5, 183452, Note_on_c, 3, 66, 0
5, 183456, Note_on_c, 3, 62, 92
5, 183548, Note_on_c, 3, 62, 0
5, 183552, Note_on_c, 3, 72, 93
5, 183644, Note_on_c, 3, 72, 0
5, 183648, Note_on_c, 3, 69, 93
5, 183740, Note_on_c, 3, 69, 0
5, 183744, Note_on_c, 3, 66, 93
5, 183836, Note_on_c, 3, 66, 0
5, 183840, Note_on_c, 3, 62, 94
5, 183932, Note_on_c, 3, 62, 0
5, 215040, Note_on_c, 3, 69, 95
5, 215132, Note_on_c, 3, 69, 0
5, 215136, Note_on_c, 3, 72, 95
5, 215228, Note_on_c, 3, 72, 0
5, 215232, Note_on_c, 3, 76, 95
5, 215324, Note_on_c, 3, 76, 0
5, 215328, Note_on_c, 3, 81, 95
5, 215420, Note_on_c, 3, 81, 0
5, 215520, Note_on_c, 3, 72, 60
5, 215612, Note_on_c, 3, 72, 0
5, 215616, Note_on_c, 3, 84, 60
5, 215708, Note_on_c, 3, 84, 0
5, 215712, Note_on_c, 3, 72, 60
5, 215804, Note_on_c, 3, 72, 0
5, 215904, Note_on_c, 3, 71, 60
5, 215996, Note_on_c, 3, 71, 0
5, 216000, Note_on_c, 3, 83, 60
5, 216092, Note_on_c, 3, 83, 0
5, 216096, Note_on_c, 3, 71, 60
5, 216188, Note_on_c, 3, 71, 0
5, 216288, Note_on_c, 3, 69, 60
5, 216380, Note_on_c, 3, 69, 0
5, 216384, Note_on_c, 3, 81, 60
5, 216476, Note_on_c, 3, 81, 0
5, 216480, Note_on_c, 3, 69, 60
5, 216572, Note_on_c, 3, 69, 0
5, 216672, Note_on_c, 3, 68, 95
5, 216764, Note_on_c, 3, 68, 0
5, 216768, Note_on_c, 3, 80, 95
5, 216860, Note_on_c, 3, 80, 0
5, 216864, Note_on_c, 3, 68, 95
5, 216956, Note_on_c, 3, 68, 0
5, 217056, Note_on_c, 3, 69, 60
5, 217148, Note_on_c, 3, 69, 0
5, 217152, Note_on_c, 3, 81, 60
5, 217244, Note_on_c, 3, 81, 0
5, 217248, Note_on_c, 3, 69, 60
5, 217340, Note_on_c, 3, 69, 0
5, 217440, Note_on_c, 3, 67, 60
5, 217532, Note_on_c, 3, 67, 0
5, 217536, Note_on_c, 3, 79, 60
5, 217628, Note_on_c, 3, 79, 0
5, 217632, Note_on_c, 3, 67, 60
5, 217724, Note_on_c, 3, 67, 0
5, 217824, Note_on_c, 3, 65, 60
5, 217916, Note_on_c, 3, 65, 0
5, 217920, Note_on_c, 3, 77, 60
5, 218012, Note_on_c, 3, 77, 0
5, 218016, Note_on_c, 3, 65, 60
5, 218108, Note_on_c, 3, 65, 0
5, 218208, Note_on_c, 3, 64, 95
5, 218300, Note_on_c, 3, 64, 0
5, 218304, Note_on_c, 3, 76, 95
5, 218396, Note_on_c, 3, 76, 0
5, 218400, Note_on_c, 3, 64, 95
5, 218492, Note_on_c, 3, 64, 0
5, 218592, Note_on_c, 3, 65, 60
5, 218684, Note_on_c, 3, 65, 0
5, 218688, Note_on_c, 3, 77, 60
5, 218780, Note_on_c, 3, 77, 0
5, 218784, Note_on_c, 3, 65, 60
5, 218876, Note_on_c, 3, 65, 0
5, 218976, Note_on_c, 3, 64, 60
5, 219068, Note_on_c, 3, 64, 0
5, 219072, Note_on_c, 3, 76, 60
5, 219164, Note_on_c, 3, 76, 0
5, 219168, Note_on_c, 3, 64, 60
5, 219260, Note_on_c, 3, 64, 0
5, 219360, Note_on_c, 3, 62, 60
5, 219452, Note_on_c, 3, 62, 0
5, 219456, Note_on_c, 3, 74, 60
5, 219548, Note_on_c, 3, 74, 0
5, 219552, Note_on_c, 3, 62, 60
5, 219644, Note_on_c, 3, 62, 0
5, 230400, Note_on_c, 3, 74, 60
5, 230400, Note_on_c, 3, 62, 60
5, 230492, Note_on_c, 3, 62, 0
5, 230492, Note_on_c, 3, 74, 0
5, 230496, Note_on_c, 3, 65, 60
5, 230588, Note_on_c, 3, 65, 0
5, 230592, Note_on_c, 3, 77, 60
5, 230592, Note_on_c, 3, 69, 60
5, 230684, Note_on_c, 3, 69, 0
5, 230684, Note_on_c, 3, 77, 0
5, 230688, Note_on_c, 3, 65, 60
5, 230780, Note_on_c, 3, 65, 0
5, 230784, Note_on_c, 3, 77, 60
5, 230784, Note_on_c, 3, 62, 60
5, 230876, Note_on_c, 3, 62, 0
5, 230876, Note_on_c, 3, 77, 0
5, 230880, Note_on_c, 3, 65, 60
5, 230972, Note_on_c, 3, 65, 0
5, 230976, Note_on_c, 3, 77, 60
5, 230976, Note_on_c, 3, 69, 60
5, 231068, Note_on_c, 3, 69, 0
5, 231068, Note_on_c, 3, 77, 0
5, 231072, Note_on_c, 3, 65, 60
5, 231164, Note_on_c, 3, 65, 0
5, 231168, Note_on_c, 3, 79, 60
5, 231168, Note_on_c, 3, 62, 60
5, 231260, Note_on_c, 3, 62, 0
5, 231260, Note_on_c, 3, 79, 0
5, 231264, Note_on_c, 3, 77, 60
5, 231264, Note_on_c, 3, 65, 60
5, 231356, Note_on_c, 3, 65, 0
5, 231356, Note_on_c, 3, 77, 0
5, 231360, Note_on_c, 3, 76, 60
5, 231360, Note_on_c, 3, 69, 60
5, 231452, Note_on_c, 3, 69, 0
5, 231452, Note_on_c, 3, 76, 0
5, 231456, Note_on_c, 3, 77, 60
5, 231548, Note_on_c, 3, 77, 0
5, 231552, Note_on_c, 3, 79, 60
5, 231552, Note_on_c, 3, 65, 60
5, 231644, Note_on_c, 3, 65, 0
5, 231644, Note_on_c, 3, 79, 0
5, 231648, Note_on_c, 3, 77, 60
5, 231648, Note_on_c, 3, 62, 60
5, 231740, Note_on_c, 3, 62, 0
5, 231740, Note_on_c, 3, 77, 0
5, 231744, Note_on_c, 3, 76, 60
5, 231744, Note_on_c, 3, 65, 60
5, 231836, Note_on_c, 3, 65, 0
5, 231836, Note_on_c, 3, 76, 0
5, 231840, Note_on_c, 3, 77, 60
5, 231856, Note_on_c, 3, 69, 60
5, 231932, Note_on_c, 3, 77, 0
5, 231936, Note_on_c, 3, 76, 60
5, 231936, Note_on_c, 3, 62, 60
5, 231948, Note_on_c, 3, 69, 0
5, 232028, Note_on_c, 3, 62, 0
5, 232028, Note_on_c, 3, 76, 0
5, 232032, Note_on_c, 3, 67, 60
5, 232124, Note_on_c, 3, 67, 0
5, 232128, Note_on_c, 3, 76, 60
5, 232128, Note_on_c, 3, 70, 60
5, 232220, Note_on_c, 3, 70, 0
5, 232220, Note_on_c, 3, 76, 0
5, 232224, Note_on_c, 3, 67, 60
5, 232316, Note_on_c, 3, 67, 0
5, 232320, Note_on_c, 3, 76, 60
5, 232320, Note_on_c, 3, 62, 60
5, 232412, Note_on_c, 3, 62, 0
5, 232412, Note_on_c, 3, 76, 0
5, 232416, Note_on_c, 3, 67, 60
5, 232508, Note_on_c, 3, 67, 0
5, 232512, Note_on_c, 3, 76, 60
5, 232512, Note_on_c, 3, 70, 60
5, 232604, Note_on_c, 3, 70, 0
5, 232604, Note_on_c, 3, 76, 0
5, 232608, Note_on_c, 3, 67, 60
5, 232700, Note_on_c, 3, 67, 0
5, 232704, Note_on_c, 3, 76, 61
5, 232704, Note_on_c, 3, 61, 61
5, 232796, Note_on_c, 3, 61, 0
5, 232796, Note_on_c, 3, 76, 0
5, 232800, Note_on_c, 3, 77, 65
5, 232800, Note_on_c, 3, 67, 65
5, 232892, Note_on_c, 3, 67, 0
5, 232892, Note_on_c, 3, 77, 0
5, 232896, Note_on_c, 3, 79, 69
5, 232896, Note_on_c, 3, 70, 69
5, 232988, Note_on_c, 3, 70, 0
5, 232988, Note_on_c, 3, 79, 0
5, 232992, Note_on_c, 3, 77, 74
5, 232992, Note_on_c, 3, 67, 74
5, 233084, Note_on_c, 3, 67, 0
5, 233084, Note_on_c, 3, 77, 0
5, 233088, Note_on_c, 3, 76, 78
5, 233088, Note_on_c, 3, 61, 78
5, 233180, Note_on_c, 3, 61, 0
5, 233180, Note_on_c, 3, 76, 0
5, 233184, Note_on_c, 3, 77, 82
5, 233184, Note_on_c, 3, 67, 82
5, 233276, Note_on_c, 3, 67, 0
5, 233276, Note_on_c, 3, 77, 0
5, 233280, Note_on_c, 3, 79, 87
5, 233280, Note_on_c, 3, 70, 87
5, 233372, Note_on_c, 3, 70, 0
5, 233372, Note_on_c, 3, 79, 0
5, 233376, Note_on_c, 3, 76, 91
5, 233376, Note_on_c, 3, 67, 91
5, 233468, Note_on_c, 3, 67, 0
5, 233468, Note_on_c, 3, 76, 0
5, 233472, Note_on_c, 3, 76, 95
5, 233472, Note_on_c, 3, 60, 95
5, 233564, Note_on_c, 3, 60, 0
5, 233568, Note_on_c, 3, 67, 95
5, 233660, Note_on_c, 3, 67, 0
5, 233660, Note_on_c, 3, 76, 0
5, 233664, Note_on_c, 3, 82, 95
5, 233664, Note_on_c, 3, 70, 95
5, 233756, Note_on_c, 3, 70, 0
5, 233760, Note_on_c, 3, 67, 95
5, 233852, Note_on_c, 3, 67, 0
5, 233852, Note_on_c, 3, 82, 0
5, 233856, Note_on_c, 3, 82, 95
5, 233856, Note_on_c, 3, 60, 95
5, 233948, Note_on_c, 3, 60, 0
5, 233952, Note_on_c, 3, 67, 95
5, 234044, Note_on_c, 3, 67, 0
5, 234044, Note_on_c, 3, 82, 0
5, 234048, Note_on_c, 3, 82, 95
5, 234048, Note_on_c, 3, 70, 95
5, 234140, Note_on_c, 3, 70, 0
5, 234144, Note_on_c, 3, 67, 95
5, 234236, Note_on_c, 3, 67, 0
5, 234236, Note_on_c, 3, 82, 0
5, 234240, Note_on_c, 3, 82, 95
5, 234240, Note_on_c, 3, 60, 95
5, 234332, Note_on_c, 3, 60, 0
5, 234332, Note_on_c, 3, 82, 0
5, 234336, Note_on_c, 3, 81, 95
5, 234336, Note_on_c, 3, 67, 95
5, 234428, Note_on_c, 3, 67, 0
5, 234428, Note_on_c, 3, 81, 0
5, 234432, Note_on_c, 3, 82, 95
5, 234432, Note_on_c, 3, 70, 95
5, 234524, Note_on_c, 3, 70, 0
5, 234524, Note_on_c, 3, 82, 0
5, 234528, Note_on_c, 3, 81, 95
5, 234528, Note_on_c, 3, 67, 95
5, 234620, Note_on_c, 3, 67, 0
5, 234620, Note_on_c, 3, 81, 0
5, 234624, Note_on_c, 3, 82, 95
5, 234624, Note_on_c, 3, 60, 95
5, 234716, Note_on_c, 3, 60, 0
5, 234716, Note_on_c, 3, 82, 0
5, 234720, Note_on_c, 3, 79, 95
5, 234720, Note_on_c, 3, 67, 95
5, 234812, Note_on_c, 3, 67, 0
5, 234812, Note_on_c, 3, 79, 0
5, 234816, Note_on_c, 3, 77, 95
5, 234816, Note_on_c, 3, 70, 95
5, 234908, Note_on_c, 3, 70, 0
5, 234908, Note_on_c, 3, 77, 0
5, 234912, Note_on_c, 3, 76, 95
5, 234912, Note_on_c, 3, 67, 95
5, 235004, Note_on_c, 3, 67, 0
5, 235004, Note_on_c, 3, 76, 0
5, 235008, Note_on_c, 3, 77, 60
5, 235008, Note_on_c, 3, 65, 60
5, 235100, Note_on_c, 3, 77, 0
5, 235104, Note_on_c, 3, 69, 60
5, 235196, Note_on_c, 3, 69, 0
5, 235200, Note_on_c, 3, 72, 60
5, 235292, Note_on_c, 3, 72, 0
5, 235296, Note_on_c, 3, 69, 60
5, 235388, Note_on_c, 3, 69, 0
5, 235388, Note_on_c, 3, 65, 0
5, 235392, Note_on_c, 3, 65, 60
5, 235484, Note_on_c, 3, 65, 0
5, 235488, Note_on_c, 3, 69, 60
5, 235580, Note_on_c, 3, 69, 0
5, 235584, Note_on_c, 3, 72, 60
5, 235676, Note_on_c, 3, 72, 0
5, 235680, Note_on_c, 3, 69, 60
5, 235772, Note_on_c, 3, 69, 0
5, 235776, Note_on_c, 3, 65, 60
5, 235868, Note_on_c, 3, 65, 0
5, 235872, Note_on_c, 3, 69, 60
5, 235964, Note_on_c, 3, 69, 0
5, 235968, Note_on_c, 3, 72, 60
5, 236060, Note_on_c, 3, 72, 0
5, 236064, Note_on_c, 3, 69, 60
5, 236156, Note_on_c, 3, 69, 0
5, 236160, Note_on_c, 3, 65, 60
5, 236252, Note_on_c, 3, 65, 0
5, 236256, Note_on_c, 3, 69, 60
5, 236348, Note_on_c, 3, 69, 0
5, 236352, Note_on_c, 3, 72, 60
5, 236444, Note_on_c, 3, 72, 0
5, 236448, Note_on_c, 3, 69, 60
5, 236540, Note_on_c, 3, 69, 0
5, 236544, Note_on_c, 3, 65, 60
5, 236636, Note_on_c, 3, 65, 0
5, 236640, Note_on_c, 3, 71, 60
5, 236732, Note_on_c, 3, 71, 0
5, 236736, Note_on_c, 3, 74, 60
5, 236828, Note_on_c, 3, 74, 0
5, 236832, Note_on_c, 3, 71, 60
5, 236924, Note_on_c, 3, 71, 0
5, 236928, Note_on_c, 3, 65, 60
5, 237020, Note_on_c, 3, 65, 0
5, 237024, Note_on_c, 3, 71, 60
5, 237116, Note_on_c, 3, 71, 0
5, 237120, Note_on_c, 3, 74, 60
5, 237212, Note_on_c, 3, 74, 0
5, 237216, Note_on_c, 3, 71, 60
5, 237308, Note_on_c, 3, 71, 0
5, 237312, Note_on_c, 3, 65, 60
5, 237404, Note_on_c, 3, 65, 0
5, 237408, Note_on_c, 3, 71, 60
5, 237500, Note_on_c, 3, 71, 0
5, 237504, Note_on_c, 3, 74, 60
5, 237596, Note_on_c, 3, 74, 0
5, 237600, Note_on_c, 3, 71, 60
5, 237692, Note_on_c, 3, 71, 0
5, 237696, Note_on_c, 3, 65, 60
5, 237788, Note_on_c, 3, 65, 0
5, 237792, Note_on_c, 3, 71, 60
5, 237884, Note_on_c, 3, 71, 0
5, 237888, Note_on_c, 3, 74, 60
5, 237980, Note_on_c, 3, 74, 0
5, 237984, Note_on_c, 3, 71, 60
5, 238076, Note_on_c, 3, 71, 0
5, 238080, Note_on_c, 3, 64, 95
5, 238172, Note_on_c, 3, 64, 0
5, 238176, Note_on_c, 3, 71, 95
5, 238268, Note_on_c, 3, 71, 0
5, 238272, Note_on_c, 3, 74, 95
5, 238364, Note_on_c, 3, 74, 0
5, 238368, Note_on_c, 3, 71, 95
5, 238460, Note_on_c, 3, 71, 0
5, 238464, Note_on_c, 3, 64, 95
5, 238556, Note_on_c, 3, 64, 0
5, 238560, Note_on_c, 3, 71, 95
5, 238652, Note_on_c, 3, 71, 0
5, 238656, Note_on_c, 3, 74, 95
5, 238748, Note_on_c, 3, 74, 0
5, 238752, Note_on_c, 3, 71, 95
5, 238844, Note_on_c, 3, 71, 0
5, 238848, Note_on_c, 3, 64, 95
5, 238940, Note_on_c, 3, 64, 0
5, 238944, Note_on_c, 3, 71, 95
5, 239036, Note_on_c, 3, 71, 0
5, 239040, Note_on_c, 3, 74, 95
5, 239132, Note_on_c, 3, 74, 0
5, 239136, Note_on_c, 3, 71, 95
5, 239228, Note_on_c, 3, 71, 0
5, 239232, Note_on_c, 3, 64, 95
5, 239324, Note_on_c, 3, 64, 0
5, 239328, Note_on_c, 3, 71, 95
5, 239420, Note_on_c, 3, 71, 0
5, 239424, Note_on_c, 3, 74, 95
5, 239516, Note_on_c, 3, 74, 0
5, 239520, Note_on_c, 3, 71, 95
5, 239612, Note_on_c, 3, 71, 0
5, 239616, Note_on_c, 3, 69, 95
5, 239616, Note_on_c, 3, 57, 95
5, 239708, Note_on_c, 3, 57, 0
5, 239712, Note_on_c, 3, 60, 70
5, 239804, Note_on_c, 3, 60, 0
5, 239804, Note_on_c, 3, 69, 0
5, 239808, Note_on_c, 3, 84, 70
5, 239808, Note_on_c, 3, 64, 70
5, 239900, Note_on_c, 3, 64, 0
5, 239900, Note_on_c, 3, 84, 0
5, 239904, Note_on_c, 3, 60, 70
5, 239996, Note_on_c, 3, 60, 0
5, 240000, Note_on_c, 3, 84, 70
5, 240000, Note_on_c, 3, 57, 70
5, 240092, Note_on_c, 3, 57, 0
5, 240092, Note_on_c, 3, 84, 0
5, 240096, Note_on_c, 3, 60, 70
5, 240188, Note_on_c, 3, 60, 0
5, 240192, Note_on_c, 3, 84, 70
5, 240192, Note_on_c, 3, 64, 70
5, 240284, Note_on_c, 3, 64, 0
5, 240284, Note_on_c, 3, 84, 0
5, 240288, Note_on_c, 3, 60, 70
5, 240380, Note_on_c, 3, 60, 0
5, 240384, Note_on_c, 3, 86, 70
5, 240384, Note_on_c, 3, 57, 70
5, 240476, Note_on_c, 3, 57, 0
5, 240476, Note_on_c, 3, 86, 0
5, 240480, Note_on_c, 3, 84, 70
5, 240480, Note_on_c, 3, 60, 70
5, 240572, Note_on_c, 3, 60, 0
5, 240572, Note_on_c, 3, 84, 0
5, 240576, Note_on_c, 3, 83, 70
5, 240576, Note_on_c, 3, 64, 70
5, 240668, Note_on_c, 3, 64, 0
5, 240668, Note_on_c, 3, 83, 0
5, 240672, Note_on_c, 3, 84, 70
5, 240672, Note_on_c, 3, 60, 70
5, 240764, Note_on_c, 3, 60, 0
5, 240764, Note_on_c, 3, 84, 0
5, 240768, Note_on_c, 3, 86, 70
5, 240768, Note_on_c, 3, 57, 70
5, 240860, Note_on_c, 3, 57, 0
5, 240860, Note_on_c, 3, 86, 0
5, 240864, Note_on_c, 3, 84, 70
5, 240864, Note_on_c, 3, 60, 70
5, 240956, Note_on_c, 3, 60, 0
5, 240956, Note_on_c, 3, 84, 0
5, 240960, Note_on_c, 3, 83, 70
5, 240960, Note_on_c, 3, 64, 70
5, 241052, Note_on_c, 3, 64, 0
5, 241052, Note_on_c, 3, 83, 0
5, 241056, Note_on_c, 3, 84, 70
5, 241056, Note_on_c, 3, 60, 70
5, 241148, Note_on_c, 3, 60, 0
5, 241148, Note_on_c, 3, 84, 0
5, 241152, Note_on_c, 3, 83, 71
5, 241152, Note_on_c, 3, 57, 71
5, 241244, Note_on_c, 3, 57, 0
5, 241244, Note_on_c, 3, 83, 0
5, 241248, Note_on_c, 3, 62, 72
5, 241340, Note_on_c, 3, 62, 0
5, 241344, Note_on_c, 3, 83, 73
5, 241344, Note_on_c, 3, 65, 73
5, 241436, Note_on_c, 3, 65, 0
5, 241436, Note_on_c, 3, 83, 0
5, 241440, Note_on_c, 3, 62, 74
5, 241532, Note_on_c, 3, 62, 0
5, 241536, Note_on_c, 3, 83, 76
5, 241536, Note_on_c, 3, 57, 76
5, 241628, Note_on_c, 3, 57, 0
5, 241628, Note_on_c, 3, 83, 0
5, 241632, Note_on_c, 3, 62, 77
5, 241724, Note_on_c, 3, 62, 0
5, 241728, Note_on_c, 3, 83, 78
5, 241728, Note_on_c, 3, 65, 78
5, 241820, Note_on_c, 3, 65, 0
5, 241820, Note_on_c, 3, 83, 0
5, 241824, Note_on_c, 3, 62, 79
5, 241916, Note_on_c, 3, 62, 0
5, 241920, Note_on_c, 3, 83, 81
5, 241920, Note_on_c, 3, 56, 81
5, 242012, Note_on_c, 3, 56, 0
5, 242012, Note_on_c, 3, 83, 0
5, 242016, Note_on_c, 3, 84, 82
5, 242016, Note_on_c, 3, 62, 82
5, 242108, Note_on_c, 3, 62, 0
5, 242108, Note_on_c, 3, 84, 0
5, 242112, Note_on_c, 3, 86, 83
5, 242112, Note_on_c, 3, 65, 83
5, 242204, Note_on_c, 3, 65, 0
5, 242204, Note_on_c, 3, 86, 0
5, 242208, Note_on_c, 3, 84, 84
5, 242208, Note_on_c, 3, 62, 84
5, 242300, Note_on_c, 3, 62, 0
5, 242300, Note_on_c, 3, 84, 0
5, 242304, Note_on_c, 3, 83, 86
5, 242304, Note_on_c, 3, 56, 86
5, 242396, Note_on_c, 3, 56, 0
5, 242396, Note_on_c, 3, 83, 0
5, 242400, Note_on_c, 3, 84, 87
5, 242400, Note_on_c, 3, 62, 87
5, 242492, Note_on_c, 3, 62, 0
5, 242492, Note_on_c, 3, 84, 0
5, 242496, Note_on_c, 3, 86, 88
5, 242496, Note_on_c, 3, 65, 88
5, 242588, Note_on_c, 3, 65, 0
5, 242588, Note_on_c, 3, 86, 0
5, 242592, Note_on_c, 3, 84, 89
5, 242592, Note_on_c, 3, 62, 89
5, 242684, Note_on_c, 3, 62, 0
5, 242684, Note_on_c, 3, 84, 0
5, 242688, Note_on_c, 3, 83, 90
5, 242688, Note_on_c, 3, 55, 90
5, 242780, Note_on_c, 3, 55, 0
5, 242780, Note_on_c, 3, 83, 0
5, 242784, Note_on_c, 3, 62, 90
5, 242876, Note_on_c, 3, 62, 0
5, 242880, Note_on_c, 3, 89, 90
5, 242880, Note_on_c, 3, 65, 90
5, 242972, Note_on_c, 3, 65, 0
5, 242972, Note_on_c, 3, 89, 0
5, 242976, Note_on_c, 3, 62, 90
5, 243068, Note_on_c, 3, 62, 0
5, 243072, Note_on_c, 3, 89, 90
5, 243072, Note_on_c, 3, 55, 90
5, 243164, Note_on_c, 3, 55, 0
5, 243164, Note_on_c, 3, 89, 0
5, 243168, Note_on_c, 3, 62, 90
5, 243260, Note_on_c, 3, 62, 0
5, 243264, Note_on_c, 3, 89, 90
5, 243264, Note_on_c, 3, 65, 90
5, 243356, Note_on_c, 3, 65, 0
5, 243356, Note_on_c, 3, 89, 0
5, 243360, Note_on_c, 3, 62, 90
5, 243452, Note_on_c, 3, 62, 0
5, 243456, Note_on_c, 3, 89, 90
5, 243456, Note_on_c, 3, 55, 90
5, 243548, Note_on_c, 3, 55, 0
5, 243548, Note_on_c, 3, 89, 0
5, 243552, Note_on_c, 3, 88, 90
5, 243552, Note_on_c, 3, 62, 90
5, 243644, Note_on_c, 3, 62, 0
5, 243644, Note_on_c, 3, 88, 0
5, 243648, Note_on_c, 3, 89, 90
5, 243648, Note_on_c, 3, 65, 90
5, 243740, Note_on_c, 3, 65, 0
5, 243740, Note_on_c, 3, 89, 0
5, 243744, Note_on_c, 3, 88, 90
5, 243744, Note_on_c, 3, 62, 90
5, 243836, Note_on_c, 3, 62, 0
5, 243836, Note_on_c, 3, 88, 0
5, 243840, Note_on_c, 3, 89, 90
5, 243840, Note_on_c, 3, 55, 90
5, 243932, Note_on_c, 3, 55, 0
5, 243932, Note_on_c, 3, 89, 0
5, 243936, Note_on_c, 3, 86, 90
5, 243936, Note_on_c, 3, 62, 90
5, 244028, Note_on_c, 3, 62, 0
5, 244028, Note_on_c, 3, 86, 0
5, 244032, Note_on_c, 3, 84, 90
5, 244032, Note_on_c, 3, 65, 90
5, 244124, Note_on_c, 3, 65, 0
5, 244124, Note_on_c, 3, 84, 0
5, 244128, Note_on_c, 3, 83, 90
5, 244128, Note_on_c, 3, 62, 90
5, 244220, Note_on_c, 3, 62, 0
5, 244220, Note_on_c, 3, 83, 0
5, 244224, Note_on_c, 3, 84, 70
5, 244224, Note_on_c, 3, 55, 70
5, 244316, Note_on_c, 3, 55, 0
5, 244320, Note_on_c, 3, 60, 70
5, 244412, Note_on_c, 3, 60, 0
5, 244412, Note_on_c, 3, 84, 0
5, 244416, Note_on_c, 3, 79, 70
5, 244416, Note_on_c, 3, 63, 70
5, 244508, Note_on_c, 3, 63, 0
5, 244508, Note_on_c, 3, 79, 0
5, 244512, Note_on_c, 3, 60, 70
5, 244604, Note_on_c, 3, 60, 0
5, 244608, Note_on_c, 3, 79, 70
5, 244608, Note_on_c, 3, 55, 70
5, 244700, Note_on_c, 3, 55, 0
5, 244700, Note_on_c, 3, 79, 0
5, 244704, Note_on_c, 3, 60, 70
5, 244796, Note_on_c, 3, 60, 0
5, 244800, Note_on_c, 3, 79, 70
5, 244800, Note_on_c, 3, 63, 70
5, 244892, Note_on_c, 3, 63, 0
5, 244892, Note_on_c, 3, 79, 0
5, 244896, Note_on_c, 3, 60, 70
5, 244988, Note_on_c, 3, 60, 0
5, 244992, Note_on_c, 3, 78, 70
5, 244992, Note_on_c, 3, 55, 70
5, 245084, Note_on_c, 3, 55, 0
5, 245084, Note_on_c, 3, 78, 0
5, 245088, Note_on_c, 3, 79, 70
5, 245088, Note_on_c, 3, 60, 70
5, 245180, Note_on_c, 3, 60, 0
5, 245180, Note_on_c, 3, 79, 0
5, 245184, Note_on_c, 3, 77, 70
5, 245184, Note_on_c, 3, 63, 70
5, 245276, Note_on_c, 3, 63, 0
5, 245276, Note_on_c, 3, 77, 0
5, 245280, Note_on_c, 3, 79, 70
5, 245280, Note_on_c, 3, 60, 70
5, 245372, Note_on_c, 3, 60, 0
5, 245372, Note_on_c, 3, 79, 0
5, 245376, Note_on_c, 3, 77, 70
5, 245376, Note_on_c, 3, 55, 70
5, 245468, Note_on_c, 3, 55, 0
5, 245468, Note_on_c, 3, 77, 0
5, 245472, Note_on_c, 3, 75, 70
5, 245472, Note_on_c, 3, 60, 70
5, 245564, Note_on_c, 3, 60, 0
5, 245564, Note_on_c, 3, 75, 0
5, 245568, Note_on_c, 3, 74, 70
5, 245568, Note_on_c, 3, 63, 70
5, 245660, Note_on_c, 3, 63, 0
5, 245660, Note_on_c, 3, 74, 0
5, 245664, Note_on_c, 3, 72, 70
5, 245664, Note_on_c, 3, 60, 70
5, 245756, Note_on_c, 3, 60, 0
5, 245756, Note_on_c, 3, 72, 0
5, 245760, Note_on_c, 3, 71, 90
5, 245760, Note_on_c, 3, 55, 90
5, 245852, Note_on_c, 3, 55, 0
5, 245852, Note_on_c, 3, 71, 0
5, 245856, Note_on_c, 3, 62, 90
5, 245948, Note_on_c, 3, 62, 0
5, 245952, Note_on_c, 3, 89, 90
5, 245952, Note_on_c, 3, 65, 90
5, 246044, Note_on_c, 3, 65, 0
5, 246044, Note_on_c, 3, 89, 0
5, 246048, Note_on_c, 3, 62, 90
5, 246140, Note_on_c, 3, 62, 0
5, 246144, Note_on_c, 3, 89, 90
5, 246144, Note_on_c, 3, 55, 90
5, 246236, Note_on_c, 3, 55, 0
5, 246236, Note_on_c, 3, 89, 0
5, 246240, Note_on_c, 3, 62, 90
5, 246332, Note_on_c, 3, 62, 0
5, 246336, Note_on_c, 3, 89, 90
5, 246336, Note_on_c, 3, 65, 90
5, 246428, Note_on_c, 3, 65, 0
5, 246428, Note_on_c, 3, 89, 0
5, 246432, Note_on_c, 3, 62, 90
5, 246524, Note_on_c, 3, 62, 0
5, 246528, Note_on_c, 3, 89, 90
5, 246528, Note_on_c, 3, 55, 90
5, 246620, Note_on_c, 3, 55, 0
5, 246620, Note_on_c, 3, 89, 0
5, 246624, Note_on_c, 3, 88, 90
5, 246624, Note_on_c, 3, 62, 90
5, 246716, Note_on_c, 3, 62, 0
5, 246716, Note_on_c, 3, 88, 0
5, 246720, Note_on_c, 3, 89, 90
5, 246720, Note_on_c, 3, 65, 90
5, 246812, Note_on_c, 3, 65, 0
5, 246812, Note_on_c, 3, 89, 0
5, 246816, Note_on_c, 3, 88, 90
5, 246816, Note_on_c, 3, 62, 90
5, 246908, Note_on_c, 3, 62, 0
5, 246908, Note_on_c, 3, 88, 0
5, 246912, Note_on_c, 3, 89, 90
5, 246912, Note_on_c, 3, 55, 90
5, 247004, Note_on_c, 3, 55, 0
5, 247004, Note_on_c, 3, 89, 0
5, 247008, Note_on_c, 3, 86, 90
5, 247008, Note_on_c, 3, 62, 90
5, 247100, Note_on_c, 3, 62, 0
5, 247100, Note_on_c, 3, 86, 0
5, 247104, Note_on_c, 3, 84, 90
5, 247104, Note_on_c, 3, 65, 90
5, 247196, Note_on_c, 3, 65, 0
5, 247196, Note_on_c, 3, 84, 0
5, 247200, Note_on_c, 3, 83, 90
5, 247200, Note_on_c, 3, 62, 90
5, 247292, Note_on_c, 3, 62, 0
5, 247292, Note_on_c, 3, 83, 0
5, 247296, Note_on_c, 3, 84, 70
5, 247296, Note_on_c, 3, 55, 70
5, 247388, Note_on_c, 3, 55, 0
5, 247392, Note_on_c, 3, 60, 70
5, 247484, Note_on_c, 3, 60, 0
5, 247484, Note_on_c, 3, 84, 0
5, 247488, Note_on_c, 3, 79, 70
5, 247488, Note_on_c, 3, 63, 70
5, 247580, Note_on_c, 3, 63, 0
5, 247580, Note_on_c, 3, 79, 0
5, 247584, Note_on_c, 3, 60, 70
5, 247676, Note_on_c, 3, 60, 0
5, 247680, Note_on_c, 3, 79, 70
5, 247680, Note_on_c, 3, 55, 70
5, 247772, Note_on_c, 3, 55, 0
5, 247772, Note_on_c, 3, 79, 0
5, 247776, Note_on_c, 3, 60, 70
5, 247868, Note_on_c, 3, 60, 0
5, 247872, Note_on_c, 3, 79, 70
5, 247872, Note_on_c, 3, 63, 70
5, 247964, Note_on_c, 3, 63, 0
5, 247964, Note_on_c, 3, 79, 0
5, 247968, Note_on_c, 3, 60, 70
5, 248060, Note_on_c, 3, 60, 0
5, 248064, Note_on_c, 3, 78, 70
5, 248064, Note_on_c, 3, 55, 70
5, 248156, Note_on_c, 3, 55, 0
5, 248156, Note_on_c, 3, 78, 0
5, 248160, Note_on_c, 3, 79, 70
5, 248160, Note_on_c, 3, 60, 70
5, 248252, Note_on_c, 3, 60, 0
5, 248252, Note_on_c, 3, 79, 0
5, 248256, Note_on_c, 3, 78, 70
5, 248256, Note_on_c, 3, 63, 70
5, 248348, Note_on_c, 3, 63, 0
5, 248348, Note_on_c, 3, 78, 0
5, 248352, Note_on_c, 3, 79, 70
5, 248352, Note_on_c, 3, 60, 70
5, 248444, Note_on_c, 3, 60, 0
5, 248444, Note_on_c, 3, 79, 0
5, 248448, Note_on_c, 3, 77, 70
5, 248448, Note_on_c, 3, 55, 70
5, 248540, Note_on_c, 3, 55, 0
5, 248540, Note_on_c, 3, 77, 0
5, 248544, Note_on_c, 3, 75, 70
5, 248544, Note_on_c, 3, 60, 70
5, 248636, Note_on_c, 3, 60, 0
5, 248636, Note_on_c, 3, 75, 0
5, 248640, Note_on_c, 3, 74, 70
5, 248640, Note_on_c, 3, 63, 70
5, 248732, Note_on_c, 3, 63, 0
5, 248732, Note_on_c, 3, 74, 0
5, 248736, Note_on_c, 3, 72, 70
5, 248736, Note_on_c, 3, 60, 70
5, 248828, Note_on_c, 3, 60, 0
5, 248828, Note_on_c, 3, 72, 0
5, 251904, Note_on_c, 3, 67, 70
5, 251996, Note_on_c, 3, 67, 0
5, 252096, Note_on_c, 3, 79, 65
5, 252096, Note_on_c, 3, 67, 65
5, 252188, Note_on_c, 3, 67, 0
5, 252188, Note_on_c, 3, 79, 0
5, 252288, Note_on_c, 3, 78, 63
5, 252288, Note_on_c, 3, 66, 63
5, 252380, Note_on_c, 3, 66, 0
5, 252380, Note_on_c, 3, 78, 0
5, 252480, Note_on_c, 3, 79, 60
5, 252480, Note_on_c, 3, 67, 60
5, 252572, Note_on_c, 3, 67, 0
5, 252572, Note_on_c, 3, 79, 0
5, 252864, Note_on_c, 3, 72, 90
5, 252904, Note_on_c, 3, 72, 0
5, 252912, Note_on_c, 3, 75, 90
5, 252952, Note_on_c, 3, 75, 0
5, 252960, Note_on_c, 3, 78, 90
5, 253000, Note_on_c, 3, 78, 0
5, 253008, Note_on_c, 3, 81, 90
5, 253048, Note_on_c, 3, 81, 0
5, 253056, Note_on_c, 3, 84, 90
5, 253148, Note_on_c, 3, 84, 0
5, 253248, Note_on_c, 3, 72, 60
5, 253340, Note_on_c, 3, 72, 0
5, 253440, Note_on_c, 3, 71, 60
5, 253628, Note_on_c, 3, 71, 0
5, 253632, Note_on_c, 3, 79, 60
5, 253632, Note_on_c, 3, 67, 60
5, 253820, Note_on_c, 3, 67, 0
5, 253820, Note_on_c, 3, 79, 0
5, 253824, Note_on_c, 3, 78, 60
5, 253824, Note_on_c, 3, 66, 60
5, 254012, Note_on_c, 3, 66, 0
5, 254012, Note_on_c, 3, 78, 0
5, 254016, Note_on_c, 3, 79, 60
5, 254016, Note_on_c, 3, 67, 60
5, 254204, Note_on_c, 3, 67, 0
5, 254204, Note_on_c, 3, 79, 0
5, 254400, Note_on_c, 3, 72, 95
5, 254440, Note_on_c, 3, 72, 0
5, 254448, Note_on_c, 3, 75, 95
5, 254488, Note_on_c, 3, 75, 0
5, 254496, Note_on_c, 3, 78, 95
5, 254536, Note_on_c, 3, 78, 0
5, 254544, Note_on_c, 3, 81, 95
5, 254584, Note_on_c, 3, 81, 0
5, 254592, Note_on_c, 3, 84, 95
5, 254684, Note_on_c, 3, 84, 0
5, 254784, Note_on_c, 3, 72, 60
5, 254876, Note_on_c, 3, 72, 0
5, 254976, Note_on_c, 3, 74, 60
5, 254976, Note_on_c, 3, 71, 60
5, 255068, Note_on_c, 3, 71, 0
5, 255068, Note_on_c, 3, 74, 0
5, 255168, Note_on_c, 3, 62, 60
5, 255168, Note_on_c, 3, 59, 60
5, 255260, Note_on_c, 3, 59, 0
5, 255260, Note_on_c, 3, 62, 0
5, 255552, Note_on_c, 3, 74, 60
5, 255552, Note_on_c, 3, 71, 60
5, 255644, Note_on_c, 3, 71, 0
5, 255644, Note_on_c, 3, 74, 0
5, 255744, Note_on_c, 3, 76, 61
5, 255744, Note_on_c, 3, 72, 61
5, 255836, Note_on_c, 3, 72, 0
5, 255836, Note_on_c, 3, 76, 0
5, 255936, Note_on_c, 3, 64, 62
5, 255936, Note_on_c, 3, 60, 62
5, 256028, Note_on_c, 3, 60, 0
5, 256028, Note_on_c, 3, 64, 0
5, 256320, Note_on_c, 3, 76, 65
5, 256320, Note_on_c, 3, 72, 65
5, 256412, Note_on_c, 3, 72, 0
5, 256412, Note_on_c, 3, 76, 0
5, 256512, Note_on_c, 3, 77, 67
5, 256512, Note_on_c, 3, 74, 67
5, 256604, Note_on_c, 3, 74, 0
5, 256604, Note_on_c, 3, 77, 0
5, 256704, Note_on_c, 3, 65, 68
5, 256704, Note_on_c, 3, 62, 68
5, 256796, Note_on_c, 3, 62, 0
5, 256796, Note_on_c, 3, 65, 0
5, 257088, Note_on_c, 3, 77, 72
5, 257088, Note_on_c, 3, 74, 72
5, 257180, Note_on_c, 3, 74, 0
5, 257180, Note_on_c, 3, 77, 0
5, 257280, Note_on_c, 3, 79, 73
5, 257280, Note_on_c, 3, 76, 73
5, 257372, Note_on_c, 3, 76, 0
5, 257372, Note_on_c, 3, 79, 0
5, 257472, Note_on_c, 3, 67, 75
5, 257472, Note_on_c, 3, 64, 75
5, 257564, Note_on_c, 3, 64, 0
5, 257564, Note_on_c, 3, 67, 0
5, 257856, Note_on_c, 3, 79, 78
5, 257856, Note_on_c, 3, 76, 78
5, 257948, Note_on_c, 3, 76, 0
5, 257948, Note_on_c, 3, 79, 0
5, 258048, Note_on_c, 3, 81, 80
5, 258048, Note_on_c, 3, 77, 80
5, 258140, Note_on_c, 3, 77, 0
5, 258140, Note_on_c, 3, 81, 0
5, 258240, Note_on_c, 3, 69, 81
5, 258240, Note_on_c, 3, 65, 81
5, 258332, Note_on_c, 3, 65, 0
5, 258332, Note_on_c, 3, 69, 0
5, 258624, Note_on_c, 3, 81, 84
5, 258624, Note_on_c, 3, 77, 84
5, 258716, Note_on_c, 3, 77, 0
5, 258716, Note_on_c, 3, 81, 0
5, 258816, Note_on_c, 3, 83, 86
5, 258816, Note_on_c, 3, 77, 86
5, 258816, Note_on_c, 3, 74, 86
5, 258908, Note_on_c, 3, 74, 0
5, 258908, Note_on_c, 3, 77, 0
5, 258908, Note_on_c, 3, 83, 0
5, 259008, Note_on_c, 3, 71, 88
5, 259008, Note_on_c, 3, 65, 88
5, 259008, Note_on_c, 3, 62, 88
5, 259100, Note_on_c, 3, 62, 0
5, 259100, Note_on_c, 3, 65, 0
5, 259100, Note_on_c, 3, 71, 0
5, 259392, Note_on_c, 3, 83, 91
5, 259392, Note_on_c, 3, 77, 91
5, 259392, Note_on_c, 3, 74, 91
5, 259484, Note_on_c, 3, 74, 0
5, 259484, Note_on_c, 3, 77, 0
5, 259484, Note_on_c, 3, 83, 0
5, 259584, Note_on_c, 3, 72, 95
5, 259596, Note_on_c, 3, 76, 95
5, 259612, Note_on_c, 3, 79, 95
5, 259628, Note_on_c, 3, 84, 95
5, 260156, Note_on_c, 3, 72, 0
5, 260160, Note_on_c, 3, 79, 95
5, 260168, Note_on_c, 3, 76, 0
5, 260184, Note_on_c, 3, 79, 0
5, 260200, Note_on_c, 3, 84, 0
5, 260252, Note_on_c, 3, 79, 0
5, 260352, Note_on_c, 3, 76, 95
5, 260444, Note_on_c, 3, 76, 0
5, 260544, Note_on_c, 3, 72, 95
5, 260636, Note_on_c, 3, 72, 0
5, 260736, Note_on_c, 3, 76, 95
5, 260828, Note_on_c, 3, 76, 0
5, 260928, Note_on_c, 3, 79, 95
5, 261020, Note_on_c, 3, 79, 0
5, 261120, Note_on_c, 3, 84, 95
5, 261692, Note_on_c, 3, 84, 0
5, 261696, Note_on_c, 3, 79, 95
5, 261788, Note_on_c, 3, 79, 0
5, 261888, Note_on_c, 3, 76, 95
5, 261980, Note_on_c, 3, 76, 0
5, 262080, Note_on_c, 3, 72, 95
5, 262172, Note_on_c, 3, 72, 0
5, 262272, Note_on_c, 3, 76, 95
5, 262364, Note_on_c, 3, 76, 0
5, 262464, Note_on_c, 3, 79, 95
5, 262556, Note_on_c, 3, 79, 0
5, 262656, Note_on_c, 3, 84, 95
5, 263036, Note_on_c, 3, 84, 0
5, 268992, Note_on_c, 3, 67, 60
5, 269084, Note_on_c, 3, 67, 0
5, 269088, Note_on_c, 3, 79, 60
5, 269180, Note_on_c, 3, 79, 0
5, 269184, Note_on_c, 3, 67, 60
5, 269184, Note_on_c, 3, 60, 60
5, 269276, Note_on_c, 3, 60, 0
5, 269276, Note_on_c, 3, 67, 0
5, 269280, Note_on_c, 3, 79, 60
5, 269372, Note_on_c, 3, 79, 0
5, 269376, Note_on_c, 3, 67, 60
5, 269376, Note_on_c, 3, 64, 60
5, 269468, Note_on_c, 3, 64, 0
5, 269468, Note_on_c, 3, 67, 0
5, 269472, Note_on_c, 3, 79, 60
5, 269564, Note_on_c, 3, 79, 0
5, 269568, Note_on_c, 3, 67, 60
5, 269568, Note_on_c, 3, 62, 60
5, 269660, Note_on_c, 3, 62, 0
5, 269660, Note_on_c, 3, 67, 0
5, 269664, Note_on_c, 3, 79, 60
5, 269756, Note_on_c, 3, 79, 0
5, 269760, Note_on_c, 3, 67, 60
5, 269760, Note_on_c, 3, 65, 60
5, 269852, Note_on_c, 3, 65, 0
5, 269852, Note_on_c, 3, 67, 0
5, 269856, Note_on_c, 3, 79, 60
5, 269948, Note_on_c, 3, 79, 0
5, 269952, Note_on_c, 3, 67, 60
5, 269952, Note_on_c, 3, 60, 60
5, 270044, Note_on_c, 3, 60, 0
5, 270044, Note_on_c, 3, 67, 0
5, 270048, Note_on_c, 3, 79, 60
5, 270140, Note_on_c, 3, 79, 0
5, 270144, Note_on_c, 3, 67, 60
5, 270144, Note_on_c, 3, 64, 60
5, 270236, Note_on_c, 3, 64, 0
5, 270236, Note_on_c, 3, 67, 0
5, 270240, Note_on_c, 3, 79, 60
5, 270332, Note_on_c, 3, 79, 0
5, 270336, Note_on_c, 3, 67, 95
5, 270336, Note_on_c, 3, 59, 95
5, 270428, Note_on_c, 3, 67, 0
5, 270432, Note_on_c, 3, 79, 95
5, 270524, Note_on_c, 3, 79, 0
5, 270528, Note_on_c, 3, 67, 95
5, 270620, Note_on_c, 3, 67, 0
5, 270624, Note_on_c, 3, 79, 95
5, 270716, Note_on_c, 3, 79, 0
5, 270716, Note_on_c, 3, 59, 0
5, 270720, Note_on_c, 3, 67, 60
5, 270720, Note_on_c, 3, 59, 60
5, 270812, Note_on_c, 3, 59, 0
5, 270812, Note_on_c, 3, 67, 0
5, 270816, Note_on_c, 3, 79, 60
5, 270908, Note_on_c, 3, 79, 0
5, 270912, Note_on_c, 3, 67, 60
5, 270912, Note_on_c, 3, 62, 60
5, 271004, Note_on_c, 3, 62, 0
5, 271004, Note_on_c, 3, 67, 0
5, 271008, Note_on_c, 3, 79, 60
5, 271100, Note_on_c, 3, 79, 0
5, 271104, Note_on_c, 3, 67, 60
5, 271104, Note_on_c, 3, 58, 60
5, 271196, Note_on_c, 3, 58, 0
5, 271196, Note_on_c, 3, 67, 0
5, 271200, Note_on_c, 3, 79, 60
5, 271292, Note_on_c, 3, 79, 0
5, 271296, Note_on_c, 3, 67, 60
5, 271296, Note_on_c, 3, 61, 60
5, 271388, Note_on_c, 3, 61, 0
5, 271388, Note_on_c, 3, 67, 0
5, 271392, Note_on_c, 3, 79, 60
5, 271484, Note_on_c, 3, 79, 0
5, 271488, Note_on_c, 3, 67, 60
5, 271488, Note_on_c, 3, 59, 60
5, 271580, Note_on_c, 3, 59, 0
5, 271580, Note_on_c, 3, 67, 0
5, 271584, Note_on_c, 3, 79, 60
5, 271676, Note_on_c, 3, 79, 0
5, 271680, Note_on_c, 3, 67, 60
5, 271680, Note_on_c, 3, 62, 60
5, 271772, Note_on_c, 3, 62, 0
5, 271772, Note_on_c, 3, 67, 0
5, 271776, Note_on_c, 3, 79, 60
5, 271868, Note_on_c, 3, 79, 0
5, 271872, Note_on_c, 3, 67, 95
5, 271872, Note_on_c, 3, 64, 95
5, 271872, Note_on_c, 3, 60, 95
5, 271964, Note_on_c, 3, 67, 0
5, 271968, Note_on_c, 3, 79, 95
5, 272060, Note_on_c, 3, 79, 0
5, 272064, Note_on_c, 3, 67, 95
5, 272156, Note_on_c, 3, 67, 0
5, 272160, Note_on_c, 3, 79, 95
5, 272252, Note_on_c, 3, 79, 0
5, 272252, Note_on_c, 3, 60, 0
5, 272252, Note_on_c, 3, 64, 0
5, 272256, Note_on_c, 3, 67, 60
5, 272256, Note_on_c, 3, 60, 60
5, 272348, Note_on_c, 3, 60, 0
5, 272348, Note_on_c, 3, 67, 0
5, 272352, Note_on_c, 3, 79, 60
5, 272444, Note_on_c, 3, 79, 0
5, 272448, Note_on_c, 3, 67, 60
5, 272448, Note_on_c, 3, 64, 60
5, 272540, Note_on_c, 3, 64, 0
5, 272540, Note_on_c, 3, 67, 0
5, 272544, Note_on_c, 3, 79, 60
5, 272636, Note_on_c, 3, 79, 0
5, 272640, Note_on_c, 3, 67, 60
5, 272640, Note_on_c, 3, 59, 60
5, 272732, Note_on_c, 3, 59, 0
5, 272732, Note_on_c, 3, 67, 0
5, 272736, Note_on_c, 3, 79, 60
5, 272828, Note_on_c, 3, 79, 0
5, 272832, Note_on_c, 3, 67, 60
5, 272832, Note_on_c, 3, 63, 60
5, 272924, Note_on_c, 3, 63, 0
5, 272924, Note_on_c, 3, 67, 0
5, 272928, Note_on_c, 3, 79, 60
5, 273020, Note_on_c, 3, 79, 0
5, 273024, Note_on_c, 3, 67, 60
5, 273024, Note_on_c, 3, 60, 60
5, 273116, Note_on_c, 3, 60, 0
5, 273116, Note_on_c, 3, 67, 0
5, 273120, Note_on_c, 3, 79, 60
5, 273212, Note_on_c, 3, 79, 0
5, 273216, Note_on_c, 3, 67, 60
5, 273216, Note_on_c, 3, 64, 60
5, 273308, Note_on_c, 3, 64, 0
5, 273308, Note_on_c, 3, 67, 0
5, 273312, Note_on_c, 3, 79, 60
5, 273404, Note_on_c, 3, 79, 0
5, 273408, Note_on_c, 3, 65, 61
5, 273500, Note_on_c, 3, 65, 0
5, 273504, Note_on_c, 3, 69, 63
5, 273596, Note_on_c, 3, 69, 0
5, 273600, Note_on_c, 3, 72, 65
5, 273692, Note_on_c, 3, 72, 0
5, 273696, Note_on_c, 3, 77, 67
5, 273788, Note_on_c, 3, 77, 0
5, 273792, Note_on_c, 3, 67, 69
5, 273884, Note_on_c, 3, 67, 0
5, 273888, Note_on_c, 3, 72, 71
5, 273980, Note_on_c, 3, 72, 0
5, 273984, Note_on_c, 3, 76, 74
5, 274076, Note_on_c, 3, 76, 0
5, 274080, Note_on_c, 3, 79, 76
5, 274172, Note_on_c, 3, 79, 0
5, 274176, Note_on_c, 3, 69, 78
5, 274268, Note_on_c, 3, 69, 0
5, 274272, Note_on_c, 3, 72, 80
5, 274364, Note_on_c, 3, 72, 0
5, 274368, Note_on_c, 3, 77, 82
5, 274460, Note_on_c, 3, 77, 0
5, 274464, Note_on_c, 3, 81, 85
5, 274556, Note_on_c, 3, 81, 0
5, 274560, Note_on_c, 3, 71, 87
5, 274652, Note_on_c, 3, 71, 0
5, 274656, Note_on_c, 3, 74, 89
5, 274748, Note_on_c, 3, 74, 0
5, 274752, Note_on_c, 3, 77, 91
5, 274844, Note_on_c, 3, 77, 0
5, 274848, Note_on_c, 3, 83, 93
5, 274940, Note_on_c, 3, 83, 0
5, 275328, Note_on_c, 3, 72, 95
5, 275420, Note_on_c, 3, 72, 0
5, 275424, Note_on_c, 3, 76, 95
5, 275516, Note_on_c, 3, 76, 0
5, 275520, Note_on_c, 3, 79, 95
5, 275612, Note_on_c, 3, 79, 0
5, 275616, Note_on_c, 3, 84, 95
5, 275708, Note_on_c, 3, 84, 0
5, 275712, Note_on_c, 3, 76, 95
5, 275804, Note_on_c, 3, 76, 0
5, 275808, Note_on_c, 3, 79, 95
5, 275900, Note_on_c, 3, 79, 0
5, 275904, Note_on_c, 3, 84, 95
5, 275996, Note_on_c, 3, 84, 0
5, 276000, Note_on_c, 3, 88, 95
5, 276092, Note_on_c, 3, 88, 0
5, 276096, Note_on_c, 3, 86, 95
5, 276188, Note_on_c, 3, 86, 0
5, 276192, Note_on_c, 3, 84, 95
5, 276284, Note_on_c, 3, 84, 0
5, 276288, Note_on_c, 3, 83, 95
5, 276380, Note_on_c, 3, 83, 0
5, 276384, Note_on_c, 3, 84, 95
5, 276476, Note_on_c, 3, 84, 0
5, 276480, Note_on_c, 3, 86, 95
5, 276480, Note_on_c, 3, 71, 95
5, 276572, Note_on_c, 3, 86, 0
5, 276576, Note_on_c, 3, 83, 95
5, 276668, Note_on_c, 3, 83, 0
5, 276668, Note_on_c, 3, 71, 0
5, 276672, Note_on_c, 3, 84, 95
5, 276672, Note_on_c, 3, 69, 95
5, 276764, Note_on_c, 3, 84, 0
5, 276768, Note_on_c, 3, 81, 95
5, 276860, Note_on_c, 3, 81, 0
5, 276860, Note_on_c, 3, 69, 0
5, 276864, Note_on_c, 3, 83, 95
5, 276864, Note_on_c, 3, 67, 95
5, 276956, Note_on_c, 3, 67, 0
5, 276956, Note_on_c, 3, 83, 0
5, 276960, Note_on_c, 3, 79, 95
5, 277040, Note_on_c, 3, 65, 95
5, 277052, Note_on_c, 3, 79, 0
5, 277056, Note_on_c, 3, 81, 95
5, 277132, Note_on_c, 3, 65, 0
5, 277148, Note_on_c, 3, 81, 0
5, 277152, Note_on_c, 3, 77, 95
5, 277244, Note_on_c, 3, 77, 0
5, 277248, Note_on_c, 3, 79, 95
5, 277248, Note_on_c, 3, 64, 95
5, 277340, Note_on_c, 3, 64, 0
5, 277340, Note_on_c, 3, 79, 0
5, 277344, Note_on_c, 3, 76, 95
5, 277424, Note_on_c, 3, 62, 95
5, 277436, Note_on_c, 3, 76, 0
5, 277440, Note_on_c, 3, 77, 95
5, 277516, Note_on_c, 3, 62, 0
5, 277532, Note_on_c, 3, 77, 0
5, 277536, Note_on_c, 3, 74, 95
5, 277628, Note_on_c, 3, 74, 0
5, 277632, Note_on_c, 3, 76, 95
5, 277632, Note_on_c, 3, 60, 95
5, 277724, Note_on_c, 3, 60, 0
5, 277724, Note_on_c, 3, 76, 0
5, 277728, Note_on_c, 3, 72, 95
5, 277820, Note_on_c, 3, 72, 0
5, 277824, Note_on_c, 3, 74, 95
5, 277824, Note_on_c, 3, 59, 95
5, 277916, Note_on_c, 3, 59, 0
5, 277916, Note_on_c, 3, 74, 0
5, 277920, Note_on_c, 3, 71, 95
5, 278012, Note_on_c, 3, 71, 0
5, 278400, Note_on_c, 3, 72, 77
5, 278492, Note_on_c, 3, 72, 0
5, 278496, Note_on_c, 3, 76, 77
5, 278588, Note_on_c, 3, 76, 0
5, 278592, Note_on_c, 3, 79, 77
5, 278684, Note_on_c, 3, 79, 0
5, 278688, Note_on_c, 3, 84, 77
5, 278780, Note_on_c, 3, 84, 0
5, 278784, Note_on_c, 3, 76, 77
5, 278876, Note_on_c, 3, 76, 0
5, 278880, Note_on_c, 3, 79, 77
5, 278972, Note_on_c, 3, 79, 0
5, 278976, Note_on_c, 3, 84, 77
5, 279068, Note_on_c, 3, 84, 0
5, 279072, Note_on_c, 3, 88, 77
5, 279164, Note_on_c, 3, 88, 0
5, 279168, Note_on_c, 3, 86, 77
5, 279260, Note_on_c, 3, 86, 0
5, 279264, Note_on_c, 3, 84, 77
5, 279356, Note_on_c, 3, 84, 0
5, 279360, Note_on_c, 3, 83, 77
5, 279452, Note_on_c, 3, 83, 0
5, 279456, Note_on_c, 3, 84, 77
5, 279548, Note_on_c, 3, 84, 0
5, 279552, Note_on_c, 3, 89, 77
5, 279552, Note_on_c, 3, 74, 77
5, 279644, Note_on_c, 3, 74, 0
5, 279644, Note_on_c, 3, 89, 0
5, 279648, Note_on_c, 3, 86, 77
5, 279740, Note_on_c, 3, 86, 0
5, 279744, Note_on_c, 3, 88, 77
5, 279744, Note_on_c, 3, 72, 77
5, 279836, Note_on_c, 3, 72, 0
5, 279836, Note_on_c, 3, 88, 0
5, 279840, Note_on_c, 3, 84, 77
5, 279932, Note_on_c, 3, 84, 0
5, 279936, Note_on_c, 3, 86, 77
5, 279936, Note_on_c, 3, 71, 77
5, 280028, Note_on_c, 3, 71, 0
5, 280028, Note_on_c, 3, 86, 0
5, 280032, Note_on_c, 3, 83, 77
5, 280124, Note_on_c, 3, 83, 0
5, 280128, Note_on_c, 3, 84, 77
5, 280128, Note_on_c, 3, 69, 77
5, 280220, Note_on_c, 3, 69, 0
5, 280220, Note_on_c, 3, 84, 0
5, 280224, Note_on_c, 3, 81, 77
5, 280316, Note_on_c, 3, 81, 0
5, 280320, Note_on_c, 3, 83, 77
5, 280320, Note_on_c, 3, 67, 77
5, 280412, Note_on_c, 3, 67, 0
5, 280412, Note_on_c, 3, 83, 0
5, 280416, Note_on_c, 3, 79, 77
5, 280508, Note_on_c, 3, 79, 0
5, 280512, Note_on_c, 3, 81, 77
5, 280512, Note_on_c, 3, 65, 77
5, 280604, Note_on_c, 3, 65, 0
5, 280604, Note_on_c, 3, 81, 0
5, 280608, Note_on_c, 3, 77, 77
5, 280700, Note_on_c, 3, 77, 0
5, 280704, Note_on_c, 3, 79, 77
5, 280704, Note_on_c, 3, 64, 77
5, 280796, Note_on_c, 3, 64, 0
5, 280796, Note_on_c, 3, 79, 0
5, 280800, Note_on_c, 3, 76, 77
5, 280892, Note_on_c, 3, 76, 0
5, 280896, Note_on_c, 3, 77, 77
5, 280896, Note_on_c, 3, 62, 77
5, 280988, Note_on_c, 3, 62, 0
5, 280988, Note_on_c, 3, 77, 0
5, 280992, Note_on_c, 3, 74, 77
5, 281084, Note_on_c, 3, 74, 0
5, 281088, Note_on_c, 3, 72, 95
5, 281088, Note_on_c, 3, 60, 95
5, 281180, Note_on_c, 3, 72, 0
5, 281184, Note_on_c, 3, 76, 95
5, 281276, Note_on_c, 3, 76, 0
5, 281280, Note_on_c, 3, 79, 95
5, 281372, Note_on_c, 3, 79, 0
5, 281468, Note_on_c, 3, 60, 0
5, 281472, Note_on_c, 3, 72, 95
5, 281564, Note_on_c, 3, 72, 0
5, 281664, Note_on_c, 3, 71, 95
5, 281756, Note_on_c, 3, 71, 0
5, 281760, Note_on_c, 3, 83, 95
5, 281852, Note_on_c, 3, 83, 0
5, 281856, Note_on_c, 3, 69, 95
5, 281948, Note_on_c, 3, 69, 0
5, 281952, Note_on_c, 3, 72, 95
5, 282044, Note_on_c, 3, 72, 0
5, 282048, Note_on_c, 3, 76, 95
5, 282140, Note_on_c, 3, 76, 0
5, 282144, Note_on_c, 3, 81, 95
5, 282236, Note_on_c, 3, 81, 0
5, 282240, Note_on_c, 3, 69, 95
5, 282332, Note_on_c, 3, 69, 0
5, 282336, Note_on_c, 3, 81, 95
5, 282428, Note_on_c, 3, 81, 0
5, 282432, Note_on_c, 3, 67, 95
5, 282524, Note_on_c, 3, 67, 0
5, 282528, Note_on_c, 3, 79, 95
5, 282620, Note_on_c, 3, 79, 0
5, 282624, Note_on_c, 3, 65, 95
5, 282716, Note_on_c, 3, 65, 0
5, 282720, Note_on_c, 3, 69, 95
5, 282812, Note_on_c, 3, 69, 0
5, 282816, Note_on_c, 3, 72, 95
5, 282908, Note_on_c, 3, 72, 0
5, 282912, Note_on_c, 3, 77, 95
5, 283004, Note_on_c, 3, 77, 0
5, 283008, Note_on_c, 3, 65, 95
5, 283100, Note_on_c, 3, 65, 0
5, 283104, Note_on_c, 3, 77, 95
5, 283196, Note_on_c, 3, 77, 0
5, 283200, Note_on_c, 3, 64, 95
5, 283292, Note_on_c, 3, 64, 0
5, 283296, Note_on_c, 3, 76, 95
5, 283388, Note_on_c, 3, 76, 0
5, 283392, Note_on_c, 3, 62, 95
5, 283484, Note_on_c, 3, 62, 0
5, 283488, Note_on_c, 3, 74, 95
5, 283580, Note_on_c, 3, 74, 0
5, 283584, Note_on_c, 3, 60, 95
5, 283676, Note_on_c, 3, 60, 0
5, 283680, Note_on_c, 3, 72, 95
5, 283772, Note_on_c, 3, 72, 0
5, 283776, Note_on_c, 3, 59, 95
5, 283868, Note_on_c, 3, 59, 0
5, 283872, Note_on_c, 3, 71, 95
5, 283964, Note_on_c, 3, 71, 0
5, 283968, Note_on_c, 3, 57, 95
5, 284060, Note_on_c, 3, 57, 0
5, 284064, Note_on_c, 3, 69, 95
5, 284156, Note_on_c, 3, 69, 0
5, 284160, Note_on_c, 3, 55, 95
5, 284348, Note_on_c, 3, 55, 0
5, 284352, Note_on_c, 3, 55, 95
5, 284444, Note_on_c, 3, 55, 0
5, 284448, Note_on_c, 3, 59, 95
5, 284540, Note_on_c, 3, 59, 0
5, 284544, Note_on_c, 3, 57, 95
5, 284636, Note_on_c, 3, 57, 0
5, 284640, Note_on_c, 3, 60, 95
5, 284732, Note_on_c, 3, 60, 0
5, 284736, Note_on_c, 3, 59, 95
5, 284828, Note_on_c, 3, 59, 0
5, 284832, Note_on_c, 3, 62, 95
5, 284924, Note_on_c, 3, 62, 0
5, 284928, Note_on_c, 3, 60, 95
5, 285020, Note_on_c, 3, 60, 0
5, 285024, Note_on_c, 3, 64, 95
5, 285116, Note_on_c, 3, 64, 0
5, 285120, Note_on_c, 3, 62, 95
5, 285212, Note_on_c, 3, 62, 0
5, 285216, Note_on_c, 3, 65, 95
5, 285308, Note_on_c, 3, 65, 0
5, 285312, Note_on_c, 3, 64, 95
5, 285404, Note_on_c, 3, 64, 0
5, 285408, Note_on_c, 3, 67, 95
5, 285500, Note_on_c, 3, 67, 0
5, 285504, Note_on_c, 3, 66, 95
5, 285596, Note_on_c, 3, 66, 0
5, 285600, Note_on_c, 3, 69, 95
5, 285692, Note_on_c, 3, 69, 0
5, 285696, Note_on_c, 3, 67, 95
5, 285884, Note_on_c, 3, 67, 0
5, 285888, Note_on_c, 3, 67, 95
5, 285980, Note_on_c, 3, 67, 0
5, 285984, Note_on_c, 3, 71, 95
5, 286076, Note_on_c, 3, 71, 0
5, 286080, Note_on_c, 3, 69, 95
5, 286172, Note_on_c, 3, 69, 0
5, 286176, Note_on_c, 3, 72, 95
5, 286268, Note_on_c, 3, 72, 0
5, 286272, Note_on_c, 3, 71, 95
5, 286364, Note_on_c, 3, 71, 0
5, 286368, Note_on_c, 3, 74, 95
5, 286460, Note_on_c, 3, 74, 0
5, 286464, Note_on_c, 3, 72, 95
5, 286556, Note_on_c, 3, 72, 0
5, 286560, Note_on_c, 3, 76, 95
5, 286652, Note_on_c, 3, 76, 0
5, 286656, Note_on_c, 3, 74, 95
5, 286748, Note_on_c, 3, 74, 0
5, 286752, Note_on_c, 3, 77, 95
5, 286844, Note_on_c, 3, 77, 0
5, 286848, Note_on_c, 3, 76, 95
5, 286940, Note_on_c, 3, 76, 0
5, 286944, Note_on_c, 3, 79, 95
5, 287036, Note_on_c, 3, 79, 0
5, 287040, Note_on_c, 3, 78, 95
5, 287132, Note_on_c, 3, 78, 0
5, 287136, Note_on_c, 3, 81, 95
5, 287228, Note_on_c, 3, 81, 0
5, 287232, Note_on_c, 3, 79, 95
5, 287360, Note_on_c, 3, 79, 0
5, 292224, Note_on_c, 3, 64, 95
5, 292316, Note_on_c, 3, 64, 0
5, 292320, Note_on_c, 3, 67, 95
5, 292412, Note_on_c, 3, 67, 0
5, 292416, Note_on_c, 3, 64, 95
5, 292508, Note_on_c, 3, 64, 0
5, 292512, Note_on_c, 3, 60, 95
5, 292604, Note_on_c, 3, 60, 0
5, 292992, Note_on_c, 3, 64, 95
5, 293084, Note_on_c, 3, 64, 0
5, 293088, Note_on_c, 3, 67, 95
5, 293180, Note_on_c, 3, 67, 0
5, 293184, Note_on_c, 3, 64, 95
5, 293276, Note_on_c, 3, 64, 0
5, 293280, Note_on_c, 3, 60, 95
5, 293372, Note_on_c, 3, 60, 0
5, 293760, Note_on_c, 3, 65, 95
5, 293852, Note_on_c, 3, 65, 0
5, 293856, Note_on_c, 3, 69, 95
5, 293948, Note_on_c, 3, 69, 0
5, 293952, Note_on_c, 3, 65, 95
5, 294044, Note_on_c, 3, 65, 0
5, 294048, Note_on_c, 3, 60, 95
5, 294140, Note_on_c, 3, 60, 0
5, 294528, Note_on_c, 3, 65, 95
5, 294620, Note_on_c, 3, 65, 0
5, 294624, Note_on_c, 3, 69, 95
5, 294716, Note_on_c, 3, 69, 0
5, 294720, Note_on_c, 3, 65, 95
5, 294812, Note_on_c, 3, 65, 0
5, 294816, Note_on_c, 3, 60, 95
5, 294908, Note_on_c, 3, 60, 0
5, 295008, Note_on_c, 3, 64, 95
5, 295100, Note_on_c, 3, 64, 0
5, 295104, Note_on_c, 3, 60, 95
5, 295196, Note_on_c, 3, 60, 0
5, 295200, Note_on_c, 3, 55, 95
5, 295292, Note_on_c, 3, 55, 0
5, 295392, Note_on_c, 3, 64, 95
5, 295484, Note_on_c, 3, 64, 0
5, 295488, Note_on_c, 3, 60, 95
5, 295568, Note_on_c, 3, 57, 95
5, 295580, Note_on_c, 3, 60, 0
5, 295660, Note_on_c, 3, 57, 0
5, 295776, Note_on_c, 3, 62, 95
5, 295868, Note_on_c, 3, 62, 0
5, 295872, Note_on_c, 3, 60, 95
5, 295964, Note_on_c, 3, 60, 0
5, 295968, Note_on_c, 3, 57, 95
5, 296060, Note_on_c, 3, 57, 0
5, 296160, Note_on_c, 3, 62, 95
5, 296252, Note_on_c, 3, 62, 0
5, 296256, Note_on_c, 3, 59, 95
5, 296348, Note_on_c, 3, 59, 0
5, 296352, Note_on_c, 3, 55, 95
5, 296444, Note_on_c, 3, 55, 0
5, 296544, Note_on_c, 3, 84, 95
5, 296636, Note_on_c, 3, 84, 0
5, 296640, Note_on_c, 3, 79, 95
5, 296732, Note_on_c, 3, 79, 0
5, 296736, Note_on_c, 3, 76, 95
5, 296828, Note_on_c, 3, 76, 0
5, 296832, Note_on_c, 3, 72, 95
5, 296924, Note_on_c, 3, 72, 0
5, 296928, Note_on_c, 3, 79, 95
5, 297020, Note_on_c, 3, 79, 0
5, 297024, Note_on_c, 3, 76, 95
5, 297116, Note_on_c, 3, 76, 0
5, 297120, Note_on_c, 3, 72, 95
5, 297212, Note_on_c, 3, 72, 0
5, 297216, Note_on_c, 3, 67, 95
5, 297308, Note_on_c, 3, 67, 0
5, 297312, Note_on_c, 3, 76, 95
5, 297404, Note_on_c, 3, 76, 0
5, 297408, Note_on_c, 3, 72, 95
5, 297500, Note_on_c, 3, 72, 0
5, 297504, Note_on_c, 3, 67, 95
5, 297596, Note_on_c, 3, 67, 0
5, 297600, Note_on_c, 3, 64, 95
5, 297692, Note_on_c, 3, 64, 0
5, 297696, Note_on_c, 3, 72, 95
5, 297788, Note_on_c, 3, 72, 0
5, 297792, Note_on_c, 3, 67, 95
5, 297884, Note_on_c, 3, 67, 0
5, 297888, Note_on_c, 3, 64, 95
5, 297980, Note_on_c, 3, 64, 0
5, 298368, Note_on_c, 3, 60, 95
5, 298460, Note_on_c, 3, 60, 0
5, 298464, Note_on_c, 3, 64, 95
5, 298556, Note_on_c, 3, 64, 0
5, 298560, Note_on_c, 3, 60, 95
5, 298652, Note_on_c, 3, 60, 0
5, 298656, Note_on_c, 3, 55, 95
5, 298748, Note_on_c, 3, 55, 0
5, 299136, Note_on_c, 3, 60, 95
5, 299228, Note_on_c, 3, 60, 0
5, 299232, Note_on_c, 3, 64, 95
5, 299324, Note_on_c, 3, 64, 0
5, 299328, Note_on_c, 3, 60, 95
5, 299420, Note_on_c, 3, 60, 0
5, 299424, Note_on_c, 3, 55, 95
5, 299516, Note_on_c, 3, 55, 0
5, 299904, Note_on_c, 3, 60, 95
5, 299996, Note_on_c, 3, 60, 0
5, 300000, Note_on_c, 3, 65, 95
5, 300092, Note_on_c, 3, 65, 0
5, 300096, Note_on_c, 3, 60, 95
5, 300188, Note_on_c, 3, 60, 0
5, 300192, Note_on_c, 3, 57, 95
5, 300284, Note_on_c, 3, 57, 0
5, 300672, Note_on_c, 3, 60, 95
5, 300764, Note_on_c, 3, 60, 0
5, 300768, Note_on_c, 3, 65, 95
5, 300860, Note_on_c, 3, 65, 0
5, 300864, Note_on_c, 3, 60, 95
5, 300956, Note_on_c, 3, 60, 0
5, 300960, Note_on_c, 3, 57, 95
5, 301052, Note_on_c, 3, 57, 0
5, 301152, Note_on_c, 3, 64, 95
5, 301244, Note_on_c, 3, 64, 0
5, 301248, Note_on_c, 3, 60, 95
5, 301340, Note_on_c, 3, 60, 0
5, 301344, Note_on_c, 3, 55, 95
5, 301436, Note_on_c, 3, 55, 0
5, 301536, Note_on_c, 3, 72, 95
5, 301628, Note_on_c, 3, 72, 0
5, 301632, Note_on_c, 3, 69, 95
5, 301724, Note_on_c, 3, 69, 0
5, 301728, Note_on_c, 3, 64, 95
5, 301820, Note_on_c, 3, 64, 0
5, 301920, Note_on_c, 3, 72, 95
5, 302012, Note_on_c, 3, 72, 0
5, 302016, Note_on_c, 3, 69, 95
5, 302108, Note_on_c, 3, 69, 0
5, 302112, Note_on_c, 3, 62, 95
5, 302204, Note_on_c, 3, 62, 0
5, 302304, Note_on_c, 3, 71, 95
5, 302396, Note_on_c, 3, 71, 0
5, 302400, Note_on_c, 3, 67, 95
5, 302492, Note_on_c, 3, 67, 0
5, 302496, Note_on_c, 3, 62, 95
5, 302588, Note_on_c, 3, 62, 0
5, 308832, Note_on_c, 3, 89, 95
5, 308924, Note_on_c, 3, 89, 0
5, 308928, Note_on_c, 3, 86, 95
5, 309020, Note_on_c, 3, 86, 0
5, 309024, Note_on_c, 3, 83, 95
5, 309116, Note_on_c, 3, 83, 0
5, 309120, Note_on_c, 3, 77, 95
5, 309216, Note_on_c, 3, 86, 95
5, 309308, Note_on_c, 3, 86, 0
5, 309308, Note_on_c, 3, 77, 0
5, 309312, Note_on_c, 3, 83, 95
5, 309404, Note_on_c, 3, 83, 0
5, 309408, Note_on_c, 3, 79, 95
5, 309500, Note_on_c, 3, 79, 0
5, 309504, Note_on_c, 3, 74, 95
5, 309600, Note_on_c, 3, 83, 95
5, 309692, Note_on_c, 3, 83, 0
5, 309692, Note_on_c, 3, 74, 0
5, 309696, Note_on_c, 3, 79, 95
5, 309788, Note_on_c, 3, 79, 0
5, 309792, Note_on_c, 3, 77, 95
5, 309884, Note_on_c, 3, 77, 0
5, 309888, Note_on_c, 3, 71, 95
5, 309984, Note_on_c, 3, 79, 95
5, 310076, Note_on_c, 3, 79, 0
5, 310076, Note_on_c, 3, 71, 0
5, 310080, Note_on_c, 3, 77, 95
5, 310172, Note_on_c, 3, 77, 0
5, 310176, Note_on_c, 3, 74, 95
5, 310268, Note_on_c, 3, 74, 0
5, 310272, Note_on_c, 3, 67, 95
5, 310368, Note_on_c, 3, 77, 95
5, 310460, Note_on_c, 3, 77, 0
5, 310460, Note_on_c, 3, 67, 0
5, 310464, Note_on_c, 3, 74, 95
5, 310556, Note_on_c, 3, 74, 0
5, 310560, Note_on_c, 3, 71, 95
5, 310652, Note_on_c, 3, 71, 0
5, 310656, Note_on_c, 3, 65, 95
5, 310752, Note_on_c, 3, 74, 95
5, 310844, Note_on_c, 3, 74, 0
5, 310844, Note_on_c, 3, 65, 0
5, 310848, Note_on_c, 3, 71, 95
5, 310940, Note_on_c, 3, 71, 0
5, 310944, Note_on_c, 3, 67, 95
5, 311036, Note_on_c, 3, 67, 0
5, 311040, Note_on_c, 3, 62, 95
5, 311136, Note_on_c, 3, 71, 95
5, 311228, Note_on_c, 3, 71, 0
5, 311228, Note_on_c, 3, 62, 0
5, 311232, Note_on_c, 3, 67, 95
5, 311324, Note_on_c, 3, 67, 0
5, 311328, Note_on_c, 3, 65, 95
5, 311420, Note_on_c, 3, 65, 0
5, 311424, Note_on_c, 3, 59, 95
5, 311520, Note_on_c, 3, 67, 95
5, 311612, Note_on_c, 3, 67, 0
5, 311612, Note_on_c, 3, 59, 0
5, 311616, Note_on_c, 3, 65, 95
5, 311708, Note_on_c, 3, 65, 0
5, 311712, Note_on_c, 3, 62, 95
5, 311804, Note_on_c, 3, 62, 0
5, 311904, Note_on_c, 3, 55, 95
5, 311996, Note_on_c, 3, 55, 0
5, 312000, Note_on_c, 3, 60, 95
5, 312092, Note_on_c, 3, 60, 0
5, 312096, Note_on_c, 3, 55, 95
5, 312188, Note_on_c, 3, 55, 0
5, 312192, Note_on_c, 3, 64, 95
5, 312284, Note_on_c, 3, 64, 0
5, 312288, Note_on_c, 3, 60, 95
5, 312380, Note_on_c, 3, 60, 0
5, 312384, Note_on_c, 3, 67, 95
5, 312476, Note_on_c, 3, 67, 0
5, 312480, Note_on_c, 3, 64, 95
5, 312572, Note_on_c, 3, 64, 0
5, 312576, Note_on_c, 3, 72, 95
5, 312672, Note_on_c, 3, 60, 95
5, 312764, Note_on_c, 3, 60, 0
5, 312764, Note_on_c, 3, 72, 0
5, 312768, Note_on_c, 3, 64, 95
5, 312860, Note_on_c, 3, 64, 0
5, 312864, Note_on_c, 3, 60, 95
5, 312956, Note_on_c, 3, 60, 0
5, 312960, Note_on_c, 3, 67, 95
5, 313052, Note_on_c, 3, 67, 0
5, 313056, Note_on_c, 3, 64, 95
5, 313148, Note_on_c, 3, 64, 0
5, 313152, Note_on_c, 3, 72, 95
5, 313244, Note_on_c, 3, 72, 0
5, 313248, Note_on_c, 3, 67, 95
5, 313340, Note_on_c, 3, 67, 0
5, 313344, Note_on_c, 3, 76, 95
5, 313440, Note_on_c, 3, 64, 95
5, 313532, Note_on_c, 3, 64, 0
5, 313532, Note_on_c, 3, 76, 0
5, 313536, Note_on_c, 3, 67, 95
5, 313628, Note_on_c, 3, 67, 0
5, 313632, Note_on_c, 3, 64, 95
5, 313724, Note_on_c, 3, 64, 0
5, 313728, Note_on_c, 3, 72, 95
5, 313728, Note_on_c, 3, 64, 95
5, 313728, Note_on_c, 3, 60, 95
5, 313820, Note_on_c, 3, 64, 0
5, 313820, Note_on_c, 3, 72, 0
5, 313824, Note_on_c, 3, 67, 95
5, 313824, Note_on_c, 3, 62, 95
5, 313904, Note_on_c, 3, 64, 95
5, 313916, Note_on_c, 3, 62, 0
5, 313916, Note_on_c, 3, 67, 0
5, 313920, Note_on_c, 3, 76, 95
5, 313996, Note_on_c, 3, 64, 0
5, 314000, Note_on_c, 3, 65, 95
5, 314012, Note_on_c, 3, 76, 0
5, 314016, Note_on_c, 3, 72, 95
5, 314092, Note_on_c, 3, 65, 0
5, 314108, Note_on_c, 3, 72, 0
5, 314108, Note_on_c, 3, 60, 0
5, 314112, Note_on_c, 3, 79, 95
5, 314112, Note_on_c, 3, 67, 95
5, 314112, Note_on_c, 3, 64, 95
5, 314208, Note_on_c, 3, 67, 95
5, 314300, Note_on_c, 3, 67, 0
5, 314300, Note_on_c, 3, 79, 0
5, 314304, Note_on_c, 3, 72, 95
5, 314396, Note_on_c, 3, 72, 0
5, 314400, Note_on_c, 3, 67, 95
5, 314492, Note_on_c, 3, 67, 0
5, 314492, Note_on_c, 3, 64, 0
5, 314492, Note_on_c, 3, 67, 0
5, 314496, Note_on_c, 3, 76, 95
5, 314588, Note_on_c, 3, 76, 0
5, 314592, Note_on_c, 3, 72, 95
5, 314684, Note_on_c, 3, 72, 0
5, 314688, Note_on_c, 3, 79, 95
5, 314780, Note_on_c, 3, 79, 0
5, 314784, Note_on_c, 3, 76, 95
5, 314876, Note_on_c, 3, 76, 0
5, 314976, Note_on_c, 3, 89, 95
5, 315068, Note_on_c, 3, 89, 0
5, 315072, Note_on_c, 3, 86, 95
5, 315164, Note_on_c, 3, 86, 0
5, 315168, Note_on_c, 3, 83, 95
5, 315260, Note_on_c, 3, 83, 0
5, 315264, Note_on_c, 3, 77, 95
5, 315360, Note_on_c, 3, 86, 95
5, 315452, Note_on_c, 3, 86, 0
5, 315452, Note_on_c, 3, 77, 0
5, 315456, Note_on_c, 3, 83, 95
5, 315548, Note_on_c, 3, 83, 0
5, 315552, Note_on_c, 3, 79, 95
5, 315644, Note_on_c, 3, 79, 0
5, 315648, Note_on_c, 3, 74, 95
5, 315744, Note_on_c, 3, 83, 95
5, 315836, Note_on_c, 3, 83, 0
5, 315836, Note_on_c, 3, 74, 0
5, 315840, Note_on_c, 3, 79, 95
5, 315932, Note_on_c, 3, 79, 0
5, 315936, Note_on_c, 3, 77, 95
5, 316028, Note_on_c, 3, 77, 0
5, 316032, Note_on_c, 3, 71, 95
5, 316128, Note_on_c, 3, 79, 95
5, 316220, Note_on_c, 3, 79, 0
5, 316220, Note_on_c, 3, 71, 0
5, 316224, Note_on_c, 3, 77, 95
5, 316316, Note_on_c, 3, 77, 0
5, 316320, Note_on_c, 3, 74, 95
5, 316412, Note_on_c, 3, 74, 0
5, 316416, Note_on_c, 3, 67, 95
5, 316512, Note_on_c, 3, 77, 95
5, 316604, Note_on_c, 3, 77, 0
5, 316604, Note_on_c, 3, 67, 0
5, 316608, Note_on_c, 3, 74, 95
5, 316700, Note_on_c, 3, 74, 0
5, 316704, Note_on_c, 3, 71, 95
5, 316796, Note_on_c, 3, 71, 0
5, 316800, Note_on_c, 3, 65, 95
5, 316896, Note_on_c, 3, 74, 95
5, 316988, Note_on_c, 3, 74, 0
5, 316988, Note_on_c, 3, 65, 0
5, 316992, Note_on_c, 3, 71, 95
5, 317084, Note_on_c, 3, 71, 0
5, 317088, Note_on_c, 3, 67, 95
5, 317180, Note_on_c, 3, 67, 0
5, 317184, Note_on_c, 3, 62, 95
5, 317280, Note_on_c, 3, 71, 95
5, 317372, Note_on_c, 3, 71, 0
5, 317372, Note_on_c, 3, 62, 0
5, 317376, Note_on_c, 3, 67, 95
5, 317468, Note_on_c, 3, 67, 0
5, 317472, Note_on_c, 3, 65, 95
5, 317564, Note_on_c, 3, 65, 0
5, 317568, Note_on_c, 3, 59, 95
5, 317664, Note_on_c, 3, 67, 95
5, 317756, Note_on_c, 3, 67, 0
5, 317756, Note_on_c, 3, 59, 0
5, 317760, Note_on_c, 3, 65, 95
5, 317852, Note_on_c, 3, 65, 0
5, 317856, Note_on_c, 3, 62, 95
5, 317948, Note_on_c, 3, 62, 0
5, 318048, Note_on_c, 3, 55, 95
5, 318140, Note_on_c, 3, 55, 0
5, 318144, Note_on_c, 3, 60, 95
5, 318236, Note_on_c, 3, 60, 0
5, 318240, Note_on_c, 3, 55, 95
5, 318332, Note_on_c, 3, 55, 0
5, 318336, Note_on_c, 3, 64, 95
5, 318428, Note_on_c, 3, 64, 0
5, 318432, Note_on_c, 3, 60, 95
5, 318524, Note_on_c, 3, 60, 0
5, 318528, Note_on_c, 3, 67, 95
5, 318620, Note_on_c, 3, 67, 0
5, 318624, Note_on_c, 3, 64, 95
5, 318716, Note_on_c, 3, 64, 0
5, 318720, Note_on_c, 3, 72, 95
5, 318816, Note_on_c, 3, 60, 95
5, 318908, Note_on_c, 3, 60, 0
5, 318908, Note_on_c, 3, 72, 0
5, 318912, Note_on_c, 3, 64, 95
5, 319004, Note_on_c, 3, 64, 0
5, 319008, Note_on_c, 3, 60, 95
5, 319100, Note_on_c, 3, 60, 0
5, 319104, Note_on_c, 3, 67, 95
5, 319196, Note_on_c, 3, 67, 0
5, 319200, Note_on_c, 3, 64, 95
5, 319292, Note_on_c, 3, 64, 0
5, 319296, Note_on_c, 3, 72, 95
5, 319388, Note_on_c, 3, 72, 0
5, 319392, Note_on_c, 3, 67, 95
5, 319484, Note_on_c, 3, 67, 0
5, 319488, Note_on_c, 3, 76, 95
5, 319584, Note_on_c, 3, 64, 95
5, 319676, Note_on_c, 3, 64, 0
5, 319676, Note_on_c, 3, 76, 0
5, 319680, Note_on_c, 3, 67, 95
5, 319772, Note_on_c, 3, 67, 0
5, 319776, Note_on_c, 3, 64, 95
5, 319856, Note_on_c, 3, 64, 95
5, 319856, Note_on_c, 3, 60, 95
5, 319868, Note_on_c, 3, 64, 0
5, 319872, Note_on_c, 3, 72, 95
5, 319948, Note_on_c, 3, 64, 0
5, 319964, Note_on_c, 3, 72, 0
5, 319968, Note_on_c, 3, 67, 95
5, 319968, Note_on_c, 3, 62, 95
5, 320060, Note_on_c, 3, 62, 0
5, 320060, Note_on_c, 3, 67, 0
5, 320064, Note_on_c, 3, 76, 95
5, 320064, Note_on_c, 3, 64, 95
5, 320156, Note_on_c, 3, 64, 0
5, 320156, Note_on_c, 3, 76, 0
5, 320160, Note_on_c, 3, 72, 95
5, 320160, Note_on_c, 3, 65, 95
5, 320236, Note_on_c, 3, 60, 0
5, 320252, Note_on_c, 3, 65, 0
5, 320252, Note_on_c, 3, 72, 0
5, 320256, Note_on_c, 3, 79, 95
5, 320256, Note_on_c, 3, 67, 95
5, 320256, Note_on_c, 3, 64, 95
5, 320352, Note_on_c, 3, 67, 95
5, 320444, Note_on_c, 3, 67, 0
5, 320444, Note_on_c, 3, 79, 0
5, 320448, Note_on_c, 3, 72, 95
5, 320540, Note_on_c, 3, 72, 0
5, 320544, Note_on_c, 3, 67, 95
5, 320636, Note_on_c, 3, 67, 0
5, 320636, Note_on_c, 3, 64, 0
5, 320636, Note_on_c, 3, 67, 0
5, 320640, Note_on_c, 3, 76, 95
5, 320732, Note_on_c, 3, 76, 0
5, 320736, Note_on_c, 3, 72, 95
5, 320828, Note_on_c, 3, 72, 0
5, 320832, Note_on_c, 3, 79, 95
5, 320924, Note_on_c, 3, 79, 0
5, 320928, Note_on_c, 3, 76, 95
5, 321020, Note_on_c, 3, 76, 0
5, 321024, Note_on_c, 3, 74, 95
5, 321024, Note_on_c, 3, 71, 95
5, 321088, Note_on_c, 3, 71, 0
5, 321088, Note_on_c, 3, 74, 0
5, 339456, Note_on_c, 3, 69, 77
5, 339548, Note_on_c, 3, 69, 0
5, 339552, Note_on_c, 3, 72, 77
5, 339644, Note_on_c, 3, 72, 0
5, 339648, Note_on_c, 3, 77, 77
5, 339740, Note_on_c, 3, 77, 0
5, 339744, Note_on_c, 3, 72, 77
5, 339836, Note_on_c, 3, 72, 0
5, 339840, Note_on_c, 3, 81, 77
5, 339932, Note_on_c, 3, 81, 0
5, 339936, Note_on_c, 3, 77, 77
5, 340028, Note_on_c, 3, 77, 0
5, 340032, Note_on_c, 3, 72, 77
5, 340124, Note_on_c, 3, 72, 0
5, 340128, Note_on_c, 3, 69, 77
5, 340220, Note_on_c, 3, 69, 0
5, 340224, Note_on_c, 3, 67, 77
5, 340316, Note_on_c, 3, 67, 0
5, 340320, Note_on_c, 3, 72, 77
5, 340412, Note_on_c, 3, 72, 0
5, 340416, Note_on_c, 3, 76, 77
5, 340508, Note_on_c, 3, 76, 0
5, 340512, Note_on_c, 3, 72, 77
5, 340604, Note_on_c, 3, 72, 0
5, 340608, Note_on_c, 3, 79, 77
5, 340700, Note_on_c, 3, 79, 0
5, 340704, Note_on_c, 3, 76, 77
5, 340796, Note_on_c, 3, 76, 0
5, 340800, Note_on_c, 3, 72, 77
5, 340892, Note_on_c, 3, 72, 0
5, 340896, Note_on_c, 3, 67, 77
5, 340988, Note_on_c, 3, 67, 0
5, 340992, Note_on_c, 3, 69, 77
5, 341084, Note_on_c, 3, 69, 0
5, 341088, Note_on_c, 3, 72, 77
5, 341180, Note_on_c, 3, 72, 0
5, 341184, Note_on_c, 3, 77, 77
5, 341276, Note_on_c, 3, 77, 0
5, 341280, Note_on_c, 3, 72, 77
5, 341372, Note_on_c, 3, 72, 0
5, 341376, Note_on_c, 3, 81, 77
5, 341468, Note_on_c, 3, 81, 0
5, 341472, Note_on_c, 3, 77, 77
5, 341564, Note_on_c, 3, 77, 0
5, 341568, Note_on_c, 3, 72, 77
5, 341660, Note_on_c, 3, 72, 0
5, 341664, Note_on_c, 3, 69, 77
5, 341756, Note_on_c, 3, 69, 0
5, 341760, Note_on_c, 3, 67, 77
5, 341852, Note_on_c, 3, 67, 0
5, 341856, Note_on_c, 3, 72, 77
5, 341948, Note_on_c, 3, 72, 0
5, 341952, Note_on_c, 3, 76, 77
5, 342044, Note_on_c, 3, 76, 0
5, 342048, Note_on_c, 3, 72, 77
5, 342140, Note_on_c, 3, 72, 0
5, 342144, Note_on_c, 3, 79, 77
5, 342236, Note_on_c, 3, 79, 0
5, 342240, Note_on_c, 3, 76, 77
5, 342332, Note_on_c, 3, 76, 0
5, 342336, Note_on_c, 3, 72, 77
5, 342428, Note_on_c, 3, 72, 0
5, 342432, Note_on_c, 3, 67, 77
5, 342524, Note_on_c, 3, 67, 0
5, 342528, Note_on_c, 3, 65, 77
5, 342716, Note_on_c, 3, 65, 0
5, 342720, Note_on_c, 3, 77, 77
5, 342812, Note_on_c, 3, 77, 0
5, 342816, Note_on_c, 3, 79, 77
5, 342908, Note_on_c, 3, 79, 0
5, 342912, Note_on_c, 3, 81, 77
5, 343004, Note_on_c, 3, 81, 0
5, 343008, Note_on_c, 3, 79, 77
5, 343100, Note_on_c, 3, 79, 0
5, 343104, Note_on_c, 3, 77, 77
5, 343196, Note_on_c, 3, 77, 0
5, 343200, Note_on_c, 3, 76, 77
5, 343292, Note_on_c, 3, 76, 0
5, 343296, Note_on_c, 3, 74, 77
5, 343388, Note_on_c, 3, 74, 0
5, 343392, Note_on_c, 3, 76, 77
5, 343484, Note_on_c, 3, 76, 0
5, 343488, Note_on_c, 3, 74, 77
5, 343580, Note_on_c, 3, 74, 0
5, 343584, Note_on_c, 3, 72, 77
5, 343676, Note_on_c, 3, 72, 0
5, 343680, Note_on_c, 3, 71, 77
5, 343772, Note_on_c, 3, 71, 0
5, 343776, Note_on_c, 3, 69, 77
5, 343868, Note_on_c, 3, 69, 0
5, 343872, Note_on_c, 3, 67, 77
5, 343964, Note_on_c, 3, 67, 0
5, 343968, Note_on_c, 3, 65, 77
5, 344060, Note_on_c, 3, 65, 0
5, 344064, Note_on_c, 3, 64, 77
5, 344252, Note_on_c, 3, 64, 0
5, 344256, Note_on_c, 3, 76, 77
5, 344348, Note_on_c, 3, 76, 0
5, 344352, Note_on_c, 3, 77, 77
5, 344444, Note_on_c, 3, 77, 0
5, 344448, Note_on_c, 3, 79, 77
5, 344540, Note_on_c, 3, 79, 0
5, 344544, Note_on_c, 3, 77, 77
5, 344636, Note_on_c, 3, 77, 0
5, 344640, Note_on_c, 3, 76, 77
5, 344732, Note_on_c, 3, 76, 0
5, 344736, Note_on_c, 3, 74, 77
5, 344828, Note_on_c, 3, 74, 0
5, 344832, Note_on_c, 3, 72, 77
5, 344924, Note_on_c, 3, 72, 0
5, 344928, Note_on_c, 3, 74, 77
5, 345020, Note_on_c, 3, 74, 0
5, 345024, Note_on_c, 3, 72, 77
5, 345116, Note_on_c, 3, 72, 0
5, 345120, Note_on_c, 3, 71, 77
5, 345212, Note_on_c, 3, 71, 0
5, 345216, Note_on_c, 3, 69, 77
5, 345308, Note_on_c, 3, 69, 0
5, 345312, Note_on_c, 3, 67, 77
5, 345404, Note_on_c, 3, 67, 0
5, 345408, Note_on_c, 3, 65, 77
5, 345500, Note_on_c, 3, 65, 0
5, 345504, Note_on_c, 3, 64, 77
5, 345596, Note_on_c, 3, 64, 0
5, 345600, Note_on_c, 3, 69, 77
5, 345692, Note_on_c, 3, 69, 0
5, 345792, Note_on_c, 3, 76, 77
5, 345832, Note_on_c, 3, 76, 0
5, 345840, Note_on_c, 3, 74, 77
5, 345880, Note_on_c, 3, 74, 0
5, 345888, Note_on_c, 3, 73, 77
5, 345984, Note_on_c, 3, 74, 77
5, 346076, Note_on_c, 3, 74, 0
5, 346076, Note_on_c, 3, 73, 0
5, 346176, Note_on_c, 3, 77, 77
5, 346268, Note_on_c, 3, 77, 0
5, 346368, Note_on_c, 3, 76, 77
5, 346460, Note_on_c, 3, 76, 0
5, 346560, Note_on_c, 3, 74, 77
5, 346652, Note_on_c, 3, 74, 0
5, 346752, Note_on_c, 3, 72, 77
5, 346844, Note_on_c, 3, 72, 0
5, 346944, Note_on_c, 3, 71, 77
5, 347036, Note_on_c, 3, 71, 0
5, 347136, Note_on_c, 3, 72, 77
5, 347228, Note_on_c, 3, 72, 0
5, 347232, Note_on_c, 3, 76, 77
5, 347324, Note_on_c, 3, 76, 0
5, 347328, Note_on_c, 3, 74, 77
5, 347420, Note_on_c, 3, 74, 0
5, 347424, Note_on_c, 3, 77, 77
5, 347516, Note_on_c, 3, 77, 0
5, 347520, Note_on_c, 3, 76, 77
5, 347612, Note_on_c, 3, 76, 0
5, 347616, Note_on_c, 3, 79, 77
5, 347708, Note_on_c, 3, 79, 0
5, 347712, Note_on_c, 3, 77, 77
5, 347804, Note_on_c, 3, 77, 0
5, 347808, Note_on_c, 3, 81, 77
5, 347900, Note_on_c, 3, 81, 0
5, 347904, Note_on_c, 3, 79, 75
5, 347996, Note_on_c, 3, 79, 0
5, 348096, Note_on_c, 3, 81, 71
5, 348188, Note_on_c, 3, 81, 0
5, 348288, Note_on_c, 3, 83, 67
5, 348380, Note_on_c, 3, 83, 0
5, 348480, Note_on_c, 3, 84, 63
5, 348572, Note_on_c, 3, 84, 0
5, 348672, Note_on_c, 3, 77, 60
5, 348764, Note_on_c, 3, 77, 0
5, 348768, Note_on_c, 3, 79, 60
5, 348860, Note_on_c, 3, 79, 0
5, 348864, Note_on_c, 3, 77, 60
5, 348956, Note_on_c, 3, 77, 0
5, 348960, Note_on_c, 3, 79, 60
5, 349052, Note_on_c, 3, 79, 0
5, 349056, Note_on_c, 3, 77, 60
5, 349436, Note_on_c, 3, 77, 0
5, 349440, Note_on_c, 3, 89, 60
5, 349532, Note_on_c, 3, 89, 0
5, 349536, Note_on_c, 3, 88, 60
5, 349628, Note_on_c, 3, 88, 0
5, 349632, Note_on_c, 3, 89, 60
5, 349724, Note_on_c, 3, 89, 0
5, 349728, Note_on_c, 3, 88, 60
5, 349820, Note_on_c, 3, 88, 0
5, 349824, Note_on_c, 3, 89, 60
5, 350204, Note_on_c, 3, 89, 0
5, 350208, Note_on_c, 3, 79, 60
5, 350300, Note_on_c, 3, 79, 0
5, 350304, Note_on_c, 3, 78, 60
5, 350396, Note_on_c, 3, 78, 0
5, 350400, Note_on_c, 3, 79, 60
5, 350492, Note_on_c, 3, 79, 0
5, 350496, Note_on_c, 3, 78, 60
5, 350576, Note_on_c, 3, 79, 60
5, 350588, Note_on_c, 3, 78, 0
5, 350956, Note_on_c, 3, 79, 0
5, 350976, Note_on_c, 3, 88, 60
5, 351068, Note_on_c, 3, 88, 0
5, 351072, Note_on_c, 3, 87, 60
5, 351164, Note_on_c, 3, 87, 0
5, 351168, Note_on_c, 3, 88, 60
5, 351260, Note_on_c, 3, 88, 0
5, 351264, Note_on_c, 3, 87, 60
5, 351356, Note_on_c, 3, 87, 0
5, 351360, Note_on_c, 3, 88, 60
5, 351740, Note_on_c, 3, 88, 0
5, 352128, Note_on_c, 3, 69, 69
5, 352220, Note_on_c, 3, 69, 0
5, 352224, Note_on_c, 3, 74, 71
5, 352316, Note_on_c, 3, 74, 0
5, 352320, Note_on_c, 3, 77, 74
5, 352412, Note_on_c, 3, 77, 0
5, 352416, Note_on_c, 3, 81, 76
5, 352496, Note_on_c, 3, 67, 78
5, 352508, Note_on_c, 3, 81, 0
5, 352512, Note_on_c, 3, 79, 78
5, 352604, Note_on_c, 3, 79, 0
5, 352608, Note_on_c, 3, 76, 80
5, 352684, Note_on_c, 3, 67, 0
5, 352700, Note_on_c, 3, 76, 0
5, 352704, Note_on_c, 3, 77, 82
5, 352796, Note_on_c, 3, 77, 0
5, 352800, Note_on_c, 3, 74, 85
5, 352892, Note_on_c, 3, 74, 0
5, 352896, Note_on_c, 3, 76, 87
5, 352988, Note_on_c, 3, 76, 0
5, 352992, Note_on_c, 3, 72, 89
5, 353084, Note_on_c, 3, 72, 0
5, 353088, Note_on_c, 3, 74, 91
5, 353180, Note_on_c, 3, 74, 0
5, 353184, Note_on_c, 3, 71, 93
5, 353276, Note_on_c, 3, 71, 0
5, 353280, Note_on_c, 3, 72, 95
5, 353372, Note_on_c, 3, 72, 0
5, 353376, Note_on_c, 3, 67, 91
5, 353468, Note_on_c, 3, 67, 0
5, 353472, Note_on_c, 3, 69, 86
5, 353564, Note_on_c, 3, 69, 0
5, 353568, Note_on_c, 3, 65, 82
5, 353660, Note_on_c, 3, 65, 0
5, 353664, Note_on_c, 3, 67, 77
5, 353756, Note_on_c, 3, 67, 0
5, 353760, Note_on_c, 3, 64, 73
5, 353852, Note_on_c, 3, 64, 0
5, 353856, Note_on_c, 3, 65, 66
5, 353948, Note_on_c, 3, 65, 0
5, 353952, Note_on_c, 3, 62, 60
5, 354044, Note_on_c, 3, 62, 0
5, 354048, Note_on_c, 3, 60, 60
5, 354236, Note_on_c, 3, 60, 0
5, 359424, Note_on_c, 3, 60, 60
5, 359612, Note_on_c, 3, 60, 0
5, 360192, Note_on_c, 3, 77, 60
5, 360284, Note_on_c, 3, 77, 0
5, 360288, Note_on_c, 3, 76, 60
5, 360380, Note_on_c, 3, 76, 0
5, 360384, Note_on_c, 3, 74, 60
5, 360476, Note_on_c, 3, 74, 0
5, 360480, Note_on_c, 3, 76, 60
5, 360572, Note_on_c, 3, 76, 0
5, 360576, Note_on_c, 3, 79, 60
5, 360668, Note_on_c, 3, 79, 0
5, 360672, Note_on_c, 3, 77, 60
5, 360764, Note_on_c, 3, 77, 0
5, 360768, Note_on_c, 3, 76, 60
5, 360860, Note_on_c, 3, 76, 0
5, 360864, Note_on_c, 3, 77, 60
5, 360956, Note_on_c, 3, 77, 0
5, 360960, Note_on_c, 3, 79, 60
5, 361148, Note_on_c, 3, 79, 0
5, 361152, Note_on_c, 3, 84, 60
5, 361340, Note_on_c, 3, 84, 0
5, 361344, Note_on_c, 3, 79, 60
5, 361532, Note_on_c, 3, 79, 0
5, 361536, Note_on_c, 3, 79, 60
5, 361724, Note_on_c, 3, 79, 0
5, 361728, Note_on_c, 3, 77, 60
5, 361820, Note_on_c, 3, 77, 0
5, 361824, Note_on_c, 3, 76, 60
5, 361916, Note_on_c, 3, 76, 0
5, 361920, Note_on_c, 3, 74, 60
5, 362012, Note_on_c, 3, 74, 0
5, 362016, Note_on_c, 3, 76, 60
5, 362108, Note_on_c, 3, 76, 0
5, 362112, Note_on_c, 3, 79, 60
5, 362204, Note_on_c, 3, 79, 0
5, 362208, Note_on_c, 3, 77, 60
5, 362300, Note_on_c, 3, 77, 0
5, 362304, Note_on_c, 3, 76, 60
5, 362396, Note_on_c, 3, 76, 0
5, 362400, Note_on_c, 3, 77, 60
5, 362492, Note_on_c, 3, 77, 0
5, 362496, Note_on_c, 3, 79, 60
5, 362588, Note_on_c, 3, 79, 0
5, 362592, Note_on_c, 3, 84, 60
5, 362684, Note_on_c, 3, 84, 0
5, 362688, Note_on_c, 3, 88, 60
5, 362780, Note_on_c, 3, 88, 0
5, 362784, Note_on_c, 3, 84, 60
5, 362876, Note_on_c, 3, 84, 0
5, 362880, Note_on_c, 3, 79, 60
5, 363068, Note_on_c, 3, 79, 0
5, 363072, Note_on_c, 3, 79, 60
5, 363260, Note_on_c, 3, 79, 0
5, 363264, Note_on_c, 3, 77, 60
5, 363356, Note_on_c, 3, 77, 0
5, 363360, Note_on_c, 3, 76, 60
5, 363452, Note_on_c, 3, 76, 0
5, 363456, Note_on_c, 3, 74, 60
5, 363548, Note_on_c, 3, 74, 0
5, 363552, Note_on_c, 3, 76, 60
5, 363644, Note_on_c, 3, 76, 0
5, 363648, Note_on_c, 3, 79, 60
5, 363740, Note_on_c, 3, 79, 0
5, 363744, Note_on_c, 3, 77, 60
5, 363836, Note_on_c, 3, 77, 0
5, 363840, Note_on_c, 3, 76, 60
5, 363932, Note_on_c, 3, 76, 0
5, 363936, Note_on_c, 3, 77, 60
5, 364028, Note_on_c, 3, 77, 0
5, 364032, Note_on_c, 3, 79, 60
5, 364124, Note_on_c, 3, 79, 0
5, 364128, Note_on_c, 3, 76, 60
5, 364220, Note_on_c, 3, 76, 0
5, 364224, Note_on_c, 3, 79, 60
5, 364316, Note_on_c, 3, 79, 0
5, 364320, Note_on_c, 3, 76, 60
5, 364412, Note_on_c, 3, 76, 0
5, 364416, Note_on_c, 3, 77, 60
5, 364508, Note_on_c, 3, 77, 0
5, 364512, Note_on_c, 3, 74, 60
5, 364604, Note_on_c, 3, 74, 0
5, 364608, Note_on_c, 3, 77, 60
5, 364700, Note_on_c, 3, 77, 0
5, 364704, Note_on_c, 3, 74, 60
5, 364796, Note_on_c, 3, 74, 0
5, 364800, Note_on_c, 3, 76, 60
5, 364892, Note_on_c, 3, 76, 0
5, 364896, Note_on_c, 3, 72, 60
5, 364988, Note_on_c, 3, 72, 0
5, 364992, Note_on_c, 3, 76, 60
5, 365084, Note_on_c, 3, 76, 0
5, 365088, Note_on_c, 3, 72, 60
5, 365180, Note_on_c, 3, 72, 0
5, 365184, Note_on_c, 3, 74, 60
5, 365276, Note_on_c, 3, 74, 0
5, 365280, Note_on_c, 3, 71, 60
5, 365372, Note_on_c, 3, 71, 0
5, 365376, Note_on_c, 3, 74, 60
5, 365468, Note_on_c, 3, 74, 0
5, 365472, Note_on_c, 3, 71, 60
5, 365564, Note_on_c, 3, 71, 0
5, 365568, Note_on_c, 3, 67, 77
5, 365660, Note_on_c, 3, 67, 0
5, 365664, Note_on_c, 3, 72, 77
5, 365756, Note_on_c, 3, 72, 0
5, 365760, Note_on_c, 3, 76, 77
5, 365852, Note_on_c, 3, 76, 0
5, 365856, Note_on_c, 3, 79, 77
5, 365948, Note_on_c, 3, 79, 0
5, 365952, Note_on_c, 3, 77, 77
5, 366044, Note_on_c, 3, 77, 0
5, 366048, Note_on_c, 3, 76, 77
5, 366140, Note_on_c, 3, 76, 0
5, 366144, Note_on_c, 3, 74, 77
5, 366236, Note_on_c, 3, 74, 0
5, 366240, Note_on_c, 3, 72, 77
5, 366332, Note_on_c, 3, 72, 0
5, 366336, Note_on_c, 3, 69, 77
5, 366428, Note_on_c, 3, 69, 0
5, 366432, Note_on_c, 3, 74, 77
5, 366524, Note_on_c, 3, 74, 0
5, 366528, Note_on_c, 3, 77, 77
5, 366620, Note_on_c, 3, 77, 0
5, 366624, Note_on_c, 3, 81, 77
5, 366716, Note_on_c, 3, 81, 0
5, 366720, Note_on_c, 3, 79, 77
5, 366812, Note_on_c, 3, 79, 0
5, 366816, Note_on_c, 3, 77, 77
5, 366908, Note_on_c, 3, 77, 0
5, 366912, Note_on_c, 3, 76, 77
5, 367004, Note_on_c, 3, 76, 0
5, 367008, Note_on_c, 3, 74, 77
5, 367100, Note_on_c, 3, 74, 0
5, 367200, Note_on_c, 3, 76, 77
5, 367292, Note_on_c, 3, 76, 0
5, 367296, Note_on_c, 3, 79, 77
5, 367388, Note_on_c, 3, 79, 0
5, 367392, Note_on_c, 3, 76, 77
5, 367484, Note_on_c, 3, 76, 0
5, 367584, Note_on_c, 3, 72, 77
5, 367676, Note_on_c, 3, 72, 0
5, 367680, Note_on_c, 3, 76, 77
5, 367772, Note_on_c, 3, 76, 0
5, 367776, Note_on_c, 3, 72, 77
5, 367868, Note_on_c, 3, 72, 0
5, 367968, Note_on_c, 3, 74, 77
5, 368048, Note_on_c, 3, 77, 77
5, 368060, Note_on_c, 3, 74, 0
5, 368140, Note_on_c, 3, 77, 0
5, 368160, Note_on_c, 3, 74, 77
5, 368252, Note_on_c, 3, 74, 0
5, 368352, Note_on_c, 3, 71, 77
5, 368444, Note_on_c, 3, 71, 0
5, 368448, Note_on_c, 3, 74, 77
5, 368540, Note_on_c, 3, 74, 0
5, 368544, Note_on_c, 3, 71, 77
5, 368636, Note_on_c, 3, 71, 0
5, 368640, Note_on_c, 3, 67, 77
5, 368652, Note_on_c, 3, 72, 77
5, 368668, Note_on_c, 3, 76, 77
5, 368684, Note_on_c, 3, 79, 77
5, 369020, Note_on_c, 3, 67, 0
5, 369032, Note_on_c, 3, 72, 0
5, 369048, Note_on_c, 3, 76, 0
5, 369064, Note_on_c, 3, 79, 0
5, 369408, Note_on_c, 3, 69, 77
5, 369420, Note_on_c, 3, 72, 77
5, 369436, Note_on_c, 3, 77, 77
5, 369452, Note_on_c, 3, 81, 77
5, 369788, Note_on_c, 3, 69, 0
5, 369800, Note_on_c, 3, 72, 0
5, 369816, Note_on_c, 3, 77, 0
5, 369832, Note_on_c, 3, 81, 0
5, 370560, Note_on_c, 3, 64, 80
5, 370652, Note_on_c, 3, 64, 0
5, 370656, Note_on_c, 3, 67, 80
5, 370748, Note_on_c, 3, 67, 0
5, 370752, Note_on_c, 3, 72, 81
5, 370844, Note_on_c, 3, 72, 0
5, 370848, Note_on_c, 3, 76, 81
5, 370940, Note_on_c, 3, 76, 0
5, 371328, Note_on_c, 3, 72, 84
5, 371420, Note_on_c, 3, 72, 0
5, 371424, Note_on_c, 3, 76, 85
5, 371516, Note_on_c, 3, 76, 0
5, 371520, Note_on_c, 3, 79, 85
5, 371612, Note_on_c, 3, 79, 0
5, 371616, Note_on_c, 3, 84, 86
5, 371708, Note_on_c, 3, 84, 0
5, 371712, Note_on_c, 3, 83, 87
5, 371804, Note_on_c, 3, 83, 0
5, 371808, Note_on_c, 3, 79, 87
5, 371900, Note_on_c, 3, 79, 0
5, 371904, Note_on_c, 3, 77, 88
5, 371996, Note_on_c, 3, 77, 0
5, 372000, Note_on_c, 3, 74, 88
5, 372092, Note_on_c, 3, 74, 0
5, 372096, Note_on_c, 3, 79, 89
5, 372188, Note_on_c, 3, 79, 0
5, 372192, Note_on_c, 3, 77, 89
5, 372284, Note_on_c, 3, 77, 0
5, 372288, Note_on_c, 3, 74, 90
5, 372380, Note_on_c, 3, 74, 0
5, 372384, Note_on_c, 3, 71, 90
5, 372476, Note_on_c, 3, 71, 0
5, 372480, Note_on_c, 3, 77, 91
5, 372572, Note_on_c, 3, 77, 0
5, 372576, Note_on_c, 3, 74, 92
5, 372668, Note_on_c, 3, 74, 0
5, 372672, Note_on_c, 3, 71, 92
5, 372764, Note_on_c, 3, 71, 0
5, 372768, Note_on_c, 3, 67, 93
5, 372860, Note_on_c, 3, 67, 0
5, 372864, Note_on_c, 3, 74, 93
5, 372956, Note_on_c, 3, 74, 0
5, 372960, Note_on_c, 3, 71, 94
5, 373052, Note_on_c, 3, 71, 0
5, 373056, Note_on_c, 3, 67, 94
5, 373148, Note_on_c, 3, 67, 0
5, 373152, Note_on_c, 3, 65, 95
5, 373244, Note_on_c, 3, 65, 0
5, 373248, Note_on_c, 3, 72, 95
5, 373248, Note_on_c, 3, 67, 95
5, 373248, Note_on_c, 3, 64, 95
5, 373820, Note_on_c, 3, 64, 0
5, 373820, Note_on_c, 3, 67, 0
5, 373820, Note_on_c, 3, 72, 0
5, 399360, Note_on_c, 3, 72, 95
5, 399360, Note_on_c, 3, 67, 95
5, 399360, Note_on_c, 3, 64, 95
5, 399740, Note_on_c, 3, 64, 0
5, 399740, Note_on_c, 3, 67, 0
5, 399740, Note_on_c, 3, 72, 0
5, 399936, Note_on_c, 3, 79, 95
5, 399996, Note_on_c, 3, 79, 0
5, 400000, Note_on_c, 3, 81, 95
5, 400060, Note_on_c, 3, 81, 0
5, 400064, Note_on_c, 3, 83, 95
5, 400124, Note_on_c, 3, 83, 0
5, 400128, Note_on_c, 3, 84, 95
5, 400508, Note_on_c, 3, 84, 0
5, 400704, Note_on_c, 3, 79, 95
5, 400764, Note_on_c, 3, 79, 0
5, 400768, Note_on_c, 3, 81, 95
5, 400828, Note_on_c, 3, 81, 0
5, 400832, Note_on_c, 3, 83, 95
5, 400892, Note_on_c, 3, 83, 0
5, 400896, Note_on_c, 3, 84, 95
5, 401276, Note_on_c, 3, 84, 0
5, 401472, Note_on_c, 3, 79, 95
5, 401532, Note_on_c, 3, 79, 0
5, 401536, Note_on_c, 3, 81, 95
5, 401596, Note_on_c, 3, 81, 0
5, 401600, Note_on_c, 3, 83, 95
5, 401660, Note_on_c, 3, 83, 0
5, 401664, Note_on_c, 3, 84, 95
5, 401852, Note_on_c, 3, 84, 0
5, 401856, Note_on_c, 3, 79, 95
5, 401916, Note_on_c, 3, 79, 0
5, 401920, Note_on_c, 3, 81, 95
5, 401980, Note_on_c, 3, 81, 0
5, 401984, Note_on_c, 3, 83, 95
5, 402044, Note_on_c, 3, 83, 0
5, 402048, Note_on_c, 3, 84, 95
5, 402236, Note_on_c, 3, 84, 0
5, 402240, Note_on_c, 3, 79, 95
5, 402300, Note_on_c, 3, 79, 0
5, 402304, Note_on_c, 3, 81, 95
5, 402364, Note_on_c, 3, 81, 0
5, 402368, Note_on_c, 3, 83, 95
5, 402428, Note_on_c, 3, 83, 0
5, 402432, Note_on_c, 3, 84, 105
5, 402620, Note_on_c, 3, 84, 0
5, 402624, Note_on_c, 3, 79, 105
5, 402624, Note_on_c, 3, 76, 105
5, 402624, Note_on_c, 3, 72, 105
5, 402716, Note_on_c, 3, 79, 0
5, 402720, Note_on_c, 3, 84, 105
5, 402812, Note_on_c, 3, 84, 0
5, 402812, Note_on_c, 3, 72, 0
5, 402812, Note_on_c, 3, 76, 0
5, 402816, Note_on_c, 3, 79, 105
5, 402816, Note_on_c, 3, 76, 105
5, 402816, Note_on_c, 3, 72, 105
5, 402908, Note_on_c, 3, 79, 0
5, 402912, Note_on_c, 3, 84, 105
5, 402992, Note_on_c, 3, 72, 105
5, 403004, Note_on_c, 3, 72, 0
5, 403004, Note_on_c, 3, 84, 0
5, 403004, Note_on_c, 3, 76, 0
5, 403008, Note_on_c, 3, 79, 105
5, 403008, Note_on_c, 3, 76, 105
5, 403100, Note_on_c, 3, 79, 0
5, 403104, Note_on_c, 3, 84, 105
5, 403180, Note_on_c, 3, 72, 0
5, 403196, Note_on_c, 3, 84, 0
5, 403196, Note_on_c, 3, 76, 0
5, 403200, Note_on_c, 3, 79, 105
5, 403200, Note_on_c, 3, 76, 105
5, 403200, Note_on_c, 3, 72, 105
5, 403292, Note_on_c, 3, 79, 0
5, 403296, Note_on_c, 3, 84, 105
5, 403388, Note_on_c, 3, 84, 0
5, 403388, Note_on_c, 3, 72, 0
5, 403388, Note_on_c, 3, 76, 0
5, 403392, Note_on_c, 3, 79, 105
5, 403392, Note_on_c, 3, 76, 105
5, 403392, Note_on_c, 3, 72, 105
5, 403484, Note_on_c, 3, 79, 0
5, 403488, Note_on_c, 3, 84, 105
5, 403568, Note_on_c, 3, 72, 105
5, 403580, Note_on_c, 3, 72, 0
5, 403580, Note_on_c, 3, 84, 0
5, 403580, Note_on_c, 3, 76, 0
5, 403584, Note_on_c, 3, 79, 105
5, 403584, Note_on_c, 3, 76, 105
5, 403676, Note_on_c, 3, 79, 0
5, 403680, Note_on_c, 3, 84, 105
5, 403756, Note_on_c, 3, 72, 0
5, 403772, Note_on_c, 3, 84, 0
5, 403772, Note_on_c, 3, 76, 0
5, 403776, Note_on_c, 3, 79, 105
5, 403776, Note_on_c, 3, 76, 105
5, 403776, Note_on_c, 3, 72, 105
5, 403868, Note_on_c, 3, 79, 0
5, 403872, Note_on_c, 3, 84, 105
5, 403964, Note_on_c, 3, 84, 0
5, 403964, Note_on_c, 3, 72, 0
5, 403964, Note_on_c, 3, 76, 0
5, 403968, Note_on_c, 3, 76, 105
5, 403968, Note_on_c, 3, 72, 105
5, 403968, Note_on_c, 3, 79, 105
5, 404060, Note_on_c, 3, 79, 0
5, 404064, Note_on_c, 3, 84, 105
5, 404156, Note_on_c, 3, 84, 0
5, 404156, Note_on_c, 3, 72, 0
5, 404156, Note_on_c, 3, 76, 0
5, 404160, Note_on_c, 3, 76, 105
5, 404160, Note_on_c, 3, 72, 105
5, 404160, Note_on_c, 3, 79, 105
5, 404252, Note_on_c, 3, 79, 0
5, 404256, Note_on_c, 3, 84, 105
5, 404348, Note_on_c, 3, 84, 0
5, 404348, Note_on_c, 3, 72, 0
5, 404348, Note_on_c, 3, 76, 0
5, 404352, Note_on_c, 3, 76, 105
5, 404352, Note_on_c, 3, 72, 105
5, 404352, Note_on_c, 3, 79, 105
5, 404432, Note_on_c, 3, 84, 105
5, 404444, Note_on_c, 3, 79, 0
5, 404524, Note_on_c, 3, 84, 0
5, 404540, Note_on_c, 3, 72, 0
5, 404540, Note_on_c, 3, 76, 0
5, 404544, Note_on_c, 3, 76, 105
5, 404544, Note_on_c, 3, 72, 105
5, 404544, Note_on_c, 3, 79, 105
5, 404636, Note_on_c, 3, 79, 0
5, 404640, Note_on_c, 3, 84, 105
5, 404732, Note_on_c, 3, 84, 0
5, 404732, Note_on_c, 3, 72, 0
5, 404732, Note_on_c, 3, 76, 0
5, 404736, Note_on_c, 3, 76, 105
5, 404736, Note_on_c, 3, 72, 105
5, 404736, Note_on_c, 3, 79, 105
5, 404828, Note_on_c, 3, 79, 0
5, 404832, Note_on_c, 3, 84, 105
5, 404924, Note_on_c, 3, 84, 0
5, 404924, Note_on_c, 3, 72, 0
5, 404924, Note_on_c, 3, 76, 0
5, 404928, Note_on_c, 3, 76, 105
5, 404928, Note_on_c, 3, 72, 105
5, 404928, Note_on_c, 3, 79, 105
5, 405008, Note_on_c, 3, 84, 105
5, 405020, Note_on_c, 3, 79, 0
5, 405100, Note_on_c, 3, 84, 0
5, 405116, Note_on_c, 3, 72, 0
5, 405116, Note_on_c, 3, 76, 0
5, 405120, Note_on_c, 3, 76, 105
5, 405120, Note_on_c, 3, 72, 105
5, 405120, Note_on_c, 3, 79, 105
5, 405212, Note_on_c, 3, 79, 0
5, 405216, Note_on_c, 3, 84, 105
5, 405308, Note_on_c, 3, 84, 0
5, 405308, Note_on_c, 3, 72, 0
5, 405308, Note_on_c, 3, 76, 0
5, 405312, Note_on_c, 3, 76, 105
5, 405312, Note_on_c, 3, 72, 105
5, 405312, Note_on_c, 3, 79, 105
5, 405392, Note_on_c, 3, 84, 105
5, 405404, Note_on_c, 3, 79, 0
5, 405484, Note_on_c, 3, 84, 0
5, 405500, Note_on_c, 3, 72, 0
5, 405500, Note_on_c, 3, 76, 0
5, 405504, Note_on_c, 3, 79, 105
5, 405504, Note_on_c, 3, 76, 105
5, 405504, Note_on_c, 3, 72, 105
5, 405884, Note_on_c, 3, 72, 0
5, 405884, Note_on_c, 3, 76, 0
5, 405884, Note_on_c, 3, 79, 0
5, 405888, Note_on_c, 3, 84, 105
5, 405888, Note_on_c, 3, 79, 105
5, 405888, Note_on_c, 3, 76, 105
5, 405888, Note_on_c, 3, 72, 105
5, 406268, Note_on_c, 3, 72, 0
5, 406268, Note_on_c, 3, 84, 0
5, 406268, Note_on_c, 3, 79, 0
5, 406268, Note_on_c, 3, 76, 0
5, 406272, Note_on_c, 3, 84, 105
5, 406272, Note_on_c, 3, 79, 105
5, 406272, Note_on_c, 3, 76, 105
5, 406272, Note_on_c, 3, 72, 105
5, 406652, Note_on_c, 3, 72, 0
5, 406652, Note_on_c, 3, 84, 0
5, 406652, Note_on_c, 3, 79, 0
5, 406652, Note_on_c, 3, 76, 0
5, 406656, Note_on_c, 3, 84, 105
5, 406656, Note_on_c, 3, 79, 105
5, 406656, Note_on_c, 3, 72, 105
5, 406656, Note_on_c, 3, 76, 105
5, 407036, Note_on_c, 3, 76, 0
5, 407036, Note_on_c, 3, 84, 0
5, 407036, Note_on_c, 3, 79, 0
5, 407036, Note_on_c, 3, 72, 0
5, 407040, Note_on_c, 3, 84, 105
5, 407040, Note_on_c, 3, 79, 105
5, 407040, Note_on_c, 3, 76, 105
5, 407040, Note_on_c, 3, 72, 105
5, 407420, Note_on_c, 3, 72, 0
5, 407420, Note_on_c, 3, 84, 0
5, 407420, Note_on_c, 3, 79, 0
5, 407420, Note_on_c, 3, 76, 0
5, 407420, End_track
6, 0, Start_track
6, 0, MIDI_port, 0
6, 0, Title_t, "Midi by:"
6, 0, Control_c, 4, 0, 0
6, 0, Control_c, 4, 32, 0
6, 0, Program_c, 4, 46
6, 0, Control_c, 4, 7, 98
6, 0, Control_c, 4, 10, 63
6, 0, Control_c, 4, 91, 63
6, 0, Control_c, 4, 93, 52
6, 0, Control_c, 4, 121, 0
6, 96, Control_c, 4, 10, 63
6, 192, Control_c, 4, 91, 63
6, 240, Control_c, 4, 93, 40
6, 288, Program_c, 4, 46
6, 1632, Note_on_c, 4, 48, 85
6, 2108, Note_on_c, 4, 48, 0
6, 2112, Note_on_c, 4, 43, 85
6, 2204, Note_on_c, 4, 43, 0
6, 2304, Note_on_c, 4, 40, 85
6, 2396, Note_on_c, 4, 40, 0
6, 2496, Note_on_c, 4, 36, 85
6, 2588, Note_on_c, 4, 36, 0
6, 2688, Note_on_c, 4, 40, 85
6, 2780, Note_on_c, 4, 40, 0
6, 2880, Note_on_c, 4, 43, 85
6, 2972, Note_on_c, 4, 43, 0
6, 3072, Note_on_c, 4, 48, 85
6, 3644, Note_on_c, 4, 48, 0
6, 3648, Note_on_c, 4, 43, 85
6, 3740, Note_on_c, 4, 43, 0
6, 3840, Note_on_c, 4, 40, 85
6, 3932, Note_on_c, 4, 40, 0
6, 4032, Note_on_c, 4, 36, 85
6, 4124, Note_on_c, 4, 36, 0
6, 4224, Note_on_c, 4, 40, 85
6, 4316, Note_on_c, 4, 40, 0
6, 4416, Note_on_c, 4, 43, 85
6, 4508, Note_on_c, 4, 43, 0
6, 4608, Note_on_c, 4, 48, 85
6, 4988, Note_on_c, 4, 48, 0
6, 67584, Note_on_c, 4, 48, 85
6, 67616, Note_on_c, 4, 48, 0
6, 67616, Note_on_c, 4, 52, 85
6, 67648, Note_on_c, 4, 52, 0
6, 67648, Note_on_c, 4, 55, 85
6, 67680, Note_on_c, 4, 55, 0
6, 67680, Note_on_c, 4, 60, 85
6, 68156, Note_on_c, 4, 60, 0
6, 68160, Note_on_c, 4, 55, 85
6, 68252, Note_on_c, 4, 55, 0
6, 68352, Note_on_c, 4, 52, 85
6, 68444, Note_on_c, 4, 52, 0
6, 68544, Note_on_c, 4, 48, 85
6, 68636, Note_on_c, 4, 48, 0
6, 68736, Note_on_c, 4, 52, 85
6, 68828, Note_on_c, 4, 52, 0
6, 68928, Note_on_c, 4, 55, 85
6, 69020, Note_on_c, 4, 55, 0
6, 69120, Note_on_c, 4, 60, 85
6, 69692, Note_on_c, 4, 60, 0
6, 69696, Note_on_c, 4, 55, 85
6, 69788, Note_on_c, 4, 55, 0
6, 69888, Note_on_c, 4, 52, 85
6, 69980, Note_on_c, 4, 52, 0
6, 70080, Note_on_c, 4, 48, 85
6, 70172, Note_on_c, 4, 48, 0
6, 70272, Note_on_c, 4, 52, 85
6, 70364, Note_on_c, 4, 52, 0
6, 70464, Note_on_c, 4, 55, 85
6, 70556, Note_on_c, 4, 55, 0
6, 70656, Note_on_c, 4, 60, 85
6, 71036, Note_on_c, 4, 60, 0
6, 71040, Note_on_c, 4, 48, 60
6, 71420, Note_on_c, 4, 48, 0
6, 71424, Note_on_c, 4, 47, 60
6, 71804, Note_on_c, 4, 47, 0
6, 71808, Note_on_c, 4, 48, 60
6, 72188, Note_on_c, 4, 48, 0
6, 72192, Note_on_c, 4, 50, 60
6, 72572, Note_on_c, 4, 50, 0
6, 72576, Note_on_c, 4, 50, 60
6, 72956, Note_on_c, 4, 50, 0
6, 72960, Note_on_c, 4, 49, 60
6, 73340, Note_on_c, 4, 49, 0
6, 73344, Note_on_c, 4, 50, 60
6, 73724, Note_on_c, 4, 50, 0
6, 73728, Note_on_c, 4, 52, 60
6, 74108, Note_on_c, 4, 52, 0
6, 74112, Note_on_c, 4, 52, 60
6, 74492, Note_on_c, 4, 52, 0
6, 74496, Note_on_c, 4, 51, 60
6, 74876, Note_on_c, 4, 51, 0
6, 74880, Note_on_c, 4, 52, 60
6, 75260, Note_on_c, 4, 52, 0
6, 75264, Note_on_c, 4, 53, 60
6, 75644, Note_on_c, 4, 53, 0
6, 75648, Note_on_c, 4, 55, 60
6, 76028, Note_on_c, 4, 55, 0
6, 76032, Note_on_c, 4, 57, 60
6, 76412, Note_on_c, 4, 57, 0
6, 76416, Note_on_c, 4, 59, 60
6, 76796, Note_on_c, 4, 59, 0
6, 76800, Note_on_c, 4, 48, 85
6, 76892, Note_on_c, 4, 48, 0
6, 76896, Note_on_c, 4, 52, 85
6, 76988, Note_on_c, 4, 52, 0
6, 76992, Note_on_c, 4, 55, 85
6, 77084, Note_on_c, 4, 55, 0
6, 77088, Note_on_c, 4, 60, 85
6, 77180, Note_on_c, 4, 60, 0
6, 79872, Note_on_c, 4, 48, 77
6, 79964, Note_on_c, 4, 48, 0
6, 79968, Note_on_c, 4, 52, 77
6, 80060, Note_on_c, 4, 52, 0
6, 80064, Note_on_c, 4, 55, 77
6, 80156, Note_on_c, 4, 55, 0
6, 80160, Note_on_c, 4, 60, 77
6, 80252, Note_on_c, 4, 60, 0
6, 82944, Note_on_c, 4, 48, 77
6, 83200, Note_on_c, 4, 48, 0
6, 93696, Note_on_c, 4, 55, 77
6, 93884, Note_on_c, 4, 55, 0
6, 93888, Note_on_c, 4, 64, 77
6, 94076, Note_on_c, 4, 64, 0
6, 94080, Note_on_c, 4, 60, 77
6, 94268, Note_on_c, 4, 60, 0
6, 94272, Note_on_c, 4, 64, 77
6, 94460, Note_on_c, 4, 64, 0
6, 94464, Note_on_c, 4, 55, 77
6, 94652, Note_on_c, 4, 55, 0
6, 94656, Note_on_c, 4, 60, 77
6, 94844, Note_on_c, 4, 60, 0
6, 94848, Note_on_c, 4, 55, 77
6, 95036, Note_on_c, 4, 55, 0
6, 95040, Note_on_c, 4, 59, 77
6, 95228, Note_on_c, 4, 59, 0
6, 95232, Note_on_c, 4, 60, 85
6, 95612, Note_on_c, 4, 60, 0
6, 95616, Note_on_c, 4, 60, 85
6, 95616, Note_on_c, 4, 48, 85
6, 95708, Note_on_c, 4, 48, 0
6, 95708, Note_on_c, 4, 60, 0
6, 95808, Note_on_c, 4, 59, 85
6, 95808, Note_on_c, 4, 47, 85
6, 95900, Note_on_c, 4, 47, 0
6, 95900, Note_on_c, 4, 59, 0
6, 96000, Note_on_c, 4, 57, 85
6, 96000, Note_on_c, 4, 45, 85
6, 96380, Note_on_c, 4, 45, 0
6, 96380, Note_on_c, 4, 57, 0
6, 96384, Note_on_c, 4, 57, 85
6, 96384, Note_on_c, 4, 45, 85
6, 96476, Note_on_c, 4, 45, 0
6, 96476, Note_on_c, 4, 57, 0
6, 96576, Note_on_c, 4, 55, 85
6, 96576, Note_on_c, 4, 43, 85
6, 96668, Note_on_c, 4, 43, 0
6, 96668, Note_on_c, 4, 55, 0
6, 96768, Note_on_c, 4, 53, 85
6, 96768, Note_on_c, 4, 41, 85
6, 97148, Note_on_c, 4, 41, 0
6, 97148, Note_on_c, 4, 53, 0
6, 97152, Note_on_c, 4, 53, 85
6, 97152, Note_on_c, 4, 41, 85
6, 97244, Note_on_c, 4, 41, 0
6, 97244, Note_on_c, 4, 53, 0
6, 97344, Note_on_c, 4, 52, 85
6, 97344, Note_on_c, 4, 40, 85
6, 97436, Note_on_c, 4, 40, 0
6, 97436, Note_on_c, 4, 52, 0
6, 97536, Note_on_c, 4, 50, 85
6, 97536, Note_on_c, 4, 38, 85
6, 97628, Note_on_c, 4, 38, 0
6, 97628, Note_on_c, 4, 50, 0
6, 97728, Note_on_c, 4, 48, 85
6, 97820, Note_on_c, 4, 48, 0
6, 97920, Note_on_c, 4, 47, 85
6, 98012, Note_on_c, 4, 47, 0
6, 98112, Note_on_c, 4, 45, 85
6, 98204, Note_on_c, 4, 45, 0
6, 98304, Note_on_c, 4, 55, 85
6, 98304, Note_on_c, 4, 43, 85
6, 98492, Note_on_c, 4, 43, 0
6, 98492, Note_on_c, 4, 55, 0
6, 98496, Note_on_c, 4, 43, 85
6, 98496, Note_on_c, 4, 55, 85
6, 98588, Note_on_c, 4, 55, 0
6, 98588, Note_on_c, 4, 43, 0
6, 98592, Note_on_c, 4, 59, 85
6, 98684, Note_on_c, 4, 59, 0
6, 98688, Note_on_c, 4, 45, 85
6, 98688, Note_on_c, 4, 57, 85
6, 98780, Note_on_c, 4, 57, 0
6, 98780, Note_on_c, 4, 45, 0
6, 98784, Note_on_c, 4, 60, 85
6, 98876, Note_on_c, 4, 60, 0
6, 98880, Note_on_c, 4, 47, 85
6, 98880, Note_on_c, 4, 59, 85
6, 98972, Note_on_c, 4, 59, 0
6, 98972, Note_on_c, 4, 47, 0
6, 98976, Note_on_c, 4, 62, 85
6, 99068, Note_on_c, 4, 62, 0
6, 99072, Note_on_c, 4, 48, 85
6, 99164, Note_on_c, 4, 48, 0
6, 99264, Note_on_c, 4, 50, 85
6, 99356, Note_on_c, 4, 50, 0
6, 99456, Note_on_c, 4, 52, 85
6, 99548, Note_on_c, 4, 52, 0
6, 99648, Note_on_c, 4, 54, 85
6, 99740, Note_on_c, 4, 54, 0
6, 99840, Note_on_c, 4, 55, 85
6, 100028, Note_on_c, 4, 55, 0
6, 100032, Note_on_c, 4, 43, 85
6, 100124, Note_on_c, 4, 43, 0
6, 100128, Note_on_c, 4, 55, 85
6, 100220, Note_on_c, 4, 55, 0
6, 100224, Note_on_c, 4, 45, 85
6, 100316, Note_on_c, 4, 45, 0
6, 100320, Note_on_c, 4, 57, 85
6, 100412, Note_on_c, 4, 57, 0
6, 100416, Note_on_c, 4, 47, 85
6, 100508, Note_on_c, 4, 47, 0
6, 100512, Note_on_c, 4, 59, 85
6, 100604, Note_on_c, 4, 59, 0
6, 100608, Note_on_c, 4, 48, 85
6, 100700, Note_on_c, 4, 48, 0
6, 100704, Note_on_c, 4, 60, 85
6, 100796, Note_on_c, 4, 60, 0
6, 100800, Note_on_c, 4, 50, 85
6, 100892, Note_on_c, 4, 50, 0
6, 100896, Note_on_c, 4, 62, 85
6, 100988, Note_on_c, 4, 62, 0
6, 100992, Note_on_c, 4, 52, 85
6, 101084, Note_on_c, 4, 52, 0
6, 101088, Note_on_c, 4, 64, 85
6, 101180, Note_on_c, 4, 64, 0
6, 101184, Note_on_c, 4, 53, 85
6, 101276, Note_on_c, 4, 53, 0
6, 101280, Note_on_c, 4, 65, 85
6, 101372, Note_on_c, 4, 65, 0
6, 101376, Note_on_c, 4, 67, 85
6, 101376, Note_on_c, 4, 55, 85
6, 101756, Note_on_c, 4, 55, 0
6, 101756, Note_on_c, 4, 67, 0
6, 105984, Note_on_c, 4, 43, 85
6, 106076, Note_on_c, 4, 43, 0
6, 106080, Note_on_c, 4, 47, 85
6, 106172, Note_on_c, 4, 47, 0
6, 106176, Note_on_c, 4, 50, 85
6, 106268, Note_on_c, 4, 50, 0
6, 106272, Note_on_c, 4, 55, 85
6, 106364, Note_on_c, 4, 55, 0
6, 106752, Note_on_c, 4, 43, 85
6, 106844, Note_on_c, 4, 43, 0
6, 106848, Note_on_c, 4, 47, 85
6, 106940, Note_on_c, 4, 47, 0
6, 106944, Note_on_c, 4, 50, 85
6, 107036, Note_on_c, 4, 50, 0
6, 107040, Note_on_c, 4, 55, 85
6, 107132, Note_on_c, 4, 55, 0
6, 107520, Note_on_c, 4, 43, 85
6, 107612, Note_on_c, 4, 43, 0
6, 107616, Note_on_c, 4, 48, 85
6, 107708, Note_on_c, 4, 48, 0
6, 107712, Note_on_c, 4, 52, 85
6, 107804, Note_on_c, 4, 52, 0
6, 107808, Note_on_c, 4, 55, 85
6, 107900, Note_on_c, 4, 55, 0
6, 108288, Note_on_c, 4, 43, 85
6, 108380, Note_on_c, 4, 43, 0
6, 108384, Note_on_c, 4, 48, 85
6, 108476, Note_on_c, 4, 48, 0
6, 108480, Note_on_c, 4, 52, 85
6, 108572, Note_on_c, 4, 52, 0
6, 108576, Note_on_c, 4, 55, 85
6, 108668, Note_on_c, 4, 55, 0
6, 109056, Note_on_c, 4, 43, 85
6, 109100, Note_on_c, 4, 43, 0
6, 109104, Note_on_c, 4, 55, 85
6, 109292, Note_on_c, 4, 55, 0
6, 109440, Note_on_c, 4, 40, 85
6, 109484, Note_on_c, 4, 40, 0
6, 109488, Note_on_c, 4, 52, 85
6, 109676, Note_on_c, 4, 52, 0
6, 109824, Note_on_c, 4, 36, 85
6, 109868, Note_on_c, 4, 36, 0
6, 109872, Note_on_c, 4, 48, 85
6, 110060, Note_on_c, 4, 48, 0
6, 110208, Note_on_c, 4, 38, 85
6, 110252, Note_on_c, 4, 38, 0
6, 110256, Note_on_c, 4, 50, 85
6, 110444, Note_on_c, 4, 50, 0
6, 110592, Note_on_c, 4, 43, 85
6, 110972, Note_on_c, 4, 43, 0
6, 112128, Note_on_c, 4, 43, 85
6, 112220, Note_on_c, 4, 43, 0
6, 112224, Note_on_c, 4, 47, 85
6, 112316, Note_on_c, 4, 47, 0
6, 112320, Note_on_c, 4, 50, 85
6, 112412, Note_on_c, 4, 50, 0
6, 112416, Note_on_c, 4, 55, 85
6, 112508, Note_on_c, 4, 55, 0
6, 112896, Note_on_c, 4, 43, 85
6, 112988, Note_on_c, 4, 43, 0
6, 112992, Note_on_c, 4, 47, 85
6, 113084, Note_on_c, 4, 47, 0
6, 113088, Note_on_c, 4, 50, 85
6, 113180, Note_on_c, 4, 50, 0
6, 113184, Note_on_c, 4, 55, 85
6, 113276, Note_on_c, 4, 55, 0
6, 113664, Note_on_c, 4, 43, 85
6, 113756, Note_on_c, 4, 43, 0
6, 113760, Note_on_c, 4, 48, 85
6, 113852, Note_on_c, 4, 48, 0
6, 113856, Note_on_c, 4, 52, 85
6, 113948, Note_on_c, 4, 52, 0
6, 113952, Note_on_c, 4, 55, 85
6, 114044, Note_on_c, 4, 55, 0
6, 114432, Note_on_c, 4, 43, 85
6, 114524, Note_on_c, 4, 43, 0
6, 114528, Note_on_c, 4, 48, 85
6, 114620, Note_on_c, 4, 48, 0
6, 114624, Note_on_c, 4, 52, 85
6, 114716, Note_on_c, 4, 52, 0
6, 114720, Note_on_c, 4, 55, 85
6, 114812, Note_on_c, 4, 55, 0
6, 115200, Note_on_c, 4, 43, 85
6, 115244, Note_on_c, 4, 43, 0
6, 115248, Note_on_c, 4, 55, 85
6, 115436, Note_on_c, 4, 55, 0
6, 115584, Note_on_c, 4, 38, 85
6, 115628, Note_on_c, 4, 38, 0
6, 115632, Note_on_c, 4, 52, 85
6, 115820, Note_on_c, 4, 52, 0
6, 115968, Note_on_c, 4, 36, 85
6, 116012, Note_on_c, 4, 36, 0
6, 116016, Note_on_c, 4, 48, 85
6, 116204, Note_on_c, 4, 48, 0
6, 116352, Note_on_c, 4, 38, 85
6, 116396, Note_on_c, 4, 38, 0
6, 116400, Note_on_c, 4, 50, 85
6, 116588, Note_on_c, 4, 50, 0
6, 119808, Note_on_c, 4, 50, 85
6, 119808, Note_on_c, 4, 38, 85
6, 119996, Note_on_c, 4, 38, 0
6, 119996, Note_on_c, 4, 50, 0
6, 120000, Note_on_c, 4, 54, 85
6, 120188, Note_on_c, 4, 54, 0
6, 120192, Note_on_c, 4, 57, 85
6, 120380, Note_on_c, 4, 57, 0
6, 120384, Note_on_c, 4, 54, 85
6, 120572, Note_on_c, 4, 54, 0
6, 120576, Note_on_c, 4, 50, 85
6, 120764, Note_on_c, 4, 50, 0
6, 120768, Note_on_c, 4, 54, 85
6, 120956, Note_on_c, 4, 54, 0
6, 120960, Note_on_c, 4, 57, 85
6, 121148, Note_on_c, 4, 57, 0
6, 121152, Note_on_c, 4, 54, 85
6, 121340, Note_on_c, 4, 54, 0
6, 121344, Note_on_c, 4, 50, 85
6, 121532, Note_on_c, 4, 50, 0
6, 121536, Note_on_c, 4, 54, 85
6, 121724, Note_on_c, 4, 54, 0
6, 121728, Note_on_c, 4, 57, 85
6, 121916, Note_on_c, 4, 57, 0
6, 121920, Note_on_c, 4, 54, 85
6, 122108, Note_on_c, 4, 54, 0
6, 122112, Note_on_c, 4, 50, 85
6, 122300, Note_on_c, 4, 50, 0
6, 122304, Note_on_c, 4, 54, 85
6, 122492, Note_on_c, 4, 54, 0
6, 122496, Note_on_c, 4, 57, 85
6, 122684, Note_on_c, 4, 57, 0
6, 122688, Note_on_c, 4, 54, 85
6, 122876, Note_on_c, 4, 54, 0
6, 122880, Note_on_c, 4, 55, 85
6, 122880, Note_on_c, 4, 43, 85
6, 123068, Note_on_c, 4, 43, 0
6, 123068, Note_on_c, 4, 55, 0
6, 123264, Note_on_c, 4, 43, 85
6, 123264, Note_on_c, 4, 47, 85
6, 123356, Note_on_c, 4, 47, 0
6, 123360, Note_on_c, 4, 45, 85
6, 123452, Note_on_c, 4, 45, 0
6, 123456, Note_on_c, 4, 47, 85
6, 123548, Note_on_c, 4, 47, 0
6, 123552, Note_on_c, 4, 48, 85
6, 123644, Note_on_c, 4, 48, 0
6, 123644, Note_on_c, 4, 43, 0
6, 123648, Note_on_c, 4, 50, 85
6, 123648, Note_on_c, 4, 47, 85
6, 124028, Note_on_c, 4, 47, 0
6, 124028, Note_on_c, 4, 50, 0
6, 124416, Note_on_c, 4, 55, 85
6, 124416, Note_on_c, 4, 43, 85
6, 124604, Note_on_c, 4, 43, 0
6, 124604, Note_on_c, 4, 55, 0
6, 124800, Note_on_c, 4, 55, 85
6, 124800, Note_on_c, 4, 59, 85
6, 124892, Note_on_c, 4, 59, 0
6, 124896, Note_on_c, 4, 57, 85
6, 124988, Note_on_c, 4, 57, 0
6, 124992, Note_on_c, 4, 59, 85
6, 125084, Note_on_c, 4, 59, 0
6, 125088, Note_on_c, 4, 60, 85
6, 125180, Note_on_c, 4, 60, 0
6, 125180, Note_on_c, 4, 55, 0
6, 125184, Note_on_c, 4, 59, 85
6, 125184, Note_on_c, 4, 62, 85
6, 125564, Note_on_c, 4, 62, 0
6, 125564, Note_on_c, 4, 59, 0
6, 125952, Note_on_c, 4, 50, 85
6, 125952, Note_on_c, 4, 38, 85
6, 126140, Note_on_c, 4, 38, 0
6, 126140, Note_on_c, 4, 50, 0
6, 126144, Note_on_c, 4, 54, 85
6, 126332, Note_on_c, 4, 54, 0
6, 126336, Note_on_c, 4, 57, 85
6, 126524, Note_on_c, 4, 57, 0
6, 126528, Note_on_c, 4, 54, 85
6, 126716, Note_on_c, 4, 54, 0
6, 126720, Note_on_c, 4, 50, 85
6, 126908, Note_on_c, 4, 50, 0
6, 126912, Note_on_c, 4, 54, 85
6, 127100, Note_on_c, 4, 54, 0
6, 127104, Note_on_c, 4, 57, 85
6, 127292, Note_on_c, 4, 57, 0
6, 127296, Note_on_c, 4, 54, 85
6, 127484, Note_on_c, 4, 54, 0
6, 127488, Note_on_c, 4, 50, 85
6, 127676, Note_on_c, 4, 50, 0
6, 127680, Note_on_c, 4, 54, 85
6, 127868, Note_on_c, 4, 54, 0
6, 127872, Note_on_c, 4, 57, 85
6, 128060, Note_on_c, 4, 57, 0
6, 128064, Note_on_c, 4, 54, 85
6, 128252, Note_on_c, 4, 54, 0
6, 128256, Note_on_c, 4, 50, 85
6, 128444, Note_on_c, 4, 50, 0
6, 128448, Note_on_c, 4, 54, 85
6, 128636, Note_on_c, 4, 54, 0
6, 128640, Note_on_c, 4, 57, 85
6, 128828, Note_on_c, 4, 57, 0
6, 128832, Note_on_c, 4, 54, 85
6, 129020, Note_on_c, 4, 54, 0
6, 129024, Note_on_c, 4, 55, 85
6, 129024, Note_on_c, 4, 43, 85
6, 129212, Note_on_c, 4, 43, 0
6, 129212, Note_on_c, 4, 55, 0
6, 129408, Note_on_c, 4, 43, 85
6, 129408, Note_on_c, 4, 47, 85
6, 129500, Note_on_c, 4, 47, 0
6, 129504, Note_on_c, 4, 45, 85
6, 129596, Note_on_c, 4, 45, 0
6, 129600, Note_on_c, 4, 47, 85
6, 129692, Note_on_c, 4, 47, 0
6, 129696, Note_on_c, 4, 48, 85
6, 129788, Note_on_c, 4, 48, 0
6, 129788, Note_on_c, 4, 43, 0
6, 129792, Note_on_c, 4, 50, 85
6, 129792, Note_on_c, 4, 47, 85
6, 130172, Note_on_c, 4, 47, 0
6, 130172, Note_on_c, 4, 50, 0
6, 130560, Note_on_c, 4, 55, 85
6, 130560, Note_on_c, 4, 43, 85
6, 130748, Note_on_c, 4, 43, 0
6, 130748, Note_on_c, 4, 55, 0
6, 130944, Note_on_c, 4, 55, 85
6, 130944, Note_on_c, 4, 59, 85
6, 131036, Note_on_c, 4, 59, 0
6, 131040, Note_on_c, 4, 57, 85
6, 131132, Note_on_c, 4, 57, 0
6, 131136, Note_on_c, 4, 59, 85
6, 131228, Note_on_c, 4, 59, 0
6, 131232, Note_on_c, 4, 60, 85
6, 131324, Note_on_c, 4, 60, 0
6, 131324, Note_on_c, 4, 55, 0
6, 131328, Note_on_c, 4, 59, 85
6, 131328, Note_on_c, 4, 62, 85
6, 131708, Note_on_c, 4, 62, 0
6, 131708, Note_on_c, 4, 59, 0
6, 156672, Note_on_c, 4, 48, 77
6, 156764, Note_on_c, 4, 48, 0
6, 156864, Note_on_c, 4, 60, 77
6, 156956, Note_on_c, 4, 60, 0
6, 157056, Note_on_c, 4, 48, 77
6, 157148, Note_on_c, 4, 48, 0
6, 157248, Note_on_c, 4, 60, 77
6, 157340, Note_on_c, 4, 60, 0
6, 157440, Note_on_c, 4, 50, 77
6, 157532, Note_on_c, 4, 50, 0
6, 157632, Note_on_c, 4, 62, 77
6, 157724, Note_on_c, 4, 62, 0
6, 157824, Note_on_c, 4, 50, 77
6, 157916, Note_on_c, 4, 50, 0
6, 158016, Note_on_c, 4, 62, 77
6, 158108, Note_on_c, 4, 62, 0
6, 158208, Note_on_c, 4, 55, 77
6, 158208, Note_on_c, 4, 43, 77
6, 158300, Note_on_c, 4, 43, 0
6, 158300, Note_on_c, 4, 55, 0
6, 158400, Note_on_c, 4, 57, 77
6, 158400, Note_on_c, 4, 45, 77
6, 158492, Note_on_c, 4, 45, 0
6, 158492, Note_on_c, 4, 57, 0
6, 158592, Note_on_c, 4, 59, 77
6, 158592, Note_on_c, 4, 47, 77
6, 158684, Note_on_c, 4, 47, 0
6, 158684, Note_on_c, 4, 59, 0
6, 158784, Note_on_c, 4, 60, 77
6, 158784, Note_on_c, 4, 48, 77
6, 158876, Note_on_c, 4, 48, 0
6, 158876, Note_on_c, 4, 60, 0
6, 158976, Note_on_c, 4, 62, 72
6, 158976, Note_on_c, 4, 50, 72
6, 159356, Note_on_c, 4, 50, 0
6, 159356, Note_on_c, 4, 62, 0
6, 160128, Note_on_c, 4, 60, 60
6, 160220, Note_on_c, 4, 60, 0
6, 160224, Note_on_c, 4, 59, 60
6, 160316, Note_on_c, 4, 59, 0
6, 160320, Note_on_c, 4, 57, 60
6, 160412, Note_on_c, 4, 57, 0
6, 160416, Note_on_c, 4, 55, 60
6, 160508, Note_on_c, 4, 55, 0
6, 160512, Note_on_c, 4, 54, 60
6, 160892, Note_on_c, 4, 54, 0
6, 160896, Note_on_c, 4, 50, 60
6, 160988, Note_on_c, 4, 50, 0
6, 160992, Note_on_c, 4, 48, 60
6, 161084, Note_on_c, 4, 48, 0
6, 161088, Note_on_c, 4, 47, 60
6, 161180, Note_on_c, 4, 47, 0
6, 161184, Note_on_c, 4, 45, 60
6, 161276, Note_on_c, 4, 45, 0
6, 161280, Note_on_c, 4, 43, 60
6, 161660, Note_on_c, 4, 43, 0
6, 161664, Note_on_c, 4, 59, 60
6, 161756, Note_on_c, 4, 59, 0
6, 161760, Note_on_c, 4, 57, 60
6, 161852, Note_on_c, 4, 57, 0
6, 161856, Note_on_c, 4, 55, 60
6, 161948, Note_on_c, 4, 55, 0
6, 161952, Note_on_c, 4, 54, 60
6, 162044, Note_on_c, 4, 54, 0
6, 162048, Note_on_c, 4, 52, 60
6, 162428, Note_on_c, 4, 52, 0
6, 170592, Note_on_c, 4, 50, 60
6, 170684, Note_on_c, 4, 50, 0
6, 170688, Note_on_c, 4, 52, 60
6, 170780, Note_on_c, 4, 52, 0
6, 170784, Note_on_c, 4, 53, 60
6, 170876, Note_on_c, 4, 53, 0
6, 170880, Note_on_c, 4, 55, 60
6, 170972, Note_on_c, 4, 55, 0
6, 170976, Note_on_c, 4, 57, 60
6, 171068, Note_on_c, 4, 57, 0
6, 171072, Note_on_c, 4, 59, 60
6, 171164, Note_on_c, 4, 59, 0
6, 171168, Note_on_c, 4, 57, 60
6, 171260, Note_on_c, 4, 57, 0
6, 171264, Note_on_c, 4, 55, 65
6, 171452, Note_on_c, 4, 55, 0
6, 171456, Note_on_c, 4, 50, 60
6, 171644, Note_on_c, 4, 50, 0
6, 171648, Note_on_c, 4, 57, 65
6, 171836, Note_on_c, 4, 57, 0
6, 171840, Note_on_c, 4, 50, 60
6, 172028, Note_on_c, 4, 50, 0
6, 172032, Note_on_c, 4, 59, 65
6, 172220, Note_on_c, 4, 59, 0
6, 172224, Note_on_c, 4, 50, 60
6, 172412, Note_on_c, 4, 50, 0
6, 172416, Note_on_c, 4, 59, 65
6, 172604, Note_on_c, 4, 59, 0
6, 172608, Note_on_c, 4, 50, 60
6, 172796, Note_on_c, 4, 50, 0
6, 172800, Note_on_c, 4, 55, 65
6, 172988, Note_on_c, 4, 55, 0
6, 172992, Note_on_c, 4, 50, 60
6, 173180, Note_on_c, 4, 50, 0
6, 173184, Note_on_c, 4, 57, 65
6, 173372, Note_on_c, 4, 57, 0
6, 173376, Note_on_c, 4, 50, 60
6, 173564, Note_on_c, 4, 50, 0
6, 173568, Note_on_c, 4, 59, 65
6, 173756, Note_on_c, 4, 59, 0
6, 173760, Note_on_c, 4, 50, 60
6, 173948, Note_on_c, 4, 50, 0
6, 173952, Note_on_c, 4, 59, 65
6, 174140, Note_on_c, 4, 59, 0
6, 174144, Note_on_c, 4, 50, 60
6, 174332, Note_on_c, 4, 50, 0
6, 176640, Note_on_c, 4, 47, 77
6, 176732, Note_on_c, 4, 47, 0
6, 176736, Note_on_c, 4, 50, 77
6, 176828, Note_on_c, 4, 50, 0
6, 176832, Note_on_c, 4, 55, 77
6, 176924, Note_on_c, 4, 55, 0
6, 176928, Note_on_c, 4, 59, 77
6, 177020, Note_on_c, 4, 59, 0
6, 177408, Note_on_c, 4, 48, 77
6, 177500, Note_on_c, 4, 48, 0
6, 177504, Note_on_c, 4, 52, 77
6, 177596, Note_on_c, 4, 52, 0
6, 177600, Note_on_c, 4, 57, 77
6, 177692, Note_on_c, 4, 57, 0
6, 177696, Note_on_c, 4, 60, 77
6, 177788, Note_on_c, 4, 60, 0
6, 178176, Note_on_c, 4, 50, 77
6, 178364, Note_on_c, 4, 50, 0
6, 179712, Note_on_c, 4, 47, 78
6, 179724, Note_on_c, 4, 50, 78
6, 179740, Note_on_c, 4, 55, 78
6, 179756, Note_on_c, 4, 59, 78
6, 180104, Note_on_c, 4, 50, 0
6, 180120, Note_on_c, 4, 55, 0
6, 180136, Note_on_c, 4, 59, 0
6, 180476, Note_on_c, 4, 47, 0
6, 180480, Note_on_c, 4, 48, 81
6, 180492, Note_on_c, 4, 52, 81
6, 180508, Note_on_c, 4, 55, 81
6, 180524, Note_on_c, 4, 60, 81
6, 180872, Note_on_c, 4, 52, 0
6, 180888, Note_on_c, 4, 55, 0
6, 180904, Note_on_c, 4, 60, 0
6, 181244, Note_on_c, 4, 48, 0
6, 181248, Note_on_c, 4, 50, 84
6, 181340, Note_on_c, 4, 50, 0
6, 181344, Note_on_c, 4, 55, 84
6, 181436, Note_on_c, 4, 55, 0
6, 181440, Note_on_c, 4, 59, 84
6, 181532, Note_on_c, 4, 59, 0
6, 181536, Note_on_c, 4, 62, 85
6, 181628, Note_on_c, 4, 62, 0
6, 183952, Note_on_c, 4, 60, 94
6, 184032, Note_on_c, 4, 57, 94
6, 184044, Note_on_c, 4, 60, 0
6, 184124, Note_on_c, 4, 57, 0
6, 184128, Note_on_c, 4, 50, 95
6, 184128, Note_on_c, 4, 54, 95
6, 184220, Note_on_c, 4, 54, 0
6, 184316, Note_on_c, 4, 50, 0
6, 184320, Note_on_c, 4, 59, 95
6, 184320, Note_on_c, 4, 55, 95
6, 184320, Note_on_c, 4, 43, 95
6, 184448, Note_on_c, 4, 43, 0
6, 184448, Note_on_c, 4, 55, 0
6, 184448, Note_on_c, 4, 59, 0
6, 215040, Note_on_c, 4, 57, 95
6, 215040, Note_on_c, 4, 45, 90
6, 215420, Note_on_c, 4, 45, 0
6, 215420, Note_on_c, 4, 57, 0
6, 215424, Note_on_c, 4, 60, 60
6, 215804, Note_on_c, 4, 60, 0
6, 215808, Note_on_c, 4, 59, 60
6, 216188, Note_on_c, 4, 59, 0
6, 216192, Note_on_c, 4, 57, 60
6, 216572, Note_on_c, 4, 57, 0
6, 216576, Note_on_c, 4, 56, 95
6, 216576, Note_on_c, 4, 44, 90
6, 216956, Note_on_c, 4, 44, 0
6, 216956, Note_on_c, 4, 56, 0
6, 216960, Note_on_c, 4, 57, 60
6, 217340, Note_on_c, 4, 57, 0
6, 217344, Note_on_c, 4, 55, 60
6, 217724, Note_on_c, 4, 55, 0
6, 217728, Note_on_c, 4, 53, 60
6, 218108, Note_on_c, 4, 53, 0
6, 218112, Note_on_c, 4, 52, 95
6, 218112, Note_on_c, 4, 40, 90
6, 218492, Note_on_c, 4, 40, 0
6, 218492, Note_on_c, 4, 52, 0
6, 218496, Note_on_c, 4, 53, 60
6, 218876, Note_on_c, 4, 53, 0
6, 218880, Note_on_c, 4, 52, 60
6, 219260, Note_on_c, 4, 52, 0
6, 219264, Note_on_c, 4, 50, 60
6, 219644, Note_on_c, 4, 50, 0
6, 219648, Note_on_c, 4, 49, 95
6, 220028, Note_on_c, 4, 49, 0
6, 236544, Note_on_c, 4, 53, 62
6, 238076, Note_on_c, 4, 53, 0
6, 238080, Note_on_c, 4, 52, 95
6, 239612, Note_on_c, 4, 52, 0
6, 252672, Note_on_c, 4, 54, 90
6, 252672, Note_on_c, 4, 54, 90
6, 252712, Note_on_c, 4, 54, 0
6, 252720, Note_on_c, 4, 57, 90
6, 252760, Note_on_c, 4, 57, 0
6, 252768, Note_on_c, 4, 60, 90
6, 252808, Note_on_c, 4, 60, 0
6, 252816, Note_on_c, 4, 62, 90
6, 252856, Note_on_c, 4, 62, 0
6, 253436, Note_on_c, 4, 54, 0
6, 253440, Note_on_c, 4, 55, 60
6, 253628, Note_on_c, 4, 55, 0
6, 254208, Note_on_c, 4, 54, 90
6, 254208, Note_on_c, 4, 54, 90
6, 254248, Note_on_c, 4, 54, 0
6, 254256, Note_on_c, 4, 57, 90
6, 254296, Note_on_c, 4, 57, 0
6, 254304, Note_on_c, 4, 60, 90
6, 254344, Note_on_c, 4, 60, 0
6, 254352, Note_on_c, 4, 63, 90
6, 254392, Note_on_c, 4, 63, 0
6, 254972, Note_on_c, 4, 54, 0
6, 254976, Note_on_c, 4, 55, 60
6, 255068, Note_on_c, 4, 55, 0
6, 255168, Note_on_c, 4, 55, 60
6, 255260, Note_on_c, 4, 55, 0
6, 255360, Note_on_c, 4, 43, 60
6, 255452, Note_on_c, 4, 43, 0
6, 255936, Note_on_c, 4, 55, 62
6, 256028, Note_on_c, 4, 55, 0
6, 256128, Note_on_c, 4, 43, 64
6, 256220, Note_on_c, 4, 43, 0
6, 256704, Note_on_c, 4, 55, 68
6, 256796, Note_on_c, 4, 55, 0
6, 256896, Note_on_c, 4, 43, 70
6, 256988, Note_on_c, 4, 43, 0
6, 257472, Note_on_c, 4, 55, 75
6, 257564, Note_on_c, 4, 55, 0
6, 257664, Note_on_c, 4, 43, 76
6, 257756, Note_on_c, 4, 43, 0
6, 258240, Note_on_c, 4, 55, 81
6, 258332, Note_on_c, 4, 55, 0
6, 258432, Note_on_c, 4, 43, 83
6, 258524, Note_on_c, 4, 43, 0
6, 259008, Note_on_c, 4, 55, 88
6, 259100, Note_on_c, 4, 55, 0
6, 259200, Note_on_c, 4, 43, 89
6, 259292, Note_on_c, 4, 43, 0
6, 259584, Note_on_c, 4, 48, 95
6, 259596, Note_on_c, 4, 52, 95
6, 259612, Note_on_c, 4, 55, 95
6, 259628, Note_on_c, 4, 60, 95
6, 260156, Note_on_c, 4, 48, 0
6, 260160, Note_on_c, 4, 55, 95
6, 260168, Note_on_c, 4, 52, 0
6, 260184, Note_on_c, 4, 55, 0
6, 260200, Note_on_c, 4, 60, 0
6, 260252, Note_on_c, 4, 55, 0
6, 260352, Note_on_c, 4, 52, 95
6, 260444, Note_on_c, 4, 52, 0
6, 260544, Note_on_c, 4, 48, 95
6, 260636, Note_on_c, 4, 48, 0
6, 260736, Note_on_c, 4, 52, 95
6, 260828, Note_on_c, 4, 52, 0
6, 260928, Note_on_c, 4, 55, 95
6, 261020, Note_on_c, 4, 55, 0
6, 261120, Note_on_c, 4, 60, 95
6, 261692, Note_on_c, 4, 60, 0
6, 261696, Note_on_c, 4, 55, 95
6, 261788, Note_on_c, 4, 55, 0
6, 261888, Note_on_c, 4, 52, 95
6, 261980, Note_on_c, 4, 52, 0
6, 262080, Note_on_c, 4, 48, 95
6, 262172, Note_on_c, 4, 48, 0
6, 262272, Note_on_c, 4, 52, 95
6, 262364, Note_on_c, 4, 52, 0
6, 262464, Note_on_c, 4, 55, 95
6, 262556, Note_on_c, 4, 55, 0
6, 262656, Note_on_c, 4, 60, 95
6, 263036, Note_on_c, 4, 60, 0
6, 273408, Note_on_c, 4, 57, 61
6, 273596, Note_on_c, 4, 57, 0
6, 273600, Note_on_c, 4, 60, 65
6, 273788, Note_on_c, 4, 60, 0
6, 273792, Note_on_c, 4, 52, 69
6, 273980, Note_on_c, 4, 52, 0
6, 273984, Note_on_c, 4, 60, 74
6, 274172, Note_on_c, 4, 60, 0
6, 274176, Note_on_c, 4, 53, 78
6, 274364, Note_on_c, 4, 53, 0
6, 274368, Note_on_c, 4, 60, 82
6, 274556, Note_on_c, 4, 60, 0
6, 274560, Note_on_c, 4, 50, 87
6, 274748, Note_on_c, 4, 50, 0
6, 274752, Note_on_c, 4, 59, 91
6, 274940, Note_on_c, 4, 59, 0
6, 274944, Note_on_c, 4, 48, 95
6, 275036, Note_on_c, 4, 48, 0
6, 275040, Note_on_c, 4, 52, 95
6, 275132, Note_on_c, 4, 52, 0
6, 275136, Note_on_c, 4, 55, 95
6, 275228, Note_on_c, 4, 55, 0
6, 275232, Note_on_c, 4, 60, 95
6, 275324, Note_on_c, 4, 60, 0
6, 278016, Note_on_c, 4, 48, 77
6, 278108, Note_on_c, 4, 48, 0
6, 278112, Note_on_c, 4, 52, 77
6, 278204, Note_on_c, 4, 52, 0
6, 278208, Note_on_c, 4, 55, 77
6, 278300, Note_on_c, 4, 55, 0
6, 278304, Note_on_c, 4, 60, 77
6, 278396, Note_on_c, 4, 60, 0
6, 281472, Note_on_c, 4, 60, 95
6, 281472, Note_on_c, 4, 48, 95
6, 281564, Note_on_c, 4, 48, 0
6, 281564, Note_on_c, 4, 60, 0
6, 281664, Note_on_c, 4, 59, 95
6, 281664, Note_on_c, 4, 47, 95
6, 281756, Note_on_c, 4, 47, 0
6, 281756, Note_on_c, 4, 59, 0
6, 281856, Note_on_c, 4, 57, 95
6, 281856, Note_on_c, 4, 45, 95
6, 282236, Note_on_c, 4, 45, 0
6, 282236, Note_on_c, 4, 57, 0
6, 282240, Note_on_c, 4, 57, 95
6, 282240, Note_on_c, 4, 45, 95
6, 282332, Note_on_c, 4, 45, 0
6, 282332, Note_on_c, 4, 57, 0
6, 282432, Note_on_c, 4, 55, 95
6, 282432, Note_on_c, 4, 43, 95
6, 282524, Note_on_c, 4, 43, 0
6, 282524, Note_on_c, 4, 55, 0
6, 282624, Note_on_c, 4, 53, 95
6, 282624, Note_on_c, 4, 41, 95
6, 283004, Note_on_c, 4, 41, 0
6, 283004, Note_on_c, 4, 53, 0
6, 283008, Note_on_c, 4, 53, 95
6, 283008, Note_on_c, 4, 41, 95
6, 283100, Note_on_c, 4, 41, 0
6, 283100, Note_on_c, 4, 53, 0
6, 283200, Note_on_c, 4, 52, 95
6, 283200, Note_on_c, 4, 40, 95
6, 283292, Note_on_c, 4, 40, 0
6, 283292, Note_on_c, 4, 52, 0
6, 283392, Note_on_c, 4, 50, 95
6, 283392, Note_on_c, 4, 38, 95
6, 283484, Note_on_c, 4, 38, 0
6, 283484, Note_on_c, 4, 50, 0
6, 283584, Note_on_c, 4, 48, 95
6, 283676, Note_on_c, 4, 48, 0
6, 283776, Note_on_c, 4, 47, 95
6, 283868, Note_on_c, 4, 47, 0
6, 283968, Note_on_c, 4, 45, 95
6, 284060, Note_on_c, 4, 45, 0
6, 284160, Note_on_c, 4, 43, 95
6, 284348, Note_on_c, 4, 43, 0
6, 284352, Note_on_c, 4, 43, 95
6, 284444, Note_on_c, 4, 43, 0
6, 284544, Note_on_c, 4, 45, 95
6, 284636, Note_on_c, 4, 45, 0
6, 284736, Note_on_c, 4, 47, 95
6, 284828, Note_on_c, 4, 47, 0
6, 284928, Note_on_c, 4, 48, 95
6, 285020, Note_on_c, 4, 48, 0
6, 285120, Note_on_c, 4, 50, 95
6, 285212, Note_on_c, 4, 50, 0
6, 285312, Note_on_c, 4, 52, 95
6, 285404, Note_on_c, 4, 52, 0
6, 285504, Note_on_c, 4, 54, 95
6, 285596, Note_on_c, 4, 54, 0
6, 285696, Note_on_c, 4, 55, 95
6, 285884, Note_on_c, 4, 55, 0
6, 285888, Note_on_c, 4, 43, 95
6, 285980, Note_on_c, 4, 43, 0
6, 285984, Note_on_c, 4, 55, 95
6, 286076, Note_on_c, 4, 55, 0
6, 286080, Note_on_c, 4, 45, 95
6, 286172, Note_on_c, 4, 45, 0
6, 286176, Note_on_c, 4, 57, 95
6, 286268, Note_on_c, 4, 57, 0
6, 286272, Note_on_c, 4, 47, 95
6, 286364, Note_on_c, 4, 47, 0
6, 286368, Note_on_c, 4, 59, 95
6, 286460, Note_on_c, 4, 59, 0
6, 286464, Note_on_c, 4, 48, 95
6, 286556, Note_on_c, 4, 48, 0
6, 286560, Note_on_c, 4, 60, 95
6, 286652, Note_on_c, 4, 60, 0
6, 286656, Note_on_c, 4, 50, 95
6, 286748, Note_on_c, 4, 50, 0
6, 286752, Note_on_c, 4, 62, 95
6, 286844, Note_on_c, 4, 62, 0
6, 286848, Note_on_c, 4, 52, 95
6, 286940, Note_on_c, 4, 52, 0
6, 286944, Note_on_c, 4, 64, 95
6, 287036, Note_on_c, 4, 64, 0
6, 287040, Note_on_c, 4, 54, 95
6, 287132, Note_on_c, 4, 54, 0
6, 287136, Note_on_c, 4, 66, 95
6, 287228, Note_on_c, 4, 66, 0
6, 287232, Note_on_c, 4, 55, 95
6, 287232, Note_on_c, 4, 67, 95
6, 287488, Note_on_c, 4, 67, 0
6, 287488, Note_on_c, 4, 55, 0
6, 291840, Note_on_c, 4, 48, 95
6, 291932, Note_on_c, 4, 48, 0
6, 291936, Note_on_c, 4, 52, 95
6, 292028, Note_on_c, 4, 52, 0
6, 292032, Note_on_c, 4, 55, 95
6, 292124, Note_on_c, 4, 55, 0
6, 292128, Note_on_c, 4, 60, 95
6, 292220, Note_on_c, 4, 60, 0
6, 292608, Note_on_c, 4, 48, 95
6, 292700, Note_on_c, 4, 48, 0
6, 292704, Note_on_c, 4, 52, 95
6, 292796, Note_on_c, 4, 52, 0
6, 292800, Note_on_c, 4, 55, 95
6, 292892, Note_on_c, 4, 55, 0
6, 292896, Note_on_c, 4, 60, 95
6, 292988, Note_on_c, 4, 60, 0
6, 293376, Note_on_c, 4, 48, 95
6, 293468, Note_on_c, 4, 48, 0
6, 293472, Note_on_c, 4, 53, 95
6, 293564, Note_on_c, 4, 53, 0
6, 293568, Note_on_c, 4, 57, 95
6, 293660, Note_on_c, 4, 57, 0
6, 293664, Note_on_c, 4, 60, 95
6, 293756, Note_on_c, 4, 60, 0
6, 294144, Note_on_c, 4, 48, 95
6, 294236, Note_on_c, 4, 48, 0
6, 294240, Note_on_c, 4, 53, 95
6, 294332, Note_on_c, 4, 53, 0
6, 294336, Note_on_c, 4, 57, 95
6, 294428, Note_on_c, 4, 57, 0
6, 294432, Note_on_c, 4, 60, 95
6, 294524, Note_on_c, 4, 60, 0
6, 294912, Note_on_c, 4, 48, 95
6, 295100, Note_on_c, 4, 48, 0
6, 295296, Note_on_c, 4, 45, 95
6, 295484, Note_on_c, 4, 45, 0
6, 295680, Note_on_c, 4, 41, 95
6, 295868, Note_on_c, 4, 41, 0
6, 296064, Note_on_c, 4, 43, 95
6, 296252, Note_on_c, 4, 43, 0
6, 296448, Note_on_c, 4, 36, 95
6, 296828, Note_on_c, 4, 36, 0
6, 297984, Note_on_c, 4, 36, 95
6, 298076, Note_on_c, 4, 36, 0
6, 298080, Note_on_c, 4, 40, 95
6, 298172, Note_on_c, 4, 40, 0
6, 298176, Note_on_c, 4, 43, 95
6, 298268, Note_on_c, 4, 43, 0
6, 298272, Note_on_c, 4, 48, 95
6, 298364, Note_on_c, 4, 48, 0
6, 298752, Note_on_c, 4, 36, 95
6, 298844, Note_on_c, 4, 36, 0
6, 298848, Note_on_c, 4, 40, 95
6, 298940, Note_on_c, 4, 40, 0
6, 298944, Note_on_c, 4, 43, 95
6, 299036, Note_on_c, 4, 43, 0
6, 299040, Note_on_c, 4, 48, 95
6, 299132, Note_on_c, 4, 48, 0
6, 299520, Note_on_c, 4, 36, 95
6, 299612, Note_on_c, 4, 36, 0
6, 299616, Note_on_c, 4, 41, 95
6, 299708, Note_on_c, 4, 41, 0
6, 299712, Note_on_c, 4, 45, 95
6, 299804, Note_on_c, 4, 45, 0
6, 299808, Note_on_c, 4, 48, 95
6, 299900, Note_on_c, 4, 48, 0
6, 300288, Note_on_c, 4, 36, 95
6, 300380, Note_on_c, 4, 36, 0
6, 300384, Note_on_c, 4, 41, 95
6, 300476, Note_on_c, 4, 41, 0
6, 300480, Note_on_c, 4, 45, 95
6, 300572, Note_on_c, 4, 45, 0
6, 300576, Note_on_c, 4, 48, 95
6, 300668, Note_on_c, 4, 48, 0
6, 301056, Note_on_c, 4, 36, 95
6, 301100, Note_on_c, 4, 36, 0
6, 301104, Note_on_c, 4, 48, 95
6, 301292, Note_on_c, 4, 48, 0
6, 301440, Note_on_c, 4, 45, 95
6, 301484, Note_on_c, 4, 45, 0
6, 301488, Note_on_c, 4, 57, 95
6, 301676, Note_on_c, 4, 57, 0
6, 301824, Note_on_c, 4, 41, 95
6, 301868, Note_on_c, 4, 41, 0
6, 301872, Note_on_c, 4, 53, 95
6, 302060, Note_on_c, 4, 53, 0
6, 302208, Note_on_c, 4, 43, 95
6, 302252, Note_on_c, 4, 43, 0
6, 302256, Note_on_c, 4, 55, 95
6, 302444, Note_on_c, 4, 55, 0
6, 308736, Note_on_c, 4, 55, 95
6, 308736, Note_on_c, 4, 43, 95
6, 308924, Note_on_c, 4, 43, 0
6, 308924, Note_on_c, 4, 55, 0
6, 308928, Note_on_c, 4, 59, 95
6, 309116, Note_on_c, 4, 59, 0
6, 309120, Note_on_c, 4, 62, 95
6, 309308, Note_on_c, 4, 62, 0
6, 309312, Note_on_c, 4, 59, 95
6, 309500, Note_on_c, 4, 59, 0
6, 309504, Note_on_c, 4, 55, 95
6, 309692, Note_on_c, 4, 55, 0
6, 309696, Note_on_c, 4, 59, 95
6, 309884, Note_on_c, 4, 59, 0
6, 309888, Note_on_c, 4, 62, 95
6, 310076, Note_on_c, 4, 62, 0
6, 310080, Note_on_c, 4, 59, 95
6, 310268, Note_on_c, 4, 59, 0
6, 310272, Note_on_c, 4, 55, 95
6, 310460, Note_on_c, 4, 55, 0
6, 310464, Note_on_c, 4, 59, 95
6, 310652, Note_on_c, 4, 59, 0
6, 310656, Note_on_c, 4, 62, 95
6, 310844, Note_on_c, 4, 62, 0
6, 310848, Note_on_c, 4, 59, 95
6, 311036, Note_on_c, 4, 59, 0
6, 311040, Note_on_c, 4, 55, 95
6, 311228, Note_on_c, 4, 55, 0
6, 311232, Note_on_c, 4, 59, 95
6, 311420, Note_on_c, 4, 59, 0
6, 311424, Note_on_c, 4, 62, 95
6, 311612, Note_on_c, 4, 62, 0
6, 311616, Note_on_c, 4, 59, 95
6, 311804, Note_on_c, 4, 59, 0
6, 311808, Note_on_c, 4, 48, 95
6, 311996, Note_on_c, 4, 48, 0
6, 312192, Note_on_c, 4, 48, 95
6, 312192, Note_on_c, 4, 52, 95
6, 312284, Note_on_c, 4, 52, 0
6, 312288, Note_on_c, 4, 50, 95
6, 312380, Note_on_c, 4, 50, 0
6, 312384, Note_on_c, 4, 52, 95
6, 312476, Note_on_c, 4, 52, 0
6, 312480, Note_on_c, 4, 53, 95
6, 312572, Note_on_c, 4, 53, 0
6, 312572, Note_on_c, 4, 48, 0
6, 312576, Note_on_c, 4, 55, 95
6, 312576, Note_on_c, 4, 52, 95
6, 312956, Note_on_c, 4, 52, 0
6, 312956, Note_on_c, 4, 55, 0
6, 313344, Note_on_c, 4, 48, 95
6, 313532, Note_on_c, 4, 48, 0
6, 314880, Note_on_c, 4, 55, 95
6, 314880, Note_on_c, 4, 43, 95
6, 315068, Note_on_c, 4, 43, 0
6, 315068, Note_on_c, 4, 55, 0
6, 315072, Note_on_c, 4, 59, 95
6, 315260, Note_on_c, 4, 59, 0
6, 315264, Note_on_c, 4, 62, 95
6, 315452, Note_on_c, 4, 62, 0
6, 315456, Note_on_c, 4, 59, 95
6, 315644, Note_on_c, 4, 59, 0
6, 315648, Note_on_c, 4, 55, 95
6, 315836, Note_on_c, 4, 55, 0
6, 315840, Note_on_c, 4, 59, 95
6, 316028, Note_on_c, 4, 59, 0
6, 316032, Note_on_c, 4, 62, 95
6, 316220, Note_on_c, 4, 62, 0
6, 316224, Note_on_c, 4, 59, 95
6, 316412, Note_on_c, 4, 59, 0
6, 316416, Note_on_c, 4, 55, 95
6, 316604, Note_on_c, 4, 55, 0
6, 316608, Note_on_c, 4, 59, 95
6, 316796, Note_on_c, 4, 59, 0
6, 316800, Note_on_c, 4, 62, 95
6, 316988, Note_on_c, 4, 62, 0
6, 316992, Note_on_c, 4, 59, 95
6, 317180, Note_on_c, 4, 59, 0
6, 317184, Note_on_c, 4, 55, 95
6, 317372, Note_on_c, 4, 55, 0
6, 317376, Note_on_c, 4, 59, 95
6, 317564, Note_on_c, 4, 59, 0
6, 317568, Note_on_c, 4, 62, 95
6, 317756, Note_on_c, 4, 62, 0
6, 317760, Note_on_c, 4, 59, 95
6, 317948, Note_on_c, 4, 59, 0
6, 317952, Note_on_c, 4, 48, 95
6, 318140, Note_on_c, 4, 48, 0
6, 318336, Note_on_c, 4, 48, 95
6, 318336, Note_on_c, 4, 52, 95
6, 318428, Note_on_c, 4, 52, 0
6, 318432, Note_on_c, 4, 50, 95
6, 318524, Note_on_c, 4, 50, 0
6, 318528, Note_on_c, 4, 52, 95
6, 318620, Note_on_c, 4, 52, 0
6, 318624, Note_on_c, 4, 53, 95
6, 318716, Note_on_c, 4, 53, 0
6, 318716, Note_on_c, 4, 48, 0
6, 318720, Note_on_c, 4, 55, 95
6, 318720, Note_on_c, 4, 52, 95
6, 319100, Note_on_c, 4, 52, 0
6, 319100, Note_on_c, 4, 55, 0
6, 319488, Note_on_c, 4, 48, 95
6, 319676, Note_on_c, 4, 48, 0
6, 321024, Note_on_c, 4, 55, 95
6, 321088, Note_on_c, 4, 55, 0
6, 339456, Note_on_c, 4, 53, 77
6, 339644, Note_on_c, 4, 53, 0
6, 339648, Note_on_c, 4, 57, 77
6, 339836, Note_on_c, 4, 57, 0
6, 339840, Note_on_c, 4, 60, 77
6, 340028, Note_on_c, 4, 60, 0
6, 340032, Note_on_c, 4, 53, 77
6, 340220, Note_on_c, 4, 53, 0
6, 340224, Note_on_c, 4, 52, 77
6, 340412, Note_on_c, 4, 52, 0
6, 340416, Note_on_c, 4, 55, 77
6, 340604, Note_on_c, 4, 55, 0
6, 340608, Note_on_c, 4, 60, 77
6, 340796, Note_on_c, 4, 60, 0
6, 340800, Note_on_c, 4, 52, 77
6, 340988, Note_on_c, 4, 52, 0
6, 340992, Note_on_c, 4, 53, 77
6, 341180, Note_on_c, 4, 53, 0
6, 341184, Note_on_c, 4, 57, 77
6, 341372, Note_on_c, 4, 57, 0
6, 341376, Note_on_c, 4, 60, 77
6, 341564, Note_on_c, 4, 60, 0
6, 341568, Note_on_c, 4, 53, 77
6, 341756, Note_on_c, 4, 53, 0
6, 341760, Note_on_c, 4, 52, 77
6, 341948, Note_on_c, 4, 52, 0
6, 341952, Note_on_c, 4, 55, 77
6, 342140, Note_on_c, 4, 55, 0
6, 342144, Note_on_c, 4, 60, 77
6, 342332, Note_on_c, 4, 60, 0
6, 342336, Note_on_c, 4, 52, 77
6, 342524, Note_on_c, 4, 52, 0
6, 342528, Note_on_c, 4, 50, 77
6, 342716, Note_on_c, 4, 50, 0
6, 342720, Note_on_c, 4, 62, 77
6, 342812, Note_on_c, 4, 62, 0
6, 342816, Note_on_c, 4, 64, 77
6, 342908, Note_on_c, 4, 64, 0
6, 342912, Note_on_c, 4, 65, 77
6, 343004, Note_on_c, 4, 65, 0
6, 343008, Note_on_c, 4, 64, 77
6, 343100, Note_on_c, 4, 64, 0
6, 343104, Note_on_c, 4, 62, 77
6, 343196, Note_on_c, 4, 62, 0
6, 343200, Note_on_c, 4, 60, 77
6, 343292, Note_on_c, 4, 60, 0
6, 343296, Note_on_c, 4, 59, 77
6, 343388, Note_on_c, 4, 59, 0
6, 343392, Note_on_c, 4, 60, 77
6, 343484, Note_on_c, 4, 60, 0
6, 343488, Note_on_c, 4, 59, 77
6, 343580, Note_on_c, 4, 59, 0
6, 343584, Note_on_c, 4, 57, 77
6, 343676, Note_on_c, 4, 57, 0
6, 343680, Note_on_c, 4, 55, 77
6, 343772, Note_on_c, 4, 55, 0
6, 343776, Note_on_c, 4, 53, 77
6, 343868, Note_on_c, 4, 53, 0
6, 343872, Note_on_c, 4, 52, 77
6, 343964, Note_on_c, 4, 52, 0
6, 343968, Note_on_c, 4, 50, 77
6, 344060, Note_on_c, 4, 50, 0
6, 344064, Note_on_c, 4, 48, 77
6, 344252, Note_on_c, 4, 48, 0
6, 344256, Note_on_c, 4, 60, 77
6, 344348, Note_on_c, 4, 60, 0
6, 344352, Note_on_c, 4, 62, 77
6, 344444, Note_on_c, 4, 62, 0
6, 344448, Note_on_c, 4, 64, 77
6, 344540, Note_on_c, 4, 64, 0
6, 344544, Note_on_c, 4, 62, 77
6, 344636, Note_on_c, 4, 62, 0
6, 344640, Note_on_c, 4, 60, 77
6, 344732, Note_on_c, 4, 60, 0
6, 344736, Note_on_c, 4, 59, 77
6, 344816, Note_on_c, 4, 57, 77
6, 344828, Note_on_c, 4, 59, 0
6, 344908, Note_on_c, 4, 57, 0
6, 344928, Note_on_c, 4, 59, 77
6, 345020, Note_on_c, 4, 59, 0
6, 345024, Note_on_c, 4, 57, 77
6, 345116, Note_on_c, 4, 57, 0
6, 345120, Note_on_c, 4, 55, 77
6, 345212, Note_on_c, 4, 55, 0
6, 345216, Note_on_c, 4, 53, 77
6, 345308, Note_on_c, 4, 53, 0
6, 345312, Note_on_c, 4, 52, 77
6, 345404, Note_on_c, 4, 52, 0
6, 345408, Note_on_c, 4, 50, 77
6, 345500, Note_on_c, 4, 50, 0
6, 345504, Note_on_c, 4, 48, 77
6, 345596, Note_on_c, 4, 48, 0
6, 345600, Note_on_c, 4, 53, 77
6, 345788, Note_on_c, 4, 53, 0
6, 345792, Note_on_c, 4, 65, 77
6, 345980, Note_on_c, 4, 65, 0
6, 345984, Note_on_c, 4, 53, 77
6, 346172, Note_on_c, 4, 53, 0
6, 346176, Note_on_c, 4, 65, 77
6, 346268, Note_on_c, 4, 65, 0
6, 346368, Note_on_c, 4, 55, 77
6, 346460, Note_on_c, 4, 55, 0
6, 346560, Note_on_c, 4, 67, 77
6, 346652, Note_on_c, 4, 67, 0
6, 346752, Note_on_c, 4, 55, 77
6, 346844, Note_on_c, 4, 55, 0
6, 346944, Note_on_c, 4, 67, 77
6, 347036, Note_on_c, 4, 67, 0
6, 347136, Note_on_c, 4, 60, 77
6, 347136, Note_on_c, 4, 48, 77
6, 347228, Note_on_c, 4, 48, 0
6, 347228, Note_on_c, 4, 60, 0
6, 347328, Note_on_c, 4, 62, 77
6, 347328, Note_on_c, 4, 50, 77
6, 347420, Note_on_c, 4, 50, 0
6, 347420, Note_on_c, 4, 62, 0
6, 347520, Note_on_c, 4, 64, 77
6, 347520, Note_on_c, 4, 52, 77
6, 347612, Note_on_c, 4, 52, 0
6, 347612, Note_on_c, 4, 64, 0
6, 347712, Note_on_c, 4, 65, 77
6, 347712, Note_on_c, 4, 53, 77
6, 347804, Note_on_c, 4, 53, 0
6, 347804, Note_on_c, 4, 65, 0
6, 347904, Note_on_c, 4, 67, 77
6, 347904, Note_on_c, 4, 55, 77
6, 348284, Note_on_c, 4, 55, 0
6, 348284, Note_on_c, 4, 67, 0
6, 349056, Note_on_c, 4, 62, 60
6, 349148, Note_on_c, 4, 62, 0
6, 349152, Note_on_c, 4, 60, 60
6, 349244, Note_on_c, 4, 60, 0
6, 349248, Note_on_c, 4, 59, 60
6, 349328, Note_on_c, 4, 57, 60
6, 349340, Note_on_c, 4, 59, 0
6, 349420, Note_on_c, 4, 57, 0
6, 349440, Note_on_c, 4, 55, 60
6, 349820, Note_on_c, 4, 55, 0
6, 349824, Note_on_c, 4, 67, 60
6, 349916, Note_on_c, 4, 67, 0
6, 349920, Note_on_c, 4, 65, 60
6, 350012, Note_on_c, 4, 65, 0
6, 350016, Note_on_c, 4, 64, 60
6, 350108, Note_on_c, 4, 64, 0
6, 350112, Note_on_c, 4, 62, 60
6, 350204, Note_on_c, 4, 62, 0
6, 350208, Note_on_c, 4, 60, 60
6, 350588, Note_on_c, 4, 60, 0
6, 350592, Note_on_c, 4, 55, 60
6, 350684, Note_on_c, 4, 55, 0
6, 350688, Note_on_c, 4, 53, 60
6, 350780, Note_on_c, 4, 53, 0
6, 350784, Note_on_c, 4, 52, 60
6, 350876, Note_on_c, 4, 52, 0
6, 350880, Note_on_c, 4, 50, 60
6, 350972, Note_on_c, 4, 50, 0
6, 350976, Note_on_c, 4, 48, 60
6, 351356, Note_on_c, 4, 48, 0
6, 351360, Note_on_c, 4, 60, 60
6, 351452, Note_on_c, 4, 60, 0
6, 351456, Note_on_c, 4, 59, 60
6, 351548, Note_on_c, 4, 59, 0
6, 351552, Note_on_c, 4, 57, 60
6, 351644, Note_on_c, 4, 57, 0
6, 351648, Note_on_c, 4, 55, 60
6, 351740, Note_on_c, 4, 55, 0
6, 351744, Note_on_c, 4, 53, 61
6, 351836, Note_on_c, 4, 53, 0
6, 351840, Note_on_c, 4, 57, 63
6, 351932, Note_on_c, 4, 57, 0
6, 351936, Note_on_c, 4, 62, 65
6, 352028, Note_on_c, 4, 62, 0
6, 352032, Note_on_c, 4, 65, 67
6, 352124, Note_on_c, 4, 65, 0
6, 353088, Note_on_c, 4, 55, 91
6, 353276, Note_on_c, 4, 55, 0
6, 353280, Note_on_c, 4, 60, 95
6, 353660, Note_on_c, 4, 60, 0
6, 359520, Note_on_c, 4, 55, 60
6, 359612, Note_on_c, 4, 55, 0
6, 359616, Note_on_c, 4, 57, 60
6, 359708, Note_on_c, 4, 57, 0
6, 359712, Note_on_c, 4, 59, 60
6, 359804, Note_on_c, 4, 59, 0
6, 359808, Note_on_c, 4, 60, 60
6, 359900, Note_on_c, 4, 60, 0
6, 359904, Note_on_c, 4, 62, 60
6, 359996, Note_on_c, 4, 62, 0
6, 360000, Note_on_c, 4, 64, 60
6, 360092, Note_on_c, 4, 64, 0
6, 360096, Note_on_c, 4, 62, 60
6, 360188, Note_on_c, 4, 62, 0
6, 360192, Note_on_c, 4, 60, 60
6, 360380, Note_on_c, 4, 60, 0
6, 360384, Note_on_c, 4, 55, 60
6, 360572, Note_on_c, 4, 55, 0
6, 360576, Note_on_c, 4, 62, 60
6, 360764, Note_on_c, 4, 62, 0
6, 360768, Note_on_c, 4, 55, 60
6, 360956, Note_on_c, 4, 55, 0
6, 360960, Note_on_c, 4, 64, 60
6, 361148, Note_on_c, 4, 64, 0
6, 361152, Note_on_c, 4, 55, 60
6, 361340, Note_on_c, 4, 55, 0
6, 361344, Note_on_c, 4, 64, 60
6, 361532, Note_on_c, 4, 64, 0
6, 361536, Note_on_c, 4, 55, 60
6, 361724, Note_on_c, 4, 55, 0
6, 361728, Note_on_c, 4, 60, 60
6, 361916, Note_on_c, 4, 60, 0
6, 361920, Note_on_c, 4, 55, 60
6, 362108, Note_on_c, 4, 55, 0
6, 362112, Note_on_c, 4, 62, 60
6, 362300, Note_on_c, 4, 62, 0
6, 362304, Note_on_c, 4, 55, 60
6, 362492, Note_on_c, 4, 55, 0
6, 362496, Note_on_c, 4, 64, 60
6, 362684, Note_on_c, 4, 64, 0
6, 362688, Note_on_c, 4, 55, 60
6, 362876, Note_on_c, 4, 55, 0
6, 362880, Note_on_c, 4, 64, 60
6, 363068, Note_on_c, 4, 64, 0
6, 363072, Note_on_c, 4, 55, 60
6, 363260, Note_on_c, 4, 55, 0
6, 363264, Note_on_c, 4, 62, 60
6, 363452, Note_on_c, 4, 62, 0
6, 363456, Note_on_c, 4, 55, 60
6, 363644, Note_on_c, 4, 55, 0
6, 363648, Note_on_c, 4, 62, 60
6, 363836, Note_on_c, 4, 62, 0
6, 363840, Note_on_c, 4, 55, 60
6, 364028, Note_on_c, 4, 55, 0
6, 364032, Note_on_c, 4, 64, 60
6, 364220, Note_on_c, 4, 64, 0
6, 364224, Note_on_c, 4, 55, 60
6, 364412, Note_on_c, 4, 55, 0
6, 364416, Note_on_c, 4, 62, 60
6, 364604, Note_on_c, 4, 62, 0
6, 364608, Note_on_c, 4, 55, 60
6, 364796, Note_on_c, 4, 55, 0
6, 364800, Note_on_c, 4, 60, 60
6, 364988, Note_on_c, 4, 60, 0
6, 364992, Note_on_c, 4, 55, 60
6, 365180, Note_on_c, 4, 55, 0
6, 365184, Note_on_c, 4, 59, 60
6, 365372, Note_on_c, 4, 59, 0
6, 365376, Note_on_c, 4, 55, 60
6, 365564, Note_on_c, 4, 55, 0
6, 365568, Note_on_c, 4, 52, 77
6, 365660, Note_on_c, 4, 52, 0
6, 365664, Note_on_c, 4, 55, 77
6, 365756, Note_on_c, 4, 55, 0
6, 365760, Note_on_c, 4, 60, 77
6, 365852, Note_on_c, 4, 60, 0
6, 365856, Note_on_c, 4, 64, 77
6, 365948, Note_on_c, 4, 64, 0
6, 366336, Note_on_c, 4, 53, 77
6, 366428, Note_on_c, 4, 53, 0
6, 366432, Note_on_c, 4, 57, 77
6, 366524, Note_on_c, 4, 57, 0
6, 366528, Note_on_c, 4, 62, 77
6, 366620, Note_on_c, 4, 62, 0
6, 366624, Note_on_c, 4, 65, 77
6, 366716, Note_on_c, 4, 65, 0
6, 367104, Note_on_c, 4, 43, 77
6, 367292, Note_on_c, 4, 43, 0
6, 367488, Note_on_c, 4, 55, 77
6, 367488, Note_on_c, 4, 64, 77
6, 367676, Note_on_c, 4, 64, 0
6, 367676, Note_on_c, 4, 55, 0
6, 367872, Note_on_c, 4, 65, 77
6, 367872, Note_on_c, 4, 55, 77
6, 368060, Note_on_c, 4, 55, 0
6, 368060, Note_on_c, 4, 65, 0
6, 368256, Note_on_c, 4, 62, 77
6, 368256, Note_on_c, 4, 55, 77
6, 368444, Note_on_c, 4, 55, 0
6, 368444, Note_on_c, 4, 62, 0
6, 368640, Note_on_c, 4, 52, 77
6, 368652, Note_on_c, 4, 55, 77
6, 368668, Note_on_c, 4, 60, 77
6, 368684, Note_on_c, 4, 64, 77
6, 369032, Note_on_c, 4, 55, 0
6, 369048, Note_on_c, 4, 60, 0
6, 369064, Note_on_c, 4, 64, 0
6, 369404, Note_on_c, 4, 52, 0
6, 369408, Note_on_c, 4, 53, 77
6, 369420, Note_on_c, 4, 57, 77
6, 369436, Note_on_c, 4, 60, 77
6, 369452, Note_on_c, 4, 65, 77
6, 369800, Note_on_c, 4, 57, 0
6, 369816, Note_on_c, 4, 60, 0
6, 369832, Note_on_c, 4, 65, 0
6, 370172, Note_on_c, 4, 53, 0
6, 370176, Note_on_c, 4, 43, 78
6, 370268, Note_on_c, 4, 43, 0
6, 370272, Note_on_c, 4, 48, 78
6, 370364, Note_on_c, 4, 48, 0
6, 370368, Note_on_c, 4, 52, 79
6, 370460, Note_on_c, 4, 52, 0
6, 370464, Note_on_c, 4, 55, 79
6, 370556, Note_on_c, 4, 55, 0
6, 370944, Note_on_c, 4, 55, 82
6, 371036, Note_on_c, 4, 55, 0
6, 371040, Note_on_c, 4, 60, 83
6, 371132, Note_on_c, 4, 60, 0
6, 371136, Note_on_c, 4, 64, 83
6, 371228, Note_on_c, 4, 64, 0
6, 371232, Note_on_c, 4, 67, 84
6, 371324, Note_on_c, 4, 67, 0
6, 371712, Note_on_c, 4, 55, 87
6, 371900, Note_on_c, 4, 55, 0
6, 371904, Note_on_c, 4, 55, 88
6, 372092, Note_on_c, 4, 55, 0
6, 372096, Note_on_c, 4, 55, 89
6, 372284, Note_on_c, 4, 55, 0
6, 372288, Note_on_c, 4, 55, 90
6, 372476, Note_on_c, 4, 55, 0
6, 372480, Note_on_c, 4, 55, 91
6, 372668, Note_on_c, 4, 55, 0
6, 372672, Note_on_c, 4, 55, 92
6, 372860, Note_on_c, 4, 55, 0
6, 372864, Note_on_c, 4, 55, 93
6, 373052, Note_on_c, 4, 55, 0
6, 373056, Note_on_c, 4, 55, 94
6, 373244, Note_on_c, 4, 55, 0
6, 373248, Note_on_c, 4, 60, 95
6, 373248, Note_on_c, 4, 48, 95
6, 373628, Note_on_c, 4, 48, 0
6, 373628, Note_on_c, 4, 60, 0
6, 399360, Note_on_c, 4, 48, 95
6, 399548, Note_on_c, 4, 48, 0
6, 399552, Note_on_c, 4, 52, 95
6, 399740, Note_on_c, 4, 52, 0
6, 399744, Note_on_c, 4, 55, 95
6, 399932, Note_on_c, 4, 55, 0
6, 399936, Note_on_c, 4, 52, 95
6, 400124, Note_on_c, 4, 52, 0
6, 400128, Note_on_c, 4, 48, 95
6, 400316, Note_on_c, 4, 48, 0
6, 400320, Note_on_c, 4, 52, 95
6, 400508, Note_on_c, 4, 52, 0
6, 400512, Note_on_c, 4, 55, 95
6, 400700, Note_on_c, 4, 55, 0
6, 400704, Note_on_c, 4, 52, 95
6, 400892, Note_on_c, 4, 52, 0
6, 400896, Note_on_c, 4, 48, 95
6, 401084, Note_on_c, 4, 48, 0
6, 401088, Note_on_c, 4, 52, 95
6, 401276, Note_on_c, 4, 52, 0
6, 401280, Note_on_c, 4, 55, 95
6, 401468, Note_on_c, 4, 55, 0
6, 401472, Note_on_c, 4, 52, 95
6, 401660, Note_on_c, 4, 52, 0
6, 401664, Note_on_c, 4, 48, 95
6, 401852, Note_on_c, 4, 48, 0
6, 401856, Note_on_c, 4, 52, 95
6, 402044, Note_on_c, 4, 52, 0
6, 402048, Note_on_c, 4, 55, 95
6, 402236, Note_on_c, 4, 55, 0
6, 402240, Note_on_c, 4, 52, 95
6, 402428, Note_on_c, 4, 52, 0
6, 402432, Note_on_c, 4, 60, 105
6, 403004, Note_on_c, 4, 60, 0
6, 403008, Note_on_c, 4, 55, 105
6, 403184, Note_on_c, 4, 52, 105
6, 403196, Note_on_c, 4, 55, 0
6, 403200, Note_on_c, 4, 60, 105
6, 403372, Note_on_c, 4, 52, 0
6, 403392, Note_on_c, 4, 48, 105
6, 403580, Note_on_c, 4, 48, 0
6, 403584, Note_on_c, 4, 52, 105
6, 403772, Note_on_c, 4, 52, 0
6, 403772, Note_on_c, 4, 60, 0
6, 403776, Note_on_c, 4, 55, 105
6, 403776, Note_on_c, 4, 55, 105
6, 403964, Note_on_c, 4, 55, 0
6, 403964, Note_on_c, 4, 55, 0
6, 403968, Note_on_c, 4, 60, 105
6, 403968, Note_on_c, 4, 52, 105
6, 404156, Note_on_c, 4, 52, 0
6, 404160, Note_on_c, 4, 48, 105
6, 404348, Note_on_c, 4, 48, 0
6, 404352, Note_on_c, 4, 52, 105
6, 404540, Note_on_c, 4, 52, 0
6, 404540, Note_on_c, 4, 60, 0
6, 404544, Note_on_c, 4, 55, 105
6, 404544, Note_on_c, 4, 55, 105
6, 404720, Note_on_c, 4, 60, 105
6, 404732, Note_on_c, 4, 55, 0
6, 404732, Note_on_c, 4, 55, 0
6, 404736, Note_on_c, 4, 52, 105
6, 404924, Note_on_c, 4, 52, 0
6, 404928, Note_on_c, 4, 48, 105
6, 405116, Note_on_c, 4, 48, 0
6, 405120, Note_on_c, 4, 52, 105
6, 405292, Note_on_c, 4, 60, 0
6, 405308, Note_on_c, 4, 52, 0
6, 405312, Note_on_c, 4, 55, 105
6, 405312, Note_on_c, 4, 55, 105
6, 405500, Note_on_c, 4, 55, 0
6, 405500, Note_on_c, 4, 55, 0
6, 405504, Note_on_c, 4, 60, 105
6, 405884, Note_on_c, 4, 60, 0
6, 405888, Note_on_c, 4, 60, 105
6, 405888, Note_on_c, 4, 48, 105
6, 406268, Note_on_c, 4, 48, 0
6, 406268, Note_on_c, 4, 60, 0
6, 406272, Note_on_c, 4, 55, 105
6, 406272, Note_on_c, 4, 43, 105
6, 406652, Note_on_c, 4, 43, 0
6, 406652, Note_on_c, 4, 55, 0
6, 406656, Note_on_c, 4, 52, 105
6, 406656, Note_on_c, 4, 40, 105
6, 407036, Note_on_c, 4, 40, 0
6, 407036, Note_on_c, 4, 52, 0
6, 407040, Note_on_c, 4, 48, 105
6, 407040, Note_on_c, 4, 36, 105
6, 407420, Note_on_c, 4, 36, 0
6, 407420, Note_on_c, 4, 48, 0
6, 407420, End_track
7, 0, Start_track
7, 0, MIDI_port, 0
7, 0, Title_t, "B.Fisher"
7, 0, Control_c, 5, 7, 98
7, 0, Control_c, 5, 10, 63
7, 0, Control_c, 5, 91, 63
7, 0, Control_c, 5, 93, 44
7, 0, End_track
0, 0, End_of_file
