0, 0, Header, 1, 16, 384
1, 0, Start_track
1, 0, Time_signature, 3, 2, 96, 8
1, 0, Sequencer_specific, 3, 0, 0, 65
1, 0, Tempo, 1071428
1, 0, End_track
2, 0, Start_track
2, 0, Title_t, "Mozart"
2, 0, Control_c, 0, 0, 0
2, 0, Program_c, 0, 0
2, 0, Control_c, 0, 7, 80
2, 0, Control_c, 0, 10, 81
2, 0, Control_c, 0, 91, 71
2, 0, Control_c, 0, 93, 64
2, 0, Key_signature, -3, "minor"
2, 0, Control_c, 0, 121, 0
2, 96, Control_c, 0, 10, 73
2, 192, Control_c, 0, 91, 73
2, 240, Control_c, 0, 93, 50
2, 288, Program_c, 0, 0
2, 1152, Note_on_c, 0, 70, 60
2, 1152, Note_on_c, 0, 67, 60
2, 1408, Note_off_c, 0, 70, 100
2, 1408, Note_off_c, 0, 67, 100
2, 1536, Note_on_c, 0, 68, 60
2, 1536, Note_on_c, 0, 65, 60
2, 1664, Note_off_c, 0, 68, 100
2, 1664, Note_off_c, 0, 65, 100
2, 1728, Note_on_c, 0, 67, 60
2, 1728, Note_on_c, 0, 63, 60
2, 1856, Note_off_c, 0, 67, 100
2, 1856, Note_off_c, 0, 63, 100
2, 1920, Note_on_c, 0, 72, 60
2, 1920, Note_on_c, 0, 68, 60
2, 2048, Note_off_c, 0, 72, 100
2, 2048, Note_off_c, 0, 68, 100
2, 2112, Note_on_c, 0, 70, 60
2, 2112, Note_on_c, 0, 67, 60
2, 2240, Note_off_c, 0, 70, 100
2, 2240, Note_off_c, 0, 67, 100
2, 2304, Note_on_c, 0, 70, 60
2, 2304, Note_on_c, 0, 67, 60
2, 2560, Note_off_c, 0, 70, 100
2, 2560, Note_off_c, 0, 67, 100
2, 2688, Note_on_c, 0, 68, 60
2, 2688, Note_on_c, 0, 65, 60
2, 2944, Note_off_c, 0, 68, 100
2, 2944, Note_off_c, 0, 65, 100
2, 3072, Note_on_c, 0, 67, 60
2, 3072, Note_on_c, 0, 63, 60
2, 3328, Note_off_c, 0, 67, 100
2, 3328, Note_off_c, 0, 63, 100
2, 3456, Note_on_c, 0, 64, 60
2, 3712, Note_off_c, 0, 64, 100
2, 3840, Note_on_c, 0, 65, 60
2, 3968, Note_off_c, 0, 65, 100
2, 4032, Note_on_c, 0, 72, 60
2, 4160, Note_off_c, 0, 72, 100
2, 4224, Note_on_c, 0, 70, 60
2, 4288, Note_off_c, 0, 70, 100
2, 4320, Note_on_c, 0, 68, 60
2, 4384, Note_off_c, 0, 68, 100
2, 4416, Note_on_c, 0, 67, 60
2, 4480, Note_off_c, 0, 67, 100
2, 4512, Note_on_c, 0, 65, 60
2, 4576, Note_off_c, 0, 65, 100
2, 4608, Note_on_c, 0, 63, 60
2, 4864, Note_off_c, 0, 63, 100
2, 4992, Note_on_c, 0, 62, 60
2, 5120, Note_off_c, 0, 62, 100
2, 5136, Note_on_c, 0, 58, 60
2, 5168, Note_off_c, 0, 58, 100
2, 5184, Note_on_c, 0, 62, 60
2, 5216, Note_off_c, 0, 62, 100
2, 5232, Note_on_c, 0, 60, 60
2, 5264, Note_off_c, 0, 60, 100
2, 5280, Note_on_c, 0, 63, 60
2, 5312, Note_off_c, 0, 63, 100
2, 5328, Note_on_c, 0, 62, 60
2, 5360, Note_off_c, 0, 62, 100
2, 5376, Note_on_c, 0, 65, 60
2, 5408, Note_off_c, 0, 65, 100
2, 5424, Note_on_c, 0, 63, 60
2, 5456, Note_off_c, 0, 63, 100
2, 5472, Note_on_c, 0, 67, 60
2, 5504, Note_off_c, 0, 67, 100
2, 5520, Note_on_c, 0, 65, 60
2, 5552, Note_off_c, 0, 65, 100
2, 5568, Note_on_c, 0, 68, 60
2, 5600, Note_off_c, 0, 68, 100
2, 5616, Note_on_c, 0, 67, 60
2, 5648, Note_off_c, 0, 67, 100
2, 5664, Note_on_c, 0, 70, 60
2, 5696, Note_off_c, 0, 70, 100
2, 5712, Note_on_c, 0, 68, 60
2, 5744, Note_off_c, 0, 68, 100
2, 5760, Note_on_c, 0, 72, 60
2, 5856, Note_on_c, 0, 70, 60
2, 5888, Note_off_c, 0, 72, 100
2, 6048, Note_off_c, 0, 70, 100
2, 6048, Note_on_c, 0, 72, 60
2, 6080, Note_off_c, 0, 72, 100
2, 6096, Note_on_c, 0, 70, 60
2, 6128, Note_off_c, 0, 70, 100
2, 6144, Note_on_c, 0, 68, 60
2, 6208, Note_off_c, 0, 68, 100
2, 6240, Note_on_c, 0, 67, 60
2, 6304, Note_off_c, 0, 67, 100
2, 6336, Note_on_c, 0, 65, 60
2, 6400, Note_off_c, 0, 65, 100
2, 6432, Note_on_c, 0, 63, 60
2, 6496, Note_off_c, 0, 63, 100
2, 6528, Note_on_c, 0, 79, 60
2, 6592, Note_off_c, 0, 79, 100
2, 6624, Note_on_c, 0, 74, 60
2, 6688, Note_off_c, 0, 74, 100
2, 6720, Note_on_c, 0, 75, 60
2, 6784, Note_off_c, 0, 75, 100
2, 6816, Note_on_c, 0, 72, 60
2, 6880, Note_off_c, 0, 72, 100
2, 6912, Note_on_c, 0, 70, 60
2, 7168, Note_off_c, 0, 70, 100
2, 7296, Note_on_c, 0, 68, 60
2, 7320, Note_off_c, 0, 68, 0
2, 7320, Note_on_c, 0, 70, 60
2, 7344, Note_off_c, 0, 70, 0
2, 7344, Note_on_c, 0, 68, 60
2, 7368, Note_off_c, 0, 68, 0
2, 7368, Note_on_c, 0, 70, 60
2, 7392, Note_off_c, 0, 70, 0
2, 7392, Note_on_c, 0, 68, 60
2, 7416, Note_off_c, 0, 68, 0
2, 7416, Note_on_c, 0, 70, 60
2, 7440, Note_off_c, 0, 70, 0
2, 7440, Note_on_c, 0, 68, 60
2, 7464, Note_off_c, 0, 68, 0
2, 7464, Note_on_c, 0, 70, 60
2, 7488, Note_off_c, 0, 70, 0
2, 7488, Note_on_c, 0, 68, 60
2, 7512, Note_off_c, 0, 68, 0
2, 7512, Note_on_c, 0, 70, 60
2, 7536, Note_off_c, 0, 70, 0
2, 7536, Note_on_c, 0, 68, 60
2, 7560, Note_off_c, 0, 68, 0
2, 7584, Note_on_c, 0, 67, 60
2, 7628, Note_off_c, 0, 67, 100
2, 7632, Note_on_c, 0, 68, 60
2, 7676, Note_off_c, 0, 68, 100
2, 7680, Note_on_c, 0, 67, 60
2, 7744, Note_off_c, 0, 67, 100
2, 7776, Note_on_c, 0, 75, 60
2, 7840, Note_off_c, 0, 75, 100
2, 7872, Note_on_c, 0, 74, 60
2, 7936, Note_off_c, 0, 74, 100
2, 7968, Note_on_c, 0, 73, 60
2, 8032, Note_off_c, 0, 73, 100
2, 8064, Note_on_c, 0, 71, 60
2, 8128, Note_off_c, 0, 71, 100
2, 8128, Note_on_c, 0, 74, 60
2, 8160, Note_off_c, 0, 74, 100
2, 8160, Note_on_c, 0, 72, 60
2, 8224, Note_off_c, 0, 72, 100
2, 8224, Note_on_c, 0, 70, 60
2, 8256, Note_off_c, 0, 70, 100
2, 8256, Note_on_c, 0, 68, 60
2, 8320, Note_off_c, 0, 68, 100
2, 8320, Note_on_c, 0, 67, 60
2, 8352, Note_off_c, 0, 67, 100
2, 8352, Note_on_c, 0, 65, 60
2, 8416, Note_off_c, 0, 65, 100
2, 8448, Note_on_c, 0, 63, 60
2, 9020, Note_off_c, 0, 63, 0
2, 9024, Note_on_c, 0, 67, 60
2, 9116, Note_off_c, 0, 67, 100
2, 9120, Note_on_c, 0, 65, 60
2, 9212, Note_off_c, 0, 65, 100
2, 9216, Note_on_c, 0, 63, 60
2, 9472, Note_off_c, 0, 63, 100
2, 9792, Note_on_c, 0, 67, 60
2, 9792, Note_on_c, 0, 70, 60
2, 9920, Note_off_c, 0, 67, 100
2, 9920, Note_off_c, 0, 70, 100
2, 9984, Note_on_c, 0, 67, 60
2, 9984, Note_on_c, 0, 70, 60
2, 10112, Note_off_c, 0, 67, 100
2, 10112, Note_off_c, 0, 70, 100
2, 10176, Note_on_c, 0, 67, 60
2, 10176, Note_on_c, 0, 70, 60
2, 10304, Note_off_c, 0, 67, 100
2, 10304, Note_off_c, 0, 70, 100
2, 10368, Note_on_c, 0, 68, 90
2, 10368, Note_on_c, 0, 75, 90
2, 10496, Note_off_c, 0, 75, 100
2, 10560, Note_on_c, 0, 74, 60
2, 10752, Note_off_c, 0, 68, 100
2, 10816, Note_off_c, 0, 74, 100
2, 10944, Note_on_c, 0, 82, 60
2, 11008, Note_off_c, 0, 82, 100
2, 11040, Note_on_c, 0, 80, 60
2, 11104, Note_off_c, 0, 80, 100
2, 11136, Note_on_c, 0, 79, 60
2, 11200, Note_off_c, 0, 79, 100
2, 11232, Note_on_c, 0, 77, 60
2, 11296, Note_off_c, 0, 77, 100
2, 11328, Note_on_c, 0, 75, 60
2, 11392, Note_off_c, 0, 75, 100
2, 11424, Note_on_c, 0, 74, 60
2, 11488, Note_off_c, 0, 74, 100
2, 11520, Note_on_c, 0, 77, 60
2, 11584, Note_off_c, 0, 77, 100
2, 11592, Note_on_c, 0, 75, 60
2, 11616, Note_off_c, 0, 75, 0
2, 11616, Note_on_c, 0, 77, 60
2, 11640, Note_off_c, 0, 77, 0
2, 11640, Note_on_c, 0, 75, 60
2, 11664, Note_off_c, 0, 75, 0
2, 11664, Note_on_c, 0, 77, 60
2, 11688, Note_off_c, 0, 77, 0
2, 11688, Note_on_c, 0, 75, 60
2, 11712, Note_off_c, 0, 75, 0
2, 11712, Note_on_c, 0, 77, 60
2, 11736, Note_off_c, 0, 77, 0
2, 11736, Note_on_c, 0, 75, 60
2, 11760, Note_off_c, 0, 75, 0
2, 11760, Note_on_c, 0, 77, 74
2, 11784, Note_off_c, 0, 77, 0
2, 11784, Note_on_c, 0, 75, 74
2, 11808, Note_off_c, 0, 75, 0
2, 11808, Note_on_c, 0, 74, 60
2, 11852, Note_off_c, 0, 74, 0
2, 11856, Note_on_c, 0, 72, 60
2, 11900, Note_off_c, 0, 72, 100
2, 11904, Note_on_c, 0, 70, 60
2, 12032, Note_off_c, 0, 70, 100
2, 12096, Note_on_c, 0, 70, 60
2, 12096, Note_on_c, 0, 67, 60
2, 12224, Note_off_c, 0, 70, 100
2, 12224, Note_off_c, 0, 67, 100
2, 12288, Note_on_c, 0, 70, 60
2, 12288, Note_on_c, 0, 67, 60
2, 12416, Note_off_c, 0, 70, 100
2, 12416, Note_off_c, 0, 67, 100
2, 12480, Note_on_c, 0, 70, 60
2, 12480, Note_on_c, 0, 67, 60
2, 12608, Note_off_c, 0, 70, 100
2, 12608, Note_off_c, 0, 67, 100
2, 12672, Note_on_c, 0, 75, 90
2, 12672, Note_on_c, 0, 68, 90
2, 12800, Note_off_c, 0, 75, 100
2, 12848, Note_on_c, 0, 74, 60
2, 13056, Note_off_c, 0, 68, 100
2, 13104, Note_off_c, 0, 74, 100
2, 13248, Note_on_c, 0, 82, 60
2, 13312, Note_off_c, 0, 82, 100
2, 13344, Note_on_c, 0, 80, 60
2, 13408, Note_off_c, 0, 80, 100
2, 13440, Note_on_c, 0, 79, 60
2, 13504, Note_off_c, 0, 79, 100
2, 13536, Note_on_c, 0, 77, 60
2, 13600, Note_off_c, 0, 77, 100
2, 13632, Note_on_c, 0, 75, 60
2, 13696, Note_off_c, 0, 75, 100
2, 13728, Note_on_c, 0, 74, 60
2, 13792, Note_off_c, 0, 74, 100
2, 13824, Note_on_c, 0, 75, 60
2, 13872, Note_on_c, 0, 77, 60
2, 13904, Note_off_c, 0, 77, 100
2, 13920, Note_on_c, 0, 75, 60
2, 13952, Note_off_c, 0, 75, 100
2, 13952, Note_off_c, 0, 75, 100
2, 13968, Note_on_c, 0, 74, 60
2, 14000, Note_off_c, 0, 74, 100
2, 14016, Note_on_c, 0, 75, 60
2, 14048, Note_off_c, 0, 75, 100
2, 14064, Note_on_c, 0, 77, 60
2, 14096, Note_off_c, 0, 77, 100
2, 14112, Note_on_c, 0, 79, 60
2, 14144, Note_off_c, 0, 79, 100
2, 14160, Note_on_c, 0, 75, 60
2, 14192, Note_off_c, 0, 75, 100
2, 14208, Note_on_c, 0, 70, 60
2, 14336, Note_off_c, 0, 70, 100
2, 14400, Note_on_c, 0, 70, 60
2, 14400, Note_on_c, 0, 67, 60
2, 14528, Note_off_c, 0, 70, 100
2, 14528, Note_off_c, 0, 67, 100
2, 14592, Note_on_c, 0, 65, 60
2, 14608, Note_on_c, 0, 68, 60
2, 14720, Note_off_c, 0, 65, 100
2, 14736, Note_off_c, 0, 68, 100
2, 14784, Note_on_c, 0, 67, 60
2, 14784, Note_on_c, 0, 63, 60
2, 14912, Note_off_c, 0, 67, 100
2, 14912, Note_off_c, 0, 63, 100
2, 14976, Note_on_c, 0, 70, 60
2, 14976, Note_on_c, 0, 63, 60
2, 15168, Note_off_c, 0, 70, 100
2, 15232, Note_off_c, 0, 63, 100
2, 15264, Note_on_c, 0, 67, 60
2, 15328, Note_off_c, 0, 67, 100
2, 15360, Note_on_c, 0, 65, 60
2, 15360, Note_on_c, 0, 62, 60
2, 15616, Note_off_c, 0, 65, 100
2, 15616, Note_off_c, 0, 62, 100
2, 16128, Note_on_c, 0, 65, 82
2, 16224, Note_on_c, 0, 77, 82
2, 16256, Note_off_c, 0, 65, 100
2, 16608, Note_off_c, 0, 77, 100
2, 16704, Note_on_c, 0, 75, 82
2, 16736, Note_off_c, 0, 75, 100
2, 16752, Note_on_c, 0, 74, 82
2, 16784, Note_off_c, 0, 74, 100
2, 16800, Note_on_c, 0, 72, 82
2, 16832, Note_off_c, 0, 72, 100
2, 16848, Note_on_c, 0, 70, 82
2, 16880, Note_off_c, 0, 70, 100
2, 16896, Note_on_c, 0, 69, 60
2, 17024, Note_off_c, 0, 69, 100
2, 17088, Note_on_c, 0, 70, 60
2, 17216, Note_off_c, 0, 70, 100
2, 17280, Note_on_c, 0, 72, 60
2, 17280, Note_on_c, 0, 69, 60
2, 17408, Note_off_c, 0, 69, 100
2, 17472, Note_on_c, 0, 75, 60
2, 17472, Note_on_c, 0, 70, 60
2, 17504, Note_off_c, 0, 75, 100
2, 17520, Note_on_c, 0, 74, 60
2, 17536, Note_off_c, 0, 72, 100
2, 17552, Note_off_c, 0, 74, 100
2, 17568, Note_on_c, 0, 72, 60
2, 17600, Note_off_c, 0, 70, 100
2, 17600, Note_off_c, 0, 72, 100
2, 17616, Note_on_c, 0, 74, 60
2, 17648, Note_off_c, 0, 74, 100
2, 17664, Note_on_c, 0, 75, 60
2, 17664, Note_on_c, 0, 72, 60
2, 17792, Note_off_c, 0, 75, 100
2, 17792, Note_off_c, 0, 72, 100
2, 17856, Note_on_c, 0, 65, 60
2, 17984, Note_off_c, 0, 65, 100
2, 18048, Note_on_c, 0, 65, 60
2, 18176, Note_off_c, 0, 65, 100
2, 18240, Note_on_c, 0, 65, 60
2, 18368, Note_off_c, 0, 65, 100
2, 18432, Note_on_c, 0, 75, 82
2, 18816, Note_off_c, 0, 75, 100
2, 19008, Note_on_c, 0, 77, 82
2, 19040, Note_off_c, 0, 77, 100
2, 19056, Note_on_c, 0, 75, 82
2, 19088, Note_off_c, 0, 75, 100
2, 19104, Note_on_c, 0, 74, 82
2, 19136, Note_off_c, 0, 74, 100
2, 19152, Note_on_c, 0, 72, 82
2, 19184, Note_off_c, 0, 72, 100
2, 19200, Note_on_c, 0, 70, 82
2, 19328, Note_off_c, 0, 70, 100
2, 19392, Note_on_c, 0, 72, 60
2, 19392, Note_on_c, 0, 69, 60
2, 19520, Note_off_c, 0, 72, 100
2, 19520, Note_off_c, 0, 69, 100
2, 19584, Note_on_c, 0, 74, 60
2, 19584, Note_on_c, 0, 70, 60
2, 19712, Note_off_c, 0, 70, 100
2, 19776, Note_on_c, 0, 77, 60
2, 19776, Note_on_c, 0, 72, 60
2, 19808, Note_off_c, 0, 77, 100
2, 19824, Note_on_c, 0, 75, 60
2, 19840, Note_off_c, 0, 74, 100
2, 19856, Note_off_c, 0, 75, 100
2, 19872, Note_on_c, 0, 74, 60
2, 19904, Note_off_c, 0, 72, 100
2, 19904, Note_off_c, 0, 74, 100
2, 19920, Note_on_c, 0, 75, 60
2, 19952, Note_off_c, 0, 75, 100
2, 19968, Note_on_c, 0, 79, 60
2, 19968, Note_on_c, 0, 74, 60
2, 20096, Note_off_c, 0, 79, 100
2, 20096, Note_off_c, 0, 74, 100
2, 20736, Note_on_c, 0, 80, 82
2, 21120, Note_off_c, 0, 80, 100
2, 21312, Note_on_c, 0, 79, 82
2, 21344, Note_off_c, 0, 79, 100
2, 21360, Note_on_c, 0, 77, 82
2, 21392, Note_off_c, 0, 77, 100
2, 21408, Note_on_c, 0, 75, 82
2, 21440, Note_off_c, 0, 75, 100
2, 21456, Note_on_c, 0, 74, 82
2, 21488, Note_off_c, 0, 74, 100
2, 21520, Note_on_c, 0, 75, 82
2, 21648, Note_off_c, 0, 75, 100
2, 21696, Note_on_c, 0, 77, 82
2, 21824, Note_off_c, 0, 77, 100
2, 21888, Note_on_c, 0, 78, 82
2, 22272, Note_off_c, 0, 78, 100
2, 22464, Note_on_c, 0, 80, 82
2, 22528, Note_off_c, 0, 80, 100
2, 22560, Note_on_c, 0, 79, 82
2, 22624, Note_off_c, 0, 79, 100
2, 22656, Note_on_c, 0, 77, 82
2, 22720, Note_off_c, 0, 77, 100
2, 22752, Note_on_c, 0, 75, 82
2, 22816, Note_off_c, 0, 75, 100
2, 22848, Note_on_c, 0, 74, 82
2, 22912, Note_off_c, 0, 74, 100
2, 22944, Note_on_c, 0, 72, 82
2, 23008, Note_off_c, 0, 72, 100
2, 23040, Note_on_c, 0, 77, 60
2, 23088, Note_off_c, 0, 77, 100
2, 23104, Note_on_c, 0, 76, 60
2, 23152, Note_off_c, 0, 76, 100
2, 23168, Note_on_c, 0, 77, 60
2, 23216, Note_off_c, 0, 77, 100
2, 23228, Note_on_c, 0, 79, 60
2, 23276, Note_off_c, 0, 79, 100
2, 23296, Note_on_c, 0, 67, 60
2, 23344, Note_off_c, 0, 67, 100
2, 23360, Note_on_c, 0, 75, 60
2, 23408, Note_off_c, 0, 75, 100
2, 23424, Note_on_c, 0, 70, 60
2, 23680, Note_off_c, 0, 70, 100
2, 23808, Note_on_c, 0, 74, 60
2, 23808, Note_on_c, 0, 72, 60
2, 23872, Note_off_c, 0, 74, 100
2, 23904, Note_on_c, 0, 72, 60
2, 23968, Note_off_c, 0, 72, 100
2, 24000, Note_on_c, 0, 70, 60
2, 24064, Note_off_c, 0, 72, 100
2, 24064, Note_off_c, 0, 70, 100
2, 24096, Note_on_c, 0, 72, 60
2, 24160, Note_off_c, 0, 72, 100
2, 24192, Note_on_c, 0, 70, 60
2, 24192, Note_on_c, 0, 70, 60
2, 24448, Note_off_c, 0, 70, 100
2, 24448, Note_off_c, 0, 70, 100
2, 24768, Note_on_c, 0, 70, 90
2, 24768, Note_on_c, 0, 77, 90
2, 24896, Note_off_c, 0, 70, 100
2, 24896, Note_off_c, 0, 77, 100
2, 24960, Note_on_c, 0, 72, 90
2, 24960, Note_on_c, 0, 77, 90
2, 25088, Note_off_c, 0, 72, 100
2, 25088, Note_off_c, 0, 77, 100
2, 25152, Note_on_c, 0, 77, 90
2, 25152, Note_on_c, 0, 74, 90
2, 25280, Note_off_c, 0, 77, 100
2, 25280, Note_off_c, 0, 74, 100
2, 25344, Note_on_c, 0, 77, 90
2, 25344, Note_on_c, 0, 75, 90
2, 25536, Note_on_c, 0, 77, 90
2, 25568, Note_off_c, 0, 77, 100
2, 25584, Note_on_c, 0, 79, 90
2, 25600, Note_off_c, 0, 77, 100
2, 25616, Note_off_c, 0, 79, 100
2, 25632, Note_on_c, 0, 77, 90
2, 25664, Note_off_c, 0, 77, 100
2, 25680, Note_on_c, 0, 76, 90
2, 25712, Note_off_c, 0, 76, 100
2, 25728, Note_off_c, 0, 75, 100
2, 25728, Note_on_c, 0, 77, 90
2, 25856, Note_off_c, 0, 77, 100
2, 25920, Note_on_c, 0, 77, 90
2, 25920, Note_on_c, 0, 69, 90
2, 26048, Note_off_c, 0, 77, 100
2, 26048, Note_off_c, 0, 69, 100
2, 26112, Note_on_c, 0, 79, 90
2, 26112, Note_on_c, 0, 70, 90
2, 26240, Note_off_c, 0, 79, 100
2, 26240, Note_off_c, 0, 70, 100
2, 26304, Note_on_c, 0, 81, 90
2, 26304, Note_on_c, 0, 72, 90
2, 26432, Note_off_c, 0, 81, 100
2, 26432, Note_off_c, 0, 72, 100
2, 26496, Note_on_c, 0, 82, 90
2, 26496, Note_on_c, 0, 70, 90
2, 26624, Note_off_c, 0, 70, 100
2, 26688, Note_on_c, 0, 82, 90
2, 26720, Note_off_c, 0, 82, 100
2, 26736, Note_on_c, 0, 84, 90
2, 26752, Note_off_c, 0, 82, 100
2, 26768, Note_off_c, 0, 84, 100
2, 26784, Note_on_c, 0, 86, 90
2, 26816, Note_off_c, 0, 86, 100
2, 26832, Note_on_c, 0, 82, 90
2, 26864, Note_off_c, 0, 82, 100
2, 26880, Note_on_c, 0, 77, 90
2, 27008, Note_off_c, 0, 77, 100
2, 27072, Note_on_c, 0, 77, 60
2, 27072, Note_on_c, 0, 74, 60
2, 27260, Note_off_c, 0, 77, 0
2, 27260, Note_off_c, 0, 74, 0
2, 27264, Note_on_c, 0, 75, 60
2, 27264, Note_on_c, 0, 72, 60
2, 27452, Note_off_c, 0, 75, 0
2, 27452, Note_off_c, 0, 72, 0
2, 27456, Note_on_c, 0, 74, 60
2, 27456, Note_on_c, 0, 70, 60
2, 27644, Note_off_c, 0, 74, 0
2, 27644, Note_off_c, 0, 70, 0
2, 27648, Note_on_c, 0, 72, 60
2, 27840, Note_on_c, 0, 72, 60
2, 27872, Note_off_c, 0, 72, 100
2, 27888, Note_on_c, 0, 74, 60
2, 27904, Note_off_c, 0, 72, 100
2, 27920, Note_off_c, 0, 74, 100
2, 27936, Note_on_c, 0, 75, 60
2, 27968, Note_off_c, 0, 75, 100
2, 27984, Note_on_c, 0, 72, 60
2, 28016, Note_off_c, 0, 72, 100
2, 28032, Note_on_c, 0, 79, 60
2, 28160, Note_off_c, 0, 79, 100
2, 28224, Note_on_c, 0, 67, 60
2, 28224, Note_on_c, 0, 72, 60
2, 28352, Note_off_c, 0, 67, 100
2, 28352, Note_off_c, 0, 72, 100
2, 28416, Note_on_c, 0, 65, 60
2, 28416, Note_on_c, 0, 70, 60
2, 28544, Note_off_c, 0, 65, 100
2, 28544, Note_off_c, 0, 70, 100
2, 28608, Note_on_c, 0, 72, 60
2, 28608, Note_on_c, 0, 69, 60
2, 28736, Note_off_c, 0, 72, 100
2, 28736, Note_off_c, 0, 69, 100
2, 28800, Note_on_c, 0, 72, 60
2, 28800, Note_on_c, 0, 69, 60
2, 28992, Note_off_c, 0, 72, 100
2, 29056, Note_off_c, 0, 69, 100
2, 29088, Note_on_c, 0, 73, 60
2, 29152, Note_off_c, 0, 73, 100
2, 29184, Note_on_c, 0, 74, 60
2, 29184, Note_on_c, 0, 70, 60
2, 29312, Note_off_c, 0, 74, 100
2, 29312, Note_off_c, 0, 70, 100
2, 29376, Note_on_c, 0, 77, 82
2, 29376, Note_on_c, 0, 70, 82
2, 29504, Note_off_c, 0, 77, 100
2, 29504, Note_off_c, 0, 70, 100
2, 29568, Note_on_c, 0, 72, 82
2, 29568, Note_on_c, 0, 77, 82
2, 29696, Note_off_c, 0, 72, 100
2, 29696, Note_off_c, 0, 77, 100
2, 29760, Note_on_c, 0, 77, 82
2, 29760, Note_on_c, 0, 74, 82
2, 29888, Note_off_c, 0, 77, 100
2, 29888, Note_off_c, 0, 74, 100
2, 29952, Note_on_c, 0, 77, 82
2, 29952, Note_on_c, 0, 75, 82
2, 30144, Note_on_c, 0, 77, 82
2, 30176, Note_off_c, 0, 77, 100
2, 30192, Note_on_c, 0, 79, 82
2, 30208, Note_off_c, 0, 77, 100
2, 30224, Note_off_c, 0, 79, 100
2, 30240, Note_on_c, 0, 77, 82
2, 30272, Note_off_c, 0, 77, 100
2, 30288, Note_on_c, 0, 76, 82
2, 30320, Note_off_c, 0, 76, 100
2, 30336, Note_off_c, 0, 75, 100
2, 30336, Note_on_c, 0, 77, 82
2, 30464, Note_off_c, 0, 77, 100
2, 30528, Note_on_c, 0, 77, 82
2, 30528, Note_on_c, 0, 69, 82
2, 30656, Note_off_c, 0, 77, 100
2, 30656, Note_off_c, 0, 69, 100
2, 30720, Note_on_c, 0, 79, 82
2, 30720, Note_on_c, 0, 70, 82
2, 30848, Note_off_c, 0, 79, 100
2, 30848, Note_off_c, 0, 70, 100
2, 30912, Note_on_c, 0, 72, 82
2, 30912, Note_on_c, 0, 81, 82
2, 31040, Note_off_c, 0, 72, 100
2, 31040, Note_off_c, 0, 81, 100
2, 31104, Note_on_c, 0, 82, 82
2, 31104, Note_on_c, 0, 70, 82
2, 31232, Note_off_c, 0, 70, 100
2, 31296, Note_on_c, 0, 82, 82
2, 31328, Note_off_c, 0, 82, 100
2, 31344, Note_on_c, 0, 84, 82
2, 31360, Note_off_c, 0, 82, 100
2, 31376, Note_off_c, 0, 84, 100
2, 31392, Note_on_c, 0, 86, 82
2, 31424, Note_off_c, 0, 86, 100
2, 31440, Note_on_c, 0, 82, 82
2, 31472, Note_off_c, 0, 82, 100
2, 31488, Note_on_c, 0, 77, 82
2, 31616, Note_off_c, 0, 77, 100
2, 31680, Note_on_c, 0, 77, 60
2, 31680, Note_on_c, 0, 74, 60
2, 31808, Note_off_c, 0, 77, 100
2, 31808, Note_off_c, 0, 74, 100
2, 31872, Note_on_c, 0, 75, 60
2, 31872, Note_on_c, 0, 72, 60
2, 32000, Note_off_c, 0, 75, 100
2, 32000, Note_off_c, 0, 72, 100
2, 32064, Note_on_c, 0, 74, 60
2, 32064, Note_on_c, 0, 70, 60
2, 32192, Note_off_c, 0, 74, 100
2, 32192, Note_off_c, 0, 70, 100
2, 32256, Note_on_c, 0, 71, 60
2, 32288, Note_off_c, 0, 71, 100
2, 32304, Note_on_c, 0, 72, 60
2, 32336, Note_off_c, 0, 72, 100
2, 32352, Note_on_c, 0, 74, 60
2, 32384, Note_off_c, 0, 74, 100
2, 32400, Note_on_c, 0, 72, 60
2, 32432, Note_off_c, 0, 72, 100
2, 32448, Note_on_c, 0, 75, 60
2, 32480, Note_off_c, 0, 75, 100
2, 32496, Note_on_c, 0, 74, 60
2, 32528, Note_off_c, 0, 74, 100
2, 32544, Note_on_c, 0, 77, 60
2, 32576, Note_off_c, 0, 77, 100
2, 32592, Note_on_c, 0, 75, 60
2, 32624, Note_off_c, 0, 75, 100
2, 32640, Note_on_c, 0, 79, 60
2, 32896, Note_off_c, 0, 79, 100
2, 33024, Note_on_c, 0, 75, 60
2, 33280, Note_off_c, 0, 75, 100
2, 33360, Note_on_c, 0, 69, 60
2, 33392, Note_off_c, 0, 69, 100
2, 33408, Note_on_c, 0, 70, 62
2, 33664, Note_off_c, 0, 70, 100
2, 33984, Note_on_c, 0, 80, 66
2, 34112, Note_off_c, 0, 80, 100
2, 34176, Note_on_c, 0, 79, 68
2, 34304, Note_off_c, 0, 79, 100
2, 34368, Note_on_c, 0, 81, 72
2, 34496, Note_off_c, 0, 81, 100
2, 34560, Note_on_c, 0, 84, 74
2, 34688, Note_off_c, 0, 84, 100
2, 34752, Note_on_c, 0, 82, 82
2, 34880, Note_off_c, 0, 82, 100
2, 35136, Note_on_c, 0, 68, 90
2, 35264, Note_off_c, 0, 68, 100
2, 35328, Note_on_c, 0, 67, 90
2, 35456, Note_off_c, 0, 67, 100
2, 35520, Note_on_c, 0, 69, 90
2, 35520, Note_on_c, 0, 63, 90
2, 35648, Note_off_c, 0, 69, 100
2, 35648, Note_off_c, 0, 63, 100
2, 35712, Note_on_c, 0, 72, 90
2, 35712, Note_on_c, 0, 63, 90
2, 35968, Note_off_c, 0, 72, 100
2, 35968, Note_off_c, 0, 63, 100
2, 36096, Note_on_c, 0, 62, 90
2, 36096, Note_on_c, 0, 70, 90
2, 36224, Note_off_c, 0, 62, 100
2, 36224, Note_off_c, 0, 70, 100
2, 36288, Note_on_c, 0, 62, 60
2, 36288, Note_on_c, 0, 65, 60
2, 36416, Note_off_c, 0, 62, 100
2, 36416, Note_off_c, 0, 65, 100
2, 36480, Note_on_c, 0, 63, 60
2, 36480, Note_on_c, 0, 67, 60
2, 36608, Note_off_c, 0, 63, 100
2, 36608, Note_off_c, 0, 67, 100
2, 36672, Note_on_c, 0, 65, 60
2, 36672, Note_on_c, 0, 68, 60
2, 36800, Note_off_c, 0, 65, 100
2, 36800, Note_off_c, 0, 68, 100
2, 36864, Note_on_c, 0, 70, 60
2, 36864, Note_on_c, 0, 67, 60
2, 37120, Note_off_c, 0, 70, 100
2, 37120, Note_off_c, 0, 67, 100
2, 37248, Note_on_c, 0, 68, 60
2, 37248, Note_on_c, 0, 65, 60
2, 37376, Note_off_c, 0, 68, 100
2, 37376, Note_off_c, 0, 65, 100
2, 37440, Note_on_c, 0, 67, 60
2, 37440, Note_on_c, 0, 63, 60
2, 37568, Note_off_c, 0, 67, 100
2, 37568, Note_off_c, 0, 63, 100
2, 37632, Note_on_c, 0, 72, 60
2, 37632, Note_on_c, 0, 68, 60
2, 37760, Note_off_c, 0, 72, 100
2, 37760, Note_off_c, 0, 68, 100
2, 37824, Note_on_c, 0, 70, 60
2, 37824, Note_on_c, 0, 67, 60
2, 37952, Note_off_c, 0, 70, 100
2, 37952, Note_off_c, 0, 67, 100
2, 38016, Note_on_c, 0, 70, 60
2, 38016, Note_on_c, 0, 67, 60
2, 38272, Note_off_c, 0, 70, 100
2, 38272, Note_off_c, 0, 67, 100
2, 38400, Note_on_c, 0, 68, 60
2, 38400, Note_on_c, 0, 65, 60
2, 38656, Note_off_c, 0, 68, 100
2, 38656, Note_off_c, 0, 65, 100
2, 38784, Note_on_c, 0, 67, 60
2, 38784, Note_on_c, 0, 63, 60
2, 39040, Note_off_c, 0, 67, 100
2, 39040, Note_off_c, 0, 63, 100
2, 39168, Note_on_c, 0, 64, 60
2, 39424, Note_off_c, 0, 64, 100
2, 39552, Note_on_c, 0, 65, 60
2, 39680, Note_off_c, 0, 65, 100
2, 39744, Note_on_c, 0, 72, 60
2, 39872, Note_off_c, 0, 72, 100
2, 39936, Note_on_c, 0, 70, 60
2, 40000, Note_off_c, 0, 70, 100
2, 40032, Note_on_c, 0, 68, 60
2, 40096, Note_off_c, 0, 68, 100
2, 40128, Note_on_c, 0, 67, 60
2, 40192, Note_off_c, 0, 67, 100
2, 40224, Note_on_c, 0, 65, 60
2, 40288, Note_off_c, 0, 65, 100
2, 40320, Note_on_c, 0, 63, 60
2, 40576, Note_off_c, 0, 63, 100
2, 40704, Note_on_c, 0, 62, 60
2, 40832, Note_off_c, 0, 62, 100
2, 40848, Note_on_c, 0, 58, 60
2, 40880, Note_off_c, 0, 58, 100
2, 40896, Note_on_c, 0, 62, 60
2, 40928, Note_off_c, 0, 62, 100
2, 40944, Note_on_c, 0, 60, 60
2, 40976, Note_off_c, 0, 60, 100
2, 40992, Note_on_c, 0, 63, 60
2, 41024, Note_off_c, 0, 63, 100
2, 41040, Note_on_c, 0, 62, 60
2, 41072, Note_off_c, 0, 62, 100
2, 41088, Note_on_c, 0, 65, 60
2, 41120, Note_off_c, 0, 65, 100
2, 41136, Note_on_c, 0, 63, 60
2, 41168, Note_off_c, 0, 63, 100
2, 41184, Note_on_c, 0, 67, 60
2, 41216, Note_off_c, 0, 67, 100
2, 41232, Note_on_c, 0, 65, 60
2, 41264, Note_off_c, 0, 65, 100
2, 41280, Note_on_c, 0, 68, 60
2, 41312, Note_off_c, 0, 68, 100
2, 41328, Note_on_c, 0, 67, 60
2, 41360, Note_off_c, 0, 67, 100
2, 41376, Note_on_c, 0, 70, 60
2, 41408, Note_off_c, 0, 70, 100
2, 41424, Note_on_c, 0, 68, 60
2, 41456, Note_off_c, 0, 68, 100
2, 41472, Note_on_c, 0, 72, 60
2, 41568, Note_on_c, 0, 70, 60
2, 41600, Note_off_c, 0, 72, 100
2, 41760, Note_off_c, 0, 70, 100
2, 41760, Note_on_c, 0, 72, 60
2, 41792, Note_off_c, 0, 72, 100
2, 41808, Note_on_c, 0, 70, 60
2, 41840, Note_off_c, 0, 70, 100
2, 41856, Note_on_c, 0, 68, 60
2, 41920, Note_off_c, 0, 68, 100
2, 41952, Note_on_c, 0, 67, 60
2, 42016, Note_off_c, 0, 67, 100
2, 42048, Note_on_c, 0, 65, 60
2, 42112, Note_off_c, 0, 65, 100
2, 42144, Note_on_c, 0, 63, 60
2, 42208, Note_off_c, 0, 63, 100
2, 42240, Note_on_c, 0, 79, 60
2, 42304, Note_off_c, 0, 79, 100
2, 42336, Note_on_c, 0, 74, 60
2, 42400, Note_off_c, 0, 74, 100
2, 42432, Note_on_c, 0, 75, 60
2, 42496, Note_off_c, 0, 75, 100
2, 42528, Note_on_c, 0, 72, 60
2, 42592, Note_off_c, 0, 72, 100
2, 42624, Note_on_c, 0, 70, 60
2, 42880, Note_off_c, 0, 70, 100
2, 43008, Note_on_c, 0, 68, 60
2, 43032, Note_off_c, 0, 68, 0
2, 43032, Note_on_c, 0, 70, 60
2, 43056, Note_off_c, 0, 70, 0
2, 43056, Note_on_c, 0, 68, 60
2, 43080, Note_off_c, 0, 68, 0
2, 43080, Note_on_c, 0, 70, 60
2, 43104, Note_off_c, 0, 70, 0
2, 43104, Note_on_c, 0, 68, 60
2, 43128, Note_off_c, 0, 68, 0
2, 43128, Note_on_c, 0, 70, 60
2, 43152, Note_off_c, 0, 70, 0
2, 43152, Note_on_c, 0, 68, 60
2, 43176, Note_off_c, 0, 68, 0
2, 43176, Note_on_c, 0, 70, 60
2, 43200, Note_off_c, 0, 70, 0
2, 43200, Note_on_c, 0, 68, 60
2, 43224, Note_off_c, 0, 68, 0
2, 43224, Note_on_c, 0, 70, 60
2, 43248, Note_off_c, 0, 70, 0
2, 43248, Note_on_c, 0, 68, 60
2, 43272, Note_off_c, 0, 68, 0
2, 43296, Note_on_c, 0, 67, 60
2, 43340, Note_off_c, 0, 67, 100
2, 43344, Note_on_c, 0, 68, 60
2, 43388, Note_off_c, 0, 68, 100
2, 43392, Note_on_c, 0, 67, 60
2, 43456, Note_off_c, 0, 67, 100
2, 43488, Note_on_c, 0, 75, 60
2, 43552, Note_off_c, 0, 75, 100
2, 43584, Note_on_c, 0, 74, 60
2, 43648, Note_off_c, 0, 74, 100
2, 43680, Note_on_c, 0, 73, 60
2, 43744, Note_off_c, 0, 73, 100
2, 43776, Note_on_c, 0, 71, 60
2, 43840, Note_off_c, 0, 71, 100
2, 43840, Note_on_c, 0, 74, 60
2, 43872, Note_off_c, 0, 74, 100
2, 43872, Note_on_c, 0, 72, 60
2, 43936, Note_off_c, 0, 72, 100
2, 43936, Note_on_c, 0, 70, 60
2, 43968, Note_off_c, 0, 70, 100
2, 43968, Note_on_c, 0, 68, 60
2, 44032, Note_off_c, 0, 68, 100
2, 44032, Note_on_c, 0, 67, 60
2, 44064, Note_off_c, 0, 67, 100
2, 44064, Note_on_c, 0, 65, 60
2, 44128, Note_off_c, 0, 65, 100
2, 44160, Note_on_c, 0, 63, 60
2, 44732, Note_off_c, 0, 63, 0
2, 44736, Note_on_c, 0, 67, 60
2, 44828, Note_off_c, 0, 67, 100
2, 44832, Note_on_c, 0, 65, 60
2, 44924, Note_off_c, 0, 65, 100
2, 44928, Note_on_c, 0, 63, 60
2, 45184, Note_off_c, 0, 63, 100
2, 45504, Note_on_c, 0, 67, 60
2, 45504, Note_on_c, 0, 70, 60
2, 45632, Note_off_c, 0, 67, 100
2, 45632, Note_off_c, 0, 70, 100
2, 45696, Note_on_c, 0, 67, 60
2, 45696, Note_on_c, 0, 70, 60
2, 45824, Note_off_c, 0, 67, 100
2, 45824, Note_off_c, 0, 70, 100
2, 45888, Note_on_c, 0, 67, 60
2, 45888, Note_on_c, 0, 70, 60
2, 46016, Note_off_c, 0, 67, 100
2, 46016, Note_off_c, 0, 70, 100
2, 46080, Note_on_c, 0, 68, 90
2, 46080, Note_on_c, 0, 75, 90
2, 46208, Note_off_c, 0, 75, 100
2, 46272, Note_on_c, 0, 74, 60
2, 46464, Note_off_c, 0, 68, 100
2, 46528, Note_off_c, 0, 74, 100
2, 46656, Note_on_c, 0, 82, 60
2, 46720, Note_off_c, 0, 82, 100
2, 46752, Note_on_c, 0, 80, 60
2, 46816, Note_off_c, 0, 80, 100
2, 46848, Note_on_c, 0, 79, 60
2, 46912, Note_off_c, 0, 79, 100
2, 46944, Note_on_c, 0, 77, 60
2, 47008, Note_off_c, 0, 77, 100
2, 47040, Note_on_c, 0, 75, 60
2, 47104, Note_off_c, 0, 75, 100
2, 47136, Note_on_c, 0, 74, 60
2, 47200, Note_off_c, 0, 74, 100
2, 47232, Note_on_c, 0, 77, 60
2, 47296, Note_off_c, 0, 77, 100
2, 47304, Note_on_c, 0, 75, 60
2, 47328, Note_off_c, 0, 75, 0
2, 47328, Note_on_c, 0, 77, 60
2, 47352, Note_off_c, 0, 77, 0
2, 47352, Note_on_c, 0, 75, 60
2, 47376, Note_off_c, 0, 75, 0
2, 47376, Note_on_c, 0, 77, 60
2, 47400, Note_off_c, 0, 77, 0
2, 47400, Note_on_c, 0, 75, 60
2, 47424, Note_off_c, 0, 75, 0
2, 47424, Note_on_c, 0, 77, 60
2, 47448, Note_off_c, 0, 77, 0
2, 47448, Note_on_c, 0, 75, 60
2, 47472, Note_off_c, 0, 75, 0
2, 47472, Note_on_c, 0, 77, 74
2, 47496, Note_off_c, 0, 77, 0
2, 47496, Note_on_c, 0, 75, 74
2, 47520, Note_off_c, 0, 75, 0
2, 47520, Note_on_c, 0, 74, 60
2, 47564, Note_off_c, 0, 74, 0
2, 47568, Note_on_c, 0, 72, 60
2, 47612, Note_off_c, 0, 72, 100
2, 47616, Note_on_c, 0, 70, 60
2, 47744, Note_off_c, 0, 70, 100
2, 47808, Note_on_c, 0, 70, 60
2, 47808, Note_on_c, 0, 67, 60
2, 47936, Note_off_c, 0, 70, 100
2, 47936, Note_off_c, 0, 67, 100
2, 48000, Note_on_c, 0, 70, 60
2, 48000, Note_on_c, 0, 67, 60
2, 48128, Note_off_c, 0, 70, 100
2, 48128, Note_off_c, 0, 67, 100
2, 48192, Note_on_c, 0, 70, 60
2, 48192, Note_on_c, 0, 67, 60
2, 48320, Note_off_c, 0, 70, 100
2, 48320, Note_off_c, 0, 67, 100
2, 48384, Note_on_c, 0, 75, 90
2, 48384, Note_on_c, 0, 68, 90
2, 48512, Note_off_c, 0, 75, 100
2, 48560, Note_on_c, 0, 74, 60
2, 48768, Note_off_c, 0, 68, 100
2, 48816, Note_off_c, 0, 74, 100
2, 48960, Note_on_c, 0, 82, 60
2, 49024, Note_off_c, 0, 82, 100
2, 49056, Note_on_c, 0, 80, 60
2, 49120, Note_off_c, 0, 80, 100
2, 49152, Note_on_c, 0, 79, 60
2, 49216, Note_off_c, 0, 79, 100
2, 49248, Note_on_c, 0, 77, 60
2, 49312, Note_off_c, 0, 77, 100
2, 49344, Note_on_c, 0, 75, 60
2, 49408, Note_off_c, 0, 75, 100
2, 49440, Note_on_c, 0, 74, 60
2, 49504, Note_off_c, 0, 74, 100
2, 49536, Note_on_c, 0, 75, 60
2, 49584, Note_on_c, 0, 77, 60
2, 49616, Note_off_c, 0, 77, 100
2, 49632, Note_on_c, 0, 75, 60
2, 49664, Note_off_c, 0, 75, 100
2, 49664, Note_off_c, 0, 75, 100
2, 49680, Note_on_c, 0, 74, 60
2, 49712, Note_off_c, 0, 74, 100
2, 49728, Note_on_c, 0, 75, 60
2, 49760, Note_off_c, 0, 75, 100
2, 49776, Note_on_c, 0, 77, 60
2, 49808, Note_off_c, 0, 77, 100
2, 49824, Note_on_c, 0, 79, 60
2, 49856, Note_off_c, 0, 79, 100
2, 49872, Note_on_c, 0, 75, 60
2, 49904, Note_off_c, 0, 75, 100
2, 49920, Note_on_c, 0, 70, 60
2, 50048, Note_off_c, 0, 70, 100
2, 50112, Note_on_c, 0, 70, 60
2, 50112, Note_on_c, 0, 67, 60
2, 50240, Note_off_c, 0, 70, 100
2, 50240, Note_off_c, 0, 67, 100
2, 50304, Note_on_c, 0, 65, 60
2, 50320, Note_on_c, 0, 68, 60
2, 50432, Note_off_c, 0, 65, 100
2, 50448, Note_off_c, 0, 68, 100
2, 50496, Note_on_c, 0, 67, 60
2, 50496, Note_on_c, 0, 63, 60
2, 50624, Note_off_c, 0, 67, 100
2, 50624, Note_off_c, 0, 63, 100
2, 50688, Note_on_c, 0, 70, 60
2, 50688, Note_on_c, 0, 63, 60
2, 50880, Note_off_c, 0, 70, 100
2, 50944, Note_off_c, 0, 63, 100
2, 50976, Note_on_c, 0, 67, 60
2, 51040, Note_off_c, 0, 67, 100
2, 51072, Note_on_c, 0, 65, 60
2, 51072, Note_on_c, 0, 62, 60
2, 51328, Note_off_c, 0, 65, 100
2, 51328, Note_off_c, 0, 62, 100
2, 51840, Note_on_c, 0, 65, 82
2, 51936, Note_on_c, 0, 77, 82
2, 51968, Note_off_c, 0, 65, 100
2, 52320, Note_off_c, 0, 77, 100
2, 52416, Note_on_c, 0, 75, 82
2, 52448, Note_off_c, 0, 75, 100
2, 52464, Note_on_c, 0, 74, 82
2, 52496, Note_off_c, 0, 74, 100
2, 52512, Note_on_c, 0, 72, 82
2, 52544, Note_off_c, 0, 72, 100
2, 52560, Note_on_c, 0, 70, 82
2, 52592, Note_off_c, 0, 70, 100
2, 52608, Note_on_c, 0, 69, 60
2, 52736, Note_off_c, 0, 69, 100
2, 52800, Note_on_c, 0, 70, 60
2, 52928, Note_off_c, 0, 70, 100
2, 52992, Note_on_c, 0, 72, 60
2, 52992, Note_on_c, 0, 69, 60
2, 53120, Note_off_c, 0, 69, 100
2, 53184, Note_on_c, 0, 75, 60
2, 53184, Note_on_c, 0, 70, 60
2, 53216, Note_off_c, 0, 75, 100
2, 53232, Note_on_c, 0, 74, 60
2, 53248, Note_off_c, 0, 72, 100
2, 53264, Note_off_c, 0, 74, 100
2, 53280, Note_on_c, 0, 72, 60
2, 53312, Note_off_c, 0, 70, 100
2, 53312, Note_off_c, 0, 72, 100
2, 53328, Note_on_c, 0, 74, 60
2, 53360, Note_off_c, 0, 74, 100
2, 53376, Note_on_c, 0, 75, 60
2, 53376, Note_on_c, 0, 72, 60
2, 53504, Note_off_c, 0, 75, 100
2, 53504, Note_off_c, 0, 72, 100
2, 53568, Note_on_c, 0, 65, 60
2, 53696, Note_off_c, 0, 65, 100
2, 53760, Note_on_c, 0, 65, 60
2, 53888, Note_off_c, 0, 65, 100
2, 53952, Note_on_c, 0, 65, 60
2, 54080, Note_off_c, 0, 65, 100
2, 54144, Note_on_c, 0, 75, 82
2, 54528, Note_off_c, 0, 75, 100
2, 54720, Note_on_c, 0, 77, 82
2, 54752, Note_off_c, 0, 77, 100
2, 54768, Note_on_c, 0, 75, 82
2, 54800, Note_off_c, 0, 75, 100
2, 54816, Note_on_c, 0, 74, 82
2, 54848, Note_off_c, 0, 74, 100
2, 54864, Note_on_c, 0, 72, 82
2, 54896, Note_off_c, 0, 72, 100
2, 54912, Note_on_c, 0, 70, 82
2, 55040, Note_off_c, 0, 70, 100
2, 55104, Note_on_c, 0, 72, 60
2, 55104, Note_on_c, 0, 69, 60
2, 55232, Note_off_c, 0, 72, 100
2, 55232, Note_off_c, 0, 69, 100
2, 55296, Note_on_c, 0, 74, 60
2, 55296, Note_on_c, 0, 70, 60
2, 55424, Note_off_c, 0, 70, 100
2, 55488, Note_on_c, 0, 77, 60
2, 55488, Note_on_c, 0, 72, 60
2, 55520, Note_off_c, 0, 77, 100
2, 55536, Note_on_c, 0, 75, 60
2, 55552, Note_off_c, 0, 74, 100
2, 55568, Note_off_c, 0, 75, 100
2, 55584, Note_on_c, 0, 74, 60
2, 55616, Note_off_c, 0, 72, 100
2, 55616, Note_off_c, 0, 74, 100
2, 55632, Note_on_c, 0, 75, 60
2, 55664, Note_off_c, 0, 75, 100
2, 55680, Note_on_c, 0, 79, 60
2, 55680, Note_on_c, 0, 74, 60
2, 55808, Note_off_c, 0, 79, 100
2, 55808, Note_off_c, 0, 74, 100
2, 56448, Note_on_c, 0, 80, 82
2, 56832, Note_off_c, 0, 80, 100
2, 57024, Note_on_c, 0, 79, 82
2, 57056, Note_off_c, 0, 79, 100
2, 57072, Note_on_c, 0, 77, 82
2, 57104, Note_off_c, 0, 77, 100
2, 57120, Note_on_c, 0, 75, 82
2, 57152, Note_off_c, 0, 75, 100
2, 57168, Note_on_c, 0, 74, 82
2, 57200, Note_off_c, 0, 74, 100
2, 57232, Note_on_c, 0, 75, 82
2, 57360, Note_off_c, 0, 75, 100
2, 57408, Note_on_c, 0, 77, 82
2, 57536, Note_off_c, 0, 77, 100
2, 57600, Note_on_c, 0, 78, 82
2, 57984, Note_off_c, 0, 78, 100
2, 58176, Note_on_c, 0, 80, 82
2, 58240, Note_off_c, 0, 80, 100
2, 58272, Note_on_c, 0, 79, 82
2, 58336, Note_off_c, 0, 79, 100
2, 58368, Note_on_c, 0, 77, 82
2, 58432, Note_off_c, 0, 77, 100
2, 58464, Note_on_c, 0, 75, 82
2, 58528, Note_off_c, 0, 75, 100
2, 58560, Note_on_c, 0, 74, 82
2, 58624, Note_off_c, 0, 74, 100
2, 58656, Note_on_c, 0, 72, 82
2, 58720, Note_off_c, 0, 72, 100
2, 58752, Note_on_c, 0, 77, 60
2, 58800, Note_off_c, 0, 77, 100
2, 58816, Note_on_c, 0, 76, 60
2, 58864, Note_off_c, 0, 76, 100
2, 58880, Note_on_c, 0, 77, 60
2, 58928, Note_off_c, 0, 77, 100
2, 58940, Note_on_c, 0, 79, 60
2, 58988, Note_off_c, 0, 79, 100
2, 59008, Note_on_c, 0, 67, 60
2, 59056, Note_off_c, 0, 67, 100
2, 59072, Note_on_c, 0, 75, 60
2, 59120, Note_off_c, 0, 75, 100
2, 59136, Note_on_c, 0, 70, 60
2, 59392, Note_off_c, 0, 70, 100
2, 59520, Note_on_c, 0, 74, 60
2, 59520, Note_on_c, 0, 72, 60
2, 59584, Note_off_c, 0, 74, 100
2, 59616, Note_on_c, 0, 72, 60
2, 59680, Note_off_c, 0, 72, 100
2, 59712, Note_on_c, 0, 70, 60
2, 59776, Note_off_c, 0, 72, 100
2, 59776, Note_off_c, 0, 70, 100
2, 59808, Note_on_c, 0, 72, 60
2, 59872, Note_off_c, 0, 72, 100
2, 59904, Note_on_c, 0, 70, 60
2, 59904, Note_on_c, 0, 70, 60
2, 60160, Note_off_c, 0, 70, 100
2, 60160, Note_off_c, 0, 70, 100
2, 60480, Note_on_c, 0, 70, 90
2, 60480, Note_on_c, 0, 77, 90
2, 60608, Note_off_c, 0, 70, 100
2, 60608, Note_off_c, 0, 77, 100
2, 60672, Note_on_c, 0, 72, 90
2, 60672, Note_on_c, 0, 77, 90
2, 60800, Note_off_c, 0, 72, 100
2, 60800, Note_off_c, 0, 77, 100
2, 60864, Note_on_c, 0, 77, 90
2, 60864, Note_on_c, 0, 74, 90
2, 60992, Note_off_c, 0, 77, 100
2, 60992, Note_off_c, 0, 74, 100
2, 61056, Note_on_c, 0, 77, 90
2, 61056, Note_on_c, 0, 75, 90
2, 61248, Note_on_c, 0, 77, 90
2, 61280, Note_off_c, 0, 77, 100
2, 61296, Note_on_c, 0, 79, 90
2, 61312, Note_off_c, 0, 77, 100
2, 61328, Note_off_c, 0, 79, 100
2, 61344, Note_on_c, 0, 77, 90
2, 61376, Note_off_c, 0, 77, 100
2, 61392, Note_on_c, 0, 76, 90
2, 61424, Note_off_c, 0, 76, 100
2, 61440, Note_off_c, 0, 75, 100
2, 61440, Note_on_c, 0, 77, 90
2, 61568, Note_off_c, 0, 77, 100
2, 61632, Note_on_c, 0, 77, 90
2, 61632, Note_on_c, 0, 69, 90
2, 61760, Note_off_c, 0, 77, 100
2, 61760, Note_off_c, 0, 69, 100
2, 61824, Note_on_c, 0, 79, 90
2, 61824, Note_on_c, 0, 70, 90
2, 61952, Note_off_c, 0, 79, 100
2, 61952, Note_off_c, 0, 70, 100
2, 62016, Note_on_c, 0, 81, 90
2, 62016, Note_on_c, 0, 72, 90
2, 62144, Note_off_c, 0, 81, 100
2, 62144, Note_off_c, 0, 72, 100
2, 62208, Note_on_c, 0, 82, 90
2, 62208, Note_on_c, 0, 70, 90
2, 62336, Note_off_c, 0, 70, 100
2, 62400, Note_on_c, 0, 82, 90
2, 62432, Note_off_c, 0, 82, 100
2, 62448, Note_on_c, 0, 84, 90
2, 62464, Note_off_c, 0, 82, 100
2, 62480, Note_off_c, 0, 84, 100
2, 62496, Note_on_c, 0, 86, 90
2, 62528, Note_off_c, 0, 86, 100
2, 62544, Note_on_c, 0, 82, 90
2, 62576, Note_off_c, 0, 82, 100
2, 62592, Note_on_c, 0, 77, 90
2, 62720, Note_off_c, 0, 77, 100
2, 62784, Note_on_c, 0, 77, 60
2, 62784, Note_on_c, 0, 74, 60
2, 62972, Note_off_c, 0, 77, 0
2, 62972, Note_off_c, 0, 74, 0
2, 62976, Note_on_c, 0, 75, 60
2, 62976, Note_on_c, 0, 72, 60
2, 63164, Note_off_c, 0, 75, 0
2, 63164, Note_off_c, 0, 72, 0
2, 63168, Note_on_c, 0, 74, 60
2, 63168, Note_on_c, 0, 70, 60
2, 63356, Note_off_c, 0, 74, 0
2, 63356, Note_off_c, 0, 70, 0
2, 63360, Note_on_c, 0, 72, 60
2, 63552, Note_on_c, 0, 72, 60
2, 63584, Note_off_c, 0, 72, 100
2, 63600, Note_on_c, 0, 74, 60
2, 63616, Note_off_c, 0, 72, 100
2, 63632, Note_off_c, 0, 74, 100
2, 63648, Note_on_c, 0, 75, 60
2, 63680, Note_off_c, 0, 75, 100
2, 63696, Note_on_c, 0, 72, 60
2, 63728, Note_off_c, 0, 72, 100
2, 63744, Note_on_c, 0, 79, 60
2, 63872, Note_off_c, 0, 79, 100
2, 63936, Note_on_c, 0, 67, 60
2, 63936, Note_on_c, 0, 72, 60
2, 64064, Note_off_c, 0, 67, 100
2, 64064, Note_off_c, 0, 72, 100
2, 64128, Note_on_c, 0, 65, 60
2, 64128, Note_on_c, 0, 70, 60
2, 64256, Note_off_c, 0, 65, 100
2, 64256, Note_off_c, 0, 70, 100
2, 64320, Note_on_c, 0, 72, 60
2, 64320, Note_on_c, 0, 69, 60
2, 64448, Note_off_c, 0, 72, 100
2, 64448, Note_off_c, 0, 69, 100
2, 64512, Note_on_c, 0, 72, 60
2, 64512, Note_on_c, 0, 69, 60
2, 64704, Note_off_c, 0, 72, 100
2, 64768, Note_off_c, 0, 69, 100
2, 64800, Note_on_c, 0, 73, 60
2, 64864, Note_off_c, 0, 73, 100
2, 64896, Note_on_c, 0, 74, 60
2, 64896, Note_on_c, 0, 70, 60
2, 65024, Note_off_c, 0, 74, 100
2, 65024, Note_off_c, 0, 70, 100
2, 65088, Note_on_c, 0, 77, 82
2, 65088, Note_on_c, 0, 70, 82
2, 65216, Note_off_c, 0, 77, 100
2, 65216, Note_off_c, 0, 70, 100
2, 65280, Note_on_c, 0, 72, 82
2, 65280, Note_on_c, 0, 77, 82
2, 65408, Note_off_c, 0, 72, 100
2, 65408, Note_off_c, 0, 77, 100
2, 65472, Note_on_c, 0, 77, 82
2, 65472, Note_on_c, 0, 74, 82
2, 65600, Note_off_c, 0, 77, 100
2, 65600, Note_off_c, 0, 74, 100
2, 65664, Note_on_c, 0, 77, 82
2, 65664, Note_on_c, 0, 75, 82
2, 65856, Note_on_c, 0, 77, 82
2, 65888, Note_off_c, 0, 77, 100
2, 65904, Note_on_c, 0, 79, 82
2, 65920, Note_off_c, 0, 77, 100
2, 65936, Note_off_c, 0, 79, 100
2, 65952, Note_on_c, 0, 77, 82
2, 65984, Note_off_c, 0, 77, 100
2, 66000, Note_on_c, 0, 76, 82
2, 66032, Note_off_c, 0, 76, 100
2, 66048, Note_off_c, 0, 75, 100
2, 66048, Note_on_c, 0, 77, 82
2, 66176, Note_off_c, 0, 77, 100
2, 66240, Note_on_c, 0, 77, 82
2, 66240, Note_on_c, 0, 69, 82
2, 66368, Note_off_c, 0, 77, 100
2, 66368, Note_off_c, 0, 69, 100
2, 66432, Note_on_c, 0, 79, 82
2, 66432, Note_on_c, 0, 70, 82
2, 66560, Note_off_c, 0, 79, 100
2, 66560, Note_off_c, 0, 70, 100
2, 66624, Note_on_c, 0, 72, 82
2, 66624, Note_on_c, 0, 81, 82
2, 66752, Note_off_c, 0, 72, 100
2, 66752, Note_off_c, 0, 81, 100
2, 66816, Note_on_c, 0, 82, 82
2, 66816, Note_on_c, 0, 70, 82
2, 66944, Note_off_c, 0, 70, 100
2, 67008, Note_on_c, 0, 82, 82
2, 67040, Note_off_c, 0, 82, 100
2, 67056, Note_on_c, 0, 84, 82
2, 67072, Note_off_c, 0, 82, 100
2, 67088, Note_off_c, 0, 84, 100
2, 67104, Note_on_c, 0, 86, 82
2, 67136, Note_off_c, 0, 86, 100
2, 67152, Note_on_c, 0, 82, 82
2, 67184, Note_off_c, 0, 82, 100
2, 67200, Note_on_c, 0, 77, 82
2, 67328, Note_off_c, 0, 77, 100
2, 67392, Note_on_c, 0, 77, 60
2, 67392, Note_on_c, 0, 74, 60
2, 67520, Note_off_c, 0, 77, 100
2, 67520, Note_off_c, 0, 74, 100
2, 67584, Note_on_c, 0, 75, 60
2, 67584, Note_on_c, 0, 72, 60
2, 67712, Note_off_c, 0, 75, 100
2, 67712, Note_off_c, 0, 72, 100
2, 67776, Note_on_c, 0, 74, 60
2, 67776, Note_on_c, 0, 70, 60
2, 67904, Note_off_c, 0, 74, 100
2, 67904, Note_off_c, 0, 70, 100
2, 67968, Note_on_c, 0, 71, 60
2, 68000, Note_off_c, 0, 71, 100
2, 68016, Note_on_c, 0, 72, 60
2, 68048, Note_off_c, 0, 72, 100
2, 68064, Note_on_c, 0, 74, 60
2, 68096, Note_off_c, 0, 74, 100
2, 68112, Note_on_c, 0, 72, 60
2, 68144, Note_off_c, 0, 72, 100
2, 68160, Note_on_c, 0, 75, 60
2, 68192, Note_off_c, 0, 75, 100
2, 68208, Note_on_c, 0, 74, 60
2, 68240, Note_off_c, 0, 74, 100
2, 68256, Note_on_c, 0, 77, 60
2, 68288, Note_off_c, 0, 77, 100
2, 68304, Note_on_c, 0, 75, 60
2, 68336, Note_off_c, 0, 75, 100
2, 68352, Note_on_c, 0, 79, 60
2, 68608, Note_off_c, 0, 79, 100
2, 68736, Note_on_c, 0, 75, 60
2, 68992, Note_off_c, 0, 75, 100
2, 69072, Note_on_c, 0, 69, 60
2, 69104, Note_off_c, 0, 69, 100
2, 69120, Note_on_c, 0, 70, 62
2, 69376, Note_off_c, 0, 70, 100
2, 69696, Note_on_c, 0, 80, 66
2, 69824, Note_off_c, 0, 80, 100
2, 69888, Note_on_c, 0, 79, 68
2, 70016, Note_off_c, 0, 79, 100
2, 70080, Note_on_c, 0, 81, 72
2, 70208, Note_off_c, 0, 81, 100
2, 70272, Note_on_c, 0, 84, 74
2, 70400, Note_off_c, 0, 84, 100
2, 70464, Note_on_c, 0, 82, 82
2, 70592, Note_off_c, 0, 82, 100
2, 70848, Note_on_c, 0, 68, 90
2, 70976, Note_off_c, 0, 68, 100
2, 71040, Note_on_c, 0, 67, 90
2, 71168, Note_off_c, 0, 67, 100
2, 71232, Note_on_c, 0, 69, 90
2, 71232, Note_on_c, 0, 63, 90
2, 71360, Note_off_c, 0, 69, 100
2, 71360, Note_off_c, 0, 63, 100
2, 71424, Note_on_c, 0, 72, 90
2, 71424, Note_on_c, 0, 63, 90
2, 71680, Note_off_c, 0, 72, 100
2, 71680, Note_off_c, 0, 63, 100
2, 71808, Note_on_c, 0, 62, 90
2, 71808, Note_on_c, 0, 70, 90
2, 71936, Note_off_c, 0, 62, 100
2, 71936, Note_off_c, 0, 70, 100
2, 72000, Note_on_c, 0, 62, 60
2, 72000, Note_on_c, 0, 65, 60
2, 72128, Note_off_c, 0, 62, 100
2, 72128, Note_off_c, 0, 65, 100
2, 72192, Note_on_c, 0, 63, 60
2, 72192, Note_on_c, 0, 67, 60
2, 72320, Note_off_c, 0, 63, 100
2, 72320, Note_off_c, 0, 67, 100
2, 72384, Note_on_c, 0, 65, 60
2, 72384, Note_on_c, 0, 68, 60
2, 72512, Note_off_c, 0, 65, 100
2, 72512, Note_off_c, 0, 68, 100
2, 72576, Note_on_c, 0, 66, 60
2, 72576, Note_on_c, 0, 69, 90
2, 72832, Note_off_c, 0, 66, 100
2, 72832, Note_off_c, 0, 69, 100
2, 72960, Note_on_c, 0, 70, 60
2, 72960, Note_on_c, 0, 67, 60
2, 73088, Note_off_c, 0, 70, 100
2, 73088, Note_off_c, 0, 67, 100
2, 73152, Note_on_c, 0, 73, 60
2, 73152, Note_on_c, 0, 70, 60
2, 73280, Note_off_c, 0, 73, 100
2, 73280, Note_off_c, 0, 70, 100
2, 73344, Note_on_c, 0, 67, 60
2, 73344, Note_on_c, 0, 64, 60
2, 73472, Note_off_c, 0, 67, 100
2, 73472, Note_off_c, 0, 64, 100
2, 73536, Note_on_c, 0, 72, 60
2, 73536, Note_on_c, 0, 68, 60
2, 73664, Note_off_c, 0, 72, 100
2, 73664, Note_off_c, 0, 68, 100
2, 73728, Note_on_c, 0, 70, 60
2, 73728, Note_on_c, 0, 67, 60
2, 73984, Note_off_c, 0, 70, 100
2, 73984, Note_off_c, 0, 67, 100
2, 74112, Note_on_c, 0, 68, 60
2, 74112, Note_on_c, 0, 65, 60
2, 74240, Note_off_c, 0, 68, 100
2, 74240, Note_off_c, 0, 65, 100
2, 74304, Note_on_c, 0, 77, 60
2, 74432, Note_off_c, 0, 77, 100
2, 74496, Note_on_c, 0, 77, 60
2, 74624, Note_off_c, 0, 77, 100
2, 74688, Note_on_c, 0, 77, 60
2, 74816, Note_off_c, 0, 77, 100
2, 74880, Note_on_c, 0, 78, 60
2, 75136, Note_off_c, 0, 78, 100
2, 75264, Note_on_c, 0, 79, 60
2, 75392, Note_off_c, 0, 79, 100
2, 75456, Note_on_c, 0, 82, 60
2, 75648, Note_on_c, 0, 70, 60
2, 75648, Note_on_c, 0, 60, 60
2, 75712, Note_off_c, 0, 82, 100
2, 75840, Note_on_c, 0, 76, 60
2, 75904, Note_off_c, 0, 70, 100
2, 75904, Note_off_c, 0, 60, 100
2, 75968, Note_off_c, 0, 76, 100
2, 76032, Note_on_c, 0, 79, 60
2, 76032, Note_on_c, 0, 70, 60
2, 76032, Note_on_c, 0, 65, 60
2, 76288, Note_off_c, 0, 79, 100
2, 76288, Note_off_c, 0, 70, 100
2, 76416, Note_off_c, 0, 65, 100
2, 76416, Note_on_c, 0, 77, 60
2, 76416, Note_on_c, 0, 68, 60
2, 76544, Note_off_c, 0, 77, 100
2, 76544, Note_off_c, 0, 68, 100
2, 77376, Note_on_c, 0, 80, 60
2, 77504, Note_off_c, 0, 80, 100
2, 77568, Note_on_c, 0, 79, 60
2, 77632, Note_off_c, 0, 79, 100
2, 77664, Note_on_c, 0, 77, 60
2, 77728, Note_off_c, 0, 77, 100
2, 77760, Note_on_c, 0, 75, 60
2, 77824, Note_off_c, 0, 75, 100
2, 77856, Note_on_c, 0, 73, 60
2, 77920, Note_off_c, 0, 73, 100
2, 77952, Note_on_c, 0, 72, 60
2, 78016, Note_off_c, 0, 72, 100
2, 78048, Note_on_c, 0, 73, 60
2, 78112, Note_off_c, 0, 73, 100
2, 78144, Note_on_c, 0, 77, 60
2, 78208, Note_off_c, 0, 77, 100
2, 78240, Note_on_c, 0, 73, 60
2, 78304, Note_off_c, 0, 73, 100
2, 78336, Note_on_c, 0, 72, 60
2, 78336, Note_on_c, 0, 68, 60
2, 78336, Note_on_c, 0, 62, 60
2, 78592, Note_off_c, 0, 72, 100
2, 78720, Note_on_c, 0, 71, 60
2, 79104, Note_off_c, 0, 68, 100
2, 79104, Note_off_c, 0, 62, 100
2, 79232, Note_off_c, 0, 71, 100
2, 79680, Note_on_c, 0, 72, 60
2, 79680, Note_on_c, 0, 63, 60
2, 79808, Note_off_c, 0, 72, 100
2, 79872, Note_on_c, 0, 71, 60
2, 79936, Note_off_c, 0, 63, 100
2, 79936, Note_off_c, 0, 71, 100
2, 79968, Note_on_c, 0, 72, 60
2, 80032, Note_off_c, 0, 72, 100
2, 80064, Note_on_c, 0, 74, 60
2, 80064, Note_on_c, 0, 63, 60
2, 80128, Note_off_c, 0, 74, 100
2, 80160, Note_on_c, 0, 72, 60
2, 80224, Note_off_c, 0, 72, 100
2, 80256, Note_on_c, 0, 71, 60
2, 80320, Note_off_c, 0, 63, 100
2, 80320, Note_off_c, 0, 71, 100
2, 80352, Note_on_c, 0, 72, 60
2, 80416, Note_off_c, 0, 72, 100
2, 80448, Note_on_c, 0, 75, 60
2, 80448, Note_on_c, 0, 63, 60
2, 80512, Note_off_c, 0, 75, 100
2, 80544, Note_on_c, 0, 74, 60
2, 80576, Note_off_c, 0, 63, 100
2, 80608, Note_off_c, 0, 74, 100
2, 80640, Note_on_c, 0, 71, 62
2, 80640, Note_on_c, 0, 63, 62
2, 80896, Note_off_c, 0, 71, 100
2, 80896, Note_off_c, 0, 63, 100
2, 81024, Note_on_c, 0, 72, 66
2, 81024, Note_on_c, 0, 63, 66
2, 81536, Note_off_c, 0, 72, 100
2, 81536, Note_off_c, 0, 63, 100
2, 81984, Note_on_c, 0, 63, 74
2, 81984, Note_on_c, 0, 72, 74
2, 82112, Note_off_c, 0, 63, 100
2, 82112, Note_off_c, 0, 72, 100
2, 82176, Note_on_c, 0, 72, 78
2, 82176, Note_on_c, 0, 63, 78
2, 82304, Note_off_c, 0, 72, 100
2, 82304, Note_off_c, 0, 63, 100
2, 82368, Note_on_c, 0, 63, 80
2, 82368, Note_on_c, 0, 72, 80
2, 82496, Note_off_c, 0, 63, 100
2, 82496, Note_off_c, 0, 72, 100
2, 82560, Note_on_c, 0, 63, 84
2, 82560, Note_on_c, 0, 72, 84
2, 82688, Note_off_c, 0, 63, 100
2, 82688, Note_off_c, 0, 72, 100
2, 82752, Note_on_c, 0, 72, 86
2, 82752, Note_on_c, 0, 63, 86
2, 82880, Note_off_c, 0, 72, 100
2, 82880, Note_off_c, 0, 63, 100
2, 82944, Note_on_c, 0, 73, 90
2, 82944, Note_on_c, 0, 63, 90
2, 83136, Note_on_c, 0, 73, 90
2, 83168, Note_off_c, 0, 73, 100
2, 83184, Note_on_c, 0, 72, 90
2, 83200, Note_off_c, 0, 63, 100
2, 83200, Note_off_c, 0, 73, 100
2, 83216, Note_off_c, 0, 72, 100
2, 83232, Note_on_c, 0, 70, 90
2, 83264, Note_off_c, 0, 70, 100
2, 83280, Note_on_c, 0, 68, 90
2, 83312, Note_off_c, 0, 68, 100
2, 83328, Note_on_c, 0, 67, 90
2, 83328, Note_on_c, 0, 63, 90
2, 83456, Note_off_c, 0, 67, 100
2, 83456, Note_off_c, 0, 63, 100
2, 83520, Note_on_c, 0, 79, 60
2, 83648, Note_off_c, 0, 79, 100
2, 83712, Note_on_c, 0, 80, 60
2, 83840, Note_off_c, 0, 80, 100
2, 83904, Note_on_c, 0, 72, 60
2, 84032, Note_off_c, 0, 72, 100
2, 84096, Note_on_c, 0, 72, 60
2, 84160, Note_off_c, 0, 72, 100
2, 84192, Note_on_c, 0, 70, 60
2, 84256, Note_off_c, 0, 70, 100
2, 84288, Note_on_c, 0, 73, 60
2, 84352, Note_off_c, 0, 73, 100
2, 84384, Note_on_c, 0, 77, 60
2, 84448, Note_off_c, 0, 77, 100
2, 84480, Note_on_c, 0, 68, 60
2, 84864, Note_off_c, 0, 68, 100
2, 85056, Note_on_c, 0, 72, 60
2, 85056, Note_on_c, 0, 67, 60
2, 85120, Note_off_c, 0, 72, 100
2, 85152, Note_on_c, 0, 70, 60
2, 85184, Note_off_c, 0, 67, 100
2, 85216, Note_off_c, 0, 70, 100
2, 85248, Note_on_c, 0, 68, 60
2, 85248, Note_on_c, 0, 68, 60
2, 85504, Note_off_c, 0, 68, 100
2, 85504, Note_off_c, 0, 68, 100
2, 85824, Note_on_c, 0, 72, 60
2, 85824, Note_on_c, 0, 68, 60
2, 85952, Note_off_c, 0, 72, 100
2, 85952, Note_off_c, 0, 68, 100
2, 86016, Note_on_c, 0, 72, 60
2, 86016, Note_on_c, 0, 68, 60
2, 86144, Note_off_c, 0, 72, 100
2, 86144, Note_off_c, 0, 68, 100
2, 86208, Note_on_c, 0, 72, 60
2, 86208, Note_on_c, 0, 68, 60
2, 86336, Note_off_c, 0, 72, 100
2, 86336, Note_off_c, 0, 68, 100
2, 86400, Note_on_c, 0, 77, 90
2, 86400, Note_on_c, 0, 72, 90
2, 86400, Note_on_c, 0, 70, 90
2, 86528, Note_off_c, 0, 77, 100
2, 86592, Note_on_c, 0, 75, 90
2, 86784, Note_off_c, 0, 72, 100
2, 86784, Note_off_c, 0, 70, 100
2, 86848, Note_off_c, 0, 75, 100
2, 86976, Note_on_c, 0, 72, 60
2, 86976, Note_on_c, 0, 70, 60
2, 87104, Note_off_c, 0, 72, 100
2, 87104, Note_off_c, 0, 70, 100
2, 87168, Note_on_c, 0, 72, 60
2, 87168, Note_on_c, 0, 70, 60
2, 87296, Note_off_c, 0, 72, 100
2, 87296, Note_off_c, 0, 70, 100
2, 87360, Note_on_c, 0, 72, 60
2, 87360, Note_on_c, 0, 70, 60
2, 87488, Note_off_c, 0, 72, 100
2, 87488, Note_off_c, 0, 70, 100
2, 87552, Note_on_c, 0, 79, 90
2, 87552, Note_on_c, 0, 72, 90
2, 87552, Note_on_c, 0, 68, 90
2, 87680, Note_off_c, 0, 79, 100
2, 87744, Note_on_c, 0, 77, 90
2, 87936, Note_off_c, 0, 72, 100
2, 87936, Note_off_c, 0, 68, 100
2, 88000, Note_off_c, 0, 77, 100
2, 88128, Note_on_c, 0, 72, 60
2, 88128, Note_on_c, 0, 68, 60
2, 88256, Note_off_c, 0, 72, 100
2, 88256, Note_off_c, 0, 68, 100
2, 88320, Note_on_c, 0, 72, 60
2, 88320, Note_on_c, 0, 68, 60
2, 88448, Note_off_c, 0, 72, 100
2, 88448, Note_off_c, 0, 68, 100
2, 88496, Note_on_c, 0, 72, 60
2, 88512, Note_on_c, 0, 68, 60
2, 88624, Note_off_c, 0, 72, 100
2, 88640, Note_off_c, 0, 68, 100
2, 88704, Note_on_c, 0, 80, 90
2, 88704, Note_on_c, 0, 72, 90
2, 88704, Note_on_c, 0, 68, 90
2, 88832, Note_off_c, 0, 80, 100
2, 88896, Note_on_c, 0, 78, 90
2, 89088, Note_off_c, 0, 72, 100
2, 89088, Note_off_c, 0, 68, 100
2, 89152, Note_off_c, 0, 78, 100
2, 89280, Note_on_c, 0, 72, 60
2, 89280, Note_on_c, 0, 68, 60
2, 89408, Note_off_c, 0, 72, 100
2, 89408, Note_off_c, 0, 68, 100
2, 89472, Note_on_c, 0, 68, 60
2, 89472, Note_on_c, 0, 72, 60
2, 89600, Note_off_c, 0, 68, 100
2, 89600, Note_off_c, 0, 72, 100
2, 89664, Note_on_c, 0, 72, 60
2, 89664, Note_on_c, 0, 68, 60
2, 89792, Note_off_c, 0, 72, 100
2, 89792, Note_off_c, 0, 68, 100
2, 89856, Note_on_c, 0, 78, 90
2, 89856, Note_on_c, 0, 73, 90
2, 89856, Note_on_c, 0, 68, 90
2, 90048, Note_off_c, 0, 78, 100
2, 90048, Note_on_c, 0, 76, 90
2, 90240, Note_off_c, 0, 73, 100
2, 90240, Note_off_c, 0, 68, 100
2, 90304, Note_off_c, 0, 76, 100
2, 90432, Note_on_c, 0, 76, 60
2, 90432, Note_on_c, 0, 68, 60
2, 90560, Note_off_c, 0, 76, 100
2, 90560, Note_off_c, 0, 68, 100
2, 90624, Note_on_c, 0, 76, 60
2, 90624, Note_on_c, 0, 68, 60
2, 90752, Note_off_c, 0, 76, 100
2, 90752, Note_off_c, 0, 68, 100
2, 90816, Note_on_c, 0, 68, 60
2, 90816, Note_on_c, 0, 76, 60
2, 90944, Note_off_c, 0, 68, 100
2, 90944, Note_off_c, 0, 76, 100
2, 91008, Note_on_c, 0, 75, 60
2, 91008, Note_on_c, 0, 68, 60
2, 91200, Note_off_c, 0, 75, 100
2, 91296, Note_on_c, 0, 77, 60
2, 91328, Note_off_c, 0, 77, 100
2, 91344, Note_on_c, 0, 75, 60
2, 91376, Note_off_c, 0, 75, 100
2, 91392, Note_off_c, 0, 68, 100
2, 91392, Note_on_c, 0, 74, 60
2, 91520, Note_off_c, 0, 74, 100
2, 91584, Note_on_c, 0, 68, 44
2, 91584, Note_on_c, 0, 62, 44
2, 91712, Note_off_c, 0, 68, 100
2, 91712, Note_off_c, 0, 62, 100
2, 91776, Note_on_c, 0, 68, 44
2, 91776, Note_on_c, 0, 62, 44
2, 91904, Note_off_c, 0, 68, 100
2, 91904, Note_off_c, 0, 62, 100
2, 91968, Note_on_c, 0, 68, 44
2, 91968, Note_on_c, 0, 62, 44
2, 92096, Note_off_c, 0, 68, 100
2, 92096, Note_off_c, 0, 62, 100
2, 92160, Note_on_c, 0, 68, 44
2, 92160, Note_on_c, 0, 62, 44
2, 92416, Note_off_c, 0, 68, 100
2, 92416, Note_off_c, 0, 62, 100
2, 92736, Note_on_c, 0, 80, 44
2, 92736, Note_on_c, 0, 74, 44
2, 92864, Note_off_c, 0, 80, 100
2, 92864, Note_off_c, 0, 74, 100
2, 92928, Note_on_c, 0, 80, 44
2, 92928, Note_on_c, 0, 74, 44
2, 93056, Note_off_c, 0, 80, 100
2, 93056, Note_off_c, 0, 74, 100
2, 93120, Note_on_c, 0, 80, 44
2, 93120, Note_on_c, 0, 74, 44
2, 93248, Note_off_c, 0, 80, 100
2, 93248, Note_off_c, 0, 74, 100
2, 93312, Note_on_c, 0, 80, 44
2, 93312, Note_on_c, 0, 74, 44
2, 93408, Note_on_c, 0, 82, 44
2, 93440, Note_off_c, 0, 82, 100
2, 93456, Note_on_c, 0, 80, 44
2, 93488, Note_off_c, 0, 80, 100
2, 93504, Note_on_c, 0, 79, 44
2, 93536, Note_off_c, 0, 79, 100
2, 93552, Note_on_c, 0, 80, 44
2, 93568, Note_off_c, 0, 74, 100
2, 93568, Note_off_c, 0, 80, 100
2, 93584, Note_off_c, 0, 80, 100
2, 93600, Note_on_c, 0, 82, 44
2, 93632, Note_off_c, 0, 82, 100
2, 93648, Note_on_c, 0, 84, 44
2, 93680, Note_off_c, 0, 84, 100
2, 93696, Note_on_c, 0, 82, 44
2, 93760, Note_off_c, 0, 82, 100
2, 93792, Note_on_c, 0, 80, 44
2, 93856, Note_off_c, 0, 80, 100
2, 93888, Note_on_c, 0, 79, 44
2, 93952, Note_off_c, 0, 79, 100
2, 93984, Note_on_c, 0, 77, 44
2, 94048, Note_off_c, 0, 77, 100
2, 94080, Note_on_c, 0, 75, 44
2, 94144, Note_off_c, 0, 75, 100
2, 94176, Note_on_c, 0, 74, 44
2, 94240, Note_off_c, 0, 74, 100
2, 94272, Note_on_c, 0, 72, 44
2, 94336, Note_off_c, 0, 72, 100
2, 94368, Note_on_c, 0, 70, 44
2, 94432, Note_off_c, 0, 70, 100
2, 94464, Note_on_c, 0, 70, 44
2, 94464, Note_on_c, 0, 67, 44
2, 94656, Note_off_c, 0, 70, 100
2, 94720, Note_off_c, 0, 67, 100
2, 94752, Note_on_c, 0, 72, 44
2, 94784, Note_off_c, 0, 72, 100
2, 94800, Note_on_c, 0, 68, 44
2, 94832, Note_off_c, 0, 68, 100
2, 94848, Note_on_c, 0, 68, 44
2, 94848, Note_on_c, 0, 65, 44
2, 94976, Note_off_c, 0, 68, 100
2, 94976, Note_off_c, 0, 65, 100
2, 95040, Note_on_c, 0, 67, 44
2, 95040, Note_on_c, 0, 63, 44
2, 95168, Note_off_c, 0, 67, 100
2, 95168, Note_off_c, 0, 63, 100
2, 95232, Note_on_c, 0, 72, 44
2, 95232, Note_on_c, 0, 68, 44
2, 95360, Note_off_c, 0, 72, 100
2, 95360, Note_off_c, 0, 68, 100
2, 95424, Note_on_c, 0, 70, 44
2, 95424, Note_on_c, 0, 67, 44
2, 95552, Note_off_c, 0, 70, 100
2, 95552, Note_off_c, 0, 67, 100
2, 95616, Note_on_c, 0, 70, 44
2, 95616, Note_on_c, 0, 67, 44
2, 95808, Note_off_c, 0, 70, 100
2, 95872, Note_off_c, 0, 67, 100
2, 95904, Note_on_c, 0, 72, 44
2, 95936, Note_off_c, 0, 72, 100
2, 95952, Note_on_c, 0, 70, 44
2, 95984, Note_off_c, 0, 70, 100
2, 96000, Note_on_c, 0, 68, 44
2, 96256, Note_off_c, 0, 68, 100
2, 96384, Note_on_c, 0, 67, 44
2, 96640, Note_off_c, 0, 67, 100
2, 96768, Note_on_c, 0, 67, 60
2, 96832, Note_off_c, 0, 67, 100
2, 96864, Note_on_c, 0, 64, 60
2, 96928, Note_off_c, 0, 64, 100
2, 96960, Note_on_c, 0, 65, 60
2, 97024, Note_off_c, 0, 65, 100
2, 97056, Note_on_c, 0, 67, 60
2, 97120, Note_off_c, 0, 67, 100
2, 97152, Note_on_c, 0, 68, 60
2, 97216, Note_off_c, 0, 68, 100
2, 97248, Note_on_c, 0, 69, 60
2, 97312, Note_off_c, 0, 69, 100
2, 97344, Note_on_c, 0, 70, 60
2, 97408, Note_off_c, 0, 70, 100
2, 97440, Note_on_c, 0, 71, 60
2, 97504, Note_off_c, 0, 71, 100
2, 97536, Note_on_c, 0, 74, 60
2, 97568, Note_off_c, 0, 74, 100
2, 97584, Note_on_c, 0, 72, 60
2, 97616, Note_off_c, 0, 72, 100
2, 97632, Note_on_c, 0, 71, 60
2, 97664, Note_off_c, 0, 71, 100
2, 97680, Note_on_c, 0, 72, 60
2, 97712, Note_off_c, 0, 72, 100
2, 97728, Note_on_c, 0, 70, 60
2, 97760, Note_off_c, 0, 70, 100
2, 97776, Note_on_c, 0, 68, 60
2, 97808, Note_off_c, 0, 68, 100
2, 97824, Note_on_c, 0, 67, 60
2, 97856, Note_off_c, 0, 67, 100
2, 97872, Note_on_c, 0, 65, 60
2, 97904, Note_off_c, 0, 65, 100
2, 97920, Note_on_c, 0, 63, 60
2, 98176, Note_off_c, 0, 63, 100
2, 98304, Note_on_c, 0, 62, 60
2, 98336, Note_off_c, 0, 62, 100
2, 98352, Note_on_c, 0, 58, 60
2, 98384, Note_off_c, 0, 58, 100
2, 98400, Note_on_c, 0, 57, 60
2, 98432, Note_off_c, 0, 57, 100
2, 98448, Note_on_c, 0, 58, 60
2, 98480, Note_off_c, 0, 58, 100
2, 98496, Note_on_c, 0, 59, 60
2, 98528, Note_off_c, 0, 59, 100
2, 98544, Note_on_c, 0, 60, 60
2, 98576, Note_off_c, 0, 60, 100
2, 98592, Note_on_c, 0, 61, 60
2, 98624, Note_off_c, 0, 61, 100
2, 98640, Note_on_c, 0, 62, 60
2, 98672, Note_off_c, 0, 62, 100
2, 98688, Note_on_c, 0, 63, 60
2, 98720, Note_off_c, 0, 63, 100
2, 98736, Note_on_c, 0, 64, 60
2, 98768, Note_off_c, 0, 64, 100
2, 98784, Note_on_c, 0, 65, 60
2, 98816, Note_off_c, 0, 65, 100
2, 98832, Note_on_c, 0, 66, 60
2, 98864, Note_off_c, 0, 66, 100
2, 98880, Note_on_c, 0, 67, 60
2, 98912, Note_off_c, 0, 67, 100
2, 98928, Note_on_c, 0, 68, 60
2, 98960, Note_off_c, 0, 68, 100
2, 98976, Note_on_c, 0, 69, 60
2, 99008, Note_off_c, 0, 69, 100
2, 99024, Note_on_c, 0, 70, 60
2, 99056, Note_off_c, 0, 70, 100
2, 99072, Note_on_c, 0, 70, 60
2, 99072, Note_on_c, 0, 67, 60
2, 99264, Note_off_c, 0, 70, 100
2, 99264, Note_off_c, 0, 67, 100
2, 99360, Note_on_c, 0, 72, 60
2, 99392, Note_off_c, 0, 72, 100
2, 99408, Note_on_c, 0, 70, 60
2, 99440, Note_off_c, 0, 70, 100
2, 99456, Note_on_c, 0, 68, 60
2, 99488, Note_off_c, 0, 68, 100
2, 99504, Note_on_c, 0, 67, 60
2, 99536, Note_off_c, 0, 67, 100
2, 99552, Note_on_c, 0, 72, 60
2, 99584, Note_off_c, 0, 72, 100
2, 99600, Note_on_c, 0, 70, 60
2, 99632, Note_off_c, 0, 70, 100
2, 99648, Note_on_c, 0, 75, 60
2, 99680, Note_off_c, 0, 75, 100
2, 99696, Note_on_c, 0, 74, 60
2, 99728, Note_off_c, 0, 74, 100
2, 99744, Note_on_c, 0, 77, 60
2, 99776, Note_off_c, 0, 77, 100
2, 99792, Note_on_c, 0, 75, 60
2, 99824, Note_off_c, 0, 75, 100
2, 99840, Note_on_c, 0, 80, 60
2, 99872, Note_off_c, 0, 80, 100
2, 99888, Note_on_c, 0, 79, 60
2, 99920, Note_off_c, 0, 79, 100
2, 99936, Note_on_c, 0, 78, 60
2, 99968, Note_off_c, 0, 78, 100
2, 99984, Note_on_c, 0, 79, 60
2, 100016, Note_off_c, 0, 79, 100
2, 100032, Note_on_c, 0, 77, 60
2, 100064, Note_off_c, 0, 77, 100
2, 100080, Note_on_c, 0, 75, 60
2, 100112, Note_off_c, 0, 75, 100
2, 100128, Note_on_c, 0, 74, 60
2, 100160, Note_off_c, 0, 74, 100
2, 100176, Note_on_c, 0, 72, 60
2, 100208, Note_off_c, 0, 72, 100
2, 100224, Note_on_c, 0, 70, 60
2, 100352, Note_off_c, 0, 70, 100
2, 100416, Note_on_c, 0, 69, 60
2, 100672, Note_off_c, 0, 69, 100
2, 100800, Note_on_c, 0, 68, 60
2, 100928, Note_off_c, 0, 68, 100
2, 100992, Note_on_c, 0, 68, 60
2, 101056, Note_off_c, 0, 68, 100
2, 101088, Note_on_c, 0, 67, 60
2, 101152, Note_off_c, 0, 67, 100
2, 101184, Note_on_c, 0, 75, 60
2, 101248, Note_off_c, 0, 75, 100
2, 101280, Note_on_c, 0, 73, 60
2, 101344, Note_off_c, 0, 73, 100
2, 101376, Note_on_c, 0, 71, 60
2, 101440, Note_off_c, 0, 71, 100
2, 101472, Note_on_c, 0, 72, 60
2, 101536, Note_off_c, 0, 72, 100
2, 101568, Note_on_c, 0, 74, 60
2, 101632, Note_off_c, 0, 74, 100
2, 101664, Note_on_c, 0, 75, 60
2, 101728, Note_off_c, 0, 75, 100
2, 101760, Note_on_c, 0, 75, 60
2, 101888, Note_off_c, 0, 75, 100
2, 101952, Note_on_c, 0, 70, 60
2, 102080, Note_off_c, 0, 70, 100
2, 102144, Note_on_c, 0, 70, 60
2, 102208, Note_off_c, 0, 70, 100
2, 102240, Note_on_c, 0, 72, 60
2, 102272, Note_off_c, 0, 72, 100
2, 102288, Note_on_c, 0, 70, 60
2, 102320, Note_off_c, 0, 70, 100
2, 102336, Note_on_c, 0, 70, 60
2, 102368, Note_off_c, 0, 70, 100
2, 102384, Note_on_c, 0, 68, 60
2, 102416, Note_off_c, 0, 68, 100
2, 102432, Note_on_c, 0, 67, 60
2, 102464, Note_off_c, 0, 67, 100
2, 102480, Note_on_c, 0, 65, 60
2, 102512, Note_off_c, 0, 65, 100
2, 102528, Note_on_c, 0, 63, 60
2, 102784, Note_off_c, 0, 63, 100
2, 103104, Note_on_c, 0, 70, 60
2, 103104, Note_on_c, 0, 67, 60
2, 103232, Note_off_c, 0, 70, 100
2, 103232, Note_off_c, 0, 67, 100
2, 103296, Note_on_c, 0, 67, 60
2, 103296, Note_on_c, 0, 70, 60
2, 103424, Note_off_c, 0, 67, 100
2, 103424, Note_off_c, 0, 70, 100
2, 103488, Note_on_c, 0, 70, 60
2, 103488, Note_on_c, 0, 67, 60
2, 103616, Note_off_c, 0, 70, 100
2, 103616, Note_off_c, 0, 67, 100
2, 103680, Note_on_c, 0, 75, 90
2, 103680, Note_on_c, 0, 68, 90
2, 103808, Note_off_c, 0, 75, 100
2, 103872, Note_on_c, 0, 74, 90
2, 104064, Note_off_c, 0, 68, 100
2, 104128, Note_off_c, 0, 74, 100
2, 104256, Note_on_c, 0, 82, 60
2, 104320, Note_off_c, 0, 82, 100
2, 104352, Note_on_c, 0, 80, 60
2, 104416, Note_off_c, 0, 80, 100
2, 104448, Note_on_c, 0, 79, 60
2, 104512, Note_off_c, 0, 79, 100
2, 104544, Note_on_c, 0, 77, 60
2, 104608, Note_off_c, 0, 77, 100
2, 104640, Note_on_c, 0, 75, 60
2, 104704, Note_off_c, 0, 75, 100
2, 104736, Note_on_c, 0, 74, 60
2, 104800, Note_off_c, 0, 74, 100
2, 104832, Note_on_c, 0, 77, 60
2, 104924, Note_off_c, 0, 77, 100
2, 104928, Note_on_c, 0, 75, 60
2, 104952, Note_off_c, 0, 75, 0
2, 104952, Note_on_c, 0, 77, 60
2, 104976, Note_off_c, 0, 77, 0
2, 104976, Note_on_c, 0, 75, 60
2, 105000, Note_off_c, 0, 75, 0
2, 105000, Note_on_c, 0, 77, 60
2, 105024, Note_off_c, 0, 77, 0
2, 105024, Note_on_c, 0, 75, 60
2, 105048, Note_off_c, 0, 75, 0
2, 105048, Note_on_c, 0, 77, 60
2, 105072, Note_off_c, 0, 77, 0
2, 105072, Note_on_c, 0, 74, 60
2, 105096, Note_off_c, 0, 74, 0
2, 105096, Note_on_c, 0, 75, 60
2, 105120, Note_off_c, 0, 75, 0
2, 105120, Note_on_c, 0, 74, 60
2, 105164, Note_off_c, 0, 74, 100
2, 105168, Note_on_c, 0, 72, 60
2, 105212, Note_off_c, 0, 72, 100
2, 105216, Note_on_c, 0, 70, 60
2, 105344, Note_off_c, 0, 70, 100
2, 105408, Note_on_c, 0, 70, 60
2, 105408, Note_on_c, 0, 67, 60
2, 105536, Note_off_c, 0, 70, 100
2, 105536, Note_off_c, 0, 67, 100
2, 105600, Note_on_c, 0, 70, 60
2, 105600, Note_on_c, 0, 67, 60
2, 105728, Note_off_c, 0, 70, 100
2, 105728, Note_off_c, 0, 67, 100
2, 105792, Note_on_c, 0, 70, 60
2, 105792, Note_on_c, 0, 67, 60
2, 105920, Note_off_c, 0, 70, 100
2, 105920, Note_off_c, 0, 67, 100
2, 105984, Note_on_c, 0, 75, 90
2, 105984, Note_on_c, 0, 68, 90
2, 106048, Note_off_c, 0, 75, 100
2, 106080, Note_on_c, 0, 74, 90
2, 106112, Note_off_c, 0, 68, 100
2, 106144, Note_off_c, 0, 74, 100
2, 106176, Note_on_c, 0, 84, 60
2, 106432, Note_off_c, 0, 84, 100
2, 106560, Note_on_c, 0, 82, 60
2, 106592, Note_off_c, 0, 82, 100
2, 106608, Note_on_c, 0, 80, 60
2, 106640, Note_off_c, 0, 80, 100
2, 106656, Note_on_c, 0, 84, 60
2, 106688, Note_off_c, 0, 84, 100
2, 106704, Note_on_c, 0, 80, 60
2, 106736, Note_off_c, 0, 80, 100
2, 106752, Note_on_c, 0, 79, 60
2, 106784, Note_off_c, 0, 79, 100
2, 106800, Note_on_c, 0, 77, 60
2, 106832, Note_off_c, 0, 77, 100
2, 106848, Note_on_c, 0, 80, 60
2, 106880, Note_off_c, 0, 80, 100
2, 106896, Note_on_c, 0, 77, 60
2, 106928, Note_off_c, 0, 77, 100
2, 106944, Note_on_c, 0, 75, 60
2, 106976, Note_off_c, 0, 75, 100
2, 106992, Note_on_c, 0, 74, 60
2, 107024, Note_off_c, 0, 74, 100
2, 107040, Note_on_c, 0, 77, 60
2, 107072, Note_off_c, 0, 77, 100
2, 107088, Note_on_c, 0, 74, 60
2, 107120, Note_off_c, 0, 74, 100
2, 107136, Note_on_c, 0, 75, 60
2, 107168, Note_off_c, 0, 75, 100
2, 107184, Note_on_c, 0, 77, 60
2, 107216, Note_off_c, 0, 77, 100
2, 107232, Note_on_c, 0, 75, 60
2, 107264, Note_off_c, 0, 75, 100
2, 107280, Note_on_c, 0, 74, 60
2, 107312, Note_off_c, 0, 74, 100
2, 107328, Note_on_c, 0, 75, 60
2, 107360, Note_off_c, 0, 75, 100
2, 107376, Note_on_c, 0, 77, 60
2, 107408, Note_off_c, 0, 77, 100
2, 107424, Note_on_c, 0, 78, 60
2, 107456, Note_off_c, 0, 78, 100
2, 107472, Note_on_c, 0, 79, 60
2, 107504, Note_off_c, 0, 79, 100
2, 107520, Note_on_c, 0, 70, 60
2, 107648, Note_off_c, 0, 70, 100
2, 107712, Note_on_c, 0, 70, 60
2, 107712, Note_on_c, 0, 67, 60
2, 107840, Note_off_c, 0, 70, 100
2, 107840, Note_off_c, 0, 67, 100
2, 107904, Note_on_c, 0, 68, 60
2, 107904, Note_on_c, 0, 65, 60
2, 108032, Note_off_c, 0, 68, 100
2, 108032, Note_off_c, 0, 65, 100
2, 108096, Note_on_c, 0, 63, 60
2, 108096, Note_on_c, 0, 67, 60
2, 108224, Note_off_c, 0, 63, 100
2, 108224, Note_off_c, 0, 67, 100
2, 108288, Note_on_c, 0, 70, 60
2, 108288, Note_on_c, 0, 63, 60
2, 108352, Note_off_c, 0, 70, 100
2, 108384, Note_on_c, 0, 69, 60
2, 108448, Note_off_c, 0, 69, 100
2, 108480, Note_on_c, 0, 70, 60
2, 108544, Note_off_c, 0, 63, 100
2, 108544, Note_off_c, 0, 70, 100
2, 108576, Note_on_c, 0, 67, 60
2, 108640, Note_off_c, 0, 67, 100
2, 108672, Note_on_c, 0, 65, 60
2, 108672, Note_on_c, 0, 62, 60
2, 108928, Note_off_c, 0, 65, 100
2, 108928, Note_off_c, 0, 62, 100
2, 109440, Note_on_c, 0, 70, 82
2, 109536, Note_on_c, 0, 82, 82
2, 109568, Note_off_c, 0, 70, 100
2, 109920, Note_off_c, 0, 82, 100
2, 110016, Note_on_c, 0, 80, 82
2, 110048, Note_off_c, 0, 80, 100
2, 110064, Note_on_c, 0, 79, 82
2, 110096, Note_off_c, 0, 79, 100
2, 110112, Note_on_c, 0, 77, 82
2, 110144, Note_off_c, 0, 77, 100
2, 110160, Note_on_c, 0, 75, 82
2, 110192, Note_off_c, 0, 75, 100
2, 110208, Note_on_c, 0, 74, 60
2, 110208, Note_on_c, 0, 68, 60
2, 110336, Note_off_c, 0, 74, 100
2, 110336, Note_off_c, 0, 68, 100
2, 110400, Note_on_c, 0, 75, 60
2, 110400, Note_on_c, 0, 67, 60
2, 110528, Note_off_c, 0, 75, 100
2, 110528, Note_off_c, 0, 67, 100
2, 110592, Note_on_c, 0, 77, 60
2, 110592, Note_on_c, 0, 65, 60
2, 110592, Note_on_c, 0, 68, 60
2, 110592, Note_on_c, 0, 74, 60
2, 110720, Note_off_c, 0, 65, 100
2, 110720, Note_off_c, 0, 68, 100
2, 110720, Note_off_c, 0, 74, 100
2, 110768, Note_on_c, 0, 67, 60
2, 110784, Note_on_c, 0, 80, 60
2, 110784, Note_on_c, 0, 75, 60
2, 110784, Note_on_c, 0, 63, 60
2, 110816, Note_off_c, 0, 80, 100
2, 110832, Note_on_c, 0, 79, 60
2, 110848, Note_off_c, 0, 77, 100
2, 110864, Note_off_c, 0, 79, 100
2, 110880, Note_on_c, 0, 77, 60
2, 110896, Note_off_c, 0, 67, 100
2, 110912, Note_off_c, 0, 75, 100
2, 110912, Note_off_c, 0, 63, 100
2, 110912, Note_off_c, 0, 77, 100
2, 110928, Note_on_c, 0, 79, 60
2, 110960, Note_off_c, 0, 79, 100
2, 110976, Note_on_c, 0, 80, 60
2, 110976, Note_on_c, 0, 77, 60
2, 110976, Note_on_c, 0, 65, 60
2, 110976, Note_on_c, 0, 62, 60
2, 111104, Note_off_c, 0, 80, 100
2, 111104, Note_off_c, 0, 77, 100
2, 111104, Note_off_c, 0, 65, 100
2, 111104, Note_off_c, 0, 62, 100
2, 111168, Note_on_c, 0, 70, 60
2, 111296, Note_off_c, 0, 70, 100
2, 111360, Note_on_c, 0, 70, 60
2, 111488, Note_off_c, 0, 70, 100
2, 111552, Note_on_c, 0, 70, 60
2, 111680, Note_off_c, 0, 70, 100
2, 111744, Note_on_c, 0, 80, 82
2, 111936, Note_on_c, 0, 60, 82
2, 112064, Note_off_c, 0, 60, 100
2, 112128, Note_off_c, 0, 80, 100
2, 112128, Note_on_c, 0, 62, 82
2, 112256, Note_off_c, 0, 62, 100
2, 112320, Note_on_c, 0, 82, 82
2, 112320, Note_on_c, 0, 65, 82
2, 112352, Note_off_c, 0, 82, 100
2, 112368, Note_on_c, 0, 80, 82
2, 112400, Note_off_c, 0, 80, 100
2, 112416, Note_on_c, 0, 79, 82
2, 112448, Note_off_c, 0, 65, 100
2, 112448, Note_off_c, 0, 79, 100
2, 112464, Note_on_c, 0, 77, 82
2, 112496, Note_off_c, 0, 77, 100
2, 112512, Note_on_c, 0, 75, 60
2, 112512, Note_on_c, 0, 67, 60
2, 112640, Note_off_c, 0, 75, 100
2, 112640, Note_off_c, 0, 67, 100
2, 112704, Note_on_c, 0, 77, 60
2, 112704, Note_on_c, 0, 74, 60
2, 112704, Note_on_c, 0, 68, 60
2, 112832, Note_off_c, 0, 77, 100
2, 112832, Note_off_c, 0, 74, 100
2, 112832, Note_off_c, 0, 68, 100
2, 112896, Note_on_c, 0, 79, 60
2, 112896, Note_on_c, 0, 70, 60
2, 112896, Note_on_c, 0, 67, 60
2, 112896, Note_on_c, 0, 75, 60
2, 113024, Note_off_c, 0, 70, 100
2, 113024, Note_off_c, 0, 67, 100
2, 113024, Note_off_c, 0, 75, 100
2, 113088, Note_on_c, 0, 82, 60
2, 113088, Note_on_c, 0, 68, 60
2, 113088, Note_on_c, 0, 65, 60
2, 113088, Note_on_c, 0, 77, 60
2, 113120, Note_off_c, 0, 82, 100
2, 113136, Note_on_c, 0, 80, 60
2, 113152, Note_off_c, 0, 79, 100
2, 113168, Note_off_c, 0, 80, 100
2, 113184, Note_on_c, 0, 79, 60
2, 113216, Note_off_c, 0, 68, 100
2, 113216, Note_off_c, 0, 65, 100
2, 113216, Note_off_c, 0, 77, 100
2, 113216, Note_off_c, 0, 79, 100
2, 113232, Note_on_c, 0, 80, 60
2, 113264, Note_off_c, 0, 80, 100
2, 113280, Note_on_c, 0, 82, 60
2, 113280, Note_on_c, 0, 63, 60
2, 113280, Note_on_c, 0, 79, 60
2, 113280, Note_on_c, 0, 67, 60
2, 113408, Note_off_c, 0, 82, 100
2, 113408, Note_off_c, 0, 63, 100
2, 113408, Note_off_c, 0, 79, 100
2, 113408, Note_off_c, 0, 67, 100
2, 114048, Note_on_c, 0, 73, 82
2, 114432, Note_off_c, 0, 73, 100
2, 114432, Note_on_c, 0, 75, 82
2, 114464, Note_off_c, 0, 75, 100
2, 114480, Note_on_c, 0, 73, 82
2, 114512, Note_off_c, 0, 73, 100
2, 114528, Note_on_c, 0, 72, 82
2, 114560, Note_off_c, 0, 72, 100
2, 114576, Note_on_c, 0, 73, 82
2, 114608, Note_off_c, 0, 73, 100
2, 114624, Note_on_c, 0, 75, 82
2, 114688, Note_off_c, 0, 75, 100
2, 114720, Note_on_c, 0, 77, 82
2, 114784, Note_off_c, 0, 77, 100
2, 114816, Note_on_c, 0, 75, 82
2, 114880, Note_off_c, 0, 75, 100
2, 114912, Note_on_c, 0, 73, 82
2, 114976, Note_off_c, 0, 73, 100
2, 115008, Note_on_c, 0, 72, 82
2, 115072, Note_off_c, 0, 72, 100
2, 115104, Note_on_c, 0, 71, 82
2, 115168, Note_off_c, 0, 71, 100
2, 115200, Note_on_c, 0, 71, 82
2, 115456, Note_off_c, 0, 71, 100
2, 115584, Note_on_c, 0, 71, 82
2, 115648, Note_off_c, 0, 71, 100
2, 115680, Note_on_c, 0, 72, 82
2, 115744, Note_off_c, 0, 72, 100
2, 115776, Note_on_c, 0, 75, 82
2, 115840, Note_off_c, 0, 75, 100
2, 115872, Note_on_c, 0, 74, 82
2, 115936, Note_off_c, 0, 74, 100
2, 115968, Note_on_c, 0, 77, 82
2, 116032, Note_off_c, 0, 77, 100
2, 116080, Note_on_c, 0, 75, 82
2, 116144, Note_off_c, 0, 75, 100
2, 116160, Note_on_c, 0, 74, 82
2, 116224, Note_off_c, 0, 74, 100
2, 116256, Note_on_c, 0, 72, 82
2, 116320, Note_off_c, 0, 72, 100
2, 116352, Note_on_c, 0, 70, 60
2, 116416, Note_off_c, 0, 70, 100
2, 116448, Note_on_c, 0, 71, 60
2, 116512, Note_off_c, 0, 71, 100
2, 116544, Note_on_c, 0, 72, 60
2, 116608, Note_off_c, 0, 72, 100
2, 116640, Note_on_c, 0, 73, 60
2, 116704, Note_off_c, 0, 73, 100
2, 116736, Note_on_c, 0, 74, 60
2, 116800, Note_off_c, 0, 74, 100
2, 116832, Note_on_c, 0, 75, 60
2, 116896, Note_off_c, 0, 75, 100
2, 116928, Note_on_c, 0, 63, 60
2, 117056, Note_off_c, 0, 63, 100
2, 117120, Note_on_c, 0, 67, 60
2, 117120, Note_on_c, 0, 62, 60
2, 117184, Note_off_c, 0, 67, 100
2, 117216, Note_on_c, 0, 65, 60
2, 117280, Note_off_c, 0, 65, 100
2, 117312, Note_on_c, 0, 63, 60
2, 117376, Note_off_c, 0, 62, 100
2, 117376, Note_off_c, 0, 63, 100
2, 117408, Note_on_c, 0, 65, 60
2, 117472, Note_off_c, 0, 65, 100
2, 117504, Note_on_c, 0, 63, 60
2, 117760, Note_off_c, 0, 63, 100
2, 118080, Note_on_c, 0, 70, 90
2, 118080, Note_on_c, 0, 63, 90
2, 118208, Note_off_c, 0, 70, 100
2, 118208, Note_off_c, 0, 63, 100
2, 118272, Note_on_c, 0, 70, 90
2, 118272, Note_on_c, 0, 65, 90
2, 118400, Note_off_c, 0, 70, 100
2, 118400, Note_off_c, 0, 65, 100
2, 118464, Note_on_c, 0, 70, 90
2, 118464, Note_on_c, 0, 67, 90
2, 118592, Note_off_c, 0, 70, 100
2, 118592, Note_off_c, 0, 67, 100
2, 118656, Note_on_c, 0, 70, 90
2, 118656, Note_on_c, 0, 68, 90
2, 118848, Note_on_c, 0, 70, 90
2, 118880, Note_off_c, 0, 70, 100
2, 118896, Note_on_c, 0, 72, 90
2, 118912, Note_off_c, 0, 70, 100
2, 118928, Note_off_c, 0, 72, 100
2, 118944, Note_on_c, 0, 70, 90
2, 118976, Note_off_c, 0, 70, 100
2, 118992, Note_on_c, 0, 68, 90
2, 119024, Note_off_c, 0, 68, 100
2, 119040, Note_off_c, 0, 68, 100
2, 119040, Note_on_c, 0, 70, 90
2, 119168, Note_off_c, 0, 70, 100
2, 119232, Note_on_c, 0, 70, 90
2, 119232, Note_on_c, 0, 62, 90
2, 119360, Note_off_c, 0, 70, 100
2, 119360, Note_off_c, 0, 62, 100
2, 119424, Note_on_c, 0, 72, 90
2, 119424, Note_on_c, 0, 63, 90
2, 119552, Note_off_c, 0, 72, 100
2, 119552, Note_off_c, 0, 63, 100
2, 119616, Note_on_c, 0, 74, 90
2, 119616, Note_on_c, 0, 65, 90
2, 119744, Note_off_c, 0, 74, 100
2, 119744, Note_off_c, 0, 65, 100
2, 119808, Note_on_c, 0, 75, 90
2, 120000, Note_on_c, 0, 75, 90
2, 120032, Note_off_c, 0, 75, 100
2, 120048, Note_on_c, 0, 77, 90
2, 120064, Note_off_c, 0, 75, 100
2, 120080, Note_off_c, 0, 77, 100
2, 120096, Note_on_c, 0, 79, 90
2, 120128, Note_off_c, 0, 79, 100
2, 120144, Note_on_c, 0, 75, 90
2, 120176, Note_off_c, 0, 75, 100
2, 120192, Note_on_c, 0, 70, 90
2, 120320, Note_off_c, 0, 70, 100
2, 120384, Note_on_c, 0, 70, 60
2, 120384, Note_on_c, 0, 67, 60
2, 120512, Note_off_c, 0, 70, 100
2, 120512, Note_off_c, 0, 67, 100
2, 120576, Note_on_c, 0, 68, 60
2, 120576, Note_on_c, 0, 65, 60
2, 120704, Note_off_c, 0, 68, 100
2, 120704, Note_off_c, 0, 65, 100
2, 120768, Note_on_c, 0, 67, 60
2, 120768, Note_on_c, 0, 63, 60
2, 120896, Note_off_c, 0, 67, 100
2, 120896, Note_off_c, 0, 63, 100
2, 120960, Note_on_c, 0, 65, 60
2, 121152, Note_on_c, 0, 65, 60
2, 121184, Note_off_c, 0, 65, 100
2, 121200, Note_on_c, 0, 67, 60
2, 121216, Note_off_c, 0, 65, 100
2, 121232, Note_off_c, 0, 67, 100
2, 121248, Note_on_c, 0, 68, 60
2, 121280, Note_off_c, 0, 68, 100
2, 121296, Note_on_c, 0, 65, 60
2, 121328, Note_off_c, 0, 65, 100
2, 121344, Note_on_c, 0, 72, 60
2, 121472, Note_off_c, 0, 72, 100
2, 121536, Note_on_c, 0, 65, 60
2, 121536, Note_on_c, 0, 60, 60
2, 121664, Note_off_c, 0, 65, 100
2, 121664, Note_off_c, 0, 60, 100
2, 121728, Note_on_c, 0, 63, 60
2, 121728, Note_on_c, 0, 58, 60
2, 121856, Note_off_c, 0, 63, 100
2, 121856, Note_off_c, 0, 58, 100
2, 121920, Note_on_c, 0, 65, 60
2, 121920, Note_on_c, 0, 62, 60
2, 122048, Note_off_c, 0, 65, 100
2, 122048, Note_off_c, 0, 62, 100
2, 122112, Note_on_c, 0, 65, 60
2, 122112, Note_on_c, 0, 62, 60
2, 122368, Note_off_c, 0, 62, 100
2, 122400, Note_on_c, 0, 66, 60
2, 122464, Note_off_c, 0, 66, 100
2, 122496, Note_off_c, 0, 65, 100
2, 122496, Note_on_c, 0, 67, 60
2, 122496, Note_on_c, 0, 63, 60
2, 122592, Note_on_c, 0, 63, 90
2, 122624, Note_off_c, 0, 67, 100
2, 122624, Note_off_c, 0, 63, 100
2, 122656, Note_off_c, 0, 63, 100
2, 122688, Note_on_c, 0, 75, 90
2, 122688, Note_on_c, 0, 82, 90
2, 122720, Note_on_c, 0, 67, 90
2, 122784, Note_off_c, 0, 67, 100
2, 122800, Note_on_c, 0, 70, 90
2, 122816, Note_off_c, 0, 75, 100
2, 122816, Note_off_c, 0, 82, 100
2, 122864, Note_off_c, 0, 70, 100
2, 122880, Note_on_c, 0, 82, 90
2, 122880, Note_on_c, 0, 77, 90
2, 122880, Note_on_c, 0, 68, 90
2, 122944, Note_off_c, 0, 68, 100
2, 122976, Note_on_c, 0, 67, 90
2, 123008, Note_off_c, 0, 82, 100
2, 123008, Note_off_c, 0, 77, 100
2, 123040, Note_off_c, 0, 67, 100
2, 123072, Note_on_c, 0, 82, 90
2, 123072, Note_on_c, 0, 79, 90
2, 123072, Note_on_c, 0, 65, 90
2, 123136, Note_off_c, 0, 65, 100
2, 123168, Note_on_c, 0, 63, 90
2, 123200, Note_off_c, 0, 82, 100
2, 123200, Note_off_c, 0, 79, 100
2, 123232, Note_off_c, 0, 63, 100
2, 123264, Note_on_c, 0, 82, 90
2, 123264, Note_on_c, 0, 80, 90
2, 123264, Note_on_c, 0, 62, 90
2, 123328, Note_off_c, 0, 62, 100
2, 123360, Note_on_c, 0, 65, 90
2, 123424, Note_off_c, 0, 65, 100
2, 123456, Note_on_c, 0, 82, 90
2, 123456, Note_on_c, 0, 68, 90
2, 123488, Note_off_c, 0, 82, 100
2, 123504, Note_on_c, 0, 84, 90
2, 123520, Note_off_c, 0, 82, 100
2, 123520, Note_off_c, 0, 68, 100
2, 123536, Note_off_c, 0, 84, 100
2, 123552, Note_on_c, 0, 82, 90
2, 123552, Note_on_c, 0, 67, 90
2, 123584, Note_off_c, 0, 82, 100
2, 123600, Note_on_c, 0, 81, 90
2, 123616, Note_off_c, 0, 67, 100
2, 123632, Note_off_c, 0, 81, 100
2, 123648, Note_off_c, 0, 80, 100
2, 123648, Note_on_c, 0, 82, 90
2, 123648, Note_on_c, 0, 65, 90
2, 123712, Note_off_c, 0, 65, 100
2, 123744, Note_on_c, 0, 63, 90
2, 123776, Note_off_c, 0, 82, 100
2, 123808, Note_off_c, 0, 63, 100
2, 123840, Note_on_c, 0, 82, 90
2, 123840, Note_on_c, 0, 74, 90
2, 123840, Note_on_c, 0, 62, 90
2, 123904, Note_off_c, 0, 62, 100
2, 123936, Note_on_c, 0, 60, 90
2, 123968, Note_off_c, 0, 82, 100
2, 123968, Note_off_c, 0, 74, 100
2, 124000, Note_off_c, 0, 60, 100
2, 124032, Note_on_c, 0, 84, 90
2, 124032, Note_on_c, 0, 75, 90
2, 124032, Note_on_c, 0, 58, 90
2, 124096, Note_off_c, 0, 58, 100
2, 124128, Note_on_c, 0, 60, 90
2, 124160, Note_off_c, 0, 84, 100
2, 124160, Note_off_c, 0, 75, 100
2, 124192, Note_off_c, 0, 60, 100
2, 124208, Note_on_c, 0, 56, 90
2, 124224, Note_on_c, 0, 86, 90
2, 124224, Note_on_c, 0, 77, 90
2, 124272, Note_off_c, 0, 56, 100
2, 124320, Note_on_c, 0, 58, 90
2, 124352, Note_off_c, 0, 86, 100
2, 124352, Note_off_c, 0, 77, 100
2, 124384, Note_off_c, 0, 58, 100
2, 124416, Note_on_c, 0, 87, 90
2, 124416, Note_on_c, 0, 75, 90
2, 124416, Note_on_c, 0, 55, 90
2, 124480, Note_off_c, 0, 55, 100
2, 124512, Note_on_c, 0, 58, 90
2, 124544, Note_off_c, 0, 75, 100
2, 124576, Note_off_c, 0, 58, 100
2, 124592, Note_on_c, 0, 87, 90
2, 124608, Note_on_c, 0, 60, 90
2, 124624, Note_off_c, 0, 87, 100
2, 124656, Note_on_c, 0, 86, 90
2, 124672, Note_off_c, 0, 87, 100
2, 124672, Note_off_c, 0, 60, 100
2, 124688, Note_off_c, 0, 86, 100
2, 124704, Note_on_c, 0, 87, 90
2, 124704, Note_on_c, 0, 62, 90
2, 124736, Note_off_c, 0, 87, 100
2, 124752, Note_on_c, 0, 82, 90
2, 124768, Note_off_c, 0, 62, 100
2, 124784, Note_off_c, 0, 82, 100
2, 124800, Note_on_c, 0, 79, 90
2, 124800, Note_on_c, 0, 63, 90
2, 124928, Note_off_c, 0, 79, 100
2, 124928, Note_off_c, 0, 63, 100
2, 124992, Note_on_c, 0, 82, 60
2, 124992, Note_on_c, 0, 79, 60
2, 124992, Note_on_c, 0, 63, 60
2, 124992, Note_on_c, 0, 67, 60
2, 125120, Note_off_c, 0, 82, 100
2, 125120, Note_off_c, 0, 79, 100
2, 125120, Note_off_c, 0, 63, 100
2, 125120, Note_off_c, 0, 67, 100
2, 125184, Note_on_c, 0, 80, 60
2, 125184, Note_on_c, 0, 77, 60
2, 125184, Note_on_c, 0, 68, 60
2, 125184, Note_on_c, 0, 65, 60
2, 125312, Note_off_c, 0, 80, 100
2, 125312, Note_off_c, 0, 77, 100
2, 125312, Note_off_c, 0, 68, 100
2, 125312, Note_off_c, 0, 65, 100
2, 125376, Note_on_c, 0, 79, 60
2, 125376, Note_on_c, 0, 75, 60
2, 125376, Note_on_c, 0, 70, 60
2, 125376, Note_on_c, 0, 67, 60
2, 125504, Note_off_c, 0, 79, 100
2, 125504, Note_off_c, 0, 75, 100
2, 125504, Note_off_c, 0, 70, 100
2, 125504, Note_off_c, 0, 67, 100
2, 125568, Note_on_c, 0, 76, 60
2, 125568, Note_on_c, 0, 72, 60
2, 125568, Note_on_c, 0, 68, 60
2, 125600, Note_off_c, 0, 76, 100
2, 125616, Note_on_c, 0, 77, 60
2, 125648, Note_off_c, 0, 77, 100
2, 125664, Note_on_c, 0, 79, 60
2, 125696, Note_off_c, 0, 72, 100
2, 125696, Note_off_c, 0, 68, 100
2, 125696, Note_off_c, 0, 79, 100
2, 125712, Note_on_c, 0, 77, 60
2, 125744, Note_off_c, 0, 77, 100
2, 125760, Note_on_c, 0, 80, 60
2, 125792, Note_off_c, 0, 80, 100
2, 125808, Note_on_c, 0, 79, 60
2, 125840, Note_off_c, 0, 79, 100
2, 125856, Note_on_c, 0, 82, 60
2, 125888, Note_off_c, 0, 82, 100
2, 125904, Note_on_c, 0, 80, 60
2, 125936, Note_off_c, 0, 80, 100
2, 125952, Note_on_c, 0, 84, 60
2, 126208, Note_off_c, 0, 84, 100
2, 126320, Note_on_c, 0, 58, 60
2, 126336, Note_on_c, 0, 82, 60
2, 126336, Note_on_c, 0, 62, 60
2, 126336, Note_on_c, 0, 68, 60
2, 126464, Note_off_c, 0, 62, 100
2, 126528, Note_on_c, 0, 65, 60
2, 126576, Note_off_c, 0, 58, 100
2, 126592, Note_off_c, 0, 82, 100
2, 126592, Note_off_c, 0, 68, 100
2, 126656, Note_off_c, 0, 65, 100
2, 126672, Note_on_c, 0, 74, 60
2, 126704, Note_off_c, 0, 74, 100
2, 126720, Note_on_c, 0, 75, 60
2, 126720, Note_on_c, 0, 63, 60
2, 126784, Note_off_c, 0, 63, 100
2, 126816, Note_on_c, 0, 67, 60
2, 126880, Note_off_c, 0, 67, 100
2, 126912, Note_on_c, 0, 70, 60
2, 126976, Note_off_c, 0, 75, 100
2, 126976, Note_off_c, 0, 70, 100
2, 127008, Note_on_c, 0, 67, 60
2, 127072, Note_off_c, 0, 67, 100
2, 127104, Note_on_c, 0, 63, 62
2, 127168, Note_off_c, 0, 63, 100
2, 127200, Note_on_c, 0, 67, 66
2, 127264, Note_off_c, 0, 67, 100
2, 127296, Note_on_c, 0, 85, 68
2, 127296, Note_on_c, 0, 70, 68
2, 127360, Note_off_c, 0, 70, 100
2, 127392, Note_on_c, 0, 67, 72
2, 127424, Note_off_c, 0, 85, 100
2, 127456, Note_off_c, 0, 67, 100
2, 127488, Note_on_c, 0, 84, 74
2, 127488, Note_on_c, 0, 68, 74
2, 127552, Note_off_c, 0, 68, 100
2, 127584, Note_on_c, 0, 65, 79
2, 127616, Note_off_c, 0, 84, 100
2, 127648, Note_off_c, 0, 65, 100
2, 127680, Note_on_c, 0, 86, 82
2, 127680, Note_on_c, 0, 72, 82
2, 127744, Note_off_c, 0, 72, 100
2, 127776, Note_on_c, 0, 68, 86
2, 127808, Note_off_c, 0, 86, 100
2, 127840, Note_off_c, 0, 68, 100
2, 127872, Note_on_c, 0, 89, 90
2, 127872, Note_on_c, 0, 68, 90
2, 127936, Note_off_c, 0, 68, 100
2, 127952, Note_on_c, 0, 70, 90
2, 128000, Note_off_c, 0, 89, 100
2, 128016, Note_off_c, 0, 70, 100
2, 128064, Note_on_c, 0, 87, 90
2, 128064, Note_on_c, 0, 67, 90
2, 128128, Note_off_c, 0, 67, 100
2, 128160, Note_on_c, 0, 65, 90
2, 128192, Note_off_c, 0, 87, 100
2, 128224, Note_off_c, 0, 65, 100
2, 128448, Note_on_c, 0, 73, 90
2, 128576, Note_off_c, 0, 73, 100
2, 128640, Note_on_c, 0, 72, 90
2, 128768, Note_off_c, 0, 72, 100
2, 128832, Note_on_c, 0, 74, 90
2, 128832, Note_on_c, 0, 68, 90
2, 128960, Note_off_c, 0, 74, 100
2, 128960, Note_off_c, 0, 68, 100
2, 129024, Note_on_c, 0, 77, 90
2, 129024, Note_on_c, 0, 68, 90
2, 129404, Note_off_c, 0, 77, 0
2, 129404, Note_off_c, 0, 68, 0
2, 129408, Note_on_c, 0, 75, 90
2, 129408, Note_on_c, 0, 67, 90
2, 129596, Note_off_c, 0, 75, 0
2, 129596, Note_off_c, 0, 67, 0
2, 129600, Note_on_c, 0, 62, 60
2, 129600, Note_on_c, 0, 65, 60
2, 129728, Note_off_c, 0, 62, 100
2, 129728, Note_off_c, 0, 65, 100
2, 129792, Note_on_c, 0, 63, 60
2, 129792, Note_on_c, 0, 67, 60
2, 129920, Note_off_c, 0, 63, 100
2, 129920, Note_off_c, 0, 67, 100
2, 129984, Note_on_c, 0, 65, 60
2, 129984, Note_on_c, 0, 68, 60
2, 130112, Note_off_c, 0, 65, 100
2, 130112, Note_off_c, 0, 68, 100
2, 130176, Note_on_c, 0, 66, 60
2, 130176, Note_on_c, 0, 69, 90
2, 130432, Note_off_c, 0, 66, 100
2, 130432, Note_off_c, 0, 69, 100
2, 130560, Note_on_c, 0, 70, 60
2, 130560, Note_on_c, 0, 67, 60
2, 130688, Note_off_c, 0, 70, 100
2, 130688, Note_off_c, 0, 67, 100
2, 130752, Note_on_c, 0, 73, 60
2, 130752, Note_on_c, 0, 70, 60
2, 130880, Note_off_c, 0, 73, 100
2, 130880, Note_off_c, 0, 70, 100
2, 130944, Note_on_c, 0, 67, 60
2, 130944, Note_on_c, 0, 64, 60
2, 131072, Note_off_c, 0, 67, 100
2, 131072, Note_off_c, 0, 64, 100
2, 131136, Note_on_c, 0, 72, 60
2, 131136, Note_on_c, 0, 68, 60
2, 131264, Note_off_c, 0, 72, 100
2, 131264, Note_off_c, 0, 68, 100
2, 131328, Note_on_c, 0, 70, 60
2, 131328, Note_on_c, 0, 67, 60
2, 131584, Note_off_c, 0, 70, 100
2, 131584, Note_off_c, 0, 67, 100
2, 131712, Note_on_c, 0, 68, 60
2, 131712, Note_on_c, 0, 65, 60
2, 131840, Note_off_c, 0, 68, 100
2, 131840, Note_off_c, 0, 65, 100
2, 131904, Note_on_c, 0, 77, 60
2, 132032, Note_off_c, 0, 77, 100
2, 132096, Note_on_c, 0, 77, 60
2, 132224, Note_off_c, 0, 77, 100
2, 132288, Note_on_c, 0, 77, 60
2, 132416, Note_off_c, 0, 77, 100
2, 132480, Note_on_c, 0, 78, 60
2, 132736, Note_off_c, 0, 78, 100
2, 132864, Note_on_c, 0, 79, 60
2, 132992, Note_off_c, 0, 79, 100
2, 133056, Note_on_c, 0, 82, 60
2, 133248, Note_on_c, 0, 70, 60
2, 133248, Note_on_c, 0, 60, 60
2, 133312, Note_off_c, 0, 82, 100
2, 133440, Note_on_c, 0, 76, 60
2, 133504, Note_off_c, 0, 70, 100
2, 133504, Note_off_c, 0, 60, 100
2, 133568, Note_off_c, 0, 76, 100
2, 133632, Note_on_c, 0, 79, 60
2, 133632, Note_on_c, 0, 70, 60
2, 133632, Note_on_c, 0, 65, 60
2, 133888, Note_off_c, 0, 79, 100
2, 133888, Note_off_c, 0, 70, 100
2, 134016, Note_off_c, 0, 65, 100
2, 134016, Note_on_c, 0, 77, 60
2, 134016, Note_on_c, 0, 68, 60
2, 134144, Note_off_c, 0, 77, 100
2, 134144, Note_off_c, 0, 68, 100
2, 134976, Note_on_c, 0, 80, 60
2, 135104, Note_off_c, 0, 80, 100
2, 135168, Note_on_c, 0, 79, 60
2, 135232, Note_off_c, 0, 79, 100
2, 135264, Note_on_c, 0, 77, 60
2, 135328, Note_off_c, 0, 77, 100
2, 135360, Note_on_c, 0, 75, 60
2, 135424, Note_off_c, 0, 75, 100
2, 135456, Note_on_c, 0, 73, 60
2, 135520, Note_off_c, 0, 73, 100
2, 135552, Note_on_c, 0, 72, 60
2, 135616, Note_off_c, 0, 72, 100
2, 135648, Note_on_c, 0, 73, 60
2, 135712, Note_off_c, 0, 73, 100
2, 135744, Note_on_c, 0, 77, 60
2, 135808, Note_off_c, 0, 77, 100
2, 135840, Note_on_c, 0, 73, 60
2, 135904, Note_off_c, 0, 73, 100
2, 135936, Note_on_c, 0, 72, 60
2, 135936, Note_on_c, 0, 68, 60
2, 135936, Note_on_c, 0, 62, 60
2, 136192, Note_off_c, 0, 72, 100
2, 136320, Note_on_c, 0, 71, 60
2, 136704, Note_off_c, 0, 68, 100
2, 136704, Note_off_c, 0, 62, 100
2, 136832, Note_off_c, 0, 71, 100
2, 137280, Note_on_c, 0, 72, 60
2, 137280, Note_on_c, 0, 63, 60
2, 137408, Note_off_c, 0, 72, 100
2, 137472, Note_on_c, 0, 71, 60
2, 137536, Note_off_c, 0, 63, 100
2, 137536, Note_off_c, 0, 71, 100
2, 137568, Note_on_c, 0, 72, 60
2, 137632, Note_off_c, 0, 72, 100
2, 137664, Note_on_c, 0, 74, 60
2, 137664, Note_on_c, 0, 63, 60
2, 137728, Note_off_c, 0, 74, 100
2, 137760, Note_on_c, 0, 72, 60
2, 137824, Note_off_c, 0, 72, 100
2, 137856, Note_on_c, 0, 71, 60
2, 137920, Note_off_c, 0, 63, 100
2, 137920, Note_off_c, 0, 71, 100
2, 137952, Note_on_c, 0, 72, 60
2, 138016, Note_off_c, 0, 72, 100
2, 138048, Note_on_c, 0, 75, 60
2, 138048, Note_on_c, 0, 63, 60
2, 138112, Note_off_c, 0, 75, 100
2, 138144, Note_on_c, 0, 74, 60
2, 138176, Note_off_c, 0, 63, 100
2, 138208, Note_off_c, 0, 74, 100
2, 138240, Note_on_c, 0, 71, 62
2, 138240, Note_on_c, 0, 63, 62
2, 138496, Note_off_c, 0, 71, 100
2, 138496, Note_off_c, 0, 63, 100
2, 138624, Note_on_c, 0, 72, 66
2, 138624, Note_on_c, 0, 63, 66
2, 139136, Note_off_c, 0, 72, 100
2, 139136, Note_off_c, 0, 63, 100
2, 139584, Note_on_c, 0, 63, 74
2, 139584, Note_on_c, 0, 72, 74
2, 139712, Note_off_c, 0, 63, 100
2, 139712, Note_off_c, 0, 72, 100
2, 139776, Note_on_c, 0, 72, 78
2, 139776, Note_on_c, 0, 63, 78
2, 139904, Note_off_c, 0, 72, 100
2, 139904, Note_off_c, 0, 63, 100
2, 139968, Note_on_c, 0, 63, 80
2, 139968, Note_on_c, 0, 72, 80
2, 140096, Note_off_c, 0, 63, 100
2, 140096, Note_off_c, 0, 72, 100
2, 140160, Note_on_c, 0, 63, 84
2, 140160, Note_on_c, 0, 72, 84
2, 140288, Note_off_c, 0, 63, 100
2, 140288, Note_off_c, 0, 72, 100
2, 140352, Note_on_c, 0, 72, 86
2, 140352, Note_on_c, 0, 63, 86
2, 140480, Note_off_c, 0, 72, 100
2, 140480, Note_off_c, 0, 63, 100
2, 140544, Note_on_c, 0, 73, 90
2, 140544, Note_on_c, 0, 63, 90
2, 140736, Note_on_c, 0, 73, 90
2, 140768, Note_off_c, 0, 73, 100
2, 140784, Note_on_c, 0, 72, 90
2, 140800, Note_off_c, 0, 63, 100
2, 140800, Note_off_c, 0, 73, 100
2, 140816, Note_off_c, 0, 72, 100
2, 140832, Note_on_c, 0, 70, 90
2, 140864, Note_off_c, 0, 70, 100
2, 140880, Note_on_c, 0, 68, 90
2, 140912, Note_off_c, 0, 68, 100
2, 140928, Note_on_c, 0, 67, 90
2, 140928, Note_on_c, 0, 63, 90
2, 141056, Note_off_c, 0, 67, 100
2, 141056, Note_off_c, 0, 63, 100
2, 141120, Note_on_c, 0, 79, 60
2, 141248, Note_off_c, 0, 79, 100
2, 141312, Note_on_c, 0, 80, 60
2, 141440, Note_off_c, 0, 80, 100
2, 141504, Note_on_c, 0, 72, 60
2, 141632, Note_off_c, 0, 72, 100
2, 141696, Note_on_c, 0, 72, 60
2, 141760, Note_off_c, 0, 72, 100
2, 141792, Note_on_c, 0, 70, 60
2, 141856, Note_off_c, 0, 70, 100
2, 141888, Note_on_c, 0, 73, 60
2, 141952, Note_off_c, 0, 73, 100
2, 141984, Note_on_c, 0, 77, 60
2, 142048, Note_off_c, 0, 77, 100
2, 142080, Note_on_c, 0, 68, 60
2, 142464, Note_off_c, 0, 68, 100
2, 142656, Note_on_c, 0, 72, 60
2, 142656, Note_on_c, 0, 67, 60
2, 142720, Note_off_c, 0, 72, 100
2, 142752, Note_on_c, 0, 70, 60
2, 142784, Note_off_c, 0, 67, 100
2, 142816, Note_off_c, 0, 70, 100
2, 142848, Note_on_c, 0, 68, 60
2, 142848, Note_on_c, 0, 68, 60
2, 143104, Note_off_c, 0, 68, 100
2, 143104, Note_off_c, 0, 68, 100
2, 143424, Note_on_c, 0, 72, 60
2, 143424, Note_on_c, 0, 68, 60
2, 143552, Note_off_c, 0, 72, 100
2, 143552, Note_off_c, 0, 68, 100
2, 143616, Note_on_c, 0, 72, 60
2, 143616, Note_on_c, 0, 68, 60
2, 143744, Note_off_c, 0, 72, 100
2, 143744, Note_off_c, 0, 68, 100
2, 143808, Note_on_c, 0, 72, 60
2, 143808, Note_on_c, 0, 68, 60
2, 143936, Note_off_c, 0, 72, 100
2, 143936, Note_off_c, 0, 68, 100
2, 144000, Note_on_c, 0, 77, 90
2, 144000, Note_on_c, 0, 72, 90
2, 144000, Note_on_c, 0, 70, 90
2, 144128, Note_off_c, 0, 77, 100
2, 144192, Note_on_c, 0, 75, 90
2, 144384, Note_off_c, 0, 72, 100
2, 144384, Note_off_c, 0, 70, 100
2, 144448, Note_off_c, 0, 75, 100
2, 144576, Note_on_c, 0, 72, 60
2, 144576, Note_on_c, 0, 70, 60
2, 144704, Note_off_c, 0, 72, 100
2, 144704, Note_off_c, 0, 70, 100
2, 144768, Note_on_c, 0, 72, 60
2, 144768, Note_on_c, 0, 70, 60
2, 144896, Note_off_c, 0, 72, 100
2, 144896, Note_off_c, 0, 70, 100
2, 144960, Note_on_c, 0, 72, 60
2, 144960, Note_on_c, 0, 70, 60
2, 145088, Note_off_c, 0, 72, 100
2, 145088, Note_off_c, 0, 70, 100
2, 145152, Note_on_c, 0, 79, 90
2, 145152, Note_on_c, 0, 72, 90
2, 145152, Note_on_c, 0, 68, 90
2, 145280, Note_off_c, 0, 79, 100
2, 145344, Note_on_c, 0, 77, 90
2, 145536, Note_off_c, 0, 72, 100
2, 145536, Note_off_c, 0, 68, 100
2, 145600, Note_off_c, 0, 77, 100
2, 145728, Note_on_c, 0, 72, 60
2, 145728, Note_on_c, 0, 68, 60
2, 145856, Note_off_c, 0, 72, 100
2, 145856, Note_off_c, 0, 68, 100
2, 145920, Note_on_c, 0, 72, 60
2, 145920, Note_on_c, 0, 68, 60
2, 146048, Note_off_c, 0, 72, 100
2, 146048, Note_off_c, 0, 68, 100
2, 146096, Note_on_c, 0, 72, 60
2, 146112, Note_on_c, 0, 68, 60
2, 146224, Note_off_c, 0, 72, 100
2, 146240, Note_off_c, 0, 68, 100
2, 146304, Note_on_c, 0, 80, 90
2, 146304, Note_on_c, 0, 72, 90
2, 146304, Note_on_c, 0, 68, 90
2, 146432, Note_off_c, 0, 80, 100
2, 146496, Note_on_c, 0, 78, 90
2, 146688, Note_off_c, 0, 72, 100
2, 146688, Note_off_c, 0, 68, 100
2, 146752, Note_off_c, 0, 78, 100
2, 146880, Note_on_c, 0, 72, 60
2, 146880, Note_on_c, 0, 68, 60
2, 147008, Note_off_c, 0, 72, 100
2, 147008, Note_off_c, 0, 68, 100
2, 147072, Note_on_c, 0, 68, 60
2, 147072, Note_on_c, 0, 72, 60
2, 147200, Note_off_c, 0, 68, 100
2, 147200, Note_off_c, 0, 72, 100
2, 147264, Note_on_c, 0, 72, 60
2, 147264, Note_on_c, 0, 68, 60
2, 147392, Note_off_c, 0, 72, 100
2, 147392, Note_off_c, 0, 68, 100
2, 147456, Note_on_c, 0, 78, 90
2, 147456, Note_on_c, 0, 73, 90
2, 147456, Note_on_c, 0, 68, 90
2, 147648, Note_off_c, 0, 78, 100
2, 147648, Note_on_c, 0, 76, 90
2, 147840, Note_off_c, 0, 73, 100
2, 147840, Note_off_c, 0, 68, 100
2, 147904, Note_off_c, 0, 76, 100
2, 148032, Note_on_c, 0, 76, 60
2, 148032, Note_on_c, 0, 68, 60
2, 148160, Note_off_c, 0, 76, 100
2, 148160, Note_off_c, 0, 68, 100
2, 148224, Note_on_c, 0, 76, 60
2, 148224, Note_on_c, 0, 68, 60
2, 148352, Note_off_c, 0, 76, 100
2, 148352, Note_off_c, 0, 68, 100
2, 148416, Note_on_c, 0, 68, 60
2, 148416, Note_on_c, 0, 76, 60
2, 148544, Note_off_c, 0, 68, 100
2, 148544, Note_off_c, 0, 76, 100
2, 148608, Note_on_c, 0, 75, 60
2, 148608, Note_on_c, 0, 68, 60
2, 148800, Note_off_c, 0, 75, 100
2, 148896, Note_on_c, 0, 77, 60
2, 148928, Note_off_c, 0, 77, 100
2, 148944, Note_on_c, 0, 75, 60
2, 148976, Note_off_c, 0, 75, 100
2, 148992, Note_off_c, 0, 68, 100
2, 148992, Note_on_c, 0, 74, 60
2, 149120, Note_off_c, 0, 74, 100
2, 149184, Note_on_c, 0, 68, 44
2, 149184, Note_on_c, 0, 62, 44
2, 149312, Note_off_c, 0, 68, 100
2, 149312, Note_off_c, 0, 62, 100
2, 149376, Note_on_c, 0, 68, 44
2, 149376, Note_on_c, 0, 62, 44
2, 149504, Note_off_c, 0, 68, 100
2, 149504, Note_off_c, 0, 62, 100
2, 149568, Note_on_c, 0, 68, 44
2, 149568, Note_on_c, 0, 62, 44
2, 149696, Note_off_c, 0, 68, 100
2, 149696, Note_off_c, 0, 62, 100
2, 149760, Note_on_c, 0, 68, 44
2, 149760, Note_on_c, 0, 62, 44
2, 150016, Note_off_c, 0, 68, 100
2, 150016, Note_off_c, 0, 62, 100
2, 150336, Note_on_c, 0, 80, 44
2, 150336, Note_on_c, 0, 74, 44
2, 150464, Note_off_c, 0, 80, 100
2, 150464, Note_off_c, 0, 74, 100
2, 150528, Note_on_c, 0, 80, 44
2, 150528, Note_on_c, 0, 74, 44
2, 150656, Note_off_c, 0, 80, 100
2, 150656, Note_off_c, 0, 74, 100
2, 150720, Note_on_c, 0, 80, 44
2, 150720, Note_on_c, 0, 74, 44
2, 150848, Note_off_c, 0, 80, 100
2, 150848, Note_off_c, 0, 74, 100
2, 150912, Note_on_c, 0, 80, 44
2, 150912, Note_on_c, 0, 74, 44
2, 151008, Note_on_c, 0, 82, 44
2, 151040, Note_off_c, 0, 82, 100
2, 151056, Note_on_c, 0, 80, 44
2, 151088, Note_off_c, 0, 80, 100
2, 151104, Note_on_c, 0, 79, 44
2, 151136, Note_off_c, 0, 79, 100
2, 151152, Note_on_c, 0, 80, 44
2, 151168, Note_off_c, 0, 74, 100
2, 151168, Note_off_c, 0, 80, 100
2, 151184, Note_off_c, 0, 80, 100
2, 151200, Note_on_c, 0, 82, 44
2, 151232, Note_off_c, 0, 82, 100
2, 151248, Note_on_c, 0, 84, 44
2, 151280, Note_off_c, 0, 84, 100
2, 151296, Note_on_c, 0, 82, 44
2, 151360, Note_off_c, 0, 82, 100
2, 151392, Note_on_c, 0, 80, 44
2, 151456, Note_off_c, 0, 80, 100
2, 151488, Note_on_c, 0, 79, 44
2, 151552, Note_off_c, 0, 79, 100
2, 151584, Note_on_c, 0, 77, 44
2, 151648, Note_off_c, 0, 77, 100
2, 151680, Note_on_c, 0, 75, 44
2, 151744, Note_off_c, 0, 75, 100
2, 151776, Note_on_c, 0, 74, 44
2, 151840, Note_off_c, 0, 74, 100
2, 151872, Note_on_c, 0, 72, 44
2, 151936, Note_off_c, 0, 72, 100
2, 151968, Note_on_c, 0, 70, 44
2, 152032, Note_off_c, 0, 70, 100
2, 152064, Note_on_c, 0, 70, 44
2, 152064, Note_on_c, 0, 67, 44
2, 152256, Note_off_c, 0, 70, 100
2, 152320, Note_off_c, 0, 67, 100
2, 152352, Note_on_c, 0, 72, 44
2, 152384, Note_off_c, 0, 72, 100
2, 152400, Note_on_c, 0, 68, 44
2, 152432, Note_off_c, 0, 68, 100
2, 152448, Note_on_c, 0, 68, 44
2, 152448, Note_on_c, 0, 65, 44
2, 152576, Note_off_c, 0, 68, 100
2, 152576, Note_off_c, 0, 65, 100
2, 152640, Note_on_c, 0, 67, 44
2, 152640, Note_on_c, 0, 63, 44
2, 152768, Note_off_c, 0, 67, 100
2, 152768, Note_off_c, 0, 63, 100
2, 152832, Note_on_c, 0, 72, 44
2, 152832, Note_on_c, 0, 68, 44
2, 152960, Note_off_c, 0, 72, 100
2, 152960, Note_off_c, 0, 68, 100
2, 153024, Note_on_c, 0, 70, 44
2, 153024, Note_on_c, 0, 67, 44
2, 153152, Note_off_c, 0, 70, 100
2, 153152, Note_off_c, 0, 67, 100
2, 153216, Note_on_c, 0, 70, 44
2, 153216, Note_on_c, 0, 67, 44
2, 153408, Note_off_c, 0, 70, 100
2, 153472, Note_off_c, 0, 67, 100
2, 153504, Note_on_c, 0, 72, 44
2, 153536, Note_off_c, 0, 72, 100
2, 153552, Note_on_c, 0, 70, 44
2, 153584, Note_off_c, 0, 70, 100
2, 153600, Note_on_c, 0, 68, 44
2, 153856, Note_off_c, 0, 68, 100
2, 153984, Note_on_c, 0, 67, 44
2, 154240, Note_off_c, 0, 67, 100
2, 154368, Note_on_c, 0, 67, 60
2, 154432, Note_off_c, 0, 67, 100
2, 154464, Note_on_c, 0, 64, 60
2, 154528, Note_off_c, 0, 64, 100
2, 154560, Note_on_c, 0, 65, 60
2, 154624, Note_off_c, 0, 65, 100
2, 154656, Note_on_c, 0, 67, 60
2, 154720, Note_off_c, 0, 67, 100
2, 154752, Note_on_c, 0, 68, 60
2, 154816, Note_off_c, 0, 68, 100
2, 154848, Note_on_c, 0, 69, 60
2, 154912, Note_off_c, 0, 69, 100
2, 154944, Note_on_c, 0, 70, 60
2, 155008, Note_off_c, 0, 70, 100
2, 155040, Note_on_c, 0, 71, 60
2, 155104, Note_off_c, 0, 71, 100
2, 155136, Note_on_c, 0, 74, 60
2, 155168, Note_off_c, 0, 74, 100
2, 155184, Note_on_c, 0, 72, 60
2, 155216, Note_off_c, 0, 72, 100
2, 155232, Note_on_c, 0, 71, 60
2, 155264, Note_off_c, 0, 71, 100
2, 155280, Note_on_c, 0, 72, 60
2, 155312, Note_off_c, 0, 72, 100
2, 155328, Note_on_c, 0, 70, 60
2, 155360, Note_off_c, 0, 70, 100
2, 155376, Note_on_c, 0, 68, 60
2, 155408, Note_off_c, 0, 68, 100
2, 155424, Note_on_c, 0, 67, 60
2, 155456, Note_off_c, 0, 67, 100
2, 155472, Note_on_c, 0, 65, 60
2, 155504, Note_off_c, 0, 65, 100
2, 155520, Note_on_c, 0, 63, 60
2, 155776, Note_off_c, 0, 63, 100
2, 155904, Note_on_c, 0, 62, 60
2, 155936, Note_off_c, 0, 62, 100
2, 155952, Note_on_c, 0, 58, 60
2, 155984, Note_off_c, 0, 58, 100
2, 156000, Note_on_c, 0, 57, 60
2, 156032, Note_off_c, 0, 57, 100
2, 156048, Note_on_c, 0, 58, 60
2, 156080, Note_off_c, 0, 58, 100
2, 156096, Note_on_c, 0, 59, 60
2, 156128, Note_off_c, 0, 59, 100
2, 156144, Note_on_c, 0, 60, 60
2, 156176, Note_off_c, 0, 60, 100
2, 156192, Note_on_c, 0, 61, 60
2, 156224, Note_off_c, 0, 61, 100
2, 156240, Note_on_c, 0, 62, 60
2, 156272, Note_off_c, 0, 62, 100
2, 156288, Note_on_c, 0, 63, 60
2, 156320, Note_off_c, 0, 63, 100
2, 156336, Note_on_c, 0, 64, 60
2, 156368, Note_off_c, 0, 64, 100
2, 156384, Note_on_c, 0, 65, 60
2, 156416, Note_off_c, 0, 65, 100
2, 156432, Note_on_c, 0, 66, 60
2, 156464, Note_off_c, 0, 66, 100
2, 156480, Note_on_c, 0, 67, 60
2, 156512, Note_off_c, 0, 67, 100
2, 156528, Note_on_c, 0, 68, 60
2, 156560, Note_off_c, 0, 68, 100
2, 156576, Note_on_c, 0, 69, 60
2, 156608, Note_off_c, 0, 69, 100
2, 156624, Note_on_c, 0, 70, 60
2, 156656, Note_off_c, 0, 70, 100
2, 156672, Note_on_c, 0, 70, 60
2, 156672, Note_on_c, 0, 67, 60
2, 156864, Note_off_c, 0, 70, 100
2, 156864, Note_off_c, 0, 67, 100
2, 156960, Note_on_c, 0, 72, 60
2, 156992, Note_off_c, 0, 72, 100
2, 157008, Note_on_c, 0, 70, 60
2, 157040, Note_off_c, 0, 70, 100
2, 157056, Note_on_c, 0, 68, 60
2, 157088, Note_off_c, 0, 68, 100
2, 157104, Note_on_c, 0, 67, 60
2, 157136, Note_off_c, 0, 67, 100
2, 157152, Note_on_c, 0, 72, 60
2, 157184, Note_off_c, 0, 72, 100
2, 157200, Note_on_c, 0, 70, 60
2, 157232, Note_off_c, 0, 70, 100
2, 157248, Note_on_c, 0, 75, 60
2, 157280, Note_off_c, 0, 75, 100
2, 157296, Note_on_c, 0, 74, 60
2, 157328, Note_off_c, 0, 74, 100
2, 157344, Note_on_c, 0, 77, 60
2, 157376, Note_off_c, 0, 77, 100
2, 157392, Note_on_c, 0, 75, 60
2, 157424, Note_off_c, 0, 75, 100
2, 157440, Note_on_c, 0, 80, 60
2, 157472, Note_off_c, 0, 80, 100
2, 157488, Note_on_c, 0, 79, 60
2, 157520, Note_off_c, 0, 79, 100
2, 157536, Note_on_c, 0, 78, 60
2, 157568, Note_off_c, 0, 78, 100
2, 157584, Note_on_c, 0, 79, 60
2, 157616, Note_off_c, 0, 79, 100
2, 157632, Note_on_c, 0, 77, 60
2, 157664, Note_off_c, 0, 77, 100
2, 157680, Note_on_c, 0, 75, 60
2, 157712, Note_off_c, 0, 75, 100
2, 157728, Note_on_c, 0, 74, 60
2, 157760, Note_off_c, 0, 74, 100
2, 157776, Note_on_c, 0, 72, 60
2, 157808, Note_off_c, 0, 72, 100
2, 157824, Note_on_c, 0, 70, 60
2, 157952, Note_off_c, 0, 70, 100
2, 158016, Note_on_c, 0, 69, 60
2, 158272, Note_off_c, 0, 69, 100
2, 158400, Note_on_c, 0, 68, 60
2, 158528, Note_off_c, 0, 68, 100
2, 158592, Note_on_c, 0, 68, 60
2, 158656, Note_off_c, 0, 68, 100
2, 158688, Note_on_c, 0, 67, 60
2, 158752, Note_off_c, 0, 67, 100
2, 158784, Note_on_c, 0, 75, 60
2, 158848, Note_off_c, 0, 75, 100
2, 158880, Note_on_c, 0, 73, 60
2, 158944, Note_off_c, 0, 73, 100
2, 158976, Note_on_c, 0, 71, 60
2, 159040, Note_off_c, 0, 71, 100
2, 159072, Note_on_c, 0, 72, 60
2, 159136, Note_off_c, 0, 72, 100
2, 159168, Note_on_c, 0, 74, 60
2, 159232, Note_off_c, 0, 74, 100
2, 159264, Note_on_c, 0, 75, 60
2, 159328, Note_off_c, 0, 75, 100
2, 159360, Note_on_c, 0, 75, 60
2, 159488, Note_off_c, 0, 75, 100
2, 159552, Note_on_c, 0, 70, 60
2, 159680, Note_off_c, 0, 70, 100
2, 159744, Note_on_c, 0, 70, 60
2, 159808, Note_off_c, 0, 70, 100
2, 159840, Note_on_c, 0, 72, 60
2, 159872, Note_off_c, 0, 72, 100
2, 159888, Note_on_c, 0, 70, 60
2, 159920, Note_off_c, 0, 70, 100
2, 159936, Note_on_c, 0, 70, 60
2, 159968, Note_off_c, 0, 70, 100
2, 159984, Note_on_c, 0, 68, 60
2, 160016, Note_off_c, 0, 68, 100
2, 160032, Note_on_c, 0, 67, 60
2, 160064, Note_off_c, 0, 67, 100
2, 160080, Note_on_c, 0, 65, 60
2, 160112, Note_off_c, 0, 65, 100
2, 160128, Note_on_c, 0, 63, 60
2, 160384, Note_off_c, 0, 63, 100
2, 160704, Note_on_c, 0, 70, 60
2, 160704, Note_on_c, 0, 67, 60
2, 160832, Note_off_c, 0, 70, 100
2, 160832, Note_off_c, 0, 67, 100
2, 160896, Note_on_c, 0, 67, 60
2, 160896, Note_on_c, 0, 70, 60
2, 161024, Note_off_c, 0, 67, 100
2, 161024, Note_off_c, 0, 70, 100
2, 161088, Note_on_c, 0, 70, 60
2, 161088, Note_on_c, 0, 67, 60
2, 161216, Note_off_c, 0, 70, 100
2, 161216, Note_off_c, 0, 67, 100
2, 161280, Note_on_c, 0, 75, 90
2, 161280, Note_on_c, 0, 68, 90
2, 161408, Note_off_c, 0, 75, 100
2, 161472, Note_on_c, 0, 74, 90
2, 161664, Note_off_c, 0, 68, 100
2, 161728, Note_off_c, 0, 74, 100
2, 161856, Note_on_c, 0, 82, 60
2, 161920, Note_off_c, 0, 82, 100
2, 161952, Note_on_c, 0, 80, 60
2, 162016, Note_off_c, 0, 80, 100
2, 162048, Note_on_c, 0, 79, 60
2, 162112, Note_off_c, 0, 79, 100
2, 162144, Note_on_c, 0, 77, 60
2, 162208, Note_off_c, 0, 77, 100
2, 162240, Note_on_c, 0, 75, 60
2, 162304, Note_off_c, 0, 75, 100
2, 162336, Note_on_c, 0, 74, 60
2, 162400, Note_off_c, 0, 74, 100
2, 162432, Note_on_c, 0, 77, 60
2, 162524, Note_off_c, 0, 77, 100
2, 162528, Note_on_c, 0, 75, 60
2, 162552, Note_off_c, 0, 75, 0
2, 162552, Note_on_c, 0, 77, 60
2, 162576, Note_off_c, 0, 77, 0
2, 162576, Note_on_c, 0, 75, 60
2, 162600, Note_off_c, 0, 75, 0
2, 162600, Note_on_c, 0, 77, 60
2, 162624, Note_off_c, 0, 77, 0
2, 162624, Note_on_c, 0, 75, 60
2, 162648, Note_off_c, 0, 75, 0
2, 162648, Note_on_c, 0, 77, 60
2, 162672, Note_off_c, 0, 77, 0
2, 162672, Note_on_c, 0, 74, 60
2, 162696, Note_off_c, 0, 74, 0
2, 162696, Note_on_c, 0, 75, 60
2, 162720, Note_off_c, 0, 75, 0
2, 162720, Note_on_c, 0, 74, 60
2, 162764, Note_off_c, 0, 74, 100
2, 162768, Note_on_c, 0, 72, 60
2, 162812, Note_off_c, 0, 72, 100
2, 162816, Note_on_c, 0, 70, 60
2, 162944, Note_off_c, 0, 70, 100
2, 163008, Note_on_c, 0, 70, 60
2, 163008, Note_on_c, 0, 67, 60
2, 163136, Note_off_c, 0, 70, 100
2, 163136, Note_off_c, 0, 67, 100
2, 163200, Note_on_c, 0, 70, 60
2, 163200, Note_on_c, 0, 67, 60
2, 163328, Note_off_c, 0, 70, 100
2, 163328, Note_off_c, 0, 67, 100
2, 163392, Note_on_c, 0, 70, 60
2, 163392, Note_on_c, 0, 67, 60
2, 163520, Note_off_c, 0, 70, 100
2, 163520, Note_off_c, 0, 67, 100
2, 163584, Note_on_c, 0, 75, 90
2, 163584, Note_on_c, 0, 68, 90
2, 163648, Note_off_c, 0, 75, 100
2, 163680, Note_on_c, 0, 74, 90
2, 163712, Note_off_c, 0, 68, 100
2, 163744, Note_off_c, 0, 74, 100
2, 163776, Note_on_c, 0, 84, 60
2, 164032, Note_off_c, 0, 84, 100
2, 164160, Note_on_c, 0, 82, 60
2, 164192, Note_off_c, 0, 82, 100
2, 164208, Note_on_c, 0, 80, 60
2, 164240, Note_off_c, 0, 80, 100
2, 164256, Note_on_c, 0, 84, 60
2, 164288, Note_off_c, 0, 84, 100
2, 164304, Note_on_c, 0, 80, 60
2, 164336, Note_off_c, 0, 80, 100
2, 164352, Note_on_c, 0, 79, 60
2, 164384, Note_off_c, 0, 79, 100
2, 164400, Note_on_c, 0, 77, 60
2, 164432, Note_off_c, 0, 77, 100
2, 164448, Note_on_c, 0, 80, 60
2, 164480, Note_off_c, 0, 80, 100
2, 164496, Note_on_c, 0, 77, 60
2, 164528, Note_off_c, 0, 77, 100
2, 164544, Note_on_c, 0, 75, 60
2, 164576, Note_off_c, 0, 75, 100
2, 164592, Note_on_c, 0, 74, 60
2, 164624, Note_off_c, 0, 74, 100
2, 164640, Note_on_c, 0, 77, 60
2, 164672, Note_off_c, 0, 77, 100
2, 164688, Note_on_c, 0, 74, 60
2, 164720, Note_off_c, 0, 74, 100
2, 164736, Note_on_c, 0, 75, 60
2, 164768, Note_off_c, 0, 75, 100
2, 164784, Note_on_c, 0, 77, 60
2, 164816, Note_off_c, 0, 77, 100
2, 164832, Note_on_c, 0, 75, 60
2, 164864, Note_off_c, 0, 75, 100
2, 164880, Note_on_c, 0, 74, 60
2, 164912, Note_off_c, 0, 74, 100
2, 164928, Note_on_c, 0, 75, 60
2, 164960, Note_off_c, 0, 75, 100
2, 164976, Note_on_c, 0, 77, 60
2, 165008, Note_off_c, 0, 77, 100
2, 165024, Note_on_c, 0, 78, 60
2, 165056, Note_off_c, 0, 78, 100
2, 165072, Note_on_c, 0, 79, 60
2, 165104, Note_off_c, 0, 79, 100
2, 165120, Note_on_c, 0, 70, 60
2, 165248, Note_off_c, 0, 70, 100
2, 165312, Note_on_c, 0, 70, 60
2, 165312, Note_on_c, 0, 67, 60
2, 165440, Note_off_c, 0, 70, 100
2, 165440, Note_off_c, 0, 67, 100
2, 165504, Note_on_c, 0, 68, 60
2, 165504, Note_on_c, 0, 65, 60
2, 165632, Note_off_c, 0, 68, 100
2, 165632, Note_off_c, 0, 65, 100
2, 165696, Note_on_c, 0, 63, 60
2, 165696, Note_on_c, 0, 67, 60
2, 165824, Note_off_c, 0, 63, 100
2, 165824, Note_off_c, 0, 67, 100
2, 165888, Note_on_c, 0, 70, 60
2, 165888, Note_on_c, 0, 63, 60
2, 165952, Note_off_c, 0, 70, 100
2, 165984, Note_on_c, 0, 69, 60
2, 166048, Note_off_c, 0, 69, 100
2, 166080, Note_on_c, 0, 70, 60
2, 166144, Note_off_c, 0, 63, 100
2, 166144, Note_off_c, 0, 70, 100
2, 166176, Note_on_c, 0, 67, 60
2, 166240, Note_off_c, 0, 67, 100
2, 166272, Note_on_c, 0, 65, 60
2, 166272, Note_on_c, 0, 62, 60
2, 166528, Note_off_c, 0, 65, 100
2, 166528, Note_off_c, 0, 62, 100
2, 167040, Note_on_c, 0, 70, 82
2, 167136, Note_on_c, 0, 82, 82
2, 167168, Note_off_c, 0, 70, 100
2, 167520, Note_off_c, 0, 82, 100
2, 167616, Note_on_c, 0, 80, 82
2, 167648, Note_off_c, 0, 80, 100
2, 167664, Note_on_c, 0, 79, 82
2, 167696, Note_off_c, 0, 79, 100
2, 167712, Note_on_c, 0, 77, 82
2, 167744, Note_off_c, 0, 77, 100
2, 167760, Note_on_c, 0, 75, 82
2, 167792, Note_off_c, 0, 75, 100
2, 167808, Note_on_c, 0, 74, 60
2, 167808, Note_on_c, 0, 68, 60
2, 167936, Note_off_c, 0, 74, 100
2, 167936, Note_off_c, 0, 68, 100
2, 168000, Note_on_c, 0, 75, 60
2, 168000, Note_on_c, 0, 67, 60
2, 168128, Note_off_c, 0, 75, 100
2, 168128, Note_off_c, 0, 67, 100
2, 168192, Note_on_c, 0, 77, 60
2, 168192, Note_on_c, 0, 65, 60
2, 168192, Note_on_c, 0, 68, 60
2, 168192, Note_on_c, 0, 74, 60
2, 168320, Note_off_c, 0, 65, 100
2, 168320, Note_off_c, 0, 68, 100
2, 168320, Note_off_c, 0, 74, 100
2, 168368, Note_on_c, 0, 67, 60
2, 168384, Note_on_c, 0, 80, 60
2, 168384, Note_on_c, 0, 75, 60
2, 168384, Note_on_c, 0, 63, 60
2, 168416, Note_off_c, 0, 80, 100
2, 168432, Note_on_c, 0, 79, 60
2, 168448, Note_off_c, 0, 77, 100
2, 168464, Note_off_c, 0, 79, 100
2, 168480, Note_on_c, 0, 77, 60
2, 168496, Note_off_c, 0, 67, 100
2, 168512, Note_off_c, 0, 75, 100
2, 168512, Note_off_c, 0, 63, 100
2, 168512, Note_off_c, 0, 77, 100
2, 168528, Note_on_c, 0, 79, 60
2, 168560, Note_off_c, 0, 79, 100
2, 168576, Note_on_c, 0, 80, 60
2, 168576, Note_on_c, 0, 77, 60
2, 168576, Note_on_c, 0, 65, 60
2, 168576, Note_on_c, 0, 62, 60
2, 168704, Note_off_c, 0, 80, 100
2, 168704, Note_off_c, 0, 77, 100
2, 168704, Note_off_c, 0, 65, 100
2, 168704, Note_off_c, 0, 62, 100
2, 168768, Note_on_c, 0, 70, 60
2, 168896, Note_off_c, 0, 70, 100
2, 168960, Note_on_c, 0, 70, 60
2, 169088, Note_off_c, 0, 70, 100
2, 169152, Note_on_c, 0, 70, 60
2, 169280, Note_off_c, 0, 70, 100
2, 169344, Note_on_c, 0, 80, 82
2, 169536, Note_on_c, 0, 60, 82
2, 169664, Note_off_c, 0, 60, 100
2, 169728, Note_off_c, 0, 80, 100
2, 169728, Note_on_c, 0, 62, 82
2, 169856, Note_off_c, 0, 62, 100
2, 169920, Note_on_c, 0, 82, 82
2, 169920, Note_on_c, 0, 65, 82
2, 169952, Note_off_c, 0, 82, 100
2, 169968, Note_on_c, 0, 80, 82
2, 170000, Note_off_c, 0, 80, 100
2, 170016, Note_on_c, 0, 79, 82
2, 170048, Note_off_c, 0, 65, 100
2, 170048, Note_off_c, 0, 79, 100
2, 170064, Note_on_c, 0, 77, 82
2, 170096, Note_off_c, 0, 77, 100
2, 170112, Note_on_c, 0, 75, 60
2, 170112, Note_on_c, 0, 67, 60
2, 170240, Note_off_c, 0, 75, 100
2, 170240, Note_off_c, 0, 67, 100
2, 170304, Note_on_c, 0, 77, 60
2, 170304, Note_on_c, 0, 74, 60
2, 170304, Note_on_c, 0, 68, 60
2, 170432, Note_off_c, 0, 77, 100
2, 170432, Note_off_c, 0, 74, 100
2, 170432, Note_off_c, 0, 68, 100
2, 170496, Note_on_c, 0, 79, 60
2, 170496, Note_on_c, 0, 70, 60
2, 170496, Note_on_c, 0, 67, 60
2, 170496, Note_on_c, 0, 75, 60
2, 170624, Note_off_c, 0, 70, 100
2, 170624, Note_off_c, 0, 67, 100
2, 170624, Note_off_c, 0, 75, 100
2, 170688, Note_on_c, 0, 82, 60
2, 170688, Note_on_c, 0, 68, 60
2, 170688, Note_on_c, 0, 65, 60
2, 170688, Note_on_c, 0, 77, 60
2, 170720, Note_off_c, 0, 82, 100
2, 170736, Note_on_c, 0, 80, 60
2, 170752, Note_off_c, 0, 79, 100
2, 170768, Note_off_c, 0, 80, 100
2, 170784, Note_on_c, 0, 79, 60
2, 170816, Note_off_c, 0, 68, 100
2, 170816, Note_off_c, 0, 65, 100
2, 170816, Note_off_c, 0, 77, 100
2, 170816, Note_off_c, 0, 79, 100
2, 170832, Note_on_c, 0, 80, 60
2, 170864, Note_off_c, 0, 80, 100
2, 170880, Note_on_c, 0, 82, 60
2, 170880, Note_on_c, 0, 63, 60
2, 170880, Note_on_c, 0, 79, 60
2, 170880, Note_on_c, 0, 67, 60
2, 171008, Note_off_c, 0, 82, 100
2, 171008, Note_off_c, 0, 63, 100
2, 171008, Note_off_c, 0, 79, 100
2, 171008, Note_off_c, 0, 67, 100
2, 171648, Note_on_c, 0, 73, 82
2, 172032, Note_off_c, 0, 73, 100
2, 172032, Note_on_c, 0, 75, 82
2, 172064, Note_off_c, 0, 75, 100
2, 172080, Note_on_c, 0, 73, 82
2, 172112, Note_off_c, 0, 73, 100
2, 172128, Note_on_c, 0, 72, 82
2, 172160, Note_off_c, 0, 72, 100
2, 172176, Note_on_c, 0, 73, 82
2, 172208, Note_off_c, 0, 73, 100
2, 172224, Note_on_c, 0, 75, 82
2, 172288, Note_off_c, 0, 75, 100
2, 172320, Note_on_c, 0, 77, 82
2, 172384, Note_off_c, 0, 77, 100
2, 172416, Note_on_c, 0, 75, 82
2, 172480, Note_off_c, 0, 75, 100
2, 172512, Note_on_c, 0, 73, 82
2, 172576, Note_off_c, 0, 73, 100
2, 172608, Note_on_c, 0, 72, 82
2, 172672, Note_off_c, 0, 72, 100
2, 172704, Note_on_c, 0, 71, 82
2, 172768, Note_off_c, 0, 71, 100
2, 172800, Note_on_c, 0, 71, 82
2, 173056, Note_off_c, 0, 71, 100
2, 173184, Note_on_c, 0, 71, 82
2, 173248, Note_off_c, 0, 71, 100
2, 173280, Note_on_c, 0, 72, 82
2, 173344, Note_off_c, 0, 72, 100
2, 173376, Note_on_c, 0, 75, 82
2, 173440, Note_off_c, 0, 75, 100
2, 173472, Note_on_c, 0, 74, 82
2, 173536, Note_off_c, 0, 74, 100
2, 173568, Note_on_c, 0, 77, 82
2, 173632, Note_off_c, 0, 77, 100
2, 173680, Note_on_c, 0, 75, 82
2, 173744, Note_off_c, 0, 75, 100
2, 173760, Note_on_c, 0, 74, 82
2, 173824, Note_off_c, 0, 74, 100
2, 173856, Note_on_c, 0, 72, 82
2, 173920, Note_off_c, 0, 72, 100
2, 173952, Note_on_c, 0, 70, 60
2, 174016, Note_off_c, 0, 70, 100
2, 174048, Note_on_c, 0, 71, 60
2, 174112, Note_off_c, 0, 71, 100
2, 174144, Note_on_c, 0, 72, 60
2, 174208, Note_off_c, 0, 72, 100
2, 174240, Note_on_c, 0, 73, 60
2, 174304, Note_off_c, 0, 73, 100
2, 174336, Note_on_c, 0, 74, 60
2, 174400, Note_off_c, 0, 74, 100
2, 174432, Note_on_c, 0, 75, 60
2, 174496, Note_off_c, 0, 75, 100
2, 174528, Note_on_c, 0, 63, 60
2, 174656, Note_off_c, 0, 63, 100
2, 174720, Note_on_c, 0, 67, 60
2, 174720, Note_on_c, 0, 62, 60
2, 174784, Note_off_c, 0, 67, 100
2, 174816, Note_on_c, 0, 65, 60
2, 174880, Note_off_c, 0, 65, 100
2, 174912, Note_on_c, 0, 63, 60
2, 174976, Note_off_c, 0, 62, 100
2, 174976, Note_off_c, 0, 63, 100
2, 175008, Note_on_c, 0, 65, 60
2, 175072, Note_off_c, 0, 65, 100
2, 175104, Note_on_c, 0, 63, 60
2, 175360, Note_off_c, 0, 63, 100
2, 175680, Note_on_c, 0, 70, 90
2, 175680, Note_on_c, 0, 63, 90
2, 175808, Note_off_c, 0, 70, 100
2, 175808, Note_off_c, 0, 63, 100
2, 175872, Note_on_c, 0, 70, 90
2, 175872, Note_on_c, 0, 65, 90
2, 176000, Note_off_c, 0, 70, 100
2, 176000, Note_off_c, 0, 65, 100
2, 176064, Note_on_c, 0, 70, 90
2, 176064, Note_on_c, 0, 67, 90
2, 176192, Note_off_c, 0, 70, 100
2, 176192, Note_off_c, 0, 67, 100
2, 176256, Note_on_c, 0, 70, 90
2, 176256, Note_on_c, 0, 68, 90
2, 176448, Note_on_c, 0, 70, 90
2, 176480, Note_off_c, 0, 70, 100
2, 176496, Note_on_c, 0, 72, 90
2, 176512, Note_off_c, 0, 70, 100
2, 176528, Note_off_c, 0, 72, 100
2, 176544, Note_on_c, 0, 70, 90
2, 176576, Note_off_c, 0, 70, 100
2, 176592, Note_on_c, 0, 68, 90
2, 176624, Note_off_c, 0, 68, 100
2, 176640, Note_off_c, 0, 68, 100
2, 176640, Note_on_c, 0, 70, 90
2, 176768, Note_off_c, 0, 70, 100
2, 176832, Note_on_c, 0, 70, 90
2, 176832, Note_on_c, 0, 62, 90
2, 176960, Note_off_c, 0, 70, 100
2, 176960, Note_off_c, 0, 62, 100
2, 177024, Note_on_c, 0, 72, 90
2, 177024, Note_on_c, 0, 63, 90
2, 177152, Note_off_c, 0, 72, 100
2, 177152, Note_off_c, 0, 63, 100
2, 177216, Note_on_c, 0, 74, 90
2, 177216, Note_on_c, 0, 65, 90
2, 177344, Note_off_c, 0, 74, 100
2, 177344, Note_off_c, 0, 65, 100
2, 177408, Note_on_c, 0, 75, 90
2, 177600, Note_on_c, 0, 75, 90
2, 177632, Note_off_c, 0, 75, 100
2, 177648, Note_on_c, 0, 77, 90
2, 177664, Note_off_c, 0, 75, 100
2, 177680, Note_off_c, 0, 77, 100
2, 177696, Note_on_c, 0, 79, 90
2, 177728, Note_off_c, 0, 79, 100
2, 177744, Note_on_c, 0, 75, 90
2, 177776, Note_off_c, 0, 75, 100
2, 177792, Note_on_c, 0, 70, 90
2, 177920, Note_off_c, 0, 70, 100
2, 177984, Note_on_c, 0, 70, 60
2, 177984, Note_on_c, 0, 67, 60
2, 178112, Note_off_c, 0, 70, 100
2, 178112, Note_off_c, 0, 67, 100
2, 178176, Note_on_c, 0, 68, 60
2, 178176, Note_on_c, 0, 65, 60
2, 178304, Note_off_c, 0, 68, 100
2, 178304, Note_off_c, 0, 65, 100
2, 178368, Note_on_c, 0, 67, 60
2, 178368, Note_on_c, 0, 63, 60
2, 178496, Note_off_c, 0, 67, 100
2, 178496, Note_off_c, 0, 63, 100
2, 178560, Note_on_c, 0, 65, 60
2, 178752, Note_on_c, 0, 65, 60
2, 178784, Note_off_c, 0, 65, 100
2, 178800, Note_on_c, 0, 67, 60
2, 178816, Note_off_c, 0, 65, 100
2, 178832, Note_off_c, 0, 67, 100
2, 178848, Note_on_c, 0, 68, 60
2, 178880, Note_off_c, 0, 68, 100
2, 178896, Note_on_c, 0, 65, 60
2, 178928, Note_off_c, 0, 65, 100
2, 178944, Note_on_c, 0, 72, 60
2, 179072, Note_off_c, 0, 72, 100
2, 179136, Note_on_c, 0, 65, 60
2, 179136, Note_on_c, 0, 60, 60
2, 179264, Note_off_c, 0, 65, 100
2, 179264, Note_off_c, 0, 60, 100
2, 179328, Note_on_c, 0, 63, 60
2, 179328, Note_on_c, 0, 58, 60
2, 179456, Note_off_c, 0, 63, 100
2, 179456, Note_off_c, 0, 58, 100
2, 179520, Note_on_c, 0, 65, 60
2, 179520, Note_on_c, 0, 62, 60
2, 179648, Note_off_c, 0, 65, 100
2, 179648, Note_off_c, 0, 62, 100
2, 179712, Note_on_c, 0, 65, 60
2, 179712, Note_on_c, 0, 62, 60
2, 179968, Note_off_c, 0, 62, 100
2, 180000, Note_on_c, 0, 66, 60
2, 180064, Note_off_c, 0, 66, 100
2, 180096, Note_off_c, 0, 65, 100
2, 180096, Note_on_c, 0, 67, 60
2, 180096, Note_on_c, 0, 63, 60
2, 180192, Note_on_c, 0, 63, 90
2, 180224, Note_off_c, 0, 67, 100
2, 180224, Note_off_c, 0, 63, 100
2, 180256, Note_off_c, 0, 63, 100
2, 180288, Note_on_c, 0, 75, 90
2, 180288, Note_on_c, 0, 82, 90
2, 180320, Note_on_c, 0, 67, 90
2, 180384, Note_off_c, 0, 67, 100
2, 180400, Note_on_c, 0, 70, 90
2, 180416, Note_off_c, 0, 75, 100
2, 180416, Note_off_c, 0, 82, 100
2, 180464, Note_off_c, 0, 70, 100
2, 180480, Note_on_c, 0, 82, 90
2, 180480, Note_on_c, 0, 77, 90
2, 180480, Note_on_c, 0, 68, 90
2, 180544, Note_off_c, 0, 68, 100
2, 180576, Note_on_c, 0, 67, 90
2, 180608, Note_off_c, 0, 82, 100
2, 180608, Note_off_c, 0, 77, 100
2, 180640, Note_off_c, 0, 67, 100
2, 180672, Note_on_c, 0, 82, 90
2, 180672, Note_on_c, 0, 79, 90
2, 180672, Note_on_c, 0, 65, 90
2, 180736, Note_off_c, 0, 65, 100
2, 180768, Note_on_c, 0, 63, 90
2, 180800, Note_off_c, 0, 82, 100
2, 180800, Note_off_c, 0, 79, 100
2, 180832, Note_off_c, 0, 63, 100
2, 180864, Note_on_c, 0, 82, 90
2, 180864, Note_on_c, 0, 80, 90
2, 180864, Note_on_c, 0, 62, 90
2, 180928, Note_off_c, 0, 62, 100
2, 180960, Note_on_c, 0, 65, 90
2, 181024, Note_off_c, 0, 65, 100
2, 181056, Note_on_c, 0, 82, 90
2, 181056, Note_on_c, 0, 68, 90
2, 181088, Note_off_c, 0, 82, 100
2, 181104, Note_on_c, 0, 84, 90
2, 181120, Note_off_c, 0, 82, 100
2, 181120, Note_off_c, 0, 68, 100
2, 181136, Note_off_c, 0, 84, 100
2, 181152, Note_on_c, 0, 82, 90
2, 181152, Note_on_c, 0, 67, 90
2, 181184, Note_off_c, 0, 82, 100
2, 181200, Note_on_c, 0, 81, 90
2, 181216, Note_off_c, 0, 67, 100
2, 181232, Note_off_c, 0, 81, 100
2, 181248, Note_off_c, 0, 80, 100
2, 181248, Note_on_c, 0, 82, 90
2, 181248, Note_on_c, 0, 65, 90
2, 181312, Note_off_c, 0, 65, 100
2, 181344, Note_on_c, 0, 63, 90
2, 181376, Note_off_c, 0, 82, 100
2, 181408, Note_off_c, 0, 63, 100
2, 181440, Note_on_c, 0, 82, 90
2, 181440, Note_on_c, 0, 74, 90
2, 181440, Note_on_c, 0, 62, 90
2, 181504, Note_off_c, 0, 62, 100
2, 181536, Note_on_c, 0, 60, 90
2, 181568, Note_off_c, 0, 82, 100
2, 181568, Note_off_c, 0, 74, 100
2, 181600, Note_off_c, 0, 60, 100
2, 181632, Note_on_c, 0, 84, 90
2, 181632, Note_on_c, 0, 75, 90
2, 181632, Note_on_c, 0, 58, 90
2, 181696, Note_off_c, 0, 58, 100
2, 181728, Note_on_c, 0, 60, 90
2, 181760, Note_off_c, 0, 84, 100
2, 181760, Note_off_c, 0, 75, 100
2, 181792, Note_off_c, 0, 60, 100
2, 181808, Note_on_c, 0, 56, 90
2, 181824, Note_on_c, 0, 86, 90
2, 181824, Note_on_c, 0, 77, 90
2, 181872, Note_off_c, 0, 56, 100
2, 181920, Note_on_c, 0, 58, 90
2, 181952, Note_off_c, 0, 86, 100
2, 181952, Note_off_c, 0, 77, 100
2, 181984, Note_off_c, 0, 58, 100
2, 182016, Note_on_c, 0, 87, 90
2, 182016, Note_on_c, 0, 75, 90
2, 182016, Note_on_c, 0, 55, 90
2, 182080, Note_off_c, 0, 55, 100
2, 182112, Note_on_c, 0, 58, 90
2, 182144, Note_off_c, 0, 75, 100
2, 182176, Note_off_c, 0, 58, 100
2, 182192, Note_on_c, 0, 87, 90
2, 182208, Note_on_c, 0, 60, 90
2, 182224, Note_off_c, 0, 87, 100
2, 182256, Note_on_c, 0, 86, 90
2, 182272, Note_off_c, 0, 87, 100
2, 182272, Note_off_c, 0, 60, 100
2, 182288, Note_off_c, 0, 86, 100
2, 182304, Note_on_c, 0, 87, 90
2, 182304, Note_on_c, 0, 62, 90
2, 182336, Note_off_c, 0, 87, 100
2, 182352, Note_on_c, 0, 82, 90
2, 182368, Note_off_c, 0, 62, 100
2, 182384, Note_off_c, 0, 82, 100
2, 182400, Note_on_c, 0, 79, 90
2, 182400, Note_on_c, 0, 63, 90
2, 182528, Note_off_c, 0, 79, 100
2, 182528, Note_off_c, 0, 63, 100
2, 182592, Note_on_c, 0, 82, 60
2, 182592, Note_on_c, 0, 79, 60
2, 182592, Note_on_c, 0, 63, 60
2, 182592, Note_on_c, 0, 67, 60
2, 182720, Note_off_c, 0, 82, 100
2, 182720, Note_off_c, 0, 79, 100
2, 182720, Note_off_c, 0, 63, 100
2, 182720, Note_off_c, 0, 67, 100
2, 182784, Note_on_c, 0, 80, 60
2, 182784, Note_on_c, 0, 77, 60
2, 182784, Note_on_c, 0, 68, 60
2, 182784, Note_on_c, 0, 65, 60
2, 182912, Note_off_c, 0, 80, 100
2, 182912, Note_off_c, 0, 77, 100
2, 182912, Note_off_c, 0, 68, 100
2, 182912, Note_off_c, 0, 65, 100
2, 182976, Note_on_c, 0, 79, 60
2, 182976, Note_on_c, 0, 75, 60
2, 182976, Note_on_c, 0, 70, 60
2, 182976, Note_on_c, 0, 67, 60
2, 183104, Note_off_c, 0, 79, 100
2, 183104, Note_off_c, 0, 75, 100
2, 183104, Note_off_c, 0, 70, 100
2, 183104, Note_off_c, 0, 67, 100
2, 183168, Note_on_c, 0, 76, 60
2, 183168, Note_on_c, 0, 72, 60
2, 183168, Note_on_c, 0, 68, 60
2, 183200, Note_off_c, 0, 76, 100
2, 183216, Note_on_c, 0, 77, 60
2, 183248, Note_off_c, 0, 77, 100
2, 183264, Note_on_c, 0, 79, 60
2, 183296, Note_off_c, 0, 72, 100
2, 183296, Note_off_c, 0, 68, 100
2, 183296, Note_off_c, 0, 79, 100
2, 183312, Note_on_c, 0, 77, 60
2, 183344, Note_off_c, 0, 77, 100
2, 183360, Note_on_c, 0, 80, 60
2, 183392, Note_off_c, 0, 80, 100
2, 183408, Note_on_c, 0, 79, 60
2, 183440, Note_off_c, 0, 79, 100
2, 183456, Note_on_c, 0, 82, 60
2, 183488, Note_off_c, 0, 82, 100
2, 183504, Note_on_c, 0, 80, 60
2, 183536, Note_off_c, 0, 80, 100
2, 183552, Note_on_c, 0, 84, 60
2, 183808, Note_off_c, 0, 84, 100
2, 183920, Note_on_c, 0, 58, 60
2, 183936, Note_on_c, 0, 82, 60
2, 183936, Note_on_c, 0, 62, 60
2, 183936, Note_on_c, 0, 68, 60
2, 184064, Note_off_c, 0, 62, 100
2, 184128, Note_on_c, 0, 65, 60
2, 184176, Note_off_c, 0, 58, 100
2, 184192, Note_off_c, 0, 82, 100
2, 184192, Note_off_c, 0, 68, 100
2, 184256, Note_off_c, 0, 65, 100
2, 184272, Note_on_c, 0, 74, 60
2, 184304, Note_off_c, 0, 74, 100
2, 184320, Note_on_c, 0, 75, 60
2, 184320, Note_on_c, 0, 63, 60
2, 184384, Note_off_c, 0, 63, 100
2, 184416, Note_on_c, 0, 67, 60
2, 184480, Note_off_c, 0, 67, 100
2, 184512, Note_on_c, 0, 70, 60
2, 184576, Note_off_c, 0, 75, 100
2, 184576, Note_off_c, 0, 70, 100
2, 184608, Note_on_c, 0, 67, 60
2, 184672, Note_off_c, 0, 67, 100
2, 184704, Note_on_c, 0, 63, 62
2, 184768, Note_off_c, 0, 63, 100
2, 184800, Note_on_c, 0, 67, 66
2, 184864, Note_off_c, 0, 67, 100
2, 184896, Note_on_c, 0, 85, 68
2, 184896, Note_on_c, 0, 70, 68
2, 184960, Note_off_c, 0, 70, 100
2, 184992, Note_on_c, 0, 67, 72
2, 185024, Note_off_c, 0, 85, 100
2, 185056, Note_off_c, 0, 67, 100
2, 185088, Note_on_c, 0, 84, 74
2, 185088, Note_on_c, 0, 68, 74
2, 185152, Note_off_c, 0, 68, 100
2, 185184, Note_on_c, 0, 65, 79
2, 185216, Note_off_c, 0, 84, 100
2, 185248, Note_off_c, 0, 65, 100
2, 185280, Note_on_c, 0, 86, 82
2, 185280, Note_on_c, 0, 72, 82
2, 185344, Note_off_c, 0, 72, 100
2, 185376, Note_on_c, 0, 68, 86
2, 185408, Note_off_c, 0, 86, 100
2, 185440, Note_off_c, 0, 68, 100
2, 185472, Note_on_c, 0, 89, 90
2, 185472, Note_on_c, 0, 68, 90
2, 185536, Note_off_c, 0, 68, 100
2, 185552, Note_on_c, 0, 70, 90
2, 185600, Note_off_c, 0, 89, 100
2, 185616, Note_off_c, 0, 70, 100
2, 185664, Note_on_c, 0, 87, 90
2, 185664, Note_on_c, 0, 67, 90
2, 185728, Note_off_c, 0, 67, 100
2, 185760, Note_on_c, 0, 65, 90
2, 185792, Note_off_c, 0, 87, 100
2, 185824, Note_off_c, 0, 65, 100
2, 186048, Note_on_c, 0, 73, 90
2, 186176, Note_off_c, 0, 73, 100
2, 186240, Note_on_c, 0, 72, 90
2, 186368, Note_off_c, 0, 72, 100
2, 186432, Note_on_c, 0, 74, 90
2, 186432, Note_on_c, 0, 68, 90
2, 186560, Note_off_c, 0, 74, 100
2, 186560, Note_off_c, 0, 68, 100
2, 186624, Note_on_c, 0, 77, 44
2, 186624, Note_on_c, 0, 68, 44
2, 187004, Note_off_c, 0, 77, 0
2, 187004, Note_off_c, 0, 68, 0
2, 187008, Note_on_c, 0, 75, 44
2, 187008, Note_on_c, 0, 67, 44
2, 187196, Note_off_c, 0, 75, 0
2, 187196, Note_off_c, 0, 67, 0
2, 187200, Note_on_c, 0, 62, 44
2, 187200, Note_on_c, 0, 65, 44
2, 187328, Note_off_c, 0, 62, 100
2, 187328, Note_off_c, 0, 65, 100
2, 187392, Note_on_c, 0, 63, 44
2, 187392, Note_on_c, 0, 67, 44
2, 187520, Note_off_c, 0, 63, 100
2, 187520, Note_off_c, 0, 67, 100
2, 187584, Note_on_c, 0, 65, 44
2, 187584, Note_on_c, 0, 68, 44
2, 187712, Note_off_c, 0, 65, 100
2, 187712, Note_off_c, 0, 68, 100
2, 187776, Note_on_c, 0, 68, 44
2, 187776, Note_on_c, 0, 65, 44
2, 187776, Note_on_c, 0, 62, 44
2, 188540, Note_off_c, 0, 68, 0
2, 188540, Note_off_c, 0, 65, 0
2, 188540, Note_off_c, 0, 62, 0
2, 188544, Note_on_c, 0, 67, 44
2, 188544, Note_on_c, 0, 63, 44
2, 188732, Note_off_c, 0, 67, 0
2, 188732, Note_off_c, 0, 63, 0
2, 188732, End_track
3, 0, Start_track
3, 0, Title_t, "K315-b-Andante Cantabile"
3, 0, Control_c, 1, 0, 0
3, 0, Program_c, 1, 0
3, 0, Control_c, 1, 7, 80
3, 0, Control_c, 1, 10, 55
3, 0, Control_c, 1, 91, 120
3, 0, Control_c, 1, 93, 64
3, 0, Key_signature, -3, "minor"
3, 0, Control_c, 1, 121, 0
3, 96, Control_c, 1, 10, 53
3, 192, Control_c, 1, 91, 73
3, 240, Control_c, 1, 93, 50
3, 288, Program_c, 1, 0
3, 1152, Note_on_c, 1, 51, 60
3, 1664, Note_off_c, 1, 51, 100
3, 2304, Note_on_c, 1, 51, 60
3, 2560, Note_off_c, 1, 51, 100
3, 2688, Note_on_c, 1, 53, 60
3, 2944, Note_off_c, 1, 53, 100
3, 3072, Note_on_c, 1, 55, 60
3, 3328, Note_off_c, 1, 55, 100
3, 3456, Note_on_c, 1, 58, 60
3, 3456, Note_on_c, 1, 61, 60
3, 3712, Note_off_c, 1, 58, 100
3, 3712, Note_off_c, 1, 61, 100
3, 3840, Note_on_c, 1, 56, 60
3, 3840, Note_on_c, 1, 60, 60
3, 4096, Note_off_c, 1, 56, 100
3, 4096, Note_off_c, 1, 60, 100
3, 4608, Note_on_c, 1, 55, 60
3, 4608, Note_on_c, 1, 45, 60
3, 4672, Note_off_c, 1, 45, 100
3, 4704, Note_on_c, 1, 46, 60
3, 4768, Note_off_c, 1, 46, 100
3, 4800, Note_on_c, 1, 48, 60
3, 4864, Note_off_c, 1, 55, 100
3, 4864, Note_off_c, 1, 48, 100
3, 4896, Note_on_c, 1, 46, 60
3, 4960, Note_off_c, 1, 46, 100
3, 4992, Note_on_c, 1, 55, 60
3, 4992, Note_on_c, 1, 46, 60
3, 5248, Note_off_c, 1, 55, 100
3, 5248, Note_off_c, 1, 46, 100
3, 5760, Note_on_c, 1, 51, 60
3, 5760, Note_on_c, 1, 39, 60
3, 6016, Note_off_c, 1, 51, 100
3, 6016, Note_off_c, 1, 39, 100
3, 6528, Note_on_c, 1, 60, 60
3, 6528, Note_on_c, 1, 51, 60
3, 6784, Note_off_c, 1, 60, 100
3, 6784, Note_off_c, 1, 51, 100
3, 6912, Note_on_c, 1, 60, 60
3, 6912, Note_on_c, 1, 51, 60
3, 7168, Note_off_c, 1, 60, 100
3, 7168, Note_off_c, 1, 51, 100
3, 7296, Note_on_c, 1, 62, 60
3, 7312, Note_on_c, 1, 58, 60
3, 7552, Note_off_c, 1, 62, 100
3, 7568, Note_off_c, 1, 58, 100
3, 7680, Note_on_c, 1, 60, 60
3, 7680, Note_on_c, 1, 63, 60
3, 7808, Note_off_c, 1, 60, 100
3, 7808, Note_off_c, 1, 63, 100
3, 8064, Note_on_c, 1, 56, 60
3, 8064, Note_on_c, 1, 44, 60
3, 8320, Note_off_c, 1, 56, 100
3, 8320, Note_off_c, 1, 44, 100
3, 8432, Note_on_c, 1, 46, 60
3, 8448, Note_on_c, 1, 55, 60
3, 8704, Note_off_c, 1, 55, 100
3, 8832, Note_on_c, 1, 56, 60
3, 8944, Note_off_c, 1, 46, 100
3, 9088, Note_off_c, 1, 56, 100
3, 9216, Note_on_c, 1, 51, 44
3, 9280, Note_off_c, 1, 51, 100
3, 9312, Note_on_c, 1, 55, 44
3, 9376, Note_off_c, 1, 55, 100
3, 9408, Note_on_c, 1, 58, 44
3, 9472, Note_off_c, 1, 58, 100
3, 9504, Note_on_c, 1, 55, 44
3, 9568, Note_off_c, 1, 55, 100
3, 9600, Note_on_c, 1, 51, 44
3, 9664, Note_off_c, 1, 51, 100
3, 9696, Note_on_c, 1, 55, 44
3, 9760, Note_off_c, 1, 55, 100
3, 9792, Note_on_c, 1, 58, 44
3, 9856, Note_off_c, 1, 58, 100
3, 9888, Note_on_c, 1, 55, 44
3, 9952, Note_off_c, 1, 55, 100
3, 9984, Note_on_c, 1, 51, 44
3, 10048, Note_off_c, 1, 51, 100
3, 10080, Note_on_c, 1, 55, 44
3, 10144, Note_off_c, 1, 55, 100
3, 10176, Note_on_c, 1, 58, 44
3, 10240, Note_off_c, 1, 58, 100
3, 10272, Note_on_c, 1, 55, 44
3, 10336, Note_off_c, 1, 55, 100
3, 10368, Note_on_c, 1, 51, 44
3, 10432, Note_off_c, 1, 51, 100
3, 10464, Note_on_c, 1, 53, 44
3, 10528, Note_off_c, 1, 53, 100
3, 10560, Note_on_c, 1, 56, 44
3, 10624, Note_off_c, 1, 56, 100
3, 10656, Note_on_c, 1, 53, 44
3, 10720, Note_off_c, 1, 53, 100
3, 10752, Note_on_c, 1, 51, 44
3, 10816, Note_off_c, 1, 51, 100
3, 10848, Note_on_c, 1, 53, 44
3, 10912, Note_off_c, 1, 53, 100
3, 10944, Note_on_c, 1, 56, 44
3, 11008, Note_off_c, 1, 56, 100
3, 11040, Note_on_c, 1, 53, 44
3, 11104, Note_off_c, 1, 53, 100
3, 11136, Note_on_c, 1, 51, 44
3, 11200, Note_off_c, 1, 51, 100
3, 11232, Note_on_c, 1, 53, 44
3, 11296, Note_off_c, 1, 53, 100
3, 11328, Note_on_c, 1, 56, 44
3, 11392, Note_off_c, 1, 56, 100
3, 11424, Note_on_c, 1, 53, 44
3, 11488, Note_off_c, 1, 53, 100
3, 11520, Note_on_c, 1, 51, 44
3, 11584, Note_off_c, 1, 51, 100
3, 11616, Note_on_c, 1, 55, 44
3, 11680, Note_off_c, 1, 55, 100
3, 11712, Note_on_c, 1, 58, 44
3, 11776, Note_off_c, 1, 58, 100
3, 11808, Note_on_c, 1, 55, 44
3, 11872, Note_off_c, 1, 55, 100
3, 11904, Note_on_c, 1, 51, 44
3, 11968, Note_off_c, 1, 51, 100
3, 12000, Note_on_c, 1, 55, 44
3, 12064, Note_off_c, 1, 55, 100
3, 12096, Note_on_c, 1, 58, 44
3, 12160, Note_off_c, 1, 58, 100
3, 12192, Note_on_c, 1, 55, 44
3, 12256, Note_off_c, 1, 55, 100
3, 12288, Note_on_c, 1, 51, 44
3, 12352, Note_off_c, 1, 51, 100
3, 12384, Note_on_c, 1, 55, 44
3, 12448, Note_off_c, 1, 55, 100
3, 12480, Note_on_c, 1, 58, 44
3, 12544, Note_off_c, 1, 58, 100
3, 12576, Note_on_c, 1, 55, 44
3, 12640, Note_off_c, 1, 55, 100
3, 12672, Note_on_c, 1, 51, 44
3, 12736, Note_off_c, 1, 51, 100
3, 12784, Note_on_c, 1, 53, 44
3, 12848, Note_off_c, 1, 53, 100
3, 12864, Note_on_c, 1, 56, 44
3, 12928, Note_off_c, 1, 56, 100
3, 12960, Note_on_c, 1, 53, 44
3, 13024, Note_off_c, 1, 53, 100
3, 13056, Note_on_c, 1, 51, 44
3, 13120, Note_off_c, 1, 51, 100
3, 13152, Note_on_c, 1, 53, 44
3, 13216, Note_off_c, 1, 53, 100
3, 13248, Note_on_c, 1, 56, 44
3, 13312, Note_off_c, 1, 56, 100
3, 13344, Note_on_c, 1, 53, 44
3, 13408, Note_off_c, 1, 53, 100
3, 13440, Note_on_c, 1, 51, 44
3, 13504, Note_off_c, 1, 51, 100
3, 13536, Note_on_c, 1, 53, 44
3, 13600, Note_off_c, 1, 53, 100
3, 13632, Note_on_c, 1, 56, 44
3, 13696, Note_off_c, 1, 56, 100
3, 13728, Note_on_c, 1, 53, 44
3, 13792, Note_off_c, 1, 53, 100
3, 13824, Note_on_c, 1, 55, 60
3, 13824, Note_on_c, 1, 51, 60
3, 14080, Note_off_c, 1, 55, 100
3, 14080, Note_off_c, 1, 51, 100
3, 14400, Note_on_c, 1, 55, 60
3, 14400, Note_on_c, 1, 58, 60
3, 14528, Note_off_c, 1, 55, 100
3, 14528, Note_off_c, 1, 58, 100
3, 14592, Note_on_c, 1, 56, 60
3, 14592, Note_on_c, 1, 60, 60
3, 14720, Note_off_c, 1, 56, 100
3, 14720, Note_off_c, 1, 60, 100
3, 14784, Note_on_c, 1, 57, 60
3, 14784, Note_on_c, 1, 60, 60
3, 14912, Note_off_c, 1, 57, 100
3, 14912, Note_off_c, 1, 60, 100
3, 14976, Note_on_c, 1, 58, 60
3, 15232, Note_off_c, 1, 58, 100
3, 15552, Note_on_c, 1, 58, 60
3, 15680, Note_off_c, 1, 58, 100
3, 15744, Note_on_c, 1, 53, 60
3, 15872, Note_off_c, 1, 53, 100
3, 15936, Note_on_c, 1, 50, 60
3, 16064, Note_off_c, 1, 50, 100
3, 16128, Note_on_c, 1, 46, 82
3, 16256, Note_off_c, 1, 46, 100
3, 16320, Note_on_c, 1, 50, 82
3, 16448, Note_off_c, 1, 50, 100
3, 16512, Note_on_c, 1, 53, 82
3, 16640, Note_off_c, 1, 53, 100
3, 16704, Note_on_c, 1, 58, 82
3, 16832, Note_off_c, 1, 58, 100
3, 16896, Note_on_c, 1, 63, 60
3, 17024, Note_off_c, 1, 63, 100
3, 17072, Note_on_c, 1, 62, 60
3, 17200, Note_off_c, 1, 62, 100
3, 17280, Note_on_c, 1, 60, 60
3, 17280, Note_on_c, 1, 63, 60
3, 17408, Note_off_c, 1, 60, 100
3, 17408, Note_off_c, 1, 63, 100
3, 17472, Note_on_c, 1, 58, 60
3, 17472, Note_on_c, 1, 62, 60
3, 17600, Note_off_c, 1, 58, 100
3, 17600, Note_off_c, 1, 62, 100
3, 17664, Note_on_c, 1, 57, 60
3, 17664, Note_on_c, 1, 60, 60
3, 17792, Note_off_c, 1, 57, 100
3, 17792, Note_off_c, 1, 60, 100
3, 18624, Note_on_c, 1, 53, 82
3, 18752, Note_off_c, 1, 53, 100
3, 18816, Note_on_c, 1, 57, 82
3, 18944, Note_off_c, 1, 57, 100
3, 19008, Note_on_c, 1, 60, 82
3, 19136, Note_off_c, 1, 60, 100
3, 19200, Note_on_c, 1, 62, 60
3, 19328, Note_off_c, 1, 62, 100
3, 19392, Note_on_c, 1, 63, 60
3, 19520, Note_off_c, 1, 63, 100
3, 19584, Note_on_c, 1, 62, 60
3, 19584, Note_on_c, 1, 65, 60
3, 19712, Note_off_c, 1, 62, 100
3, 19712, Note_off_c, 1, 65, 100
3, 19776, Note_on_c, 1, 60, 60
3, 19776, Note_on_c, 1, 63, 60
3, 19904, Note_off_c, 1, 60, 100
3, 19904, Note_off_c, 1, 63, 100
3, 19968, Note_on_c, 1, 58, 60
3, 19968, Note_on_c, 1, 62, 60
3, 20096, Note_off_c, 1, 58, 100
3, 20096, Note_off_c, 1, 62, 100
3, 20160, Note_on_c, 1, 46, 60
3, 20288, Note_off_c, 1, 46, 100
3, 20352, Note_on_c, 1, 46, 60
3, 20480, Note_off_c, 1, 46, 100
3, 20528, Note_on_c, 1, 46, 60
3, 20656, Note_off_c, 1, 46, 100
3, 20928, Note_on_c, 1, 50, 82
3, 21056, Note_off_c, 1, 50, 100
3, 21120, Note_on_c, 1, 53, 82
3, 21248, Note_off_c, 1, 53, 100
3, 21312, Note_on_c, 1, 56, 82
3, 21440, Note_off_c, 1, 56, 100
3, 21504, Note_on_c, 1, 55, 82
3, 21632, Note_off_c, 1, 55, 100
3, 21696, Note_on_c, 1, 50, 82
3, 21824, Note_off_c, 1, 50, 100
3, 22080, Note_on_c, 1, 51, 82
3, 22080, Note_on_c, 1, 58, 82
3, 22208, Note_off_c, 1, 51, 100
3, 22208, Note_off_c, 1, 58, 100
3, 22272, Note_on_c, 1, 51, 82
3, 22272, Note_on_c, 1, 58, 82
3, 22400, Note_off_c, 1, 51, 100
3, 22400, Note_off_c, 1, 58, 100
3, 22464, Note_on_c, 1, 59, 82
3, 22464, Note_on_c, 1, 51, 82
3, 22592, Note_off_c, 1, 59, 100
3, 22592, Note_off_c, 1, 51, 100
3, 22656, Note_on_c, 1, 51, 82
3, 22656, Note_on_c, 1, 60, 82
3, 22784, Note_off_c, 1, 51, 100
3, 22784, Note_off_c, 1, 60, 100
3, 22848, Note_on_c, 1, 51, 82
3, 22848, Note_on_c, 1, 57, 82
3, 22976, Note_off_c, 1, 51, 100
3, 22976, Note_off_c, 1, 57, 100
3, 23040, Note_on_c, 1, 50, 60
3, 23040, Note_on_c, 1, 58, 60
3, 23168, Note_off_c, 1, 50, 100
3, 23168, Note_off_c, 1, 58, 100
3, 23168, Note_on_c, 1, 51, 60
3, 23232, Note_on_c, 1, 58, 60
3, 23296, Note_off_c, 1, 51, 100
3, 23360, Note_off_c, 1, 58, 100
3, 23408, Note_on_c, 1, 53, 74
3, 23424, Note_on_c, 1, 62, 60
3, 23552, Note_off_c, 1, 62, 100
3, 23596, Note_off_c, 1, 53, 0
3, 23616, Note_on_c, 1, 53, 60
3, 23616, Note_on_c, 1, 62, 60
3, 23744, Note_off_c, 1, 53, 100
3, 23744, Note_off_c, 1, 62, 100
3, 23808, Note_on_c, 1, 53, 60
3, 23808, Note_on_c, 1, 63, 60
3, 23936, Note_off_c, 1, 53, 100
3, 23936, Note_off_c, 1, 63, 100
3, 24000, Note_on_c, 1, 53, 60
3, 24000, Note_on_c, 1, 63, 60
3, 24128, Note_off_c, 1, 53, 100
3, 24128, Note_off_c, 1, 63, 100
3, 24192, Note_on_c, 1, 58, 61
3, 24192, Note_on_c, 1, 62, 61
3, 24256, Note_off_c, 1, 58, 100
3, 24256, Note_off_c, 1, 62, 100
3, 24288, Note_on_c, 1, 58, 67
3, 24352, Note_off_c, 1, 58, 100
3, 24384, Note_on_c, 1, 62, 74
3, 24448, Note_off_c, 1, 62, 100
3, 24480, Note_on_c, 1, 65, 82
3, 24544, Note_off_c, 1, 65, 100
3, 24576, Note_on_c, 1, 63, 90
3, 24640, Note_off_c, 1, 63, 100
3, 24672, Note_on_c, 1, 65, 90
3, 24736, Note_off_c, 1, 65, 100
3, 24768, Note_on_c, 1, 60, 90
3, 24832, Note_off_c, 1, 60, 100
3, 24864, Note_on_c, 1, 65, 90
3, 24928, Note_off_c, 1, 65, 100
3, 24960, Note_on_c, 1, 60, 90
3, 25024, Note_off_c, 1, 60, 100
3, 25056, Note_on_c, 1, 65, 90
3, 25120, Note_off_c, 1, 65, 100
3, 25152, Note_on_c, 1, 58, 90
3, 25216, Note_off_c, 1, 58, 100
3, 25248, Note_on_c, 1, 65, 90
3, 25312, Note_off_c, 1, 65, 100
3, 25344, Note_on_c, 1, 57, 90
3, 25436, Note_off_c, 1, 57, 0
3, 25440, Note_on_c, 1, 60, 90
3, 25504, Note_off_c, 1, 60, 100
3, 25536, Note_on_c, 1, 63, 90
3, 25600, Note_off_c, 1, 63, 100
3, 25632, Note_on_c, 1, 62, 90
3, 25696, Note_off_c, 1, 62, 100
3, 25728, Note_on_c, 1, 60, 90
3, 25792, Note_off_c, 1, 60, 100
3, 25824, Note_on_c, 1, 58, 90
3, 25888, Note_off_c, 1, 58, 100
3, 25920, Note_on_c, 1, 57, 90
3, 25984, Note_off_c, 1, 57, 100
3, 26016, Note_on_c, 1, 55, 90
3, 26080, Note_off_c, 1, 55, 100
3, 26096, Note_on_c, 1, 53, 90
3, 26160, Note_off_c, 1, 53, 100
3, 26208, Note_on_c, 1, 55, 90
3, 26272, Note_off_c, 1, 55, 100
3, 26304, Note_on_c, 1, 51, 90
3, 26368, Note_off_c, 1, 51, 100
3, 26384, Note_on_c, 1, 53, 90
3, 26448, Note_off_c, 1, 53, 100
3, 26496, Note_on_c, 1, 50, 90
3, 26560, Note_off_c, 1, 50, 100
3, 26592, Note_on_c, 1, 53, 90
3, 26656, Note_off_c, 1, 53, 100
3, 26688, Note_on_c, 1, 58, 90
3, 26752, Note_off_c, 1, 58, 100
3, 26784, Note_on_c, 1, 53, 90
3, 26848, Note_off_c, 1, 53, 100
3, 26880, Note_on_c, 1, 62, 90
3, 27008, Note_off_c, 1, 62, 100
3, 27072, Note_on_c, 1, 58, 60
3, 27072, Note_on_c, 1, 62, 60
3, 27200, Note_off_c, 1, 58, 100
3, 27200, Note_off_c, 1, 62, 100
3, 27264, Note_on_c, 1, 60, 60
3, 27264, Note_on_c, 1, 63, 60
3, 27392, Note_off_c, 1, 60, 100
3, 27392, Note_off_c, 1, 63, 100
3, 27456, Note_on_c, 1, 62, 60
3, 27456, Note_on_c, 1, 65, 60
3, 27584, Note_off_c, 1, 62, 100
3, 27584, Note_off_c, 1, 65, 100
3, 27648, Note_on_c, 1, 63, 60
3, 27648, Note_on_c, 1, 67, 60
3, 27904, Note_off_c, 1, 63, 100
3, 27904, Note_off_c, 1, 67, 100
3, 28224, Note_on_c, 1, 51, 60
3, 28224, Note_on_c, 1, 60, 60
3, 28352, Note_off_c, 1, 51, 100
3, 28352, Note_off_c, 1, 60, 100
3, 28416, Note_on_c, 1, 53, 60
3, 28416, Note_on_c, 1, 62, 60
3, 28544, Note_off_c, 1, 62, 100
3, 28608, Note_on_c, 1, 63, 60
3, 28672, Note_off_c, 1, 53, 100
3, 28736, Note_off_c, 1, 63, 100
3, 28800, Note_on_c, 1, 58, 60
3, 28800, Note_on_c, 1, 63, 60
3, 29056, Note_off_c, 1, 58, 100
3, 29056, Note_off_c, 1, 63, 100
3, 29184, Note_on_c, 1, 58, 60
3, 29184, Note_on_c, 1, 62, 60
3, 29248, Note_off_c, 1, 58, 100
3, 29248, Note_off_c, 1, 62, 100
3, 29280, Note_on_c, 1, 58, 60
3, 29344, Note_off_c, 1, 58, 100
3, 29376, Note_on_c, 1, 62, 82
3, 29440, Note_off_c, 1, 62, 100
3, 29472, Note_on_c, 1, 65, 82
3, 29536, Note_off_c, 1, 65, 100
3, 29568, Note_on_c, 1, 63, 82
3, 29632, Note_off_c, 1, 63, 100
3, 29680, Note_on_c, 1, 62, 82
3, 29744, Note_off_c, 1, 62, 100
3, 29760, Note_on_c, 1, 60, 82
3, 29824, Note_off_c, 1, 60, 100
3, 29856, Note_on_c, 1, 58, 82
3, 29920, Note_off_c, 1, 58, 100
3, 29952, Note_on_c, 1, 57, 82
3, 30016, Note_off_c, 1, 57, 100
3, 30048, Note_on_c, 1, 60, 82
3, 30112, Note_off_c, 1, 60, 100
3, 30144, Note_on_c, 1, 63, 82
3, 30208, Note_off_c, 1, 63, 100
3, 30240, Note_on_c, 1, 62, 82
3, 30304, Note_off_c, 1, 62, 100
3, 30336, Note_on_c, 1, 60, 82
3, 30400, Note_off_c, 1, 60, 100
3, 30432, Note_on_c, 1, 58, 82
3, 30496, Note_off_c, 1, 58, 100
3, 30528, Note_on_c, 1, 57, 82
3, 30592, Note_off_c, 1, 57, 100
3, 30624, Note_on_c, 1, 55, 82
3, 30688, Note_off_c, 1, 55, 100
3, 30720, Note_on_c, 1, 53, 82
3, 30784, Note_off_c, 1, 53, 100
3, 30816, Note_on_c, 1, 55, 82
3, 30880, Note_off_c, 1, 55, 100
3, 30912, Note_on_c, 1, 51, 82
3, 30976, Note_off_c, 1, 51, 100
3, 31008, Note_on_c, 1, 53, 82
3, 31072, Note_off_c, 1, 53, 100
3, 31104, Note_on_c, 1, 50, 82
3, 31168, Note_off_c, 1, 50, 100
3, 31200, Note_on_c, 1, 53, 82
3, 31264, Note_off_c, 1, 53, 100
3, 31296, Note_on_c, 1, 58, 82
3, 31360, Note_off_c, 1, 58, 100
3, 31392, Note_on_c, 1, 53, 82
3, 31456, Note_off_c, 1, 53, 100
3, 31488, Note_on_c, 1, 62, 82
3, 31616, Note_off_c, 1, 62, 100
3, 31680, Note_on_c, 1, 58, 60
3, 31680, Note_on_c, 1, 62, 60
3, 31808, Note_off_c, 1, 58, 100
3, 31808, Note_off_c, 1, 62, 100
3, 31872, Note_on_c, 1, 60, 60
3, 31872, Note_on_c, 1, 63, 60
3, 32000, Note_off_c, 1, 60, 100
3, 32000, Note_off_c, 1, 63, 100
3, 32064, Note_on_c, 1, 65, 60
3, 32064, Note_on_c, 1, 62, 60
3, 32192, Note_off_c, 1, 65, 100
3, 32192, Note_off_c, 1, 62, 100
3, 32256, Note_on_c, 1, 67, 60
3, 32256, Note_on_c, 1, 63, 60
3, 32512, Note_off_c, 1, 67, 100
3, 32512, Note_off_c, 1, 63, 100
3, 33024, Note_on_c, 1, 53, 60
3, 33024, Note_on_c, 1, 63, 60
3, 33024, Note_on_c, 1, 57, 60
3, 33152, Note_off_c, 1, 57, 100
3, 33216, Note_on_c, 1, 60, 60
3, 33280, Note_off_c, 1, 53, 100
3, 33280, Note_off_c, 1, 63, 100
3, 33344, Note_off_c, 1, 60, 100
3, 33408, Note_on_c, 1, 58, 60
3, 33472, Note_off_c, 1, 58, 100
3, 33504, Note_on_c, 1, 62, 60
3, 33568, Note_off_c, 1, 62, 100
3, 33616, Note_on_c, 1, 65, 60
3, 33680, Note_off_c, 1, 65, 100
3, 33696, Note_on_c, 1, 62, 60
3, 33760, Note_off_c, 1, 62, 100
3, 33792, Note_on_c, 1, 58, 60
3, 33856, Note_off_c, 1, 58, 100
3, 33888, Note_on_c, 1, 62, 60
3, 33952, Note_off_c, 1, 62, 100
3, 33984, Note_on_c, 1, 65, 60
3, 34048, Note_off_c, 1, 65, 100
3, 34064, Note_on_c, 1, 62, 60
3, 34128, Note_off_c, 1, 62, 100
3, 34176, Note_on_c, 1, 63, 60
3, 34240, Note_off_c, 1, 63, 100
3, 34272, Note_on_c, 1, 60, 60
3, 34336, Note_off_c, 1, 60, 100
3, 34368, Note_on_c, 1, 65, 60
3, 34432, Note_off_c, 1, 65, 100
3, 34464, Note_on_c, 1, 63, 60
3, 34528, Note_off_c, 1, 63, 100
3, 34560, Note_on_c, 1, 62, 60
3, 34624, Note_off_c, 1, 62, 100
3, 34656, Note_on_c, 1, 65, 60
3, 34720, Note_off_c, 1, 65, 100
3, 34752, Note_on_c, 1, 62, 60
3, 34816, Note_off_c, 1, 62, 100
3, 34848, Note_on_c, 1, 60, 60
3, 34912, Note_off_c, 1, 60, 100
3, 34944, Note_on_c, 1, 58, 60
3, 35008, Note_off_c, 1, 58, 100
3, 35040, Note_on_c, 1, 56, 60
3, 35104, Note_off_c, 1, 56, 100
3, 35136, Note_on_c, 1, 53, 60
3, 35200, Note_off_c, 1, 53, 100
3, 35232, Note_on_c, 1, 50, 60
3, 35296, Note_off_c, 1, 50, 100
3, 35328, Note_on_c, 1, 51, 60
3, 35392, Note_off_c, 1, 51, 100
3, 35424, Note_on_c, 1, 48, 60
3, 35488, Note_off_c, 1, 48, 100
3, 35520, Note_on_c, 1, 53, 60
3, 35584, Note_off_c, 1, 53, 100
3, 35616, Note_on_c, 1, 41, 60
3, 35680, Note_off_c, 1, 41, 100
3, 35712, Note_on_c, 1, 46, 60
3, 36096, Note_off_c, 1, 46, 100
3, 36288, Note_on_c, 1, 56, 60
3, 36416, Note_off_c, 1, 56, 100
3, 36480, Note_on_c, 1, 55, 60
3, 36608, Note_off_c, 1, 55, 100
3, 36672, Note_on_c, 1, 53, 60
3, 36800, Note_off_c, 1, 53, 100
3, 36864, Note_on_c, 1, 51, 60
3, 37376, Note_off_c, 1, 51, 100
3, 38016, Note_on_c, 1, 51, 60
3, 38272, Note_off_c, 1, 51, 100
3, 38400, Note_on_c, 1, 53, 60
3, 38656, Note_off_c, 1, 53, 100
3, 38784, Note_on_c, 1, 55, 60
3, 39040, Note_off_c, 1, 55, 100
3, 39168, Note_on_c, 1, 58, 60
3, 39168, Note_on_c, 1, 61, 60
3, 39424, Note_off_c, 1, 58, 100
3, 39424, Note_off_c, 1, 61, 100
3, 39552, Note_on_c, 1, 56, 60
3, 39552, Note_on_c, 1, 60, 60
3, 39808, Note_off_c, 1, 56, 100
3, 39808, Note_off_c, 1, 60, 100
3, 40320, Note_on_c, 1, 55, 60
3, 40320, Note_on_c, 1, 45, 60
3, 40384, Note_off_c, 1, 45, 100
3, 40416, Note_on_c, 1, 46, 60
3, 40480, Note_off_c, 1, 46, 100
3, 40512, Note_on_c, 1, 48, 60
3, 40576, Note_off_c, 1, 55, 100
3, 40576, Note_off_c, 1, 48, 100
3, 40608, Note_on_c, 1, 46, 60
3, 40672, Note_off_c, 1, 46, 100
3, 40704, Note_on_c, 1, 55, 60
3, 40704, Note_on_c, 1, 46, 60
3, 40960, Note_off_c, 1, 55, 100
3, 40960, Note_off_c, 1, 46, 100
3, 41472, Note_on_c, 1, 51, 60
3, 41472, Note_on_c, 1, 39, 60
3, 41728, Note_off_c, 1, 51, 100
3, 41728, Note_off_c, 1, 39, 100
3, 42240, Note_on_c, 1, 60, 60
3, 42240, Note_on_c, 1, 51, 60
3, 42496, Note_off_c, 1, 60, 100
3, 42496, Note_off_c, 1, 51, 100
3, 42624, Note_on_c, 1, 60, 60
3, 42624, Note_on_c, 1, 51, 60
3, 42880, Note_off_c, 1, 60, 100
3, 42880, Note_off_c, 1, 51, 100
3, 43008, Note_on_c, 1, 62, 60
3, 43024, Note_on_c, 1, 58, 60
3, 43264, Note_off_c, 1, 62, 100
3, 43280, Note_off_c, 1, 58, 100
3, 43392, Note_on_c, 1, 60, 60
3, 43392, Note_on_c, 1, 63, 60
3, 43520, Note_off_c, 1, 60, 100
3, 43520, Note_off_c, 1, 63, 100
3, 43776, Note_on_c, 1, 56, 60
3, 43776, Note_on_c, 1, 44, 60
3, 44032, Note_off_c, 1, 56, 100
3, 44032, Note_off_c, 1, 44, 100
3, 44144, Note_on_c, 1, 46, 60
3, 44160, Note_on_c, 1, 55, 60
3, 44416, Note_off_c, 1, 55, 100
3, 44544, Note_on_c, 1, 56, 60
3, 44656, Note_off_c, 1, 46, 100
3, 44800, Note_off_c, 1, 56, 100
3, 44928, Note_on_c, 1, 51, 44
3, 44992, Note_off_c, 1, 51, 100
3, 45024, Note_on_c, 1, 55, 44
3, 45088, Note_off_c, 1, 55, 100
3, 45120, Note_on_c, 1, 58, 44
3, 45184, Note_off_c, 1, 58, 100
3, 45216, Note_on_c, 1, 55, 44
3, 45280, Note_off_c, 1, 55, 100
3, 45312, Note_on_c, 1, 51, 44
3, 45376, Note_off_c, 1, 51, 100
3, 45408, Note_on_c, 1, 55, 44
3, 45472, Note_off_c, 1, 55, 100
3, 45504, Note_on_c, 1, 58, 44
3, 45568, Note_off_c, 1, 58, 100
3, 45600, Note_on_c, 1, 55, 44
3, 45664, Note_off_c, 1, 55, 100
3, 45696, Note_on_c, 1, 51, 44
3, 45760, Note_off_c, 1, 51, 100
3, 45792, Note_on_c, 1, 55, 44
3, 45856, Note_off_c, 1, 55, 100
3, 45888, Note_on_c, 1, 58, 44
3, 45952, Note_off_c, 1, 58, 100
3, 45984, Note_on_c, 1, 55, 44
3, 46048, Note_off_c, 1, 55, 100
3, 46080, Note_on_c, 1, 51, 44
3, 46144, Note_off_c, 1, 51, 100
3, 46176, Note_on_c, 1, 53, 44
3, 46240, Note_off_c, 1, 53, 100
3, 46272, Note_on_c, 1, 56, 44
3, 46336, Note_off_c, 1, 56, 100
3, 46368, Note_on_c, 1, 53, 44
3, 46432, Note_off_c, 1, 53, 100
3, 46464, Note_on_c, 1, 51, 44
3, 46528, Note_off_c, 1, 51, 100
3, 46560, Note_on_c, 1, 53, 44
3, 46624, Note_off_c, 1, 53, 100
3, 46656, Note_on_c, 1, 56, 44
3, 46720, Note_off_c, 1, 56, 100
3, 46752, Note_on_c, 1, 53, 44
3, 46816, Note_off_c, 1, 53, 100
3, 46848, Note_on_c, 1, 51, 44
3, 46912, Note_off_c, 1, 51, 100
3, 46944, Note_on_c, 1, 53, 44
3, 47008, Note_off_c, 1, 53, 100
3, 47040, Note_on_c, 1, 56, 44
3, 47104, Note_off_c, 1, 56, 100
3, 47136, Note_on_c, 1, 53, 44
3, 47200, Note_off_c, 1, 53, 100
3, 47232, Note_on_c, 1, 51, 44
3, 47296, Note_off_c, 1, 51, 100
3, 47328, Note_on_c, 1, 55, 44
3, 47392, Note_off_c, 1, 55, 100
3, 47424, Note_on_c, 1, 58, 44
3, 47488, Note_off_c, 1, 58, 100
3, 47520, Note_on_c, 1, 55, 44
3, 47584, Note_off_c, 1, 55, 100
3, 47616, Note_on_c, 1, 51, 44
3, 47680, Note_off_c, 1, 51, 100
3, 47712, Note_on_c, 1, 55, 44
3, 47776, Note_off_c, 1, 55, 100
3, 47808, Note_on_c, 1, 58, 44
3, 47872, Note_off_c, 1, 58, 100
3, 47904, Note_on_c, 1, 55, 44
3, 47968, Note_off_c, 1, 55, 100
3, 48000, Note_on_c, 1, 51, 44
3, 48064, Note_off_c, 1, 51, 100
3, 48096, Note_on_c, 1, 55, 44
3, 48160, Note_off_c, 1, 55, 100
3, 48192, Note_on_c, 1, 58, 44
3, 48256, Note_off_c, 1, 58, 100
3, 48288, Note_on_c, 1, 55, 44
3, 48352, Note_off_c, 1, 55, 100
3, 48384, Note_on_c, 1, 51, 44
3, 48448, Note_off_c, 1, 51, 100
3, 48496, Note_on_c, 1, 53, 44
3, 48560, Note_off_c, 1, 53, 100
3, 48576, Note_on_c, 1, 56, 44
3, 48640, Note_off_c, 1, 56, 100
3, 48672, Note_on_c, 1, 53, 44
3, 48736, Note_off_c, 1, 53, 100
3, 48768, Note_on_c, 1, 51, 44
3, 48832, Note_off_c, 1, 51, 100
3, 48864, Note_on_c, 1, 53, 44
3, 48928, Note_off_c, 1, 53, 100
3, 48960, Note_on_c, 1, 56, 44
3, 49024, Note_off_c, 1, 56, 100
3, 49056, Note_on_c, 1, 53, 44
3, 49120, Note_off_c, 1, 53, 100
3, 49152, Note_on_c, 1, 51, 44
3, 49216, Note_off_c, 1, 51, 100
3, 49248, Note_on_c, 1, 53, 44
3, 49312, Note_off_c, 1, 53, 100
3, 49344, Note_on_c, 1, 56, 44
3, 49408, Note_off_c, 1, 56, 100
3, 49440, Note_on_c, 1, 53, 44
3, 49504, Note_off_c, 1, 53, 100
3, 49536, Note_on_c, 1, 55, 60
3, 49536, Note_on_c, 1, 51, 60
3, 49792, Note_off_c, 1, 55, 100
3, 49792, Note_off_c, 1, 51, 100
3, 50112, Note_on_c, 1, 55, 60
3, 50112, Note_on_c, 1, 58, 60
3, 50240, Note_off_c, 1, 55, 100
3, 50240, Note_off_c, 1, 58, 100
3, 50304, Note_on_c, 1, 56, 60
3, 50304, Note_on_c, 1, 60, 60
3, 50432, Note_off_c, 1, 56, 100
3, 50432, Note_off_c, 1, 60, 100
3, 50496, Note_on_c, 1, 57, 60
3, 50496, Note_on_c, 1, 60, 60
3, 50624, Note_off_c, 1, 57, 100
3, 50624, Note_off_c, 1, 60, 100
3, 50688, Note_on_c, 1, 58, 60
3, 50944, Note_off_c, 1, 58, 100
3, 51264, Note_on_c, 1, 58, 60
3, 51392, Note_off_c, 1, 58, 100
3, 51456, Note_on_c, 1, 53, 60
3, 51584, Note_off_c, 1, 53, 100
3, 51648, Note_on_c, 1, 50, 60
3, 51776, Note_off_c, 1, 50, 100
3, 51840, Note_on_c, 1, 46, 82
3, 51968, Note_off_c, 1, 46, 100
3, 52032, Note_on_c, 1, 50, 82
3, 52160, Note_off_c, 1, 50, 100
3, 52224, Note_on_c, 1, 53, 82
3, 52352, Note_off_c, 1, 53, 100
3, 52416, Note_on_c, 1, 58, 82
3, 52544, Note_off_c, 1, 58, 100
3, 52608, Note_on_c, 1, 63, 60
3, 52736, Note_off_c, 1, 63, 100
3, 52784, Note_on_c, 1, 62, 60
3, 52912, Note_off_c, 1, 62, 100
3, 52992, Note_on_c, 1, 60, 60
3, 52992, Note_on_c, 1, 63, 60
3, 53120, Note_off_c, 1, 60, 100
3, 53120, Note_off_c, 1, 63, 100
3, 53184, Note_on_c, 1, 58, 60
3, 53184, Note_on_c, 1, 62, 60
3, 53312, Note_off_c, 1, 58, 100
3, 53312, Note_off_c, 1, 62, 100
3, 53376, Note_on_c, 1, 57, 60
3, 53376, Note_on_c, 1, 60, 60
3, 53504, Note_off_c, 1, 57, 100
3, 53504, Note_off_c, 1, 60, 100
3, 54336, Note_on_c, 1, 53, 82
3, 54464, Note_off_c, 1, 53, 100
3, 54528, Note_on_c, 1, 57, 82
3, 54656, Note_off_c, 1, 57, 100
3, 54720, Note_on_c, 1, 60, 82
3, 54848, Note_off_c, 1, 60, 100
3, 54912, Note_on_c, 1, 62, 60
3, 55040, Note_off_c, 1, 62, 100
3, 55104, Note_on_c, 1, 63, 60
3, 55232, Note_off_c, 1, 63, 100
3, 55296, Note_on_c, 1, 62, 60
3, 55296, Note_on_c, 1, 65, 60
3, 55424, Note_off_c, 1, 62, 100
3, 55424, Note_off_c, 1, 65, 100
3, 55488, Note_on_c, 1, 60, 60
3, 55488, Note_on_c, 1, 63, 60
3, 55616, Note_off_c, 1, 60, 100
3, 55616, Note_off_c, 1, 63, 100
3, 55680, Note_on_c, 1, 58, 60
3, 55680, Note_on_c, 1, 62, 60
3, 55808, Note_off_c, 1, 58, 100
3, 55808, Note_off_c, 1, 62, 100
3, 55872, Note_on_c, 1, 46, 60
3, 56000, Note_off_c, 1, 46, 100
3, 56064, Note_on_c, 1, 46, 60
3, 56192, Note_off_c, 1, 46, 100
3, 56240, Note_on_c, 1, 46, 60
3, 56368, Note_off_c, 1, 46, 100
3, 56640, Note_on_c, 1, 50, 82
3, 56768, Note_off_c, 1, 50, 100
3, 56832, Note_on_c, 1, 53, 82
3, 56960, Note_off_c, 1, 53, 100
3, 57024, Note_on_c, 1, 56, 82
3, 57152, Note_off_c, 1, 56, 100
3, 57216, Note_on_c, 1, 55, 82
3, 57344, Note_off_c, 1, 55, 100
3, 57408, Note_on_c, 1, 50, 82
3, 57536, Note_off_c, 1, 50, 100
3, 57792, Note_on_c, 1, 51, 82
3, 57792, Note_on_c, 1, 58, 82
3, 57920, Note_off_c, 1, 51, 100
3, 57920, Note_off_c, 1, 58, 100
3, 57984, Note_on_c, 1, 51, 82
3, 57984, Note_on_c, 1, 58, 82
3, 58112, Note_off_c, 1, 51, 100
3, 58112, Note_off_c, 1, 58, 100
3, 58176, Note_on_c, 1, 59, 82
3, 58176, Note_on_c, 1, 51, 82
3, 58304, Note_off_c, 1, 59, 100
3, 58304, Note_off_c, 1, 51, 100
3, 58368, Note_on_c, 1, 51, 82
3, 58368, Note_on_c, 1, 60, 82
3, 58496, Note_off_c, 1, 51, 100
3, 58496, Note_off_c, 1, 60, 100
3, 58560, Note_on_c, 1, 51, 82
3, 58560, Note_on_c, 1, 57, 82
3, 58688, Note_off_c, 1, 51, 100
3, 58688, Note_off_c, 1, 57, 100
3, 58752, Note_on_c, 1, 50, 60
3, 58752, Note_on_c, 1, 58, 60
3, 58880, Note_off_c, 1, 50, 100
3, 58880, Note_off_c, 1, 58, 100
3, 58880, Note_on_c, 1, 51, 60
3, 58944, Note_on_c, 1, 58, 60
3, 59008, Note_off_c, 1, 51, 100
3, 59072, Note_off_c, 1, 58, 100
3, 59120, Note_on_c, 1, 53, 74
3, 59136, Note_on_c, 1, 62, 60
3, 59264, Note_off_c, 1, 62, 100
3, 59308, Note_off_c, 1, 53, 0
3, 59328, Note_on_c, 1, 53, 60
3, 59328, Note_on_c, 1, 62, 60
3, 59456, Note_off_c, 1, 53, 100
3, 59456, Note_off_c, 1, 62, 100
3, 59520, Note_on_c, 1, 53, 60
3, 59520, Note_on_c, 1, 63, 60
3, 59648, Note_off_c, 1, 53, 100
3, 59648, Note_off_c, 1, 63, 100
3, 59712, Note_on_c, 1, 53, 60
3, 59712, Note_on_c, 1, 63, 60
3, 59840, Note_off_c, 1, 53, 100
3, 59840, Note_off_c, 1, 63, 100
3, 59904, Note_on_c, 1, 58, 61
3, 59904, Note_on_c, 1, 62, 61
3, 59968, Note_off_c, 1, 58, 100
3, 59968, Note_off_c, 1, 62, 100
3, 60000, Note_on_c, 1, 58, 67
3, 60064, Note_off_c, 1, 58, 100
3, 60096, Note_on_c, 1, 62, 74
3, 60160, Note_off_c, 1, 62, 100
3, 60192, Note_on_c, 1, 65, 82
3, 60256, Note_off_c, 1, 65, 100
3, 60288, Note_on_c, 1, 63, 90
3, 60352, Note_off_c, 1, 63, 100
3, 60384, Note_on_c, 1, 65, 90
3, 60448, Note_off_c, 1, 65, 100
3, 60480, Note_on_c, 1, 60, 90
3, 60544, Note_off_c, 1, 60, 100
3, 60576, Note_on_c, 1, 65, 90
3, 60640, Note_off_c, 1, 65, 100
3, 60672, Note_on_c, 1, 60, 90
3, 60736, Note_off_c, 1, 60, 100
3, 60768, Note_on_c, 1, 65, 90
3, 60832, Note_off_c, 1, 65, 100
3, 60864, Note_on_c, 1, 58, 90
3, 60928, Note_off_c, 1, 58, 100
3, 60960, Note_on_c, 1, 65, 90
3, 61024, Note_off_c, 1, 65, 100
3, 61056, Note_on_c, 1, 57, 90
3, 61148, Note_off_c, 1, 57, 0
3, 61152, Note_on_c, 1, 60, 90
3, 61216, Note_off_c, 1, 60, 100
3, 61248, Note_on_c, 1, 63, 90
3, 61312, Note_off_c, 1, 63, 100
3, 61344, Note_on_c, 1, 62, 90
3, 61408, Note_off_c, 1, 62, 100
3, 61440, Note_on_c, 1, 60, 90
3, 61504, Note_off_c, 1, 60, 100
3, 61536, Note_on_c, 1, 58, 90
3, 61600, Note_off_c, 1, 58, 100
3, 61632, Note_on_c, 1, 57, 90
3, 61696, Note_off_c, 1, 57, 100
3, 61728, Note_on_c, 1, 55, 90
3, 61792, Note_off_c, 1, 55, 100
3, 61808, Note_on_c, 1, 53, 90
3, 61872, Note_off_c, 1, 53, 100
3, 61920, Note_on_c, 1, 55, 90
3, 61984, Note_off_c, 1, 55, 100
3, 62016, Note_on_c, 1, 51, 90
3, 62080, Note_off_c, 1, 51, 100
3, 62096, Note_on_c, 1, 53, 90
3, 62160, Note_off_c, 1, 53, 100
3, 62208, Note_on_c, 1, 50, 90
3, 62272, Note_off_c, 1, 50, 100
3, 62304, Note_on_c, 1, 53, 90
3, 62368, Note_off_c, 1, 53, 100
3, 62400, Note_on_c, 1, 58, 90
3, 62464, Note_off_c, 1, 58, 100
3, 62496, Note_on_c, 1, 53, 90
3, 62560, Note_off_c, 1, 53, 100
3, 62592, Note_on_c, 1, 62, 90
3, 62720, Note_off_c, 1, 62, 100
3, 62784, Note_on_c, 1, 58, 60
3, 62784, Note_on_c, 1, 62, 60
3, 62912, Note_off_c, 1, 58, 100
3, 62912, Note_off_c, 1, 62, 100
3, 62976, Note_on_c, 1, 60, 60
3, 62976, Note_on_c, 1, 63, 60
3, 63104, Note_off_c, 1, 60, 100
3, 63104, Note_off_c, 1, 63, 100
3, 63168, Note_on_c, 1, 62, 60
3, 63168, Note_on_c, 1, 65, 60
3, 63296, Note_off_c, 1, 62, 100
3, 63296, Note_off_c, 1, 65, 100
3, 63360, Note_on_c, 1, 63, 60
3, 63360, Note_on_c, 1, 67, 60
3, 63616, Note_off_c, 1, 63, 100
3, 63616, Note_off_c, 1, 67, 100
3, 63936, Note_on_c, 1, 51, 60
3, 63936, Note_on_c, 1, 60, 60
3, 64064, Note_off_c, 1, 51, 100
3, 64064, Note_off_c, 1, 60, 100
3, 64128, Note_on_c, 1, 53, 60
3, 64128, Note_on_c, 1, 62, 60
3, 64256, Note_off_c, 1, 62, 100
3, 64320, Note_on_c, 1, 63, 60
3, 64384, Note_off_c, 1, 53, 100
3, 64448, Note_off_c, 1, 63, 100
3, 64512, Note_on_c, 1, 58, 60
3, 64512, Note_on_c, 1, 63, 60
3, 64768, Note_off_c, 1, 58, 100
3, 64768, Note_off_c, 1, 63, 100
3, 64896, Note_on_c, 1, 58, 60
3, 64896, Note_on_c, 1, 62, 60
3, 64960, Note_off_c, 1, 58, 100
3, 64960, Note_off_c, 1, 62, 100
3, 64992, Note_on_c, 1, 58, 60
3, 65056, Note_off_c, 1, 58, 100
3, 65088, Note_on_c, 1, 62, 82
3, 65152, Note_off_c, 1, 62, 100
3, 65184, Note_on_c, 1, 65, 82
3, 65248, Note_off_c, 1, 65, 100
3, 65280, Note_on_c, 1, 63, 82
3, 65344, Note_off_c, 1, 63, 100
3, 65392, Note_on_c, 1, 62, 82
3, 65456, Note_off_c, 1, 62, 100
3, 65472, Note_on_c, 1, 60, 82
3, 65536, Note_off_c, 1, 60, 100
3, 65568, Note_on_c, 1, 58, 82
3, 65632, Note_off_c, 1, 58, 100
3, 65664, Note_on_c, 1, 57, 82
3, 65728, Note_off_c, 1, 57, 100
3, 65760, Note_on_c, 1, 60, 82
3, 65824, Note_off_c, 1, 60, 100
3, 65856, Note_on_c, 1, 63, 82
3, 65920, Note_off_c, 1, 63, 100
3, 65952, Note_on_c, 1, 62, 82
3, 66016, Note_off_c, 1, 62, 100
3, 66048, Note_on_c, 1, 60, 82
3, 66112, Note_off_c, 1, 60, 100
3, 66144, Note_on_c, 1, 58, 82
3, 66208, Note_off_c, 1, 58, 100
3, 66240, Note_on_c, 1, 57, 82
3, 66304, Note_off_c, 1, 57, 100
3, 66336, Note_on_c, 1, 55, 82
3, 66400, Note_off_c, 1, 55, 100
3, 66432, Note_on_c, 1, 53, 82
3, 66496, Note_off_c, 1, 53, 100
3, 66528, Note_on_c, 1, 55, 82
3, 66592, Note_off_c, 1, 55, 100
3, 66624, Note_on_c, 1, 51, 82
3, 66688, Note_off_c, 1, 51, 100
3, 66720, Note_on_c, 1, 53, 82
3, 66784, Note_off_c, 1, 53, 100
3, 66816, Note_on_c, 1, 50, 82
3, 66880, Note_off_c, 1, 50, 100
3, 66912, Note_on_c, 1, 53, 82
3, 66976, Note_off_c, 1, 53, 100
3, 67008, Note_on_c, 1, 58, 82
3, 67072, Note_off_c, 1, 58, 100
3, 67104, Note_on_c, 1, 53, 82
3, 67168, Note_off_c, 1, 53, 100
3, 67200, Note_on_c, 1, 62, 82
3, 67328, Note_off_c, 1, 62, 100
3, 67392, Note_on_c, 1, 58, 60
3, 67392, Note_on_c, 1, 62, 60
3, 67520, Note_off_c, 1, 58, 100
3, 67520, Note_off_c, 1, 62, 100
3, 67584, Note_on_c, 1, 60, 60
3, 67584, Note_on_c, 1, 63, 60
3, 67712, Note_off_c, 1, 60, 100
3, 67712, Note_off_c, 1, 63, 100
3, 67776, Note_on_c, 1, 65, 60
3, 67776, Note_on_c, 1, 62, 60
3, 67904, Note_off_c, 1, 65, 100
3, 67904, Note_off_c, 1, 62, 100
3, 67968, Note_on_c, 1, 67, 60
3, 67968, Note_on_c, 1, 63, 60
3, 68224, Note_off_c, 1, 67, 100
3, 68224, Note_off_c, 1, 63, 100
3, 68736, Note_on_c, 1, 53, 60
3, 68736, Note_on_c, 1, 63, 60
3, 68736, Note_on_c, 1, 57, 60
3, 68864, Note_off_c, 1, 57, 100
3, 68928, Note_on_c, 1, 60, 60
3, 68992, Note_off_c, 1, 53, 100
3, 68992, Note_off_c, 1, 63, 100
3, 69056, Note_off_c, 1, 60, 100
3, 69120, Note_on_c, 1, 58, 60
3, 69184, Note_off_c, 1, 58, 100
3, 69216, Note_on_c, 1, 62, 60
3, 69280, Note_off_c, 1, 62, 100
3, 69328, Note_on_c, 1, 65, 60
3, 69392, Note_off_c, 1, 65, 100
3, 69408, Note_on_c, 1, 62, 60
3, 69472, Note_off_c, 1, 62, 100
3, 69504, Note_on_c, 1, 58, 60
3, 69568, Note_off_c, 1, 58, 100
3, 69600, Note_on_c, 1, 62, 60
3, 69664, Note_off_c, 1, 62, 100
3, 69696, Note_on_c, 1, 65, 60
3, 69760, Note_off_c, 1, 65, 100
3, 69776, Note_on_c, 1, 62, 60
3, 69840, Note_off_c, 1, 62, 100
3, 69888, Note_on_c, 1, 63, 60
3, 69952, Note_off_c, 1, 63, 100
3, 69984, Note_on_c, 1, 60, 60
3, 70048, Note_off_c, 1, 60, 100
3, 70080, Note_on_c, 1, 65, 60
3, 70144, Note_off_c, 1, 65, 100
3, 70176, Note_on_c, 1, 63, 60
3, 70240, Note_off_c, 1, 63, 100
3, 70272, Note_on_c, 1, 62, 60
3, 70336, Note_off_c, 1, 62, 100
3, 70368, Note_on_c, 1, 65, 60
3, 70432, Note_off_c, 1, 65, 100
3, 70464, Note_on_c, 1, 62, 60
3, 70528, Note_off_c, 1, 62, 100
3, 70560, Note_on_c, 1, 60, 60
3, 70624, Note_off_c, 1, 60, 100
3, 70656, Note_on_c, 1, 58, 60
3, 70720, Note_off_c, 1, 58, 100
3, 70752, Note_on_c, 1, 56, 60
3, 70816, Note_off_c, 1, 56, 100
3, 70848, Note_on_c, 1, 53, 60
3, 70912, Note_off_c, 1, 53, 100
3, 70944, Note_on_c, 1, 50, 60
3, 71008, Note_off_c, 1, 50, 100
3, 71040, Note_on_c, 1, 51, 60
3, 71104, Note_off_c, 1, 51, 100
3, 71136, Note_on_c, 1, 48, 60
3, 71200, Note_off_c, 1, 48, 100
3, 71232, Note_on_c, 1, 53, 60
3, 71296, Note_off_c, 1, 53, 100
3, 71328, Note_on_c, 1, 41, 60
3, 71392, Note_off_c, 1, 41, 100
3, 71424, Note_on_c, 1, 46, 60
3, 71808, Note_off_c, 1, 46, 100
3, 72000, Note_on_c, 1, 56, 60
3, 72128, Note_off_c, 1, 56, 100
3, 72192, Note_on_c, 1, 55, 60
3, 72320, Note_off_c, 1, 55, 100
3, 72384, Note_on_c, 1, 53, 60
3, 72512, Note_off_c, 1, 53, 100
3, 72576, Note_on_c, 1, 52, 90
3, 73088, Note_off_c, 1, 52, 100
3, 73344, Note_on_c, 1, 48, 60
3, 73600, Note_off_c, 1, 48, 100
3, 73728, Note_on_c, 1, 49, 60
3, 74240, Note_off_c, 1, 49, 100
3, 74496, Note_on_c, 1, 56, 60
3, 74496, Note_on_c, 1, 60, 60
3, 74752, Note_off_c, 1, 56, 100
3, 74752, Note_off_c, 1, 60, 100
3, 74880, Note_on_c, 1, 58, 60
3, 74880, Note_on_c, 1, 61, 60
3, 75136, Note_off_c, 1, 58, 100
3, 75136, Note_off_c, 1, 61, 100
3, 76608, Note_on_c, 1, 41, 60
3, 76736, Note_off_c, 1, 41, 100
3, 76800, Note_on_c, 1, 41, 60
3, 76928, Note_off_c, 1, 41, 100
3, 76992, Note_on_c, 1, 41, 60
3, 77120, Note_off_c, 1, 41, 100
3, 77184, Note_on_c, 1, 41, 60
3, 77952, Note_off_c, 1, 41, 100
3, 78336, Note_on_c, 1, 41, 60
3, 78720, Note_off_c, 1, 41, 100
3, 78912, Note_on_c, 1, 41, 60
3, 79040, Note_off_c, 1, 41, 100
3, 79104, Note_on_c, 1, 41, 60
3, 79232, Note_off_c, 1, 41, 100
3, 79296, Note_on_c, 1, 41, 60
3, 79424, Note_off_c, 1, 41, 100
3, 79488, Note_on_c, 1, 42, 60
3, 80256, Note_off_c, 1, 42, 100
3, 80640, Note_on_c, 1, 43, 62
3, 81024, Note_off_c, 1, 43, 100
3, 81232, Note_on_c, 1, 43, 66
3, 81360, Note_off_c, 1, 43, 100
3, 81408, Note_on_c, 1, 43, 68
3, 81536, Note_off_c, 1, 43, 100
3, 81600, Note_on_c, 1, 43, 72
3, 81728, Note_off_c, 1, 43, 100
3, 81792, Note_on_c, 1, 44, 74
3, 82304, Note_off_c, 1, 44, 100
3, 82560, Note_on_c, 1, 45, 84
3, 82816, Note_off_c, 1, 45, 100
3, 82944, Note_on_c, 1, 46, 90
3, 83200, Note_off_c, 1, 46, 100
3, 83328, Note_on_c, 1, 49, 90
3, 83584, Note_off_c, 1, 49, 100
3, 83712, Note_on_c, 1, 48, 60
3, 83968, Note_off_c, 1, 48, 100
3, 84096, Note_on_c, 1, 49, 60
3, 84352, Note_off_c, 1, 49, 100
3, 84480, Note_on_c, 1, 51, 60
3, 84480, Note_on_c, 1, 60, 60
3, 84736, Note_off_c, 1, 51, 100
3, 84736, Note_off_c, 1, 60, 100
3, 84864, Note_on_c, 1, 51, 60
3, 84864, Note_on_c, 1, 61, 60
3, 85120, Note_off_c, 1, 51, 100
3, 85120, Note_off_c, 1, 61, 100
3, 85248, Note_on_c, 1, 56, 60
3, 85312, Note_off_c, 1, 56, 100
3, 85344, Note_on_c, 1, 60, 60
3, 85408, Note_off_c, 1, 60, 100
3, 85440, Note_on_c, 1, 63, 60
3, 85504, Note_off_c, 1, 63, 100
3, 85536, Note_on_c, 1, 60, 60
3, 85600, Note_off_c, 1, 60, 100
3, 85632, Note_on_c, 1, 56, 60
3, 85696, Note_off_c, 1, 56, 100
3, 85712, Note_on_c, 1, 60, 60
3, 85776, Note_off_c, 1, 60, 100
3, 85824, Note_on_c, 1, 63, 60
3, 85888, Note_off_c, 1, 63, 100
3, 85920, Note_on_c, 1, 60, 60
3, 85984, Note_off_c, 1, 60, 100
3, 86016, Note_on_c, 1, 56, 60
3, 86080, Note_off_c, 1, 56, 100
3, 86112, Note_on_c, 1, 60, 60
3, 86176, Note_off_c, 1, 60, 100
3, 86208, Note_on_c, 1, 63, 60
3, 86272, Note_off_c, 1, 63, 100
3, 86304, Note_on_c, 1, 60, 60
3, 86368, Note_off_c, 1, 60, 100
3, 86400, Note_on_c, 1, 55, 60
3, 86464, Note_off_c, 1, 55, 100
3, 86496, Note_on_c, 1, 58, 60
3, 86560, Note_off_c, 1, 58, 100
3, 86576, Note_on_c, 1, 60, 60
3, 86640, Note_off_c, 1, 60, 100
3, 86688, Note_on_c, 1, 58, 60
3, 86752, Note_off_c, 1, 58, 100
3, 86784, Note_on_c, 1, 55, 60
3, 86848, Note_off_c, 1, 55, 100
3, 86880, Note_on_c, 1, 58, 60
3, 86944, Note_off_c, 1, 58, 100
3, 86976, Note_on_c, 1, 60, 60
3, 87040, Note_off_c, 1, 60, 100
3, 87072, Note_on_c, 1, 58, 60
3, 87136, Note_off_c, 1, 58, 100
3, 87168, Note_on_c, 1, 55, 60
3, 87232, Note_off_c, 1, 55, 100
3, 87264, Note_on_c, 1, 58, 60
3, 87328, Note_off_c, 1, 58, 100
3, 87376, Note_on_c, 1, 60, 60
3, 87440, Note_off_c, 1, 60, 100
3, 87456, Note_on_c, 1, 58, 60
3, 87520, Note_off_c, 1, 58, 100
3, 87552, Note_on_c, 1, 53, 60
3, 87616, Note_off_c, 1, 53, 100
3, 87648, Note_on_c, 1, 56, 60
3, 87712, Note_off_c, 1, 56, 100
3, 87744, Note_on_c, 1, 60, 60
3, 87808, Note_off_c, 1, 60, 100
3, 87840, Note_on_c, 1, 56, 60
3, 87904, Note_off_c, 1, 56, 100
3, 87936, Note_on_c, 1, 53, 60
3, 88000, Note_off_c, 1, 53, 100
3, 88032, Note_on_c, 1, 56, 60
3, 88096, Note_off_c, 1, 56, 100
3, 88128, Note_on_c, 1, 60, 60
3, 88192, Note_off_c, 1, 60, 100
3, 88224, Note_on_c, 1, 56, 60
3, 88288, Note_off_c, 1, 56, 100
3, 88320, Note_on_c, 1, 53, 60
3, 88384, Note_off_c, 1, 53, 100
3, 88416, Note_on_c, 1, 56, 60
3, 88480, Note_off_c, 1, 56, 100
3, 88512, Note_on_c, 1, 60, 60
3, 88576, Note_off_c, 1, 60, 100
3, 88608, Note_on_c, 1, 56, 60
3, 88672, Note_off_c, 1, 56, 100
3, 88704, Note_on_c, 1, 51, 60
3, 88768, Note_off_c, 1, 51, 100
3, 88800, Note_on_c, 1, 54, 60
3, 88864, Note_off_c, 1, 54, 100
3, 88896, Note_on_c, 1, 56, 60
3, 88960, Note_off_c, 1, 56, 100
3, 88992, Note_on_c, 1, 54, 60
3, 89056, Note_off_c, 1, 54, 100
3, 89088, Note_on_c, 1, 51, 60
3, 89152, Note_off_c, 1, 51, 100
3, 89184, Note_on_c, 1, 54, 60
3, 89248, Note_off_c, 1, 54, 100
3, 89280, Note_on_c, 1, 56, 60
3, 89344, Note_off_c, 1, 56, 100
3, 89376, Note_on_c, 1, 54, 60
3, 89440, Note_off_c, 1, 54, 100
3, 89472, Note_on_c, 1, 51, 60
3, 89536, Note_off_c, 1, 51, 100
3, 89568, Note_on_c, 1, 54, 60
3, 89632, Note_off_c, 1, 54, 100
3, 89664, Note_on_c, 1, 56, 60
3, 89728, Note_off_c, 1, 56, 100
3, 89760, Note_on_c, 1, 54, 60
3, 89824, Note_off_c, 1, 54, 100
3, 89856, Note_on_c, 1, 49, 60
3, 89920, Note_off_c, 1, 49, 100
3, 89952, Note_on_c, 1, 52, 60
3, 90016, Note_off_c, 1, 52, 100
3, 90048, Note_on_c, 1, 56, 60
3, 90112, Note_off_c, 1, 56, 100
3, 90144, Note_on_c, 1, 52, 60
3, 90208, Note_off_c, 1, 52, 100
3, 90240, Note_on_c, 1, 49, 60
3, 90304, Note_off_c, 1, 49, 100
3, 90336, Note_on_c, 1, 52, 60
3, 90400, Note_off_c, 1, 52, 100
3, 90432, Note_on_c, 1, 56, 60
3, 90496, Note_off_c, 1, 56, 100
3, 90528, Note_on_c, 1, 52, 60
3, 90592, Note_off_c, 1, 52, 100
3, 90624, Note_on_c, 1, 47, 60
3, 90688, Note_off_c, 1, 47, 100
3, 90720, Note_on_c, 1, 51, 60
3, 90784, Note_off_c, 1, 51, 100
3, 90816, Note_on_c, 1, 56, 60
3, 90880, Note_off_c, 1, 56, 100
3, 90912, Note_on_c, 1, 51, 60
3, 90976, Note_off_c, 1, 51, 100
3, 91008, Note_on_c, 1, 53, 60
3, 91008, Note_on_c, 1, 46, 60
3, 91392, Note_off_c, 1, 53, 100
3, 91392, Note_off_c, 1, 46, 100
3, 91584, Note_on_c, 1, 48, 44
3, 91584, Note_on_c, 1, 41, 44
3, 91712, Note_off_c, 1, 48, 100
3, 91712, Note_off_c, 1, 41, 100
3, 91776, Note_on_c, 1, 48, 44
3, 91776, Note_on_c, 1, 41, 44
3, 91904, Note_off_c, 1, 48, 100
3, 91904, Note_off_c, 1, 41, 100
3, 91968, Note_on_c, 1, 41, 44
3, 91984, Note_on_c, 1, 48, 44
3, 92096, Note_off_c, 1, 41, 100
3, 92112, Note_off_c, 1, 48, 100
3, 92160, Note_on_c, 1, 48, 44
3, 92160, Note_on_c, 1, 41, 44
3, 92416, Note_off_c, 1, 48, 100
3, 92416, Note_off_c, 1, 41, 100
3, 92736, Note_on_c, 1, 58, 44
3, 92736, Note_on_c, 1, 65, 44
3, 92864, Note_off_c, 1, 58, 100
3, 92864, Note_off_c, 1, 65, 100
3, 92928, Note_on_c, 1, 58, 44
3, 92928, Note_on_c, 1, 65, 44
3, 93056, Note_off_c, 1, 58, 100
3, 93056, Note_off_c, 1, 65, 100
3, 93120, Note_on_c, 1, 58, 44
3, 93120, Note_on_c, 1, 65, 44
3, 93248, Note_off_c, 1, 58, 100
3, 93248, Note_off_c, 1, 65, 100
3, 93312, Note_on_c, 1, 65, 44
3, 93312, Note_on_c, 1, 58, 44
3, 93568, Note_off_c, 1, 65, 100
3, 93568, Note_off_c, 1, 58, 100
3, 94464, Note_on_c, 1, 51, 44
3, 94976, Note_off_c, 1, 51, 100
3, 95616, Note_on_c, 1, 51, 44
3, 95680, Note_off_c, 1, 51, 100
3, 95712, Note_on_c, 1, 55, 44
3, 95776, Note_off_c, 1, 55, 100
3, 95808, Note_on_c, 1, 58, 44
3, 95872, Note_off_c, 1, 58, 100
3, 95904, Note_on_c, 1, 51, 44
3, 95968, Note_off_c, 1, 51, 100
3, 96000, Note_on_c, 1, 53, 44
3, 96064, Note_off_c, 1, 53, 100
3, 96096, Note_on_c, 1, 56, 44
3, 96160, Note_off_c, 1, 56, 100
3, 96192, Note_on_c, 1, 62, 44
3, 96256, Note_off_c, 1, 62, 100
3, 96288, Note_on_c, 1, 53, 44
3, 96352, Note_off_c, 1, 53, 100
3, 96384, Note_on_c, 1, 55, 44
3, 96448, Note_off_c, 1, 55, 100
3, 96480, Note_on_c, 1, 58, 44
3, 96544, Note_off_c, 1, 58, 100
3, 96576, Note_on_c, 1, 63, 44
3, 96640, Note_off_c, 1, 63, 100
3, 96672, Note_on_c, 1, 55, 44
3, 96736, Note_off_c, 1, 55, 100
3, 96768, Note_on_c, 1, 60, 60
3, 96768, Note_on_c, 1, 56, 60
3, 97536, Note_off_c, 1, 60, 100
3, 97536, Note_off_c, 1, 56, 100
3, 97920, Note_on_c, 1, 55, 60
3, 97920, Note_on_c, 1, 44, 60
3, 97984, Note_off_c, 1, 44, 100
3, 98016, Note_on_c, 1, 46, 60
3, 98080, Note_off_c, 1, 46, 100
3, 98112, Note_on_c, 1, 48, 60
3, 98176, Note_off_c, 1, 55, 100
3, 98176, Note_off_c, 1, 48, 100
3, 98208, Note_on_c, 1, 46, 60
3, 98272, Note_off_c, 1, 46, 100
3, 98304, Note_on_c, 1, 53, 60
3, 98304, Note_on_c, 1, 46, 60
3, 98560, Note_off_c, 1, 53, 100
3, 98560, Note_off_c, 1, 46, 100
3, 99072, Note_on_c, 1, 51, 60
3, 99072, Note_on_c, 1, 39, 60
3, 99328, Note_off_c, 1, 51, 100
3, 99328, Note_off_c, 1, 39, 100
3, 99840, Note_on_c, 1, 60, 60
3, 99840, Note_on_c, 1, 51, 60
3, 100096, Note_off_c, 1, 60, 100
3, 100096, Note_off_c, 1, 51, 100
3, 100224, Note_on_c, 1, 60, 60
3, 100224, Note_on_c, 1, 53, 60
3, 100480, Note_off_c, 1, 60, 100
3, 100480, Note_off_c, 1, 53, 100
3, 100608, Note_on_c, 1, 62, 60
3, 100608, Note_on_c, 1, 58, 60
3, 100736, Note_off_c, 1, 58, 100
3, 100784, Note_on_c, 1, 58, 60
3, 100864, Note_off_c, 1, 62, 100
3, 100912, Note_off_c, 1, 58, 100
3, 100992, Note_on_c, 1, 60, 60
3, 101024, Note_on_c, 1, 63, 60
3, 101120, Note_off_c, 1, 60, 100
3, 101184, Note_on_c, 1, 55, 60
3, 101280, Note_off_c, 1, 63, 100
3, 101312, Note_off_c, 1, 55, 100
3, 101376, Note_on_c, 1, 63, 60
3, 101376, Note_on_c, 1, 56, 60
3, 101504, Note_off_c, 1, 63, 100
3, 101504, Note_off_c, 1, 56, 100
3, 101760, Note_on_c, 1, 55, 60
3, 101760, Note_on_c, 1, 46, 60
3, 102016, Note_off_c, 1, 55, 100
3, 102144, Note_on_c, 1, 56, 60
3, 102272, Note_off_c, 1, 46, 100
3, 102400, Note_off_c, 1, 56, 100
3, 102528, Note_on_c, 1, 51, 44
3, 102592, Note_off_c, 1, 51, 100
3, 102624, Note_on_c, 1, 55, 44
3, 102688, Note_off_c, 1, 55, 100
3, 102720, Note_on_c, 1, 58, 44
3, 102784, Note_off_c, 1, 58, 100
3, 102816, Note_on_c, 1, 55, 44
3, 102880, Note_off_c, 1, 55, 100
3, 102912, Note_on_c, 1, 51, 44
3, 102976, Note_off_c, 1, 51, 100
3, 103008, Note_on_c, 1, 55, 44
3, 103072, Note_off_c, 1, 55, 100
3, 103104, Note_on_c, 1, 58, 44
3, 103168, Note_off_c, 1, 58, 100
3, 103200, Note_on_c, 1, 55, 44
3, 103264, Note_off_c, 1, 55, 100
3, 103296, Note_on_c, 1, 51, 44
3, 103360, Note_off_c, 1, 51, 100
3, 103392, Note_on_c, 1, 55, 44
3, 103456, Note_off_c, 1, 55, 100
3, 103488, Note_on_c, 1, 58, 44
3, 103552, Note_off_c, 1, 58, 100
3, 103584, Note_on_c, 1, 55, 44
3, 103648, Note_off_c, 1, 55, 100
3, 103680, Note_on_c, 1, 51, 44
3, 103744, Note_off_c, 1, 51, 100
3, 103776, Note_on_c, 1, 53, 44
3, 103840, Note_off_c, 1, 53, 100
3, 103872, Note_on_c, 1, 56, 44
3, 103936, Note_off_c, 1, 56, 100
3, 103968, Note_on_c, 1, 53, 44
3, 104032, Note_off_c, 1, 53, 100
3, 104064, Note_on_c, 1, 51, 44
3, 104128, Note_off_c, 1, 51, 100
3, 104160, Note_on_c, 1, 53, 44
3, 104224, Note_off_c, 1, 53, 100
3, 104256, Note_on_c, 1, 56, 44
3, 104320, Note_off_c, 1, 56, 100
3, 104336, Note_on_c, 1, 53, 44
3, 104400, Note_off_c, 1, 53, 100
3, 104448, Note_on_c, 1, 51, 44
3, 104512, Note_off_c, 1, 51, 100
3, 104544, Note_on_c, 1, 53, 44
3, 104608, Note_off_c, 1, 53, 100
3, 104640, Note_on_c, 1, 56, 44
3, 104704, Note_off_c, 1, 56, 100
3, 104736, Note_on_c, 1, 53, 44
3, 104800, Note_off_c, 1, 53, 100
3, 104832, Note_on_c, 1, 51, 44
3, 104896, Note_off_c, 1, 51, 100
3, 104928, Note_on_c, 1, 55, 44
3, 104992, Note_off_c, 1, 55, 100
3, 105024, Note_on_c, 1, 58, 44
3, 105088, Note_off_c, 1, 58, 100
3, 105120, Note_on_c, 1, 55, 44
3, 105184, Note_off_c, 1, 55, 100
3, 105216, Note_on_c, 1, 51, 44
3, 105280, Note_off_c, 1, 51, 100
3, 105312, Note_on_c, 1, 55, 44
3, 105376, Note_off_c, 1, 55, 100
3, 105408, Note_on_c, 1, 58, 44
3, 105472, Note_off_c, 1, 58, 100
3, 105504, Note_on_c, 1, 55, 44
3, 105568, Note_off_c, 1, 55, 100
3, 105600, Note_on_c, 1, 51, 44
3, 105664, Note_off_c, 1, 51, 100
3, 105696, Note_on_c, 1, 55, 44
3, 105760, Note_off_c, 1, 55, 100
3, 105792, Note_on_c, 1, 58, 44
3, 105856, Note_off_c, 1, 58, 100
3, 105888, Note_on_c, 1, 55, 44
3, 105952, Note_off_c, 1, 55, 100
3, 105984, Note_on_c, 1, 51, 44
3, 106048, Note_off_c, 1, 51, 100
3, 106080, Note_on_c, 1, 55, 44
3, 106144, Note_off_c, 1, 55, 100
3, 106176, Note_on_c, 1, 58, 44
3, 106240, Note_off_c, 1, 58, 100
3, 106272, Note_on_c, 1, 55, 44
3, 106336, Note_off_c, 1, 55, 100
3, 106368, Note_on_c, 1, 51, 44
3, 106432, Note_off_c, 1, 51, 100
3, 106448, Note_on_c, 1, 53, 44
3, 106512, Note_off_c, 1, 53, 100
3, 106560, Note_on_c, 1, 58, 44
3, 106624, Note_off_c, 1, 58, 100
3, 106656, Note_on_c, 1, 53, 44
3, 106720, Note_off_c, 1, 53, 100
3, 106752, Note_on_c, 1, 51, 44
3, 106816, Note_off_c, 1, 51, 100
3, 106848, Note_on_c, 1, 53, 44
3, 106912, Note_off_c, 1, 53, 100
3, 106944, Note_on_c, 1, 56, 44
3, 107008, Note_off_c, 1, 56, 100
3, 107040, Note_on_c, 1, 53, 44
3, 107104, Note_off_c, 1, 53, 100
3, 107136, Note_on_c, 1, 55, 44
3, 107136, Note_on_c, 1, 51, 44
3, 107392, Note_off_c, 1, 55, 100
3, 107392, Note_off_c, 1, 51, 100
3, 107712, Note_on_c, 1, 55, 44
3, 107840, Note_off_c, 1, 55, 100
3, 107904, Note_on_c, 1, 56, 44
3, 108032, Note_off_c, 1, 56, 100
3, 108096, Note_on_c, 1, 57, 44
3, 108224, Note_off_c, 1, 57, 100
3, 108288, Note_on_c, 1, 58, 44
3, 108544, Note_off_c, 1, 58, 100
3, 108672, Note_on_c, 1, 58, 44
3, 108736, Note_off_c, 1, 58, 100
3, 108768, Note_on_c, 1, 59, 44
3, 108832, Note_off_c, 1, 59, 100
3, 108880, Note_on_c, 1, 60, 44
3, 108944, Note_off_c, 1, 60, 100
3, 108960, Note_on_c, 1, 58, 44
3, 109024, Note_off_c, 1, 58, 100
3, 109056, Note_on_c, 1, 58, 44
3, 109120, Note_off_c, 1, 58, 100
3, 109152, Note_on_c, 1, 56, 44
3, 109216, Note_off_c, 1, 56, 100
3, 109248, Note_on_c, 1, 55, 44
3, 109312, Note_off_c, 1, 55, 100
3, 109344, Note_on_c, 1, 53, 44
3, 109408, Note_off_c, 1, 53, 100
3, 109440, Note_on_c, 1, 51, 82
3, 109568, Note_off_c, 1, 51, 100
3, 109632, Note_on_c, 1, 55, 82
3, 109760, Note_off_c, 1, 55, 100
3, 109824, Note_on_c, 1, 58, 82
3, 109952, Note_off_c, 1, 58, 100
3, 110016, Note_on_c, 1, 63, 82
3, 110144, Note_off_c, 1, 63, 100
3, 113472, Note_on_c, 1, 51, 60
3, 113472, Note_on_c, 1, 39, 60
3, 113600, Note_off_c, 1, 51, 100
3, 113600, Note_off_c, 1, 39, 100
3, 113648, Note_on_c, 1, 39, 60
3, 113664, Note_on_c, 1, 51, 60
3, 113776, Note_off_c, 1, 39, 100
3, 113792, Note_off_c, 1, 51, 100
3, 113840, Note_on_c, 1, 39, 60
3, 113856, Note_on_c, 1, 51, 60
3, 113968, Note_off_c, 1, 39, 100
3, 113984, Note_off_c, 1, 51, 100
3, 114240, Note_on_c, 1, 55, 82
3, 114240, Note_on_c, 1, 63, 82
3, 114368, Note_off_c, 1, 55, 100
3, 114368, Note_off_c, 1, 63, 100
3, 114432, Note_on_c, 1, 55, 82
3, 114432, Note_on_c, 1, 63, 82
3, 114560, Note_off_c, 1, 55, 100
3, 114560, Note_off_c, 1, 63, 100
3, 114624, Note_on_c, 1, 55, 82
3, 114624, Note_on_c, 1, 63, 82
3, 114752, Note_off_c, 1, 55, 100
3, 114752, Note_off_c, 1, 63, 100
3, 114816, Note_on_c, 1, 55, 82
3, 114816, Note_on_c, 1, 63, 82
3, 114944, Note_off_c, 1, 55, 100
3, 114944, Note_off_c, 1, 63, 100
3, 115008, Note_on_c, 1, 55, 82
3, 115008, Note_on_c, 1, 63, 82
3, 115136, Note_off_c, 1, 55, 100
3, 115136, Note_off_c, 1, 63, 100
3, 115376, Note_on_c, 1, 63, 82
3, 115408, Note_on_c, 1, 55, 82
3, 115536, Note_off_c, 1, 55, 100
3, 115584, Note_on_c, 1, 56, 82
3, 115632, Note_off_c, 1, 63, 100
3, 115712, Note_off_c, 1, 56, 100
3, 115776, Note_on_c, 1, 56, 82
3, 115776, Note_on_c, 1, 63, 82
3, 115904, Note_off_c, 1, 56, 100
3, 115904, Note_off_c, 1, 63, 100
3, 115968, Note_on_c, 1, 56, 82
3, 115968, Note_on_c, 1, 63, 82
3, 116096, Note_off_c, 1, 56, 100
3, 116096, Note_off_c, 1, 63, 100
3, 116160, Note_on_c, 1, 63, 82
3, 116176, Note_on_c, 1, 56, 82
3, 116288, Note_off_c, 1, 63, 100
3, 116304, Note_off_c, 1, 56, 100
3, 116352, Note_on_c, 1, 55, 60
3, 116352, Note_on_c, 1, 63, 60
3, 116480, Note_off_c, 1, 55, 100
3, 116480, Note_off_c, 1, 63, 100
3, 116544, Note_on_c, 1, 56, 60
3, 116544, Note_on_c, 1, 63, 60
3, 116672, Note_off_c, 1, 56, 100
3, 116672, Note_off_c, 1, 63, 100
3, 116736, Note_on_c, 1, 55, 60
3, 116736, Note_on_c, 1, 46, 60
3, 116864, Note_off_c, 1, 55, 100
3, 116864, Note_off_c, 1, 46, 100
3, 116928, Note_on_c, 1, 55, 60
3, 116928, Note_on_c, 1, 46, 60
3, 117056, Note_off_c, 1, 55, 100
3, 117056, Note_off_c, 1, 46, 100
3, 117120, Note_on_c, 1, 56, 60
3, 117120, Note_on_c, 1, 46, 60
3, 117248, Note_off_c, 1, 56, 100
3, 117248, Note_off_c, 1, 46, 100
3, 117312, Note_on_c, 1, 56, 60
3, 117312, Note_on_c, 1, 46, 60
3, 117440, Note_off_c, 1, 56, 100
3, 117440, Note_off_c, 1, 46, 100
3, 117504, Note_on_c, 1, 55, 66
3, 117504, Note_on_c, 1, 51, 66
3, 117568, Note_off_c, 1, 55, 100
3, 117568, Note_off_c, 1, 51, 100
3, 117600, Note_on_c, 1, 51, 74
3, 117664, Note_off_c, 1, 51, 100
3, 117696, Note_on_c, 1, 55, 80
3, 117760, Note_off_c, 1, 55, 100
3, 117792, Note_on_c, 1, 58, 86
3, 117856, Note_off_c, 1, 58, 100
3, 117888, Note_on_c, 1, 56, 90
3, 117952, Note_off_c, 1, 56, 100
3, 117984, Note_on_c, 1, 58, 90
3, 118048, Note_off_c, 1, 58, 100
3, 118080, Note_on_c, 1, 55, 90
3, 118144, Note_off_c, 1, 55, 100
3, 118176, Note_on_c, 1, 58, 90
3, 118240, Note_off_c, 1, 58, 100
3, 118272, Note_on_c, 1, 53, 90
3, 118336, Note_off_c, 1, 53, 100
3, 118368, Note_on_c, 1, 58, 90
3, 118432, Note_off_c, 1, 58, 100
3, 118464, Note_on_c, 1, 51, 90
3, 118528, Note_off_c, 1, 51, 100
3, 118560, Note_on_c, 1, 58, 90
3, 118624, Note_off_c, 1, 58, 100
3, 118672, Note_on_c, 1, 50, 90
3, 118736, Note_off_c, 1, 50, 100
3, 118752, Note_on_c, 1, 53, 90
3, 118816, Note_off_c, 1, 53, 100
3, 118832, Note_on_c, 1, 56, 90
3, 118896, Note_off_c, 1, 56, 100
3, 118944, Note_on_c, 1, 55, 90
3, 119008, Note_off_c, 1, 55, 100
3, 119040, Note_on_c, 1, 53, 90
3, 119104, Note_off_c, 1, 53, 100
3, 119136, Note_on_c, 1, 51, 90
3, 119200, Note_off_c, 1, 51, 100
3, 119232, Note_on_c, 1, 50, 90
3, 119296, Note_off_c, 1, 50, 100
3, 119328, Note_on_c, 1, 48, 90
3, 119392, Note_off_c, 1, 48, 100
3, 119424, Note_on_c, 1, 46, 90
3, 119488, Note_off_c, 1, 46, 100
3, 119520, Note_on_c, 1, 48, 90
3, 119584, Note_off_c, 1, 48, 100
3, 119632, Note_on_c, 1, 44, 90
3, 119696, Note_off_c, 1, 44, 100
3, 119728, Note_on_c, 1, 46, 90
3, 119792, Note_off_c, 1, 46, 100
3, 119808, Note_on_c, 1, 43, 90
3, 119872, Note_off_c, 1, 43, 100
3, 119904, Note_on_c, 1, 46, 90
3, 119968, Note_off_c, 1, 46, 100
3, 120000, Note_on_c, 1, 51, 90
3, 120064, Note_off_c, 1, 51, 100
3, 120096, Note_on_c, 1, 46, 90
3, 120160, Note_off_c, 1, 46, 100
3, 120192, Note_on_c, 1, 55, 90
3, 120320, Note_off_c, 1, 55, 100
3, 120384, Note_on_c, 1, 51, 60
3, 120384, Note_on_c, 1, 55, 60
3, 120512, Note_off_c, 1, 51, 100
3, 120512, Note_off_c, 1, 55, 100
3, 120576, Note_on_c, 1, 56, 60
3, 120576, Note_on_c, 1, 53, 60
3, 120704, Note_off_c, 1, 56, 100
3, 120704, Note_off_c, 1, 53, 100
3, 120768, Note_on_c, 1, 58, 60
3, 120768, Note_on_c, 1, 55, 60
3, 120896, Note_off_c, 1, 58, 100
3, 120896, Note_off_c, 1, 55, 100
3, 120960, Note_on_c, 1, 60, 60
3, 120960, Note_on_c, 1, 56, 60
3, 121216, Note_off_c, 1, 60, 100
3, 121216, Note_off_c, 1, 56, 100
3, 121536, Note_on_c, 1, 53, 60
3, 121536, Note_on_c, 1, 44, 60
3, 121664, Note_off_c, 1, 53, 100
3, 121664, Note_off_c, 1, 44, 100
3, 121728, Note_on_c, 1, 55, 60
3, 121728, Note_on_c, 1, 46, 60
3, 121856, Note_off_c, 1, 55, 100
3, 121920, Note_on_c, 1, 56, 60
3, 121984, Note_off_c, 1, 46, 100
3, 122048, Note_off_c, 1, 56, 100
3, 122112, Note_on_c, 1, 56, 60
3, 122112, Note_on_c, 1, 51, 60
3, 122368, Note_off_c, 1, 56, 100
3, 122368, Note_off_c, 1, 51, 100
3, 122496, Note_on_c, 1, 55, 60
3, 122496, Note_on_c, 1, 51, 60
3, 122624, Note_off_c, 1, 55, 100
3, 122624, Note_off_c, 1, 51, 100
3, 128256, Note_on_c, 1, 63, 90
3, 128320, Note_off_c, 1, 63, 100
3, 128352, Note_on_c, 1, 61, 90
3, 128416, Note_off_c, 1, 61, 100
3, 128448, Note_on_c, 1, 58, 90
3, 128512, Note_off_c, 1, 58, 100
3, 128544, Note_on_c, 1, 55, 90
3, 128608, Note_off_c, 1, 55, 100
3, 128640, Note_on_c, 1, 56, 90
3, 128704, Note_off_c, 1, 56, 100
3, 128736, Note_on_c, 1, 53, 90
3, 128800, Note_off_c, 1, 53, 100
3, 128832, Note_on_c, 1, 58, 90
3, 128896, Note_off_c, 1, 58, 100
3, 128928, Note_on_c, 1, 46, 90
3, 128992, Note_off_c, 1, 46, 100
3, 129024, Note_on_c, 1, 51, 90
3, 129596, Note_off_c, 1, 51, 0
3, 129600, Note_on_c, 1, 56, 60
3, 129728, Note_off_c, 1, 56, 100
3, 129792, Note_on_c, 1, 55, 60
3, 129920, Note_off_c, 1, 55, 100
3, 129984, Note_on_c, 1, 53, 60
3, 130112, Note_off_c, 1, 53, 100
3, 130176, Note_on_c, 1, 52, 90
3, 130688, Note_off_c, 1, 52, 100
3, 130944, Note_on_c, 1, 48, 60
3, 131200, Note_off_c, 1, 48, 100
3, 131328, Note_on_c, 1, 49, 60
3, 131840, Note_off_c, 1, 49, 100
3, 132096, Note_on_c, 1, 56, 60
3, 132096, Note_on_c, 1, 60, 60
3, 132352, Note_off_c, 1, 56, 100
3, 132352, Note_off_c, 1, 60, 100
3, 132480, Note_on_c, 1, 58, 60
3, 132480, Note_on_c, 1, 61, 60
3, 132736, Note_off_c, 1, 58, 100
3, 132736, Note_off_c, 1, 61, 100
3, 134208, Note_on_c, 1, 41, 60
3, 134336, Note_off_c, 1, 41, 100
3, 134400, Note_on_c, 1, 41, 60
3, 134528, Note_off_c, 1, 41, 100
3, 134592, Note_on_c, 1, 41, 60
3, 134720, Note_off_c, 1, 41, 100
3, 134784, Note_on_c, 1, 41, 60
3, 135552, Note_off_c, 1, 41, 100
3, 135936, Note_on_c, 1, 41, 60
3, 136320, Note_off_c, 1, 41, 100
3, 136512, Note_on_c, 1, 41, 60
3, 136640, Note_off_c, 1, 41, 100
3, 136704, Note_on_c, 1, 41, 60
3, 136832, Note_off_c, 1, 41, 100
3, 136896, Note_on_c, 1, 41, 60
3, 137024, Note_off_c, 1, 41, 100
3, 137088, Note_on_c, 1, 42, 60
3, 137856, Note_off_c, 1, 42, 100
3, 138240, Note_on_c, 1, 43, 62
3, 138624, Note_off_c, 1, 43, 100
3, 138832, Note_on_c, 1, 43, 66
3, 138960, Note_off_c, 1, 43, 100
3, 139008, Note_on_c, 1, 43, 68
3, 139136, Note_off_c, 1, 43, 100
3, 139200, Note_on_c, 1, 43, 72
3, 139328, Note_off_c, 1, 43, 100
3, 139392, Note_on_c, 1, 44, 74
3, 139904, Note_off_c, 1, 44, 100
3, 140160, Note_on_c, 1, 45, 84
3, 140416, Note_off_c, 1, 45, 100
3, 140544, Note_on_c, 1, 46, 90
3, 140800, Note_off_c, 1, 46, 100
3, 140928, Note_on_c, 1, 49, 90
3, 141184, Note_off_c, 1, 49, 100
3, 141312, Note_on_c, 1, 48, 60
3, 141568, Note_off_c, 1, 48, 100
3, 141696, Note_on_c, 1, 49, 60
3, 141952, Note_off_c, 1, 49, 100
3, 142080, Note_on_c, 1, 51, 60
3, 142080, Note_on_c, 1, 60, 60
3, 142336, Note_off_c, 1, 51, 100
3, 142336, Note_off_c, 1, 60, 100
3, 142464, Note_on_c, 1, 51, 60
3, 142464, Note_on_c, 1, 61, 60
3, 142720, Note_off_c, 1, 51, 100
3, 142720, Note_off_c, 1, 61, 100
3, 142848, Note_on_c, 1, 56, 60
3, 142912, Note_off_c, 1, 56, 100
3, 142944, Note_on_c, 1, 60, 60
3, 143008, Note_off_c, 1, 60, 100
3, 143040, Note_on_c, 1, 63, 60
3, 143104, Note_off_c, 1, 63, 100
3, 143136, Note_on_c, 1, 60, 60
3, 143200, Note_off_c, 1, 60, 100
3, 143232, Note_on_c, 1, 56, 60
3, 143296, Note_off_c, 1, 56, 100
3, 143312, Note_on_c, 1, 60, 60
3, 143376, Note_off_c, 1, 60, 100
3, 143424, Note_on_c, 1, 63, 60
3, 143488, Note_off_c, 1, 63, 100
3, 143520, Note_on_c, 1, 60, 60
3, 143584, Note_off_c, 1, 60, 100
3, 143616, Note_on_c, 1, 56, 60
3, 143680, Note_off_c, 1, 56, 100
3, 143712, Note_on_c, 1, 60, 60
3, 143776, Note_off_c, 1, 60, 100
3, 143808, Note_on_c, 1, 63, 60
3, 143872, Note_off_c, 1, 63, 100
3, 143904, Note_on_c, 1, 60, 60
3, 143968, Note_off_c, 1, 60, 100
3, 144000, Note_on_c, 1, 55, 60
3, 144064, Note_off_c, 1, 55, 100
3, 144096, Note_on_c, 1, 58, 60
3, 144160, Note_off_c, 1, 58, 100
3, 144176, Note_on_c, 1, 60, 60
3, 144240, Note_off_c, 1, 60, 100
3, 144288, Note_on_c, 1, 58, 60
3, 144352, Note_off_c, 1, 58, 100
3, 144384, Note_on_c, 1, 55, 60
3, 144448, Note_off_c, 1, 55, 100
3, 144480, Note_on_c, 1, 58, 60
3, 144544, Note_off_c, 1, 58, 100
3, 144576, Note_on_c, 1, 60, 60
3, 144640, Note_off_c, 1, 60, 100
3, 144672, Note_on_c, 1, 58, 60
3, 144736, Note_off_c, 1, 58, 100
3, 144768, Note_on_c, 1, 55, 60
3, 144832, Note_off_c, 1, 55, 100
3, 144864, Note_on_c, 1, 58, 60
3, 144928, Note_off_c, 1, 58, 100
3, 144976, Note_on_c, 1, 60, 60
3, 145040, Note_off_c, 1, 60, 100
3, 145056, Note_on_c, 1, 58, 60
3, 145120, Note_off_c, 1, 58, 100
3, 145152, Note_on_c, 1, 53, 60
3, 145216, Note_off_c, 1, 53, 100
3, 145248, Note_on_c, 1, 56, 60
3, 145312, Note_off_c, 1, 56, 100
3, 145344, Note_on_c, 1, 60, 60
3, 145408, Note_off_c, 1, 60, 100
3, 145440, Note_on_c, 1, 56, 60
3, 145504, Note_off_c, 1, 56, 100
3, 145536, Note_on_c, 1, 53, 60
3, 145600, Note_off_c, 1, 53, 100
3, 145632, Note_on_c, 1, 56, 60
3, 145696, Note_off_c, 1, 56, 100
3, 145728, Note_on_c, 1, 60, 60
3, 145792, Note_off_c, 1, 60, 100
3, 145824, Note_on_c, 1, 56, 60
3, 145888, Note_off_c, 1, 56, 100
3, 145920, Note_on_c, 1, 53, 60
3, 145984, Note_off_c, 1, 53, 100
3, 146016, Note_on_c, 1, 56, 60
3, 146080, Note_off_c, 1, 56, 100
3, 146112, Note_on_c, 1, 60, 60
3, 146176, Note_off_c, 1, 60, 100
3, 146208, Note_on_c, 1, 56, 60
3, 146272, Note_off_c, 1, 56, 100
3, 146304, Note_on_c, 1, 51, 60
3, 146368, Note_off_c, 1, 51, 100
3, 146400, Note_on_c, 1, 54, 60
3, 146464, Note_off_c, 1, 54, 100
3, 146496, Note_on_c, 1, 56, 60
3, 146560, Note_off_c, 1, 56, 100
3, 146592, Note_on_c, 1, 54, 60
3, 146656, Note_off_c, 1, 54, 100
3, 146688, Note_on_c, 1, 51, 60
3, 146752, Note_off_c, 1, 51, 100
3, 146784, Note_on_c, 1, 54, 60
3, 146848, Note_off_c, 1, 54, 100
3, 146880, Note_on_c, 1, 56, 60
3, 146944, Note_off_c, 1, 56, 100
3, 146976, Note_on_c, 1, 54, 60
3, 147040, Note_off_c, 1, 54, 100
3, 147072, Note_on_c, 1, 51, 60
3, 147136, Note_off_c, 1, 51, 100
3, 147168, Note_on_c, 1, 54, 60
3, 147232, Note_off_c, 1, 54, 100
3, 147264, Note_on_c, 1, 56, 60
3, 147328, Note_off_c, 1, 56, 100
3, 147360, Note_on_c, 1, 54, 60
3, 147424, Note_off_c, 1, 54, 100
3, 147456, Note_on_c, 1, 49, 60
3, 147520, Note_off_c, 1, 49, 100
3, 147552, Note_on_c, 1, 52, 60
3, 147616, Note_off_c, 1, 52, 100
3, 147648, Note_on_c, 1, 56, 60
3, 147712, Note_off_c, 1, 56, 100
3, 147744, Note_on_c, 1, 52, 60
3, 147808, Note_off_c, 1, 52, 100
3, 147840, Note_on_c, 1, 49, 60
3, 147904, Note_off_c, 1, 49, 100
3, 147936, Note_on_c, 1, 52, 60
3, 148000, Note_off_c, 1, 52, 100
3, 148032, Note_on_c, 1, 56, 60
3, 148096, Note_off_c, 1, 56, 100
3, 148128, Note_on_c, 1, 52, 60
3, 148192, Note_off_c, 1, 52, 100
3, 148224, Note_on_c, 1, 47, 60
3, 148288, Note_off_c, 1, 47, 100
3, 148320, Note_on_c, 1, 51, 60
3, 148384, Note_off_c, 1, 51, 100
3, 148416, Note_on_c, 1, 56, 60
3, 148480, Note_off_c, 1, 56, 100
3, 148512, Note_on_c, 1, 51, 60
3, 148576, Note_off_c, 1, 51, 100
3, 148608, Note_on_c, 1, 53, 60
3, 148608, Note_on_c, 1, 46, 60
3, 148992, Note_off_c, 1, 53, 100
3, 148992, Note_off_c, 1, 46, 100
3, 149184, Note_on_c, 1, 48, 44
3, 149184, Note_on_c, 1, 41, 44
3, 149312, Note_off_c, 1, 48, 100
3, 149312, Note_off_c, 1, 41, 100
3, 149376, Note_on_c, 1, 48, 44
3, 149376, Note_on_c, 1, 41, 44
3, 149504, Note_off_c, 1, 48, 100
3, 149504, Note_off_c, 1, 41, 100
3, 149568, Note_on_c, 1, 41, 44
3, 149584, Note_on_c, 1, 48, 44
3, 149696, Note_off_c, 1, 41, 100
3, 149712, Note_off_c, 1, 48, 100
3, 149760, Note_on_c, 1, 48, 44
3, 149760, Note_on_c, 1, 41, 44
3, 150016, Note_off_c, 1, 48, 100
3, 150016, Note_off_c, 1, 41, 100
3, 150336, Note_on_c, 1, 58, 44
3, 150336, Note_on_c, 1, 65, 44
3, 150464, Note_off_c, 1, 58, 100
3, 150464, Note_off_c, 1, 65, 100
3, 150528, Note_on_c, 1, 58, 44
3, 150528, Note_on_c, 1, 65, 44
3, 150656, Note_off_c, 1, 58, 100
3, 150656, Note_off_c, 1, 65, 100
3, 150720, Note_on_c, 1, 58, 44
3, 150720, Note_on_c, 1, 65, 44
3, 150848, Note_off_c, 1, 58, 100
3, 150848, Note_off_c, 1, 65, 100
3, 150912, Note_on_c, 1, 65, 44
3, 150912, Note_on_c, 1, 58, 44
3, 151168, Note_off_c, 1, 65, 100
3, 151168, Note_off_c, 1, 58, 100
3, 152064, Note_on_c, 1, 51, 44
3, 152576, Note_off_c, 1, 51, 100
3, 153216, Note_on_c, 1, 51, 44
3, 153280, Note_off_c, 1, 51, 100
3, 153312, Note_on_c, 1, 55, 44
3, 153376, Note_off_c, 1, 55, 100
3, 153408, Note_on_c, 1, 58, 44
3, 153472, Note_off_c, 1, 58, 100
3, 153504, Note_on_c, 1, 51, 44
3, 153568, Note_off_c, 1, 51, 100
3, 153600, Note_on_c, 1, 53, 44
3, 153664, Note_off_c, 1, 53, 100
3, 153696, Note_on_c, 1, 56, 44
3, 153760, Note_off_c, 1, 56, 100
3, 153792, Note_on_c, 1, 62, 44
3, 153856, Note_off_c, 1, 62, 100
3, 153888, Note_on_c, 1, 53, 44
3, 153952, Note_off_c, 1, 53, 100
3, 153984, Note_on_c, 1, 55, 44
3, 154048, Note_off_c, 1, 55, 100
3, 154080, Note_on_c, 1, 58, 44
3, 154144, Note_off_c, 1, 58, 100
3, 154176, Note_on_c, 1, 63, 44
3, 154240, Note_off_c, 1, 63, 100
3, 154272, Note_on_c, 1, 55, 44
3, 154336, Note_off_c, 1, 55, 100
3, 154368, Note_on_c, 1, 60, 60
3, 154368, Note_on_c, 1, 56, 60
3, 155136, Note_off_c, 1, 60, 100
3, 155136, Note_off_c, 1, 56, 100
3, 155520, Note_on_c, 1, 55, 60
3, 155520, Note_on_c, 1, 44, 60
3, 155584, Note_off_c, 1, 44, 100
3, 155616, Note_on_c, 1, 46, 60
3, 155680, Note_off_c, 1, 46, 100
3, 155712, Note_on_c, 1, 48, 60
3, 155776, Note_off_c, 1, 55, 100
3, 155776, Note_off_c, 1, 48, 100
3, 155808, Note_on_c, 1, 46, 60
3, 155872, Note_off_c, 1, 46, 100
3, 155904, Note_on_c, 1, 53, 60
3, 155904, Note_on_c, 1, 46, 60
3, 156160, Note_off_c, 1, 53, 100
3, 156160, Note_off_c, 1, 46, 100
3, 156672, Note_on_c, 1, 51, 60
3, 156672, Note_on_c, 1, 39, 60
3, 156928, Note_off_c, 1, 51, 100
3, 156928, Note_off_c, 1, 39, 100
3, 157440, Note_on_c, 1, 60, 60
3, 157440, Note_on_c, 1, 51, 60
3, 157696, Note_off_c, 1, 60, 100
3, 157696, Note_off_c, 1, 51, 100
3, 157824, Note_on_c, 1, 60, 60
3, 157824, Note_on_c, 1, 53, 60
3, 158080, Note_off_c, 1, 60, 100
3, 158080, Note_off_c, 1, 53, 100
3, 158208, Note_on_c, 1, 62, 60
3, 158208, Note_on_c, 1, 58, 60
3, 158336, Note_off_c, 1, 58, 100
3, 158384, Note_on_c, 1, 58, 60
3, 158464, Note_off_c, 1, 62, 100
3, 158512, Note_off_c, 1, 58, 100
3, 158592, Note_on_c, 1, 60, 60
3, 158624, Note_on_c, 1, 63, 60
3, 158720, Note_off_c, 1, 60, 100
3, 158784, Note_on_c, 1, 55, 60
3, 158880, Note_off_c, 1, 63, 100
3, 158912, Note_off_c, 1, 55, 100
3, 158976, Note_on_c, 1, 63, 60
3, 158976, Note_on_c, 1, 56, 60
3, 159104, Note_off_c, 1, 63, 100
3, 159104, Note_off_c, 1, 56, 100
3, 159360, Note_on_c, 1, 55, 60
3, 159360, Note_on_c, 1, 46, 60
3, 159616, Note_off_c, 1, 55, 100
3, 159744, Note_on_c, 1, 56, 60
3, 159872, Note_off_c, 1, 46, 100
3, 160000, Note_off_c, 1, 56, 100
3, 160128, Note_on_c, 1, 51, 44
3, 160192, Note_off_c, 1, 51, 100
3, 160224, Note_on_c, 1, 55, 44
3, 160288, Note_off_c, 1, 55, 100
3, 160320, Note_on_c, 1, 58, 44
3, 160384, Note_off_c, 1, 58, 100
3, 160416, Note_on_c, 1, 55, 44
3, 160480, Note_off_c, 1, 55, 100
3, 160512, Note_on_c, 1, 51, 44
3, 160576, Note_off_c, 1, 51, 100
3, 160608, Note_on_c, 1, 55, 44
3, 160672, Note_off_c, 1, 55, 100
3, 160704, Note_on_c, 1, 58, 44
3, 160768, Note_off_c, 1, 58, 100
3, 160800, Note_on_c, 1, 55, 44
3, 160864, Note_off_c, 1, 55, 100
3, 160896, Note_on_c, 1, 51, 44
3, 160960, Note_off_c, 1, 51, 100
3, 160992, Note_on_c, 1, 55, 44
3, 161056, Note_off_c, 1, 55, 100
3, 161088, Note_on_c, 1, 58, 44
3, 161152, Note_off_c, 1, 58, 100
3, 161184, Note_on_c, 1, 55, 44
3, 161248, Note_off_c, 1, 55, 100
3, 161280, Note_on_c, 1, 51, 44
3, 161344, Note_off_c, 1, 51, 100
3, 161376, Note_on_c, 1, 53, 44
3, 161440, Note_off_c, 1, 53, 100
3, 161472, Note_on_c, 1, 56, 44
3, 161536, Note_off_c, 1, 56, 100
3, 161568, Note_on_c, 1, 53, 44
3, 161632, Note_off_c, 1, 53, 100
3, 161664, Note_on_c, 1, 51, 44
3, 161728, Note_off_c, 1, 51, 100
3, 161760, Note_on_c, 1, 53, 44
3, 161824, Note_off_c, 1, 53, 100
3, 161856, Note_on_c, 1, 56, 44
3, 161920, Note_off_c, 1, 56, 100
3, 161936, Note_on_c, 1, 53, 44
3, 162000, Note_off_c, 1, 53, 100
3, 162048, Note_on_c, 1, 51, 44
3, 162112, Note_off_c, 1, 51, 100
3, 162144, Note_on_c, 1, 53, 44
3, 162208, Note_off_c, 1, 53, 100
3, 162240, Note_on_c, 1, 56, 44
3, 162304, Note_off_c, 1, 56, 100
3, 162336, Note_on_c, 1, 53, 44
3, 162400, Note_off_c, 1, 53, 100
3, 162432, Note_on_c, 1, 51, 44
3, 162496, Note_off_c, 1, 51, 100
3, 162528, Note_on_c, 1, 55, 44
3, 162592, Note_off_c, 1, 55, 100
3, 162624, Note_on_c, 1, 58, 44
3, 162688, Note_off_c, 1, 58, 100
3, 162720, Note_on_c, 1, 55, 44
3, 162784, Note_off_c, 1, 55, 100
3, 162816, Note_on_c, 1, 51, 44
3, 162880, Note_off_c, 1, 51, 100
3, 162912, Note_on_c, 1, 55, 44
3, 162976, Note_off_c, 1, 55, 100
3, 163008, Note_on_c, 1, 58, 44
3, 163072, Note_off_c, 1, 58, 100
3, 163104, Note_on_c, 1, 55, 44
3, 163168, Note_off_c, 1, 55, 100
3, 163200, Note_on_c, 1, 51, 44
3, 163264, Note_off_c, 1, 51, 100
3, 163296, Note_on_c, 1, 55, 44
3, 163360, Note_off_c, 1, 55, 100
3, 163392, Note_on_c, 1, 58, 44
3, 163456, Note_off_c, 1, 58, 100
3, 163488, Note_on_c, 1, 55, 44
3, 163552, Note_off_c, 1, 55, 100
3, 163584, Note_on_c, 1, 51, 44
3, 163648, Note_off_c, 1, 51, 100
3, 163680, Note_on_c, 1, 55, 44
3, 163744, Note_off_c, 1, 55, 100
3, 163776, Note_on_c, 1, 58, 44
3, 163840, Note_off_c, 1, 58, 100
3, 163872, Note_on_c, 1, 55, 44
3, 163936, Note_off_c, 1, 55, 100
3, 163968, Note_on_c, 1, 51, 44
3, 164032, Note_off_c, 1, 51, 100
3, 164048, Note_on_c, 1, 53, 44
3, 164112, Note_off_c, 1, 53, 100
3, 164160, Note_on_c, 1, 58, 44
3, 164224, Note_off_c, 1, 58, 100
3, 164256, Note_on_c, 1, 53, 44
3, 164320, Note_off_c, 1, 53, 100
3, 164352, Note_on_c, 1, 51, 44
3, 164416, Note_off_c, 1, 51, 100
3, 164448, Note_on_c, 1, 53, 44
3, 164512, Note_off_c, 1, 53, 100
3, 164544, Note_on_c, 1, 56, 44
3, 164608, Note_off_c, 1, 56, 100
3, 164640, Note_on_c, 1, 53, 44
3, 164704, Note_off_c, 1, 53, 100
3, 164736, Note_on_c, 1, 55, 44
3, 164736, Note_on_c, 1, 51, 44
3, 164992, Note_off_c, 1, 55, 100
3, 164992, Note_off_c, 1, 51, 100
3, 165312, Note_on_c, 1, 55, 44
3, 165440, Note_off_c, 1, 55, 100
3, 165504, Note_on_c, 1, 56, 44
3, 165632, Note_off_c, 1, 56, 100
3, 165696, Note_on_c, 1, 57, 44
3, 165824, Note_off_c, 1, 57, 100
3, 165888, Note_on_c, 1, 58, 44
3, 166144, Note_off_c, 1, 58, 100
3, 166272, Note_on_c, 1, 58, 44
3, 166336, Note_off_c, 1, 58, 100
3, 166368, Note_on_c, 1, 59, 44
3, 166432, Note_off_c, 1, 59, 100
3, 166480, Note_on_c, 1, 60, 44
3, 166544, Note_off_c, 1, 60, 100
3, 166560, Note_on_c, 1, 58, 44
3, 166624, Note_off_c, 1, 58, 100
3, 166656, Note_on_c, 1, 58, 44
3, 166720, Note_off_c, 1, 58, 100
3, 166752, Note_on_c, 1, 56, 44
3, 166816, Note_off_c, 1, 56, 100
3, 166848, Note_on_c, 1, 55, 44
3, 166912, Note_off_c, 1, 55, 100
3, 166944, Note_on_c, 1, 53, 44
3, 167008, Note_off_c, 1, 53, 100
3, 167040, Note_on_c, 1, 51, 82
3, 167168, Note_off_c, 1, 51, 100
3, 167232, Note_on_c, 1, 55, 82
3, 167360, Note_off_c, 1, 55, 100
3, 167424, Note_on_c, 1, 58, 82
3, 167552, Note_off_c, 1, 58, 100
3, 167616, Note_on_c, 1, 63, 82
3, 167744, Note_off_c, 1, 63, 100
3, 171072, Note_on_c, 1, 51, 60
3, 171072, Note_on_c, 1, 39, 60
3, 171200, Note_off_c, 1, 51, 100
3, 171200, Note_off_c, 1, 39, 100
3, 171248, Note_on_c, 1, 39, 60
3, 171264, Note_on_c, 1, 51, 60
3, 171376, Note_off_c, 1, 39, 100
3, 171392, Note_off_c, 1, 51, 100
3, 171440, Note_on_c, 1, 39, 60
3, 171456, Note_on_c, 1, 51, 60
3, 171568, Note_off_c, 1, 39, 100
3, 171584, Note_off_c, 1, 51, 100
3, 171840, Note_on_c, 1, 55, 82
3, 171840, Note_on_c, 1, 63, 82
3, 171968, Note_off_c, 1, 55, 100
3, 171968, Note_off_c, 1, 63, 100
3, 172032, Note_on_c, 1, 55, 82
3, 172032, Note_on_c, 1, 63, 82
3, 172160, Note_off_c, 1, 55, 100
3, 172160, Note_off_c, 1, 63, 100
3, 172224, Note_on_c, 1, 55, 82
3, 172224, Note_on_c, 1, 63, 82
3, 172352, Note_off_c, 1, 55, 100
3, 172352, Note_off_c, 1, 63, 100
3, 172416, Note_on_c, 1, 55, 82
3, 172416, Note_on_c, 1, 63, 82
3, 172544, Note_off_c, 1, 55, 100
3, 172544, Note_off_c, 1, 63, 100
3, 172608, Note_on_c, 1, 55, 82
3, 172608, Note_on_c, 1, 63, 82
3, 172736, Note_off_c, 1, 55, 100
3, 172736, Note_off_c, 1, 63, 100
3, 172976, Note_on_c, 1, 63, 82
3, 173008, Note_on_c, 1, 55, 82
3, 173136, Note_off_c, 1, 55, 100
3, 173184, Note_on_c, 1, 56, 82
3, 173232, Note_off_c, 1, 63, 100
3, 173312, Note_off_c, 1, 56, 100
3, 173376, Note_on_c, 1, 56, 82
3, 173376, Note_on_c, 1, 63, 82
3, 173504, Note_off_c, 1, 56, 100
3, 173504, Note_off_c, 1, 63, 100
3, 173568, Note_on_c, 1, 56, 82
3, 173568, Note_on_c, 1, 63, 82
3, 173696, Note_off_c, 1, 56, 100
3, 173696, Note_off_c, 1, 63, 100
3, 173760, Note_on_c, 1, 63, 82
3, 173776, Note_on_c, 1, 56, 82
3, 173888, Note_off_c, 1, 63, 100
3, 173904, Note_off_c, 1, 56, 100
3, 173952, Note_on_c, 1, 55, 60
3, 173952, Note_on_c, 1, 63, 60
3, 174080, Note_off_c, 1, 55, 100
3, 174080, Note_off_c, 1, 63, 100
3, 174144, Note_on_c, 1, 56, 60
3, 174144, Note_on_c, 1, 63, 60
3, 174272, Note_off_c, 1, 56, 100
3, 174272, Note_off_c, 1, 63, 100
3, 174336, Note_on_c, 1, 55, 60
3, 174336, Note_on_c, 1, 46, 60
3, 174464, Note_off_c, 1, 55, 100
3, 174464, Note_off_c, 1, 46, 100
3, 174528, Note_on_c, 1, 55, 60
3, 174528, Note_on_c, 1, 46, 60
3, 174656, Note_off_c, 1, 55, 100
3, 174656, Note_off_c, 1, 46, 100
3, 174720, Note_on_c, 1, 56, 60
3, 174720, Note_on_c, 1, 46, 60
3, 174848, Note_off_c, 1, 56, 100
3, 174848, Note_off_c, 1, 46, 100
3, 174912, Note_on_c, 1, 56, 60
3, 174912, Note_on_c, 1, 46, 60
3, 175040, Note_off_c, 1, 56, 100
3, 175040, Note_off_c, 1, 46, 100
3, 175104, Note_on_c, 1, 55, 66
3, 175104, Note_on_c, 1, 51, 66
3, 175168, Note_off_c, 1, 55, 100
3, 175168, Note_off_c, 1, 51, 100
3, 175200, Note_on_c, 1, 51, 74
3, 175264, Note_off_c, 1, 51, 100
3, 175296, Note_on_c, 1, 55, 80
3, 175360, Note_off_c, 1, 55, 100
3, 175392, Note_on_c, 1, 58, 86
3, 175456, Note_off_c, 1, 58, 100
3, 175488, Note_on_c, 1, 56, 90
3, 175552, Note_off_c, 1, 56, 100
3, 175584, Note_on_c, 1, 58, 90
3, 175648, Note_off_c, 1, 58, 100
3, 175680, Note_on_c, 1, 55, 90
3, 175744, Note_off_c, 1, 55, 100
3, 175776, Note_on_c, 1, 58, 90
3, 175840, Note_off_c, 1, 58, 100
3, 175872, Note_on_c, 1, 53, 90
3, 175936, Note_off_c, 1, 53, 100
3, 175968, Note_on_c, 1, 58, 90
3, 176032, Note_off_c, 1, 58, 100
3, 176064, Note_on_c, 1, 51, 90
3, 176128, Note_off_c, 1, 51, 100
3, 176160, Note_on_c, 1, 58, 90
3, 176224, Note_off_c, 1, 58, 100
3, 176272, Note_on_c, 1, 50, 90
3, 176336, Note_off_c, 1, 50, 100
3, 176352, Note_on_c, 1, 53, 90
3, 176416, Note_off_c, 1, 53, 100
3, 176432, Note_on_c, 1, 56, 90
3, 176496, Note_off_c, 1, 56, 100
3, 176544, Note_on_c, 1, 55, 90
3, 176608, Note_off_c, 1, 55, 100
3, 176640, Note_on_c, 1, 53, 90
3, 176704, Note_off_c, 1, 53, 100
3, 176736, Note_on_c, 1, 51, 90
3, 176800, Note_off_c, 1, 51, 100
3, 176832, Note_on_c, 1, 50, 90
3, 176896, Note_off_c, 1, 50, 100
3, 176928, Note_on_c, 1, 48, 90
3, 176992, Note_off_c, 1, 48, 100
3, 177024, Note_on_c, 1, 46, 90
3, 177088, Note_off_c, 1, 46, 100
3, 177120, Note_on_c, 1, 48, 90
3, 177184, Note_off_c, 1, 48, 100
3, 177232, Note_on_c, 1, 44, 90
3, 177296, Note_off_c, 1, 44, 100
3, 177328, Note_on_c, 1, 46, 90
3, 177392, Note_off_c, 1, 46, 100
3, 177408, Note_on_c, 1, 43, 90
3, 177472, Note_off_c, 1, 43, 100
3, 177504, Note_on_c, 1, 46, 90
3, 177568, Note_off_c, 1, 46, 100
3, 177600, Note_on_c, 1, 51, 90
3, 177664, Note_off_c, 1, 51, 100
3, 177696, Note_on_c, 1, 46, 90
3, 177760, Note_off_c, 1, 46, 100
3, 177792, Note_on_c, 1, 55, 90
3, 177920, Note_off_c, 1, 55, 100
3, 177984, Note_on_c, 1, 51, 60
3, 177984, Note_on_c, 1, 55, 60
3, 178112, Note_off_c, 1, 51, 100
3, 178112, Note_off_c, 1, 55, 100
3, 178176, Note_on_c, 1, 56, 60
3, 178176, Note_on_c, 1, 53, 60
3, 178304, Note_off_c, 1, 56, 100
3, 178304, Note_off_c, 1, 53, 100
3, 178368, Note_on_c, 1, 58, 60
3, 178368, Note_on_c, 1, 55, 60
3, 178496, Note_off_c, 1, 58, 100
3, 178496, Note_off_c, 1, 55, 100
3, 178560, Note_on_c, 1, 60, 60
3, 178560, Note_on_c, 1, 56, 60
3, 178816, Note_off_c, 1, 60, 100
3, 178816, Note_off_c, 1, 56, 100
3, 179136, Note_on_c, 1, 53, 60
3, 179136, Note_on_c, 1, 44, 60
3, 179264, Note_off_c, 1, 53, 100
3, 179264, Note_off_c, 1, 44, 100
3, 179328, Note_on_c, 1, 55, 60
3, 179328, Note_on_c, 1, 46, 60
3, 179456, Note_off_c, 1, 55, 100
3, 179520, Note_on_c, 1, 56, 60
3, 179584, Note_off_c, 1, 46, 100
3, 179648, Note_off_c, 1, 56, 100
3, 179712, Note_on_c, 1, 56, 60
3, 179712, Note_on_c, 1, 51, 60
3, 179968, Note_off_c, 1, 56, 100
3, 179968, Note_off_c, 1, 51, 100
3, 180096, Note_on_c, 1, 55, 60
3, 180096, Note_on_c, 1, 51, 60
3, 180224, Note_off_c, 1, 55, 100
3, 180224, Note_off_c, 1, 51, 100
3, 185856, Note_on_c, 1, 63, 90
3, 185920, Note_off_c, 1, 63, 100
3, 185952, Note_on_c, 1, 61, 90
3, 186016, Note_off_c, 1, 61, 100
3, 186048, Note_on_c, 1, 58, 90
3, 186112, Note_off_c, 1, 58, 100
3, 186144, Note_on_c, 1, 55, 90
3, 186208, Note_off_c, 1, 55, 100
3, 186240, Note_on_c, 1, 56, 90
3, 186304, Note_off_c, 1, 56, 100
3, 186336, Note_on_c, 1, 53, 90
3, 186400, Note_off_c, 1, 53, 100
3, 186432, Note_on_c, 1, 58, 90
3, 186496, Note_off_c, 1, 58, 100
3, 186528, Note_on_c, 1, 46, 90
3, 186592, Note_off_c, 1, 46, 100
3, 186624, Note_on_c, 1, 51, 44
3, 187196, Note_off_c, 1, 51, 0
3, 187584, Note_on_c, 1, 46, 44
3, 187772, Note_off_c, 1, 46, 0
3, 187776, Note_on_c, 1, 51, 44
3, 187776, Note_on_c, 1, 39, 44
3, 188540, Note_off_c, 1, 51, 0
3, 188540, Note_off_c, 1, 39, 0
3, 188544, Note_on_c, 1, 51, 44
3, 188544, Note_on_c, 1, 39, 44
3, 188732, Note_off_c, 1, 51, 0
3, 188732, Note_off_c, 1, 39, 0
3, 188732, End_track
4, 0, Start_track
4, 0, Title_t, "Sonata # 7"
4, 0, Key_signature, -3, "minor"
4, 0, End_track
5, 0, Start_track
5, 0, Title_t, "by Bob"
5, 0, Key_signature, -3, "minor"
5, 0, End_track
6, 0, Start_track
6, 0, Title_t, "Fisher"
6, 0, Key_signature, -3, "minor"
6, 0, End_track
7, 0, Start_track
7, 0, Key_signature, -3, "minor"
7, 0, End_track
8, 0, Start_track
8, 0, Key_signature, -3, "minor"
8, 0, End_track
9, 0, Start_track
9, 0, Key_signature, -3, "minor"
9, 0, End_track
10, 0, Start_track
10, 0, Key_signature, -3, "minor"
10, 0, End_track
11, 0, Start_track
11, 0, Key_signature, -3, "minor"
11, 0, End_track
12, 0, Start_track
12, 0, Key_signature, -3, "minor"
12, 0, End_track
13, 0, Start_track
13, 0, Key_signature, -3, "minor"
13, 0, End_track
14, 0, Start_track
14, 0, Key_signature, -3, "minor"
14, 0, End_track
15, 0, Start_track
15, 0, Key_signature, -3, "minor"
15, 0, End_track
16, 0, Start_track
16, 0, Key_signature, -3, "minor"
16, 0, End_track
0, 0, End_of_file
