0, 0, Header, 1, 5, 384
1, 0, Start_track
1, 0, Time_signature, 4, 2, 96, 8
1, 0, Sequencer_specific, 3, 0, 0, 65
1, 0, Sequencer_specific, 5, 0, 0, 119, 14, 0
1, 0, Tempo, 789473
1, 159744, Tempo, 909090
1, 159744, End_track
2, 0, Start_track
2, 0, Title_t, "Mozart Piano Concerto"
2, 0, Control_c, 0, 0, 0
2, 0, Program_c, 0, 0
2, 0, Control_c, 0, 10, 73
2, 0, Control_c, 0, 91, 67
2, 0, Control_c, 0, 93, 55
2, 0, Key_signature, -1, "minor"
2, 0, Control_c, 0, 121, 0
2, 144, Control_c, 0, 10, 63
2, 192, Control_c, 0, 93, 63
2, 240, Control_c, 0, 91, 35
2, 288, Program_c, 0, 0
2, 36864, Note_on_c, 0, 77, 71
2, 37536, Note_off_c, 0, 77, 64
2, 37536, Note_on_c, 0, 72, 70
2, 37628, Note_off_c, 0, 72, 64
2, 37632, Note_on_c, 0, 81, 72
2, 38304, Note_off_c, 0, 81, 64
2, 38304, Note_on_c, 0, 77, 70
2, 38396, Note_off_c, 0, 77, 64
2, 38400, Note_on_c, 0, 84, 74
2, 39548, Note_off_c, 0, 84, 64
2, 39552, Note_on_c, 0, 82, 73
2, 39644, Note_off_c, 0, 82, 64
2, 39648, Note_on_c, 0, 81, 72
2, 39740, Note_off_c, 0, 81, 64
2, 39744, Note_on_c, 0, 79, 71
2, 39836, Note_off_c, 0, 79, 64
2, 39840, Note_on_c, 0, 77, 70
2, 39932, Note_off_c, 0, 77, 64
2, 39936, Note_on_c, 0, 78, 70
2, 40316, Note_off_c, 0, 78, 64
2, 40320, Note_on_c, 0, 79, 71
2, 40700, Note_off_c, 0, 79, 64
2, 41472, Note_on_c, 0, 72, 70
2, 42236, Note_off_c, 0, 72, 64
2, 42240, Note_on_c, 0, 76, 70
2, 42620, Note_off_c, 0, 76, 64
2, 42624, Note_on_c, 0, 79, 71
2, 43004, Note_off_c, 0, 79, 64
2, 43008, Note_on_c, 0, 82, 73
2, 43964, Note_off_c, 0, 82, 64
2, 43968, Note_on_c, 0, 86, 75
2, 44156, Note_off_c, 0, 86, 64
2, 44160, Note_on_c, 0, 84, 74
2, 44348, Note_off_c, 0, 84, 64
2, 44352, Note_on_c, 0, 82, 73
2, 44540, Note_off_c, 0, 82, 64
2, 44544, Note_on_c, 0, 80, 71
2, 44732, Note_off_c, 0, 80, 64
2, 44736, Note_on_c, 0, 81, 72
2, 44924, Note_off_c, 0, 81, 64
2, 44928, Note_on_c, 0, 81, 72
2, 45308, Note_off_c, 0, 81, 64
2, 46080, Note_on_c, 0, 57, 70
2, 46080, Note_on_c, 0, 84, 74
2, 46208, Note_on_c, 0, 65, 66
2, 46208, Note_on_c, 0, 63, 66
2, 46208, Note_on_c, 0, 60, 66
2, 46332, Note_off_c, 0, 65, 64
2, 46332, Note_off_c, 0, 63, 64
2, 46332, Note_off_c, 0, 60, 64
2, 46336, Note_on_c, 0, 65, 66
2, 46336, Note_on_c, 0, 63, 66
2, 46336, Note_on_c, 0, 60, 66
2, 46460, Note_off_c, 0, 65, 64
2, 46460, Note_off_c, 0, 63, 64
2, 46460, Note_off_c, 0, 60, 64
2, 46464, Note_on_c, 0, 65, 66
2, 46464, Note_on_c, 0, 63, 66
2, 46464, Note_on_c, 0, 60, 66
2, 46588, Note_off_c, 0, 65, 64
2, 46588, Note_off_c, 0, 63, 64
2, 46588, Note_off_c, 0, 60, 64
2, 46592, Note_on_c, 0, 65, 66
2, 46592, Note_on_c, 0, 63, 66
2, 46592, Note_on_c, 0, 60, 66
2, 46716, Note_off_c, 0, 65, 64
2, 46716, Note_off_c, 0, 63, 64
2, 46716, Note_off_c, 0, 60, 64
2, 46720, Note_on_c, 0, 65, 66
2, 46720, Note_on_c, 0, 60, 66
2, 46720, Note_on_c, 0, 63, 66
2, 46844, Note_off_c, 0, 57, 64
2, 46844, Note_off_c, 0, 84, 64
2, 46844, Note_off_c, 0, 65, 64
2, 46844, Note_off_c, 0, 60, 64
2, 46844, Note_off_c, 0, 63, 64
2, 46848, Note_on_c, 0, 57, 70
2, 46976, Note_on_c, 0, 65, 66
2, 46976, Note_on_c, 0, 60, 66
2, 46976, Note_on_c, 0, 63, 66
2, 47100, Note_off_c, 0, 65, 64
2, 47100, Note_off_c, 0, 60, 64
2, 47100, Note_off_c, 0, 63, 64
2, 47104, Note_on_c, 0, 65, 66
2, 47104, Note_on_c, 0, 63, 66
2, 47104, Note_on_c, 0, 60, 66
2, 47228, Note_off_c, 0, 65, 64
2, 47228, Note_off_c, 0, 63, 64
2, 47228, Note_off_c, 0, 60, 64
2, 47232, Note_on_c, 0, 65, 66
2, 47232, Note_on_c, 0, 60, 66
2, 47232, Note_on_c, 0, 63, 66
2, 47356, Note_off_c, 0, 65, 64
2, 47356, Note_off_c, 0, 60, 64
2, 47356, Note_off_c, 0, 63, 64
2, 47360, Note_on_c, 0, 65, 66
2, 47360, Note_on_c, 0, 60, 66
2, 47360, Note_on_c, 0, 63, 66
2, 47484, Note_off_c, 0, 65, 64
2, 47484, Note_off_c, 0, 60, 64
2, 47484, Note_off_c, 0, 63, 64
2, 47488, Note_on_c, 0, 65, 66
2, 47488, Note_on_c, 0, 60, 66
2, 47488, Note_on_c, 0, 63, 66
2, 47612, Note_off_c, 0, 57, 64
2, 47612, Note_off_c, 0, 65, 64
2, 47612, Note_off_c, 0, 60, 64
2, 47612, Note_off_c, 0, 63, 64
2, 47616, Note_on_c, 0, 58, 70
2, 47744, Note_on_c, 0, 65, 66
2, 47744, Note_on_c, 0, 62, 66
2, 47868, Note_off_c, 0, 65, 64
2, 47868, Note_off_c, 0, 62, 64
2, 47872, Note_on_c, 0, 65, 66
2, 47872, Note_on_c, 0, 62, 66
2, 47996, Note_off_c, 0, 65, 64
2, 47996, Note_off_c, 0, 62, 64
2, 48000, Note_on_c, 0, 65, 66
2, 48000, Note_on_c, 0, 62, 66
2, 48124, Note_off_c, 0, 65, 64
2, 48124, Note_off_c, 0, 62, 64
2, 48128, Note_on_c, 0, 65, 66
2, 48128, Note_on_c, 0, 62, 66
2, 48252, Note_off_c, 0, 65, 64
2, 48252, Note_off_c, 0, 62, 64
2, 48256, Note_on_c, 0, 65, 66
2, 48256, Note_on_c, 0, 62, 66
2, 48380, Note_off_c, 0, 58, 64
2, 48380, Note_off_c, 0, 65, 64
2, 48380, Note_off_c, 0, 62, 64
2, 48384, Note_on_c, 0, 58, 70
2, 48512, Note_on_c, 0, 65, 66
2, 48512, Note_on_c, 0, 62, 66
2, 48636, Note_off_c, 0, 65, 64
2, 48636, Note_off_c, 0, 62, 64
2, 48640, Note_on_c, 0, 65, 66
2, 48640, Note_on_c, 0, 62, 66
2, 48764, Note_off_c, 0, 65, 64
2, 48764, Note_off_c, 0, 62, 64
2, 48768, Note_on_c, 0, 65, 66
2, 48768, Note_on_c, 0, 62, 66
2, 48892, Note_off_c, 0, 65, 64
2, 48892, Note_off_c, 0, 62, 64
2, 48896, Note_on_c, 0, 65, 66
2, 48896, Note_on_c, 0, 62, 66
2, 49020, Note_off_c, 0, 65, 64
2, 49020, Note_off_c, 0, 62, 64
2, 49024, Note_on_c, 0, 65, 68
2, 49024, Note_on_c, 0, 62, 68
2, 49148, Note_off_c, 0, 58, 64
2, 49148, Note_off_c, 0, 65, 64
2, 49148, Note_off_c, 0, 62, 64
2, 49152, Note_on_c, 0, 59, 91
2, 49152, Note_on_c, 0, 86, 96
2, 49280, Note_on_c, 0, 68, 87
2, 49280, Note_on_c, 0, 65, 87
2, 49280, Note_on_c, 0, 62, 87
2, 49404, Note_off_c, 0, 68, 64
2, 49404, Note_off_c, 0, 65, 64
2, 49404, Note_off_c, 0, 62, 64
2, 49408, Note_on_c, 0, 68, 87
2, 49408, Note_on_c, 0, 65, 87
2, 49408, Note_on_c, 0, 62, 87
2, 49532, Note_off_c, 0, 68, 64
2, 49532, Note_off_c, 0, 65, 64
2, 49532, Note_off_c, 0, 62, 64
2, 49536, Note_on_c, 0, 68, 87
2, 49536, Note_on_c, 0, 65, 87
2, 49536, Note_on_c, 0, 62, 87
2, 49660, Note_off_c, 0, 68, 64
2, 49660, Note_off_c, 0, 65, 64
2, 49660, Note_off_c, 0, 62, 64
2, 49664, Note_on_c, 0, 68, 87
2, 49664, Note_on_c, 0, 65, 87
2, 49664, Note_on_c, 0, 62, 87
2, 49788, Note_off_c, 0, 68, 64
2, 49788, Note_off_c, 0, 65, 64
2, 49788, Note_off_c, 0, 62, 64
2, 49792, Note_on_c, 0, 68, 87
2, 49792, Note_on_c, 0, 65, 87
2, 49792, Note_on_c, 0, 62, 87
2, 49916, Note_off_c, 0, 59, 64
2, 49916, Note_off_c, 0, 86, 64
2, 49916, Note_off_c, 0, 68, 64
2, 49916, Note_off_c, 0, 65, 64
2, 49916, Note_off_c, 0, 62, 64
2, 49920, Note_on_c, 0, 59, 91
2, 50048, Note_on_c, 0, 68, 87
2, 50048, Note_on_c, 0, 65, 87
2, 50048, Note_on_c, 0, 62, 87
2, 50172, Note_off_c, 0, 68, 64
2, 50172, Note_off_c, 0, 65, 64
2, 50172, Note_off_c, 0, 62, 64
2, 50176, Note_on_c, 0, 68, 87
2, 50176, Note_on_c, 0, 65, 87
2, 50176, Note_on_c, 0, 62, 87
2, 50300, Note_off_c, 0, 68, 64
2, 50300, Note_off_c, 0, 65, 64
2, 50300, Note_off_c, 0, 62, 64
2, 50304, Note_on_c, 0, 68, 87
2, 50304, Note_on_c, 0, 65, 87
2, 50304, Note_on_c, 0, 62, 87
2, 50428, Note_off_c, 0, 68, 64
2, 50428, Note_off_c, 0, 65, 64
2, 50428, Note_off_c, 0, 62, 64
2, 50432, Note_on_c, 0, 68, 87
2, 50432, Note_on_c, 0, 65, 87
2, 50432, Note_on_c, 0, 62, 87
2, 50556, Note_off_c, 0, 68, 64
2, 50556, Note_off_c, 0, 65, 64
2, 50556, Note_off_c, 0, 62, 64
2, 50560, Note_on_c, 0, 68, 87
2, 50560, Note_on_c, 0, 65, 87
2, 50560, Note_on_c, 0, 62, 87
2, 50684, Note_off_c, 0, 59, 64
2, 50684, Note_off_c, 0, 68, 64
2, 50684, Note_off_c, 0, 65, 64
2, 50684, Note_off_c, 0, 62, 64
2, 50688, Note_on_c, 0, 60, 91
2, 50816, Note_on_c, 0, 69, 87
2, 50816, Note_on_c, 0, 65, 87
2, 50940, Note_off_c, 0, 69, 64
2, 50940, Note_off_c, 0, 65, 64
2, 50944, Note_on_c, 0, 69, 87
2, 50944, Note_on_c, 0, 65, 87
2, 51068, Note_off_c, 0, 69, 64
2, 51068, Note_off_c, 0, 65, 64
2, 51072, Note_on_c, 0, 69, 87
2, 51072, Note_on_c, 0, 65, 87
2, 51072, Note_on_c, 0, 84, 95
2, 51196, Note_off_c, 0, 69, 64
2, 51196, Note_off_c, 0, 65, 64
2, 51200, Note_on_c, 0, 69, 87
2, 51200, Note_on_c, 0, 65, 87
2, 51324, Note_off_c, 0, 69, 64
2, 51324, Note_off_c, 0, 65, 64
2, 51328, Note_on_c, 0, 69, 87
2, 51328, Note_on_c, 0, 65, 87
2, 51452, Note_off_c, 0, 60, 64
2, 51452, Note_off_c, 0, 69, 64
2, 51452, Note_off_c, 0, 65, 64
2, 51456, Note_on_c, 0, 60, 91
2, 51584, Note_on_c, 0, 69, 87
2, 51584, Note_on_c, 0, 65, 87
2, 51708, Note_off_c, 0, 69, 64
2, 51708, Note_off_c, 0, 65, 64
2, 51712, Note_on_c, 0, 69, 87
2, 51712, Note_on_c, 0, 65, 87
2, 51836, Note_off_c, 0, 84, 64
2, 51836, Note_off_c, 0, 69, 64
2, 51836, Note_off_c, 0, 65, 64
2, 51840, Note_on_c, 0, 82, 94
2, 51840, Note_on_c, 0, 65, 87
2, 51840, Note_on_c, 0, 69, 87
2, 51932, Note_off_c, 0, 82, 64
2, 51936, Note_on_c, 0, 81, 93
2, 51964, Note_off_c, 0, 65, 64
2, 51964, Note_off_c, 0, 69, 64
2, 51968, Note_on_c, 0, 69, 87
2, 51968, Note_on_c, 0, 65, 87
2, 52028, Note_off_c, 0, 81, 64
2, 52032, Note_on_c, 0, 79, 92
2, 52092, Note_off_c, 0, 69, 64
2, 52092, Note_off_c, 0, 65, 64
2, 52096, Note_on_c, 0, 69, 87
2, 52096, Note_on_c, 0, 65, 87
2, 52124, Note_off_c, 0, 79, 64
2, 52128, Note_on_c, 0, 77, 91
2, 52220, Note_off_c, 0, 60, 64
2, 52220, Note_off_c, 0, 69, 64
2, 52220, Note_off_c, 0, 65, 64
2, 52220, Note_off_c, 0, 77, 64
2, 52224, Note_on_c, 0, 60, 91
2, 52224, Note_on_c, 0, 76, 87
2, 52256, Note_off_c, 0, 76, 64
2, 52256, Note_on_c, 0, 77, 87
2, 52288, Note_off_c, 0, 77, 64
2, 52288, Note_on_c, 0, 76, 87
2, 52320, Note_off_c, 0, 76, 64
2, 52320, Note_on_c, 0, 77, 87
2, 52352, Note_off_c, 0, 77, 64
2, 52352, Note_on_c, 0, 67, 87
2, 52352, Note_on_c, 0, 70, 87
2, 52352, Note_on_c, 0, 76, 87
2, 52384, Note_off_c, 0, 76, 64
2, 52384, Note_on_c, 0, 77, 87
2, 52416, Note_off_c, 0, 77, 64
2, 52416, Note_on_c, 0, 76, 87
2, 52448, Note_off_c, 0, 76, 64
2, 52448, Note_on_c, 0, 77, 87
2, 52476, Note_off_c, 0, 67, 64
2, 52476, Note_off_c, 0, 70, 64
2, 52480, Note_off_c, 0, 77, 64
2, 52480, Note_on_c, 0, 76, 87
2, 52480, Note_on_c, 0, 67, 87
2, 52480, Note_on_c, 0, 70, 87
2, 52512, Note_off_c, 0, 76, 64
2, 52512, Note_on_c, 0, 77, 87
2, 52544, Note_off_c, 0, 77, 64
2, 52544, Note_on_c, 0, 76, 87
2, 52576, Note_off_c, 0, 76, 64
2, 52576, Note_on_c, 0, 77, 87
2, 52604, Note_off_c, 0, 67, 64
2, 52604, Note_off_c, 0, 70, 64
2, 52608, Note_off_c, 0, 77, 64
2, 52608, Note_on_c, 0, 67, 87
2, 52608, Note_on_c, 0, 70, 87
2, 52608, Note_on_c, 0, 76, 87
2, 52640, Note_off_c, 0, 76, 64
2, 52640, Note_on_c, 0, 77, 87
2, 52672, Note_off_c, 0, 77, 64
2, 52672, Note_on_c, 0, 76, 87
2, 52704, Note_off_c, 0, 76, 64
2, 52704, Note_on_c, 0, 77, 87
2, 52732, Note_off_c, 0, 67, 64
2, 52732, Note_off_c, 0, 70, 64
2, 52736, Note_off_c, 0, 77, 64
2, 52736, Note_on_c, 0, 76, 87
2, 52736, Note_on_c, 0, 70, 87
2, 52736, Note_on_c, 0, 67, 87
2, 52768, Note_off_c, 0, 76, 64
2, 52768, Note_on_c, 0, 77, 87
2, 52800, Note_off_c, 0, 77, 64
2, 52800, Note_on_c, 0, 76, 87
2, 52832, Note_off_c, 0, 76, 64
2, 52832, Note_on_c, 0, 77, 87
2, 52860, Note_off_c, 0, 70, 64
2, 52860, Note_off_c, 0, 67, 64
2, 52864, Note_off_c, 0, 77, 64
2, 52864, Note_on_c, 0, 76, 87
2, 52864, Note_on_c, 0, 67, 87
2, 52864, Note_on_c, 0, 70, 87
2, 52896, Note_off_c, 0, 76, 64
2, 52896, Note_on_c, 0, 77, 87
2, 52928, Note_off_c, 0, 77, 64
2, 52928, Note_on_c, 0, 76, 87
2, 52960, Note_off_c, 0, 76, 64
2, 52960, Note_on_c, 0, 77, 87
2, 52988, Note_off_c, 0, 60, 64
2, 52988, Note_off_c, 0, 67, 64
2, 52988, Note_off_c, 0, 70, 64
2, 52992, Note_off_c, 0, 77, 64
2, 52992, Note_on_c, 0, 76, 87
2, 52992, Note_on_c, 0, 60, 87
2, 53024, Note_off_c, 0, 76, 64
2, 53024, Note_on_c, 0, 77, 87
2, 53056, Note_off_c, 0, 77, 64
2, 53056, Note_on_c, 0, 76, 87
2, 53088, Note_off_c, 0, 76, 64
2, 53088, Note_on_c, 0, 77, 87
2, 53120, Note_off_c, 0, 77, 64
2, 53120, Note_on_c, 0, 76, 87
2, 53120, Note_on_c, 0, 67, 87
2, 53120, Note_on_c, 0, 70, 87
2, 53152, Note_off_c, 0, 76, 64
2, 53152, Note_on_c, 0, 77, 87
2, 53184, Note_off_c, 0, 77, 64
2, 53184, Note_on_c, 0, 76, 87
2, 53216, Note_off_c, 0, 76, 64
2, 53216, Note_on_c, 0, 77, 87
2, 53244, Note_off_c, 0, 67, 64
2, 53244, Note_off_c, 0, 70, 64
2, 53248, Note_off_c, 0, 77, 64
2, 53248, Note_on_c, 0, 76, 87
2, 53248, Note_on_c, 0, 67, 87
2, 53248, Note_on_c, 0, 70, 87
2, 53280, Note_off_c, 0, 76, 64
2, 53280, Note_on_c, 0, 77, 87
2, 53312, Note_off_c, 0, 77, 64
2, 53312, Note_on_c, 0, 76, 87
2, 53344, Note_off_c, 0, 76, 64
2, 53344, Note_on_c, 0, 77, 87
2, 53372, Note_off_c, 0, 67, 64
2, 53372, Note_off_c, 0, 70, 64
2, 53376, Note_off_c, 0, 77, 64
2, 53376, Note_on_c, 0, 67, 87
2, 53376, Note_on_c, 0, 70, 87
2, 53376, Note_on_c, 0, 76, 87
2, 53408, Note_off_c, 0, 76, 64
2, 53408, Note_on_c, 0, 77, 87
2, 53440, Note_off_c, 0, 77, 64
2, 53440, Note_on_c, 0, 76, 87
2, 53472, Note_off_c, 0, 76, 64
2, 53472, Note_on_c, 0, 77, 87
2, 53500, Note_off_c, 0, 67, 64
2, 53500, Note_off_c, 0, 70, 64
2, 53504, Note_off_c, 0, 77, 64
2, 53504, Note_on_c, 0, 76, 87
2, 53504, Note_on_c, 0, 70, 87
2, 53504, Note_on_c, 0, 67, 87
2, 53536, Note_off_c, 0, 76, 64
2, 53536, Note_on_c, 0, 77, 87
2, 53568, Note_off_c, 0, 77, 64
2, 53568, Note_on_c, 0, 74, 91
2, 53628, Note_off_c, 0, 70, 64
2, 53628, Note_off_c, 0, 67, 64
2, 53632, Note_on_c, 0, 70, 87
2, 53632, Note_on_c, 0, 67, 87
2, 53660, Note_off_c, 0, 74, 64
2, 53664, Note_on_c, 0, 76, 91
2, 53756, Note_off_c, 0, 60, 64
2, 53756, Note_off_c, 0, 70, 64
2, 53756, Note_off_c, 0, 67, 64
2, 53756, Note_off_c, 0, 76, 64
2, 53760, Note_on_c, 0, 77, 70
2, 53760, Note_on_c, 0, 69, 70
2, 53760, Note_on_c, 0, 65, 70
2, 54140, Note_off_c, 0, 77, 64
2, 54140, Note_off_c, 0, 69, 64
2, 54140, Note_off_c, 0, 65, 64
2, 56832, Note_on_c, 0, 69, 76
2, 56924, Note_off_c, 0, 69, 64
2, 56928, Note_on_c, 0, 81, 70
2, 57052, Note_off_c, 0, 81, 64
2, 57216, Note_on_c, 0, 81, 70
2, 57724, Note_off_c, 0, 81, 64
2, 57728, Note_on_c, 0, 77, 70
2, 57852, Note_off_c, 0, 77, 64
2, 57856, Note_on_c, 0, 74, 70
2, 57980, Note_off_c, 0, 74, 64
2, 57984, Note_on_c, 0, 79, 69
2, 58108, Note_off_c, 0, 79, 64
2, 58112, Note_on_c, 0, 76, 69
2, 58236, Note_off_c, 0, 76, 64
2, 58240, Note_on_c, 0, 73, 69
2, 58364, Note_off_c, 0, 73, 64
2, 58368, Note_on_c, 0, 74, 69
2, 58408, Note_off_c, 0, 74, 64
2, 58416, Note_on_c, 0, 74, 69
2, 58456, Note_off_c, 0, 74, 64
2, 58464, Note_on_c, 0, 76, 69
2, 58504, Note_off_c, 0, 76, 64
2, 58512, Note_on_c, 0, 74, 69
2, 58552, Note_off_c, 0, 74, 64
2, 58560, Note_on_c, 0, 73, 69
2, 58600, Note_off_c, 0, 73, 64
2, 58608, Note_on_c, 0, 74, 69
2, 58648, Note_off_c, 0, 74, 64
2, 58656, Note_on_c, 0, 76, 69
2, 58748, Note_off_c, 0, 76, 64
2, 58752, Note_on_c, 0, 77, 69
2, 59132, Note_off_c, 0, 77, 64
2, 59328, Note_on_c, 0, 77, 68
2, 59516, Note_off_c, 0, 77, 64
2, 59520, Note_on_c, 0, 79, 70
2, 59708, Note_off_c, 0, 79, 64
2, 59712, Note_on_c, 0, 81, 71
2, 59900, Note_off_c, 0, 81, 64
2, 59904, Note_on_c, 0, 76, 77
2, 59944, Note_off_c, 0, 76, 64
2, 59952, Note_on_c, 0, 79, 79
2, 59992, Note_off_c, 0, 79, 64
2, 60000, Note_on_c, 0, 82, 72
2, 60096, Note_off_c, 0, 82, 64
2, 60288, Note_on_c, 0, 82, 72
2, 60764, Note_off_c, 0, 82, 64
2, 60768, Note_on_c, 0, 79, 70
2, 60860, Note_off_c, 0, 79, 64
2, 60864, Note_on_c, 0, 79, 71
2, 60956, Note_off_c, 0, 79, 64
2, 60960, Note_on_c, 0, 76, 69
2, 61052, Note_off_c, 0, 76, 64
2, 61056, Note_on_c, 0, 76, 69
2, 61148, Note_off_c, 0, 76, 64
2, 61152, Note_on_c, 0, 72, 69
2, 61244, Note_off_c, 0, 72, 64
2, 61248, Note_on_c, 0, 79, 69
2, 61340, Note_off_c, 0, 79, 64
2, 61344, Note_on_c, 0, 70, 69
2, 61436, Note_off_c, 0, 70, 64
2, 61440, Note_on_c, 0, 72, 69
2, 61628, Note_off_c, 0, 72, 64
2, 61632, Note_on_c, 0, 70, 69
2, 61664, Note_off_c, 0, 70, 64
2, 61664, Note_on_c, 0, 72, 69
2, 61696, Note_off_c, 0, 72, 64
2, 61696, Note_on_c, 0, 70, 69
2, 61728, Note_off_c, 0, 70, 64
2, 61728, Note_on_c, 0, 72, 69
2, 61760, Note_off_c, 0, 72, 64
2, 61760, Note_on_c, 0, 70, 69
2, 61792, Note_off_c, 0, 70, 64
2, 61792, Note_on_c, 0, 72, 69
2, 61824, Note_off_c, 0, 72, 64
2, 61824, Note_on_c, 0, 69, 69
2, 62352, Note_on_c, 0, 72, 69
2, 62392, Note_off_c, 0, 72, 64
2, 62396, Note_off_c, 0, 69, 64
2, 62400, Note_on_c, 0, 74, 69
2, 62440, Note_off_c, 0, 74, 64
2, 62448, Note_on_c, 0, 72, 69
2, 62488, Note_off_c, 0, 72, 64
2, 62496, Note_on_c, 0, 71, 69
2, 62536, Note_off_c, 0, 71, 64
2, 62544, Note_on_c, 0, 72, 69
2, 62584, Note_off_c, 0, 72, 64
2, 62592, Note_on_c, 0, 77, 69
2, 62780, Note_off_c, 0, 77, 64
2, 62784, Note_on_c, 0, 81, 71
2, 62972, Note_off_c, 0, 81, 64
2, 62976, Note_on_c, 0, 84, 73
2, 63164, Note_off_c, 0, 84, 64
2, 63168, Note_on_c, 0, 79, 70
2, 63356, Note_off_c, 0, 79, 64
2, 63360, Note_on_c, 0, 79, 70
2, 63936, Note_on_c, 0, 81, 71
2, 64028, Note_off_c, 0, 81, 64
2, 64032, Note_on_c, 0, 79, 70
2, 64124, Note_off_c, 0, 79, 64
2, 64124, Note_off_c, 0, 79, 64
2, 64128, Note_on_c, 0, 77, 70
2, 64316, Note_off_c, 0, 77, 64
2, 64320, Note_on_c, 0, 76, 69
2, 64508, Note_off_c, 0, 76, 64
2, 64512, Note_on_c, 0, 73, 69
2, 64892, Note_off_c, 0, 73, 64
2, 64896, Note_on_c, 0, 74, 69
2, 65276, Note_off_c, 0, 74, 64
2, 65472, Note_on_c, 0, 74, 69
2, 65660, Note_off_c, 0, 74, 64
2, 65664, Note_on_c, 0, 74, 69
2, 65852, Note_off_c, 0, 74, 64
2, 65856, Note_on_c, 0, 74, 69
2, 66044, Note_off_c, 0, 74, 64
2, 66048, Note_on_c, 0, 74, 69
2, 66088, Note_off_c, 0, 74, 64
2, 66096, Note_on_c, 0, 74, 69
2, 66136, Note_off_c, 0, 74, 64
2, 66144, Note_on_c, 0, 76, 69
2, 66184, Note_off_c, 0, 76, 64
2, 66192, Note_on_c, 0, 74, 69
2, 66232, Note_off_c, 0, 74, 64
2, 66240, Note_on_c, 0, 73, 69
2, 66280, Note_off_c, 0, 73, 64
2, 66288, Note_on_c, 0, 74, 69
2, 66328, Note_off_c, 0, 74, 64
2, 66336, Note_on_c, 0, 76, 69
2, 66428, Note_off_c, 0, 76, 64
2, 66432, Note_on_c, 0, 78, 69
2, 66472, Note_off_c, 0, 78, 64
2, 66480, Note_on_c, 0, 78, 69
2, 66520, Note_off_c, 0, 78, 64
2, 66528, Note_on_c, 0, 79, 70
2, 66568, Note_off_c, 0, 79, 64
2, 66576, Note_on_c, 0, 78, 69
2, 66616, Note_off_c, 0, 78, 64
2, 66624, Note_on_c, 0, 76, 69
2, 66664, Note_off_c, 0, 76, 64
2, 66672, Note_on_c, 0, 78, 69
2, 66712, Note_off_c, 0, 78, 64
2, 66720, Note_on_c, 0, 79, 70
2, 66812, Note_off_c, 0, 79, 64
2, 66816, Note_on_c, 0, 81, 71
2, 66856, Note_off_c, 0, 81, 64
2, 66864, Note_on_c, 0, 81, 72
2, 66904, Note_off_c, 0, 81, 64
2, 66912, Note_on_c, 0, 82, 71
2, 66952, Note_off_c, 0, 82, 64
2, 66960, Note_on_c, 0, 81, 70
2, 67000, Note_off_c, 0, 81, 64
2, 67008, Note_on_c, 0, 80, 70
2, 67040, Note_on_c, 0, 81, 71
2, 67048, Note_off_c, 0, 80, 64
2, 67080, Note_off_c, 0, 81, 64
2, 67104, Note_on_c, 0, 83, 72
2, 67196, Note_off_c, 0, 83, 64
2, 67200, Note_on_c, 0, 84, 73
2, 67292, Note_off_c, 0, 84, 64
2, 67488, Note_on_c, 0, 72, 69
2, 67580, Note_off_c, 0, 72, 64
2, 67584, Note_on_c, 0, 72, 69
2, 67648, Note_off_c, 0, 72, 64
2, 67648, Note_on_c, 0, 71, 69
2, 67776, Note_off_c, 0, 71, 64
2, 67776, Note_on_c, 0, 69, 69
2, 67868, Note_off_c, 0, 69, 64
2, 67872, Note_on_c, 0, 67, 69
2, 67964, Note_off_c, 0, 67, 64
2, 67968, Note_on_c, 0, 67, 69
2, 68348, Note_off_c, 0, 67, 64
2, 68736, Note_on_c, 0, 79, 84
2, 69116, Note_off_c, 0, 79, 64
2, 69120, Note_on_c, 0, 80, 84
2, 70012, Note_off_c, 0, 80, 64
2, 70016, Note_on_c, 0, 74, 84
2, 70140, Note_off_c, 0, 74, 64
2, 70144, Note_on_c, 0, 73, 84
2, 70268, Note_off_c, 0, 73, 64
2, 70272, Note_on_c, 0, 74, 84
2, 70396, Note_off_c, 0, 74, 64
2, 70400, Note_on_c, 0, 75, 84
2, 70524, Note_off_c, 0, 75, 64
2, 70528, Note_on_c, 0, 77, 84
2, 70652, Note_off_c, 0, 77, 64
2, 70656, Note_on_c, 0, 79, 84
2, 71548, Note_off_c, 0, 79, 64
2, 71552, Note_on_c, 0, 72, 84
2, 71676, Note_off_c, 0, 72, 64
2, 71680, Note_on_c, 0, 71, 84
2, 71804, Note_off_c, 0, 71, 64
2, 71808, Note_on_c, 0, 72, 84
2, 71932, Note_off_c, 0, 72, 64
2, 71936, Note_on_c, 0, 74, 84
2, 72060, Note_off_c, 0, 74, 64
2, 72064, Note_on_c, 0, 75, 84
2, 72188, Note_off_c, 0, 75, 64
2, 72192, Note_on_c, 0, 77, 84
2, 73084, Note_off_c, 0, 77, 64
2, 73088, Note_on_c, 0, 71, 84
2, 73212, Note_off_c, 0, 71, 64
2, 73216, Note_on_c, 0, 69, 84
2, 73340, Note_off_c, 0, 69, 64
2, 73344, Note_on_c, 0, 71, 84
2, 73468, Note_off_c, 0, 71, 64
2, 73472, Note_on_c, 0, 72, 84
2, 73596, Note_off_c, 0, 72, 64
2, 73600, Note_on_c, 0, 74, 84
2, 73724, Note_off_c, 0, 74, 64
2, 73728, Note_on_c, 0, 75, 83
2, 74620, Note_off_c, 0, 75, 64
2, 74624, Note_on_c, 0, 69, 75
2, 74748, Note_off_c, 0, 69, 64
2, 74752, Note_on_c, 0, 68, 73
2, 74876, Note_off_c, 0, 68, 64
2, 74880, Note_on_c, 0, 69, 72
2, 75004, Note_off_c, 0, 69, 64
2, 75008, Note_on_c, 0, 71, 71
2, 75132, Note_off_c, 0, 71, 64
2, 75136, Note_on_c, 0, 72, 70
2, 75260, Note_off_c, 0, 72, 64
2, 75264, Note_on_c, 0, 74, 69
2, 76156, Note_off_c, 0, 74, 64
2, 76160, Note_on_c, 0, 67, 69
2, 76284, Note_off_c, 0, 67, 64
2, 76288, Note_on_c, 0, 66, 69
2, 76412, Note_off_c, 0, 66, 64
2, 76416, Note_on_c, 0, 67, 69
2, 76540, Note_off_c, 0, 67, 64
2, 76544, Note_on_c, 0, 69, 69
2, 76668, Note_off_c, 0, 69, 64
2, 76672, Note_on_c, 0, 71, 69
2, 76796, Note_off_c, 0, 71, 64
2, 76800, Note_on_c, 0, 72, 79
2, 76892, Note_off_c, 0, 72, 64
2, 76896, Note_on_c, 0, 84, 73
2, 77568, Note_off_c, 0, 84, 64
2, 77568, Note_on_c, 0, 83, 72
2, 77756, Note_off_c, 0, 83, 64
2, 77760, Note_on_c, 0, 81, 71
2, 77948, Note_off_c, 0, 81, 64
2, 77952, Note_on_c, 0, 79, 70
2, 78140, Note_off_c, 0, 79, 64
2, 78144, Note_on_c, 0, 77, 69
2, 78332, Note_off_c, 0, 77, 64
2, 78336, Note_on_c, 0, 76, 79
2, 78428, Note_off_c, 0, 76, 64
2, 78432, Note_on_c, 0, 74, 70
2, 79488, Note_off_c, 0, 74, 64
2, 79488, Note_on_c, 0, 79, 70
2, 79868, Note_off_c, 0, 79, 64
2, 79872, Note_on_c, 0, 77, 69
2, 80252, Note_off_c, 0, 77, 64
2, 80256, Note_on_c, 0, 76, 69
2, 80636, Note_off_c, 0, 76, 64
2, 81408, Note_on_c, 0, 72, 79
2, 81500, Note_off_c, 0, 72, 64
2, 81520, Note_on_c, 0, 84, 77
2, 82176, Note_on_c, 0, 83, 72
2, 82284, Note_off_c, 0, 84, 64
2, 82364, Note_off_c, 0, 83, 64
2, 82368, Note_on_c, 0, 81, 71
2, 82556, Note_off_c, 0, 81, 64
2, 82560, Note_on_c, 0, 79, 70
2, 82748, Note_off_c, 0, 79, 64
2, 82752, Note_on_c, 0, 77, 69
2, 82940, Note_off_c, 0, 77, 64
2, 82944, Note_on_c, 0, 76, 79
2, 83036, Note_off_c, 0, 76, 64
2, 83040, Note_on_c, 0, 74, 69
2, 84096, Note_on_c, 0, 79, 70
2, 84188, Note_off_c, 0, 74, 64
2, 84476, Note_off_c, 0, 79, 64
2, 84480, Note_on_c, 0, 72, 69
2, 84860, Note_off_c, 0, 72, 64
2, 89088, Note_on_c, 0, 67, 95
2, 90620, Note_off_c, 0, 67, 64
2, 90624, Note_on_c, 0, 82, 95
2, 92156, Note_off_c, 0, 82, 64
2, 92160, Note_on_c, 0, 81, 94
2, 92924, Note_off_c, 0, 81, 64
2, 92928, Note_on_c, 0, 79, 90
2, 92960, Note_off_c, 0, 79, 64
2, 92960, Note_on_c, 0, 81, 90
2, 92992, Note_off_c, 0, 81, 64
2, 92992, Note_on_c, 0, 79, 90
2, 93024, Note_off_c, 0, 79, 64
2, 93024, Note_on_c, 0, 81, 90
2, 93056, Note_off_c, 0, 81, 64
2, 93056, Note_on_c, 0, 79, 90
2, 93088, Note_off_c, 0, 79, 64
2, 93088, Note_on_c, 0, 81, 90
2, 93120, Note_off_c, 0, 81, 64
2, 93120, Note_on_c, 0, 79, 90
2, 93152, Note_off_c, 0, 79, 64
2, 93152, Note_on_c, 0, 81, 89
2, 93184, Note_off_c, 0, 81, 64
2, 93184, Note_on_c, 0, 79, 89
2, 93216, Note_off_c, 0, 79, 64
2, 93216, Note_on_c, 0, 81, 89
2, 93248, Note_off_c, 0, 81, 64
2, 93248, Note_on_c, 0, 79, 89
2, 93280, Note_off_c, 0, 79, 64
2, 93280, Note_on_c, 0, 81, 89
2, 93312, Note_off_c, 0, 81, 64
2, 93312, Note_on_c, 0, 79, 88
2, 93344, Note_off_c, 0, 79, 64
2, 93344, Note_on_c, 0, 81, 88
2, 93376, Note_off_c, 0, 81, 64
2, 93376, Note_on_c, 0, 79, 88
2, 93408, Note_off_c, 0, 79, 64
2, 93408, Note_on_c, 0, 81, 88
2, 93440, Note_off_c, 0, 81, 64
2, 93440, Note_on_c, 0, 79, 88
2, 93472, Note_off_c, 0, 79, 64
2, 93472, Note_on_c, 0, 81, 88
2, 93504, Note_off_c, 0, 81, 64
2, 93504, Note_on_c, 0, 77, 87
2, 93596, Note_off_c, 0, 77, 64
2, 93600, Note_on_c, 0, 79, 87
2, 93692, Note_off_c, 0, 79, 64
2, 93696, Note_on_c, 0, 77, 86
2, 94076, Note_off_c, 0, 77, 64
2, 95232, Note_on_c, 0, 82, 85
2, 95996, Note_off_c, 0, 82, 64
2, 96000, Note_on_c, 0, 77, 85
2, 96336, Note_off_c, 0, 77, 64
2, 96336, Note_on_c, 0, 77, 85
2, 96376, Note_off_c, 0, 77, 64
2, 96384, Note_on_c, 0, 79, 85
2, 96424, Note_off_c, 0, 79, 64
2, 96432, Note_on_c, 0, 77, 85
2, 96472, Note_off_c, 0, 77, 64
2, 96480, Note_on_c, 0, 75, 85
2, 96520, Note_off_c, 0, 75, 64
2, 96528, Note_on_c, 0, 77, 85
2, 96568, Note_off_c, 0, 77, 64
2, 96576, Note_on_c, 0, 79, 85
2, 96764, Note_off_c, 0, 79, 64
2, 96768, Note_on_c, 0, 70, 85
2, 97148, Note_off_c, 0, 70, 64
2, 97152, Note_on_c, 0, 69, 85
2, 97532, Note_off_c, 0, 69, 64
2, 97536, Note_on_c, 0, 75, 85
2, 97628, Note_off_c, 0, 75, 64
2, 97632, Note_on_c, 0, 84, 85
2, 98204, Note_off_c, 0, 84, 64
2, 98208, Note_on_c, 0, 81, 85
2, 98300, Note_off_c, 0, 81, 64
2, 98304, Note_on_c, 0, 87, 85
2, 98492, Note_off_c, 0, 87, 64
2, 98496, Note_on_c, 0, 84, 85
2, 98876, Note_off_c, 0, 84, 64
2, 98880, Note_on_c, 0, 81, 85
2, 99260, Note_off_c, 0, 81, 64
2, 99264, Note_on_c, 0, 77, 85
2, 99644, Note_off_c, 0, 77, 64
2, 99648, Note_on_c, 0, 75, 85
2, 99836, Note_off_c, 0, 75, 64
2, 99840, Note_on_c, 0, 77, 85
2, 100028, Note_off_c, 0, 77, 64
2, 100032, Note_on_c, 0, 75, 85
2, 100064, Note_off_c, 0, 75, 64
2, 100064, Note_on_c, 0, 77, 85
2, 100096, Note_off_c, 0, 77, 64
2, 100096, Note_on_c, 0, 75, 85
2, 100128, Note_off_c, 0, 75, 64
2, 100128, Note_on_c, 0, 77, 85
2, 100160, Note_off_c, 0, 77, 64
2, 100160, Note_on_c, 0, 75, 85
2, 100192, Note_off_c, 0, 75, 64
2, 100192, Note_on_c, 0, 77, 85
2, 100224, Note_off_c, 0, 77, 64
2, 100224, Note_on_c, 0, 74, 85
2, 100604, Note_off_c, 0, 74, 64
2, 102272, Note_on_c, 0, 75, 85
2, 102396, Note_off_c, 0, 75, 64
2, 102400, Note_on_c, 0, 78, 85
2, 102524, Note_off_c, 0, 78, 64
2, 102528, Note_on_c, 0, 81, 85
2, 102652, Note_off_c, 0, 81, 64
2, 102656, Note_on_c, 0, 84, 85
2, 102780, Note_off_c, 0, 84, 64
2, 102784, Note_on_c, 0, 87, 85
2, 102908, Note_off_c, 0, 87, 64
2, 103808, Note_on_c, 0, 70, 85
2, 103932, Note_off_c, 0, 70, 64
2, 103936, Note_on_c, 0, 74, 85
2, 104060, Note_off_c, 0, 74, 64
2, 104064, Note_on_c, 0, 79, 85
2, 104188, Note_off_c, 0, 79, 64
2, 104192, Note_on_c, 0, 82, 85
2, 104316, Note_off_c, 0, 82, 64
2, 104320, Note_on_c, 0, 86, 85
2, 104444, Note_off_c, 0, 86, 64
2, 105344, Note_on_c, 0, 73, 85
2, 105468, Note_off_c, 0, 73, 64
2, 105472, Note_on_c, 0, 76, 85
2, 105596, Note_off_c, 0, 76, 64
2, 105600, Note_on_c, 0, 79, 85
2, 105724, Note_off_c, 0, 79, 64
2, 105728, Note_on_c, 0, 82, 85
2, 105852, Note_off_c, 0, 82, 64
2, 105856, Note_on_c, 0, 85, 85
2, 105980, Note_off_c, 0, 85, 64
2, 106880, Note_on_c, 0, 68, 85
2, 107004, Note_off_c, 0, 68, 64
2, 107008, Note_on_c, 0, 72, 85
2, 107132, Note_off_c, 0, 72, 64
2, 107136, Note_on_c, 0, 77, 85
2, 107260, Note_off_c, 0, 77, 64
2, 107264, Note_on_c, 0, 80, 85
2, 107388, Note_off_c, 0, 80, 64
2, 107392, Note_on_c, 0, 84, 85
2, 107516, Note_off_c, 0, 84, 64
2, 107520, Note_on_c, 0, 84, 85
2, 107708, Note_off_c, 0, 84, 64
2, 107712, Note_on_c, 0, 83, 85
2, 107900, Note_off_c, 0, 83, 64
2, 107904, Note_on_c, 0, 80, 85
2, 108668, Note_off_c, 0, 80, 64
2, 108672, Note_on_c, 0, 79, 85
2, 108860, Note_off_c, 0, 79, 64
2, 108864, Note_on_c, 0, 77, 85
2, 109052, Note_off_c, 0, 77, 64
2, 109056, Note_on_c, 0, 77, 83
2, 109244, Note_off_c, 0, 77, 64
2, 109248, Note_on_c, 0, 76, 82
2, 109436, Note_off_c, 0, 76, 64
2, 109440, Note_on_c, 0, 74, 80
2, 109628, Note_off_c, 0, 74, 64
2, 109632, Note_on_c, 0, 72, 78
2, 109820, Note_off_c, 0, 72, 64
2, 109824, Note_on_c, 0, 71, 76
2, 110012, Note_off_c, 0, 71, 64
2, 110016, Note_on_c, 0, 72, 74
2, 110204, Note_off_c, 0, 72, 64
2, 110208, Note_on_c, 0, 73, 72
2, 110396, Note_off_c, 0, 73, 64
2, 110400, Note_on_c, 0, 72, 70
2, 110588, Note_off_c, 0, 72, 64
2, 110592, Note_on_c, 0, 72, 69
2, 110736, Note_on_c, 0, 72, 69
2, 110776, Note_off_c, 0, 72, 64
2, 110780, Note_off_c, 0, 72, 64
2, 110784, Note_on_c, 0, 73, 69
2, 110824, Note_off_c, 0, 73, 64
2, 110832, Note_on_c, 0, 72, 69
2, 110872, Note_off_c, 0, 72, 64
2, 110880, Note_on_c, 0, 70, 69
2, 110920, Note_off_c, 0, 70, 64
2, 110928, Note_on_c, 0, 72, 69
2, 110968, Note_off_c, 0, 72, 64
2, 110976, Note_on_c, 0, 75, 69
2, 111260, Note_off_c, 0, 75, 64
2, 111264, Note_on_c, 0, 73, 69
2, 111356, Note_off_c, 0, 73, 64
2, 111360, Note_on_c, 0, 73, 69
2, 111504, Note_on_c, 0, 73, 69
2, 111544, Note_off_c, 0, 73, 64
2, 111548, Note_off_c, 0, 73, 64
2, 111552, Note_on_c, 0, 75, 69
2, 111592, Note_off_c, 0, 75, 64
2, 111600, Note_on_c, 0, 73, 69
2, 111640, Note_off_c, 0, 73, 64
2, 111648, Note_on_c, 0, 72, 69
2, 111688, Note_off_c, 0, 72, 64
2, 111696, Note_on_c, 0, 73, 69
2, 111736, Note_off_c, 0, 73, 64
2, 111744, Note_on_c, 0, 77, 69
2, 112028, Note_off_c, 0, 77, 64
2, 112032, Note_on_c, 0, 75, 69
2, 112124, Note_off_c, 0, 75, 64
2, 112128, Note_on_c, 0, 75, 69
2, 112800, Note_on_c, 0, 72, 69
2, 112892, Note_off_c, 0, 75, 64
2, 112892, Note_off_c, 0, 72, 64
2, 112896, Note_on_c, 0, 80, 70
2, 113180, Note_off_c, 0, 80, 64
2, 113184, Note_on_c, 0, 75, 69
2, 113276, Note_off_c, 0, 75, 64
2, 113280, Note_on_c, 0, 84, 73
2, 113564, Note_off_c, 0, 84, 64
2, 113568, Note_on_c, 0, 80, 69
2, 113660, Note_off_c, 0, 80, 64
2, 113664, Note_on_c, 0, 87, 73
2, 114812, Note_off_c, 0, 87, 64
2, 114816, Note_on_c, 0, 85, 73
2, 114908, Note_off_c, 0, 85, 64
2, 114912, Note_on_c, 0, 84, 73
2, 115004, Note_off_c, 0, 84, 64
2, 115008, Note_on_c, 0, 82, 72
2, 115100, Note_off_c, 0, 82, 64
2, 115104, Note_on_c, 0, 80, 70
2, 115196, Note_off_c, 0, 80, 64
2, 115200, Note_on_c, 0, 81, 71
2, 115388, Note_off_c, 0, 81, 64
2, 115392, Note_on_c, 0, 82, 72
2, 115580, Note_off_c, 0, 82, 64
2, 115584, Note_on_c, 0, 82, 72
2, 115964, Note_off_c, 0, 82, 64
2, 116352, Note_on_c, 0, 75, 69
2, 116732, Note_off_c, 0, 75, 64
2, 116736, Note_on_c, 0, 75, 69
2, 117264, Note_on_c, 0, 75, 69
2, 117304, Note_off_c, 0, 75, 64
2, 117308, Note_off_c, 0, 75, 64
2, 117312, Note_on_c, 0, 77, 70
2, 117352, Note_off_c, 0, 77, 64
2, 117360, Note_on_c, 0, 75, 69
2, 117400, Note_off_c, 0, 75, 64
2, 117408, Note_on_c, 0, 74, 68
2, 117448, Note_off_c, 0, 74, 64
2, 117456, Note_on_c, 0, 75, 70
2, 117496, Note_off_c, 0, 75, 64
2, 117504, Note_on_c, 0, 79, 70
2, 117884, Note_off_c, 0, 79, 64
2, 117888, Note_on_c, 0, 82, 72
2, 118268, Note_off_c, 0, 82, 64
2, 118272, Note_on_c, 0, 85, 73
2, 118844, Note_off_c, 0, 85, 64
2, 118848, Note_on_c, 0, 84, 73
2, 118940, Note_off_c, 0, 84, 64
2, 118944, Note_on_c, 0, 82, 72
2, 119036, Note_off_c, 0, 82, 64
2, 119040, Note_on_c, 0, 80, 70
2, 119132, Note_off_c, 0, 80, 64
2, 119136, Note_on_c, 0, 79, 70
2, 119228, Note_off_c, 0, 79, 64
2, 119232, Note_on_c, 0, 77, 69
2, 119324, Note_off_c, 0, 77, 64
2, 119328, Note_on_c, 0, 75, 69
2, 119420, Note_off_c, 0, 75, 64
2, 119424, Note_on_c, 0, 74, 69
2, 119516, Note_off_c, 0, 74, 64
2, 119520, Note_on_c, 0, 75, 69
2, 119612, Note_off_c, 0, 75, 64
2, 119616, Note_on_c, 0, 77, 69
2, 119708, Note_off_c, 0, 77, 64
2, 119712, Note_on_c, 0, 73, 69
2, 119804, Note_off_c, 0, 73, 64
2, 119808, Note_on_c, 0, 75, 69
2, 119996, Note_off_c, 0, 75, 64
2, 120000, Note_on_c, 0, 73, 69
2, 120032, Note_off_c, 0, 73, 64
2, 120032, Note_on_c, 0, 75, 69
2, 120064, Note_off_c, 0, 75, 64
2, 120064, Note_on_c, 0, 73, 69
2, 120096, Note_off_c, 0, 73, 64
2, 120096, Note_on_c, 0, 75, 69
2, 120128, Note_off_c, 0, 75, 64
2, 120128, Note_on_c, 0, 73, 69
2, 120160, Note_off_c, 0, 73, 64
2, 120160, Note_on_c, 0, 75, 69
2, 120192, Note_off_c, 0, 75, 64
2, 120192, Note_on_c, 0, 72, 69
2, 120572, Note_off_c, 0, 72, 64
2, 120768, Note_on_c, 0, 75, 70
2, 120860, Note_off_c, 0, 75, 64
2, 120864, Note_on_c, 0, 74, 70
2, 120956, Note_off_c, 0, 74, 64
2, 120960, Note_on_c, 0, 77, 71
2, 121052, Note_off_c, 0, 77, 64
2, 121056, Note_on_c, 0, 75, 71
2, 121148, Note_off_c, 0, 75, 64
2, 121152, Note_on_c, 0, 73, 72
2, 121244, Note_off_c, 0, 73, 64
2, 121248, Note_on_c, 0, 72, 72
2, 121340, Note_off_c, 0, 72, 64
2, 121344, Note_on_c, 0, 70, 73
2, 121532, Note_off_c, 0, 70, 64
2, 121536, Note_on_c, 0, 69, 74
2, 121724, Note_off_c, 0, 69, 64
2, 121920, Note_on_c, 0, 84, 80
2, 122108, Note_off_c, 0, 84, 64
2, 122304, Note_on_c, 0, 87, 83
2, 122492, Note_off_c, 0, 87, 64
2, 122688, Note_on_c, 0, 81, 82
2, 122876, Note_off_c, 0, 81, 64
2, 122880, Note_on_c, 0, 84, 85
2, 123260, Note_off_c, 0, 84, 64
2, 123264, Note_on_c, 0, 82, 85
2, 123644, Note_off_c, 0, 82, 64
2, 123744, Note_on_c, 0, 77, 85
2, 123836, Note_off_c, 0, 77, 64
2, 123840, Note_on_c, 0, 76, 85
2, 123932, Note_off_c, 0, 76, 64
2, 123936, Note_on_c, 0, 77, 85
2, 124028, Note_off_c, 0, 77, 64
2, 124032, Note_on_c, 0, 78, 85
2, 124124, Note_off_c, 0, 78, 64
2, 124128, Note_on_c, 0, 77, 85
2, 124220, Note_off_c, 0, 77, 64
2, 124224, Note_on_c, 0, 75, 85
2, 124316, Note_off_c, 0, 75, 64
2, 124320, Note_on_c, 0, 74, 85
2, 124412, Note_off_c, 0, 74, 64
2, 124416, Note_on_c, 0, 72, 85
2, 124604, Note_off_c, 0, 72, 64
2, 124608, Note_on_c, 0, 71, 85
2, 124796, Note_off_c, 0, 71, 64
2, 124992, Note_on_c, 0, 86, 90
2, 125180, Note_off_c, 0, 86, 64
2, 125376, Note_on_c, 0, 89, 92
2, 125564, Note_off_c, 0, 89, 64
2, 125760, Note_on_c, 0, 83, 88
2, 125948, Note_off_c, 0, 83, 64
2, 125952, Note_on_c, 0, 86, 90
2, 126332, Note_off_c, 0, 86, 64
2, 126336, Note_on_c, 0, 84, 89
2, 126716, Note_off_c, 0, 84, 64
2, 127104, Note_on_c, 0, 84, 99
2, 127484, Note_off_c, 0, 84, 64
2, 127488, Note_on_c, 0, 85, 99
2, 128380, Note_off_c, 0, 85, 64
2, 128384, Note_on_c, 0, 79, 96
2, 128508, Note_off_c, 0, 79, 64
2, 128512, Note_on_c, 0, 78, 95
2, 128636, Note_off_c, 0, 78, 64
2, 128640, Note_on_c, 0, 79, 96
2, 128764, Note_off_c, 0, 79, 64
2, 128768, Note_on_c, 0, 80, 96
2, 128892, Note_off_c, 0, 80, 64
2, 128896, Note_on_c, 0, 82, 98
2, 129020, Note_off_c, 0, 82, 64
2, 129024, Note_on_c, 0, 84, 99
2, 129916, Note_off_c, 0, 84, 64
2, 129920, Note_on_c, 0, 77, 95
2, 130044, Note_off_c, 0, 77, 64
2, 130048, Note_on_c, 0, 76, 95
2, 130172, Note_off_c, 0, 76, 64
2, 130176, Note_on_c, 0, 77, 95
2, 130300, Note_off_c, 0, 77, 64
2, 130304, Note_on_c, 0, 79, 96
2, 130428, Note_off_c, 0, 79, 64
2, 130432, Note_on_c, 0, 80, 96
2, 130556, Note_off_c, 0, 80, 64
2, 130560, Note_on_c, 0, 82, 98
2, 131452, Note_off_c, 0, 82, 64
2, 131456, Note_on_c, 0, 76, 95
2, 131580, Note_off_c, 0, 76, 64
2, 131584, Note_on_c, 0, 74, 94
2, 131708, Note_off_c, 0, 74, 64
2, 131712, Note_on_c, 0, 76, 92
2, 131836, Note_off_c, 0, 76, 64
2, 131840, Note_on_c, 0, 77, 91
2, 131964, Note_off_c, 0, 77, 64
2, 131968, Note_on_c, 0, 79, 91
2, 132092, Note_off_c, 0, 79, 64
2, 132096, Note_on_c, 0, 80, 90
2, 132860, Note_off_c, 0, 80, 64
2, 132992, Note_on_c, 0, 74, 83
2, 133116, Note_off_c, 0, 74, 64
2, 133120, Note_on_c, 0, 73, 82
2, 133244, Note_off_c, 0, 73, 64
2, 133248, Note_on_c, 0, 74, 81
2, 133372, Note_off_c, 0, 74, 64
2, 133376, Note_on_c, 0, 76, 80
2, 133500, Note_off_c, 0, 76, 64
2, 133504, Note_on_c, 0, 77, 80
2, 133628, Note_off_c, 0, 77, 64
2, 133632, Note_on_c, 0, 79, 79
2, 134396, Note_off_c, 0, 79, 64
2, 134528, Note_on_c, 0, 72, 73
2, 134652, Note_off_c, 0, 72, 64
2, 134656, Note_on_c, 0, 73, 72
2, 134780, Note_off_c, 0, 73, 64
2, 134784, Note_on_c, 0, 74, 71
2, 134908, Note_off_c, 0, 74, 64
2, 134912, Note_on_c, 0, 75, 70
2, 135036, Note_off_c, 0, 75, 64
2, 135040, Note_on_c, 0, 76, 69
2, 135164, Note_off_c, 0, 76, 64
2, 135168, Note_on_c, 0, 77, 69
2, 135932, Note_off_c, 0, 77, 64
2, 135936, Note_on_c, 0, 76, 69
2, 136124, Note_off_c, 0, 76, 64
2, 136128, Note_on_c, 0, 74, 69
2, 136316, Note_off_c, 0, 74, 64
2, 136320, Note_on_c, 0, 72, 69
2, 136508, Note_off_c, 0, 72, 64
2, 136512, Note_on_c, 0, 70, 69
2, 136700, Note_off_c, 0, 70, 64
2, 136704, Note_on_c, 0, 69, 79
2, 136796, Note_off_c, 0, 69, 64
2, 136800, Note_on_c, 0, 67, 69
2, 137856, Note_on_c, 0, 72, 69
2, 137948, Note_off_c, 0, 67, 64
2, 138236, Note_off_c, 0, 72, 64
2, 138240, Note_on_c, 0, 70, 69
2, 138620, Note_off_c, 0, 70, 64
2, 138624, Note_on_c, 0, 69, 69
2, 139004, Note_off_c, 0, 69, 64
2, 139776, Note_on_c, 0, 77, 69
2, 140540, Note_off_c, 0, 77, 64
2, 140544, Note_on_c, 0, 76, 69
2, 140732, Note_off_c, 0, 76, 64
2, 140736, Note_on_c, 0, 74, 69
2, 140924, Note_off_c, 0, 74, 64
2, 140928, Note_on_c, 0, 72, 69
2, 141116, Note_off_c, 0, 72, 64
2, 141120, Note_on_c, 0, 70, 69
2, 141308, Note_off_c, 0, 70, 64
2, 141312, Note_on_c, 0, 69, 79
2, 141404, Note_off_c, 0, 69, 64
2, 141408, Note_on_c, 0, 67, 69
2, 142464, Note_on_c, 0, 72, 69
2, 142556, Note_off_c, 0, 67, 64
2, 142844, Note_off_c, 0, 72, 64
2, 142848, Note_on_c, 0, 65, 69
2, 143228, Note_off_c, 0, 65, 64
2, 144384, Note_on_c, 0, 57, 86
2, 144384, Note_on_c, 0, 84, 90
2, 144512, Note_on_c, 0, 60, 85
2, 144512, Note_on_c, 0, 63, 85
2, 144512, Note_on_c, 0, 65, 85
2, 144636, Note_off_c, 0, 60, 64
2, 144636, Note_off_c, 0, 63, 64
2, 144636, Note_off_c, 0, 65, 64
2, 144640, Note_on_c, 0, 60, 85
2, 144640, Note_on_c, 0, 63, 85
2, 144640, Note_on_c, 0, 65, 85
2, 144764, Note_off_c, 0, 60, 64
2, 144764, Note_off_c, 0, 63, 64
2, 144764, Note_off_c, 0, 65, 64
2, 144768, Note_on_c, 0, 60, 85
2, 144768, Note_on_c, 0, 63, 85
2, 144768, Note_on_c, 0, 65, 85
2, 144892, Note_off_c, 0, 60, 64
2, 144892, Note_off_c, 0, 63, 64
2, 144892, Note_off_c, 0, 65, 64
2, 144896, Note_on_c, 0, 60, 85
2, 144896, Note_on_c, 0, 63, 85
2, 144896, Note_on_c, 0, 65, 85
2, 145020, Note_off_c, 0, 60, 64
2, 145020, Note_off_c, 0, 63, 64
2, 145020, Note_off_c, 0, 65, 64
2, 145024, Note_on_c, 0, 60, 85
2, 145024, Note_on_c, 0, 63, 85
2, 145024, Note_on_c, 0, 65, 85
2, 145148, Note_off_c, 0, 57, 64
2, 145148, Note_off_c, 0, 84, 64
2, 145148, Note_off_c, 0, 60, 64
2, 145148, Note_off_c, 0, 63, 64
2, 145148, Note_off_c, 0, 65, 64
2, 145152, Note_on_c, 0, 57, 86
2, 145280, Note_on_c, 0, 60, 85
2, 145280, Note_on_c, 0, 63, 85
2, 145280, Note_on_c, 0, 65, 85
2, 145404, Note_off_c, 0, 60, 64
2, 145404, Note_off_c, 0, 63, 64
2, 145404, Note_off_c, 0, 65, 64
2, 145408, Note_on_c, 0, 60, 85
2, 145408, Note_on_c, 0, 63, 85
2, 145408, Note_on_c, 0, 65, 85
2, 145532, Note_off_c, 0, 60, 64
2, 145532, Note_off_c, 0, 63, 64
2, 145532, Note_off_c, 0, 65, 64
2, 145536, Note_on_c, 0, 60, 85
2, 145536, Note_on_c, 0, 63, 85
2, 145536, Note_on_c, 0, 65, 85
2, 145660, Note_off_c, 0, 60, 64
2, 145660, Note_off_c, 0, 63, 64
2, 145660, Note_off_c, 0, 65, 64
2, 145664, Note_on_c, 0, 60, 85
2, 145664, Note_on_c, 0, 63, 85
2, 145664, Note_on_c, 0, 65, 85
2, 145788, Note_off_c, 0, 60, 64
2, 145788, Note_off_c, 0, 63, 64
2, 145788, Note_off_c, 0, 65, 64
2, 145792, Note_on_c, 0, 60, 85
2, 145792, Note_on_c, 0, 63, 85
2, 145792, Note_on_c, 0, 65, 85
2, 145916, Note_off_c, 0, 57, 64
2, 145916, Note_off_c, 0, 60, 64
2, 145916, Note_off_c, 0, 63, 64
2, 145916, Note_off_c, 0, 65, 64
2, 145920, Note_on_c, 0, 58, 85
2, 145920, Note_on_c, 0, 62, 85
2, 145920, Note_on_c, 0, 65, 85
2, 146300, Note_off_c, 0, 58, 64
2, 146300, Note_off_c, 0, 62, 64
2, 146300, Note_off_c, 0, 65, 64
2, 147456, Note_on_c, 0, 59, 95
2, 147456, Note_on_c, 0, 86, 100
2, 147584, Note_on_c, 0, 65, 92
2, 147584, Note_on_c, 0, 68, 92
2, 147584, Note_on_c, 0, 62, 92
2, 147708, Note_off_c, 0, 65, 64
2, 147708, Note_off_c, 0, 68, 64
2, 147708, Note_off_c, 0, 62, 64
2, 147712, Note_on_c, 0, 68, 92
2, 147712, Note_on_c, 0, 65, 92
2, 147712, Note_on_c, 0, 62, 92
2, 147836, Note_off_c, 0, 68, 64
2, 147836, Note_off_c, 0, 65, 64
2, 147836, Note_off_c, 0, 62, 64
2, 147840, Note_on_c, 0, 62, 92
2, 147840, Note_on_c, 0, 65, 92
2, 147840, Note_on_c, 0, 68, 92
2, 147964, Note_off_c, 0, 62, 64
2, 147964, Note_off_c, 0, 65, 64
2, 147964, Note_off_c, 0, 68, 64
2, 147968, Note_on_c, 0, 65, 92
2, 147968, Note_on_c, 0, 68, 92
2, 147968, Note_on_c, 0, 62, 92
2, 148092, Note_off_c, 0, 65, 64
2, 148092, Note_off_c, 0, 68, 64
2, 148092, Note_off_c, 0, 62, 64
2, 148096, Note_on_c, 0, 65, 92
2, 148096, Note_on_c, 0, 68, 92
2, 148096, Note_on_c, 0, 62, 92
2, 148220, Note_off_c, 0, 59, 64
2, 148220, Note_off_c, 0, 86, 64
2, 148220, Note_off_c, 0, 65, 64
2, 148220, Note_off_c, 0, 68, 64
2, 148220, Note_off_c, 0, 62, 64
2, 148224, Note_on_c, 0, 59, 96
2, 148352, Note_on_c, 0, 65, 92
2, 148352, Note_on_c, 0, 68, 92
2, 148352, Note_on_c, 0, 62, 92
2, 148476, Note_off_c, 0, 65, 64
2, 148476, Note_off_c, 0, 68, 64
2, 148476, Note_off_c, 0, 62, 64
2, 148480, Note_on_c, 0, 62, 92
2, 148480, Note_on_c, 0, 65, 92
2, 148480, Note_on_c, 0, 68, 92
2, 148604, Note_off_c, 0, 62, 64
2, 148604, Note_off_c, 0, 65, 64
2, 148604, Note_off_c, 0, 68, 64
2, 148608, Note_on_c, 0, 62, 92
2, 148608, Note_on_c, 0, 65, 92
2, 148608, Note_on_c, 0, 68, 92
2, 148732, Note_off_c, 0, 62, 64
2, 148732, Note_off_c, 0, 65, 64
2, 148732, Note_off_c, 0, 68, 64
2, 148736, Note_on_c, 0, 65, 92
2, 148736, Note_on_c, 0, 68, 92
2, 148736, Note_on_c, 0, 62, 92
2, 148860, Note_off_c, 0, 65, 64
2, 148860, Note_off_c, 0, 68, 64
2, 148860, Note_off_c, 0, 62, 64
2, 148864, Note_on_c, 0, 62, 92
2, 148864, Note_on_c, 0, 65, 92
2, 148864, Note_on_c, 0, 68, 92
2, 148988, Note_off_c, 0, 59, 64
2, 148988, Note_off_c, 0, 62, 64
2, 148988, Note_off_c, 0, 65, 64
2, 148988, Note_off_c, 0, 68, 64
2, 148992, Note_on_c, 0, 60, 96
2, 149120, Note_on_c, 0, 65, 92
2, 149120, Note_on_c, 0, 69, 92
2, 149244, Note_off_c, 0, 65, 64
2, 149244, Note_off_c, 0, 69, 64
2, 149248, Note_on_c, 0, 65, 92
2, 149248, Note_on_c, 0, 69, 92
2, 149372, Note_off_c, 0, 65, 64
2, 149372, Note_off_c, 0, 69, 64
2, 149376, Note_on_c, 0, 65, 92
2, 149376, Note_on_c, 0, 69, 92
2, 149376, Note_on_c, 0, 89, 103
2, 149500, Note_off_c, 0, 65, 64
2, 149500, Note_off_c, 0, 69, 64
2, 149504, Note_on_c, 0, 65, 92
2, 149504, Note_on_c, 0, 69, 92
2, 149628, Note_off_c, 0, 65, 64
2, 149628, Note_off_c, 0, 69, 64
2, 149632, Note_on_c, 0, 65, 92
2, 149632, Note_on_c, 0, 69, 92
2, 149756, Note_off_c, 0, 60, 64
2, 149756, Note_off_c, 0, 65, 64
2, 149756, Note_off_c, 0, 69, 64
2, 149760, Note_on_c, 0, 60, 96
2, 149888, Note_on_c, 0, 65, 92
2, 149888, Note_on_c, 0, 69, 92
2, 149948, Note_off_c, 0, 89, 64
2, 149952, Note_on_c, 0, 84, 100
2, 150012, Note_off_c, 0, 65, 64
2, 150012, Note_off_c, 0, 69, 64
2, 150016, Note_on_c, 0, 65, 92
2, 150016, Note_on_c, 0, 69, 92
2, 150140, Note_off_c, 0, 84, 64
2, 150140, Note_off_c, 0, 65, 64
2, 150140, Note_off_c, 0, 69, 64
2, 150144, Note_on_c, 0, 65, 92
2, 150144, Note_on_c, 0, 69, 92
2, 150144, Note_on_c, 0, 81, 98
2, 150268, Note_off_c, 0, 65, 64
2, 150268, Note_off_c, 0, 69, 64
2, 150272, Note_on_c, 0, 65, 92
2, 150272, Note_on_c, 0, 69, 92
2, 150332, Note_off_c, 0, 81, 64
2, 150336, Note_on_c, 0, 77, 97
2, 150396, Note_off_c, 0, 65, 64
2, 150396, Note_off_c, 0, 69, 64
2, 150400, Note_on_c, 0, 65, 92
2, 150400, Note_on_c, 0, 69, 92
2, 150524, Note_off_c, 0, 60, 64
2, 150524, Note_off_c, 0, 77, 64
2, 150524, Note_off_c, 0, 65, 64
2, 150524, Note_off_c, 0, 69, 64
2, 150528, Note_on_c, 0, 76, 92
2, 150528, Note_on_c, 0, 60, 96
2, 150560, Note_off_c, 0, 76, 64
2, 150560, Note_on_c, 0, 77, 92
2, 150592, Note_off_c, 0, 77, 64
2, 150592, Note_on_c, 0, 76, 92
2, 150624, Note_off_c, 0, 76, 64
2, 150624, Note_on_c, 0, 77, 92
2, 150656, Note_off_c, 0, 77, 64
2, 150656, Note_on_c, 0, 76, 92
2, 150656, Note_on_c, 0, 70, 92
2, 150656, Note_on_c, 0, 67, 92
2, 150688, Note_off_c, 0, 76, 64
2, 150688, Note_on_c, 0, 77, 92
2, 150720, Note_off_c, 0, 77, 64
2, 150720, Note_on_c, 0, 76, 92
2, 150752, Note_off_c, 0, 76, 64
2, 150752, Note_on_c, 0, 77, 92
2, 150780, Note_off_c, 0, 70, 64
2, 150780, Note_off_c, 0, 67, 64
2, 150784, Note_off_c, 0, 77, 64
2, 150784, Note_on_c, 0, 76, 92
2, 150784, Note_on_c, 0, 70, 92
2, 150784, Note_on_c, 0, 67, 92
2, 150816, Note_off_c, 0, 76, 64
2, 150816, Note_on_c, 0, 77, 92
2, 150848, Note_off_c, 0, 77, 64
2, 150848, Note_on_c, 0, 76, 92
2, 150880, Note_off_c, 0, 76, 64
2, 150880, Note_on_c, 0, 77, 92
2, 150908, Note_off_c, 0, 70, 64
2, 150908, Note_off_c, 0, 67, 64
2, 150912, Note_off_c, 0, 77, 64
2, 150912, Note_on_c, 0, 76, 92
2, 150912, Note_on_c, 0, 70, 92
2, 150912, Note_on_c, 0, 67, 92
2, 150944, Note_off_c, 0, 76, 64
2, 150944, Note_on_c, 0, 77, 92
2, 150976, Note_off_c, 0, 77, 64
2, 150976, Note_on_c, 0, 76, 92
2, 151008, Note_off_c, 0, 76, 64
2, 151008, Note_on_c, 0, 77, 92
2, 151036, Note_off_c, 0, 70, 64
2, 151036, Note_off_c, 0, 67, 64
2, 151040, Note_off_c, 0, 77, 64
2, 151040, Note_on_c, 0, 76, 92
2, 151040, Note_on_c, 0, 70, 92
2, 151040, Note_on_c, 0, 67, 92
2, 151072, Note_off_c, 0, 76, 64
2, 151072, Note_on_c, 0, 77, 92
2, 151104, Note_off_c, 0, 77, 64
2, 151104, Note_on_c, 0, 76, 92
2, 151136, Note_off_c, 0, 76, 64
2, 151136, Note_on_c, 0, 77, 92
2, 151164, Note_off_c, 0, 70, 64
2, 151164, Note_off_c, 0, 67, 64
2, 151168, Note_off_c, 0, 77, 64
2, 151168, Note_on_c, 0, 76, 92
2, 151168, Note_on_c, 0, 70, 92
2, 151168, Note_on_c, 0, 67, 92
2, 151200, Note_off_c, 0, 76, 64
2, 151200, Note_on_c, 0, 77, 92
2, 151232, Note_off_c, 0, 77, 64
2, 151232, Note_on_c, 0, 76, 92
2, 151264, Note_off_c, 0, 76, 64
2, 151264, Note_on_c, 0, 77, 92
2, 151292, Note_off_c, 0, 60, 64
2, 151292, Note_off_c, 0, 70, 64
2, 151292, Note_off_c, 0, 67, 64
2, 151296, Note_off_c, 0, 77, 64
2, 151296, Note_on_c, 0, 79, 92
2, 151296, Note_on_c, 0, 60, 94
2, 151328, Note_off_c, 0, 79, 64
2, 151328, Note_on_c, 0, 81, 92
2, 151360, Note_off_c, 0, 81, 64
2, 151360, Note_on_c, 0, 79, 91
2, 151392, Note_off_c, 0, 79, 64
2, 151392, Note_on_c, 0, 81, 90
2, 151424, Note_off_c, 0, 81, 64
2, 151424, Note_on_c, 0, 79, 89
2, 151424, Note_on_c, 0, 70, 89
2, 151424, Note_on_c, 0, 64, 89
2, 151456, Note_off_c, 0, 79, 64
2, 151456, Note_on_c, 0, 81, 88
2, 151488, Note_off_c, 0, 81, 64
2, 151488, Note_on_c, 0, 79, 87
2, 151520, Note_off_c, 0, 79, 64
2, 151520, Note_on_c, 0, 81, 86
2, 151548, Note_off_c, 0, 70, 64
2, 151548, Note_off_c, 0, 64, 64
2, 151552, Note_off_c, 0, 81, 64
2, 151552, Note_on_c, 0, 79, 85
2, 151552, Note_on_c, 0, 70, 85
2, 151552, Note_on_c, 0, 64, 85
2, 151584, Note_off_c, 0, 79, 64
2, 151584, Note_on_c, 0, 81, 83
2, 151616, Note_off_c, 0, 81, 64
2, 151616, Note_on_c, 0, 79, 82
2, 151648, Note_off_c, 0, 79, 64
2, 151648, Note_on_c, 0, 81, 81
2, 151676, Note_off_c, 0, 70, 64
2, 151676, Note_off_c, 0, 64, 64
2, 151680, Note_off_c, 0, 81, 64
2, 151680, Note_on_c, 0, 79, 80
2, 151680, Note_on_c, 0, 70, 80
2, 151680, Note_on_c, 0, 64, 80
2, 151712, Note_off_c, 0, 79, 64
2, 151712, Note_on_c, 0, 81, 79
2, 151744, Note_off_c, 0, 81, 64
2, 151744, Note_on_c, 0, 79, 78
2, 151776, Note_off_c, 0, 79, 64
2, 151776, Note_on_c, 0, 81, 77
2, 151804, Note_off_c, 0, 70, 64
2, 151804, Note_off_c, 0, 64, 64
2, 151808, Note_off_c, 0, 81, 64
2, 151808, Note_on_c, 0, 79, 76
2, 151808, Note_on_c, 0, 70, 76
2, 151808, Note_on_c, 0, 64, 76
2, 151840, Note_off_c, 0, 79, 64
2, 151840, Note_on_c, 0, 81, 75
2, 151872, Note_off_c, 0, 81, 64
2, 151872, Note_on_c, 0, 77, 74
2, 151932, Note_off_c, 0, 70, 64
2, 151932, Note_off_c, 0, 64, 64
2, 151936, Note_on_c, 0, 70, 72
2, 151936, Note_on_c, 0, 64, 72
2, 151964, Note_off_c, 0, 77, 64
2, 151968, Note_on_c, 0, 79, 71
2, 152060, Note_off_c, 0, 60, 64
2, 152060, Note_off_c, 0, 70, 64
2, 152060, Note_off_c, 0, 64, 64
2, 152060, Note_off_c, 0, 79, 64
2, 152064, Note_on_c, 0, 77, 69
2, 152064, Note_on_c, 0, 69, 69
2, 152064, Note_on_c, 0, 65, 69
2, 152444, Note_off_c, 0, 77, 64
2, 152444, Note_off_c, 0, 69, 64
2, 152444, Note_off_c, 0, 65, 64
2, 153216, Note_on_c, 0, 81, 71
2, 153216, Note_on_c, 0, 69, 69
2, 153500, Note_off_c, 0, 81, 64
2, 153500, Note_off_c, 0, 69, 64
2, 153504, Note_on_c, 0, 77, 69
2, 153504, Note_on_c, 0, 65, 69
2, 153596, Note_off_c, 0, 77, 64
2, 153596, Note_off_c, 0, 65, 64
2, 153600, Note_on_c, 0, 84, 73
2, 153980, Note_off_c, 0, 84, 64
2, 153984, Note_on_c, 0, 84, 73
2, 154364, Note_off_c, 0, 84, 64
2, 154368, Note_on_c, 0, 84, 73
2, 154748, Note_off_c, 0, 84, 64
2, 154752, Note_on_c, 0, 84, 73
2, 155132, Note_off_c, 0, 84, 64
2, 155136, Note_on_c, 0, 84, 73
2, 155516, Note_off_c, 0, 84, 64
2, 155520, Note_on_c, 0, 89, 76
2, 155900, Note_off_c, 0, 89, 64
2, 156288, Note_on_c, 0, 81, 71
2, 156572, Note_off_c, 0, 81, 64
2, 156576, Note_on_c, 0, 77, 70
2, 156668, Note_off_c, 0, 77, 64
2, 156672, Note_on_c, 0, 84, 73
2, 157052, Note_off_c, 0, 84, 64
2, 157056, Note_on_c, 0, 84, 73
2, 157436, Note_off_c, 0, 84, 64
2, 157440, Note_on_c, 0, 84, 73
2, 158012, Note_off_c, 0, 84, 64
2, 158016, Note_on_c, 0, 82, 72
2, 158076, Note_off_c, 0, 82, 64
2, 158080, Note_on_c, 0, 81, 71
2, 158140, Note_off_c, 0, 81, 64
2, 158144, Note_on_c, 0, 79, 70
2, 158204, Note_off_c, 0, 79, 64
2, 158208, Note_on_c, 0, 77, 69
2, 158588, Note_off_c, 0, 77, 64
2, 158976, Note_on_c, 0, 72, 69
2, 158976, Note_on_c, 0, 84, 73
2, 159356, Note_off_c, 0, 72, 64
2, 159356, Note_off_c, 0, 84, 64
2, 159744, Note_on_c, 0, 77, 69
2, 159744, Note_on_c, 0, 89, 74
2, 160268, Note_off_c, 0, 89, 64
2, 160276, Note_off_c, 0, 77, 64
2, 160276, End_track
3, 0, Start_track
3, 0, Title_t, "K467b- #21"
3, 0, Control_c, 1, 0, 0
3, 0, Program_c, 1, 0
3, 0, Control_c, 1, 10, 63
3, 0, Control_c, 1, 91, 70
3, 0, Control_c, 1, 93, 52
3, 0, Key_signature, -1, "minor"
3, 0, Control_c, 1, 121, 0
3, 144, Control_c, 1, 10, 63
3, 192, Control_c, 1, 91, 63
3, 240, Control_c, 1, 93, 35
3, 288, Program_c, 1, 0
3, 35328, Note_on_c, 1, 53, 64
3, 35456, Note_on_c, 1, 57, 64
3, 35456, Note_on_c, 1, 60, 64
3, 35580, Note_off_c, 1, 57, 64
3, 35580, Note_off_c, 1, 60, 64
3, 35584, Note_on_c, 1, 57, 64
3, 35584, Note_on_c, 1, 60, 64
3, 35708, Note_off_c, 1, 57, 64
3, 35708, Note_off_c, 1, 60, 64
3, 35712, Note_on_c, 1, 57, 64
3, 35712, Note_on_c, 1, 60, 64
3, 35836, Note_off_c, 1, 57, 64
3, 35836, Note_off_c, 1, 60, 64
3, 35840, Note_on_c, 1, 57, 64
3, 35840, Note_on_c, 1, 60, 64
3, 35964, Note_off_c, 1, 57, 64
3, 35964, Note_off_c, 1, 60, 64
3, 35968, Note_on_c, 1, 57, 64
3, 35968, Note_on_c, 1, 60, 64
3, 36092, Note_off_c, 1, 53, 64
3, 36092, Note_off_c, 1, 57, 64
3, 36092, Note_off_c, 1, 60, 64
3, 36096, Note_on_c, 1, 53, 64
3, 36224, Note_on_c, 1, 57, 64
3, 36224, Note_on_c, 1, 60, 64
3, 36348, Note_off_c, 1, 57, 64
3, 36348, Note_off_c, 1, 60, 64
3, 36352, Note_on_c, 1, 57, 64
3, 36352, Note_on_c, 1, 60, 64
3, 36476, Note_off_c, 1, 57, 64
3, 36476, Note_off_c, 1, 60, 64
3, 36480, Note_on_c, 1, 57, 64
3, 36480, Note_on_c, 1, 60, 64
3, 36604, Note_off_c, 1, 57, 64
3, 36604, Note_off_c, 1, 60, 64
3, 36608, Note_on_c, 1, 57, 64
3, 36608, Note_on_c, 1, 60, 64
3, 36732, Note_off_c, 1, 57, 64
3, 36732, Note_off_c, 1, 60, 64
3, 36736, Note_on_c, 1, 57, 64
3, 36736, Note_on_c, 1, 60, 64
3, 36860, Note_off_c, 1, 53, 64
3, 36860, Note_off_c, 1, 57, 64
3, 36860, Note_off_c, 1, 60, 64
3, 36864, Note_on_c, 1, 53, 64
3, 36992, Note_on_c, 1, 57, 64
3, 36992, Note_on_c, 1, 60, 64
3, 37116, Note_off_c, 1, 57, 64
3, 37116, Note_off_c, 1, 60, 64
3, 37120, Note_on_c, 1, 57, 64
3, 37120, Note_on_c, 1, 60, 64
3, 37244, Note_off_c, 1, 57, 64
3, 37244, Note_off_c, 1, 60, 64
3, 37248, Note_on_c, 1, 57, 64
3, 37248, Note_on_c, 1, 60, 64
3, 37372, Note_off_c, 1, 57, 64
3, 37372, Note_off_c, 1, 60, 64
3, 37376, Note_on_c, 1, 57, 64
3, 37376, Note_on_c, 1, 60, 64
3, 37500, Note_off_c, 1, 57, 64
3, 37500, Note_off_c, 1, 60, 64
3, 37504, Note_on_c, 1, 57, 64
3, 37504, Note_on_c, 1, 60, 64
3, 37628, Note_off_c, 1, 53, 64
3, 37628, Note_off_c, 1, 57, 64
3, 37628, Note_off_c, 1, 60, 64
3, 37632, Note_on_c, 1, 53, 64
3, 37760, Note_on_c, 1, 57, 64
3, 37760, Note_on_c, 1, 60, 64
3, 37884, Note_off_c, 1, 57, 64
3, 37884, Note_off_c, 1, 60, 64
3, 37888, Note_on_c, 1, 57, 64
3, 37888, Note_on_c, 1, 60, 64
3, 38012, Note_off_c, 1, 57, 64
3, 38012, Note_off_c, 1, 60, 64
3, 38016, Note_on_c, 1, 57, 64
3, 38016, Note_on_c, 1, 60, 64
3, 38140, Note_off_c, 1, 57, 64
3, 38140, Note_off_c, 1, 60, 64
3, 38144, Note_on_c, 1, 57, 64
3, 38144, Note_on_c, 1, 60, 64
3, 38268, Note_off_c, 1, 57, 64
3, 38268, Note_off_c, 1, 60, 64
3, 38272, Note_on_c, 1, 57, 64
3, 38272, Note_on_c, 1, 60, 64
3, 38396, Note_off_c, 1, 53, 64
3, 38396, Note_off_c, 1, 57, 64
3, 38396, Note_off_c, 1, 60, 64
3, 38400, Note_on_c, 1, 53, 64
3, 38528, Note_on_c, 1, 57, 64
3, 38528, Note_on_c, 1, 60, 64
3, 38652, Note_off_c, 1, 57, 64
3, 38652, Note_off_c, 1, 60, 64
3, 38656, Note_on_c, 1, 57, 64
3, 38656, Note_on_c, 1, 60, 64
3, 38780, Note_off_c, 1, 57, 64
3, 38780, Note_off_c, 1, 60, 64
3, 38784, Note_on_c, 1, 57, 64
3, 38784, Note_on_c, 1, 60, 64
3, 38908, Note_off_c, 1, 57, 64
3, 38908, Note_off_c, 1, 60, 64
3, 38912, Note_on_c, 1, 57, 64
3, 38912, Note_on_c, 1, 60, 64
3, 39036, Note_off_c, 1, 57, 64
3, 39036, Note_off_c, 1, 60, 64
3, 39040, Note_on_c, 1, 57, 64
3, 39040, Note_on_c, 1, 60, 64
3, 39164, Note_off_c, 1, 53, 64
3, 39164, Note_off_c, 1, 57, 64
3, 39164, Note_off_c, 1, 60, 64
3, 39168, Note_on_c, 1, 53, 64
3, 39296, Note_on_c, 1, 57, 64
3, 39296, Note_on_c, 1, 60, 64
3, 39420, Note_off_c, 1, 57, 64
3, 39420, Note_off_c, 1, 60, 64
3, 39424, Note_on_c, 1, 57, 64
3, 39424, Note_on_c, 1, 60, 64
3, 39548, Note_off_c, 1, 57, 64
3, 39548, Note_off_c, 1, 60, 64
3, 39552, Note_on_c, 1, 57, 64
3, 39552, Note_on_c, 1, 60, 64
3, 39676, Note_off_c, 1, 57, 64
3, 39676, Note_off_c, 1, 60, 64
3, 39680, Note_on_c, 1, 57, 64
3, 39680, Note_on_c, 1, 60, 64
3, 39804, Note_off_c, 1, 57, 64
3, 39804, Note_off_c, 1, 60, 64
3, 39808, Note_on_c, 1, 57, 64
3, 39808, Note_on_c, 1, 60, 64
3, 39932, Note_off_c, 1, 53, 64
3, 39932, Note_off_c, 1, 57, 64
3, 39932, Note_off_c, 1, 60, 64
3, 39936, Note_on_c, 1, 48, 64
3, 40064, Note_on_c, 1, 58, 64
3, 40064, Note_on_c, 1, 55, 64
3, 40064, Note_on_c, 1, 52, 64
3, 40188, Note_off_c, 1, 58, 64
3, 40188, Note_off_c, 1, 55, 64
3, 40188, Note_off_c, 1, 52, 64
3, 40192, Note_on_c, 1, 58, 64
3, 40192, Note_on_c, 1, 55, 64
3, 40192, Note_on_c, 1, 52, 64
3, 40316, Note_off_c, 1, 58, 64
3, 40316, Note_off_c, 1, 55, 64
3, 40316, Note_off_c, 1, 52, 64
3, 40320, Note_on_c, 1, 58, 64
3, 40320, Note_on_c, 1, 55, 64
3, 40320, Note_on_c, 1, 52, 64
3, 40444, Note_off_c, 1, 58, 64
3, 40444, Note_off_c, 1, 55, 64
3, 40444, Note_off_c, 1, 52, 64
3, 40448, Note_on_c, 1, 58, 64
3, 40448, Note_on_c, 1, 55, 64
3, 40448, Note_on_c, 1, 52, 64
3, 40572, Note_off_c, 1, 58, 64
3, 40572, Note_off_c, 1, 55, 64
3, 40572, Note_off_c, 1, 52, 64
3, 40576, Note_on_c, 1, 58, 64
3, 40576, Note_on_c, 1, 55, 64
3, 40576, Note_on_c, 1, 52, 64
3, 40700, Note_off_c, 1, 48, 64
3, 40700, Note_off_c, 1, 58, 64
3, 40700, Note_off_c, 1, 55, 64
3, 40700, Note_off_c, 1, 52, 64
3, 40704, Note_on_c, 1, 48, 64
3, 40832, Note_on_c, 1, 58, 64
3, 40832, Note_on_c, 1, 55, 64
3, 40832, Note_on_c, 1, 52, 64
3, 40956, Note_off_c, 1, 58, 64
3, 40956, Note_off_c, 1, 55, 64
3, 40956, Note_off_c, 1, 52, 64
3, 40960, Note_on_c, 1, 58, 64
3, 40960, Note_on_c, 1, 55, 64
3, 40960, Note_on_c, 1, 52, 64
3, 41084, Note_off_c, 1, 58, 64
3, 41084, Note_off_c, 1, 55, 64
3, 41084, Note_off_c, 1, 52, 64
3, 41088, Note_on_c, 1, 58, 64
3, 41088, Note_on_c, 1, 55, 64
3, 41088, Note_on_c, 1, 52, 64
3, 41212, Note_off_c, 1, 58, 64
3, 41212, Note_off_c, 1, 55, 64
3, 41212, Note_off_c, 1, 52, 64
3, 41216, Note_on_c, 1, 58, 64
3, 41216, Note_on_c, 1, 55, 64
3, 41216, Note_on_c, 1, 52, 64
3, 41340, Note_off_c, 1, 58, 64
3, 41340, Note_off_c, 1, 55, 64
3, 41340, Note_off_c, 1, 52, 64
3, 41344, Note_on_c, 1, 58, 64
3, 41344, Note_on_c, 1, 55, 64
3, 41344, Note_on_c, 1, 52, 64
3, 41468, Note_off_c, 1, 48, 64
3, 41468, Note_off_c, 1, 58, 64
3, 41468, Note_off_c, 1, 55, 64
3, 41468, Note_off_c, 1, 52, 64
3, 41472, Note_on_c, 1, 48, 64
3, 41600, Note_on_c, 1, 58, 64
3, 41600, Note_on_c, 1, 55, 64
3, 41600, Note_on_c, 1, 52, 64
3, 41724, Note_off_c, 1, 58, 64
3, 41724, Note_off_c, 1, 55, 64
3, 41724, Note_off_c, 1, 52, 64
3, 41728, Note_on_c, 1, 58, 64
3, 41728, Note_on_c, 1, 55, 64
3, 41728, Note_on_c, 1, 52, 64
3, 41852, Note_off_c, 1, 58, 64
3, 41852, Note_off_c, 1, 55, 64
3, 41852, Note_off_c, 1, 52, 64
3, 41856, Note_on_c, 1, 58, 64
3, 41856, Note_on_c, 1, 55, 64
3, 41856, Note_on_c, 1, 52, 64
3, 41980, Note_off_c, 1, 58, 64
3, 41980, Note_off_c, 1, 55, 64
3, 41980, Note_off_c, 1, 52, 64
3, 41984, Note_on_c, 1, 58, 64
3, 41984, Note_on_c, 1, 55, 64
3, 41984, Note_on_c, 1, 52, 64
3, 42108, Note_off_c, 1, 58, 64
3, 42108, Note_off_c, 1, 55, 64
3, 42108, Note_off_c, 1, 52, 64
3, 42112, Note_on_c, 1, 58, 64
3, 42112, Note_on_c, 1, 55, 64
3, 42112, Note_on_c, 1, 52, 64
3, 42236, Note_off_c, 1, 48, 64
3, 42236, Note_off_c, 1, 58, 64
3, 42236, Note_off_c, 1, 55, 64
3, 42236, Note_off_c, 1, 52, 64
3, 42240, Note_on_c, 1, 48, 64
3, 42368, Note_on_c, 1, 58, 64
3, 42368, Note_on_c, 1, 55, 64
3, 42368, Note_on_c, 1, 52, 64
3, 42492, Note_off_c, 1, 58, 64
3, 42492, Note_off_c, 1, 55, 64
3, 42492, Note_off_c, 1, 52, 64
3, 42496, Note_on_c, 1, 58, 64
3, 42496, Note_on_c, 1, 55, 64
3, 42496, Note_on_c, 1, 52, 64
3, 42620, Note_off_c, 1, 58, 64
3, 42620, Note_off_c, 1, 55, 64
3, 42620, Note_off_c, 1, 52, 64
3, 42624, Note_on_c, 1, 58, 64
3, 42624, Note_on_c, 1, 55, 64
3, 42624, Note_on_c, 1, 52, 64
3, 42748, Note_off_c, 1, 58, 64
3, 42748, Note_off_c, 1, 55, 64
3, 42748, Note_off_c, 1, 52, 64
3, 42752, Note_on_c, 1, 58, 64
3, 42752, Note_on_c, 1, 55, 64
3, 42752, Note_on_c, 1, 52, 64
3, 42876, Note_off_c, 1, 58, 64
3, 42876, Note_off_c, 1, 55, 64
3, 42876, Note_off_c, 1, 52, 64
3, 42880, Note_on_c, 1, 58, 64
3, 42880, Note_on_c, 1, 55, 64
3, 42880, Note_on_c, 1, 52, 64
3, 43004, Note_off_c, 1, 48, 64
3, 43004, Note_off_c, 1, 58, 64
3, 43004, Note_off_c, 1, 55, 64
3, 43004, Note_off_c, 1, 52, 64
3, 43008, Note_on_c, 1, 48, 64
3, 43136, Note_on_c, 1, 58, 64
3, 43136, Note_on_c, 1, 55, 64
3, 43136, Note_on_c, 1, 52, 64
3, 43260, Note_off_c, 1, 58, 64
3, 43260, Note_off_c, 1, 55, 64
3, 43260, Note_off_c, 1, 52, 64
3, 43264, Note_on_c, 1, 58, 64
3, 43264, Note_on_c, 1, 55, 64
3, 43264, Note_on_c, 1, 52, 64
3, 43388, Note_off_c, 1, 58, 64
3, 43388, Note_off_c, 1, 55, 64
3, 43388, Note_off_c, 1, 52, 64
3, 43392, Note_on_c, 1, 58, 64
3, 43392, Note_on_c, 1, 55, 64
3, 43392, Note_on_c, 1, 52, 64
3, 43516, Note_off_c, 1, 58, 64
3, 43516, Note_off_c, 1, 55, 64
3, 43516, Note_off_c, 1, 52, 64
3, 43520, Note_on_c, 1, 58, 64
3, 43520, Note_on_c, 1, 55, 64
3, 43520, Note_on_c, 1, 52, 64
3, 43644, Note_off_c, 1, 58, 64
3, 43644, Note_off_c, 1, 55, 64
3, 43644, Note_off_c, 1, 52, 64
3, 43648, Note_on_c, 1, 58, 64
3, 43648, Note_on_c, 1, 55, 64
3, 43648, Note_on_c, 1, 52, 64
3, 43772, Note_off_c, 1, 48, 64
3, 43772, Note_off_c, 1, 58, 64
3, 43772, Note_off_c, 1, 55, 64
3, 43772, Note_off_c, 1, 52, 64
3, 43776, Note_on_c, 1, 48, 64
3, 43904, Note_on_c, 1, 58, 64
3, 43904, Note_on_c, 1, 55, 64
3, 43904, Note_on_c, 1, 52, 64
3, 44028, Note_off_c, 1, 58, 64
3, 44028, Note_off_c, 1, 55, 64
3, 44028, Note_off_c, 1, 52, 64
3, 44032, Note_on_c, 1, 58, 64
3, 44032, Note_on_c, 1, 55, 64
3, 44032, Note_on_c, 1, 52, 64
3, 44156, Note_off_c, 1, 58, 64
3, 44156, Note_off_c, 1, 55, 64
3, 44156, Note_off_c, 1, 52, 64
3, 44160, Note_on_c, 1, 58, 64
3, 44160, Note_on_c, 1, 55, 64
3, 44160, Note_on_c, 1, 52, 64
3, 44284, Note_off_c, 1, 58, 64
3, 44284, Note_off_c, 1, 55, 64
3, 44284, Note_off_c, 1, 52, 64
3, 44288, Note_on_c, 1, 58, 64
3, 44288, Note_on_c, 1, 55, 64
3, 44288, Note_on_c, 1, 52, 64
3, 44412, Note_off_c, 1, 58, 64
3, 44412, Note_off_c, 1, 55, 64
3, 44412, Note_off_c, 1, 52, 64
3, 44416, Note_on_c, 1, 58, 64
3, 44416, Note_on_c, 1, 55, 64
3, 44416, Note_on_c, 1, 52, 64
3, 44540, Note_off_c, 1, 48, 64
3, 44540, Note_off_c, 1, 58, 64
3, 44540, Note_off_c, 1, 55, 64
3, 44540, Note_off_c, 1, 52, 64
3, 44544, Note_on_c, 1, 53, 64
3, 44672, Note_on_c, 1, 57, 64
3, 44672, Note_on_c, 1, 60, 64
3, 44796, Note_off_c, 1, 57, 64
3, 44796, Note_off_c, 1, 60, 64
3, 44800, Note_on_c, 1, 57, 64
3, 44800, Note_on_c, 1, 60, 64
3, 44924, Note_off_c, 1, 57, 64
3, 44924, Note_off_c, 1, 60, 64
3, 44928, Note_on_c, 1, 57, 64
3, 44928, Note_on_c, 1, 60, 64
3, 45052, Note_off_c, 1, 57, 64
3, 45052, Note_off_c, 1, 60, 64
3, 45056, Note_on_c, 1, 57, 64
3, 45056, Note_on_c, 1, 60, 64
3, 45180, Note_off_c, 1, 57, 64
3, 45180, Note_off_c, 1, 60, 64
3, 45184, Note_on_c, 1, 57, 64
3, 45184, Note_on_c, 1, 60, 64
3, 45308, Note_off_c, 1, 53, 64
3, 45308, Note_off_c, 1, 57, 64
3, 45308, Note_off_c, 1, 60, 64
3, 45312, Note_on_c, 1, 53, 64
3, 45440, Note_on_c, 1, 57, 64
3, 45440, Note_on_c, 1, 60, 64
3, 45564, Note_off_c, 1, 57, 64
3, 45564, Note_off_c, 1, 60, 64
3, 45568, Note_on_c, 1, 57, 64
3, 45568, Note_on_c, 1, 60, 64
3, 45692, Note_off_c, 1, 57, 64
3, 45692, Note_off_c, 1, 60, 64
3, 45696, Note_on_c, 1, 57, 64
3, 45696, Note_on_c, 1, 60, 64
3, 45820, Note_off_c, 1, 57, 64
3, 45820, Note_off_c, 1, 60, 64
3, 45824, Note_on_c, 1, 57, 64
3, 45824, Note_on_c, 1, 60, 64
3, 45948, Note_off_c, 1, 57, 64
3, 45948, Note_off_c, 1, 60, 64
3, 45952, Note_on_c, 1, 57, 64
3, 45952, Note_on_c, 1, 60, 64
3, 46076, Note_off_c, 1, 53, 64
3, 46076, Note_off_c, 1, 57, 64
3, 46076, Note_off_c, 1, 60, 64
3, 46832, Note_on_c, 1, 45, 68
3, 47404, Note_off_c, 1, 45, 64
3, 47424, Note_on_c, 1, 45, 68
3, 47612, Note_off_c, 1, 45, 64
3, 47616, Note_on_c, 1, 48, 68
3, 47804, Note_off_c, 1, 48, 64
3, 47808, Note_on_c, 1, 46, 68
3, 47996, Note_off_c, 1, 46, 64
3, 48000, Note_on_c, 1, 46, 68
3, 48380, Note_off_c, 1, 46, 64
3, 49920, Note_on_c, 1, 47, 89
3, 50492, Note_off_c, 1, 47, 64
3, 50496, Note_on_c, 1, 47, 89
3, 50684, Note_off_c, 1, 47, 64
3, 50688, Note_on_c, 1, 48, 89
3, 51068, Note_off_c, 1, 48, 64
3, 56832, Note_on_c, 1, 50, 70
3, 57212, Note_off_c, 1, 50, 64
3, 57600, Note_on_c, 1, 62, 70
3, 57980, Note_off_c, 1, 62, 64
3, 57984, Note_on_c, 1, 57, 70
3, 58364, Note_off_c, 1, 57, 64
3, 58368, Note_on_c, 1, 50, 70
3, 58748, Note_off_c, 1, 50, 64
3, 59136, Note_on_c, 1, 50, 70
3, 59516, Note_off_c, 1, 50, 64
3, 59904, Note_on_c, 1, 48, 70
3, 59904, Note_on_c, 1, 36, 70
3, 60284, Note_off_c, 1, 48, 64
3, 60284, Note_off_c, 1, 36, 64
3, 60672, Note_on_c, 1, 48, 70
3, 61052, Note_off_c, 1, 48, 64
3, 61440, Note_on_c, 1, 53, 70
3, 61820, Note_off_c, 1, 53, 64
3, 62208, Note_on_c, 1, 53, 70
3, 62588, Note_off_c, 1, 53, 64
3, 62976, Note_on_c, 1, 52, 70
3, 63356, Note_off_c, 1, 52, 64
3, 63744, Note_on_c, 1, 52, 70
3, 64124, Note_off_c, 1, 52, 64
3, 64512, Note_on_c, 1, 53, 70
3, 64892, Note_off_c, 1, 53, 64
3, 65280, Note_on_c, 1, 53, 70
3, 65660, Note_off_c, 1, 53, 64
3, 66048, Note_on_c, 1, 54, 70
3, 66428, Note_off_c, 1, 54, 64
3, 66816, Note_on_c, 1, 54, 70
3, 67196, Note_off_c, 1, 54, 64
3, 67584, Note_on_c, 1, 55, 70
3, 67964, Note_off_c, 1, 55, 64
3, 69120, Note_on_c, 1, 55, 85
3, 69120, Note_on_c, 1, 43, 85
3, 69500, Note_off_c, 1, 55, 64
3, 69500, Note_off_c, 1, 43, 64
3, 70656, Note_on_c, 1, 55, 85
3, 70656, Note_on_c, 1, 43, 85
3, 71036, Note_off_c, 1, 55, 64
3, 71036, Note_off_c, 1, 43, 64
3, 72192, Note_on_c, 1, 55, 85
3, 72192, Note_on_c, 1, 43, 85
3, 72572, Note_off_c, 1, 55, 64
3, 72572, Note_off_c, 1, 43, 64
3, 73728, Note_on_c, 1, 55, 83
3, 73728, Note_on_c, 1, 43, 83
3, 74108, Note_off_c, 1, 55, 64
3, 74108, Note_off_c, 1, 43, 64
3, 75264, Note_on_c, 1, 55, 70
3, 75264, Note_on_c, 1, 43, 70
3, 75644, Note_off_c, 1, 55, 64
3, 75644, Note_off_c, 1, 43, 64
3, 76416, Note_on_c, 1, 53, 70
3, 76796, Note_off_c, 1, 53, 64
3, 76800, Note_on_c, 1, 52, 70
3, 76924, Note_off_c, 1, 52, 64
3, 76928, Note_on_c, 1, 55, 70
3, 77052, Note_off_c, 1, 55, 64
3, 77056, Note_on_c, 1, 60, 70
3, 77180, Note_off_c, 1, 60, 64
3, 77184, Note_on_c, 1, 48, 70
3, 77308, Note_off_c, 1, 48, 64
3, 77312, Note_on_c, 1, 52, 70
3, 77436, Note_off_c, 1, 52, 64
3, 77440, Note_on_c, 1, 60, 70
3, 77564, Note_off_c, 1, 60, 64
3, 77568, Note_on_c, 1, 53, 70
3, 77692, Note_off_c, 1, 53, 64
3, 77696, Note_on_c, 1, 57, 70
3, 77820, Note_off_c, 1, 57, 64
3, 77824, Note_on_c, 1, 60, 70
3, 77948, Note_off_c, 1, 60, 64
3, 77952, Note_on_c, 1, 50, 70
3, 78076, Note_off_c, 1, 50, 64
3, 78080, Note_on_c, 1, 57, 70
3, 78204, Note_off_c, 1, 57, 64
3, 78208, Note_on_c, 1, 60, 70
3, 78332, Note_off_c, 1, 60, 64
3, 78336, Note_on_c, 1, 55, 70
3, 78460, Note_off_c, 1, 55, 64
3, 78464, Note_on_c, 1, 60, 70
3, 78588, Note_off_c, 1, 60, 64
3, 78592, Note_on_c, 1, 62, 70
3, 78716, Note_off_c, 1, 62, 64
3, 78720, Note_on_c, 1, 53, 70
3, 78844, Note_off_c, 1, 53, 64
3, 78848, Note_on_c, 1, 60, 70
3, 78972, Note_off_c, 1, 60, 64
3, 78976, Note_on_c, 1, 62, 70
3, 79100, Note_off_c, 1, 62, 64
3, 79104, Note_on_c, 1, 55, 70
3, 79228, Note_off_c, 1, 55, 64
3, 79232, Note_on_c, 1, 60, 70
3, 79356, Note_off_c, 1, 60, 64
3, 79360, Note_on_c, 1, 62, 70
3, 79484, Note_off_c, 1, 62, 64
3, 79488, Note_on_c, 1, 55, 70
3, 79612, Note_off_c, 1, 55, 64
3, 79616, Note_on_c, 1, 59, 70
3, 79740, Note_off_c, 1, 59, 64
3, 79744, Note_on_c, 1, 62, 70
3, 79868, Note_off_c, 1, 62, 64
3, 79872, Note_on_c, 1, 56, 70
3, 79996, Note_off_c, 1, 56, 64
3, 80000, Note_on_c, 1, 59, 70
3, 80124, Note_off_c, 1, 59, 64
3, 80128, Note_on_c, 1, 62, 70
3, 80252, Note_off_c, 1, 62, 64
3, 80256, Note_on_c, 1, 57, 70
3, 80380, Note_off_c, 1, 57, 64
3, 80384, Note_on_c, 1, 60, 70
3, 80508, Note_off_c, 1, 60, 64
3, 80512, Note_on_c, 1, 64, 70
3, 80636, Note_off_c, 1, 64, 64
3, 80640, Note_on_c, 1, 55, 70
3, 80764, Note_off_c, 1, 55, 64
3, 80768, Note_on_c, 1, 60, 70
3, 80892, Note_off_c, 1, 60, 64
3, 80896, Note_on_c, 1, 64, 70
3, 81020, Note_off_c, 1, 64, 64
3, 81024, Note_on_c, 1, 55, 70
3, 81148, Note_off_c, 1, 55, 64
3, 81152, Note_on_c, 1, 59, 70
3, 81276, Note_off_c, 1, 59, 64
3, 81280, Note_on_c, 1, 62, 70
3, 81404, Note_off_c, 1, 62, 64
3, 81408, Note_on_c, 1, 52, 70
3, 81532, Note_off_c, 1, 52, 64
3, 81536, Note_on_c, 1, 55, 70
3, 81660, Note_off_c, 1, 55, 64
3, 81664, Note_on_c, 1, 60, 70
3, 81788, Note_off_c, 1, 60, 64
3, 81792, Note_on_c, 1, 48, 70
3, 81916, Note_off_c, 1, 48, 64
3, 81920, Note_on_c, 1, 52, 70
3, 82044, Note_off_c, 1, 52, 64
3, 82048, Note_on_c, 1, 60, 70
3, 82172, Note_off_c, 1, 60, 64
3, 82176, Note_on_c, 1, 53, 70
3, 82300, Note_off_c, 1, 53, 64
3, 82304, Note_on_c, 1, 57, 70
3, 82428, Note_off_c, 1, 57, 64
3, 82432, Note_on_c, 1, 60, 70
3, 82556, Note_off_c, 1, 60, 64
3, 82560, Note_on_c, 1, 50, 70
3, 82684, Note_off_c, 1, 50, 64
3, 82688, Note_on_c, 1, 57, 70
3, 82812, Note_off_c, 1, 57, 64
3, 82816, Note_on_c, 1, 60, 70
3, 82940, Note_off_c, 1, 60, 64
3, 82944, Note_on_c, 1, 55, 70
3, 83068, Note_off_c, 1, 55, 64
3, 83072, Note_on_c, 1, 60, 70
3, 83196, Note_off_c, 1, 60, 64
3, 83200, Note_on_c, 1, 62, 70
3, 83324, Note_off_c, 1, 62, 64
3, 83328, Note_on_c, 1, 53, 70
3, 83452, Note_off_c, 1, 53, 64
3, 83456, Note_on_c, 1, 60, 70
3, 83580, Note_off_c, 1, 60, 64
3, 83584, Note_on_c, 1, 62, 70
3, 83708, Note_off_c, 1, 62, 64
3, 83712, Note_on_c, 1, 55, 70
3, 83836, Note_off_c, 1, 55, 64
3, 83840, Note_on_c, 1, 60, 70
3, 83964, Note_off_c, 1, 60, 64
3, 83968, Note_on_c, 1, 62, 70
3, 84092, Note_off_c, 1, 62, 64
3, 84096, Note_on_c, 1, 55, 70
3, 84220, Note_off_c, 1, 55, 64
3, 84224, Note_on_c, 1, 59, 70
3, 84348, Note_off_c, 1, 59, 64
3, 84352, Note_on_c, 1, 65, 70
3, 84476, Note_off_c, 1, 65, 64
3, 84480, Note_on_c, 1, 64, 70
3, 84480, Note_on_c, 1, 60, 70
3, 84860, Note_off_c, 1, 64, 64
3, 84860, Note_off_c, 1, 60, 64
3, 89088, Note_on_c, 1, 55, 94
3, 89212, Note_off_c, 1, 55, 64
3, 89216, Note_on_c, 1, 58, 94
3, 89340, Note_off_c, 1, 58, 64
3, 89344, Note_on_c, 1, 62, 94
3, 89468, Note_off_c, 1, 62, 64
3, 89472, Note_on_c, 1, 55, 94
3, 89596, Note_off_c, 1, 55, 64
3, 89600, Note_on_c, 1, 58, 94
3, 89724, Note_off_c, 1, 58, 64
3, 89728, Note_on_c, 1, 62, 94
3, 89852, Note_off_c, 1, 62, 64
3, 89856, Note_on_c, 1, 55, 94
3, 89980, Note_off_c, 1, 55, 64
3, 89984, Note_on_c, 1, 58, 94
3, 90108, Note_off_c, 1, 58, 64
3, 90112, Note_on_c, 1, 62, 94
3, 90236, Note_off_c, 1, 62, 64
3, 90240, Note_on_c, 1, 55, 94
3, 90364, Note_off_c, 1, 55, 64
3, 90368, Note_on_c, 1, 58, 94
3, 90492, Note_off_c, 1, 58, 64
3, 90496, Note_on_c, 1, 62, 94
3, 90620, Note_off_c, 1, 62, 64
3, 90624, Note_on_c, 1, 55, 94
3, 90748, Note_off_c, 1, 55, 64
3, 90752, Note_on_c, 1, 58, 94
3, 90876, Note_off_c, 1, 58, 64
3, 90880, Note_on_c, 1, 61, 94
3, 91004, Note_off_c, 1, 61, 64
3, 91008, Note_on_c, 1, 55, 94
3, 91132, Note_off_c, 1, 55, 64
3, 91136, Note_on_c, 1, 58, 94
3, 91260, Note_off_c, 1, 58, 64
3, 91264, Note_on_c, 1, 61, 94
3, 91388, Note_off_c, 1, 61, 64
3, 91392, Note_on_c, 1, 55, 94
3, 91516, Note_off_c, 1, 55, 64
3, 91520, Note_on_c, 1, 58, 94
3, 91644, Note_off_c, 1, 58, 64
3, 91648, Note_on_c, 1, 61, 94
3, 91772, Note_off_c, 1, 61, 64
3, 91776, Note_on_c, 1, 55, 94
3, 91900, Note_off_c, 1, 55, 64
3, 91904, Note_on_c, 1, 58, 94
3, 92028, Note_off_c, 1, 58, 64
3, 92032, Note_on_c, 1, 62, 94
3, 92156, Note_off_c, 1, 62, 64
3, 92160, Note_on_c, 1, 55, 93
3, 92284, Note_off_c, 1, 55, 64
3, 92288, Note_on_c, 1, 58, 93
3, 92412, Note_off_c, 1, 58, 64
3, 92416, Note_on_c, 1, 64, 92
3, 92540, Note_off_c, 1, 64, 64
3, 92544, Note_on_c, 1, 55, 91
3, 92668, Note_off_c, 1, 55, 64
3, 92672, Note_on_c, 1, 58, 91
3, 92796, Note_off_c, 1, 58, 64
3, 92800, Note_on_c, 1, 64, 90
3, 92924, Note_off_c, 1, 64, 64
3, 92928, Note_on_c, 1, 57, 89
3, 93052, Note_off_c, 1, 57, 64
3, 93056, Note_on_c, 1, 64, 89
3, 93180, Note_off_c, 1, 64, 64
3, 93184, Note_on_c, 1, 69, 88
3, 93308, Note_off_c, 1, 69, 64
3, 93312, Note_on_c, 1, 57, 87
3, 93436, Note_off_c, 1, 57, 64
3, 93440, Note_on_c, 1, 64, 87
3, 93564, Note_off_c, 1, 64, 64
3, 93568, Note_on_c, 1, 69, 86
3, 93692, Note_off_c, 1, 69, 64
3, 93696, Note_on_c, 1, 62, 85
3, 93696, Note_on_c, 1, 69, 85
3, 94076, Note_off_c, 1, 62, 64
3, 94076, Note_off_c, 1, 69, 64
3, 95232, Note_on_c, 1, 58, 84
3, 95612, Note_off_c, 1, 58, 64
3, 96000, Note_on_c, 1, 58, 84
3, 96380, Note_off_c, 1, 58, 64
3, 96768, Note_on_c, 1, 60, 84
3, 97148, Note_off_c, 1, 60, 64
3, 97536, Note_on_c, 1, 60, 84
3, 97916, Note_off_c, 1, 60, 64
3, 98304, Note_on_c, 1, 53, 84
3, 98684, Note_off_c, 1, 53, 64
3, 99072, Note_on_c, 1, 53, 84
3, 99452, Note_off_c, 1, 53, 64
3, 99840, Note_on_c, 1, 58, 84
3, 100220, Note_off_c, 1, 58, 64
3, 100608, Note_on_c, 1, 58, 84
3, 100988, Note_off_c, 1, 58, 64
3, 101376, Note_on_c, 1, 57, 84
3, 101376, Note_on_c, 1, 45, 84
3, 101756, Note_off_c, 1, 57, 64
3, 101756, Note_off_c, 1, 45, 64
3, 102912, Note_on_c, 1, 58, 84
3, 102912, Note_on_c, 1, 46, 84
3, 103292, Note_off_c, 1, 58, 64
3, 103292, Note_off_c, 1, 46, 64
3, 104448, Note_on_c, 1, 55, 84
3, 104448, Note_on_c, 1, 43, 84
3, 104828, Note_off_c, 1, 55, 64
3, 104828, Note_off_c, 1, 43, 64
3, 105984, Note_on_c, 1, 56, 84
3, 105984, Note_on_c, 1, 44, 84
3, 106364, Note_off_c, 1, 56, 64
3, 106364, Note_off_c, 1, 44, 64
3, 107520, Note_on_c, 1, 49, 84
3, 108288, Note_on_c, 1, 59, 84
3, 109052, Note_off_c, 1, 49, 64
3, 109052, Note_off_c, 1, 59, 64
3, 109056, Note_on_c, 1, 60, 82
3, 109056, Note_on_c, 1, 48, 82
3, 109436, Note_off_c, 1, 60, 64
3, 109436, Note_off_c, 1, 48, 64
3, 112128, Note_on_c, 1, 56, 65
3, 112256, Note_on_c, 1, 60, 65
3, 112256, Note_on_c, 1, 63, 65
3, 112380, Note_off_c, 1, 60, 64
3, 112380, Note_off_c, 1, 63, 64
3, 112384, Note_on_c, 1, 60, 65
3, 112384, Note_on_c, 1, 63, 65
3, 112508, Note_off_c, 1, 60, 64
3, 112508, Note_off_c, 1, 63, 64
3, 112512, Note_on_c, 1, 60, 65
3, 112512, Note_on_c, 1, 63, 65
3, 112636, Note_off_c, 1, 60, 64
3, 112636, Note_off_c, 1, 63, 64
3, 112640, Note_on_c, 1, 60, 65
3, 112640, Note_on_c, 1, 63, 65
3, 112764, Note_off_c, 1, 60, 64
3, 112764, Note_off_c, 1, 63, 64
3, 112768, Note_on_c, 1, 60, 65
3, 112768, Note_on_c, 1, 63, 65
3, 112892, Note_off_c, 1, 56, 64
3, 112892, Note_off_c, 1, 60, 64
3, 112892, Note_off_c, 1, 63, 64
3, 112896, Note_on_c, 1, 56, 65
3, 113024, Note_on_c, 1, 60, 65
3, 113024, Note_on_c, 1, 63, 65
3, 113148, Note_off_c, 1, 60, 64
3, 113148, Note_off_c, 1, 63, 64
3, 113152, Note_on_c, 1, 60, 65
3, 113152, Note_on_c, 1, 63, 65
3, 113276, Note_off_c, 1, 60, 64
3, 113276, Note_off_c, 1, 63, 64
3, 113280, Note_on_c, 1, 60, 65
3, 113280, Note_on_c, 1, 63, 65
3, 113404, Note_off_c, 1, 60, 64
3, 113404, Note_off_c, 1, 63, 64
3, 113408, Note_on_c, 1, 60, 65
3, 113408, Note_on_c, 1, 63, 65
3, 113532, Note_off_c, 1, 60, 64
3, 113532, Note_off_c, 1, 63, 64
3, 113536, Note_on_c, 1, 60, 65
3, 113536, Note_on_c, 1, 63, 65
3, 113660, Note_off_c, 1, 56, 64
3, 113660, Note_off_c, 1, 60, 64
3, 113660, Note_off_c, 1, 63, 64
3, 113664, Note_on_c, 1, 56, 65
3, 113792, Note_on_c, 1, 63, 65
3, 113792, Note_on_c, 1, 60, 65
3, 113916, Note_off_c, 1, 63, 64
3, 113916, Note_off_c, 1, 60, 64
3, 113920, Note_on_c, 1, 63, 65
3, 113920, Note_on_c, 1, 60, 65
3, 114044, Note_off_c, 1, 63, 64
3, 114044, Note_off_c, 1, 60, 64
3, 114048, Note_on_c, 1, 63, 65
3, 114048, Note_on_c, 1, 60, 65
3, 114172, Note_off_c, 1, 63, 64
3, 114172, Note_off_c, 1, 60, 64
3, 114176, Note_on_c, 1, 63, 65
3, 114176, Note_on_c, 1, 60, 65
3, 114300, Note_off_c, 1, 63, 64
3, 114300, Note_off_c, 1, 60, 64
3, 114304, Note_on_c, 1, 63, 65
3, 114304, Note_on_c, 1, 60, 65
3, 114428, Note_off_c, 1, 56, 64
3, 114428, Note_off_c, 1, 63, 64
3, 114428, Note_off_c, 1, 60, 64
3, 114432, Note_on_c, 1, 56, 65
3, 114560, Note_on_c, 1, 63, 65
3, 114560, Note_on_c, 1, 60, 65
3, 114684, Note_off_c, 1, 63, 64
3, 114684, Note_off_c, 1, 60, 64
3, 114688, Note_on_c, 1, 63, 65
3, 114688, Note_on_c, 1, 60, 65
3, 114812, Note_off_c, 1, 63, 64
3, 114812, Note_off_c, 1, 60, 64
3, 114816, Note_on_c, 1, 63, 65
3, 114816, Note_on_c, 1, 60, 65
3, 114940, Note_off_c, 1, 63, 64
3, 114940, Note_off_c, 1, 60, 64
3, 114944, Note_on_c, 1, 63, 65
3, 114944, Note_on_c, 1, 60, 65
3, 115068, Note_off_c, 1, 63, 64
3, 115068, Note_off_c, 1, 60, 64
3, 115072, Note_on_c, 1, 63, 65
3, 115072, Note_on_c, 1, 60, 65
3, 115196, Note_off_c, 1, 56, 64
3, 115196, Note_off_c, 1, 63, 64
3, 115196, Note_off_c, 1, 60, 64
3, 115200, Note_on_c, 1, 55, 65
3, 115328, Note_on_c, 1, 58, 65
3, 115328, Note_on_c, 1, 61, 65
3, 115328, Note_on_c, 1, 63, 65
3, 115452, Note_off_c, 1, 58, 64
3, 115452, Note_off_c, 1, 61, 64
3, 115452, Note_off_c, 1, 63, 64
3, 115456, Note_on_c, 1, 58, 65
3, 115456, Note_on_c, 1, 61, 65
3, 115456, Note_on_c, 1, 63, 65
3, 115580, Note_off_c, 1, 58, 64
3, 115580, Note_off_c, 1, 61, 64
3, 115580, Note_off_c, 1, 63, 64
3, 115584, Note_on_c, 1, 58, 65
3, 115584, Note_on_c, 1, 61, 65
3, 115584, Note_on_c, 1, 63, 65
3, 115708, Note_off_c, 1, 58, 64
3, 115708, Note_off_c, 1, 61, 64
3, 115708, Note_off_c, 1, 63, 64
3, 115712, Note_on_c, 1, 58, 65
3, 115712, Note_on_c, 1, 61, 65
3, 115712, Note_on_c, 1, 63, 65
3, 115836, Note_off_c, 1, 58, 64
3, 115836, Note_off_c, 1, 61, 64
3, 115836, Note_off_c, 1, 63, 64
3, 115840, Note_on_c, 1, 58, 65
3, 115840, Note_on_c, 1, 61, 65
3, 115840, Note_on_c, 1, 63, 65
3, 115964, Note_off_c, 1, 55, 64
3, 115964, Note_off_c, 1, 58, 64
3, 115964, Note_off_c, 1, 61, 64
3, 115964, Note_off_c, 1, 63, 64
3, 115968, Note_on_c, 1, 55, 65
3, 116096, Note_on_c, 1, 58, 65
3, 116096, Note_on_c, 1, 61, 65
3, 116096, Note_on_c, 1, 63, 65
3, 116220, Note_off_c, 1, 58, 64
3, 116220, Note_off_c, 1, 61, 64
3, 116220, Note_off_c, 1, 63, 64
3, 116224, Note_on_c, 1, 58, 65
3, 116224, Note_on_c, 1, 61, 65
3, 116224, Note_on_c, 1, 63, 65
3, 116348, Note_off_c, 1, 58, 64
3, 116348, Note_off_c, 1, 61, 64
3, 116348, Note_off_c, 1, 63, 64
3, 116352, Note_on_c, 1, 58, 65
3, 116352, Note_on_c, 1, 61, 65
3, 116352, Note_on_c, 1, 63, 65
3, 116476, Note_off_c, 1, 58, 64
3, 116476, Note_off_c, 1, 61, 64
3, 116476, Note_off_c, 1, 63, 64
3, 116480, Note_on_c, 1, 58, 65
3, 116480, Note_on_c, 1, 61, 65
3, 116480, Note_on_c, 1, 63, 65
3, 116604, Note_off_c, 1, 58, 64
3, 116604, Note_off_c, 1, 61, 64
3, 116604, Note_off_c, 1, 63, 64
3, 116608, Note_on_c, 1, 58, 65
3, 116608, Note_on_c, 1, 61, 65
3, 116608, Note_on_c, 1, 63, 65
3, 116732, Note_off_c, 1, 55, 64
3, 116732, Note_off_c, 1, 58, 64
3, 116732, Note_off_c, 1, 61, 64
3, 116732, Note_off_c, 1, 63, 64
3, 116736, Note_on_c, 1, 51, 65
3, 116864, Note_on_c, 1, 55, 65
3, 116864, Note_on_c, 1, 58, 65
3, 116864, Note_on_c, 1, 61, 65
3, 116988, Note_off_c, 1, 55, 64
3, 116988, Note_off_c, 1, 58, 64
3, 116988, Note_off_c, 1, 61, 64
3, 116992, Note_on_c, 1, 55, 65
3, 116992, Note_on_c, 1, 58, 65
3, 116992, Note_on_c, 1, 61, 65
3, 117116, Note_off_c, 1, 55, 64
3, 117116, Note_off_c, 1, 58, 64
3, 117116, Note_off_c, 1, 61, 64
3, 117120, Note_on_c, 1, 55, 65
3, 117120, Note_on_c, 1, 58, 65
3, 117120, Note_on_c, 1, 61, 65
3, 117244, Note_off_c, 1, 55, 64
3, 117244, Note_off_c, 1, 58, 64
3, 117244, Note_off_c, 1, 61, 64
3, 117248, Note_on_c, 1, 55, 65
3, 117248, Note_on_c, 1, 58, 65
3, 117248, Note_on_c, 1, 61, 65
3, 117372, Note_off_c, 1, 55, 64
3, 117372, Note_off_c, 1, 58, 64
3, 117372, Note_off_c, 1, 61, 64
3, 117376, Note_on_c, 1, 55, 65
3, 117376, Note_on_c, 1, 58, 65
3, 117376, Note_on_c, 1, 61, 65
3, 117500, Note_off_c, 1, 51, 64
3, 117500, Note_off_c, 1, 55, 64
3, 117500, Note_off_c, 1, 58, 64
3, 117500, Note_off_c, 1, 61, 64
3, 117504, Note_on_c, 1, 51, 65
3, 117632, Note_on_c, 1, 55, 65
3, 117632, Note_on_c, 1, 58, 65
3, 117632, Note_on_c, 1, 61, 65
3, 117756, Note_off_c, 1, 55, 64
3, 117756, Note_off_c, 1, 58, 64
3, 117756, Note_off_c, 1, 61, 64
3, 117760, Note_on_c, 1, 55, 65
3, 117760, Note_on_c, 1, 58, 65
3, 117760, Note_on_c, 1, 61, 65
3, 117884, Note_off_c, 1, 55, 64
3, 117884, Note_off_c, 1, 58, 64
3, 117884, Note_off_c, 1, 61, 64
3, 117888, Note_on_c, 1, 55, 65
3, 117888, Note_on_c, 1, 58, 65
3, 117888, Note_on_c, 1, 61, 65
3, 118012, Note_off_c, 1, 55, 64
3, 118012, Note_off_c, 1, 58, 64
3, 118012, Note_off_c, 1, 61, 64
3, 118016, Note_on_c, 1, 55, 65
3, 118016, Note_on_c, 1, 58, 65
3, 118016, Note_on_c, 1, 61, 65
3, 118140, Note_off_c, 1, 55, 64
3, 118140, Note_off_c, 1, 58, 64
3, 118140, Note_off_c, 1, 61, 64
3, 118144, Note_on_c, 1, 55, 65
3, 118144, Note_on_c, 1, 58, 65
3, 118144, Note_on_c, 1, 61, 65
3, 118268, Note_off_c, 1, 51, 64
3, 118268, Note_off_c, 1, 55, 64
3, 118268, Note_off_c, 1, 58, 64
3, 118268, Note_off_c, 1, 61, 64
3, 118272, Note_on_c, 1, 51, 65
3, 118400, Note_on_c, 1, 55, 65
3, 118400, Note_on_c, 1, 58, 65
3, 118400, Note_on_c, 1, 61, 65
3, 118524, Note_off_c, 1, 55, 64
3, 118524, Note_off_c, 1, 58, 64
3, 118524, Note_off_c, 1, 61, 64
3, 118528, Note_on_c, 1, 55, 65
3, 118528, Note_on_c, 1, 58, 65
3, 118528, Note_on_c, 1, 61, 65
3, 118652, Note_off_c, 1, 55, 64
3, 118652, Note_off_c, 1, 58, 64
3, 118652, Note_off_c, 1, 61, 64
3, 118656, Note_on_c, 1, 55, 65
3, 118656, Note_on_c, 1, 58, 65
3, 118656, Note_on_c, 1, 61, 65
3, 118780, Note_off_c, 1, 55, 64
3, 118780, Note_off_c, 1, 58, 64
3, 118780, Note_off_c, 1, 61, 64
3, 118784, Note_on_c, 1, 55, 65
3, 118784, Note_on_c, 1, 58, 65
3, 118784, Note_on_c, 1, 61, 65
3, 118908, Note_off_c, 1, 55, 64
3, 118908, Note_off_c, 1, 58, 64
3, 118908, Note_off_c, 1, 61, 64
3, 118912, Note_on_c, 1, 55, 65
3, 118912, Note_on_c, 1, 58, 65
3, 118912, Note_on_c, 1, 61, 65
3, 119036, Note_off_c, 1, 51, 64
3, 119036, Note_off_c, 1, 55, 64
3, 119036, Note_off_c, 1, 58, 64
3, 119036, Note_off_c, 1, 61, 64
3, 119040, Note_on_c, 1, 51, 65
3, 119168, Note_on_c, 1, 55, 65
3, 119168, Note_on_c, 1, 58, 65
3, 119168, Note_on_c, 1, 61, 65
3, 119292, Note_off_c, 1, 55, 64
3, 119292, Note_off_c, 1, 58, 64
3, 119292, Note_off_c, 1, 61, 64
3, 119296, Note_on_c, 1, 55, 65
3, 119296, Note_on_c, 1, 58, 65
3, 119296, Note_on_c, 1, 61, 65
3, 119420, Note_off_c, 1, 55, 64
3, 119420, Note_off_c, 1, 58, 64
3, 119420, Note_off_c, 1, 61, 64
3, 119424, Note_on_c, 1, 55, 65
3, 119424, Note_on_c, 1, 58, 65
3, 119424, Note_on_c, 1, 61, 65
3, 119548, Note_off_c, 1, 55, 64
3, 119548, Note_off_c, 1, 58, 64
3, 119548, Note_off_c, 1, 61, 64
3, 119552, Note_on_c, 1, 55, 65
3, 119552, Note_on_c, 1, 58, 65
3, 119552, Note_on_c, 1, 61, 65
3, 119676, Note_off_c, 1, 55, 64
3, 119676, Note_off_c, 1, 58, 64
3, 119676, Note_off_c, 1, 61, 64
3, 119680, Note_on_c, 1, 55, 65
3, 119680, Note_on_c, 1, 58, 65
3, 119680, Note_on_c, 1, 61, 65
3, 119804, Note_off_c, 1, 51, 64
3, 119804, Note_off_c, 1, 55, 64
3, 119804, Note_off_c, 1, 58, 64
3, 119804, Note_off_c, 1, 61, 64
3, 119808, Note_on_c, 1, 56, 65
3, 119936, Note_on_c, 1, 60, 65
3, 119936, Note_on_c, 1, 63, 65
3, 120060, Note_off_c, 1, 60, 64
3, 120060, Note_off_c, 1, 63, 64
3, 120064, Note_on_c, 1, 60, 65
3, 120064, Note_on_c, 1, 63, 65
3, 120188, Note_off_c, 1, 60, 64
3, 120188, Note_off_c, 1, 63, 64
3, 120192, Note_on_c, 1, 60, 65
3, 120192, Note_on_c, 1, 63, 65
3, 120316, Note_off_c, 1, 60, 64
3, 120316, Note_off_c, 1, 63, 64
3, 120320, Note_on_c, 1, 60, 65
3, 120320, Note_on_c, 1, 63, 65
3, 120444, Note_off_c, 1, 60, 64
3, 120444, Note_off_c, 1, 63, 64
3, 120448, Note_on_c, 1, 60, 65
3, 120448, Note_on_c, 1, 63, 65
3, 120572, Note_off_c, 1, 56, 64
3, 120572, Note_off_c, 1, 60, 64
3, 120572, Note_off_c, 1, 63, 64
3, 120576, Note_on_c, 1, 56, 65
3, 120704, Note_on_c, 1, 60, 65
3, 120704, Note_on_c, 1, 63, 65
3, 120828, Note_off_c, 1, 60, 64
3, 120828, Note_off_c, 1, 63, 64
3, 120832, Note_on_c, 1, 60, 66
3, 120832, Note_on_c, 1, 63, 66
3, 120956, Note_off_c, 1, 56, 64
3, 120956, Note_off_c, 1, 60, 64
3, 120956, Note_off_c, 1, 63, 64
3, 120960, Note_on_c, 1, 54, 67
3, 121088, Note_on_c, 1, 60, 67
3, 121088, Note_on_c, 1, 63, 67
3, 121212, Note_off_c, 1, 60, 64
3, 121212, Note_off_c, 1, 63, 64
3, 121216, Note_on_c, 1, 60, 68
3, 121216, Note_on_c, 1, 63, 68
3, 121340, Note_off_c, 1, 54, 64
3, 121340, Note_off_c, 1, 60, 64
3, 121340, Note_off_c, 1, 63, 64
3, 121344, Note_on_c, 1, 53, 69
3, 121472, Note_on_c, 1, 57, 69
3, 121472, Note_on_c, 1, 60, 69
3, 121472, Note_on_c, 1, 63, 69
3, 121596, Note_off_c, 1, 57, 64
3, 121596, Note_off_c, 1, 60, 64
3, 121596, Note_off_c, 1, 63, 64
3, 121600, Note_on_c, 1, 57, 70
3, 121600, Note_on_c, 1, 60, 70
3, 121600, Note_on_c, 1, 63, 70
3, 121724, Note_off_c, 1, 57, 64
3, 121724, Note_off_c, 1, 60, 64
3, 121724, Note_off_c, 1, 63, 64
3, 121728, Note_on_c, 1, 57, 71
3, 121728, Note_on_c, 1, 60, 71
3, 121728, Note_on_c, 1, 63, 71
3, 121852, Note_off_c, 1, 57, 64
3, 121852, Note_off_c, 1, 60, 64
3, 121852, Note_off_c, 1, 63, 64
3, 121856, Note_on_c, 1, 57, 71
3, 121856, Note_on_c, 1, 60, 71
3, 121856, Note_on_c, 1, 63, 71
3, 121980, Note_off_c, 1, 57, 64
3, 121980, Note_off_c, 1, 60, 64
3, 121980, Note_off_c, 1, 63, 64
3, 121984, Note_on_c, 1, 57, 72
3, 121984, Note_on_c, 1, 60, 72
3, 121984, Note_on_c, 1, 63, 72
3, 122108, Note_off_c, 1, 53, 64
3, 122108, Note_off_c, 1, 57, 64
3, 122108, Note_off_c, 1, 60, 64
3, 122108, Note_off_c, 1, 63, 64
3, 122112, Note_on_c, 1, 53, 73
3, 122240, Note_on_c, 1, 57, 73
3, 122240, Note_on_c, 1, 60, 73
3, 122240, Note_on_c, 1, 63, 73
3, 122364, Note_off_c, 1, 57, 64
3, 122364, Note_off_c, 1, 60, 64
3, 122364, Note_off_c, 1, 63, 64
3, 122368, Note_on_c, 1, 57, 74
3, 122368, Note_on_c, 1, 60, 74
3, 122368, Note_on_c, 1, 63, 74
3, 122492, Note_off_c, 1, 57, 64
3, 122492, Note_off_c, 1, 60, 64
3, 122492, Note_off_c, 1, 63, 64
3, 122496, Note_on_c, 1, 57, 75
3, 122496, Note_on_c, 1, 60, 75
3, 122496, Note_on_c, 1, 63, 75
3, 122620, Note_off_c, 1, 57, 64
3, 122620, Note_off_c, 1, 60, 64
3, 122620, Note_off_c, 1, 63, 64
3, 122624, Note_on_c, 1, 57, 75
3, 122624, Note_on_c, 1, 60, 75
3, 122624, Note_on_c, 1, 63, 75
3, 122748, Note_off_c, 1, 57, 64
3, 122748, Note_off_c, 1, 60, 64
3, 122748, Note_off_c, 1, 63, 64
3, 122752, Note_on_c, 1, 57, 76
3, 122752, Note_on_c, 1, 60, 76
3, 122752, Note_on_c, 1, 63, 76
3, 122876, Note_off_c, 1, 53, 64
3, 122876, Note_off_c, 1, 57, 64
3, 122876, Note_off_c, 1, 60, 64
3, 122876, Note_off_c, 1, 63, 64
3, 122880, Note_on_c, 1, 58, 77
3, 123008, Note_on_c, 1, 61, 77
3, 123008, Note_on_c, 1, 65, 77
3, 123132, Note_off_c, 1, 61, 64
3, 123132, Note_off_c, 1, 65, 64
3, 123136, Note_on_c, 1, 61, 78
3, 123136, Note_on_c, 1, 65, 78
3, 123260, Note_off_c, 1, 61, 64
3, 123260, Note_off_c, 1, 65, 64
3, 123264, Note_on_c, 1, 61, 79
3, 123264, Note_on_c, 1, 65, 79
3, 123388, Note_off_c, 1, 61, 64
3, 123388, Note_off_c, 1, 65, 64
3, 123392, Note_on_c, 1, 61, 79
3, 123392, Note_on_c, 1, 65, 79
3, 123516, Note_off_c, 1, 61, 64
3, 123516, Note_off_c, 1, 65, 64
3, 123520, Note_on_c, 1, 61, 81
3, 123520, Note_on_c, 1, 65, 81
3, 123644, Note_off_c, 1, 58, 64
3, 123644, Note_off_c, 1, 61, 64
3, 123644, Note_off_c, 1, 65, 64
3, 123648, Note_on_c, 1, 58, 81
3, 123776, Note_on_c, 1, 61, 81
3, 123776, Note_on_c, 1, 65, 81
3, 123840, Note_on_c, 1, 60, 81
3, 123900, Note_off_c, 1, 61, 64
3, 123900, Note_off_c, 1, 65, 64
3, 123904, Note_on_c, 1, 65, 81
3, 123964, Note_off_c, 1, 60, 64
3, 124028, Note_off_c, 1, 58, 64
3, 124028, Note_off_c, 1, 65, 64
3, 124032, Note_on_c, 1, 56, 81
3, 124160, Note_on_c, 1, 60, 81
3, 124160, Note_on_c, 1, 65, 81
3, 124284, Note_off_c, 1, 60, 64
3, 124284, Note_off_c, 1, 65, 64
3, 124288, Note_on_c, 1, 60, 81
3, 124288, Note_on_c, 1, 65, 81
3, 124412, Note_off_c, 1, 56, 64
3, 124412, Note_off_c, 1, 60, 64
3, 124412, Note_off_c, 1, 65, 64
3, 124416, Note_on_c, 1, 55, 81
3, 124544, Note_on_c, 1, 59, 81
3, 124544, Note_on_c, 1, 62, 81
3, 124544, Note_on_c, 1, 65, 81
3, 124668, Note_off_c, 1, 59, 64
3, 124668, Note_off_c, 1, 62, 64
3, 124668, Note_off_c, 1, 65, 64
3, 124672, Note_on_c, 1, 59, 81
3, 124672, Note_on_c, 1, 62, 81
3, 124672, Note_on_c, 1, 65, 81
3, 124796, Note_off_c, 1, 59, 64
3, 124796, Note_off_c, 1, 62, 64
3, 124796, Note_off_c, 1, 65, 64
3, 124800, Note_on_c, 1, 59, 81
3, 124800, Note_on_c, 1, 62, 81
3, 124800, Note_on_c, 1, 65, 81
3, 124924, Note_off_c, 1, 59, 64
3, 124924, Note_off_c, 1, 62, 64
3, 124924, Note_off_c, 1, 65, 64
3, 124928, Note_on_c, 1, 59, 81
3, 124928, Note_on_c, 1, 62, 81
3, 124928, Note_on_c, 1, 65, 81
3, 125052, Note_off_c, 1, 59, 64
3, 125052, Note_off_c, 1, 62, 64
3, 125052, Note_off_c, 1, 65, 64
3, 125056, Note_on_c, 1, 59, 81
3, 125056, Note_on_c, 1, 62, 81
3, 125056, Note_on_c, 1, 65, 81
3, 125180, Note_off_c, 1, 55, 64
3, 125180, Note_off_c, 1, 59, 64
3, 125180, Note_off_c, 1, 62, 64
3, 125180, Note_off_c, 1, 65, 64
3, 125184, Note_on_c, 1, 55, 81
3, 125312, Note_on_c, 1, 59, 81
3, 125312, Note_on_c, 1, 62, 81
3, 125312, Note_on_c, 1, 65, 81
3, 125436, Note_off_c, 1, 59, 64
3, 125436, Note_off_c, 1, 62, 64
3, 125436, Note_off_c, 1, 65, 64
3, 125440, Note_on_c, 1, 59, 81
3, 125440, Note_on_c, 1, 62, 81
3, 125440, Note_on_c, 1, 65, 81
3, 125564, Note_off_c, 1, 59, 64
3, 125564, Note_off_c, 1, 62, 64
3, 125564, Note_off_c, 1, 65, 64
3, 125568, Note_on_c, 1, 59, 81
3, 125568, Note_on_c, 1, 62, 81
3, 125568, Note_on_c, 1, 65, 81
3, 125692, Note_off_c, 1, 59, 64
3, 125692, Note_off_c, 1, 62, 64
3, 125692, Note_off_c, 1, 65, 64
3, 125696, Note_on_c, 1, 59, 81
3, 125696, Note_on_c, 1, 62, 81
3, 125696, Note_on_c, 1, 65, 81
3, 125820, Note_off_c, 1, 59, 64
3, 125820, Note_off_c, 1, 62, 64
3, 125820, Note_off_c, 1, 65, 64
3, 125824, Note_on_c, 1, 59, 81
3, 125824, Note_on_c, 1, 62, 81
3, 125824, Note_on_c, 1, 65, 81
3, 125948, Note_off_c, 1, 55, 64
3, 125948, Note_off_c, 1, 59, 64
3, 125948, Note_off_c, 1, 62, 64
3, 125948, Note_off_c, 1, 65, 64
3, 125952, Note_on_c, 1, 64, 81
3, 125952, Note_on_c, 1, 60, 81
3, 126332, Note_off_c, 1, 64, 64
3, 126332, Note_off_c, 1, 60, 64
3, 127488, Note_on_c, 1, 60, 94
3, 127488, Note_on_c, 1, 48, 94
3, 127868, Note_off_c, 1, 60, 64
3, 127868, Note_off_c, 1, 48, 64
3, 129024, Note_on_c, 1, 60, 94
3, 129024, Note_on_c, 1, 48, 94
3, 129404, Note_off_c, 1, 60, 64
3, 129404, Note_off_c, 1, 48, 64
3, 130560, Note_on_c, 1, 60, 94
3, 130560, Note_on_c, 1, 48, 94
3, 130940, Note_off_c, 1, 60, 64
3, 130940, Note_off_c, 1, 48, 64
3, 132096, Note_on_c, 1, 60, 88
3, 132096, Note_on_c, 1, 48, 88
3, 132476, Note_off_c, 1, 60, 64
3, 132476, Note_off_c, 1, 48, 64
3, 133632, Note_on_c, 1, 60, 77
3, 133632, Note_on_c, 1, 48, 77
3, 134012, Note_off_c, 1, 60, 64
3, 134012, Note_off_c, 1, 48, 64
3, 134784, Note_on_c, 1, 46, 70
3, 135164, Note_off_c, 1, 46, 64
3, 135168, Note_on_c, 1, 45, 70
3, 135292, Note_off_c, 1, 45, 64
3, 135296, Note_on_c, 1, 48, 70
3, 135420, Note_off_c, 1, 48, 64
3, 135424, Note_on_c, 1, 53, 70
3, 135548, Note_off_c, 1, 53, 64
3, 135552, Note_on_c, 1, 41, 70
3, 135676, Note_off_c, 1, 41, 64
3, 135680, Note_on_c, 1, 45, 70
3, 135804, Note_off_c, 1, 45, 64
3, 135808, Note_on_c, 1, 53, 70
3, 135932, Note_off_c, 1, 53, 64
3, 135936, Note_on_c, 1, 46, 70
3, 136060, Note_off_c, 1, 46, 64
3, 136064, Note_on_c, 1, 50, 70
3, 136188, Note_off_c, 1, 50, 64
3, 136192, Note_on_c, 1, 53, 70
3, 136316, Note_off_c, 1, 53, 64
3, 136320, Note_on_c, 1, 43, 70
3, 136444, Note_off_c, 1, 43, 64
3, 136448, Note_on_c, 1, 50, 70
3, 136572, Note_off_c, 1, 50, 64
3, 136576, Note_on_c, 1, 53, 70
3, 136700, Note_off_c, 1, 53, 64
3, 136704, Note_on_c, 1, 48, 70
3, 136828, Note_off_c, 1, 48, 64
3, 136832, Note_on_c, 1, 53, 70
3, 136956, Note_off_c, 1, 53, 64
3, 136960, Note_on_c, 1, 55, 70
3, 137084, Note_off_c, 1, 55, 64
3, 137088, Note_on_c, 1, 46, 70
3, 137212, Note_off_c, 1, 46, 64
3, 137216, Note_on_c, 1, 53, 70
3, 137340, Note_off_c, 1, 53, 64
3, 137344, Note_on_c, 1, 55, 70
3, 137468, Note_off_c, 1, 55, 64
3, 137472, Note_on_c, 1, 48, 70
3, 137596, Note_off_c, 1, 48, 64
3, 137600, Note_on_c, 1, 53, 70
3, 137724, Note_off_c, 1, 53, 64
3, 137728, Note_on_c, 1, 55, 70
3, 137852, Note_off_c, 1, 55, 64
3, 137856, Note_on_c, 1, 48, 70
3, 137980, Note_off_c, 1, 48, 64
3, 137984, Note_on_c, 1, 52, 70
3, 138108, Note_off_c, 1, 52, 64
3, 138112, Note_on_c, 1, 55, 70
3, 138236, Note_off_c, 1, 55, 64
3, 138240, Note_on_c, 1, 49, 70
3, 138364, Note_off_c, 1, 49, 64
3, 138368, Note_on_c, 1, 52, 70
3, 138492, Note_off_c, 1, 52, 64
3, 138496, Note_on_c, 1, 55, 70
3, 138620, Note_off_c, 1, 55, 64
3, 138624, Note_on_c, 1, 50, 70
3, 138748, Note_off_c, 1, 50, 64
3, 138752, Note_on_c, 1, 53, 70
3, 138876, Note_off_c, 1, 53, 64
3, 138880, Note_on_c, 1, 57, 70
3, 139004, Note_off_c, 1, 57, 64
3, 139008, Note_on_c, 1, 48, 70
3, 139132, Note_off_c, 1, 48, 64
3, 139136, Note_on_c, 1, 53, 70
3, 139260, Note_off_c, 1, 53, 64
3, 139264, Note_on_c, 1, 57, 70
3, 139388, Note_off_c, 1, 57, 64
3, 139392, Note_on_c, 1, 46, 70
3, 139516, Note_off_c, 1, 46, 64
3, 139520, Note_on_c, 1, 52, 70
3, 139644, Note_off_c, 1, 52, 64
3, 139648, Note_on_c, 1, 55, 70
3, 139772, Note_off_c, 1, 55, 64
3, 139776, Note_on_c, 1, 45, 70
3, 139900, Note_off_c, 1, 45, 64
3, 139904, Note_on_c, 1, 48, 70
3, 140028, Note_off_c, 1, 48, 64
3, 140032, Note_on_c, 1, 53, 70
3, 140156, Note_off_c, 1, 53, 64
3, 140160, Note_on_c, 1, 41, 70
3, 140284, Note_off_c, 1, 41, 64
3, 140288, Note_on_c, 1, 45, 70
3, 140412, Note_off_c, 1, 45, 64
3, 140416, Note_on_c, 1, 53, 70
3, 140540, Note_off_c, 1, 53, 64
3, 140544, Note_on_c, 1, 46, 70
3, 140668, Note_off_c, 1, 46, 64
3, 140672, Note_on_c, 1, 50, 70
3, 140796, Note_off_c, 1, 50, 64
3, 140800, Note_on_c, 1, 53, 70
3, 140924, Note_off_c, 1, 53, 64
3, 140928, Note_on_c, 1, 43, 70
3, 141052, Note_off_c, 1, 43, 64
3, 141056, Note_on_c, 1, 50, 70
3, 141180, Note_off_c, 1, 50, 64
3, 141184, Note_on_c, 1, 53, 70
3, 141308, Note_off_c, 1, 53, 64
3, 141312, Note_on_c, 1, 48, 70
3, 141436, Note_off_c, 1, 48, 64
3, 141440, Note_on_c, 1, 53, 70
3, 141564, Note_off_c, 1, 53, 64
3, 141568, Note_on_c, 1, 55, 70
3, 141692, Note_off_c, 1, 55, 64
3, 141696, Note_on_c, 1, 46, 70
3, 141820, Note_off_c, 1, 46, 64
3, 141824, Note_on_c, 1, 53, 70
3, 141948, Note_off_c, 1, 53, 64
3, 141952, Note_on_c, 1, 55, 70
3, 142076, Note_off_c, 1, 55, 64
3, 142080, Note_on_c, 1, 48, 70
3, 142204, Note_off_c, 1, 48, 64
3, 142208, Note_on_c, 1, 53, 70
3, 142332, Note_off_c, 1, 53, 64
3, 142336, Note_on_c, 1, 55, 70
3, 142460, Note_off_c, 1, 55, 64
3, 142464, Note_on_c, 1, 48, 70
3, 142588, Note_off_c, 1, 48, 64
3, 142592, Note_on_c, 1, 52, 70
3, 142716, Note_off_c, 1, 52, 64
3, 142720, Note_on_c, 1, 58, 70
3, 142844, Note_off_c, 1, 58, 64
3, 142848, Note_on_c, 1, 57, 70
3, 142848, Note_on_c, 1, 53, 70
3, 143228, Note_off_c, 1, 57, 64
3, 143228, Note_off_c, 1, 53, 64
3, 145152, Note_on_c, 1, 45, 84
3, 145724, Note_off_c, 1, 45, 64
3, 145728, Note_on_c, 1, 45, 84
3, 145916, Note_off_c, 1, 45, 64
3, 145920, Note_on_c, 1, 48, 84
3, 146108, Note_off_c, 1, 48, 64
3, 146112, Note_on_c, 1, 46, 84
3, 146300, Note_off_c, 1, 46, 64
3, 146304, Note_on_c, 1, 46, 84
3, 146684, Note_off_c, 1, 46, 64
3, 148224, Note_on_c, 1, 47, 94
3, 148796, Note_off_c, 1, 47, 64
3, 148800, Note_on_c, 1, 47, 94
3, 148988, Note_off_c, 1, 47, 64
3, 148992, Note_on_c, 1, 48, 94
3, 149372, Note_off_c, 1, 48, 64
3, 153600, Note_on_c, 1, 52, 68
3, 153980, Note_off_c, 1, 52, 64
3, 153984, Note_on_c, 1, 52, 68
3, 154364, Note_off_c, 1, 52, 64
3, 154368, Note_on_c, 1, 52, 68
3, 154748, Note_off_c, 1, 52, 64
3, 154752, Note_on_c, 1, 52, 68
3, 155132, Note_off_c, 1, 52, 64
3, 155136, Note_on_c, 1, 52, 68
3, 155516, Note_off_c, 1, 52, 64
3, 155520, Note_on_c, 1, 57, 68
3, 155900, Note_off_c, 1, 57, 64
3, 156288, Note_on_c, 1, 48, 68
3, 156572, Note_off_c, 1, 48, 64
3, 156576, Note_on_c, 1, 45, 68
3, 156668, Note_off_c, 1, 45, 64
3, 156672, Note_on_c, 1, 52, 68
3, 157052, Note_off_c, 1, 52, 64
3, 157056, Note_on_c, 1, 52, 68
3, 157436, Note_off_c, 1, 52, 64
3, 157440, Note_on_c, 1, 52, 68
3, 158012, Note_off_c, 1, 52, 64
3, 158016, Note_on_c, 1, 50, 68
3, 158076, Note_off_c, 1, 50, 64
3, 158080, Note_on_c, 1, 48, 68
3, 158140, Note_off_c, 1, 48, 64
3, 158144, Note_on_c, 1, 46, 68
3, 158204, Note_off_c, 1, 46, 64
3, 158208, Note_on_c, 1, 45, 68
3, 158588, Note_off_c, 1, 45, 64
3, 158976, Note_on_c, 1, 45, 68
3, 158976, Note_on_c, 1, 48, 68
3, 159356, Note_off_c, 1, 45, 64
3, 159356, Note_off_c, 1, 48, 64
3, 159744, Note_on_c, 1, 45, 68
3, 159744, Note_on_c, 1, 48, 68
3, 160268, Note_off_c, 1, 45, 64
3, 160276, Note_off_c, 1, 48, 64
3, 160276, End_track
4, 0, Start_track
4, 0, Title_t, "Midi by:"
4, 0, Control_c, 2, 0, 0
4, 0, Program_c, 2, 48
4, 0, Control_c, 2, 10, 35
4, 0, Control_c, 2, 91, 70
4, 0, Control_c, 2, 93, 55
4, 0, Key_signature, -1, "minor"
4, 0, Control_c, 2, 121, 0
4, 144, Control_c, 2, 10, 53
4, 192, Control_c, 2, 91, 63
4, 288, Program_c, 2, 48
4, 1536, Note_on_c, 2, 60, 59
4, 1536, Note_on_c, 2, 57, 59
4, 1536, Note_on_c, 2, 53, 59
4, 1660, Note_off_c, 2, 60, 64
4, 1660, Note_off_c, 2, 57, 64
4, 1660, Note_off_c, 2, 53, 64
4, 1664, Note_on_c, 2, 60, 59
4, 1664, Note_on_c, 2, 57, 59
4, 1664, Note_on_c, 2, 53, 59
4, 1788, Note_off_c, 2, 60, 64
4, 1788, Note_off_c, 2, 57, 64
4, 1788, Note_off_c, 2, 53, 64
4, 1792, Note_on_c, 2, 60, 59
4, 1792, Note_on_c, 2, 57, 59
4, 1792, Note_on_c, 2, 53, 59
4, 1916, Note_off_c, 2, 60, 64
4, 1916, Note_off_c, 2, 57, 64
4, 1916, Note_off_c, 2, 53, 64
4, 1920, Note_on_c, 2, 60, 59
4, 1920, Note_on_c, 2, 57, 59
4, 1920, Note_on_c, 2, 53, 59
4, 2044, Note_off_c, 2, 60, 64
4, 2044, Note_off_c, 2, 57, 64
4, 2044, Note_off_c, 2, 53, 64
4, 2048, Note_on_c, 2, 60, 59
4, 2048, Note_on_c, 2, 57, 59
4, 2048, Note_on_c, 2, 53, 59
4, 2172, Note_off_c, 2, 60, 64
4, 2172, Note_off_c, 2, 57, 64
4, 2172, Note_off_c, 2, 53, 64
4, 2176, Note_on_c, 2, 60, 59
4, 2176, Note_on_c, 2, 57, 59
4, 2176, Note_on_c, 2, 53, 59
4, 2300, Note_off_c, 2, 60, 64
4, 2300, Note_off_c, 2, 57, 64
4, 2300, Note_off_c, 2, 53, 64
4, 2304, Note_on_c, 2, 60, 59
4, 2304, Note_on_c, 2, 57, 59
4, 2304, Note_on_c, 2, 53, 59
4, 2428, Note_off_c, 2, 60, 64
4, 2428, Note_off_c, 2, 57, 64
4, 2428, Note_off_c, 2, 53, 64
4, 2432, Note_on_c, 2, 60, 59
4, 2432, Note_on_c, 2, 57, 59
4, 2432, Note_on_c, 2, 53, 59
4, 2556, Note_off_c, 2, 60, 64
4, 2556, Note_off_c, 2, 57, 64
4, 2556, Note_off_c, 2, 53, 64
4, 2560, Note_on_c, 2, 60, 59
4, 2560, Note_on_c, 2, 57, 59
4, 2560, Note_on_c, 2, 53, 59
4, 2684, Note_off_c, 2, 60, 64
4, 2684, Note_off_c, 2, 57, 64
4, 2684, Note_off_c, 2, 53, 64
4, 2688, Note_on_c, 2, 60, 59
4, 2688, Note_on_c, 2, 57, 59
4, 2688, Note_on_c, 2, 53, 59
4, 2812, Note_off_c, 2, 60, 64
4, 2812, Note_off_c, 2, 57, 64
4, 2812, Note_off_c, 2, 53, 64
4, 2816, Note_on_c, 2, 60, 59
4, 2816, Note_on_c, 2, 57, 59
4, 2816, Note_on_c, 2, 53, 59
4, 2940, Note_off_c, 2, 60, 64
4, 2940, Note_off_c, 2, 57, 64
4, 2940, Note_off_c, 2, 53, 64
4, 2944, Note_on_c, 2, 60, 59
4, 2944, Note_on_c, 2, 57, 59
4, 2944, Note_on_c, 2, 53, 59
4, 3068, Note_off_c, 2, 60, 64
4, 3068, Note_off_c, 2, 57, 64
4, 3068, Note_off_c, 2, 53, 64
4, 3072, Note_on_c, 2, 77, 67
4, 3740, Note_off_c, 2, 77, 64
4, 3744, Note_on_c, 2, 72, 67
4, 3828, Note_off_c, 2, 72, 64
4, 3840, Note_on_c, 2, 81, 69
4, 4508, Note_off_c, 2, 81, 64
4, 4512, Note_on_c, 2, 77, 67
4, 4596, Note_off_c, 2, 77, 64
4, 4608, Note_on_c, 2, 84, 71
4, 5748, Note_off_c, 2, 84, 64
4, 5760, Note_on_c, 2, 82, 70
4, 5844, Note_off_c, 2, 82, 64
4, 5856, Note_on_c, 2, 81, 69
4, 5940, Note_off_c, 2, 81, 64
4, 5952, Note_on_c, 2, 79, 68
4, 6036, Note_off_c, 2, 79, 64
4, 6048, Note_on_c, 2, 77, 67
4, 6132, Note_off_c, 2, 77, 64
4, 6144, Note_on_c, 2, 78, 67
4, 6508, Note_off_c, 2, 78, 64
4, 6528, Note_on_c, 2, 79, 68
4, 6892, Note_off_c, 2, 79, 64
4, 7680, Note_on_c, 2, 72, 67
4, 8428, Note_off_c, 2, 72, 64
4, 8448, Note_on_c, 2, 76, 67
4, 8812, Note_off_c, 2, 76, 64
4, 8832, Note_on_c, 2, 79, 68
4, 9196, Note_off_c, 2, 79, 64
4, 9216, Note_on_c, 2, 82, 70
4, 10164, Note_off_c, 2, 82, 64
4, 10176, Note_on_c, 2, 86, 72
4, 10356, Note_off_c, 2, 86, 64
4, 10368, Note_on_c, 2, 84, 71
4, 10548, Note_off_c, 2, 84, 64
4, 10560, Note_on_c, 2, 82, 70
4, 10740, Note_off_c, 2, 82, 64
4, 10752, Note_on_c, 2, 80, 68
4, 10932, Note_off_c, 2, 80, 64
4, 10944, Note_on_c, 2, 81, 69
4, 11124, Note_off_c, 2, 81, 64
4, 11136, Note_on_c, 2, 81, 69
4, 11500, Note_off_c, 2, 81, 64
4, 12288, Note_on_c, 2, 75, 84
4, 12288, Note_on_c, 2, 84, 84
4, 12288, Note_on_c, 2, 77, 84
4, 13056, Note_on_c, 2, 57, 68
4, 13620, Note_off_c, 2, 57, 64
4, 13632, Note_on_c, 2, 57, 68
4, 13804, Note_off_c, 2, 75, 64
4, 13804, Note_off_c, 2, 84, 64
4, 13812, Note_off_c, 2, 57, 64
4, 13824, Note_on_c, 2, 84, 68
4, 13824, Note_on_c, 2, 74, 68
4, 13824, Note_on_c, 2, 60, 68
4, 14004, Note_off_c, 2, 60, 64
4, 14016, Note_on_c, 2, 58, 68
4, 14196, Note_off_c, 2, 58, 64
4, 14208, Note_on_c, 2, 58, 68
4, 14572, Note_off_c, 2, 58, 64
4, 15340, Note_off_c, 2, 77, 64
4, 15340, Note_off_c, 2, 84, 64
4, 15340, Note_off_c, 2, 74, 64
4, 15360, Note_on_c, 2, 86, 84
4, 15360, Note_on_c, 2, 80, 84
4, 15360, Note_on_c, 2, 77, 84
4, 15360, Note_on_c, 2, 86, 84
4, 16108, Note_off_c, 2, 86, 64
4, 16128, Note_on_c, 2, 59, 67
4, 16692, Note_off_c, 2, 59, 64
4, 16704, Note_on_c, 2, 59, 68
4, 16876, Note_off_c, 2, 80, 64
4, 16876, Note_off_c, 2, 77, 64
4, 16876, Note_off_c, 2, 86, 64
4, 16884, Note_off_c, 2, 59, 64
4, 16896, Note_on_c, 2, 84, 68
4, 16896, Note_on_c, 2, 80, 68
4, 16896, Note_on_c, 2, 77, 68
4, 16896, Note_on_c, 2, 60, 68
4, 18028, Note_off_c, 2, 84, 64
4, 18028, Note_off_c, 2, 80, 64
4, 18028, Note_off_c, 2, 77, 64
4, 18028, Note_off_c, 2, 60, 64
4, 18048, Note_on_c, 2, 84, 68
4, 18412, Note_off_c, 2, 84, 64
4, 18432, Note_on_c, 2, 85, 72
4, 18816, Note_on_c, 2, 79, 68
4, 18816, Note_on_c, 2, 73, 67
4, 18816, Note_on_c, 2, 70, 67
4, 19180, Note_off_c, 2, 85, 64
4, 19180, Note_off_c, 2, 79, 64
4, 19180, Note_off_c, 2, 73, 64
4, 19180, Note_off_c, 2, 70, 64
4, 19200, Note_on_c, 2, 85, 72
4, 19200, Note_on_c, 2, 76, 67
4, 19564, Note_off_c, 2, 85, 64
4, 19564, Note_off_c, 2, 76, 64
4, 19584, Note_on_c, 2, 79, 68
4, 19948, Note_off_c, 2, 79, 64
4, 19968, Note_on_c, 2, 84, 68
4, 20352, Note_on_c, 2, 80, 68
4, 20352, Note_on_c, 2, 72, 67
4, 20716, Note_off_c, 2, 80, 64
4, 20716, Note_off_c, 2, 72, 64
4, 20736, Note_on_c, 2, 84, 66
4, 20736, Note_on_c, 2, 77, 67
4, 21100, Note_off_c, 2, 84, 64
4, 21100, Note_off_c, 2, 84, 64
4, 21100, Note_off_c, 2, 77, 64
4, 21120, Note_on_c, 2, 77, 67
4, 21484, Note_off_c, 2, 77, 64
4, 21504, Note_on_c, 2, 82, 70
4, 21888, Note_on_c, 2, 76, 67
4, 21888, Note_on_c, 2, 73, 67
4, 21888, Note_on_c, 2, 70, 67
4, 22252, Note_off_c, 2, 76, 64
4, 22252, Note_off_c, 2, 73, 64
4, 22252, Note_off_c, 2, 70, 64
4, 22272, Note_on_c, 2, 82, 67
4, 22272, Note_on_c, 2, 72, 67
4, 22636, Note_off_c, 2, 82, 64
4, 22636, Note_off_c, 2, 82, 64
4, 22636, Note_off_c, 2, 72, 64
4, 22656, Note_on_c, 2, 76, 67
4, 23020, Note_off_c, 2, 76, 64
4, 23040, Note_on_c, 2, 80, 68
4, 23424, Note_on_c, 2, 77, 67
4, 23424, Note_on_c, 2, 71, 67
4, 23424, Note_on_c, 2, 68, 67
4, 23788, Note_off_c, 2, 77, 64
4, 23788, Note_off_c, 2, 71, 64
4, 23788, Note_off_c, 2, 68, 64
4, 23808, Note_on_c, 2, 80, 67
4, 23808, Note_on_c, 2, 74, 67
4, 24172, Note_off_c, 2, 80, 64
4, 24172, Note_off_c, 2, 80, 64
4, 24172, Note_off_c, 2, 74, 64
4, 24192, Note_on_c, 2, 74, 67
4, 24556, Note_off_c, 2, 74, 64
4, 24576, Note_on_c, 2, 79, 71
4, 24704, Note_on_c, 2, 72, 70
4, 24704, Note_on_c, 2, 67, 70
4, 24704, Note_on_c, 2, 65, 70
4, 24824, Note_off_c, 2, 72, 64
4, 24824, Note_off_c, 2, 67, 64
4, 24824, Note_off_c, 2, 65, 64
4, 24832, Note_on_c, 2, 72, 70
4, 24832, Note_on_c, 2, 67, 70
4, 24832, Note_on_c, 2, 65, 70
4, 24952, Note_off_c, 2, 72, 64
4, 24952, Note_off_c, 2, 67, 64
4, 24952, Note_off_c, 2, 65, 64
4, 24960, Note_on_c, 2, 77, 70
4, 25088, Note_on_c, 2, 73, 67
4, 25088, Note_on_c, 2, 70, 67
4, 25088, Note_on_c, 2, 67, 67
4, 25208, Note_off_c, 2, 73, 64
4, 25208, Note_off_c, 2, 70, 64
4, 25208, Note_off_c, 2, 67, 64
4, 25216, Note_on_c, 2, 73, 67
4, 25216, Note_on_c, 2, 70, 67
4, 25216, Note_on_c, 2, 67, 67
4, 25336, Note_off_c, 2, 73, 64
4, 25336, Note_off_c, 2, 70, 64
4, 25336, Note_off_c, 2, 67, 64
4, 25340, Note_off_c, 2, 77, 64
4, 25344, Note_on_c, 2, 76, 67
4, 25472, Note_on_c, 2, 72, 67
4, 25472, Note_on_c, 2, 67, 67
4, 25592, Note_off_c, 2, 72, 64
4, 25592, Note_off_c, 2, 67, 64
4, 25600, Note_on_c, 2, 72, 67
4, 25600, Note_on_c, 2, 67, 67
4, 25708, Note_off_c, 2, 79, 64
4, 25708, Note_off_c, 2, 76, 64
4, 25720, Note_off_c, 2, 72, 64
4, 25720, Note_off_c, 2, 67, 64
4, 25728, Note_on_c, 2, 72, 67
4, 26092, Note_off_c, 2, 72, 64
4, 26112, Note_on_c, 2, 77, 68
4, 26860, Note_off_c, 2, 77, 64
4, 26880, Note_on_c, 2, 76, 67
4, 27060, Note_off_c, 2, 76, 64
4, 27072, Note_on_c, 2, 74, 66
4, 27252, Note_off_c, 2, 74, 64
4, 27264, Note_on_c, 2, 72, 65
4, 27444, Note_off_c, 2, 72, 64
4, 27456, Note_on_c, 2, 70, 64
4, 27636, Note_off_c, 2, 70, 64
4, 27648, Note_on_c, 2, 69, 63
4, 27828, Note_off_c, 2, 69, 64
4, 27840, Note_on_c, 2, 67, 62
4, 28788, Note_off_c, 2, 67, 64
4, 28800, Note_on_c, 2, 72, 67
4, 29164, Note_off_c, 2, 72, 64
4, 29184, Note_on_c, 2, 70, 67
4, 29548, Note_off_c, 2, 70, 64
4, 29568, Note_on_c, 2, 69, 67
4, 29932, Note_off_c, 2, 69, 64
4, 30080, Note_on_c, 2, 84, 71
4, 30080, Note_on_c, 2, 72, 67
4, 30200, Note_off_c, 2, 84, 64
4, 30200, Note_off_c, 2, 72, 64
4, 30208, Note_on_c, 2, 85, 70
4, 30208, Note_on_c, 2, 73, 67
4, 30328, Note_off_c, 2, 85, 64
4, 30328, Note_off_c, 2, 73, 64
4, 30336, Note_on_c, 2, 86, 72
4, 30336, Note_on_c, 2, 74, 67
4, 30456, Note_off_c, 2, 86, 64
4, 30456, Note_off_c, 2, 74, 64
4, 30464, Note_on_c, 2, 87, 72
4, 30464, Note_on_c, 2, 75, 67
4, 30584, Note_off_c, 2, 87, 64
4, 30584, Note_off_c, 2, 75, 64
4, 30592, Note_on_c, 2, 88, 73
4, 30592, Note_on_c, 2, 76, 67
4, 30712, Note_off_c, 2, 88, 64
4, 30712, Note_off_c, 2, 76, 64
4, 30720, Note_on_c, 2, 89, 74
4, 30720, Note_on_c, 2, 77, 68
4, 31468, Note_off_c, 2, 89, 64
4, 31468, Note_off_c, 2, 77, 64
4, 31488, Note_on_c, 2, 76, 68
4, 31488, Note_on_c, 2, 88, 73
4, 31668, Note_off_c, 2, 76, 64
4, 31668, Note_off_c, 2, 88, 64
4, 31680, Note_on_c, 2, 74, 67
4, 31680, Note_on_c, 2, 86, 72
4, 31860, Note_off_c, 2, 74, 64
4, 31860, Note_off_c, 2, 86, 64
4, 31872, Note_on_c, 2, 72, 66
4, 31872, Note_on_c, 2, 84, 71
4, 32052, Note_off_c, 2, 72, 64
4, 32052, Note_off_c, 2, 84, 64
4, 32064, Note_on_c, 2, 70, 65
4, 32064, Note_on_c, 2, 82, 70
4, 32244, Note_off_c, 2, 70, 64
4, 32244, Note_off_c, 2, 82, 64
4, 32256, Note_on_c, 2, 81, 69
4, 32256, Note_on_c, 2, 69, 64
4, 32436, Note_off_c, 2, 81, 64
4, 32436, Note_off_c, 2, 69, 64
4, 32448, Note_on_c, 2, 67, 68
4, 32448, Note_on_c, 2, 79, 63
4, 33012, Note_off_c, 2, 67, 64
4, 33012, Note_off_c, 2, 79, 64
4, 33024, Note_on_c, 2, 79, 69
4, 33024, Note_on_c, 2, 67, 63
4, 33204, Note_off_c, 2, 79, 64
4, 33204, Note_off_c, 2, 67, 64
4, 33216, Note_on_c, 2, 81, 71
4, 33256, Note_off_c, 2, 81, 64
4, 33264, Note_on_c, 2, 79, 69
4, 33304, Note_off_c, 2, 79, 64
4, 33312, Note_on_c, 2, 78, 68
4, 33352, Note_off_c, 2, 78, 64
4, 33360, Note_on_c, 2, 79, 67
4, 33400, Note_off_c, 2, 79, 64
4, 33408, Note_on_c, 2, 84, 71
4, 33408, Note_on_c, 2, 72, 67
4, 33772, Note_off_c, 2, 84, 64
4, 33772, Note_off_c, 2, 72, 64
4, 33792, Note_on_c, 2, 77, 67
4, 33792, Note_on_c, 2, 65, 67
4, 33916, Note_off_c, 2, 77, 64
4, 33916, Note_off_c, 2, 65, 64
4, 33920, Note_on_c, 2, 72, 67
4, 33920, Note_on_c, 2, 69, 67
4, 33920, Note_on_c, 2, 65, 67
4, 34044, Note_off_c, 2, 72, 64
4, 34044, Note_off_c, 2, 69, 64
4, 34044, Note_off_c, 2, 65, 64
4, 34048, Note_on_c, 2, 72, 67
4, 34048, Note_on_c, 2, 69, 67
4, 34048, Note_on_c, 2, 65, 67
4, 34172, Note_off_c, 2, 72, 64
4, 34172, Note_off_c, 2, 69, 64
4, 34172, Note_off_c, 2, 65, 64
4, 34176, Note_on_c, 2, 72, 67
4, 34176, Note_on_c, 2, 69, 67
4, 34176, Note_on_c, 2, 65, 67
4, 34300, Note_off_c, 2, 72, 64
4, 34300, Note_off_c, 2, 69, 64
4, 34300, Note_off_c, 2, 65, 64
4, 34304, Note_on_c, 2, 69, 67
4, 34304, Note_on_c, 2, 65, 67
4, 34304, Note_on_c, 2, 60, 67
4, 34428, Note_off_c, 2, 69, 64
4, 34428, Note_off_c, 2, 65, 64
4, 34428, Note_off_c, 2, 60, 64
4, 34432, Note_on_c, 2, 69, 67
4, 34432, Note_on_c, 2, 65, 67
4, 34432, Note_on_c, 2, 60, 67
4, 34556, Note_off_c, 2, 69, 64
4, 34556, Note_off_c, 2, 65, 64
4, 34556, Note_off_c, 2, 60, 64
4, 34560, Note_on_c, 2, 69, 67
4, 34560, Note_on_c, 2, 65, 67
4, 34560, Note_on_c, 2, 60, 67
4, 34684, Note_off_c, 2, 69, 64
4, 34684, Note_off_c, 2, 65, 64
4, 34684, Note_off_c, 2, 60, 64
4, 34688, Note_on_c, 2, 65, 67
4, 34688, Note_on_c, 2, 60, 67
4, 34688, Note_on_c, 2, 57, 67
4, 34812, Note_off_c, 2, 65, 64
4, 34812, Note_off_c, 2, 60, 64
4, 34812, Note_off_c, 2, 57, 64
4, 34816, Note_on_c, 2, 65, 67
4, 34816, Note_on_c, 2, 60, 67
4, 34816, Note_on_c, 2, 57, 67
4, 34940, Note_off_c, 2, 65, 64
4, 34940, Note_off_c, 2, 60, 64
4, 34940, Note_off_c, 2, 57, 64
4, 34944, Note_on_c, 2, 65, 67
4, 34944, Note_on_c, 2, 60, 67
4, 34944, Note_on_c, 2, 57, 67
4, 35068, Note_off_c, 2, 65, 64
4, 35068, Note_off_c, 2, 60, 64
4, 35068, Note_off_c, 2, 57, 64
4, 35072, Note_on_c, 2, 65, 67
4, 35072, Note_on_c, 2, 60, 67
4, 35072, Note_on_c, 2, 57, 67
4, 35196, Note_off_c, 2, 65, 64
4, 35196, Note_off_c, 2, 60, 64
4, 35196, Note_off_c, 2, 57, 64
4, 35200, Note_on_c, 2, 65, 67
4, 35200, Note_on_c, 2, 60, 67
4, 35200, Note_on_c, 2, 57, 67
4, 35320, Program_c, 2, 45
4, 35324, Note_off_c, 2, 65, 64
4, 35324, Note_off_c, 2, 60, 64
4, 35324, Note_off_c, 2, 57, 64
4, 35328, Note_on_c, 2, 65, 59
4, 35508, Note_off_c, 2, 65, 64
4, 35712, Note_on_c, 2, 69, 59
4, 35892, Note_off_c, 2, 69, 64
4, 36096, Note_on_c, 2, 72, 59
4, 36276, Note_off_c, 2, 72, 64
4, 36864, Note_on_c, 2, 65, 59
4, 37044, Note_off_c, 2, 65, 64
4, 37248, Note_on_c, 2, 69, 59
4, 37428, Note_off_c, 2, 69, 64
4, 37632, Note_on_c, 2, 72, 59
4, 37812, Note_off_c, 2, 72, 64
4, 38400, Note_on_c, 2, 65, 59
4, 38580, Note_off_c, 2, 65, 64
4, 38784, Note_on_c, 2, 69, 59
4, 38964, Note_off_c, 2, 69, 64
4, 39168, Note_on_c, 2, 72, 59
4, 39348, Note_off_c, 2, 72, 64
4, 39552, Note_on_c, 2, 65, 59
4, 39732, Note_off_c, 2, 65, 64
4, 39936, Note_on_c, 2, 60, 59
4, 40116, Note_off_c, 2, 60, 64
4, 40320, Note_on_c, 2, 64, 59
4, 40500, Note_off_c, 2, 64, 64
4, 40704, Note_on_c, 2, 67, 59
4, 40884, Note_off_c, 2, 67, 64
4, 41472, Note_on_c, 2, 60, 59
4, 41652, Note_off_c, 2, 60, 64
4, 41856, Note_on_c, 2, 64, 59
4, 42036, Note_off_c, 2, 64, 64
4, 42240, Note_on_c, 2, 67, 59
4, 42420, Note_off_c, 2, 67, 64
4, 43008, Note_on_c, 2, 60, 59
4, 43188, Note_off_c, 2, 60, 64
4, 43392, Note_on_c, 2, 64, 59
4, 43572, Note_off_c, 2, 64, 64
4, 43776, Note_on_c, 2, 67, 59
4, 43956, Note_off_c, 2, 67, 64
4, 44160, Note_on_c, 2, 60, 59
4, 44340, Note_off_c, 2, 60, 64
4, 44544, Note_on_c, 2, 65, 59
4, 44724, Note_off_c, 2, 65, 64
4, 44928, Note_on_c, 2, 69, 59
4, 45108, Note_off_c, 2, 69, 64
4, 45312, Note_on_c, 2, 72, 59
4, 45492, Note_off_c, 2, 72, 64
4, 46072, Program_c, 2, 48
4, 46080, Note_on_c, 2, 84, 68
4, 46080, Note_on_c, 2, 75, 64
4, 46080, Note_on_c, 2, 77, 65
4, 47596, Note_off_c, 2, 84, 64
4, 47596, Note_off_c, 2, 75, 64
4, 47616, Note_on_c, 2, 74, 64
4, 47616, Note_on_c, 2, 82, 67
4, 49132, Note_off_c, 2, 77, 64
4, 49132, Note_off_c, 2, 74, 64
4, 49132, Note_off_c, 2, 82, 64
4, 49152, Note_on_c, 2, 86, 69
4, 49152, Note_on_c, 2, 80, 66
4, 49152, Note_on_c, 2, 77, 65
4, 50668, Note_off_c, 2, 80, 64
4, 50672, Note_off_c, 2, 86, 64
4, 50688, Note_on_c, 2, 81, 66
4, 50688, Note_on_c, 2, 84, 68
4, 52204, Note_off_c, 2, 77, 64
4, 52204, Note_off_c, 2, 81, 64
4, 52204, Note_off_c, 2, 84, 64
4, 52224, Note_on_c, 2, 88, 70
4, 52224, Note_on_c, 2, 82, 67
4, 52224, Note_on_c, 2, 79, 65
4, 53740, Note_off_c, 2, 88, 64
4, 53740, Note_off_c, 2, 82, 64
4, 53740, Note_off_c, 2, 79, 64
4, 53760, Note_on_c, 2, 77, 67
4, 53760, Note_on_c, 2, 81, 69
4, 53760, Note_on_c, 2, 89, 74
4, 53884, Note_off_c, 2, 77, 64
4, 53884, Note_off_c, 2, 81, 64
4, 53884, Note_off_c, 2, 89, 64
4, 53888, Note_on_c, 2, 69, 67
4, 53888, Note_on_c, 2, 72, 67
4, 53888, Note_on_c, 2, 77, 67
4, 54012, Note_off_c, 2, 69, 64
4, 54012, Note_off_c, 2, 72, 64
4, 54012, Note_off_c, 2, 77, 64
4, 54016, Note_on_c, 2, 69, 67
4, 54016, Note_on_c, 2, 72, 67
4, 54016, Note_on_c, 2, 77, 67
4, 54140, Note_off_c, 2, 69, 64
4, 54140, Note_off_c, 2, 72, 64
4, 54140, Note_off_c, 2, 77, 64
4, 54144, Note_on_c, 2, 77, 67
4, 54144, Note_on_c, 2, 72, 67
4, 54144, Note_on_c, 2, 69, 67
4, 54268, Note_off_c, 2, 77, 64
4, 54268, Note_off_c, 2, 72, 64
4, 54268, Note_off_c, 2, 69, 64
4, 54272, Note_on_c, 2, 77, 67
4, 54272, Note_on_c, 2, 72, 67
4, 54272, Note_on_c, 2, 69, 67
4, 54396, Note_off_c, 2, 77, 64
4, 54396, Note_off_c, 2, 72, 64
4, 54396, Note_off_c, 2, 69, 64
4, 54400, Note_on_c, 2, 77, 67
4, 54400, Note_on_c, 2, 72, 67
4, 54400, Note_on_c, 2, 69, 67
4, 54524, Note_off_c, 2, 77, 64
4, 54524, Note_off_c, 2, 72, 64
4, 54524, Note_off_c, 2, 69, 64
4, 54528, Note_on_c, 2, 81, 69
4, 54656, Note_on_c, 2, 72, 67
4, 54656, Note_on_c, 2, 69, 67
4, 54656, Note_on_c, 2, 65, 67
4, 54780, Note_off_c, 2, 72, 64
4, 54780, Note_off_c, 2, 69, 64
4, 54780, Note_off_c, 2, 65, 64
4, 54784, Note_on_c, 2, 72, 67
4, 54784, Note_on_c, 2, 69, 67
4, 54784, Note_on_c, 2, 65, 67
4, 54908, Note_off_c, 2, 72, 64
4, 54908, Note_off_c, 2, 69, 64
4, 54908, Note_off_c, 2, 65, 64
4, 54912, Note_on_c, 2, 72, 67
4, 54912, Note_on_c, 2, 69, 67
4, 54912, Note_on_c, 2, 65, 67
4, 55036, Note_off_c, 2, 72, 64
4, 55036, Note_off_c, 2, 69, 64
4, 55036, Note_off_c, 2, 65, 64
4, 55040, Note_on_c, 2, 72, 67
4, 55040, Note_on_c, 2, 69, 67
4, 55040, Note_on_c, 2, 65, 67
4, 55164, Note_off_c, 2, 72, 64
4, 55164, Note_off_c, 2, 69, 64
4, 55164, Note_off_c, 2, 65, 64
4, 55168, Note_on_c, 2, 72, 67
4, 55168, Note_on_c, 2, 69, 67
4, 55168, Note_on_c, 2, 65, 67
4, 55276, Note_off_c, 2, 81, 64
4, 55292, Note_off_c, 2, 72, 64
4, 55292, Note_off_c, 2, 69, 64
4, 55292, Note_off_c, 2, 65, 64
4, 55296, Note_on_c, 2, 82, 70
4, 55424, Note_on_c, 2, 73, 67
4, 55424, Note_on_c, 2, 70, 67
4, 55424, Note_on_c, 2, 67, 67
4, 55548, Note_off_c, 2, 73, 64
4, 55548, Note_off_c, 2, 70, 64
4, 55548, Note_off_c, 2, 67, 64
4, 55552, Note_on_c, 2, 73, 67
4, 55552, Note_on_c, 2, 70, 67
4, 55552, Note_on_c, 2, 67, 67
4, 55676, Note_off_c, 2, 73, 64
4, 55676, Note_off_c, 2, 70, 64
4, 55676, Note_off_c, 2, 67, 64
4, 55680, Note_on_c, 2, 73, 67
4, 55680, Note_on_c, 2, 70, 67
4, 55680, Note_on_c, 2, 67, 67
4, 55804, Note_off_c, 2, 73, 64
4, 55804, Note_off_c, 2, 70, 64
4, 55804, Note_off_c, 2, 67, 64
4, 55808, Note_on_c, 2, 73, 67
4, 55808, Note_on_c, 2, 70, 67
4, 55808, Note_on_c, 2, 67, 67
4, 55932, Note_off_c, 2, 73, 64
4, 55932, Note_off_c, 2, 70, 64
4, 55932, Note_off_c, 2, 67, 64
4, 55936, Note_on_c, 2, 73, 67
4, 55936, Note_on_c, 2, 70, 67
4, 55936, Note_on_c, 2, 67, 67
4, 56044, Note_off_c, 2, 82, 64
4, 56060, Note_off_c, 2, 73, 64
4, 56060, Note_off_c, 2, 70, 64
4, 56060, Note_off_c, 2, 67, 64
4, 56064, Note_on_c, 2, 73, 67
4, 56192, Note_on_c, 2, 76, 67
4, 56192, Note_on_c, 2, 79, 68
4, 56192, Note_on_c, 2, 85, 71
4, 56316, Note_off_c, 2, 76, 64
4, 56316, Note_off_c, 2, 79, 64
4, 56316, Note_off_c, 2, 85, 64
4, 56320, Note_on_c, 2, 76, 67
4, 56320, Note_on_c, 2, 79, 68
4, 56320, Note_on_c, 2, 85, 71
4, 56444, Note_off_c, 2, 76, 64
4, 56444, Note_off_c, 2, 79, 64
4, 56444, Note_off_c, 2, 85, 64
4, 56448, Note_on_c, 2, 76, 67
4, 56448, Note_on_c, 2, 79, 68
4, 56448, Note_on_c, 2, 85, 71
4, 56572, Note_off_c, 2, 76, 64
4, 56572, Note_off_c, 2, 79, 64
4, 56572, Note_off_c, 2, 85, 64
4, 56576, Note_on_c, 2, 76, 67
4, 56576, Note_on_c, 2, 79, 68
4, 56576, Note_on_c, 2, 85, 71
4, 56700, Note_off_c, 2, 76, 64
4, 56700, Note_off_c, 2, 79, 64
4, 56700, Note_off_c, 2, 85, 64
4, 56704, Note_on_c, 2, 76, 67
4, 56704, Note_on_c, 2, 79, 68
4, 56704, Note_on_c, 2, 85, 71
4, 56812, Note_off_c, 2, 73, 64
4, 56828, Note_off_c, 2, 76, 64
4, 56828, Note_off_c, 2, 79, 64
4, 56828, Note_off_c, 2, 85, 64
4, 56832, Note_on_c, 2, 86, 64
4, 56832, Note_on_c, 2, 77, 64
4, 56832, Note_on_c, 2, 74, 64
4, 56956, Note_off_c, 2, 86, 64
4, 56956, Note_off_c, 2, 77, 64
4, 56956, Note_off_c, 2, 74, 64
4, 56960, Note_on_c, 2, 65, 64
4, 56960, Note_on_c, 2, 62, 64
4, 57084, Note_off_c, 2, 65, 64
4, 57084, Note_off_c, 2, 62, 64
4, 57088, Note_on_c, 2, 67, 64
4, 57088, Note_on_c, 2, 64, 64
4, 57212, Note_off_c, 2, 67, 64
4, 57212, Note_off_c, 2, 64, 64
4, 57216, Note_on_c, 2, 65, 64
4, 57216, Note_on_c, 2, 69, 64
4, 57340, Note_off_c, 2, 65, 64
4, 57340, Note_off_c, 2, 69, 64
4, 57344, Note_on_c, 2, 65, 64
4, 57344, Note_on_c, 2, 69, 64
4, 57468, Note_off_c, 2, 65, 64
4, 57468, Note_off_c, 2, 69, 64
4, 57472, Note_on_c, 2, 65, 64
4, 57472, Note_on_c, 2, 69, 64
4, 57596, Note_off_c, 2, 65, 64
4, 57596, Note_off_c, 2, 69, 64
4, 57600, Note_on_c, 2, 57, 64
4, 57728, Note_on_c, 2, 65, 64
4, 57728, Note_on_c, 2, 62, 64
4, 57852, Note_off_c, 2, 65, 64
4, 57852, Note_off_c, 2, 62, 64
4, 57856, Note_on_c, 2, 65, 64
4, 57856, Note_on_c, 2, 69, 64
4, 57980, Note_off_c, 2, 65, 64
4, 57980, Note_off_c, 2, 69, 64
4, 58112, Note_on_c, 2, 64, 64
4, 58112, Note_on_c, 2, 61, 64
4, 58236, Note_off_c, 2, 64, 64
4, 58236, Note_off_c, 2, 61, 64
4, 58240, Note_on_c, 2, 67, 64
4, 58240, Note_on_c, 2, 64, 64
4, 58364, Note_off_c, 2, 67, 64
4, 58364, Note_off_c, 2, 64, 64
4, 58496, Note_on_c, 2, 65, 64
4, 58496, Note_on_c, 2, 62, 64
4, 58620, Note_off_c, 2, 65, 64
4, 58620, Note_off_c, 2, 62, 64
4, 58624, Note_on_c, 2, 67, 64
4, 58624, Note_on_c, 2, 64, 64
4, 58732, Note_off_c, 2, 57, 64
4, 58748, Note_off_c, 2, 67, 64
4, 58748, Note_off_c, 2, 64, 64
4, 58752, Note_on_c, 2, 69, 64
4, 58752, Note_on_c, 2, 65, 64
4, 58876, Note_off_c, 2, 69, 64
4, 58876, Note_off_c, 2, 65, 64
4, 58880, Note_on_c, 2, 69, 64
4, 58880, Note_on_c, 2, 65, 64
4, 59004, Note_off_c, 2, 69, 64
4, 59004, Note_off_c, 2, 65, 64
4, 59008, Note_on_c, 2, 69, 64
4, 59008, Note_on_c, 2, 65, 64
4, 59132, Note_off_c, 2, 69, 64
4, 59132, Note_off_c, 2, 65, 64
4, 59136, Note_on_c, 2, 57, 64
4, 59264, Note_on_c, 2, 65, 64
4, 59264, Note_on_c, 2, 62, 64
4, 59388, Note_off_c, 2, 57, 64
4, 59388, Note_off_c, 2, 65, 64
4, 59388, Note_off_c, 2, 62, 64
4, 59392, Note_on_c, 2, 64, 64
4, 59392, Note_on_c, 2, 67, 64
4, 59516, Note_off_c, 2, 64, 64
4, 59516, Note_off_c, 2, 67, 64
4, 59520, Note_on_c, 2, 65, 64
4, 59520, Note_on_c, 2, 69, 64
4, 59644, Note_off_c, 2, 65, 64
4, 59644, Note_off_c, 2, 69, 64
4, 59648, Note_on_c, 2, 65, 64
4, 59648, Note_on_c, 2, 69, 64
4, 59772, Note_off_c, 2, 65, 64
4, 59772, Note_off_c, 2, 69, 64
4, 59776, Note_on_c, 2, 65, 64
4, 59776, Note_on_c, 2, 69, 64
4, 59900, Note_off_c, 2, 65, 64
4, 59900, Note_off_c, 2, 69, 64
4, 59904, Note_on_c, 2, 60, 84
4, 60032, Note_on_c, 2, 64, 84
4, 60032, Note_on_c, 2, 55, 84
4, 60156, Note_off_c, 2, 60, 64
4, 60156, Note_off_c, 2, 64, 64
4, 60156, Note_off_c, 2, 55, 64
4, 60160, Note_on_c, 2, 64, 84
4, 60160, Note_on_c, 2, 57, 84
4, 60284, Note_off_c, 2, 64, 64
4, 60284, Note_off_c, 2, 57, 64
4, 60288, Note_on_c, 2, 67, 84
4, 60288, Note_on_c, 2, 58, 84
4, 60412, Note_off_c, 2, 67, 64
4, 60412, Note_off_c, 2, 58, 64
4, 60416, Note_on_c, 2, 67, 84
4, 60416, Note_on_c, 2, 58, 84
4, 60540, Note_off_c, 2, 67, 64
4, 60540, Note_off_c, 2, 58, 64
4, 60544, Note_on_c, 2, 67, 84
4, 60544, Note_on_c, 2, 58, 84
4, 60668, Note_off_c, 2, 67, 64
4, 60668, Note_off_c, 2, 58, 64
4, 60800, Note_on_c, 2, 64, 64
4, 60800, Note_on_c, 2, 60, 64
4, 60924, Note_off_c, 2, 64, 64
4, 60924, Note_off_c, 2, 60, 64
4, 60928, Note_on_c, 2, 65, 64
4, 60928, Note_on_c, 2, 62, 64
4, 61052, Note_off_c, 2, 65, 64
4, 61052, Note_off_c, 2, 62, 64
4, 61056, Note_on_c, 2, 67, 64
4, 61056, Note_on_c, 2, 64, 64
4, 61180, Note_off_c, 2, 67, 64
4, 61180, Note_off_c, 2, 64, 64
4, 61184, Note_on_c, 2, 67, 64
4, 61184, Note_on_c, 2, 64, 64
4, 61308, Note_off_c, 2, 67, 64
4, 61308, Note_off_c, 2, 64, 64
4, 61312, Note_on_c, 2, 67, 64
4, 61312, Note_on_c, 2, 64, 64
4, 61436, Note_off_c, 2, 67, 64
4, 61436, Note_off_c, 2, 64, 64
4, 61568, Note_on_c, 2, 60, 64
4, 61568, Note_on_c, 2, 64, 64
4, 61692, Note_off_c, 2, 60, 64
4, 61692, Note_off_c, 2, 64, 64
4, 61696, Note_on_c, 2, 60, 64
4, 61696, Note_on_c, 2, 64, 64
4, 61696, Note_on_c, 2, 67, 64
4, 61820, Note_off_c, 2, 60, 64
4, 61820, Note_off_c, 2, 64, 64
4, 61820, Note_off_c, 2, 67, 64
4, 61824, Note_on_c, 2, 60, 64
4, 61824, Note_on_c, 2, 65, 64
4, 61824, Note_on_c, 2, 69, 64
4, 61948, Note_off_c, 2, 60, 64
4, 61948, Note_off_c, 2, 65, 64
4, 61948, Note_off_c, 2, 69, 64
4, 61952, Note_on_c, 2, 60, 64
4, 61952, Note_on_c, 2, 65, 64
4, 61952, Note_on_c, 2, 69, 64
4, 62076, Note_off_c, 2, 60, 64
4, 62076, Note_off_c, 2, 65, 64
4, 62076, Note_off_c, 2, 69, 64
4, 62080, Note_on_c, 2, 60, 64
4, 62080, Note_on_c, 2, 65, 64
4, 62080, Note_on_c, 2, 69, 64
4, 62204, Note_off_c, 2, 60, 64
4, 62204, Note_off_c, 2, 65, 64
4, 62204, Note_off_c, 2, 69, 64
4, 62208, Note_on_c, 2, 60, 64
4, 62208, Note_on_c, 2, 65, 64
4, 62208, Note_on_c, 2, 69, 64
4, 62332, Note_off_c, 2, 60, 64
4, 62332, Note_off_c, 2, 65, 64
4, 62332, Note_off_c, 2, 69, 64
4, 62336, Note_on_c, 2, 60, 64
4, 62336, Note_on_c, 2, 65, 64
4, 62336, Note_on_c, 2, 69, 64
4, 62460, Note_off_c, 2, 60, 64
4, 62460, Note_off_c, 2, 65, 64
4, 62460, Note_off_c, 2, 69, 64
4, 62464, Note_on_c, 2, 60, 64
4, 62464, Note_on_c, 2, 65, 64
4, 62464, Note_on_c, 2, 69, 64
4, 62588, Note_off_c, 2, 60, 64
4, 62588, Note_off_c, 2, 65, 64
4, 62588, Note_off_c, 2, 69, 64
4, 62592, Note_on_c, 2, 60, 64
4, 62592, Note_on_c, 2, 65, 64
4, 62592, Note_on_c, 2, 69, 64
4, 62716, Note_off_c, 2, 60, 64
4, 62716, Note_off_c, 2, 65, 64
4, 62716, Note_off_c, 2, 69, 64
4, 62720, Note_on_c, 2, 60, 64
4, 62720, Note_on_c, 2, 65, 64
4, 62720, Note_on_c, 2, 69, 64
4, 62844, Note_off_c, 2, 60, 64
4, 62844, Note_off_c, 2, 65, 64
4, 62844, Note_off_c, 2, 69, 64
4, 62848, Note_on_c, 2, 60, 64
4, 62848, Note_on_c, 2, 65, 64
4, 62848, Note_on_c, 2, 69, 64
4, 62972, Note_off_c, 2, 60, 64
4, 62972, Note_off_c, 2, 65, 64
4, 62972, Note_off_c, 2, 69, 64
4, 62976, Note_on_c, 2, 67, 64
4, 62976, Note_on_c, 2, 60, 64
4, 63100, Note_off_c, 2, 67, 64
4, 63100, Note_off_c, 2, 60, 64
4, 63104, Note_on_c, 2, 72, 64
4, 63104, Note_on_c, 2, 67, 64
4, 63104, Note_on_c, 2, 64, 64
4, 63228, Note_off_c, 2, 72, 64
4, 63228, Note_off_c, 2, 67, 64
4, 63228, Note_off_c, 2, 64, 64
4, 63232, Note_on_c, 2, 72, 64
4, 63232, Note_on_c, 2, 67, 64
4, 63232, Note_on_c, 2, 64, 64
4, 63356, Note_off_c, 2, 72, 64
4, 63356, Note_off_c, 2, 67, 64
4, 63356, Note_off_c, 2, 64, 64
4, 63360, Note_on_c, 2, 72, 64
4, 63360, Note_on_c, 2, 67, 64
4, 63360, Note_on_c, 2, 64, 64
4, 63484, Note_off_c, 2, 72, 64
4, 63484, Note_off_c, 2, 67, 64
4, 63484, Note_off_c, 2, 64, 64
4, 63488, Note_on_c, 2, 72, 64
4, 63488, Note_on_c, 2, 67, 64
4, 63488, Note_on_c, 2, 64, 64
4, 63612, Note_off_c, 2, 72, 64
4, 63612, Note_off_c, 2, 67, 64
4, 63612, Note_off_c, 2, 64, 64
4, 63616, Note_on_c, 2, 72, 64
4, 63616, Note_on_c, 2, 67, 64
4, 63616, Note_on_c, 2, 64, 64
4, 63740, Note_off_c, 2, 72, 64
4, 63740, Note_off_c, 2, 67, 64
4, 63740, Note_off_c, 2, 64, 64
4, 63744, Note_on_c, 2, 72, 64
4, 63744, Note_on_c, 2, 67, 64
4, 63744, Note_on_c, 2, 64, 64
4, 63868, Note_off_c, 2, 72, 64
4, 63868, Note_off_c, 2, 67, 64
4, 63868, Note_off_c, 2, 64, 64
4, 63872, Note_on_c, 2, 72, 64
4, 63872, Note_on_c, 2, 67, 64
4, 63872, Note_on_c, 2, 64, 64
4, 63996, Note_off_c, 2, 72, 64
4, 63996, Note_off_c, 2, 67, 64
4, 63996, Note_off_c, 2, 64, 64
4, 64000, Note_on_c, 2, 72, 64
4, 64000, Note_on_c, 2, 67, 64
4, 64000, Note_on_c, 2, 64, 64
4, 64124, Note_off_c, 2, 72, 64
4, 64124, Note_off_c, 2, 67, 64
4, 64124, Note_off_c, 2, 64, 64
4, 64128, Note_on_c, 2, 72, 64
4, 64128, Note_on_c, 2, 67, 64
4, 64128, Note_on_c, 2, 64, 64
4, 64252, Note_off_c, 2, 72, 64
4, 64252, Note_off_c, 2, 67, 64
4, 64252, Note_off_c, 2, 64, 64
4, 64256, Note_on_c, 2, 72, 64
4, 64256, Note_on_c, 2, 67, 64
4, 64256, Note_on_c, 2, 64, 64
4, 64380, Note_off_c, 2, 72, 64
4, 64380, Note_off_c, 2, 67, 64
4, 64380, Note_off_c, 2, 64, 64
4, 64384, Note_on_c, 2, 72, 64
4, 64384, Note_on_c, 2, 67, 64
4, 64384, Note_on_c, 2, 64, 64
4, 64508, Note_off_c, 2, 72, 64
4, 64508, Note_off_c, 2, 67, 64
4, 64508, Note_off_c, 2, 64, 64
4, 64512, Note_on_c, 2, 72, 64
4, 64512, Note_on_c, 2, 69, 64
4, 64512, Note_on_c, 2, 62, 64
4, 64636, Note_off_c, 2, 72, 64
4, 64636, Note_off_c, 2, 69, 64
4, 64636, Note_off_c, 2, 62, 64
4, 64640, Note_on_c, 2, 72, 64
4, 64640, Note_on_c, 2, 69, 64
4, 64640, Note_on_c, 2, 62, 64
4, 64764, Note_off_c, 2, 72, 64
4, 64764, Note_off_c, 2, 69, 64
4, 64764, Note_off_c, 2, 62, 64
4, 64768, Note_on_c, 2, 72, 64
4, 64768, Note_on_c, 2, 69, 64
4, 64768, Note_on_c, 2, 62, 64
4, 64892, Note_off_c, 2, 72, 64
4, 64892, Note_off_c, 2, 69, 64
4, 64892, Note_off_c, 2, 62, 64
4, 64896, Note_on_c, 2, 72, 64
4, 64896, Note_on_c, 2, 69, 64
4, 64896, Note_on_c, 2, 62, 64
4, 65020, Note_off_c, 2, 72, 64
4, 65020, Note_off_c, 2, 69, 64
4, 65020, Note_off_c, 2, 62, 64
4, 65024, Note_on_c, 2, 72, 64
4, 65024, Note_on_c, 2, 69, 64
4, 65024, Note_on_c, 2, 62, 64
4, 65148, Note_off_c, 2, 72, 64
4, 65148, Note_off_c, 2, 69, 64
4, 65148, Note_off_c, 2, 62, 64
4, 65152, Note_on_c, 2, 72, 64
4, 65152, Note_on_c, 2, 69, 64
4, 65152, Note_on_c, 2, 62, 64
4, 65276, Note_off_c, 2, 72, 64
4, 65276, Note_off_c, 2, 69, 64
4, 65276, Note_off_c, 2, 62, 64
4, 65280, Note_on_c, 2, 72, 64
4, 65280, Note_on_c, 2, 69, 64
4, 65280, Note_on_c, 2, 62, 64
4, 65404, Note_off_c, 2, 72, 64
4, 65404, Note_off_c, 2, 69, 64
4, 65404, Note_off_c, 2, 62, 64
4, 65408, Note_on_c, 2, 72, 64
4, 65408, Note_on_c, 2, 69, 64
4, 65408, Note_on_c, 2, 62, 64
4, 65532, Note_off_c, 2, 72, 64
4, 65532, Note_off_c, 2, 69, 64
4, 65532, Note_off_c, 2, 62, 64
4, 65536, Note_on_c, 2, 72, 64
4, 65536, Note_on_c, 2, 69, 64
4, 65536, Note_on_c, 2, 62, 64
4, 65660, Note_off_c, 2, 72, 64
4, 65660, Note_off_c, 2, 69, 64
4, 65660, Note_off_c, 2, 62, 64
4, 65664, Note_on_c, 2, 72, 64
4, 65664, Note_on_c, 2, 69, 64
4, 65664, Note_on_c, 2, 62, 64
4, 65788, Note_off_c, 2, 72, 64
4, 65788, Note_off_c, 2, 69, 64
4, 65788, Note_off_c, 2, 62, 64
4, 65792, Note_on_c, 2, 72, 64
4, 65792, Note_on_c, 2, 69, 64
4, 65792, Note_on_c, 2, 62, 64
4, 65916, Note_off_c, 2, 72, 64
4, 65916, Note_off_c, 2, 69, 64
4, 65916, Note_off_c, 2, 62, 64
4, 65920, Note_on_c, 2, 72, 64
4, 65920, Note_on_c, 2, 69, 64
4, 65920, Note_on_c, 2, 62, 64
4, 66044, Note_off_c, 2, 72, 64
4, 66044, Note_off_c, 2, 69, 64
4, 66044, Note_off_c, 2, 62, 64
4, 66048, Note_on_c, 2, 72, 64
4, 66048, Note_on_c, 2, 69, 64
4, 66048, Note_on_c, 2, 62, 64
4, 66172, Note_off_c, 2, 72, 64
4, 66172, Note_off_c, 2, 69, 64
4, 66172, Note_off_c, 2, 62, 64
4, 66176, Note_on_c, 2, 72, 64
4, 66176, Note_on_c, 2, 69, 64
4, 66176, Note_on_c, 2, 62, 64
4, 66300, Note_off_c, 2, 72, 64
4, 66300, Note_off_c, 2, 69, 64
4, 66300, Note_off_c, 2, 62, 64
4, 66304, Note_on_c, 2, 72, 64
4, 66304, Note_on_c, 2, 69, 64
4, 66304, Note_on_c, 2, 62, 64
4, 66428, Note_off_c, 2, 72, 64
4, 66428, Note_off_c, 2, 69, 64
4, 66428, Note_off_c, 2, 62, 64
4, 66432, Note_on_c, 2, 72, 64
4, 66432, Note_on_c, 2, 69, 64
4, 66432, Note_on_c, 2, 62, 64
4, 66556, Note_off_c, 2, 72, 64
4, 66556, Note_off_c, 2, 69, 64
4, 66556, Note_off_c, 2, 62, 64
4, 66560, Note_on_c, 2, 72, 64
4, 66560, Note_on_c, 2, 69, 64
4, 66560, Note_on_c, 2, 62, 64
4, 66684, Note_off_c, 2, 72, 64
4, 66684, Note_off_c, 2, 69, 64
4, 66684, Note_off_c, 2, 62, 64
4, 66688, Note_on_c, 2, 72, 64
4, 66688, Note_on_c, 2, 69, 64
4, 66688, Note_on_c, 2, 62, 64
4, 66812, Note_off_c, 2, 72, 64
4, 66812, Note_off_c, 2, 69, 64
4, 66812, Note_off_c, 2, 62, 64
4, 66816, Note_on_c, 2, 72, 64
4, 66816, Note_on_c, 2, 69, 64
4, 66816, Note_on_c, 2, 62, 64
4, 66940, Note_off_c, 2, 72, 64
4, 66940, Note_off_c, 2, 69, 64
4, 66940, Note_off_c, 2, 62, 64
4, 66944, Note_on_c, 2, 72, 64
4, 66944, Note_on_c, 2, 69, 64
4, 66944, Note_on_c, 2, 62, 64
4, 67068, Note_off_c, 2, 72, 64
4, 67068, Note_off_c, 2, 69, 64
4, 67068, Note_off_c, 2, 62, 64
4, 67072, Note_on_c, 2, 72, 64
4, 67072, Note_on_c, 2, 69, 64
4, 67072, Note_on_c, 2, 62, 64
4, 67196, Note_off_c, 2, 72, 64
4, 67196, Note_off_c, 2, 69, 64
4, 67196, Note_off_c, 2, 62, 64
4, 67200, Note_on_c, 2, 72, 64
4, 67200, Note_on_c, 2, 69, 64
4, 67200, Note_on_c, 2, 62, 64
4, 67324, Note_off_c, 2, 72, 64
4, 67324, Note_off_c, 2, 69, 64
4, 67324, Note_off_c, 2, 62, 64
4, 67328, Note_on_c, 2, 72, 64
4, 67328, Note_on_c, 2, 69, 64
4, 67328, Note_on_c, 2, 62, 64
4, 67452, Note_off_c, 2, 72, 64
4, 67452, Note_off_c, 2, 69, 64
4, 67452, Note_off_c, 2, 62, 64
4, 67456, Note_on_c, 2, 72, 64
4, 67456, Note_on_c, 2, 69, 64
4, 67456, Note_on_c, 2, 62, 64
4, 67580, Note_off_c, 2, 72, 64
4, 67580, Note_off_c, 2, 69, 64
4, 67580, Note_off_c, 2, 62, 64
4, 67584, Note_on_c, 2, 67, 64
4, 67584, Note_on_c, 2, 62, 64
4, 67584, Note_on_c, 2, 71, 64
4, 67708, Note_off_c, 2, 67, 64
4, 67708, Note_off_c, 2, 62, 64
4, 67712, Note_on_c, 2, 67, 64
4, 67712, Note_on_c, 2, 62, 64
4, 67836, Note_off_c, 2, 67, 64
4, 67836, Note_off_c, 2, 62, 64
4, 67840, Note_on_c, 2, 67, 64
4, 67840, Note_on_c, 2, 62, 64
4, 67948, Note_off_c, 2, 71, 64
4, 67964, Note_off_c, 2, 67, 64
4, 67964, Note_off_c, 2, 62, 64
4, 67968, Note_on_c, 2, 67, 64
4, 67968, Note_on_c, 2, 79, 65
4, 68092, Note_off_c, 2, 67, 64
4, 68096, Note_on_c, 2, 67, 64
4, 68220, Note_off_c, 2, 67, 64
4, 68224, Note_on_c, 2, 67, 64
4, 68332, Note_off_c, 2, 79, 64
4, 68348, Note_off_c, 2, 67, 64
4, 68352, Note_on_c, 2, 63, 64
4, 68352, Note_on_c, 2, 75, 64
4, 68476, Note_off_c, 2, 63, 64
4, 68480, Note_on_c, 2, 63, 64
4, 68604, Note_off_c, 2, 63, 64
4, 68608, Note_on_c, 2, 63, 64
4, 68716, Note_off_c, 2, 75, 64
4, 68732, Note_off_c, 2, 63, 64
4, 68736, Note_on_c, 2, 72, 64
4, 68736, Note_on_c, 2, 72, 64
4, 69100, Note_off_c, 2, 72, 64
4, 69120, Note_on_c, 2, 80, 65
4, 69484, Note_off_c, 2, 72, 64
4, 69504, Note_on_c, 2, 71, 64
4, 69868, Note_off_c, 2, 80, 64
4, 69868, Note_off_c, 2, 71, 64
4, 69888, Note_on_c, 2, 74, 64
4, 70272, Note_on_c, 2, 74, 64
4, 70636, Note_off_c, 2, 74, 64
4, 70656, Note_on_c, 2, 79, 64
4, 71020, Note_off_c, 2, 74, 64
4, 71040, Note_on_c, 2, 72, 64
4, 71404, Note_off_c, 2, 72, 64
4, 71424, Note_on_c, 2, 75, 64
4, 71788, Note_off_c, 2, 79, 64
4, 71808, Note_on_c, 2, 72, 64
4, 72172, Note_off_c, 2, 72, 64
4, 72192, Note_on_c, 2, 77, 64
4, 72556, Note_off_c, 2, 75, 64
4, 72576, Note_on_c, 2, 80, 65
4, 72576, Note_on_c, 2, 74, 64
4, 72576, Note_on_c, 2, 71, 64
4, 72940, Note_off_c, 2, 80, 64
4, 72940, Note_off_c, 2, 74, 64
4, 72940, Note_off_c, 2, 71, 64
4, 72960, Note_on_c, 2, 77, 64
4, 72960, Note_on_c, 2, 79, 64
4, 73324, Note_off_c, 2, 77, 64
4, 73324, Note_off_c, 2, 77, 64
4, 73324, Note_off_c, 2, 79, 64
4, 73344, Note_on_c, 2, 71, 64
4, 73708, Note_off_c, 2, 71, 64
4, 73728, Note_on_c, 2, 75, 64
4, 74112, Note_on_c, 2, 78, 64
4, 74112, Note_on_c, 2, 75, 64
4, 74112, Note_on_c, 2, 72, 64
4, 74476, Note_off_c, 2, 75, 64
4, 74476, Note_off_c, 2, 78, 64
4, 74476, Note_off_c, 2, 72, 64
4, 74496, Note_on_c, 2, 81, 64
4, 74496, Note_on_c, 2, 78, 64
4, 74860, Note_off_c, 2, 75, 64
4, 74860, Note_off_c, 2, 81, 64
4, 74860, Note_off_c, 2, 78, 64
4, 74880, Note_on_c, 2, 69, 66
4, 75244, Note_off_c, 2, 69, 64
4, 75264, Note_on_c, 2, 74, 64
4, 75648, Note_on_c, 2, 80, 64
4, 75648, Note_on_c, 2, 89, 71
4, 76012, Note_off_c, 2, 80, 64
4, 76012, Note_off_c, 2, 89, 64
4, 76032, Note_on_c, 2, 79, 64
4, 76032, Note_on_c, 2, 86, 69
4, 76396, Note_off_c, 2, 74, 64
4, 76396, Note_off_c, 2, 79, 64
4, 76396, Note_off_c, 2, 86, 64
4, 76416, Note_on_c, 2, 67, 64
4, 76436, Note_on_c, 2, 83, 68
4, 76780, Note_off_c, 2, 67, 64
4, 76788, Note_off_c, 2, 83, 64
4, 76800, Note_on_c, 2, 72, 64
4, 77548, Note_off_c, 2, 72, 64
4, 77568, Note_on_c, 2, 71, 64
4, 77748, Note_off_c, 2, 71, 64
4, 77760, Note_on_c, 2, 69, 64
4, 77940, Note_off_c, 2, 69, 64
4, 77952, Note_on_c, 2, 67, 64
4, 78132, Note_off_c, 2, 67, 64
4, 78144, Note_on_c, 2, 65, 64
4, 78324, Note_off_c, 2, 65, 64
4, 78336, Note_on_c, 2, 64, 64
4, 78420, Note_off_c, 2, 64, 64
4, 78432, Note_on_c, 2, 62, 64
4, 79484, Note_off_c, 2, 62, 64
4, 79488, Note_on_c, 2, 67, 64
4, 79852, Note_off_c, 2, 67, 64
4, 79872, Note_on_c, 2, 65, 64
4, 80236, Note_off_c, 2, 65, 64
4, 80256, Note_on_c, 2, 64, 64
4, 80620, Note_off_c, 2, 64, 64
4, 81408, Note_on_c, 2, 84, 67
4, 81408, Note_on_c, 2, 72, 64
4, 82156, Note_off_c, 2, 84, 64
4, 82156, Note_off_c, 2, 72, 64
4, 82176, Note_on_c, 2, 83, 67
4, 82176, Note_on_c, 2, 71, 64
4, 82356, Note_off_c, 2, 83, 64
4, 82356, Note_off_c, 2, 71, 64
4, 82368, Note_on_c, 2, 81, 66
4, 82368, Note_on_c, 2, 69, 64
4, 82548, Note_off_c, 2, 81, 64
4, 82548, Note_off_c, 2, 69, 64
4, 82560, Note_on_c, 2, 79, 65
4, 82560, Note_on_c, 2, 67, 64
4, 82740, Note_off_c, 2, 79, 64
4, 82740, Note_off_c, 2, 67, 64
4, 82752, Note_on_c, 2, 77, 64
4, 82752, Note_on_c, 2, 65, 64
4, 82932, Note_off_c, 2, 77, 64
4, 82932, Note_off_c, 2, 65, 64
4, 82944, Note_on_c, 2, 76, 63
4, 82944, Note_on_c, 2, 64, 64
4, 83028, Note_off_c, 2, 76, 64
4, 83028, Note_off_c, 2, 64, 64
4, 83040, Note_on_c, 2, 74, 62
4, 83040, Note_on_c, 2, 62, 64
4, 84096, Note_on_c, 2, 79, 65
4, 84096, Note_on_c, 2, 67, 64
4, 84172, Note_off_c, 2, 74, 64
4, 84172, Note_off_c, 2, 62, 64
4, 84460, Note_off_c, 2, 79, 64
4, 84460, Note_off_c, 2, 67, 64
4, 84480, Note_on_c, 2, 72, 64
4, 86016, Note_on_c, 2, 87, 69
4, 86380, Note_off_c, 2, 72, 64
4, 86400, Note_on_c, 2, 78, 64
4, 87148, Note_off_c, 2, 78, 64
4, 87168, Note_on_c, 2, 79, 64
4, 87532, Note_off_c, 2, 87, 64
4, 87532, Note_off_c, 2, 79, 64
4, 87552, Note_on_c, 2, 86, 68
4, 87552, Note_on_c, 2, 81, 66
4, 87916, Note_off_c, 2, 81, 64
4, 87936, Note_on_c, 2, 78, 64
4, 88300, Note_off_c, 2, 86, 64
4, 88320, Note_on_c, 2, 84, 68
4, 88348, Note_off_c, 2, 84, 64
4, 88352, Note_on_c, 2, 86, 69
4, 88380, Note_off_c, 2, 86, 64
4, 88384, Note_on_c, 2, 84, 68
4, 88412, Note_off_c, 2, 84, 64
4, 88416, Note_on_c, 2, 86, 69
4, 88444, Note_off_c, 2, 86, 64
4, 88448, Note_on_c, 2, 84, 68
4, 88476, Note_off_c, 2, 84, 64
4, 88480, Note_on_c, 2, 86, 69
4, 88508, Note_off_c, 2, 86, 64
4, 88512, Note_on_c, 2, 84, 68
4, 88540, Note_off_c, 2, 84, 64
4, 88544, Note_on_c, 2, 86, 69
4, 88572, Note_off_c, 2, 86, 64
4, 88576, Note_on_c, 2, 84, 68
4, 88604, Note_off_c, 2, 84, 64
4, 88608, Note_on_c, 2, 86, 69
4, 88636, Note_off_c, 2, 86, 64
4, 88640, Note_on_c, 2, 84, 68
4, 88668, Note_off_c, 2, 84, 64
4, 88672, Note_on_c, 2, 86, 69
4, 88684, Note_off_c, 2, 78, 64
4, 88700, Note_off_c, 2, 86, 64
4, 88704, Note_on_c, 2, 81, 64
4, 88704, Note_on_c, 2, 84, 68
4, 88732, Note_off_c, 2, 84, 64
4, 88736, Note_on_c, 2, 86, 69
4, 88764, Note_off_c, 2, 86, 64
4, 88768, Note_on_c, 2, 84, 68
4, 88796, Note_off_c, 2, 84, 64
4, 88800, Note_on_c, 2, 86, 69
4, 88828, Note_off_c, 2, 86, 64
4, 88832, Note_on_c, 2, 84, 68
4, 88860, Note_off_c, 2, 84, 64
4, 88864, Note_on_c, 2, 86, 69
4, 88892, Note_off_c, 2, 86, 64
4, 88896, Note_on_c, 2, 82, 66
4, 88980, Note_off_c, 2, 82, 64
4, 88992, Note_on_c, 2, 84, 68
4, 89068, Note_off_c, 2, 81, 64
4, 89076, Note_off_c, 2, 84, 64
4, 89088, Note_on_c, 2, 79, 65
4, 89088, Note_on_c, 2, 82, 67
4, 89452, Note_off_c, 2, 79, 64
4, 89452, Note_off_c, 2, 82, 64
4, 93696, Note_on_c, 2, 77, 84
4, 93696, Note_on_c, 2, 65, 84
4, 93824, Note_on_c, 2, 74, 84
4, 93824, Note_on_c, 2, 69, 84
4, 93948, Note_off_c, 2, 74, 64
4, 93948, Note_off_c, 2, 69, 64
4, 93952, Note_on_c, 2, 74, 84
4, 93952, Note_on_c, 2, 69, 84
4, 94076, Note_off_c, 2, 74, 64
4, 94076, Note_off_c, 2, 69, 64
4, 94080, Note_on_c, 2, 74, 84
4, 94080, Note_on_c, 2, 69, 84
4, 94204, Note_off_c, 2, 74, 64
4, 94204, Note_off_c, 2, 69, 64
4, 94208, Note_on_c, 2, 74, 84
4, 94208, Note_on_c, 2, 69, 84
4, 94332, Note_off_c, 2, 74, 64
4, 94332, Note_off_c, 2, 69, 64
4, 94336, Note_on_c, 2, 74, 84
4, 94336, Note_on_c, 2, 69, 84
4, 94444, Note_off_c, 2, 77, 64
4, 94444, Note_off_c, 2, 65, 64
4, 94460, Note_off_c, 2, 74, 64
4, 94460, Note_off_c, 2, 69, 64
4, 94464, Note_on_c, 2, 75, 84
4, 94464, Note_on_c, 2, 87, 84
4, 94592, Note_on_c, 2, 77, 84
4, 94592, Note_on_c, 2, 75, 84
4, 94592, Note_on_c, 2, 69, 84
4, 94708, Note_off_c, 2, 75, 64
4, 94716, Note_off_c, 2, 77, 64
4, 94716, Note_off_c, 2, 69, 64
4, 94720, Note_on_c, 2, 77, 84
4, 94720, Note_on_c, 2, 75, 84
4, 94720, Note_on_c, 2, 69, 84
4, 94836, Note_off_c, 2, 75, 64
4, 94844, Note_off_c, 2, 77, 64
4, 94844, Note_off_c, 2, 69, 64
4, 94848, Note_on_c, 2, 77, 84
4, 94848, Note_on_c, 2, 75, 84
4, 94848, Note_on_c, 2, 69, 84
4, 94964, Note_off_c, 2, 75, 64
4, 94972, Note_off_c, 2, 77, 64
4, 94972, Note_off_c, 2, 69, 64
4, 94976, Note_on_c, 2, 77, 84
4, 94976, Note_on_c, 2, 75, 84
4, 94976, Note_on_c, 2, 69, 84
4, 95028, Note_off_c, 2, 87, 64
4, 95028, Note_off_c, 2, 75, 64
4, 95040, Note_on_c, 2, 81, 84
4, 95100, Note_off_c, 2, 77, 64
4, 95100, Note_off_c, 2, 75, 64
4, 95100, Note_off_c, 2, 69, 64
4, 95104, Note_on_c, 2, 77, 84
4, 95104, Note_on_c, 2, 75, 84
4, 95104, Note_on_c, 2, 72, 84
4, 95220, Note_off_c, 2, 81, 64
4, 95228, Note_off_c, 2, 77, 64
4, 95228, Note_off_c, 2, 75, 64
4, 95228, Note_off_c, 2, 72, 64
4, 95232, Note_on_c, 2, 82, 84
4, 95232, Note_on_c, 2, 77, 84
4, 95232, Note_on_c, 2, 74, 84
4, 95232, Note_on_c, 2, 70, 84
4, 95356, Note_off_c, 2, 82, 64
4, 95356, Note_off_c, 2, 77, 64
4, 95356, Note_off_c, 2, 74, 64
4, 95356, Note_off_c, 2, 70, 64
4, 95360, Note_on_c, 2, 74, 84
4, 95360, Note_on_c, 2, 70, 84
4, 95484, Note_off_c, 2, 74, 64
4, 95484, Note_off_c, 2, 70, 64
4, 95488, Note_on_c, 2, 75, 64
4, 95488, Note_on_c, 2, 72, 64
4, 95612, Note_off_c, 2, 75, 64
4, 95612, Note_off_c, 2, 72, 64
4, 95616, Note_on_c, 2, 77, 64
4, 95616, Note_on_c, 2, 74, 64
4, 95740, Note_off_c, 2, 77, 64
4, 95740, Note_off_c, 2, 74, 64
4, 95744, Note_on_c, 2, 77, 64
4, 95744, Note_on_c, 2, 74, 64
4, 95868, Note_off_c, 2, 77, 64
4, 95868, Note_off_c, 2, 74, 64
4, 95872, Note_on_c, 2, 77, 64
4, 95872, Note_on_c, 2, 74, 64
4, 95996, Note_off_c, 2, 77, 64
4, 95996, Note_off_c, 2, 74, 64
4, 96128, Note_on_c, 2, 70, 64
4, 96128, Note_on_c, 2, 62, 64
4, 96252, Note_off_c, 2, 70, 64
4, 96252, Note_off_c, 2, 62, 64
4, 96256, Note_on_c, 2, 72, 64
4, 96256, Note_on_c, 2, 63, 64
4, 96380, Note_off_c, 2, 72, 64
4, 96380, Note_off_c, 2, 63, 64
4, 96384, Note_on_c, 2, 74, 64
4, 96384, Note_on_c, 2, 65, 64
4, 96508, Note_off_c, 2, 74, 64
4, 96508, Note_off_c, 2, 65, 64
4, 96512, Note_on_c, 2, 74, 64
4, 96512, Note_on_c, 2, 65, 64
4, 96636, Note_off_c, 2, 74, 64
4, 96636, Note_off_c, 2, 65, 64
4, 96640, Note_on_c, 2, 74, 64
4, 96640, Note_on_c, 2, 65, 64
4, 96764, Note_off_c, 2, 74, 64
4, 96764, Note_off_c, 2, 65, 64
4, 96896, Note_on_c, 2, 60, 64
4, 96896, Note_on_c, 2, 57, 64
4, 97020, Note_off_c, 2, 60, 64
4, 97020, Note_off_c, 2, 57, 64
4, 97024, Note_on_c, 2, 62, 64
4, 97024, Note_on_c, 2, 58, 64
4, 97148, Note_off_c, 2, 62, 64
4, 97148, Note_off_c, 2, 58, 64
4, 97152, Note_on_c, 2, 63, 64
4, 97152, Note_on_c, 2, 60, 64
4, 97276, Note_off_c, 2, 63, 64
4, 97276, Note_off_c, 2, 60, 64
4, 97280, Note_on_c, 2, 63, 64
4, 97280, Note_on_c, 2, 60, 64
4, 97404, Note_off_c, 2, 63, 64
4, 97404, Note_off_c, 2, 60, 64
4, 97408, Note_on_c, 2, 63, 64
4, 97408, Note_on_c, 2, 60, 64
4, 97532, Note_off_c, 2, 63, 64
4, 97532, Note_off_c, 2, 60, 64
4, 97664, Note_on_c, 2, 72, 64
4, 97664, Note_on_c, 2, 69, 64
4, 97788, Note_off_c, 2, 72, 64
4, 97788, Note_off_c, 2, 69, 64
4, 97792, Note_on_c, 2, 74, 64
4, 97792, Note_on_c, 2, 70, 64
4, 97916, Note_off_c, 2, 74, 64
4, 97916, Note_off_c, 2, 70, 64
4, 97920, Note_on_c, 2, 75, 64
4, 97920, Note_on_c, 2, 72, 64
4, 98044, Note_off_c, 2, 75, 64
4, 98044, Note_off_c, 2, 72, 64
4, 98048, Note_on_c, 2, 75, 64
4, 98048, Note_on_c, 2, 72, 64
4, 98172, Note_off_c, 2, 75, 64
4, 98172, Note_off_c, 2, 72, 64
4, 98176, Note_on_c, 2, 75, 64
4, 98176, Note_on_c, 2, 72, 64
4, 98300, Note_off_c, 2, 75, 64
4, 98300, Note_off_c, 2, 72, 64
4, 98432, Note_on_c, 2, 65, 64
4, 98432, Note_on_c, 2, 69, 64
4, 98556, Note_off_c, 2, 65, 64
4, 98556, Note_off_c, 2, 69, 64
4, 98560, Note_on_c, 2, 67, 64
4, 98560, Note_on_c, 2, 70, 64
4, 98684, Note_off_c, 2, 67, 64
4, 98684, Note_off_c, 2, 70, 64
4, 98688, Note_on_c, 2, 72, 64
4, 98688, Note_on_c, 2, 69, 64
4, 98812, Note_off_c, 2, 72, 64
4, 98812, Note_off_c, 2, 69, 64
4, 98816, Note_on_c, 2, 72, 64
4, 98816, Note_on_c, 2, 69, 64
4, 98940, Note_off_c, 2, 72, 64
4, 98940, Note_off_c, 2, 69, 64
4, 98944, Note_on_c, 2, 72, 64
4, 98944, Note_on_c, 2, 69, 64
4, 99068, Note_off_c, 2, 72, 64
4, 99068, Note_off_c, 2, 69, 64
4, 99200, Note_on_c, 2, 77, 64
4, 99200, Note_on_c, 2, 81, 66
4, 99324, Note_off_c, 2, 77, 64
4, 99324, Note_off_c, 2, 81, 64
4, 99328, Note_on_c, 2, 79, 65
4, 99328, Note_on_c, 2, 82, 67
4, 99452, Note_off_c, 2, 79, 64
4, 99452, Note_off_c, 2, 82, 64
4, 99456, Note_on_c, 2, 81, 66
4, 99456, Note_on_c, 2, 84, 68
4, 99580, Note_off_c, 2, 81, 64
4, 99580, Note_off_c, 2, 84, 64
4, 99584, Note_on_c, 2, 81, 66
4, 99584, Note_on_c, 2, 84, 68
4, 99708, Note_off_c, 2, 81, 64
4, 99708, Note_off_c, 2, 84, 64
4, 99712, Note_on_c, 2, 81, 66
4, 99712, Note_on_c, 2, 84, 68
4, 99836, Note_off_c, 2, 81, 64
4, 99836, Note_off_c, 2, 84, 64
4, 99968, Note_on_c, 2, 62, 64
4, 99968, Note_on_c, 2, 58, 64
4, 100092, Note_off_c, 2, 62, 64
4, 100092, Note_off_c, 2, 58, 64
4, 100096, Note_on_c, 2, 63, 64
4, 100096, Note_on_c, 2, 60, 64
4, 100220, Note_off_c, 2, 63, 64
4, 100220, Note_off_c, 2, 60, 64
4, 100224, Note_on_c, 2, 65, 64
4, 100224, Note_on_c, 2, 62, 64
4, 100348, Note_off_c, 2, 65, 64
4, 100348, Note_off_c, 2, 62, 64
4, 100352, Note_on_c, 2, 65, 64
4, 100352, Note_on_c, 2, 62, 64
4, 100476, Note_off_c, 2, 65, 64
4, 100476, Note_off_c, 2, 62, 64
4, 100480, Note_on_c, 2, 65, 64
4, 100480, Note_on_c, 2, 62, 64
4, 100604, Note_off_c, 2, 65, 64
4, 100604, Note_off_c, 2, 62, 64
4, 100736, Note_on_c, 2, 74, 64
4, 100736, Note_on_c, 2, 70, 64
4, 100860, Note_off_c, 2, 74, 64
4, 100860, Note_off_c, 2, 70, 64
4, 100864, Note_on_c, 2, 75, 64
4, 100864, Note_on_c, 2, 72, 64
4, 100988, Note_off_c, 2, 75, 64
4, 100988, Note_off_c, 2, 72, 64
4, 100992, Note_on_c, 2, 77, 64
4, 100992, Note_on_c, 2, 74, 64
4, 101116, Note_off_c, 2, 77, 64
4, 101116, Note_off_c, 2, 74, 64
4, 101120, Note_on_c, 2, 77, 64
4, 101120, Note_on_c, 2, 74, 64
4, 101244, Note_off_c, 2, 77, 64
4, 101244, Note_off_c, 2, 74, 64
4, 101248, Note_on_c, 2, 77, 64
4, 101248, Note_on_c, 2, 74, 64
4, 101372, Note_off_c, 2, 77, 64
4, 101372, Note_off_c, 2, 74, 64
4, 101376, Note_on_c, 2, 87, 89
4, 101376, Note_on_c, 2, 78, 85
4, 101376, Note_on_c, 2, 75, 84
4, 102892, Note_off_c, 2, 87, 64
4, 102892, Note_off_c, 2, 78, 64
4, 102892, Note_off_c, 2, 75, 64
4, 102912, Note_on_c, 2, 79, 85
4, 102912, Note_on_c, 2, 86, 89
4, 102912, Note_on_c, 2, 74, 84
4, 104428, Note_off_c, 2, 79, 64
4, 104428, Note_off_c, 2, 86, 64
4, 104428, Note_off_c, 2, 74, 64
4, 104448, Note_on_c, 2, 86, 89
4, 104448, Note_on_c, 2, 76, 63
4, 104448, Note_on_c, 2, 73, 63
4, 105964, Note_off_c, 2, 86, 64
4, 105980, Note_off_c, 2, 76, 64
4, 105980, Note_off_c, 2, 73, 64
4, 105984, Note_on_c, 2, 84, 88
4, 105984, Note_on_c, 2, 77, 84
4, 105984, Note_on_c, 2, 72, 84
4, 107500, Note_off_c, 2, 84, 64
4, 107500, Note_off_c, 2, 77, 64
4, 107500, Note_off_c, 2, 72, 64
4, 107520, Note_on_c, 2, 68, 64
4, 107520, Note_on_c, 2, 65, 64
4, 108268, Note_off_c, 2, 68, 64
4, 108288, Note_on_c, 2, 71, 64
4, 109036, Note_off_c, 2, 71, 64
4, 109056, Note_on_c, 2, 72, 64
4, 109420, Note_off_c, 2, 65, 64
4, 109420, Note_off_c, 2, 72, 64
4, 110592, Note_on_c, 2, 75, 64
4, 110592, Note_on_c, 2, 67, 64
4, 111340, Note_off_c, 2, 75, 64
4, 111340, Note_off_c, 2, 67, 64
4, 111360, Note_on_c, 2, 79, 64
4, 111360, Note_on_c, 2, 70, 64
4, 112108, Note_off_c, 2, 79, 64
4, 112108, Note_off_c, 2, 70, 64
4, 112128, Note_on_c, 2, 80, 64
4, 112128, Note_on_c, 2, 72, 64
4, 112492, Note_off_c, 2, 80, 64
4, 112492, Note_off_c, 2, 72, 64
4, 112512, Note_on_c, 2, 60, 64
4, 112692, Note_off_c, 2, 60, 64
4, 112896, Note_on_c, 2, 63, 64
4, 113076, Note_off_c, 2, 63, 64
4, 113664, Note_on_c, 2, 56, 64
4, 113844, Note_off_c, 2, 56, 64
4, 114048, Note_on_c, 2, 60, 64
4, 114228, Note_off_c, 2, 60, 64
4, 114432, Note_on_c, 2, 63, 64
4, 114612, Note_off_c, 2, 63, 64
4, 114816, Note_on_c, 2, 56, 64
4, 114996, Note_off_c, 2, 56, 64
4, 115200, Note_on_c, 2, 63, 64
4, 115200, Note_on_c, 2, 75, 64
4, 120172, Note_off_c, 2, 63, 64
4, 120172, Note_off_c, 2, 75, 64
4, 120184, Program_c, 2, 45
4, 120192, Note_on_c, 2, 72, 64
4, 120372, Note_off_c, 2, 72, 64
4, 120576, Note_on_c, 2, 75, 64
4, 120756, Note_off_c, 2, 75, 64
4, 120960, Note_on_c, 2, 66, 64
4, 121140, Note_off_c, 2, 66, 64
4, 121336, Program_c, 2, 48
4, 121344, Note_on_c, 2, 78, 64
4, 121344, Note_on_c, 2, 66, 64
4, 122092, Note_off_c, 2, 78, 64
4, 122092, Note_off_c, 2, 66, 64
4, 122112, Note_on_c, 2, 77, 64
4, 122112, Note_on_c, 2, 65, 64
4, 122476, Note_off_c, 2, 77, 64
4, 122476, Note_off_c, 2, 65, 64
4, 122496, Note_on_c, 2, 75, 64
4, 122496, Note_on_c, 2, 63, 64
4, 122860, Note_off_c, 2, 75, 64
4, 122860, Note_off_c, 2, 63, 64
4, 122880, Note_on_c, 2, 73, 64
4, 122880, Note_on_c, 2, 61, 64
4, 123244, Note_off_c, 2, 73, 64
4, 123244, Note_off_c, 2, 61, 64
4, 123264, Note_on_c, 2, 73, 64
4, 123444, Note_off_c, 2, 73, 64
4, 123648, Note_on_c, 2, 77, 64
4, 123828, Note_off_c, 2, 77, 64
4, 124032, Note_on_c, 2, 68, 64
4, 124212, Note_off_c, 2, 68, 64
4, 124416, Note_on_c, 2, 80, 64
4, 124416, Note_on_c, 2, 68, 64
4, 125164, Note_off_c, 2, 80, 64
4, 125164, Note_off_c, 2, 68, 64
4, 125184, Note_on_c, 2, 79, 64
4, 125184, Note_on_c, 2, 67, 64
4, 125548, Note_off_c, 2, 79, 64
4, 125548, Note_off_c, 2, 67, 64
4, 125568, Note_on_c, 2, 77, 64
4, 125568, Note_on_c, 2, 65, 64
4, 125932, Note_off_c, 2, 77, 64
4, 125932, Note_off_c, 2, 65, 64
4, 125952, Note_on_c, 2, 64, 64
4, 125952, Note_on_c, 2, 67, 64
4, 125952, Note_on_c, 2, 76, 64
4, 126076, Note_off_c, 2, 64, 64
4, 126076, Note_off_c, 2, 67, 64
4, 126080, Note_on_c, 2, 64, 64
4, 126080, Note_on_c, 2, 67, 64
4, 126204, Note_off_c, 2, 64, 64
4, 126204, Note_off_c, 2, 67, 64
4, 126208, Note_on_c, 2, 64, 64
4, 126208, Note_on_c, 2, 67, 64
4, 126316, Note_off_c, 2, 76, 64
4, 126332, Note_off_c, 2, 64, 64
4, 126332, Note_off_c, 2, 67, 64
4, 126336, Note_on_c, 2, 72, 64
4, 126336, Note_on_c, 2, 86, 68
4, 126460, Note_off_c, 2, 72, 64
4, 126464, Note_on_c, 2, 72, 64
4, 126588, Note_off_c, 2, 72, 64
4, 126592, Note_on_c, 2, 72, 64
4, 126700, Note_off_c, 2, 86, 64
4, 126716, Note_off_c, 2, 72, 64
4, 126720, Note_on_c, 2, 68, 64
4, 126720, Note_on_c, 2, 80, 65
4, 126844, Note_off_c, 2, 68, 64
4, 126848, Note_on_c, 2, 68, 64
4, 126972, Note_off_c, 2, 68, 64
4, 126976, Note_on_c, 2, 68, 64
4, 127084, Note_off_c, 2, 80, 64
4, 127100, Note_off_c, 2, 68, 64
4, 127104, Note_on_c, 2, 65, 64
4, 127104, Note_on_c, 2, 77, 64
4, 127228, Note_off_c, 2, 65, 64
4, 127232, Note_on_c, 2, 65, 64
4, 127356, Note_off_c, 2, 65, 64
4, 127360, Note_on_c, 2, 65, 64
4, 127468, Note_off_c, 2, 77, 64
4, 127484, Note_off_c, 2, 65, 64
4, 127488, Note_on_c, 2, 85, 68
4, 127872, Note_on_c, 2, 79, 65
4, 127872, Note_on_c, 2, 73, 64
4, 127872, Note_on_c, 2, 70, 64
4, 128236, Note_off_c, 2, 79, 64
4, 128236, Note_off_c, 2, 73, 64
4, 128236, Note_off_c, 2, 70, 64
4, 128256, Note_on_c, 2, 85, 68
4, 128256, Note_on_c, 2, 76, 64
4, 128620, Note_off_c, 2, 85, 64
4, 128620, Note_off_c, 2, 85, 64
4, 128620, Note_off_c, 2, 76, 64
4, 128640, Note_on_c, 2, 79, 65
4, 129004, Note_off_c, 2, 79, 64
4, 129024, Note_on_c, 2, 84, 64
4, 129408, Note_on_c, 2, 80, 65
4, 129408, Note_on_c, 2, 72, 64
4, 129772, Note_off_c, 2, 80, 64
4, 129772, Note_off_c, 2, 72, 64
4, 129792, Note_on_c, 2, 77, 64
4, 129792, Note_on_c, 2, 84, 64
4, 130156, Note_off_c, 2, 84, 64
4, 130156, Note_off_c, 2, 77, 64
4, 130156, Note_off_c, 2, 84, 64
4, 130176, Note_on_c, 2, 77, 64
4, 130540, Note_off_c, 2, 77, 64
4, 130560, Note_on_c, 2, 82, 67
4, 130944, Note_on_c, 2, 76, 64
4, 130944, Note_on_c, 2, 73, 64
4, 130944, Note_on_c, 2, 70, 64
4, 131308, Note_off_c, 2, 76, 64
4, 131308, Note_off_c, 2, 73, 64
4, 131308, Note_off_c, 2, 70, 64
4, 131328, Note_on_c, 2, 82, 67
4, 131328, Note_on_c, 2, 72, 64
4, 131692, Note_off_c, 2, 82, 64
4, 131692, Note_off_c, 2, 82, 64
4, 131692, Note_off_c, 2, 72, 64
4, 131712, Note_on_c, 2, 76, 64
4, 132076, Note_off_c, 2, 76, 64
4, 132096, Note_on_c, 2, 80, 66
4, 132480, Note_on_c, 2, 77, 64
4, 132480, Note_on_c, 2, 71, 64
4, 132480, Note_on_c, 2, 68, 64
4, 132844, Note_off_c, 2, 77, 64
4, 132844, Note_off_c, 2, 71, 64
4, 132844, Note_off_c, 2, 68, 64
4, 132864, Note_on_c, 2, 80, 64
4, 132864, Note_on_c, 2, 74, 64
4, 133228, Note_off_c, 2, 80, 64
4, 133228, Note_off_c, 2, 80, 64
4, 133228, Note_off_c, 2, 74, 64
4, 133248, Note_on_c, 2, 74, 64
4, 133612, Note_off_c, 2, 74, 64
4, 133632, Note_on_c, 2, 79, 66
4, 133760, Note_on_c, 2, 67, 64
4, 133760, Note_on_c, 2, 65, 64
4, 133760, Note_on_c, 2, 72, 64
4, 133884, Note_off_c, 2, 67, 64
4, 133884, Note_off_c, 2, 65, 64
4, 133884, Note_off_c, 2, 72, 64
4, 133888, Note_on_c, 2, 72, 64
4, 133888, Note_on_c, 2, 67, 64
4, 133888, Note_on_c, 2, 65, 64
4, 134012, Note_off_c, 2, 72, 64
4, 134012, Note_off_c, 2, 67, 64
4, 134012, Note_off_c, 2, 65, 64
4, 134016, Note_on_c, 2, 77, 64
4, 134144, Note_on_c, 2, 73, 64
4, 134144, Note_on_c, 2, 70, 64
4, 134144, Note_on_c, 2, 67, 64
4, 134268, Note_off_c, 2, 73, 64
4, 134268, Note_off_c, 2, 70, 64
4, 134268, Note_off_c, 2, 67, 64
4, 134272, Note_on_c, 2, 73, 64
4, 134272, Note_on_c, 2, 70, 64
4, 134272, Note_on_c, 2, 67, 64
4, 134380, Note_off_c, 2, 77, 64
4, 134396, Note_off_c, 2, 73, 64
4, 134396, Note_off_c, 2, 70, 64
4, 134396, Note_off_c, 2, 67, 64
4, 134400, Note_on_c, 2, 76, 64
4, 134528, Note_on_c, 2, 72, 64
4, 134528, Note_on_c, 2, 67, 64
4, 134652, Note_off_c, 2, 72, 64
4, 134652, Note_off_c, 2, 67, 64
4, 134656, Note_on_c, 2, 72, 64
4, 134656, Note_on_c, 2, 67, 64
4, 134764, Note_off_c, 2, 79, 64
4, 134764, Note_off_c, 2, 76, 64
4, 134780, Note_off_c, 2, 72, 64
4, 134780, Note_off_c, 2, 67, 64
4, 134784, Note_on_c, 2, 72, 64
4, 134912, Note_on_c, 2, 67, 64
4, 134912, Note_on_c, 2, 64, 64
4, 135036, Note_off_c, 2, 67, 64
4, 135036, Note_off_c, 2, 64, 64
4, 135040, Note_on_c, 2, 67, 64
4, 135040, Note_on_c, 2, 64, 64
4, 135148, Note_off_c, 2, 72, 64
4, 135164, Note_off_c, 2, 67, 64
4, 135164, Note_off_c, 2, 64, 64
4, 135168, Note_on_c, 2, 77, 64
4, 135168, Note_on_c, 2, 72, 64
4, 135168, Note_on_c, 2, 65, 64
4, 135532, Note_off_c, 2, 72, 64
4, 135532, Note_off_c, 2, 65, 64
4, 135916, Note_off_c, 2, 77, 64
4, 135936, Note_on_c, 2, 76, 64
4, 136116, Note_off_c, 2, 76, 64
4, 136128, Note_on_c, 2, 74, 64
4, 136308, Note_off_c, 2, 74, 64
4, 136320, Note_on_c, 2, 72, 64
4, 136500, Note_off_c, 2, 72, 64
4, 136512, Note_on_c, 2, 70, 64
4, 136692, Note_off_c, 2, 70, 64
4, 136704, Note_on_c, 2, 69, 74
4, 136788, Note_off_c, 2, 69, 64
4, 136800, Note_on_c, 2, 67, 64
4, 137856, Note_on_c, 2, 72, 64
4, 137932, Note_off_c, 2, 67, 64
4, 138220, Note_off_c, 2, 72, 64
4, 138240, Note_on_c, 2, 70, 64
4, 138604, Note_off_c, 2, 70, 64
4, 138624, Note_on_c, 2, 69, 64
4, 138624, Note_on_c, 2, 69, 64
4, 138624, Note_on_c, 2, 65, 64
4, 138988, Note_off_c, 2, 69, 64
4, 139372, Note_off_c, 2, 69, 64
4, 139372, Note_off_c, 2, 65, 64
4, 139392, Note_on_c, 2, 67, 64
4, 139392, Note_on_c, 2, 60, 64
4, 139756, Note_off_c, 2, 67, 64
4, 139756, Note_off_c, 2, 60, 64
4, 139776, Note_on_c, 2, 89, 71
4, 139776, Note_on_c, 2, 77, 64
4, 140524, Note_off_c, 2, 89, 64
4, 140524, Note_off_c, 2, 77, 64
4, 140544, Note_on_c, 2, 88, 70
4, 140544, Note_on_c, 2, 76, 64
4, 140724, Note_off_c, 2, 88, 64
4, 140724, Note_off_c, 2, 76, 64
4, 140736, Note_on_c, 2, 86, 69
4, 140736, Note_on_c, 2, 74, 64
4, 140912, Note_on_c, 2, 72, 68
4, 140916, Note_off_c, 2, 86, 64
4, 140916, Note_off_c, 2, 74, 64
4, 140928, Note_on_c, 2, 84, 67
4, 141092, Note_off_c, 2, 72, 64
4, 141108, Note_off_c, 2, 84, 64
4, 141120, Note_on_c, 2, 82, 65
4, 141120, Note_on_c, 2, 70, 64
4, 141300, Note_off_c, 2, 82, 64
4, 141300, Note_off_c, 2, 70, 64
4, 141312, Note_on_c, 2, 81, 75
4, 141312, Note_on_c, 2, 69, 74
4, 141396, Note_off_c, 2, 81, 64
4, 141396, Note_off_c, 2, 69, 64
4, 141408, Note_on_c, 2, 79, 65
4, 141408, Note_on_c, 2, 67, 64
4, 142464, Note_on_c, 2, 84, 64
4, 142464, Note_on_c, 2, 72, 64
4, 142540, Note_off_c, 2, 79, 64
4, 142540, Note_off_c, 2, 67, 64
4, 142828, Note_off_c, 2, 84, 64
4, 142828, Note_off_c, 2, 72, 64
4, 142848, Note_on_c, 2, 89, 65
4, 142848, Note_on_c, 2, 77, 65
4, 144364, Note_off_c, 2, 89, 64
4, 144364, Note_off_c, 2, 77, 64
4, 144384, Note_on_c, 2, 65, 64
4, 144384, Note_on_c, 2, 63, 64
4, 144384, Note_on_c, 2, 60, 64
4, 144384, Note_on_c, 2, 53, 64
4, 144748, Note_off_c, 2, 65, 64
4, 144748, Note_off_c, 2, 63, 64
4, 144748, Note_off_c, 2, 60, 64
4, 144748, Note_off_c, 2, 53, 64
4, 145920, Note_on_c, 2, 65, 64
4, 145920, Note_on_c, 2, 62, 64
4, 145920, Note_on_c, 2, 74, 64
4, 146044, Note_off_c, 2, 65, 64
4, 146044, Note_off_c, 2, 62, 64
4, 146048, Note_on_c, 2, 65, 64
4, 146048, Note_on_c, 2, 62, 64
4, 146172, Note_off_c, 2, 65, 64
4, 146172, Note_off_c, 2, 62, 64
4, 146176, Note_on_c, 2, 65, 64
4, 146176, Note_on_c, 2, 62, 64
4, 146284, Note_off_c, 2, 74, 64
4, 146300, Note_off_c, 2, 65, 64
4, 146300, Note_off_c, 2, 62, 64
4, 146304, Note_on_c, 2, 64, 65
4, 146304, Note_on_c, 2, 61, 65
4, 146304, Note_on_c, 2, 73, 65
4, 146428, Note_off_c, 2, 64, 64
4, 146428, Note_off_c, 2, 61, 64
4, 146432, Note_on_c, 2, 64, 65
4, 146432, Note_on_c, 2, 61, 65
4, 146556, Note_off_c, 2, 64, 64
4, 146556, Note_off_c, 2, 61, 64
4, 146560, Note_on_c, 2, 64, 65
4, 146560, Note_on_c, 2, 61, 65
4, 146668, Note_off_c, 2, 73, 64
4, 146684, Note_off_c, 2, 64, 64
4, 146684, Note_off_c, 2, 61, 64
4, 146688, Note_on_c, 2, 65, 66
4, 146688, Note_on_c, 2, 62, 66
4, 146688, Note_on_c, 2, 74, 66
4, 146812, Note_off_c, 2, 65, 64
4, 146812, Note_off_c, 2, 62, 64
4, 146816, Note_on_c, 2, 65, 66
4, 146816, Note_on_c, 2, 62, 66
4, 146940, Note_off_c, 2, 65, 64
4, 146940, Note_off_c, 2, 62, 64
4, 146944, Note_on_c, 2, 65, 67
4, 146944, Note_on_c, 2, 62, 67
4, 147052, Note_off_c, 2, 74, 64
4, 147068, Note_off_c, 2, 65, 64
4, 147068, Note_off_c, 2, 62, 64
4, 147072, Note_on_c, 2, 73, 67
4, 147072, Note_on_c, 2, 67, 67
4, 147072, Note_on_c, 2, 64, 67
4, 147072, Note_on_c, 2, 76, 67
4, 147196, Note_off_c, 2, 73, 64
4, 147196, Note_off_c, 2, 67, 64
4, 147196, Note_off_c, 2, 64, 64
4, 147200, Note_on_c, 2, 73, 68
4, 147200, Note_on_c, 2, 67, 68
4, 147200, Note_on_c, 2, 64, 68
4, 147324, Note_off_c, 2, 73, 64
4, 147324, Note_off_c, 2, 67, 64
4, 147324, Note_off_c, 2, 64, 64
4, 147328, Note_on_c, 2, 73, 68
4, 147328, Note_on_c, 2, 67, 68
4, 147328, Note_on_c, 2, 64, 68
4, 147436, Note_off_c, 2, 76, 64
4, 147452, Note_off_c, 2, 73, 64
4, 147452, Note_off_c, 2, 67, 64
4, 147452, Note_off_c, 2, 64, 64
4, 147456, Note_on_c, 2, 77, 64
4, 147456, Note_on_c, 2, 74, 64
4, 147456, Note_on_c, 2, 68, 64
4, 147456, Note_on_c, 2, 65, 64
4, 147820, Note_off_c, 2, 77, 64
4, 147820, Note_off_c, 2, 74, 64
4, 147820, Note_off_c, 2, 68, 64
4, 147820, Note_off_c, 2, 65, 64
4, 148992, Note_on_c, 2, 84, 64
4, 148992, Note_on_c, 2, 81, 64
4, 148992, Note_on_c, 2, 77, 64
4, 148992, Note_on_c, 2, 72, 64
4, 150508, Note_off_c, 2, 84, 64
4, 150508, Note_off_c, 2, 81, 64
4, 150508, Note_off_c, 2, 77, 64
4, 150508, Note_off_c, 2, 72, 64
4, 150528, Note_on_c, 2, 72, 64
4, 150556, Note_on_c, 2, 82, 64
4, 150572, Note_on_c, 2, 88, 64
4, 151296, Note_on_c, 2, 76, 64
4, 152040, Note_off_c, 2, 82, 64
4, 152044, Note_off_c, 2, 72, 64
4, 152044, Note_off_c, 2, 76, 64
4, 152056, Note_off_c, 2, 88, 64
4, 152064, Note_on_c, 2, 69, 64
4, 152084, Note_on_c, 2, 77, 64
4, 152104, Note_on_c, 2, 81, 64
4, 152124, Note_on_c, 2, 89, 64
4, 152188, Note_off_c, 2, 69, 64
4, 152188, Note_off_c, 2, 77, 64
4, 152188, Note_off_c, 2, 81, 64
4, 152188, Note_off_c, 2, 89, 64
4, 152192, Note_on_c, 2, 60, 64
4, 152316, Note_off_c, 2, 60, 64
4, 152320, Note_on_c, 2, 60, 64
4, 152444, Note_off_c, 2, 60, 64
4, 152448, Note_on_c, 2, 60, 64
4, 152572, Note_off_c, 2, 60, 64
4, 152576, Note_on_c, 2, 60, 64
4, 152700, Note_off_c, 2, 60, 64
4, 152704, Note_on_c, 2, 60, 64
4, 152828, Note_off_c, 2, 60, 64
4, 152832, Note_on_c, 2, 60, 64
4, 152956, Note_off_c, 2, 60, 64
4, 152960, Note_on_c, 2, 60, 64
4, 153084, Note_off_c, 2, 60, 64
4, 153088, Note_on_c, 2, 60, 64
4, 153212, Note_off_c, 2, 60, 64
4, 153216, Note_on_c, 2, 60, 64
4, 153340, Note_off_c, 2, 60, 64
4, 153344, Note_on_c, 2, 60, 64
4, 153468, Note_off_c, 2, 60, 64
4, 153472, Note_on_c, 2, 60, 64
4, 153596, Note_off_c, 2, 60, 64
4, 153600, Note_on_c, 2, 72, 64
4, 153600, Note_on_c, 2, 70, 64
4, 153600, Note_on_c, 2, 67, 64
4, 153600, Note_on_c, 2, 64, 64
4, 153600, Note_on_c, 2, 60, 64
4, 153724, Note_off_c, 2, 72, 64
4, 153724, Note_off_c, 2, 70, 64
4, 153724, Note_off_c, 2, 67, 64
4, 153724, Note_off_c, 2, 64, 64
4, 153724, Note_off_c, 2, 60, 64
4, 153728, Note_on_c, 2, 72, 64
4, 153728, Note_on_c, 2, 70, 64
4, 153728, Note_on_c, 2, 67, 64
4, 153728, Note_on_c, 2, 64, 64
4, 153728, Note_on_c, 2, 60, 64
4, 153852, Note_off_c, 2, 72, 64
4, 153852, Note_off_c, 2, 70, 64
4, 153852, Note_off_c, 2, 67, 64
4, 153852, Note_off_c, 2, 64, 64
4, 153852, Note_off_c, 2, 60, 64
4, 153856, Note_on_c, 2, 72, 64
4, 153856, Note_on_c, 2, 70, 64
4, 153856, Note_on_c, 2, 67, 64
4, 153856, Note_on_c, 2, 64, 64
4, 153856, Note_on_c, 2, 60, 64
4, 153980, Note_off_c, 2, 72, 64
4, 153980, Note_off_c, 2, 70, 64
4, 153980, Note_off_c, 2, 67, 64
4, 153980, Note_off_c, 2, 64, 64
4, 153980, Note_off_c, 2, 60, 64
4, 153984, Note_on_c, 2, 72, 64
4, 153984, Note_on_c, 2, 70, 64
4, 153984, Note_on_c, 2, 67, 64
4, 153984, Note_on_c, 2, 64, 64
4, 153984, Note_on_c, 2, 60, 64
4, 154108, Note_off_c, 2, 72, 64
4, 154108, Note_off_c, 2, 70, 64
4, 154108, Note_off_c, 2, 67, 64
4, 154108, Note_off_c, 2, 64, 64
4, 154108, Note_off_c, 2, 60, 64
4, 154112, Note_on_c, 2, 72, 64
4, 154112, Note_on_c, 2, 70, 64
4, 154112, Note_on_c, 2, 67, 64
4, 154112, Note_on_c, 2, 64, 64
4, 154112, Note_on_c, 2, 60, 64
4, 154236, Note_off_c, 2, 72, 64
4, 154236, Note_off_c, 2, 70, 64
4, 154236, Note_off_c, 2, 67, 64
4, 154236, Note_off_c, 2, 64, 64
4, 154236, Note_off_c, 2, 60, 64
4, 154240, Note_on_c, 2, 72, 64
4, 154240, Note_on_c, 2, 70, 64
4, 154240, Note_on_c, 2, 67, 64
4, 154240, Note_on_c, 2, 64, 64
4, 154240, Note_on_c, 2, 60, 64
4, 154364, Note_off_c, 2, 72, 64
4, 154364, Note_off_c, 2, 70, 64
4, 154364, Note_off_c, 2, 67, 64
4, 154364, Note_off_c, 2, 64, 64
4, 154364, Note_off_c, 2, 60, 64
4, 154368, Note_on_c, 2, 72, 64
4, 154368, Note_on_c, 2, 70, 64
4, 154368, Note_on_c, 2, 67, 64
4, 154368, Note_on_c, 2, 64, 64
4, 154368, Note_on_c, 2, 60, 64
4, 154492, Note_off_c, 2, 72, 64
4, 154492, Note_off_c, 2, 70, 64
4, 154492, Note_off_c, 2, 67, 64
4, 154492, Note_off_c, 2, 64, 64
4, 154492, Note_off_c, 2, 60, 64
4, 154496, Note_on_c, 2, 72, 64
4, 154496, Note_on_c, 2, 70, 64
4, 154496, Note_on_c, 2, 67, 64
4, 154496, Note_on_c, 2, 64, 64
4, 154496, Note_on_c, 2, 60, 64
4, 154620, Note_off_c, 2, 72, 64
4, 154620, Note_off_c, 2, 70, 64
4, 154620, Note_off_c, 2, 67, 64
4, 154620, Note_off_c, 2, 64, 64
4, 154620, Note_off_c, 2, 60, 64
4, 154624, Note_on_c, 2, 72, 64
4, 154624, Note_on_c, 2, 70, 64
4, 154624, Note_on_c, 2, 67, 64
4, 154624, Note_on_c, 2, 64, 64
4, 154624, Note_on_c, 2, 60, 64
4, 154748, Note_off_c, 2, 72, 64
4, 154748, Note_off_c, 2, 70, 64
4, 154748, Note_off_c, 2, 67, 64
4, 154748, Note_off_c, 2, 64, 64
4, 154748, Note_off_c, 2, 60, 64
4, 154752, Note_on_c, 2, 72, 64
4, 154752, Note_on_c, 2, 70, 64
4, 154752, Note_on_c, 2, 67, 64
4, 154752, Note_on_c, 2, 64, 64
4, 154752, Note_on_c, 2, 60, 64
4, 154876, Note_off_c, 2, 72, 64
4, 154876, Note_off_c, 2, 70, 64
4, 154876, Note_off_c, 2, 67, 64
4, 154876, Note_off_c, 2, 64, 64
4, 154876, Note_off_c, 2, 60, 64
4, 154880, Note_on_c, 2, 72, 64
4, 154880, Note_on_c, 2, 70, 64
4, 154880, Note_on_c, 2, 67, 64
4, 154880, Note_on_c, 2, 64, 64
4, 154880, Note_on_c, 2, 60, 64
4, 155004, Note_off_c, 2, 72, 64
4, 155004, Note_off_c, 2, 70, 64
4, 155004, Note_off_c, 2, 67, 64
4, 155004, Note_off_c, 2, 64, 64
4, 155004, Note_off_c, 2, 60, 64
4, 155008, Note_on_c, 2, 72, 64
4, 155008, Note_on_c, 2, 70, 64
4, 155008, Note_on_c, 2, 67, 64
4, 155008, Note_on_c, 2, 64, 64
4, 155008, Note_on_c, 2, 60, 64
4, 155132, Note_off_c, 2, 72, 64
4, 155132, Note_off_c, 2, 70, 64
4, 155132, Note_off_c, 2, 67, 64
4, 155132, Note_off_c, 2, 64, 64
4, 155132, Note_off_c, 2, 60, 64
4, 155136, Note_on_c, 2, 72, 64
4, 155136, Note_on_c, 2, 69, 64
4, 155136, Note_on_c, 2, 65, 64
4, 155136, Note_on_c, 2, 60, 64
4, 155260, Note_off_c, 2, 72, 64
4, 155260, Note_off_c, 2, 69, 64
4, 155260, Note_off_c, 2, 65, 64
4, 155260, Note_off_c, 2, 60, 64
4, 155264, Note_on_c, 2, 72, 64
4, 155264, Note_on_c, 2, 69, 64
4, 155264, Note_on_c, 2, 65, 64
4, 155264, Note_on_c, 2, 60, 64
4, 155388, Note_off_c, 2, 72, 64
4, 155388, Note_off_c, 2, 69, 64
4, 155388, Note_off_c, 2, 65, 64
4, 155388, Note_off_c, 2, 60, 64
4, 155392, Note_on_c, 2, 72, 64
4, 155392, Note_on_c, 2, 69, 64
4, 155392, Note_on_c, 2, 65, 64
4, 155392, Note_on_c, 2, 60, 64
4, 155516, Note_off_c, 2, 72, 64
4, 155516, Note_off_c, 2, 69, 64
4, 155516, Note_off_c, 2, 65, 64
4, 155516, Note_off_c, 2, 60, 64
4, 155520, Note_on_c, 2, 72, 64
4, 155520, Note_on_c, 2, 69, 64
4, 155520, Note_on_c, 2, 65, 64
4, 155520, Note_on_c, 2, 60, 64
4, 155644, Note_off_c, 2, 72, 64
4, 155644, Note_off_c, 2, 69, 64
4, 155644, Note_off_c, 2, 65, 64
4, 155644, Note_off_c, 2, 60, 64
4, 155648, Note_on_c, 2, 72, 64
4, 155648, Note_on_c, 2, 69, 64
4, 155648, Note_on_c, 2, 65, 64
4, 155648, Note_on_c, 2, 60, 64
4, 155772, Note_off_c, 2, 72, 64
4, 155772, Note_off_c, 2, 69, 64
4, 155772, Note_off_c, 2, 65, 64
4, 155772, Note_off_c, 2, 60, 64
4, 155776, Note_on_c, 2, 72, 64
4, 155776, Note_on_c, 2, 69, 64
4, 155776, Note_on_c, 2, 65, 64
4, 155776, Note_on_c, 2, 60, 64
4, 155900, Note_off_c, 2, 72, 64
4, 155900, Note_off_c, 2, 69, 64
4, 155900, Note_off_c, 2, 65, 64
4, 155900, Note_off_c, 2, 60, 64
4, 155904, Note_on_c, 2, 72, 64
4, 155904, Note_on_c, 2, 69, 64
4, 155904, Note_on_c, 2, 65, 64
4, 155904, Note_on_c, 2, 60, 64
4, 156028, Note_off_c, 2, 72, 64
4, 156028, Note_off_c, 2, 69, 64
4, 156028, Note_off_c, 2, 65, 64
4, 156028, Note_off_c, 2, 60, 64
4, 156032, Note_on_c, 2, 72, 64
4, 156032, Note_on_c, 2, 69, 64
4, 156032, Note_on_c, 2, 65, 64
4, 156032, Note_on_c, 2, 60, 64
4, 156156, Note_off_c, 2, 72, 64
4, 156156, Note_off_c, 2, 69, 64
4, 156156, Note_off_c, 2, 65, 64
4, 156156, Note_off_c, 2, 60, 64
4, 156160, Note_on_c, 2, 72, 64
4, 156160, Note_on_c, 2, 69, 64
4, 156160, Note_on_c, 2, 65, 64
4, 156160, Note_on_c, 2, 60, 64
4, 156284, Note_off_c, 2, 72, 64
4, 156284, Note_off_c, 2, 69, 64
4, 156284, Note_off_c, 2, 65, 64
4, 156284, Note_off_c, 2, 60, 64
4, 156288, Note_on_c, 2, 72, 64
4, 156288, Note_on_c, 2, 69, 64
4, 156288, Note_on_c, 2, 65, 64
4, 156288, Note_on_c, 2, 60, 64
4, 156412, Note_off_c, 2, 72, 64
4, 156412, Note_off_c, 2, 69, 64
4, 156412, Note_off_c, 2, 65, 64
4, 156412, Note_off_c, 2, 60, 64
4, 156416, Note_on_c, 2, 72, 64
4, 156416, Note_on_c, 2, 69, 64
4, 156416, Note_on_c, 2, 65, 64
4, 156416, Note_on_c, 2, 60, 64
4, 156540, Note_off_c, 2, 72, 64
4, 156540, Note_off_c, 2, 69, 64
4, 156540, Note_off_c, 2, 65, 64
4, 156540, Note_off_c, 2, 60, 64
4, 156544, Note_on_c, 2, 72, 64
4, 156544, Note_on_c, 2, 69, 64
4, 156544, Note_on_c, 2, 65, 64
4, 156544, Note_on_c, 2, 60, 64
4, 156668, Note_off_c, 2, 72, 64
4, 156668, Note_off_c, 2, 69, 64
4, 156668, Note_off_c, 2, 65, 64
4, 156668, Note_off_c, 2, 60, 64
4, 156672, Note_on_c, 2, 72, 64
4, 156672, Note_on_c, 2, 70, 64
4, 156672, Note_on_c, 2, 67, 64
4, 156672, Note_on_c, 2, 64, 64
4, 156672, Note_on_c, 2, 60, 64
4, 156796, Note_off_c, 2, 72, 64
4, 156796, Note_off_c, 2, 70, 64
4, 156796, Note_off_c, 2, 67, 64
4, 156796, Note_off_c, 2, 64, 64
4, 156796, Note_off_c, 2, 60, 64
4, 156800, Note_on_c, 2, 72, 64
4, 156800, Note_on_c, 2, 70, 64
4, 156800, Note_on_c, 2, 67, 64
4, 156800, Note_on_c, 2, 64, 64
4, 156800, Note_on_c, 2, 60, 64
4, 156924, Note_off_c, 2, 72, 64
4, 156924, Note_off_c, 2, 70, 64
4, 156924, Note_off_c, 2, 67, 64
4, 156924, Note_off_c, 2, 64, 64
4, 156924, Note_off_c, 2, 60, 64
4, 156928, Note_on_c, 2, 72, 64
4, 156928, Note_on_c, 2, 70, 64
4, 156928, Note_on_c, 2, 67, 64
4, 156928, Note_on_c, 2, 64, 64
4, 156928, Note_on_c, 2, 60, 64
4, 157052, Note_off_c, 2, 72, 64
4, 157052, Note_off_c, 2, 70, 64
4, 157052, Note_off_c, 2, 67, 64
4, 157052, Note_off_c, 2, 64, 64
4, 157052, Note_off_c, 2, 60, 64
4, 157056, Note_on_c, 2, 72, 64
4, 157056, Note_on_c, 2, 70, 64
4, 157056, Note_on_c, 2, 67, 64
4, 157056, Note_on_c, 2, 64, 64
4, 157056, Note_on_c, 2, 60, 64
4, 157180, Note_off_c, 2, 72, 64
4, 157180, Note_off_c, 2, 70, 64
4, 157180, Note_off_c, 2, 67, 64
4, 157180, Note_off_c, 2, 64, 64
4, 157180, Note_off_c, 2, 60, 64
4, 157184, Note_on_c, 2, 72, 64
4, 157184, Note_on_c, 2, 70, 64
4, 157184, Note_on_c, 2, 67, 64
4, 157184, Note_on_c, 2, 64, 64
4, 157184, Note_on_c, 2, 60, 64
4, 157308, Note_off_c, 2, 72, 64
4, 157308, Note_off_c, 2, 70, 64
4, 157308, Note_off_c, 2, 67, 64
4, 157308, Note_off_c, 2, 64, 64
4, 157308, Note_off_c, 2, 60, 64
4, 157312, Note_on_c, 2, 72, 64
4, 157312, Note_on_c, 2, 70, 64
4, 157312, Note_on_c, 2, 67, 64
4, 157312, Note_on_c, 2, 64, 64
4, 157312, Note_on_c, 2, 60, 64
4, 157436, Note_off_c, 2, 72, 64
4, 157436, Note_off_c, 2, 70, 64
4, 157436, Note_off_c, 2, 67, 64
4, 157436, Note_off_c, 2, 64, 64
4, 157436, Note_off_c, 2, 60, 64
4, 157440, Note_on_c, 2, 72, 64
4, 157440, Note_on_c, 2, 70, 64
4, 157440, Note_on_c, 2, 67, 64
4, 157440, Note_on_c, 2, 64, 64
4, 157440, Note_on_c, 2, 60, 64
4, 157564, Note_off_c, 2, 72, 64
4, 157564, Note_off_c, 2, 70, 64
4, 157564, Note_off_c, 2, 67, 64
4, 157564, Note_off_c, 2, 64, 64
4, 157564, Note_off_c, 2, 60, 64
4, 157568, Note_on_c, 2, 72, 64
4, 157568, Note_on_c, 2, 70, 64
4, 157568, Note_on_c, 2, 67, 64
4, 157568, Note_on_c, 2, 64, 64
4, 157568, Note_on_c, 2, 60, 64
4, 157692, Note_off_c, 2, 72, 64
4, 157692, Note_off_c, 2, 70, 64
4, 157692, Note_off_c, 2, 67, 64
4, 157692, Note_off_c, 2, 64, 64
4, 157692, Note_off_c, 2, 60, 64
4, 157696, Note_on_c, 2, 72, 64
4, 157696, Note_on_c, 2, 70, 64
4, 157696, Note_on_c, 2, 67, 64
4, 157696, Note_on_c, 2, 64, 64
4, 157696, Note_on_c, 2, 60, 64
4, 157820, Note_off_c, 2, 72, 64
4, 157820, Note_off_c, 2, 70, 64
4, 157820, Note_off_c, 2, 67, 64
4, 157820, Note_off_c, 2, 64, 64
4, 157820, Note_off_c, 2, 60, 64
4, 157824, Note_on_c, 2, 72, 64
4, 157824, Note_on_c, 2, 70, 64
4, 157824, Note_on_c, 2, 67, 64
4, 157824, Note_on_c, 2, 64, 64
4, 157824, Note_on_c, 2, 60, 64
4, 157948, Note_off_c, 2, 72, 64
4, 157948, Note_off_c, 2, 70, 64
4, 157948, Note_off_c, 2, 67, 64
4, 157948, Note_off_c, 2, 64, 64
4, 157948, Note_off_c, 2, 60, 64
4, 157952, Note_on_c, 2, 72, 64
4, 157952, Note_on_c, 2, 70, 64
4, 157952, Note_on_c, 2, 67, 64
4, 157952, Note_on_c, 2, 64, 64
4, 157952, Note_on_c, 2, 60, 64
4, 158076, Note_off_c, 2, 72, 64
4, 158076, Note_off_c, 2, 70, 64
4, 158076, Note_off_c, 2, 67, 64
4, 158076, Note_off_c, 2, 64, 64
4, 158076, Note_off_c, 2, 60, 64
4, 158080, Note_on_c, 2, 72, 64
4, 158080, Note_on_c, 2, 70, 64
4, 158080, Note_on_c, 2, 67, 64
4, 158080, Note_on_c, 2, 64, 64
4, 158080, Note_on_c, 2, 60, 64
4, 158204, Note_off_c, 2, 72, 64
4, 158204, Note_off_c, 2, 70, 64
4, 158204, Note_off_c, 2, 67, 64
4, 158204, Note_off_c, 2, 64, 64
4, 158204, Note_off_c, 2, 60, 64
4, 158208, Note_on_c, 2, 72, 64
4, 158208, Note_on_c, 2, 69, 64
4, 158208, Note_on_c, 2, 65, 64
4, 158208, Note_on_c, 2, 60, 64
4, 158332, Note_off_c, 2, 72, 64
4, 158332, Note_off_c, 2, 69, 64
4, 158332, Note_off_c, 2, 65, 64
4, 158332, Note_off_c, 2, 60, 64
4, 158336, Note_on_c, 2, 72, 64
4, 158336, Note_on_c, 2, 69, 64
4, 158336, Note_on_c, 2, 65, 64
4, 158336, Note_on_c, 2, 60, 64
4, 158460, Note_off_c, 2, 72, 64
4, 158460, Note_off_c, 2, 69, 64
4, 158460, Note_off_c, 2, 65, 64
4, 158460, Note_off_c, 2, 60, 64
4, 158464, Note_on_c, 2, 72, 64
4, 158464, Note_on_c, 2, 69, 64
4, 158464, Note_on_c, 2, 65, 64
4, 158464, Note_on_c, 2, 60, 64
4, 158588, Note_off_c, 2, 72, 64
4, 158588, Note_off_c, 2, 69, 64
4, 158588, Note_off_c, 2, 65, 64
4, 158588, Note_off_c, 2, 60, 64
4, 158592, Note_on_c, 2, 72, 64
4, 158592, Note_on_c, 2, 69, 64
4, 158592, Note_on_c, 2, 65, 64
4, 158592, Note_on_c, 2, 60, 64
4, 158716, Note_off_c, 2, 72, 64
4, 158716, Note_off_c, 2, 69, 64
4, 158716, Note_off_c, 2, 65, 64
4, 158716, Note_off_c, 2, 60, 64
4, 158720, Note_on_c, 2, 69, 64
4, 158720, Note_on_c, 2, 65, 64
4, 158720, Note_on_c, 2, 60, 64
4, 158844, Note_off_c, 2, 69, 64
4, 158844, Note_off_c, 2, 65, 64
4, 158844, Note_off_c, 2, 60, 64
4, 158848, Note_on_c, 2, 69, 64
4, 158848, Note_on_c, 2, 65, 64
4, 158848, Note_on_c, 2, 60, 64
4, 158972, Note_off_c, 2, 69, 64
4, 158972, Note_off_c, 2, 65, 64
4, 158972, Note_off_c, 2, 60, 64
4, 158976, Note_on_c, 2, 69, 64
4, 158976, Note_on_c, 2, 65, 64
4, 158976, Note_on_c, 2, 60, 64
4, 159100, Note_off_c, 2, 69, 64
4, 159100, Note_off_c, 2, 65, 64
4, 159100, Note_off_c, 2, 60, 64
4, 159104, Note_on_c, 2, 65, 64
4, 159104, Note_on_c, 2, 60, 64
4, 159104, Note_on_c, 2, 57, 64
4, 159228, Note_off_c, 2, 65, 64
4, 159228, Note_off_c, 2, 60, 64
4, 159228, Note_off_c, 2, 57, 64
4, 159232, Note_on_c, 2, 65, 64
4, 159232, Note_on_c, 2, 60, 64
4, 159232, Note_on_c, 2, 57, 64
4, 159356, Note_off_c, 2, 65, 64
4, 159356, Note_off_c, 2, 60, 64
4, 159356, Note_off_c, 2, 57, 64
4, 159360, Note_on_c, 2, 65, 64
4, 159360, Note_on_c, 2, 60, 64
4, 159360, Note_on_c, 2, 57, 64
4, 159484, Note_off_c, 2, 65, 64
4, 159484, Note_off_c, 2, 60, 64
4, 159484, Note_off_c, 2, 57, 64
4, 159488, Note_on_c, 2, 65, 64
4, 159488, Note_on_c, 2, 60, 64
4, 159488, Note_on_c, 2, 57, 64
4, 159612, Note_off_c, 2, 65, 64
4, 159612, Note_off_c, 2, 60, 64
4, 159612, Note_off_c, 2, 57, 64
4, 159616, Note_on_c, 2, 65, 64
4, 159616, Note_on_c, 2, 60, 64
4, 159616, Note_on_c, 2, 57, 64
4, 159740, Note_off_c, 2, 65, 64
4, 159740, Note_off_c, 2, 60, 64
4, 159740, Note_off_c, 2, 57, 64
4, 159744, Note_on_c, 2, 65, 64
4, 159744, Note_on_c, 2, 60, 64
4, 159744, Note_on_c, 2, 57, 64
4, 160252, Note_off_c, 2, 65, 64
4, 160252, Note_off_c, 2, 60, 64
4, 160252, Note_off_c, 2, 57, 64
4, 160252, End_track
5, 0, Start_track
5, 0, Title_t, "B.Fisher"
5, 0, Control_c, 3, 0, 0
5, 0, Program_c, 3, 48
5, 0, Control_c, 3, 10, 93
5, 0, Control_c, 3, 91, 72
5, 0, Control_c, 3, 93, 52
5, 0, Key_signature, -1, "minor"
5, 0, Control_c, 3, 121, 0
5, 144, Control_c, 3, 10, 73
5, 192, Control_c, 3, 91, 63
5, 288, Program_c, 3, 48
5, 1536, Note_on_c, 3, 41, 62
5, 1724, Note_off_c, 3, 41, 64
5, 1920, Note_on_c, 3, 45, 60
5, 2108, Note_off_c, 3, 45, 64
5, 2304, Note_on_c, 3, 48, 58
5, 2492, Note_off_c, 3, 48, 64
5, 3072, Note_on_c, 3, 41, 63
5, 3200, Note_on_c, 3, 60, 57
5, 3200, Note_on_c, 3, 57, 57
5, 3200, Note_on_c, 3, 53, 57
5, 3260, Note_off_c, 3, 41, 64
5, 3324, Note_off_c, 3, 60, 64
5, 3324, Note_off_c, 3, 57, 64
5, 3324, Note_off_c, 3, 53, 64
5, 3328, Note_on_c, 3, 57, 57
5, 3328, Note_on_c, 3, 53, 57
5, 3328, Note_on_c, 3, 60, 57
5, 3452, Note_off_c, 3, 57, 64
5, 3452, Note_off_c, 3, 53, 64
5, 3452, Note_off_c, 3, 60, 64
5, 3456, Note_on_c, 3, 45, 62
5, 3584, Note_on_c, 3, 60, 57
5, 3584, Note_on_c, 3, 57, 57
5, 3584, Note_on_c, 3, 53, 57
5, 3644, Note_off_c, 3, 45, 64
5, 3708, Note_off_c, 3, 60, 64
5, 3708, Note_off_c, 3, 57, 64
5, 3708, Note_off_c, 3, 53, 64
5, 3712, Note_on_c, 3, 60, 57
5, 3712, Note_on_c, 3, 57, 57
5, 3712, Note_on_c, 3, 53, 57
5, 3836, Note_off_c, 3, 60, 64
5, 3836, Note_off_c, 3, 57, 64
5, 3836, Note_off_c, 3, 53, 64
5, 3840, Note_on_c, 3, 48, 61
5, 3968, Note_on_c, 3, 60, 57
5, 3968, Note_on_c, 3, 57, 57
5, 3968, Note_on_c, 3, 53, 57
5, 4028, Note_off_c, 3, 48, 64
5, 4092, Note_off_c, 3, 60, 64
5, 4092, Note_off_c, 3, 57, 64
5, 4092, Note_off_c, 3, 53, 64
5, 4096, Note_on_c, 3, 60, 57
5, 4096, Note_on_c, 3, 57, 57
5, 4096, Note_on_c, 3, 53, 57
5, 4220, Note_off_c, 3, 60, 64
5, 4220, Note_off_c, 3, 57, 64
5, 4220, Note_off_c, 3, 53, 64
5, 4224, Note_on_c, 3, 60, 57
5, 4224, Note_on_c, 3, 57, 57
5, 4224, Note_on_c, 3, 53, 57
5, 4348, Note_off_c, 3, 60, 64
5, 4348, Note_off_c, 3, 57, 64
5, 4348, Note_off_c, 3, 53, 64
5, 4352, Note_on_c, 3, 60, 57
5, 4352, Note_on_c, 3, 57, 57
5, 4352, Note_on_c, 3, 53, 57
5, 4476, Note_off_c, 3, 60, 64
5, 4476, Note_off_c, 3, 57, 64
5, 4476, Note_off_c, 3, 53, 64
5, 4480, Note_on_c, 3, 60, 57
5, 4480, Note_on_c, 3, 57, 57
5, 4480, Note_on_c, 3, 53, 57
5, 4604, Note_off_c, 3, 60, 64
5, 4604, Note_off_c, 3, 57, 64
5, 4604, Note_off_c, 3, 53, 64
5, 4608, Note_on_c, 3, 41, 65
5, 4736, Note_on_c, 3, 60, 57
5, 4736, Note_on_c, 3, 57, 57
5, 4736, Note_on_c, 3, 53, 57
5, 4796, Note_off_c, 3, 41, 64
5, 4860, Note_off_c, 3, 60, 64
5, 4860, Note_off_c, 3, 57, 64
5, 4860, Note_off_c, 3, 53, 64
5, 4864, Note_on_c, 3, 60, 57
5, 4864, Note_on_c, 3, 57, 57
5, 4864, Note_on_c, 3, 53, 57
5, 4988, Note_off_c, 3, 60, 64
5, 4988, Note_off_c, 3, 57, 64
5, 4988, Note_off_c, 3, 53, 64
5, 4992, Note_on_c, 3, 45, 64
5, 5120, Note_on_c, 3, 60, 57
5, 5120, Note_on_c, 3, 57, 57
5, 5120, Note_on_c, 3, 53, 57
5, 5180, Note_off_c, 3, 45, 64
5, 5244, Note_off_c, 3, 60, 64
5, 5244, Note_off_c, 3, 57, 64
5, 5244, Note_off_c, 3, 53, 64
5, 5248, Note_on_c, 3, 60, 57
5, 5248, Note_on_c, 3, 57, 57
5, 5248, Note_on_c, 3, 53, 57
5, 5372, Note_off_c, 3, 60, 64
5, 5372, Note_off_c, 3, 57, 64
5, 5372, Note_off_c, 3, 53, 64
5, 5376, Note_on_c, 3, 48, 64
5, 5504, Note_on_c, 3, 60, 57
5, 5504, Note_on_c, 3, 57, 57
5, 5504, Note_on_c, 3, 53, 57
5, 5564, Note_off_c, 3, 48, 64
5, 5628, Note_off_c, 3, 60, 64
5, 5628, Note_off_c, 3, 57, 64
5, 5628, Note_off_c, 3, 53, 64
5, 5632, Note_on_c, 3, 60, 57
5, 5632, Note_on_c, 3, 57, 57
5, 5632, Note_on_c, 3, 53, 57
5, 5756, Note_off_c, 3, 60, 64
5, 5756, Note_off_c, 3, 57, 64
5, 5756, Note_off_c, 3, 53, 64
5, 5760, Note_on_c, 3, 41, 61
5, 5888, Note_on_c, 3, 60, 57
5, 5888, Note_on_c, 3, 57, 57
5, 5888, Note_on_c, 3, 53, 57
5, 5948, Note_off_c, 3, 41, 64
5, 6012, Note_off_c, 3, 60, 64
5, 6012, Note_off_c, 3, 57, 64
5, 6012, Note_off_c, 3, 53, 64
5, 6016, Note_on_c, 3, 60, 57
5, 6016, Note_on_c, 3, 57, 57
5, 6016, Note_on_c, 3, 53, 57
5, 6140, Note_off_c, 3, 60, 64
5, 6140, Note_off_c, 3, 57, 64
5, 6140, Note_off_c, 3, 53, 64
5, 6144, Note_on_c, 3, 36, 64
5, 6272, Note_on_c, 3, 60, 57
5, 6272, Note_on_c, 3, 58, 57
5, 6272, Note_on_c, 3, 52, 57
5, 6332, Note_off_c, 3, 36, 64
5, 6396, Note_off_c, 3, 60, 64
5, 6396, Note_off_c, 3, 58, 64
5, 6396, Note_off_c, 3, 52, 64
5, 6400, Note_on_c, 3, 60, 57
5, 6400, Note_on_c, 3, 58, 57
5, 6400, Note_on_c, 3, 52, 57
5, 6524, Note_off_c, 3, 60, 64
5, 6524, Note_off_c, 3, 58, 64
5, 6524, Note_off_c, 3, 52, 64
5, 6528, Note_on_c, 3, 40, 62
5, 6656, Note_on_c, 3, 60, 57
5, 6656, Note_on_c, 3, 58, 57
5, 6656, Note_on_c, 3, 52, 57
5, 6716, Note_off_c, 3, 40, 64
5, 6780, Note_off_c, 3, 60, 64
5, 6780, Note_off_c, 3, 58, 64
5, 6780, Note_off_c, 3, 52, 64
5, 6784, Note_on_c, 3, 60, 57
5, 6784, Note_on_c, 3, 58, 57
5, 6784, Note_on_c, 3, 52, 57
5, 6908, Note_off_c, 3, 60, 64
5, 6908, Note_off_c, 3, 58, 64
5, 6908, Note_off_c, 3, 52, 64
5, 6912, Note_on_c, 3, 43, 60
5, 7040, Note_on_c, 3, 60, 57
5, 7040, Note_on_c, 3, 58, 57
5, 7040, Note_on_c, 3, 52, 57
5, 7100, Note_off_c, 3, 43, 64
5, 7164, Note_off_c, 3, 60, 64
5, 7164, Note_off_c, 3, 58, 64
5, 7164, Note_off_c, 3, 52, 64
5, 7168, Note_on_c, 3, 60, 57
5, 7168, Note_on_c, 3, 58, 57
5, 7168, Note_on_c, 3, 52, 57
5, 7292, Note_off_c, 3, 60, 64
5, 7292, Note_off_c, 3, 58, 64
5, 7292, Note_off_c, 3, 52, 64
5, 7296, Note_on_c, 3, 60, 57
5, 7296, Note_on_c, 3, 58, 57
5, 7296, Note_on_c, 3, 52, 57
5, 7420, Note_off_c, 3, 60, 64
5, 7420, Note_off_c, 3, 58, 64
5, 7420, Note_off_c, 3, 52, 64
5, 7424, Note_on_c, 3, 60, 57
5, 7424, Note_on_c, 3, 58, 57
5, 7424, Note_on_c, 3, 52, 57
5, 7548, Note_off_c, 3, 60, 64
5, 7548, Note_off_c, 3, 58, 64
5, 7548, Note_off_c, 3, 52, 64
5, 7552, Note_on_c, 3, 60, 57
5, 7552, Note_on_c, 3, 58, 57
5, 7552, Note_on_c, 3, 52, 57
5, 7676, Note_off_c, 3, 60, 64
5, 7676, Note_off_c, 3, 58, 64
5, 7676, Note_off_c, 3, 52, 64
5, 7680, Note_on_c, 3, 36, 64
5, 7808, Note_on_c, 3, 60, 57
5, 7808, Note_on_c, 3, 58, 57
5, 7808, Note_on_c, 3, 52, 57
5, 7868, Note_off_c, 3, 36, 64
5, 7932, Note_off_c, 3, 60, 64
5, 7932, Note_off_c, 3, 58, 64
5, 7932, Note_off_c, 3, 52, 64
5, 7936, Note_on_c, 3, 60, 57
5, 7936, Note_on_c, 3, 58, 57
5, 7936, Note_on_c, 3, 52, 57
5, 8060, Note_off_c, 3, 60, 64
5, 8060, Note_off_c, 3, 58, 64
5, 8060, Note_off_c, 3, 52, 64
5, 8064, Note_on_c, 3, 40, 62
5, 8192, Note_on_c, 3, 60, 57
5, 8192, Note_on_c, 3, 58, 57
5, 8192, Note_on_c, 3, 52, 57
5, 8252, Note_off_c, 3, 40, 64
5, 8316, Note_off_c, 3, 60, 64
5, 8316, Note_off_c, 3, 58, 64
5, 8316, Note_off_c, 3, 52, 64
5, 8320, Note_on_c, 3, 60, 57
5, 8320, Note_on_c, 3, 58, 57
5, 8320, Note_on_c, 3, 52, 57
5, 8444, Note_off_c, 3, 60, 64
5, 8444, Note_off_c, 3, 58, 64
5, 8444, Note_off_c, 3, 52, 64
5, 8448, Note_on_c, 3, 43, 60
5, 8576, Note_on_c, 3, 60, 57
5, 8576, Note_on_c, 3, 58, 57
5, 8576, Note_on_c, 3, 52, 57
5, 8636, Note_off_c, 3, 43, 64
5, 8700, Note_off_c, 3, 60, 64
5, 8700, Note_off_c, 3, 58, 64
5, 8700, Note_off_c, 3, 52, 64
5, 8704, Note_on_c, 3, 60, 57
5, 8704, Note_on_c, 3, 58, 57
5, 8704, Note_on_c, 3, 52, 57
5, 8828, Note_off_c, 3, 60, 64
5, 8828, Note_off_c, 3, 58, 64
5, 8828, Note_off_c, 3, 52, 64
5, 8832, Note_on_c, 3, 60, 57
5, 8832, Note_on_c, 3, 58, 57
5, 8832, Note_on_c, 3, 52, 57
5, 8956, Note_off_c, 3, 60, 64
5, 8956, Note_off_c, 3, 58, 64
5, 8956, Note_off_c, 3, 52, 64
5, 8960, Note_on_c, 3, 60, 57
5, 8960, Note_on_c, 3, 58, 57
5, 8960, Note_on_c, 3, 52, 57
5, 9084, Note_off_c, 3, 60, 64
5, 9084, Note_off_c, 3, 58, 64
5, 9084, Note_off_c, 3, 52, 64
5, 9088, Note_on_c, 3, 60, 57
5, 9088, Note_on_c, 3, 58, 57
5, 9088, Note_on_c, 3, 52, 57
5, 9212, Note_off_c, 3, 60, 64
5, 9212, Note_off_c, 3, 58, 64
5, 9212, Note_off_c, 3, 52, 64
5, 9216, Note_on_c, 3, 36, 64
5, 9344, Note_on_c, 3, 60, 57
5, 9344, Note_on_c, 3, 58, 57
5, 9344, Note_on_c, 3, 52, 57
5, 9404, Note_off_c, 3, 36, 64
5, 9468, Note_off_c, 3, 60, 64
5, 9468, Note_off_c, 3, 58, 64
5, 9468, Note_off_c, 3, 52, 64
5, 9472, Note_on_c, 3, 60, 57
5, 9472, Note_on_c, 3, 58, 57
5, 9472, Note_on_c, 3, 52, 57
5, 9596, Note_off_c, 3, 60, 64
5, 9596, Note_off_c, 3, 58, 64
5, 9596, Note_off_c, 3, 52, 64
5, 9600, Note_on_c, 3, 40, 62
5, 9728, Note_on_c, 3, 60, 57
5, 9728, Note_on_c, 3, 58, 57
5, 9728, Note_on_c, 3, 52, 57
5, 9788, Note_off_c, 3, 40, 64
5, 9852, Note_off_c, 3, 60, 64
5, 9852, Note_off_c, 3, 58, 64
5, 9852, Note_off_c, 3, 52, 64
5, 9856, Note_on_c, 3, 60, 57
5, 9856, Note_on_c, 3, 58, 57
5, 9856, Note_on_c, 3, 52, 57
5, 9980, Note_off_c, 3, 60, 64
5, 9980, Note_off_c, 3, 58, 64
5, 9980, Note_off_c, 3, 52, 64
5, 9984, Note_on_c, 3, 43, 60
5, 10112, Note_on_c, 3, 60, 57
5, 10112, Note_on_c, 3, 58, 57
5, 10112, Note_on_c, 3, 52, 57
5, 10172, Note_off_c, 3, 43, 64
5, 10236, Note_off_c, 3, 60, 64
5, 10236, Note_off_c, 3, 58, 64
5, 10236, Note_off_c, 3, 52, 64
5, 10240, Note_on_c, 3, 60, 57
5, 10240, Note_on_c, 3, 58, 57
5, 10240, Note_on_c, 3, 52, 57
5, 10364, Note_off_c, 3, 60, 64
5, 10364, Note_off_c, 3, 58, 64
5, 10364, Note_off_c, 3, 52, 64
5, 10368, Note_on_c, 3, 36, 59
5, 10496, Note_on_c, 3, 60, 57
5, 10496, Note_on_c, 3, 55, 57
5, 10496, Note_on_c, 3, 52, 57
5, 10556, Note_off_c, 3, 36, 64
5, 10620, Note_off_c, 3, 60, 64
5, 10620, Note_off_c, 3, 55, 64
5, 10620, Note_off_c, 3, 52, 64
5, 10624, Note_on_c, 3, 60, 57
5, 10624, Note_on_c, 3, 55, 57
5, 10624, Note_on_c, 3, 52, 57
5, 10748, Note_off_c, 3, 60, 64
5, 10748, Note_off_c, 3, 55, 64
5, 10748, Note_off_c, 3, 52, 64
5, 10752, Note_on_c, 3, 41, 64
5, 10880, Note_on_c, 3, 60, 57
5, 10880, Note_on_c, 3, 57, 57
5, 10880, Note_on_c, 3, 53, 57
5, 10940, Note_off_c, 3, 41, 64
5, 11004, Note_off_c, 3, 60, 64
5, 11004, Note_off_c, 3, 57, 64
5, 11004, Note_off_c, 3, 53, 64
5, 11008, Note_on_c, 3, 60, 57
5, 11008, Note_on_c, 3, 57, 57
5, 11008, Note_on_c, 3, 53, 57
5, 11132, Note_off_c, 3, 60, 64
5, 11132, Note_off_c, 3, 57, 64
5, 11132, Note_off_c, 3, 53, 64
5, 11136, Note_on_c, 3, 45, 60
5, 11264, Note_on_c, 3, 60, 57
5, 11264, Note_on_c, 3, 57, 57
5, 11264, Note_on_c, 3, 53, 57
5, 11324, Note_off_c, 3, 45, 64
5, 11388, Note_off_c, 3, 60, 64
5, 11388, Note_off_c, 3, 57, 64
5, 11388, Note_off_c, 3, 53, 64
5, 11392, Note_on_c, 3, 60, 57
5, 11392, Note_on_c, 3, 57, 57
5, 11392, Note_on_c, 3, 53, 57
5, 11516, Note_off_c, 3, 60, 64
5, 11516, Note_off_c, 3, 57, 64
5, 11516, Note_off_c, 3, 53, 64
5, 11520, Note_on_c, 3, 48, 60
5, 11648, Note_on_c, 3, 60, 57
5, 11648, Note_on_c, 3, 57, 57
5, 11648, Note_on_c, 3, 53, 57
5, 11708, Note_off_c, 3, 48, 64
5, 11772, Note_off_c, 3, 60, 64
5, 11772, Note_off_c, 3, 57, 64
5, 11772, Note_off_c, 3, 53, 64
5, 11776, Note_on_c, 3, 60, 57
5, 11776, Note_on_c, 3, 57, 57
5, 11776, Note_on_c, 3, 53, 57
5, 11900, Note_off_c, 3, 60, 64
5, 11900, Note_off_c, 3, 57, 64
5, 11900, Note_off_c, 3, 53, 64
5, 11904, Note_on_c, 3, 60, 57
5, 11904, Note_on_c, 3, 57, 57
5, 11904, Note_on_c, 3, 53, 57
5, 12028, Note_off_c, 3, 60, 64
5, 12028, Note_off_c, 3, 57, 64
5, 12028, Note_off_c, 3, 53, 64
5, 12032, Note_on_c, 3, 60, 57
5, 12032, Note_on_c, 3, 57, 57
5, 12032, Note_on_c, 3, 53, 57
5, 12156, Note_off_c, 3, 60, 64
5, 12156, Note_off_c, 3, 57, 64
5, 12156, Note_off_c, 3, 53, 64
5, 12160, Note_on_c, 3, 60, 57
5, 12160, Note_on_c, 3, 57, 57
5, 12160, Note_on_c, 3, 53, 57
5, 12284, Note_off_c, 3, 60, 64
5, 12284, Note_off_c, 3, 57, 64
5, 12284, Note_off_c, 3, 53, 64
5, 12288, Note_on_c, 3, 45, 82
5, 12412, Note_off_c, 3, 45, 64
5, 12416, Note_on_c, 3, 65, 82
5, 12416, Note_on_c, 3, 63, 82
5, 12416, Note_on_c, 3, 60, 82
5, 12540, Note_off_c, 3, 65, 64
5, 12540, Note_off_c, 3, 63, 64
5, 12540, Note_off_c, 3, 60, 64
5, 12544, Note_on_c, 3, 65, 82
5, 12544, Note_on_c, 3, 63, 82
5, 12544, Note_on_c, 3, 60, 82
5, 12668, Note_off_c, 3, 65, 64
5, 12668, Note_off_c, 3, 63, 64
5, 12668, Note_off_c, 3, 60, 64
5, 12672, Note_on_c, 3, 48, 82
5, 12796, Note_off_c, 3, 48, 64
5, 12800, Note_on_c, 3, 65, 82
5, 12800, Note_on_c, 3, 63, 82
5, 12800, Note_on_c, 3, 60, 82
5, 12924, Note_off_c, 3, 65, 64
5, 12924, Note_off_c, 3, 63, 64
5, 12924, Note_off_c, 3, 60, 64
5, 12928, Note_on_c, 3, 65, 82
5, 12928, Note_on_c, 3, 63, 82
5, 12928, Note_on_c, 3, 60, 82
5, 13052, Note_off_c, 3, 65, 64
5, 13052, Note_off_c, 3, 63, 64
5, 13052, Note_off_c, 3, 60, 64
5, 13056, Note_on_c, 3, 53, 64
5, 13180, Note_off_c, 3, 53, 64
5, 13184, Note_on_c, 3, 65, 62
5, 13184, Note_on_c, 3, 63, 62
5, 13184, Note_on_c, 3, 60, 62
5, 13308, Note_off_c, 3, 65, 64
5, 13308, Note_off_c, 3, 63, 64
5, 13308, Note_off_c, 3, 60, 64
5, 13312, Note_on_c, 3, 65, 62
5, 13312, Note_on_c, 3, 63, 62
5, 13312, Note_on_c, 3, 60, 62
5, 13436, Note_off_c, 3, 65, 64
5, 13436, Note_off_c, 3, 63, 64
5, 13436, Note_off_c, 3, 60, 64
5, 13440, Note_on_c, 3, 65, 62
5, 13440, Note_on_c, 3, 63, 62
5, 13440, Note_on_c, 3, 60, 62
5, 13564, Note_off_c, 3, 65, 64
5, 13564, Note_off_c, 3, 63, 64
5, 13564, Note_off_c, 3, 60, 64
5, 13568, Note_on_c, 3, 65, 62
5, 13568, Note_on_c, 3, 63, 62
5, 13568, Note_on_c, 3, 60, 62
5, 13692, Note_off_c, 3, 65, 64
5, 13692, Note_off_c, 3, 63, 64
5, 13692, Note_off_c, 3, 60, 64
5, 13696, Note_on_c, 3, 65, 62
5, 13696, Note_on_c, 3, 63, 62
5, 13696, Note_on_c, 3, 60, 62
5, 13820, Note_off_c, 3, 65, 64
5, 13820, Note_off_c, 3, 63, 64
5, 13820, Note_off_c, 3, 60, 64
5, 13824, Note_on_c, 3, 46, 67
5, 13948, Note_off_c, 3, 46, 64
5, 13952, Note_on_c, 3, 65, 62
5, 13952, Note_on_c, 3, 62, 62
5, 14076, Note_off_c, 3, 65, 64
5, 14076, Note_off_c, 3, 62, 64
5, 14080, Note_on_c, 3, 65, 62
5, 14080, Note_on_c, 3, 62, 62
5, 14204, Note_off_c, 3, 65, 64
5, 14204, Note_off_c, 3, 62, 64
5, 14208, Note_on_c, 3, 50, 66
5, 14332, Note_off_c, 3, 50, 64
5, 14336, Note_on_c, 3, 65, 62
5, 14336, Note_on_c, 3, 62, 62
5, 14460, Note_off_c, 3, 65, 64
5, 14460, Note_off_c, 3, 62, 64
5, 14464, Note_on_c, 3, 65, 62
5, 14464, Note_on_c, 3, 62, 62
5, 14588, Note_off_c, 3, 65, 64
5, 14588, Note_off_c, 3, 62, 64
5, 14592, Note_on_c, 3, 53, 65
5, 14716, Note_off_c, 3, 53, 64
5, 14720, Note_on_c, 3, 65, 62
5, 14720, Note_on_c, 3, 62, 62
5, 14720, Note_on_c, 3, 58, 62
5, 14844, Note_off_c, 3, 65, 64
5, 14844, Note_off_c, 3, 62, 64
5, 14844, Note_off_c, 3, 58, 64
5, 14848, Note_on_c, 3, 65, 62
5, 14848, Note_on_c, 3, 62, 62
5, 14848, Note_on_c, 3, 58, 62
5, 14972, Note_off_c, 3, 65, 64
5, 14972, Note_off_c, 3, 62, 64
5, 14972, Note_off_c, 3, 58, 64
5, 14976, Note_on_c, 3, 58, 62
5, 14976, Note_on_c, 3, 62, 62
5, 14976, Note_on_c, 3, 65, 62
5, 15100, Note_off_c, 3, 58, 64
5, 15100, Note_off_c, 3, 62, 64
5, 15100, Note_off_c, 3, 65, 64
5, 15104, Note_on_c, 3, 65, 62
5, 15104, Note_on_c, 3, 62, 62
5, 15104, Note_on_c, 3, 58, 62
5, 15228, Note_off_c, 3, 65, 64
5, 15228, Note_off_c, 3, 62, 64
5, 15228, Note_off_c, 3, 58, 64
5, 15232, Note_on_c, 3, 65, 62
5, 15232, Note_on_c, 3, 62, 62
5, 15232, Note_on_c, 3, 58, 62
5, 15356, Note_off_c, 3, 65, 64
5, 15356, Note_off_c, 3, 62, 64
5, 15356, Note_off_c, 3, 58, 64
5, 15360, Note_on_c, 3, 47, 84
5, 15484, Note_off_c, 3, 47, 64
5, 15488, Note_on_c, 3, 65, 82
5, 15488, Note_on_c, 3, 62, 82
5, 15488, Note_on_c, 3, 56, 82
5, 15612, Note_off_c, 3, 65, 64
5, 15612, Note_off_c, 3, 62, 64
5, 15612, Note_off_c, 3, 56, 64
5, 15616, Note_on_c, 3, 65, 82
5, 15616, Note_on_c, 3, 62, 82
5, 15616, Note_on_c, 3, 56, 82
5, 15740, Note_off_c, 3, 65, 64
5, 15740, Note_off_c, 3, 62, 64
5, 15740, Note_off_c, 3, 56, 64
5, 15744, Note_on_c, 3, 50, 84
5, 15868, Note_off_c, 3, 50, 64
5, 15872, Note_on_c, 3, 65, 82
5, 15872, Note_on_c, 3, 62, 82
5, 15872, Note_on_c, 3, 56, 82
5, 15996, Note_off_c, 3, 65, 64
5, 15996, Note_off_c, 3, 62, 64
5, 15996, Note_off_c, 3, 56, 64
5, 16000, Note_on_c, 3, 65, 82
5, 16000, Note_on_c, 3, 62, 82
5, 16000, Note_on_c, 3, 56, 82
5, 16124, Note_off_c, 3, 65, 64
5, 16124, Note_off_c, 3, 62, 64
5, 16124, Note_off_c, 3, 56, 64
5, 16128, Note_on_c, 3, 53, 67
5, 16252, Note_off_c, 3, 53, 64
5, 16256, Note_on_c, 3, 65, 62
5, 16256, Note_on_c, 3, 62, 62
5, 16256, Note_on_c, 3, 56, 62
5, 16380, Note_off_c, 3, 65, 64
5, 16380, Note_off_c, 3, 62, 64
5, 16380, Note_off_c, 3, 56, 64
5, 16384, Note_on_c, 3, 65, 62
5, 16384, Note_on_c, 3, 62, 62
5, 16384, Note_on_c, 3, 56, 62
5, 16508, Note_off_c, 3, 65, 64
5, 16508, Note_off_c, 3, 62, 64
5, 16508, Note_off_c, 3, 56, 64
5, 16512, Note_on_c, 3, 65, 62
5, 16512, Note_on_c, 3, 62, 62
5, 16512, Note_on_c, 3, 56, 62
5, 16636, Note_off_c, 3, 65, 64
5, 16636, Note_off_c, 3, 62, 64
5, 16636, Note_off_c, 3, 56, 64
5, 16640, Note_on_c, 3, 65, 62
5, 16640, Note_on_c, 3, 62, 62
5, 16640, Note_on_c, 3, 56, 62
5, 16764, Note_off_c, 3, 65, 64
5, 16764, Note_off_c, 3, 62, 64
5, 16764, Note_off_c, 3, 56, 64
5, 16768, Note_on_c, 3, 65, 62
5, 16768, Note_on_c, 3, 62, 62
5, 16768, Note_on_c, 3, 56, 62
5, 16892, Note_off_c, 3, 65, 64
5, 16892, Note_off_c, 3, 62, 64
5, 16892, Note_off_c, 3, 56, 64
5, 16896, Note_on_c, 3, 48, 67
5, 17020, Note_off_c, 3, 48, 64
5, 17024, Note_on_c, 3, 65, 62
5, 17024, Note_on_c, 3, 60, 62
5, 17024, Note_on_c, 3, 56, 62
5, 17148, Note_off_c, 3, 65, 64
5, 17148, Note_off_c, 3, 60, 64
5, 17148, Note_off_c, 3, 56, 64
5, 17152, Note_on_c, 3, 65, 62
5, 17152, Note_on_c, 3, 60, 62
5, 17152, Note_on_c, 3, 56, 62
5, 17276, Note_off_c, 3, 65, 64
5, 17276, Note_off_c, 3, 60, 64
5, 17276, Note_off_c, 3, 56, 64
5, 17280, Note_on_c, 3, 53, 68
5, 17404, Note_off_c, 3, 53, 64
5, 17408, Note_on_c, 3, 65, 62
5, 17408, Note_on_c, 3, 60, 62
5, 17408, Note_on_c, 3, 56, 62
5, 17532, Note_off_c, 3, 65, 64
5, 17532, Note_off_c, 3, 60, 64
5, 17532, Note_off_c, 3, 56, 64
5, 17536, Note_on_c, 3, 65, 62
5, 17536, Note_on_c, 3, 60, 62
5, 17536, Note_on_c, 3, 56, 62
5, 17660, Note_off_c, 3, 65, 64
5, 17660, Note_off_c, 3, 60, 64
5, 17660, Note_off_c, 3, 56, 64
5, 17664, Note_on_c, 3, 56, 67
5, 17788, Note_off_c, 3, 56, 64
5, 17792, Note_on_c, 3, 65, 62
5, 17792, Note_on_c, 3, 60, 62
5, 17792, Note_on_c, 3, 56, 62
5, 17916, Note_off_c, 3, 65, 64
5, 17916, Note_off_c, 3, 60, 64
5, 17916, Note_off_c, 3, 56, 64
5, 17920, Note_on_c, 3, 65, 62
5, 17920, Note_on_c, 3, 60, 62
5, 17920, Note_on_c, 3, 56, 62
5, 18044, Note_off_c, 3, 65, 64
5, 18044, Note_off_c, 3, 60, 64
5, 18044, Note_off_c, 3, 56, 64
5, 18048, Note_on_c, 3, 65, 62
5, 18048, Note_on_c, 3, 60, 62
5, 18048, Note_on_c, 3, 56, 62
5, 18172, Note_off_c, 3, 65, 64
5, 18172, Note_off_c, 3, 60, 64
5, 18172, Note_off_c, 3, 56, 64
5, 18176, Note_on_c, 3, 65, 62
5, 18176, Note_on_c, 3, 60, 62
5, 18176, Note_on_c, 3, 56, 62
5, 18300, Note_off_c, 3, 65, 64
5, 18300, Note_off_c, 3, 60, 64
5, 18300, Note_off_c, 3, 56, 64
5, 18304, Note_on_c, 3, 65, 62
5, 18304, Note_on_c, 3, 60, 62
5, 18304, Note_on_c, 3, 56, 62
5, 18428, Note_off_c, 3, 65, 64
5, 18428, Note_off_c, 3, 60, 64
5, 18428, Note_off_c, 3, 56, 64
5, 18432, Note_on_c, 3, 48, 66
5, 18432, Note_on_c, 3, 36, 69
5, 18556, Note_off_c, 3, 48, 64
5, 18556, Note_off_c, 3, 36, 64
5, 18560, Note_on_c, 3, 65, 62
5, 18560, Note_on_c, 3, 58, 62
5, 18560, Note_on_c, 3, 55, 62
5, 18684, Note_off_c, 3, 65, 64
5, 18684, Note_off_c, 3, 58, 64
5, 18684, Note_off_c, 3, 55, 64
5, 18688, Note_on_c, 3, 65, 62
5, 18688, Note_on_c, 3, 58, 62
5, 18688, Note_on_c, 3, 55, 62
5, 18812, Note_off_c, 3, 65, 64
5, 18812, Note_off_c, 3, 58, 64
5, 18812, Note_off_c, 3, 55, 64
5, 18816, Note_on_c, 3, 55, 65
5, 18816, Note_on_c, 3, 43, 68
5, 18940, Note_off_c, 3, 55, 64
5, 18940, Note_off_c, 3, 43, 64
5, 18944, Note_on_c, 3, 64, 62
5, 18944, Note_on_c, 3, 58, 62
5, 18944, Note_on_c, 3, 55, 62
5, 19068, Note_off_c, 3, 64, 64
5, 19068, Note_off_c, 3, 58, 64
5, 19068, Note_off_c, 3, 55, 64
5, 19072, Note_on_c, 3, 64, 62
5, 19072, Note_on_c, 3, 58, 62
5, 19072, Note_on_c, 3, 55, 62
5, 19196, Note_off_c, 3, 64, 64
5, 19196, Note_off_c, 3, 58, 64
5, 19196, Note_off_c, 3, 55, 64
5, 19200, Note_on_c, 3, 58, 65
5, 19200, Note_on_c, 3, 46, 67
5, 19324, Note_off_c, 3, 58, 64
5, 19324, Note_off_c, 3, 46, 64
5, 19328, Note_on_c, 3, 67, 62
5, 19328, Note_on_c, 3, 64, 62
5, 19328, Note_on_c, 3, 58, 62
5, 19452, Note_off_c, 3, 67, 64
5, 19452, Note_off_c, 3, 64, 64
5, 19452, Note_off_c, 3, 58, 64
5, 19456, Note_on_c, 3, 67, 62
5, 19456, Note_on_c, 3, 64, 62
5, 19456, Note_on_c, 3, 58, 62
5, 19580, Note_off_c, 3, 67, 64
5, 19580, Note_off_c, 3, 64, 64
5, 19580, Note_off_c, 3, 58, 64
5, 19584, Note_on_c, 3, 67, 63
5, 19584, Note_on_c, 3, 64, 62
5, 19584, Note_on_c, 3, 58, 69
5, 19708, Note_off_c, 3, 67, 64
5, 19708, Note_off_c, 3, 64, 64
5, 19708, Note_off_c, 3, 58, 64
5, 19712, Note_on_c, 3, 67, 62
5, 19712, Note_on_c, 3, 64, 62
5, 19712, Note_on_c, 3, 58, 62
5, 19836, Note_off_c, 3, 67, 64
5, 19836, Note_off_c, 3, 64, 64
5, 19836, Note_off_c, 3, 58, 64
5, 19840, Note_on_c, 3, 67, 62
5, 19840, Note_on_c, 3, 64, 62
5, 19840, Note_on_c, 3, 58, 62
5, 19964, Note_off_c, 3, 67, 64
5, 19964, Note_off_c, 3, 64, 64
5, 19964, Note_off_c, 3, 58, 64
5, 19968, Note_on_c, 3, 48, 65
5, 19968, Note_on_c, 3, 36, 69
5, 20092, Note_off_c, 3, 48, 64
5, 20092, Note_off_c, 3, 36, 64
5, 20096, Note_on_c, 3, 67, 62
5, 20096, Note_on_c, 3, 60, 62
5, 20096, Note_on_c, 3, 56, 62
5, 20220, Note_off_c, 3, 67, 64
5, 20220, Note_off_c, 3, 60, 64
5, 20220, Note_off_c, 3, 56, 64
5, 20224, Note_on_c, 3, 67, 62
5, 20224, Note_on_c, 3, 60, 62
5, 20224, Note_on_c, 3, 56, 62
5, 20348, Note_off_c, 3, 67, 64
5, 20348, Note_off_c, 3, 60, 64
5, 20348, Note_off_c, 3, 56, 64
5, 20352, Note_on_c, 3, 56, 65
5, 20352, Note_on_c, 3, 44, 68
5, 20476, Note_off_c, 3, 56, 64
5, 20476, Note_off_c, 3, 44, 64
5, 20480, Note_on_c, 3, 65, 62
5, 20480, Note_on_c, 3, 60, 62
5, 20480, Note_on_c, 3, 56, 62
5, 20604, Note_off_c, 3, 65, 64
5, 20604, Note_off_c, 3, 60, 64
5, 20604, Note_off_c, 3, 56, 64
5, 20608, Note_on_c, 3, 65, 62
5, 20608, Note_on_c, 3, 60, 62
5, 20608, Note_on_c, 3, 56, 62
5, 20732, Note_off_c, 3, 65, 64
5, 20732, Note_off_c, 3, 60, 64
5, 20732, Note_off_c, 3, 56, 64
5, 20736, Note_on_c, 3, 60, 65
5, 20736, Note_on_c, 3, 48, 66
5, 20860, Note_off_c, 3, 60, 64
5, 20860, Note_off_c, 3, 48, 64
5, 20864, Note_on_c, 3, 68, 62
5, 20864, Note_on_c, 3, 65, 62
5, 20864, Note_on_c, 3, 60, 62
5, 20988, Note_off_c, 3, 68, 64
5, 20988, Note_off_c, 3, 65, 64
5, 20988, Note_off_c, 3, 60, 64
5, 20992, Note_on_c, 3, 68, 62
5, 20992, Note_on_c, 3, 65, 62
5, 20992, Note_on_c, 3, 60, 62
5, 21116, Note_off_c, 3, 68, 64
5, 21116, Note_off_c, 3, 65, 64
5, 21116, Note_off_c, 3, 60, 64
5, 21120, Note_on_c, 3, 68, 62
5, 21120, Note_on_c, 3, 65, 62
5, 21120, Note_on_c, 3, 60, 62
5, 21244, Note_off_c, 3, 68, 64
5, 21244, Note_off_c, 3, 65, 64
5, 21244, Note_off_c, 3, 60, 64
5, 21248, Note_on_c, 3, 68, 62
5, 21248, Note_on_c, 3, 65, 62
5, 21248, Note_on_c, 3, 60, 62
5, 21372, Note_off_c, 3, 68, 64
5, 21372, Note_off_c, 3, 65, 64
5, 21372, Note_off_c, 3, 60, 64
5, 21376, Note_on_c, 3, 68, 62
5, 21376, Note_on_c, 3, 65, 62
5, 21376, Note_on_c, 3, 60, 62
5, 21500, Note_off_c, 3, 68, 64
5, 21500, Note_off_c, 3, 65, 64
5, 21500, Note_off_c, 3, 60, 64
5, 21504, Note_on_c, 3, 48, 65
5, 21504, Note_on_c, 3, 36, 69
5, 21628, Note_off_c, 3, 48, 64
5, 21628, Note_off_c, 3, 36, 64
5, 21632, Note_on_c, 3, 68, 62
5, 21632, Note_on_c, 3, 64, 62
5, 21632, Note_on_c, 3, 61, 62
5, 21756, Note_off_c, 3, 68, 64
5, 21756, Note_off_c, 3, 64, 64
5, 21756, Note_off_c, 3, 61, 64
5, 21760, Note_on_c, 3, 68, 62
5, 21760, Note_on_c, 3, 64, 62
5, 21760, Note_on_c, 3, 61, 62
5, 21884, Note_off_c, 3, 68, 64
5, 21884, Note_off_c, 3, 64, 64
5, 21884, Note_off_c, 3, 61, 64
5, 21888, Note_on_c, 3, 52, 65
5, 21888, Note_on_c, 3, 40, 67
5, 22012, Note_off_c, 3, 52, 64
5, 22012, Note_off_c, 3, 40, 64
5, 22016, Note_on_c, 3, 67, 62
5, 22016, Note_on_c, 3, 64, 62
5, 22016, Note_on_c, 3, 61, 62
5, 22140, Note_off_c, 3, 67, 64
5, 22140, Note_off_c, 3, 64, 64
5, 22140, Note_off_c, 3, 61, 64
5, 22144, Note_on_c, 3, 67, 62
5, 22144, Note_on_c, 3, 64, 62
5, 22144, Note_on_c, 3, 61, 62
5, 22268, Note_off_c, 3, 67, 64
5, 22268, Note_off_c, 3, 64, 64
5, 22268, Note_off_c, 3, 61, 64
5, 22272, Note_on_c, 3, 55, 66
5, 22272, Note_on_c, 3, 43, 67
5, 22396, Note_off_c, 3, 55, 64
5, 22396, Note_off_c, 3, 43, 64
5, 22400, Note_on_c, 3, 70, 62
5, 22400, Note_on_c, 3, 64, 62
5, 22400, Note_on_c, 3, 60, 62
5, 22524, Note_off_c, 3, 70, 64
5, 22524, Note_off_c, 3, 64, 64
5, 22524, Note_off_c, 3, 60, 64
5, 22528, Note_on_c, 3, 70, 62
5, 22528, Note_on_c, 3, 64, 62
5, 22528, Note_on_c, 3, 60, 62
5, 22652, Note_off_c, 3, 70, 64
5, 22652, Note_off_c, 3, 64, 64
5, 22652, Note_off_c, 3, 60, 64
5, 22656, Note_on_c, 3, 70, 62
5, 22656, Note_on_c, 3, 67, 62
5, 22656, Note_on_c, 3, 60, 62
5, 22780, Note_off_c, 3, 70, 64
5, 22780, Note_off_c, 3, 67, 64
5, 22780, Note_off_c, 3, 60, 64
5, 22784, Note_on_c, 3, 70, 62
5, 22784, Note_on_c, 3, 67, 62
5, 22784, Note_on_c, 3, 60, 62
5, 22908, Note_off_c, 3, 70, 64
5, 22908, Note_off_c, 3, 67, 64
5, 22908, Note_off_c, 3, 60, 64
5, 22912, Note_on_c, 3, 70, 62
5, 22912, Note_on_c, 3, 67, 62
5, 22912, Note_on_c, 3, 60, 62
5, 23036, Note_off_c, 3, 70, 64
5, 23036, Note_off_c, 3, 67, 64
5, 23036, Note_off_c, 3, 60, 64
5, 23040, Note_on_c, 3, 48, 65
5, 23040, Note_on_c, 3, 36, 69
5, 23164, Note_off_c, 3, 48, 64
5, 23164, Note_off_c, 3, 36, 64
5, 23168, Note_on_c, 3, 70, 62
5, 23168, Note_on_c, 3, 65, 62
5, 23168, Note_on_c, 3, 59, 62
5, 23292, Note_off_c, 3, 70, 64
5, 23292, Note_off_c, 3, 65, 64
5, 23292, Note_off_c, 3, 59, 64
5, 23296, Note_on_c, 3, 70, 62
5, 23296, Note_on_c, 3, 65, 62
5, 23296, Note_on_c, 3, 59, 62
5, 23420, Note_off_c, 3, 70, 64
5, 23420, Note_off_c, 3, 65, 64
5, 23420, Note_off_c, 3, 59, 64
5, 23424, Note_on_c, 3, 53, 65
5, 23424, Note_on_c, 3, 41, 66
5, 23548, Note_off_c, 3, 53, 64
5, 23548, Note_off_c, 3, 41, 64
5, 23552, Note_on_c, 3, 59, 62
5, 23552, Note_on_c, 3, 65, 62
5, 23552, Note_on_c, 3, 68, 62
5, 23676, Note_off_c, 3, 59, 64
5, 23676, Note_off_c, 3, 65, 64
5, 23676, Note_off_c, 3, 68, 64
5, 23680, Note_on_c, 3, 59, 62
5, 23680, Note_on_c, 3, 68, 62
5, 23680, Note_on_c, 3, 65, 62
5, 23804, Note_off_c, 3, 59, 64
5, 23804, Note_off_c, 3, 68, 64
5, 23804, Note_off_c, 3, 65, 64
5, 23808, Note_on_c, 3, 56, 65
5, 23808, Note_on_c, 3, 44, 65
5, 23932, Note_off_c, 3, 56, 64
5, 23932, Note_off_c, 3, 44, 64
5, 23936, Note_on_c, 3, 71, 62
5, 23936, Note_on_c, 3, 65, 62
5, 23936, Note_on_c, 3, 62, 62
5, 24060, Note_off_c, 3, 71, 64
5, 24060, Note_off_c, 3, 65, 64
5, 24060, Note_off_c, 3, 62, 64
5, 24064, Note_on_c, 3, 71, 62
5, 24064, Note_on_c, 3, 65, 62
5, 24064, Note_on_c, 3, 62, 62
5, 24188, Note_off_c, 3, 71, 64
5, 24188, Note_off_c, 3, 65, 64
5, 24188, Note_off_c, 3, 62, 64
5, 24192, Note_on_c, 3, 71, 62
5, 24192, Note_on_c, 3, 68, 62
5, 24192, Note_on_c, 3, 65, 62
5, 24316, Note_off_c, 3, 71, 64
5, 24316, Note_off_c, 3, 68, 64
5, 24316, Note_off_c, 3, 65, 64
5, 24320, Note_on_c, 3, 71, 62
5, 24320, Note_on_c, 3, 68, 62
5, 24320, Note_on_c, 3, 65, 62
5, 24444, Note_off_c, 3, 71, 64
5, 24444, Note_off_c, 3, 68, 64
5, 24444, Note_off_c, 3, 65, 64
5, 24448, Note_on_c, 3, 71, 62
5, 24448, Note_on_c, 3, 68, 62
5, 24448, Note_on_c, 3, 65, 62
5, 24572, Note_off_c, 3, 71, 64
5, 24572, Note_off_c, 3, 68, 64
5, 24572, Note_off_c, 3, 65, 64
5, 24576, Note_on_c, 3, 48, 64
5, 24576, Note_on_c, 3, 36, 68
5, 24764, Note_off_c, 3, 48, 64
5, 24764, Note_off_c, 3, 36, 64
5, 24960, Note_on_c, 3, 55, 62
5, 24960, Note_on_c, 3, 43, 62
5, 25148, Note_off_c, 3, 55, 64
5, 25148, Note_off_c, 3, 43, 64
5, 25344, Note_on_c, 3, 58, 62
5, 25344, Note_on_c, 3, 46, 62
5, 25532, Note_off_c, 3, 58, 64
5, 25532, Note_off_c, 3, 46, 64
5, 25728, Note_on_c, 3, 46, 64
5, 25728, Note_on_c, 3, 34, 69
5, 25852, Note_off_c, 3, 46, 64
5, 25852, Note_off_c, 3, 34, 64
5, 25856, Note_on_c, 3, 64, 62
5, 25856, Note_on_c, 3, 60, 62
5, 25856, Note_on_c, 3, 55, 62
5, 25980, Note_off_c, 3, 64, 64
5, 25980, Note_off_c, 3, 60, 64
5, 25980, Note_off_c, 3, 55, 64
5, 25984, Note_on_c, 3, 64, 62
5, 25984, Note_on_c, 3, 60, 62
5, 25984, Note_on_c, 3, 55, 62
5, 26108, Note_off_c, 3, 64, 64
5, 26108, Note_off_c, 3, 60, 64
5, 26108, Note_off_c, 3, 55, 64
5, 26112, Note_on_c, 3, 45, 64
5, 26112, Note_on_c, 3, 33, 70
5, 26236, Note_off_c, 3, 45, 64
5, 26236, Note_off_c, 3, 33, 64
5, 26240, Note_on_c, 3, 57, 62
5, 26240, Note_on_c, 3, 60, 62
5, 26240, Note_on_c, 3, 65, 62
5, 26364, Note_off_c, 3, 57, 64
5, 26364, Note_off_c, 3, 60, 64
5, 26364, Note_off_c, 3, 65, 64
5, 26368, Note_on_c, 3, 57, 62
5, 26368, Note_on_c, 3, 60, 62
5, 26368, Note_on_c, 3, 65, 62
5, 26492, Note_off_c, 3, 57, 64
5, 26492, Note_off_c, 3, 60, 64
5, 26492, Note_off_c, 3, 65, 64
5, 26496, Note_on_c, 3, 41, 66
5, 26496, Note_on_c, 3, 53, 64
5, 26620, Note_off_c, 3, 41, 64
5, 26620, Note_off_c, 3, 53, 64
5, 26624, Note_on_c, 3, 57, 62
5, 26624, Note_on_c, 3, 60, 62
5, 26624, Note_on_c, 3, 65, 62
5, 26748, Note_off_c, 3, 57, 64
5, 26748, Note_off_c, 3, 60, 64
5, 26748, Note_off_c, 3, 65, 64
5, 26752, Note_on_c, 3, 57, 62
5, 26752, Note_on_c, 3, 60, 62
5, 26752, Note_on_c, 3, 65, 62
5, 26876, Note_off_c, 3, 57, 64
5, 26876, Note_off_c, 3, 60, 64
5, 26876, Note_off_c, 3, 65, 64
5, 26880, Note_on_c, 3, 34, 64
5, 26880, Note_on_c, 3, 46, 64
5, 27004, Note_off_c, 3, 34, 64
5, 27004, Note_off_c, 3, 46, 64
5, 27008, Note_on_c, 3, 55, 62
5, 27008, Note_on_c, 3, 62, 62
5, 27008, Note_on_c, 3, 65, 62
5, 27132, Note_off_c, 3, 55, 64
5, 27132, Note_off_c, 3, 62, 64
5, 27132, Note_off_c, 3, 65, 64
5, 27136, Note_on_c, 3, 55, 62
5, 27136, Note_on_c, 3, 62, 62
5, 27136, Note_on_c, 3, 65, 62
5, 27260, Note_off_c, 3, 55, 64
5, 27260, Note_off_c, 3, 62, 64
5, 27260, Note_off_c, 3, 65, 64
5, 27264, Note_on_c, 3, 55, 64
5, 27264, Note_on_c, 3, 43, 66
5, 27388, Note_off_c, 3, 55, 64
5, 27388, Note_off_c, 3, 43, 64
5, 27392, Note_on_c, 3, 55, 62
5, 27392, Note_on_c, 3, 62, 62
5, 27392, Note_on_c, 3, 65, 62
5, 27516, Note_off_c, 3, 55, 64
5, 27516, Note_off_c, 3, 62, 64
5, 27516, Note_off_c, 3, 65, 64
5, 27520, Note_on_c, 3, 55, 62
5, 27520, Note_on_c, 3, 62, 62
5, 27520, Note_on_c, 3, 65, 62
5, 27644, Note_off_c, 3, 55, 64
5, 27644, Note_off_c, 3, 62, 64
5, 27644, Note_off_c, 3, 65, 64
5, 27648, Note_on_c, 3, 48, 64
5, 27648, Note_on_c, 3, 36, 68
5, 27772, Note_off_c, 3, 48, 64
5, 27772, Note_off_c, 3, 36, 64
5, 27776, Note_on_c, 3, 55, 62
5, 27776, Note_on_c, 3, 60, 62
5, 27776, Note_on_c, 3, 65, 62
5, 27900, Note_off_c, 3, 55, 64
5, 27900, Note_off_c, 3, 60, 64
5, 27900, Note_off_c, 3, 65, 64
5, 27904, Note_on_c, 3, 55, 62
5, 27904, Note_on_c, 3, 60, 62
5, 27904, Note_on_c, 3, 65, 62
5, 28028, Note_off_c, 3, 55, 64
5, 28028, Note_off_c, 3, 60, 64
5, 28028, Note_off_c, 3, 65, 64
5, 28032, Note_on_c, 3, 46, 65
5, 28032, Note_on_c, 3, 34, 69
5, 28156, Note_off_c, 3, 46, 64
5, 28156, Note_off_c, 3, 34, 64
5, 28160, Note_on_c, 3, 55, 62
5, 28160, Note_on_c, 3, 62, 62
5, 28160, Note_on_c, 3, 65, 62
5, 28284, Note_off_c, 3, 55, 64
5, 28284, Note_off_c, 3, 62, 64
5, 28284, Note_off_c, 3, 65, 64
5, 28288, Note_on_c, 3, 55, 62
5, 28288, Note_on_c, 3, 62, 62
5, 28288, Note_on_c, 3, 65, 62
5, 28412, Note_off_c, 3, 55, 64
5, 28412, Note_off_c, 3, 62, 64
5, 28412, Note_off_c, 3, 65, 64
5, 28416, Note_on_c, 3, 48, 64
5, 28416, Note_on_c, 3, 36, 67
5, 28540, Note_off_c, 3, 48, 64
5, 28540, Note_off_c, 3, 36, 64
5, 28544, Note_on_c, 3, 55, 62
5, 28544, Note_on_c, 3, 60, 62
5, 28544, Note_on_c, 3, 65, 62
5, 28668, Note_off_c, 3, 55, 64
5, 28668, Note_off_c, 3, 60, 64
5, 28668, Note_off_c, 3, 65, 64
5, 28672, Note_on_c, 3, 55, 62
5, 28672, Note_on_c, 3, 60, 62
5, 28672, Note_on_c, 3, 65, 62
5, 28796, Note_off_c, 3, 55, 64
5, 28796, Note_off_c, 3, 60, 64
5, 28796, Note_off_c, 3, 65, 64
5, 28800, Note_on_c, 3, 48, 64
5, 28800, Note_on_c, 3, 36, 68
5, 28924, Note_off_c, 3, 48, 64
5, 28924, Note_off_c, 3, 36, 64
5, 28928, Note_on_c, 3, 55, 62
5, 28928, Note_on_c, 3, 60, 62
5, 28928, Note_on_c, 3, 64, 62
5, 29052, Note_off_c, 3, 55, 64
5, 29052, Note_off_c, 3, 60, 64
5, 29052, Note_off_c, 3, 64, 64
5, 29056, Note_on_c, 3, 55, 62
5, 29056, Note_on_c, 3, 60, 62
5, 29056, Note_on_c, 3, 64, 62
5, 29180, Note_off_c, 3, 55, 64
5, 29180, Note_off_c, 3, 60, 64
5, 29180, Note_off_c, 3, 64, 64
5, 29184, Note_on_c, 3, 49, 64
5, 29184, Note_on_c, 3, 37, 68
5, 29308, Note_off_c, 3, 49, 64
5, 29308, Note_off_c, 3, 37, 64
5, 29312, Note_on_c, 3, 55, 62
5, 29312, Note_on_c, 3, 64, 62
5, 29436, Note_off_c, 3, 55, 64
5, 29436, Note_off_c, 3, 64, 64
5, 29440, Note_on_c, 3, 55, 62
5, 29440, Note_on_c, 3, 64, 65
5, 29564, Note_off_c, 3, 55, 64
5, 29564, Note_off_c, 3, 64, 64
5, 29568, Note_on_c, 3, 50, 64
5, 29568, Note_on_c, 3, 38, 64
5, 29692, Note_off_c, 3, 50, 64
5, 29692, Note_off_c, 3, 38, 64
5, 29696, Note_on_c, 3, 53, 62
5, 29696, Note_on_c, 3, 65, 62
5, 29820, Note_off_c, 3, 53, 64
5, 29820, Note_off_c, 3, 65, 64
5, 29824, Note_on_c, 3, 53, 62
5, 29824, Note_on_c, 3, 65, 62
5, 29948, Note_off_c, 3, 53, 64
5, 29948, Note_off_c, 3, 65, 64
5, 29952, Note_on_c, 3, 48, 64
5, 29952, Note_on_c, 3, 36, 68
5, 30076, Note_off_c, 3, 48, 64
5, 30076, Note_off_c, 3, 36, 64
5, 30080, Note_on_c, 3, 57, 62
5, 30080, Note_on_c, 3, 65, 62
5, 30204, Note_off_c, 3, 57, 64
5, 30204, Note_off_c, 3, 65, 64
5, 30208, Note_on_c, 3, 57, 62
5, 30208, Note_on_c, 3, 65, 62
5, 30332, Note_off_c, 3, 57, 64
5, 30332, Note_off_c, 3, 65, 64
5, 30336, Note_on_c, 3, 46, 64
5, 30336, Note_on_c, 3, 34, 69
5, 30460, Note_off_c, 3, 46, 64
5, 30460, Note_off_c, 3, 34, 64
5, 30464, Note_on_c, 3, 60, 62
5, 30464, Note_on_c, 3, 67, 62
5, 30588, Note_off_c, 3, 60, 64
5, 30588, Note_off_c, 3, 67, 64
5, 30592, Note_on_c, 3, 60, 62
5, 30592, Note_on_c, 3, 67, 62
5, 30716, Note_off_c, 3, 60, 64
5, 30716, Note_off_c, 3, 67, 64
5, 30720, Note_on_c, 3, 45, 64
5, 30720, Note_on_c, 3, 33, 70
5, 30844, Note_off_c, 3, 45, 64
5, 30844, Note_off_c, 3, 33, 64
5, 30848, Note_on_c, 3, 57, 62
5, 30848, Note_on_c, 3, 60, 62
5, 30848, Note_on_c, 3, 65, 62
5, 30972, Note_off_c, 3, 57, 64
5, 30972, Note_off_c, 3, 60, 64
5, 30972, Note_off_c, 3, 65, 64
5, 30976, Note_on_c, 3, 57, 62
5, 30976, Note_on_c, 3, 60, 62
5, 30976, Note_on_c, 3, 65, 62
5, 31100, Note_off_c, 3, 57, 64
5, 31100, Note_off_c, 3, 60, 64
5, 31100, Note_off_c, 3, 65, 64
5, 31104, Note_on_c, 3, 53, 64
5, 31104, Note_on_c, 3, 41, 66
5, 31228, Note_off_c, 3, 53, 64
5, 31228, Note_off_c, 3, 41, 64
5, 31232, Note_on_c, 3, 57, 62
5, 31232, Note_on_c, 3, 60, 62
5, 31232, Note_on_c, 3, 65, 62
5, 31356, Note_off_c, 3, 57, 64
5, 31356, Note_off_c, 3, 60, 64
5, 31356, Note_off_c, 3, 65, 64
5, 31360, Note_on_c, 3, 57, 62
5, 31360, Note_on_c, 3, 60, 62
5, 31360, Note_on_c, 3, 65, 62
5, 31484, Note_off_c, 3, 57, 64
5, 31484, Note_off_c, 3, 60, 64
5, 31484, Note_off_c, 3, 65, 64
5, 31488, Note_on_c, 3, 46, 64
5, 31488, Note_on_c, 3, 34, 69
5, 31612, Note_off_c, 3, 46, 64
5, 31612, Note_off_c, 3, 34, 64
5, 31616, Note_on_c, 3, 55, 62
5, 31616, Note_on_c, 3, 62, 62
5, 31616, Note_on_c, 3, 65, 62
5, 31740, Note_off_c, 3, 55, 64
5, 31740, Note_off_c, 3, 62, 64
5, 31740, Note_off_c, 3, 65, 64
5, 31744, Note_on_c, 3, 55, 62
5, 31744, Note_on_c, 3, 62, 62
5, 31744, Note_on_c, 3, 65, 62
5, 31868, Note_off_c, 3, 55, 64
5, 31868, Note_off_c, 3, 62, 64
5, 31868, Note_off_c, 3, 65, 64
5, 31872, Note_on_c, 3, 55, 64
5, 31872, Note_on_c, 3, 43, 67
5, 31996, Note_off_c, 3, 55, 64
5, 31996, Note_off_c, 3, 43, 64
5, 32000, Note_on_c, 3, 55, 62
5, 32000, Note_on_c, 3, 62, 62
5, 32000, Note_on_c, 3, 65, 62
5, 32124, Note_off_c, 3, 55, 64
5, 32124, Note_off_c, 3, 62, 64
5, 32124, Note_off_c, 3, 65, 64
5, 32128, Note_on_c, 3, 55, 62
5, 32128, Note_on_c, 3, 62, 62
5, 32128, Note_on_c, 3, 65, 62
5, 32252, Note_off_c, 3, 55, 64
5, 32252, Note_off_c, 3, 62, 64
5, 32252, Note_off_c, 3, 65, 64
5, 32256, Note_on_c, 3, 48, 64
5, 32256, Note_on_c, 3, 36, 68
5, 32380, Note_off_c, 3, 48, 64
5, 32380, Note_off_c, 3, 36, 64
5, 32384, Note_on_c, 3, 55, 62
5, 32384, Note_on_c, 3, 60, 62
5, 32384, Note_on_c, 3, 65, 62
5, 32508, Note_off_c, 3, 55, 64
5, 32508, Note_off_c, 3, 60, 64
5, 32508, Note_off_c, 3, 65, 64
5, 32512, Note_on_c, 3, 55, 62
5, 32512, Note_on_c, 3, 60, 62
5, 32512, Note_on_c, 3, 65, 62
5, 32636, Note_off_c, 3, 55, 64
5, 32636, Note_off_c, 3, 60, 64
5, 32636, Note_off_c, 3, 65, 64
5, 32640, Note_on_c, 3, 48, 64
5, 32640, Note_on_c, 3, 34, 69
5, 32764, Note_off_c, 3, 48, 64
5, 32764, Note_off_c, 3, 34, 64
5, 32768, Note_on_c, 3, 55, 62
5, 32768, Note_on_c, 3, 62, 62
5, 32768, Note_on_c, 3, 65, 62
5, 32892, Note_off_c, 3, 55, 64
5, 32892, Note_off_c, 3, 62, 64
5, 32892, Note_off_c, 3, 65, 64
5, 32896, Note_on_c, 3, 55, 62
5, 32896, Note_on_c, 3, 62, 62
5, 32896, Note_on_c, 3, 65, 62
5, 33020, Note_off_c, 3, 55, 64
5, 33020, Note_off_c, 3, 62, 64
5, 33020, Note_off_c, 3, 65, 64
5, 33024, Note_on_c, 3, 48, 64
5, 33024, Note_on_c, 3, 36, 68
5, 33148, Note_off_c, 3, 48, 64
5, 33148, Note_off_c, 3, 36, 64
5, 33152, Note_on_c, 3, 55, 62
5, 33152, Note_on_c, 3, 60, 62
5, 33152, Note_on_c, 3, 65, 62
5, 33276, Note_off_c, 3, 55, 64
5, 33276, Note_off_c, 3, 60, 64
5, 33276, Note_off_c, 3, 65, 64
5, 33280, Note_on_c, 3, 55, 62
5, 33280, Note_on_c, 3, 60, 62
5, 33280, Note_on_c, 3, 65, 62
5, 33404, Note_off_c, 3, 55, 64
5, 33404, Note_off_c, 3, 60, 64
5, 33404, Note_off_c, 3, 65, 64
5, 33408, Note_on_c, 3, 48, 64
5, 33408, Note_on_c, 3, 36, 68
5, 33532, Note_off_c, 3, 48, 64
5, 33532, Note_off_c, 3, 36, 64
5, 33536, Note_on_c, 3, 58, 62
5, 33536, Note_on_c, 3, 60, 62
5, 33536, Note_on_c, 3, 64, 62
5, 33660, Note_off_c, 3, 58, 64
5, 33660, Note_off_c, 3, 60, 64
5, 33660, Note_off_c, 3, 64, 64
5, 33664, Note_on_c, 3, 58, 62
5, 33664, Note_on_c, 3, 60, 62
5, 33664, Note_on_c, 3, 64, 62
5, 33788, Note_off_c, 3, 58, 64
5, 33788, Note_off_c, 3, 60, 64
5, 33788, Note_off_c, 3, 64, 64
5, 33792, Note_on_c, 3, 53, 64
5, 33792, Note_on_c, 3, 41, 66
5, 33916, Note_off_c, 3, 53, 64
5, 33916, Note_off_c, 3, 41, 64
5, 33920, Note_on_c, 3, 60, 62
5, 33920, Note_on_c, 3, 57, 62
5, 33920, Note_on_c, 3, 53, 62
5, 34044, Note_off_c, 3, 60, 64
5, 34044, Note_off_c, 3, 57, 64
5, 34044, Note_off_c, 3, 53, 64
5, 34048, Note_on_c, 3, 60, 62
5, 34048, Note_on_c, 3, 57, 62
5, 34048, Note_on_c, 3, 53, 62
5, 34172, Note_off_c, 3, 60, 64
5, 34172, Note_off_c, 3, 57, 64
5, 34172, Note_off_c, 3, 53, 64
5, 34176, Note_on_c, 3, 60, 64
5, 34176, Note_on_c, 3, 57, 64
5, 34176, Note_on_c, 3, 53, 64
5, 34300, Note_off_c, 3, 60, 64
5, 34300, Note_off_c, 3, 57, 64
5, 34300, Note_off_c, 3, 53, 64
5, 34304, Note_on_c, 3, 57, 62
5, 34304, Note_on_c, 3, 53, 62
5, 34428, Note_off_c, 3, 57, 64
5, 34428, Note_off_c, 3, 53, 64
5, 34432, Note_on_c, 3, 57, 62
5, 34432, Note_on_c, 3, 53, 62
5, 34556, Note_off_c, 3, 57, 64
5, 34556, Note_off_c, 3, 53, 64
5, 34560, Note_on_c, 3, 57, 64
5, 34560, Note_on_c, 3, 53, 64
5, 34684, Note_off_c, 3, 57, 64
5, 34684, Note_off_c, 3, 53, 64
5, 34688, Note_on_c, 3, 53, 62
5, 34688, Note_on_c, 3, 48, 62
5, 34688, Note_on_c, 3, 41, 64
5, 34812, Note_off_c, 3, 53, 64
5, 34812, Note_off_c, 3, 48, 64
5, 34812, Note_off_c, 3, 41, 64
5, 34816, Note_on_c, 3, 53, 62
5, 34816, Note_on_c, 3, 48, 62
5, 34816, Note_on_c, 3, 41, 64
5, 34940, Note_off_c, 3, 53, 64
5, 34940, Note_off_c, 3, 48, 64
5, 34940, Note_off_c, 3, 41, 64
5, 34944, Note_on_c, 3, 53, 62
5, 34944, Note_on_c, 3, 48, 62
5, 34944, Note_on_c, 3, 41, 64
5, 35068, Note_off_c, 3, 53, 64
5, 35068, Note_off_c, 3, 48, 64
5, 35068, Note_off_c, 3, 41, 64
5, 35072, Note_on_c, 3, 53, 62
5, 35072, Note_on_c, 3, 48, 62
5, 35072, Note_on_c, 3, 41, 64
5, 35196, Note_off_c, 3, 53, 64
5, 35196, Note_off_c, 3, 48, 64
5, 35196, Note_off_c, 3, 41, 64
5, 35200, Note_on_c, 3, 53, 62
5, 35200, Note_on_c, 3, 48, 62
5, 35200, Note_on_c, 3, 41, 64
5, 35324, Note_off_c, 3, 53, 64
5, 35324, Note_off_c, 3, 48, 64
5, 35324, Note_off_c, 3, 41, 64
5, 35328, Note_on_c, 3, 53, 62
5, 35328, Note_on_c, 3, 48, 62
5, 35328, Note_on_c, 3, 41, 64
5, 35328, Note_on_c, 3, 57, 62
5, 35328, Note_on_c, 3, 60, 62
5, 35508, Note_off_c, 3, 57, 64
5, 35508, Note_off_c, 3, 60, 64
5, 35516, Note_off_c, 3, 53, 64
5, 35516, Note_off_c, 3, 48, 64
5, 35516, Note_off_c, 3, 41, 64
5, 35712, Note_on_c, 3, 57, 62
5, 35712, Note_on_c, 3, 45, 63
5, 35900, Note_off_c, 3, 57, 64
5, 35900, Note_off_c, 3, 45, 64
5, 36096, Note_on_c, 3, 60, 62
5, 36096, Note_on_c, 3, 48, 62
5, 36284, Note_off_c, 3, 60, 64
5, 36284, Note_off_c, 3, 48, 64
5, 36864, Note_on_c, 3, 53, 62
5, 36864, Note_on_c, 3, 41, 64
5, 37052, Note_off_c, 3, 53, 64
5, 37052, Note_off_c, 3, 41, 64
5, 37248, Note_on_c, 3, 57, 62
5, 37248, Note_on_c, 3, 45, 63
5, 37436, Note_off_c, 3, 57, 64
5, 37436, Note_off_c, 3, 45, 64
5, 37632, Note_on_c, 3, 60, 62
5, 37632, Note_on_c, 3, 48, 62
5, 37820, Note_off_c, 3, 60, 64
5, 37820, Note_off_c, 3, 48, 64
5, 38400, Note_on_c, 3, 53, 62
5, 38400, Note_on_c, 3, 41, 64
5, 38588, Note_off_c, 3, 53, 64
5, 38588, Note_off_c, 3, 41, 64
5, 38784, Note_on_c, 3, 57, 62
5, 38784, Note_on_c, 3, 45, 63
5, 38972, Note_off_c, 3, 57, 64
5, 38972, Note_off_c, 3, 45, 64
5, 39168, Note_on_c, 3, 60, 62
5, 39168, Note_on_c, 3, 48, 62
5, 39356, Note_off_c, 3, 60, 64
5, 39356, Note_off_c, 3, 48, 64
5, 39552, Note_on_c, 3, 53, 62
5, 39552, Note_on_c, 3, 41, 62
5, 39740, Note_off_c, 3, 53, 64
5, 39740, Note_off_c, 3, 41, 64
5, 39936, Note_on_c, 3, 48, 62
5, 39936, Note_on_c, 3, 36, 66
5, 40124, Note_off_c, 3, 48, 64
5, 40124, Note_off_c, 3, 36, 64
5, 40320, Note_on_c, 3, 52, 62
5, 40320, Note_on_c, 3, 40, 64
5, 40508, Note_off_c, 3, 52, 64
5, 40508, Note_off_c, 3, 40, 64
5, 40704, Note_on_c, 3, 55, 62
5, 40704, Note_on_c, 3, 43, 62
5, 40892, Note_off_c, 3, 55, 64
5, 40892, Note_off_c, 3, 43, 64
5, 41472, Note_on_c, 3, 48, 62
5, 41472, Note_on_c, 3, 36, 66
5, 41660, Note_off_c, 3, 48, 64
5, 41660, Note_off_c, 3, 36, 64
5, 41856, Note_on_c, 3, 52, 62
5, 41856, Note_on_c, 3, 40, 65
5, 42044, Note_off_c, 3, 52, 64
5, 42044, Note_off_c, 3, 40, 64
5, 42240, Note_on_c, 3, 55, 64
5, 42240, Note_on_c, 3, 43, 66
5, 42428, Note_off_c, 3, 55, 64
5, 42428, Note_off_c, 3, 43, 64
5, 43008, Note_on_c, 3, 48, 64
5, 43008, Note_on_c, 3, 36, 68
5, 43196, Note_off_c, 3, 48, 64
5, 43196, Note_off_c, 3, 36, 64
5, 43392, Note_on_c, 3, 52, 67
5, 43408, Note_on_c, 3, 40, 66
5, 43580, Note_off_c, 3, 52, 64
5, 43596, Note_off_c, 3, 40, 64
5, 43776, Note_on_c, 3, 55, 62
5, 43776, Note_on_c, 3, 43, 62
5, 43964, Note_off_c, 3, 55, 64
5, 43964, Note_off_c, 3, 43, 64
5, 44160, Note_on_c, 3, 48, 62
5, 44160, Note_on_c, 3, 36, 62
5, 44348, Note_off_c, 3, 48, 64
5, 44348, Note_off_c, 3, 36, 64
5, 44544, Note_on_c, 3, 53, 62
5, 44544, Note_on_c, 3, 41, 64
5, 44732, Note_off_c, 3, 53, 64
5, 44732, Note_off_c, 3, 41, 64
5, 44928, Note_on_c, 3, 57, 62
5, 44928, Note_on_c, 3, 45, 63
5, 45116, Note_off_c, 3, 57, 64
5, 45116, Note_off_c, 3, 45, 64
5, 45312, Note_on_c, 3, 60, 62
5, 45312, Note_on_c, 3, 48, 62
5, 45500, Note_off_c, 3, 60, 64
5, 45500, Note_off_c, 3, 48, 64
5, 46080, Note_on_c, 3, 45, 62
5, 46080, Note_on_c, 3, 33, 67
5, 46268, Note_off_c, 3, 45, 64
5, 46268, Note_off_c, 3, 33, 64
5, 46464, Note_on_c, 3, 48, 62
5, 46464, Note_on_c, 3, 36, 66
5, 46652, Note_off_c, 3, 48, 64
5, 46652, Note_off_c, 3, 36, 64
5, 46848, Note_on_c, 3, 53, 62
5, 46848, Note_on_c, 3, 41, 64
5, 47036, Note_off_c, 3, 53, 64
5, 47036, Note_off_c, 3, 41, 64
5, 47616, Note_on_c, 3, 46, 62
5, 47616, Note_on_c, 3, 34, 67
5, 47804, Note_off_c, 3, 46, 64
5, 47804, Note_off_c, 3, 34, 64
5, 47984, Note_on_c, 3, 50, 62
5, 48000, Note_on_c, 3, 38, 65
5, 48172, Note_off_c, 3, 50, 64
5, 48188, Note_off_c, 3, 38, 64
5, 48384, Note_on_c, 3, 53, 62
5, 48384, Note_on_c, 3, 41, 64
5, 48572, Note_off_c, 3, 53, 64
5, 48572, Note_off_c, 3, 41, 64
5, 49152, Note_on_c, 3, 47, 62
5, 49152, Note_on_c, 3, 35, 67
5, 49340, Note_off_c, 3, 47, 64
5, 49340, Note_off_c, 3, 35, 64
5, 49536, Note_on_c, 3, 50, 62
5, 49536, Note_on_c, 3, 38, 65
5, 49724, Note_off_c, 3, 50, 64
5, 49724, Note_off_c, 3, 38, 64
5, 49920, Note_on_c, 3, 53, 62
5, 49920, Note_on_c, 3, 41, 64
5, 50108, Note_off_c, 3, 53, 64
5, 50108, Note_off_c, 3, 41, 64
5, 50688, Note_on_c, 3, 48, 62
5, 50688, Note_on_c, 3, 36, 66
5, 50876, Note_off_c, 3, 48, 64
5, 50876, Note_off_c, 3, 36, 64
5, 51072, Note_on_c, 3, 53, 62
5, 51072, Note_on_c, 3, 41, 64
5, 51260, Note_off_c, 3, 53, 64
5, 51260, Note_off_c, 3, 41, 64
5, 51456, Note_on_c, 3, 57, 62
5, 51456, Note_on_c, 3, 45, 62
5, 51644, Note_off_c, 3, 57, 64
5, 51644, Note_off_c, 3, 45, 64
5, 51840, Note_on_c, 3, 60, 62
5, 51840, Note_on_c, 3, 48, 62
5, 52028, Note_off_c, 3, 60, 64
5, 52028, Note_off_c, 3, 48, 64
5, 52224, Note_on_c, 3, 58, 62
5, 52224, Note_on_c, 3, 46, 62
5, 52412, Note_off_c, 3, 58, 64
5, 52412, Note_off_c, 3, 46, 64
5, 52608, Note_on_c, 3, 55, 62
5, 52608, Note_on_c, 3, 43, 63
5, 52796, Note_off_c, 3, 55, 64
5, 52796, Note_off_c, 3, 43, 64
5, 52992, Note_on_c, 3, 60, 62
5, 52992, Note_on_c, 3, 48, 62
5, 53180, Note_off_c, 3, 60, 64
5, 53180, Note_off_c, 3, 48, 64
5, 53376, Note_on_c, 3, 48, 62
5, 53376, Note_on_c, 3, 36, 66
5, 53564, Note_off_c, 3, 48, 64
5, 53564, Note_off_c, 3, 36, 64
5, 53760, Note_on_c, 3, 53, 62
5, 53760, Note_on_c, 3, 41, 64
5, 53948, Note_off_c, 3, 53, 64
5, 53948, Note_off_c, 3, 41, 64
5, 54144, Note_on_c, 3, 57, 62
5, 54144, Note_on_c, 3, 45, 63
5, 54332, Note_off_c, 3, 57, 64
5, 54332, Note_off_c, 3, 45, 64
5, 54528, Note_on_c, 3, 60, 62
5, 54528, Note_on_c, 3, 48, 62
5, 54716, Note_off_c, 3, 60, 64
5, 54716, Note_off_c, 3, 48, 64
5, 55296, Note_on_c, 3, 52, 62
5, 55296, Note_on_c, 3, 40, 65
5, 55484, Note_off_c, 3, 52, 64
5, 55484, Note_off_c, 3, 40, 64
5, 55680, Note_on_c, 3, 55, 62
5, 55680, Note_on_c, 3, 43, 64
5, 55868, Note_off_c, 3, 55, 64
5, 55868, Note_off_c, 3, 43, 64
5, 56064, Note_on_c, 3, 57, 62
5, 56064, Note_on_c, 3, 45, 63
5, 56252, Note_off_c, 3, 57, 64
5, 56252, Note_off_c, 3, 45, 64
5, 56448, Note_on_c, 3, 45, 62
5, 56448, Note_on_c, 3, 33, 68
5, 56636, Note_off_c, 3, 45, 64
5, 56636, Note_off_c, 3, 33, 64
5, 56832, Note_on_c, 3, 50, 62
5, 56832, Note_on_c, 3, 38, 65
5, 57212, Note_off_c, 3, 50, 64
5, 57212, Note_off_c, 3, 38, 64
5, 57600, Note_on_c, 3, 50, 62
5, 57788, Note_off_c, 3, 50, 64
5, 57984, Note_on_c, 3, 45, 62
5, 58172, Note_off_c, 3, 45, 64
5, 58368, Note_on_c, 3, 50, 62
5, 58368, Note_on_c, 3, 38, 65
5, 58748, Note_off_c, 3, 50, 64
5, 58748, Note_off_c, 3, 38, 64
5, 59136, Note_on_c, 3, 50, 62
5, 59136, Note_on_c, 3, 38, 65
5, 59516, Note_off_c, 3, 50, 64
5, 59516, Note_off_c, 3, 38, 64
5, 59904, Note_on_c, 3, 48, 82
5, 59904, Note_on_c, 3, 36, 86
5, 60284, Note_off_c, 3, 48, 64
5, 60284, Note_off_c, 3, 36, 64
5, 60672, Note_on_c, 3, 48, 62
5, 60672, Note_on_c, 3, 36, 62
5, 61052, Note_off_c, 3, 48, 64
5, 61052, Note_off_c, 3, 36, 64
5, 61440, Note_on_c, 3, 53, 62
5, 61440, Note_on_c, 3, 41, 63
5, 61820, Note_off_c, 3, 53, 64
5, 61820, Note_off_c, 3, 41, 64
5, 62968, Program_c, 3, 45
5, 62976, Note_on_c, 3, 52, 62
5, 62976, Note_on_c, 3, 40, 64
5, 63164, Note_off_c, 3, 52, 64
5, 63164, Note_off_c, 3, 40, 64
5, 63360, Note_on_c, 3, 55, 62
5, 63360, Note_on_c, 3, 43, 62
5, 63548, Note_off_c, 3, 55, 64
5, 63548, Note_off_c, 3, 43, 64
5, 63744, Note_on_c, 3, 60, 62
5, 63744, Note_on_c, 3, 48, 62
5, 63932, Note_off_c, 3, 60, 64
5, 63932, Note_off_c, 3, 48, 64
5, 64512, Note_on_c, 3, 53, 62
5, 64512, Note_on_c, 3, 41, 63
5, 64700, Note_off_c, 3, 53, 64
5, 64700, Note_off_c, 3, 41, 64
5, 64896, Note_on_c, 3, 57, 62
5, 64896, Note_on_c, 3, 45, 62
5, 65084, Note_off_c, 3, 57, 64
5, 65084, Note_off_c, 3, 45, 64
5, 65280, Note_on_c, 3, 62, 62
5, 65280, Note_on_c, 3, 50, 62
5, 65468, Note_off_c, 3, 62, 64
5, 65468, Note_off_c, 3, 50, 64
5, 66048, Note_on_c, 3, 54, 62
5, 66048, Note_on_c, 3, 42, 62
5, 66236, Note_off_c, 3, 54, 64
5, 66236, Note_off_c, 3, 42, 64
5, 66432, Note_on_c, 3, 57, 62
5, 66432, Note_on_c, 3, 45, 62
5, 66620, Note_off_c, 3, 57, 64
5, 66620, Note_off_c, 3, 45, 64
5, 66816, Note_on_c, 3, 62, 62
5, 66816, Note_on_c, 3, 50, 62
5, 67004, Note_off_c, 3, 62, 64
5, 67004, Note_off_c, 3, 50, 64
5, 67584, Note_on_c, 3, 55, 62
5, 67584, Note_on_c, 3, 43, 64
5, 67964, Note_off_c, 3, 55, 64
5, 67964, Note_off_c, 3, 43, 64
5, 67964, Program_c, 3, 48
5, 67968, Note_on_c, 3, 59, 64
5, 67968, Note_on_c, 3, 50, 64
5, 68092, Note_off_c, 3, 59, 64
5, 68092, Note_off_c, 3, 50, 64
5, 68096, Note_on_c, 3, 59, 62
5, 68096, Note_on_c, 3, 50, 62
5, 68220, Note_off_c, 3, 59, 64
5, 68220, Note_off_c, 3, 50, 64
5, 68224, Note_on_c, 3, 59, 62
5, 68224, Note_on_c, 3, 50, 62
5, 68348, Note_off_c, 3, 59, 64
5, 68348, Note_off_c, 3, 50, 64
5, 68352, Note_on_c, 3, 60, 62
5, 68352, Note_on_c, 3, 48, 64
5, 68476, Note_off_c, 3, 60, 64
5, 68476, Note_off_c, 3, 48, 64
5, 68480, Note_on_c, 3, 60, 62
5, 68480, Note_on_c, 3, 48, 62
5, 68604, Note_off_c, 3, 60, 64
5, 68604, Note_off_c, 3, 48, 64
5, 68608, Note_on_c, 3, 60, 62
5, 68608, Note_on_c, 3, 48, 62
5, 68732, Note_off_c, 3, 60, 64
5, 68732, Note_off_c, 3, 48, 64
5, 68736, Note_on_c, 3, 60, 62
5, 68736, Note_on_c, 3, 55, 62
5, 68736, Note_on_c, 3, 51, 62
5, 68860, Note_off_c, 3, 60, 64
5, 68860, Note_off_c, 3, 55, 64
5, 68860, Note_off_c, 3, 51, 64
5, 68864, Note_on_c, 3, 60, 62
5, 68864, Note_on_c, 3, 55, 62
5, 68864, Note_on_c, 3, 51, 62
5, 68988, Note_off_c, 3, 60, 64
5, 68988, Note_off_c, 3, 55, 64
5, 68988, Note_off_c, 3, 51, 64
5, 68992, Note_on_c, 3, 60, 62
5, 68992, Note_on_c, 3, 55, 62
5, 68992, Note_on_c, 3, 51, 62
5, 69116, Note_off_c, 3, 60, 64
5, 69116, Note_off_c, 3, 55, 64
5, 69116, Note_off_c, 3, 51, 64
5, 69120, Note_on_c, 3, 43, 64
5, 69244, Note_off_c, 3, 43, 64
5, 69248, Note_on_c, 3, 60, 62
5, 69248, Note_on_c, 3, 53, 62
5, 69248, Note_on_c, 3, 50, 62
5, 69372, Note_off_c, 3, 60, 64
5, 69372, Note_off_c, 3, 53, 64
5, 69372, Note_off_c, 3, 50, 64
5, 69376, Note_on_c, 3, 60, 62
5, 69376, Note_on_c, 3, 53, 62
5, 69376, Note_on_c, 3, 50, 62
5, 69500, Note_off_c, 3, 60, 64
5, 69500, Note_off_c, 3, 53, 64
5, 69500, Note_off_c, 3, 50, 64
5, 69504, Note_on_c, 3, 50, 64
5, 69628, Note_off_c, 3, 50, 64
5, 69632, Note_on_c, 3, 59, 62
5, 69632, Note_on_c, 3, 56, 62
5, 69632, Note_on_c, 3, 53, 62
5, 69756, Note_off_c, 3, 59, 64
5, 69756, Note_off_c, 3, 56, 64
5, 69756, Note_off_c, 3, 53, 64
5, 69760, Note_on_c, 3, 59, 62
5, 69760, Note_on_c, 3, 56, 62
5, 69760, Note_on_c, 3, 53, 62
5, 69884, Note_off_c, 3, 59, 64
5, 69884, Note_off_c, 3, 56, 64
5, 69884, Note_off_c, 3, 53, 64
5, 69888, Note_on_c, 3, 53, 64
5, 70012, Note_off_c, 3, 53, 64
5, 70016, Note_on_c, 3, 62, 62
5, 70016, Note_on_c, 3, 59, 62
5, 70016, Note_on_c, 3, 56, 62
5, 70140, Note_off_c, 3, 62, 64
5, 70140, Note_off_c, 3, 59, 64
5, 70140, Note_off_c, 3, 56, 64
5, 70144, Note_on_c, 3, 62, 62
5, 70144, Note_on_c, 3, 59, 62
5, 70144, Note_on_c, 3, 56, 62
5, 70268, Note_off_c, 3, 62, 64
5, 70268, Note_off_c, 3, 59, 64
5, 70268, Note_off_c, 3, 56, 64
5, 70272, Note_on_c, 3, 62, 62
5, 70272, Note_on_c, 3, 59, 62
5, 70272, Note_on_c, 3, 56, 62
5, 70396, Note_off_c, 3, 62, 64
5, 70396, Note_off_c, 3, 59, 64
5, 70396, Note_off_c, 3, 56, 64
5, 70400, Note_on_c, 3, 62, 62
5, 70400, Note_on_c, 3, 59, 62
5, 70400, Note_on_c, 3, 56, 62
5, 70524, Note_off_c, 3, 62, 64
5, 70524, Note_off_c, 3, 59, 64
5, 70524, Note_off_c, 3, 56, 64
5, 70528, Note_on_c, 3, 62, 62
5, 70528, Note_on_c, 3, 59, 62
5, 70528, Note_on_c, 3, 56, 62
5, 70652, Note_off_c, 3, 62, 64
5, 70652, Note_off_c, 3, 59, 64
5, 70652, Note_off_c, 3, 56, 64
5, 70656, Note_on_c, 3, 43, 64
5, 70780, Note_off_c, 3, 43, 64
5, 70784, Note_on_c, 3, 62, 62
5, 70784, Note_on_c, 3, 55, 62
5, 70784, Note_on_c, 3, 51, 62
5, 70908, Note_off_c, 3, 62, 64
5, 70908, Note_off_c, 3, 55, 64
5, 70908, Note_off_c, 3, 51, 64
5, 70912, Note_on_c, 3, 62, 62
5, 70912, Note_on_c, 3, 55, 62
5, 70912, Note_on_c, 3, 51, 62
5, 71036, Note_off_c, 3, 62, 64
5, 71036, Note_off_c, 3, 55, 64
5, 71036, Note_off_c, 3, 51, 64
5, 71040, Note_on_c, 3, 51, 64
5, 71164, Note_off_c, 3, 51, 64
5, 71168, Note_on_c, 3, 60, 62
5, 71168, Note_on_c, 3, 55, 62
5, 71292, Note_off_c, 3, 60, 64
5, 71292, Note_off_c, 3, 55, 64
5, 71296, Note_on_c, 3, 60, 62
5, 71296, Note_on_c, 3, 55, 62
5, 71420, Note_off_c, 3, 60, 64
5, 71420, Note_off_c, 3, 55, 64
5, 71424, Note_on_c, 3, 55, 64
5, 71548, Note_off_c, 3, 55, 64
5, 71552, Note_on_c, 3, 63, 62
5, 71552, Note_on_c, 3, 60, 62
5, 71676, Note_off_c, 3, 63, 64
5, 71676, Note_off_c, 3, 60, 64
5, 71680, Note_on_c, 3, 63, 62
5, 71680, Note_on_c, 3, 60, 62
5, 71804, Note_off_c, 3, 63, 64
5, 71804, Note_off_c, 3, 60, 64
5, 71808, Note_on_c, 3, 63, 62
5, 71808, Note_on_c, 3, 60, 62
5, 71932, Note_off_c, 3, 63, 64
5, 71932, Note_off_c, 3, 60, 64
5, 71936, Note_on_c, 3, 63, 62
5, 71936, Note_on_c, 3, 60, 62
5, 72060, Note_off_c, 3, 63, 64
5, 72060, Note_off_c, 3, 60, 64
5, 72064, Note_on_c, 3, 63, 62
5, 72064, Note_on_c, 3, 60, 62
5, 72188, Note_off_c, 3, 63, 64
5, 72188, Note_off_c, 3, 60, 64
5, 72192, Note_on_c, 3, 45, 64
5, 72316, Note_off_c, 3, 45, 64
5, 72320, Note_on_c, 3, 59, 62
5, 72320, Note_on_c, 3, 56, 62
5, 72320, Note_on_c, 3, 63, 62
5, 72444, Note_off_c, 3, 59, 64
5, 72444, Note_off_c, 3, 56, 64
5, 72444, Note_off_c, 3, 63, 64
5, 72448, Note_on_c, 3, 63, 62
5, 72448, Note_on_c, 3, 59, 62
5, 72448, Note_on_c, 3, 56, 62
5, 72572, Note_off_c, 3, 63, 64
5, 72572, Note_off_c, 3, 59, 64
5, 72572, Note_off_c, 3, 56, 64
5, 72576, Note_on_c, 3, 46, 64
5, 72700, Note_off_c, 3, 46, 64
5, 72704, Note_on_c, 3, 62, 62
5, 72704, Note_on_c, 3, 59, 62
5, 72704, Note_on_c, 3, 56, 62
5, 72704, Note_on_c, 3, 53, 62
5, 72828, Note_off_c, 3, 62, 64
5, 72828, Note_off_c, 3, 59, 64
5, 72828, Note_off_c, 3, 56, 64
5, 72828, Note_off_c, 3, 53, 64
5, 72832, Note_on_c, 3, 62, 62
5, 72832, Note_on_c, 3, 59, 62
5, 72832, Note_on_c, 3, 56, 62
5, 72832, Note_on_c, 3, 53, 62
5, 72956, Note_off_c, 3, 62, 64
5, 72956, Note_off_c, 3, 59, 64
5, 72956, Note_off_c, 3, 56, 64
5, 72956, Note_off_c, 3, 53, 64
5, 72960, Note_on_c, 3, 50, 64
5, 73084, Note_off_c, 3, 50, 64
5, 73088, Note_on_c, 3, 65, 62
5, 73088, Note_on_c, 3, 59, 62
5, 73088, Note_on_c, 3, 55, 62
5, 73212, Note_off_c, 3, 65, 64
5, 73212, Note_off_c, 3, 59, 64
5, 73212, Note_off_c, 3, 55, 64
5, 73216, Note_on_c, 3, 65, 62
5, 73216, Note_on_c, 3, 59, 62
5, 73216, Note_on_c, 3, 55, 62
5, 73340, Note_off_c, 3, 65, 64
5, 73340, Note_off_c, 3, 59, 64
5, 73340, Note_off_c, 3, 55, 64
5, 73344, Note_on_c, 3, 65, 62
5, 73344, Note_on_c, 3, 62, 62
5, 73344, Note_on_c, 3, 55, 62
5, 73468, Note_off_c, 3, 65, 64
5, 73468, Note_off_c, 3, 62, 64
5, 73468, Note_off_c, 3, 55, 64
5, 73472, Note_on_c, 3, 65, 62
5, 73472, Note_on_c, 3, 62, 62
5, 73472, Note_on_c, 3, 55, 62
5, 73596, Note_off_c, 3, 65, 64
5, 73596, Note_off_c, 3, 62, 64
5, 73596, Note_off_c, 3, 55, 64
5, 73600, Note_on_c, 3, 65, 62
5, 73600, Note_on_c, 3, 62, 62
5, 73600, Note_on_c, 3, 55, 62
5, 73724, Note_off_c, 3, 65, 64
5, 73724, Note_off_c, 3, 62, 64
5, 73724, Note_off_c, 3, 55, 64
5, 73728, Note_on_c, 3, 43, 64
5, 73852, Note_off_c, 3, 43, 64
5, 73856, Note_on_c, 3, 54, 62
5, 73856, Note_on_c, 3, 60, 62
5, 73856, Note_on_c, 3, 65, 62
5, 73980, Note_off_c, 3, 54, 64
5, 73980, Note_off_c, 3, 60, 64
5, 73980, Note_off_c, 3, 65, 64
5, 73984, Note_on_c, 3, 54, 62
5, 73984, Note_on_c, 3, 60, 62
5, 73984, Note_on_c, 3, 65, 62
5, 74108, Note_off_c, 3, 54, 64
5, 74108, Note_off_c, 3, 60, 64
5, 74108, Note_off_c, 3, 65, 64
5, 74112, Note_on_c, 3, 48, 64
5, 74236, Note_off_c, 3, 48, 64
5, 74240, Note_on_c, 3, 54, 62
5, 74240, Note_on_c, 3, 60, 62
5, 74240, Note_on_c, 3, 63, 62
5, 74364, Note_off_c, 3, 54, 64
5, 74364, Note_off_c, 3, 60, 64
5, 74364, Note_off_c, 3, 63, 64
5, 74368, Note_on_c, 3, 54, 62
5, 74368, Note_on_c, 3, 60, 62
5, 74368, Note_on_c, 3, 63, 62
5, 74492, Note_off_c, 3, 54, 64
5, 74492, Note_off_c, 3, 60, 64
5, 74492, Note_off_c, 3, 63, 64
5, 74496, Note_on_c, 3, 52, 64
5, 74620, Note_off_c, 3, 52, 64
5, 74624, Note_on_c, 3, 57, 62
5, 74624, Note_on_c, 3, 60, 62
5, 74624, Note_on_c, 3, 66, 62
5, 74748, Note_off_c, 3, 57, 64
5, 74748, Note_off_c, 3, 60, 64
5, 74748, Note_off_c, 3, 66, 64
5, 74752, Note_on_c, 3, 57, 62
5, 74752, Note_on_c, 3, 60, 62
5, 74752, Note_on_c, 3, 66, 62
5, 74876, Note_off_c, 3, 57, 64
5, 74876, Note_off_c, 3, 60, 64
5, 74876, Note_off_c, 3, 66, 64
5, 74880, Note_on_c, 3, 60, 62
5, 74880, Note_on_c, 3, 63, 62
5, 74880, Note_on_c, 3, 66, 62
5, 75004, Note_off_c, 3, 60, 64
5, 75004, Note_off_c, 3, 63, 64
5, 75004, Note_off_c, 3, 66, 64
5, 75008, Note_on_c, 3, 60, 62
5, 75008, Note_on_c, 3, 63, 62
5, 75008, Note_on_c, 3, 66, 62
5, 75132, Note_off_c, 3, 60, 64
5, 75132, Note_off_c, 3, 63, 64
5, 75132, Note_off_c, 3, 66, 64
5, 75136, Note_on_c, 3, 60, 62
5, 75136, Note_on_c, 3, 63, 62
5, 75136, Note_on_c, 3, 66, 62
5, 75260, Note_off_c, 3, 60, 64
5, 75260, Note_off_c, 3, 63, 64
5, 75260, Note_off_c, 3, 66, 64
5, 75264, Note_on_c, 3, 43, 64
5, 75388, Note_off_c, 3, 43, 64
5, 75392, Note_on_c, 3, 67, 62
5, 75392, Note_on_c, 3, 62, 62
5, 75392, Note_on_c, 3, 60, 62
5, 75516, Note_off_c, 3, 67, 64
5, 75516, Note_off_c, 3, 62, 64
5, 75516, Note_off_c, 3, 60, 64
5, 75520, Note_on_c, 3, 67, 62
5, 75520, Note_on_c, 3, 62, 62
5, 75520, Note_on_c, 3, 60, 62
5, 75644, Note_off_c, 3, 67, 64
5, 75644, Note_off_c, 3, 62, 64
5, 75644, Note_off_c, 3, 60, 64
5, 75648, Note_on_c, 3, 50, 64
5, 75772, Note_off_c, 3, 50, 64
5, 75776, Note_on_c, 3, 68, 62
5, 75776, Note_on_c, 3, 62, 62
5, 75776, Note_on_c, 3, 60, 62
5, 75900, Note_off_c, 3, 68, 64
5, 75900, Note_off_c, 3, 62, 64
5, 75900, Note_off_c, 3, 60, 64
5, 75904, Note_on_c, 3, 68, 62
5, 75904, Note_on_c, 3, 62, 62
5, 75904, Note_on_c, 3, 60, 62
5, 76028, Note_off_c, 3, 68, 64
5, 76028, Note_off_c, 3, 62, 64
5, 76028, Note_off_c, 3, 60, 64
5, 76032, Note_on_c, 3, 53, 64
5, 76156, Note_off_c, 3, 53, 64
5, 76160, Note_on_c, 3, 67, 62
5, 76160, Note_on_c, 3, 62, 62
5, 76160, Note_on_c, 3, 59, 62
5, 76284, Note_off_c, 3, 67, 64
5, 76284, Note_off_c, 3, 62, 64
5, 76284, Note_off_c, 3, 59, 64
5, 76288, Note_on_c, 3, 67, 62
5, 76288, Note_on_c, 3, 62, 62
5, 76288, Note_on_c, 3, 59, 62
5, 76412, Note_off_c, 3, 67, 64
5, 76412, Note_off_c, 3, 62, 64
5, 76412, Note_off_c, 3, 59, 64
5, 76416, Note_on_c, 3, 41, 65
5, 76540, Note_off_c, 3, 41, 64
5, 76544, Note_on_c, 3, 55, 62
5, 76544, Note_on_c, 3, 59, 62
5, 76544, Note_on_c, 3, 62, 62
5, 76668, Note_off_c, 3, 55, 64
5, 76668, Note_off_c, 3, 59, 64
5, 76668, Note_off_c, 3, 62, 64
5, 76672, Note_on_c, 3, 55, 62
5, 76672, Note_on_c, 3, 59, 62
5, 76672, Note_on_c, 3, 62, 62
5, 76796, Note_off_c, 3, 55, 64
5, 76796, Note_off_c, 3, 59, 64
5, 76796, Note_off_c, 3, 62, 64
5, 76800, Note_on_c, 3, 52, 62
5, 76800, Note_on_c, 3, 40, 64
5, 76988, Note_off_c, 3, 52, 64
5, 76988, Note_off_c, 3, 40, 64
5, 77184, Note_on_c, 3, 60, 62
5, 77184, Note_on_c, 3, 48, 64
5, 77372, Note_off_c, 3, 60, 64
5, 77372, Note_off_c, 3, 48, 64
5, 77568, Note_on_c, 3, 53, 62
5, 77568, Note_on_c, 3, 41, 63
5, 77756, Note_off_c, 3, 53, 64
5, 77756, Note_off_c, 3, 41, 64
5, 77952, Note_on_c, 3, 62, 62
5, 77952, Note_on_c, 3, 50, 62
5, 78140, Note_off_c, 3, 62, 64
5, 78140, Note_off_c, 3, 50, 64
5, 78336, Note_on_c, 3, 55, 62
5, 78336, Note_on_c, 3, 43, 64
5, 78524, Note_off_c, 3, 55, 64
5, 78524, Note_off_c, 3, 43, 64
5, 78720, Note_on_c, 3, 53, 62
5, 78720, Note_on_c, 3, 41, 65
5, 78908, Note_off_c, 3, 53, 64
5, 78908, Note_off_c, 3, 41, 64
5, 79104, Note_on_c, 3, 55, 62
5, 79104, Note_on_c, 3, 43, 62
5, 79292, Note_off_c, 3, 55, 64
5, 79292, Note_off_c, 3, 43, 64
5, 79488, Note_on_c, 3, 55, 62
5, 79488, Note_on_c, 3, 43, 62
5, 79676, Note_off_c, 3, 55, 64
5, 79676, Note_off_c, 3, 43, 64
5, 79872, Note_on_c, 3, 56, 62
5, 79872, Note_on_c, 3, 44, 64
5, 80060, Note_off_c, 3, 56, 64
5, 80060, Note_off_c, 3, 44, 64
5, 80256, Note_on_c, 3, 57, 62
5, 80256, Note_on_c, 3, 45, 64
5, 80444, Note_off_c, 3, 57, 64
5, 80444, Note_off_c, 3, 45, 64
5, 80640, Note_on_c, 3, 55, 62
5, 80640, Note_on_c, 3, 43, 64
5, 80828, Note_off_c, 3, 55, 64
5, 80828, Note_off_c, 3, 43, 64
5, 81024, Note_on_c, 3, 53, 62
5, 81024, Note_on_c, 3, 41, 65
5, 81212, Note_off_c, 3, 53, 64
5, 81212, Note_off_c, 3, 41, 64
5, 81408, Note_on_c, 3, 52, 62
5, 81408, Note_on_c, 3, 40, 64
5, 81596, Note_off_c, 3, 52, 64
5, 81596, Note_off_c, 3, 40, 64
5, 81792, Note_on_c, 3, 48, 62
5, 81792, Note_on_c, 3, 36, 66
5, 81980, Note_off_c, 3, 48, 64
5, 81980, Note_off_c, 3, 36, 64
5, 82176, Note_on_c, 3, 53, 62
5, 82176, Note_on_c, 3, 41, 64
5, 82364, Note_off_c, 3, 53, 64
5, 82364, Note_off_c, 3, 41, 64
5, 82560, Note_on_c, 3, 50, 62
5, 82560, Note_on_c, 3, 38, 65
5, 82748, Note_off_c, 3, 50, 64
5, 82748, Note_off_c, 3, 38, 64
5, 82944, Note_on_c, 3, 55, 62
5, 82944, Note_on_c, 3, 43, 64
5, 83132, Note_off_c, 3, 55, 64
5, 83132, Note_off_c, 3, 43, 64
5, 83328, Note_on_c, 3, 53, 62
5, 83328, Note_on_c, 3, 41, 65
5, 83516, Note_off_c, 3, 53, 64
5, 83516, Note_off_c, 3, 41, 64
5, 83712, Note_on_c, 3, 55, 62
5, 83712, Note_on_c, 3, 43, 62
5, 83900, Note_off_c, 3, 55, 64
5, 83900, Note_off_c, 3, 43, 64
5, 84096, Note_on_c, 3, 43, 63
5, 84096, Note_on_c, 3, 31, 69
5, 84284, Note_off_c, 3, 43, 64
5, 84284, Note_off_c, 3, 31, 64
5, 84480, Note_on_c, 3, 50, 62
5, 84480, Note_on_c, 3, 36, 66
5, 84604, Note_off_c, 3, 50, 64
5, 84604, Note_off_c, 3, 36, 64
5, 84608, Note_on_c, 3, 60, 62
5, 84608, Note_on_c, 3, 55, 62
5, 84608, Note_on_c, 3, 52, 62
5, 84732, Note_off_c, 3, 60, 64
5, 84732, Note_off_c, 3, 55, 64
5, 84732, Note_off_c, 3, 52, 64
5, 84736, Note_on_c, 3, 60, 62
5, 84736, Note_on_c, 3, 55, 62
5, 84736, Note_on_c, 3, 52, 62
5, 84860, Note_off_c, 3, 60, 64
5, 84860, Note_off_c, 3, 55, 64
5, 84860, Note_off_c, 3, 52, 64
5, 84864, Note_on_c, 3, 43, 64
5, 84988, Note_off_c, 3, 43, 64
5, 84992, Note_on_c, 3, 60, 62
5, 84992, Note_on_c, 3, 55, 62
5, 84992, Note_on_c, 3, 52, 62
5, 85116, Note_off_c, 3, 60, 64
5, 85116, Note_off_c, 3, 55, 64
5, 85116, Note_off_c, 3, 52, 64
5, 85120, Note_on_c, 3, 60, 62
5, 85120, Note_on_c, 3, 55, 62
5, 85120, Note_on_c, 3, 52, 62
5, 85244, Note_off_c, 3, 60, 64
5, 85244, Note_off_c, 3, 55, 64
5, 85244, Note_off_c, 3, 52, 64
5, 85248, Note_on_c, 3, 48, 64
5, 85372, Note_off_c, 3, 48, 64
5, 85376, Note_on_c, 3, 60, 62
5, 85376, Note_on_c, 3, 55, 62
5, 85376, Note_on_c, 3, 52, 62
5, 85500, Note_off_c, 3, 60, 64
5, 85500, Note_off_c, 3, 55, 64
5, 85500, Note_off_c, 3, 52, 64
5, 85504, Note_on_c, 3, 60, 62
5, 85504, Note_on_c, 3, 55, 62
5, 85504, Note_on_c, 3, 52, 62
5, 85628, Note_off_c, 3, 60, 64
5, 85628, Note_off_c, 3, 55, 64
5, 85628, Note_off_c, 3, 52, 64
5, 85632, Note_on_c, 3, 46, 64
5, 85756, Note_off_c, 3, 46, 64
5, 85760, Note_on_c, 3, 60, 62
5, 85760, Note_on_c, 3, 55, 62
5, 85760, Note_on_c, 3, 52, 62
5, 85884, Note_off_c, 3, 60, 64
5, 85884, Note_off_c, 3, 55, 64
5, 85884, Note_off_c, 3, 52, 64
5, 85888, Note_on_c, 3, 60, 62
5, 85888, Note_on_c, 3, 55, 62
5, 85888, Note_on_c, 3, 52, 62
5, 86012, Note_off_c, 3, 60, 64
5, 86012, Note_off_c, 3, 55, 64
5, 86012, Note_off_c, 3, 52, 64
5, 86016, Note_on_c, 3, 45, 64
5, 86140, Note_off_c, 3, 45, 64
5, 86144, Note_on_c, 3, 57, 62
5, 86144, Note_on_c, 3, 60, 62
5, 86144, Note_on_c, 3, 66, 62
5, 86268, Note_off_c, 3, 57, 64
5, 86268, Note_off_c, 3, 60, 64
5, 86268, Note_off_c, 3, 66, 64
5, 86272, Note_on_c, 3, 57, 62
5, 86272, Note_on_c, 3, 60, 62
5, 86272, Note_on_c, 3, 66, 62
5, 86396, Note_off_c, 3, 57, 64
5, 86396, Note_off_c, 3, 60, 64
5, 86396, Note_off_c, 3, 66, 64
5, 86400, Note_on_c, 3, 48, 64
5, 86524, Note_off_c, 3, 48, 64
5, 86528, Note_on_c, 3, 57, 62
5, 86528, Note_on_c, 3, 60, 62
5, 86528, Note_on_c, 3, 66, 62
5, 86652, Note_off_c, 3, 57, 64
5, 86652, Note_off_c, 3, 60, 64
5, 86652, Note_off_c, 3, 66, 64
5, 86656, Note_on_c, 3, 57, 62
5, 86656, Note_on_c, 3, 60, 62
5, 86656, Note_on_c, 3, 66, 62
5, 86780, Note_off_c, 3, 57, 64
5, 86780, Note_off_c, 3, 60, 64
5, 86780, Note_off_c, 3, 66, 64
5, 86784, Note_on_c, 3, 45, 64
5, 86908, Note_off_c, 3, 45, 64
5, 86912, Note_on_c, 3, 57, 62
5, 86912, Note_on_c, 3, 60, 62
5, 86912, Note_on_c, 3, 66, 62
5, 87036, Note_off_c, 3, 57, 64
5, 87036, Note_off_c, 3, 60, 64
5, 87036, Note_off_c, 3, 66, 64
5, 87040, Note_on_c, 3, 57, 62
5, 87040, Note_on_c, 3, 60, 62
5, 87040, Note_on_c, 3, 66, 62
5, 87164, Note_off_c, 3, 57, 64
5, 87164, Note_off_c, 3, 60, 64
5, 87164, Note_off_c, 3, 66, 64
5, 87168, Note_on_c, 3, 43, 64
5, 87292, Note_off_c, 3, 43, 64
5, 87296, Note_on_c, 3, 60, 62
5, 87296, Note_on_c, 3, 63, 62
5, 87296, Note_on_c, 3, 67, 62
5, 87420, Note_off_c, 3, 60, 64
5, 87420, Note_off_c, 3, 63, 64
5, 87420, Note_off_c, 3, 67, 64
5, 87424, Note_on_c, 3, 60, 62
5, 87424, Note_on_c, 3, 63, 62
5, 87424, Note_on_c, 3, 67, 62
5, 87548, Note_off_c, 3, 60, 64
5, 87548, Note_off_c, 3, 63, 64
5, 87548, Note_off_c, 3, 67, 64
5, 87552, Note_on_c, 3, 42, 65
5, 87676, Note_off_c, 3, 42, 64
5, 87680, Note_on_c, 3, 60, 62
5, 87680, Note_on_c, 3, 62, 62
5, 87680, Note_on_c, 3, 69, 62
5, 87804, Note_off_c, 3, 60, 64
5, 87804, Note_off_c, 3, 62, 64
5, 87804, Note_off_c, 3, 69, 64
5, 87808, Note_on_c, 3, 60, 62
5, 87808, Note_on_c, 3, 62, 62
5, 87808, Note_on_c, 3, 69, 62
5, 87932, Note_off_c, 3, 60, 64
5, 87932, Note_off_c, 3, 62, 64
5, 87932, Note_off_c, 3, 69, 64
5, 87936, Note_on_c, 3, 45, 64
5, 88060, Note_off_c, 3, 45, 64
5, 88064, Note_on_c, 3, 60, 62
5, 88064, Note_on_c, 3, 62, 62
5, 88064, Note_on_c, 3, 69, 62
5, 88188, Note_off_c, 3, 60, 64
5, 88188, Note_off_c, 3, 62, 64
5, 88188, Note_off_c, 3, 69, 64
5, 88192, Note_on_c, 3, 60, 62
5, 88192, Note_on_c, 3, 62, 62
5, 88192, Note_on_c, 3, 69, 62
5, 88316, Note_off_c, 3, 60, 64
5, 88316, Note_off_c, 3, 62, 64
5, 88316, Note_off_c, 3, 69, 64
5, 88320, Note_on_c, 3, 50, 64
5, 88444, Note_off_c, 3, 50, 64
5, 88448, Note_on_c, 3, 60, 62
5, 88448, Note_on_c, 3, 62, 62
5, 88448, Note_on_c, 3, 69, 62
5, 88572, Note_off_c, 3, 60, 64
5, 88572, Note_off_c, 3, 62, 64
5, 88572, Note_off_c, 3, 69, 64
5, 88576, Note_on_c, 3, 60, 62
5, 88576, Note_on_c, 3, 62, 62
5, 88576, Note_on_c, 3, 69, 62
5, 88700, Note_off_c, 3, 60, 64
5, 88700, Note_off_c, 3, 62, 64
5, 88700, Note_off_c, 3, 69, 64
5, 88704, Note_on_c, 3, 54, 64
5, 88828, Note_off_c, 3, 54, 64
5, 88832, Note_on_c, 3, 60, 62
5, 88832, Note_on_c, 3, 62, 62
5, 88832, Note_on_c, 3, 69, 62
5, 88956, Note_off_c, 3, 60, 64
5, 88956, Note_off_c, 3, 62, 64
5, 88956, Note_off_c, 3, 69, 64
5, 88960, Note_on_c, 3, 60, 62
5, 88960, Note_on_c, 3, 62, 62
5, 88960, Note_on_c, 3, 69, 62
5, 89084, Note_off_c, 3, 60, 64
5, 89084, Note_off_c, 3, 62, 64
5, 89084, Note_off_c, 3, 69, 64
5, 89088, Note_on_c, 3, 67, 62
5, 89088, Note_on_c, 3, 62, 62
5, 89088, Note_on_c, 3, 58, 62
5, 89088, Note_on_c, 3, 55, 64
5, 89276, Note_off_c, 3, 67, 64
5, 89276, Note_off_c, 3, 62, 64
5, 89276, Note_off_c, 3, 58, 64
5, 89276, Note_off_c, 3, 55, 64
5, 89472, Note_on_c, 3, 46, 64
5, 89472, Note_on_c, 3, 55, 62
5, 89660, Note_off_c, 3, 46, 64
5, 89856, Note_on_c, 3, 43, 64
5, 90044, Note_off_c, 3, 43, 64
5, 90236, Note_off_c, 3, 55, 64
5, 90240, Note_on_c, 3, 53, 64
5, 90240, Note_on_c, 3, 41, 65
5, 90428, Note_off_c, 3, 41, 64
5, 90620, Note_off_c, 3, 53, 64
5, 90624, Note_on_c, 3, 51, 62
5, 90624, Note_on_c, 3, 39, 64
5, 90908, Note_off_c, 3, 39, 64
5, 91008, Note_on_c, 3, 43, 63
5, 91196, Note_off_c, 3, 43, 64
5, 91392, Note_on_c, 3, 39, 64
5, 91580, Note_off_c, 3, 39, 64
5, 91772, Note_off_c, 3, 51, 64
5, 91776, Note_on_c, 3, 38, 64
5, 91776, Note_on_c, 3, 50, 62
5, 91964, Note_off_c, 3, 38, 64
5, 92156, Note_off_c, 3, 50, 64
5, 92160, Note_on_c, 3, 49, 62
5, 92160, Note_on_c, 3, 37, 66
5, 92348, Note_off_c, 3, 37, 64
5, 92540, Note_off_c, 3, 49, 64
5, 92544, Note_on_c, 3, 53, 62
5, 92544, Note_on_c, 3, 40, 64
5, 92732, Note_off_c, 3, 40, 64
5, 92924, Note_off_c, 3, 53, 64
5, 92928, Note_on_c, 3, 45, 62
5, 92928, Note_on_c, 3, 33, 68
5, 93116, Note_off_c, 3, 33, 64
5, 93308, Note_off_c, 3, 45, 64
5, 93312, Note_on_c, 3, 49, 62
5, 93312, Note_on_c, 3, 37, 66
5, 93500, Note_off_c, 3, 37, 64
5, 93692, Note_off_c, 3, 49, 64
5, 93696, Note_on_c, 3, 50, 82
5, 93696, Note_on_c, 3, 38, 84
5, 93884, Note_off_c, 3, 50, 64
5, 93884, Note_off_c, 3, 38, 64
5, 94080, Note_on_c, 3, 62, 82
5, 94080, Note_on_c, 3, 50, 84
5, 94268, Note_off_c, 3, 62, 64
5, 94268, Note_off_c, 3, 50, 64
5, 94464, Note_on_c, 3, 60, 82
5, 94464, Note_on_c, 3, 48, 84
5, 94652, Note_off_c, 3, 60, 64
5, 94652, Note_off_c, 3, 48, 64
5, 94848, Note_on_c, 3, 53, 82
5, 94848, Note_on_c, 3, 41, 84
5, 95036, Note_off_c, 3, 53, 64
5, 95036, Note_off_c, 3, 41, 64
5, 95232, Note_on_c, 3, 58, 82
5, 95232, Note_on_c, 3, 46, 84
5, 95612, Note_off_c, 3, 58, 64
5, 95612, Note_off_c, 3, 46, 64
5, 96000, Note_on_c, 3, 58, 62
5, 96000, Note_on_c, 3, 46, 62
5, 96380, Note_off_c, 3, 58, 64
5, 96380, Note_off_c, 3, 46, 64
5, 96768, Note_on_c, 3, 60, 62
5, 96768, Note_on_c, 3, 48, 64
5, 97148, Note_off_c, 3, 60, 64
5, 97148, Note_off_c, 3, 48, 64
5, 97536, Note_on_c, 3, 62, 62
5, 97536, Note_on_c, 3, 48, 64
5, 97916, Note_off_c, 3, 62, 64
5, 97916, Note_off_c, 3, 48, 64
5, 98304, Note_on_c, 3, 53, 62
5, 98304, Note_on_c, 3, 41, 64
5, 98684, Note_off_c, 3, 53, 64
5, 98684, Note_off_c, 3, 41, 64
5, 99072, Note_on_c, 3, 53, 62
5, 99072, Note_on_c, 3, 41, 64
5, 99452, Note_off_c, 3, 53, 64
5, 99452, Note_off_c, 3, 41, 64
5, 99840, Note_on_c, 3, 58, 62
5, 99840, Note_on_c, 3, 46, 64
5, 100220, Note_off_c, 3, 58, 64
5, 100220, Note_off_c, 3, 46, 64
5, 100608, Note_on_c, 3, 58, 62
5, 100608, Note_on_c, 3, 46, 62
5, 100988, Note_off_c, 3, 58, 64
5, 100988, Note_off_c, 3, 46, 64
5, 101376, Note_on_c, 3, 45, 77
5, 101500, Note_off_c, 3, 45, 64
5, 101504, Note_on_c, 3, 66, 62
5, 101504, Note_on_c, 3, 63, 62
5, 101504, Note_on_c, 3, 60, 62
5, 101628, Note_off_c, 3, 66, 64
5, 101628, Note_off_c, 3, 63, 64
5, 101628, Note_off_c, 3, 60, 64
5, 101632, Note_on_c, 3, 66, 62
5, 101632, Note_on_c, 3, 63, 62
5, 101632, Note_on_c, 3, 60, 62
5, 101756, Note_off_c, 3, 66, 64
5, 101756, Note_off_c, 3, 63, 64
5, 101756, Note_off_c, 3, 60, 64
5, 101760, Note_on_c, 3, 48, 64
5, 101884, Note_off_c, 3, 48, 64
5, 101888, Note_on_c, 3, 66, 62
5, 101888, Note_on_c, 3, 63, 62
5, 101888, Note_on_c, 3, 60, 62
5, 102012, Note_off_c, 3, 66, 64
5, 102012, Note_off_c, 3, 63, 64
5, 102012, Note_off_c, 3, 60, 64
5, 102016, Note_on_c, 3, 66, 62
5, 102016, Note_on_c, 3, 63, 62
5, 102016, Note_on_c, 3, 60, 62
5, 102140, Note_off_c, 3, 66, 64
5, 102140, Note_off_c, 3, 63, 64
5, 102140, Note_off_c, 3, 60, 64
5, 102144, Note_on_c, 3, 54, 64
5, 102268, Note_off_c, 3, 54, 64
5, 102272, Note_on_c, 3, 66, 62
5, 102272, Note_on_c, 3, 63, 62
5, 102272, Note_on_c, 3, 60, 62
5, 102396, Note_off_c, 3, 66, 64
5, 102396, Note_off_c, 3, 63, 64
5, 102396, Note_off_c, 3, 60, 64
5, 102400, Note_on_c, 3, 66, 62
5, 102400, Note_on_c, 3, 63, 62
5, 102400, Note_on_c, 3, 60, 62
5, 102524, Note_off_c, 3, 66, 64
5, 102524, Note_off_c, 3, 63, 64
5, 102524, Note_off_c, 3, 60, 64
5, 102528, Note_on_c, 3, 66, 62
5, 102528, Note_on_c, 3, 60, 62
5, 102528, Note_on_c, 3, 63, 62
5, 102652, Note_off_c, 3, 66, 64
5, 102652, Note_off_c, 3, 60, 64
5, 102652, Note_off_c, 3, 63, 64
5, 102656, Note_on_c, 3, 66, 62
5, 102656, Note_on_c, 3, 63, 62
5, 102656, Note_on_c, 3, 60, 62
5, 102780, Note_off_c, 3, 66, 64
5, 102780, Note_off_c, 3, 63, 64
5, 102780, Note_off_c, 3, 60, 64
5, 102784, Note_on_c, 3, 66, 62
5, 102784, Note_on_c, 3, 63, 62
5, 102784, Note_on_c, 3, 60, 62
5, 102908, Note_off_c, 3, 66, 64
5, 102908, Note_off_c, 3, 63, 64
5, 102908, Note_off_c, 3, 60, 64
5, 102912, Note_on_c, 3, 46, 77
5, 103036, Note_off_c, 3, 46, 64
5, 103040, Note_on_c, 3, 58, 62
5, 103040, Note_on_c, 3, 62, 62
5, 103040, Note_on_c, 3, 67, 62
5, 103164, Note_off_c, 3, 58, 64
5, 103164, Note_off_c, 3, 62, 64
5, 103164, Note_off_c, 3, 67, 64
5, 103168, Note_on_c, 3, 58, 62
5, 103168, Note_on_c, 3, 62, 62
5, 103168, Note_on_c, 3, 67, 62
5, 103292, Note_off_c, 3, 58, 64
5, 103292, Note_off_c, 3, 62, 64
5, 103292, Note_off_c, 3, 67, 64
5, 103296, Note_on_c, 3, 50, 64
5, 103420, Note_off_c, 3, 50, 64
5, 103424, Note_on_c, 3, 58, 62
5, 103424, Note_on_c, 3, 62, 62
5, 103424, Note_on_c, 3, 67, 62
5, 103548, Note_off_c, 3, 58, 64
5, 103548, Note_off_c, 3, 62, 64
5, 103548, Note_off_c, 3, 67, 64
5, 103552, Note_on_c, 3, 58, 62
5, 103552, Note_on_c, 3, 62, 62
5, 103552, Note_on_c, 3, 67, 62
5, 103676, Note_off_c, 3, 58, 64
5, 103676, Note_off_c, 3, 62, 64
5, 103676, Note_off_c, 3, 67, 64
5, 103680, Note_on_c, 3, 55, 64
5, 103804, Note_off_c, 3, 55, 64
5, 103808, Note_on_c, 3, 58, 62
5, 103808, Note_on_c, 3, 62, 62
5, 103808, Note_on_c, 3, 67, 62
5, 103932, Note_off_c, 3, 58, 64
5, 103932, Note_off_c, 3, 62, 64
5, 103932, Note_off_c, 3, 67, 64
5, 103936, Note_on_c, 3, 58, 62
5, 103936, Note_on_c, 3, 62, 62
5, 103936, Note_on_c, 3, 67, 62
5, 104060, Note_off_c, 3, 58, 64
5, 104060, Note_off_c, 3, 62, 64
5, 104060, Note_off_c, 3, 67, 64
5, 104064, Note_on_c, 3, 58, 62
5, 104064, Note_on_c, 3, 62, 62
5, 104064, Note_on_c, 3, 67, 62
5, 104188, Note_off_c, 3, 58, 64
5, 104188, Note_off_c, 3, 62, 64
5, 104188, Note_off_c, 3, 67, 64
5, 104192, Note_on_c, 3, 58, 62
5, 104192, Note_on_c, 3, 62, 62
5, 104192, Note_on_c, 3, 67, 62
5, 104316, Note_off_c, 3, 58, 64
5, 104316, Note_off_c, 3, 62, 64
5, 104316, Note_off_c, 3, 67, 64
5, 104320, Note_on_c, 3, 58, 62
5, 104320, Note_on_c, 3, 62, 62
5, 104320, Note_on_c, 3, 67, 62
5, 104444, Note_off_c, 3, 58, 64
5, 104444, Note_off_c, 3, 62, 64
5, 104444, Note_off_c, 3, 67, 64
5, 104448, Note_on_c, 3, 43, 77
5, 104572, Note_off_c, 3, 43, 64
5, 104576, Note_on_c, 3, 64, 62
5, 104576, Note_on_c, 3, 61, 62
5, 104576, Note_on_c, 3, 58, 62
5, 104700, Note_off_c, 3, 64, 64
5, 104700, Note_off_c, 3, 61, 64
5, 104700, Note_off_c, 3, 58, 64
5, 104704, Note_on_c, 3, 64, 62
5, 104704, Note_on_c, 3, 61, 62
5, 104704, Note_on_c, 3, 58, 62
5, 104828, Note_off_c, 3, 64, 64
5, 104828, Note_off_c, 3, 61, 64
5, 104828, Note_off_c, 3, 58, 64
5, 104832, Note_on_c, 3, 46, 64
5, 104956, Note_off_c, 3, 46, 64
5, 104960, Note_on_c, 3, 64, 62
5, 104960, Note_on_c, 3, 61, 62
5, 104960, Note_on_c, 3, 58, 62
5, 105084, Note_off_c, 3, 64, 64
5, 105084, Note_off_c, 3, 61, 64
5, 105084, Note_off_c, 3, 58, 64
5, 105088, Note_on_c, 3, 64, 62
5, 105088, Note_on_c, 3, 61, 62
5, 105088, Note_on_c, 3, 58, 62
5, 105212, Note_off_c, 3, 64, 64
5, 105212, Note_off_c, 3, 61, 64
5, 105212, Note_off_c, 3, 58, 64
5, 105216, Note_on_c, 3, 52, 64
5, 105340, Note_off_c, 3, 52, 64
5, 105344, Note_on_c, 3, 64, 62
5, 105344, Note_on_c, 3, 61, 62
5, 105344, Note_on_c, 3, 58, 62
5, 105468, Note_off_c, 3, 64, 64
5, 105468, Note_off_c, 3, 61, 64
5, 105468, Note_off_c, 3, 58, 64
5, 105472, Note_on_c, 3, 64, 62
5, 105472, Note_on_c, 3, 61, 62
5, 105472, Note_on_c, 3, 58, 62
5, 105596, Note_off_c, 3, 64, 64
5, 105596, Note_off_c, 3, 61, 64
5, 105596, Note_off_c, 3, 58, 64
5, 105600, Note_on_c, 3, 64, 62
5, 105600, Note_on_c, 3, 61, 62
5, 105600, Note_on_c, 3, 58, 62
5, 105724, Note_off_c, 3, 64, 64
5, 105724, Note_off_c, 3, 61, 64
5, 105724, Note_off_c, 3, 58, 64
5, 105728, Note_on_c, 3, 64, 62
5, 105728, Note_on_c, 3, 61, 62
5, 105728, Note_on_c, 3, 58, 62
5, 105852, Note_off_c, 3, 64, 64
5, 105852, Note_off_c, 3, 61, 64
5, 105852, Note_off_c, 3, 58, 64
5, 105856, Note_on_c, 3, 64, 62
5, 105856, Note_on_c, 3, 61, 62
5, 105856, Note_on_c, 3, 58, 62
5, 105980, Note_off_c, 3, 64, 64
5, 105980, Note_off_c, 3, 61, 64
5, 105980, Note_off_c, 3, 58, 64
5, 105984, Note_on_c, 3, 44, 77
5, 106108, Note_off_c, 3, 44, 64
5, 106112, Note_on_c, 3, 56, 62
5, 106112, Note_on_c, 3, 60, 62
5, 106112, Note_on_c, 3, 65, 62
5, 106236, Note_off_c, 3, 56, 64
5, 106236, Note_off_c, 3, 60, 64
5, 106236, Note_off_c, 3, 65, 64
5, 106240, Note_on_c, 3, 56, 62
5, 106240, Note_on_c, 3, 60, 62
5, 106240, Note_on_c, 3, 65, 62
5, 106364, Note_off_c, 3, 56, 64
5, 106364, Note_off_c, 3, 60, 64
5, 106364, Note_off_c, 3, 65, 64
5, 106368, Note_on_c, 3, 48, 64
5, 106492, Note_off_c, 3, 48, 64
5, 106496, Note_on_c, 3, 56, 62
5, 106496, Note_on_c, 3, 60, 62
5, 106496, Note_on_c, 3, 65, 62
5, 106620, Note_off_c, 3, 56, 64
5, 106620, Note_off_c, 3, 60, 64
5, 106620, Note_off_c, 3, 65, 64
5, 106624, Note_on_c, 3, 56, 62
5, 106624, Note_on_c, 3, 60, 62
5, 106624, Note_on_c, 3, 65, 62
5, 106748, Note_off_c, 3, 56, 64
5, 106748, Note_off_c, 3, 60, 64
5, 106748, Note_off_c, 3, 65, 64
5, 106752, Note_on_c, 3, 53, 64
5, 106876, Note_off_c, 3, 53, 64
5, 106880, Note_on_c, 3, 56, 62
5, 106880, Note_on_c, 3, 60, 62
5, 106880, Note_on_c, 3, 65, 62
5, 107004, Note_off_c, 3, 56, 64
5, 107004, Note_off_c, 3, 60, 64
5, 107004, Note_off_c, 3, 65, 64
5, 107008, Note_on_c, 3, 56, 62
5, 107008, Note_on_c, 3, 60, 62
5, 107008, Note_on_c, 3, 65, 62
5, 107132, Note_off_c, 3, 56, 64
5, 107132, Note_off_c, 3, 60, 64
5, 107132, Note_off_c, 3, 65, 64
5, 107136, Note_on_c, 3, 56, 62
5, 107136, Note_on_c, 3, 60, 62
5, 107136, Note_on_c, 3, 65, 62
5, 107260, Note_off_c, 3, 56, 64
5, 107260, Note_off_c, 3, 60, 64
5, 107260, Note_off_c, 3, 65, 64
5, 107264, Note_on_c, 3, 56, 62
5, 107264, Note_on_c, 3, 60, 62
5, 107264, Note_on_c, 3, 65, 62
5, 107388, Note_off_c, 3, 56, 64
5, 107388, Note_off_c, 3, 60, 64
5, 107388, Note_off_c, 3, 65, 64
5, 107392, Note_on_c, 3, 56, 62
5, 107392, Note_on_c, 3, 60, 62
5, 107392, Note_on_c, 3, 65, 62
5, 107516, Note_off_c, 3, 56, 64
5, 107516, Note_off_c, 3, 60, 64
5, 107516, Note_off_c, 3, 65, 64
5, 107520, Note_on_c, 3, 53, 62
5, 107520, Note_on_c, 3, 49, 62
5, 109052, Note_off_c, 3, 53, 64
5, 109052, Note_off_c, 3, 49, 64
5, 109056, Note_on_c, 3, 55, 62
5, 109056, Note_on_c, 3, 48, 62
5, 109436, Note_off_c, 3, 55, 64
5, 109436, Note_off_c, 3, 48, 64
5, 110592, Note_on_c, 3, 60, 62
5, 110592, Note_on_c, 3, 63, 62
5, 111356, Note_off_c, 3, 60, 64
5, 111360, Note_on_c, 3, 58, 62
5, 112120, Program_c, 3, 45
5, 112124, Note_off_c, 3, 63, 64
5, 112124, Note_off_c, 3, 58, 64
5, 112128, Note_on_c, 3, 44, 62
5, 112128, Note_on_c, 3, 32, 69
5, 112316, Note_off_c, 3, 44, 64
5, 112316, Note_off_c, 3, 32, 64
5, 112512, Note_on_c, 3, 48, 62
5, 112512, Note_on_c, 3, 36, 66
5, 112700, Note_off_c, 3, 48, 64
5, 112700, Note_off_c, 3, 36, 64
5, 112896, Note_on_c, 3, 51, 62
5, 112896, Note_on_c, 3, 39, 65
5, 113084, Note_off_c, 3, 51, 64
5, 113084, Note_off_c, 3, 39, 64
5, 113664, Note_on_c, 3, 44, 62
5, 113664, Note_on_c, 3, 32, 69
5, 113852, Note_off_c, 3, 44, 64
5, 113852, Note_off_c, 3, 32, 64
5, 114048, Note_on_c, 3, 48, 62
5, 114048, Note_on_c, 3, 36, 66
5, 114236, Note_off_c, 3, 48, 64
5, 114236, Note_off_c, 3, 36, 64
5, 114432, Note_on_c, 3, 51, 62
5, 114432, Note_on_c, 3, 39, 65
5, 114620, Note_off_c, 3, 51, 64
5, 114620, Note_off_c, 3, 39, 64
5, 114816, Note_on_c, 3, 44, 62
5, 114816, Note_on_c, 3, 32, 69
5, 115004, Note_off_c, 3, 44, 64
5, 115004, Note_off_c, 3, 32, 64
5, 115200, Note_on_c, 3, 43, 62
5, 115200, Note_on_c, 3, 31, 69
5, 115388, Note_off_c, 3, 43, 64
5, 115388, Note_off_c, 3, 31, 64
5, 115584, Note_on_c, 3, 46, 62
5, 115584, Note_on_c, 3, 34, 67
5, 115772, Note_off_c, 3, 46, 64
5, 115772, Note_off_c, 3, 34, 64
5, 115968, Note_on_c, 3, 39, 65
5, 115968, Note_on_c, 3, 51, 62
5, 116156, Note_off_c, 3, 39, 64
5, 116156, Note_off_c, 3, 51, 64
5, 116736, Note_on_c, 3, 51, 62
5, 116736, Note_on_c, 3, 39, 65
5, 116924, Note_off_c, 3, 51, 64
5, 116924, Note_off_c, 3, 39, 64
5, 117120, Note_on_c, 3, 55, 62
5, 117120, Note_on_c, 3, 43, 64
5, 117308, Note_off_c, 3, 55, 64
5, 117308, Note_off_c, 3, 43, 64
5, 117504, Note_on_c, 3, 46, 62
5, 117504, Note_on_c, 3, 58, 62
5, 117692, Note_off_c, 3, 46, 64
5, 117692, Note_off_c, 3, 58, 64
5, 118272, Note_on_c, 3, 51, 62
5, 118272, Note_on_c, 3, 39, 66
5, 118460, Note_off_c, 3, 51, 64
5, 118460, Note_off_c, 3, 39, 64
5, 118656, Note_on_c, 3, 55, 62
5, 118656, Note_on_c, 3, 43, 64
5, 118844, Note_off_c, 3, 55, 64
5, 118844, Note_off_c, 3, 43, 64
5, 119040, Note_on_c, 3, 58, 62
5, 119040, Note_on_c, 3, 46, 64
5, 119228, Note_off_c, 3, 58, 64
5, 119228, Note_off_c, 3, 46, 64
5, 119424, Note_on_c, 3, 39, 64
5, 119424, Note_on_c, 3, 51, 62
5, 119612, Note_off_c, 3, 39, 64
5, 119612, Note_off_c, 3, 51, 64
5, 119808, Note_on_c, 3, 56, 62
5, 119808, Note_on_c, 3, 44, 64
5, 119996, Note_off_c, 3, 56, 64
5, 119996, Note_off_c, 3, 44, 64
5, 120192, Note_on_c, 3, 60, 62
5, 120192, Note_on_c, 3, 48, 64
5, 120380, Note_off_c, 3, 60, 64
5, 120380, Note_off_c, 3, 48, 64
5, 120576, Note_on_c, 3, 63, 62
5, 120576, Note_on_c, 3, 51, 64
5, 120764, Note_off_c, 3, 63, 64
5, 120764, Note_off_c, 3, 51, 64
5, 120960, Note_on_c, 3, 54, 62
5, 120960, Note_on_c, 3, 42, 65
5, 121148, Note_off_c, 3, 54, 64
5, 121148, Note_off_c, 3, 42, 64
5, 121336, Program_c, 3, 48
5, 121344, Note_on_c, 3, 53, 62
5, 121344, Note_on_c, 3, 41, 64
5, 121532, Note_off_c, 3, 53, 64
5, 121532, Note_off_c, 3, 41, 64
5, 121728, Note_on_c, 3, 57, 62
5, 121728, Note_on_c, 3, 45, 64
5, 121916, Note_off_c, 3, 57, 64
5, 121916, Note_off_c, 3, 45, 64
5, 122112, Note_on_c, 3, 60, 62
5, 122112, Note_on_c, 3, 48, 64
5, 122300, Note_off_c, 3, 60, 64
5, 122300, Note_off_c, 3, 48, 64
5, 122880, Note_on_c, 3, 58, 62
5, 122880, Note_on_c, 3, 46, 64
5, 123068, Note_off_c, 3, 58, 64
5, 123068, Note_off_c, 3, 46, 64
5, 123264, Note_on_c, 3, 61, 62
5, 123264, Note_on_c, 3, 49, 64
5, 123452, Note_off_c, 3, 61, 64
5, 123452, Note_off_c, 3, 49, 64
5, 123648, Note_on_c, 3, 65, 62
5, 123648, Note_on_c, 3, 53, 64
5, 123836, Note_off_c, 3, 65, 64
5, 123836, Note_off_c, 3, 53, 64
5, 124032, Note_on_c, 3, 56, 62
5, 124032, Note_on_c, 3, 44, 64
5, 124220, Note_off_c, 3, 56, 64
5, 124220, Note_off_c, 3, 44, 64
5, 124416, Note_on_c, 3, 55, 62
5, 124416, Note_on_c, 3, 43, 64
5, 124604, Note_off_c, 3, 55, 64
5, 124604, Note_off_c, 3, 43, 64
5, 124800, Note_on_c, 3, 59, 62
5, 124800, Note_on_c, 3, 47, 64
5, 124988, Note_off_c, 3, 59, 64
5, 124988, Note_off_c, 3, 47, 64
5, 125184, Note_on_c, 3, 62, 62
5, 125184, Note_on_c, 3, 50, 64
5, 125372, Note_off_c, 3, 62, 64
5, 125372, Note_off_c, 3, 50, 64
5, 126080, Note_on_c, 3, 60, 62
5, 126204, Note_off_c, 3, 60, 64
5, 126208, Note_on_c, 3, 60, 62
5, 126332, Note_off_c, 3, 60, 64
5, 126336, Note_on_c, 3, 64, 62
5, 126336, Note_on_c, 3, 55, 62
5, 126460, Note_off_c, 3, 64, 64
5, 126460, Note_off_c, 3, 55, 64
5, 126464, Note_on_c, 3, 64, 62
5, 126464, Note_on_c, 3, 55, 62
5, 126588, Note_off_c, 3, 64, 64
5, 126588, Note_off_c, 3, 55, 64
5, 126592, Note_on_c, 3, 64, 62
5, 126592, Note_on_c, 3, 55, 62
5, 126716, Note_off_c, 3, 64, 64
5, 126716, Note_off_c, 3, 55, 64
5, 126720, Note_on_c, 3, 65, 62
5, 126720, Note_on_c, 3, 53, 62
5, 126844, Note_off_c, 3, 65, 64
5, 126844, Note_off_c, 3, 53, 64
5, 126848, Note_on_c, 3, 65, 62
5, 126848, Note_on_c, 3, 53, 62
5, 126972, Note_off_c, 3, 65, 64
5, 126972, Note_off_c, 3, 53, 64
5, 126976, Note_on_c, 3, 65, 62
5, 126976, Note_on_c, 3, 53, 62
5, 127100, Note_off_c, 3, 65, 64
5, 127100, Note_off_c, 3, 53, 64
5, 127104, Note_on_c, 3, 60, 62
5, 127104, Note_on_c, 3, 56, 62
5, 127228, Note_off_c, 3, 60, 64
5, 127228, Note_off_c, 3, 56, 64
5, 127232, Note_on_c, 3, 60, 62
5, 127232, Note_on_c, 3, 56, 62
5, 127356, Note_off_c, 3, 60, 64
5, 127356, Note_off_c, 3, 56, 64
5, 127360, Note_on_c, 3, 60, 62
5, 127360, Note_on_c, 3, 56, 62
5, 127484, Note_off_c, 3, 60, 64
5, 127484, Note_off_c, 3, 56, 64
5, 127488, Note_on_c, 3, 48, 62
5, 127488, Note_on_c, 3, 36, 66
5, 127612, Note_off_c, 3, 48, 64
5, 127612, Note_off_c, 3, 36, 64
5, 127616, Note_on_c, 3, 55, 62
5, 127616, Note_on_c, 3, 58, 62
5, 127616, Note_on_c, 3, 65, 62
5, 127740, Note_off_c, 3, 55, 64
5, 127740, Note_off_c, 3, 58, 64
5, 127740, Note_off_c, 3, 65, 64
5, 127744, Note_on_c, 3, 55, 62
5, 127744, Note_on_c, 3, 58, 62
5, 127744, Note_on_c, 3, 65, 62
5, 127868, Note_off_c, 3, 55, 64
5, 127868, Note_off_c, 3, 58, 64
5, 127868, Note_off_c, 3, 65, 64
5, 127872, Note_on_c, 3, 55, 62
5, 127872, Note_on_c, 3, 43, 65
5, 127996, Note_off_c, 3, 55, 64
5, 127996, Note_off_c, 3, 43, 64
5, 128000, Note_on_c, 3, 55, 62
5, 128000, Note_on_c, 3, 58, 62
5, 128000, Note_on_c, 3, 64, 62
5, 128124, Note_off_c, 3, 55, 64
5, 128124, Note_off_c, 3, 58, 64
5, 128124, Note_off_c, 3, 64, 64
5, 128128, Note_on_c, 3, 55, 62
5, 128128, Note_on_c, 3, 58, 62
5, 128128, Note_on_c, 3, 64, 62
5, 128252, Note_off_c, 3, 55, 64
5, 128252, Note_off_c, 3, 58, 64
5, 128252, Note_off_c, 3, 64, 64
5, 128256, Note_on_c, 3, 58, 62
5, 128256, Note_on_c, 3, 46, 64
5, 128380, Note_off_c, 3, 58, 64
5, 128380, Note_off_c, 3, 46, 64
5, 128384, Note_on_c, 3, 58, 62
5, 128384, Note_on_c, 3, 64, 62
5, 128384, Note_on_c, 3, 67, 62
5, 128508, Note_off_c, 3, 58, 64
5, 128508, Note_off_c, 3, 64, 64
5, 128508, Note_off_c, 3, 67, 64
5, 128512, Note_on_c, 3, 58, 62
5, 128512, Note_on_c, 3, 64, 62
5, 128512, Note_on_c, 3, 67, 62
5, 128636, Note_off_c, 3, 58, 64
5, 128636, Note_off_c, 3, 64, 64
5, 128636, Note_off_c, 3, 67, 64
5, 128640, Note_on_c, 3, 58, 62
5, 128640, Note_on_c, 3, 64, 62
5, 128640, Note_on_c, 3, 67, 62
5, 128764, Note_off_c, 3, 58, 64
5, 128764, Note_off_c, 3, 64, 64
5, 128764, Note_off_c, 3, 67, 64
5, 128768, Note_on_c, 3, 58, 62
5, 128768, Note_on_c, 3, 64, 62
5, 128768, Note_on_c, 3, 67, 62
5, 128892, Note_off_c, 3, 58, 64
5, 128892, Note_off_c, 3, 64, 64
5, 128892, Note_off_c, 3, 67, 64
5, 128896, Note_on_c, 3, 58, 62
5, 128896, Note_on_c, 3, 64, 62
5, 128896, Note_on_c, 3, 67, 62
5, 129020, Note_off_c, 3, 58, 64
5, 129020, Note_off_c, 3, 64, 64
5, 129020, Note_off_c, 3, 67, 64
5, 129024, Note_on_c, 3, 48, 62
5, 129024, Note_on_c, 3, 36, 66
5, 129148, Note_off_c, 3, 48, 64
5, 129148, Note_off_c, 3, 36, 64
5, 129152, Note_on_c, 3, 56, 62
5, 129152, Note_on_c, 3, 60, 62
5, 129152, Note_on_c, 3, 67, 62
5, 129276, Note_off_c, 3, 56, 64
5, 129276, Note_off_c, 3, 60, 64
5, 129276, Note_off_c, 3, 67, 64
5, 129280, Note_on_c, 3, 56, 62
5, 129280, Note_on_c, 3, 60, 62
5, 129280, Note_on_c, 3, 67, 62
5, 129404, Note_off_c, 3, 56, 64
5, 129404, Note_off_c, 3, 60, 64
5, 129404, Note_off_c, 3, 67, 64
5, 129408, Note_on_c, 3, 56, 62
5, 129408, Note_on_c, 3, 44, 65
5, 129532, Note_off_c, 3, 56, 64
5, 129532, Note_off_c, 3, 44, 64
5, 129536, Note_on_c, 3, 56, 62
5, 129536, Note_on_c, 3, 60, 62
5, 129536, Note_on_c, 3, 65, 62
5, 129660, Note_off_c, 3, 56, 64
5, 129660, Note_off_c, 3, 60, 64
5, 129660, Note_off_c, 3, 65, 64
5, 129664, Note_on_c, 3, 56, 62
5, 129664, Note_on_c, 3, 60, 62
5, 129664, Note_on_c, 3, 65, 62
5, 129788, Note_off_c, 3, 56, 64
5, 129788, Note_off_c, 3, 60, 64
5, 129788, Note_off_c, 3, 65, 64
5, 129792, Note_on_c, 3, 60, 62
5, 129792, Note_on_c, 3, 48, 64
5, 129916, Note_off_c, 3, 60, 64
5, 129916, Note_off_c, 3, 48, 64
5, 129920, Note_on_c, 3, 60, 62
5, 129920, Note_on_c, 3, 65, 62
5, 129920, Note_on_c, 3, 68, 62
5, 130044, Note_off_c, 3, 60, 64
5, 130044, Note_off_c, 3, 65, 64
5, 130044, Note_off_c, 3, 68, 64
5, 130048, Note_on_c, 3, 60, 62
5, 130048, Note_on_c, 3, 65, 62
5, 130048, Note_on_c, 3, 68, 62
5, 130172, Note_off_c, 3, 60, 64
5, 130172, Note_off_c, 3, 65, 64
5, 130172, Note_off_c, 3, 68, 64
5, 130176, Note_on_c, 3, 60, 62
5, 130176, Note_on_c, 3, 65, 62
5, 130176, Note_on_c, 3, 68, 62
5, 130300, Note_off_c, 3, 60, 64
5, 130300, Note_off_c, 3, 65, 64
5, 130300, Note_off_c, 3, 68, 64
5, 130304, Note_on_c, 3, 60, 62
5, 130304, Note_on_c, 3, 65, 62
5, 130304, Note_on_c, 3, 68, 62
5, 130428, Note_off_c, 3, 60, 64
5, 130428, Note_off_c, 3, 65, 64
5, 130428, Note_off_c, 3, 68, 64
5, 130432, Note_on_c, 3, 60, 62
5, 130432, Note_on_c, 3, 65, 62
5, 130432, Note_on_c, 3, 68, 62
5, 130556, Note_off_c, 3, 60, 64
5, 130556, Note_off_c, 3, 65, 64
5, 130556, Note_off_c, 3, 68, 64
5, 130560, Note_on_c, 3, 48, 62
5, 130560, Note_on_c, 3, 36, 66
5, 130684, Note_off_c, 3, 48, 64
5, 130684, Note_off_c, 3, 36, 64
5, 130688, Note_on_c, 3, 61, 62
5, 130688, Note_on_c, 3, 64, 62
5, 130688, Note_on_c, 3, 68, 62
5, 130812, Note_off_c, 3, 61, 64
5, 130812, Note_off_c, 3, 64, 64
5, 130812, Note_off_c, 3, 68, 64
5, 130816, Note_on_c, 3, 68, 62
5, 130816, Note_on_c, 3, 64, 62
5, 130816, Note_on_c, 3, 61, 62
5, 130940, Note_off_c, 3, 68, 64
5, 130940, Note_off_c, 3, 64, 64
5, 130940, Note_off_c, 3, 61, 64
5, 130944, Note_on_c, 3, 53, 62
5, 130944, Note_on_c, 3, 40, 64
5, 131068, Note_off_c, 3, 53, 64
5, 131068, Note_off_c, 3, 40, 64
5, 131072, Note_on_c, 3, 67, 62
5, 131072, Note_on_c, 3, 64, 62
5, 131072, Note_on_c, 3, 61, 62
5, 131196, Note_off_c, 3, 67, 64
5, 131196, Note_off_c, 3, 64, 64
5, 131196, Note_off_c, 3, 61, 64
5, 131200, Note_on_c, 3, 67, 62
5, 131200, Note_on_c, 3, 64, 62
5, 131200, Note_on_c, 3, 61, 62
5, 131324, Note_off_c, 3, 67, 64
5, 131324, Note_off_c, 3, 64, 64
5, 131324, Note_off_c, 3, 61, 64
5, 131328, Note_on_c, 3, 55, 62
5, 131328, Note_on_c, 3, 43, 64
5, 131452, Note_off_c, 3, 55, 64
5, 131452, Note_off_c, 3, 43, 64
5, 131456, Note_on_c, 3, 70, 62
5, 131456, Note_on_c, 3, 64, 62
5, 131456, Note_on_c, 3, 60, 62
5, 131580, Note_off_c, 3, 70, 64
5, 131580, Note_off_c, 3, 64, 64
5, 131580, Note_off_c, 3, 60, 64
5, 131584, Note_on_c, 3, 70, 62
5, 131584, Note_on_c, 3, 64, 62
5, 131584, Note_on_c, 3, 60, 62
5, 131708, Note_off_c, 3, 70, 64
5, 131708, Note_off_c, 3, 64, 64
5, 131708, Note_off_c, 3, 60, 64
5, 131712, Note_on_c, 3, 70, 62
5, 131712, Note_on_c, 3, 64, 62
5, 131712, Note_on_c, 3, 60, 62
5, 131836, Note_off_c, 3, 70, 64
5, 131836, Note_off_c, 3, 64, 64
5, 131836, Note_off_c, 3, 60, 64
5, 131840, Note_on_c, 3, 70, 62
5, 131840, Note_on_c, 3, 64, 62
5, 131840, Note_on_c, 3, 60, 62
5, 131964, Note_off_c, 3, 70, 64
5, 131964, Note_off_c, 3, 64, 64
5, 131964, Note_off_c, 3, 60, 64
5, 131968, Note_on_c, 3, 70, 62
5, 131968, Note_on_c, 3, 64, 62
5, 131968, Note_on_c, 3, 60, 62
5, 132092, Note_off_c, 3, 70, 64
5, 132092, Note_off_c, 3, 64, 64
5, 132092, Note_off_c, 3, 60, 64
5, 132096, Note_on_c, 3, 48, 62
5, 132096, Note_on_c, 3, 36, 66
5, 132220, Note_off_c, 3, 48, 64
5, 132220, Note_off_c, 3, 36, 64
5, 132224, Note_on_c, 3, 59, 62
5, 132224, Note_on_c, 3, 65, 62
5, 132224, Note_on_c, 3, 70, 62
5, 132348, Note_off_c, 3, 59, 64
5, 132348, Note_off_c, 3, 65, 64
5, 132348, Note_off_c, 3, 70, 64
5, 132352, Note_on_c, 3, 59, 62
5, 132352, Note_on_c, 3, 65, 62
5, 132352, Note_on_c, 3, 70, 62
5, 132476, Note_off_c, 3, 59, 64
5, 132476, Note_off_c, 3, 65, 64
5, 132476, Note_off_c, 3, 70, 64
5, 132480, Note_on_c, 3, 53, 62
5, 132480, Note_on_c, 3, 41, 65
5, 132604, Note_off_c, 3, 53, 64
5, 132604, Note_off_c, 3, 41, 64
5, 132608, Note_on_c, 3, 59, 62
5, 132608, Note_on_c, 3, 65, 62
5, 132608, Note_on_c, 3, 68, 63
5, 132732, Note_off_c, 3, 59, 64
5, 132732, Note_off_c, 3, 65, 64
5, 132732, Note_off_c, 3, 68, 64
5, 132736, Note_on_c, 3, 59, 62
5, 132736, Note_on_c, 3, 65, 62
5, 132736, Note_on_c, 3, 68, 62
5, 132860, Note_off_c, 3, 59, 64
5, 132860, Note_off_c, 3, 65, 64
5, 132860, Note_off_c, 3, 68, 64
5, 132864, Note_on_c, 3, 56, 62
5, 132864, Note_on_c, 3, 44, 64
5, 132988, Note_off_c, 3, 56, 64
5, 132988, Note_off_c, 3, 44, 64
5, 132992, Note_on_c, 3, 62, 62
5, 132992, Note_on_c, 3, 65, 62
5, 132992, Note_on_c, 3, 71, 62
5, 133116, Note_off_c, 3, 62, 64
5, 133116, Note_off_c, 3, 65, 64
5, 133116, Note_off_c, 3, 71, 64
5, 133120, Note_on_c, 3, 62, 62
5, 133120, Note_on_c, 3, 65, 62
5, 133120, Note_on_c, 3, 71, 62
5, 133244, Note_off_c, 3, 62, 64
5, 133244, Note_off_c, 3, 65, 64
5, 133244, Note_off_c, 3, 71, 64
5, 133248, Note_on_c, 3, 65, 62
5, 133248, Note_on_c, 3, 71, 62
5, 133248, Note_on_c, 3, 68, 62
5, 133372, Note_off_c, 3, 65, 64
5, 133372, Note_off_c, 3, 71, 64
5, 133372, Note_off_c, 3, 68, 64
5, 133376, Note_on_c, 3, 71, 62
5, 133376, Note_on_c, 3, 68, 62
5, 133376, Note_on_c, 3, 65, 62
5, 133500, Note_off_c, 3, 71, 64
5, 133500, Note_off_c, 3, 68, 64
5, 133500, Note_off_c, 3, 65, 64
5, 133504, Note_on_c, 3, 71, 62
5, 133504, Note_on_c, 3, 68, 62
5, 133504, Note_on_c, 3, 65, 62
5, 133628, Note_off_c, 3, 71, 64
5, 133628, Note_off_c, 3, 68, 64
5, 133628, Note_off_c, 3, 65, 64
5, 133632, Note_on_c, 3, 48, 62
5, 133632, Note_on_c, 3, 36, 66
5, 133820, Note_off_c, 3, 48, 64
5, 133820, Note_off_c, 3, 36, 64
5, 134016, Note_on_c, 3, 55, 62
5, 134016, Note_on_c, 3, 43, 65
5, 134204, Note_off_c, 3, 55, 64
5, 134204, Note_off_c, 3, 43, 64
5, 134400, Note_on_c, 3, 58, 62
5, 134400, Note_on_c, 3, 46, 62
5, 134588, Note_off_c, 3, 58, 64
5, 134588, Note_off_c, 3, 46, 64
5, 134784, Note_on_c, 3, 46, 62
5, 134784, Note_on_c, 3, 34, 67
5, 134972, Note_off_c, 3, 46, 64
5, 134972, Note_off_c, 3, 34, 64
5, 135168, Note_on_c, 3, 45, 62
5, 135168, Note_on_c, 3, 33, 68
5, 135356, Note_off_c, 3, 45, 64
5, 135356, Note_off_c, 3, 33, 64
5, 135552, Note_on_c, 3, 53, 62
5, 135552, Note_on_c, 3, 41, 65
5, 135740, Note_off_c, 3, 53, 64
5, 135740, Note_off_c, 3, 41, 64
5, 135936, Note_on_c, 3, 46, 62
5, 135936, Note_on_c, 3, 34, 67
5, 136124, Note_off_c, 3, 46, 64
5, 136124, Note_off_c, 3, 34, 64
5, 136320, Note_on_c, 3, 55, 62
5, 136320, Note_on_c, 3, 43, 62
5, 136508, Note_off_c, 3, 55, 64
5, 136508, Note_off_c, 3, 43, 64
5, 136704, Note_on_c, 3, 48, 62
5, 136704, Note_on_c, 3, 36, 66
5, 136892, Note_off_c, 3, 48, 64
5, 136892, Note_off_c, 3, 36, 64
5, 137088, Note_on_c, 3, 46, 62
5, 137088, Note_on_c, 3, 34, 67
5, 137276, Note_off_c, 3, 46, 64
5, 137276, Note_off_c, 3, 34, 64
5, 137472, Note_on_c, 3, 48, 62
5, 137472, Note_on_c, 3, 36, 66
5, 137660, Note_off_c, 3, 48, 64
5, 137660, Note_off_c, 3, 36, 64
5, 137856, Note_on_c, 3, 48, 62
5, 137856, Note_on_c, 3, 36, 66
5, 138044, Note_off_c, 3, 48, 64
5, 138044, Note_off_c, 3, 36, 64
5, 138240, Note_on_c, 3, 49, 62
5, 138240, Note_on_c, 3, 37, 66
5, 138428, Note_off_c, 3, 49, 64
5, 138428, Note_off_c, 3, 37, 64
5, 138624, Note_on_c, 3, 50, 62
5, 138624, Note_on_c, 3, 38, 65
5, 138812, Note_off_c, 3, 50, 64
5, 138812, Note_off_c, 3, 38, 64
5, 139008, Note_on_c, 3, 48, 62
5, 139008, Note_on_c, 3, 36, 65
5, 139196, Note_off_c, 3, 48, 64
5, 139196, Note_off_c, 3, 36, 64
5, 139392, Note_on_c, 3, 46, 62
5, 139392, Note_on_c, 3, 34, 67
5, 139580, Note_off_c, 3, 46, 64
5, 139580, Note_off_c, 3, 34, 64
5, 139776, Note_on_c, 3, 45, 62
5, 139776, Note_on_c, 3, 33, 68
5, 139964, Note_off_c, 3, 45, 64
5, 139964, Note_off_c, 3, 33, 64
5, 140160, Note_on_c, 3, 53, 62
5, 140160, Note_on_c, 3, 41, 63
5, 140348, Note_off_c, 3, 53, 64
5, 140348, Note_off_c, 3, 41, 64
5, 140544, Note_on_c, 3, 46, 62
5, 140544, Note_on_c, 3, 34, 67
5, 140732, Note_off_c, 3, 46, 64
5, 140732, Note_off_c, 3, 34, 64
5, 140928, Note_on_c, 3, 55, 62
5, 140928, Note_on_c, 3, 43, 64
5, 141116, Note_off_c, 3, 55, 64
5, 141116, Note_off_c, 3, 43, 64
5, 141312, Note_on_c, 3, 48, 62
5, 141312, Note_on_c, 3, 36, 66
5, 141500, Note_off_c, 3, 48, 64
5, 141500, Note_off_c, 3, 36, 64
5, 141696, Note_on_c, 3, 46, 62
5, 141696, Note_on_c, 3, 34, 67
5, 141884, Note_off_c, 3, 46, 64
5, 141884, Note_off_c, 3, 34, 64
5, 142080, Note_on_c, 3, 48, 62
5, 142080, Note_on_c, 3, 36, 66
5, 142268, Note_off_c, 3, 48, 64
5, 142268, Note_off_c, 3, 36, 64
5, 142464, Note_on_c, 3, 48, 62
5, 142464, Note_on_c, 3, 36, 66
5, 142652, Note_off_c, 3, 48, 64
5, 142652, Note_off_c, 3, 36, 64
5, 142848, Note_on_c, 3, 53, 63
5, 142848, Note_on_c, 3, 57, 63
5, 142848, Note_on_c, 3, 60, 63
5, 142848, Note_on_c, 3, 65, 63
5, 142972, Note_off_c, 3, 53, 64
5, 142972, Note_off_c, 3, 57, 64
5, 142972, Note_off_c, 3, 60, 64
5, 142972, Note_off_c, 3, 65, 64
5, 142976, Note_on_c, 3, 53, 63
5, 142976, Note_on_c, 3, 57, 63
5, 142976, Note_on_c, 3, 60, 63
5, 142976, Note_on_c, 3, 65, 63
5, 143100, Note_off_c, 3, 53, 64
5, 143100, Note_off_c, 3, 57, 64
5, 143100, Note_off_c, 3, 60, 64
5, 143100, Note_off_c, 3, 65, 64
5, 143104, Note_on_c, 3, 53, 64
5, 143104, Note_on_c, 3, 57, 64
5, 143104, Note_on_c, 3, 60, 64
5, 143104, Note_on_c, 3, 65, 64
5, 143228, Note_off_c, 3, 53, 64
5, 143228, Note_off_c, 3, 57, 64
5, 143228, Note_off_c, 3, 60, 64
5, 143228, Note_off_c, 3, 65, 64
5, 143232, Note_on_c, 3, 53, 64
5, 143232, Note_on_c, 3, 56, 64
5, 143232, Note_on_c, 3, 59, 64
5, 143232, Note_on_c, 3, 65, 64
5, 143356, Note_off_c, 3, 53, 64
5, 143356, Note_off_c, 3, 56, 64
5, 143356, Note_off_c, 3, 59, 64
5, 143356, Note_off_c, 3, 65, 64
5, 143360, Note_on_c, 3, 53, 65
5, 143360, Note_on_c, 3, 56, 65
5, 143360, Note_on_c, 3, 59, 65
5, 143360, Note_on_c, 3, 65, 65
5, 143484, Note_off_c, 3, 53, 64
5, 143484, Note_off_c, 3, 56, 64
5, 143484, Note_off_c, 3, 59, 64
5, 143484, Note_off_c, 3, 65, 64
5, 143488, Note_on_c, 3, 53, 65
5, 143488, Note_on_c, 3, 56, 65
5, 143488, Note_on_c, 3, 59, 65
5, 143488, Note_on_c, 3, 65, 65
5, 143612, Note_off_c, 3, 53, 64
5, 143612, Note_off_c, 3, 56, 64
5, 143612, Note_off_c, 3, 59, 64
5, 143612, Note_off_c, 3, 65, 64
5, 143616, Note_on_c, 3, 53, 66
5, 143616, Note_on_c, 3, 57, 66
5, 143616, Note_on_c, 3, 60, 66
5, 143616, Note_on_c, 3, 65, 66
5, 143740, Note_off_c, 3, 53, 64
5, 143740, Note_off_c, 3, 57, 64
5, 143740, Note_off_c, 3, 60, 64
5, 143740, Note_off_c, 3, 65, 64
5, 143744, Note_on_c, 3, 53, 66
5, 143744, Note_on_c, 3, 57, 66
5, 143744, Note_on_c, 3, 60, 66
5, 143744, Note_on_c, 3, 65, 66
5, 143868, Note_off_c, 3, 53, 64
5, 143868, Note_off_c, 3, 57, 64
5, 143868, Note_off_c, 3, 60, 64
5, 143868, Note_off_c, 3, 65, 64
5, 143872, Note_on_c, 3, 53, 67
5, 143872, Note_on_c, 3, 57, 67
5, 143872, Note_on_c, 3, 60, 67
5, 143872, Note_on_c, 3, 65, 67
5, 143996, Note_off_c, 3, 53, 64
5, 143996, Note_off_c, 3, 57, 64
5, 143996, Note_off_c, 3, 60, 64
5, 143996, Note_off_c, 3, 65, 64
5, 144000, Note_on_c, 3, 53, 67
5, 144000, Note_on_c, 3, 59, 67
5, 144000, Note_on_c, 3, 62, 67
5, 144000, Note_on_c, 3, 65, 67
5, 144124, Note_off_c, 3, 53, 64
5, 144124, Note_off_c, 3, 59, 64
5, 144124, Note_off_c, 3, 62, 64
5, 144124, Note_off_c, 3, 65, 64
5, 144128, Note_on_c, 3, 53, 68
5, 144128, Note_on_c, 3, 59, 68
5, 144128, Note_on_c, 3, 62, 68
5, 144128, Note_on_c, 3, 65, 68
5, 144252, Note_off_c, 3, 53, 64
5, 144252, Note_off_c, 3, 59, 64
5, 144252, Note_off_c, 3, 62, 64
5, 144252, Note_off_c, 3, 65, 64
5, 144256, Note_on_c, 3, 53, 68
5, 144256, Note_on_c, 3, 59, 68
5, 144256, Note_on_c, 3, 62, 68
5, 144256, Note_on_c, 3, 65, 68
5, 144376, Program_c, 3, 45
5, 144380, Note_off_c, 3, 53, 64
5, 144380, Note_off_c, 3, 59, 64
5, 144380, Note_off_c, 3, 62, 64
5, 144380, Note_off_c, 3, 65, 64
5, 144384, Note_on_c, 3, 45, 64
5, 144384, Note_on_c, 3, 33, 68
5, 144572, Note_off_c, 3, 45, 64
5, 144572, Note_off_c, 3, 33, 64
5, 144768, Note_on_c, 3, 48, 63
5, 144768, Note_on_c, 3, 36, 66
5, 144956, Note_off_c, 3, 48, 64
5, 144956, Note_off_c, 3, 36, 64
5, 145152, Note_on_c, 3, 53, 62
5, 145152, Note_on_c, 3, 41, 65
5, 145340, Note_off_c, 3, 53, 64
5, 145340, Note_off_c, 3, 41, 64
5, 145536, Note_on_c, 3, 45, 64
5, 145536, Note_on_c, 3, 33, 68
5, 145724, Note_off_c, 3, 45, 64
5, 145724, Note_off_c, 3, 33, 64
5, 145912, Program_c, 3, 48
5, 145920, Note_on_c, 3, 46, 62
5, 145920, Note_on_c, 3, 34, 67
5, 146044, Note_off_c, 3, 46, 64
5, 146048, Note_on_c, 3, 46, 62
5, 146172, Note_off_c, 3, 46, 64
5, 146176, Note_on_c, 3, 46, 62
5, 146300, Note_off_c, 3, 34, 64
5, 146300, Note_off_c, 3, 46, 64
5, 146304, Note_on_c, 3, 46, 63
5, 146428, Note_off_c, 3, 46, 64
5, 146432, Note_on_c, 3, 46, 63
5, 146556, Note_off_c, 3, 46, 64
5, 146560, Note_on_c, 3, 46, 63
5, 146684, Note_off_c, 3, 46, 64
5, 146688, Note_on_c, 3, 46, 64
5, 146812, Note_off_c, 3, 46, 64
5, 146816, Note_on_c, 3, 46, 64
5, 146940, Note_off_c, 3, 46, 64
5, 146944, Note_on_c, 3, 46, 65
5, 147068, Note_off_c, 3, 46, 64
5, 147072, Note_on_c, 3, 46, 65
5, 147196, Note_off_c, 3, 46, 64
5, 147200, Note_on_c, 3, 46, 66
5, 147324, Note_off_c, 3, 46, 64
5, 147328, Note_on_c, 3, 46, 66
5, 147452, Note_off_c, 3, 46, 64
5, 147456, Note_on_c, 3, 47, 62
5, 147456, Note_on_c, 3, 35, 67
5, 147644, Note_off_c, 3, 47, 64
5, 147644, Note_off_c, 3, 35, 64
5, 147840, Note_on_c, 3, 50, 62
5, 147840, Note_on_c, 3, 38, 65
5, 148028, Note_off_c, 3, 50, 64
5, 148028, Note_off_c, 3, 38, 64
5, 148224, Note_on_c, 3, 53, 62
5, 148224, Note_on_c, 3, 41, 64
5, 148412, Note_off_c, 3, 53, 64
5, 148412, Note_off_c, 3, 41, 64
5, 148608, Note_on_c, 3, 47, 62
5, 148608, Note_on_c, 3, 35, 67
5, 148796, Note_off_c, 3, 47, 64
5, 148796, Note_off_c, 3, 35, 64
5, 148992, Note_on_c, 3, 48, 62
5, 148992, Note_on_c, 3, 36, 66
5, 149180, Note_off_c, 3, 48, 64
5, 149180, Note_off_c, 3, 36, 64
5, 149376, Note_on_c, 3, 53, 62
5, 149376, Note_on_c, 3, 41, 65
5, 149564, Note_off_c, 3, 53, 64
5, 149564, Note_off_c, 3, 41, 64
5, 149760, Note_on_c, 3, 57, 62
5, 149760, Note_on_c, 3, 45, 64
5, 149948, Note_off_c, 3, 57, 64
5, 149948, Note_off_c, 3, 45, 64
5, 150144, Note_on_c, 3, 60, 62
5, 150144, Note_on_c, 3, 48, 64
5, 150332, Note_off_c, 3, 60, 64
5, 150332, Note_off_c, 3, 48, 64
5, 150528, Note_on_c, 3, 58, 62
5, 150528, Note_on_c, 3, 46, 64
5, 150716, Note_off_c, 3, 58, 64
5, 150716, Note_off_c, 3, 46, 64
5, 150912, Note_on_c, 3, 55, 62
5, 150912, Note_on_c, 3, 43, 64
5, 151100, Note_off_c, 3, 55, 64
5, 151100, Note_off_c, 3, 43, 64
5, 151296, Note_on_c, 3, 60, 62
5, 151296, Note_on_c, 3, 48, 64
5, 151484, Note_off_c, 3, 60, 64
5, 151484, Note_off_c, 3, 48, 64
5, 151680, Note_on_c, 3, 48, 62
5, 151680, Note_on_c, 3, 36, 66
5, 151868, Note_off_c, 3, 48, 64
5, 151868, Note_off_c, 3, 36, 64
5, 152064, Note_on_c, 3, 53, 62
5, 152064, Note_on_c, 3, 41, 65
5, 152252, Note_off_c, 3, 53, 64
5, 152252, Note_off_c, 3, 41, 64
5, 152448, Note_on_c, 3, 57, 62
5, 152448, Note_on_c, 3, 45, 64
5, 152636, Note_off_c, 3, 57, 64
5, 152636, Note_off_c, 3, 45, 64
5, 152832, Note_on_c, 3, 60, 62
5, 152832, Note_on_c, 3, 48, 64
5, 153020, Note_off_c, 3, 60, 64
5, 153020, Note_off_c, 3, 48, 64
5, 153600, Note_on_c, 3, 48, 62
5, 153600, Note_on_c, 3, 36, 66
5, 153788, Note_off_c, 3, 48, 64
5, 153788, Note_off_c, 3, 36, 64
5, 153984, Note_on_c, 3, 52, 62
5, 153984, Note_on_c, 3, 40, 65
5, 154172, Note_off_c, 3, 52, 64
5, 154172, Note_off_c, 3, 40, 64
5, 154368, Note_on_c, 3, 55, 62
5, 154368, Note_on_c, 3, 43, 64
5, 154556, Note_off_c, 3, 55, 64
5, 154556, Note_off_c, 3, 43, 64
5, 154752, Note_on_c, 3, 48, 62
5, 154752, Note_on_c, 3, 36, 66
5, 154940, Note_off_c, 3, 48, 64
5, 154940, Note_off_c, 3, 36, 64
5, 155136, Note_on_c, 3, 53, 62
5, 155136, Note_on_c, 3, 41, 65
5, 155228, Note_off_c, 3, 53, 64
5, 155228, Note_off_c, 3, 41, 64
5, 155520, Note_on_c, 3, 57, 62
5, 155520, Note_on_c, 3, 45, 64
5, 155612, Note_off_c, 3, 57, 64
5, 155612, Note_off_c, 3, 45, 64
5, 155904, Note_on_c, 3, 60, 62
5, 155904, Note_on_c, 3, 48, 64
5, 155996, Note_off_c, 3, 60, 64
5, 155996, Note_off_c, 3, 48, 64
5, 156672, Note_on_c, 3, 48, 62
5, 156672, Note_on_c, 3, 36, 66
5, 156860, Note_off_c, 3, 48, 64
5, 156860, Note_off_c, 3, 36, 64
5, 157056, Note_on_c, 3, 52, 62
5, 157056, Note_on_c, 3, 40, 65
5, 157244, Note_off_c, 3, 52, 64
5, 157244, Note_off_c, 3, 40, 64
5, 157440, Note_on_c, 3, 55, 62
5, 157440, Note_on_c, 3, 43, 64
5, 157628, Note_off_c, 3, 55, 64
5, 157628, Note_off_c, 3, 43, 64
5, 157824, Note_on_c, 3, 48, 62
5, 157824, Note_on_c, 3, 36, 66
5, 158012, Note_off_c, 3, 48, 64
5, 158012, Note_off_c, 3, 36, 64
5, 158208, Note_on_c, 3, 53, 62
5, 158208, Note_on_c, 3, 41, 65
5, 158332, Note_off_c, 3, 53, 64
5, 158332, Note_off_c, 3, 41, 64
5, 158336, Note_on_c, 3, 53, 62
5, 158460, Note_off_c, 3, 53, 64
5, 158464, Note_on_c, 3, 53, 62
5, 158588, Note_off_c, 3, 53, 64
5, 158592, Note_on_c, 3, 57, 62
5, 158592, Note_on_c, 3, 53, 62
5, 158592, Note_on_c, 3, 45, 64
5, 158716, Note_off_c, 3, 57, 64
5, 158716, Note_off_c, 3, 53, 64
5, 158716, Note_off_c, 3, 45, 64
5, 158720, Note_on_c, 3, 53, 62
5, 158844, Note_off_c, 3, 53, 64
5, 158848, Note_on_c, 3, 53, 62
5, 158972, Note_off_c, 3, 53, 64
5, 158976, Note_on_c, 3, 60, 62
5, 158976, Note_on_c, 3, 53, 62
5, 158976, Note_on_c, 3, 48, 64
5, 159100, Note_off_c, 3, 60, 64
5, 159100, Note_off_c, 3, 53, 64
5, 159100, Note_off_c, 3, 48, 64
5, 159104, Note_on_c, 3, 48, 62
5, 159104, Note_on_c, 3, 41, 64
5, 159228, Note_off_c, 3, 48, 64
5, 159228, Note_off_c, 3, 41, 64
5, 159232, Note_on_c, 3, 48, 62
5, 159232, Note_on_c, 3, 41, 64
5, 159356, Note_off_c, 3, 48, 64
5, 159356, Note_off_c, 3, 41, 64
5, 159360, Note_on_c, 3, 57, 62
5, 159360, Note_on_c, 3, 48, 62
5, 159360, Note_on_c, 3, 45, 62
5, 159360, Note_on_c, 3, 41, 64
5, 159484, Note_off_c, 3, 57, 64
5, 159484, Note_off_c, 3, 48, 64
5, 159484, Note_off_c, 3, 45, 64
5, 159484, Note_off_c, 3, 41, 64
5, 159488, Note_on_c, 3, 48, 62
5, 159488, Note_on_c, 3, 41, 64
5, 159612, Note_off_c, 3, 48, 64
5, 159612, Note_off_c, 3, 41, 64
5, 159616, Note_on_c, 3, 48, 62
5, 159616, Note_on_c, 3, 41, 65
5, 159740, Note_off_c, 3, 48, 64
5, 159740, Note_off_c, 3, 41, 64
5, 159744, Note_on_c, 3, 53, 62
5, 159744, Note_on_c, 3, 48, 62
5, 159744, Note_on_c, 3, 41, 65
5, 160264, Note_off_c, 3, 53, 64
5, 160272, Note_off_c, 3, 48, 64
5, 160280, Note_off_c, 3, 41, 64
5, 160280, End_track
0, 0, End_of_file
