0, 0, Header, 1, 18, 384
1, 0, Start_track
1, 0, Time_signature, 3, 2, 96, 8
1, 0, Sequencer_specific, 3, 0, 0, 65
1, 0, Tempo, 1304347
1, 0, End_track
2, 0, Start_track
2, 0, Control_c, 0, 0, 0
2, 0, Program_c, 0, 0
2, 0, Control_c, 0, 7, 80
2, 0, Control_c, 0, 10, 79
2, 0, Control_c, 0, 91, 31
2, 0, Control_c, 0, 93, 48
2, 0, Key_signature, -1, "minor"
2, 0, Control_c, 0, 121, 0
2, 96, Control_c, 0, 10, 73
2, 144, Control_c, 0, 91, 63
2, 192, Control_c, 0, 93, 40
2, 288, Program_c, 0, 0
2, 768, Note_on_c, 0, 65, 40
2, 860, Note_off_c, 0, 65, 0
2, 864, Note_on_c, 0, 69, 40
2, 956, Note_off_c, 0, 69, 0
2, 960, Note_on_c, 0, 72, 40
2, 1052, Note_off_c, 0, 72, 0
2, 1056, Note_on_c, 0, 77, 40
2, 1148, Note_off_c, 0, 77, 0
2, 1152, Note_on_c, 0, 72, 75
2, 1196, Note_off_c, 0, 72, 0
2, 1200, Note_on_c, 0, 81, 90
2, 1440, Note_on_c, 0, 77, 60
2, 1444, Note_off_c, 0, 81, 0
2, 1532, Note_off_c, 0, 77, 0
2, 1536, Note_on_c, 0, 72, 60
2, 1724, Note_off_c, 0, 72, 0
2, 1728, Note_on_c, 0, 72, 60
2, 1728, Note_on_c, 0, 69, 60
2, 1916, Note_off_c, 0, 72, 0
2, 1916, Note_off_c, 0, 69, 0
2, 1920, Note_on_c, 0, 72, 60
2, 1920, Note_on_c, 0, 69, 60
2, 2012, Note_off_c, 0, 72, 0
2, 2012, Note_off_c, 0, 69, 0
2, 2016, Note_on_c, 0, 70, 60
2, 2016, Note_on_c, 0, 67, 60
2, 2108, Note_off_c, 0, 70, 0
2, 2108, Note_off_c, 0, 67, 0
2, 2112, Note_on_c, 0, 69, 60
2, 2112, Note_on_c, 0, 65, 60
2, 2204, Note_off_c, 0, 69, 0
2, 2204, Note_off_c, 0, 65, 0
2, 2208, Note_on_c, 0, 70, 60
2, 2208, Note_on_c, 0, 67, 60
2, 2300, Note_off_c, 0, 70, 0
2, 2300, Note_off_c, 0, 67, 0
2, 2304, Note_on_c, 0, 70, 75
2, 2304, Note_on_c, 0, 67, 75
2, 2588, Note_off_c, 0, 70, 0
2, 2592, Note_on_c, 0, 72, 75
2, 2636, Note_off_c, 0, 72, 0
2, 2640, Note_on_c, 0, 70, 75
2, 2684, Note_off_c, 0, 67, 0
2, 2684, Note_off_c, 0, 70, 0
2, 2688, Note_on_c, 0, 65, 75
2, 2688, Note_on_c, 0, 69, 75
2, 2876, Note_off_c, 0, 65, 0
2, 2972, Note_off_c, 0, 69, 0
2, 2976, Note_on_c, 0, 60, 75
2, 3020, Note_off_c, 0, 60, 0
2, 3024, Note_on_c, 0, 65, 75
2, 3068, Note_off_c, 0, 65, 0
2, 3072, Note_on_c, 0, 65, 90
2, 3072, Note_on_c, 0, 74, 90
2, 3164, Note_off_c, 0, 74, 0
2, 3168, Note_on_c, 0, 72, 60
2, 3260, Note_off_c, 0, 72, 0
2, 3264, Note_on_c, 0, 70, 60
2, 3356, Note_off_c, 0, 70, 0
2, 3360, Note_on_c, 0, 69, 60
2, 3452, Note_off_c, 0, 65, 0
2, 3452, Note_off_c, 0, 69, 0
2, 3456, Note_on_c, 0, 65, 75
2, 3456, Note_on_c, 0, 62, 75
2, 3456, Note_on_c, 0, 69, 75
2, 3548, Note_off_c, 0, 69, 0
2, 3552, Note_on_c, 0, 67, 75
2, 3644, Note_off_c, 0, 65, 0
2, 3644, Note_off_c, 0, 62, 0
2, 3644, Note_off_c, 0, 67, 0
2, 3648, Note_on_c, 0, 67, 79
2, 3648, Note_on_c, 0, 65, 79
2, 3648, Note_on_c, 0, 62, 79
2, 4028, Note_off_c, 0, 67, 0
2, 4028, Note_off_c, 0, 65, 0
2, 4028, Note_off_c, 0, 62, 0
2, 4032, Note_on_c, 0, 67, 84
2, 4032, Note_on_c, 0, 65, 84
2, 4032, Note_on_c, 0, 58, 84
2, 4220, Note_off_c, 0, 67, 0
2, 4220, Note_off_c, 0, 65, 0
2, 4220, Note_off_c, 0, 58, 0
2, 4224, Note_on_c, 0, 67, 75
2, 4316, Note_off_c, 0, 67, 0
2, 4320, Note_on_c, 0, 70, 75
2, 4364, Note_off_c, 0, 70, 0
2, 4368, Note_on_c, 0, 69, 75
2, 4412, Note_off_c, 0, 69, 0
2, 4416, Note_on_c, 0, 72, 75
2, 4460, Note_off_c, 0, 72, 0
2, 4464, Note_on_c, 0, 70, 75
2, 4508, Note_off_c, 0, 70, 0
2, 4512, Note_on_c, 0, 69, 75
2, 4556, Note_off_c, 0, 69, 0
2, 4560, Note_on_c, 0, 67, 75
2, 4604, Note_off_c, 0, 67, 0
2, 4608, Note_on_c, 0, 65, 90
2, 4892, Note_off_c, 0, 65, 0
2, 4896, Note_on_c, 0, 67, 90
2, 4940, Note_off_c, 0, 67, 0
2, 4944, Note_on_c, 0, 65, 87
2, 4988, Note_off_c, 0, 65, 0
2, 4992, Note_on_c, 0, 64, 84
2, 5180, Note_off_c, 0, 64, 0
2, 5376, Note_on_c, 0, 65, 60
2, 5420, Note_off_c, 0, 65, 0
2, 5424, Note_on_c, 0, 69, 60
2, 5468, Note_off_c, 0, 69, 0
2, 5472, Note_on_c, 0, 70, 60
2, 5516, Note_off_c, 0, 70, 0
2, 5520, Note_on_c, 0, 72, 60
2, 5564, Note_off_c, 0, 72, 0
2, 5568, Note_on_c, 0, 74, 60
2, 5612, Note_off_c, 0, 74, 0
2, 5616, Note_on_c, 0, 76, 60
2, 5660, Note_off_c, 0, 76, 0
2, 5664, Note_on_c, 0, 77, 60
2, 5708, Note_off_c, 0, 77, 0
2, 5712, Note_on_c, 0, 79, 60
2, 5756, Note_off_c, 0, 79, 0
2, 5760, Note_on_c, 0, 81, 90
2, 6000, Note_on_c, 0, 77, 90
2, 6044, Note_off_c, 0, 81, 0
2, 6044, Note_off_c, 0, 77, 0
2, 6048, Note_on_c, 0, 81, 87
2, 6092, Note_off_c, 0, 81, 0
2, 6096, Note_on_c, 0, 77, 84
2, 6140, Note_off_c, 0, 77, 0
2, 6144, Note_on_c, 0, 72, 60
2, 6332, Note_off_c, 0, 72, 0
2, 6336, Note_on_c, 0, 72, 60
2, 6336, Note_on_c, 0, 69, 60
2, 6524, Note_off_c, 0, 72, 0
2, 6528, Note_on_c, 0, 72, 60
2, 6620, Note_off_c, 0, 72, 0
2, 6624, Note_on_c, 0, 74, 60
2, 6668, Note_off_c, 0, 74, 0
2, 6672, Note_on_c, 0, 72, 60
2, 6716, Note_off_c, 0, 69, 0
2, 6716, Note_off_c, 0, 72, 0
2, 6720, Note_on_c, 0, 72, 60
2, 6720, Note_on_c, 0, 67, 60
2, 6764, Note_off_c, 0, 72, 0
2, 6768, Note_on_c, 0, 70, 60
2, 6812, Note_off_c, 0, 70, 0
2, 6816, Note_on_c, 0, 69, 60
2, 6860, Note_off_c, 0, 69, 0
2, 6864, Note_on_c, 0, 70, 60
2, 6908, Note_off_c, 0, 67, 0
2, 6908, Note_off_c, 0, 70, 0
2, 6912, Note_on_c, 0, 72, 75
2, 6912, Note_on_c, 0, 67, 75
2, 7100, Note_off_c, 0, 72, 0
2, 7104, Note_on_c, 0, 70, 75
2, 7128, Note_off_c, 0, 70, 0
2, 7128, Note_on_c, 0, 72, 75
2, 7152, Note_off_c, 0, 72, 0
2, 7152, Note_on_c, 0, 70, 75
2, 7176, Note_off_c, 0, 70, 0
2, 7176, Note_on_c, 0, 72, 75
2, 7200, Note_off_c, 0, 72, 0
2, 7200, Note_on_c, 0, 69, 75
2, 7244, Note_off_c, 0, 69, 0
2, 7248, Note_on_c, 0, 70, 75
2, 7292, Note_off_c, 0, 67, 0
2, 7292, Note_off_c, 0, 70, 0
2, 7296, Note_on_c, 0, 65, 75
2, 7296, Note_on_c, 0, 69, 75
2, 7388, Note_off_c, 0, 65, 0
2, 7388, Note_off_c, 0, 69, 0
2, 7392, Note_on_c, 0, 77, 75
2, 7484, Note_off_c, 0, 77, 0
2, 7488, Note_on_c, 0, 76, 75
2, 7580, Note_off_c, 0, 76, 0
2, 7584, Note_on_c, 0, 77, 75
2, 7676, Note_off_c, 0, 77, 0
2, 7680, Note_on_c, 0, 79, 75
2, 7772, Note_off_c, 0, 79, 0
2, 7776, Note_on_c, 0, 77, 75
2, 7868, Note_off_c, 0, 77, 0
2, 7872, Note_on_c, 0, 76, 75
2, 7964, Note_off_c, 0, 76, 0
2, 7968, Note_on_c, 0, 74, 75
2, 8060, Note_off_c, 0, 74, 0
2, 8064, Note_on_c, 0, 72, 90
2, 8108, Note_off_c, 0, 72, 0
2, 8112, Note_on_c, 0, 73, 90
2, 8156, Note_off_c, 0, 73, 0
2, 8160, Note_on_c, 0, 74, 90
2, 8204, Note_off_c, 0, 74, 0
2, 8208, Note_on_c, 0, 73, 90
2, 8252, Note_off_c, 0, 73, 0
2, 8256, Note_on_c, 0, 76, 90
2, 8300, Note_off_c, 0, 76, 0
2, 8304, Note_on_c, 0, 74, 90
2, 8348, Note_off_c, 0, 74, 0
2, 8352, Note_on_c, 0, 72, 87
2, 8396, Note_off_c, 0, 72, 0
2, 8400, Note_on_c, 0, 70, 87
2, 8444, Note_off_c, 0, 70, 0
2, 8448, Note_on_c, 0, 69, 84
2, 8540, Note_off_c, 0, 69, 0
2, 8544, Note_on_c, 0, 70, 84
2, 8588, Note_off_c, 0, 70, 0
2, 8592, Note_on_c, 0, 69, 81
2, 8636, Note_off_c, 0, 69, 0
2, 8640, Note_on_c, 0, 67, 81
2, 8684, Note_off_c, 0, 67, 0
2, 8688, Note_on_c, 0, 69, 78
2, 8732, Note_off_c, 0, 69, 0
2, 8736, Note_on_c, 0, 70, 78
2, 8828, Note_off_c, 0, 70, 0
2, 8832, Note_on_c, 0, 69, 60
2, 8856, Note_off_c, 0, 69, 0
2, 8856, Note_on_c, 0, 67, 60
2, 8880, Note_off_c, 0, 67, 0
2, 8880, Note_on_c, 0, 69, 60
2, 8904, Note_off_c, 0, 69, 0
2, 8904, Note_on_c, 0, 67, 60
2, 8928, Note_off_c, 0, 67, 0
2, 8928, Note_on_c, 0, 69, 60
2, 8952, Note_off_c, 0, 69, 0
2, 8952, Note_on_c, 0, 67, 60
2, 8976, Note_off_c, 0, 67, 0
2, 8976, Note_on_c, 0, 69, 60
2, 9000, Note_off_c, 0, 69, 0
2, 9000, Note_on_c, 0, 67, 60
2, 9024, Note_off_c, 0, 67, 0
2, 9024, Note_on_c, 0, 69, 60
2, 9048, Note_off_c, 0, 69, 0
2, 9048, Note_on_c, 0, 67, 60
2, 9072, Note_off_c, 0, 67, 0
2, 9072, Note_on_c, 0, 69, 60
2, 9096, Note_off_c, 0, 69, 0
2, 9096, Note_on_c, 0, 67, 60
2, 9120, Note_off_c, 0, 67, 0
2, 9120, Note_on_c, 0, 65, 60
2, 9164, Note_off_c, 0, 65, 0
2, 9168, Note_on_c, 0, 67, 60
2, 9212, Note_off_c, 0, 67, 0
2, 9216, Note_on_c, 0, 65, 45
2, 9596, Note_off_c, 0, 65, 0
2, 9696, Note_on_c, 0, 65, 60
2, 9788, Note_off_c, 0, 65, 0
2, 9792, Note_on_c, 0, 69, 60
2, 9884, Note_off_c, 0, 69, 0
2, 9888, Note_on_c, 0, 72, 60
2, 9980, Note_off_c, 0, 72, 0
2, 9984, Note_on_c, 0, 77, 60
2, 10076, Note_off_c, 0, 77, 0
2, 10080, Note_on_c, 0, 81, 60
2, 10172, Note_off_c, 0, 81, 0
2, 10176, Note_on_c, 0, 84, 60
2, 10268, Note_off_c, 0, 84, 0
2, 10272, Note_on_c, 0, 84, 60
2, 10364, Note_off_c, 0, 84, 0
2, 10368, Note_on_c, 0, 84, 75
2, 10508, Note_off_c, 0, 84, 0
2, 10512, Note_on_c, 0, 76, 75
2, 10556, Note_off_c, 0, 76, 0
2, 10560, Note_on_c, 0, 82, 75
2, 10748, Note_off_c, 0, 82, 0
2, 10848, Note_on_c, 0, 86, 75
2, 10868, Note_on_c, 0, 82, 75
2, 10872, Note_off_c, 0, 86, 0
2, 10944, Note_on_c, 0, 81, 75
2, 10960, Note_off_c, 0, 82, 0
2, 10960, Note_on_c, 0, 79, 75
2, 10968, Note_off_c, 0, 81, 0
2, 11040, Note_on_c, 0, 77, 75
2, 11052, Note_off_c, 0, 79, 0
2, 11056, Note_on_c, 0, 76, 75
2, 11064, Note_off_c, 0, 77, 0
2, 11136, Note_on_c, 0, 74, 75
2, 11148, Note_off_c, 0, 76, 0
2, 11160, Note_off_c, 0, 74, 0
2, 11160, Note_on_c, 0, 72, 75
2, 11232, Note_on_c, 0, 81, 75
2, 11252, Note_off_c, 0, 72, 0
2, 11252, Note_on_c, 0, 79, 75
2, 11256, Note_off_c, 0, 81, 0
2, 11328, Note_on_c, 0, 77, 75
2, 11344, Note_off_c, 0, 79, 0
2, 11344, Note_on_c, 0, 76, 75
2, 11352, Note_off_c, 0, 77, 0
2, 11424, Note_on_c, 0, 74, 75
2, 11436, Note_off_c, 0, 76, 0
2, 11440, Note_on_c, 0, 72, 75
2, 11448, Note_off_c, 0, 74, 0
2, 11520, Note_on_c, 0, 70, 75
2, 11532, Note_off_c, 0, 72, 0
2, 11664, Note_on_c, 0, 67, 75
2, 11708, Note_off_c, 0, 67, 0
2, 11712, Note_on_c, 0, 69, 75
2, 11804, Note_off_c, 0, 70, 0
2, 11900, Note_off_c, 0, 69, 0
2, 11952, Note_on_c, 0, 65, 75
2, 11996, Note_off_c, 0, 65, 0
2, 12000, Note_on_c, 0, 67, 75
2, 12044, Note_off_c, 0, 67, 0
2, 12048, Note_on_c, 0, 69, 75
2, 12092, Note_off_c, 0, 69, 0
2, 12096, Note_on_c, 0, 70, 76
2, 12140, Note_off_c, 0, 70, 0
2, 12144, Note_on_c, 0, 72, 78
2, 12188, Note_off_c, 0, 72, 0
2, 12192, Note_on_c, 0, 74, 79
2, 12236, Note_off_c, 0, 74, 0
2, 12240, Note_on_c, 0, 76, 81
2, 12284, Note_off_c, 0, 76, 0
2, 12288, Note_on_c, 0, 77, 82
2, 12332, Note_off_c, 0, 77, 0
2, 12336, Note_on_c, 0, 79, 84
2, 12380, Note_off_c, 0, 79, 0
2, 12384, Note_on_c, 0, 81, 85
2, 12428, Note_off_c, 0, 81, 0
2, 12432, Note_on_c, 0, 82, 87
2, 12476, Note_off_c, 0, 82, 0
2, 12480, Note_on_c, 0, 84, 88
2, 12572, Note_off_c, 0, 84, 0
2, 12576, Note_on_c, 0, 84, 90
2, 12668, Note_off_c, 0, 84, 0
2, 12672, Note_on_c, 0, 84, 90
2, 12812, Note_off_c, 0, 84, 0
2, 12816, Note_on_c, 0, 76, 90
2, 12860, Note_off_c, 0, 76, 0
2, 12864, Note_on_c, 0, 82, 90
2, 13052, Note_off_c, 0, 82, 0
2, 13104, Note_on_c, 0, 79, 60
2, 13148, Note_off_c, 0, 79, 0
2, 13152, Note_on_c, 0, 82, 60
2, 13196, Note_off_c, 0, 82, 0
2, 13200, Note_on_c, 0, 81, 60
2, 13244, Note_off_c, 0, 81, 0
2, 13248, Note_on_c, 0, 79, 60
2, 13292, Note_off_c, 0, 79, 0
2, 13296, Note_on_c, 0, 77, 60
2, 13340, Note_off_c, 0, 77, 0
2, 13344, Note_on_c, 0, 76, 60
2, 13388, Note_off_c, 0, 76, 0
2, 13392, Note_on_c, 0, 74, 60
2, 13436, Note_off_c, 0, 74, 0
2, 13440, Note_on_c, 0, 72, 60
2, 13484, Note_off_c, 0, 72, 0
2, 13488, Note_on_c, 0, 76, 60
2, 13532, Note_off_c, 0, 76, 0
2, 13536, Note_on_c, 0, 79, 60
2, 13580, Note_off_c, 0, 79, 0
2, 13584, Note_on_c, 0, 77, 60
2, 13628, Note_off_c, 0, 77, 0
2, 13632, Note_on_c, 0, 76, 60
2, 13676, Note_off_c, 0, 76, 0
2, 13680, Note_on_c, 0, 74, 60
2, 13724, Note_off_c, 0, 74, 0
2, 13728, Note_on_c, 0, 72, 60
2, 13772, Note_off_c, 0, 72, 0
2, 13776, Note_on_c, 0, 70, 60
2, 13820, Note_off_c, 0, 70, 0
2, 13824, Note_on_c, 0, 69, 75
2, 13868, Note_off_c, 0, 69, 0
2, 13872, Note_on_c, 0, 72, 75
2, 13916, Note_off_c, 0, 72, 0
2, 13920, Note_on_c, 0, 70, 75
2, 13964, Note_off_c, 0, 70, 0
2, 13968, Note_on_c, 0, 69, 75
2, 14012, Note_off_c, 0, 69, 0
2, 14016, Note_on_c, 0, 70, 75
2, 14060, Note_off_c, 0, 70, 0
2, 14064, Note_on_c, 0, 72, 75
2, 14108, Note_off_c, 0, 72, 0
2, 14112, Note_on_c, 0, 74, 75
2, 14156, Note_off_c, 0, 74, 0
2, 14160, Note_on_c, 0, 76, 75
2, 14204, Note_off_c, 0, 76, 0
2, 14208, Note_on_c, 0, 77, 76
2, 14252, Note_off_c, 0, 77, 0
2, 14252, Note_on_c, 0, 79, 76
2, 14268, Note_on_c, 0, 77, 78
2, 14276, Note_off_c, 0, 79, 0
2, 14284, Note_on_c, 0, 76, 78
2, 14292, Note_off_c, 0, 77, 0
2, 14304, Note_on_c, 0, 77, 79
2, 14308, Note_off_c, 0, 76, 0
2, 14348, Note_off_c, 0, 77, 0
2, 14352, Note_on_c, 0, 79, 79
2, 14396, Note_off_c, 0, 79, 0
2, 14400, Note_on_c, 0, 81, 81
2, 14444, Note_off_c, 0, 81, 0
2, 14444, Note_on_c, 0, 83, 81
2, 14460, Note_on_c, 0, 81, 82
2, 14468, Note_off_c, 0, 83, 0
2, 14476, Note_on_c, 0, 79, 82
2, 14484, Note_off_c, 0, 81, 0
2, 14496, Note_on_c, 0, 81, 84
2, 14500, Note_off_c, 0, 79, 0
2, 14540, Note_off_c, 0, 81, 0
2, 14544, Note_on_c, 0, 82, 84
2, 14588, Note_off_c, 0, 82, 0
2, 14592, Note_on_c, 0, 84, 85
2, 14732, Note_off_c, 0, 84, 0
2, 14736, Note_on_c, 0, 81, 85
2, 14780, Note_off_c, 0, 81, 0
2, 14784, Note_on_c, 0, 89, 87
2, 14876, Note_off_c, 0, 89, 0
2, 14928, Note_on_c, 0, 69, 87
2, 14972, Note_off_c, 0, 69, 0
2, 14976, Note_on_c, 0, 67, 90
2, 15068, Note_off_c, 0, 67, 0
2, 15072, Note_on_c, 0, 69, 90
2, 15096, Note_off_c, 0, 69, 0
2, 15096, Note_on_c, 0, 70, 90
2, 15264, Note_on_c, 0, 73, 90
2, 15284, Note_off_c, 0, 70, 0
2, 15288, Note_off_c, 0, 73, 0
2, 15288, Note_on_c, 0, 74, 90
2, 15456, Note_on_c, 0, 78, 90
2, 15476, Note_off_c, 0, 74, 0
2, 15480, Note_off_c, 0, 78, 0
2, 15480, Note_on_c, 0, 79, 90
2, 15648, Note_on_c, 0, 81, 90
2, 15668, Note_off_c, 0, 79, 0
2, 15672, Note_off_c, 0, 81, 0
2, 15672, Note_on_c, 0, 82, 90
2, 15840, Note_on_c, 0, 85, 90
2, 15860, Note_off_c, 0, 82, 0
2, 15884, Note_off_c, 0, 85, 0
2, 15888, Note_on_c, 0, 86, 90
2, 15932, Note_off_c, 0, 86, 0
2, 15936, Note_on_c, 0, 84, 90
2, 15980, Note_off_c, 0, 84, 0
2, 15984, Note_on_c, 0, 82, 90
2, 16028, Note_off_c, 0, 82, 0
2, 16032, Note_on_c, 0, 81, 90
2, 16076, Note_off_c, 0, 81, 0
2, 16080, Note_on_c, 0, 79, 90
2, 16124, Note_off_c, 0, 79, 0
2, 16128, Note_on_c, 0, 77, 75
2, 16412, Note_off_c, 0, 77, 0
2, 16416, Note_on_c, 0, 76, 75
2, 16440, Note_off_c, 0, 76, 0
2, 16440, Note_on_c, 0, 77, 75
2, 16464, Note_off_c, 0, 77, 0
2, 16464, Note_on_c, 0, 79, 75
2, 16488, Note_off_c, 0, 79, 0
2, 16488, Note_on_c, 0, 77, 75
2, 16512, Note_off_c, 0, 77, 0
2, 16512, Note_on_c, 0, 76, 75
2, 16700, Note_off_c, 0, 76, 0
2, 17376, Note_on_c, 0, 79, 60
2, 17468, Note_off_c, 0, 79, 0
2, 17472, Note_on_c, 0, 79, 60
2, 17564, Note_off_c, 0, 79, 0
2, 17568, Note_on_c, 0, 79, 60
2, 17660, Note_off_c, 0, 79, 0
2, 17664, Note_on_c, 0, 79, 60
2, 17756, Note_off_c, 0, 79, 0
2, 17760, Note_on_c, 0, 79, 60
2, 17852, Note_off_c, 0, 79, 0
2, 17856, Note_on_c, 0, 79, 60
2, 17948, Note_off_c, 0, 79, 0
2, 17952, Note_on_c, 0, 79, 60
2, 18044, Note_off_c, 0, 79, 0
2, 18048, Note_on_c, 0, 79, 60
2, 18140, Note_off_c, 0, 79, 0
2, 18144, Note_on_c, 0, 81, 60
2, 18188, Note_off_c, 0, 81, 0
2, 18192, Note_on_c, 0, 83, 60
2, 18236, Note_off_c, 0, 83, 0
2, 18240, Note_on_c, 0, 84, 60
2, 18284, Note_off_c, 0, 84, 0
2, 18288, Note_on_c, 0, 83, 60
2, 18332, Note_off_c, 0, 83, 0
2, 18336, Note_on_c, 0, 81, 60
2, 18380, Note_off_c, 0, 81, 0
2, 18384, Note_on_c, 0, 79, 60
2, 18428, Note_off_c, 0, 79, 0
2, 18432, Note_on_c, 0, 77, 75
2, 18524, Note_off_c, 0, 77, 0
2, 18528, Note_on_c, 0, 77, 75
2, 18620, Note_off_c, 0, 77, 0
2, 18624, Note_on_c, 0, 77, 75
2, 18716, Note_off_c, 0, 77, 0
2, 18720, Note_on_c, 0, 77, 75
2, 18812, Note_off_c, 0, 77, 0
2, 18816, Note_on_c, 0, 77, 75
2, 18908, Note_off_c, 0, 77, 0
2, 18912, Note_on_c, 0, 77, 75
2, 19004, Note_off_c, 0, 77, 0
2, 19008, Note_on_c, 0, 77, 75
2, 19100, Note_off_c, 0, 77, 0
2, 19104, Note_on_c, 0, 77, 75
2, 19196, Note_off_c, 0, 77, 0
2, 19200, Note_on_c, 0, 77, 75
2, 19292, Note_off_c, 0, 77, 0
2, 19296, Note_on_c, 0, 76, 75
2, 19340, Note_off_c, 0, 76, 0
2, 19344, Note_on_c, 0, 74, 75
2, 19388, Note_off_c, 0, 74, 0
2, 19392, Note_on_c, 0, 72, 75
2, 19436, Note_off_c, 0, 72, 0
2, 19440, Note_on_c, 0, 71, 75
2, 19484, Note_off_c, 0, 71, 0
2, 19488, Note_on_c, 0, 69, 75
2, 19532, Note_off_c, 0, 69, 0
2, 19536, Note_on_c, 0, 67, 75
2, 19584, Note_on_c, 0, 81, 75
2, 19588, Note_off_c, 0, 67, 0
2, 19608, Note_off_c, 0, 81, 0
2, 19608, Note_on_c, 0, 79, 75
2, 19632, Note_off_c, 0, 79, 0
2, 19632, Note_on_c, 0, 81, 75
2, 19656, Note_off_c, 0, 81, 0
2, 19656, Note_on_c, 0, 79, 75
2, 19680, Note_off_c, 0, 79, 0
2, 19680, Note_on_c, 0, 81, 75
2, 19704, Note_off_c, 0, 81, 0
2, 19704, Note_on_c, 0, 79, 75
2, 19728, Note_off_c, 0, 79, 0
2, 19728, Note_on_c, 0, 81, 75
2, 19752, Note_off_c, 0, 81, 0
2, 19752, Note_on_c, 0, 79, 75
2, 19776, Note_off_c, 0, 79, 0
2, 19776, Note_on_c, 0, 81, 75
2, 19800, Note_off_c, 0, 81, 0
2, 19800, Note_on_c, 0, 79, 75
2, 19824, Note_off_c, 0, 79, 0
2, 19824, Note_on_c, 0, 81, 75
2, 19848, Note_off_c, 0, 81, 0
2, 19848, Note_on_c, 0, 79, 75
2, 19872, Note_off_c, 0, 79, 0
2, 19872, Note_on_c, 0, 81, 75
2, 19896, Note_off_c, 0, 81, 0
2, 19896, Note_on_c, 0, 79, 75
2, 19920, Note_off_c, 0, 79, 0
2, 19920, Note_on_c, 0, 81, 75
2, 19944, Note_off_c, 0, 81, 0
2, 19944, Note_on_c, 0, 79, 75
2, 19968, Note_off_c, 0, 79, 0
2, 19968, Note_on_c, 0, 81, 75
2, 19992, Note_off_c, 0, 81, 0
2, 19992, Note_on_c, 0, 79, 75
2, 20016, Note_off_c, 0, 79, 0
2, 20016, Note_on_c, 0, 81, 75
2, 20040, Note_off_c, 0, 81, 0
2, 20040, Note_on_c, 0, 79, 75
2, 20064, Note_off_c, 0, 79, 0
2, 20064, Note_on_c, 0, 81, 75
2, 20088, Note_off_c, 0, 81, 0
2, 20088, Note_on_c, 0, 79, 75
2, 20112, Note_off_c, 0, 79, 0
2, 20112, Note_on_c, 0, 81, 75
2, 20136, Note_off_c, 0, 81, 0
2, 20136, Note_on_c, 0, 79, 75
2, 20160, Note_off_c, 0, 79, 0
2, 20160, Note_on_c, 0, 81, 75
2, 20184, Note_off_c, 0, 81, 0
2, 20184, Note_on_c, 0, 79, 75
2, 20208, Note_off_c, 0, 79, 0
2, 20208, Note_on_c, 0, 81, 75
2, 20232, Note_off_c, 0, 81, 0
2, 20232, Note_on_c, 0, 79, 75
2, 20256, Note_off_c, 0, 79, 0
2, 20256, Note_on_c, 0, 81, 75
2, 20280, Note_off_c, 0, 81, 0
2, 20280, Note_on_c, 0, 79, 75
2, 20304, Note_off_c, 0, 79, 0
2, 20304, Note_on_c, 0, 81, 75
2, 20328, Note_off_c, 0, 81, 0
2, 20328, Note_on_c, 0, 79, 75
2, 20352, Note_off_c, 0, 79, 0
2, 20352, Note_on_c, 0, 81, 75
2, 20376, Note_off_c, 0, 81, 0
2, 20376, Note_on_c, 0, 79, 75
2, 20400, Note_off_c, 0, 79, 0
2, 20400, Note_on_c, 0, 81, 75
2, 20424, Note_off_c, 0, 81, 0
2, 20424, Note_on_c, 0, 79, 75
2, 20448, Note_off_c, 0, 79, 0
2, 20448, Note_on_c, 0, 81, 75
2, 20472, Note_off_c, 0, 81, 0
2, 20472, Note_on_c, 0, 79, 75
2, 20496, Note_off_c, 0, 79, 0
2, 20496, Note_on_c, 0, 81, 75
2, 20520, Note_off_c, 0, 81, 0
2, 20520, Note_on_c, 0, 79, 75
2, 20544, Note_off_c, 0, 79, 0
2, 20544, Note_on_c, 0, 81, 75
2, 20568, Note_off_c, 0, 81, 0
2, 20568, Note_on_c, 0, 79, 75
2, 20592, Note_off_c, 0, 79, 0
2, 20592, Note_on_c, 0, 81, 75
2, 20616, Note_off_c, 0, 81, 0
2, 20616, Note_on_c, 0, 79, 75
2, 20640, Note_off_c, 0, 79, 0
2, 20640, Note_on_c, 0, 81, 75
2, 20664, Note_off_c, 0, 81, 0
2, 20664, Note_on_c, 0, 79, 75
2, 20688, Note_off_c, 0, 79, 0
2, 20688, Note_on_c, 0, 81, 75
2, 20712, Note_off_c, 0, 81, 0
2, 20712, Note_on_c, 0, 79, 75
2, 20736, Note_off_c, 0, 79, 0
2, 20736, Note_on_c, 0, 81, 75
2, 20760, Note_off_c, 0, 81, 0
2, 20760, Note_on_c, 0, 79, 75
2, 20784, Note_off_c, 0, 79, 0
2, 20784, Note_on_c, 0, 81, 75
2, 20808, Note_off_c, 0, 81, 0
2, 20808, Note_on_c, 0, 79, 75
2, 20832, Note_off_c, 0, 79, 0
2, 20832, Note_on_c, 0, 81, 75
2, 20856, Note_off_c, 0, 81, 0
2, 20856, Note_on_c, 0, 79, 75
2, 20880, Note_off_c, 0, 79, 0
2, 20880, Note_on_c, 0, 81, 75
2, 20904, Note_off_c, 0, 81, 0
2, 20904, Note_on_c, 0, 79, 75
2, 20928, Note_off_c, 0, 79, 0
2, 20928, Note_on_c, 0, 81, 75
2, 20952, Note_off_c, 0, 81, 0
2, 20952, Note_on_c, 0, 79, 75
2, 20976, Note_off_c, 0, 79, 0
2, 20976, Note_on_c, 0, 81, 75
2, 21000, Note_off_c, 0, 81, 0
2, 21000, Note_on_c, 0, 79, 75
2, 21024, Note_off_c, 0, 79, 0
2, 21024, Note_on_c, 0, 81, 75
2, 21048, Note_off_c, 0, 81, 0
2, 21048, Note_on_c, 0, 79, 75
2, 21072, Note_off_c, 0, 79, 0
2, 21072, Note_on_c, 0, 81, 75
2, 21096, Note_off_c, 0, 81, 0
2, 21096, Note_on_c, 0, 79, 75
2, 21120, Note_off_c, 0, 79, 0
2, 21120, Note_on_c, 0, 81, 75
2, 21144, Note_off_c, 0, 81, 0
2, 21144, Note_on_c, 0, 79, 75
2, 21168, Note_off_c, 0, 79, 0
2, 21168, Note_on_c, 0, 81, 75
2, 21192, Note_off_c, 0, 81, 0
2, 21192, Note_on_c, 0, 79, 75
2, 21216, Note_off_c, 0, 79, 0
2, 21216, Note_on_c, 0, 81, 75
2, 21240, Note_off_c, 0, 81, 0
2, 21240, Note_on_c, 0, 79, 75
2, 21264, Note_off_c, 0, 79, 0
2, 21264, Note_on_c, 0, 81, 75
2, 21288, Note_off_c, 0, 81, 0
2, 21288, Note_on_c, 0, 79, 75
2, 21312, Note_off_c, 0, 79, 0
2, 21312, Note_on_c, 0, 81, 75
2, 21336, Note_off_c, 0, 81, 0
2, 21336, Note_on_c, 0, 79, 75
2, 21360, Note_off_c, 0, 79, 0
2, 21360, Note_on_c, 0, 81, 75
2, 21384, Note_off_c, 0, 81, 0
2, 21384, Note_on_c, 0, 79, 75
2, 21408, Note_off_c, 0, 79, 0
2, 21408, Note_on_c, 0, 81, 75
2, 21432, Note_off_c, 0, 81, 0
2, 21432, Note_on_c, 0, 79, 75
2, 21456, Note_off_c, 0, 79, 0
2, 21456, Note_on_c, 0, 81, 75
2, 21480, Note_off_c, 0, 81, 0
2, 21480, Note_on_c, 0, 79, 75
2, 21504, Note_off_c, 0, 79, 0
2, 21504, Note_on_c, 0, 81, 75
2, 21528, Note_off_c, 0, 81, 0
2, 21528, Note_on_c, 0, 79, 75
2, 21552, Note_off_c, 0, 79, 0
2, 21552, Note_on_c, 0, 81, 75
2, 21576, Note_off_c, 0, 81, 0
2, 21576, Note_on_c, 0, 79, 75
2, 21600, Note_off_c, 0, 79, 0
2, 21600, Note_on_c, 0, 81, 75
2, 21624, Note_off_c, 0, 81, 0
2, 21624, Note_on_c, 0, 79, 75
2, 21648, Note_off_c, 0, 79, 0
2, 21648, Note_on_c, 0, 81, 75
2, 21672, Note_off_c, 0, 81, 0
2, 21672, Note_on_c, 0, 79, 75
2, 21696, Note_off_c, 0, 79, 0
2, 21696, Note_on_c, 0, 78, 75
2, 21788, Note_off_c, 0, 78, 0
2, 21792, Note_on_c, 0, 79, 75
2, 21884, Note_off_c, 0, 79, 0
2, 21984, Note_on_c, 0, 81, 75
2, 22008, Note_off_c, 0, 81, 0
2, 22008, Note_on_c, 0, 79, 75
2, 22032, Note_off_c, 0, 79, 0
2, 22032, Note_on_c, 0, 78, 75
2, 22056, Note_off_c, 0, 78, 0
2, 22056, Note_on_c, 0, 79, 75
2, 22080, Note_off_c, 0, 79, 0
2, 22080, Note_on_c, 0, 84, 75
2, 22172, Note_off_c, 0, 84, 0
2, 22176, Note_on_c, 0, 72, 75
2, 22268, Note_off_c, 0, 72, 0
2, 22272, Note_on_c, 0, 76, 90
2, 22272, Note_on_c, 0, 72, 90
2, 22364, Note_off_c, 0, 76, 0
2, 22368, Note_on_c, 0, 74, 60
2, 22460, Note_off_c, 0, 74, 0
2, 22464, Note_on_c, 0, 73, 60
2, 22556, Note_off_c, 0, 73, 0
2, 22560, Note_on_c, 0, 74, 60
2, 22652, Note_off_c, 0, 72, 0
2, 22652, Note_off_c, 0, 74, 0
2, 22656, Note_on_c, 0, 77, 90
2, 22656, Note_on_c, 0, 72, 90
2, 22748, Note_off_c, 0, 77, 0
2, 22752, Note_on_c, 0, 76, 60
2, 22844, Note_off_c, 0, 76, 0
2, 22848, Note_on_c, 0, 75, 60
2, 22940, Note_off_c, 0, 75, 0
2, 22944, Note_on_c, 0, 76, 60
2, 23036, Note_off_c, 0, 72, 0
2, 23036, Note_off_c, 0, 76, 0
2, 23040, Note_on_c, 0, 79, 90
2, 23040, Note_on_c, 0, 72, 90
2, 23132, Note_off_c, 0, 79, 0
2, 23136, Note_on_c, 0, 77, 60
2, 23228, Note_off_c, 0, 77, 0
2, 23232, Note_on_c, 0, 76, 60
2, 23324, Note_off_c, 0, 76, 0
2, 23328, Note_on_c, 0, 77, 60
2, 23420, Note_off_c, 0, 72, 0
2, 23420, Note_off_c, 0, 77, 0
2, 23424, Note_on_c, 0, 72, 75
2, 23424, Note_on_c, 0, 77, 75
2, 23516, Note_off_c, 0, 77, 0
2, 23520, Note_on_c, 0, 79, 75
2, 23564, Note_off_c, 0, 79, 0
2, 23568, Note_on_c, 0, 77, 75
2, 23612, Note_off_c, 0, 77, 0
2, 23616, Note_on_c, 0, 76, 75
2, 23660, Note_off_c, 0, 76, 0
2, 23664, Note_on_c, 0, 77, 75
2, 23708, Note_off_c, 0, 72, 0
2, 23708, Note_off_c, 0, 77, 0
2, 23712, Note_on_c, 0, 76, 75
2, 23712, Note_on_c, 0, 79, 75
2, 23804, Note_off_c, 0, 76, 0
2, 23804, Note_off_c, 0, 79, 0
2, 23808, Note_on_c, 0, 81, 75
2, 23808, Note_on_c, 0, 77, 75
2, 23900, Note_off_c, 0, 81, 0
2, 23900, Note_off_c, 0, 77, 0
2, 23904, Note_on_c, 0, 81, 75
2, 23904, Note_on_c, 0, 77, 75
2, 23996, Note_off_c, 0, 81, 0
2, 23996, Note_off_c, 0, 77, 0
2, 24000, Note_on_c, 0, 81, 75
2, 24000, Note_on_c, 0, 77, 75
2, 24092, Note_off_c, 0, 81, 0
2, 24092, Note_off_c, 0, 77, 0
2, 24096, Note_on_c, 0, 81, 75
2, 24096, Note_on_c, 0, 77, 75
2, 24188, Note_off_c, 0, 81, 0
2, 24188, Note_off_c, 0, 77, 0
2, 24192, Note_on_c, 0, 81, 75
2, 24192, Note_on_c, 0, 77, 75
2, 24284, Note_off_c, 0, 81, 0
2, 24284, Note_off_c, 0, 77, 0
2, 24288, Note_on_c, 0, 79, 75
2, 24288, Note_on_c, 0, 76, 75
2, 24380, Note_off_c, 0, 79, 0
2, 24380, Note_off_c, 0, 76, 0
2, 24384, Note_on_c, 0, 81, 75
2, 24384, Note_on_c, 0, 77, 75
2, 24476, Note_off_c, 0, 81, 0
2, 24476, Note_off_c, 0, 77, 0
2, 24480, Note_on_c, 0, 77, 75
2, 24480, Note_on_c, 0, 74, 75
2, 24572, Note_off_c, 0, 77, 0
2, 24572, Note_off_c, 0, 74, 0
2, 24576, Note_on_c, 0, 72, 75
2, 24576, Note_on_c, 0, 76, 75
2, 24604, Note_on_c, 0, 79, 75
2, 24616, Note_off_c, 0, 76, 0
2, 24636, Note_on_c, 0, 78, 75
2, 24644, Note_off_c, 0, 79, 0
2, 24676, Note_off_c, 0, 78, 0
2, 24676, Note_on_c, 0, 77, 75
2, 24716, Note_off_c, 0, 77, 0
2, 24716, Note_on_c, 0, 76, 75
2, 24796, Note_off_c, 0, 76, 0
2, 24796, Note_on_c, 0, 77, 75
2, 24876, Note_off_c, 0, 77, 0
2, 24876, Note_on_c, 0, 74, 75
2, 24956, Note_off_c, 0, 72, 0
2, 24956, Note_off_c, 0, 74, 0
2, 24960, Note_on_c, 0, 70, 75
2, 24960, Note_on_c, 0, 76, 75
2, 24984, Note_off_c, 0, 76, 0
2, 24984, Note_on_c, 0, 74, 75
2, 25008, Note_off_c, 0, 74, 0
2, 25008, Note_on_c, 0, 76, 75
2, 25032, Note_off_c, 0, 76, 0
2, 25032, Note_on_c, 0, 74, 75
2, 25056, Note_off_c, 0, 74, 0
2, 25056, Note_on_c, 0, 76, 75
2, 25080, Note_off_c, 0, 76, 0
2, 25080, Note_on_c, 0, 74, 75
2, 25104, Note_off_c, 0, 74, 0
2, 25104, Note_on_c, 0, 76, 75
2, 25128, Note_off_c, 0, 76, 0
2, 25128, Note_on_c, 0, 74, 75
2, 25152, Note_off_c, 0, 74, 0
2, 25152, Note_on_c, 0, 76, 75
2, 25176, Note_off_c, 0, 76, 0
2, 25176, Note_on_c, 0, 74, 75
2, 25200, Note_off_c, 0, 74, 0
2, 25200, Note_on_c, 0, 76, 75
2, 25224, Note_off_c, 0, 76, 0
2, 25224, Note_on_c, 0, 74, 75
2, 25248, Note_off_c, 0, 74, 0
2, 25248, Note_on_c, 0, 72, 75
2, 25292, Note_off_c, 0, 72, 0
2, 25296, Note_on_c, 0, 74, 75
2, 25340, Note_off_c, 0, 70, 0
2, 25340, Note_off_c, 0, 74, 0
2, 25440, Note_on_c, 0, 72, 90
2, 25532, Note_off_c, 0, 72, 0
2, 25536, Note_on_c, 0, 84, 87
2, 25628, Note_off_c, 0, 84, 0
2, 25632, Note_on_c, 0, 83, 84
2, 25724, Note_off_c, 0, 83, 0
2, 25728, Note_on_c, 0, 81, 60
2, 25820, Note_off_c, 0, 81, 0
2, 25824, Note_on_c, 0, 69, 90
2, 25916, Note_off_c, 0, 69, 0
2, 25920, Note_on_c, 0, 81, 87
2, 26012, Note_off_c, 0, 81, 0
2, 26016, Note_on_c, 0, 79, 84
2, 26108, Note_off_c, 0, 79, 0
2, 26112, Note_on_c, 0, 77, 60
2, 26204, Note_off_c, 0, 77, 0
2, 26208, Note_on_c, 0, 65, 90
2, 26300, Note_off_c, 0, 65, 0
2, 26304, Note_on_c, 0, 77, 87
2, 26396, Note_off_c, 0, 77, 0
2, 26400, Note_on_c, 0, 76, 84
2, 26492, Note_off_c, 0, 76, 0
2, 26496, Note_on_c, 0, 74, 60
2, 26588, Note_off_c, 0, 74, 0
2, 26592, Note_on_c, 0, 62, 90
2, 26684, Note_off_c, 0, 62, 0
2, 26688, Note_on_c, 0, 74, 87
2, 26780, Note_off_c, 0, 74, 0
2, 26784, Note_on_c, 0, 73, 84
2, 26876, Note_off_c, 0, 73, 0
2, 26880, Note_on_c, 0, 74, 60
2, 26972, Note_off_c, 0, 74, 0
2, 26976, Note_on_c, 0, 76, 75
2, 26976, Note_on_c, 0, 69, 75
2, 27068, Note_off_c, 0, 76, 0
2, 27068, Note_off_c, 0, 69, 0
2, 27072, Note_on_c, 0, 77, 75
2, 27072, Note_on_c, 0, 69, 75
2, 27164, Note_off_c, 0, 77, 0
2, 27164, Note_off_c, 0, 69, 0
2, 27168, Note_on_c, 0, 79, 75
2, 27168, Note_on_c, 0, 72, 75
2, 27260, Note_off_c, 0, 79, 0
2, 27260, Note_off_c, 0, 72, 0
2, 27264, Note_on_c, 0, 81, 75
2, 27264, Note_on_c, 0, 72, 75
2, 27356, Note_off_c, 0, 81, 0
2, 27356, Note_off_c, 0, 72, 0
2, 27360, Note_on_c, 0, 83, 75
2, 27360, Note_on_c, 0, 77, 75
2, 27452, Note_off_c, 0, 83, 0
2, 27452, Note_off_c, 0, 77, 0
2, 27456, Note_on_c, 0, 84, 75
2, 27456, Note_on_c, 0, 79, 75
2, 27548, Note_off_c, 0, 84, 0
2, 27548, Note_off_c, 0, 79, 0
2, 27552, Note_on_c, 0, 86, 75
2, 27552, Note_on_c, 0, 79, 75
2, 27644, Note_off_c, 0, 86, 0
2, 27644, Note_off_c, 0, 79, 0
2, 27648, Note_on_c, 0, 79, 90
2, 27648, Note_on_c, 0, 88, 90
2, 27788, Note_off_c, 0, 88, 0
2, 27792, Note_on_c, 0, 84, 90
2, 27836, Note_off_c, 0, 79, 0
2, 27836, Note_off_c, 0, 84, 0
2, 27840, Note_on_c, 0, 77, 90
2, 27840, Note_on_c, 0, 81, 90
2, 27980, Note_off_c, 0, 77, 0
2, 27980, Note_off_c, 0, 81, 0
2, 27984, Note_on_c, 0, 74, 90
2, 27984, Note_on_c, 0, 77, 90
2, 28028, Note_off_c, 0, 74, 0
2, 28028, Note_off_c, 0, 77, 0
2, 28032, Note_on_c, 0, 72, 90
2, 28032, Note_on_c, 0, 76, 90
2, 28124, Note_off_c, 0, 76, 0
2, 28128, Note_on_c, 0, 77, 90
2, 28172, Note_off_c, 0, 77, 0
2, 28176, Note_on_c, 0, 76, 90
2, 28220, Note_off_c, 0, 76, 0
2, 28224, Note_on_c, 0, 74, 90
2, 28268, Note_off_c, 0, 74, 0
2, 28272, Note_on_c, 0, 76, 90
2, 28316, Note_off_c, 0, 76, 0
2, 28320, Note_on_c, 0, 77, 90
2, 28412, Note_off_c, 0, 72, 0
2, 28412, Note_off_c, 0, 77, 0
2, 28416, Note_on_c, 0, 71, 90
2, 28416, Note_on_c, 0, 76, 90
2, 28440, Note_off_c, 0, 76, 0
2, 28440, Note_on_c, 0, 74, 90
2, 28464, Note_off_c, 0, 74, 0
2, 28464, Note_on_c, 0, 76, 90
2, 28488, Note_off_c, 0, 76, 0
2, 28488, Note_on_c, 0, 74, 90
2, 28512, Note_off_c, 0, 74, 0
2, 28512, Note_on_c, 0, 76, 90
2, 28536, Note_off_c, 0, 76, 0
2, 28536, Note_on_c, 0, 74, 90
2, 28560, Note_off_c, 0, 74, 0
2, 28560, Note_on_c, 0, 76, 90
2, 28584, Note_off_c, 0, 76, 0
2, 28584, Note_on_c, 0, 74, 90
2, 28608, Note_off_c, 0, 74, 0
2, 28608, Note_on_c, 0, 76, 90
2, 28632, Note_off_c, 0, 76, 0
2, 28632, Note_on_c, 0, 74, 90
2, 28656, Note_off_c, 0, 74, 0
2, 28656, Note_on_c, 0, 76, 90
2, 28680, Note_off_c, 0, 76, 0
2, 28704, Note_on_c, 0, 72, 90
2, 28748, Note_off_c, 0, 72, 0
2, 28752, Note_on_c, 0, 74, 90
2, 28796, Note_off_c, 0, 71, 0
2, 28796, Note_off_c, 0, 74, 0
2, 28896, Note_on_c, 0, 74, 90
2, 28920, Note_off_c, 0, 74, 0
2, 28920, Note_on_c, 0, 72, 90
2, 28944, Note_off_c, 0, 72, 0
2, 28944, Note_on_c, 0, 71, 90
2, 28968, Note_off_c, 0, 71, 0
2, 28968, Note_on_c, 0, 72, 90
2, 28992, Note_off_c, 0, 72, 0
2, 28992, Note_on_c, 0, 84, 87
2, 29084, Note_off_c, 0, 84, 0
2, 29088, Note_on_c, 0, 83, 84
2, 29180, Note_off_c, 0, 83, 0
2, 29184, Note_on_c, 0, 81, 60
2, 29276, Note_off_c, 0, 81, 0
2, 29280, Note_on_c, 0, 70, 90
2, 29304, Note_off_c, 0, 70, 0
2, 29304, Note_on_c, 0, 69, 90
2, 29328, Note_off_c, 0, 69, 0
2, 29328, Note_on_c, 0, 67, 90
2, 29352, Note_off_c, 0, 67, 0
2, 29352, Note_on_c, 0, 70, 90
2, 29376, Note_off_c, 0, 70, 0
2, 29376, Note_on_c, 0, 81, 87
2, 29468, Note_off_c, 0, 81, 0
2, 29472, Note_on_c, 0, 79, 84
2, 29564, Note_off_c, 0, 79, 0
2, 29568, Note_on_c, 0, 77, 60
2, 29660, Note_off_c, 0, 77, 0
2, 29664, Note_on_c, 0, 67, 90
2, 29688, Note_off_c, 0, 67, 0
2, 29688, Note_on_c, 0, 65, 90
2, 29712, Note_off_c, 0, 65, 0
2, 29712, Note_on_c, 0, 64, 90
2, 29736, Note_off_c, 0, 64, 0
2, 29736, Note_on_c, 0, 65, 90
2, 29760, Note_off_c, 0, 65, 0
2, 29760, Note_on_c, 0, 77, 87
2, 29852, Note_off_c, 0, 77, 0
2, 29856, Note_on_c, 0, 76, 84
2, 29948, Note_off_c, 0, 76, 0
2, 29952, Note_on_c, 0, 74, 60
2, 30000, Note_on_c, 0, 62, 61
2, 30044, Note_off_c, 0, 74, 0
2, 30044, Note_off_c, 0, 62, 0
2, 30048, Note_on_c, 0, 64, 61
2, 30092, Note_off_c, 0, 64, 0
2, 30096, Note_on_c, 0, 65, 63
2, 30140, Note_off_c, 0, 65, 0
2, 30144, Note_on_c, 0, 67, 63
2, 30188, Note_off_c, 0, 67, 0
2, 30192, Note_on_c, 0, 69, 64
2, 30236, Note_off_c, 0, 69, 0
2, 30240, Note_on_c, 0, 71, 64
2, 30284, Note_off_c, 0, 71, 0
2, 30288, Note_on_c, 0, 73, 66
2, 30332, Note_off_c, 0, 73, 0
2, 30336, Note_on_c, 0, 74, 66
2, 30380, Note_off_c, 0, 74, 0
2, 30384, Note_on_c, 0, 74, 67
2, 30428, Note_off_c, 0, 74, 0
2, 30432, Note_on_c, 0, 76, 69
2, 30476, Note_off_c, 0, 76, 0
2, 30480, Note_on_c, 0, 77, 70
2, 30524, Note_off_c, 0, 77, 0
2, 30528, Note_on_c, 0, 79, 72
2, 30572, Note_off_c, 0, 79, 0
2, 30576, Note_on_c, 0, 81, 73
2, 30620, Note_off_c, 0, 81, 0
2, 30624, Note_on_c, 0, 83, 75
2, 30668, Note_off_c, 0, 83, 0
2, 30672, Note_on_c, 0, 85, 76
2, 30716, Note_off_c, 0, 85, 0
2, 30720, Note_on_c, 0, 86, 78
2, 30764, Note_off_c, 0, 86, 0
2, 30768, Note_on_c, 0, 88, 79
2, 30812, Note_off_c, 0, 88, 0
2, 30816, Note_on_c, 0, 89, 81
2, 30860, Note_off_c, 0, 89, 0
2, 30864, Note_on_c, 0, 88, 82
2, 30908, Note_off_c, 0, 88, 0
2, 30912, Note_on_c, 0, 86, 84
2, 30956, Note_off_c, 0, 86, 0
2, 30960, Note_on_c, 0, 84, 85
2, 31004, Note_off_c, 0, 84, 0
2, 31008, Note_on_c, 0, 83, 87
2, 31052, Note_off_c, 0, 83, 0
2, 31056, Note_on_c, 0, 81, 88
2, 31100, Note_off_c, 0, 81, 0
2, 31104, Note_on_c, 0, 67, 90
2, 31120, Note_on_c, 0, 72, 90
2, 31140, Note_on_c, 0, 76, 90
2, 31160, Note_on_c, 0, 79, 90
2, 31484, Note_off_c, 0, 67, 0
2, 31500, Note_off_c, 0, 72, 0
2, 32256, Note_on_c, 0, 79, 75
2, 32256, Note_on_c, 0, 76, 75
2, 32288, Note_off_c, 0, 76, 0
2, 32308, Note_off_c, 0, 79, 0
2, 32348, Note_off_c, 0, 79, 0
2, 32348, Note_off_c, 0, 76, 0
2, 32352, Note_on_c, 0, 81, 75
2, 32352, Note_on_c, 0, 78, 75
2, 32352, Note_on_c, 0, 75, 75
2, 32444, Note_off_c, 0, 81, 0
2, 32444, Note_off_c, 0, 78, 0
2, 32444, Note_off_c, 0, 75, 0
2, 32448, Note_on_c, 0, 77, 75
2, 32448, Note_on_c, 0, 74, 75
2, 32448, Note_on_c, 0, 83, 75
2, 32540, Note_off_c, 0, 77, 0
2, 32540, Note_off_c, 0, 74, 0
2, 32540, Note_off_c, 0, 83, 0
2, 32544, Note_on_c, 0, 84, 75
2, 32544, Note_on_c, 0, 76, 75
2, 32544, Note_on_c, 0, 72, 75
2, 32636, Note_off_c, 0, 84, 0
2, 32636, Note_off_c, 0, 76, 0
2, 32636, Note_off_c, 0, 72, 0
2, 32640, Note_on_c, 0, 72, 90
2, 32640, Note_on_c, 0, 76, 90
2, 32664, Note_off_c, 0, 76, 0
2, 32664, Note_on_c, 0, 74, 90
2, 32688, Note_off_c, 0, 74, 0
2, 32688, Note_on_c, 0, 76, 90
2, 32712, Note_off_c, 0, 76, 0
2, 32712, Note_on_c, 0, 74, 90
2, 32736, Note_off_c, 0, 74, 0
2, 32736, Note_on_c, 0, 76, 90
2, 32760, Note_off_c, 0, 76, 0
2, 32760, Note_on_c, 0, 74, 90
2, 32784, Note_off_c, 0, 74, 0
2, 32784, Note_on_c, 0, 76, 90
2, 32808, Note_off_c, 0, 76, 0
2, 32808, Note_on_c, 0, 74, 90
2, 32832, Note_off_c, 0, 74, 0
2, 32832, Note_on_c, 0, 76, 90
2, 32856, Note_off_c, 0, 76, 0
2, 32856, Note_on_c, 0, 74, 90
2, 32880, Note_off_c, 0, 74, 0
2, 32880, Note_on_c, 0, 76, 90
2, 32904, Note_off_c, 0, 76, 0
2, 32904, Note_on_c, 0, 74, 90
2, 32928, Note_off_c, 0, 74, 0
2, 32928, Note_on_c, 0, 76, 90
2, 32952, Note_off_c, 0, 76, 0
2, 32952, Note_on_c, 0, 74, 90
2, 32976, Note_off_c, 0, 74, 0
2, 32976, Note_on_c, 0, 76, 90
2, 33000, Note_off_c, 0, 76, 0
2, 33000, Note_on_c, 0, 74, 90
2, 33020, Note_off_c, 0, 72, 0
2, 33024, Note_off_c, 0, 74, 0
2, 33024, Note_on_c, 0, 71, 90
2, 33024, Note_on_c, 0, 76, 90
2, 33048, Note_off_c, 0, 76, 0
2, 33048, Note_on_c, 0, 74, 90
2, 33072, Note_off_c, 0, 74, 0
2, 33072, Note_on_c, 0, 76, 90
2, 33096, Note_off_c, 0, 76, 0
2, 33096, Note_on_c, 0, 74, 90
2, 33120, Note_off_c, 0, 74, 0
2, 33120, Note_on_c, 0, 76, 90
2, 33144, Note_off_c, 0, 76, 0
2, 33144, Note_on_c, 0, 74, 90
2, 33168, Note_off_c, 0, 74, 0
2, 33168, Note_on_c, 0, 76, 90
2, 33192, Note_off_c, 0, 76, 0
2, 33192, Note_on_c, 0, 74, 90
2, 33216, Note_off_c, 0, 74, 0
2, 33216, Note_on_c, 0, 72, 90
2, 33308, Note_off_c, 0, 72, 0
2, 33312, Note_on_c, 0, 74, 90
2, 33404, Note_off_c, 0, 71, 0
2, 33404, Note_off_c, 0, 74, 0
2, 33408, Note_on_c, 0, 72, 60
2, 33500, Note_off_c, 0, 72, 0
2, 33504, Note_on_c, 0, 72, 60
2, 33596, Note_off_c, 0, 72, 0
2, 33600, Note_on_c, 0, 74, 60
2, 33692, Note_off_c, 0, 74, 0
2, 33696, Note_on_c, 0, 76, 60
2, 33788, Note_off_c, 0, 76, 0
2, 33792, Note_on_c, 0, 77, 60
2, 33884, Note_off_c, 0, 77, 0
2, 33888, Note_on_c, 0, 79, 60
2, 33932, Note_off_c, 0, 79, 0
2, 33936, Note_on_c, 0, 81, 60
2, 33980, Note_off_c, 0, 81, 0
2, 33984, Note_on_c, 0, 79, 60
2, 34028, Note_off_c, 0, 79, 0
2, 34032, Note_on_c, 0, 77, 60
2, 34076, Note_off_c, 0, 77, 0
2, 34080, Note_on_c, 0, 76, 60
2, 34124, Note_off_c, 0, 76, 0
2, 34128, Note_on_c, 0, 74, 60
2, 34172, Note_off_c, 0, 74, 0
2, 34176, Note_on_c, 0, 72, 60
2, 34364, Note_off_c, 0, 72, 0
2, 34368, Note_on_c, 0, 72, 60
2, 34392, Note_off_c, 0, 72, 0
2, 34392, Note_on_c, 0, 71, 60
2, 34416, Note_off_c, 0, 71, 0
2, 34416, Note_on_c, 0, 72, 60
2, 34440, Note_off_c, 0, 72, 0
2, 34440, Note_on_c, 0, 71, 60
2, 34464, Note_off_c, 0, 71, 0
2, 34464, Note_on_c, 0, 72, 60
2, 34488, Note_off_c, 0, 72, 0
2, 34488, Note_on_c, 0, 71, 60
2, 34512, Note_off_c, 0, 71, 0
2, 34512, Note_on_c, 0, 69, 60
2, 34536, Note_off_c, 0, 69, 0
2, 34536, Note_on_c, 0, 71, 60
2, 34560, Note_on_c, 0, 72, 75
2, 34564, Note_off_c, 0, 71, 0
2, 34652, Note_off_c, 0, 72, 0
2, 34656, Note_on_c, 0, 60, 75
2, 34700, Note_off_c, 0, 60, 0
2, 34704, Note_on_c, 0, 64, 75
2, 34748, Note_off_c, 0, 64, 0
2, 34752, Note_on_c, 0, 62, 75
2, 34796, Note_off_c, 0, 62, 0
2, 34800, Note_on_c, 0, 65, 75
2, 34844, Note_off_c, 0, 65, 0
2, 34848, Note_on_c, 0, 64, 75
2, 34892, Note_off_c, 0, 64, 0
2, 34896, Note_on_c, 0, 67, 75
2, 34940, Note_off_c, 0, 67, 0
2, 34944, Note_on_c, 0, 65, 75
2, 35036, Note_off_c, 0, 65, 0
2, 35040, Note_on_c, 0, 67, 75
2, 35084, Note_off_c, 0, 67, 0
2, 35088, Note_on_c, 0, 69, 75
2, 35132, Note_off_c, 0, 69, 0
2, 35136, Note_on_c, 0, 67, 75
2, 35180, Note_off_c, 0, 67, 0
2, 35184, Note_on_c, 0, 65, 75
2, 35228, Note_off_c, 0, 65, 0
2, 35232, Note_on_c, 0, 64, 75
2, 35276, Note_off_c, 0, 64, 0
2, 35280, Note_on_c, 0, 62, 75
2, 35324, Note_off_c, 0, 62, 0
2, 35328, Note_on_c, 0, 60, 75
2, 35516, Note_off_c, 0, 60, 0
2, 36480, Note_on_c, 0, 65, 60
2, 36572, Note_off_c, 0, 65, 0
2, 36576, Note_on_c, 0, 69, 60
2, 36668, Note_off_c, 0, 69, 0
2, 36672, Note_on_c, 0, 72, 60
2, 36764, Note_off_c, 0, 72, 0
2, 36768, Note_on_c, 0, 77, 60
2, 36860, Note_off_c, 0, 77, 0
2, 36864, Note_on_c, 0, 72, 75
2, 36908, Note_off_c, 0, 72, 0
2, 36912, Note_on_c, 0, 81, 90
2, 37152, Note_on_c, 0, 77, 60
2, 37156, Note_off_c, 0, 81, 0
2, 37244, Note_off_c, 0, 77, 0
2, 37248, Note_on_c, 0, 72, 60
2, 37436, Note_off_c, 0, 72, 0
2, 37440, Note_on_c, 0, 72, 60
2, 37440, Note_on_c, 0, 69, 60
2, 37628, Note_off_c, 0, 72, 0
2, 37628, Note_off_c, 0, 69, 0
2, 37632, Note_on_c, 0, 72, 60
2, 37632, Note_on_c, 0, 69, 60
2, 37724, Note_off_c, 0, 72, 0
2, 37724, Note_off_c, 0, 69, 0
2, 37728, Note_on_c, 0, 70, 60
2, 37728, Note_on_c, 0, 67, 60
2, 37820, Note_off_c, 0, 70, 0
2, 37820, Note_off_c, 0, 67, 0
2, 37824, Note_on_c, 0, 69, 60
2, 37824, Note_on_c, 0, 65, 60
2, 37916, Note_off_c, 0, 69, 0
2, 37916, Note_off_c, 0, 65, 0
2, 37920, Note_on_c, 0, 70, 60
2, 37920, Note_on_c, 0, 67, 60
2, 38012, Note_off_c, 0, 70, 0
2, 38012, Note_off_c, 0, 67, 0
2, 38016, Note_on_c, 0, 70, 75
2, 38016, Note_on_c, 0, 67, 75
2, 38300, Note_off_c, 0, 70, 0
2, 38304, Note_on_c, 0, 72, 75
2, 38348, Note_off_c, 0, 72, 0
2, 38352, Note_on_c, 0, 70, 75
2, 38396, Note_off_c, 0, 67, 0
2, 38396, Note_off_c, 0, 70, 0
2, 38400, Note_on_c, 0, 65, 75
2, 38400, Note_on_c, 0, 69, 75
2, 38588, Note_off_c, 0, 65, 0
2, 38684, Note_off_c, 0, 69, 0
2, 38688, Note_on_c, 0, 60, 75
2, 38732, Note_off_c, 0, 60, 0
2, 38736, Note_on_c, 0, 65, 75
2, 38780, Note_off_c, 0, 65, 0
2, 38784, Note_on_c, 0, 65, 90
2, 38784, Note_on_c, 0, 74, 90
2, 38876, Note_off_c, 0, 74, 0
2, 38880, Note_on_c, 0, 72, 60
2, 38972, Note_off_c, 0, 72, 0
2, 38976, Note_on_c, 0, 70, 60
2, 39068, Note_off_c, 0, 70, 0
2, 39072, Note_on_c, 0, 69, 60
2, 39164, Note_off_c, 0, 65, 0
2, 39164, Note_off_c, 0, 69, 0
2, 39168, Note_on_c, 0, 65, 75
2, 39168, Note_on_c, 0, 62, 75
2, 39168, Note_on_c, 0, 69, 75
2, 39260, Note_off_c, 0, 69, 0
2, 39264, Note_on_c, 0, 67, 75
2, 39356, Note_off_c, 0, 65, 0
2, 39356, Note_off_c, 0, 62, 0
2, 39356, Note_off_c, 0, 67, 0
2, 39360, Note_on_c, 0, 67, 79
2, 39360, Note_on_c, 0, 65, 79
2, 39360, Note_on_c, 0, 62, 79
2, 39740, Note_off_c, 0, 67, 0
2, 39740, Note_off_c, 0, 65, 0
2, 39740, Note_off_c, 0, 62, 0
2, 39744, Note_on_c, 0, 67, 84
2, 39744, Note_on_c, 0, 65, 84
2, 39744, Note_on_c, 0, 58, 84
2, 39932, Note_off_c, 0, 67, 0
2, 39932, Note_off_c, 0, 65, 0
2, 39932, Note_off_c, 0, 58, 0
2, 39936, Note_on_c, 0, 67, 75
2, 40028, Note_off_c, 0, 67, 0
2, 40032, Note_on_c, 0, 70, 75
2, 40076, Note_off_c, 0, 70, 0
2, 40080, Note_on_c, 0, 69, 75
2, 40124, Note_off_c, 0, 69, 0
2, 40128, Note_on_c, 0, 72, 75
2, 40172, Note_off_c, 0, 72, 0
2, 40176, Note_on_c, 0, 70, 75
2, 40220, Note_off_c, 0, 70, 0
2, 40224, Note_on_c, 0, 69, 75
2, 40268, Note_off_c, 0, 69, 0
2, 40272, Note_on_c, 0, 67, 75
2, 40316, Note_off_c, 0, 67, 0
2, 40320, Note_on_c, 0, 65, 90
2, 40604, Note_off_c, 0, 65, 0
2, 40608, Note_on_c, 0, 67, 90
2, 40652, Note_off_c, 0, 67, 0
2, 40656, Note_on_c, 0, 65, 87
2, 40700, Note_off_c, 0, 65, 0
2, 40704, Note_on_c, 0, 64, 84
2, 40892, Note_off_c, 0, 64, 0
2, 41088, Note_on_c, 0, 65, 60
2, 41132, Note_off_c, 0, 65, 0
2, 41136, Note_on_c, 0, 69, 60
2, 41180, Note_off_c, 0, 69, 0
2, 41184, Note_on_c, 0, 70, 60
2, 41228, Note_off_c, 0, 70, 0
2, 41232, Note_on_c, 0, 72, 60
2, 41276, Note_off_c, 0, 72, 0
2, 41280, Note_on_c, 0, 74, 60
2, 41324, Note_off_c, 0, 74, 0
2, 41328, Note_on_c, 0, 76, 60
2, 41372, Note_off_c, 0, 76, 0
2, 41376, Note_on_c, 0, 77, 60
2, 41420, Note_off_c, 0, 77, 0
2, 41424, Note_on_c, 0, 79, 60
2, 41468, Note_off_c, 0, 79, 0
2, 41472, Note_on_c, 0, 81, 90
2, 41712, Note_on_c, 0, 77, 90
2, 41756, Note_off_c, 0, 81, 0
2, 41756, Note_off_c, 0, 77, 0
2, 41760, Note_on_c, 0, 81, 87
2, 41804, Note_off_c, 0, 81, 0
2, 41808, Note_on_c, 0, 77, 84
2, 41852, Note_off_c, 0, 77, 0
2, 41856, Note_on_c, 0, 72, 60
2, 42044, Note_off_c, 0, 72, 0
2, 42048, Note_on_c, 0, 72, 60
2, 42048, Note_on_c, 0, 69, 60
2, 42236, Note_off_c, 0, 72, 0
2, 42240, Note_on_c, 0, 72, 60
2, 42332, Note_off_c, 0, 72, 0
2, 42336, Note_on_c, 0, 74, 60
2, 42380, Note_off_c, 0, 74, 0
2, 42384, Note_on_c, 0, 72, 60
2, 42428, Note_off_c, 0, 69, 0
2, 42428, Note_off_c, 0, 72, 0
2, 42432, Note_on_c, 0, 72, 60
2, 42432, Note_on_c, 0, 67, 60
2, 42476, Note_off_c, 0, 72, 0
2, 42480, Note_on_c, 0, 70, 60
2, 42524, Note_off_c, 0, 70, 0
2, 42528, Note_on_c, 0, 69, 60
2, 42572, Note_off_c, 0, 69, 0
2, 42576, Note_on_c, 0, 70, 60
2, 42620, Note_off_c, 0, 67, 0
2, 42620, Note_off_c, 0, 70, 0
2, 42624, Note_on_c, 0, 72, 75
2, 42624, Note_on_c, 0, 67, 75
2, 42812, Note_off_c, 0, 72, 0
2, 42816, Note_on_c, 0, 70, 75
2, 42840, Note_off_c, 0, 70, 0
2, 42840, Note_on_c, 0, 72, 75
2, 42864, Note_off_c, 0, 72, 0
2, 42864, Note_on_c, 0, 70, 75
2, 42888, Note_off_c, 0, 70, 0
2, 42888, Note_on_c, 0, 72, 75
2, 42912, Note_off_c, 0, 72, 0
2, 42912, Note_on_c, 0, 69, 75
2, 42956, Note_off_c, 0, 69, 0
2, 42960, Note_on_c, 0, 70, 75
2, 43004, Note_off_c, 0, 67, 0
2, 43004, Note_off_c, 0, 70, 0
2, 43008, Note_on_c, 0, 65, 75
2, 43008, Note_on_c, 0, 69, 75
2, 43100, Note_off_c, 0, 65, 0
2, 43100, Note_off_c, 0, 69, 0
2, 43104, Note_on_c, 0, 77, 75
2, 43196, Note_off_c, 0, 77, 0
2, 43200, Note_on_c, 0, 76, 75
2, 43292, Note_off_c, 0, 76, 0
2, 43296, Note_on_c, 0, 77, 75
2, 43388, Note_off_c, 0, 77, 0
2, 43392, Note_on_c, 0, 79, 75
2, 43484, Note_off_c, 0, 79, 0
2, 43488, Note_on_c, 0, 77, 75
2, 43580, Note_off_c, 0, 77, 0
2, 43584, Note_on_c, 0, 76, 75
2, 43676, Note_off_c, 0, 76, 0
2, 43680, Note_on_c, 0, 74, 75
2, 43772, Note_off_c, 0, 74, 0
2, 43776, Note_on_c, 0, 72, 90
2, 43820, Note_off_c, 0, 72, 0
2, 43824, Note_on_c, 0, 73, 90
2, 43868, Note_off_c, 0, 73, 0
2, 43872, Note_on_c, 0, 74, 90
2, 43916, Note_off_c, 0, 74, 0
2, 43920, Note_on_c, 0, 73, 90
2, 43964, Note_off_c, 0, 73, 0
2, 43968, Note_on_c, 0, 76, 90
2, 44012, Note_off_c, 0, 76, 0
2, 44016, Note_on_c, 0, 74, 90
2, 44060, Note_off_c, 0, 74, 0
2, 44064, Note_on_c, 0, 72, 87
2, 44108, Note_off_c, 0, 72, 0
2, 44112, Note_on_c, 0, 70, 87
2, 44156, Note_off_c, 0, 70, 0
2, 44160, Note_on_c, 0, 69, 84
2, 44252, Note_off_c, 0, 69, 0
2, 44256, Note_on_c, 0, 70, 84
2, 44300, Note_off_c, 0, 70, 0
2, 44304, Note_on_c, 0, 69, 81
2, 44348, Note_off_c, 0, 69, 0
2, 44352, Note_on_c, 0, 67, 81
2, 44396, Note_off_c, 0, 67, 0
2, 44400, Note_on_c, 0, 69, 78
2, 44444, Note_off_c, 0, 69, 0
2, 44448, Note_on_c, 0, 70, 78
2, 44540, Note_off_c, 0, 70, 0
2, 44544, Note_on_c, 0, 69, 60
2, 44568, Note_off_c, 0, 69, 0
2, 44568, Note_on_c, 0, 67, 60
2, 44592, Note_off_c, 0, 67, 0
2, 44592, Note_on_c, 0, 69, 60
2, 44616, Note_off_c, 0, 69, 0
2, 44616, Note_on_c, 0, 67, 60
2, 44640, Note_off_c, 0, 67, 0
2, 44640, Note_on_c, 0, 69, 60
2, 44664, Note_off_c, 0, 69, 0
2, 44664, Note_on_c, 0, 67, 60
2, 44688, Note_off_c, 0, 67, 0
2, 44688, Note_on_c, 0, 69, 60
2, 44712, Note_off_c, 0, 69, 0
2, 44712, Note_on_c, 0, 67, 60
2, 44736, Note_off_c, 0, 67, 0
2, 44736, Note_on_c, 0, 69, 60
2, 44760, Note_off_c, 0, 69, 0
2, 44760, Note_on_c, 0, 67, 60
2, 44784, Note_off_c, 0, 67, 0
2, 44784, Note_on_c, 0, 69, 60
2, 44808, Note_off_c, 0, 69, 0
2, 44808, Note_on_c, 0, 67, 60
2, 44832, Note_off_c, 0, 67, 0
2, 44832, Note_on_c, 0, 65, 60
2, 44876, Note_off_c, 0, 65, 0
2, 44880, Note_on_c, 0, 67, 60
2, 44924, Note_off_c, 0, 67, 0
2, 44928, Note_on_c, 0, 65, 45
2, 45308, Note_off_c, 0, 65, 0
2, 45408, Note_on_c, 0, 65, 60
2, 45500, Note_off_c, 0, 65, 0
2, 45504, Note_on_c, 0, 69, 60
2, 45596, Note_off_c, 0, 69, 0
2, 45600, Note_on_c, 0, 72, 60
2, 45692, Note_off_c, 0, 72, 0
2, 45696, Note_on_c, 0, 77, 60
2, 45788, Note_off_c, 0, 77, 0
2, 45792, Note_on_c, 0, 81, 60
2, 45884, Note_off_c, 0, 81, 0
2, 45888, Note_on_c, 0, 84, 60
2, 45980, Note_off_c, 0, 84, 0
2, 45984, Note_on_c, 0, 84, 60
2, 46076, Note_off_c, 0, 84, 0
2, 46080, Note_on_c, 0, 84, 75
2, 46220, Note_off_c, 0, 84, 0
2, 46224, Note_on_c, 0, 76, 75
2, 46268, Note_off_c, 0, 76, 0
2, 46272, Note_on_c, 0, 82, 75
2, 46460, Note_off_c, 0, 82, 0
2, 46560, Note_on_c, 0, 86, 75
2, 46580, Note_on_c, 0, 82, 75
2, 46584, Note_off_c, 0, 86, 0
2, 46656, Note_on_c, 0, 81, 75
2, 46672, Note_off_c, 0, 82, 0
2, 46672, Note_on_c, 0, 79, 75
2, 46680, Note_off_c, 0, 81, 0
2, 46752, Note_on_c, 0, 77, 75
2, 46764, Note_off_c, 0, 79, 0
2, 46768, Note_on_c, 0, 76, 75
2, 46776, Note_off_c, 0, 77, 0
2, 46848, Note_on_c, 0, 74, 75
2, 46860, Note_off_c, 0, 76, 0
2, 46872, Note_off_c, 0, 74, 0
2, 46872, Note_on_c, 0, 72, 75
2, 46944, Note_on_c, 0, 81, 75
2, 46964, Note_off_c, 0, 72, 0
2, 46964, Note_on_c, 0, 79, 75
2, 46968, Note_off_c, 0, 81, 0
2, 47040, Note_on_c, 0, 77, 75
2, 47056, Note_off_c, 0, 79, 0
2, 47056, Note_on_c, 0, 76, 75
2, 47064, Note_off_c, 0, 77, 0
2, 47136, Note_on_c, 0, 74, 75
2, 47148, Note_off_c, 0, 76, 0
2, 47152, Note_on_c, 0, 72, 75
2, 47160, Note_off_c, 0, 74, 0
2, 47232, Note_on_c, 0, 70, 75
2, 47244, Note_off_c, 0, 72, 0
2, 47376, Note_on_c, 0, 67, 75
2, 47420, Note_off_c, 0, 67, 0
2, 47424, Note_on_c, 0, 69, 75
2, 47516, Note_off_c, 0, 70, 0
2, 47612, Note_off_c, 0, 69, 0
2, 47664, Note_on_c, 0, 65, 75
2, 47708, Note_off_c, 0, 65, 0
2, 47712, Note_on_c, 0, 67, 75
2, 47756, Note_off_c, 0, 67, 0
2, 47760, Note_on_c, 0, 69, 75
2, 47804, Note_off_c, 0, 69, 0
2, 47808, Note_on_c, 0, 70, 76
2, 47852, Note_off_c, 0, 70, 0
2, 47856, Note_on_c, 0, 72, 78
2, 47900, Note_off_c, 0, 72, 0
2, 47904, Note_on_c, 0, 74, 79
2, 47948, Note_off_c, 0, 74, 0
2, 47952, Note_on_c, 0, 76, 81
2, 47996, Note_off_c, 0, 76, 0
2, 48000, Note_on_c, 0, 77, 82
2, 48044, Note_off_c, 0, 77, 0
2, 48048, Note_on_c, 0, 79, 84
2, 48092, Note_off_c, 0, 79, 0
2, 48096, Note_on_c, 0, 81, 85
2, 48140, Note_off_c, 0, 81, 0
2, 48144, Note_on_c, 0, 82, 87
2, 48188, Note_off_c, 0, 82, 0
2, 48192, Note_on_c, 0, 84, 88
2, 48284, Note_off_c, 0, 84, 0
2, 48288, Note_on_c, 0, 84, 90
2, 48380, Note_off_c, 0, 84, 0
2, 48384, Note_on_c, 0, 84, 90
2, 48524, Note_off_c, 0, 84, 0
2, 48528, Note_on_c, 0, 76, 90
2, 48572, Note_off_c, 0, 76, 0
2, 48576, Note_on_c, 0, 82, 90
2, 48764, Note_off_c, 0, 82, 0
2, 48816, Note_on_c, 0, 79, 60
2, 48860, Note_off_c, 0, 79, 0
2, 48864, Note_on_c, 0, 82, 60
2, 48908, Note_off_c, 0, 82, 0
2, 48912, Note_on_c, 0, 81, 60
2, 48956, Note_off_c, 0, 81, 0
2, 48960, Note_on_c, 0, 79, 60
2, 49004, Note_off_c, 0, 79, 0
2, 49008, Note_on_c, 0, 77, 60
2, 49052, Note_off_c, 0, 77, 0
2, 49056, Note_on_c, 0, 76, 60
2, 49100, Note_off_c, 0, 76, 0
2, 49104, Note_on_c, 0, 74, 60
2, 49148, Note_off_c, 0, 74, 0
2, 49152, Note_on_c, 0, 72, 60
2, 49196, Note_off_c, 0, 72, 0
2, 49200, Note_on_c, 0, 76, 60
2, 49244, Note_off_c, 0, 76, 0
2, 49248, Note_on_c, 0, 79, 60
2, 49292, Note_off_c, 0, 79, 0
2, 49296, Note_on_c, 0, 77, 60
2, 49340, Note_off_c, 0, 77, 0
2, 49344, Note_on_c, 0, 76, 60
2, 49388, Note_off_c, 0, 76, 0
2, 49392, Note_on_c, 0, 74, 60
2, 49436, Note_off_c, 0, 74, 0
2, 49440, Note_on_c, 0, 72, 60
2, 49484, Note_off_c, 0, 72, 0
2, 49488, Note_on_c, 0, 70, 60
2, 49532, Note_off_c, 0, 70, 0
2, 49536, Note_on_c, 0, 69, 75
2, 49580, Note_off_c, 0, 69, 0
2, 49584, Note_on_c, 0, 72, 75
2, 49628, Note_off_c, 0, 72, 0
2, 49632, Note_on_c, 0, 70, 75
2, 49676, Note_off_c, 0, 70, 0
2, 49680, Note_on_c, 0, 69, 75
2, 49724, Note_off_c, 0, 69, 0
2, 49728, Note_on_c, 0, 70, 75
2, 49772, Note_off_c, 0, 70, 0
2, 49776, Note_on_c, 0, 72, 75
2, 49820, Note_off_c, 0, 72, 0
2, 49824, Note_on_c, 0, 74, 75
2, 49868, Note_off_c, 0, 74, 0
2, 49872, Note_on_c, 0, 76, 75
2, 49916, Note_off_c, 0, 76, 0
2, 49920, Note_on_c, 0, 77, 76
2, 49964, Note_off_c, 0, 77, 0
2, 49964, Note_on_c, 0, 79, 76
2, 49980, Note_on_c, 0, 77, 78
2, 49988, Note_off_c, 0, 79, 0
2, 49996, Note_on_c, 0, 76, 78
2, 50004, Note_off_c, 0, 77, 0
2, 50016, Note_on_c, 0, 77, 79
2, 50020, Note_off_c, 0, 76, 0
2, 50060, Note_off_c, 0, 77, 0
2, 50064, Note_on_c, 0, 79, 79
2, 50108, Note_off_c, 0, 79, 0
2, 50112, Note_on_c, 0, 81, 81
2, 50156, Note_off_c, 0, 81, 0
2, 50156, Note_on_c, 0, 83, 81
2, 50172, Note_on_c, 0, 81, 82
2, 50180, Note_off_c, 0, 83, 0
2, 50188, Note_on_c, 0, 79, 82
2, 50196, Note_off_c, 0, 81, 0
2, 50208, Note_on_c, 0, 81, 84
2, 50212, Note_off_c, 0, 79, 0
2, 50252, Note_off_c, 0, 81, 0
2, 50256, Note_on_c, 0, 82, 84
2, 50300, Note_off_c, 0, 82, 0
2, 50304, Note_on_c, 0, 84, 85
2, 50444, Note_off_c, 0, 84, 0
2, 50448, Note_on_c, 0, 81, 85
2, 50492, Note_off_c, 0, 81, 0
2, 50496, Note_on_c, 0, 89, 87
2, 50588, Note_off_c, 0, 89, 0
2, 50640, Note_on_c, 0, 69, 87
2, 50684, Note_off_c, 0, 69, 0
2, 50688, Note_on_c, 0, 67, 90
2, 50780, Note_off_c, 0, 67, 0
2, 50784, Note_on_c, 0, 69, 90
2, 50808, Note_off_c, 0, 69, 0
2, 50808, Note_on_c, 0, 70, 90
2, 50976, Note_on_c, 0, 73, 90
2, 50996, Note_off_c, 0, 70, 0
2, 51000, Note_off_c, 0, 73, 0
2, 51000, Note_on_c, 0, 74, 90
2, 51168, Note_on_c, 0, 78, 90
2, 51188, Note_off_c, 0, 74, 0
2, 51192, Note_off_c, 0, 78, 0
2, 51192, Note_on_c, 0, 79, 90
2, 51360, Note_on_c, 0, 81, 90
2, 51380, Note_off_c, 0, 79, 0
2, 51384, Note_off_c, 0, 81, 0
2, 51384, Note_on_c, 0, 82, 90
2, 51552, Note_on_c, 0, 85, 90
2, 51572, Note_off_c, 0, 82, 0
2, 51596, Note_off_c, 0, 85, 0
2, 51600, Note_on_c, 0, 86, 90
2, 51644, Note_off_c, 0, 86, 0
2, 51648, Note_on_c, 0, 84, 90
2, 51692, Note_off_c, 0, 84, 0
2, 51696, Note_on_c, 0, 82, 90
2, 51740, Note_off_c, 0, 82, 0
2, 51744, Note_on_c, 0, 81, 90
2, 51788, Note_off_c, 0, 81, 0
2, 51792, Note_on_c, 0, 79, 90
2, 51836, Note_off_c, 0, 79, 0
2, 51840, Note_on_c, 0, 77, 75
2, 52124, Note_off_c, 0, 77, 0
2, 52128, Note_on_c, 0, 76, 75
2, 52152, Note_off_c, 0, 76, 0
2, 52152, Note_on_c, 0, 77, 75
2, 52176, Note_off_c, 0, 77, 0
2, 52176, Note_on_c, 0, 79, 75
2, 52200, Note_off_c, 0, 79, 0
2, 52200, Note_on_c, 0, 77, 75
2, 52224, Note_off_c, 0, 77, 0
2, 52224, Note_on_c, 0, 76, 75
2, 52412, Note_off_c, 0, 76, 0
2, 53088, Note_on_c, 0, 79, 60
2, 53180, Note_off_c, 0, 79, 0
2, 53184, Note_on_c, 0, 79, 60
2, 53276, Note_off_c, 0, 79, 0
2, 53280, Note_on_c, 0, 79, 60
2, 53372, Note_off_c, 0, 79, 0
2, 53376, Note_on_c, 0, 79, 60
2, 53468, Note_off_c, 0, 79, 0
2, 53472, Note_on_c, 0, 79, 60
2, 53564, Note_off_c, 0, 79, 0
2, 53568, Note_on_c, 0, 79, 60
2, 53660, Note_off_c, 0, 79, 0
2, 53664, Note_on_c, 0, 79, 60
2, 53756, Note_off_c, 0, 79, 0
2, 53760, Note_on_c, 0, 79, 60
2, 53852, Note_off_c, 0, 79, 0
2, 53856, Note_on_c, 0, 81, 60
2, 53900, Note_off_c, 0, 81, 0
2, 53904, Note_on_c, 0, 83, 60
2, 53948, Note_off_c, 0, 83, 0
2, 53952, Note_on_c, 0, 84, 60
2, 53996, Note_off_c, 0, 84, 0
2, 54000, Note_on_c, 0, 83, 60
2, 54044, Note_off_c, 0, 83, 0
2, 54048, Note_on_c, 0, 81, 60
2, 54092, Note_off_c, 0, 81, 0
2, 54096, Note_on_c, 0, 79, 60
2, 54140, Note_off_c, 0, 79, 0
2, 54144, Note_on_c, 0, 77, 75
2, 54236, Note_off_c, 0, 77, 0
2, 54240, Note_on_c, 0, 77, 75
2, 54332, Note_off_c, 0, 77, 0
2, 54336, Note_on_c, 0, 77, 75
2, 54428, Note_off_c, 0, 77, 0
2, 54432, Note_on_c, 0, 77, 75
2, 54524, Note_off_c, 0, 77, 0
2, 54528, Note_on_c, 0, 77, 75
2, 54620, Note_off_c, 0, 77, 0
2, 54624, Note_on_c, 0, 77, 75
2, 54716, Note_off_c, 0, 77, 0
2, 54720, Note_on_c, 0, 77, 75
2, 54812, Note_off_c, 0, 77, 0
2, 54816, Note_on_c, 0, 77, 75
2, 54908, Note_off_c, 0, 77, 0
2, 54912, Note_on_c, 0, 77, 75
2, 55004, Note_off_c, 0, 77, 0
2, 55008, Note_on_c, 0, 76, 75
2, 55052, Note_off_c, 0, 76, 0
2, 55056, Note_on_c, 0, 74, 75
2, 55100, Note_off_c, 0, 74, 0
2, 55104, Note_on_c, 0, 72, 75
2, 55148, Note_off_c, 0, 72, 0
2, 55152, Note_on_c, 0, 71, 75
2, 55196, Note_off_c, 0, 71, 0
2, 55200, Note_on_c, 0, 69, 75
2, 55244, Note_off_c, 0, 69, 0
2, 55248, Note_on_c, 0, 67, 75
2, 55296, Note_on_c, 0, 81, 75
2, 55300, Note_off_c, 0, 67, 0
2, 55320, Note_off_c, 0, 81, 0
2, 55320, Note_on_c, 0, 79, 75
2, 55344, Note_off_c, 0, 79, 0
2, 55344, Note_on_c, 0, 81, 75
2, 55368, Note_off_c, 0, 81, 0
2, 55368, Note_on_c, 0, 79, 75
2, 55392, Note_off_c, 0, 79, 0
2, 55392, Note_on_c, 0, 81, 75
2, 55416, Note_off_c, 0, 81, 0
2, 55416, Note_on_c, 0, 79, 75
2, 55440, Note_off_c, 0, 79, 0
2, 55440, Note_on_c, 0, 81, 75
2, 55464, Note_off_c, 0, 81, 0
2, 55464, Note_on_c, 0, 79, 75
2, 55488, Note_off_c, 0, 79, 0
2, 55488, Note_on_c, 0, 81, 75
2, 55512, Note_off_c, 0, 81, 0
2, 55512, Note_on_c, 0, 79, 75
2, 55536, Note_off_c, 0, 79, 0
2, 55536, Note_on_c, 0, 81, 75
2, 55560, Note_off_c, 0, 81, 0
2, 55560, Note_on_c, 0, 79, 75
2, 55584, Note_off_c, 0, 79, 0
2, 55584, Note_on_c, 0, 81, 75
2, 55608, Note_off_c, 0, 81, 0
2, 55608, Note_on_c, 0, 79, 75
2, 55632, Note_off_c, 0, 79, 0
2, 55632, Note_on_c, 0, 81, 75
2, 55656, Note_off_c, 0, 81, 0
2, 55656, Note_on_c, 0, 79, 75
2, 55680, Note_off_c, 0, 79, 0
2, 55680, Note_on_c, 0, 81, 75
2, 55704, Note_off_c, 0, 81, 0
2, 55704, Note_on_c, 0, 79, 75
2, 55728, Note_off_c, 0, 79, 0
2, 55728, Note_on_c, 0, 81, 75
2, 55752, Note_off_c, 0, 81, 0
2, 55752, Note_on_c, 0, 79, 75
2, 55776, Note_off_c, 0, 79, 0
2, 55776, Note_on_c, 0, 81, 75
2, 55800, Note_off_c, 0, 81, 0
2, 55800, Note_on_c, 0, 79, 75
2, 55824, Note_off_c, 0, 79, 0
2, 55824, Note_on_c, 0, 81, 75
2, 55848, Note_off_c, 0, 81, 0
2, 55848, Note_on_c, 0, 79, 75
2, 55872, Note_off_c, 0, 79, 0
2, 55872, Note_on_c, 0, 81, 75
2, 55896, Note_off_c, 0, 81, 0
2, 55896, Note_on_c, 0, 79, 75
2, 55920, Note_off_c, 0, 79, 0
2, 55920, Note_on_c, 0, 81, 75
2, 55944, Note_off_c, 0, 81, 0
2, 55944, Note_on_c, 0, 79, 75
2, 55968, Note_off_c, 0, 79, 0
2, 55968, Note_on_c, 0, 81, 75
2, 55992, Note_off_c, 0, 81, 0
2, 55992, Note_on_c, 0, 79, 75
2, 56016, Note_off_c, 0, 79, 0
2, 56016, Note_on_c, 0, 81, 75
2, 56040, Note_off_c, 0, 81, 0
2, 56040, Note_on_c, 0, 79, 75
2, 56064, Note_off_c, 0, 79, 0
2, 56064, Note_on_c, 0, 81, 75
2, 56088, Note_off_c, 0, 81, 0
2, 56088, Note_on_c, 0, 79, 75
2, 56112, Note_off_c, 0, 79, 0
2, 56112, Note_on_c, 0, 81, 75
2, 56136, Note_off_c, 0, 81, 0
2, 56136, Note_on_c, 0, 79, 75
2, 56160, Note_off_c, 0, 79, 0
2, 56160, Note_on_c, 0, 81, 75
2, 56184, Note_off_c, 0, 81, 0
2, 56184, Note_on_c, 0, 79, 75
2, 56208, Note_off_c, 0, 79, 0
2, 56208, Note_on_c, 0, 81, 75
2, 56232, Note_off_c, 0, 81, 0
2, 56232, Note_on_c, 0, 79, 75
2, 56256, Note_off_c, 0, 79, 0
2, 56256, Note_on_c, 0, 81, 75
2, 56280, Note_off_c, 0, 81, 0
2, 56280, Note_on_c, 0, 79, 75
2, 56304, Note_off_c, 0, 79, 0
2, 56304, Note_on_c, 0, 81, 75
2, 56328, Note_off_c, 0, 81, 0
2, 56328, Note_on_c, 0, 79, 75
2, 56352, Note_off_c, 0, 79, 0
2, 56352, Note_on_c, 0, 81, 75
2, 56376, Note_off_c, 0, 81, 0
2, 56376, Note_on_c, 0, 79, 75
2, 56400, Note_off_c, 0, 79, 0
2, 56400, Note_on_c, 0, 81, 75
2, 56424, Note_off_c, 0, 81, 0
2, 56424, Note_on_c, 0, 79, 75
2, 56448, Note_off_c, 0, 79, 0
2, 56448, Note_on_c, 0, 81, 75
2, 56472, Note_off_c, 0, 81, 0
2, 56472, Note_on_c, 0, 79, 75
2, 56496, Note_off_c, 0, 79, 0
2, 56496, Note_on_c, 0, 81, 75
2, 56520, Note_off_c, 0, 81, 0
2, 56520, Note_on_c, 0, 79, 75
2, 56544, Note_off_c, 0, 79, 0
2, 56544, Note_on_c, 0, 81, 75
2, 56568, Note_off_c, 0, 81, 0
2, 56568, Note_on_c, 0, 79, 75
2, 56592, Note_off_c, 0, 79, 0
2, 56592, Note_on_c, 0, 81, 75
2, 56616, Note_off_c, 0, 81, 0
2, 56616, Note_on_c, 0, 79, 75
2, 56640, Note_off_c, 0, 79, 0
2, 56640, Note_on_c, 0, 81, 75
2, 56664, Note_off_c, 0, 81, 0
2, 56664, Note_on_c, 0, 79, 75
2, 56688, Note_off_c, 0, 79, 0
2, 56688, Note_on_c, 0, 81, 75
2, 56712, Note_off_c, 0, 81, 0
2, 56712, Note_on_c, 0, 79, 75
2, 56736, Note_off_c, 0, 79, 0
2, 56736, Note_on_c, 0, 81, 75
2, 56760, Note_off_c, 0, 81, 0
2, 56760, Note_on_c, 0, 79, 75
2, 56784, Note_off_c, 0, 79, 0
2, 56784, Note_on_c, 0, 81, 75
2, 56808, Note_off_c, 0, 81, 0
2, 56808, Note_on_c, 0, 79, 75
2, 56832, Note_off_c, 0, 79, 0
2, 56832, Note_on_c, 0, 81, 75
2, 56856, Note_off_c, 0, 81, 0
2, 56856, Note_on_c, 0, 79, 75
2, 56880, Note_off_c, 0, 79, 0
2, 56880, Note_on_c, 0, 81, 75
2, 56904, Note_off_c, 0, 81, 0
2, 56904, Note_on_c, 0, 79, 75
2, 56928, Note_off_c, 0, 79, 0
2, 56928, Note_on_c, 0, 81, 75
2, 56952, Note_off_c, 0, 81, 0
2, 56952, Note_on_c, 0, 79, 75
2, 56976, Note_off_c, 0, 79, 0
2, 56976, Note_on_c, 0, 81, 75
2, 57000, Note_off_c, 0, 81, 0
2, 57000, Note_on_c, 0, 79, 75
2, 57024, Note_off_c, 0, 79, 0
2, 57024, Note_on_c, 0, 81, 75
2, 57048, Note_off_c, 0, 81, 0
2, 57048, Note_on_c, 0, 79, 75
2, 57072, Note_off_c, 0, 79, 0
2, 57072, Note_on_c, 0, 81, 75
2, 57096, Note_off_c, 0, 81, 0
2, 57096, Note_on_c, 0, 79, 75
2, 57120, Note_off_c, 0, 79, 0
2, 57120, Note_on_c, 0, 81, 75
2, 57144, Note_off_c, 0, 81, 0
2, 57144, Note_on_c, 0, 79, 75
2, 57168, Note_off_c, 0, 79, 0
2, 57168, Note_on_c, 0, 81, 75
2, 57192, Note_off_c, 0, 81, 0
2, 57192, Note_on_c, 0, 79, 75
2, 57216, Note_off_c, 0, 79, 0
2, 57216, Note_on_c, 0, 81, 75
2, 57240, Note_off_c, 0, 81, 0
2, 57240, Note_on_c, 0, 79, 75
2, 57264, Note_off_c, 0, 79, 0
2, 57264, Note_on_c, 0, 81, 75
2, 57288, Note_off_c, 0, 81, 0
2, 57288, Note_on_c, 0, 79, 75
2, 57312, Note_off_c, 0, 79, 0
2, 57312, Note_on_c, 0, 81, 75
2, 57336, Note_off_c, 0, 81, 0
2, 57336, Note_on_c, 0, 79, 75
2, 57360, Note_off_c, 0, 79, 0
2, 57360, Note_on_c, 0, 81, 75
2, 57384, Note_off_c, 0, 81, 0
2, 57384, Note_on_c, 0, 79, 75
2, 57408, Note_off_c, 0, 79, 0
2, 57408, Note_on_c, 0, 78, 75
2, 57500, Note_off_c, 0, 78, 0
2, 57504, Note_on_c, 0, 79, 75
2, 57596, Note_off_c, 0, 79, 0
2, 57696, Note_on_c, 0, 81, 75
2, 57720, Note_off_c, 0, 81, 0
2, 57720, Note_on_c, 0, 79, 75
2, 57744, Note_off_c, 0, 79, 0
2, 57744, Note_on_c, 0, 78, 75
2, 57768, Note_off_c, 0, 78, 0
2, 57768, Note_on_c, 0, 79, 75
2, 57792, Note_off_c, 0, 79, 0
2, 57792, Note_on_c, 0, 84, 75
2, 57884, Note_off_c, 0, 84, 0
2, 57888, Note_on_c, 0, 72, 75
2, 57980, Note_off_c, 0, 72, 0
2, 57984, Note_on_c, 0, 76, 90
2, 57984, Note_on_c, 0, 72, 90
2, 58076, Note_off_c, 0, 76, 0
2, 58080, Note_on_c, 0, 74, 60
2, 58172, Note_off_c, 0, 74, 0
2, 58176, Note_on_c, 0, 73, 60
2, 58268, Note_off_c, 0, 73, 0
2, 58272, Note_on_c, 0, 74, 60
2, 58364, Note_off_c, 0, 72, 0
2, 58364, Note_off_c, 0, 74, 0
2, 58368, Note_on_c, 0, 77, 90
2, 58368, Note_on_c, 0, 72, 90
2, 58460, Note_off_c, 0, 77, 0
2, 58464, Note_on_c, 0, 76, 60
2, 58556, Note_off_c, 0, 76, 0
2, 58560, Note_on_c, 0, 75, 60
2, 58652, Note_off_c, 0, 75, 0
2, 58656, Note_on_c, 0, 76, 60
2, 58748, Note_off_c, 0, 72, 0
2, 58748, Note_off_c, 0, 76, 0
2, 58752, Note_on_c, 0, 79, 90
2, 58752, Note_on_c, 0, 72, 90
2, 58844, Note_off_c, 0, 79, 0
2, 58848, Note_on_c, 0, 77, 60
2, 58940, Note_off_c, 0, 77, 0
2, 58944, Note_on_c, 0, 76, 60
2, 59036, Note_off_c, 0, 76, 0
2, 59040, Note_on_c, 0, 77, 60
2, 59132, Note_off_c, 0, 72, 0
2, 59132, Note_off_c, 0, 77, 0
2, 59136, Note_on_c, 0, 72, 75
2, 59136, Note_on_c, 0, 77, 75
2, 59228, Note_off_c, 0, 77, 0
2, 59232, Note_on_c, 0, 79, 75
2, 59276, Note_off_c, 0, 79, 0
2, 59280, Note_on_c, 0, 77, 75
2, 59324, Note_off_c, 0, 77, 0
2, 59328, Note_on_c, 0, 76, 75
2, 59372, Note_off_c, 0, 76, 0
2, 59376, Note_on_c, 0, 77, 75
2, 59420, Note_off_c, 0, 72, 0
2, 59420, Note_off_c, 0, 77, 0
2, 59424, Note_on_c, 0, 76, 75
2, 59424, Note_on_c, 0, 79, 75
2, 59516, Note_off_c, 0, 76, 0
2, 59516, Note_off_c, 0, 79, 0
2, 59520, Note_on_c, 0, 81, 75
2, 59520, Note_on_c, 0, 77, 75
2, 59612, Note_off_c, 0, 81, 0
2, 59612, Note_off_c, 0, 77, 0
2, 59616, Note_on_c, 0, 81, 75
2, 59616, Note_on_c, 0, 77, 75
2, 59708, Note_off_c, 0, 81, 0
2, 59708, Note_off_c, 0, 77, 0
2, 59712, Note_on_c, 0, 81, 75
2, 59712, Note_on_c, 0, 77, 75
2, 59804, Note_off_c, 0, 81, 0
2, 59804, Note_off_c, 0, 77, 0
2, 59808, Note_on_c, 0, 81, 75
2, 59808, Note_on_c, 0, 77, 75
2, 59900, Note_off_c, 0, 81, 0
2, 59900, Note_off_c, 0, 77, 0
2, 59904, Note_on_c, 0, 81, 75
2, 59904, Note_on_c, 0, 77, 75
2, 59996, Note_off_c, 0, 81, 0
2, 59996, Note_off_c, 0, 77, 0
2, 60000, Note_on_c, 0, 79, 75
2, 60000, Note_on_c, 0, 76, 75
2, 60092, Note_off_c, 0, 79, 0
2, 60092, Note_off_c, 0, 76, 0
2, 60096, Note_on_c, 0, 81, 75
2, 60096, Note_on_c, 0, 77, 75
2, 60188, Note_off_c, 0, 81, 0
2, 60188, Note_off_c, 0, 77, 0
2, 60192, Note_on_c, 0, 77, 75
2, 60192, Note_on_c, 0, 74, 75
2, 60284, Note_off_c, 0, 77, 0
2, 60284, Note_off_c, 0, 74, 0
2, 60288, Note_on_c, 0, 72, 75
2, 60288, Note_on_c, 0, 76, 75
2, 60316, Note_on_c, 0, 79, 75
2, 60328, Note_off_c, 0, 76, 0
2, 60348, Note_on_c, 0, 78, 75
2, 60356, Note_off_c, 0, 79, 0
2, 60388, Note_off_c, 0, 78, 0
2, 60388, Note_on_c, 0, 77, 75
2, 60428, Note_off_c, 0, 77, 0
2, 60428, Note_on_c, 0, 76, 75
2, 60508, Note_off_c, 0, 76, 0
2, 60508, Note_on_c, 0, 77, 75
2, 60588, Note_off_c, 0, 77, 0
2, 60588, Note_on_c, 0, 74, 75
2, 60668, Note_off_c, 0, 72, 0
2, 60668, Note_off_c, 0, 74, 0
2, 60672, Note_on_c, 0, 70, 75
2, 60672, Note_on_c, 0, 76, 75
2, 60696, Note_off_c, 0, 76, 0
2, 60696, Note_on_c, 0, 74, 75
2, 60720, Note_off_c, 0, 74, 0
2, 60720, Note_on_c, 0, 76, 75
2, 60744, Note_off_c, 0, 76, 0
2, 60744, Note_on_c, 0, 74, 75
2, 60768, Note_off_c, 0, 74, 0
2, 60768, Note_on_c, 0, 76, 75
2, 60792, Note_off_c, 0, 76, 0
2, 60792, Note_on_c, 0, 74, 75
2, 60816, Note_off_c, 0, 74, 0
2, 60816, Note_on_c, 0, 76, 75
2, 60840, Note_off_c, 0, 76, 0
2, 60840, Note_on_c, 0, 74, 75
2, 60864, Note_off_c, 0, 74, 0
2, 60864, Note_on_c, 0, 76, 75
2, 60888, Note_off_c, 0, 76, 0
2, 60888, Note_on_c, 0, 74, 75
2, 60912, Note_off_c, 0, 74, 0
2, 60912, Note_on_c, 0, 76, 75
2, 60936, Note_off_c, 0, 76, 0
2, 60936, Note_on_c, 0, 74, 75
2, 60960, Note_off_c, 0, 74, 0
2, 60960, Note_on_c, 0, 72, 75
2, 61004, Note_off_c, 0, 72, 0
2, 61008, Note_on_c, 0, 74, 75
2, 61052, Note_off_c, 0, 70, 0
2, 61052, Note_off_c, 0, 74, 0
2, 61152, Note_on_c, 0, 72, 90
2, 61244, Note_off_c, 0, 72, 0
2, 61248, Note_on_c, 0, 84, 87
2, 61340, Note_off_c, 0, 84, 0
2, 61344, Note_on_c, 0, 83, 84
2, 61436, Note_off_c, 0, 83, 0
2, 61440, Note_on_c, 0, 81, 60
2, 61532, Note_off_c, 0, 81, 0
2, 61536, Note_on_c, 0, 69, 90
2, 61628, Note_off_c, 0, 69, 0
2, 61632, Note_on_c, 0, 81, 87
2, 61724, Note_off_c, 0, 81, 0
2, 61728, Note_on_c, 0, 79, 84
2, 61820, Note_off_c, 0, 79, 0
2, 61824, Note_on_c, 0, 77, 60
2, 61916, Note_off_c, 0, 77, 0
2, 61920, Note_on_c, 0, 65, 90
2, 62012, Note_off_c, 0, 65, 0
2, 62016, Note_on_c, 0, 77, 87
2, 62108, Note_off_c, 0, 77, 0
2, 62112, Note_on_c, 0, 76, 84
2, 62204, Note_off_c, 0, 76, 0
2, 62208, Note_on_c, 0, 74, 60
2, 62300, Note_off_c, 0, 74, 0
2, 62304, Note_on_c, 0, 62, 90
2, 62396, Note_off_c, 0, 62, 0
2, 62400, Note_on_c, 0, 74, 87
2, 62492, Note_off_c, 0, 74, 0
2, 62496, Note_on_c, 0, 73, 84
2, 62588, Note_off_c, 0, 73, 0
2, 62592, Note_on_c, 0, 74, 60
2, 62684, Note_off_c, 0, 74, 0
2, 62688, Note_on_c, 0, 76, 75
2, 62688, Note_on_c, 0, 69, 75
2, 62780, Note_off_c, 0, 76, 0
2, 62780, Note_off_c, 0, 69, 0
2, 62784, Note_on_c, 0, 77, 75
2, 62784, Note_on_c, 0, 69, 75
2, 62876, Note_off_c, 0, 77, 0
2, 62876, Note_off_c, 0, 69, 0
2, 62880, Note_on_c, 0, 79, 75
2, 62880, Note_on_c, 0, 72, 75
2, 62972, Note_off_c, 0, 79, 0
2, 62972, Note_off_c, 0, 72, 0
2, 62976, Note_on_c, 0, 81, 75
2, 62976, Note_on_c, 0, 72, 75
2, 63068, Note_off_c, 0, 81, 0
2, 63068, Note_off_c, 0, 72, 0
2, 63072, Note_on_c, 0, 83, 75
2, 63072, Note_on_c, 0, 77, 75
2, 63164, Note_off_c, 0, 83, 0
2, 63164, Note_off_c, 0, 77, 0
2, 63168, Note_on_c, 0, 84, 75
2, 63168, Note_on_c, 0, 79, 75
2, 63260, Note_off_c, 0, 84, 0
2, 63260, Note_off_c, 0, 79, 0
2, 63264, Note_on_c, 0, 86, 75
2, 63264, Note_on_c, 0, 79, 75
2, 63356, Note_off_c, 0, 86, 0
2, 63356, Note_off_c, 0, 79, 0
2, 63360, Note_on_c, 0, 79, 90
2, 63360, Note_on_c, 0, 88, 90
2, 63500, Note_off_c, 0, 88, 0
2, 63504, Note_on_c, 0, 84, 90
2, 63548, Note_off_c, 0, 79, 0
2, 63548, Note_off_c, 0, 84, 0
2, 63552, Note_on_c, 0, 77, 90
2, 63552, Note_on_c, 0, 81, 90
2, 63692, Note_off_c, 0, 77, 0
2, 63692, Note_off_c, 0, 81, 0
2, 63696, Note_on_c, 0, 74, 90
2, 63696, Note_on_c, 0, 77, 90
2, 63740, Note_off_c, 0, 74, 0
2, 63740, Note_off_c, 0, 77, 0
2, 63744, Note_on_c, 0, 72, 90
2, 63744, Note_on_c, 0, 76, 90
2, 63836, Note_off_c, 0, 76, 0
2, 63840, Note_on_c, 0, 77, 90
2, 63884, Note_off_c, 0, 77, 0
2, 63888, Note_on_c, 0, 76, 90
2, 63932, Note_off_c, 0, 76, 0
2, 63936, Note_on_c, 0, 74, 90
2, 63980, Note_off_c, 0, 74, 0
2, 63984, Note_on_c, 0, 76, 90
2, 64028, Note_off_c, 0, 76, 0
2, 64032, Note_on_c, 0, 77, 90
2, 64124, Note_off_c, 0, 72, 0
2, 64124, Note_off_c, 0, 77, 0
2, 64128, Note_on_c, 0, 71, 90
2, 64128, Note_on_c, 0, 76, 90
2, 64152, Note_off_c, 0, 76, 0
2, 64152, Note_on_c, 0, 74, 90
2, 64176, Note_off_c, 0, 74, 0
2, 64176, Note_on_c, 0, 76, 90
2, 64200, Note_off_c, 0, 76, 0
2, 64200, Note_on_c, 0, 74, 90
2, 64224, Note_off_c, 0, 74, 0
2, 64224, Note_on_c, 0, 76, 90
2, 64248, Note_off_c, 0, 76, 0
2, 64248, Note_on_c, 0, 74, 90
2, 64272, Note_off_c, 0, 74, 0
2, 64272, Note_on_c, 0, 76, 90
2, 64296, Note_off_c, 0, 76, 0
2, 64296, Note_on_c, 0, 74, 90
2, 64320, Note_off_c, 0, 74, 0
2, 64320, Note_on_c, 0, 76, 90
2, 64344, Note_off_c, 0, 76, 0
2, 64344, Note_on_c, 0, 74, 90
2, 64368, Note_off_c, 0, 74, 0
2, 64368, Note_on_c, 0, 76, 90
2, 64392, Note_off_c, 0, 76, 0
2, 64416, Note_on_c, 0, 72, 90
2, 64460, Note_off_c, 0, 72, 0
2, 64464, Note_on_c, 0, 74, 90
2, 64508, Note_off_c, 0, 71, 0
2, 64508, Note_off_c, 0, 74, 0
2, 64608, Note_on_c, 0, 74, 90
2, 64632, Note_off_c, 0, 74, 0
2, 64632, Note_on_c, 0, 72, 90
2, 64656, Note_off_c, 0, 72, 0
2, 64656, Note_on_c, 0, 71, 90
2, 64680, Note_off_c, 0, 71, 0
2, 64680, Note_on_c, 0, 72, 90
2, 64704, Note_off_c, 0, 72, 0
2, 64704, Note_on_c, 0, 84, 87
2, 64796, Note_off_c, 0, 84, 0
2, 64800, Note_on_c, 0, 83, 84
2, 64892, Note_off_c, 0, 83, 0
2, 64896, Note_on_c, 0, 81, 60
2, 64988, Note_off_c, 0, 81, 0
2, 64992, Note_on_c, 0, 70, 90
2, 65016, Note_off_c, 0, 70, 0
2, 65016, Note_on_c, 0, 69, 90
2, 65040, Note_off_c, 0, 69, 0
2, 65040, Note_on_c, 0, 67, 90
2, 65064, Note_off_c, 0, 67, 0
2, 65064, Note_on_c, 0, 70, 90
2, 65088, Note_off_c, 0, 70, 0
2, 65088, Note_on_c, 0, 81, 87
2, 65180, Note_off_c, 0, 81, 0
2, 65184, Note_on_c, 0, 79, 84
2, 65276, Note_off_c, 0, 79, 0
2, 65280, Note_on_c, 0, 77, 60
2, 65372, Note_off_c, 0, 77, 0
2, 65376, Note_on_c, 0, 67, 90
2, 65400, Note_off_c, 0, 67, 0
2, 65400, Note_on_c, 0, 65, 90
2, 65424, Note_off_c, 0, 65, 0
2, 65424, Note_on_c, 0, 64, 90
2, 65448, Note_off_c, 0, 64, 0
2, 65448, Note_on_c, 0, 65, 90
2, 65472, Note_off_c, 0, 65, 0
2, 65472, Note_on_c, 0, 77, 87
2, 65564, Note_off_c, 0, 77, 0
2, 65568, Note_on_c, 0, 76, 84
2, 65660, Note_off_c, 0, 76, 0
2, 65664, Note_on_c, 0, 74, 60
2, 65712, Note_on_c, 0, 62, 61
2, 65756, Note_off_c, 0, 74, 0
2, 65756, Note_off_c, 0, 62, 0
2, 65760, Note_on_c, 0, 64, 61
2, 65804, Note_off_c, 0, 64, 0
2, 65808, Note_on_c, 0, 65, 63
2, 65852, Note_off_c, 0, 65, 0
2, 65856, Note_on_c, 0, 67, 63
2, 65900, Note_off_c, 0, 67, 0
2, 65904, Note_on_c, 0, 69, 64
2, 65948, Note_off_c, 0, 69, 0
2, 65952, Note_on_c, 0, 71, 64
2, 65996, Note_off_c, 0, 71, 0
2, 66000, Note_on_c, 0, 73, 66
2, 66044, Note_off_c, 0, 73, 0
2, 66048, Note_on_c, 0, 74, 66
2, 66092, Note_off_c, 0, 74, 0
2, 66096, Note_on_c, 0, 74, 67
2, 66140, Note_off_c, 0, 74, 0
2, 66144, Note_on_c, 0, 76, 69
2, 66188, Note_off_c, 0, 76, 0
2, 66192, Note_on_c, 0, 77, 70
2, 66236, Note_off_c, 0, 77, 0
2, 66240, Note_on_c, 0, 79, 72
2, 66284, Note_off_c, 0, 79, 0
2, 66288, Note_on_c, 0, 81, 73
2, 66332, Note_off_c, 0, 81, 0
2, 66336, Note_on_c, 0, 83, 75
2, 66380, Note_off_c, 0, 83, 0
2, 66384, Note_on_c, 0, 85, 76
2, 66428, Note_off_c, 0, 85, 0
2, 66432, Note_on_c, 0, 86, 78
2, 66476, Note_off_c, 0, 86, 0
2, 66480, Note_on_c, 0, 88, 79
2, 66524, Note_off_c, 0, 88, 0
2, 66528, Note_on_c, 0, 89, 81
2, 66572, Note_off_c, 0, 89, 0
2, 66576, Note_on_c, 0, 88, 82
2, 66620, Note_off_c, 0, 88, 0
2, 66624, Note_on_c, 0, 86, 84
2, 66668, Note_off_c, 0, 86, 0
2, 66672, Note_on_c, 0, 84, 85
2, 66716, Note_off_c, 0, 84, 0
2, 66720, Note_on_c, 0, 83, 87
2, 66764, Note_off_c, 0, 83, 0
2, 66768, Note_on_c, 0, 81, 88
2, 66812, Note_off_c, 0, 81, 0
2, 66816, Note_on_c, 0, 67, 90
2, 66832, Note_on_c, 0, 72, 90
2, 66852, Note_on_c, 0, 76, 90
2, 66872, Note_on_c, 0, 79, 90
2, 67196, Note_off_c, 0, 67, 0
2, 67212, Note_off_c, 0, 72, 0
2, 67968, Note_on_c, 0, 79, 75
2, 67968, Note_on_c, 0, 76, 75
2, 68000, Note_off_c, 0, 76, 0
2, 68020, Note_off_c, 0, 79, 0
2, 68060, Note_off_c, 0, 79, 0
2, 68060, Note_off_c, 0, 76, 0
2, 68064, Note_on_c, 0, 81, 75
2, 68064, Note_on_c, 0, 78, 75
2, 68064, Note_on_c, 0, 75, 75
2, 68156, Note_off_c, 0, 81, 0
2, 68156, Note_off_c, 0, 78, 0
2, 68156, Note_off_c, 0, 75, 0
2, 68160, Note_on_c, 0, 77, 75
2, 68160, Note_on_c, 0, 74, 75
2, 68160, Note_on_c, 0, 83, 75
2, 68252, Note_off_c, 0, 77, 0
2, 68252, Note_off_c, 0, 74, 0
2, 68252, Note_off_c, 0, 83, 0
2, 68256, Note_on_c, 0, 84, 75
2, 68256, Note_on_c, 0, 76, 75
2, 68256, Note_on_c, 0, 72, 75
2, 68348, Note_off_c, 0, 84, 0
2, 68348, Note_off_c, 0, 76, 0
2, 68348, Note_off_c, 0, 72, 0
2, 68352, Note_on_c, 0, 72, 90
2, 68352, Note_on_c, 0, 76, 90
2, 68376, Note_off_c, 0, 76, 0
2, 68376, Note_on_c, 0, 74, 90
2, 68400, Note_off_c, 0, 74, 0
2, 68400, Note_on_c, 0, 76, 90
2, 68424, Note_off_c, 0, 76, 0
2, 68424, Note_on_c, 0, 74, 90
2, 68448, Note_off_c, 0, 74, 0
2, 68448, Note_on_c, 0, 76, 90
2, 68472, Note_off_c, 0, 76, 0
2, 68472, Note_on_c, 0, 74, 90
2, 68496, Note_off_c, 0, 74, 0
2, 68496, Note_on_c, 0, 76, 90
2, 68520, Note_off_c, 0, 76, 0
2, 68520, Note_on_c, 0, 74, 90
2, 68544, Note_off_c, 0, 74, 0
2, 68544, Note_on_c, 0, 76, 90
2, 68568, Note_off_c, 0, 76, 0
2, 68568, Note_on_c, 0, 74, 90
2, 68592, Note_off_c, 0, 74, 0
2, 68592, Note_on_c, 0, 76, 90
2, 68616, Note_off_c, 0, 76, 0
2, 68616, Note_on_c, 0, 74, 90
2, 68640, Note_off_c, 0, 74, 0
2, 68640, Note_on_c, 0, 76, 90
2, 68664, Note_off_c, 0, 76, 0
2, 68664, Note_on_c, 0, 74, 90
2, 68688, Note_off_c, 0, 74, 0
2, 68688, Note_on_c, 0, 76, 90
2, 68712, Note_off_c, 0, 76, 0
2, 68712, Note_on_c, 0, 74, 90
2, 68732, Note_off_c, 0, 72, 0
2, 68736, Note_off_c, 0, 74, 0
2, 68736, Note_on_c, 0, 71, 90
2, 68736, Note_on_c, 0, 76, 90
2, 68760, Note_off_c, 0, 76, 0
2, 68760, Note_on_c, 0, 74, 90
2, 68784, Note_off_c, 0, 74, 0
2, 68784, Note_on_c, 0, 76, 90
2, 68808, Note_off_c, 0, 76, 0
2, 68808, Note_on_c, 0, 74, 90
2, 68832, Note_off_c, 0, 74, 0
2, 68832, Note_on_c, 0, 76, 90
2, 68856, Note_off_c, 0, 76, 0
2, 68856, Note_on_c, 0, 74, 90
2, 68880, Note_off_c, 0, 74, 0
2, 68880, Note_on_c, 0, 76, 90
2, 68904, Note_off_c, 0, 76, 0
2, 68904, Note_on_c, 0, 74, 90
2, 68928, Note_off_c, 0, 74, 0
2, 68928, Note_on_c, 0, 72, 90
2, 69020, Note_off_c, 0, 72, 0
2, 69024, Note_on_c, 0, 74, 90
2, 69116, Note_off_c, 0, 71, 0
2, 69116, Note_off_c, 0, 74, 0
2, 69120, Note_on_c, 0, 72, 60
2, 69212, Note_off_c, 0, 72, 0
2, 69216, Note_on_c, 0, 72, 60
2, 69308, Note_off_c, 0, 72, 0
2, 69312, Note_on_c, 0, 74, 60
2, 69404, Note_off_c, 0, 74, 0
2, 69408, Note_on_c, 0, 76, 60
2, 69500, Note_off_c, 0, 76, 0
2, 69504, Note_on_c, 0, 77, 60
2, 69596, Note_off_c, 0, 77, 0
2, 69600, Note_on_c, 0, 79, 60
2, 69644, Note_off_c, 0, 79, 0
2, 69648, Note_on_c, 0, 81, 60
2, 69692, Note_off_c, 0, 81, 0
2, 69696, Note_on_c, 0, 79, 60
2, 69740, Note_off_c, 0, 79, 0
2, 69744, Note_on_c, 0, 77, 60
2, 69788, Note_off_c, 0, 77, 0
2, 69792, Note_on_c, 0, 76, 60
2, 69836, Note_off_c, 0, 76, 0
2, 69840, Note_on_c, 0, 74, 60
2, 69884, Note_off_c, 0, 74, 0
2, 69888, Note_on_c, 0, 72, 60
2, 70076, Note_off_c, 0, 72, 0
2, 70080, Note_on_c, 0, 72, 60
2, 70104, Note_off_c, 0, 72, 0
2, 70104, Note_on_c, 0, 71, 60
2, 70128, Note_off_c, 0, 71, 0
2, 70128, Note_on_c, 0, 72, 60
2, 70152, Note_off_c, 0, 72, 0
2, 70152, Note_on_c, 0, 71, 60
2, 70176, Note_off_c, 0, 71, 0
2, 70176, Note_on_c, 0, 72, 60
2, 70200, Note_off_c, 0, 72, 0
2, 70200, Note_on_c, 0, 71, 60
2, 70224, Note_off_c, 0, 71, 0
2, 70224, Note_on_c, 0, 69, 60
2, 70248, Note_off_c, 0, 69, 0
2, 70248, Note_on_c, 0, 71, 60
2, 70272, Note_on_c, 0, 72, 75
2, 70276, Note_off_c, 0, 71, 0
2, 70364, Note_off_c, 0, 72, 0
2, 70368, Note_on_c, 0, 60, 75
2, 70412, Note_off_c, 0, 60, 0
2, 70416, Note_on_c, 0, 64, 75
2, 70460, Note_off_c, 0, 64, 0
2, 70464, Note_on_c, 0, 62, 75
2, 70508, Note_off_c, 0, 62, 0
2, 70512, Note_on_c, 0, 65, 75
2, 70556, Note_off_c, 0, 65, 0
2, 70560, Note_on_c, 0, 64, 75
2, 70604, Note_off_c, 0, 64, 0
2, 70608, Note_on_c, 0, 67, 75
2, 70652, Note_off_c, 0, 67, 0
2, 70656, Note_on_c, 0, 65, 75
2, 70748, Note_off_c, 0, 65, 0
2, 70752, Note_on_c, 0, 67, 75
2, 70796, Note_off_c, 0, 67, 0
2, 70800, Note_on_c, 0, 69, 75
2, 70844, Note_off_c, 0, 69, 0
2, 70848, Note_on_c, 0, 67, 75
2, 70892, Note_off_c, 0, 67, 0
2, 70896, Note_on_c, 0, 65, 75
2, 70940, Note_off_c, 0, 65, 0
2, 70944, Note_on_c, 0, 64, 75
2, 70988, Note_off_c, 0, 64, 0
2, 70992, Note_on_c, 0, 62, 75
2, 71036, Note_off_c, 0, 62, 0
2, 71040, Note_on_c, 0, 60, 75
2, 71228, Note_off_c, 0, 60, 0
2, 72480, Note_on_c, 0, 64, 67
2, 72572, Note_off_c, 0, 64, 0
2, 72576, Note_on_c, 0, 67, 75
2, 72764, Note_off_c, 0, 67, 0
2, 72768, Note_on_c, 0, 67, 75
2, 72956, Note_off_c, 0, 67, 0
2, 72960, Note_on_c, 0, 67, 75
2, 73340, Note_off_c, 0, 67, 0
2, 73344, Note_on_c, 0, 69, 75
2, 73436, Note_off_c, 0, 69, 0
2, 73440, Note_on_c, 0, 67, 75
2, 73532, Note_off_c, 0, 67, 0
2, 73536, Note_on_c, 0, 65, 75
2, 73628, Note_off_c, 0, 65, 0
2, 73632, Note_on_c, 0, 64, 75
2, 73724, Note_off_c, 0, 64, 0
2, 73728, Note_on_c, 0, 64, 75
2, 73916, Note_off_c, 0, 64, 0
2, 73920, Note_on_c, 0, 62, 75
2, 74108, Note_off_c, 0, 62, 0
2, 74112, Note_on_c, 0, 62, 75
2, 74492, Note_off_c, 0, 62, 0
2, 74496, Note_on_c, 0, 67, 75
2, 74588, Note_off_c, 0, 67, 0
2, 74592, Note_on_c, 0, 65, 75
2, 74684, Note_off_c, 0, 65, 0
2, 74688, Note_on_c, 0, 64, 75
2, 74780, Note_off_c, 0, 64, 0
2, 74784, Note_on_c, 0, 62, 75
2, 74876, Note_off_c, 0, 62, 0
2, 74880, Note_on_c, 0, 62, 75
2, 74972, Note_off_c, 0, 62, 0
2, 74976, Note_on_c, 0, 60, 75
2, 75068, Note_off_c, 0, 60, 0
2, 75072, Note_on_c, 0, 60, 75
2, 75260, Note_off_c, 0, 60, 0
2, 75264, Note_on_c, 0, 60, 75
2, 75356, Note_off_c, 0, 60, 0
2, 75360, Note_on_c, 0, 62, 75
2, 75404, Note_off_c, 0, 62, 0
2, 75408, Note_on_c, 0, 60, 75
2, 75452, Note_off_c, 0, 60, 0
2, 75456, Note_on_c, 0, 59, 75
2, 75548, Note_off_c, 0, 59, 0
2, 75552, Note_on_c, 0, 60, 75
2, 75644, Note_off_c, 0, 60, 0
2, 75648, Note_on_c, 0, 64, 75
2, 75740, Note_off_c, 0, 64, 0
2, 75744, Note_on_c, 0, 62, 75
2, 75836, Note_off_c, 0, 62, 0
2, 75840, Note_on_c, 0, 60, 75
2, 75932, Note_off_c, 0, 60, 0
2, 75936, Note_on_c, 0, 59, 75
2, 76028, Note_off_c, 0, 59, 0
2, 76032, Note_on_c, 0, 60, 75
2, 76124, Note_off_c, 0, 60, 0
2, 76128, Note_on_c, 0, 62, 75
2, 76160, Note_off_c, 0, 62, 0
2, 76160, Note_on_c, 0, 60, 75
2, 76192, Note_off_c, 0, 60, 0
2, 76192, Note_on_c, 0, 59, 75
2, 76224, Note_off_c, 0, 59, 0
2, 76224, Note_on_c, 0, 60, 75
2, 76316, Note_off_c, 0, 60, 0
2, 76320, Note_on_c, 0, 79, 75
2, 76412, Note_off_c, 0, 79, 0
2, 76416, Note_on_c, 0, 81, 82
2, 76440, Note_off_c, 0, 81, 0
2, 76440, Note_on_c, 0, 79, 82
2, 76464, Note_off_c, 0, 79, 0
2, 76464, Note_on_c, 0, 81, 82
2, 76488, Note_off_c, 0, 81, 0
2, 76488, Note_on_c, 0, 79, 82
2, 76512, Note_off_c, 0, 79, 0
2, 76512, Note_on_c, 0, 81, 82
2, 76536, Note_off_c, 0, 81, 0
2, 76536, Note_on_c, 0, 79, 82
2, 76560, Note_off_c, 0, 79, 0
2, 76560, Note_on_c, 0, 81, 82
2, 76584, Note_off_c, 0, 81, 0
2, 76584, Note_on_c, 0, 79, 82
2, 76608, Note_off_c, 0, 79, 0
2, 76608, Note_on_c, 0, 81, 82
2, 76632, Note_off_c, 0, 81, 0
2, 76632, Note_on_c, 0, 79, 82
2, 76656, Note_off_c, 0, 79, 0
2, 76656, Note_on_c, 0, 81, 82
2, 76680, Note_off_c, 0, 81, 0
2, 76680, Note_on_c, 0, 79, 82
2, 76704, Note_off_c, 0, 79, 0
2, 76704, Note_on_c, 0, 78, 82
2, 76748, Note_off_c, 0, 78, 0
2, 76752, Note_on_c, 0, 79, 82
2, 76796, Note_off_c, 0, 79, 0
2, 76800, Note_on_c, 0, 81, 82
2, 76892, Note_off_c, 0, 81, 0
2, 76896, Note_on_c, 0, 79, 82
2, 76988, Note_off_c, 0, 79, 0
2, 76992, Note_on_c, 0, 77, 82
2, 77084, Note_off_c, 0, 77, 0
2, 77088, Note_on_c, 0, 76, 82
2, 77180, Note_off_c, 0, 76, 0
2, 77184, Note_on_c, 0, 74, 75
2, 77260, Note_on_c, 0, 80, 75
2, 77264, Note_off_c, 0, 74, 0
2, 77280, Note_off_c, 0, 80, 0
2, 77280, Note_on_c, 0, 81, 75
2, 77356, Note_on_c, 0, 80, 75
2, 77360, Note_off_c, 0, 81, 0
2, 77376, Note_off_c, 0, 80, 0
2, 77376, Note_on_c, 0, 77, 75
2, 77456, Note_off_c, 0, 77, 0
2, 77456, Note_on_c, 0, 76, 75
2, 77476, Note_off_c, 0, 76, 0
2, 77476, Note_on_c, 0, 74, 75
2, 77556, Note_off_c, 0, 74, 0
2, 77568, Note_on_c, 0, 72, 75
2, 77660, Note_off_c, 0, 72, 0
2, 77664, Note_on_c, 0, 74, 75
2, 77696, Note_off_c, 0, 74, 0
2, 77696, Note_on_c, 0, 72, 75
2, 77728, Note_off_c, 0, 72, 0
2, 77728, Note_on_c, 0, 71, 75
2, 77760, Note_off_c, 0, 71, 0
2, 77760, Note_on_c, 0, 72, 75
2, 77852, Note_off_c, 0, 72, 0
2, 77856, Note_on_c, 0, 76, 75
2, 77948, Note_off_c, 0, 76, 0
2, 77952, Note_on_c, 0, 76, 75
2, 78044, Note_off_c, 0, 76, 0
2, 78048, Note_on_c, 0, 74, 75
2, 78140, Note_off_c, 0, 74, 0
2, 78144, Note_on_c, 0, 72, 75
2, 78236, Note_off_c, 0, 72, 0
2, 78240, Note_on_c, 0, 71, 75
2, 78332, Note_off_c, 0, 71, 0
2, 78336, Note_on_c, 0, 72, 60
2, 78716, Note_off_c, 0, 72, 0
2, 78912, Note_on_c, 0, 62, 75
2, 78936, Note_off_c, 0, 62, 0
2, 78936, Note_on_c, 0, 60, 75
2, 78960, Note_off_c, 0, 60, 0
2, 78960, Note_on_c, 0, 62, 75
2, 78984, Note_off_c, 0, 62, 0
2, 78984, Note_on_c, 0, 60, 75
2, 79008, Note_off_c, 0, 60, 0
2, 79008, Note_on_c, 0, 62, 75
2, 79032, Note_off_c, 0, 62, 0
2, 79032, Note_on_c, 0, 60, 75
2, 79056, Note_off_c, 0, 60, 0
2, 79056, Note_on_c, 0, 59, 75
2, 79080, Note_off_c, 0, 59, 0
2, 79080, Note_on_c, 0, 60, 75
2, 79104, Note_off_c, 0, 60, 0
2, 79104, Note_on_c, 0, 63, 75
2, 79292, Note_off_c, 0, 63, 0
2, 79296, Note_on_c, 0, 67, 75
2, 79484, Note_off_c, 0, 67, 0
2, 79488, Note_on_c, 0, 67, 90
2, 79488, Note_on_c, 0, 60, 90
2, 79488, Note_on_c, 0, 57, 90
2, 79676, Note_off_c, 0, 67, 0
2, 79680, Note_on_c, 0, 66, 90
2, 79868, Note_off_c, 0, 60, 0
2, 79868, Note_off_c, 0, 57, 0
2, 79868, Note_off_c, 0, 66, 0
2, 80064, Note_on_c, 0, 81, 82
2, 80064, Note_on_c, 0, 78, 82
2, 80252, Note_off_c, 0, 81, 0
2, 80252, Note_off_c, 0, 78, 0
2, 80256, Note_on_c, 0, 84, 75
2, 80256, Note_on_c, 0, 81, 75
2, 80444, Note_off_c, 0, 84, 0
2, 80444, Note_off_c, 0, 81, 0
2, 80448, Note_on_c, 0, 72, 75
2, 80448, Note_on_c, 0, 69, 75
2, 80636, Note_off_c, 0, 72, 0
2, 80636, Note_off_c, 0, 69, 0
2, 80640, Note_on_c, 0, 74, 60
2, 80684, Note_off_c, 0, 74, 0
2, 80688, Note_on_c, 0, 72, 60
2, 80688, Note_on_c, 0, 69, 60
2, 80832, Note_on_c, 0, 70, 60
2, 80832, Note_on_c, 0, 67, 60
2, 80876, Note_off_c, 0, 72, 0
2, 80876, Note_off_c, 0, 69, 0
2, 81020, Note_off_c, 0, 70, 0
2, 81020, Note_off_c, 0, 67, 0
2, 81216, Note_on_c, 0, 62, 75
2, 81404, Note_off_c, 0, 62, 0
2, 81408, Note_on_c, 0, 67, 75
2, 81596, Note_off_c, 0, 67, 0
2, 81600, Note_on_c, 0, 70, 75
2, 81788, Note_off_c, 0, 70, 0
2, 81792, Note_on_c, 0, 74, 90
2, 81792, Note_on_c, 0, 67, 90
2, 81792, Note_on_c, 0, 64, 90
2, 81980, Note_off_c, 0, 74, 0
2, 81984, Note_on_c, 0, 73, 90
2, 82172, Note_off_c, 0, 67, 0
2, 82172, Note_off_c, 0, 64, 0
2, 82172, Note_off_c, 0, 73, 0
2, 82368, Note_on_c, 0, 76, 82
2, 82368, Note_on_c, 0, 73, 82
2, 82556, Note_off_c, 0, 76, 0
2, 82556, Note_off_c, 0, 73, 0
2, 82560, Note_on_c, 0, 79, 75
2, 82560, Note_on_c, 0, 76, 75
2, 82748, Note_off_c, 0, 79, 0
2, 82748, Note_off_c, 0, 76, 0
2, 82752, Note_on_c, 0, 67, 75
2, 82752, Note_on_c, 0, 64, 75
2, 82940, Note_off_c, 0, 67, 0
2, 82940, Note_off_c, 0, 64, 0
2, 82944, Note_on_c, 0, 64, 60
2, 82944, Note_on_c, 0, 69, 60
2, 82968, Note_off_c, 0, 69, 0
2, 82968, Note_on_c, 0, 67, 60
2, 82992, Note_off_c, 0, 67, 0
2, 82992, Note_on_c, 0, 69, 60
2, 83016, Note_off_c, 0, 69, 0
2, 83016, Note_on_c, 0, 67, 60
2, 83040, Note_off_c, 0, 67, 0
2, 83040, Note_on_c, 0, 69, 60
2, 83064, Note_off_c, 0, 69, 0
2, 83064, Note_on_c, 0, 67, 60
2, 83088, Note_off_c, 0, 67, 0
2, 83088, Note_on_c, 0, 65, 60
2, 83112, Note_off_c, 0, 65, 0
2, 83112, Note_on_c, 0, 67, 60
2, 83132, Note_off_c, 0, 64, 0
2, 83136, Note_off_c, 0, 67, 0
2, 83136, Note_on_c, 0, 65, 60
2, 83136, Note_on_c, 0, 62, 60
2, 83324, Note_off_c, 0, 65, 0
2, 83324, Note_off_c, 0, 62, 0
2, 83520, Note_on_c, 0, 76, 67
2, 83544, Note_off_c, 0, 76, 0
2, 83544, Note_on_c, 0, 74, 67
2, 83568, Note_off_c, 0, 74, 0
2, 83568, Note_on_c, 0, 76, 67
2, 83592, Note_off_c, 0, 76, 0
2, 83592, Note_on_c, 0, 74, 67
2, 83616, Note_off_c, 0, 74, 0
2, 83616, Note_on_c, 0, 76, 67
2, 83640, Note_off_c, 0, 76, 0
2, 83640, Note_on_c, 0, 74, 67
2, 83664, Note_off_c, 0, 74, 0
2, 83664, Note_on_c, 0, 73, 67
2, 83688, Note_off_c, 0, 73, 0
2, 83688, Note_on_c, 0, 74, 67
2, 83712, Note_off_c, 0, 74, 0
2, 83712, Note_on_c, 0, 77, 75
2, 83900, Note_off_c, 0, 77, 0
2, 83904, Note_on_c, 0, 70, 75
2, 84092, Note_off_c, 0, 70, 0
2, 84096, Note_on_c, 0, 65, 79
2, 84096, Note_on_c, 0, 62, 79
2, 84096, Note_on_c, 0, 69, 79
2, 84284, Note_off_c, 0, 69, 0
2, 84288, Note_on_c, 0, 68, 81
2, 84476, Note_off_c, 0, 65, 0
2, 84476, Note_off_c, 0, 62, 0
2, 84476, Note_off_c, 0, 68, 0
2, 84672, Note_on_c, 0, 76, 82
2, 84696, Note_off_c, 0, 76, 0
2, 84696, Note_on_c, 0, 74, 82
2, 84720, Note_off_c, 0, 74, 0
2, 84720, Note_on_c, 0, 76, 82
2, 84744, Note_off_c, 0, 76, 0
2, 84744, Note_on_c, 0, 74, 82
2, 84768, Note_off_c, 0, 74, 0
2, 84768, Note_on_c, 0, 76, 82
2, 84792, Note_off_c, 0, 76, 0
2, 84792, Note_on_c, 0, 74, 82
2, 84816, Note_off_c, 0, 74, 0
2, 84816, Note_on_c, 0, 73, 82
2, 84840, Note_off_c, 0, 73, 0
2, 84840, Note_on_c, 0, 74, 82
2, 84864, Note_off_c, 0, 74, 0
2, 84864, Note_on_c, 0, 77, 85
2, 85052, Note_off_c, 0, 77, 0
2, 85056, Note_on_c, 0, 68, 85
2, 85244, Note_off_c, 0, 68, 0
2, 85248, Note_on_c, 0, 69, 90
2, 85308, Note_off_c, 0, 69, 0
2, 85312, Note_on_c, 0, 81, 90
2, 85372, Note_off_c, 0, 81, 0
2, 85376, Note_on_c, 0, 69, 90
2, 85436, Note_off_c, 0, 69, 0
2, 85440, Note_on_c, 0, 69, 90
2, 85500, Note_off_c, 0, 69, 0
2, 85504, Note_on_c, 0, 69, 90
2, 85564, Note_off_c, 0, 69, 0
2, 85568, Note_on_c, 0, 69, 90
2, 85628, Note_off_c, 0, 69, 0
2, 85632, Note_on_c, 0, 69, 90
2, 85692, Note_off_c, 0, 69, 0
2, 85696, Note_on_c, 0, 81, 90
2, 85756, Note_off_c, 0, 81, 0
2, 85760, Note_on_c, 0, 69, 90
2, 85820, Note_off_c, 0, 69, 0
2, 85824, Note_on_c, 0, 69, 90
2, 85884, Note_off_c, 0, 69, 0
2, 85888, Note_on_c, 0, 69, 90
2, 85948, Note_off_c, 0, 69, 0
2, 85952, Note_on_c, 0, 69, 90
2, 86012, Note_off_c, 0, 69, 0
2, 86016, Note_on_c, 0, 69, 90
2, 86076, Note_off_c, 0, 69, 0
2, 86080, Note_on_c, 0, 81, 90
2, 86140, Note_off_c, 0, 81, 0
2, 86144, Note_on_c, 0, 69, 90
2, 86204, Note_off_c, 0, 69, 0
2, 86208, Note_on_c, 0, 69, 90
2, 86268, Note_off_c, 0, 69, 0
2, 86272, Note_on_c, 0, 69, 90
2, 86332, Note_off_c, 0, 69, 0
2, 86336, Note_on_c, 0, 69, 90
2, 86396, Note_off_c, 0, 69, 0
2, 86400, Note_on_c, 0, 69, 75
2, 86400, Note_on_c, 0, 70, 75
2, 86460, Note_off_c, 0, 69, 0
2, 86460, Note_off_c, 0, 70, 0
2, 86464, Note_on_c, 0, 82, 75
2, 86524, Note_off_c, 0, 82, 0
2, 86528, Note_on_c, 0, 70, 75
2, 86528, Note_on_c, 0, 69, 75
2, 86588, Note_off_c, 0, 70, 0
2, 86588, Note_off_c, 0, 69, 0
2, 86592, Note_on_c, 0, 70, 75
2, 86592, Note_on_c, 0, 69, 75
2, 86652, Note_off_c, 0, 70, 0
2, 86652, Note_off_c, 0, 69, 0
2, 86656, Note_on_c, 0, 70, 75
2, 86656, Note_on_c, 0, 69, 75
2, 86716, Note_off_c, 0, 70, 0
2, 86716, Note_off_c, 0, 69, 0
2, 86720, Note_on_c, 0, 70, 75
2, 86720, Note_on_c, 0, 69, 75
2, 86780, Note_off_c, 0, 70, 0
2, 86780, Note_off_c, 0, 69, 0
2, 86784, Note_on_c, 0, 70, 75
2, 86784, Note_on_c, 0, 67, 75
2, 86844, Note_off_c, 0, 70, 0
2, 86844, Note_off_c, 0, 67, 0
2, 86848, Note_on_c, 0, 82, 75
2, 86908, Note_off_c, 0, 82, 0
2, 86912, Note_on_c, 0, 70, 75
2, 86912, Note_on_c, 0, 67, 75
2, 86972, Note_off_c, 0, 70, 0
2, 86972, Note_off_c, 0, 67, 0
2, 86976, Note_on_c, 0, 70, 75
2, 86976, Note_on_c, 0, 67, 75
2, 87036, Note_off_c, 0, 70, 0
2, 87036, Note_off_c, 0, 67, 0
2, 87040, Note_on_c, 0, 70, 75
2, 87040, Note_on_c, 0, 67, 75
2, 87100, Note_off_c, 0, 70, 0
2, 87100, Note_off_c, 0, 67, 0
2, 87104, Note_on_c, 0, 70, 75
2, 87104, Note_on_c, 0, 67, 75
2, 87164, Note_off_c, 0, 70, 0
2, 87164, Note_off_c, 0, 67, 0
2, 87168, Note_on_c, 0, 70, 75
2, 87168, Note_on_c, 0, 67, 75
2, 87228, Note_off_c, 0, 70, 0
2, 87228, Note_off_c, 0, 67, 0
2, 87232, Note_on_c, 0, 82, 75
2, 87292, Note_off_c, 0, 82, 0
2, 87296, Note_on_c, 0, 70, 75
2, 87296, Note_on_c, 0, 67, 75
2, 87356, Note_off_c, 0, 70, 0
2, 87356, Note_off_c, 0, 67, 0
2, 87360, Note_on_c, 0, 70, 75
2, 87360, Note_on_c, 0, 67, 75
2, 87420, Note_off_c, 0, 70, 0
2, 87420, Note_off_c, 0, 67, 0
2, 87424, Note_on_c, 0, 70, 75
2, 87424, Note_on_c, 0, 67, 75
2, 87484, Note_off_c, 0, 70, 0
2, 87484, Note_off_c, 0, 67, 0
2, 87488, Note_on_c, 0, 70, 75
2, 87488, Note_on_c, 0, 67, 75
2, 87548, Note_off_c, 0, 70, 0
2, 87548, Note_off_c, 0, 67, 0
2, 87552, Note_on_c, 0, 69, 75
2, 87552, Note_on_c, 0, 67, 75
2, 87612, Note_off_c, 0, 69, 0
2, 87612, Note_off_c, 0, 67, 0
2, 87616, Note_on_c, 0, 81, 75
2, 87676, Note_off_c, 0, 81, 0
2, 87680, Note_on_c, 0, 69, 75
2, 87680, Note_on_c, 0, 67, 75
2, 87740, Note_off_c, 0, 69, 0
2, 87740, Note_off_c, 0, 67, 0
2, 87744, Note_on_c, 0, 69, 75
2, 87744, Note_on_c, 0, 67, 75
2, 87804, Note_off_c, 0, 69, 0
2, 87804, Note_off_c, 0, 67, 0
2, 87808, Note_on_c, 0, 69, 75
2, 87808, Note_on_c, 0, 67, 75
2, 87868, Note_off_c, 0, 69, 0
2, 87868, Note_off_c, 0, 67, 0
2, 87872, Note_on_c, 0, 69, 75
2, 87872, Note_on_c, 0, 67, 75
2, 87932, Note_off_c, 0, 69, 0
2, 87932, Note_off_c, 0, 67, 0
2, 87936, Note_on_c, 0, 69, 75
2, 87936, Note_on_c, 0, 65, 75
2, 87996, Note_off_c, 0, 69, 0
2, 87996, Note_off_c, 0, 65, 0
2, 88000, Note_on_c, 0, 81, 75
2, 88060, Note_off_c, 0, 81, 0
2, 88064, Note_on_c, 0, 69, 75
2, 88064, Note_on_c, 0, 65, 75
2, 88124, Note_off_c, 0, 69, 0
2, 88124, Note_off_c, 0, 65, 0
2, 88128, Note_on_c, 0, 69, 75
2, 88128, Note_on_c, 0, 65, 75
2, 88188, Note_off_c, 0, 69, 0
2, 88188, Note_off_c, 0, 65, 0
2, 88192, Note_on_c, 0, 69, 75
2, 88192, Note_on_c, 0, 65, 75
2, 88252, Note_off_c, 0, 69, 0
2, 88252, Note_off_c, 0, 65, 0
2, 88256, Note_on_c, 0, 69, 75
2, 88256, Note_on_c, 0, 65, 75
2, 88316, Note_off_c, 0, 69, 0
2, 88316, Note_off_c, 0, 65, 0
2, 88320, Note_on_c, 0, 69, 75
2, 88320, Note_on_c, 0, 65, 75
2, 88380, Note_off_c, 0, 69, 0
2, 88380, Note_off_c, 0, 65, 0
2, 88384, Note_on_c, 0, 81, 75
2, 88444, Note_off_c, 0, 81, 0
2, 88448, Note_on_c, 0, 69, 75
2, 88448, Note_on_c, 0, 65, 75
2, 88508, Note_off_c, 0, 69, 0
2, 88508, Note_off_c, 0, 65, 0
2, 88512, Note_on_c, 0, 69, 75
2, 88512, Note_on_c, 0, 65, 75
2, 88572, Note_off_c, 0, 69, 0
2, 88572, Note_off_c, 0, 65, 0
2, 88576, Note_on_c, 0, 69, 75
2, 88576, Note_on_c, 0, 65, 75
2, 88636, Note_off_c, 0, 69, 0
2, 88636, Note_off_c, 0, 65, 0
2, 88640, Note_on_c, 0, 69, 75
2, 88640, Note_on_c, 0, 65, 75
2, 88700, Note_off_c, 0, 69, 0
2, 88700, Note_off_c, 0, 65, 0
2, 88704, Note_on_c, 0, 67, 75
2, 88704, Note_on_c, 0, 65, 75
2, 88764, Note_off_c, 0, 67, 0
2, 88764, Note_off_c, 0, 65, 0
2, 88768, Note_on_c, 0, 79, 75
2, 88828, Note_off_c, 0, 79, 0
2, 88832, Note_on_c, 0, 67, 75
2, 88832, Note_on_c, 0, 65, 75
2, 88892, Note_off_c, 0, 67, 0
2, 88892, Note_off_c, 0, 65, 0
2, 88896, Note_on_c, 0, 67, 75
2, 88896, Note_on_c, 0, 65, 75
2, 88956, Note_off_c, 0, 67, 0
2, 88956, Note_off_c, 0, 65, 0
2, 88960, Note_on_c, 0, 67, 75
2, 88960, Note_on_c, 0, 65, 75
2, 89020, Note_off_c, 0, 67, 0
2, 89020, Note_off_c, 0, 65, 0
2, 89024, Note_on_c, 0, 67, 75
2, 89024, Note_on_c, 0, 65, 75
2, 89084, Note_off_c, 0, 67, 0
2, 89084, Note_off_c, 0, 65, 0
2, 89088, Note_on_c, 0, 67, 75
2, 89088, Note_on_c, 0, 65, 75
2, 89148, Note_off_c, 0, 67, 0
2, 89148, Note_off_c, 0, 65, 0
2, 89152, Note_on_c, 0, 79, 75
2, 89212, Note_off_c, 0, 79, 0
2, 89216, Note_on_c, 0, 67, 75
2, 89216, Note_on_c, 0, 65, 75
2, 89276, Note_off_c, 0, 67, 0
2, 89276, Note_off_c, 0, 65, 0
2, 89280, Note_on_c, 0, 67, 75
2, 89280, Note_on_c, 0, 65, 75
2, 89340, Note_off_c, 0, 67, 0
2, 89340, Note_off_c, 0, 65, 0
2, 89344, Note_on_c, 0, 67, 75
2, 89344, Note_on_c, 0, 65, 75
2, 89404, Note_off_c, 0, 67, 0
2, 89404, Note_off_c, 0, 65, 0
2, 89408, Note_on_c, 0, 67, 75
2, 89408, Note_on_c, 0, 65, 75
2, 89468, Note_off_c, 0, 67, 0
2, 89468, Note_off_c, 0, 65, 0
2, 89472, Note_on_c, 0, 67, 75
2, 89472, Note_on_c, 0, 64, 75
2, 89532, Note_off_c, 0, 67, 0
2, 89532, Note_off_c, 0, 64, 0
2, 89536, Note_on_c, 0, 79, 75
2, 89596, Note_off_c, 0, 79, 0
2, 89600, Note_on_c, 0, 67, 75
2, 89600, Note_on_c, 0, 64, 75
2, 89660, Note_off_c, 0, 67, 0
2, 89660, Note_off_c, 0, 64, 0
2, 89664, Note_on_c, 0, 67, 75
2, 89664, Note_on_c, 0, 64, 75
2, 89724, Note_off_c, 0, 67, 0
2, 89724, Note_off_c, 0, 64, 0
2, 89728, Note_on_c, 0, 67, 75
2, 89728, Note_on_c, 0, 64, 75
2, 89788, Note_off_c, 0, 67, 0
2, 89788, Note_off_c, 0, 64, 0
2, 89792, Note_on_c, 0, 67, 75
2, 89792, Note_on_c, 0, 64, 75
2, 89852, Note_off_c, 0, 67, 0
2, 89852, Note_off_c, 0, 64, 0
2, 89856, Note_on_c, 0, 65, 75
2, 89856, Note_on_c, 0, 64, 75
2, 89916, Note_off_c, 0, 65, 0
2, 89916, Note_off_c, 0, 64, 0
2, 89920, Note_on_c, 0, 77, 75
2, 89980, Note_off_c, 0, 77, 0
2, 89984, Note_on_c, 0, 65, 75
2, 89984, Note_on_c, 0, 64, 75
2, 90044, Note_off_c, 0, 65, 0
2, 90044, Note_off_c, 0, 64, 0
2, 90048, Note_on_c, 0, 65, 75
2, 90048, Note_on_c, 0, 64, 75
2, 90108, Note_off_c, 0, 65, 0
2, 90108, Note_off_c, 0, 64, 0
2, 90112, Note_on_c, 0, 65, 75
2, 90112, Note_on_c, 0, 64, 75
2, 90172, Note_off_c, 0, 65, 0
2, 90172, Note_off_c, 0, 64, 0
2, 90176, Note_on_c, 0, 65, 75
2, 90176, Note_on_c, 0, 64, 75
2, 90236, Note_off_c, 0, 65, 0
2, 90236, Note_off_c, 0, 64, 0
2, 90240, Note_on_c, 0, 65, 75
2, 90240, Note_on_c, 0, 62, 75
2, 90300, Note_off_c, 0, 65, 0
2, 90300, Note_off_c, 0, 62, 0
2, 90304, Note_on_c, 0, 77, 75
2, 90364, Note_off_c, 0, 77, 0
2, 90368, Note_on_c, 0, 65, 75
2, 90368, Note_on_c, 0, 62, 75
2, 90428, Note_off_c, 0, 65, 0
2, 90428, Note_off_c, 0, 62, 0
2, 90432, Note_on_c, 0, 65, 75
2, 90432, Note_on_c, 0, 62, 75
2, 90492, Note_off_c, 0, 65, 0
2, 90492, Note_off_c, 0, 62, 0
2, 90496, Note_on_c, 0, 65, 75
2, 90496, Note_on_c, 0, 62, 75
2, 90556, Note_off_c, 0, 65, 0
2, 90556, Note_off_c, 0, 62, 0
2, 90560, Note_on_c, 0, 65, 75
2, 90560, Note_on_c, 0, 62, 75
2, 90620, Note_off_c, 0, 65, 0
2, 90620, Note_off_c, 0, 62, 0
2, 90624, Note_on_c, 0, 65, 75
2, 90624, Note_on_c, 0, 62, 75
2, 90684, Note_off_c, 0, 65, 0
2, 90684, Note_off_c, 0, 62, 0
2, 90688, Note_on_c, 0, 77, 75
2, 90748, Note_off_c, 0, 77, 0
2, 90752, Note_on_c, 0, 65, 75
2, 90752, Note_on_c, 0, 62, 75
2, 90812, Note_off_c, 0, 65, 0
2, 90812, Note_off_c, 0, 62, 0
2, 90816, Note_on_c, 0, 65, 75
2, 90816, Note_on_c, 0, 62, 75
2, 90876, Note_off_c, 0, 65, 0
2, 90876, Note_off_c, 0, 62, 0
2, 90880, Note_on_c, 0, 65, 75
2, 90880, Note_on_c, 0, 62, 75
2, 90940, Note_off_c, 0, 65, 0
2, 90940, Note_off_c, 0, 62, 0
2, 90944, Note_on_c, 0, 65, 75
2, 90944, Note_on_c, 0, 62, 75
2, 91004, Note_off_c, 0, 65, 0
2, 91004, Note_off_c, 0, 62, 0
2, 91008, Note_on_c, 0, 63, 75
2, 91008, Note_on_c, 0, 62, 75
2, 91068, Note_off_c, 0, 63, 0
2, 91068, Note_off_c, 0, 62, 0
2, 91072, Note_on_c, 0, 75, 75
2, 91132, Note_off_c, 0, 75, 0
2, 91136, Note_on_c, 0, 63, 75
2, 91136, Note_on_c, 0, 62, 75
2, 91196, Note_off_c, 0, 63, 0
2, 91196, Note_off_c, 0, 62, 0
2, 91200, Note_on_c, 0, 63, 75
2, 91200, Note_on_c, 0, 62, 75
2, 91260, Note_off_c, 0, 63, 0
2, 91260, Note_off_c, 0, 62, 0
2, 91264, Note_on_c, 0, 63, 75
2, 91264, Note_on_c, 0, 62, 75
2, 91324, Note_off_c, 0, 63, 0
2, 91324, Note_off_c, 0, 62, 0
2, 91328, Note_on_c, 0, 63, 75
2, 91328, Note_on_c, 0, 62, 75
2, 91388, Note_off_c, 0, 63, 0
2, 91388, Note_off_c, 0, 62, 0
2, 91392, Note_on_c, 0, 63, 75
2, 91392, Note_on_c, 0, 60, 75
2, 91452, Note_off_c, 0, 63, 0
2, 91452, Note_off_c, 0, 60, 0
2, 91456, Note_on_c, 0, 75, 75
2, 91516, Note_off_c, 0, 75, 0
2, 91520, Note_on_c, 0, 63, 75
2, 91520, Note_on_c, 0, 60, 75
2, 91580, Note_off_c, 0, 63, 0
2, 91580, Note_off_c, 0, 60, 0
2, 91584, Note_on_c, 0, 63, 75
2, 91584, Note_on_c, 0, 60, 75
2, 91644, Note_off_c, 0, 63, 0
2, 91644, Note_off_c, 0, 60, 0
2, 91648, Note_on_c, 0, 63, 75
2, 91648, Note_on_c, 0, 60, 75
2, 91708, Note_off_c, 0, 63, 0
2, 91708, Note_off_c, 0, 60, 0
2, 91712, Note_on_c, 0, 63, 75
2, 91712, Note_on_c, 0, 60, 75
2, 91772, Note_off_c, 0, 63, 0
2, 91772, Note_off_c, 0, 60, 0
2, 91776, Note_on_c, 0, 63, 75
2, 91776, Note_on_c, 0, 60, 75
2, 91836, Note_off_c, 0, 63, 0
2, 91836, Note_off_c, 0, 60, 0
2, 91840, Note_on_c, 0, 75, 75
2, 91900, Note_off_c, 0, 75, 0
2, 91904, Note_on_c, 0, 63, 75
2, 91904, Note_on_c, 0, 60, 75
2, 91964, Note_off_c, 0, 63, 0
2, 91964, Note_off_c, 0, 60, 0
2, 91968, Note_on_c, 0, 63, 75
2, 91968, Note_on_c, 0, 60, 75
2, 92028, Note_off_c, 0, 63, 0
2, 92028, Note_off_c, 0, 60, 0
2, 92032, Note_on_c, 0, 63, 75
2, 92032, Note_on_c, 0, 60, 75
2, 92092, Note_off_c, 0, 63, 0
2, 92092, Note_off_c, 0, 60, 0
2, 92096, Note_on_c, 0, 63, 75
2, 92096, Note_on_c, 0, 60, 75
2, 92156, Note_off_c, 0, 63, 0
2, 92156, Note_off_c, 0, 60, 0
2, 92160, Note_on_c, 0, 62, 75
2, 92160, Note_on_c, 0, 60, 75
2, 92220, Note_off_c, 0, 62, 0
2, 92220, Note_off_c, 0, 60, 0
2, 92224, Note_on_c, 0, 74, 75
2, 92284, Note_off_c, 0, 74, 0
2, 92288, Note_on_c, 0, 62, 75
2, 92288, Note_on_c, 0, 60, 75
2, 92348, Note_off_c, 0, 62, 0
2, 92348, Note_off_c, 0, 60, 0
2, 92352, Note_on_c, 0, 62, 75
2, 92352, Note_on_c, 0, 60, 75
2, 92412, Note_off_c, 0, 62, 0
2, 92412, Note_off_c, 0, 60, 0
2, 92416, Note_on_c, 0, 62, 75
2, 92416, Note_on_c, 0, 60, 75
2, 92476, Note_off_c, 0, 62, 0
2, 92476, Note_off_c, 0, 60, 0
2, 92480, Note_on_c, 0, 62, 75
2, 92480, Note_on_c, 0, 60, 75
2, 92540, Note_off_c, 0, 62, 0
2, 92540, Note_off_c, 0, 60, 0
2, 92544, Note_on_c, 0, 62, 75
2, 92544, Note_on_c, 0, 60, 75
2, 92604, Note_off_c, 0, 62, 0
2, 92604, Note_off_c, 0, 60, 0
2, 92608, Note_on_c, 0, 74, 75
2, 92668, Note_off_c, 0, 74, 0
2, 92672, Note_on_c, 0, 62, 75
2, 92672, Note_on_c, 0, 60, 75
2, 92732, Note_off_c, 0, 62, 0
2, 92732, Note_off_c, 0, 60, 0
2, 92736, Note_on_c, 0, 62, 75
2, 92736, Note_on_c, 0, 60, 75
2, 92796, Note_off_c, 0, 62, 0
2, 92796, Note_off_c, 0, 60, 0
2, 92800, Note_on_c, 0, 62, 75
2, 92800, Note_on_c, 0, 60, 75
2, 92860, Note_off_c, 0, 62, 0
2, 92860, Note_off_c, 0, 60, 0
2, 92864, Note_on_c, 0, 62, 75
2, 92864, Note_on_c, 0, 60, 75
2, 92924, Note_off_c, 0, 62, 0
2, 92924, Note_off_c, 0, 60, 0
2, 92928, Note_on_c, 0, 62, 75
2, 92928, Note_on_c, 0, 58, 75
2, 92988, Note_off_c, 0, 62, 0
2, 92988, Note_off_c, 0, 58, 0
2, 92992, Note_on_c, 0, 74, 75
2, 93052, Note_off_c, 0, 74, 0
2, 93056, Note_on_c, 0, 62, 75
2, 93056, Note_on_c, 0, 58, 75
2, 93116, Note_off_c, 0, 62, 0
2, 93116, Note_off_c, 0, 58, 0
2, 93120, Note_on_c, 0, 62, 75
2, 93120, Note_on_c, 0, 58, 75
2, 93180, Note_off_c, 0, 62, 0
2, 93180, Note_off_c, 0, 58, 0
2, 93184, Note_on_c, 0, 62, 75
2, 93184, Note_on_c, 0, 58, 75
2, 93244, Note_off_c, 0, 62, 0
2, 93244, Note_off_c, 0, 58, 0
2, 93248, Note_on_c, 0, 62, 75
2, 93248, Note_on_c, 0, 58, 75
2, 93308, Note_off_c, 0, 62, 0
2, 93308, Note_off_c, 0, 58, 0
2, 93312, Note_on_c, 0, 60, 75
2, 93312, Note_on_c, 0, 58, 75
2, 93372, Note_off_c, 0, 60, 0
2, 93372, Note_off_c, 0, 58, 0
2, 93376, Note_on_c, 0, 72, 75
2, 93376, Note_on_c, 0, 70, 75
2, 93436, Note_off_c, 0, 72, 0
2, 93436, Note_off_c, 0, 70, 0
2, 93440, Note_on_c, 0, 72, 75
2, 93440, Note_on_c, 0, 70, 75
2, 93500, Note_off_c, 0, 72, 0
2, 93500, Note_off_c, 0, 70, 0
2, 93504, Note_on_c, 0, 72, 75
2, 93504, Note_on_c, 0, 69, 75
2, 93564, Note_off_c, 0, 72, 0
2, 93564, Note_off_c, 0, 69, 0
2, 93568, Note_on_c, 0, 72, 75
2, 93568, Note_on_c, 0, 69, 75
2, 93628, Note_off_c, 0, 72, 0
2, 93628, Note_off_c, 0, 69, 0
2, 93632, Note_on_c, 0, 72, 75
2, 93632, Note_on_c, 0, 69, 75
2, 93692, Note_off_c, 0, 72, 0
2, 93692, Note_off_c, 0, 69, 0
2, 93696, Note_on_c, 0, 72, 75
2, 93696, Note_on_c, 0, 69, 75
2, 93756, Note_off_c, 0, 72, 0
2, 93756, Note_off_c, 0, 69, 0
2, 93760, Note_on_c, 0, 70, 75
2, 93760, Note_on_c, 0, 67, 75
2, 93820, Note_off_c, 0, 70, 0
2, 93820, Note_off_c, 0, 67, 0
2, 93824, Note_on_c, 0, 74, 75
2, 93824, Note_on_c, 0, 70, 75
2, 93884, Note_off_c, 0, 74, 0
2, 93884, Note_off_c, 0, 70, 0
2, 93888, Note_on_c, 0, 74, 75
2, 93888, Note_on_c, 0, 70, 75
2, 93948, Note_off_c, 0, 74, 0
2, 93948, Note_off_c, 0, 70, 0
2, 93952, Note_on_c, 0, 72, 75
2, 93952, Note_on_c, 0, 69, 75
2, 94012, Note_off_c, 0, 72, 0
2, 94012, Note_off_c, 0, 69, 0
2, 94016, Note_on_c, 0, 72, 75
2, 94016, Note_on_c, 0, 69, 75
2, 94076, Note_off_c, 0, 72, 0
2, 94076, Note_off_c, 0, 69, 0
2, 94080, Note_on_c, 0, 72, 75
2, 94080, Note_on_c, 0, 69, 75
2, 94140, Note_off_c, 0, 72, 0
2, 94140, Note_off_c, 0, 69, 0
2, 94144, Note_on_c, 0, 70, 75
2, 94144, Note_on_c, 0, 67, 75
2, 94204, Note_off_c, 0, 70, 0
2, 94204, Note_off_c, 0, 67, 0
2, 94208, Note_on_c, 0, 70, 75
2, 94208, Note_on_c, 0, 67, 75
2, 94268, Note_off_c, 0, 70, 0
2, 94268, Note_off_c, 0, 67, 0
2, 94272, Note_on_c, 0, 70, 75
2, 94272, Note_on_c, 0, 67, 75
2, 94332, Note_off_c, 0, 70, 0
2, 94332, Note_off_c, 0, 67, 0
2, 94336, Note_on_c, 0, 69, 75
2, 94336, Note_on_c, 0, 65, 75
2, 94396, Note_off_c, 0, 69, 0
2, 94396, Note_off_c, 0, 65, 0
2, 94400, Note_on_c, 0, 69, 75
2, 94400, Note_on_c, 0, 65, 75
2, 94460, Note_off_c, 0, 69, 0
2, 94460, Note_off_c, 0, 65, 0
2, 94464, Note_on_c, 0, 65, 75
2, 94464, Note_on_c, 0, 70, 75
2, 94488, Note_off_c, 0, 70, 0
2, 94488, Note_on_c, 0, 69, 75
2, 94512, Note_off_c, 0, 69, 0
2, 94512, Note_on_c, 0, 70, 75
2, 94536, Note_off_c, 0, 70, 0
2, 94536, Note_on_c, 0, 69, 75
2, 94560, Note_off_c, 0, 69, 0
2, 94560, Note_on_c, 0, 70, 75
2, 94584, Note_off_c, 0, 70, 0
2, 94584, Note_on_c, 0, 69, 75
2, 94608, Note_off_c, 0, 69, 0
2, 94608, Note_on_c, 0, 67, 75
2, 94632, Note_off_c, 0, 67, 0
2, 94632, Note_on_c, 0, 69, 75
2, 94652, Note_off_c, 0, 65, 0
2, 94656, Note_off_c, 0, 69, 0
2, 94656, Note_on_c, 0, 67, 75
2, 94656, Note_on_c, 0, 64, 75
2, 94844, Note_off_c, 0, 67, 0
2, 94844, Note_off_c, 0, 64, 0
2, 95040, Note_on_c, 0, 76, 90
2, 95040, Note_on_c, 0, 67, 90
2, 95228, Note_off_c, 0, 76, 0
2, 95228, Note_off_c, 0, 67, 0
2, 95232, Note_on_c, 0, 77, 90
2, 95232, Note_on_c, 0, 68, 90
2, 95516, Note_off_c, 0, 77, 0
2, 95516, Note_off_c, 0, 68, 0
2, 95520, Note_on_c, 0, 68, 90
2, 95520, Note_on_c, 0, 65, 90
2, 95612, Note_off_c, 0, 68, 0
2, 95612, Note_off_c, 0, 65, 0
2, 95616, Note_on_c, 0, 70, 60
2, 95616, Note_on_c, 0, 65, 60
2, 95708, Note_off_c, 0, 70, 0
2, 95712, Note_on_c, 0, 68, 60
2, 95804, Note_off_c, 0, 65, 0
2, 95804, Note_off_c, 0, 68, 0
2, 95808, Note_on_c, 0, 67, 60
2, 95808, Note_on_c, 0, 64, 60
2, 95996, Note_off_c, 0, 67, 0
2, 95996, Note_off_c, 0, 64, 0
2, 96192, Note_on_c, 0, 84, 63
2, 96192, Note_on_c, 0, 76, 63
2, 96380, Note_off_c, 0, 84, 0
2, 96380, Note_off_c, 0, 76, 0
2, 96384, Note_on_c, 0, 83, 67
2, 96384, Note_on_c, 0, 77, 67
2, 96668, Note_off_c, 0, 83, 0
2, 96668, Note_off_c, 0, 77, 0
2, 96672, Note_on_c, 0, 71, 60
2, 96672, Note_on_c, 0, 65, 60
2, 96764, Note_off_c, 0, 71, 0
2, 96764, Note_off_c, 0, 65, 0
2, 96768, Note_on_c, 0, 71, 75
2, 96768, Note_on_c, 0, 65, 75
2, 97148, Note_off_c, 0, 71, 0
2, 97148, Note_off_c, 0, 65, 0
2, 97152, Note_on_c, 0, 72, 75
2, 97152, Note_on_c, 0, 64, 75
2, 97340, Note_off_c, 0, 72, 0
2, 97340, Note_off_c, 0, 64, 0
2, 97536, Note_on_c, 0, 65, 75
2, 97628, Note_off_c, 0, 65, 0
2, 97632, Note_on_c, 0, 69, 75
2, 97724, Note_off_c, 0, 69, 0
2, 97728, Note_on_c, 0, 72, 75
2, 97820, Note_off_c, 0, 72, 0
2, 97824, Note_on_c, 0, 77, 75
2, 97916, Note_off_c, 0, 77, 0
2, 97920, Note_on_c, 0, 72, 90
2, 97964, Note_off_c, 0, 72, 0
2, 97968, Note_on_c, 0, 81, 90
2, 98208, Note_off_c, 0, 81, 0
2, 98208, Note_on_c, 0, 77, 60
2, 98300, Note_off_c, 0, 77, 0
2, 98304, Note_on_c, 0, 72, 60
2, 98492, Note_off_c, 0, 72, 0
2, 98496, Note_on_c, 0, 72, 60
2, 98496, Note_on_c, 0, 69, 60
2, 98684, Note_off_c, 0, 72, 0
2, 98684, Note_off_c, 0, 69, 0
2, 98688, Note_on_c, 0, 72, 60
2, 98688, Note_on_c, 0, 69, 60
2, 98780, Note_off_c, 0, 72, 0
2, 98780, Note_off_c, 0, 69, 0
2, 98784, Note_on_c, 0, 70, 60
2, 98784, Note_on_c, 0, 67, 60
2, 98876, Note_off_c, 0, 70, 0
2, 98876, Note_off_c, 0, 67, 0
2, 98880, Note_on_c, 0, 69, 60
2, 98880, Note_on_c, 0, 65, 60
2, 98972, Note_off_c, 0, 69, 0
2, 98972, Note_off_c, 0, 65, 0
2, 98976, Note_on_c, 0, 70, 60
2, 98976, Note_on_c, 0, 67, 60
2, 99068, Note_off_c, 0, 70, 0
2, 99068, Note_off_c, 0, 67, 0
2, 99072, Note_on_c, 0, 70, 75
2, 99072, Note_on_c, 0, 67, 75
2, 99356, Note_off_c, 0, 70, 0
2, 99360, Note_on_c, 0, 72, 75
2, 99404, Note_off_c, 0, 72, 0
2, 99408, Note_on_c, 0, 70, 75
2, 99452, Note_off_c, 0, 67, 0
2, 99452, Note_off_c, 0, 70, 0
2, 99456, Note_on_c, 0, 69, 75
2, 99456, Note_on_c, 0, 65, 75
2, 99644, Note_off_c, 0, 65, 0
2, 99740, Note_off_c, 0, 69, 0
2, 99744, Note_on_c, 0, 60, 75
2, 99788, Note_off_c, 0, 60, 0
2, 99792, Note_on_c, 0, 65, 75
2, 99836, Note_off_c, 0, 65, 0
2, 99840, Note_on_c, 0, 65, 90
2, 99840, Note_on_c, 0, 74, 90
2, 99932, Note_off_c, 0, 74, 0
2, 99936, Note_on_c, 0, 72, 60
2, 100028, Note_off_c, 0, 72, 0
2, 100032, Note_on_c, 0, 70, 60
2, 100124, Note_off_c, 0, 70, 0
2, 100128, Note_on_c, 0, 69, 60
2, 100220, Note_off_c, 0, 65, 0
2, 100220, Note_off_c, 0, 69, 0
2, 100224, Note_on_c, 0, 69, 75
2, 100224, Note_on_c, 0, 65, 75
2, 100224, Note_on_c, 0, 62, 75
2, 100316, Note_off_c, 0, 69, 0
2, 100320, Note_on_c, 0, 67, 75
2, 100412, Note_off_c, 0, 65, 0
2, 100412, Note_off_c, 0, 62, 0
2, 100412, Note_off_c, 0, 67, 0
2, 100416, Note_on_c, 0, 67, 79
2, 100416, Note_on_c, 0, 65, 79
2, 100416, Note_on_c, 0, 62, 79
2, 100796, Note_off_c, 0, 67, 0
2, 100796, Note_off_c, 0, 65, 0
2, 100796, Note_off_c, 0, 62, 0
2, 100800, Note_on_c, 0, 67, 81
2, 100800, Note_on_c, 0, 65, 81
2, 100800, Note_on_c, 0, 58, 81
2, 100988, Note_off_c, 0, 67, 0
2, 100988, Note_off_c, 0, 65, 0
2, 100988, Note_off_c, 0, 58, 0
2, 100992, Note_on_c, 0, 67, 82
2, 101084, Note_off_c, 0, 67, 0
2, 101088, Note_on_c, 0, 70, 82
2, 101132, Note_off_c, 0, 70, 0
2, 101136, Note_on_c, 0, 69, 84
2, 101180, Note_off_c, 0, 69, 0
2, 101184, Note_on_c, 0, 72, 85
2, 101228, Note_off_c, 0, 72, 0
2, 101232, Note_on_c, 0, 70, 85
2, 101276, Note_off_c, 0, 70, 0
2, 101280, Note_on_c, 0, 69, 87
2, 101324, Note_off_c, 0, 69, 0
2, 101328, Note_on_c, 0, 67, 87
2, 101372, Note_off_c, 0, 67, 0
2, 101376, Note_on_c, 0, 65, 90
2, 101660, Note_off_c, 0, 65, 0
2, 101664, Note_on_c, 0, 67, 87
2, 101708, Note_off_c, 0, 67, 0
2, 101712, Note_on_c, 0, 65, 84
2, 101756, Note_off_c, 0, 65, 0
2, 101760, Note_on_c, 0, 64, 81
2, 101948, Note_off_c, 0, 64, 0
2, 102144, Note_on_c, 0, 65, 60
2, 102188, Note_off_c, 0, 65, 0
2, 102192, Note_on_c, 0, 69, 61
2, 102236, Note_off_c, 0, 69, 0
2, 102240, Note_on_c, 0, 70, 63
2, 102284, Note_off_c, 0, 70, 0
2, 102288, Note_on_c, 0, 72, 64
2, 102332, Note_off_c, 0, 72, 0
2, 102336, Note_on_c, 0, 74, 66
2, 102380, Note_off_c, 0, 74, 0
2, 102384, Note_on_c, 0, 76, 67
2, 102428, Note_off_c, 0, 76, 0
2, 102432, Note_on_c, 0, 77, 69
2, 102476, Note_off_c, 0, 77, 0
2, 102480, Note_on_c, 0, 79, 70
2, 102524, Note_off_c, 0, 79, 0
2, 102528, Note_on_c, 0, 81, 90
2, 102768, Note_on_c, 0, 77, 87
2, 102812, Note_off_c, 0, 81, 0
2, 102812, Note_off_c, 0, 77, 0
2, 102816, Note_on_c, 0, 81, 84
2, 102860, Note_off_c, 0, 81, 0
2, 102864, Note_on_c, 0, 77, 81
2, 102908, Note_off_c, 0, 77, 0
2, 102912, Note_on_c, 0, 72, 60
2, 103100, Note_off_c, 0, 72, 0
2, 103104, Note_on_c, 0, 72, 60
2, 103104, Note_on_c, 0, 69, 60
2, 103292, Note_off_c, 0, 72, 0
2, 103296, Note_on_c, 0, 72, 60
2, 103388, Note_off_c, 0, 72, 0
2, 103392, Note_on_c, 0, 74, 60
2, 103436, Note_off_c, 0, 74, 0
2, 103440, Note_on_c, 0, 72, 60
2, 103484, Note_off_c, 0, 69, 0
2, 103484, Note_off_c, 0, 72, 0
2, 103488, Note_on_c, 0, 72, 60
2, 103488, Note_on_c, 0, 67, 60
2, 103532, Note_off_c, 0, 72, 0
2, 103536, Note_on_c, 0, 70, 60
2, 103580, Note_off_c, 0, 70, 0
2, 103584, Note_on_c, 0, 69, 60
2, 103628, Note_off_c, 0, 69, 0
2, 103632, Note_on_c, 0, 70, 60
2, 103676, Note_off_c, 0, 67, 0
2, 103676, Note_off_c, 0, 70, 0
2, 103680, Note_on_c, 0, 72, 75
2, 103680, Note_on_c, 0, 67, 75
2, 103868, Note_off_c, 0, 72, 0
2, 103872, Note_on_c, 0, 72, 75
2, 103896, Note_off_c, 0, 72, 0
2, 103896, Note_on_c, 0, 70, 75
2, 103920, Note_off_c, 0, 70, 0
2, 103920, Note_on_c, 0, 72, 75
2, 103944, Note_off_c, 0, 72, 0
2, 103944, Note_on_c, 0, 70, 75
2, 103968, Note_off_c, 0, 70, 0
2, 103968, Note_on_c, 0, 72, 75
2, 103992, Note_off_c, 0, 72, 0
2, 103992, Note_on_c, 0, 70, 75
2, 104016, Note_off_c, 0, 70, 0
2, 104016, Note_on_c, 0, 69, 75
2, 104040, Note_off_c, 0, 69, 0
2, 104040, Note_on_c, 0, 70, 75
2, 104060, Note_off_c, 0, 67, 0
2, 104064, Note_off_c, 0, 70, 0
2, 104064, Note_on_c, 0, 69, 75
2, 104064, Note_on_c, 0, 65, 75
2, 104156, Note_off_c, 0, 69, 0
2, 104156, Note_off_c, 0, 65, 0
2, 104160, Note_on_c, 0, 77, 75
2, 104252, Note_off_c, 0, 77, 0
2, 104256, Note_on_c, 0, 76, 75
2, 104348, Note_off_c, 0, 76, 0
2, 104352, Note_on_c, 0, 77, 75
2, 104444, Note_off_c, 0, 77, 0
2, 104448, Note_on_c, 0, 79, 75
2, 104540, Note_off_c, 0, 79, 0
2, 104544, Note_on_c, 0, 77, 75
2, 104636, Note_off_c, 0, 77, 0
2, 104640, Note_on_c, 0, 76, 75
2, 104732, Note_off_c, 0, 76, 0
2, 104736, Note_on_c, 0, 74, 75
2, 104828, Note_off_c, 0, 74, 0
2, 104832, Note_on_c, 0, 72, 90
2, 104876, Note_off_c, 0, 72, 0
2, 104880, Note_on_c, 0, 73, 90
2, 104924, Note_off_c, 0, 73, 0
2, 104928, Note_on_c, 0, 74, 90
2, 104972, Note_off_c, 0, 74, 0
2, 104976, Note_on_c, 0, 73, 90
2, 105020, Note_off_c, 0, 73, 0
2, 105024, Note_on_c, 0, 76, 90
2, 105068, Note_off_c, 0, 76, 0
2, 105072, Note_on_c, 0, 74, 90
2, 105116, Note_off_c, 0, 74, 0
2, 105120, Note_on_c, 0, 72, 90
2, 105164, Note_off_c, 0, 72, 0
2, 105168, Note_on_c, 0, 70, 90
2, 105212, Note_off_c, 0, 70, 0
2, 105216, Note_on_c, 0, 69, 90
2, 105308, Note_off_c, 0, 69, 0
2, 105312, Note_on_c, 0, 70, 87
2, 105356, Note_off_c, 0, 70, 0
2, 105360, Note_on_c, 0, 69, 84
2, 105404, Note_off_c, 0, 69, 0
2, 105408, Note_on_c, 0, 67, 81
2, 105452, Note_off_c, 0, 67, 0
2, 105456, Note_on_c, 0, 69, 78
2, 105500, Note_off_c, 0, 69, 0
2, 105504, Note_on_c, 0, 70, 75
2, 105596, Note_off_c, 0, 70, 0
2, 105600, Note_on_c, 0, 69, 60
2, 105624, Note_off_c, 0, 69, 0
2, 105624, Note_on_c, 0, 67, 60
2, 105648, Note_off_c, 0, 67, 0
2, 105648, Note_on_c, 0, 69, 60
2, 105672, Note_off_c, 0, 69, 0
2, 105672, Note_on_c, 0, 67, 60
2, 105696, Note_off_c, 0, 67, 0
2, 105696, Note_on_c, 0, 69, 60
2, 105720, Note_off_c, 0, 69, 0
2, 105720, Note_on_c, 0, 67, 60
2, 105744, Note_off_c, 0, 67, 0
2, 105744, Note_on_c, 0, 69, 60
2, 105768, Note_off_c, 0, 69, 0
2, 105768, Note_on_c, 0, 67, 60
2, 105792, Note_off_c, 0, 67, 0
2, 105792, Note_on_c, 0, 69, 60
2, 105816, Note_off_c, 0, 69, 0
2, 105816, Note_on_c, 0, 67, 60
2, 105840, Note_off_c, 0, 67, 0
2, 105840, Note_on_c, 0, 69, 60
2, 105864, Note_off_c, 0, 69, 0
2, 105864, Note_on_c, 0, 67, 60
2, 105888, Note_off_c, 0, 67, 0
2, 105888, Note_on_c, 0, 65, 60
2, 105932, Note_off_c, 0, 65, 0
2, 105936, Note_on_c, 0, 67, 60
2, 105980, Note_off_c, 0, 67, 0
2, 105984, Note_on_c, 0, 65, 60
2, 106364, Note_off_c, 0, 65, 0
2, 106464, Note_on_c, 0, 65, 60
2, 106556, Note_off_c, 0, 65, 0
2, 106560, Note_on_c, 0, 69, 63
2, 106652, Note_off_c, 0, 69, 0
2, 106656, Note_on_c, 0, 72, 66
2, 106748, Note_off_c, 0, 72, 0
2, 106752, Note_on_c, 0, 77, 69
2, 106844, Note_off_c, 0, 77, 0
2, 106848, Note_on_c, 0, 81, 70
2, 106940, Note_off_c, 0, 81, 0
2, 106944, Note_on_c, 0, 84, 72
2, 107036, Note_off_c, 0, 84, 0
2, 107040, Note_on_c, 0, 84, 73
2, 107132, Note_off_c, 0, 84, 0
2, 107136, Note_on_c, 0, 82, 90
2, 107324, Note_off_c, 0, 82, 0
2, 107328, Note_on_c, 0, 81, 84
2, 107516, Note_off_c, 0, 81, 0
2, 107616, Note_on_c, 0, 84, 60
2, 107640, Note_off_c, 0, 84, 0
2, 107640, Note_on_c, 0, 82, 60
2, 107712, Note_on_c, 0, 86, 63
2, 107732, Note_off_c, 0, 82, 0
2, 107736, Note_off_c, 0, 86, 0
2, 107736, Note_on_c, 0, 84, 63
2, 107808, Note_on_c, 0, 87, 66
2, 107828, Note_off_c, 0, 84, 0
2, 107832, Note_off_c, 0, 87, 0
2, 107832, Note_on_c, 0, 86, 66
2, 107904, Note_on_c, 0, 89, 69
2, 107924, Note_off_c, 0, 86, 0
2, 107928, Note_off_c, 0, 89, 0
2, 107928, Note_on_c, 0, 87, 69
2, 108000, Note_on_c, 0, 79, 72
2, 108020, Note_off_c, 0, 87, 0
2, 108024, Note_off_c, 0, 79, 0
2, 108024, Note_on_c, 0, 77, 72
2, 108096, Note_on_c, 0, 81, 75
2, 108116, Note_off_c, 0, 77, 0
2, 108120, Note_off_c, 0, 81, 0
2, 108120, Note_on_c, 0, 79, 75
2, 108192, Note_on_c, 0, 82, 78
2, 108212, Note_off_c, 0, 79, 0
2, 108216, Note_off_c, 0, 82, 0
2, 108216, Note_on_c, 0, 81, 78
2, 108288, Note_on_c, 0, 84, 81
2, 108308, Note_off_c, 0, 81, 0
2, 108476, Note_off_c, 0, 84, 0
2, 108480, Note_on_c, 0, 82, 75
2, 108668, Note_off_c, 0, 82, 0
2, 108720, Note_on_c, 0, 65, 72
2, 108764, Note_off_c, 0, 65, 0
2, 108768, Note_on_c, 0, 67, 73
2, 108812, Note_off_c, 0, 67, 0
2, 108816, Note_on_c, 0, 69, 75
2, 108860, Note_off_c, 0, 69, 0
2, 108864, Note_on_c, 0, 70, 76
2, 108908, Note_off_c, 0, 70, 0
2, 108912, Note_on_c, 0, 72, 78
2, 108956, Note_off_c, 0, 72, 0
2, 108960, Note_on_c, 0, 74, 79
2, 109004, Note_off_c, 0, 74, 0
2, 109008, Note_on_c, 0, 75, 81
2, 109052, Note_off_c, 0, 75, 0
2, 109056, Note_on_c, 0, 77, 82
2, 109100, Note_off_c, 0, 77, 0
2, 109104, Note_on_c, 0, 74, 84
2, 109148, Note_off_c, 0, 74, 0
2, 109152, Note_on_c, 0, 82, 85
2, 109196, Note_off_c, 0, 82, 0
2, 109200, Note_on_c, 0, 77, 87
2, 109244, Note_off_c, 0, 77, 0
2, 109248, Note_on_c, 0, 86, 88
2, 109340, Note_off_c, 0, 86, 0
2, 109344, Note_on_c, 0, 86, 88
2, 109436, Note_off_c, 0, 86, 0
2, 109440, Note_on_c, 0, 86, 87
2, 109628, Note_off_c, 0, 86, 0
2, 109632, Note_on_c, 0, 78, 81
2, 109820, Note_off_c, 0, 78, 0
2, 109920, Note_on_c, 0, 86, 60
2, 110012, Note_off_c, 0, 86, 0
2, 110016, Note_on_c, 0, 86, 61
2, 110108, Note_off_c, 0, 86, 0
2, 110112, Note_on_c, 0, 86, 63
2, 110204, Note_off_c, 0, 86, 0
2, 110208, Note_on_c, 0, 86, 64
2, 110300, Note_off_c, 0, 86, 0
2, 110304, Note_on_c, 0, 86, 66
2, 110396, Note_off_c, 0, 86, 0
2, 110400, Note_on_c, 0, 86, 67
2, 110492, Note_off_c, 0, 86, 0
2, 110496, Note_on_c, 0, 86, 69
2, 110588, Note_off_c, 0, 86, 0
2, 110592, Note_on_c, 0, 86, 69
2, 110780, Note_off_c, 0, 86, 0
2, 110784, Note_on_c, 0, 79, 64
2, 110972, Note_off_c, 0, 79, 0
2, 111072, Note_on_c, 0, 62, 66
2, 111116, Note_off_c, 0, 62, 0
2, 111120, Note_on_c, 0, 66, 69
2, 111164, Note_off_c, 0, 66, 0
2, 111168, Note_on_c, 0, 64, 72
2, 111212, Note_off_c, 0, 64, 0
2, 111232, Note_on_c, 0, 67, 75
2, 111264, Note_on_c, 0, 66, 76
2, 111276, Note_off_c, 0, 67, 0
2, 111308, Note_off_c, 0, 66, 0
2, 111312, Note_on_c, 0, 69, 78
2, 111356, Note_off_c, 0, 69, 0
2, 111360, Note_on_c, 0, 67, 79
2, 111404, Note_off_c, 0, 67, 0
2, 111408, Note_on_c, 0, 70, 81
2, 111452, Note_off_c, 0, 70, 0
2, 111456, Note_on_c, 0, 69, 82
2, 111500, Note_off_c, 0, 69, 0
2, 111504, Note_on_c, 0, 72, 84
2, 111548, Note_off_c, 0, 72, 0
2, 111552, Note_on_c, 0, 70, 85
2, 111596, Note_off_c, 0, 70, 0
2, 111600, Note_on_c, 0, 74, 87
2, 111644, Note_off_c, 0, 74, 0
2, 111648, Note_on_c, 0, 72, 88
2, 111692, Note_off_c, 0, 72, 0
2, 111696, Note_on_c, 0, 75, 88
2, 111740, Note_off_c, 0, 75, 0
2, 111744, Note_on_c, 0, 74, 90
2, 111836, Note_off_c, 0, 74, 0
2, 111840, Note_on_c, 0, 76, 90
2, 111884, Note_off_c, 0, 76, 0
2, 111888, Note_on_c, 0, 78, 90
2, 111932, Note_off_c, 0, 78, 0
2, 111936, Note_on_c, 0, 79, 90
2, 111980, Note_off_c, 0, 79, 0
2, 111984, Note_on_c, 0, 81, 90
2, 112028, Note_off_c, 0, 81, 0
2, 112032, Note_on_c, 0, 82, 90
2, 112076, Note_off_c, 0, 82, 0
2, 112080, Note_on_c, 0, 84, 90
2, 112124, Note_off_c, 0, 84, 0
2, 112128, Note_on_c, 0, 86, 87
2, 112220, Note_off_c, 0, 86, 0
2, 112224, Note_on_c, 0, 81, 82
2, 112316, Note_off_c, 0, 81, 0
2, 112320, Note_on_c, 0, 82, 75
2, 112412, Note_off_c, 0, 82, 0
2, 112416, Note_on_c, 0, 78, 67
2, 112508, Note_off_c, 0, 78, 0
2, 112512, Note_on_c, 0, 79, 60
2, 112528, Note_on_c, 0, 81, 60
2, 112532, Note_off_c, 0, 79, 0
2, 112548, Note_off_c, 0, 81, 0
2, 112548, Note_on_c, 0, 79, 60
2, 112568, Note_off_c, 0, 79, 0
2, 112568, Note_on_c, 0, 78, 60
2, 112588, Note_off_c, 0, 78, 0
2, 112588, Note_on_c, 0, 79, 60
2, 112608, Note_off_c, 0, 79, 0
2, 112608, Note_on_c, 0, 82, 67
2, 112700, Note_off_c, 0, 82, 0
2, 112704, Note_on_c, 0, 74, 70
2, 112796, Note_off_c, 0, 74, 0
2, 112800, Note_on_c, 0, 79, 75
2, 112892, Note_off_c, 0, 79, 0
2, 112896, Note_on_c, 0, 77, 75
2, 113180, Note_off_c, 0, 77, 0
2, 113184, Note_on_c, 0, 76, 75
2, 113208, Note_off_c, 0, 76, 0
2, 113208, Note_on_c, 0, 77, 75
2, 113232, Note_off_c, 0, 77, 0
2, 113232, Note_on_c, 0, 79, 75
2, 113256, Note_off_c, 0, 79, 0
2, 113256, Note_on_c, 0, 77, 75
2, 113280, Note_off_c, 0, 77, 0
2, 113280, Note_on_c, 0, 76, 75
2, 113468, Note_off_c, 0, 76, 0
2, 114144, Note_on_c, 0, 72, 60
2, 114236, Note_off_c, 0, 72, 0
2, 114240, Note_on_c, 0, 72, 60
2, 114332, Note_off_c, 0, 72, 0
2, 114336, Note_on_c, 0, 72, 60
2, 114428, Note_off_c, 0, 72, 0
2, 114432, Note_on_c, 0, 72, 60
2, 114524, Note_off_c, 0, 72, 0
2, 114528, Note_on_c, 0, 72, 60
2, 114620, Note_off_c, 0, 72, 0
2, 114624, Note_on_c, 0, 72, 60
2, 114716, Note_off_c, 0, 72, 0
2, 114720, Note_on_c, 0, 72, 60
2, 114812, Note_off_c, 0, 72, 0
2, 114816, Note_on_c, 0, 72, 60
2, 114908, Note_off_c, 0, 72, 0
2, 114912, Note_on_c, 0, 74, 60
2, 114956, Note_off_c, 0, 74, 0
2, 114960, Note_on_c, 0, 76, 60
2, 115004, Note_off_c, 0, 76, 0
2, 115008, Note_on_c, 0, 77, 60
2, 115052, Note_off_c, 0, 77, 0
2, 115056, Note_on_c, 0, 76, 60
2, 115100, Note_off_c, 0, 76, 0
2, 115104, Note_on_c, 0, 74, 60
2, 115148, Note_off_c, 0, 74, 0
2, 115152, Note_on_c, 0, 72, 60
2, 115196, Note_off_c, 0, 72, 0
2, 115200, Note_on_c, 0, 70, 69
2, 115292, Note_off_c, 0, 70, 0
2, 115296, Note_on_c, 0, 70, 69
2, 115388, Note_off_c, 0, 70, 0
2, 115392, Note_on_c, 0, 70, 69
2, 115484, Note_off_c, 0, 70, 0
2, 115488, Note_on_c, 0, 70, 69
2, 115580, Note_off_c, 0, 70, 0
2, 115584, Note_on_c, 0, 70, 69
2, 115676, Note_off_c, 0, 70, 0
2, 115680, Note_on_c, 0, 70, 69
2, 115772, Note_off_c, 0, 70, 0
2, 115776, Note_on_c, 0, 70, 69
2, 115868, Note_off_c, 0, 70, 0
2, 115872, Note_on_c, 0, 70, 69
2, 115964, Note_off_c, 0, 70, 0
2, 115968, Note_on_c, 0, 70, 69
2, 116060, Note_off_c, 0, 70, 0
2, 116064, Note_on_c, 0, 69, 69
2, 116108, Note_off_c, 0, 69, 0
2, 116112, Note_on_c, 0, 70, 69
2, 116156, Note_off_c, 0, 70, 0
2, 116160, Note_on_c, 0, 72, 69
2, 116204, Note_off_c, 0, 72, 0
2, 116208, Note_on_c, 0, 70, 69
2, 116252, Note_off_c, 0, 70, 0
2, 116256, Note_on_c, 0, 69, 69
2, 116300, Note_off_c, 0, 69, 0
2, 116304, Note_on_c, 0, 67, 69
2, 116348, Note_off_c, 0, 67, 0
2, 116352, Note_on_c, 0, 79, 75
2, 116376, Note_off_c, 0, 79, 0
2, 116376, Note_on_c, 0, 77, 75
2, 116400, Note_off_c, 0, 77, 0
2, 116400, Note_on_c, 0, 79, 75
2, 116424, Note_off_c, 0, 79, 0
2, 116424, Note_on_c, 0, 77, 75
2, 116448, Note_off_c, 0, 77, 0
2, 116448, Note_on_c, 0, 79, 75
2, 116472, Note_off_c, 0, 79, 0
2, 116472, Note_on_c, 0, 77, 75
2, 116496, Note_off_c, 0, 77, 0
2, 116496, Note_on_c, 0, 79, 75
2, 116520, Note_off_c, 0, 79, 0
2, 116520, Note_on_c, 0, 77, 75
2, 116544, Note_off_c, 0, 77, 0
2, 116544, Note_on_c, 0, 79, 75
2, 116568, Note_off_c, 0, 79, 0
2, 116568, Note_on_c, 0, 77, 75
2, 116592, Note_off_c, 0, 77, 0
2, 116592, Note_on_c, 0, 79, 75
2, 116616, Note_off_c, 0, 79, 0
2, 116616, Note_on_c, 0, 77, 75
2, 116640, Note_off_c, 0, 77, 0
2, 116640, Note_on_c, 0, 79, 75
2, 116664, Note_off_c, 0, 79, 0
2, 116664, Note_on_c, 0, 77, 75
2, 116688, Note_off_c, 0, 77, 0
2, 116688, Note_on_c, 0, 79, 75
2, 116712, Note_off_c, 0, 79, 0
2, 116712, Note_on_c, 0, 77, 75
2, 116736, Note_off_c, 0, 77, 0
2, 116736, Note_on_c, 0, 79, 75
2, 116760, Note_off_c, 0, 79, 0
2, 116760, Note_on_c, 0, 77, 75
2, 116784, Note_off_c, 0, 77, 0
2, 116784, Note_on_c, 0, 79, 75
2, 116808, Note_off_c, 0, 79, 0
2, 116808, Note_on_c, 0, 77, 75
2, 116832, Note_off_c, 0, 77, 0
2, 116832, Note_on_c, 0, 79, 75
2, 116856, Note_off_c, 0, 79, 0
2, 116856, Note_on_c, 0, 77, 75
2, 116880, Note_off_c, 0, 77, 0
2, 116880, Note_on_c, 0, 79, 75
2, 116904, Note_off_c, 0, 79, 0
2, 116904, Note_on_c, 0, 77, 75
2, 116928, Note_off_c, 0, 77, 0
2, 116928, Note_on_c, 0, 79, 75
2, 116952, Note_off_c, 0, 79, 0
2, 116952, Note_on_c, 0, 77, 75
2, 116976, Note_off_c, 0, 77, 0
2, 116976, Note_on_c, 0, 79, 75
2, 117000, Note_off_c, 0, 79, 0
2, 117000, Note_on_c, 0, 77, 75
2, 117024, Note_off_c, 0, 77, 0
2, 117024, Note_on_c, 0, 79, 75
2, 117048, Note_off_c, 0, 79, 0
2, 117048, Note_on_c, 0, 77, 75
2, 117072, Note_off_c, 0, 77, 0
2, 117072, Note_on_c, 0, 79, 75
2, 117096, Note_off_c, 0, 79, 0
2, 117096, Note_on_c, 0, 77, 75
2, 117120, Note_off_c, 0, 77, 0
2, 117120, Note_on_c, 0, 79, 75
2, 117144, Note_off_c, 0, 79, 0
2, 117144, Note_on_c, 0, 77, 75
2, 117168, Note_off_c, 0, 77, 0
2, 117168, Note_on_c, 0, 79, 75
2, 117192, Note_off_c, 0, 79, 0
2, 117192, Note_on_c, 0, 77, 75
2, 117216, Note_off_c, 0, 77, 0
2, 117216, Note_on_c, 0, 79, 75
2, 117240, Note_off_c, 0, 79, 0
2, 117240, Note_on_c, 0, 77, 75
2, 117264, Note_off_c, 0, 77, 0
2, 117264, Note_on_c, 0, 79, 75
2, 117288, Note_off_c, 0, 79, 0
2, 117288, Note_on_c, 0, 77, 75
2, 117312, Note_off_c, 0, 77, 0
2, 117312, Note_on_c, 0, 79, 75
2, 117336, Note_off_c, 0, 79, 0
2, 117336, Note_on_c, 0, 77, 75
2, 117360, Note_off_c, 0, 77, 0
2, 117360, Note_on_c, 0, 79, 75
2, 117384, Note_off_c, 0, 79, 0
2, 117384, Note_on_c, 0, 77, 75
2, 117408, Note_off_c, 0, 77, 0
2, 117408, Note_on_c, 0, 79, 75
2, 117432, Note_off_c, 0, 79, 0
2, 117432, Note_on_c, 0, 77, 75
2, 117456, Note_off_c, 0, 77, 0
2, 117456, Note_on_c, 0, 77, 75
2, 117480, Note_off_c, 0, 77, 0
2, 117480, Note_on_c, 0, 79, 75
2, 117504, Note_off_c, 0, 79, 0
2, 117504, Note_on_c, 0, 79, 75
2, 117528, Note_off_c, 0, 79, 0
2, 117528, Note_on_c, 0, 77, 75
2, 117552, Note_off_c, 0, 77, 0
2, 117552, Note_on_c, 0, 79, 75
2, 117576, Note_off_c, 0, 79, 0
2, 117576, Note_on_c, 0, 77, 75
2, 117600, Note_off_c, 0, 77, 0
2, 117600, Note_on_c, 0, 79, 75
2, 117624, Note_off_c, 0, 79, 0
2, 117624, Note_on_c, 0, 77, 75
2, 117648, Note_off_c, 0, 77, 0
2, 117648, Note_on_c, 0, 79, 75
2, 117672, Note_off_c, 0, 79, 0
2, 117672, Note_on_c, 0, 77, 75
2, 117696, Note_off_c, 0, 77, 0
2, 117696, Note_on_c, 0, 79, 75
2, 117720, Note_off_c, 0, 79, 0
2, 117720, Note_on_c, 0, 77, 75
2, 117744, Note_off_c, 0, 77, 0
2, 117744, Note_on_c, 0, 79, 75
2, 117768, Note_off_c, 0, 79, 0
2, 117768, Note_on_c, 0, 77, 75
2, 117792, Note_off_c, 0, 77, 0
2, 117792, Note_on_c, 0, 79, 75
2, 117816, Note_off_c, 0, 79, 0
2, 117816, Note_on_c, 0, 77, 75
2, 117840, Note_off_c, 0, 77, 0
2, 117840, Note_on_c, 0, 79, 75
2, 117864, Note_off_c, 0, 79, 0
2, 117864, Note_on_c, 0, 77, 75
2, 117888, Note_off_c, 0, 77, 0
2, 117888, Note_on_c, 0, 79, 75
2, 117912, Note_off_c, 0, 79, 0
2, 117912, Note_on_c, 0, 77, 75
2, 117936, Note_off_c, 0, 77, 0
2, 117936, Note_on_c, 0, 79, 75
2, 117960, Note_off_c, 0, 79, 0
2, 117960, Note_on_c, 0, 77, 75
2, 117984, Note_off_c, 0, 77, 0
2, 117984, Note_on_c, 0, 79, 75
2, 118008, Note_off_c, 0, 79, 0
2, 118008, Note_on_c, 0, 77, 75
2, 118032, Note_off_c, 0, 77, 0
2, 118032, Note_on_c, 0, 79, 75
2, 118056, Note_off_c, 0, 79, 0
2, 118056, Note_on_c, 0, 77, 75
2, 118080, Note_off_c, 0, 77, 0
2, 118080, Note_on_c, 0, 79, 75
2, 118104, Note_off_c, 0, 79, 0
2, 118104, Note_on_c, 0, 77, 75
2, 118128, Note_off_c, 0, 77, 0
2, 118128, Note_on_c, 0, 79, 75
2, 118152, Note_off_c, 0, 79, 0
2, 118152, Note_on_c, 0, 77, 75
2, 118176, Note_off_c, 0, 77, 0
2, 118176, Note_on_c, 0, 79, 75
2, 118200, Note_off_c, 0, 79, 0
2, 118200, Note_on_c, 0, 77, 75
2, 118224, Note_off_c, 0, 77, 0
2, 118224, Note_on_c, 0, 79, 75
2, 118248, Note_off_c, 0, 79, 0
2, 118248, Note_on_c, 0, 77, 75
2, 118272, Note_off_c, 0, 77, 0
2, 118272, Note_on_c, 0, 79, 75
2, 118296, Note_off_c, 0, 79, 0
2, 118296, Note_on_c, 0, 77, 75
2, 118320, Note_off_c, 0, 77, 0
2, 118320, Note_on_c, 0, 77, 75
2, 118344, Note_off_c, 0, 77, 0
2, 118344, Note_on_c, 0, 79, 75
2, 118368, Note_off_c, 0, 79, 0
2, 118368, Note_on_c, 0, 79, 75
2, 118392, Note_off_c, 0, 79, 0
2, 118392, Note_on_c, 0, 77, 75
2, 118416, Note_off_c, 0, 77, 0
2, 118416, Note_on_c, 0, 79, 75
2, 118440, Note_off_c, 0, 79, 0
2, 118440, Note_on_c, 0, 77, 75
2, 118464, Note_off_c, 0, 77, 0
2, 118464, Note_on_c, 0, 76, 75
2, 118556, Note_off_c, 0, 76, 0
2, 118560, Note_on_c, 0, 77, 75
2, 118652, Note_off_c, 0, 77, 0
2, 118752, Note_on_c, 0, 77, 69
2, 118844, Note_off_c, 0, 77, 0
2, 118848, Note_on_c, 0, 82, 69
2, 118940, Note_off_c, 0, 82, 0
2, 118944, Note_on_c, 0, 82, 69
2, 119036, Note_off_c, 0, 82, 0
2, 119040, Note_on_c, 0, 84, 90
2, 119040, Note_on_c, 0, 77, 90
2, 119132, Note_off_c, 0, 84, 0
2, 119136, Note_on_c, 0, 82, 60
2, 119228, Note_off_c, 0, 82, 0
2, 119232, Note_on_c, 0, 81, 60
2, 119324, Note_off_c, 0, 81, 0
2, 119328, Note_on_c, 0, 82, 60
2, 119420, Note_off_c, 0, 77, 0
2, 119420, Note_off_c, 0, 82, 0
2, 119424, Note_on_c, 0, 82, 90
2, 119424, Note_on_c, 0, 77, 90
2, 119516, Note_off_c, 0, 82, 0
2, 119520, Note_on_c, 0, 81, 60
2, 119612, Note_off_c, 0, 81, 0
2, 119616, Note_on_c, 0, 80, 60
2, 119708, Note_off_c, 0, 80, 0
2, 119712, Note_on_c, 0, 81, 60
2, 119804, Note_off_c, 0, 77, 0
2, 119804, Note_off_c, 0, 81, 0
2, 119808, Note_on_c, 0, 79, 75
2, 119808, Note_on_c, 0, 77, 75
2, 119900, Note_off_c, 0, 79, 0
2, 119900, Note_off_c, 0, 77, 0
2, 119904, Note_on_c, 0, 67, 75
2, 119904, Note_on_c, 0, 65, 75
2, 119996, Note_off_c, 0, 67, 0
2, 119996, Note_off_c, 0, 65, 0
2, 120000, Note_on_c, 0, 67, 75
2, 120000, Note_on_c, 0, 65, 75
2, 120092, Note_off_c, 0, 67, 0
2, 120092, Note_off_c, 0, 65, 0
2, 120096, Note_on_c, 0, 67, 75
2, 120096, Note_on_c, 0, 65, 75
2, 120188, Note_off_c, 0, 67, 0
2, 120188, Note_off_c, 0, 65, 0
2, 120192, Note_on_c, 0, 69, 90
2, 120192, Note_on_c, 0, 65, 90
2, 120284, Note_off_c, 0, 69, 0
2, 120288, Note_on_c, 0, 67, 60
2, 120380, Note_off_c, 0, 67, 0
2, 120384, Note_on_c, 0, 66, 60
2, 120476, Note_off_c, 0, 66, 0
2, 120480, Note_on_c, 0, 67, 60
2, 120572, Note_off_c, 0, 65, 0
2, 120572, Note_off_c, 0, 67, 0
2, 120576, Note_on_c, 0, 70, 90
2, 120576, Note_on_c, 0, 65, 90
2, 120668, Note_off_c, 0, 70, 0
2, 120672, Note_on_c, 0, 69, 60
2, 120764, Note_off_c, 0, 69, 0
2, 120768, Note_on_c, 0, 68, 60
2, 120860, Note_off_c, 0, 68, 0
2, 120864, Note_on_c, 0, 69, 60
2, 120956, Note_off_c, 0, 65, 0
2, 120956, Note_off_c, 0, 69, 0
2, 120960, Note_on_c, 0, 70, 75
2, 120960, Note_on_c, 0, 65, 75
2, 121052, Note_off_c, 0, 70, 0
2, 121052, Note_off_c, 0, 65, 0
2, 121056, Note_on_c, 0, 77, 75
2, 121148, Note_off_c, 0, 77, 0
2, 121152, Note_on_c, 0, 82, 75
2, 121244, Note_off_c, 0, 82, 0
2, 121248, Note_on_c, 0, 82, 75
2, 121340, Note_off_c, 0, 82, 0
2, 121344, Note_on_c, 0, 84, 90
2, 121344, Note_on_c, 0, 77, 90
2, 121436, Note_off_c, 0, 84, 0
2, 121440, Note_on_c, 0, 82, 60
2, 121532, Note_off_c, 0, 82, 0
2, 121536, Note_on_c, 0, 81, 60
2, 121628, Note_off_c, 0, 81, 0
2, 121632, Note_on_c, 0, 82, 60
2, 121724, Note_off_c, 0, 77, 0
2, 121724, Note_off_c, 0, 82, 0
2, 121728, Note_on_c, 0, 82, 90
2, 121728, Note_on_c, 0, 77, 90
2, 121820, Note_off_c, 0, 82, 0
2, 121824, Note_on_c, 0, 81, 60
2, 121916, Note_off_c, 0, 81, 0
2, 121920, Note_on_c, 0, 80, 60
2, 122012, Note_off_c, 0, 80, 0
2, 122016, Note_on_c, 0, 81, 60
2, 122108, Note_off_c, 0, 77, 0
2, 122108, Note_off_c, 0, 81, 0
2, 122112, Note_on_c, 0, 77, 75
2, 122112, Note_on_c, 0, 79, 75
2, 122204, Note_off_c, 0, 79, 0
2, 122208, Note_on_c, 0, 81, 75
2, 122252, Note_off_c, 0, 81, 0
2, 122256, Note_on_c, 0, 79, 75
2, 122300, Note_off_c, 0, 79, 0
2, 122304, Note_on_c, 0, 78, 75
2, 122348, Note_off_c, 0, 78, 0
2, 122352, Note_on_c, 0, 79, 75
2, 122396, Note_off_c, 0, 79, 0
2, 122400, Note_on_c, 0, 81, 75
2, 122492, Note_off_c, 0, 77, 0
2, 122492, Note_off_c, 0, 81, 0
2, 122496, Note_on_c, 0, 78, 75
2, 122496, Note_on_c, 0, 82, 75
2, 122588, Note_off_c, 0, 82, 0
2, 122592, Note_on_c, 0, 84, 75
2, 122636, Note_off_c, 0, 84, 0
2, 122640, Note_on_c, 0, 82, 75
2, 122684, Note_off_c, 0, 82, 0
2, 122688, Note_on_c, 0, 81, 75
2, 122732, Note_off_c, 0, 81, 0
2, 122736, Note_on_c, 0, 82, 75
2, 122780, Note_off_c, 0, 78, 0
2, 122780, Note_off_c, 0, 82, 0
2, 122784, Note_on_c, 0, 84, 78
2, 122784, Note_on_c, 0, 81, 78
2, 122876, Note_off_c, 0, 84, 0
2, 122876, Note_off_c, 0, 81, 0
2, 122880, Note_on_c, 0, 82, 79
2, 122880, Note_on_c, 0, 86, 79
2, 122972, Note_off_c, 0, 82, 0
2, 122972, Note_off_c, 0, 86, 0
2, 122976, Note_on_c, 0, 86, 81
2, 122976, Note_on_c, 0, 82, 81
2, 123068, Note_off_c, 0, 86, 0
2, 123068, Note_off_c, 0, 82, 0
2, 123072, Note_on_c, 0, 86, 82
2, 123072, Note_on_c, 0, 82, 82
2, 123164, Note_off_c, 0, 86, 0
2, 123164, Note_off_c, 0, 82, 0
2, 123168, Note_on_c, 0, 86, 84
2, 123168, Note_on_c, 0, 82, 84
2, 123260, Note_off_c, 0, 86, 0
2, 123260, Note_off_c, 0, 82, 0
2, 123264, Note_on_c, 0, 82, 84
2, 123264, Note_on_c, 0, 86, 84
2, 123356, Note_off_c, 0, 82, 0
2, 123356, Note_off_c, 0, 86, 0
2, 123360, Note_on_c, 0, 84, 79
2, 123360, Note_on_c, 0, 81, 79
2, 123452, Note_off_c, 0, 84, 0
2, 123452, Note_off_c, 0, 81, 0
2, 123456, Note_on_c, 0, 86, 75
2, 123456, Note_on_c, 0, 82, 75
2, 123548, Note_off_c, 0, 86, 0
2, 123548, Note_off_c, 0, 82, 0
2, 123552, Note_on_c, 0, 79, 69
2, 123552, Note_on_c, 0, 82, 69
2, 123644, Note_off_c, 0, 79, 0
2, 123644, Note_off_c, 0, 82, 0
2, 123648, Note_on_c, 0, 77, 60
2, 123648, Note_on_c, 0, 81, 60
2, 123676, Note_on_c, 0, 84, 60
2, 123688, Note_off_c, 0, 81, 0
2, 123708, Note_on_c, 0, 83, 60
2, 123716, Note_off_c, 0, 84, 0
2, 123748, Note_off_c, 0, 83, 0
2, 123748, Note_on_c, 0, 82, 60
2, 123788, Note_off_c, 0, 82, 0
2, 123788, Note_on_c, 0, 81, 60
2, 123868, Note_off_c, 0, 81, 0
2, 123868, Note_on_c, 0, 82, 60
2, 123948, Note_off_c, 0, 82, 0
2, 123948, Note_on_c, 0, 79, 60
2, 124028, Note_off_c, 0, 77, 0
2, 124028, Note_off_c, 0, 79, 0
2, 124032, Note_on_c, 0, 76, 60
2, 124032, Note_on_c, 0, 81, 60
2, 124056, Note_off_c, 0, 81, 0
2, 124056, Note_on_c, 0, 79, 60
2, 124080, Note_off_c, 0, 79, 0
2, 124080, Note_on_c, 0, 81, 60
2, 124104, Note_off_c, 0, 81, 0
2, 124104, Note_on_c, 0, 79, 60
2, 124128, Note_off_c, 0, 79, 0
2, 124128, Note_on_c, 0, 81, 60
2, 124152, Note_off_c, 0, 81, 0
2, 124152, Note_on_c, 0, 79, 60
2, 124176, Note_off_c, 0, 79, 0
2, 124176, Note_on_c, 0, 81, 60
2, 124200, Note_off_c, 0, 81, 0
2, 124200, Note_on_c, 0, 79, 60
2, 124224, Note_off_c, 0, 79, 0
2, 124224, Note_on_c, 0, 81, 60
2, 124248, Note_off_c, 0, 81, 0
2, 124248, Note_on_c, 0, 79, 60
2, 124272, Note_off_c, 0, 79, 0
2, 124272, Note_on_c, 0, 81, 60
2, 124296, Note_off_c, 0, 81, 0
2, 124296, Note_on_c, 0, 79, 60
2, 124320, Note_off_c, 0, 79, 0
2, 124320, Note_on_c, 0, 77, 60
2, 124364, Note_off_c, 0, 77, 0
2, 124368, Note_on_c, 0, 79, 60
2, 124412, Note_off_c, 0, 76, 0
2, 124412, Note_off_c, 0, 79, 0
2, 124512, Note_on_c, 0, 65, 90
2, 124604, Note_off_c, 0, 65, 0
2, 124608, Note_on_c, 0, 77, 90
2, 124700, Note_off_c, 0, 77, 0
2, 124704, Note_on_c, 0, 76, 90
2, 124796, Note_off_c, 0, 76, 0
2, 124800, Note_on_c, 0, 74, 60
2, 124892, Note_off_c, 0, 74, 0
2, 124896, Note_on_c, 0, 62, 90
2, 124988, Note_off_c, 0, 62, 0
2, 124992, Note_on_c, 0, 74, 90
2, 125084, Note_off_c, 0, 74, 0
2, 125088, Note_on_c, 0, 72, 90
2, 125180, Note_off_c, 0, 72, 0
2, 125184, Note_on_c, 0, 70, 60
2, 125276, Note_off_c, 0, 70, 0
2, 125280, Note_on_c, 0, 58, 90
2, 125372, Note_off_c, 0, 58, 0
2, 125376, Note_on_c, 0, 70, 90
2, 125468, Note_off_c, 0, 70, 0
2, 125472, Note_on_c, 0, 69, 90
2, 125564, Note_off_c, 0, 69, 0
2, 125568, Note_on_c, 0, 67, 60
2, 125660, Note_off_c, 0, 67, 0
2, 125664, Note_on_c, 0, 55, 90
2, 125756, Note_off_c, 0, 55, 0
2, 125760, Note_on_c, 0, 67, 90
2, 125852, Note_off_c, 0, 67, 0
2, 125856, Note_on_c, 0, 66, 90
2, 125948, Note_off_c, 0, 66, 0
2, 125952, Note_on_c, 0, 67, 60
2, 126044, Note_off_c, 0, 67, 0
2, 126048, Note_on_c, 0, 69, 64
2, 126048, Note_on_c, 0, 63, 64
2, 126140, Note_off_c, 0, 69, 0
2, 126140, Note_off_c, 0, 63, 0
2, 126144, Note_on_c, 0, 70, 69
2, 126144, Note_on_c, 0, 62, 69
2, 126236, Note_off_c, 0, 70, 0
2, 126236, Note_off_c, 0, 62, 0
2, 126240, Note_on_c, 0, 71, 73
2, 126240, Note_on_c, 0, 68, 73
2, 126332, Note_off_c, 0, 71, 0
2, 126332, Note_off_c, 0, 68, 0
2, 126336, Note_on_c, 0, 72, 78
2, 126336, Note_on_c, 0, 67, 78
2, 126428, Note_off_c, 0, 72, 0
2, 126428, Note_off_c, 0, 67, 0
2, 126432, Note_on_c, 0, 73, 82
2, 126432, Note_on_c, 0, 67, 82
2, 126524, Note_off_c, 0, 73, 0
2, 126524, Note_off_c, 0, 67, 0
2, 126528, Note_on_c, 0, 74, 85
2, 126528, Note_on_c, 0, 65, 85
2, 126620, Note_off_c, 0, 74, 0
2, 126620, Note_off_c, 0, 65, 0
2, 126624, Note_on_c, 0, 76, 88
2, 126624, Note_on_c, 0, 70, 88
2, 126716, Note_off_c, 0, 76, 0
2, 126716, Note_off_c, 0, 70, 0
2, 126720, Note_on_c, 0, 77, 90
2, 126720, Note_on_c, 0, 72, 90
2, 126860, Note_off_c, 0, 77, 0
2, 126864, Note_on_c, 0, 72, 90
2, 126908, Note_off_c, 0, 72, 0
2, 126908, Note_off_c, 0, 72, 0
2, 126912, Note_on_c, 0, 70, 90
2, 126928, Note_on_c, 0, 74, 90
2, 127052, Note_off_c, 0, 70, 0
2, 127056, Note_on_c, 0, 70, 90
2, 127056, Note_on_c, 0, 67, 90
2, 127068, Note_off_c, 0, 74, 0
2, 127100, Note_off_c, 0, 70, 0
2, 127100, Note_off_c, 0, 67, 0
2, 127104, Note_on_c, 0, 65, 60
2, 127104, Note_on_c, 0, 69, 60
2, 127196, Note_off_c, 0, 69, 0
2, 127200, Note_on_c, 0, 70, 60
2, 127244, Note_off_c, 0, 70, 0
2, 127248, Note_on_c, 0, 69, 60
2, 127292, Note_off_c, 0, 69, 0
2, 127296, Note_on_c, 0, 67, 60
2, 127340, Note_off_c, 0, 67, 0
2, 127344, Note_on_c, 0, 69, 60
2, 127388, Note_off_c, 0, 69, 0
2, 127392, Note_on_c, 0, 70, 60
2, 127484, Note_off_c, 0, 65, 0
2, 127484, Note_off_c, 0, 70, 0
2, 127488, Note_on_c, 0, 64, 60
2, 127488, Note_on_c, 0, 69, 60
2, 127512, Note_off_c, 0, 69, 0
2, 127512, Note_on_c, 0, 67, 60
2, 127536, Note_off_c, 0, 67, 0
2, 127536, Note_on_c, 0, 69, 60
2, 127560, Note_off_c, 0, 69, 0
2, 127560, Note_on_c, 0, 67, 60
2, 127584, Note_off_c, 0, 67, 0
2, 127584, Note_on_c, 0, 69, 60
2, 127608, Note_off_c, 0, 69, 0
2, 127608, Note_on_c, 0, 67, 60
2, 127632, Note_off_c, 0, 67, 0
2, 127632, Note_on_c, 0, 69, 60
2, 127656, Note_off_c, 0, 69, 0
2, 127656, Note_on_c, 0, 67, 60
2, 127680, Note_off_c, 0, 67, 0
2, 127680, Note_on_c, 0, 69, 60
2, 127704, Note_off_c, 0, 69, 0
2, 127704, Note_on_c, 0, 67, 60
2, 127728, Note_off_c, 0, 67, 0
2, 127728, Note_on_c, 0, 69, 60
2, 127752, Note_off_c, 0, 69, 0
2, 127752, Note_on_c, 0, 67, 60
2, 127776, Note_off_c, 0, 67, 0
2, 127776, Note_on_c, 0, 65, 60
2, 127820, Note_off_c, 0, 65, 0
2, 127824, Note_on_c, 0, 67, 60
2, 127868, Note_off_c, 0, 64, 0
2, 127868, Note_off_c, 0, 67, 0
2, 127968, Note_on_c, 0, 79, 90
2, 127992, Note_off_c, 0, 79, 0
2, 127992, Note_on_c, 0, 77, 90
2, 128016, Note_off_c, 0, 77, 0
2, 128016, Note_on_c, 0, 76, 90
2, 128040, Note_off_c, 0, 76, 0
2, 128040, Note_on_c, 0, 77, 90
2, 128064, Note_off_c, 0, 77, 0
2, 128064, Note_on_c, 0, 89, 90
2, 128156, Note_off_c, 0, 89, 0
2, 128160, Note_on_c, 0, 88, 90
2, 128252, Note_off_c, 0, 88, 0
2, 128256, Note_on_c, 0, 86, 60
2, 128348, Note_off_c, 0, 86, 0
2, 128352, Note_on_c, 0, 76, 90
2, 128376, Note_off_c, 0, 76, 0
2, 128376, Note_on_c, 0, 74, 90
2, 128400, Note_off_c, 0, 74, 0
2, 128400, Note_on_c, 0, 72, 90
2, 128424, Note_off_c, 0, 72, 0
2, 128424, Note_on_c, 0, 74, 90
2, 128448, Note_off_c, 0, 74, 0
2, 128448, Note_on_c, 0, 86, 90
2, 128540, Note_off_c, 0, 86, 0
2, 128544, Note_on_c, 0, 84, 90
2, 128636, Note_off_c, 0, 84, 0
2, 128640, Note_on_c, 0, 82, 60
2, 128732, Note_off_c, 0, 82, 0
2, 128736, Note_on_c, 0, 72, 90
2, 128760, Note_off_c, 0, 72, 0
2, 128760, Note_on_c, 0, 70, 90
2, 128784, Note_off_c, 0, 70, 0
2, 128784, Note_on_c, 0, 69, 90
2, 128808, Note_off_c, 0, 69, 0
2, 128808, Note_on_c, 0, 70, 90
2, 128832, Note_off_c, 0, 70, 0
2, 128832, Note_on_c, 0, 82, 90
2, 128924, Note_off_c, 0, 82, 0
2, 128928, Note_on_c, 0, 81, 90
2, 129020, Note_off_c, 0, 81, 0
2, 129024, Note_on_c, 0, 79, 60
2, 129068, Note_off_c, 0, 79, 0
2, 129072, Note_on_c, 0, 67, 60
2, 129116, Note_off_c, 0, 67, 0
2, 129120, Note_on_c, 0, 69, 60
2, 129164, Note_off_c, 0, 69, 0
2, 129168, Note_on_c, 0, 70, 60
2, 129212, Note_off_c, 0, 70, 0
2, 129216, Note_on_c, 0, 72, 60
2, 129260, Note_off_c, 0, 72, 0
2, 129264, Note_on_c, 0, 74, 60
2, 129308, Note_off_c, 0, 74, 0
2, 129312, Note_on_c, 0, 76, 60
2, 129356, Note_off_c, 0, 76, 0
2, 129360, Note_on_c, 0, 78, 60
2, 129404, Note_off_c, 0, 78, 0
2, 129408, Note_on_c, 0, 79, 60
2, 129452, Note_off_c, 0, 79, 0
2, 129456, Note_on_c, 0, 81, 60
2, 129500, Note_off_c, 0, 81, 0
2, 129504, Note_on_c, 0, 82, 60
2, 129548, Note_off_c, 0, 82, 0
2, 129552, Note_on_c, 0, 84, 60
2, 129596, Note_off_c, 0, 84, 0
2, 129600, Note_on_c, 0, 86, 60
2, 129644, Note_off_c, 0, 86, 0
2, 129648, Note_on_c, 0, 88, 60
2, 129692, Note_off_c, 0, 88, 0
2, 129696, Note_on_c, 0, 89, 60
2, 129740, Note_off_c, 0, 89, 0
2, 129744, Note_on_c, 0, 88, 60
2, 129788, Note_off_c, 0, 88, 0
2, 129792, Note_on_c, 0, 86, 60
2, 129836, Note_off_c, 0, 86, 0
2, 129840, Note_on_c, 0, 84, 60
2, 129884, Note_off_c, 0, 84, 0
2, 129888, Note_on_c, 0, 82, 60
2, 129932, Note_off_c, 0, 82, 0
2, 129936, Note_on_c, 0, 81, 60
2, 129980, Note_off_c, 0, 81, 0
2, 129984, Note_on_c, 0, 79, 60
2, 130028, Note_off_c, 0, 79, 0
2, 130032, Note_on_c, 0, 77, 60
2, 130076, Note_off_c, 0, 77, 0
2, 130080, Note_on_c, 0, 76, 60
2, 130124, Note_off_c, 0, 76, 0
2, 130128, Note_on_c, 0, 74, 60
2, 130172, Note_off_c, 0, 74, 0
2, 130176, Note_on_c, 0, 72, 85
2, 130192, Note_on_c, 0, 77, 85
2, 130212, Note_on_c, 0, 81, 85
2, 130232, Note_on_c, 0, 84, 85
2, 130552, Note_off_c, 0, 77, 0
2, 130556, Note_off_c, 0, 72, 0
2, 131136, Note_on_c, 0, 67, 82
2, 131180, Note_off_c, 0, 67, 0
2, 131184, Note_on_c, 0, 69, 84
2, 131228, Note_off_c, 0, 69, 0
2, 131232, Note_on_c, 0, 70, 85
2, 131276, Note_off_c, 0, 70, 0
2, 131280, Note_on_c, 0, 72, 87
2, 131320, Note_off_c, 0, 81, 0
2, 131320, Note_off_c, 0, 84, 0
2, 131324, Note_off_c, 0, 72, 0
2, 131328, Note_on_c, 0, 86, 90
2, 131328, Note_on_c, 0, 80, 90
2, 131328, Note_on_c, 0, 77, 90
2, 131328, Note_on_c, 0, 71, 90
2, 131516, Note_off_c, 0, 86, 0
2, 131516, Note_off_c, 0, 80, 0
2, 131516, Note_off_c, 0, 77, 0
2, 131516, Note_off_c, 0, 71, 0
2, 131520, Note_on_c, 0, 88, 90
2, 131612, Note_off_c, 0, 88, 0
2, 131616, Note_on_c, 0, 89, 90
2, 131708, Note_off_c, 0, 89, 0
2, 131712, Note_on_c, 0, 72, 90
2, 131712, Note_on_c, 0, 60, 90
2, 131712, Note_on_c, 0, 77, 90
2, 131712, Note_on_c, 0, 81, 90
2, 131736, Note_off_c, 0, 81, 0
2, 131736, Note_on_c, 0, 79, 90
2, 131760, Note_off_c, 0, 79, 0
2, 131760, Note_on_c, 0, 81, 90
2, 131784, Note_off_c, 0, 81, 0
2, 131784, Note_on_c, 0, 79, 90
2, 131808, Note_off_c, 0, 79, 0
2, 131808, Note_on_c, 0, 81, 90
2, 131832, Note_off_c, 0, 81, 0
2, 131832, Note_on_c, 0, 79, 90
2, 131856, Note_off_c, 0, 79, 0
2, 131856, Note_on_c, 0, 81, 90
2, 131880, Note_off_c, 0, 81, 0
2, 131904, Note_on_c, 0, 79, 90
2, 131928, Note_off_c, 0, 79, 0
2, 131928, Note_on_c, 0, 81, 90
2, 131952, Note_off_c, 0, 81, 0
2, 131952, Note_on_c, 0, 79, 90
2, 131976, Note_off_c, 0, 79, 0
2, 131976, Note_on_c, 0, 81, 90
2, 132000, Note_off_c, 0, 81, 0
2, 132000, Note_on_c, 0, 79, 90
2, 132024, Note_off_c, 0, 79, 0
2, 132024, Note_on_c, 0, 81, 90
2, 132048, Note_off_c, 0, 81, 0
2, 132048, Note_on_c, 0, 79, 90
2, 132072, Note_off_c, 0, 79, 0
2, 132072, Note_on_c, 0, 81, 90
2, 132092, Note_off_c, 0, 72, 0
2, 132092, Note_off_c, 0, 60, 0
2, 132092, Note_off_c, 0, 77, 0
2, 132096, Note_off_c, 0, 81, 0
2, 132096, Note_on_c, 0, 60, 90
2, 132096, Note_on_c, 0, 76, 90
2, 132096, Note_on_c, 0, 79, 90
2, 132096, Note_on_c, 0, 72, 90
2, 132120, Note_off_c, 0, 79, 0
2, 132120, Note_off_c, 0, 72, 0
2, 132120, Note_on_c, 0, 70, 90
2, 132120, Note_on_c, 0, 81, 90
2, 132144, Note_off_c, 0, 70, 0
2, 132144, Note_off_c, 0, 81, 0
2, 132144, Note_on_c, 0, 79, 90
2, 132144, Note_on_c, 0, 72, 90
2, 132168, Note_off_c, 0, 79, 0
2, 132168, Note_off_c, 0, 72, 0
2, 132168, Note_on_c, 0, 70, 90
2, 132168, Note_on_c, 0, 81, 90
2, 132192, Note_off_c, 0, 70, 0
2, 132192, Note_off_c, 0, 81, 0
2, 132192, Note_on_c, 0, 79, 90
2, 132192, Note_on_c, 0, 72, 90
2, 132216, Note_off_c, 0, 79, 0
2, 132216, Note_off_c, 0, 72, 0
2, 132216, Note_on_c, 0, 70, 90
2, 132216, Note_on_c, 0, 81, 90
2, 132240, Note_off_c, 0, 70, 0
2, 132240, Note_off_c, 0, 81, 0
2, 132240, Note_on_c, 0, 79, 90
2, 132240, Note_on_c, 0, 72, 90
2, 132264, Note_off_c, 0, 79, 0
2, 132264, Note_off_c, 0, 72, 0
2, 132288, Note_on_c, 0, 77, 90
2, 132288, Note_on_c, 0, 69, 90
2, 132380, Note_off_c, 0, 77, 0
2, 132380, Note_off_c, 0, 69, 0
2, 132384, Note_on_c, 0, 70, 90
2, 132384, Note_on_c, 0, 79, 90
2, 132476, Note_off_c, 0, 60, 0
2, 132476, Note_off_c, 0, 76, 0
2, 132476, Note_off_c, 0, 70, 0
2, 132476, Note_off_c, 0, 79, 0
2, 132480, Note_on_c, 0, 77, 60
2, 132480, Note_on_c, 0, 69, 60
2, 132480, Note_on_c, 0, 65, 60
2, 132572, Note_off_c, 0, 77, 0
2, 132576, Note_on_c, 0, 79, 60
2, 132600, Note_off_c, 0, 79, 0
2, 132600, Note_on_c, 0, 77, 60
2, 132624, Note_off_c, 0, 77, 0
2, 132624, Note_on_c, 0, 76, 60
2, 132648, Note_off_c, 0, 76, 0
2, 132648, Note_on_c, 0, 77, 60
2, 132668, Note_off_c, 0, 69, 0
2, 132668, Note_off_c, 0, 65, 0
2, 132672, Note_off_c, 0, 77, 0
2, 132672, Note_on_c, 0, 79, 60
2, 132672, Note_on_c, 0, 75, 60
2, 132764, Note_off_c, 0, 79, 0
2, 132768, Note_on_c, 0, 81, 60
2, 132860, Note_off_c, 0, 75, 0
2, 132860, Note_off_c, 0, 81, 0
2, 132864, Note_on_c, 0, 82, 60
2, 132864, Note_on_c, 0, 74, 60
2, 132864, Note_on_c, 0, 65, 60
2, 132956, Note_off_c, 0, 82, 0
2, 132960, Note_on_c, 0, 84, 60
2, 133004, Note_off_c, 0, 84, 0
2, 133008, Note_on_c, 0, 86, 60
2, 133052, Note_off_c, 0, 86, 0
2, 133056, Note_on_c, 0, 84, 60
2, 133100, Note_off_c, 0, 84, 0
2, 133104, Note_on_c, 0, 82, 60
2, 133148, Note_off_c, 0, 82, 0
2, 133152, Note_on_c, 0, 81, 60
2, 133196, Note_off_c, 0, 81, 0
2, 133200, Note_on_c, 0, 79, 60
2, 133244, Note_off_c, 0, 74, 0
2, 133244, Note_off_c, 0, 65, 0
2, 133244, Note_off_c, 0, 79, 0
2, 133248, Note_on_c, 0, 77, 60
2, 133248, Note_on_c, 0, 70, 60
2, 133248, Note_on_c, 0, 67, 60
2, 133248, Note_on_c, 0, 65, 60
2, 133340, Note_off_c, 0, 77, 0
2, 133344, Note_on_c, 0, 76, 60
2, 133436, Note_off_c, 0, 76, 0
2, 133440, Note_on_c, 0, 82, 60
2, 133532, Note_off_c, 0, 82, 0
2, 133536, Note_on_c, 0, 76, 60
2, 133628, Note_off_c, 0, 70, 0
2, 133628, Note_off_c, 0, 67, 0
2, 133628, Note_off_c, 0, 65, 0
2, 133628, Note_off_c, 0, 76, 0
2, 133632, Note_on_c, 0, 77, 63
2, 133632, Note_on_c, 0, 69, 63
2, 133632, Note_on_c, 0, 65, 63
2, 133680, Note_on_c, 0, 65, 66
2, 133724, Note_off_c, 0, 65, 0
2, 133728, Note_on_c, 0, 64, 66
2, 133772, Note_off_c, 0, 64, 0
2, 133776, Note_on_c, 0, 65, 69
2, 133820, Note_off_c, 0, 77, 0
2, 133820, Note_off_c, 0, 69, 0
2, 133820, Note_off_c, 0, 65, 0
2, 133820, Note_off_c, 0, 65, 0
2, 133824, Note_on_c, 0, 66, 69
2, 133868, Note_off_c, 0, 66, 0
2, 133872, Note_on_c, 0, 67, 72
2, 133916, Note_off_c, 0, 67, 0
2, 133920, Note_on_c, 0, 68, 72
2, 133964, Note_off_c, 0, 68, 0
2, 133968, Note_on_c, 0, 69, 75
2, 134012, Note_off_c, 0, 69, 0
2, 134016, Note_on_c, 0, 70, 75
2, 134036, Note_off_c, 0, 70, 0
2, 134036, Note_on_c, 0, 72, 76
2, 134056, Note_off_c, 0, 72, 0
2, 134056, Note_on_c, 0, 70, 76
2, 134076, Note_off_c, 0, 70, 0
2, 134076, Note_on_c, 0, 69, 78
2, 134092, Note_on_c, 0, 70, 78
2, 134096, Note_off_c, 0, 69, 0
2, 134112, Note_off_c, 0, 70, 0
2, 134112, Note_on_c, 0, 72, 79
2, 134156, Note_off_c, 0, 72, 0
2, 134160, Note_on_c, 0, 74, 79
2, 134204, Note_off_c, 0, 74, 0
2, 134208, Note_on_c, 0, 72, 81
2, 134252, Note_off_c, 0, 72, 0
2, 134256, Note_on_c, 0, 70, 81
2, 134300, Note_off_c, 0, 70, 0
2, 134304, Note_on_c, 0, 69, 82
2, 134348, Note_off_c, 0, 69, 0
2, 134352, Note_on_c, 0, 67, 82
2, 134396, Note_off_c, 0, 67, 0
2, 134400, Note_on_c, 0, 65, 84
2, 134444, Note_off_c, 0, 65, 0
2, 134448, Note_on_c, 0, 64, 84
2, 134492, Note_off_c, 0, 64, 0
2, 134496, Note_on_c, 0, 67, 85
2, 134540, Note_off_c, 0, 67, 0
2, 134544, Note_on_c, 0, 65, 85
2, 134588, Note_off_c, 0, 65, 0
2, 134592, Note_on_c, 0, 64, 87
2, 134636, Note_off_c, 0, 64, 0
2, 134640, Note_on_c, 0, 62, 87
2, 134684, Note_off_c, 0, 62, 0
2, 134688, Note_on_c, 0, 60, 88
2, 134732, Note_off_c, 0, 60, 0
2, 134736, Note_on_c, 0, 58, 88
2, 134780, Note_off_c, 0, 58, 0
2, 134780, End_track
3, 0, Start_track
3, 0, Control_c, 1, 0, 0
3, 0, Program_c, 1, 0
3, 0, Control_c, 1, 7, 80
3, 0, Control_c, 1, 10, 51
3, 0, Control_c, 1, 91, 70
3, 0, Control_c, 1, 93, 46
3, 0, Key_signature, -1, "minor"
3, 0, Control_c, 1, 121, 0
3, 96, Control_c, 1, 10, 53
3, 144, Control_c, 1, 91, 63
3, 192, Control_c, 1, 93, 40
3, 288, Program_c, 1, 0
3, 1152, Note_on_c, 1, 53, 90
3, 1152, Note_on_c, 1, 41, 90
3, 1532, Note_off_c, 1, 53, 0
3, 1532, Note_off_c, 1, 41, 0
3, 1536, Note_on_c, 1, 57, 60
3, 1536, Note_on_c, 1, 45, 60
3, 1916, Note_off_c, 1, 57, 0
3, 1916, Note_off_c, 1, 45, 0
3, 1920, Note_on_c, 1, 60, 60
3, 1920, Note_on_c, 1, 48, 60
3, 2300, Note_off_c, 1, 60, 0
3, 2300, Note_off_c, 1, 48, 0
3, 2304, Note_on_c, 1, 62, 67
3, 2304, Note_on_c, 1, 50, 67
3, 2684, Note_off_c, 1, 62, 0
3, 2684, Note_off_c, 1, 50, 0
3, 2688, Note_on_c, 1, 50, 75
3, 2688, Note_on_c, 1, 62, 75
3, 2876, Note_off_c, 1, 50, 0
3, 2876, Note_off_c, 1, 62, 0
3, 3072, Note_on_c, 1, 45, 90
3, 3452, Note_off_c, 1, 45, 0
3, 3456, Note_on_c, 1, 46, 75
3, 3836, Note_off_c, 1, 46, 0
3, 3840, Note_on_c, 1, 43, 75
3, 4220, Note_off_c, 1, 43, 0
3, 4240, Note_on_c, 1, 46, 75
3, 4524, Note_off_c, 1, 46, 0
3, 4560, Note_on_c, 1, 58, 75
3, 4604, Note_off_c, 1, 58, 0
3, 4608, Note_on_c, 1, 57, 90
3, 4608, Note_on_c, 1, 48, 90
3, 4988, Note_off_c, 1, 57, 0
3, 4988, Note_off_c, 1, 48, 0
3, 4992, Note_on_c, 1, 55, 82
3, 4992, Note_on_c, 1, 48, 82
3, 5372, Note_off_c, 1, 55, 0
3, 5372, Note_off_c, 1, 48, 0
3, 5760, Note_on_c, 1, 53, 90
3, 5760, Note_on_c, 1, 41, 90
3, 6140, Note_off_c, 1, 53, 0
3, 6140, Note_off_c, 1, 41, 0
3, 6144, Note_on_c, 1, 57, 75
3, 6144, Note_on_c, 1, 45, 75
3, 6524, Note_off_c, 1, 57, 0
3, 6524, Note_off_c, 1, 45, 0
3, 6528, Note_on_c, 1, 60, 75
3, 6528, Note_on_c, 1, 48, 75
3, 6908, Note_off_c, 1, 60, 0
3, 6908, Note_off_c, 1, 48, 0
3, 6912, Note_on_c, 1, 62, 75
3, 6912, Note_on_c, 1, 50, 75
3, 7292, Note_off_c, 1, 62, 0
3, 7292, Note_off_c, 1, 50, 0
3, 7296, Note_on_c, 1, 62, 75
3, 7296, Note_on_c, 1, 50, 75
3, 7484, Note_off_c, 1, 62, 0
3, 7484, Note_off_c, 1, 50, 0
3, 7680, Note_on_c, 1, 50, 75
3, 7680, Note_on_c, 1, 46, 75
3, 7868, Note_off_c, 1, 50, 0
3, 7872, Note_on_c, 1, 52, 75
3, 8060, Note_off_c, 1, 46, 0
3, 8060, Note_off_c, 1, 52, 0
3, 8064, Note_on_c, 1, 55, 90
3, 8064, Note_on_c, 1, 43, 90
3, 8252, Note_off_c, 1, 43, 0
3, 8256, Note_on_c, 1, 46, 82
3, 8444, Note_off_c, 1, 55, 0
3, 8444, Note_off_c, 1, 46, 0
3, 8448, Note_on_c, 1, 53, 75
3, 8448, Note_on_c, 1, 48, 75
3, 8636, Note_off_c, 1, 53, 0
3, 8636, Note_off_c, 1, 48, 0
3, 8832, Note_on_c, 1, 52, 60
3, 8832, Note_on_c, 1, 48, 60
3, 9020, Note_off_c, 1, 52, 0
3, 9020, Note_off_c, 1, 48, 0
3, 9216, Note_on_c, 1, 53, 45
3, 9308, Note_off_c, 1, 53, 0
3, 9312, Note_on_c, 1, 57, 45
3, 9404, Note_off_c, 1, 57, 0
3, 9408, Note_on_c, 1, 60, 45
3, 9500, Note_off_c, 1, 60, 0
3, 9504, Note_on_c, 1, 57, 45
3, 9596, Note_off_c, 1, 57, 0
3, 9600, Note_on_c, 1, 53, 60
3, 9692, Note_off_c, 1, 53, 0
3, 9696, Note_on_c, 1, 57, 60
3, 9788, Note_off_c, 1, 57, 0
3, 9792, Note_on_c, 1, 60, 60
3, 9884, Note_off_c, 1, 60, 0
3, 9888, Note_on_c, 1, 57, 60
3, 9980, Note_off_c, 1, 57, 0
3, 9984, Note_on_c, 1, 53, 60
3, 10076, Note_off_c, 1, 53, 0
3, 10080, Note_on_c, 1, 57, 60
3, 10172, Note_off_c, 1, 57, 0
3, 10176, Note_on_c, 1, 60, 60
3, 10268, Note_off_c, 1, 60, 0
3, 10272, Note_on_c, 1, 57, 60
3, 10364, Note_off_c, 1, 57, 0
3, 10368, Note_on_c, 1, 55, 75
3, 10460, Note_off_c, 1, 55, 0
3, 10464, Note_on_c, 1, 58, 75
3, 10556, Note_off_c, 1, 58, 0
3, 10560, Note_on_c, 1, 60, 75
3, 10652, Note_off_c, 1, 60, 0
3, 10656, Note_on_c, 1, 58, 75
3, 10748, Note_off_c, 1, 58, 0
3, 10752, Note_on_c, 1, 55, 75
3, 10844, Note_off_c, 1, 55, 0
3, 10848, Note_on_c, 1, 58, 75
3, 10940, Note_off_c, 1, 58, 0
3, 10944, Note_on_c, 1, 60, 75
3, 11036, Note_off_c, 1, 60, 0
3, 11040, Note_on_c, 1, 58, 75
3, 11132, Note_off_c, 1, 58, 0
3, 11136, Note_on_c, 1, 52, 75
3, 11228, Note_off_c, 1, 52, 0
3, 11232, Note_on_c, 1, 55, 75
3, 11324, Note_off_c, 1, 55, 0
3, 11328, Note_on_c, 1, 60, 75
3, 11420, Note_off_c, 1, 60, 0
3, 11424, Note_on_c, 1, 55, 75
3, 11516, Note_off_c, 1, 55, 0
3, 11520, Note_on_c, 1, 53, 75
3, 11612, Note_off_c, 1, 53, 0
3, 11616, Note_on_c, 1, 57, 75
3, 11708, Note_off_c, 1, 57, 0
3, 11712, Note_on_c, 1, 60, 75
3, 11804, Note_off_c, 1, 60, 0
3, 11808, Note_on_c, 1, 57, 75
3, 11900, Note_off_c, 1, 57, 0
3, 11904, Note_on_c, 1, 53, 75
3, 11996, Note_off_c, 1, 53, 0
3, 12000, Note_on_c, 1, 57, 75
3, 12092, Note_off_c, 1, 57, 0
3, 12096, Note_on_c, 1, 60, 75
3, 12188, Note_off_c, 1, 60, 0
3, 12192, Note_on_c, 1, 57, 75
3, 12284, Note_off_c, 1, 57, 0
3, 12288, Note_on_c, 1, 53, 75
3, 12380, Note_off_c, 1, 53, 0
3, 12384, Note_on_c, 1, 57, 75
3, 12476, Note_off_c, 1, 57, 0
3, 12480, Note_on_c, 1, 60, 75
3, 12572, Note_off_c, 1, 60, 0
3, 12576, Note_on_c, 1, 57, 75
3, 12668, Note_off_c, 1, 57, 0
3, 12672, Note_on_c, 1, 55, 90
3, 12764, Note_off_c, 1, 55, 0
3, 12768, Note_on_c, 1, 58, 90
3, 12860, Note_off_c, 1, 58, 0
3, 12864, Note_on_c, 1, 60, 82
3, 12956, Note_off_c, 1, 60, 0
3, 12960, Note_on_c, 1, 58, 82
3, 13052, Note_off_c, 1, 58, 0
3, 13056, Note_on_c, 1, 55, 75
3, 13148, Note_off_c, 1, 55, 0
3, 13152, Note_on_c, 1, 58, 75
3, 13244, Note_off_c, 1, 58, 0
3, 13248, Note_on_c, 1, 60, 75
3, 13340, Note_off_c, 1, 60, 0
3, 13344, Note_on_c, 1, 58, 75
3, 13436, Note_off_c, 1, 58, 0
3, 13440, Note_on_c, 1, 52, 75
3, 13532, Note_off_c, 1, 52, 0
3, 13536, Note_on_c, 1, 55, 75
3, 13628, Note_off_c, 1, 55, 0
3, 13632, Note_on_c, 1, 60, 75
3, 13724, Note_off_c, 1, 60, 0
3, 13728, Note_on_c, 1, 55, 75
3, 13820, Note_off_c, 1, 55, 0
3, 13824, Note_on_c, 1, 53, 75
3, 13916, Note_off_c, 1, 53, 0
3, 13920, Note_on_c, 1, 60, 75
3, 14012, Note_off_c, 1, 60, 0
3, 14016, Note_on_c, 1, 55, 75
3, 14108, Note_off_c, 1, 55, 0
3, 14112, Note_on_c, 1, 60, 75
3, 14204, Note_off_c, 1, 60, 0
3, 14208, Note_on_c, 1, 57, 75
3, 14300, Note_off_c, 1, 57, 0
3, 14304, Note_on_c, 1, 60, 75
3, 14396, Note_off_c, 1, 60, 0
3, 14400, Note_on_c, 1, 53, 75
3, 14492, Note_off_c, 1, 53, 0
3, 14496, Note_on_c, 1, 57, 75
3, 14588, Note_off_c, 1, 57, 0
3, 14592, Note_on_c, 1, 48, 75
3, 14684, Note_off_c, 1, 48, 0
3, 14688, Note_on_c, 1, 53, 75
3, 14780, Note_off_c, 1, 53, 0
3, 14784, Note_on_c, 1, 45, 75
3, 14876, Note_off_c, 1, 45, 0
3, 14880, Note_on_c, 1, 48, 75
3, 14972, Note_off_c, 1, 48, 0
3, 14976, Note_on_c, 1, 46, 82
3, 15068, Note_off_c, 1, 46, 0
3, 15072, Note_on_c, 1, 50, 82
3, 15164, Note_off_c, 1, 50, 0
3, 15168, Note_on_c, 1, 55, 82
3, 15260, Note_off_c, 1, 55, 0
3, 15264, Note_on_c, 1, 50, 82
3, 15356, Note_off_c, 1, 50, 0
3, 15360, Note_on_c, 1, 46, 82
3, 15452, Note_off_c, 1, 46, 0
3, 15456, Note_on_c, 1, 50, 82
3, 15548, Note_off_c, 1, 50, 0
3, 15552, Note_on_c, 1, 55, 82
3, 15644, Note_off_c, 1, 55, 0
3, 15648, Note_on_c, 1, 50, 82
3, 15740, Note_off_c, 1, 50, 0
3, 15744, Note_on_c, 1, 43, 82
3, 15836, Note_off_c, 1, 43, 0
3, 15840, Note_on_c, 1, 46, 82
3, 15932, Note_off_c, 1, 46, 0
3, 15936, Note_on_c, 1, 50, 82
3, 16028, Note_off_c, 1, 50, 0
3, 16032, Note_on_c, 1, 46, 82
3, 16124, Note_off_c, 1, 46, 0
3, 16128, Note_on_c, 1, 57, 75
3, 16128, Note_on_c, 1, 48, 75
3, 16508, Note_off_c, 1, 57, 0
3, 16508, Note_off_c, 1, 48, 0
3, 16512, Note_on_c, 1, 55, 75
3, 16512, Note_on_c, 1, 48, 75
3, 16608, Note_on_c, 1, 60, 60
3, 16700, Note_off_c, 1, 55, 0
3, 16700, Note_off_c, 1, 48, 0
3, 16700, Note_off_c, 1, 60, 0
3, 16704, Note_on_c, 1, 59, 60
3, 16796, Note_off_c, 1, 59, 0
3, 16800, Note_on_c, 1, 60, 60
3, 16892, Note_off_c, 1, 60, 0
3, 16896, Note_on_c, 1, 55, 60
3, 16988, Note_off_c, 1, 55, 0
3, 16992, Note_on_c, 1, 60, 60
3, 17084, Note_off_c, 1, 60, 0
3, 17088, Note_on_c, 1, 52, 60
3, 17180, Note_off_c, 1, 52, 0
3, 17184, Note_on_c, 1, 55, 60
3, 17276, Note_off_c, 1, 55, 0
3, 17280, Note_on_c, 1, 48, 60
3, 17468, Note_off_c, 1, 48, 0
3, 17664, Note_on_c, 1, 52, 60
3, 17664, Note_on_c, 1, 48, 60
3, 17852, Note_off_c, 1, 52, 0
3, 17852, Note_off_c, 1, 48, 0
3, 17856, Note_on_c, 1, 53, 60
3, 17856, Note_on_c, 1, 50, 60
3, 18044, Note_off_c, 1, 53, 0
3, 18044, Note_off_c, 1, 50, 0
3, 18048, Note_on_c, 1, 55, 60
3, 18048, Note_on_c, 1, 52, 60
3, 18236, Note_off_c, 1, 55, 0
3, 18236, Note_off_c, 1, 52, 0
3, 18240, Note_on_c, 1, 52, 60
3, 18240, Note_on_c, 1, 48, 60
3, 18428, Note_off_c, 1, 52, 0
3, 18428, Note_off_c, 1, 48, 0
3, 18432, Note_on_c, 1, 53, 75
3, 18432, Note_on_c, 1, 50, 75
3, 18620, Note_off_c, 1, 53, 0
3, 18620, Note_off_c, 1, 50, 0
3, 18816, Note_on_c, 1, 46, 75
3, 18816, Note_on_c, 1, 50, 75
3, 19004, Note_off_c, 1, 46, 0
3, 19004, Note_off_c, 1, 50, 0
3, 19008, Note_on_c, 1, 48, 75
3, 19008, Note_on_c, 1, 45, 75
3, 19196, Note_off_c, 1, 48, 0
3, 19196, Note_off_c, 1, 45, 0
3, 19200, Note_on_c, 1, 46, 75
3, 19200, Note_on_c, 1, 43, 75
3, 19388, Note_off_c, 1, 46, 0
3, 19388, Note_off_c, 1, 43, 0
3, 19392, Note_on_c, 1, 50, 75
3, 19392, Note_on_c, 1, 41, 75
3, 19580, Note_off_c, 1, 50, 0
3, 19580, Note_off_c, 1, 41, 0
3, 19584, Note_on_c, 1, 48, 75
3, 19584, Note_on_c, 1, 40, 75
3, 19676, Note_off_c, 1, 48, 0
3, 19680, Note_on_c, 1, 55, 75
3, 19772, Note_off_c, 1, 40, 0
3, 19772, Note_off_c, 1, 55, 0
3, 19776, Note_on_c, 1, 55, 75
3, 19868, Note_off_c, 1, 55, 0
3, 19872, Note_on_c, 1, 55, 75
3, 19964, Note_off_c, 1, 55, 0
3, 19968, Note_on_c, 1, 55, 75
3, 19968, Note_on_c, 1, 52, 75
3, 20060, Note_off_c, 1, 55, 0
3, 20064, Note_on_c, 1, 55, 75
3, 20156, Note_off_c, 1, 52, 0
3, 20156, Note_off_c, 1, 55, 0
3, 20160, Note_on_c, 1, 55, 75
3, 20160, Note_on_c, 1, 53, 75
3, 20252, Note_off_c, 1, 55, 0
3, 20256, Note_on_c, 1, 55, 75
3, 20348, Note_off_c, 1, 53, 0
3, 20348, Note_off_c, 1, 55, 0
3, 20352, Note_on_c, 1, 55, 75
3, 20352, Note_on_c, 1, 52, 75
3, 20444, Note_off_c, 1, 55, 0
3, 20448, Note_on_c, 1, 57, 75
3, 20492, Note_off_c, 1, 57, 0
3, 20496, Note_on_c, 1, 59, 75
3, 20540, Note_off_c, 1, 52, 0
3, 20540, Note_off_c, 1, 59, 0
3, 20544, Note_on_c, 1, 60, 75
3, 20544, Note_on_c, 1, 48, 75
3, 20588, Note_off_c, 1, 60, 0
3, 20592, Note_on_c, 1, 59, 75
3, 20636, Note_off_c, 1, 59, 0
3, 20640, Note_on_c, 1, 57, 75
3, 20684, Note_off_c, 1, 57, 0
3, 20688, Note_on_c, 1, 55, 75
3, 20732, Note_off_c, 1, 48, 0
3, 20732, Note_off_c, 1, 55, 0
3, 20736, Note_on_c, 1, 53, 75
3, 20736, Note_on_c, 1, 50, 75
3, 20828, Note_off_c, 1, 53, 0
3, 20832, Note_on_c, 1, 53, 75
3, 20924, Note_off_c, 1, 50, 0
3, 20924, Note_off_c, 1, 53, 0
3, 20928, Note_on_c, 1, 53, 75
3, 21020, Note_off_c, 1, 53, 0
3, 21024, Note_on_c, 1, 53, 75
3, 21116, Note_off_c, 1, 53, 0
3, 21120, Note_on_c, 1, 53, 75
3, 21120, Note_on_c, 1, 50, 75
3, 21212, Note_off_c, 1, 53, 0
3, 21216, Note_on_c, 1, 53, 75
3, 21308, Note_off_c, 1, 50, 0
3, 21308, Note_off_c, 1, 53, 0
3, 21312, Note_on_c, 1, 53, 75
3, 21312, Note_on_c, 1, 47, 75
3, 21404, Note_off_c, 1, 53, 0
3, 21408, Note_on_c, 1, 53, 75
3, 21500, Note_off_c, 1, 47, 0
3, 21500, Note_off_c, 1, 53, 0
3, 21504, Note_on_c, 1, 53, 75
3, 21504, Note_on_c, 1, 43, 75
3, 21596, Note_off_c, 1, 53, 0
3, 21600, Note_on_c, 1, 52, 75
3, 21644, Note_off_c, 1, 52, 0
3, 21648, Note_on_c, 1, 50, 75
3, 21692, Note_off_c, 1, 43, 0
3, 21692, Note_off_c, 1, 50, 0
3, 21696, Note_on_c, 1, 48, 75
3, 21696, Note_on_c, 1, 41, 75
3, 21740, Note_off_c, 1, 48, 0
3, 21744, Note_on_c, 1, 47, 75
3, 21788, Note_off_c, 1, 47, 0
3, 21792, Note_on_c, 1, 45, 75
3, 21836, Note_off_c, 1, 45, 0
3, 21840, Note_on_c, 1, 43, 75
3, 21884, Note_off_c, 1, 41, 0
3, 21884, Note_off_c, 1, 43, 0
3, 21888, Note_on_c, 1, 48, 75
3, 21888, Note_on_c, 1, 40, 75
3, 22076, Note_off_c, 1, 48, 0
3, 22076, Note_off_c, 1, 40, 0
3, 22272, Note_on_c, 1, 53, 90
3, 22272, Note_on_c, 1, 41, 90
3, 22652, Note_off_c, 1, 53, 0
3, 22652, Note_off_c, 1, 41, 0
3, 22656, Note_on_c, 1, 55, 90
3, 22656, Note_on_c, 1, 43, 90
3, 23036, Note_off_c, 1, 55, 0
3, 23036, Note_off_c, 1, 43, 0
3, 23040, Note_on_c, 1, 57, 90
3, 23040, Note_on_c, 1, 45, 90
3, 23420, Note_off_c, 1, 57, 0
3, 23420, Note_off_c, 1, 45, 0
3, 23616, Note_on_c, 1, 57, 75
3, 23708, Note_off_c, 1, 57, 0
3, 23712, Note_on_c, 1, 55, 75
3, 23804, Note_off_c, 1, 55, 0
3, 23808, Note_on_c, 1, 53, 75
3, 23900, Note_off_c, 1, 53, 0
3, 23904, Note_on_c, 1, 55, 75
3, 23996, Note_off_c, 1, 55, 0
3, 24000, Note_on_c, 1, 57, 75
3, 24092, Note_off_c, 1, 57, 0
3, 24096, Note_on_c, 1, 59, 75
3, 24188, Note_off_c, 1, 59, 0
3, 24192, Note_on_c, 1, 60, 75
3, 24380, Note_off_c, 1, 60, 0
3, 24384, Note_on_c, 1, 53, 75
3, 24572, Note_off_c, 1, 53, 0
3, 24576, Note_on_c, 1, 55, 75
3, 24764, Note_off_c, 1, 55, 0
3, 24960, Note_on_c, 1, 43, 75
3, 25148, Note_off_c, 1, 43, 0
3, 25344, Note_on_c, 1, 48, 90
3, 25532, Note_off_c, 1, 48, 0
3, 25824, Note_on_c, 1, 48, 90
3, 25916, Note_off_c, 1, 48, 0
3, 25920, Note_on_c, 1, 60, 90
3, 26012, Note_off_c, 1, 60, 0
3, 26016, Note_on_c, 1, 59, 90
3, 26108, Note_off_c, 1, 59, 0
3, 26112, Note_on_c, 1, 57, 60
3, 26204, Note_off_c, 1, 57, 0
3, 26208, Note_on_c, 1, 45, 90
3, 26300, Note_off_c, 1, 45, 0
3, 26304, Note_on_c, 1, 57, 90
3, 26396, Note_off_c, 1, 57, 0
3, 26400, Note_on_c, 1, 55, 90
3, 26492, Note_off_c, 1, 55, 0
3, 26496, Note_on_c, 1, 53, 60
3, 26588, Note_off_c, 1, 53, 0
3, 26592, Note_on_c, 1, 41, 90
3, 26684, Note_off_c, 1, 41, 0
3, 26688, Note_on_c, 1, 53, 90
3, 26780, Note_off_c, 1, 53, 0
3, 26784, Note_on_c, 1, 52, 90
3, 26876, Note_off_c, 1, 52, 0
3, 26880, Note_on_c, 1, 53, 60
3, 26972, Note_off_c, 1, 53, 0
3, 26976, Note_on_c, 1, 61, 75
3, 26976, Note_on_c, 1, 49, 75
3, 27068, Note_off_c, 1, 61, 0
3, 27068, Note_off_c, 1, 49, 0
3, 27072, Note_on_c, 1, 62, 75
3, 27072, Note_on_c, 1, 50, 75
3, 27164, Note_off_c, 1, 62, 0
3, 27164, Note_off_c, 1, 50, 0
3, 27168, Note_on_c, 1, 64, 75
3, 27168, Note_on_c, 1, 52, 75
3, 27260, Note_off_c, 1, 64, 0
3, 27260, Note_off_c, 1, 52, 0
3, 27264, Note_on_c, 1, 65, 75
3, 27264, Note_on_c, 1, 53, 75
3, 27356, Note_off_c, 1, 65, 0
3, 27356, Note_off_c, 1, 53, 0
3, 27360, Note_on_c, 1, 62, 75
3, 27360, Note_on_c, 1, 50, 75
3, 27452, Note_off_c, 1, 62, 0
3, 27452, Note_off_c, 1, 50, 0
3, 27456, Note_on_c, 1, 64, 75
3, 27456, Note_on_c, 1, 52, 75
3, 27548, Note_off_c, 1, 64, 0
3, 27548, Note_off_c, 1, 52, 0
3, 27552, Note_on_c, 1, 59, 75
3, 27552, Note_on_c, 1, 47, 75
3, 27644, Note_off_c, 1, 59, 0
3, 27644, Note_off_c, 1, 47, 0
3, 27648, Note_on_c, 1, 48, 90
3, 27648, Note_on_c, 1, 60, 90
3, 27836, Note_off_c, 1, 48, 0
3, 27836, Note_off_c, 1, 60, 0
3, 27840, Note_on_c, 1, 53, 90
3, 27840, Note_on_c, 1, 41, 90
3, 28028, Note_off_c, 1, 53, 0
3, 28028, Note_off_c, 1, 41, 0
3, 28032, Note_on_c, 1, 55, 90
3, 28032, Note_on_c, 1, 43, 90
3, 28220, Note_off_c, 1, 55, 0
3, 28220, Note_off_c, 1, 43, 0
3, 28416, Note_on_c, 1, 55, 90
3, 28416, Note_on_c, 1, 43, 90
3, 28604, Note_off_c, 1, 55, 0
3, 28604, Note_off_c, 1, 43, 0
3, 28800, Note_on_c, 1, 48, 90
3, 28800, Note_on_c, 1, 36, 90
3, 28988, Note_off_c, 1, 48, 0
3, 28988, Note_off_c, 1, 36, 0
3, 29280, Note_on_c, 1, 48, 90
3, 29372, Note_off_c, 1, 48, 0
3, 29376, Note_on_c, 1, 60, 90
3, 29468, Note_off_c, 1, 60, 0
3, 29472, Note_on_c, 1, 59, 90
3, 29564, Note_off_c, 1, 59, 0
3, 29568, Note_on_c, 1, 57, 60
3, 29660, Note_off_c, 1, 57, 0
3, 29664, Note_on_c, 1, 45, 90
3, 29756, Note_off_c, 1, 45, 0
3, 29760, Note_on_c, 1, 57, 90
3, 29852, Note_off_c, 1, 57, 0
3, 29856, Note_on_c, 1, 55, 90
3, 29948, Note_off_c, 1, 55, 0
3, 29952, Note_on_c, 1, 53, 60
3, 30140, Note_off_c, 1, 53, 0
3, 30336, Note_on_c, 1, 57, 75
3, 30336, Note_on_c, 1, 53, 75
3, 30524, Note_off_c, 1, 57, 0
3, 30524, Note_off_c, 1, 53, 0
3, 30720, Note_on_c, 1, 57, 75
3, 30720, Note_on_c, 1, 53, 75
3, 30908, Note_off_c, 1, 57, 0
3, 30908, Note_off_c, 1, 53, 0
3, 31152, Note_on_c, 1, 31, 60
3, 31196, Note_off_c, 1, 31, 0
3, 31200, Note_on_c, 1, 33, 60
3, 31244, Note_off_c, 1, 33, 0
3, 31248, Note_on_c, 1, 35, 60
3, 31292, Note_off_c, 1, 35, 0
3, 31296, Note_on_c, 1, 36, 67
3, 31340, Note_off_c, 1, 36, 0
3, 31344, Note_on_c, 1, 38, 67
3, 31388, Note_off_c, 1, 38, 0
3, 31392, Note_on_c, 1, 40, 67
3, 31436, Note_off_c, 1, 40, 0
3, 31440, Note_on_c, 1, 41, 67
3, 31484, Note_off_c, 1, 41, 0
3, 31488, Note_on_c, 1, 43, 75
3, 31532, Note_off_c, 1, 43, 0
3, 31536, Note_on_c, 1, 43, 75
3, 31580, Note_off_c, 1, 43, 0
3, 31584, Note_on_c, 1, 45, 75
3, 31628, Note_off_c, 1, 45, 0
3, 31632, Note_on_c, 1, 47, 75
3, 31676, Note_off_c, 1, 47, 0
3, 31680, Note_on_c, 1, 48, 78
3, 31724, Note_off_c, 1, 48, 0
3, 31728, Note_on_c, 1, 50, 78
3, 31772, Note_off_c, 1, 50, 0
3, 31776, Note_on_c, 1, 52, 78
3, 31820, Note_off_c, 1, 52, 0
3, 31824, Note_on_c, 1, 53, 78
3, 31868, Note_off_c, 1, 53, 0
3, 31872, Note_on_c, 1, 55, 81
3, 31916, Note_off_c, 1, 55, 0
3, 31920, Note_on_c, 1, 55, 81
3, 31964, Note_off_c, 1, 55, 0
3, 31968, Note_on_c, 1, 57, 81
3, 32012, Note_off_c, 1, 57, 0
3, 32016, Note_on_c, 1, 59, 81
3, 32060, Note_off_c, 1, 59, 0
3, 32064, Note_on_c, 1, 60, 84
3, 32108, Note_off_c, 1, 60, 0
3, 32112, Note_on_c, 1, 62, 84
3, 32156, Note_off_c, 1, 62, 0
3, 32160, Note_on_c, 1, 64, 84
3, 32204, Note_off_c, 1, 64, 0
3, 32208, Note_on_c, 1, 65, 84
3, 32252, Note_off_c, 1, 65, 0
3, 32256, Note_on_c, 1, 67, 84
3, 32444, Note_off_c, 1, 67, 0
3, 32832, Note_on_c, 1, 43, 90
3, 33020, Note_off_c, 1, 43, 0
3, 33024, Note_on_c, 1, 55, 90
3, 33048, Note_off_c, 1, 55, 0
3, 33048, Note_on_c, 1, 53, 90
3, 33072, Note_off_c, 1, 53, 0
3, 33072, Note_on_c, 1, 55, 90
3, 33096, Note_off_c, 1, 55, 0
3, 33096, Note_on_c, 1, 53, 90
3, 33120, Note_off_c, 1, 53, 0
3, 33120, Note_on_c, 1, 55, 90
3, 33144, Note_off_c, 1, 55, 0
3, 33144, Note_on_c, 1, 53, 90
3, 33168, Note_off_c, 1, 53, 0
3, 33168, Note_on_c, 1, 55, 90
3, 33192, Note_off_c, 1, 55, 0
3, 33192, Note_on_c, 1, 53, 90
3, 33216, Note_off_c, 1, 53, 0
3, 33216, Note_on_c, 1, 52, 90
3, 33308, Note_off_c, 1, 52, 0
3, 33312, Note_on_c, 1, 53, 90
3, 33404, Note_off_c, 1, 53, 0
3, 33408, Note_on_c, 1, 52, 60
3, 33408, Note_on_c, 1, 48, 60
3, 33596, Note_off_c, 1, 52, 0
3, 33600, Note_on_c, 1, 58, 60
3, 33788, Note_off_c, 1, 48, 0
3, 33788, Note_off_c, 1, 58, 0
3, 33792, Note_on_c, 1, 57, 60
3, 33792, Note_on_c, 1, 48, 60
3, 34172, Note_off_c, 1, 57, 0
3, 34172, Note_off_c, 1, 48, 0
3, 34176, Note_on_c, 1, 53, 60
3, 34176, Note_on_c, 1, 50, 60
3, 34176, Note_on_c, 1, 48, 60
3, 34556, Note_off_c, 1, 53, 0
3, 34556, Note_off_c, 1, 50, 0
3, 34556, Note_off_c, 1, 48, 0
3, 34560, Note_on_c, 1, 52, 75
3, 34560, Note_on_c, 1, 48, 75
3, 34652, Note_off_c, 1, 52, 0
3, 34652, Note_off_c, 1, 48, 0
3, 34752, Note_on_c, 1, 58, 75
3, 34752, Note_on_c, 1, 48, 75
3, 34940, Note_off_c, 1, 58, 0
3, 34944, Note_on_c, 1, 57, 75
3, 35132, Note_off_c, 1, 48, 0
3, 35132, Note_off_c, 1, 57, 0
3, 35328, Note_on_c, 1, 53, 75
3, 35328, Note_on_c, 1, 50, 75
3, 35328, Note_on_c, 1, 48, 75
3, 35520, Note_on_c, 1, 60, 75
3, 35544, Note_off_c, 1, 60, 0
3, 35544, Note_on_c, 1, 59, 75
3, 35568, Note_off_c, 1, 59, 0
3, 35568, Note_on_c, 1, 60, 75
3, 35592, Note_off_c, 1, 60, 0
3, 35592, Note_on_c, 1, 59, 75
3, 35616, Note_off_c, 1, 59, 0
3, 35616, Note_on_c, 1, 60, 75
3, 35640, Note_off_c, 1, 60, 0
3, 35640, Note_on_c, 1, 59, 75
3, 35664, Note_off_c, 1, 59, 0
3, 35664, Note_on_c, 1, 57, 75
3, 35688, Note_off_c, 1, 57, 0
3, 35688, Note_on_c, 1, 59, 75
3, 35708, Note_off_c, 1, 53, 0
3, 35708, Note_off_c, 1, 50, 0
3, 35708, Note_off_c, 1, 48, 0
3, 35712, Note_off_c, 1, 59, 0
3, 35712, Note_on_c, 1, 59, 90
3, 35712, Note_on_c, 1, 55, 90
3, 35712, Note_on_c, 1, 53, 90
3, 35712, Note_on_c, 1, 50, 90
3, 35712, Note_on_c, 1, 48, 90
3, 35712, Note_on_c, 1, 36, 90
3, 36092, Note_off_c, 1, 59, 0
3, 36092, Note_off_c, 1, 55, 0
3, 36092, Note_off_c, 1, 53, 0
3, 36092, Note_off_c, 1, 50, 0
3, 36092, Note_off_c, 1, 48, 0
3, 36092, Note_off_c, 1, 36, 0
3, 36096, Note_on_c, 1, 60, 60
3, 36096, Note_on_c, 1, 55, 60
3, 36096, Note_on_c, 1, 52, 60
3, 36096, Note_on_c, 1, 48, 60
3, 36096, Note_on_c, 1, 36, 60
3, 36284, Note_off_c, 1, 60, 0
3, 36284, Note_off_c, 1, 55, 0
3, 36284, Note_off_c, 1, 52, 0
3, 36284, Note_off_c, 1, 48, 0
3, 36284, Note_off_c, 1, 36, 0
3, 36864, Note_on_c, 1, 53, 90
3, 36864, Note_on_c, 1, 41, 90
3, 37244, Note_off_c, 1, 53, 0
3, 37244, Note_off_c, 1, 41, 0
3, 37248, Note_on_c, 1, 57, 60
3, 37248, Note_on_c, 1, 45, 60
3, 37628, Note_off_c, 1, 57, 0
3, 37628, Note_off_c, 1, 45, 0
3, 37632, Note_on_c, 1, 60, 60
3, 37632, Note_on_c, 1, 48, 60
3, 38012, Note_off_c, 1, 60, 0
3, 38012, Note_off_c, 1, 48, 0
3, 38016, Note_on_c, 1, 62, 67
3, 38016, Note_on_c, 1, 50, 67
3, 38396, Note_off_c, 1, 62, 0
3, 38396, Note_off_c, 1, 50, 0
3, 38400, Note_on_c, 1, 50, 75
3, 38400, Note_on_c, 1, 62, 75
3, 38588, Note_off_c, 1, 50, 0
3, 38588, Note_off_c, 1, 62, 0
3, 38784, Note_on_c, 1, 45, 90
3, 39164, Note_off_c, 1, 45, 0
3, 39168, Note_on_c, 1, 46, 75
3, 39548, Note_off_c, 1, 46, 0
3, 39552, Note_on_c, 1, 43, 75
3, 39932, Note_off_c, 1, 43, 0
3, 39952, Note_on_c, 1, 46, 75
3, 40236, Note_off_c, 1, 46, 0
3, 40272, Note_on_c, 1, 58, 75
3, 40316, Note_off_c, 1, 58, 0
3, 40320, Note_on_c, 1, 57, 90
3, 40320, Note_on_c, 1, 48, 90
3, 40700, Note_off_c, 1, 57, 0
3, 40700, Note_off_c, 1, 48, 0
3, 40704, Note_on_c, 1, 55, 82
3, 40704, Note_on_c, 1, 48, 82
3, 41084, Note_off_c, 1, 55, 0
3, 41084, Note_off_c, 1, 48, 0
3, 41472, Note_on_c, 1, 53, 90
3, 41472, Note_on_c, 1, 41, 90
3, 41852, Note_off_c, 1, 53, 0
3, 41852, Note_off_c, 1, 41, 0
3, 41856, Note_on_c, 1, 57, 75
3, 41856, Note_on_c, 1, 45, 75
3, 42236, Note_off_c, 1, 57, 0
3, 42236, Note_off_c, 1, 45, 0
3, 42240, Note_on_c, 1, 60, 75
3, 42240, Note_on_c, 1, 48, 75
3, 42620, Note_off_c, 1, 60, 0
3, 42620, Note_off_c, 1, 48, 0
3, 42624, Note_on_c, 1, 62, 75
3, 42624, Note_on_c, 1, 50, 75
3, 43004, Note_off_c, 1, 62, 0
3, 43004, Note_off_c, 1, 50, 0
3, 43008, Note_on_c, 1, 62, 75
3, 43008, Note_on_c, 1, 50, 75
3, 43196, Note_off_c, 1, 62, 0
3, 43196, Note_off_c, 1, 50, 0
3, 43392, Note_on_c, 1, 50, 75
3, 43392, Note_on_c, 1, 46, 75
3, 43580, Note_off_c, 1, 50, 0
3, 43584, Note_on_c, 1, 52, 75
3, 43772, Note_off_c, 1, 46, 0
3, 43772, Note_off_c, 1, 52, 0
3, 43776, Note_on_c, 1, 55, 90
3, 43776, Note_on_c, 1, 43, 90
3, 43964, Note_off_c, 1, 43, 0
3, 43968, Note_on_c, 1, 46, 82
3, 44156, Note_off_c, 1, 55, 0
3, 44156, Note_off_c, 1, 46, 0
3, 44160, Note_on_c, 1, 53, 75
3, 44160, Note_on_c, 1, 48, 75
3, 44348, Note_off_c, 1, 53, 0
3, 44348, Note_off_c, 1, 48, 0
3, 44544, Note_on_c, 1, 52, 60
3, 44544, Note_on_c, 1, 48, 60
3, 44732, Note_off_c, 1, 52, 0
3, 44732, Note_off_c, 1, 48, 0
3, 44928, Note_on_c, 1, 53, 45
3, 45020, Note_off_c, 1, 53, 0
3, 45024, Note_on_c, 1, 57, 45
3, 45116, Note_off_c, 1, 57, 0
3, 45120, Note_on_c, 1, 60, 45
3, 45212, Note_off_c, 1, 60, 0
3, 45216, Note_on_c, 1, 57, 45
3, 45308, Note_off_c, 1, 57, 0
3, 45312, Note_on_c, 1, 53, 60
3, 45404, Note_off_c, 1, 53, 0
3, 45408, Note_on_c, 1, 57, 60
3, 45500, Note_off_c, 1, 57, 0
3, 45504, Note_on_c, 1, 60, 60
3, 45596, Note_off_c, 1, 60, 0
3, 45600, Note_on_c, 1, 57, 60
3, 45692, Note_off_c, 1, 57, 0
3, 45696, Note_on_c, 1, 53, 60
3, 45788, Note_off_c, 1, 53, 0
3, 45792, Note_on_c, 1, 57, 60
3, 45884, Note_off_c, 1, 57, 0
3, 45888, Note_on_c, 1, 60, 60
3, 45980, Note_off_c, 1, 60, 0
3, 45984, Note_on_c, 1, 57, 60
3, 46076, Note_off_c, 1, 57, 0
3, 46080, Note_on_c, 1, 55, 75
3, 46172, Note_off_c, 1, 55, 0
3, 46176, Note_on_c, 1, 58, 75
3, 46268, Note_off_c, 1, 58, 0
3, 46272, Note_on_c, 1, 60, 75
3, 46364, Note_off_c, 1, 60, 0
3, 46368, Note_on_c, 1, 58, 75
3, 46460, Note_off_c, 1, 58, 0
3, 46464, Note_on_c, 1, 55, 75
3, 46556, Note_off_c, 1, 55, 0
3, 46560, Note_on_c, 1, 58, 75
3, 46652, Note_off_c, 1, 58, 0
3, 46656, Note_on_c, 1, 60, 75
3, 46748, Note_off_c, 1, 60, 0
3, 46752, Note_on_c, 1, 58, 75
3, 46844, Note_off_c, 1, 58, 0
3, 46848, Note_on_c, 1, 52, 75
3, 46940, Note_off_c, 1, 52, 0
3, 46944, Note_on_c, 1, 55, 75
3, 47036, Note_off_c, 1, 55, 0
3, 47040, Note_on_c, 1, 60, 75
3, 47132, Note_off_c, 1, 60, 0
3, 47136, Note_on_c, 1, 55, 75
3, 47228, Note_off_c, 1, 55, 0
3, 47232, Note_on_c, 1, 53, 75
3, 47324, Note_off_c, 1, 53, 0
3, 47328, Note_on_c, 1, 57, 75
3, 47420, Note_off_c, 1, 57, 0
3, 47424, Note_on_c, 1, 60, 75
3, 47516, Note_off_c, 1, 60, 0
3, 47520, Note_on_c, 1, 57, 75
3, 47612, Note_off_c, 1, 57, 0
3, 47616, Note_on_c, 1, 53, 75
3, 47708, Note_off_c, 1, 53, 0
3, 47712, Note_on_c, 1, 57, 75
3, 47804, Note_off_c, 1, 57, 0
3, 47808, Note_on_c, 1, 60, 75
3, 47900, Note_off_c, 1, 60, 0
3, 47904, Note_on_c, 1, 57, 75
3, 47996, Note_off_c, 1, 57, 0
3, 48000, Note_on_c, 1, 53, 75
3, 48092, Note_off_c, 1, 53, 0
3, 48096, Note_on_c, 1, 57, 75
3, 48188, Note_off_c, 1, 57, 0
3, 48192, Note_on_c, 1, 60, 75
3, 48284, Note_off_c, 1, 60, 0
3, 48288, Note_on_c, 1, 57, 75
3, 48380, Note_off_c, 1, 57, 0
3, 48384, Note_on_c, 1, 55, 90
3, 48476, Note_off_c, 1, 55, 0
3, 48480, Note_on_c, 1, 58, 90
3, 48572, Note_off_c, 1, 58, 0
3, 48576, Note_on_c, 1, 60, 82
3, 48668, Note_off_c, 1, 60, 0
3, 48672, Note_on_c, 1, 58, 82
3, 48764, Note_off_c, 1, 58, 0
3, 48768, Note_on_c, 1, 55, 75
3, 48860, Note_off_c, 1, 55, 0
3, 48864, Note_on_c, 1, 58, 75
3, 48956, Note_off_c, 1, 58, 0
3, 48960, Note_on_c, 1, 60, 75
3, 49052, Note_off_c, 1, 60, 0
3, 49056, Note_on_c, 1, 58, 75
3, 49148, Note_off_c, 1, 58, 0
3, 49152, Note_on_c, 1, 52, 75
3, 49244, Note_off_c, 1, 52, 0
3, 49248, Note_on_c, 1, 55, 75
3, 49340, Note_off_c, 1, 55, 0
3, 49344, Note_on_c, 1, 60, 75
3, 49436, Note_off_c, 1, 60, 0
3, 49440, Note_on_c, 1, 55, 75
3, 49532, Note_off_c, 1, 55, 0
3, 49536, Note_on_c, 1, 53, 75
3, 49628, Note_off_c, 1, 53, 0
3, 49632, Note_on_c, 1, 60, 75
3, 49724, Note_off_c, 1, 60, 0
3, 49728, Note_on_c, 1, 55, 75
3, 49820, Note_off_c, 1, 55, 0
3, 49824, Note_on_c, 1, 60, 75
3, 49916, Note_off_c, 1, 60, 0
3, 49920, Note_on_c, 1, 57, 75
3, 50012, Note_off_c, 1, 57, 0
3, 50016, Note_on_c, 1, 60, 75
3, 50108, Note_off_c, 1, 60, 0
3, 50112, Note_on_c, 1, 53, 75
3, 50204, Note_off_c, 1, 53, 0
3, 50208, Note_on_c, 1, 57, 75
3, 50300, Note_off_c, 1, 57, 0
3, 50304, Note_on_c, 1, 48, 75
3, 50396, Note_off_c, 1, 48, 0
3, 50400, Note_on_c, 1, 53, 75
3, 50492, Note_off_c, 1, 53, 0
3, 50496, Note_on_c, 1, 45, 75
3, 50588, Note_off_c, 1, 45, 0
3, 50592, Note_on_c, 1, 48, 75
3, 50684, Note_off_c, 1, 48, 0
3, 50688, Note_on_c, 1, 46, 82
3, 50780, Note_off_c, 1, 46, 0
3, 50784, Note_on_c, 1, 50, 82
3, 50876, Note_off_c, 1, 50, 0
3, 50880, Note_on_c, 1, 55, 82
3, 50972, Note_off_c, 1, 55, 0
3, 50976, Note_on_c, 1, 50, 82
3, 51068, Note_off_c, 1, 50, 0
3, 51072, Note_on_c, 1, 46, 82
3, 51164, Note_off_c, 1, 46, 0
3, 51168, Note_on_c, 1, 50, 82
3, 51260, Note_off_c, 1, 50, 0
3, 51264, Note_on_c, 1, 55, 82
3, 51356, Note_off_c, 1, 55, 0
3, 51360, Note_on_c, 1, 50, 82
3, 51452, Note_off_c, 1, 50, 0
3, 51456, Note_on_c, 1, 43, 82
3, 51548, Note_off_c, 1, 43, 0
3, 51552, Note_on_c, 1, 46, 82
3, 51644, Note_off_c, 1, 46, 0
3, 51648, Note_on_c, 1, 50, 82
3, 51740, Note_off_c, 1, 50, 0
3, 51744, Note_on_c, 1, 46, 82
3, 51836, Note_off_c, 1, 46, 0
3, 51840, Note_on_c, 1, 57, 75
3, 51840, Note_on_c, 1, 48, 75
3, 52220, Note_off_c, 1, 57, 0
3, 52220, Note_off_c, 1, 48, 0
3, 52224, Note_on_c, 1, 55, 75
3, 52224, Note_on_c, 1, 48, 75
3, 52320, Note_on_c, 1, 60, 60
3, 52412, Note_off_c, 1, 55, 0
3, 52412, Note_off_c, 1, 48, 0
3, 52412, Note_off_c, 1, 60, 0
3, 52416, Note_on_c, 1, 59, 60
3, 52508, Note_off_c, 1, 59, 0
3, 52512, Note_on_c, 1, 60, 60
3, 52604, Note_off_c, 1, 60, 0
3, 52608, Note_on_c, 1, 55, 60
3, 52700, Note_off_c, 1, 55, 0
3, 52704, Note_on_c, 1, 60, 60
3, 52796, Note_off_c, 1, 60, 0
3, 52800, Note_on_c, 1, 52, 60
3, 52892, Note_off_c, 1, 52, 0
3, 52896, Note_on_c, 1, 55, 60
3, 52988, Note_off_c, 1, 55, 0
3, 52992, Note_on_c, 1, 48, 60
3, 53180, Note_off_c, 1, 48, 0
3, 53376, Note_on_c, 1, 52, 60
3, 53376, Note_on_c, 1, 48, 60
3, 53564, Note_off_c, 1, 52, 0
3, 53564, Note_off_c, 1, 48, 0
3, 53568, Note_on_c, 1, 53, 60
3, 53568, Note_on_c, 1, 50, 60
3, 53756, Note_off_c, 1, 53, 0
3, 53756, Note_off_c, 1, 50, 0
3, 53760, Note_on_c, 1, 55, 60
3, 53760, Note_on_c, 1, 52, 60
3, 53948, Note_off_c, 1, 55, 0
3, 53948, Note_off_c, 1, 52, 0
3, 53952, Note_on_c, 1, 52, 60
3, 53952, Note_on_c, 1, 48, 60
3, 54140, Note_off_c, 1, 52, 0
3, 54140, Note_off_c, 1, 48, 0
3, 54144, Note_on_c, 1, 53, 75
3, 54144, Note_on_c, 1, 50, 75
3, 54332, Note_off_c, 1, 53, 0
3, 54332, Note_off_c, 1, 50, 0
3, 54528, Note_on_c, 1, 46, 75
3, 54528, Note_on_c, 1, 50, 75
3, 54716, Note_off_c, 1, 46, 0
3, 54716, Note_off_c, 1, 50, 0
3, 54720, Note_on_c, 1, 48, 75
3, 54720, Note_on_c, 1, 45, 75
3, 54908, Note_off_c, 1, 48, 0
3, 54908, Note_off_c, 1, 45, 0
3, 54912, Note_on_c, 1, 46, 75
3, 54912, Note_on_c, 1, 43, 75
3, 55100, Note_off_c, 1, 46, 0
3, 55100, Note_off_c, 1, 43, 0
3, 55104, Note_on_c, 1, 50, 75
3, 55104, Note_on_c, 1, 41, 75
3, 55292, Note_off_c, 1, 50, 0
3, 55292, Note_off_c, 1, 41, 0
3, 55296, Note_on_c, 1, 48, 75
3, 55296, Note_on_c, 1, 40, 75
3, 55388, Note_off_c, 1, 48, 0
3, 55392, Note_on_c, 1, 55, 75
3, 55484, Note_off_c, 1, 40, 0
3, 55484, Note_off_c, 1, 55, 0
3, 55488, Note_on_c, 1, 55, 75
3, 55580, Note_off_c, 1, 55, 0
3, 55584, Note_on_c, 1, 55, 75
3, 55676, Note_off_c, 1, 55, 0
3, 55680, Note_on_c, 1, 55, 75
3, 55680, Note_on_c, 1, 52, 75
3, 55772, Note_off_c, 1, 55, 0
3, 55776, Note_on_c, 1, 55, 75
3, 55868, Note_off_c, 1, 52, 0
3, 55868, Note_off_c, 1, 55, 0
3, 55872, Note_on_c, 1, 55, 75
3, 55872, Note_on_c, 1, 53, 75
3, 55964, Note_off_c, 1, 55, 0
3, 55968, Note_on_c, 1, 55, 75
3, 56060, Note_off_c, 1, 53, 0
3, 56060, Note_off_c, 1, 55, 0
3, 56064, Note_on_c, 1, 55, 75
3, 56064, Note_on_c, 1, 52, 75
3, 56156, Note_off_c, 1, 55, 0
3, 56160, Note_on_c, 1, 57, 75
3, 56204, Note_off_c, 1, 57, 0
3, 56208, Note_on_c, 1, 59, 75
3, 56252, Note_off_c, 1, 52, 0
3, 56252, Note_off_c, 1, 59, 0
3, 56256, Note_on_c, 1, 60, 75
3, 56256, Note_on_c, 1, 48, 75
3, 56300, Note_off_c, 1, 60, 0
3, 56304, Note_on_c, 1, 59, 75
3, 56348, Note_off_c, 1, 59, 0
3, 56352, Note_on_c, 1, 57, 75
3, 56396, Note_off_c, 1, 57, 0
3, 56400, Note_on_c, 1, 55, 75
3, 56444, Note_off_c, 1, 48, 0
3, 56444, Note_off_c, 1, 55, 0
3, 56448, Note_on_c, 1, 53, 75
3, 56448, Note_on_c, 1, 50, 75
3, 56540, Note_off_c, 1, 53, 0
3, 56544, Note_on_c, 1, 53, 75
3, 56636, Note_off_c, 1, 50, 0
3, 56636, Note_off_c, 1, 53, 0
3, 56640, Note_on_c, 1, 53, 75
3, 56732, Note_off_c, 1, 53, 0
3, 56736, Note_on_c, 1, 53, 75
3, 56828, Note_off_c, 1, 53, 0
3, 56832, Note_on_c, 1, 53, 75
3, 56832, Note_on_c, 1, 50, 75
3, 56924, Note_off_c, 1, 53, 0
3, 56928, Note_on_c, 1, 53, 75
3, 57020, Note_off_c, 1, 50, 0
3, 57020, Note_off_c, 1, 53, 0
3, 57024, Note_on_c, 1, 53, 75
3, 57024, Note_on_c, 1, 47, 75
3, 57116, Note_off_c, 1, 53, 0
3, 57120, Note_on_c, 1, 53, 75
3, 57212, Note_off_c, 1, 47, 0
3, 57212, Note_off_c, 1, 53, 0
3, 57216, Note_on_c, 1, 53, 75
3, 57216, Note_on_c, 1, 43, 75
3, 57308, Note_off_c, 1, 53, 0
3, 57312, Note_on_c, 1, 52, 75
3, 57356, Note_off_c, 1, 52, 0
3, 57360, Note_on_c, 1, 50, 75
3, 57404, Note_off_c, 1, 43, 0
3, 57404, Note_off_c, 1, 50, 0
3, 57408, Note_on_c, 1, 48, 75
3, 57408, Note_on_c, 1, 41, 75
3, 57452, Note_off_c, 1, 48, 0
3, 57456, Note_on_c, 1, 47, 75
3, 57500, Note_off_c, 1, 47, 0
3, 57504, Note_on_c, 1, 45, 75
3, 57548, Note_off_c, 1, 45, 0
3, 57552, Note_on_c, 1, 43, 75
3, 57596, Note_off_c, 1, 41, 0
3, 57596, Note_off_c, 1, 43, 0
3, 57600, Note_on_c, 1, 48, 75
3, 57600, Note_on_c, 1, 40, 75
3, 57788, Note_off_c, 1, 48, 0
3, 57788, Note_off_c, 1, 40, 0
3, 57984, Note_on_c, 1, 53, 90
3, 57984, Note_on_c, 1, 41, 90
3, 58364, Note_off_c, 1, 53, 0
3, 58364, Note_off_c, 1, 41, 0
3, 58368, Note_on_c, 1, 55, 90
3, 58368, Note_on_c, 1, 43, 90
3, 58748, Note_off_c, 1, 55, 0
3, 58748, Note_off_c, 1, 43, 0
3, 58752, Note_on_c, 1, 57, 90
3, 58752, Note_on_c, 1, 45, 90
3, 59132, Note_off_c, 1, 57, 0
3, 59132, Note_off_c, 1, 45, 0
3, 59328, Note_on_c, 1, 57, 75
3, 59420, Note_off_c, 1, 57, 0
3, 59424, Note_on_c, 1, 55, 75
3, 59516, Note_off_c, 1, 55, 0
3, 59520, Note_on_c, 1, 53, 75
3, 59612, Note_off_c, 1, 53, 0
3, 59616, Note_on_c, 1, 55, 75
3, 59708, Note_off_c, 1, 55, 0
3, 59712, Note_on_c, 1, 57, 75
3, 59804, Note_off_c, 1, 57, 0
3, 59808, Note_on_c, 1, 59, 75
3, 59900, Note_off_c, 1, 59, 0
3, 59904, Note_on_c, 1, 60, 75
3, 60092, Note_off_c, 1, 60, 0
3, 60096, Note_on_c, 1, 53, 75
3, 60284, Note_off_c, 1, 53, 0
3, 60288, Note_on_c, 1, 55, 75
3, 60476, Note_off_c, 1, 55, 0
3, 60672, Note_on_c, 1, 43, 75
3, 60860, Note_off_c, 1, 43, 0
3, 61056, Note_on_c, 1, 48, 90
3, 61244, Note_off_c, 1, 48, 0
3, 61536, Note_on_c, 1, 48, 90
3, 61628, Note_off_c, 1, 48, 0
3, 61632, Note_on_c, 1, 60, 90
3, 61724, Note_off_c, 1, 60, 0
3, 61728, Note_on_c, 1, 59, 90
3, 61820, Note_off_c, 1, 59, 0
3, 61824, Note_on_c, 1, 57, 60
3, 61916, Note_off_c, 1, 57, 0
3, 61920, Note_on_c, 1, 45, 90
3, 62012, Note_off_c, 1, 45, 0
3, 62016, Note_on_c, 1, 57, 90
3, 62108, Note_off_c, 1, 57, 0
3, 62112, Note_on_c, 1, 55, 90
3, 62204, Note_off_c, 1, 55, 0
3, 62208, Note_on_c, 1, 53, 60
3, 62300, Note_off_c, 1, 53, 0
3, 62304, Note_on_c, 1, 41, 90
3, 62396, Note_off_c, 1, 41, 0
3, 62400, Note_on_c, 1, 53, 90
3, 62492, Note_off_c, 1, 53, 0
3, 62496, Note_on_c, 1, 52, 90
3, 62588, Note_off_c, 1, 52, 0
3, 62592, Note_on_c, 1, 53, 60
3, 62684, Note_off_c, 1, 53, 0
3, 62688, Note_on_c, 1, 61, 75
3, 62688, Note_on_c, 1, 49, 75
3, 62780, Note_off_c, 1, 61, 0
3, 62780, Note_off_c, 1, 49, 0
3, 62784, Note_on_c, 1, 62, 75
3, 62784, Note_on_c, 1, 50, 75
3, 62876, Note_off_c, 1, 62, 0
3, 62876, Note_off_c, 1, 50, 0
3, 62880, Note_on_c, 1, 64, 75
3, 62880, Note_on_c, 1, 52, 75
3, 62972, Note_off_c, 1, 64, 0
3, 62972, Note_off_c, 1, 52, 0
3, 62976, Note_on_c, 1, 65, 75
3, 62976, Note_on_c, 1, 53, 75
3, 63068, Note_off_c, 1, 65, 0
3, 63068, Note_off_c, 1, 53, 0
3, 63072, Note_on_c, 1, 62, 75
3, 63072, Note_on_c, 1, 50, 75
3, 63164, Note_off_c, 1, 62, 0
3, 63164, Note_off_c, 1, 50, 0
3, 63168, Note_on_c, 1, 64, 75
3, 63168, Note_on_c, 1, 52, 75
3, 63260, Note_off_c, 1, 64, 0
3, 63260, Note_off_c, 1, 52, 0
3, 63264, Note_on_c, 1, 59, 75
3, 63264, Note_on_c, 1, 47, 75
3, 63356, Note_off_c, 1, 59, 0
3, 63356, Note_off_c, 1, 47, 0
3, 63360, Note_on_c, 1, 48, 90
3, 63360, Note_on_c, 1, 60, 90
3, 63548, Note_off_c, 1, 48, 0
3, 63548, Note_off_c, 1, 60, 0
3, 63552, Note_on_c, 1, 53, 90
3, 63552, Note_on_c, 1, 41, 90
3, 63740, Note_off_c, 1, 53, 0
3, 63740, Note_off_c, 1, 41, 0
3, 63744, Note_on_c, 1, 55, 90
3, 63744, Note_on_c, 1, 43, 90
3, 63932, Note_off_c, 1, 55, 0
3, 63932, Note_off_c, 1, 43, 0
3, 64128, Note_on_c, 1, 55, 90
3, 64128, Note_on_c, 1, 43, 90
3, 64316, Note_off_c, 1, 55, 0
3, 64316, Note_off_c, 1, 43, 0
3, 64512, Note_on_c, 1, 48, 90
3, 64512, Note_on_c, 1, 36, 90
3, 64700, Note_off_c, 1, 48, 0
3, 64700, Note_off_c, 1, 36, 0
3, 64992, Note_on_c, 1, 48, 90
3, 65084, Note_off_c, 1, 48, 0
3, 65088, Note_on_c, 1, 60, 90
3, 65180, Note_off_c, 1, 60, 0
3, 65184, Note_on_c, 1, 59, 90
3, 65276, Note_off_c, 1, 59, 0
3, 65280, Note_on_c, 1, 57, 60
3, 65372, Note_off_c, 1, 57, 0
3, 65376, Note_on_c, 1, 45, 90
3, 65468, Note_off_c, 1, 45, 0
3, 65472, Note_on_c, 1, 57, 90
3, 65564, Note_off_c, 1, 57, 0
3, 65568, Note_on_c, 1, 55, 90
3, 65660, Note_off_c, 1, 55, 0
3, 65664, Note_on_c, 1, 53, 60
3, 65852, Note_off_c, 1, 53, 0
3, 66048, Note_on_c, 1, 57, 75
3, 66048, Note_on_c, 1, 53, 75
3, 66236, Note_off_c, 1, 57, 0
3, 66236, Note_off_c, 1, 53, 0
3, 66432, Note_on_c, 1, 57, 75
3, 66432, Note_on_c, 1, 53, 75
3, 66620, Note_off_c, 1, 57, 0
3, 66620, Note_off_c, 1, 53, 0
3, 66864, Note_on_c, 1, 31, 60
3, 66908, Note_off_c, 1, 31, 0
3, 66912, Note_on_c, 1, 33, 60
3, 66956, Note_off_c, 1, 33, 0
3, 66960, Note_on_c, 1, 35, 60
3, 67004, Note_off_c, 1, 35, 0
3, 67008, Note_on_c, 1, 36, 67
3, 67052, Note_off_c, 1, 36, 0
3, 67056, Note_on_c, 1, 38, 67
3, 67100, Note_off_c, 1, 38, 0
3, 67104, Note_on_c, 1, 40, 67
3, 67148, Note_off_c, 1, 40, 0
3, 67152, Note_on_c, 1, 41, 67
3, 67196, Note_off_c, 1, 41, 0
3, 67200, Note_on_c, 1, 43, 75
3, 67244, Note_off_c, 1, 43, 0
3, 67248, Note_on_c, 1, 43, 75
3, 67292, Note_off_c, 1, 43, 0
3, 67296, Note_on_c, 1, 45, 75
3, 67340, Note_off_c, 1, 45, 0
3, 67344, Note_on_c, 1, 47, 75
3, 67388, Note_off_c, 1, 47, 0
3, 67392, Note_on_c, 1, 48, 78
3, 67436, Note_off_c, 1, 48, 0
3, 67440, Note_on_c, 1, 50, 78
3, 67484, Note_off_c, 1, 50, 0
3, 67488, Note_on_c, 1, 52, 78
3, 67532, Note_off_c, 1, 52, 0
3, 67536, Note_on_c, 1, 53, 78
3, 67580, Note_off_c, 1, 53, 0
3, 67584, Note_on_c, 1, 55, 81
3, 67628, Note_off_c, 1, 55, 0
3, 67632, Note_on_c, 1, 55, 81
3, 67676, Note_off_c, 1, 55, 0
3, 67680, Note_on_c, 1, 57, 81
3, 67724, Note_off_c, 1, 57, 0
3, 67728, Note_on_c, 1, 59, 81
3, 67772, Note_off_c, 1, 59, 0
3, 67776, Note_on_c, 1, 60, 84
3, 67820, Note_off_c, 1, 60, 0
3, 67824, Note_on_c, 1, 62, 84
3, 67868, Note_off_c, 1, 62, 0
3, 67872, Note_on_c, 1, 64, 84
3, 67916, Note_off_c, 1, 64, 0
3, 67920, Note_on_c, 1, 65, 84
3, 67964, Note_off_c, 1, 65, 0
3, 67968, Note_on_c, 1, 67, 84
3, 68156, Note_off_c, 1, 67, 0
3, 68544, Note_on_c, 1, 43, 90
3, 68732, Note_off_c, 1, 43, 0
3, 68736, Note_on_c, 1, 55, 90
3, 68760, Note_off_c, 1, 55, 0
3, 68760, Note_on_c, 1, 53, 90
3, 68784, Note_off_c, 1, 53, 0
3, 68784, Note_on_c, 1, 55, 90
3, 68808, Note_off_c, 1, 55, 0
3, 68808, Note_on_c, 1, 53, 90
3, 68832, Note_off_c, 1, 53, 0
3, 68832, Note_on_c, 1, 55, 90
3, 68856, Note_off_c, 1, 55, 0
3, 68856, Note_on_c, 1, 53, 90
3, 68880, Note_off_c, 1, 53, 0
3, 68880, Note_on_c, 1, 55, 90
3, 68904, Note_off_c, 1, 55, 0
3, 68904, Note_on_c, 1, 53, 90
3, 68928, Note_off_c, 1, 53, 0
3, 68928, Note_on_c, 1, 52, 90
3, 69020, Note_off_c, 1, 52, 0
3, 69024, Note_on_c, 1, 53, 90
3, 69116, Note_off_c, 1, 53, 0
3, 69120, Note_on_c, 1, 52, 60
3, 69120, Note_on_c, 1, 48, 60
3, 69308, Note_off_c, 1, 52, 0
3, 69312, Note_on_c, 1, 58, 60
3, 69500, Note_off_c, 1, 48, 0
3, 69500, Note_off_c, 1, 58, 0
3, 69504, Note_on_c, 1, 57, 60
3, 69504, Note_on_c, 1, 48, 60
3, 69884, Note_off_c, 1, 57, 0
3, 69884, Note_off_c, 1, 48, 0
3, 69888, Note_on_c, 1, 53, 60
3, 69888, Note_on_c, 1, 50, 60
3, 69888, Note_on_c, 1, 48, 60
3, 70268, Note_off_c, 1, 53, 0
3, 70268, Note_off_c, 1, 50, 0
3, 70268, Note_off_c, 1, 48, 0
3, 70272, Note_on_c, 1, 52, 75
3, 70272, Note_on_c, 1, 48, 75
3, 70364, Note_off_c, 1, 52, 0
3, 70364, Note_off_c, 1, 48, 0
3, 70464, Note_on_c, 1, 58, 75
3, 70464, Note_on_c, 1, 48, 75
3, 70652, Note_off_c, 1, 58, 0
3, 70656, Note_on_c, 1, 57, 75
3, 70844, Note_off_c, 1, 48, 0
3, 70844, Note_off_c, 1, 57, 0
3, 71040, Note_on_c, 1, 53, 75
3, 71040, Note_on_c, 1, 50, 75
3, 71040, Note_on_c, 1, 48, 75
3, 71232, Note_on_c, 1, 60, 75
3, 71256, Note_off_c, 1, 60, 0
3, 71256, Note_on_c, 1, 59, 75
3, 71280, Note_off_c, 1, 59, 0
3, 71280, Note_on_c, 1, 60, 75
3, 71304, Note_off_c, 1, 60, 0
3, 71304, Note_on_c, 1, 59, 75
3, 71328, Note_off_c, 1, 59, 0
3, 71328, Note_on_c, 1, 60, 75
3, 71352, Note_off_c, 1, 60, 0
3, 71352, Note_on_c, 1, 59, 75
3, 71376, Note_off_c, 1, 59, 0
3, 71376, Note_on_c, 1, 57, 75
3, 71400, Note_off_c, 1, 57, 0
3, 71400, Note_on_c, 1, 59, 75
3, 71420, Note_off_c, 1, 53, 0
3, 71420, Note_off_c, 1, 50, 0
3, 71420, Note_off_c, 1, 48, 0
3, 71424, Note_off_c, 1, 59, 0
3, 71424, Note_on_c, 1, 59, 90
3, 71424, Note_on_c, 1, 55, 90
3, 71424, Note_on_c, 1, 53, 90
3, 71424, Note_on_c, 1, 50, 90
3, 71424, Note_on_c, 1, 48, 90
3, 71424, Note_on_c, 1, 36, 90
3, 71804, Note_off_c, 1, 59, 0
3, 71804, Note_off_c, 1, 55, 0
3, 71804, Note_off_c, 1, 53, 0
3, 71804, Note_off_c, 1, 50, 0
3, 71804, Note_off_c, 1, 48, 0
3, 71804, Note_off_c, 1, 36, 0
3, 71808, Note_on_c, 1, 60, 60
3, 71808, Note_on_c, 1, 55, 60
3, 71808, Note_on_c, 1, 52, 60
3, 71808, Note_on_c, 1, 48, 60
3, 71808, Note_on_c, 1, 36, 60
3, 71996, Note_off_c, 1, 60, 0
3, 71996, Note_off_c, 1, 55, 0
3, 71996, Note_off_c, 1, 52, 0
3, 71996, Note_off_c, 1, 48, 0
3, 71996, Note_off_c, 1, 36, 0
3, 72192, Note_on_c, 1, 52, 60
3, 72284, Note_off_c, 1, 52, 0
3, 72288, Note_on_c, 1, 55, 63
3, 72380, Note_off_c, 1, 55, 0
3, 72384, Note_on_c, 1, 60, 66
3, 72476, Note_off_c, 1, 60, 0
3, 72768, Note_on_c, 1, 48, 60
3, 72768, Note_on_c, 1, 43, 60
3, 72768, Note_on_c, 1, 40, 60
3, 72768, Note_on_c, 1, 36, 60
3, 72956, Note_off_c, 1, 48, 0
3, 72956, Note_off_c, 1, 43, 0
3, 72956, Note_off_c, 1, 40, 0
3, 72956, Note_off_c, 1, 36, 0
3, 72960, Note_on_c, 1, 48, 60
3, 72960, Note_on_c, 1, 43, 60
3, 72960, Note_on_c, 1, 40, 60
3, 72960, Note_on_c, 1, 36, 60
3, 73148, Note_off_c, 1, 48, 0
3, 73148, Note_off_c, 1, 43, 0
3, 73148, Note_off_c, 1, 40, 0
3, 73148, Note_off_c, 1, 36, 0
3, 73152, Note_on_c, 1, 48, 60
3, 73152, Note_on_c, 1, 43, 60
3, 73152, Note_on_c, 1, 40, 60
3, 73152, Note_on_c, 1, 36, 60
3, 73340, Note_off_c, 1, 48, 0
3, 73340, Note_off_c, 1, 43, 0
3, 73340, Note_off_c, 1, 40, 0
3, 73340, Note_off_c, 1, 36, 0
3, 73344, Note_on_c, 1, 48, 60
3, 73344, Note_on_c, 1, 43, 60
3, 73344, Note_on_c, 1, 40, 60
3, 73344, Note_on_c, 1, 36, 60
3, 73532, Note_off_c, 1, 48, 0
3, 73532, Note_off_c, 1, 43, 0
3, 73532, Note_off_c, 1, 40, 0
3, 73532, Note_off_c, 1, 36, 0
3, 73536, Note_on_c, 1, 48, 60
3, 73536, Note_on_c, 1, 43, 60
3, 73536, Note_on_c, 1, 40, 60
3, 73536, Note_on_c, 1, 36, 60
3, 73724, Note_off_c, 1, 48, 0
3, 73724, Note_off_c, 1, 43, 0
3, 73724, Note_off_c, 1, 40, 0
3, 73724, Note_off_c, 1, 36, 0
3, 73920, Note_on_c, 1, 53, 67
3, 73920, Note_on_c, 1, 45, 67
3, 73920, Note_on_c, 1, 41, 67
3, 73920, Note_on_c, 1, 50, 67
3, 74108, Note_off_c, 1, 53, 0
3, 74108, Note_off_c, 1, 45, 0
3, 74108, Note_off_c, 1, 41, 0
3, 74108, Note_off_c, 1, 50, 0
3, 74112, Note_on_c, 1, 53, 67
3, 74112, Note_on_c, 1, 50, 67
3, 74112, Note_on_c, 1, 45, 67
3, 74112, Note_on_c, 1, 41, 67
3, 74300, Note_off_c, 1, 53, 0
3, 74300, Note_off_c, 1, 50, 0
3, 74300, Note_off_c, 1, 45, 0
3, 74300, Note_off_c, 1, 41, 0
3, 74304, Note_on_c, 1, 53, 67
3, 74304, Note_on_c, 1, 50, 67
3, 74304, Note_on_c, 1, 41, 67
3, 74304, Note_on_c, 1, 45, 67
3, 74492, Note_off_c, 1, 53, 0
3, 74492, Note_off_c, 1, 50, 0
3, 74492, Note_off_c, 1, 41, 0
3, 74492, Note_off_c, 1, 45, 0
3, 74496, Note_on_c, 1, 53, 67
3, 74496, Note_on_c, 1, 50, 67
3, 74496, Note_on_c, 1, 45, 67
3, 74496, Note_on_c, 1, 41, 67
3, 74684, Note_off_c, 1, 53, 0
3, 74684, Note_off_c, 1, 50, 0
3, 74684, Note_off_c, 1, 45, 0
3, 74684, Note_off_c, 1, 41, 0
3, 74688, Note_on_c, 1, 53, 67
3, 74688, Note_on_c, 1, 50, 67
3, 74688, Note_on_c, 1, 45, 67
3, 74688, Note_on_c, 1, 41, 67
3, 74876, Note_off_c, 1, 53, 0
3, 74876, Note_off_c, 1, 50, 0
3, 74876, Note_off_c, 1, 45, 0
3, 74876, Note_off_c, 1, 41, 0
3, 75072, Note_on_c, 1, 55, 67
3, 75072, Note_on_c, 1, 52, 67
3, 75072, Note_on_c, 1, 48, 67
3, 75072, Note_on_c, 1, 43, 67
3, 75260, Note_off_c, 1, 55, 0
3, 75260, Note_off_c, 1, 52, 0
3, 75260, Note_off_c, 1, 48, 0
3, 75260, Note_off_c, 1, 43, 0
3, 75264, Note_on_c, 1, 55, 67
3, 75264, Note_on_c, 1, 52, 67
3, 75264, Note_on_c, 1, 48, 67
3, 75264, Note_on_c, 1, 43, 67
3, 75452, Note_off_c, 1, 55, 0
3, 75452, Note_off_c, 1, 52, 0
3, 75452, Note_off_c, 1, 48, 0
3, 75452, Note_off_c, 1, 43, 0
3, 75456, Note_on_c, 1, 55, 67
3, 75456, Note_on_c, 1, 52, 67
3, 75456, Note_on_c, 1, 48, 67
3, 75456, Note_on_c, 1, 43, 67
3, 75644, Note_off_c, 1, 55, 0
3, 75644, Note_off_c, 1, 52, 0
3, 75644, Note_off_c, 1, 48, 0
3, 75644, Note_off_c, 1, 43, 0
3, 75648, Note_on_c, 1, 55, 67
3, 75648, Note_on_c, 1, 53, 67
3, 75648, Note_on_c, 1, 47, 67
3, 75648, Note_on_c, 1, 43, 67
3, 75836, Note_off_c, 1, 55, 0
3, 75836, Note_off_c, 1, 53, 0
3, 75836, Note_off_c, 1, 47, 0
3, 75836, Note_off_c, 1, 43, 0
3, 75840, Note_on_c, 1, 55, 67
3, 75840, Note_on_c, 1, 53, 67
3, 75840, Note_on_c, 1, 43, 67
3, 75840, Note_on_c, 1, 50, 67
3, 76028, Note_off_c, 1, 55, 0
3, 76028, Note_off_c, 1, 53, 0
3, 76028, Note_off_c, 1, 43, 0
3, 76028, Note_off_c, 1, 50, 0
3, 76224, Note_on_c, 1, 52, 60
3, 76224, Note_on_c, 1, 48, 60
3, 76224, Note_on_c, 1, 43, 60
3, 76224, Note_on_c, 1, 40, 60
3, 76412, Note_off_c, 1, 52, 0
3, 76412, Note_off_c, 1, 48, 0
3, 76412, Note_off_c, 1, 43, 0
3, 76412, Note_off_c, 1, 40, 0
3, 76416, Note_on_c, 1, 52, 60
3, 76416, Note_on_c, 1, 48, 60
3, 76416, Note_on_c, 1, 43, 60
3, 76416, Note_on_c, 1, 40, 60
3, 76604, Note_off_c, 1, 52, 0
3, 76604, Note_off_c, 1, 48, 0
3, 76604, Note_off_c, 1, 43, 0
3, 76604, Note_off_c, 1, 40, 0
3, 76608, Note_on_c, 1, 52, 60
3, 76608, Note_on_c, 1, 48, 60
3, 76608, Note_on_c, 1, 43, 60
3, 76608, Note_on_c, 1, 40, 60
3, 76796, Note_off_c, 1, 52, 0
3, 76796, Note_off_c, 1, 48, 0
3, 76796, Note_off_c, 1, 43, 0
3, 76796, Note_off_c, 1, 40, 0
3, 76800, Note_on_c, 1, 52, 60
3, 76800, Note_on_c, 1, 48, 60
3, 76800, Note_on_c, 1, 40, 60
3, 76800, Note_on_c, 1, 43, 60
3, 76988, Note_off_c, 1, 52, 0
3, 76988, Note_off_c, 1, 48, 0
3, 76988, Note_off_c, 1, 40, 0
3, 76988, Note_off_c, 1, 43, 0
3, 76992, Note_on_c, 1, 52, 60
3, 76992, Note_on_c, 1, 48, 60
3, 76992, Note_on_c, 1, 43, 60
3, 76992, Note_on_c, 1, 40, 60
3, 77180, Note_off_c, 1, 52, 0
3, 77180, Note_off_c, 1, 48, 0
3, 77180, Note_off_c, 1, 43, 0
3, 77180, Note_off_c, 1, 40, 0
3, 77184, Note_on_c, 1, 53, 67
3, 77184, Note_on_c, 1, 50, 67
3, 77184, Note_on_c, 1, 45, 67
3, 77184, Note_on_c, 1, 41, 67
3, 77372, Note_off_c, 1, 53, 0
3, 77372, Note_off_c, 1, 50, 0
3, 77372, Note_off_c, 1, 45, 0
3, 77372, Note_off_c, 1, 41, 0
3, 77568, Note_on_c, 1, 52, 67
3, 77568, Note_on_c, 1, 48, 67
3, 77568, Note_on_c, 1, 43, 67
3, 77948, Note_off_c, 1, 52, 0
3, 77948, Note_off_c, 1, 48, 0
3, 77948, Note_off_c, 1, 43, 0
3, 77952, Note_on_c, 1, 53, 67
3, 77952, Note_on_c, 1, 50, 67
3, 77952, Note_on_c, 1, 43, 67
3, 78332, Note_off_c, 1, 53, 0
3, 78332, Note_off_c, 1, 50, 0
3, 78332, Note_off_c, 1, 43, 0
3, 78336, Note_on_c, 1, 36, 60
3, 78396, Note_off_c, 1, 36, 0
3, 78400, Note_on_c, 1, 39, 60
3, 78460, Note_off_c, 1, 39, 0
3, 78464, Note_on_c, 1, 43, 60
3, 78524, Note_off_c, 1, 43, 0
3, 78528, Note_on_c, 1, 48, 60
3, 78588, Note_off_c, 1, 48, 0
3, 78592, Note_on_c, 1, 43, 60
3, 78652, Note_off_c, 1, 43, 0
3, 78656, Note_on_c, 1, 39, 60
3, 78716, Note_off_c, 1, 39, 0
3, 78720, Note_on_c, 1, 36, 60
3, 78780, Note_off_c, 1, 36, 0
3, 78784, Note_on_c, 1, 39, 60
3, 78844, Note_off_c, 1, 39, 0
3, 78848, Note_on_c, 1, 43, 60
3, 78908, Note_off_c, 1, 43, 0
3, 78912, Note_on_c, 1, 48, 60
3, 78972, Note_off_c, 1, 48, 0
3, 78976, Note_on_c, 1, 43, 60
3, 79036, Note_off_c, 1, 43, 0
3, 79040, Note_on_c, 1, 39, 60
3, 79100, Note_off_c, 1, 39, 0
3, 79104, Note_on_c, 1, 36, 60
3, 79164, Note_off_c, 1, 36, 0
3, 79168, Note_on_c, 1, 39, 60
3, 79228, Note_off_c, 1, 39, 0
3, 79232, Note_on_c, 1, 43, 60
3, 79292, Note_off_c, 1, 43, 0
3, 79296, Note_on_c, 1, 48, 60
3, 79356, Note_off_c, 1, 48, 0
3, 79360, Note_on_c, 1, 43, 60
3, 79420, Note_off_c, 1, 43, 0
3, 79424, Note_on_c, 1, 39, 60
3, 79484, Note_off_c, 1, 39, 0
3, 79488, Note_on_c, 1, 38, 90
3, 79548, Note_off_c, 1, 38, 0
3, 79552, Note_on_c, 1, 42, 90
3, 79612, Note_off_c, 1, 42, 0
3, 79616, Note_on_c, 1, 45, 90
3, 79676, Note_off_c, 1, 45, 0
3, 79680, Note_on_c, 1, 52, 90
3, 79740, Note_off_c, 1, 52, 0
3, 79744, Note_on_c, 1, 45, 90
3, 79804, Note_off_c, 1, 45, 0
3, 79808, Note_on_c, 1, 42, 90
3, 79868, Note_off_c, 1, 42, 0
3, 79872, Note_on_c, 1, 38, 90
3, 79932, Note_off_c, 1, 38, 0
3, 79936, Note_on_c, 1, 42, 90
3, 79996, Note_off_c, 1, 42, 0
3, 80000, Note_on_c, 1, 45, 90
3, 80060, Note_off_c, 1, 45, 0
3, 80064, Note_on_c, 1, 50, 90
3, 80124, Note_off_c, 1, 50, 0
3, 80128, Note_on_c, 1, 45, 82
3, 80188, Note_off_c, 1, 45, 0
3, 80192, Note_on_c, 1, 42, 82
3, 80252, Note_off_c, 1, 42, 0
3, 80256, Note_on_c, 1, 38, 82
3, 80316, Note_off_c, 1, 38, 0
3, 80320, Note_on_c, 1, 42, 75
3, 80380, Note_off_c, 1, 42, 0
3, 80384, Note_on_c, 1, 45, 75
3, 80444, Note_off_c, 1, 45, 0
3, 80448, Note_on_c, 1, 50, 75
3, 80508, Note_off_c, 1, 50, 0
3, 80512, Note_on_c, 1, 45, 75
3, 80572, Note_off_c, 1, 45, 0
3, 80576, Note_on_c, 1, 42, 75
3, 80636, Note_off_c, 1, 42, 0
3, 80640, Note_on_c, 1, 43, 60
3, 80700, Note_off_c, 1, 43, 0
3, 80704, Note_on_c, 1, 46, 60
3, 80764, Note_off_c, 1, 46, 0
3, 80768, Note_on_c, 1, 50, 60
3, 80828, Note_off_c, 1, 50, 0
3, 80832, Note_on_c, 1, 55, 60
3, 80892, Note_off_c, 1, 55, 0
3, 80896, Note_on_c, 1, 50, 60
3, 80956, Note_off_c, 1, 50, 0
3, 80960, Note_on_c, 1, 46, 60
3, 81020, Note_off_c, 1, 46, 0
3, 81024, Note_on_c, 1, 43, 60
3, 81084, Note_off_c, 1, 43, 0
3, 81088, Note_on_c, 1, 46, 60
3, 81148, Note_off_c, 1, 46, 0
3, 81152, Note_on_c, 1, 50, 60
3, 81212, Note_off_c, 1, 50, 0
3, 81216, Note_on_c, 1, 55, 60
3, 81276, Note_off_c, 1, 55, 0
3, 81280, Note_on_c, 1, 50, 60
3, 81340, Note_off_c, 1, 50, 0
3, 81344, Note_on_c, 1, 46, 60
3, 81404, Note_off_c, 1, 46, 0
3, 81408, Note_on_c, 1, 43, 60
3, 81468, Note_off_c, 1, 43, 0
3, 81472, Note_on_c, 1, 46, 60
3, 81532, Note_off_c, 1, 46, 0
3, 81536, Note_on_c, 1, 50, 60
3, 81596, Note_off_c, 1, 50, 0
3, 81600, Note_on_c, 1, 55, 60
3, 81660, Note_off_c, 1, 55, 0
3, 81664, Note_on_c, 1, 50, 60
3, 81724, Note_off_c, 1, 50, 0
3, 81728, Note_on_c, 1, 46, 60
3, 81788, Note_off_c, 1, 46, 0
3, 81792, Note_on_c, 1, 45, 90
3, 81852, Note_off_c, 1, 45, 0
3, 81856, Note_on_c, 1, 49, 90
3, 81916, Note_off_c, 1, 49, 0
3, 81920, Note_on_c, 1, 52, 90
3, 81980, Note_off_c, 1, 52, 0
3, 81984, Note_on_c, 1, 57, 90
3, 82044, Note_off_c, 1, 57, 0
3, 82048, Note_on_c, 1, 52, 90
3, 82108, Note_off_c, 1, 52, 0
3, 82112, Note_on_c, 1, 49, 90
3, 82172, Note_off_c, 1, 49, 0
3, 82176, Note_on_c, 1, 45, 90
3, 82236, Note_off_c, 1, 45, 0
3, 82240, Note_on_c, 1, 49, 90
3, 82300, Note_off_c, 1, 49, 0
3, 82304, Note_on_c, 1, 52, 90
3, 82364, Note_off_c, 1, 52, 0
3, 82368, Note_on_c, 1, 57, 90
3, 82428, Note_off_c, 1, 57, 0
3, 82432, Note_on_c, 1, 52, 82
3, 82492, Note_off_c, 1, 52, 0
3, 82496, Note_on_c, 1, 49, 82
3, 82556, Note_off_c, 1, 49, 0
3, 82560, Note_on_c, 1, 45, 82
3, 82620, Note_off_c, 1, 45, 0
3, 82624, Note_on_c, 1, 49, 75
3, 82684, Note_off_c, 1, 49, 0
3, 82688, Note_on_c, 1, 52, 75
3, 82748, Note_off_c, 1, 52, 0
3, 82752, Note_on_c, 1, 57, 75
3, 82812, Note_off_c, 1, 57, 0
3, 82816, Note_on_c, 1, 52, 75
3, 82876, Note_off_c, 1, 52, 0
3, 82880, Note_on_c, 1, 49, 75
3, 82940, Note_off_c, 1, 49, 0
3, 82944, Note_on_c, 1, 46, 60
3, 83004, Note_off_c, 1, 46, 0
3, 83008, Note_on_c, 1, 50, 60
3, 83068, Note_off_c, 1, 50, 0
3, 83072, Note_on_c, 1, 53, 60
3, 83132, Note_off_c, 1, 53, 0
3, 83136, Note_on_c, 1, 58, 60
3, 83196, Note_off_c, 1, 58, 0
3, 83200, Note_on_c, 1, 53, 60
3, 83260, Note_off_c, 1, 53, 0
3, 83264, Note_on_c, 1, 50, 60
3, 83324, Note_off_c, 1, 50, 0
3, 83328, Note_on_c, 1, 46, 60
3, 83388, Note_off_c, 1, 46, 0
3, 83392, Note_on_c, 1, 50, 60
3, 83452, Note_off_c, 1, 50, 0
3, 83456, Note_on_c, 1, 53, 60
3, 83516, Note_off_c, 1, 53, 0
3, 83520, Note_on_c, 1, 58, 63
3, 83580, Note_off_c, 1, 58, 0
3, 83584, Note_on_c, 1, 53, 63
3, 83644, Note_off_c, 1, 53, 0
3, 83648, Note_on_c, 1, 50, 63
3, 83708, Note_off_c, 1, 50, 0
3, 83712, Note_on_c, 1, 46, 66
3, 83772, Note_off_c, 1, 46, 0
3, 83776, Note_on_c, 1, 50, 66
3, 83836, Note_off_c, 1, 50, 0
3, 83840, Note_on_c, 1, 53, 66
3, 83900, Note_off_c, 1, 53, 0
3, 83904, Note_on_c, 1, 58, 69
3, 83964, Note_off_c, 1, 58, 0
3, 83968, Note_on_c, 1, 53, 69
3, 84028, Note_off_c, 1, 53, 0
3, 84032, Note_on_c, 1, 50, 69
3, 84092, Note_off_c, 1, 50, 0
3, 84096, Note_on_c, 1, 46, 72
3, 84156, Note_off_c, 1, 46, 0
3, 84160, Note_on_c, 1, 50, 72
3, 84220, Note_off_c, 1, 50, 0
3, 84224, Note_on_c, 1, 53, 72
3, 84284, Note_off_c, 1, 53, 0
3, 84288, Note_on_c, 1, 58, 75
3, 84348, Note_off_c, 1, 58, 0
3, 84352, Note_on_c, 1, 53, 75
3, 84412, Note_off_c, 1, 53, 0
3, 84416, Note_on_c, 1, 50, 75
3, 84476, Note_off_c, 1, 50, 0
3, 84480, Note_on_c, 1, 46, 78
3, 84540, Note_off_c, 1, 46, 0
3, 84544, Note_on_c, 1, 50, 78
3, 84604, Note_off_c, 1, 50, 0
3, 84608, Note_on_c, 1, 53, 78
3, 84668, Note_off_c, 1, 53, 0
3, 84672, Note_on_c, 1, 58, 81
3, 84732, Note_off_c, 1, 58, 0
3, 84736, Note_on_c, 1, 53, 81
3, 84796, Note_off_c, 1, 53, 0
3, 84800, Note_on_c, 1, 50, 81
3, 84860, Note_off_c, 1, 50, 0
3, 84864, Note_on_c, 1, 46, 84
3, 84924, Note_off_c, 1, 46, 0
3, 84928, Note_on_c, 1, 50, 84
3, 84988, Note_off_c, 1, 50, 0
3, 84992, Note_on_c, 1, 53, 84
3, 85052, Note_off_c, 1, 53, 0
3, 85056, Note_on_c, 1, 58, 87
3, 85116, Note_off_c, 1, 58, 0
3, 85120, Note_on_c, 1, 53, 87
3, 85180, Note_off_c, 1, 53, 0
3, 85184, Note_on_c, 1, 50, 87
3, 85244, Note_off_c, 1, 50, 0
3, 85248, Note_on_c, 1, 49, 90
3, 85248, Note_on_c, 1, 45, 90
3, 85628, Note_off_c, 1, 49, 0
3, 85628, Note_off_c, 1, 45, 0
3, 85824, Note_on_c, 1, 57, 90
3, 86012, Note_off_c, 1, 57, 0
3, 86016, Note_on_c, 1, 53, 90
3, 86204, Note_off_c, 1, 53, 0
3, 86208, Note_on_c, 1, 50, 87
3, 86396, Note_off_c, 1, 50, 0
3, 86400, Note_on_c, 1, 55, 75
3, 86400, Note_on_c, 1, 55, 75
3, 86588, Note_off_c, 1, 55, 0
3, 86592, Note_on_c, 1, 43, 75
3, 86780, Note_off_c, 1, 43, 0
3, 86972, Note_off_c, 1, 55, 0
3, 86976, Note_on_c, 1, 55, 75
3, 87164, Note_off_c, 1, 55, 0
3, 87168, Note_on_c, 1, 53, 75
3, 87192, Note_off_c, 1, 53, 0
3, 87192, Note_on_c, 1, 52, 75
3, 87216, Note_off_c, 1, 52, 0
3, 87216, Note_on_c, 1, 53, 75
3, 87240, Note_off_c, 1, 53, 0
3, 87240, Note_on_c, 1, 52, 75
3, 87264, Note_off_c, 1, 52, 0
3, 87264, Note_on_c, 1, 53, 75
3, 87288, Note_off_c, 1, 53, 0
3, 87288, Note_on_c, 1, 52, 75
3, 87312, Note_off_c, 1, 52, 0
3, 87312, Note_on_c, 1, 53, 75
3, 87336, Note_off_c, 1, 53, 0
3, 87336, Note_on_c, 1, 52, 75
3, 87360, Note_off_c, 1, 52, 0
3, 87360, Note_on_c, 1, 53, 75
3, 87384, Note_off_c, 1, 53, 0
3, 87384, Note_on_c, 1, 52, 75
3, 87408, Note_off_c, 1, 52, 0
3, 87408, Note_on_c, 1, 53, 75
3, 87432, Note_off_c, 1, 53, 0
3, 87432, Note_on_c, 1, 52, 75
3, 87456, Note_off_c, 1, 52, 0
3, 87456, Note_on_c, 1, 50, 75
3, 87500, Note_off_c, 1, 50, 0
3, 87504, Note_on_c, 1, 48, 75
3, 87548, Note_off_c, 1, 48, 0
3, 87552, Note_on_c, 1, 53, 75
3, 87552, Note_on_c, 1, 53, 75
3, 87740, Note_off_c, 1, 53, 0
3, 87744, Note_on_c, 1, 41, 75
3, 87932, Note_off_c, 1, 41, 0
3, 88124, Note_off_c, 1, 53, 0
3, 88128, Note_on_c, 1, 53, 75
3, 88316, Note_off_c, 1, 53, 0
3, 88320, Note_on_c, 1, 57, 75
3, 88508, Note_off_c, 1, 57, 0
3, 88512, Note_on_c, 1, 50, 75
3, 88700, Note_off_c, 1, 50, 0
3, 88704, Note_on_c, 1, 47, 75
3, 88988, Note_off_c, 1, 47, 0
3, 89040, Note_on_c, 1, 47, 75
3, 89084, Note_off_c, 1, 47, 0
3, 89088, Note_on_c, 1, 48, 75
3, 89112, Note_off_c, 1, 48, 0
3, 89112, Note_on_c, 1, 47, 75
3, 89136, Note_off_c, 1, 47, 0
3, 89136, Note_on_c, 1, 48, 75
3, 89160, Note_off_c, 1, 48, 0
3, 89160, Note_on_c, 1, 47, 75
3, 89184, Note_off_c, 1, 47, 0
3, 89184, Note_on_c, 1, 48, 75
3, 89208, Note_off_c, 1, 48, 0
3, 89208, Note_on_c, 1, 47, 75
3, 89232, Note_off_c, 1, 47, 0
3, 89232, Note_on_c, 1, 48, 75
3, 89256, Note_off_c, 1, 48, 0
3, 89256, Note_on_c, 1, 47, 75
3, 89280, Note_off_c, 1, 47, 0
3, 89280, Note_on_c, 1, 48, 75
3, 89304, Note_off_c, 1, 48, 0
3, 89304, Note_on_c, 1, 47, 75
3, 89328, Note_off_c, 1, 47, 0
3, 89328, Note_on_c, 1, 48, 75
3, 89352, Note_off_c, 1, 48, 0
3, 89352, Note_on_c, 1, 47, 75
3, 89376, Note_off_c, 1, 47, 0
3, 89376, Note_on_c, 1, 45, 75
3, 89420, Note_off_c, 1, 45, 0
3, 89424, Note_on_c, 1, 47, 75
3, 89468, Note_off_c, 1, 47, 0
3, 89472, Note_on_c, 1, 50, 75
3, 89496, Note_off_c, 1, 50, 0
3, 89496, Note_on_c, 1, 49, 75
3, 89520, Note_off_c, 1, 49, 0
3, 89520, Note_on_c, 1, 50, 75
3, 89544, Note_off_c, 1, 50, 0
3, 89544, Note_on_c, 1, 49, 75
3, 89568, Note_off_c, 1, 49, 0
3, 89584, Note_on_c, 1, 50, 75
3, 89592, Note_on_c, 1, 49, 75
3, 89608, Note_off_c, 1, 50, 0
3, 89616, Note_off_c, 1, 49, 0
3, 89616, Note_on_c, 1, 50, 75
3, 89640, Note_off_c, 1, 50, 0
3, 89640, Note_on_c, 1, 49, 75
3, 89664, Note_off_c, 1, 49, 0
3, 89664, Note_on_c, 1, 50, 75
3, 89688, Note_off_c, 1, 50, 0
3, 89688, Note_on_c, 1, 49, 75
3, 89712, Note_off_c, 1, 49, 0
3, 89712, Note_on_c, 1, 50, 75
3, 89736, Note_off_c, 1, 50, 0
3, 89736, Note_on_c, 1, 49, 75
3, 89760, Note_off_c, 1, 49, 0
3, 89760, Note_on_c, 1, 47, 75
3, 89804, Note_off_c, 1, 47, 0
3, 89808, Note_on_c, 1, 49, 75
3, 89852, Note_off_c, 1, 49, 0
3, 89856, Note_on_c, 1, 50, 75
3, 89856, Note_on_c, 1, 50, 75
3, 90044, Note_off_c, 1, 50, 0
3, 90048, Note_on_c, 1, 38, 75
3, 90236, Note_off_c, 1, 38, 0
3, 90428, Note_off_c, 1, 50, 0
3, 90432, Note_on_c, 1, 50, 75
3, 90620, Note_off_c, 1, 50, 0
3, 90624, Note_on_c, 1, 47, 75
3, 90812, Note_off_c, 1, 47, 0
3, 90816, Note_on_c, 1, 43, 75
3, 91004, Note_off_c, 1, 43, 0
3, 91008, Note_on_c, 1, 48, 75
3, 91008, Note_on_c, 1, 48, 75
3, 91196, Note_off_c, 1, 48, 0
3, 91200, Note_on_c, 1, 36, 75
3, 91388, Note_off_c, 1, 36, 0
3, 91580, Note_off_c, 1, 48, 0
3, 91584, Note_on_c, 1, 48, 75
3, 91772, Note_off_c, 1, 48, 0
3, 91776, Note_on_c, 1, 46, 75
3, 91800, Note_off_c, 1, 46, 0
3, 91800, Note_on_c, 1, 45, 75
3, 91824, Note_off_c, 1, 45, 0
3, 91824, Note_on_c, 1, 46, 75
3, 91848, Note_off_c, 1, 46, 0
3, 91848, Note_on_c, 1, 45, 75
3, 91872, Note_off_c, 1, 45, 0
3, 91872, Note_on_c, 1, 46, 75
3, 91896, Note_off_c, 1, 46, 0
3, 91896, Note_on_c, 1, 45, 75
3, 91920, Note_off_c, 1, 45, 0
3, 91920, Note_on_c, 1, 46, 75
3, 91944, Note_off_c, 1, 46, 0
3, 91944, Note_on_c, 1, 45, 75
3, 91968, Note_off_c, 1, 45, 0
3, 91968, Note_on_c, 1, 46, 75
3, 91992, Note_off_c, 1, 46, 0
3, 91992, Note_on_c, 1, 45, 75
3, 92016, Note_off_c, 1, 45, 0
3, 92016, Note_on_c, 1, 46, 75
3, 92040, Note_off_c, 1, 46, 0
3, 92040, Note_on_c, 1, 45, 75
3, 92064, Note_off_c, 1, 45, 0
3, 92064, Note_on_c, 1, 43, 75
3, 92108, Note_off_c, 1, 43, 0
3, 92112, Note_on_c, 1, 45, 75
3, 92156, Note_off_c, 1, 45, 0
3, 92160, Note_on_c, 1, 42, 75
3, 92444, Note_off_c, 1, 42, 0
3, 92496, Note_on_c, 1, 42, 75
3, 92540, Note_off_c, 1, 42, 0
3, 92544, Note_on_c, 1, 43, 75
3, 92568, Note_off_c, 1, 43, 0
3, 92568, Note_on_c, 1, 42, 75
3, 92592, Note_off_c, 1, 42, 0
3, 92592, Note_on_c, 1, 43, 75
3, 92616, Note_off_c, 1, 43, 0
3, 92616, Note_on_c, 1, 42, 75
3, 92640, Note_off_c, 1, 42, 0
3, 92640, Note_on_c, 1, 43, 75
3, 92664, Note_off_c, 1, 43, 0
3, 92664, Note_on_c, 1, 42, 75
3, 92688, Note_off_c, 1, 42, 0
3, 92688, Note_on_c, 1, 43, 75
3, 92712, Note_off_c, 1, 43, 0
3, 92712, Note_on_c, 1, 42, 75
3, 92736, Note_off_c, 1, 42, 0
3, 92736, Note_on_c, 1, 43, 75
3, 92760, Note_off_c, 1, 43, 0
3, 92760, Note_on_c, 1, 42, 75
3, 92784, Note_off_c, 1, 42, 0
3, 92784, Note_on_c, 1, 43, 75
3, 92808, Note_off_c, 1, 43, 0
3, 92808, Note_on_c, 1, 42, 75
3, 92832, Note_off_c, 1, 42, 0
3, 92832, Note_on_c, 1, 40, 75
3, 92876, Note_off_c, 1, 40, 0
3, 92880, Note_on_c, 1, 42, 75
3, 92924, Note_off_c, 1, 42, 0
3, 92928, Note_on_c, 1, 45, 75
3, 92952, Note_off_c, 1, 45, 0
3, 92952, Note_on_c, 1, 43, 75
3, 92976, Note_off_c, 1, 43, 0
3, 92976, Note_on_c, 1, 45, 75
3, 93000, Note_off_c, 1, 45, 0
3, 93000, Note_on_c, 1, 43, 75
3, 93024, Note_off_c, 1, 43, 0
3, 93024, Note_on_c, 1, 45, 75
3, 93048, Note_off_c, 1, 45, 0
3, 93048, Note_on_c, 1, 43, 75
3, 93072, Note_off_c, 1, 43, 0
3, 93072, Note_on_c, 1, 45, 75
3, 93096, Note_off_c, 1, 45, 0
3, 93096, Note_on_c, 1, 43, 75
3, 93120, Note_off_c, 1, 43, 0
3, 93120, Note_on_c, 1, 45, 75
3, 93144, Note_off_c, 1, 45, 0
3, 93144, Note_on_c, 1, 43, 75
3, 93168, Note_off_c, 1, 43, 0
3, 93168, Note_on_c, 1, 45, 75
3, 93192, Note_off_c, 1, 45, 0
3, 93192, Note_on_c, 1, 43, 75
3, 93216, Note_off_c, 1, 43, 0
3, 93216, Note_on_c, 1, 42, 75
3, 93260, Note_off_c, 1, 42, 0
3, 93264, Note_on_c, 1, 43, 75
3, 93308, Note_off_c, 1, 43, 0
3, 93312, Note_on_c, 1, 40, 75
3, 93500, Note_off_c, 1, 40, 0
3, 93504, Note_on_c, 1, 41, 75
3, 93692, Note_off_c, 1, 41, 0
3, 93696, Note_on_c, 1, 34, 75
3, 93712, Note_on_c, 1, 46, 75
3, 94268, Note_off_c, 1, 34, 0
3, 94272, Note_on_c, 1, 47, 75
3, 94272, Note_on_c, 1, 35, 75
3, 94284, Note_off_c, 1, 46, 0
3, 94460, Note_off_c, 1, 47, 0
3, 94460, Note_off_c, 1, 35, 0
3, 94464, Note_on_c, 1, 34, 82
3, 94524, Note_off_c, 1, 34, 0
3, 94528, Note_on_c, 1, 48, 82
3, 94588, Note_off_c, 1, 48, 0
3, 94592, Note_on_c, 1, 48, 82
3, 94652, Note_off_c, 1, 48, 0
3, 94656, Note_on_c, 1, 48, 82
3, 94716, Note_off_c, 1, 48, 0
3, 94720, Note_on_c, 1, 48, 82
3, 94780, Note_off_c, 1, 48, 0
3, 94784, Note_on_c, 1, 48, 82
3, 94844, Note_off_c, 1, 48, 0
3, 94848, Note_on_c, 1, 34, 82
3, 94908, Note_off_c, 1, 34, 0
3, 94912, Note_on_c, 1, 48, 82
3, 94972, Note_off_c, 1, 48, 0
3, 94976, Note_on_c, 1, 48, 82
3, 95036, Note_off_c, 1, 48, 0
3, 95040, Note_on_c, 1, 48, 82
3, 95100, Note_off_c, 1, 48, 0
3, 95104, Note_on_c, 1, 48, 82
3, 95164, Note_off_c, 1, 48, 0
3, 95168, Note_on_c, 1, 48, 82
3, 95228, Note_off_c, 1, 48, 0
3, 95232, Note_on_c, 1, 35, 82
3, 95292, Note_off_c, 1, 35, 0
3, 95296, Note_on_c, 1, 47, 82
3, 95356, Note_off_c, 1, 47, 0
3, 95360, Note_on_c, 1, 47, 82
3, 95420, Note_off_c, 1, 47, 0
3, 95424, Note_on_c, 1, 47, 82
3, 95484, Note_off_c, 1, 47, 0
3, 95488, Note_on_c, 1, 47, 82
3, 95548, Note_off_c, 1, 47, 0
3, 95552, Note_on_c, 1, 47, 82
3, 95612, Note_off_c, 1, 47, 0
3, 95616, Note_on_c, 1, 36, 60
3, 95676, Note_off_c, 1, 36, 0
3, 95680, Note_on_c, 1, 48, 60
3, 95740, Note_off_c, 1, 48, 0
3, 95744, Note_on_c, 1, 48, 60
3, 95804, Note_off_c, 1, 48, 0
3, 95808, Note_on_c, 1, 48, 60
3, 95868, Note_off_c, 1, 48, 0
3, 95872, Note_on_c, 1, 48, 60
3, 95932, Note_off_c, 1, 48, 0
3, 95936, Note_on_c, 1, 48, 60
3, 95996, Note_off_c, 1, 48, 0
3, 96000, Note_on_c, 1, 36, 67
3, 96060, Note_off_c, 1, 36, 0
3, 96064, Note_on_c, 1, 48, 67
3, 96124, Note_off_c, 1, 48, 0
3, 96128, Note_on_c, 1, 48, 67
3, 96188, Note_off_c, 1, 48, 0
3, 96192, Note_on_c, 1, 48, 72
3, 96252, Note_off_c, 1, 48, 0
3, 96256, Note_on_c, 1, 48, 72
3, 96316, Note_off_c, 1, 48, 0
3, 96320, Note_on_c, 1, 48, 72
3, 96380, Note_off_c, 1, 48, 0
3, 96384, Note_on_c, 1, 37, 76
3, 96444, Note_off_c, 1, 37, 0
3, 96448, Note_on_c, 1, 49, 76
3, 96508, Note_off_c, 1, 49, 0
3, 96512, Note_on_c, 1, 49, 76
3, 96572, Note_off_c, 1, 49, 0
3, 96576, Note_on_c, 1, 49, 79
3, 96636, Note_off_c, 1, 49, 0
3, 96640, Note_on_c, 1, 49, 79
3, 96700, Note_off_c, 1, 49, 0
3, 96704, Note_on_c, 1, 49, 79
3, 96764, Note_off_c, 1, 49, 0
3, 96768, Note_on_c, 1, 48, 82
3, 96768, Note_on_c, 1, 36, 82
3, 97148, Note_off_c, 1, 48, 0
3, 97148, Note_off_c, 1, 36, 0
3, 97152, Note_on_c, 1, 48, 82
3, 97152, Note_on_c, 1, 36, 82
3, 97340, Note_off_c, 1, 48, 0
3, 97340, Note_off_c, 1, 36, 0
3, 97920, Note_on_c, 1, 53, 90
3, 97920, Note_on_c, 1, 41, 90
3, 98300, Note_off_c, 1, 53, 0
3, 98300, Note_off_c, 1, 41, 0
3, 98304, Note_on_c, 1, 57, 60
3, 98304, Note_on_c, 1, 45, 60
3, 98684, Note_off_c, 1, 57, 0
3, 98684, Note_off_c, 1, 45, 0
3, 98688, Note_on_c, 1, 60, 67
3, 98688, Note_on_c, 1, 48, 67
3, 99068, Note_off_c, 1, 60, 0
3, 99068, Note_off_c, 1, 48, 0
3, 99072, Note_on_c, 1, 62, 75
3, 99072, Note_on_c, 1, 50, 75
3, 99452, Note_off_c, 1, 62, 0
3, 99452, Note_off_c, 1, 50, 0
3, 99456, Note_on_c, 1, 62, 75
3, 99456, Note_on_c, 1, 50, 75
3, 99644, Note_off_c, 1, 62, 0
3, 99644, Note_off_c, 1, 50, 0
3, 99840, Note_on_c, 1, 45, 90
3, 100220, Note_off_c, 1, 45, 0
3, 100224, Note_on_c, 1, 46, 75
3, 100604, Note_off_c, 1, 46, 0
3, 100608, Note_on_c, 1, 31, 75
3, 100608, Note_on_c, 1, 43, 75
3, 100988, Note_off_c, 1, 31, 0
3, 100988, Note_off_c, 1, 43, 0
3, 100992, Note_on_c, 1, 34, 75
3, 100992, Note_on_c, 1, 46, 75
3, 101276, Note_off_c, 1, 34, 0
3, 101276, Note_off_c, 1, 46, 0
3, 101328, Note_on_c, 1, 58, 75
3, 101372, Note_off_c, 1, 58, 0
3, 101376, Note_on_c, 1, 57, 90
3, 101376, Note_on_c, 1, 48, 90
3, 101756, Note_off_c, 1, 57, 0
3, 101756, Note_off_c, 1, 48, 0
3, 101760, Note_on_c, 1, 55, 90
3, 101760, Note_on_c, 1, 48, 90
3, 101948, Note_off_c, 1, 55, 0
3, 101948, Note_off_c, 1, 48, 0
3, 102528, Note_on_c, 1, 53, 90
3, 102528, Note_on_c, 1, 41, 90
3, 102908, Note_off_c, 1, 53, 0
3, 102908, Note_off_c, 1, 41, 0
3, 102912, Note_on_c, 1, 57, 60
3, 102912, Note_on_c, 1, 45, 60
3, 103292, Note_off_c, 1, 57, 0
3, 103292, Note_off_c, 1, 45, 0
3, 103296, Note_on_c, 1, 60, 60
3, 103296, Note_on_c, 1, 48, 60
3, 103676, Note_off_c, 1, 60, 0
3, 103676, Note_off_c, 1, 48, 0
3, 103680, Note_on_c, 1, 62, 69
3, 103680, Note_on_c, 1, 50, 69
3, 104060, Note_off_c, 1, 62, 0
3, 104060, Note_off_c, 1, 50, 0
3, 104064, Note_on_c, 1, 62, 75
3, 104064, Note_on_c, 1, 50, 75
3, 104252, Note_off_c, 1, 62, 0
3, 104252, Note_off_c, 1, 50, 0
3, 104448, Note_on_c, 1, 50, 75
3, 104448, Note_on_c, 1, 46, 75
3, 104636, Note_off_c, 1, 50, 0
3, 104640, Note_on_c, 1, 52, 75
3, 104828, Note_off_c, 1, 46, 0
3, 104828, Note_off_c, 1, 52, 0
3, 104832, Note_on_c, 1, 53, 90
3, 104832, Note_on_c, 1, 45, 90
3, 105020, Note_off_c, 1, 45, 0
3, 105024, Note_on_c, 1, 46, 84
3, 105212, Note_off_c, 1, 53, 0
3, 105212, Note_off_c, 1, 46, 0
3, 105408, Note_on_c, 1, 53, 75
3, 105408, Note_on_c, 1, 48, 75
3, 105596, Note_off_c, 1, 53, 0
3, 105596, Note_off_c, 1, 48, 0
3, 105792, Note_on_c, 1, 52, 60
3, 105792, Note_on_c, 1, 48, 60
3, 105980, Note_off_c, 1, 52, 0
3, 105980, Note_off_c, 1, 48, 0
3, 105984, Note_on_c, 1, 53, 45
3, 106076, Note_off_c, 1, 53, 0
3, 106080, Note_on_c, 1, 57, 45
3, 106172, Note_off_c, 1, 57, 0
3, 106176, Note_on_c, 1, 60, 45
3, 106268, Note_off_c, 1, 60, 0
3, 106272, Note_on_c, 1, 57, 45
3, 106364, Note_off_c, 1, 57, 0
3, 106368, Note_on_c, 1, 53, 45
3, 106460, Note_off_c, 1, 53, 0
3, 106464, Note_on_c, 1, 57, 45
3, 106556, Note_off_c, 1, 57, 0
3, 106560, Note_on_c, 1, 60, 45
3, 106652, Note_off_c, 1, 60, 0
3, 106656, Note_on_c, 1, 57, 45
3, 106748, Note_off_c, 1, 57, 0
3, 106752, Note_on_c, 1, 53, 45
3, 106844, Note_off_c, 1, 53, 0
3, 106848, Note_on_c, 1, 57, 45
3, 106940, Note_off_c, 1, 57, 0
3, 106944, Note_on_c, 1, 60, 45
3, 107036, Note_off_c, 1, 60, 0
3, 107040, Note_on_c, 1, 57, 45
3, 107132, Note_off_c, 1, 57, 0
3, 107136, Note_on_c, 1, 51, 82
3, 107228, Note_off_c, 1, 51, 0
3, 107232, Note_on_c, 1, 53, 82
3, 107324, Note_off_c, 1, 53, 0
3, 107328, Note_on_c, 1, 60, 82
3, 107420, Note_off_c, 1, 60, 0
3, 107424, Note_on_c, 1, 53, 82
3, 107516, Note_off_c, 1, 53, 0
3, 107520, Note_on_c, 1, 51, 45
3, 107612, Note_off_c, 1, 51, 0
3, 107616, Note_on_c, 1, 53, 45
3, 107708, Note_off_c, 1, 53, 0
3, 107712, Note_on_c, 1, 60, 45
3, 107804, Note_off_c, 1, 60, 0
3, 107808, Note_on_c, 1, 53, 45
3, 107900, Note_off_c, 1, 53, 0
3, 107904, Note_on_c, 1, 51, 45
3, 107996, Note_off_c, 1, 51, 0
3, 108000, Note_on_c, 1, 53, 45
3, 108092, Note_off_c, 1, 53, 0
3, 108096, Note_on_c, 1, 60, 45
3, 108188, Note_off_c, 1, 60, 0
3, 108192, Note_on_c, 1, 53, 45
3, 108284, Note_off_c, 1, 53, 0
3, 108288, Note_on_c, 1, 50, 75
3, 108380, Note_off_c, 1, 50, 0
3, 108384, Note_on_c, 1, 53, 75
3, 108476, Note_off_c, 1, 53, 0
3, 108480, Note_on_c, 1, 58, 75
3, 108572, Note_off_c, 1, 58, 0
3, 108576, Note_on_c, 1, 53, 75
3, 108668, Note_off_c, 1, 53, 0
3, 108672, Note_on_c, 1, 50, 75
3, 108764, Note_off_c, 1, 50, 0
3, 108768, Note_on_c, 1, 53, 75
3, 108860, Note_off_c, 1, 53, 0
3, 108864, Note_on_c, 1, 58, 75
3, 108956, Note_off_c, 1, 58, 0
3, 108960, Note_on_c, 1, 53, 75
3, 109052, Note_off_c, 1, 53, 0
3, 109056, Note_on_c, 1, 50, 75
3, 109148, Note_off_c, 1, 50, 0
3, 109152, Note_on_c, 1, 53, 75
3, 109244, Note_off_c, 1, 53, 0
3, 109248, Note_on_c, 1, 58, 75
3, 109340, Note_off_c, 1, 58, 0
3, 109344, Note_on_c, 1, 53, 75
3, 109436, Note_off_c, 1, 53, 0
3, 109440, Note_on_c, 1, 48, 45
3, 109532, Note_off_c, 1, 48, 0
3, 109536, Note_on_c, 1, 54, 45
3, 109628, Note_off_c, 1, 54, 0
3, 109632, Note_on_c, 1, 57, 45
3, 109724, Note_off_c, 1, 57, 0
3, 109728, Note_on_c, 1, 54, 45
3, 109820, Note_off_c, 1, 54, 0
3, 109824, Note_on_c, 1, 48, 45
3, 109916, Note_off_c, 1, 48, 0
3, 109920, Note_on_c, 1, 54, 45
3, 110012, Note_off_c, 1, 54, 0
3, 110016, Note_on_c, 1, 57, 45
3, 110108, Note_off_c, 1, 57, 0
3, 110112, Note_on_c, 1, 54, 45
3, 110204, Note_off_c, 1, 54, 0
3, 110208, Note_on_c, 1, 48, 45
3, 110300, Note_off_c, 1, 48, 0
3, 110304, Note_on_c, 1, 54, 45
3, 110396, Note_off_c, 1, 54, 0
3, 110400, Note_on_c, 1, 57, 45
3, 110492, Note_off_c, 1, 57, 0
3, 110496, Note_on_c, 1, 54, 45
3, 110588, Note_off_c, 1, 54, 0
3, 110592, Note_on_c, 1, 46, 75
3, 110684, Note_off_c, 1, 46, 0
3, 110688, Note_on_c, 1, 50, 75
3, 110780, Note_off_c, 1, 50, 0
3, 110784, Note_on_c, 1, 55, 75
3, 110876, Note_off_c, 1, 55, 0
3, 110880, Note_on_c, 1, 50, 75
3, 110972, Note_off_c, 1, 50, 0
3, 110976, Note_on_c, 1, 46, 75
3, 111068, Note_off_c, 1, 46, 0
3, 111072, Note_on_c, 1, 50, 75
3, 111164, Note_off_c, 1, 50, 0
3, 111168, Note_on_c, 1, 55, 75
3, 111260, Note_off_c, 1, 55, 0
3, 111264, Note_on_c, 1, 50, 75
3, 111356, Note_off_c, 1, 50, 0
3, 111360, Note_on_c, 1, 46, 75
3, 111452, Note_off_c, 1, 46, 0
3, 111456, Note_on_c, 1, 50, 75
3, 111548, Note_off_c, 1, 50, 0
3, 111552, Note_on_c, 1, 55, 75
3, 111644, Note_off_c, 1, 55, 0
3, 111648, Note_on_c, 1, 50, 75
3, 111740, Note_off_c, 1, 50, 0
3, 111744, Note_on_c, 1, 46, 84
3, 112124, Note_off_c, 1, 46, 0
3, 112704, Note_on_c, 1, 46, 60
3, 112796, Note_off_c, 1, 46, 0
3, 112800, Note_on_c, 1, 58, 60
3, 112892, Note_off_c, 1, 58, 0
3, 112896, Note_on_c, 1, 57, 75
3, 112896, Note_on_c, 1, 48, 75
3, 113276, Note_off_c, 1, 57, 0
3, 113276, Note_off_c, 1, 48, 0
3, 113280, Note_on_c, 1, 55, 75
3, 113280, Note_on_c, 1, 48, 75
3, 113372, Note_off_c, 1, 55, 0
3, 113372, Note_off_c, 1, 48, 0
3, 113376, Note_on_c, 1, 59, 75
3, 113468, Note_off_c, 1, 59, 0
3, 113472, Note_on_c, 1, 60, 75
3, 113564, Note_off_c, 1, 60, 0
3, 113568, Note_on_c, 1, 59, 75
3, 113660, Note_off_c, 1, 59, 0
3, 113664, Note_on_c, 1, 60, 75
3, 113756, Note_off_c, 1, 60, 0
3, 113760, Note_on_c, 1, 58, 75
3, 113852, Note_off_c, 1, 58, 0
3, 113856, Note_on_c, 1, 57, 75
3, 113948, Note_off_c, 1, 57, 0
3, 113952, Note_on_c, 1, 55, 75
3, 114044, Note_off_c, 1, 55, 0
3, 114048, Note_on_c, 1, 53, 75
3, 114236, Note_off_c, 1, 53, 0
3, 114432, Note_on_c, 1, 57, 60
3, 114432, Note_on_c, 1, 53, 60
3, 114620, Note_off_c, 1, 57, 0
3, 114620, Note_off_c, 1, 53, 0
3, 114624, Note_on_c, 1, 58, 60
3, 114624, Note_on_c, 1, 55, 60
3, 114812, Note_off_c, 1, 58, 0
3, 114812, Note_off_c, 1, 55, 0
3, 114816, Note_on_c, 1, 57, 60
3, 114832, Note_on_c, 1, 60, 60
3, 115004, Note_off_c, 1, 57, 0
3, 115008, Note_on_c, 1, 57, 60
3, 115008, Note_on_c, 1, 53, 60
3, 115020, Note_off_c, 1, 60, 0
3, 115196, Note_off_c, 1, 57, 0
3, 115196, Note_off_c, 1, 53, 0
3, 115200, Note_on_c, 1, 58, 67
3, 115200, Note_on_c, 1, 55, 67
3, 115388, Note_off_c, 1, 58, 0
3, 115388, Note_off_c, 1, 55, 0
3, 115584, Note_on_c, 1, 55, 67
3, 115584, Note_on_c, 1, 52, 67
3, 115772, Note_off_c, 1, 55, 0
3, 115772, Note_off_c, 1, 52, 0
3, 115776, Note_on_c, 1, 53, 67
3, 115776, Note_on_c, 1, 50, 67
3, 115964, Note_off_c, 1, 53, 0
3, 115964, Note_off_c, 1, 50, 0
3, 115968, Note_on_c, 1, 52, 67
3, 115968, Note_on_c, 1, 48, 67
3, 116156, Note_off_c, 1, 52, 0
3, 116156, Note_off_c, 1, 48, 0
3, 116160, Note_on_c, 1, 46, 67
3, 116160, Note_on_c, 1, 52, 67
3, 116348, Note_off_c, 1, 46, 0
3, 116348, Note_off_c, 1, 52, 0
3, 116352, Note_on_c, 1, 53, 75
3, 116352, Note_on_c, 1, 45, 75
3, 116444, Note_off_c, 1, 53, 0
3, 116448, Note_on_c, 1, 53, 75
3, 116540, Note_off_c, 1, 45, 0
3, 116540, Note_off_c, 1, 53, 0
3, 116544, Note_on_c, 1, 53, 75
3, 116636, Note_off_c, 1, 53, 0
3, 116640, Note_on_c, 1, 53, 75
3, 116732, Note_off_c, 1, 53, 0
3, 116736, Note_on_c, 1, 53, 75
3, 116828, Note_off_c, 1, 53, 0
3, 116832, Note_on_c, 1, 53, 75
3, 116924, Note_off_c, 1, 53, 0
3, 116928, Note_on_c, 1, 53, 75
3, 116928, Note_on_c, 1, 51, 75
3, 117020, Note_off_c, 1, 53, 0
3, 117024, Note_on_c, 1, 53, 75
3, 117116, Note_off_c, 1, 51, 0
3, 117116, Note_off_c, 1, 53, 0
3, 117120, Note_on_c, 1, 53, 75
3, 117120, Note_on_c, 1, 50, 75
3, 117212, Note_off_c, 1, 53, 0
3, 117216, Note_on_c, 1, 55, 75
3, 117260, Note_off_c, 1, 55, 0
3, 117264, Note_on_c, 1, 57, 75
3, 117308, Note_off_c, 1, 50, 0
3, 117308, Note_off_c, 1, 57, 0
3, 117312, Note_on_c, 1, 58, 75
3, 117312, Note_on_c, 1, 46, 75
3, 117356, Note_off_c, 1, 58, 0
3, 117360, Note_on_c, 1, 57, 75
3, 117404, Note_off_c, 1, 57, 0
3, 117408, Note_on_c, 1, 55, 75
3, 117452, Note_off_c, 1, 55, 0
3, 117456, Note_on_c, 1, 53, 75
3, 117500, Note_off_c, 1, 46, 0
3, 117500, Note_off_c, 1, 53, 0
3, 117504, Note_on_c, 1, 51, 75
3, 117504, Note_on_c, 1, 48, 75
3, 117596, Note_off_c, 1, 51, 0
3, 117600, Note_on_c, 1, 51, 75
3, 117692, Note_off_c, 1, 51, 0
3, 117696, Note_on_c, 1, 51, 75
3, 117788, Note_off_c, 1, 51, 0
3, 117792, Note_on_c, 1, 51, 75
3, 117884, Note_off_c, 1, 48, 0
3, 117884, Note_off_c, 1, 51, 0
3, 117888, Note_on_c, 1, 51, 75
3, 117888, Note_on_c, 1, 48, 75
3, 117980, Note_off_c, 1, 51, 0
3, 117984, Note_on_c, 1, 51, 75
3, 118076, Note_off_c, 1, 48, 0
3, 118076, Note_off_c, 1, 51, 0
3, 118080, Note_on_c, 1, 51, 75
3, 118080, Note_on_c, 1, 45, 75
3, 118172, Note_off_c, 1, 51, 0
3, 118176, Note_on_c, 1, 51, 75
3, 118268, Note_off_c, 1, 45, 0
3, 118268, Note_off_c, 1, 51, 0
3, 118272, Note_on_c, 1, 51, 75
3, 118272, Note_on_c, 1, 41, 75
3, 118364, Note_off_c, 1, 51, 0
3, 118368, Note_on_c, 1, 50, 75
3, 118412, Note_off_c, 1, 50, 0
3, 118416, Note_on_c, 1, 48, 75
3, 118460, Note_off_c, 1, 41, 0
3, 118460, Note_off_c, 1, 48, 0
3, 118464, Note_on_c, 1, 46, 75
3, 118464, Note_on_c, 1, 39, 75
3, 118508, Note_off_c, 1, 46, 0
3, 118512, Note_on_c, 1, 45, 75
3, 118556, Note_off_c, 1, 45, 0
3, 118560, Note_on_c, 1, 43, 75
3, 118604, Note_off_c, 1, 43, 0
3, 118608, Note_on_c, 1, 41, 75
3, 118652, Note_off_c, 1, 39, 0
3, 118652, Note_off_c, 1, 41, 0
3, 118656, Note_on_c, 1, 46, 75
3, 118656, Note_on_c, 1, 38, 75
3, 118844, Note_off_c, 1, 46, 0
3, 118844, Note_off_c, 1, 38, 0
3, 119040, Note_on_c, 1, 62, 90
3, 119040, Note_on_c, 1, 50, 90
3, 119420, Note_off_c, 1, 62, 0
3, 119420, Note_off_c, 1, 50, 0
3, 119424, Note_on_c, 1, 60, 90
3, 119424, Note_on_c, 1, 48, 90
3, 119804, Note_off_c, 1, 60, 0
3, 119804, Note_off_c, 1, 48, 0
3, 119808, Note_on_c, 1, 58, 75
3, 119808, Note_on_c, 1, 46, 75
3, 119996, Note_off_c, 1, 58, 0
3, 119996, Note_off_c, 1, 46, 0
3, 120192, Note_on_c, 1, 46, 90
3, 120192, Note_on_c, 1, 34, 90
3, 120572, Note_off_c, 1, 46, 0
3, 120572, Note_off_c, 1, 34, 0
3, 120576, Note_on_c, 1, 48, 90
3, 120576, Note_on_c, 1, 36, 90
3, 120956, Note_off_c, 1, 48, 0
3, 120956, Note_off_c, 1, 36, 0
3, 120960, Note_on_c, 1, 50, 75
3, 120960, Note_on_c, 1, 38, 75
3, 121340, Note_off_c, 1, 50, 0
3, 121340, Note_off_c, 1, 38, 0
3, 121344, Note_on_c, 1, 62, 90
3, 121344, Note_on_c, 1, 50, 90
3, 121724, Note_off_c, 1, 62, 0
3, 121724, Note_off_c, 1, 50, 0
3, 121728, Note_on_c, 1, 60, 90
3, 121728, Note_on_c, 1, 48, 90
3, 122108, Note_off_c, 1, 60, 0
3, 122108, Note_off_c, 1, 48, 0
3, 122112, Note_on_c, 1, 58, 75
3, 122112, Note_on_c, 1, 46, 75
3, 122492, Note_off_c, 1, 58, 0
3, 122492, Note_off_c, 1, 46, 0
3, 122688, Note_on_c, 1, 62, 75
3, 122780, Note_off_c, 1, 62, 0
3, 122784, Note_on_c, 1, 60, 78
3, 122876, Note_off_c, 1, 60, 0
3, 122880, Note_on_c, 1, 58, 81
3, 122972, Note_off_c, 1, 58, 0
3, 122976, Note_on_c, 1, 60, 84
3, 123068, Note_off_c, 1, 60, 0
3, 123072, Note_on_c, 1, 62, 85
3, 123164, Note_off_c, 1, 62, 0
3, 123168, Note_on_c, 1, 64, 87
3, 123260, Note_off_c, 1, 64, 0
3, 123264, Note_on_c, 1, 65, 87
3, 123452, Note_off_c, 1, 65, 0
3, 123456, Note_on_c, 1, 58, 82
3, 123644, Note_off_c, 1, 58, 0
3, 123648, Note_on_c, 1, 60, 60
3, 123836, Note_off_c, 1, 60, 0
3, 124032, Note_on_c, 1, 48, 60
3, 124220, Note_off_c, 1, 48, 0
3, 124416, Note_on_c, 1, 53, 90
3, 124604, Note_off_c, 1, 53, 0
3, 124896, Note_on_c, 1, 41, 90
3, 124988, Note_off_c, 1, 41, 0
3, 124992, Note_on_c, 1, 53, 90
3, 125084, Note_off_c, 1, 53, 0
3, 125088, Note_on_c, 1, 52, 90
3, 125180, Note_off_c, 1, 52, 0
3, 125184, Note_on_c, 1, 50, 60
3, 125276, Note_off_c, 1, 50, 0
3, 125280, Note_on_c, 1, 38, 90
3, 125372, Note_off_c, 1, 38, 0
3, 125376, Note_on_c, 1, 50, 90
3, 125468, Note_off_c, 1, 50, 0
3, 125472, Note_on_c, 1, 48, 90
3, 125564, Note_off_c, 1, 48, 0
3, 125568, Note_on_c, 1, 46, 60
3, 125660, Note_off_c, 1, 46, 0
3, 125664, Note_on_c, 1, 34, 90
3, 125756, Note_off_c, 1, 34, 0
3, 125760, Note_on_c, 1, 46, 90
3, 125852, Note_off_c, 1, 46, 0
3, 125856, Note_on_c, 1, 45, 90
3, 125948, Note_off_c, 1, 45, 0
3, 125952, Note_on_c, 1, 46, 60
3, 126044, Note_off_c, 1, 46, 0
3, 126048, Note_on_c, 1, 54, 64
3, 126048, Note_on_c, 1, 42, 64
3, 126140, Note_off_c, 1, 54, 0
3, 126140, Note_off_c, 1, 42, 0
3, 126144, Note_on_c, 1, 55, 69
3, 126144, Note_on_c, 1, 43, 69
3, 126236, Note_off_c, 1, 55, 0
3, 126236, Note_off_c, 1, 43, 0
3, 126240, Note_on_c, 1, 53, 73
3, 126240, Note_on_c, 1, 41, 73
3, 126332, Note_off_c, 1, 53, 0
3, 126332, Note_off_c, 1, 41, 0
3, 126336, Note_on_c, 1, 52, 78
3, 126336, Note_on_c, 1, 40, 78
3, 126428, Note_off_c, 1, 52, 0
3, 126428, Note_off_c, 1, 40, 0
3, 126432, Note_on_c, 1, 57, 82
3, 126432, Note_on_c, 1, 45, 82
3, 126524, Note_off_c, 1, 57, 0
3, 126524, Note_off_c, 1, 45, 0
3, 126528, Note_on_c, 1, 58, 85
3, 126528, Note_on_c, 1, 46, 85
3, 126620, Note_off_c, 1, 58, 0
3, 126620, Note_off_c, 1, 46, 0
3, 126624, Note_on_c, 1, 55, 88
3, 126624, Note_on_c, 1, 43, 88
3, 126716, Note_off_c, 1, 55, 0
3, 126716, Note_off_c, 1, 43, 0
3, 126720, Note_on_c, 1, 57, 90
3, 126720, Note_on_c, 1, 45, 90
3, 126908, Note_off_c, 1, 57, 0
3, 126908, Note_off_c, 1, 45, 0
3, 126912, Note_on_c, 1, 58, 90
3, 126912, Note_on_c, 1, 46, 90
3, 127100, Note_off_c, 1, 58, 0
3, 127100, Note_off_c, 1, 46, 0
3, 127104, Note_on_c, 1, 60, 60
3, 127104, Note_on_c, 1, 48, 60
3, 127292, Note_off_c, 1, 60, 0
3, 127292, Note_off_c, 1, 48, 0
3, 127488, Note_on_c, 1, 48, 60
3, 127488, Note_on_c, 1, 36, 60
3, 127676, Note_off_c, 1, 48, 0
3, 127676, Note_off_c, 1, 36, 0
3, 127872, Note_on_c, 1, 53, 90
3, 127872, Note_on_c, 1, 41, 90
3, 128060, Note_off_c, 1, 53, 0
3, 128060, Note_off_c, 1, 41, 0
3, 128352, Note_on_c, 1, 53, 90
3, 128444, Note_off_c, 1, 53, 0
3, 128448, Note_on_c, 1, 65, 90
3, 128540, Note_off_c, 1, 65, 0
3, 128544, Note_on_c, 1, 64, 90
3, 128636, Note_off_c, 1, 64, 0
3, 128640, Note_on_c, 1, 62, 60
3, 128732, Note_off_c, 1, 62, 0
3, 128736, Note_on_c, 1, 50, 90
3, 128828, Note_off_c, 1, 50, 0
3, 128832, Note_on_c, 1, 62, 90
3, 128924, Note_off_c, 1, 62, 0
3, 128928, Note_on_c, 1, 60, 90
3, 129020, Note_off_c, 1, 60, 0
3, 129024, Note_on_c, 1, 58, 60
3, 129212, Note_off_c, 1, 58, 0
3, 129408, Note_on_c, 1, 58, 60
3, 129408, Note_on_c, 1, 62, 60
3, 129596, Note_off_c, 1, 58, 0
3, 129596, Note_off_c, 1, 62, 0
3, 129792, Note_on_c, 1, 58, 60
3, 129792, Note_on_c, 1, 62, 60
3, 129980, Note_off_c, 1, 58, 0
3, 129980, Note_off_c, 1, 62, 0
3, 130224, Note_on_c, 1, 36, 61
3, 130268, Note_off_c, 1, 36, 0
3, 130272, Note_on_c, 1, 38, 63
3, 130316, Note_off_c, 1, 38, 0
3, 130320, Note_on_c, 1, 40, 64
3, 130364, Note_off_c, 1, 40, 0
3, 130368, Note_on_c, 1, 41, 64
3, 130412, Note_off_c, 1, 41, 0
3, 130416, Note_on_c, 1, 43, 66
3, 130460, Note_off_c, 1, 43, 0
3, 130464, Note_on_c, 1, 45, 67
3, 130508, Note_off_c, 1, 45, 0
3, 130512, Note_on_c, 1, 46, 67
3, 130556, Note_off_c, 1, 46, 0
3, 130560, Note_on_c, 1, 48, 69
3, 130604, Note_off_c, 1, 48, 0
3, 130608, Note_on_c, 1, 48, 69
3, 130652, Note_off_c, 1, 48, 0
3, 130656, Note_on_c, 1, 50, 70
3, 130700, Note_off_c, 1, 50, 0
3, 130704, Note_on_c, 1, 52, 70
3, 130748, Note_off_c, 1, 52, 0
3, 130752, Note_on_c, 1, 53, 72
3, 130796, Note_off_c, 1, 53, 0
3, 130800, Note_on_c, 1, 55, 72
3, 130844, Note_off_c, 1, 55, 0
3, 130848, Note_on_c, 1, 57, 73
3, 130892, Note_off_c, 1, 57, 0
3, 130896, Note_on_c, 1, 58, 75
3, 130940, Note_off_c, 1, 58, 0
3, 130944, Note_on_c, 1, 60, 76
3, 130988, Note_off_c, 1, 60, 0
3, 130992, Note_on_c, 1, 62, 78
3, 131036, Note_off_c, 1, 62, 0
3, 131040, Note_on_c, 1, 64, 79
3, 131084, Note_off_c, 1, 64, 0
3, 131088, Note_on_c, 1, 65, 81
3, 131132, Note_off_c, 1, 65, 0
3, 133824, Note_on_c, 1, 63, 75
3, 133824, Note_on_c, 1, 53, 75
3, 134012, Note_off_c, 1, 63, 0
3, 134012, Note_off_c, 1, 53, 0
3, 134016, Note_on_c, 1, 62, 79
3, 134016, Note_on_c, 1, 53, 79
3, 134204, Note_off_c, 1, 62, 0
3, 134204, Note_off_c, 1, 53, 0
3, 134400, Note_on_c, 1, 58, 84
3, 134400, Note_on_c, 1, 55, 84
3, 134400, Note_on_c, 1, 53, 84
3, 134588, Note_off_c, 1, 58, 0
3, 134588, Note_off_c, 1, 55, 0
3, 134588, Note_off_c, 1, 53, 0
3, 134784, Note_on_c, 1, 58, 90
3, 134784, Note_on_c, 1, 55, 90
3, 134784, Note_on_c, 1, 52, 90
3, 134784, Note_on_c, 1, 48, 90
3, 134784, Note_on_c, 1, 41, 90
3, 135164, Note_off_c, 1, 41, 0
3, 135168, Note_on_c, 1, 36, 75
3, 135548, Note_off_c, 1, 58, 0
3, 135548, Note_off_c, 1, 55, 0
3, 135548, Note_off_c, 1, 52, 0
3, 135548, Note_off_c, 1, 48, 0
3, 135548, Note_off_c, 1, 36, 0
3, 135552, Note_on_c, 1, 29, 60
3, 135552, Note_on_c, 1, 57, 60
3, 135552, Note_on_c, 1, 53, 60
3, 135552, Note_on_c, 1, 48, 60
3, 135932, Note_off_c, 1, 29, 0
3, 135932, Note_off_c, 1, 57, 0
3, 135932, Note_off_c, 1, 53, 0
3, 135932, Note_off_c, 1, 48, 0
3, 135932, End_track
4, 0, Start_track
4, 0, Key_signature, -1, "minor"
4, 0, End_track
5, 0, Start_track
5, 0, Key_signature, -1, "minor"
5, 0, End_track
6, 0, Start_track
6, 0, Key_signature, -1, "minor"
6, 0, End_track
7, 0, Start_track
7, 0, Key_signature, -1, "minor"
7, 0, End_track
8, 0, Start_track
8, 0, Key_signature, -1, "minor"
8, 0, End_track
9, 0, Start_track
9, 0, Key_signature, -1, "minor"
9, 0, End_track
10, 0, Start_track
10, 0, Key_signature, -1, "minor"
10, 0, End_track
11, 0, Start_track
11, 0, Key_signature, -1, "minor"
11, 0, End_track
12, 0, Start_track
12, 0, Key_signature, -1, "minor"
12, 0, End_track
13, 0, Start_track
13, 0, Key_signature, -1, "minor"
13, 0, End_track
14, 0, Start_track
14, 0, Key_signature, -1, "minor"
14, 0, End_track
15, 0, Start_track
15, 0, Key_signature, -1, "minor"
15, 0, End_track
16, 0, Start_track
16, 0, Key_signature, -1, "minor"
16, 0, End_track
17, 0, Start_track
17, 0, Key_signature, -1, "minor"
17, 0, End_track
18, 0, Start_track
18, 0, Key_signature, 0, "major"
18, 0, End_track
0, 0, End_of_file
