0, 0, Header, 1, 8, 384
1, 0, Start_track
1, 0, Time_signature, 2, 2, 96, 8
1, 0, Sequencer_specific, 3, 0, 0, 65
1, 0, Tempo, 1875000
1, 3456, Tempo, 2307692
1, 3644, Tempo, 1875000
1, 6528, Tempo, 2307692
1, 6716, Tempo, 1875000
1, 17280, Tempo, 2307692
1, 17468, Tempo, 1875000
1, 48000, Tempo, 2307692
1, 48188, Tempo, 1875000
1, 59136, Tempo, 2307692
1, 59324, Tempo, 2500000
1, 59520, Tempo, 2727272
1, 59904, Tempo, 1875000
1, 95232, Tempo, 2142857
1, 95616, Tempo, 2307692
1, 96000, Tempo, 2500000
1, 96384, Tempo, 1875000
1, 98688, Tempo, 1578947
1, 99840, Time_signature, 3, 2, 96, 8
1, 99840, Tempo, 1875000
1, 100032, Tempo, 2307692
1, 100416, Tempo, 1875000
1, 100608, Tempo, 2307692
1, 100992, Time_signature, 2, 2, 96, 8
1, 100992, Tempo, 1875000
1, 102528, Tempo, 2142857
1, 102912, Tempo, 2307692
1, 103104, Tempo, 2727272
1, 103296, Tempo, 1666666
1, 103680, Tempo, 1363636
1, 104832, Tempo, 1764705
1, 111744, Tempo, 1666666
1, 112896, Tempo, 1764705
1, 113280, Tempo, 1666666
1, 115584, Tempo, 2000000
1, 117120, Tempo, 1250000
1, 117888, Tempo, 1666666
1, 122496, Tempo, 1764705
1, 123072, Tempo, 2727272
1, 123264, Tempo, 1875000
1, 123264, End_track
2, 0, Start_track
2, 0, Title_t, "Mozart Violin Concerto"
2, 0, Control_c, 0, 0, 0
2, 0, Program_c, 0, 40
2, 0, Control_c, 0, 10, 63
2, 0, Control_c, 0, 91, 67
2, 0, Control_c, 0, 93, 54
2, 0, Key_signature, 4, "major"
2, 0, Control_c, 0, 121, 0
2, 12, Control_c, 0, 10, 63
2, 16, Control_c, 0, 91, 63
2, 20, Control_c, 0, 93, 35
2, 24, Program_c, 0, 40
2, 28, Control_c, 0, 1, 45
2, 17280, Control_c, 0, 1, 45
2, 17472, Note_on_c, 0, 83, 59
2, 17664, Note_off_c, 0, 83, 64
2, 17664, Note_on_c, 0, 81, 59
2, 17760, Note_off_c, 0, 81, 64
2, 17760, Note_on_c, 0, 80, 59
2, 17856, Note_off_c, 0, 80, 64
2, 17856, Note_on_c, 0, 85, 56
2, 17952, Note_off_c, 0, 85, 64
2, 17952, Note_on_c, 0, 81, 59
2, 18048, Note_off_c, 0, 81, 64
2, 18048, Note_on_c, 0, 80, 59
2, 18144, Note_off_c, 0, 80, 64
2, 18144, Note_on_c, 0, 78, 59
2, 18240, Note_off_c, 0, 78, 64
2, 18240, Note_on_c, 0, 83, 59
2, 18336, Note_off_c, 0, 83, 64
2, 18336, Note_on_c, 0, 80, 59
2, 18432, Note_off_c, 0, 80, 64
2, 18432, Note_on_c, 0, 78, 59
2, 18528, Note_off_c, 0, 78, 64
2, 18528, Note_on_c, 0, 76, 59
2, 18624, Note_off_c, 0, 76, 64
2, 18624, Note_on_c, 0, 81, 76
2, 19004, Note_off_c, 0, 81, 64
2, 19008, Note_on_c, 0, 80, 59
2, 19168, Note_off_c, 0, 80, 64
2, 19200, Note_on_c, 0, 78, 59
2, 19292, Note_off_c, 0, 78, 64
2, 19296, Note_on_c, 0, 76, 59
2, 19388, Note_off_c, 0, 76, 64
2, 19392, Note_on_c, 0, 85, 56
2, 19772, Note_off_c, 0, 85, 64
2, 19776, Note_on_c, 0, 87, 59
2, 19964, Note_off_c, 0, 87, 64
2, 19968, Note_on_c, 0, 87, 59
2, 20060, Note_off_c, 0, 87, 64
2, 20064, Note_on_c, 0, 88, 59
2, 20156, Note_off_c, 0, 88, 64
2, 20160, Note_on_c, 0, 88, 59
2, 20448, Note_on_c, 0, 79, 59
2, 20540, Note_off_c, 0, 88, 64
2, 20540, Note_off_c, 0, 79, 64
2, 20544, Note_on_c, 0, 79, 59
2, 20636, Note_off_c, 0, 79, 64
2, 20640, Note_on_c, 0, 79, 59
2, 20732, Note_off_c, 0, 79, 64
2, 20736, Note_on_c, 0, 80, 59
2, 21020, Note_off_c, 0, 80, 64
2, 21024, Note_on_c, 0, 83, 59
2, 21068, Note_off_c, 0, 83, 64
2, 21072, Note_on_c, 0, 81, 59
2, 21116, Note_off_c, 0, 81, 64
2, 21120, Note_on_c, 0, 78, 59
2, 21136, Note_off_c, 0, 78, 64
2, 21136, Note_on_c, 0, 80, 59
2, 21152, Note_off_c, 0, 80, 64
2, 21152, Note_on_c, 0, 78, 59
2, 21168, Note_off_c, 0, 78, 64
2, 21168, Note_on_c, 0, 80, 59
2, 21184, Note_off_c, 0, 80, 64
2, 21184, Note_on_c, 0, 78, 59
2, 21200, Note_off_c, 0, 78, 64
2, 21200, Note_on_c, 0, 80, 59
2, 21216, Note_off_c, 0, 80, 64
2, 21216, Note_on_c, 0, 78, 59
2, 21232, Note_off_c, 0, 78, 64
2, 21232, Note_on_c, 0, 80, 59
2, 21248, Note_off_c, 0, 80, 64
2, 21248, Note_on_c, 0, 78, 59
2, 21264, Note_off_c, 0, 78, 64
2, 21264, Note_on_c, 0, 80, 59
2, 21280, Note_off_c, 0, 80, 64
2, 21280, Note_on_c, 0, 78, 59
2, 21296, Note_off_c, 0, 78, 64
2, 21296, Note_on_c, 0, 80, 59
2, 21312, Note_off_c, 0, 80, 64
2, 21312, Note_on_c, 0, 78, 59
2, 21328, Note_off_c, 0, 78, 64
2, 21328, Note_on_c, 0, 80, 59
2, 21344, Note_off_c, 0, 80, 64
2, 21344, Note_on_c, 0, 78, 59
2, 21360, Note_off_c, 0, 78, 64
2, 21360, Note_on_c, 0, 80, 59
2, 21376, Note_off_c, 0, 80, 64
2, 21376, Note_on_c, 0, 78, 59
2, 21392, Note_off_c, 0, 78, 64
2, 21392, Note_on_c, 0, 80, 59
2, 21408, Note_off_c, 0, 80, 64
2, 21408, Note_on_c, 0, 76, 59
2, 21448, Note_off_c, 0, 76, 64
2, 21456, Note_on_c, 0, 78, 59
2, 21496, Note_off_c, 0, 78, 64
2, 21504, Note_on_c, 0, 76, 59
2, 21888, Note_off_c, 0, 76, 64
2, 21888, Control_c, 0, 1, 45
2, 22080, Note_on_c, 0, 83, 59
2, 22268, Note_off_c, 0, 83, 64
2, 22272, Note_on_c, 0, 81, 59
2, 22368, Note_off_c, 0, 81, 64
2, 22368, Note_on_c, 0, 80, 59
2, 22464, Note_off_c, 0, 80, 64
2, 22464, Note_on_c, 0, 85, 56
2, 22560, Note_off_c, 0, 85, 64
2, 22560, Note_on_c, 0, 81, 59
2, 22656, Note_off_c, 0, 81, 64
2, 22656, Note_on_c, 0, 80, 59
2, 22752, Note_off_c, 0, 80, 64
2, 22752, Note_on_c, 0, 78, 59
2, 22848, Note_off_c, 0, 78, 64
2, 22848, Note_on_c, 0, 83, 59
2, 22944, Note_off_c, 0, 83, 64
2, 22944, Note_on_c, 0, 80, 59
2, 23040, Note_off_c, 0, 80, 64
2, 23040, Note_on_c, 0, 78, 59
2, 23136, Note_off_c, 0, 78, 64
2, 23136, Note_on_c, 0, 76, 59
2, 23232, Note_off_c, 0, 76, 64
2, 23232, Note_on_c, 0, 76, 59
2, 23616, Note_off_c, 0, 76, 64
2, 23616, Note_on_c, 0, 88, 69
2, 23996, Note_off_c, 0, 88, 64
2, 24000, Note_on_c, 0, 85, 56
2, 24188, Note_off_c, 0, 85, 64
2, 24192, Note_on_c, 0, 82, 63
2, 24380, Note_off_c, 0, 82, 64
2, 24384, Note_on_c, 0, 76, 72
2, 24572, Note_off_c, 0, 76, 64
2, 24576, Note_on_c, 0, 76, 76
2, 24592, Note_off_c, 0, 76, 64
2, 24592, Note_on_c, 0, 78, 74
2, 24608, Note_off_c, 0, 78, 64
2, 24608, Note_on_c, 0, 76, 71
2, 24624, Note_off_c, 0, 76, 64
2, 24624, Note_on_c, 0, 78, 68
2, 24640, Note_off_c, 0, 78, 64
2, 24640, Note_on_c, 0, 76, 66
2, 24656, Note_off_c, 0, 76, 64
2, 24656, Note_on_c, 0, 78, 63
2, 24672, Note_off_c, 0, 78, 64
2, 24672, Note_on_c, 0, 75, 61
2, 24764, Note_off_c, 0, 75, 64
2, 24768, Note_on_c, 0, 75, 61
2, 25148, Note_off_c, 0, 75, 64
2, 25152, Note_on_c, 0, 78, 59
2, 25340, Note_off_c, 0, 78, 64
2, 25344, Note_on_c, 0, 83, 59
2, 25388, Note_off_c, 0, 83, 64
2, 25392, Note_on_c, 0, 85, 59
2, 25436, Note_off_c, 0, 85, 64
2, 25440, Note_on_c, 0, 87, 59
2, 25484, Note_off_c, 0, 87, 64
2, 25488, Note_on_c, 0, 85, 59
2, 25532, Note_off_c, 0, 85, 64
2, 25536, Note_on_c, 0, 83, 59
2, 25628, Note_off_c, 0, 83, 64
2, 25632, Note_on_c, 0, 82, 59
2, 25724, Note_off_c, 0, 82, 64
2, 25728, Note_on_c, 0, 80, 59
2, 25772, Note_off_c, 0, 80, 64
2, 25776, Note_on_c, 0, 82, 59
2, 25820, Note_off_c, 0, 82, 64
2, 25824, Note_on_c, 0, 83, 59
2, 25868, Note_off_c, 0, 83, 64
2, 25872, Note_on_c, 0, 82, 59
2, 25916, Note_off_c, 0, 82, 64
2, 25920, Note_on_c, 0, 80, 59
2, 26012, Note_off_c, 0, 80, 64
2, 26016, Note_on_c, 0, 78, 59
2, 26108, Note_off_c, 0, 78, 64
2, 26112, Note_on_c, 0, 76, 59
2, 26156, Note_off_c, 0, 76, 64
2, 26160, Note_on_c, 0, 78, 59
2, 26204, Note_off_c, 0, 78, 64
2, 26208, Note_on_c, 0, 80, 59
2, 26252, Note_off_c, 0, 80, 64
2, 26256, Note_on_c, 0, 78, 59
2, 26300, Note_off_c, 0, 78, 64
2, 26304, Note_on_c, 0, 76, 59
2, 26588, Note_off_c, 0, 76, 64
2, 26592, Note_on_c, 0, 82, 59
2, 26640, Note_off_c, 0, 82, 64
2, 26688, Note_on_c, 0, 82, 59
2, 26736, Note_off_c, 0, 82, 64
2, 26784, Note_on_c, 0, 82, 59
2, 26832, Note_off_c, 0, 82, 64
2, 26880, Note_on_c, 0, 83, 59
2, 26924, Note_off_c, 0, 83, 64
2, 26928, Note_on_c, 0, 85, 59
2, 26972, Note_off_c, 0, 85, 64
2, 26976, Note_on_c, 0, 87, 59
2, 27020, Note_off_c, 0, 87, 64
2, 27024, Note_on_c, 0, 83, 59
2, 27068, Note_off_c, 0, 83, 64
2, 27072, Note_on_c, 0, 78, 59
2, 27116, Note_off_c, 0, 78, 64
2, 27120, Note_on_c, 0, 80, 59
2, 27164, Note_off_c, 0, 80, 64
2, 27168, Note_on_c, 0, 81, 59
2, 27212, Note_off_c, 0, 81, 64
2, 27216, Note_on_c, 0, 78, 59
2, 27260, Note_off_c, 0, 78, 64
2, 27264, Note_on_c, 0, 80, 59
2, 27308, Note_off_c, 0, 80, 64
2, 27312, Note_on_c, 0, 82, 59
2, 27356, Note_off_c, 0, 82, 64
2, 27360, Note_on_c, 0, 83, 59
2, 27404, Note_off_c, 0, 83, 64
2, 27408, Note_on_c, 0, 80, 59
2, 27452, Note_off_c, 0, 80, 64
2, 27456, Note_on_c, 0, 76, 59
2, 27500, Note_off_c, 0, 76, 64
2, 27504, Note_on_c, 0, 78, 59
2, 27548, Note_off_c, 0, 78, 64
2, 27552, Note_on_c, 0, 80, 59
2, 27596, Note_off_c, 0, 80, 64
2, 27600, Note_on_c, 0, 76, 59
2, 27644, Note_off_c, 0, 76, 64
2, 27648, Note_on_c, 0, 75, 59
2, 27932, Note_off_c, 0, 75, 64
2, 27936, Note_on_c, 0, 78, 59
2, 28028, Note_off_c, 0, 78, 64
2, 28032, Note_on_c, 0, 73, 59
2, 28220, Note_off_c, 0, 73, 64
2, 28800, Control_c, 0, 1, 45
2, 28992, Note_on_c, 0, 78, 63
2, 29032, Note_off_c, 0, 78, 64
2, 29088, Note_on_c, 0, 78, 63
2, 29128, Note_off_c, 0, 78, 64
2, 29184, Note_on_c, 0, 88, 66
2, 29660, Note_off_c, 0, 88, 64
2, 29664, Note_on_c, 0, 85, 60
2, 29756, Note_off_c, 0, 85, 64
2, 29760, Note_on_c, 0, 82, 61
2, 29852, Note_off_c, 0, 82, 64
2, 29856, Note_on_c, 0, 76, 59
2, 29948, Note_off_c, 0, 76, 64
2, 29952, Note_on_c, 0, 76, 73
2, 29996, Note_off_c, 0, 76, 64
2, 30000, Note_on_c, 0, 75, 69
2, 30044, Note_off_c, 0, 75, 64
2, 30048, Note_on_c, 0, 80, 66
2, 30092, Note_off_c, 0, 80, 64
2, 30096, Note_on_c, 0, 78, 62
2, 30140, Note_off_c, 0, 78, 64
2, 30144, Note_on_c, 0, 78, 59
2, 30240, Note_off_c, 0, 78, 64
2, 30528, Note_on_c, 0, 78, 59
2, 30568, Note_off_c, 0, 78, 64
2, 30624, Note_on_c, 0, 78, 59
2, 30664, Note_off_c, 0, 78, 64
2, 30720, Note_on_c, 0, 78, 59
2, 30780, Note_off_c, 0, 78, 64
2, 30784, Note_on_c, 0, 88, 59
2, 31192, Note_off_c, 0, 88, 64
2, 31200, Note_on_c, 0, 85, 56
2, 31292, Note_off_c, 0, 85, 64
2, 31296, Note_on_c, 0, 82, 59
2, 31388, Note_off_c, 0, 82, 64
2, 31392, Note_on_c, 0, 76, 59
2, 31484, Note_off_c, 0, 76, 64
2, 31488, Note_on_c, 0, 76, 59
2, 31532, Note_off_c, 0, 76, 64
2, 31536, Note_on_c, 0, 75, 59
2, 31580, Note_off_c, 0, 75, 64
2, 31584, Note_on_c, 0, 80, 59
2, 31628, Note_off_c, 0, 80, 64
2, 31632, Note_on_c, 0, 78, 59
2, 31676, Note_off_c, 0, 78, 64
2, 31680, Note_on_c, 0, 78, 59
2, 31964, Note_off_c, 0, 78, 64
2, 31968, Note_on_c, 0, 79, 60
2, 32060, Note_off_c, 0, 79, 64
2, 32064, Note_on_c, 0, 80, 63
2, 32156, Note_off_c, 0, 80, 64
2, 32160, Note_on_c, 0, 82, 66
2, 32252, Note_off_c, 0, 82, 64
2, 32256, Note_on_c, 0, 83, 68
2, 32300, Note_off_c, 0, 83, 64
2, 32304, Note_on_c, 0, 82, 68
2, 32348, Note_off_c, 0, 82, 64
2, 32352, Note_on_c, 0, 83, 68
2, 32396, Note_off_c, 0, 83, 64
2, 32400, Note_on_c, 0, 82, 68
2, 32444, Note_off_c, 0, 82, 64
2, 32448, Note_on_c, 0, 83, 68
2, 32492, Note_off_c, 0, 83, 64
2, 32496, Note_on_c, 0, 82, 68
2, 32540, Note_off_c, 0, 82, 64
2, 32544, Note_on_c, 0, 83, 68
2, 32588, Note_off_c, 0, 83, 64
2, 32592, Note_on_c, 0, 82, 68
2, 32636, Note_off_c, 0, 82, 64
2, 32640, Note_on_c, 0, 83, 68
2, 32732, Note_off_c, 0, 83, 64
2, 32736, Note_on_c, 0, 81, 68
2, 32828, Note_off_c, 0, 81, 64
2, 32832, Note_on_c, 0, 80, 68
2, 32924, Note_off_c, 0, 80, 64
2, 32928, Note_on_c, 0, 79, 68
2, 33020, Note_off_c, 0, 79, 64
2, 33024, Note_on_c, 0, 80, 59
2, 33068, Note_off_c, 0, 80, 64
2, 33072, Note_on_c, 0, 79, 59
2, 33116, Note_off_c, 0, 79, 64
2, 33120, Note_on_c, 0, 80, 59
2, 33164, Note_off_c, 0, 80, 64
2, 33168, Note_on_c, 0, 79, 59
2, 33212, Note_off_c, 0, 79, 64
2, 33216, Note_on_c, 0, 80, 59
2, 33260, Note_off_c, 0, 80, 64
2, 33264, Note_on_c, 0, 79, 59
2, 33308, Note_off_c, 0, 79, 64
2, 33312, Note_on_c, 0, 80, 59
2, 33356, Note_off_c, 0, 80, 64
2, 33360, Note_on_c, 0, 79, 59
2, 33404, Note_off_c, 0, 79, 64
2, 33408, Note_on_c, 0, 80, 59
2, 33500, Note_off_c, 0, 80, 64
2, 33504, Note_on_c, 0, 83, 59
2, 33596, Note_off_c, 0, 83, 64
2, 33600, Note_on_c, 0, 82, 59
2, 33644, Note_off_c, 0, 82, 64
2, 33648, Note_on_c, 0, 80, 59
2, 33692, Note_off_c, 0, 80, 64
2, 33696, Note_on_c, 0, 78, 59
2, 33740, Note_off_c, 0, 78, 64
2, 33744, Note_on_c, 0, 76, 59
2, 33788, Note_off_c, 0, 76, 64
2, 33792, Note_on_c, 0, 75, 59
2, 33836, Note_off_c, 0, 75, 64
2, 33840, Note_on_c, 0, 76, 59
2, 33884, Note_off_c, 0, 76, 64
2, 33888, Note_on_c, 0, 77, 59
2, 33932, Note_off_c, 0, 77, 64
2, 33936, Note_on_c, 0, 78, 59
2, 33980, Note_off_c, 0, 78, 64
2, 33984, Note_on_c, 0, 79, 59
2, 34028, Note_off_c, 0, 79, 64
2, 34032, Note_on_c, 0, 80, 59
2, 34076, Note_off_c, 0, 80, 64
2, 34080, Note_on_c, 0, 82, 59
2, 34124, Note_off_c, 0, 82, 64
2, 34128, Note_on_c, 0, 83, 59
2, 34172, Note_off_c, 0, 83, 64
2, 34176, Note_on_c, 0, 73, 59
2, 34192, Note_off_c, 0, 73, 64
2, 34192, Note_on_c, 0, 75, 59
2, 34208, Note_off_c, 0, 75, 64
2, 34208, Note_on_c, 0, 73, 59
2, 34224, Note_off_c, 0, 73, 64
2, 34224, Note_on_c, 0, 75, 59
2, 34240, Note_off_c, 0, 75, 64
2, 34240, Note_on_c, 0, 73, 59
2, 34256, Note_off_c, 0, 73, 64
2, 34256, Note_on_c, 0, 75, 59
2, 34272, Note_off_c, 0, 75, 64
2, 34272, Note_on_c, 0, 73, 59
2, 34288, Note_off_c, 0, 73, 64
2, 34288, Note_on_c, 0, 75, 59
2, 34304, Note_off_c, 0, 75, 64
2, 34304, Note_on_c, 0, 73, 59
2, 34320, Note_off_c, 0, 73, 64
2, 34320, Note_on_c, 0, 75, 59
2, 34336, Note_off_c, 0, 75, 64
2, 34336, Note_on_c, 0, 73, 59
2, 34352, Note_off_c, 0, 73, 64
2, 34352, Note_on_c, 0, 75, 59
2, 34368, Note_off_c, 0, 75, 64
2, 34368, Note_on_c, 0, 73, 59
2, 34384, Note_off_c, 0, 73, 64
2, 34384, Note_on_c, 0, 75, 59
2, 34400, Note_off_c, 0, 75, 64
2, 34400, Note_on_c, 0, 73, 59
2, 34416, Note_off_c, 0, 73, 64
2, 34416, Note_on_c, 0, 75, 59
2, 34432, Note_off_c, 0, 75, 64
2, 34432, Note_on_c, 0, 73, 59
2, 34448, Note_off_c, 0, 73, 64
2, 34448, Note_on_c, 0, 75, 59
2, 34464, Note_off_c, 0, 75, 64
2, 34464, Note_on_c, 0, 71, 59
2, 34508, Note_off_c, 0, 71, 64
2, 34512, Note_on_c, 0, 73, 59
2, 34556, Note_off_c, 0, 73, 64
2, 34560, Note_on_c, 0, 73, 59
2, 34844, Note_off_c, 0, 73, 64
2, 34848, Note_on_c, 0, 74, 59
2, 34940, Note_off_c, 0, 74, 64
2, 34944, Note_on_c, 0, 75, 74
2, 35036, Note_off_c, 0, 75, 64
2, 35040, Note_on_c, 0, 78, 72
2, 35084, Note_off_c, 0, 78, 64
2, 35088, Note_on_c, 0, 76, 71
2, 35132, Note_off_c, 0, 76, 64
2, 35136, Note_on_c, 0, 76, 70
2, 35228, Note_off_c, 0, 76, 64
2, 35232, Note_on_c, 0, 80, 69
2, 35276, Note_off_c, 0, 80, 64
2, 35280, Note_on_c, 0, 78, 68
2, 35324, Note_off_c, 0, 78, 64
2, 35328, Note_on_c, 0, 78, 68
2, 35468, Note_off_c, 0, 78, 64
2, 35472, Note_on_c, 0, 80, 68
2, 35516, Note_off_c, 0, 80, 64
2, 35520, Note_on_c, 0, 76, 68
2, 35660, Note_off_c, 0, 76, 64
2, 35664, Note_on_c, 0, 78, 68
2, 35708, Note_off_c, 0, 78, 64
2, 35712, Note_on_c, 0, 75, 68
2, 35852, Note_off_c, 0, 75, 64
2, 35856, Note_on_c, 0, 76, 68
2, 35900, Note_off_c, 0, 76, 64
2, 35904, Note_on_c, 0, 73, 68
2, 35948, Note_off_c, 0, 73, 64
2, 35952, Note_on_c, 0, 71, 68
2, 35996, Note_off_c, 0, 71, 64
2, 36000, Note_on_c, 0, 70, 68
2, 36044, Note_off_c, 0, 70, 64
2, 36048, Note_on_c, 0, 66, 68
2, 36092, Note_off_c, 0, 66, 64
2, 36096, Note_on_c, 0, 78, 51
2, 36188, Note_off_c, 0, 78, 64
2, 36192, Note_on_c, 0, 78, 51
2, 36236, Note_off_c, 0, 78, 64
2, 36240, Note_on_c, 0, 80, 51
2, 36284, Note_off_c, 0, 80, 64
2, 36288, Note_on_c, 0, 76, 51
2, 36380, Note_off_c, 0, 76, 64
2, 36384, Note_on_c, 0, 76, 51
2, 36428, Note_off_c, 0, 76, 64
2, 36432, Note_on_c, 0, 78, 51
2, 36476, Note_off_c, 0, 78, 64
2, 36480, Note_on_c, 0, 75, 51
2, 36572, Note_off_c, 0, 75, 64
2, 36576, Note_on_c, 0, 75, 51
2, 36620, Note_off_c, 0, 75, 64
2, 36624, Note_on_c, 0, 76, 51
2, 36668, Note_off_c, 0, 76, 64
2, 36672, Note_on_c, 0, 73, 51
2, 36716, Note_off_c, 0, 73, 64
2, 36720, Note_on_c, 0, 71, 51
2, 36764, Note_off_c, 0, 71, 64
2, 36768, Note_on_c, 0, 70, 51
2, 36812, Note_off_c, 0, 70, 64
2, 36816, Note_on_c, 0, 66, 51
2, 36860, Note_off_c, 0, 66, 64
2, 36864, Note_on_c, 0, 78, 80
2, 36908, Note_off_c, 0, 78, 64
2, 36912, Note_on_c, 0, 80, 59
2, 36956, Note_off_c, 0, 80, 64
2, 36960, Note_on_c, 0, 82, 59
2, 37004, Note_off_c, 0, 82, 64
2, 37008, Note_on_c, 0, 83, 59
2, 37052, Note_off_c, 0, 83, 64
2, 37056, Note_on_c, 0, 82, 59
2, 37100, Note_off_c, 0, 82, 64
2, 37104, Note_on_c, 0, 80, 59
2, 37148, Note_off_c, 0, 80, 64
2, 37152, Note_on_c, 0, 78, 59
2, 37196, Note_off_c, 0, 78, 64
2, 37200, Note_on_c, 0, 76, 59
2, 37244, Note_off_c, 0, 76, 64
2, 37248, Note_on_c, 0, 75, 80
2, 37292, Note_off_c, 0, 75, 64
2, 37296, Note_on_c, 0, 76, 59
2, 37340, Note_off_c, 0, 76, 64
2, 37344, Note_on_c, 0, 78, 59
2, 37388, Note_off_c, 0, 78, 64
2, 37392, Note_on_c, 0, 80, 59
2, 37436, Note_off_c, 0, 80, 64
2, 37440, Note_on_c, 0, 78, 59
2, 37484, Note_off_c, 0, 78, 64
2, 37488, Note_on_c, 0, 76, 59
2, 37532, Note_off_c, 0, 76, 64
2, 37536, Note_on_c, 0, 75, 59
2, 37580, Note_off_c, 0, 75, 64
2, 37584, Note_on_c, 0, 73, 59
2, 37628, Note_off_c, 0, 73, 64
2, 37632, Note_on_c, 0, 87, 76
2, 38016, Note_off_c, 0, 87, 64
2, 38016, Note_on_c, 0, 88, 85
2, 38040, Note_off_c, 0, 88, 64
2, 38040, Note_on_c, 0, 87, 76
2, 38064, Note_off_c, 0, 87, 64
2, 38064, Note_on_c, 0, 85, 76
2, 38088, Note_off_c, 0, 85, 64
2, 38088, Note_on_c, 0, 83, 76
2, 38112, Note_off_c, 0, 83, 64
2, 38112, Note_on_c, 0, 82, 76
2, 38204, Note_off_c, 0, 82, 64
2, 38496, Note_on_c, 0, 85, 68
2, 38516, Note_off_c, 0, 85, 64
2, 38520, Note_on_c, 0, 83, 59
2, 38684, Note_off_c, 0, 83, 64
2, 38688, Note_on_c, 0, 82, 68
2, 38708, Note_off_c, 0, 82, 64
2, 38712, Note_on_c, 0, 80, 59
2, 38876, Note_off_c, 0, 80, 64
2, 38880, Note_on_c, 0, 77, 68
2, 38900, Note_off_c, 0, 77, 64
2, 38904, Note_on_c, 0, 78, 59
2, 39068, Note_off_c, 0, 78, 64
2, 39072, Note_on_c, 0, 70, 59
2, 39164, Note_off_c, 0, 70, 64
2, 39168, Note_on_c, 0, 87, 76
2, 39552, Note_off_c, 0, 87, 64
2, 39552, Note_on_c, 0, 88, 85
2, 39572, Note_off_c, 0, 88, 64
2, 39576, Note_on_c, 0, 87, 76
2, 39596, Note_off_c, 0, 87, 64
2, 39600, Note_on_c, 0, 85, 76
2, 39620, Note_off_c, 0, 85, 64
2, 39624, Note_on_c, 0, 83, 76
2, 39644, Note_off_c, 0, 83, 64
2, 39648, Note_on_c, 0, 82, 76
2, 39696, Note_off_c, 0, 82, 64
2, 39936, Note_on_c, 0, 90, 85
2, 39956, Note_off_c, 0, 90, 64
2, 39960, Note_on_c, 0, 88, 76
2, 39980, Note_off_c, 0, 88, 64
2, 39984, Note_on_c, 0, 87, 76
2, 40004, Note_off_c, 0, 87, 64
2, 40008, Note_on_c, 0, 85, 76
2, 40028, Note_off_c, 0, 85, 64
2, 40032, Note_on_c, 0, 83, 76
2, 40080, Note_off_c, 0, 83, 64
2, 40128, Note_on_c, 0, 87, 76
2, 40148, Note_off_c, 0, 87, 64
2, 40152, Note_on_c, 0, 85, 76
2, 40172, Note_off_c, 0, 85, 64
2, 40176, Note_on_c, 0, 83, 76
2, 40196, Note_off_c, 0, 83, 64
2, 40200, Note_on_c, 0, 82, 76
2, 40220, Note_off_c, 0, 82, 64
2, 40224, Note_on_c, 0, 80, 76
2, 40272, Note_off_c, 0, 80, 64
2, 40320, Note_on_c, 0, 83, 85
2, 40340, Note_off_c, 0, 83, 64
2, 40344, Note_on_c, 0, 82, 76
2, 40364, Note_off_c, 0, 82, 64
2, 40368, Note_on_c, 0, 80, 76
2, 40388, Note_off_c, 0, 80, 64
2, 40392, Note_on_c, 0, 78, 76
2, 40412, Note_off_c, 0, 78, 64
2, 40416, Note_on_c, 0, 76, 76
2, 40464, Note_off_c, 0, 76, 64
2, 40512, Note_on_c, 0, 80, 85
2, 40532, Note_off_c, 0, 80, 64
2, 40536, Note_on_c, 0, 78, 76
2, 40556, Note_off_c, 0, 78, 64
2, 40560, Note_on_c, 0, 76, 76
2, 40580, Note_off_c, 0, 76, 64
2, 40584, Note_on_c, 0, 75, 76
2, 40604, Note_off_c, 0, 75, 64
2, 40608, Note_on_c, 0, 73, 76
2, 40656, Note_off_c, 0, 73, 64
2, 40704, Note_on_c, 0, 75, 76
2, 40796, Note_off_c, 0, 75, 64
2, 40800, Note_on_c, 0, 78, 76
2, 40892, Note_off_c, 0, 78, 64
2, 40896, Note_on_c, 0, 78, 76
2, 41180, Note_off_c, 0, 78, 64
2, 41184, Note_on_c, 0, 83, 76
2, 41276, Note_off_c, 0, 83, 64
2, 41280, Note_on_c, 0, 87, 76
2, 41372, Note_off_c, 0, 87, 64
2, 41376, Note_on_c, 0, 90, 76
2, 41468, Note_off_c, 0, 90, 64
2, 41472, Note_on_c, 0, 85, 76
2, 41488, Note_off_c, 0, 85, 64
2, 41488, Note_on_c, 0, 87, 76
2, 41504, Note_off_c, 0, 87, 64
2, 41504, Note_on_c, 0, 85, 76
2, 41520, Note_off_c, 0, 85, 64
2, 41520, Note_on_c, 0, 87, 76
2, 41536, Note_off_c, 0, 87, 64
2, 41536, Note_on_c, 0, 85, 76
2, 41552, Note_off_c, 0, 85, 64
2, 41552, Note_on_c, 0, 87, 76
2, 41568, Note_off_c, 0, 87, 64
2, 41568, Note_on_c, 0, 85, 77
2, 41584, Note_off_c, 0, 85, 64
2, 41584, Note_on_c, 0, 87, 77
2, 41600, Note_off_c, 0, 87, 64
2, 41600, Note_on_c, 0, 85, 77
2, 41616, Note_off_c, 0, 85, 64
2, 41616, Note_on_c, 0, 87, 77
2, 41632, Note_off_c, 0, 87, 64
2, 41632, Note_on_c, 0, 85, 77
2, 41648, Note_off_c, 0, 85, 64
2, 41648, Note_on_c, 0, 87, 78
2, 41664, Note_off_c, 0, 87, 64
2, 41664, Note_on_c, 0, 85, 78
2, 41680, Note_off_c, 0, 85, 64
2, 41680, Note_on_c, 0, 87, 78
2, 41696, Note_off_c, 0, 87, 64
2, 41696, Note_on_c, 0, 85, 78
2, 41712, Note_off_c, 0, 85, 64
2, 41712, Note_on_c, 0, 87, 78
2, 41728, Note_off_c, 0, 87, 64
2, 41728, Note_on_c, 0, 85, 79
2, 41744, Note_off_c, 0, 85, 64
2, 41744, Note_on_c, 0, 87, 79
2, 41760, Note_off_c, 0, 87, 64
2, 41760, Note_on_c, 0, 85, 79
2, 41776, Note_off_c, 0, 85, 64
2, 41776, Note_on_c, 0, 87, 79
2, 41792, Note_off_c, 0, 87, 64
2, 41792, Note_on_c, 0, 85, 79
2, 41808, Note_off_c, 0, 85, 64
2, 41808, Note_on_c, 0, 87, 80
2, 41824, Note_off_c, 0, 87, 64
2, 41824, Note_on_c, 0, 85, 80
2, 41840, Note_off_c, 0, 85, 64
2, 41840, Note_on_c, 0, 87, 80
2, 41856, Note_off_c, 0, 87, 64
2, 41856, Note_on_c, 0, 85, 80
2, 41872, Note_off_c, 0, 85, 64
2, 41872, Note_on_c, 0, 87, 80
2, 41888, Note_off_c, 0, 87, 64
2, 41888, Note_on_c, 0, 85, 81
2, 41904, Note_off_c, 0, 85, 64
2, 41904, Note_on_c, 0, 87, 81
2, 41920, Note_off_c, 0, 87, 64
2, 41920, Note_on_c, 0, 85, 81
2, 41936, Note_off_c, 0, 85, 64
2, 41936, Note_on_c, 0, 87, 81
2, 41952, Note_off_c, 0, 87, 64
2, 41952, Note_on_c, 0, 85, 81
2, 41968, Note_off_c, 0, 85, 64
2, 41968, Note_on_c, 0, 87, 82
2, 41984, Note_off_c, 0, 87, 64
2, 41984, Note_on_c, 0, 85, 82
2, 42000, Note_off_c, 0, 85, 64
2, 42000, Note_on_c, 0, 87, 82
2, 42016, Note_off_c, 0, 87, 64
2, 42016, Note_on_c, 0, 85, 82
2, 42032, Note_off_c, 0, 85, 64
2, 42032, Note_on_c, 0, 87, 82
2, 42048, Note_off_c, 0, 87, 64
2, 42048, Note_on_c, 0, 83, 83
2, 42140, Note_off_c, 0, 83, 64
2, 42144, Note_on_c, 0, 85, 84
2, 42236, Note_off_c, 0, 85, 64
2, 42240, Note_on_c, 0, 83, 85
2, 42620, Note_off_c, 0, 83, 64
2, 48004, Control_c, 0, 1, 45
2, 48192, Note_on_c, 0, 78, 59
2, 48384, Note_off_c, 0, 78, 64
2, 48384, Note_on_c, 0, 76, 59
2, 48480, Note_off_c, 0, 76, 64
2, 48480, Note_on_c, 0, 75, 59
2, 48576, Note_off_c, 0, 75, 64
2, 48576, Note_on_c, 0, 80, 59
2, 48672, Note_off_c, 0, 80, 64
2, 48672, Note_on_c, 0, 76, 59
2, 48768, Note_off_c, 0, 76, 64
2, 48768, Note_on_c, 0, 75, 59
2, 48864, Note_off_c, 0, 75, 64
2, 48864, Note_on_c, 0, 73, 59
2, 48960, Note_off_c, 0, 73, 64
2, 48960, Note_on_c, 0, 78, 59
2, 49056, Note_off_c, 0, 78, 64
2, 49056, Note_on_c, 0, 75, 59
2, 49152, Note_off_c, 0, 75, 64
2, 49152, Note_on_c, 0, 73, 59
2, 49248, Note_off_c, 0, 73, 64
2, 49248, Note_on_c, 0, 71, 59
2, 49344, Note_off_c, 0, 71, 64
2, 49344, Note_on_c, 0, 76, 76
2, 49724, Note_off_c, 0, 76, 64
2, 49728, Note_on_c, 0, 75, 59
2, 49888, Note_off_c, 0, 75, 64
2, 49920, Note_on_c, 0, 73, 59
2, 50012, Note_off_c, 0, 73, 64
2, 50016, Note_on_c, 0, 71, 59
2, 50108, Note_off_c, 0, 71, 64
2, 50112, Note_on_c, 0, 80, 76
2, 50492, Note_off_c, 0, 80, 64
2, 50496, Note_on_c, 0, 82, 59
2, 50684, Note_off_c, 0, 82, 64
2, 50688, Note_on_c, 0, 82, 59
2, 50780, Note_off_c, 0, 82, 64
2, 50784, Note_on_c, 0, 83, 59
2, 50876, Note_off_c, 0, 83, 64
2, 50880, Note_on_c, 0, 83, 61
2, 51260, Note_off_c, 0, 83, 64
2, 51264, Note_on_c, 0, 83, 70
2, 51452, Note_off_c, 0, 83, 64
2, 51456, Note_on_c, 0, 86, 73
2, 51548, Note_off_c, 0, 86, 64
2, 51552, Note_on_c, 0, 83, 68
2, 51644, Note_off_c, 0, 83, 64
2, 51744, Note_on_c, 0, 83, 59
2, 51836, Note_off_c, 0, 83, 64
2, 51840, Note_on_c, 0, 86, 57
2, 51932, Note_off_c, 0, 86, 64
2, 51936, Note_on_c, 0, 83, 59
2, 52028, Note_off_c, 0, 83, 64
2, 52032, Note_on_c, 0, 80, 59
2, 52124, Note_off_c, 0, 80, 64
2, 52128, Note_on_c, 0, 74, 59
2, 52220, Note_off_c, 0, 74, 64
2, 52224, Note_on_c, 0, 76, 59
2, 52268, Note_off_c, 0, 76, 64
2, 52272, Note_on_c, 0, 74, 59
2, 52316, Note_off_c, 0, 74, 64
2, 52320, Note_on_c, 0, 73, 59
2, 52364, Note_off_c, 0, 73, 64
2, 52368, Note_on_c, 0, 71, 59
2, 52412, Note_off_c, 0, 71, 64
2, 52416, Note_on_c, 0, 71, 59
2, 52604, Note_off_c, 0, 71, 64
2, 52800, Note_on_c, 0, 83, 59
2, 52816, Note_off_c, 0, 83, 64
2, 52816, Note_on_c, 0, 85, 61
2, 52832, Note_off_c, 0, 85, 64
2, 52832, Note_on_c, 0, 83, 63
2, 52848, Note_off_c, 0, 83, 64
2, 52848, Note_on_c, 0, 85, 65
2, 52864, Note_off_c, 0, 85, 64
2, 52864, Note_on_c, 0, 83, 67
2, 52880, Note_off_c, 0, 83, 64
2, 52880, Note_on_c, 0, 85, 68
2, 52896, Note_off_c, 0, 85, 64
2, 52896, Note_on_c, 0, 82, 70
2, 52936, Note_off_c, 0, 82, 64
2, 52944, Note_on_c, 0, 83, 72
2, 52984, Note_off_c, 0, 83, 64
2, 52992, Note_on_c, 0, 86, 76
2, 53084, Note_off_c, 0, 86, 64
2, 53088, Note_on_c, 0, 83, 68
2, 53180, Note_off_c, 0, 83, 64
2, 53280, Note_on_c, 0, 83, 59
2, 53372, Note_off_c, 0, 83, 64
2, 53376, Note_on_c, 0, 86, 59
2, 53376, Note_on_c, 0, 80, 59
2, 53392, Note_off_c, 0, 80, 64
2, 53468, Note_off_c, 0, 86, 64
2, 53472, Note_on_c, 0, 83, 59
2, 53564, Note_off_c, 0, 83, 64
2, 53568, Note_on_c, 0, 80, 59
2, 53660, Note_off_c, 0, 80, 64
2, 53664, Note_on_c, 0, 76, 59
2, 53756, Note_off_c, 0, 76, 64
2, 53760, Note_on_c, 0, 76, 59
2, 53804, Note_off_c, 0, 76, 64
2, 53808, Note_on_c, 0, 75, 59
2, 53852, Note_off_c, 0, 75, 64
2, 53856, Note_on_c, 0, 73, 59
2, 53900, Note_off_c, 0, 73, 64
2, 53904, Note_on_c, 0, 71, 59
2, 53948, Note_off_c, 0, 71, 64
2, 53952, Note_on_c, 0, 71, 59
2, 54140, Note_off_c, 0, 71, 64
2, 54336, Note_on_c, 0, 80, 59
2, 54352, Note_off_c, 0, 80, 64
2, 54352, Note_on_c, 0, 81, 59
2, 54368, Note_off_c, 0, 81, 64
2, 54368, Note_on_c, 0, 80, 59
2, 54384, Note_off_c, 0, 80, 64
2, 54384, Note_on_c, 0, 81, 59
2, 54400, Note_off_c, 0, 81, 64
2, 54400, Note_on_c, 0, 80, 59
2, 54416, Note_off_c, 0, 80, 64
2, 54416, Note_on_c, 0, 81, 59
2, 54432, Note_off_c, 0, 81, 64
2, 54432, Note_on_c, 0, 79, 59
2, 54476, Note_off_c, 0, 79, 64
2, 54480, Note_on_c, 0, 80, 59
2, 54524, Note_off_c, 0, 80, 64
2, 54528, Note_on_c, 0, 83, 60
2, 54908, Note_off_c, 0, 83, 64
2, 54912, Note_on_c, 0, 82, 71
2, 55100, Note_off_c, 0, 82, 64
2, 55104, Note_on_c, 0, 80, 75
2, 55292, Note_off_c, 0, 80, 64
2, 55296, Note_on_c, 0, 79, 90
2, 55336, Note_off_c, 0, 79, 64
2, 55344, Note_on_c, 0, 88, 81
2, 55676, Note_off_c, 0, 88, 64
2, 55680, Note_on_c, 0, 87, 63
2, 55772, Note_off_c, 0, 87, 64
2, 55776, Note_on_c, 0, 80, 59
2, 55868, Note_off_c, 0, 80, 64
2, 55872, Note_on_c, 0, 85, 59
2, 55964, Note_off_c, 0, 85, 64
2, 55968, Note_on_c, 0, 82, 59
2, 56060, Note_off_c, 0, 82, 64
2, 56064, Note_on_c, 0, 80, 63
2, 56444, Note_off_c, 0, 80, 64
2, 56448, Note_on_c, 0, 82, 60
2, 56464, Note_off_c, 0, 82, 64
2, 56464, Note_on_c, 0, 83, 60
2, 56480, Note_off_c, 0, 83, 64
2, 56480, Note_on_c, 0, 82, 60
2, 56496, Note_off_c, 0, 82, 64
2, 56496, Note_on_c, 0, 83, 60
2, 56512, Note_off_c, 0, 83, 64
2, 56512, Note_on_c, 0, 82, 60
2, 56528, Note_off_c, 0, 82, 64
2, 56528, Note_on_c, 0, 83, 60
2, 56544, Note_off_c, 0, 83, 64
2, 56544, Note_on_c, 0, 82, 60
2, 56560, Note_off_c, 0, 82, 64
2, 56560, Note_on_c, 0, 83, 60
2, 56576, Note_off_c, 0, 83, 64
2, 56576, Note_on_c, 0, 82, 60
2, 56592, Note_off_c, 0, 82, 64
2, 56592, Note_on_c, 0, 83, 60
2, 56608, Note_off_c, 0, 83, 64
2, 56608, Note_on_c, 0, 82, 60
2, 56624, Note_off_c, 0, 82, 64
2, 56624, Note_on_c, 0, 83, 60
2, 56640, Note_off_c, 0, 83, 64
2, 56640, Note_on_c, 0, 82, 60
2, 56656, Note_off_c, 0, 82, 64
2, 56656, Note_on_c, 0, 83, 60
2, 56672, Note_off_c, 0, 83, 64
2, 56672, Note_on_c, 0, 82, 60
2, 56688, Note_off_c, 0, 82, 64
2, 56688, Note_on_c, 0, 83, 60
2, 56704, Note_off_c, 0, 83, 64
2, 56704, Note_on_c, 0, 82, 60
2, 56720, Note_off_c, 0, 82, 64
2, 56720, Note_on_c, 0, 83, 60
2, 56736, Note_off_c, 0, 83, 64
2, 56736, Note_on_c, 0, 80, 59
2, 56776, Note_off_c, 0, 80, 64
2, 56784, Note_on_c, 0, 82, 63
2, 56824, Note_off_c, 0, 82, 64
2, 56832, Note_on_c, 0, 87, 81
2, 57212, Note_off_c, 0, 87, 64
2, 57216, Note_on_c, 0, 85, 68
2, 57232, Note_off_c, 0, 85, 64
2, 57232, Note_on_c, 0, 87, 59
2, 57248, Note_off_c, 0, 87, 64
2, 57248, Note_on_c, 0, 85, 59
2, 57264, Note_off_c, 0, 85, 64
2, 57264, Note_on_c, 0, 87, 59
2, 57280, Note_off_c, 0, 87, 64
2, 57280, Note_on_c, 0, 85, 59
2, 57296, Note_off_c, 0, 85, 64
2, 57296, Note_on_c, 0, 87, 59
2, 57312, Note_off_c, 0, 87, 64
2, 57312, Note_on_c, 0, 83, 59
2, 57404, Note_off_c, 0, 83, 64
2, 57408, Note_on_c, 0, 82, 68
2, 57424, Note_off_c, 0, 82, 64
2, 57424, Note_on_c, 0, 83, 59
2, 57440, Note_off_c, 0, 83, 64
2, 57440, Note_on_c, 0, 82, 59
2, 57456, Note_off_c, 0, 82, 64
2, 57456, Note_on_c, 0, 83, 59
2, 57472, Note_off_c, 0, 83, 64
2, 57472, Note_on_c, 0, 82, 59
2, 57488, Note_off_c, 0, 82, 64
2, 57488, Note_on_c, 0, 83, 59
2, 57504, Note_off_c, 0, 83, 64
2, 57504, Note_on_c, 0, 80, 59
2, 57596, Note_off_c, 0, 80, 64
2, 57600, Note_on_c, 0, 88, 83
2, 57984, Note_off_c, 0, 88, 64
2, 57984, Note_on_c, 0, 87, 68
2, 58000, Note_off_c, 0, 87, 64
2, 58000, Note_on_c, 0, 88, 59
2, 58016, Note_off_c, 0, 88, 64
2, 58016, Note_on_c, 0, 87, 59
2, 58032, Note_off_c, 0, 87, 64
2, 58032, Note_on_c, 0, 88, 59
2, 58048, Note_off_c, 0, 88, 64
2, 58048, Note_on_c, 0, 87, 59
2, 58064, Note_off_c, 0, 87, 64
2, 58064, Note_on_c, 0, 88, 59
2, 58080, Note_off_c, 0, 88, 64
2, 58080, Note_on_c, 0, 85, 59
2, 58172, Note_off_c, 0, 85, 64
2, 58176, Note_on_c, 0, 83, 68
2, 58192, Note_off_c, 0, 83, 64
2, 58192, Note_on_c, 0, 85, 59
2, 58208, Note_off_c, 0, 85, 64
2, 58208, Note_on_c, 0, 83, 59
2, 58224, Note_off_c, 0, 83, 64
2, 58224, Note_on_c, 0, 85, 59
2, 58240, Note_off_c, 0, 85, 64
2, 58240, Note_on_c, 0, 83, 59
2, 58256, Note_off_c, 0, 83, 64
2, 58256, Note_on_c, 0, 85, 59
2, 58272, Note_off_c, 0, 85, 64
2, 58272, Note_on_c, 0, 82, 59
2, 58364, Note_off_c, 0, 82, 64
2, 58368, Note_on_c, 0, 82, 59
2, 58460, Note_off_c, 0, 82, 64
2, 58464, Note_on_c, 0, 80, 59
2, 58556, Note_off_c, 0, 80, 64
2, 58560, Note_on_c, 0, 80, 59
2, 58844, Note_off_c, 0, 80, 64
2, 58848, Note_on_c, 0, 79, 57
2, 58940, Note_off_c, 0, 79, 64
2, 58944, Note_on_c, 0, 80, 55
2, 59036, Note_off_c, 0, 80, 64
2, 59040, Note_on_c, 0, 81, 52
2, 59132, Note_off_c, 0, 81, 64
2, 59136, Note_on_c, 0, 81, 59
2, 59152, Note_off_c, 0, 81, 64
2, 59152, Note_on_c, 0, 83, 59
2, 59168, Note_off_c, 0, 83, 64
2, 59168, Note_on_c, 0, 81, 59
2, 59184, Note_off_c, 0, 81, 64
2, 59184, Note_on_c, 0, 83, 59
2, 59200, Note_off_c, 0, 83, 64
2, 59200, Note_on_c, 0, 81, 59
2, 59216, Note_off_c, 0, 81, 64
2, 59216, Note_on_c, 0, 83, 59
2, 59232, Note_off_c, 0, 83, 64
2, 59232, Note_on_c, 0, 81, 59
2, 59248, Note_off_c, 0, 81, 64
2, 59248, Note_on_c, 0, 83, 58
2, 59264, Note_off_c, 0, 83, 64
2, 59264, Note_on_c, 0, 81, 58
2, 59280, Note_off_c, 0, 81, 64
2, 59280, Note_on_c, 0, 83, 58
2, 59296, Note_off_c, 0, 83, 64
2, 59296, Note_on_c, 0, 81, 58
2, 59312, Note_off_c, 0, 81, 64
2, 59312, Note_on_c, 0, 83, 58
2, 59328, Note_off_c, 0, 83, 64
2, 59328, Note_on_c, 0, 81, 58
2, 59344, Note_off_c, 0, 81, 64
2, 59344, Note_on_c, 0, 83, 58
2, 59360, Note_off_c, 0, 83, 64
2, 59360, Note_on_c, 0, 81, 57
2, 59376, Note_off_c, 0, 81, 64
2, 59376, Note_on_c, 0, 83, 57
2, 59392, Note_off_c, 0, 83, 64
2, 59392, Note_on_c, 0, 81, 57
2, 59408, Note_off_c, 0, 81, 64
2, 59408, Note_on_c, 0, 83, 57
2, 59424, Note_off_c, 0, 83, 64
2, 59424, Note_on_c, 0, 81, 57
2, 59440, Note_off_c, 0, 81, 64
2, 59440, Note_on_c, 0, 83, 57
2, 59456, Note_off_c, 0, 83, 64
2, 59456, Note_on_c, 0, 81, 57
2, 59472, Note_off_c, 0, 81, 64
2, 59472, Note_on_c, 0, 83, 57
2, 59488, Note_off_c, 0, 83, 64
2, 59488, Note_on_c, 0, 81, 57
2, 59504, Note_off_c, 0, 81, 64
2, 59504, Note_on_c, 0, 83, 57
2, 59520, Note_off_c, 0, 83, 64
2, 59520, Note_on_c, 0, 81, 57
2, 59536, Note_off_c, 0, 81, 64
2, 59536, Note_on_c, 0, 83, 57
2, 59552, Note_off_c, 0, 83, 64
2, 59552, Note_on_c, 0, 81, 57
2, 59568, Note_off_c, 0, 81, 64
2, 59568, Note_on_c, 0, 83, 56
2, 59584, Note_off_c, 0, 83, 64
2, 59584, Note_on_c, 0, 81, 56
2, 59600, Note_off_c, 0, 81, 64
2, 59600, Note_on_c, 0, 83, 56
2, 59616, Note_off_c, 0, 83, 64
2, 59616, Note_on_c, 0, 81, 56
2, 59632, Note_off_c, 0, 81, 64
2, 59632, Note_on_c, 0, 83, 56
2, 59648, Note_off_c, 0, 83, 64
2, 59648, Note_on_c, 0, 81, 56
2, 59664, Note_off_c, 0, 81, 64
2, 59664, Note_on_c, 0, 83, 55
2, 59680, Note_off_c, 0, 83, 64
2, 59680, Note_on_c, 0, 81, 55
2, 59696, Note_off_c, 0, 81, 64
2, 59696, Note_on_c, 0, 83, 55
2, 59712, Note_off_c, 0, 83, 64
2, 59712, Note_on_c, 0, 80, 55
2, 59804, Note_off_c, 0, 80, 64
2, 59808, Note_on_c, 0, 81, 54
2, 59900, Note_off_c, 0, 81, 64
2, 59904, Note_on_c, 0, 80, 53
2, 60288, Control_c, 0, 1, 45
2, 60476, Note_off_c, 0, 80, 64
2, 60480, Note_on_c, 0, 88, 68
2, 60572, Note_off_c, 0, 88, 64
2, 60576, Note_on_c, 0, 80, 59
2, 60668, Note_off_c, 0, 80, 64
2, 60672, Note_on_c, 0, 80, 59
2, 60764, Note_off_c, 0, 80, 64
2, 60768, Note_on_c, 0, 78, 59
2, 60860, Note_off_c, 0, 78, 64
2, 60864, Note_on_c, 0, 78, 59
2, 61244, Note_off_c, 0, 78, 64
2, 61248, Note_on_c, 0, 80, 61
2, 61628, Note_off_c, 0, 80, 64
2, 61632, Note_on_c, 0, 81, 60
2, 62016, Note_off_c, 0, 81, 64
2, 62016, Note_on_c, 0, 80, 69
2, 62208, Note_off_c, 0, 80, 64
2, 62208, Note_on_c, 0, 81, 83
2, 62232, Note_off_c, 0, 81, 64
2, 62236, Note_on_c, 0, 83, 85
2, 62260, Note_off_c, 0, 83, 64
2, 62264, Note_on_c, 0, 85, 76
2, 62400, Note_off_c, 0, 85, 64
2, 62400, Note_on_c, 0, 83, 68
2, 62592, Note_off_c, 0, 83, 64
2, 62592, Note_on_c, 0, 81, 68
2, 62784, Note_off_c, 0, 81, 64
2, 62784, Note_on_c, 0, 80, 63
2, 62976, Note_off_c, 0, 80, 64
2, 62976, Note_on_c, 0, 83, 59
2, 63260, Note_off_c, 0, 83, 64
2, 63264, Note_on_c, 0, 80, 59
2, 63356, Note_off_c, 0, 80, 64
2, 63360, Note_on_c, 0, 78, 59
2, 63548, Note_off_c, 0, 78, 64
2, 65664, Control_c, 0, 1, 45
2, 65856, Note_on_c, 0, 83, 59
2, 66048, Note_off_c, 0, 83, 64
2, 66048, Note_on_c, 0, 81, 59
2, 66144, Note_off_c, 0, 81, 64
2, 66144, Note_on_c, 0, 80, 59
2, 66240, Note_off_c, 0, 80, 64
2, 66240, Note_on_c, 0, 85, 56
2, 66336, Note_off_c, 0, 85, 64
2, 66336, Note_on_c, 0, 81, 59
2, 66432, Note_off_c, 0, 81, 64
2, 66432, Note_on_c, 0, 80, 59
2, 66528, Note_off_c, 0, 80, 64
2, 66528, Note_on_c, 0, 78, 59
2, 66624, Note_off_c, 0, 78, 64
2, 66624, Note_on_c, 0, 83, 59
2, 66720, Note_off_c, 0, 83, 64
2, 66720, Note_on_c, 0, 80, 59
2, 66816, Note_off_c, 0, 80, 64
2, 66816, Note_on_c, 0, 78, 59
2, 66912, Note_off_c, 0, 78, 64
2, 66912, Note_on_c, 0, 76, 59
2, 67008, Note_off_c, 0, 76, 64
2, 67008, Note_on_c, 0, 81, 76
2, 67388, Note_off_c, 0, 81, 64
2, 67392, Note_on_c, 0, 80, 59
2, 67524, Note_off_c, 0, 80, 64
2, 67584, Note_on_c, 0, 78, 59
2, 67676, Note_off_c, 0, 78, 64
2, 67680, Note_on_c, 0, 76, 59
2, 67772, Note_off_c, 0, 76, 64
2, 67776, Note_on_c, 0, 85, 66
2, 68156, Note_off_c, 0, 85, 64
2, 68160, Note_on_c, 0, 87, 59
2, 68348, Note_off_c, 0, 87, 64
2, 68352, Note_on_c, 0, 87, 59
2, 68444, Note_off_c, 0, 87, 64
2, 68448, Note_on_c, 0, 88, 59
2, 68540, Note_off_c, 0, 88, 64
2, 68544, Note_on_c, 0, 88, 62
2, 68828, Note_off_c, 0, 88, 64
2, 68832, Note_on_c, 0, 79, 59
2, 68924, Note_off_c, 0, 79, 64
2, 68928, Note_on_c, 0, 79, 59
2, 69020, Note_off_c, 0, 79, 64
2, 69024, Note_on_c, 0, 79, 59
2, 69116, Note_off_c, 0, 79, 64
2, 69120, Note_on_c, 0, 80, 62
2, 69404, Note_off_c, 0, 80, 64
2, 69408, Note_on_c, 0, 83, 59
2, 69448, Note_off_c, 0, 83, 64
2, 69456, Note_on_c, 0, 81, 59
2, 69496, Note_off_c, 0, 81, 64
2, 69504, Note_on_c, 0, 78, 65
2, 69520, Note_off_c, 0, 78, 64
2, 69520, Note_on_c, 0, 80, 59
2, 69536, Note_off_c, 0, 80, 64
2, 69536, Note_on_c, 0, 78, 59
2, 69552, Note_off_c, 0, 78, 64
2, 69552, Note_on_c, 0, 80, 59
2, 69568, Note_off_c, 0, 80, 64
2, 69568, Note_on_c, 0, 78, 59
2, 69584, Note_off_c, 0, 78, 64
2, 69584, Note_on_c, 0, 80, 59
2, 69600, Note_off_c, 0, 80, 64
2, 69600, Note_on_c, 0, 78, 59
2, 69616, Note_off_c, 0, 78, 64
2, 69616, Note_on_c, 0, 80, 59
2, 69632, Note_off_c, 0, 80, 64
2, 69632, Note_on_c, 0, 78, 59
2, 69648, Note_off_c, 0, 78, 64
2, 69648, Note_on_c, 0, 80, 59
2, 69664, Note_off_c, 0, 80, 64
2, 69664, Note_on_c, 0, 78, 59
2, 69680, Note_off_c, 0, 78, 64
2, 69680, Note_on_c, 0, 80, 59
2, 69696, Note_off_c, 0, 80, 64
2, 69696, Note_on_c, 0, 78, 59
2, 69712, Note_off_c, 0, 78, 64
2, 69712, Note_on_c, 0, 80, 59
2, 69728, Note_off_c, 0, 80, 64
2, 69728, Note_on_c, 0, 78, 59
2, 69744, Note_off_c, 0, 78, 64
2, 69744, Note_on_c, 0, 80, 59
2, 69760, Note_off_c, 0, 80, 64
2, 69760, Note_on_c, 0, 78, 59
2, 69776, Note_off_c, 0, 78, 64
2, 69776, Note_on_c, 0, 80, 59
2, 69792, Note_off_c, 0, 80, 64
2, 69792, Note_on_c, 0, 76, 59
2, 69832, Note_off_c, 0, 76, 64
2, 69840, Note_on_c, 0, 78, 59
2, 69880, Note_off_c, 0, 78, 64
2, 69888, Note_on_c, 0, 76, 59
2, 70268, Note_off_c, 0, 76, 64
2, 70272, Control_c, 0, 1, 45
2, 70464, Note_on_c, 0, 83, 59
2, 70656, Note_off_c, 0, 83, 64
2, 70656, Note_on_c, 0, 81, 59
2, 70752, Note_off_c, 0, 81, 64
2, 70752, Note_on_c, 0, 80, 59
2, 70848, Note_off_c, 0, 80, 64
2, 70848, Note_on_c, 0, 85, 56
2, 70944, Note_off_c, 0, 85, 64
2, 70944, Note_on_c, 0, 81, 59
2, 71040, Note_off_c, 0, 81, 64
2, 71040, Note_on_c, 0, 80, 59
2, 71136, Note_off_c, 0, 80, 64
2, 71136, Note_on_c, 0, 78, 59
2, 71232, Note_off_c, 0, 78, 64
2, 71232, Note_on_c, 0, 83, 59
2, 71328, Note_off_c, 0, 83, 64
2, 71328, Note_on_c, 0, 80, 59
2, 71424, Note_off_c, 0, 80, 64
2, 71424, Note_on_c, 0, 78, 59
2, 71520, Note_off_c, 0, 78, 64
2, 71520, Note_on_c, 0, 76, 59
2, 71616, Note_off_c, 0, 76, 64
2, 71616, Note_on_c, 0, 76, 59
2, 71900, Note_off_c, 0, 76, 64
2, 71904, Note_on_c, 0, 79, 59
2, 71996, Note_off_c, 0, 79, 64
2, 72000, Note_on_c, 0, 83, 59
2, 72092, Note_off_c, 0, 83, 64
2, 72096, Note_on_c, 0, 79, 59
2, 72188, Note_off_c, 0, 79, 64
2, 72192, Note_on_c, 0, 78, 59
2, 72284, Note_off_c, 0, 78, 64
2, 72288, Note_on_c, 0, 76, 59
2, 72380, Note_off_c, 0, 76, 64
2, 72384, Note_on_c, 0, 76, 59
2, 72668, Note_off_c, 0, 76, 64
2, 72672, Note_on_c, 0, 79, 59
2, 72764, Note_off_c, 0, 79, 64
2, 72768, Note_on_c, 0, 83, 60
2, 72860, Note_off_c, 0, 83, 64
2, 72864, Note_on_c, 0, 79, 62
2, 72956, Note_off_c, 0, 79, 64
2, 72960, Note_on_c, 0, 79, 64
2, 73052, Note_off_c, 0, 79, 64
2, 73056, Note_on_c, 0, 78, 66
2, 73148, Note_off_c, 0, 78, 64
2, 73152, Note_on_c, 0, 78, 68
2, 73380, Note_off_c, 0, 78, 64
2, 73392, Note_on_c, 0, 79, 72
2, 73432, Note_off_c, 0, 79, 64
2, 73440, Note_on_c, 0, 78, 73
2, 73480, Note_off_c, 0, 78, 64
2, 73488, Note_on_c, 0, 79, 74
2, 73528, Note_off_c, 0, 79, 64
2, 73536, Note_on_c, 0, 81, 75
2, 73576, Note_off_c, 0, 81, 64
2, 73584, Note_on_c, 0, 79, 76
2, 73624, Note_off_c, 0, 79, 64
2, 73632, Note_on_c, 0, 78, 76
2, 73672, Note_off_c, 0, 78, 64
2, 73680, Note_on_c, 0, 76, 76
2, 73720, Note_off_c, 0, 76, 64
2, 73728, Note_on_c, 0, 76, 76
2, 73744, Note_off_c, 0, 76, 64
2, 73744, Note_on_c, 0, 78, 76
2, 73760, Note_off_c, 0, 78, 64
2, 73760, Note_on_c, 0, 76, 76
2, 73776, Note_off_c, 0, 76, 64
2, 73776, Note_on_c, 0, 78, 76
2, 73792, Note_off_c, 0, 78, 64
2, 73792, Note_on_c, 0, 76, 76
2, 73808, Note_off_c, 0, 76, 64
2, 73808, Note_on_c, 0, 78, 76
2, 73824, Note_off_c, 0, 78, 64
2, 73824, Note_on_c, 0, 75, 76
2, 73916, Note_off_c, 0, 75, 64
2, 73920, Note_on_c, 0, 75, 76
2, 74204, Note_off_c, 0, 75, 64
2, 74208, Note_on_c, 0, 78, 72
2, 74300, Note_off_c, 0, 78, 64
2, 74304, Note_on_c, 0, 83, 68
2, 74396, Note_off_c, 0, 83, 64
2, 74400, Note_on_c, 0, 75, 63
2, 74492, Note_off_c, 0, 75, 64
2, 74496, Note_on_c, 0, 76, 59
2, 74540, Note_off_c, 0, 76, 64
2, 74544, Note_on_c, 0, 78, 59
2, 74588, Note_off_c, 0, 78, 64
2, 74592, Note_on_c, 0, 80, 59
2, 74636, Note_off_c, 0, 80, 64
2, 74640, Note_on_c, 0, 78, 59
2, 74684, Note_off_c, 0, 78, 64
2, 74688, Note_on_c, 0, 76, 59
2, 74780, Note_off_c, 0, 76, 64
2, 74784, Note_on_c, 0, 75, 59
2, 74876, Note_off_c, 0, 75, 64
2, 74880, Note_on_c, 0, 73, 59
2, 74924, Note_off_c, 0, 73, 64
2, 74928, Note_on_c, 0, 75, 59
2, 74972, Note_off_c, 0, 75, 64
2, 74976, Note_on_c, 0, 76, 59
2, 75020, Note_off_c, 0, 76, 64
2, 75024, Note_on_c, 0, 75, 59
2, 75068, Note_off_c, 0, 75, 64
2, 75072, Note_on_c, 0, 73, 59
2, 75164, Note_off_c, 0, 73, 64
2, 75168, Note_on_c, 0, 71, 59
2, 75260, Note_off_c, 0, 71, 64
2, 75264, Note_on_c, 0, 69, 59
2, 75308, Note_off_c, 0, 69, 64
2, 75312, Note_on_c, 0, 71, 59
2, 75356, Note_off_c, 0, 71, 64
2, 75360, Note_on_c, 0, 73, 59
2, 75404, Note_off_c, 0, 73, 64
2, 75408, Note_on_c, 0, 71, 59
2, 75452, Note_off_c, 0, 71, 64
2, 75456, Note_on_c, 0, 69, 59
2, 75740, Note_off_c, 0, 69, 64
2, 75744, Note_on_c, 0, 75, 59
2, 75836, Note_off_c, 0, 75, 64
2, 75840, Note_on_c, 0, 75, 59
2, 75932, Note_off_c, 0, 75, 64
2, 75936, Note_on_c, 0, 75, 59
2, 76028, Note_off_c, 0, 75, 64
2, 76032, Note_on_c, 0, 76, 60
2, 76076, Note_off_c, 0, 76, 64
2, 76080, Note_on_c, 0, 78, 63
2, 76124, Note_off_c, 0, 78, 64
2, 76128, Note_on_c, 0, 80, 65
2, 76172, Note_off_c, 0, 80, 64
2, 76176, Note_on_c, 0, 76, 68
2, 76220, Note_off_c, 0, 76, 64
2, 76224, Note_on_c, 0, 83, 70
2, 76268, Note_off_c, 0, 83, 64
2, 76272, Note_on_c, 0, 85, 68
2, 76316, Note_off_c, 0, 85, 64
2, 76320, Note_on_c, 0, 86, 75
2, 76364, Note_off_c, 0, 86, 64
2, 76368, Note_on_c, 0, 83, 76
2, 76412, Note_off_c, 0, 83, 64
2, 76416, Note_on_c, 0, 85, 69
2, 76460, Note_off_c, 0, 85, 64
2, 76464, Note_on_c, 0, 87, 75
2, 76508, Note_off_c, 0, 87, 64
2, 76512, Note_on_c, 0, 88, 72
2, 76556, Note_off_c, 0, 88, 64
2, 76560, Note_on_c, 0, 85, 68
2, 76604, Note_off_c, 0, 85, 64
2, 76608, Note_on_c, 0, 81, 68
2, 76652, Note_off_c, 0, 81, 64
2, 76656, Note_on_c, 0, 83, 65
2, 76700, Note_off_c, 0, 83, 64
2, 76704, Note_on_c, 0, 85, 59
2, 76748, Note_off_c, 0, 85, 64
2, 76752, Note_on_c, 0, 81, 60
2, 76796, Note_off_c, 0, 81, 64
2, 76800, Note_on_c, 0, 80, 59
2, 77084, Note_off_c, 0, 80, 64
2, 77088, Note_on_c, 0, 83, 59
2, 77180, Note_off_c, 0, 83, 64
2, 77184, Note_on_c, 0, 78, 59
2, 77372, Note_off_c, 0, 78, 64
2, 77952, Control_c, 0, 1, 45
2, 78144, Note_on_c, 0, 71, 63
2, 78184, Note_off_c, 0, 71, 64
2, 78240, Note_on_c, 0, 71, 63
2, 78280, Note_off_c, 0, 71, 64
2, 78336, Note_on_c, 0, 81, 63
2, 78812, Note_off_c, 0, 81, 64
2, 78816, Note_on_c, 0, 78, 60
2, 78908, Note_off_c, 0, 78, 64
2, 78912, Note_on_c, 0, 75, 67
2, 79004, Note_off_c, 0, 75, 64
2, 79008, Note_on_c, 0, 69, 73
2, 79100, Note_off_c, 0, 69, 64
2, 79104, Note_on_c, 0, 69, 76
2, 79148, Note_off_c, 0, 69, 64
2, 79152, Note_on_c, 0, 68, 73
2, 79196, Note_off_c, 0, 68, 64
2, 79200, Note_on_c, 0, 73, 68
2, 79244, Note_off_c, 0, 73, 64
2, 79248, Note_on_c, 0, 71, 64
2, 79292, Note_off_c, 0, 71, 64
2, 79296, Note_on_c, 0, 71, 60
2, 79388, Note_off_c, 0, 71, 64
2, 79680, Note_on_c, 0, 83, 59
2, 79724, Note_off_c, 0, 83, 64
2, 79776, Note_on_c, 0, 83, 59
2, 79820, Note_off_c, 0, 83, 64
2, 79872, Note_on_c, 0, 93, 73
2, 80348, Note_off_c, 0, 93, 64
2, 80352, Note_on_c, 0, 90, 64
2, 80444, Note_off_c, 0, 90, 64
2, 80448, Note_on_c, 0, 87, 62
2, 80540, Note_off_c, 0, 87, 64
2, 80544, Note_on_c, 0, 81, 60
2, 80636, Note_off_c, 0, 81, 64
2, 80640, Note_on_c, 0, 81, 59
2, 80684, Note_off_c, 0, 81, 64
2, 80688, Note_on_c, 0, 80, 59
2, 80732, Note_off_c, 0, 80, 64
2, 80736, Note_on_c, 0, 85, 56
2, 80780, Note_off_c, 0, 85, 64
2, 80784, Note_on_c, 0, 83, 59
2, 80828, Note_off_c, 0, 83, 64
2, 80832, Note_on_c, 0, 83, 60
2, 81116, Note_off_c, 0, 83, 64
2, 81120, Note_on_c, 0, 84, 66
2, 81212, Note_off_c, 0, 84, 64
2, 81216, Note_on_c, 0, 85, 62
2, 81308, Note_off_c, 0, 85, 64
2, 81312, Note_on_c, 0, 87, 73
2, 81404, Note_off_c, 0, 87, 64
2, 81408, Note_on_c, 0, 88, 85
2, 81452, Note_off_c, 0, 88, 64
2, 81456, Note_on_c, 0, 87, 76
2, 81500, Note_off_c, 0, 87, 64
2, 81504, Note_on_c, 0, 88, 76
2, 81548, Note_off_c, 0, 88, 64
2, 81552, Note_on_c, 0, 87, 76
2, 81596, Note_off_c, 0, 87, 64
2, 81600, Note_on_c, 0, 88, 76
2, 81644, Note_off_c, 0, 88, 64
2, 81648, Note_on_c, 0, 87, 76
2, 81692, Note_off_c, 0, 87, 64
2, 81696, Note_on_c, 0, 88, 76
2, 81740, Note_off_c, 0, 88, 64
2, 81744, Note_on_c, 0, 87, 76
2, 81788, Note_off_c, 0, 87, 64
2, 81792, Note_on_c, 0, 88, 73
2, 81884, Note_off_c, 0, 88, 64
2, 81888, Note_on_c, 0, 86, 69
2, 81980, Note_off_c, 0, 86, 64
2, 81984, Note_on_c, 0, 85, 59
2, 82076, Note_off_c, 0, 85, 64
2, 82080, Note_on_c, 0, 84, 62
2, 82172, Note_off_c, 0, 84, 64
2, 82176, Note_on_c, 0, 85, 56
2, 82220, Note_off_c, 0, 85, 64
2, 82224, Note_on_c, 0, 84, 59
2, 82268, Note_off_c, 0, 84, 64
2, 82272, Note_on_c, 0, 85, 56
2, 82316, Note_off_c, 0, 85, 64
2, 82320, Note_on_c, 0, 84, 59
2, 82364, Note_off_c, 0, 84, 64
2, 82368, Note_on_c, 0, 85, 56
2, 82412, Note_off_c, 0, 85, 64
2, 82416, Note_on_c, 0, 84, 59
2, 82460, Note_off_c, 0, 84, 64
2, 82464, Note_on_c, 0, 85, 56
2, 82508, Note_off_c, 0, 85, 64
2, 82512, Note_on_c, 0, 84, 59
2, 82556, Note_off_c, 0, 84, 64
2, 82560, Note_on_c, 0, 85, 56
2, 82652, Note_off_c, 0, 85, 64
2, 82656, Note_on_c, 0, 88, 59
2, 82748, Note_off_c, 0, 88, 64
2, 82752, Note_on_c, 0, 87, 59
2, 82796, Note_off_c, 0, 87, 64
2, 82800, Note_on_c, 0, 85, 56
2, 82844, Note_off_c, 0, 85, 64
2, 82848, Note_on_c, 0, 83, 59
2, 82892, Note_off_c, 0, 83, 64
2, 82896, Note_on_c, 0, 81, 59
2, 82940, Note_off_c, 0, 81, 64
2, 82944, Note_on_c, 0, 80, 59
2, 82988, Note_off_c, 0, 80, 64
2, 82992, Note_on_c, 0, 81, 61
2, 83036, Note_off_c, 0, 81, 64
2, 83040, Note_on_c, 0, 82, 64
2, 83084, Note_off_c, 0, 82, 64
2, 83088, Note_on_c, 0, 83, 66
2, 83132, Note_off_c, 0, 83, 64
2, 83136, Note_on_c, 0, 84, 68
2, 83180, Note_off_c, 0, 84, 64
2, 83184, Note_on_c, 0, 85, 68
2, 83228, Note_off_c, 0, 85, 64
2, 83232, Note_on_c, 0, 87, 73
2, 83276, Note_off_c, 0, 87, 64
2, 83280, Note_on_c, 0, 88, 76
2, 83324, Note_off_c, 0, 88, 64
2, 83328, Note_on_c, 0, 78, 76
2, 83344, Note_off_c, 0, 78, 64
2, 83344, Note_on_c, 0, 80, 76
2, 83360, Note_off_c, 0, 80, 64
2, 83360, Note_on_c, 0, 78, 76
2, 83376, Note_off_c, 0, 78, 64
2, 83376, Note_on_c, 0, 80, 76
2, 83392, Note_off_c, 0, 80, 64
2, 83392, Note_on_c, 0, 78, 76
2, 83408, Note_off_c, 0, 78, 64
2, 83408, Note_on_c, 0, 80, 76
2, 83424, Note_off_c, 0, 80, 64
2, 83424, Note_on_c, 0, 78, 76
2, 83440, Note_off_c, 0, 78, 64
2, 83440, Note_on_c, 0, 80, 76
2, 83456, Note_off_c, 0, 80, 64
2, 83456, Note_on_c, 0, 78, 76
2, 83472, Note_off_c, 0, 78, 64
2, 83472, Note_on_c, 0, 80, 76
2, 83488, Note_off_c, 0, 80, 64
2, 83488, Note_on_c, 0, 78, 76
2, 83504, Note_off_c, 0, 78, 64
2, 83504, Note_on_c, 0, 80, 76
2, 83520, Note_off_c, 0, 80, 64
2, 83520, Note_on_c, 0, 78, 76
2, 83536, Note_off_c, 0, 78, 64
2, 83536, Note_on_c, 0, 80, 76
2, 83552, Note_off_c, 0, 80, 64
2, 83552, Note_on_c, 0, 78, 76
2, 83568, Note_off_c, 0, 78, 64
2, 83568, Note_on_c, 0, 80, 76
2, 83584, Note_off_c, 0, 80, 64
2, 83584, Note_on_c, 0, 78, 76
2, 83600, Note_off_c, 0, 78, 64
2, 83600, Note_on_c, 0, 80, 76
2, 83616, Note_off_c, 0, 80, 64
2, 83616, Note_on_c, 0, 76, 76
2, 83660, Note_off_c, 0, 76, 64
2, 83664, Note_on_c, 0, 78, 76
2, 83708, Note_off_c, 0, 78, 64
2, 83712, Note_on_c, 0, 78, 76
2, 83996, Note_off_c, 0, 78, 64
2, 84000, Note_on_c, 0, 79, 76
2, 84092, Note_off_c, 0, 79, 64
2, 84096, Note_on_c, 0, 80, 75
2, 84140, Note_off_c, 0, 80, 64
2, 84144, Note_on_c, 0, 76, 74
2, 84188, Note_off_c, 0, 76, 64
2, 84192, Note_on_c, 0, 75, 73
2, 84236, Note_off_c, 0, 75, 64
2, 84240, Note_on_c, 0, 78, 72
2, 84284, Note_off_c, 0, 78, 64
2, 84288, Note_on_c, 0, 76, 71
2, 84332, Note_off_c, 0, 76, 64
2, 84336, Note_on_c, 0, 73, 70
2, 84380, Note_off_c, 0, 73, 64
2, 84384, Note_on_c, 0, 68, 69
2, 84428, Note_off_c, 0, 68, 64
2, 84432, Note_on_c, 0, 70, 68
2, 84476, Note_off_c, 0, 70, 64
2, 84480, Note_on_c, 0, 71, 68
2, 84620, Note_off_c, 0, 71, 64
2, 84624, Note_on_c, 0, 73, 68
2, 84664, Note_off_c, 0, 73, 64
2, 84672, Note_on_c, 0, 69, 68
2, 84812, Note_off_c, 0, 69, 64
2, 84816, Note_on_c, 0, 71, 68
2, 84856, Note_off_c, 0, 71, 64
2, 84864, Note_on_c, 0, 68, 68
2, 85004, Note_off_c, 0, 68, 64
2, 85008, Note_on_c, 0, 69, 68
2, 85048, Note_off_c, 0, 69, 64
2, 85056, Note_on_c, 0, 66, 68
2, 85100, Note_off_c, 0, 66, 64
2, 85104, Note_on_c, 0, 64, 68
2, 85148, Note_off_c, 0, 64, 64
2, 85152, Note_on_c, 0, 63, 68
2, 85196, Note_off_c, 0, 63, 64
2, 85200, Note_on_c, 0, 59, 68
2, 85244, Note_off_c, 0, 59, 64
2, 85248, Note_on_c, 0, 71, 51
2, 85340, Note_off_c, 0, 71, 64
2, 85344, Note_on_c, 0, 71, 51
2, 85388, Note_off_c, 0, 71, 64
2, 85392, Note_on_c, 0, 73, 51
2, 85436, Note_off_c, 0, 73, 64
2, 85440, Note_on_c, 0, 69, 51
2, 85532, Note_off_c, 0, 69, 64
2, 85536, Note_on_c, 0, 69, 51
2, 85580, Note_off_c, 0, 69, 64
2, 85584, Note_on_c, 0, 71, 51
2, 85628, Note_off_c, 0, 71, 64
2, 85632, Note_on_c, 0, 68, 51
2, 85724, Note_off_c, 0, 68, 64
2, 85728, Note_on_c, 0, 68, 51
2, 85772, Note_off_c, 0, 68, 64
2, 85776, Note_on_c, 0, 69, 51
2, 85820, Note_off_c, 0, 69, 64
2, 85824, Note_on_c, 0, 66, 51
2, 85868, Note_off_c, 0, 66, 64
2, 85872, Note_on_c, 0, 64, 51
2, 85916, Note_off_c, 0, 64, 64
2, 85920, Note_on_c, 0, 63, 51
2, 85964, Note_off_c, 0, 63, 64
2, 85968, Note_on_c, 0, 59, 51
2, 86012, Note_off_c, 0, 59, 64
2, 86016, Note_on_c, 0, 71, 76
2, 86060, Note_off_c, 0, 71, 64
2, 86064, Note_on_c, 0, 73, 59
2, 86108, Note_off_c, 0, 73, 64
2, 86112, Note_on_c, 0, 75, 59
2, 86156, Note_off_c, 0, 75, 64
2, 86160, Note_on_c, 0, 76, 59
2, 86204, Note_off_c, 0, 76, 64
2, 86208, Note_on_c, 0, 75, 59
2, 86252, Note_off_c, 0, 75, 64
2, 86256, Note_on_c, 0, 73, 59
2, 86300, Note_off_c, 0, 73, 64
2, 86304, Note_on_c, 0, 71, 59
2, 86348, Note_off_c, 0, 71, 64
2, 86352, Note_on_c, 0, 69, 59
2, 86396, Note_off_c, 0, 69, 64
2, 86400, Note_on_c, 0, 68, 76
2, 86444, Note_off_c, 0, 68, 64
2, 86448, Note_on_c, 0, 69, 59
2, 86492, Note_off_c, 0, 69, 64
2, 86496, Note_on_c, 0, 71, 59
2, 86540, Note_off_c, 0, 71, 64
2, 86544, Note_on_c, 0, 73, 59
2, 86588, Note_off_c, 0, 73, 64
2, 86592, Note_on_c, 0, 71, 59
2, 86636, Note_off_c, 0, 71, 64
2, 86640, Note_on_c, 0, 69, 59
2, 86684, Note_off_c, 0, 69, 64
2, 86688, Note_on_c, 0, 68, 59
2, 86732, Note_off_c, 0, 68, 64
2, 86736, Note_on_c, 0, 66, 59
2, 86780, Note_off_c, 0, 66, 64
2, 86784, Note_on_c, 0, 80, 76
2, 87164, Note_off_c, 0, 80, 64
2, 87168, Note_on_c, 0, 81, 85
2, 87188, Note_off_c, 0, 81, 64
2, 87192, Note_on_c, 0, 80, 76
2, 87212, Note_off_c, 0, 80, 64
2, 87216, Note_on_c, 0, 78, 76
2, 87236, Note_off_c, 0, 78, 64
2, 87240, Note_on_c, 0, 76, 76
2, 87260, Note_off_c, 0, 76, 64
2, 87264, Note_on_c, 0, 75, 76
2, 87304, Note_off_c, 0, 75, 64
2, 87648, Note_on_c, 0, 78, 68
2, 87668, Note_off_c, 0, 78, 64
2, 87672, Note_on_c, 0, 76, 59
2, 87836, Note_off_c, 0, 76, 64
2, 87840, Note_on_c, 0, 75, 68
2, 87860, Note_off_c, 0, 75, 64
2, 87864, Note_on_c, 0, 73, 59
2, 88028, Note_off_c, 0, 73, 64
2, 88032, Note_on_c, 0, 70, 68
2, 88052, Note_off_c, 0, 70, 64
2, 88056, Note_on_c, 0, 71, 59
2, 88220, Note_off_c, 0, 71, 64
2, 88224, Note_on_c, 0, 63, 59
2, 88264, Note_off_c, 0, 63, 64
2, 88320, Note_on_c, 0, 80, 76
2, 88700, Note_off_c, 0, 80, 64
2, 88704, Note_on_c, 0, 81, 85
2, 88724, Note_off_c, 0, 81, 64
2, 88728, Note_on_c, 0, 80, 76
2, 88748, Note_off_c, 0, 80, 64
2, 88752, Note_on_c, 0, 78, 76
2, 88772, Note_off_c, 0, 78, 64
2, 88776, Note_on_c, 0, 76, 76
2, 88796, Note_off_c, 0, 76, 64
2, 88800, Note_on_c, 0, 75, 76
2, 88840, Note_off_c, 0, 75, 64
2, 89088, Note_on_c, 0, 76, 68
2, 89128, Note_off_c, 0, 76, 64
2, 89136, Note_on_c, 0, 88, 59
2, 89276, Note_off_c, 0, 88, 64
2, 89280, Note_on_c, 0, 87, 62
2, 89468, Note_off_c, 0, 87, 64
2, 89472, Note_on_c, 0, 85, 62
2, 89660, Note_off_c, 0, 85, 64
2, 89664, Note_on_c, 0, 84, 68
2, 89852, Note_off_c, 0, 84, 64
2, 89856, Note_on_c, 0, 85, 68
2, 89900, Note_off_c, 0, 85, 64
2, 89904, Note_on_c, 0, 84, 72
2, 89948, Note_off_c, 0, 84, 64
2, 89952, Note_on_c, 0, 85, 69
2, 89996, Note_off_c, 0, 85, 64
2, 90000, Note_on_c, 0, 84, 70
2, 90044, Note_off_c, 0, 84, 64
2, 90048, Note_on_c, 0, 85, 74
2, 90092, Note_off_c, 0, 85, 64
2, 90096, Note_on_c, 0, 84, 70
2, 90140, Note_off_c, 0, 84, 64
2, 90144, Note_on_c, 0, 85, 76
2, 90188, Note_off_c, 0, 85, 64
2, 90192, Note_on_c, 0, 87, 76
2, 90236, Note_off_c, 0, 87, 64
2, 90240, Note_on_c, 0, 88, 85
2, 90260, Note_off_c, 0, 88, 64
2, 90264, Note_on_c, 0, 87, 76
2, 90284, Note_off_c, 0, 87, 64
2, 90288, Note_on_c, 0, 85, 73
2, 90308, Note_off_c, 0, 85, 64
2, 90312, Note_on_c, 0, 83, 76
2, 90332, Note_off_c, 0, 83, 64
2, 90336, Note_on_c, 0, 81, 76
2, 90376, Note_off_c, 0, 81, 64
2, 90432, Note_on_c, 0, 85, 81
2, 90452, Note_off_c, 0, 85, 64
2, 90456, Note_on_c, 0, 83, 76
2, 90476, Note_off_c, 0, 83, 64
2, 90480, Note_on_c, 0, 81, 76
2, 90500, Note_off_c, 0, 81, 64
2, 90504, Note_on_c, 0, 80, 76
2, 90524, Note_off_c, 0, 80, 64
2, 90528, Note_on_c, 0, 78, 76
2, 90568, Note_off_c, 0, 78, 64
2, 90624, Note_on_c, 0, 80, 76
2, 90716, Note_off_c, 0, 80, 64
2, 90720, Note_on_c, 0, 83, 76
2, 90812, Note_off_c, 0, 83, 64
2, 90816, Note_on_c, 0, 83, 76
2, 91100, Note_off_c, 0, 83, 64
2, 91104, Note_on_c, 0, 88, 76
2, 91196, Note_off_c, 0, 88, 64
2, 91200, Note_on_c, 0, 83, 76
2, 91292, Note_off_c, 0, 83, 64
2, 91296, Note_on_c, 0, 80, 76
2, 91388, Note_off_c, 0, 80, 64
2, 91392, Note_on_c, 0, 78, 76
2, 91408, Note_off_c, 0, 78, 64
2, 91408, Note_on_c, 0, 80, 76
2, 91424, Note_off_c, 0, 80, 64
2, 91424, Note_on_c, 0, 78, 76
2, 91440, Note_off_c, 0, 78, 64
2, 91440, Note_on_c, 0, 80, 76
2, 91456, Note_off_c, 0, 80, 64
2, 91456, Note_on_c, 0, 78, 76
2, 91472, Note_off_c, 0, 78, 64
2, 91472, Note_on_c, 0, 80, 77
2, 91488, Note_off_c, 0, 80, 64
2, 91488, Note_on_c, 0, 78, 77
2, 91504, Note_off_c, 0, 78, 64
2, 91504, Note_on_c, 0, 80, 77
2, 91520, Note_off_c, 0, 80, 64
2, 91520, Note_on_c, 0, 78, 77
2, 91536, Note_off_c, 0, 78, 64
2, 91536, Note_on_c, 0, 80, 78
2, 91552, Note_off_c, 0, 80, 64
2, 91552, Note_on_c, 0, 78, 78
2, 91568, Note_off_c, 0, 78, 64
2, 91568, Note_on_c, 0, 80, 78
2, 91584, Note_off_c, 0, 80, 64
2, 91584, Note_on_c, 0, 78, 78
2, 91600, Note_off_c, 0, 78, 64
2, 91600, Note_on_c, 0, 80, 78
2, 91616, Note_off_c, 0, 80, 64
2, 91616, Note_on_c, 0, 78, 79
2, 91632, Note_off_c, 0, 78, 64
2, 91632, Note_on_c, 0, 80, 79
2, 91648, Note_off_c, 0, 80, 64
2, 91648, Note_on_c, 0, 78, 79
2, 91664, Note_off_c, 0, 78, 64
2, 91664, Note_on_c, 0, 80, 79
2, 91680, Note_off_c, 0, 80, 64
2, 91680, Note_on_c, 0, 78, 80
2, 91696, Note_off_c, 0, 78, 64
2, 91696, Note_on_c, 0, 80, 80
2, 91712, Note_off_c, 0, 80, 64
2, 91712, Note_on_c, 0, 78, 80
2, 91728, Note_off_c, 0, 78, 64
2, 91728, Note_on_c, 0, 80, 80
2, 91744, Note_off_c, 0, 80, 64
2, 91744, Note_on_c, 0, 78, 81
2, 91760, Note_off_c, 0, 78, 64
2, 91760, Note_on_c, 0, 80, 81
2, 91776, Note_off_c, 0, 80, 64
2, 91776, Note_on_c, 0, 78, 81
2, 91792, Note_off_c, 0, 78, 64
2, 91792, Note_on_c, 0, 80, 81
2, 91808, Note_off_c, 0, 80, 64
2, 91808, Note_on_c, 0, 78, 81
2, 91824, Note_off_c, 0, 78, 64
2, 91824, Note_on_c, 0, 80, 82
2, 91840, Note_off_c, 0, 80, 64
2, 91840, Note_on_c, 0, 78, 82
2, 91856, Note_off_c, 0, 78, 64
2, 91856, Note_on_c, 0, 80, 82
2, 91872, Note_off_c, 0, 80, 64
2, 91872, Note_on_c, 0, 78, 82
2, 91888, Note_off_c, 0, 78, 64
2, 91888, Note_on_c, 0, 80, 83
2, 91904, Note_off_c, 0, 80, 64
2, 91904, Note_on_c, 0, 78, 83
2, 91920, Note_off_c, 0, 78, 64
2, 91920, Note_on_c, 0, 80, 83
2, 91936, Note_off_c, 0, 80, 64
2, 91936, Note_on_c, 0, 78, 83
2, 91952, Note_off_c, 0, 78, 64
2, 91952, Note_on_c, 0, 80, 84
2, 91968, Note_off_c, 0, 80, 64
2, 91968, Note_on_c, 0, 76, 84
2, 92060, Note_off_c, 0, 76, 64
2, 92064, Note_on_c, 0, 78, 85
2, 92156, Note_off_c, 0, 78, 64
2, 92160, Note_on_c, 0, 76, 85
2, 92540, Note_off_c, 0, 76, 64
2, 96384, Control_c, 0, 1, 45
2, 96576, Note_on_c, 0, 71, 59
2, 96764, Note_off_c, 0, 71, 64
2, 96768, Note_on_c, 0, 69, 59
2, 96864, Note_off_c, 0, 69, 64
2, 96864, Note_on_c, 0, 68, 59
2, 96960, Note_off_c, 0, 68, 64
2, 96960, Note_on_c, 0, 73, 59
2, 97056, Note_off_c, 0, 73, 64
2, 97056, Note_on_c, 0, 69, 59
2, 97152, Note_off_c, 0, 69, 64
2, 97152, Note_on_c, 0, 68, 59
2, 97248, Note_off_c, 0, 68, 64
2, 97248, Note_on_c, 0, 66, 59
2, 97344, Note_off_c, 0, 66, 64
2, 97344, Note_on_c, 0, 71, 59
2, 97440, Note_off_c, 0, 71, 64
2, 97440, Note_on_c, 0, 68, 59
2, 97536, Note_off_c, 0, 68, 64
2, 97536, Note_on_c, 0, 66, 59
2, 97632, Note_off_c, 0, 66, 64
2, 97632, Note_on_c, 0, 64, 59
2, 97728, Note_off_c, 0, 64, 64
2, 97728, Note_on_c, 0, 64, 59
2, 97916, Note_off_c, 0, 64, 64
2, 98016, Note_on_c, 0, 67, 59
2, 98108, Note_off_c, 0, 67, 64
2, 98112, Note_on_c, 0, 71, 59
2, 98204, Note_off_c, 0, 71, 64
2, 98208, Note_on_c, 0, 67, 59
2, 98300, Note_off_c, 0, 67, 64
2, 98304, Note_on_c, 0, 69, 59
2, 98304, Note_on_c, 0, 59, 59
2, 98348, Note_off_c, 0, 69, 64
2, 98352, Note_on_c, 0, 68, 59
2, 98396, Note_off_c, 0, 59, 64
2, 98396, Note_off_c, 0, 68, 64
2, 98400, Note_on_c, 0, 66, 59
2, 98444, Note_off_c, 0, 66, 64
2, 98448, Note_on_c, 0, 64, 59
2, 98492, Note_off_c, 0, 64, 64
2, 98496, Note_on_c, 0, 64, 59
2, 98496, Note_on_c, 0, 55, 59
2, 98684, Note_off_c, 0, 64, 64
2, 98684, Note_off_c, 0, 55, 64
2, 98752, Note_on_c, 0, 64, 59
2, 98812, Note_off_c, 0, 64, 64
2, 98816, Note_on_c, 0, 68, 59
2, 98876, Note_off_c, 0, 68, 64
2, 98880, Note_on_c, 0, 71, 59
2, 98940, Note_off_c, 0, 71, 64
2, 98944, Note_on_c, 0, 76, 59
2, 99004, Note_off_c, 0, 76, 64
2, 99008, Note_on_c, 0, 79, 59
2, 99068, Note_off_c, 0, 79, 64
2, 99072, Note_on_c, 0, 69, 59
2, 99072, Note_on_c, 0, 84, 59
2, 99132, Note_off_c, 0, 69, 64
2, 99132, Note_off_c, 0, 84, 64
2, 99136, Note_on_c, 0, 87, 59
2, 99196, Note_off_c, 0, 87, 64
2, 99200, Note_on_c, 0, 88, 59
2, 99260, Note_off_c, 0, 88, 64
2, 99264, Note_on_c, 0, 79, 59
2, 99264, Note_on_c, 0, 83, 59
2, 99324, Note_off_c, 0, 79, 64
2, 99324, Note_off_c, 0, 83, 64
2, 99328, Note_on_c, 0, 87, 61
2, 99388, Note_off_c, 0, 87, 64
2, 99392, Note_on_c, 0, 88, 63
2, 99452, Note_off_c, 0, 88, 64
2, 99456, Note_on_c, 0, 78, 66
2, 99456, Note_on_c, 0, 81, 66
2, 99516, Note_off_c, 0, 78, 64
2, 99516, Note_off_c, 0, 81, 64
2, 99520, Note_on_c, 0, 87, 68
2, 99580, Note_off_c, 0, 87, 64
2, 99584, Note_on_c, 0, 88, 69
2, 99644, Note_off_c, 0, 88, 64
2, 99648, Note_on_c, 0, 76, 72
2, 99648, Note_on_c, 0, 79, 72
2, 99708, Note_off_c, 0, 76, 64
2, 99708, Note_off_c, 0, 79, 64
2, 99712, Note_on_c, 0, 82, 74
2, 99772, Note_off_c, 0, 82, 64
2, 99776, Note_on_c, 0, 83, 76
2, 99836, Note_off_c, 0, 83, 64
2, 99840, Note_on_c, 0, 79, 59
2, 99840, Note_on_c, 0, 83, 59
2, 99872, Note_on_c, 0, 81, 62
2, 99884, Note_off_c, 0, 79, 64
2, 99884, Note_off_c, 0, 83, 64
2, 99888, Note_on_c, 0, 78, 64
2, 99916, Note_off_c, 0, 81, 64
2, 99932, Note_off_c, 0, 78, 64
2, 99936, Note_on_c, 0, 76, 68
2, 99936, Note_on_c, 0, 79, 68
2, 99968, Note_on_c, 0, 83, 72
2, 99980, Note_off_c, 0, 76, 64
2, 99980, Note_off_c, 0, 79, 64
2, 99984, Note_on_c, 0, 79, 73
2, 100012, Note_off_c, 0, 83, 64
2, 100028, Note_off_c, 0, 79, 64
2, 100032, Note_on_c, 0, 86, 73
2, 100032, Note_on_c, 0, 78, 75
2, 100032, Note_on_c, 0, 62, 73
2, 100220, Note_off_c, 0, 86, 64
2, 100220, Note_off_c, 0, 78, 64
2, 100220, Note_off_c, 0, 62, 64
2, 100416, Note_on_c, 0, 71, 79
2, 100416, Note_on_c, 0, 55, 68
2, 100460, Note_off_c, 0, 71, 64
2, 100464, Note_on_c, 0, 69, 76
2, 100508, Note_off_c, 0, 55, 64
2, 100508, Note_off_c, 0, 69, 64
2, 100512, Note_on_c, 0, 67, 76
2, 100556, Note_off_c, 0, 67, 64
2, 100560, Note_on_c, 0, 71, 76
2, 100604, Note_off_c, 0, 71, 64
2, 100608, Note_on_c, 0, 74, 68
2, 100796, Note_off_c, 0, 74, 64
2, 100992, Note_on_c, 0, 86, 59
2, 101012, Note_off_c, 0, 86, 64
2, 101016, Note_on_c, 0, 84, 59
2, 101036, Note_off_c, 0, 84, 64
2, 101040, Note_on_c, 0, 83, 59
2, 101060, Note_off_c, 0, 83, 64
2, 101064, Note_on_c, 0, 81, 59
2, 101084, Note_off_c, 0, 81, 64
2, 101088, Note_on_c, 0, 79, 59
2, 101132, Note_off_c, 0, 79, 64
2, 101184, Note_on_c, 0, 83, 59
2, 101204, Note_off_c, 0, 83, 64
2, 101208, Note_on_c, 0, 81, 59
2, 101228, Note_off_c, 0, 81, 64
2, 101232, Note_on_c, 0, 79, 59
2, 101252, Note_off_c, 0, 79, 64
2, 101256, Note_on_c, 0, 78, 59
2, 101276, Note_off_c, 0, 78, 64
2, 101280, Note_on_c, 0, 76, 59
2, 101324, Note_off_c, 0, 76, 64
2, 101376, Note_on_c, 0, 79, 59
2, 101396, Note_off_c, 0, 79, 64
2, 101400, Note_on_c, 0, 78, 59
2, 101420, Note_off_c, 0, 78, 64
2, 101424, Note_on_c, 0, 76, 59
2, 101444, Note_off_c, 0, 76, 64
2, 101448, Note_on_c, 0, 74, 59
2, 101468, Note_off_c, 0, 74, 64
2, 101472, Note_on_c, 0, 72, 59
2, 101516, Note_off_c, 0, 72, 64
2, 101568, Note_on_c, 0, 76, 59
2, 101588, Note_off_c, 0, 76, 64
2, 101592, Note_on_c, 0, 74, 59
2, 101612, Note_off_c, 0, 74, 64
2, 101616, Note_on_c, 0, 72, 59
2, 101636, Note_off_c, 0, 72, 64
2, 101640, Note_on_c, 0, 71, 59
2, 101660, Note_off_c, 0, 71, 64
2, 101664, Note_on_c, 0, 69, 59
2, 101708, Note_off_c, 0, 69, 64
2, 101760, Note_on_c, 0, 84, 59
2, 101780, Note_off_c, 0, 84, 64
2, 101784, Note_on_c, 0, 82, 59
2, 101804, Note_off_c, 0, 82, 64
2, 101808, Note_on_c, 0, 81, 59
2, 101828, Note_off_c, 0, 81, 64
2, 101832, Note_on_c, 0, 79, 59
2, 101852, Note_off_c, 0, 79, 64
2, 101856, Note_on_c, 0, 77, 59
2, 101900, Note_off_c, 0, 77, 64
2, 101952, Note_on_c, 0, 81, 59
2, 101972, Note_off_c, 0, 81, 64
2, 101976, Note_on_c, 0, 79, 59
2, 101996, Note_off_c, 0, 79, 64
2, 102000, Note_on_c, 0, 77, 59
2, 102020, Note_off_c, 0, 77, 64
2, 102024, Note_on_c, 0, 76, 59
2, 102044, Note_off_c, 0, 76, 64
2, 102048, Note_on_c, 0, 74, 59
2, 102092, Note_off_c, 0, 74, 64
2, 102144, Note_on_c, 0, 77, 59
2, 102164, Note_off_c, 0, 77, 64
2, 102168, Note_on_c, 0, 76, 59
2, 102188, Note_off_c, 0, 76, 64
2, 102192, Note_on_c, 0, 74, 59
2, 102212, Note_off_c, 0, 74, 64
2, 102216, Note_on_c, 0, 72, 59
2, 102236, Note_off_c, 0, 72, 64
2, 102240, Note_on_c, 0, 71, 59
2, 102284, Note_off_c, 0, 71, 64
2, 102336, Note_on_c, 0, 74, 59
2, 102356, Note_off_c, 0, 74, 64
2, 102360, Note_on_c, 0, 72, 59
2, 102380, Note_off_c, 0, 72, 64
2, 102384, Note_on_c, 0, 71, 59
2, 102404, Note_off_c, 0, 71, 64
2, 102408, Note_on_c, 0, 69, 59
2, 102428, Note_off_c, 0, 69, 64
2, 102432, Note_on_c, 0, 67, 59
2, 102476, Note_off_c, 0, 67, 64
2, 102528, Note_on_c, 0, 89, 59
2, 102548, Note_off_c, 0, 89, 64
2, 102552, Note_on_c, 0, 88, 59
2, 102572, Note_off_c, 0, 88, 64
2, 102576, Note_on_c, 0, 86, 60
2, 102596, Note_off_c, 0, 86, 64
2, 102600, Note_on_c, 0, 84, 60
2, 102620, Note_off_c, 0, 84, 64
2, 102624, Note_on_c, 0, 83, 61
2, 102644, Note_off_c, 0, 83, 64
2, 102648, Note_on_c, 0, 81, 62
2, 102668, Note_off_c, 0, 81, 64
2, 102672, Note_on_c, 0, 79, 62
2, 102692, Note_off_c, 0, 79, 64
2, 102696, Note_on_c, 0, 77, 63
2, 102716, Note_off_c, 0, 77, 64
2, 102720, Note_on_c, 0, 86, 64
2, 102740, Note_off_c, 0, 86, 64
2, 102744, Note_on_c, 0, 84, 64
2, 102764, Note_off_c, 0, 84, 64
2, 102768, Note_on_c, 0, 83, 65
2, 102788, Note_off_c, 0, 83, 64
2, 102792, Note_on_c, 0, 81, 66
2, 102812, Note_off_c, 0, 81, 64
2, 102816, Note_on_c, 0, 79, 66
2, 102836, Note_off_c, 0, 79, 64
2, 102840, Note_on_c, 0, 77, 67
2, 102860, Note_off_c, 0, 77, 64
2, 102864, Note_on_c, 0, 76, 68
2, 102884, Note_off_c, 0, 76, 64
2, 102888, Note_on_c, 0, 74, 68
2, 102908, Note_off_c, 0, 74, 64
2, 102912, Note_on_c, 0, 81, 68
2, 102932, Note_off_c, 0, 81, 64
2, 102936, Note_on_c, 0, 79, 69
2, 102956, Note_off_c, 0, 79, 64
2, 102960, Note_on_c, 0, 77, 69
2, 102980, Note_off_c, 0, 77, 64
2, 102984, Note_on_c, 0, 76, 70
2, 103004, Note_off_c, 0, 76, 64
2, 103008, Note_on_c, 0, 74, 71
2, 103028, Note_off_c, 0, 74, 64
2, 103032, Note_on_c, 0, 72, 71
2, 103052, Note_off_c, 0, 72, 64
2, 103056, Note_on_c, 0, 71, 72
2, 103076, Note_off_c, 0, 71, 64
2, 103080, Note_on_c, 0, 69, 73
2, 103100, Note_off_c, 0, 69, 64
2, 103104, Note_on_c, 0, 77, 73
2, 103120, Note_off_c, 0, 77, 64
2, 103120, Note_on_c, 0, 74, 74
2, 103132, Note_off_c, 0, 74, 64
2, 103132, Note_on_c, 0, 72, 74
2, 103148, Note_off_c, 0, 72, 64
2, 103148, Note_on_c, 0, 71, 75
2, 103164, Note_off_c, 0, 71, 64
2, 103164, Note_on_c, 0, 69, 75
2, 103176, Note_off_c, 0, 69, 64
2, 103176, Note_on_c, 0, 67, 75
2, 103192, Note_off_c, 0, 67, 64
2, 103192, Note_on_c, 0, 66, 76
2, 103208, Note_off_c, 0, 66, 64
2, 103208, Note_on_c, 0, 65, 76
2, 103220, Note_off_c, 0, 65, 64
2, 103220, Note_on_c, 0, 64, 76
2, 103236, Note_off_c, 0, 64, 64
2, 103236, Note_on_c, 0, 62, 76
2, 103252, Note_off_c, 0, 62, 64
2, 103252, Note_on_c, 0, 60, 76
2, 103264, Note_off_c, 0, 60, 64
2, 103264, Note_on_c, 0, 59, 76
2, 103280, Note_off_c, 0, 59, 64
2, 103280, Note_on_c, 0, 57, 76
2, 103296, Note_off_c, 0, 57, 64
2, 103296, Note_on_c, 0, 55, 80
2, 103680, Note_off_c, 0, 55, 64
2, 103680, Note_on_c, 0, 59, 76
2, 103868, Note_off_c, 0, 59, 64
2, 103872, Note_on_c, 0, 62, 76
2, 104060, Note_off_c, 0, 62, 64
2, 104064, Note_on_c, 0, 65, 76
2, 104252, Note_off_c, 0, 65, 64
2, 104256, Note_on_c, 0, 67, 72
2, 104444, Note_off_c, 0, 67, 64
2, 104448, Note_on_c, 0, 71, 68
2, 104636, Note_off_c, 0, 71, 64
2, 104640, Note_on_c, 0, 74, 63
2, 104828, Note_off_c, 0, 74, 64
2, 104832, Note_on_c, 0, 77, 59
2, 104848, Note_off_c, 0, 77, 64
2, 104848, Note_on_c, 0, 79, 59
2, 104864, Note_off_c, 0, 79, 64
2, 104864, Note_on_c, 0, 77, 59
2, 104880, Note_off_c, 0, 77, 64
2, 104880, Note_on_c, 0, 79, 59
2, 104896, Note_off_c, 0, 79, 64
2, 104896, Note_on_c, 0, 77, 59
2, 104912, Note_off_c, 0, 77, 64
2, 104912, Note_on_c, 0, 79, 59
2, 104928, Note_off_c, 0, 79, 64
2, 104928, Note_on_c, 0, 77, 59
2, 104944, Note_off_c, 0, 77, 64
2, 104944, Note_on_c, 0, 79, 59
2, 104960, Note_off_c, 0, 79, 64
2, 104960, Note_on_c, 0, 77, 59
2, 104976, Note_off_c, 0, 77, 64
2, 104976, Note_on_c, 0, 79, 59
2, 104992, Note_off_c, 0, 79, 64
2, 104992, Note_on_c, 0, 77, 59
2, 105008, Note_off_c, 0, 77, 64
2, 105008, Note_on_c, 0, 79, 59
2, 105024, Note_off_c, 0, 79, 64
2, 105024, Note_on_c, 0, 77, 59
2, 105040, Note_off_c, 0, 77, 64
2, 105040, Note_on_c, 0, 79, 59
2, 105056, Note_off_c, 0, 79, 64
2, 105056, Note_on_c, 0, 77, 59
2, 105072, Note_off_c, 0, 77, 64
2, 105072, Note_on_c, 0, 79, 59
2, 105088, Note_off_c, 0, 79, 64
2, 105088, Note_on_c, 0, 77, 59
2, 105104, Note_off_c, 0, 77, 64
2, 105104, Note_on_c, 0, 79, 59
2, 105120, Note_off_c, 0, 79, 64
2, 105120, Note_on_c, 0, 77, 59
2, 105136, Note_off_c, 0, 77, 64
2, 105136, Note_on_c, 0, 79, 59
2, 105152, Note_off_c, 0, 79, 64
2, 105152, Note_on_c, 0, 77, 59
2, 105168, Note_off_c, 0, 77, 64
2, 105168, Note_on_c, 0, 79, 59
2, 105184, Note_off_c, 0, 79, 64
2, 105184, Note_on_c, 0, 77, 59
2, 105200, Note_off_c, 0, 77, 64
2, 105200, Note_on_c, 0, 79, 59
2, 105216, Note_off_c, 0, 79, 64
2, 105216, Note_on_c, 0, 77, 59
2, 105232, Note_off_c, 0, 77, 64
2, 105232, Note_on_c, 0, 79, 59
2, 105248, Note_off_c, 0, 79, 64
2, 105248, Note_on_c, 0, 77, 59
2, 105264, Note_off_c, 0, 77, 64
2, 105264, Note_on_c, 0, 79, 59
2, 105280, Note_off_c, 0, 79, 64
2, 105280, Note_on_c, 0, 77, 59
2, 105296, Note_off_c, 0, 77, 64
2, 105296, Note_on_c, 0, 79, 59
2, 105312, Note_off_c, 0, 79, 64
2, 105312, Note_on_c, 0, 77, 59
2, 105328, Note_off_c, 0, 77, 64
2, 105328, Note_on_c, 0, 79, 59
2, 105344, Note_off_c, 0, 79, 64
2, 105344, Note_on_c, 0, 77, 59
2, 105360, Note_off_c, 0, 77, 64
2, 105360, Note_on_c, 0, 79, 59
2, 105376, Note_off_c, 0, 79, 64
2, 105376, Note_on_c, 0, 77, 59
2, 105392, Note_off_c, 0, 77, 64
2, 105392, Note_on_c, 0, 79, 59
2, 105408, Note_off_c, 0, 79, 64
2, 105408, Note_on_c, 0, 77, 59
2, 105424, Note_off_c, 0, 77, 64
2, 105424, Note_on_c, 0, 79, 59
2, 105440, Note_off_c, 0, 79, 64
2, 105440, Note_on_c, 0, 77, 59
2, 105456, Note_off_c, 0, 77, 64
2, 105456, Note_on_c, 0, 79, 59
2, 105472, Note_off_c, 0, 79, 64
2, 105472, Note_on_c, 0, 77, 59
2, 105488, Note_off_c, 0, 77, 64
2, 105488, Note_on_c, 0, 79, 59
2, 105504, Note_off_c, 0, 79, 64
2, 105504, Note_on_c, 0, 77, 59
2, 105520, Note_off_c, 0, 77, 64
2, 105520, Note_on_c, 0, 79, 59
2, 105536, Note_off_c, 0, 79, 64
2, 105536, Note_on_c, 0, 77, 59
2, 105552, Note_off_c, 0, 77, 64
2, 105552, Note_on_c, 0, 79, 59
2, 105568, Note_off_c, 0, 79, 64
2, 105568, Note_on_c, 0, 77, 59
2, 105584, Note_on_c, 0, 79, 59
2, 105600, Note_off_c, 0, 79, 64
2, 105600, Note_on_c, 0, 78, 59
2, 105604, Note_off_c, 0, 77, 64
2, 105616, Note_off_c, 0, 78, 64
2, 105616, Note_on_c, 0, 79, 59
2, 105632, Note_off_c, 0, 79, 64
2, 105632, Note_on_c, 0, 78, 59
2, 105648, Note_off_c, 0, 78, 64
2, 105648, Note_on_c, 0, 79, 59
2, 105664, Note_off_c, 0, 79, 64
2, 105664, Note_on_c, 0, 78, 59
2, 105680, Note_off_c, 0, 78, 64
2, 105680, Note_on_c, 0, 79, 59
2, 105696, Note_off_c, 0, 79, 64
2, 105696, Note_on_c, 0, 78, 59
2, 105712, Note_off_c, 0, 78, 64
2, 105712, Note_on_c, 0, 79, 59
2, 105728, Note_off_c, 0, 79, 64
2, 105728, Note_on_c, 0, 78, 59
2, 105744, Note_off_c, 0, 78, 64
2, 105744, Note_on_c, 0, 79, 59
2, 105760, Note_off_c, 0, 79, 64
2, 105760, Note_on_c, 0, 78, 59
2, 105776, Note_off_c, 0, 78, 64
2, 105776, Note_on_c, 0, 79, 59
2, 105792, Note_off_c, 0, 79, 64
2, 105792, Note_on_c, 0, 78, 59
2, 105808, Note_off_c, 0, 78, 64
2, 105808, Note_on_c, 0, 79, 59
2, 105824, Note_off_c, 0, 79, 64
2, 105824, Note_on_c, 0, 78, 59
2, 105840, Note_off_c, 0, 78, 64
2, 105840, Note_on_c, 0, 79, 59
2, 105856, Note_off_c, 0, 79, 64
2, 105856, Note_on_c, 0, 78, 59
2, 105872, Note_off_c, 0, 78, 64
2, 105872, Note_on_c, 0, 79, 59
2, 105888, Note_off_c, 0, 79, 64
2, 105888, Note_on_c, 0, 78, 59
2, 105904, Note_off_c, 0, 78, 64
2, 105904, Note_on_c, 0, 79, 59
2, 105920, Note_off_c, 0, 79, 64
2, 105920, Note_on_c, 0, 78, 59
2, 105936, Note_off_c, 0, 78, 64
2, 105936, Note_on_c, 0, 79, 59
2, 105952, Note_off_c, 0, 79, 64
2, 105952, Note_on_c, 0, 78, 59
2, 105968, Note_off_c, 0, 78, 64
2, 105968, Note_on_c, 0, 79, 59
2, 105984, Note_off_c, 0, 79, 64
2, 105984, Note_on_c, 0, 78, 59
2, 106000, Note_off_c, 0, 78, 64
2, 106000, Note_on_c, 0, 79, 59
2, 106016, Note_off_c, 0, 79, 64
2, 106016, Note_on_c, 0, 78, 59
2, 106032, Note_off_c, 0, 78, 64
2, 106032, Note_on_c, 0, 79, 59
2, 106048, Note_off_c, 0, 79, 64
2, 106048, Note_on_c, 0, 78, 59
2, 106064, Note_off_c, 0, 78, 64
2, 106064, Note_on_c, 0, 79, 59
2, 106080, Note_off_c, 0, 79, 64
2, 106080, Note_on_c, 0, 78, 59
2, 106096, Note_off_c, 0, 78, 64
2, 106096, Note_on_c, 0, 79, 59
2, 106112, Note_off_c, 0, 79, 64
2, 106112, Note_on_c, 0, 78, 59
2, 106128, Note_off_c, 0, 78, 64
2, 106128, Note_on_c, 0, 79, 59
2, 106144, Note_off_c, 0, 79, 64
2, 106144, Note_on_c, 0, 78, 59
2, 106160, Note_off_c, 0, 78, 64
2, 106160, Note_on_c, 0, 79, 59
2, 106176, Note_off_c, 0, 79, 64
2, 106176, Note_on_c, 0, 78, 59
2, 106192, Note_off_c, 0, 78, 64
2, 106192, Note_on_c, 0, 79, 59
2, 106208, Note_off_c, 0, 79, 64
2, 106208, Note_on_c, 0, 78, 59
2, 106224, Note_off_c, 0, 78, 64
2, 106224, Note_on_c, 0, 79, 59
2, 106240, Note_off_c, 0, 79, 64
2, 106240, Note_on_c, 0, 78, 59
2, 106256, Note_off_c, 0, 78, 64
2, 106256, Note_on_c, 0, 79, 59
2, 106272, Note_off_c, 0, 79, 64
2, 106272, Note_on_c, 0, 78, 59
2, 106288, Note_off_c, 0, 78, 64
2, 106288, Note_on_c, 0, 79, 59
2, 106304, Note_off_c, 0, 79, 64
2, 106304, Note_on_c, 0, 78, 59
2, 106320, Note_off_c, 0, 78, 64
2, 106320, Note_on_c, 0, 79, 59
2, 106336, Note_off_c, 0, 79, 64
2, 106336, Note_on_c, 0, 78, 59
2, 106352, Note_off_c, 0, 78, 64
2, 106352, Note_on_c, 0, 79, 59
2, 106368, Note_on_c, 0, 79, 59
2, 106368, Note_on_c, 0, 76, 59
2, 106372, Note_off_c, 0, 79, 64
2, 106460, Note_off_c, 0, 79, 64
2, 106460, Note_off_c, 0, 76, 64
2, 106464, Note_on_c, 0, 79, 59
2, 106464, Note_on_c, 0, 76, 59
2, 106508, Note_off_c, 0, 79, 64
2, 106508, Note_off_c, 0, 76, 64
2, 106512, Note_on_c, 0, 81, 59
2, 106512, Note_on_c, 0, 77, 59
2, 106556, Note_off_c, 0, 81, 64
2, 106556, Note_off_c, 0, 77, 64
2, 106560, Note_on_c, 0, 77, 59
2, 106560, Note_on_c, 0, 74, 59
2, 106652, Note_off_c, 0, 77, 64
2, 106652, Note_off_c, 0, 74, 64
2, 106656, Note_on_c, 0, 77, 59
2, 106656, Note_on_c, 0, 74, 59
2, 106700, Note_off_c, 0, 77, 64
2, 106700, Note_off_c, 0, 74, 64
2, 106704, Note_on_c, 0, 79, 59
2, 106704, Note_on_c, 0, 76, 59
2, 106748, Note_off_c, 0, 79, 64
2, 106748, Note_off_c, 0, 76, 64
2, 106752, Note_on_c, 0, 76, 59
2, 106752, Note_on_c, 0, 72, 59
2, 106844, Note_off_c, 0, 76, 64
2, 106844, Note_off_c, 0, 72, 64
2, 106848, Note_on_c, 0, 76, 59
2, 106848, Note_on_c, 0, 72, 59
2, 106892, Note_off_c, 0, 76, 64
2, 106892, Note_off_c, 0, 72, 64
2, 106896, Note_on_c, 0, 77, 59
2, 106896, Note_on_c, 0, 74, 59
2, 106940, Note_off_c, 0, 77, 64
2, 106940, Note_off_c, 0, 74, 64
2, 106944, Note_on_c, 0, 74, 59
2, 106968, Note_off_c, 0, 74, 64
2, 106992, Note_on_c, 0, 72, 59
2, 107016, Note_off_c, 0, 72, 64
2, 107040, Note_on_c, 0, 71, 59
2, 107064, Note_off_c, 0, 71, 64
2, 107088, Note_on_c, 0, 67, 59
2, 107112, Note_off_c, 0, 67, 64
2, 107136, Note_on_c, 0, 76, 59
2, 107136, Note_on_c, 0, 79, 59
2, 107160, Note_off_c, 0, 76, 64
2, 107160, Note_off_c, 0, 79, 64
2, 107184, Note_on_c, 0, 67, 59
2, 107208, Note_off_c, 0, 67, 64
2, 107232, Note_on_c, 0, 79, 59
2, 107232, Note_on_c, 0, 76, 59
2, 107276, Note_off_c, 0, 79, 64
2, 107276, Note_off_c, 0, 76, 64
2, 107280, Note_on_c, 0, 81, 59
2, 107280, Note_on_c, 0, 77, 59
2, 107324, Note_off_c, 0, 81, 64
2, 107324, Note_off_c, 0, 77, 64
2, 107328, Note_on_c, 0, 77, 59
2, 107328, Note_on_c, 0, 74, 59
2, 107352, Note_off_c, 0, 77, 64
2, 107352, Note_off_c, 0, 74, 64
2, 107376, Note_on_c, 0, 67, 59
2, 107400, Note_off_c, 0, 67, 64
2, 107424, Note_on_c, 0, 77, 59
2, 107424, Note_on_c, 0, 74, 59
2, 107468, Note_off_c, 0, 77, 64
2, 107468, Note_off_c, 0, 74, 64
2, 107472, Note_on_c, 0, 79, 59
2, 107472, Note_on_c, 0, 76, 59
2, 107516, Note_off_c, 0, 79, 64
2, 107516, Note_off_c, 0, 76, 64
2, 107520, Note_on_c, 0, 76, 59
2, 107520, Note_on_c, 0, 72, 59
2, 107544, Note_off_c, 0, 76, 64
2, 107544, Note_off_c, 0, 72, 64
2, 107568, Note_on_c, 0, 67, 59
2, 107592, Note_off_c, 0, 67, 64
2, 107616, Note_on_c, 0, 76, 59
2, 107616, Note_on_c, 0, 72, 59
2, 107664, Note_off_c, 0, 76, 64
2, 107664, Note_off_c, 0, 72, 64
2, 107664, Note_on_c, 0, 77, 59
2, 107664, Note_on_c, 0, 74, 59
2, 107704, Note_off_c, 0, 77, 64
2, 107704, Note_off_c, 0, 74, 64
2, 107712, Note_on_c, 0, 74, 59
2, 107760, Note_off_c, 0, 74, 64
2, 107760, Note_on_c, 0, 72, 59
2, 107800, Note_off_c, 0, 72, 64
2, 107808, Note_on_c, 0, 71, 59
2, 107832, Note_off_c, 0, 71, 64
2, 107856, Note_on_c, 0, 64, 59
2, 107880, Note_off_c, 0, 64, 64
2, 107904, Note_on_c, 0, 76, 59
2, 107904, Note_on_c, 0, 72, 59
2, 107952, Note_off_c, 0, 76, 64
2, 107952, Note_off_c, 0, 72, 64
2, 108000, Note_on_c, 0, 76, 59
2, 108000, Note_on_c, 0, 72, 59
2, 108048, Note_off_c, 0, 76, 64
2, 108048, Note_off_c, 0, 72, 64
2, 108048, Note_on_c, 0, 77, 59
2, 108048, Note_on_c, 0, 74, 59
2, 108088, Note_off_c, 0, 77, 64
2, 108088, Note_off_c, 0, 74, 64
2, 108096, Note_on_c, 0, 74, 59
2, 108096, Note_on_c, 0, 71, 59
2, 108144, Note_off_c, 0, 74, 64
2, 108144, Note_off_c, 0, 71, 64
2, 108192, Note_on_c, 0, 74, 59
2, 108192, Note_on_c, 0, 71, 59
2, 108240, Note_off_c, 0, 74, 64
2, 108240, Note_off_c, 0, 71, 64
2, 108240, Note_on_c, 0, 76, 59
2, 108240, Note_on_c, 0, 72, 59
2, 108280, Note_off_c, 0, 76, 64
2, 108280, Note_off_c, 0, 72, 64
2, 108288, Note_on_c, 0, 72, 59
2, 108288, Note_on_c, 0, 69, 59
2, 108336, Note_off_c, 0, 72, 64
2, 108336, Note_off_c, 0, 69, 64
2, 108384, Note_on_c, 0, 72, 59
2, 108384, Note_on_c, 0, 69, 59
2, 108432, Note_off_c, 0, 72, 64
2, 108432, Note_off_c, 0, 69, 64
2, 108432, Note_on_c, 0, 74, 59
2, 108432, Note_on_c, 0, 71, 59
2, 108472, Note_off_c, 0, 74, 64
2, 108472, Note_off_c, 0, 71, 64
2, 108480, Note_on_c, 0, 71, 59
2, 108508, Note_off_c, 0, 71, 64
2, 108528, Note_on_c, 0, 69, 59
2, 108556, Note_off_c, 0, 69, 64
2, 108576, Note_on_c, 0, 68, 59
2, 108608, Note_off_c, 0, 68, 64
2, 108624, Note_on_c, 0, 64, 59
2, 108656, Note_off_c, 0, 64, 64
2, 108672, Note_on_c, 0, 72, 59
2, 108672, Note_on_c, 0, 69, 59
2, 108696, Note_off_c, 0, 72, 64
2, 108696, Note_off_c, 0, 69, 64
2, 108720, Note_on_c, 0, 60, 59
2, 108744, Note_off_c, 0, 60, 64
2, 108768, Note_on_c, 0, 72, 59
2, 108768, Note_on_c, 0, 69, 59
2, 108816, Note_off_c, 0, 72, 64
2, 108816, Note_off_c, 0, 69, 64
2, 108816, Note_on_c, 0, 74, 59
2, 108816, Note_on_c, 0, 70, 59
2, 108856, Note_off_c, 0, 74, 64
2, 108856, Note_off_c, 0, 70, 64
2, 108864, Note_on_c, 0, 70, 59
2, 108864, Note_on_c, 0, 67, 59
2, 108888, Note_off_c, 0, 70, 64
2, 108888, Note_off_c, 0, 67, 64
2, 108912, Note_on_c, 0, 60, 59
2, 108936, Note_off_c, 0, 60, 64
2, 108960, Note_on_c, 0, 70, 59
2, 108960, Note_on_c, 0, 67, 59
2, 109008, Note_off_c, 0, 70, 64
2, 109008, Note_off_c, 0, 67, 64
2, 109008, Note_on_c, 0, 72, 59
2, 109008, Note_on_c, 0, 69, 59
2, 109048, Note_off_c, 0, 72, 64
2, 109048, Note_off_c, 0, 69, 64
2, 109056, Note_on_c, 0, 69, 59
2, 109056, Note_on_c, 0, 65, 59
2, 109080, Note_off_c, 0, 69, 64
2, 109080, Note_off_c, 0, 65, 64
2, 109104, Note_on_c, 0, 60, 59
2, 109128, Note_off_c, 0, 60, 64
2, 109152, Note_on_c, 0, 69, 59
2, 109152, Note_on_c, 0, 65, 59
2, 109200, Note_off_c, 0, 69, 64
2, 109200, Note_off_c, 0, 65, 64
2, 109200, Note_on_c, 0, 70, 59
2, 109200, Note_on_c, 0, 67, 59
2, 109240, Note_off_c, 0, 70, 64
2, 109240, Note_off_c, 0, 67, 64
2, 109248, Note_on_c, 0, 69, 59
2, 109248, Note_on_c, 0, 67, 59
2, 109332, Note_off_c, 0, 69, 64
2, 109332, Note_off_c, 0, 67, 64
2, 109344, Note_on_c, 0, 72, 69
2, 109368, Note_off_c, 0, 72, 64
2, 109368, Note_on_c, 0, 74, 72
2, 109392, Note_off_c, 0, 74, 64
2, 109392, Note_on_c, 0, 76, 75
2, 109416, Note_off_c, 0, 76, 64
2, 109440, Note_on_c, 0, 62, 85
2, 109464, Note_off_c, 0, 62, 64
2, 109464, Note_on_c, 0, 77, 76
2, 109464, Note_on_c, 0, 74, 76
2, 109536, Note_off_c, 0, 77, 64
2, 109536, Note_off_c, 0, 74, 64
2, 109584, Note_on_c, 0, 79, 77
2, 109584, Note_on_c, 0, 76, 77
2, 109616, Note_off_c, 0, 79, 64
2, 109616, Note_off_c, 0, 76, 64
2, 109632, Note_on_c, 0, 76, 85
2, 109632, Note_on_c, 0, 79, 85
2, 109648, Note_off_c, 0, 79, 64
2, 109648, Note_on_c, 0, 81, 76
2, 109664, Note_off_c, 0, 81, 64
2, 109664, Note_on_c, 0, 79, 76
2, 109680, Note_off_c, 0, 79, 64
2, 109680, Note_on_c, 0, 81, 76
2, 109696, Note_off_c, 0, 81, 64
2, 109696, Note_on_c, 0, 79, 76
2, 109712, Note_off_c, 0, 79, 64
2, 109712, Note_on_c, 0, 81, 76
2, 109728, Note_off_c, 0, 81, 64
2, 109728, Note_on_c, 0, 79, 76
2, 109744, Note_off_c, 0, 79, 64
2, 109744, Note_on_c, 0, 81, 76
2, 109760, Note_off_c, 0, 81, 64
2, 109760, Note_on_c, 0, 79, 76
2, 109776, Note_off_c, 0, 79, 64
2, 109776, Note_on_c, 0, 81, 76
2, 109792, Note_off_c, 0, 81, 64
2, 109792, Note_on_c, 0, 79, 76
2, 109808, Note_off_c, 0, 79, 64
2, 109808, Note_on_c, 0, 81, 76
2, 109820, Note_off_c, 0, 76, 64
2, 109824, Note_off_c, 0, 81, 64
2, 109824, Note_on_c, 0, 77, 76
2, 109824, Note_on_c, 0, 81, 76
2, 109896, Note_off_c, 0, 77, 64
2, 109896, Note_off_c, 0, 81, 64
2, 109968, Note_on_c, 0, 79, 76
2, 109968, Note_on_c, 0, 83, 76
2, 109992, Note_off_c, 0, 79, 64
2, 109992, Note_off_c, 0, 83, 64
2, 110016, Note_on_c, 0, 79, 85
2, 110016, Note_on_c, 0, 83, 85
2, 110032, Note_off_c, 0, 83, 64
2, 110032, Note_on_c, 0, 85, 76
2, 110048, Note_off_c, 0, 85, 64
2, 110048, Note_on_c, 0, 83, 76
2, 110064, Note_off_c, 0, 83, 64
2, 110064, Note_on_c, 0, 85, 76
2, 110080, Note_off_c, 0, 85, 64
2, 110080, Note_on_c, 0, 83, 76
2, 110096, Note_off_c, 0, 83, 64
2, 110096, Note_on_c, 0, 85, 76
2, 110112, Note_off_c, 0, 85, 64
2, 110112, Note_on_c, 0, 83, 76
2, 110128, Note_off_c, 0, 83, 64
2, 110128, Note_on_c, 0, 85, 76
2, 110144, Note_off_c, 0, 85, 64
2, 110144, Note_on_c, 0, 83, 76
2, 110160, Note_off_c, 0, 83, 64
2, 110160, Note_on_c, 0, 85, 76
2, 110176, Note_off_c, 0, 85, 64
2, 110176, Note_on_c, 0, 83, 76
2, 110188, Note_on_c, 0, 85, 76
2, 110192, Note_off_c, 0, 83, 64
2, 110204, Note_off_c, 0, 79, 64
2, 110208, Note_on_c, 0, 85, 76
2, 110208, Note_on_c, 0, 69, 76
2, 110212, Note_off_c, 0, 85, 64
2, 110300, Note_off_c, 0, 85, 64
2, 110300, Note_off_c, 0, 69, 64
2, 110304, Note_on_c, 0, 57, 76
2, 110324, Note_off_c, 0, 57, 64
2, 110328, Note_on_c, 0, 59, 76
2, 110348, Note_off_c, 0, 59, 64
2, 110352, Note_on_c, 0, 57, 76
2, 110372, Note_off_c, 0, 57, 64
2, 110376, Note_on_c, 0, 59, 76
2, 110396, Note_off_c, 0, 59, 64
2, 110400, Note_on_c, 0, 61, 76
2, 110420, Note_off_c, 0, 61, 64
2, 110424, Note_on_c, 0, 62, 76
2, 110444, Note_off_c, 0, 62, 64
2, 110448, Note_on_c, 0, 61, 76
2, 110468, Note_off_c, 0, 61, 64
2, 110472, Note_on_c, 0, 64, 76
2, 110492, Note_off_c, 0, 64, 64
2, 110496, Note_on_c, 0, 69, 76
2, 110516, Note_off_c, 0, 69, 64
2, 110520, Note_on_c, 0, 71, 76
2, 110540, Note_off_c, 0, 71, 64
2, 110544, Note_on_c, 0, 69, 76
2, 110564, Note_off_c, 0, 69, 64
2, 110568, Note_on_c, 0, 71, 76
2, 110588, Note_off_c, 0, 71, 64
2, 110592, Note_on_c, 0, 73, 76
2, 110612, Note_off_c, 0, 73, 64
2, 110616, Note_on_c, 0, 74, 76
2, 110636, Note_off_c, 0, 74, 64
2, 110640, Note_on_c, 0, 73, 76
2, 110660, Note_off_c, 0, 73, 64
2, 110664, Note_on_c, 0, 76, 76
2, 110684, Note_off_c, 0, 76, 64
2, 110688, Note_on_c, 0, 81, 76
2, 110708, Note_off_c, 0, 81, 64
2, 110712, Note_on_c, 0, 83, 76
2, 110732, Note_off_c, 0, 83, 64
2, 110736, Note_on_c, 0, 81, 76
2, 110756, Note_off_c, 0, 81, 64
2, 110760, Note_on_c, 0, 83, 76
2, 110780, Note_off_c, 0, 83, 64
2, 110784, Note_on_c, 0, 85, 76
2, 110804, Note_off_c, 0, 85, 64
2, 110808, Note_on_c, 0, 88, 76
2, 110828, Note_off_c, 0, 88, 64
2, 110832, Note_on_c, 0, 85, 76
2, 110852, Note_off_c, 0, 85, 64
2, 110856, Note_on_c, 0, 88, 76
2, 110876, Note_off_c, 0, 88, 64
2, 110880, Note_on_c, 0, 93, 76
2, 110972, Note_off_c, 0, 93, 64
2, 110976, Note_on_c, 0, 57, 94
2, 111000, Note_off_c, 0, 57, 64
2, 111004, Note_on_c, 0, 73, 85
2, 111004, Note_on_c, 0, 69, 85
2, 111076, Note_off_c, 0, 73, 64
2, 111076, Note_off_c, 0, 69, 64
2, 111120, Note_on_c, 0, 75, 76
2, 111120, Note_on_c, 0, 72, 76
2, 111144, Note_off_c, 0, 75, 64
2, 111144, Note_off_c, 0, 72, 64
2, 111168, Note_on_c, 0, 72, 85
2, 111168, Note_on_c, 0, 75, 85
2, 111184, Note_off_c, 0, 75, 64
2, 111184, Note_on_c, 0, 76, 76
2, 111200, Note_off_c, 0, 76, 64
2, 111200, Note_on_c, 0, 75, 76
2, 111216, Note_off_c, 0, 75, 64
2, 111216, Note_on_c, 0, 76, 76
2, 111232, Note_off_c, 0, 76, 64
2, 111232, Note_on_c, 0, 75, 76
2, 111248, Note_off_c, 0, 75, 64
2, 111248, Note_on_c, 0, 76, 76
2, 111264, Note_off_c, 0, 76, 64
2, 111264, Note_on_c, 0, 75, 76
2, 111280, Note_off_c, 0, 75, 64
2, 111280, Note_on_c, 0, 76, 76
2, 111296, Note_off_c, 0, 76, 64
2, 111296, Note_on_c, 0, 75, 76
2, 111312, Note_off_c, 0, 75, 64
2, 111312, Note_on_c, 0, 76, 76
2, 111328, Note_off_c, 0, 76, 64
2, 111328, Note_on_c, 0, 75, 76
2, 111344, Note_off_c, 0, 75, 64
2, 111344, Note_on_c, 0, 76, 76
2, 111356, Note_off_c, 0, 72, 64
2, 111360, Note_off_c, 0, 76, 64
2, 111360, Note_on_c, 0, 76, 76
2, 111360, Note_on_c, 0, 73, 76
2, 111500, Note_off_c, 0, 76, 64
2, 111500, Note_off_c, 0, 73, 64
2, 111504, Note_on_c, 0, 78, 76
2, 111504, Note_on_c, 0, 75, 76
2, 111528, Note_off_c, 0, 78, 64
2, 111528, Note_off_c, 0, 75, 64
2, 111552, Note_on_c, 0, 75, 76
2, 111552, Note_on_c, 0, 78, 76
2, 111568, Note_off_c, 0, 78, 64
2, 111568, Note_on_c, 0, 80, 76
2, 111584, Note_off_c, 0, 80, 64
2, 111584, Note_on_c, 0, 78, 76
2, 111600, Note_off_c, 0, 78, 64
2, 111600, Note_on_c, 0, 80, 76
2, 111616, Note_off_c, 0, 80, 64
2, 111616, Note_on_c, 0, 78, 76
2, 111632, Note_off_c, 0, 78, 64
2, 111632, Note_on_c, 0, 80, 76
2, 111648, Note_off_c, 0, 80, 64
2, 111648, Note_on_c, 0, 78, 76
2, 111664, Note_off_c, 0, 78, 64
2, 111664, Note_on_c, 0, 80, 76
2, 111680, Note_off_c, 0, 80, 64
2, 111680, Note_on_c, 0, 78, 76
2, 111696, Note_off_c, 0, 78, 64
2, 111696, Note_on_c, 0, 80, 76
2, 111712, Note_off_c, 0, 80, 64
2, 111712, Note_on_c, 0, 76, 76
2, 111712, Note_on_c, 0, 73, 76
2, 111728, Note_off_c, 0, 76, 64
2, 111728, Note_off_c, 0, 73, 64
2, 111728, Note_on_c, 0, 78, 76
2, 111728, Note_on_c, 0, 75, 76
2, 111740, Note_off_c, 0, 75, 64
2, 111744, Note_off_c, 0, 78, 64
2, 111744, Note_off_c, 0, 75, 64
2, 111744, Note_on_c, 0, 80, 76
2, 111744, Note_on_c, 0, 76, 76
2, 112124, Note_off_c, 0, 80, 64
2, 112124, Note_off_c, 0, 76, 64
2, 112128, Note_on_c, 0, 78, 76
2, 112128, Note_on_c, 0, 74, 76
2, 112224, Note_off_c, 0, 78, 64
2, 112224, Note_off_c, 0, 74, 64
2, 112224, Note_on_c, 0, 66, 76
2, 112320, Note_off_c, 0, 66, 64
2, 112320, Note_on_c, 0, 78, 76
2, 112320, Note_on_c, 0, 63, 76
2, 112412, Note_off_c, 0, 78, 64
2, 112412, Note_off_c, 0, 63, 64
2, 112416, Note_on_c, 0, 74, 76
2, 112416, Note_on_c, 0, 66, 76
2, 112508, Note_off_c, 0, 74, 64
2, 112508, Note_off_c, 0, 66, 64
2, 112512, Note_on_c, 0, 56, 85
2, 112536, Note_off_c, 0, 56, 64
2, 112540, Note_on_c, 0, 64, 76
2, 112540, Note_on_c, 0, 73, 76
2, 112792, Note_off_c, 0, 64, 64
2, 112792, Note_off_c, 0, 73, 64
2, 112800, Note_on_c, 0, 75, 76
2, 112800, Note_on_c, 0, 72, 76
2, 112888, Note_off_c, 0, 75, 64
2, 112888, Note_off_c, 0, 72, 64
2, 112896, Note_on_c, 0, 72, 76
2, 112896, Note_on_c, 0, 75, 76
2, 112912, Note_off_c, 0, 75, 64
2, 112912, Note_on_c, 0, 76, 76
2, 112928, Note_off_c, 0, 76, 64
2, 112928, Note_on_c, 0, 75, 76
2, 112944, Note_off_c, 0, 75, 64
2, 112944, Note_on_c, 0, 76, 76
2, 112960, Note_off_c, 0, 76, 64
2, 112960, Note_on_c, 0, 75, 76
2, 112976, Note_off_c, 0, 75, 64
2, 112976, Note_on_c, 0, 76, 76
2, 112992, Note_off_c, 0, 76, 64
2, 112992, Note_on_c, 0, 75, 76
2, 113008, Note_off_c, 0, 75, 64
2, 113008, Note_on_c, 0, 76, 76
2, 113024, Note_off_c, 0, 76, 64
2, 113024, Note_on_c, 0, 75, 76
2, 113040, Note_off_c, 0, 75, 64
2, 113040, Note_on_c, 0, 76, 76
2, 113056, Note_off_c, 0, 76, 64
2, 113056, Note_on_c, 0, 75, 76
2, 113072, Note_off_c, 0, 75, 64
2, 113072, Note_on_c, 0, 76, 76
2, 113088, Note_off_c, 0, 76, 64
2, 113088, Note_on_c, 0, 75, 76
2, 113104, Note_off_c, 0, 75, 64
2, 113104, Note_on_c, 0, 76, 76
2, 113120, Note_off_c, 0, 76, 64
2, 113120, Note_on_c, 0, 75, 76
2, 113136, Note_off_c, 0, 75, 64
2, 113136, Note_on_c, 0, 76, 76
2, 113152, Note_off_c, 0, 76, 64
2, 113152, Note_on_c, 0, 75, 76
2, 113168, Note_off_c, 0, 75, 64
2, 113168, Note_on_c, 0, 76, 76
2, 113184, Note_off_c, 0, 76, 64
2, 113184, Note_on_c, 0, 73, 76
2, 113224, Note_off_c, 0, 73, 64
2, 113232, Note_on_c, 0, 75, 76
2, 113272, Note_off_c, 0, 75, 64
2, 113276, Note_off_c, 0, 72, 64
2, 113280, Note_on_c, 0, 76, 85
2, 113280, Note_on_c, 0, 73, 85
2, 113660, Note_off_c, 0, 76, 64
2, 113660, Note_off_c, 0, 73, 64
2, 113664, Note_on_c, 0, 58, 79
2, 113696, Note_off_c, 0, 58, 64
2, 113700, Note_on_c, 0, 67, 78
2, 113732, Note_off_c, 0, 67, 64
2, 113736, Note_on_c, 0, 76, 73
2, 113896, Note_off_c, 0, 76, 64
2, 113904, Note_on_c, 0, 74, 65
2, 113972, Note_off_c, 0, 74, 64
2, 113976, Note_on_c, 0, 73, 61
2, 114048, Note_off_c, 0, 73, 64
2, 114048, Note_on_c, 0, 59, 68
2, 114080, Note_off_c, 0, 59, 64
2, 114080, Note_on_c, 0, 66, 64
2, 114112, Note_off_c, 0, 66, 64
2, 114112, Note_on_c, 0, 74, 62
2, 114144, Note_off_c, 0, 74, 64
2, 114144, Note_on_c, 0, 73, 59
2, 114236, Note_off_c, 0, 73, 64
2, 114240, Note_on_c, 0, 74, 59
2, 114332, Note_off_c, 0, 74, 64
2, 114336, Note_on_c, 0, 83, 59
2, 114428, Note_off_c, 0, 83, 64
2, 114432, Note_on_c, 0, 65, 68
2, 114468, Note_off_c, 0, 65, 64
2, 114468, Note_on_c, 0, 56, 72
2, 114504, Note_off_c, 0, 56, 64
2, 114508, Note_on_c, 0, 74, 59
2, 114668, Note_off_c, 0, 74, 64
2, 114672, Note_on_c, 0, 73, 58
2, 114744, Note_off_c, 0, 73, 64
2, 114744, Note_on_c, 0, 71, 57
2, 114816, Note_off_c, 0, 71, 64
2, 114816, Note_on_c, 0, 64, 60
2, 114816, Note_on_c, 0, 57, 66
2, 114848, Note_off_c, 0, 64, 64
2, 114848, Note_off_c, 0, 57, 64
2, 114852, Note_on_c, 0, 73, 57
2, 114908, Note_off_c, 0, 73, 64
2, 114912, Note_on_c, 0, 71, 56
2, 115004, Note_off_c, 0, 71, 64
2, 115008, Note_on_c, 0, 73, 55
2, 115100, Note_off_c, 0, 73, 64
2, 115104, Note_on_c, 0, 81, 54
2, 115196, Note_off_c, 0, 81, 64
2, 115200, Note_on_c, 0, 63, 53
2, 115236, Note_off_c, 0, 63, 64
2, 115236, Note_on_c, 0, 73, 53
2, 115292, Note_off_c, 0, 73, 64
2, 115296, Note_on_c, 0, 71, 52
2, 115388, Note_off_c, 0, 71, 64
2, 115392, Note_on_c, 0, 73, 51
2, 115484, Note_off_c, 0, 73, 64
2, 115488, Note_on_c, 0, 69, 51
2, 115580, Note_off_c, 0, 69, 64
2, 115584, Note_on_c, 0, 64, 51
2, 115584, Note_on_c, 0, 71, 51
2, 115604, Note_off_c, 0, 64, 64
2, 115604, Note_off_c, 0, 71, 64
2, 115608, Note_on_c, 0, 69, 51
2, 115628, Note_off_c, 0, 69, 64
2, 115632, Note_on_c, 0, 75, 51
2, 115652, Note_off_c, 0, 75, 64
2, 115656, Note_on_c, 0, 80, 51
2, 115676, Note_off_c, 0, 80, 64
2, 115680, Note_on_c, 0, 71, 51
2, 115700, Note_off_c, 0, 71, 64
2, 115704, Note_on_c, 0, 69, 51
2, 115724, Note_off_c, 0, 69, 64
2, 115728, Note_on_c, 0, 71, 51
2, 115748, Note_off_c, 0, 71, 64
2, 115752, Note_on_c, 0, 68, 51
2, 115772, Note_off_c, 0, 68, 64
2, 115776, Note_on_c, 0, 69, 51
2, 115796, Note_off_c, 0, 69, 64
2, 115800, Note_on_c, 0, 68, 51
2, 115820, Note_off_c, 0, 68, 64
2, 115824, Note_on_c, 0, 69, 51
2, 115844, Note_off_c, 0, 69, 64
2, 115848, Note_on_c, 0, 78, 51
2, 115868, Note_off_c, 0, 78, 64
2, 115872, Note_on_c, 0, 69, 51
2, 115892, Note_off_c, 0, 69, 64
2, 115896, Note_on_c, 0, 68, 51
2, 115916, Note_off_c, 0, 68, 64
2, 115920, Note_on_c, 0, 69, 51
2, 115940, Note_off_c, 0, 69, 64
2, 115944, Note_on_c, 0, 66, 51
2, 115964, Note_off_c, 0, 66, 64
2, 115968, Note_on_c, 0, 64, 51
2, 115988, Note_off_c, 0, 64, 64
2, 115992, Note_on_c, 0, 63, 51
2, 116012, Note_off_c, 0, 63, 64
2, 116016, Note_on_c, 0, 64, 51
2, 116036, Note_off_c, 0, 64, 64
2, 116040, Note_on_c, 0, 68, 51
2, 116060, Note_off_c, 0, 68, 64
2, 116064, Note_on_c, 0, 63, 51
2, 116084, Note_off_c, 0, 63, 64
2, 116088, Note_on_c, 0, 62, 51
2, 116108, Note_off_c, 0, 62, 64
2, 116112, Note_on_c, 0, 63, 51
2, 116132, Note_off_c, 0, 63, 64
2, 116136, Note_on_c, 0, 68, 51
2, 116156, Note_off_c, 0, 68, 64
2, 116160, Note_on_c, 0, 61, 51
2, 116180, Note_off_c, 0, 61, 64
2, 116184, Note_on_c, 0, 60, 55
2, 116204, Note_off_c, 0, 60, 64
2, 116208, Note_on_c, 0, 61, 58
2, 116228, Note_off_c, 0, 61, 64
2, 116232, Note_on_c, 0, 64, 61
2, 116252, Note_off_c, 0, 64, 64
2, 116256, Note_on_c, 0, 60, 65
2, 116276, Note_off_c, 0, 60, 64
2, 116280, Note_on_c, 0, 58, 68
2, 116300, Note_off_c, 0, 58, 64
2, 116304, Note_on_c, 0, 60, 71
2, 116324, Note_off_c, 0, 60, 64
2, 116328, Note_on_c, 0, 64, 75
2, 116348, Note_off_c, 0, 64, 64
2, 116352, Note_on_c, 0, 58, 51
2, 116444, Note_off_c, 0, 58, 64
2, 116464, Note_on_c, 0, 64, 55
2, 116640, Note_on_c, 0, 58, 60
2, 116652, Note_off_c, 0, 64, 64
2, 116732, Note_off_c, 0, 58, 64
2, 116736, Note_on_c, 0, 57, 64
2, 116828, Note_off_c, 0, 57, 64
2, 116848, Note_on_c, 0, 64, 68
2, 117024, Note_on_c, 0, 57, 75
2, 117036, Note_off_c, 0, 64, 64
2, 117116, Note_off_c, 0, 57, 64
2, 117120, Note_on_c, 0, 56, 76
2, 117692, Note_off_c, 0, 56, 64
2, 117696, Note_on_c, 0, 68, 59
2, 117884, Note_off_c, 0, 68, 64
2, 117888, Note_on_c, 0, 61, 68
2, 117912, Note_off_c, 0, 61, 64
2, 117916, Note_on_c, 0, 66, 59
2, 117980, Note_off_c, 0, 66, 64
2, 117984, Note_on_c, 0, 64, 59
2, 118072, Note_off_c, 0, 64, 64
2, 118080, Note_on_c, 0, 57, 68
2, 118104, Note_off_c, 0, 57, 64
2, 118108, Note_on_c, 0, 69, 59
2, 118172, Note_off_c, 0, 69, 64
2, 118176, Note_on_c, 0, 66, 59
2, 118264, Note_off_c, 0, 66, 64
2, 118272, Note_on_c, 0, 64, 59
2, 118272, Note_on_c, 0, 59, 66
2, 118360, Note_off_c, 0, 64, 64
2, 118368, Note_on_c, 0, 64, 59
2, 118456, Note_off_c, 0, 64, 64
2, 118460, Note_off_c, 0, 59, 64
2, 118464, Note_on_c, 0, 71, 59
2, 118552, Note_off_c, 0, 71, 64
2, 118560, Note_on_c, 0, 68, 59
2, 118648, Note_off_c, 0, 68, 64
2, 118656, Note_on_c, 0, 61, 64
2, 118656, Note_on_c, 0, 66, 59
2, 118744, Note_off_c, 0, 66, 64
2, 118752, Note_on_c, 0, 64, 59
2, 118840, Note_off_c, 0, 64, 64
2, 118844, Note_off_c, 0, 61, 64
2, 118848, Note_on_c, 0, 64, 59
2, 119036, Note_off_c, 0, 64, 64
2, 119232, Note_on_c, 0, 80, 59
2, 119324, Note_off_c, 0, 80, 64
2, 119328, Note_on_c, 0, 76, 59
2, 119420, Note_off_c, 0, 76, 64
2, 119424, Note_on_c, 0, 57, 76
2, 119448, Note_off_c, 0, 57, 64
2, 119448, Note_on_c, 0, 64, 73
2, 119472, Note_off_c, 0, 64, 64
2, 119476, Note_on_c, 0, 75, 60
2, 119512, Note_off_c, 0, 75, 64
2, 119520, Note_on_c, 0, 73, 61
2, 119612, Note_off_c, 0, 73, 64
2, 119616, Note_on_c, 0, 81, 64
2, 119616, Note_on_c, 0, 73, 64
2, 119708, Note_off_c, 0, 81, 64
2, 119708, Note_off_c, 0, 73, 64
2, 119712, Note_on_c, 0, 78, 66
2, 119712, Note_on_c, 0, 69, 66
2, 119804, Note_off_c, 0, 78, 64
2, 119804, Note_off_c, 0, 69, 64
2, 119808, Note_on_c, 0, 59, 77
2, 119832, Note_off_c, 0, 59, 64
2, 119836, Note_on_c, 0, 66, 76
2, 119860, Note_off_c, 0, 66, 64
2, 119868, Note_on_c, 0, 76, 59
2, 119928, Note_off_c, 0, 76, 64
2, 119932, Note_on_c, 0, 75, 59
2, 119992, Note_off_c, 0, 75, 64
2, 120000, Note_on_c, 0, 83, 73
2, 120000, Note_on_c, 0, 75, 73
2, 120092, Note_off_c, 0, 83, 64
2, 120092, Note_off_c, 0, 75, 64
2, 120096, Note_on_c, 0, 80, 76
2, 120096, Note_on_c, 0, 71, 76
2, 120188, Note_off_c, 0, 80, 64
2, 120188, Note_off_c, 0, 71, 64
2, 120192, Note_on_c, 0, 61, 76
2, 120216, Note_off_c, 0, 61, 64
2, 120216, Note_on_c, 0, 68, 73
2, 120240, Note_off_c, 0, 68, 64
2, 120244, Note_on_c, 0, 73, 60
2, 120244, Note_on_c, 0, 78, 60
2, 120284, Note_off_c, 0, 73, 64
2, 120284, Note_off_c, 0, 78, 64
2, 120288, Note_on_c, 0, 76, 61
2, 120288, Note_on_c, 0, 73, 61
2, 120380, Note_off_c, 0, 76, 64
2, 120380, Note_off_c, 0, 73, 64
2, 120384, Note_on_c, 0, 88, 66
2, 120764, Note_off_c, 0, 88, 64
2, 120768, Note_on_c, 0, 82, 73
2, 120768, Note_on_c, 0, 73, 73
2, 120956, Note_off_c, 0, 82, 64
2, 120956, Note_off_c, 0, 73, 64
2, 120960, Note_on_c, 0, 71, 59
2, 120960, Note_on_c, 0, 83, 61
2, 121244, Note_off_c, 0, 83, 64
2, 121248, Note_on_c, 0, 80, 62
2, 121340, Note_off_c, 0, 71, 64
2, 121340, Note_off_c, 0, 80, 64
2, 121344, Note_on_c, 0, 71, 64
2, 121344, Note_on_c, 0, 81, 64
2, 121388, Note_off_c, 0, 81, 64
2, 121392, Note_on_c, 0, 80, 64
2, 121436, Note_off_c, 0, 80, 64
2, 121440, Note_on_c, 0, 83, 65
2, 121484, Note_off_c, 0, 83, 64
2, 121488, Note_on_c, 0, 80, 66
2, 121532, Note_off_c, 0, 80, 64
2, 121536, Note_on_c, 0, 83, 66
2, 121580, Note_off_c, 0, 83, 64
2, 121584, Note_on_c, 0, 80, 67
2, 121628, Note_off_c, 0, 80, 64
2, 121632, Note_on_c, 0, 83, 68
2, 121676, Note_off_c, 0, 83, 64
2, 121680, Note_on_c, 0, 80, 68
2, 121724, Note_off_c, 0, 71, 64
2, 121724, Note_off_c, 0, 80, 64
2, 121728, Note_on_c, 0, 73, 68
2, 121728, Note_on_c, 0, 83, 68
2, 121820, Note_off_c, 0, 83, 64
2, 121824, Note_on_c, 0, 80, 69
2, 121916, Note_off_c, 0, 73, 64
2, 121916, Note_off_c, 0, 80, 64
2, 121920, Note_on_c, 0, 88, 71
2, 122012, Note_off_c, 0, 88, 64
2, 122016, Note_on_c, 0, 83, 72
2, 122108, Note_off_c, 0, 83, 64
2, 122112, Note_on_c, 0, 83, 73
2, 122204, Note_off_c, 0, 83, 64
2, 122208, Note_on_c, 0, 80, 75
2, 122300, Note_off_c, 0, 80, 64
2, 122304, Note_on_c, 0, 80, 77
2, 122304, Note_on_c, 0, 71, 77
2, 122336, Note_off_c, 0, 80, 64
2, 122336, Note_off_c, 0, 71, 64
2, 122352, Note_on_c, 0, 76, 79
2, 122352, Note_on_c, 0, 68, 79
2, 122384, Note_off_c, 0, 76, 64
2, 122384, Note_off_c, 0, 68, 64
2, 122400, Note_on_c, 0, 71, 81
2, 122400, Note_on_c, 0, 64, 81
2, 122432, Note_off_c, 0, 71, 64
2, 122432, Note_off_c, 0, 64, 64
2, 122448, Note_on_c, 0, 68, 83
2, 122448, Note_on_c, 0, 59, 83
2, 122480, Note_off_c, 0, 68, 64
2, 122480, Note_off_c, 0, 59, 64
2, 122496, Note_on_c, 0, 59, 85
2, 122496, Note_on_c, 0, 66, 85
2, 122512, Note_off_c, 0, 66, 64
2, 122512, Note_on_c, 0, 68, 76
2, 122528, Note_off_c, 0, 68, 64
2, 122528, Note_on_c, 0, 66, 76
2, 122544, Note_off_c, 0, 66, 64
2, 122544, Note_on_c, 0, 68, 76
2, 122560, Note_off_c, 0, 68, 64
2, 122560, Note_on_c, 0, 66, 76
2, 122576, Note_off_c, 0, 66, 64
2, 122576, Note_on_c, 0, 68, 76
2, 122592, Note_off_c, 0, 68, 64
2, 122592, Note_on_c, 0, 66, 76
2, 122608, Note_off_c, 0, 66, 64
2, 122608, Note_on_c, 0, 68, 76
2, 122624, Note_off_c, 0, 68, 64
2, 122624, Note_on_c, 0, 66, 76
2, 122640, Note_off_c, 0, 66, 64
2, 122640, Note_on_c, 0, 68, 76
2, 122656, Note_off_c, 0, 68, 64
2, 122656, Note_on_c, 0, 66, 76
2, 122672, Note_off_c, 0, 66, 64
2, 122672, Note_on_c, 0, 68, 76
2, 122688, Note_off_c, 0, 68, 64
2, 122688, Note_on_c, 0, 66, 76
2, 122704, Note_off_c, 0, 66, 64
2, 122704, Note_on_c, 0, 68, 76
2, 122720, Note_off_c, 0, 68, 64
2, 122720, Note_on_c, 0, 66, 76
2, 122736, Note_off_c, 0, 66, 64
2, 122736, Note_on_c, 0, 68, 76
2, 122752, Note_off_c, 0, 68, 64
2, 122752, Note_on_c, 0, 66, 76
2, 122768, Note_off_c, 0, 66, 64
2, 122768, Note_on_c, 0, 68, 76
2, 122784, Note_off_c, 0, 68, 64
2, 122784, Note_on_c, 0, 66, 76
2, 122800, Note_off_c, 0, 66, 64
2, 122800, Note_on_c, 0, 68, 76
2, 122816, Note_off_c, 0, 68, 64
2, 122816, Note_on_c, 0, 66, 76
2, 122832, Note_off_c, 0, 66, 64
2, 122832, Note_on_c, 0, 68, 76
2, 122848, Note_off_c, 0, 68, 64
2, 122848, Note_on_c, 0, 66, 76
2, 122864, Note_off_c, 0, 66, 64
2, 122876, Note_off_c, 0, 59, 64
2, 122880, Note_on_c, 0, 71, 85
2, 122880, Note_on_c, 0, 78, 85
2, 122896, Note_off_c, 0, 78, 64
2, 122896, Note_on_c, 0, 80, 76
2, 122912, Note_off_c, 0, 80, 64
2, 122912, Note_on_c, 0, 78, 76
2, 122928, Note_off_c, 0, 78, 64
2, 122928, Note_on_c, 0, 80, 76
2, 122944, Note_off_c, 0, 80, 64
2, 122944, Note_on_c, 0, 78, 76
2, 122960, Note_off_c, 0, 78, 64
2, 122960, Note_on_c, 0, 80, 76
2, 122976, Note_off_c, 0, 80, 64
2, 122976, Note_on_c, 0, 78, 76
2, 122992, Note_off_c, 0, 78, 64
2, 122992, Note_on_c, 0, 80, 76
2, 123008, Note_off_c, 0, 80, 64
2, 123008, Note_on_c, 0, 78, 76
2, 123024, Note_off_c, 0, 78, 64
2, 123024, Note_on_c, 0, 80, 76
2, 123040, Note_off_c, 0, 80, 64
2, 123040, Note_on_c, 0, 78, 76
2, 123056, Note_off_c, 0, 78, 64
2, 123056, Note_on_c, 0, 80, 76
2, 123072, Note_off_c, 0, 80, 64
2, 123072, Note_on_c, 0, 76, 76
2, 123132, Note_off_c, 0, 76, 64
2, 123136, Note_on_c, 0, 80, 76
2, 123196, Note_off_c, 0, 80, 64
2, 123200, Note_on_c, 0, 78, 76
2, 123260, Note_off_c, 0, 71, 64
2, 123260, Note_off_c, 0, 78, 64
2, 123264, Note_on_c, 0, 76, 72
2, 123264, Note_on_c, 0, 71, 72
2, 123264, Note_on_c, 0, 64, 72
2, 123548, Note_off_c, 0, 76, 64
2, 123548, Note_off_c, 0, 71, 64
2, 123548, Note_off_c, 0, 64, 64
2, 123548, End_track
3, 0, Start_track
3, 0, Title_t, "#5 - K219b  Midi by:"
3, 0, Control_c, 1, 0, 0
3, 0, Program_c, 1, 48
3, 0, Control_c, 1, 10, 42
3, 0, Control_c, 1, 91, 63
3, 0, Control_c, 1, 93, 0
3, 0, Key_signature, 4, "major"
3, 0, Control_c, 1, 121, 0
3, 12, Control_c, 1, 10, 53
3, 16, Control_c, 1, 91, 63
3, 24, Program_c, 1, 48
3, 576, Note_on_c, 1, 71, 67
3, 764, Note_off_c, 1, 71, 64
3, 768, Note_on_c, 1, 69, 67
3, 860, Note_off_c, 1, 69, 64
3, 864, Note_on_c, 1, 68, 67
3, 956, Note_off_c, 1, 68, 64
3, 960, Note_on_c, 1, 73, 67
3, 1052, Note_off_c, 1, 73, 64
3, 1056, Note_on_c, 1, 69, 67
3, 1148, Note_off_c, 1, 69, 64
3, 1152, Note_on_c, 1, 68, 67
3, 1244, Note_off_c, 1, 68, 64
3, 1248, Note_on_c, 1, 66, 67
3, 1340, Note_off_c, 1, 66, 64
3, 1344, Note_on_c, 1, 71, 67
3, 1436, Note_off_c, 1, 71, 64
3, 1440, Note_on_c, 1, 68, 67
3, 1532, Note_off_c, 1, 68, 64
3, 1536, Note_on_c, 1, 66, 67
3, 1628, Note_off_c, 1, 66, 64
3, 1632, Note_on_c, 1, 64, 67
3, 1724, Note_off_c, 1, 64, 64
3, 1728, Note_on_c, 1, 61, 86
3, 1728, Note_on_c, 1, 69, 86
3, 1912, Note_off_c, 1, 61, 64
3, 1920, Note_on_c, 1, 63, 77
3, 2096, Note_on_c, 1, 64, 68
3, 2100, Note_off_c, 1, 63, 64
3, 2108, Note_off_c, 1, 69, 64
3, 2112, Note_on_c, 1, 68, 67
3, 2276, Note_off_c, 1, 64, 64
3, 2292, Note_off_c, 1, 68, 64
3, 2304, Note_on_c, 1, 73, 67
3, 2396, Note_off_c, 1, 73, 64
3, 2400, Note_on_c, 1, 71, 67
3, 2492, Note_off_c, 1, 71, 64
3, 2496, Note_on_c, 1, 73, 67
3, 2496, Note_on_c, 1, 64, 67
3, 2588, Note_off_c, 1, 73, 64
3, 2588, Note_off_c, 1, 64, 64
3, 2592, Note_on_c, 1, 75, 67
3, 2592, Note_on_c, 1, 66, 67
3, 2684, Note_off_c, 1, 75, 64
3, 2684, Note_off_c, 1, 66, 64
3, 2688, Note_on_c, 1, 76, 67
3, 2688, Note_on_c, 1, 68, 67
3, 2780, Note_off_c, 1, 76, 64
3, 2780, Note_off_c, 1, 68, 64
3, 2784, Note_on_c, 1, 78, 67
3, 2784, Note_on_c, 1, 69, 67
3, 2876, Note_off_c, 1, 78, 64
3, 2876, Note_off_c, 1, 69, 64
3, 2880, Note_on_c, 1, 80, 67
3, 2880, Note_on_c, 1, 71, 67
3, 2972, Note_off_c, 1, 80, 64
3, 2972, Note_off_c, 1, 71, 64
3, 2976, Note_on_c, 1, 76, 67
3, 2976, Note_on_c, 1, 68, 67
3, 3068, Note_off_c, 1, 76, 64
3, 3068, Note_off_c, 1, 68, 64
3, 3072, Note_on_c, 1, 61, 67
3, 3072, Note_on_c, 1, 71, 67
3, 3164, Note_off_c, 1, 61, 64
3, 3168, Note_on_c, 1, 64, 67
3, 3260, Note_off_c, 1, 64, 64
3, 3264, Note_on_c, 1, 63, 67
3, 3356, Note_off_c, 1, 71, 64
3, 3356, Note_off_c, 1, 63, 64
3, 3360, Note_on_c, 1, 66, 67
3, 3360, Note_on_c, 1, 69, 67
3, 3452, Note_off_c, 1, 66, 64
3, 3452, Note_off_c, 1, 69, 64
3, 3456, Note_on_c, 1, 68, 67
3, 3456, Note_on_c, 1, 64, 67
3, 3588, Note_off_c, 1, 68, 64
3, 3588, Note_off_c, 1, 64, 64
3, 3648, Note_on_c, 1, 71, 67
3, 3832, Note_off_c, 1, 71, 64
3, 3840, Note_on_c, 1, 69, 67
3, 3932, Note_off_c, 1, 69, 64
3, 3936, Note_on_c, 1, 68, 67
3, 4028, Note_off_c, 1, 68, 64
3, 4032, Note_on_c, 1, 73, 67
3, 4124, Note_off_c, 1, 73, 64
3, 4128, Note_on_c, 1, 69, 67
3, 4220, Note_off_c, 1, 69, 64
3, 4224, Note_on_c, 1, 68, 67
3, 4316, Note_off_c, 1, 68, 64
3, 4320, Note_on_c, 1, 66, 67
3, 4412, Note_off_c, 1, 66, 64
3, 4416, Note_on_c, 1, 71, 67
3, 4508, Note_off_c, 1, 71, 64
3, 4512, Note_on_c, 1, 68, 67
3, 4604, Note_off_c, 1, 68, 64
3, 4608, Note_on_c, 1, 66, 67
3, 4700, Note_off_c, 1, 66, 64
3, 4704, Note_on_c, 1, 64, 67
3, 4796, Note_off_c, 1, 64, 64
3, 4800, Note_on_c, 1, 71, 86
3, 4800, Note_on_c, 1, 73, 86
3, 4988, Note_off_c, 1, 71, 64
3, 4992, Note_on_c, 1, 70, 77
3, 5180, Note_off_c, 1, 73, 64
3, 5180, Note_off_c, 1, 70, 64
3, 5184, Note_on_c, 1, 69, 68
3, 5184, Note_on_c, 1, 75, 68
3, 5372, Note_off_c, 1, 69, 64
3, 5372, Note_off_c, 1, 75, 64
3, 5376, Note_on_c, 1, 76, 67
3, 5376, Note_on_c, 1, 68, 67
3, 5468, Note_off_c, 1, 76, 64
3, 5472, Note_on_c, 1, 80, 67
3, 5564, Note_off_c, 1, 68, 64
3, 5564, Note_off_c, 1, 80, 64
3, 5664, Note_on_c, 1, 71, 67
3, 5756, Note_off_c, 1, 71, 64
3, 5760, Note_on_c, 1, 72, 67
3, 5852, Note_off_c, 1, 72, 64
3, 5856, Note_on_c, 1, 73, 67
3, 5948, Note_off_c, 1, 73, 64
3, 6048, Note_on_c, 1, 69, 76
3, 6048, Note_on_c, 1, 66, 76
3, 6140, Note_off_c, 1, 69, 64
3, 6140, Note_off_c, 1, 66, 64
3, 6144, Note_on_c, 1, 68, 76
3, 6144, Note_on_c, 1, 64, 76
3, 6524, Note_off_c, 1, 68, 64
3, 6524, Note_off_c, 1, 64, 64
3, 6528, Note_on_c, 1, 66, 76
3, 6528, Note_on_c, 1, 63, 76
3, 6660, Note_off_c, 1, 66, 64
3, 6660, Note_off_c, 1, 63, 64
3, 6720, Note_on_c, 1, 83, 67
3, 6812, Note_off_c, 1, 83, 64
3, 6816, Note_on_c, 1, 75, 67
3, 6908, Note_off_c, 1, 75, 64
3, 6912, Note_on_c, 1, 76, 86
3, 6956, Note_off_c, 1, 76, 64
3, 6960, Note_on_c, 1, 78, 86
3, 7004, Note_off_c, 1, 78, 64
3, 7008, Note_on_c, 1, 80, 86
3, 7052, Note_off_c, 1, 80, 64
3, 7056, Note_on_c, 1, 78, 86
3, 7100, Note_off_c, 1, 78, 64
3, 7104, Note_on_c, 1, 76, 67
3, 7196, Note_off_c, 1, 76, 64
3, 7200, Note_on_c, 1, 75, 67
3, 7292, Note_off_c, 1, 75, 64
3, 7296, Note_on_c, 1, 73, 86
3, 7340, Note_off_c, 1, 73, 64
3, 7344, Note_on_c, 1, 75, 86
3, 7388, Note_off_c, 1, 75, 64
3, 7392, Note_on_c, 1, 76, 86
3, 7436, Note_off_c, 1, 76, 64
3, 7440, Note_on_c, 1, 75, 85
3, 7484, Note_off_c, 1, 75, 64
3, 7488, Note_on_c, 1, 73, 67
3, 7580, Note_off_c, 1, 73, 64
3, 7584, Note_on_c, 1, 71, 67
3, 7676, Note_off_c, 1, 71, 64
3, 7680, Note_on_c, 1, 69, 86
3, 7680, Note_on_c, 1, 66, 86
3, 7724, Note_off_c, 1, 69, 64
3, 7724, Note_off_c, 1, 66, 64
3, 7728, Note_on_c, 1, 71, 86
3, 7728, Note_on_c, 1, 68, 86
3, 7772, Note_off_c, 1, 71, 64
3, 7772, Note_off_c, 1, 68, 64
3, 7776, Note_on_c, 1, 73, 86
3, 7776, Note_on_c, 1, 69, 86
3, 7820, Note_off_c, 1, 73, 64
3, 7820, Note_off_c, 1, 69, 64
3, 7824, Note_on_c, 1, 71, 86
3, 7824, Note_on_c, 1, 68, 86
3, 7868, Note_off_c, 1, 71, 64
3, 7868, Note_off_c, 1, 68, 64
3, 7872, Note_on_c, 1, 66, 86
3, 7872, Note_on_c, 1, 69, 86
3, 7916, Note_off_c, 1, 66, 64
3, 7920, Note_on_c, 1, 68, 86
3, 7964, Note_off_c, 1, 68, 64
3, 7968, Note_on_c, 1, 66, 86
3, 8012, Note_off_c, 1, 66, 64
3, 8016, Note_on_c, 1, 64, 86
3, 8060, Note_off_c, 1, 64, 64
3, 8064, Note_on_c, 1, 63, 86
3, 8156, Note_off_c, 1, 69, 64
3, 8156, Note_off_c, 1, 63, 64
3, 8160, Note_on_c, 1, 70, 86
3, 8252, Note_off_c, 1, 70, 64
3, 8256, Note_on_c, 1, 70, 86
3, 8348, Note_off_c, 1, 70, 64
3, 8352, Note_on_c, 1, 71, 86
3, 8444, Note_off_c, 1, 71, 64
3, 8448, Note_on_c, 1, 71, 67
3, 8588, Note_off_c, 1, 71, 64
3, 8592, Note_on_c, 1, 73, 67
3, 8636, Note_off_c, 1, 73, 64
3, 8640, Note_on_c, 1, 69, 67
3, 8640, Note_on_c, 1, 63, 67
3, 8780, Note_off_c, 1, 69, 64
3, 8784, Note_on_c, 1, 71, 67
3, 8828, Note_off_c, 1, 63, 64
3, 8828, Note_off_c, 1, 71, 64
3, 8832, Note_on_c, 1, 68, 67
3, 8832, Note_on_c, 1, 64, 67
3, 8972, Note_off_c, 1, 68, 64
3, 8976, Note_on_c, 1, 69, 67
3, 9020, Note_off_c, 1, 64, 64
3, 9020, Note_off_c, 1, 69, 64
3, 9024, Note_on_c, 1, 66, 67
3, 9068, Note_off_c, 1, 66, 64
3, 9072, Note_on_c, 1, 64, 67
3, 9116, Note_off_c, 1, 64, 64
3, 9120, Note_on_c, 1, 63, 67
3, 9164, Note_off_c, 1, 63, 64
3, 9168, Note_on_c, 1, 59, 67
3, 9212, Note_off_c, 1, 59, 64
3, 9216, Note_on_c, 1, 71, 67
3, 9216, Note_on_c, 1, 83, 70
3, 9260, Note_off_c, 1, 71, 64
3, 9312, Note_on_c, 1, 71, 67
3, 9356, Note_off_c, 1, 71, 64
3, 9360, Note_on_c, 1, 73, 67
3, 9404, Note_off_c, 1, 83, 64
3, 9404, Note_off_c, 1, 73, 64
3, 9408, Note_on_c, 1, 69, 67
3, 9408, Note_on_c, 1, 81, 69
3, 9452, Note_off_c, 1, 69, 64
3, 9504, Note_on_c, 1, 69, 67
3, 9548, Note_off_c, 1, 69, 64
3, 9552, Note_on_c, 1, 71, 67
3, 9596, Note_off_c, 1, 81, 64
3, 9596, Note_off_c, 1, 71, 64
3, 9600, Note_on_c, 1, 80, 68
3, 9600, Note_on_c, 1, 68, 67
3, 9644, Note_off_c, 1, 68, 64
3, 9696, Note_on_c, 1, 68, 67
3, 9740, Note_off_c, 1, 68, 64
3, 9744, Note_on_c, 1, 69, 67
3, 9788, Note_off_c, 1, 80, 64
3, 9788, Note_off_c, 1, 69, 64
3, 9792, Note_on_c, 1, 66, 67
3, 9792, Note_on_c, 1, 78, 67
3, 9836, Note_off_c, 1, 66, 64
3, 9840, Note_on_c, 1, 64, 67
3, 9884, Note_off_c, 1, 64, 64
3, 9888, Note_on_c, 1, 63, 67
3, 9932, Note_off_c, 1, 63, 64
3, 9936, Note_on_c, 1, 59, 67
3, 9980, Note_off_c, 1, 78, 64
3, 9980, Note_off_c, 1, 59, 64
3, 9984, Note_on_c, 1, 71, 86
3, 10028, Note_off_c, 1, 71, 64
3, 10032, Note_on_c, 1, 73, 67
3, 10076, Note_off_c, 1, 73, 64
3, 10080, Note_on_c, 1, 75, 67
3, 10124, Note_off_c, 1, 75, 64
3, 10128, Note_on_c, 1, 76, 67
3, 10172, Note_off_c, 1, 76, 64
3, 10176, Note_on_c, 1, 75, 67
3, 10220, Note_off_c, 1, 75, 64
3, 10224, Note_on_c, 1, 73, 67
3, 10268, Note_off_c, 1, 73, 64
3, 10272, Note_on_c, 1, 71, 67
3, 10316, Note_off_c, 1, 71, 64
3, 10320, Note_on_c, 1, 69, 67
3, 10364, Note_off_c, 1, 69, 64
3, 10368, Note_on_c, 1, 68, 86
3, 10412, Note_off_c, 1, 68, 64
3, 10416, Note_on_c, 1, 69, 67
3, 10460, Note_off_c, 1, 69, 64
3, 10464, Note_on_c, 1, 71, 67
3, 10508, Note_off_c, 1, 71, 64
3, 10512, Note_on_c, 1, 73, 67
3, 10556, Note_off_c, 1, 73, 64
3, 10560, Note_on_c, 1, 71, 67
3, 10604, Note_off_c, 1, 71, 64
3, 10608, Note_on_c, 1, 69, 67
3, 10652, Note_off_c, 1, 69, 64
3, 10656, Note_on_c, 1, 68, 67
3, 10700, Note_off_c, 1, 68, 64
3, 10704, Note_on_c, 1, 66, 67
3, 10748, Note_off_c, 1, 66, 64
3, 10752, Note_on_c, 1, 80, 86
3, 10848, Note_on_c, 1, 71, 86
3, 10940, Note_off_c, 1, 71, 64
3, 10944, Note_on_c, 1, 71, 86
3, 11036, Note_off_c, 1, 71, 64
3, 11040, Note_on_c, 1, 71, 86
3, 11132, Note_off_c, 1, 80, 64
3, 11132, Note_off_c, 1, 71, 64
3, 11136, Note_on_c, 1, 71, 86
3, 11136, Note_on_c, 1, 81, 91
3, 11160, Note_off_c, 1, 81, 64
3, 11160, Note_on_c, 1, 80, 86
3, 11184, Note_off_c, 1, 80, 64
3, 11184, Note_on_c, 1, 78, 86
3, 11208, Note_off_c, 1, 78, 64
3, 11208, Note_on_c, 1, 76, 86
3, 11232, Note_off_c, 1, 76, 64
3, 11232, Note_on_c, 1, 75, 86
3, 11280, Note_off_c, 1, 75, 64
3, 11324, Note_off_c, 1, 71, 64
3, 11600, Note_on_c, 1, 76, 67
3, 11616, Note_on_c, 1, 71, 67
3, 11708, Note_off_c, 1, 71, 64
3, 11712, Note_on_c, 1, 73, 67
3, 11788, Note_off_c, 1, 76, 64
3, 11804, Note_off_c, 1, 73, 64
3, 11808, Note_on_c, 1, 69, 67
3, 11808, Note_on_c, 1, 73, 67
3, 11900, Note_off_c, 1, 69, 64
3, 11904, Note_on_c, 1, 67, 67
3, 11996, Note_off_c, 1, 73, 64
3, 11996, Note_off_c, 1, 67, 64
3, 12000, Note_on_c, 1, 68, 67
3, 12000, Note_on_c, 1, 71, 67
3, 12092, Note_off_c, 1, 68, 64
3, 12096, Note_on_c, 1, 69, 67
3, 12188, Note_off_c, 1, 71, 64
3, 12188, Note_off_c, 1, 69, 64
3, 12192, Note_on_c, 1, 63, 67
3, 12192, Note_on_c, 1, 66, 67
3, 12284, Note_off_c, 1, 63, 64
3, 12284, Note_off_c, 1, 66, 64
3, 12288, Note_on_c, 1, 80, 86
3, 12384, Note_on_c, 1, 71, 86
3, 12476, Note_off_c, 1, 71, 64
3, 12480, Note_on_c, 1, 71, 86
3, 12572, Note_off_c, 1, 71, 64
3, 12576, Note_on_c, 1, 71, 86
3, 12668, Note_off_c, 1, 80, 64
3, 12668, Note_off_c, 1, 71, 64
3, 12672, Note_on_c, 1, 71, 86
3, 12672, Note_on_c, 1, 81, 86
3, 12696, Note_off_c, 1, 81, 64
3, 12696, Note_on_c, 1, 80, 86
3, 12720, Note_off_c, 1, 80, 64
3, 12720, Note_on_c, 1, 78, 86
3, 12744, Note_on_c, 1, 76, 86
3, 12748, Note_off_c, 1, 78, 64
3, 12764, Note_off_c, 1, 76, 64
3, 12768, Note_on_c, 1, 75, 86
3, 12816, Note_off_c, 1, 75, 64
3, 12860, Note_off_c, 1, 71, 64
3, 13056, Note_on_c, 1, 76, 67
3, 13100, Note_off_c, 1, 76, 64
3, 13104, Note_on_c, 1, 75, 67
3, 13148, Note_off_c, 1, 75, 64
3, 13152, Note_on_c, 1, 76, 67
3, 13196, Note_off_c, 1, 76, 64
3, 13200, Note_on_c, 1, 75, 67
3, 13244, Note_off_c, 1, 75, 64
3, 13248, Note_on_c, 1, 76, 67
3, 13292, Note_off_c, 1, 76, 64
3, 13296, Note_on_c, 1, 75, 67
3, 13340, Note_off_c, 1, 75, 64
3, 13344, Note_on_c, 1, 76, 67
3, 13388, Note_off_c, 1, 76, 64
3, 13392, Note_on_c, 1, 75, 67
3, 13436, Note_off_c, 1, 75, 64
3, 13440, Note_on_c, 1, 76, 67
3, 13532, Note_off_c, 1, 76, 64
3, 13536, Note_on_c, 1, 74, 67
3, 13628, Note_off_c, 1, 74, 64
3, 13632, Note_on_c, 1, 73, 67
3, 13724, Note_off_c, 1, 73, 64
3, 13728, Note_on_c, 1, 72, 67
3, 13820, Note_off_c, 1, 72, 64
3, 13824, Note_on_c, 1, 73, 67
3, 13868, Note_off_c, 1, 73, 64
3, 13872, Note_on_c, 1, 72, 67
3, 13916, Note_off_c, 1, 72, 64
3, 13920, Note_on_c, 1, 73, 67
3, 13964, Note_off_c, 1, 73, 64
3, 13968, Note_on_c, 1, 72, 67
3, 14012, Note_off_c, 1, 72, 64
3, 14016, Note_on_c, 1, 73, 67
3, 14060, Note_off_c, 1, 73, 64
3, 14064, Note_on_c, 1, 72, 67
3, 14108, Note_off_c, 1, 72, 64
3, 14112, Note_on_c, 1, 73, 67
3, 14156, Note_off_c, 1, 73, 64
3, 14160, Note_on_c, 1, 72, 67
3, 14204, Note_off_c, 1, 72, 64
3, 14208, Note_on_c, 1, 73, 67
3, 14300, Note_off_c, 1, 73, 64
3, 14304, Note_on_c, 1, 75, 67
3, 14396, Note_off_c, 1, 75, 64
3, 14400, Note_on_c, 1, 76, 67
3, 14480, Note_on_c, 1, 73, 67
3, 14492, Note_off_c, 1, 76, 64
3, 14496, Note_on_c, 1, 69, 67
3, 14572, Note_off_c, 1, 73, 64
3, 14588, Note_off_c, 1, 69, 64
3, 14592, Note_on_c, 1, 71, 86
3, 14592, Note_on_c, 1, 68, 86
3, 14636, Note_off_c, 1, 71, 64
3, 14636, Note_off_c, 1, 68, 64
3, 14640, Note_on_c, 1, 70, 86
3, 14640, Note_on_c, 1, 67, 86
3, 14684, Note_off_c, 1, 70, 64
3, 14684, Note_off_c, 1, 67, 64
3, 14688, Note_on_c, 1, 71, 86
3, 14688, Note_on_c, 1, 68, 86
3, 14732, Note_off_c, 1, 71, 64
3, 14732, Note_off_c, 1, 68, 64
3, 14736, Note_on_c, 1, 70, 86
3, 14736, Note_on_c, 1, 67, 86
3, 14780, Note_off_c, 1, 70, 64
3, 14780, Note_off_c, 1, 67, 64
3, 14784, Note_on_c, 1, 71, 86
3, 14784, Note_on_c, 1, 68, 86
3, 14828, Note_off_c, 1, 71, 64
3, 14828, Note_off_c, 1, 68, 64
3, 14832, Note_on_c, 1, 70, 86
3, 14832, Note_on_c, 1, 67, 86
3, 14876, Note_off_c, 1, 70, 64
3, 14876, Note_off_c, 1, 67, 64
3, 14880, Note_on_c, 1, 71, 86
3, 14880, Note_on_c, 1, 68, 86
3, 14924, Note_off_c, 1, 71, 64
3, 14924, Note_off_c, 1, 68, 64
3, 14928, Note_on_c, 1, 70, 86
3, 14928, Note_on_c, 1, 67, 86
3, 14972, Note_off_c, 1, 70, 64
3, 14972, Note_off_c, 1, 67, 64
3, 14976, Note_on_c, 1, 71, 86
3, 14976, Note_on_c, 1, 68, 86
3, 15068, Note_off_c, 1, 71, 64
3, 15068, Note_off_c, 1, 68, 64
3, 15072, Note_on_c, 1, 69, 86
3, 15072, Note_on_c, 1, 66, 86
3, 15164, Note_off_c, 1, 69, 64
3, 15164, Note_off_c, 1, 66, 64
3, 15168, Note_on_c, 1, 68, 86
3, 15168, Note_on_c, 1, 64, 86
3, 15260, Note_off_c, 1, 68, 64
3, 15260, Note_off_c, 1, 64, 64
3, 15264, Note_on_c, 1, 66, 86
3, 15264, Note_on_c, 1, 63, 86
3, 15356, Note_off_c, 1, 66, 64
3, 15356, Note_off_c, 1, 63, 64
3, 15360, Note_on_c, 1, 64, 67
3, 15452, Note_off_c, 1, 64, 64
3, 15456, Note_on_c, 1, 75, 67
3, 15496, Note_off_c, 1, 75, 64
3, 15504, Note_on_c, 1, 76, 71
3, 15544, Note_off_c, 1, 76, 64
3, 15648, Note_on_c, 1, 76, 71
3, 15648, Note_on_c, 1, 73, 71
3, 15688, Note_off_c, 1, 76, 64
3, 15688, Note_off_c, 1, 73, 64
3, 15696, Note_on_c, 1, 73, 67
3, 15696, Note_on_c, 1, 69, 67
3, 15736, Note_off_c, 1, 73, 64
3, 15736, Note_off_c, 1, 69, 64
3, 15840, Note_on_c, 1, 70, 67
3, 15840, Note_on_c, 1, 67, 67
3, 15880, Note_off_c, 1, 70, 64
3, 15880, Note_off_c, 1, 67, 64
3, 15888, Note_on_c, 1, 71, 71
3, 15888, Note_on_c, 1, 68, 71
3, 15928, Note_off_c, 1, 71, 64
3, 15928, Note_off_c, 1, 68, 64
3, 16032, Note_on_c, 1, 69, 71
3, 16032, Note_on_c, 1, 66, 71
3, 16072, Note_off_c, 1, 69, 64
3, 16072, Note_off_c, 1, 66, 64
3, 16080, Note_on_c, 1, 66, 67
3, 16080, Note_on_c, 1, 63, 67
3, 16120, Note_off_c, 1, 66, 64
3, 16120, Note_off_c, 1, 63, 64
3, 16128, Note_on_c, 1, 64, 86
3, 16220, Note_off_c, 1, 64, 64
3, 16224, Note_on_c, 1, 75, 86
3, 16264, Note_off_c, 1, 75, 64
3, 16272, Note_on_c, 1, 76, 90
3, 16312, Note_off_c, 1, 76, 64
3, 16416, Note_on_c, 1, 76, 71
3, 16416, Note_on_c, 1, 73, 71
3, 16456, Note_off_c, 1, 76, 64
3, 16456, Note_off_c, 1, 73, 64
3, 16464, Note_on_c, 1, 73, 67
3, 16464, Note_on_c, 1, 69, 67
3, 16504, Note_off_c, 1, 73, 64
3, 16504, Note_off_c, 1, 69, 64
3, 16608, Note_on_c, 1, 70, 67
3, 16608, Note_on_c, 1, 67, 67
3, 16648, Note_off_c, 1, 70, 64
3, 16648, Note_off_c, 1, 67, 64
3, 16656, Note_on_c, 1, 71, 71
3, 16656, Note_on_c, 1, 68, 71
3, 16696, Note_off_c, 1, 71, 64
3, 16696, Note_off_c, 1, 68, 64
3, 16784, Note_on_c, 1, 66, 71
3, 16800, Note_on_c, 1, 69, 71
3, 16824, Note_off_c, 1, 66, 64
3, 16840, Note_off_c, 1, 69, 64
3, 16848, Note_on_c, 1, 63, 67
3, 16848, Note_on_c, 1, 66, 67
3, 16888, Note_off_c, 1, 63, 64
3, 16888, Note_off_c, 1, 66, 64
3, 16896, Note_on_c, 1, 66, 67
3, 16896, Note_on_c, 1, 63, 67
3, 16896, Note_on_c, 1, 57, 67
3, 17276, Note_off_c, 1, 66, 64
3, 17276, Note_off_c, 1, 63, 64
3, 17276, Note_off_c, 1, 57, 64
3, 17280, Note_on_c, 1, 64, 67
3, 17280, Note_on_c, 1, 56, 67
3, 17412, Note_off_c, 1, 64, 64
3, 17412, Note_off_c, 1, 56, 64
3, 18624, Note_on_c, 1, 73, 86
3, 18624, Note_on_c, 1, 66, 86
3, 18812, Note_off_c, 1, 73, 64
3, 18816, Note_on_c, 1, 75, 77
3, 19004, Note_off_c, 1, 66, 64
3, 19004, Note_off_c, 1, 75, 64
3, 19008, Note_on_c, 1, 76, 68
3, 19008, Note_on_c, 1, 64, 68
3, 19196, Note_off_c, 1, 76, 64
3, 19196, Note_off_c, 1, 64, 64
3, 19392, Note_on_c, 1, 71, 86
3, 19392, Note_on_c, 1, 68, 86
3, 19580, Note_off_c, 1, 71, 64
3, 19580, Note_off_c, 1, 68, 64
3, 19584, Note_on_c, 1, 70, 77
3, 19584, Note_on_c, 1, 66, 77
3, 19772, Note_off_c, 1, 70, 64
3, 19772, Note_off_c, 1, 66, 64
3, 19776, Note_on_c, 1, 69, 68
3, 19776, Note_on_c, 1, 66, 68
3, 19964, Note_off_c, 1, 69, 64
3, 19964, Note_off_c, 1, 66, 64
3, 19968, Note_on_c, 1, 69, 67
3, 19968, Note_on_c, 1, 66, 67
3, 20060, Note_off_c, 1, 69, 64
3, 20060, Note_off_c, 1, 66, 64
3, 20064, Note_on_c, 1, 67, 67
3, 20064, Note_on_c, 1, 64, 67
3, 20156, Note_off_c, 1, 67, 64
3, 20156, Note_off_c, 1, 64, 64
3, 20160, Note_on_c, 1, 67, 67
3, 20160, Note_on_c, 1, 64, 67
3, 20252, Note_off_c, 1, 67, 64
3, 20252, Note_off_c, 1, 64, 64
3, 20256, Note_on_c, 1, 67, 67
3, 20256, Note_on_c, 1, 64, 67
3, 20348, Note_off_c, 1, 67, 64
3, 20348, Note_off_c, 1, 64, 64
3, 20352, Note_on_c, 1, 67, 67
3, 20352, Note_on_c, 1, 64, 67
3, 20444, Note_off_c, 1, 67, 64
3, 20444, Note_off_c, 1, 64, 64
3, 20448, Note_on_c, 1, 64, 67
3, 20448, Note_on_c, 1, 61, 67
3, 20540, Note_off_c, 1, 64, 64
3, 20540, Note_off_c, 1, 61, 64
3, 20544, Note_on_c, 1, 64, 67
3, 20544, Note_on_c, 1, 61, 67
3, 20636, Note_off_c, 1, 64, 64
3, 20636, Note_off_c, 1, 61, 64
3, 20640, Note_on_c, 1, 64, 67
3, 20640, Note_on_c, 1, 61, 67
3, 20732, Note_off_c, 1, 64, 64
3, 20732, Note_off_c, 1, 61, 64
3, 20736, Note_on_c, 1, 64, 67
3, 20736, Note_on_c, 1, 59, 67
3, 20828, Note_off_c, 1, 64, 64
3, 20828, Note_off_c, 1, 59, 64
3, 20832, Note_on_c, 1, 68, 67
3, 20832, Note_on_c, 1, 64, 67
3, 20924, Note_off_c, 1, 68, 64
3, 20924, Note_off_c, 1, 64, 64
3, 20928, Note_on_c, 1, 76, 67
3, 20928, Note_on_c, 1, 64, 67
3, 21020, Note_off_c, 1, 76, 64
3, 21020, Note_off_c, 1, 64, 64
3, 21024, Note_on_c, 1, 76, 67
3, 21024, Note_on_c, 1, 69, 67
3, 21116, Note_off_c, 1, 76, 64
3, 21116, Note_off_c, 1, 69, 64
3, 21120, Note_on_c, 1, 76, 67
3, 21120, Note_on_c, 1, 73, 67
3, 21212, Note_off_c, 1, 76, 64
3, 21212, Note_off_c, 1, 73, 64
3, 21216, Note_on_c, 1, 76, 67
3, 21216, Note_on_c, 1, 73, 67
3, 21308, Note_off_c, 1, 76, 64
3, 21308, Note_off_c, 1, 73, 64
3, 21312, Note_on_c, 1, 75, 67
3, 21312, Note_on_c, 1, 71, 67
3, 21404, Note_off_c, 1, 75, 64
3, 21404, Note_off_c, 1, 71, 64
3, 21408, Note_on_c, 1, 75, 67
3, 21408, Note_on_c, 1, 69, 67
3, 21500, Note_off_c, 1, 75, 64
3, 21500, Note_off_c, 1, 69, 64
3, 21504, Note_on_c, 1, 76, 86
3, 21504, Note_on_c, 1, 68, 86
3, 21596, Note_off_c, 1, 76, 64
3, 21596, Note_off_c, 1, 68, 64
3, 21600, Note_on_c, 1, 75, 86
3, 21600, Note_on_c, 1, 66, 86
3, 21640, Note_off_c, 1, 75, 64
3, 21640, Note_off_c, 1, 66, 64
3, 21648, Note_on_c, 1, 76, 88
3, 21648, Note_on_c, 1, 68, 88
3, 21688, Note_off_c, 1, 76, 64
3, 21688, Note_off_c, 1, 68, 64
3, 21792, Note_on_c, 1, 76, 86
3, 21792, Note_on_c, 1, 73, 86
3, 21832, Note_off_c, 1, 76, 64
3, 21832, Note_off_c, 1, 73, 64
3, 21840, Note_on_c, 1, 73, 81
3, 21840, Note_on_c, 1, 69, 81
3, 21880, Note_off_c, 1, 73, 64
3, 21880, Note_off_c, 1, 69, 64
3, 21984, Note_on_c, 1, 71, 84
3, 21984, Note_on_c, 1, 68, 84
3, 22024, Note_off_c, 1, 71, 64
3, 22024, Note_off_c, 1, 68, 64
3, 22032, Note_on_c, 1, 68, 76
3, 22032, Note_on_c, 1, 64, 76
3, 22072, Note_off_c, 1, 68, 64
3, 22072, Note_off_c, 1, 64, 64
3, 22176, Note_on_c, 1, 69, 78
3, 22176, Note_on_c, 1, 66, 78
3, 22216, Note_off_c, 1, 69, 64
3, 22216, Note_off_c, 1, 66, 64
3, 22224, Note_on_c, 1, 66, 73
3, 22224, Note_on_c, 1, 63, 73
3, 22264, Note_off_c, 1, 66, 64
3, 22264, Note_off_c, 1, 63, 64
3, 22272, Note_on_c, 1, 64, 68
3, 22460, Note_off_c, 1, 64, 64
3, 23136, Note_on_c, 1, 64, 67
3, 23228, Note_off_c, 1, 64, 64
3, 23232, Note_on_c, 1, 71, 67
3, 23232, Note_on_c, 1, 67, 67
3, 23324, Note_off_c, 1, 71, 64
3, 23324, Note_off_c, 1, 67, 64
3, 23328, Note_on_c, 1, 64, 67
3, 23420, Note_off_c, 1, 64, 64
3, 23424, Note_on_c, 1, 71, 67
3, 23424, Note_on_c, 1, 67, 67
3, 23516, Note_off_c, 1, 71, 64
3, 23516, Note_off_c, 1, 67, 64
3, 23520, Note_on_c, 1, 64, 67
3, 23612, Note_off_c, 1, 64, 64
3, 23616, Note_on_c, 1, 71, 67
3, 23616, Note_on_c, 1, 67, 67
3, 23708, Note_off_c, 1, 71, 64
3, 23708, Note_off_c, 1, 67, 64
3, 23712, Note_on_c, 1, 64, 67
3, 23804, Note_off_c, 1, 64, 64
3, 23904, Note_on_c, 1, 61, 67
3, 23996, Note_off_c, 1, 61, 64
3, 24000, Note_on_c, 1, 70, 67
3, 24000, Note_on_c, 1, 64, 67
3, 24092, Note_off_c, 1, 70, 64
3, 24092, Note_off_c, 1, 64, 64
3, 24096, Note_on_c, 1, 61, 67
3, 24188, Note_off_c, 1, 61, 64
3, 24192, Note_on_c, 1, 70, 67
3, 24192, Note_on_c, 1, 64, 67
3, 24284, Note_off_c, 1, 70, 64
3, 24284, Note_off_c, 1, 64, 64
3, 24288, Note_on_c, 1, 61, 67
3, 24380, Note_off_c, 1, 61, 64
3, 24384, Note_on_c, 1, 70, 67
3, 24384, Note_on_c, 1, 64, 67
3, 24476, Note_off_c, 1, 70, 64
3, 24476, Note_off_c, 1, 64, 64
3, 24480, Note_on_c, 1, 61, 67
3, 24572, Note_off_c, 1, 61, 64
3, 24672, Note_on_c, 1, 63, 67
3, 24672, Note_on_c, 1, 59, 67
3, 24764, Note_off_c, 1, 63, 64
3, 24764, Note_off_c, 1, 59, 64
3, 24768, Note_on_c, 1, 66, 67
3, 24860, Note_off_c, 1, 66, 64
3, 24864, Note_on_c, 1, 63, 67
3, 24956, Note_off_c, 1, 63, 64
3, 24960, Note_on_c, 1, 66, 67
3, 24960, Control_c, 1, 1, 50
3, 25052, Note_off_c, 1, 66, 64
3, 25056, Note_on_c, 1, 63, 67
3, 25148, Note_off_c, 1, 63, 64
3, 25152, Note_on_c, 1, 66, 67
3, 25244, Note_off_c, 1, 66, 64
3, 25248, Note_on_c, 1, 63, 67
3, 25340, Note_off_c, 1, 63, 64
3, 25440, Note_on_c, 1, 71, 67
3, 25616, Note_on_c, 1, 71, 67
3, 25628, Note_off_c, 1, 71, 64
3, 25804, Note_off_c, 1, 71, 64
3, 25824, Note_on_c, 1, 71, 67
3, 26012, Note_off_c, 1, 71, 64
3, 26016, Note_on_c, 1, 72, 67
3, 26108, Note_off_c, 1, 72, 64
3, 26112, Note_on_c, 1, 73, 67
3, 26156, Note_off_c, 1, 73, 64
3, 26160, Note_on_c, 1, 75, 67
3, 26204, Note_off_c, 1, 75, 64
3, 26208, Note_on_c, 1, 76, 67
3, 26252, Note_off_c, 1, 76, 64
3, 26256, Note_on_c, 1, 75, 67
3, 26300, Note_off_c, 1, 75, 64
3, 26304, Note_on_c, 1, 73, 67
3, 26348, Note_off_c, 1, 73, 64
3, 26352, Note_on_c, 1, 75, 67
3, 26352, Note_on_c, 1, 71, 67
3, 26396, Note_off_c, 1, 75, 64
3, 26396, Note_off_c, 1, 71, 64
3, 26400, Note_on_c, 1, 73, 67
3, 26400, Note_on_c, 1, 70, 67
3, 26444, Note_off_c, 1, 73, 64
3, 26444, Note_off_c, 1, 70, 64
3, 26448, Note_on_c, 1, 71, 67
3, 26448, Note_on_c, 1, 68, 67
3, 26492, Note_off_c, 1, 71, 64
3, 26492, Note_off_c, 1, 68, 64
3, 26496, Note_on_c, 1, 70, 67
3, 26496, Note_on_c, 1, 66, 67
3, 26684, Note_off_c, 1, 70, 64
3, 26684, Note_off_c, 1, 66, 64
3, 26688, Note_on_c, 1, 73, 67
3, 26688, Note_on_c, 1, 66, 67
3, 26876, Note_off_c, 1, 73, 64
3, 26876, Note_off_c, 1, 66, 64
3, 26880, Note_on_c, 1, 71, 67
3, 26880, Note_on_c, 1, 66, 67
3, 27068, Note_off_c, 1, 71, 64
3, 27068, Note_off_c, 1, 66, 64
3, 27264, Note_on_c, 1, 71, 67
3, 27264, Note_on_c, 1, 68, 67
3, 27452, Note_off_c, 1, 71, 64
3, 27452, Note_off_c, 1, 68, 64
3, 27840, Note_on_c, 1, 71, 67
3, 28028, Note_off_c, 1, 71, 64
3, 28032, Note_on_c, 1, 70, 67
3, 28124, Note_off_c, 1, 70, 64
3, 28128, Note_on_c, 1, 73, 67
3, 28220, Note_off_c, 1, 73, 64
3, 28224, Note_on_c, 1, 78, 67
3, 28272, Note_off_c, 1, 78, 64
3, 28320, Note_on_c, 1, 78, 67
3, 28368, Note_off_c, 1, 78, 64
3, 28512, Note_on_c, 1, 83, 71
3, 28552, Note_off_c, 1, 83, 64
3, 28560, Note_on_c, 1, 82, 67
3, 28600, Note_off_c, 1, 82, 64
3, 28704, Note_on_c, 1, 80, 71
3, 28744, Note_off_c, 1, 80, 64
3, 28752, Note_on_c, 1, 78, 67
3, 28792, Note_off_c, 1, 78, 64
3, 28896, Note_on_c, 1, 83, 71
3, 28936, Note_off_c, 1, 83, 64
3, 28944, Note_on_c, 1, 82, 67
3, 28984, Note_off_c, 1, 82, 64
3, 29088, Note_on_c, 1, 80, 71
3, 29128, Note_off_c, 1, 80, 64
3, 29136, Note_on_c, 1, 78, 67
3, 29176, Note_off_c, 1, 78, 64
3, 29280, Note_on_c, 1, 78, 71
3, 29320, Note_off_c, 1, 78, 64
3, 29328, Note_on_c, 1, 76, 67
3, 29368, Note_off_c, 1, 76, 64
3, 29472, Note_on_c, 1, 75, 71
3, 29512, Note_off_c, 1, 75, 64
3, 29520, Note_on_c, 1, 73, 67
3, 29560, Note_off_c, 1, 73, 64
3, 29664, Note_on_c, 1, 78, 71
3, 29704, Note_off_c, 1, 78, 64
3, 29712, Note_on_c, 1, 76, 67
3, 29752, Note_off_c, 1, 76, 64
3, 29856, Note_on_c, 1, 75, 71
3, 29896, Note_off_c, 1, 75, 64
3, 29904, Note_on_c, 1, 73, 67
3, 29944, Note_off_c, 1, 73, 64
3, 30048, Note_on_c, 1, 83, 71
3, 30088, Note_off_c, 1, 83, 64
3, 30096, Note_on_c, 1, 82, 67
3, 30136, Note_off_c, 1, 82, 64
3, 30240, Note_on_c, 1, 80, 71
3, 30280, Note_off_c, 1, 80, 64
3, 30288, Note_on_c, 1, 78, 67
3, 30328, Note_off_c, 1, 78, 64
3, 30432, Note_on_c, 1, 83, 71
3, 30472, Note_off_c, 1, 83, 64
3, 30480, Note_on_c, 1, 82, 67
3, 30520, Note_off_c, 1, 82, 64
3, 30624, Note_on_c, 1, 80, 71
3, 30664, Note_off_c, 1, 80, 64
3, 30672, Note_on_c, 1, 78, 67
3, 30712, Note_off_c, 1, 78, 64
3, 30816, Note_on_c, 1, 78, 71
3, 30856, Note_off_c, 1, 78, 64
3, 30864, Note_on_c, 1, 76, 67
3, 30904, Note_off_c, 1, 76, 64
3, 31008, Note_on_c, 1, 75, 71
3, 31048, Note_off_c, 1, 75, 64
3, 31056, Note_on_c, 1, 73, 67
3, 31096, Note_off_c, 1, 73, 64
3, 31200, Note_on_c, 1, 78, 71
3, 31240, Note_off_c, 1, 78, 64
3, 31248, Note_on_c, 1, 76, 67
3, 31288, Note_off_c, 1, 76, 64
3, 31392, Note_on_c, 1, 75, 71
3, 31432, Note_off_c, 1, 75, 64
3, 31440, Note_on_c, 1, 73, 67
3, 31480, Note_off_c, 1, 73, 64
3, 31488, Note_on_c, 1, 73, 67
3, 31488, Note_on_c, 1, 66, 67
3, 31532, Note_off_c, 1, 73, 64
3, 31536, Note_on_c, 1, 71, 67
3, 31580, Note_off_c, 1, 71, 64
3, 31584, Note_on_c, 1, 76, 67
3, 31628, Note_off_c, 1, 76, 64
3, 31632, Note_on_c, 1, 75, 67
3, 31676, Note_off_c, 1, 75, 64
3, 31680, Note_on_c, 1, 75, 67
3, 31868, Note_off_c, 1, 66, 64
3, 31868, Note_off_c, 1, 75, 64
3, 31872, Note_on_c, 1, 75, 67
3, 31872, Note_on_c, 1, 66, 67
3, 31964, Note_off_c, 1, 75, 64
3, 31964, Note_off_c, 1, 66, 64
3, 32448, Note_on_c, 1, 66, 67
3, 32636, Note_off_c, 1, 66, 64
3, 32640, Note_on_c, 1, 66, 67
3, 32828, Note_off_c, 1, 66, 64
3, 32832, Note_on_c, 1, 71, 67
3, 33020, Note_off_c, 1, 71, 64
3, 33216, Note_on_c, 1, 71, 67
3, 33404, Note_off_c, 1, 71, 64
3, 33408, Note_on_c, 1, 71, 67
3, 33596, Note_off_c, 1, 71, 64
3, 33600, Note_on_c, 1, 71, 67
3, 33788, Note_off_c, 1, 71, 64
3, 33792, Note_on_c, 1, 71, 67
3, 33980, Note_off_c, 1, 71, 64
3, 33984, Note_on_c, 1, 71, 67
3, 34172, Note_off_c, 1, 71, 64
3, 34176, Note_on_c, 1, 70, 67
3, 34364, Note_off_c, 1, 70, 64
3, 34368, Note_on_c, 1, 70, 67
3, 34556, Note_off_c, 1, 70, 64
3, 34560, Note_on_c, 1, 70, 67
3, 34940, Note_off_c, 1, 70, 64
3, 34944, Note_on_c, 1, 71, 67
3, 35132, Note_off_c, 1, 71, 64
3, 35328, Note_on_c, 1, 66, 67
3, 35420, Note_off_c, 1, 66, 64
3, 35424, Note_on_c, 1, 66, 67
3, 35516, Note_off_c, 1, 66, 64
3, 35520, Note_on_c, 1, 70, 67
3, 35612, Note_off_c, 1, 70, 64
3, 35616, Note_on_c, 1, 66, 67
3, 35708, Note_off_c, 1, 66, 64
3, 35712, Note_on_c, 1, 71, 67
3, 35804, Note_off_c, 1, 71, 64
3, 35808, Note_on_c, 1, 66, 67
3, 35996, Note_off_c, 1, 66, 64
3, 36000, Note_on_c, 1, 66, 67
3, 36092, Note_off_c, 1, 66, 64
3, 36096, Note_on_c, 1, 66, 58
3, 36188, Note_off_c, 1, 66, 64
3, 36192, Note_on_c, 1, 66, 58
3, 36284, Note_off_c, 1, 66, 64
3, 36288, Note_on_c, 1, 70, 58
3, 36380, Note_off_c, 1, 70, 64
3, 36384, Note_on_c, 1, 66, 58
3, 36476, Note_off_c, 1, 66, 64
3, 36480, Note_on_c, 1, 71, 58
3, 36572, Note_off_c, 1, 71, 64
3, 36576, Note_on_c, 1, 66, 58
3, 36764, Note_off_c, 1, 66, 64
3, 36768, Note_on_c, 1, 66, 58
3, 36860, Note_off_c, 1, 66, 64
3, 36864, Note_on_c, 1, 71, 86
3, 36956, Note_off_c, 1, 71, 64
3, 36960, Note_on_c, 1, 71, 67
3, 37148, Note_off_c, 1, 71, 64
3, 37152, Note_on_c, 1, 71, 67
3, 37244, Note_off_c, 1, 71, 64
3, 37248, Note_on_c, 1, 71, 86
3, 37292, Note_off_c, 1, 71, 64
3, 37296, Note_on_c, 1, 73, 67
3, 37340, Note_off_c, 1, 73, 64
3, 37344, Note_on_c, 1, 75, 67
3, 37388, Note_off_c, 1, 75, 64
3, 37392, Note_on_c, 1, 76, 67
3, 37436, Note_off_c, 1, 76, 64
3, 37440, Note_on_c, 1, 75, 67
3, 37484, Note_off_c, 1, 75, 64
3, 37488, Note_on_c, 1, 73, 67
3, 37532, Note_off_c, 1, 73, 64
3, 37536, Note_on_c, 1, 71, 67
3, 37580, Note_off_c, 1, 71, 64
3, 37584, Note_on_c, 1, 70, 67
3, 37628, Note_off_c, 1, 70, 64
3, 37632, Note_on_c, 1, 75, 86
3, 37632, Note_on_c, 1, 71, 86
3, 37728, Note_on_c, 1, 66, 86
3, 37820, Note_off_c, 1, 66, 64
3, 37824, Note_on_c, 1, 66, 86
3, 37916, Note_off_c, 1, 66, 64
3, 37920, Note_on_c, 1, 66, 86
3, 38012, Note_off_c, 1, 75, 64
3, 38012, Note_off_c, 1, 71, 64
3, 38012, Note_off_c, 1, 66, 64
3, 38016, Note_on_c, 1, 66, 91
3, 38016, Note_on_c, 1, 76, 91
3, 38040, Note_off_c, 1, 66, 64
3, 38040, Note_off_c, 1, 76, 64
3, 38040, Note_on_c, 1, 75, 86
3, 38064, Note_off_c, 1, 75, 64
3, 38064, Note_on_c, 1, 73, 86
3, 38088, Note_off_c, 1, 73, 64
3, 38088, Note_on_c, 1, 71, 86
3, 38112, Note_off_c, 1, 71, 64
3, 38112, Note_on_c, 1, 70, 86
3, 38204, Note_off_c, 1, 70, 64
3, 38496, Note_on_c, 1, 78, 67
3, 38588, Note_off_c, 1, 78, 64
3, 38592, Note_on_c, 1, 81, 67
3, 38684, Note_off_c, 1, 81, 64
3, 38688, Note_on_c, 1, 76, 67
3, 38780, Note_off_c, 1, 76, 64
3, 38784, Note_on_c, 1, 74, 67
3, 38876, Note_off_c, 1, 74, 64
3, 38880, Note_on_c, 1, 75, 67
3, 38972, Note_off_c, 1, 75, 64
3, 38976, Note_on_c, 1, 76, 67
3, 39068, Note_off_c, 1, 76, 64
3, 39072, Note_on_c, 1, 73, 67
3, 39164, Note_off_c, 1, 73, 64
3, 39168, Note_on_c, 1, 75, 86
3, 39168, Note_on_c, 1, 71, 86
3, 39264, Note_on_c, 1, 66, 86
3, 39356, Note_off_c, 1, 66, 64
3, 39360, Note_on_c, 1, 66, 86
3, 39452, Note_off_c, 1, 66, 64
3, 39456, Note_on_c, 1, 66, 86
3, 39548, Note_off_c, 1, 75, 64
3, 39548, Note_off_c, 1, 71, 64
3, 39548, Note_off_c, 1, 66, 64
3, 39552, Note_on_c, 1, 66, 91
3, 39552, Note_on_c, 1, 76, 91
3, 39576, Note_off_c, 1, 66, 64
3, 39576, Note_off_c, 1, 76, 64
3, 39576, Note_on_c, 1, 75, 86
3, 39600, Note_off_c, 1, 75, 64
3, 39600, Note_on_c, 1, 73, 86
3, 39624, Note_off_c, 1, 73, 64
3, 39624, Note_on_c, 1, 71, 86
3, 39648, Note_off_c, 1, 71, 64
3, 39648, Note_on_c, 1, 70, 86
3, 39740, Note_off_c, 1, 70, 64
3, 39936, Note_on_c, 1, 71, 86
3, 39936, Note_on_c, 1, 66, 86
3, 40124, Note_off_c, 1, 71, 64
3, 40124, Note_off_c, 1, 66, 64
3, 40320, Note_on_c, 1, 71, 86
3, 40320, Note_on_c, 1, 68, 86
3, 40508, Note_off_c, 1, 71, 64
3, 40508, Note_off_c, 1, 68, 64
3, 40800, Note_on_c, 1, 75, 76
3, 40800, Note_on_c, 1, 71, 76
3, 40800, Note_on_c, 1, 66, 76
3, 40892, Note_off_c, 1, 75, 64
3, 40892, Note_off_c, 1, 71, 64
3, 40892, Note_off_c, 1, 66, 64
3, 40896, Note_on_c, 1, 75, 76
3, 40896, Note_on_c, 1, 71, 76
3, 40896, Note_on_c, 1, 66, 76
3, 40988, Note_off_c, 1, 75, 64
3, 40988, Note_off_c, 1, 71, 64
3, 40988, Note_off_c, 1, 66, 64
3, 40992, Note_on_c, 1, 75, 76
3, 40992, Note_on_c, 1, 71, 76
3, 40992, Note_on_c, 1, 66, 76
3, 41084, Note_off_c, 1, 75, 64
3, 41084, Note_off_c, 1, 71, 64
3, 41084, Note_off_c, 1, 66, 64
3, 41088, Note_on_c, 1, 75, 76
3, 41088, Note_on_c, 1, 71, 76
3, 41088, Note_on_c, 1, 66, 76
3, 41180, Note_off_c, 1, 75, 64
3, 41180, Note_off_c, 1, 71, 64
3, 41180, Note_off_c, 1, 66, 64
3, 41184, Note_on_c, 1, 75, 76
3, 41184, Note_on_c, 1, 71, 76
3, 41184, Note_on_c, 1, 66, 76
3, 41276, Note_off_c, 1, 75, 64
3, 41276, Note_off_c, 1, 71, 64
3, 41276, Note_off_c, 1, 66, 64
3, 41280, Note_on_c, 1, 75, 76
3, 41280, Note_on_c, 1, 71, 76
3, 41280, Note_on_c, 1, 66, 76
3, 41372, Note_off_c, 1, 75, 64
3, 41372, Note_off_c, 1, 71, 64
3, 41372, Note_off_c, 1, 66, 64
3, 41376, Note_on_c, 1, 75, 76
3, 41376, Note_on_c, 1, 71, 76
3, 41376, Note_on_c, 1, 66, 76
3, 41468, Note_off_c, 1, 75, 64
3, 41468, Note_off_c, 1, 71, 64
3, 41468, Note_off_c, 1, 66, 64
3, 41472, Note_on_c, 1, 73, 76
3, 41472, Note_on_c, 1, 71, 76
3, 41472, Note_on_c, 1, 66, 76
3, 41564, Note_off_c, 1, 73, 64
3, 41564, Note_off_c, 1, 71, 64
3, 41564, Note_off_c, 1, 66, 64
3, 41568, Note_on_c, 1, 73, 76
3, 41568, Note_on_c, 1, 71, 76
3, 41568, Note_on_c, 1, 66, 76
3, 41660, Note_off_c, 1, 73, 64
3, 41660, Note_off_c, 1, 71, 64
3, 41660, Note_off_c, 1, 66, 64
3, 41664, Note_on_c, 1, 73, 77
3, 41664, Note_on_c, 1, 71, 77
3, 41664, Note_on_c, 1, 66, 77
3, 41756, Note_off_c, 1, 73, 64
3, 41756, Note_off_c, 1, 71, 64
3, 41756, Note_off_c, 1, 66, 64
3, 41760, Note_on_c, 1, 73, 78
3, 41760, Note_on_c, 1, 71, 78
3, 41760, Note_on_c, 1, 66, 78
3, 41852, Note_off_c, 1, 73, 64
3, 41852, Note_off_c, 1, 71, 64
3, 41852, Note_off_c, 1, 66, 64
3, 41856, Note_on_c, 1, 73, 80
3, 41856, Note_on_c, 1, 70, 80
3, 41856, Note_on_c, 1, 64, 80
3, 41948, Note_off_c, 1, 73, 64
3, 41948, Note_off_c, 1, 70, 64
3, 41948, Note_off_c, 1, 64, 64
3, 41952, Note_on_c, 1, 73, 81
3, 41952, Note_on_c, 1, 70, 81
3, 41952, Note_on_c, 1, 64, 81
3, 42044, Note_off_c, 1, 73, 64
3, 42044, Note_off_c, 1, 70, 64
3, 42044, Note_off_c, 1, 64, 64
3, 42048, Note_on_c, 1, 73, 82
3, 42048, Note_on_c, 1, 70, 82
3, 42048, Note_on_c, 1, 64, 82
3, 42140, Note_off_c, 1, 73, 64
3, 42140, Note_off_c, 1, 70, 64
3, 42140, Note_off_c, 1, 64, 64
3, 42144, Note_on_c, 1, 73, 83
3, 42144, Note_on_c, 1, 70, 83
3, 42144, Note_on_c, 1, 64, 83
3, 42236, Note_off_c, 1, 73, 64
3, 42236, Note_off_c, 1, 70, 64
3, 42236, Note_off_c, 1, 64, 64
3, 42240, Note_on_c, 1, 71, 86
3, 42240, Note_on_c, 1, 63, 86
3, 42284, Note_off_c, 1, 71, 64
3, 42284, Note_off_c, 1, 63, 64
3, 42288, Note_on_c, 1, 73, 86
3, 42332, Note_off_c, 1, 73, 64
3, 42336, Note_on_c, 1, 71, 86
3, 42380, Note_off_c, 1, 71, 64
3, 42384, Note_on_c, 1, 70, 86
3, 42428, Note_off_c, 1, 70, 64
3, 42432, Note_on_c, 1, 71, 86
3, 42476, Note_off_c, 1, 71, 64
3, 42480, Note_on_c, 1, 73, 86
3, 42480, Note_on_c, 1, 68, 86
3, 42524, Note_off_c, 1, 73, 64
3, 42524, Note_off_c, 1, 68, 64
3, 42528, Note_on_c, 1, 75, 86
3, 42572, Note_off_c, 1, 75, 64
3, 42576, Note_on_c, 1, 71, 86
3, 42620, Note_off_c, 1, 71, 64
3, 42624, Note_on_c, 1, 73, 86
3, 42668, Note_off_c, 1, 73, 64
3, 42672, Note_on_c, 1, 75, 86
3, 42716, Note_off_c, 1, 75, 64
3, 42720, Note_on_c, 1, 73, 86
3, 42764, Note_off_c, 1, 73, 64
3, 42768, Note_on_c, 1, 72, 86
3, 42812, Note_off_c, 1, 72, 64
3, 42816, Note_on_c, 1, 73, 86
3, 42860, Note_off_c, 1, 73, 64
3, 42864, Note_on_c, 1, 75, 86
3, 42908, Note_off_c, 1, 75, 64
3, 42912, Note_on_c, 1, 76, 86
3, 42956, Note_off_c, 1, 76, 64
3, 42960, Note_on_c, 1, 73, 86
3, 43004, Note_off_c, 1, 73, 64
3, 43008, Note_on_c, 1, 75, 86
3, 43052, Note_off_c, 1, 75, 64
3, 43056, Note_on_c, 1, 76, 86
3, 43100, Note_off_c, 1, 76, 64
3, 43104, Note_on_c, 1, 75, 86
3, 43148, Note_off_c, 1, 75, 64
3, 43152, Note_on_c, 1, 73, 86
3, 43196, Note_off_c, 1, 73, 64
3, 43200, Note_on_c, 1, 75, 86
3, 43244, Note_off_c, 1, 75, 64
3, 43248, Note_on_c, 1, 76, 86
3, 43292, Note_off_c, 1, 76, 64
3, 43296, Note_on_c, 1, 78, 86
3, 43340, Note_off_c, 1, 78, 64
3, 43344, Note_on_c, 1, 75, 86
3, 43388, Note_off_c, 1, 75, 64
3, 43392, Note_on_c, 1, 76, 86
3, 43392, Note_on_c, 1, 68, 86
3, 43436, Note_off_c, 1, 76, 64
3, 43436, Note_off_c, 1, 68, 64
3, 43440, Note_on_c, 1, 75, 86
3, 43440, Note_on_c, 1, 66, 86
3, 43484, Note_off_c, 1, 75, 64
3, 43484, Note_off_c, 1, 66, 64
3, 43488, Note_on_c, 1, 76, 86
3, 43488, Note_on_c, 1, 68, 86
3, 43532, Note_off_c, 1, 76, 64
3, 43532, Note_off_c, 1, 68, 64
3, 43536, Note_on_c, 1, 78, 86
3, 43536, Note_on_c, 1, 75, 86
3, 43580, Note_off_c, 1, 78, 64
3, 43580, Note_off_c, 1, 75, 64
3, 43584, Note_on_c, 1, 80, 86
3, 43584, Note_on_c, 1, 76, 86
3, 43628, Note_off_c, 1, 80, 64
3, 43628, Note_off_c, 1, 76, 64
3, 43632, Note_on_c, 1, 78, 86
3, 43632, Note_on_c, 1, 75, 86
3, 43676, Note_off_c, 1, 78, 64
3, 43676, Note_off_c, 1, 75, 64
3, 43680, Note_on_c, 1, 80, 86
3, 43680, Note_on_c, 1, 76, 86
3, 43724, Note_off_c, 1, 80, 64
3, 43724, Note_off_c, 1, 76, 64
3, 43728, Note_on_c, 1, 82, 86
3, 43728, Note_on_c, 1, 73, 86
3, 43772, Note_off_c, 1, 82, 64
3, 43772, Note_off_c, 1, 73, 64
3, 43776, Note_on_c, 1, 83, 67
3, 43776, Note_on_c, 1, 75, 67
3, 43776, Note_on_c, 1, 71, 67
3, 43820, Note_off_c, 1, 83, 64
3, 43820, Note_off_c, 1, 75, 64
3, 43820, Note_off_c, 1, 71, 64
3, 43824, Note_on_c, 1, 82, 67
3, 43868, Note_off_c, 1, 82, 64
3, 43872, Note_on_c, 1, 83, 67
3, 43916, Note_off_c, 1, 83, 64
3, 43920, Note_on_c, 1, 82, 67
3, 43964, Note_off_c, 1, 82, 64
3, 43968, Note_on_c, 1, 83, 67
3, 44012, Note_off_c, 1, 83, 64
3, 44016, Note_on_c, 1, 82, 67
3, 44060, Note_off_c, 1, 82, 64
3, 44064, Note_on_c, 1, 83, 67
3, 44108, Note_off_c, 1, 83, 64
3, 44112, Note_on_c, 1, 82, 67
3, 44156, Note_off_c, 1, 82, 64
3, 44160, Note_on_c, 1, 83, 67
3, 44252, Note_off_c, 1, 83, 64
3, 44256, Note_on_c, 1, 81, 67
3, 44348, Note_off_c, 1, 81, 64
3, 44352, Note_on_c, 1, 80, 67
3, 44444, Note_off_c, 1, 80, 64
3, 44448, Note_on_c, 1, 79, 67
3, 44540, Note_off_c, 1, 79, 64
3, 44544, Note_on_c, 1, 80, 67
3, 44588, Note_off_c, 1, 80, 64
3, 44592, Note_on_c, 1, 79, 67
3, 44636, Note_off_c, 1, 79, 64
3, 44640, Note_on_c, 1, 80, 67
3, 44684, Note_off_c, 1, 80, 64
3, 44688, Note_on_c, 1, 79, 67
3, 44732, Note_off_c, 1, 79, 64
3, 44736, Note_on_c, 1, 80, 67
3, 44780, Note_off_c, 1, 80, 64
3, 44784, Note_on_c, 1, 79, 67
3, 44828, Note_off_c, 1, 79, 64
3, 44832, Note_on_c, 1, 80, 67
3, 44876, Note_off_c, 1, 80, 64
3, 44880, Note_on_c, 1, 79, 67
3, 44924, Note_off_c, 1, 79, 64
3, 44928, Note_on_c, 1, 80, 67
3, 45020, Note_off_c, 1, 80, 64
3, 45024, Note_on_c, 1, 76, 67
3, 45024, Note_on_c, 1, 73, 67
3, 45116, Note_off_c, 1, 76, 64
3, 45116, Note_off_c, 1, 73, 64
3, 45120, Note_on_c, 1, 73, 67
3, 45120, Note_on_c, 1, 68, 67
3, 45212, Note_off_c, 1, 73, 64
3, 45212, Note_off_c, 1, 68, 64
3, 45216, Note_on_c, 1, 68, 67
3, 45216, Note_on_c, 1, 64, 67
3, 45308, Note_off_c, 1, 68, 64
3, 45308, Note_off_c, 1, 64, 64
3, 45312, Note_on_c, 1, 66, 86
3, 45312, Note_on_c, 1, 63, 86
3, 45356, Note_off_c, 1, 66, 64
3, 45356, Note_off_c, 1, 63, 64
3, 45360, Note_on_c, 1, 65, 86
3, 45360, Note_on_c, 1, 62, 86
3, 45404, Note_off_c, 1, 65, 64
3, 45404, Note_off_c, 1, 62, 64
3, 45408, Note_on_c, 1, 66, 86
3, 45408, Note_on_c, 1, 63, 86
3, 45452, Note_off_c, 1, 66, 64
3, 45452, Note_off_c, 1, 63, 64
3, 45456, Note_on_c, 1, 65, 86
3, 45456, Note_on_c, 1, 62, 86
3, 45500, Note_off_c, 1, 65, 64
3, 45500, Note_off_c, 1, 62, 64
3, 45504, Note_on_c, 1, 66, 86
3, 45504, Note_on_c, 1, 63, 86
3, 45548, Note_off_c, 1, 66, 64
3, 45548, Note_off_c, 1, 63, 64
3, 45552, Note_on_c, 1, 65, 86
3, 45552, Note_on_c, 1, 62, 86
3, 45596, Note_off_c, 1, 65, 64
3, 45596, Note_off_c, 1, 62, 64
3, 45600, Note_on_c, 1, 66, 86
3, 45600, Note_on_c, 1, 63, 86
3, 45644, Note_off_c, 1, 66, 64
3, 45644, Note_off_c, 1, 63, 64
3, 45648, Note_on_c, 1, 65, 86
3, 45648, Note_on_c, 1, 62, 86
3, 45692, Note_off_c, 1, 65, 64
3, 45692, Note_off_c, 1, 62, 64
3, 45696, Note_on_c, 1, 66, 86
3, 45696, Note_on_c, 1, 63, 86
3, 45788, Note_off_c, 1, 66, 64
3, 45788, Note_off_c, 1, 63, 64
3, 45792, Note_on_c, 1, 64, 86
3, 45792, Note_on_c, 1, 61, 86
3, 45884, Note_off_c, 1, 64, 64
3, 45884, Note_off_c, 1, 61, 64
3, 45888, Note_on_c, 1, 63, 86
3, 45888, Note_on_c, 1, 59, 86
3, 45980, Note_off_c, 1, 63, 64
3, 45980, Note_off_c, 1, 59, 64
3, 45984, Note_on_c, 1, 61, 86
3, 45984, Note_on_c, 1, 58, 86
3, 46076, Note_off_c, 1, 61, 64
3, 46076, Note_off_c, 1, 58, 64
3, 46080, Note_on_c, 1, 59, 67
3, 46172, Note_off_c, 1, 59, 64
3, 46176, Note_on_c, 1, 70, 67
3, 46216, Note_off_c, 1, 70, 64
3, 46224, Note_on_c, 1, 71, 71
3, 46264, Note_off_c, 1, 71, 64
3, 46368, Note_on_c, 1, 71, 71
3, 46368, Note_on_c, 1, 68, 71
3, 46408, Note_off_c, 1, 71, 64
3, 46408, Note_off_c, 1, 68, 64
3, 46416, Note_on_c, 1, 68, 67
3, 46416, Note_on_c, 1, 64, 67
3, 46456, Note_off_c, 1, 68, 64
3, 46456, Note_off_c, 1, 64, 64
3, 46560, Note_on_c, 1, 65, 67
3, 46560, Note_on_c, 1, 62, 67
3, 46600, Note_off_c, 1, 65, 64
3, 46600, Note_off_c, 1, 62, 64
3, 46608, Note_on_c, 1, 66, 71
3, 46608, Note_on_c, 1, 63, 71
3, 46648, Note_off_c, 1, 66, 64
3, 46648, Note_off_c, 1, 63, 64
3, 46752, Note_on_c, 1, 64, 71
3, 46752, Note_on_c, 1, 61, 71
3, 46792, Note_off_c, 1, 64, 64
3, 46792, Note_off_c, 1, 61, 64
3, 46800, Note_on_c, 1, 61, 67
3, 46800, Note_on_c, 1, 58, 67
3, 46840, Note_off_c, 1, 61, 64
3, 46840, Note_off_c, 1, 58, 64
3, 46848, Note_on_c, 1, 59, 86
3, 46940, Note_off_c, 1, 59, 64
3, 46944, Note_on_c, 1, 82, 86
3, 46984, Note_off_c, 1, 82, 64
3, 46992, Note_on_c, 1, 83, 90
3, 47032, Note_off_c, 1, 83, 64
3, 47136, Note_on_c, 1, 83, 71
3, 47136, Note_on_c, 1, 80, 71
3, 47176, Note_off_c, 1, 83, 64
3, 47176, Note_off_c, 1, 80, 64
3, 47184, Note_on_c, 1, 80, 67
3, 47184, Note_on_c, 1, 76, 67
3, 47224, Note_off_c, 1, 80, 64
3, 47224, Note_off_c, 1, 76, 64
3, 47328, Note_on_c, 1, 77, 67
3, 47328, Note_on_c, 1, 74, 67
3, 47368, Note_off_c, 1, 77, 64
3, 47368, Note_off_c, 1, 74, 64
3, 47376, Note_on_c, 1, 78, 71
3, 47376, Note_on_c, 1, 75, 71
3, 47416, Note_off_c, 1, 78, 64
3, 47416, Note_off_c, 1, 75, 64
3, 47520, Note_on_c, 1, 76, 71
3, 47520, Note_on_c, 1, 73, 71
3, 47560, Note_off_c, 1, 76, 64
3, 47560, Note_off_c, 1, 73, 64
3, 47568, Note_on_c, 1, 73, 67
3, 47568, Note_on_c, 1, 70, 67
3, 47608, Note_off_c, 1, 73, 64
3, 47608, Note_off_c, 1, 70, 64
3, 47616, Note_on_c, 1, 73, 67
3, 47616, Note_on_c, 1, 70, 67
3, 47616, Note_on_c, 1, 64, 67
3, 47996, Note_off_c, 1, 73, 64
3, 47996, Note_off_c, 1, 70, 64
3, 47996, Note_off_c, 1, 64, 64
3, 48000, Note_on_c, 1, 71, 67
3, 48000, Note_on_c, 1, 63, 67
3, 48132, Note_off_c, 1, 71, 64
3, 48132, Note_off_c, 1, 63, 64
3, 49344, Note_on_c, 1, 68, 86
3, 49344, Note_on_c, 1, 64, 86
3, 49532, Note_off_c, 1, 68, 64
3, 49532, Note_off_c, 1, 64, 64
3, 49536, Note_on_c, 1, 70, 77
3, 49536, Note_on_c, 1, 66, 77
3, 49724, Note_off_c, 1, 70, 64
3, 49724, Note_off_c, 1, 66, 64
3, 49728, Note_on_c, 1, 71, 68
3, 49728, Note_on_c, 1, 66, 68
3, 49916, Note_off_c, 1, 71, 64
3, 49916, Note_off_c, 1, 66, 64
3, 50112, Note_on_c, 1, 66, 86
3, 50112, Note_on_c, 1, 63, 86
3, 50300, Note_off_c, 1, 66, 64
3, 50300, Note_off_c, 1, 63, 64
3, 50304, Note_on_c, 1, 65, 77
3, 50304, Note_on_c, 1, 61, 77
3, 50492, Note_off_c, 1, 65, 64
3, 50492, Note_off_c, 1, 61, 64
3, 50496, Note_on_c, 1, 64, 68
3, 50496, Note_on_c, 1, 61, 68
3, 50684, Note_off_c, 1, 64, 64
3, 50684, Note_off_c, 1, 61, 64
3, 50784, Note_on_c, 1, 62, 67
3, 50784, Note_on_c, 1, 56, 67
3, 50832, Note_off_c, 1, 62, 64
3, 50832, Note_off_c, 1, 56, 64
3, 50880, Note_on_c, 1, 62, 67
3, 50880, Note_on_c, 1, 56, 67
3, 50928, Note_off_c, 1, 62, 64
3, 50928, Note_off_c, 1, 56, 64
3, 50976, Note_on_c, 1, 62, 67
3, 50976, Note_on_c, 1, 56, 67
3, 51024, Note_off_c, 1, 62, 64
3, 51024, Note_off_c, 1, 56, 64
3, 51072, Note_on_c, 1, 62, 67
3, 51072, Note_on_c, 1, 56, 67
3, 51120, Note_off_c, 1, 62, 64
3, 51120, Note_off_c, 1, 56, 64
3, 51168, Note_on_c, 1, 68, 67
3, 51168, Note_on_c, 1, 62, 67
3, 51216, Note_off_c, 1, 68, 64
3, 51216, Note_off_c, 1, 62, 64
3, 51264, Note_on_c, 1, 68, 67
3, 51264, Note_on_c, 1, 62, 67
3, 51312, Note_off_c, 1, 68, 64
3, 51312, Note_off_c, 1, 62, 64
3, 51360, Note_on_c, 1, 68, 67
3, 51360, Note_on_c, 1, 62, 67
3, 51408, Note_off_c, 1, 68, 64
3, 51408, Note_off_c, 1, 62, 64
3, 51456, Note_on_c, 1, 68, 67
3, 51456, Note_on_c, 1, 63, 67
3, 51552, Note_off_c, 1, 68, 64
3, 51552, Note_off_c, 1, 63, 64
3, 51552, Note_on_c, 1, 71, 67
3, 51552, Note_on_c, 1, 68, 67
3, 51648, Note_off_c, 1, 71, 64
3, 51648, Note_off_c, 1, 68, 64
3, 51648, Note_on_c, 1, 71, 67
3, 51648, Note_on_c, 1, 68, 67
3, 51696, Note_off_c, 1, 71, 64
3, 51696, Note_off_c, 1, 68, 64
3, 51744, Note_on_c, 1, 71, 67
3, 51744, Note_on_c, 1, 68, 67
3, 51792, Note_off_c, 1, 71, 64
3, 51792, Note_off_c, 1, 68, 64
3, 51840, Note_on_c, 1, 71, 67
3, 51840, Note_on_c, 1, 68, 67
3, 51936, Note_off_c, 1, 71, 64
3, 51936, Note_off_c, 1, 68, 64
3, 51936, Note_on_c, 1, 74, 67
3, 51936, Note_on_c, 1, 71, 67
3, 52032, Note_off_c, 1, 74, 64
3, 52032, Note_off_c, 1, 71, 64
3, 52032, Note_on_c, 1, 74, 67
3, 52032, Note_on_c, 1, 71, 67
3, 52080, Note_off_c, 1, 74, 64
3, 52080, Note_off_c, 1, 71, 64
3, 52128, Note_on_c, 1, 74, 67
3, 52128, Note_on_c, 1, 71, 67
3, 52176, Note_off_c, 1, 74, 64
3, 52176, Note_off_c, 1, 71, 64
3, 52224, Note_on_c, 1, 74, 67
3, 52224, Note_on_c, 1, 71, 67
3, 52224, Note_on_c, 1, 68, 67
3, 52320, Note_on_c, 1, 62, 67
3, 52320, Note_on_c, 1, 56, 67
3, 52368, Note_off_c, 1, 62, 64
3, 52368, Note_off_c, 1, 56, 64
3, 52416, Note_on_c, 1, 62, 67
3, 52416, Note_on_c, 1, 56, 67
3, 52464, Note_off_c, 1, 62, 64
3, 52464, Note_off_c, 1, 56, 64
3, 52512, Note_on_c, 1, 62, 67
3, 52512, Note_on_c, 1, 56, 67
3, 52560, Note_off_c, 1, 62, 64
3, 52560, Note_off_c, 1, 56, 64
3, 52608, Note_on_c, 1, 62, 67
3, 52608, Note_on_c, 1, 56, 67
3, 52656, Note_off_c, 1, 62, 64
3, 52656, Note_off_c, 1, 56, 64
3, 52704, Note_on_c, 1, 68, 67
3, 52704, Note_on_c, 1, 62, 67
3, 52752, Note_off_c, 1, 68, 64
3, 52752, Note_off_c, 1, 62, 64
3, 52800, Note_on_c, 1, 68, 67
3, 52800, Note_on_c, 1, 62, 67
3, 52848, Note_off_c, 1, 68, 64
3, 52848, Note_off_c, 1, 62, 64
3, 52896, Note_on_c, 1, 68, 67
3, 52896, Note_on_c, 1, 62, 67
3, 52944, Note_off_c, 1, 68, 64
3, 52944, Note_off_c, 1, 62, 64
3, 52992, Note_on_c, 1, 68, 67
3, 52992, Note_on_c, 1, 62, 67
3, 53088, Note_off_c, 1, 68, 64
3, 53088, Note_off_c, 1, 62, 64
3, 53088, Note_on_c, 1, 71, 67
3, 53088, Note_on_c, 1, 68, 67
3, 53184, Note_off_c, 1, 71, 64
3, 53184, Note_off_c, 1, 68, 64
3, 53184, Note_on_c, 1, 71, 67
3, 53184, Note_on_c, 1, 68, 67
3, 53232, Note_off_c, 1, 71, 64
3, 53232, Note_off_c, 1, 68, 64
3, 53280, Note_on_c, 1, 71, 67
3, 53280, Note_on_c, 1, 68, 67
3, 53328, Note_off_c, 1, 71, 64
3, 53328, Note_off_c, 1, 68, 64
3, 53376, Note_on_c, 1, 71, 67
3, 53376, Note_on_c, 1, 68, 67
3, 53472, Note_off_c, 1, 71, 64
3, 53472, Note_off_c, 1, 68, 64
3, 53472, Note_on_c, 1, 74, 67
3, 53472, Note_on_c, 1, 71, 67
3, 53568, Note_off_c, 1, 74, 64
3, 53568, Note_off_c, 1, 71, 64
3, 53568, Note_on_c, 1, 74, 67
3, 53568, Note_on_c, 1, 71, 67
3, 53616, Note_off_c, 1, 74, 64
3, 53616, Note_off_c, 1, 71, 64
3, 53664, Note_on_c, 1, 74, 67
3, 53664, Note_on_c, 1, 71, 67
3, 53712, Note_off_c, 1, 74, 64
3, 53712, Note_off_c, 1, 71, 64
3, 53756, Note_off_c, 1, 68, 64
3, 53756, Note_off_c, 1, 74, 64
3, 53756, Note_off_c, 1, 71, 64
3, 53856, Note_on_c, 1, 63, 67
3, 53856, Note_on_c, 1, 59, 67
3, 53856, Note_on_c, 1, 56, 67
3, 53904, Note_off_c, 1, 63, 64
3, 53904, Note_off_c, 1, 59, 64
3, 53904, Note_off_c, 1, 56, 64
3, 53952, Note_on_c, 1, 63, 67
3, 53952, Note_on_c, 1, 59, 67
3, 53952, Note_on_c, 1, 56, 67
3, 54000, Note_off_c, 1, 63, 64
3, 54000, Note_off_c, 1, 59, 64
3, 54000, Note_off_c, 1, 56, 64
3, 54048, Note_on_c, 1, 63, 67
3, 54048, Note_on_c, 1, 59, 67
3, 54048, Note_on_c, 1, 56, 67
3, 54096, Note_off_c, 1, 63, 64
3, 54096, Note_off_c, 1, 59, 64
3, 54096, Note_off_c, 1, 56, 64
3, 54144, Note_on_c, 1, 63, 67
3, 54144, Note_on_c, 1, 59, 67
3, 54144, Note_on_c, 1, 56, 67
3, 54240, Note_off_c, 1, 63, 64
3, 54240, Note_off_c, 1, 59, 64
3, 54240, Note_off_c, 1, 56, 64
3, 54240, Note_on_c, 1, 68, 67
3, 54240, Note_on_c, 1, 63, 67
3, 54240, Note_on_c, 1, 59, 67
3, 54336, Note_off_c, 1, 68, 64
3, 54336, Note_off_c, 1, 63, 64
3, 54336, Note_off_c, 1, 59, 64
3, 54336, Note_on_c, 1, 68, 67
3, 54336, Note_on_c, 1, 63, 67
3, 54336, Note_on_c, 1, 59, 67
3, 54384, Note_off_c, 1, 68, 64
3, 54384, Note_off_c, 1, 63, 64
3, 54384, Note_off_c, 1, 59, 64
3, 54432, Note_on_c, 1, 68, 67
3, 54432, Note_on_c, 1, 63, 67
3, 54432, Note_on_c, 1, 59, 67
3, 54480, Note_off_c, 1, 68, 64
3, 54480, Note_off_c, 1, 63, 64
3, 54480, Note_off_c, 1, 59, 64
3, 54528, Note_on_c, 1, 68, 67
3, 54528, Note_on_c, 1, 65, 67
3, 54620, Note_off_c, 1, 68, 64
3, 54620, Note_off_c, 1, 65, 64
3, 54624, Note_on_c, 1, 68, 68
3, 54624, Note_on_c, 1, 65, 68
3, 54716, Note_off_c, 1, 68, 64
3, 54716, Note_off_c, 1, 65, 64
3, 54720, Note_on_c, 1, 68, 69
3, 54720, Note_on_c, 1, 65, 69
3, 54812, Note_off_c, 1, 68, 64
3, 54812, Note_off_c, 1, 65, 64
3, 54816, Note_on_c, 1, 68, 71
3, 54816, Note_on_c, 1, 65, 71
3, 54908, Note_off_c, 1, 68, 64
3, 54908, Note_off_c, 1, 65, 64
3, 54912, Note_on_c, 1, 70, 72
3, 54912, Note_on_c, 1, 65, 72
3, 55004, Note_off_c, 1, 70, 64
3, 55004, Note_off_c, 1, 65, 64
3, 55008, Note_on_c, 1, 70, 73
3, 55008, Note_on_c, 1, 65, 73
3, 55100, Note_off_c, 1, 70, 64
3, 55100, Note_off_c, 1, 65, 64
3, 55104, Note_on_c, 1, 70, 75
3, 55104, Note_on_c, 1, 65, 75
3, 55196, Note_off_c, 1, 70, 64
3, 55196, Note_off_c, 1, 65, 64
3, 55200, Note_on_c, 1, 65, 76
3, 55200, Note_on_c, 1, 70, 76
3, 55292, Note_off_c, 1, 65, 64
3, 55292, Note_off_c, 1, 70, 64
3, 55296, Note_on_c, 1, 64, 76
3, 55296, Note_on_c, 1, 70, 76
3, 55388, Note_off_c, 1, 64, 64
3, 55392, Note_on_c, 1, 67, 74
3, 55484, Note_off_c, 1, 70, 64
3, 55484, Note_off_c, 1, 67, 64
3, 55488, Note_on_c, 1, 67, 71
3, 55488, Note_on_c, 1, 70, 71
3, 55580, Note_off_c, 1, 67, 64
3, 55580, Note_off_c, 1, 70, 64
3, 55584, Note_on_c, 1, 67, 68
3, 55584, Note_on_c, 1, 70, 68
3, 55676, Note_off_c, 1, 67, 64
3, 55676, Note_off_c, 1, 70, 64
3, 55680, Note_on_c, 1, 68, 67
3, 55680, Note_on_c, 1, 80, 67
3, 55772, Note_off_c, 1, 80, 64
3, 55776, Note_on_c, 1, 75, 67
3, 55868, Note_off_c, 1, 68, 64
3, 55868, Note_off_c, 1, 75, 64
3, 55872, Note_on_c, 1, 68, 67
3, 55872, Note_on_c, 1, 76, 67
3, 55964, Note_off_c, 1, 76, 64
3, 55968, Note_on_c, 1, 73, 67
3, 56060, Note_off_c, 1, 68, 64
3, 56060, Note_off_c, 1, 73, 64
3, 56064, Note_on_c, 1, 71, 67
3, 56064, Note_on_c, 1, 68, 67
3, 56156, Note_off_c, 1, 71, 64
3, 56156, Note_off_c, 1, 68, 64
3, 56160, Note_on_c, 1, 71, 67
3, 56160, Note_on_c, 1, 68, 67
3, 56252, Note_off_c, 1, 71, 64
3, 56252, Note_off_c, 1, 68, 64
3, 56256, Note_on_c, 1, 71, 67
3, 56256, Note_on_c, 1, 68, 67
3, 56348, Note_off_c, 1, 71, 64
3, 56348, Note_off_c, 1, 68, 64
3, 56352, Note_on_c, 1, 71, 67
3, 56352, Note_on_c, 1, 68, 67
3, 56444, Note_off_c, 1, 71, 64
3, 56444, Note_off_c, 1, 68, 64
3, 56448, Note_on_c, 1, 70, 67
3, 56448, Note_on_c, 1, 67, 67
3, 56540, Note_off_c, 1, 70, 64
3, 56540, Note_off_c, 1, 67, 64
3, 56544, Note_on_c, 1, 70, 67
3, 56544, Note_on_c, 1, 67, 67
3, 56636, Note_off_c, 1, 70, 64
3, 56636, Note_off_c, 1, 67, 64
3, 56640, Note_on_c, 1, 70, 67
3, 56640, Note_on_c, 1, 67, 67
3, 56732, Note_off_c, 1, 70, 64
3, 56732, Note_off_c, 1, 67, 64
3, 56736, Note_on_c, 1, 70, 67
3, 56736, Note_on_c, 1, 67, 67
3, 56828, Note_off_c, 1, 70, 64
3, 56828, Note_off_c, 1, 67, 64
3, 56832, Note_on_c, 1, 68, 86
3, 56924, Note_off_c, 1, 68, 64
3, 56928, Note_on_c, 1, 71, 81
3, 57020, Note_off_c, 1, 71, 64
3, 57024, Note_on_c, 1, 75, 76
3, 57116, Note_off_c, 1, 75, 64
3, 57120, Note_on_c, 1, 71, 71
3, 57212, Note_off_c, 1, 71, 64
3, 57216, Note_on_c, 1, 68, 67
3, 57404, Note_off_c, 1, 68, 64
3, 57408, Note_on_c, 1, 80, 67
3, 57596, Note_off_c, 1, 80, 64
3, 57600, Note_on_c, 1, 68, 86
3, 57692, Note_off_c, 1, 68, 64
3, 57696, Note_on_c, 1, 73, 81
3, 57788, Note_off_c, 1, 73, 64
3, 57792, Note_on_c, 1, 76, 76
3, 57884, Note_off_c, 1, 76, 64
3, 57888, Note_on_c, 1, 73, 71
3, 57980, Note_off_c, 1, 73, 64
3, 57984, Note_on_c, 1, 68, 67
3, 58172, Note_off_c, 1, 68, 64
3, 58176, Note_on_c, 1, 80, 67
3, 58364, Note_off_c, 1, 80, 64
3, 58464, Note_on_c, 1, 71, 67
3, 58464, Note_on_c, 1, 68, 67
3, 58464, Note_on_c, 1, 63, 67
3, 58556, Note_off_c, 1, 71, 64
3, 58556, Note_off_c, 1, 68, 64
3, 58556, Note_off_c, 1, 63, 64
3, 58560, Note_on_c, 1, 71, 67
3, 58560, Note_on_c, 1, 68, 67
3, 58560, Note_on_c, 1, 63, 67
3, 58652, Note_off_c, 1, 71, 64
3, 58652, Note_off_c, 1, 68, 64
3, 58652, Note_off_c, 1, 63, 64
3, 58656, Note_on_c, 1, 71, 67
3, 58656, Note_on_c, 1, 68, 67
3, 58656, Note_on_c, 1, 63, 67
3, 58748, Note_off_c, 1, 71, 64
3, 58748, Note_off_c, 1, 68, 64
3, 58748, Note_off_c, 1, 63, 64
3, 58752, Note_on_c, 1, 71, 67
3, 58752, Note_on_c, 1, 68, 67
3, 58752, Note_on_c, 1, 59, 67
3, 58844, Note_off_c, 1, 71, 64
3, 58844, Note_off_c, 1, 68, 64
3, 58844, Note_off_c, 1, 59, 64
3, 58848, Note_on_c, 1, 71, 67
3, 58848, Note_on_c, 1, 68, 67
3, 58848, Note_on_c, 1, 59, 67
3, 58940, Note_off_c, 1, 71, 64
3, 58940, Note_off_c, 1, 68, 64
3, 58940, Note_off_c, 1, 59, 64
3, 58944, Note_on_c, 1, 71, 67
3, 58944, Note_on_c, 1, 68, 67
3, 58944, Note_on_c, 1, 59, 67
3, 59036, Note_off_c, 1, 71, 64
3, 59036, Note_off_c, 1, 68, 64
3, 59036, Note_off_c, 1, 59, 64
3, 59040, Note_on_c, 1, 71, 67
3, 59040, Note_on_c, 1, 68, 67
3, 59040, Note_on_c, 1, 59, 67
3, 59132, Note_off_c, 1, 71, 64
3, 59132, Note_off_c, 1, 68, 64
3, 59132, Note_off_c, 1, 59, 64
3, 59136, Note_on_c, 1, 69, 67
3, 59136, Note_on_c, 1, 68, 67
3, 59136, Note_on_c, 1, 64, 67
3, 59228, Note_off_c, 1, 69, 64
3, 59228, Note_off_c, 1, 68, 64
3, 59228, Note_off_c, 1, 64, 64
3, 59232, Note_on_c, 1, 69, 67
3, 59232, Note_on_c, 1, 68, 67
3, 59232, Note_on_c, 1, 64, 67
3, 59324, Note_off_c, 1, 69, 64
3, 59324, Note_off_c, 1, 68, 64
3, 59324, Note_off_c, 1, 64, 64
3, 59328, Note_on_c, 1, 69, 67
3, 59328, Note_on_c, 1, 68, 67
3, 59328, Note_on_c, 1, 64, 67
3, 59420, Note_off_c, 1, 69, 64
3, 59420, Note_off_c, 1, 68, 64
3, 59420, Note_off_c, 1, 64, 64
3, 59424, Note_on_c, 1, 69, 67
3, 59424, Note_on_c, 1, 68, 67
3, 59424, Note_on_c, 1, 64, 67
3, 59516, Note_off_c, 1, 69, 64
3, 59516, Note_off_c, 1, 68, 64
3, 59516, Note_off_c, 1, 64, 64
3, 59520, Note_on_c, 1, 69, 67
3, 59520, Note_on_c, 1, 66, 67
3, 59520, Note_on_c, 1, 63, 67
3, 59612, Note_off_c, 1, 69, 64
3, 59612, Note_off_c, 1, 66, 64
3, 59612, Note_off_c, 1, 63, 64
3, 59616, Note_on_c, 1, 69, 67
3, 59616, Note_on_c, 1, 66, 67
3, 59616, Note_on_c, 1, 63, 67
3, 59708, Note_off_c, 1, 69, 64
3, 59708, Note_off_c, 1, 66, 64
3, 59708, Note_off_c, 1, 63, 64
3, 59712, Note_on_c, 1, 69, 67
3, 59712, Note_on_c, 1, 66, 67
3, 59712, Note_on_c, 1, 63, 67
3, 59804, Note_off_c, 1, 69, 64
3, 59804, Note_off_c, 1, 66, 64
3, 59804, Note_off_c, 1, 63, 64
3, 59808, Note_on_c, 1, 69, 67
3, 59808, Note_on_c, 1, 66, 67
3, 59808, Note_on_c, 1, 63, 67
3, 59900, Note_off_c, 1, 69, 64
3, 59900, Note_off_c, 1, 66, 64
3, 59900, Note_off_c, 1, 63, 64
3, 59904, Note_on_c, 1, 68, 67
3, 59904, Note_on_c, 1, 66, 67
3, 59904, Note_on_c, 1, 63, 67
3, 59996, Note_off_c, 1, 68, 64
3, 59996, Note_off_c, 1, 66, 64
3, 59996, Note_off_c, 1, 63, 64
3, 60000, Note_on_c, 1, 68, 67
3, 60000, Note_on_c, 1, 66, 67
3, 60000, Note_on_c, 1, 63, 67
3, 60092, Note_off_c, 1, 68, 64
3, 60092, Note_off_c, 1, 66, 64
3, 60092, Note_off_c, 1, 63, 64
3, 60096, Note_on_c, 1, 68, 67
3, 60096, Note_on_c, 1, 66, 67
3, 60096, Note_on_c, 1, 63, 67
3, 60188, Note_off_c, 1, 68, 64
3, 60188, Note_off_c, 1, 66, 64
3, 60188, Note_off_c, 1, 63, 64
3, 60192, Note_on_c, 1, 68, 67
3, 60192, Note_on_c, 1, 66, 67
3, 60192, Note_on_c, 1, 63, 67
3, 60284, Note_off_c, 1, 68, 64
3, 60284, Note_off_c, 1, 66, 64
3, 60284, Note_off_c, 1, 63, 64
3, 60288, Note_on_c, 1, 68, 67
3, 60288, Note_on_c, 1, 64, 67
3, 60288, Note_on_c, 1, 61, 67
3, 60380, Note_off_c, 1, 68, 64
3, 60380, Note_off_c, 1, 64, 64
3, 60380, Note_off_c, 1, 61, 64
3, 60384, Note_on_c, 1, 68, 67
3, 60384, Note_on_c, 1, 64, 67
3, 60384, Note_on_c, 1, 61, 67
3, 60476, Note_off_c, 1, 68, 64
3, 60476, Note_off_c, 1, 64, 64
3, 60476, Note_off_c, 1, 61, 64
3, 60480, Note_on_c, 1, 68, 67
3, 60480, Note_on_c, 1, 64, 67
3, 60480, Note_on_c, 1, 61, 67
3, 60572, Note_off_c, 1, 68, 64
3, 60572, Note_off_c, 1, 64, 64
3, 60572, Note_off_c, 1, 61, 64
3, 60576, Note_on_c, 1, 68, 67
3, 60576, Note_on_c, 1, 64, 67
3, 60576, Note_on_c, 1, 61, 67
3, 60668, Note_off_c, 1, 68, 64
3, 60668, Note_off_c, 1, 64, 64
3, 60668, Note_off_c, 1, 61, 64
3, 60672, Note_on_c, 1, 66, 67
3, 60672, Note_on_c, 1, 64, 67
3, 60672, Note_on_c, 1, 61, 67
3, 60764, Note_off_c, 1, 66, 64
3, 60764, Note_off_c, 1, 64, 64
3, 60764, Note_off_c, 1, 61, 64
3, 60768, Note_on_c, 1, 76, 67
3, 60860, Note_off_c, 1, 76, 64
3, 60864, Note_on_c, 1, 75, 67
3, 60956, Note_off_c, 1, 75, 64
3, 60960, Note_on_c, 1, 76, 67
3, 61052, Note_off_c, 1, 76, 64
3, 61056, Note_on_c, 1, 78, 67
3, 61148, Note_off_c, 1, 78, 64
3, 61152, Note_on_c, 1, 76, 67
3, 61244, Note_off_c, 1, 76, 64
3, 61248, Note_on_c, 1, 75, 67
3, 61340, Note_off_c, 1, 75, 64
3, 61344, Note_on_c, 1, 76, 67
3, 61436, Note_off_c, 1, 76, 64
3, 61536, Note_on_c, 1, 76, 69
3, 61628, Note_off_c, 1, 76, 64
3, 61632, Note_on_c, 1, 75, 72
3, 61724, Note_off_c, 1, 75, 64
3, 61728, Note_on_c, 1, 76, 74
3, 61820, Note_off_c, 1, 76, 64
3, 61824, Note_on_c, 1, 78, 76
3, 61916, Note_off_c, 1, 78, 64
3, 61920, Note_on_c, 1, 76, 80
3, 62012, Note_off_c, 1, 76, 64
3, 62016, Note_on_c, 1, 75, 82
3, 62108, Note_off_c, 1, 75, 64
3, 62112, Note_on_c, 1, 76, 85
3, 62204, Note_off_c, 1, 76, 64
3, 62208, Note_on_c, 1, 76, 86
3, 62208, Note_on_c, 1, 64, 86
3, 62396, Note_off_c, 1, 76, 64
3, 62396, Note_off_c, 1, 64, 64
3, 62400, Note_on_c, 1, 71, 83
3, 62400, Note_on_c, 1, 64, 83
3, 62588, Note_off_c, 1, 71, 64
3, 62588, Note_off_c, 1, 64, 64
3, 62592, Note_on_c, 1, 71, 78
3, 62592, Note_on_c, 1, 66, 78
3, 62592, Note_on_c, 1, 63, 78
3, 62780, Note_off_c, 1, 71, 64
3, 62780, Note_off_c, 1, 66, 64
3, 62780, Note_off_c, 1, 63, 64
3, 62784, Note_on_c, 1, 71, 75
3, 62784, Note_on_c, 1, 68, 75
3, 62784, Note_on_c, 1, 64, 75
3, 62972, Note_off_c, 1, 71, 64
3, 62972, Note_off_c, 1, 68, 64
3, 62972, Note_off_c, 1, 64, 64
3, 62976, Note_on_c, 1, 68, 73
3, 62976, Note_on_c, 1, 64, 73
3, 63260, Note_off_c, 1, 68, 64
3, 63260, Note_off_c, 1, 64, 64
3, 63264, Note_on_c, 1, 71, 69
3, 63264, Note_on_c, 1, 68, 69
3, 63356, Note_off_c, 1, 71, 64
3, 63356, Note_off_c, 1, 68, 64
3, 63360, Note_on_c, 1, 66, 67
3, 63360, Note_on_c, 1, 63, 67
3, 63548, Note_off_c, 1, 66, 64
3, 63548, Note_off_c, 1, 63, 64
3, 63552, Note_on_c, 1, 71, 86
3, 63600, Note_off_c, 1, 71, 64
3, 63600, Note_on_c, 1, 75, 86
3, 63648, Note_off_c, 1, 75, 64
3, 63648, Note_on_c, 1, 78, 86
3, 63696, Note_off_c, 1, 78, 64
3, 63696, Note_on_c, 1, 81, 86
3, 63744, Note_off_c, 1, 81, 64
3, 63744, Note_on_c, 1, 80, 86
3, 63840, Note_off_c, 1, 80, 64
3, 63840, Note_on_c, 1, 83, 83
3, 63840, Note_on_c, 1, 80, 83
3, 63888, Note_off_c, 1, 83, 64
3, 63888, Note_off_c, 1, 80, 64
3, 63888, Note_on_c, 1, 76, 81
3, 63888, Note_on_c, 1, 80, 81
3, 63936, Note_off_c, 1, 76, 64
3, 63936, Note_off_c, 1, 80, 64
3, 64032, Note_on_c, 1, 80, 75
3, 64032, Note_on_c, 1, 76, 75
3, 64080, Note_off_c, 1, 80, 64
3, 64080, Note_off_c, 1, 76, 64
3, 64080, Note_on_c, 1, 76, 74
3, 64080, Note_on_c, 1, 73, 74
3, 64128, Note_off_c, 1, 76, 64
3, 64128, Note_off_c, 1, 73, 64
3, 64224, Note_on_c, 1, 78, 68
3, 64224, Note_on_c, 1, 75, 68
3, 64272, Note_off_c, 1, 78, 64
3, 64272, Note_off_c, 1, 75, 64
3, 64272, Note_on_c, 1, 75, 67
3, 64272, Note_on_c, 1, 71, 67
3, 64320, Note_off_c, 1, 75, 64
3, 64320, Note_off_c, 1, 71, 64
3, 64416, Note_on_c, 1, 76, 67
3, 64416, Note_on_c, 1, 73, 67
3, 64464, Note_off_c, 1, 76, 64
3, 64464, Note_off_c, 1, 73, 64
3, 64464, Note_on_c, 1, 73, 67
3, 64464, Note_on_c, 1, 70, 67
3, 64512, Note_off_c, 1, 73, 64
3, 64512, Note_off_c, 1, 70, 64
3, 64512, Note_on_c, 1, 71, 67
3, 64704, Note_off_c, 1, 71, 64
3, 65088, Note_on_c, 1, 71, 67
3, 65280, Note_off_c, 1, 71, 64
3, 65280, Note_on_c, 1, 69, 67
3, 65372, Note_off_c, 1, 69, 64
3, 65376, Note_on_c, 1, 68, 67
3, 65468, Note_off_c, 1, 68, 64
3, 65472, Note_on_c, 1, 73, 67
3, 65564, Note_off_c, 1, 73, 64
3, 65568, Note_on_c, 1, 69, 67
3, 65660, Note_off_c, 1, 69, 64
3, 65664, Note_on_c, 1, 68, 67
3, 65756, Note_off_c, 1, 68, 64
3, 65760, Note_on_c, 1, 66, 67
3, 65852, Note_off_c, 1, 66, 64
3, 65856, Note_on_c, 1, 71, 67
3, 65948, Note_off_c, 1, 71, 64
3, 65952, Note_on_c, 1, 68, 67
3, 66044, Note_off_c, 1, 68, 64
3, 66048, Note_on_c, 1, 66, 67
3, 66140, Note_off_c, 1, 66, 64
3, 66144, Note_on_c, 1, 64, 67
3, 66236, Note_off_c, 1, 64, 64
3, 66240, Note_on_c, 1, 68, 67
3, 66332, Note_off_c, 1, 68, 64
3, 66336, Note_on_c, 1, 73, 67
3, 66428, Note_off_c, 1, 73, 64
3, 66528, Note_on_c, 1, 69, 67
3, 66620, Note_off_c, 1, 69, 64
3, 66624, Note_on_c, 1, 66, 67
3, 66716, Note_off_c, 1, 66, 64
3, 66720, Note_on_c, 1, 71, 67
3, 66812, Note_off_c, 1, 71, 64
3, 66816, Note_on_c, 1, 69, 67
3, 66908, Note_off_c, 1, 69, 64
3, 66912, Note_on_c, 1, 68, 67
3, 67004, Note_off_c, 1, 68, 64
3, 67008, Note_on_c, 1, 73, 86
3, 67008, Note_on_c, 1, 69, 86
3, 67196, Note_off_c, 1, 73, 64
3, 67196, Note_off_c, 1, 69, 64
3, 67200, Note_on_c, 1, 75, 77
3, 67200, Note_on_c, 1, 66, 77
3, 67388, Note_off_c, 1, 75, 64
3, 67388, Note_off_c, 1, 66, 64
3, 67392, Note_on_c, 1, 76, 68
3, 67392, Note_on_c, 1, 64, 68
3, 67524, Note_off_c, 1, 76, 64
3, 67524, Note_off_c, 1, 64, 64
3, 67776, Note_on_c, 1, 71, 86
3, 67776, Note_on_c, 1, 68, 86
3, 67964, Note_off_c, 1, 71, 64
3, 67964, Note_off_c, 1, 68, 64
3, 67968, Note_on_c, 1, 70, 77
3, 67968, Note_on_c, 1, 66, 77
3, 68156, Note_off_c, 1, 70, 64
3, 68156, Note_off_c, 1, 66, 64
3, 68160, Note_on_c, 1, 69, 68
3, 68160, Note_on_c, 1, 66, 68
3, 68348, Note_off_c, 1, 69, 64
3, 68348, Note_off_c, 1, 66, 64
3, 68352, Note_on_c, 1, 69, 67
3, 68352, Note_on_c, 1, 66, 67
3, 68444, Note_off_c, 1, 69, 64
3, 68444, Note_off_c, 1, 66, 64
3, 68448, Note_on_c, 1, 67, 67
3, 68448, Note_on_c, 1, 64, 67
3, 68540, Note_off_c, 1, 67, 64
3, 68540, Note_off_c, 1, 64, 64
3, 68544, Note_on_c, 1, 67, 67
3, 68544, Note_on_c, 1, 64, 67
3, 68636, Note_off_c, 1, 67, 64
3, 68636, Note_off_c, 1, 64, 64
3, 68640, Note_on_c, 1, 67, 67
3, 68640, Note_on_c, 1, 64, 67
3, 68732, Note_off_c, 1, 67, 64
3, 68732, Note_off_c, 1, 64, 64
3, 68736, Note_on_c, 1, 67, 67
3, 68736, Note_on_c, 1, 64, 67
3, 68828, Note_off_c, 1, 67, 64
3, 68828, Note_off_c, 1, 64, 64
3, 68832, Note_on_c, 1, 64, 67
3, 68832, Note_on_c, 1, 61, 67
3, 68924, Note_off_c, 1, 64, 64
3, 68924, Note_off_c, 1, 61, 64
3, 68928, Note_on_c, 1, 64, 67
3, 68928, Note_on_c, 1, 61, 67
3, 69020, Note_off_c, 1, 64, 64
3, 69020, Note_off_c, 1, 61, 64
3, 69024, Note_on_c, 1, 64, 67
3, 69024, Note_on_c, 1, 61, 67
3, 69116, Note_off_c, 1, 64, 64
3, 69116, Note_off_c, 1, 61, 64
3, 69120, Note_on_c, 1, 64, 67
3, 69120, Note_on_c, 1, 59, 67
3, 69212, Note_off_c, 1, 64, 64
3, 69212, Note_off_c, 1, 59, 64
3, 69216, Note_on_c, 1, 68, 67
3, 69216, Note_on_c, 1, 64, 67
3, 69308, Note_off_c, 1, 68, 64
3, 69308, Note_off_c, 1, 64, 64
3, 69312, Note_on_c, 1, 76, 67
3, 69312, Note_on_c, 1, 64, 67
3, 69404, Note_off_c, 1, 76, 64
3, 69404, Note_off_c, 1, 64, 64
3, 69408, Note_on_c, 1, 76, 67
3, 69408, Note_on_c, 1, 69, 67
3, 69500, Note_off_c, 1, 76, 64
3, 69500, Note_off_c, 1, 69, 64
3, 69504, Note_on_c, 1, 76, 67
3, 69504, Note_on_c, 1, 73, 67
3, 69596, Note_off_c, 1, 76, 64
3, 69596, Note_off_c, 1, 73, 64
3, 69600, Note_on_c, 1, 76, 67
3, 69600, Note_on_c, 1, 73, 67
3, 69692, Note_off_c, 1, 76, 64
3, 69692, Note_off_c, 1, 73, 64
3, 69696, Note_on_c, 1, 75, 67
3, 69696, Note_on_c, 1, 71, 67
3, 69788, Note_off_c, 1, 75, 64
3, 69788, Note_off_c, 1, 71, 64
3, 69792, Note_on_c, 1, 75, 67
3, 69792, Note_on_c, 1, 69, 67
3, 69884, Note_off_c, 1, 75, 64
3, 69884, Note_off_c, 1, 69, 64
3, 69888, Note_on_c, 1, 76, 86
3, 69888, Note_on_c, 1, 68, 86
3, 69980, Note_off_c, 1, 76, 64
3, 69980, Note_off_c, 1, 68, 64
3, 69984, Note_on_c, 1, 75, 86
3, 69984, Note_on_c, 1, 66, 86
3, 70024, Note_off_c, 1, 75, 64
3, 70024, Note_off_c, 1, 66, 64
3, 70032, Note_on_c, 1, 76, 90
3, 70032, Note_on_c, 1, 68, 90
3, 70072, Note_off_c, 1, 76, 64
3, 70072, Note_off_c, 1, 68, 64
3, 70176, Note_on_c, 1, 76, 89
3, 70176, Note_on_c, 1, 73, 89
3, 70216, Note_off_c, 1, 76, 64
3, 70216, Note_off_c, 1, 73, 64
3, 70224, Note_on_c, 1, 73, 84
3, 70224, Note_on_c, 1, 69, 84
3, 70264, Note_off_c, 1, 73, 64
3, 70264, Note_off_c, 1, 69, 64
3, 70272, Control_c, 1, 1, 40
3, 70368, Note_on_c, 1, 71, 85
3, 70368, Note_on_c, 1, 68, 85
3, 70408, Note_off_c, 1, 71, 64
3, 70408, Note_off_c, 1, 68, 64
3, 70416, Note_on_c, 1, 68, 77
3, 70416, Note_on_c, 1, 64, 77
3, 70456, Note_off_c, 1, 68, 64
3, 70456, Note_off_c, 1, 64, 64
3, 70560, Note_on_c, 1, 69, 78
3, 70560, Note_on_c, 1, 66, 78
3, 70600, Note_off_c, 1, 69, 64
3, 70600, Note_off_c, 1, 66, 64
3, 70608, Note_on_c, 1, 66, 73
3, 70608, Note_on_c, 1, 63, 73
3, 70648, Note_off_c, 1, 66, 64
3, 70648, Note_off_c, 1, 63, 64
3, 70656, Note_on_c, 1, 64, 71
3, 70844, Note_off_c, 1, 64, 64
3, 71520, Note_on_c, 1, 64, 67
3, 71612, Note_off_c, 1, 64, 64
3, 71616, Note_on_c, 1, 71, 67
3, 71616, Note_on_c, 1, 67, 67
3, 71708, Note_off_c, 1, 71, 64
3, 71708, Note_off_c, 1, 67, 64
3, 71712, Note_on_c, 1, 64, 67
3, 71804, Note_off_c, 1, 64, 64
3, 71808, Note_on_c, 1, 71, 67
3, 71808, Note_on_c, 1, 67, 67
3, 71900, Note_off_c, 1, 71, 64
3, 71900, Note_off_c, 1, 67, 64
3, 71904, Note_on_c, 1, 64, 67
3, 71996, Note_off_c, 1, 64, 64
3, 72000, Note_on_c, 1, 71, 67
3, 72000, Note_on_c, 1, 67, 67
3, 72092, Note_off_c, 1, 71, 64
3, 72092, Note_off_c, 1, 67, 64
3, 72096, Note_on_c, 1, 64, 67
3, 72188, Note_off_c, 1, 64, 64
3, 72288, Note_on_c, 1, 64, 67
3, 72380, Note_off_c, 1, 64, 64
3, 72384, Note_on_c, 1, 72, 67
3, 72384, Note_on_c, 1, 67, 67
3, 72476, Note_off_c, 1, 72, 64
3, 72476, Note_off_c, 1, 67, 64
3, 72480, Note_on_c, 1, 64, 67
3, 72572, Note_off_c, 1, 64, 64
3, 72576, Note_on_c, 1, 72, 67
3, 72576, Note_on_c, 1, 67, 67
3, 72668, Note_off_c, 1, 72, 64
3, 72668, Note_off_c, 1, 67, 64
3, 72672, Note_on_c, 1, 64, 67
3, 72764, Note_off_c, 1, 64, 64
3, 72768, Note_on_c, 1, 72, 67
3, 72768, Note_on_c, 1, 67, 67
3, 72860, Note_off_c, 1, 72, 64
3, 72860, Note_off_c, 1, 67, 64
3, 72864, Note_on_c, 1, 64, 67
3, 72956, Note_off_c, 1, 64, 64
3, 73056, Note_on_c, 1, 64, 67
3, 73148, Note_off_c, 1, 64, 64
3, 73152, Note_on_c, 1, 72, 67
3, 73152, Note_on_c, 1, 66, 67
3, 73244, Note_off_c, 1, 72, 64
3, 73244, Note_off_c, 1, 66, 64
3, 73248, Note_on_c, 1, 64, 67
3, 73340, Note_off_c, 1, 64, 64
3, 73344, Note_on_c, 1, 73, 67
3, 73344, Note_on_c, 1, 66, 67
3, 73436, Note_off_c, 1, 73, 64
3, 73436, Note_off_c, 1, 66, 64
3, 73440, Note_on_c, 1, 64, 67
3, 73532, Note_off_c, 1, 64, 64
3, 73536, Note_on_c, 1, 73, 67
3, 73536, Note_on_c, 1, 67, 67
3, 73628, Note_off_c, 1, 73, 64
3, 73628, Note_off_c, 1, 67, 64
3, 73632, Note_on_c, 1, 64, 67
3, 73724, Note_off_c, 1, 64, 64
3, 73824, Note_on_c, 1, 63, 67
3, 73916, Note_off_c, 1, 63, 64
3, 73920, Note_on_c, 1, 66, 67
3, 73920, Note_on_c, 1, 71, 67
3, 74012, Note_off_c, 1, 66, 64
3, 74012, Note_off_c, 1, 71, 64
3, 74016, Note_on_c, 1, 63, 67
3, 74108, Note_off_c, 1, 63, 64
3, 74112, Note_on_c, 1, 66, 67
3, 74112, Note_on_c, 1, 71, 67
3, 74204, Note_off_c, 1, 66, 64
3, 74204, Note_off_c, 1, 71, 64
3, 74208, Note_on_c, 1, 63, 67
3, 74300, Note_off_c, 1, 63, 64
3, 74304, Note_on_c, 1, 66, 67
3, 74304, Note_on_c, 1, 71, 67
3, 74396, Note_off_c, 1, 66, 64
3, 74396, Note_off_c, 1, 71, 64
3, 74400, Note_on_c, 1, 63, 67
3, 74492, Note_off_c, 1, 63, 64
3, 74592, Note_on_c, 1, 64, 67
3, 74780, Note_off_c, 1, 64, 64
3, 74784, Note_on_c, 1, 64, 67
3, 74960, Note_on_c, 1, 64, 67
3, 74972, Note_off_c, 1, 64, 64
3, 75148, Note_off_c, 1, 64, 64
3, 75168, Note_on_c, 1, 65, 67
3, 75260, Note_off_c, 1, 65, 64
3, 75264, Note_on_c, 1, 66, 67
3, 75308, Note_off_c, 1, 66, 64
3, 75312, Note_on_c, 1, 68, 67
3, 75356, Note_off_c, 1, 68, 64
3, 75360, Note_on_c, 1, 69, 67
3, 75404, Note_off_c, 1, 69, 64
3, 75408, Note_on_c, 1, 68, 67
3, 75452, Note_off_c, 1, 68, 64
3, 75456, Note_on_c, 1, 66, 67
3, 75500, Note_off_c, 1, 66, 64
3, 75504, Note_on_c, 1, 68, 67
3, 75504, Note_on_c, 1, 64, 67
3, 75548, Note_off_c, 1, 68, 64
3, 75548, Note_off_c, 1, 64, 64
3, 75552, Note_on_c, 1, 66, 67
3, 75552, Note_on_c, 1, 63, 67
3, 75596, Note_off_c, 1, 66, 64
3, 75596, Note_off_c, 1, 63, 64
3, 75600, Note_on_c, 1, 64, 67
3, 75600, Note_on_c, 1, 61, 67
3, 75644, Note_off_c, 1, 64, 64
3, 75644, Note_off_c, 1, 61, 64
3, 75648, Note_on_c, 1, 63, 67
3, 75648, Note_on_c, 1, 59, 67
3, 75836, Note_off_c, 1, 63, 64
3, 75836, Note_off_c, 1, 59, 64
3, 75840, Note_on_c, 1, 71, 67
3, 75840, Note_on_c, 1, 66, 67
3, 76028, Note_off_c, 1, 71, 64
3, 76028, Note_off_c, 1, 66, 64
3, 76032, Note_on_c, 1, 71, 67
3, 76032, Note_on_c, 1, 64, 67
3, 76220, Note_off_c, 1, 71, 64
3, 76220, Note_off_c, 1, 64, 64
3, 76416, Note_on_c, 1, 73, 67
3, 76416, Note_on_c, 1, 64, 67
3, 76604, Note_off_c, 1, 73, 64
3, 76604, Note_off_c, 1, 64, 64
3, 76992, Note_on_c, 1, 68, 67
3, 76992, Note_on_c, 1, 64, 67
3, 77180, Note_off_c, 1, 68, 64
3, 77180, Note_off_c, 1, 64, 64
3, 77184, Note_on_c, 1, 66, 67
3, 77184, Note_on_c, 1, 63, 67
3, 77276, Note_off_c, 1, 66, 64
3, 77276, Note_off_c, 1, 63, 64
3, 77280, Note_on_c, 1, 66, 67
3, 77372, Note_off_c, 1, 66, 64
3, 77376, Note_on_c, 1, 71, 67
3, 77376, Note_on_c, 1, 59, 67
3, 77468, Note_off_c, 1, 71, 64
3, 77468, Note_off_c, 1, 59, 64
3, 77472, Note_on_c, 1, 71, 67
3, 77472, Note_on_c, 1, 59, 67
3, 77564, Note_off_c, 1, 71, 64
3, 77564, Note_off_c, 1, 59, 64
3, 77568, Note_on_c, 1, 68, 67
3, 77568, Note_on_c, 1, 64, 67
3, 77664, Note_off_c, 1, 68, 64
3, 77664, Note_off_c, 1, 64, 64
3, 77664, Note_on_c, 1, 76, 71
3, 77704, Note_off_c, 1, 76, 64
3, 77712, Note_on_c, 1, 75, 67
3, 77752, Note_off_c, 1, 75, 64
3, 77760, Note_on_c, 1, 71, 67
3, 77760, Note_on_c, 1, 68, 67
3, 77856, Note_off_c, 1, 71, 64
3, 77856, Note_off_c, 1, 68, 64
3, 77856, Note_on_c, 1, 73, 71
3, 77896, Note_off_c, 1, 73, 64
3, 77904, Note_on_c, 1, 71, 67
3, 77944, Note_off_c, 1, 71, 64
3, 77952, Note_on_c, 1, 68, 67
3, 77952, Note_on_c, 1, 64, 67
3, 78048, Note_off_c, 1, 68, 64
3, 78048, Note_off_c, 1, 64, 64
3, 78048, Note_on_c, 1, 76, 71
3, 78088, Note_off_c, 1, 76, 64
3, 78096, Note_on_c, 1, 75, 67
3, 78136, Note_off_c, 1, 75, 64
3, 78144, Note_on_c, 1, 71, 67
3, 78144, Note_on_c, 1, 68, 67
3, 78240, Note_off_c, 1, 71, 64
3, 78240, Note_off_c, 1, 68, 64
3, 78240, Note_on_c, 1, 73, 71
3, 78280, Note_off_c, 1, 73, 64
3, 78288, Note_on_c, 1, 71, 67
3, 78328, Note_off_c, 1, 71, 64
3, 78336, Note_on_c, 1, 63, 67
3, 78336, Note_on_c, 1, 59, 67
3, 78432, Note_off_c, 1, 63, 64
3, 78432, Note_off_c, 1, 59, 64
3, 78432, Note_on_c, 1, 71, 71
3, 78472, Note_off_c, 1, 71, 64
3, 78480, Note_on_c, 1, 69, 67
3, 78520, Note_off_c, 1, 69, 64
3, 78528, Note_on_c, 1, 66, 67
3, 78528, Note_on_c, 1, 63, 67
3, 78624, Note_off_c, 1, 66, 64
3, 78624, Note_off_c, 1, 63, 64
3, 78624, Note_on_c, 1, 68, 71
3, 78664, Note_off_c, 1, 68, 64
3, 78672, Note_on_c, 1, 66, 67
3, 78712, Note_off_c, 1, 66, 64
3, 78720, Note_on_c, 1, 63, 67
3, 78720, Note_on_c, 1, 59, 67
3, 78800, Note_on_c, 1, 71, 71
3, 78816, Note_off_c, 1, 63, 64
3, 78816, Note_off_c, 1, 59, 64
3, 78840, Note_off_c, 1, 71, 64
3, 78864, Note_on_c, 1, 69, 67
3, 78904, Note_off_c, 1, 69, 64
3, 78912, Note_on_c, 1, 66, 67
3, 78912, Note_on_c, 1, 63, 67
3, 79008, Note_off_c, 1, 66, 64
3, 79008, Note_off_c, 1, 63, 64
3, 79008, Note_on_c, 1, 68, 71
3, 79048, Note_off_c, 1, 68, 64
3, 79056, Note_on_c, 1, 66, 67
3, 79096, Note_off_c, 1, 66, 64
3, 79200, Note_on_c, 1, 76, 71
3, 79240, Note_off_c, 1, 76, 64
3, 79248, Note_on_c, 1, 75, 67
3, 79288, Note_off_c, 1, 75, 64
3, 79392, Note_on_c, 1, 73, 71
3, 79432, Note_off_c, 1, 73, 64
3, 79440, Note_on_c, 1, 71, 67
3, 79480, Note_off_c, 1, 71, 64
3, 79584, Note_on_c, 1, 76, 71
3, 79624, Note_off_c, 1, 76, 64
3, 79632, Note_on_c, 1, 75, 67
3, 79672, Note_off_c, 1, 75, 64
3, 79776, Note_on_c, 1, 73, 71
3, 79816, Note_off_c, 1, 73, 64
3, 79824, Note_on_c, 1, 71, 67
3, 79864, Note_off_c, 1, 71, 64
3, 79968, Note_on_c, 1, 83, 71
3, 80008, Note_off_c, 1, 83, 64
3, 80016, Note_on_c, 1, 81, 67
3, 80056, Note_off_c, 1, 81, 64
3, 80160, Note_on_c, 1, 80, 71
3, 80200, Note_off_c, 1, 80, 64
3, 80208, Note_on_c, 1, 78, 67
3, 80248, Note_off_c, 1, 78, 64
3, 80352, Note_on_c, 1, 83, 71
3, 80392, Note_off_c, 1, 83, 64
3, 80400, Note_on_c, 1, 81, 67
3, 80440, Note_off_c, 1, 81, 64
3, 80544, Note_on_c, 1, 80, 71
3, 80584, Note_off_c, 1, 80, 64
3, 80592, Note_on_c, 1, 78, 67
3, 80632, Note_off_c, 1, 78, 64
3, 80640, Note_on_c, 1, 78, 67
3, 80640, Note_on_c, 1, 71, 67
3, 80684, Note_off_c, 1, 78, 64
3, 80688, Note_on_c, 1, 76, 67
3, 80732, Note_off_c, 1, 76, 64
3, 80736, Note_on_c, 1, 81, 67
3, 80780, Note_off_c, 1, 81, 64
3, 80784, Note_on_c, 1, 80, 67
3, 80828, Note_off_c, 1, 80, 64
3, 80832, Note_on_c, 1, 80, 67
3, 81020, Note_off_c, 1, 71, 64
3, 81020, Note_off_c, 1, 80, 64
3, 81024, Note_on_c, 1, 80, 67
3, 81024, Note_on_c, 1, 71, 67
3, 81116, Note_off_c, 1, 80, 64
3, 81116, Note_off_c, 1, 71, 64
3, 81600, Note_on_c, 1, 71, 67
3, 81600, Note_on_c, 1, 68, 67
3, 81788, Note_off_c, 1, 71, 64
3, 81788, Note_off_c, 1, 68, 64
3, 81792, Note_on_c, 1, 71, 67
3, 81792, Note_on_c, 1, 68, 67
3, 81980, Note_off_c, 1, 71, 64
3, 81980, Note_off_c, 1, 68, 64
3, 81984, Note_on_c, 1, 76, 67
3, 81984, Note_on_c, 1, 68, 67
3, 82172, Note_off_c, 1, 76, 64
3, 82172, Note_off_c, 1, 68, 64
3, 82368, Note_on_c, 1, 76, 67
3, 82368, Note_on_c, 1, 69, 67
3, 82556, Note_off_c, 1, 76, 64
3, 82556, Note_off_c, 1, 69, 64
3, 82560, Note_on_c, 1, 76, 67
3, 82560, Note_on_c, 1, 69, 67
3, 82748, Note_off_c, 1, 76, 64
3, 82748, Note_off_c, 1, 69, 64
3, 82752, Note_on_c, 1, 76, 67
3, 82752, Note_on_c, 1, 69, 67
3, 82940, Note_off_c, 1, 76, 64
3, 82940, Note_off_c, 1, 69, 64
3, 82944, Note_on_c, 1, 76, 67
3, 82944, Note_on_c, 1, 71, 67
3, 83132, Note_off_c, 1, 76, 64
3, 83132, Note_off_c, 1, 71, 64
3, 83136, Note_on_c, 1, 76, 67
3, 83136, Note_on_c, 1, 71, 67
3, 83324, Note_off_c, 1, 76, 64
3, 83324, Note_off_c, 1, 71, 64
3, 83328, Note_on_c, 1, 75, 67
3, 83328, Note_on_c, 1, 71, 67
3, 83516, Note_off_c, 1, 75, 64
3, 83516, Note_off_c, 1, 71, 64
3, 83520, Note_on_c, 1, 75, 67
3, 83520, Note_on_c, 1, 71, 67
3, 83708, Note_off_c, 1, 75, 64
3, 83708, Note_off_c, 1, 71, 64
3, 83712, Note_on_c, 1, 75, 67
3, 83904, Note_on_c, 1, 71, 67
3, 84092, Note_off_c, 1, 75, 64
3, 84092, Note_off_c, 1, 71, 64
3, 84096, Note_on_c, 1, 76, 67
3, 84096, Note_on_c, 1, 64, 67
3, 84284, Note_off_c, 1, 76, 64
3, 84284, Note_off_c, 1, 64, 64
3, 84480, Note_on_c, 1, 59, 67
3, 84572, Note_off_c, 1, 59, 64
3, 84576, Note_on_c, 1, 59, 67
3, 84668, Note_off_c, 1, 59, 64
3, 84672, Note_on_c, 1, 63, 67
3, 84764, Note_off_c, 1, 63, 64
3, 84768, Note_on_c, 1, 59, 67
3, 84860, Note_off_c, 1, 59, 64
3, 84864, Note_on_c, 1, 64, 67
3, 84956, Note_off_c, 1, 64, 64
3, 84960, Note_on_c, 1, 59, 67
3, 85148, Note_off_c, 1, 59, 64
3, 85152, Note_on_c, 1, 59, 67
3, 85244, Note_off_c, 1, 59, 64
3, 85248, Note_on_c, 1, 59, 67
3, 85296, Note_off_c, 1, 59, 64
3, 85344, Note_on_c, 1, 59, 67
3, 85436, Note_off_c, 1, 59, 64
3, 85440, Note_on_c, 1, 63, 67
3, 85532, Note_off_c, 1, 63, 64
3, 85536, Note_on_c, 1, 59, 67
3, 85628, Note_off_c, 1, 59, 64
3, 85632, Note_on_c, 1, 64, 67
3, 85712, Note_on_c, 1, 59, 67
3, 85724, Note_off_c, 1, 64, 64
3, 85900, Note_off_c, 1, 59, 64
3, 85920, Note_on_c, 1, 59, 67
3, 86012, Note_off_c, 1, 59, 64
3, 86016, Note_on_c, 1, 64, 67
3, 86108, Note_off_c, 1, 64, 64
3, 86112, Note_on_c, 1, 64, 67
3, 86300, Note_off_c, 1, 64, 64
3, 86304, Note_on_c, 1, 64, 67
3, 86396, Note_off_c, 1, 64, 64
3, 86400, Note_on_c, 1, 64, 67
3, 86444, Note_off_c, 1, 64, 64
3, 86448, Note_on_c, 1, 66, 67
3, 86492, Note_off_c, 1, 66, 64
3, 86496, Note_on_c, 1, 68, 67
3, 86540, Note_off_c, 1, 68, 64
3, 86544, Note_on_c, 1, 69, 67
3, 86588, Note_off_c, 1, 69, 64
3, 86592, Note_on_c, 1, 68, 67
3, 86636, Note_off_c, 1, 68, 64
3, 86640, Note_on_c, 1, 66, 67
3, 86684, Note_off_c, 1, 66, 64
3, 86688, Note_on_c, 1, 64, 67
3, 86732, Note_off_c, 1, 64, 64
3, 86736, Note_on_c, 1, 63, 67
3, 86780, Note_off_c, 1, 63, 64
3, 86784, Note_on_c, 1, 68, 86
3, 86784, Note_on_c, 1, 64, 86
3, 86880, Note_on_c, 1, 59, 86
3, 86972, Note_off_c, 1, 59, 64
3, 86976, Note_on_c, 1, 59, 86
3, 87068, Note_off_c, 1, 59, 64
3, 87072, Note_on_c, 1, 59, 86
3, 87164, Note_off_c, 1, 68, 64
3, 87164, Note_off_c, 1, 64, 64
3, 87164, Note_off_c, 1, 59, 64
3, 87168, Note_on_c, 1, 59, 93
3, 87168, Note_on_c, 1, 69, 93
3, 87192, Note_off_c, 1, 59, 64
3, 87192, Note_off_c, 1, 69, 64
3, 87192, Note_on_c, 1, 68, 86
3, 87216, Note_off_c, 1, 68, 64
3, 87216, Note_on_c, 1, 66, 86
3, 87240, Note_off_c, 1, 66, 64
3, 87240, Note_on_c, 1, 64, 86
3, 87264, Note_off_c, 1, 64, 64
3, 87264, Note_on_c, 1, 63, 86
3, 87312, Note_off_c, 1, 63, 64
3, 87648, Note_on_c, 1, 71, 67
3, 87740, Note_off_c, 1, 71, 64
3, 87744, Note_on_c, 1, 73, 67
3, 87836, Note_off_c, 1, 73, 64
3, 87840, Note_on_c, 1, 71, 67
3, 87932, Note_off_c, 1, 71, 64
3, 87936, Note_on_c, 1, 67, 67
3, 88016, Note_on_c, 1, 68, 67
3, 88028, Note_off_c, 1, 67, 64
3, 88108, Note_off_c, 1, 68, 64
3, 88128, Note_on_c, 1, 69, 67
3, 88220, Note_off_c, 1, 69, 64
3, 88224, Note_on_c, 1, 66, 67
3, 88316, Note_off_c, 1, 66, 64
3, 88320, Note_on_c, 1, 68, 86
3, 88320, Note_on_c, 1, 64, 86
3, 88416, Note_on_c, 1, 59, 86
3, 88508, Note_off_c, 1, 59, 64
3, 88512, Note_on_c, 1, 59, 86
3, 88604, Note_off_c, 1, 59, 64
3, 88608, Note_on_c, 1, 59, 86
3, 88700, Note_off_c, 1, 68, 64
3, 88700, Note_off_c, 1, 64, 64
3, 88700, Note_off_c, 1, 59, 64
3, 88704, Note_on_c, 1, 59, 93
3, 88704, Note_on_c, 1, 69, 93
3, 88728, Note_off_c, 1, 59, 64
3, 88728, Note_off_c, 1, 69, 64
3, 88728, Note_on_c, 1, 68, 86
3, 88752, Note_off_c, 1, 68, 64
3, 88752, Note_on_c, 1, 66, 86
3, 88776, Note_off_c, 1, 66, 64
3, 88776, Note_on_c, 1, 64, 86
3, 88800, Note_off_c, 1, 64, 64
3, 88800, Note_on_c, 1, 63, 86
3, 88848, Note_off_c, 1, 63, 64
3, 89184, Note_on_c, 1, 76, 67
3, 89184, Note_on_c, 1, 64, 67
3, 89280, Note_on_c, 1, 68, 67
3, 89372, Note_off_c, 1, 76, 64
3, 89372, Note_off_c, 1, 64, 64
3, 89376, Note_on_c, 1, 76, 67
3, 89376, Note_on_c, 1, 64, 67
3, 89468, Note_off_c, 1, 68, 64
3, 89472, Note_on_c, 1, 69, 67
3, 89564, Note_off_c, 1, 76, 64
3, 89564, Note_off_c, 1, 64, 64
3, 89568, Note_on_c, 1, 64, 67
3, 89584, Note_on_c, 1, 76, 67
3, 89660, Note_off_c, 1, 69, 64
3, 89756, Note_off_c, 1, 64, 64
3, 89760, Note_on_c, 1, 76, 67
3, 89760, Note_on_c, 1, 64, 67
3, 89772, Note_off_c, 1, 76, 64
3, 89852, Note_off_c, 1, 76, 64
3, 89852, Note_off_c, 1, 64, 64
3, 89856, Note_on_c, 1, 76, 67
3, 89856, Note_on_c, 1, 64, 67
3, 90044, Note_off_c, 1, 76, 64
3, 90044, Note_off_c, 1, 64, 64
3, 90240, Note_on_c, 1, 69, 67
3, 90240, Note_on_c, 1, 64, 67
3, 90428, Note_off_c, 1, 69, 64
3, 90428, Note_off_c, 1, 64, 64
3, 90720, Note_on_c, 1, 68, 71
3, 90720, Note_on_c, 1, 64, 71
3, 90720, Note_on_c, 1, 59, 71
3, 90800, Note_on_c, 1, 59, 71
3, 90812, Note_off_c, 1, 68, 64
3, 90812, Note_off_c, 1, 64, 64
3, 90812, Note_off_c, 1, 59, 64
3, 90816, Note_on_c, 1, 68, 71
3, 90816, Note_on_c, 1, 64, 71
3, 90892, Note_off_c, 1, 59, 64
3, 90908, Note_off_c, 1, 68, 64
3, 90908, Note_off_c, 1, 64, 64
3, 90912, Note_on_c, 1, 68, 71
3, 90912, Note_on_c, 1, 64, 71
3, 90912, Note_on_c, 1, 59, 71
3, 91004, Note_off_c, 1, 68, 64
3, 91004, Note_off_c, 1, 64, 64
3, 91004, Note_off_c, 1, 59, 64
3, 91008, Note_on_c, 1, 68, 71
3, 91008, Note_on_c, 1, 64, 71
3, 91008, Note_on_c, 1, 59, 71
3, 91100, Note_off_c, 1, 68, 64
3, 91100, Note_off_c, 1, 64, 64
3, 91100, Note_off_c, 1, 59, 64
3, 91104, Note_on_c, 1, 68, 71
3, 91104, Note_on_c, 1, 64, 71
3, 91104, Note_on_c, 1, 59, 71
3, 91196, Note_off_c, 1, 68, 64
3, 91196, Note_off_c, 1, 64, 64
3, 91196, Note_off_c, 1, 59, 64
3, 91200, Note_on_c, 1, 68, 71
3, 91200, Note_on_c, 1, 64, 71
3, 91200, Note_on_c, 1, 59, 71
3, 91292, Note_off_c, 1, 68, 64
3, 91292, Note_off_c, 1, 64, 64
3, 91292, Note_off_c, 1, 59, 64
3, 91296, Note_on_c, 1, 68, 71
3, 91296, Note_on_c, 1, 64, 71
3, 91296, Note_on_c, 1, 59, 71
3, 91388, Note_off_c, 1, 68, 64
3, 91388, Note_off_c, 1, 64, 64
3, 91388, Note_off_c, 1, 59, 64
3, 91392, Note_on_c, 1, 66, 72
3, 91392, Note_on_c, 1, 64, 72
3, 91392, Note_on_c, 1, 59, 72
3, 91484, Note_off_c, 1, 66, 64
3, 91484, Note_off_c, 1, 64, 64
3, 91484, Note_off_c, 1, 59, 64
3, 91488, Note_on_c, 1, 66, 76
3, 91488, Note_on_c, 1, 64, 76
3, 91488, Note_on_c, 1, 59, 76
3, 91580, Note_off_c, 1, 66, 64
3, 91580, Note_off_c, 1, 64, 64
3, 91580, Note_off_c, 1, 59, 64
3, 91584, Note_on_c, 1, 66, 80
3, 91584, Note_on_c, 1, 64, 80
3, 91584, Note_on_c, 1, 59, 80
3, 91676, Note_off_c, 1, 66, 64
3, 91676, Note_off_c, 1, 64, 64
3, 91676, Note_off_c, 1, 59, 64
3, 91680, Note_on_c, 1, 66, 84
3, 91680, Note_on_c, 1, 64, 84
3, 91680, Note_on_c, 1, 59, 84
3, 91772, Note_off_c, 1, 66, 64
3, 91772, Note_off_c, 1, 64, 64
3, 91772, Note_off_c, 1, 59, 64
3, 91776, Note_on_c, 1, 66, 67
3, 91776, Note_on_c, 1, 63, 67
3, 91776, Note_on_c, 1, 57, 67
3, 91868, Note_off_c, 1, 66, 64
3, 91868, Note_off_c, 1, 63, 64
3, 91868, Note_off_c, 1, 57, 64
3, 91872, Note_on_c, 1, 66, 67
3, 91872, Note_on_c, 1, 63, 67
3, 91872, Note_on_c, 1, 57, 67
3, 91964, Note_off_c, 1, 66, 64
3, 91964, Note_off_c, 1, 63, 64
3, 91964, Note_off_c, 1, 57, 64
3, 91968, Note_on_c, 1, 66, 67
3, 91968, Note_on_c, 1, 63, 67
3, 91968, Note_on_c, 1, 57, 67
3, 92060, Note_off_c, 1, 66, 64
3, 92060, Note_off_c, 1, 63, 64
3, 92060, Note_off_c, 1, 57, 64
3, 92064, Note_on_c, 1, 66, 67
3, 92064, Note_on_c, 1, 63, 67
3, 92064, Note_on_c, 1, 57, 67
3, 92156, Note_off_c, 1, 66, 64
3, 92156, Note_off_c, 1, 63, 64
3, 92156, Note_off_c, 1, 57, 64
3, 92160, Note_on_c, 1, 64, 89
3, 92160, Note_on_c, 1, 56, 89
3, 92204, Note_off_c, 1, 64, 64
3, 92204, Note_off_c, 1, 56, 64
3, 92208, Note_on_c, 1, 66, 89
3, 92252, Note_off_c, 1, 66, 64
3, 92256, Note_on_c, 1, 64, 89
3, 92300, Note_off_c, 1, 64, 64
3, 92304, Note_on_c, 1, 63, 89
3, 92348, Note_off_c, 1, 63, 64
3, 92352, Note_on_c, 1, 64, 89
3, 92396, Note_off_c, 1, 64, 64
3, 92400, Note_on_c, 1, 66, 89
3, 92444, Note_off_c, 1, 66, 64
3, 92448, Note_on_c, 1, 68, 89
3, 92492, Note_off_c, 1, 68, 64
3, 92496, Note_on_c, 1, 64, 89
3, 92540, Note_off_c, 1, 64, 64
3, 92544, Note_on_c, 1, 66, 89
3, 92588, Note_off_c, 1, 66, 64
3, 92592, Note_on_c, 1, 68, 89
3, 92636, Note_off_c, 1, 68, 64
3, 92640, Note_on_c, 1, 66, 89
3, 92684, Note_off_c, 1, 66, 64
3, 92688, Note_on_c, 1, 65, 89
3, 92732, Note_off_c, 1, 65, 64
3, 92736, Note_on_c, 1, 66, 89
3, 92780, Note_off_c, 1, 66, 64
3, 92784, Note_on_c, 1, 68, 89
3, 92828, Note_off_c, 1, 68, 64
3, 92832, Note_on_c, 1, 69, 89
3, 92876, Note_off_c, 1, 69, 64
3, 92880, Note_on_c, 1, 66, 89
3, 92924, Note_off_c, 1, 66, 64
3, 92928, Note_on_c, 1, 68, 89
3, 92972, Note_off_c, 1, 68, 64
3, 92976, Note_on_c, 1, 69, 89
3, 93020, Note_off_c, 1, 69, 64
3, 93024, Note_on_c, 1, 68, 89
3, 93068, Note_off_c, 1, 68, 64
3, 93072, Note_on_c, 1, 66, 89
3, 93116, Note_off_c, 1, 66, 64
3, 93120, Note_on_c, 1, 68, 89
3, 93164, Note_off_c, 1, 68, 64
3, 93168, Note_on_c, 1, 69, 89
3, 93212, Note_off_c, 1, 69, 64
3, 93216, Note_on_c, 1, 71, 89
3, 93260, Note_off_c, 1, 71, 64
3, 93264, Note_on_c, 1, 68, 89
3, 93308, Note_off_c, 1, 68, 64
3, 93312, Note_on_c, 1, 69, 89
3, 93312, Note_on_c, 1, 61, 89
3, 93356, Note_off_c, 1, 69, 64
3, 93356, Note_off_c, 1, 61, 64
3, 93360, Note_on_c, 1, 68, 89
3, 93360, Note_on_c, 1, 59, 89
3, 93404, Note_off_c, 1, 68, 64
3, 93404, Note_off_c, 1, 59, 64
3, 93408, Note_on_c, 1, 69, 89
3, 93408, Note_on_c, 1, 61, 89
3, 93452, Note_off_c, 1, 69, 64
3, 93452, Note_off_c, 1, 61, 64
3, 93456, Note_on_c, 1, 71, 89
3, 93456, Note_on_c, 1, 68, 89
3, 93500, Note_off_c, 1, 71, 64
3, 93500, Note_off_c, 1, 68, 64
3, 93504, Note_on_c, 1, 73, 89
3, 93504, Note_on_c, 1, 69, 89
3, 93548, Note_off_c, 1, 73, 64
3, 93548, Note_off_c, 1, 69, 64
3, 93552, Note_on_c, 1, 71, 89
3, 93552, Note_on_c, 1, 68, 89
3, 93596, Note_off_c, 1, 71, 64
3, 93596, Note_off_c, 1, 68, 64
3, 93600, Note_on_c, 1, 73, 89
3, 93600, Note_on_c, 1, 69, 89
3, 93644, Note_off_c, 1, 73, 64
3, 93644, Note_off_c, 1, 69, 64
3, 93648, Note_on_c, 1, 75, 89
3, 93648, Note_on_c, 1, 66, 89
3, 93692, Note_off_c, 1, 75, 64
3, 93692, Note_off_c, 1, 66, 64
3, 93696, Note_on_c, 1, 76, 70
3, 93696, Note_on_c, 1, 68, 70
3, 93696, Note_on_c, 1, 64, 70
3, 93740, Note_off_c, 1, 76, 64
3, 93740, Note_off_c, 1, 68, 64
3, 93740, Note_off_c, 1, 64, 64
3, 93744, Note_on_c, 1, 75, 70
3, 93788, Note_off_c, 1, 75, 64
3, 93792, Note_on_c, 1, 76, 70
3, 93836, Note_off_c, 1, 76, 64
3, 93840, Note_on_c, 1, 75, 70
3, 93884, Note_off_c, 1, 75, 64
3, 93888, Note_on_c, 1, 76, 70
3, 93932, Note_off_c, 1, 76, 64
3, 93936, Note_on_c, 1, 75, 70
3, 93980, Note_off_c, 1, 75, 64
3, 93984, Note_on_c, 1, 76, 70
3, 94028, Note_off_c, 1, 76, 64
3, 94032, Note_on_c, 1, 75, 70
3, 94076, Note_off_c, 1, 75, 64
3, 94080, Note_on_c, 1, 76, 70
3, 94172, Note_off_c, 1, 76, 64
3, 94176, Note_on_c, 1, 74, 70
3, 94268, Note_off_c, 1, 74, 64
3, 94272, Note_on_c, 1, 73, 70
3, 94364, Note_off_c, 1, 73, 64
3, 94368, Note_on_c, 1, 72, 70
3, 94460, Note_off_c, 1, 72, 64
3, 94464, Note_on_c, 1, 73, 70
3, 94508, Note_off_c, 1, 73, 64
3, 94512, Note_on_c, 1, 72, 70
3, 94556, Note_off_c, 1, 72, 64
3, 94560, Note_on_c, 1, 73, 70
3, 94604, Note_off_c, 1, 73, 64
3, 94608, Note_on_c, 1, 72, 70
3, 94652, Note_off_c, 1, 72, 64
3, 94656, Note_on_c, 1, 73, 70
3, 94700, Note_off_c, 1, 73, 64
3, 94704, Note_on_c, 1, 72, 70
3, 94748, Note_off_c, 1, 72, 64
3, 94752, Note_on_c, 1, 73, 70
3, 94796, Note_off_c, 1, 73, 64
3, 94800, Note_on_c, 1, 72, 70
3, 94844, Note_off_c, 1, 72, 64
3, 94848, Note_on_c, 1, 73, 70
3, 94940, Note_off_c, 1, 73, 64
3, 94944, Note_on_c, 1, 75, 70
3, 95036, Note_off_c, 1, 75, 64
3, 95040, Note_on_c, 1, 76, 70
3, 95132, Note_off_c, 1, 76, 64
3, 95136, Note_on_c, 1, 73, 70
3, 95228, Note_off_c, 1, 73, 64
3, 95232, Note_on_c, 1, 66, 89
3, 95232, Note_on_c, 1, 64, 89
3, 95324, Note_off_c, 1, 66, 64
3, 95324, Note_off_c, 1, 64, 64
3, 95328, Note_on_c, 1, 64, 89
3, 95328, Note_on_c, 1, 66, 89
3, 95520, Note_on_c, 1, 66, 89
3, 95520, Note_on_c, 1, 64, 89
3, 95612, Note_off_c, 1, 64, 64
3, 95612, Note_off_c, 1, 66, 64
3, 95616, Note_on_c, 1, 66, 89
3, 95616, Note_on_c, 1, 64, 89
3, 95708, Note_off_c, 1, 66, 64
3, 95708, Note_off_c, 1, 64, 64
3, 95708, Note_off_c, 1, 66, 64
3, 95708, Note_off_c, 1, 64, 64
3, 95712, Note_on_c, 1, 68, 89
3, 95804, Note_off_c, 1, 68, 64
3, 95808, Note_on_c, 1, 69, 89
3, 95900, Note_off_c, 1, 69, 64
3, 95904, Note_on_c, 1, 73, 89
3, 95904, Note_on_c, 1, 64, 89
3, 95996, Note_off_c, 1, 73, 64
3, 95996, Note_off_c, 1, 64, 64
3, 96000, Note_on_c, 1, 68, 89
3, 96000, Note_on_c, 1, 64, 89
3, 96380, Note_off_c, 1, 68, 64
3, 96380, Note_off_c, 1, 64, 64
3, 123264, Note_on_c, 1, 66, 68
3, 123356, Note_off_c, 1, 66, 64
3, 123360, Note_on_c, 1, 75, 68
3, 123400, Note_off_c, 1, 75, 64
3, 123408, Note_on_c, 1, 76, 72
3, 123448, Note_off_c, 1, 76, 64
3, 123552, Note_on_c, 1, 76, 72
3, 123552, Note_on_c, 1, 73, 72
3, 123592, Note_off_c, 1, 76, 64
3, 123592, Note_off_c, 1, 73, 64
3, 123600, Note_on_c, 1, 73, 68
3, 123600, Note_on_c, 1, 69, 68
3, 123640, Note_off_c, 1, 73, 64
3, 123640, Note_off_c, 1, 69, 64
3, 123744, Note_on_c, 1, 70, 68
3, 123744, Note_on_c, 1, 67, 68
3, 123784, Note_off_c, 1, 70, 64
3, 123784, Note_off_c, 1, 67, 64
3, 123792, Note_on_c, 1, 71, 72
3, 123792, Note_on_c, 1, 68, 72
3, 123832, Note_off_c, 1, 71, 64
3, 123832, Note_off_c, 1, 68, 64
3, 123936, Note_on_c, 1, 69, 72
3, 123936, Note_on_c, 1, 66, 72
3, 123976, Note_off_c, 1, 69, 64
3, 123976, Note_off_c, 1, 66, 64
3, 123984, Note_on_c, 1, 66, 68
3, 123984, Note_on_c, 1, 63, 68
3, 124024, Note_off_c, 1, 66, 64
3, 124024, Note_off_c, 1, 63, 64
3, 124032, Note_on_c, 1, 64, 95
3, 124124, Note_off_c, 1, 64, 64
3, 124128, Note_on_c, 1, 75, 76
3, 124168, Note_off_c, 1, 75, 64
3, 124176, Note_on_c, 1, 76, 81
3, 124216, Note_off_c, 1, 76, 64
3, 124320, Note_on_c, 1, 76, 81
3, 124320, Note_on_c, 1, 73, 81
3, 124360, Note_off_c, 1, 76, 64
3, 124360, Note_off_c, 1, 73, 64
3, 124368, Note_on_c, 1, 73, 76
3, 124368, Note_on_c, 1, 69, 76
3, 124408, Note_off_c, 1, 73, 64
3, 124408, Note_off_c, 1, 69, 64
3, 124512, Note_on_c, 1, 67, 76
3, 124512, Note_on_c, 1, 70, 76
3, 124552, Note_off_c, 1, 67, 64
3, 124552, Note_off_c, 1, 70, 64
3, 124560, Note_on_c, 1, 73, 81
3, 124560, Note_on_c, 1, 70, 81
3, 124600, Note_off_c, 1, 73, 64
3, 124600, Note_off_c, 1, 70, 64
3, 124704, Note_on_c, 1, 69, 81
3, 124704, Note_on_c, 1, 66, 81
3, 124744, Note_off_c, 1, 69, 64
3, 124744, Note_off_c, 1, 66, 64
3, 124752, Note_on_c, 1, 66, 76
3, 124752, Note_on_c, 1, 63, 76
3, 124792, Note_off_c, 1, 66, 64
3, 124792, Note_off_c, 1, 63, 64
3, 124800, Note_on_c, 1, 66, 76
3, 124800, Note_on_c, 1, 63, 76
3, 124800, Note_on_c, 1, 57, 76
3, 125180, Note_off_c, 1, 66, 64
3, 125180, Note_off_c, 1, 63, 64
3, 125180, Note_off_c, 1, 57, 64
3, 125184, Note_on_c, 1, 64, 80
3, 125184, Note_on_c, 1, 56, 80
3, 125372, Note_off_c, 1, 64, 64
3, 125372, Note_off_c, 1, 56, 64
3, 125372, End_track
4, 0, Start_track
4, 0, Title_t, "Bob Fisher"
4, 0, Control_c, 2, 0, 0
4, 0, Program_c, 2, 48
4, 0, Control_c, 2, 10, 84
4, 0, Control_c, 2, 91, 63
4, 0, Control_c, 2, 93, 0
4, 0, Key_signature, 4, "major"
4, 0, Control_c, 2, 121, 0
4, 12, Control_c, 2, 10, 73
4, 16, Control_c, 2, 91, 63
4, 24, Program_c, 2, 48
4, 1728, Note_on_c, 2, 54, 86
4, 1920, Note_on_c, 2, 47, 77
4, 2100, Note_off_c, 2, 47, 64
4, 2108, Note_off_c, 2, 54, 64
4, 2112, Note_on_c, 2, 52, 68
4, 2292, Note_off_c, 2, 52, 64
4, 2496, Note_on_c, 2, 57, 67
4, 2496, Note_on_c, 2, 57, 67
4, 2684, Note_off_c, 2, 57, 64
4, 2684, Note_off_c, 2, 57, 64
4, 2688, Note_on_c, 2, 59, 67
4, 2688, Note_on_c, 2, 56, 67
4, 2876, Note_off_c, 2, 59, 64
4, 2876, Note_off_c, 2, 56, 64
4, 2880, Note_on_c, 2, 59, 67
4, 2880, Note_on_c, 2, 52, 67
4, 3068, Note_off_c, 2, 59, 64
4, 3068, Note_off_c, 2, 52, 64
4, 3072, Note_on_c, 2, 54, 67
4, 3260, Note_off_c, 2, 54, 64
4, 3264, Note_on_c, 2, 47, 67
4, 3264, Note_on_c, 2, 59, 67
4, 3452, Note_off_c, 2, 47, 64
4, 3452, Note_off_c, 2, 59, 64
4, 3456, Note_on_c, 2, 59, 67
4, 3456, Note_on_c, 2, 52, 67
4, 3616, Note_off_c, 2, 59, 64
4, 3616, Note_off_c, 2, 52, 64
4, 4800, Note_on_c, 2, 56, 86
4, 4800, Note_on_c, 2, 53, 86
4, 4988, Note_off_c, 2, 56, 64
4, 4988, Note_off_c, 2, 53, 64
4, 4992, Note_on_c, 2, 54, 77
4, 5180, Note_off_c, 2, 54, 64
4, 5184, Note_on_c, 2, 54, 68
4, 5184, Note_on_c, 2, 47, 68
4, 5372, Note_off_c, 2, 54, 64
4, 5372, Note_off_c, 2, 47, 64
4, 5376, Note_on_c, 2, 52, 67
4, 5564, Note_off_c, 2, 52, 64
4, 5568, Note_on_c, 2, 59, 67
4, 5568, Note_on_c, 2, 56, 67
4, 5660, Note_off_c, 2, 59, 64
4, 5664, Note_on_c, 2, 64, 67
4, 5756, Note_off_c, 2, 56, 64
4, 5756, Note_off_c, 2, 64, 64
4, 5760, Note_on_c, 2, 57, 67
4, 5948, Note_off_c, 2, 57, 64
4, 5952, Note_on_c, 2, 57, 76
4, 5952, Note_on_c, 2, 54, 76
4, 6044, Note_off_c, 2, 57, 64
4, 6048, Note_on_c, 2, 61, 76
4, 6140, Note_off_c, 2, 54, 64
4, 6140, Note_off_c, 2, 61, 64
4, 6144, Note_on_c, 2, 59, 76
4, 6144, Note_on_c, 2, 47, 76
4, 6332, Note_off_c, 2, 59, 64
4, 6332, Note_off_c, 2, 47, 64
4, 6336, Note_on_c, 2, 59, 76
4, 6336, Note_on_c, 2, 47, 76
4, 6524, Note_off_c, 2, 59, 64
4, 6524, Note_off_c, 2, 47, 64
4, 6528, Note_on_c, 2, 59, 67
4, 6528, Note_on_c, 2, 47, 67
4, 6660, Note_off_c, 2, 59, 64
4, 6660, Note_off_c, 2, 47, 64
4, 6912, Note_on_c, 2, 64, 86
4, 6912, Note_on_c, 2, 61, 86
4, 7004, Note_off_c, 2, 64, 64
4, 7008, Note_on_c, 2, 64, 86
4, 7196, Note_off_c, 2, 61, 64
4, 7196, Note_off_c, 2, 64, 64
4, 7200, Note_on_c, 2, 64, 67
4, 7200, Note_on_c, 2, 59, 67
4, 7292, Note_off_c, 2, 64, 64
4, 7292, Note_off_c, 2, 59, 64
4, 7296, Note_on_c, 2, 64, 86
4, 7296, Note_on_c, 2, 57, 86
4, 7388, Note_off_c, 2, 64, 64
4, 7392, Note_on_c, 2, 64, 86
4, 7580, Note_off_c, 2, 57, 64
4, 7580, Note_off_c, 2, 64, 64
4, 7584, Note_on_c, 2, 64, 67
4, 7584, Note_on_c, 2, 59, 67
4, 7584, Note_on_c, 2, 56, 67
4, 7676, Note_off_c, 2, 64, 64
4, 7676, Note_off_c, 2, 59, 64
4, 7676, Note_off_c, 2, 56, 64
4, 7680, Note_on_c, 2, 61, 86
4, 7680, Note_on_c, 2, 54, 86
4, 7868, Note_off_c, 2, 61, 64
4, 7868, Note_off_c, 2, 54, 64
4, 7872, Note_on_c, 2, 61, 86
4, 7872, Note_on_c, 2, 54, 86
4, 7916, Note_off_c, 2, 61, 64
4, 7916, Note_off_c, 2, 54, 64
4, 7920, Note_on_c, 2, 52, 86
4, 7964, Note_off_c, 2, 52, 64
4, 7968, Note_on_c, 2, 51, 86
4, 8012, Note_off_c, 2, 51, 64
4, 8016, Note_on_c, 2, 49, 86
4, 8060, Note_off_c, 2, 49, 64
4, 8064, Note_on_c, 2, 47, 86
4, 8156, Note_off_c, 2, 47, 64
4, 8448, Note_on_c, 2, 59, 67
4, 8448, Note_on_c, 2, 56, 67
4, 8540, Note_off_c, 2, 59, 64
4, 8544, Note_on_c, 2, 59, 67
4, 8636, Note_off_c, 2, 56, 64
4, 8640, Note_on_c, 2, 54, 67
4, 8732, Note_off_c, 2, 59, 64
4, 8736, Note_on_c, 2, 59, 67
4, 8828, Note_off_c, 2, 54, 64
4, 8832, Note_on_c, 2, 52, 67
4, 8924, Note_off_c, 2, 59, 64
4, 8928, Note_on_c, 2, 59, 67
4, 9020, Note_off_c, 2, 52, 64
4, 9024, Note_on_c, 2, 57, 67
4, 9116, Note_off_c, 2, 59, 64
4, 9212, Note_off_c, 2, 57, 64
4, 9216, Note_on_c, 2, 56, 67
4, 9216, Note_on_c, 2, 59, 67
4, 9308, Note_off_c, 2, 59, 64
4, 9312, Note_on_c, 2, 59, 67
4, 9404, Note_off_c, 2, 56, 64
4, 9408, Note_on_c, 2, 54, 67
4, 9500, Note_off_c, 2, 59, 64
4, 9504, Note_on_c, 2, 59, 67
4, 9596, Note_off_c, 2, 54, 64
4, 9600, Note_on_c, 2, 52, 67
4, 9692, Note_off_c, 2, 59, 64
4, 9696, Note_on_c, 2, 59, 67
4, 9788, Note_off_c, 2, 52, 64
4, 9792, Note_on_c, 2, 57, 67
4, 9884, Note_off_c, 2, 59, 64
4, 9980, Note_off_c, 2, 57, 64
4, 9984, Note_on_c, 2, 56, 86
4, 9984, Note_on_c, 2, 64, 86
4, 10076, Note_off_c, 2, 64, 64
4, 10080, Note_on_c, 2, 64, 67
4, 10172, Note_off_c, 2, 56, 64
4, 10176, Note_on_c, 2, 57, 67
4, 10268, Note_off_c, 2, 64, 64
4, 10272, Note_on_c, 2, 64, 67
4, 10364, Note_off_c, 2, 57, 64
4, 10364, Note_off_c, 2, 64, 64
4, 10368, Note_on_c, 2, 59, 86
4, 10368, Note_on_c, 2, 64, 86
4, 10412, Note_off_c, 2, 64, 64
4, 10416, Note_on_c, 2, 66, 67
4, 10460, Note_off_c, 2, 66, 64
4, 10464, Note_on_c, 2, 68, 67
4, 10508, Note_off_c, 2, 68, 64
4, 10512, Note_on_c, 2, 69, 67
4, 10556, Note_off_c, 2, 59, 64
4, 10556, Note_off_c, 2, 69, 64
4, 10560, Note_on_c, 2, 59, 67
4, 10560, Note_on_c, 2, 68, 67
4, 10604, Note_off_c, 2, 68, 64
4, 10608, Note_on_c, 2, 66, 67
4, 10652, Note_off_c, 2, 66, 64
4, 10656, Note_on_c, 2, 64, 67
4, 10700, Note_off_c, 2, 64, 64
4, 10704, Note_on_c, 2, 63, 67
4, 10748, Note_off_c, 2, 59, 64
4, 10748, Note_off_c, 2, 63, 64
4, 10752, Note_on_c, 2, 64, 86
4, 10944, Note_on_c, 2, 52, 86
4, 11132, Note_off_c, 2, 64, 64
4, 11132, Note_off_c, 2, 52, 64
4, 11136, Note_on_c, 2, 54, 86
4, 11136, Note_on_c, 2, 63, 91
4, 11160, Note_off_c, 2, 63, 64
4, 11160, Note_on_c, 2, 64, 86
4, 11184, Note_off_c, 2, 64, 64
4, 11184, Note_on_c, 2, 66, 86
4, 11208, Note_off_c, 2, 66, 64
4, 11208, Note_on_c, 2, 68, 86
4, 11232, Note_off_c, 2, 68, 64
4, 11232, Note_on_c, 2, 69, 86
4, 11280, Note_off_c, 2, 69, 64
4, 11324, Note_off_c, 2, 54, 64
4, 11520, Note_on_c, 2, 56, 67
4, 11708, Note_off_c, 2, 56, 64
4, 11712, Note_on_c, 2, 57, 67
4, 11900, Note_off_c, 2, 57, 64
4, 11904, Note_on_c, 2, 59, 67
4, 12092, Note_off_c, 2, 59, 64
4, 12096, Note_on_c, 2, 59, 67
4, 12284, Note_off_c, 2, 59, 64
4, 12288, Note_on_c, 2, 64, 67
4, 12476, Note_off_c, 2, 64, 64
4, 12480, Note_on_c, 2, 52, 67
4, 12668, Note_off_c, 2, 52, 64
4, 12672, Note_on_c, 2, 54, 67
4, 12672, Note_on_c, 2, 63, 67
4, 12696, Note_off_c, 2, 63, 64
4, 12696, Note_on_c, 2, 64, 67
4, 12720, Note_off_c, 2, 64, 64
4, 12720, Note_on_c, 2, 66, 67
4, 12744, Note_off_c, 2, 66, 64
4, 12744, Note_on_c, 2, 68, 67
4, 12768, Note_off_c, 2, 68, 64
4, 12768, Note_on_c, 2, 69, 67
4, 12816, Note_off_c, 2, 69, 64
4, 12860, Note_off_c, 2, 54, 64
4, 13248, Note_on_c, 2, 59, 67
4, 13248, Note_on_c, 2, 56, 67
4, 13436, Note_off_c, 2, 59, 64
4, 13436, Note_off_c, 2, 56, 64
4, 13440, Note_on_c, 2, 59, 67
4, 13440, Note_on_c, 2, 56, 67
4, 13628, Note_off_c, 2, 59, 64
4, 13628, Note_off_c, 2, 56, 64
4, 13632, Note_on_c, 2, 56, 67
4, 13632, Note_on_c, 2, 64, 67
4, 13820, Note_off_c, 2, 56, 64
4, 13820, Note_off_c, 2, 64, 64
4, 14016, Note_on_c, 2, 64, 67
4, 14016, Note_on_c, 2, 57, 67
4, 14204, Note_off_c, 2, 64, 64
4, 14204, Note_off_c, 2, 57, 64
4, 14208, Note_on_c, 2, 64, 67
4, 14208, Note_on_c, 2, 57, 67
4, 14396, Note_off_c, 2, 64, 64
4, 14396, Note_off_c, 2, 57, 64
4, 14400, Note_on_c, 2, 61, 67
4, 14400, Note_on_c, 2, 57, 67
4, 14588, Note_off_c, 2, 61, 64
4, 14588, Note_off_c, 2, 57, 64
4, 14784, Note_on_c, 2, 59, 86
4, 14972, Note_off_c, 2, 59, 64
4, 14976, Note_on_c, 2, 59, 86
4, 15164, Note_off_c, 2, 59, 64
4, 15168, Note_on_c, 2, 47, 86
4, 15168, Note_on_c, 2, 59, 86
4, 15260, Note_off_c, 2, 59, 64
4, 15264, Note_on_c, 2, 57, 86
4, 15356, Note_off_c, 2, 47, 64
4, 15356, Note_off_c, 2, 57, 64
4, 15360, Note_on_c, 2, 56, 67
4, 15360, Note_on_c, 2, 52, 67
4, 15548, Note_off_c, 2, 56, 64
4, 15548, Note_off_c, 2, 52, 64
4, 15552, Note_on_c, 2, 57, 67
4, 15740, Note_off_c, 2, 57, 64
4, 15744, Note_on_c, 2, 59, 67
4, 15932, Note_off_c, 2, 59, 64
4, 15936, Note_on_c, 2, 59, 67
4, 15936, Note_on_c, 2, 47, 67
4, 16124, Note_off_c, 2, 59, 64
4, 16124, Note_off_c, 2, 47, 64
4, 16128, Note_on_c, 2, 56, 86
4, 16128, Note_on_c, 2, 49, 86
4, 16316, Note_off_c, 2, 56, 64
4, 16316, Note_off_c, 2, 49, 64
4, 16320, Note_on_c, 2, 57, 86
4, 16508, Note_off_c, 2, 57, 64
4, 16512, Note_on_c, 2, 59, 67
4, 16700, Note_off_c, 2, 59, 64
4, 16704, Note_on_c, 2, 47, 67
4, 16892, Note_off_c, 2, 47, 64
4, 16896, Note_on_c, 2, 52, 67
4, 17084, Note_off_c, 2, 52, 64
4, 17088, Note_on_c, 2, 47, 67
4, 17276, Note_off_c, 2, 47, 64
4, 17280, Note_on_c, 2, 40, 67
4, 17412, Note_off_c, 2, 40, 64
4, 18624, Note_on_c, 2, 57, 86
4, 18624, Note_on_c, 2, 54, 86
4, 18812, Note_off_c, 2, 57, 64
4, 18812, Note_off_c, 2, 54, 64
4, 18816, Note_on_c, 2, 47, 77
4, 18816, Note_on_c, 2, 59, 77
4, 19004, Note_off_c, 2, 47, 64
4, 19008, Note_on_c, 2, 52, 68
4, 19196, Note_off_c, 2, 59, 64
4, 19196, Note_off_c, 2, 52, 64
4, 19392, Note_on_c, 2, 53, 86
4, 19580, Note_off_c, 2, 53, 64
4, 19584, Note_on_c, 2, 54, 77
4, 19772, Note_off_c, 2, 54, 64
4, 19776, Note_on_c, 2, 47, 68
4, 19964, Note_off_c, 2, 47, 64
4, 20160, Note_on_c, 2, 46, 67
4, 20348, Note_off_c, 2, 46, 64
4, 20352, Note_on_c, 2, 46, 67
4, 20540, Note_off_c, 2, 46, 64
4, 20544, Note_on_c, 2, 46, 67
4, 20732, Note_off_c, 2, 46, 64
4, 20736, Note_on_c, 2, 47, 67
4, 20924, Note_off_c, 2, 47, 64
4, 20928, Note_on_c, 2, 49, 67
4, 21116, Note_off_c, 2, 49, 64
4, 21120, Note_on_c, 2, 45, 67
4, 21308, Note_off_c, 2, 45, 64
4, 21312, Note_on_c, 2, 47, 67
4, 21500, Note_off_c, 2, 47, 64
4, 21504, Note_on_c, 2, 52, 86
4, 21692, Note_off_c, 2, 52, 64
4, 21696, Note_on_c, 2, 57, 85
4, 21884, Note_off_c, 2, 57, 64
4, 21888, Note_on_c, 2, 59, 82
4, 22076, Note_off_c, 2, 59, 64
4, 22080, Note_on_c, 2, 59, 75
4, 22080, Note_on_c, 2, 47, 75
4, 22268, Note_off_c, 2, 59, 64
4, 22268, Note_off_c, 2, 47, 64
4, 22272, Note_on_c, 2, 59, 68
4, 22272, Note_on_c, 2, 52, 68
4, 22460, Note_off_c, 2, 59, 64
4, 22460, Note_off_c, 2, 52, 64
4, 23232, Note_on_c, 2, 55, 67
4, 23420, Note_off_c, 2, 55, 64
4, 23424, Note_on_c, 2, 55, 67
4, 23612, Note_off_c, 2, 55, 64
4, 23616, Note_on_c, 2, 55, 67
4, 23804, Note_off_c, 2, 55, 64
4, 23808, Note_on_c, 2, 42, 67
4, 23996, Note_off_c, 2, 42, 64
4, 24000, Note_on_c, 2, 54, 67
4, 24188, Note_off_c, 2, 54, 64
4, 24192, Note_on_c, 2, 54, 67
4, 24380, Note_off_c, 2, 54, 64
4, 24384, Note_on_c, 2, 54, 67
4, 24572, Note_off_c, 2, 54, 64
4, 24576, Note_on_c, 2, 47, 67
4, 24764, Note_off_c, 2, 47, 64
4, 24768, Note_on_c, 2, 59, 67
4, 24956, Note_off_c, 2, 59, 64
4, 24960, Note_on_c, 2, 59, 67
4, 25148, Note_off_c, 2, 59, 64
4, 25152, Note_on_c, 2, 59, 67
4, 25340, Note_off_c, 2, 59, 64
4, 25344, Note_on_c, 2, 68, 67
4, 25628, Note_off_c, 2, 68, 64
4, 25632, Note_on_c, 2, 66, 67
4, 25724, Note_off_c, 2, 66, 64
4, 25728, Note_on_c, 2, 64, 67
4, 26012, Note_off_c, 2, 64, 64
4, 26016, Note_on_c, 2, 63, 67
4, 26108, Note_off_c, 2, 63, 64
4, 26112, Note_on_c, 2, 61, 67
4, 26300, Note_off_c, 2, 61, 64
4, 26496, Note_on_c, 2, 61, 67
4, 26496, Note_on_c, 2, 54, 67
4, 26684, Note_off_c, 2, 61, 64
4, 26684, Note_off_c, 2, 54, 64
4, 26688, Note_on_c, 2, 52, 67
4, 26876, Note_off_c, 2, 52, 64
4, 26880, Note_on_c, 2, 51, 67
4, 27068, Note_off_c, 2, 51, 64
4, 27264, Note_on_c, 2, 52, 67
4, 27452, Note_off_c, 2, 52, 64
4, 27840, Note_on_c, 2, 63, 67
4, 27840, Note_on_c, 2, 54, 67
4, 28028, Note_off_c, 2, 63, 64
4, 28028, Note_off_c, 2, 54, 64
4, 28032, Note_on_c, 2, 61, 67
4, 28032, Note_on_c, 2, 54, 67
4, 28220, Note_off_c, 2, 61, 64
4, 28220, Note_off_c, 2, 54, 64
4, 28224, Note_on_c, 2, 66, 67
4, 28272, Note_off_c, 2, 66, 64
4, 28320, Note_on_c, 2, 66, 67
4, 28368, Note_off_c, 2, 66, 64
4, 28416, Note_on_c, 2, 63, 67
4, 28416, Note_on_c, 2, 59, 67
4, 28512, Note_off_c, 2, 63, 64
4, 28512, Note_off_c, 2, 59, 64
4, 28608, Note_on_c, 2, 66, 67
4, 28608, Note_on_c, 2, 63, 67
4, 28704, Note_off_c, 2, 66, 64
4, 28704, Note_off_c, 2, 63, 64
4, 28800, Note_on_c, 2, 63, 67
4, 28800, Note_on_c, 2, 59, 67
4, 28896, Note_off_c, 2, 63, 64
4, 28896, Note_off_c, 2, 59, 64
4, 28992, Note_on_c, 2, 63, 67
4, 28992, Note_on_c, 2, 66, 67
4, 29088, Note_off_c, 2, 63, 64
4, 29088, Note_off_c, 2, 66, 64
4, 29184, Note_on_c, 2, 58, 67
4, 29184, Note_on_c, 2, 54, 67
4, 29280, Note_off_c, 2, 58, 64
4, 29280, Note_off_c, 2, 54, 64
4, 29376, Note_on_c, 2, 61, 67
4, 29376, Note_on_c, 2, 58, 67
4, 29472, Note_off_c, 2, 61, 64
4, 29472, Note_off_c, 2, 58, 64
4, 29568, Note_on_c, 2, 58, 67
4, 29568, Note_on_c, 2, 54, 67
4, 29664, Note_off_c, 2, 58, 64
4, 29664, Note_off_c, 2, 54, 64
4, 29760, Note_on_c, 2, 61, 67
4, 29760, Note_on_c, 2, 58, 67
4, 29856, Note_off_c, 2, 61, 64
4, 29856, Note_off_c, 2, 58, 64
4, 29952, Note_on_c, 2, 63, 67
4, 29952, Note_on_c, 2, 59, 67
4, 30048, Note_off_c, 2, 63, 64
4, 30048, Note_off_c, 2, 59, 64
4, 30144, Note_on_c, 2, 66, 67
4, 30144, Note_on_c, 2, 63, 67
4, 30240, Note_off_c, 2, 66, 64
4, 30240, Note_off_c, 2, 63, 64
4, 30336, Note_on_c, 2, 63, 67
4, 30336, Note_on_c, 2, 59, 67
4, 30432, Note_off_c, 2, 63, 64
4, 30432, Note_off_c, 2, 59, 64
4, 30528, Note_on_c, 2, 66, 67
4, 30528, Note_on_c, 2, 63, 67
4, 30624, Note_off_c, 2, 66, 64
4, 30624, Note_off_c, 2, 63, 64
4, 30720, Note_on_c, 2, 58, 67
4, 30720, Note_on_c, 2, 54, 67
4, 30816, Note_off_c, 2, 58, 64
4, 30816, Note_off_c, 2, 54, 64
4, 30912, Note_on_c, 2, 61, 67
4, 30912, Note_on_c, 2, 58, 67
4, 31008, Note_off_c, 2, 61, 64
4, 31008, Note_off_c, 2, 58, 64
4, 31104, Note_on_c, 2, 58, 67
4, 31104, Note_on_c, 2, 54, 67
4, 31200, Note_off_c, 2, 58, 64
4, 31200, Note_off_c, 2, 54, 64
4, 31296, Note_on_c, 2, 61, 67
4, 31296, Note_on_c, 2, 58, 67
4, 31392, Note_off_c, 2, 61, 64
4, 31392, Note_off_c, 2, 58, 64
4, 31488, Note_on_c, 2, 59, 67
4, 31584, Note_off_c, 2, 59, 64
4, 31680, Note_on_c, 2, 59, 67
4, 31776, Note_off_c, 2, 59, 64
4, 31872, Note_on_c, 2, 59, 67
4, 31964, Note_off_c, 2, 59, 64
4, 32448, Note_on_c, 2, 63, 67
4, 32636, Note_off_c, 2, 63, 64
4, 32640, Note_on_c, 2, 63, 67
4, 32828, Note_off_c, 2, 63, 64
4, 32832, Note_on_c, 2, 63, 67
4, 33020, Note_off_c, 2, 63, 64
4, 33216, Note_on_c, 2, 64, 67
4, 33404, Note_off_c, 2, 64, 64
4, 33408, Note_on_c, 2, 64, 67
4, 33596, Note_off_c, 2, 64, 64
4, 33600, Note_on_c, 2, 64, 67
4, 33788, Note_off_c, 2, 64, 64
4, 33792, Note_on_c, 2, 66, 67
4, 33980, Note_off_c, 2, 66, 64
4, 33984, Note_on_c, 2, 66, 67
4, 34172, Note_off_c, 2, 66, 64
4, 34176, Note_on_c, 2, 66, 67
4, 34364, Note_off_c, 2, 66, 64
4, 34368, Note_on_c, 2, 66, 67
4, 34556, Note_off_c, 2, 66, 64
4, 34752, Note_on_c, 2, 66, 67
4, 34940, Note_off_c, 2, 66, 64
4, 34944, Note_on_c, 2, 59, 67
4, 35132, Note_off_c, 2, 59, 64
4, 35328, Note_on_c, 2, 63, 67
4, 35516, Note_off_c, 2, 63, 64
4, 35520, Note_on_c, 2, 61, 67
4, 35708, Note_off_c, 2, 61, 64
4, 35712, Note_on_c, 2, 59, 67
4, 35900, Note_off_c, 2, 59, 64
4, 35904, Note_on_c, 2, 64, 67
4, 36092, Note_off_c, 2, 64, 64
4, 36096, Note_on_c, 2, 63, 58
4, 36284, Note_off_c, 2, 63, 64
4, 36288, Note_on_c, 2, 61, 58
4, 36476, Note_off_c, 2, 61, 64
4, 36480, Note_on_c, 2, 59, 58
4, 36668, Note_off_c, 2, 59, 64
4, 36672, Note_on_c, 2, 64, 58
4, 36860, Note_off_c, 2, 64, 64
4, 36864, Note_on_c, 2, 63, 86
4, 37052, Note_off_c, 2, 63, 64
4, 37056, Note_on_c, 2, 64, 67
4, 37244, Note_off_c, 2, 64, 64
4, 37248, Note_on_c, 2, 66, 86
4, 37436, Note_off_c, 2, 66, 64
4, 37440, Note_on_c, 2, 66, 67
4, 37628, Note_off_c, 2, 66, 64
4, 37632, Note_on_c, 2, 59, 86
4, 37824, Note_on_c, 2, 47, 86
4, 38012, Note_off_c, 2, 59, 64
4, 38012, Note_off_c, 2, 47, 64
4, 38016, Note_on_c, 2, 49, 91
4, 38016, Note_on_c, 2, 58, 91
4, 38040, Note_off_c, 2, 49, 64
4, 38040, Note_off_c, 2, 58, 64
4, 38040, Note_on_c, 2, 59, 86
4, 38064, Note_off_c, 2, 59, 64
4, 38064, Note_on_c, 2, 61, 86
4, 38088, Note_off_c, 2, 61, 64
4, 38088, Note_on_c, 2, 63, 86
4, 38096, Note_on_c, 2, 64, 86
4, 38112, Note_off_c, 2, 63, 64
4, 38188, Note_off_c, 2, 64, 64
4, 38400, Note_on_c, 2, 63, 67
4, 38588, Note_off_c, 2, 63, 64
4, 38592, Note_on_c, 2, 64, 67
4, 38780, Note_off_c, 2, 64, 64
4, 38784, Note_on_c, 2, 66, 67
4, 38972, Note_off_c, 2, 66, 64
4, 38976, Note_on_c, 2, 54, 67
4, 39164, Note_off_c, 2, 54, 64
4, 39168, Note_on_c, 2, 59, 86
4, 39360, Note_on_c, 2, 47, 86
4, 39548, Note_off_c, 2, 59, 64
4, 39548, Note_off_c, 2, 47, 64
4, 39552, Note_on_c, 2, 49, 91
4, 39552, Note_on_c, 2, 58, 91
4, 39576, Note_off_c, 2, 49, 64
4, 39576, Note_off_c, 2, 58, 64
4, 39576, Note_on_c, 2, 59, 86
4, 39600, Note_off_c, 2, 59, 64
4, 39600, Note_on_c, 2, 61, 86
4, 39624, Note_off_c, 2, 61, 64
4, 39624, Note_on_c, 2, 63, 86
4, 39648, Note_off_c, 2, 63, 64
4, 39648, Note_on_c, 2, 64, 86
4, 39740, Note_off_c, 2, 64, 64
4, 39936, Note_on_c, 2, 51, 86
4, 40124, Note_off_c, 2, 51, 64
4, 40320, Note_on_c, 2, 52, 86
4, 40508, Note_off_c, 2, 52, 64
4, 40704, Note_on_c, 2, 54, 76
4, 40892, Note_off_c, 2, 54, 64
4, 40896, Note_on_c, 2, 54, 76
4, 41084, Note_off_c, 2, 54, 64
4, 41088, Note_on_c, 2, 54, 76
4, 41276, Note_off_c, 2, 54, 64
4, 41280, Note_on_c, 2, 54, 76
4, 41468, Note_off_c, 2, 54, 64
4, 41472, Note_on_c, 2, 54, 76
4, 41660, Note_off_c, 2, 54, 64
4, 41664, Note_on_c, 2, 54, 77
4, 41852, Note_off_c, 2, 54, 64
4, 41856, Note_on_c, 2, 54, 80
4, 42044, Note_off_c, 2, 54, 64
4, 42048, Note_on_c, 2, 54, 82
4, 42236, Note_off_c, 2, 54, 64
4, 42240, Note_on_c, 2, 47, 86
4, 42332, Note_off_c, 2, 47, 64
4, 42336, Note_on_c, 2, 59, 86
4, 42336, Note_on_c, 2, 63, 86
4, 42524, Note_off_c, 2, 59, 64
4, 42524, Note_off_c, 2, 63, 64
4, 42528, Note_on_c, 2, 59, 86
4, 42528, Note_on_c, 2, 63, 86
4, 42620, Note_off_c, 2, 59, 64
4, 42620, Note_off_c, 2, 63, 64
4, 42624, Note_on_c, 2, 47, 86
4, 42704, Note_on_c, 2, 59, 86
4, 42716, Note_off_c, 2, 47, 64
4, 42720, Note_on_c, 2, 64, 86
4, 42720, Note_on_c, 2, 70, 86
4, 42892, Note_off_c, 2, 59, 64
4, 42908, Note_off_c, 2, 64, 64
4, 42908, Note_off_c, 2, 70, 64
4, 42912, Note_on_c, 2, 59, 86
4, 42912, Note_on_c, 2, 64, 86
4, 42912, Note_on_c, 2, 70, 86
4, 43004, Note_off_c, 2, 59, 64
4, 43004, Note_off_c, 2, 64, 64
4, 43004, Note_off_c, 2, 70, 64
4, 43008, Note_on_c, 2, 47, 86
4, 43100, Note_off_c, 2, 47, 64
4, 43104, Note_on_c, 2, 59, 86
4, 43104, Note_on_c, 2, 66, 86
4, 43104, Note_on_c, 2, 69, 86
4, 43292, Note_off_c, 2, 59, 64
4, 43292, Note_off_c, 2, 66, 64
4, 43292, Note_off_c, 2, 69, 64
4, 43296, Note_on_c, 2, 59, 86
4, 43296, Note_on_c, 2, 66, 86
4, 43296, Note_on_c, 2, 69, 86
4, 43388, Note_off_c, 2, 59, 64
4, 43388, Note_off_c, 2, 66, 64
4, 43388, Note_off_c, 2, 69, 64
4, 43392, Note_on_c, 2, 47, 86
4, 43484, Note_off_c, 2, 47, 64
4, 43488, Note_on_c, 2, 59, 86
4, 43580, Note_off_c, 2, 59, 64
4, 43584, Note_on_c, 2, 47, 86
4, 43676, Note_off_c, 2, 47, 64
4, 43680, Note_on_c, 2, 59, 86
4, 43772, Note_off_c, 2, 59, 64
4, 43968, Note_on_c, 2, 54, 67
4, 43968, Note_on_c, 2, 51, 67
4, 44156, Note_off_c, 2, 54, 64
4, 44156, Note_off_c, 2, 51, 64
4, 44160, Note_on_c, 2, 54, 67
4, 44160, Note_on_c, 2, 51, 67
4, 44348, Note_off_c, 2, 54, 64
4, 44348, Note_off_c, 2, 51, 64
4, 44352, Note_on_c, 2, 59, 67
4, 44352, Note_on_c, 2, 51, 67
4, 44540, Note_off_c, 2, 59, 64
4, 44540, Note_off_c, 2, 51, 64
4, 44736, Note_on_c, 2, 59, 67
4, 44736, Note_on_c, 2, 52, 67
4, 44924, Note_off_c, 2, 59, 64
4, 44924, Note_off_c, 2, 52, 64
4, 44928, Note_on_c, 2, 61, 67
4, 44928, Note_on_c, 2, 52, 67
4, 45116, Note_off_c, 2, 61, 64
4, 45116, Note_off_c, 2, 52, 64
4, 45120, Note_on_c, 2, 52, 67
4, 45308, Note_off_c, 2, 52, 64
4, 45504, Note_on_c, 2, 54, 86
4, 45692, Note_off_c, 2, 54, 64
4, 45696, Note_on_c, 2, 54, 86
4, 45696, Note_on_c, 2, 42, 86
4, 45884, Note_off_c, 2, 54, 64
4, 45884, Note_off_c, 2, 42, 64
4, 45888, Note_on_c, 2, 42, 86
4, 45888, Note_on_c, 2, 54, 86
4, 45980, Note_off_c, 2, 54, 64
4, 45984, Note_on_c, 2, 52, 86
4, 46076, Note_off_c, 2, 42, 64
4, 46076, Note_off_c, 2, 52, 64
4, 46080, Note_on_c, 2, 51, 67
4, 46080, Note_on_c, 2, 47, 67
4, 46268, Note_off_c, 2, 51, 64
4, 46268, Note_off_c, 2, 47, 64
4, 46272, Note_on_c, 2, 52, 67
4, 46460, Note_off_c, 2, 52, 64
4, 46464, Note_on_c, 2, 54, 67
4, 46652, Note_off_c, 2, 54, 64
4, 46656, Note_on_c, 2, 54, 67
4, 46656, Note_on_c, 2, 42, 67
4, 46844, Note_off_c, 2, 54, 64
4, 46844, Note_off_c, 2, 42, 64
4, 46848, Note_on_c, 2, 51, 86
4, 46848, Note_on_c, 2, 44, 86
4, 47036, Note_off_c, 2, 51, 64
4, 47036, Note_off_c, 2, 44, 64
4, 47040, Note_on_c, 2, 52, 67
4, 47228, Note_off_c, 2, 52, 64
4, 47232, Note_on_c, 2, 54, 67
4, 47420, Note_off_c, 2, 54, 64
4, 47424, Note_on_c, 2, 54, 67
4, 47424, Note_on_c, 2, 42, 67
4, 47612, Note_off_c, 2, 54, 64
4, 47612, Note_off_c, 2, 42, 64
4, 47616, Note_on_c, 2, 47, 67
4, 47804, Note_off_c, 2, 47, 64
4, 47808, Note_on_c, 2, 42, 67
4, 47996, Note_off_c, 2, 42, 64
4, 48000, Note_on_c, 2, 35, 67
4, 48132, Note_off_c, 2, 35, 64
4, 49344, Note_on_c, 2, 61, 86
4, 49532, Note_off_c, 2, 61, 64
4, 49536, Note_on_c, 2, 54, 77
4, 49724, Note_off_c, 2, 54, 64
4, 49728, Note_on_c, 2, 59, 68
4, 49916, Note_off_c, 2, 59, 64
4, 50112, Note_on_c, 2, 60, 86
4, 50300, Note_off_c, 2, 60, 64
4, 50304, Note_on_c, 2, 61, 77
4, 50492, Note_off_c, 2, 61, 64
4, 50496, Note_on_c, 2, 54, 68
4, 50684, Note_off_c, 2, 54, 64
4, 50880, Note_on_c, 2, 53, 67
4, 51068, Note_off_c, 2, 53, 64
4, 51072, Note_on_c, 2, 53, 67
4, 51260, Note_off_c, 2, 53, 64
4, 51264, Note_on_c, 2, 53, 67
4, 51452, Note_off_c, 2, 53, 64
4, 51456, Note_on_c, 2, 53, 67
4, 51644, Note_off_c, 2, 53, 64
4, 51648, Note_on_c, 2, 53, 67
4, 51836, Note_off_c, 2, 53, 64
4, 51840, Note_on_c, 2, 53, 67
4, 52028, Note_off_c, 2, 53, 64
4, 52032, Note_on_c, 2, 53, 67
4, 52220, Note_off_c, 2, 53, 64
4, 52400, Note_on_c, 2, 40, 67
4, 52416, Note_on_c, 2, 52, 67
4, 52588, Note_off_c, 2, 40, 64
4, 52604, Note_off_c, 2, 52, 64
4, 52608, Note_on_c, 2, 52, 67
4, 52608, Note_on_c, 2, 40, 67
4, 52796, Note_off_c, 2, 52, 64
4, 52796, Note_off_c, 2, 40, 64
4, 52800, Note_on_c, 2, 52, 67
4, 52800, Note_on_c, 2, 40, 67
4, 52988, Note_off_c, 2, 52, 64
4, 52988, Note_off_c, 2, 40, 64
4, 52992, Note_on_c, 2, 52, 67
4, 52992, Note_on_c, 2, 40, 67
4, 53180, Note_off_c, 2, 52, 64
4, 53180, Note_off_c, 2, 40, 64
4, 53184, Note_on_c, 2, 52, 67
4, 53184, Note_on_c, 2, 40, 67
4, 53372, Note_off_c, 2, 52, 64
4, 53372, Note_off_c, 2, 40, 64
4, 53376, Note_on_c, 2, 52, 67
4, 53376, Note_on_c, 2, 40, 67
4, 53564, Note_off_c, 2, 52, 64
4, 53564, Note_off_c, 2, 40, 64
4, 53568, Note_on_c, 2, 52, 67
4, 53568, Note_on_c, 2, 40, 67
4, 53756, Note_off_c, 2, 52, 64
4, 53756, Note_off_c, 2, 40, 64
4, 53952, Note_on_c, 2, 51, 67
4, 53952, Note_on_c, 2, 39, 67
4, 54140, Note_off_c, 2, 51, 64
4, 54140, Note_off_c, 2, 39, 64
4, 54144, Note_on_c, 2, 51, 67
4, 54144, Note_on_c, 2, 39, 67
4, 54332, Note_off_c, 2, 51, 64
4, 54332, Note_off_c, 2, 39, 64
4, 54336, Note_on_c, 2, 51, 67
4, 54336, Note_on_c, 2, 39, 67
4, 54524, Note_off_c, 2, 51, 64
4, 54524, Note_off_c, 2, 39, 64
4, 54528, Note_on_c, 2, 38, 67
4, 54528, Note_on_c, 2, 50, 67
4, 54716, Note_off_c, 2, 38, 64
4, 54716, Note_off_c, 2, 50, 64
4, 54720, Note_on_c, 2, 50, 69
4, 54720, Note_on_c, 2, 38, 69
4, 54908, Note_off_c, 2, 50, 64
4, 54908, Note_off_c, 2, 38, 64
4, 54912, Note_on_c, 2, 50, 72
4, 54912, Note_on_c, 2, 38, 72
4, 55100, Note_off_c, 2, 50, 64
4, 55100, Note_off_c, 2, 38, 64
4, 55104, Note_on_c, 2, 50, 75
4, 55104, Note_on_c, 2, 38, 75
4, 55292, Note_off_c, 2, 50, 64
4, 55292, Note_off_c, 2, 38, 64
4, 55296, Note_on_c, 2, 49, 76
4, 55296, Note_on_c, 2, 37, 76
4, 55484, Note_off_c, 2, 49, 64
4, 55484, Note_off_c, 2, 37, 64
4, 55488, Note_on_c, 2, 49, 71
4, 55676, Note_off_c, 2, 49, 64
4, 55680, Note_on_c, 2, 47, 67
4, 55868, Note_off_c, 2, 47, 64
4, 55872, Note_on_c, 2, 49, 67
4, 55964, Note_off_c, 2, 49, 64
4, 55968, Note_on_c, 2, 52, 67
4, 56060, Note_off_c, 2, 52, 64
4, 56064, Note_on_c, 2, 51, 67
4, 56156, Note_off_c, 2, 51, 64
4, 56160, Note_on_c, 2, 51, 67
4, 56252, Note_off_c, 2, 51, 64
4, 56256, Note_on_c, 2, 51, 67
4, 56348, Note_off_c, 2, 51, 64
4, 56352, Note_on_c, 2, 51, 67
4, 56444, Note_off_c, 2, 51, 64
4, 56448, Note_on_c, 2, 51, 67
4, 56540, Note_off_c, 2, 51, 64
4, 56544, Note_on_c, 2, 51, 67
4, 56636, Note_off_c, 2, 51, 64
4, 56640, Note_on_c, 2, 51, 67
4, 56732, Note_off_c, 2, 51, 64
4, 56736, Note_on_c, 2, 51, 67
4, 56828, Note_off_c, 2, 51, 64
4, 56832, Note_on_c, 2, 56, 86
4, 56832, Note_on_c, 2, 51, 86
4, 56832, Note_on_c, 2, 47, 86
4, 57020, Note_off_c, 2, 56, 64
4, 57020, Note_off_c, 2, 51, 64
4, 57020, Note_off_c, 2, 47, 64
4, 57024, Note_on_c, 2, 56, 76
4, 57024, Note_on_c, 2, 51, 76
4, 57024, Note_on_c, 2, 47, 76
4, 57212, Note_off_c, 2, 56, 64
4, 57212, Note_off_c, 2, 51, 64
4, 57212, Note_off_c, 2, 47, 64
4, 57216, Note_on_c, 2, 56, 67
4, 57216, Note_on_c, 2, 51, 67
4, 57216, Note_on_c, 2, 47, 67
4, 57404, Note_off_c, 2, 56, 64
4, 57404, Note_off_c, 2, 51, 64
4, 57404, Note_off_c, 2, 47, 64
4, 57408, Note_on_c, 2, 56, 67
4, 57408, Note_on_c, 2, 51, 67
4, 57408, Note_on_c, 2, 47, 67
4, 57596, Note_off_c, 2, 56, 64
4, 57596, Note_off_c, 2, 51, 64
4, 57596, Note_off_c, 2, 47, 64
4, 57600, Note_on_c, 2, 56, 86
4, 57600, Note_on_c, 2, 52, 86
4, 57600, Note_on_c, 2, 49, 86
4, 57788, Note_off_c, 2, 56, 64
4, 57788, Note_off_c, 2, 52, 64
4, 57788, Note_off_c, 2, 49, 64
4, 57792, Note_on_c, 2, 56, 76
4, 57792, Note_on_c, 2, 52, 76
4, 57792, Note_on_c, 2, 49, 76
4, 57980, Note_off_c, 2, 56, 64
4, 57980, Note_off_c, 2, 52, 64
4, 57980, Note_off_c, 2, 49, 64
4, 57984, Note_on_c, 2, 56, 67
4, 57984, Note_on_c, 2, 52, 67
4, 57984, Note_on_c, 2, 49, 67
4, 58172, Note_off_c, 2, 56, 64
4, 58172, Note_off_c, 2, 52, 64
4, 58172, Note_off_c, 2, 49, 64
4, 58176, Note_on_c, 2, 56, 67
4, 58176, Note_on_c, 2, 52, 67
4, 58176, Note_on_c, 2, 49, 67
4, 58364, Note_off_c, 2, 56, 64
4, 58364, Note_off_c, 2, 52, 64
4, 58364, Note_off_c, 2, 49, 64
4, 58368, Note_on_c, 2, 51, 67
4, 58556, Note_off_c, 2, 51, 64
4, 58560, Note_on_c, 2, 51, 67
4, 58748, Note_off_c, 2, 51, 64
4, 58752, Note_on_c, 2, 52, 67
4, 58940, Note_off_c, 2, 52, 64
4, 58944, Note_on_c, 2, 52, 67
4, 59132, Note_off_c, 2, 52, 64
4, 59136, Note_on_c, 2, 49, 67
4, 59324, Note_off_c, 2, 49, 64
4, 59328, Note_on_c, 2, 49, 67
4, 59516, Note_off_c, 2, 49, 64
4, 59520, Note_on_c, 2, 51, 67
4, 59708, Note_off_c, 2, 51, 64
4, 59712, Note_on_c, 2, 51, 67
4, 59900, Note_off_c, 2, 51, 64
4, 59904, Note_on_c, 2, 48, 67
4, 60092, Note_off_c, 2, 48, 64
4, 60096, Note_on_c, 2, 48, 67
4, 60284, Note_off_c, 2, 48, 64
4, 60288, Note_on_c, 2, 49, 67
4, 60464, Note_on_c, 2, 49, 67
4, 60476, Note_off_c, 2, 49, 64
4, 60652, Note_off_c, 2, 49, 64
4, 60672, Note_on_c, 2, 57, 67
4, 60672, Note_on_c, 2, 45, 67
4, 60672, Note_on_c, 2, 52, 67
4, 61052, Note_off_c, 2, 57, 64
4, 61052, Note_off_c, 2, 45, 64
4, 61056, Note_on_c, 2, 59, 67
4, 61056, Note_on_c, 2, 47, 67
4, 61436, Note_off_c, 2, 52, 64
4, 61436, Note_off_c, 2, 59, 64
4, 61436, Note_off_c, 2, 47, 64
4, 61440, Note_on_c, 2, 57, 67
4, 61440, Note_on_c, 2, 49, 67
4, 61440, Note_on_c, 2, 52, 67
4, 61820, Note_off_c, 2, 57, 64
4, 61820, Note_off_c, 2, 49, 64
4, 61824, Note_on_c, 2, 59, 76
4, 61824, Note_on_c, 2, 47, 76
4, 62204, Note_off_c, 2, 52, 64
4, 62204, Note_off_c, 2, 59, 64
4, 62204, Note_off_c, 2, 47, 64
4, 62208, Note_on_c, 2, 57, 86
4, 62208, Note_on_c, 2, 52, 86
4, 62208, Note_on_c, 2, 45, 86
4, 62396, Note_off_c, 2, 57, 64
4, 62396, Note_off_c, 2, 52, 64
4, 62396, Note_off_c, 2, 45, 64
4, 62400, Note_on_c, 2, 59, 83
4, 62400, Note_on_c, 2, 56, 83
4, 62588, Note_off_c, 2, 59, 64
4, 62588, Note_off_c, 2, 56, 64
4, 62592, Note_on_c, 2, 59, 78
4, 62592, Note_on_c, 2, 54, 78
4, 62780, Note_off_c, 2, 59, 64
4, 62780, Note_off_c, 2, 54, 64
4, 62784, Note_on_c, 2, 59, 75
4, 62784, Note_on_c, 2, 52, 75
4, 62972, Note_off_c, 2, 59, 64
4, 62972, Note_off_c, 2, 52, 64
4, 63168, Note_on_c, 2, 59, 70
4, 63356, Note_off_c, 2, 59, 64
4, 63360, Note_on_c, 2, 47, 67
4, 63548, Note_off_c, 2, 47, 64
4, 63552, Note_on_c, 2, 59, 86
4, 63552, Note_on_c, 2, 54, 86
4, 63552, Note_on_c, 2, 51, 86
4, 63740, Note_off_c, 2, 59, 64
4, 63740, Note_off_c, 2, 54, 64
4, 63740, Note_off_c, 2, 51, 64
4, 63744, Note_on_c, 2, 52, 86
4, 63744, Note_on_c, 2, 59, 86
4, 63932, Note_off_c, 2, 52, 64
4, 63932, Note_off_c, 2, 59, 64
4, 63936, Note_on_c, 2, 52, 78
4, 64124, Note_off_c, 2, 52, 64
4, 64128, Note_on_c, 2, 54, 72
4, 64316, Note_off_c, 2, 54, 64
4, 64320, Note_on_c, 2, 54, 65
4, 64320, Note_on_c, 2, 66, 65
4, 64508, Note_off_c, 2, 54, 64
4, 64508, Note_off_c, 2, 66, 64
4, 64512, Note_on_c, 2, 59, 67
4, 64512, Note_on_c, 2, 64, 67
4, 64604, Note_off_c, 2, 64, 64
4, 64608, Note_on_c, 2, 63, 67
4, 64700, Note_off_c, 2, 59, 64
4, 64700, Note_off_c, 2, 63, 64
4, 64704, Note_on_c, 2, 68, 67
4, 64796, Note_off_c, 2, 68, 64
4, 64800, Note_on_c, 2, 64, 67
4, 64892, Note_off_c, 2, 64, 64
4, 64896, Note_on_c, 2, 63, 67
4, 64988, Note_off_c, 2, 63, 64
4, 64992, Note_on_c, 2, 61, 67
4, 65084, Note_off_c, 2, 61, 64
4, 65088, Note_on_c, 2, 66, 67
4, 65180, Note_off_c, 2, 66, 64
4, 65184, Note_on_c, 2, 63, 67
4, 65276, Note_off_c, 2, 63, 64
4, 65280, Note_on_c, 2, 61, 67
4, 65372, Note_off_c, 2, 61, 64
4, 65376, Note_on_c, 2, 59, 67
4, 65468, Note_off_c, 2, 59, 64
4, 65472, Note_on_c, 2, 64, 67
4, 65852, Note_off_c, 2, 64, 64
4, 65856, Note_on_c, 2, 63, 67
4, 65948, Note_off_c, 2, 63, 64
4, 65952, Note_on_c, 2, 64, 67
4, 66044, Note_off_c, 2, 64, 64
4, 66240, Note_on_c, 2, 64, 67
4, 66620, Note_off_c, 2, 64, 64
4, 66624, Note_on_c, 2, 63, 67
4, 66812, Note_off_c, 2, 63, 64
4, 66816, Note_on_c, 2, 61, 86
4, 67004, Note_off_c, 2, 61, 64
4, 67008, Note_on_c, 2, 54, 78
4, 67196, Note_off_c, 2, 54, 64
4, 67200, Note_on_c, 2, 47, 70
4, 67200, Note_on_c, 2, 59, 70
4, 67388, Note_off_c, 2, 47, 64
4, 67392, Note_on_c, 2, 52, 67
4, 67524, Note_off_c, 2, 52, 64
4, 67580, Note_off_c, 2, 59, 64
4, 67776, Note_on_c, 2, 53, 67
4, 67964, Note_off_c, 2, 53, 64
4, 67968, Note_on_c, 2, 54, 67
4, 68156, Note_off_c, 2, 54, 64
4, 68160, Note_on_c, 2, 47, 67
4, 68348, Note_off_c, 2, 47, 64
4, 68544, Note_on_c, 2, 46, 67
4, 68732, Note_off_c, 2, 46, 64
4, 68736, Note_on_c, 2, 46, 67
4, 68924, Note_off_c, 2, 46, 64
4, 68928, Note_on_c, 2, 46, 67
4, 69116, Note_off_c, 2, 46, 64
4, 69120, Note_on_c, 2, 47, 67
4, 69308, Note_off_c, 2, 47, 64
4, 69312, Note_on_c, 2, 49, 67
4, 69500, Note_off_c, 2, 49, 64
4, 69504, Note_on_c, 2, 45, 67
4, 69692, Note_off_c, 2, 45, 64
4, 69696, Note_on_c, 2, 47, 67
4, 69884, Note_off_c, 2, 47, 64
4, 69888, Note_on_c, 2, 52, 86
4, 70076, Note_off_c, 2, 52, 64
4, 70080, Note_on_c, 2, 57, 86
4, 70268, Note_off_c, 2, 57, 64
4, 70272, Note_on_c, 2, 59, 83
4, 70460, Note_off_c, 2, 59, 64
4, 70464, Note_on_c, 2, 59, 76
4, 70464, Note_on_c, 2, 47, 76
4, 70652, Note_off_c, 2, 59, 64
4, 70652, Note_off_c, 2, 47, 64
4, 70656, Note_on_c, 2, 59, 71
4, 70656, Note_on_c, 2, 52, 71
4, 70844, Note_off_c, 2, 59, 64
4, 70844, Note_off_c, 2, 52, 64
4, 71424, Note_on_c, 2, 52, 67
4, 71804, Note_off_c, 2, 52, 64
4, 71808, Note_on_c, 2, 50, 67
4, 72188, Note_off_c, 2, 50, 64
4, 72192, Note_on_c, 2, 48, 67
4, 72572, Note_off_c, 2, 48, 64
4, 72576, Note_on_c, 2, 47, 67
4, 72956, Note_off_c, 2, 47, 64
4, 72960, Note_on_c, 2, 45, 67
4, 73340, Note_off_c, 2, 45, 64
4, 73344, Note_on_c, 2, 46, 67
4, 73724, Note_off_c, 2, 46, 64
4, 73728, Note_on_c, 2, 47, 67
4, 73916, Note_off_c, 2, 47, 64
4, 73920, Note_on_c, 2, 59, 67
4, 74108, Note_off_c, 2, 59, 64
4, 74112, Note_on_c, 2, 47, 67
4, 74492, Note_off_c, 2, 47, 64
4, 74496, Note_on_c, 2, 61, 67
4, 74780, Note_off_c, 2, 61, 64
4, 74784, Note_on_c, 2, 59, 67
4, 74876, Note_off_c, 2, 59, 64
4, 74880, Note_on_c, 2, 57, 67
4, 75164, Note_off_c, 2, 57, 64
4, 75168, Note_on_c, 2, 59, 67
4, 75168, Note_on_c, 2, 56, 67
4, 75260, Note_off_c, 2, 59, 64
4, 75260, Note_off_c, 2, 56, 64
4, 75264, Note_on_c, 2, 61, 67
4, 75264, Note_on_c, 2, 54, 67
4, 75452, Note_off_c, 2, 61, 64
4, 75452, Note_off_c, 2, 54, 64
4, 75648, Note_on_c, 2, 47, 67
4, 75836, Note_off_c, 2, 47, 64
4, 75840, Note_on_c, 2, 57, 67
4, 76028, Note_off_c, 2, 57, 64
4, 76032, Note_on_c, 2, 56, 67
4, 76220, Note_off_c, 2, 56, 64
4, 76416, Note_on_c, 2, 57, 67
4, 76604, Note_off_c, 2, 57, 64
4, 76992, Note_on_c, 2, 59, 67
4, 77180, Note_off_c, 2, 59, 64
4, 77184, Note_on_c, 2, 47, 67
4, 77372, Note_off_c, 2, 47, 64
4, 79104, Note_on_c, 2, 56, 67
4, 79104, Note_on_c, 2, 52, 67
4, 79200, Note_off_c, 2, 56, 64
4, 79200, Note_off_c, 2, 52, 64
4, 79296, Note_on_c, 2, 59, 67
4, 79296, Note_on_c, 2, 56, 67
4, 79392, Note_off_c, 2, 59, 64
4, 79392, Note_off_c, 2, 56, 64
4, 79488, Note_on_c, 2, 56, 67
4, 79488, Note_on_c, 2, 52, 67
4, 79584, Note_off_c, 2, 56, 64
4, 79584, Note_off_c, 2, 52, 64
4, 79680, Note_on_c, 2, 59, 67
4, 79680, Note_on_c, 2, 56, 67
4, 79776, Note_off_c, 2, 59, 64
4, 79776, Note_off_c, 2, 56, 64
4, 79872, Note_on_c, 2, 51, 67
4, 79872, Note_on_c, 2, 47, 67
4, 79968, Note_off_c, 2, 51, 64
4, 79968, Note_off_c, 2, 47, 64
4, 80064, Note_on_c, 2, 54, 67
4, 80064, Note_on_c, 2, 51, 67
4, 80160, Note_off_c, 2, 54, 64
4, 80160, Note_off_c, 2, 51, 64
4, 80256, Note_on_c, 2, 51, 67
4, 80256, Note_on_c, 2, 47, 67
4, 80352, Note_off_c, 2, 51, 64
4, 80352, Note_off_c, 2, 47, 64
4, 80448, Note_on_c, 2, 54, 67
4, 80448, Note_on_c, 2, 51, 67
4, 80544, Note_off_c, 2, 54, 64
4, 80544, Note_off_c, 2, 51, 64
4, 80640, Note_on_c, 2, 52, 67
4, 80828, Note_off_c, 2, 52, 64
4, 80832, Note_on_c, 2, 64, 67
4, 81020, Note_off_c, 2, 64, 64
4, 81024, Note_on_c, 2, 64, 67
4, 81116, Note_off_c, 2, 64, 64
4, 84480, Note_on_c, 2, 56, 67
4, 84668, Note_off_c, 2, 56, 64
4, 84672, Note_on_c, 2, 54, 67
4, 84860, Note_off_c, 2, 54, 64
4, 84864, Note_on_c, 2, 52, 67
4, 85052, Note_off_c, 2, 52, 64
4, 85056, Note_on_c, 2, 57, 67
4, 85244, Note_off_c, 2, 57, 64
4, 85248, Note_on_c, 2, 56, 67
4, 85436, Note_off_c, 2, 56, 64
4, 85440, Note_on_c, 2, 54, 67
4, 85628, Note_off_c, 2, 54, 64
4, 85632, Note_on_c, 2, 52, 67
4, 85820, Note_off_c, 2, 52, 64
4, 85824, Note_on_c, 2, 57, 67
4, 86012, Note_off_c, 2, 57, 64
4, 86016, Note_on_c, 2, 56, 67
4, 86204, Note_off_c, 2, 56, 64
4, 86208, Note_on_c, 2, 57, 67
4, 86396, Note_off_c, 2, 57, 64
4, 86400, Note_on_c, 2, 59, 67
4, 86588, Note_off_c, 2, 59, 64
4, 86592, Note_on_c, 2, 59, 67
4, 86780, Note_off_c, 2, 59, 64
4, 86784, Note_on_c, 2, 52, 86
4, 86976, Note_on_c, 2, 40, 86
4, 87164, Note_off_c, 2, 52, 64
4, 87164, Note_off_c, 2, 40, 64
4, 87168, Note_on_c, 2, 42, 93
4, 87168, Note_on_c, 2, 51, 93
4, 87192, Note_off_c, 2, 42, 64
4, 87192, Note_off_c, 2, 51, 64
4, 87192, Note_on_c, 2, 52, 86
4, 87216, Note_off_c, 2, 52, 64
4, 87216, Note_on_c, 2, 54, 86
4, 87240, Note_off_c, 2, 54, 64
4, 87240, Note_on_c, 2, 56, 86
4, 87264, Note_off_c, 2, 56, 64
4, 87264, Note_on_c, 2, 57, 86
4, 87312, Note_off_c, 2, 57, 64
4, 87552, Note_on_c, 2, 56, 67
4, 87740, Note_off_c, 2, 56, 64
4, 87744, Note_on_c, 2, 57, 67
4, 87932, Note_off_c, 2, 57, 64
4, 87936, Note_on_c, 2, 59, 67
4, 88124, Note_off_c, 2, 59, 64
4, 88128, Note_on_c, 2, 47, 67
4, 88224, Note_off_c, 2, 47, 64
4, 88320, Note_on_c, 2, 52, 86
4, 88512, Note_on_c, 2, 40, 86
4, 88700, Note_off_c, 2, 52, 64
4, 88700, Note_off_c, 2, 40, 64
4, 88704, Note_on_c, 2, 42, 93
4, 88704, Note_on_c, 2, 52, 93
4, 88728, Note_off_c, 2, 42, 64
4, 88728, Note_off_c, 2, 52, 64
4, 88728, Note_on_c, 2, 51, 86
4, 88752, Note_off_c, 2, 51, 64
4, 88752, Note_on_c, 2, 54, 86
4, 88776, Note_off_c, 2, 54, 64
4, 88776, Note_on_c, 2, 56, 86
4, 88800, Note_off_c, 2, 56, 64
4, 88800, Note_on_c, 2, 57, 86
4, 88892, Note_off_c, 2, 57, 64
4, 89088, Note_on_c, 2, 56, 67
4, 89276, Note_off_c, 2, 56, 64
4, 89280, Note_on_c, 2, 59, 67
4, 89468, Note_off_c, 2, 59, 64
4, 89472, Note_on_c, 2, 57, 67
4, 89660, Note_off_c, 2, 57, 64
4, 89664, Note_on_c, 2, 56, 67
4, 89852, Note_off_c, 2, 56, 64
4, 89856, Note_on_c, 2, 57, 67
4, 90044, Note_off_c, 2, 57, 64
4, 90240, Note_on_c, 2, 61, 67
4, 90428, Note_off_c, 2, 61, 64
4, 90624, Note_on_c, 2, 47, 71
4, 90812, Note_off_c, 2, 47, 64
4, 90816, Note_on_c, 2, 47, 71
4, 91004, Note_off_c, 2, 47, 64
4, 91008, Note_on_c, 2, 47, 71
4, 91196, Note_off_c, 2, 47, 64
4, 91200, Note_on_c, 2, 47, 71
4, 91388, Note_off_c, 2, 47, 64
4, 91392, Note_on_c, 2, 47, 72
4, 91580, Note_off_c, 2, 47, 64
4, 91584, Note_on_c, 2, 47, 80
4, 91772, Note_off_c, 2, 47, 64
4, 91776, Note_on_c, 2, 47, 67
4, 91964, Note_off_c, 2, 47, 64
4, 91968, Note_on_c, 2, 47, 67
4, 92156, Note_off_c, 2, 47, 64
4, 92160, Note_on_c, 2, 40, 89
4, 92252, Note_off_c, 2, 40, 64
4, 92256, Note_on_c, 2, 56, 89
4, 92256, Note_on_c, 2, 52, 89
4, 92444, Note_off_c, 2, 56, 64
4, 92444, Note_off_c, 2, 52, 64
4, 92448, Note_on_c, 2, 56, 89
4, 92448, Note_on_c, 2, 52, 89
4, 92540, Note_off_c, 2, 56, 64
4, 92540, Note_off_c, 2, 52, 64
4, 92544, Note_on_c, 2, 40, 89
4, 92636, Note_off_c, 2, 40, 64
4, 92640, Note_on_c, 2, 57, 89
4, 92640, Note_on_c, 2, 63, 89
4, 92640, Note_on_c, 2, 52, 89
4, 92828, Note_off_c, 2, 57, 64
4, 92828, Note_off_c, 2, 63, 64
4, 92828, Note_off_c, 2, 52, 64
4, 92832, Note_on_c, 2, 57, 89
4, 92832, Note_on_c, 2, 63, 89
4, 92832, Note_on_c, 2, 52, 89
4, 92924, Note_off_c, 2, 57, 64
4, 92924, Note_off_c, 2, 63, 64
4, 92924, Note_off_c, 2, 52, 64
4, 92928, Note_on_c, 2, 40, 89
4, 93020, Note_off_c, 2, 40, 64
4, 93024, Note_on_c, 2, 59, 89
4, 93024, Note_on_c, 2, 52, 89
4, 93040, Note_on_c, 2, 62, 89
4, 93212, Note_off_c, 2, 59, 64
4, 93212, Note_off_c, 2, 52, 64
4, 93216, Note_on_c, 2, 59, 89
4, 93216, Note_on_c, 2, 62, 89
4, 93216, Note_on_c, 2, 52, 89
4, 93228, Note_off_c, 2, 62, 64
4, 93308, Note_off_c, 2, 59, 64
4, 93308, Note_off_c, 2, 62, 64
4, 93308, Note_off_c, 2, 52, 64
4, 93312, Note_on_c, 2, 52, 89
4, 93404, Note_off_c, 2, 52, 64
4, 93408, Note_on_c, 2, 64, 89
4, 93500, Note_off_c, 2, 64, 64
4, 93504, Note_on_c, 2, 52, 89
4, 93596, Note_off_c, 2, 52, 64
4, 93600, Note_on_c, 2, 64, 89
4, 93692, Note_off_c, 2, 64, 64
4, 93888, Note_on_c, 2, 56, 70
4, 93888, Note_on_c, 2, 59, 70
4, 94076, Note_off_c, 2, 56, 64
4, 94076, Note_off_c, 2, 59, 64
4, 94080, Note_on_c, 2, 56, 70
4, 94080, Note_on_c, 2, 59, 70
4, 94268, Note_off_c, 2, 56, 64
4, 94268, Note_off_c, 2, 59, 64
4, 94272, Note_on_c, 2, 56, 70
4, 94272, Note_on_c, 2, 64, 70
4, 94460, Note_off_c, 2, 56, 64
4, 94460, Note_off_c, 2, 64, 64
4, 94656, Note_on_c, 2, 57, 70
4, 94656, Note_on_c, 2, 64, 70
4, 94844, Note_off_c, 2, 57, 64
4, 94844, Note_off_c, 2, 64, 64
4, 94848, Note_on_c, 2, 57, 70
4, 94848, Note_on_c, 2, 64, 70
4, 95036, Note_off_c, 2, 57, 64
4, 95036, Note_off_c, 2, 64, 64
4, 95040, Note_on_c, 2, 57, 70
4, 95040, Note_on_c, 2, 61, 70
4, 95228, Note_off_c, 2, 57, 64
4, 95228, Note_off_c, 2, 61, 64
4, 95232, Note_on_c, 2, 61, 89
4, 95232, Note_on_c, 2, 57, 89
4, 95276, Note_off_c, 2, 61, 64
4, 95276, Note_off_c, 2, 57, 64
4, 95280, Note_on_c, 2, 60, 89
4, 95280, Note_on_c, 2, 56, 89
4, 95324, Note_off_c, 2, 60, 64
4, 95324, Note_off_c, 2, 56, 64
4, 95328, Note_on_c, 2, 61, 89
4, 95328, Note_on_c, 2, 57, 89
4, 95372, Note_off_c, 2, 61, 64
4, 95372, Note_off_c, 2, 57, 64
4, 95376, Note_on_c, 2, 60, 89
4, 95376, Note_on_c, 2, 56, 89
4, 95420, Note_off_c, 2, 60, 64
4, 95420, Note_off_c, 2, 56, 64
4, 95424, Note_on_c, 2, 61, 89
4, 95424, Note_on_c, 2, 57, 89
4, 95468, Note_off_c, 2, 61, 64
4, 95468, Note_off_c, 2, 57, 64
4, 95472, Note_on_c, 2, 60, 89
4, 95472, Note_on_c, 2, 56, 89
4, 95516, Note_off_c, 2, 60, 64
4, 95516, Note_off_c, 2, 56, 64
4, 95520, Note_on_c, 2, 61, 89
4, 95520, Note_on_c, 2, 57, 89
4, 95564, Note_off_c, 2, 61, 64
4, 95564, Note_off_c, 2, 57, 64
4, 95568, Note_on_c, 2, 60, 89
4, 95568, Note_on_c, 2, 56, 89
4, 95612, Note_off_c, 2, 60, 64
4, 95612, Note_off_c, 2, 56, 64
4, 95616, Note_on_c, 2, 61, 89
4, 95616, Note_on_c, 2, 57, 89
4, 95708, Note_off_c, 2, 61, 64
4, 95708, Note_off_c, 2, 57, 64
4, 95712, Note_on_c, 2, 63, 89
4, 95712, Note_on_c, 2, 59, 89
4, 95804, Note_off_c, 2, 63, 64
4, 95804, Note_off_c, 2, 59, 64
4, 95808, Note_on_c, 2, 64, 89
4, 95808, Note_on_c, 2, 61, 89
4, 95900, Note_off_c, 2, 64, 64
4, 95900, Note_off_c, 2, 61, 64
4, 95904, Note_on_c, 2, 61, 89
4, 95904, Note_on_c, 2, 58, 89
4, 95996, Note_off_c, 2, 61, 64
4, 95996, Note_off_c, 2, 58, 64
4, 96000, Note_on_c, 2, 59, 89
4, 96000, Note_on_c, 2, 47, 89
4, 96380, Note_off_c, 2, 59, 64
4, 96380, Note_off_c, 2, 47, 64
4, 123264, Note_on_c, 2, 56, 95
4, 123264, Note_on_c, 2, 52, 95
4, 123452, Note_off_c, 2, 56, 64
4, 123452, Note_off_c, 2, 52, 64
4, 123456, Note_on_c, 2, 57, 95
4, 123644, Note_off_c, 2, 57, 64
4, 123648, Note_on_c, 2, 59, 95
4, 123836, Note_off_c, 2, 59, 64
4, 123840, Note_on_c, 2, 59, 95
4, 123840, Note_on_c, 2, 47, 95
4, 124028, Note_off_c, 2, 59, 64
4, 124028, Note_off_c, 2, 47, 64
4, 124032, Note_on_c, 2, 56, 95
4, 124032, Note_on_c, 2, 49, 95
4, 124220, Note_off_c, 2, 56, 64
4, 124220, Note_off_c, 2, 49, 64
4, 124224, Note_on_c, 2, 57, 76
4, 124412, Note_off_c, 2, 57, 64
4, 124416, Note_on_c, 2, 59, 76
4, 124604, Note_off_c, 2, 59, 64
4, 124608, Note_on_c, 2, 59, 76
4, 124608, Note_on_c, 2, 47, 76
4, 124796, Note_off_c, 2, 59, 64
4, 124796, Note_off_c, 2, 47, 64
4, 124800, Note_on_c, 2, 52, 76
4, 124988, Note_off_c, 2, 52, 64
4, 124992, Note_on_c, 2, 47, 72
4, 125180, Note_off_c, 2, 47, 64
4, 125184, Note_on_c, 2, 40, 72
4, 125372, Note_off_c, 2, 40, 64
4, 125372, End_track
5, 0, Start_track
5, 0, Key_signature, 0, "major"
5, 0, End_track
6, 0, Start_track
6, 0, Key_signature, 0, "major"
6, 0, End_track
7, 0, Start_track
7, 0, Key_signature, 0, "major"
7, 0, End_track
8, 0, Start_track
8, 0, Key_signature, 0, "major"
8, 0, End_track
0, 0, End_of_file
