0, 0, Header, 1, 6, 384
1, 0, Start_track
1, 0, Sequencer_specific, 3, 0, 0, 65
1, 0, Time_signature, 4, 2, 24, 8
1, 0, Key_signature, 0, "major"
1, 0, Tempo, 535714
1, 86016, Tempo, 600000
1, 87552, Tempo, 535714
1, 195072, Tempo, 1200000
1, 196608, Tempo, 535714
1, 262656, Tempo, 600000
1, 264192, Tempo, 535714
1, 483840, Tempo, 1200000
1, 485376, Tempo, 535714
1, 485376, End_track
2, 0, Start_track
2, 0, MIDI_port, 0
2, 0, Title_t, " Mozart Clarinet "
2, 0, Control_c, 0, 0, 0
2, 0, Control_c, 0, 32, 0
2, 0, Program_c, 0, 71
2, 0, Control_c, 0, 7, 94
2, 0, Control_c, 0, 10, 63
2, 0, Control_c, 0, 91, 67
2, 0, Control_c, 0, 93, 53
2, 0, Control_c, 0, 121, 0
2, 96, Control_c, 0, 10, 63
2, 192, Control_c, 0, 91, 63
2, 240, Control_c, 0, 93, 40
2, 288, Program_c, 0, 71
2, 87552, Note_on_c, 0, 77, 70
2, 88312, Note_on_c, 0, 77, 0
2, 88320, Note_on_c, 0, 74, 70
2, 88888, Note_on_c, 0, 74, 0
2, 88896, Note_on_c, 0, 75, 70
2, 89080, Note_on_c, 0, 75, 0
2, 89088, Note_on_c, 0, 79, 70
2, 89272, Note_on_c, 0, 79, 0
2, 89280, Note_on_c, 0, 77, 70
2, 89464, Note_on_c, 0, 77, 0
2, 89472, Note_on_c, 0, 75, 70
2, 89560, Note_on_c, 0, 75, 0
2, 89664, Note_on_c, 0, 74, 70
2, 89752, Note_on_c, 0, 74, 0
2, 89856, Note_on_c, 0, 74, 70
2, 90232, Note_on_c, 0, 74, 0
2, 90624, Note_on_c, 0, 75, 70
2, 91000, Note_on_c, 0, 75, 0
2, 91008, Note_on_c, 0, 72, 70
2, 91192, Note_on_c, 0, 72, 0
2, 91392, Note_on_c, 0, 75, 70
2, 91768, Note_on_c, 0, 75, 0
2, 91776, Note_on_c, 0, 72, 70
2, 91960, Note_on_c, 0, 72, 0
2, 92160, Note_on_c, 0, 70, 70
2, 92920, Note_on_c, 0, 70, 0
2, 92928, Note_on_c, 0, 69, 70
2, 93304, Note_on_c, 0, 69, 0
2, 93696, Note_on_c, 0, 70, 70
2, 94456, Note_on_c, 0, 70, 0
2, 94464, Note_on_c, 0, 70, 70
2, 94552, Note_on_c, 0, 70, 0
2, 94560, Note_on_c, 0, 69, 70
2, 94648, Note_on_c, 0, 69, 0
2, 94656, Note_on_c, 0, 70, 70
2, 94744, Note_on_c, 0, 70, 0
2, 94752, Note_on_c, 0, 69, 70
2, 94840, Note_on_c, 0, 69, 0
2, 94848, Note_on_c, 0, 72, 70
2, 94936, Note_on_c, 0, 72, 0
2, 94944, Note_on_c, 0, 70, 70
2, 95032, Note_on_c, 0, 70, 0
2, 95040, Note_on_c, 0, 69, 70
2, 95128, Note_on_c, 0, 69, 0
2, 95136, Note_on_c, 0, 67, 70
2, 95224, Note_on_c, 0, 67, 0
2, 95232, Note_on_c, 0, 65, 70
2, 95420, Note_on_c, 0, 65, 0
2, 95424, Note_on_c, 0, 75, 70
2, 95608, Note_on_c, 0, 75, 0
2, 95616, Note_on_c, 0, 75, 70
2, 96376, Note_on_c, 0, 75, 0
2, 96384, Note_on_c, 0, 74, 70
2, 96760, Note_on_c, 0, 74, 0
2, 96768, Note_on_c, 0, 72, 70
2, 96856, Note_on_c, 0, 72, 0
2, 96864, Note_on_c, 0, 74, 70
2, 96952, Note_on_c, 0, 74, 0
2, 96960, Note_on_c, 0, 75, 70
2, 97048, Note_on_c, 0, 75, 0
2, 97056, Note_on_c, 0, 77, 70
2, 97144, Note_on_c, 0, 77, 0
2, 97152, Note_on_c, 0, 78, 70
2, 97240, Note_on_c, 0, 78, 0
2, 97248, Note_on_c, 0, 79, 70
2, 97336, Note_on_c, 0, 79, 0
2, 97344, Note_on_c, 0, 75, 70
2, 97432, Note_on_c, 0, 75, 0
2, 97440, Note_on_c, 0, 72, 70
2, 97528, Note_on_c, 0, 72, 0
2, 97536, Note_on_c, 0, 70, 70
2, 97912, Note_on_c, 0, 70, 0
2, 97920, Note_on_c, 0, 74, 70
2, 98104, Note_on_c, 0, 74, 0
2, 98112, Note_on_c, 0, 72, 70
2, 98296, Note_on_c, 0, 72, 0
2, 98304, Note_on_c, 0, 70, 70
2, 98680, Note_on_c, 0, 70, 0
2, 99840, Note_on_c, 0, 70, 70
2, 101464, Note_on_c, 0, 70, 0
2, 101472, Note_on_c, 0, 72, 70
2, 101560, Note_on_c, 0, 72, 0
2, 101568, Note_on_c, 0, 74, 70
2, 101656, Note_on_c, 0, 74, 0
2, 101664, Note_on_c, 0, 75, 70
2, 101752, Note_on_c, 0, 75, 0
2, 101760, Note_on_c, 0, 77, 70
2, 101848, Note_on_c, 0, 77, 0
2, 101856, Note_on_c, 0, 79, 70
2, 101944, Note_on_c, 0, 79, 0
2, 101952, Note_on_c, 0, 81, 70
2, 102040, Note_on_c, 0, 81, 0
2, 102048, Note_on_c, 0, 82, 70
2, 102136, Note_on_c, 0, 82, 0
2, 102144, Note_on_c, 0, 81, 70
2, 102232, Note_on_c, 0, 81, 0
2, 102240, Note_on_c, 0, 82, 70
2, 102328, Note_on_c, 0, 82, 0
2, 102336, Note_on_c, 0, 81, 70
2, 102424, Note_on_c, 0, 81, 0
2, 102432, Note_on_c, 0, 82, 70
2, 102520, Note_on_c, 0, 82, 0
2, 102528, Note_on_c, 0, 81, 70
2, 102616, Note_on_c, 0, 81, 0
2, 102624, Note_on_c, 0, 82, 70
2, 102712, Note_on_c, 0, 82, 0
2, 102720, Note_on_c, 0, 81, 70
2, 102808, Note_on_c, 0, 81, 0
2, 102816, Note_on_c, 0, 82, 70
2, 102904, Note_on_c, 0, 82, 0
2, 102912, Note_on_c, 0, 78, 70
2, 103000, Note_on_c, 0, 78, 0
2, 103008, Note_on_c, 0, 79, 70
2, 103096, Note_on_c, 0, 79, 0
2, 103104, Note_on_c, 0, 78, 70
2, 103192, Note_on_c, 0, 78, 0
2, 103200, Note_on_c, 0, 79, 70
2, 103288, Note_on_c, 0, 79, 0
2, 103296, Note_on_c, 0, 74, 70
2, 103384, Note_on_c, 0, 74, 0
2, 103392, Note_on_c, 0, 75, 70
2, 103480, Note_on_c, 0, 75, 0
2, 103488, Note_on_c, 0, 74, 70
2, 103576, Note_on_c, 0, 74, 0
2, 103584, Note_on_c, 0, 75, 70
2, 103672, Note_on_c, 0, 75, 0
2, 103680, Note_on_c, 0, 71, 70
2, 103768, Note_on_c, 0, 71, 0
2, 103776, Note_on_c, 0, 72, 70
2, 103864, Note_on_c, 0, 72, 0
2, 103872, Note_on_c, 0, 74, 70
2, 103960, Note_on_c, 0, 74, 0
2, 103968, Note_on_c, 0, 75, 70
2, 104056, Note_on_c, 0, 75, 0
2, 104064, Note_on_c, 0, 76, 70
2, 104152, Note_on_c, 0, 76, 0
2, 104160, Note_on_c, 0, 77, 70
2, 104248, Note_on_c, 0, 77, 0
2, 104256, Note_on_c, 0, 78, 70
2, 104344, Note_on_c, 0, 78, 0
2, 104352, Note_on_c, 0, 79, 70
2, 104440, Note_on_c, 0, 79, 0
2, 104448, Note_on_c, 0, 70, 70
2, 105016, Note_on_c, 0, 70, 0
2, 105024, Note_on_c, 0, 72, 70
2, 105112, Note_on_c, 0, 72, 0
2, 105120, Note_on_c, 0, 70, 70
2, 105208, Note_on_c, 0, 70, 0
2, 105216, Note_on_c, 0, 69, 70
2, 105592, Note_on_c, 0, 69, 0
2, 105984, Note_on_c, 0, 77, 70
2, 106072, Note_on_c, 0, 77, 0
2, 106080, Note_on_c, 0, 75, 70
2, 106168, Note_on_c, 0, 75, 0
2, 106176, Note_on_c, 0, 72, 70
2, 106264, Note_on_c, 0, 72, 0
2, 106272, Note_on_c, 0, 69, 70
2, 106360, Note_on_c, 0, 69, 0
2, 106368, Note_on_c, 0, 65, 71
2, 106456, Note_on_c, 0, 65, 0
2, 106464, Note_on_c, 0, 63, 72
2, 106552, Note_on_c, 0, 63, 0
2, 106560, Note_on_c, 0, 60, 73
2, 106648, Note_on_c, 0, 60, 0
2, 106656, Note_on_c, 0, 57, 74
2, 106744, Note_on_c, 0, 57, 0
2, 106752, Note_on_c, 0, 53, 75
2, 107512, Note_on_c, 0, 53, 0
2, 107520, Note_on_c, 0, 51, 76
2, 108280, Note_on_c, 0, 51, 0
2, 108288, Note_on_c, 0, 81, 73
2, 109048, Note_on_c, 0, 81, 0
2, 109056, Note_on_c, 0, 82, 73
2, 109240, Note_on_c, 0, 82, 0
2, 109248, Note_on_c, 0, 74, 70
2, 109336, Note_on_c, 0, 74, 0
2, 109440, Note_on_c, 0, 75, 70
2, 109528, Note_on_c, 0, 75, 0
2, 109632, Note_on_c, 0, 76, 70
2, 109720, Note_on_c, 0, 76, 0
2, 109824, Note_on_c, 0, 77, 70
2, 109912, Note_on_c, 0, 77, 0
2, 110016, Note_on_c, 0, 69, 70
2, 110104, Note_on_c, 0, 69, 0
2, 110208, Note_on_c, 0, 70, 70
2, 110296, Note_on_c, 0, 70, 0
2, 110400, Note_on_c, 0, 71, 70
2, 110488, Note_on_c, 0, 71, 0
2, 110592, Note_on_c, 0, 72, 71
2, 111736, Note_on_c, 0, 72, 0
2, 111744, Note_on_c, 0, 74, 86
2, 111928, Note_on_c, 0, 74, 0
2, 111936, Note_on_c, 0, 75, 88
2, 112120, Note_on_c, 0, 75, 0
2, 112128, Note_on_c, 0, 74, 90
2, 112216, Note_on_c, 0, 74, 0
2, 112224, Note_on_c, 0, 82, 90
2, 112312, Note_on_c, 0, 82, 0
2, 112320, Note_on_c, 0, 77, 91
2, 112408, Note_on_c, 0, 77, 0
2, 112416, Note_on_c, 0, 74, 92
2, 112504, Note_on_c, 0, 74, 0
2, 112512, Note_on_c, 0, 70, 93
2, 112600, Note_on_c, 0, 70, 0
2, 112608, Note_on_c, 0, 65, 94
2, 112696, Note_on_c, 0, 65, 0
2, 112704, Note_on_c, 0, 62, 95
2, 112792, Note_on_c, 0, 62, 0
2, 112800, Note_on_c, 0, 58, 94
2, 112888, Note_on_c, 0, 58, 0
2, 112896, Note_on_c, 0, 55, 93
2, 112984, Note_on_c, 0, 55, 0
2, 112992, Note_on_c, 0, 58, 92
2, 113080, Note_on_c, 0, 58, 0
2, 113088, Note_on_c, 0, 63, 91
2, 113176, Note_on_c, 0, 63, 0
2, 113184, Note_on_c, 0, 67, 90
2, 113272, Note_on_c, 0, 67, 0
2, 113280, Note_on_c, 0, 70, 90
2, 113368, Note_on_c, 0, 70, 0
2, 113376, Note_on_c, 0, 75, 90
2, 113464, Note_on_c, 0, 75, 0
2, 113472, Note_on_c, 0, 79, 90
2, 113560, Note_on_c, 0, 79, 0
2, 113568, Note_on_c, 0, 82, 90
2, 113656, Note_on_c, 0, 82, 0
2, 113664, Note_on_c, 0, 75, 92
2, 113752, Note_on_c, 0, 75, 0
2, 113760, Note_on_c, 0, 77, 90
2, 113848, Note_on_c, 0, 77, 0
2, 113856, Note_on_c, 0, 79, 90
2, 113944, Note_on_c, 0, 79, 0
2, 113952, Note_on_c, 0, 77, 90
2, 114040, Note_on_c, 0, 77, 0
2, 114048, Note_on_c, 0, 75, 90
2, 114136, Note_on_c, 0, 75, 0
2, 114144, Note_on_c, 0, 74, 90
2, 114232, Note_on_c, 0, 74, 0
2, 114240, Note_on_c, 0, 72, 90
2, 114328, Note_on_c, 0, 72, 0
2, 114336, Note_on_c, 0, 70, 90
2, 114424, Note_on_c, 0, 70, 0
2, 114432, Note_on_c, 0, 72, 90
2, 114472, Note_on_c, 0, 72, 0
2, 114480, Note_on_c, 0, 74, 90
2, 114520, Note_on_c, 0, 74, 0
2, 114528, Note_on_c, 0, 72, 90
2, 114568, Note_on_c, 0, 72, 0
2, 114576, Note_on_c, 0, 74, 90
2, 114616, Note_on_c, 0, 74, 0
2, 114624, Note_on_c, 0, 72, 90
2, 114664, Note_on_c, 0, 72, 0
2, 114672, Note_on_c, 0, 74, 90
2, 114712, Note_on_c, 0, 74, 0
2, 114720, Note_on_c, 0, 72, 90
2, 114760, Note_on_c, 0, 72, 0
2, 114768, Note_on_c, 0, 74, 90
2, 114808, Note_on_c, 0, 74, 0
2, 114816, Note_on_c, 0, 72, 90
2, 114856, Note_on_c, 0, 72, 0
2, 114864, Note_on_c, 0, 74, 90
2, 114904, Note_on_c, 0, 74, 0
2, 114912, Note_on_c, 0, 72, 90
2, 114952, Note_on_c, 0, 72, 0
2, 114960, Note_on_c, 0, 74, 90
2, 115000, Note_on_c, 0, 74, 0
2, 115008, Note_on_c, 0, 70, 90
2, 115096, Note_on_c, 0, 70, 0
2, 115104, Note_on_c, 0, 72, 90
2, 115192, Note_on_c, 0, 72, 0
2, 115200, Note_on_c, 0, 70, 90
2, 115576, Note_on_c, 0, 70, 0
2, 119808, Note_on_c, 0, 70, 70
2, 120952, Note_on_c, 0, 70, 0
2, 120960, Note_on_c, 0, 72, 70
2, 121144, Note_on_c, 0, 72, 0
2, 121152, Note_on_c, 0, 73, 70
2, 121336, Note_on_c, 0, 73, 0
2, 121344, Note_on_c, 0, 72, 70
2, 121528, Note_on_c, 0, 72, 0
2, 121536, Note_on_c, 0, 75, 70
2, 121720, Note_on_c, 0, 75, 0
2, 121728, Note_on_c, 0, 78, 70
2, 122488, Note_on_c, 0, 78, 0
2, 122496, Note_on_c, 0, 77, 70
2, 122680, Note_on_c, 0, 77, 0
2, 122688, Note_on_c, 0, 75, 70
2, 122872, Note_on_c, 0, 75, 0
2, 122880, Note_on_c, 0, 75, 70
2, 122968, Note_on_c, 0, 75, 0
2, 122976, Note_on_c, 0, 73, 70
2, 123064, Note_on_c, 0, 73, 0
2, 123072, Note_on_c, 0, 72, 70
2, 123160, Note_on_c, 0, 72, 0
2, 123168, Note_on_c, 0, 70, 70
2, 123256, Note_on_c, 0, 70, 0
2, 123264, Note_on_c, 0, 70, 70
2, 123640, Note_on_c, 0, 70, 0
2, 123840, Note_on_c, 0, 73, 75
2, 124024, Note_on_c, 0, 73, 0
2, 124032, Note_on_c, 0, 75, 80
2, 124216, Note_on_c, 0, 75, 0
2, 124224, Note_on_c, 0, 77, 88
2, 124408, Note_on_c, 0, 77, 0
2, 124416, Note_on_c, 0, 78, 95
2, 126072, Note_on_c, 0, 78, 0
2, 126080, Note_on_c, 0, 75, 95
2, 126200, Note_on_c, 0, 75, 0
2, 126208, Note_on_c, 0, 72, 95
2, 126328, Note_on_c, 0, 72, 0
2, 126336, Note_on_c, 0, 68, 95
2, 126456, Note_on_c, 0, 68, 0
2, 126464, Note_on_c, 0, 72, 95
2, 126584, Note_on_c, 0, 72, 0
2, 126592, Note_on_c, 0, 75, 95
2, 126712, Note_on_c, 0, 75, 0
2, 126720, Note_on_c, 0, 78, 95
2, 126840, Note_on_c, 0, 78, 0
2, 126848, Note_on_c, 0, 75, 95
2, 126968, Note_on_c, 0, 75, 0
2, 126976, Note_on_c, 0, 72, 95
2, 127096, Note_on_c, 0, 72, 0
2, 127104, Note_on_c, 0, 68, 95
2, 127224, Note_on_c, 0, 68, 0
2, 127232, Note_on_c, 0, 72, 95
2, 127352, Note_on_c, 0, 72, 0
2, 127360, Note_on_c, 0, 75, 95
2, 127480, Note_on_c, 0, 75, 0
2, 127488, Note_on_c, 0, 78, 95
2, 127576, Note_on_c, 0, 78, 0
2, 127584, Note_on_c, 0, 75, 95
2, 127672, Note_on_c, 0, 75, 0
2, 127680, Note_on_c, 0, 72, 95
2, 127768, Note_on_c, 0, 72, 0
2, 127776, Note_on_c, 0, 68, 95
2, 127864, Note_on_c, 0, 68, 0
2, 127872, Note_on_c, 0, 66, 95
2, 127960, Note_on_c, 0, 66, 0
2, 127968, Note_on_c, 0, 63, 95
2, 128056, Note_on_c, 0, 63, 0
2, 128064, Note_on_c, 0, 60, 95
2, 128152, Note_on_c, 0, 60, 0
2, 128160, Note_on_c, 0, 56, 95
2, 128248, Note_on_c, 0, 56, 0
2, 128256, Note_on_c, 0, 54, 95
2, 128344, Note_on_c, 0, 54, 0
2, 128352, Note_on_c, 0, 56, 95
2, 128440, Note_on_c, 0, 56, 0
2, 128448, Note_on_c, 0, 60, 95
2, 128536, Note_on_c, 0, 60, 0
2, 128544, Note_on_c, 0, 63, 95
2, 128632, Note_on_c, 0, 63, 0
2, 128640, Note_on_c, 0, 66, 95
2, 128728, Note_on_c, 0, 66, 0
2, 128736, Note_on_c, 0, 68, 95
2, 128824, Note_on_c, 0, 68, 0
2, 128832, Note_on_c, 0, 72, 95
2, 128920, Note_on_c, 0, 72, 0
2, 128928, Note_on_c, 0, 75, 95
2, 129016, Note_on_c, 0, 75, 0
2, 129024, Note_on_c, 0, 78, 94
2, 129208, Note_on_c, 0, 78, 0
2, 129216, Note_on_c, 0, 77, 94
2, 129400, Note_on_c, 0, 77, 0
2, 129408, Note_on_c, 0, 75, 93
2, 129592, Note_on_c, 0, 75, 0
2, 129600, Note_on_c, 0, 73, 93
2, 129784, Note_on_c, 0, 73, 0
2, 129792, Note_on_c, 0, 72, 92
2, 129976, Note_on_c, 0, 72, 0
2, 129984, Note_on_c, 0, 82, 92
2, 130168, Note_on_c, 0, 82, 0
2, 130176, Note_on_c, 0, 80, 91
2, 130360, Note_on_c, 0, 80, 0
2, 130368, Note_on_c, 0, 78, 91
2, 130552, Note_on_c, 0, 78, 0
2, 130560, Note_on_c, 0, 76, 90
2, 130936, Note_on_c, 0, 76, 0
2, 130944, Note_on_c, 0, 77, 90
2, 131320, Note_on_c, 0, 77, 0
2, 131520, Note_on_c, 0, 68, 70
2, 131704, Note_on_c, 0, 68, 0
2, 131712, Note_on_c, 0, 73, 70
2, 131896, Note_on_c, 0, 73, 0
2, 131904, Note_on_c, 0, 77, 70
2, 132088, Note_on_c, 0, 77, 0
2, 132096, Note_on_c, 0, 75, 70
2, 132664, Note_on_c, 0, 75, 0
2, 132672, Note_on_c, 0, 77, 70
2, 132856, Note_on_c, 0, 77, 0
2, 132864, Note_on_c, 0, 78, 70
2, 133048, Note_on_c, 0, 78, 0
2, 133056, Note_on_c, 0, 75, 70
2, 133240, Note_on_c, 0, 75, 0
2, 133248, Note_on_c, 0, 70, 70
2, 133432, Note_on_c, 0, 70, 0
2, 133440, Note_on_c, 0, 72, 70
2, 133624, Note_on_c, 0, 72, 0
2, 133632, Note_on_c, 0, 73, 70
2, 133816, Note_on_c, 0, 73, 0
2, 133824, Note_on_c, 0, 77, 70
2, 134008, Note_on_c, 0, 77, 0
2, 134016, Note_on_c, 0, 80, 70
2, 134584, Note_on_c, 0, 80, 0
2, 134592, Note_on_c, 0, 79, 70
2, 134776, Note_on_c, 0, 79, 0
2, 134784, Note_on_c, 0, 78, 70
2, 134968, Note_on_c, 0, 78, 0
2, 134976, Note_on_c, 0, 77, 70
2, 135160, Note_on_c, 0, 77, 0
2, 135168, Note_on_c, 0, 75, 70
2, 135736, Note_on_c, 0, 75, 0
2, 135744, Note_on_c, 0, 77, 70
2, 135928, Note_on_c, 0, 77, 0
2, 135936, Note_on_c, 0, 78, 70
2, 136120, Note_on_c, 0, 78, 0
2, 136128, Note_on_c, 0, 75, 70
2, 136312, Note_on_c, 0, 75, 0
2, 136320, Note_on_c, 0, 70, 70
2, 136504, Note_on_c, 0, 70, 0
2, 136512, Note_on_c, 0, 72, 70
2, 136696, Note_on_c, 0, 72, 0
2, 136704, Note_on_c, 0, 73, 70
2, 136888, Note_on_c, 0, 73, 0
2, 136896, Note_on_c, 0, 77, 70
2, 137080, Note_on_c, 0, 77, 0
2, 137088, Note_on_c, 0, 80, 70
2, 137656, Note_on_c, 0, 80, 0
2, 137664, Note_on_c, 0, 77, 70
2, 137848, Note_on_c, 0, 77, 0
2, 137856, Note_on_c, 0, 75, 70
2, 138040, Note_on_c, 0, 75, 0
2, 138048, Note_on_c, 0, 73, 70
2, 138232, Note_on_c, 0, 73, 0
2, 138240, Note_on_c, 0, 72, 70
2, 138424, Note_on_c, 0, 72, 0
2, 138432, Note_on_c, 0, 75, 70
2, 138616, Note_on_c, 0, 75, 0
2, 138624, Note_on_c, 0, 80, 70
2, 139192, Note_on_c, 0, 80, 0
2, 139200, Note_on_c, 0, 75, 70
2, 139384, Note_on_c, 0, 75, 0
2, 139392, Note_on_c, 0, 73, 70
2, 139576, Note_on_c, 0, 73, 0
2, 139584, Note_on_c, 0, 72, 70
2, 139768, Note_on_c, 0, 72, 0
2, 139776, Note_on_c, 0, 71, 72
2, 140152, Note_on_c, 0, 71, 0
2, 140160, Note_on_c, 0, 62, 74
2, 140920, Note_on_c, 0, 62, 0
2, 140928, Note_on_c, 0, 60, 76
2, 141304, Note_on_c, 0, 60, 0
2, 141312, Note_on_c, 0, 59, 77
2, 141688, Note_on_c, 0, 59, 0
2, 141696, Note_on_c, 0, 80, 73
2, 142456, Note_on_c, 0, 80, 0
2, 142464, Note_on_c, 0, 79, 72
2, 142648, Note_on_c, 0, 79, 0
2, 142656, Note_on_c, 0, 77, 71
2, 142840, Note_on_c, 0, 77, 0
2, 142848, Note_on_c, 0, 77, 70
2, 143416, Note_on_c, 0, 77, 0
2, 143424, Note_on_c, 0, 75, 70
2, 143480, Note_on_c, 0, 75, 0
2, 143488, Note_on_c, 0, 73, 70
2, 143544, Note_on_c, 0, 73, 0
2, 143552, Note_on_c, 0, 72, 70
2, 143608, Note_on_c, 0, 72, 0
2, 143616, Note_on_c, 0, 71, 70
2, 143992, Note_on_c, 0, 71, 0
2, 144000, Note_on_c, 0, 71, 70
2, 144376, Note_on_c, 0, 71, 0
2, 144384, Note_on_c, 0, 72, 70
2, 144760, Note_on_c, 0, 72, 0
2, 145344, Note_on_c, 0, 60, 90
2, 145432, Note_on_c, 0, 60, 0
2, 145536, Note_on_c, 0, 64, 90
2, 145624, Note_on_c, 0, 64, 0
2, 145728, Note_on_c, 0, 60, 90
2, 145816, Note_on_c, 0, 60, 0
2, 145920, Note_on_c, 0, 53, 90
2, 146008, Note_on_c, 0, 53, 0
2, 146016, Note_on_c, 0, 52, 90
2, 146104, Note_on_c, 0, 52, 0
2, 146112, Note_on_c, 0, 53, 90
2, 146200, Note_on_c, 0, 53, 0
2, 146208, Note_on_c, 0, 52, 90
2, 146296, Note_on_c, 0, 52, 0
2, 146304, Note_on_c, 0, 53, 90
2, 146392, Note_on_c, 0, 53, 0
2, 146400, Note_on_c, 0, 52, 90
2, 146488, Note_on_c, 0, 52, 0
2, 146496, Note_on_c, 0, 53, 90
2, 146584, Note_on_c, 0, 53, 0
2, 146592, Note_on_c, 0, 55, 90
2, 146680, Note_on_c, 0, 55, 0
2, 146688, Note_on_c, 0, 56, 90
2, 146776, Note_on_c, 0, 56, 0
2, 146784, Note_on_c, 0, 55, 90
2, 146872, Note_on_c, 0, 55, 0
2, 146880, Note_on_c, 0, 53, 90
2, 146968, Note_on_c, 0, 53, 0
2, 146976, Note_on_c, 0, 55, 90
2, 147064, Note_on_c, 0, 55, 0
2, 147072, Note_on_c, 0, 56, 90
2, 147160, Note_on_c, 0, 56, 0
2, 147168, Note_on_c, 0, 55, 90
2, 147256, Note_on_c, 0, 55, 0
2, 147264, Note_on_c, 0, 56, 90
2, 147352, Note_on_c, 0, 56, 0
2, 147360, Note_on_c, 0, 58, 90
2, 147448, Note_on_c, 0, 58, 0
2, 147456, Note_on_c, 0, 60, 90
2, 147640, Note_on_c, 0, 60, 0
2, 147840, Note_on_c, 0, 72, 90
2, 148024, Note_on_c, 0, 72, 0
2, 148416, Note_on_c, 0, 60, 90
2, 148504, Note_on_c, 0, 60, 0
2, 148608, Note_on_c, 0, 62, 90
2, 148696, Note_on_c, 0, 62, 0
2, 148800, Note_on_c, 0, 64, 90
2, 148888, Note_on_c, 0, 64, 0
2, 148992, Note_on_c, 0, 65, 90
2, 149080, Note_on_c, 0, 65, 0
2, 149088, Note_on_c, 0, 64, 90
2, 149176, Note_on_c, 0, 64, 0
2, 149184, Note_on_c, 0, 65, 90
2, 149272, Note_on_c, 0, 65, 0
2, 149280, Note_on_c, 0, 64, 90
2, 149368, Note_on_c, 0, 64, 0
2, 149376, Note_on_c, 0, 65, 90
2, 149464, Note_on_c, 0, 65, 0
2, 149472, Note_on_c, 0, 64, 90
2, 149560, Note_on_c, 0, 64, 0
2, 149568, Note_on_c, 0, 65, 90
2, 149656, Note_on_c, 0, 65, 0
2, 149664, Note_on_c, 0, 67, 90
2, 149752, Note_on_c, 0, 67, 0
2, 149760, Note_on_c, 0, 68, 90
2, 149848, Note_on_c, 0, 68, 0
2, 149856, Note_on_c, 0, 67, 90
2, 149944, Note_on_c, 0, 67, 0
2, 149952, Note_on_c, 0, 65, 90
2, 150040, Note_on_c, 0, 65, 0
2, 150048, Note_on_c, 0, 67, 90
2, 150136, Note_on_c, 0, 67, 0
2, 150144, Note_on_c, 0, 68, 90
2, 150232, Note_on_c, 0, 68, 0
2, 150240, Note_on_c, 0, 67, 90
2, 150328, Note_on_c, 0, 67, 0
2, 150336, Note_on_c, 0, 68, 90
2, 150424, Note_on_c, 0, 68, 0
2, 150432, Note_on_c, 0, 70, 90
2, 150520, Note_on_c, 0, 70, 0
2, 150528, Note_on_c, 0, 72, 90
2, 150904, Note_on_c, 0, 72, 0
2, 153600, Note_on_c, 0, 72, 70
2, 154552, Note_on_c, 0, 72, 0
2, 154560, Note_on_c, 0, 74, 70
2, 154744, Note_on_c, 0, 74, 0
2, 154752, Note_on_c, 0, 76, 70
2, 154936, Note_on_c, 0, 76, 0
2, 154944, Note_on_c, 0, 77, 70
2, 155128, Note_on_c, 0, 77, 0
2, 155136, Note_on_c, 0, 77, 70
2, 155320, Note_on_c, 0, 77, 0
2, 155328, Note_on_c, 0, 76, 70
2, 155512, Note_on_c, 0, 76, 0
2, 155520, Note_on_c, 0, 72, 70
2, 155704, Note_on_c, 0, 72, 0
2, 155712, Note_on_c, 0, 69, 70
2, 155896, Note_on_c, 0, 69, 0
2, 155904, Note_on_c, 0, 66, 70
2, 156088, Note_on_c, 0, 66, 0
2, 156096, Note_on_c, 0, 67, 70
2, 156280, Note_on_c, 0, 67, 0
2, 156288, Note_on_c, 0, 70, 70
2, 156472, Note_on_c, 0, 70, 0
2, 156480, Note_on_c, 0, 74, 70
2, 156664, Note_on_c, 0, 74, 0
2, 156672, Note_on_c, 0, 74, 70
2, 156856, Note_on_c, 0, 74, 0
2, 156864, Note_on_c, 0, 72, 70
2, 157048, Note_on_c, 0, 72, 0
2, 157056, Note_on_c, 0, 69, 70
2, 157240, Note_on_c, 0, 69, 0
2, 157248, Note_on_c, 0, 65, 70
2, 157432, Note_on_c, 0, 65, 0
2, 157440, Note_on_c, 0, 65, 70
2, 157624, Note_on_c, 0, 65, 0
2, 157632, Note_on_c, 0, 64, 70
2, 157816, Note_on_c, 0, 64, 0
2, 157824, Note_on_c, 0, 67, 70
2, 158008, Note_on_c, 0, 67, 0
2, 158016, Note_on_c, 0, 70, 70
2, 158200, Note_on_c, 0, 70, 0
2, 158208, Note_on_c, 0, 69, 70
2, 158296, Note_on_c, 0, 69, 0
2, 158304, Note_on_c, 0, 70, 70
2, 158392, Note_on_c, 0, 70, 0
2, 158400, Note_on_c, 0, 72, 70
2, 158440, Note_on_c, 0, 72, 0
2, 158496, Note_on_c, 0, 74, 70
2, 158536, Note_on_c, 0, 74, 0
2, 158592, Note_on_c, 0, 76, 70
2, 158632, Note_on_c, 0, 76, 0
2, 158688, Note_on_c, 0, 77, 70
2, 158728, Note_on_c, 0, 77, 0
2, 158784, Note_on_c, 0, 79, 70
2, 158824, Note_on_c, 0, 79, 0
2, 158880, Note_on_c, 0, 81, 70
2, 158920, Note_on_c, 0, 81, 0
2, 158976, Note_on_c, 0, 82, 70
2, 159544, Note_on_c, 0, 82, 0
2, 159552, Note_on_c, 0, 76, 70
2, 159736, Note_on_c, 0, 76, 0
2, 159744, Note_on_c, 0, 79, 70
2, 159928, Note_on_c, 0, 79, 0
2, 159936, Note_on_c, 0, 77, 70
2, 160120, Note_on_c, 0, 77, 0
2, 160128, Note_on_c, 0, 77, 70
2, 160696, Note_on_c, 0, 77, 0
2, 160704, Note_on_c, 0, 79, 70
2, 160792, Note_on_c, 0, 79, 0
2, 160800, Note_on_c, 0, 81, 70
2, 160888, Note_on_c, 0, 81, 0
2, 160896, Note_on_c, 0, 79, 70
2, 160984, Note_on_c, 0, 79, 0
2, 161088, Note_on_c, 0, 77, 70
2, 161176, Note_on_c, 0, 77, 0
2, 161280, Note_on_c, 0, 76, 70
2, 161400, Note_on_c, 0, 76, 0
2, 161408, Note_on_c, 0, 79, 70
2, 161528, Note_on_c, 0, 79, 0
2, 161536, Note_on_c, 0, 82, 70
2, 161656, Note_on_c, 0, 82, 0
2, 161664, Note_on_c, 0, 79, 70
2, 161784, Note_on_c, 0, 79, 0
2, 161792, Note_on_c, 0, 76, 70
2, 161912, Note_on_c, 0, 76, 0
2, 161920, Note_on_c, 0, 72, 70
2, 162040, Note_on_c, 0, 72, 0
2, 162048, Note_on_c, 0, 70, 70
2, 162424, Note_on_c, 0, 70, 0
2, 162816, Note_on_c, 0, 69, 70
2, 163000, Note_on_c, 0, 69, 0
2, 163008, Note_on_c, 0, 72, 70
2, 163192, Note_on_c, 0, 72, 0
2, 163200, Note_on_c, 0, 77, 70
2, 163768, Note_on_c, 0, 77, 0
2, 163776, Note_on_c, 0, 79, 70
2, 163864, Note_on_c, 0, 79, 0
2, 163872, Note_on_c, 0, 81, 70
2, 163960, Note_on_c, 0, 81, 0
2, 163968, Note_on_c, 0, 79, 70
2, 164056, Note_on_c, 0, 79, 0
2, 164160, Note_on_c, 0, 77, 70
2, 164248, Note_on_c, 0, 77, 0
2, 164352, Note_on_c, 0, 76, 70
2, 164440, Note_on_c, 0, 76, 0
2, 164448, Note_on_c, 0, 79, 70
2, 164536, Note_on_c, 0, 79, 0
2, 164544, Note_on_c, 0, 82, 70
2, 164632, Note_on_c, 0, 82, 0
2, 164640, Note_on_c, 0, 79, 70
2, 164728, Note_on_c, 0, 79, 0
2, 164736, Note_on_c, 0, 76, 70
2, 164824, Note_on_c, 0, 76, 0
2, 164832, Note_on_c, 0, 72, 70
2, 164920, Note_on_c, 0, 72, 0
2, 164928, Note_on_c, 0, 70, 72
2, 165016, Note_on_c, 0, 70, 0
2, 165024, Note_on_c, 0, 67, 74
2, 165112, Note_on_c, 0, 67, 0
2, 165120, Note_on_c, 0, 64, 76
2, 165496, Note_on_c, 0, 64, 0
2, 165888, Note_on_c, 0, 77, 70
2, 165976, Note_on_c, 0, 77, 0
2, 165984, Note_on_c, 0, 76, 70
2, 166072, Note_on_c, 0, 76, 0
2, 166080, Note_on_c, 0, 79, 70
2, 166168, Note_on_c, 0, 79, 0
2, 166176, Note_on_c, 0, 77, 70
2, 166264, Note_on_c, 0, 77, 0
2, 166272, Note_on_c, 0, 81, 70
2, 166360, Note_on_c, 0, 81, 0
2, 166368, Note_on_c, 0, 79, 70
2, 166456, Note_on_c, 0, 79, 0
2, 166464, Note_on_c, 0, 77, 70
2, 166552, Note_on_c, 0, 77, 0
2, 166560, Note_on_c, 0, 76, 70
2, 166648, Note_on_c, 0, 76, 0
2, 166656, Note_on_c, 0, 74, 70
2, 166744, Note_on_c, 0, 74, 0
2, 166752, Note_on_c, 0, 73, 70
2, 166840, Note_on_c, 0, 73, 0
2, 166848, Note_on_c, 0, 76, 70
2, 166936, Note_on_c, 0, 76, 0
2, 166944, Note_on_c, 0, 74, 70
2, 167032, Note_on_c, 0, 74, 0
2, 167040, Note_on_c, 0, 77, 70
2, 167224, Note_on_c, 0, 77, 0
2, 167424, Note_on_c, 0, 74, 70
2, 167512, Note_on_c, 0, 74, 0
2, 167520, Note_on_c, 0, 73, 70
2, 167608, Note_on_c, 0, 73, 0
2, 167616, Note_on_c, 0, 76, 70
2, 167704, Note_on_c, 0, 76, 0
2, 167712, Note_on_c, 0, 74, 70
2, 167800, Note_on_c, 0, 74, 0
2, 167808, Note_on_c, 0, 77, 70
2, 167896, Note_on_c, 0, 77, 0
2, 167904, Note_on_c, 0, 76, 70
2, 167992, Note_on_c, 0, 76, 0
2, 168000, Note_on_c, 0, 74, 70
2, 168088, Note_on_c, 0, 74, 0
2, 168096, Note_on_c, 0, 72, 70
2, 168184, Note_on_c, 0, 72, 0
2, 168192, Note_on_c, 0, 70, 70
2, 168280, Note_on_c, 0, 70, 0
2, 168288, Note_on_c, 0, 69, 70
2, 168376, Note_on_c, 0, 69, 0
2, 168384, Note_on_c, 0, 72, 70
2, 168472, Note_on_c, 0, 72, 0
2, 168480, Note_on_c, 0, 70, 70
2, 168568, Note_on_c, 0, 70, 0
2, 168576, Note_on_c, 0, 74, 70
2, 168760, Note_on_c, 0, 74, 0
2, 168960, Note_on_c, 0, 70, 70
2, 169048, Note_on_c, 0, 70, 0
2, 169056, Note_on_c, 0, 69, 70
2, 169144, Note_on_c, 0, 69, 0
2, 169152, Note_on_c, 0, 72, 70
2, 169240, Note_on_c, 0, 72, 0
2, 169248, Note_on_c, 0, 70, 70
2, 169336, Note_on_c, 0, 70, 0
2, 169344, Note_on_c, 0, 74, 70
2, 169432, Note_on_c, 0, 74, 0
2, 169440, Note_on_c, 0, 72, 70
2, 169528, Note_on_c, 0, 72, 0
2, 169536, Note_on_c, 0, 70, 70
2, 169624, Note_on_c, 0, 70, 0
2, 169632, Note_on_c, 0, 69, 70
2, 169720, Note_on_c, 0, 69, 0
2, 169728, Note_on_c, 0, 67, 70
2, 169816, Note_on_c, 0, 67, 0
2, 169824, Note_on_c, 0, 66, 70
2, 169912, Note_on_c, 0, 66, 0
2, 169920, Note_on_c, 0, 69, 70
2, 170008, Note_on_c, 0, 69, 0
2, 170016, Note_on_c, 0, 67, 70
2, 170104, Note_on_c, 0, 67, 0
2, 170112, Note_on_c, 0, 70, 70
2, 170200, Note_on_c, 0, 70, 0
2, 170208, Note_on_c, 0, 69, 70
2, 170296, Note_on_c, 0, 69, 0
2, 170304, Note_on_c, 0, 67, 70
2, 170392, Note_on_c, 0, 67, 0
2, 170400, Note_on_c, 0, 65, 70
2, 170488, Note_on_c, 0, 65, 0
2, 170496, Note_on_c, 0, 64, 70
2, 170584, Note_on_c, 0, 64, 0
2, 170592, Note_on_c, 0, 60, 72
2, 170680, Note_on_c, 0, 60, 0
2, 170688, Note_on_c, 0, 58, 74
2, 170776, Note_on_c, 0, 58, 0
2, 170784, Note_on_c, 0, 55, 76
2, 170872, Note_on_c, 0, 55, 0
2, 170880, Note_on_c, 0, 58, 74
2, 170968, Note_on_c, 0, 58, 0
2, 170976, Note_on_c, 0, 60, 72
2, 171064, Note_on_c, 0, 60, 0
2, 171072, Note_on_c, 0, 64, 70
2, 171160, Note_on_c, 0, 64, 0
2, 171168, Note_on_c, 0, 67, 70
2, 171256, Note_on_c, 0, 67, 0
2, 171264, Note_on_c, 0, 70, 70
2, 171352, Note_on_c, 0, 70, 0
2, 171360, Note_on_c, 0, 72, 70
2, 171448, Note_on_c, 0, 72, 0
2, 171456, Note_on_c, 0, 76, 70
2, 171544, Note_on_c, 0, 76, 0
2, 171552, Note_on_c, 0, 79, 70
2, 171640, Note_on_c, 0, 79, 0
2, 171648, Note_on_c, 0, 82, 70
2, 171736, Note_on_c, 0, 82, 0
2, 171744, Note_on_c, 0, 79, 70
2, 171832, Note_on_c, 0, 79, 0
2, 171840, Note_on_c, 0, 76, 70
2, 171928, Note_on_c, 0, 76, 0
2, 171936, Note_on_c, 0, 79, 70
2, 172024, Note_on_c, 0, 79, 0
2, 172032, Note_on_c, 0, 77, 70
2, 172216, Note_on_c, 0, 77, 0
2, 172224, Note_on_c, 0, 84, 70
2, 172408, Note_on_c, 0, 84, 0
2, 172416, Note_on_c, 0, 82, 70
2, 172600, Note_on_c, 0, 82, 0
2, 172608, Note_on_c, 0, 81, 70
2, 172792, Note_on_c, 0, 81, 0
2, 172800, Note_on_c, 0, 79, 70
2, 172984, Note_on_c, 0, 79, 0
2, 172992, Note_on_c, 0, 77, 70
2, 173176, Note_on_c, 0, 77, 0
2, 173184, Note_on_c, 0, 76, 70
2, 173368, Note_on_c, 0, 76, 0
2, 173376, Note_on_c, 0, 75, 70
2, 173560, Note_on_c, 0, 75, 0
2, 173568, Note_on_c, 0, 74, 70
2, 173656, Note_on_c, 0, 74, 0
2, 173760, Note_on_c, 0, 75, 70
2, 173848, Note_on_c, 0, 75, 0
2, 173952, Note_on_c, 0, 76, 70
2, 174040, Note_on_c, 0, 76, 0
2, 174144, Note_on_c, 0, 77, 70
2, 174232, Note_on_c, 0, 77, 0
2, 174336, Note_on_c, 0, 78, 70
2, 174424, Note_on_c, 0, 78, 0
2, 174528, Note_on_c, 0, 79, 70
2, 174616, Note_on_c, 0, 79, 0
2, 174720, Note_on_c, 0, 81, 70
2, 174808, Note_on_c, 0, 81, 0
2, 174912, Note_on_c, 0, 82, 70
2, 175000, Note_on_c, 0, 82, 0
2, 175104, Note_on_c, 0, 77, 70
2, 176248, Note_on_c, 0, 77, 0
2, 176256, Note_on_c, 0, 81, 70
2, 176440, Note_on_c, 0, 81, 0
2, 176448, Note_on_c, 0, 79, 70
2, 176632, Note_on_c, 0, 79, 0
2, 176640, Note_on_c, 0, 77, 70
2, 177016, Note_on_c, 0, 77, 0
2, 177600, Note_on_c, 0, 77, 70
2, 177784, Note_on_c, 0, 77, 0
2, 177792, Note_on_c, 0, 76, 70
2, 177976, Note_on_c, 0, 76, 0
2, 177984, Note_on_c, 0, 74, 70
2, 178168, Note_on_c, 0, 74, 0
2, 178176, Note_on_c, 0, 73, 70
2, 178360, Note_on_c, 0, 73, 0
2, 178368, Note_on_c, 0, 76, 70
2, 178552, Note_on_c, 0, 76, 0
2, 178560, Note_on_c, 0, 79, 70
2, 179320, Note_on_c, 0, 79, 0
2, 179328, Note_on_c, 0, 73, 70
2, 179704, Note_on_c, 0, 73, 0
2, 179712, Note_on_c, 0, 76, 70
2, 180088, Note_on_c, 0, 76, 0
2, 180096, Note_on_c, 0, 74, 70
2, 180472, Note_on_c, 0, 74, 0
2, 180672, Note_on_c, 0, 50, 80
2, 180856, Note_on_c, 0, 50, 0
2, 180864, Note_on_c, 0, 53, 80
2, 181048, Note_on_c, 0, 53, 0
2, 181056, Note_on_c, 0, 50, 80
2, 181240, Note_on_c, 0, 50, 0
2, 181248, Note_on_c, 0, 57, 80
2, 181432, Note_on_c, 0, 57, 0
2, 181440, Note_on_c, 0, 56, 80
2, 181624, Note_on_c, 0, 56, 0
2, 181632, Note_on_c, 0, 57, 80
2, 181816, Note_on_c, 0, 57, 0
2, 181824, Note_on_c, 0, 56, 80
2, 182008, Note_on_c, 0, 56, 0
2, 182016, Note_on_c, 0, 57, 80
2, 182200, Note_on_c, 0, 57, 0
2, 182208, Note_on_c, 0, 56, 80
2, 182392, Note_on_c, 0, 56, 0
2, 182400, Note_on_c, 0, 57, 80
2, 182584, Note_on_c, 0, 57, 0
2, 182592, Note_on_c, 0, 55, 80
2, 182776, Note_on_c, 0, 55, 0
2, 182784, Note_on_c, 0, 53, 82
2, 183160, Note_on_c, 0, 53, 0
2, 183168, Note_on_c, 0, 50, 84
2, 183544, Note_on_c, 0, 50, 0
2, 183744, Note_on_c, 0, 77, 70
2, 183928, Note_on_c, 0, 77, 0
2, 183936, Note_on_c, 0, 76, 70
2, 184120, Note_on_c, 0, 76, 0
2, 184128, Note_on_c, 0, 74, 70
2, 184312, Note_on_c, 0, 74, 0
2, 184320, Note_on_c, 0, 73, 70
2, 184504, Note_on_c, 0, 73, 0
2, 184512, Note_on_c, 0, 76, 70
2, 184696, Note_on_c, 0, 76, 0
2, 184704, Note_on_c, 0, 79, 70
2, 185464, Note_on_c, 0, 79, 0
2, 185472, Note_on_c, 0, 73, 70
2, 185848, Note_on_c, 0, 73, 0
2, 185856, Note_on_c, 0, 76, 70
2, 186232, Note_on_c, 0, 76, 0
2, 186240, Note_on_c, 0, 74, 70
2, 186616, Note_on_c, 0, 74, 0
2, 186816, Note_on_c, 0, 50, 80
2, 187000, Note_on_c, 0, 50, 0
2, 187008, Note_on_c, 0, 53, 80
2, 187192, Note_on_c, 0, 53, 0
2, 187200, Note_on_c, 0, 50, 80
2, 187384, Note_on_c, 0, 50, 0
2, 187392, Note_on_c, 0, 57, 80
2, 187576, Note_on_c, 0, 57, 0
2, 187584, Note_on_c, 0, 56, 80
2, 187768, Note_on_c, 0, 56, 0
2, 187776, Note_on_c, 0, 57, 80
2, 187960, Note_on_c, 0, 57, 0
2, 187968, Note_on_c, 0, 56, 80
2, 188152, Note_on_c, 0, 56, 0
2, 188160, Note_on_c, 0, 57, 80
2, 188344, Note_on_c, 0, 57, 0
2, 188352, Note_on_c, 0, 56, 80
2, 188536, Note_on_c, 0, 56, 0
2, 188544, Note_on_c, 0, 57, 80
2, 188728, Note_on_c, 0, 57, 0
2, 188736, Note_on_c, 0, 55, 80
2, 188920, Note_on_c, 0, 55, 0
2, 188928, Note_on_c, 0, 53, 82
2, 189304, Note_on_c, 0, 53, 0
2, 189312, Note_on_c, 0, 50, 84
2, 189688, Note_on_c, 0, 50, 0
2, 189824, Note_on_c, 0, 74, 80
2, 189884, Note_on_c, 0, 74, 0
2, 189952, Note_on_c, 0, 75, 80
2, 190012, Note_on_c, 0, 75, 0
2, 190080, Note_on_c, 0, 77, 80
2, 190140, Note_on_c, 0, 77, 0
2, 190208, Note_on_c, 0, 79, 80
2, 190268, Note_on_c, 0, 79, 0
2, 190336, Note_on_c, 0, 81, 80
2, 190396, Note_on_c, 0, 81, 0
2, 190464, Note_on_c, 0, 82, 80
2, 191032, Note_on_c, 0, 82, 0
2, 191040, Note_on_c, 0, 79, 80
2, 191224, Note_on_c, 0, 79, 0
2, 191232, Note_on_c, 0, 76, 80
2, 191292, Note_on_c, 0, 76, 0
2, 191360, Note_on_c, 0, 77, 80
2, 191420, Note_on_c, 0, 77, 0
2, 191488, Note_on_c, 0, 78, 80
2, 191548, Note_on_c, 0, 78, 0
2, 191616, Note_on_c, 0, 79, 80
2, 191676, Note_on_c, 0, 79, 0
2, 191744, Note_on_c, 0, 80, 80
2, 191804, Note_on_c, 0, 80, 0
2, 191872, Note_on_c, 0, 81, 80
2, 191932, Note_on_c, 0, 81, 0
2, 192000, Note_on_c, 0, 82, 80
2, 192568, Note_on_c, 0, 82, 0
2, 192576, Note_on_c, 0, 79, 80
2, 192760, Note_on_c, 0, 79, 0
2, 192768, Note_on_c, 0, 76, 80
2, 192856, Note_on_c, 0, 76, 0
2, 192864, Note_on_c, 0, 74, 80
2, 192952, Note_on_c, 0, 74, 0
2, 192960, Note_on_c, 0, 72, 80
2, 193000, Note_on_c, 0, 72, 0
2, 193056, Note_on_c, 0, 74, 80
2, 193096, Note_on_c, 0, 74, 0
2, 193152, Note_on_c, 0, 76, 80
2, 193192, Note_on_c, 0, 76, 0
2, 193248, Note_on_c, 0, 77, 80
2, 193288, Note_on_c, 0, 77, 0
2, 193344, Note_on_c, 0, 79, 80
2, 193384, Note_on_c, 0, 79, 0
2, 193440, Note_on_c, 0, 81, 80
2, 193480, Note_on_c, 0, 81, 0
2, 193536, Note_on_c, 0, 82, 80
2, 193624, Note_on_c, 0, 82, 0
2, 193632, Note_on_c, 0, 79, 80
2, 193720, Note_on_c, 0, 79, 0
2, 193728, Note_on_c, 0, 76, 80
2, 193816, Note_on_c, 0, 76, 0
2, 193824, Note_on_c, 0, 72, 80
2, 193912, Note_on_c, 0, 72, 0
2, 193920, Note_on_c, 0, 70, 81
2, 194008, Note_on_c, 0, 70, 0
2, 194016, Note_on_c, 0, 67, 82
2, 194104, Note_on_c, 0, 67, 0
2, 194112, Note_on_c, 0, 64, 83
2, 194200, Note_on_c, 0, 64, 0
2, 194208, Note_on_c, 0, 60, 84
2, 194296, Note_on_c, 0, 60, 0
2, 194304, Note_on_c, 0, 58, 85
2, 194392, Note_on_c, 0, 58, 0
2, 194400, Note_on_c, 0, 60, 84
2, 194488, Note_on_c, 0, 60, 0
2, 194496, Note_on_c, 0, 64, 83
2, 194584, Note_on_c, 0, 64, 0
2, 194592, Note_on_c, 0, 67, 82
2, 194680, Note_on_c, 0, 67, 0
2, 194688, Note_on_c, 0, 70, 81
2, 194776, Note_on_c, 0, 70, 0
2, 194784, Note_on_c, 0, 72, 80
2, 194872, Note_on_c, 0, 72, 0
2, 194880, Note_on_c, 0, 76, 80
2, 194968, Note_on_c, 0, 76, 0
2, 194976, Note_on_c, 0, 79, 80
2, 195064, Note_on_c, 0, 79, 0
2, 195072, Note_on_c, 0, 82, 80
2, 195640, Note_on_c, 0, 82, 0
2, 195648, Note_on_c, 0, 79, 80
2, 195736, Note_on_c, 0, 79, 0
2, 195840, Note_on_c, 0, 76, 80
2, 196216, Note_on_c, 0, 76, 0
2, 198144, Note_on_c, 0, 77, 70
2, 198904, Note_on_c, 0, 77, 0
2, 198912, Note_on_c, 0, 76, 70
2, 199480, Note_on_c, 0, 76, 0
2, 199488, Note_on_c, 0, 77, 70
2, 199672, Note_on_c, 0, 77, 0
2, 199680, Note_on_c, 0, 81, 70
2, 199864, Note_on_c, 0, 81, 0
2, 199872, Note_on_c, 0, 79, 70
2, 200056, Note_on_c, 0, 79, 0
2, 200064, Note_on_c, 0, 77, 70
2, 200152, Note_on_c, 0, 77, 0
2, 200256, Note_on_c, 0, 76, 70
2, 200344, Note_on_c, 0, 76, 0
2, 200448, Note_on_c, 0, 74, 70
2, 201016, Note_on_c, 0, 74, 0
2, 201024, Note_on_c, 0, 76, 70
2, 201208, Note_on_c, 0, 76, 0
2, 201216, Note_on_c, 0, 77, 70
2, 201400, Note_on_c, 0, 77, 0
2, 201408, Note_on_c, 0, 79, 70
2, 201496, Note_on_c, 0, 79, 0
2, 201504, Note_on_c, 0, 81, 70
2, 201592, Note_on_c, 0, 81, 0
2, 201600, Note_on_c, 0, 79, 70
2, 201688, Note_on_c, 0, 79, 0
2, 201696, Note_on_c, 0, 77, 70
2, 201784, Note_on_c, 0, 77, 0
2, 201792, Note_on_c, 0, 76, 70
2, 201880, Note_on_c, 0, 76, 0
2, 201888, Note_on_c, 0, 74, 70
2, 201976, Note_on_c, 0, 74, 0
2, 201984, Note_on_c, 0, 74, 70
2, 202168, Note_on_c, 0, 74, 0
2, 202176, Note_on_c, 0, 72, 70
2, 202360, Note_on_c, 0, 72, 0
2, 202368, Note_on_c, 0, 72, 70
2, 202552, Note_on_c, 0, 72, 0
2, 202560, Note_on_c, 0, 71, 70
2, 202744, Note_on_c, 0, 71, 0
2, 202752, Note_on_c, 0, 72, 70
2, 202936, Note_on_c, 0, 72, 0
2, 202944, Note_on_c, 0, 74, 70
2, 203128, Note_on_c, 0, 74, 0
2, 203136, Note_on_c, 0, 70, 70
2, 203320, Note_on_c, 0, 70, 0
2, 205824, Note_on_c, 0, 53, 85
2, 205904, Note_on_c, 0, 60, 80
2, 205912, Note_on_c, 0, 53, 0
2, 205992, Note_on_c, 0, 60, 0
2, 206016, Note_on_c, 0, 57, 80
2, 206104, Note_on_c, 0, 57, 0
2, 206112, Note_on_c, 0, 60, 80
2, 206200, Note_on_c, 0, 60, 0
2, 206208, Note_on_c, 0, 55, 83
2, 206296, Note_on_c, 0, 55, 0
2, 206304, Note_on_c, 0, 60, 80
2, 206392, Note_on_c, 0, 60, 0
2, 206400, Note_on_c, 0, 58, 80
2, 206488, Note_on_c, 0, 58, 0
2, 206496, Note_on_c, 0, 60, 80
2, 206584, Note_on_c, 0, 60, 0
2, 206592, Note_on_c, 0, 53, 85
2, 206680, Note_on_c, 0, 53, 0
2, 206688, Note_on_c, 0, 60, 80
2, 206776, Note_on_c, 0, 60, 0
2, 206784, Note_on_c, 0, 57, 80
2, 206872, Note_on_c, 0, 57, 0
2, 206880, Note_on_c, 0, 60, 80
2, 206968, Note_on_c, 0, 60, 0
2, 206976, Note_on_c, 0, 52, 83
2, 207064, Note_on_c, 0, 52, 0
2, 207072, Note_on_c, 0, 60, 80
2, 207160, Note_on_c, 0, 60, 0
2, 207168, Note_on_c, 0, 55, 80
2, 207256, Note_on_c, 0, 55, 0
2, 207264, Note_on_c, 0, 60, 80
2, 207352, Note_on_c, 0, 60, 0
2, 207360, Note_on_c, 0, 53, 85
2, 207448, Note_on_c, 0, 53, 0
2, 207456, Note_on_c, 0, 60, 80
2, 207544, Note_on_c, 0, 60, 0
2, 207552, Note_on_c, 0, 57, 80
2, 207640, Note_on_c, 0, 57, 0
2, 207648, Note_on_c, 0, 60, 80
2, 207736, Note_on_c, 0, 60, 0
2, 207744, Note_on_c, 0, 55, 83
2, 207832, Note_on_c, 0, 55, 0
2, 207840, Note_on_c, 0, 60, 80
2, 207928, Note_on_c, 0, 60, 0
2, 207936, Note_on_c, 0, 58, 80
2, 208024, Note_on_c, 0, 58, 0
2, 208032, Note_on_c, 0, 60, 80
2, 208120, Note_on_c, 0, 60, 0
2, 208128, Note_on_c, 0, 53, 85
2, 208216, Note_on_c, 0, 53, 0
2, 208224, Note_on_c, 0, 60, 80
2, 208312, Note_on_c, 0, 60, 0
2, 208320, Note_on_c, 0, 57, 80
2, 208408, Note_on_c, 0, 57, 0
2, 208416, Note_on_c, 0, 60, 80
2, 208504, Note_on_c, 0, 60, 0
2, 208512, Note_on_c, 0, 52, 83
2, 208600, Note_on_c, 0, 52, 0
2, 208608, Note_on_c, 0, 60, 80
2, 208696, Note_on_c, 0, 60, 0
2, 208704, Note_on_c, 0, 55, 80
2, 208792, Note_on_c, 0, 55, 0
2, 208800, Note_on_c, 0, 60, 80
2, 208888, Note_on_c, 0, 60, 0
2, 208896, Note_on_c, 0, 53, 85
2, 208984, Note_on_c, 0, 53, 0
2, 208992, Note_on_c, 0, 60, 80
2, 209080, Note_on_c, 0, 60, 0
2, 209088, Note_on_c, 0, 57, 80
2, 209176, Note_on_c, 0, 57, 0
2, 209184, Note_on_c, 0, 60, 80
2, 209272, Note_on_c, 0, 60, 0
2, 209280, Note_on_c, 0, 55, 83
2, 209368, Note_on_c, 0, 55, 0
2, 209376, Note_on_c, 0, 60, 80
2, 209464, Note_on_c, 0, 60, 0
2, 209472, Note_on_c, 0, 58, 80
2, 209560, Note_on_c, 0, 58, 0
2, 209568, Note_on_c, 0, 60, 80
2, 209656, Note_on_c, 0, 60, 0
2, 209664, Note_on_c, 0, 53, 85
2, 209752, Note_on_c, 0, 53, 0
2, 209760, Note_on_c, 0, 60, 80
2, 209848, Note_on_c, 0, 60, 0
2, 209856, Note_on_c, 0, 57, 80
2, 209944, Note_on_c, 0, 57, 0
2, 209952, Note_on_c, 0, 60, 80
2, 210040, Note_on_c, 0, 60, 0
2, 210048, Note_on_c, 0, 52, 83
2, 210136, Note_on_c, 0, 52, 0
2, 210144, Note_on_c, 0, 60, 80
2, 210232, Note_on_c, 0, 60, 0
2, 210240, Note_on_c, 0, 55, 80
2, 210328, Note_on_c, 0, 55, 0
2, 210336, Note_on_c, 0, 60, 80
2, 210424, Note_on_c, 0, 60, 0
2, 210432, Note_on_c, 0, 53, 85
2, 210520, Note_on_c, 0, 53, 0
2, 210528, Note_on_c, 0, 60, 80
2, 210616, Note_on_c, 0, 60, 0
2, 210624, Note_on_c, 0, 57, 80
2, 210712, Note_on_c, 0, 57, 0
2, 210720, Note_on_c, 0, 60, 80
2, 210808, Note_on_c, 0, 60, 0
2, 210816, Note_on_c, 0, 52, 83
2, 210904, Note_on_c, 0, 52, 0
2, 210912, Note_on_c, 0, 60, 80
2, 211000, Note_on_c, 0, 60, 0
2, 211008, Note_on_c, 0, 55, 80
2, 211096, Note_on_c, 0, 55, 0
2, 211104, Note_on_c, 0, 60, 80
2, 211192, Note_on_c, 0, 60, 0
2, 211200, Note_on_c, 0, 53, 85
2, 211288, Note_on_c, 0, 53, 0
2, 211296, Note_on_c, 0, 60, 80
2, 211384, Note_on_c, 0, 60, 0
2, 211392, Note_on_c, 0, 57, 80
2, 211480, Note_on_c, 0, 57, 0
2, 211488, Note_on_c, 0, 60, 80
2, 211576, Note_on_c, 0, 60, 0
2, 211584, Note_on_c, 0, 52, 83
2, 211672, Note_on_c, 0, 52, 0
2, 211680, Note_on_c, 0, 60, 80
2, 211768, Note_on_c, 0, 60, 0
2, 211776, Note_on_c, 0, 55, 80
2, 211864, Note_on_c, 0, 55, 0
2, 211872, Note_on_c, 0, 60, 80
2, 211960, Note_on_c, 0, 60, 0
2, 211968, Note_on_c, 0, 53, 84
2, 212056, Note_on_c, 0, 53, 0
2, 212064, Note_on_c, 0, 57, 83
2, 212152, Note_on_c, 0, 57, 0
2, 212160, Note_on_c, 0, 60, 82
2, 212248, Note_on_c, 0, 60, 0
2, 212256, Note_on_c, 0, 65, 81
2, 212344, Note_on_c, 0, 65, 0
2, 212352, Note_on_c, 0, 69, 80
2, 212440, Note_on_c, 0, 69, 0
2, 212448, Note_on_c, 0, 65, 81
2, 212536, Note_on_c, 0, 65, 0
2, 212544, Note_on_c, 0, 60, 83
2, 212632, Note_on_c, 0, 60, 0
2, 212640, Note_on_c, 0, 57, 84
2, 212728, Note_on_c, 0, 57, 0
2, 212736, Note_on_c, 0, 53, 85
2, 212824, Note_on_c, 0, 53, 0
2, 212832, Note_on_c, 0, 57, 84
2, 212920, Note_on_c, 0, 57, 0
2, 212928, Note_on_c, 0, 60, 83
2, 213016, Note_on_c, 0, 60, 0
2, 213024, Note_on_c, 0, 65, 82
2, 213112, Note_on_c, 0, 65, 0
2, 213120, Note_on_c, 0, 69, 81
2, 213208, Note_on_c, 0, 69, 0
2, 213216, Note_on_c, 0, 65, 80
2, 213304, Note_on_c, 0, 65, 0
2, 213312, Note_on_c, 0, 60, 82
2, 213400, Note_on_c, 0, 60, 0
2, 213408, Note_on_c, 0, 57, 84
2, 213496, Note_on_c, 0, 57, 0
2, 213504, Note_on_c, 0, 58, 83
2, 213592, Note_on_c, 0, 58, 0
2, 213600, Note_on_c, 0, 62, 81
2, 213688, Note_on_c, 0, 62, 0
2, 213696, Note_on_c, 0, 65, 80
2, 213784, Note_on_c, 0, 65, 0
2, 213792, Note_on_c, 0, 70, 80
2, 213880, Note_on_c, 0, 70, 0
2, 213888, Note_on_c, 0, 74, 80
2, 213976, Note_on_c, 0, 74, 0
2, 213984, Note_on_c, 0, 70, 80
2, 214072, Note_on_c, 0, 70, 0
2, 214080, Note_on_c, 0, 65, 80
2, 214168, Note_on_c, 0, 65, 0
2, 214176, Note_on_c, 0, 62, 81
2, 214264, Note_on_c, 0, 62, 0
2, 214272, Note_on_c, 0, 58, 83
2, 214360, Note_on_c, 0, 58, 0
2, 214368, Note_on_c, 0, 62, 81
2, 214456, Note_on_c, 0, 62, 0
2, 214464, Note_on_c, 0, 65, 80
2, 214552, Note_on_c, 0, 65, 0
2, 214560, Note_on_c, 0, 70, 80
2, 214648, Note_on_c, 0, 70, 0
2, 214656, Note_on_c, 0, 74, 80
2, 214744, Note_on_c, 0, 74, 0
2, 214752, Note_on_c, 0, 70, 80
2, 214840, Note_on_c, 0, 70, 0
2, 214848, Note_on_c, 0, 65, 80
2, 214936, Note_on_c, 0, 65, 0
2, 214944, Note_on_c, 0, 62, 81
2, 215032, Note_on_c, 0, 62, 0
2, 215040, Note_on_c, 0, 60, 82
2, 215128, Note_on_c, 0, 60, 0
2, 215136, Note_on_c, 0, 65, 80
2, 215224, Note_on_c, 0, 65, 0
2, 215232, Note_on_c, 0, 69, 80
2, 215320, Note_on_c, 0, 69, 0
2, 215328, Note_on_c, 0, 72, 80
2, 215416, Note_on_c, 0, 72, 0
2, 215424, Note_on_c, 0, 77, 80
2, 215512, Note_on_c, 0, 77, 0
2, 215520, Note_on_c, 0, 72, 80
2, 215608, Note_on_c, 0, 72, 0
2, 215616, Note_on_c, 0, 69, 80
2, 215704, Note_on_c, 0, 69, 0
2, 215712, Note_on_c, 0, 65, 80
2, 215800, Note_on_c, 0, 65, 0
2, 215808, Note_on_c, 0, 60, 82
2, 216184, Note_on_c, 0, 60, 0
2, 216576, Note_on_c, 0, 53, 96
2, 216760, Note_on_c, 0, 53, 0
2, 216768, Note_on_c, 0, 55, 95
2, 216808, Note_on_c, 0, 55, 0
2, 216864, Note_on_c, 0, 57, 94
2, 216904, Note_on_c, 0, 57, 0
2, 216960, Note_on_c, 0, 58, 93
2, 217000, Note_on_c, 0, 58, 0
2, 217056, Note_on_c, 0, 60, 92
2, 217096, Note_on_c, 0, 60, 0
2, 217152, Note_on_c, 0, 62, 91
2, 217192, Note_on_c, 0, 62, 0
2, 217248, Note_on_c, 0, 64, 90
2, 217288, Note_on_c, 0, 64, 0
2, 217344, Note_on_c, 0, 65, 90
2, 217528, Note_on_c, 0, 65, 0
2, 217536, Note_on_c, 0, 67, 90
2, 217576, Note_on_c, 0, 67, 0
2, 217632, Note_on_c, 0, 69, 90
2, 217672, Note_on_c, 0, 69, 0
2, 217728, Note_on_c, 0, 70, 90
2, 217768, Note_on_c, 0, 70, 0
2, 217824, Note_on_c, 0, 72, 90
2, 217864, Note_on_c, 0, 72, 0
2, 217920, Note_on_c, 0, 74, 90
2, 217960, Note_on_c, 0, 74, 0
2, 218016, Note_on_c, 0, 76, 90
2, 218056, Note_on_c, 0, 76, 0
2, 218112, Note_on_c, 0, 77, 90
2, 218200, Note_on_c, 0, 77, 0
2, 218208, Note_on_c, 0, 79, 90
2, 218296, Note_on_c, 0, 79, 0
2, 218304, Note_on_c, 0, 81, 90
2, 218392, Note_on_c, 0, 81, 0
2, 218400, Note_on_c, 0, 82, 90
2, 218488, Note_on_c, 0, 82, 0
2, 218496, Note_on_c, 0, 84, 90
2, 218584, Note_on_c, 0, 84, 0
2, 218592, Note_on_c, 0, 86, 90
2, 218680, Note_on_c, 0, 86, 0
2, 218688, Note_on_c, 0, 87, 90
2, 218776, Note_on_c, 0, 87, 0
2, 218784, Note_on_c, 0, 86, 90
2, 218872, Note_on_c, 0, 86, 0
2, 218880, Note_on_c, 0, 84, 90
2, 218968, Note_on_c, 0, 84, 0
2, 218976, Note_on_c, 0, 82, 90
2, 219064, Note_on_c, 0, 82, 0
2, 219072, Note_on_c, 0, 81, 90
2, 219160, Note_on_c, 0, 81, 0
2, 219168, Note_on_c, 0, 79, 90
2, 219256, Note_on_c, 0, 79, 0
2, 219264, Note_on_c, 0, 77, 90
2, 219352, Note_on_c, 0, 77, 0
2, 219360, Note_on_c, 0, 76, 90
2, 219448, Note_on_c, 0, 76, 0
2, 219456, Note_on_c, 0, 77, 90
2, 219544, Note_on_c, 0, 77, 0
2, 219552, Note_on_c, 0, 75, 90
2, 219640, Note_on_c, 0, 75, 0
2, 219648, Note_on_c, 0, 74, 80
2, 219736, Note_on_c, 0, 74, 0
2, 219744, Note_on_c, 0, 77, 80
2, 219832, Note_on_c, 0, 77, 0
2, 219840, Note_on_c, 0, 74, 80
2, 219928, Note_on_c, 0, 74, 0
2, 219936, Note_on_c, 0, 70, 80
2, 220024, Note_on_c, 0, 70, 0
2, 220032, Note_on_c, 0, 69, 80
2, 220120, Note_on_c, 0, 69, 0
2, 220128, Note_on_c, 0, 72, 80
2, 220216, Note_on_c, 0, 72, 0
2, 220224, Note_on_c, 0, 69, 80
2, 220312, Note_on_c, 0, 69, 0
2, 220320, Note_on_c, 0, 65, 80
2, 220408, Note_on_c, 0, 65, 0
2, 220416, Note_on_c, 0, 74, 80
2, 220504, Note_on_c, 0, 74, 0
2, 220512, Note_on_c, 0, 77, 80
2, 220600, Note_on_c, 0, 77, 0
2, 220608, Note_on_c, 0, 74, 80
2, 220696, Note_on_c, 0, 74, 0
2, 220704, Note_on_c, 0, 70, 80
2, 220792, Note_on_c, 0, 70, 0
2, 220800, Note_on_c, 0, 69, 80
2, 220888, Note_on_c, 0, 69, 0
2, 220896, Note_on_c, 0, 72, 80
2, 220984, Note_on_c, 0, 72, 0
2, 220992, Note_on_c, 0, 69, 80
2, 221080, Note_on_c, 0, 69, 0
2, 221088, Note_on_c, 0, 65, 80
2, 221176, Note_on_c, 0, 65, 0
2, 221184, Note_on_c, 0, 62, 80
2, 221272, Note_on_c, 0, 62, 0
2, 221280, Note_on_c, 0, 65, 80
2, 221368, Note_on_c, 0, 65, 0
2, 221376, Note_on_c, 0, 62, 80
2, 221464, Note_on_c, 0, 62, 0
2, 221472, Note_on_c, 0, 58, 83
2, 221560, Note_on_c, 0, 58, 0
2, 221568, Note_on_c, 0, 57, 84
2, 221656, Note_on_c, 0, 57, 0
2, 221664, Note_on_c, 0, 60, 82
2, 221752, Note_on_c, 0, 60, 0
2, 221760, Note_on_c, 0, 57, 84
2, 221848, Note_on_c, 0, 57, 0
2, 221856, Note_on_c, 0, 53, 86
2, 221944, Note_on_c, 0, 53, 0
2, 221952, Note_on_c, 0, 62, 80
2, 222040, Note_on_c, 0, 62, 0
2, 222048, Note_on_c, 0, 65, 80
2, 222136, Note_on_c, 0, 65, 0
2, 222144, Note_on_c, 0, 62, 80
2, 222232, Note_on_c, 0, 62, 0
2, 222240, Note_on_c, 0, 58, 83
2, 222328, Note_on_c, 0, 58, 0
2, 222336, Note_on_c, 0, 57, 84
2, 222424, Note_on_c, 0, 57, 0
2, 222432, Note_on_c, 0, 60, 82
2, 222520, Note_on_c, 0, 60, 0
2, 222528, Note_on_c, 0, 57, 84
2, 222616, Note_on_c, 0, 57, 0
2, 222624, Note_on_c, 0, 53, 86
2, 222712, Note_on_c, 0, 53, 0
2, 222720, Note_on_c, 0, 58, 93
2, 222904, Note_on_c, 0, 58, 0
2, 222912, Note_on_c, 0, 62, 92
2, 223000, Note_on_c, 0, 62, 0
2, 223008, Note_on_c, 0, 65, 91
2, 223096, Note_on_c, 0, 65, 0
2, 223104, Note_on_c, 0, 70, 90
2, 223192, Note_on_c, 0, 70, 0
2, 223200, Note_on_c, 0, 74, 89
2, 223288, Note_on_c, 0, 74, 0
2, 223296, Note_on_c, 0, 77, 88
2, 223384, Note_on_c, 0, 77, 0
2, 223392, Note_on_c, 0, 82, 85
2, 223480, Note_on_c, 0, 82, 0
2, 223488, Note_on_c, 0, 86, 80
2, 223864, Note_on_c, 0, 86, 0
2, 224256, Note_on_c, 0, 58, 93
2, 224344, Note_on_c, 0, 58, 0
2, 224352, Note_on_c, 0, 64, 92
2, 224440, Note_on_c, 0, 64, 0
2, 224448, Note_on_c, 0, 67, 90
2, 224536, Note_on_c, 0, 67, 0
2, 224544, Note_on_c, 0, 70, 90
2, 224632, Note_on_c, 0, 70, 0
2, 224640, Note_on_c, 0, 64, 92
2, 224728, Note_on_c, 0, 64, 0
2, 224736, Note_on_c, 0, 67, 90
2, 224824, Note_on_c, 0, 67, 0
2, 224832, Note_on_c, 0, 70, 90
2, 224920, Note_on_c, 0, 70, 0
2, 224928, Note_on_c, 0, 73, 90
2, 225016, Note_on_c, 0, 73, 0
2, 225024, Note_on_c, 0, 76, 90
2, 225400, Note_on_c, 0, 76, 0
2, 225792, Note_on_c, 0, 59, 93
2, 225880, Note_on_c, 0, 59, 0
2, 225888, Note_on_c, 0, 62, 92
2, 225976, Note_on_c, 0, 62, 0
2, 225984, Note_on_c, 0, 65, 90
2, 226072, Note_on_c, 0, 65, 0
2, 226080, Note_on_c, 0, 71, 90
2, 226168, Note_on_c, 0, 71, 0
2, 226176, Note_on_c, 0, 62, 92
2, 226264, Note_on_c, 0, 62, 0
2, 226272, Note_on_c, 0, 65, 90
2, 226360, Note_on_c, 0, 65, 0
2, 226368, Note_on_c, 0, 71, 90
2, 226456, Note_on_c, 0, 71, 0
2, 226464, Note_on_c, 0, 74, 90
2, 226552, Note_on_c, 0, 74, 0
2, 226560, Note_on_c, 0, 77, 90
2, 226936, Note_on_c, 0, 77, 0
2, 227328, Note_on_c, 0, 60, 92
2, 227512, Note_on_c, 0, 60, 0
2, 227520, Note_on_c, 0, 52, 95
2, 227608, Note_on_c, 0, 52, 0
2, 227616, Note_on_c, 0, 55, 93
2, 227704, Note_on_c, 0, 55, 0
2, 227712, Note_on_c, 0, 53, 94
2, 227800, Note_on_c, 0, 53, 0
2, 227808, Note_on_c, 0, 57, 92
2, 227896, Note_on_c, 0, 57, 0
2, 227904, Note_on_c, 0, 55, 93
2, 227992, Note_on_c, 0, 55, 0
2, 228000, Note_on_c, 0, 58, 91
2, 228088, Note_on_c, 0, 58, 0
2, 228096, Note_on_c, 0, 57, 90
2, 228184, Note_on_c, 0, 57, 0
2, 228192, Note_on_c, 0, 60, 90
2, 228280, Note_on_c, 0, 60, 0
2, 228288, Note_on_c, 0, 58, 90
2, 228376, Note_on_c, 0, 58, 0
2, 228384, Note_on_c, 0, 62, 90
2, 228472, Note_on_c, 0, 62, 0
2, 228480, Note_on_c, 0, 60, 90
2, 228568, Note_on_c, 0, 60, 0
2, 228576, Note_on_c, 0, 65, 90
2, 228664, Note_on_c, 0, 65, 0
2, 228672, Note_on_c, 0, 64, 90
2, 228760, Note_on_c, 0, 64, 0
2, 228768, Note_on_c, 0, 67, 90
2, 228856, Note_on_c, 0, 67, 0
2, 228864, Note_on_c, 0, 65, 90
2, 228952, Note_on_c, 0, 65, 0
2, 228960, Note_on_c, 0, 69, 90
2, 229048, Note_on_c, 0, 69, 0
2, 229056, Note_on_c, 0, 67, 90
2, 229144, Note_on_c, 0, 67, 0
2, 229152, Note_on_c, 0, 70, 90
2, 229240, Note_on_c, 0, 70, 0
2, 229248, Note_on_c, 0, 69, 90
2, 229336, Note_on_c, 0, 69, 0
2, 229344, Note_on_c, 0, 72, 90
2, 229432, Note_on_c, 0, 72, 0
2, 229440, Note_on_c, 0, 70, 90
2, 229528, Note_on_c, 0, 70, 0
2, 229536, Note_on_c, 0, 74, 90
2, 229624, Note_on_c, 0, 74, 0
2, 229632, Note_on_c, 0, 72, 90
2, 229720, Note_on_c, 0, 72, 0
2, 229728, Note_on_c, 0, 77, 90
2, 229816, Note_on_c, 0, 77, 0
2, 229824, Note_on_c, 0, 76, 90
2, 229912, Note_on_c, 0, 76, 0
2, 229920, Note_on_c, 0, 79, 90
2, 230008, Note_on_c, 0, 79, 0
2, 230016, Note_on_c, 0, 77, 90
2, 230104, Note_on_c, 0, 77, 0
2, 230112, Note_on_c, 0, 81, 90
2, 230200, Note_on_c, 0, 81, 0
2, 230208, Note_on_c, 0, 79, 90
2, 230296, Note_on_c, 0, 79, 0
2, 230304, Note_on_c, 0, 82, 90
2, 230392, Note_on_c, 0, 82, 0
2, 230400, Note_on_c, 0, 81, 90
2, 230488, Note_on_c, 0, 81, 0
2, 230592, Note_on_c, 0, 84, 90
2, 230680, Note_on_c, 0, 84, 0
2, 230688, Note_on_c, 0, 83, 90
2, 230776, Note_on_c, 0, 83, 0
2, 230784, Note_on_c, 0, 84, 90
2, 230872, Note_on_c, 0, 84, 0
2, 230880, Note_on_c, 0, 83, 90
2, 230968, Note_on_c, 0, 83, 0
2, 230976, Note_on_c, 0, 84, 90
2, 231064, Note_on_c, 0, 84, 0
2, 231072, Note_on_c, 0, 83, 90
2, 231160, Note_on_c, 0, 83, 0
2, 231168, Note_on_c, 0, 84, 90
2, 231256, Note_on_c, 0, 84, 0
2, 231360, Note_on_c, 0, 81, 90
2, 231448, Note_on_c, 0, 81, 0
2, 231456, Note_on_c, 0, 80, 90
2, 231544, Note_on_c, 0, 80, 0
2, 231552, Note_on_c, 0, 81, 90
2, 231640, Note_on_c, 0, 81, 0
2, 231648, Note_on_c, 0, 80, 90
2, 231736, Note_on_c, 0, 80, 0
2, 231744, Note_on_c, 0, 81, 90
2, 231832, Note_on_c, 0, 81, 0
2, 231840, Note_on_c, 0, 80, 90
2, 231928, Note_on_c, 0, 80, 0
2, 231936, Note_on_c, 0, 81, 90
2, 232024, Note_on_c, 0, 81, 0
2, 232128, Note_on_c, 0, 77, 90
2, 232216, Note_on_c, 0, 77, 0
2, 232224, Note_on_c, 0, 76, 90
2, 232312, Note_on_c, 0, 76, 0
2, 232320, Note_on_c, 0, 77, 90
2, 232408, Note_on_c, 0, 77, 0
2, 232416, Note_on_c, 0, 76, 90
2, 232504, Note_on_c, 0, 76, 0
2, 232512, Note_on_c, 0, 77, 90
2, 232600, Note_on_c, 0, 77, 0
2, 232608, Note_on_c, 0, 76, 90
2, 232696, Note_on_c, 0, 76, 0
2, 232704, Note_on_c, 0, 77, 90
2, 232888, Note_on_c, 0, 77, 0
2, 232896, Note_on_c, 0, 72, 90
2, 232984, Note_on_c, 0, 72, 0
2, 232992, Note_on_c, 0, 71, 90
2, 233080, Note_on_c, 0, 71, 0
2, 233088, Note_on_c, 0, 72, 90
2, 233176, Note_on_c, 0, 72, 0
2, 233184, Note_on_c, 0, 71, 90
2, 233272, Note_on_c, 0, 71, 0
2, 233280, Note_on_c, 0, 72, 90
2, 233368, Note_on_c, 0, 72, 0
2, 233376, Note_on_c, 0, 71, 90
2, 233464, Note_on_c, 0, 71, 0
2, 233472, Note_on_c, 0, 72, 90
2, 233592, Note_on_c, 0, 72, 0
2, 233600, Note_on_c, 0, 73, 90
2, 233720, Note_on_c, 0, 73, 0
2, 233728, Note_on_c, 0, 74, 90
2, 233848, Note_on_c, 0, 74, 0
2, 233856, Note_on_c, 0, 75, 90
2, 233976, Note_on_c, 0, 75, 0
2, 233984, Note_on_c, 0, 76, 90
2, 234104, Note_on_c, 0, 76, 0
2, 234112, Note_on_c, 0, 77, 90
2, 234232, Note_on_c, 0, 77, 0
2, 234240, Note_on_c, 0, 78, 90
2, 234360, Note_on_c, 0, 78, 0
2, 234368, Note_on_c, 0, 79, 90
2, 234488, Note_on_c, 0, 79, 0
2, 234496, Note_on_c, 0, 80, 90
2, 234616, Note_on_c, 0, 80, 0
2, 234624, Note_on_c, 0, 81, 90
2, 234712, Note_on_c, 0, 81, 0
2, 234720, Note_on_c, 0, 82, 90
2, 234808, Note_on_c, 0, 82, 0
2, 234816, Note_on_c, 0, 83, 90
2, 234904, Note_on_c, 0, 83, 0
2, 234912, Note_on_c, 0, 84, 90
2, 235000, Note_on_c, 0, 84, 0
2, 235008, Note_on_c, 0, 79, 90
2, 235048, Note_on_c, 0, 79, 0
2, 235056, Note_on_c, 0, 81, 90
2, 235096, Note_on_c, 0, 81, 0
2, 235104, Note_on_c, 0, 79, 90
2, 235144, Note_on_c, 0, 79, 0
2, 235152, Note_on_c, 0, 81, 90
2, 235192, Note_on_c, 0, 81, 0
2, 235200, Note_on_c, 0, 79, 90
2, 235240, Note_on_c, 0, 79, 0
2, 235248, Note_on_c, 0, 81, 90
2, 235288, Note_on_c, 0, 81, 0
2, 235296, Note_on_c, 0, 79, 90
2, 235336, Note_on_c, 0, 79, 0
2, 235344, Note_on_c, 0, 81, 90
2, 235384, Note_on_c, 0, 81, 0
2, 235392, Note_on_c, 0, 79, 90
2, 235432, Note_on_c, 0, 79, 0
2, 235440, Note_on_c, 0, 81, 90
2, 235480, Note_on_c, 0, 81, 0
2, 235488, Note_on_c, 0, 79, 90
2, 235528, Note_on_c, 0, 79, 0
2, 235536, Note_on_c, 0, 81, 90
2, 235576, Note_on_c, 0, 81, 0
2, 235584, Note_on_c, 0, 79, 90
2, 235624, Note_on_c, 0, 79, 0
2, 235632, Note_on_c, 0, 81, 90
2, 235672, Note_on_c, 0, 81, 0
2, 235680, Note_on_c, 0, 79, 90
2, 235720, Note_on_c, 0, 79, 0
2, 235728, Note_on_c, 0, 81, 90
2, 235768, Note_on_c, 0, 81, 0
2, 235776, Note_on_c, 0, 79, 90
2, 235816, Note_on_c, 0, 79, 0
2, 235824, Note_on_c, 0, 81, 90
2, 235864, Note_on_c, 0, 81, 0
2, 235872, Note_on_c, 0, 79, 90
2, 235912, Note_on_c, 0, 79, 0
2, 235920, Note_on_c, 0, 81, 90
2, 235960, Note_on_c, 0, 81, 0
2, 235968, Note_on_c, 0, 79, 90
2, 236008, Note_on_c, 0, 79, 0
2, 236016, Note_on_c, 0, 81, 90
2, 236056, Note_on_c, 0, 81, 0
2, 236064, Note_on_c, 0, 79, 90
2, 236104, Note_on_c, 0, 79, 0
2, 236112, Note_on_c, 0, 81, 90
2, 236152, Note_on_c, 0, 81, 0
2, 236160, Note_on_c, 0, 79, 90
2, 236200, Note_on_c, 0, 79, 0
2, 236208, Note_on_c, 0, 81, 90
2, 236248, Note_on_c, 0, 81, 0
2, 236256, Note_on_c, 0, 79, 90
2, 236296, Note_on_c, 0, 79, 0
2, 236304, Note_on_c, 0, 81, 90
2, 236344, Note_on_c, 0, 81, 0
2, 236352, Note_on_c, 0, 77, 90
2, 236440, Note_on_c, 0, 77, 0
2, 236448, Note_on_c, 0, 79, 90
2, 236536, Note_on_c, 0, 79, 0
2, 236544, Note_on_c, 0, 77, 95
2, 236920, Note_on_c, 0, 77, 0
2, 264192, Note_on_c, 0, 72, 70
2, 264952, Note_on_c, 0, 72, 0
2, 264960, Note_on_c, 0, 69, 70
2, 265528, Note_on_c, 0, 69, 0
2, 265536, Note_on_c, 0, 70, 70
2, 265720, Note_on_c, 0, 70, 0
2, 265728, Note_on_c, 0, 74, 70
2, 265912, Note_on_c, 0, 74, 0
2, 265920, Note_on_c, 0, 72, 70
2, 266104, Note_on_c, 0, 72, 0
2, 266112, Note_on_c, 0, 72, 70
2, 266680, Note_on_c, 0, 72, 0
2, 266688, Note_on_c, 0, 81, 70
2, 266872, Note_on_c, 0, 81, 0
2, 266880, Note_on_c, 0, 79, 70
2, 267064, Note_on_c, 0, 79, 0
2, 267072, Note_on_c, 0, 77, 70
2, 267256, Note_on_c, 0, 77, 0
2, 267264, Note_on_c, 0, 76, 70
2, 267448, Note_on_c, 0, 76, 0
2, 267456, Note_on_c, 0, 79, 70
2, 267640, Note_on_c, 0, 79, 0
2, 267648, Note_on_c, 0, 82, 70
2, 268216, Note_on_c, 0, 82, 0
2, 268224, Note_on_c, 0, 81, 70
2, 268408, Note_on_c, 0, 81, 0
2, 268416, Note_on_c, 0, 79, 70
2, 268600, Note_on_c, 0, 79, 0
2, 268608, Note_on_c, 0, 77, 70
2, 268792, Note_on_c, 0, 77, 0
2, 268800, Note_on_c, 0, 77, 70
2, 268984, Note_on_c, 0, 77, 0
2, 268992, Note_on_c, 0, 76, 70
2, 269176, Note_on_c, 0, 76, 0
2, 269184, Note_on_c, 0, 74, 70
2, 269368, Note_on_c, 0, 74, 0
2, 269376, Note_on_c, 0, 72, 70
2, 269560, Note_on_c, 0, 72, 0
2, 269568, Note_on_c, 0, 71, 70
2, 269752, Note_on_c, 0, 71, 0
2, 269760, Note_on_c, 0, 72, 70
2, 269944, Note_on_c, 0, 72, 0
2, 269952, Note_on_c, 0, 74, 70
2, 270136, Note_on_c, 0, 74, 0
2, 270144, Note_on_c, 0, 76, 70
2, 270328, Note_on_c, 0, 76, 0
2, 270336, Note_on_c, 0, 77, 70
2, 271096, Note_on_c, 0, 77, 0
2, 271104, Note_on_c, 0, 69, 70
2, 271672, Note_on_c, 0, 69, 0
2, 271680, Note_on_c, 0, 70, 70
2, 271864, Note_on_c, 0, 70, 0
2, 271872, Note_on_c, 0, 74, 70
2, 272056, Note_on_c, 0, 74, 0
2, 272064, Note_on_c, 0, 72, 70
2, 272248, Note_on_c, 0, 72, 0
2, 272256, Note_on_c, 0, 72, 70
2, 272824, Note_on_c, 0, 72, 0
2, 272832, Note_on_c, 0, 81, 70
2, 273016, Note_on_c, 0, 81, 0
2, 273024, Note_on_c, 0, 79, 70
2, 273208, Note_on_c, 0, 79, 0
2, 273216, Note_on_c, 0, 77, 70
2, 273400, Note_on_c, 0, 77, 0
2, 273408, Note_on_c, 0, 76, 70
2, 273592, Note_on_c, 0, 76, 0
2, 273600, Note_on_c, 0, 79, 70
2, 273784, Note_on_c, 0, 79, 0
2, 273792, Note_on_c, 0, 82, 70
2, 274360, Note_on_c, 0, 82, 0
2, 274368, Note_on_c, 0, 81, 70
2, 274552, Note_on_c, 0, 81, 0
2, 274560, Note_on_c, 0, 79, 70
2, 274744, Note_on_c, 0, 79, 0
2, 274752, Note_on_c, 0, 77, 70
2, 274936, Note_on_c, 0, 77, 0
2, 274944, Note_on_c, 0, 77, 70
2, 275128, Note_on_c, 0, 77, 0
2, 275136, Note_on_c, 0, 76, 70
2, 275320, Note_on_c, 0, 76, 0
2, 275328, Note_on_c, 0, 74, 70
2, 275512, Note_on_c, 0, 74, 0
2, 275520, Note_on_c, 0, 72, 70
2, 275704, Note_on_c, 0, 72, 0
2, 275712, Note_on_c, 0, 71, 70
2, 275896, Note_on_c, 0, 71, 0
2, 275904, Note_on_c, 0, 72, 70
2, 276088, Note_on_c, 0, 72, 0
2, 276096, Note_on_c, 0, 74, 70
2, 276280, Note_on_c, 0, 74, 0
2, 276288, Note_on_c, 0, 76, 70
2, 276472, Note_on_c, 0, 76, 0
2, 276480, Note_on_c, 0, 77, 70
2, 276856, Note_on_c, 0, 77, 0
2, 277056, Note_on_c, 0, 65, 70
2, 277144, Note_on_c, 0, 65, 0
2, 277152, Note_on_c, 0, 67, 70
2, 277240, Note_on_c, 0, 67, 0
2, 277248, Note_on_c, 0, 69, 70
2, 277336, Note_on_c, 0, 69, 0
2, 277344, Note_on_c, 0, 70, 70
2, 277432, Note_on_c, 0, 70, 0
2, 277440, Note_on_c, 0, 72, 70
2, 277528, Note_on_c, 0, 72, 0
2, 277536, Note_on_c, 0, 74, 70
2, 277624, Note_on_c, 0, 74, 0
2, 277632, Note_on_c, 0, 76, 70
2, 277720, Note_on_c, 0, 76, 0
2, 277728, Note_on_c, 0, 77, 70
2, 277816, Note_on_c, 0, 77, 0
2, 277824, Note_on_c, 0, 79, 70
2, 277912, Note_on_c, 0, 79, 0
2, 277920, Note_on_c, 0, 81, 70
2, 278008, Note_on_c, 0, 81, 0
2, 278016, Note_on_c, 0, 82, 70
2, 278104, Note_on_c, 0, 82, 0
2, 278112, Note_on_c, 0, 84, 70
2, 278200, Note_on_c, 0, 84, 0
2, 278208, Note_on_c, 0, 82, 70
2, 278296, Note_on_c, 0, 82, 0
2, 278304, Note_on_c, 0, 81, 70
2, 278392, Note_on_c, 0, 81, 0
2, 278400, Note_on_c, 0, 79, 70
2, 278488, Note_on_c, 0, 79, 0
2, 278496, Note_on_c, 0, 77, 70
2, 278584, Note_on_c, 0, 77, 0
2, 278592, Note_on_c, 0, 76, 70
2, 278680, Note_on_c, 0, 76, 0
2, 278688, Note_on_c, 0, 74, 70
2, 278776, Note_on_c, 0, 74, 0
2, 278784, Note_on_c, 0, 72, 70
2, 278872, Note_on_c, 0, 72, 0
2, 278880, Note_on_c, 0, 76, 70
2, 278968, Note_on_c, 0, 76, 0
2, 278976, Note_on_c, 0, 79, 70
2, 279064, Note_on_c, 0, 79, 0
2, 279072, Note_on_c, 0, 77, 70
2, 279160, Note_on_c, 0, 77, 0
2, 279168, Note_on_c, 0, 76, 70
2, 279256, Note_on_c, 0, 76, 0
2, 279264, Note_on_c, 0, 74, 70
2, 279352, Note_on_c, 0, 74, 0
2, 279360, Note_on_c, 0, 72, 70
2, 279448, Note_on_c, 0, 72, 0
2, 279456, Note_on_c, 0, 70, 70
2, 279544, Note_on_c, 0, 70, 0
2, 279552, Note_on_c, 0, 69, 70
2, 279928, Note_on_c, 0, 69, 0
2, 280128, Note_on_c, 0, 65, 70
2, 280216, Note_on_c, 0, 65, 0
2, 280224, Note_on_c, 0, 67, 70
2, 280312, Note_on_c, 0, 67, 0
2, 280320, Note_on_c, 0, 69, 70
2, 280408, Note_on_c, 0, 69, 0
2, 280416, Note_on_c, 0, 70, 70
2, 280504, Note_on_c, 0, 70, 0
2, 280512, Note_on_c, 0, 72, 70
2, 280600, Note_on_c, 0, 72, 0
2, 280608, Note_on_c, 0, 74, 70
2, 280696, Note_on_c, 0, 74, 0
2, 280704, Note_on_c, 0, 76, 70
2, 280792, Note_on_c, 0, 76, 0
2, 280800, Note_on_c, 0, 77, 70
2, 280888, Note_on_c, 0, 77, 0
2, 280896, Note_on_c, 0, 79, 70
2, 280984, Note_on_c, 0, 79, 0
2, 280992, Note_on_c, 0, 81, 70
2, 281080, Note_on_c, 0, 81, 0
2, 281088, Note_on_c, 0, 82, 70
2, 281176, Note_on_c, 0, 82, 0
2, 281184, Note_on_c, 0, 84, 70
2, 281272, Note_on_c, 0, 84, 0
2, 281280, Note_on_c, 0, 82, 70
2, 281368, Note_on_c, 0, 82, 0
2, 281376, Note_on_c, 0, 81, 70
2, 281464, Note_on_c, 0, 81, 0
2, 281472, Note_on_c, 0, 79, 70
2, 281560, Note_on_c, 0, 79, 0
2, 281568, Note_on_c, 0, 77, 70
2, 281656, Note_on_c, 0, 77, 0
2, 281664, Note_on_c, 0, 76, 70
2, 281752, Note_on_c, 0, 76, 0
2, 281776, Note_on_c, 0, 74, 70
2, 281856, Note_on_c, 0, 72, 70
2, 281864, Note_on_c, 0, 74, 0
2, 281944, Note_on_c, 0, 72, 0
2, 281952, Note_on_c, 0, 76, 70
2, 282040, Note_on_c, 0, 76, 0
2, 282048, Note_on_c, 0, 79, 70
2, 282136, Note_on_c, 0, 79, 0
2, 282144, Note_on_c, 0, 77, 70
2, 282232, Note_on_c, 0, 77, 0
2, 282240, Note_on_c, 0, 76, 70
2, 282328, Note_on_c, 0, 76, 0
2, 282336, Note_on_c, 0, 74, 70
2, 282424, Note_on_c, 0, 74, 0
2, 282432, Note_on_c, 0, 72, 70
2, 282520, Note_on_c, 0, 72, 0
2, 282528, Note_on_c, 0, 70, 70
2, 282616, Note_on_c, 0, 70, 0
2, 282624, Note_on_c, 0, 69, 70
2, 283000, Note_on_c, 0, 69, 0
2, 283104, Note_on_c, 0, 65, 70
2, 283192, Note_on_c, 0, 65, 0
2, 283200, Note_on_c, 0, 67, 70
2, 283288, Note_on_c, 0, 67, 0
2, 283296, Note_on_c, 0, 69, 70
2, 283384, Note_on_c, 0, 69, 0
2, 283392, Note_on_c, 0, 70, 70
2, 283480, Note_on_c, 0, 70, 0
2, 283488, Note_on_c, 0, 72, 70
2, 283576, Note_on_c, 0, 72, 0
2, 283584, Note_on_c, 0, 74, 70
2, 283672, Note_on_c, 0, 74, 0
2, 283680, Note_on_c, 0, 76, 70
2, 283768, Note_on_c, 0, 76, 0
2, 283776, Note_on_c, 0, 77, 70
2, 283864, Note_on_c, 0, 77, 0
2, 283872, Note_on_c, 0, 79, 70
2, 283960, Note_on_c, 0, 79, 0
2, 283968, Note_on_c, 0, 77, 70
2, 284056, Note_on_c, 0, 77, 0
2, 284064, Note_on_c, 0, 76, 70
2, 284152, Note_on_c, 0, 76, 0
2, 284160, Note_on_c, 0, 77, 71
2, 284536, Note_on_c, 0, 77, 0
2, 284640, Note_on_c, 0, 69, 74
2, 284728, Note_on_c, 0, 69, 0
2, 284736, Note_on_c, 0, 70, 74
2, 284824, Note_on_c, 0, 70, 0
2, 284832, Note_on_c, 0, 72, 75
2, 284920, Note_on_c, 0, 72, 0
2, 284928, Note_on_c, 0, 74, 76
2, 285016, Note_on_c, 0, 74, 0
2, 285024, Note_on_c, 0, 76, 76
2, 285112, Note_on_c, 0, 76, 0
2, 285120, Note_on_c, 0, 77, 77
2, 285208, Note_on_c, 0, 77, 0
2, 285216, Note_on_c, 0, 79, 78
2, 285304, Note_on_c, 0, 79, 0
2, 285312, Note_on_c, 0, 81, 78
2, 285400, Note_on_c, 0, 81, 0
2, 285408, Note_on_c, 0, 82, 79
2, 285496, Note_on_c, 0, 82, 0
2, 285504, Note_on_c, 0, 81, 80
2, 285592, Note_on_c, 0, 81, 0
2, 285600, Note_on_c, 0, 79, 80
2, 285688, Note_on_c, 0, 79, 0
2, 285696, Note_on_c, 0, 81, 81
2, 286072, Note_on_c, 0, 81, 0
2, 286176, Note_on_c, 0, 72, 84
2, 286264, Note_on_c, 0, 72, 0
2, 286272, Note_on_c, 0, 74, 84
2, 286360, Note_on_c, 0, 74, 0
2, 286368, Note_on_c, 0, 76, 85
2, 286456, Note_on_c, 0, 76, 0
2, 286464, Note_on_c, 0, 77, 85
2, 286552, Note_on_c, 0, 77, 0
2, 286560, Note_on_c, 0, 76, 86
2, 286648, Note_on_c, 0, 76, 0
2, 286656, Note_on_c, 0, 79, 86
2, 286744, Note_on_c, 0, 79, 0
2, 286752, Note_on_c, 0, 77, 87
2, 286840, Note_on_c, 0, 77, 0
2, 286848, Note_on_c, 0, 81, 87
2, 286936, Note_on_c, 0, 81, 0
2, 286944, Note_on_c, 0, 79, 88
2, 287032, Note_on_c, 0, 79, 0
2, 287040, Note_on_c, 0, 82, 88
2, 287128, Note_on_c, 0, 82, 0
2, 287136, Note_on_c, 0, 81, 89
2, 287224, Note_on_c, 0, 81, 0
2, 287232, Note_on_c, 0, 84, 90
2, 288952, Note_on_c, 0, 84, 0
2, 288960, Note_on_c, 0, 81, 90
2, 289336, Note_on_c, 0, 81, 0
2, 289344, Note_on_c, 0, 78, 90
2, 289720, Note_on_c, 0, 78, 0
2, 289728, Note_on_c, 0, 75, 90
2, 290104, Note_on_c, 0, 75, 0
2, 290112, Note_on_c, 0, 72, 90
2, 290488, Note_on_c, 0, 72, 0
2, 290496, Note_on_c, 0, 69, 90
2, 290872, Note_on_c, 0, 69, 0
2, 290880, Note_on_c, 0, 66, 90
2, 291064, Note_on_c, 0, 66, 0
2, 291072, Note_on_c, 0, 62, 91
2, 291256, Note_on_c, 0, 62, 0
2, 291264, Note_on_c, 0, 60, 92
2, 291448, Note_on_c, 0, 60, 0
2, 291456, Note_on_c, 0, 58, 93
2, 291640, Note_on_c, 0, 58, 0
2, 291648, Note_on_c, 0, 57, 94
2, 291832, Note_on_c, 0, 57, 0
2, 291840, Note_on_c, 0, 55, 95
2, 292216, Note_on_c, 0, 55, 0
2, 292224, Note_on_c, 0, 65, 90
2, 292600, Note_on_c, 0, 65, 0
2, 292608, Note_on_c, 0, 63, 90
2, 292984, Note_on_c, 0, 63, 0
2, 292992, Note_on_c, 0, 62, 90
2, 293368, Note_on_c, 0, 62, 0
2, 293376, Note_on_c, 0, 60, 93
2, 294136, Note_on_c, 0, 60, 0
2, 294144, Note_on_c, 0, 61, 93
2, 294904, Note_on_c, 0, 61, 0
2, 294912, Note_on_c, 0, 62, 92
2, 295288, Note_on_c, 0, 62, 0
2, 298368, Note_on_c, 0, 62, 72
2, 298552, Note_on_c, 0, 62, 0
2, 298752, Note_on_c, 0, 62, 72
2, 298936, Note_on_c, 0, 62, 0
2, 299136, Note_on_c, 0, 62, 72
2, 299320, Note_on_c, 0, 62, 0
2, 299520, Note_on_c, 0, 62, 72
2, 299896, Note_on_c, 0, 62, 0
2, 301440, Note_on_c, 0, 60, 74
2, 301624, Note_on_c, 0, 60, 0
2, 301824, Note_on_c, 0, 60, 74
2, 302008, Note_on_c, 0, 60, 0
2, 302208, Note_on_c, 0, 60, 74
2, 302392, Note_on_c, 0, 60, 0
2, 302592, Note_on_c, 0, 60, 74
2, 302968, Note_on_c, 0, 60, 0
2, 304256, Note_on_c, 0, 58, 74
2, 304344, Note_on_c, 0, 58, 0
2, 304384, Note_on_c, 0, 63, 73
2, 304472, Note_on_c, 0, 63, 0
2, 304512, Note_on_c, 0, 67, 72
2, 304600, Note_on_c, 0, 67, 0
2, 304640, Note_on_c, 0, 70, 70
2, 304728, Note_on_c, 0, 70, 0
2, 304768, Note_on_c, 0, 75, 70
2, 304856, Note_on_c, 0, 75, 0
2, 304896, Note_on_c, 0, 67, 70
2, 304984, Note_on_c, 0, 67, 0
2, 305024, Note_on_c, 0, 70, 70
2, 305112, Note_on_c, 0, 70, 0
2, 305152, Note_on_c, 0, 75, 70
2, 305240, Note_on_c, 0, 75, 0
2, 305280, Note_on_c, 0, 79, 70
2, 305368, Note_on_c, 0, 79, 0
2, 305408, Note_on_c, 0, 75, 70
2, 305496, Note_on_c, 0, 75, 0
2, 305536, Note_on_c, 0, 82, 70
2, 305624, Note_on_c, 0, 82, 0
2, 305856, Note_on_c, 0, 74, 70
2, 305944, Note_on_c, 0, 74, 0
2, 305952, Note_on_c, 0, 77, 70
2, 306040, Note_on_c, 0, 77, 0
2, 306048, Note_on_c, 0, 80, 70
2, 306136, Note_on_c, 0, 80, 0
2, 306144, Note_on_c, 0, 84, 70
2, 306232, Note_on_c, 0, 84, 0
2, 306240, Note_on_c, 0, 80, 70
2, 306328, Note_on_c, 0, 80, 0
2, 306336, Note_on_c, 0, 77, 70
2, 306424, Note_on_c, 0, 77, 0
2, 306432, Note_on_c, 0, 74, 70
2, 306520, Note_on_c, 0, 74, 0
2, 306528, Note_on_c, 0, 70, 70
2, 306616, Note_on_c, 0, 70, 0
2, 306624, Note_on_c, 0, 68, 70
2, 306712, Note_on_c, 0, 68, 0
2, 306720, Note_on_c, 0, 65, 70
2, 306808, Note_on_c, 0, 65, 0
2, 306816, Note_on_c, 0, 62, 71
2, 306904, Note_on_c, 0, 62, 0
2, 306912, Note_on_c, 0, 58, 72
2, 307000, Note_on_c, 0, 58, 0
2, 307008, Note_on_c, 0, 56, 73
2, 307096, Note_on_c, 0, 56, 0
2, 307104, Note_on_c, 0, 53, 74
2, 307192, Note_on_c, 0, 53, 0
2, 307200, Note_on_c, 0, 51, 75
2, 307576, Note_on_c, 0, 51, 0
2, 308160, Note_on_c, 0, 70, 70
2, 308344, Note_on_c, 0, 70, 0
2, 308352, Note_on_c, 0, 75, 70
2, 308536, Note_on_c, 0, 75, 0
2, 308544, Note_on_c, 0, 79, 70
2, 308728, Note_on_c, 0, 79, 0
2, 308736, Note_on_c, 0, 77, 70
2, 309304, Note_on_c, 0, 77, 0
2, 309312, Note_on_c, 0, 79, 70
2, 309496, Note_on_c, 0, 79, 0
2, 309504, Note_on_c, 0, 80, 70
2, 309688, Note_on_c, 0, 80, 0
2, 309696, Note_on_c, 0, 77, 70
2, 309880, Note_on_c, 0, 77, 0
2, 309888, Note_on_c, 0, 72, 70
2, 310072, Note_on_c, 0, 72, 0
2, 310080, Note_on_c, 0, 74, 70
2, 310264, Note_on_c, 0, 74, 0
2, 310272, Note_on_c, 0, 75, 70
2, 310360, Note_on_c, 0, 75, 0
2, 310464, Note_on_c, 0, 79, 70
2, 310552, Note_on_c, 0, 79, 0
2, 310656, Note_on_c, 0, 82, 70
2, 311224, Note_on_c, 0, 82, 0
2, 311232, Note_on_c, 0, 81, 70
2, 311416, Note_on_c, 0, 81, 0
2, 311424, Note_on_c, 0, 80, 70
2, 311608, Note_on_c, 0, 80, 0
2, 311616, Note_on_c, 0, 79, 70
2, 311800, Note_on_c, 0, 79, 0
2, 311808, Note_on_c, 0, 77, 70
2, 312376, Note_on_c, 0, 77, 0
2, 312384, Note_on_c, 0, 79, 70
2, 312568, Note_on_c, 0, 79, 0
2, 312576, Note_on_c, 0, 80, 70
2, 312760, Note_on_c, 0, 80, 0
2, 312768, Note_on_c, 0, 77, 70
2, 312952, Note_on_c, 0, 77, 0
2, 312960, Note_on_c, 0, 72, 70
2, 313144, Note_on_c, 0, 72, 0
2, 313152, Note_on_c, 0, 74, 70
2, 313336, Note_on_c, 0, 74, 0
2, 313344, Note_on_c, 0, 75, 70
2, 313432, Note_on_c, 0, 75, 0
2, 313536, Note_on_c, 0, 79, 70
2, 313624, Note_on_c, 0, 79, 0
2, 313728, Note_on_c, 0, 82, 70
2, 314296, Note_on_c, 0, 82, 0
2, 314304, Note_on_c, 0, 79, 70
2, 314488, Note_on_c, 0, 79, 0
2, 314496, Note_on_c, 0, 77, 70
2, 314680, Note_on_c, 0, 77, 0
2, 314688, Note_on_c, 0, 75, 70
2, 314872, Note_on_c, 0, 75, 0
2, 314880, Note_on_c, 0, 74, 70
2, 314968, Note_on_c, 0, 74, 0
2, 315072, Note_on_c, 0, 77, 70
2, 315160, Note_on_c, 0, 77, 0
2, 315264, Note_on_c, 0, 82, 70
2, 315832, Note_on_c, 0, 82, 0
2, 315840, Note_on_c, 0, 77, 70
2, 316024, Note_on_c, 0, 77, 0
2, 316032, Note_on_c, 0, 75, 70
2, 316216, Note_on_c, 0, 75, 0
2, 316224, Note_on_c, 0, 74, 70
2, 316408, Note_on_c, 0, 74, 0
2, 316416, Note_on_c, 0, 73, 80
2, 316792, Note_on_c, 0, 73, 0
2, 316800, Note_on_c, 0, 64, 81
2, 317560, Note_on_c, 0, 64, 0
2, 317568, Note_on_c, 0, 62, 82
2, 317944, Note_on_c, 0, 62, 0
2, 317952, Note_on_c, 0, 61, 83
2, 318328, Note_on_c, 0, 61, 0
2, 318720, Note_on_c, 0, 81, 70
2, 319288, Note_on_c, 0, 81, 0
2, 319296, Note_on_c, 0, 79, 70
2, 319352, Note_on_c, 0, 79, 0
2, 319360, Note_on_c, 0, 77, 70
2, 319416, Note_on_c, 0, 77, 0
2, 319424, Note_on_c, 0, 76, 70
2, 319480, Note_on_c, 0, 76, 0
2, 319488, Note_on_c, 0, 77, 70
2, 319864, Note_on_c, 0, 77, 0
2, 319872, Note_on_c, 0, 62, 83
2, 320632, Note_on_c, 0, 62, 0
2, 320640, Note_on_c, 0, 60, 84
2, 321016, Note_on_c, 0, 60, 0
2, 321024, Note_on_c, 0, 59, 85
2, 321400, Note_on_c, 0, 59, 0
2, 321792, Note_on_c, 0, 79, 70
2, 322360, Note_on_c, 0, 79, 0
2, 322368, Note_on_c, 0, 77, 70
2, 322424, Note_on_c, 0, 77, 0
2, 322432, Note_on_c, 0, 75, 70
2, 322488, Note_on_c, 0, 75, 0
2, 322496, Note_on_c, 0, 74, 70
2, 322552, Note_on_c, 0, 74, 0
2, 322560, Note_on_c, 0, 75, 70
2, 322936, Note_on_c, 0, 75, 0
2, 323040, Note_on_c, 0, 72, 70
2, 323128, Note_on_c, 0, 72, 0
2, 323136, Note_on_c, 0, 71, 70
2, 323224, Note_on_c, 0, 71, 0
2, 323232, Note_on_c, 0, 72, 70
2, 323320, Note_on_c, 0, 72, 0
2, 323328, Note_on_c, 0, 74, 70
2, 323416, Note_on_c, 0, 74, 0
2, 323424, Note_on_c, 0, 72, 70
2, 323512, Note_on_c, 0, 72, 0
2, 323520, Note_on_c, 0, 71, 70
2, 323608, Note_on_c, 0, 71, 0
2, 323616, Note_on_c, 0, 72, 70
2, 323704, Note_on_c, 0, 72, 0
2, 323712, Note_on_c, 0, 74, 70
2, 323800, Note_on_c, 0, 74, 0
2, 323808, Note_on_c, 0, 75, 70
2, 323896, Note_on_c, 0, 75, 0
2, 323904, Note_on_c, 0, 76, 70
2, 323992, Note_on_c, 0, 76, 0
2, 324000, Note_on_c, 0, 77, 70
2, 324088, Note_on_c, 0, 77, 0
2, 324096, Note_on_c, 0, 78, 70
2, 324472, Note_on_c, 0, 78, 0
2, 324576, Note_on_c, 0, 74, 71
2, 324664, Note_on_c, 0, 74, 0
2, 324672, Note_on_c, 0, 73, 71
2, 324760, Note_on_c, 0, 73, 0
2, 324768, Note_on_c, 0, 74, 72
2, 324856, Note_on_c, 0, 74, 0
2, 324864, Note_on_c, 0, 75, 72
2, 324952, Note_on_c, 0, 75, 0
2, 324960, Note_on_c, 0, 74, 72
2, 325048, Note_on_c, 0, 74, 0
2, 325056, Note_on_c, 0, 72, 73
2, 325144, Note_on_c, 0, 72, 0
2, 325152, Note_on_c, 0, 74, 73
2, 325240, Note_on_c, 0, 74, 0
2, 325248, Note_on_c, 0, 75, 73
2, 325336, Note_on_c, 0, 75, 0
2, 325344, Note_on_c, 0, 76, 74
2, 325432, Note_on_c, 0, 76, 0
2, 325440, Note_on_c, 0, 77, 74
2, 325528, Note_on_c, 0, 77, 0
2, 325536, Note_on_c, 0, 78, 74
2, 325624, Note_on_c, 0, 78, 0
2, 325632, Note_on_c, 0, 79, 75
2, 325752, Note_on_c, 0, 79, 0
2, 325760, Note_on_c, 0, 74, 75
2, 325820, Note_on_c, 0, 74, 0
2, 325888, Note_on_c, 0, 76, 76
2, 325948, Note_on_c, 0, 76, 0
2, 326016, Note_on_c, 0, 78, 76
2, 326076, Note_on_c, 0, 78, 0
2, 326144, Note_on_c, 0, 79, 77
2, 326204, Note_on_c, 0, 79, 0
2, 326272, Note_on_c, 0, 80, 77
2, 326332, Note_on_c, 0, 80, 0
2, 326400, Note_on_c, 0, 81, 78
2, 326496, Note_on_c, 0, 74, 78
2, 326520, Note_on_c, 0, 81, 0
2, 326592, Note_on_c, 0, 76, 78
2, 326616, Note_on_c, 0, 74, 0
2, 326688, Note_on_c, 0, 77, 79
2, 326712, Note_on_c, 0, 76, 0
2, 326784, Note_on_c, 0, 78, 79
2, 326808, Note_on_c, 0, 77, 0
2, 326880, Note_on_c, 0, 79, 79
2, 326904, Note_on_c, 0, 78, 0
2, 326976, Note_on_c, 0, 80, 80
2, 327000, Note_on_c, 0, 79, 0
2, 327072, Note_on_c, 0, 81, 80
2, 327096, Note_on_c, 0, 80, 0
2, 327168, Note_on_c, 0, 82, 80
2, 327192, Note_on_c, 0, 81, 0
2, 327352, Note_on_c, 0, 82, 0
2, 327360, Note_on_c, 0, 79, 81
2, 327736, Note_on_c, 0, 79, 0
2, 327744, Note_on_c, 0, 75, 82
2, 328120, Note_on_c, 0, 75, 0
2, 328128, Note_on_c, 0, 72, 84
2, 328504, Note_on_c, 0, 72, 0
2, 328512, Note_on_c, 0, 69, 85
2, 328696, Note_on_c, 0, 69, 0
2, 328704, Note_on_c, 0, 74, 86
2, 329464, Note_on_c, 0, 74, 0
2, 329472, Note_on_c, 0, 66, 89
2, 330232, Note_on_c, 0, 66, 0
2, 331776, Note_on_c, 0, 68, 90
2, 333304, Note_on_c, 0, 68, 0
2, 333312, Note_on_c, 0, 59, 93
2, 334840, Note_on_c, 0, 59, 0
2, 334848, Note_on_c, 0, 79, 90
2, 336376, Note_on_c, 0, 79, 0
2, 336384, Note_on_c, 0, 61, 92
2, 337912, Note_on_c, 0, 61, 0
2, 337920, Note_on_c, 0, 62, 91
2, 338296, Note_on_c, 0, 62, 0
2, 338496, Note_on_c, 0, 58, 72
2, 338584, Note_on_c, 0, 58, 0
2, 338592, Note_on_c, 0, 57, 73
2, 338680, Note_on_c, 0, 57, 0
2, 338688, Note_on_c, 0, 58, 72
2, 338872, Note_on_c, 0, 58, 0
2, 338880, Note_on_c, 0, 67, 70
2, 338968, Note_on_c, 0, 67, 0
2, 338976, Note_on_c, 0, 66, 70
2, 339064, Note_on_c, 0, 66, 0
2, 339072, Note_on_c, 0, 67, 70
2, 339256, Note_on_c, 0, 67, 0
2, 339264, Note_on_c, 0, 74, 70
2, 339352, Note_on_c, 0, 74, 0
2, 339360, Note_on_c, 0, 73, 70
2, 339448, Note_on_c, 0, 73, 0
2, 339456, Note_on_c, 0, 74, 70
2, 339832, Note_on_c, 0, 74, 0
2, 340032, Note_on_c, 0, 70, 72
2, 340120, Note_on_c, 0, 70, 0
2, 340128, Note_on_c, 0, 69, 73
2, 340216, Note_on_c, 0, 69, 0
2, 340224, Note_on_c, 0, 70, 74
2, 340408, Note_on_c, 0, 70, 0
2, 340416, Note_on_c, 0, 79, 75
2, 340504, Note_on_c, 0, 79, 0
2, 340512, Note_on_c, 0, 78, 76
2, 340600, Note_on_c, 0, 78, 0
2, 340608, Note_on_c, 0, 79, 77
2, 340792, Note_on_c, 0, 79, 0
2, 340800, Note_on_c, 0, 82, 78
2, 340888, Note_on_c, 0, 82, 0
2, 340896, Note_on_c, 0, 81, 79
2, 340984, Note_on_c, 0, 81, 0
2, 340992, Note_on_c, 0, 82, 80
2, 341368, Note_on_c, 0, 82, 0
2, 341568, Note_on_c, 0, 74, 84
2, 341656, Note_on_c, 0, 74, 0
2, 341664, Note_on_c, 0, 73, 85
2, 341752, Note_on_c, 0, 73, 0
2, 341760, Note_on_c, 0, 74, 86
2, 341944, Note_on_c, 0, 74, 0
2, 341952, Note_on_c, 0, 82, 87
2, 342040, Note_on_c, 0, 82, 0
2, 342048, Note_on_c, 0, 81, 88
2, 342136, Note_on_c, 0, 81, 0
2, 342144, Note_on_c, 0, 82, 89
2, 342328, Note_on_c, 0, 82, 0
2, 342336, Note_on_c, 0, 86, 90
2, 342424, Note_on_c, 0, 86, 0
2, 342432, Note_on_c, 0, 85, 91
2, 342520, Note_on_c, 0, 85, 0
2, 342528, Note_on_c, 0, 86, 90
2, 342712, Note_on_c, 0, 86, 0
2, 342912, Note_on_c, 0, 67, 90
2, 343288, Note_on_c, 0, 67, 0
2, 343296, Note_on_c, 0, 63, 91
2, 343672, Note_on_c, 0, 63, 0
2, 343680, Note_on_c, 0, 61, 92
2, 344056, Note_on_c, 0, 61, 0
2, 344064, Note_on_c, 0, 62, 91
2, 344440, Note_on_c, 0, 62, 0
2, 344640, Note_on_c, 0, 73, 90
2, 344728, Note_on_c, 0, 73, 0
2, 344832, Note_on_c, 0, 74, 90
2, 344920, Note_on_c, 0, 74, 0
2, 345024, Note_on_c, 0, 75, 90
2, 345112, Note_on_c, 0, 75, 0
2, 345216, Note_on_c, 0, 76, 90
2, 345304, Note_on_c, 0, 76, 0
2, 345408, Note_on_c, 0, 77, 90
2, 345496, Note_on_c, 0, 77, 0
2, 345600, Note_on_c, 0, 78, 90
2, 345640, Note_on_c, 0, 78, 0
2, 345648, Note_on_c, 0, 79, 90
2, 345688, Note_on_c, 0, 79, 0
2, 345696, Note_on_c, 0, 78, 90
2, 345736, Note_on_c, 0, 78, 0
2, 345744, Note_on_c, 0, 79, 90
2, 345784, Note_on_c, 0, 79, 0
2, 345792, Note_on_c, 0, 78, 90
2, 345832, Note_on_c, 0, 78, 0
2, 345840, Note_on_c, 0, 79, 90
2, 345880, Note_on_c, 0, 79, 0
2, 345888, Note_on_c, 0, 78, 90
2, 345928, Note_on_c, 0, 78, 0
2, 345936, Note_on_c, 0, 79, 90
2, 345976, Note_on_c, 0, 79, 0
2, 345984, Note_on_c, 0, 78, 90
2, 346024, Note_on_c, 0, 78, 0
2, 346032, Note_on_c, 0, 79, 90
2, 346072, Note_on_c, 0, 79, 0
2, 346080, Note_on_c, 0, 78, 90
2, 346120, Note_on_c, 0, 78, 0
2, 346128, Note_on_c, 0, 79, 90
2, 346168, Note_on_c, 0, 79, 0
2, 346176, Note_on_c, 0, 78, 90
2, 346216, Note_on_c, 0, 78, 0
2, 346224, Note_on_c, 0, 79, 90
2, 346264, Note_on_c, 0, 79, 0
2, 346272, Note_on_c, 0, 78, 90
2, 346312, Note_on_c, 0, 78, 0
2, 346320, Note_on_c, 0, 79, 90
2, 346360, Note_on_c, 0, 79, 0
2, 346368, Note_on_c, 0, 79, 90
2, 346408, Note_on_c, 0, 79, 0
2, 346416, Note_on_c, 0, 81, 90
2, 346456, Note_on_c, 0, 81, 0
2, 346464, Note_on_c, 0, 79, 90
2, 346504, Note_on_c, 0, 79, 0
2, 346512, Note_on_c, 0, 81, 90
2, 346544, Note_on_c, 0, 79, 90
2, 346552, Note_on_c, 0, 81, 0
2, 346584, Note_on_c, 0, 79, 0
2, 346608, Note_on_c, 0, 81, 90
2, 346648, Note_on_c, 0, 81, 0
2, 346656, Note_on_c, 0, 79, 90
2, 346696, Note_on_c, 0, 79, 0
2, 346704, Note_on_c, 0, 81, 90
2, 346744, Note_on_c, 0, 81, 0
2, 346752, Note_on_c, 0, 79, 90
2, 346792, Note_on_c, 0, 79, 0
2, 346800, Note_on_c, 0, 81, 90
2, 346840, Note_on_c, 0, 81, 0
2, 346848, Note_on_c, 0, 79, 90
2, 346888, Note_on_c, 0, 79, 0
2, 346896, Note_on_c, 0, 81, 90
2, 346936, Note_on_c, 0, 81, 0
2, 346944, Note_on_c, 0, 79, 90
2, 346984, Note_on_c, 0, 79, 0
2, 346992, Note_on_c, 0, 81, 90
2, 347032, Note_on_c, 0, 81, 0
2, 347040, Note_on_c, 0, 79, 90
2, 347080, Note_on_c, 0, 79, 0
2, 347088, Note_on_c, 0, 81, 90
2, 347128, Note_on_c, 0, 81, 0
2, 347136, Note_on_c, 0, 81, 90
2, 347176, Note_on_c, 0, 81, 0
2, 347184, Note_on_c, 0, 82, 90
2, 347224, Note_on_c, 0, 82, 0
2, 347232, Note_on_c, 0, 81, 90
2, 347272, Note_on_c, 0, 81, 0
2, 347280, Note_on_c, 0, 82, 90
2, 347320, Note_on_c, 0, 82, 0
2, 347328, Note_on_c, 0, 81, 90
2, 347368, Note_on_c, 0, 81, 0
2, 347376, Note_on_c, 0, 82, 90
2, 347416, Note_on_c, 0, 82, 0
2, 347424, Note_on_c, 0, 81, 90
2, 347464, Note_on_c, 0, 81, 0
2, 347472, Note_on_c, 0, 82, 90
2, 347512, Note_on_c, 0, 82, 0
2, 347520, Note_on_c, 0, 81, 90
2, 347560, Note_on_c, 0, 81, 0
2, 347568, Note_on_c, 0, 82, 90
2, 347608, Note_on_c, 0, 82, 0
2, 347616, Note_on_c, 0, 81, 90
2, 347656, Note_on_c, 0, 81, 0
2, 347664, Note_on_c, 0, 82, 90
2, 347704, Note_on_c, 0, 82, 0
2, 347712, Note_on_c, 0, 81, 90
2, 347752, Note_on_c, 0, 81, 0
2, 347760, Note_on_c, 0, 82, 90
2, 347800, Note_on_c, 0, 82, 0
2, 347808, Note_on_c, 0, 81, 90
2, 347848, Note_on_c, 0, 81, 0
2, 347856, Note_on_c, 0, 82, 90
2, 347896, Note_on_c, 0, 82, 0
2, 347904, Note_on_c, 0, 81, 90
2, 347944, Note_on_c, 0, 81, 0
2, 347952, Note_on_c, 0, 82, 90
2, 347992, Note_on_c, 0, 82, 0
2, 348000, Note_on_c, 0, 81, 90
2, 348040, Note_on_c, 0, 81, 0
2, 348048, Note_on_c, 0, 82, 90
2, 348088, Note_on_c, 0, 82, 0
2, 348096, Note_on_c, 0, 81, 90
2, 348136, Note_on_c, 0, 81, 0
2, 348144, Note_on_c, 0, 82, 90
2, 348184, Note_on_c, 0, 82, 0
2, 348192, Note_on_c, 0, 81, 90
2, 348232, Note_on_c, 0, 81, 0
2, 348240, Note_on_c, 0, 82, 90
2, 348280, Note_on_c, 0, 82, 0
2, 348288, Note_on_c, 0, 81, 90
2, 348328, Note_on_c, 0, 81, 0
2, 348336, Note_on_c, 0, 82, 90
2, 348376, Note_on_c, 0, 82, 0
2, 348384, Note_on_c, 0, 81, 90
2, 348424, Note_on_c, 0, 81, 0
2, 348432, Note_on_c, 0, 82, 90
2, 348472, Note_on_c, 0, 82, 0
2, 348480, Note_on_c, 0, 79, 90
2, 348568, Note_on_c, 0, 79, 0
2, 348576, Note_on_c, 0, 81, 90
2, 348664, Note_on_c, 0, 81, 0
2, 348672, Note_on_c, 0, 79, 90
2, 349048, Note_on_c, 0, 79, 0
2, 380928, Note_on_c, 0, 53, 96
2, 381112, Note_on_c, 0, 53, 0
2, 381120, Note_on_c, 0, 55, 95
2, 381208, Note_on_c, 0, 55, 0
2, 381216, Note_on_c, 0, 57, 94
2, 381304, Note_on_c, 0, 57, 0
2, 381312, Note_on_c, 0, 58, 93
2, 381400, Note_on_c, 0, 58, 0
2, 381408, Note_on_c, 0, 60, 92
2, 381496, Note_on_c, 0, 60, 0
2, 381504, Note_on_c, 0, 62, 91
2, 381592, Note_on_c, 0, 62, 0
2, 381600, Note_on_c, 0, 64, 90
2, 381688, Note_on_c, 0, 64, 0
2, 381696, Note_on_c, 0, 65, 90
2, 381784, Note_on_c, 0, 65, 0
2, 381792, Note_on_c, 0, 67, 90
2, 381880, Note_on_c, 0, 67, 0
2, 381888, Note_on_c, 0, 69, 90
2, 381976, Note_on_c, 0, 69, 0
2, 381984, Note_on_c, 0, 70, 90
2, 382072, Note_on_c, 0, 70, 0
2, 382080, Note_on_c, 0, 72, 90
2, 382168, Note_on_c, 0, 72, 0
2, 382176, Note_on_c, 0, 74, 90
2, 382264, Note_on_c, 0, 74, 0
2, 382272, Note_on_c, 0, 75, 90
2, 382360, Note_on_c, 0, 75, 0
2, 382368, Note_on_c, 0, 76, 90
2, 382456, Note_on_c, 0, 76, 0
2, 382464, Note_on_c, 0, 77, 80
2, 386296, Note_on_c, 0, 77, 0
2, 386304, Note_on_c, 0, 74, 70
2, 386872, Note_on_c, 0, 74, 0
2, 386880, Note_on_c, 0, 75, 70
2, 387064, Note_on_c, 0, 75, 0
2, 387072, Note_on_c, 0, 79, 70
2, 387256, Note_on_c, 0, 79, 0
2, 387264, Note_on_c, 0, 77, 70
2, 387448, Note_on_c, 0, 77, 0
2, 387456, Note_on_c, 0, 75, 70
2, 387544, Note_on_c, 0, 75, 0
2, 387648, Note_on_c, 0, 74, 70
2, 387736, Note_on_c, 0, 74, 0
2, 387840, Note_on_c, 0, 74, 70
2, 388216, Note_on_c, 0, 74, 0
2, 388608, Note_on_c, 0, 75, 70
2, 388984, Note_on_c, 0, 75, 0
2, 388992, Note_on_c, 0, 72, 70
2, 389176, Note_on_c, 0, 72, 0
2, 389376, Note_on_c, 0, 75, 70
2, 389752, Note_on_c, 0, 75, 0
2, 389760, Note_on_c, 0, 72, 70
2, 389944, Note_on_c, 0, 72, 0
2, 390144, Note_on_c, 0, 70, 70
2, 390712, Note_on_c, 0, 70, 0
2, 390720, Note_on_c, 0, 72, 70
2, 390808, Note_on_c, 0, 72, 0
2, 390816, Note_on_c, 0, 70, 70
2, 390904, Note_on_c, 0, 70, 0
2, 390912, Note_on_c, 0, 69, 70
2, 391288, Note_on_c, 0, 69, 0
2, 391680, Note_on_c, 0, 70, 70
2, 392440, Note_on_c, 0, 70, 0
2, 392448, Note_on_c, 0, 70, 70
2, 392536, Note_on_c, 0, 70, 0
2, 392544, Note_on_c, 0, 69, 70
2, 392632, Note_on_c, 0, 69, 0
2, 392640, Note_on_c, 0, 70, 70
2, 392728, Note_on_c, 0, 70, 0
2, 392736, Note_on_c, 0, 69, 70
2, 392824, Note_on_c, 0, 69, 0
2, 392832, Note_on_c, 0, 72, 70
2, 392920, Note_on_c, 0, 72, 0
2, 392928, Note_on_c, 0, 70, 70
2, 393016, Note_on_c, 0, 70, 0
2, 393024, Note_on_c, 0, 69, 70
2, 393112, Note_on_c, 0, 69, 0
2, 393120, Note_on_c, 0, 67, 70
2, 393208, Note_on_c, 0, 67, 0
2, 393216, Note_on_c, 0, 65, 70
2, 393400, Note_on_c, 0, 65, 0
2, 393408, Note_on_c, 0, 75, 70
2, 393592, Note_on_c, 0, 75, 0
2, 393600, Note_on_c, 0, 75, 70
2, 394360, Note_on_c, 0, 75, 0
2, 394368, Note_on_c, 0, 74, 70
2, 394744, Note_on_c, 0, 74, 0
2, 394752, Note_on_c, 0, 72, 70
2, 394840, Note_on_c, 0, 72, 0
2, 394848, Note_on_c, 0, 74, 70
2, 394936, Note_on_c, 0, 74, 0
2, 394944, Note_on_c, 0, 75, 70
2, 395032, Note_on_c, 0, 75, 0
2, 395040, Note_on_c, 0, 77, 70
2, 395128, Note_on_c, 0, 77, 0
2, 395136, Note_on_c, 0, 78, 70
2, 395224, Note_on_c, 0, 78, 0
2, 395232, Note_on_c, 0, 79, 70
2, 395320, Note_on_c, 0, 79, 0
2, 395328, Note_on_c, 0, 75, 70
2, 395416, Note_on_c, 0, 75, 0
2, 395424, Note_on_c, 0, 72, 70
2, 395512, Note_on_c, 0, 72, 0
2, 395520, Note_on_c, 0, 70, 70
2, 395896, Note_on_c, 0, 70, 0
2, 395904, Note_on_c, 0, 74, 70
2, 396088, Note_on_c, 0, 74, 0
2, 396096, Note_on_c, 0, 72, 70
2, 396280, Note_on_c, 0, 72, 0
2, 396288, Note_on_c, 0, 70, 70
2, 396664, Note_on_c, 0, 70, 0
2, 397824, Note_on_c, 0, 70, 70
2, 399448, Note_on_c, 0, 70, 0
2, 399456, Note_on_c, 0, 72, 70
2, 399544, Note_on_c, 0, 72, 0
2, 399552, Note_on_c, 0, 74, 70
2, 399640, Note_on_c, 0, 74, 0
2, 399648, Note_on_c, 0, 75, 70
2, 399736, Note_on_c, 0, 75, 0
2, 399744, Note_on_c, 0, 77, 70
2, 399832, Note_on_c, 0, 77, 0
2, 399840, Note_on_c, 0, 79, 70
2, 399928, Note_on_c, 0, 79, 0
2, 399936, Note_on_c, 0, 81, 70
2, 400024, Note_on_c, 0, 81, 0
2, 400032, Note_on_c, 0, 82, 70
2, 400120, Note_on_c, 0, 82, 0
2, 400128, Note_on_c, 0, 81, 70
2, 400216, Note_on_c, 0, 81, 0
2, 400224, Note_on_c, 0, 82, 70
2, 400312, Note_on_c, 0, 82, 0
2, 400320, Note_on_c, 0, 81, 70
2, 400408, Note_on_c, 0, 81, 0
2, 400416, Note_on_c, 0, 82, 70
2, 400504, Note_on_c, 0, 82, 0
2, 400512, Note_on_c, 0, 81, 70
2, 400600, Note_on_c, 0, 81, 0
2, 400608, Note_on_c, 0, 82, 70
2, 400696, Note_on_c, 0, 82, 0
2, 400704, Note_on_c, 0, 81, 70
2, 400792, Note_on_c, 0, 81, 0
2, 400800, Note_on_c, 0, 82, 70
2, 400888, Note_on_c, 0, 82, 0
2, 400896, Note_on_c, 0, 78, 70
2, 400984, Note_on_c, 0, 78, 0
2, 400992, Note_on_c, 0, 79, 70
2, 401080, Note_on_c, 0, 79, 0
2, 401088, Note_on_c, 0, 78, 70
2, 401176, Note_on_c, 0, 78, 0
2, 401184, Note_on_c, 0, 79, 70
2, 401272, Note_on_c, 0, 79, 0
2, 401280, Note_on_c, 0, 74, 70
2, 401368, Note_on_c, 0, 74, 0
2, 401376, Note_on_c, 0, 75, 70
2, 401464, Note_on_c, 0, 75, 0
2, 401472, Note_on_c, 0, 74, 70
2, 401560, Note_on_c, 0, 74, 0
2, 401568, Note_on_c, 0, 75, 70
2, 401656, Note_on_c, 0, 75, 0
2, 401664, Note_on_c, 0, 71, 70
2, 401752, Note_on_c, 0, 71, 0
2, 401760, Note_on_c, 0, 72, 70
2, 401848, Note_on_c, 0, 72, 0
2, 401856, Note_on_c, 0, 74, 70
2, 401944, Note_on_c, 0, 74, 0
2, 401952, Note_on_c, 0, 75, 70
2, 402040, Note_on_c, 0, 75, 0
2, 402048, Note_on_c, 0, 76, 70
2, 402136, Note_on_c, 0, 76, 0
2, 402144, Note_on_c, 0, 77, 70
2, 402232, Note_on_c, 0, 77, 0
2, 402240, Note_on_c, 0, 78, 70
2, 402328, Note_on_c, 0, 78, 0
2, 402336, Note_on_c, 0, 79, 70
2, 402424, Note_on_c, 0, 79, 0
2, 402432, Note_on_c, 0, 70, 70
2, 403000, Note_on_c, 0, 70, 0
2, 403008, Note_on_c, 0, 72, 70
2, 403096, Note_on_c, 0, 72, 0
2, 403104, Note_on_c, 0, 70, 70
2, 403192, Note_on_c, 0, 70, 0
2, 403200, Note_on_c, 0, 69, 70
2, 403576, Note_on_c, 0, 69, 0
2, 403968, Note_on_c, 0, 77, 70
2, 404056, Note_on_c, 0, 77, 0
2, 404064, Note_on_c, 0, 75, 71
2, 404152, Note_on_c, 0, 75, 0
2, 404160, Note_on_c, 0, 72, 72
2, 404248, Note_on_c, 0, 72, 0
2, 404256, Note_on_c, 0, 69, 73
2, 404344, Note_on_c, 0, 69, 0
2, 404352, Note_on_c, 0, 65, 74
2, 404440, Note_on_c, 0, 65, 0
2, 404448, Note_on_c, 0, 63, 75
2, 404536, Note_on_c, 0, 63, 0
2, 404544, Note_on_c, 0, 60, 76
2, 404632, Note_on_c, 0, 60, 0
2, 404640, Note_on_c, 0, 57, 77
2, 404728, Note_on_c, 0, 57, 0
2, 404736, Note_on_c, 0, 53, 78
2, 405496, Note_on_c, 0, 53, 0
2, 405504, Note_on_c, 0, 51, 79
2, 406264, Note_on_c, 0, 51, 0
2, 406272, Note_on_c, 0, 81, 70
2, 407032, Note_on_c, 0, 81, 0
2, 407040, Note_on_c, 0, 82, 70
2, 407224, Note_on_c, 0, 82, 0
2, 407232, Note_on_c, 0, 74, 70
2, 407320, Note_on_c, 0, 74, 0
2, 407424, Note_on_c, 0, 75, 70
2, 407512, Note_on_c, 0, 75, 0
2, 407616, Note_on_c, 0, 76, 70
2, 407704, Note_on_c, 0, 76, 0
2, 407808, Note_on_c, 0, 77, 70
2, 407896, Note_on_c, 0, 77, 0
2, 408000, Note_on_c, 0, 69, 70
2, 408088, Note_on_c, 0, 69, 0
2, 408192, Note_on_c, 0, 70, 70
2, 408280, Note_on_c, 0, 70, 0
2, 408384, Note_on_c, 0, 71, 70
2, 408472, Note_on_c, 0, 71, 0
2, 408576, Note_on_c, 0, 72, 71
2, 409720, Note_on_c, 0, 72, 0
2, 409728, Note_on_c, 0, 74, 86
2, 409912, Note_on_c, 0, 74, 0
2, 409920, Note_on_c, 0, 75, 88
2, 410104, Note_on_c, 0, 75, 0
2, 410112, Note_on_c, 0, 74, 90
2, 410200, Note_on_c, 0, 74, 0
2, 410208, Note_on_c, 0, 82, 90
2, 410296, Note_on_c, 0, 82, 0
2, 410304, Note_on_c, 0, 77, 90
2, 410392, Note_on_c, 0, 77, 0
2, 410400, Note_on_c, 0, 74, 90
2, 410488, Note_on_c, 0, 74, 0
2, 410496, Note_on_c, 0, 70, 90
2, 410584, Note_on_c, 0, 70, 0
2, 410592, Note_on_c, 0, 65, 91
2, 410680, Note_on_c, 0, 65, 0
2, 410688, Note_on_c, 0, 62, 93
2, 410776, Note_on_c, 0, 62, 0
2, 410784, Note_on_c, 0, 58, 94
2, 410872, Note_on_c, 0, 58, 0
2, 410880, Note_on_c, 0, 55, 96
2, 410968, Note_on_c, 0, 55, 0
2, 410976, Note_on_c, 0, 58, 94
2, 411064, Note_on_c, 0, 58, 0
2, 411072, Note_on_c, 0, 63, 93
2, 411160, Note_on_c, 0, 63, 0
2, 411168, Note_on_c, 0, 67, 91
2, 411256, Note_on_c, 0, 67, 0
2, 411264, Note_on_c, 0, 70, 90
2, 411352, Note_on_c, 0, 70, 0
2, 411360, Note_on_c, 0, 75, 90
2, 411448, Note_on_c, 0, 75, 0
2, 411456, Note_on_c, 0, 79, 90
2, 411544, Note_on_c, 0, 79, 0
2, 411552, Note_on_c, 0, 82, 90
2, 411640, Note_on_c, 0, 82, 0
2, 411648, Note_on_c, 0, 76, 90
2, 411736, Note_on_c, 0, 76, 0
2, 411744, Note_on_c, 0, 77, 90
2, 411832, Note_on_c, 0, 77, 0
2, 411840, Note_on_c, 0, 79, 90
2, 411928, Note_on_c, 0, 79, 0
2, 411936, Note_on_c, 0, 77, 90
2, 412024, Note_on_c, 0, 77, 0
2, 412032, Note_on_c, 0, 75, 90
2, 412120, Note_on_c, 0, 75, 0
2, 412128, Note_on_c, 0, 74, 90
2, 412216, Note_on_c, 0, 74, 0
2, 412224, Note_on_c, 0, 72, 90
2, 412312, Note_on_c, 0, 72, 0
2, 412320, Note_on_c, 0, 70, 90
2, 412408, Note_on_c, 0, 70, 0
2, 412416, Note_on_c, 0, 72, 90
2, 412456, Note_on_c, 0, 72, 0
2, 412464, Note_on_c, 0, 74, 90
2, 412504, Note_on_c, 0, 74, 0
2, 412512, Note_on_c, 0, 72, 90
2, 412552, Note_on_c, 0, 72, 0
2, 412560, Note_on_c, 0, 74, 90
2, 412600, Note_on_c, 0, 74, 0
2, 412608, Note_on_c, 0, 72, 90
2, 412648, Note_on_c, 0, 72, 0
2, 412656, Note_on_c, 0, 74, 90
2, 412696, Note_on_c, 0, 74, 0
2, 412704, Note_on_c, 0, 72, 90
2, 412744, Note_on_c, 0, 72, 0
2, 412752, Note_on_c, 0, 74, 90
2, 412792, Note_on_c, 0, 74, 0
2, 412800, Note_on_c, 0, 72, 90
2, 412840, Note_on_c, 0, 72, 0
2, 412848, Note_on_c, 0, 74, 90
2, 412888, Note_on_c, 0, 74, 0
2, 412896, Note_on_c, 0, 72, 90
2, 412936, Note_on_c, 0, 72, 0
2, 412944, Note_on_c, 0, 74, 90
2, 412984, Note_on_c, 0, 74, 0
2, 412992, Note_on_c, 0, 70, 90
2, 413080, Note_on_c, 0, 70, 0
2, 413088, Note_on_c, 0, 72, 90
2, 413176, Note_on_c, 0, 72, 0
2, 413184, Note_on_c, 0, 70, 90
2, 413560, Note_on_c, 0, 70, 0
2, 417792, Note_on_c, 0, 70, 70
2, 418936, Note_on_c, 0, 70, 0
2, 418944, Note_on_c, 0, 72, 70
2, 419128, Note_on_c, 0, 72, 0
2, 419136, Note_on_c, 0, 73, 70
2, 419320, Note_on_c, 0, 73, 0
2, 419328, Note_on_c, 0, 72, 70
2, 419512, Note_on_c, 0, 72, 0
2, 419520, Note_on_c, 0, 75, 70
2, 419704, Note_on_c, 0, 75, 0
2, 419712, Note_on_c, 0, 78, 70
2, 420472, Note_on_c, 0, 78, 0
2, 420480, Note_on_c, 0, 77, 70
2, 420664, Note_on_c, 0, 77, 0
2, 420672, Note_on_c, 0, 75, 70
2, 420856, Note_on_c, 0, 75, 0
2, 420864, Note_on_c, 0, 75, 70
2, 420952, Note_on_c, 0, 75, 0
2, 420960, Note_on_c, 0, 73, 70
2, 421048, Note_on_c, 0, 73, 0
2, 421056, Note_on_c, 0, 72, 70
2, 421144, Note_on_c, 0, 72, 0
2, 421152, Note_on_c, 0, 70, 70
2, 421240, Note_on_c, 0, 70, 0
2, 421248, Note_on_c, 0, 70, 70
2, 421624, Note_on_c, 0, 70, 0
2, 421824, Note_on_c, 0, 74, 70
2, 422008, Note_on_c, 0, 74, 0
2, 422016, Note_on_c, 0, 75, 70
2, 422200, Note_on_c, 0, 75, 0
2, 422208, Note_on_c, 0, 77, 70
2, 422392, Note_on_c, 0, 77, 0
2, 422400, Note_on_c, 0, 75, 70
2, 422584, Note_on_c, 0, 75, 0
2, 422592, Note_on_c, 0, 78, 70
2, 422776, Note_on_c, 0, 78, 0
2, 422784, Note_on_c, 0, 82, 70
2, 423544, Note_on_c, 0, 82, 0
2, 423552, Note_on_c, 0, 80, 70
2, 423736, Note_on_c, 0, 80, 0
2, 423744, Note_on_c, 0, 78, 70
2, 423928, Note_on_c, 0, 78, 0
2, 423936, Note_on_c, 0, 78, 70
2, 424024, Note_on_c, 0, 78, 0
2, 424032, Note_on_c, 0, 77, 70
2, 424120, Note_on_c, 0, 77, 0
2, 424128, Note_on_c, 0, 75, 70
2, 424216, Note_on_c, 0, 75, 0
2, 424224, Note_on_c, 0, 73, 70
2, 424312, Note_on_c, 0, 73, 0
2, 424320, Note_on_c, 0, 73, 70
2, 424696, Note_on_c, 0, 73, 0
2, 427008, Note_on_c, 0, 75, 70
2, 427192, Note_on_c, 0, 75, 0
2, 427200, Note_on_c, 0, 77, 70
2, 427384, Note_on_c, 0, 77, 0
2, 427392, Note_on_c, 0, 78, 70
2, 428152, Note_on_c, 0, 78, 0
2, 428160, Note_on_c, 0, 77, 70
2, 428344, Note_on_c, 0, 77, 0
2, 428352, Note_on_c, 0, 75, 70
2, 428536, Note_on_c, 0, 75, 0
2, 428544, Note_on_c, 0, 74, 70
2, 428728, Note_on_c, 0, 74, 0
2, 428736, Note_on_c, 0, 77, 70
2, 428824, Note_on_c, 0, 77, 0
2, 428832, Note_on_c, 0, 80, 70
2, 428920, Note_on_c, 0, 80, 0
2, 428928, Note_on_c, 0, 83, 70
2, 429688, Note_on_c, 0, 83, 0
2, 429696, Note_on_c, 0, 82, 70
2, 429880, Note_on_c, 0, 82, 0
2, 429888, Note_on_c, 0, 80, 70
2, 430072, Note_on_c, 0, 80, 0
2, 430080, Note_on_c, 0, 80, 70
2, 430204, Note_on_c, 0, 80, 0
2, 430272, Note_on_c, 0, 78, 70
2, 430456, Note_on_c, 0, 78, 0
2, 430656, Note_on_c, 0, 77, 70
2, 430840, Note_on_c, 0, 77, 0
2, 430848, Note_on_c, 0, 77, 70
2, 431032, Note_on_c, 0, 77, 0
2, 431040, Note_on_c, 0, 75, 70
2, 431224, Note_on_c, 0, 75, 0
2, 431424, Note_on_c, 0, 73, 70
2, 431800, Note_on_c, 0, 73, 0
2, 431808, Note_on_c, 0, 72, 70
2, 432184, Note_on_c, 0, 72, 0
2, 432192, Note_on_c, 0, 73, 70
2, 432568, Note_on_c, 0, 73, 0
2, 432576, Note_on_c, 0, 72, 70
2, 432952, Note_on_c, 0, 72, 0
2, 432960, Note_on_c, 0, 70, 70
2, 433144, Note_on_c, 0, 70, 0
2, 433152, Note_on_c, 0, 69, 75
2, 433528, Note_on_c, 0, 69, 0
2, 434400, Note_on_c, 0, 53, 93
2, 434488, Note_on_c, 0, 53, 0
2, 434496, Note_on_c, 0, 55, 92
2, 434584, Note_on_c, 0, 55, 0
2, 434592, Note_on_c, 0, 57, 91
2, 434680, Note_on_c, 0, 57, 0
2, 434688, Note_on_c, 0, 58, 91
2, 434776, Note_on_c, 0, 58, 0
2, 434784, Note_on_c, 0, 53, 94
2, 434872, Note_on_c, 0, 53, 0
2, 434880, Note_on_c, 0, 55, 93
2, 434968, Note_on_c, 0, 55, 0
2, 434976, Note_on_c, 0, 57, 92
2, 435064, Note_on_c, 0, 57, 0
2, 435072, Note_on_c, 0, 58, 91
2, 435160, Note_on_c, 0, 58, 0
2, 435168, Note_on_c, 0, 57, 92
2, 435256, Note_on_c, 0, 57, 0
2, 435264, Note_on_c, 0, 58, 91
2, 435352, Note_on_c, 0, 58, 0
2, 435360, Note_on_c, 0, 60, 90
2, 435448, Note_on_c, 0, 60, 0
2, 435456, Note_on_c, 0, 61, 90
2, 435544, Note_on_c, 0, 61, 0
2, 435552, Note_on_c, 0, 60, 90
2, 435640, Note_on_c, 0, 60, 0
2, 435648, Note_on_c, 0, 58, 90
2, 435736, Note_on_c, 0, 58, 0
2, 435744, Note_on_c, 0, 60, 90
2, 435832, Note_on_c, 0, 60, 0
2, 435840, Note_on_c, 0, 61, 90
2, 435928, Note_on_c, 0, 61, 0
2, 435936, Note_on_c, 0, 60, 90
2, 436024, Note_on_c, 0, 60, 0
2, 436032, Note_on_c, 0, 61, 90
2, 436120, Note_on_c, 0, 61, 0
2, 436128, Note_on_c, 0, 63, 90
2, 436216, Note_on_c, 0, 63, 0
2, 436224, Note_on_c, 0, 65, 90
2, 436600, Note_on_c, 0, 65, 0
2, 436608, Note_on_c, 0, 53, 94
2, 436984, Note_on_c, 0, 53, 0
2, 437184, Note_on_c, 0, 53, 93
2, 437368, Note_on_c, 0, 53, 0
2, 437376, Note_on_c, 0, 55, 92
2, 437560, Note_on_c, 0, 55, 0
2, 437568, Note_on_c, 0, 57, 91
2, 437752, Note_on_c, 0, 57, 0
2, 437760, Note_on_c, 0, 58, 90
2, 437848, Note_on_c, 0, 58, 0
2, 437856, Note_on_c, 0, 53, 93
2, 437944, Note_on_c, 0, 53, 0
2, 437952, Note_on_c, 0, 55, 92
2, 438040, Note_on_c, 0, 55, 0
2, 438048, Note_on_c, 0, 57, 91
2, 438136, Note_on_c, 0, 57, 0
2, 438144, Note_on_c, 0, 58, 90
2, 438232, Note_on_c, 0, 58, 0
2, 438240, Note_on_c, 0, 57, 90
2, 438328, Note_on_c, 0, 57, 0
2, 438336, Note_on_c, 0, 58, 90
2, 438424, Note_on_c, 0, 58, 0
2, 438432, Note_on_c, 0, 60, 90
2, 438520, Note_on_c, 0, 60, 0
2, 438528, Note_on_c, 0, 61, 90
2, 438616, Note_on_c, 0, 61, 0
2, 438624, Note_on_c, 0, 60, 90
2, 438712, Note_on_c, 0, 60, 0
2, 438720, Note_on_c, 0, 58, 90
2, 438808, Note_on_c, 0, 58, 0
2, 438816, Note_on_c, 0, 60, 90
2, 438904, Note_on_c, 0, 60, 0
2, 438912, Note_on_c, 0, 61, 90
2, 439000, Note_on_c, 0, 61, 0
2, 439008, Note_on_c, 0, 60, 90
2, 439096, Note_on_c, 0, 60, 0
2, 439104, Note_on_c, 0, 61, 90
2, 439192, Note_on_c, 0, 61, 0
2, 439200, Note_on_c, 0, 63, 90
2, 439288, Note_on_c, 0, 63, 0
2, 439296, Note_on_c, 0, 65, 90
2, 439672, Note_on_c, 0, 65, 0
2, 442368, Note_on_c, 0, 77, 70
2, 443320, Note_on_c, 0, 77, 0
2, 443328, Note_on_c, 0, 79, 70
2, 443512, Note_on_c, 0, 79, 0
2, 443520, Note_on_c, 0, 81, 70
2, 443704, Note_on_c, 0, 81, 0
2, 443712, Note_on_c, 0, 82, 70
2, 443896, Note_on_c, 0, 82, 0
2, 443904, Note_on_c, 0, 82, 70
2, 444088, Note_on_c, 0, 82, 0
2, 444096, Note_on_c, 0, 81, 70
2, 444280, Note_on_c, 0, 81, 0
2, 444288, Note_on_c, 0, 77, 70
2, 444472, Note_on_c, 0, 77, 0
2, 444480, Note_on_c, 0, 74, 70
2, 444664, Note_on_c, 0, 74, 0
2, 444672, Note_on_c, 0, 71, 70
2, 444856, Note_on_c, 0, 71, 0
2, 444864, Note_on_c, 0, 72, 70
2, 445048, Note_on_c, 0, 72, 0
2, 445056, Note_on_c, 0, 75, 70
2, 445240, Note_on_c, 0, 75, 0
2, 445248, Note_on_c, 0, 79, 70
2, 445432, Note_on_c, 0, 79, 0
2, 445440, Note_on_c, 0, 79, 70
2, 445624, Note_on_c, 0, 79, 0
2, 445632, Note_on_c, 0, 77, 70
2, 445816, Note_on_c, 0, 77, 0
2, 445824, Note_on_c, 0, 74, 70
2, 446008, Note_on_c, 0, 74, 0
2, 446016, Note_on_c, 0, 70, 70
2, 446200, Note_on_c, 0, 70, 0
2, 446208, Note_on_c, 0, 70, 70
2, 446392, Note_on_c, 0, 70, 0
2, 446400, Note_on_c, 0, 69, 70
2, 446584, Note_on_c, 0, 69, 0
2, 446592, Note_on_c, 0, 72, 70
2, 446776, Note_on_c, 0, 72, 0
2, 446784, Note_on_c, 0, 75, 70
2, 446968, Note_on_c, 0, 75, 0
2, 446976, Note_on_c, 0, 74, 70
2, 447064, Note_on_c, 0, 74, 0
2, 447072, Note_on_c, 0, 75, 70
2, 447160, Note_on_c, 0, 75, 0
2, 447168, Note_on_c, 0, 76, 70
2, 447256, Note_on_c, 0, 76, 0
2, 447264, Note_on_c, 0, 77, 70
2, 447352, Note_on_c, 0, 77, 0
2, 447360, Note_on_c, 0, 75, 70
2, 447448, Note_on_c, 0, 75, 0
2, 447456, Note_on_c, 0, 74, 70
2, 447544, Note_on_c, 0, 74, 0
2, 447552, Note_on_c, 0, 72, 70
2, 447640, Note_on_c, 0, 72, 0
2, 447648, Note_on_c, 0, 70, 70
2, 447736, Note_on_c, 0, 70, 0
2, 447744, Note_on_c, 0, 69, 70
2, 447832, Note_on_c, 0, 69, 0
2, 447840, Note_on_c, 0, 70, 70
2, 447928, Note_on_c, 0, 70, 0
2, 447936, Note_on_c, 0, 72, 70
2, 447976, Note_on_c, 0, 72, 0
2, 448032, Note_on_c, 0, 74, 70
2, 448072, Note_on_c, 0, 74, 0
2, 448128, Note_on_c, 0, 75, 70
2, 448168, Note_on_c, 0, 75, 0
2, 448224, Note_on_c, 0, 77, 70
2, 448264, Note_on_c, 0, 77, 0
2, 448320, Note_on_c, 0, 79, 70
2, 448360, Note_on_c, 0, 79, 0
2, 448416, Note_on_c, 0, 81, 70
2, 448456, Note_on_c, 0, 81, 0
2, 448512, Note_on_c, 0, 82, 70
2, 448696, Note_on_c, 0, 82, 0
2, 448896, Note_on_c, 0, 70, 70
2, 449272, Note_on_c, 0, 70, 0
2, 449280, Note_on_c, 0, 70, 70
2, 449464, Note_on_c, 0, 70, 0
2, 449472, Note_on_c, 0, 72, 70
2, 449560, Note_on_c, 0, 72, 0
2, 449568, Note_on_c, 0, 74, 70
2, 449656, Note_on_c, 0, 74, 0
2, 449664, Note_on_c, 0, 72, 70
2, 449752, Note_on_c, 0, 72, 0
2, 449856, Note_on_c, 0, 70, 70
2, 449944, Note_on_c, 0, 70, 0
2, 450048, Note_on_c, 0, 69, 70
2, 450168, Note_on_c, 0, 69, 0
2, 450176, Note_on_c, 0, 72, 70
2, 450296, Note_on_c, 0, 72, 0
2, 450304, Note_on_c, 0, 75, 70
2, 450424, Note_on_c, 0, 75, 0
2, 450432, Note_on_c, 0, 72, 70
2, 450552, Note_on_c, 0, 72, 0
2, 450560, Note_on_c, 0, 69, 70
2, 450680, Note_on_c, 0, 69, 0
2, 450688, Note_on_c, 0, 65, 70
2, 450808, Note_on_c, 0, 65, 0
2, 450816, Note_on_c, 0, 63, 70
2, 451192, Note_on_c, 0, 63, 0
2, 451968, Note_on_c, 0, 58, 82
2, 452344, Note_on_c, 0, 58, 0
2, 452352, Note_on_c, 0, 58, 82
2, 452536, Note_on_c, 0, 58, 0
2, 452544, Note_on_c, 0, 60, 81
2, 452632, Note_on_c, 0, 60, 0
2, 452640, Note_on_c, 0, 62, 80
2, 452728, Note_on_c, 0, 62, 0
2, 452736, Note_on_c, 0, 60, 81
2, 452920, Note_on_c, 0, 60, 0
2, 452928, Note_on_c, 0, 58, 82
2, 453112, Note_on_c, 0, 58, 0
2, 453120, Note_on_c, 0, 57, 83
2, 453208, Note_on_c, 0, 57, 0
2, 453216, Note_on_c, 0, 60, 81
2, 453304, Note_on_c, 0, 60, 0
2, 453312, Note_on_c, 0, 63, 80
2, 453400, Note_on_c, 0, 63, 0
2, 453408, Note_on_c, 0, 60, 80
2, 453496, Note_on_c, 0, 60, 0
2, 453504, Note_on_c, 0, 63, 80
2, 453592, Note_on_c, 0, 63, 0
2, 453600, Note_on_c, 0, 60, 81
2, 453688, Note_on_c, 0, 60, 0
2, 453696, Note_on_c, 0, 57, 82
2, 453784, Note_on_c, 0, 57, 0
2, 453792, Note_on_c, 0, 53, 83
2, 453880, Note_on_c, 0, 53, 0
2, 453888, Note_on_c, 0, 51, 84
2, 454264, Note_on_c, 0, 51, 0
2, 454656, Note_on_c, 0, 58, 81
2, 454744, Note_on_c, 0, 58, 0
2, 454752, Note_on_c, 0, 57, 82
2, 454840, Note_on_c, 0, 57, 0
2, 454848, Note_on_c, 0, 60, 80
2, 454936, Note_on_c, 0, 60, 0
2, 454944, Note_on_c, 0, 58, 81
2, 455032, Note_on_c, 0, 58, 0
2, 455040, Note_on_c, 0, 62, 80
2, 455128, Note_on_c, 0, 62, 0
2, 455136, Note_on_c, 0, 60, 80
2, 455224, Note_on_c, 0, 60, 0
2, 455232, Note_on_c, 0, 58, 80
2, 455320, Note_on_c, 0, 58, 0
2, 455328, Note_on_c, 0, 57, 80
2, 455416, Note_on_c, 0, 57, 0
2, 455424, Note_on_c, 0, 55, 83
2, 455512, Note_on_c, 0, 55, 0
2, 455520, Note_on_c, 0, 54, 84
2, 455608, Note_on_c, 0, 54, 0
2, 455616, Note_on_c, 0, 57, 82
2, 455704, Note_on_c, 0, 57, 0
2, 455712, Note_on_c, 0, 55, 83
2, 455800, Note_on_c, 0, 55, 0
2, 455808, Note_on_c, 0, 58, 81
2, 455992, Note_on_c, 0, 58, 0
2, 456192, Note_on_c, 0, 55, 84
2, 456280, Note_on_c, 0, 55, 0
2, 456288, Note_on_c, 0, 54, 85
2, 456376, Note_on_c, 0, 54, 0
2, 456384, Note_on_c, 0, 57, 83
2, 456472, Note_on_c, 0, 57, 0
2, 456480, Note_on_c, 0, 55, 84
2, 456568, Note_on_c, 0, 55, 0
2, 456576, Note_on_c, 0, 58, 82
2, 456664, Note_on_c, 0, 58, 0
2, 456672, Note_on_c, 0, 57, 83
2, 456760, Note_on_c, 0, 57, 0
2, 456768, Note_on_c, 0, 55, 84
2, 456856, Note_on_c, 0, 55, 0
2, 456864, Note_on_c, 0, 53, 85
2, 456952, Note_on_c, 0, 53, 0
2, 456960, Note_on_c, 0, 51, 86
2, 457048, Note_on_c, 0, 51, 0
2, 457056, Note_on_c, 0, 50, 87
2, 457144, Note_on_c, 0, 50, 0
2, 457152, Note_on_c, 0, 53, 85
2, 457240, Note_on_c, 0, 53, 0
2, 457248, Note_on_c, 0, 51, 86
2, 457336, Note_on_c, 0, 51, 0
2, 457344, Note_on_c, 0, 55, 84
2, 457528, Note_on_c, 0, 55, 0
2, 457728, Note_on_c, 0, 75, 70
2, 457816, Note_on_c, 0, 75, 0
2, 457824, Note_on_c, 0, 74, 70
2, 457912, Note_on_c, 0, 74, 0
2, 457920, Note_on_c, 0, 77, 70
2, 458008, Note_on_c, 0, 77, 0
2, 458016, Note_on_c, 0, 75, 70
2, 458104, Note_on_c, 0, 75, 0
2, 458112, Note_on_c, 0, 79, 70
2, 458200, Note_on_c, 0, 79, 0
2, 458208, Note_on_c, 0, 77, 70
2, 458296, Note_on_c, 0, 77, 0
2, 458304, Note_on_c, 0, 75, 70
2, 458392, Note_on_c, 0, 75, 0
2, 458400, Note_on_c, 0, 74, 70
2, 458488, Note_on_c, 0, 74, 0
2, 458496, Note_on_c, 0, 72, 70
2, 458584, Note_on_c, 0, 72, 0
2, 458592, Note_on_c, 0, 71, 70
2, 458680, Note_on_c, 0, 71, 0
2, 458688, Note_on_c, 0, 74, 70
2, 458776, Note_on_c, 0, 74, 0
2, 458784, Note_on_c, 0, 72, 70
2, 458872, Note_on_c, 0, 72, 0
2, 458880, Note_on_c, 0, 75, 70
2, 458968, Note_on_c, 0, 75, 0
2, 458976, Note_on_c, 0, 74, 70
2, 459064, Note_on_c, 0, 74, 0
2, 459072, Note_on_c, 0, 72, 70
2, 459160, Note_on_c, 0, 72, 0
2, 459168, Note_on_c, 0, 70, 70
2, 459256, Note_on_c, 0, 70, 0
2, 459264, Note_on_c, 0, 69, 70
2, 459352, Note_on_c, 0, 69, 0
2, 459360, Note_on_c, 0, 72, 70
2, 459448, Note_on_c, 0, 72, 0
2, 459456, Note_on_c, 0, 75, 70
2, 459544, Note_on_c, 0, 75, 0
2, 459552, Note_on_c, 0, 72, 70
2, 459640, Note_on_c, 0, 72, 0
2, 459648, Note_on_c, 0, 75, 70
2, 459736, Note_on_c, 0, 75, 0
2, 459744, Note_on_c, 0, 72, 70
2, 459832, Note_on_c, 0, 72, 0
2, 459840, Note_on_c, 0, 69, 70
2, 459928, Note_on_c, 0, 69, 0
2, 459936, Note_on_c, 0, 65, 70
2, 460024, Note_on_c, 0, 65, 0
2, 460032, Note_on_c, 0, 63, 70
2, 460120, Note_on_c, 0, 63, 0
2, 460128, Note_on_c, 0, 60, 72
2, 460216, Note_on_c, 0, 60, 0
2, 460224, Note_on_c, 0, 57, 73
2, 460312, Note_on_c, 0, 57, 0
2, 460320, Note_on_c, 0, 53, 74
2, 460408, Note_on_c, 0, 53, 0
2, 460416, Note_on_c, 0, 51, 75
2, 460504, Note_on_c, 0, 51, 0
2, 460512, Note_on_c, 0, 53, 74
2, 460600, Note_on_c, 0, 53, 0
2, 460608, Note_on_c, 0, 51, 75
2, 460696, Note_on_c, 0, 51, 0
2, 460704, Note_on_c, 0, 53, 74
2, 460792, Note_on_c, 0, 53, 0
2, 460800, Note_on_c, 0, 50, 76
2, 460984, Note_on_c, 0, 50, 0
2, 460992, Note_on_c, 0, 77, 70
2, 461176, Note_on_c, 0, 77, 0
2, 461184, Note_on_c, 0, 75, 70
2, 461368, Note_on_c, 0, 75, 0
2, 461376, Note_on_c, 0, 74, 70
2, 461560, Note_on_c, 0, 74, 0
2, 461568, Note_on_c, 0, 72, 70
2, 461752, Note_on_c, 0, 72, 0
2, 461760, Note_on_c, 0, 70, 70
2, 461944, Note_on_c, 0, 70, 0
2, 461952, Note_on_c, 0, 69, 70
2, 462136, Note_on_c, 0, 69, 0
2, 462144, Note_on_c, 0, 68, 70
2, 462328, Note_on_c, 0, 68, 0
2, 462336, Note_on_c, 0, 67, 70
2, 462424, Note_on_c, 0, 67, 0
2, 462528, Note_on_c, 0, 68, 70
2, 462616, Note_on_c, 0, 68, 0
2, 462720, Note_on_c, 0, 69, 70
2, 462808, Note_on_c, 0, 69, 0
2, 462912, Note_on_c, 0, 70, 70
2, 463000, Note_on_c, 0, 70, 0
2, 463104, Note_on_c, 0, 71, 70
2, 463192, Note_on_c, 0, 71, 0
2, 463296, Note_on_c, 0, 72, 70
2, 463384, Note_on_c, 0, 72, 0
2, 463488, Note_on_c, 0, 74, 70
2, 463576, Note_on_c, 0, 74, 0
2, 463680, Note_on_c, 0, 75, 70
2, 463768, Note_on_c, 0, 75, 0
2, 463872, Note_on_c, 0, 70, 70
2, 464440, Note_on_c, 0, 70, 0
2, 465024, Note_on_c, 0, 74, 70
2, 465208, Note_on_c, 0, 74, 0
2, 465216, Note_on_c, 0, 72, 70
2, 465400, Note_on_c, 0, 72, 0
2, 465408, Note_on_c, 0, 70, 70
2, 465784, Note_on_c, 0, 70, 0
2, 466368, Note_on_c, 0, 74, 70
2, 466456, Note_on_c, 0, 74, 0
2, 466560, Note_on_c, 0, 74, 70
2, 466648, Note_on_c, 0, 74, 0
2, 466752, Note_on_c, 0, 74, 70
2, 466840, Note_on_c, 0, 74, 0
2, 466944, Note_on_c, 0, 74, 70
2, 467512, Note_on_c, 0, 74, 0
2, 467520, Note_on_c, 0, 74, 70
2, 467608, Note_on_c, 0, 74, 0
2, 467712, Note_on_c, 0, 75, 70
2, 467796, Note_on_c, 0, 75, 0
2, 467904, Note_on_c, 0, 76, 70
2, 467992, Note_on_c, 0, 76, 0
2, 468096, Note_on_c, 0, 77, 70
2, 468184, Note_on_c, 0, 77, 0
2, 468288, Note_on_c, 0, 78, 70
2, 468376, Note_on_c, 0, 78, 0
2, 468480, Note_on_c, 0, 78, 70
2, 468664, Note_on_c, 0, 78, 0
2, 468672, Note_on_c, 0, 79, 70
2, 468856, Note_on_c, 0, 79, 0
2, 469440, Note_on_c, 0, 55, 84
2, 469624, Note_on_c, 0, 55, 0
2, 469632, Note_on_c, 0, 53, 85
2, 469816, Note_on_c, 0, 53, 0
2, 469824, Note_on_c, 0, 51, 86
2, 470008, Note_on_c, 0, 51, 0
2, 470016, Note_on_c, 0, 51, 86
2, 470200, Note_on_c, 0, 51, 0
2, 470208, Note_on_c, 0, 50, 87
2, 470392, Note_on_c, 0, 50, 0
2, 470400, Note_on_c, 0, 50, 87
2, 470968, Note_on_c, 0, 50, 0
2, 470976, Note_on_c, 0, 63, 87
2, 471160, Note_on_c, 0, 63, 0
2, 471168, Note_on_c, 0, 62, 81
2, 471352, Note_on_c, 0, 62, 0
2, 471360, Note_on_c, 0, 60, 81
2, 471544, Note_on_c, 0, 60, 0
2, 471552, Note_on_c, 0, 60, 82
2, 471640, Note_on_c, 0, 60, 0
2, 471648, Note_on_c, 0, 58, 83
2, 471736, Note_on_c, 0, 58, 0
2, 471744, Note_on_c, 0, 57, 84
2, 471832, Note_on_c, 0, 57, 0
2, 471840, Note_on_c, 0, 55, 85
2, 471928, Note_on_c, 0, 55, 0
2, 471936, Note_on_c, 0, 55, 84
2, 472312, Note_on_c, 0, 55, 0
2, 472512, Note_on_c, 0, 70, 70
2, 472696, Note_on_c, 0, 70, 0
2, 472704, Note_on_c, 0, 69, 70
2, 472888, Note_on_c, 0, 69, 0
2, 472896, Note_on_c, 0, 67, 70
2, 473080, Note_on_c, 0, 67, 0
2, 473088, Note_on_c, 0, 66, 70
2, 473272, Note_on_c, 0, 66, 0
2, 473280, Note_on_c, 0, 69, 70
2, 473464, Note_on_c, 0, 69, 0
2, 473472, Note_on_c, 0, 72, 70
2, 474040, Note_on_c, 0, 72, 0
2, 474048, Note_on_c, 0, 72, 70
2, 474232, Note_on_c, 0, 72, 0
2, 474240, Note_on_c, 0, 70, 70
2, 474424, Note_on_c, 0, 70, 0
2, 474432, Note_on_c, 0, 69, 70
2, 474616, Note_on_c, 0, 69, 0
2, 474624, Note_on_c, 0, 74, 70
2, 474808, Note_on_c, 0, 74, 0
2, 474816, Note_on_c, 0, 70, 70
2, 475000, Note_on_c, 0, 70, 0
2, 475008, Note_on_c, 0, 67, 70
2, 475384, Note_on_c, 0, 67, 0
2, 475392, Note_on_c, 0, 58, 85
2, 476152, Note_on_c, 0, 58, 0
2, 476160, Note_on_c, 0, 60, 84
2, 476920, Note_on_c, 0, 60, 0
2, 476928, Note_on_c, 0, 62, 81
2, 476968, Note_on_c, 0, 62, 0
2, 476976, Note_on_c, 0, 63, 81
2, 477016, Note_on_c, 0, 63, 0
2, 477024, Note_on_c, 0, 62, 81
2, 477064, Note_on_c, 0, 62, 0
2, 477072, Note_on_c, 0, 63, 81
2, 477112, Note_on_c, 0, 63, 0
2, 477120, Note_on_c, 0, 62, 81
2, 477160, Note_on_c, 0, 62, 0
2, 477168, Note_on_c, 0, 63, 81
2, 477208, Note_on_c, 0, 63, 0
2, 477216, Note_on_c, 0, 62, 81
2, 477256, Note_on_c, 0, 62, 0
2, 477264, Note_on_c, 0, 63, 81
2, 477304, Note_on_c, 0, 63, 0
2, 477312, Note_on_c, 0, 62, 81
2, 477352, Note_on_c, 0, 62, 0
2, 477360, Note_on_c, 0, 63, 81
2, 477400, Note_on_c, 0, 63, 0
2, 477408, Note_on_c, 0, 62, 81
2, 477448, Note_on_c, 0, 62, 0
2, 477456, Note_on_c, 0, 63, 81
2, 477496, Note_on_c, 0, 63, 0
2, 477504, Note_on_c, 0, 60, 82
2, 477592, Note_on_c, 0, 60, 0
2, 477600, Note_on_c, 0, 62, 81
2, 477688, Note_on_c, 0, 62, 0
2, 477696, Note_on_c, 0, 67, 80
2, 478072, Note_on_c, 0, 67, 0
2, 478592, Note_on_c, 0, 67, 70
2, 478680, Note_on_c, 0, 67, 0
2, 478720, Note_on_c, 0, 69, 70
2, 478808, Note_on_c, 0, 69, 0
2, 478848, Note_on_c, 0, 70, 70
2, 478936, Note_on_c, 0, 70, 0
2, 478976, Note_on_c, 0, 72, 70
2, 479064, Note_on_c, 0, 72, 0
2, 479104, Note_on_c, 0, 74, 70
2, 479192, Note_on_c, 0, 74, 0
2, 479232, Note_on_c, 0, 75, 70
2, 479800, Note_on_c, 0, 75, 0
2, 479808, Note_on_c, 0, 72, 70
2, 479992, Note_on_c, 0, 72, 0
2, 480000, Note_on_c, 0, 69, 70
2, 480088, Note_on_c, 0, 69, 0
2, 480128, Note_on_c, 0, 70, 70
2, 480216, Note_on_c, 0, 70, 0
2, 480256, Note_on_c, 0, 71, 70
2, 480344, Note_on_c, 0, 71, 0
2, 480384, Note_on_c, 0, 72, 70
2, 480472, Note_on_c, 0, 72, 0
2, 480512, Note_on_c, 0, 73, 70
2, 480600, Note_on_c, 0, 73, 0
2, 480640, Note_on_c, 0, 74, 70
2, 480728, Note_on_c, 0, 74, 0
2, 480768, Note_on_c, 0, 75, 70
2, 481336, Note_on_c, 0, 75, 0
2, 481344, Note_on_c, 0, 72, 70
2, 481528, Note_on_c, 0, 72, 0
2, 481536, Note_on_c, 0, 69, 70
2, 481624, Note_on_c, 0, 69, 0
2, 481632, Note_on_c, 0, 67, 70
2, 481720, Note_on_c, 0, 67, 0
2, 481728, Note_on_c, 0, 65, 70
2, 481768, Note_on_c, 0, 65, 0
2, 481824, Note_on_c, 0, 67, 70
2, 481864, Note_on_c, 0, 67, 0
2, 481920, Note_on_c, 0, 69, 70
2, 481960, Note_on_c, 0, 69, 0
2, 482016, Note_on_c, 0, 70, 70
2, 482056, Note_on_c, 0, 70, 0
2, 482112, Note_on_c, 0, 72, 70
2, 482152, Note_on_c, 0, 72, 0
2, 482208, Note_on_c, 0, 74, 70
2, 482248, Note_on_c, 0, 74, 0
2, 482304, Note_on_c, 0, 75, 70
2, 482392, Note_on_c, 0, 75, 0
2, 482400, Note_on_c, 0, 72, 70
2, 482488, Note_on_c, 0, 72, 0
2, 482496, Note_on_c, 0, 69, 70
2, 482584, Note_on_c, 0, 69, 0
2, 482592, Note_on_c, 0, 65, 70
2, 482680, Note_on_c, 0, 65, 0
2, 482688, Note_on_c, 0, 63, 71
2, 482776, Note_on_c, 0, 63, 0
2, 482784, Note_on_c, 0, 60, 72
2, 482872, Note_on_c, 0, 60, 0
2, 482880, Note_on_c, 0, 57, 73
2, 482968, Note_on_c, 0, 57, 0
2, 482976, Note_on_c, 0, 53, 74
2, 483064, Note_on_c, 0, 53, 0
2, 483072, Note_on_c, 0, 51, 75
2, 483160, Note_on_c, 0, 51, 0
2, 483168, Note_on_c, 0, 53, 74
2, 483256, Note_on_c, 0, 53, 0
2, 483264, Note_on_c, 0, 57, 73
2, 483352, Note_on_c, 0, 57, 0
2, 483360, Note_on_c, 0, 60, 72
2, 483448, Note_on_c, 0, 60, 0
2, 483456, Note_on_c, 0, 63, 71
2, 483544, Note_on_c, 0, 63, 0
2, 483552, Note_on_c, 0, 65, 70
2, 483640, Note_on_c, 0, 65, 0
2, 483648, Note_on_c, 0, 69, 70
2, 483736, Note_on_c, 0, 69, 0
2, 483744, Note_on_c, 0, 72, 70
2, 483832, Note_on_c, 0, 72, 0
2, 483840, Note_on_c, 0, 75, 70
2, 484408, Note_on_c, 0, 75, 0
2, 484416, Note_on_c, 0, 72, 70
2, 484504, Note_on_c, 0, 72, 0
2, 484608, Note_on_c, 0, 69, 70
2, 484984, Note_on_c, 0, 69, 0
2, 485376, Note_on_c, 0, 77, 70
2, 486136, Note_on_c, 0, 77, 0
2, 486144, Note_on_c, 0, 74, 70
2, 486712, Note_on_c, 0, 74, 0
2, 486720, Note_on_c, 0, 75, 70
2, 486904, Note_on_c, 0, 75, 0
2, 486912, Note_on_c, 0, 79, 70
2, 487096, Note_on_c, 0, 79, 0
2, 487104, Note_on_c, 0, 77, 70
2, 487288, Note_on_c, 0, 77, 0
2, 487296, Note_on_c, 0, 75, 70
2, 487384, Note_on_c, 0, 75, 0
2, 487488, Note_on_c, 0, 74, 70
2, 487576, Note_on_c, 0, 74, 0
2, 487680, Note_on_c, 0, 72, 70
2, 488248, Note_on_c, 0, 72, 0
2, 488256, Note_on_c, 0, 74, 70
2, 488440, Note_on_c, 0, 74, 0
2, 488448, Note_on_c, 0, 77, 70
2, 488632, Note_on_c, 0, 77, 0
2, 488640, Note_on_c, 0, 75, 70
2, 488824, Note_on_c, 0, 75, 0
2, 488832, Note_on_c, 0, 74, 70
2, 488920, Note_on_c, 0, 74, 0
2, 489024, Note_on_c, 0, 72, 70
2, 489112, Note_on_c, 0, 72, 0
2, 489216, Note_on_c, 0, 70, 70
2, 489784, Note_on_c, 0, 70, 0
2, 489792, Note_on_c, 0, 72, 70
2, 489976, Note_on_c, 0, 72, 0
2, 489984, Note_on_c, 0, 74, 70
2, 490168, Note_on_c, 0, 74, 0
2, 490176, Note_on_c, 0, 76, 70
2, 490264, Note_on_c, 0, 76, 0
2, 490272, Note_on_c, 0, 77, 70
2, 490360, Note_on_c, 0, 77, 0
2, 490368, Note_on_c, 0, 76, 70
2, 490456, Note_on_c, 0, 76, 0
2, 490464, Note_on_c, 0, 74, 70
2, 490552, Note_on_c, 0, 74, 0
2, 490560, Note_on_c, 0, 72, 70
2, 490648, Note_on_c, 0, 72, 0
2, 490656, Note_on_c, 0, 70, 70
2, 490744, Note_on_c, 0, 70, 0
2, 490752, Note_on_c, 0, 69, 70
2, 490936, Note_on_c, 0, 69, 0
2, 491136, Note_on_c, 0, 67, 70
2, 491320, Note_on_c, 0, 67, 0
2, 491520, Note_on_c, 0, 65, 70
2, 491704, Note_on_c, 0, 65, 0
2, 491904, Note_on_c, 0, 69, 70
2, 492088, Note_on_c, 0, 69, 0
2, 492480, Note_on_c, 0, 72, 70
2, 492664, Note_on_c, 0, 72, 0
2, 492672, Note_on_c, 0, 74, 70
2, 492856, Note_on_c, 0, 74, 0
2, 492864, Note_on_c, 0, 75, 70
2, 493048, Note_on_c, 0, 75, 0
2, 493056, Note_on_c, 0, 77, 70
2, 493240, Note_on_c, 0, 77, 0
2, 493248, Note_on_c, 0, 81, 70
2, 493336, Note_on_c, 0, 81, 0
2, 493344, Note_on_c, 0, 79, 70
2, 493432, Note_on_c, 0, 79, 0
2, 493440, Note_on_c, 0, 77, 70
2, 493528, Note_on_c, 0, 77, 0
2, 493536, Note_on_c, 0, 75, 70
2, 493624, Note_on_c, 0, 75, 0
2, 493632, Note_on_c, 0, 74, 70
2, 493720, Note_on_c, 0, 74, 0
2, 493728, Note_on_c, 0, 72, 70
2, 493816, Note_on_c, 0, 72, 0
2, 493824, Note_on_c, 0, 72, 70
2, 494008, Note_on_c, 0, 72, 0
2, 494016, Note_on_c, 0, 70, 70
2, 494200, Note_on_c, 0, 70, 0
2, 494208, Note_on_c, 0, 70, 70
2, 494392, Note_on_c, 0, 70, 0
2, 494400, Note_on_c, 0, 69, 70
2, 494584, Note_on_c, 0, 69, 0
2, 494592, Note_on_c, 0, 70, 70
2, 494968, Note_on_c, 0, 70, 0
2, 497664, Note_on_c, 0, 58, 83
2, 497752, Note_on_c, 0, 58, 0
2, 497760, Note_on_c, 0, 65, 80
2, 497848, Note_on_c, 0, 65, 0
2, 497856, Note_on_c, 0, 62, 80
2, 497944, Note_on_c, 0, 62, 0
2, 497952, Note_on_c, 0, 65, 80
2, 498040, Note_on_c, 0, 65, 0
2, 498048, Note_on_c, 0, 60, 83
2, 498136, Note_on_c, 0, 60, 0
2, 498144, Note_on_c, 0, 65, 80
2, 498232, Note_on_c, 0, 65, 0
2, 498240, Note_on_c, 0, 63, 81
2, 498328, Note_on_c, 0, 63, 0
2, 498336, Note_on_c, 0, 65, 80
2, 498424, Note_on_c, 0, 65, 0
2, 498432, Note_on_c, 0, 58, 84
2, 498520, Note_on_c, 0, 58, 0
2, 498528, Note_on_c, 0, 65, 80
2, 498616, Note_on_c, 0, 65, 0
2, 498624, Note_on_c, 0, 62, 82
2, 498712, Note_on_c, 0, 62, 0
2, 498720, Note_on_c, 0, 65, 80
2, 498808, Note_on_c, 0, 65, 0
2, 498816, Note_on_c, 0, 53, 85
2, 498904, Note_on_c, 0, 53, 0
2, 498912, Note_on_c, 0, 65, 80
2, 499000, Note_on_c, 0, 65, 0
2, 499008, Note_on_c, 0, 60, 82
2, 499096, Note_on_c, 0, 60, 0
2, 499104, Note_on_c, 0, 65, 80
2, 499192, Note_on_c, 0, 65, 0
2, 499200, Note_on_c, 0, 58, 83
2, 499288, Note_on_c, 0, 58, 0
2, 499296, Note_on_c, 0, 65, 80
2, 499384, Note_on_c, 0, 65, 0
2, 499392, Note_on_c, 0, 62, 81
2, 499480, Note_on_c, 0, 62, 0
2, 499488, Note_on_c, 0, 65, 80
2, 499576, Note_on_c, 0, 65, 0
2, 499584, Note_on_c, 0, 53, 86
2, 499672, Note_on_c, 0, 53, 0
2, 499680, Note_on_c, 0, 65, 80
2, 499768, Note_on_c, 0, 65, 0
2, 499776, Note_on_c, 0, 60, 82
2, 499864, Note_on_c, 0, 60, 0
2, 499872, Note_on_c, 0, 65, 80
2, 499960, Note_on_c, 0, 65, 0
2, 499968, Note_on_c, 0, 60, 83
2, 500056, Note_on_c, 0, 60, 0
2, 500064, Note_on_c, 0, 65, 80
2, 500152, Note_on_c, 0, 65, 0
2, 500160, Note_on_c, 0, 62, 81
2, 500248, Note_on_c, 0, 62, 0
2, 500256, Note_on_c, 0, 65, 80
2, 500344, Note_on_c, 0, 65, 0
2, 500352, Note_on_c, 0, 53, 86
2, 500440, Note_on_c, 0, 53, 0
2, 500448, Note_on_c, 0, 65, 80
2, 500536, Note_on_c, 0, 65, 0
2, 500544, Note_on_c, 0, 60, 82
2, 500632, Note_on_c, 0, 60, 0
2, 500640, Note_on_c, 0, 65, 80
2, 500728, Note_on_c, 0, 65, 0
2, 500736, Note_on_c, 0, 58, 83
2, 500824, Note_on_c, 0, 58, 0
2, 500832, Note_on_c, 0, 62, 82
2, 500920, Note_on_c, 0, 62, 0
2, 500928, Note_on_c, 0, 65, 81
2, 501016, Note_on_c, 0, 65, 0
2, 501024, Note_on_c, 0, 70, 80
2, 501112, Note_on_c, 0, 70, 0
2, 501120, Note_on_c, 0, 62, 82
2, 501208, Note_on_c, 0, 62, 0
2, 501216, Note_on_c, 0, 65, 81
2, 501304, Note_on_c, 0, 65, 0
2, 501312, Note_on_c, 0, 70, 80
2, 501400, Note_on_c, 0, 70, 0
2, 501408, Note_on_c, 0, 74, 80
2, 501496, Note_on_c, 0, 74, 0
2, 501504, Note_on_c, 0, 77, 80
2, 501592, Note_on_c, 0, 77, 0
2, 501600, Note_on_c, 0, 82, 80
2, 501688, Note_on_c, 0, 82, 0
2, 501696, Note_on_c, 0, 77, 80
2, 501784, Note_on_c, 0, 77, 0
2, 501792, Note_on_c, 0, 74, 80
2, 501880, Note_on_c, 0, 74, 0
2, 501888, Note_on_c, 0, 70, 80
2, 501976, Note_on_c, 0, 70, 0
2, 501984, Note_on_c, 0, 65, 80
2, 502072, Note_on_c, 0, 65, 0
2, 502080, Note_on_c, 0, 62, 82
2, 502168, Note_on_c, 0, 62, 0
2, 502176, Note_on_c, 0, 58, 83
2, 502264, Note_on_c, 0, 58, 0
2, 502272, Note_on_c, 0, 51, 85
2, 502360, Note_on_c, 0, 51, 0
2, 502368, Note_on_c, 0, 55, 84
2, 502456, Note_on_c, 0, 55, 0
2, 502464, Note_on_c, 0, 58, 83
2, 502552, Note_on_c, 0, 58, 0
2, 502560, Note_on_c, 0, 63, 82
2, 502648, Note_on_c, 0, 63, 0
2, 502656, Note_on_c, 0, 67, 81
2, 502744, Note_on_c, 0, 67, 0
2, 502752, Note_on_c, 0, 70, 80
2, 502840, Note_on_c, 0, 70, 0
2, 502848, Note_on_c, 0, 75, 80
2, 502936, Note_on_c, 0, 75, 0
2, 502944, Note_on_c, 0, 79, 80
2, 503032, Note_on_c, 0, 79, 0
2, 503040, Note_on_c, 0, 82, 80
2, 503128, Note_on_c, 0, 82, 0
2, 503136, Note_on_c, 0, 79, 80
2, 503224, Note_on_c, 0, 79, 0
2, 503232, Note_on_c, 0, 75, 80
2, 503320, Note_on_c, 0, 75, 0
2, 503328, Note_on_c, 0, 70, 80
2, 503416, Note_on_c, 0, 70, 0
2, 503424, Note_on_c, 0, 67, 80
2, 503512, Note_on_c, 0, 67, 0
2, 503520, Note_on_c, 0, 63, 80
2, 503608, Note_on_c, 0, 63, 0
2, 503616, Note_on_c, 0, 58, 82
2, 503704, Note_on_c, 0, 58, 0
2, 503712, Note_on_c, 0, 55, 84
2, 503800, Note_on_c, 0, 55, 0
2, 503808, Note_on_c, 0, 53, 84
2, 503896, Note_on_c, 0, 53, 0
2, 503904, Note_on_c, 0, 58, 82
2, 503992, Note_on_c, 0, 58, 0
2, 504000, Note_on_c, 0, 62, 81
2, 504088, Note_on_c, 0, 62, 0
2, 504096, Note_on_c, 0, 65, 80
2, 504184, Note_on_c, 0, 65, 0
2, 504192, Note_on_c, 0, 70, 80
2, 504280, Note_on_c, 0, 70, 0
2, 504288, Note_on_c, 0, 65, 80
2, 504376, Note_on_c, 0, 65, 0
2, 504384, Note_on_c, 0, 62, 80
2, 504472, Note_on_c, 0, 62, 0
2, 504480, Note_on_c, 0, 58, 82
2, 504568, Note_on_c, 0, 58, 0
2, 504576, Note_on_c, 0, 53, 84
2, 504952, Note_on_c, 0, 53, 0
2, 505344, Note_on_c, 0, 58, 93
2, 505528, Note_on_c, 0, 58, 0
2, 505536, Note_on_c, 0, 60, 92
2, 505576, Note_on_c, 0, 60, 0
2, 505632, Note_on_c, 0, 62, 91
2, 505672, Note_on_c, 0, 62, 0
2, 505728, Note_on_c, 0, 63, 90
2, 505768, Note_on_c, 0, 63, 0
2, 505824, Note_on_c, 0, 65, 90
2, 505864, Note_on_c, 0, 65, 0
2, 505920, Note_on_c, 0, 67, 90
2, 505960, Note_on_c, 0, 67, 0
2, 506016, Note_on_c, 0, 69, 90
2, 506056, Note_on_c, 0, 69, 0
2, 506112, Note_on_c, 0, 70, 90
2, 506152, Note_on_c, 0, 70, 0
2, 506208, Note_on_c, 0, 72, 90
2, 506248, Note_on_c, 0, 72, 0
2, 506304, Note_on_c, 0, 74, 90
2, 506344, Note_on_c, 0, 74, 0
2, 506400, Note_on_c, 0, 75, 90
2, 506440, Note_on_c, 0, 75, 0
2, 506496, Note_on_c, 0, 77, 90
2, 506536, Note_on_c, 0, 77, 0
2, 506592, Note_on_c, 0, 79, 90
2, 506632, Note_on_c, 0, 79, 0
2, 506688, Note_on_c, 0, 81, 90
2, 506728, Note_on_c, 0, 81, 0
2, 506784, Note_on_c, 0, 82, 90
2, 506824, Note_on_c, 0, 82, 0
2, 506880, Note_on_c, 0, 82, 90
2, 506968, Note_on_c, 0, 82, 0
2, 506992, Note_on_c, 0, 81, 90
2, 507072, Note_on_c, 0, 77, 90
2, 507080, Note_on_c, 0, 81, 0
2, 507160, Note_on_c, 0, 77, 0
2, 507168, Note_on_c, 0, 74, 90
2, 507256, Note_on_c, 0, 74, 0
2, 507264, Note_on_c, 0, 70, 90
2, 507352, Note_on_c, 0, 70, 0
2, 507360, Note_on_c, 0, 69, 90
2, 507448, Note_on_c, 0, 69, 0
2, 507456, Note_on_c, 0, 65, 90
2, 507544, Note_on_c, 0, 65, 0
2, 507552, Note_on_c, 0, 62, 91
2, 507640, Note_on_c, 0, 62, 0
2, 507648, Note_on_c, 0, 58, 92
2, 507736, Note_on_c, 0, 58, 0
2, 507744, Note_on_c, 0, 62, 91
2, 507832, Note_on_c, 0, 62, 0
2, 507840, Note_on_c, 0, 65, 90
2, 507928, Note_on_c, 0, 65, 0
2, 507936, Note_on_c, 0, 69, 90
2, 508024, Note_on_c, 0, 69, 0
2, 508032, Note_on_c, 0, 70, 90
2, 508120, Note_on_c, 0, 70, 0
2, 508128, Note_on_c, 0, 74, 90
2, 508216, Note_on_c, 0, 74, 0
2, 508224, Note_on_c, 0, 77, 90
2, 508312, Note_on_c, 0, 77, 0
2, 508320, Note_on_c, 0, 81, 90
2, 508408, Note_on_c, 0, 81, 0
2, 508416, Note_on_c, 0, 79, 80
2, 508504, Note_on_c, 0, 79, 0
2, 508512, Note_on_c, 0, 82, 80
2, 508600, Note_on_c, 0, 82, 0
2, 508608, Note_on_c, 0, 79, 80
2, 508696, Note_on_c, 0, 79, 0
2, 508704, Note_on_c, 0, 75, 80
2, 508792, Note_on_c, 0, 75, 0
2, 508800, Note_on_c, 0, 74, 80
2, 508888, Note_on_c, 0, 74, 0
2, 508896, Note_on_c, 0, 77, 80
2, 508984, Note_on_c, 0, 77, 0
2, 508992, Note_on_c, 0, 74, 80
2, 509080, Note_on_c, 0, 74, 0
2, 509088, Note_on_c, 0, 70, 80
2, 509176, Note_on_c, 0, 70, 0
2, 509184, Note_on_c, 0, 79, 80
2, 509272, Note_on_c, 0, 79, 0
2, 509280, Note_on_c, 0, 82, 80
2, 509368, Note_on_c, 0, 82, 0
2, 509376, Note_on_c, 0, 79, 80
2, 509464, Note_on_c, 0, 79, 0
2, 509472, Note_on_c, 0, 75, 80
2, 509560, Note_on_c, 0, 75, 0
2, 509568, Note_on_c, 0, 74, 80
2, 509656, Note_on_c, 0, 74, 0
2, 509664, Note_on_c, 0, 77, 80
2, 509752, Note_on_c, 0, 77, 0
2, 509760, Note_on_c, 0, 74, 80
2, 509848, Note_on_c, 0, 74, 0
2, 509856, Note_on_c, 0, 70, 80
2, 509944, Note_on_c, 0, 70, 0
2, 509952, Note_on_c, 0, 67, 80
2, 510040, Note_on_c, 0, 67, 0
2, 510048, Note_on_c, 0, 70, 80
2, 510136, Note_on_c, 0, 70, 0
2, 510144, Note_on_c, 0, 67, 80
2, 510232, Note_on_c, 0, 67, 0
2, 510240, Note_on_c, 0, 63, 80
2, 510328, Note_on_c, 0, 63, 0
2, 510336, Note_on_c, 0, 62, 80
2, 510424, Note_on_c, 0, 62, 0
2, 510432, Note_on_c, 0, 65, 80
2, 510520, Note_on_c, 0, 65, 0
2, 510528, Note_on_c, 0, 62, 81
2, 510616, Note_on_c, 0, 62, 0
2, 510624, Note_on_c, 0, 58, 83
2, 510712, Note_on_c, 0, 58, 0
2, 510720, Note_on_c, 0, 67, 80
2, 510808, Note_on_c, 0, 67, 0
2, 510816, Note_on_c, 0, 70, 80
2, 510904, Note_on_c, 0, 70, 0
2, 510912, Note_on_c, 0, 67, 80
2, 511000, Note_on_c, 0, 67, 0
2, 511008, Note_on_c, 0, 63, 80
2, 511096, Note_on_c, 0, 63, 0
2, 511104, Note_on_c, 0, 62, 80
2, 511192, Note_on_c, 0, 62, 0
2, 511200, Note_on_c, 0, 65, 80
2, 511288, Note_on_c, 0, 65, 0
2, 511296, Note_on_c, 0, 62, 81
2, 511384, Note_on_c, 0, 62, 0
2, 511392, Note_on_c, 0, 58, 83
2, 511480, Note_on_c, 0, 58, 0
2, 511488, Note_on_c, 0, 67, 80
2, 511576, Note_on_c, 0, 67, 0
2, 511584, Note_on_c, 0, 70, 80
2, 511672, Note_on_c, 0, 70, 0
2, 511680, Note_on_c, 0, 67, 80
2, 511768, Note_on_c, 0, 67, 0
2, 511776, Note_on_c, 0, 63, 80
2, 511864, Note_on_c, 0, 63, 0
2, 511872, Note_on_c, 0, 62, 81
2, 511960, Note_on_c, 0, 62, 0
2, 511968, Note_on_c, 0, 65, 80
2, 512056, Note_on_c, 0, 65, 0
2, 512064, Note_on_c, 0, 62, 81
2, 512152, Note_on_c, 0, 62, 0
2, 512160, Note_on_c, 0, 58, 82
2, 512248, Note_on_c, 0, 58, 0
2, 512256, Note_on_c, 0, 67, 80
2, 512344, Note_on_c, 0, 67, 0
2, 512352, Note_on_c, 0, 70, 80
2, 512440, Note_on_c, 0, 70, 0
2, 512448, Note_on_c, 0, 67, 80
2, 512536, Note_on_c, 0, 67, 0
2, 512544, Note_on_c, 0, 63, 80
2, 512632, Note_on_c, 0, 63, 0
2, 512640, Note_on_c, 0, 62, 80
2, 512728, Note_on_c, 0, 62, 0
2, 512736, Note_on_c, 0, 65, 80
2, 512824, Note_on_c, 0, 65, 0
2, 512832, Note_on_c, 0, 62, 80
2, 512920, Note_on_c, 0, 62, 0
2, 512928, Note_on_c, 0, 58, 80
2, 513016, Note_on_c, 0, 58, 0
2, 513024, Note_on_c, 0, 51, 94
2, 513208, Note_on_c, 0, 51, 0
2, 513216, Note_on_c, 0, 55, 93
2, 513304, Note_on_c, 0, 55, 0
2, 513312, Note_on_c, 0, 58, 92
2, 513400, Note_on_c, 0, 58, 0
2, 513408, Note_on_c, 0, 63, 91
2, 513496, Note_on_c, 0, 63, 0
2, 513504, Note_on_c, 0, 67, 90
2, 513592, Note_on_c, 0, 67, 0
2, 513600, Note_on_c, 0, 70, 90
2, 513688, Note_on_c, 0, 70, 0
2, 513696, Note_on_c, 0, 75, 90
2, 513784, Note_on_c, 0, 75, 0
2, 513792, Note_on_c, 0, 79, 90
2, 514168, Note_on_c, 0, 79, 0
2, 514560, Note_on_c, 0, 53, 94
2, 514744, Note_on_c, 0, 53, 0
2, 514752, Note_on_c, 0, 57, 93
2, 514840, Note_on_c, 0, 57, 0
2, 514848, Note_on_c, 0, 60, 92
2, 514936, Note_on_c, 0, 60, 0
2, 514944, Note_on_c, 0, 65, 91
2, 515032, Note_on_c, 0, 65, 0
2, 515040, Note_on_c, 0, 69, 90
2, 515128, Note_on_c, 0, 69, 0
2, 515136, Note_on_c, 0, 72, 90
2, 515224, Note_on_c, 0, 72, 0
2, 515232, Note_on_c, 0, 77, 90
2, 515320, Note_on_c, 0, 77, 0
2, 515328, Note_on_c, 0, 81, 90
2, 515704, Note_on_c, 0, 81, 0
2, 516096, Note_on_c, 0, 55, 94
2, 516184, Note_on_c, 0, 55, 0
2, 516192, Note_on_c, 0, 58, 93
2, 516280, Note_on_c, 0, 58, 0
2, 516288, Note_on_c, 0, 64, 92
2, 516376, Note_on_c, 0, 64, 0
2, 516384, Note_on_c, 0, 67, 91
2, 516472, Note_on_c, 0, 67, 0
2, 516480, Note_on_c, 0, 70, 90
2, 516568, Note_on_c, 0, 70, 0
2, 516576, Note_on_c, 0, 73, 90
2, 516664, Note_on_c, 0, 73, 0
2, 516672, Note_on_c, 0, 76, 90
2, 516760, Note_on_c, 0, 76, 0
2, 516768, Note_on_c, 0, 79, 90
2, 516856, Note_on_c, 0, 79, 0
2, 516864, Note_on_c, 0, 82, 90
2, 517240, Note_on_c, 0, 82, 0
2, 517632, Note_on_c, 0, 58, 90
2, 517720, Note_on_c, 0, 58, 0
2, 517728, Note_on_c, 0, 62, 90
2, 517816, Note_on_c, 0, 62, 0
2, 517824, Note_on_c, 0, 65, 90
2, 517912, Note_on_c, 0, 65, 0
2, 517920, Note_on_c, 0, 70, 90
2, 518008, Note_on_c, 0, 70, 0
2, 518016, Note_on_c, 0, 74, 90
2, 518104, Note_on_c, 0, 74, 0
2, 518112, Note_on_c, 0, 70, 90
2, 518200, Note_on_c, 0, 70, 0
2, 518208, Note_on_c, 0, 65, 90
2, 518296, Note_on_c, 0, 65, 0
2, 518304, Note_on_c, 0, 62, 90
2, 518392, Note_on_c, 0, 62, 0
2, 518400, Note_on_c, 0, 53, 94
2, 518488, Note_on_c, 0, 53, 0
2, 518496, Note_on_c, 0, 58, 93
2, 518584, Note_on_c, 0, 58, 0
2, 518592, Note_on_c, 0, 62, 92
2, 518680, Note_on_c, 0, 62, 0
2, 518688, Note_on_c, 0, 65, 91
2, 518776, Note_on_c, 0, 65, 0
2, 518784, Note_on_c, 0, 70, 90
2, 518872, Note_on_c, 0, 70, 0
2, 518880, Note_on_c, 0, 65, 90
2, 518968, Note_on_c, 0, 65, 0
2, 518976, Note_on_c, 0, 62, 91
2, 519064, Note_on_c, 0, 62, 0
2, 519072, Note_on_c, 0, 58, 92
2, 519160, Note_on_c, 0, 58, 0
2, 519168, Note_on_c, 0, 62, 91
2, 519256, Note_on_c, 0, 62, 0
2, 519264, Note_on_c, 0, 65, 90
2, 519352, Note_on_c, 0, 65, 0
2, 519360, Note_on_c, 0, 70, 90
2, 519448, Note_on_c, 0, 70, 0
2, 519456, Note_on_c, 0, 74, 90
2, 519544, Note_on_c, 0, 74, 0
2, 519552, Note_on_c, 0, 77, 90
2, 519640, Note_on_c, 0, 77, 0
2, 519648, Note_on_c, 0, 74, 90
2, 519736, Note_on_c, 0, 74, 0
2, 519744, Note_on_c, 0, 70, 90
2, 519832, Note_on_c, 0, 70, 0
2, 519840, Note_on_c, 0, 65, 90
2, 519928, Note_on_c, 0, 65, 0
2, 519936, Note_on_c, 0, 70, 90
2, 520024, Note_on_c, 0, 70, 0
2, 520032, Note_on_c, 0, 74, 90
2, 520120, Note_on_c, 0, 74, 0
2, 520128, Note_on_c, 0, 77, 90
2, 520216, Note_on_c, 0, 77, 0
2, 520224, Note_on_c, 0, 82, 90
2, 520312, Note_on_c, 0, 82, 0
2, 520320, Note_on_c, 0, 86, 90
2, 520504, Note_on_c, 0, 86, 0
2, 520896, Note_on_c, 0, 82, 90
2, 520984, Note_on_c, 0, 82, 0
2, 520992, Note_on_c, 0, 81, 90
2, 521080, Note_on_c, 0, 81, 0
2, 521088, Note_on_c, 0, 82, 90
2, 521176, Note_on_c, 0, 82, 0
2, 521184, Note_on_c, 0, 81, 90
2, 521272, Note_on_c, 0, 81, 0
2, 521280, Note_on_c, 0, 82, 90
2, 521368, Note_on_c, 0, 82, 0
2, 521376, Note_on_c, 0, 81, 90
2, 521464, Note_on_c, 0, 81, 0
2, 521472, Note_on_c, 0, 82, 90
2, 521560, Note_on_c, 0, 82, 0
2, 521664, Note_on_c, 0, 77, 90
2, 521752, Note_on_c, 0, 77, 0
2, 521760, Note_on_c, 0, 76, 90
2, 521848, Note_on_c, 0, 76, 0
2, 521856, Note_on_c, 0, 77, 90
2, 521944, Note_on_c, 0, 77, 0
2, 521952, Note_on_c, 0, 76, 90
2, 522040, Note_on_c, 0, 76, 0
2, 522048, Note_on_c, 0, 77, 90
2, 522136, Note_on_c, 0, 77, 0
2, 522144, Note_on_c, 0, 76, 90
2, 522232, Note_on_c, 0, 76, 0
2, 522240, Note_on_c, 0, 77, 90
2, 522328, Note_on_c, 0, 77, 0
2, 522432, Note_on_c, 0, 74, 90
2, 522520, Note_on_c, 0, 74, 0
2, 522528, Note_on_c, 0, 73, 90
2, 522616, Note_on_c, 0, 73, 0
2, 522624, Note_on_c, 0, 74, 90
2, 522712, Note_on_c, 0, 74, 0
2, 522720, Note_on_c, 0, 73, 90
2, 522808, Note_on_c, 0, 73, 0
2, 522816, Note_on_c, 0, 74, 90
2, 522904, Note_on_c, 0, 74, 0
2, 522912, Note_on_c, 0, 73, 90
2, 523000, Note_on_c, 0, 73, 0
2, 523008, Note_on_c, 0, 74, 90
2, 523096, Note_on_c, 0, 74, 0
2, 523200, Note_on_c, 0, 70, 90
2, 523288, Note_on_c, 0, 70, 0
2, 523296, Note_on_c, 0, 69, 90
2, 523384, Note_on_c, 0, 69, 0
2, 523392, Note_on_c, 0, 70, 90
2, 523480, Note_on_c, 0, 70, 0
2, 523488, Note_on_c, 0, 69, 90
2, 523576, Note_on_c, 0, 69, 0
2, 523584, Note_on_c, 0, 70, 90
2, 523672, Note_on_c, 0, 70, 0
2, 523680, Note_on_c, 0, 69, 90
2, 523768, Note_on_c, 0, 69, 0
2, 523776, Note_on_c, 0, 70, 90
2, 523864, Note_on_c, 0, 70, 0
2, 523872, Note_on_c, 0, 65, 90
2, 523960, Note_on_c, 0, 65, 0
2, 523968, Note_on_c, 0, 67, 90
2, 524056, Note_on_c, 0, 67, 0
2, 524064, Note_on_c, 0, 69, 90
2, 524152, Note_on_c, 0, 69, 0
2, 524160, Note_on_c, 0, 70, 90
2, 524248, Note_on_c, 0, 70, 0
2, 524256, Note_on_c, 0, 72, 90
2, 524344, Note_on_c, 0, 72, 0
2, 524352, Note_on_c, 0, 73, 90
2, 524440, Note_on_c, 0, 73, 0
2, 524448, Note_on_c, 0, 74, 90
2, 524536, Note_on_c, 0, 74, 0
2, 524544, Note_on_c, 0, 75, 90
2, 524632, Note_on_c, 0, 75, 0
2, 524640, Note_on_c, 0, 76, 90
2, 524728, Note_on_c, 0, 76, 0
2, 524736, Note_on_c, 0, 77, 90
2, 524824, Note_on_c, 0, 77, 0
2, 524832, Note_on_c, 0, 78, 90
2, 524920, Note_on_c, 0, 78, 0
2, 524928, Note_on_c, 0, 79, 90
2, 525016, Note_on_c, 0, 79, 0
2, 525024, Note_on_c, 0, 80, 90
2, 525112, Note_on_c, 0, 80, 0
2, 525120, Note_on_c, 0, 81, 90
2, 525208, Note_on_c, 0, 81, 0
2, 525216, Note_on_c, 0, 82, 90
2, 525304, Note_on_c, 0, 82, 0
2, 525312, Note_on_c, 0, 72, 90
2, 525352, Note_on_c, 0, 72, 0
2, 525360, Note_on_c, 0, 74, 90
2, 525400, Note_on_c, 0, 74, 0
2, 525408, Note_on_c, 0, 72, 90
2, 525448, Note_on_c, 0, 72, 0
2, 525456, Note_on_c, 0, 74, 90
2, 525496, Note_on_c, 0, 74, 0
2, 525504, Note_on_c, 0, 72, 90
2, 525544, Note_on_c, 0, 72, 0
2, 525552, Note_on_c, 0, 74, 90
2, 525592, Note_on_c, 0, 74, 0
2, 525600, Note_on_c, 0, 72, 90
2, 525640, Note_on_c, 0, 72, 0
2, 525648, Note_on_c, 0, 74, 90
2, 525688, Note_on_c, 0, 74, 0
2, 525696, Note_on_c, 0, 72, 90
2, 525736, Note_on_c, 0, 72, 0
2, 525744, Note_on_c, 0, 74, 90
2, 525784, Note_on_c, 0, 74, 0
2, 525792, Note_on_c, 0, 72, 90
2, 525832, Note_on_c, 0, 72, 0
2, 525840, Note_on_c, 0, 74, 90
2, 525880, Note_on_c, 0, 74, 0
2, 525888, Note_on_c, 0, 72, 90
2, 525928, Note_on_c, 0, 72, 0
2, 525936, Note_on_c, 0, 74, 90
2, 525976, Note_on_c, 0, 74, 0
2, 525984, Note_on_c, 0, 72, 90
2, 526024, Note_on_c, 0, 72, 0
2, 526032, Note_on_c, 0, 74, 90
2, 526072, Note_on_c, 0, 74, 0
2, 526080, Note_on_c, 0, 72, 90
2, 526120, Note_on_c, 0, 72, 0
2, 526128, Note_on_c, 0, 74, 90
2, 526168, Note_on_c, 0, 74, 0
2, 526176, Note_on_c, 0, 72, 90
2, 526216, Note_on_c, 0, 72, 0
2, 526224, Note_on_c, 0, 74, 90
2, 526264, Note_on_c, 0, 74, 0
2, 526272, Note_on_c, 0, 72, 90
2, 526312, Note_on_c, 0, 72, 0
2, 526320, Note_on_c, 0, 74, 90
2, 526360, Note_on_c, 0, 74, 0
2, 526368, Note_on_c, 0, 72, 90
2, 526408, Note_on_c, 0, 72, 0
2, 526416, Note_on_c, 0, 74, 90
2, 526456, Note_on_c, 0, 74, 0
2, 526464, Note_on_c, 0, 72, 90
2, 526504, Note_on_c, 0, 72, 0
2, 526512, Note_on_c, 0, 74, 90
2, 526552, Note_on_c, 0, 74, 0
2, 526560, Note_on_c, 0, 72, 90
2, 526600, Note_on_c, 0, 72, 0
2, 526608, Note_on_c, 0, 74, 90
2, 526648, Note_on_c, 0, 74, 0
2, 526656, Note_on_c, 0, 70, 90
2, 526744, Note_on_c, 0, 70, 0
2, 526752, Note_on_c, 0, 72, 90
2, 526840, Note_on_c, 0, 72, 0
2, 526848, Note_on_c, 0, 70, 90
2, 527224, Note_on_c, 0, 70, 0
2, 527224, End_track
3, 0, Start_track
3, 0, MIDI_port, 0
3, 0, Title_t, "Concerto - 1791"
3, 0, Control_c, 1, 0, 0
3, 0, Control_c, 1, 32, 0
3, 0, Program_c, 1, 48
3, 0, Control_c, 1, 7, 94
3, 0, Control_c, 1, 10, 33
3, 0, Control_c, 1, 91, 67
3, 0, Control_c, 1, 93, 52
3, 0, Control_c, 1, 121, 0
3, 96, Control_c, 1, 10, 43
3, 192, Control_c, 1, 91, 63
3, 240, Control_c, 1, 93, 40
3, 288, Program_c, 1, 48
3, 1536, Note_on_c, 1, 77, 80
3, 1536, Note_on_c, 1, 74, 80
3, 2296, Note_on_c, 1, 74, 0
3, 2296, Note_on_c, 1, 77, 0
3, 2304, Note_on_c, 1, 74, 80
3, 2304, Note_on_c, 1, 70, 80
3, 2872, Note_on_c, 1, 70, 0
3, 2872, Note_on_c, 1, 74, 0
3, 2880, Note_on_c, 1, 75, 80
3, 2880, Note_on_c, 1, 72, 80
3, 3064, Note_on_c, 1, 72, 0
3, 3064, Note_on_c, 1, 75, 0
3, 3072, Note_on_c, 1, 79, 85
3, 3072, Note_on_c, 1, 75, 85
3, 3256, Note_on_c, 1, 75, 0
3, 3256, Note_on_c, 1, 79, 0
3, 3264, Note_on_c, 1, 77, 80
3, 3264, Note_on_c, 1, 74, 80
3, 3448, Note_on_c, 1, 74, 0
3, 3448, Note_on_c, 1, 77, 0
3, 3456, Note_on_c, 1, 75, 80
3, 3456, Note_on_c, 1, 72, 80
3, 3544, Note_on_c, 1, 72, 0
3, 3544, Note_on_c, 1, 75, 0
3, 3648, Note_on_c, 1, 74, 80
3, 3648, Note_on_c, 1, 70, 80
3, 3736, Note_on_c, 1, 70, 0
3, 3736, Note_on_c, 1, 74, 0
3, 3840, Note_on_c, 1, 74, 80
3, 3840, Note_on_c, 1, 70, 80
3, 4216, Note_on_c, 1, 70, 0
3, 4216, Note_on_c, 1, 74, 0
3, 4608, Note_on_c, 1, 75, 80
3, 4608, Note_on_c, 1, 67, 80
3, 4984, Note_on_c, 1, 67, 0
3, 4984, Note_on_c, 1, 75, 0
3, 4992, Note_on_c, 1, 72, 80
3, 5176, Note_on_c, 1, 72, 0
3, 5376, Note_on_c, 1, 75, 80
3, 5376, Note_on_c, 1, 67, 80
3, 5752, Note_on_c, 1, 67, 0
3, 5752, Note_on_c, 1, 75, 0
3, 5760, Note_on_c, 1, 72, 80
3, 5944, Note_on_c, 1, 72, 0
3, 6144, Note_on_c, 1, 70, 80
3, 6144, Note_on_c, 1, 62, 80
3, 6904, Note_on_c, 1, 62, 0
3, 6904, Note_on_c, 1, 70, 0
3, 6912, Note_on_c, 1, 69, 80
3, 6912, Note_on_c, 1, 60, 80
3, 7096, Note_on_c, 1, 60, 0
3, 7096, Note_on_c, 1, 69, 0
3, 7680, Note_on_c, 1, 70, 80
3, 8632, Note_on_c, 1, 70, 0
3, 8640, Note_on_c, 1, 69, 80
3, 8824, Note_on_c, 1, 69, 0
3, 8832, Note_on_c, 1, 70, 80
3, 9016, Note_on_c, 1, 70, 0
3, 9024, Note_on_c, 1, 67, 80
3, 9208, Note_on_c, 1, 67, 0
3, 9216, Note_on_c, 1, 65, 80
3, 9400, Note_on_c, 1, 65, 0
3, 9408, Note_on_c, 1, 75, 80
3, 9592, Note_on_c, 1, 75, 0
3, 9600, Note_on_c, 1, 75, 80
3, 10168, Note_on_c, 1, 75, 0
3, 10176, Note_on_c, 1, 74, 80
3, 10360, Note_on_c, 1, 74, 0
3, 10368, Note_on_c, 1, 75, 80
3, 10552, Note_on_c, 1, 75, 0
3, 10560, Note_on_c, 1, 72, 80
3, 10744, Note_on_c, 1, 72, 0
3, 10752, Note_on_c, 1, 77, 80
3, 10936, Note_on_c, 1, 77, 0
3, 10944, Note_on_c, 1, 82, 85
3, 11128, Note_on_c, 1, 82, 0
3, 11136, Note_on_c, 1, 81, 80
3, 11320, Note_on_c, 1, 81, 0
3, 11328, Note_on_c, 1, 75, 80
3, 11512, Note_on_c, 1, 75, 0
3, 11520, Note_on_c, 1, 74, 80
3, 11704, Note_on_c, 1, 74, 0
3, 11712, Note_on_c, 1, 77, 80
3, 11900, Note_on_c, 1, 77, 0
3, 11904, Note_on_c, 1, 72, 80
3, 12088, Note_on_c, 1, 72, 0
3, 12096, Note_on_c, 1, 79, 80
3, 12280, Note_on_c, 1, 79, 0
3, 12288, Note_on_c, 1, 70, 80
3, 12288, Note_on_c, 1, 62, 80
3, 12856, Note_on_c, 1, 62, 0
3, 12856, Note_on_c, 1, 70, 0
3, 12864, Note_on_c, 1, 72, 80
3, 12952, Note_on_c, 1, 72, 0
3, 12960, Note_on_c, 1, 70, 80
3, 13048, Note_on_c, 1, 70, 0
3, 13056, Note_on_c, 1, 69, 80
3, 13056, Note_on_c, 1, 60, 80
3, 13240, Note_on_c, 1, 60, 0
3, 13240, Note_on_c, 1, 69, 0
3, 13248, Note_on_c, 1, 72, 107
3, 13248, Note_on_c, 1, 69, 107
3, 13432, Note_on_c, 1, 69, 0
3, 13432, Note_on_c, 1, 72, 0
3, 13440, Note_on_c, 1, 74, 107
3, 13440, Note_on_c, 1, 70, 107
3, 13624, Note_on_c, 1, 70, 0
3, 13624, Note_on_c, 1, 74, 0
3, 13632, Note_on_c, 1, 75, 107
3, 13632, Note_on_c, 1, 72, 107
3, 13816, Note_on_c, 1, 72, 0
3, 13816, Note_on_c, 1, 75, 0
3, 13824, Note_on_c, 1, 77, 107
3, 13824, Note_on_c, 1, 74, 107
3, 14584, Note_on_c, 1, 74, 0
3, 14584, Note_on_c, 1, 77, 0
3, 14592, Note_on_c, 1, 74, 107
3, 14592, Note_on_c, 1, 70, 107
3, 15160, Note_on_c, 1, 70, 0
3, 15160, Note_on_c, 1, 74, 0
3, 15168, Note_on_c, 1, 75, 107
3, 15168, Note_on_c, 1, 72, 107
3, 15352, Note_on_c, 1, 72, 0
3, 15352, Note_on_c, 1, 75, 0
3, 15360, Note_on_c, 1, 79, 107
3, 15360, Note_on_c, 1, 75, 107
3, 15544, Note_on_c, 1, 75, 0
3, 15544, Note_on_c, 1, 79, 0
3, 15552, Note_on_c, 1, 77, 107
3, 15552, Note_on_c, 1, 74, 107
3, 15736, Note_on_c, 1, 74, 0
3, 15736, Note_on_c, 1, 77, 0
3, 15744, Note_on_c, 1, 75, 107
3, 15744, Note_on_c, 1, 72, 107
3, 15832, Note_on_c, 1, 72, 0
3, 15832, Note_on_c, 1, 75, 0
3, 15936, Note_on_c, 1, 74, 107
3, 15936, Note_on_c, 1, 70, 107
3, 16024, Note_on_c, 1, 70, 0
3, 16024, Note_on_c, 1, 74, 0
3, 16128, Note_on_c, 1, 74, 107
3, 16128, Note_on_c, 1, 70, 107
3, 16504, Note_on_c, 1, 70, 0
3, 16504, Note_on_c, 1, 74, 0
3, 16896, Note_on_c, 1, 75, 80
3, 16896, Note_on_c, 1, 67, 80
3, 17272, Note_on_c, 1, 67, 0
3, 17272, Note_on_c, 1, 75, 0
3, 17280, Note_on_c, 1, 72, 80
3, 17464, Note_on_c, 1, 72, 0
3, 17664, Note_on_c, 1, 75, 80
3, 17664, Note_on_c, 1, 67, 80
3, 18040, Note_on_c, 1, 67, 0
3, 18040, Note_on_c, 1, 75, 0
3, 18048, Note_on_c, 1, 72, 80
3, 18232, Note_on_c, 1, 72, 0
3, 18432, Note_on_c, 1, 70, 80
3, 18432, Note_on_c, 1, 62, 80
3, 19192, Note_on_c, 1, 62, 0
3, 19192, Note_on_c, 1, 70, 0
3, 19200, Note_on_c, 1, 69, 80
3, 19200, Note_on_c, 1, 60, 80
3, 19384, Note_on_c, 1, 60, 0
3, 19384, Note_on_c, 1, 69, 0
3, 19968, Note_on_c, 1, 82, 107
3, 20344, Note_on_c, 1, 82, 0
3, 20352, Note_on_c, 1, 82, 107
3, 20440, Note_on_c, 1, 82, 0
3, 20448, Note_on_c, 1, 86, 112
3, 20536, Note_on_c, 1, 86, 0
3, 20544, Note_on_c, 1, 84, 107
3, 20632, Note_on_c, 1, 84, 0
3, 20640, Note_on_c, 1, 82, 107
3, 20728, Note_on_c, 1, 82, 0
3, 20736, Note_on_c, 1, 81, 107
3, 20824, Note_on_c, 1, 81, 0
3, 20832, Note_on_c, 1, 84, 112
3, 20920, Note_on_c, 1, 84, 0
3, 20928, Note_on_c, 1, 82, 107
3, 21016, Note_on_c, 1, 82, 0
3, 21024, Note_on_c, 1, 81, 107
3, 21112, Note_on_c, 1, 81, 0
3, 21120, Note_on_c, 1, 79, 107
3, 21208, Note_on_c, 1, 79, 0
3, 21216, Note_on_c, 1, 82, 112
3, 21304, Note_on_c, 1, 82, 0
3, 21312, Note_on_c, 1, 81, 107
3, 21400, Note_on_c, 1, 81, 0
3, 21408, Note_on_c, 1, 79, 107
3, 21496, Note_on_c, 1, 79, 0
3, 21504, Note_on_c, 1, 77, 107
3, 21880, Note_on_c, 1, 77, 0
3, 21888, Note_on_c, 1, 75, 107
3, 21976, Note_on_c, 1, 75, 0
3, 21984, Note_on_c, 1, 79, 112
3, 22072, Note_on_c, 1, 79, 0
3, 22080, Note_on_c, 1, 77, 107
3, 22168, Note_on_c, 1, 77, 0
3, 22176, Note_on_c, 1, 75, 107
3, 22264, Note_on_c, 1, 75, 0
3, 22272, Note_on_c, 1, 74, 107
3, 22360, Note_on_c, 1, 74, 0
3, 22368, Note_on_c, 1, 77, 112
3, 22456, Note_on_c, 1, 77, 0
3, 22464, Note_on_c, 1, 75, 107
3, 22552, Note_on_c, 1, 75, 0
3, 22560, Note_on_c, 1, 74, 107
3, 22648, Note_on_c, 1, 74, 0
3, 22656, Note_on_c, 1, 72, 107
3, 22744, Note_on_c, 1, 72, 0
3, 22752, Note_on_c, 1, 75, 112
3, 22840, Note_on_c, 1, 75, 0
3, 22848, Note_on_c, 1, 74, 107
3, 22936, Note_on_c, 1, 74, 0
3, 22944, Note_on_c, 1, 72, 107
3, 23032, Note_on_c, 1, 72, 0
3, 23040, Note_on_c, 1, 70, 107
3, 23416, Note_on_c, 1, 70, 0
3, 23424, Note_on_c, 1, 82, 107
3, 23704, Note_on_c, 1, 82, 0
3, 23712, Note_on_c, 1, 84, 107
3, 23800, Note_on_c, 1, 84, 0
3, 23808, Note_on_c, 1, 82, 107
3, 23808, Note_on_c, 1, 84, 107
3, 23848, Note_on_c, 1, 84, 0
3, 23856, Note_on_c, 1, 86, 107
3, 23896, Note_on_c, 1, 86, 0
3, 23904, Note_on_c, 1, 84, 107
3, 23944, Note_on_c, 1, 84, 0
3, 23952, Note_on_c, 1, 86, 107
3, 23992, Note_on_c, 1, 86, 0
3, 24000, Note_on_c, 1, 84, 107
3, 24040, Note_on_c, 1, 84, 0
3, 24048, Note_on_c, 1, 86, 107
3, 24088, Note_on_c, 1, 86, 0
3, 24096, Note_on_c, 1, 84, 107
3, 24136, Note_on_c, 1, 84, 0
3, 24144, Note_on_c, 1, 86, 107
3, 24184, Note_on_c, 1, 86, 0
3, 24184, Note_on_c, 1, 82, 0
3, 24192, Note_on_c, 1, 84, 107
3, 24192, Note_on_c, 1, 81, 107
3, 24232, Note_on_c, 1, 84, 0
3, 24240, Note_on_c, 1, 86, 107
3, 24280, Note_on_c, 1, 86, 0
3, 24288, Note_on_c, 1, 84, 107
3, 24328, Note_on_c, 1, 84, 0
3, 24336, Note_on_c, 1, 86, 107
3, 24376, Note_on_c, 1, 86, 0
3, 24384, Note_on_c, 1, 82, 107
3, 24472, Note_on_c, 1, 82, 0
3, 24480, Note_on_c, 1, 84, 107
3, 24568, Note_on_c, 1, 84, 0
3, 24568, Note_on_c, 1, 81, 0
3, 24576, Note_on_c, 1, 82, 107
3, 24952, Note_on_c, 1, 82, 0
3, 25152, Note_on_c, 1, 86, 107
3, 25240, Note_on_c, 1, 86, 0
3, 25248, Note_on_c, 1, 82, 107
3, 25336, Note_on_c, 1, 82, 0
3, 25344, Note_on_c, 1, 77, 107
3, 25432, Note_on_c, 1, 77, 0
3, 25536, Note_on_c, 1, 77, 107
3, 25624, Note_on_c, 1, 77, 0
3, 25728, Note_on_c, 1, 77, 107
3, 25816, Note_on_c, 1, 77, 0
3, 25920, Note_on_c, 1, 77, 107
3, 26008, Note_on_c, 1, 77, 0
3, 26112, Note_on_c, 1, 77, 107
3, 26296, Note_on_c, 1, 77, 0
3, 26304, Note_on_c, 1, 87, 107
3, 26496, Note_on_c, 1, 87, 107
3, 26872, Note_on_c, 1, 87, 0
3, 27064, Note_on_c, 1, 87, 0
3, 27072, Note_on_c, 1, 86, 107
3, 27160, Note_on_c, 1, 86, 0
3, 27168, Note_on_c, 1, 84, 107
3, 27256, Note_on_c, 1, 84, 0
3, 27264, Note_on_c, 1, 86, 107
3, 27352, Note_on_c, 1, 86, 0
3, 27360, Note_on_c, 1, 84, 107
3, 27448, Note_on_c, 1, 84, 0
3, 27456, Note_on_c, 1, 82, 107
3, 27544, Note_on_c, 1, 82, 0
3, 27552, Note_on_c, 1, 81, 107
3, 27640, Note_on_c, 1, 81, 0
3, 27648, Note_on_c, 1, 84, 107
3, 27832, Note_on_c, 1, 84, 0
3, 27840, Note_on_c, 1, 82, 107
3, 28024, Note_on_c, 1, 82, 0
3, 28224, Note_on_c, 1, 86, 107
3, 28312, Note_on_c, 1, 86, 0
3, 28320, Note_on_c, 1, 82, 107
3, 28408, Note_on_c, 1, 82, 0
3, 28416, Note_on_c, 1, 77, 107
3, 28504, Note_on_c, 1, 77, 0
3, 28608, Note_on_c, 1, 77, 107
3, 28696, Note_on_c, 1, 77, 0
3, 28800, Note_on_c, 1, 77, 107
3, 28888, Note_on_c, 1, 77, 0
3, 28992, Note_on_c, 1, 77, 107
3, 29080, Note_on_c, 1, 77, 0
3, 29184, Note_on_c, 1, 77, 107
3, 29368, Note_on_c, 1, 77, 0
3, 29376, Note_on_c, 1, 87, 107
3, 29560, Note_on_c, 1, 87, 0
3, 29568, Note_on_c, 1, 87, 107
3, 30136, Note_on_c, 1, 87, 0
3, 30144, Note_on_c, 1, 86, 107
3, 30232, Note_on_c, 1, 86, 0
3, 30240, Note_on_c, 1, 84, 107
3, 30328, Note_on_c, 1, 84, 0
3, 30336, Note_on_c, 1, 86, 107
3, 30424, Note_on_c, 1, 86, 0
3, 30432, Note_on_c, 1, 84, 107
3, 30520, Note_on_c, 1, 84, 0
3, 30528, Note_on_c, 1, 82, 107
3, 30616, Note_on_c, 1, 82, 0
3, 30624, Note_on_c, 1, 81, 107
3, 30712, Note_on_c, 1, 81, 0
3, 30720, Note_on_c, 1, 82, 107
3, 30808, Note_on_c, 1, 82, 0
3, 30816, Note_on_c, 1, 81, 107
3, 30896, Note_on_c, 1, 84, 107
3, 30904, Note_on_c, 1, 81, 0
3, 30984, Note_on_c, 1, 84, 0
3, 31008, Note_on_c, 1, 82, 107
3, 31096, Note_on_c, 1, 82, 0
3, 31104, Note_on_c, 1, 86, 112
3, 31192, Note_on_c, 1, 86, 0
3, 31200, Note_on_c, 1, 84, 107
3, 31288, Note_on_c, 1, 84, 0
3, 31296, Note_on_c, 1, 82, 107
3, 31384, Note_on_c, 1, 82, 0
3, 31392, Note_on_c, 1, 81, 107
3, 31480, Note_on_c, 1, 81, 0
3, 31488, Note_on_c, 1, 79, 107
3, 31576, Note_on_c, 1, 79, 0
3, 31584, Note_on_c, 1, 78, 107
3, 31672, Note_on_c, 1, 78, 0
3, 31680, Note_on_c, 1, 81, 107
3, 31768, Note_on_c, 1, 81, 0
3, 31776, Note_on_c, 1, 79, 107
3, 31864, Note_on_c, 1, 79, 0
3, 31872, Note_on_c, 1, 82, 107
3, 32056, Note_on_c, 1, 82, 0
3, 32064, Note_on_c, 1, 70, 107
3, 32064, Note_on_c, 1, 62, 107
3, 32248, Note_on_c, 1, 62, 0
3, 32248, Note_on_c, 1, 70, 0
3, 32256, Note_on_c, 1, 70, 107
3, 32256, Note_on_c, 1, 63, 107
3, 32256, Note_on_c, 1, 79, 107
3, 32344, Note_on_c, 1, 79, 0
3, 32352, Note_on_c, 1, 78, 107
3, 32440, Note_on_c, 1, 78, 0
3, 32448, Note_on_c, 1, 81, 107
3, 32536, Note_on_c, 1, 81, 0
3, 32544, Note_on_c, 1, 79, 107
3, 32632, Note_on_c, 1, 79, 0
3, 32632, Note_on_c, 1, 63, 0
3, 32632, Note_on_c, 1, 70, 0
3, 32640, Note_on_c, 1, 82, 107
3, 32728, Note_on_c, 1, 82, 0
3, 32736, Note_on_c, 1, 81, 107
3, 32824, Note_on_c, 1, 81, 0
3, 32832, Note_on_c, 1, 62, 107
3, 32832, Note_on_c, 1, 58, 107
3, 32832, Note_on_c, 1, 79, 107
3, 32920, Note_on_c, 1, 79, 0
3, 32928, Note_on_c, 1, 77, 107
3, 33016, Note_on_c, 1, 77, 0
3, 33016, Note_on_c, 1, 58, 0
3, 33016, Note_on_c, 1, 62, 0
3, 33024, Note_on_c, 1, 60, 107
3, 33024, Note_on_c, 1, 75, 107
3, 33112, Note_on_c, 1, 75, 0
3, 33120, Note_on_c, 1, 74, 107
3, 33208, Note_on_c, 1, 74, 0
3, 33216, Note_on_c, 1, 77, 107
3, 33304, Note_on_c, 1, 77, 0
3, 33312, Note_on_c, 1, 75, 107
3, 33400, Note_on_c, 1, 75, 0
3, 33400, Note_on_c, 1, 60, 0
3, 33408, Note_on_c, 1, 79, 107
3, 33592, Note_on_c, 1, 79, 0
3, 33600, Note_on_c, 1, 67, 107
3, 33600, Note_on_c, 1, 58, 107
3, 33784, Note_on_c, 1, 58, 0
3, 33784, Note_on_c, 1, 67, 0
3, 33792, Note_on_c, 1, 67, 107
3, 33792, Note_on_c, 1, 60, 107
3, 33792, Note_on_c, 1, 75, 107
3, 33880, Note_on_c, 1, 75, 0
3, 33888, Note_on_c, 1, 74, 107
3, 33976, Note_on_c, 1, 74, 0
3, 33984, Note_on_c, 1, 77, 107
3, 34072, Note_on_c, 1, 77, 0
3, 34080, Note_on_c, 1, 75, 107
3, 34168, Note_on_c, 1, 75, 0
3, 34168, Note_on_c, 1, 60, 0
3, 34168, Note_on_c, 1, 67, 0
3, 34176, Note_on_c, 1, 79, 112
3, 34264, Note_on_c, 1, 79, 0
3, 34272, Note_on_c, 1, 77, 107
3, 34360, Note_on_c, 1, 77, 0
3, 34368, Note_on_c, 1, 75, 107
3, 34456, Note_on_c, 1, 75, 0
3, 34464, Note_on_c, 1, 74, 107
3, 34552, Note_on_c, 1, 74, 0
3, 34560, Note_on_c, 1, 72, 107
3, 34648, Note_on_c, 1, 72, 0
3, 34656, Note_on_c, 1, 71, 107
3, 34744, Note_on_c, 1, 71, 0
3, 34752, Note_on_c, 1, 74, 107
3, 34840, Note_on_c, 1, 74, 0
3, 34848, Note_on_c, 1, 72, 107
3, 34936, Note_on_c, 1, 72, 0
3, 34944, Note_on_c, 1, 75, 107
3, 35032, Note_on_c, 1, 75, 0
3, 35040, Note_on_c, 1, 74, 107
3, 35128, Note_on_c, 1, 74, 0
3, 35136, Note_on_c, 1, 72, 107
3, 35224, Note_on_c, 1, 72, 0
3, 35232, Note_on_c, 1, 70, 107
3, 35320, Note_on_c, 1, 70, 0
3, 35328, Note_on_c, 1, 69, 107
3, 35416, Note_on_c, 1, 69, 0
3, 35424, Note_on_c, 1, 65, 107
3, 35512, Note_on_c, 1, 65, 0
3, 35520, Note_on_c, 1, 67, 107
3, 35608, Note_on_c, 1, 67, 0
3, 35616, Note_on_c, 1, 69, 107
3, 35704, Note_on_c, 1, 69, 0
3, 35712, Note_on_c, 1, 70, 107
3, 35800, Note_on_c, 1, 70, 0
3, 35808, Note_on_c, 1, 72, 107
3, 35896, Note_on_c, 1, 72, 0
3, 35904, Note_on_c, 1, 74, 107
3, 35992, Note_on_c, 1, 74, 0
3, 36000, Note_on_c, 1, 76, 107
3, 36088, Note_on_c, 1, 76, 0
3, 36096, Note_on_c, 1, 77, 107
3, 36184, Note_on_c, 1, 77, 0
3, 36192, Note_on_c, 1, 79, 107
3, 36280, Note_on_c, 1, 79, 0
3, 36288, Note_on_c, 1, 81, 107
3, 36376, Note_on_c, 1, 81, 0
3, 36384, Note_on_c, 1, 82, 107
3, 36472, Note_on_c, 1, 82, 0
3, 36480, Note_on_c, 1, 84, 107
3, 36568, Note_on_c, 1, 84, 0
3, 36576, Note_on_c, 1, 81, 107
3, 36664, Note_on_c, 1, 81, 0
3, 36672, Note_on_c, 1, 84, 107
3, 36760, Note_on_c, 1, 84, 0
3, 36768, Note_on_c, 1, 81, 107
3, 36856, Note_on_c, 1, 81, 0
3, 36864, Note_on_c, 1, 77, 107
3, 37048, Note_on_c, 1, 77, 0
3, 37248, Note_on_c, 1, 81, 107
3, 37248, Note_on_c, 1, 72, 107
3, 37248, Note_on_c, 1, 77, 107
3, 37432, Note_on_c, 1, 77, 0
3, 37432, Note_on_c, 1, 72, 0
3, 37432, Note_on_c, 1, 81, 0
3, 37632, Note_on_c, 1, 77, 107
3, 37632, Note_on_c, 1, 72, 107
3, 37632, Note_on_c, 1, 69, 107
3, 37816, Note_on_c, 1, 69, 0
3, 37816, Note_on_c, 1, 72, 0
3, 37816, Note_on_c, 1, 77, 0
3, 38400, Note_on_c, 1, 77, 80
3, 39160, Note_on_c, 1, 77, 0
3, 39168, Note_on_c, 1, 74, 80
3, 39736, Note_on_c, 1, 74, 0
3, 39744, Note_on_c, 1, 75, 80
3, 39928, Note_on_c, 1, 75, 0
3, 39936, Note_on_c, 1, 82, 80
3, 39936, Note_on_c, 1, 79, 80
3, 40120, Note_on_c, 1, 79, 0
3, 40128, Note_on_c, 1, 77, 80
3, 40312, Note_on_c, 1, 77, 0
3, 40320, Note_on_c, 1, 75, 80
3, 40408, Note_on_c, 1, 75, 0
3, 40512, Note_on_c, 1, 74, 80
3, 40600, Note_on_c, 1, 74, 0
3, 40696, Note_on_c, 1, 82, 0
3, 40704, Note_on_c, 1, 81, 80
3, 40704, Note_on_c, 1, 72, 80
3, 41272, Note_on_c, 1, 72, 0
3, 41272, Note_on_c, 1, 81, 0
3, 41280, Note_on_c, 1, 82, 80
3, 41280, Note_on_c, 1, 74, 80
3, 41464, Note_on_c, 1, 74, 0
3, 41464, Note_on_c, 1, 82, 0
3, 41472, Note_on_c, 1, 86, 80
3, 41472, Note_on_c, 1, 77, 80
3, 41656, Note_on_c, 1, 77, 0
3, 41656, Note_on_c, 1, 86, 0
3, 41664, Note_on_c, 1, 84, 80
3, 41664, Note_on_c, 1, 75, 80
3, 41848, Note_on_c, 1, 75, 0
3, 41848, Note_on_c, 1, 84, 0
3, 41856, Note_on_c, 1, 82, 80
3, 41856, Note_on_c, 1, 74, 80
3, 41944, Note_on_c, 1, 74, 0
3, 41944, Note_on_c, 1, 82, 0
3, 42048, Note_on_c, 1, 81, 80
3, 42048, Note_on_c, 1, 72, 80
3, 42136, Note_on_c, 1, 72, 0
3, 42136, Note_on_c, 1, 81, 0
3, 42240, Note_on_c, 1, 79, 80
3, 42240, Note_on_c, 1, 70, 80
3, 42808, Note_on_c, 1, 70, 0
3, 42808, Note_on_c, 1, 79, 0
3, 42816, Note_on_c, 1, 81, 80
3, 42816, Note_on_c, 1, 72, 80
3, 43000, Note_on_c, 1, 72, 0
3, 43000, Note_on_c, 1, 81, 0
3, 43008, Note_on_c, 1, 82, 80
3, 43008, Note_on_c, 1, 74, 80
3, 43192, Note_on_c, 1, 74, 0
3, 43192, Note_on_c, 1, 82, 0
3, 43200, Note_on_c, 1, 86, 85
3, 43384, Note_on_c, 1, 86, 0
3, 43392, Note_on_c, 1, 84, 80
3, 43480, Note_on_c, 1, 84, 0
3, 43488, Note_on_c, 1, 82, 80
3, 43576, Note_on_c, 1, 82, 0
3, 43584, Note_on_c, 1, 81, 80
3, 43672, Note_on_c, 1, 81, 0
3, 43680, Note_on_c, 1, 79, 80
3, 43772, Note_on_c, 1, 79, 0
3, 43776, Note_on_c, 1, 79, 80
3, 43776, Note_on_c, 1, 70, 80
3, 43960, Note_on_c, 1, 70, 0
3, 43960, Note_on_c, 1, 79, 0
3, 43968, Note_on_c, 1, 77, 80
3, 43968, Note_on_c, 1, 69, 80
3, 44152, Note_on_c, 1, 69, 0
3, 44152, Note_on_c, 1, 77, 0
3, 44160, Note_on_c, 1, 77, 80
3, 44160, Note_on_c, 1, 69, 80
3, 44344, Note_on_c, 1, 69, 0
3, 44344, Note_on_c, 1, 77, 0
3, 44352, Note_on_c, 1, 76, 80
3, 44352, Note_on_c, 1, 67, 80
3, 44536, Note_on_c, 1, 67, 0
3, 44536, Note_on_c, 1, 76, 0
3, 44544, Note_on_c, 1, 77, 80
3, 44728, Note_on_c, 1, 77, 0
3, 44736, Note_on_c, 1, 79, 80
3, 44920, Note_on_c, 1, 79, 0
3, 44928, Note_on_c, 1, 75, 80
3, 45304, Note_on_c, 1, 75, 0
3, 45504, Note_on_c, 1, 72, 80
3, 45504, Note_on_c, 1, 69, 80
3, 45688, Note_on_c, 1, 69, 0
3, 45688, Note_on_c, 1, 72, 0
3, 45696, Note_on_c, 1, 74, 80
3, 45696, Note_on_c, 1, 70, 80
3, 45880, Note_on_c, 1, 70, 0
3, 45880, Note_on_c, 1, 74, 0
3, 45888, Note_on_c, 1, 75, 80
3, 45888, Note_on_c, 1, 72, 80
3, 46072, Note_on_c, 1, 72, 0
3, 46072, Note_on_c, 1, 75, 0
3, 46080, Note_on_c, 1, 77, 80
3, 46080, Note_on_c, 1, 70, 80
3, 46264, Note_on_c, 1, 70, 0
3, 46264, Note_on_c, 1, 77, 0
3, 46272, Note_on_c, 1, 79, 85
3, 46456, Note_on_c, 1, 79, 0
3, 46464, Note_on_c, 1, 77, 80
3, 46552, Note_on_c, 1, 77, 0
3, 46560, Note_on_c, 1, 75, 80
3, 46648, Note_on_c, 1, 75, 0
3, 46656, Note_on_c, 1, 74, 80
3, 46744, Note_on_c, 1, 74, 0
3, 46752, Note_on_c, 1, 72, 80
3, 46840, Note_on_c, 1, 72, 0
3, 46848, Note_on_c, 1, 70, 80
3, 47224, Note_on_c, 1, 70, 0
3, 47232, Note_on_c, 1, 69, 80
3, 47608, Note_on_c, 1, 69, 0
3, 47712, Note_on_c, 1, 70, 107
3, 47800, Note_on_c, 1, 70, 0
3, 47808, Note_on_c, 1, 72, 107
3, 47896, Note_on_c, 1, 72, 0
3, 47904, Note_on_c, 1, 74, 107
3, 47992, Note_on_c, 1, 74, 0
3, 48000, Note_on_c, 1, 75, 107
3, 48088, Note_on_c, 1, 75, 0
3, 48096, Note_on_c, 1, 77, 107
3, 48184, Note_on_c, 1, 77, 0
3, 48192, Note_on_c, 1, 79, 107
3, 48280, Note_on_c, 1, 79, 0
3, 48288, Note_on_c, 1, 81, 107
3, 48376, Note_on_c, 1, 81, 0
3, 48384, Note_on_c, 1, 82, 107
3, 48464, Note_on_c, 1, 86, 112
3, 48472, Note_on_c, 1, 82, 0
3, 48552, Note_on_c, 1, 86, 0
3, 48576, Note_on_c, 1, 84, 107
3, 48664, Note_on_c, 1, 84, 0
3, 48672, Note_on_c, 1, 82, 107
3, 48760, Note_on_c, 1, 82, 0
3, 48768, Note_on_c, 1, 81, 107
3, 48856, Note_on_c, 1, 81, 0
3, 48864, Note_on_c, 1, 79, 107
3, 48952, Note_on_c, 1, 79, 0
3, 48960, Note_on_c, 1, 77, 107
3, 49048, Note_on_c, 1, 77, 0
3, 49056, Note_on_c, 1, 75, 107
3, 49144, Note_on_c, 1, 75, 0
3, 49152, Note_on_c, 1, 77, 107
3, 49152, Note_on_c, 1, 74, 107
3, 49912, Note_on_c, 1, 74, 0
3, 49912, Note_on_c, 1, 77, 0
3, 49920, Note_on_c, 1, 74, 107
3, 49920, Note_on_c, 1, 70, 107
3, 50488, Note_on_c, 1, 70, 0
3, 50488, Note_on_c, 1, 74, 0
3, 50592, Note_on_c, 1, 75, 107
3, 50592, Note_on_c, 1, 72, 107
3, 50680, Note_on_c, 1, 72, 0
3, 50680, Note_on_c, 1, 75, 0
3, 50688, Note_on_c, 1, 77, 107
3, 50688, Note_on_c, 1, 74, 107
3, 50776, Note_on_c, 1, 74, 0
3, 50776, Note_on_c, 1, 77, 0
3, 50784, Note_on_c, 1, 70, 107
3, 50872, Note_on_c, 1, 70, 0
3, 50880, Note_on_c, 1, 72, 107
3, 50968, Note_on_c, 1, 72, 0
3, 50976, Note_on_c, 1, 74, 107
3, 51064, Note_on_c, 1, 74, 0
3, 51072, Note_on_c, 1, 75, 107
3, 51160, Note_on_c, 1, 75, 0
3, 51168, Note_on_c, 1, 77, 107
3, 51256, Note_on_c, 1, 77, 0
3, 51264, Note_on_c, 1, 79, 107
3, 51352, Note_on_c, 1, 79, 0
3, 51360, Note_on_c, 1, 81, 107
3, 51448, Note_on_c, 1, 81, 0
3, 51456, Note_on_c, 1, 82, 107
3, 51544, Note_on_c, 1, 82, 0
3, 51552, Note_on_c, 1, 86, 112
3, 51632, Note_on_c, 1, 84, 107
3, 51640, Note_on_c, 1, 86, 0
3, 51720, Note_on_c, 1, 84, 0
3, 51744, Note_on_c, 1, 82, 107
3, 51832, Note_on_c, 1, 82, 0
3, 51840, Note_on_c, 1, 81, 107
3, 51928, Note_on_c, 1, 81, 0
3, 51936, Note_on_c, 1, 79, 107
3, 52024, Note_on_c, 1, 79, 0
3, 52032, Note_on_c, 1, 77, 107
3, 52120, Note_on_c, 1, 77, 0
3, 52128, Note_on_c, 1, 75, 107
3, 52216, Note_on_c, 1, 75, 0
3, 52224, Note_on_c, 1, 77, 107
3, 52224, Note_on_c, 1, 74, 107
3, 52984, Note_on_c, 1, 74, 0
3, 52984, Note_on_c, 1, 77, 0
3, 52992, Note_on_c, 1, 70, 107
3, 52992, Note_on_c, 1, 74, 107
3, 53560, Note_on_c, 1, 74, 0
3, 53560, Note_on_c, 1, 70, 0
3, 53664, Note_on_c, 1, 75, 107
3, 53664, Note_on_c, 1, 72, 107
3, 53752, Note_on_c, 1, 72, 0
3, 53752, Note_on_c, 1, 75, 0
3, 53760, Note_on_c, 1, 77, 107
3, 53760, Note_on_c, 1, 74, 107
3, 54136, Note_on_c, 1, 74, 0
3, 54136, Note_on_c, 1, 77, 0
3, 54336, Note_on_c, 1, 77, 107
3, 54336, Note_on_c, 1, 82, 107
3, 54336, Note_on_c, 1, 86, 107
3, 54424, Note_on_c, 1, 86, 0
3, 54424, Note_on_c, 1, 82, 0
3, 54424, Note_on_c, 1, 77, 0
3, 54432, Note_on_c, 1, 77, 107
3, 54432, Note_on_c, 1, 82, 107
3, 54432, Note_on_c, 1, 86, 107
3, 54520, Note_on_c, 1, 86, 0
3, 54520, Note_on_c, 1, 82, 0
3, 54520, Note_on_c, 1, 77, 0
3, 54528, Note_on_c, 1, 77, 107
3, 54528, Note_on_c, 1, 82, 107
3, 54528, Note_on_c, 1, 86, 107
3, 54712, Note_on_c, 1, 86, 0
3, 54712, Note_on_c, 1, 82, 0
3, 54712, Note_on_c, 1, 77, 0
3, 54720, Note_on_c, 1, 77, 107
3, 54720, Note_on_c, 1, 82, 107
3, 54720, Note_on_c, 1, 86, 107
3, 54904, Note_on_c, 1, 86, 0
3, 54904, Note_on_c, 1, 82, 0
3, 54904, Note_on_c, 1, 77, 0
3, 54912, Note_on_c, 1, 77, 107
3, 54912, Note_on_c, 1, 82, 107
3, 54912, Note_on_c, 1, 86, 107
3, 55096, Note_on_c, 1, 86, 0
3, 55096, Note_on_c, 1, 82, 0
3, 55096, Note_on_c, 1, 77, 0
3, 55104, Note_on_c, 1, 77, 107
3, 55104, Note_on_c, 1, 82, 107
3, 55104, Note_on_c, 1, 86, 107
3, 55288, Note_on_c, 1, 86, 0
3, 55288, Note_on_c, 1, 82, 0
3, 55288, Note_on_c, 1, 77, 0
3, 55296, Note_on_c, 1, 79, 107
3, 55296, Note_on_c, 1, 82, 107
3, 55296, Note_on_c, 1, 87, 107
3, 55480, Note_on_c, 1, 87, 0
3, 55480, Note_on_c, 1, 82, 0
3, 55480, Note_on_c, 1, 79, 0
3, 55680, Note_on_c, 1, 82, 107
3, 55680, Note_on_c, 1, 70, 107
3, 55680, Note_on_c, 1, 77, 107
3, 55864, Note_on_c, 1, 77, 0
3, 55864, Note_on_c, 1, 70, 0
3, 55864, Note_on_c, 1, 82, 0
3, 56064, Note_on_c, 1, 79, 107
3, 56064, Note_on_c, 1, 75, 107
3, 56064, Note_on_c, 1, 70, 107
3, 56248, Note_on_c, 1, 70, 0
3, 56248, Note_on_c, 1, 75, 0
3, 56248, Note_on_c, 1, 79, 0
3, 56832, Note_on_c, 1, 67, 80
3, 57400, Note_on_c, 1, 67, 0
3, 57408, Note_on_c, 1, 69, 80
3, 57496, Note_on_c, 1, 69, 0
3, 57504, Note_on_c, 1, 70, 80
3, 57592, Note_on_c, 1, 70, 0
3, 57600, Note_on_c, 1, 72, 80
3, 57784, Note_on_c, 1, 72, 0
3, 57792, Note_on_c, 1, 74, 80
3, 57976, Note_on_c, 1, 74, 0
3, 57984, Note_on_c, 1, 75, 80
3, 58168, Note_on_c, 1, 75, 0
3, 58176, Note_on_c, 1, 77, 80
3, 58360, Note_on_c, 1, 77, 0
3, 58368, Note_on_c, 1, 79, 80
3, 58552, Note_on_c, 1, 79, 0
3, 58560, Note_on_c, 1, 71, 80
3, 58560, Note_on_c, 1, 62, 80
3, 58744, Note_on_c, 1, 62, 0
3, 58744, Note_on_c, 1, 71, 0
3, 58752, Note_on_c, 1, 72, 80
3, 58752, Note_on_c, 1, 63, 80
3, 58936, Note_on_c, 1, 63, 0
3, 58936, Note_on_c, 1, 72, 0
3, 58944, Note_on_c, 1, 75, 80
3, 58944, Note_on_c, 1, 67, 80
3, 59128, Note_on_c, 1, 67, 0
3, 59128, Note_on_c, 1, 75, 0
3, 59136, Note_on_c, 1, 70, 80
3, 59136, Note_on_c, 1, 62, 80
3, 59512, Note_on_c, 1, 62, 0
3, 59512, Note_on_c, 1, 70, 0
3, 59520, Note_on_c, 1, 69, 80
3, 59520, Note_on_c, 1, 60, 80
3, 59896, Note_on_c, 1, 60, 0
3, 59896, Note_on_c, 1, 69, 0
3, 59904, Note_on_c, 1, 70, 80
3, 59992, Note_on_c, 1, 70, 0
3, 60096, Note_on_c, 1, 82, 80
3, 60280, Note_on_c, 1, 82, 0
3, 60288, Note_on_c, 1, 81, 80
3, 60472, Note_on_c, 1, 81, 0
3, 60480, Note_on_c, 1, 75, 80
3, 60664, Note_on_c, 1, 75, 0
3, 60672, Note_on_c, 1, 74, 80
3, 60856, Note_on_c, 1, 74, 0
3, 60864, Note_on_c, 1, 86, 80
3, 60896, Note_on_c, 1, 86, 0
3, 60900, Note_on_c, 1, 87, 80
3, 60932, Note_on_c, 1, 87, 0
3, 60936, Note_on_c, 1, 86, 80
3, 60968, Note_on_c, 1, 86, 0
3, 60972, Note_on_c, 1, 87, 80
3, 61004, Note_on_c, 1, 87, 0
3, 61008, Note_on_c, 1, 86, 80
3, 61040, Note_on_c, 1, 86, 0
3, 61056, Note_on_c, 1, 87, 80
3, 61240, Note_on_c, 1, 87, 0
3, 61248, Note_on_c, 1, 75, 80
3, 61432, Note_on_c, 1, 75, 0
3, 61440, Note_on_c, 1, 74, 80
3, 61528, Note_on_c, 1, 74, 0
3, 61632, Note_on_c, 1, 82, 80
3, 61816, Note_on_c, 1, 82, 0
3, 61824, Note_on_c, 1, 81, 80
3, 62008, Note_on_c, 1, 81, 0
3, 62016, Note_on_c, 1, 75, 80
3, 62200, Note_on_c, 1, 75, 0
3, 62208, Note_on_c, 1, 74, 80
3, 62392, Note_on_c, 1, 74, 0
3, 62400, Note_on_c, 1, 86, 80
3, 62432, Note_on_c, 1, 86, 0
3, 62436, Note_on_c, 1, 87, 80
3, 62468, Note_on_c, 1, 87, 0
3, 62472, Note_on_c, 1, 86, 80
3, 62504, Note_on_c, 1, 86, 0
3, 62508, Note_on_c, 1, 87, 80
3, 62540, Note_on_c, 1, 87, 0
3, 62544, Note_on_c, 1, 86, 80
3, 62576, Note_on_c, 1, 86, 0
3, 62592, Note_on_c, 1, 87, 80
3, 62776, Note_on_c, 1, 87, 0
3, 62784, Note_on_c, 1, 75, 80
3, 62968, Note_on_c, 1, 75, 0
3, 62976, Note_on_c, 1, 74, 80
3, 63160, Note_on_c, 1, 74, 0
3, 63168, Note_on_c, 1, 82, 80
3, 63352, Note_on_c, 1, 82, 0
3, 63360, Note_on_c, 1, 81, 80
3, 63544, Note_on_c, 1, 81, 0
3, 63552, Note_on_c, 1, 75, 80
3, 63736, Note_on_c, 1, 75, 0
3, 63744, Note_on_c, 1, 74, 80
3, 63928, Note_on_c, 1, 74, 0
3, 63936, Note_on_c, 1, 86, 80
3, 63968, Note_on_c, 1, 86, 0
3, 63972, Note_on_c, 1, 87, 80
3, 64004, Note_on_c, 1, 87, 0
3, 64008, Note_on_c, 1, 86, 80
3, 64040, Note_on_c, 1, 86, 0
3, 64044, Note_on_c, 1, 87, 80
3, 64076, Note_on_c, 1, 87, 0
3, 64080, Note_on_c, 1, 86, 80
3, 64112, Note_on_c, 1, 86, 0
3, 64128, Note_on_c, 1, 87, 80
3, 64312, Note_on_c, 1, 87, 0
3, 64320, Note_on_c, 1, 81, 80
3, 64352, Note_on_c, 1, 81, 0
3, 64356, Note_on_c, 1, 82, 80
3, 64388, Note_on_c, 1, 82, 0
3, 64392, Note_on_c, 1, 81, 80
3, 64424, Note_on_c, 1, 81, 0
3, 64428, Note_on_c, 1, 82, 80
3, 64460, Note_on_c, 1, 82, 0
3, 64464, Note_on_c, 1, 81, 80
3, 64496, Note_on_c, 1, 81, 0
3, 64512, Note_on_c, 1, 82, 80
3, 64696, Note_on_c, 1, 82, 0
3, 64704, Note_on_c, 1, 86, 80
3, 64736, Note_on_c, 1, 86, 0
3, 64740, Note_on_c, 1, 87, 80
3, 64772, Note_on_c, 1, 87, 0
3, 64776, Note_on_c, 1, 86, 80
3, 64808, Note_on_c, 1, 86, 0
3, 64812, Note_on_c, 1, 87, 80
3, 64844, Note_on_c, 1, 87, 0
3, 64848, Note_on_c, 1, 86, 80
3, 64880, Note_on_c, 1, 86, 0
3, 64896, Note_on_c, 1, 87, 80
3, 65080, Note_on_c, 1, 87, 0
3, 65088, Note_on_c, 1, 81, 80
3, 65120, Note_on_c, 1, 81, 0
3, 65124, Note_on_c, 1, 82, 80
3, 65156, Note_on_c, 1, 82, 0
3, 65160, Note_on_c, 1, 81, 80
3, 65192, Note_on_c, 1, 81, 0
3, 65196, Note_on_c, 1, 82, 80
3, 65228, Note_on_c, 1, 82, 0
3, 65232, Note_on_c, 1, 81, 80
3, 65264, Note_on_c, 1, 81, 0
3, 65280, Note_on_c, 1, 82, 80
3, 65464, Note_on_c, 1, 82, 0
3, 65472, Note_on_c, 1, 86, 80
3, 65504, Note_on_c, 1, 86, 0
3, 65508, Note_on_c, 1, 87, 80
3, 65540, Note_on_c, 1, 87, 0
3, 65544, Note_on_c, 1, 86, 80
3, 65576, Note_on_c, 1, 86, 0
3, 65580, Note_on_c, 1, 87, 80
3, 65612, Note_on_c, 1, 87, 0
3, 65616, Note_on_c, 1, 86, 80
3, 65648, Note_on_c, 1, 86, 0
3, 65664, Note_on_c, 1, 87, 80
3, 65848, Note_on_c, 1, 87, 0
3, 65856, Note_on_c, 1, 81, 80
3, 65888, Note_on_c, 1, 81, 0
3, 65892, Note_on_c, 1, 82, 80
3, 65924, Note_on_c, 1, 82, 0
3, 65928, Note_on_c, 1, 81, 80
3, 65960, Note_on_c, 1, 81, 0
3, 65964, Note_on_c, 1, 82, 80
3, 65996, Note_on_c, 1, 82, 0
3, 66000, Note_on_c, 1, 81, 80
3, 66032, Note_on_c, 1, 81, 0
3, 66048, Note_on_c, 1, 82, 107
3, 66232, Note_on_c, 1, 82, 0
3, 66240, Note_on_c, 1, 82, 107
3, 66272, Note_on_c, 1, 82, 0
3, 66276, Note_on_c, 1, 84, 107
3, 66308, Note_on_c, 1, 84, 0
3, 66312, Note_on_c, 1, 82, 107
3, 66344, Note_on_c, 1, 82, 0
3, 66348, Note_on_c, 1, 84, 107
3, 66380, Note_on_c, 1, 84, 0
3, 66384, Note_on_c, 1, 82, 107
3, 66416, Note_on_c, 1, 82, 0
3, 66432, Note_on_c, 1, 84, 107
3, 66616, Note_on_c, 1, 84, 0
3, 66624, Note_on_c, 1, 84, 107
3, 66656, Note_on_c, 1, 84, 0
3, 66660, Note_on_c, 1, 86, 107
3, 66692, Note_on_c, 1, 86, 0
3, 66696, Note_on_c, 1, 84, 107
3, 66728, Note_on_c, 1, 84, 0
3, 66732, Note_on_c, 1, 86, 107
3, 66764, Note_on_c, 1, 86, 0
3, 66768, Note_on_c, 1, 84, 107
3, 66800, Note_on_c, 1, 84, 0
3, 66816, Note_on_c, 1, 86, 107
3, 67000, Note_on_c, 1, 86, 0
3, 67008, Note_on_c, 1, 86, 107
3, 67096, Note_on_c, 1, 86, 0
3, 67200, Note_on_c, 1, 87, 107
3, 67288, Note_on_c, 1, 87, 0
3, 67392, Note_on_c, 1, 87, 107
3, 67480, Note_on_c, 1, 87, 0
3, 67584, Note_on_c, 1, 89, 107
3, 68056, Note_on_c, 1, 89, 0
3, 68064, Note_on_c, 1, 87, 107
3, 68104, Note_on_c, 1, 87, 0
3, 68160, Note_on_c, 1, 86, 107
3, 68200, Note_on_c, 1, 86, 0
3, 68256, Note_on_c, 1, 84, 107
3, 68296, Note_on_c, 1, 84, 0
3, 68352, Note_on_c, 1, 82, 107
3, 68392, Note_on_c, 1, 82, 0
3, 68448, Note_on_c, 1, 81, 107
3, 68488, Note_on_c, 1, 81, 0
3, 68544, Note_on_c, 1, 79, 107
3, 68584, Note_on_c, 1, 79, 0
3, 68640, Note_on_c, 1, 77, 107
3, 68680, Note_on_c, 1, 77, 0
3, 68736, Note_on_c, 1, 75, 107
3, 68776, Note_on_c, 1, 75, 0
3, 68832, Note_on_c, 1, 74, 107
3, 68872, Note_on_c, 1, 74, 0
3, 68928, Note_on_c, 1, 72, 107
3, 68968, Note_on_c, 1, 72, 0
3, 69024, Note_on_c, 1, 70, 107
3, 69064, Note_on_c, 1, 70, 0
3, 69120, Note_on_c, 1, 68, 107
3, 69120, Note_on_c, 1, 58, 107
3, 69304, Note_on_c, 1, 58, 0
3, 69304, Note_on_c, 1, 68, 0
3, 69312, Note_on_c, 1, 68, 107
3, 69312, Note_on_c, 1, 58, 107
3, 69688, Note_on_c, 1, 58, 0
3, 69688, Note_on_c, 1, 68, 0
3, 69696, Note_on_c, 1, 68, 107
3, 69696, Note_on_c, 1, 58, 107
3, 69880, Note_on_c, 1, 58, 0
3, 69880, Note_on_c, 1, 68, 0
3, 69888, Note_on_c, 1, 66, 107
3, 69888, Note_on_c, 1, 58, 107
3, 70072, Note_on_c, 1, 58, 0
3, 70072, Note_on_c, 1, 66, 0
3, 70080, Note_on_c, 1, 66, 107
3, 70080, Note_on_c, 1, 58, 107
3, 70456, Note_on_c, 1, 58, 0
3, 70456, Note_on_c, 1, 66, 0
3, 70464, Note_on_c, 1, 66, 107
3, 70464, Note_on_c, 1, 58, 107
3, 70648, Note_on_c, 1, 58, 0
3, 70648, Note_on_c, 1, 66, 0
3, 70656, Note_on_c, 1, 67, 107
3, 70656, Note_on_c, 1, 58, 107
3, 70840, Note_on_c, 1, 58, 0
3, 70840, Note_on_c, 1, 67, 0
3, 71040, Note_on_c, 1, 82, 107
3, 71040, Note_on_c, 1, 70, 107
3, 71224, Note_on_c, 1, 70, 0
3, 71224, Note_on_c, 1, 82, 0
3, 71808, Note_on_c, 1, 64, 107
3, 72184, Note_on_c, 1, 64, 0
3, 72192, Note_on_c, 1, 65, 107
3, 72472, Note_on_c, 1, 65, 0
3, 72480, Note_on_c, 1, 67, 107
3, 72568, Note_on_c, 1, 67, 0
3, 72576, Note_on_c, 1, 69, 107
3, 72664, Note_on_c, 1, 69, 0
3, 72672, Note_on_c, 1, 70, 107
3, 72760, Note_on_c, 1, 70, 0
3, 72768, Note_on_c, 1, 72, 107
3, 72856, Note_on_c, 1, 72, 0
3, 72864, Note_on_c, 1, 74, 107
3, 72952, Note_on_c, 1, 74, 0
3, 72960, Note_on_c, 1, 75, 107
3, 73048, Note_on_c, 1, 75, 0
3, 73056, Note_on_c, 1, 77, 107
3, 73144, Note_on_c, 1, 77, 0
3, 73152, Note_on_c, 1, 79, 107
3, 73240, Note_on_c, 1, 79, 0
3, 73248, Note_on_c, 1, 81, 107
3, 73336, Note_on_c, 1, 81, 0
3, 73344, Note_on_c, 1, 82, 107
3, 73432, Note_on_c, 1, 82, 0
3, 73440, Note_on_c, 1, 84, 107
3, 73528, Note_on_c, 1, 84, 0
3, 73536, Note_on_c, 1, 86, 107
3, 73624, Note_on_c, 1, 86, 0
3, 73632, Note_on_c, 1, 87, 107
3, 73720, Note_on_c, 1, 87, 0
3, 73728, Note_on_c, 1, 89, 112
3, 73912, Note_on_c, 1, 89, 0
3, 73920, Note_on_c, 1, 86, 107
3, 74008, Note_on_c, 1, 86, 0
3, 74016, Note_on_c, 1, 82, 107
3, 74104, Note_on_c, 1, 82, 0
3, 74112, Note_on_c, 1, 77, 107
3, 74296, Note_on_c, 1, 77, 0
3, 74304, Note_on_c, 1, 74, 107
3, 74392, Note_on_c, 1, 74, 0
3, 74400, Note_on_c, 1, 70, 107
3, 74488, Note_on_c, 1, 70, 0
3, 74496, Note_on_c, 1, 65, 107
3, 74872, Note_on_c, 1, 65, 0
3, 74880, Note_on_c, 1, 81, 107
3, 74880, Note_on_c, 1, 77, 107
3, 74880, Note_on_c, 1, 72, 107
3, 75256, Note_on_c, 1, 72, 0
3, 75256, Note_on_c, 1, 77, 0
3, 75256, Note_on_c, 1, 81, 0
3, 75264, Note_on_c, 1, 82, 107
3, 75264, Note_on_c, 1, 77, 107
3, 75264, Note_on_c, 1, 74, 107
3, 75640, Note_on_c, 1, 74, 0
3, 75640, Note_on_c, 1, 77, 0
3, 75640, Note_on_c, 1, 82, 0
3, 76032, Note_on_c, 1, 82, 80
3, 76408, Note_on_c, 1, 82, 0
3, 76416, Note_on_c, 1, 86, 80
3, 76600, Note_on_c, 1, 86, 0
3, 76800, Note_on_c, 1, 79, 80
3, 77176, Note_on_c, 1, 79, 0
3, 77184, Note_on_c, 1, 82, 80
3, 77368, Note_on_c, 1, 82, 0
3, 77568, Note_on_c, 1, 72, 80
3, 77848, Note_on_c, 1, 72, 0
3, 77856, Note_on_c, 1, 72, 80
3, 77944, Note_on_c, 1, 72, 0
3, 77952, Note_on_c, 1, 74, 80
3, 78232, Note_on_c, 1, 74, 0
3, 78240, Note_on_c, 1, 74, 80
3, 78328, Note_on_c, 1, 74, 0
3, 78336, Note_on_c, 1, 77, 80
3, 78712, Note_on_c, 1, 77, 0
3, 78720, Note_on_c, 1, 75, 80
3, 78904, Note_on_c, 1, 75, 0
3, 79104, Note_on_c, 1, 75, 80
3, 79480, Note_on_c, 1, 75, 0
3, 79488, Note_on_c, 1, 79, 80
3, 79672, Note_on_c, 1, 79, 0
3, 79872, Note_on_c, 1, 72, 80
3, 80248, Note_on_c, 1, 72, 0
3, 80256, Note_on_c, 1, 75, 80
3, 80440, Note_on_c, 1, 75, 0
3, 80640, Note_on_c, 1, 67, 80
3, 80920, Note_on_c, 1, 67, 0
3, 80928, Note_on_c, 1, 67, 80
3, 81016, Note_on_c, 1, 67, 0
3, 81024, Note_on_c, 1, 69, 80
3, 81304, Note_on_c, 1, 69, 0
3, 81312, Note_on_c, 1, 69, 80
3, 81400, Note_on_c, 1, 69, 0
3, 81408, Note_on_c, 1, 70, 80
3, 81496, Note_on_c, 1, 70, 0
3, 81504, Note_on_c, 1, 74, 80
3, 81592, Note_on_c, 1, 74, 0
3, 81600, Note_on_c, 1, 77, 85
3, 81688, Note_on_c, 1, 77, 0
3, 81696, Note_on_c, 1, 74, 80
3, 81784, Note_on_c, 1, 74, 0
3, 81792, Note_on_c, 1, 70, 80
3, 81880, Note_on_c, 1, 70, 0
3, 81888, Note_on_c, 1, 65, 80
3, 81976, Note_on_c, 1, 65, 0
3, 81984, Note_on_c, 1, 62, 80
3, 82072, Note_on_c, 1, 62, 0
3, 82080, Note_on_c, 1, 65, 80
3, 82168, Note_on_c, 1, 65, 0
3, 82176, Note_on_c, 1, 67, 80
3, 82264, Note_on_c, 1, 67, 0
3, 82272, Note_on_c, 1, 63, 80
3, 82360, Note_on_c, 1, 63, 0
3, 82368, Note_on_c, 1, 67, 80
3, 82456, Note_on_c, 1, 67, 0
3, 82464, Note_on_c, 1, 70, 80
3, 82552, Note_on_c, 1, 70, 0
3, 82560, Note_on_c, 1, 69, 80
3, 82648, Note_on_c, 1, 69, 0
3, 82656, Note_on_c, 1, 65, 80
3, 82744, Note_on_c, 1, 65, 0
3, 82752, Note_on_c, 1, 69, 80
3, 82840, Note_on_c, 1, 69, 0
3, 82848, Note_on_c, 1, 72, 80
3, 82936, Note_on_c, 1, 72, 0
3, 82944, Note_on_c, 1, 70, 80
3, 83032, Note_on_c, 1, 70, 0
3, 83040, Note_on_c, 1, 74, 80
3, 83128, Note_on_c, 1, 74, 0
3, 83136, Note_on_c, 1, 77, 85
3, 83224, Note_on_c, 1, 77, 0
3, 83232, Note_on_c, 1, 74, 80
3, 83320, Note_on_c, 1, 74, 0
3, 83328, Note_on_c, 1, 70, 80
3, 83416, Note_on_c, 1, 70, 0
3, 83424, Note_on_c, 1, 65, 80
3, 83512, Note_on_c, 1, 65, 0
3, 83520, Note_on_c, 1, 62, 80
3, 83608, Note_on_c, 1, 62, 0
3, 83616, Note_on_c, 1, 65, 80
3, 83704, Note_on_c, 1, 65, 0
3, 83712, Note_on_c, 1, 67, 80
3, 83800, Note_on_c, 1, 67, 0
3, 83808, Note_on_c, 1, 63, 80
3, 83896, Note_on_c, 1, 63, 0
3, 83904, Note_on_c, 1, 67, 80
3, 83992, Note_on_c, 1, 67, 0
3, 84000, Note_on_c, 1, 70, 80
3, 84088, Note_on_c, 1, 70, 0
3, 84096, Note_on_c, 1, 69, 80
3, 84184, Note_on_c, 1, 69, 0
3, 84192, Note_on_c, 1, 65, 80
3, 84280, Note_on_c, 1, 65, 0
3, 84288, Note_on_c, 1, 69, 80
3, 84376, Note_on_c, 1, 69, 0
3, 84384, Note_on_c, 1, 72, 80
3, 84472, Note_on_c, 1, 72, 0
3, 84480, Note_on_c, 1, 70, 107
3, 84568, Note_on_c, 1, 70, 0
3, 84576, Note_on_c, 1, 65, 107
3, 84664, Note_on_c, 1, 65, 0
3, 84672, Note_on_c, 1, 62, 107
3, 84760, Note_on_c, 1, 62, 0
3, 84768, Note_on_c, 1, 65, 107
3, 84856, Note_on_c, 1, 65, 0
3, 84864, Note_on_c, 1, 70, 107
3, 84952, Note_on_c, 1, 70, 0
3, 84960, Note_on_c, 1, 65, 107
3, 85048, Note_on_c, 1, 65, 0
3, 85056, Note_on_c, 1, 70, 107
3, 85144, Note_on_c, 1, 70, 0
3, 85152, Note_on_c, 1, 65, 107
3, 85240, Note_on_c, 1, 65, 0
3, 85248, Note_on_c, 1, 74, 107
3, 85336, Note_on_c, 1, 74, 0
3, 85344, Note_on_c, 1, 70, 107
3, 85432, Note_on_c, 1, 70, 0
3, 85440, Note_on_c, 1, 74, 107
3, 85528, Note_on_c, 1, 74, 0
3, 85536, Note_on_c, 1, 70, 107
3, 85624, Note_on_c, 1, 70, 0
3, 85632, Note_on_c, 1, 77, 107
3, 85720, Note_on_c, 1, 77, 0
3, 85728, Note_on_c, 1, 74, 107
3, 85816, Note_on_c, 1, 74, 0
3, 85824, Note_on_c, 1, 77, 107
3, 85912, Note_on_c, 1, 77, 0
3, 85920, Note_on_c, 1, 74, 107
3, 86008, Note_on_c, 1, 74, 0
3, 86016, Note_on_c, 1, 70, 107
3, 86392, Note_on_c, 1, 70, 0
3, 86400, Note_on_c, 1, 82, 107
3, 86400, Note_on_c, 1, 77, 107
3, 86400, Note_on_c, 1, 74, 107
3, 86776, Note_on_c, 1, 74, 0
3, 86776, Note_on_c, 1, 77, 0
3, 86776, Note_on_c, 1, 82, 0
3, 86784, Note_on_c, 1, 58, 107
3, 87160, Note_on_c, 1, 58, 0
3, 87552, Note_on_c, 1, 74, 80
3, 88312, Note_on_c, 1, 74, 0
3, 88320, Note_on_c, 1, 70, 80
3, 88888, Note_on_c, 1, 70, 0
3, 88896, Note_on_c, 1, 72, 80
3, 89080, Note_on_c, 1, 72, 0
3, 89088, Note_on_c, 1, 75, 80
3, 89272, Note_on_c, 1, 75, 0
3, 89280, Note_on_c, 1, 74, 80
3, 89464, Note_on_c, 1, 74, 0
3, 89472, Note_on_c, 1, 72, 80
3, 89560, Note_on_c, 1, 72, 0
3, 89664, Note_on_c, 1, 70, 80
3, 89752, Note_on_c, 1, 70, 0
3, 89856, Note_on_c, 1, 70, 80
3, 90232, Note_on_c, 1, 70, 0
3, 90624, Note_on_c, 1, 67, 80
3, 91000, Note_on_c, 1, 67, 0
3, 91008, Note_on_c, 1, 63, 80
3, 91192, Note_on_c, 1, 63, 0
3, 91392, Note_on_c, 1, 67, 80
3, 91768, Note_on_c, 1, 67, 0
3, 91776, Note_on_c, 1, 63, 80
3, 91960, Note_on_c, 1, 63, 0
3, 92160, Note_on_c, 1, 62, 80
3, 92920, Note_on_c, 1, 62, 0
3, 92928, Note_on_c, 1, 60, 80
3, 93304, Note_on_c, 1, 60, 0
3, 93696, Note_on_c, 1, 65, 80
3, 94456, Note_on_c, 1, 65, 0
3, 94464, Note_on_c, 1, 63, 80
3, 94840, Note_on_c, 1, 63, 0
3, 94848, Note_on_c, 1, 62, 80
3, 95224, Note_on_c, 1, 62, 0
3, 95232, Note_on_c, 1, 60, 80
3, 95608, Note_on_c, 1, 60, 0
3, 95616, Note_on_c, 1, 72, 80
3, 95616, Note_on_c, 1, 69, 80
3, 96376, Note_on_c, 1, 69, 0
3, 96376, Note_on_c, 1, 72, 0
3, 96384, Note_on_c, 1, 70, 80
3, 96760, Note_on_c, 1, 70, 0
3, 96768, Note_on_c, 1, 72, 80
3, 96768, Note_on_c, 1, 67, 80
3, 97144, Note_on_c, 1, 67, 0
3, 97144, Note_on_c, 1, 72, 0
3, 97344, Note_on_c, 1, 67, 80
3, 97432, Note_on_c, 1, 67, 0
3, 97440, Note_on_c, 1, 63, 80
3, 97528, Note_on_c, 1, 63, 0
3, 97536, Note_on_c, 1, 62, 80
3, 97720, Note_on_c, 1, 62, 0
3, 97728, Note_on_c, 1, 65, 80
3, 97912, Note_on_c, 1, 65, 0
3, 97920, Note_on_c, 1, 63, 80
3, 98104, Note_on_c, 1, 63, 0
3, 98112, Note_on_c, 1, 65, 80
3, 98296, Note_on_c, 1, 65, 0
3, 98304, Note_on_c, 1, 62, 80
3, 98392, Note_on_c, 1, 62, 0
3, 98496, Note_on_c, 1, 65, 80
3, 98584, Note_on_c, 1, 65, 0
3, 98688, Note_on_c, 1, 70, 80
3, 98776, Note_on_c, 1, 70, 0
3, 98880, Note_on_c, 1, 72, 80
3, 98912, Note_on_c, 1, 72, 0
3, 98916, Note_on_c, 1, 74, 80
3, 98948, Note_on_c, 1, 74, 0
3, 98952, Note_on_c, 1, 72, 80
3, 98984, Note_on_c, 1, 72, 0
3, 98988, Note_on_c, 1, 70, 80
3, 99020, Note_on_c, 1, 70, 0
3, 99024, Note_on_c, 1, 72, 80
3, 99056, Note_on_c, 1, 72, 0
3, 99072, Note_on_c, 1, 74, 80
3, 99160, Note_on_c, 1, 74, 0
3, 99264, Note_on_c, 1, 70, 80
3, 99352, Note_on_c, 1, 70, 0
3, 99456, Note_on_c, 1, 74, 80
3, 99544, Note_on_c, 1, 74, 0
3, 99648, Note_on_c, 1, 75, 80
3, 99680, Note_on_c, 1, 75, 0
3, 99684, Note_on_c, 1, 77, 80
3, 99716, Note_on_c, 1, 77, 0
3, 99720, Note_on_c, 1, 75, 80
3, 99752, Note_on_c, 1, 75, 0
3, 99756, Note_on_c, 1, 74, 80
3, 99788, Note_on_c, 1, 74, 0
3, 99792, Note_on_c, 1, 75, 80
3, 99824, Note_on_c, 1, 75, 0
3, 99840, Note_on_c, 1, 77, 80
3, 99840, Note_on_c, 1, 74, 80
3, 100600, Note_on_c, 1, 74, 0
3, 100600, Note_on_c, 1, 77, 0
3, 100608, Note_on_c, 1, 70, 80
3, 100608, Note_on_c, 1, 74, 80
3, 100940, Note_on_c, 1, 74, 0
3, 100940, Note_on_c, 1, 70, 0
3, 100944, Note_on_c, 1, 74, 80
3, 100984, Note_on_c, 1, 74, 0
3, 100992, Note_on_c, 1, 75, 80
3, 101032, Note_on_c, 1, 75, 0
3, 101040, Note_on_c, 1, 74, 80
3, 101080, Note_on_c, 1, 74, 0
3, 101088, Note_on_c, 1, 72, 80
3, 101128, Note_on_c, 1, 72, 0
3, 101136, Note_on_c, 1, 74, 80
3, 101176, Note_on_c, 1, 74, 0
3, 101184, Note_on_c, 1, 75, 80
3, 101184, Note_on_c, 1, 72, 80
3, 101368, Note_on_c, 1, 72, 0
3, 101368, Note_on_c, 1, 75, 0
3, 101376, Note_on_c, 1, 79, 80
3, 101376, Note_on_c, 1, 75, 80
3, 101560, Note_on_c, 1, 75, 0
3, 101560, Note_on_c, 1, 79, 0
3, 101568, Note_on_c, 1, 77, 80
3, 101568, Note_on_c, 1, 74, 80
3, 101752, Note_on_c, 1, 74, 0
3, 101752, Note_on_c, 1, 77, 0
3, 101760, Note_on_c, 1, 75, 80
3, 101760, Note_on_c, 1, 72, 80
3, 101848, Note_on_c, 1, 72, 0
3, 101848, Note_on_c, 1, 75, 0
3, 101952, Note_on_c, 1, 74, 80
3, 101952, Note_on_c, 1, 70, 80
3, 102040, Note_on_c, 1, 70, 0
3, 102040, Note_on_c, 1, 74, 0
3, 102144, Note_on_c, 1, 74, 80
3, 102144, Note_on_c, 1, 70, 80
3, 102520, Note_on_c, 1, 70, 0
3, 102520, Note_on_c, 1, 74, 0
3, 102912, Note_on_c, 1, 75, 80
3, 102912, Note_on_c, 1, 67, 80
3, 103288, Note_on_c, 1, 67, 0
3, 103288, Note_on_c, 1, 75, 0
3, 103296, Note_on_c, 1, 72, 80
3, 103480, Note_on_c, 1, 72, 0
3, 103680, Note_on_c, 1, 75, 80
3, 103680, Note_on_c, 1, 67, 80
3, 104056, Note_on_c, 1, 67, 0
3, 104056, Note_on_c, 1, 75, 0
3, 104064, Note_on_c, 1, 72, 80
3, 104248, Note_on_c, 1, 72, 0
3, 104448, Note_on_c, 1, 70, 80
3, 104448, Note_on_c, 1, 62, 80
3, 105208, Note_on_c, 1, 62, 0
3, 105208, Note_on_c, 1, 70, 0
3, 105216, Note_on_c, 1, 69, 80
3, 105216, Note_on_c, 1, 60, 80
3, 105592, Note_on_c, 1, 60, 0
3, 105592, Note_on_c, 1, 69, 0
3, 105984, Note_on_c, 1, 60, 80
3, 105984, Note_on_c, 1, 57, 80
3, 106360, Note_on_c, 1, 57, 0
3, 106360, Note_on_c, 1, 60, 0
3, 106752, Note_on_c, 1, 65, 80
3, 106752, Note_on_c, 1, 57, 80
3, 106936, Note_on_c, 1, 57, 0
3, 106936, Note_on_c, 1, 65, 0
3, 106944, Note_on_c, 1, 65, 80
3, 106944, Note_on_c, 1, 57, 80
3, 107128, Note_on_c, 1, 57, 0
3, 107128, Note_on_c, 1, 65, 0
3, 107136, Note_on_c, 1, 65, 80
3, 107136, Note_on_c, 1, 57, 80
3, 107320, Note_on_c, 1, 57, 0
3, 107320, Note_on_c, 1, 65, 0
3, 107712, Note_on_c, 1, 63, 80
3, 107712, Note_on_c, 1, 58, 80
3, 107896, Note_on_c, 1, 58, 0
3, 107896, Note_on_c, 1, 63, 0
3, 107904, Note_on_c, 1, 63, 80
3, 107904, Note_on_c, 1, 58, 80
3, 108088, Note_on_c, 1, 58, 0
3, 108088, Note_on_c, 1, 63, 0
3, 108096, Note_on_c, 1, 63, 80
3, 108096, Note_on_c, 1, 58, 80
3, 108280, Note_on_c, 1, 58, 0
3, 108280, Note_on_c, 1, 63, 0
3, 108480, Note_on_c, 1, 72, 80
3, 108480, Note_on_c, 1, 69, 80
3, 108480, Note_on_c, 1, 65, 80
3, 108664, Note_on_c, 1, 65, 0
3, 108664, Note_on_c, 1, 69, 0
3, 108664, Note_on_c, 1, 72, 0
3, 108672, Note_on_c, 1, 72, 80
3, 108672, Note_on_c, 1, 69, 80
3, 108672, Note_on_c, 1, 65, 80
3, 108856, Note_on_c, 1, 65, 0
3, 108856, Note_on_c, 1, 69, 0
3, 108856, Note_on_c, 1, 72, 0
3, 108864, Note_on_c, 1, 72, 80
3, 108864, Note_on_c, 1, 69, 80
3, 108864, Note_on_c, 1, 65, 80
3, 109048, Note_on_c, 1, 65, 0
3, 109048, Note_on_c, 1, 69, 0
3, 109048, Note_on_c, 1, 72, 0
3, 109056, Note_on_c, 1, 74, 80
3, 109056, Note_on_c, 1, 70, 80
3, 109056, Note_on_c, 1, 65, 80
3, 109432, Note_on_c, 1, 65, 0
3, 109432, Note_on_c, 1, 70, 0
3, 109432, Note_on_c, 1, 74, 0
3, 110976, Note_on_c, 1, 70, 80
3, 111736, Note_on_c, 1, 70, 0
3, 111744, Note_on_c, 1, 69, 80
3, 112120, Note_on_c, 1, 69, 0
3, 112128, Note_on_c, 1, 70, 80
3, 112312, Note_on_c, 1, 70, 0
3, 112320, Note_on_c, 1, 70, 80
3, 112320, Note_on_c, 1, 65, 80
3, 112320, Note_on_c, 1, 62, 80
3, 112504, Note_on_c, 1, 62, 0
3, 112504, Note_on_c, 1, 65, 0
3, 112504, Note_on_c, 1, 70, 0
3, 112512, Note_on_c, 1, 70, 80
3, 112512, Note_on_c, 1, 65, 80
3, 112512, Note_on_c, 1, 62, 80
3, 112696, Note_on_c, 1, 62, 0
3, 112696, Note_on_c, 1, 65, 0
3, 112696, Note_on_c, 1, 70, 0
3, 112704, Note_on_c, 1, 70, 80
3, 112704, Note_on_c, 1, 62, 80
3, 112704, Note_on_c, 1, 65, 80
3, 112888, Note_on_c, 1, 65, 0
3, 112888, Note_on_c, 1, 62, 0
3, 112888, Note_on_c, 1, 70, 0
3, 113088, Note_on_c, 1, 70, 80
3, 113088, Note_on_c, 1, 67, 80
3, 113088, Note_on_c, 1, 63, 80
3, 113272, Note_on_c, 1, 63, 0
3, 113272, Note_on_c, 1, 67, 0
3, 113272, Note_on_c, 1, 70, 0
3, 113280, Note_on_c, 1, 70, 80
3, 113280, Note_on_c, 1, 67, 80
3, 113280, Note_on_c, 1, 63, 80
3, 113464, Note_on_c, 1, 63, 0
3, 113464, Note_on_c, 1, 67, 0
3, 113464, Note_on_c, 1, 70, 0
3, 113472, Note_on_c, 1, 70, 80
3, 113472, Note_on_c, 1, 67, 80
3, 113472, Note_on_c, 1, 63, 80
3, 113656, Note_on_c, 1, 63, 0
3, 113656, Note_on_c, 1, 67, 0
3, 113656, Note_on_c, 1, 70, 0
3, 113856, Note_on_c, 1, 70, 80
3, 113856, Note_on_c, 1, 65, 80
3, 114040, Note_on_c, 1, 65, 0
3, 114040, Note_on_c, 1, 70, 0
3, 114048, Note_on_c, 1, 70, 80
3, 114048, Note_on_c, 1, 62, 80
3, 114232, Note_on_c, 1, 62, 0
3, 114232, Note_on_c, 1, 70, 0
3, 114240, Note_on_c, 1, 70, 80
3, 114240, Note_on_c, 1, 67, 80
3, 114240, Note_on_c, 1, 62, 80
3, 114424, Note_on_c, 1, 62, 0
3, 114424, Note_on_c, 1, 67, 0
3, 114424, Note_on_c, 1, 70, 0
3, 114432, Note_on_c, 1, 70, 80
3, 114432, Note_on_c, 1, 67, 80
3, 114432, Note_on_c, 1, 60, 80
3, 114616, Note_on_c, 1, 60, 0
3, 114616, Note_on_c, 1, 67, 0
3, 114616, Note_on_c, 1, 70, 0
3, 114624, Note_on_c, 1, 70, 80
3, 114624, Note_on_c, 1, 67, 80
3, 114624, Note_on_c, 1, 60, 80
3, 114808, Note_on_c, 1, 60, 0
3, 114808, Note_on_c, 1, 67, 0
3, 114808, Note_on_c, 1, 70, 0
3, 114816, Note_on_c, 1, 69, 80
3, 114816, Note_on_c, 1, 65, 80
3, 114816, Note_on_c, 1, 60, 80
3, 115000, Note_on_c, 1, 60, 0
3, 115000, Note_on_c, 1, 65, 0
3, 115000, Note_on_c, 1, 69, 0
3, 115008, Note_on_c, 1, 69, 80
3, 115008, Note_on_c, 1, 63, 80
3, 115008, Note_on_c, 1, 60, 80
3, 115192, Note_on_c, 1, 60, 0
3, 115192, Note_on_c, 1, 63, 0
3, 115192, Note_on_c, 1, 69, 0
3, 115200, Note_on_c, 1, 70, 107
3, 115288, Note_on_c, 1, 70, 0
3, 115296, Note_on_c, 1, 65, 107
3, 115384, Note_on_c, 1, 65, 0
3, 115392, Note_on_c, 1, 62, 107
3, 115480, Note_on_c, 1, 62, 0
3, 115488, Note_on_c, 1, 65, 107
3, 115576, Note_on_c, 1, 65, 0
3, 115584, Note_on_c, 1, 70, 107
3, 115672, Note_on_c, 1, 70, 0
3, 115680, Note_on_c, 1, 65, 107
3, 115768, Note_on_c, 1, 65, 0
3, 115776, Note_on_c, 1, 70, 107
3, 115864, Note_on_c, 1, 70, 0
3, 115872, Note_on_c, 1, 65, 107
3, 115960, Note_on_c, 1, 65, 0
3, 115968, Note_on_c, 1, 74, 107
3, 116056, Note_on_c, 1, 74, 0
3, 116064, Note_on_c, 1, 70, 107
3, 116152, Note_on_c, 1, 70, 0
3, 116160, Note_on_c, 1, 74, 107
3, 116248, Note_on_c, 1, 74, 0
3, 116256, Note_on_c, 1, 70, 107
3, 116344, Note_on_c, 1, 70, 0
3, 116352, Note_on_c, 1, 77, 107
3, 116440, Note_on_c, 1, 77, 0
3, 116448, Note_on_c, 1, 74, 107
3, 116536, Note_on_c, 1, 74, 0
3, 116544, Note_on_c, 1, 77, 107
3, 116632, Note_on_c, 1, 77, 0
3, 116640, Note_on_c, 1, 74, 107
3, 116728, Note_on_c, 1, 74, 0
3, 116736, Note_on_c, 1, 82, 107
3, 117112, Note_on_c, 1, 82, 0
3, 117504, Note_on_c, 1, 70, 80
3, 117504, Note_on_c, 1, 62, 80
3, 117880, Note_on_c, 1, 62, 0
3, 117880, Note_on_c, 1, 70, 0
3, 118272, Note_on_c, 1, 75, 80
3, 118272, Note_on_c, 1, 70, 80
3, 118272, Note_on_c, 1, 67, 80
3, 118648, Note_on_c, 1, 67, 0
3, 118648, Note_on_c, 1, 70, 0
3, 118648, Note_on_c, 1, 75, 0
3, 119040, Note_on_c, 1, 69, 80
3, 119040, Note_on_c, 1, 63, 80
3, 119040, Note_on_c, 1, 60, 80
3, 119040, Note_on_c, 1, 65, 80
3, 119416, Note_on_c, 1, 65, 0
3, 119416, Note_on_c, 1, 69, 0
3, 119416, Note_on_c, 1, 63, 0
3, 119416, Note_on_c, 1, 60, 0
3, 119808, Note_on_c, 1, 70, 80
3, 119808, Note_on_c, 1, 65, 80
3, 119808, Note_on_c, 1, 61, 80
3, 120184, Note_on_c, 1, 61, 0
3, 120184, Note_on_c, 1, 65, 0
3, 120184, Note_on_c, 1, 70, 0
3, 120576, Note_on_c, 1, 61, 80
3, 120576, Note_on_c, 1, 58, 80
3, 120952, Note_on_c, 1, 58, 0
3, 120952, Note_on_c, 1, 61, 0
3, 121344, Note_on_c, 1, 66, 80
3, 121344, Note_on_c, 1, 60, 80
3, 121344, Note_on_c, 1, 58, 80
3, 121720, Note_on_c, 1, 58, 0
3, 121720, Note_on_c, 1, 60, 0
3, 121720, Note_on_c, 1, 66, 0
3, 122112, Note_on_c, 1, 60, 80
3, 122112, Note_on_c, 1, 57, 80
3, 122488, Note_on_c, 1, 57, 0
3, 122488, Note_on_c, 1, 60, 0
3, 122880, Note_on_c, 1, 61, 80
3, 122880, Note_on_c, 1, 58, 80
3, 122968, Note_on_c, 1, 58, 0
3, 122968, Note_on_c, 1, 61, 0
3, 123072, Note_on_c, 1, 65, 80
3, 123072, Note_on_c, 1, 61, 80
3, 123160, Note_on_c, 1, 61, 0
3, 123160, Note_on_c, 1, 65, 0
3, 123264, Note_on_c, 1, 61, 80
3, 123264, Note_on_c, 1, 58, 80
3, 123352, Note_on_c, 1, 58, 0
3, 123352, Note_on_c, 1, 61, 0
3, 123456, Note_on_c, 1, 65, 80
3, 123456, Note_on_c, 1, 61, 80
3, 123544, Note_on_c, 1, 61, 0
3, 123544, Note_on_c, 1, 65, 0
3, 123648, Note_on_c, 1, 61, 80
3, 123648, Note_on_c, 1, 58, 80
3, 124024, Note_on_c, 1, 58, 0
3, 124024, Note_on_c, 1, 61, 0
3, 124800, Note_on_c, 1, 61, 107
3, 124800, Note_on_c, 1, 66, 107
3, 125080, Note_on_c, 1, 66, 0
3, 125080, Note_on_c, 1, 61, 0
3, 125088, Note_on_c, 1, 66, 107
3, 125088, Note_on_c, 1, 61, 107
3, 125176, Note_on_c, 1, 61, 0
3, 125176, Note_on_c, 1, 66, 0
3, 125184, Note_on_c, 1, 66, 80
3, 125184, Note_on_c, 1, 60, 80
3, 125464, Note_on_c, 1, 60, 0
3, 125464, Note_on_c, 1, 66, 0
3, 125472, Note_on_c, 1, 66, 80
3, 125472, Note_on_c, 1, 60, 80
3, 125560, Note_on_c, 1, 60, 0
3, 125560, Note_on_c, 1, 66, 0
3, 125568, Note_on_c, 1, 66, 80
3, 125568, Note_on_c, 1, 61, 80
3, 125848, Note_on_c, 1, 61, 0
3, 125848, Note_on_c, 1, 66, 0
3, 125856, Note_on_c, 1, 66, 80
3, 125856, Note_on_c, 1, 61, 80
3, 125944, Note_on_c, 1, 61, 0
3, 125944, Note_on_c, 1, 66, 0
3, 125952, Note_on_c, 1, 66, 80
3, 125952, Note_on_c, 1, 60, 80
3, 126328, Note_on_c, 1, 60, 0
3, 126328, Note_on_c, 1, 66, 0
3, 126720, Note_on_c, 1, 66, 80
3, 126720, Note_on_c, 1, 63, 80
3, 126720, Note_on_c, 1, 60, 80
3, 127096, Note_on_c, 1, 60, 0
3, 127096, Note_on_c, 1, 63, 0
3, 127096, Note_on_c, 1, 66, 0
3, 127488, Note_on_c, 1, 66, 80
3, 127488, Note_on_c, 1, 63, 80
3, 127488, Note_on_c, 1, 60, 80
3, 129400, Note_on_c, 1, 60, 0
3, 129400, Note_on_c, 1, 63, 0
3, 129400, Note_on_c, 1, 66, 0
3, 130944, Note_on_c, 1, 65, 80
3, 130944, Note_on_c, 1, 56, 80
3, 131128, Note_on_c, 1, 56, 0
3, 131128, Note_on_c, 1, 65, 0
3, 131328, Note_on_c, 1, 65, 80
3, 131328, Note_on_c, 1, 61, 80
3, 131512, Note_on_c, 1, 61, 0
3, 131512, Note_on_c, 1, 65, 0
3, 132096, Note_on_c, 1, 66, 80
3, 132280, Note_on_c, 1, 66, 0
3, 132288, Note_on_c, 1, 68, 80
3, 132472, Note_on_c, 1, 68, 0
3, 132480, Note_on_c, 1, 66, 80
3, 132664, Note_on_c, 1, 66, 0
3, 132672, Note_on_c, 1, 68, 80
3, 132856, Note_on_c, 1, 68, 0
3, 132864, Note_on_c, 1, 66, 80
3, 133048, Note_on_c, 1, 66, 0
3, 133056, Note_on_c, 1, 68, 80
3, 133240, Note_on_c, 1, 68, 0
3, 133248, Note_on_c, 1, 66, 80
3, 133432, Note_on_c, 1, 66, 0
3, 133440, Note_on_c, 1, 68, 80
3, 133624, Note_on_c, 1, 68, 0
3, 133632, Note_on_c, 1, 65, 80
3, 133816, Note_on_c, 1, 65, 0
3, 133824, Note_on_c, 1, 68, 80
3, 134008, Note_on_c, 1, 68, 0
3, 134016, Note_on_c, 1, 65, 80
3, 134200, Note_on_c, 1, 65, 0
3, 134208, Note_on_c, 1, 68, 80
3, 134392, Note_on_c, 1, 68, 0
3, 134400, Note_on_c, 1, 65, 80
3, 134584, Note_on_c, 1, 65, 0
3, 134592, Note_on_c, 1, 68, 80
3, 134776, Note_on_c, 1, 68, 0
3, 134784, Note_on_c, 1, 65, 80
3, 134968, Note_on_c, 1, 65, 0
3, 134976, Note_on_c, 1, 68, 80
3, 135160, Note_on_c, 1, 68, 0
3, 135168, Note_on_c, 1, 66, 80
3, 135352, Note_on_c, 1, 66, 0
3, 135360, Note_on_c, 1, 68, 80
3, 135544, Note_on_c, 1, 68, 0
3, 135552, Note_on_c, 1, 66, 80
3, 135736, Note_on_c, 1, 66, 0
3, 135744, Note_on_c, 1, 68, 80
3, 135928, Note_on_c, 1, 68, 0
3, 135936, Note_on_c, 1, 66, 80
3, 136120, Note_on_c, 1, 66, 0
3, 136128, Note_on_c, 1, 68, 80
3, 136312, Note_on_c, 1, 68, 0
3, 136320, Note_on_c, 1, 66, 80
3, 136504, Note_on_c, 1, 66, 0
3, 136512, Note_on_c, 1, 68, 80
3, 136696, Note_on_c, 1, 68, 0
3, 136704, Note_on_c, 1, 65, 80
3, 136888, Note_on_c, 1, 65, 0
3, 136896, Note_on_c, 1, 68, 80
3, 137080, Note_on_c, 1, 68, 0
3, 137088, Note_on_c, 1, 65, 80
3, 137272, Note_on_c, 1, 65, 0
3, 137280, Note_on_c, 1, 68, 80
3, 137464, Note_on_c, 1, 68, 0
3, 137472, Note_on_c, 1, 65, 80
3, 137656, Note_on_c, 1, 65, 0
3, 137664, Note_on_c, 1, 68, 80
3, 137848, Note_on_c, 1, 68, 0
3, 137856, Note_on_c, 1, 65, 80
3, 138040, Note_on_c, 1, 65, 0
3, 138048, Note_on_c, 1, 68, 80
3, 138232, Note_on_c, 1, 68, 0
3, 138240, Note_on_c, 1, 63, 80
3, 138424, Note_on_c, 1, 63, 0
3, 138432, Note_on_c, 1, 68, 80
3, 138616, Note_on_c, 1, 68, 0
3, 138624, Note_on_c, 1, 63, 80
3, 138808, Note_on_c, 1, 63, 0
3, 138816, Note_on_c, 1, 68, 80
3, 139000, Note_on_c, 1, 68, 0
3, 139008, Note_on_c, 1, 63, 80
3, 139192, Note_on_c, 1, 63, 0
3, 139200, Note_on_c, 1, 68, 80
3, 139384, Note_on_c, 1, 68, 0
3, 139392, Note_on_c, 1, 63, 80
3, 139576, Note_on_c, 1, 63, 0
3, 139584, Note_on_c, 1, 68, 80
3, 139768, Note_on_c, 1, 68, 0
3, 139776, Note_on_c, 1, 68, 80
3, 139776, Note_on_c, 1, 62, 80
3, 140152, Note_on_c, 1, 62, 0
3, 140152, Note_on_c, 1, 68, 0
3, 140160, Note_on_c, 1, 65, 80
3, 140160, Note_on_c, 1, 71, 80
3, 140160, Note_on_c, 1, 68, 80
3, 140920, Note_on_c, 1, 68, 0
3, 140920, Note_on_c, 1, 71, 0
3, 140920, Note_on_c, 1, 65, 0
3, 140928, Note_on_c, 1, 72, 80
3, 140928, Note_on_c, 1, 65, 80
3, 140928, Note_on_c, 1, 69, 80
3, 141304, Note_on_c, 1, 69, 0
3, 141304, Note_on_c, 1, 65, 0
3, 141304, Note_on_c, 1, 72, 0
3, 141312, Note_on_c, 1, 74, 80
3, 141312, Note_on_c, 1, 68, 80
3, 141312, Note_on_c, 1, 65, 80
3, 141688, Note_on_c, 1, 65, 0
3, 141688, Note_on_c, 1, 68, 0
3, 141688, Note_on_c, 1, 74, 0
3, 141696, Note_on_c, 1, 65, 80
3, 141696, Note_on_c, 1, 62, 80
3, 141696, Note_on_c, 1, 68, 80
3, 142456, Note_on_c, 1, 68, 0
3, 142456, Note_on_c, 1, 62, 0
3, 142456, Note_on_c, 1, 65, 0
3, 142464, Note_on_c, 1, 68, 80
3, 142464, Note_on_c, 1, 65, 80
3, 142464, Note_on_c, 1, 60, 80
3, 142840, Note_on_c, 1, 60, 0
3, 142840, Note_on_c, 1, 65, 0
3, 142840, Note_on_c, 1, 68, 0
3, 142848, Note_on_c, 1, 68, 80
3, 142848, Note_on_c, 1, 65, 80
3, 142848, Note_on_c, 1, 59, 80
3, 143224, Note_on_c, 1, 59, 0
3, 143224, Note_on_c, 1, 65, 0
3, 143224, Note_on_c, 1, 68, 0
3, 143232, Note_on_c, 1, 68, 80
3, 143232, Note_on_c, 1, 65, 80
3, 143232, Note_on_c, 1, 59, 80
3, 143608, Note_on_c, 1, 59, 0
3, 143608, Note_on_c, 1, 65, 0
3, 143608, Note_on_c, 1, 68, 0
3, 143616, Note_on_c, 1, 59, 80
3, 143800, Note_on_c, 1, 59, 0
3, 143808, Note_on_c, 1, 68, 80
3, 143992, Note_on_c, 1, 68, 0
3, 144000, Note_on_c, 1, 67, 80
3, 144184, Note_on_c, 1, 67, 0
3, 144192, Note_on_c, 1, 65, 80
3, 144376, Note_on_c, 1, 65, 0
3, 144384, Note_on_c, 1, 64, 80
3, 144384, Note_on_c, 1, 60, 80
3, 144472, Note_on_c, 1, 60, 0
3, 144472, Note_on_c, 1, 64, 0
3, 144576, Note_on_c, 1, 76, 80
3, 144576, Note_on_c, 1, 72, 80
3, 144664, Note_on_c, 1, 72, 0
3, 144664, Note_on_c, 1, 76, 0
3, 144672, Note_on_c, 1, 77, 80
3, 144672, Note_on_c, 1, 74, 80
3, 144760, Note_on_c, 1, 74, 0
3, 144760, Note_on_c, 1, 77, 0
3, 144768, Note_on_c, 1, 79, 80
3, 144768, Note_on_c, 1, 76, 80
3, 144952, Note_on_c, 1, 76, 0
3, 144952, Note_on_c, 1, 79, 0
3, 144960, Note_on_c, 1, 80, 80
3, 144960, Note_on_c, 1, 77, 80
3, 145048, Note_on_c, 1, 77, 0
3, 145048, Note_on_c, 1, 80, 0
3, 145152, Note_on_c, 1, 82, 80
3, 145152, Note_on_c, 1, 79, 80
3, 145912, Note_on_c, 1, 79, 0
3, 145912, Note_on_c, 1, 82, 0
3, 145920, Note_on_c, 1, 80, 80
3, 145920, Note_on_c, 1, 79, 80
3, 146104, Note_on_c, 1, 79, 0
3, 146112, Note_on_c, 1, 72, 80
3, 146296, Note_on_c, 1, 72, 0
3, 146296, Note_on_c, 1, 80, 0
3, 146304, Note_on_c, 1, 80, 80
3, 146304, Note_on_c, 1, 74, 80
3, 146488, Note_on_c, 1, 74, 0
3, 146496, Note_on_c, 1, 76, 80
3, 146584, Note_on_c, 1, 80, 0
3, 146592, Note_on_c, 1, 80, 80
3, 146680, Note_on_c, 1, 80, 0
3, 146680, Note_on_c, 1, 76, 0
3, 146688, Note_on_c, 1, 80, 80
3, 146688, Note_on_c, 1, 77, 80
3, 146728, Note_on_c, 1, 77, 0
3, 146728, Note_on_c, 1, 80, 0
3, 146736, Note_on_c, 1, 82, 80
3, 146736, Note_on_c, 1, 79, 80
3, 146776, Note_on_c, 1, 79, 0
3, 146776, Note_on_c, 1, 82, 0
3, 146784, Note_on_c, 1, 80, 80
3, 146784, Note_on_c, 1, 77, 80
3, 146824, Note_on_c, 1, 77, 0
3, 146824, Note_on_c, 1, 80, 0
3, 146832, Note_on_c, 1, 82, 80
3, 146832, Note_on_c, 1, 79, 80
3, 146872, Note_on_c, 1, 79, 0
3, 146872, Note_on_c, 1, 82, 0
3, 146880, Note_on_c, 1, 80, 80
3, 146880, Note_on_c, 1, 77, 80
3, 146920, Note_on_c, 1, 77, 0
3, 146920, Note_on_c, 1, 80, 0
3, 146928, Note_on_c, 1, 82, 80
3, 146928, Note_on_c, 1, 79, 80
3, 146968, Note_on_c, 1, 79, 0
3, 146968, Note_on_c, 1, 82, 0
3, 146976, Note_on_c, 1, 80, 80
3, 146976, Note_on_c, 1, 77, 80
3, 147016, Note_on_c, 1, 77, 0
3, 147016, Note_on_c, 1, 80, 0
3, 147024, Note_on_c, 1, 82, 80
3, 147024, Note_on_c, 1, 79, 80
3, 147064, Note_on_c, 1, 79, 0
3, 147064, Note_on_c, 1, 82, 0
3, 147072, Note_on_c, 1, 80, 80
3, 147072, Note_on_c, 1, 77, 80
3, 147112, Note_on_c, 1, 77, 0
3, 147112, Note_on_c, 1, 80, 0
3, 147120, Note_on_c, 1, 82, 80
3, 147120, Note_on_c, 1, 79, 80
3, 147160, Note_on_c, 1, 79, 0
3, 147160, Note_on_c, 1, 82, 0
3, 147168, Note_on_c, 1, 80, 80
3, 147168, Note_on_c, 1, 77, 80
3, 147208, Note_on_c, 1, 77, 0
3, 147208, Note_on_c, 1, 80, 0
3, 147216, Note_on_c, 1, 82, 80
3, 147216, Note_on_c, 1, 79, 80
3, 147256, Note_on_c, 1, 79, 0
3, 147256, Note_on_c, 1, 82, 0
3, 147264, Note_on_c, 1, 79, 80
3, 147264, Note_on_c, 1, 76, 80
3, 147352, Note_on_c, 1, 76, 0
3, 147352, Note_on_c, 1, 79, 0
3, 147360, Note_on_c, 1, 80, 80
3, 147360, Note_on_c, 1, 77, 80
3, 147448, Note_on_c, 1, 77, 0
3, 147448, Note_on_c, 1, 80, 0
3, 147456, Note_on_c, 1, 79, 80
3, 147456, Note_on_c, 1, 76, 80
3, 147640, Note_on_c, 1, 76, 0
3, 147640, Note_on_c, 1, 79, 0
3, 147648, Note_on_c, 1, 64, 80
3, 147648, Note_on_c, 1, 60, 80
3, 147736, Note_on_c, 1, 60, 0
3, 147736, Note_on_c, 1, 64, 0
3, 147744, Note_on_c, 1, 65, 80
3, 147744, Note_on_c, 1, 62, 80
3, 147832, Note_on_c, 1, 62, 0
3, 147832, Note_on_c, 1, 65, 0
3, 147840, Note_on_c, 1, 67, 80
3, 147840, Note_on_c, 1, 64, 80
3, 148024, Note_on_c, 1, 64, 0
3, 148024, Note_on_c, 1, 67, 0
3, 148032, Note_on_c, 1, 68, 80
3, 148032, Note_on_c, 1, 65, 80
3, 148120, Note_on_c, 1, 65, 0
3, 148120, Note_on_c, 1, 68, 0
3, 148224, Note_on_c, 1, 70, 80
3, 148224, Note_on_c, 1, 67, 80
3, 148984, Note_on_c, 1, 67, 0
3, 148984, Note_on_c, 1, 70, 0
3, 148992, Note_on_c, 1, 68, 80
3, 148992, Note_on_c, 1, 67, 80
3, 149176, Note_on_c, 1, 67, 0
3, 149184, Note_on_c, 1, 60, 80
3, 149368, Note_on_c, 1, 60, 0
3, 149368, Note_on_c, 1, 68, 0
3, 149376, Note_on_c, 1, 68, 80
3, 149376, Note_on_c, 1, 62, 80
3, 149560, Note_on_c, 1, 62, 0
3, 149568, Note_on_c, 1, 64, 80
3, 149656, Note_on_c, 1, 68, 0
3, 149664, Note_on_c, 1, 68, 80
3, 149752, Note_on_c, 1, 68, 0
3, 149752, Note_on_c, 1, 64, 0
3, 149760, Note_on_c, 1, 68, 80
3, 149760, Note_on_c, 1, 65, 80
3, 149800, Note_on_c, 1, 65, 0
3, 149800, Note_on_c, 1, 68, 0
3, 149808, Note_on_c, 1, 70, 80
3, 149808, Note_on_c, 1, 67, 80
3, 149848, Note_on_c, 1, 67, 0
3, 149848, Note_on_c, 1, 70, 0
3, 149856, Note_on_c, 1, 68, 80
3, 149856, Note_on_c, 1, 65, 80
3, 149896, Note_on_c, 1, 65, 0
3, 149896, Note_on_c, 1, 68, 0
3, 149904, Note_on_c, 1, 70, 80
3, 149904, Note_on_c, 1, 67, 80
3, 149944, Note_on_c, 1, 67, 0
3, 149944, Note_on_c, 1, 70, 0
3, 149952, Note_on_c, 1, 68, 80
3, 149952, Note_on_c, 1, 65, 80
3, 149992, Note_on_c, 1, 65, 0
3, 149992, Note_on_c, 1, 68, 0
3, 150000, Note_on_c, 1, 70, 80
3, 150000, Note_on_c, 1, 67, 80
3, 150040, Note_on_c, 1, 67, 0
3, 150040, Note_on_c, 1, 70, 0
3, 150048, Note_on_c, 1, 68, 80
3, 150048, Note_on_c, 1, 65, 80
3, 150088, Note_on_c, 1, 65, 0
3, 150088, Note_on_c, 1, 68, 0
3, 150096, Note_on_c, 1, 70, 80
3, 150096, Note_on_c, 1, 67, 80
3, 150136, Note_on_c, 1, 67, 0
3, 150136, Note_on_c, 1, 70, 0
3, 150144, Note_on_c, 1, 68, 80
3, 150144, Note_on_c, 1, 65, 80
3, 150184, Note_on_c, 1, 65, 0
3, 150184, Note_on_c, 1, 68, 0
3, 150192, Note_on_c, 1, 70, 80
3, 150192, Note_on_c, 1, 67, 80
3, 150232, Note_on_c, 1, 67, 0
3, 150232, Note_on_c, 1, 70, 0
3, 150240, Note_on_c, 1, 68, 80
3, 150240, Note_on_c, 1, 65, 80
3, 150280, Note_on_c, 1, 65, 0
3, 150280, Note_on_c, 1, 68, 0
3, 150288, Note_on_c, 1, 70, 80
3, 150288, Note_on_c, 1, 67, 80
3, 150328, Note_on_c, 1, 67, 0
3, 150328, Note_on_c, 1, 70, 0
3, 150336, Note_on_c, 1, 67, 80
3, 150336, Note_on_c, 1, 64, 80
3, 150424, Note_on_c, 1, 64, 0
3, 150424, Note_on_c, 1, 67, 0
3, 150432, Note_on_c, 1, 68, 80
3, 150432, Note_on_c, 1, 65, 80
3, 150520, Note_on_c, 1, 65, 0
3, 150520, Note_on_c, 1, 68, 0
3, 150528, Note_on_c, 1, 67, 107
3, 150528, Note_on_c, 1, 64, 107
3, 150904, Note_on_c, 1, 64, 0
3, 150904, Note_on_c, 1, 67, 0
3, 151104, Note_on_c, 1, 72, 107
3, 151104, Note_on_c, 1, 67, 107
3, 151104, Note_on_c, 1, 60, 107
3, 151192, Note_on_c, 1, 60, 0
3, 151192, Note_on_c, 1, 67, 0
3, 151192, Note_on_c, 1, 72, 0
3, 151296, Note_on_c, 1, 68, 107
3, 151296, Note_on_c, 1, 65, 107
3, 151296, Note_on_c, 1, 60, 107
3, 151384, Note_on_c, 1, 60, 0
3, 151384, Note_on_c, 1, 65, 0
3, 151384, Note_on_c, 1, 68, 0
3, 151680, Note_on_c, 1, 77, 107
3, 151680, Note_on_c, 1, 72, 107
3, 151680, Note_on_c, 1, 68, 107
3, 151768, Note_on_c, 1, 68, 0
3, 151768, Note_on_c, 1, 72, 0
3, 151768, Note_on_c, 1, 77, 0
3, 152064, Note_on_c, 1, 76, 107
3, 152064, Note_on_c, 1, 72, 107
3, 152064, Note_on_c, 1, 67, 107
3, 152248, Note_on_c, 1, 67, 0
3, 152248, Note_on_c, 1, 72, 0
3, 152248, Note_on_c, 1, 76, 0
3, 152640, Note_on_c, 1, 72, 107
3, 152640, Note_on_c, 1, 60, 107
3, 152640, Note_on_c, 1, 67, 107
3, 152728, Note_on_c, 1, 67, 0
3, 152728, Note_on_c, 1, 60, 0
3, 152728, Note_on_c, 1, 72, 0
3, 152832, Note_on_c, 1, 68, 107
3, 152832, Note_on_c, 1, 65, 107
3, 152832, Note_on_c, 1, 60, 107
3, 152920, Note_on_c, 1, 60, 0
3, 152920, Note_on_c, 1, 65, 0
3, 152920, Note_on_c, 1, 68, 0
3, 153216, Note_on_c, 1, 80, 107
3, 153216, Note_on_c, 1, 77, 107
3, 153216, Note_on_c, 1, 72, 107
3, 153304, Note_on_c, 1, 72, 0
3, 153304, Note_on_c, 1, 77, 0
3, 153304, Note_on_c, 1, 80, 0
3, 153600, Note_on_c, 1, 79, 107
3, 153600, Note_on_c, 1, 76, 107
3, 153600, Note_on_c, 1, 72, 107
3, 153976, Note_on_c, 1, 72, 0
3, 153976, Note_on_c, 1, 76, 0
3, 153976, Note_on_c, 1, 79, 0
3, 155136, Note_on_c, 1, 64, 107
3, 155136, Note_on_c, 1, 60, 107
3, 155896, Note_on_c, 1, 60, 0
3, 155896, Note_on_c, 1, 64, 0
3, 155904, Note_on_c, 1, 62, 107
3, 155904, Note_on_c, 1, 58, 107
3, 156664, Note_on_c, 1, 58, 0
3, 156664, Note_on_c, 1, 62, 0
3, 156672, Note_on_c, 1, 60, 107
3, 156672, Note_on_c, 1, 57, 107
3, 157432, Note_on_c, 1, 57, 0
3, 157432, Note_on_c, 1, 60, 0
3, 157440, Note_on_c, 1, 58, 107
3, 157816, Note_on_c, 1, 58, 0
3, 157824, Note_on_c, 1, 64, 107
3, 158200, Note_on_c, 1, 64, 0
3, 158208, Note_on_c, 1, 65, 107
3, 158208, Note_on_c, 1, 60, 107
3, 158584, Note_on_c, 1, 60, 0
3, 158584, Note_on_c, 1, 65, 0
3, 159168, Note_on_c, 1, 64, 107
3, 159168, Note_on_c, 1, 60, 107
3, 159352, Note_on_c, 1, 60, 0
3, 159352, Note_on_c, 1, 64, 0
3, 159360, Note_on_c, 1, 67, 107
3, 159360, Note_on_c, 1, 64, 107
3, 159544, Note_on_c, 1, 64, 0
3, 159544, Note_on_c, 1, 67, 0
3, 159552, Note_on_c, 1, 70, 107
3, 159552, Note_on_c, 1, 67, 107
3, 159736, Note_on_c, 1, 67, 0
3, 159736, Note_on_c, 1, 70, 0
3, 159744, Note_on_c, 1, 65, 107
3, 159744, Note_on_c, 1, 69, 107
3, 159928, Note_on_c, 1, 69, 0
3, 159928, Note_on_c, 1, 65, 0
3, 159936, Note_on_c, 1, 65, 107
3, 159936, Note_on_c, 1, 69, 107
3, 159936, Note_on_c, 1, 72, 107
3, 160120, Note_on_c, 1, 72, 0
3, 160120, Note_on_c, 1, 69, 0
3, 160120, Note_on_c, 1, 65, 0
3, 160128, Note_on_c, 1, 65, 107
3, 160128, Note_on_c, 1, 69, 107
3, 160128, Note_on_c, 1, 72, 107
3, 160312, Note_on_c, 1, 72, 0
3, 160312, Note_on_c, 1, 69, 0
3, 160312, Note_on_c, 1, 65, 0
3, 160320, Note_on_c, 1, 65, 107
3, 160320, Note_on_c, 1, 69, 107
3, 160320, Note_on_c, 1, 72, 107
3, 160504, Note_on_c, 1, 72, 0
3, 160504, Note_on_c, 1, 69, 0
3, 160504, Note_on_c, 1, 65, 0
3, 160704, Note_on_c, 1, 65, 107
3, 160704, Note_on_c, 1, 69, 107
3, 160704, Note_on_c, 1, 72, 107
3, 160888, Note_on_c, 1, 72, 0
3, 160888, Note_on_c, 1, 69, 0
3, 160888, Note_on_c, 1, 65, 0
3, 160896, Note_on_c, 1, 65, 107
3, 160896, Note_on_c, 1, 72, 107
3, 160896, Note_on_c, 1, 69, 107
3, 161080, Note_on_c, 1, 69, 0
3, 161080, Note_on_c, 1, 72, 0
3, 161080, Note_on_c, 1, 65, 0
3, 161088, Note_on_c, 1, 72, 107
3, 161088, Note_on_c, 1, 65, 107
3, 161088, Note_on_c, 1, 69, 107
3, 161272, Note_on_c, 1, 69, 0
3, 161272, Note_on_c, 1, 65, 0
3, 161272, Note_on_c, 1, 72, 0
3, 161280, Note_on_c, 1, 72, 107
3, 161280, Note_on_c, 1, 70, 107
3, 161280, Note_on_c, 1, 67, 107
3, 161656, Note_on_c, 1, 67, 0
3, 161656, Note_on_c, 1, 70, 0
3, 161656, Note_on_c, 1, 72, 0
3, 162240, Note_on_c, 1, 70, 107
3, 162240, Note_on_c, 1, 67, 107
3, 162424, Note_on_c, 1, 67, 0
3, 162424, Note_on_c, 1, 70, 0
3, 162432, Note_on_c, 1, 69, 107
3, 162432, Note_on_c, 1, 65, 107
3, 162616, Note_on_c, 1, 65, 0
3, 162616, Note_on_c, 1, 69, 0
3, 162624, Note_on_c, 1, 67, 107
3, 162624, Note_on_c, 1, 64, 107
3, 162808, Note_on_c, 1, 64, 0
3, 162808, Note_on_c, 1, 67, 0
3, 162816, Note_on_c, 1, 69, 107
3, 162816, Note_on_c, 1, 65, 107
3, 163000, Note_on_c, 1, 65, 0
3, 163000, Note_on_c, 1, 69, 0
3, 163008, Note_on_c, 1, 72, 107
3, 163008, Note_on_c, 1, 69, 107
3, 163008, Note_on_c, 1, 65, 107
3, 163192, Note_on_c, 1, 65, 0
3, 163192, Note_on_c, 1, 69, 0
3, 163192, Note_on_c, 1, 72, 0
3, 163200, Note_on_c, 1, 72, 107
3, 163200, Note_on_c, 1, 69, 107
3, 163200, Note_on_c, 1, 65, 107
3, 163384, Note_on_c, 1, 65, 0
3, 163384, Note_on_c, 1, 69, 0
3, 163384, Note_on_c, 1, 72, 0
3, 163392, Note_on_c, 1, 72, 107
3, 163392, Note_on_c, 1, 69, 107
3, 163392, Note_on_c, 1, 65, 107
3, 163576, Note_on_c, 1, 65, 0
3, 163576, Note_on_c, 1, 69, 0
3, 163576, Note_on_c, 1, 72, 0
3, 163776, Note_on_c, 1, 72, 107
3, 163776, Note_on_c, 1, 69, 107
3, 163776, Note_on_c, 1, 65, 107
3, 163960, Note_on_c, 1, 65, 0
3, 163960, Note_on_c, 1, 69, 0
3, 163960, Note_on_c, 1, 72, 0
3, 163968, Note_on_c, 1, 72, 107
3, 163968, Note_on_c, 1, 69, 107
3, 163968, Note_on_c, 1, 65, 107
3, 164152, Note_on_c, 1, 65, 0
3, 164152, Note_on_c, 1, 69, 0
3, 164152, Note_on_c, 1, 72, 0
3, 164160, Note_on_c, 1, 72, 107
3, 164160, Note_on_c, 1, 69, 107
3, 164160, Note_on_c, 1, 65, 107
3, 164344, Note_on_c, 1, 65, 0
3, 164344, Note_on_c, 1, 72, 0
3, 164348, Note_on_c, 1, 69, 0
3, 164352, Note_on_c, 1, 72, 107
3, 164352, Note_on_c, 1, 70, 107
3, 164352, Note_on_c, 1, 67, 107
3, 164728, Note_on_c, 1, 67, 0
3, 164728, Note_on_c, 1, 70, 0
3, 164728, Note_on_c, 1, 72, 0
3, 165312, Note_on_c, 1, 70, 107
3, 165312, Note_on_c, 1, 67, 107
3, 165496, Note_on_c, 1, 67, 0
3, 165496, Note_on_c, 1, 70, 0
3, 165504, Note_on_c, 1, 69, 107
3, 165504, Note_on_c, 1, 65, 107
3, 165688, Note_on_c, 1, 65, 0
3, 165688, Note_on_c, 1, 69, 0
3, 165696, Note_on_c, 1, 67, 107
3, 165696, Note_on_c, 1, 64, 107
3, 165880, Note_on_c, 1, 64, 0
3, 165880, Note_on_c, 1, 67, 0
3, 165888, Note_on_c, 1, 69, 107
3, 165888, Note_on_c, 1, 65, 107
3, 166264, Note_on_c, 1, 65, 0
3, 166264, Note_on_c, 1, 69, 0
3, 166464, Note_on_c, 1, 72, 107
3, 166464, Note_on_c, 1, 65, 107
3, 166648, Note_on_c, 1, 65, 0
3, 166648, Note_on_c, 1, 72, 0
3, 166656, Note_on_c, 1, 70, 107
3, 166656, Note_on_c, 1, 65, 107
3, 167032, Note_on_c, 1, 65, 0
3, 167032, Note_on_c, 1, 70, 0
3, 167232, Note_on_c, 1, 72, 107
3, 167232, Note_on_c, 1, 65, 107
3, 167416, Note_on_c, 1, 65, 0
3, 167416, Note_on_c, 1, 72, 0
3, 167424, Note_on_c, 1, 74, 107
3, 167424, Note_on_c, 1, 65, 107
3, 167800, Note_on_c, 1, 65, 0
3, 167800, Note_on_c, 1, 74, 0
3, 168000, Note_on_c, 1, 69, 107
3, 168000, Note_on_c, 1, 62, 107
3, 168184, Note_on_c, 1, 62, 0
3, 168184, Note_on_c, 1, 69, 0
3, 168192, Note_on_c, 1, 67, 107
3, 168192, Note_on_c, 1, 62, 107
3, 168568, Note_on_c, 1, 62, 0
3, 168568, Note_on_c, 1, 67, 0
3, 168768, Note_on_c, 1, 69, 107
3, 168768, Note_on_c, 1, 62, 107
3, 168952, Note_on_c, 1, 62, 0
3, 168952, Note_on_c, 1, 69, 0
3, 168960, Note_on_c, 1, 70, 107
3, 168960, Note_on_c, 1, 62, 107
3, 169336, Note_on_c, 1, 62, 0
3, 169336, Note_on_c, 1, 70, 0
3, 169536, Note_on_c, 1, 66, 107
3, 169536, Note_on_c, 1, 60, 107
3, 169720, Note_on_c, 1, 60, 0
3, 169720, Note_on_c, 1, 66, 0
3, 169728, Note_on_c, 1, 67, 107
3, 169728, Note_on_c, 1, 62, 107
3, 170104, Note_on_c, 1, 62, 0
3, 170104, Note_on_c, 1, 67, 0
3, 170304, Note_on_c, 1, 65, 107
3, 170304, Note_on_c, 1, 62, 107
3, 170488, Note_on_c, 1, 62, 0
3, 170488, Note_on_c, 1, 65, 0
3, 170496, Note_on_c, 1, 64, 107
3, 170496, Note_on_c, 1, 60, 107
3, 170496, Note_on_c, 1, 55, 107
3, 172024, Note_on_c, 1, 55, 0
3, 172024, Note_on_c, 1, 60, 0
3, 172024, Note_on_c, 1, 64, 0
3, 172032, Note_on_c, 1, 65, 107
3, 172032, Note_on_c, 1, 60, 107
3, 172032, Note_on_c, 1, 57, 107
3, 172408, Note_on_c, 1, 57, 0
3, 172408, Note_on_c, 1, 60, 0
3, 172408, Note_on_c, 1, 65, 0
3, 173184, Note_on_c, 1, 72, 107
3, 173184, Note_on_c, 1, 65, 107
3, 173560, Note_on_c, 1, 65, 0
3, 173560, Note_on_c, 1, 72, 0
3, 173568, Note_on_c, 1, 74, 107
3, 173568, Note_on_c, 1, 65, 107
3, 173944, Note_on_c, 1, 65, 0
3, 173944, Note_on_c, 1, 74, 0
3, 175488, Note_on_c, 1, 68, 107
3, 175488, Note_on_c, 1, 74, 107
3, 175864, Note_on_c, 1, 74, 0
3, 175864, Note_on_c, 1, 68, 0
3, 175872, Note_on_c, 1, 72, 107
3, 175872, Note_on_c, 1, 69, 107
3, 176248, Note_on_c, 1, 69, 0
3, 176248, Note_on_c, 1, 72, 0
3, 176256, Note_on_c, 1, 76, 107
3, 176256, Note_on_c, 1, 70, 107
3, 176632, Note_on_c, 1, 70, 0
3, 176632, Note_on_c, 1, 76, 0
3, 176640, Note_on_c, 1, 77, 107
3, 176824, Note_on_c, 1, 77, 0
3, 176832, Note_on_c, 1, 69, 107
3, 177016, Note_on_c, 1, 69, 0
3, 177024, Note_on_c, 1, 65, 107
3, 177208, Note_on_c, 1, 65, 0
3, 177216, Note_on_c, 1, 69, 107
3, 177400, Note_on_c, 1, 69, 0
3, 177408, Note_on_c, 1, 65, 107
3, 177592, Note_on_c, 1, 65, 0
3, 177600, Note_on_c, 1, 69, 107
3, 177784, Note_on_c, 1, 69, 0
3, 177792, Note_on_c, 1, 65, 107
3, 177976, Note_on_c, 1, 65, 0
3, 177984, Note_on_c, 1, 69, 107
3, 178168, Note_on_c, 1, 69, 0
3, 178176, Note_on_c, 1, 67, 107
3, 178360, Note_on_c, 1, 67, 0
3, 178368, Note_on_c, 1, 69, 107
3, 178552, Note_on_c, 1, 69, 0
3, 178560, Note_on_c, 1, 67, 107
3, 178744, Note_on_c, 1, 67, 0
3, 178752, Note_on_c, 1, 69, 107
3, 178936, Note_on_c, 1, 69, 0
3, 178944, Note_on_c, 1, 67, 107
3, 179128, Note_on_c, 1, 67, 0
3, 179136, Note_on_c, 1, 69, 107
3, 179320, Note_on_c, 1, 69, 0
3, 179328, Note_on_c, 1, 67, 107
3, 179512, Note_on_c, 1, 67, 0
3, 179520, Note_on_c, 1, 69, 107
3, 179704, Note_on_c, 1, 69, 0
3, 179712, Note_on_c, 1, 65, 107
3, 179896, Note_on_c, 1, 65, 0
3, 179904, Note_on_c, 1, 69, 107
3, 180088, Note_on_c, 1, 69, 0
3, 180096, Note_on_c, 1, 65, 107
3, 180280, Note_on_c, 1, 65, 0
3, 180288, Note_on_c, 1, 69, 107
3, 180472, Note_on_c, 1, 69, 0
3, 180480, Note_on_c, 1, 65, 107
3, 180664, Note_on_c, 1, 65, 0
3, 180672, Note_on_c, 1, 69, 107
3, 180856, Note_on_c, 1, 69, 0
3, 180864, Note_on_c, 1, 65, 107
3, 181048, Note_on_c, 1, 65, 0
3, 181056, Note_on_c, 1, 69, 107
3, 181240, Note_on_c, 1, 69, 0
3, 181248, Note_on_c, 1, 64, 107
3, 181432, Note_on_c, 1, 64, 0
3, 181440, Note_on_c, 1, 69, 107
3, 181624, Note_on_c, 1, 69, 0
3, 181632, Note_on_c, 1, 64, 107
3, 181816, Note_on_c, 1, 64, 0
3, 181824, Note_on_c, 1, 69, 107
3, 182008, Note_on_c, 1, 69, 0
3, 182016, Note_on_c, 1, 64, 107
3, 182200, Note_on_c, 1, 64, 0
3, 182208, Note_on_c, 1, 69, 107
3, 182392, Note_on_c, 1, 69, 0
3, 182400, Note_on_c, 1, 64, 107
3, 182584, Note_on_c, 1, 64, 0
3, 182592, Note_on_c, 1, 69, 107
3, 182776, Note_on_c, 1, 69, 0
3, 182784, Note_on_c, 1, 65, 107
3, 182968, Note_on_c, 1, 65, 0
3, 182976, Note_on_c, 1, 69, 107
3, 183160, Note_on_c, 1, 69, 0
3, 183168, Note_on_c, 1, 65, 107
3, 183352, Note_on_c, 1, 65, 0
3, 183360, Note_on_c, 1, 69, 107
3, 183544, Note_on_c, 1, 69, 0
3, 183552, Note_on_c, 1, 65, 107
3, 183736, Note_on_c, 1, 65, 0
3, 183744, Note_on_c, 1, 69, 107
3, 183928, Note_on_c, 1, 69, 0
3, 183936, Note_on_c, 1, 65, 107
3, 184120, Note_on_c, 1, 65, 0
3, 184128, Note_on_c, 1, 69, 107
3, 184312, Note_on_c, 1, 69, 0
3, 184320, Note_on_c, 1, 67, 107
3, 184504, Note_on_c, 1, 67, 0
3, 184512, Note_on_c, 1, 69, 107
3, 184696, Note_on_c, 1, 69, 0
3, 184704, Note_on_c, 1, 67, 107
3, 184888, Note_on_c, 1, 67, 0
3, 184896, Note_on_c, 1, 69, 107
3, 185080, Note_on_c, 1, 69, 0
3, 185088, Note_on_c, 1, 67, 107
3, 185272, Note_on_c, 1, 67, 0
3, 185280, Note_on_c, 1, 69, 107
3, 185464, Note_on_c, 1, 69, 0
3, 185472, Note_on_c, 1, 67, 107
3, 185656, Note_on_c, 1, 67, 0
3, 185664, Note_on_c, 1, 69, 107
3, 185848, Note_on_c, 1, 69, 0
3, 185856, Note_on_c, 1, 65, 107
3, 186040, Note_on_c, 1, 65, 0
3, 186048, Note_on_c, 1, 69, 107
3, 186232, Note_on_c, 1, 69, 0
3, 186240, Note_on_c, 1, 65, 107
3, 186424, Note_on_c, 1, 65, 0
3, 186432, Note_on_c, 1, 69, 107
3, 186616, Note_on_c, 1, 69, 0
3, 186624, Note_on_c, 1, 65, 107
3, 186808, Note_on_c, 1, 65, 0
3, 186816, Note_on_c, 1, 69, 107
3, 187000, Note_on_c, 1, 69, 0
3, 187008, Note_on_c, 1, 65, 107
3, 187192, Note_on_c, 1, 65, 0
3, 187200, Note_on_c, 1, 69, 107
3, 187384, Note_on_c, 1, 69, 0
3, 187392, Note_on_c, 1, 64, 107
3, 187576, Note_on_c, 1, 64, 0
3, 187584, Note_on_c, 1, 69, 107
3, 187768, Note_on_c, 1, 69, 0
3, 187776, Note_on_c, 1, 64, 107
3, 187960, Note_on_c, 1, 64, 0
3, 187968, Note_on_c, 1, 69, 107
3, 188152, Note_on_c, 1, 69, 0
3, 188160, Note_on_c, 1, 64, 107
3, 188344, Note_on_c, 1, 64, 0
3, 188352, Note_on_c, 1, 69, 107
3, 188536, Note_on_c, 1, 69, 0
3, 188544, Note_on_c, 1, 64, 107
3, 188728, Note_on_c, 1, 64, 0
3, 188736, Note_on_c, 1, 69, 107
3, 188920, Note_on_c, 1, 69, 0
3, 188928, Note_on_c, 1, 65, 107
3, 189112, Note_on_c, 1, 65, 0
3, 189120, Note_on_c, 1, 69, 107
3, 189304, Note_on_c, 1, 69, 0
3, 189312, Note_on_c, 1, 65, 107
3, 189496, Note_on_c, 1, 65, 0
3, 189504, Note_on_c, 1, 69, 107
3, 189688, Note_on_c, 1, 69, 0
3, 189696, Note_on_c, 1, 65, 107
3, 190072, Note_on_c, 1, 65, 0
3, 190464, Note_on_c, 1, 70, 107
3, 190464, Note_on_c, 1, 65, 107
3, 190464, Note_on_c, 1, 67, 107
3, 191224, Note_on_c, 1, 67, 0
3, 191224, Note_on_c, 1, 65, 0
3, 191224, Note_on_c, 1, 70, 0
3, 191232, Note_on_c, 1, 70, 107
3, 191232, Note_on_c, 1, 67, 107
3, 191232, Note_on_c, 1, 64, 107
3, 191608, Note_on_c, 1, 64, 0
3, 191608, Note_on_c, 1, 67, 0
3, 191608, Note_on_c, 1, 70, 0
3, 192000, Note_on_c, 1, 70, 107
3, 192000, Note_on_c, 1, 67, 107
3, 192000, Note_on_c, 1, 65, 107
3, 192760, Note_on_c, 1, 65, 0
3, 192760, Note_on_c, 1, 67, 0
3, 192760, Note_on_c, 1, 70, 0
3, 192768, Note_on_c, 1, 70, 107
3, 192768, Note_on_c, 1, 67, 107
3, 192768, Note_on_c, 1, 64, 107
3, 193144, Note_on_c, 1, 64, 0
3, 193144, Note_on_c, 1, 67, 0
3, 193144, Note_on_c, 1, 70, 0
3, 193536, Note_on_c, 1, 70, 107
3, 193536, Note_on_c, 1, 67, 107
3, 193536, Note_on_c, 1, 64, 107
3, 193720, Note_on_c, 1, 64, 0
3, 193720, Note_on_c, 1, 67, 0
3, 193720, Note_on_c, 1, 70, 0
3, 193728, Note_on_c, 1, 70, 107
3, 193728, Note_on_c, 1, 67, 107
3, 193728, Note_on_c, 1, 64, 107
3, 194104, Note_on_c, 1, 64, 0
3, 194104, Note_on_c, 1, 67, 0
3, 194104, Note_on_c, 1, 70, 0
3, 194112, Note_on_c, 1, 70, 107
3, 194112, Note_on_c, 1, 67, 107
3, 194112, Note_on_c, 1, 64, 107
3, 194488, Note_on_c, 1, 64, 0
3, 194488, Note_on_c, 1, 67, 0
3, 194488, Note_on_c, 1, 70, 0
3, 194496, Note_on_c, 1, 67, 107
3, 194496, Note_on_c, 1, 64, 107
3, 194496, Note_on_c, 1, 70, 107
3, 194872, Note_on_c, 1, 70, 0
3, 194872, Note_on_c, 1, 64, 0
3, 194872, Note_on_c, 1, 67, 0
3, 194880, Note_on_c, 1, 70, 107
3, 194880, Note_on_c, 1, 67, 107
3, 194880, Note_on_c, 1, 64, 107
3, 195064, Note_on_c, 1, 64, 0
3, 195064, Note_on_c, 1, 67, 0
3, 195064, Note_on_c, 1, 70, 0
3, 195072, Note_on_c, 1, 70, 107
3, 195072, Note_on_c, 1, 67, 107
3, 195072, Note_on_c, 1, 64, 107
3, 195448, Note_on_c, 1, 64, 0
3, 195448, Note_on_c, 1, 67, 0
3, 195448, Note_on_c, 1, 70, 0
3, 196608, Note_on_c, 1, 72, 80
3, 197368, Note_on_c, 1, 72, 0
3, 197376, Note_on_c, 1, 69, 80
3, 197944, Note_on_c, 1, 69, 0
3, 197952, Note_on_c, 1, 70, 80
3, 198136, Note_on_c, 1, 70, 0
3, 198144, Note_on_c, 1, 74, 80
3, 198328, Note_on_c, 1, 74, 0
3, 198336, Note_on_c, 1, 72, 80
3, 198520, Note_on_c, 1, 72, 0
3, 198528, Note_on_c, 1, 70, 80
3, 198616, Note_on_c, 1, 70, 0
3, 198720, Note_on_c, 1, 69, 80
3, 198808, Note_on_c, 1, 69, 0
3, 198912, Note_on_c, 1, 67, 80
3, 199480, Note_on_c, 1, 67, 0
3, 199488, Note_on_c, 1, 69, 80
3, 199672, Note_on_c, 1, 69, 0
3, 199680, Note_on_c, 1, 72, 80
3, 199864, Note_on_c, 1, 72, 0
3, 199872, Note_on_c, 1, 70, 80
3, 200056, Note_on_c, 1, 70, 0
3, 200064, Note_on_c, 1, 69, 80
3, 200152, Note_on_c, 1, 69, 0
3, 200256, Note_on_c, 1, 67, 80
3, 200344, Note_on_c, 1, 67, 0
3, 200448, Note_on_c, 1, 65, 80
3, 201016, Note_on_c, 1, 65, 0
3, 201024, Note_on_c, 1, 67, 80
3, 201208, Note_on_c, 1, 67, 0
3, 201216, Note_on_c, 1, 69, 80
3, 201400, Note_on_c, 1, 69, 0
3, 201408, Note_on_c, 1, 70, 80
3, 201496, Note_on_c, 1, 70, 0
3, 201504, Note_on_c, 1, 72, 80
3, 201592, Note_on_c, 1, 72, 0
3, 201600, Note_on_c, 1, 70, 80
3, 201688, Note_on_c, 1, 70, 0
3, 201696, Note_on_c, 1, 69, 80
3, 201784, Note_on_c, 1, 69, 0
3, 201792, Note_on_c, 1, 67, 80
3, 201880, Note_on_c, 1, 67, 0
3, 201888, Note_on_c, 1, 65, 80
3, 201976, Note_on_c, 1, 65, 0
3, 201984, Note_on_c, 1, 64, 80
3, 202168, Note_on_c, 1, 64, 0
3, 202368, Note_on_c, 1, 62, 80
3, 202552, Note_on_c, 1, 62, 0
3, 202752, Note_on_c, 1, 60, 80
3, 202936, Note_on_c, 1, 60, 0
3, 203136, Note_on_c, 1, 64, 80
3, 203320, Note_on_c, 1, 64, 0
3, 203712, Note_on_c, 1, 67, 80
3, 203712, Note_on_c, 1, 64, 80
3, 203896, Note_on_c, 1, 64, 0
3, 203896, Note_on_c, 1, 67, 0
3, 203904, Note_on_c, 1, 69, 80
3, 203904, Note_on_c, 1, 65, 80
3, 204088, Note_on_c, 1, 65, 0
3, 204088, Note_on_c, 1, 69, 0
3, 204096, Note_on_c, 1, 70, 80
3, 204096, Note_on_c, 1, 67, 80
3, 204280, Note_on_c, 1, 67, 0
3, 204280, Note_on_c, 1, 70, 0
3, 204288, Note_on_c, 1, 72, 80
3, 204288, Note_on_c, 1, 65, 80
3, 204472, Note_on_c, 1, 65, 0
3, 204472, Note_on_c, 1, 72, 0
3, 204480, Note_on_c, 1, 74, 80
3, 204664, Note_on_c, 1, 74, 0
3, 204672, Note_on_c, 1, 72, 80
3, 204760, Note_on_c, 1, 72, 0
3, 204768, Note_on_c, 1, 70, 80
3, 204856, Note_on_c, 1, 70, 0
3, 204864, Note_on_c, 1, 69, 80
3, 204952, Note_on_c, 1, 69, 0
3, 204960, Note_on_c, 1, 67, 80
3, 205048, Note_on_c, 1, 67, 0
3, 205056, Note_on_c, 1, 67, 80
3, 205240, Note_on_c, 1, 67, 0
3, 205248, Note_on_c, 1, 65, 80
3, 205432, Note_on_c, 1, 65, 0
3, 205440, Note_on_c, 1, 65, 80
3, 205624, Note_on_c, 1, 65, 0
3, 205632, Note_on_c, 1, 64, 80
3, 205816, Note_on_c, 1, 64, 0
3, 205824, Note_on_c, 1, 65, 80
3, 205912, Note_on_c, 1, 65, 0
3, 206016, Note_on_c, 1, 77, 80
3, 206200, Note_on_c, 1, 77, 0
3, 206208, Note_on_c, 1, 76, 80
3, 206392, Note_on_c, 1, 76, 0
3, 206400, Note_on_c, 1, 70, 80
3, 206584, Note_on_c, 1, 70, 0
3, 206592, Note_on_c, 1, 69, 80
3, 206776, Note_on_c, 1, 69, 0
3, 206784, Note_on_c, 1, 81, 80
3, 206816, Note_on_c, 1, 81, 0
3, 206820, Note_on_c, 1, 82, 80
3, 206852, Note_on_c, 1, 82, 0
3, 206856, Note_on_c, 1, 81, 80
3, 206888, Note_on_c, 1, 81, 0
3, 206892, Note_on_c, 1, 79, 80
3, 206924, Note_on_c, 1, 79, 0
3, 206928, Note_on_c, 1, 81, 80
3, 206960, Note_on_c, 1, 81, 0
3, 206976, Note_on_c, 1, 82, 80
3, 207160, Note_on_c, 1, 82, 0
3, 207168, Note_on_c, 1, 70, 80
3, 207352, Note_on_c, 1, 70, 0
3, 207360, Note_on_c, 1, 69, 80
3, 207544, Note_on_c, 1, 69, 0
3, 207552, Note_on_c, 1, 77, 80
3, 207736, Note_on_c, 1, 77, 0
3, 207744, Note_on_c, 1, 76, 80
3, 207928, Note_on_c, 1, 76, 0
3, 207936, Note_on_c, 1, 70, 80
3, 208120, Note_on_c, 1, 70, 0
3, 208128, Note_on_c, 1, 69, 80
3, 208312, Note_on_c, 1, 69, 0
3, 208320, Note_on_c, 1, 81, 80
3, 208352, Note_on_c, 1, 81, 0
3, 208356, Note_on_c, 1, 82, 80
3, 208388, Note_on_c, 1, 82, 0
3, 208392, Note_on_c, 1, 81, 80
3, 208424, Note_on_c, 1, 81, 0
3, 208428, Note_on_c, 1, 79, 80
3, 208460, Note_on_c, 1, 79, 0
3, 208464, Note_on_c, 1, 81, 80
3, 208496, Note_on_c, 1, 81, 0
3, 208512, Note_on_c, 1, 82, 80
3, 208696, Note_on_c, 1, 82, 0
3, 208704, Note_on_c, 1, 70, 80
3, 208888, Note_on_c, 1, 70, 0
3, 208896, Note_on_c, 1, 69, 80
3, 209080, Note_on_c, 1, 69, 0
3, 209088, Note_on_c, 1, 77, 80
3, 209272, Note_on_c, 1, 77, 0
3, 209280, Note_on_c, 1, 76, 80
3, 209464, Note_on_c, 1, 76, 0
3, 209472, Note_on_c, 1, 70, 80
3, 209656, Note_on_c, 1, 70, 0
3, 209664, Note_on_c, 1, 69, 80
3, 209848, Note_on_c, 1, 69, 0
3, 209856, Note_on_c, 1, 81, 80
3, 209888, Note_on_c, 1, 81, 0
3, 209892, Note_on_c, 1, 82, 80
3, 209924, Note_on_c, 1, 82, 0
3, 209928, Note_on_c, 1, 81, 80
3, 209960, Note_on_c, 1, 81, 0
3, 209964, Note_on_c, 1, 79, 80
3, 209996, Note_on_c, 1, 79, 0
3, 210000, Note_on_c, 1, 81, 80
3, 210032, Note_on_c, 1, 81, 0
3, 210048, Note_on_c, 1, 82, 80
3, 210232, Note_on_c, 1, 82, 0
3, 210240, Note_on_c, 1, 76, 80
3, 210272, Note_on_c, 1, 76, 0
3, 210276, Note_on_c, 1, 77, 80
3, 210308, Note_on_c, 1, 77, 0
3, 210312, Note_on_c, 1, 76, 80
3, 210344, Note_on_c, 1, 76, 0
3, 210348, Note_on_c, 1, 74, 80
3, 210380, Note_on_c, 1, 74, 0
3, 210384, Note_on_c, 1, 76, 80
3, 210416, Note_on_c, 1, 76, 0
3, 210432, Note_on_c, 1, 77, 80
3, 210616, Note_on_c, 1, 77, 0
3, 210624, Note_on_c, 1, 81, 80
3, 210656, Note_on_c, 1, 81, 0
3, 210660, Note_on_c, 1, 82, 80
3, 210692, Note_on_c, 1, 82, 0
3, 210696, Note_on_c, 1, 81, 80
3, 210728, Note_on_c, 1, 81, 0
3, 210732, Note_on_c, 1, 79, 80
3, 210764, Note_on_c, 1, 79, 0
3, 210768, Note_on_c, 1, 81, 80
3, 210800, Note_on_c, 1, 81, 0
3, 210816, Note_on_c, 1, 82, 80
3, 211000, Note_on_c, 1, 82, 0
3, 211008, Note_on_c, 1, 76, 80
3, 211040, Note_on_c, 1, 76, 0
3, 211044, Note_on_c, 1, 77, 80
3, 211076, Note_on_c, 1, 77, 0
3, 211080, Note_on_c, 1, 76, 80
3, 211112, Note_on_c, 1, 76, 0
3, 211116, Note_on_c, 1, 74, 80
3, 211148, Note_on_c, 1, 74, 0
3, 211152, Note_on_c, 1, 76, 80
3, 211184, Note_on_c, 1, 76, 0
3, 211200, Note_on_c, 1, 77, 80
3, 211384, Note_on_c, 1, 77, 0
3, 211392, Note_on_c, 1, 81, 80
3, 211424, Note_on_c, 1, 81, 0
3, 211428, Note_on_c, 1, 82, 80
3, 211460, Note_on_c, 1, 82, 0
3, 211464, Note_on_c, 1, 81, 80
3, 211496, Note_on_c, 1, 81, 0
3, 211500, Note_on_c, 1, 79, 80
3, 211532, Note_on_c, 1, 79, 0
3, 211536, Note_on_c, 1, 81, 80
3, 211568, Note_on_c, 1, 81, 0
3, 211584, Note_on_c, 1, 82, 80
3, 211768, Note_on_c, 1, 82, 0
3, 211776, Note_on_c, 1, 76, 80
3, 211808, Note_on_c, 1, 76, 0
3, 211812, Note_on_c, 1, 77, 80
3, 211844, Note_on_c, 1, 77, 0
3, 211848, Note_on_c, 1, 76, 80
3, 211880, Note_on_c, 1, 76, 0
3, 211884, Note_on_c, 1, 74, 80
3, 211916, Note_on_c, 1, 74, 0
3, 211920, Note_on_c, 1, 76, 80
3, 211952, Note_on_c, 1, 76, 0
3, 211968, Note_on_c, 1, 77, 80
3, 212152, Note_on_c, 1, 77, 0
3, 212160, Note_on_c, 1, 72, 80
3, 212160, Note_on_c, 1, 69, 80
3, 212344, Note_on_c, 1, 69, 0
3, 212344, Note_on_c, 1, 72, 0
3, 212352, Note_on_c, 1, 72, 80
3, 212352, Note_on_c, 1, 69, 80
3, 212536, Note_on_c, 1, 69, 0
3, 212536, Note_on_c, 1, 72, 0
3, 212544, Note_on_c, 1, 72, 80
3, 212544, Note_on_c, 1, 69, 80
3, 212728, Note_on_c, 1, 69, 0
3, 212728, Note_on_c, 1, 72, 0
3, 212736, Note_on_c, 1, 72, 80
3, 212736, Note_on_c, 1, 69, 80
3, 213304, Note_on_c, 1, 69, 0
3, 213304, Note_on_c, 1, 72, 0
3, 213312, Note_on_c, 1, 77, 80
3, 213496, Note_on_c, 1, 77, 0
3, 213504, Note_on_c, 1, 77, 80
3, 213504, Note_on_c, 1, 74, 80
3, 213688, Note_on_c, 1, 74, 0
3, 213688, Note_on_c, 1, 77, 0
3, 213696, Note_on_c, 1, 74, 80
3, 213696, Note_on_c, 1, 70, 80
3, 213880, Note_on_c, 1, 70, 0
3, 213880, Note_on_c, 1, 74, 0
3, 213888, Note_on_c, 1, 74, 80
3, 213888, Note_on_c, 1, 70, 80
3, 213976, Note_on_c, 1, 70, 0
3, 213976, Note_on_c, 1, 74, 0
3, 214080, Note_on_c, 1, 74, 80
3, 214080, Note_on_c, 1, 70, 80
3, 214168, Note_on_c, 1, 70, 0
3, 214168, Note_on_c, 1, 74, 0
3, 214272, Note_on_c, 1, 74, 80
3, 214272, Note_on_c, 1, 70, 80
3, 214840, Note_on_c, 1, 70, 0
3, 214840, Note_on_c, 1, 74, 0
3, 214848, Note_on_c, 1, 77, 80
3, 215032, Note_on_c, 1, 77, 0
3, 215040, Note_on_c, 1, 77, 80
3, 215040, Note_on_c, 1, 69, 80
3, 215224, Note_on_c, 1, 69, 0
3, 215224, Note_on_c, 1, 77, 0
3, 215232, Note_on_c, 1, 72, 80
3, 215416, Note_on_c, 1, 72, 0
3, 215424, Note_on_c, 1, 69, 80
3, 215424, Note_on_c, 1, 65, 80
3, 215512, Note_on_c, 1, 65, 0
3, 215512, Note_on_c, 1, 69, 0
3, 215616, Note_on_c, 1, 72, 80
3, 215616, Note_on_c, 1, 69, 80
3, 215704, Note_on_c, 1, 69, 0
3, 215704, Note_on_c, 1, 72, 0
3, 215808, Note_on_c, 1, 72, 80
3, 215808, Note_on_c, 1, 69, 80
3, 215992, Note_on_c, 1, 69, 0
3, 215992, Note_on_c, 1, 72, 0
3, 216000, Note_on_c, 1, 70, 80
3, 216000, Note_on_c, 1, 67, 80
3, 216184, Note_on_c, 1, 67, 0
3, 216184, Note_on_c, 1, 70, 0
3, 216192, Note_on_c, 1, 69, 80
3, 216192, Note_on_c, 1, 65, 80
3, 216280, Note_on_c, 1, 65, 0
3, 216280, Note_on_c, 1, 69, 0
3, 216384, Note_on_c, 1, 67, 80
3, 216384, Note_on_c, 1, 64, 80
3, 216472, Note_on_c, 1, 64, 0
3, 216472, Note_on_c, 1, 67, 0
3, 216576, Note_on_c, 1, 65, 80
3, 216576, Note_on_c, 1, 57, 80
3, 216952, Note_on_c, 1, 57, 0
3, 216952, Note_on_c, 1, 65, 0
3, 218112, Note_on_c, 1, 63, 80
3, 218112, Note_on_c, 1, 60, 80
3, 218112, Note_on_c, 1, 53, 80
3, 219640, Note_on_c, 1, 53, 0
3, 219640, Note_on_c, 1, 60, 0
3, 219640, Note_on_c, 1, 63, 0
3, 219648, Note_on_c, 1, 62, 80
3, 219648, Note_on_c, 1, 58, 80
3, 219648, Note_on_c, 1, 53, 80
3, 219832, Note_on_c, 1, 53, 0
3, 219832, Note_on_c, 1, 58, 0
3, 219832, Note_on_c, 1, 62, 0
3, 219840, Note_on_c, 1, 65, 80
3, 220024, Note_on_c, 1, 65, 0
3, 220032, Note_on_c, 1, 65, 80
3, 220216, Note_on_c, 1, 65, 0
3, 220224, Note_on_c, 1, 72, 80
3, 220224, Note_on_c, 1, 75, 80
3, 220256, Note_on_c, 1, 75, 0
3, 220260, Note_on_c, 1, 77, 80
3, 220292, Note_on_c, 1, 77, 0
3, 220296, Note_on_c, 1, 75, 80
3, 220328, Note_on_c, 1, 75, 0
3, 220332, Note_on_c, 1, 74, 80
3, 220364, Note_on_c, 1, 74, 0
3, 220368, Note_on_c, 1, 75, 80
3, 220400, Note_on_c, 1, 75, 0
3, 220408, Note_on_c, 1, 72, 0
3, 220416, Note_on_c, 1, 74, 80
3, 220416, Note_on_c, 1, 70, 80
3, 220504, Note_on_c, 1, 70, 0
3, 220504, Note_on_c, 1, 74, 0
3, 220608, Note_on_c, 1, 74, 80
3, 220608, Note_on_c, 1, 70, 80
3, 220696, Note_on_c, 1, 70, 0
3, 220696, Note_on_c, 1, 74, 0
3, 220800, Note_on_c, 1, 75, 80
3, 220800, Note_on_c, 1, 72, 80
3, 220888, Note_on_c, 1, 72, 0
3, 220888, Note_on_c, 1, 75, 0
3, 220992, Note_on_c, 1, 75, 80
3, 220992, Note_on_c, 1, 72, 80
3, 221080, Note_on_c, 1, 72, 0
3, 221080, Note_on_c, 1, 75, 0
3, 221184, Note_on_c, 1, 74, 80
3, 221184, Note_on_c, 1, 70, 80
3, 221368, Note_on_c, 1, 70, 0
3, 221368, Note_on_c, 1, 74, 0
3, 221376, Note_on_c, 1, 53, 80
3, 221560, Note_on_c, 1, 53, 0
3, 221568, Note_on_c, 1, 53, 80
3, 221752, Note_on_c, 1, 53, 0
3, 221760, Note_on_c, 1, 60, 80
3, 221760, Note_on_c, 1, 63, 80
3, 221792, Note_on_c, 1, 63, 0
3, 221796, Note_on_c, 1, 65, 80
3, 221828, Note_on_c, 1, 65, 0
3, 221832, Note_on_c, 1, 63, 80
3, 221864, Note_on_c, 1, 63, 0
3, 221868, Note_on_c, 1, 62, 80
3, 221900, Note_on_c, 1, 62, 0
3, 221904, Note_on_c, 1, 63, 80
3, 221936, Note_on_c, 1, 63, 0
3, 221944, Note_on_c, 1, 60, 0
3, 221952, Note_on_c, 1, 62, 80
3, 221952, Note_on_c, 1, 58, 80
3, 222040, Note_on_c, 1, 58, 0
3, 222040, Note_on_c, 1, 62, 0
3, 222144, Note_on_c, 1, 62, 80
3, 222144, Note_on_c, 1, 58, 80
3, 222232, Note_on_c, 1, 58, 0
3, 222232, Note_on_c, 1, 62, 0
3, 222336, Note_on_c, 1, 63, 80
3, 222336, Note_on_c, 1, 60, 80
3, 222424, Note_on_c, 1, 60, 0
3, 222424, Note_on_c, 1, 63, 0
3, 222528, Note_on_c, 1, 63, 80
3, 222528, Note_on_c, 1, 60, 80
3, 222616, Note_on_c, 1, 60, 0
3, 222616, Note_on_c, 1, 63, 0
3, 222720, Note_on_c, 1, 62, 80
3, 222720, Note_on_c, 1, 58, 80
3, 223096, Note_on_c, 1, 58, 0
3, 223096, Note_on_c, 1, 62, 0
3, 223680, Note_on_c, 1, 65, 80
3, 223680, Note_on_c, 1, 62, 80
3, 223768, Note_on_c, 1, 62, 0
3, 223768, Note_on_c, 1, 65, 0
3, 223872, Note_on_c, 1, 65, 80
3, 223872, Note_on_c, 1, 62, 80
3, 223960, Note_on_c, 1, 62, 0
3, 223960, Note_on_c, 1, 65, 0
3, 224064, Note_on_c, 1, 65, 80
3, 224064, Note_on_c, 1, 62, 80
3, 224152, Note_on_c, 1, 62, 0
3, 224152, Note_on_c, 1, 65, 0
3, 224256, Note_on_c, 1, 67, 80
3, 224256, Note_on_c, 1, 64, 80
3, 224256, Note_on_c, 1, 61, 80
3, 224632, Note_on_c, 1, 61, 0
3, 224632, Note_on_c, 1, 64, 0
3, 224632, Note_on_c, 1, 67, 0
3, 225216, Note_on_c, 1, 67, 80
3, 225216, Note_on_c, 1, 64, 80
3, 225216, Note_on_c, 1, 61, 80
3, 225304, Note_on_c, 1, 61, 0
3, 225304, Note_on_c, 1, 64, 0
3, 225304, Note_on_c, 1, 67, 0
3, 225408, Note_on_c, 1, 67, 80
3, 225408, Note_on_c, 1, 64, 80
3, 225408, Note_on_c, 1, 61, 80
3, 225496, Note_on_c, 1, 61, 0
3, 225496, Note_on_c, 1, 64, 0
3, 225496, Note_on_c, 1, 67, 0
3, 225600, Note_on_c, 1, 67, 80
3, 225600, Note_on_c, 1, 64, 80
3, 225600, Note_on_c, 1, 61, 80
3, 225688, Note_on_c, 1, 61, 0
3, 225688, Note_on_c, 1, 64, 0
3, 225688, Note_on_c, 1, 67, 0
3, 225792, Note_on_c, 1, 68, 80
3, 225792, Note_on_c, 1, 65, 80
3, 225792, Note_on_c, 1, 62, 80
3, 226168, Note_on_c, 1, 62, 0
3, 226168, Note_on_c, 1, 65, 0
3, 226168, Note_on_c, 1, 68, 0
3, 226752, Note_on_c, 1, 68, 80
3, 226752, Note_on_c, 1, 65, 80
3, 226752, Note_on_c, 1, 62, 80
3, 226840, Note_on_c, 1, 62, 0
3, 226840, Note_on_c, 1, 65, 0
3, 226840, Note_on_c, 1, 68, 0
3, 226944, Note_on_c, 1, 65, 80
3, 226944, Note_on_c, 1, 62, 80
3, 226944, Note_on_c, 1, 68, 80
3, 227032, Note_on_c, 1, 68, 0
3, 227032, Note_on_c, 1, 62, 0
3, 227032, Note_on_c, 1, 65, 0
3, 227136, Note_on_c, 1, 65, 80
3, 227136, Note_on_c, 1, 62, 80
3, 227136, Note_on_c, 1, 68, 80
3, 227224, Note_on_c, 1, 68, 0
3, 227224, Note_on_c, 1, 62, 0
3, 227224, Note_on_c, 1, 65, 0
3, 227328, Note_on_c, 1, 69, 80
3, 227328, Note_on_c, 1, 65, 80
3, 227704, Note_on_c, 1, 65, 0
3, 227704, Note_on_c, 1, 69, 0
3, 228672, Note_on_c, 1, 64, 80
3, 228672, Note_on_c, 1, 60, 80
3, 228760, Note_on_c, 1, 60, 0
3, 228760, Note_on_c, 1, 64, 0
3, 228864, Note_on_c, 1, 65, 80
3, 228864, Note_on_c, 1, 57, 80
3, 228952, Note_on_c, 1, 57, 0
3, 228952, Note_on_c, 1, 65, 0
3, 229056, Note_on_c, 1, 67, 80
3, 229056, Note_on_c, 1, 63, 80
3, 229144, Note_on_c, 1, 63, 0
3, 229144, Note_on_c, 1, 67, 0
3, 229248, Note_on_c, 1, 69, 80
3, 229248, Note_on_c, 1, 65, 80
3, 229336, Note_on_c, 1, 65, 0
3, 229336, Note_on_c, 1, 69, 0
3, 229440, Note_on_c, 1, 70, 80
3, 229440, Note_on_c, 1, 67, 80
3, 229528, Note_on_c, 1, 67, 0
3, 229528, Note_on_c, 1, 70, 0
3, 229632, Note_on_c, 1, 72, 80
3, 229632, Note_on_c, 1, 69, 80
3, 229720, Note_on_c, 1, 69, 0
3, 229720, Note_on_c, 1, 72, 0
3, 229824, Note_on_c, 1, 75, 80
3, 229824, Note_on_c, 1, 67, 80
3, 229912, Note_on_c, 1, 67, 0
3, 229912, Note_on_c, 1, 75, 0
3, 230016, Note_on_c, 1, 77, 80
3, 230016, Note_on_c, 1, 69, 80
3, 230104, Note_on_c, 1, 69, 0
3, 230104, Note_on_c, 1, 77, 0
3, 230208, Note_on_c, 1, 79, 80
3, 230208, Note_on_c, 1, 75, 80
3, 230296, Note_on_c, 1, 75, 0
3, 230296, Note_on_c, 1, 79, 0
3, 230400, Note_on_c, 1, 81, 80
3, 230400, Note_on_c, 1, 77, 80
3, 230400, Note_on_c, 1, 72, 80
3, 230776, Note_on_c, 1, 72, 0
3, 230776, Note_on_c, 1, 77, 0
3, 230776, Note_on_c, 1, 81, 0
3, 231168, Note_on_c, 1, 81, 80
3, 231168, Note_on_c, 1, 77, 80
3, 231168, Note_on_c, 1, 72, 80
3, 231544, Note_on_c, 1, 72, 0
3, 231544, Note_on_c, 1, 77, 0
3, 231544, Note_on_c, 1, 81, 0
3, 231936, Note_on_c, 1, 77, 80
3, 231936, Note_on_c, 1, 72, 80
3, 232312, Note_on_c, 1, 72, 0
3, 232312, Note_on_c, 1, 77, 0
3, 232704, Note_on_c, 1, 72, 80
3, 232704, Note_on_c, 1, 69, 80
3, 232704, Note_on_c, 1, 60, 80
3, 233080, Note_on_c, 1, 60, 0
3, 233080, Note_on_c, 1, 69, 0
3, 233080, Note_on_c, 1, 72, 0
3, 233472, Note_on_c, 1, 69, 80
3, 233472, Note_on_c, 1, 65, 80
3, 233472, Note_on_c, 1, 60, 80
3, 233656, Note_on_c, 1, 60, 0
3, 233656, Note_on_c, 1, 65, 0
3, 233656, Note_on_c, 1, 69, 0
3, 233664, Note_on_c, 1, 69, 80
3, 233664, Note_on_c, 1, 60, 80
3, 233664, Note_on_c, 1, 65, 80
3, 233848, Note_on_c, 1, 65, 0
3, 233848, Note_on_c, 1, 60, 0
3, 233848, Note_on_c, 1, 69, 0
3, 233856, Note_on_c, 1, 69, 80
3, 233856, Note_on_c, 1, 65, 80
3, 233856, Note_on_c, 1, 60, 80
3, 234040, Note_on_c, 1, 60, 0
3, 234040, Note_on_c, 1, 65, 0
3, 234040, Note_on_c, 1, 69, 0
3, 234048, Note_on_c, 1, 69, 80
3, 234048, Note_on_c, 1, 65, 80
3, 234048, Note_on_c, 1, 60, 80
3, 234232, Note_on_c, 1, 60, 0
3, 234232, Note_on_c, 1, 65, 0
3, 234232, Note_on_c, 1, 69, 0
3, 234240, Note_on_c, 1, 69, 80
3, 234240, Note_on_c, 1, 65, 80
3, 234240, Note_on_c, 1, 60, 80
3, 234424, Note_on_c, 1, 60, 0
3, 234424, Note_on_c, 1, 65, 0
3, 234424, Note_on_c, 1, 69, 0
3, 234432, Note_on_c, 1, 69, 80
3, 234432, Note_on_c, 1, 65, 80
3, 234432, Note_on_c, 1, 60, 80
3, 234616, Note_on_c, 1, 60, 0
3, 234616, Note_on_c, 1, 65, 0
3, 234616, Note_on_c, 1, 69, 0
3, 234624, Note_on_c, 1, 69, 80
3, 234624, Note_on_c, 1, 65, 80
3, 234624, Note_on_c, 1, 60, 80
3, 234808, Note_on_c, 1, 60, 0
3, 234808, Note_on_c, 1, 65, 0
3, 234808, Note_on_c, 1, 69, 0
3, 234816, Note_on_c, 1, 69, 80
3, 234816, Note_on_c, 1, 65, 80
3, 234816, Note_on_c, 1, 60, 80
3, 235000, Note_on_c, 1, 60, 0
3, 235000, Note_on_c, 1, 65, 0
3, 235000, Note_on_c, 1, 69, 0
3, 235008, Note_on_c, 1, 67, 81
3, 235008, Note_on_c, 1, 65, 81
3, 235008, Note_on_c, 1, 60, 81
3, 235192, Note_on_c, 1, 60, 0
3, 235192, Note_on_c, 1, 65, 0
3, 235192, Note_on_c, 1, 67, 0
3, 235200, Note_on_c, 1, 67, 84
3, 235200, Note_on_c, 1, 65, 84
3, 235200, Note_on_c, 1, 60, 84
3, 235384, Note_on_c, 1, 60, 0
3, 235384, Note_on_c, 1, 65, 0
3, 235384, Note_on_c, 1, 67, 0
3, 235392, Note_on_c, 1, 67, 87
3, 235392, Note_on_c, 1, 65, 87
3, 235392, Note_on_c, 1, 60, 87
3, 235576, Note_on_c, 1, 60, 0
3, 235576, Note_on_c, 1, 65, 0
3, 235576, Note_on_c, 1, 67, 0
3, 235584, Note_on_c, 1, 67, 90
3, 235584, Note_on_c, 1, 65, 90
3, 235584, Note_on_c, 1, 60, 90
3, 235768, Note_on_c, 1, 60, 0
3, 235768, Note_on_c, 1, 65, 0
3, 235768, Note_on_c, 1, 67, 0
3, 235776, Note_on_c, 1, 67, 95
3, 235776, Note_on_c, 1, 58, 95
3, 235776, Note_on_c, 1, 64, 95
3, 235960, Note_on_c, 1, 64, 0
3, 235960, Note_on_c, 1, 58, 0
3, 235960, Note_on_c, 1, 67, 0
3, 235968, Note_on_c, 1, 67, 98
3, 235968, Note_on_c, 1, 64, 98
3, 235968, Note_on_c, 1, 58, 98
3, 236152, Note_on_c, 1, 58, 0
3, 236152, Note_on_c, 1, 64, 0
3, 236152, Note_on_c, 1, 67, 0
3, 236160, Note_on_c, 1, 67, 101
3, 236160, Note_on_c, 1, 64, 101
3, 236160, Note_on_c, 1, 58, 101
3, 236344, Note_on_c, 1, 58, 0
3, 236344, Note_on_c, 1, 64, 0
3, 236344, Note_on_c, 1, 67, 0
3, 236352, Note_on_c, 1, 67, 104
3, 236352, Note_on_c, 1, 64, 104
3, 236352, Note_on_c, 1, 58, 104
3, 236536, Note_on_c, 1, 58, 0
3, 236536, Note_on_c, 1, 64, 0
3, 236536, Note_on_c, 1, 67, 0
3, 236544, Note_on_c, 1, 65, 107
3, 236920, Note_on_c, 1, 65, 0
3, 237120, Note_on_c, 1, 81, 107
3, 237208, Note_on_c, 1, 81, 0
3, 237216, Note_on_c, 1, 77, 107
3, 237304, Note_on_c, 1, 77, 0
3, 237312, Note_on_c, 1, 72, 107
3, 237400, Note_on_c, 1, 72, 0
3, 237504, Note_on_c, 1, 72, 107
3, 237592, Note_on_c, 1, 72, 0
3, 237696, Note_on_c, 1, 72, 107
3, 237784, Note_on_c, 1, 72, 0
3, 237888, Note_on_c, 1, 72, 107
3, 237976, Note_on_c, 1, 72, 0
3, 238080, Note_on_c, 1, 84, 107
3, 238264, Note_on_c, 1, 84, 0
3, 238272, Note_on_c, 1, 82, 107
3, 238456, Note_on_c, 1, 82, 0
3, 238464, Note_on_c, 1, 82, 107
3, 239032, Note_on_c, 1, 82, 0
3, 239040, Note_on_c, 1, 84, 107
3, 239128, Note_on_c, 1, 84, 0
3, 239136, Note_on_c, 1, 82, 107
3, 239224, Note_on_c, 1, 82, 0
3, 239232, Note_on_c, 1, 81, 107
3, 239320, Note_on_c, 1, 81, 0
3, 239328, Note_on_c, 1, 79, 107
3, 239416, Note_on_c, 1, 79, 0
3, 239424, Note_on_c, 1, 77, 107
3, 239512, Note_on_c, 1, 77, 0
3, 239520, Note_on_c, 1, 76, 107
3, 239608, Note_on_c, 1, 76, 0
3, 239616, Note_on_c, 1, 79, 107
3, 239800, Note_on_c, 1, 79, 0
3, 239808, Note_on_c, 1, 77, 107
3, 239992, Note_on_c, 1, 77, 0
3, 240192, Note_on_c, 1, 81, 107
3, 240280, Note_on_c, 1, 81, 0
3, 240288, Note_on_c, 1, 77, 107
3, 240376, Note_on_c, 1, 77, 0
3, 240384, Note_on_c, 1, 72, 107
3, 240472, Note_on_c, 1, 72, 0
3, 240576, Note_on_c, 1, 72, 107
3, 240664, Note_on_c, 1, 72, 0
3, 240768, Note_on_c, 1, 72, 107
3, 240856, Note_on_c, 1, 72, 0
3, 240960, Note_on_c, 1, 72, 107
3, 241048, Note_on_c, 1, 72, 0
3, 241152, Note_on_c, 1, 72, 107
3, 241336, Note_on_c, 1, 72, 0
3, 241344, Note_on_c, 1, 84, 107
3, 241432, Note_on_c, 1, 84, 0
3, 241440, Note_on_c, 1, 82, 107
3, 241528, Note_on_c, 1, 82, 0
3, 241536, Note_on_c, 1, 82, 107
3, 242104, Note_on_c, 1, 82, 0
3, 242112, Note_on_c, 1, 84, 107
3, 242200, Note_on_c, 1, 84, 0
3, 242208, Note_on_c, 1, 82, 107
3, 242296, Note_on_c, 1, 82, 0
3, 242304, Note_on_c, 1, 81, 107
3, 242392, Note_on_c, 1, 81, 0
3, 242400, Note_on_c, 1, 79, 107
3, 242488, Note_on_c, 1, 79, 0
3, 242496, Note_on_c, 1, 77, 107
3, 242584, Note_on_c, 1, 77, 0
3, 242592, Note_on_c, 1, 76, 107
3, 242680, Note_on_c, 1, 76, 0
3, 242688, Note_on_c, 1, 77, 107
3, 242776, Note_on_c, 1, 77, 0
3, 242784, Note_on_c, 1, 76, 107
3, 242872, Note_on_c, 1, 76, 0
3, 242880, Note_on_c, 1, 79, 107
3, 242968, Note_on_c, 1, 79, 0
3, 242976, Note_on_c, 1, 77, 107
3, 243064, Note_on_c, 1, 77, 0
3, 243072, Note_on_c, 1, 81, 107
3, 243160, Note_on_c, 1, 81, 0
3, 243168, Note_on_c, 1, 79, 107
3, 243256, Note_on_c, 1, 79, 0
3, 243264, Note_on_c, 1, 77, 107
3, 243352, Note_on_c, 1, 77, 0
3, 243360, Note_on_c, 1, 76, 107
3, 243448, Note_on_c, 1, 76, 0
3, 243456, Note_on_c, 1, 74, 107
3, 243544, Note_on_c, 1, 74, 0
3, 243552, Note_on_c, 1, 73, 107
3, 243640, Note_on_c, 1, 73, 0
3, 243648, Note_on_c, 1, 76, 107
3, 243736, Note_on_c, 1, 76, 0
3, 243744, Note_on_c, 1, 74, 107
3, 243832, Note_on_c, 1, 74, 0
3, 243840, Note_on_c, 1, 77, 107
3, 244024, Note_on_c, 1, 77, 0
3, 244224, Note_on_c, 1, 74, 107
3, 244312, Note_on_c, 1, 74, 0
3, 244320, Note_on_c, 1, 73, 107
3, 244408, Note_on_c, 1, 73, 0
3, 244416, Note_on_c, 1, 76, 107
3, 244504, Note_on_c, 1, 76, 0
3, 244512, Note_on_c, 1, 74, 107
3, 244600, Note_on_c, 1, 74, 0
3, 244608, Note_on_c, 1, 77, 107
3, 244696, Note_on_c, 1, 77, 0
3, 244704, Note_on_c, 1, 76, 107
3, 244792, Note_on_c, 1, 76, 0
3, 244800, Note_on_c, 1, 74, 107
3, 244888, Note_on_c, 1, 74, 0
3, 244896, Note_on_c, 1, 72, 107
3, 244984, Note_on_c, 1, 72, 0
3, 244992, Note_on_c, 1, 70, 107
3, 245080, Note_on_c, 1, 70, 0
3, 245088, Note_on_c, 1, 69, 107
3, 245176, Note_on_c, 1, 69, 0
3, 245184, Note_on_c, 1, 72, 107
3, 245272, Note_on_c, 1, 72, 0
3, 245280, Note_on_c, 1, 70, 107
3, 245368, Note_on_c, 1, 70, 0
3, 245376, Note_on_c, 1, 74, 107
3, 245560, Note_on_c, 1, 74, 0
3, 245760, Note_on_c, 1, 70, 107
3, 245848, Note_on_c, 1, 70, 0
3, 245856, Note_on_c, 1, 69, 107
3, 245944, Note_on_c, 1, 69, 0
3, 245952, Note_on_c, 1, 72, 107
3, 246040, Note_on_c, 1, 72, 0
3, 246048, Note_on_c, 1, 70, 107
3, 246136, Note_on_c, 1, 70, 0
3, 246144, Note_on_c, 1, 74, 107
3, 246232, Note_on_c, 1, 74, 0
3, 246240, Note_on_c, 1, 72, 107
3, 246328, Note_on_c, 1, 72, 0
3, 246336, Note_on_c, 1, 70, 107
3, 246424, Note_on_c, 1, 70, 0
3, 246432, Note_on_c, 1, 69, 107
3, 246520, Note_on_c, 1, 69, 0
3, 246528, Note_on_c, 1, 67, 107
3, 246616, Note_on_c, 1, 67, 0
3, 246624, Note_on_c, 1, 66, 107
3, 246712, Note_on_c, 1, 66, 0
3, 246720, Note_on_c, 1, 69, 107
3, 246808, Note_on_c, 1, 69, 0
3, 246816, Note_on_c, 1, 67, 107
3, 246904, Note_on_c, 1, 67, 0
3, 246912, Note_on_c, 1, 70, 107
3, 247000, Note_on_c, 1, 70, 0
3, 247008, Note_on_c, 1, 69, 107
3, 247096, Note_on_c, 1, 69, 0
3, 247104, Note_on_c, 1, 67, 107
3, 247192, Note_on_c, 1, 67, 0
3, 247200, Note_on_c, 1, 65, 107
3, 247288, Note_on_c, 1, 65, 0
3, 247296, Note_on_c, 1, 64, 107
3, 247384, Note_on_c, 1, 64, 0
3, 247392, Note_on_c, 1, 62, 107
3, 247480, Note_on_c, 1, 62, 0
3, 247488, Note_on_c, 1, 60, 107
3, 247576, Note_on_c, 1, 60, 0
3, 247584, Note_on_c, 1, 62, 107
3, 247672, Note_on_c, 1, 62, 0
3, 247680, Note_on_c, 1, 64, 107
3, 247768, Note_on_c, 1, 64, 0
3, 247776, Note_on_c, 1, 65, 107
3, 247864, Note_on_c, 1, 65, 0
3, 247872, Note_on_c, 1, 67, 107
3, 247960, Note_on_c, 1, 67, 0
3, 247968, Note_on_c, 1, 69, 107
3, 248056, Note_on_c, 1, 69, 0
3, 248064, Note_on_c, 1, 70, 107
3, 248152, Note_on_c, 1, 70, 0
3, 248160, Note_on_c, 1, 69, 107
3, 248248, Note_on_c, 1, 69, 0
3, 248256, Note_on_c, 1, 67, 107
3, 248344, Note_on_c, 1, 67, 0
3, 248352, Note_on_c, 1, 69, 107
3, 248440, Note_on_c, 1, 69, 0
3, 248448, Note_on_c, 1, 70, 107
3, 248536, Note_on_c, 1, 70, 0
3, 248544, Note_on_c, 1, 72, 107
3, 248632, Note_on_c, 1, 72, 0
3, 248640, Note_on_c, 1, 74, 107
3, 248728, Note_on_c, 1, 74, 0
3, 248736, Note_on_c, 1, 76, 107
3, 248824, Note_on_c, 1, 76, 0
3, 248832, Note_on_c, 1, 77, 107
3, 249016, Note_on_c, 1, 77, 0
3, 249024, Note_on_c, 1, 81, 107
3, 249112, Note_on_c, 1, 81, 0
3, 249120, Note_on_c, 1, 77, 107
3, 249208, Note_on_c, 1, 77, 0
3, 249216, Note_on_c, 1, 84, 107
3, 249400, Note_on_c, 1, 84, 0
3, 249408, Note_on_c, 1, 69, 107
3, 249592, Note_on_c, 1, 69, 0
3, 249600, Note_on_c, 1, 70, 107
3, 249976, Note_on_c, 1, 70, 0
3, 249984, Note_on_c, 1, 86, 107
3, 250360, Note_on_c, 1, 86, 0
3, 250368, Note_on_c, 1, 84, 107
3, 250552, Note_on_c, 1, 84, 0
3, 250560, Note_on_c, 1, 81, 107
3, 250648, Note_on_c, 1, 81, 0
3, 250656, Note_on_c, 1, 77, 107
3, 250744, Note_on_c, 1, 77, 0
3, 250752, Note_on_c, 1, 72, 107
3, 250944, Note_on_c, 1, 69, 107
3, 251032, Note_on_c, 1, 69, 0
3, 251040, Note_on_c, 1, 65, 107
3, 251128, Note_on_c, 1, 65, 0
3, 251128, Note_on_c, 1, 72, 0
3, 251136, Note_on_c, 1, 60, 107
3, 251512, Note_on_c, 1, 60, 0
3, 251520, Note_on_c, 1, 76, 107
3, 251520, Note_on_c, 1, 72, 107
3, 251520, Note_on_c, 1, 67, 107
3, 251896, Note_on_c, 1, 67, 0
3, 251896, Note_on_c, 1, 72, 0
3, 251896, Note_on_c, 1, 76, 0
3, 251904, Note_on_c, 1, 77, 107
3, 251904, Note_on_c, 1, 72, 107
3, 251904, Note_on_c, 1, 69, 107
3, 252280, Note_on_c, 1, 69, 0
3, 252280, Note_on_c, 1, 72, 0
3, 252280, Note_on_c, 1, 77, 0
3, 252672, Note_on_c, 1, 77, 80
3, 253048, Note_on_c, 1, 77, 0
3, 253056, Note_on_c, 1, 81, 80
3, 253240, Note_on_c, 1, 81, 0
3, 253440, Note_on_c, 1, 74, 80
3, 253816, Note_on_c, 1, 74, 0
3, 253824, Note_on_c, 1, 77, 80
3, 254008, Note_on_c, 1, 77, 0
3, 254208, Note_on_c, 1, 67, 80
3, 254488, Note_on_c, 1, 67, 0
3, 254496, Note_on_c, 1, 67, 80
3, 254584, Note_on_c, 1, 67, 0
3, 254592, Note_on_c, 1, 69, 80
3, 254872, Note_on_c, 1, 69, 0
3, 254880, Note_on_c, 1, 69, 80
3, 254968, Note_on_c, 1, 69, 0
3, 254976, Note_on_c, 1, 72, 80
3, 255352, Note_on_c, 1, 72, 0
3, 255360, Note_on_c, 1, 70, 80
3, 255544, Note_on_c, 1, 70, 0
3, 255744, Note_on_c, 1, 82, 80
3, 256120, Note_on_c, 1, 82, 0
3, 256128, Note_on_c, 1, 86, 80
3, 256312, Note_on_c, 1, 86, 0
3, 256512, Note_on_c, 1, 79, 80
3, 256888, Note_on_c, 1, 79, 0
3, 256896, Note_on_c, 1, 82, 80
3, 257080, Note_on_c, 1, 82, 0
3, 257280, Note_on_c, 1, 74, 80
3, 257560, Note_on_c, 1, 74, 0
3, 257568, Note_on_c, 1, 74, 80
3, 257656, Note_on_c, 1, 74, 0
3, 257664, Note_on_c, 1, 76, 80
3, 257944, Note_on_c, 1, 76, 0
3, 257952, Note_on_c, 1, 76, 80
3, 258040, Note_on_c, 1, 76, 0
3, 258048, Note_on_c, 1, 77, 80
3, 258136, Note_on_c, 1, 77, 0
3, 258144, Note_on_c, 1, 81, 80
3, 258232, Note_on_c, 1, 81, 0
3, 258240, Note_on_c, 1, 84, 80
3, 258328, Note_on_c, 1, 84, 0
3, 258336, Note_on_c, 1, 81, 80
3, 258424, Note_on_c, 1, 81, 0
3, 258432, Note_on_c, 1, 77, 80
3, 258520, Note_on_c, 1, 77, 0
3, 258528, Note_on_c, 1, 72, 80
3, 258616, Note_on_c, 1, 72, 0
3, 258624, Note_on_c, 1, 69, 80
3, 258712, Note_on_c, 1, 69, 0
3, 258720, Note_on_c, 1, 72, 80
3, 258808, Note_on_c, 1, 72, 0
3, 258816, Note_on_c, 1, 74, 80
3, 258904, Note_on_c, 1, 74, 0
3, 258912, Note_on_c, 1, 70, 80
3, 259000, Note_on_c, 1, 70, 0
3, 259008, Note_on_c, 1, 74, 80
3, 259096, Note_on_c, 1, 74, 0
3, 259104, Note_on_c, 1, 77, 80
3, 259192, Note_on_c, 1, 77, 0
3, 259200, Note_on_c, 1, 76, 80
3, 259288, Note_on_c, 1, 76, 0
3, 259296, Note_on_c, 1, 72, 80
3, 259384, Note_on_c, 1, 72, 0
3, 259392, Note_on_c, 1, 76, 80
3, 259480, Note_on_c, 1, 76, 0
3, 259488, Note_on_c, 1, 79, 80
3, 259576, Note_on_c, 1, 79, 0
3, 259584, Note_on_c, 1, 77, 80
3, 259672, Note_on_c, 1, 77, 0
3, 259680, Note_on_c, 1, 81, 80
3, 259768, Note_on_c, 1, 81, 0
3, 259776, Note_on_c, 1, 84, 80
3, 259864, Note_on_c, 1, 84, 0
3, 259872, Note_on_c, 1, 81, 80
3, 259960, Note_on_c, 1, 81, 0
3, 259968, Note_on_c, 1, 77, 80
3, 260056, Note_on_c, 1, 77, 0
3, 260064, Note_on_c, 1, 72, 80
3, 260152, Note_on_c, 1, 72, 0
3, 260160, Note_on_c, 1, 69, 80
3, 260248, Note_on_c, 1, 69, 0
3, 260256, Note_on_c, 1, 72, 80
3, 260344, Note_on_c, 1, 72, 0
3, 260352, Note_on_c, 1, 74, 80
3, 260440, Note_on_c, 1, 74, 0
3, 260448, Note_on_c, 1, 70, 80
3, 260536, Note_on_c, 1, 70, 0
3, 260544, Note_on_c, 1, 74, 80
3, 260632, Note_on_c, 1, 74, 0
3, 260640, Note_on_c, 1, 77, 80
3, 260728, Note_on_c, 1, 77, 0
3, 260736, Note_on_c, 1, 76, 80
3, 260824, Note_on_c, 1, 76, 0
3, 260832, Note_on_c, 1, 72, 80
3, 260920, Note_on_c, 1, 72, 0
3, 260928, Note_on_c, 1, 76, 80
3, 261016, Note_on_c, 1, 76, 0
3, 261024, Note_on_c, 1, 79, 80
3, 261112, Note_on_c, 1, 79, 0
3, 261120, Note_on_c, 1, 77, 107
3, 261208, Note_on_c, 1, 77, 0
3, 261216, Note_on_c, 1, 72, 107
3, 261304, Note_on_c, 1, 72, 0
3, 261312, Note_on_c, 1, 77, 107
3, 261400, Note_on_c, 1, 77, 0
3, 261408, Note_on_c, 1, 72, 107
3, 261496, Note_on_c, 1, 72, 0
3, 261504, Note_on_c, 1, 69, 107
3, 261592, Note_on_c, 1, 69, 0
3, 261600, Note_on_c, 1, 65, 107
3, 261688, Note_on_c, 1, 65, 0
3, 261696, Note_on_c, 1, 69, 107
3, 261784, Note_on_c, 1, 69, 0
3, 261792, Note_on_c, 1, 72, 107
3, 261880, Note_on_c, 1, 72, 0
3, 261888, Note_on_c, 1, 77, 107
3, 261976, Note_on_c, 1, 77, 0
3, 261984, Note_on_c, 1, 72, 107
3, 262072, Note_on_c, 1, 72, 0
3, 262080, Note_on_c, 1, 77, 107
3, 262168, Note_on_c, 1, 77, 0
3, 262176, Note_on_c, 1, 81, 107
3, 262264, Note_on_c, 1, 81, 0
3, 262272, Note_on_c, 1, 84, 107
3, 262360, Note_on_c, 1, 84, 0
3, 262368, Note_on_c, 1, 81, 107
3, 262456, Note_on_c, 1, 81, 0
3, 262464, Note_on_c, 1, 84, 107
3, 262552, Note_on_c, 1, 84, 0
3, 262560, Note_on_c, 1, 81, 107
3, 262648, Note_on_c, 1, 81, 0
3, 262656, Note_on_c, 1, 77, 107
3, 263032, Note_on_c, 1, 77, 0
3, 263040, Note_on_c, 1, 81, 107
3, 263040, Note_on_c, 1, 77, 107
3, 263040, Note_on_c, 1, 72, 107
3, 263416, Note_on_c, 1, 72, 0
3, 263416, Note_on_c, 1, 77, 0
3, 263416, Note_on_c, 1, 81, 0
3, 263424, Note_on_c, 1, 77, 107
3, 263424, Note_on_c, 1, 72, 107
3, 263424, Note_on_c, 1, 69, 107
3, 263800, Note_on_c, 1, 69, 0
3, 263800, Note_on_c, 1, 72, 0
3, 263800, Note_on_c, 1, 77, 0
3, 264192, Note_on_c, 1, 69, 80
3, 264952, Note_on_c, 1, 69, 0
3, 264960, Note_on_c, 1, 65, 80
3, 265528, Note_on_c, 1, 65, 0
3, 265536, Note_on_c, 1, 67, 80
3, 265720, Note_on_c, 1, 67, 0
3, 265728, Note_on_c, 1, 70, 80
3, 265912, Note_on_c, 1, 70, 0
3, 265920, Note_on_c, 1, 69, 80
3, 266104, Note_on_c, 1, 69, 0
3, 266112, Note_on_c, 1, 69, 80
3, 266296, Note_on_c, 1, 69, 0
3, 266304, Note_on_c, 1, 69, 80
3, 266488, Note_on_c, 1, 69, 0
3, 266496, Note_on_c, 1, 69, 80
3, 266872, Note_on_c, 1, 69, 0
3, 267648, Note_on_c, 1, 64, 80
3, 267648, Note_on_c, 1, 60, 80
3, 268024, Note_on_c, 1, 60, 0
3, 268024, Note_on_c, 1, 64, 0
3, 268032, Note_on_c, 1, 64, 80
3, 268032, Note_on_c, 1, 60, 80
3, 268216, Note_on_c, 1, 60, 0
3, 268216, Note_on_c, 1, 64, 0
3, 268224, Note_on_c, 1, 65, 80
3, 268224, Note_on_c, 1, 62, 80
3, 268408, Note_on_c, 1, 62, 0
3, 268408, Note_on_c, 1, 65, 0
3, 268416, Note_on_c, 1, 67, 80
3, 268416, Note_on_c, 1, 64, 80
3, 268600, Note_on_c, 1, 64, 0
3, 268600, Note_on_c, 1, 67, 0
3, 268608, Note_on_c, 1, 69, 80
3, 268608, Note_on_c, 1, 65, 80
3, 268792, Note_on_c, 1, 65, 0
3, 268792, Note_on_c, 1, 69, 0
3, 268800, Note_on_c, 1, 70, 80
3, 268800, Note_on_c, 1, 67, 80
3, 269176, Note_on_c, 1, 67, 0
3, 269176, Note_on_c, 1, 70, 0
3, 269184, Note_on_c, 1, 67, 80
3, 269184, Note_on_c, 1, 64, 80
3, 269560, Note_on_c, 1, 64, 0
3, 269560, Note_on_c, 1, 67, 0
3, 269952, Note_on_c, 1, 70, 80
3, 269952, Note_on_c, 1, 67, 80
3, 270328, Note_on_c, 1, 67, 0
3, 270328, Note_on_c, 1, 70, 0
3, 270336, Note_on_c, 1, 69, 80
3, 271096, Note_on_c, 1, 69, 0
3, 271104, Note_on_c, 1, 65, 80
3, 271672, Note_on_c, 1, 65, 0
3, 271680, Note_on_c, 1, 67, 80
3, 271864, Note_on_c, 1, 67, 0
3, 271872, Note_on_c, 1, 70, 80
3, 272056, Note_on_c, 1, 70, 0
3, 272064, Note_on_c, 1, 69, 80
3, 272248, Note_on_c, 1, 69, 0
3, 272256, Note_on_c, 1, 69, 80
3, 272440, Note_on_c, 1, 69, 0
3, 272448, Note_on_c, 1, 69, 80
3, 272632, Note_on_c, 1, 69, 0
3, 272640, Note_on_c, 1, 69, 80
3, 273016, Note_on_c, 1, 69, 0
3, 273792, Note_on_c, 1, 64, 80
3, 273792, Note_on_c, 1, 60, 80
3, 274168, Note_on_c, 1, 60, 0
3, 274168, Note_on_c, 1, 64, 0
3, 274176, Note_on_c, 1, 64, 80
3, 274176, Note_on_c, 1, 60, 80
3, 274360, Note_on_c, 1, 60, 0
3, 274360, Note_on_c, 1, 64, 0
3, 274368, Note_on_c, 1, 65, 80
3, 274368, Note_on_c, 1, 62, 80
3, 274552, Note_on_c, 1, 62, 0
3, 274552, Note_on_c, 1, 65, 0
3, 274560, Note_on_c, 1, 67, 80
3, 274560, Note_on_c, 1, 64, 80
3, 274744, Note_on_c, 1, 64, 0
3, 274744, Note_on_c, 1, 67, 0
3, 274752, Note_on_c, 1, 69, 80
3, 274752, Note_on_c, 1, 65, 80
3, 274936, Note_on_c, 1, 65, 0
3, 274936, Note_on_c, 1, 69, 0
3, 274944, Note_on_c, 1, 70, 80
3, 274944, Note_on_c, 1, 67, 80
3, 275320, Note_on_c, 1, 67, 0
3, 275320, Note_on_c, 1, 70, 0
3, 275328, Note_on_c, 1, 67, 80
3, 275328, Note_on_c, 1, 64, 80
3, 275704, Note_on_c, 1, 64, 0
3, 275704, Note_on_c, 1, 67, 0
3, 276096, Note_on_c, 1, 70, 80
3, 276096, Note_on_c, 1, 67, 80
3, 276472, Note_on_c, 1, 67, 0
3, 276472, Note_on_c, 1, 70, 0
3, 276480, Note_on_c, 1, 69, 80
3, 276480, Note_on_c, 1, 65, 80
3, 276664, Note_on_c, 1, 65, 0
3, 276664, Note_on_c, 1, 69, 0
3, 276672, Note_on_c, 1, 72, 80
3, 276672, Note_on_c, 1, 69, 80
3, 276856, Note_on_c, 1, 69, 0
3, 276856, Note_on_c, 1, 72, 0
3, 276864, Note_on_c, 1, 69, 80
3, 276864, Note_on_c, 1, 65, 80
3, 277240, Note_on_c, 1, 65, 0
3, 277240, Note_on_c, 1, 69, 0
3, 278400, Note_on_c, 1, 70, 80
3, 278400, Note_on_c, 1, 64, 80
3, 278776, Note_on_c, 1, 64, 0
3, 278776, Note_on_c, 1, 70, 0
3, 279168, Note_on_c, 1, 67, 80
3, 279168, Note_on_c, 1, 64, 80
3, 279544, Note_on_c, 1, 64, 0
3, 279544, Note_on_c, 1, 67, 0
3, 279552, Note_on_c, 1, 69, 80
3, 279552, Note_on_c, 1, 65, 80
3, 279736, Note_on_c, 1, 65, 0
3, 279736, Note_on_c, 1, 69, 0
3, 279744, Note_on_c, 1, 72, 80
3, 279744, Note_on_c, 1, 65, 80
3, 279928, Note_on_c, 1, 65, 0
3, 279928, Note_on_c, 1, 72, 0
3, 279936, Note_on_c, 1, 69, 80
3, 279936, Note_on_c, 1, 65, 80
3, 280312, Note_on_c, 1, 65, 0
3, 280312, Note_on_c, 1, 69, 0
3, 281472, Note_on_c, 1, 70, 80
3, 281472, Note_on_c, 1, 64, 80
3, 281848, Note_on_c, 1, 64, 0
3, 281848, Note_on_c, 1, 70, 0
3, 282240, Note_on_c, 1, 67, 80
3, 282240, Note_on_c, 1, 64, 80
3, 282616, Note_on_c, 1, 64, 0
3, 282616, Note_on_c, 1, 67, 0
3, 282624, Note_on_c, 1, 69, 80
3, 282624, Note_on_c, 1, 65, 80
3, 282808, Note_on_c, 1, 65, 0
3, 282808, Note_on_c, 1, 69, 0
3, 282816, Note_on_c, 1, 72, 80
3, 282816, Note_on_c, 1, 65, 80
3, 283000, Note_on_c, 1, 65, 0
3, 283000, Note_on_c, 1, 72, 0
3, 283008, Note_on_c, 1, 69, 80
3, 283008, Note_on_c, 1, 65, 80
3, 283384, Note_on_c, 1, 65, 0
3, 283384, Note_on_c, 1, 69, 0
3, 284160, Note_on_c, 1, 72, 80
3, 284160, Note_on_c, 1, 69, 80
3, 284160, Note_on_c, 1, 65, 80
3, 284344, Note_on_c, 1, 65, 0
3, 284344, Note_on_c, 1, 69, 0
3, 284344, Note_on_c, 1, 72, 0
3, 284352, Note_on_c, 1, 72, 80
3, 284352, Note_on_c, 1, 69, 80
3, 284352, Note_on_c, 1, 65, 80
3, 284536, Note_on_c, 1, 65, 0
3, 284536, Note_on_c, 1, 69, 0
3, 284536, Note_on_c, 1, 72, 0
3, 284544, Note_on_c, 1, 72, 80
3, 284544, Note_on_c, 1, 69, 80
3, 284544, Note_on_c, 1, 65, 80
3, 284920, Note_on_c, 1, 65, 0
3, 284920, Note_on_c, 1, 69, 0
3, 284920, Note_on_c, 1, 72, 0
3, 285696, Note_on_c, 1, 77, 80
3, 285696, Note_on_c, 1, 72, 80
3, 285696, Note_on_c, 1, 69, 80
3, 285880, Note_on_c, 1, 69, 0
3, 285880, Note_on_c, 1, 72, 0
3, 285880, Note_on_c, 1, 77, 0
3, 285888, Note_on_c, 1, 77, 80
3, 285888, Note_on_c, 1, 72, 80
3, 285888, Note_on_c, 1, 69, 80
3, 286072, Note_on_c, 1, 69, 0
3, 286072, Note_on_c, 1, 72, 0
3, 286072, Note_on_c, 1, 77, 0
3, 286080, Note_on_c, 1, 77, 80
3, 286080, Note_on_c, 1, 72, 80
3, 286080, Note_on_c, 1, 69, 80
3, 286456, Note_on_c, 1, 69, 0
3, 286456, Note_on_c, 1, 72, 0
3, 286456, Note_on_c, 1, 77, 0
3, 287616, Note_on_c, 1, 67, 80
3, 287616, Note_on_c, 1, 60, 80
3, 287616, Note_on_c, 1, 57, 80
3, 287992, Note_on_c, 1, 67, 0
3, 288000, Note_on_c, 1, 66, 80
3, 288376, Note_on_c, 1, 66, 0
3, 288376, Note_on_c, 1, 57, 0
3, 288376, Note_on_c, 1, 60, 0
3, 288384, Note_on_c, 1, 67, 80
3, 288384, Note_on_c, 1, 60, 80
3, 288384, Note_on_c, 1, 57, 80
3, 288760, Note_on_c, 1, 57, 0
3, 288760, Note_on_c, 1, 60, 0
3, 288760, Note_on_c, 1, 67, 0
3, 288768, Note_on_c, 1, 66, 80
3, 288768, Note_on_c, 1, 60, 80
3, 288768, Note_on_c, 1, 57, 80
3, 288952, Note_on_c, 1, 57, 0
3, 288952, Note_on_c, 1, 60, 0
3, 288952, Note_on_c, 1, 66, 0
3, 289152, Note_on_c, 1, 66, 80
3, 289152, Note_on_c, 1, 60, 80
3, 289152, Note_on_c, 1, 57, 80
3, 289336, Note_on_c, 1, 57, 0
3, 289336, Note_on_c, 1, 60, 0
3, 289336, Note_on_c, 1, 66, 0
3, 289536, Note_on_c, 1, 66, 80
3, 289536, Note_on_c, 1, 60, 80
3, 289536, Note_on_c, 1, 57, 80
3, 289720, Note_on_c, 1, 57, 0
3, 289720, Note_on_c, 1, 60, 0
3, 289720, Note_on_c, 1, 66, 0
3, 289920, Note_on_c, 1, 66, 80
3, 289920, Note_on_c, 1, 60, 80
3, 289920, Note_on_c, 1, 57, 80
3, 290104, Note_on_c, 1, 57, 0
3, 290104, Note_on_c, 1, 60, 0
3, 290104, Note_on_c, 1, 66, 0
3, 290304, Note_on_c, 1, 66, 80
3, 290304, Note_on_c, 1, 60, 80
3, 290304, Note_on_c, 1, 57, 80
3, 290488, Note_on_c, 1, 57, 0
3, 290488, Note_on_c, 1, 60, 0
3, 290488, Note_on_c, 1, 66, 0
3, 290688, Note_on_c, 1, 66, 80
3, 290688, Note_on_c, 1, 60, 80
3, 290688, Note_on_c, 1, 57, 80
3, 290872, Note_on_c, 1, 57, 0
3, 290872, Note_on_c, 1, 60, 0
3, 290872, Note_on_c, 1, 66, 0
3, 291072, Note_on_c, 1, 66, 80
3, 291072, Note_on_c, 1, 60, 80
3, 291072, Note_on_c, 1, 57, 80
3, 291256, Note_on_c, 1, 57, 0
3, 291256, Note_on_c, 1, 60, 0
3, 291256, Note_on_c, 1, 66, 0
3, 291456, Note_on_c, 1, 66, 80
3, 291456, Note_on_c, 1, 60, 80
3, 291456, Note_on_c, 1, 57, 80
3, 291640, Note_on_c, 1, 57, 0
3, 291640, Note_on_c, 1, 60, 0
3, 291640, Note_on_c, 1, 66, 0
3, 291840, Note_on_c, 1, 67, 80
3, 291840, Note_on_c, 1, 58, 80
3, 292024, Note_on_c, 1, 58, 0
3, 292024, Note_on_c, 1, 67, 0
3, 292032, Note_on_c, 1, 67, 80
3, 292032, Note_on_c, 1, 70, 80
3, 292408, Note_on_c, 1, 70, 0
3, 292408, Note_on_c, 1, 67, 0
3, 292416, Note_on_c, 1, 70, 80
3, 292416, Note_on_c, 1, 67, 80
3, 292792, Note_on_c, 1, 67, 0
3, 292792, Note_on_c, 1, 70, 0
3, 292800, Note_on_c, 1, 70, 80
3, 292800, Note_on_c, 1, 67, 80
3, 293176, Note_on_c, 1, 67, 0
3, 293176, Note_on_c, 1, 70, 0
3, 293184, Note_on_c, 1, 70, 80
3, 293184, Note_on_c, 1, 67, 80
3, 293368, Note_on_c, 1, 67, 0
3, 293368, Note_on_c, 1, 70, 0
3, 293568, Note_on_c, 1, 69, 80
3, 293568, Note_on_c, 1, 67, 80
3, 293752, Note_on_c, 1, 67, 0
3, 293752, Note_on_c, 1, 69, 0
3, 293760, Note_on_c, 1, 69, 80
3, 293760, Note_on_c, 1, 67, 80
3, 293944, Note_on_c, 1, 67, 0
3, 293944, Note_on_c, 1, 69, 0
3, 293952, Note_on_c, 1, 69, 80
3, 293952, Note_on_c, 1, 67, 80
3, 294136, Note_on_c, 1, 67, 0
3, 294136, Note_on_c, 1, 69, 0
3, 294336, Note_on_c, 1, 69, 80
3, 294336, Note_on_c, 1, 67, 80
3, 294520, Note_on_c, 1, 67, 0
3, 294520, Note_on_c, 1, 69, 0
3, 294528, Note_on_c, 1, 69, 80
3, 294528, Note_on_c, 1, 67, 80
3, 294712, Note_on_c, 1, 67, 0
3, 294712, Note_on_c, 1, 69, 0
3, 294720, Note_on_c, 1, 69, 80
3, 294720, Note_on_c, 1, 67, 80
3, 294904, Note_on_c, 1, 67, 0
3, 294904, Note_on_c, 1, 69, 0
3, 294912, Note_on_c, 1, 69, 107
3, 294912, Note_on_c, 1, 66, 107
3, 295288, Note_on_c, 1, 66, 0
3, 295288, Note_on_c, 1, 69, 0
3, 295680, Note_on_c, 1, 78, 107
3, 295680, Note_on_c, 1, 81, 107
3, 295864, Note_on_c, 1, 81, 0
3, 295864, Note_on_c, 1, 78, 0
3, 295872, Note_on_c, 1, 78, 107
3, 295872, Note_on_c, 1, 81, 107
3, 296056, Note_on_c, 1, 81, 0
3, 296056, Note_on_c, 1, 78, 0
3, 296064, Note_on_c, 1, 78, 107
3, 296064, Note_on_c, 1, 81, 107
3, 296248, Note_on_c, 1, 81, 0
3, 296248, Note_on_c, 1, 78, 0
3, 296256, Note_on_c, 1, 78, 107
3, 296256, Note_on_c, 1, 81, 107
3, 296440, Note_on_c, 1, 81, 0
3, 296440, Note_on_c, 1, 78, 0
3, 296448, Note_on_c, 1, 79, 107
3, 296448, Note_on_c, 1, 82, 107
3, 296632, Note_on_c, 1, 82, 0
3, 296632, Note_on_c, 1, 79, 0
3, 296640, Note_on_c, 1, 79, 107
3, 296640, Note_on_c, 1, 82, 107
3, 296824, Note_on_c, 1, 82, 0
3, 296824, Note_on_c, 1, 79, 0
3, 296832, Note_on_c, 1, 79, 107
3, 296832, Note_on_c, 1, 82, 107
3, 297016, Note_on_c, 1, 82, 0
3, 297016, Note_on_c, 1, 79, 0
3, 297024, Note_on_c, 1, 79, 107
3, 297024, Note_on_c, 1, 82, 107
3, 297208, Note_on_c, 1, 82, 0
3, 297208, Note_on_c, 1, 79, 0
3, 297216, Note_on_c, 1, 79, 107
3, 297216, Note_on_c, 1, 82, 107
3, 297216, Note_on_c, 1, 85, 107
3, 297400, Note_on_c, 1, 85, 0
3, 297400, Note_on_c, 1, 82, 0
3, 297400, Note_on_c, 1, 79, 0
3, 297408, Note_on_c, 1, 79, 107
3, 297408, Note_on_c, 1, 82, 107
3, 297408, Note_on_c, 1, 85, 107
3, 297592, Note_on_c, 1, 85, 0
3, 297592, Note_on_c, 1, 82, 0
3, 297592, Note_on_c, 1, 79, 0
3, 297600, Note_on_c, 1, 79, 107
3, 297600, Note_on_c, 1, 82, 107
3, 297600, Note_on_c, 1, 85, 107
3, 297784, Note_on_c, 1, 85, 0
3, 297784, Note_on_c, 1, 82, 0
3, 297784, Note_on_c, 1, 79, 0
3, 297792, Note_on_c, 1, 79, 107
3, 297792, Note_on_c, 1, 82, 107
3, 297792, Note_on_c, 1, 85, 107
3, 297976, Note_on_c, 1, 85, 0
3, 297976, Note_on_c, 1, 82, 0
3, 297976, Note_on_c, 1, 79, 0
3, 297984, Note_on_c, 1, 86, 107
3, 297984, Note_on_c, 1, 81, 107
3, 297984, Note_on_c, 1, 78, 107
3, 298360, Note_on_c, 1, 78, 0
3, 298360, Note_on_c, 1, 81, 0
3, 298360, Note_on_c, 1, 86, 0
3, 299904, Note_on_c, 1, 74, 80
3, 299904, Note_on_c, 1, 69, 80
3, 299904, Note_on_c, 1, 66, 80
3, 300088, Note_on_c, 1, 66, 0
3, 300088, Note_on_c, 1, 69, 0
3, 300088, Note_on_c, 1, 74, 0
3, 300288, Note_on_c, 1, 74, 80
3, 300288, Note_on_c, 1, 69, 80
3, 300288, Note_on_c, 1, 66, 80
3, 300472, Note_on_c, 1, 66, 0
3, 300472, Note_on_c, 1, 69, 0
3, 300472, Note_on_c, 1, 74, 0
3, 300672, Note_on_c, 1, 74, 80
3, 300672, Note_on_c, 1, 69, 80
3, 300672, Note_on_c, 1, 66, 80
3, 300856, Note_on_c, 1, 66, 0
3, 300856, Note_on_c, 1, 69, 0
3, 300856, Note_on_c, 1, 74, 0
3, 301056, Note_on_c, 1, 75, 80
3, 301056, Note_on_c, 1, 69, 80
3, 301056, Note_on_c, 1, 66, 80
3, 301432, Note_on_c, 1, 66, 0
3, 301432, Note_on_c, 1, 69, 0
3, 301432, Note_on_c, 1, 75, 0
3, 302976, Note_on_c, 1, 75, 80
3, 302976, Note_on_c, 1, 69, 80
3, 302976, Note_on_c, 1, 66, 80
3, 303160, Note_on_c, 1, 66, 0
3, 303160, Note_on_c, 1, 69, 0
3, 303160, Note_on_c, 1, 75, 0
3, 303360, Note_on_c, 1, 75, 80
3, 303360, Note_on_c, 1, 69, 80
3, 303360, Note_on_c, 1, 66, 80
3, 303544, Note_on_c, 1, 66, 0
3, 303544, Note_on_c, 1, 69, 0
3, 303544, Note_on_c, 1, 75, 0
3, 303744, Note_on_c, 1, 75, 80
3, 303744, Note_on_c, 1, 69, 80
3, 303744, Note_on_c, 1, 66, 80
3, 303928, Note_on_c, 1, 66, 0
3, 303928, Note_on_c, 1, 69, 0
3, 303928, Note_on_c, 1, 75, 0
3, 304128, Note_on_c, 1, 75, 80
3, 304128, Note_on_c, 1, 70, 80
3, 304128, Note_on_c, 1, 67, 80
3, 305656, Note_on_c, 1, 67, 0
3, 305656, Note_on_c, 1, 70, 0
3, 305656, Note_on_c, 1, 75, 0
3, 305664, Note_on_c, 1, 74, 80
3, 305664, Note_on_c, 1, 68, 80
3, 305664, Note_on_c, 1, 65, 80
3, 307192, Note_on_c, 1, 65, 0
3, 307192, Note_on_c, 1, 68, 0
3, 307192, Note_on_c, 1, 74, 0
3, 307200, Note_on_c, 1, 75, 80
3, 307384, Note_on_c, 1, 75, 0
3, 307392, Note_on_c, 1, 70, 80
3, 307576, Note_on_c, 1, 70, 0
3, 307584, Note_on_c, 1, 67, 80
3, 307768, Note_on_c, 1, 67, 0
3, 307776, Note_on_c, 1, 70, 80
3, 307960, Note_on_c, 1, 70, 0
3, 307968, Note_on_c, 1, 67, 80
3, 308152, Note_on_c, 1, 67, 0
3, 308160, Note_on_c, 1, 70, 80
3, 308344, Note_on_c, 1, 70, 0
3, 308352, Note_on_c, 1, 67, 80
3, 308536, Note_on_c, 1, 67, 0
3, 308544, Note_on_c, 1, 70, 80
3, 308728, Note_on_c, 1, 70, 0
3, 308736, Note_on_c, 1, 68, 80
3, 308920, Note_on_c, 1, 68, 0
3, 308928, Note_on_c, 1, 70, 80
3, 309112, Note_on_c, 1, 70, 0
3, 309120, Note_on_c, 1, 68, 80
3, 309304, Note_on_c, 1, 68, 0
3, 309312, Note_on_c, 1, 70, 80
3, 309496, Note_on_c, 1, 70, 0
3, 309504, Note_on_c, 1, 68, 80
3, 309688, Note_on_c, 1, 68, 0
3, 309696, Note_on_c, 1, 70, 80
3, 309880, Note_on_c, 1, 70, 0
3, 309888, Note_on_c, 1, 68, 80
3, 310072, Note_on_c, 1, 68, 0
3, 310080, Note_on_c, 1, 70, 80
3, 310264, Note_on_c, 1, 70, 0
3, 310272, Note_on_c, 1, 67, 80
3, 310456, Note_on_c, 1, 67, 0
3, 310464, Note_on_c, 1, 70, 80
3, 310648, Note_on_c, 1, 70, 0
3, 310656, Note_on_c, 1, 67, 80
3, 310840, Note_on_c, 1, 67, 0
3, 310848, Note_on_c, 1, 70, 80
3, 311032, Note_on_c, 1, 70, 0
3, 311040, Note_on_c, 1, 67, 80
3, 311224, Note_on_c, 1, 67, 0
3, 311232, Note_on_c, 1, 70, 80
3, 311416, Note_on_c, 1, 70, 0
3, 311424, Note_on_c, 1, 67, 80
3, 311608, Note_on_c, 1, 67, 0
3, 311616, Note_on_c, 1, 70, 80
3, 311800, Note_on_c, 1, 70, 0
3, 311808, Note_on_c, 1, 68, 80
3, 311992, Note_on_c, 1, 68, 0
3, 312000, Note_on_c, 1, 70, 80
3, 312184, Note_on_c, 1, 70, 0
3, 312192, Note_on_c, 1, 68, 80
3, 312376, Note_on_c, 1, 68, 0
3, 312384, Note_on_c, 1, 70, 80
3, 312568, Note_on_c, 1, 70, 0
3, 312576, Note_on_c, 1, 68, 80
3, 312760, Note_on_c, 1, 68, 0
3, 312768, Note_on_c, 1, 70, 80
3, 312952, Note_on_c, 1, 70, 0
3, 312960, Note_on_c, 1, 68, 80
3, 313144, Note_on_c, 1, 68, 0
3, 313152, Note_on_c, 1, 70, 80
3, 313336, Note_on_c, 1, 70, 0
3, 313344, Note_on_c, 1, 67, 80
3, 313528, Note_on_c, 1, 67, 0
3, 313536, Note_on_c, 1, 70, 80
3, 313720, Note_on_c, 1, 70, 0
3, 313728, Note_on_c, 1, 67, 80
3, 313912, Note_on_c, 1, 67, 0
3, 313920, Note_on_c, 1, 70, 80
3, 314104, Note_on_c, 1, 70, 0
3, 314112, Note_on_c, 1, 67, 80
3, 314296, Note_on_c, 1, 67, 0
3, 314304, Note_on_c, 1, 70, 80
3, 314488, Note_on_c, 1, 70, 0
3, 314496, Note_on_c, 1, 67, 80
3, 314680, Note_on_c, 1, 67, 0
3, 314688, Note_on_c, 1, 70, 80
3, 314872, Note_on_c, 1, 70, 0
3, 314880, Note_on_c, 1, 65, 80
3, 315064, Note_on_c, 1, 65, 0
3, 315072, Note_on_c, 1, 70, 80
3, 315256, Note_on_c, 1, 70, 0
3, 315264, Note_on_c, 1, 65, 80
3, 315448, Note_on_c, 1, 65, 0
3, 315456, Note_on_c, 1, 70, 80
3, 315640, Note_on_c, 1, 70, 0
3, 315648, Note_on_c, 1, 65, 80
3, 315832, Note_on_c, 1, 65, 0
3, 315840, Note_on_c, 1, 70, 80
3, 316024, Note_on_c, 1, 70, 0
3, 316032, Note_on_c, 1, 65, 80
3, 316216, Note_on_c, 1, 65, 0
3, 316224, Note_on_c, 1, 70, 80
3, 316408, Note_on_c, 1, 70, 0
3, 316416, Note_on_c, 1, 70, 80
3, 316416, Note_on_c, 1, 64, 80
3, 316600, Note_on_c, 1, 64, 0
3, 316600, Note_on_c, 1, 70, 0
3, 316608, Note_on_c, 1, 82, 80
3, 316608, Note_on_c, 1, 79, 80
3, 316792, Note_on_c, 1, 79, 0
3, 316792, Note_on_c, 1, 82, 0
3, 316800, Note_on_c, 1, 82, 80
3, 316800, Note_on_c, 1, 79, 80
3, 316984, Note_on_c, 1, 79, 0
3, 316984, Note_on_c, 1, 82, 0
3, 316992, Note_on_c, 1, 82, 80
3, 316992, Note_on_c, 1, 79, 80
3, 317176, Note_on_c, 1, 79, 0
3, 317176, Note_on_c, 1, 82, 0
3, 317184, Note_on_c, 1, 82, 80
3, 317184, Note_on_c, 1, 79, 80
3, 317368, Note_on_c, 1, 79, 0
3, 317368, Note_on_c, 1, 82, 0
3, 317376, Note_on_c, 1, 82, 80
3, 317376, Note_on_c, 1, 79, 80
3, 317560, Note_on_c, 1, 79, 0
3, 317560, Note_on_c, 1, 82, 0
3, 317568, Note_on_c, 1, 82, 80
3, 317568, Note_on_c, 1, 79, 80
3, 317752, Note_on_c, 1, 79, 0
3, 317752, Note_on_c, 1, 82, 0
3, 317760, Note_on_c, 1, 82, 80
3, 317760, Note_on_c, 1, 79, 80
3, 317944, Note_on_c, 1, 79, 0
3, 317944, Note_on_c, 1, 82, 0
3, 317952, Note_on_c, 1, 81, 80
3, 317952, Note_on_c, 1, 79, 80
3, 318136, Note_on_c, 1, 79, 0
3, 318136, Note_on_c, 1, 81, 0
3, 318144, Note_on_c, 1, 69, 80
3, 318144, Note_on_c, 1, 67, 80
3, 318328, Note_on_c, 1, 67, 0
3, 318328, Note_on_c, 1, 69, 0
3, 318336, Note_on_c, 1, 69, 80
3, 318336, Note_on_c, 1, 67, 80
3, 318520, Note_on_c, 1, 67, 0
3, 318520, Note_on_c, 1, 69, 0
3, 318528, Note_on_c, 1, 69, 80
3, 318528, Note_on_c, 1, 67, 80
3, 318712, Note_on_c, 1, 67, 0
3, 318712, Note_on_c, 1, 69, 0
3, 318720, Note_on_c, 1, 69, 80
3, 318720, Note_on_c, 1, 67, 80
3, 318904, Note_on_c, 1, 67, 0
3, 318904, Note_on_c, 1, 69, 0
3, 318912, Note_on_c, 1, 67, 80
3, 318912, Note_on_c, 1, 69, 80
3, 319096, Note_on_c, 1, 69, 0
3, 319096, Note_on_c, 1, 67, 0
3, 319104, Note_on_c, 1, 69, 80
3, 319104, Note_on_c, 1, 67, 80
3, 319288, Note_on_c, 1, 67, 0
3, 319288, Note_on_c, 1, 69, 0
3, 319296, Note_on_c, 1, 69, 80
3, 319296, Note_on_c, 1, 67, 80
3, 319480, Note_on_c, 1, 67, 0
3, 319480, Note_on_c, 1, 69, 0
3, 319488, Note_on_c, 1, 69, 80
3, 319488, Note_on_c, 1, 65, 80
3, 319672, Note_on_c, 1, 65, 0
3, 319672, Note_on_c, 1, 69, 0
3, 319680, Note_on_c, 1, 81, 80
3, 319680, Note_on_c, 1, 77, 80
3, 319864, Note_on_c, 1, 77, 0
3, 319864, Note_on_c, 1, 81, 0
3, 319872, Note_on_c, 1, 77, 80
3, 319872, Note_on_c, 1, 81, 80
3, 320056, Note_on_c, 1, 81, 0
3, 320056, Note_on_c, 1, 77, 0
3, 320064, Note_on_c, 1, 81, 80
3, 320064, Note_on_c, 1, 77, 80
3, 320248, Note_on_c, 1, 77, 0
3, 320248, Note_on_c, 1, 81, 0
3, 320256, Note_on_c, 1, 80, 80
3, 320256, Note_on_c, 1, 77, 80
3, 320440, Note_on_c, 1, 77, 0
3, 320440, Note_on_c, 1, 80, 0
3, 320448, Note_on_c, 1, 80, 80
3, 320448, Note_on_c, 1, 77, 80
3, 320632, Note_on_c, 1, 77, 0
3, 320632, Note_on_c, 1, 80, 0
3, 320640, Note_on_c, 1, 80, 80
3, 320640, Note_on_c, 1, 77, 80
3, 320824, Note_on_c, 1, 77, 0
3, 320824, Note_on_c, 1, 80, 0
3, 320832, Note_on_c, 1, 80, 80
3, 320832, Note_on_c, 1, 77, 80
3, 321016, Note_on_c, 1, 77, 0
3, 321016, Note_on_c, 1, 80, 0
3, 321024, Note_on_c, 1, 79, 80
3, 321024, Note_on_c, 1, 77, 80
3, 321208, Note_on_c, 1, 77, 0
3, 321208, Note_on_c, 1, 79, 0
3, 321216, Note_on_c, 1, 67, 80
3, 321216, Note_on_c, 1, 65, 80
3, 321400, Note_on_c, 1, 65, 0
3, 321400, Note_on_c, 1, 67, 0
3, 321408, Note_on_c, 1, 67, 80
3, 321408, Note_on_c, 1, 65, 80
3, 321592, Note_on_c, 1, 65, 0
3, 321592, Note_on_c, 1, 67, 0
3, 321600, Note_on_c, 1, 67, 80
3, 321600, Note_on_c, 1, 65, 80
3, 321784, Note_on_c, 1, 65, 0
3, 321784, Note_on_c, 1, 67, 0
3, 321792, Note_on_c, 1, 65, 80
3, 321792, Note_on_c, 1, 67, 80
3, 321976, Note_on_c, 1, 67, 0
3, 321976, Note_on_c, 1, 65, 0
3, 321984, Note_on_c, 1, 67, 80
3, 321984, Note_on_c, 1, 65, 80
3, 322168, Note_on_c, 1, 65, 0
3, 322168, Note_on_c, 1, 67, 0
3, 322176, Note_on_c, 1, 67, 80
3, 322176, Note_on_c, 1, 65, 80
3, 322360, Note_on_c, 1, 65, 0
3, 322360, Note_on_c, 1, 67, 0
3, 322368, Note_on_c, 1, 67, 80
3, 322368, Note_on_c, 1, 65, 80
3, 322552, Note_on_c, 1, 65, 0
3, 322552, Note_on_c, 1, 67, 0
3, 322560, Note_on_c, 1, 63, 80
3, 322560, Note_on_c, 1, 67, 80
3, 322648, Note_on_c, 1, 67, 0
3, 322648, Note_on_c, 1, 63, 0
3, 322752, Note_on_c, 1, 75, 80
3, 322752, Note_on_c, 1, 72, 80
3, 322752, Note_on_c, 1, 67, 80
3, 322840, Note_on_c, 1, 67, 0
3, 322840, Note_on_c, 1, 72, 0
3, 322840, Note_on_c, 1, 75, 0
3, 322944, Note_on_c, 1, 75, 80
3, 322944, Note_on_c, 1, 72, 80
3, 322944, Note_on_c, 1, 67, 80
3, 323320, Note_on_c, 1, 67, 0
3, 323320, Note_on_c, 1, 72, 0
3, 323320, Note_on_c, 1, 75, 0
3, 324096, Note_on_c, 1, 69, 80
3, 324096, Note_on_c, 1, 66, 80
3, 324096, Note_on_c, 1, 62, 80
3, 324184, Note_on_c, 1, 62, 0
3, 324184, Note_on_c, 1, 66, 0
3, 324184, Note_on_c, 1, 69, 0
3, 324288, Note_on_c, 1, 78, 80
3, 324288, Note_on_c, 1, 74, 80
3, 324288, Note_on_c, 1, 69, 80
3, 324376, Note_on_c, 1, 69, 0
3, 324376, Note_on_c, 1, 74, 0
3, 324376, Note_on_c, 1, 78, 0
3, 324480, Note_on_c, 1, 78, 80
3, 324480, Note_on_c, 1, 74, 80
3, 324480, Note_on_c, 1, 69, 80
3, 324856, Note_on_c, 1, 69, 0
3, 324856, Note_on_c, 1, 74, 0
3, 324856, Note_on_c, 1, 78, 0
3, 325632, Note_on_c, 1, 79, 80
3, 325632, Note_on_c, 1, 74, 80
3, 325632, Note_on_c, 1, 70, 80
3, 325816, Note_on_c, 1, 70, 0
3, 325816, Note_on_c, 1, 74, 0
3, 325816, Note_on_c, 1, 79, 0
3, 326400, Note_on_c, 1, 79, 80
3, 326400, Note_on_c, 1, 74, 80
3, 326400, Note_on_c, 1, 70, 80
3, 326584, Note_on_c, 1, 70, 0
3, 326584, Note_on_c, 1, 74, 0
3, 326584, Note_on_c, 1, 79, 0
3, 327168, Note_on_c, 1, 82, 80
3, 327168, Note_on_c, 1, 79, 80
3, 327168, Note_on_c, 1, 74, 80
3, 327352, Note_on_c, 1, 74, 0
3, 327352, Note_on_c, 1, 79, 0
3, 327352, Note_on_c, 1, 82, 0
3, 327552, Note_on_c, 1, 79, 80
3, 327552, Note_on_c, 1, 67, 80
3, 327736, Note_on_c, 1, 67, 0
3, 327736, Note_on_c, 1, 79, 0
3, 327936, Note_on_c, 1, 75, 80
3, 327936, Note_on_c, 1, 67, 80
3, 328120, Note_on_c, 1, 67, 0
3, 328120, Note_on_c, 1, 75, 0
3, 328320, Note_on_c, 1, 72, 80
3, 328320, Note_on_c, 1, 67, 80
3, 328504, Note_on_c, 1, 67, 0
3, 328504, Note_on_c, 1, 72, 0
3, 328896, Note_on_c, 1, 67, 80
3, 328896, Note_on_c, 1, 70, 80
3, 328896, Note_on_c, 1, 63, 80
3, 329080, Note_on_c, 1, 63, 0
3, 329080, Note_on_c, 1, 70, 0
3, 329080, Note_on_c, 1, 67, 0
3, 329088, Note_on_c, 1, 70, 80
3, 329088, Note_on_c, 1, 67, 80
3, 329088, Note_on_c, 1, 63, 80
3, 329272, Note_on_c, 1, 63, 0
3, 329272, Note_on_c, 1, 67, 0
3, 329272, Note_on_c, 1, 70, 0
3, 329280, Note_on_c, 1, 70, 80
3, 329280, Note_on_c, 1, 67, 80
3, 329280, Note_on_c, 1, 63, 80
3, 329464, Note_on_c, 1, 63, 0
3, 329464, Note_on_c, 1, 67, 0
3, 329464, Note_on_c, 1, 70, 0
3, 329664, Note_on_c, 1, 69, 80
3, 329664, Note_on_c, 1, 66, 80
3, 329664, Note_on_c, 1, 62, 80
3, 329848, Note_on_c, 1, 62, 0
3, 329848, Note_on_c, 1, 66, 0
3, 329848, Note_on_c, 1, 69, 0
3, 329856, Note_on_c, 1, 69, 80
3, 329856, Note_on_c, 1, 66, 80
3, 329856, Note_on_c, 1, 62, 80
3, 330040, Note_on_c, 1, 62, 0
3, 330040, Note_on_c, 1, 66, 0
3, 330040, Note_on_c, 1, 69, 0
3, 330048, Note_on_c, 1, 69, 80
3, 330048, Note_on_c, 1, 66, 80
3, 330048, Note_on_c, 1, 62, 80
3, 330232, Note_on_c, 1, 62, 0
3, 330232, Note_on_c, 1, 66, 0
3, 330232, Note_on_c, 1, 69, 0
3, 330240, Note_on_c, 1, 82, 107
3, 330424, Note_on_c, 1, 82, 0
3, 330432, Note_on_c, 1, 78, 107
3, 330616, Note_on_c, 1, 78, 0
3, 330624, Note_on_c, 1, 79, 107
3, 330808, Note_on_c, 1, 79, 0
3, 330816, Note_on_c, 1, 74, 107
3, 331000, Note_on_c, 1, 74, 0
3, 331008, Note_on_c, 1, 75, 107
3, 331192, Note_on_c, 1, 75, 0
3, 331200, Note_on_c, 1, 71, 107
3, 331384, Note_on_c, 1, 71, 0
3, 331392, Note_on_c, 1, 72, 107
3, 331576, Note_on_c, 1, 72, 0
3, 331584, Note_on_c, 1, 67, 107
3, 331768, Note_on_c, 1, 67, 0
3, 331776, Note_on_c, 1, 68, 107
3, 332152, Note_on_c, 1, 68, 0
3, 332160, Note_on_c, 1, 63, 80
3, 332160, Note_on_c, 1, 60, 80
3, 332344, Note_on_c, 1, 60, 0
3, 332344, Note_on_c, 1, 63, 0
3, 332544, Note_on_c, 1, 63, 80
3, 332544, Note_on_c, 1, 60, 80
3, 332728, Note_on_c, 1, 60, 0
3, 332728, Note_on_c, 1, 63, 0
3, 332928, Note_on_c, 1, 63, 80
3, 332928, Note_on_c, 1, 60, 80
3, 333112, Note_on_c, 1, 60, 0
3, 333112, Note_on_c, 1, 63, 0
3, 333696, Note_on_c, 1, 80, 80
3, 333696, Note_on_c, 1, 77, 80
3, 333880, Note_on_c, 1, 77, 0
3, 333880, Note_on_c, 1, 80, 0
3, 334080, Note_on_c, 1, 80, 80
3, 334080, Note_on_c, 1, 77, 80
3, 334264, Note_on_c, 1, 77, 0
3, 334264, Note_on_c, 1, 80, 0
3, 334464, Note_on_c, 1, 80, 80
3, 334464, Note_on_c, 1, 77, 80
3, 334648, Note_on_c, 1, 77, 0
3, 334648, Note_on_c, 1, 80, 0
3, 335232, Note_on_c, 1, 63, 80
3, 335232, Note_on_c, 1, 60, 80
3, 335416, Note_on_c, 1, 60, 0
3, 335416, Note_on_c, 1, 63, 0
3, 335616, Note_on_c, 1, 63, 80
3, 335616, Note_on_c, 1, 60, 80
3, 335800, Note_on_c, 1, 60, 0
3, 335800, Note_on_c, 1, 63, 0
3, 336000, Note_on_c, 1, 63, 80
3, 336000, Note_on_c, 1, 60, 80
3, 336184, Note_on_c, 1, 60, 0
3, 336184, Note_on_c, 1, 63, 0
3, 336768, Note_on_c, 1, 79, 80
3, 336768, Note_on_c, 1, 82, 80
3, 336952, Note_on_c, 1, 82, 0
3, 336952, Note_on_c, 1, 79, 0
3, 337152, Note_on_c, 1, 79, 80
3, 337152, Note_on_c, 1, 82, 80
3, 337336, Note_on_c, 1, 82, 0
3, 337336, Note_on_c, 1, 79, 0
3, 337536, Note_on_c, 1, 79, 80
3, 337536, Note_on_c, 1, 82, 80
3, 337720, Note_on_c, 1, 82, 0
3, 337720, Note_on_c, 1, 79, 0
3, 337920, Note_on_c, 1, 82, 80
3, 337920, Note_on_c, 1, 79, 80
3, 338104, Note_on_c, 1, 79, 0
3, 338104, Note_on_c, 1, 82, 0
3, 338112, Note_on_c, 1, 67, 80
3, 338112, Note_on_c, 1, 62, 80
3, 338112, Note_on_c, 1, 58, 80
3, 338296, Note_on_c, 1, 58, 0
3, 338296, Note_on_c, 1, 62, 0
3, 338296, Note_on_c, 1, 67, 0
3, 338304, Note_on_c, 1, 67, 80
3, 338304, Note_on_c, 1, 62, 80
3, 338304, Note_on_c, 1, 58, 80
3, 338680, Note_on_c, 1, 58, 0
3, 338680, Note_on_c, 1, 62, 0
3, 338680, Note_on_c, 1, 67, 0
3, 339456, Note_on_c, 1, 70, 80
3, 339456, Note_on_c, 1, 67, 80
3, 339456, Note_on_c, 1, 62, 80
3, 339640, Note_on_c, 1, 62, 0
3, 339640, Note_on_c, 1, 67, 0
3, 339640, Note_on_c, 1, 70, 0
3, 339648, Note_on_c, 1, 70, 80
3, 339648, Note_on_c, 1, 67, 80
3, 339648, Note_on_c, 1, 62, 80
3, 339832, Note_on_c, 1, 62, 0
3, 339832, Note_on_c, 1, 67, 0
3, 339832, Note_on_c, 1, 70, 0
3, 339840, Note_on_c, 1, 70, 80
3, 339840, Note_on_c, 1, 67, 80
3, 339840, Note_on_c, 1, 62, 80
3, 340216, Note_on_c, 1, 62, 0
3, 340216, Note_on_c, 1, 67, 0
3, 340216, Note_on_c, 1, 70, 0
3, 340992, Note_on_c, 1, 79, 80
3, 340992, Note_on_c, 1, 74, 80
3, 340992, Note_on_c, 1, 70, 80
3, 341176, Note_on_c, 1, 70, 0
3, 341176, Note_on_c, 1, 74, 0
3, 341176, Note_on_c, 1, 79, 0
3, 341184, Note_on_c, 1, 79, 80
3, 341184, Note_on_c, 1, 74, 80
3, 341184, Note_on_c, 1, 70, 80
3, 341368, Note_on_c, 1, 70, 0
3, 341368, Note_on_c, 1, 74, 0
3, 341368, Note_on_c, 1, 79, 0
3, 341376, Note_on_c, 1, 79, 80
3, 341376, Note_on_c, 1, 74, 80
3, 341376, Note_on_c, 1, 70, 80
3, 341752, Note_on_c, 1, 70, 0
3, 341752, Note_on_c, 1, 74, 0
3, 341752, Note_on_c, 1, 79, 0
3, 342720, Note_on_c, 1, 82, 80
3, 342720, Note_on_c, 1, 79, 80
3, 342904, Note_on_c, 1, 79, 0
3, 342904, Note_on_c, 1, 82, 0
3, 342912, Note_on_c, 1, 82, 80
3, 342912, Note_on_c, 1, 79, 80
3, 343096, Note_on_c, 1, 79, 0
3, 343096, Note_on_c, 1, 82, 0
3, 343104, Note_on_c, 1, 82, 80
3, 343104, Note_on_c, 1, 79, 80
3, 343288, Note_on_c, 1, 79, 0
3, 343288, Note_on_c, 1, 82, 0
3, 343296, Note_on_c, 1, 82, 80
3, 343296, Note_on_c, 1, 79, 80
3, 343480, Note_on_c, 1, 79, 0
3, 343480, Note_on_c, 1, 82, 0
3, 343488, Note_on_c, 1, 82, 80
3, 343488, Note_on_c, 1, 79, 80
3, 343672, Note_on_c, 1, 79, 0
3, 343672, Note_on_c, 1, 82, 0
3, 343680, Note_on_c, 1, 82, 80
3, 343680, Note_on_c, 1, 79, 80
3, 343864, Note_on_c, 1, 79, 0
3, 343864, Note_on_c, 1, 82, 0
3, 343872, Note_on_c, 1, 82, 80
3, 343872, Note_on_c, 1, 79, 80
3, 344056, Note_on_c, 1, 79, 0
3, 344056, Note_on_c, 1, 82, 0
3, 344064, Note_on_c, 1, 82, 80
3, 344064, Note_on_c, 1, 79, 80
3, 344440, Note_on_c, 1, 79, 0
3, 344440, Note_on_c, 1, 82, 0
3, 344448, Note_on_c, 1, 62, 80
3, 344824, Note_on_c, 1, 62, 0
3, 345792, Note_on_c, 1, 72, 80
3, 345792, Note_on_c, 1, 69, 80
3, 345976, Note_on_c, 1, 69, 0
3, 345976, Note_on_c, 1, 72, 0
3, 345984, Note_on_c, 1, 72, 80
3, 345984, Note_on_c, 1, 69, 80
3, 346168, Note_on_c, 1, 69, 0
3, 346168, Note_on_c, 1, 72, 0
3, 346176, Note_on_c, 1, 72, 80
3, 346176, Note_on_c, 1, 69, 80
3, 346360, Note_on_c, 1, 69, 0
3, 346360, Note_on_c, 1, 72, 0
3, 346560, Note_on_c, 1, 70, 80
3, 346560, Note_on_c, 1, 67, 80
3, 346744, Note_on_c, 1, 67, 0
3, 346744, Note_on_c, 1, 70, 0
3, 346752, Note_on_c, 1, 70, 80
3, 346752, Note_on_c, 1, 67, 80
3, 346936, Note_on_c, 1, 67, 0
3, 346936, Note_on_c, 1, 70, 0
3, 346944, Note_on_c, 1, 70, 80
3, 346944, Note_on_c, 1, 67, 80
3, 347128, Note_on_c, 1, 67, 0
3, 347128, Note_on_c, 1, 70, 0
3, 347136, Note_on_c, 1, 69, 81
3, 347136, Note_on_c, 1, 67, 81
3, 347512, Note_on_c, 1, 67, 0
3, 347512, Note_on_c, 1, 69, 0
3, 347904, Note_on_c, 1, 86, 92
3, 347904, Note_on_c, 1, 81, 92
3, 347904, Note_on_c, 1, 78, 92
3, 348280, Note_on_c, 1, 78, 0
3, 348280, Note_on_c, 1, 81, 0
3, 348280, Note_on_c, 1, 86, 0
3, 348672, Note_on_c, 1, 79, 107
3, 348672, Note_on_c, 1, 67, 107
3, 348760, Note_on_c, 1, 67, 0
3, 348760, Note_on_c, 1, 79, 0
3, 348864, Note_on_c, 1, 78, 107
3, 348864, Note_on_c, 1, 66, 107
3, 348952, Note_on_c, 1, 66, 0
3, 348952, Note_on_c, 1, 78, 0
3, 349056, Note_on_c, 1, 79, 107
3, 349056, Note_on_c, 1, 67, 107
3, 349144, Note_on_c, 1, 67, 0
3, 349144, Note_on_c, 1, 79, 0
3, 349248, Note_on_c, 1, 81, 107
3, 349248, Note_on_c, 1, 69, 107
3, 349336, Note_on_c, 1, 69, 0
3, 349336, Note_on_c, 1, 81, 0
3, 349440, Note_on_c, 1, 82, 107
3, 349440, Note_on_c, 1, 70, 107
3, 349528, Note_on_c, 1, 70, 0
3, 349528, Note_on_c, 1, 82, 0
3, 349632, Note_on_c, 1, 81, 107
3, 349632, Note_on_c, 1, 69, 107
3, 349720, Note_on_c, 1, 69, 0
3, 349720, Note_on_c, 1, 81, 0
3, 349824, Note_on_c, 1, 82, 107
3, 349824, Note_on_c, 1, 70, 107
3, 349912, Note_on_c, 1, 70, 0
3, 349912, Note_on_c, 1, 82, 0
3, 350016, Note_on_c, 1, 84, 107
3, 350016, Note_on_c, 1, 72, 107
3, 350104, Note_on_c, 1, 72, 0
3, 350104, Note_on_c, 1, 84, 0
3, 350208, Note_on_c, 1, 86, 107
3, 350208, Note_on_c, 1, 74, 107
3, 350296, Note_on_c, 1, 74, 0
3, 350296, Note_on_c, 1, 86, 0
3, 350400, Note_on_c, 1, 85, 107
3, 350400, Note_on_c, 1, 73, 107
3, 350488, Note_on_c, 1, 73, 0
3, 350488, Note_on_c, 1, 85, 0
3, 350592, Note_on_c, 1, 86, 107
3, 350592, Note_on_c, 1, 74, 107
3, 350680, Note_on_c, 1, 74, 0
3, 350680, Note_on_c, 1, 86, 0
3, 350784, Note_on_c, 1, 87, 107
3, 350784, Note_on_c, 1, 75, 107
3, 350872, Note_on_c, 1, 75, 0
3, 350872, Note_on_c, 1, 87, 0
3, 350976, Note_on_c, 1, 86, 107
3, 350976, Note_on_c, 1, 74, 107
3, 351064, Note_on_c, 1, 74, 0
3, 351064, Note_on_c, 1, 86, 0
3, 351168, Note_on_c, 1, 84, 107
3, 351168, Note_on_c, 1, 72, 107
3, 351256, Note_on_c, 1, 72, 0
3, 351256, Note_on_c, 1, 84, 0
3, 351360, Note_on_c, 1, 82, 107
3, 351360, Note_on_c, 1, 70, 107
3, 351448, Note_on_c, 1, 70, 0
3, 351448, Note_on_c, 1, 82, 0
3, 351552, Note_on_c, 1, 81, 107
3, 351552, Note_on_c, 1, 69, 107
3, 351640, Note_on_c, 1, 69, 0
3, 351640, Note_on_c, 1, 81, 0
3, 351744, Note_on_c, 1, 79, 80
3, 351832, Note_on_c, 1, 79, 0
3, 351936, Note_on_c, 1, 78, 80
3, 352024, Note_on_c, 1, 78, 0
3, 352128, Note_on_c, 1, 79, 80
3, 352216, Note_on_c, 1, 79, 0
3, 352320, Note_on_c, 1, 81, 80
3, 352408, Note_on_c, 1, 81, 0
3, 352512, Note_on_c, 1, 82, 80
3, 352512, Note_on_c, 1, 67, 80
3, 352600, Note_on_c, 1, 82, 0
3, 352704, Note_on_c, 1, 81, 80
3, 352792, Note_on_c, 1, 81, 0
3, 352896, Note_on_c, 1, 82, 80
3, 352984, Note_on_c, 1, 82, 0
3, 353088, Note_on_c, 1, 84, 80
3, 353176, Note_on_c, 1, 84, 0
3, 353272, Note_on_c, 1, 67, 0
3, 353280, Note_on_c, 1, 86, 80
3, 353280, Note_on_c, 1, 69, 80
3, 353280, Note_on_c, 1, 67, 80
3, 353280, Note_on_c, 1, 62, 80
3, 353368, Note_on_c, 1, 86, 0
3, 353472, Note_on_c, 1, 85, 80
3, 353560, Note_on_c, 1, 85, 0
3, 353664, Note_on_c, 1, 86, 80
3, 353752, Note_on_c, 1, 86, 0
3, 353856, Note_on_c, 1, 87, 80
3, 353944, Note_on_c, 1, 87, 0
3, 354040, Note_on_c, 1, 62, 0
3, 354040, Note_on_c, 1, 67, 0
3, 354040, Note_on_c, 1, 69, 0
3, 354048, Note_on_c, 1, 86, 80
3, 354048, Note_on_c, 1, 66, 80
3, 354048, Note_on_c, 1, 62, 80
3, 354048, Note_on_c, 1, 69, 80
3, 354136, Note_on_c, 1, 86, 0
3, 354240, Note_on_c, 1, 84, 80
3, 354328, Note_on_c, 1, 84, 0
3, 354424, Note_on_c, 1, 69, 0
3, 354432, Note_on_c, 1, 82, 80
3, 354432, Note_on_c, 1, 72, 80
3, 354520, Note_on_c, 1, 82, 0
3, 354624, Note_on_c, 1, 81, 80
3, 354712, Note_on_c, 1, 81, 0
3, 354808, Note_on_c, 1, 72, 0
3, 354808, Note_on_c, 1, 62, 0
3, 354808, Note_on_c, 1, 66, 0
3, 354816, Note_on_c, 1, 79, 80
3, 354816, Note_on_c, 1, 70, 80
3, 354816, Note_on_c, 1, 67, 80
3, 354904, Note_on_c, 1, 79, 0
3, 355008, Note_on_c, 1, 78, 80
3, 355096, Note_on_c, 1, 78, 0
3, 355192, Note_on_c, 1, 67, 0
3, 355192, Note_on_c, 1, 70, 0
3, 355200, Note_on_c, 1, 79, 80
3, 355288, Note_on_c, 1, 79, 0
3, 355392, Note_on_c, 1, 81, 80
3, 355480, Note_on_c, 1, 81, 0
3, 355584, Note_on_c, 1, 82, 80
3, 355584, Note_on_c, 1, 67, 80
3, 355584, Note_on_c, 1, 65, 80
3, 355672, Note_on_c, 1, 82, 0
3, 355776, Note_on_c, 1, 81, 80
3, 355864, Note_on_c, 1, 81, 0
3, 355968, Note_on_c, 1, 82, 80
3, 356056, Note_on_c, 1, 82, 0
3, 356160, Note_on_c, 1, 84, 80
3, 356248, Note_on_c, 1, 84, 0
3, 356344, Note_on_c, 1, 65, 0
3, 356344, Note_on_c, 1, 67, 0
3, 356352, Note_on_c, 1, 85, 80
3, 356352, Note_on_c, 1, 67, 80
3, 356352, Note_on_c, 1, 65, 80
3, 356352, Note_on_c, 1, 60, 80
3, 356440, Note_on_c, 1, 85, 0
3, 356544, Note_on_c, 1, 84, 80
3, 356632, Note_on_c, 1, 84, 0
3, 356736, Note_on_c, 1, 83, 80
3, 356824, Note_on_c, 1, 83, 0
3, 356928, Note_on_c, 1, 85, 80
3, 357016, Note_on_c, 1, 85, 0
3, 357112, Note_on_c, 1, 60, 0
3, 357112, Note_on_c, 1, 65, 0
3, 357112, Note_on_c, 1, 67, 0
3, 357120, Note_on_c, 1, 84, 80
3, 357120, Note_on_c, 1, 64, 80
3, 357120, Note_on_c, 1, 60, 80
3, 357120, Note_on_c, 1, 67, 80
3, 357208, Note_on_c, 1, 84, 0
3, 357312, Note_on_c, 1, 81, 80
3, 357400, Note_on_c, 1, 81, 0
3, 357496, Note_on_c, 1, 67, 0
3, 357504, Note_on_c, 1, 82, 80
3, 357504, Note_on_c, 1, 72, 80
3, 357592, Note_on_c, 1, 82, 0
3, 357688, Note_on_c, 1, 72, 0
3, 357696, Note_on_c, 1, 79, 80
3, 357696, Note_on_c, 1, 70, 80
3, 357784, Note_on_c, 1, 79, 0
3, 357880, Note_on_c, 1, 64, 0
3, 357880, Note_on_c, 1, 60, 0
3, 357880, Note_on_c, 1, 70, 0
3, 357888, Note_on_c, 1, 77, 107
3, 357888, Note_on_c, 1, 68, 107
3, 357888, Note_on_c, 1, 65, 107
3, 357976, Note_on_c, 1, 65, 0
3, 357976, Note_on_c, 1, 68, 0
3, 357976, Note_on_c, 1, 77, 0
3, 358080, Note_on_c, 1, 76, 107
3, 358080, Note_on_c, 1, 64, 107
3, 358168, Note_on_c, 1, 64, 0
3, 358168, Note_on_c, 1, 76, 0
3, 358272, Note_on_c, 1, 77, 107
3, 358272, Note_on_c, 1, 65, 107
3, 358360, Note_on_c, 1, 65, 0
3, 358360, Note_on_c, 1, 77, 0
3, 358464, Note_on_c, 1, 79, 107
3, 358464, Note_on_c, 1, 67, 107
3, 358552, Note_on_c, 1, 67, 0
3, 358552, Note_on_c, 1, 79, 0
3, 358656, Note_on_c, 1, 80, 107
3, 358656, Note_on_c, 1, 68, 107
3, 358744, Note_on_c, 1, 68, 0
3, 358744, Note_on_c, 1, 80, 0
3, 358848, Note_on_c, 1, 79, 107
3, 358848, Note_on_c, 1, 67, 107
3, 358936, Note_on_c, 1, 67, 0
3, 358936, Note_on_c, 1, 79, 0
3, 359040, Note_on_c, 1, 80, 107
3, 359040, Note_on_c, 1, 68, 107
3, 359128, Note_on_c, 1, 68, 0
3, 359128, Note_on_c, 1, 80, 0
3, 359232, Note_on_c, 1, 82, 107
3, 359232, Note_on_c, 1, 70, 107
3, 359320, Note_on_c, 1, 70, 0
3, 359320, Note_on_c, 1, 82, 0
3, 359424, Note_on_c, 1, 84, 107
3, 359424, Note_on_c, 1, 72, 107
3, 359512, Note_on_c, 1, 72, 0
3, 359512, Note_on_c, 1, 84, 0
3, 359616, Note_on_c, 1, 83, 107
3, 359616, Note_on_c, 1, 71, 107
3, 359704, Note_on_c, 1, 71, 0
3, 359704, Note_on_c, 1, 83, 0
3, 359808, Note_on_c, 1, 84, 107
3, 359808, Note_on_c, 1, 72, 107
3, 359896, Note_on_c, 1, 72, 0
3, 359896, Note_on_c, 1, 84, 0
3, 360000, Note_on_c, 1, 85, 107
3, 360000, Note_on_c, 1, 73, 107
3, 360088, Note_on_c, 1, 73, 0
3, 360088, Note_on_c, 1, 85, 0
3, 360192, Note_on_c, 1, 84, 107
3, 360192, Note_on_c, 1, 72, 107
3, 360280, Note_on_c, 1, 72, 0
3, 360280, Note_on_c, 1, 84, 0
3, 360384, Note_on_c, 1, 82, 107
3, 360384, Note_on_c, 1, 70, 107
3, 360472, Note_on_c, 1, 70, 0
3, 360472, Note_on_c, 1, 82, 0
3, 360576, Note_on_c, 1, 80, 107
3, 360576, Note_on_c, 1, 68, 107
3, 360664, Note_on_c, 1, 68, 0
3, 360664, Note_on_c, 1, 80, 0
3, 360768, Note_on_c, 1, 79, 107
3, 360768, Note_on_c, 1, 67, 107
3, 360856, Note_on_c, 1, 67, 0
3, 360856, Note_on_c, 1, 79, 0
3, 360960, Note_on_c, 1, 77, 80
3, 361048, Note_on_c, 1, 77, 0
3, 361152, Note_on_c, 1, 76, 80
3, 361240, Note_on_c, 1, 76, 0
3, 361344, Note_on_c, 1, 77, 80
3, 361432, Note_on_c, 1, 77, 0
3, 361536, Note_on_c, 1, 79, 80
3, 361624, Note_on_c, 1, 79, 0
3, 361728, Note_on_c, 1, 80, 80
3, 361728, Note_on_c, 1, 65, 80
3, 361816, Note_on_c, 1, 80, 0
3, 361920, Note_on_c, 1, 79, 80
3, 362008, Note_on_c, 1, 79, 0
3, 362112, Note_on_c, 1, 80, 80
3, 362200, Note_on_c, 1, 80, 0
3, 362304, Note_on_c, 1, 82, 80
3, 362392, Note_on_c, 1, 82, 0
3, 362488, Note_on_c, 1, 65, 0
3, 362496, Note_on_c, 1, 84, 80
3, 362496, Note_on_c, 1, 67, 80
3, 362496, Note_on_c, 1, 65, 80
3, 362496, Note_on_c, 1, 60, 80
3, 362584, Note_on_c, 1, 84, 0
3, 362688, Note_on_c, 1, 83, 80
3, 362776, Note_on_c, 1, 83, 0
3, 362880, Note_on_c, 1, 84, 80
3, 362968, Note_on_c, 1, 84, 0
3, 363072, Note_on_c, 1, 85, 80
3, 363160, Note_on_c, 1, 85, 0
3, 363256, Note_on_c, 1, 60, 0
3, 363256, Note_on_c, 1, 65, 0
3, 363256, Note_on_c, 1, 67, 0
3, 363264, Note_on_c, 1, 84, 80
3, 363264, Note_on_c, 1, 64, 80
3, 363264, Note_on_c, 1, 60, 80
3, 363264, Note_on_c, 1, 67, 80
3, 363352, Note_on_c, 1, 84, 0
3, 363456, Note_on_c, 1, 82, 80
3, 363544, Note_on_c, 1, 82, 0
3, 363640, Note_on_c, 1, 67, 0
3, 363648, Note_on_c, 1, 80, 80
3, 363648, Note_on_c, 1, 70, 80
3, 363736, Note_on_c, 1, 80, 0
3, 363840, Note_on_c, 1, 79, 80
3, 363928, Note_on_c, 1, 79, 0
3, 364024, Note_on_c, 1, 70, 0
3, 364024, Note_on_c, 1, 60, 0
3, 364024, Note_on_c, 1, 64, 0
3, 364032, Note_on_c, 1, 77, 80
3, 364032, Note_on_c, 1, 65, 80
3, 364032, Note_on_c, 1, 68, 80
3, 364120, Note_on_c, 1, 77, 0
3, 364224, Note_on_c, 1, 76, 80
3, 364312, Note_on_c, 1, 76, 0
3, 364408, Note_on_c, 1, 68, 0
3, 364408, Note_on_c, 1, 65, 0
3, 364416, Note_on_c, 1, 77, 80
3, 364504, Note_on_c, 1, 77, 0
3, 364608, Note_on_c, 1, 79, 80
3, 364696, Note_on_c, 1, 79, 0
3, 364800, Note_on_c, 1, 80, 80
3, 364800, Note_on_c, 1, 65, 80
3, 364800, Note_on_c, 1, 63, 80
3, 364892, Note_on_c, 1, 80, 0
3, 364992, Note_on_c, 1, 79, 80
3, 365080, Note_on_c, 1, 79, 0
3, 365184, Note_on_c, 1, 80, 80
3, 365272, Note_on_c, 1, 80, 0
3, 365376, Note_on_c, 1, 82, 80
3, 365464, Note_on_c, 1, 82, 0
3, 365560, Note_on_c, 1, 63, 0
3, 365560, Note_on_c, 1, 65, 0
3, 365568, Note_on_c, 1, 83, 80
3, 365568, Note_on_c, 1, 65, 80
3, 365568, Note_on_c, 1, 63, 80
3, 365568, Note_on_c, 1, 58, 80
3, 365656, Note_on_c, 1, 83, 0
3, 365760, Note_on_c, 1, 82, 80
3, 365848, Note_on_c, 1, 82, 0
3, 365952, Note_on_c, 1, 81, 80
3, 366040, Note_on_c, 1, 81, 0
3, 366144, Note_on_c, 1, 83, 80
3, 366232, Note_on_c, 1, 83, 0
3, 366328, Note_on_c, 1, 58, 0
3, 366328, Note_on_c, 1, 63, 0
3, 366328, Note_on_c, 1, 65, 0
3, 366336, Note_on_c, 1, 82, 80
3, 366336, Note_on_c, 1, 62, 80
3, 366336, Note_on_c, 1, 58, 80
3, 366336, Note_on_c, 1, 65, 80
3, 366424, Note_on_c, 1, 82, 0
3, 366528, Note_on_c, 1, 79, 80
3, 366616, Note_on_c, 1, 79, 0
3, 366712, Note_on_c, 1, 65, 0
3, 366720, Note_on_c, 1, 80, 80
3, 366720, Note_on_c, 1, 70, 80
3, 366808, Note_on_c, 1, 80, 0
3, 366904, Note_on_c, 1, 70, 0
3, 366912, Note_on_c, 1, 77, 80
3, 366912, Note_on_c, 1, 68, 80
3, 367000, Note_on_c, 1, 77, 0
3, 367096, Note_on_c, 1, 62, 0
3, 367096, Note_on_c, 1, 58, 0
3, 367096, Note_on_c, 1, 68, 0
3, 367104, Note_on_c, 1, 75, 107
3, 367104, Note_on_c, 1, 67, 107
3, 367480, Note_on_c, 1, 67, 0
3, 367480, Note_on_c, 1, 75, 0
3, 367680, Note_on_c, 1, 79, 107
3, 367768, Note_on_c, 1, 79, 0
3, 367776, Note_on_c, 1, 75, 107
3, 367864, Note_on_c, 1, 75, 0
3, 367872, Note_on_c, 1, 70, 107
3, 367960, Note_on_c, 1, 70, 0
3, 368064, Note_on_c, 1, 70, 107
3, 368152, Note_on_c, 1, 70, 0
3, 368256, Note_on_c, 1, 70, 107
3, 368344, Note_on_c, 1, 70, 0
3, 368448, Note_on_c, 1, 70, 107
3, 368536, Note_on_c, 1, 70, 0
3, 368640, Note_on_c, 1, 82, 107
3, 368824, Note_on_c, 1, 82, 0
3, 368832, Note_on_c, 1, 80, 107
3, 369016, Note_on_c, 1, 80, 0
3, 369024, Note_on_c, 1, 80, 107
3, 369400, Note_on_c, 1, 80, 0
3, 369408, Note_on_c, 1, 80, 107
3, 369592, Note_on_c, 1, 80, 0
3, 369600, Note_on_c, 1, 82, 107
3, 369688, Note_on_c, 1, 82, 0
3, 369696, Note_on_c, 1, 80, 107
3, 369784, Note_on_c, 1, 80, 0
3, 369792, Note_on_c, 1, 79, 107
3, 369880, Note_on_c, 1, 79, 0
3, 369888, Note_on_c, 1, 77, 107
3, 369976, Note_on_c, 1, 77, 0
3, 369984, Note_on_c, 1, 75, 107
3, 370072, Note_on_c, 1, 75, 0
3, 370080, Note_on_c, 1, 74, 107
3, 370168, Note_on_c, 1, 74, 0
3, 370176, Note_on_c, 1, 77, 107
3, 370360, Note_on_c, 1, 77, 0
3, 370368, Note_on_c, 1, 75, 107
3, 370552, Note_on_c, 1, 75, 0
3, 370752, Note_on_c, 1, 79, 107
3, 370840, Note_on_c, 1, 79, 0
3, 370848, Note_on_c, 1, 75, 107
3, 370936, Note_on_c, 1, 75, 0
3, 370944, Note_on_c, 1, 70, 107
3, 371032, Note_on_c, 1, 70, 0
3, 371136, Note_on_c, 1, 70, 107
3, 371224, Note_on_c, 1, 70, 0
3, 371328, Note_on_c, 1, 70, 107
3, 371416, Note_on_c, 1, 70, 0
3, 371520, Note_on_c, 1, 70, 107
3, 371608, Note_on_c, 1, 70, 0
3, 371712, Note_on_c, 1, 70, 107
3, 371896, Note_on_c, 1, 70, 0
3, 371904, Note_on_c, 1, 82, 107
3, 371992, Note_on_c, 1, 82, 0
3, 372000, Note_on_c, 1, 80, 107
3, 372088, Note_on_c, 1, 80, 0
3, 372096, Note_on_c, 1, 80, 107
3, 372472, Note_on_c, 1, 80, 0
3, 372480, Note_on_c, 1, 80, 107
3, 372664, Note_on_c, 1, 80, 0
3, 372672, Note_on_c, 1, 79, 107
3, 372760, Note_on_c, 1, 79, 0
3, 372768, Note_on_c, 1, 80, 107
3, 372856, Note_on_c, 1, 80, 0
3, 372864, Note_on_c, 1, 82, 107
3, 372952, Note_on_c, 1, 82, 0
3, 372960, Note_on_c, 1, 80, 107
3, 373048, Note_on_c, 1, 80, 0
3, 373056, Note_on_c, 1, 79, 107
3, 373144, Note_on_c, 1, 79, 0
3, 373152, Note_on_c, 1, 77, 107
3, 373240, Note_on_c, 1, 77, 0
3, 373248, Note_on_c, 1, 79, 107
3, 373336, Note_on_c, 1, 79, 0
3, 373344, Note_on_c, 1, 77, 107
3, 373432, Note_on_c, 1, 77, 0
3, 373440, Note_on_c, 1, 80, 107
3, 373528, Note_on_c, 1, 80, 0
3, 373536, Note_on_c, 1, 79, 107
3, 373624, Note_on_c, 1, 79, 0
3, 373632, Note_on_c, 1, 82, 107
3, 373720, Note_on_c, 1, 82, 0
3, 373728, Note_on_c, 1, 80, 107
3, 373816, Note_on_c, 1, 80, 0
3, 373824, Note_on_c, 1, 79, 107
3, 373912, Note_on_c, 1, 79, 0
3, 373920, Note_on_c, 1, 77, 107
3, 374008, Note_on_c, 1, 77, 0
3, 374016, Note_on_c, 1, 75, 107
3, 374104, Note_on_c, 1, 75, 0
3, 374112, Note_on_c, 1, 74, 107
3, 374200, Note_on_c, 1, 74, 0
3, 374208, Note_on_c, 1, 77, 107
3, 374296, Note_on_c, 1, 77, 0
3, 374304, Note_on_c, 1, 75, 107
3, 374392, Note_on_c, 1, 75, 0
3, 374400, Note_on_c, 1, 79, 107
3, 374584, Note_on_c, 1, 79, 0
3, 374784, Note_on_c, 1, 75, 107
3, 374872, Note_on_c, 1, 75, 0
3, 374880, Note_on_c, 1, 74, 107
3, 374968, Note_on_c, 1, 74, 0
3, 374976, Note_on_c, 1, 77, 107
3, 375064, Note_on_c, 1, 77, 0
3, 375072, Note_on_c, 1, 75, 107
3, 375160, Note_on_c, 1, 75, 0
3, 375168, Note_on_c, 1, 79, 107
3, 375256, Note_on_c, 1, 79, 0
3, 375264, Note_on_c, 1, 77, 107
3, 375352, Note_on_c, 1, 77, 0
3, 375360, Note_on_c, 1, 75, 107
3, 375448, Note_on_c, 1, 75, 0
3, 375456, Note_on_c, 1, 74, 107
3, 375544, Note_on_c, 1, 74, 0
3, 375552, Note_on_c, 1, 72, 107
3, 375640, Note_on_c, 1, 72, 0
3, 375648, Note_on_c, 1, 71, 107
3, 375736, Note_on_c, 1, 71, 0
3, 375744, Note_on_c, 1, 74, 107
3, 375832, Note_on_c, 1, 74, 0
3, 375840, Note_on_c, 1, 72, 107
3, 375928, Note_on_c, 1, 72, 0
3, 375936, Note_on_c, 1, 75, 107
3, 376120, Note_on_c, 1, 75, 0
3, 376320, Note_on_c, 1, 72, 107
3, 376408, Note_on_c, 1, 72, 0
3, 376416, Note_on_c, 1, 71, 107
3, 376504, Note_on_c, 1, 71, 0
3, 376512, Note_on_c, 1, 74, 107
3, 376600, Note_on_c, 1, 74, 0
3, 376608, Note_on_c, 1, 72, 107
3, 376696, Note_on_c, 1, 72, 0
3, 376704, Note_on_c, 1, 75, 107
3, 376792, Note_on_c, 1, 75, 0
3, 376800, Note_on_c, 1, 74, 107
3, 376888, Note_on_c, 1, 74, 0
3, 376896, Note_on_c, 1, 72, 107
3, 376984, Note_on_c, 1, 72, 0
3, 376992, Note_on_c, 1, 70, 107
3, 377080, Note_on_c, 1, 70, 0
3, 377088, Note_on_c, 1, 69, 107
3, 377176, Note_on_c, 1, 69, 0
3, 377184, Note_on_c, 1, 67, 107
3, 377272, Note_on_c, 1, 67, 0
3, 377280, Note_on_c, 1, 70, 107
3, 377368, Note_on_c, 1, 70, 0
3, 377376, Note_on_c, 1, 69, 107
3, 377464, Note_on_c, 1, 69, 0
3, 377472, Note_on_c, 1, 72, 107
3, 377560, Note_on_c, 1, 72, 0
3, 377568, Note_on_c, 1, 70, 107
3, 377656, Note_on_c, 1, 70, 0
3, 377664, Note_on_c, 1, 69, 107
3, 377752, Note_on_c, 1, 69, 0
3, 377760, Note_on_c, 1, 67, 107
3, 377848, Note_on_c, 1, 67, 0
3, 377856, Note_on_c, 1, 65, 107
3, 378040, Note_on_c, 1, 65, 0
3, 378240, Note_on_c, 1, 72, 107
3, 378240, Note_on_c, 1, 75, 107
3, 379000, Note_on_c, 1, 75, 0
3, 379000, Note_on_c, 1, 72, 0
3, 379008, Note_on_c, 1, 70, 107
3, 379008, Note_on_c, 1, 74, 107
3, 379048, Note_on_c, 1, 74, 0
3, 379056, Note_on_c, 1, 75, 107
3, 379096, Note_on_c, 1, 75, 0
3, 379104, Note_on_c, 1, 74, 107
3, 379144, Note_on_c, 1, 74, 0
3, 379152, Note_on_c, 1, 75, 107
3, 379192, Note_on_c, 1, 75, 0
3, 379200, Note_on_c, 1, 74, 107
3, 379240, Note_on_c, 1, 74, 0
3, 379248, Note_on_c, 1, 75, 107
3, 379288, Note_on_c, 1, 75, 0
3, 379288, Note_on_c, 1, 70, 0
3, 379296, Note_on_c, 1, 72, 107
3, 379336, Note_on_c, 1, 72, 0
3, 379344, Note_on_c, 1, 74, 107
3, 379384, Note_on_c, 1, 74, 0
3, 379392, Note_on_c, 1, 72, 107
3, 379392, Note_on_c, 1, 69, 107
3, 379480, Note_on_c, 1, 69, 0
3, 379480, Note_on_c, 1, 72, 0
3, 379488, Note_on_c, 1, 65, 107
3, 379576, Note_on_c, 1, 65, 0
3, 379584, Note_on_c, 1, 67, 107
3, 379672, Note_on_c, 1, 67, 0
3, 379680, Note_on_c, 1, 69, 107
3, 379768, Note_on_c, 1, 69, 0
3, 379776, Note_on_c, 1, 70, 107
3, 379864, Note_on_c, 1, 70, 0
3, 379872, Note_on_c, 1, 72, 107
3, 379960, Note_on_c, 1, 72, 0
3, 379968, Note_on_c, 1, 74, 107
3, 380056, Note_on_c, 1, 74, 0
3, 380064, Note_on_c, 1, 76, 107
3, 380152, Note_on_c, 1, 76, 0
3, 380160, Note_on_c, 1, 77, 107
3, 380248, Note_on_c, 1, 77, 0
3, 380256, Note_on_c, 1, 79, 107
3, 380344, Note_on_c, 1, 79, 0
3, 380352, Note_on_c, 1, 81, 107
3, 380440, Note_on_c, 1, 81, 0
3, 380448, Note_on_c, 1, 82, 107
3, 380536, Note_on_c, 1, 82, 0
3, 380544, Note_on_c, 1, 84, 107
3, 380632, Note_on_c, 1, 84, 0
3, 380640, Note_on_c, 1, 81, 107
3, 380728, Note_on_c, 1, 81, 0
3, 380736, Note_on_c, 1, 84, 107
3, 380824, Note_on_c, 1, 84, 0
3, 380832, Note_on_c, 1, 81, 107
3, 380920, Note_on_c, 1, 81, 0
3, 380928, Note_on_c, 1, 77, 107
3, 381304, Note_on_c, 1, 77, 0
3, 382848, Note_on_c, 1, 65, 80
3, 382936, Note_on_c, 1, 65, 0
3, 383040, Note_on_c, 1, 65, 80
3, 383128, Note_on_c, 1, 65, 0
3, 383232, Note_on_c, 1, 67, 80
3, 383232, Note_on_c, 1, 64, 80
3, 383320, Note_on_c, 1, 64, 0
3, 383320, Note_on_c, 1, 67, 0
3, 383424, Note_on_c, 1, 67, 80
3, 383424, Note_on_c, 1, 64, 80
3, 383512, Note_on_c, 1, 64, 0
3, 383512, Note_on_c, 1, 67, 0
3, 383616, Note_on_c, 1, 69, 80
3, 383616, Note_on_c, 1, 63, 80
3, 383704, Note_on_c, 1, 63, 0
3, 383704, Note_on_c, 1, 69, 0
3, 383808, Note_on_c, 1, 69, 80
3, 383808, Note_on_c, 1, 63, 80
3, 383896, Note_on_c, 1, 63, 0
3, 383896, Note_on_c, 1, 69, 0
3, 384000, Note_on_c, 1, 70, 80
3, 384000, Note_on_c, 1, 62, 80
3, 384088, Note_on_c, 1, 62, 0
3, 384088, Note_on_c, 1, 70, 0
3, 384192, Note_on_c, 1, 70, 80
3, 384192, Note_on_c, 1, 62, 80
3, 384280, Note_on_c, 1, 62, 0
3, 384280, Note_on_c, 1, 70, 0
3, 384384, Note_on_c, 1, 72, 80
3, 384384, Note_on_c, 1, 69, 80
3, 384472, Note_on_c, 1, 69, 0
3, 384472, Note_on_c, 1, 72, 0
3, 384576, Note_on_c, 1, 72, 80
3, 384576, Note_on_c, 1, 69, 80
3, 384664, Note_on_c, 1, 69, 0
3, 384664, Note_on_c, 1, 72, 0
3, 384768, Note_on_c, 1, 74, 80
3, 384768, Note_on_c, 1, 70, 80
3, 384856, Note_on_c, 1, 70, 0
3, 384856, Note_on_c, 1, 74, 0
3, 384960, Note_on_c, 1, 74, 80
3, 384960, Note_on_c, 1, 70, 80
3, 385048, Note_on_c, 1, 70, 0
3, 385048, Note_on_c, 1, 74, 0
3, 385152, Note_on_c, 1, 75, 80
3, 385152, Note_on_c, 1, 72, 80
3, 385240, Note_on_c, 1, 72, 0
3, 385240, Note_on_c, 1, 75, 0
3, 385344, Note_on_c, 1, 75, 80
3, 385344, Note_on_c, 1, 72, 80
3, 385432, Note_on_c, 1, 72, 0
3, 385432, Note_on_c, 1, 75, 0
3, 385536, Note_on_c, 1, 74, 80
3, 386296, Note_on_c, 1, 74, 0
3, 386304, Note_on_c, 1, 70, 80
3, 386872, Note_on_c, 1, 70, 0
3, 386880, Note_on_c, 1, 72, 80
3, 387064, Note_on_c, 1, 72, 0
3, 387072, Note_on_c, 1, 75, 80
3, 387256, Note_on_c, 1, 75, 0
3, 387264, Note_on_c, 1, 74, 80
3, 387448, Note_on_c, 1, 74, 0
3, 387456, Note_on_c, 1, 72, 80
3, 387544, Note_on_c, 1, 72, 0
3, 387648, Note_on_c, 1, 70, 80
3, 387736, Note_on_c, 1, 70, 0
3, 387840, Note_on_c, 1, 70, 80
3, 388216, Note_on_c, 1, 70, 0
3, 388608, Note_on_c, 1, 67, 80
3, 388984, Note_on_c, 1, 67, 0
3, 388992, Note_on_c, 1, 63, 80
3, 389176, Note_on_c, 1, 63, 0
3, 389376, Note_on_c, 1, 67, 80
3, 389752, Note_on_c, 1, 67, 0
3, 389760, Note_on_c, 1, 63, 80
3, 389944, Note_on_c, 1, 63, 0
3, 390144, Note_on_c, 1, 62, 80
3, 390904, Note_on_c, 1, 62, 0
3, 390912, Note_on_c, 1, 60, 80
3, 391288, Note_on_c, 1, 60, 0
3, 391680, Note_on_c, 1, 65, 80
3, 392440, Note_on_c, 1, 65, 0
3, 392448, Note_on_c, 1, 63, 80
3, 392824, Note_on_c, 1, 63, 0
3, 392832, Note_on_c, 1, 62, 80
3, 393208, Note_on_c, 1, 62, 0
3, 393216, Note_on_c, 1, 60, 80
3, 393592, Note_on_c, 1, 60, 0
3, 393600, Note_on_c, 1, 72, 80
3, 393600, Note_on_c, 1, 69, 80
3, 394360, Note_on_c, 1, 69, 0
3, 394360, Note_on_c, 1, 72, 0
3, 394368, Note_on_c, 1, 70, 80
3, 394744, Note_on_c, 1, 70, 0
3, 394752, Note_on_c, 1, 72, 80
3, 394752, Note_on_c, 1, 67, 80
3, 395128, Note_on_c, 1, 67, 0
3, 395128, Note_on_c, 1, 72, 0
3, 395328, Note_on_c, 1, 67, 80
3, 395416, Note_on_c, 1, 67, 0
3, 395424, Note_on_c, 1, 63, 80
3, 395512, Note_on_c, 1, 63, 0
3, 395520, Note_on_c, 1, 62, 80
3, 395704, Note_on_c, 1, 62, 0
3, 395712, Note_on_c, 1, 65, 80
3, 395896, Note_on_c, 1, 65, 0
3, 395904, Note_on_c, 1, 63, 80
3, 396088, Note_on_c, 1, 63, 0
3, 396096, Note_on_c, 1, 65, 80
3, 396280, Note_on_c, 1, 65, 0
3, 396288, Note_on_c, 1, 62, 80
3, 396376, Note_on_c, 1, 62, 0
3, 396480, Note_on_c, 1, 65, 80
3, 396568, Note_on_c, 1, 65, 0
3, 396672, Note_on_c, 1, 70, 80
3, 396760, Note_on_c, 1, 70, 0
3, 396864, Note_on_c, 1, 72, 80
3, 396896, Note_on_c, 1, 72, 0
3, 396900, Note_on_c, 1, 74, 80
3, 396932, Note_on_c, 1, 74, 0
3, 396936, Note_on_c, 1, 72, 80
3, 396968, Note_on_c, 1, 72, 0
3, 396972, Note_on_c, 1, 70, 80
3, 397004, Note_on_c, 1, 70, 0
3, 397008, Note_on_c, 1, 72, 80
3, 397040, Note_on_c, 1, 72, 0
3, 397056, Note_on_c, 1, 74, 80
3, 397144, Note_on_c, 1, 74, 0
3, 397248, Note_on_c, 1, 70, 80
3, 397336, Note_on_c, 1, 70, 0
3, 397440, Note_on_c, 1, 74, 80
3, 397528, Note_on_c, 1, 74, 0
3, 397632, Note_on_c, 1, 75, 80
3, 397664, Note_on_c, 1, 75, 0
3, 397668, Note_on_c, 1, 77, 80
3, 397700, Note_on_c, 1, 77, 0
3, 397704, Note_on_c, 1, 75, 80
3, 397736, Note_on_c, 1, 75, 0
3, 397740, Note_on_c, 1, 74, 80
3, 397772, Note_on_c, 1, 74, 0
3, 397776, Note_on_c, 1, 75, 80
3, 397808, Note_on_c, 1, 75, 0
3, 397824, Note_on_c, 1, 77, 80
3, 397824, Note_on_c, 1, 74, 80
3, 398584, Note_on_c, 1, 74, 0
3, 398584, Note_on_c, 1, 77, 0
3, 398592, Note_on_c, 1, 74, 80
3, 398592, Note_on_c, 1, 70, 80
3, 398920, Note_on_c, 1, 70, 0
3, 398920, Note_on_c, 1, 74, 0
3, 398928, Note_on_c, 1, 74, 80
3, 398968, Note_on_c, 1, 74, 0
3, 398976, Note_on_c, 1, 75, 80
3, 399016, Note_on_c, 1, 75, 0
3, 399024, Note_on_c, 1, 74, 80
3, 399064, Note_on_c, 1, 74, 0
3, 399072, Note_on_c, 1, 72, 80
3, 399112, Note_on_c, 1, 72, 0
3, 399120, Note_on_c, 1, 74, 80
3, 399160, Note_on_c, 1, 74, 0
3, 399168, Note_on_c, 1, 75, 80
3, 399168, Note_on_c, 1, 72, 80
3, 399352, Note_on_c, 1, 72, 0
3, 399352, Note_on_c, 1, 75, 0
3, 399360, Note_on_c, 1, 79, 80
3, 399360, Note_on_c, 1, 75, 80
3, 399544, Note_on_c, 1, 75, 0
3, 399544, Note_on_c, 1, 79, 0
3, 399552, Note_on_c, 1, 77, 80
3, 399552, Note_on_c, 1, 74, 80
3, 399736, Note_on_c, 1, 74, 0
3, 399736, Note_on_c, 1, 77, 0
3, 399744, Note_on_c, 1, 75, 80
3, 399744, Note_on_c, 1, 72, 80
3, 399832, Note_on_c, 1, 72, 0
3, 399832, Note_on_c, 1, 75, 0
3, 399936, Note_on_c, 1, 74, 80
3, 399936, Note_on_c, 1, 70, 80
3, 400024, Note_on_c, 1, 70, 0
3, 400024, Note_on_c, 1, 74, 0
3, 400128, Note_on_c, 1, 74, 80
3, 400128, Note_on_c, 1, 70, 80
3, 400504, Note_on_c, 1, 70, 0
3, 400504, Note_on_c, 1, 74, 0
3, 400896, Note_on_c, 1, 75, 80
3, 400896, Note_on_c, 1, 67, 80
3, 401272, Note_on_c, 1, 67, 0
3, 401272, Note_on_c, 1, 75, 0
3, 401280, Note_on_c, 1, 72, 80
3, 401464, Note_on_c, 1, 72, 0
3, 401664, Note_on_c, 1, 75, 80
3, 401664, Note_on_c, 1, 67, 80
3, 402040, Note_on_c, 1, 67, 0
3, 402040, Note_on_c, 1, 75, 0
3, 402048, Note_on_c, 1, 72, 80
3, 402232, Note_on_c, 1, 72, 0
3, 402432, Note_on_c, 1, 70, 80
3, 402432, Note_on_c, 1, 62, 80
3, 403192, Note_on_c, 1, 62, 0
3, 403192, Note_on_c, 1, 70, 0
3, 403200, Note_on_c, 1, 69, 80
3, 403200, Note_on_c, 1, 60, 80
3, 403576, Note_on_c, 1, 60, 0
3, 403576, Note_on_c, 1, 69, 0
3, 403968, Note_on_c, 1, 60, 80
3, 403968, Note_on_c, 1, 57, 80
3, 404344, Note_on_c, 1, 57, 0
3, 404344, Note_on_c, 1, 60, 0
3, 404928, Note_on_c, 1, 65, 80
3, 404928, Note_on_c, 1, 57, 80
3, 405112, Note_on_c, 1, 57, 0
3, 405112, Note_on_c, 1, 65, 0
3, 405120, Note_on_c, 1, 65, 80
3, 405120, Note_on_c, 1, 57, 80
3, 405304, Note_on_c, 1, 57, 0
3, 405304, Note_on_c, 1, 65, 0
3, 405312, Note_on_c, 1, 65, 80
3, 405312, Note_on_c, 1, 57, 80
3, 405496, Note_on_c, 1, 57, 0
3, 405496, Note_on_c, 1, 65, 0
3, 405696, Note_on_c, 1, 63, 80
3, 405696, Note_on_c, 1, 58, 80
3, 405880, Note_on_c, 1, 58, 0
3, 405880, Note_on_c, 1, 63, 0
3, 405888, Note_on_c, 1, 63, 80
3, 405888, Note_on_c, 1, 58, 80
3, 406072, Note_on_c, 1, 58, 0
3, 406072, Note_on_c, 1, 63, 0
3, 406080, Note_on_c, 1, 63, 80
3, 406080, Note_on_c, 1, 58, 80
3, 406264, Note_on_c, 1, 58, 0
3, 406264, Note_on_c, 1, 63, 0
3, 406464, Note_on_c, 1, 72, 80
3, 406464, Note_on_c, 1, 69, 80
3, 406464, Note_on_c, 1, 65, 80
3, 406648, Note_on_c, 1, 65, 0
3, 406648, Note_on_c, 1, 69, 0
3, 406648, Note_on_c, 1, 72, 0
3, 406656, Note_on_c, 1, 72, 80
3, 406656, Note_on_c, 1, 69, 80
3, 406656, Note_on_c, 1, 65, 80
3, 406840, Note_on_c, 1, 65, 0
3, 406840, Note_on_c, 1, 69, 0
3, 406840, Note_on_c, 1, 72, 0
3, 406848, Note_on_c, 1, 72, 80
3, 406848, Note_on_c, 1, 69, 80
3, 406848, Note_on_c, 1, 65, 80
3, 407032, Note_on_c, 1, 65, 0
3, 407032, Note_on_c, 1, 69, 0
3, 407032, Note_on_c, 1, 72, 0
3, 407040, Note_on_c, 1, 74, 80
3, 407040, Note_on_c, 1, 70, 80
3, 407040, Note_on_c, 1, 65, 80
3, 407416, Note_on_c, 1, 65, 0
3, 407416, Note_on_c, 1, 70, 0
3, 407416, Note_on_c, 1, 74, 0
3, 408960, Note_on_c, 1, 70, 80
3, 409720, Note_on_c, 1, 70, 0
3, 409728, Note_on_c, 1, 69, 80
3, 410104, Note_on_c, 1, 69, 0
3, 410112, Note_on_c, 1, 70, 80
3, 410296, Note_on_c, 1, 70, 0
3, 410304, Note_on_c, 1, 70, 80
3, 410304, Note_on_c, 1, 65, 80
3, 410304, Note_on_c, 1, 62, 80
3, 410488, Note_on_c, 1, 62, 0
3, 410488, Note_on_c, 1, 65, 0
3, 410488, Note_on_c, 1, 70, 0
3, 410496, Note_on_c, 1, 70, 80
3, 410496, Note_on_c, 1, 65, 80
3, 410496, Note_on_c, 1, 62, 80
3, 410680, Note_on_c, 1, 62, 0
3, 410680, Note_on_c, 1, 65, 0
3, 410680, Note_on_c, 1, 70, 0
3, 410688, Note_on_c, 1, 70, 80
3, 410688, Note_on_c, 1, 65, 80
3, 410688, Note_on_c, 1, 62, 80
3, 410872, Note_on_c, 1, 62, 0
3, 410872, Note_on_c, 1, 65, 0
3, 410872, Note_on_c, 1, 70, 0
3, 411072, Note_on_c, 1, 70, 80
3, 411072, Note_on_c, 1, 67, 80
3, 411072, Note_on_c, 1, 63, 80
3, 411256, Note_on_c, 1, 63, 0
3, 411256, Note_on_c, 1, 67, 0
3, 411256, Note_on_c, 1, 70, 0
3, 411264, Note_on_c, 1, 70, 80
3, 411264, Note_on_c, 1, 67, 80
3, 411264, Note_on_c, 1, 63, 80
3, 411448, Note_on_c, 1, 63, 0
3, 411448, Note_on_c, 1, 67, 0
3, 411448, Note_on_c, 1, 70, 0
3, 411456, Note_on_c, 1, 70, 80
3, 411456, Note_on_c, 1, 67, 80
3, 411456, Note_on_c, 1, 63, 80
3, 411640, Note_on_c, 1, 63, 0
3, 411640, Note_on_c, 1, 67, 0
3, 411640, Note_on_c, 1, 70, 0
3, 411840, Note_on_c, 1, 70, 80
3, 411840, Note_on_c, 1, 65, 80
3, 412024, Note_on_c, 1, 65, 0
3, 412024, Note_on_c, 1, 70, 0
3, 412032, Note_on_c, 1, 70, 80
3, 412032, Note_on_c, 1, 62, 80
3, 412216, Note_on_c, 1, 62, 0
3, 412216, Note_on_c, 1, 70, 0
3, 412224, Note_on_c, 1, 70, 80
3, 412224, Note_on_c, 1, 67, 80
3, 412224, Note_on_c, 1, 62, 80
3, 412408, Note_on_c, 1, 62, 0
3, 412408, Note_on_c, 1, 67, 0
3, 412408, Note_on_c, 1, 70, 0
3, 412416, Note_on_c, 1, 70, 80
3, 412416, Note_on_c, 1, 67, 80
3, 412416, Note_on_c, 1, 60, 80
3, 412600, Note_on_c, 1, 60, 0
3, 412600, Note_on_c, 1, 67, 0
3, 412600, Note_on_c, 1, 70, 0
3, 412608, Note_on_c, 1, 70, 80
3, 412608, Note_on_c, 1, 67, 80
3, 412608, Note_on_c, 1, 60, 80
3, 412784, Note_on_c, 1, 60, 80
3, 412792, Note_on_c, 1, 60, 0
3, 412792, Note_on_c, 1, 70, 0
3, 412792, Note_on_c, 1, 67, 0
3, 412800, Note_on_c, 1, 69, 80
3, 412800, Note_on_c, 1, 65, 80
3, 412968, Note_on_c, 1, 60, 0
3, 412984, Note_on_c, 1, 65, 0
3, 412984, Note_on_c, 1, 69, 0
3, 412992, Note_on_c, 1, 69, 80
3, 412992, Note_on_c, 1, 63, 80
3, 412992, Note_on_c, 1, 60, 80
3, 413176, Note_on_c, 1, 60, 0
3, 413176, Note_on_c, 1, 63, 0
3, 413176, Note_on_c, 1, 69, 0
3, 413184, Note_on_c, 1, 70, 107
3, 413272, Note_on_c, 1, 70, 0
3, 413280, Note_on_c, 1, 65, 107
3, 413368, Note_on_c, 1, 65, 0
3, 413376, Note_on_c, 1, 62, 107
3, 413464, Note_on_c, 1, 62, 0
3, 413472, Note_on_c, 1, 65, 107
3, 413560, Note_on_c, 1, 65, 0
3, 413568, Note_on_c, 1, 70, 107
3, 413656, Note_on_c, 1, 70, 0
3, 413664, Note_on_c, 1, 65, 107
3, 413752, Note_on_c, 1, 65, 0
3, 413760, Note_on_c, 1, 70, 107
3, 413848, Note_on_c, 1, 70, 0
3, 413856, Note_on_c, 1, 65, 107
3, 413944, Note_on_c, 1, 65, 0
3, 413952, Note_on_c, 1, 74, 107
3, 414040, Note_on_c, 1, 74, 0
3, 414048, Note_on_c, 1, 70, 107
3, 414136, Note_on_c, 1, 70, 0
3, 414144, Note_on_c, 1, 74, 107
3, 414232, Note_on_c, 1, 74, 0
3, 414240, Note_on_c, 1, 70, 107
3, 414328, Note_on_c, 1, 70, 0
3, 414336, Note_on_c, 1, 77, 107
3, 414424, Note_on_c, 1, 77, 0
3, 414432, Note_on_c, 1, 74, 107
3, 414520, Note_on_c, 1, 74, 0
3, 414528, Note_on_c, 1, 77, 107
3, 414616, Note_on_c, 1, 77, 0
3, 414624, Note_on_c, 1, 74, 107
3, 414712, Note_on_c, 1, 74, 0
3, 414720, Note_on_c, 1, 82, 107
3, 415096, Note_on_c, 1, 82, 0
3, 415488, Note_on_c, 1, 70, 80
3, 415488, Note_on_c, 1, 62, 80
3, 415864, Note_on_c, 1, 62, 0
3, 415864, Note_on_c, 1, 70, 0
3, 416256, Note_on_c, 1, 75, 80
3, 416256, Note_on_c, 1, 70, 80
3, 416256, Note_on_c, 1, 67, 80
3, 416632, Note_on_c, 1, 67, 0
3, 416632, Note_on_c, 1, 70, 0
3, 416632, Note_on_c, 1, 75, 0
3, 417024, Note_on_c, 1, 72, 80
3, 417024, Note_on_c, 1, 65, 80
3, 417024, Note_on_c, 1, 60, 80
3, 417024, Note_on_c, 1, 63, 80
3, 417400, Note_on_c, 1, 63, 0
3, 417400, Note_on_c, 1, 72, 0
3, 417400, Note_on_c, 1, 65, 0
3, 417400, Note_on_c, 1, 60, 0
3, 417792, Note_on_c, 1, 70, 80
3, 417792, Note_on_c, 1, 65, 80
3, 417792, Note_on_c, 1, 61, 80
3, 418168, Note_on_c, 1, 61, 0
3, 418168, Note_on_c, 1, 65, 0
3, 418168, Note_on_c, 1, 70, 0
3, 418560, Note_on_c, 1, 73, 80
3, 418560, Note_on_c, 1, 70, 80
3, 418560, Note_on_c, 1, 66, 80
3, 418936, Note_on_c, 1, 66, 0
3, 418936, Note_on_c, 1, 70, 0
3, 418936, Note_on_c, 1, 73, 0
3, 419328, Note_on_c, 1, 78, 80
3, 419328, Note_on_c, 1, 70, 80
3, 419328, Note_on_c, 1, 63, 80
3, 419704, Note_on_c, 1, 63, 0
3, 419704, Note_on_c, 1, 70, 0
3, 419704, Note_on_c, 1, 78, 0
3, 420096, Note_on_c, 1, 72, 80
3, 420096, Note_on_c, 1, 69, 80
3, 420096, Note_on_c, 1, 65, 80
3, 420472, Note_on_c, 1, 65, 0
3, 420472, Note_on_c, 1, 69, 0
3, 420472, Note_on_c, 1, 72, 0
3, 420864, Note_on_c, 1, 73, 80
3, 420864, Note_on_c, 1, 70, 80
3, 420864, Note_on_c, 1, 58, 80
3, 421240, Note_on_c, 1, 58, 0
3, 421240, Note_on_c, 1, 70, 0
3, 421240, Note_on_c, 1, 73, 0
3, 421632, Note_on_c, 1, 80, 80
3, 421632, Note_on_c, 1, 73, 80
3, 421632, Note_on_c, 1, 65, 80
3, 422008, Note_on_c, 1, 65, 0
3, 422008, Note_on_c, 1, 73, 0
3, 422008, Note_on_c, 1, 80, 0
3, 422400, Note_on_c, 1, 82, 80
3, 422400, Note_on_c, 1, 73, 80
3, 422400, Note_on_c, 1, 66, 80
3, 422776, Note_on_c, 1, 66, 0
3, 422776, Note_on_c, 1, 73, 0
3, 422776, Note_on_c, 1, 82, 0
3, 423168, Note_on_c, 1, 75, 80
3, 423168, Note_on_c, 1, 68, 80
3, 423168, Note_on_c, 1, 72, 80
3, 423544, Note_on_c, 1, 72, 0
3, 423544, Note_on_c, 1, 68, 0
3, 423544, Note_on_c, 1, 75, 0
3, 423936, Note_on_c, 1, 77, 80
3, 423936, Note_on_c, 1, 73, 80
3, 423936, Note_on_c, 1, 61, 80
3, 424312, Note_on_c, 1, 61, 0
3, 424312, Note_on_c, 1, 73, 0
3, 424312, Note_on_c, 1, 77, 0
3, 424704, Note_on_c, 1, 65, 80
3, 424704, Note_on_c, 1, 60, 80
3, 424704, Note_on_c, 1, 56, 80
3, 424896, Note_on_c, 1, 77, 80
3, 425080, Note_on_c, 1, 77, 0
3, 425080, Note_on_c, 1, 65, 0
3, 425080, Note_on_c, 1, 60, 0
3, 425080, Note_on_c, 1, 56, 0
3, 425088, Note_on_c, 1, 79, 80
3, 425272, Note_on_c, 1, 79, 0
3, 425280, Note_on_c, 1, 80, 80
3, 425464, Note_on_c, 1, 80, 0
3, 425472, Note_on_c, 1, 79, 80
3, 425472, Note_on_c, 1, 65, 80
3, 425472, Note_on_c, 1, 61, 80
3, 425472, Note_on_c, 1, 58, 80
3, 425656, Note_on_c, 1, 79, 0
3, 425664, Note_on_c, 1, 82, 80
3, 425848, Note_on_c, 1, 82, 0
3, 425848, Note_on_c, 1, 58, 0
3, 425848, Note_on_c, 1, 61, 0
3, 425848, Note_on_c, 1, 65, 0
3, 425856, Note_on_c, 1, 85, 80
3, 426240, Note_on_c, 1, 64, 80
3, 426240, Note_on_c, 1, 60, 80
3, 426616, Note_on_c, 1, 60, 0
3, 426616, Note_on_c, 1, 64, 0
3, 426616, Note_on_c, 1, 85, 0
3, 426624, Note_on_c, 1, 84, 80
3, 426808, Note_on_c, 1, 84, 0
3, 426816, Note_on_c, 1, 82, 80
3, 427000, Note_on_c, 1, 82, 0
3, 427008, Note_on_c, 1, 82, 80
3, 427008, Note_on_c, 1, 65, 80
3, 427008, Note_on_c, 1, 60, 80
3, 427008, Note_on_c, 1, 53, 80
3, 427768, Note_on_c, 1, 82, 0
3, 427776, Note_on_c, 1, 81, 80
3, 428536, Note_on_c, 1, 81, 0
3, 428536, Note_on_c, 1, 65, 0
3, 428536, Note_on_c, 1, 60, 0
3, 428540, Note_on_c, 1, 53, 0
3, 428544, Note_on_c, 1, 80, 80
3, 428544, Note_on_c, 1, 65, 80
3, 428544, Note_on_c, 1, 62, 80
3, 428544, Note_on_c, 1, 58, 80
3, 429304, Note_on_c, 1, 65, 0
3, 429304, Note_on_c, 1, 80, 0
3, 429312, Note_on_c, 1, 77, 80
3, 429312, Note_on_c, 1, 70, 80
3, 430072, Note_on_c, 1, 70, 0
3, 430072, Note_on_c, 1, 58, 0
3, 430072, Note_on_c, 1, 62, 0
3, 430072, Note_on_c, 1, 77, 0
3, 430080, Note_on_c, 1, 75, 80
3, 430080, Note_on_c, 1, 70, 80
3, 430264, Note_on_c, 1, 70, 0
3, 430264, Note_on_c, 1, 75, 0
3, 430464, Note_on_c, 1, 68, 80
3, 430464, Note_on_c, 1, 62, 80
3, 430464, Note_on_c, 1, 58, 80
3, 430648, Note_on_c, 1, 58, 0
3, 430648, Note_on_c, 1, 62, 0
3, 430648, Note_on_c, 1, 68, 0
3, 430848, Note_on_c, 1, 66, 80
3, 430848, Note_on_c, 1, 63, 80
3, 430848, Note_on_c, 1, 58, 80
3, 431032, Note_on_c, 1, 58, 0
3, 431032, Note_on_c, 1, 63, 0
3, 431032, Note_on_c, 1, 66, 0
3, 431232, Note_on_c, 1, 70, 80
3, 431232, Note_on_c, 1, 65, 80
3, 431232, Note_on_c, 1, 58, 80
3, 431416, Note_on_c, 1, 58, 0
3, 431416, Note_on_c, 1, 65, 0
3, 431416, Note_on_c, 1, 70, 0
3, 431616, Note_on_c, 1, 70, 80
3, 431616, Note_on_c, 1, 66, 80
3, 431616, Note_on_c, 1, 63, 80
3, 432376, Note_on_c, 1, 63, 0
3, 432376, Note_on_c, 1, 66, 0
3, 432376, Note_on_c, 1, 70, 0
3, 432384, Note_on_c, 1, 70, 80
3, 432384, Note_on_c, 1, 67, 80
3, 432384, Note_on_c, 1, 60, 80
3, 433144, Note_on_c, 1, 60, 0
3, 433144, Note_on_c, 1, 67, 0
3, 433144, Note_on_c, 1, 70, 0
3, 433152, Note_on_c, 1, 69, 80
3, 433152, Note_on_c, 1, 65, 80
3, 433240, Note_on_c, 1, 65, 0
3, 433240, Note_on_c, 1, 69, 0
3, 433344, Note_on_c, 1, 69, 80
3, 433344, Note_on_c, 1, 65, 80
3, 433432, Note_on_c, 1, 65, 0
3, 433432, Note_on_c, 1, 69, 0
3, 433440, Note_on_c, 1, 70, 80
3, 433440, Note_on_c, 1, 67, 80
3, 433528, Note_on_c, 1, 67, 0
3, 433528, Note_on_c, 1, 70, 0
3, 433536, Note_on_c, 1, 69, 80
3, 433552, Note_on_c, 1, 72, 80
3, 433720, Note_on_c, 1, 69, 0
3, 433728, Note_on_c, 1, 73, 80
3, 433728, Note_on_c, 1, 70, 80
3, 433736, Note_on_c, 1, 72, 0
3, 433816, Note_on_c, 1, 70, 0
3, 433816, Note_on_c, 1, 73, 0
3, 433920, Note_on_c, 1, 75, 80
3, 433920, Note_on_c, 1, 72, 80
3, 434680, Note_on_c, 1, 72, 0
3, 434680, Note_on_c, 1, 75, 0
3, 434688, Note_on_c, 1, 74, 80
3, 434688, Note_on_c, 1, 72, 80
3, 434872, Note_on_c, 1, 72, 0
3, 434880, Note_on_c, 1, 65, 80
3, 435064, Note_on_c, 1, 65, 0
3, 435064, Note_on_c, 1, 74, 0
3, 435072, Note_on_c, 1, 74, 80
3, 435072, Note_on_c, 1, 67, 80
3, 435256, Note_on_c, 1, 67, 0
3, 435264, Note_on_c, 1, 69, 80
3, 435352, Note_on_c, 1, 74, 0
3, 435360, Note_on_c, 1, 74, 80
3, 435448, Note_on_c, 1, 74, 0
3, 435448, Note_on_c, 1, 69, 0
3, 435456, Note_on_c, 1, 70, 80
3, 435456, Note_on_c, 1, 74, 80
3, 435496, Note_on_c, 1, 74, 0
3, 435496, Note_on_c, 1, 70, 0
3, 435504, Note_on_c, 1, 72, 80
3, 435504, Note_on_c, 1, 75, 80
3, 435544, Note_on_c, 1, 75, 0
3, 435544, Note_on_c, 1, 72, 0
3, 435552, Note_on_c, 1, 74, 80
3, 435552, Note_on_c, 1, 70, 80
3, 435592, Note_on_c, 1, 70, 0
3, 435592, Note_on_c, 1, 74, 0
3, 435600, Note_on_c, 1, 75, 80
3, 435600, Note_on_c, 1, 70, 80
3, 435640, Note_on_c, 1, 70, 0
3, 435640, Note_on_c, 1, 75, 0
3, 435648, Note_on_c, 1, 74, 80
3, 435648, Note_on_c, 1, 70, 80
3, 435688, Note_on_c, 1, 70, 0
3, 435688, Note_on_c, 1, 74, 0
3, 435696, Note_on_c, 1, 75, 80
3, 435696, Note_on_c, 1, 72, 80
3, 435736, Note_on_c, 1, 72, 0
3, 435736, Note_on_c, 1, 75, 0
3, 435744, Note_on_c, 1, 74, 80
3, 435744, Note_on_c, 1, 70, 80
3, 435784, Note_on_c, 1, 70, 0
3, 435784, Note_on_c, 1, 74, 0
3, 435792, Note_on_c, 1, 75, 80
3, 435792, Note_on_c, 1, 72, 80
3, 435832, Note_on_c, 1, 72, 0
3, 435832, Note_on_c, 1, 75, 0
3, 435840, Note_on_c, 1, 74, 80
3, 435840, Note_on_c, 1, 70, 80
3, 435880, Note_on_c, 1, 70, 0
3, 435880, Note_on_c, 1, 74, 0
3, 435888, Note_on_c, 1, 75, 80
3, 435888, Note_on_c, 1, 72, 80
3, 435928, Note_on_c, 1, 72, 0
3, 435928, Note_on_c, 1, 75, 0
3, 435936, Note_on_c, 1, 74, 80
3, 435936, Note_on_c, 1, 70, 80
3, 435976, Note_on_c, 1, 70, 0
3, 435976, Note_on_c, 1, 74, 0
3, 435984, Note_on_c, 1, 75, 80
3, 435984, Note_on_c, 1, 72, 80
3, 436024, Note_on_c, 1, 72, 0
3, 436024, Note_on_c, 1, 75, 0
3, 436032, Note_on_c, 1, 72, 80
3, 436032, Note_on_c, 1, 69, 80
3, 436120, Note_on_c, 1, 69, 0
3, 436120, Note_on_c, 1, 72, 0
3, 436128, Note_on_c, 1, 74, 80
3, 436128, Note_on_c, 1, 70, 80
3, 436216, Note_on_c, 1, 70, 0
3, 436216, Note_on_c, 1, 74, 0
3, 436224, Note_on_c, 1, 72, 80
3, 436224, Note_on_c, 1, 69, 80
3, 436312, Note_on_c, 1, 69, 0
3, 436312, Note_on_c, 1, 72, 0
3, 436416, Note_on_c, 1, 69, 80
3, 436416, Note_on_c, 1, 65, 80
3, 436504, Note_on_c, 1, 65, 0
3, 436504, Note_on_c, 1, 69, 0
3, 436512, Note_on_c, 1, 70, 80
3, 436512, Note_on_c, 1, 67, 80
3, 436600, Note_on_c, 1, 67, 0
3, 436600, Note_on_c, 1, 70, 0
3, 436608, Note_on_c, 1, 72, 80
3, 436608, Note_on_c, 1, 69, 80
3, 436792, Note_on_c, 1, 69, 0
3, 436792, Note_on_c, 1, 72, 0
3, 436800, Note_on_c, 1, 73, 80
3, 436800, Note_on_c, 1, 70, 80
3, 436888, Note_on_c, 1, 70, 0
3, 436888, Note_on_c, 1, 73, 0
3, 436992, Note_on_c, 1, 75, 80
3, 436992, Note_on_c, 1, 72, 80
3, 437752, Note_on_c, 1, 75, 0
3, 437756, Note_on_c, 1, 72, 0
3, 437760, Note_on_c, 1, 74, 80
3, 437760, Note_on_c, 1, 72, 80
3, 437944, Note_on_c, 1, 72, 0
3, 437952, Note_on_c, 1, 65, 80
3, 438132, Note_on_c, 1, 74, 0
3, 438136, Note_on_c, 1, 65, 0
3, 438144, Note_on_c, 1, 67, 80
3, 438144, Note_on_c, 1, 74, 80
3, 438328, Note_on_c, 1, 67, 0
3, 438336, Note_on_c, 1, 69, 80
3, 438424, Note_on_c, 1, 74, 0
3, 438432, Note_on_c, 1, 74, 80
3, 438520, Note_on_c, 1, 74, 0
3, 438520, Note_on_c, 1, 69, 0
3, 438528, Note_on_c, 1, 70, 80
3, 438528, Note_on_c, 1, 74, 80
3, 438568, Note_on_c, 1, 74, 0
3, 438568, Note_on_c, 1, 70, 0
3, 438576, Note_on_c, 1, 75, 80
3, 438576, Note_on_c, 1, 72, 80
3, 438616, Note_on_c, 1, 72, 0
3, 438616, Note_on_c, 1, 75, 0
3, 438624, Note_on_c, 1, 74, 80
3, 438624, Note_on_c, 1, 70, 80
3, 438664, Note_on_c, 1, 70, 0
3, 438664, Note_on_c, 1, 74, 0
3, 438672, Note_on_c, 1, 75, 80
3, 438672, Note_on_c, 1, 72, 80
3, 438712, Note_on_c, 1, 72, 0
3, 438712, Note_on_c, 1, 75, 0
3, 438720, Note_on_c, 1, 74, 80
3, 438720, Note_on_c, 1, 70, 80
3, 438760, Note_on_c, 1, 70, 0
3, 438760, Note_on_c, 1, 74, 0
3, 438768, Note_on_c, 1, 75, 80
3, 438768, Note_on_c, 1, 72, 80
3, 438808, Note_on_c, 1, 72, 0
3, 438808, Note_on_c, 1, 75, 0
3, 438816, Note_on_c, 1, 74, 80
3, 438816, Note_on_c, 1, 70, 80
3, 438856, Note_on_c, 1, 70, 0
3, 438856, Note_on_c, 1, 74, 0
3, 438864, Note_on_c, 1, 75, 80
3, 438864, Note_on_c, 1, 72, 80
3, 438904, Note_on_c, 1, 72, 0
3, 438904, Note_on_c, 1, 75, 0
3, 438912, Note_on_c, 1, 74, 80
3, 438912, Note_on_c, 1, 70, 80
3, 438952, Note_on_c, 1, 70, 0
3, 438952, Note_on_c, 1, 74, 0
3, 438960, Note_on_c, 1, 75, 80
3, 438960, Note_on_c, 1, 72, 80
3, 439000, Note_on_c, 1, 72, 0
3, 439000, Note_on_c, 1, 75, 0
3, 439008, Note_on_c, 1, 74, 80
3, 439008, Note_on_c, 1, 70, 80
3, 439048, Note_on_c, 1, 70, 0
3, 439048, Note_on_c, 1, 74, 0
3, 439056, Note_on_c, 1, 75, 80
3, 439056, Note_on_c, 1, 72, 80
3, 439096, Note_on_c, 1, 72, 0
3, 439096, Note_on_c, 1, 75, 0
3, 439104, Note_on_c, 1, 72, 80
3, 439104, Note_on_c, 1, 69, 80
3, 439192, Note_on_c, 1, 69, 0
3, 439192, Note_on_c, 1, 72, 0
3, 439200, Note_on_c, 1, 74, 80
3, 439200, Note_on_c, 1, 70, 80
3, 439288, Note_on_c, 1, 70, 0
3, 439288, Note_on_c, 1, 74, 0
3, 439296, Note_on_c, 1, 72, 107
3, 439296, Note_on_c, 1, 69, 107
3, 439672, Note_on_c, 1, 69, 0
3, 439672, Note_on_c, 1, 72, 0
3, 439872, Note_on_c, 1, 77, 107
3, 439872, Note_on_c, 1, 72, 107
3, 439872, Note_on_c, 1, 65, 107
3, 439960, Note_on_c, 1, 65, 0
3, 439960, Note_on_c, 1, 72, 0
3, 439960, Note_on_c, 1, 77, 0
3, 440064, Note_on_c, 1, 73, 107
3, 440064, Note_on_c, 1, 70, 107
3, 440064, Note_on_c, 1, 65, 107
3, 440152, Note_on_c, 1, 65, 0
3, 440152, Note_on_c, 1, 70, 0
3, 440152, Note_on_c, 1, 73, 0
3, 440448, Note_on_c, 1, 82, 107
3, 440448, Note_on_c, 1, 77, 107
3, 440448, Note_on_c, 1, 73, 107
3, 440536, Note_on_c, 1, 73, 0
3, 440536, Note_on_c, 1, 77, 0
3, 440536, Note_on_c, 1, 82, 0
3, 440832, Note_on_c, 1, 81, 107
3, 440832, Note_on_c, 1, 77, 107
3, 440832, Note_on_c, 1, 72, 107
3, 441016, Note_on_c, 1, 72, 0
3, 441016, Note_on_c, 1, 77, 0
3, 441016, Note_on_c, 1, 81, 0
3, 441408, Note_on_c, 1, 77, 107
3, 441408, Note_on_c, 1, 72, 107
3, 441408, Note_on_c, 1, 65, 107
3, 441496, Note_on_c, 1, 65, 0
3, 441496, Note_on_c, 1, 72, 0
3, 441496, Note_on_c, 1, 77, 0
3, 441600, Note_on_c, 1, 73, 107
3, 441600, Note_on_c, 1, 65, 107
3, 441600, Note_on_c, 1, 70, 107
3, 441688, Note_on_c, 1, 70, 0
3, 441688, Note_on_c, 1, 65, 0
3, 441688, Note_on_c, 1, 73, 0
3, 441984, Note_on_c, 1, 82, 107
3, 441984, Note_on_c, 1, 77, 107
3, 441984, Note_on_c, 1, 73, 107
3, 442072, Note_on_c, 1, 73, 0
3, 442072, Note_on_c, 1, 77, 0
3, 442072, Note_on_c, 1, 82, 0
3, 442368, Note_on_c, 1, 81, 107
3, 442368, Note_on_c, 1, 77, 107
3, 442368, Note_on_c, 1, 72, 107
3, 442744, Note_on_c, 1, 72, 0
3, 442744, Note_on_c, 1, 77, 0
3, 442744, Note_on_c, 1, 81, 0
3, 443904, Note_on_c, 1, 69, 80
3, 443904, Note_on_c, 1, 65, 80
3, 444664, Note_on_c, 1, 65, 0
3, 444664, Note_on_c, 1, 69, 0
3, 444672, Note_on_c, 1, 67, 80
3, 444672, Note_on_c, 1, 63, 80
3, 445432, Note_on_c, 1, 63, 0
3, 445432, Note_on_c, 1, 67, 0
3, 445440, Note_on_c, 1, 65, 80
3, 445440, Note_on_c, 1, 62, 80
3, 446200, Note_on_c, 1, 62, 0
3, 446200, Note_on_c, 1, 65, 0
3, 446208, Note_on_c, 1, 63, 80
3, 446584, Note_on_c, 1, 63, 0
3, 446592, Note_on_c, 1, 69, 80
3, 446968, Note_on_c, 1, 69, 0
3, 446976, Note_on_c, 1, 70, 80
3, 446976, Note_on_c, 1, 65, 80
3, 447352, Note_on_c, 1, 65, 0
3, 447352, Note_on_c, 1, 70, 0
3, 447744, Note_on_c, 1, 63, 80
3, 447744, Note_on_c, 1, 60, 80
3, 448120, Note_on_c, 1, 60, 0
3, 448120, Note_on_c, 1, 63, 0
3, 448512, Note_on_c, 1, 62, 80
3, 448696, Note_on_c, 1, 62, 0
3, 448704, Note_on_c, 1, 65, 80
3, 448704, Note_on_c, 1, 62, 80
3, 448888, Note_on_c, 1, 62, 0
3, 448888, Note_on_c, 1, 65, 0
3, 448896, Note_on_c, 1, 65, 80
3, 448896, Note_on_c, 1, 62, 80
3, 449080, Note_on_c, 1, 62, 0
3, 449080, Note_on_c, 1, 65, 0
3, 449088, Note_on_c, 1, 65, 80
3, 449088, Note_on_c, 1, 62, 80
3, 449272, Note_on_c, 1, 62, 0
3, 449272, Note_on_c, 1, 65, 0
3, 449472, Note_on_c, 1, 65, 80
3, 449472, Note_on_c, 1, 62, 80
3, 449656, Note_on_c, 1, 62, 0
3, 449656, Note_on_c, 1, 65, 0
3, 449664, Note_on_c, 1, 65, 80
3, 449664, Note_on_c, 1, 62, 80
3, 449848, Note_on_c, 1, 62, 0
3, 449848, Note_on_c, 1, 65, 0
3, 449856, Note_on_c, 1, 65, 80
3, 449856, Note_on_c, 1, 62, 80
3, 450040, Note_on_c, 1, 62, 0
3, 450040, Note_on_c, 1, 65, 0
3, 450048, Note_on_c, 1, 65, 80
3, 450048, Note_on_c, 1, 63, 80
3, 450424, Note_on_c, 1, 63, 0
3, 450424, Note_on_c, 1, 65, 0
3, 451008, Note_on_c, 1, 63, 80
3, 451008, Note_on_c, 1, 60, 80
3, 451192, Note_on_c, 1, 60, 0
3, 451192, Note_on_c, 1, 63, 0
3, 451200, Note_on_c, 1, 62, 80
3, 451200, Note_on_c, 1, 58, 80
3, 451384, Note_on_c, 1, 58, 0
3, 451384, Note_on_c, 1, 62, 0
3, 451392, Note_on_c, 1, 60, 80
3, 451392, Note_on_c, 1, 57, 80
3, 451576, Note_on_c, 1, 57, 0
3, 451576, Note_on_c, 1, 60, 0
3, 451584, Note_on_c, 1, 62, 80
3, 451768, Note_on_c, 1, 62, 0
3, 451776, Note_on_c, 1, 77, 80
3, 451776, Note_on_c, 1, 74, 80
3, 451960, Note_on_c, 1, 74, 0
3, 451960, Note_on_c, 1, 77, 0
3, 451968, Note_on_c, 1, 77, 80
3, 451968, Note_on_c, 1, 74, 80
3, 452152, Note_on_c, 1, 74, 0
3, 452152, Note_on_c, 1, 77, 0
3, 452160, Note_on_c, 1, 77, 80
3, 452160, Note_on_c, 1, 74, 80
3, 452344, Note_on_c, 1, 74, 0
3, 452344, Note_on_c, 1, 77, 0
3, 452352, Note_on_c, 1, 70, 80
3, 452544, Note_on_c, 1, 77, 80
3, 452544, Note_on_c, 1, 74, 80
3, 452728, Note_on_c, 1, 74, 0
3, 452728, Note_on_c, 1, 77, 0
3, 452728, Note_on_c, 1, 70, 0
3, 452736, Note_on_c, 1, 77, 80
3, 452736, Note_on_c, 1, 74, 80
3, 452920, Note_on_c, 1, 74, 0
3, 452920, Note_on_c, 1, 77, 0
3, 452928, Note_on_c, 1, 77, 80
3, 452928, Note_on_c, 1, 74, 80
3, 453112, Note_on_c, 1, 74, 0
3, 453112, Note_on_c, 1, 77, 0
3, 453120, Note_on_c, 1, 72, 80
3, 453120, Note_on_c, 1, 79, 80
3, 453120, Note_on_c, 1, 77, 80
3, 453496, Note_on_c, 1, 77, 0
3, 453496, Note_on_c, 1, 79, 0
3, 453496, Note_on_c, 1, 72, 0
3, 454080, Note_on_c, 1, 63, 80
3, 454080, Note_on_c, 1, 60, 80
3, 454264, Note_on_c, 1, 60, 0
3, 454264, Note_on_c, 1, 63, 0
3, 454272, Note_on_c, 1, 62, 80
3, 454272, Note_on_c, 1, 58, 80
3, 454456, Note_on_c, 1, 58, 0
3, 454456, Note_on_c, 1, 62, 0
3, 454464, Note_on_c, 1, 60, 80
3, 454464, Note_on_c, 1, 57, 80
3, 454648, Note_on_c, 1, 57, 0
3, 454648, Note_on_c, 1, 60, 0
3, 454656, Note_on_c, 1, 62, 80
3, 455032, Note_on_c, 1, 62, 0
3, 455232, Note_on_c, 1, 65, 80
3, 455232, Note_on_c, 1, 58, 80
3, 455416, Note_on_c, 1, 58, 0
3, 455416, Note_on_c, 1, 65, 0
3, 455424, Note_on_c, 1, 67, 80
3, 455424, Note_on_c, 1, 58, 80
3, 455800, Note_on_c, 1, 58, 0
3, 455800, Note_on_c, 1, 67, 0
3, 456000, Note_on_c, 1, 66, 80
3, 456000, Note_on_c, 1, 58, 80
3, 456184, Note_on_c, 1, 58, 0
3, 456184, Note_on_c, 1, 66, 0
3, 456192, Note_on_c, 1, 67, 80
3, 456192, Note_on_c, 1, 58, 80
3, 456568, Note_on_c, 1, 58, 0
3, 456568, Note_on_c, 1, 67, 0
3, 456768, Note_on_c, 1, 62, 80
3, 456856, Note_on_c, 1, 62, 0
3, 456960, Note_on_c, 1, 63, 80
3, 456960, Note_on_c, 1, 60, 80
3, 457336, Note_on_c, 1, 60, 0
3, 457336, Note_on_c, 1, 63, 0
3, 457536, Note_on_c, 1, 62, 80
3, 457720, Note_on_c, 1, 62, 0
3, 457728, Note_on_c, 1, 63, 80
3, 457728, Note_on_c, 1, 60, 80
3, 458104, Note_on_c, 1, 60, 0
3, 458104, Note_on_c, 1, 63, 0
3, 458304, Note_on_c, 1, 71, 80
3, 458488, Note_on_c, 1, 71, 0
3, 458496, Note_on_c, 1, 72, 80
3, 458872, Note_on_c, 1, 72, 0
3, 459072, Note_on_c, 1, 67, 80
3, 459256, Note_on_c, 1, 67, 0
3, 459264, Note_on_c, 1, 65, 80
3, 459640, Note_on_c, 1, 65, 0
3, 460032, Note_on_c, 1, 69, 80
3, 460792, Note_on_c, 1, 69, 0
3, 460800, Note_on_c, 1, 70, 80
3, 461176, Note_on_c, 1, 70, 0
3, 461952, Note_on_c, 1, 65, 80
3, 461952, Note_on_c, 1, 58, 80
3, 462328, Note_on_c, 1, 58, 0
3, 462328, Note_on_c, 1, 65, 0
3, 462336, Note_on_c, 1, 67, 80
3, 462336, Note_on_c, 1, 58, 80
3, 462712, Note_on_c, 1, 58, 0
3, 462712, Note_on_c, 1, 67, 0
3, 464256, Note_on_c, 1, 67, 80
3, 464256, Note_on_c, 1, 61, 80
3, 464632, Note_on_c, 1, 61, 0
3, 464632, Note_on_c, 1, 67, 0
3, 464640, Note_on_c, 1, 65, 80
3, 464640, Note_on_c, 1, 62, 80
3, 465016, Note_on_c, 1, 62, 0
3, 465016, Note_on_c, 1, 65, 0
3, 465024, Note_on_c, 1, 69, 80
3, 465024, Note_on_c, 1, 63, 80
3, 465400, Note_on_c, 1, 63, 0
3, 465400, Note_on_c, 1, 69, 0
3, 465408, Note_on_c, 1, 70, 80
3, 465784, Note_on_c, 1, 70, 0
3, 466368, Note_on_c, 1, 70, 80
3, 466552, Note_on_c, 1, 70, 0
3, 466560, Note_on_c, 1, 69, 80
3, 466744, Note_on_c, 1, 69, 0
3, 466752, Note_on_c, 1, 67, 80
3, 466936, Note_on_c, 1, 67, 0
3, 466944, Note_on_c, 1, 66, 80
3, 467128, Note_on_c, 1, 66, 0
3, 467136, Note_on_c, 1, 69, 80
3, 467320, Note_on_c, 1, 69, 0
3, 467328, Note_on_c, 1, 72, 80
3, 467704, Note_on_c, 1, 72, 0
3, 467712, Note_on_c, 1, 72, 80
3, 467896, Note_on_c, 1, 72, 0
3, 467904, Note_on_c, 1, 72, 80
3, 468088, Note_on_c, 1, 72, 0
3, 468096, Note_on_c, 1, 70, 80
3, 468280, Note_on_c, 1, 70, 0
3, 468288, Note_on_c, 1, 69, 80
3, 468472, Note_on_c, 1, 69, 0
3, 468480, Note_on_c, 1, 74, 80
3, 468664, Note_on_c, 1, 74, 0
3, 468672, Note_on_c, 1, 70, 80
3, 468856, Note_on_c, 1, 70, 0
3, 469440, Note_on_c, 1, 63, 80
3, 469440, Note_on_c, 1, 58, 80
3, 469624, Note_on_c, 1, 58, 0
3, 469624, Note_on_c, 1, 63, 0
3, 469632, Note_on_c, 1, 63, 80
3, 469632, Note_on_c, 1, 58, 80
3, 469816, Note_on_c, 1, 58, 0
3, 469816, Note_on_c, 1, 63, 0
3, 469824, Note_on_c, 1, 63, 80
3, 469824, Note_on_c, 1, 58, 80
3, 470008, Note_on_c, 1, 58, 0
3, 470008, Note_on_c, 1, 63, 0
3, 470208, Note_on_c, 1, 62, 80
3, 470208, Note_on_c, 1, 57, 80
3, 470392, Note_on_c, 1, 57, 0
3, 470392, Note_on_c, 1, 62, 0
3, 470400, Note_on_c, 1, 62, 80
3, 470400, Note_on_c, 1, 57, 80
3, 470584, Note_on_c, 1, 57, 0
3, 470584, Note_on_c, 1, 62, 0
3, 470592, Note_on_c, 1, 62, 80
3, 470592, Note_on_c, 1, 57, 80
3, 470776, Note_on_c, 1, 57, 0
3, 470776, Note_on_c, 1, 62, 0
3, 470976, Note_on_c, 1, 69, 80
3, 470976, Note_on_c, 1, 66, 80
3, 471160, Note_on_c, 1, 66, 0
3, 471160, Note_on_c, 1, 69, 0
3, 471168, Note_on_c, 1, 69, 80
3, 471168, Note_on_c, 1, 66, 80
3, 471352, Note_on_c, 1, 66, 0
3, 471352, Note_on_c, 1, 69, 0
3, 471360, Note_on_c, 1, 69, 80
3, 471360, Note_on_c, 1, 66, 80
3, 471544, Note_on_c, 1, 66, 0
3, 471544, Note_on_c, 1, 69, 0
3, 471552, Note_on_c, 1, 70, 80
3, 471552, Note_on_c, 1, 67, 80
3, 471928, Note_on_c, 1, 67, 0
3, 471928, Note_on_c, 1, 70, 0
3, 472512, Note_on_c, 1, 74, 80
3, 472600, Note_on_c, 1, 74, 0
3, 472704, Note_on_c, 1, 74, 80
3, 472792, Note_on_c, 1, 74, 0
3, 472896, Note_on_c, 1, 74, 80
3, 472984, Note_on_c, 1, 74, 0
3, 473088, Note_on_c, 1, 74, 80
3, 473656, Note_on_c, 1, 74, 0
3, 473664, Note_on_c, 1, 74, 80
3, 473848, Note_on_c, 1, 74, 0
3, 473856, Note_on_c, 1, 75, 80
3, 474040, Note_on_c, 1, 75, 0
3, 474048, Note_on_c, 1, 76, 80
3, 474232, Note_on_c, 1, 76, 0
3, 474240, Note_on_c, 1, 77, 80
3, 474424, Note_on_c, 1, 77, 0
3, 474432, Note_on_c, 1, 78, 80
3, 474616, Note_on_c, 1, 78, 0
3, 474624, Note_on_c, 1, 78, 80
3, 474808, Note_on_c, 1, 78, 0
3, 474816, Note_on_c, 1, 79, 80
3, 475000, Note_on_c, 1, 79, 0
3, 475584, Note_on_c, 1, 67, 80
3, 475768, Note_on_c, 1, 67, 0
3, 475776, Note_on_c, 1, 69, 80
3, 475960, Note_on_c, 1, 69, 0
3, 475968, Note_on_c, 1, 70, 80
3, 476152, Note_on_c, 1, 70, 0
3, 476160, Note_on_c, 1, 70, 80
3, 476344, Note_on_c, 1, 70, 0
3, 476352, Note_on_c, 1, 69, 80
3, 476536, Note_on_c, 1, 69, 0
3, 476544, Note_on_c, 1, 69, 80
3, 476928, Note_on_c, 1, 69, 80
3, 477112, Note_on_c, 1, 69, 0
3, 477112, Note_on_c, 1, 69, 0
3, 477120, Note_on_c, 1, 75, 80
3, 477304, Note_on_c, 1, 75, 0
3, 477312, Note_on_c, 1, 74, 80
3, 477496, Note_on_c, 1, 74, 0
3, 477504, Note_on_c, 1, 72, 80
3, 477688, Note_on_c, 1, 72, 0
3, 477696, Note_on_c, 1, 72, 80
3, 477784, Note_on_c, 1, 72, 0
3, 477792, Note_on_c, 1, 70, 80
3, 477880, Note_on_c, 1, 70, 0
3, 477888, Note_on_c, 1, 69, 80
3, 477976, Note_on_c, 1, 69, 0
3, 477984, Note_on_c, 1, 67, 80
3, 478072, Note_on_c, 1, 67, 0
3, 478080, Note_on_c, 1, 67, 80
3, 478456, Note_on_c, 1, 67, 0
3, 479232, Note_on_c, 1, 70, 80
3, 479232, Note_on_c, 1, 63, 80
3, 479232, Note_on_c, 1, 60, 80
3, 479992, Note_on_c, 1, 60, 0
3, 479992, Note_on_c, 1, 63, 0
3, 479992, Note_on_c, 1, 70, 0
3, 480000, Note_on_c, 1, 69, 80
3, 480000, Note_on_c, 1, 63, 80
3, 480000, Note_on_c, 1, 60, 80
3, 480376, Note_on_c, 1, 60, 0
3, 480376, Note_on_c, 1, 63, 0
3, 480376, Note_on_c, 1, 69, 0
3, 480768, Note_on_c, 1, 70, 80
3, 480768, Note_on_c, 1, 63, 80
3, 480768, Note_on_c, 1, 60, 80
3, 481528, Note_on_c, 1, 60, 0
3, 481528, Note_on_c, 1, 63, 0
3, 481528, Note_on_c, 1, 70, 0
3, 481536, Note_on_c, 1, 69, 80
3, 481536, Note_on_c, 1, 63, 80
3, 481536, Note_on_c, 1, 60, 80
3, 481912, Note_on_c, 1, 60, 0
3, 481912, Note_on_c, 1, 63, 0
3, 481912, Note_on_c, 1, 69, 0
3, 482304, Note_on_c, 1, 69, 80
3, 482304, Note_on_c, 1, 65, 80
3, 482304, Note_on_c, 1, 63, 80
3, 482304, Note_on_c, 1, 60, 80
3, 482488, Note_on_c, 1, 60, 0
3, 482488, Note_on_c, 1, 69, 0
3, 482488, Note_on_c, 1, 65, 0
3, 482488, Note_on_c, 1, 63, 0
3, 482496, Note_on_c, 1, 69, 80
3, 482496, Note_on_c, 1, 65, 80
3, 482496, Note_on_c, 1, 63, 80
3, 482496, Note_on_c, 1, 60, 80
3, 482872, Note_on_c, 1, 60, 0
3, 482872, Note_on_c, 1, 69, 0
3, 482872, Note_on_c, 1, 65, 0
3, 482872, Note_on_c, 1, 63, 0
3, 482880, Note_on_c, 1, 69, 80
3, 482880, Note_on_c, 1, 65, 80
3, 482880, Note_on_c, 1, 63, 80
3, 482880, Note_on_c, 1, 60, 80
3, 483256, Note_on_c, 1, 60, 0
3, 483256, Note_on_c, 1, 69, 0
3, 483256, Note_on_c, 1, 65, 0
3, 483256, Note_on_c, 1, 63, 0
3, 483264, Note_on_c, 1, 69, 80
3, 483264, Note_on_c, 1, 65, 80
3, 483264, Note_on_c, 1, 63, 80
3, 483264, Note_on_c, 1, 60, 80
3, 483640, Note_on_c, 1, 60, 0
3, 483640, Note_on_c, 1, 69, 0
3, 483640, Note_on_c, 1, 65, 0
3, 483640, Note_on_c, 1, 63, 0
3, 483648, Note_on_c, 1, 69, 80
3, 483648, Note_on_c, 1, 65, 80
3, 483648, Note_on_c, 1, 63, 80
3, 483648, Note_on_c, 1, 60, 80
3, 483832, Note_on_c, 1, 60, 0
3, 483832, Note_on_c, 1, 69, 0
3, 483832, Note_on_c, 1, 65, 0
3, 483832, Note_on_c, 1, 63, 0
3, 483840, Note_on_c, 1, 69, 80
3, 483840, Note_on_c, 1, 65, 80
3, 483840, Note_on_c, 1, 63, 80
3, 483840, Note_on_c, 1, 60, 80
3, 484216, Note_on_c, 1, 60, 0
3, 484216, Note_on_c, 1, 69, 0
3, 484216, Note_on_c, 1, 65, 0
3, 484216, Note_on_c, 1, 63, 0
3, 486912, Note_on_c, 1, 81, 80
3, 487680, Note_on_c, 1, 81, 80
3, 488056, Note_on_c, 1, 81, 0
3, 488248, Note_on_c, 1, 81, 0
3, 488256, Note_on_c, 1, 82, 80
3, 488440, Note_on_c, 1, 82, 0
3, 488448, Note_on_c, 1, 86, 80
3, 488632, Note_on_c, 1, 86, 0
3, 488640, Note_on_c, 1, 84, 80
3, 488824, Note_on_c, 1, 84, 0
3, 488832, Note_on_c, 1, 82, 80
3, 488920, Note_on_c, 1, 82, 0
3, 489024, Note_on_c, 1, 81, 80
3, 489112, Note_on_c, 1, 81, 0
3, 489216, Note_on_c, 1, 79, 80
3, 489784, Note_on_c, 1, 79, 0
3, 489792, Note_on_c, 1, 81, 80
3, 489976, Note_on_c, 1, 81, 0
3, 489984, Note_on_c, 1, 82, 80
3, 490168, Note_on_c, 1, 82, 0
3, 490176, Note_on_c, 1, 84, 80
3, 490264, Note_on_c, 1, 84, 0
3, 490272, Note_on_c, 1, 86, 80
3, 490360, Note_on_c, 1, 86, 0
3, 490368, Note_on_c, 1, 84, 80
3, 490456, Note_on_c, 1, 84, 0
3, 490464, Note_on_c, 1, 82, 80
3, 490552, Note_on_c, 1, 82, 0
3, 490560, Note_on_c, 1, 81, 80
3, 490648, Note_on_c, 1, 81, 0
3, 490656, Note_on_c, 1, 79, 80
3, 490744, Note_on_c, 1, 79, 0
3, 490752, Note_on_c, 1, 79, 80
3, 490936, Note_on_c, 1, 79, 0
3, 490944, Note_on_c, 1, 77, 80
3, 491128, Note_on_c, 1, 77, 0
3, 491136, Note_on_c, 1, 77, 80
3, 491320, Note_on_c, 1, 77, 0
3, 491328, Note_on_c, 1, 76, 80
3, 491512, Note_on_c, 1, 76, 0
3, 491520, Note_on_c, 1, 77, 80
3, 491704, Note_on_c, 1, 77, 0
3, 491712, Note_on_c, 1, 79, 80
3, 491896, Note_on_c, 1, 79, 0
3, 491904, Note_on_c, 1, 75, 80
3, 492088, Note_on_c, 1, 75, 0
3, 492480, Note_on_c, 1, 69, 80
3, 492664, Note_on_c, 1, 69, 0
3, 492672, Note_on_c, 1, 70, 80
3, 492856, Note_on_c, 1, 70, 0
3, 492864, Note_on_c, 1, 72, 80
3, 493048, Note_on_c, 1, 72, 0
3, 493056, Note_on_c, 1, 70, 80
3, 493432, Note_on_c, 1, 70, 0
3, 493440, Note_on_c, 1, 69, 80
3, 493528, Note_on_c, 1, 69, 0
3, 493536, Note_on_c, 1, 67, 80
3, 493624, Note_on_c, 1, 67, 0
3, 493632, Note_on_c, 1, 65, 80
3, 493720, Note_on_c, 1, 65, 0
3, 493728, Note_on_c, 1, 63, 80
3, 493816, Note_on_c, 1, 63, 0
3, 493824, Note_on_c, 1, 63, 80
3, 493824, Note_on_c, 1, 63, 80
3, 494008, Note_on_c, 1, 63, 0
3, 494016, Note_on_c, 1, 62, 80
3, 494200, Note_on_c, 1, 62, 0
3, 494200, Note_on_c, 1, 63, 0
3, 494208, Note_on_c, 1, 62, 80
3, 494208, Note_on_c, 1, 63, 80
3, 494392, Note_on_c, 1, 62, 0
3, 494400, Note_on_c, 1, 60, 80
3, 494584, Note_on_c, 1, 60, 0
3, 494584, Note_on_c, 1, 63, 0
3, 494592, Note_on_c, 1, 62, 80
3, 494776, Note_on_c, 1, 62, 0
3, 494784, Note_on_c, 1, 82, 80
3, 494968, Note_on_c, 1, 82, 0
3, 494976, Note_on_c, 1, 81, 80
3, 495160, Note_on_c, 1, 81, 0
3, 495168, Note_on_c, 1, 75, 80
3, 495352, Note_on_c, 1, 75, 0
3, 495360, Note_on_c, 1, 74, 80
3, 495544, Note_on_c, 1, 74, 0
3, 495552, Note_on_c, 1, 86, 80
3, 495584, Note_on_c, 1, 86, 0
3, 495588, Note_on_c, 1, 87, 80
3, 495620, Note_on_c, 1, 87, 0
3, 495624, Note_on_c, 1, 86, 80
3, 495656, Note_on_c, 1, 86, 0
3, 495660, Note_on_c, 1, 87, 80
3, 495692, Note_on_c, 1, 87, 0
3, 495696, Note_on_c, 1, 86, 80
3, 495728, Note_on_c, 1, 86, 0
3, 495744, Note_on_c, 1, 87, 80
3, 495928, Note_on_c, 1, 87, 0
3, 495936, Note_on_c, 1, 75, 80
3, 496120, Note_on_c, 1, 75, 0
3, 496128, Note_on_c, 1, 74, 80
3, 496312, Note_on_c, 1, 74, 0
3, 496320, Note_on_c, 1, 82, 80
3, 496504, Note_on_c, 1, 82, 0
3, 496512, Note_on_c, 1, 81, 80
3, 496696, Note_on_c, 1, 81, 0
3, 496704, Note_on_c, 1, 75, 80
3, 496888, Note_on_c, 1, 75, 0
3, 496896, Note_on_c, 1, 74, 80
3, 497080, Note_on_c, 1, 74, 0
3, 497088, Note_on_c, 1, 86, 80
3, 497120, Note_on_c, 1, 86, 0
3, 497124, Note_on_c, 1, 87, 80
3, 497156, Note_on_c, 1, 87, 0
3, 497160, Note_on_c, 1, 86, 80
3, 497192, Note_on_c, 1, 86, 0
3, 497196, Note_on_c, 1, 87, 80
3, 497228, Note_on_c, 1, 87, 0
3, 497232, Note_on_c, 1, 86, 80
3, 497264, Note_on_c, 1, 86, 0
3, 497280, Note_on_c, 1, 87, 80
3, 497464, Note_on_c, 1, 87, 0
3, 497472, Note_on_c, 1, 75, 80
3, 497656, Note_on_c, 1, 75, 0
3, 497664, Note_on_c, 1, 74, 80
3, 497848, Note_on_c, 1, 74, 0
3, 497856, Note_on_c, 1, 82, 80
3, 498040, Note_on_c, 1, 82, 0
3, 498048, Note_on_c, 1, 81, 80
3, 498232, Note_on_c, 1, 81, 0
3, 498240, Note_on_c, 1, 75, 80
3, 498424, Note_on_c, 1, 75, 0
3, 498432, Note_on_c, 1, 74, 80
3, 498616, Note_on_c, 1, 74, 0
3, 498624, Note_on_c, 1, 86, 80
3, 498656, Note_on_c, 1, 86, 0
3, 498660, Note_on_c, 1, 87, 80
3, 498692, Note_on_c, 1, 87, 0
3, 498696, Note_on_c, 1, 86, 80
3, 498728, Note_on_c, 1, 86, 0
3, 498732, Note_on_c, 1, 87, 80
3, 498764, Note_on_c, 1, 87, 0
3, 498768, Note_on_c, 1, 86, 80
3, 498800, Note_on_c, 1, 86, 0
3, 498816, Note_on_c, 1, 87, 85
3, 499000, Note_on_c, 1, 87, 0
3, 499008, Note_on_c, 1, 81, 80
3, 499040, Note_on_c, 1, 81, 0
3, 499044, Note_on_c, 1, 82, 80
3, 499076, Note_on_c, 1, 82, 0
3, 499080, Note_on_c, 1, 81, 80
3, 499112, Note_on_c, 1, 81, 0
3, 499116, Note_on_c, 1, 82, 80
3, 499148, Note_on_c, 1, 82, 0
3, 499152, Note_on_c, 1, 81, 80
3, 499184, Note_on_c, 1, 81, 0
3, 499200, Note_on_c, 1, 82, 78
3, 499384, Note_on_c, 1, 82, 0
3, 499392, Note_on_c, 1, 86, 80
3, 499424, Note_on_c, 1, 86, 0
3, 499428, Note_on_c, 1, 87, 80
3, 499460, Note_on_c, 1, 87, 0
3, 499464, Note_on_c, 1, 86, 80
3, 499496, Note_on_c, 1, 86, 0
3, 499500, Note_on_c, 1, 87, 80
3, 499532, Note_on_c, 1, 87, 0
3, 499536, Note_on_c, 1, 86, 80
3, 499568, Note_on_c, 1, 86, 0
3, 499584, Note_on_c, 1, 87, 80
3, 499768, Note_on_c, 1, 87, 0
3, 499776, Note_on_c, 1, 81, 80
3, 499808, Note_on_c, 1, 81, 0
3, 499812, Note_on_c, 1, 82, 80
3, 499844, Note_on_c, 1, 82, 0
3, 499848, Note_on_c, 1, 81, 80
3, 499880, Note_on_c, 1, 81, 0
3, 499884, Note_on_c, 1, 82, 80
3, 499916, Note_on_c, 1, 82, 0
3, 499920, Note_on_c, 1, 81, 80
3, 499952, Note_on_c, 1, 81, 0
3, 499968, Note_on_c, 1, 82, 80
3, 500152, Note_on_c, 1, 82, 0
3, 500160, Note_on_c, 1, 86, 80
3, 500192, Note_on_c, 1, 86, 0
3, 500196, Note_on_c, 1, 87, 80
3, 500228, Note_on_c, 1, 87, 0
3, 500232, Note_on_c, 1, 86, 80
3, 500264, Note_on_c, 1, 86, 0
3, 500268, Note_on_c, 1, 84, 80
3, 500300, Note_on_c, 1, 84, 0
3, 500304, Note_on_c, 1, 86, 80
3, 500336, Note_on_c, 1, 86, 0
3, 500352, Note_on_c, 1, 87, 80
3, 500536, Note_on_c, 1, 87, 0
3, 500544, Note_on_c, 1, 81, 80
3, 500576, Note_on_c, 1, 81, 0
3, 500580, Note_on_c, 1, 82, 80
3, 500612, Note_on_c, 1, 82, 0
3, 500616, Note_on_c, 1, 81, 80
3, 500648, Note_on_c, 1, 81, 0
3, 500652, Note_on_c, 1, 82, 80
3, 500684, Note_on_c, 1, 82, 0
3, 500688, Note_on_c, 1, 81, 80
3, 500720, Note_on_c, 1, 81, 0
3, 500736, Note_on_c, 1, 82, 80
3, 500736, Note_on_c, 1, 74, 80
3, 500920, Note_on_c, 1, 74, 0
3, 500920, Note_on_c, 1, 82, 0
3, 500928, Note_on_c, 1, 77, 80
3, 501112, Note_on_c, 1, 77, 0
3, 501120, Note_on_c, 1, 77, 80
3, 501120, Note_on_c, 1, 74, 80
3, 501208, Note_on_c, 1, 74, 0
3, 501208, Note_on_c, 1, 77, 0
3, 501312, Note_on_c, 1, 77, 80
3, 501312, Note_on_c, 1, 74, 80
3, 501400, Note_on_c, 1, 74, 0
3, 501400, Note_on_c, 1, 77, 0
3, 501504, Note_on_c, 1, 77, 80
3, 501504, Note_on_c, 1, 74, 80
3, 502072, Note_on_c, 1, 74, 0
3, 502072, Note_on_c, 1, 77, 0
3, 502080, Note_on_c, 1, 82, 80
3, 502264, Note_on_c, 1, 82, 0
3, 502272, Note_on_c, 1, 82, 80
3, 502272, Note_on_c, 1, 79, 80
3, 502456, Note_on_c, 1, 79, 0
3, 502456, Note_on_c, 1, 82, 0
3, 502464, Note_on_c, 1, 79, 80
3, 502464, Note_on_c, 1, 75, 80
3, 502648, Note_on_c, 1, 75, 0
3, 502648, Note_on_c, 1, 79, 0
3, 502656, Note_on_c, 1, 79, 80
3, 502656, Note_on_c, 1, 75, 80
3, 502744, Note_on_c, 1, 75, 0
3, 502744, Note_on_c, 1, 79, 0
3, 502848, Note_on_c, 1, 79, 80
3, 502848, Note_on_c, 1, 75, 80
3, 502936, Note_on_c, 1, 75, 0
3, 502936, Note_on_c, 1, 79, 0
3, 503040, Note_on_c, 1, 79, 80
3, 503040, Note_on_c, 1, 75, 80
3, 503608, Note_on_c, 1, 75, 0
3, 503608, Note_on_c, 1, 79, 0
3, 503616, Note_on_c, 1, 82, 80
3, 503800, Note_on_c, 1, 82, 0
3, 503808, Note_on_c, 1, 82, 80
3, 503808, Note_on_c, 1, 74, 80
3, 503992, Note_on_c, 1, 74, 0
3, 503992, Note_on_c, 1, 82, 0
3, 504000, Note_on_c, 1, 77, 80
3, 504184, Note_on_c, 1, 77, 0
3, 504192, Note_on_c, 1, 74, 80
3, 504192, Note_on_c, 1, 70, 80
3, 504376, Note_on_c, 1, 70, 0
3, 504376, Note_on_c, 1, 74, 0
3, 504384, Note_on_c, 1, 77, 80
3, 504384, Note_on_c, 1, 74, 80
3, 504568, Note_on_c, 1, 74, 0
3, 504568, Note_on_c, 1, 77, 0
3, 504576, Note_on_c, 1, 77, 80
3, 504576, Note_on_c, 1, 74, 80
3, 504760, Note_on_c, 1, 74, 0
3, 504760, Note_on_c, 1, 77, 0
3, 504768, Note_on_c, 1, 75, 80
3, 504768, Note_on_c, 1, 72, 80
3, 504952, Note_on_c, 1, 72, 0
3, 504952, Note_on_c, 1, 75, 0
3, 504960, Note_on_c, 1, 74, 80
3, 504960, Note_on_c, 1, 70, 80
3, 505144, Note_on_c, 1, 70, 0
3, 505144, Note_on_c, 1, 74, 0
3, 505152, Note_on_c, 1, 72, 80
3, 505152, Note_on_c, 1, 69, 80
3, 505336, Note_on_c, 1, 69, 0
3, 505336, Note_on_c, 1, 72, 0
3, 505344, Note_on_c, 1, 70, 80
3, 505720, Note_on_c, 1, 70, 0
3, 506880, Note_on_c, 1, 68, 80
3, 506880, Note_on_c, 1, 65, 80
3, 506880, Note_on_c, 1, 58, 80
3, 508408, Note_on_c, 1, 58, 0
3, 508408, Note_on_c, 1, 65, 0
3, 508408, Note_on_c, 1, 68, 0
3, 508416, Note_on_c, 1, 67, 80
3, 508416, Note_on_c, 1, 63, 80
3, 508416, Note_on_c, 1, 58, 80
3, 508600, Note_on_c, 1, 58, 0
3, 508600, Note_on_c, 1, 63, 0
3, 508600, Note_on_c, 1, 67, 0
3, 508608, Note_on_c, 1, 70, 80
3, 508792, Note_on_c, 1, 70, 0
3, 508800, Note_on_c, 1, 70, 80
3, 508984, Note_on_c, 1, 70, 0
3, 508992, Note_on_c, 1, 77, 80
3, 508992, Note_on_c, 1, 80, 80
3, 509024, Note_on_c, 1, 80, 0
3, 509028, Note_on_c, 1, 82, 80
3, 509060, Note_on_c, 1, 82, 0
3, 509064, Note_on_c, 1, 80, 80
3, 509096, Note_on_c, 1, 80, 0
3, 509100, Note_on_c, 1, 79, 80
3, 509132, Note_on_c, 1, 79, 0
3, 509136, Note_on_c, 1, 80, 80
3, 509168, Note_on_c, 1, 80, 0
3, 509176, Note_on_c, 1, 77, 0
3, 509184, Note_on_c, 1, 79, 80
3, 509184, Note_on_c, 1, 75, 80
3, 509272, Note_on_c, 1, 75, 0
3, 509272, Note_on_c, 1, 79, 0
3, 509376, Note_on_c, 1, 79, 80
3, 509376, Note_on_c, 1, 75, 80
3, 509464, Note_on_c, 1, 75, 0
3, 509464, Note_on_c, 1, 79, 0
3, 509568, Note_on_c, 1, 80, 80
3, 509568, Note_on_c, 1, 77, 80
3, 509656, Note_on_c, 1, 77, 0
3, 509656, Note_on_c, 1, 80, 0
3, 509760, Note_on_c, 1, 80, 80
3, 509760, Note_on_c, 1, 77, 80
3, 509848, Note_on_c, 1, 77, 0
3, 509848, Note_on_c, 1, 80, 0
3, 509952, Note_on_c, 1, 79, 80
3, 509952, Note_on_c, 1, 75, 80
3, 510136, Note_on_c, 1, 75, 0
3, 510136, Note_on_c, 1, 79, 0
3, 510144, Note_on_c, 1, 58, 80
3, 510328, Note_on_c, 1, 58, 0
3, 510336, Note_on_c, 1, 58, 80
3, 510520, Note_on_c, 1, 58, 0
3, 510528, Note_on_c, 1, 65, 80
3, 510528, Note_on_c, 1, 68, 80
3, 510560, Note_on_c, 1, 68, 0
3, 510564, Note_on_c, 1, 70, 80
3, 510596, Note_on_c, 1, 70, 0
3, 510600, Note_on_c, 1, 68, 80
3, 510632, Note_on_c, 1, 68, 0
3, 510636, Note_on_c, 1, 67, 80
3, 510668, Note_on_c, 1, 67, 0
3, 510672, Note_on_c, 1, 68, 80
3, 510704, Note_on_c, 1, 68, 0
3, 510712, Note_on_c, 1, 65, 0
3, 510720, Note_on_c, 1, 67, 80
3, 510720, Note_on_c, 1, 63, 80
3, 510808, Note_on_c, 1, 63, 0
3, 510808, Note_on_c, 1, 67, 0
3, 510912, Note_on_c, 1, 67, 80
3, 510912, Note_on_c, 1, 63, 80
3, 511000, Note_on_c, 1, 63, 0
3, 511000, Note_on_c, 1, 67, 0
3, 511104, Note_on_c, 1, 65, 80
3, 511104, Note_on_c, 1, 68, 80
3, 511192, Note_on_c, 1, 68, 0
3, 511192, Note_on_c, 1, 65, 0
3, 511296, Note_on_c, 1, 68, 80
3, 511296, Note_on_c, 1, 65, 80
3, 511384, Note_on_c, 1, 65, 0
3, 511384, Note_on_c, 1, 68, 0
3, 511488, Note_on_c, 1, 67, 80
3, 511488, Note_on_c, 1, 63, 80
3, 511672, Note_on_c, 1, 63, 0
3, 511672, Note_on_c, 1, 67, 0
3, 511680, Note_on_c, 1, 58, 80
3, 511864, Note_on_c, 1, 58, 0
3, 511872, Note_on_c, 1, 58, 80
3, 512056, Note_on_c, 1, 58, 0
3, 512064, Note_on_c, 1, 56, 80
3, 512064, Note_on_c, 1, 65, 80
3, 512096, Note_on_c, 1, 65, 0
3, 512100, Note_on_c, 1, 67, 80
3, 512132, Note_on_c, 1, 67, 0
3, 512136, Note_on_c, 1, 65, 80
3, 512168, Note_on_c, 1, 65, 0
3, 512172, Note_on_c, 1, 63, 80
3, 512204, Note_on_c, 1, 63, 0
3, 512208, Note_on_c, 1, 65, 80
3, 512240, Note_on_c, 1, 65, 0
3, 512248, Note_on_c, 1, 56, 0
3, 512256, Note_on_c, 1, 63, 80
3, 512256, Note_on_c, 1, 55, 80
3, 512344, Note_on_c, 1, 55, 0
3, 512344, Note_on_c, 1, 63, 0
3, 512448, Note_on_c, 1, 63, 80
3, 512448, Note_on_c, 1, 55, 80
3, 512536, Note_on_c, 1, 55, 0
3, 512536, Note_on_c, 1, 63, 0
3, 512640, Note_on_c, 1, 65, 80
3, 512640, Note_on_c, 1, 56, 80
3, 512728, Note_on_c, 1, 56, 0
3, 512728, Note_on_c, 1, 65, 0
3, 512832, Note_on_c, 1, 65, 80
3, 512832, Note_on_c, 1, 56, 80
3, 512920, Note_on_c, 1, 56, 0
3, 512920, Note_on_c, 1, 65, 0
3, 513024, Note_on_c, 1, 63, 80
3, 513024, Note_on_c, 1, 55, 80
3, 513400, Note_on_c, 1, 55, 0
3, 513400, Note_on_c, 1, 63, 0
3, 513984, Note_on_c, 1, 67, 80
3, 513984, Note_on_c, 1, 63, 80
3, 513984, Note_on_c, 1, 58, 80
3, 514072, Note_on_c, 1, 58, 0
3, 514072, Note_on_c, 1, 63, 0
3, 514072, Note_on_c, 1, 67, 0
3, 514176, Note_on_c, 1, 63, 80
3, 514176, Note_on_c, 1, 58, 80
3, 514176, Note_on_c, 1, 67, 80
3, 514264, Note_on_c, 1, 67, 0
3, 514264, Note_on_c, 1, 58, 0
3, 514264, Note_on_c, 1, 63, 0
3, 514368, Note_on_c, 1, 67, 80
3, 514368, Note_on_c, 1, 63, 80
3, 514368, Note_on_c, 1, 58, 80
3, 514456, Note_on_c, 1, 58, 0
3, 514456, Note_on_c, 1, 63, 0
3, 514456, Note_on_c, 1, 67, 0
3, 514560, Note_on_c, 1, 69, 80
3, 514560, Note_on_c, 1, 65, 80
3, 514560, Note_on_c, 1, 60, 80
3, 514936, Note_on_c, 1, 60, 0
3, 514936, Note_on_c, 1, 65, 0
3, 514936, Note_on_c, 1, 69, 0
3, 515520, Note_on_c, 1, 69, 80
3, 515520, Note_on_c, 1, 65, 80
3, 515520, Note_on_c, 1, 60, 80
3, 515608, Note_on_c, 1, 60, 0
3, 515608, Note_on_c, 1, 65, 0
3, 515608, Note_on_c, 1, 69, 0
3, 515712, Note_on_c, 1, 69, 80
3, 515712, Note_on_c, 1, 65, 80
3, 515712, Note_on_c, 1, 60, 80
3, 515800, Note_on_c, 1, 60, 0
3, 515800, Note_on_c, 1, 65, 0
3, 515800, Note_on_c, 1, 69, 0
3, 515904, Note_on_c, 1, 69, 80
3, 515904, Note_on_c, 1, 65, 80
3, 515904, Note_on_c, 1, 60, 80
3, 515992, Note_on_c, 1, 60, 0
3, 515992, Note_on_c, 1, 65, 0
3, 515992, Note_on_c, 1, 69, 0
3, 516096, Note_on_c, 1, 70, 80
3, 516096, Note_on_c, 1, 67, 80
3, 516096, Note_on_c, 1, 61, 80
3, 516472, Note_on_c, 1, 61, 0
3, 516472, Note_on_c, 1, 67, 0
3, 516472, Note_on_c, 1, 70, 0
3, 517056, Note_on_c, 1, 70, 80
3, 517056, Note_on_c, 1, 67, 80
3, 517056, Note_on_c, 1, 61, 80
3, 517144, Note_on_c, 1, 61, 0
3, 517144, Note_on_c, 1, 67, 0
3, 517144, Note_on_c, 1, 70, 0
3, 517248, Note_on_c, 1, 70, 80
3, 517248, Note_on_c, 1, 67, 80
3, 517248, Note_on_c, 1, 61, 80
3, 517336, Note_on_c, 1, 61, 0
3, 517336, Note_on_c, 1, 67, 0
3, 517336, Note_on_c, 1, 70, 0
3, 517440, Note_on_c, 1, 70, 80
3, 517440, Note_on_c, 1, 67, 80
3, 517440, Note_on_c, 1, 61, 80
3, 517528, Note_on_c, 1, 61, 0
3, 517528, Note_on_c, 1, 67, 0
3, 517528, Note_on_c, 1, 70, 0
3, 517632, Note_on_c, 1, 70, 80
3, 517632, Note_on_c, 1, 65, 80
3, 517632, Note_on_c, 1, 62, 80
3, 517816, Note_on_c, 1, 62, 0
3, 517816, Note_on_c, 1, 65, 0
3, 517816, Note_on_c, 1, 70, 0
3, 517824, Note_on_c, 1, 70, 80
3, 517824, Note_on_c, 1, 65, 80
3, 517824, Note_on_c, 1, 62, 80
3, 518008, Note_on_c, 1, 62, 0
3, 518008, Note_on_c, 1, 65, 0
3, 518008, Note_on_c, 1, 70, 0
3, 518016, Note_on_c, 1, 70, 80
3, 518016, Note_on_c, 1, 65, 80
3, 518016, Note_on_c, 1, 62, 80
3, 518200, Note_on_c, 1, 62, 0
3, 518200, Note_on_c, 1, 65, 0
3, 518200, Note_on_c, 1, 70, 0
3, 518208, Note_on_c, 1, 70, 80
3, 518208, Note_on_c, 1, 65, 80
3, 518208, Note_on_c, 1, 62, 80
3, 518392, Note_on_c, 1, 62, 0
3, 518392, Note_on_c, 1, 65, 0
3, 518392, Note_on_c, 1, 70, 0
3, 518592, Note_on_c, 1, 74, 80
3, 518592, Note_on_c, 1, 70, 80
3, 518592, Note_on_c, 1, 65, 80
3, 518776, Note_on_c, 1, 65, 0
3, 518776, Note_on_c, 1, 70, 0
3, 518776, Note_on_c, 1, 74, 0
3, 518784, Note_on_c, 1, 74, 80
3, 518784, Note_on_c, 1, 70, 80
3, 518784, Note_on_c, 1, 65, 80
3, 518968, Note_on_c, 1, 65, 0
3, 518968, Note_on_c, 1, 70, 0
3, 518968, Note_on_c, 1, 74, 0
3, 518976, Note_on_c, 1, 74, 80
3, 518976, Note_on_c, 1, 70, 80
3, 518976, Note_on_c, 1, 65, 80
3, 519160, Note_on_c, 1, 65, 0
3, 519160, Note_on_c, 1, 70, 0
3, 519160, Note_on_c, 1, 74, 0
3, 519360, Note_on_c, 1, 77, 80
3, 519360, Note_on_c, 1, 74, 80
3, 519360, Note_on_c, 1, 70, 80
3, 519544, Note_on_c, 1, 70, 0
3, 519544, Note_on_c, 1, 74, 0
3, 519544, Note_on_c, 1, 77, 0
3, 519552, Note_on_c, 1, 77, 80
3, 519552, Note_on_c, 1, 74, 80
3, 519552, Note_on_c, 1, 70, 80
3, 519736, Note_on_c, 1, 70, 0
3, 519736, Note_on_c, 1, 74, 0
3, 519736, Note_on_c, 1, 77, 0
3, 519744, Note_on_c, 1, 77, 80
3, 519744, Note_on_c, 1, 74, 80
3, 519744, Note_on_c, 1, 70, 80
3, 519928, Note_on_c, 1, 70, 0
3, 519928, Note_on_c, 1, 74, 0
3, 519928, Note_on_c, 1, 77, 0
3, 520128, Note_on_c, 1, 82, 80
3, 520128, Note_on_c, 1, 77, 80
3, 520128, Note_on_c, 1, 74, 80
3, 520312, Note_on_c, 1, 74, 0
3, 520312, Note_on_c, 1, 77, 0
3, 520312, Note_on_c, 1, 82, 0
3, 520320, Note_on_c, 1, 82, 80
3, 520320, Note_on_c, 1, 77, 80
3, 520320, Note_on_c, 1, 74, 80
3, 520504, Note_on_c, 1, 74, 0
3, 520504, Note_on_c, 1, 77, 0
3, 520504, Note_on_c, 1, 82, 0
3, 520512, Note_on_c, 1, 82, 80
3, 520512, Note_on_c, 1, 77, 80
3, 520512, Note_on_c, 1, 74, 80
3, 520696, Note_on_c, 1, 74, 0
3, 520696, Note_on_c, 1, 77, 0
3, 520696, Note_on_c, 1, 82, 0
3, 520704, Note_on_c, 1, 82, 80
3, 520704, Note_on_c, 1, 77, 80
3, 520704, Note_on_c, 1, 74, 80
3, 520888, Note_on_c, 1, 74, 0
3, 520888, Note_on_c, 1, 77, 0
3, 520888, Note_on_c, 1, 82, 0
3, 521088, Note_on_c, 1, 74, 80
3, 521088, Note_on_c, 1, 70, 80
3, 521088, Note_on_c, 1, 65, 80
3, 521176, Note_on_c, 1, 65, 0
3, 521176, Note_on_c, 1, 70, 0
3, 521176, Note_on_c, 1, 74, 0
3, 521280, Note_on_c, 1, 74, 80
3, 521280, Note_on_c, 1, 70, 80
3, 521280, Note_on_c, 1, 65, 80
3, 521368, Note_on_c, 1, 65, 0
3, 521368, Note_on_c, 1, 70, 0
3, 521368, Note_on_c, 1, 74, 0
3, 521472, Note_on_c, 1, 74, 80
3, 521472, Note_on_c, 1, 70, 80
3, 521472, Note_on_c, 1, 65, 80
3, 521560, Note_on_c, 1, 65, 0
3, 521560, Note_on_c, 1, 70, 0
3, 521560, Note_on_c, 1, 74, 0
3, 521856, Note_on_c, 1, 74, 80
3, 521856, Note_on_c, 1, 65, 80
3, 521856, Note_on_c, 1, 70, 80
3, 521944, Note_on_c, 1, 70, 0
3, 521944, Note_on_c, 1, 65, 0
3, 521944, Note_on_c, 1, 74, 0
3, 522048, Note_on_c, 1, 74, 80
3, 522048, Note_on_c, 1, 70, 80
3, 522048, Note_on_c, 1, 65, 80
3, 522136, Note_on_c, 1, 65, 0
3, 522136, Note_on_c, 1, 70, 0
3, 522136, Note_on_c, 1, 74, 0
3, 522240, Note_on_c, 1, 74, 80
3, 522240, Note_on_c, 1, 70, 80
3, 522240, Note_on_c, 1, 65, 80
3, 522328, Note_on_c, 1, 65, 0
3, 522328, Note_on_c, 1, 70, 0
3, 522328, Note_on_c, 1, 74, 0
3, 522624, Note_on_c, 1, 70, 80
3, 522624, Note_on_c, 1, 65, 80
3, 522624, Note_on_c, 1, 62, 80
3, 522712, Note_on_c, 1, 62, 0
3, 522712, Note_on_c, 1, 65, 0
3, 522712, Note_on_c, 1, 70, 0
3, 522816, Note_on_c, 1, 70, 80
3, 522816, Note_on_c, 1, 65, 80
3, 522816, Note_on_c, 1, 62, 80
3, 522904, Note_on_c, 1, 62, 0
3, 522904, Note_on_c, 1, 65, 0
3, 522904, Note_on_c, 1, 70, 0
3, 523008, Note_on_c, 1, 70, 80
3, 523008, Note_on_c, 1, 65, 80
3, 523008, Note_on_c, 1, 62, 80
3, 523096, Note_on_c, 1, 62, 0
3, 523096, Note_on_c, 1, 65, 0
3, 523096, Note_on_c, 1, 70, 0
3, 523392, Note_on_c, 1, 65, 80
3, 523392, Note_on_c, 1, 62, 80
3, 523392, Note_on_c, 1, 58, 80
3, 523480, Note_on_c, 1, 58, 0
3, 523480, Note_on_c, 1, 62, 0
3, 523480, Note_on_c, 1, 65, 0
3, 523584, Note_on_c, 1, 65, 80
3, 523584, Note_on_c, 1, 62, 80
3, 523584, Note_on_c, 1, 58, 80
3, 523672, Note_on_c, 1, 58, 0
3, 523672, Note_on_c, 1, 62, 0
3, 523672, Note_on_c, 1, 65, 0
3, 523776, Note_on_c, 1, 65, 80
3, 523776, Note_on_c, 1, 62, 80
3, 523960, Note_on_c, 1, 62, 0
3, 523960, Note_on_c, 1, 65, 0
3, 523968, Note_on_c, 1, 62, 80
3, 523968, Note_on_c, 1, 58, 80
3, 524152, Note_on_c, 1, 58, 0
3, 524152, Note_on_c, 1, 62, 0
3, 524160, Note_on_c, 1, 62, 80
3, 524160, Note_on_c, 1, 58, 80
3, 524344, Note_on_c, 1, 58, 0
3, 524344, Note_on_c, 1, 62, 0
3, 524352, Note_on_c, 1, 62, 80
3, 524352, Note_on_c, 1, 58, 80
3, 524536, Note_on_c, 1, 58, 0
3, 524536, Note_on_c, 1, 62, 0
3, 524544, Note_on_c, 1, 62, 80
3, 524544, Note_on_c, 1, 58, 80
3, 524728, Note_on_c, 1, 58, 0
3, 524728, Note_on_c, 1, 62, 0
3, 524736, Note_on_c, 1, 62, 80
3, 524736, Note_on_c, 1, 58, 80
3, 524920, Note_on_c, 1, 58, 0
3, 524920, Note_on_c, 1, 62, 0
3, 524928, Note_on_c, 1, 62, 80
3, 524928, Note_on_c, 1, 58, 80
3, 525112, Note_on_c, 1, 58, 0
3, 525112, Note_on_c, 1, 62, 0
3, 525120, Note_on_c, 1, 62, 80
3, 525120, Note_on_c, 1, 58, 80
3, 525304, Note_on_c, 1, 58, 0
3, 525304, Note_on_c, 1, 62, 0
3, 525312, Note_on_c, 1, 60, 80
3, 525312, Note_on_c, 1, 57, 80
3, 525312, Note_on_c, 1, 53, 80
3, 525496, Note_on_c, 1, 53, 0
3, 525496, Note_on_c, 1, 57, 0
3, 525496, Note_on_c, 1, 60, 0
3, 525504, Note_on_c, 1, 60, 80
3, 525504, Note_on_c, 1, 57, 80
3, 525504, Note_on_c, 1, 53, 80
3, 525688, Note_on_c, 1, 53, 0
3, 525688, Note_on_c, 1, 57, 0
3, 525688, Note_on_c, 1, 60, 0
3, 525696, Note_on_c, 1, 60, 80
3, 525696, Note_on_c, 1, 53, 80
3, 525696, Note_on_c, 1, 57, 80
3, 525880, Note_on_c, 1, 57, 0
3, 525880, Note_on_c, 1, 53, 0
3, 525880, Note_on_c, 1, 60, 0
3, 525888, Note_on_c, 1, 60, 80
3, 525888, Note_on_c, 1, 57, 80
3, 525888, Note_on_c, 1, 53, 80
3, 526072, Note_on_c, 1, 53, 0
3, 526072, Note_on_c, 1, 57, 0
3, 526072, Note_on_c, 1, 60, 0
3, 526080, Note_on_c, 1, 60, 80
3, 526080, Note_on_c, 1, 57, 80
3, 526080, Note_on_c, 1, 53, 80
3, 526264, Note_on_c, 1, 53, 0
3, 526264, Note_on_c, 1, 57, 0
3, 526264, Note_on_c, 1, 60, 0
3, 526272, Note_on_c, 1, 60, 80
3, 526272, Note_on_c, 1, 57, 80
3, 526272, Note_on_c, 1, 53, 80
3, 526456, Note_on_c, 1, 53, 0
3, 526456, Note_on_c, 1, 57, 0
3, 526456, Note_on_c, 1, 60, 0
3, 526464, Note_on_c, 1, 60, 80
3, 526464, Note_on_c, 1, 57, 80
3, 526464, Note_on_c, 1, 53, 80
3, 526648, Note_on_c, 1, 53, 0
3, 526648, Note_on_c, 1, 57, 0
3, 526648, Note_on_c, 1, 60, 0
3, 526656, Note_on_c, 1, 60, 80
3, 526656, Note_on_c, 1, 57, 80
3, 526656, Note_on_c, 1, 53, 80
3, 526840, Note_on_c, 1, 53, 0
3, 526840, Note_on_c, 1, 57, 0
3, 526840, Note_on_c, 1, 60, 0
3, 526848, Note_on_c, 1, 58, 107
3, 526848, Note_on_c, 1, 53, 107
3, 526848, Note_on_c, 1, 50, 107
3, 527224, Note_on_c, 1, 50, 0
3, 527224, Note_on_c, 1, 53, 0
3, 527224, Note_on_c, 1, 58, 0
3, 527424, Note_on_c, 1, 86, 107
3, 527512, Note_on_c, 1, 86, 0
3, 527520, Note_on_c, 1, 82, 107
3, 527608, Note_on_c, 1, 82, 0
3, 527616, Note_on_c, 1, 77, 107
3, 527704, Note_on_c, 1, 77, 0
3, 527808, Note_on_c, 1, 77, 107
3, 527896, Note_on_c, 1, 77, 0
3, 528000, Note_on_c, 1, 77, 107
3, 528088, Note_on_c, 1, 77, 0
3, 528192, Note_on_c, 1, 77, 107
3, 528280, Note_on_c, 1, 77, 0
3, 528384, Note_on_c, 1, 77, 100
3, 528568, Note_on_c, 1, 77, 0
3, 528576, Note_on_c, 1, 87, 100
3, 528760, Note_on_c, 1, 87, 0
3, 528768, Note_on_c, 1, 87, 100
3, 529336, Note_on_c, 1, 87, 0
3, 529344, Note_on_c, 1, 86, 100
3, 529432, Note_on_c, 1, 86, 0
3, 529440, Note_on_c, 1, 84, 100
3, 529528, Note_on_c, 1, 84, 0
3, 529536, Note_on_c, 1, 86, 100
3, 529624, Note_on_c, 1, 86, 0
3, 529632, Note_on_c, 1, 84, 100
3, 529720, Note_on_c, 1, 84, 0
3, 529728, Note_on_c, 1, 82, 100
3, 529816, Note_on_c, 1, 82, 0
3, 529824, Note_on_c, 1, 81, 100
3, 529912, Note_on_c, 1, 81, 0
3, 529920, Note_on_c, 1, 84, 100
3, 530104, Note_on_c, 1, 84, 0
3, 530112, Note_on_c, 1, 82, 100
3, 530296, Note_on_c, 1, 82, 0
3, 530496, Note_on_c, 1, 86, 100
3, 530584, Note_on_c, 1, 86, 0
3, 530592, Note_on_c, 1, 82, 100
3, 530680, Note_on_c, 1, 82, 0
3, 530688, Note_on_c, 1, 77, 100
3, 530776, Note_on_c, 1, 77, 0
3, 530880, Note_on_c, 1, 77, 100
3, 530968, Note_on_c, 1, 77, 0
3, 531072, Note_on_c, 1, 77, 100
3, 531160, Note_on_c, 1, 77, 0
3, 531264, Note_on_c, 1, 77, 100
3, 531352, Note_on_c, 1, 77, 0
3, 531456, Note_on_c, 1, 77, 100
3, 531640, Note_on_c, 1, 77, 0
3, 531648, Note_on_c, 1, 87, 100
3, 531832, Note_on_c, 1, 87, 0
3, 531840, Note_on_c, 1, 87, 100
3, 532408, Note_on_c, 1, 87, 0
3, 532416, Note_on_c, 1, 86, 100
3, 532504, Note_on_c, 1, 86, 0
3, 532512, Note_on_c, 1, 84, 100
3, 532600, Note_on_c, 1, 84, 0
3, 532608, Note_on_c, 1, 86, 100
3, 532696, Note_on_c, 1, 86, 0
3, 532704, Note_on_c, 1, 84, 100
3, 532792, Note_on_c, 1, 84, 0
3, 532800, Note_on_c, 1, 82, 100
3, 532888, Note_on_c, 1, 82, 0
3, 532896, Note_on_c, 1, 81, 100
3, 532984, Note_on_c, 1, 81, 0
3, 532992, Note_on_c, 1, 89, 100
3, 533464, Note_on_c, 1, 89, 0
3, 533472, Note_on_c, 1, 87, 100
3, 533512, Note_on_c, 1, 87, 0
3, 533568, Note_on_c, 1, 86, 100
3, 533608, Note_on_c, 1, 86, 0
3, 533664, Note_on_c, 1, 84, 100
3, 533704, Note_on_c, 1, 84, 0
3, 533760, Note_on_c, 1, 82, 100
3, 533800, Note_on_c, 1, 82, 0
3, 533856, Note_on_c, 1, 81, 100
3, 533896, Note_on_c, 1, 81, 0
3, 533952, Note_on_c, 1, 79, 100
3, 533992, Note_on_c, 1, 79, 0
3, 534048, Note_on_c, 1, 77, 100
3, 534088, Note_on_c, 1, 77, 0
3, 534144, Note_on_c, 1, 75, 100
3, 534184, Note_on_c, 1, 75, 0
3, 534240, Note_on_c, 1, 74, 100
3, 534280, Note_on_c, 1, 74, 0
3, 534336, Note_on_c, 1, 72, 100
3, 534376, Note_on_c, 1, 72, 0
3, 534432, Note_on_c, 1, 70, 100
3, 534472, Note_on_c, 1, 70, 0
3, 534528, Note_on_c, 1, 68, 100
3, 534528, Note_on_c, 1, 58, 100
3, 534712, Note_on_c, 1, 58, 0
3, 534712, Note_on_c, 1, 68, 0
3, 534720, Note_on_c, 1, 58, 100
3, 534720, Note_on_c, 1, 68, 100
3, 535096, Note_on_c, 1, 68, 0
3, 535096, Note_on_c, 1, 58, 0
3, 535104, Note_on_c, 1, 68, 100
3, 535104, Note_on_c, 1, 58, 100
3, 535288, Note_on_c, 1, 58, 0
3, 535288, Note_on_c, 1, 68, 0
3, 535296, Note_on_c, 1, 66, 100
3, 535296, Note_on_c, 1, 58, 100
3, 535480, Note_on_c, 1, 58, 0
3, 535480, Note_on_c, 1, 66, 0
3, 535488, Note_on_c, 1, 66, 100
3, 535488, Note_on_c, 1, 58, 100
3, 535864, Note_on_c, 1, 58, 0
3, 535864, Note_on_c, 1, 66, 0
3, 535872, Note_on_c, 1, 66, 100
3, 535872, Note_on_c, 1, 58, 100
3, 536056, Note_on_c, 1, 58, 0
3, 536056, Note_on_c, 1, 66, 0
3, 536064, Note_on_c, 1, 67, 100
3, 536064, Note_on_c, 1, 58, 100
3, 536440, Note_on_c, 1, 58, 0
3, 536440, Note_on_c, 1, 67, 0
3, 536448, Note_on_c, 1, 82, 100
3, 536448, Note_on_c, 1, 70, 100
3, 536824, Note_on_c, 1, 70, 0
3, 536824, Note_on_c, 1, 82, 0
3, 537216, Note_on_c, 1, 64, 100
3, 537592, Note_on_c, 1, 64, 0
3, 537600, Note_on_c, 1, 65, 100
3, 537880, Note_on_c, 1, 65, 0
3, 537888, Note_on_c, 1, 67, 100
3, 537976, Note_on_c, 1, 67, 0
3, 537984, Note_on_c, 1, 69, 100
3, 538072, Note_on_c, 1, 69, 0
3, 538080, Note_on_c, 1, 70, 100
3, 538168, Note_on_c, 1, 70, 0
3, 538176, Note_on_c, 1, 72, 100
3, 538264, Note_on_c, 1, 72, 0
3, 538272, Note_on_c, 1, 74, 100
3, 538360, Note_on_c, 1, 74, 0
3, 538368, Note_on_c, 1, 75, 100
3, 538456, Note_on_c, 1, 75, 0
3, 538464, Note_on_c, 1, 77, 100
3, 538552, Note_on_c, 1, 77, 0
3, 538560, Note_on_c, 1, 79, 100
3, 538648, Note_on_c, 1, 79, 0
3, 538656, Note_on_c, 1, 81, 100
3, 538744, Note_on_c, 1, 81, 0
3, 538752, Note_on_c, 1, 82, 100
3, 538840, Note_on_c, 1, 82, 0
3, 538848, Note_on_c, 1, 84, 100
3, 538936, Note_on_c, 1, 84, 0
3, 538944, Note_on_c, 1, 86, 100
3, 539032, Note_on_c, 1, 86, 0
3, 539040, Note_on_c, 1, 87, 100
3, 539128, Note_on_c, 1, 87, 0
3, 539136, Note_on_c, 1, 89, 100
3, 539320, Note_on_c, 1, 89, 0
3, 539328, Note_on_c, 1, 86, 100
3, 539416, Note_on_c, 1, 86, 0
3, 539424, Note_on_c, 1, 82, 100
3, 539512, Note_on_c, 1, 82, 0
3, 539520, Note_on_c, 1, 77, 100
3, 539704, Note_on_c, 1, 77, 0
3, 539712, Note_on_c, 1, 74, 100
3, 539800, Note_on_c, 1, 74, 0
3, 539808, Note_on_c, 1, 70, 100
3, 539896, Note_on_c, 1, 70, 0
3, 539904, Note_on_c, 1, 65, 100
3, 540280, Note_on_c, 1, 65, 0
3, 540288, Note_on_c, 1, 81, 100
3, 540288, Note_on_c, 1, 77, 100
3, 540288, Note_on_c, 1, 72, 100
3, 540664, Note_on_c, 1, 72, 0
3, 540664, Note_on_c, 1, 77, 0
3, 540664, Note_on_c, 1, 81, 0
3, 540672, Note_on_c, 1, 82, 100
3, 540672, Note_on_c, 1, 77, 100
3, 540672, Note_on_c, 1, 74, 100
3, 541048, Note_on_c, 1, 74, 0
3, 541048, Note_on_c, 1, 77, 0
3, 541048, Note_on_c, 1, 82, 0
3, 541440, Note_on_c, 1, 82, 75
3, 541816, Note_on_c, 1, 82, 0
3, 541824, Note_on_c, 1, 86, 75
3, 542008, Note_on_c, 1, 86, 0
3, 542208, Note_on_c, 1, 79, 75
3, 542584, Note_on_c, 1, 79, 0
3, 542592, Note_on_c, 1, 82, 75
3, 542776, Note_on_c, 1, 82, 0
3, 542976, Note_on_c, 1, 72, 75
3, 543256, Note_on_c, 1, 72, 0
3, 543264, Note_on_c, 1, 72, 75
3, 543352, Note_on_c, 1, 72, 0
3, 543360, Note_on_c, 1, 74, 75
3, 543640, Note_on_c, 1, 74, 0
3, 543648, Note_on_c, 1, 74, 75
3, 543736, Note_on_c, 1, 74, 0
3, 543744, Note_on_c, 1, 77, 75
3, 544120, Note_on_c, 1, 77, 0
3, 544128, Note_on_c, 1, 75, 75
3, 544312, Note_on_c, 1, 75, 0
3, 544512, Note_on_c, 1, 75, 75
3, 544888, Note_on_c, 1, 75, 0
3, 544896, Note_on_c, 1, 79, 75
3, 545080, Note_on_c, 1, 79, 0
3, 545280, Note_on_c, 1, 72, 75
3, 545656, Note_on_c, 1, 72, 0
3, 545664, Note_on_c, 1, 75, 75
3, 545848, Note_on_c, 1, 75, 0
3, 546048, Note_on_c, 1, 67, 75
3, 546328, Note_on_c, 1, 67, 0
3, 546336, Note_on_c, 1, 67, 75
3, 546424, Note_on_c, 1, 67, 0
3, 546432, Note_on_c, 1, 69, 75
3, 546712, Note_on_c, 1, 69, 0
3, 546720, Note_on_c, 1, 69, 75
3, 546808, Note_on_c, 1, 69, 0
3, 546816, Note_on_c, 1, 70, 75
3, 546904, Note_on_c, 1, 70, 0
3, 546912, Note_on_c, 1, 74, 75
3, 547000, Note_on_c, 1, 74, 0
3, 547008, Note_on_c, 1, 77, 75
3, 547096, Note_on_c, 1, 77, 0
3, 547104, Note_on_c, 1, 74, 75
3, 547192, Note_on_c, 1, 74, 0
3, 547200, Note_on_c, 1, 70, 75
3, 547288, Note_on_c, 1, 70, 0
3, 547296, Note_on_c, 1, 65, 75
3, 547384, Note_on_c, 1, 65, 0
3, 547392, Note_on_c, 1, 62, 75
3, 547480, Note_on_c, 1, 62, 0
3, 547488, Note_on_c, 1, 65, 75
3, 547576, Note_on_c, 1, 65, 0
3, 547584, Note_on_c, 1, 67, 75
3, 547672, Note_on_c, 1, 67, 0
3, 547680, Note_on_c, 1, 63, 75
3, 547768, Note_on_c, 1, 63, 0
3, 547776, Note_on_c, 1, 67, 75
3, 547864, Note_on_c, 1, 67, 0
3, 547872, Note_on_c, 1, 70, 75
3, 547960, Note_on_c, 1, 70, 0
3, 547968, Note_on_c, 1, 69, 75
3, 548056, Note_on_c, 1, 69, 0
3, 548064, Note_on_c, 1, 65, 75
3, 548152, Note_on_c, 1, 65, 0
3, 548160, Note_on_c, 1, 69, 75
3, 548248, Note_on_c, 1, 69, 0
3, 548256, Note_on_c, 1, 72, 75
3, 548344, Note_on_c, 1, 72, 0
3, 548352, Note_on_c, 1, 70, 75
3, 548440, Note_on_c, 1, 70, 0
3, 548448, Note_on_c, 1, 74, 75
3, 548536, Note_on_c, 1, 74, 0
3, 548544, Note_on_c, 1, 77, 75
3, 548632, Note_on_c, 1, 77, 0
3, 548640, Note_on_c, 1, 74, 75
3, 548728, Note_on_c, 1, 74, 0
3, 548736, Note_on_c, 1, 70, 75
3, 548824, Note_on_c, 1, 70, 0
3, 548832, Note_on_c, 1, 65, 75
3, 548920, Note_on_c, 1, 65, 0
3, 548928, Note_on_c, 1, 62, 75
3, 549016, Note_on_c, 1, 62, 0
3, 549024, Note_on_c, 1, 65, 75
3, 549112, Note_on_c, 1, 65, 0
3, 549120, Note_on_c, 1, 67, 75
3, 549208, Note_on_c, 1, 67, 0
3, 549216, Note_on_c, 1, 63, 75
3, 549304, Note_on_c, 1, 63, 0
3, 549312, Note_on_c, 1, 67, 75
3, 549400, Note_on_c, 1, 67, 0
3, 549408, Note_on_c, 1, 70, 75
3, 549496, Note_on_c, 1, 70, 0
3, 549504, Note_on_c, 1, 69, 75
3, 549592, Note_on_c, 1, 69, 0
3, 549600, Note_on_c, 1, 65, 75
3, 549688, Note_on_c, 1, 65, 0
3, 549696, Note_on_c, 1, 69, 75
3, 549784, Note_on_c, 1, 69, 0
3, 549792, Note_on_c, 1, 72, 75
3, 549880, Note_on_c, 1, 72, 0
3, 549888, Note_on_c, 1, 70, 100
3, 549976, Note_on_c, 1, 70, 0
3, 549984, Note_on_c, 1, 65, 100
3, 550072, Note_on_c, 1, 65, 0
3, 550080, Note_on_c, 1, 62, 100
3, 550168, Note_on_c, 1, 62, 0
3, 550176, Note_on_c, 1, 65, 100
3, 550264, Note_on_c, 1, 65, 0
3, 550272, Note_on_c, 1, 70, 100
3, 550360, Note_on_c, 1, 70, 0
3, 550368, Note_on_c, 1, 65, 100
3, 550456, Note_on_c, 1, 65, 0
3, 550464, Note_on_c, 1, 70, 100
3, 550552, Note_on_c, 1, 70, 0
3, 550560, Note_on_c, 1, 65, 100
3, 550648, Note_on_c, 1, 65, 0
3, 550656, Note_on_c, 1, 74, 100
3, 550744, Note_on_c, 1, 74, 0
3, 550768, Note_on_c, 1, 70, 100
3, 550848, Note_on_c, 1, 74, 100
3, 550856, Note_on_c, 1, 70, 0
3, 550936, Note_on_c, 1, 74, 0
3, 550944, Note_on_c, 1, 70, 100
3, 551032, Note_on_c, 1, 70, 0
3, 551040, Note_on_c, 1, 77, 100
3, 551128, Note_on_c, 1, 77, 0
3, 551136, Note_on_c, 1, 74, 100
3, 551224, Note_on_c, 1, 74, 0
3, 551232, Note_on_c, 1, 77, 100
3, 551320, Note_on_c, 1, 77, 0
3, 551328, Note_on_c, 1, 74, 100
3, 551416, Note_on_c, 1, 74, 0
3, 551424, Note_on_c, 1, 70, 100
3, 551800, Note_on_c, 1, 70, 0
3, 551808, Note_on_c, 1, 82, 100
3, 551808, Note_on_c, 1, 77, 100
3, 551808, Note_on_c, 1, 74, 100
3, 552184, Note_on_c, 1, 74, 0
3, 552184, Note_on_c, 1, 77, 0
3, 552184, Note_on_c, 1, 82, 0
3, 552192, Note_on_c, 1, 58, 100
3, 552568, Note_on_c, 1, 58, 0
3, 552568, End_track
4, 0, Start_track
4, 0, MIDI_port, 0
4, 0, Title_t, "K622-a-Allegro"
4, 0, Control_c, 2, 0, 0
4, 0, Control_c, 2, 32, 0
4, 0, Program_c, 2, 48
4, 0, Control_c, 2, 7, 94
4, 0, Control_c, 2, 10, 94
4, 0, Control_c, 2, 91, 63
4, 0, Control_c, 2, 93, 42
4, 0, Control_c, 2, 121, 0
4, 96, Control_c, 2, 10, 83
4, 192, Control_c, 2, 91, 63
4, 240, Control_c, 2, 93, 40
4, 288, Program_c, 2, 48
4, 1536, Note_on_c, 2, 58, 63
4, 1536, Note_on_c, 2, 46, 63
4, 1720, Note_on_c, 2, 58, 0
4, 1728, Note_on_c, 2, 58, 63
4, 1912, Note_on_c, 2, 58, 0
4, 1912, Note_on_c, 2, 46, 0
4, 1920, Note_on_c, 2, 58, 63
4, 1920, Note_on_c, 2, 46, 63
4, 2104, Note_on_c, 2, 58, 0
4, 2112, Note_on_c, 2, 58, 63
4, 2296, Note_on_c, 2, 58, 0
4, 2296, Note_on_c, 2, 46, 0
4, 2304, Note_on_c, 2, 58, 63
4, 2304, Note_on_c, 2, 46, 63
4, 2488, Note_on_c, 2, 58, 0
4, 2496, Note_on_c, 2, 58, 63
4, 2680, Note_on_c, 2, 58, 0
4, 2680, Note_on_c, 2, 46, 0
4, 2688, Note_on_c, 2, 58, 63
4, 2688, Note_on_c, 2, 46, 63
4, 2872, Note_on_c, 2, 58, 0
4, 2880, Note_on_c, 2, 58, 63
4, 3064, Note_on_c, 2, 58, 0
4, 3064, Note_on_c, 2, 46, 0
4, 3072, Note_on_c, 2, 58, 63
4, 3072, Note_on_c, 2, 46, 63
4, 3256, Note_on_c, 2, 58, 0
4, 3264, Note_on_c, 2, 58, 63
4, 3448, Note_on_c, 2, 58, 0
4, 3448, Note_on_c, 2, 46, 0
4, 3456, Note_on_c, 2, 58, 63
4, 3456, Note_on_c, 2, 46, 63
4, 3640, Note_on_c, 2, 58, 0
4, 3648, Note_on_c, 2, 58, 63
4, 3832, Note_on_c, 2, 58, 0
4, 3832, Note_on_c, 2, 46, 0
4, 3840, Note_on_c, 2, 58, 63
4, 3840, Note_on_c, 2, 46, 63
4, 4024, Note_on_c, 2, 58, 0
4, 4032, Note_on_c, 2, 58, 63
4, 4216, Note_on_c, 2, 58, 0
4, 4216, Note_on_c, 2, 46, 0
4, 4224, Note_on_c, 2, 58, 63
4, 4224, Note_on_c, 2, 46, 63
4, 4408, Note_on_c, 2, 58, 0
4, 4416, Note_on_c, 2, 58, 63
4, 4600, Note_on_c, 2, 58, 0
4, 4600, Note_on_c, 2, 46, 0
4, 4608, Note_on_c, 2, 60, 63
4, 4608, Note_on_c, 2, 51, 63
4, 4984, Note_on_c, 2, 51, 0
4, 4984, Note_on_c, 2, 60, 0
4, 4992, Note_on_c, 2, 63, 63
4, 5176, Note_on_c, 2, 63, 0
4, 5376, Note_on_c, 2, 60, 63
4, 5376, Note_on_c, 2, 51, 63
4, 5752, Note_on_c, 2, 51, 0
4, 5752, Note_on_c, 2, 60, 0
4, 5760, Note_on_c, 2, 63, 63
4, 5944, Note_on_c, 2, 63, 0
4, 6336, Note_on_c, 2, 53, 63
4, 6520, Note_on_c, 2, 53, 0
4, 6528, Note_on_c, 2, 53, 63
4, 6712, Note_on_c, 2, 53, 0
4, 6720, Note_on_c, 2, 53, 63
4, 6904, Note_on_c, 2, 53, 0
4, 6912, Note_on_c, 2, 53, 63
4, 7096, Note_on_c, 2, 53, 0
4, 7104, Note_on_c, 2, 65, 63
4, 7288, Note_on_c, 2, 65, 0
4, 7296, Note_on_c, 2, 64, 63
4, 7480, Note_on_c, 2, 64, 0
4, 7488, Note_on_c, 2, 63, 63
4, 7672, Note_on_c, 2, 63, 0
4, 7680, Note_on_c, 2, 62, 63
4, 7680, Note_on_c, 2, 65, 63
4, 7864, Note_on_c, 2, 65, 0
4, 7864, Note_on_c, 2, 62, 0
4, 7872, Note_on_c, 2, 65, 63
4, 7872, Note_on_c, 2, 62, 63
4, 8056, Note_on_c, 2, 62, 0
4, 8056, Note_on_c, 2, 65, 0
4, 8064, Note_on_c, 2, 65, 63
4, 8064, Note_on_c, 2, 62, 63
4, 8248, Note_on_c, 2, 62, 0
4, 8248, Note_on_c, 2, 65, 0
4, 8256, Note_on_c, 2, 65, 63
4, 8256, Note_on_c, 2, 62, 63
4, 8440, Note_on_c, 2, 62, 0
4, 8440, Note_on_c, 2, 65, 0
4, 8448, Note_on_c, 2, 63, 63
4, 8448, Note_on_c, 2, 60, 63
4, 8632, Note_on_c, 2, 60, 0
4, 8632, Note_on_c, 2, 63, 0
4, 8640, Note_on_c, 2, 63, 63
4, 8640, Note_on_c, 2, 60, 63
4, 8824, Note_on_c, 2, 60, 0
4, 8824, Note_on_c, 2, 63, 0
4, 8832, Note_on_c, 2, 62, 63
4, 8832, Note_on_c, 2, 58, 63
4, 9016, Note_on_c, 2, 58, 0
4, 9016, Note_on_c, 2, 62, 0
4, 9024, Note_on_c, 2, 62, 63
4, 9024, Note_on_c, 2, 58, 63
4, 9208, Note_on_c, 2, 58, 0
4, 9208, Note_on_c, 2, 62, 0
4, 9216, Note_on_c, 2, 60, 63
4, 9216, Note_on_c, 2, 57, 63
4, 9400, Note_on_c, 2, 57, 0
4, 9400, Note_on_c, 2, 60, 0
4, 9408, Note_on_c, 2, 60, 63
4, 9408, Note_on_c, 2, 57, 63
4, 9592, Note_on_c, 2, 57, 0
4, 9592, Note_on_c, 2, 60, 0
4, 9600, Note_on_c, 2, 58, 63
4, 9600, Note_on_c, 2, 55, 63
4, 9784, Note_on_c, 2, 55, 0
4, 9784, Note_on_c, 2, 58, 0
4, 9792, Note_on_c, 2, 58, 63
4, 9792, Note_on_c, 2, 55, 63
4, 9976, Note_on_c, 2, 55, 0
4, 9976, Note_on_c, 2, 58, 0
4, 9984, Note_on_c, 2, 57, 63
4, 9984, Note_on_c, 2, 53, 63
4, 10168, Note_on_c, 2, 53, 0
4, 10168, Note_on_c, 2, 57, 0
4, 10176, Note_on_c, 2, 57, 63
4, 10176, Note_on_c, 2, 53, 63
4, 10360, Note_on_c, 2, 53, 0
4, 10360, Note_on_c, 2, 57, 0
4, 10368, Note_on_c, 2, 57, 63
4, 10368, Note_on_c, 2, 51, 63
4, 10552, Note_on_c, 2, 51, 0
4, 10552, Note_on_c, 2, 57, 0
4, 10560, Note_on_c, 2, 57, 63
4, 10560, Note_on_c, 2, 51, 63
4, 10744, Note_on_c, 2, 51, 0
4, 10744, Note_on_c, 2, 57, 0
4, 10752, Note_on_c, 2, 58, 63
4, 10752, Note_on_c, 2, 50, 63
4, 11128, Note_on_c, 2, 50, 0
4, 11128, Note_on_c, 2, 58, 0
4, 11136, Note_on_c, 2, 48, 63
4, 11512, Note_on_c, 2, 48, 0
4, 11520, Note_on_c, 2, 46, 63
4, 11896, Note_on_c, 2, 46, 0
4, 11904, Note_on_c, 2, 51, 63
4, 12280, Note_on_c, 2, 51, 0
4, 12288, Note_on_c, 2, 53, 63
4, 12472, Note_on_c, 2, 53, 0
4, 12480, Note_on_c, 2, 52, 63
4, 12664, Note_on_c, 2, 52, 0
4, 12672, Note_on_c, 2, 53, 63
4, 12856, Note_on_c, 2, 53, 0
4, 12864, Note_on_c, 2, 52, 63
4, 13048, Note_on_c, 2, 52, 0
4, 13056, Note_on_c, 2, 53, 63
4, 13432, Note_on_c, 2, 53, 0
4, 13824, Note_on_c, 2, 58, 92
4, 13824, Note_on_c, 2, 46, 92
4, 14008, Note_on_c, 2, 46, 0
4, 14008, Note_on_c, 2, 58, 0
4, 14016, Note_on_c, 2, 58, 92
4, 14200, Note_on_c, 2, 58, 0
4, 14208, Note_on_c, 2, 58, 92
4, 14208, Note_on_c, 2, 46, 92
4, 14392, Note_on_c, 2, 46, 0
4, 14392, Note_on_c, 2, 58, 0
4, 14400, Note_on_c, 2, 58, 92
4, 14584, Note_on_c, 2, 58, 0
4, 14592, Note_on_c, 2, 58, 92
4, 14592, Note_on_c, 2, 46, 92
4, 14776, Note_on_c, 2, 46, 0
4, 14776, Note_on_c, 2, 58, 0
4, 14784, Note_on_c, 2, 58, 92
4, 14968, Note_on_c, 2, 58, 0
4, 14976, Note_on_c, 2, 58, 92
4, 14976, Note_on_c, 2, 46, 92
4, 15160, Note_on_c, 2, 46, 0
4, 15160, Note_on_c, 2, 58, 0
4, 15168, Note_on_c, 2, 58, 92
4, 15352, Note_on_c, 2, 58, 0
4, 15360, Note_on_c, 2, 58, 92
4, 15360, Note_on_c, 2, 46, 92
4, 15544, Note_on_c, 2, 46, 0
4, 15544, Note_on_c, 2, 58, 0
4, 15552, Note_on_c, 2, 58, 92
4, 15736, Note_on_c, 2, 58, 0
4, 15744, Note_on_c, 2, 58, 92
4, 15744, Note_on_c, 2, 46, 92
4, 15928, Note_on_c, 2, 46, 0
4, 15928, Note_on_c, 2, 58, 0
4, 15936, Note_on_c, 2, 58, 92
4, 16120, Note_on_c, 2, 58, 0
4, 16128, Note_on_c, 2, 58, 92
4, 16128, Note_on_c, 2, 46, 92
4, 16312, Note_on_c, 2, 46, 0
4, 16312, Note_on_c, 2, 58, 0
4, 16320, Note_on_c, 2, 58, 92
4, 16504, Note_on_c, 2, 58, 0
4, 16512, Note_on_c, 2, 58, 92
4, 16512, Note_on_c, 2, 46, 92
4, 16696, Note_on_c, 2, 46, 0
4, 16696, Note_on_c, 2, 58, 0
4, 16704, Note_on_c, 2, 58, 92
4, 16888, Note_on_c, 2, 58, 0
4, 16896, Note_on_c, 2, 60, 63
4, 16896, Note_on_c, 2, 51, 63
4, 17272, Note_on_c, 2, 51, 0
4, 17272, Note_on_c, 2, 60, 0
4, 17280, Note_on_c, 2, 63, 63
4, 17464, Note_on_c, 2, 63, 0
4, 17664, Note_on_c, 2, 60, 63
4, 17664, Note_on_c, 2, 51, 63
4, 18040, Note_on_c, 2, 51, 0
4, 18040, Note_on_c, 2, 60, 0
4, 18048, Note_on_c, 2, 63, 63
4, 18232, Note_on_c, 2, 63, 0
4, 18624, Note_on_c, 2, 53, 63
4, 18808, Note_on_c, 2, 53, 0
4, 18816, Note_on_c, 2, 53, 63
4, 19000, Note_on_c, 2, 53, 0
4, 19008, Note_on_c, 2, 53, 63
4, 19192, Note_on_c, 2, 53, 0
4, 19200, Note_on_c, 2, 53, 63
4, 19384, Note_on_c, 2, 53, 0
4, 19392, Note_on_c, 2, 53, 63
4, 19392, Note_on_c, 2, 65, 63
4, 19576, Note_on_c, 2, 65, 0
4, 19576, Note_on_c, 2, 53, 0
4, 19584, Note_on_c, 2, 64, 63
4, 19584, Note_on_c, 2, 52, 63
4, 19768, Note_on_c, 2, 52, 0
4, 19768, Note_on_c, 2, 64, 0
4, 19776, Note_on_c, 2, 63, 63
4, 19776, Note_on_c, 2, 51, 63
4, 19960, Note_on_c, 2, 51, 0
4, 19960, Note_on_c, 2, 63, 0
4, 19968, Note_on_c, 2, 62, 92
4, 19968, Note_on_c, 2, 50, 92
4, 20152, Note_on_c, 2, 50, 0
4, 20152, Note_on_c, 2, 62, 0
4, 20160, Note_on_c, 2, 65, 92
4, 20160, Note_on_c, 2, 62, 92
4, 20344, Note_on_c, 2, 62, 0
4, 20344, Note_on_c, 2, 65, 0
4, 20352, Note_on_c, 2, 65, 92
4, 20352, Note_on_c, 2, 62, 92
4, 20536, Note_on_c, 2, 62, 0
4, 20536, Note_on_c, 2, 65, 0
4, 20544, Note_on_c, 2, 65, 92
4, 20544, Note_on_c, 2, 62, 92
4, 20728, Note_on_c, 2, 62, 0
4, 20728, Note_on_c, 2, 65, 0
4, 20736, Note_on_c, 2, 63, 92
4, 20736, Note_on_c, 2, 60, 92
4, 20920, Note_on_c, 2, 60, 0
4, 20920, Note_on_c, 2, 63, 0
4, 20928, Note_on_c, 2, 63, 92
4, 20928, Note_on_c, 2, 60, 92
4, 21112, Note_on_c, 2, 60, 0
4, 21112, Note_on_c, 2, 63, 0
4, 21120, Note_on_c, 2, 62, 92
4, 21120, Note_on_c, 2, 58, 92
4, 21304, Note_on_c, 2, 58, 0
4, 21304, Note_on_c, 2, 62, 0
4, 21312, Note_on_c, 2, 62, 92
4, 21312, Note_on_c, 2, 58, 92
4, 21496, Note_on_c, 2, 58, 0
4, 21496, Note_on_c, 2, 62, 0
4, 21504, Note_on_c, 2, 60, 92
4, 21504, Note_on_c, 2, 57, 92
4, 21688, Note_on_c, 2, 57, 0
4, 21688, Note_on_c, 2, 60, 0
4, 21696, Note_on_c, 2, 60, 92
4, 21696, Note_on_c, 2, 57, 92
4, 21880, Note_on_c, 2, 57, 0
4, 21880, Note_on_c, 2, 60, 0
4, 21888, Note_on_c, 2, 58, 92
4, 21888, Note_on_c, 2, 55, 92
4, 22072, Note_on_c, 2, 55, 0
4, 22072, Note_on_c, 2, 58, 0
4, 22080, Note_on_c, 2, 58, 92
4, 22080, Note_on_c, 2, 55, 92
4, 22264, Note_on_c, 2, 55, 0
4, 22264, Note_on_c, 2, 58, 0
4, 22272, Note_on_c, 2, 57, 92
4, 22272, Note_on_c, 2, 53, 92
4, 22456, Note_on_c, 2, 53, 0
4, 22456, Note_on_c, 2, 57, 0
4, 22464, Note_on_c, 2, 57, 92
4, 22464, Note_on_c, 2, 53, 92
4, 22648, Note_on_c, 2, 53, 0
4, 22648, Note_on_c, 2, 57, 0
4, 22656, Note_on_c, 2, 55, 92
4, 22656, Note_on_c, 2, 51, 92
4, 22840, Note_on_c, 2, 51, 0
4, 22840, Note_on_c, 2, 55, 0
4, 22848, Note_on_c, 2, 55, 92
4, 22848, Note_on_c, 2, 51, 92
4, 23032, Note_on_c, 2, 51, 0
4, 23032, Note_on_c, 2, 55, 0
4, 23040, Note_on_c, 2, 53, 92
4, 23040, Note_on_c, 2, 50, 92
4, 23224, Note_on_c, 2, 50, 0
4, 23224, Note_on_c, 2, 53, 0
4, 23232, Note_on_c, 2, 53, 92
4, 23232, Note_on_c, 2, 50, 92
4, 23416, Note_on_c, 2, 50, 0
4, 23416, Note_on_c, 2, 53, 0
4, 23424, Note_on_c, 2, 62, 92
4, 23424, Note_on_c, 2, 55, 92
4, 23608, Note_on_c, 2, 55, 0
4, 23608, Note_on_c, 2, 62, 0
4, 23616, Note_on_c, 2, 62, 92
4, 23616, Note_on_c, 2, 55, 92
4, 23800, Note_on_c, 2, 55, 0
4, 23800, Note_on_c, 2, 62, 0
4, 23808, Note_on_c, 2, 55, 92
4, 23808, Note_on_c, 2, 51, 92
4, 23992, Note_on_c, 2, 51, 0
4, 23992, Note_on_c, 2, 55, 0
4, 24000, Note_on_c, 2, 55, 92
4, 24000, Note_on_c, 2, 51, 92
4, 24184, Note_on_c, 2, 51, 0
4, 24184, Note_on_c, 2, 55, 0
4, 24192, Note_on_c, 2, 65, 92
4, 24192, Note_on_c, 2, 53, 92
4, 24376, Note_on_c, 2, 53, 0
4, 24376, Note_on_c, 2, 65, 0
4, 24384, Note_on_c, 2, 65, 92
4, 24384, Note_on_c, 2, 53, 92
4, 24568, Note_on_c, 2, 53, 0
4, 24568, Note_on_c, 2, 65, 0
4, 24576, Note_on_c, 2, 58, 92
4, 24576, Note_on_c, 2, 62, 92
4, 24760, Note_on_c, 2, 62, 0
4, 24760, Note_on_c, 2, 58, 0
4, 24768, Note_on_c, 2, 53, 92
4, 24952, Note_on_c, 2, 53, 0
4, 24960, Note_on_c, 2, 58, 92
4, 24960, Note_on_c, 2, 62, 92
4, 25144, Note_on_c, 2, 62, 0
4, 25144, Note_on_c, 2, 58, 0
4, 25152, Note_on_c, 2, 53, 92
4, 25336, Note_on_c, 2, 53, 0
4, 25344, Note_on_c, 2, 58, 92
4, 25344, Note_on_c, 2, 62, 92
4, 25528, Note_on_c, 2, 62, 0
4, 25528, Note_on_c, 2, 58, 0
4, 25536, Note_on_c, 2, 53, 92
4, 25720, Note_on_c, 2, 53, 0
4, 25728, Note_on_c, 2, 58, 92
4, 25728, Note_on_c, 2, 62, 92
4, 25912, Note_on_c, 2, 62, 0
4, 25912, Note_on_c, 2, 58, 0
4, 25920, Note_on_c, 2, 53, 92
4, 26104, Note_on_c, 2, 53, 0
4, 26112, Note_on_c, 2, 60, 92
4, 26112, Note_on_c, 2, 57, 92
4, 26296, Note_on_c, 2, 57, 0
4, 26296, Note_on_c, 2, 60, 0
4, 26304, Note_on_c, 2, 53, 92
4, 26488, Note_on_c, 2, 53, 0
4, 26496, Note_on_c, 2, 57, 92
4, 26496, Note_on_c, 2, 60, 92
4, 26680, Note_on_c, 2, 60, 0
4, 26680, Note_on_c, 2, 57, 0
4, 26688, Note_on_c, 2, 53, 92
4, 26872, Note_on_c, 2, 53, 0
4, 26880, Note_on_c, 2, 60, 92
4, 26880, Note_on_c, 2, 65, 92
4, 27064, Note_on_c, 2, 65, 0
4, 27064, Note_on_c, 2, 60, 0
4, 27072, Note_on_c, 2, 53, 92
4, 27256, Note_on_c, 2, 53, 0
4, 27264, Note_on_c, 2, 63, 92
4, 27264, Note_on_c, 2, 65, 92
4, 27448, Note_on_c, 2, 65, 0
4, 27448, Note_on_c, 2, 63, 0
4, 27456, Note_on_c, 2, 53, 92
4, 27640, Note_on_c, 2, 53, 0
4, 27648, Note_on_c, 2, 65, 92
4, 27648, Note_on_c, 2, 62, 92
4, 27832, Note_on_c, 2, 62, 0
4, 27832, Note_on_c, 2, 65, 0
4, 27840, Note_on_c, 2, 53, 92
4, 28024, Note_on_c, 2, 53, 0
4, 28032, Note_on_c, 2, 65, 92
4, 28032, Note_on_c, 2, 62, 92
4, 28216, Note_on_c, 2, 62, 0
4, 28216, Note_on_c, 2, 65, 0
4, 28224, Note_on_c, 2, 53, 92
4, 28408, Note_on_c, 2, 53, 0
4, 28416, Note_on_c, 2, 62, 92
4, 28416, Note_on_c, 2, 58, 92
4, 28600, Note_on_c, 2, 58, 0
4, 28600, Note_on_c, 2, 62, 0
4, 28608, Note_on_c, 2, 53, 92
4, 28792, Note_on_c, 2, 53, 0
4, 28800, Note_on_c, 2, 62, 92
4, 28800, Note_on_c, 2, 58, 92
4, 28984, Note_on_c, 2, 58, 0
4, 28984, Note_on_c, 2, 62, 0
4, 28992, Note_on_c, 2, 53, 92
4, 29176, Note_on_c, 2, 53, 0
4, 29184, Note_on_c, 2, 60, 92
4, 29184, Note_on_c, 2, 57, 92
4, 29368, Note_on_c, 2, 57, 0
4, 29368, Note_on_c, 2, 60, 0
4, 29376, Note_on_c, 2, 53, 92
4, 29560, Note_on_c, 2, 53, 0
4, 29568, Note_on_c, 2, 57, 92
4, 29568, Note_on_c, 2, 60, 92
4, 29752, Note_on_c, 2, 60, 0
4, 29752, Note_on_c, 2, 57, 0
4, 29760, Note_on_c, 2, 53, 92
4, 29944, Note_on_c, 2, 53, 0
4, 29952, Note_on_c, 2, 60, 92
4, 29952, Note_on_c, 2, 65, 92
4, 30136, Note_on_c, 2, 65, 0
4, 30136, Note_on_c, 2, 60, 0
4, 30144, Note_on_c, 2, 53, 92
4, 30328, Note_on_c, 2, 53, 0
4, 30336, Note_on_c, 2, 63, 92
4, 30336, Note_on_c, 2, 65, 92
4, 30520, Note_on_c, 2, 65, 0
4, 30520, Note_on_c, 2, 63, 0
4, 30528, Note_on_c, 2, 53, 92
4, 30712, Note_on_c, 2, 53, 0
4, 30720, Note_on_c, 2, 65, 92
4, 30720, Note_on_c, 2, 62, 92
4, 31096, Note_on_c, 2, 62, 0
4, 31096, Note_on_c, 2, 65, 0
4, 31296, Note_on_c, 2, 65, 92
4, 31296, Note_on_c, 2, 62, 92
4, 31480, Note_on_c, 2, 62, 0
4, 31480, Note_on_c, 2, 65, 0
4, 31488, Note_on_c, 2, 63, 92
4, 31864, Note_on_c, 2, 63, 0
4, 34368, Note_on_c, 2, 55, 92
4, 34552, Note_on_c, 2, 55, 0
4, 34560, Note_on_c, 2, 55, 92
4, 34560, Note_on_c, 2, 51, 92
4, 34936, Note_on_c, 2, 51, 0
4, 34936, Note_on_c, 2, 55, 0
4, 35136, Note_on_c, 2, 55, 92
4, 35136, Note_on_c, 2, 52, 92
4, 35320, Note_on_c, 2, 52, 0
4, 35320, Note_on_c, 2, 55, 0
4, 35328, Note_on_c, 2, 60, 92
4, 35328, Note_on_c, 2, 53, 92
4, 35704, Note_on_c, 2, 53, 0
4, 35704, Note_on_c, 2, 60, 0
4, 35808, Note_on_c, 2, 48, 92
4, 35896, Note_on_c, 2, 48, 0
4, 35904, Note_on_c, 2, 50, 92
4, 35992, Note_on_c, 2, 50, 0
4, 36000, Note_on_c, 2, 52, 92
4, 36088, Note_on_c, 2, 52, 0
4, 36096, Note_on_c, 2, 53, 92
4, 36184, Note_on_c, 2, 53, 0
4, 36192, Note_on_c, 2, 55, 92
4, 36280, Note_on_c, 2, 55, 0
4, 36288, Note_on_c, 2, 57, 92
4, 36376, Note_on_c, 2, 57, 0
4, 36384, Note_on_c, 2, 58, 92
4, 36472, Note_on_c, 2, 58, 0
4, 36480, Note_on_c, 2, 60, 92
4, 36568, Note_on_c, 2, 60, 0
4, 36576, Note_on_c, 2, 57, 92
4, 36664, Note_on_c, 2, 57, 0
4, 36672, Note_on_c, 2, 60, 92
4, 36760, Note_on_c, 2, 60, 0
4, 36768, Note_on_c, 2, 57, 92
4, 36856, Note_on_c, 2, 57, 0
4, 36864, Note_on_c, 2, 53, 92
4, 37048, Note_on_c, 2, 53, 0
4, 37248, Note_on_c, 2, 53, 92
4, 37432, Note_on_c, 2, 53, 0
4, 37632, Note_on_c, 2, 41, 92
4, 37816, Note_on_c, 2, 41, 0
4, 39168, Note_on_c, 2, 65, 63
4, 39928, Note_on_c, 2, 65, 0
4, 39936, Note_on_c, 2, 62, 63
4, 40504, Note_on_c, 2, 62, 0
4, 40512, Note_on_c, 2, 63, 63
4, 40696, Note_on_c, 2, 63, 0
4, 40704, Note_on_c, 2, 67, 63
4, 40888, Note_on_c, 2, 67, 0
4, 40896, Note_on_c, 2, 65, 63
4, 41080, Note_on_c, 2, 65, 0
4, 41088, Note_on_c, 2, 63, 63
4, 41176, Note_on_c, 2, 63, 0
4, 41280, Note_on_c, 2, 62, 63
4, 41368, Note_on_c, 2, 62, 0
4, 41472, Note_on_c, 2, 60, 63
4, 42040, Note_on_c, 2, 60, 0
4, 42048, Note_on_c, 2, 62, 63
4, 42232, Note_on_c, 2, 62, 0
4, 42240, Note_on_c, 2, 65, 63
4, 42424, Note_on_c, 2, 65, 0
4, 42432, Note_on_c, 2, 63, 63
4, 42616, Note_on_c, 2, 63, 0
4, 42624, Note_on_c, 2, 62, 63
4, 42808, Note_on_c, 2, 62, 0
4, 42816, Note_on_c, 2, 60, 63
4, 43000, Note_on_c, 2, 60, 0
4, 43008, Note_on_c, 2, 58, 63
4, 43576, Note_on_c, 2, 58, 0
4, 43584, Note_on_c, 2, 62, 63
4, 43768, Note_on_c, 2, 62, 0
4, 43776, Note_on_c, 2, 60, 63
4, 44152, Note_on_c, 2, 60, 0
4, 44160, Note_on_c, 2, 60, 63
4, 44160, Note_on_c, 2, 58, 63
4, 44536, Note_on_c, 2, 58, 0
4, 44536, Note_on_c, 2, 60, 0
4, 44544, Note_on_c, 2, 60, 63
4, 44544, Note_on_c, 2, 57, 63
4, 44920, Note_on_c, 2, 57, 0
4, 44920, Note_on_c, 2, 60, 0
4, 44928, Note_on_c, 2, 60, 63
4, 44928, Note_on_c, 2, 57, 63
4, 44928, Note_on_c, 2, 53, 63
4, 45304, Note_on_c, 2, 53, 0
4, 45304, Note_on_c, 2, 57, 0
4, 45304, Note_on_c, 2, 60, 0
4, 45696, Note_on_c, 2, 53, 63
4, 45696, Note_on_c, 2, 51, 63
4, 46072, Note_on_c, 2, 51, 0
4, 46072, Note_on_c, 2, 53, 0
4, 46080, Note_on_c, 2, 53, 63
4, 46080, Note_on_c, 2, 50, 63
4, 46264, Note_on_c, 2, 50, 0
4, 46264, Note_on_c, 2, 53, 0
4, 46272, Note_on_c, 2, 62, 63
4, 46456, Note_on_c, 2, 62, 0
4, 46464, Note_on_c, 2, 60, 63
4, 46464, Note_on_c, 2, 51, 63
4, 46648, Note_on_c, 2, 51, 0
4, 46648, Note_on_c, 2, 60, 0
4, 46656, Note_on_c, 2, 55, 63
4, 46840, Note_on_c, 2, 55, 0
4, 46848, Note_on_c, 2, 62, 63
4, 46848, Note_on_c, 2, 53, 63
4, 47032, Note_on_c, 2, 53, 0
4, 47032, Note_on_c, 2, 62, 0
4, 47040, Note_on_c, 2, 65, 63
4, 47224, Note_on_c, 2, 65, 0
4, 47232, Note_on_c, 2, 63, 63
4, 47232, Note_on_c, 2, 53, 63
4, 47416, Note_on_c, 2, 53, 0
4, 47416, Note_on_c, 2, 63, 0
4, 47424, Note_on_c, 2, 60, 63
4, 47608, Note_on_c, 2, 60, 0
4, 47616, Note_on_c, 2, 62, 92
4, 47616, Note_on_c, 2, 58, 92
4, 48376, Note_on_c, 2, 58, 0
4, 48376, Note_on_c, 2, 62, 0
4, 48384, Note_on_c, 2, 46, 92
4, 48384, Note_on_c, 2, 43, 92
4, 48952, Note_on_c, 2, 43, 0
4, 48952, Note_on_c, 2, 46, 0
4, 49056, Note_on_c, 2, 45, 92
4, 49056, Note_on_c, 2, 48, 92
4, 49144, Note_on_c, 2, 48, 0
4, 49144, Note_on_c, 2, 45, 0
4, 49152, Note_on_c, 2, 50, 92
4, 49240, Note_on_c, 2, 50, 0
4, 49248, Note_on_c, 2, 46, 92
4, 49336, Note_on_c, 2, 46, 0
4, 49344, Note_on_c, 2, 48, 92
4, 49432, Note_on_c, 2, 48, 0
4, 49440, Note_on_c, 2, 50, 92
4, 49528, Note_on_c, 2, 50, 0
4, 49536, Note_on_c, 2, 51, 92
4, 49624, Note_on_c, 2, 51, 0
4, 49632, Note_on_c, 2, 53, 92
4, 49720, Note_on_c, 2, 53, 0
4, 49728, Note_on_c, 2, 55, 92
4, 49816, Note_on_c, 2, 55, 0
4, 49824, Note_on_c, 2, 57, 92
4, 49912, Note_on_c, 2, 57, 0
4, 49920, Note_on_c, 2, 58, 92
4, 50008, Note_on_c, 2, 58, 0
4, 50016, Note_on_c, 2, 62, 97
4, 50104, Note_on_c, 2, 62, 0
4, 50112, Note_on_c, 2, 60, 92
4, 50200, Note_on_c, 2, 60, 0
4, 50208, Note_on_c, 2, 58, 92
4, 50296, Note_on_c, 2, 58, 0
4, 50304, Note_on_c, 2, 57, 92
4, 50392, Note_on_c, 2, 57, 0
4, 50400, Note_on_c, 2, 55, 92
4, 50488, Note_on_c, 2, 55, 0
4, 50496, Note_on_c, 2, 53, 92
4, 50584, Note_on_c, 2, 53, 0
4, 50592, Note_on_c, 2, 51, 92
4, 50680, Note_on_c, 2, 51, 0
4, 50688, Note_on_c, 2, 50, 92
4, 50688, Note_on_c, 2, 46, 92
4, 51448, Note_on_c, 2, 46, 0
4, 51448, Note_on_c, 2, 50, 0
4, 51456, Note_on_c, 2, 43, 92
4, 51456, Note_on_c, 2, 46, 92
4, 52024, Note_on_c, 2, 46, 0
4, 52024, Note_on_c, 2, 43, 0
4, 52128, Note_on_c, 2, 48, 92
4, 52128, Note_on_c, 2, 45, 92
4, 52216, Note_on_c, 2, 45, 0
4, 52216, Note_on_c, 2, 48, 0
4, 52224, Note_on_c, 2, 50, 92
4, 52312, Note_on_c, 2, 50, 0
4, 52320, Note_on_c, 2, 46, 92
4, 52408, Note_on_c, 2, 46, 0
4, 52416, Note_on_c, 2, 48, 92
4, 52504, Note_on_c, 2, 48, 0
4, 52512, Note_on_c, 2, 50, 92
4, 52600, Note_on_c, 2, 50, 0
4, 52608, Note_on_c, 2, 51, 92
4, 52696, Note_on_c, 2, 51, 0
4, 52704, Note_on_c, 2, 53, 92
4, 52792, Note_on_c, 2, 53, 0
4, 52800, Note_on_c, 2, 55, 92
4, 52888, Note_on_c, 2, 55, 0
4, 52896, Note_on_c, 2, 57, 92
4, 52984, Note_on_c, 2, 57, 0
4, 52992, Note_on_c, 2, 58, 92
4, 53080, Note_on_c, 2, 58, 0
4, 53088, Note_on_c, 2, 62, 97
4, 53176, Note_on_c, 2, 62, 0
4, 53184, Note_on_c, 2, 60, 92
4, 53272, Note_on_c, 2, 60, 0
4, 53280, Note_on_c, 2, 58, 92
4, 53368, Note_on_c, 2, 58, 0
4, 53376, Note_on_c, 2, 57, 92
4, 53464, Note_on_c, 2, 57, 0
4, 53472, Note_on_c, 2, 55, 92
4, 53560, Note_on_c, 2, 55, 0
4, 53568, Note_on_c, 2, 53, 92
4, 53656, Note_on_c, 2, 53, 0
4, 53664, Note_on_c, 2, 51, 92
4, 53752, Note_on_c, 2, 51, 0
4, 53760, Note_on_c, 2, 50, 92
4, 53848, Note_on_c, 2, 50, 0
4, 53856, Note_on_c, 2, 46, 92
4, 53944, Note_on_c, 2, 46, 0
4, 53952, Note_on_c, 2, 48, 92
4, 54040, Note_on_c, 2, 48, 0
4, 54048, Note_on_c, 2, 50, 92
4, 54136, Note_on_c, 2, 50, 0
4, 54144, Note_on_c, 2, 51, 92
4, 54232, Note_on_c, 2, 51, 0
4, 54240, Note_on_c, 2, 53, 92
4, 54328, Note_on_c, 2, 53, 0
4, 54336, Note_on_c, 2, 55, 92
4, 54424, Note_on_c, 2, 55, 0
4, 54432, Note_on_c, 2, 57, 92
4, 54520, Note_on_c, 2, 57, 0
4, 54528, Note_on_c, 2, 58, 92
4, 54616, Note_on_c, 2, 58, 0
4, 54624, Note_on_c, 2, 57, 92
4, 54712, Note_on_c, 2, 57, 0
4, 54720, Note_on_c, 2, 58, 92
4, 54808, Note_on_c, 2, 58, 0
4, 54816, Note_on_c, 2, 60, 92
4, 54904, Note_on_c, 2, 60, 0
4, 54912, Note_on_c, 2, 56, 92
4, 55000, Note_on_c, 2, 56, 0
4, 55008, Note_on_c, 2, 55, 92
4, 55096, Note_on_c, 2, 55, 0
4, 55104, Note_on_c, 2, 56, 92
4, 55192, Note_on_c, 2, 56, 0
4, 55200, Note_on_c, 2, 58, 92
4, 55288, Note_on_c, 2, 58, 0
4, 55296, Note_on_c, 2, 55, 92
4, 55296, Note_on_c, 2, 43, 92
4, 55480, Note_on_c, 2, 43, 0
4, 55480, Note_on_c, 2, 55, 0
4, 55680, Note_on_c, 2, 50, 92
4, 55680, Note_on_c, 2, 38, 92
4, 55864, Note_on_c, 2, 38, 0
4, 55864, Note_on_c, 2, 50, 0
4, 56064, Note_on_c, 2, 51, 92
4, 56064, Note_on_c, 2, 39, 92
4, 56248, Note_on_c, 2, 39, 0
4, 56248, Note_on_c, 2, 51, 0
4, 58752, Note_on_c, 2, 51, 63
4, 59128, Note_on_c, 2, 51, 0
4, 59136, Note_on_c, 2, 53, 63
4, 59512, Note_on_c, 2, 53, 0
4, 59520, Note_on_c, 2, 53, 63
4, 59704, Note_on_c, 2, 53, 0
4, 59904, Note_on_c, 2, 58, 63
4, 59992, Note_on_c, 2, 58, 0
4, 60000, Note_on_c, 2, 65, 63
4, 60088, Note_on_c, 2, 65, 0
4, 60096, Note_on_c, 2, 62, 63
4, 60184, Note_on_c, 2, 62, 0
4, 60192, Note_on_c, 2, 65, 63
4, 60280, Note_on_c, 2, 65, 0
4, 60288, Note_on_c, 2, 60, 63
4, 60376, Note_on_c, 2, 60, 0
4, 60384, Note_on_c, 2, 65, 63
4, 60472, Note_on_c, 2, 65, 0
4, 60480, Note_on_c, 2, 63, 63
4, 60568, Note_on_c, 2, 63, 0
4, 60576, Note_on_c, 2, 65, 63
4, 60664, Note_on_c, 2, 65, 0
4, 60672, Note_on_c, 2, 58, 63
4, 60760, Note_on_c, 2, 58, 0
4, 60768, Note_on_c, 2, 65, 63
4, 60856, Note_on_c, 2, 65, 0
4, 60864, Note_on_c, 2, 62, 63
4, 60952, Note_on_c, 2, 62, 0
4, 60960, Note_on_c, 2, 65, 63
4, 61048, Note_on_c, 2, 65, 0
4, 61056, Note_on_c, 2, 53, 63
4, 61144, Note_on_c, 2, 53, 0
4, 61152, Note_on_c, 2, 65, 63
4, 61240, Note_on_c, 2, 65, 0
4, 61248, Note_on_c, 2, 60, 63
4, 61336, Note_on_c, 2, 60, 0
4, 61344, Note_on_c, 2, 65, 63
4, 61432, Note_on_c, 2, 65, 0
4, 61440, Note_on_c, 2, 58, 63
4, 61528, Note_on_c, 2, 58, 0
4, 61536, Note_on_c, 2, 65, 63
4, 61624, Note_on_c, 2, 65, 0
4, 61632, Note_on_c, 2, 62, 63
4, 61720, Note_on_c, 2, 62, 0
4, 61728, Note_on_c, 2, 65, 63
4, 61816, Note_on_c, 2, 65, 0
4, 61824, Note_on_c, 2, 60, 63
4, 61912, Note_on_c, 2, 60, 0
4, 61920, Note_on_c, 2, 65, 63
4, 62008, Note_on_c, 2, 65, 0
4, 62016, Note_on_c, 2, 63, 63
4, 62104, Note_on_c, 2, 63, 0
4, 62112, Note_on_c, 2, 65, 63
4, 62200, Note_on_c, 2, 65, 0
4, 62208, Note_on_c, 2, 58, 63
4, 62296, Note_on_c, 2, 58, 0
4, 62304, Note_on_c, 2, 65, 63
4, 62392, Note_on_c, 2, 65, 0
4, 62400, Note_on_c, 2, 62, 63
4, 62488, Note_on_c, 2, 62, 0
4, 62496, Note_on_c, 2, 65, 63
4, 62584, Note_on_c, 2, 65, 0
4, 62592, Note_on_c, 2, 53, 63
4, 62680, Note_on_c, 2, 53, 0
4, 62688, Note_on_c, 2, 65, 63
4, 62776, Note_on_c, 2, 65, 0
4, 62784, Note_on_c, 2, 60, 63
4, 62872, Note_on_c, 2, 60, 0
4, 62880, Note_on_c, 2, 65, 63
4, 62968, Note_on_c, 2, 65, 0
4, 62976, Note_on_c, 2, 58, 63
4, 63064, Note_on_c, 2, 58, 0
4, 63072, Note_on_c, 2, 65, 63
4, 63160, Note_on_c, 2, 65, 0
4, 63168, Note_on_c, 2, 62, 63
4, 63256, Note_on_c, 2, 62, 0
4, 63264, Note_on_c, 2, 65, 63
4, 63352, Note_on_c, 2, 65, 0
4, 63360, Note_on_c, 2, 60, 63
4, 63448, Note_on_c, 2, 60, 0
4, 63456, Note_on_c, 2, 65, 63
4, 63544, Note_on_c, 2, 65, 0
4, 63552, Note_on_c, 2, 63, 63
4, 63640, Note_on_c, 2, 63, 0
4, 63648, Note_on_c, 2, 65, 63
4, 63736, Note_on_c, 2, 65, 0
4, 63744, Note_on_c, 2, 58, 63
4, 63832, Note_on_c, 2, 58, 0
4, 63840, Note_on_c, 2, 65, 63
4, 63928, Note_on_c, 2, 65, 0
4, 63936, Note_on_c, 2, 62, 63
4, 64024, Note_on_c, 2, 62, 0
4, 64032, Note_on_c, 2, 65, 63
4, 64120, Note_on_c, 2, 65, 0
4, 64128, Note_on_c, 2, 53, 63
4, 64216, Note_on_c, 2, 53, 0
4, 64224, Note_on_c, 2, 65, 63
4, 64312, Note_on_c, 2, 65, 0
4, 64320, Note_on_c, 2, 60, 63
4, 64408, Note_on_c, 2, 60, 0
4, 64416, Note_on_c, 2, 65, 63
4, 64504, Note_on_c, 2, 65, 0
4, 64512, Note_on_c, 2, 58, 63
4, 64600, Note_on_c, 2, 58, 0
4, 64608, Note_on_c, 2, 65, 63
4, 64696, Note_on_c, 2, 65, 0
4, 64704, Note_on_c, 2, 62, 63
4, 64792, Note_on_c, 2, 62, 0
4, 64800, Note_on_c, 2, 65, 63
4, 64888, Note_on_c, 2, 65, 0
4, 64896, Note_on_c, 2, 53, 63
4, 64984, Note_on_c, 2, 53, 0
4, 64992, Note_on_c, 2, 65, 63
4, 65080, Note_on_c, 2, 65, 0
4, 65088, Note_on_c, 2, 60, 63
4, 65176, Note_on_c, 2, 60, 0
4, 65184, Note_on_c, 2, 65, 63
4, 65272, Note_on_c, 2, 65, 0
4, 65280, Note_on_c, 2, 58, 63
4, 65368, Note_on_c, 2, 58, 0
4, 65376, Note_on_c, 2, 65, 63
4, 65464, Note_on_c, 2, 65, 0
4, 65472, Note_on_c, 2, 62, 63
4, 65560, Note_on_c, 2, 62, 0
4, 65568, Note_on_c, 2, 65, 63
4, 65656, Note_on_c, 2, 65, 0
4, 65664, Note_on_c, 2, 53, 63
4, 65752, Note_on_c, 2, 53, 0
4, 65760, Note_on_c, 2, 65, 63
4, 65848, Note_on_c, 2, 65, 0
4, 65856, Note_on_c, 2, 60, 63
4, 65944, Note_on_c, 2, 60, 0
4, 65952, Note_on_c, 2, 65, 63
4, 66040, Note_on_c, 2, 65, 0
4, 66048, Note_on_c, 2, 58, 92
4, 66048, Note_on_c, 2, 46, 92
4, 66232, Note_on_c, 2, 46, 0
4, 66232, Note_on_c, 2, 58, 0
4, 66240, Note_on_c, 2, 53, 92
4, 66240, Note_on_c, 2, 41, 92
4, 66424, Note_on_c, 2, 41, 0
4, 66424, Note_on_c, 2, 53, 0
4, 66432, Note_on_c, 2, 57, 92
4, 66432, Note_on_c, 2, 45, 92
4, 66616, Note_on_c, 2, 45, 0
4, 66616, Note_on_c, 2, 57, 0
4, 66624, Note_on_c, 2, 53, 92
4, 66624, Note_on_c, 2, 41, 92
4, 66808, Note_on_c, 2, 41, 0
4, 66808, Note_on_c, 2, 53, 0
4, 66816, Note_on_c, 2, 58, 92
4, 66816, Note_on_c, 2, 46, 92
4, 67000, Note_on_c, 2, 46, 0
4, 67000, Note_on_c, 2, 58, 0
4, 67008, Note_on_c, 2, 53, 92
4, 67008, Note_on_c, 2, 41, 92
4, 67192, Note_on_c, 2, 41, 0
4, 67192, Note_on_c, 2, 53, 0
4, 67200, Note_on_c, 2, 60, 92
4, 67200, Note_on_c, 2, 48, 92
4, 67384, Note_on_c, 2, 48, 0
4, 67384, Note_on_c, 2, 60, 0
4, 67392, Note_on_c, 2, 41, 92
4, 67392, Note_on_c, 2, 53, 92
4, 67576, Note_on_c, 2, 53, 0
4, 67576, Note_on_c, 2, 41, 0
4, 67584, Note_on_c, 2, 50, 92
4, 67584, Note_on_c, 2, 62, 92
4, 67768, Note_on_c, 2, 62, 0
4, 67768, Note_on_c, 2, 50, 0
4, 67776, Note_on_c, 2, 50, 92
4, 67776, Note_on_c, 2, 62, 92
4, 67960, Note_on_c, 2, 62, 0
4, 67960, Note_on_c, 2, 50, 0
4, 67968, Note_on_c, 2, 62, 92
4, 67968, Note_on_c, 2, 50, 92
4, 68152, Note_on_c, 2, 50, 0
4, 68152, Note_on_c, 2, 62, 0
4, 68160, Note_on_c, 2, 62, 92
4, 68160, Note_on_c, 2, 50, 92
4, 68344, Note_on_c, 2, 50, 0
4, 68344, Note_on_c, 2, 62, 0
4, 68352, Note_on_c, 2, 62, 92
4, 68352, Note_on_c, 2, 50, 92
4, 68536, Note_on_c, 2, 50, 0
4, 68536, Note_on_c, 2, 62, 0
4, 68544, Note_on_c, 2, 62, 92
4, 68544, Note_on_c, 2, 50, 92
4, 68728, Note_on_c, 2, 50, 0
4, 68728, Note_on_c, 2, 62, 0
4, 68736, Note_on_c, 2, 62, 92
4, 68736, Note_on_c, 2, 50, 92
4, 68920, Note_on_c, 2, 50, 0
4, 68920, Note_on_c, 2, 62, 0
4, 68928, Note_on_c, 2, 62, 92
4, 68928, Note_on_c, 2, 50, 92
4, 69112, Note_on_c, 2, 50, 0
4, 69112, Note_on_c, 2, 62, 0
4, 69120, Note_on_c, 2, 65, 92
4, 69120, Note_on_c, 2, 53, 92
4, 69304, Note_on_c, 2, 53, 0
4, 69304, Note_on_c, 2, 65, 0
4, 69312, Note_on_c, 2, 65, 92
4, 69312, Note_on_c, 2, 53, 92
4, 69496, Note_on_c, 2, 53, 0
4, 69496, Note_on_c, 2, 65, 0
4, 69504, Note_on_c, 2, 65, 92
4, 69504, Note_on_c, 2, 53, 92
4, 69688, Note_on_c, 2, 53, 0
4, 69688, Note_on_c, 2, 65, 0
4, 69696, Note_on_c, 2, 65, 92
4, 69696, Note_on_c, 2, 53, 92
4, 69880, Note_on_c, 2, 53, 0
4, 69880, Note_on_c, 2, 65, 0
4, 69888, Note_on_c, 2, 62, 92
4, 69888, Note_on_c, 2, 50, 92
4, 70072, Note_on_c, 2, 50, 0
4, 70072, Note_on_c, 2, 62, 0
4, 70080, Note_on_c, 2, 62, 92
4, 70080, Note_on_c, 2, 50, 92
4, 70264, Note_on_c, 2, 50, 0
4, 70264, Note_on_c, 2, 62, 0
4, 70272, Note_on_c, 2, 62, 92
4, 70272, Note_on_c, 2, 50, 92
4, 70456, Note_on_c, 2, 50, 0
4, 70456, Note_on_c, 2, 62, 0
4, 70464, Note_on_c, 2, 62, 92
4, 70464, Note_on_c, 2, 50, 92
4, 70648, Note_on_c, 2, 50, 0
4, 70648, Note_on_c, 2, 62, 0
4, 70656, Note_on_c, 2, 63, 92
4, 70656, Note_on_c, 2, 51, 92
4, 70840, Note_on_c, 2, 51, 0
4, 70840, Note_on_c, 2, 63, 0
4, 70848, Note_on_c, 2, 63, 92
4, 70848, Note_on_c, 2, 51, 92
4, 71032, Note_on_c, 2, 51, 0
4, 71032, Note_on_c, 2, 63, 0
4, 71040, Note_on_c, 2, 63, 92
4, 71040, Note_on_c, 2, 51, 92
4, 71224, Note_on_c, 2, 51, 0
4, 71224, Note_on_c, 2, 63, 0
4, 71232, Note_on_c, 2, 63, 92
4, 71232, Note_on_c, 2, 51, 92
4, 71416, Note_on_c, 2, 51, 0
4, 71416, Note_on_c, 2, 63, 0
4, 71424, Note_on_c, 2, 55, 92
4, 71424, Note_on_c, 2, 43, 92
4, 71608, Note_on_c, 2, 43, 0
4, 71608, Note_on_c, 2, 55, 0
4, 71616, Note_on_c, 2, 55, 92
4, 71616, Note_on_c, 2, 43, 92
4, 71800, Note_on_c, 2, 43, 0
4, 71800, Note_on_c, 2, 55, 0
4, 71808, Note_on_c, 2, 55, 92
4, 71808, Note_on_c, 2, 43, 92
4, 71992, Note_on_c, 2, 43, 0
4, 71992, Note_on_c, 2, 55, 0
4, 72000, Note_on_c, 2, 55, 92
4, 72000, Note_on_c, 2, 43, 92
4, 72184, Note_on_c, 2, 43, 0
4, 72184, Note_on_c, 2, 55, 0
4, 72192, Note_on_c, 2, 53, 92
4, 72192, Note_on_c, 2, 41, 92
4, 72376, Note_on_c, 2, 41, 0
4, 72376, Note_on_c, 2, 53, 0
4, 72384, Note_on_c, 2, 64, 92
4, 72384, Note_on_c, 2, 52, 92
4, 72568, Note_on_c, 2, 52, 0
4, 72568, Note_on_c, 2, 64, 0
4, 72576, Note_on_c, 2, 63, 92
4, 72576, Note_on_c, 2, 51, 92
4, 72760, Note_on_c, 2, 51, 0
4, 72760, Note_on_c, 2, 63, 0
4, 72768, Note_on_c, 2, 62, 92
4, 72768, Note_on_c, 2, 50, 92
4, 72952, Note_on_c, 2, 50, 0
4, 72952, Note_on_c, 2, 62, 0
4, 72960, Note_on_c, 2, 60, 92
4, 72960, Note_on_c, 2, 48, 92
4, 73144, Note_on_c, 2, 48, 0
4, 73144, Note_on_c, 2, 60, 0
4, 73152, Note_on_c, 2, 63, 92
4, 73152, Note_on_c, 2, 51, 92
4, 73336, Note_on_c, 2, 51, 0
4, 73336, Note_on_c, 2, 63, 0
4, 73344, Note_on_c, 2, 62, 92
4, 73344, Note_on_c, 2, 50, 92
4, 73528, Note_on_c, 2, 50, 0
4, 73528, Note_on_c, 2, 62, 0
4, 73536, Note_on_c, 2, 58, 92
4, 73536, Note_on_c, 2, 46, 92
4, 73720, Note_on_c, 2, 46, 0
4, 73720, Note_on_c, 2, 58, 0
4, 73728, Note_on_c, 2, 53, 92
4, 73728, Note_on_c, 2, 41, 92
4, 73912, Note_on_c, 2, 41, 0
4, 73912, Note_on_c, 2, 53, 0
4, 73920, Note_on_c, 2, 53, 92
4, 73920, Note_on_c, 2, 41, 92
4, 74104, Note_on_c, 2, 41, 0
4, 74104, Note_on_c, 2, 53, 0
4, 74112, Note_on_c, 2, 53, 92
4, 74112, Note_on_c, 2, 41, 92
4, 74296, Note_on_c, 2, 41, 0
4, 74296, Note_on_c, 2, 53, 0
4, 74304, Note_on_c, 2, 53, 92
4, 74304, Note_on_c, 2, 41, 92
4, 74488, Note_on_c, 2, 41, 0
4, 74488, Note_on_c, 2, 53, 0
4, 74496, Note_on_c, 2, 53, 92
4, 74496, Note_on_c, 2, 41, 92
4, 74680, Note_on_c, 2, 41, 0
4, 74680, Note_on_c, 2, 53, 0
4, 74688, Note_on_c, 2, 53, 92
4, 74688, Note_on_c, 2, 41, 92
4, 74872, Note_on_c, 2, 41, 0
4, 74872, Note_on_c, 2, 53, 0
4, 74880, Note_on_c, 2, 53, 92
4, 74880, Note_on_c, 2, 41, 92
4, 75064, Note_on_c, 2, 41, 0
4, 75064, Note_on_c, 2, 53, 0
4, 75072, Note_on_c, 2, 53, 92
4, 75072, Note_on_c, 2, 41, 92
4, 75256, Note_on_c, 2, 41, 0
4, 75256, Note_on_c, 2, 53, 0
4, 75264, Note_on_c, 2, 46, 92
4, 75264, Note_on_c, 2, 34, 92
4, 75640, Note_on_c, 2, 34, 0
4, 75640, Note_on_c, 2, 46, 0
4, 77568, Note_on_c, 2, 55, 63
4, 77568, Note_on_c, 2, 51, 63
4, 77656, Note_on_c, 2, 51, 0
4, 77656, Note_on_c, 2, 55, 0
4, 77952, Note_on_c, 2, 56, 63
4, 77952, Note_on_c, 2, 53, 63
4, 78040, Note_on_c, 2, 53, 0
4, 78040, Note_on_c, 2, 56, 0
4, 78336, Note_on_c, 2, 58, 63
4, 78336, Note_on_c, 2, 55, 63
4, 78712, Note_on_c, 2, 55, 0
4, 78712, Note_on_c, 2, 58, 0
4, 80640, Note_on_c, 2, 60, 63
4, 80640, Note_on_c, 2, 63, 63
4, 80728, Note_on_c, 2, 63, 0
4, 80728, Note_on_c, 2, 60, 0
4, 81024, Note_on_c, 2, 63, 63
4, 81024, Note_on_c, 2, 53, 63
4, 81112, Note_on_c, 2, 53, 0
4, 81112, Note_on_c, 2, 63, 0
4, 81408, Note_on_c, 2, 62, 63
4, 81408, Note_on_c, 2, 58, 63
4, 81784, Note_on_c, 2, 58, 0
4, 81784, Note_on_c, 2, 62, 0
4, 82176, Note_on_c, 2, 60, 63
4, 82176, Note_on_c, 2, 63, 63
4, 82176, Note_on_c, 2, 51, 63
4, 82264, Note_on_c, 2, 51, 0
4, 82264, Note_on_c, 2, 63, 0
4, 82264, Note_on_c, 2, 60, 0
4, 82560, Note_on_c, 2, 63, 63
4, 82560, Note_on_c, 2, 60, 63
4, 82560, Note_on_c, 2, 53, 63
4, 82648, Note_on_c, 2, 53, 0
4, 82648, Note_on_c, 2, 60, 0
4, 82648, Note_on_c, 2, 63, 0
4, 82944, Note_on_c, 2, 62, 63
4, 82944, Note_on_c, 2, 58, 63
4, 83320, Note_on_c, 2, 58, 0
4, 83320, Note_on_c, 2, 62, 0
4, 83712, Note_on_c, 2, 60, 63
4, 83712, Note_on_c, 2, 63, 63
4, 83712, Note_on_c, 2, 51, 63
4, 83800, Note_on_c, 2, 51, 0
4, 83800, Note_on_c, 2, 63, 0
4, 83800, Note_on_c, 2, 60, 0
4, 84096, Note_on_c, 2, 63, 63
4, 84096, Note_on_c, 2, 60, 63
4, 84096, Note_on_c, 2, 53, 63
4, 84184, Note_on_c, 2, 53, 0
4, 84184, Note_on_c, 2, 60, 0
4, 84184, Note_on_c, 2, 63, 0
4, 84480, Note_on_c, 2, 58, 92
4, 84480, Note_on_c, 2, 62, 92
4, 84664, Note_on_c, 2, 62, 0
4, 84664, Note_on_c, 2, 58, 0
4, 84672, Note_on_c, 2, 58, 92
4, 84672, Note_on_c, 2, 46, 92
4, 84856, Note_on_c, 2, 46, 0
4, 84856, Note_on_c, 2, 58, 0
4, 84864, Note_on_c, 2, 62, 92
4, 84864, Note_on_c, 2, 50, 92
4, 85048, Note_on_c, 2, 50, 0
4, 85048, Note_on_c, 2, 62, 0
4, 85056, Note_on_c, 2, 58, 92
4, 85056, Note_on_c, 2, 46, 92
4, 85240, Note_on_c, 2, 46, 0
4, 85240, Note_on_c, 2, 58, 0
4, 85248, Note_on_c, 2, 53, 92
4, 85248, Note_on_c, 2, 41, 92
4, 85432, Note_on_c, 2, 41, 0
4, 85432, Note_on_c, 2, 53, 0
4, 85440, Note_on_c, 2, 58, 92
4, 85440, Note_on_c, 2, 46, 92
4, 85624, Note_on_c, 2, 46, 0
4, 85624, Note_on_c, 2, 58, 0
4, 85632, Note_on_c, 2, 50, 92
4, 85632, Note_on_c, 2, 38, 92
4, 85816, Note_on_c, 2, 38, 0
4, 85816, Note_on_c, 2, 50, 0
4, 85824, Note_on_c, 2, 53, 92
4, 85824, Note_on_c, 2, 41, 92
4, 86008, Note_on_c, 2, 41, 0
4, 86008, Note_on_c, 2, 53, 0
4, 86016, Note_on_c, 2, 46, 92
4, 86016, Note_on_c, 2, 34, 92
4, 86392, Note_on_c, 2, 34, 0
4, 86392, Note_on_c, 2, 46, 0
4, 86400, Note_on_c, 2, 58, 92
4, 86400, Note_on_c, 2, 46, 92
4, 86776, Note_on_c, 2, 46, 0
4, 86776, Note_on_c, 2, 58, 0
4, 86784, Note_on_c, 2, 46, 92
4, 86784, Note_on_c, 2, 34, 92
4, 87160, Note_on_c, 2, 34, 0
4, 87160, Note_on_c, 2, 46, 0
4, 87552, Note_on_c, 2, 58, 63
4, 87736, Note_on_c, 2, 58, 0
4, 87744, Note_on_c, 2, 58, 63
4, 87928, Note_on_c, 2, 58, 0
4, 87936, Note_on_c, 2, 58, 63
4, 88120, Note_on_c, 2, 58, 0
4, 88128, Note_on_c, 2, 58, 63
4, 88312, Note_on_c, 2, 58, 0
4, 88320, Note_on_c, 2, 58, 63
4, 88504, Note_on_c, 2, 58, 0
4, 88512, Note_on_c, 2, 58, 63
4, 88696, Note_on_c, 2, 58, 0
4, 88704, Note_on_c, 2, 58, 63
4, 88888, Note_on_c, 2, 58, 0
4, 88896, Note_on_c, 2, 58, 63
4, 89080, Note_on_c, 2, 58, 0
4, 89088, Note_on_c, 2, 58, 63
4, 89464, Note_on_c, 2, 58, 0
4, 90048, Note_on_c, 2, 58, 63
4, 90232, Note_on_c, 2, 58, 0
4, 90240, Note_on_c, 2, 62, 63
4, 90424, Note_on_c, 2, 62, 0
4, 90432, Note_on_c, 2, 58, 63
4, 90616, Note_on_c, 2, 58, 0
4, 90624, Note_on_c, 2, 60, 63
4, 90624, Note_on_c, 2, 51, 63
4, 91000, Note_on_c, 2, 51, 0
4, 91000, Note_on_c, 2, 60, 0
4, 91392, Note_on_c, 2, 60, 63
4, 91392, Note_on_c, 2, 51, 63
4, 91768, Note_on_c, 2, 51, 0
4, 91768, Note_on_c, 2, 60, 0
4, 92352, Note_on_c, 2, 53, 63
4, 92536, Note_on_c, 2, 53, 0
4, 92544, Note_on_c, 2, 53, 63
4, 92728, Note_on_c, 2, 53, 0
4, 92736, Note_on_c, 2, 53, 63
4, 92920, Note_on_c, 2, 53, 0
4, 92928, Note_on_c, 2, 53, 63
4, 93112, Note_on_c, 2, 53, 0
4, 93120, Note_on_c, 2, 65, 63
4, 93304, Note_on_c, 2, 65, 0
4, 93312, Note_on_c, 2, 64, 63
4, 93496, Note_on_c, 2, 64, 0
4, 93504, Note_on_c, 2, 63, 63
4, 93688, Note_on_c, 2, 63, 0
4, 93696, Note_on_c, 2, 62, 63
4, 93880, Note_on_c, 2, 62, 0
4, 93888, Note_on_c, 2, 62, 63
4, 94072, Note_on_c, 2, 62, 0
4, 94080, Note_on_c, 2, 62, 63
4, 94264, Note_on_c, 2, 62, 0
4, 94272, Note_on_c, 2, 62, 63
4, 94456, Note_on_c, 2, 62, 0
4, 94464, Note_on_c, 2, 60, 63
4, 94648, Note_on_c, 2, 60, 0
4, 94656, Note_on_c, 2, 60, 63
4, 94840, Note_on_c, 2, 60, 0
4, 94848, Note_on_c, 2, 58, 63
4, 95032, Note_on_c, 2, 58, 0
4, 95040, Note_on_c, 2, 58, 63
4, 95224, Note_on_c, 2, 58, 0
4, 95232, Note_on_c, 2, 57, 63
4, 95608, Note_on_c, 2, 57, 0
4, 95616, Note_on_c, 2, 65, 63
4, 95992, Note_on_c, 2, 65, 0
4, 96000, Note_on_c, 2, 66, 63
4, 96376, Note_on_c, 2, 66, 0
4, 96384, Note_on_c, 2, 67, 63
4, 96760, Note_on_c, 2, 67, 0
4, 96768, Note_on_c, 2, 63, 63
4, 97144, Note_on_c, 2, 63, 0
4, 97344, Note_on_c, 2, 51, 63
4, 97528, Note_on_c, 2, 51, 0
4, 97536, Note_on_c, 2, 53, 63
4, 97912, Note_on_c, 2, 53, 0
4, 97920, Note_on_c, 2, 57, 63
4, 97920, Note_on_c, 2, 53, 63
4, 98296, Note_on_c, 2, 53, 0
4, 98296, Note_on_c, 2, 57, 0
4, 98304, Note_on_c, 2, 58, 63
4, 98392, Note_on_c, 2, 58, 0
4, 98496, Note_on_c, 2, 62, 63
4, 98496, Note_on_c, 2, 65, 63
4, 98872, Note_on_c, 2, 65, 0
4, 98872, Note_on_c, 2, 62, 0
4, 98880, Note_on_c, 2, 60, 63
4, 98880, Note_on_c, 2, 63, 63
4, 99064, Note_on_c, 2, 63, 0
4, 99064, Note_on_c, 2, 60, 0
4, 99072, Note_on_c, 2, 58, 63
4, 99072, Note_on_c, 2, 62, 63
4, 99160, Note_on_c, 2, 62, 0
4, 99160, Note_on_c, 2, 58, 0
4, 99264, Note_on_c, 2, 53, 63
4, 99264, Note_on_c, 2, 62, 63
4, 99640, Note_on_c, 2, 62, 0
4, 99640, Note_on_c, 2, 53, 0
4, 99648, Note_on_c, 2, 60, 63
4, 99648, Note_on_c, 2, 51, 63
4, 99832, Note_on_c, 2, 51, 0
4, 99832, Note_on_c, 2, 60, 0
4, 99840, Note_on_c, 2, 50, 63
4, 99840, Note_on_c, 2, 46, 63
4, 100024, Note_on_c, 2, 46, 0
4, 100024, Note_on_c, 2, 50, 0
4, 100224, Note_on_c, 2, 58, 63
4, 100408, Note_on_c, 2, 58, 0
4, 100608, Note_on_c, 2, 46, 63
4, 100792, Note_on_c, 2, 46, 0
4, 100992, Note_on_c, 2, 58, 63
4, 101176, Note_on_c, 2, 58, 0
4, 101376, Note_on_c, 2, 46, 63
4, 101560, Note_on_c, 2, 46, 0
4, 101760, Note_on_c, 2, 58, 63
4, 101944, Note_on_c, 2, 58, 0
4, 102144, Note_on_c, 2, 46, 63
4, 102328, Note_on_c, 2, 46, 0
4, 102528, Note_on_c, 2, 58, 63
4, 102712, Note_on_c, 2, 58, 0
4, 102912, Note_on_c, 2, 60, 63
4, 102912, Note_on_c, 2, 51, 63
4, 103288, Note_on_c, 2, 51, 0
4, 103288, Note_on_c, 2, 60, 0
4, 103680, Note_on_c, 2, 60, 63
4, 103680, Note_on_c, 2, 51, 63
4, 104056, Note_on_c, 2, 51, 0
4, 104056, Note_on_c, 2, 60, 0
4, 104640, Note_on_c, 2, 53, 63
4, 104824, Note_on_c, 2, 53, 0
4, 104832, Note_on_c, 2, 53, 63
4, 105016, Note_on_c, 2, 53, 0
4, 105024, Note_on_c, 2, 53, 63
4, 105208, Note_on_c, 2, 53, 0
4, 105216, Note_on_c, 2, 53, 63
4, 105400, Note_on_c, 2, 53, 0
4, 105408, Note_on_c, 2, 57, 63
4, 105592, Note_on_c, 2, 57, 0
4, 105600, Note_on_c, 2, 60, 63
4, 105784, Note_on_c, 2, 60, 0
4, 105792, Note_on_c, 2, 57, 63
4, 105976, Note_on_c, 2, 57, 0
4, 105984, Note_on_c, 2, 53, 63
4, 106360, Note_on_c, 2, 53, 0
4, 107520, Note_on_c, 2, 55, 63
4, 107520, Note_on_c, 2, 43, 63
4, 108280, Note_on_c, 2, 43, 0
4, 108280, Note_on_c, 2, 55, 0
4, 108288, Note_on_c, 2, 51, 63
4, 108288, Note_on_c, 2, 39, 63
4, 109048, Note_on_c, 2, 39, 0
4, 109048, Note_on_c, 2, 51, 0
4, 109056, Note_on_c, 2, 50, 63
4, 109056, Note_on_c, 2, 38, 63
4, 109432, Note_on_c, 2, 38, 0
4, 109432, Note_on_c, 2, 50, 0
4, 110976, Note_on_c, 2, 67, 63
4, 110976, Note_on_c, 2, 64, 63
4, 111352, Note_on_c, 2, 64, 0
4, 111352, Note_on_c, 2, 67, 0
4, 111360, Note_on_c, 2, 65, 63
4, 111736, Note_on_c, 2, 65, 0
4, 111744, Note_on_c, 2, 53, 63
4, 112120, Note_on_c, 2, 53, 0
4, 112128, Note_on_c, 2, 58, 63
4, 112504, Note_on_c, 2, 58, 0
4, 112896, Note_on_c, 2, 51, 63
4, 113272, Note_on_c, 2, 51, 0
4, 113664, Note_on_c, 2, 50, 63
4, 114040, Note_on_c, 2, 50, 0
4, 114048, Note_on_c, 2, 55, 63
4, 114424, Note_on_c, 2, 55, 0
4, 114432, Note_on_c, 2, 51, 63
4, 114808, Note_on_c, 2, 51, 0
4, 114816, Note_on_c, 2, 53, 63
4, 115192, Note_on_c, 2, 53, 0
4, 115200, Note_on_c, 2, 58, 92
4, 115200, Note_on_c, 2, 46, 92
4, 115384, Note_on_c, 2, 46, 0
4, 115384, Note_on_c, 2, 58, 0
4, 115392, Note_on_c, 2, 58, 92
4, 115392, Note_on_c, 2, 46, 92
4, 115576, Note_on_c, 2, 46, 0
4, 115576, Note_on_c, 2, 58, 0
4, 115584, Note_on_c, 2, 62, 92
4, 115584, Note_on_c, 2, 50, 92
4, 115768, Note_on_c, 2, 50, 0
4, 115768, Note_on_c, 2, 62, 0
4, 115776, Note_on_c, 2, 58, 92
4, 115776, Note_on_c, 2, 46, 92
4, 115960, Note_on_c, 2, 46, 0
4, 115960, Note_on_c, 2, 58, 0
4, 115968, Note_on_c, 2, 53, 92
4, 115968, Note_on_c, 2, 41, 92
4, 116152, Note_on_c, 2, 41, 0
4, 116152, Note_on_c, 2, 53, 0
4, 116160, Note_on_c, 2, 58, 92
4, 116160, Note_on_c, 2, 46, 92
4, 116344, Note_on_c, 2, 46, 0
4, 116344, Note_on_c, 2, 58, 0
4, 116352, Note_on_c, 2, 50, 92
4, 116352, Note_on_c, 2, 38, 92
4, 116536, Note_on_c, 2, 38, 0
4, 116536, Note_on_c, 2, 50, 0
4, 116544, Note_on_c, 2, 53, 92
4, 116544, Note_on_c, 2, 41, 92
4, 116728, Note_on_c, 2, 41, 0
4, 116728, Note_on_c, 2, 53, 0
4, 116736, Note_on_c, 2, 46, 92
4, 116736, Note_on_c, 2, 34, 92
4, 117112, Note_on_c, 2, 34, 0
4, 117112, Note_on_c, 2, 46, 0
4, 117504, Note_on_c, 2, 55, 63
4, 117880, Note_on_c, 2, 55, 0
4, 118272, Note_on_c, 2, 48, 63
4, 118648, Note_on_c, 2, 48, 0
4, 119040, Note_on_c, 2, 53, 63
4, 119416, Note_on_c, 2, 53, 0
4, 119808, Note_on_c, 2, 46, 63
4, 120184, Note_on_c, 2, 46, 0
4, 120576, Note_on_c, 2, 54, 63
4, 120952, Note_on_c, 2, 54, 0
4, 121344, Note_on_c, 2, 51, 63
4, 121720, Note_on_c, 2, 51, 0
4, 122112, Note_on_c, 2, 53, 63
4, 122488, Note_on_c, 2, 53, 0
4, 122880, Note_on_c, 2, 46, 63
4, 122968, Note_on_c, 2, 46, 0
4, 123072, Note_on_c, 2, 58, 63
4, 123160, Note_on_c, 2, 58, 0
4, 123264, Note_on_c, 2, 46, 63
4, 123352, Note_on_c, 2, 46, 0
4, 123456, Note_on_c, 2, 58, 63
4, 123544, Note_on_c, 2, 58, 0
4, 123648, Note_on_c, 2, 46, 63
4, 124024, Note_on_c, 2, 46, 0
4, 124800, Note_on_c, 2, 57, 92
4, 124800, Note_on_c, 2, 45, 92
4, 125080, Note_on_c, 2, 45, 0
4, 125080, Note_on_c, 2, 57, 0
4, 125088, Note_on_c, 2, 57, 92
4, 125088, Note_on_c, 2, 45, 92
4, 125176, Note_on_c, 2, 45, 0
4, 125176, Note_on_c, 2, 57, 0
4, 125184, Note_on_c, 2, 56, 63
4, 125184, Note_on_c, 2, 44, 63
4, 125464, Note_on_c, 2, 44, 0
4, 125464, Note_on_c, 2, 56, 0
4, 125472, Note_on_c, 2, 56, 63
4, 125472, Note_on_c, 2, 44, 63
4, 125560, Note_on_c, 2, 44, 0
4, 125560, Note_on_c, 2, 56, 0
4, 125568, Note_on_c, 2, 57, 63
4, 125568, Note_on_c, 2, 45, 63
4, 125848, Note_on_c, 2, 45, 0
4, 125848, Note_on_c, 2, 57, 0
4, 125856, Note_on_c, 2, 57, 63
4, 125856, Note_on_c, 2, 45, 63
4, 125944, Note_on_c, 2, 45, 0
4, 125944, Note_on_c, 2, 57, 0
4, 125952, Note_on_c, 2, 56, 63
4, 125952, Note_on_c, 2, 44, 63
4, 126328, Note_on_c, 2, 44, 0
4, 126328, Note_on_c, 2, 56, 0
4, 126720, Note_on_c, 2, 56, 63
4, 126720, Note_on_c, 2, 44, 63
4, 127096, Note_on_c, 2, 44, 0
4, 127096, Note_on_c, 2, 56, 0
4, 127488, Note_on_c, 2, 56, 63
4, 127488, Note_on_c, 2, 44, 63
4, 129400, Note_on_c, 2, 44, 0
4, 129400, Note_on_c, 2, 56, 0
4, 130944, Note_on_c, 2, 49, 63
4, 131128, Note_on_c, 2, 49, 0
4, 131328, Note_on_c, 2, 49, 63
4, 131512, Note_on_c, 2, 49, 0
4, 141696, Note_on_c, 2, 47, 63
4, 142456, Note_on_c, 2, 47, 0
4, 142464, Note_on_c, 2, 48, 63
4, 142840, Note_on_c, 2, 48, 0
4, 142848, Note_on_c, 2, 49, 63
4, 143224, Note_on_c, 2, 49, 0
4, 143616, Note_on_c, 2, 49, 63
4, 143800, Note_on_c, 2, 49, 0
4, 143808, Note_on_c, 2, 53, 63
4, 143992, Note_on_c, 2, 53, 0
4, 144000, Note_on_c, 2, 52, 63
4, 144184, Note_on_c, 2, 52, 0
4, 144192, Note_on_c, 2, 53, 63
4, 144376, Note_on_c, 2, 53, 0
4, 144384, Note_on_c, 2, 55, 63
4, 144384, Note_on_c, 2, 48, 63
4, 144760, Note_on_c, 2, 48, 0
4, 144760, Note_on_c, 2, 55, 0
4, 150720, Note_on_c, 2, 48, 92
4, 150808, Note_on_c, 2, 48, 0
4, 150912, Note_on_c, 2, 50, 92
4, 151000, Note_on_c, 2, 50, 0
4, 151104, Note_on_c, 2, 52, 92
4, 151192, Note_on_c, 2, 52, 0
4, 151296, Note_on_c, 2, 53, 92
4, 151384, Note_on_c, 2, 53, 0
4, 151392, Note_on_c, 2, 51, 92
4, 151480, Note_on_c, 2, 51, 0
4, 151488, Note_on_c, 2, 53, 92
4, 151576, Note_on_c, 2, 53, 0
4, 151584, Note_on_c, 2, 55, 92
4, 151672, Note_on_c, 2, 55, 0
4, 151680, Note_on_c, 2, 56, 92
4, 151768, Note_on_c, 2, 56, 0
4, 151776, Note_on_c, 2, 55, 92
4, 151864, Note_on_c, 2, 55, 0
4, 151872, Note_on_c, 2, 56, 92
4, 151960, Note_on_c, 2, 56, 0
4, 151968, Note_on_c, 2, 58, 92
4, 152056, Note_on_c, 2, 58, 0
4, 152064, Note_on_c, 2, 60, 92
4, 152152, Note_on_c, 2, 60, 0
4, 152256, Note_on_c, 2, 48, 92
4, 152344, Note_on_c, 2, 48, 0
4, 152448, Note_on_c, 2, 50, 92
4, 152536, Note_on_c, 2, 50, 0
4, 152640, Note_on_c, 2, 52, 92
4, 152728, Note_on_c, 2, 52, 0
4, 152832, Note_on_c, 2, 53, 92
4, 152920, Note_on_c, 2, 53, 0
4, 152928, Note_on_c, 2, 51, 92
4, 153016, Note_on_c, 2, 51, 0
4, 153024, Note_on_c, 2, 53, 92
4, 153112, Note_on_c, 2, 53, 0
4, 153120, Note_on_c, 2, 55, 92
4, 153208, Note_on_c, 2, 55, 0
4, 153216, Note_on_c, 2, 56, 92
4, 153304, Note_on_c, 2, 56, 0
4, 153312, Note_on_c, 2, 55, 92
4, 153400, Note_on_c, 2, 55, 0
4, 153408, Note_on_c, 2, 56, 92
4, 153496, Note_on_c, 2, 56, 0
4, 153504, Note_on_c, 2, 58, 92
4, 153592, Note_on_c, 2, 58, 0
4, 153600, Note_on_c, 2, 60, 92
4, 153976, Note_on_c, 2, 60, 0
4, 157440, Note_on_c, 2, 55, 92
4, 158200, Note_on_c, 2, 55, 0
4, 158208, Note_on_c, 2, 53, 92
4, 158584, Note_on_c, 2, 53, 0
4, 158976, Note_on_c, 2, 48, 92
4, 158976, Note_on_c, 2, 36, 92
4, 159736, Note_on_c, 2, 36, 0
4, 159736, Note_on_c, 2, 48, 0
4, 159744, Note_on_c, 2, 53, 92
4, 159744, Note_on_c, 2, 41, 92
4, 160120, Note_on_c, 2, 41, 0
4, 160120, Note_on_c, 2, 53, 0
4, 160512, Note_on_c, 2, 53, 92
4, 160512, Note_on_c, 2, 41, 92
4, 160888, Note_on_c, 2, 41, 0
4, 160888, Note_on_c, 2, 53, 0
4, 161280, Note_on_c, 2, 55, 92
4, 161280, Note_on_c, 2, 43, 92
4, 161656, Note_on_c, 2, 43, 0
4, 161656, Note_on_c, 2, 55, 0
4, 162048, Note_on_c, 2, 48, 92
4, 162048, Note_on_c, 2, 36, 92
4, 162424, Note_on_c, 2, 36, 0
4, 162424, Note_on_c, 2, 48, 0
4, 162816, Note_on_c, 2, 53, 92
4, 162816, Note_on_c, 2, 41, 92
4, 163192, Note_on_c, 2, 41, 0
4, 163192, Note_on_c, 2, 53, 0
4, 163584, Note_on_c, 2, 53, 92
4, 163584, Note_on_c, 2, 41, 92
4, 163960, Note_on_c, 2, 41, 0
4, 163960, Note_on_c, 2, 53, 0
4, 164352, Note_on_c, 2, 55, 92
4, 164352, Note_on_c, 2, 43, 92
4, 164728, Note_on_c, 2, 43, 0
4, 164728, Note_on_c, 2, 55, 0
4, 165120, Note_on_c, 2, 48, 92
4, 165120, Note_on_c, 2, 36, 92
4, 165496, Note_on_c, 2, 36, 0
4, 165496, Note_on_c, 2, 48, 0
4, 165888, Note_on_c, 2, 53, 92
4, 165888, Note_on_c, 2, 41, 92
4, 166264, Note_on_c, 2, 41, 0
4, 166264, Note_on_c, 2, 53, 0
4, 166464, Note_on_c, 2, 57, 92
4, 166648, Note_on_c, 2, 57, 0
4, 166656, Note_on_c, 2, 58, 92
4, 167032, Note_on_c, 2, 58, 0
4, 167232, Note_on_c, 2, 57, 92
4, 167416, Note_on_c, 2, 57, 0
4, 167424, Note_on_c, 2, 58, 92
4, 167800, Note_on_c, 2, 58, 0
4, 168000, Note_on_c, 2, 54, 92
4, 168184, Note_on_c, 2, 54, 0
4, 168192, Note_on_c, 2, 55, 92
4, 168568, Note_on_c, 2, 55, 0
4, 168768, Note_on_c, 2, 54, 92
4, 168952, Note_on_c, 2, 54, 0
4, 168960, Note_on_c, 2, 55, 92
4, 169336, Note_on_c, 2, 55, 0
4, 169536, Note_on_c, 2, 57, 92
4, 169720, Note_on_c, 2, 57, 0
4, 169728, Note_on_c, 2, 58, 92
4, 170104, Note_on_c, 2, 58, 0
4, 170304, Note_on_c, 2, 59, 92
4, 170488, Note_on_c, 2, 59, 0
4, 170496, Note_on_c, 2, 48, 92
4, 170496, Note_on_c, 2, 36, 92
4, 171640, Note_on_c, 2, 36, 0
4, 171640, Note_on_c, 2, 48, 0
4, 171648, Note_on_c, 2, 46, 92
4, 171648, Note_on_c, 2, 34, 92
4, 172024, Note_on_c, 2, 34, 0
4, 172024, Note_on_c, 2, 46, 0
4, 172032, Note_on_c, 2, 45, 92
4, 172032, Note_on_c, 2, 33, 92
4, 172408, Note_on_c, 2, 33, 0
4, 172408, Note_on_c, 2, 45, 0
4, 173184, Note_on_c, 2, 57, 92
4, 173560, Note_on_c, 2, 57, 0
4, 173568, Note_on_c, 2, 58, 92
4, 173944, Note_on_c, 2, 58, 0
4, 175488, Note_on_c, 2, 59, 92
4, 175864, Note_on_c, 2, 59, 0
4, 175872, Note_on_c, 2, 60, 92
4, 176632, Note_on_c, 2, 60, 0
4, 176640, Note_on_c, 2, 53, 92
4, 177016, Note_on_c, 2, 53, 0
4, 180864, Note_on_c, 2, 62, 92
4, 181240, Note_on_c, 2, 62, 0
4, 181248, Note_on_c, 2, 61, 92
4, 182776, Note_on_c, 2, 61, 0
4, 182784, Note_on_c, 2, 62, 92
4, 183160, Note_on_c, 2, 62, 0
4, 187008, Note_on_c, 2, 62, 92
4, 187384, Note_on_c, 2, 62, 0
4, 187392, Note_on_c, 2, 61, 92
4, 188920, Note_on_c, 2, 61, 0
4, 188928, Note_on_c, 2, 62, 92
4, 189304, Note_on_c, 2, 62, 0
4, 189312, Note_on_c, 2, 62, 92
4, 189496, Note_on_c, 2, 62, 0
4, 189696, Note_on_c, 2, 62, 92
4, 189880, Note_on_c, 2, 62, 0
4, 190464, Note_on_c, 2, 61, 92
4, 191224, Note_on_c, 2, 61, 0
4, 191232, Note_on_c, 2, 60, 92
4, 191608, Note_on_c, 2, 60, 0
4, 192000, Note_on_c, 2, 61, 92
4, 192760, Note_on_c, 2, 61, 0
4, 192768, Note_on_c, 2, 60, 92
4, 193144, Note_on_c, 2, 60, 0
4, 193920, Note_on_c, 2, 60, 92
4, 193920, Note_on_c, 2, 48, 92
4, 194104, Note_on_c, 2, 48, 0
4, 194104, Note_on_c, 2, 60, 0
4, 194304, Note_on_c, 2, 55, 92
4, 194304, Note_on_c, 2, 43, 92
4, 194488, Note_on_c, 2, 43, 0
4, 194488, Note_on_c, 2, 55, 0
4, 194688, Note_on_c, 2, 52, 92
4, 194688, Note_on_c, 2, 40, 92
4, 194872, Note_on_c, 2, 40, 0
4, 194872, Note_on_c, 2, 52, 0
4, 195072, Note_on_c, 2, 48, 92
4, 195072, Note_on_c, 2, 36, 92
4, 195448, Note_on_c, 2, 36, 0
4, 195448, Note_on_c, 2, 48, 0
4, 197376, Note_on_c, 2, 60, 63
4, 198136, Note_on_c, 2, 60, 0
4, 198144, Note_on_c, 2, 57, 63
4, 198712, Note_on_c, 2, 57, 0
4, 198720, Note_on_c, 2, 58, 63
4, 198904, Note_on_c, 2, 58, 0
4, 198912, Note_on_c, 2, 62, 63
4, 199096, Note_on_c, 2, 62, 0
4, 199104, Note_on_c, 2, 60, 63
4, 199288, Note_on_c, 2, 60, 0
4, 199296, Note_on_c, 2, 58, 63
4, 199384, Note_on_c, 2, 58, 0
4, 199488, Note_on_c, 2, 57, 63
4, 199576, Note_on_c, 2, 57, 0
4, 199680, Note_on_c, 2, 55, 63
4, 200248, Note_on_c, 2, 55, 0
4, 200256, Note_on_c, 2, 57, 63
4, 200440, Note_on_c, 2, 57, 0
4, 200448, Note_on_c, 2, 60, 63
4, 200632, Note_on_c, 2, 60, 0
4, 200640, Note_on_c, 2, 58, 63
4, 200824, Note_on_c, 2, 58, 0
4, 200832, Note_on_c, 2, 57, 63
4, 200920, Note_on_c, 2, 57, 0
4, 201024, Note_on_c, 2, 55, 63
4, 201112, Note_on_c, 2, 55, 0
4, 201216, Note_on_c, 2, 53, 63
4, 201592, Note_on_c, 2, 53, 0
4, 201792, Note_on_c, 2, 53, 63
4, 201976, Note_on_c, 2, 53, 0
4, 201984, Note_on_c, 2, 55, 63
4, 202168, Note_on_c, 2, 55, 0
4, 202368, Note_on_c, 2, 53, 63
4, 202552, Note_on_c, 2, 53, 0
4, 202752, Note_on_c, 2, 52, 63
4, 202936, Note_on_c, 2, 52, 0
4, 203136, Note_on_c, 2, 60, 63
4, 203320, Note_on_c, 2, 60, 0
4, 203904, Note_on_c, 2, 60, 63
4, 203904, Note_on_c, 2, 58, 63
4, 204280, Note_on_c, 2, 58, 0
4, 204280, Note_on_c, 2, 60, 0
4, 204288, Note_on_c, 2, 60, 63
4, 204288, Note_on_c, 2, 57, 63
4, 204664, Note_on_c, 2, 57, 0
4, 204664, Note_on_c, 2, 60, 0
4, 204672, Note_on_c, 2, 58, 63
4, 205048, Note_on_c, 2, 58, 0
4, 205056, Note_on_c, 2, 60, 63
4, 205432, Note_on_c, 2, 60, 0
4, 205440, Note_on_c, 2, 58, 63
4, 205440, Note_on_c, 2, 48, 63
4, 205816, Note_on_c, 2, 48, 0
4, 205816, Note_on_c, 2, 58, 0
4, 205824, Note_on_c, 2, 57, 63
4, 205824, Note_on_c, 2, 53, 63
4, 206008, Note_on_c, 2, 53, 0
4, 206008, Note_on_c, 2, 57, 0
4, 206016, Note_on_c, 2, 60, 63
4, 206200, Note_on_c, 2, 60, 0
4, 206208, Note_on_c, 2, 55, 63
4, 206392, Note_on_c, 2, 55, 0
4, 206400, Note_on_c, 2, 60, 63
4, 206584, Note_on_c, 2, 60, 0
4, 206592, Note_on_c, 2, 53, 63
4, 206776, Note_on_c, 2, 53, 0
4, 206784, Note_on_c, 2, 60, 63
4, 206968, Note_on_c, 2, 60, 0
4, 206976, Note_on_c, 2, 48, 63
4, 207160, Note_on_c, 2, 48, 0
4, 207168, Note_on_c, 2, 60, 63
4, 207352, Note_on_c, 2, 60, 0
4, 207360, Note_on_c, 2, 53, 63
4, 207544, Note_on_c, 2, 53, 0
4, 207552, Note_on_c, 2, 60, 63
4, 207736, Note_on_c, 2, 60, 0
4, 207744, Note_on_c, 2, 55, 63
4, 207928, Note_on_c, 2, 55, 0
4, 207936, Note_on_c, 2, 60, 63
4, 208120, Note_on_c, 2, 60, 0
4, 208128, Note_on_c, 2, 53, 63
4, 208312, Note_on_c, 2, 53, 0
4, 208320, Note_on_c, 2, 60, 63
4, 208504, Note_on_c, 2, 60, 0
4, 208512, Note_on_c, 2, 48, 63
4, 208696, Note_on_c, 2, 48, 0
4, 208704, Note_on_c, 2, 60, 63
4, 208888, Note_on_c, 2, 60, 0
4, 208896, Note_on_c, 2, 53, 63
4, 209080, Note_on_c, 2, 53, 0
4, 209088, Note_on_c, 2, 60, 63
4, 209272, Note_on_c, 2, 60, 0
4, 209280, Note_on_c, 2, 55, 63
4, 209464, Note_on_c, 2, 55, 0
4, 209472, Note_on_c, 2, 60, 63
4, 209656, Note_on_c, 2, 60, 0
4, 209664, Note_on_c, 2, 53, 63
4, 209848, Note_on_c, 2, 53, 0
4, 209856, Note_on_c, 2, 60, 63
4, 210040, Note_on_c, 2, 60, 0
4, 210048, Note_on_c, 2, 48, 63
4, 210232, Note_on_c, 2, 48, 0
4, 210240, Note_on_c, 2, 60, 63
4, 210424, Note_on_c, 2, 60, 0
4, 210432, Note_on_c, 2, 53, 63
4, 210616, Note_on_c, 2, 53, 0
4, 210624, Note_on_c, 2, 60, 63
4, 210808, Note_on_c, 2, 60, 0
4, 210816, Note_on_c, 2, 48, 63
4, 211000, Note_on_c, 2, 48, 0
4, 211008, Note_on_c, 2, 60, 63
4, 211192, Note_on_c, 2, 60, 0
4, 211200, Note_on_c, 2, 53, 63
4, 211384, Note_on_c, 2, 53, 0
4, 211392, Note_on_c, 2, 60, 63
4, 211576, Note_on_c, 2, 60, 0
4, 211584, Note_on_c, 2, 48, 63
4, 211768, Note_on_c, 2, 48, 0
4, 211776, Note_on_c, 2, 60, 63
4, 211960, Note_on_c, 2, 60, 0
4, 211968, Note_on_c, 2, 53, 63
4, 212344, Note_on_c, 2, 53, 0
4, 212352, Note_on_c, 2, 53, 63
4, 212728, Note_on_c, 2, 53, 0
4, 212736, Note_on_c, 2, 41, 63
4, 213112, Note_on_c, 2, 41, 0
4, 213120, Note_on_c, 2, 53, 63
4, 213496, Note_on_c, 2, 53, 0
4, 213504, Note_on_c, 2, 46, 63
4, 213880, Note_on_c, 2, 46, 0
4, 213888, Note_on_c, 2, 46, 63
4, 214264, Note_on_c, 2, 46, 0
4, 214272, Note_on_c, 2, 34, 63
4, 214648, Note_on_c, 2, 34, 0
4, 214656, Note_on_c, 2, 46, 63
4, 215032, Note_on_c, 2, 46, 0
4, 215040, Note_on_c, 2, 48, 63
4, 215416, Note_on_c, 2, 48, 0
4, 215424, Note_on_c, 2, 48, 63
4, 215800, Note_on_c, 2, 48, 0
4, 215808, Note_on_c, 2, 36, 63
4, 216184, Note_on_c, 2, 36, 0
4, 216192, Note_on_c, 2, 48, 63
4, 216568, Note_on_c, 2, 48, 0
4, 216576, Note_on_c, 2, 53, 63
4, 216576, Note_on_c, 2, 41, 63
4, 216952, Note_on_c, 2, 41, 0
4, 216952, Note_on_c, 2, 53, 0
4, 218112, Note_on_c, 2, 45, 63
4, 219640, Note_on_c, 2, 45, 0
4, 219648, Note_on_c, 2, 46, 63
4, 219832, Note_on_c, 2, 46, 0
4, 220032, Note_on_c, 2, 53, 63
4, 220216, Note_on_c, 2, 53, 0
4, 220416, Note_on_c, 2, 46, 63
4, 220600, Note_on_c, 2, 46, 0
4, 220800, Note_on_c, 2, 53, 63
4, 220984, Note_on_c, 2, 53, 0
4, 221184, Note_on_c, 2, 46, 63
4, 221368, Note_on_c, 2, 46, 0
4, 221568, Note_on_c, 2, 41, 63
4, 221752, Note_on_c, 2, 41, 0
4, 221952, Note_on_c, 2, 46, 63
4, 222136, Note_on_c, 2, 46, 0
4, 222336, Note_on_c, 2, 41, 63
4, 222520, Note_on_c, 2, 41, 0
4, 222720, Note_on_c, 2, 46, 63
4, 223096, Note_on_c, 2, 46, 0
4, 223680, Note_on_c, 2, 58, 63
4, 223680, Note_on_c, 2, 46, 63
4, 223768, Note_on_c, 2, 46, 0
4, 223768, Note_on_c, 2, 58, 0
4, 223872, Note_on_c, 2, 58, 63
4, 223872, Note_on_c, 2, 46, 63
4, 223960, Note_on_c, 2, 46, 0
4, 223960, Note_on_c, 2, 58, 0
4, 224064, Note_on_c, 2, 58, 63
4, 224064, Note_on_c, 2, 46, 63
4, 224152, Note_on_c, 2, 46, 0
4, 224152, Note_on_c, 2, 58, 0
4, 224256, Note_on_c, 2, 58, 63
4, 224256, Note_on_c, 2, 46, 63
4, 224632, Note_on_c, 2, 46, 0
4, 224632, Note_on_c, 2, 58, 0
4, 225216, Note_on_c, 2, 58, 63
4, 225216, Note_on_c, 2, 46, 63
4, 225304, Note_on_c, 2, 46, 0
4, 225304, Note_on_c, 2, 58, 0
4, 225408, Note_on_c, 2, 58, 63
4, 225408, Note_on_c, 2, 46, 63
4, 225496, Note_on_c, 2, 46, 0
4, 225496, Note_on_c, 2, 58, 0
4, 225600, Note_on_c, 2, 58, 63
4, 225600, Note_on_c, 2, 46, 63
4, 225688, Note_on_c, 2, 46, 0
4, 225688, Note_on_c, 2, 58, 0
4, 225792, Note_on_c, 2, 59, 63
4, 225792, Note_on_c, 2, 47, 63
4, 226168, Note_on_c, 2, 47, 0
4, 226168, Note_on_c, 2, 59, 0
4, 226752, Note_on_c, 2, 59, 63
4, 226752, Note_on_c, 2, 47, 63
4, 226840, Note_on_c, 2, 47, 0
4, 226840, Note_on_c, 2, 59, 0
4, 226944, Note_on_c, 2, 59, 63
4, 226944, Note_on_c, 2, 47, 63
4, 227032, Note_on_c, 2, 47, 0
4, 227032, Note_on_c, 2, 59, 0
4, 227136, Note_on_c, 2, 59, 63
4, 227136, Note_on_c, 2, 47, 63
4, 227224, Note_on_c, 2, 47, 0
4, 227224, Note_on_c, 2, 59, 0
4, 227328, Note_on_c, 2, 60, 63
4, 227328, Note_on_c, 2, 48, 63
4, 227704, Note_on_c, 2, 48, 0
4, 227704, Note_on_c, 2, 60, 0
4, 233472, Note_on_c, 2, 48, 63
4, 233472, Note_on_c, 2, 36, 63
4, 233848, Note_on_c, 2, 36, 0
4, 233848, Note_on_c, 2, 48, 0
4, 233856, Note_on_c, 2, 48, 63
4, 233856, Note_on_c, 2, 36, 63
4, 234232, Note_on_c, 2, 36, 0
4, 234232, Note_on_c, 2, 48, 0
4, 234240, Note_on_c, 2, 48, 63
4, 234240, Note_on_c, 2, 36, 63
4, 234616, Note_on_c, 2, 36, 0
4, 234616, Note_on_c, 2, 48, 0
4, 234624, Note_on_c, 2, 48, 63
4, 234624, Note_on_c, 2, 36, 63
4, 235000, Note_on_c, 2, 36, 0
4, 235000, Note_on_c, 2, 48, 0
4, 235008, Note_on_c, 2, 48, 64
4, 235008, Note_on_c, 2, 36, 64
4, 235192, Note_on_c, 2, 36, 0
4, 235192, Note_on_c, 2, 48, 0
4, 235200, Note_on_c, 2, 48, 68
4, 235200, Note_on_c, 2, 36, 68
4, 235384, Note_on_c, 2, 36, 0
4, 235384, Note_on_c, 2, 48, 0
4, 235392, Note_on_c, 2, 48, 71
4, 235392, Note_on_c, 2, 36, 71
4, 235576, Note_on_c, 2, 36, 0
4, 235576, Note_on_c, 2, 48, 0
4, 235584, Note_on_c, 2, 48, 75
4, 235584, Note_on_c, 2, 36, 75
4, 235768, Note_on_c, 2, 36, 0
4, 235768, Note_on_c, 2, 48, 0
4, 235776, Note_on_c, 2, 48, 79
4, 235776, Note_on_c, 2, 36, 79
4, 235960, Note_on_c, 2, 36, 0
4, 235960, Note_on_c, 2, 48, 0
4, 235968, Note_on_c, 2, 48, 83
4, 235968, Note_on_c, 2, 36, 83
4, 236152, Note_on_c, 2, 36, 0
4, 236152, Note_on_c, 2, 48, 0
4, 236160, Note_on_c, 2, 48, 86
4, 236160, Note_on_c, 2, 36, 86
4, 236344, Note_on_c, 2, 36, 0
4, 236344, Note_on_c, 2, 48, 0
4, 236352, Note_on_c, 2, 48, 89
4, 236352, Note_on_c, 2, 36, 89
4, 236536, Note_on_c, 2, 36, 0
4, 236536, Note_on_c, 2, 48, 0
4, 236544, Note_on_c, 2, 57, 92
4, 236544, Note_on_c, 2, 53, 92
4, 236728, Note_on_c, 2, 53, 0
4, 236728, Note_on_c, 2, 57, 0
4, 236736, Note_on_c, 2, 48, 92
4, 236920, Note_on_c, 2, 48, 0
4, 236928, Note_on_c, 2, 57, 92
4, 236928, Note_on_c, 2, 53, 92
4, 237112, Note_on_c, 2, 53, 0
4, 237112, Note_on_c, 2, 57, 0
4, 237120, Note_on_c, 2, 48, 92
4, 237304, Note_on_c, 2, 48, 0
4, 237312, Note_on_c, 2, 57, 92
4, 237312, Note_on_c, 2, 53, 92
4, 237496, Note_on_c, 2, 53, 0
4, 237496, Note_on_c, 2, 57, 0
4, 237504, Note_on_c, 2, 48, 92
4, 237688, Note_on_c, 2, 48, 0
4, 237696, Note_on_c, 2, 57, 92
4, 237696, Note_on_c, 2, 53, 92
4, 237880, Note_on_c, 2, 53, 0
4, 237880, Note_on_c, 2, 57, 0
4, 237888, Note_on_c, 2, 48, 92
4, 238072, Note_on_c, 2, 48, 0
4, 238080, Note_on_c, 2, 55, 92
4, 238080, Note_on_c, 2, 52, 92
4, 238264, Note_on_c, 2, 52, 0
4, 238264, Note_on_c, 2, 55, 0
4, 238272, Note_on_c, 2, 48, 92
4, 238456, Note_on_c, 2, 48, 0
4, 238464, Note_on_c, 2, 55, 92
4, 238464, Note_on_c, 2, 52, 92
4, 238648, Note_on_c, 2, 52, 0
4, 238648, Note_on_c, 2, 55, 0
4, 238656, Note_on_c, 2, 48, 92
4, 238840, Note_on_c, 2, 48, 0
4, 238848, Note_on_c, 2, 60, 92
4, 238848, Note_on_c, 2, 55, 92
4, 239032, Note_on_c, 2, 55, 0
4, 239032, Note_on_c, 2, 60, 0
4, 239040, Note_on_c, 2, 48, 92
4, 239224, Note_on_c, 2, 48, 0
4, 239232, Note_on_c, 2, 60, 92
4, 239232, Note_on_c, 2, 58, 92
4, 239416, Note_on_c, 2, 58, 0
4, 239416, Note_on_c, 2, 60, 0
4, 239424, Note_on_c, 2, 48, 92
4, 239608, Note_on_c, 2, 48, 0
4, 239616, Note_on_c, 2, 60, 92
4, 239616, Note_on_c, 2, 57, 92
4, 239800, Note_on_c, 2, 57, 0
4, 239800, Note_on_c, 2, 60, 0
4, 239808, Note_on_c, 2, 48, 92
4, 239992, Note_on_c, 2, 48, 0
4, 240000, Note_on_c, 2, 60, 92
4, 240000, Note_on_c, 2, 57, 92
4, 240184, Note_on_c, 2, 57, 0
4, 240184, Note_on_c, 2, 60, 0
4, 240192, Note_on_c, 2, 48, 92
4, 240376, Note_on_c, 2, 48, 0
4, 240384, Note_on_c, 2, 57, 92
4, 240384, Note_on_c, 2, 53, 92
4, 240568, Note_on_c, 2, 53, 0
4, 240568, Note_on_c, 2, 57, 0
4, 240576, Note_on_c, 2, 48, 92
4, 240760, Note_on_c, 2, 48, 0
4, 240768, Note_on_c, 2, 57, 92
4, 240768, Note_on_c, 2, 53, 92
4, 240952, Note_on_c, 2, 53, 0
4, 240952, Note_on_c, 2, 57, 0
4, 240960, Note_on_c, 2, 48, 92
4, 241144, Note_on_c, 2, 48, 0
4, 241152, Note_on_c, 2, 55, 92
4, 241152, Note_on_c, 2, 52, 92
4, 241336, Note_on_c, 2, 52, 0
4, 241336, Note_on_c, 2, 55, 0
4, 241344, Note_on_c, 2, 48, 92
4, 241528, Note_on_c, 2, 48, 0
4, 241536, Note_on_c, 2, 55, 92
4, 241536, Note_on_c, 2, 52, 92
4, 241720, Note_on_c, 2, 52, 0
4, 241720, Note_on_c, 2, 55, 0
4, 241728, Note_on_c, 2, 48, 92
4, 241912, Note_on_c, 2, 48, 0
4, 241920, Note_on_c, 2, 60, 92
4, 241920, Note_on_c, 2, 55, 92
4, 242104, Note_on_c, 2, 55, 0
4, 242104, Note_on_c, 2, 60, 0
4, 242112, Note_on_c, 2, 48, 92
4, 242296, Note_on_c, 2, 48, 0
4, 242304, Note_on_c, 2, 60, 92
4, 242304, Note_on_c, 2, 58, 92
4, 242488, Note_on_c, 2, 58, 0
4, 242488, Note_on_c, 2, 60, 0
4, 242496, Note_on_c, 2, 48, 92
4, 242680, Note_on_c, 2, 48, 0
4, 242688, Note_on_c, 2, 60, 92
4, 242688, Note_on_c, 2, 57, 92
4, 243064, Note_on_c, 2, 57, 0
4, 243064, Note_on_c, 2, 60, 0
4, 243264, Note_on_c, 2, 60, 92
4, 243264, Note_on_c, 2, 57, 92
4, 243448, Note_on_c, 2, 57, 0
4, 243448, Note_on_c, 2, 60, 0
4, 243456, Note_on_c, 2, 58, 92
4, 243832, Note_on_c, 2, 58, 0
4, 244032, Note_on_c, 2, 65, 92
4, 244032, Note_on_c, 2, 57, 92
4, 244216, Note_on_c, 2, 57, 0
4, 244216, Note_on_c, 2, 65, 0
4, 244224, Note_on_c, 2, 65, 92
4, 244224, Note_on_c, 2, 58, 92
4, 244600, Note_on_c, 2, 58, 0
4, 244600, Note_on_c, 2, 65, 0
4, 244800, Note_on_c, 2, 57, 92
4, 244800, Note_on_c, 2, 54, 92
4, 244984, Note_on_c, 2, 54, 0
4, 244984, Note_on_c, 2, 57, 0
4, 244992, Note_on_c, 2, 55, 92
4, 245368, Note_on_c, 2, 55, 0
4, 245568, Note_on_c, 2, 62, 92
4, 245568, Note_on_c, 2, 54, 92
4, 245752, Note_on_c, 2, 54, 0
4, 245752, Note_on_c, 2, 62, 0
4, 245760, Note_on_c, 2, 62, 92
4, 245760, Note_on_c, 2, 55, 92
4, 246136, Note_on_c, 2, 55, 0
4, 246136, Note_on_c, 2, 62, 0
4, 246336, Note_on_c, 2, 50, 92
4, 246520, Note_on_c, 2, 50, 0
4, 246528, Note_on_c, 2, 50, 92
4, 246528, Note_on_c, 2, 46, 92
4, 246904, Note_on_c, 2, 46, 0
4, 246904, Note_on_c, 2, 50, 0
4, 247104, Note_on_c, 2, 50, 92
4, 247104, Note_on_c, 2, 47, 92
4, 247288, Note_on_c, 2, 47, 0
4, 247288, Note_on_c, 2, 50, 0
4, 247296, Note_on_c, 2, 52, 92
4, 247296, Note_on_c, 2, 48, 92
4, 247480, Note_on_c, 2, 48, 0
4, 247480, Note_on_c, 2, 52, 0
4, 247488, Note_on_c, 2, 52, 92
4, 247488, Note_on_c, 2, 48, 92
4, 247672, Note_on_c, 2, 48, 0
4, 247672, Note_on_c, 2, 52, 0
4, 247680, Note_on_c, 2, 52, 92
4, 247680, Note_on_c, 2, 48, 92
4, 247864, Note_on_c, 2, 48, 0
4, 247864, Note_on_c, 2, 52, 0
4, 247872, Note_on_c, 2, 52, 92
4, 247872, Note_on_c, 2, 48, 92
4, 248056, Note_on_c, 2, 48, 0
4, 248056, Note_on_c, 2, 52, 0
4, 248064, Note_on_c, 2, 55, 92
4, 248064, Note_on_c, 2, 46, 92
4, 248248, Note_on_c, 2, 46, 0
4, 248248, Note_on_c, 2, 55, 0
4, 248256, Note_on_c, 2, 55, 92
4, 248256, Note_on_c, 2, 46, 92
4, 248440, Note_on_c, 2, 46, 0
4, 248440, Note_on_c, 2, 55, 0
4, 248448, Note_on_c, 2, 55, 92
4, 248448, Note_on_c, 2, 46, 92
4, 248632, Note_on_c, 2, 46, 0
4, 248632, Note_on_c, 2, 55, 0
4, 248640, Note_on_c, 2, 55, 92
4, 248640, Note_on_c, 2, 46, 92
4, 248824, Note_on_c, 2, 46, 0
4, 248824, Note_on_c, 2, 55, 0
4, 248832, Note_on_c, 2, 57, 92
4, 248832, Note_on_c, 2, 45, 92
4, 249016, Note_on_c, 2, 45, 0
4, 249016, Note_on_c, 2, 57, 0
4, 249024, Note_on_c, 2, 57, 92
4, 249024, Note_on_c, 2, 45, 92
4, 249208, Note_on_c, 2, 45, 0
4, 249208, Note_on_c, 2, 57, 0
4, 249216, Note_on_c, 2, 57, 92
4, 249216, Note_on_c, 2, 45, 92
4, 249400, Note_on_c, 2, 45, 0
4, 249400, Note_on_c, 2, 57, 0
4, 249408, Note_on_c, 2, 57, 92
4, 249408, Note_on_c, 2, 45, 92
4, 249592, Note_on_c, 2, 45, 0
4, 249592, Note_on_c, 2, 57, 0
4, 249600, Note_on_c, 2, 58, 92
4, 249600, Note_on_c, 2, 46, 92
4, 249784, Note_on_c, 2, 46, 0
4, 249784, Note_on_c, 2, 58, 0
4, 249792, Note_on_c, 2, 58, 92
4, 249792, Note_on_c, 2, 46, 92
4, 249976, Note_on_c, 2, 46, 0
4, 249976, Note_on_c, 2, 58, 0
4, 249984, Note_on_c, 2, 56, 92
4, 249984, Note_on_c, 2, 50, 92
4, 249984, Note_on_c, 2, 47, 92
4, 250168, Note_on_c, 2, 47, 0
4, 250168, Note_on_c, 2, 50, 0
4, 250168, Note_on_c, 2, 56, 0
4, 250176, Note_on_c, 2, 56, 92
4, 250176, Note_on_c, 2, 50, 92
4, 250176, Note_on_c, 2, 47, 92
4, 250360, Note_on_c, 2, 47, 0
4, 250360, Note_on_c, 2, 50, 0
4, 250360, Note_on_c, 2, 56, 0
4, 250368, Note_on_c, 2, 57, 92
4, 250368, Note_on_c, 2, 48, 92
4, 250552, Note_on_c, 2, 48, 0
4, 250552, Note_on_c, 2, 57, 0
4, 250560, Note_on_c, 2, 60, 92
4, 250560, Note_on_c, 2, 48, 92
4, 250744, Note_on_c, 2, 48, 0
4, 250744, Note_on_c, 2, 60, 0
4, 250752, Note_on_c, 2, 57, 92
4, 250752, Note_on_c, 2, 45, 92
4, 250936, Note_on_c, 2, 45, 0
4, 250936, Note_on_c, 2, 57, 0
4, 250944, Note_on_c, 2, 53, 92
4, 250944, Note_on_c, 2, 41, 92
4, 251128, Note_on_c, 2, 41, 0
4, 251128, Note_on_c, 2, 53, 0
4, 251136, Note_on_c, 2, 48, 92
4, 251136, Note_on_c, 2, 36, 92
4, 251320, Note_on_c, 2, 36, 0
4, 251320, Note_on_c, 2, 48, 0
4, 251328, Note_on_c, 2, 48, 92
4, 251328, Note_on_c, 2, 36, 92
4, 251512, Note_on_c, 2, 36, 0
4, 251512, Note_on_c, 2, 48, 0
4, 251520, Note_on_c, 2, 48, 92
4, 251520, Note_on_c, 2, 36, 92
4, 251704, Note_on_c, 2, 36, 0
4, 251704, Note_on_c, 2, 48, 0
4, 251712, Note_on_c, 2, 48, 92
4, 251712, Note_on_c, 2, 36, 92
4, 251896, Note_on_c, 2, 36, 0
4, 251896, Note_on_c, 2, 48, 0
4, 251904, Note_on_c, 2, 53, 92
4, 251904, Note_on_c, 2, 41, 92
4, 252280, Note_on_c, 2, 41, 0
4, 252280, Note_on_c, 2, 53, 0
4, 254208, Note_on_c, 2, 62, 63
4, 254208, Note_on_c, 2, 58, 63
4, 254296, Note_on_c, 2, 58, 0
4, 254296, Note_on_c, 2, 62, 0
4, 254592, Note_on_c, 2, 64, 63
4, 254592, Note_on_c, 2, 60, 63
4, 254680, Note_on_c, 2, 60, 0
4, 254680, Note_on_c, 2, 64, 0
4, 254976, Note_on_c, 2, 62, 63
4, 254976, Note_on_c, 2, 65, 63
4, 255352, Note_on_c, 2, 65, 0
4, 255352, Note_on_c, 2, 62, 0
4, 257280, Note_on_c, 2, 58, 63
4, 257280, Note_on_c, 2, 55, 63
4, 257368, Note_on_c, 2, 55, 0
4, 257368, Note_on_c, 2, 58, 0
4, 257664, Note_on_c, 2, 58, 63
4, 257664, Note_on_c, 2, 48, 63
4, 257752, Note_on_c, 2, 48, 0
4, 257752, Note_on_c, 2, 58, 0
4, 258048, Note_on_c, 2, 57, 63
4, 258048, Note_on_c, 2, 53, 63
4, 258424, Note_on_c, 2, 53, 0
4, 258424, Note_on_c, 2, 57, 0
4, 258816, Note_on_c, 2, 58, 63
4, 258816, Note_on_c, 2, 55, 63
4, 258816, Note_on_c, 2, 46, 63
4, 258904, Note_on_c, 2, 46, 0
4, 258904, Note_on_c, 2, 55, 0
4, 258904, Note_on_c, 2, 58, 0
4, 259200, Note_on_c, 2, 58, 63
4, 259200, Note_on_c, 2, 55, 63
4, 259200, Note_on_c, 2, 48, 63
4, 259288, Note_on_c, 2, 48, 0
4, 259288, Note_on_c, 2, 55, 0
4, 259288, Note_on_c, 2, 58, 0
4, 259584, Note_on_c, 2, 57, 63
4, 259584, Note_on_c, 2, 53, 63
4, 259960, Note_on_c, 2, 53, 0
4, 259960, Note_on_c, 2, 57, 0
4, 260352, Note_on_c, 2, 58, 63
4, 260352, Note_on_c, 2, 55, 63
4, 260352, Note_on_c, 2, 46, 63
4, 260440, Note_on_c, 2, 46, 0
4, 260440, Note_on_c, 2, 55, 0
4, 260440, Note_on_c, 2, 58, 0
4, 260736, Note_on_c, 2, 58, 63
4, 260736, Note_on_c, 2, 55, 63
4, 260736, Note_on_c, 2, 48, 63
4, 260824, Note_on_c, 2, 48, 0
4, 260824, Note_on_c, 2, 55, 0
4, 260824, Note_on_c, 2, 58, 0
4, 261120, Note_on_c, 2, 57, 92
4, 261120, Note_on_c, 2, 53, 92
4, 261304, Note_on_c, 2, 53, 0
4, 261304, Note_on_c, 2, 57, 0
4, 261312, Note_on_c, 2, 65, 92
4, 261312, Note_on_c, 2, 53, 92
4, 261496, Note_on_c, 2, 53, 0
4, 261496, Note_on_c, 2, 65, 0
4, 261504, Note_on_c, 2, 65, 92
4, 261504, Note_on_c, 2, 53, 92
4, 261688, Note_on_c, 2, 53, 0
4, 261688, Note_on_c, 2, 65, 0
4, 261696, Note_on_c, 2, 65, 92
4, 261696, Note_on_c, 2, 53, 92
4, 261880, Note_on_c, 2, 53, 0
4, 261880, Note_on_c, 2, 65, 0
4, 261888, Note_on_c, 2, 60, 92
4, 261888, Note_on_c, 2, 48, 92
4, 262072, Note_on_c, 2, 48, 0
4, 262072, Note_on_c, 2, 60, 0
4, 262080, Note_on_c, 2, 65, 92
4, 262080, Note_on_c, 2, 53, 92
4, 262264, Note_on_c, 2, 53, 0
4, 262264, Note_on_c, 2, 65, 0
4, 262272, Note_on_c, 2, 57, 92
4, 262272, Note_on_c, 2, 45, 92
4, 262456, Note_on_c, 2, 45, 0
4, 262456, Note_on_c, 2, 57, 0
4, 262464, Note_on_c, 2, 60, 92
4, 262464, Note_on_c, 2, 48, 92
4, 262648, Note_on_c, 2, 48, 0
4, 262648, Note_on_c, 2, 60, 0
4, 262656, Note_on_c, 2, 53, 92
4, 262656, Note_on_c, 2, 41, 92
4, 263032, Note_on_c, 2, 41, 0
4, 263032, Note_on_c, 2, 53, 0
4, 263040, Note_on_c, 2, 53, 92
4, 263040, Note_on_c, 2, 41, 92
4, 263416, Note_on_c, 2, 41, 0
4, 263416, Note_on_c, 2, 53, 0
4, 263424, Note_on_c, 2, 53, 92
4, 263424, Note_on_c, 2, 41, 92
4, 263800, Note_on_c, 2, 41, 0
4, 263800, Note_on_c, 2, 53, 0
4, 264192, Note_on_c, 2, 53, 63
4, 264376, Note_on_c, 2, 53, 0
4, 264384, Note_on_c, 2, 53, 63
4, 264568, Note_on_c, 2, 53, 0
4, 264576, Note_on_c, 2, 53, 63
4, 264760, Note_on_c, 2, 53, 0
4, 264768, Note_on_c, 2, 53, 63
4, 264952, Note_on_c, 2, 53, 0
4, 264960, Note_on_c, 2, 53, 63
4, 265144, Note_on_c, 2, 53, 0
4, 265152, Note_on_c, 2, 53, 63
4, 265336, Note_on_c, 2, 53, 0
4, 265344, Note_on_c, 2, 53, 63
4, 265528, Note_on_c, 2, 53, 0
4, 265536, Note_on_c, 2, 53, 63
4, 265720, Note_on_c, 2, 53, 0
4, 265728, Note_on_c, 2, 53, 63
4, 265912, Note_on_c, 2, 53, 0
4, 265920, Note_on_c, 2, 53, 63
4, 266104, Note_on_c, 2, 53, 0
4, 266112, Note_on_c, 2, 53, 63
4, 266296, Note_on_c, 2, 53, 0
4, 266304, Note_on_c, 2, 53, 63
4, 266488, Note_on_c, 2, 53, 0
4, 266496, Note_on_c, 2, 53, 63
4, 266872, Note_on_c, 2, 53, 0
4, 267264, Note_on_c, 2, 48, 63
4, 268792, Note_on_c, 2, 48, 0
4, 268800, Note_on_c, 2, 48, 63
4, 269176, Note_on_c, 2, 48, 0
4, 269568, Note_on_c, 2, 48, 63
4, 269944, Note_on_c, 2, 48, 0
4, 270336, Note_on_c, 2, 53, 63
4, 270520, Note_on_c, 2, 53, 0
4, 270528, Note_on_c, 2, 53, 63
4, 270712, Note_on_c, 2, 53, 0
4, 270720, Note_on_c, 2, 53, 63
4, 270904, Note_on_c, 2, 53, 0
4, 270912, Note_on_c, 2, 53, 63
4, 271096, Note_on_c, 2, 53, 0
4, 271104, Note_on_c, 2, 53, 63
4, 271288, Note_on_c, 2, 53, 0
4, 271296, Note_on_c, 2, 53, 63
4, 271480, Note_on_c, 2, 53, 0
4, 271488, Note_on_c, 2, 53, 63
4, 271672, Note_on_c, 2, 53, 0
4, 271680, Note_on_c, 2, 53, 63
4, 271864, Note_on_c, 2, 53, 0
4, 271872, Note_on_c, 2, 53, 63
4, 272056, Note_on_c, 2, 53, 0
4, 272064, Note_on_c, 2, 53, 63
4, 272248, Note_on_c, 2, 53, 0
4, 272256, Note_on_c, 2, 53, 63
4, 272440, Note_on_c, 2, 53, 0
4, 272448, Note_on_c, 2, 53, 63
4, 272632, Note_on_c, 2, 53, 0
4, 272640, Note_on_c, 2, 53, 63
4, 273016, Note_on_c, 2, 53, 0
4, 273408, Note_on_c, 2, 48, 63
4, 274936, Note_on_c, 2, 48, 0
4, 274944, Note_on_c, 2, 48, 63
4, 275320, Note_on_c, 2, 48, 0
4, 275712, Note_on_c, 2, 48, 63
4, 276088, Note_on_c, 2, 48, 0
4, 276480, Note_on_c, 2, 53, 63
4, 276480, Note_on_c, 2, 41, 63
4, 276664, Note_on_c, 2, 41, 0
4, 276664, Note_on_c, 2, 53, 0
4, 276672, Note_on_c, 2, 53, 63
4, 276672, Note_on_c, 2, 41, 63
4, 276856, Note_on_c, 2, 41, 0
4, 276856, Note_on_c, 2, 53, 0
4, 276864, Note_on_c, 2, 53, 63
4, 276864, Note_on_c, 2, 41, 63
4, 277240, Note_on_c, 2, 41, 0
4, 277240, Note_on_c, 2, 53, 0
4, 278016, Note_on_c, 2, 48, 63
4, 278016, Note_on_c, 2, 36, 63
4, 278392, Note_on_c, 2, 36, 0
4, 278392, Note_on_c, 2, 48, 0
4, 278784, Note_on_c, 2, 48, 63
4, 278784, Note_on_c, 2, 36, 63
4, 279160, Note_on_c, 2, 36, 0
4, 279160, Note_on_c, 2, 48, 0
4, 279552, Note_on_c, 2, 53, 63
4, 279552, Note_on_c, 2, 41, 63
4, 279736, Note_on_c, 2, 41, 0
4, 279736, Note_on_c, 2, 53, 0
4, 279744, Note_on_c, 2, 53, 63
4, 279744, Note_on_c, 2, 41, 63
4, 279928, Note_on_c, 2, 41, 0
4, 279928, Note_on_c, 2, 53, 0
4, 279936, Note_on_c, 2, 53, 63
4, 279936, Note_on_c, 2, 41, 63
4, 280312, Note_on_c, 2, 41, 0
4, 280312, Note_on_c, 2, 53, 0
4, 281088, Note_on_c, 2, 48, 63
4, 281088, Note_on_c, 2, 36, 63
4, 281464, Note_on_c, 2, 36, 0
4, 281464, Note_on_c, 2, 48, 0
4, 281856, Note_on_c, 2, 48, 63
4, 281856, Note_on_c, 2, 36, 63
4, 282232, Note_on_c, 2, 36, 0
4, 282232, Note_on_c, 2, 48, 0
4, 282624, Note_on_c, 2, 53, 63
4, 282624, Note_on_c, 2, 41, 63
4, 282808, Note_on_c, 2, 41, 0
4, 282808, Note_on_c, 2, 53, 0
4, 282816, Note_on_c, 2, 53, 63
4, 282816, Note_on_c, 2, 41, 63
4, 283000, Note_on_c, 2, 41, 0
4, 283000, Note_on_c, 2, 53, 0
4, 283008, Note_on_c, 2, 53, 63
4, 283008, Note_on_c, 2, 41, 63
4, 283384, Note_on_c, 2, 41, 0
4, 283384, Note_on_c, 2, 53, 0
4, 284160, Note_on_c, 2, 53, 63
4, 284160, Note_on_c, 2, 41, 63
4, 284344, Note_on_c, 2, 41, 0
4, 284344, Note_on_c, 2, 53, 0
4, 284352, Note_on_c, 2, 53, 63
4, 284352, Note_on_c, 2, 41, 63
4, 284536, Note_on_c, 2, 41, 0
4, 284536, Note_on_c, 2, 53, 0
4, 284544, Note_on_c, 2, 53, 63
4, 284544, Note_on_c, 2, 41, 63
4, 284920, Note_on_c, 2, 41, 0
4, 284920, Note_on_c, 2, 53, 0
4, 285696, Note_on_c, 2, 53, 63
4, 285696, Note_on_c, 2, 41, 63
4, 285880, Note_on_c, 2, 41, 0
4, 285880, Note_on_c, 2, 53, 0
4, 285888, Note_on_c, 2, 53, 63
4, 285888, Note_on_c, 2, 41, 63
4, 286072, Note_on_c, 2, 41, 0
4, 286072, Note_on_c, 2, 53, 0
4, 286080, Note_on_c, 2, 53, 63
4, 286080, Note_on_c, 2, 41, 63
4, 286456, Note_on_c, 2, 41, 0
4, 286456, Note_on_c, 2, 53, 0
4, 287616, Note_on_c, 2, 51, 63
4, 287616, Note_on_c, 2, 39, 63
4, 287992, Note_on_c, 2, 39, 0
4, 287992, Note_on_c, 2, 51, 0
4, 288000, Note_on_c, 2, 50, 63
4, 288000, Note_on_c, 2, 38, 63
4, 288376, Note_on_c, 2, 38, 0
4, 288376, Note_on_c, 2, 50, 0
4, 288384, Note_on_c, 2, 51, 63
4, 288384, Note_on_c, 2, 39, 63
4, 288760, Note_on_c, 2, 39, 0
4, 288760, Note_on_c, 2, 51, 0
4, 288768, Note_on_c, 2, 50, 63
4, 288768, Note_on_c, 2, 38, 63
4, 288952, Note_on_c, 2, 38, 0
4, 288952, Note_on_c, 2, 50, 0
4, 289152, Note_on_c, 2, 50, 63
4, 289152, Note_on_c, 2, 38, 63
4, 289336, Note_on_c, 2, 38, 0
4, 289336, Note_on_c, 2, 50, 0
4, 289536, Note_on_c, 2, 50, 63
4, 289536, Note_on_c, 2, 38, 63
4, 289720, Note_on_c, 2, 38, 0
4, 289720, Note_on_c, 2, 50, 0
4, 289920, Note_on_c, 2, 50, 63
4, 289920, Note_on_c, 2, 38, 63
4, 290104, Note_on_c, 2, 38, 0
4, 290104, Note_on_c, 2, 50, 0
4, 290304, Note_on_c, 2, 50, 63
4, 290304, Note_on_c, 2, 38, 63
4, 290488, Note_on_c, 2, 38, 0
4, 290488, Note_on_c, 2, 50, 0
4, 290688, Note_on_c, 2, 50, 63
4, 290688, Note_on_c, 2, 38, 63
4, 290872, Note_on_c, 2, 38, 0
4, 290872, Note_on_c, 2, 50, 0
4, 291072, Note_on_c, 2, 50, 63
4, 291072, Note_on_c, 2, 38, 63
4, 291256, Note_on_c, 2, 38, 0
4, 291256, Note_on_c, 2, 50, 0
4, 291456, Note_on_c, 2, 50, 63
4, 291456, Note_on_c, 2, 38, 63
4, 291640, Note_on_c, 2, 38, 0
4, 291640, Note_on_c, 2, 50, 0
4, 291840, Note_on_c, 2, 55, 63
4, 291840, Note_on_c, 2, 43, 63
4, 292216, Note_on_c, 2, 43, 0
4, 292216, Note_on_c, 2, 55, 0
4, 294912, Note_on_c, 2, 62, 92
4, 294912, Note_on_c, 2, 50, 92
4, 295096, Note_on_c, 2, 50, 0
4, 295096, Note_on_c, 2, 62, 0
4, 295104, Note_on_c, 2, 62, 92
4, 295104, Note_on_c, 2, 50, 92
4, 295288, Note_on_c, 2, 50, 0
4, 295288, Note_on_c, 2, 62, 0
4, 295296, Note_on_c, 2, 62, 92
4, 295296, Note_on_c, 2, 50, 92
4, 295480, Note_on_c, 2, 50, 0
4, 295480, Note_on_c, 2, 62, 0
4, 295488, Note_on_c, 2, 62, 92
4, 295488, Note_on_c, 2, 50, 92
4, 295672, Note_on_c, 2, 50, 0
4, 295672, Note_on_c, 2, 62, 0
4, 295680, Note_on_c, 2, 62, 92
4, 295680, Note_on_c, 2, 50, 92
4, 295864, Note_on_c, 2, 50, 0
4, 295864, Note_on_c, 2, 62, 0
4, 295872, Note_on_c, 2, 62, 92
4, 295872, Note_on_c, 2, 50, 92
4, 296056, Note_on_c, 2, 50, 0
4, 296056, Note_on_c, 2, 62, 0
4, 296064, Note_on_c, 2, 62, 92
4, 296064, Note_on_c, 2, 50, 92
4, 296248, Note_on_c, 2, 50, 0
4, 296248, Note_on_c, 2, 62, 0
4, 296256, Note_on_c, 2, 62, 92
4, 296256, Note_on_c, 2, 50, 92
4, 296440, Note_on_c, 2, 50, 0
4, 296440, Note_on_c, 2, 62, 0
4, 296448, Note_on_c, 2, 62, 92
4, 296448, Note_on_c, 2, 50, 92
4, 296632, Note_on_c, 2, 50, 0
4, 296632, Note_on_c, 2, 62, 0
4, 296640, Note_on_c, 2, 62, 92
4, 296640, Note_on_c, 2, 50, 92
4, 296824, Note_on_c, 2, 50, 0
4, 296824, Note_on_c, 2, 62, 0
4, 296832, Note_on_c, 2, 62, 92
4, 296832, Note_on_c, 2, 50, 92
4, 297016, Note_on_c, 2, 50, 0
4, 297016, Note_on_c, 2, 62, 0
4, 297024, Note_on_c, 2, 62, 92
4, 297024, Note_on_c, 2, 50, 92
4, 297208, Note_on_c, 2, 50, 0
4, 297208, Note_on_c, 2, 62, 0
4, 297216, Note_on_c, 2, 62, 92
4, 297216, Note_on_c, 2, 50, 92
4, 297400, Note_on_c, 2, 50, 0
4, 297400, Note_on_c, 2, 62, 0
4, 297408, Note_on_c, 2, 62, 92
4, 297408, Note_on_c, 2, 50, 92
4, 297592, Note_on_c, 2, 50, 0
4, 297592, Note_on_c, 2, 62, 0
4, 297600, Note_on_c, 2, 62, 92
4, 297600, Note_on_c, 2, 50, 92
4, 297784, Note_on_c, 2, 50, 0
4, 297784, Note_on_c, 2, 62, 0
4, 297792, Note_on_c, 2, 62, 92
4, 297792, Note_on_c, 2, 50, 92
4, 297976, Note_on_c, 2, 50, 0
4, 297976, Note_on_c, 2, 62, 0
4, 297984, Note_on_c, 2, 62, 92
4, 297984, Note_on_c, 2, 50, 92
4, 298360, Note_on_c, 2, 50, 0
4, 298360, Note_on_c, 2, 62, 0
4, 299904, Note_on_c, 2, 62, 63
4, 299904, Note_on_c, 2, 50, 63
4, 300088, Note_on_c, 2, 50, 0
4, 300088, Note_on_c, 2, 62, 0
4, 300288, Note_on_c, 2, 62, 63
4, 300288, Note_on_c, 2, 50, 63
4, 300472, Note_on_c, 2, 50, 0
4, 300472, Note_on_c, 2, 62, 0
4, 300672, Note_on_c, 2, 62, 63
4, 300672, Note_on_c, 2, 50, 63
4, 300856, Note_on_c, 2, 50, 0
4, 300856, Note_on_c, 2, 62, 0
4, 301056, Note_on_c, 2, 60, 63
4, 301056, Note_on_c, 2, 48, 63
4, 301432, Note_on_c, 2, 48, 0
4, 301432, Note_on_c, 2, 60, 0
4, 302976, Note_on_c, 2, 60, 63
4, 302976, Note_on_c, 2, 48, 63
4, 303160, Note_on_c, 2, 48, 0
4, 303160, Note_on_c, 2, 60, 0
4, 303360, Note_on_c, 2, 60, 63
4, 303360, Note_on_c, 2, 48, 63
4, 303544, Note_on_c, 2, 48, 0
4, 303544, Note_on_c, 2, 60, 0
4, 303744, Note_on_c, 2, 60, 63
4, 303744, Note_on_c, 2, 48, 63
4, 303928, Note_on_c, 2, 48, 0
4, 303928, Note_on_c, 2, 60, 0
4, 304128, Note_on_c, 2, 58, 63
4, 304128, Note_on_c, 2, 46, 63
4, 304504, Note_on_c, 2, 46, 0
4, 304504, Note_on_c, 2, 58, 0
4, 305664, Note_on_c, 2, 58, 63
4, 305664, Note_on_c, 2, 46, 63
4, 306040, Note_on_c, 2, 46, 0
4, 306040, Note_on_c, 2, 58, 0
4, 307200, Note_on_c, 2, 63, 63
4, 307200, Note_on_c, 2, 51, 63
4, 307576, Note_on_c, 2, 51, 0
4, 307576, Note_on_c, 2, 63, 0
4, 317952, Note_on_c, 2, 64, 63
4, 318328, Note_on_c, 2, 64, 0
4, 318336, Note_on_c, 2, 61, 63
4, 319096, Note_on_c, 2, 61, 0
4, 319104, Note_on_c, 2, 61, 63
4, 319480, Note_on_c, 2, 61, 0
4, 319488, Note_on_c, 2, 62, 63
4, 319864, Note_on_c, 2, 62, 0
4, 321024, Note_on_c, 2, 62, 63
4, 321400, Note_on_c, 2, 62, 0
4, 321408, Note_on_c, 2, 59, 63
4, 322168, Note_on_c, 2, 59, 0
4, 322176, Note_on_c, 2, 59, 63
4, 322552, Note_on_c, 2, 59, 0
4, 322560, Note_on_c, 2, 60, 63
4, 322648, Note_on_c, 2, 60, 0
4, 322752, Note_on_c, 2, 60, 63
4, 322840, Note_on_c, 2, 60, 0
4, 322944, Note_on_c, 2, 60, 63
4, 323320, Note_on_c, 2, 60, 0
4, 324096, Note_on_c, 2, 60, 63
4, 324184, Note_on_c, 2, 60, 0
4, 324288, Note_on_c, 2, 60, 63
4, 324376, Note_on_c, 2, 60, 0
4, 324480, Note_on_c, 2, 60, 63
4, 324856, Note_on_c, 2, 60, 0
4, 325632, Note_on_c, 2, 58, 63
4, 325816, Note_on_c, 2, 58, 0
4, 326400, Note_on_c, 2, 54, 63
4, 326584, Note_on_c, 2, 54, 0
4, 327168, Note_on_c, 2, 43, 63
4, 327352, Note_on_c, 2, 43, 0
4, 327552, Note_on_c, 2, 46, 63
4, 327736, Note_on_c, 2, 46, 0
4, 327936, Note_on_c, 2, 48, 63
4, 328120, Note_on_c, 2, 48, 0
4, 328320, Note_on_c, 2, 51, 63
4, 328504, Note_on_c, 2, 51, 0
4, 328704, Note_on_c, 2, 50, 63
4, 329080, Note_on_c, 2, 50, 0
4, 329472, Note_on_c, 2, 38, 63
4, 329848, Note_on_c, 2, 38, 0
4, 330240, Note_on_c, 2, 55, 92
4, 330240, Note_on_c, 2, 43, 92
4, 330424, Note_on_c, 2, 43, 0
4, 330424, Note_on_c, 2, 55, 0
4, 330432, Note_on_c, 2, 57, 92
4, 330432, Note_on_c, 2, 45, 92
4, 330616, Note_on_c, 2, 45, 0
4, 330616, Note_on_c, 2, 57, 0
4, 330624, Note_on_c, 2, 58, 92
4, 330624, Note_on_c, 2, 46, 92
4, 330808, Note_on_c, 2, 46, 0
4, 330808, Note_on_c, 2, 58, 0
4, 330816, Note_on_c, 2, 59, 92
4, 330816, Note_on_c, 2, 47, 92
4, 331000, Note_on_c, 2, 47, 0
4, 331000, Note_on_c, 2, 59, 0
4, 331008, Note_on_c, 2, 60, 92
4, 331008, Note_on_c, 2, 48, 92
4, 331192, Note_on_c, 2, 48, 0
4, 331192, Note_on_c, 2, 60, 0
4, 331200, Note_on_c, 2, 62, 92
4, 331200, Note_on_c, 2, 50, 92
4, 331384, Note_on_c, 2, 50, 0
4, 331384, Note_on_c, 2, 62, 0
4, 331392, Note_on_c, 2, 63, 92
4, 331392, Note_on_c, 2, 51, 92
4, 331576, Note_on_c, 2, 51, 0
4, 331576, Note_on_c, 2, 63, 0
4, 331584, Note_on_c, 2, 59, 92
4, 331584, Note_on_c, 2, 47, 92
4, 331768, Note_on_c, 2, 47, 0
4, 331768, Note_on_c, 2, 59, 0
4, 331776, Note_on_c, 2, 60, 92
4, 331776, Note_on_c, 2, 48, 92
4, 332152, Note_on_c, 2, 48, 0
4, 332152, Note_on_c, 2, 60, 0
4, 333312, Note_on_c, 2, 50, 63
4, 333312, Note_on_c, 2, 38, 63
4, 333688, Note_on_c, 2, 38, 0
4, 333688, Note_on_c, 2, 50, 0
4, 334848, Note_on_c, 2, 51, 63
4, 334848, Note_on_c, 2, 39, 63
4, 335224, Note_on_c, 2, 39, 0
4, 335224, Note_on_c, 2, 51, 0
4, 336384, Note_on_c, 2, 52, 63
4, 336384, Note_on_c, 2, 40, 63
4, 336760, Note_on_c, 2, 40, 0
4, 336760, Note_on_c, 2, 52, 0
4, 337920, Note_on_c, 2, 50, 63
4, 337920, Note_on_c, 2, 38, 63
4, 338104, Note_on_c, 2, 38, 0
4, 338104, Note_on_c, 2, 50, 0
4, 338112, Note_on_c, 2, 50, 63
4, 338112, Note_on_c, 2, 38, 63
4, 338296, Note_on_c, 2, 38, 0
4, 338296, Note_on_c, 2, 50, 0
4, 338304, Note_on_c, 2, 50, 63
4, 338304, Note_on_c, 2, 38, 63
4, 338680, Note_on_c, 2, 38, 0
4, 338680, Note_on_c, 2, 50, 0
4, 339456, Note_on_c, 2, 50, 63
4, 339456, Note_on_c, 2, 38, 63
4, 339640, Note_on_c, 2, 38, 0
4, 339640, Note_on_c, 2, 50, 0
4, 339648, Note_on_c, 2, 50, 63
4, 339648, Note_on_c, 2, 38, 63
4, 339832, Note_on_c, 2, 38, 0
4, 339832, Note_on_c, 2, 50, 0
4, 339840, Note_on_c, 2, 50, 63
4, 339840, Note_on_c, 2, 38, 63
4, 340216, Note_on_c, 2, 38, 0
4, 340216, Note_on_c, 2, 50, 0
4, 340992, Note_on_c, 2, 62, 63
4, 340992, Note_on_c, 2, 50, 63
4, 341176, Note_on_c, 2, 50, 0
4, 341176, Note_on_c, 2, 62, 0
4, 341184, Note_on_c, 2, 62, 63
4, 341184, Note_on_c, 2, 50, 63
4, 341368, Note_on_c, 2, 50, 0
4, 341368, Note_on_c, 2, 62, 0
4, 341376, Note_on_c, 2, 62, 63
4, 341376, Note_on_c, 2, 50, 63
4, 341752, Note_on_c, 2, 50, 0
4, 341752, Note_on_c, 2, 62, 0
4, 344448, Note_on_c, 2, 50, 63
4, 344448, Note_on_c, 2, 38, 63
4, 344824, Note_on_c, 2, 38, 0
4, 344824, Note_on_c, 2, 50, 0
4, 345600, Note_on_c, 2, 62, 63
4, 345600, Note_on_c, 2, 50, 63
4, 345976, Note_on_c, 2, 50, 0
4, 345976, Note_on_c, 2, 62, 0
4, 346368, Note_on_c, 2, 62, 63
4, 346368, Note_on_c, 2, 50, 63
4, 346744, Note_on_c, 2, 50, 0
4, 346744, Note_on_c, 2, 62, 0
4, 347136, Note_on_c, 2, 50, 64
4, 347136, Note_on_c, 2, 38, 64
4, 347320, Note_on_c, 2, 38, 0
4, 347320, Note_on_c, 2, 50, 0
4, 347328, Note_on_c, 2, 50, 68
4, 347328, Note_on_c, 2, 38, 68
4, 347512, Note_on_c, 2, 38, 0
4, 347512, Note_on_c, 2, 50, 0
4, 347520, Note_on_c, 2, 50, 71
4, 347520, Note_on_c, 2, 38, 71
4, 347704, Note_on_c, 2, 38, 0
4, 347704, Note_on_c, 2, 50, 0
4, 347712, Note_on_c, 2, 50, 75
4, 347712, Note_on_c, 2, 38, 75
4, 347896, Note_on_c, 2, 38, 0
4, 347896, Note_on_c, 2, 50, 0
4, 347904, Note_on_c, 2, 50, 79
4, 347904, Note_on_c, 2, 38, 79
4, 348088, Note_on_c, 2, 38, 0
4, 348088, Note_on_c, 2, 50, 0
4, 348096, Note_on_c, 2, 50, 83
4, 348096, Note_on_c, 2, 38, 83
4, 348280, Note_on_c, 2, 38, 0
4, 348280, Note_on_c, 2, 50, 0
4, 348288, Note_on_c, 2, 50, 86
4, 348288, Note_on_c, 2, 38, 86
4, 348472, Note_on_c, 2, 38, 0
4, 348472, Note_on_c, 2, 50, 0
4, 348480, Note_on_c, 2, 50, 89
4, 348480, Note_on_c, 2, 38, 89
4, 348664, Note_on_c, 2, 38, 0
4, 348664, Note_on_c, 2, 50, 0
4, 348672, Note_on_c, 2, 55, 92
4, 348672, Note_on_c, 2, 43, 92
4, 348760, Note_on_c, 2, 43, 0
4, 348760, Note_on_c, 2, 55, 0
4, 348864, Note_on_c, 2, 54, 92
4, 348864, Note_on_c, 2, 42, 92
4, 348952, Note_on_c, 2, 42, 0
4, 348952, Note_on_c, 2, 54, 0
4, 349056, Note_on_c, 2, 55, 92
4, 349056, Note_on_c, 2, 43, 92
4, 349144, Note_on_c, 2, 43, 0
4, 349144, Note_on_c, 2, 55, 0
4, 349248, Note_on_c, 2, 57, 92
4, 349248, Note_on_c, 2, 45, 92
4, 349336, Note_on_c, 2, 45, 0
4, 349336, Note_on_c, 2, 57, 0
4, 349440, Note_on_c, 2, 58, 92
4, 349440, Note_on_c, 2, 46, 92
4, 349528, Note_on_c, 2, 46, 0
4, 349528, Note_on_c, 2, 58, 0
4, 349632, Note_on_c, 2, 57, 92
4, 349632, Note_on_c, 2, 45, 92
4, 349720, Note_on_c, 2, 45, 0
4, 349720, Note_on_c, 2, 57, 0
4, 349824, Note_on_c, 2, 58, 92
4, 349824, Note_on_c, 2, 46, 92
4, 349912, Note_on_c, 2, 46, 0
4, 349912, Note_on_c, 2, 58, 0
4, 350016, Note_on_c, 2, 60, 92
4, 350016, Note_on_c, 2, 48, 92
4, 350104, Note_on_c, 2, 48, 0
4, 350104, Note_on_c, 2, 60, 0
4, 350208, Note_on_c, 2, 62, 92
4, 350208, Note_on_c, 2, 50, 92
4, 350296, Note_on_c, 2, 50, 0
4, 350296, Note_on_c, 2, 62, 0
4, 350400, Note_on_c, 2, 61, 92
4, 350400, Note_on_c, 2, 49, 92
4, 350488, Note_on_c, 2, 49, 0
4, 350488, Note_on_c, 2, 61, 0
4, 350592, Note_on_c, 2, 62, 92
4, 350592, Note_on_c, 2, 50, 92
4, 350680, Note_on_c, 2, 50, 0
4, 350680, Note_on_c, 2, 62, 0
4, 350784, Note_on_c, 2, 63, 92
4, 350784, Note_on_c, 2, 51, 92
4, 350872, Note_on_c, 2, 51, 0
4, 350872, Note_on_c, 2, 63, 0
4, 350976, Note_on_c, 2, 62, 92
4, 350976, Note_on_c, 2, 50, 92
4, 351064, Note_on_c, 2, 50, 0
4, 351064, Note_on_c, 2, 62, 0
4, 351168, Note_on_c, 2, 60, 92
4, 351168, Note_on_c, 2, 48, 92
4, 351256, Note_on_c, 2, 48, 0
4, 351256, Note_on_c, 2, 60, 0
4, 351360, Note_on_c, 2, 58, 92
4, 351360, Note_on_c, 2, 46, 92
4, 351448, Note_on_c, 2, 46, 0
4, 351448, Note_on_c, 2, 58, 0
4, 351552, Note_on_c, 2, 57, 92
4, 351552, Note_on_c, 2, 45, 92
4, 351640, Note_on_c, 2, 45, 0
4, 351640, Note_on_c, 2, 57, 0
4, 351744, Note_on_c, 2, 55, 63
4, 351744, Note_on_c, 2, 43, 63
4, 352120, Note_on_c, 2, 43, 0
4, 352120, Note_on_c, 2, 55, 0
4, 357888, Note_on_c, 2, 53, 92
4, 357888, Note_on_c, 2, 41, 92
4, 357976, Note_on_c, 2, 41, 0
4, 357976, Note_on_c, 2, 53, 0
4, 358080, Note_on_c, 2, 52, 92
4, 358080, Note_on_c, 2, 40, 92
4, 358168, Note_on_c, 2, 40, 0
4, 358168, Note_on_c, 2, 52, 0
4, 358272, Note_on_c, 2, 53, 92
4, 358272, Note_on_c, 2, 41, 92
4, 358360, Note_on_c, 2, 41, 0
4, 358360, Note_on_c, 2, 53, 0
4, 358464, Note_on_c, 2, 55, 92
4, 358464, Note_on_c, 2, 43, 92
4, 358552, Note_on_c, 2, 43, 0
4, 358552, Note_on_c, 2, 55, 0
4, 358656, Note_on_c, 2, 56, 92
4, 358656, Note_on_c, 2, 44, 92
4, 358744, Note_on_c, 2, 44, 0
4, 358744, Note_on_c, 2, 56, 0
4, 358848, Note_on_c, 2, 55, 92
4, 358848, Note_on_c, 2, 43, 92
4, 358936, Note_on_c, 2, 43, 0
4, 358936, Note_on_c, 2, 55, 0
4, 359040, Note_on_c, 2, 56, 92
4, 359040, Note_on_c, 2, 44, 92
4, 359128, Note_on_c, 2, 44, 0
4, 359128, Note_on_c, 2, 56, 0
4, 359232, Note_on_c, 2, 58, 92
4, 359232, Note_on_c, 2, 46, 92
4, 359320, Note_on_c, 2, 46, 0
4, 359320, Note_on_c, 2, 58, 0
4, 359424, Note_on_c, 2, 60, 92
4, 359424, Note_on_c, 2, 48, 92
4, 359512, Note_on_c, 2, 48, 0
4, 359512, Note_on_c, 2, 60, 0
4, 359616, Note_on_c, 2, 59, 92
4, 359616, Note_on_c, 2, 47, 92
4, 359704, Note_on_c, 2, 47, 0
4, 359704, Note_on_c, 2, 59, 0
4, 359808, Note_on_c, 2, 60, 92
4, 359808, Note_on_c, 2, 48, 92
4, 359896, Note_on_c, 2, 48, 0
4, 359896, Note_on_c, 2, 60, 0
4, 360000, Note_on_c, 2, 61, 92
4, 360000, Note_on_c, 2, 49, 92
4, 360088, Note_on_c, 2, 49, 0
4, 360088, Note_on_c, 2, 61, 0
4, 360192, Note_on_c, 2, 60, 92
4, 360192, Note_on_c, 2, 48, 92
4, 360280, Note_on_c, 2, 48, 0
4, 360280, Note_on_c, 2, 60, 0
4, 360384, Note_on_c, 2, 58, 92
4, 360384, Note_on_c, 2, 46, 92
4, 360472, Note_on_c, 2, 46, 0
4, 360472, Note_on_c, 2, 58, 0
4, 360576, Note_on_c, 2, 56, 92
4, 360576, Note_on_c, 2, 44, 92
4, 360664, Note_on_c, 2, 44, 0
4, 360664, Note_on_c, 2, 56, 0
4, 360768, Note_on_c, 2, 55, 92
4, 360768, Note_on_c, 2, 43, 92
4, 360856, Note_on_c, 2, 43, 0
4, 360856, Note_on_c, 2, 55, 0
4, 360960, Note_on_c, 2, 53, 63
4, 360960, Note_on_c, 2, 41, 63
4, 361336, Note_on_c, 2, 41, 0
4, 361336, Note_on_c, 2, 53, 0
4, 367104, Note_on_c, 2, 55, 92
4, 367104, Note_on_c, 2, 51, 92
4, 367288, Note_on_c, 2, 51, 0
4, 367288, Note_on_c, 2, 55, 0
4, 367296, Note_on_c, 2, 46, 92
4, 367480, Note_on_c, 2, 46, 0
4, 367488, Note_on_c, 2, 55, 92
4, 367488, Note_on_c, 2, 51, 92
4, 367672, Note_on_c, 2, 51, 0
4, 367672, Note_on_c, 2, 55, 0
4, 367680, Note_on_c, 2, 46, 92
4, 367864, Note_on_c, 2, 46, 0
4, 367872, Note_on_c, 2, 55, 92
4, 367872, Note_on_c, 2, 51, 92
4, 368056, Note_on_c, 2, 51, 0
4, 368056, Note_on_c, 2, 55, 0
4, 368064, Note_on_c, 2, 46, 92
4, 368248, Note_on_c, 2, 46, 0
4, 368256, Note_on_c, 2, 55, 92
4, 368256, Note_on_c, 2, 51, 92
4, 368440, Note_on_c, 2, 51, 0
4, 368440, Note_on_c, 2, 55, 0
4, 368448, Note_on_c, 2, 46, 92
4, 368632, Note_on_c, 2, 46, 0
4, 368640, Note_on_c, 2, 53, 92
4, 368640, Note_on_c, 2, 50, 92
4, 368824, Note_on_c, 2, 50, 0
4, 368824, Note_on_c, 2, 53, 0
4, 368832, Note_on_c, 2, 46, 92
4, 369016, Note_on_c, 2, 46, 0
4, 369024, Note_on_c, 2, 53, 92
4, 369024, Note_on_c, 2, 50, 92
4, 369208, Note_on_c, 2, 50, 0
4, 369208, Note_on_c, 2, 53, 0
4, 369216, Note_on_c, 2, 46, 92
4, 369400, Note_on_c, 2, 46, 0
4, 369408, Note_on_c, 2, 56, 92
4, 369408, Note_on_c, 2, 53, 92
4, 369592, Note_on_c, 2, 53, 0
4, 369592, Note_on_c, 2, 56, 0
4, 369600, Note_on_c, 2, 46, 92
4, 369784, Note_on_c, 2, 46, 0
4, 369792, Note_on_c, 2, 56, 92
4, 369792, Note_on_c, 2, 53, 92
4, 369976, Note_on_c, 2, 53, 0
4, 369976, Note_on_c, 2, 56, 0
4, 369984, Note_on_c, 2, 46, 92
4, 370168, Note_on_c, 2, 46, 0
4, 370176, Note_on_c, 2, 55, 92
4, 370176, Note_on_c, 2, 51, 92
4, 370360, Note_on_c, 2, 51, 0
4, 370360, Note_on_c, 2, 55, 0
4, 370368, Note_on_c, 2, 46, 92
4, 370552, Note_on_c, 2, 46, 0
4, 370560, Note_on_c, 2, 55, 92
4, 370560, Note_on_c, 2, 51, 92
4, 370744, Note_on_c, 2, 51, 0
4, 370744, Note_on_c, 2, 55, 0
4, 370752, Note_on_c, 2, 46, 92
4, 370936, Note_on_c, 2, 46, 0
4, 370944, Note_on_c, 2, 55, 92
4, 370944, Note_on_c, 2, 51, 92
4, 371128, Note_on_c, 2, 51, 0
4, 371128, Note_on_c, 2, 55, 0
4, 371136, Note_on_c, 2, 46, 92
4, 371320, Note_on_c, 2, 46, 0
4, 371328, Note_on_c, 2, 55, 92
4, 371328, Note_on_c, 2, 51, 92
4, 371512, Note_on_c, 2, 51, 0
4, 371512, Note_on_c, 2, 55, 0
4, 371520, Note_on_c, 2, 46, 92
4, 371704, Note_on_c, 2, 46, 0
4, 371712, Note_on_c, 2, 58, 92
4, 371712, Note_on_c, 2, 53, 92
4, 371896, Note_on_c, 2, 53, 0
4, 371896, Note_on_c, 2, 58, 0
4, 371904, Note_on_c, 2, 46, 92
4, 372088, Note_on_c, 2, 46, 0
4, 372096, Note_on_c, 2, 58, 92
4, 372096, Note_on_c, 2, 53, 92
4, 372280, Note_on_c, 2, 53, 0
4, 372280, Note_on_c, 2, 58, 0
4, 372288, Note_on_c, 2, 46, 92
4, 372472, Note_on_c, 2, 46, 0
4, 372480, Note_on_c, 2, 58, 92
4, 372480, Note_on_c, 2, 50, 92
4, 372664, Note_on_c, 2, 50, 0
4, 372664, Note_on_c, 2, 58, 0
4, 372672, Note_on_c, 2, 46, 92
4, 372856, Note_on_c, 2, 46, 0
4, 372864, Note_on_c, 2, 58, 92
4, 372864, Note_on_c, 2, 50, 92
4, 373048, Note_on_c, 2, 50, 0
4, 373048, Note_on_c, 2, 58, 0
4, 373056, Note_on_c, 2, 46, 92
4, 373240, Note_on_c, 2, 46, 0
4, 373248, Note_on_c, 2, 51, 92
4, 373624, Note_on_c, 2, 51, 0
4, 373824, Note_on_c, 2, 56, 92
4, 373824, Note_on_c, 2, 62, 92
4, 374008, Note_on_c, 2, 62, 0
4, 374008, Note_on_c, 2, 56, 0
4, 374016, Note_on_c, 2, 63, 92
4, 374016, Note_on_c, 2, 55, 92
4, 374392, Note_on_c, 2, 55, 0
4, 374392, Note_on_c, 2, 63, 0
4, 374592, Note_on_c, 2, 62, 92
4, 374592, Note_on_c, 2, 59, 92
4, 374776, Note_on_c, 2, 59, 0
4, 374776, Note_on_c, 2, 62, 0
4, 374784, Note_on_c, 2, 60, 92
4, 375160, Note_on_c, 2, 60, 0
4, 375360, Note_on_c, 2, 59, 92
4, 375360, Note_on_c, 2, 53, 92
4, 375544, Note_on_c, 2, 53, 0
4, 375544, Note_on_c, 2, 59, 0
4, 375552, Note_on_c, 2, 60, 92
4, 375552, Note_on_c, 2, 51, 92
4, 375928, Note_on_c, 2, 51, 0
4, 375928, Note_on_c, 2, 60, 0
4, 376128, Note_on_c, 2, 55, 92
4, 376128, Note_on_c, 2, 63, 92
4, 376312, Note_on_c, 2, 63, 0
4, 376312, Note_on_c, 2, 55, 0
4, 376320, Note_on_c, 2, 63, 92
4, 376320, Note_on_c, 2, 57, 92
4, 376696, Note_on_c, 2, 57, 0
4, 376696, Note_on_c, 2, 63, 0
4, 376896, Note_on_c, 2, 67, 92
4, 376896, Note_on_c, 2, 64, 92
4, 377080, Note_on_c, 2, 64, 0
4, 377080, Note_on_c, 2, 67, 0
4, 377088, Note_on_c, 2, 65, 92
4, 377464, Note_on_c, 2, 65, 0
4, 377664, Note_on_c, 2, 64, 92
4, 377664, Note_on_c, 2, 58, 92
4, 377848, Note_on_c, 2, 58, 0
4, 377848, Note_on_c, 2, 64, 0
4, 377856, Note_on_c, 2, 57, 92
4, 378232, Note_on_c, 2, 57, 0
4, 378336, Note_on_c, 2, 41, 92
4, 378424, Note_on_c, 2, 41, 0
4, 378432, Note_on_c, 2, 43, 92
4, 378520, Note_on_c, 2, 43, 0
4, 378528, Note_on_c, 2, 45, 92
4, 378616, Note_on_c, 2, 45, 0
4, 378624, Note_on_c, 2, 46, 92
4, 378712, Note_on_c, 2, 46, 0
4, 378720, Note_on_c, 2, 45, 92
4, 378808, Note_on_c, 2, 45, 0
4, 378816, Note_on_c, 2, 46, 92
4, 378904, Note_on_c, 2, 46, 0
4, 378912, Note_on_c, 2, 48, 92
4, 379000, Note_on_c, 2, 48, 0
4, 379008, Note_on_c, 2, 50, 92
4, 379096, Note_on_c, 2, 50, 0
4, 379104, Note_on_c, 2, 48, 92
4, 379192, Note_on_c, 2, 48, 0
4, 379200, Note_on_c, 2, 50, 92
4, 379288, Note_on_c, 2, 50, 0
4, 379296, Note_on_c, 2, 52, 92
4, 379384, Note_on_c, 2, 52, 0
4, 379392, Note_on_c, 2, 53, 92
4, 379768, Note_on_c, 2, 53, 0
4, 379872, Note_on_c, 2, 48, 92
4, 379960, Note_on_c, 2, 48, 0
4, 379968, Note_on_c, 2, 50, 92
4, 380056, Note_on_c, 2, 50, 0
4, 380064, Note_on_c, 2, 52, 92
4, 380152, Note_on_c, 2, 52, 0
4, 380160, Note_on_c, 2, 53, 92
4, 380248, Note_on_c, 2, 53, 0
4, 380256, Note_on_c, 2, 55, 92
4, 380344, Note_on_c, 2, 55, 0
4, 380352, Note_on_c, 2, 57, 92
4, 380440, Note_on_c, 2, 57, 0
4, 380448, Note_on_c, 2, 58, 92
4, 380536, Note_on_c, 2, 58, 0
4, 380544, Note_on_c, 2, 60, 92
4, 380632, Note_on_c, 2, 60, 0
4, 380640, Note_on_c, 2, 57, 92
4, 380728, Note_on_c, 2, 57, 0
4, 380736, Note_on_c, 2, 60, 92
4, 380824, Note_on_c, 2, 60, 0
4, 380832, Note_on_c, 2, 57, 92
4, 380920, Note_on_c, 2, 57, 0
4, 380928, Note_on_c, 2, 53, 92
4, 381304, Note_on_c, 2, 53, 0
4, 384384, Note_on_c, 2, 63, 63
4, 384384, Note_on_c, 2, 60, 63
4, 384472, Note_on_c, 2, 60, 0
4, 384472, Note_on_c, 2, 63, 0
4, 384576, Note_on_c, 2, 63, 63
4, 384576, Note_on_c, 2, 60, 63
4, 384664, Note_on_c, 2, 60, 0
4, 384664, Note_on_c, 2, 63, 0
4, 384768, Note_on_c, 2, 62, 63
4, 384768, Note_on_c, 2, 58, 63
4, 384856, Note_on_c, 2, 58, 0
4, 384856, Note_on_c, 2, 62, 0
4, 384960, Note_on_c, 2, 62, 63
4, 384960, Note_on_c, 2, 58, 63
4, 385048, Note_on_c, 2, 58, 0
4, 385048, Note_on_c, 2, 62, 0
4, 385152, Note_on_c, 2, 60, 63
4, 385152, Note_on_c, 2, 57, 63
4, 385240, Note_on_c, 2, 57, 0
4, 385240, Note_on_c, 2, 60, 0
4, 385344, Note_on_c, 2, 60, 63
4, 385344, Note_on_c, 2, 57, 63
4, 385432, Note_on_c, 2, 57, 0
4, 385432, Note_on_c, 2, 60, 0
4, 385536, Note_on_c, 2, 58, 63
4, 385720, Note_on_c, 2, 58, 0
4, 385728, Note_on_c, 2, 58, 63
4, 385912, Note_on_c, 2, 58, 0
4, 385920, Note_on_c, 2, 58, 63
4, 386104, Note_on_c, 2, 58, 0
4, 386112, Note_on_c, 2, 58, 63
4, 386296, Note_on_c, 2, 58, 0
4, 386304, Note_on_c, 2, 58, 63
4, 386488, Note_on_c, 2, 58, 0
4, 386496, Note_on_c, 2, 58, 63
4, 386680, Note_on_c, 2, 58, 0
4, 386688, Note_on_c, 2, 58, 63
4, 386872, Note_on_c, 2, 58, 0
4, 386880, Note_on_c, 2, 58, 63
4, 387064, Note_on_c, 2, 58, 0
4, 387072, Note_on_c, 2, 58, 63
4, 387448, Note_on_c, 2, 58, 0
4, 388032, Note_on_c, 2, 58, 63
4, 388216, Note_on_c, 2, 58, 0
4, 388224, Note_on_c, 2, 62, 63
4, 388408, Note_on_c, 2, 62, 0
4, 388416, Note_on_c, 2, 58, 63
4, 388600, Note_on_c, 2, 58, 0
4, 388608, Note_on_c, 2, 60, 63
4, 388608, Note_on_c, 2, 51, 63
4, 388984, Note_on_c, 2, 51, 0
4, 388984, Note_on_c, 2, 60, 0
4, 388992, Note_on_c, 2, 63, 63
4, 389176, Note_on_c, 2, 63, 0
4, 389376, Note_on_c, 2, 60, 63
4, 389376, Note_on_c, 2, 51, 63
4, 389752, Note_on_c, 2, 51, 0
4, 389752, Note_on_c, 2, 60, 0
4, 389760, Note_on_c, 2, 63, 63
4, 389944, Note_on_c, 2, 63, 0
4, 390336, Note_on_c, 2, 53, 63
4, 390520, Note_on_c, 2, 53, 0
4, 390528, Note_on_c, 2, 53, 63
4, 390712, Note_on_c, 2, 53, 0
4, 390720, Note_on_c, 2, 53, 63
4, 390904, Note_on_c, 2, 53, 0
4, 390912, Note_on_c, 2, 53, 63
4, 391096, Note_on_c, 2, 53, 0
4, 391104, Note_on_c, 2, 65, 63
4, 391288, Note_on_c, 2, 65, 0
4, 391296, Note_on_c, 2, 64, 63
4, 391480, Note_on_c, 2, 64, 0
4, 391488, Note_on_c, 2, 63, 63
4, 391672, Note_on_c, 2, 63, 0
4, 391680, Note_on_c, 2, 62, 63
4, 391864, Note_on_c, 2, 62, 0
4, 391872, Note_on_c, 2, 62, 63
4, 392056, Note_on_c, 2, 62, 0
4, 392064, Note_on_c, 2, 62, 63
4, 392248, Note_on_c, 2, 62, 0
4, 392256, Note_on_c, 2, 62, 63
4, 392440, Note_on_c, 2, 62, 0
4, 392448, Note_on_c, 2, 60, 63
4, 392632, Note_on_c, 2, 60, 0
4, 392640, Note_on_c, 2, 60, 63
4, 392824, Note_on_c, 2, 60, 0
4, 392832, Note_on_c, 2, 58, 63
4, 393016, Note_on_c, 2, 58, 0
4, 393024, Note_on_c, 2, 58, 63
4, 393208, Note_on_c, 2, 58, 0
4, 393216, Note_on_c, 2, 57, 63
4, 393592, Note_on_c, 2, 57, 0
4, 393600, Note_on_c, 2, 65, 63
4, 393976, Note_on_c, 2, 65, 0
4, 393984, Note_on_c, 2, 66, 63
4, 394360, Note_on_c, 2, 66, 0
4, 394368, Note_on_c, 2, 67, 63
4, 394744, Note_on_c, 2, 67, 0
4, 394752, Note_on_c, 2, 63, 63
4, 395128, Note_on_c, 2, 63, 0
4, 395328, Note_on_c, 2, 51, 63
4, 395512, Note_on_c, 2, 51, 0
4, 395520, Note_on_c, 2, 53, 63
4, 395896, Note_on_c, 2, 53, 0
4, 395904, Note_on_c, 2, 57, 63
4, 395904, Note_on_c, 2, 53, 63
4, 396280, Note_on_c, 2, 53, 0
4, 396280, Note_on_c, 2, 57, 0
4, 396288, Note_on_c, 2, 58, 63
4, 396376, Note_on_c, 2, 58, 0
4, 396480, Note_on_c, 2, 62, 63
4, 396480, Note_on_c, 2, 65, 63
4, 396856, Note_on_c, 2, 65, 0
4, 396856, Note_on_c, 2, 62, 0
4, 396864, Note_on_c, 2, 60, 63
4, 396864, Note_on_c, 2, 63, 63
4, 397048, Note_on_c, 2, 63, 0
4, 397048, Note_on_c, 2, 60, 0
4, 397056, Note_on_c, 2, 58, 63
4, 397056, Note_on_c, 2, 62, 63
4, 397144, Note_on_c, 2, 62, 0
4, 397144, Note_on_c, 2, 58, 0
4, 397248, Note_on_c, 2, 53, 63
4, 397248, Note_on_c, 2, 62, 63
4, 397624, Note_on_c, 2, 62, 0
4, 397624, Note_on_c, 2, 53, 0
4, 397632, Note_on_c, 2, 60, 63
4, 397632, Note_on_c, 2, 51, 63
4, 397816, Note_on_c, 2, 51, 0
4, 397816, Note_on_c, 2, 60, 0
4, 397824, Note_on_c, 2, 50, 63
4, 397824, Note_on_c, 2, 46, 63
4, 398008, Note_on_c, 2, 46, 0
4, 398008, Note_on_c, 2, 50, 0
4, 398208, Note_on_c, 2, 58, 63
4, 398392, Note_on_c, 2, 58, 0
4, 398592, Note_on_c, 2, 46, 63
4, 398776, Note_on_c, 2, 46, 0
4, 398976, Note_on_c, 2, 58, 63
4, 399160, Note_on_c, 2, 58, 0
4, 399360, Note_on_c, 2, 46, 63
4, 399544, Note_on_c, 2, 46, 0
4, 399744, Note_on_c, 2, 58, 63
4, 399928, Note_on_c, 2, 58, 0
4, 400128, Note_on_c, 2, 46, 63
4, 400312, Note_on_c, 2, 46, 0
4, 400512, Note_on_c, 2, 58, 63
4, 400696, Note_on_c, 2, 58, 0
4, 400896, Note_on_c, 2, 60, 63
4, 400896, Note_on_c, 2, 51, 63
4, 401272, Note_on_c, 2, 51, 0
4, 401272, Note_on_c, 2, 60, 0
4, 401280, Note_on_c, 2, 63, 63
4, 401464, Note_on_c, 2, 63, 0
4, 401664, Note_on_c, 2, 60, 63
4, 401664, Note_on_c, 2, 51, 63
4, 402040, Note_on_c, 2, 51, 0
4, 402040, Note_on_c, 2, 60, 0
4, 402048, Note_on_c, 2, 63, 63
4, 402232, Note_on_c, 2, 63, 0
4, 402624, Note_on_c, 2, 53, 63
4, 402712, Note_on_c, 2, 53, 0
4, 402816, Note_on_c, 2, 53, 63
4, 402904, Note_on_c, 2, 53, 0
4, 403008, Note_on_c, 2, 53, 63
4, 403096, Note_on_c, 2, 53, 0
4, 403200, Note_on_c, 2, 53, 63
4, 403384, Note_on_c, 2, 53, 0
4, 403392, Note_on_c, 2, 57, 63
4, 403576, Note_on_c, 2, 57, 0
4, 403584, Note_on_c, 2, 60, 63
4, 403768, Note_on_c, 2, 60, 0
4, 403776, Note_on_c, 2, 57, 63
4, 403960, Note_on_c, 2, 57, 0
4, 403968, Note_on_c, 2, 53, 63
4, 404344, Note_on_c, 2, 53, 0
4, 405504, Note_on_c, 2, 55, 63
4, 405504, Note_on_c, 2, 43, 63
4, 406264, Note_on_c, 2, 43, 0
4, 406264, Note_on_c, 2, 55, 0
4, 406272, Note_on_c, 2, 51, 63
4, 406272, Note_on_c, 2, 39, 63
4, 407032, Note_on_c, 2, 39, 0
4, 407032, Note_on_c, 2, 51, 0
4, 407040, Note_on_c, 2, 50, 63
4, 407040, Note_on_c, 2, 38, 63
4, 407416, Note_on_c, 2, 38, 0
4, 407416, Note_on_c, 2, 50, 0
4, 408960, Note_on_c, 2, 63, 63
4, 408960, Note_on_c, 2, 67, 63
4, 409336, Note_on_c, 2, 67, 0
4, 409336, Note_on_c, 2, 63, 0
4, 409344, Note_on_c, 2, 65, 63
4, 409720, Note_on_c, 2, 65, 0
4, 409728, Note_on_c, 2, 53, 63
4, 410104, Note_on_c, 2, 53, 0
4, 410112, Note_on_c, 2, 58, 63
4, 410488, Note_on_c, 2, 58, 0
4, 410880, Note_on_c, 2, 51, 63
4, 411256, Note_on_c, 2, 51, 0
4, 411648, Note_on_c, 2, 50, 63
4, 412024, Note_on_c, 2, 50, 0
4, 412032, Note_on_c, 2, 55, 63
4, 412408, Note_on_c, 2, 55, 0
4, 412416, Note_on_c, 2, 51, 63
4, 412792, Note_on_c, 2, 51, 0
4, 412800, Note_on_c, 2, 53, 63
4, 413176, Note_on_c, 2, 53, 0
4, 413184, Note_on_c, 2, 58, 92
4, 413184, Note_on_c, 2, 46, 92
4, 413368, Note_on_c, 2, 46, 0
4, 413368, Note_on_c, 2, 58, 0
4, 413376, Note_on_c, 2, 58, 92
4, 413376, Note_on_c, 2, 46, 92
4, 413560, Note_on_c, 2, 46, 0
4, 413560, Note_on_c, 2, 58, 0
4, 413568, Note_on_c, 2, 62, 92
4, 413568, Note_on_c, 2, 50, 92
4, 413752, Note_on_c, 2, 50, 0
4, 413752, Note_on_c, 2, 62, 0
4, 413760, Note_on_c, 2, 58, 92
4, 413760, Note_on_c, 2, 46, 92
4, 413944, Note_on_c, 2, 46, 0
4, 413944, Note_on_c, 2, 58, 0
4, 413952, Note_on_c, 2, 53, 92
4, 413952, Note_on_c, 2, 41, 92
4, 414136, Note_on_c, 2, 41, 0
4, 414136, Note_on_c, 2, 53, 0
4, 414144, Note_on_c, 2, 58, 92
4, 414144, Note_on_c, 2, 46, 92
4, 414328, Note_on_c, 2, 46, 0
4, 414328, Note_on_c, 2, 58, 0
4, 414336, Note_on_c, 2, 50, 92
4, 414336, Note_on_c, 2, 38, 92
4, 414520, Note_on_c, 2, 38, 0
4, 414520, Note_on_c, 2, 50, 0
4, 414528, Note_on_c, 2, 53, 92
4, 414528, Note_on_c, 2, 41, 92
4, 414712, Note_on_c, 2, 41, 0
4, 414712, Note_on_c, 2, 53, 0
4, 414720, Note_on_c, 2, 46, 92
4, 414720, Note_on_c, 2, 34, 92
4, 415096, Note_on_c, 2, 34, 0
4, 415096, Note_on_c, 2, 46, 0
4, 415488, Note_on_c, 2, 55, 63
4, 415864, Note_on_c, 2, 55, 0
4, 416256, Note_on_c, 2, 48, 63
4, 416632, Note_on_c, 2, 48, 0
4, 417024, Note_on_c, 2, 53, 63
4, 417400, Note_on_c, 2, 53, 0
4, 417792, Note_on_c, 2, 46, 63
4, 418168, Note_on_c, 2, 46, 0
4, 430080, Note_on_c, 2, 51, 63
4, 430264, Note_on_c, 2, 51, 0
4, 430464, Note_on_c, 2, 53, 63
4, 430648, Note_on_c, 2, 53, 0
4, 430848, Note_on_c, 2, 54, 63
4, 431032, Note_on_c, 2, 54, 0
4, 431232, Note_on_c, 2, 53, 63
4, 431416, Note_on_c, 2, 53, 0
4, 431616, Note_on_c, 2, 51, 63
4, 432376, Note_on_c, 2, 51, 0
4, 432384, Note_on_c, 2, 52, 63
4, 433144, Note_on_c, 2, 52, 0
4, 433152, Note_on_c, 2, 53, 63
4, 433528, Note_on_c, 2, 53, 0
4, 439488, Note_on_c, 2, 41, 92
4, 439672, Note_on_c, 2, 41, 0
4, 439680, Note_on_c, 2, 43, 92
4, 439864, Note_on_c, 2, 43, 0
4, 439872, Note_on_c, 2, 45, 92
4, 440056, Note_on_c, 2, 45, 0
4, 440064, Note_on_c, 2, 46, 92
4, 440152, Note_on_c, 2, 46, 0
4, 440160, Note_on_c, 2, 45, 92
4, 440248, Note_on_c, 2, 45, 0
4, 440256, Note_on_c, 2, 46, 92
4, 440344, Note_on_c, 2, 46, 0
4, 440352, Note_on_c, 2, 48, 92
4, 440440, Note_on_c, 2, 48, 0
4, 440448, Note_on_c, 2, 49, 92
4, 440536, Note_on_c, 2, 49, 0
4, 440544, Note_on_c, 2, 48, 92
4, 440632, Note_on_c, 2, 48, 0
4, 440640, Note_on_c, 2, 49, 92
4, 440728, Note_on_c, 2, 49, 0
4, 440736, Note_on_c, 2, 51, 92
4, 440824, Note_on_c, 2, 51, 0
4, 440832, Note_on_c, 2, 53, 92
4, 441016, Note_on_c, 2, 53, 0
4, 441024, Note_on_c, 2, 41, 92
4, 441208, Note_on_c, 2, 41, 0
4, 441216, Note_on_c, 2, 43, 92
4, 441400, Note_on_c, 2, 43, 0
4, 441408, Note_on_c, 2, 45, 92
4, 441592, Note_on_c, 2, 45, 0
4, 441600, Note_on_c, 2, 46, 92
4, 441688, Note_on_c, 2, 46, 0
4, 441696, Note_on_c, 2, 45, 92
4, 441784, Note_on_c, 2, 45, 0
4, 441792, Note_on_c, 2, 46, 92
4, 441880, Note_on_c, 2, 46, 0
4, 441888, Note_on_c, 2, 48, 92
4, 441976, Note_on_c, 2, 48, 0
4, 441984, Note_on_c, 2, 49, 92
4, 442072, Note_on_c, 2, 49, 0
4, 442080, Note_on_c, 2, 48, 92
4, 442168, Note_on_c, 2, 48, 0
4, 442176, Note_on_c, 2, 49, 92
4, 442264, Note_on_c, 2, 49, 0
4, 442272, Note_on_c, 2, 51, 92
4, 442360, Note_on_c, 2, 51, 0
4, 442368, Note_on_c, 2, 53, 92
4, 442744, Note_on_c, 2, 53, 0
4, 446976, Note_on_c, 2, 58, 63
4, 447352, Note_on_c, 2, 58, 0
4, 447744, Note_on_c, 2, 53, 63
4, 447744, Note_on_c, 2, 41, 63
4, 448120, Note_on_c, 2, 41, 0
4, 448120, Note_on_c, 2, 53, 0
4, 448512, Note_on_c, 2, 58, 63
4, 448512, Note_on_c, 2, 46, 63
4, 448888, Note_on_c, 2, 46, 0
4, 448888, Note_on_c, 2, 58, 0
4, 449280, Note_on_c, 2, 58, 63
4, 449280, Note_on_c, 2, 46, 63
4, 449656, Note_on_c, 2, 46, 0
4, 449656, Note_on_c, 2, 58, 0
4, 450048, Note_on_c, 2, 60, 63
4, 450048, Note_on_c, 2, 48, 63
4, 450424, Note_on_c, 2, 48, 0
4, 450424, Note_on_c, 2, 60, 0
4, 450816, Note_on_c, 2, 53, 63
4, 450816, Note_on_c, 2, 41, 63
4, 451192, Note_on_c, 2, 41, 0
4, 451192, Note_on_c, 2, 53, 0
4, 451584, Note_on_c, 2, 58, 63
4, 451584, Note_on_c, 2, 46, 63
4, 451960, Note_on_c, 2, 46, 0
4, 451960, Note_on_c, 2, 58, 0
4, 454272, Note_on_c, 2, 53, 63
4, 454648, Note_on_c, 2, 53, 0
4, 454656, Note_on_c, 2, 58, 63
4, 455032, Note_on_c, 2, 58, 0
4, 455232, Note_on_c, 2, 53, 63
4, 455232, Note_on_c, 2, 50, 63
4, 455416, Note_on_c, 2, 50, 0
4, 455416, Note_on_c, 2, 53, 0
4, 455424, Note_on_c, 2, 51, 63
4, 455800, Note_on_c, 2, 51, 0
4, 456000, Note_on_c, 2, 50, 63
4, 456184, Note_on_c, 2, 50, 0
4, 456192, Note_on_c, 2, 51, 63
4, 456568, Note_on_c, 2, 51, 0
4, 456768, Note_on_c, 2, 55, 63
4, 456768, Note_on_c, 2, 47, 63
4, 456952, Note_on_c, 2, 47, 0
4, 456952, Note_on_c, 2, 55, 0
4, 456960, Note_on_c, 2, 55, 63
4, 456960, Note_on_c, 2, 48, 63
4, 457336, Note_on_c, 2, 48, 0
4, 457336, Note_on_c, 2, 55, 0
4, 457536, Note_on_c, 2, 55, 63
4, 457536, Note_on_c, 2, 47, 63
4, 457720, Note_on_c, 2, 47, 0
4, 457720, Note_on_c, 2, 55, 0
4, 457728, Note_on_c, 2, 55, 63
4, 457728, Note_on_c, 2, 48, 63
4, 458104, Note_on_c, 2, 48, 0
4, 458104, Note_on_c, 2, 55, 0
4, 458304, Note_on_c, 2, 65, 63
4, 458304, Note_on_c, 2, 62, 63
4, 458488, Note_on_c, 2, 62, 0
4, 458488, Note_on_c, 2, 65, 0
4, 458496, Note_on_c, 2, 63, 63
4, 458496, Note_on_c, 2, 67, 63
4, 458872, Note_on_c, 2, 67, 0
4, 458872, Note_on_c, 2, 63, 0
4, 459072, Note_on_c, 2, 60, 63
4, 459072, Note_on_c, 2, 52, 63
4, 459256, Note_on_c, 2, 52, 0
4, 459256, Note_on_c, 2, 60, 0
4, 459264, Note_on_c, 2, 60, 63
4, 459264, Note_on_c, 2, 53, 63
4, 459640, Note_on_c, 2, 53, 0
4, 459640, Note_on_c, 2, 60, 0
4, 460032, Note_on_c, 2, 65, 63
4, 460032, Note_on_c, 2, 60, 63
4, 460792, Note_on_c, 2, 60, 0
4, 460792, Note_on_c, 2, 65, 0
4, 460800, Note_on_c, 2, 65, 63
4, 460800, Note_on_c, 2, 62, 63
4, 461176, Note_on_c, 2, 62, 0
4, 461176, Note_on_c, 2, 65, 0
4, 461952, Note_on_c, 2, 50, 63
4, 462328, Note_on_c, 2, 50, 0
4, 462336, Note_on_c, 2, 51, 63
4, 462712, Note_on_c, 2, 51, 0
4, 464256, Note_on_c, 2, 52, 63
4, 464632, Note_on_c, 2, 52, 0
4, 464640, Note_on_c, 2, 53, 63
4, 465400, Note_on_c, 2, 53, 0
4, 465408, Note_on_c, 2, 58, 63
4, 465408, Note_on_c, 2, 46, 63
4, 465592, Note_on_c, 2, 46, 0
4, 465592, Note_on_c, 2, 58, 0
4, 465600, Note_on_c, 2, 62, 63
4, 465784, Note_on_c, 2, 62, 0
4, 465792, Note_on_c, 2, 58, 63
4, 465976, Note_on_c, 2, 58, 0
4, 465984, Note_on_c, 2, 62, 63
4, 466168, Note_on_c, 2, 62, 0
4, 466176, Note_on_c, 2, 58, 63
4, 466360, Note_on_c, 2, 58, 0
4, 466368, Note_on_c, 2, 62, 63
4, 466552, Note_on_c, 2, 62, 0
4, 466560, Note_on_c, 2, 58, 63
4, 466744, Note_on_c, 2, 58, 0
4, 466752, Note_on_c, 2, 62, 63
4, 466936, Note_on_c, 2, 62, 0
4, 466944, Note_on_c, 2, 60, 63
4, 467128, Note_on_c, 2, 60, 0
4, 467136, Note_on_c, 2, 62, 63
4, 467320, Note_on_c, 2, 62, 0
4, 467328, Note_on_c, 2, 60, 63
4, 467512, Note_on_c, 2, 60, 0
4, 467520, Note_on_c, 2, 62, 63
4, 467704, Note_on_c, 2, 62, 0
4, 467712, Note_on_c, 2, 60, 63
4, 467896, Note_on_c, 2, 60, 0
4, 467904, Note_on_c, 2, 62, 63
4, 468088, Note_on_c, 2, 62, 0
4, 468096, Note_on_c, 2, 60, 63
4, 468280, Note_on_c, 2, 60, 0
4, 468288, Note_on_c, 2, 62, 63
4, 468472, Note_on_c, 2, 62, 0
4, 468480, Note_on_c, 2, 58, 63
4, 468664, Note_on_c, 2, 58, 0
4, 468672, Note_on_c, 2, 62, 63
4, 468856, Note_on_c, 2, 62, 0
4, 468864, Note_on_c, 2, 58, 63
4, 469048, Note_on_c, 2, 58, 0
4, 469056, Note_on_c, 2, 62, 63
4, 469240, Note_on_c, 2, 62, 0
4, 469248, Note_on_c, 2, 55, 63
4, 469248, Note_on_c, 2, 43, 63
4, 470008, Note_on_c, 2, 43, 0
4, 470008, Note_on_c, 2, 55, 0
4, 470016, Note_on_c, 2, 54, 63
4, 470016, Note_on_c, 2, 42, 63
4, 470776, Note_on_c, 2, 42, 0
4, 470776, Note_on_c, 2, 54, 0
4, 470784, Note_on_c, 2, 50, 63
4, 470784, Note_on_c, 2, 38, 63
4, 471544, Note_on_c, 2, 38, 0
4, 471544, Note_on_c, 2, 50, 0
4, 471552, Note_on_c, 2, 55, 63
4, 471552, Note_on_c, 2, 43, 63
4, 471736, Note_on_c, 2, 43, 0
4, 471736, Note_on_c, 2, 55, 0
4, 471744, Note_on_c, 2, 62, 63
4, 471928, Note_on_c, 2, 62, 0
4, 471936, Note_on_c, 2, 58, 63
4, 472120, Note_on_c, 2, 58, 0
4, 472128, Note_on_c, 2, 62, 63
4, 472312, Note_on_c, 2, 62, 0
4, 472320, Note_on_c, 2, 58, 63
4, 472504, Note_on_c, 2, 58, 0
4, 472512, Note_on_c, 2, 62, 63
4, 472696, Note_on_c, 2, 62, 0
4, 472704, Note_on_c, 2, 58, 63
4, 472888, Note_on_c, 2, 58, 0
4, 472896, Note_on_c, 2, 62, 63
4, 473080, Note_on_c, 2, 62, 0
4, 473088, Note_on_c, 2, 60, 63
4, 473272, Note_on_c, 2, 60, 0
4, 473280, Note_on_c, 2, 62, 63
4, 473464, Note_on_c, 2, 62, 0
4, 473472, Note_on_c, 2, 60, 63
4, 473656, Note_on_c, 2, 60, 0
4, 473664, Note_on_c, 2, 62, 63
4, 473848, Note_on_c, 2, 62, 0
4, 473856, Note_on_c, 2, 60, 63
4, 474040, Note_on_c, 2, 60, 0
4, 474048, Note_on_c, 2, 62, 63
4, 474232, Note_on_c, 2, 62, 0
4, 474240, Note_on_c, 2, 60, 63
4, 474424, Note_on_c, 2, 60, 0
4, 474432, Note_on_c, 2, 62, 63
4, 474616, Note_on_c, 2, 62, 0
4, 474624, Note_on_c, 2, 58, 63
4, 474808, Note_on_c, 2, 58, 0
4, 474816, Note_on_c, 2, 62, 63
4, 475000, Note_on_c, 2, 62, 0
4, 475008, Note_on_c, 2, 58, 63
4, 475192, Note_on_c, 2, 58, 0
4, 475200, Note_on_c, 2, 62, 63
4, 475384, Note_on_c, 2, 62, 0
4, 475392, Note_on_c, 2, 55, 63
4, 475392, Note_on_c, 2, 50, 63
4, 475392, Note_on_c, 2, 46, 63
4, 476152, Note_on_c, 2, 46, 0
4, 476152, Note_on_c, 2, 50, 0
4, 476152, Note_on_c, 2, 55, 0
4, 476160, Note_on_c, 2, 55, 63
4, 476160, Note_on_c, 2, 51, 63
4, 476160, Note_on_c, 2, 48, 63
4, 476920, Note_on_c, 2, 48, 0
4, 476920, Note_on_c, 2, 51, 0
4, 476920, Note_on_c, 2, 55, 0
4, 476928, Note_on_c, 2, 54, 63
4, 476928, Note_on_c, 2, 50, 63
4, 477688, Note_on_c, 2, 50, 0
4, 477688, Note_on_c, 2, 54, 0
4, 477696, Note_on_c, 2, 55, 63
4, 477696, Note_on_c, 2, 43, 63
4, 477880, Note_on_c, 2, 43, 0
4, 477880, Note_on_c, 2, 55, 0
4, 477888, Note_on_c, 2, 62, 63
4, 477888, Note_on_c, 2, 58, 63
4, 478072, Note_on_c, 2, 58, 0
4, 478072, Note_on_c, 2, 62, 0
4, 478080, Note_on_c, 2, 58, 63
4, 478080, Note_on_c, 2, 55, 63
4, 478264, Note_on_c, 2, 55, 0
4, 478264, Note_on_c, 2, 58, 0
4, 478272, Note_on_c, 2, 62, 63
4, 478272, Note_on_c, 2, 58, 63
4, 478456, Note_on_c, 2, 58, 0
4, 478456, Note_on_c, 2, 62, 0
4, 478464, Note_on_c, 2, 58, 63
4, 478464, Note_on_c, 2, 55, 63
4, 478840, Note_on_c, 2, 55, 0
4, 478840, Note_on_c, 2, 58, 0
4, 479232, Note_on_c, 2, 54, 63
4, 479232, Note_on_c, 2, 42, 63
4, 479992, Note_on_c, 2, 42, 0
4, 479992, Note_on_c, 2, 54, 0
4, 480000, Note_on_c, 2, 53, 63
4, 480000, Note_on_c, 2, 41, 63
4, 480376, Note_on_c, 2, 41, 0
4, 480376, Note_on_c, 2, 53, 0
4, 480768, Note_on_c, 2, 54, 63
4, 480768, Note_on_c, 2, 42, 63
4, 481528, Note_on_c, 2, 42, 0
4, 481528, Note_on_c, 2, 54, 0
4, 481536, Note_on_c, 2, 53, 63
4, 481536, Note_on_c, 2, 41, 63
4, 481912, Note_on_c, 2, 41, 0
4, 481912, Note_on_c, 2, 53, 0
4, 482688, Note_on_c, 2, 53, 63
4, 482872, Note_on_c, 2, 53, 0
4, 483072, Note_on_c, 2, 48, 63
4, 483256, Note_on_c, 2, 48, 0
4, 483456, Note_on_c, 2, 45, 63
4, 483640, Note_on_c, 2, 45, 0
4, 483840, Note_on_c, 2, 53, 63
4, 483840, Note_on_c, 2, 41, 63
4, 484216, Note_on_c, 2, 41, 0
4, 484216, Note_on_c, 2, 53, 0
4, 486144, Note_on_c, 2, 65, 63
4, 486904, Note_on_c, 2, 65, 0
4, 486912, Note_on_c, 2, 62, 63
4, 487480, Note_on_c, 2, 62, 0
4, 487488, Note_on_c, 2, 63, 63
4, 487672, Note_on_c, 2, 63, 0
4, 487680, Note_on_c, 2, 67, 63
4, 487864, Note_on_c, 2, 67, 0
4, 487872, Note_on_c, 2, 65, 63
4, 488056, Note_on_c, 2, 65, 0
4, 488064, Note_on_c, 2, 63, 63
4, 488152, Note_on_c, 2, 63, 0
4, 488256, Note_on_c, 2, 62, 63
4, 488344, Note_on_c, 2, 62, 0
4, 488448, Note_on_c, 2, 60, 63
4, 489016, Note_on_c, 2, 60, 0
4, 489024, Note_on_c, 2, 62, 63
4, 489208, Note_on_c, 2, 62, 0
4, 489216, Note_on_c, 2, 65, 63
4, 489400, Note_on_c, 2, 65, 0
4, 489408, Note_on_c, 2, 63, 63
4, 489592, Note_on_c, 2, 63, 0
4, 489600, Note_on_c, 2, 62, 63
4, 489688, Note_on_c, 2, 62, 0
4, 489792, Note_on_c, 2, 60, 63
4, 489880, Note_on_c, 2, 60, 0
4, 489984, Note_on_c, 2, 58, 63
4, 490744, Note_on_c, 2, 58, 0
4, 490752, Note_on_c, 2, 60, 63
4, 490936, Note_on_c, 2, 60, 0
4, 491136, Note_on_c, 2, 58, 63
4, 491320, Note_on_c, 2, 58, 0
4, 491520, Note_on_c, 2, 57, 63
4, 491704, Note_on_c, 2, 57, 0
4, 491904, Note_on_c, 2, 65, 63
4, 492088, Note_on_c, 2, 65, 0
4, 492672, Note_on_c, 2, 65, 63
4, 492672, Note_on_c, 2, 63, 63
4, 493048, Note_on_c, 2, 65, 0
4, 493056, Note_on_c, 2, 63, 0
4, 493056, Note_on_c, 2, 62, 63
4, 493056, Note_on_c, 2, 65, 63
4, 493432, Note_on_c, 2, 65, 0
4, 493432, Note_on_c, 2, 62, 0
4, 493440, Note_on_c, 2, 51, 63
4, 493816, Note_on_c, 2, 51, 0
4, 493824, Note_on_c, 2, 53, 63
4, 494200, Note_on_c, 2, 53, 0
4, 494208, Note_on_c, 2, 53, 63
4, 494584, Note_on_c, 2, 53, 0
4, 494592, Note_on_c, 2, 58, 63
4, 494680, Note_on_c, 2, 58, 0
4, 494688, Note_on_c, 2, 65, 63
4, 494776, Note_on_c, 2, 65, 0
4, 494784, Note_on_c, 2, 62, 63
4, 494872, Note_on_c, 2, 62, 0
4, 494880, Note_on_c, 2, 65, 63
4, 494968, Note_on_c, 2, 65, 0
4, 494976, Note_on_c, 2, 60, 63
4, 495064, Note_on_c, 2, 60, 0
4, 495072, Note_on_c, 2, 65, 63
4, 495160, Note_on_c, 2, 65, 0
4, 495168, Note_on_c, 2, 63, 63
4, 495256, Note_on_c, 2, 63, 0
4, 495264, Note_on_c, 2, 65, 63
4, 495352, Note_on_c, 2, 65, 0
4, 495360, Note_on_c, 2, 58, 63
4, 495448, Note_on_c, 2, 58, 0
4, 495456, Note_on_c, 2, 65, 63
4, 495544, Note_on_c, 2, 65, 0
4, 495552, Note_on_c, 2, 62, 63
4, 495640, Note_on_c, 2, 62, 0
4, 495648, Note_on_c, 2, 65, 63
4, 495736, Note_on_c, 2, 65, 0
4, 495744, Note_on_c, 2, 53, 63
4, 495832, Note_on_c, 2, 53, 0
4, 495840, Note_on_c, 2, 65, 63
4, 495928, Note_on_c, 2, 65, 0
4, 495936, Note_on_c, 2, 60, 63
4, 496024, Note_on_c, 2, 60, 0
4, 496032, Note_on_c, 2, 65, 63
4, 496120, Note_on_c, 2, 65, 0
4, 496128, Note_on_c, 2, 58, 63
4, 496216, Note_on_c, 2, 58, 0
4, 496224, Note_on_c, 2, 65, 63
4, 496312, Note_on_c, 2, 65, 0
4, 496320, Note_on_c, 2, 62, 63
4, 496408, Note_on_c, 2, 62, 0
4, 496416, Note_on_c, 2, 65, 63
4, 496504, Note_on_c, 2, 65, 0
4, 496512, Note_on_c, 2, 60, 63
4, 496600, Note_on_c, 2, 60, 0
4, 496608, Note_on_c, 2, 65, 63
4, 496696, Note_on_c, 2, 65, 0
4, 496704, Note_on_c, 2, 63, 63
4, 496792, Note_on_c, 2, 63, 0
4, 496800, Note_on_c, 2, 65, 63
4, 496888, Note_on_c, 2, 65, 0
4, 496896, Note_on_c, 2, 58, 63
4, 496984, Note_on_c, 2, 58, 0
4, 496992, Note_on_c, 2, 65, 63
4, 497080, Note_on_c, 2, 65, 0
4, 497088, Note_on_c, 2, 62, 63
4, 497176, Note_on_c, 2, 62, 0
4, 497184, Note_on_c, 2, 65, 63
4, 497272, Note_on_c, 2, 65, 0
4, 497280, Note_on_c, 2, 53, 63
4, 497368, Note_on_c, 2, 53, 0
4, 497376, Note_on_c, 2, 65, 63
4, 497464, Note_on_c, 2, 65, 0
4, 497472, Note_on_c, 2, 60, 63
4, 497560, Note_on_c, 2, 60, 0
4, 497568, Note_on_c, 2, 65, 63
4, 497656, Note_on_c, 2, 65, 0
4, 497664, Note_on_c, 2, 58, 63
4, 497848, Note_on_c, 2, 58, 0
4, 498048, Note_on_c, 2, 60, 63
4, 498232, Note_on_c, 2, 60, 0
4, 498432, Note_on_c, 2, 58, 63
4, 498616, Note_on_c, 2, 58, 0
4, 498816, Note_on_c, 2, 53, 63
4, 499000, Note_on_c, 2, 53, 0
4, 499200, Note_on_c, 2, 58, 63
4, 499384, Note_on_c, 2, 58, 0
4, 499584, Note_on_c, 2, 53, 63
4, 499768, Note_on_c, 2, 53, 0
4, 499968, Note_on_c, 2, 58, 63
4, 500152, Note_on_c, 2, 58, 0
4, 500352, Note_on_c, 2, 53, 63
4, 500536, Note_on_c, 2, 53, 0
4, 500736, Note_on_c, 2, 58, 63
4, 500920, Note_on_c, 2, 58, 0
4, 501120, Note_on_c, 2, 65, 63
4, 501304, Note_on_c, 2, 65, 0
4, 501504, Note_on_c, 2, 62, 63
4, 501688, Note_on_c, 2, 62, 0
4, 501888, Note_on_c, 2, 58, 63
4, 502072, Note_on_c, 2, 58, 0
4, 502272, Note_on_c, 2, 51, 63
4, 502456, Note_on_c, 2, 51, 0
4, 502656, Note_on_c, 2, 58, 63
4, 502840, Note_on_c, 2, 58, 0
4, 503040, Note_on_c, 2, 55, 63
4, 503224, Note_on_c, 2, 55, 0
4, 503424, Note_on_c, 2, 51, 63
4, 503608, Note_on_c, 2, 51, 0
4, 503808, Note_on_c, 2, 53, 63
4, 503992, Note_on_c, 2, 53, 0
4, 504000, Note_on_c, 2, 58, 63
4, 504184, Note_on_c, 2, 58, 0
4, 504192, Note_on_c, 2, 62, 63
4, 504376, Note_on_c, 2, 62, 0
4, 504384, Note_on_c, 2, 58, 63
4, 504568, Note_on_c, 2, 58, 0
4, 504576, Note_on_c, 2, 65, 63
4, 504760, Note_on_c, 2, 65, 0
4, 504960, Note_on_c, 2, 53, 63
4, 505144, Note_on_c, 2, 53, 0
4, 505344, Note_on_c, 2, 58, 63
4, 505344, Note_on_c, 2, 46, 63
4, 505720, Note_on_c, 2, 46, 0
4, 505720, Note_on_c, 2, 58, 0
4, 506880, Note_on_c, 2, 50, 63
4, 508408, Note_on_c, 2, 50, 0
4, 508416, Note_on_c, 2, 51, 63
4, 508600, Note_on_c, 2, 51, 0
4, 508800, Note_on_c, 2, 58, 63
4, 508984, Note_on_c, 2, 58, 0
4, 509184, Note_on_c, 2, 63, 63
4, 509368, Note_on_c, 2, 63, 0
4, 509568, Note_on_c, 2, 58, 63
4, 509752, Note_on_c, 2, 58, 0
4, 509952, Note_on_c, 2, 51, 63
4, 510136, Note_on_c, 2, 51, 0
4, 510336, Note_on_c, 2, 46, 63
4, 510520, Note_on_c, 2, 46, 0
4, 510720, Note_on_c, 2, 51, 63
4, 510904, Note_on_c, 2, 51, 0
4, 511104, Note_on_c, 2, 46, 63
4, 511288, Note_on_c, 2, 46, 0
4, 511488, Note_on_c, 2, 51, 63
4, 511672, Note_on_c, 2, 51, 0
4, 511872, Note_on_c, 2, 46, 63
4, 512056, Note_on_c, 2, 46, 0
4, 512256, Note_on_c, 2, 51, 63
4, 512440, Note_on_c, 2, 51, 0
4, 512640, Note_on_c, 2, 46, 63
4, 512824, Note_on_c, 2, 46, 0
4, 513024, Note_on_c, 2, 51, 63
4, 513400, Note_on_c, 2, 51, 0
4, 513984, Note_on_c, 2, 51, 63
4, 513984, Note_on_c, 2, 39, 63
4, 514072, Note_on_c, 2, 39, 0
4, 514072, Note_on_c, 2, 51, 0
4, 514176, Note_on_c, 2, 51, 63
4, 514176, Note_on_c, 2, 39, 63
4, 514264, Note_on_c, 2, 39, 0
4, 514264, Note_on_c, 2, 51, 0
4, 514368, Note_on_c, 2, 51, 63
4, 514368, Note_on_c, 2, 39, 63
4, 514456, Note_on_c, 2, 39, 0
4, 514456, Note_on_c, 2, 51, 0
4, 514560, Note_on_c, 2, 51, 63
4, 514560, Note_on_c, 2, 39, 63
4, 514936, Note_on_c, 2, 39, 0
4, 514936, Note_on_c, 2, 51, 0
4, 515520, Note_on_c, 2, 51, 63
4, 515520, Note_on_c, 2, 39, 63
4, 515608, Note_on_c, 2, 39, 0
4, 515608, Note_on_c, 2, 51, 0
4, 515712, Note_on_c, 2, 51, 63
4, 515712, Note_on_c, 2, 39, 63
4, 515800, Note_on_c, 2, 39, 0
4, 515800, Note_on_c, 2, 51, 0
4, 515904, Note_on_c, 2, 51, 63
4, 515904, Note_on_c, 2, 39, 63
4, 515992, Note_on_c, 2, 39, 0
4, 515992, Note_on_c, 2, 51, 0
4, 516096, Note_on_c, 2, 52, 63
4, 516096, Note_on_c, 2, 40, 63
4, 516472, Note_on_c, 2, 40, 0
4, 516472, Note_on_c, 2, 52, 0
4, 517056, Note_on_c, 2, 52, 63
4, 517056, Note_on_c, 2, 40, 63
4, 517144, Note_on_c, 2, 40, 0
4, 517144, Note_on_c, 2, 52, 0
4, 517248, Note_on_c, 2, 40, 63
4, 517248, Note_on_c, 2, 52, 63
4, 517336, Note_on_c, 2, 52, 0
4, 517336, Note_on_c, 2, 40, 0
4, 517440, Note_on_c, 2, 52, 63
4, 517440, Note_on_c, 2, 40, 63
4, 517528, Note_on_c, 2, 40, 0
4, 517528, Note_on_c, 2, 52, 0
4, 517632, Note_on_c, 2, 53, 63
4, 517632, Note_on_c, 2, 41, 63
4, 518008, Note_on_c, 2, 41, 0
4, 518008, Note_on_c, 2, 53, 0
4, 518400, Note_on_c, 2, 65, 63
4, 518400, Note_on_c, 2, 53, 63
4, 518776, Note_on_c, 2, 53, 0
4, 518776, Note_on_c, 2, 65, 0
4, 519168, Note_on_c, 2, 62, 63
4, 519168, Note_on_c, 2, 50, 63
4, 519544, Note_on_c, 2, 50, 0
4, 519544, Note_on_c, 2, 62, 0
4, 519936, Note_on_c, 2, 58, 63
4, 519936, Note_on_c, 2, 46, 63
4, 520312, Note_on_c, 2, 46, 0
4, 520312, Note_on_c, 2, 58, 0
4, 520704, Note_on_c, 2, 53, 63
4, 520704, Note_on_c, 2, 41, 63
4, 521080, Note_on_c, 2, 41, 0
4, 521080, Note_on_c, 2, 53, 0
4, 522624, Note_on_c, 2, 53, 63
4, 522712, Note_on_c, 2, 53, 0
4, 522816, Note_on_c, 2, 53, 63
4, 522904, Note_on_c, 2, 53, 0
4, 523008, Note_on_c, 2, 53, 63
4, 523096, Note_on_c, 2, 53, 0
4, 523392, Note_on_c, 2, 53, 63
4, 523480, Note_on_c, 2, 53, 0
4, 523584, Note_on_c, 2, 53, 63
4, 523672, Note_on_c, 2, 53, 0
4, 523776, Note_on_c, 2, 53, 63
4, 524152, Note_on_c, 2, 53, 0
4, 525312, Note_on_c, 2, 41, 63
4, 525496, Note_on_c, 2, 41, 0
4, 525504, Note_on_c, 2, 41, 63
4, 525688, Note_on_c, 2, 41, 0
4, 525696, Note_on_c, 2, 41, 63
4, 525880, Note_on_c, 2, 41, 0
4, 525888, Note_on_c, 2, 41, 63
4, 526072, Note_on_c, 2, 41, 0
4, 526080, Note_on_c, 2, 41, 63
4, 526264, Note_on_c, 2, 41, 0
4, 526272, Note_on_c, 2, 41, 63
4, 526456, Note_on_c, 2, 41, 0
4, 526464, Note_on_c, 2, 41, 63
4, 526648, Note_on_c, 2, 41, 0
4, 526656, Note_on_c, 2, 41, 63
4, 526840, Note_on_c, 2, 41, 0
4, 526848, Note_on_c, 2, 46, 92
4, 527032, Note_on_c, 2, 46, 0
4, 527040, Note_on_c, 2, 53, 92
4, 527224, Note_on_c, 2, 53, 0
4, 527232, Note_on_c, 2, 58, 92
4, 527232, Note_on_c, 2, 62, 92
4, 527416, Note_on_c, 2, 62, 0
4, 527416, Note_on_c, 2, 58, 0
4, 527424, Note_on_c, 2, 53, 92
4, 527608, Note_on_c, 2, 53, 0
4, 527616, Note_on_c, 2, 58, 92
4, 527616, Note_on_c, 2, 62, 92
4, 527800, Note_on_c, 2, 62, 0
4, 527800, Note_on_c, 2, 58, 0
4, 527808, Note_on_c, 2, 53, 92
4, 527992, Note_on_c, 2, 53, 0
4, 528000, Note_on_c, 2, 58, 92
4, 528000, Note_on_c, 2, 62, 92
4, 528184, Note_on_c, 2, 62, 0
4, 528184, Note_on_c, 2, 58, 0
4, 528192, Note_on_c, 2, 53, 92
4, 528376, Note_on_c, 2, 53, 0
4, 528384, Note_on_c, 2, 60, 92
4, 528384, Note_on_c, 2, 57, 92
4, 528568, Note_on_c, 2, 57, 0
4, 528568, Note_on_c, 2, 60, 0
4, 528576, Note_on_c, 2, 53, 92
4, 528760, Note_on_c, 2, 53, 0
4, 528768, Note_on_c, 2, 60, 92
4, 528768, Note_on_c, 2, 57, 92
4, 528952, Note_on_c, 2, 57, 0
4, 528952, Note_on_c, 2, 60, 0
4, 528960, Note_on_c, 2, 53, 92
4, 529144, Note_on_c, 2, 53, 0
4, 529152, Note_on_c, 2, 65, 92
4, 529152, Note_on_c, 2, 60, 92
4, 529336, Note_on_c, 2, 60, 0
4, 529336, Note_on_c, 2, 65, 0
4, 529344, Note_on_c, 2, 53, 92
4, 529528, Note_on_c, 2, 53, 0
4, 529536, Note_on_c, 2, 63, 92
4, 529536, Note_on_c, 2, 65, 92
4, 529720, Note_on_c, 2, 65, 0
4, 529720, Note_on_c, 2, 63, 0
4, 529728, Note_on_c, 2, 53, 92
4, 529912, Note_on_c, 2, 53, 0
4, 529920, Note_on_c, 2, 62, 92
4, 529920, Note_on_c, 2, 65, 92
4, 530104, Note_on_c, 2, 65, 0
4, 530104, Note_on_c, 2, 62, 0
4, 530112, Note_on_c, 2, 53, 92
4, 530296, Note_on_c, 2, 53, 0
4, 530304, Note_on_c, 2, 62, 92
4, 530304, Note_on_c, 2, 65, 92
4, 530488, Note_on_c, 2, 65, 0
4, 530488, Note_on_c, 2, 62, 0
4, 530496, Note_on_c, 2, 53, 92
4, 530680, Note_on_c, 2, 53, 0
4, 530688, Note_on_c, 2, 58, 92
4, 530688, Note_on_c, 2, 62, 92
4, 530872, Note_on_c, 2, 62, 0
4, 530872, Note_on_c, 2, 58, 0
4, 530880, Note_on_c, 2, 53, 92
4, 531064, Note_on_c, 2, 53, 0
4, 531072, Note_on_c, 2, 58, 92
4, 531072, Note_on_c, 2, 62, 92
4, 531256, Note_on_c, 2, 62, 0
4, 531256, Note_on_c, 2, 58, 0
4, 531264, Note_on_c, 2, 53, 92
4, 531448, Note_on_c, 2, 53, 0
4, 531456, Note_on_c, 2, 60, 92
4, 531456, Note_on_c, 2, 57, 92
4, 531544, Note_on_c, 2, 57, 0
4, 531544, Note_on_c, 2, 60, 0
4, 531648, Note_on_c, 2, 53, 92
4, 531736, Note_on_c, 2, 53, 0
4, 531840, Note_on_c, 2, 60, 92
4, 531840, Note_on_c, 2, 57, 92
4, 531928, Note_on_c, 2, 57, 0
4, 531928, Note_on_c, 2, 60, 0
4, 532032, Note_on_c, 2, 53, 92
4, 532120, Note_on_c, 2, 53, 0
4, 532224, Note_on_c, 2, 65, 92
4, 532224, Note_on_c, 2, 60, 92
4, 532312, Note_on_c, 2, 60, 0
4, 532312, Note_on_c, 2, 65, 0
4, 532416, Note_on_c, 2, 53, 92
4, 532504, Note_on_c, 2, 53, 0
4, 532608, Note_on_c, 2, 65, 92
4, 532608, Note_on_c, 2, 63, 92
4, 532696, Note_on_c, 2, 63, 0
4, 532696, Note_on_c, 2, 65, 0
4, 532800, Note_on_c, 2, 53, 92
4, 532888, Note_on_c, 2, 53, 0
4, 532992, Note_on_c, 2, 62, 92
4, 532992, Note_on_c, 2, 50, 92
4, 533176, Note_on_c, 2, 50, 0
4, 533176, Note_on_c, 2, 62, 0
4, 533184, Note_on_c, 2, 62, 92
4, 533184, Note_on_c, 2, 50, 92
4, 533368, Note_on_c, 2, 50, 0
4, 533368, Note_on_c, 2, 62, 0
4, 533376, Note_on_c, 2, 50, 92
4, 533376, Note_on_c, 2, 62, 92
4, 533560, Note_on_c, 2, 62, 0
4, 533560, Note_on_c, 2, 50, 0
4, 533568, Note_on_c, 2, 62, 92
4, 533568, Note_on_c, 2, 50, 92
4, 533752, Note_on_c, 2, 50, 0
4, 533752, Note_on_c, 2, 62, 0
4, 533760, Note_on_c, 2, 62, 92
4, 533760, Note_on_c, 2, 50, 92
4, 533944, Note_on_c, 2, 50, 0
4, 533944, Note_on_c, 2, 62, 0
4, 533952, Note_on_c, 2, 62, 92
4, 533952, Note_on_c, 2, 50, 92
4, 534136, Note_on_c, 2, 50, 0
4, 534136, Note_on_c, 2, 62, 0
4, 534144, Note_on_c, 2, 62, 92
4, 534144, Note_on_c, 2, 50, 92
4, 534328, Note_on_c, 2, 50, 0
4, 534328, Note_on_c, 2, 62, 0
4, 534336, Note_on_c, 2, 62, 92
4, 534336, Note_on_c, 2, 50, 92
4, 534520, Note_on_c, 2, 50, 0
4, 534520, Note_on_c, 2, 62, 0
4, 534528, Note_on_c, 2, 65, 92
4, 534528, Note_on_c, 2, 53, 92
4, 534712, Note_on_c, 2, 53, 0
4, 534712, Note_on_c, 2, 65, 0
4, 534720, Note_on_c, 2, 65, 92
4, 534720, Note_on_c, 2, 53, 92
4, 534904, Note_on_c, 2, 53, 0
4, 534904, Note_on_c, 2, 65, 0
4, 534912, Note_on_c, 2, 65, 92
4, 534912, Note_on_c, 2, 53, 92
4, 535096, Note_on_c, 2, 53, 0
4, 535096, Note_on_c, 2, 65, 0
4, 535104, Note_on_c, 2, 65, 92
4, 535104, Note_on_c, 2, 53, 92
4, 535288, Note_on_c, 2, 53, 0
4, 535288, Note_on_c, 2, 65, 0
4, 535296, Note_on_c, 2, 62, 92
4, 535296, Note_on_c, 2, 50, 92
4, 535480, Note_on_c, 2, 50, 0
4, 535480, Note_on_c, 2, 62, 0
4, 535488, Note_on_c, 2, 62, 92
4, 535488, Note_on_c, 2, 50, 92
4, 535672, Note_on_c, 2, 50, 0
4, 535672, Note_on_c, 2, 62, 0
4, 535680, Note_on_c, 2, 62, 92
4, 535680, Note_on_c, 2, 50, 92
4, 535864, Note_on_c, 2, 50, 0
4, 535864, Note_on_c, 2, 62, 0
4, 535872, Note_on_c, 2, 62, 92
4, 535872, Note_on_c, 2, 50, 92
4, 536056, Note_on_c, 2, 50, 0
4, 536056, Note_on_c, 2, 62, 0
4, 536064, Note_on_c, 2, 63, 92
4, 536064, Note_on_c, 2, 51, 92
4, 536248, Note_on_c, 2, 51, 0
4, 536248, Note_on_c, 2, 63, 0
4, 536256, Note_on_c, 2, 63, 92
4, 536256, Note_on_c, 2, 51, 92
4, 536440, Note_on_c, 2, 51, 0
4, 536440, Note_on_c, 2, 63, 0
4, 536448, Note_on_c, 2, 63, 92
4, 536448, Note_on_c, 2, 51, 92
4, 536632, Note_on_c, 2, 51, 0
4, 536632, Note_on_c, 2, 63, 0
4, 536640, Note_on_c, 2, 63, 92
4, 536640, Note_on_c, 2, 51, 92
4, 536824, Note_on_c, 2, 51, 0
4, 536824, Note_on_c, 2, 63, 0
4, 536832, Note_on_c, 2, 55, 92
4, 536832, Note_on_c, 2, 43, 92
4, 537016, Note_on_c, 2, 43, 0
4, 537016, Note_on_c, 2, 55, 0
4, 537024, Note_on_c, 2, 55, 92
4, 537024, Note_on_c, 2, 43, 92
4, 537208, Note_on_c, 2, 43, 0
4, 537208, Note_on_c, 2, 55, 0
4, 537216, Note_on_c, 2, 55, 92
4, 537216, Note_on_c, 2, 43, 92
4, 537400, Note_on_c, 2, 43, 0
4, 537400, Note_on_c, 2, 55, 0
4, 537408, Note_on_c, 2, 55, 92
4, 537408, Note_on_c, 2, 43, 92
4, 537592, Note_on_c, 2, 43, 0
4, 537592, Note_on_c, 2, 55, 0
4, 537600, Note_on_c, 2, 53, 92
4, 537600, Note_on_c, 2, 41, 92
4, 537784, Note_on_c, 2, 41, 0
4, 537784, Note_on_c, 2, 53, 0
4, 537792, Note_on_c, 2, 64, 92
4, 537792, Note_on_c, 2, 52, 92
4, 537976, Note_on_c, 2, 52, 0
4, 537976, Note_on_c, 2, 64, 0
4, 537984, Note_on_c, 2, 63, 92
4, 537984, Note_on_c, 2, 51, 92
4, 538168, Note_on_c, 2, 51, 0
4, 538168, Note_on_c, 2, 63, 0
4, 538176, Note_on_c, 2, 62, 92
4, 538176, Note_on_c, 2, 50, 92
4, 538360, Note_on_c, 2, 50, 0
4, 538360, Note_on_c, 2, 62, 0
4, 538368, Note_on_c, 2, 60, 92
4, 538368, Note_on_c, 2, 48, 92
4, 538552, Note_on_c, 2, 48, 0
4, 538552, Note_on_c, 2, 60, 0
4, 538560, Note_on_c, 2, 63, 92
4, 538560, Note_on_c, 2, 51, 92
4, 538744, Note_on_c, 2, 51, 0
4, 538744, Note_on_c, 2, 63, 0
4, 538752, Note_on_c, 2, 62, 92
4, 538752, Note_on_c, 2, 50, 92
4, 538936, Note_on_c, 2, 50, 0
4, 538936, Note_on_c, 2, 62, 0
4, 538944, Note_on_c, 2, 58, 92
4, 538944, Note_on_c, 2, 46, 92
4, 539128, Note_on_c, 2, 46, 0
4, 539128, Note_on_c, 2, 58, 0
4, 539136, Note_on_c, 2, 53, 92
4, 539136, Note_on_c, 2, 41, 92
4, 539320, Note_on_c, 2, 41, 0
4, 539320, Note_on_c, 2, 53, 0
4, 539328, Note_on_c, 2, 53, 92
4, 539328, Note_on_c, 2, 41, 92
4, 539512, Note_on_c, 2, 41, 0
4, 539512, Note_on_c, 2, 53, 0
4, 539520, Note_on_c, 2, 53, 92
4, 539520, Note_on_c, 2, 41, 92
4, 539704, Note_on_c, 2, 41, 0
4, 539704, Note_on_c, 2, 53, 0
4, 539712, Note_on_c, 2, 53, 92
4, 539712, Note_on_c, 2, 41, 92
4, 539896, Note_on_c, 2, 41, 0
4, 539896, Note_on_c, 2, 53, 0
4, 539904, Note_on_c, 2, 53, 92
4, 539904, Note_on_c, 2, 41, 92
4, 540088, Note_on_c, 2, 41, 0
4, 540088, Note_on_c, 2, 53, 0
4, 540096, Note_on_c, 2, 53, 92
4, 540096, Note_on_c, 2, 41, 92
4, 540280, Note_on_c, 2, 41, 0
4, 540280, Note_on_c, 2, 53, 0
4, 540288, Note_on_c, 2, 41, 92
4, 540288, Note_on_c, 2, 53, 92
4, 540472, Note_on_c, 2, 53, 0
4, 540472, Note_on_c, 2, 41, 0
4, 540480, Note_on_c, 2, 53, 92
4, 540480, Note_on_c, 2, 41, 92
4, 540664, Note_on_c, 2, 41, 0
4, 540664, Note_on_c, 2, 53, 0
4, 540672, Note_on_c, 2, 46, 92
4, 540672, Note_on_c, 2, 34, 92
4, 541048, Note_on_c, 2, 34, 0
4, 541048, Note_on_c, 2, 46, 0
4, 542976, Note_on_c, 2, 55, 63
4, 542976, Note_on_c, 2, 51, 63
4, 543160, Note_on_c, 2, 51, 0
4, 543160, Note_on_c, 2, 55, 0
4, 543360, Note_on_c, 2, 56, 63
4, 543360, Note_on_c, 2, 53, 63
4, 543544, Note_on_c, 2, 53, 0
4, 543544, Note_on_c, 2, 56, 0
4, 543744, Note_on_c, 2, 58, 63
4, 543744, Note_on_c, 2, 55, 63
4, 544120, Note_on_c, 2, 55, 0
4, 544120, Note_on_c, 2, 58, 0
4, 546048, Note_on_c, 2, 60, 63
4, 546048, Note_on_c, 2, 63, 63
4, 546232, Note_on_c, 2, 63, 0
4, 546232, Note_on_c, 2, 60, 0
4, 546432, Note_on_c, 2, 63, 63
4, 546432, Note_on_c, 2, 53, 63
4, 546616, Note_on_c, 2, 53, 0
4, 546616, Note_on_c, 2, 63, 0
4, 546816, Note_on_c, 2, 62, 63
4, 546816, Note_on_c, 2, 58, 63
4, 547192, Note_on_c, 2, 58, 0
4, 547192, Note_on_c, 2, 62, 0
4, 547584, Note_on_c, 2, 63, 63
4, 547584, Note_on_c, 2, 60, 63
4, 547584, Note_on_c, 2, 51, 63
4, 547768, Note_on_c, 2, 51, 0
4, 547768, Note_on_c, 2, 60, 0
4, 547768, Note_on_c, 2, 63, 0
4, 547968, Note_on_c, 2, 63, 63
4, 547968, Note_on_c, 2, 60, 63
4, 547968, Note_on_c, 2, 53, 63
4, 548152, Note_on_c, 2, 53, 0
4, 548152, Note_on_c, 2, 60, 0
4, 548152, Note_on_c, 2, 63, 0
4, 548352, Note_on_c, 2, 58, 63
4, 548352, Note_on_c, 2, 62, 63
4, 548728, Note_on_c, 2, 62, 0
4, 548728, Note_on_c, 2, 58, 0
4, 549120, Note_on_c, 2, 60, 63
4, 549120, Note_on_c, 2, 63, 63
4, 549120, Note_on_c, 2, 51, 63
4, 549304, Note_on_c, 2, 51, 0
4, 549304, Note_on_c, 2, 63, 0
4, 549304, Note_on_c, 2, 60, 0
4, 549504, Note_on_c, 2, 63, 63
4, 549504, Note_on_c, 2, 60, 63
4, 549504, Note_on_c, 2, 53, 63
4, 549688, Note_on_c, 2, 53, 0
4, 549688, Note_on_c, 2, 60, 0
4, 549688, Note_on_c, 2, 63, 0
4, 549888, Note_on_c, 2, 62, 92
4, 549888, Note_on_c, 2, 58, 92
4, 550072, Note_on_c, 2, 58, 0
4, 550072, Note_on_c, 2, 62, 0
4, 550080, Note_on_c, 2, 58, 92
4, 550080, Note_on_c, 2, 46, 92
4, 550264, Note_on_c, 2, 46, 0
4, 550264, Note_on_c, 2, 58, 0
4, 550272, Note_on_c, 2, 62, 92
4, 550272, Note_on_c, 2, 50, 92
4, 550456, Note_on_c, 2, 50, 0
4, 550456, Note_on_c, 2, 62, 0
4, 550464, Note_on_c, 2, 58, 92
4, 550464, Note_on_c, 2, 46, 92
4, 550648, Note_on_c, 2, 46, 0
4, 550648, Note_on_c, 2, 58, 0
4, 550656, Note_on_c, 2, 53, 92
4, 550656, Note_on_c, 2, 41, 92
4, 550840, Note_on_c, 2, 41, 0
4, 550840, Note_on_c, 2, 53, 0
4, 550848, Note_on_c, 2, 58, 92
4, 550848, Note_on_c, 2, 46, 92
4, 551032, Note_on_c, 2, 46, 0
4, 551032, Note_on_c, 2, 58, 0
4, 551040, Note_on_c, 2, 50, 92
4, 551040, Note_on_c, 2, 38, 92
4, 551224, Note_on_c, 2, 38, 0
4, 551224, Note_on_c, 2, 50, 0
4, 551232, Note_on_c, 2, 53, 92
4, 551232, Note_on_c, 2, 41, 92
4, 551416, Note_on_c, 2, 41, 0
4, 551416, Note_on_c, 2, 53, 0
4, 551424, Note_on_c, 2, 46, 92
4, 551424, Note_on_c, 2, 34, 92
4, 551800, Note_on_c, 2, 34, 0
4, 551800, Note_on_c, 2, 46, 0
4, 551808, Note_on_c, 2, 58, 92
4, 551808, Note_on_c, 2, 46, 92
4, 552184, Note_on_c, 2, 46, 0
4, 552184, Note_on_c, 2, 58, 0
4, 552192, Note_on_c, 2, 46, 92
4, 552192, Note_on_c, 2, 34, 92
4, 552568, Note_on_c, 2, 34, 0
4, 552568, Note_on_c, 2, 46, 0
4, 552568, End_track
5, 0, Start_track
5, 0, MIDI_port, 0
5, 0, Title_t, "Midi by:"
5, 0, End_track
6, 0, Start_track
6, 0, MIDI_port, 0
6, 0, Title_t, "B.Fisher"
6, 0, End_track
0, 0, End_of_file
