0, 0, Header, 1, 5, 384
1, 0, Start_track
1, 0, Time_signature, 4, 2, 96, 8
1, 0, Sequencer_specific, 3, 0, 0, 65
1, 0, Sequencer_specific, 5, 0, 0, 119, 14, 0
1, 0, Tempo, 491803
1, 257280, Tempo, 447761
1, 261120, Tempo, 491803
1, 360192, Tempo, 428571
1, 360960, Tempo, 491803
1, 412416, Tempo, 526315
1, 413952, Tempo, 491803
1, 471552, Tempo, 483870
1, 474624, Tempo, 491803
1, 611328, Tempo, 517241
1, 612864, Tempo, 545454
1, 614400, Tempo, 666666
1, 615936, Tempo, 491803
1, 635136, Tempo, 526315
1, 635904, Tempo, 491803
1, 653568, Tempo, 468750
1, 655104, Tempo, 483870
1, 655872, Tempo, 454545
1, 675840, Tempo, 483870
1, 686100, Tempo, 714285
1, 686592, Tempo, 483870
1, 688128, Tempo, 491803
1, 717312, Tempo, 545454
1, 718848, Tempo, 600000
1, 718848, End_track
2, 0, Start_track
2, 0, Title_t, "Mozart Piano Concerto"
2, 0, Control_c, 0, 0, 0
2, 0, Program_c, 0, 0
2, 0, Control_c, 0, 10, 67
2, 0, Control_c, 0, 91, 67
2, 0, Control_c, 0, 93, 70
2, 0, Key_signature, 0, "major"
2, 0, Control_c, 0, 121, 0
2, 384, Control_c, 0, 10, 63
2, 480, Control_c, 0, 91, 63
2, 576, Control_c, 0, 93, 35
2, 768, Program_c, 0, 0
2, 113664, Note_on_c, 0, 67, 65
2, 113756, Note_off_c, 0, 67, 64
2, 113760, Note_on_c, 0, 69, 65
2, 113852, Note_off_c, 0, 69, 64
2, 113856, Note_on_c, 0, 67, 65
2, 113948, Note_off_c, 0, 67, 64
2, 113952, Note_on_c, 0, 66, 65
2, 114044, Note_off_c, 0, 66, 64
2, 114048, Note_on_c, 0, 67, 65
2, 114140, Note_off_c, 0, 67, 64
2, 114144, Note_on_c, 0, 62, 65
2, 114236, Note_off_c, 0, 62, 64
2, 114240, Note_on_c, 0, 71, 65
2, 114332, Note_off_c, 0, 71, 64
2, 114336, Note_on_c, 0, 69, 65
2, 114428, Note_off_c, 0, 69, 64
2, 114432, Note_on_c, 0, 67, 65
2, 114812, Note_off_c, 0, 67, 64
2, 115200, Note_on_c, 0, 71, 65
2, 115292, Note_off_c, 0, 71, 64
2, 115296, Note_on_c, 0, 72, 65
2, 115388, Note_off_c, 0, 72, 64
2, 115392, Note_on_c, 0, 71, 65
2, 115484, Note_off_c, 0, 71, 64
2, 115488, Note_on_c, 0, 69, 65
2, 115580, Note_off_c, 0, 69, 64
2, 115584, Note_on_c, 0, 71, 65
2, 115676, Note_off_c, 0, 71, 64
2, 115680, Note_on_c, 0, 67, 65
2, 115772, Note_off_c, 0, 67, 64
2, 115776, Note_on_c, 0, 74, 65
2, 115868, Note_off_c, 0, 74, 64
2, 115872, Note_on_c, 0, 72, 65
2, 115964, Note_off_c, 0, 72, 64
2, 115968, Note_on_c, 0, 71, 65
2, 116348, Note_off_c, 0, 71, 64
2, 116736, Note_on_c, 0, 74, 66
2, 116828, Note_off_c, 0, 74, 64
2, 116832, Note_on_c, 0, 76, 66
2, 116924, Note_off_c, 0, 76, 64
2, 116928, Note_on_c, 0, 74, 66
2, 117020, Note_off_c, 0, 74, 64
2, 117024, Note_on_c, 0, 73, 67
2, 117116, Note_off_c, 0, 73, 64
2, 117120, Note_on_c, 0, 74, 68
2, 117212, Note_off_c, 0, 74, 64
2, 117216, Note_on_c, 0, 71, 69
2, 117308, Note_off_c, 0, 71, 64
2, 117312, Note_on_c, 0, 77, 69
2, 117404, Note_off_c, 0, 77, 64
2, 117408, Note_on_c, 0, 76, 70
2, 117500, Note_off_c, 0, 76, 64
2, 117504, Note_on_c, 0, 77, 71
2, 117596, Note_off_c, 0, 77, 64
2, 117600, Note_on_c, 0, 79, 72
2, 117692, Note_off_c, 0, 79, 64
2, 117696, Note_on_c, 0, 77, 73
2, 117788, Note_off_c, 0, 77, 64
2, 117792, Note_on_c, 0, 76, 73
2, 117884, Note_off_c, 0, 76, 64
2, 117888, Note_on_c, 0, 77, 74
2, 117980, Note_off_c, 0, 77, 64
2, 117984, Note_on_c, 0, 74, 76
2, 118076, Note_off_c, 0, 74, 64
2, 118080, Note_on_c, 0, 83, 79
2, 118172, Note_off_c, 0, 83, 64
2, 118176, Note_on_c, 0, 81, 80
2, 118268, Note_off_c, 0, 81, 64
2, 118272, Note_on_c, 0, 83, 81
2, 118364, Note_off_c, 0, 83, 64
2, 118368, Note_on_c, 0, 84, 85
2, 118460, Note_off_c, 0, 84, 64
2, 118464, Note_on_c, 0, 83, 81
2, 118556, Note_off_c, 0, 83, 64
2, 118560, Note_on_c, 0, 81, 80
2, 118652, Note_off_c, 0, 81, 64
2, 118656, Note_on_c, 0, 83, 84
2, 118748, Note_off_c, 0, 83, 64
2, 118752, Note_on_c, 0, 79, 83
2, 118844, Note_off_c, 0, 79, 64
2, 118848, Note_on_c, 0, 86, 82
2, 118940, Note_off_c, 0, 86, 64
2, 118944, Note_on_c, 0, 85, 88
2, 119036, Note_off_c, 0, 85, 64
2, 119040, Note_on_c, 0, 86, 89
2, 119132, Note_off_c, 0, 86, 64
2, 119136, Note_on_c, 0, 88, 91
2, 119228, Note_off_c, 0, 88, 64
2, 119232, Note_on_c, 0, 86, 92
2, 119324, Note_off_c, 0, 86, 64
2, 119328, Note_on_c, 0, 85, 93
2, 119420, Note_off_c, 0, 85, 64
2, 119424, Note_on_c, 0, 86, 94
2, 119516, Note_off_c, 0, 86, 64
2, 119520, Note_on_c, 0, 83, 93
2, 119600, Note_on_c, 0, 89, 96
2, 119612, Note_off_c, 0, 83, 64
2, 119692, Note_off_c, 0, 89, 64
2, 119712, Note_on_c, 0, 88, 96
2, 119804, Note_off_c, 0, 88, 64
2, 119808, Note_on_c, 0, 89, 97
2, 119900, Note_off_c, 0, 89, 64
2, 119904, Note_on_c, 0, 86, 95
2, 119996, Note_off_c, 0, 86, 64
2, 120000, Note_on_c, 0, 83, 93
2, 120092, Note_off_c, 0, 83, 64
2, 120096, Note_on_c, 0, 86, 95
2, 120188, Note_off_c, 0, 86, 64
2, 120192, Note_on_c, 0, 89, 97
2, 120284, Note_off_c, 0, 89, 64
2, 120288, Note_on_c, 0, 86, 95
2, 120380, Note_off_c, 0, 86, 64
2, 120384, Note_on_c, 0, 89, 97
2, 120476, Note_off_c, 0, 89, 64
2, 120480, Note_on_c, 0, 86, 95
2, 120572, Note_off_c, 0, 86, 64
2, 120576, Note_on_c, 0, 89, 97
2, 120668, Note_off_c, 0, 89, 64
2, 120672, Note_on_c, 0, 86, 95
2, 120764, Note_off_c, 0, 86, 64
2, 120768, Note_on_c, 0, 83, 93
2, 120860, Note_off_c, 0, 83, 64
2, 120864, Note_on_c, 0, 86, 95
2, 120956, Note_off_c, 0, 86, 64
2, 120960, Note_on_c, 0, 89, 97
2, 121052, Note_off_c, 0, 89, 64
2, 121056, Note_on_c, 0, 86, 95
2, 121148, Note_off_c, 0, 86, 64
2, 121152, Note_on_c, 0, 89, 97
2, 121244, Note_off_c, 0, 89, 64
2, 121248, Note_on_c, 0, 86, 95
2, 121340, Note_off_c, 0, 86, 64
2, 121344, Note_on_c, 0, 89, 97
2, 122876, Note_off_c, 0, 89, 64
2, 122880, Note_on_c, 0, 89, 97
2, 122968, Note_off_c, 0, 89, 64
2, 122976, Note_on_c, 0, 91, 98
2, 123064, Note_off_c, 0, 91, 64
2, 123072, Note_on_c, 0, 89, 97
2, 123160, Note_off_c, 0, 89, 64
2, 123168, Note_on_c, 0, 88, 96
2, 123256, Note_off_c, 0, 88, 64
2, 123264, Note_on_c, 0, 89, 97
2, 123352, Note_off_c, 0, 89, 64
2, 123360, Note_on_c, 0, 91, 98
2, 123448, Note_off_c, 0, 91, 64
2, 123456, Note_on_c, 0, 93, 98
2, 123544, Note_off_c, 0, 93, 64
2, 123552, Note_on_c, 0, 89, 96
2, 123640, Note_off_c, 0, 89, 64
2, 123648, Note_on_c, 0, 86, 95
2, 123648, Note_on_c, 0, 77, 90
2, 123736, Note_off_c, 0, 86, 64
2, 123736, Note_off_c, 0, 77, 64
2, 123744, Note_on_c, 0, 88, 96
2, 123744, Note_on_c, 0, 79, 91
2, 123832, Note_off_c, 0, 88, 64
2, 123832, Note_off_c, 0, 79, 64
2, 123840, Note_on_c, 0, 86, 96
2, 123840, Note_on_c, 0, 77, 93
2, 123928, Note_off_c, 0, 86, 64
2, 123928, Note_off_c, 0, 77, 64
2, 123936, Note_on_c, 0, 85, 95
2, 123936, Note_on_c, 0, 76, 89
2, 124024, Note_off_c, 0, 85, 64
2, 124024, Note_off_c, 0, 76, 64
2, 124032, Note_on_c, 0, 86, 95
2, 124032, Note_on_c, 0, 77, 90
2, 124120, Note_off_c, 0, 86, 64
2, 124120, Note_off_c, 0, 77, 64
2, 124128, Note_on_c, 0, 88, 96
2, 124128, Note_on_c, 0, 79, 91
2, 124216, Note_off_c, 0, 88, 64
2, 124216, Note_off_c, 0, 79, 64
2, 124224, Note_on_c, 0, 89, 97
2, 124224, Note_on_c, 0, 81, 92
2, 124312, Note_off_c, 0, 89, 64
2, 124312, Note_off_c, 0, 81, 64
2, 124320, Note_on_c, 0, 86, 95
2, 124320, Note_on_c, 0, 77, 90
2, 124412, Note_off_c, 0, 86, 64
2, 124412, Note_off_c, 0, 77, 64
2, 124416, Note_on_c, 0, 83, 93
2, 124416, Note_on_c, 0, 74, 88
2, 124504, Note_off_c, 0, 83, 64
2, 124504, Note_off_c, 0, 74, 64
2, 124512, Note_on_c, 0, 84, 94
2, 124512, Note_on_c, 0, 76, 89
2, 124600, Note_off_c, 0, 84, 64
2, 124600, Note_off_c, 0, 76, 64
2, 124608, Note_on_c, 0, 88, 96
2, 124608, Note_on_c, 0, 77, 90
2, 124696, Note_off_c, 0, 88, 64
2, 124696, Note_off_c, 0, 77, 64
2, 124704, Note_on_c, 0, 83, 93
2, 124704, Note_on_c, 0, 74, 88
2, 124792, Note_off_c, 0, 83, 64
2, 124792, Note_off_c, 0, 74, 64
2, 124800, Note_on_c, 0, 77, 90
2, 124800, Note_on_c, 0, 69, 86
2, 124888, Note_off_c, 0, 77, 64
2, 124888, Note_off_c, 0, 69, 64
2, 124896, Note_on_c, 0, 79, 91
2, 124896, Note_on_c, 0, 71, 87
2, 124984, Note_off_c, 0, 79, 64
2, 124984, Note_off_c, 0, 71, 64
2, 124992, Note_on_c, 0, 81, 92
2, 124992, Note_on_c, 0, 72, 88
2, 125080, Note_off_c, 0, 81, 64
2, 125080, Note_off_c, 0, 72, 64
2, 125088, Note_on_c, 0, 69, 90
2, 125088, Note_on_c, 0, 77, 86
2, 125176, Note_off_c, 0, 69, 64
2, 125176, Note_off_c, 0, 77, 64
2, 125184, Note_on_c, 0, 74, 88
2, 125184, Note_on_c, 0, 65, 84
2, 125272, Note_off_c, 0, 74, 64
2, 125272, Note_off_c, 0, 65, 64
2, 125280, Note_on_c, 0, 76, 91
2, 125280, Note_on_c, 0, 67, 87
2, 125368, Note_off_c, 0, 76, 64
2, 125368, Note_off_c, 0, 67, 64
2, 125376, Note_on_c, 0, 77, 92
2, 125376, Note_on_c, 0, 69, 88
2, 125464, Note_off_c, 0, 77, 64
2, 125464, Note_off_c, 0, 69, 64
2, 125472, Note_on_c, 0, 74, 90
2, 125472, Note_on_c, 0, 65, 86
2, 125560, Note_off_c, 0, 74, 64
2, 125560, Note_off_c, 0, 65, 64
2, 125568, Note_on_c, 0, 71, 86
2, 125568, Note_on_c, 0, 62, 82
2, 125656, Note_off_c, 0, 71, 64
2, 125656, Note_off_c, 0, 62, 64
2, 125664, Note_on_c, 0, 72, 87
2, 125664, Note_on_c, 0, 64, 83
2, 125752, Note_off_c, 0, 72, 64
2, 125752, Note_off_c, 0, 64, 64
2, 125760, Note_on_c, 0, 74, 88
2, 125760, Note_on_c, 0, 65, 84
2, 125848, Note_off_c, 0, 74, 64
2, 125848, Note_off_c, 0, 65, 64
2, 125856, Note_on_c, 0, 71, 86
2, 125856, Note_on_c, 0, 62, 82
2, 125944, Note_off_c, 0, 71, 64
2, 125944, Note_off_c, 0, 62, 64
2, 125952, Note_on_c, 0, 65, 84
2, 126040, Note_off_c, 0, 65, 64
2, 126048, Note_on_c, 0, 67, 85
2, 126136, Note_off_c, 0, 67, 64
2, 126144, Note_on_c, 0, 65, 84
2, 126232, Note_off_c, 0, 65, 64
2, 126240, Note_on_c, 0, 64, 83
2, 126328, Note_off_c, 0, 64, 64
2, 126336, Note_on_c, 0, 65, 84
2, 126424, Note_off_c, 0, 65, 64
2, 126432, Note_on_c, 0, 67, 85
2, 126520, Note_off_c, 0, 67, 64
2, 126528, Note_on_c, 0, 69, 86
2, 126616, Note_off_c, 0, 69, 64
2, 126624, Note_on_c, 0, 70, 87
2, 126712, Note_off_c, 0, 70, 64
2, 126720, Note_on_c, 0, 71, 88
2, 126808, Note_off_c, 0, 71, 64
2, 126816, Note_on_c, 0, 72, 88
2, 126904, Note_off_c, 0, 72, 64
2, 126912, Note_on_c, 0, 73, 89
2, 127000, Note_off_c, 0, 73, 64
2, 127008, Note_on_c, 0, 74, 90
2, 127096, Note_off_c, 0, 74, 64
2, 127104, Note_on_c, 0, 75, 90
2, 127192, Note_off_c, 0, 75, 64
2, 127200, Note_on_c, 0, 76, 90
2, 127288, Note_off_c, 0, 76, 64
2, 127296, Note_on_c, 0, 77, 90
2, 127384, Note_off_c, 0, 77, 64
2, 127392, Note_on_c, 0, 78, 90
2, 127480, Note_off_c, 0, 78, 64
2, 127488, Note_on_c, 0, 79, 91
2, 127528, Note_off_c, 0, 79, 64
2, 127536, Note_on_c, 0, 81, 92
2, 127576, Note_off_c, 0, 81, 64
2, 127584, Note_on_c, 0, 79, 91
2, 127624, Note_off_c, 0, 79, 64
2, 127632, Note_on_c, 0, 81, 92
2, 127672, Note_off_c, 0, 81, 64
2, 127680, Note_on_c, 0, 79, 91
2, 127720, Note_off_c, 0, 79, 64
2, 127728, Note_on_c, 0, 81, 92
2, 127768, Note_off_c, 0, 81, 64
2, 127776, Note_on_c, 0, 79, 91
2, 127816, Note_off_c, 0, 79, 64
2, 127824, Note_on_c, 0, 81, 92
2, 127864, Note_off_c, 0, 81, 64
2, 127872, Note_on_c, 0, 79, 91
2, 127912, Note_off_c, 0, 79, 64
2, 127920, Note_on_c, 0, 81, 92
2, 127960, Note_off_c, 0, 81, 64
2, 127968, Note_on_c, 0, 79, 91
2, 128008, Note_off_c, 0, 79, 64
2, 128016, Note_on_c, 0, 81, 92
2, 128056, Note_off_c, 0, 81, 64
2, 128064, Note_on_c, 0, 79, 91
2, 128104, Note_off_c, 0, 79, 64
2, 128112, Note_on_c, 0, 81, 92
2, 128152, Note_off_c, 0, 81, 64
2, 128160, Note_on_c, 0, 79, 91
2, 128200, Note_off_c, 0, 79, 64
2, 128208, Note_on_c, 0, 81, 92
2, 128248, Note_off_c, 0, 81, 64
2, 128256, Note_on_c, 0, 79, 91
2, 128296, Note_off_c, 0, 79, 64
2, 128304, Note_on_c, 0, 81, 92
2, 128344, Note_off_c, 0, 81, 64
2, 128352, Note_on_c, 0, 79, 91
2, 128392, Note_off_c, 0, 79, 64
2, 128400, Note_on_c, 0, 81, 92
2, 128440, Note_off_c, 0, 81, 64
2, 128448, Note_on_c, 0, 79, 91
2, 128488, Note_off_c, 0, 79, 64
2, 128496, Note_on_c, 0, 81, 92
2, 128536, Note_off_c, 0, 81, 64
2, 128544, Note_on_c, 0, 79, 91
2, 128584, Note_off_c, 0, 79, 64
2, 128592, Note_on_c, 0, 81, 92
2, 128632, Note_off_c, 0, 81, 64
2, 128640, Note_on_c, 0, 79, 91
2, 128680, Note_off_c, 0, 79, 64
2, 128688, Note_on_c, 0, 81, 92
2, 128728, Note_off_c, 0, 81, 64
2, 128736, Note_on_c, 0, 79, 91
2, 128776, Note_off_c, 0, 79, 64
2, 128784, Note_on_c, 0, 81, 92
2, 128824, Note_off_c, 0, 81, 64
2, 128832, Note_on_c, 0, 79, 91
2, 128872, Note_off_c, 0, 79, 64
2, 128880, Note_on_c, 0, 81, 92
2, 128920, Note_off_c, 0, 81, 64
2, 128928, Note_on_c, 0, 79, 91
2, 128968, Note_off_c, 0, 79, 64
2, 128976, Note_on_c, 0, 81, 92
2, 129016, Note_off_c, 0, 81, 64
2, 129024, Note_on_c, 0, 79, 66
2, 129064, Note_off_c, 0, 79, 64
2, 129072, Note_on_c, 0, 81, 67
2, 129112, Note_off_c, 0, 81, 64
2, 129120, Note_on_c, 0, 79, 66
2, 129160, Note_off_c, 0, 79, 64
2, 129168, Note_on_c, 0, 81, 67
2, 129208, Note_off_c, 0, 81, 64
2, 129216, Note_on_c, 0, 79, 66
2, 129256, Note_off_c, 0, 79, 64
2, 129264, Note_on_c, 0, 81, 67
2, 129304, Note_off_c, 0, 81, 64
2, 129312, Note_on_c, 0, 79, 66
2, 129352, Note_off_c, 0, 79, 64
2, 129360, Note_on_c, 0, 81, 67
2, 129400, Note_off_c, 0, 81, 64
2, 129408, Note_on_c, 0, 79, 66
2, 129448, Note_off_c, 0, 79, 64
2, 129456, Note_on_c, 0, 81, 67
2, 129496, Note_off_c, 0, 81, 64
2, 129504, Note_on_c, 0, 79, 66
2, 129544, Note_off_c, 0, 79, 64
2, 129552, Note_on_c, 0, 81, 67
2, 129592, Note_off_c, 0, 81, 64
2, 129600, Note_on_c, 0, 79, 66
2, 129640, Note_off_c, 0, 79, 64
2, 129648, Note_on_c, 0, 81, 67
2, 129688, Note_off_c, 0, 81, 64
2, 129696, Note_on_c, 0, 79, 66
2, 129736, Note_off_c, 0, 79, 64
2, 129744, Note_on_c, 0, 81, 67
2, 129784, Note_off_c, 0, 81, 64
2, 129792, Note_on_c, 0, 79, 66
2, 129832, Note_off_c, 0, 79, 64
2, 129840, Note_on_c, 0, 81, 67
2, 129880, Note_off_c, 0, 81, 64
2, 129888, Note_on_c, 0, 79, 66
2, 129928, Note_off_c, 0, 79, 64
2, 129936, Note_on_c, 0, 81, 67
2, 129976, Note_off_c, 0, 81, 64
2, 129984, Note_on_c, 0, 79, 66
2, 130024, Note_off_c, 0, 79, 64
2, 130032, Note_on_c, 0, 81, 67
2, 130072, Note_off_c, 0, 81, 64
2, 130080, Note_on_c, 0, 79, 66
2, 130120, Note_off_c, 0, 79, 64
2, 130128, Note_on_c, 0, 81, 67
2, 130168, Note_off_c, 0, 81, 64
2, 130176, Note_on_c, 0, 79, 66
2, 130216, Note_off_c, 0, 79, 64
2, 130224, Note_on_c, 0, 81, 67
2, 130264, Note_off_c, 0, 81, 64
2, 130272, Note_on_c, 0, 79, 66
2, 130312, Note_off_c, 0, 79, 64
2, 130320, Note_on_c, 0, 81, 67
2, 130360, Note_off_c, 0, 81, 64
2, 130368, Note_on_c, 0, 79, 66
2, 130408, Note_off_c, 0, 79, 64
2, 130416, Note_on_c, 0, 81, 67
2, 130456, Note_off_c, 0, 81, 64
2, 130464, Note_on_c, 0, 79, 66
2, 130504, Note_off_c, 0, 79, 64
2, 130512, Note_on_c, 0, 81, 67
2, 130552, Note_off_c, 0, 81, 64
2, 130560, Note_on_c, 0, 79, 66
2, 130600, Note_off_c, 0, 79, 64
2, 130608, Note_on_c, 0, 81, 67
2, 130648, Note_off_c, 0, 81, 64
2, 130656, Note_on_c, 0, 79, 66
2, 130696, Note_off_c, 0, 79, 64
2, 130704, Note_on_c, 0, 81, 67
2, 130744, Note_off_c, 0, 81, 64
2, 130752, Note_on_c, 0, 79, 66
2, 130792, Note_off_c, 0, 79, 64
2, 130800, Note_on_c, 0, 81, 67
2, 130840, Note_off_c, 0, 81, 64
2, 130848, Note_on_c, 0, 79, 66
2, 130888, Note_off_c, 0, 79, 64
2, 130896, Note_on_c, 0, 81, 67
2, 130936, Note_off_c, 0, 81, 64
2, 130944, Note_on_c, 0, 79, 66
2, 130984, Note_off_c, 0, 79, 64
2, 130992, Note_on_c, 0, 81, 67
2, 131032, Note_off_c, 0, 81, 64
2, 131040, Note_on_c, 0, 79, 66
2, 131080, Note_off_c, 0, 79, 64
2, 131088, Note_on_c, 0, 81, 67
2, 131128, Note_off_c, 0, 81, 64
2, 131136, Note_on_c, 0, 79, 66
2, 131176, Note_off_c, 0, 79, 64
2, 131184, Note_on_c, 0, 81, 67
2, 131224, Note_off_c, 0, 81, 64
2, 131232, Note_on_c, 0, 79, 66
2, 131272, Note_off_c, 0, 79, 64
2, 131280, Note_on_c, 0, 81, 67
2, 131320, Note_off_c, 0, 81, 64
2, 131328, Note_on_c, 0, 79, 66
2, 131368, Note_off_c, 0, 79, 64
2, 131376, Note_on_c, 0, 81, 67
2, 131416, Note_off_c, 0, 81, 64
2, 131424, Note_on_c, 0, 79, 66
2, 131464, Note_off_c, 0, 79, 64
2, 131472, Note_on_c, 0, 81, 67
2, 131512, Note_off_c, 0, 81, 64
2, 131520, Note_on_c, 0, 79, 66
2, 131560, Note_off_c, 0, 79, 64
2, 131568, Note_on_c, 0, 81, 67
2, 131608, Note_off_c, 0, 81, 64
2, 131616, Note_on_c, 0, 79, 66
2, 131656, Note_off_c, 0, 79, 64
2, 131664, Note_on_c, 0, 81, 67
2, 131704, Note_off_c, 0, 81, 64
2, 131712, Note_on_c, 0, 79, 66
2, 131752, Note_off_c, 0, 79, 64
2, 131760, Note_on_c, 0, 81, 67
2, 131800, Note_off_c, 0, 81, 64
2, 131808, Note_on_c, 0, 79, 66
2, 131848, Note_off_c, 0, 79, 64
2, 131856, Note_on_c, 0, 81, 67
2, 131896, Note_off_c, 0, 81, 64
2, 131904, Note_on_c, 0, 79, 66
2, 131944, Note_off_c, 0, 79, 64
2, 131952, Note_on_c, 0, 81, 67
2, 131992, Note_off_c, 0, 81, 64
2, 132000, Note_on_c, 0, 79, 66
2, 132040, Note_off_c, 0, 79, 64
2, 132048, Note_on_c, 0, 81, 67
2, 132088, Note_off_c, 0, 81, 64
2, 132096, Note_on_c, 0, 79, 66
2, 132136, Note_off_c, 0, 79, 64
2, 132144, Note_on_c, 0, 81, 67
2, 132184, Note_off_c, 0, 81, 64
2, 132192, Note_on_c, 0, 79, 66
2, 132232, Note_off_c, 0, 79, 64
2, 132240, Note_on_c, 0, 81, 67
2, 132280, Note_off_c, 0, 81, 64
2, 132288, Note_on_c, 0, 79, 66
2, 132328, Note_off_c, 0, 79, 64
2, 132336, Note_on_c, 0, 81, 67
2, 132376, Note_off_c, 0, 81, 64
2, 132384, Note_on_c, 0, 79, 66
2, 132424, Note_off_c, 0, 79, 64
2, 132432, Note_on_c, 0, 81, 67
2, 132472, Note_off_c, 0, 81, 64
2, 132480, Note_on_c, 0, 79, 66
2, 132520, Note_off_c, 0, 79, 64
2, 132528, Note_on_c, 0, 81, 67
2, 132568, Note_off_c, 0, 81, 64
2, 132576, Note_on_c, 0, 79, 66
2, 132616, Note_off_c, 0, 79, 64
2, 132624, Note_on_c, 0, 81, 67
2, 132664, Note_off_c, 0, 81, 64
2, 132672, Note_on_c, 0, 79, 66
2, 132712, Note_off_c, 0, 79, 64
2, 132720, Note_on_c, 0, 81, 67
2, 132760, Note_off_c, 0, 81, 64
2, 132768, Note_on_c, 0, 79, 66
2, 132808, Note_off_c, 0, 79, 64
2, 132816, Note_on_c, 0, 81, 67
2, 132856, Note_off_c, 0, 81, 64
2, 132864, Note_on_c, 0, 79, 66
2, 132904, Note_off_c, 0, 79, 64
2, 132912, Note_on_c, 0, 81, 67
2, 132952, Note_off_c, 0, 81, 64
2, 132960, Note_on_c, 0, 79, 66
2, 133000, Note_off_c, 0, 79, 64
2, 133008, Note_on_c, 0, 81, 67
2, 133048, Note_off_c, 0, 81, 64
2, 133056, Note_on_c, 0, 79, 66
2, 133096, Note_off_c, 0, 79, 64
2, 133104, Note_on_c, 0, 81, 67
2, 133144, Note_off_c, 0, 81, 64
2, 133152, Note_on_c, 0, 79, 66
2, 133192, Note_off_c, 0, 79, 64
2, 133200, Note_on_c, 0, 81, 67
2, 133240, Note_off_c, 0, 81, 64
2, 133248, Note_on_c, 0, 79, 66
2, 133288, Note_off_c, 0, 79, 64
2, 133296, Note_on_c, 0, 81, 67
2, 133336, Note_off_c, 0, 81, 64
2, 133344, Note_on_c, 0, 79, 66
2, 133384, Note_off_c, 0, 79, 64
2, 133392, Note_on_c, 0, 81, 67
2, 133432, Note_off_c, 0, 81, 64
2, 133440, Note_on_c, 0, 79, 66
2, 133480, Note_off_c, 0, 79, 64
2, 133488, Note_on_c, 0, 81, 67
2, 133528, Note_off_c, 0, 81, 64
2, 133536, Note_on_c, 0, 79, 66
2, 133576, Note_off_c, 0, 79, 64
2, 133584, Note_on_c, 0, 81, 67
2, 133624, Note_off_c, 0, 81, 64
2, 133632, Note_on_c, 0, 79, 66
2, 133672, Note_off_c, 0, 79, 64
2, 133680, Note_on_c, 0, 81, 67
2, 133720, Note_off_c, 0, 81, 64
2, 133728, Note_on_c, 0, 79, 66
2, 133768, Note_off_c, 0, 79, 64
2, 133776, Note_on_c, 0, 81, 67
2, 133816, Note_off_c, 0, 81, 64
2, 133824, Note_on_c, 0, 79, 66
2, 133864, Note_off_c, 0, 79, 64
2, 133872, Note_on_c, 0, 81, 67
2, 133912, Note_off_c, 0, 81, 64
2, 133920, Note_on_c, 0, 79, 66
2, 133960, Note_off_c, 0, 79, 64
2, 133968, Note_on_c, 0, 81, 67
2, 134008, Note_off_c, 0, 81, 64
2, 134016, Note_on_c, 0, 79, 66
2, 134056, Note_off_c, 0, 79, 64
2, 134064, Note_on_c, 0, 81, 67
2, 134104, Note_off_c, 0, 81, 64
2, 134112, Note_on_c, 0, 79, 66
2, 134152, Note_off_c, 0, 79, 64
2, 134160, Note_on_c, 0, 81, 67
2, 134200, Note_off_c, 0, 81, 64
2, 134208, Note_on_c, 0, 79, 66
2, 134248, Note_off_c, 0, 79, 64
2, 134256, Note_on_c, 0, 81, 67
2, 134296, Note_off_c, 0, 81, 64
2, 134304, Note_on_c, 0, 79, 66
2, 134344, Note_off_c, 0, 79, 64
2, 134352, Note_on_c, 0, 81, 67
2, 134392, Note_off_c, 0, 81, 64
2, 134400, Note_on_c, 0, 79, 66
2, 134440, Note_off_c, 0, 79, 64
2, 134448, Note_on_c, 0, 81, 67
2, 134488, Note_off_c, 0, 81, 64
2, 134496, Note_on_c, 0, 79, 66
2, 134536, Note_off_c, 0, 79, 64
2, 134544, Note_on_c, 0, 81, 67
2, 134584, Note_off_c, 0, 81, 64
2, 134592, Note_on_c, 0, 79, 66
2, 134632, Note_off_c, 0, 79, 64
2, 134640, Note_on_c, 0, 81, 67
2, 134680, Note_off_c, 0, 81, 64
2, 134688, Note_on_c, 0, 79, 66
2, 134728, Note_off_c, 0, 79, 64
2, 134736, Note_on_c, 0, 81, 67
2, 134776, Note_off_c, 0, 81, 64
2, 134784, Note_on_c, 0, 79, 66
2, 134824, Note_off_c, 0, 79, 64
2, 134832, Note_on_c, 0, 81, 67
2, 134872, Note_off_c, 0, 81, 64
2, 134880, Note_on_c, 0, 79, 66
2, 134920, Note_off_c, 0, 79, 64
2, 134928, Note_on_c, 0, 81, 67
2, 134968, Note_off_c, 0, 81, 64
2, 134976, Note_on_c, 0, 78, 66
2, 135064, Note_off_c, 0, 78, 64
2, 135072, Note_on_c, 0, 79, 67
2, 135160, Note_off_c, 0, 79, 64
2, 135168, Note_on_c, 0, 79, 65
2, 135360, Note_on_c, 0, 67, 65
2, 135360, Note_on_c, 0, 64, 65
2, 135360, Note_on_c, 0, 60, 65
2, 135548, Note_off_c, 0, 67, 64
2, 135548, Note_off_c, 0, 64, 64
2, 135548, Note_off_c, 0, 60, 64
2, 135552, Note_on_c, 0, 67, 65
2, 135552, Note_on_c, 0, 64, 65
2, 135552, Note_on_c, 0, 60, 65
2, 135740, Note_off_c, 0, 67, 64
2, 135740, Note_off_c, 0, 64, 64
2, 135740, Note_off_c, 0, 60, 64
2, 135744, Note_on_c, 0, 67, 65
2, 135744, Note_on_c, 0, 64, 65
2, 135744, Note_on_c, 0, 60, 65
2, 135932, Note_off_c, 0, 67, 64
2, 135932, Note_off_c, 0, 64, 64
2, 135932, Note_off_c, 0, 60, 64
2, 135936, Note_on_c, 0, 67, 65
2, 135936, Note_on_c, 0, 64, 65
2, 135936, Note_on_c, 0, 60, 65
2, 136124, Note_off_c, 0, 79, 64
2, 136128, Note_on_c, 0, 78, 65
2, 136316, Note_off_c, 0, 67, 64
2, 136316, Note_off_c, 0, 64, 64
2, 136316, Note_off_c, 0, 60, 64
2, 136316, Note_off_c, 0, 78, 64
2, 136320, Note_on_c, 0, 79, 65
2, 136508, Note_off_c, 0, 79, 64
2, 136512, Note_on_c, 0, 76, 65
2, 136700, Note_off_c, 0, 76, 64
2, 136704, Note_on_c, 0, 77, 65
2, 136896, Note_on_c, 0, 67, 65
2, 136896, Note_on_c, 0, 62, 65
2, 136896, Note_on_c, 0, 59, 65
2, 137084, Note_off_c, 0, 67, 64
2, 137084, Note_off_c, 0, 62, 64
2, 137084, Note_off_c, 0, 59, 64
2, 137088, Note_on_c, 0, 67, 65
2, 137088, Note_on_c, 0, 62, 65
2, 137088, Note_on_c, 0, 59, 65
2, 137276, Note_off_c, 0, 67, 64
2, 137276, Note_off_c, 0, 62, 64
2, 137276, Note_off_c, 0, 59, 64
2, 137280, Note_on_c, 0, 67, 65
2, 137280, Note_on_c, 0, 62, 65
2, 137280, Note_on_c, 0, 59, 65
2, 137468, Note_off_c, 0, 77, 64
2, 137468, Note_off_c, 0, 67, 64
2, 137468, Note_off_c, 0, 62, 64
2, 137468, Note_off_c, 0, 59, 64
2, 137472, Note_on_c, 0, 77, 65
2, 137472, Note_on_c, 0, 67, 65
2, 137472, Note_on_c, 0, 62, 65
2, 137472, Note_on_c, 0, 59, 65
2, 137660, Note_off_c, 0, 77, 64
2, 137664, Note_on_c, 0, 76, 65
2, 137852, Note_off_c, 0, 67, 64
2, 137852, Note_off_c, 0, 62, 64
2, 137852, Note_off_c, 0, 59, 64
2, 137852, Note_off_c, 0, 76, 64
2, 137856, Note_on_c, 0, 77, 65
2, 138044, Note_off_c, 0, 77, 64
2, 138048, Note_on_c, 0, 74, 65
2, 138236, Note_off_c, 0, 74, 64
2, 138240, Note_on_c, 0, 67, 65
2, 138240, Note_on_c, 0, 64, 65
2, 138240, Note_on_c, 0, 60, 65
2, 138240, Note_on_c, 0, 72, 65
2, 138332, Note_off_c, 0, 72, 64
2, 138336, Note_on_c, 0, 74, 65
2, 138428, Note_off_c, 0, 74, 64
2, 138432, Note_on_c, 0, 72, 65
2, 138524, Note_off_c, 0, 72, 64
2, 138528, Note_on_c, 0, 71, 65
2, 138620, Note_off_c, 0, 67, 64
2, 138620, Note_off_c, 0, 64, 64
2, 138620, Note_off_c, 0, 60, 64
2, 138620, Note_off_c, 0, 71, 64
2, 138624, Note_on_c, 0, 72, 65
2, 138812, Note_off_c, 0, 72, 64
2, 138816, Note_on_c, 0, 73, 65
2, 139004, Note_off_c, 0, 73, 64
2, 139008, Note_on_c, 0, 67, 65
2, 139008, Note_on_c, 0, 65, 65
2, 139008, Note_on_c, 0, 59, 65
2, 139008, Note_on_c, 0, 74, 65
2, 139100, Note_off_c, 0, 74, 64
2, 139104, Note_on_c, 0, 76, 65
2, 139196, Note_off_c, 0, 76, 64
2, 139200, Note_on_c, 0, 74, 65
2, 139292, Note_off_c, 0, 74, 64
2, 139296, Note_on_c, 0, 72, 65
2, 139388, Note_off_c, 0, 67, 64
2, 139388, Note_off_c, 0, 65, 64
2, 139388, Note_off_c, 0, 59, 64
2, 139388, Note_off_c, 0, 72, 64
2, 139392, Note_on_c, 0, 74, 65
2, 139580, Note_off_c, 0, 74, 64
2, 139584, Note_on_c, 0, 75, 65
2, 139772, Note_off_c, 0, 75, 64
2, 139776, Note_on_c, 0, 76, 65
2, 139776, Note_on_c, 0, 67, 65
2, 139776, Note_on_c, 0, 64, 65
2, 139776, Note_on_c, 0, 60, 65
2, 139964, Note_off_c, 0, 76, 64
2, 139968, Note_on_c, 0, 77, 65
2, 140060, Note_off_c, 0, 77, 64
2, 140064, Note_on_c, 0, 79, 65
2, 140156, Note_off_c, 0, 79, 64
2, 140160, Note_on_c, 0, 77, 65
2, 140252, Note_off_c, 0, 77, 64
2, 140352, Note_on_c, 0, 76, 65
2, 140540, Note_off_c, 0, 67, 64
2, 140540, Note_off_c, 0, 64, 64
2, 140540, Note_off_c, 0, 60, 64
2, 140540, Note_off_c, 0, 76, 64
2, 140544, Note_on_c, 0, 74, 65
2, 140544, Note_on_c, 0, 67, 65
2, 140544, Note_on_c, 0, 59, 65
2, 140544, Note_on_c, 0, 55, 65
2, 140732, Note_off_c, 0, 74, 64
2, 140736, Note_on_c, 0, 76, 65
2, 140924, Note_off_c, 0, 67, 64
2, 140924, Note_off_c, 0, 59, 64
2, 140924, Note_off_c, 0, 55, 64
2, 140924, Note_off_c, 0, 76, 64
2, 140928, Note_on_c, 0, 77, 65
2, 141116, Note_off_c, 0, 77, 64
2, 141120, Note_on_c, 0, 78, 65
2, 141308, Note_off_c, 0, 78, 64
2, 141312, Note_on_c, 0, 79, 66
2, 141504, Note_on_c, 0, 67, 67
2, 141504, Note_on_c, 0, 64, 67
2, 141504, Note_on_c, 0, 60, 67
2, 141596, Note_off_c, 0, 79, 64
2, 141600, Note_on_c, 0, 76, 68
2, 141692, Note_off_c, 0, 67, 64
2, 141692, Note_off_c, 0, 64, 64
2, 141692, Note_off_c, 0, 60, 64
2, 141692, Note_off_c, 0, 76, 64
2, 141696, Note_on_c, 0, 88, 77
2, 141696, Note_on_c, 0, 67, 69
2, 141696, Note_on_c, 0, 60, 69
2, 141696, Note_on_c, 0, 64, 69
2, 141884, Note_off_c, 0, 67, 64
2, 141884, Note_off_c, 0, 60, 64
2, 141884, Note_off_c, 0, 64, 64
2, 141888, Note_on_c, 0, 64, 71
2, 141888, Note_on_c, 0, 60, 71
2, 142076, Note_off_c, 0, 64, 64
2, 142076, Note_off_c, 0, 60, 64
2, 142080, Note_on_c, 0, 67, 73
2, 142080, Note_on_c, 0, 64, 73
2, 142080, Note_on_c, 0, 60, 73
2, 142172, Note_off_c, 0, 88, 64
2, 142176, Note_on_c, 0, 86, 74
2, 142268, Note_off_c, 0, 86, 64
2, 142272, Note_on_c, 0, 84, 75
2, 142364, Note_off_c, 0, 84, 64
2, 142368, Note_on_c, 0, 83, 76
2, 142460, Note_off_c, 0, 67, 64
2, 142460, Note_off_c, 0, 64, 64
2, 142460, Note_off_c, 0, 60, 64
2, 142460, Note_off_c, 0, 83, 64
2, 142464, Note_on_c, 0, 81, 77
2, 142556, Note_off_c, 0, 81, 64
2, 142556, Note_on_c, 0, 79, 78
2, 142648, Note_off_c, 0, 79, 64
2, 142656, Note_on_c, 0, 77, 79
2, 142748, Note_off_c, 0, 77, 64
2, 142752, Note_on_c, 0, 76, 80
2, 142844, Note_off_c, 0, 76, 64
2, 142848, Note_on_c, 0, 79, 82
2, 142940, Note_off_c, 0, 79, 64
2, 142944, Note_on_c, 0, 77, 82
2, 143036, Note_off_c, 0, 77, 64
2, 143040, Note_on_c, 0, 86, 87
2, 143040, Note_on_c, 0, 67, 83
2, 143040, Note_on_c, 0, 62, 83
2, 143040, Note_on_c, 0, 59, 83
2, 143132, Note_off_c, 0, 86, 64
2, 143136, Note_on_c, 0, 83, 93
2, 143228, Note_off_c, 0, 67, 64
2, 143228, Note_off_c, 0, 62, 64
2, 143228, Note_off_c, 0, 59, 64
2, 143228, Note_off_c, 0, 83, 64
2, 143232, Note_on_c, 0, 89, 97
2, 143232, Note_on_c, 0, 67, 96
2, 143232, Note_on_c, 0, 62, 95
2, 143232, Note_on_c, 0, 59, 94
2, 143420, Note_off_c, 0, 67, 64
2, 143420, Note_off_c, 0, 62, 64
2, 143420, Note_off_c, 0, 59, 64
2, 143424, Note_on_c, 0, 67, 93
2, 143424, Note_on_c, 0, 62, 92
2, 143424, Note_on_c, 0, 59, 91
2, 143612, Note_off_c, 0, 67, 64
2, 143612, Note_off_c, 0, 62, 64
2, 143612, Note_off_c, 0, 59, 64
2, 143616, Note_on_c, 0, 62, 90
2, 143616, Note_on_c, 0, 59, 90
2, 143708, Note_off_c, 0, 89, 64
2, 143712, Note_on_c, 0, 88, 95
2, 143804, Note_off_c, 0, 88, 64
2, 143808, Note_on_c, 0, 86, 95
2, 143900, Note_off_c, 0, 86, 64
2, 143904, Note_on_c, 0, 84, 94
2, 143996, Note_off_c, 0, 62, 64
2, 143996, Note_off_c, 0, 59, 64
2, 143996, Note_off_c, 0, 84, 64
2, 144000, Note_on_c, 0, 83, 93
2, 144092, Note_off_c, 0, 83, 64
2, 144096, Note_on_c, 0, 81, 92
2, 144188, Note_off_c, 0, 81, 64
2, 144192, Note_on_c, 0, 79, 91
2, 144284, Note_off_c, 0, 79, 64
2, 144288, Note_on_c, 0, 77, 90
2, 144380, Note_off_c, 0, 77, 64
2, 144384, Note_on_c, 0, 76, 89
2, 144476, Note_off_c, 0, 76, 64
2, 144480, Note_on_c, 0, 79, 91
2, 144572, Note_off_c, 0, 79, 64
2, 144576, Note_on_c, 0, 84, 94
2, 144668, Note_off_c, 0, 84, 64
2, 144672, Note_on_c, 0, 83, 93
2, 144764, Note_off_c, 0, 83, 64
2, 144768, Note_on_c, 0, 81, 92
2, 144860, Note_off_c, 0, 81, 64
2, 144864, Note_on_c, 0, 79, 91
2, 144956, Note_off_c, 0, 79, 64
2, 144960, Note_on_c, 0, 77, 90
2, 145052, Note_off_c, 0, 77, 64
2, 145056, Note_on_c, 0, 76, 89
2, 145148, Note_off_c, 0, 76, 64
2, 145152, Note_on_c, 0, 74, 88
2, 145244, Note_off_c, 0, 74, 64
2, 145248, Note_on_c, 0, 78, 87
2, 145340, Note_off_c, 0, 78, 64
2, 145344, Note_on_c, 0, 79, 84
2, 145436, Note_off_c, 0, 79, 64
2, 145440, Note_on_c, 0, 77, 81
2, 145532, Note_off_c, 0, 77, 64
2, 145536, Note_on_c, 0, 76, 78
2, 145628, Note_off_c, 0, 76, 64
2, 145632, Note_on_c, 0, 76, 76
2, 145724, Note_off_c, 0, 76, 64
2, 145728, Note_on_c, 0, 72, 74
2, 145820, Note_off_c, 0, 72, 64
2, 145824, Note_on_c, 0, 71, 72
2, 145916, Note_off_c, 0, 71, 64
2, 145920, Note_on_c, 0, 72, 65
2, 145920, Note_on_c, 0, 64, 65
2, 146108, Note_off_c, 0, 64, 64
2, 146112, Note_on_c, 0, 60, 65
2, 146300, Note_off_c, 0, 72, 64
2, 146300, Note_off_c, 0, 60, 64
2, 146304, Note_on_c, 0, 64, 65
2, 146492, Note_off_c, 0, 64, 64
2, 146496, Note_on_c, 0, 60, 65
2, 146684, Note_off_c, 0, 60, 64
2, 146688, Note_on_c, 0, 64, 65
2, 146832, Note_on_c, 0, 72, 75
2, 146868, Note_off_c, 0, 72, 64
2, 146876, Note_off_c, 0, 64, 64
2, 146880, Note_on_c, 0, 74, 70
2, 146880, Note_on_c, 0, 60, 65
2, 146916, Note_off_c, 0, 74, 64
2, 146928, Note_on_c, 0, 72, 70
2, 146964, Note_off_c, 0, 72, 64
2, 146976, Note_on_c, 0, 71, 70
2, 147012, Note_off_c, 0, 71, 64
2, 147024, Note_on_c, 0, 72, 70
2, 147060, Note_off_c, 0, 72, 64
2, 147068, Note_off_c, 0, 60, 64
2, 147072, Note_on_c, 0, 76, 65
2, 147072, Note_on_c, 0, 67, 65
2, 147260, Note_off_c, 0, 76, 64
2, 147260, Note_off_c, 0, 67, 64
2, 147264, Note_on_c, 0, 72, 65
2, 147264, Note_on_c, 0, 64, 65
2, 147452, Note_off_c, 0, 72, 64
2, 147452, Note_off_c, 0, 64, 64
2, 147456, Note_on_c, 0, 68, 65
2, 147456, Note_on_c, 0, 65, 65
2, 147644, Note_off_c, 0, 68, 64
2, 147644, Note_off_c, 0, 65, 64
2, 147648, Note_on_c, 0, 69, 65
2, 147648, Note_on_c, 0, 60, 65
2, 147836, Note_off_c, 0, 69, 64
2, 147836, Note_off_c, 0, 60, 64
2, 147840, Note_on_c, 0, 69, 65
2, 147840, Note_on_c, 0, 65, 65
2, 148028, Note_off_c, 0, 65, 64
2, 148032, Note_on_c, 0, 60, 65
2, 148220, Note_off_c, 0, 60, 64
2, 148224, Note_on_c, 0, 65, 65
2, 148412, Note_off_c, 0, 69, 64
2, 148412, Note_off_c, 0, 65, 64
2, 148416, Note_on_c, 0, 69, 65
2, 148416, Note_on_c, 0, 60, 65
2, 148604, Note_off_c, 0, 69, 64
2, 148604, Note_off_c, 0, 60, 64
2, 148608, Note_on_c, 0, 77, 65
2, 148608, Note_on_c, 0, 65, 65
2, 148796, Note_off_c, 0, 77, 64
2, 148796, Note_off_c, 0, 65, 64
2, 148800, Note_on_c, 0, 74, 65
2, 148800, Note_on_c, 0, 60, 65
2, 148988, Note_off_c, 0, 74, 64
2, 148988, Note_off_c, 0, 60, 64
2, 148992, Note_on_c, 0, 72, 65
2, 148992, Note_on_c, 0, 62, 65
2, 149180, Note_off_c, 0, 72, 64
2, 149180, Note_off_c, 0, 62, 64
2, 149184, Note_on_c, 0, 71, 65
2, 149184, Note_on_c, 0, 60, 65
2, 149372, Note_off_c, 0, 71, 64
2, 149372, Note_off_c, 0, 60, 64
2, 149376, Note_on_c, 0, 71, 65
2, 149376, Note_on_c, 0, 62, 65
2, 149564, Note_off_c, 0, 62, 64
2, 149568, Note_on_c, 0, 60, 65
2, 149756, Note_off_c, 0, 60, 64
2, 149760, Note_on_c, 0, 62, 65
2, 149948, Note_off_c, 0, 71, 64
2, 149948, Note_off_c, 0, 62, 64
2, 149952, Note_on_c, 0, 71, 65
2, 149952, Note_on_c, 0, 60, 65
2, 150140, Note_off_c, 0, 71, 64
2, 150140, Note_off_c, 0, 60, 64
2, 150144, Note_on_c, 0, 81, 67
2, 150144, Note_on_c, 0, 65, 65
2, 150332, Note_off_c, 0, 81, 64
2, 150332, Note_off_c, 0, 65, 64
2, 150336, Note_on_c, 0, 79, 66
2, 150336, Note_on_c, 0, 60, 65
2, 150524, Note_off_c, 0, 79, 64
2, 150524, Note_off_c, 0, 60, 64
2, 150528, Note_on_c, 0, 79, 66
2, 150528, Note_on_c, 0, 64, 65
2, 150716, Note_off_c, 0, 64, 64
2, 150720, Note_on_c, 0, 60, 65
2, 150812, Note_off_c, 0, 79, 64
2, 150816, Note_on_c, 0, 76, 70
2, 150908, Note_off_c, 0, 60, 64
2, 150908, Note_off_c, 0, 76, 64
2, 150912, Note_on_c, 0, 72, 65
2, 150912, Note_on_c, 0, 64, 65
2, 151100, Note_off_c, 0, 64, 64
2, 151104, Note_on_c, 0, 60, 65
2, 151292, Note_off_c, 0, 72, 64
2, 151292, Note_off_c, 0, 60, 64
2, 151296, Note_on_c, 0, 64, 65
2, 151440, Note_on_c, 0, 72, 75
2, 151476, Note_off_c, 0, 72, 64
2, 151484, Note_off_c, 0, 64, 64
2, 151488, Note_on_c, 0, 74, 70
2, 151488, Note_on_c, 0, 60, 65
2, 151524, Note_off_c, 0, 74, 64
2, 151536, Note_on_c, 0, 72, 70
2, 151572, Note_off_c, 0, 72, 64
2, 151584, Note_on_c, 0, 71, 70
2, 151620, Note_off_c, 0, 71, 64
2, 151632, Note_on_c, 0, 72, 70
2, 151668, Note_off_c, 0, 72, 64
2, 151676, Note_off_c, 0, 60, 64
2, 151680, Note_on_c, 0, 76, 65
2, 151680, Note_on_c, 0, 67, 65
2, 151868, Note_off_c, 0, 76, 64
2, 151868, Note_off_c, 0, 67, 64
2, 151872, Note_on_c, 0, 72, 65
2, 151872, Note_on_c, 0, 60, 65
2, 152060, Note_off_c, 0, 72, 64
2, 152060, Note_off_c, 0, 60, 64
2, 152064, Note_on_c, 0, 71, 65
2, 152064, Note_on_c, 0, 65, 65
2, 152252, Note_off_c, 0, 65, 64
2, 152256, Note_on_c, 0, 60, 65
2, 152348, Note_off_c, 0, 71, 64
2, 152352, Note_on_c, 0, 69, 65
2, 152444, Note_off_c, 0, 60, 64
2, 152444, Note_off_c, 0, 69, 64
2, 152448, Note_on_c, 0, 81, 67
2, 152448, Note_on_c, 0, 65, 65
2, 152636, Note_off_c, 0, 65, 64
2, 152640, Note_on_c, 0, 60, 65
2, 152828, Note_off_c, 0, 60, 64
2, 152832, Note_on_c, 0, 65, 65
2, 152924, Note_off_c, 0, 81, 64
2, 152928, Note_on_c, 0, 79, 66
2, 153020, Note_off_c, 0, 65, 64
2, 153020, Note_off_c, 0, 79, 64
2, 153024, Note_on_c, 0, 77, 65
2, 153024, Note_on_c, 0, 60, 65
2, 153116, Note_off_c, 0, 77, 64
2, 153120, Note_on_c, 0, 76, 65
2, 153212, Note_off_c, 0, 60, 64
2, 153212, Note_off_c, 0, 76, 64
2, 153216, Note_on_c, 0, 74, 65
2, 153216, Note_on_c, 0, 65, 65
2, 153308, Note_off_c, 0, 74, 64
2, 153312, Note_on_c, 0, 72, 65
2, 153392, Note_on_c, 0, 60, 65
2, 153404, Note_off_c, 0, 65, 64
2, 153404, Note_off_c, 0, 72, 64
2, 153408, Note_on_c, 0, 71, 65
2, 153500, Note_off_c, 0, 71, 64
2, 153504, Note_on_c, 0, 69, 65
2, 153580, Note_off_c, 0, 60, 64
2, 153596, Note_off_c, 0, 69, 64
2, 153600, Note_on_c, 0, 72, 65
2, 153600, Note_on_c, 0, 62, 65
2, 153788, Note_off_c, 0, 62, 64
2, 153792, Note_on_c, 0, 60, 65
2, 153884, Note_off_c, 0, 72, 64
2, 153888, Note_on_c, 0, 71, 65
2, 153980, Note_off_c, 0, 60, 64
2, 153980, Note_off_c, 0, 71, 64
2, 153984, Note_on_c, 0, 83, 68
2, 153984, Note_on_c, 0, 62, 65
2, 154172, Note_off_c, 0, 62, 64
2, 154176, Note_on_c, 0, 60, 65
2, 154364, Note_off_c, 0, 60, 64
2, 154368, Note_on_c, 0, 62, 65
2, 154460, Note_off_c, 0, 83, 64
2, 154464, Note_on_c, 0, 81, 67
2, 154556, Note_off_c, 0, 62, 64
2, 154556, Note_off_c, 0, 81, 64
2, 154560, Note_on_c, 0, 79, 66
2, 154560, Note_on_c, 0, 60, 65
2, 154652, Note_off_c, 0, 79, 64
2, 154656, Note_on_c, 0, 77, 65
2, 154748, Note_off_c, 0, 60, 64
2, 154748, Note_off_c, 0, 77, 64
2, 154752, Note_on_c, 0, 76, 65
2, 154752, Note_on_c, 0, 65, 65
2, 154844, Note_off_c, 0, 76, 64
2, 154848, Note_on_c, 0, 74, 65
2, 154928, Note_on_c, 0, 60, 65
2, 154940, Note_off_c, 0, 65, 64
2, 154940, Note_off_c, 0, 74, 64
2, 154944, Note_on_c, 0, 72, 65
2, 155036, Note_off_c, 0, 72, 64
2, 155040, Note_on_c, 0, 71, 65
2, 155116, Note_off_c, 0, 60, 64
2, 155132, Note_off_c, 0, 71, 64
2, 155136, Note_on_c, 0, 74, 65
2, 155136, Note_on_c, 0, 64, 65
2, 155228, Note_off_c, 0, 74, 64
2, 155232, Note_on_c, 0, 72, 66
2, 155324, Note_off_c, 0, 64, 64
2, 155324, Note_off_c, 0, 72, 64
2, 155328, Note_on_c, 0, 84, 69
2, 155328, Note_on_c, 0, 60, 62
2, 155420, Note_off_c, 0, 84, 64
2, 155424, Note_on_c, 0, 83, 68
2, 155516, Note_off_c, 0, 60, 64
2, 155516, Note_off_c, 0, 83, 64
2, 155520, Note_on_c, 0, 81, 67
2, 155520, Note_on_c, 0, 64, 63
2, 155612, Note_off_c, 0, 81, 64
2, 155616, Note_on_c, 0, 79, 66
2, 155708, Note_off_c, 0, 64, 64
2, 155708, Note_off_c, 0, 79, 64
2, 155712, Note_on_c, 0, 77, 70
2, 155712, Note_on_c, 0, 60, 70
2, 155804, Note_off_c, 0, 77, 64
2, 155808, Note_on_c, 0, 76, 71
2, 155900, Note_off_c, 0, 60, 64
2, 155900, Note_off_c, 0, 76, 64
2, 155904, Note_on_c, 0, 73, 72
2, 155904, Note_on_c, 0, 59, 72
2, 155996, Note_off_c, 0, 73, 64
2, 156000, Note_on_c, 0, 74, 73
2, 156092, Note_off_c, 0, 59, 64
2, 156092, Note_off_c, 0, 74, 64
2, 156096, Note_on_c, 0, 86, 75
2, 156096, Note_on_c, 0, 67, 73
2, 156188, Note_off_c, 0, 86, 64
2, 156192, Note_on_c, 0, 84, 74
2, 156284, Note_off_c, 0, 67, 64
2, 156284, Note_off_c, 0, 84, 64
2, 156288, Note_on_c, 0, 83, 74
2, 156288, Note_on_c, 0, 65, 75
2, 156380, Note_off_c, 0, 83, 64
2, 156384, Note_on_c, 0, 81, 75
2, 156476, Note_off_c, 0, 65, 64
2, 156476, Note_off_c, 0, 81, 64
2, 156480, Note_on_c, 0, 79, 76
2, 156480, Note_on_c, 0, 67, 76
2, 156572, Note_off_c, 0, 79, 64
2, 156576, Note_on_c, 0, 77, 77
2, 156668, Note_off_c, 0, 67, 64
2, 156668, Note_off_c, 0, 77, 64
2, 156672, Note_on_c, 0, 75, 78
2, 156672, Note_on_c, 0, 60, 78
2, 156764, Note_off_c, 0, 75, 64
2, 156768, Note_on_c, 0, 76, 79
2, 156860, Note_off_c, 0, 60, 64
2, 156860, Note_off_c, 0, 76, 64
2, 156864, Note_on_c, 0, 88, 86
2, 156864, Note_on_c, 0, 67, 80
2, 156956, Note_off_c, 0, 88, 64
2, 156960, Note_on_c, 0, 86, 85
2, 157052, Note_off_c, 0, 67, 64
2, 157052, Note_off_c, 0, 86, 64
2, 157056, Note_on_c, 0, 84, 84
2, 157056, Note_on_c, 0, 64, 81
2, 157148, Note_off_c, 0, 84, 64
2, 157152, Note_on_c, 0, 83, 83
2, 157244, Note_off_c, 0, 64, 64
2, 157244, Note_off_c, 0, 83, 64
2, 157248, Note_on_c, 0, 81, 83
2, 157248, Note_on_c, 0, 69, 83
2, 157340, Note_off_c, 0, 81, 64
2, 157344, Note_on_c, 0, 79, 83
2, 157436, Note_off_c, 0, 69, 64
2, 157436, Note_off_c, 0, 79, 64
2, 157440, Note_on_c, 0, 76, 84
2, 157440, Note_on_c, 0, 62, 84
2, 157532, Note_off_c, 0, 76, 64
2, 157536, Note_on_c, 0, 77, 85
2, 157628, Note_off_c, 0, 62, 64
2, 157628, Note_off_c, 0, 77, 64
2, 157632, Note_on_c, 0, 89, 93
2, 157632, Note_on_c, 0, 69, 86
2, 157724, Note_off_c, 0, 89, 64
2, 157728, Note_on_c, 0, 88, 92
2, 157820, Note_off_c, 0, 69, 64
2, 157820, Note_off_c, 0, 88, 64
2, 157824, Note_on_c, 0, 86, 91
2, 157824, Note_on_c, 0, 65, 87
2, 157916, Note_off_c, 0, 86, 64
2, 157920, Note_on_c, 0, 84, 90
2, 158012, Note_off_c, 0, 65, 64
2, 158012, Note_off_c, 0, 84, 64
2, 158016, Note_on_c, 0, 83, 89
2, 158016, Note_on_c, 0, 71, 89
2, 158108, Note_off_c, 0, 83, 64
2, 158112, Note_on_c, 0, 81, 88
2, 158204, Note_off_c, 0, 71, 64
2, 158204, Note_off_c, 0, 81, 64
2, 158208, Note_on_c, 0, 78, 90
2, 158208, Note_on_c, 0, 64, 90
2, 158300, Note_off_c, 0, 78, 64
2, 158304, Note_on_c, 0, 79, 91
2, 158396, Note_off_c, 0, 64, 64
2, 158396, Note_off_c, 0, 79, 64
2, 158400, Note_on_c, 0, 88, 96
2, 158400, Note_on_c, 0, 72, 90
2, 158492, Note_off_c, 0, 88, 64
2, 158496, Note_on_c, 0, 76, 90
2, 158588, Note_off_c, 0, 72, 64
2, 158588, Note_off_c, 0, 76, 64
2, 158592, Note_on_c, 0, 79, 91
2, 158592, Note_on_c, 0, 74, 90
2, 158684, Note_off_c, 0, 79, 64
2, 158688, Note_on_c, 0, 77, 90
2, 158780, Note_off_c, 0, 74, 64
2, 158780, Note_off_c, 0, 77, 64
2, 158784, Note_on_c, 0, 86, 96
2, 158784, Note_on_c, 0, 71, 90
2, 158876, Note_off_c, 0, 86, 64
2, 158880, Note_on_c, 0, 74, 90
2, 158972, Note_off_c, 0, 71, 64
2, 158972, Note_off_c, 0, 74, 64
2, 158976, Note_on_c, 0, 77, 90
2, 158976, Note_on_c, 0, 72, 90
2, 159068, Note_off_c, 0, 77, 64
2, 159072, Note_on_c, 0, 76, 90
2, 159164, Note_off_c, 0, 72, 64
2, 159164, Note_off_c, 0, 76, 64
2, 159168, Note_on_c, 0, 84, 94
2, 159168, Note_on_c, 0, 69, 90
2, 159260, Note_off_c, 0, 84, 64
2, 159264, Note_on_c, 0, 72, 90
2, 159356, Note_off_c, 0, 69, 64
2, 159356, Note_off_c, 0, 72, 64
2, 159360, Note_on_c, 0, 76, 90
2, 159360, Note_on_c, 0, 71, 90
2, 159452, Note_off_c, 0, 76, 64
2, 159456, Note_on_c, 0, 74, 90
2, 159548, Note_off_c, 0, 71, 64
2, 159548, Note_off_c, 0, 74, 64
2, 159552, Note_on_c, 0, 83, 93
2, 159552, Note_on_c, 0, 67, 90
2, 159644, Note_off_c, 0, 83, 64
2, 159648, Note_on_c, 0, 71, 90
2, 159740, Note_off_c, 0, 67, 64
2, 159740, Note_off_c, 0, 71, 64
2, 159744, Note_on_c, 0, 74, 90
2, 159744, Note_on_c, 0, 69, 90
2, 159836, Note_off_c, 0, 74, 64
2, 159840, Note_on_c, 0, 72, 90
2, 159932, Note_off_c, 0, 69, 64
2, 159932, Note_off_c, 0, 72, 64
2, 159936, Note_on_c, 0, 81, 92
2, 159936, Note_on_c, 0, 65, 90
2, 160028, Note_off_c, 0, 81, 64
2, 160032, Note_on_c, 0, 69, 90
2, 160124, Note_off_c, 0, 65, 64
2, 160124, Note_off_c, 0, 69, 64
2, 160128, Note_on_c, 0, 72, 90
2, 160128, Note_on_c, 0, 67, 90
2, 160220, Note_off_c, 0, 72, 64
2, 160224, Note_on_c, 0, 71, 90
2, 160316, Note_off_c, 0, 67, 64
2, 160316, Note_off_c, 0, 71, 64
2, 160320, Note_on_c, 0, 79, 91
2, 160320, Note_on_c, 0, 64, 90
2, 160412, Note_off_c, 0, 79, 64
2, 160416, Note_on_c, 0, 67, 90
2, 160508, Note_off_c, 0, 64, 64
2, 160508, Note_off_c, 0, 67, 64
2, 160512, Note_on_c, 0, 71, 90
2, 160512, Note_on_c, 0, 65, 90
2, 160604, Note_off_c, 0, 71, 64
2, 160608, Note_on_c, 0, 69, 90
2, 160700, Note_off_c, 0, 65, 64
2, 160700, Note_off_c, 0, 69, 64
2, 160704, Note_on_c, 0, 77, 90
2, 160704, Note_on_c, 0, 62, 90
2, 160796, Note_off_c, 0, 77, 64
2, 160800, Note_on_c, 0, 65, 90
2, 160892, Note_off_c, 0, 62, 64
2, 160892, Note_off_c, 0, 65, 64
2, 160896, Note_on_c, 0, 69, 90
2, 160896, Note_on_c, 0, 64, 90
2, 160988, Note_off_c, 0, 69, 64
2, 160992, Note_on_c, 0, 67, 90
2, 161084, Note_off_c, 0, 64, 64
2, 161084, Note_off_c, 0, 67, 64
2, 161088, Note_on_c, 0, 76, 90
2, 161088, Note_on_c, 0, 60, 90
2, 161180, Note_off_c, 0, 76, 64
2, 161184, Note_on_c, 0, 64, 90
2, 161276, Note_off_c, 0, 60, 64
2, 161276, Note_off_c, 0, 64, 64
2, 161376, Note_on_c, 0, 62, 84
2, 161468, Note_off_c, 0, 62, 64
2, 161472, Note_on_c, 0, 64, 85
2, 161564, Note_off_c, 0, 64, 64
2, 161568, Note_on_c, 0, 65, 85
2, 161660, Note_off_c, 0, 65, 64
2, 161664, Note_on_c, 0, 67, 86
2, 161756, Note_off_c, 0, 67, 64
2, 161760, Note_on_c, 0, 69, 86
2, 161852, Note_off_c, 0, 69, 64
2, 161856, Note_on_c, 0, 71, 87
2, 161948, Note_off_c, 0, 71, 64
2, 161952, Note_on_c, 0, 72, 87
2, 162044, Note_off_c, 0, 72, 64
2, 162048, Note_on_c, 0, 73, 88
2, 162140, Note_off_c, 0, 73, 64
2, 162144, Note_on_c, 0, 74, 88
2, 162236, Note_off_c, 0, 74, 64
2, 162240, Note_on_c, 0, 75, 89
2, 162332, Note_off_c, 0, 75, 64
2, 162336, Note_on_c, 0, 76, 89
2, 162428, Note_off_c, 0, 76, 64
2, 162432, Note_on_c, 0, 77, 90
2, 162524, Note_off_c, 0, 77, 64
2, 162528, Note_on_c, 0, 78, 90
2, 162620, Note_off_c, 0, 78, 64
2, 162624, Note_on_c, 0, 79, 91
2, 162716, Note_off_c, 0, 79, 64
2, 162720, Note_on_c, 0, 80, 91
2, 162812, Note_off_c, 0, 80, 64
2, 162816, Note_on_c, 0, 83, 93
2, 162908, Note_off_c, 0, 83, 64
2, 162912, Note_on_c, 0, 81, 92
2, 163004, Note_off_c, 0, 81, 64
2, 163008, Note_on_c, 0, 84, 94
2, 163100, Note_off_c, 0, 84, 64
2, 163104, Note_on_c, 0, 83, 93
2, 163196, Note_off_c, 0, 83, 64
2, 163200, Note_on_c, 0, 81, 92
2, 163292, Note_off_c, 0, 81, 64
2, 163296, Note_on_c, 0, 79, 91
2, 163388, Note_off_c, 0, 79, 64
2, 163392, Note_on_c, 0, 77, 90
2, 163484, Note_off_c, 0, 77, 64
2, 163488, Note_on_c, 0, 76, 89
2, 163580, Note_off_c, 0, 76, 64
2, 163584, Note_on_c, 0, 79, 91
2, 163676, Note_off_c, 0, 79, 64
2, 163680, Note_on_c, 0, 77, 90
2, 163772, Note_off_c, 0, 77, 64
2, 163776, Note_on_c, 0, 81, 92
2, 163868, Note_off_c, 0, 81, 64
2, 163872, Note_on_c, 0, 79, 91
2, 163964, Note_off_c, 0, 79, 64
2, 163968, Note_on_c, 0, 77, 90
2, 164060, Note_off_c, 0, 77, 64
2, 164064, Note_on_c, 0, 76, 89
2, 164156, Note_off_c, 0, 76, 64
2, 164160, Note_on_c, 0, 74, 88
2, 164252, Note_off_c, 0, 74, 64
2, 164256, Note_on_c, 0, 72, 87
2, 164348, Note_off_c, 0, 72, 64
2, 164352, Note_on_c, 0, 79, 91
2, 164352, Note_on_c, 0, 71, 90
2, 164352, Note_on_c, 0, 55, 90
2, 164444, Note_off_c, 0, 55, 64
2, 164448, Note_on_c, 0, 67, 90
2, 164540, Note_off_c, 0, 67, 64
2, 164544, Note_on_c, 0, 66, 90
2, 164636, Note_off_c, 0, 66, 64
2, 164640, Note_on_c, 0, 67, 90
2, 164732, Note_off_c, 0, 79, 64
2, 164732, Note_off_c, 0, 71, 64
2, 164732, Note_off_c, 0, 67, 64
2, 164736, Note_on_c, 0, 66, 90
2, 164828, Note_off_c, 0, 66, 64
2, 164832, Note_on_c, 0, 67, 90
2, 164924, Note_off_c, 0, 67, 64
2, 164928, Note_on_c, 0, 81, 90
2, 164928, Note_on_c, 0, 72, 90
2, 164928, Note_on_c, 0, 66, 90
2, 165020, Note_off_c, 0, 66, 64
2, 165024, Note_on_c, 0, 67, 90
2, 165116, Note_off_c, 0, 81, 64
2, 165116, Note_off_c, 0, 72, 64
2, 165116, Note_off_c, 0, 67, 64
2, 165120, Note_on_c, 0, 83, 93
2, 165120, Note_on_c, 0, 74, 90
2, 165120, Note_on_c, 0, 65, 90
2, 165212, Note_off_c, 0, 65, 64
2, 165216, Note_on_c, 0, 67, 90
2, 165308, Note_off_c, 0, 67, 64
2, 165312, Note_on_c, 0, 65, 90
2, 165404, Note_off_c, 0, 65, 64
2, 165408, Note_on_c, 0, 67, 90
2, 165500, Note_off_c, 0, 83, 64
2, 165500, Note_off_c, 0, 74, 64
2, 165500, Note_off_c, 0, 67, 64
2, 165504, Note_on_c, 0, 64, 90
2, 165596, Note_off_c, 0, 64, 64
2, 165600, Note_on_c, 0, 67, 90
2, 165692, Note_off_c, 0, 67, 64
2, 165696, Note_on_c, 0, 84, 94
2, 165696, Note_on_c, 0, 76, 89
2, 165696, Note_on_c, 0, 64, 90
2, 165788, Note_off_c, 0, 64, 64
2, 165792, Note_on_c, 0, 67, 90
2, 165884, Note_off_c, 0, 84, 64
2, 165884, Note_off_c, 0, 76, 64
2, 165884, Note_off_c, 0, 67, 64
2, 165888, Note_on_c, 0, 77, 90
2, 165888, Note_on_c, 0, 84, 94
2, 165888, Note_on_c, 0, 62, 84
2, 165980, Note_off_c, 0, 62, 64
2, 165984, Note_on_c, 0, 67, 90
2, 166076, Note_off_c, 0, 84, 64
2, 166076, Note_off_c, 0, 67, 64
2, 166080, Note_on_c, 0, 83, 93
2, 166080, Note_on_c, 0, 62, 84
2, 166172, Note_off_c, 0, 62, 64
2, 166176, Note_on_c, 0, 67, 90
2, 166268, Note_off_c, 0, 77, 64
2, 166268, Note_off_c, 0, 83, 64
2, 166268, Note_off_c, 0, 67, 64
2, 166272, Note_on_c, 0, 60, 90
2, 166364, Note_off_c, 0, 60, 64
2, 166368, Note_on_c, 0, 67, 90
2, 166460, Note_off_c, 0, 67, 64
2, 166464, Note_on_c, 0, 81, 92
2, 166464, Note_on_c, 0, 76, 89
2, 166464, Note_on_c, 0, 60, 83
2, 166556, Note_off_c, 0, 60, 64
2, 166560, Note_on_c, 0, 67, 90
2, 166652, Note_off_c, 0, 81, 64
2, 166652, Note_off_c, 0, 76, 64
2, 166652, Note_off_c, 0, 67, 64
2, 166656, Note_on_c, 0, 74, 87
2, 166656, Note_on_c, 0, 81, 92
2, 166656, Note_on_c, 0, 59, 82
2, 166748, Note_off_c, 0, 59, 64
2, 166752, Note_on_c, 0, 67, 90
2, 166844, Note_off_c, 0, 81, 64
2, 166844, Note_off_c, 0, 67, 64
2, 166848, Note_on_c, 0, 79, 91
2, 166848, Note_on_c, 0, 59, 82
2, 166940, Note_off_c, 0, 59, 64
2, 166944, Note_on_c, 0, 67, 90
2, 167036, Note_off_c, 0, 74, 64
2, 167036, Note_off_c, 0, 79, 64
2, 167036, Note_off_c, 0, 67, 64
2, 167040, Note_on_c, 0, 57, 90
2, 167132, Note_off_c, 0, 57, 64
2, 167136, Note_on_c, 0, 67, 90
2, 167228, Note_off_c, 0, 67, 64
2, 167232, Note_on_c, 0, 78, 90
2, 167232, Note_on_c, 0, 72, 90
2, 167232, Note_on_c, 0, 57, 90
2, 167324, Note_off_c, 0, 57, 64
2, 167328, Note_on_c, 0, 67, 90
2, 167420, Note_off_c, 0, 78, 64
2, 167420, Note_off_c, 0, 72, 64
2, 167420, Note_off_c, 0, 67, 64
2, 167424, Note_on_c, 0, 71, 90
2, 167424, Note_on_c, 0, 57, 90
2, 167516, Note_off_c, 0, 71, 64
2, 167516, Note_off_c, 0, 57, 64
2, 167520, Note_on_c, 0, 79, 91
2, 167520, Note_on_c, 0, 67, 90
2, 167612, Note_off_c, 0, 79, 64
2, 167612, Note_off_c, 0, 67, 64
2, 167616, Note_on_c, 0, 81, 92
2, 167616, Note_on_c, 0, 66, 90
2, 167708, Note_off_c, 0, 81, 64
2, 167708, Note_off_c, 0, 66, 64
2, 167712, Note_on_c, 0, 79, 91
2, 167712, Note_on_c, 0, 67, 90
2, 167804, Note_off_c, 0, 79, 64
2, 167804, Note_off_c, 0, 67, 64
2, 167808, Note_on_c, 0, 72, 90
2, 167808, Note_on_c, 0, 66, 90
2, 167900, Note_off_c, 0, 72, 64
2, 167900, Note_off_c, 0, 66, 64
2, 167904, Note_on_c, 0, 81, 92
2, 167904, Note_on_c, 0, 67, 90
2, 167996, Note_off_c, 0, 81, 64
2, 167996, Note_off_c, 0, 67, 64
2, 168000, Note_on_c, 0, 83, 93
2, 168000, Note_on_c, 0, 66, 90
2, 168092, Note_off_c, 0, 83, 64
2, 168092, Note_off_c, 0, 66, 64
2, 168096, Note_on_c, 0, 81, 92
2, 168096, Note_on_c, 0, 67, 90
2, 168188, Note_off_c, 0, 81, 64
2, 168188, Note_off_c, 0, 67, 64
2, 168192, Note_on_c, 0, 74, 90
2, 168192, Note_on_c, 0, 65, 90
2, 168284, Note_off_c, 0, 74, 64
2, 168284, Note_off_c, 0, 65, 64
2, 168288, Note_on_c, 0, 83, 90
2, 168288, Note_on_c, 0, 67, 90
2, 168380, Note_off_c, 0, 83, 64
2, 168380, Note_off_c, 0, 67, 64
2, 168384, Note_on_c, 0, 84, 90
2, 168384, Note_on_c, 0, 65, 90
2, 168476, Note_off_c, 0, 84, 64
2, 168476, Note_off_c, 0, 65, 64
2, 168480, Note_on_c, 0, 83, 90
2, 168480, Note_on_c, 0, 67, 90
2, 168572, Note_off_c, 0, 83, 64
2, 168572, Note_off_c, 0, 67, 64
2, 168576, Note_on_c, 0, 76, 90
2, 168576, Note_on_c, 0, 64, 90
2, 168668, Note_off_c, 0, 76, 64
2, 168668, Note_off_c, 0, 64, 64
2, 168672, Note_on_c, 0, 84, 94
2, 168672, Note_on_c, 0, 67, 90
2, 168764, Note_off_c, 0, 84, 64
2, 168764, Note_off_c, 0, 67, 64
2, 168768, Note_on_c, 0, 86, 95
2, 168768, Note_on_c, 0, 64, 90
2, 168860, Note_off_c, 0, 86, 64
2, 168860, Note_off_c, 0, 64, 64
2, 168864, Note_on_c, 0, 84, 94
2, 168864, Note_on_c, 0, 67, 90
2, 168956, Note_off_c, 0, 84, 64
2, 168956, Note_off_c, 0, 67, 64
2, 168960, Note_on_c, 0, 77, 90
2, 168960, Note_on_c, 0, 62, 90
2, 169052, Note_off_c, 0, 77, 64
2, 169056, Note_on_c, 0, 83, 93
2, 169056, Note_on_c, 0, 67, 90
2, 169148, Note_off_c, 0, 62, 64
2, 169148, Note_off_c, 0, 83, 64
2, 169152, Note_on_c, 0, 84, 94
2, 169152, Note_on_c, 0, 62, 90
2, 169244, Note_off_c, 0, 67, 64
2, 169244, Note_off_c, 0, 84, 64
2, 169248, Note_on_c, 0, 83, 93
2, 169248, Note_on_c, 0, 67, 90
2, 169340, Note_off_c, 0, 62, 64
2, 169340, Note_off_c, 0, 83, 64
2, 169344, Note_on_c, 0, 76, 90
2, 169344, Note_on_c, 0, 60, 82
2, 169436, Note_off_c, 0, 67, 64
2, 169436, Note_off_c, 0, 76, 64
2, 169440, Note_on_c, 0, 81, 92
2, 169440, Note_on_c, 0, 67, 90
2, 169532, Note_off_c, 0, 60, 64
2, 169532, Note_off_c, 0, 81, 64
2, 169536, Note_on_c, 0, 83, 93
2, 169536, Note_on_c, 0, 60, 82
2, 169628, Note_off_c, 0, 67, 64
2, 169628, Note_off_c, 0, 83, 64
2, 169632, Note_on_c, 0, 81, 92
2, 169632, Note_on_c, 0, 67, 90
2, 169724, Note_off_c, 0, 60, 64
2, 169724, Note_off_c, 0, 81, 64
2, 169728, Note_on_c, 0, 74, 90
2, 169728, Note_on_c, 0, 59, 81
2, 169820, Note_off_c, 0, 67, 64
2, 169820, Note_off_c, 0, 74, 64
2, 169824, Note_on_c, 0, 79, 91
2, 169824, Note_on_c, 0, 67, 90
2, 169916, Note_off_c, 0, 59, 64
2, 169916, Note_off_c, 0, 79, 64
2, 169920, Note_on_c, 0, 81, 92
2, 169920, Note_on_c, 0, 59, 90
2, 170012, Note_off_c, 0, 67, 64
2, 170012, Note_off_c, 0, 81, 64
2, 170016, Note_on_c, 0, 79, 91
2, 170016, Note_on_c, 0, 67, 90
2, 170108, Note_off_c, 0, 59, 64
2, 170108, Note_off_c, 0, 79, 64
2, 170112, Note_on_c, 0, 72, 90
2, 170112, Note_on_c, 0, 57, 80
2, 170204, Note_off_c, 0, 67, 64
2, 170204, Note_off_c, 0, 72, 64
2, 170204, Note_off_c, 0, 57, 64
2, 170208, Note_on_c, 0, 78, 90
2, 170208, Note_on_c, 0, 67, 90
2, 170300, Note_off_c, 0, 78, 64
2, 170300, Note_off_c, 0, 67, 64
2, 170304, Note_on_c, 0, 79, 91
2, 170304, Note_on_c, 0, 57, 80
2, 170396, Note_off_c, 0, 79, 64
2, 170396, Note_off_c, 0, 57, 64
2, 170400, Note_on_c, 0, 78, 91
2, 170400, Note_on_c, 0, 67, 90
2, 170492, Note_off_c, 0, 78, 64
2, 170492, Note_off_c, 0, 67, 64
2, 170496, Note_on_c, 0, 79, 91
2, 170496, Note_on_c, 0, 74, 88
2, 170496, Note_on_c, 0, 71, 86
2, 170496, Note_on_c, 0, 55, 80
2, 170876, Note_off_c, 0, 79, 64
2, 170876, Note_off_c, 0, 74, 64
2, 170876, Note_off_c, 0, 71, 64
2, 170876, Note_off_c, 0, 55, 64
2, 173568, Note_on_c, 0, 79, 91
2, 173568, Note_on_c, 0, 67, 90
2, 174332, Note_off_c, 0, 79, 64
2, 174332, Note_off_c, 0, 67, 64
2, 174336, Note_on_c, 0, 82, 93
2, 174336, Note_on_c, 0, 70, 90
2, 175100, Note_off_c, 0, 82, 64
2, 175100, Note_off_c, 0, 70, 64
2, 175104, Note_on_c, 0, 86, 95
2, 175104, Note_on_c, 0, 74, 90
2, 175868, Note_off_c, 0, 86, 64
2, 175868, Note_off_c, 0, 74, 64
2, 176256, Note_on_c, 0, 75, 65
2, 176444, Note_off_c, 0, 75, 64
2, 176448, Note_on_c, 0, 74, 65
2, 176636, Note_off_c, 0, 74, 64
2, 176640, Note_on_c, 0, 74, 65
2, 177020, Note_off_c, 0, 74, 64
2, 177024, Note_on_c, 0, 75, 65
2, 177212, Note_off_c, 0, 75, 64
2, 177216, Note_on_c, 0, 74, 65
2, 177404, Note_off_c, 0, 74, 64
2, 177408, Note_on_c, 0, 74, 65
2, 177788, Note_off_c, 0, 74, 64
2, 177792, Note_on_c, 0, 75, 65
2, 177980, Note_off_c, 0, 75, 64
2, 177984, Note_on_c, 0, 74, 65
2, 178172, Note_off_c, 0, 74, 64
2, 178176, Note_on_c, 0, 74, 65
2, 178364, Note_off_c, 0, 74, 64
2, 178368, Note_on_c, 0, 86, 70
2, 178556, Note_off_c, 0, 86, 64
2, 178560, Note_on_c, 0, 74, 65
2, 179324, Note_off_c, 0, 74, 64
2, 179328, Note_on_c, 0, 75, 65
2, 179328, Note_on_c, 0, 66, 65
2, 179328, Note_on_c, 0, 60, 65
2, 179328, Note_on_c, 0, 57, 65
2, 179516, Note_off_c, 0, 75, 64
2, 179520, Note_on_c, 0, 74, 65
2, 179708, Note_off_c, 0, 66, 64
2, 179708, Note_off_c, 0, 60, 64
2, 179708, Note_off_c, 0, 57, 64
2, 179708, Note_off_c, 0, 74, 64
2, 179712, Note_on_c, 0, 74, 65
2, 179712, Note_on_c, 0, 67, 65
2, 179712, Note_on_c, 0, 62, 65
2, 179712, Note_on_c, 0, 58, 65
2, 180092, Note_off_c, 0, 74, 64
2, 180092, Note_off_c, 0, 67, 64
2, 180092, Note_off_c, 0, 62, 64
2, 180092, Note_off_c, 0, 58, 64
2, 180096, Note_on_c, 0, 75, 65
2, 180096, Note_on_c, 0, 57, 65
2, 180096, Note_on_c, 0, 66, 65
2, 180096, Note_on_c, 0, 60, 65
2, 180284, Note_off_c, 0, 75, 64
2, 180288, Note_on_c, 0, 74, 65
2, 180476, Note_off_c, 0, 57, 64
2, 180476, Note_off_c, 0, 66, 64
2, 180476, Note_off_c, 0, 60, 64
2, 180476, Note_off_c, 0, 74, 64
2, 180480, Note_on_c, 0, 74, 65
2, 180480, Note_on_c, 0, 67, 65
2, 180480, Note_on_c, 0, 62, 65
2, 180480, Note_on_c, 0, 58, 65
2, 180860, Note_off_c, 0, 74, 64
2, 180860, Note_off_c, 0, 67, 64
2, 180860, Note_off_c, 0, 62, 64
2, 180860, Note_off_c, 0, 58, 64
2, 180864, Note_on_c, 0, 75, 65
2, 180864, Note_on_c, 0, 66, 65
2, 180864, Note_on_c, 0, 60, 65
2, 180864, Note_on_c, 0, 57, 65
2, 181052, Note_off_c, 0, 75, 64
2, 181056, Note_on_c, 0, 74, 65
2, 181244, Note_off_c, 0, 66, 64
2, 181244, Note_off_c, 0, 60, 64
2, 181244, Note_off_c, 0, 57, 64
2, 181244, Note_off_c, 0, 74, 64
2, 181248, Note_on_c, 0, 74, 65
2, 181248, Note_on_c, 0, 67, 65
2, 181248, Note_on_c, 0, 62, 65
2, 181248, Note_on_c, 0, 58, 65
2, 181436, Note_off_c, 0, 74, 64
2, 181440, Note_on_c, 0, 86, 70
2, 181628, Note_off_c, 0, 86, 64
2, 181632, Note_on_c, 0, 74, 65
2, 182012, Note_off_c, 0, 67, 64
2, 182012, Note_off_c, 0, 62, 64
2, 182012, Note_off_c, 0, 58, 64
2, 182016, Note_on_c, 0, 67, 65
2, 182016, Note_on_c, 0, 65, 65
2, 182016, Note_on_c, 0, 59, 65
2, 182368, Note_on_c, 0, 79, 66
2, 182396, Note_off_c, 0, 74, 64
2, 182556, Note_off_c, 0, 79, 64
2, 182592, Note_on_c, 0, 77, 65
2, 182780, Note_off_c, 0, 67, 64
2, 182780, Note_off_c, 0, 65, 64
2, 182780, Note_off_c, 0, 59, 64
2, 182780, Note_off_c, 0, 77, 64
2, 182784, Note_on_c, 0, 77, 65
2, 182784, Note_on_c, 0, 63, 65
2, 182784, Note_on_c, 0, 60, 65
2, 182972, Note_off_c, 0, 77, 64
2, 182976, Note_on_c, 0, 75, 65
2, 183164, Note_off_c, 0, 63, 64
2, 183164, Note_off_c, 0, 60, 64
2, 183164, Note_off_c, 0, 75, 64
2, 183168, Note_on_c, 0, 65, 65
2, 183168, Note_on_c, 0, 62, 65
2, 183168, Note_on_c, 0, 74, 65
2, 183356, Note_off_c, 0, 74, 64
2, 183360, Note_on_c, 0, 72, 65
2, 183548, Note_off_c, 0, 65, 64
2, 183548, Note_off_c, 0, 62, 64
2, 183548, Note_off_c, 0, 72, 64
2, 183552, Note_on_c, 0, 72, 65
2, 183552, Note_on_c, 0, 67, 65
2, 183552, Note_on_c, 0, 63, 65
2, 183932, Note_off_c, 0, 72, 64
2, 183932, Note_off_c, 0, 67, 64
2, 183932, Note_off_c, 0, 63, 64
2, 183936, Note_on_c, 0, 72, 65
2, 183936, Note_on_c, 0, 68, 65
2, 183936, Note_on_c, 0, 65, 65
2, 184316, Note_off_c, 0, 72, 64
2, 184316, Note_off_c, 0, 68, 64
2, 184316, Note_off_c, 0, 65, 64
2, 184320, Note_on_c, 0, 72, 65
2, 184320, Note_on_c, 0, 67, 65
2, 184320, Note_on_c, 0, 63, 65
2, 184700, Note_off_c, 0, 72, 64
2, 184704, Note_on_c, 0, 79, 66
2, 185084, Note_off_c, 0, 67, 64
2, 185084, Note_off_c, 0, 63, 64
2, 185088, Note_on_c, 0, 67, 65
2, 185088, Note_on_c, 0, 59, 65
2, 185276, Note_off_c, 0, 79, 64
2, 185280, Note_on_c, 0, 80, 67
2, 185468, Note_off_c, 0, 80, 64
2, 185472, Note_on_c, 0, 79, 66
2, 185660, Note_off_c, 0, 79, 64
2, 185664, Note_on_c, 0, 77, 65
2, 185852, Note_off_c, 0, 67, 64
2, 185852, Note_off_c, 0, 59, 64
2, 185852, Note_off_c, 0, 77, 64
2, 185856, Note_on_c, 0, 77, 65
2, 185856, Note_on_c, 0, 63, 65
2, 185856, Note_on_c, 0, 60, 65
2, 186044, Note_off_c, 0, 77, 64
2, 186048, Note_on_c, 0, 75, 65
2, 186236, Note_off_c, 0, 63, 64
2, 186236, Note_off_c, 0, 60, 64
2, 186236, Note_off_c, 0, 75, 64
2, 186240, Note_on_c, 0, 74, 65
2, 186240, Note_on_c, 0, 65, 65
2, 186240, Note_on_c, 0, 62, 65
2, 186428, Note_off_c, 0, 74, 64
2, 186432, Note_on_c, 0, 72, 65
2, 186620, Note_off_c, 0, 65, 64
2, 186620, Note_off_c, 0, 62, 64
2, 186620, Note_off_c, 0, 72, 64
2, 186624, Note_on_c, 0, 72, 65
2, 186624, Note_on_c, 0, 67, 65
2, 186624, Note_on_c, 0, 63, 65
2, 187004, Note_off_c, 0, 72, 64
2, 187004, Note_off_c, 0, 67, 64
2, 187004, Note_off_c, 0, 63, 64
2, 187008, Note_on_c, 0, 65, 65
2, 187008, Note_on_c, 0, 68, 65
2, 187008, Note_on_c, 0, 72, 65
2, 187388, Note_off_c, 0, 65, 64
2, 187388, Note_off_c, 0, 68, 64
2, 187388, Note_off_c, 0, 72, 64
2, 187392, Note_on_c, 0, 72, 65
2, 187392, Note_on_c, 0, 67, 65
2, 187392, Note_on_c, 0, 63, 65
2, 187772, Note_off_c, 0, 72, 64
2, 187776, Note_on_c, 0, 79, 66
2, 188156, Note_off_c, 0, 67, 64
2, 188156, Note_off_c, 0, 63, 64
2, 188160, Note_on_c, 0, 67, 65
2, 188160, Note_on_c, 0, 59, 65
2, 188348, Note_off_c, 0, 79, 64
2, 188352, Note_on_c, 0, 80, 67
2, 188540, Note_off_c, 0, 80, 64
2, 188544, Note_on_c, 0, 79, 66
2, 188732, Note_off_c, 0, 79, 64
2, 188736, Note_on_c, 0, 77, 65
2, 188924, Note_off_c, 0, 67, 64
2, 188924, Note_off_c, 0, 59, 64
2, 188924, Note_off_c, 0, 77, 64
2, 188928, Note_on_c, 0, 67, 66
2, 188928, Note_on_c, 0, 60, 66
2, 188928, Note_on_c, 0, 77, 66
2, 189116, Note_off_c, 0, 77, 64
2, 189120, Note_on_c, 0, 76, 67
2, 189308, Note_off_c, 0, 76, 64
2, 189312, Note_on_c, 0, 75, 68
2, 189692, Note_off_c, 0, 67, 64
2, 189692, Note_off_c, 0, 60, 64
2, 189696, Note_on_c, 0, 66, 70
2, 189696, Note_on_c, 0, 62, 70
2, 190076, Note_off_c, 0, 75, 64
2, 190080, Note_on_c, 0, 74, 72
2, 190460, Note_off_c, 0, 66, 64
2, 190460, Note_off_c, 0, 62, 64
2, 190460, Note_off_c, 0, 74, 64
2, 190464, Note_on_c, 0, 74, 74
2, 190464, Note_on_c, 0, 67, 74
2, 190464, Note_on_c, 0, 63, 74
2, 190652, Note_off_c, 0, 74, 64
2, 190656, Note_on_c, 0, 73, 75
2, 190844, Note_off_c, 0, 67, 64
2, 190844, Note_off_c, 0, 63, 64
2, 190844, Note_off_c, 0, 73, 64
2, 190848, Note_on_c, 0, 67, 76
2, 190848, Note_on_c, 0, 63, 76
2, 190848, Note_on_c, 0, 79, 77
2, 191228, Note_off_c, 0, 67, 64
2, 191228, Note_off_c, 0, 63, 64
2, 191232, Note_on_c, 0, 67, 78
2, 191232, Note_on_c, 0, 63, 78
2, 191420, Note_off_c, 0, 79, 64
2, 191424, Note_on_c, 0, 81, 81
2, 191516, Note_off_c, 0, 81, 64
2, 191520, Note_on_c, 0, 82, 83
2, 191612, Note_off_c, 0, 67, 64
2, 191612, Note_off_c, 0, 63, 64
2, 191612, Note_off_c, 0, 82, 64
2, 191616, Note_on_c, 0, 81, 82
2, 191708, Note_off_c, 0, 81, 64
2, 191712, Note_on_c, 0, 79, 82
2, 191804, Note_off_c, 0, 79, 64
2, 191808, Note_on_c, 0, 77, 81
2, 191900, Note_off_c, 0, 77, 64
2, 191904, Note_on_c, 0, 75, 82
2, 191996, Note_off_c, 0, 75, 64
2, 192000, Note_on_c, 0, 74, 82
2, 192188, Note_off_c, 0, 74, 64
2, 192192, Note_on_c, 0, 73, 83
2, 192380, Note_off_c, 0, 73, 64
2, 192384, Note_on_c, 0, 67, 84
2, 192384, Note_on_c, 0, 63, 84
2, 192576, Note_on_c, 0, 82, 88
2, 192764, Note_off_c, 0, 67, 64
2, 192764, Note_off_c, 0, 63, 64
2, 192764, Note_off_c, 0, 82, 64
2, 192768, Note_on_c, 0, 81, 88
2, 192956, Note_off_c, 0, 81, 64
2, 192960, Note_on_c, 0, 79, 88
2, 193148, Note_off_c, 0, 79, 64
2, 193152, Note_on_c, 0, 67, 88
2, 193152, Note_on_c, 0, 63, 88
2, 193344, Note_on_c, 0, 73, 89
2, 193532, Note_off_c, 0, 67, 64
2, 193532, Note_off_c, 0, 63, 64
2, 193532, Note_off_c, 0, 73, 64
2, 193536, Note_on_c, 0, 74, 90
2, 193536, Note_on_c, 0, 66, 90
2, 193536, Note_on_c, 0, 62, 90
2, 193628, Note_off_c, 0, 74, 64
2, 193632, Note_on_c, 0, 75, 90
2, 193724, Note_off_c, 0, 75, 64
2, 193728, Note_on_c, 0, 76, 90
2, 193820, Note_off_c, 0, 76, 64
2, 193824, Note_on_c, 0, 77, 90
2, 193916, Note_off_c, 0, 77, 64
2, 193920, Note_on_c, 0, 78, 90
2, 194012, Note_off_c, 0, 78, 64
2, 194016, Note_on_c, 0, 79, 91
2, 194108, Note_off_c, 0, 79, 64
2, 194112, Note_on_c, 0, 80, 91
2, 194204, Note_off_c, 0, 80, 64
2, 194208, Note_on_c, 0, 81, 92
2, 194300, Note_off_c, 0, 66, 64
2, 194300, Note_off_c, 0, 62, 64
2, 194300, Note_off_c, 0, 81, 64
2, 194304, Note_on_c, 0, 84, 94
2, 194304, Note_on_c, 0, 67, 84
2, 194304, Note_on_c, 0, 62, 82
2, 194396, Note_off_c, 0, 84, 64
2, 194400, Note_on_c, 0, 82, 93
2, 194492, Note_off_c, 0, 82, 64
2, 194496, Note_on_c, 0, 81, 92
2, 194588, Note_off_c, 0, 81, 64
2, 194592, Note_on_c, 0, 79, 91
2, 194684, Note_off_c, 0, 79, 64
2, 194688, Note_on_c, 0, 77, 90
2, 194780, Note_off_c, 0, 77, 64
2, 194784, Note_on_c, 0, 75, 90
2, 194876, Note_off_c, 0, 75, 64
2, 194880, Note_on_c, 0, 74, 90
2, 194972, Note_off_c, 0, 74, 64
2, 194976, Note_on_c, 0, 73, 90
2, 195068, Note_off_c, 0, 67, 64
2, 195068, Note_off_c, 0, 62, 64
2, 195068, Note_off_c, 0, 73, 64
2, 195072, Note_on_c, 0, 74, 90
2, 195072, Note_on_c, 0, 66, 90
2, 195072, Note_on_c, 0, 62, 90
2, 195164, Note_off_c, 0, 74, 64
2, 195168, Note_on_c, 0, 75, 90
2, 195260, Note_off_c, 0, 75, 64
2, 195264, Note_on_c, 0, 76, 90
2, 195356, Note_off_c, 0, 76, 64
2, 195360, Note_on_c, 0, 77, 90
2, 195452, Note_off_c, 0, 77, 64
2, 195456, Note_on_c, 0, 78, 90
2, 195548, Note_off_c, 0, 78, 64
2, 195552, Note_on_c, 0, 79, 91
2, 195644, Note_off_c, 0, 79, 64
2, 195648, Note_on_c, 0, 80, 91
2, 195740, Note_off_c, 0, 80, 64
2, 195744, Note_on_c, 0, 81, 92
2, 195836, Note_off_c, 0, 66, 64
2, 195836, Note_off_c, 0, 62, 64
2, 195836, Note_off_c, 0, 81, 64
2, 195840, Note_on_c, 0, 84, 94
2, 195840, Note_on_c, 0, 67, 84
2, 195840, Note_on_c, 0, 62, 82
2, 195932, Note_off_c, 0, 84, 64
2, 195936, Note_on_c, 0, 82, 93
2, 196028, Note_off_c, 0, 82, 64
2, 196032, Note_on_c, 0, 81, 92
2, 196124, Note_off_c, 0, 81, 64
2, 196128, Note_on_c, 0, 79, 91
2, 196220, Note_off_c, 0, 79, 64
2, 196224, Note_on_c, 0, 77, 90
2, 196316, Note_off_c, 0, 77, 64
2, 196320, Note_on_c, 0, 75, 90
2, 196412, Note_off_c, 0, 75, 64
2, 196416, Note_on_c, 0, 74, 90
2, 196508, Note_off_c, 0, 74, 64
2, 196512, Note_on_c, 0, 73, 90
2, 196604, Note_off_c, 0, 67, 64
2, 196604, Note_off_c, 0, 62, 64
2, 196604, Note_off_c, 0, 73, 64
2, 196608, Note_on_c, 0, 74, 90
2, 196700, Note_off_c, 0, 74, 64
2, 196704, Note_on_c, 0, 75, 90
2, 196796, Note_off_c, 0, 75, 64
2, 196800, Note_on_c, 0, 76, 90
2, 196892, Note_off_c, 0, 76, 64
2, 196896, Note_on_c, 0, 74, 90
2, 196988, Note_off_c, 0, 74, 64
2, 196992, Note_on_c, 0, 72, 90
2, 197084, Note_off_c, 0, 72, 64
2, 197088, Note_on_c, 0, 71, 90
2, 197180, Note_off_c, 0, 71, 64
2, 197184, Note_on_c, 0, 69, 90
2, 197276, Note_off_c, 0, 69, 64
2, 197280, Note_on_c, 0, 68, 90
2, 197372, Note_off_c, 0, 68, 64
2, 197376, Note_on_c, 0, 69, 90
2, 197468, Note_off_c, 0, 69, 64
2, 197472, Note_on_c, 0, 71, 90
2, 197564, Note_off_c, 0, 71, 64
2, 197568, Note_on_c, 0, 72, 90
2, 197660, Note_off_c, 0, 72, 64
2, 197664, Note_on_c, 0, 71, 90
2, 197756, Note_off_c, 0, 71, 64
2, 197760, Note_on_c, 0, 69, 90
2, 197852, Note_off_c, 0, 69, 64
2, 197856, Note_on_c, 0, 67, 90
2, 197948, Note_off_c, 0, 67, 64
2, 197952, Note_on_c, 0, 66, 90
2, 198044, Note_off_c, 0, 66, 64
2, 198048, Note_on_c, 0, 64, 90
2, 198140, Note_off_c, 0, 64, 64
2, 198144, Note_on_c, 0, 66, 90
2, 198236, Note_off_c, 0, 66, 64
2, 198240, Note_on_c, 0, 67, 90
2, 198332, Note_off_c, 0, 67, 64
2, 198336, Note_on_c, 0, 69, 90
2, 198428, Note_off_c, 0, 69, 64
2, 198432, Note_on_c, 0, 67, 90
2, 198524, Note_off_c, 0, 67, 64
2, 198528, Note_on_c, 0, 65, 90
2, 198620, Note_off_c, 0, 65, 64
2, 198624, Note_on_c, 0, 64, 90
2, 198716, Note_off_c, 0, 64, 64
2, 198720, Note_on_c, 0, 62, 90
2, 198812, Note_off_c, 0, 62, 64
2, 198816, Note_on_c, 0, 61, 90
2, 198908, Note_off_c, 0, 61, 64
2, 198912, Note_on_c, 0, 62, 90
2, 199004, Note_off_c, 0, 62, 64
2, 199008, Note_on_c, 0, 63, 90
2, 199100, Note_off_c, 0, 63, 64
2, 199104, Note_on_c, 0, 64, 90
2, 199196, Note_off_c, 0, 64, 64
2, 199200, Note_on_c, 0, 62, 90
2, 199292, Note_off_c, 0, 62, 64
2, 199296, Note_on_c, 0, 60, 90
2, 199388, Note_off_c, 0, 60, 64
2, 199392, Note_on_c, 0, 59, 90
2, 199484, Note_off_c, 0, 59, 64
2, 199488, Note_on_c, 0, 57, 90
2, 199580, Note_off_c, 0, 57, 64
2, 199584, Note_on_c, 0, 55, 90
2, 199676, Note_off_c, 0, 55, 64
2, 199680, Note_on_c, 0, 54, 90
2, 199772, Note_off_c, 0, 54, 64
2, 199776, Note_on_c, 0, 55, 90
2, 199868, Note_off_c, 0, 55, 64
2, 199872, Note_on_c, 0, 56, 90
2, 199964, Note_off_c, 0, 56, 64
2, 199968, Note_on_c, 0, 57, 90
2, 200060, Note_off_c, 0, 57, 64
2, 200064, Note_on_c, 0, 58, 90
2, 200156, Note_off_c, 0, 58, 64
2, 200160, Note_on_c, 0, 59, 90
2, 200252, Note_off_c, 0, 59, 64
2, 200256, Note_on_c, 0, 60, 90
2, 200348, Note_off_c, 0, 60, 64
2, 200352, Note_on_c, 0, 61, 90
2, 200444, Note_off_c, 0, 61, 64
2, 200448, Note_on_c, 0, 62, 90
2, 200540, Note_off_c, 0, 62, 64
2, 200544, Note_on_c, 0, 63, 90
2, 200636, Note_off_c, 0, 63, 64
2, 200640, Note_on_c, 0, 64, 90
2, 200732, Note_off_c, 0, 64, 64
2, 200736, Note_on_c, 0, 65, 90
2, 200828, Note_off_c, 0, 65, 64
2, 200832, Note_on_c, 0, 66, 90
2, 200924, Note_off_c, 0, 66, 64
2, 200928, Note_on_c, 0, 67, 90
2, 201020, Note_off_c, 0, 67, 64
2, 201024, Note_on_c, 0, 68, 90
2, 201116, Note_off_c, 0, 68, 64
2, 201120, Note_on_c, 0, 69, 90
2, 201212, Note_off_c, 0, 69, 64
2, 201216, Note_on_c, 0, 70, 90
2, 201308, Note_off_c, 0, 70, 64
2, 201312, Note_on_c, 0, 71, 90
2, 201404, Note_off_c, 0, 71, 64
2, 201408, Note_on_c, 0, 72, 90
2, 201500, Note_off_c, 0, 72, 64
2, 201504, Note_on_c, 0, 73, 90
2, 201596, Note_off_c, 0, 73, 64
2, 201600, Note_on_c, 0, 74, 90
2, 201692, Note_off_c, 0, 74, 64
2, 201696, Note_on_c, 0, 75, 90
2, 201788, Note_off_c, 0, 75, 64
2, 201792, Note_on_c, 0, 76, 90
2, 201884, Note_off_c, 0, 76, 64
2, 201888, Note_on_c, 0, 77, 90
2, 201980, Note_off_c, 0, 77, 64
2, 201984, Note_on_c, 0, 78, 89
2, 202076, Note_off_c, 0, 78, 64
2, 202080, Note_on_c, 0, 79, 87
2, 202172, Note_off_c, 0, 79, 64
2, 202176, Note_on_c, 0, 80, 84
2, 202268, Note_off_c, 0, 80, 64
2, 202272, Note_on_c, 0, 81, 82
2, 202364, Note_off_c, 0, 81, 64
2, 202368, Note_on_c, 0, 82, 80
2, 202460, Note_off_c, 0, 82, 64
2, 202464, Note_on_c, 0, 83, 77
2, 202556, Note_off_c, 0, 83, 64
2, 202560, Note_on_c, 0, 84, 75
2, 202652, Note_off_c, 0, 84, 64
2, 202656, Note_on_c, 0, 85, 71
2, 202748, Note_off_c, 0, 85, 64
2, 202752, Note_on_c, 0, 86, 70
2, 202940, Note_off_c, 0, 86, 64
2, 202944, Note_on_c, 0, 83, 68
2, 203132, Note_off_c, 0, 83, 64
2, 203136, Note_on_c, 0, 81, 67
2, 203324, Note_off_c, 0, 81, 64
2, 203328, Note_on_c, 0, 79, 66
2, 203516, Note_off_c, 0, 79, 64
2, 203520, Note_on_c, 0, 86, 70
2, 203708, Note_off_c, 0, 86, 64
2, 203712, Note_on_c, 0, 83, 68
2, 203900, Note_off_c, 0, 83, 64
2, 203904, Note_on_c, 0, 81, 67
2, 204092, Note_off_c, 0, 81, 64
2, 204096, Note_on_c, 0, 79, 66
2, 204284, Note_off_c, 0, 79, 64
2, 204288, Note_on_c, 0, 88, 71
2, 204476, Note_off_c, 0, 88, 64
2, 204480, Note_on_c, 0, 84, 69
2, 204668, Note_off_c, 0, 84, 64
2, 204672, Note_on_c, 0, 83, 68
2, 204860, Note_off_c, 0, 83, 64
2, 204864, Note_on_c, 0, 81, 67
2, 205052, Note_off_c, 0, 81, 64
2, 205056, Note_on_c, 0, 81, 67
2, 205820, Note_off_c, 0, 81, 64
2, 205824, Note_on_c, 0, 84, 69
2, 206012, Note_off_c, 0, 84, 64
2, 206016, Note_on_c, 0, 81, 67
2, 206204, Note_off_c, 0, 81, 64
2, 206208, Note_on_c, 0, 79, 66
2, 206396, Note_off_c, 0, 79, 64
2, 206400, Note_on_c, 0, 78, 65
2, 206588, Note_off_c, 0, 78, 64
2, 206592, Note_on_c, 0, 84, 69
2, 206780, Note_off_c, 0, 84, 64
2, 206784, Note_on_c, 0, 81, 67
2, 206972, Note_off_c, 0, 81, 64
2, 206976, Note_on_c, 0, 79, 66
2, 207164, Note_off_c, 0, 79, 64
2, 207168, Note_on_c, 0, 78, 65
2, 207356, Note_off_c, 0, 78, 64
2, 207360, Note_on_c, 0, 86, 70
2, 207548, Note_off_c, 0, 86, 64
2, 207552, Note_on_c, 0, 83, 68
2, 207740, Note_off_c, 0, 83, 64
2, 207744, Note_on_c, 0, 81, 67
2, 207932, Note_off_c, 0, 81, 64
2, 207936, Note_on_c, 0, 79, 66
2, 208124, Note_off_c, 0, 79, 64
2, 208128, Note_on_c, 0, 79, 66
2, 208892, Note_off_c, 0, 79, 64
2, 208896, Note_on_c, 0, 79, 66
2, 209468, Note_off_c, 0, 79, 64
2, 209472, Note_on_c, 0, 83, 68
2, 209660, Note_off_c, 0, 83, 64
2, 209664, Note_on_c, 0, 81, 67
2, 209852, Note_off_c, 0, 81, 64
2, 209856, Note_on_c, 0, 84, 69
2, 209948, Note_off_c, 0, 84, 64
2, 210048, Note_on_c, 0, 78, 65
2, 210236, Note_off_c, 0, 78, 64
2, 210240, Note_on_c, 0, 81, 67
2, 210332, Note_off_c, 0, 81, 64
2, 210432, Note_on_c, 0, 79, 66
2, 211004, Note_off_c, 0, 79, 64
2, 211008, Note_on_c, 0, 79, 69
2, 211100, Note_off_c, 0, 79, 64
2, 211104, Note_on_c, 0, 83, 65
2, 211196, Note_off_c, 0, 83, 64
2, 211200, Note_on_c, 0, 81, 67
2, 211388, Note_off_c, 0, 81, 64
2, 211392, Note_on_c, 0, 81, 67
2, 211484, Note_off_c, 0, 81, 64
2, 211488, Note_on_c, 0, 84, 69
2, 211580, Note_off_c, 0, 84, 64
2, 211584, Note_on_c, 0, 78, 65
2, 211772, Note_off_c, 0, 78, 64
2, 211776, Note_on_c, 0, 78, 65
2, 211868, Note_off_c, 0, 78, 64
2, 211872, Note_on_c, 0, 81, 67
2, 211964, Note_off_c, 0, 81, 64
2, 211968, Note_on_c, 0, 79, 66
2, 212060, Note_off_c, 0, 79, 64
2, 212064, Note_on_c, 0, 74, 65
2, 212156, Note_off_c, 0, 74, 64
2, 212160, Note_on_c, 0, 76, 65
2, 212252, Note_off_c, 0, 76, 64
2, 212256, Note_on_c, 0, 77, 65
2, 212348, Note_off_c, 0, 77, 64
2, 212352, Note_on_c, 0, 78, 65
2, 212444, Note_off_c, 0, 78, 64
2, 212448, Note_on_c, 0, 79, 66
2, 212540, Note_off_c, 0, 79, 64
2, 212544, Note_on_c, 0, 80, 66
2, 212636, Note_off_c, 0, 80, 64
2, 212640, Note_on_c, 0, 81, 67
2, 212732, Note_off_c, 0, 81, 64
2, 212736, Note_on_c, 0, 82, 68
2, 212828, Note_off_c, 0, 82, 64
2, 212832, Note_on_c, 0, 83, 68
2, 212924, Note_off_c, 0, 83, 64
2, 212928, Note_on_c, 0, 84, 69
2, 213020, Note_off_c, 0, 84, 64
2, 213024, Note_on_c, 0, 85, 69
2, 213116, Note_off_c, 0, 85, 64
2, 213120, Note_on_c, 0, 86, 70
2, 213212, Note_off_c, 0, 86, 64
2, 213312, Note_on_c, 0, 88, 71
2, 213404, Note_off_c, 0, 88, 64
2, 213504, Note_on_c, 0, 83, 68
2, 214076, Note_off_c, 0, 83, 64
2, 214080, Note_on_c, 0, 84, 69
2, 214172, Note_off_c, 0, 84, 64
2, 214176, Note_on_c, 0, 83, 68
2, 214268, Note_off_c, 0, 83, 64
2, 214272, Note_on_c, 0, 81, 67
2, 214460, Note_off_c, 0, 81, 64
2, 214464, Note_on_c, 0, 83, 68
2, 214652, Note_off_c, 0, 83, 64
2, 214656, Note_on_c, 0, 84, 69
2, 214844, Note_off_c, 0, 84, 64
2, 214848, Note_on_c, 0, 85, 69
2, 215036, Note_off_c, 0, 85, 64
2, 215040, Note_on_c, 0, 86, 70
2, 215420, Note_off_c, 0, 86, 64
2, 217344, Note_on_c, 0, 88, 71
2, 217344, Note_on_c, 0, 76, 65
2, 217532, Note_off_c, 0, 88, 64
2, 217532, Note_off_c, 0, 76, 64
2, 217536, Note_on_c, 0, 84, 69
2, 217536, Note_on_c, 0, 72, 65
2, 217724, Note_off_c, 0, 84, 64
2, 217724, Note_off_c, 0, 72, 64
2, 217728, Note_on_c, 0, 83, 68
2, 217728, Note_on_c, 0, 71, 65
2, 217916, Note_off_c, 0, 83, 64
2, 217916, Note_off_c, 0, 71, 64
2, 217920, Note_on_c, 0, 81, 67
2, 217920, Note_on_c, 0, 69, 65
2, 218108, Note_off_c, 0, 81, 64
2, 218108, Note_off_c, 0, 69, 64
2, 220416, Note_on_c, 0, 86, 70
2, 220416, Note_on_c, 0, 74, 65
2, 220604, Note_off_c, 0, 86, 64
2, 220604, Note_off_c, 0, 74, 64
2, 220608, Note_on_c, 0, 83, 68
2, 220608, Note_on_c, 0, 71, 65
2, 220796, Note_off_c, 0, 83, 64
2, 220796, Note_off_c, 0, 71, 64
2, 220800, Note_on_c, 0, 81, 67
2, 220800, Note_on_c, 0, 69, 65
2, 220988, Note_off_c, 0, 81, 64
2, 220988, Note_off_c, 0, 69, 64
2, 220992, Note_on_c, 0, 79, 66
2, 220992, Note_on_c, 0, 67, 65
2, 221180, Note_off_c, 0, 79, 64
2, 221180, Note_off_c, 0, 67, 64
2, 221184, Note_on_c, 0, 79, 66
2, 221756, Note_off_c, 0, 79, 64
2, 221760, Note_on_c, 0, 79, 66
2, 221852, Note_off_c, 0, 79, 64
2, 221856, Note_on_c, 0, 83, 68
2, 221948, Note_off_c, 0, 83, 64
2, 221952, Note_on_c, 0, 81, 67
2, 222140, Note_off_c, 0, 81, 64
2, 222144, Note_on_c, 0, 81, 67
2, 222236, Note_off_c, 0, 81, 64
2, 222240, Note_on_c, 0, 84, 69
2, 222332, Note_off_c, 0, 84, 64
2, 222336, Note_on_c, 0, 78, 65
2, 222524, Note_off_c, 0, 78, 64
2, 222528, Note_on_c, 0, 78, 65
2, 222620, Note_off_c, 0, 78, 64
2, 222624, Note_on_c, 0, 81, 67
2, 222716, Note_off_c, 0, 81, 64
2, 222720, Note_on_c, 0, 79, 65
2, 223100, Note_off_c, 0, 79, 64
2, 223104, Note_on_c, 0, 79, 69
2, 223196, Note_off_c, 0, 79, 64
2, 223200, Note_on_c, 0, 81, 73
2, 223292, Note_off_c, 0, 81, 64
2, 223296, Note_on_c, 0, 83, 75
2, 223388, Note_off_c, 0, 83, 64
2, 223392, Note_on_c, 0, 79, 75
2, 223484, Note_off_c, 0, 79, 64
2, 223488, Note_on_c, 0, 81, 78
2, 223580, Note_off_c, 0, 81, 64
2, 223584, Note_on_c, 0, 83, 81
2, 223676, Note_off_c, 0, 83, 64
2, 223680, Note_on_c, 0, 84, 84
2, 223772, Note_off_c, 0, 84, 64
2, 223776, Note_on_c, 0, 81, 84
2, 223868, Note_off_c, 0, 81, 64
2, 223872, Note_on_c, 0, 78, 84
2, 223964, Note_off_c, 0, 78, 64
2, 223968, Note_on_c, 0, 79, 87
2, 224060, Note_off_c, 0, 79, 64
2, 224064, Note_on_c, 0, 81, 90
2, 224156, Note_off_c, 0, 81, 64
2, 224160, Note_on_c, 0, 78, 91
2, 224252, Note_off_c, 0, 78, 64
2, 224256, Note_on_c, 0, 79, 91
2, 224348, Note_off_c, 0, 79, 64
2, 224352, Note_on_c, 0, 83, 93
2, 224444, Note_off_c, 0, 83, 64
2, 224448, Note_on_c, 0, 79, 91
2, 224540, Note_off_c, 0, 79, 64
2, 224544, Note_on_c, 0, 74, 90
2, 224636, Note_off_c, 0, 74, 64
2, 224640, Note_on_c, 0, 76, 90
2, 224732, Note_off_c, 0, 76, 64
2, 224736, Note_on_c, 0, 79, 91
2, 224828, Note_off_c, 0, 79, 64
2, 224832, Note_on_c, 0, 76, 90
2, 224924, Note_off_c, 0, 76, 64
2, 224928, Note_on_c, 0, 72, 90
2, 225020, Note_off_c, 0, 72, 64
2, 225024, Note_on_c, 0, 71, 90
2, 225116, Note_off_c, 0, 71, 64
2, 225120, Note_on_c, 0, 74, 90
2, 225212, Note_off_c, 0, 74, 64
2, 225216, Note_on_c, 0, 71, 90
2, 225308, Note_off_c, 0, 71, 64
2, 225312, Note_on_c, 0, 67, 90
2, 225404, Note_off_c, 0, 67, 64
2, 225408, Note_on_c, 0, 69, 90
2, 225500, Note_off_c, 0, 69, 64
2, 225504, Note_on_c, 0, 72, 90
2, 225596, Note_off_c, 0, 72, 64
2, 225600, Note_on_c, 0, 69, 90
2, 225692, Note_off_c, 0, 69, 64
2, 225696, Note_on_c, 0, 66, 90
2, 225788, Note_off_c, 0, 66, 64
2, 225792, Note_on_c, 0, 67, 90
2, 225980, Note_off_c, 0, 67, 64
2, 226176, Note_on_c, 0, 62, 65
2, 226364, Note_off_c, 0, 62, 64
2, 226560, Note_on_c, 0, 67, 65
2, 226748, Note_off_c, 0, 67, 64
2, 226944, Note_on_c, 0, 71, 65
2, 227132, Note_off_c, 0, 71, 64
2, 227328, Note_on_c, 0, 72, 65
2, 227900, Note_off_c, 0, 72, 64
2, 227904, Note_on_c, 0, 71, 65
2, 227960, Note_off_c, 0, 71, 64
2, 227968, Note_on_c, 0, 69, 65
2, 228024, Note_off_c, 0, 69, 64
2, 228032, Note_on_c, 0, 67, 65
2, 228088, Note_off_c, 0, 67, 64
2, 228096, Note_on_c, 0, 66, 65
2, 228476, Note_off_c, 0, 66, 64
2, 228864, Note_on_c, 0, 74, 66
2, 228956, Note_off_c, 0, 74, 64
2, 228960, Note_on_c, 0, 79, 67
2, 229052, Note_off_c, 0, 79, 64
2, 229056, Note_on_c, 0, 83, 69
2, 229148, Note_off_c, 0, 83, 64
2, 229152, Note_on_c, 0, 86, 73
2, 229244, Note_off_c, 0, 86, 64
2, 229248, Note_on_c, 0, 74, 69
2, 229340, Note_off_c, 0, 74, 64
2, 229344, Note_on_c, 0, 86, 75
2, 229436, Note_off_c, 0, 86, 64
2, 229440, Note_on_c, 0, 74, 70
2, 229532, Note_off_c, 0, 74, 64
2, 229536, Note_on_c, 0, 86, 76
2, 229628, Note_off_c, 0, 86, 64
2, 229632, Note_on_c, 0, 74, 72
2, 229724, Note_off_c, 0, 74, 64
2, 229728, Note_on_c, 0, 86, 78
2, 229820, Note_off_c, 0, 86, 64
2, 229824, Note_on_c, 0, 74, 74
2, 229916, Note_off_c, 0, 74, 64
2, 229920, Note_on_c, 0, 86, 79
2, 230012, Note_off_c, 0, 86, 64
2, 230016, Note_on_c, 0, 74, 75
2, 230108, Note_off_c, 0, 74, 64
2, 230112, Note_on_c, 0, 86, 81
2, 230204, Note_off_c, 0, 86, 64
2, 230208, Note_on_c, 0, 74, 77
2, 230300, Note_off_c, 0, 74, 64
2, 230304, Note_on_c, 0, 86, 83
2, 230396, Note_off_c, 0, 86, 64
2, 230400, Note_on_c, 0, 74, 79
2, 230492, Note_off_c, 0, 74, 64
2, 230496, Note_on_c, 0, 86, 84
2, 230588, Note_off_c, 0, 86, 64
2, 230592, Note_on_c, 0, 74, 80
2, 230684, Note_off_c, 0, 74, 64
2, 230688, Note_on_c, 0, 86, 86
2, 230780, Note_off_c, 0, 86, 64
2, 230784, Note_on_c, 0, 74, 82
2, 230876, Note_off_c, 0, 74, 64
2, 230880, Note_on_c, 0, 86, 88
2, 230972, Note_off_c, 0, 86, 64
2, 230976, Note_on_c, 0, 74, 83
2, 231068, Note_off_c, 0, 74, 64
2, 231072, Note_on_c, 0, 86, 89
2, 231164, Note_off_c, 0, 86, 64
2, 231168, Note_on_c, 0, 74, 85
2, 231260, Note_off_c, 0, 74, 64
2, 231264, Note_on_c, 0, 86, 91
2, 231356, Note_off_c, 0, 86, 64
2, 231360, Note_on_c, 0, 74, 87
2, 231452, Note_off_c, 0, 74, 64
2, 231456, Note_on_c, 0, 86, 92
2, 231548, Note_off_c, 0, 86, 64
2, 231552, Note_on_c, 0, 74, 88
2, 231644, Note_off_c, 0, 74, 64
2, 231648, Note_on_c, 0, 86, 94
2, 231740, Note_off_c, 0, 86, 64
2, 231744, Note_on_c, 0, 74, 90
2, 231836, Note_off_c, 0, 74, 64
2, 231840, Note_on_c, 0, 86, 96
2, 231932, Note_off_c, 0, 86, 64
2, 231936, Note_on_c, 0, 86, 95
2, 232028, Note_off_c, 0, 86, 64
2, 232032, Note_on_c, 0, 83, 93
2, 232124, Note_off_c, 0, 83, 64
2, 232128, Note_on_c, 0, 79, 91
2, 232220, Note_off_c, 0, 79, 64
2, 232224, Note_on_c, 0, 74, 90
2, 232316, Note_off_c, 0, 74, 64
2, 232320, Note_on_c, 0, 71, 90
2, 232412, Note_off_c, 0, 71, 64
2, 232416, Note_on_c, 0, 74, 90
2, 232508, Note_off_c, 0, 74, 64
2, 232512, Note_on_c, 0, 79, 91
2, 232604, Note_off_c, 0, 79, 64
2, 232608, Note_on_c, 0, 83, 93
2, 232700, Note_off_c, 0, 83, 64
2, 232704, Note_on_c, 0, 86, 95
2, 232796, Note_off_c, 0, 86, 64
2, 232800, Note_on_c, 0, 83, 93
2, 232892, Note_off_c, 0, 83, 64
2, 232896, Note_on_c, 0, 79, 91
2, 232988, Note_off_c, 0, 79, 64
2, 232992, Note_on_c, 0, 74, 90
2, 233084, Note_off_c, 0, 74, 64
2, 233088, Note_on_c, 0, 71, 90
2, 233180, Note_off_c, 0, 71, 64
2, 233184, Note_on_c, 0, 74, 90
2, 233276, Note_off_c, 0, 74, 64
2, 233280, Note_on_c, 0, 79, 91
2, 233372, Note_off_c, 0, 79, 64
2, 233376, Note_on_c, 0, 83, 93
2, 233468, Note_off_c, 0, 83, 64
2, 233472, Note_on_c, 0, 86, 95
2, 233564, Note_off_c, 0, 86, 64
2, 233568, Note_on_c, 0, 83, 93
2, 233660, Note_off_c, 0, 83, 64
2, 233664, Note_on_c, 0, 79, 91
2, 233756, Note_off_c, 0, 79, 64
2, 233760, Note_on_c, 0, 76, 90
2, 233852, Note_off_c, 0, 76, 64
2, 233856, Note_on_c, 0, 75, 90
2, 233948, Note_off_c, 0, 75, 64
2, 233952, Note_on_c, 0, 76, 90
2, 234044, Note_off_c, 0, 76, 64
2, 234048, Note_on_c, 0, 79, 91
2, 234140, Note_off_c, 0, 79, 64
2, 234144, Note_on_c, 0, 83, 93
2, 234236, Note_off_c, 0, 83, 64
2, 234240, Note_on_c, 0, 86, 94
2, 234332, Note_off_c, 0, 86, 64
2, 234336, Note_on_c, 0, 83, 93
2, 234428, Note_off_c, 0, 83, 64
2, 234432, Note_on_c, 0, 79, 91
2, 234524, Note_off_c, 0, 79, 64
2, 234528, Note_on_c, 0, 76, 90
2, 234620, Note_off_c, 0, 76, 64
2, 234624, Note_on_c, 0, 75, 90
2, 234716, Note_off_c, 0, 75, 64
2, 234720, Note_on_c, 0, 76, 90
2, 234812, Note_off_c, 0, 76, 64
2, 234816, Note_on_c, 0, 79, 91
2, 234908, Note_off_c, 0, 79, 64
2, 234912, Note_on_c, 0, 83, 93
2, 235004, Note_off_c, 0, 83, 64
2, 235008, Note_on_c, 0, 84, 94
2, 235100, Note_off_c, 0, 84, 64
2, 235104, Note_on_c, 0, 81, 92
2, 235196, Note_off_c, 0, 81, 64
2, 235200, Note_on_c, 0, 78, 90
2, 235292, Note_off_c, 0, 78, 64
2, 235296, Note_on_c, 0, 76, 90
2, 235388, Note_off_c, 0, 76, 64
2, 235392, Note_on_c, 0, 75, 90
2, 235484, Note_off_c, 0, 75, 64
2, 235488, Note_on_c, 0, 76, 90
2, 235580, Note_off_c, 0, 76, 64
2, 235584, Note_on_c, 0, 78, 90
2, 235676, Note_off_c, 0, 78, 64
2, 235680, Note_on_c, 0, 81, 92
2, 235772, Note_off_c, 0, 81, 64
2, 235776, Note_on_c, 0, 84, 96
2, 235868, Note_off_c, 0, 84, 64
2, 235872, Note_on_c, 0, 81, 90
2, 235964, Note_off_c, 0, 81, 64
2, 235968, Note_on_c, 0, 78, 90
2, 236060, Note_off_c, 0, 78, 64
2, 236064, Note_on_c, 0, 76, 90
2, 236156, Note_off_c, 0, 76, 64
2, 236160, Note_on_c, 0, 75, 90
2, 236252, Note_off_c, 0, 75, 64
2, 236256, Note_on_c, 0, 76, 90
2, 236348, Note_off_c, 0, 76, 64
2, 236352, Note_on_c, 0, 78, 90
2, 236444, Note_off_c, 0, 78, 64
2, 236448, Note_on_c, 0, 81, 92
2, 236540, Note_off_c, 0, 81, 64
2, 236544, Note_on_c, 0, 84, 94
2, 236636, Note_off_c, 0, 84, 64
2, 236640, Note_on_c, 0, 81, 92
2, 236732, Note_off_c, 0, 81, 64
2, 236736, Note_on_c, 0, 78, 90
2, 236828, Note_off_c, 0, 78, 64
2, 236832, Note_on_c, 0, 74, 90
2, 236924, Note_off_c, 0, 74, 64
2, 236928, Note_on_c, 0, 73, 90
2, 237020, Note_off_c, 0, 73, 64
2, 237024, Note_on_c, 0, 74, 90
2, 237116, Note_off_c, 0, 74, 64
2, 237120, Note_on_c, 0, 78, 90
2, 237212, Note_off_c, 0, 78, 64
2, 237216, Note_on_c, 0, 81, 92
2, 237308, Note_off_c, 0, 81, 64
2, 237312, Note_on_c, 0, 84, 94
2, 237404, Note_off_c, 0, 84, 64
2, 237408, Note_on_c, 0, 81, 92
2, 237500, Note_off_c, 0, 81, 64
2, 237504, Note_on_c, 0, 78, 90
2, 237596, Note_off_c, 0, 78, 64
2, 237600, Note_on_c, 0, 74, 90
2, 237692, Note_off_c, 0, 74, 64
2, 237696, Note_on_c, 0, 73, 90
2, 237788, Note_off_c, 0, 73, 64
2, 237792, Note_on_c, 0, 74, 90
2, 237884, Note_off_c, 0, 74, 64
2, 237888, Note_on_c, 0, 78, 90
2, 237980, Note_off_c, 0, 78, 64
2, 237984, Note_on_c, 0, 81, 92
2, 238076, Note_off_c, 0, 81, 64
2, 238080, Note_on_c, 0, 83, 93
2, 238172, Note_off_c, 0, 83, 64
2, 238176, Note_on_c, 0, 79, 91
2, 238268, Note_off_c, 0, 79, 64
2, 238272, Note_on_c, 0, 76, 90
2, 238364, Note_off_c, 0, 76, 64
2, 238368, Note_on_c, 0, 76, 90
2, 238460, Note_off_c, 0, 76, 64
2, 238464, Note_on_c, 0, 73, 90
2, 238556, Note_off_c, 0, 73, 64
2, 238560, Note_on_c, 0, 74, 90
2, 238652, Note_off_c, 0, 74, 64
2, 238656, Note_on_c, 0, 76, 90
2, 238748, Note_off_c, 0, 76, 64
2, 238752, Note_on_c, 0, 79, 91
2, 238844, Note_off_c, 0, 79, 64
2, 238848, Note_on_c, 0, 83, 93
2, 238940, Note_off_c, 0, 83, 64
2, 238944, Note_on_c, 0, 79, 91
2, 239036, Note_off_c, 0, 79, 64
2, 239040, Note_on_c, 0, 76, 90
2, 239132, Note_off_c, 0, 76, 64
2, 239136, Note_on_c, 0, 74, 90
2, 239228, Note_off_c, 0, 74, 64
2, 239232, Note_on_c, 0, 73, 90
2, 239324, Note_off_c, 0, 73, 64
2, 239328, Note_on_c, 0, 74, 90
2, 239420, Note_off_c, 0, 74, 64
2, 239424, Note_on_c, 0, 76, 90
2, 239516, Note_off_c, 0, 76, 64
2, 239520, Note_on_c, 0, 79, 91
2, 239612, Note_off_c, 0, 79, 64
2, 239616, Note_on_c, 0, 83, 93
2, 239708, Note_off_c, 0, 83, 64
2, 239712, Note_on_c, 0, 79, 91
2, 239804, Note_off_c, 0, 79, 64
2, 239808, Note_on_c, 0, 76, 90
2, 239900, Note_off_c, 0, 76, 64
2, 239904, Note_on_c, 0, 72, 90
2, 239996, Note_off_c, 0, 72, 64
2, 240000, Note_on_c, 0, 71, 90
2, 240092, Note_off_c, 0, 71, 64
2, 240096, Note_on_c, 0, 72, 90
2, 240188, Note_off_c, 0, 72, 64
2, 240192, Note_on_c, 0, 76, 90
2, 240284, Note_off_c, 0, 76, 64
2, 240288, Note_on_c, 0, 79, 91
2, 240380, Note_off_c, 0, 79, 64
2, 240384, Note_on_c, 0, 83, 93
2, 240476, Note_off_c, 0, 83, 64
2, 240480, Note_on_c, 0, 79, 91
2, 240572, Note_off_c, 0, 79, 64
2, 240576, Note_on_c, 0, 76, 90
2, 240668, Note_off_c, 0, 76, 64
2, 240672, Note_on_c, 0, 72, 91
2, 240764, Note_off_c, 0, 72, 64
2, 240768, Note_on_c, 0, 71, 92
2, 240860, Note_off_c, 0, 71, 64
2, 240864, Note_on_c, 0, 72, 90
2, 240956, Note_off_c, 0, 72, 64
2, 240960, Note_on_c, 0, 76, 90
2, 241052, Note_off_c, 0, 76, 64
2, 241056, Note_on_c, 0, 79, 90
2, 241148, Note_off_c, 0, 79, 64
2, 241152, Note_on_c, 0, 81, 90
2, 241244, Note_off_c, 0, 81, 64
2, 241248, Note_on_c, 0, 78, 90
2, 241340, Note_off_c, 0, 78, 64
2, 241344, Note_on_c, 0, 74, 90
2, 241436, Note_off_c, 0, 74, 64
2, 241440, Note_on_c, 0, 72, 90
2, 241532, Note_off_c, 0, 72, 64
2, 241536, Note_on_c, 0, 71, 90
2, 241628, Note_off_c, 0, 71, 64
2, 241632, Note_on_c, 0, 72, 90
2, 241724, Note_off_c, 0, 72, 64
2, 241728, Note_on_c, 0, 74, 90
2, 241820, Note_off_c, 0, 74, 64
2, 241824, Note_on_c, 0, 78, 90
2, 241916, Note_off_c, 0, 78, 64
2, 241920, Note_on_c, 0, 81, 92
2, 242012, Note_off_c, 0, 81, 64
2, 242016, Note_on_c, 0, 78, 90
2, 242108, Note_off_c, 0, 78, 64
2, 242112, Note_on_c, 0, 74, 90
2, 242204, Note_off_c, 0, 74, 64
2, 242208, Note_on_c, 0, 72, 90
2, 242300, Note_off_c, 0, 72, 64
2, 242304, Note_on_c, 0, 71, 90
2, 242396, Note_off_c, 0, 71, 64
2, 242400, Note_on_c, 0, 72, 90
2, 242492, Note_off_c, 0, 72, 64
2, 242496, Note_on_c, 0, 74, 90
2, 242588, Note_off_c, 0, 74, 64
2, 242592, Note_on_c, 0, 78, 90
2, 242684, Note_off_c, 0, 78, 64
2, 242688, Note_on_c, 0, 83, 93
2, 242780, Note_off_c, 0, 83, 64
2, 242784, Note_on_c, 0, 79, 91
2, 242876, Note_off_c, 0, 79, 64
2, 242880, Note_on_c, 0, 74, 90
2, 242972, Note_off_c, 0, 74, 64
2, 242976, Note_on_c, 0, 71, 90
2, 243068, Note_off_c, 0, 71, 64
2, 243072, Note_on_c, 0, 70, 90
2, 243164, Note_off_c, 0, 70, 64
2, 243168, Note_on_c, 0, 71, 90
2, 243260, Note_off_c, 0, 71, 64
2, 243264, Note_on_c, 0, 74, 90
2, 243356, Note_off_c, 0, 74, 64
2, 243360, Note_on_c, 0, 79, 91
2, 243452, Note_off_c, 0, 79, 64
2, 243456, Note_on_c, 0, 83, 93
2, 243548, Note_off_c, 0, 83, 64
2, 243552, Note_on_c, 0, 79, 91
2, 243644, Note_off_c, 0, 79, 64
2, 243648, Note_on_c, 0, 74, 90
2, 243740, Note_off_c, 0, 74, 64
2, 243744, Note_on_c, 0, 71, 90
2, 243836, Note_off_c, 0, 71, 64
2, 243840, Note_on_c, 0, 83, 93
2, 243932, Note_off_c, 0, 83, 64
2, 243936, Note_on_c, 0, 71, 90
2, 244028, Note_off_c, 0, 71, 64
2, 244032, Note_on_c, 0, 81, 92
2, 244124, Note_off_c, 0, 81, 64
2, 244128, Note_on_c, 0, 69, 90
2, 244220, Note_off_c, 0, 69, 64
2, 244224, Note_on_c, 0, 79, 91
2, 244316, Note_off_c, 0, 79, 64
2, 244320, Note_on_c, 0, 76, 90
2, 244412, Note_off_c, 0, 76, 64
2, 244416, Note_on_c, 0, 71, 90
2, 244508, Note_off_c, 0, 71, 64
2, 244512, Note_on_c, 0, 67, 90
2, 244604, Note_off_c, 0, 67, 64
2, 244608, Note_on_c, 0, 66, 90
2, 244700, Note_off_c, 0, 66, 64
2, 244704, Note_on_c, 0, 67, 90
2, 244796, Note_off_c, 0, 67, 64
2, 244800, Note_on_c, 0, 71, 90
2, 244892, Note_off_c, 0, 71, 64
2, 244896, Note_on_c, 0, 76, 90
2, 244988, Note_off_c, 0, 76, 64
2, 244992, Note_on_c, 0, 79, 91
2, 245084, Note_off_c, 0, 79, 64
2, 245088, Note_on_c, 0, 76, 90
2, 245180, Note_off_c, 0, 76, 64
2, 245184, Note_on_c, 0, 71, 90
2, 245276, Note_off_c, 0, 71, 64
2, 245280, Note_on_c, 0, 67, 90
2, 245372, Note_off_c, 0, 67, 64
2, 245376, Note_on_c, 0, 79, 90
2, 245468, Note_off_c, 0, 79, 64
2, 245472, Note_on_c, 0, 67, 90
2, 245564, Note_off_c, 0, 67, 64
2, 245568, Note_on_c, 0, 78, 90
2, 245660, Note_off_c, 0, 78, 64
2, 245664, Note_on_c, 0, 66, 90
2, 245756, Note_off_c, 0, 66, 64
2, 245760, Note_on_c, 0, 76, 90
2, 245852, Note_off_c, 0, 76, 64
2, 245856, Note_on_c, 0, 72, 90
2, 245948, Note_off_c, 0, 72, 64
2, 245952, Note_on_c, 0, 67, 90
2, 246044, Note_off_c, 0, 67, 64
2, 246048, Note_on_c, 0, 64, 90
2, 246140, Note_off_c, 0, 64, 64
2, 246144, Note_on_c, 0, 63, 90
2, 246236, Note_off_c, 0, 63, 64
2, 246240, Note_on_c, 0, 64, 90
2, 246332, Note_off_c, 0, 64, 64
2, 246336, Note_on_c, 0, 67, 90
2, 246428, Note_off_c, 0, 67, 64
2, 246432, Note_on_c, 0, 72, 90
2, 246524, Note_off_c, 0, 72, 64
2, 246528, Note_on_c, 0, 76, 90
2, 246620, Note_off_c, 0, 76, 64
2, 246624, Note_on_c, 0, 72, 90
2, 246716, Note_off_c, 0, 72, 64
2, 246720, Note_on_c, 0, 67, 90
2, 246812, Note_off_c, 0, 67, 64
2, 246816, Note_on_c, 0, 64, 90
2, 246908, Note_off_c, 0, 64, 64
2, 246912, Note_on_c, 0, 76, 90
2, 247004, Note_off_c, 0, 76, 64
2, 247008, Note_on_c, 0, 64, 90
2, 247100, Note_off_c, 0, 64, 64
2, 247104, Note_on_c, 0, 74, 90
2, 247196, Note_off_c, 0, 74, 64
2, 247200, Note_on_c, 0, 62, 90
2, 247292, Note_off_c, 0, 62, 64
2, 247296, Note_on_c, 0, 72, 90
2, 247388, Note_off_c, 0, 72, 64
2, 247392, Note_on_c, 0, 69, 90
2, 247484, Note_off_c, 0, 69, 64
2, 247488, Note_on_c, 0, 64, 90
2, 247580, Note_off_c, 0, 64, 64
2, 247584, Note_on_c, 0, 60, 90
2, 247676, Note_off_c, 0, 60, 64
2, 247680, Note_on_c, 0, 72, 90
2, 247772, Note_off_c, 0, 72, 64
2, 247776, Note_on_c, 0, 60, 90
2, 247868, Note_off_c, 0, 60, 64
2, 247872, Note_on_c, 0, 71, 90
2, 247964, Note_off_c, 0, 71, 64
2, 247968, Note_on_c, 0, 59, 90
2, 248060, Note_off_c, 0, 59, 64
2, 248064, Note_on_c, 0, 69, 90
2, 248156, Note_off_c, 0, 69, 64
2, 248160, Note_on_c, 0, 66, 90
2, 248252, Note_off_c, 0, 66, 64
2, 248256, Note_on_c, 0, 60, 90
2, 248348, Note_off_c, 0, 60, 64
2, 248352, Note_on_c, 0, 57, 90
2, 248444, Note_off_c, 0, 57, 64
2, 248448, Note_on_c, 0, 69, 90
2, 248540, Note_off_c, 0, 69, 64
2, 248544, Note_on_c, 0, 57, 90
2, 248636, Note_off_c, 0, 57, 64
2, 248640, Note_on_c, 0, 67, 90
2, 248732, Note_off_c, 0, 67, 64
2, 248736, Note_on_c, 0, 55, 90
2, 248828, Note_off_c, 0, 55, 64
2, 248832, Note_on_c, 0, 66, 90
2, 248924, Note_off_c, 0, 66, 64
2, 248928, Note_on_c, 0, 72, 90
2, 249020, Note_off_c, 0, 72, 64
2, 249024, Note_on_c, 0, 69, 90
2, 249116, Note_off_c, 0, 69, 64
2, 249120, Note_on_c, 0, 66, 90
2, 249212, Note_off_c, 0, 66, 64
2, 249216, Note_on_c, 0, 62, 90
2, 249308, Note_off_c, 0, 62, 64
2, 249312, Note_on_c, 0, 72, 90
2, 249404, Note_off_c, 0, 72, 64
2, 249408, Note_on_c, 0, 63, 90
2, 249500, Note_off_c, 0, 63, 64
2, 249504, Note_on_c, 0, 72, 90
2, 249596, Note_off_c, 0, 72, 64
2, 249600, Note_on_c, 0, 62, 90
2, 249692, Note_off_c, 0, 62, 64
2, 249696, Note_on_c, 0, 72, 90
2, 249788, Note_off_c, 0, 72, 64
2, 249792, Note_on_c, 0, 62, 90
2, 249884, Note_off_c, 0, 62, 64
2, 249888, Note_on_c, 0, 72, 90
2, 249980, Note_off_c, 0, 72, 64
2, 249984, Note_on_c, 0, 62, 90
2, 250076, Note_off_c, 0, 62, 64
2, 250080, Note_on_c, 0, 72, 90
2, 250172, Note_off_c, 0, 72, 64
2, 250176, Note_on_c, 0, 62, 90
2, 250268, Note_off_c, 0, 62, 64
2, 250272, Note_on_c, 0, 72, 90
2, 250364, Note_off_c, 0, 72, 64
2, 250368, Note_on_c, 0, 62, 90
2, 250460, Note_off_c, 0, 62, 64
2, 250464, Note_on_c, 0, 72, 90
2, 250556, Note_off_c, 0, 72, 64
2, 250560, Note_on_c, 0, 69, 90
2, 250652, Note_off_c, 0, 69, 64
2, 250656, Note_on_c, 0, 66, 90
2, 250748, Note_off_c, 0, 66, 64
2, 250752, Note_on_c, 0, 62, 90
2, 250844, Note_off_c, 0, 62, 64
2, 250848, Note_on_c, 0, 72, 90
2, 250940, Note_off_c, 0, 72, 64
2, 250944, Note_on_c, 0, 63, 90
2, 251036, Note_off_c, 0, 63, 64
2, 251040, Note_on_c, 0, 72, 90
2, 251132, Note_off_c, 0, 72, 64
2, 251136, Note_on_c, 0, 62, 90
2, 251228, Note_off_c, 0, 62, 64
2, 251232, Note_on_c, 0, 72, 90
2, 251324, Note_off_c, 0, 72, 64
2, 251328, Note_on_c, 0, 63, 90
2, 251420, Note_off_c, 0, 63, 64
2, 251424, Note_on_c, 0, 72, 90
2, 251516, Note_off_c, 0, 72, 64
2, 251520, Note_on_c, 0, 62, 90
2, 251612, Note_off_c, 0, 62, 64
2, 251616, Note_on_c, 0, 72, 90
2, 251708, Note_off_c, 0, 72, 64
2, 251712, Note_on_c, 0, 63, 90
2, 251804, Note_off_c, 0, 63, 64
2, 251808, Note_on_c, 0, 72, 90
2, 251900, Note_off_c, 0, 72, 64
2, 251904, Note_on_c, 0, 62, 90
2, 251996, Note_off_c, 0, 62, 64
2, 252000, Note_on_c, 0, 72, 90
2, 252092, Note_off_c, 0, 72, 64
2, 252096, Note_on_c, 0, 61, 90
2, 252188, Note_off_c, 0, 61, 64
2, 252192, Note_on_c, 0, 72, 90
2, 252284, Note_off_c, 0, 72, 64
2, 252288, Note_on_c, 0, 62, 90
2, 252380, Note_off_c, 0, 62, 64
2, 252384, Note_on_c, 0, 72, 90
2, 252476, Note_off_c, 0, 72, 64
2, 252480, Note_on_c, 0, 63, 90
2, 252572, Note_off_c, 0, 63, 64
2, 252576, Note_on_c, 0, 72, 90
2, 252668, Note_off_c, 0, 72, 64
2, 252672, Note_on_c, 0, 64, 90
2, 252764, Note_off_c, 0, 64, 64
2, 252768, Note_on_c, 0, 72, 90
2, 252860, Note_off_c, 0, 72, 64
2, 252864, Note_on_c, 0, 65, 90
2, 252956, Note_off_c, 0, 65, 64
2, 252960, Note_on_c, 0, 72, 90
2, 253052, Note_off_c, 0, 72, 64
2, 253056, Note_on_c, 0, 66, 90
2, 253148, Note_off_c, 0, 66, 64
2, 253152, Note_on_c, 0, 72, 90
2, 253244, Note_off_c, 0, 72, 64
2, 253264, Note_on_c, 0, 67, 90
2, 253344, Note_on_c, 0, 72, 90
2, 253356, Note_off_c, 0, 67, 64
2, 253436, Note_off_c, 0, 72, 64
2, 253440, Note_on_c, 0, 68, 90
2, 253532, Note_off_c, 0, 68, 64
2, 253536, Note_on_c, 0, 72, 90
2, 253628, Note_off_c, 0, 72, 64
2, 253632, Note_on_c, 0, 69, 90
2, 253724, Note_off_c, 0, 69, 64
2, 253728, Note_on_c, 0, 72, 90
2, 253820, Note_off_c, 0, 72, 64
2, 253824, Note_on_c, 0, 68, 90
2, 253916, Note_off_c, 0, 68, 64
2, 253920, Note_on_c, 0, 72, 90
2, 254012, Note_off_c, 0, 72, 64
2, 254016, Note_on_c, 0, 67, 90
2, 254108, Note_off_c, 0, 67, 64
2, 254112, Note_on_c, 0, 72, 90
2, 254204, Note_off_c, 0, 72, 64
2, 254208, Note_on_c, 0, 66, 90
2, 254300, Note_off_c, 0, 66, 64
2, 254304, Note_on_c, 0, 72, 90
2, 254396, Note_off_c, 0, 72, 64
2, 254400, Note_on_c, 0, 65, 90
2, 254492, Note_off_c, 0, 65, 64
2, 254496, Note_on_c, 0, 72, 90
2, 254588, Note_off_c, 0, 72, 64
2, 254592, Note_on_c, 0, 64, 90
2, 254684, Note_off_c, 0, 64, 64
2, 254688, Note_on_c, 0, 72, 90
2, 254780, Note_off_c, 0, 72, 64
2, 254784, Note_on_c, 0, 63, 90
2, 254876, Note_off_c, 0, 63, 64
2, 254880, Note_on_c, 0, 72, 90
2, 254972, Note_off_c, 0, 72, 64
2, 254976, Note_on_c, 0, 62, 90
2, 255356, Note_off_c, 0, 62, 64
2, 255360, Note_on_c, 0, 84, 69
2, 255360, Note_on_c, 0, 81, 67
2, 255360, Note_on_c, 0, 78, 65
2, 255360, Note_on_c, 0, 72, 65
2, 255740, Note_off_c, 0, 84, 64
2, 255740, Note_off_c, 0, 81, 64
2, 255740, Note_off_c, 0, 78, 64
2, 255740, Note_off_c, 0, 72, 64
2, 255744, Note_on_c, 0, 83, 68
2, 255744, Note_on_c, 0, 79, 66
2, 255744, Note_on_c, 0, 76, 65
2, 255744, Note_on_c, 0, 71, 65
2, 256124, Note_off_c, 0, 83, 64
2, 256124, Note_off_c, 0, 79, 64
2, 256124, Note_off_c, 0, 76, 64
2, 256124, Note_off_c, 0, 71, 64
2, 256128, Note_on_c, 0, 86, 70
2, 256128, Note_on_c, 0, 83, 68
2, 256128, Note_on_c, 0, 79, 66
2, 256128, Note_on_c, 0, 77, 65
2, 256508, Note_off_c, 0, 86, 64
2, 256508, Note_off_c, 0, 83, 64
2, 256508, Note_off_c, 0, 79, 64
2, 256508, Note_off_c, 0, 77, 64
2, 256512, Note_on_c, 0, 88, 71
2, 256512, Note_on_c, 0, 84, 68
2, 256512, Note_on_c, 0, 79, 66
2, 256512, Note_on_c, 0, 76, 65
2, 256892, Note_off_c, 0, 88, 64
2, 256892, Note_off_c, 0, 84, 64
2, 256892, Note_off_c, 0, 79, 64
2, 256892, Note_off_c, 0, 76, 64
2, 257408, Note_on_c, 0, 75, 65
2, 257528, Note_off_c, 0, 75, 64
2, 257536, Note_on_c, 0, 76, 65
2, 257656, Note_off_c, 0, 76, 64
2, 257664, Note_on_c, 0, 77, 65
2, 257784, Note_off_c, 0, 77, 64
2, 257792, Note_on_c, 0, 78, 65
2, 257912, Note_off_c, 0, 78, 64
2, 257920, Note_on_c, 0, 79, 66
2, 258040, Note_off_c, 0, 79, 64
2, 258048, Note_on_c, 0, 81, 70
2, 258108, Note_off_c, 0, 81, 64
2, 258112, Note_on_c, 0, 79, 65
2, 258236, Note_off_c, 0, 79, 64
2, 258240, Note_on_c, 0, 78, 65
2, 258328, Note_off_c, 0, 78, 64
2, 258336, Note_on_c, 0, 76, 65
2, 258424, Note_off_c, 0, 76, 64
2, 258432, Note_on_c, 0, 74, 65
2, 258432, Note_on_c, 0, 65, 65
2, 258432, Note_on_c, 0, 69, 65
2, 258616, Note_off_c, 0, 74, 64
2, 258624, Note_on_c, 0, 72, 65
2, 258808, Note_off_c, 0, 65, 64
2, 258808, Note_off_c, 0, 69, 64
2, 258808, Note_off_c, 0, 72, 64
2, 258816, Note_on_c, 0, 65, 65
2, 258816, Note_on_c, 0, 69, 65
2, 258944, Note_on_c, 0, 71, 65
2, 259064, Note_off_c, 0, 71, 64
2, 259072, Note_on_c, 0, 72, 65
2, 259192, Note_off_c, 0, 72, 64
2, 259196, Note_off_c, 0, 65, 64
2, 259196, Note_off_c, 0, 69, 64
2, 259200, Note_on_c, 0, 73, 65
2, 259320, Note_off_c, 0, 73, 64
2, 259328, Note_on_c, 0, 74, 65
2, 259448, Note_off_c, 0, 74, 64
2, 259456, Note_on_c, 0, 75, 65
2, 259576, Note_off_c, 0, 75, 64
2, 259584, Note_on_c, 0, 78, 70
2, 259644, Note_off_c, 0, 78, 64
2, 259648, Note_on_c, 0, 76, 65
2, 259772, Note_off_c, 0, 76, 64
2, 259776, Note_on_c, 0, 74, 65
2, 259864, Note_off_c, 0, 74, 64
2, 259872, Note_on_c, 0, 72, 65
2, 259960, Note_off_c, 0, 72, 64
2, 259968, Note_on_c, 0, 71, 65
2, 259968, Note_on_c, 0, 64, 65
2, 259968, Note_on_c, 0, 60, 65
2, 260152, Note_off_c, 0, 71, 64
2, 260160, Note_on_c, 0, 69, 65
2, 260348, Note_off_c, 0, 64, 64
2, 260348, Note_off_c, 0, 60, 64
2, 260348, Note_off_c, 0, 69, 64
2, 260352, Note_on_c, 0, 64, 65
2, 260352, Note_on_c, 0, 60, 65
2, 260480, Note_on_c, 0, 68, 65
2, 260600, Note_off_c, 0, 68, 64
2, 260608, Note_on_c, 0, 69, 65
2, 260728, Note_off_c, 0, 69, 64
2, 260732, Note_off_c, 0, 64, 64
2, 260732, Note_off_c, 0, 60, 64
2, 260736, Note_on_c, 0, 70, 65
2, 260856, Note_off_c, 0, 70, 64
2, 260864, Note_on_c, 0, 71, 65
2, 260984, Note_off_c, 0, 71, 64
2, 260992, Note_on_c, 0, 72, 65
2, 261112, Note_off_c, 0, 72, 64
2, 261120, Note_on_c, 0, 73, 65
2, 261212, Note_off_c, 0, 73, 64
2, 261216, Note_on_c, 0, 74, 65
2, 261308, Note_off_c, 0, 74, 64
2, 261312, Note_on_c, 0, 75, 65
2, 261404, Note_off_c, 0, 75, 64
2, 261408, Note_on_c, 0, 76, 65
2, 261500, Note_off_c, 0, 76, 64
2, 261504, Note_on_c, 0, 74, 65
2, 261596, Note_off_c, 0, 74, 64
2, 261600, Note_on_c, 0, 74, 65
2, 261692, Note_off_c, 0, 74, 64
2, 261696, Note_on_c, 0, 72, 65
2, 261788, Note_off_c, 0, 72, 64
2, 261792, Note_on_c, 0, 72, 65
2, 261884, Note_off_c, 0, 72, 64
2, 261888, Note_on_c, 0, 71, 65
2, 261980, Note_off_c, 0, 71, 64
2, 261984, Note_on_c, 0, 69, 65
2, 262076, Note_off_c, 0, 69, 64
2, 262080, Note_on_c, 0, 72, 65
2, 262172, Note_off_c, 0, 72, 64
2, 262176, Note_on_c, 0, 71, 65
2, 262268, Note_off_c, 0, 71, 64
2, 262272, Note_on_c, 0, 74, 65
2, 262364, Note_off_c, 0, 74, 64
2, 262368, Note_on_c, 0, 72, 65
2, 262460, Note_off_c, 0, 72, 64
2, 262464, Note_on_c, 0, 71, 65
2, 262556, Note_off_c, 0, 71, 64
2, 262560, Note_on_c, 0, 69, 65
2, 262652, Note_off_c, 0, 69, 64
2, 262656, Note_on_c, 0, 74, 65
2, 263420, Note_off_c, 0, 74, 64
2, 263424, Note_on_c, 0, 74, 65
2, 263612, Note_off_c, 0, 74, 64
2, 263616, Note_on_c, 0, 78, 65
2, 263708, Note_off_c, 0, 78, 64
2, 263712, Note_on_c, 0, 76, 65
2, 263804, Note_off_c, 0, 76, 64
2, 263808, Note_on_c, 0, 79, 66
2, 263900, Note_off_c, 0, 79, 64
2, 263904, Note_on_c, 0, 78, 66
2, 263996, Note_off_c, 0, 78, 64
2, 264000, Note_on_c, 0, 81, 67
2, 264092, Note_off_c, 0, 81, 64
2, 264096, Note_on_c, 0, 79, 66
2, 264188, Note_off_c, 0, 79, 64
2, 264192, Note_on_c, 0, 67, 65
2, 264956, Note_off_c, 0, 67, 64
2, 264960, Note_on_c, 0, 69, 65
2, 265000, Note_off_c, 0, 69, 64
2, 265008, Note_on_c, 0, 71, 65
2, 265048, Note_off_c, 0, 71, 64
2, 265056, Note_on_c, 0, 69, 65
2, 265096, Note_off_c, 0, 69, 64
2, 265104, Note_on_c, 0, 71, 65
2, 265144, Note_off_c, 0, 71, 64
2, 265152, Note_on_c, 0, 69, 65
2, 265192, Note_off_c, 0, 69, 64
2, 265200, Note_on_c, 0, 71, 65
2, 265240, Note_off_c, 0, 71, 64
2, 265248, Note_on_c, 0, 69, 65
2, 265288, Note_off_c, 0, 69, 64
2, 265296, Note_on_c, 0, 71, 65
2, 265336, Note_off_c, 0, 71, 64
2, 265344, Note_on_c, 0, 69, 65
2, 265384, Note_off_c, 0, 69, 64
2, 265392, Note_on_c, 0, 71, 65
2, 265432, Note_off_c, 0, 71, 64
2, 265440, Note_on_c, 0, 69, 65
2, 265480, Note_off_c, 0, 69, 64
2, 265488, Note_on_c, 0, 71, 65
2, 265528, Note_off_c, 0, 71, 64
2, 265536, Note_on_c, 0, 67, 65
2, 265624, Note_off_c, 0, 67, 64
2, 265632, Note_on_c, 0, 69, 65
2, 265720, Note_off_c, 0, 69, 64
2, 265728, Note_on_c, 0, 67, 90
2, 265820, Note_off_c, 0, 67, 64
2, 265824, Note_on_c, 0, 71, 90
2, 265916, Note_off_c, 0, 71, 64
2, 265920, Note_on_c, 0, 74, 90
2, 266012, Note_off_c, 0, 74, 64
2, 266016, Note_on_c, 0, 79, 91
2, 266108, Note_off_c, 0, 79, 64
2, 266112, Note_on_c, 0, 67, 90
2, 266204, Note_off_c, 0, 67, 64
2, 266208, Note_on_c, 0, 79, 91
2, 266300, Note_off_c, 0, 79, 64
2, 266304, Note_on_c, 0, 69, 90
2, 266396, Note_off_c, 0, 69, 64
2, 266400, Note_on_c, 0, 81, 92
2, 266492, Note_off_c, 0, 81, 64
2, 266496, Note_on_c, 0, 71, 90
2, 266588, Note_off_c, 0, 71, 64
2, 266592, Note_on_c, 0, 83, 93
2, 266684, Note_off_c, 0, 83, 64
2, 266688, Note_on_c, 0, 72, 90
2, 266780, Note_off_c, 0, 72, 64
2, 266784, Note_on_c, 0, 84, 94
2, 266876, Note_off_c, 0, 84, 64
2, 266880, Note_on_c, 0, 85, 94
2, 266972, Note_off_c, 0, 85, 64
2, 266976, Note_on_c, 0, 86, 95
2, 267068, Note_off_c, 0, 86, 64
2, 267072, Note_on_c, 0, 84, 94
2, 267164, Note_off_c, 0, 84, 64
2, 267168, Note_on_c, 0, 81, 92
2, 267260, Note_off_c, 0, 81, 64
2, 267264, Note_on_c, 0, 67, 90
2, 267356, Note_off_c, 0, 67, 64
2, 267360, Note_on_c, 0, 71, 90
2, 267452, Note_off_c, 0, 71, 64
2, 267456, Note_on_c, 0, 74, 90
2, 267548, Note_off_c, 0, 74, 64
2, 267552, Note_on_c, 0, 79, 91
2, 267644, Note_off_c, 0, 79, 64
2, 267648, Note_on_c, 0, 67, 90
2, 267740, Note_off_c, 0, 67, 64
2, 267744, Note_on_c, 0, 79, 91
2, 267836, Note_off_c, 0, 79, 64
2, 267840, Note_on_c, 0, 69, 90
2, 267932, Note_off_c, 0, 69, 64
2, 267936, Note_on_c, 0, 81, 92
2, 268028, Note_off_c, 0, 81, 64
2, 268032, Note_on_c, 0, 71, 90
2, 268124, Note_off_c, 0, 71, 64
2, 268128, Note_on_c, 0, 83, 93
2, 268220, Note_off_c, 0, 83, 64
2, 268224, Note_on_c, 0, 72, 90
2, 268316, Note_off_c, 0, 72, 64
2, 268320, Note_on_c, 0, 84, 94
2, 268412, Note_off_c, 0, 84, 64
2, 268416, Note_on_c, 0, 85, 94
2, 268508, Note_off_c, 0, 85, 64
2, 268512, Note_on_c, 0, 86, 95
2, 268604, Note_off_c, 0, 86, 64
2, 268608, Note_on_c, 0, 84, 94
2, 268700, Note_off_c, 0, 84, 64
2, 268704, Note_on_c, 0, 81, 92
2, 268796, Note_off_c, 0, 81, 64
2, 268800, Note_on_c, 0, 79, 91
2, 269180, Note_off_c, 0, 79, 64
2, 269760, Note_on_c, 0, 83, 93
2, 269760, Note_on_c, 0, 79, 91
2, 269948, Note_off_c, 0, 83, 64
2, 269948, Note_off_c, 0, 79, 64
2, 269952, Note_on_c, 0, 81, 92
2, 269952, Note_on_c, 0, 78, 90
2, 270140, Note_off_c, 0, 81, 64
2, 270140, Note_off_c, 0, 78, 64
2, 270144, Note_on_c, 0, 86, 95
2, 270236, Note_off_c, 0, 86, 64
2, 270336, Note_on_c, 0, 79, 91
2, 270336, Note_on_c, 0, 76, 90
2, 270336, Note_on_c, 0, 71, 90
2, 270716, Note_off_c, 0, 79, 64
2, 270716, Note_off_c, 0, 76, 64
2, 270716, Note_off_c, 0, 71, 64
2, 271296, Note_on_c, 0, 79, 91
2, 271296, Note_on_c, 0, 76, 90
2, 271484, Note_off_c, 0, 79, 64
2, 271484, Note_off_c, 0, 76, 64
2, 271488, Note_on_c, 0, 78, 90
2, 271488, Note_on_c, 0, 74, 90
2, 271676, Note_off_c, 0, 78, 64
2, 271676, Note_off_c, 0, 74, 64
2, 271680, Note_on_c, 0, 83, 93
2, 271772, Note_off_c, 0, 83, 64
2, 271872, Note_on_c, 0, 76, 90
2, 271872, Note_on_c, 0, 72, 90
2, 271872, Note_on_c, 0, 67, 90
2, 272252, Note_off_c, 0, 76, 64
2, 272252, Note_off_c, 0, 72, 64
2, 272252, Note_off_c, 0, 67, 64
2, 272832, Note_on_c, 0, 76, 90
2, 272832, Note_on_c, 0, 72, 90
2, 273020, Note_off_c, 0, 76, 64
2, 273020, Note_off_c, 0, 72, 64
2, 273024, Note_on_c, 0, 74, 90
2, 273024, Note_on_c, 0, 71, 90
2, 273212, Note_off_c, 0, 74, 64
2, 273212, Note_off_c, 0, 71, 64
2, 273216, Note_on_c, 0, 79, 91
2, 273308, Note_off_c, 0, 79, 64
2, 273408, Note_on_c, 0, 72, 90
2, 273500, Note_off_c, 0, 72, 64
2, 273504, Note_on_c, 0, 84, 94
2, 273596, Note_off_c, 0, 84, 64
2, 273600, Note_on_c, 0, 72, 90
2, 273692, Note_off_c, 0, 72, 64
2, 273696, Note_on_c, 0, 71, 90
2, 273788, Note_off_c, 0, 71, 64
2, 273792, Note_on_c, 0, 69, 90
2, 273884, Note_off_c, 0, 69, 64
2, 273888, Note_on_c, 0, 81, 92
2, 273980, Note_off_c, 0, 81, 64
2, 273984, Note_on_c, 0, 69, 90
2, 274076, Note_off_c, 0, 69, 64
2, 274080, Note_on_c, 0, 67, 90
2, 274172, Note_off_c, 0, 67, 64
2, 274176, Note_on_c, 0, 66, 90
2, 274268, Note_off_c, 0, 66, 64
2, 274272, Note_on_c, 0, 78, 91
2, 274364, Note_off_c, 0, 78, 64
2, 274368, Note_on_c, 0, 66, 90
2, 274460, Note_off_c, 0, 66, 64
2, 274464, Note_on_c, 0, 64, 90
2, 274556, Note_off_c, 0, 64, 64
2, 274560, Note_on_c, 0, 62, 90
2, 274652, Note_off_c, 0, 62, 64
2, 274656, Note_on_c, 0, 74, 90
2, 274748, Note_off_c, 0, 74, 64
2, 274752, Note_on_c, 0, 62, 90
2, 274844, Note_off_c, 0, 62, 64
2, 274848, Note_on_c, 0, 60, 90
2, 274940, Note_off_c, 0, 60, 64
2, 274944, Note_on_c, 0, 59, 90
2, 275036, Note_off_c, 0, 59, 64
2, 275040, Note_on_c, 0, 62, 90
2, 275132, Note_off_c, 0, 62, 64
2, 275136, Note_on_c, 0, 67, 90
2, 275228, Note_off_c, 0, 67, 64
2, 275232, Note_on_c, 0, 71, 90
2, 275324, Note_off_c, 0, 71, 64
2, 275328, Note_on_c, 0, 74, 90
2, 275420, Note_off_c, 0, 74, 64
2, 275424, Note_on_c, 0, 79, 91
2, 275516, Note_off_c, 0, 79, 64
2, 275520, Note_on_c, 0, 83, 93
2, 275612, Note_off_c, 0, 83, 64
2, 275616, Note_on_c, 0, 86, 95
2, 275708, Note_off_c, 0, 86, 64
2, 275712, Note_on_c, 0, 86, 95
2, 275804, Note_off_c, 0, 86, 64
2, 275808, Note_on_c, 0, 83, 93
2, 275900, Note_off_c, 0, 83, 64
2, 275904, Note_on_c, 0, 79, 91
2, 275996, Note_off_c, 0, 79, 64
2, 276000, Note_on_c, 0, 74, 90
2, 276092, Note_off_c, 0, 74, 64
2, 276096, Note_on_c, 0, 71, 90
2, 276188, Note_off_c, 0, 71, 64
2, 276192, Note_on_c, 0, 67, 90
2, 276284, Note_off_c, 0, 67, 64
2, 276288, Note_on_c, 0, 62, 90
2, 276380, Note_off_c, 0, 62, 64
2, 276384, Note_on_c, 0, 59, 90
2, 276476, Note_off_c, 0, 59, 64
2, 276480, Note_on_c, 0, 60, 90
2, 276572, Note_off_c, 0, 60, 64
2, 276576, Note_on_c, 0, 64, 90
2, 276668, Note_off_c, 0, 64, 64
2, 276672, Note_on_c, 0, 67, 90
2, 276764, Note_off_c, 0, 67, 64
2, 276768, Note_on_c, 0, 72, 90
2, 276860, Note_off_c, 0, 72, 64
2, 276864, Note_on_c, 0, 76, 90
2, 276956, Note_off_c, 0, 76, 64
2, 276960, Note_on_c, 0, 79, 91
2, 277052, Note_off_c, 0, 79, 64
2, 277056, Note_on_c, 0, 84, 94
2, 277148, Note_off_c, 0, 84, 64
2, 277152, Note_on_c, 0, 88, 96
2, 277244, Note_off_c, 0, 88, 64
2, 277248, Note_on_c, 0, 88, 96
2, 277340, Note_off_c, 0, 88, 64
2, 277344, Note_on_c, 0, 84, 94
2, 277436, Note_off_c, 0, 84, 64
2, 277440, Note_on_c, 0, 79, 91
2, 277532, Note_off_c, 0, 79, 64
2, 277536, Note_on_c, 0, 76, 90
2, 277628, Note_off_c, 0, 76, 64
2, 277632, Note_on_c, 0, 72, 90
2, 277724, Note_off_c, 0, 72, 64
2, 277728, Note_on_c, 0, 67, 90
2, 277820, Note_off_c, 0, 67, 64
2, 277824, Note_on_c, 0, 64, 90
2, 277916, Note_off_c, 0, 64, 64
2, 277920, Note_on_c, 0, 60, 90
2, 278012, Note_off_c, 0, 60, 64
2, 278016, Note_on_c, 0, 59, 90
2, 278108, Note_off_c, 0, 59, 64
2, 278112, Note_on_c, 0, 62, 90
2, 278204, Note_off_c, 0, 62, 64
2, 278208, Note_on_c, 0, 67, 90
2, 278300, Note_off_c, 0, 67, 64
2, 278304, Note_on_c, 0, 71, 90
2, 278396, Note_off_c, 0, 71, 64
2, 278400, Note_on_c, 0, 74, 90
2, 278492, Note_off_c, 0, 74, 64
2, 278496, Note_on_c, 0, 79, 91
2, 278588, Note_off_c, 0, 79, 64
2, 278592, Note_on_c, 0, 83, 93
2, 278684, Note_off_c, 0, 83, 64
2, 278688, Note_on_c, 0, 86, 95
2, 278780, Note_off_c, 0, 86, 64
2, 278784, Note_on_c, 0, 81, 92
2, 278824, Note_off_c, 0, 81, 64
2, 278832, Note_on_c, 0, 83, 93
2, 278872, Note_off_c, 0, 83, 64
2, 278880, Note_on_c, 0, 81, 92
2, 278920, Note_off_c, 0, 81, 64
2, 278928, Note_on_c, 0, 83, 93
2, 278968, Note_off_c, 0, 83, 64
2, 278976, Note_on_c, 0, 81, 92
2, 279016, Note_off_c, 0, 81, 64
2, 279024, Note_on_c, 0, 83, 93
2, 279064, Note_off_c, 0, 83, 64
2, 279072, Note_on_c, 0, 81, 92
2, 279112, Note_off_c, 0, 81, 64
2, 279120, Note_on_c, 0, 83, 93
2, 279160, Note_off_c, 0, 83, 64
2, 279168, Note_on_c, 0, 81, 92
2, 279208, Note_off_c, 0, 81, 64
2, 279216, Note_on_c, 0, 83, 93
2, 279256, Note_off_c, 0, 83, 64
2, 279264, Note_on_c, 0, 81, 92
2, 279304, Note_off_c, 0, 81, 64
2, 279312, Note_on_c, 0, 83, 93
2, 279352, Note_off_c, 0, 83, 64
2, 279360, Note_on_c, 0, 79, 91
2, 279448, Note_off_c, 0, 79, 64
2, 279456, Note_on_c, 0, 81, 92
2, 279544, Note_off_c, 0, 81, 64
2, 279552, Note_on_c, 0, 79, 91
2, 279932, Note_off_c, 0, 79, 64
2, 280704, Note_on_c, 0, 81, 92
2, 280704, Note_on_c, 0, 78, 90
2, 280704, Note_on_c, 0, 74, 90
2, 281084, Note_off_c, 0, 81, 64
2, 281084, Note_off_c, 0, 78, 64
2, 281084, Note_off_c, 0, 74, 64
2, 281088, Note_on_c, 0, 83, 93
2, 281088, Note_on_c, 0, 79, 92
2, 281088, Note_on_c, 0, 74, 90
2, 281468, Note_off_c, 0, 83, 64
2, 281468, Note_off_c, 0, 79, 64
2, 281468, Note_off_c, 0, 74, 64
2, 282240, Note_on_c, 0, 81, 92
2, 282240, Note_on_c, 0, 78, 90
2, 282240, Note_on_c, 0, 74, 90
2, 282620, Note_off_c, 0, 81, 64
2, 282620, Note_off_c, 0, 78, 64
2, 282620, Note_off_c, 0, 74, 64
2, 282720, Note_on_c, 0, 67, 90
2, 282812, Note_off_c, 0, 67, 64
2, 282816, Note_on_c, 0, 69, 90
2, 282908, Note_off_c, 0, 69, 64
2, 282912, Note_on_c, 0, 71, 90
2, 283004, Note_off_c, 0, 71, 64
2, 283008, Note_on_c, 0, 72, 90
2, 283100, Note_off_c, 0, 72, 64
2, 283104, Note_on_c, 0, 74, 90
2, 283196, Note_off_c, 0, 74, 64
2, 283200, Note_on_c, 0, 76, 90
2, 283292, Note_off_c, 0, 76, 64
2, 283296, Note_on_c, 0, 78, 90
2, 283388, Note_off_c, 0, 78, 64
2, 283392, Note_on_c, 0, 79, 91
2, 283484, Note_off_c, 0, 79, 64
2, 283488, Note_on_c, 0, 81, 92
2, 283580, Note_off_c, 0, 81, 64
2, 283584, Note_on_c, 0, 83, 93
2, 283676, Note_off_c, 0, 83, 64
2, 283680, Note_on_c, 0, 84, 94
2, 283772, Note_off_c, 0, 84, 64
2, 283776, Note_on_c, 0, 86, 95
2, 283868, Note_off_c, 0, 86, 64
2, 283968, Note_on_c, 0, 74, 88
2, 284060, Note_off_c, 0, 74, 64
2, 284256, Note_on_c, 0, 64, 82
2, 284348, Note_off_c, 0, 64, 64
2, 284352, Note_on_c, 0, 66, 83
2, 284444, Note_off_c, 0, 66, 64
2, 284448, Note_on_c, 0, 67, 84
2, 284540, Note_off_c, 0, 67, 64
2, 284544, Note_on_c, 0, 69, 85
2, 284636, Note_off_c, 0, 69, 64
2, 284640, Note_on_c, 0, 71, 86
2, 284732, Note_off_c, 0, 71, 64
2, 284736, Note_on_c, 0, 73, 87
2, 284828, Note_off_c, 0, 73, 64
2, 284832, Note_on_c, 0, 75, 88
2, 284924, Note_off_c, 0, 75, 64
2, 284928, Note_on_c, 0, 76, 89
2, 285020, Note_off_c, 0, 76, 64
2, 285024, Note_on_c, 0, 78, 90
2, 285116, Note_off_c, 0, 78, 64
2, 285120, Note_on_c, 0, 79, 91
2, 285212, Note_off_c, 0, 79, 64
2, 285216, Note_on_c, 0, 81, 92
2, 285308, Note_off_c, 0, 81, 64
2, 285312, Note_on_c, 0, 83, 93
2, 285500, Note_off_c, 0, 83, 64
2, 285504, Note_on_c, 0, 71, 86
2, 285596, Note_off_c, 0, 71, 64
2, 285792, Note_on_c, 0, 60, 82
2, 285884, Note_off_c, 0, 60, 64
2, 285888, Note_on_c, 0, 62, 82
2, 285980, Note_off_c, 0, 62, 64
2, 285984, Note_on_c, 0, 64, 82
2, 286076, Note_off_c, 0, 64, 64
2, 286080, Note_on_c, 0, 65, 83
2, 286172, Note_off_c, 0, 65, 64
2, 286176, Note_on_c, 0, 67, 84
2, 286268, Note_off_c, 0, 67, 64
2, 286272, Note_on_c, 0, 69, 85
2, 286364, Note_off_c, 0, 69, 64
2, 286368, Note_on_c, 0, 71, 86
2, 286460, Note_off_c, 0, 71, 64
2, 286464, Note_on_c, 0, 72, 87
2, 286556, Note_off_c, 0, 72, 64
2, 286560, Note_on_c, 0, 74, 88
2, 286652, Note_off_c, 0, 74, 64
2, 286656, Note_on_c, 0, 76, 89
2, 286748, Note_off_c, 0, 76, 64
2, 286752, Note_on_c, 0, 78, 90
2, 286844, Note_off_c, 0, 78, 64
2, 286848, Note_on_c, 0, 79, 91
2, 287036, Note_off_c, 0, 79, 64
2, 287040, Note_on_c, 0, 67, 84
2, 287132, Note_off_c, 0, 67, 64
2, 287232, Note_on_c, 0, 72, 87
2, 287324, Note_off_c, 0, 72, 64
2, 287424, Note_on_c, 0, 74, 88
2, 287516, Note_off_c, 0, 74, 64
2, 287616, Note_on_c, 0, 76, 89
2, 287708, Note_off_c, 0, 76, 64
2, 287808, Note_on_c, 0, 78, 90
2, 287900, Note_off_c, 0, 78, 64
2, 288000, Note_on_c, 0, 79, 91
2, 288092, Note_off_c, 0, 79, 64
2, 288192, Note_on_c, 0, 81, 92
2, 288284, Note_off_c, 0, 81, 64
2, 288384, Note_on_c, 0, 83, 93
2, 288572, Note_off_c, 0, 83, 64
2, 288576, Note_on_c, 0, 84, 94
2, 288668, Note_off_c, 0, 84, 64
2, 288768, Note_on_c, 0, 86, 95
2, 289148, Note_off_c, 0, 86, 64
2, 289536, Note_on_c, 0, 83, 93
2, 289628, Note_off_c, 0, 83, 64
2, 289632, Note_on_c, 0, 86, 95
2, 289724, Note_off_c, 0, 86, 64
2, 289728, Note_on_c, 0, 79, 91
2, 289820, Note_off_c, 0, 79, 64
2, 289824, Note_on_c, 0, 83, 93
2, 289916, Note_off_c, 0, 83, 64
2, 289920, Note_on_c, 0, 74, 90
2, 290012, Note_off_c, 0, 74, 64
2, 290016, Note_on_c, 0, 79, 91
2, 290108, Note_off_c, 0, 79, 64
2, 290112, Note_on_c, 0, 71, 90
2, 290204, Note_off_c, 0, 71, 64
2, 290208, Note_on_c, 0, 74, 90
2, 290300, Note_off_c, 0, 74, 64
2, 290304, Note_on_c, 0, 67, 90
2, 290684, Note_off_c, 0, 67, 64
2, 291072, Note_on_c, 0, 84, 94
2, 291164, Note_off_c, 0, 84, 64
2, 291168, Note_on_c, 0, 88, 96
2, 291260, Note_off_c, 0, 88, 64
2, 291264, Note_on_c, 0, 79, 91
2, 291356, Note_off_c, 0, 79, 64
2, 291360, Note_on_c, 0, 84, 94
2, 291452, Note_off_c, 0, 84, 64
2, 291456, Note_on_c, 0, 76, 90
2, 291548, Note_off_c, 0, 76, 64
2, 291552, Note_on_c, 0, 79, 90
2, 291644, Note_off_c, 0, 79, 64
2, 291648, Note_on_c, 0, 72, 90
2, 291740, Note_off_c, 0, 72, 64
2, 291744, Note_on_c, 0, 76, 90
2, 291836, Note_off_c, 0, 76, 64
2, 291840, Note_on_c, 0, 70, 90
2, 292220, Note_off_c, 0, 70, 64
2, 292608, Note_on_c, 0, 82, 93
2, 292700, Note_off_c, 0, 82, 64
2, 292704, Note_on_c, 0, 88, 96
2, 292796, Note_off_c, 0, 88, 64
2, 292800, Note_on_c, 0, 79, 91
2, 292892, Note_off_c, 0, 79, 64
2, 292896, Note_on_c, 0, 82, 93
2, 292988, Note_off_c, 0, 82, 64
2, 292992, Note_on_c, 0, 76, 90
2, 293084, Note_off_c, 0, 76, 64
2, 293088, Note_on_c, 0, 79, 91
2, 293180, Note_off_c, 0, 79, 64
2, 293184, Note_on_c, 0, 73, 90
2, 293276, Note_off_c, 0, 73, 64
2, 293280, Note_on_c, 0, 76, 90
2, 293372, Note_off_c, 0, 76, 64
2, 293376, Note_on_c, 0, 70, 90
2, 293468, Note_off_c, 0, 70, 64
2, 293472, Note_on_c, 0, 73, 90
2, 293564, Note_off_c, 0, 73, 64
2, 293568, Note_on_c, 0, 67, 90
2, 293660, Note_off_c, 0, 67, 64
2, 293664, Note_on_c, 0, 70, 90
2, 293756, Note_off_c, 0, 70, 64
2, 293760, Note_on_c, 0, 64, 90
2, 293852, Note_off_c, 0, 64, 64
2, 293856, Note_on_c, 0, 67, 90
2, 293948, Note_off_c, 0, 67, 64
2, 293952, Note_on_c, 0, 61, 90
2, 294044, Note_off_c, 0, 61, 64
2, 294048, Note_on_c, 0, 64, 90
2, 294140, Note_off_c, 0, 64, 64
2, 295680, Note_on_c, 0, 59, 90
2, 295772, Note_off_c, 0, 59, 64
2, 295776, Note_on_c, 0, 62, 90
2, 295868, Note_off_c, 0, 62, 64
2, 295872, Note_on_c, 0, 60, 90
2, 295964, Note_off_c, 0, 60, 64
2, 295968, Note_on_c, 0, 64, 90
2, 296060, Note_off_c, 0, 64, 64
2, 296064, Note_on_c, 0, 62, 90
2, 296156, Note_off_c, 0, 62, 64
2, 296160, Note_on_c, 0, 67, 90
2, 296252, Note_off_c, 0, 67, 64
2, 296256, Note_on_c, 0, 66, 90
2, 296348, Note_off_c, 0, 66, 64
2, 296352, Note_on_c, 0, 69, 90
2, 296444, Note_off_c, 0, 69, 64
2, 296448, Note_on_c, 0, 67, 90
2, 296540, Note_off_c, 0, 67, 64
2, 296544, Note_on_c, 0, 71, 90
2, 296636, Note_off_c, 0, 71, 64
2, 296640, Note_on_c, 0, 69, 90
2, 296732, Note_off_c, 0, 69, 64
2, 296736, Note_on_c, 0, 72, 90
2, 296828, Note_off_c, 0, 72, 64
2, 296832, Note_on_c, 0, 71, 90
2, 296924, Note_off_c, 0, 71, 64
2, 296928, Note_on_c, 0, 74, 90
2, 297020, Note_off_c, 0, 74, 64
2, 297024, Note_on_c, 0, 72, 90
2, 297116, Note_off_c, 0, 72, 64
2, 297120, Note_on_c, 0, 76, 90
2, 297212, Note_off_c, 0, 76, 64
2, 297216, Note_on_c, 0, 74, 90
2, 297216, Note_on_c, 0, 62, 90
2, 297308, Note_off_c, 0, 74, 64
2, 297308, Note_off_c, 0, 62, 64
2, 297312, Note_on_c, 0, 79, 91
2, 297312, Note_on_c, 0, 67, 90
2, 297404, Note_off_c, 0, 79, 64
2, 297404, Note_off_c, 0, 67, 64
2, 297408, Note_on_c, 0, 78, 90
2, 297408, Note_on_c, 0, 66, 90
2, 297500, Note_off_c, 0, 78, 64
2, 297500, Note_off_c, 0, 66, 64
2, 297504, Note_on_c, 0, 81, 92
2, 297504, Note_on_c, 0, 69, 90
2, 297596, Note_off_c, 0, 81, 64
2, 297596, Note_off_c, 0, 69, 64
2, 297600, Note_on_c, 0, 79, 91
2, 297600, Note_on_c, 0, 67, 90
2, 297692, Note_off_c, 0, 79, 64
2, 297692, Note_off_c, 0, 67, 64
2, 297696, Note_on_c, 0, 83, 93
2, 297696, Note_on_c, 0, 71, 90
2, 297788, Note_off_c, 0, 83, 64
2, 297788, Note_off_c, 0, 71, 64
2, 297792, Note_on_c, 0, 69, 92
2, 297792, Note_on_c, 0, 81, 90
2, 297884, Note_off_c, 0, 69, 64
2, 297884, Note_off_c, 0, 81, 64
2, 297888, Note_on_c, 0, 72, 94
2, 297888, Note_on_c, 0, 84, 90
2, 297980, Note_off_c, 0, 72, 64
2, 297980, Note_off_c, 0, 84, 64
2, 297984, Note_on_c, 0, 83, 93
2, 297984, Note_on_c, 0, 71, 90
2, 298076, Note_off_c, 0, 83, 64
2, 298076, Note_off_c, 0, 71, 64
2, 298080, Note_on_c, 0, 86, 95
2, 298080, Note_on_c, 0, 74, 90
2, 298172, Note_off_c, 0, 86, 64
2, 298172, Note_off_c, 0, 74, 64
2, 298176, Note_on_c, 0, 78, 90
2, 298176, Note_on_c, 0, 66, 90
2, 298268, Note_off_c, 0, 78, 64
2, 298268, Note_off_c, 0, 66, 64
2, 298272, Note_on_c, 0, 81, 92
2, 298272, Note_on_c, 0, 69, 90
2, 298364, Note_off_c, 0, 81, 64
2, 298364, Note_off_c, 0, 69, 64
2, 298368, Note_on_c, 0, 79, 91
2, 298368, Note_on_c, 0, 67, 90
2, 298460, Note_off_c, 0, 79, 64
2, 298460, Note_off_c, 0, 67, 64
2, 298464, Note_on_c, 0, 83, 93
2, 298464, Note_on_c, 0, 71, 90
2, 298556, Note_off_c, 0, 83, 64
2, 298556, Note_off_c, 0, 71, 64
2, 298560, Note_on_c, 0, 73, 90
2, 298560, Note_on_c, 0, 61, 90
2, 298652, Note_off_c, 0, 73, 64
2, 298652, Note_off_c, 0, 61, 64
2, 298656, Note_on_c, 0, 76, 90
2, 298656, Note_on_c, 0, 64, 90
2, 298748, Note_off_c, 0, 76, 64
2, 298748, Note_off_c, 0, 64, 64
2, 298752, Note_on_c, 0, 74, 90
2, 298844, Note_off_c, 0, 74, 64
2, 298848, Note_on_c, 0, 79, 91
2, 298940, Note_off_c, 0, 79, 64
2, 298944, Note_on_c, 0, 70, 90
2, 299036, Note_off_c, 0, 70, 64
2, 299040, Note_on_c, 0, 73, 90
2, 299132, Note_off_c, 0, 73, 64
2, 299136, Note_on_c, 0, 71, 90
2, 299228, Note_off_c, 0, 71, 64
2, 299232, Note_on_c, 0, 74, 90
2, 299324, Note_off_c, 0, 74, 64
2, 299328, Note_on_c, 0, 66, 90
2, 299420, Note_off_c, 0, 66, 64
2, 299424, Note_on_c, 0, 69, 90
2, 299516, Note_off_c, 0, 69, 64
2, 299520, Note_on_c, 0, 67, 90
2, 299612, Note_off_c, 0, 67, 64
2, 299616, Note_on_c, 0, 71, 90
2, 299708, Note_off_c, 0, 71, 64
2, 299712, Note_on_c, 0, 61, 90
2, 299804, Note_off_c, 0, 61, 64
2, 299808, Note_on_c, 0, 64, 90
2, 299900, Note_off_c, 0, 64, 64
2, 299904, Note_on_c, 0, 62, 90
2, 299996, Note_off_c, 0, 62, 64
2, 300000, Note_on_c, 0, 67, 90
2, 300092, Note_off_c, 0, 67, 64
2, 300096, Note_on_c, 0, 58, 90
2, 300188, Note_off_c, 0, 58, 64
2, 300192, Note_on_c, 0, 61, 90
2, 300284, Note_off_c, 0, 61, 64
2, 301440, Note_on_c, 0, 62, 81
2, 301564, Note_off_c, 0, 62, 64
2, 301568, Note_on_c, 0, 67, 83
2, 301692, Note_off_c, 0, 67, 64
2, 301696, Note_on_c, 0, 71, 85
2, 301820, Note_off_c, 0, 71, 64
2, 301824, Note_on_c, 0, 74, 86
2, 301948, Note_off_c, 0, 74, 64
2, 301952, Note_on_c, 0, 79, 91
2, 302076, Note_off_c, 0, 79, 64
2, 302080, Note_on_c, 0, 83, 93
2, 302204, Note_off_c, 0, 83, 64
2, 302208, Note_on_c, 0, 85, 94
2, 302300, Note_off_c, 0, 85, 64
2, 302304, Note_on_c, 0, 86, 95
2, 302396, Note_off_c, 0, 86, 64
2, 302400, Note_on_c, 0, 83, 93
2, 302492, Note_off_c, 0, 83, 64
2, 302496, Note_on_c, 0, 79, 91
2, 302588, Note_off_c, 0, 79, 64
2, 302592, Note_on_c, 0, 62, 90
2, 302592, Note_on_c, 0, 81, 92
2, 302632, Note_off_c, 0, 81, 64
2, 302640, Note_on_c, 0, 83, 93
2, 302680, Note_off_c, 0, 83, 64
2, 302684, Note_off_c, 0, 62, 64
2, 302688, Note_on_c, 0, 72, 90
2, 302688, Note_on_c, 0, 81, 92
2, 302728, Note_off_c, 0, 81, 64
2, 302736, Note_on_c, 0, 83, 93
2, 302776, Note_off_c, 0, 83, 64
2, 302780, Note_off_c, 0, 72, 64
2, 302784, Note_on_c, 0, 66, 90
2, 302784, Note_on_c, 0, 81, 92
2, 302824, Note_off_c, 0, 81, 64
2, 302832, Note_on_c, 0, 83, 93
2, 302872, Note_off_c, 0, 83, 64
2, 302876, Note_off_c, 0, 66, 64
2, 302880, Note_on_c, 0, 72, 90
2, 302880, Note_on_c, 0, 81, 92
2, 302920, Note_off_c, 0, 81, 64
2, 302928, Note_on_c, 0, 83, 93
2, 302968, Note_off_c, 0, 83, 64
2, 302972, Note_off_c, 0, 72, 64
2, 302976, Note_on_c, 0, 62, 90
2, 302976, Note_on_c, 0, 81, 92
2, 303016, Note_off_c, 0, 81, 64
2, 303024, Note_on_c, 0, 83, 93
2, 303064, Note_off_c, 0, 83, 64
2, 303068, Note_off_c, 0, 62, 64
2, 303072, Note_on_c, 0, 72, 90
2, 303072, Note_on_c, 0, 81, 92
2, 303112, Note_off_c, 0, 81, 64
2, 303120, Note_on_c, 0, 83, 93
2, 303160, Note_off_c, 0, 83, 64
2, 303164, Note_off_c, 0, 72, 64
2, 303168, Note_on_c, 0, 66, 90
2, 303168, Note_on_c, 0, 81, 92
2, 303208, Note_off_c, 0, 81, 64
2, 303216, Note_on_c, 0, 83, 93
2, 303256, Note_off_c, 0, 83, 64
2, 303260, Note_off_c, 0, 66, 64
2, 303264, Note_on_c, 0, 72, 90
2, 303264, Note_on_c, 0, 81, 92
2, 303304, Note_off_c, 0, 81, 64
2, 303312, Note_on_c, 0, 83, 93
2, 303352, Note_off_c, 0, 83, 64
2, 303356, Note_off_c, 0, 72, 64
2, 303360, Note_on_c, 0, 62, 90
2, 303360, Note_on_c, 0, 81, 92
2, 303400, Note_off_c, 0, 81, 64
2, 303408, Note_on_c, 0, 83, 93
2, 303448, Note_off_c, 0, 83, 64
2, 303452, Note_off_c, 0, 62, 64
2, 303456, Note_on_c, 0, 72, 90
2, 303456, Note_on_c, 0, 81, 92
2, 303496, Note_off_c, 0, 81, 64
2, 303504, Note_on_c, 0, 83, 93
2, 303544, Note_off_c, 0, 83, 64
2, 303548, Note_off_c, 0, 72, 64
2, 303552, Note_on_c, 0, 66, 90
2, 303552, Note_on_c, 0, 81, 92
2, 303592, Note_off_c, 0, 81, 64
2, 303600, Note_on_c, 0, 83, 93
2, 303640, Note_off_c, 0, 83, 64
2, 303644, Note_off_c, 0, 66, 64
2, 303648, Note_on_c, 0, 72, 90
2, 303648, Note_on_c, 0, 81, 92
2, 303688, Note_off_c, 0, 81, 64
2, 303696, Note_on_c, 0, 83, 93
2, 303736, Note_off_c, 0, 83, 64
2, 303740, Note_off_c, 0, 72, 64
2, 303744, Note_on_c, 0, 62, 90
2, 303744, Note_on_c, 0, 81, 92
2, 303784, Note_off_c, 0, 81, 64
2, 303792, Note_on_c, 0, 83, 93
2, 303832, Note_off_c, 0, 83, 64
2, 303836, Note_off_c, 0, 62, 64
2, 303840, Note_on_c, 0, 72, 90
2, 303840, Note_on_c, 0, 81, 92
2, 303880, Note_off_c, 0, 81, 64
2, 303888, Note_on_c, 0, 83, 93
2, 303928, Note_off_c, 0, 83, 64
2, 303932, Note_off_c, 0, 72, 64
2, 303936, Note_on_c, 0, 66, 90
2, 303936, Note_on_c, 0, 79, 91
2, 304028, Note_off_c, 0, 66, 64
2, 304028, Note_off_c, 0, 79, 64
2, 304032, Note_on_c, 0, 72, 90
2, 304032, Note_on_c, 0, 81, 92
2, 304124, Note_off_c, 0, 72, 64
2, 304124, Note_off_c, 0, 81, 64
2, 304128, Note_on_c, 0, 79, 91
2, 304128, Note_on_c, 0, 67, 90
2, 304128, Note_on_c, 0, 71, 90
2, 304508, Note_off_c, 0, 79, 64
2, 304508, Note_off_c, 0, 67, 64
2, 304508, Note_off_c, 0, 71, 64
2, 347808, Note_on_c, 0, 71, 72
2, 347900, Note_off_c, 0, 71, 64
2, 347904, Note_on_c, 0, 83, 68
2, 348284, Note_off_c, 0, 83, 64
2, 348288, Note_on_c, 0, 83, 68
2, 348668, Note_off_c, 0, 83, 64
2, 348672, Note_on_c, 0, 83, 68
2, 349244, Note_off_c, 0, 83, 64
2, 349248, Note_on_c, 0, 81, 67
2, 349304, Note_off_c, 0, 81, 64
2, 349312, Note_on_c, 0, 79, 66
2, 349368, Note_off_c, 0, 79, 64
2, 349376, Note_on_c, 0, 78, 65
2, 349432, Note_off_c, 0, 78, 64
2, 349440, Note_on_c, 0, 76, 64
2, 349820, Note_off_c, 0, 76, 64
2, 350880, Note_on_c, 0, 71, 72
2, 350972, Note_off_c, 0, 71, 64
2, 350976, Note_on_c, 0, 83, 68
2, 351356, Note_off_c, 0, 83, 64
2, 351360, Note_on_c, 0, 83, 68
2, 351740, Note_off_c, 0, 83, 64
2, 351744, Note_on_c, 0, 84, 69
2, 352316, Note_off_c, 0, 84, 64
2, 352320, Note_on_c, 0, 83, 68
2, 352376, Note_off_c, 0, 83, 64
2, 352384, Note_on_c, 0, 81, 67
2, 352440, Note_off_c, 0, 81, 64
2, 352448, Note_on_c, 0, 79, 66
2, 352504, Note_off_c, 0, 79, 64
2, 352512, Note_on_c, 0, 78, 65
2, 352892, Note_off_c, 0, 78, 64
2, 353952, Note_on_c, 0, 72, 72
2, 354044, Note_off_c, 0, 72, 64
2, 354048, Note_on_c, 0, 84, 69
2, 354428, Note_off_c, 0, 84, 64
2, 354432, Note_on_c, 0, 84, 69
2, 354620, Note_off_c, 0, 84, 64
2, 355008, Note_on_c, 0, 82, 68
2, 355196, Note_off_c, 0, 82, 64
2, 355200, Note_on_c, 0, 83, 68
2, 355388, Note_off_c, 0, 83, 64
2, 355392, Note_on_c, 0, 79, 66
2, 355580, Note_off_c, 0, 79, 64
2, 355776, Note_on_c, 0, 80, 66
2, 355964, Note_off_c, 0, 80, 64
2, 355968, Note_on_c, 0, 81, 67
2, 356156, Note_off_c, 0, 81, 64
2, 356160, Note_on_c, 0, 78, 65
2, 356348, Note_off_c, 0, 78, 64
2, 356544, Note_on_c, 0, 78, 65
2, 356732, Note_off_c, 0, 78, 64
2, 356736, Note_on_c, 0, 79, 66
2, 356924, Note_off_c, 0, 79, 64
2, 356928, Note_on_c, 0, 76, 65
2, 357116, Note_off_c, 0, 76, 64
2, 357312, Note_on_c, 0, 77, 65
2, 357500, Note_off_c, 0, 77, 64
2, 357504, Note_on_c, 0, 78, 65
2, 357692, Note_off_c, 0, 78, 64
2, 357696, Note_on_c, 0, 75, 65
2, 357884, Note_off_c, 0, 75, 64
2, 357888, Note_on_c, 0, 76, 65
2, 358076, Note_off_c, 0, 76, 64
2, 358080, Note_on_c, 0, 71, 65
2, 358268, Note_off_c, 0, 71, 64
2, 358272, Note_on_c, 0, 70, 65
2, 358460, Note_off_c, 0, 70, 64
2, 358464, Note_on_c, 0, 71, 65
2, 358652, Note_off_c, 0, 71, 64
2, 358656, Note_on_c, 0, 72, 65
2, 358844, Note_off_c, 0, 72, 64
2, 358848, Note_on_c, 0, 73, 65
2, 359036, Note_off_c, 0, 73, 64
2, 359040, Note_on_c, 0, 74, 65
2, 359228, Note_off_c, 0, 74, 64
2, 359232, Note_on_c, 0, 75, 65
2, 359420, Note_off_c, 0, 75, 64
2, 359424, Note_on_c, 0, 76, 65
2, 359612, Note_off_c, 0, 76, 64
2, 359616, Note_on_c, 0, 77, 65
2, 359804, Note_off_c, 0, 77, 64
2, 359808, Note_on_c, 0, 78, 65
2, 359996, Note_off_c, 0, 78, 64
2, 360000, Note_on_c, 0, 79, 66
2, 360188, Note_off_c, 0, 79, 64
2, 360192, Note_on_c, 0, 80, 66
2, 360448, Note_off_c, 0, 80, 64
2, 360448, Note_on_c, 0, 81, 67
2, 360704, Note_off_c, 0, 81, 64
2, 360704, Note_on_c, 0, 82, 68
2, 360960, Note_off_c, 0, 82, 64
2, 360960, Note_on_c, 0, 82, 83
2, 361052, Note_off_c, 0, 82, 64
2, 361056, Note_on_c, 0, 83, 83
2, 361148, Note_off_c, 0, 83, 64
2, 361152, Note_on_c, 0, 88, 86
2, 361244, Note_off_c, 0, 88, 64
2, 361248, Note_on_c, 0, 83, 83
2, 361340, Note_off_c, 0, 83, 64
2, 361344, Note_on_c, 0, 78, 80
2, 361436, Note_off_c, 0, 78, 64
2, 361440, Note_on_c, 0, 79, 81
2, 361532, Note_off_c, 0, 79, 64
2, 361536, Note_on_c, 0, 83, 83
2, 361628, Note_off_c, 0, 83, 64
2, 361632, Note_on_c, 0, 79, 81
2, 361724, Note_off_c, 0, 79, 64
2, 361728, Note_on_c, 0, 75, 80
2, 361820, Note_off_c, 0, 75, 64
2, 361824, Note_on_c, 0, 76, 80
2, 361916, Note_off_c, 0, 76, 64
2, 361920, Note_on_c, 0, 79, 81
2, 362012, Note_off_c, 0, 79, 64
2, 362016, Note_on_c, 0, 76, 80
2, 362108, Note_off_c, 0, 76, 64
2, 362112, Note_on_c, 0, 70, 80
2, 362204, Note_off_c, 0, 70, 64
2, 362208, Note_on_c, 0, 71, 80
2, 362300, Note_off_c, 0, 71, 64
2, 362304, Note_on_c, 0, 76, 80
2, 362396, Note_off_c, 0, 76, 64
2, 362400, Note_on_c, 0, 71, 80
2, 362492, Note_off_c, 0, 71, 64
2, 362496, Note_on_c, 0, 66, 80
2, 362588, Note_off_c, 0, 66, 64
2, 362592, Note_on_c, 0, 67, 80
2, 362684, Note_off_c, 0, 67, 64
2, 362688, Note_on_c, 0, 71, 80
2, 362780, Note_off_c, 0, 71, 64
2, 362784, Note_on_c, 0, 67, 80
2, 362876, Note_off_c, 0, 67, 64
2, 362880, Note_on_c, 0, 63, 80
2, 362972, Note_off_c, 0, 63, 64
2, 362976, Note_on_c, 0, 64, 80
2, 363068, Note_off_c, 0, 64, 64
2, 363072, Note_on_c, 0, 67, 80
2, 363164, Note_off_c, 0, 67, 64
2, 363168, Note_on_c, 0, 64, 80
2, 363260, Note_off_c, 0, 64, 64
2, 363264, Note_on_c, 0, 58, 80
2, 363356, Note_off_c, 0, 58, 64
2, 363360, Note_on_c, 0, 59, 80
2, 363452, Note_off_c, 0, 59, 64
2, 363456, Note_on_c, 0, 64, 80
2, 363548, Note_off_c, 0, 64, 64
2, 363552, Note_on_c, 0, 59, 80
2, 363644, Note_off_c, 0, 59, 64
2, 363648, Note_on_c, 0, 54, 80
2, 363740, Note_off_c, 0, 54, 64
2, 363744, Note_on_c, 0, 55, 80
2, 363836, Note_off_c, 0, 55, 64
2, 363840, Note_on_c, 0, 59, 80
2, 363932, Note_off_c, 0, 59, 64
2, 363936, Note_on_c, 0, 55, 80
2, 364028, Note_off_c, 0, 55, 64
2, 364032, Note_on_c, 0, 60, 80
2, 364124, Note_off_c, 0, 60, 64
2, 364128, Note_on_c, 0, 57, 80
2, 364220, Note_off_c, 0, 57, 64
2, 364224, Note_on_c, 0, 60, 80
2, 364316, Note_off_c, 0, 60, 64
2, 364320, Note_on_c, 0, 63, 80
2, 364412, Note_off_c, 0, 63, 64
2, 364416, Note_on_c, 0, 66, 80
2, 364508, Note_off_c, 0, 66, 64
2, 364512, Note_on_c, 0, 60, 80
2, 364604, Note_off_c, 0, 60, 64
2, 364608, Note_on_c, 0, 63, 80
2, 364700, Note_off_c, 0, 63, 64
2, 364704, Note_on_c, 0, 66, 80
2, 364796, Note_off_c, 0, 66, 64
2, 364800, Note_on_c, 0, 69, 80
2, 364892, Note_off_c, 0, 69, 64
2, 364896, Note_on_c, 0, 63, 80
2, 364988, Note_off_c, 0, 63, 64
2, 364992, Note_on_c, 0, 66, 80
2, 365084, Note_off_c, 0, 66, 64
2, 365088, Note_on_c, 0, 69, 80
2, 365180, Note_off_c, 0, 69, 64
2, 365184, Note_on_c, 0, 72, 80
2, 365276, Note_off_c, 0, 72, 64
2, 365280, Note_on_c, 0, 66, 80
2, 365372, Note_off_c, 0, 66, 64
2, 365376, Note_on_c, 0, 69, 80
2, 365468, Note_off_c, 0, 69, 64
2, 365472, Note_on_c, 0, 72, 80
2, 365564, Note_off_c, 0, 72, 64
2, 365568, Note_on_c, 0, 75, 80
2, 365660, Note_off_c, 0, 75, 64
2, 365664, Note_on_c, 0, 69, 80
2, 365756, Note_off_c, 0, 69, 64
2, 365760, Note_on_c, 0, 72, 80
2, 365852, Note_off_c, 0, 72, 64
2, 365856, Note_on_c, 0, 75, 80
2, 365948, Note_off_c, 0, 75, 64
2, 365952, Note_on_c, 0, 78, 80
2, 366044, Note_off_c, 0, 78, 64
2, 366048, Note_on_c, 0, 72, 80
2, 366140, Note_off_c, 0, 72, 64
2, 366144, Note_on_c, 0, 75, 80
2, 366236, Note_off_c, 0, 75, 64
2, 366240, Note_on_c, 0, 78, 80
2, 366332, Note_off_c, 0, 78, 64
2, 366336, Note_on_c, 0, 81, 82
2, 366428, Note_off_c, 0, 81, 64
2, 366432, Note_on_c, 0, 75, 80
2, 366524, Note_off_c, 0, 75, 64
2, 366528, Note_on_c, 0, 78, 80
2, 366620, Note_off_c, 0, 78, 64
2, 366624, Note_on_c, 0, 81, 82
2, 366716, Note_off_c, 0, 81, 64
2, 366720, Note_on_c, 0, 84, 84
2, 366812, Note_off_c, 0, 84, 64
2, 366816, Note_on_c, 0, 81, 82
2, 366908, Note_off_c, 0, 81, 64
2, 366912, Note_on_c, 0, 78, 80
2, 367004, Note_off_c, 0, 78, 64
2, 367008, Note_on_c, 0, 75, 80
2, 367100, Note_off_c, 0, 75, 64
2, 367200, Note_on_c, 0, 71, 80
2, 367292, Note_off_c, 0, 71, 64
2, 367296, Note_on_c, 0, 76, 80
2, 367388, Note_off_c, 0, 76, 64
2, 367392, Note_on_c, 0, 79, 81
2, 367484, Note_off_c, 0, 79, 64
2, 367488, Note_on_c, 0, 83, 83
2, 367580, Note_off_c, 0, 83, 64
2, 367584, Note_on_c, 0, 79, 81
2, 367676, Note_off_c, 0, 79, 64
2, 367680, Note_on_c, 0, 76, 80
2, 367772, Note_off_c, 0, 76, 64
2, 367776, Note_on_c, 0, 71, 80
2, 367868, Note_off_c, 0, 71, 64
2, 367968, Note_on_c, 0, 69, 80
2, 368060, Note_off_c, 0, 69, 64
2, 368064, Note_on_c, 0, 72, 80
2, 368156, Note_off_c, 0, 72, 64
2, 368160, Note_on_c, 0, 78, 80
2, 368252, Note_off_c, 0, 78, 64
2, 368256, Note_on_c, 0, 81, 82
2, 368348, Note_off_c, 0, 81, 64
2, 368352, Note_on_c, 0, 78, 80
2, 368444, Note_off_c, 0, 78, 64
2, 368448, Note_on_c, 0, 72, 80
2, 368540, Note_off_c, 0, 72, 64
2, 368544, Note_on_c, 0, 69, 80
2, 368636, Note_off_c, 0, 69, 64
2, 368736, Note_on_c, 0, 67, 80
2, 368828, Note_off_c, 0, 67, 64
2, 368832, Note_on_c, 0, 71, 80
2, 368924, Note_off_c, 0, 71, 64
2, 368928, Note_on_c, 0, 76, 80
2, 369020, Note_off_c, 0, 76, 64
2, 369024, Note_on_c, 0, 79, 81
2, 369116, Note_off_c, 0, 79, 64
2, 369120, Note_on_c, 0, 76, 80
2, 369212, Note_off_c, 0, 76, 64
2, 369216, Note_on_c, 0, 71, 80
2, 369308, Note_off_c, 0, 71, 64
2, 369312, Note_on_c, 0, 67, 80
2, 369404, Note_off_c, 0, 67, 64
2, 369504, Note_on_c, 0, 66, 80
2, 369596, Note_off_c, 0, 66, 64
2, 369600, Note_on_c, 0, 69, 80
2, 369692, Note_off_c, 0, 69, 64
2, 369696, Note_on_c, 0, 75, 80
2, 369788, Note_off_c, 0, 75, 64
2, 369792, Note_on_c, 0, 78, 80
2, 369884, Note_off_c, 0, 78, 64
2, 369888, Note_on_c, 0, 75, 80
2, 369980, Note_off_c, 0, 75, 64
2, 369984, Note_on_c, 0, 69, 80
2, 370076, Note_off_c, 0, 69, 64
2, 370080, Note_on_c, 0, 66, 80
2, 370172, Note_off_c, 0, 66, 64
2, 370176, Note_on_c, 0, 68, 90
2, 370268, Note_off_c, 0, 68, 64
2, 370272, Note_on_c, 0, 71, 90
2, 370364, Note_off_c, 0, 71, 64
2, 370368, Note_on_c, 0, 74, 90
2, 370460, Note_off_c, 0, 74, 64
2, 370464, Note_on_c, 0, 80, 91
2, 370556, Note_off_c, 0, 80, 64
2, 370560, Note_on_c, 0, 68, 90
2, 370652, Note_off_c, 0, 68, 64
2, 370656, Note_on_c, 0, 80, 91
2, 370748, Note_off_c, 0, 80, 64
2, 370752, Note_on_c, 0, 69, 90
2, 370844, Note_off_c, 0, 69, 64
2, 370848, Note_on_c, 0, 81, 92
2, 370940, Note_off_c, 0, 81, 64
2, 370944, Note_on_c, 0, 71, 90
2, 371036, Note_off_c, 0, 71, 64
2, 371040, Note_on_c, 0, 83, 93
2, 371132, Note_off_c, 0, 83, 64
2, 371136, Note_on_c, 0, 72, 90
2, 371228, Note_off_c, 0, 72, 64
2, 371232, Note_on_c, 0, 84, 94
2, 371324, Note_off_c, 0, 84, 64
2, 371328, Note_on_c, 0, 74, 90
2, 371420, Note_off_c, 0, 74, 64
2, 371424, Note_on_c, 0, 86, 95
2, 371516, Note_off_c, 0, 86, 64
2, 371520, Note_on_c, 0, 71, 90
2, 371612, Note_off_c, 0, 71, 64
2, 371616, Note_on_c, 0, 83, 93
2, 371708, Note_off_c, 0, 83, 64
2, 371712, Note_on_c, 0, 68, 90
2, 371804, Note_off_c, 0, 68, 64
2, 371808, Note_on_c, 0, 71, 90
2, 371900, Note_off_c, 0, 71, 64
2, 371904, Note_on_c, 0, 74, 90
2, 371996, Note_off_c, 0, 74, 64
2, 372000, Note_on_c, 0, 80, 91
2, 372092, Note_off_c, 0, 80, 64
2, 372096, Note_on_c, 0, 68, 90
2, 372188, Note_off_c, 0, 68, 64
2, 372192, Note_on_c, 0, 80, 91
2, 372284, Note_off_c, 0, 80, 64
2, 372288, Note_on_c, 0, 69, 90
2, 372380, Note_off_c, 0, 69, 64
2, 372384, Note_on_c, 0, 81, 92
2, 372476, Note_off_c, 0, 81, 64
2, 372480, Note_on_c, 0, 71, 90
2, 372572, Note_off_c, 0, 71, 64
2, 372576, Note_on_c, 0, 83, 93
2, 372668, Note_off_c, 0, 83, 64
2, 372672, Note_on_c, 0, 72, 90
2, 372764, Note_off_c, 0, 72, 64
2, 372768, Note_on_c, 0, 84, 94
2, 372860, Note_off_c, 0, 84, 64
2, 372864, Note_on_c, 0, 74, 90
2, 372956, Note_off_c, 0, 74, 64
2, 372960, Note_on_c, 0, 86, 95
2, 373052, Note_off_c, 0, 86, 64
2, 373056, Note_on_c, 0, 71, 90
2, 373148, Note_off_c, 0, 71, 64
2, 373152, Note_on_c, 0, 83, 93
2, 373244, Note_off_c, 0, 83, 64
2, 373248, Note_on_c, 0, 80, 92
2, 373248, Note_on_c, 0, 74, 90
2, 373248, Note_on_c, 0, 71, 90
2, 373628, Note_off_c, 0, 80, 64
2, 373628, Note_off_c, 0, 74, 64
2, 373628, Note_off_c, 0, 71, 64
2, 374016, Note_on_c, 0, 83, 93
2, 374016, Note_on_c, 0, 80, 92
2, 374016, Note_on_c, 0, 74, 90
2, 374396, Note_off_c, 0, 83, 64
2, 374396, Note_off_c, 0, 80, 64
2, 374396, Note_off_c, 0, 74, 64
2, 374784, Note_on_c, 0, 86, 95
2, 374784, Note_on_c, 0, 83, 93
2, 374784, Note_on_c, 0, 80, 92
2, 375164, Note_off_c, 0, 86, 64
2, 375164, Note_off_c, 0, 83, 64
2, 375164, Note_off_c, 0, 80, 64
2, 376320, Note_on_c, 0, 61, 90
2, 376412, Note_off_c, 0, 61, 64
2, 376416, Note_on_c, 0, 64, 90
2, 376508, Note_off_c, 0, 64, 64
2, 376512, Note_on_c, 0, 67, 90
2, 376604, Note_off_c, 0, 67, 64
2, 376608, Note_on_c, 0, 73, 90
2, 376700, Note_off_c, 0, 73, 64
2, 376704, Note_on_c, 0, 61, 90
2, 376796, Note_off_c, 0, 61, 64
2, 376800, Note_on_c, 0, 73, 90
2, 376892, Note_off_c, 0, 73, 64
2, 376896, Note_on_c, 0, 62, 90
2, 376988, Note_off_c, 0, 62, 64
2, 376992, Note_on_c, 0, 74, 90
2, 377084, Note_off_c, 0, 74, 64
2, 377088, Note_on_c, 0, 64, 90
2, 377180, Note_off_c, 0, 64, 64
2, 377184, Note_on_c, 0, 76, 90
2, 377276, Note_off_c, 0, 76, 64
2, 377280, Note_on_c, 0, 65, 90
2, 377372, Note_off_c, 0, 65, 64
2, 377376, Note_on_c, 0, 77, 90
2, 377468, Note_off_c, 0, 77, 64
2, 377472, Note_on_c, 0, 67, 90
2, 377564, Note_off_c, 0, 67, 64
2, 377568, Note_on_c, 0, 79, 91
2, 377660, Note_off_c, 0, 79, 64
2, 377664, Note_on_c, 0, 64, 90
2, 377756, Note_off_c, 0, 64, 64
2, 377760, Note_on_c, 0, 76, 90
2, 377852, Note_off_c, 0, 76, 64
2, 377856, Note_on_c, 0, 61, 90
2, 377948, Note_off_c, 0, 61, 64
2, 377952, Note_on_c, 0, 64, 90
2, 378044, Note_off_c, 0, 64, 64
2, 378048, Note_on_c, 0, 67, 90
2, 378140, Note_off_c, 0, 67, 64
2, 378144, Note_on_c, 0, 73, 90
2, 378236, Note_off_c, 0, 73, 64
2, 378240, Note_on_c, 0, 61, 90
2, 378332, Note_off_c, 0, 61, 64
2, 378336, Note_on_c, 0, 73, 90
2, 378428, Note_off_c, 0, 73, 64
2, 378432, Note_on_c, 0, 62, 90
2, 378524, Note_off_c, 0, 62, 64
2, 378528, Note_on_c, 0, 74, 90
2, 378620, Note_off_c, 0, 74, 64
2, 378624, Note_on_c, 0, 64, 90
2, 378716, Note_off_c, 0, 64, 64
2, 378720, Note_on_c, 0, 76, 90
2, 378812, Note_off_c, 0, 76, 64
2, 378816, Note_on_c, 0, 65, 90
2, 378908, Note_off_c, 0, 65, 64
2, 378912, Note_on_c, 0, 77, 90
2, 379004, Note_off_c, 0, 77, 64
2, 379008, Note_on_c, 0, 67, 90
2, 379100, Note_off_c, 0, 67, 64
2, 379104, Note_on_c, 0, 79, 91
2, 379196, Note_off_c, 0, 79, 64
2, 379200, Note_on_c, 0, 64, 90
2, 379292, Note_off_c, 0, 64, 64
2, 379296, Note_on_c, 0, 76, 90
2, 379388, Note_off_c, 0, 76, 64
2, 379392, Note_on_c, 0, 73, 90
2, 379488, Note_on_c, 0, 68, 90
2, 379580, Note_off_c, 0, 68, 64
2, 379680, Note_on_c, 0, 69, 90
2, 379772, Note_off_c, 0, 73, 64
2, 379772, Note_off_c, 0, 69, 64
2, 379872, Note_on_c, 0, 70, 90
2, 379964, Note_off_c, 0, 70, 64
2, 380064, Note_on_c, 0, 69, 90
2, 380156, Note_off_c, 0, 69, 64
2, 380256, Note_on_c, 0, 68, 90
2, 380348, Note_off_c, 0, 68, 64
2, 380448, Note_on_c, 0, 69, 90
2, 380540, Note_off_c, 0, 69, 64
2, 380640, Note_on_c, 0, 67, 90
2, 380732, Note_off_c, 0, 67, 64
2, 380928, Note_on_c, 0, 79, 91
2, 380928, Note_on_c, 0, 76, 90
2, 380928, Note_on_c, 0, 73, 90
2, 381308, Note_off_c, 0, 79, 64
2, 381308, Note_off_c, 0, 76, 64
2, 381308, Note_off_c, 0, 73, 64
2, 382464, Note_on_c, 0, 66, 90
2, 382556, Note_off_c, 0, 66, 64
2, 382560, Note_on_c, 0, 69, 90
2, 382652, Note_off_c, 0, 69, 64
2, 382656, Note_on_c, 0, 72, 90
2, 382748, Note_off_c, 0, 72, 64
2, 382752, Note_on_c, 0, 78, 90
2, 382844, Note_off_c, 0, 78, 64
2, 382848, Note_on_c, 0, 66, 90
2, 382940, Note_off_c, 0, 66, 64
2, 382944, Note_on_c, 0, 78, 90
2, 383036, Note_off_c, 0, 78, 64
2, 383040, Note_on_c, 0, 67, 90
2, 383132, Note_off_c, 0, 67, 64
2, 383136, Note_on_c, 0, 79, 91
2, 383228, Note_off_c, 0, 79, 64
2, 383232, Note_on_c, 0, 69, 90
2, 383312, Note_on_c, 0, 81, 92
2, 383324, Note_off_c, 0, 69, 64
2, 383404, Note_off_c, 0, 81, 64
2, 383424, Note_on_c, 0, 70, 90
2, 383516, Note_off_c, 0, 70, 64
2, 383520, Note_on_c, 0, 82, 93
2, 383612, Note_off_c, 0, 82, 64
2, 383616, Note_on_c, 0, 72, 90
2, 383708, Note_off_c, 0, 72, 64
2, 383712, Note_on_c, 0, 84, 94
2, 383804, Note_off_c, 0, 84, 64
2, 383808, Note_on_c, 0, 69, 90
2, 383900, Note_off_c, 0, 69, 64
2, 383904, Note_on_c, 0, 81, 92
2, 383996, Note_off_c, 0, 81, 64
2, 384000, Note_on_c, 0, 66, 90
2, 384092, Note_off_c, 0, 66, 64
2, 384096, Note_on_c, 0, 69, 90
2, 384188, Note_off_c, 0, 69, 64
2, 384192, Note_on_c, 0, 72, 90
2, 384284, Note_off_c, 0, 72, 64
2, 384288, Note_on_c, 0, 78, 90
2, 384380, Note_off_c, 0, 78, 64
2, 384384, Note_on_c, 0, 66, 90
2, 384476, Note_off_c, 0, 66, 64
2, 384480, Note_on_c, 0, 78, 90
2, 384572, Note_off_c, 0, 78, 64
2, 384576, Note_on_c, 0, 67, 90
2, 384668, Note_off_c, 0, 67, 64
2, 384672, Note_on_c, 0, 79, 91
2, 384764, Note_off_c, 0, 79, 64
2, 384768, Note_on_c, 0, 69, 90
2, 384860, Note_off_c, 0, 69, 64
2, 384864, Note_on_c, 0, 81, 92
2, 384956, Note_off_c, 0, 81, 64
2, 384960, Note_on_c, 0, 70, 90
2, 385052, Note_off_c, 0, 70, 64
2, 385056, Note_on_c, 0, 82, 93
2, 385148, Note_off_c, 0, 82, 64
2, 385152, Note_on_c, 0, 72, 90
2, 385244, Note_off_c, 0, 72, 64
2, 385248, Note_on_c, 0, 84, 94
2, 385340, Note_off_c, 0, 84, 64
2, 385344, Note_on_c, 0, 69, 90
2, 385436, Note_off_c, 0, 69, 64
2, 385440, Note_on_c, 0, 81, 92
2, 385532, Note_off_c, 0, 81, 64
2, 385536, Note_on_c, 0, 78, 90
2, 385536, Note_on_c, 0, 72, 90
2, 385536, Note_on_c, 0, 69, 90
2, 385916, Note_off_c, 0, 78, 64
2, 385916, Note_off_c, 0, 72, 64
2, 385916, Note_off_c, 0, 69, 64
2, 386304, Note_on_c, 0, 81, 92
2, 386304, Note_on_c, 0, 78, 90
2, 386304, Note_on_c, 0, 72, 90
2, 386684, Note_off_c, 0, 81, 64
2, 386684, Note_off_c, 0, 78, 64
2, 386684, Note_off_c, 0, 72, 64
2, 387072, Note_on_c, 0, 84, 94
2, 387072, Note_on_c, 0, 81, 92
2, 387072, Note_on_c, 0, 78, 90
2, 387452, Note_off_c, 0, 84, 64
2, 387452, Note_off_c, 0, 81, 64
2, 387452, Note_off_c, 0, 78, 64
2, 388608, Note_on_c, 0, 59, 90
2, 388700, Note_off_c, 0, 59, 64
2, 388704, Note_on_c, 0, 62, 90
2, 388796, Note_off_c, 0, 62, 64
2, 388800, Note_on_c, 0, 65, 90
2, 388892, Note_off_c, 0, 65, 64
2, 388896, Note_on_c, 0, 71, 90
2, 388988, Note_off_c, 0, 71, 64
2, 388992, Note_on_c, 0, 59, 90
2, 389084, Note_off_c, 0, 59, 64
2, 389088, Note_on_c, 0, 71, 90
2, 389180, Note_off_c, 0, 71, 64
2, 389184, Note_on_c, 0, 60, 90
2, 389276, Note_off_c, 0, 60, 64
2, 389280, Note_on_c, 0, 72, 90
2, 389372, Note_off_c, 0, 72, 64
2, 389376, Note_on_c, 0, 62, 90
2, 389468, Note_off_c, 0, 62, 64
2, 389472, Note_on_c, 0, 74, 90
2, 389564, Note_off_c, 0, 74, 64
2, 389568, Note_on_c, 0, 63, 90
2, 389660, Note_off_c, 0, 63, 64
2, 389664, Note_on_c, 0, 75, 90
2, 389756, Note_off_c, 0, 75, 64
2, 389760, Note_on_c, 0, 65, 90
2, 389852, Note_off_c, 0, 65, 64
2, 389856, Note_on_c, 0, 77, 90
2, 389948, Note_off_c, 0, 77, 64
2, 389952, Note_on_c, 0, 62, 90
2, 390044, Note_off_c, 0, 62, 64
2, 390048, Note_on_c, 0, 74, 90
2, 390140, Note_off_c, 0, 74, 64
2, 390144, Note_on_c, 0, 59, 90
2, 390236, Note_off_c, 0, 59, 64
2, 390240, Note_on_c, 0, 62, 90
2, 390332, Note_off_c, 0, 62, 64
2, 390336, Note_on_c, 0, 65, 90
2, 390428, Note_off_c, 0, 65, 64
2, 390432, Note_on_c, 0, 71, 90
2, 390524, Note_off_c, 0, 71, 64
2, 390528, Note_on_c, 0, 59, 90
2, 390620, Note_off_c, 0, 59, 64
2, 390624, Note_on_c, 0, 71, 90
2, 390716, Note_off_c, 0, 71, 64
2, 390720, Note_on_c, 0, 60, 90
2, 390812, Note_off_c, 0, 60, 64
2, 390816, Note_on_c, 0, 72, 90
2, 390908, Note_off_c, 0, 72, 64
2, 390912, Note_on_c, 0, 62, 90
2, 391004, Note_off_c, 0, 62, 64
2, 391008, Note_on_c, 0, 74, 90
2, 391100, Note_off_c, 0, 74, 64
2, 391104, Note_on_c, 0, 63, 90
2, 391196, Note_off_c, 0, 63, 64
2, 391200, Note_on_c, 0, 75, 90
2, 391292, Note_off_c, 0, 75, 64
2, 391296, Note_on_c, 0, 65, 90
2, 391388, Note_off_c, 0, 65, 64
2, 391392, Note_on_c, 0, 77, 90
2, 391484, Note_off_c, 0, 77, 64
2, 391488, Note_on_c, 0, 62, 90
2, 391580, Note_off_c, 0, 62, 64
2, 391584, Note_on_c, 0, 74, 90
2, 391676, Note_off_c, 0, 74, 64
2, 391680, Note_on_c, 0, 64, 90
2, 391772, Note_off_c, 0, 64, 64
2, 391776, Note_on_c, 0, 67, 90
2, 391868, Note_off_c, 0, 67, 64
2, 391872, Note_on_c, 0, 70, 90
2, 391964, Note_off_c, 0, 70, 64
2, 391968, Note_on_c, 0, 76, 90
2, 392060, Note_off_c, 0, 76, 64
2, 392064, Note_on_c, 0, 64, 90
2, 392156, Note_off_c, 0, 64, 64
2, 392160, Note_on_c, 0, 76, 90
2, 392252, Note_off_c, 0, 76, 64
2, 392256, Note_on_c, 0, 65, 90
2, 392348, Note_off_c, 0, 65, 64
2, 392352, Note_on_c, 0, 77, 90
2, 392444, Note_off_c, 0, 77, 64
2, 392448, Note_on_c, 0, 67, 90
2, 392540, Note_off_c, 0, 67, 64
2, 392544, Note_on_c, 0, 79, 91
2, 392636, Note_off_c, 0, 79, 64
2, 392640, Note_on_c, 0, 68, 90
2, 392732, Note_off_c, 0, 68, 64
2, 392736, Note_on_c, 0, 80, 92
2, 392828, Note_off_c, 0, 80, 64
2, 392832, Note_on_c, 0, 70, 90
2, 392924, Note_off_c, 0, 70, 64
2, 392928, Note_on_c, 0, 82, 93
2, 393020, Note_off_c, 0, 82, 64
2, 393024, Note_on_c, 0, 67, 90
2, 393116, Note_off_c, 0, 67, 64
2, 393120, Note_on_c, 0, 79, 91
2, 393212, Note_off_c, 0, 79, 64
2, 393216, Note_on_c, 0, 64, 90
2, 393308, Note_off_c, 0, 64, 64
2, 393312, Note_on_c, 0, 67, 90
2, 393404, Note_off_c, 0, 67, 64
2, 393408, Note_on_c, 0, 70, 90
2, 393500, Note_off_c, 0, 70, 64
2, 393504, Note_on_c, 0, 76, 90
2, 393596, Note_off_c, 0, 76, 64
2, 393600, Note_on_c, 0, 64, 90
2, 393692, Note_off_c, 0, 64, 64
2, 393696, Note_on_c, 0, 76, 90
2, 393788, Note_off_c, 0, 76, 64
2, 393792, Note_on_c, 0, 65, 90
2, 393884, Note_off_c, 0, 65, 64
2, 393888, Note_on_c, 0, 77, 90
2, 393980, Note_off_c, 0, 77, 64
2, 393984, Note_on_c, 0, 67, 90
2, 394076, Note_off_c, 0, 67, 64
2, 394080, Note_on_c, 0, 79, 91
2, 394172, Note_off_c, 0, 79, 64
2, 394176, Note_on_c, 0, 68, 90
2, 394268, Note_off_c, 0, 68, 64
2, 394272, Note_on_c, 0, 80, 92
2, 394364, Note_off_c, 0, 80, 64
2, 394368, Note_on_c, 0, 70, 90
2, 394460, Note_off_c, 0, 70, 64
2, 394464, Note_on_c, 0, 82, 93
2, 394556, Note_off_c, 0, 82, 64
2, 394560, Note_on_c, 0, 67, 90
2, 394652, Note_off_c, 0, 67, 64
2, 394656, Note_on_c, 0, 79, 91
2, 394748, Note_off_c, 0, 79, 64
2, 394848, Note_on_c, 0, 80, 82
2, 394940, Note_off_c, 0, 80, 64
2, 394944, Note_on_c, 0, 79, 81
2, 395036, Note_off_c, 0, 79, 64
2, 395040, Note_on_c, 0, 80, 82
2, 395132, Note_off_c, 0, 80, 64
2, 395136, Note_on_c, 0, 82, 83
2, 395228, Note_off_c, 0, 82, 64
2, 395232, Note_on_c, 0, 80, 82
2, 395324, Note_off_c, 0, 80, 64
2, 395328, Note_on_c, 0, 79, 81
2, 395420, Note_off_c, 0, 79, 64
2, 395424, Note_on_c, 0, 80, 82
2, 395516, Note_off_c, 0, 80, 64
2, 395520, Note_on_c, 0, 77, 80
2, 395612, Note_off_c, 0, 77, 64
2, 395616, Note_on_c, 0, 80, 82
2, 395708, Note_off_c, 0, 80, 64
2, 395712, Note_on_c, 0, 79, 81
2, 395804, Note_off_c, 0, 79, 64
2, 395808, Note_on_c, 0, 80, 82
2, 395900, Note_off_c, 0, 80, 64
2, 395904, Note_on_c, 0, 75, 80
2, 395996, Note_off_c, 0, 75, 64
2, 396000, Note_on_c, 0, 80, 82
2, 396092, Note_off_c, 0, 80, 64
2, 396096, Note_on_c, 0, 79, 81
2, 396188, Note_off_c, 0, 79, 64
2, 396192, Note_on_c, 0, 80, 81
2, 396284, Note_off_c, 0, 80, 64
2, 396288, Note_on_c, 0, 74, 80
2, 396380, Note_off_c, 0, 74, 64
2, 396384, Note_on_c, 0, 80, 82
2, 396476, Note_off_c, 0, 80, 64
2, 396480, Note_on_c, 0, 79, 81
2, 396572, Note_off_c, 0, 79, 64
2, 396576, Note_on_c, 0, 80, 81
2, 396668, Note_off_c, 0, 80, 64
2, 396672, Note_on_c, 0, 89, 87
2, 396764, Note_off_c, 0, 89, 64
2, 396768, Note_on_c, 0, 80, 81
2, 396860, Note_off_c, 0, 80, 64
2, 396864, Note_on_c, 0, 87, 86
2, 396956, Note_off_c, 0, 87, 64
2, 396960, Note_on_c, 0, 80, 81
2, 397052, Note_off_c, 0, 80, 64
2, 397056, Note_on_c, 0, 86, 85
2, 397148, Note_off_c, 0, 86, 64
2, 397152, Note_on_c, 0, 80, 81
2, 397244, Note_off_c, 0, 80, 64
2, 397248, Note_on_c, 0, 84, 84
2, 397340, Note_off_c, 0, 84, 64
2, 397344, Note_on_c, 0, 80, 81
2, 397436, Note_off_c, 0, 80, 64
2, 397440, Note_on_c, 0, 82, 83
2, 397532, Note_off_c, 0, 82, 64
2, 397536, Note_on_c, 0, 77, 80
2, 397628, Note_off_c, 0, 77, 64
2, 397632, Note_on_c, 0, 80, 81
2, 397724, Note_off_c, 0, 80, 64
2, 397728, Note_on_c, 0, 77, 80
2, 397820, Note_off_c, 0, 77, 64
2, 397920, Note_on_c, 0, 79, 81
2, 398012, Note_off_c, 0, 79, 64
2, 398016, Note_on_c, 0, 77, 80
2, 398108, Note_off_c, 0, 77, 64
2, 398112, Note_on_c, 0, 79, 81
2, 398204, Note_off_c, 0, 79, 64
2, 398208, Note_on_c, 0, 80, 82
2, 398300, Note_off_c, 0, 80, 64
2, 398304, Note_on_c, 0, 79, 81
2, 398396, Note_off_c, 0, 79, 64
2, 398400, Note_on_c, 0, 77, 80
2, 398492, Note_off_c, 0, 77, 64
2, 398496, Note_on_c, 0, 79, 81
2, 398588, Note_off_c, 0, 79, 64
2, 398592, Note_on_c, 0, 75, 80
2, 398684, Note_off_c, 0, 75, 64
2, 398688, Note_on_c, 0, 79, 81
2, 398780, Note_off_c, 0, 79, 64
2, 398784, Note_on_c, 0, 77, 80
2, 398876, Note_off_c, 0, 77, 64
2, 398880, Note_on_c, 0, 79, 81
2, 398972, Note_off_c, 0, 79, 64
2, 398976, Note_on_c, 0, 74, 80
2, 399068, Note_off_c, 0, 74, 64
2, 399072, Note_on_c, 0, 79, 81
2, 399164, Note_off_c, 0, 79, 64
2, 399168, Note_on_c, 0, 77, 80
2, 399260, Note_off_c, 0, 77, 64
2, 399264, Note_on_c, 0, 79, 81
2, 399356, Note_off_c, 0, 79, 64
2, 399360, Note_on_c, 0, 72, 80
2, 399452, Note_off_c, 0, 72, 64
2, 399456, Note_on_c, 0, 79, 81
2, 399548, Note_off_c, 0, 79, 64
2, 399552, Note_on_c, 0, 77, 80
2, 399644, Note_off_c, 0, 77, 64
2, 399648, Note_on_c, 0, 79, 81
2, 399740, Note_off_c, 0, 79, 64
2, 399744, Note_on_c, 0, 87, 86
2, 399836, Note_off_c, 0, 87, 64
2, 399840, Note_on_c, 0, 79, 81
2, 399932, Note_off_c, 0, 79, 64
2, 399936, Note_on_c, 0, 86, 85
2, 400028, Note_off_c, 0, 86, 64
2, 400032, Note_on_c, 0, 79, 81
2, 400124, Note_off_c, 0, 79, 64
2, 400128, Note_on_c, 0, 84, 84
2, 400220, Note_off_c, 0, 84, 64
2, 400224, Note_on_c, 0, 79, 81
2, 400316, Note_off_c, 0, 79, 64
2, 400320, Note_on_c, 0, 82, 83
2, 400412, Note_off_c, 0, 82, 64
2, 400416, Note_on_c, 0, 79, 81
2, 400508, Note_off_c, 0, 79, 64
2, 400512, Note_on_c, 0, 80, 82
2, 400604, Note_off_c, 0, 80, 64
2, 400608, Note_on_c, 0, 75, 80
2, 400700, Note_off_c, 0, 75, 64
2, 400704, Note_on_c, 0, 79, 81
2, 400796, Note_off_c, 0, 79, 64
2, 400800, Note_on_c, 0, 75, 80
2, 400892, Note_off_c, 0, 75, 64
2, 400992, Note_on_c, 0, 77, 80
2, 401084, Note_off_c, 0, 77, 64
2, 401088, Note_on_c, 0, 75, 80
2, 401180, Note_off_c, 0, 75, 64
2, 401184, Note_on_c, 0, 77, 80
2, 401276, Note_off_c, 0, 77, 64
2, 401280, Note_on_c, 0, 79, 81
2, 401372, Note_off_c, 0, 79, 64
2, 401376, Note_on_c, 0, 77, 80
2, 401468, Note_off_c, 0, 77, 64
2, 401472, Note_on_c, 0, 75, 80
2, 401564, Note_off_c, 0, 75, 64
2, 401568, Note_on_c, 0, 77, 80
2, 401660, Note_off_c, 0, 77, 64
2, 401664, Note_on_c, 0, 74, 80
2, 401756, Note_off_c, 0, 74, 64
2, 401760, Note_on_c, 0, 77, 80
2, 401852, Note_off_c, 0, 77, 64
2, 401856, Note_on_c, 0, 75, 80
2, 401948, Note_off_c, 0, 75, 64
2, 401952, Note_on_c, 0, 77, 80
2, 402044, Note_off_c, 0, 77, 64
2, 402048, Note_on_c, 0, 72, 80
2, 402140, Note_off_c, 0, 72, 64
2, 402144, Note_on_c, 0, 77, 80
2, 402236, Note_off_c, 0, 77, 64
2, 402240, Note_on_c, 0, 75, 80
2, 402332, Note_off_c, 0, 75, 64
2, 402336, Note_on_c, 0, 77, 80
2, 402428, Note_off_c, 0, 77, 64
2, 402432, Note_on_c, 0, 71, 80
2, 402524, Note_off_c, 0, 71, 64
2, 402528, Note_on_c, 0, 77, 80
2, 402620, Note_off_c, 0, 77, 64
2, 402624, Note_on_c, 0, 75, 80
2, 402716, Note_off_c, 0, 75, 64
2, 402720, Note_on_c, 0, 77, 80
2, 402812, Note_off_c, 0, 77, 64
2, 402816, Note_on_c, 0, 86, 85
2, 402908, Note_off_c, 0, 86, 64
2, 402912, Note_on_c, 0, 77, 80
2, 403004, Note_off_c, 0, 77, 64
2, 403008, Note_on_c, 0, 84, 84
2, 403100, Note_off_c, 0, 84, 64
2, 403104, Note_on_c, 0, 77, 80
2, 403196, Note_off_c, 0, 77, 64
2, 403200, Note_on_c, 0, 83, 83
2, 403292, Note_off_c, 0, 83, 64
2, 403296, Note_on_c, 0, 77, 80
2, 403388, Note_off_c, 0, 77, 64
2, 403392, Note_on_c, 0, 80, 82
2, 403484, Note_off_c, 0, 80, 64
2, 403488, Note_on_c, 0, 77, 80
2, 403580, Note_off_c, 0, 77, 64
2, 403584, Note_on_c, 0, 79, 81
2, 403676, Note_off_c, 0, 79, 64
2, 403680, Note_on_c, 0, 74, 80
2, 403772, Note_off_c, 0, 74, 64
2, 403776, Note_on_c, 0, 77, 80
2, 403868, Note_off_c, 0, 77, 64
2, 403872, Note_on_c, 0, 74, 80
2, 403964, Note_off_c, 0, 74, 64
2, 403968, Note_on_c, 0, 75, 80
2, 404060, Note_off_c, 0, 75, 64
2, 404064, Note_on_c, 0, 72, 80
2, 404156, Note_off_c, 0, 72, 64
2, 404160, Note_on_c, 0, 71, 80
2, 404252, Note_off_c, 0, 71, 64
2, 404256, Note_on_c, 0, 72, 80
2, 404348, Note_off_c, 0, 72, 64
2, 404352, Note_on_c, 0, 74, 80
2, 404444, Note_off_c, 0, 74, 64
2, 404448, Note_on_c, 0, 72, 80
2, 404540, Note_off_c, 0, 72, 64
2, 404544, Note_on_c, 0, 75, 80
2, 404636, Note_off_c, 0, 75, 64
2, 404640, Note_on_c, 0, 72, 80
2, 404732, Note_off_c, 0, 72, 64
2, 404736, Note_on_c, 0, 76, 80
2, 404828, Note_off_c, 0, 76, 64
2, 404832, Note_on_c, 0, 72, 80
2, 404924, Note_off_c, 0, 72, 64
2, 404928, Note_on_c, 0, 71, 80
2, 405020, Note_off_c, 0, 71, 64
2, 405024, Note_on_c, 0, 72, 80
2, 405116, Note_off_c, 0, 72, 64
2, 405120, Note_on_c, 0, 74, 80
2, 405212, Note_off_c, 0, 74, 64
2, 405216, Note_on_c, 0, 72, 80
2, 405308, Note_off_c, 0, 72, 64
2, 405312, Note_on_c, 0, 76, 80
2, 405404, Note_off_c, 0, 76, 64
2, 405408, Note_on_c, 0, 72, 80
2, 405500, Note_off_c, 0, 72, 64
2, 405504, Note_on_c, 0, 77, 80
2, 405596, Note_off_c, 0, 77, 64
2, 405600, Note_on_c, 0, 72, 80
2, 405692, Note_off_c, 0, 72, 64
2, 405696, Note_on_c, 0, 71, 80
2, 405788, Note_off_c, 0, 71, 64
2, 405792, Note_on_c, 0, 72, 80
2, 405884, Note_off_c, 0, 72, 64
2, 405888, Note_on_c, 0, 76, 80
2, 405980, Note_off_c, 0, 76, 64
2, 405984, Note_on_c, 0, 72, 80
2, 406076, Note_off_c, 0, 72, 64
2, 406080, Note_on_c, 0, 77, 80
2, 406172, Note_off_c, 0, 77, 64
2, 406176, Note_on_c, 0, 72, 80
2, 406268, Note_off_c, 0, 72, 64
2, 406272, Note_on_c, 0, 79, 81
2, 406364, Note_off_c, 0, 79, 64
2, 406368, Note_on_c, 0, 72, 80
2, 406460, Note_off_c, 0, 72, 64
2, 406464, Note_on_c, 0, 71, 80
2, 406556, Note_off_c, 0, 71, 64
2, 406560, Note_on_c, 0, 72, 80
2, 406652, Note_off_c, 0, 72, 64
2, 406656, Note_on_c, 0, 77, 80
2, 406748, Note_off_c, 0, 77, 64
2, 406752, Note_on_c, 0, 72, 80
2, 406844, Note_off_c, 0, 72, 64
2, 406848, Note_on_c, 0, 79, 81
2, 406940, Note_off_c, 0, 79, 64
2, 406944, Note_on_c, 0, 72, 80
2, 407036, Note_off_c, 0, 72, 64
2, 407040, Note_on_c, 0, 80, 82
2, 407132, Note_off_c, 0, 80, 64
2, 407136, Note_on_c, 0, 72, 80
2, 407228, Note_off_c, 0, 72, 64
2, 407232, Note_on_c, 0, 71, 80
2, 407324, Note_off_c, 0, 71, 64
2, 407328, Note_on_c, 0, 72, 80
2, 407420, Note_off_c, 0, 72, 64
2, 407424, Note_on_c, 0, 79, 81
2, 407516, Note_off_c, 0, 79, 64
2, 407520, Note_on_c, 0, 72, 80
2, 407612, Note_off_c, 0, 72, 64
2, 407616, Note_on_c, 0, 80, 81
2, 407708, Note_off_c, 0, 80, 64
2, 407712, Note_on_c, 0, 72, 80
2, 407804, Note_off_c, 0, 72, 64
2, 407808, Note_on_c, 0, 81, 82
2, 407900, Note_off_c, 0, 81, 64
2, 407904, Note_on_c, 0, 72, 80
2, 407996, Note_off_c, 0, 72, 64
2, 408000, Note_on_c, 0, 71, 80
2, 408092, Note_off_c, 0, 71, 64
2, 408096, Note_on_c, 0, 72, 80
2, 408188, Note_off_c, 0, 72, 64
2, 408192, Note_on_c, 0, 79, 81
2, 408284, Note_off_c, 0, 79, 64
2, 408288, Note_on_c, 0, 72, 80
2, 408380, Note_off_c, 0, 72, 64
2, 408384, Note_on_c, 0, 81, 82
2, 408476, Note_off_c, 0, 81, 64
2, 408480, Note_on_c, 0, 72, 80
2, 408572, Note_off_c, 0, 72, 64
2, 408576, Note_on_c, 0, 82, 83
2, 408668, Note_off_c, 0, 82, 64
2, 408672, Note_on_c, 0, 72, 80
2, 408764, Note_off_c, 0, 72, 64
2, 408768, Note_on_c, 0, 71, 80
2, 408860, Note_off_c, 0, 71, 64
2, 408864, Note_on_c, 0, 72, 80
2, 408956, Note_off_c, 0, 72, 64
2, 408960, Note_on_c, 0, 81, 82
2, 409052, Note_off_c, 0, 81, 64
2, 409056, Note_on_c, 0, 72, 80
2, 409148, Note_off_c, 0, 72, 64
2, 409152, Note_on_c, 0, 82, 82
2, 409244, Note_off_c, 0, 82, 64
2, 409248, Note_on_c, 0, 72, 80
2, 409340, Note_off_c, 0, 72, 64
2, 409344, Note_on_c, 0, 83, 83
2, 409436, Note_off_c, 0, 83, 64
2, 409440, Note_on_c, 0, 72, 80
2, 409532, Note_off_c, 0, 72, 64
2, 409536, Note_on_c, 0, 71, 80
2, 409628, Note_off_c, 0, 71, 64
2, 409632, Note_on_c, 0, 72, 80
2, 409724, Note_off_c, 0, 72, 64
2, 409728, Note_on_c, 0, 81, 82
2, 409820, Note_off_c, 0, 81, 64
2, 409824, Note_on_c, 0, 72, 80
2, 409916, Note_off_c, 0, 72, 64
2, 409920, Note_on_c, 0, 83, 83
2, 410012, Note_off_c, 0, 83, 64
2, 410016, Note_on_c, 0, 72, 80
2, 410108, Note_off_c, 0, 72, 64
2, 410112, Note_on_c, 0, 84, 84
2, 410204, Note_off_c, 0, 84, 64
2, 410208, Note_on_c, 0, 72, 80
2, 410300, Note_off_c, 0, 72, 64
2, 410304, Note_on_c, 0, 71, 80
2, 410396, Note_off_c, 0, 71, 64
2, 410400, Note_on_c, 0, 72, 80
2, 410492, Note_off_c, 0, 72, 64
2, 410496, Note_on_c, 0, 83, 83
2, 410588, Note_off_c, 0, 83, 64
2, 410592, Note_on_c, 0, 72, 80
2, 410684, Note_off_c, 0, 72, 64
2, 410688, Note_on_c, 0, 84, 84
2, 410780, Note_off_c, 0, 84, 64
2, 410784, Note_on_c, 0, 72, 80
2, 410876, Note_off_c, 0, 72, 64
2, 410880, Note_on_c, 0, 86, 85
2, 410972, Note_off_c, 0, 86, 64
2, 410976, Note_on_c, 0, 72, 80
2, 411068, Note_off_c, 0, 72, 64
2, 411072, Note_on_c, 0, 71, 80
2, 411164, Note_off_c, 0, 71, 64
2, 411168, Note_on_c, 0, 72, 80
2, 411260, Note_off_c, 0, 72, 64
2, 411264, Note_on_c, 0, 84, 84
2, 411356, Note_off_c, 0, 84, 64
2, 411360, Note_on_c, 0, 72, 80
2, 411452, Note_off_c, 0, 72, 64
2, 411456, Note_on_c, 0, 86, 85
2, 411548, Note_off_c, 0, 86, 64
2, 411552, Note_on_c, 0, 72, 80
2, 411644, Note_off_c, 0, 72, 64
2, 411648, Note_on_c, 0, 87, 90
2, 412456, Note_off_c, 0, 87, 64
2, 412464, Note_on_c, 0, 86, 95
2, 412504, Note_off_c, 0, 86, 64
2, 412512, Note_on_c, 0, 84, 94
2, 412552, Note_off_c, 0, 84, 64
2, 412560, Note_on_c, 0, 82, 93
2, 412600, Note_off_c, 0, 82, 64
2, 412608, Note_on_c, 0, 80, 92
2, 412648, Note_off_c, 0, 80, 64
2, 412656, Note_on_c, 0, 79, 91
2, 412696, Note_off_c, 0, 79, 64
2, 412704, Note_on_c, 0, 77, 90
2, 412744, Note_off_c, 0, 77, 64
2, 412752, Note_on_c, 0, 75, 90
2, 412792, Note_off_c, 0, 75, 64
2, 412800, Note_on_c, 0, 74, 90
2, 412892, Note_off_c, 0, 74, 64
2, 412896, Note_on_c, 0, 72, 90
2, 412988, Note_off_c, 0, 72, 64
2, 412992, Note_on_c, 0, 70, 90
2, 413084, Note_off_c, 0, 70, 64
2, 413088, Note_on_c, 0, 68, 90
2, 413128, Note_off_c, 0, 68, 64
2, 413136, Note_on_c, 0, 67, 90
2, 413176, Note_off_c, 0, 67, 64
2, 413184, Note_on_c, 0, 66, 90
2, 413564, Note_off_c, 0, 66, 64
2, 413568, Note_on_c, 0, 72, 90
2, 413712, Note_off_c, 0, 72, 64
2, 413712, Note_on_c, 0, 72, 90
2, 413756, Note_off_c, 0, 72, 64
2, 413760, Note_on_c, 0, 74, 90
2, 413804, Note_off_c, 0, 74, 64
2, 413808, Note_on_c, 0, 72, 90
2, 413852, Note_off_c, 0, 72, 64
2, 413856, Note_on_c, 0, 71, 90
2, 413900, Note_off_c, 0, 71, 64
2, 413904, Note_on_c, 0, 72, 90
2, 413948, Note_off_c, 0, 72, 64
2, 413952, Note_on_c, 0, 75, 90
2, 414332, Note_off_c, 0, 75, 64
2, 414336, Note_on_c, 0, 72, 90
2, 414716, Note_off_c, 0, 72, 64
2, 414720, Note_on_c, 0, 86, 95
2, 414812, Note_off_c, 0, 86, 64
2, 414816, Note_on_c, 0, 83, 93
2, 414908, Note_off_c, 0, 83, 64
2, 414912, Note_on_c, 0, 79, 91
2, 415004, Note_off_c, 0, 79, 64
2, 415008, Note_on_c, 0, 74, 90
2, 415100, Note_off_c, 0, 74, 64
2, 415104, Note_on_c, 0, 71, 90
2, 415196, Note_off_c, 0, 71, 64
2, 415200, Note_on_c, 0, 74, 90
2, 415292, Note_off_c, 0, 74, 64
2, 415296, Note_on_c, 0, 79, 91
2, 415388, Note_off_c, 0, 79, 64
2, 415392, Note_on_c, 0, 83, 93
2, 415484, Note_off_c, 0, 83, 64
2, 415488, Note_on_c, 0, 86, 95
2, 415580, Note_off_c, 0, 86, 64
2, 415584, Note_on_c, 0, 83, 93
2, 415676, Note_off_c, 0, 83, 64
2, 415680, Note_on_c, 0, 79, 91
2, 415772, Note_off_c, 0, 79, 64
2, 415776, Note_on_c, 0, 74, 90
2, 415868, Note_off_c, 0, 74, 64
2, 415872, Note_on_c, 0, 71, 90
2, 415964, Note_off_c, 0, 71, 64
2, 415968, Note_on_c, 0, 74, 90
2, 416060, Note_off_c, 0, 74, 64
2, 416064, Note_on_c, 0, 79, 91
2, 416156, Note_off_c, 0, 79, 64
2, 416160, Note_on_c, 0, 83, 93
2, 416252, Note_off_c, 0, 83, 64
2, 416256, Note_on_c, 0, 87, 96
2, 416348, Note_off_c, 0, 87, 64
2, 416352, Note_on_c, 0, 84, 92
2, 416444, Note_off_c, 0, 84, 64
2, 416448, Note_on_c, 0, 79, 91
2, 416540, Note_off_c, 0, 79, 64
2, 416544, Note_on_c, 0, 75, 90
2, 416636, Note_off_c, 0, 75, 64
2, 416640, Note_on_c, 0, 72, 90
2, 416732, Note_off_c, 0, 72, 64
2, 416736, Note_on_c, 0, 75, 90
2, 416828, Note_off_c, 0, 75, 64
2, 416832, Note_on_c, 0, 79, 91
2, 416924, Note_off_c, 0, 79, 64
2, 416928, Note_on_c, 0, 84, 94
2, 417020, Note_off_c, 0, 84, 64
2, 417024, Note_on_c, 0, 87, 96
2, 417116, Note_off_c, 0, 87, 64
2, 417120, Note_on_c, 0, 84, 94
2, 417212, Note_off_c, 0, 84, 64
2, 417216, Note_on_c, 0, 79, 91
2, 417308, Note_off_c, 0, 79, 64
2, 417312, Note_on_c, 0, 75, 90
2, 417404, Note_off_c, 0, 75, 64
2, 417408, Note_on_c, 0, 72, 90
2, 417500, Note_off_c, 0, 72, 64
2, 417504, Note_on_c, 0, 75, 90
2, 417596, Note_off_c, 0, 75, 64
2, 417600, Note_on_c, 0, 79, 91
2, 417692, Note_off_c, 0, 79, 64
2, 417696, Note_on_c, 0, 84, 94
2, 417788, Note_off_c, 0, 84, 64
2, 417792, Note_on_c, 0, 86, 95
2, 417884, Note_off_c, 0, 86, 64
2, 417888, Note_on_c, 0, 83, 93
2, 417980, Note_off_c, 0, 83, 64
2, 417984, Note_on_c, 0, 79, 91
2, 418076, Note_off_c, 0, 79, 64
2, 418080, Note_on_c, 0, 74, 90
2, 418172, Note_off_c, 0, 74, 64
2, 418176, Note_on_c, 0, 71, 90
2, 418268, Note_off_c, 0, 71, 64
2, 418272, Note_on_c, 0, 74, 90
2, 418364, Note_off_c, 0, 74, 64
2, 418368, Note_on_c, 0, 79, 91
2, 418460, Note_off_c, 0, 79, 64
2, 418464, Note_on_c, 0, 83, 93
2, 418556, Note_off_c, 0, 83, 64
2, 418560, Note_on_c, 0, 86, 95
2, 418652, Note_off_c, 0, 86, 64
2, 418656, Note_on_c, 0, 83, 93
2, 418748, Note_off_c, 0, 83, 64
2, 418752, Note_on_c, 0, 79, 91
2, 418844, Note_off_c, 0, 79, 64
2, 418848, Note_on_c, 0, 74, 90
2, 418940, Note_off_c, 0, 74, 64
2, 418944, Note_on_c, 0, 71, 90
2, 419036, Note_off_c, 0, 71, 64
2, 419040, Note_on_c, 0, 74, 90
2, 419132, Note_off_c, 0, 74, 64
2, 419136, Note_on_c, 0, 79, 91
2, 419228, Note_off_c, 0, 79, 64
2, 419232, Note_on_c, 0, 83, 93
2, 419324, Note_off_c, 0, 83, 64
2, 419328, Note_on_c, 0, 87, 96
2, 419420, Note_off_c, 0, 87, 64
2, 419424, Note_on_c, 0, 84, 94
2, 419516, Note_off_c, 0, 84, 64
2, 419520, Note_on_c, 0, 79, 91
2, 419612, Note_off_c, 0, 79, 64
2, 419616, Note_on_c, 0, 75, 90
2, 419708, Note_off_c, 0, 75, 64
2, 419712, Note_on_c, 0, 72, 90
2, 419804, Note_off_c, 0, 72, 64
2, 419808, Note_on_c, 0, 75, 90
2, 419900, Note_off_c, 0, 75, 64
2, 419904, Note_on_c, 0, 79, 91
2, 419996, Note_off_c, 0, 79, 64
2, 420000, Note_on_c, 0, 84, 94
2, 420092, Note_off_c, 0, 84, 64
2, 420112, Note_on_c, 0, 87, 96
2, 420192, Note_on_c, 0, 84, 94
2, 420204, Note_off_c, 0, 87, 64
2, 420284, Note_off_c, 0, 84, 64
2, 420288, Note_on_c, 0, 79, 91
2, 420380, Note_off_c, 0, 79, 64
2, 420384, Note_on_c, 0, 75, 90
2, 420476, Note_off_c, 0, 75, 64
2, 420480, Note_on_c, 0, 72, 90
2, 420572, Note_off_c, 0, 72, 64
2, 420576, Note_on_c, 0, 75, 90
2, 420668, Note_off_c, 0, 75, 64
2, 420672, Note_on_c, 0, 79, 91
2, 420764, Note_off_c, 0, 79, 64
2, 420768, Note_on_c, 0, 84, 94
2, 420860, Note_off_c, 0, 84, 64
2, 420864, Note_on_c, 0, 86, 95
2, 420956, Note_off_c, 0, 86, 64
2, 420960, Note_on_c, 0, 83, 93
2, 421052, Note_off_c, 0, 83, 64
2, 421056, Note_on_c, 0, 79, 91
2, 421148, Note_off_c, 0, 79, 64
2, 421152, Note_on_c, 0, 74, 90
2, 421244, Note_off_c, 0, 74, 64
2, 421248, Note_on_c, 0, 71, 90
2, 421340, Note_off_c, 0, 71, 64
2, 421344, Note_on_c, 0, 74, 90
2, 421436, Note_off_c, 0, 74, 64
2, 421440, Note_on_c, 0, 79, 91
2, 421532, Note_off_c, 0, 79, 64
2, 421536, Note_on_c, 0, 83, 93
2, 421628, Note_off_c, 0, 83, 64
2, 421632, Note_on_c, 0, 84, 94
2, 421724, Note_off_c, 0, 84, 64
2, 421728, Note_on_c, 0, 81, 92
2, 421820, Note_off_c, 0, 81, 64
2, 421824, Note_on_c, 0, 78, 90
2, 421916, Note_off_c, 0, 78, 64
2, 421920, Note_on_c, 0, 72, 89
2, 422012, Note_off_c, 0, 72, 64
2, 422016, Note_on_c, 0, 69, 89
2, 422108, Note_off_c, 0, 69, 64
2, 422112, Note_on_c, 0, 72, 88
2, 422204, Note_off_c, 0, 72, 64
2, 422208, Note_on_c, 0, 78, 88
2, 422300, Note_off_c, 0, 78, 64
2, 422304, Note_on_c, 0, 81, 89
2, 422396, Note_off_c, 0, 81, 64
2, 422400, Note_on_c, 0, 84, 91
2, 422492, Note_off_c, 0, 84, 64
2, 422496, Note_on_c, 0, 79, 88
2, 422588, Note_off_c, 0, 79, 64
2, 422592, Note_on_c, 0, 74, 86
2, 422684, Note_off_c, 0, 74, 64
2, 422688, Note_on_c, 0, 71, 86
2, 422780, Note_off_c, 0, 71, 64
2, 422784, Note_on_c, 0, 67, 85
2, 422876, Note_off_c, 0, 67, 64
2, 422880, Note_on_c, 0, 71, 85
2, 422972, Note_off_c, 0, 71, 64
2, 422976, Note_on_c, 0, 74, 84
2, 423068, Note_off_c, 0, 74, 64
2, 423072, Note_on_c, 0, 79, 83
2, 423164, Note_off_c, 0, 79, 64
2, 423168, Note_on_c, 0, 81, 82
2, 423260, Note_off_c, 0, 81, 64
2, 423264, Note_on_c, 0, 77, 83
2, 423356, Note_off_c, 0, 77, 64
2, 423360, Note_on_c, 0, 74, 83
2, 423452, Note_off_c, 0, 74, 64
2, 423456, Note_on_c, 0, 69, 82
2, 423548, Note_off_c, 0, 69, 64
2, 423552, Note_on_c, 0, 65, 82
2, 423644, Note_off_c, 0, 65, 64
2, 423648, Note_on_c, 0, 69, 81
2, 423740, Note_off_c, 0, 69, 64
2, 423744, Note_on_c, 0, 74, 81
2, 423836, Note_off_c, 0, 74, 64
2, 423840, Note_on_c, 0, 77, 81
2, 423932, Note_off_c, 0, 77, 64
2, 423936, Note_on_c, 0, 79, 81
2, 424028, Note_off_c, 0, 79, 64
2, 424032, Note_on_c, 0, 76, 80
2, 424124, Note_off_c, 0, 76, 64
2, 424128, Note_on_c, 0, 72, 79
2, 424220, Note_off_c, 0, 72, 64
2, 424224, Note_on_c, 0, 67, 79
2, 424316, Note_off_c, 0, 67, 64
2, 424320, Note_on_c, 0, 64, 78
2, 424412, Note_off_c, 0, 64, 64
2, 424416, Note_on_c, 0, 67, 78
2, 424508, Note_off_c, 0, 67, 64
2, 424512, Note_on_c, 0, 72, 77
2, 424604, Note_off_c, 0, 72, 64
2, 424608, Note_on_c, 0, 76, 77
2, 424700, Note_off_c, 0, 76, 64
2, 424704, Note_on_c, 0, 77, 77
2, 424796, Note_off_c, 0, 77, 64
2, 424800, Note_on_c, 0, 74, 76
2, 424892, Note_off_c, 0, 74, 64
2, 424896, Note_on_c, 0, 71, 76
2, 424988, Note_off_c, 0, 71, 64
2, 424992, Note_on_c, 0, 65, 75
2, 425084, Note_off_c, 0, 65, 64
2, 425088, Note_on_c, 0, 62, 75
2, 425180, Note_off_c, 0, 62, 64
2, 425184, Note_on_c, 0, 65, 74
2, 425276, Note_off_c, 0, 65, 64
2, 425280, Note_on_c, 0, 71, 74
2, 425372, Note_off_c, 0, 71, 64
2, 425376, Note_on_c, 0, 74, 74
2, 425468, Note_off_c, 0, 74, 64
2, 425472, Note_on_c, 0, 76, 73
2, 425564, Note_off_c, 0, 76, 64
2, 425568, Note_on_c, 0, 72, 73
2, 425660, Note_off_c, 0, 72, 64
2, 425664, Note_on_c, 0, 67, 72
2, 425756, Note_off_c, 0, 67, 64
2, 425760, Note_on_c, 0, 64, 72
2, 425852, Note_off_c, 0, 64, 64
2, 425856, Note_on_c, 0, 60, 71
2, 425948, Note_off_c, 0, 60, 64
2, 425952, Note_on_c, 0, 64, 71
2, 426044, Note_off_c, 0, 64, 64
2, 426048, Note_on_c, 0, 67, 71
2, 426140, Note_off_c, 0, 67, 64
2, 426144, Note_on_c, 0, 72, 70
2, 426236, Note_off_c, 0, 72, 64
2, 426240, Note_on_c, 0, 74, 70
2, 426332, Note_off_c, 0, 74, 64
2, 426336, Note_on_c, 0, 71, 69
2, 426428, Note_off_c, 0, 71, 64
2, 426432, Note_on_c, 0, 65, 69
2, 426524, Note_off_c, 0, 65, 64
2, 426528, Note_on_c, 0, 62, 68
2, 426620, Note_off_c, 0, 62, 64
2, 426624, Note_on_c, 0, 59, 68
2, 426716, Note_off_c, 0, 59, 64
2, 426720, Note_on_c, 0, 62, 68
2, 426812, Note_off_c, 0, 62, 64
2, 426816, Note_on_c, 0, 65, 67
2, 426908, Note_off_c, 0, 65, 64
2, 426912, Note_on_c, 0, 71, 66
2, 427004, Note_off_c, 0, 71, 64
2, 427008, Note_on_c, 0, 72, 65
2, 427388, Note_off_c, 0, 72, 64
2, 462336, Note_on_c, 0, 77, 65
2, 462524, Note_off_c, 0, 77, 64
2, 462720, Note_on_c, 0, 72, 65
2, 462908, Note_off_c, 0, 72, 64
2, 463104, Note_on_c, 0, 77, 65
2, 463292, Note_off_c, 0, 77, 64
2, 463488, Note_on_c, 0, 81, 67
2, 463676, Note_off_c, 0, 81, 64
2, 463872, Note_on_c, 0, 82, 68
2, 463872, Note_on_c, 0, 67, 65
2, 464060, Note_off_c, 0, 67, 64
2, 464256, Note_on_c, 0, 60, 65
2, 464444, Note_off_c, 0, 82, 64
2, 464444, Note_off_c, 0, 60, 64
2, 464448, Note_on_c, 0, 81, 67
2, 464504, Note_off_c, 0, 81, 64
2, 464512, Note_on_c, 0, 79, 66
2, 464568, Note_off_c, 0, 79, 64
2, 464576, Note_on_c, 0, 77, 65
2, 464632, Note_off_c, 0, 77, 64
2, 464640, Note_on_c, 0, 76, 64
2, 464640, Note_on_c, 0, 67, 62
2, 464828, Note_off_c, 0, 67, 64
2, 465020, Note_off_c, 0, 76, 64
2, 465024, Note_on_c, 0, 70, 65
2, 465212, Note_off_c, 0, 70, 64
2, 465312, Note_on_c, 0, 76, 65
2, 465404, Note_off_c, 0, 76, 64
2, 465408, Note_on_c, 0, 68, 65
2, 465408, Note_on_c, 0, 77, 65
2, 465500, Note_off_c, 0, 77, 64
2, 465536, Note_on_c, 0, 71, 65
2, 465628, Note_off_c, 0, 71, 64
2, 465664, Note_on_c, 0, 72, 65
2, 465756, Note_off_c, 0, 72, 64
2, 465788, Note_off_c, 0, 68, 64
2, 465792, Note_on_c, 0, 73, 65
2, 465884, Note_off_c, 0, 73, 64
2, 465920, Note_on_c, 0, 74, 65
2, 466012, Note_off_c, 0, 74, 64
2, 466048, Note_on_c, 0, 75, 65
2, 466140, Note_off_c, 0, 75, 64
2, 466176, Note_on_c, 0, 76, 65
2, 466268, Note_off_c, 0, 76, 64
2, 466304, Note_on_c, 0, 77, 65
2, 466396, Note_off_c, 0, 77, 64
2, 466432, Note_on_c, 0, 78, 65
2, 466524, Note_off_c, 0, 78, 64
2, 466560, Note_on_c, 0, 79, 66
2, 466652, Note_off_c, 0, 79, 64
2, 466688, Note_on_c, 0, 80, 66
2, 466780, Note_off_c, 0, 80, 64
2, 466816, Note_on_c, 0, 81, 67
2, 466908, Note_off_c, 0, 81, 64
2, 466944, Note_on_c, 0, 82, 68
2, 466944, Note_on_c, 0, 67, 65
2, 467132, Note_off_c, 0, 67, 64
2, 467136, Note_on_c, 0, 73, 65
2, 467324, Note_off_c, 0, 73, 64
2, 467328, Note_on_c, 0, 70, 65
2, 467516, Note_off_c, 0, 82, 64
2, 467516, Note_off_c, 0, 70, 64
2, 467520, Note_on_c, 0, 80, 67
2, 467520, Note_on_c, 0, 73, 65
2, 467576, Note_off_c, 0, 80, 64
2, 467584, Note_on_c, 0, 79, 66
2, 467640, Note_off_c, 0, 79, 64
2, 467648, Note_on_c, 0, 77, 65
2, 467704, Note_off_c, 0, 77, 64
2, 467708, Note_off_c, 0, 73, 64
2, 467712, Note_on_c, 0, 76, 64
2, 467712, Note_on_c, 0, 67, 62
2, 467900, Note_off_c, 0, 67, 64
2, 467904, Note_on_c, 0, 73, 65
2, 468092, Note_off_c, 0, 76, 64
2, 468092, Note_off_c, 0, 73, 64
2, 468096, Note_on_c, 0, 70, 65
2, 468284, Note_off_c, 0, 70, 64
2, 468288, Note_on_c, 0, 73, 65
2, 468476, Note_off_c, 0, 73, 64
2, 468480, Note_on_c, 0, 84, 69
2, 468480, Note_on_c, 0, 68, 65
2, 468668, Note_off_c, 0, 68, 64
2, 468672, Note_on_c, 0, 72, 65
2, 468860, Note_off_c, 0, 84, 64
2, 468860, Note_off_c, 0, 72, 64
2, 468864, Note_on_c, 0, 82, 67
2, 468864, Note_on_c, 0, 68, 65
2, 468956, Note_off_c, 0, 82, 64
2, 468960, Note_on_c, 0, 80, 67
2, 469052, Note_off_c, 0, 68, 64
2, 469052, Note_off_c, 0, 80, 64
2, 469056, Note_on_c, 0, 79, 66
2, 469056, Note_on_c, 0, 72, 65
2, 469148, Note_off_c, 0, 79, 64
2, 469152, Note_on_c, 0, 77, 65
2, 469244, Note_off_c, 0, 72, 64
2, 469244, Note_off_c, 0, 77, 64
2, 469248, Note_on_c, 0, 85, 69
2, 469248, Note_on_c, 0, 67, 65
2, 469436, Note_off_c, 0, 85, 64
2, 469436, Note_off_c, 0, 67, 64
2, 469440, Note_on_c, 0, 82, 68
2, 469440, Note_on_c, 0, 73, 65
2, 469628, Note_off_c, 0, 82, 64
2, 469628, Note_off_c, 0, 73, 64
2, 469632, Note_on_c, 0, 79, 66
2, 469632, Note_on_c, 0, 70, 65
2, 469820, Note_off_c, 0, 79, 64
2, 469820, Note_off_c, 0, 70, 64
2, 469824, Note_on_c, 0, 76, 65
2, 469824, Note_on_c, 0, 73, 65
2, 470012, Note_off_c, 0, 76, 64
2, 470012, Note_off_c, 0, 73, 64
2, 470016, Note_on_c, 0, 84, 69
2, 470016, Note_on_c, 0, 68, 65
2, 470204, Note_off_c, 0, 68, 64
2, 470208, Note_on_c, 0, 72, 65
2, 470396, Note_off_c, 0, 84, 64
2, 470396, Note_off_c, 0, 72, 64
2, 470400, Note_on_c, 0, 82, 68
2, 470400, Note_on_c, 0, 68, 65
2, 470492, Note_off_c, 0, 82, 64
2, 470496, Note_on_c, 0, 80, 67
2, 470588, Note_off_c, 0, 68, 64
2, 470588, Note_off_c, 0, 80, 64
2, 470592, Note_on_c, 0, 79, 66
2, 470592, Note_on_c, 0, 72, 65
2, 470684, Note_off_c, 0, 79, 64
2, 470688, Note_on_c, 0, 77, 65
2, 470780, Note_off_c, 0, 72, 64
2, 470780, Note_off_c, 0, 77, 64
2, 470784, Note_on_c, 0, 85, 69
2, 470784, Note_on_c, 0, 67, 65
2, 470972, Note_off_c, 0, 85, 64
2, 470972, Note_off_c, 0, 67, 64
2, 470976, Note_on_c, 0, 82, 68
2, 470976, Note_on_c, 0, 73, 65
2, 471164, Note_off_c, 0, 82, 64
2, 471164, Note_off_c, 0, 73, 64
2, 471168, Note_on_c, 0, 79, 66
2, 471168, Note_on_c, 0, 70, 65
2, 471356, Note_off_c, 0, 79, 64
2, 471356, Note_off_c, 0, 70, 64
2, 471360, Note_on_c, 0, 76, 65
2, 471360, Note_on_c, 0, 73, 65
2, 471548, Note_off_c, 0, 76, 64
2, 471548, Note_off_c, 0, 73, 64
2, 471552, Note_on_c, 0, 77, 65
2, 471552, Note_on_c, 0, 72, 65
2, 471552, Note_on_c, 0, 68, 65
2, 471740, Note_off_c, 0, 77, 64
2, 471744, Note_on_c, 0, 83, 68
2, 471932, Note_off_c, 0, 72, 64
2, 471932, Note_off_c, 0, 68, 64
2, 471932, Note_off_c, 0, 83, 64
2, 471936, Note_on_c, 0, 85, 70
2, 472124, Note_off_c, 0, 85, 64
2, 472128, Note_on_c, 0, 84, 69
2, 472316, Note_off_c, 0, 84, 64
2, 472320, Note_on_c, 0, 82, 68
2, 472508, Note_off_c, 0, 82, 64
2, 472512, Note_on_c, 0, 81, 67
2, 472700, Note_off_c, 0, 81, 64
2, 472704, Note_on_c, 0, 80, 67
2, 472892, Note_off_c, 0, 80, 64
2, 472896, Note_on_c, 0, 79, 66
2, 473084, Note_off_c, 0, 79, 64
2, 473088, Note_on_c, 0, 79, 66
2, 473276, Note_off_c, 0, 79, 64
2, 473280, Note_on_c, 0, 78, 65
2, 473468, Note_off_c, 0, 78, 64
2, 473472, Note_on_c, 0, 72, 65
2, 473472, Note_on_c, 0, 69, 65
2, 473664, Note_on_c, 0, 86, 70
2, 473852, Note_off_c, 0, 72, 64
2, 473852, Note_off_c, 0, 69, 64
2, 473852, Note_off_c, 0, 86, 64
2, 473856, Note_on_c, 0, 89, 72
2, 474044, Note_off_c, 0, 89, 64
2, 474048, Note_on_c, 0, 87, 71
2, 474236, Note_off_c, 0, 87, 64
2, 474240, Note_on_c, 0, 72, 65
2, 474240, Note_on_c, 0, 69, 65
2, 474432, Note_on_c, 0, 78, 65
2, 474620, Note_off_c, 0, 72, 64
2, 474620, Note_off_c, 0, 69, 64
2, 474620, Note_off_c, 0, 78, 64
2, 474624, Note_on_c, 0, 79, 66
2, 474624, Note_on_c, 0, 71, 65
2, 474624, Note_on_c, 0, 67, 65
2, 474716, Note_off_c, 0, 79, 64
2, 474720, Note_on_c, 0, 80, 66
2, 474812, Note_off_c, 0, 80, 64
2, 474816, Note_on_c, 0, 81, 67
2, 474908, Note_off_c, 0, 81, 64
2, 474912, Note_on_c, 0, 82, 68
2, 475004, Note_off_c, 0, 82, 64
2, 475008, Note_on_c, 0, 83, 68
2, 475100, Note_off_c, 0, 83, 64
2, 475104, Note_on_c, 0, 84, 65
2, 475196, Note_off_c, 0, 84, 64
2, 475200, Note_on_c, 0, 85, 69
2, 475292, Note_off_c, 0, 85, 64
2, 475296, Note_on_c, 0, 86, 69
2, 475388, Note_off_c, 0, 71, 64
2, 475388, Note_off_c, 0, 67, 64
2, 475388, Note_off_c, 0, 86, 64
2, 475392, Note_on_c, 0, 89, 72
2, 475392, Note_on_c, 0, 74, 65
2, 475392, Note_on_c, 0, 67, 65
2, 475484, Note_off_c, 0, 89, 64
2, 475488, Note_on_c, 0, 87, 71
2, 475580, Note_off_c, 0, 87, 64
2, 475584, Note_on_c, 0, 86, 70
2, 475676, Note_off_c, 0, 86, 64
2, 475680, Note_on_c, 0, 84, 69
2, 475772, Note_off_c, 0, 84, 64
2, 475776, Note_on_c, 0, 82, 68
2, 475868, Note_off_c, 0, 82, 64
2, 475872, Note_on_c, 0, 80, 67
2, 475964, Note_off_c, 0, 80, 64
2, 475968, Note_on_c, 0, 79, 66
2, 476060, Note_off_c, 0, 79, 64
2, 476064, Note_on_c, 0, 78, 65
2, 476156, Note_off_c, 0, 74, 64
2, 476156, Note_off_c, 0, 67, 64
2, 476156, Note_off_c, 0, 78, 64
2, 476160, Note_on_c, 0, 79, 67
2, 476160, Note_on_c, 0, 71, 66
2, 476160, Note_on_c, 0, 67, 66
2, 476252, Note_off_c, 0, 79, 64
2, 476256, Note_on_c, 0, 80, 68
2, 476348, Note_off_c, 0, 80, 64
2, 476352, Note_on_c, 0, 81, 71
2, 476444, Note_off_c, 0, 81, 64
2, 476448, Note_on_c, 0, 82, 73
2, 476540, Note_off_c, 0, 82, 64
2, 476544, Note_on_c, 0, 83, 75
2, 476636, Note_off_c, 0, 83, 64
2, 476640, Note_on_c, 0, 84, 75
2, 476732, Note_off_c, 0, 84, 64
2, 476736, Note_on_c, 0, 85, 80
2, 476828, Note_off_c, 0, 85, 64
2, 476832, Note_on_c, 0, 86, 81
2, 476924, Note_off_c, 0, 71, 64
2, 476924, Note_off_c, 0, 67, 64
2, 476924, Note_off_c, 0, 86, 64
2, 476928, Note_on_c, 0, 89, 87
2, 476928, Note_on_c, 0, 72, 79
2, 476928, Note_on_c, 0, 67, 79
2, 477020, Note_off_c, 0, 89, 64
2, 477024, Note_on_c, 0, 87, 86
2, 477116, Note_off_c, 0, 87, 64
2, 477120, Note_on_c, 0, 86, 87
2, 477212, Note_off_c, 0, 86, 64
2, 477216, Note_on_c, 0, 84, 87
2, 477308, Note_off_c, 0, 84, 64
2, 477312, Note_on_c, 0, 82, 85
2, 477404, Note_off_c, 0, 82, 64
2, 477408, Note_on_c, 0, 80, 90
2, 477500, Note_off_c, 0, 80, 64
2, 477504, Note_on_c, 0, 79, 90
2, 477596, Note_off_c, 0, 79, 64
2, 477600, Note_on_c, 0, 78, 90
2, 477692, Note_off_c, 0, 72, 64
2, 477692, Note_off_c, 0, 67, 64
2, 477692, Note_off_c, 0, 78, 64
2, 477696, Note_on_c, 0, 71, 91
2, 477696, Note_on_c, 0, 67, 90
2, 477696, Note_on_c, 0, 79, 90
2, 477788, Note_off_c, 0, 79, 64
2, 477792, Note_on_c, 0, 80, 91
2, 477884, Note_off_c, 0, 80, 64
2, 477888, Note_on_c, 0, 81, 92
2, 477980, Note_off_c, 0, 81, 64
2, 477984, Note_on_c, 0, 79, 90
2, 478076, Note_off_c, 0, 71, 64
2, 478076, Note_off_c, 0, 67, 64
2, 478076, Note_off_c, 0, 79, 64
2, 478080, Note_on_c, 0, 77, 91
2, 478172, Note_off_c, 0, 77, 64
2, 478176, Note_on_c, 0, 76, 90
2, 478268, Note_off_c, 0, 76, 64
2, 478272, Note_on_c, 0, 74, 90
2, 478364, Note_off_c, 0, 74, 64
2, 478368, Note_on_c, 0, 73, 90
2, 478460, Note_off_c, 0, 73, 64
2, 478464, Note_on_c, 0, 74, 90
2, 478556, Note_off_c, 0, 74, 64
2, 478560, Note_on_c, 0, 76, 90
2, 478652, Note_off_c, 0, 76, 64
2, 478656, Note_on_c, 0, 77, 90
2, 478748, Note_off_c, 0, 77, 64
2, 478752, Note_on_c, 0, 76, 90
2, 478844, Note_off_c, 0, 76, 64
2, 478848, Note_on_c, 0, 74, 90
2, 478940, Note_off_c, 0, 74, 64
2, 478944, Note_on_c, 0, 72, 90
2, 479036, Note_off_c, 0, 72, 64
2, 479040, Note_on_c, 0, 71, 90
2, 479132, Note_off_c, 0, 71, 64
2, 479136, Note_on_c, 0, 69, 90
2, 479228, Note_off_c, 0, 69, 64
2, 479232, Note_on_c, 0, 71, 90
2, 479324, Note_off_c, 0, 71, 64
2, 479328, Note_on_c, 0, 72, 90
2, 479420, Note_off_c, 0, 72, 64
2, 479424, Note_on_c, 0, 74, 90
2, 479516, Note_off_c, 0, 74, 64
2, 479520, Note_on_c, 0, 72, 90
2, 479612, Note_off_c, 0, 72, 64
2, 479616, Note_on_c, 0, 71, 90
2, 479708, Note_off_c, 0, 71, 64
2, 479712, Note_on_c, 0, 69, 90
2, 479804, Note_off_c, 0, 69, 64
2, 479808, Note_on_c, 0, 67, 90
2, 479900, Note_off_c, 0, 67, 64
2, 479904, Note_on_c, 0, 66, 90
2, 479996, Note_off_c, 0, 66, 64
2, 480000, Note_on_c, 0, 67, 90
2, 480092, Note_off_c, 0, 67, 64
2, 480096, Note_on_c, 0, 68, 90
2, 480188, Note_off_c, 0, 68, 64
2, 480192, Note_on_c, 0, 69, 90
2, 480284, Note_off_c, 0, 69, 64
2, 480288, Note_on_c, 0, 67, 90
2, 480380, Note_off_c, 0, 67, 64
2, 480384, Note_on_c, 0, 65, 90
2, 480476, Note_off_c, 0, 65, 64
2, 480480, Note_on_c, 0, 64, 90
2, 480572, Note_off_c, 0, 64, 64
2, 480576, Note_on_c, 0, 62, 90
2, 480668, Note_off_c, 0, 62, 64
2, 480672, Note_on_c, 0, 61, 90
2, 480764, Note_off_c, 0, 61, 64
2, 480768, Note_on_c, 0, 62, 90
2, 480860, Note_off_c, 0, 62, 64
2, 480864, Note_on_c, 0, 64, 90
2, 480956, Note_off_c, 0, 64, 64
2, 480960, Note_on_c, 0, 65, 90
2, 481052, Note_off_c, 0, 65, 64
2, 481056, Note_on_c, 0, 64, 90
2, 481148, Note_off_c, 0, 64, 64
2, 481152, Note_on_c, 0, 62, 90
2, 481244, Note_off_c, 0, 62, 64
2, 481248, Note_on_c, 0, 60, 90
2, 481340, Note_off_c, 0, 60, 64
2, 481344, Note_on_c, 0, 59, 90
2, 481436, Note_off_c, 0, 59, 64
2, 481440, Note_on_c, 0, 57, 90
2, 481532, Note_off_c, 0, 57, 64
2, 481536, Note_on_c, 0, 59, 90
2, 481628, Note_off_c, 0, 59, 64
2, 481632, Note_on_c, 0, 60, 90
2, 481724, Note_off_c, 0, 60, 64
2, 481728, Note_on_c, 0, 62, 90
2, 481820, Note_off_c, 0, 62, 64
2, 481824, Note_on_c, 0, 60, 90
2, 481916, Note_off_c, 0, 60, 64
2, 481920, Note_on_c, 0, 59, 90
2, 482012, Note_off_c, 0, 59, 64
2, 482016, Note_on_c, 0, 57, 90
2, 482108, Note_off_c, 0, 57, 64
2, 482112, Note_on_c, 0, 55, 90
2, 482204, Note_off_c, 0, 55, 64
2, 482208, Note_on_c, 0, 54, 90
2, 482300, Note_off_c, 0, 54, 64
2, 485376, Note_on_c, 0, 63, 90
2, 485468, Note_off_c, 0, 63, 64
2, 485472, Note_on_c, 0, 64, 90
2, 485564, Note_off_c, 0, 64, 64
2, 485568, Note_on_c, 0, 65, 90
2, 485660, Note_off_c, 0, 65, 64
2, 485664, Note_on_c, 0, 66, 90
2, 485756, Note_off_c, 0, 66, 64
2, 485760, Note_on_c, 0, 67, 90
2, 485852, Note_off_c, 0, 67, 64
2, 485856, Note_on_c, 0, 68, 90
2, 485948, Note_off_c, 0, 68, 64
2, 485952, Note_on_c, 0, 69, 90
2, 486044, Note_off_c, 0, 69, 64
2, 486048, Note_on_c, 0, 70, 90
2, 486140, Note_off_c, 0, 70, 64
2, 486144, Note_on_c, 0, 71, 65
2, 486236, Note_off_c, 0, 71, 64
2, 486240, Note_on_c, 0, 72, 65
2, 486332, Note_off_c, 0, 72, 64
2, 486336, Note_on_c, 0, 73, 65
2, 486428, Note_off_c, 0, 73, 64
2, 486432, Note_on_c, 0, 74, 65
2, 486524, Note_off_c, 0, 74, 64
2, 486528, Note_on_c, 0, 75, 65
2, 486620, Note_off_c, 0, 75, 64
2, 486624, Note_on_c, 0, 76, 65
2, 486716, Note_off_c, 0, 76, 64
2, 486720, Note_on_c, 0, 77, 65
2, 486812, Note_off_c, 0, 77, 64
2, 486816, Note_on_c, 0, 78, 65
2, 486908, Note_off_c, 0, 78, 64
2, 486912, Note_on_c, 0, 79, 66
2, 487100, Note_off_c, 0, 79, 64
2, 487104, Note_on_c, 0, 76, 65
2, 487292, Note_off_c, 0, 76, 64
2, 487296, Note_on_c, 0, 74, 65
2, 487484, Note_off_c, 0, 74, 64
2, 487488, Note_on_c, 0, 72, 65
2, 487676, Note_off_c, 0, 72, 64
2, 487680, Note_on_c, 0, 79, 66
2, 487868, Note_off_c, 0, 79, 64
2, 487872, Note_on_c, 0, 76, 65
2, 488060, Note_off_c, 0, 76, 64
2, 488064, Note_on_c, 0, 74, 65
2, 488252, Note_off_c, 0, 74, 64
2, 488256, Note_on_c, 0, 72, 65
2, 488444, Note_off_c, 0, 72, 64
2, 488448, Note_on_c, 0, 81, 67
2, 488636, Note_off_c, 0, 81, 64
2, 488640, Note_on_c, 0, 77, 65
2, 488828, Note_off_c, 0, 77, 64
2, 488832, Note_on_c, 0, 76, 65
2, 489020, Note_off_c, 0, 76, 64
2, 489024, Note_on_c, 0, 74, 65
2, 489212, Note_off_c, 0, 74, 64
2, 489216, Note_on_c, 0, 74, 65
2, 489980, Note_off_c, 0, 74, 64
2, 489984, Note_on_c, 0, 77, 65
2, 490172, Note_off_c, 0, 77, 64
2, 490176, Note_on_c, 0, 74, 65
2, 490364, Note_off_c, 0, 74, 64
2, 490368, Note_on_c, 0, 72, 65
2, 490556, Note_off_c, 0, 72, 64
2, 490560, Note_on_c, 0, 71, 65
2, 490748, Note_off_c, 0, 71, 64
2, 490752, Note_on_c, 0, 77, 65
2, 490940, Note_off_c, 0, 77, 64
2, 490944, Note_on_c, 0, 74, 65
2, 491132, Note_off_c, 0, 74, 64
2, 491136, Note_on_c, 0, 72, 65
2, 491324, Note_off_c, 0, 72, 64
2, 491328, Note_on_c, 0, 71, 65
2, 491516, Note_off_c, 0, 71, 64
2, 491520, Note_on_c, 0, 79, 66
2, 491708, Note_off_c, 0, 79, 64
2, 491712, Note_on_c, 0, 76, 65
2, 491900, Note_off_c, 0, 76, 64
2, 491904, Note_on_c, 0, 74, 65
2, 492092, Note_off_c, 0, 74, 64
2, 492096, Note_on_c, 0, 72, 65
2, 492284, Note_off_c, 0, 72, 64
2, 492288, Note_on_c, 0, 72, 65
2, 493052, Note_off_c, 0, 72, 64
2, 493056, Note_on_c, 0, 72, 65
2, 493628, Note_off_c, 0, 72, 64
2, 493632, Note_on_c, 0, 76, 65
2, 493820, Note_off_c, 0, 76, 64
2, 493824, Note_on_c, 0, 74, 65
2, 494012, Note_off_c, 0, 74, 64
2, 494016, Note_on_c, 0, 77, 65
2, 494108, Note_off_c, 0, 77, 64
2, 494208, Note_on_c, 0, 71, 65
2, 494396, Note_off_c, 0, 71, 64
2, 494400, Note_on_c, 0, 74, 65
2, 494492, Note_off_c, 0, 74, 64
2, 494592, Note_on_c, 0, 72, 65
2, 495164, Note_off_c, 0, 72, 64
2, 495168, Note_on_c, 0, 72, 65
2, 495260, Note_off_c, 0, 72, 64
2, 495264, Note_on_c, 0, 76, 65
2, 495356, Note_off_c, 0, 76, 64
2, 495360, Note_on_c, 0, 74, 65
2, 495548, Note_off_c, 0, 74, 64
2, 495552, Note_on_c, 0, 74, 65
2, 495644, Note_off_c, 0, 74, 64
2, 495648, Note_on_c, 0, 77, 65
2, 495740, Note_off_c, 0, 77, 64
2, 495744, Note_on_c, 0, 71, 65
2, 495932, Note_off_c, 0, 71, 64
2, 495936, Note_on_c, 0, 71, 65
2, 496028, Note_off_c, 0, 71, 64
2, 496032, Note_on_c, 0, 74, 65
2, 496124, Note_off_c, 0, 74, 64
2, 496128, Note_on_c, 0, 72, 65
2, 496220, Note_off_c, 0, 72, 64
2, 496224, Note_on_c, 0, 67, 61
2, 496316, Note_off_c, 0, 67, 64
2, 496320, Note_on_c, 0, 69, 62
2, 496412, Note_off_c, 0, 69, 64
2, 496416, Note_on_c, 0, 70, 62
2, 496508, Note_off_c, 0, 70, 64
2, 496512, Note_on_c, 0, 71, 63
2, 496604, Note_off_c, 0, 71, 64
2, 496608, Note_on_c, 0, 72, 63
2, 496700, Note_off_c, 0, 72, 64
2, 496704, Note_on_c, 0, 73, 64
2, 496796, Note_off_c, 0, 73, 64
2, 496800, Note_on_c, 0, 74, 64
2, 496892, Note_off_c, 0, 74, 64
2, 496896, Note_on_c, 0, 75, 65
2, 496988, Note_off_c, 0, 75, 64
2, 496992, Note_on_c, 0, 76, 65
2, 497084, Note_off_c, 0, 76, 64
2, 497088, Note_on_c, 0, 77, 65
2, 497180, Note_off_c, 0, 77, 64
2, 497184, Note_on_c, 0, 78, 66
2, 497276, Note_off_c, 0, 78, 64
2, 497280, Note_on_c, 0, 79, 66
2, 497372, Note_off_c, 0, 79, 64
2, 497472, Note_on_c, 0, 81, 67
2, 497564, Note_off_c, 0, 81, 64
2, 497664, Note_on_c, 0, 76, 65
2, 498236, Note_off_c, 0, 76, 64
2, 498240, Note_on_c, 0, 77, 65
2, 498332, Note_off_c, 0, 77, 64
2, 498336, Note_on_c, 0, 76, 65
2, 498428, Note_off_c, 0, 76, 64
2, 498432, Note_on_c, 0, 74, 65
2, 498620, Note_off_c, 0, 74, 64
2, 498624, Note_on_c, 0, 76, 65
2, 498812, Note_off_c, 0, 76, 64
2, 498816, Note_on_c, 0, 77, 65
2, 499004, Note_off_c, 0, 77, 64
2, 499008, Note_on_c, 0, 78, 65
2, 499196, Note_off_c, 0, 78, 64
2, 499200, Note_on_c, 0, 79, 66
2, 499580, Note_off_c, 0, 79, 64
2, 501504, Note_on_c, 0, 81, 67
2, 501504, Note_on_c, 0, 69, 65
2, 501692, Note_off_c, 0, 81, 64
2, 501692, Note_off_c, 0, 69, 64
2, 501696, Note_on_c, 0, 77, 66
2, 501696, Note_on_c, 0, 65, 65
2, 501884, Note_off_c, 0, 77, 64
2, 501884, Note_off_c, 0, 65, 64
2, 501888, Note_on_c, 0, 76, 65
2, 501888, Note_on_c, 0, 64, 65
2, 502076, Note_off_c, 0, 76, 64
2, 502076, Note_off_c, 0, 64, 64
2, 502080, Note_on_c, 0, 74, 65
2, 502080, Note_on_c, 0, 62, 65
2, 502268, Note_off_c, 0, 74, 64
2, 502268, Note_off_c, 0, 62, 64
2, 504576, Note_on_c, 0, 79, 66
2, 504576, Note_on_c, 0, 67, 65
2, 504764, Note_off_c, 0, 79, 64
2, 504764, Note_off_c, 0, 67, 64
2, 504768, Note_on_c, 0, 76, 65
2, 504768, Note_on_c, 0, 64, 65
2, 504956, Note_off_c, 0, 76, 64
2, 504956, Note_off_c, 0, 64, 64
2, 504960, Note_on_c, 0, 74, 65
2, 504960, Note_on_c, 0, 62, 65
2, 505148, Note_off_c, 0, 74, 64
2, 505148, Note_off_c, 0, 62, 64
2, 505152, Note_on_c, 0, 72, 65
2, 505152, Note_on_c, 0, 60, 65
2, 505340, Note_off_c, 0, 72, 64
2, 505340, Note_off_c, 0, 60, 64
2, 505344, Note_on_c, 0, 72, 65
2, 505916, Note_off_c, 0, 72, 64
2, 505920, Note_on_c, 0, 72, 65
2, 506012, Note_off_c, 0, 72, 64
2, 506016, Note_on_c, 0, 76, 65
2, 506108, Note_off_c, 0, 76, 64
2, 506112, Note_on_c, 0, 74, 65
2, 506300, Note_off_c, 0, 74, 64
2, 506304, Note_on_c, 0, 74, 65
2, 506396, Note_off_c, 0, 74, 64
2, 506400, Note_on_c, 0, 77, 65
2, 506492, Note_off_c, 0, 77, 64
2, 506496, Note_on_c, 0, 71, 65
2, 506684, Note_off_c, 0, 71, 64
2, 506688, Note_on_c, 0, 72, 65
2, 506780, Note_off_c, 0, 72, 64
2, 506784, Note_on_c, 0, 74, 65
2, 506876, Note_off_c, 0, 74, 64
2, 506880, Note_on_c, 0, 72, 103
2, 506976, Note_off_c, 0, 72, 64
2, 506976, Note_on_c, 0, 84, 100
2, 507220, Note_off_c, 0, 84, 64
2, 507264, Note_on_c, 0, 67, 100
2, 507264, Note_on_c, 0, 64, 96
2, 507264, Note_on_c, 0, 84, 96
2, 507356, Note_off_c, 0, 84, 64
2, 507360, Note_on_c, 0, 86, 101
2, 507452, Note_off_c, 0, 86, 64
2, 507456, Note_on_c, 0, 88, 102
2, 507548, Note_off_c, 0, 88, 64
2, 507552, Note_on_c, 0, 84, 100
2, 507644, Note_off_c, 0, 67, 64
2, 507644, Note_off_c, 0, 64, 64
2, 507644, Note_off_c, 0, 84, 64
2, 507648, Note_on_c, 0, 86, 101
2, 507648, Note_on_c, 0, 68, 96
2, 507648, Note_on_c, 0, 65, 96
2, 507740, Note_off_c, 0, 86, 64
2, 507744, Note_on_c, 0, 88, 102
2, 507836, Note_off_c, 0, 88, 64
2, 507840, Note_on_c, 0, 89, 103
2, 507932, Note_off_c, 0, 89, 64
2, 507936, Note_on_c, 0, 86, 101
2, 508028, Note_off_c, 0, 68, 64
2, 508028, Note_off_c, 0, 86, 64
2, 508032, Note_on_c, 0, 83, 99
2, 508032, Note_on_c, 0, 67, 96
2, 508124, Note_off_c, 0, 83, 64
2, 508128, Note_on_c, 0, 84, 100
2, 508220, Note_off_c, 0, 84, 64
2, 508224, Note_on_c, 0, 86, 101
2, 508316, Note_off_c, 0, 86, 64
2, 508320, Note_on_c, 0, 83, 99
2, 508412, Note_off_c, 0, 65, 64
2, 508412, Note_off_c, 0, 67, 64
2, 508412, Note_off_c, 0, 83, 64
2, 508416, Note_on_c, 0, 84, 94
2, 508416, Note_on_c, 0, 67, 90
2, 508416, Note_on_c, 0, 64, 90
2, 508508, Note_off_c, 0, 84, 64
2, 508512, Note_on_c, 0, 88, 96
2, 508604, Note_off_c, 0, 88, 64
2, 508608, Note_on_c, 0, 84, 94
2, 508700, Note_off_c, 0, 84, 64
2, 508704, Note_on_c, 0, 79, 91
2, 508796, Note_off_c, 0, 67, 64
2, 508796, Note_off_c, 0, 64, 64
2, 508796, Note_off_c, 0, 79, 64
2, 508800, Note_on_c, 0, 81, 94
2, 508800, Note_on_c, 0, 65, 90
2, 508892, Note_off_c, 0, 81, 64
2, 508896, Note_on_c, 0, 84, 92
2, 508988, Note_off_c, 0, 84, 64
2, 508992, Note_on_c, 0, 81, 90
2, 509084, Note_off_c, 0, 81, 64
2, 509088, Note_on_c, 0, 77, 90
2, 509180, Note_off_c, 0, 65, 64
2, 509180, Note_off_c, 0, 77, 64
2, 509184, Note_on_c, 0, 76, 90
2, 509184, Note_on_c, 0, 67, 90
2, 509276, Note_off_c, 0, 76, 64
2, 509280, Note_on_c, 0, 79, 91
2, 509372, Note_off_c, 0, 79, 64
2, 509376, Note_on_c, 0, 76, 90
2, 509468, Note_off_c, 0, 76, 64
2, 509472, Note_on_c, 0, 72, 90
2, 509564, Note_off_c, 0, 67, 64
2, 509564, Note_off_c, 0, 72, 64
2, 509568, Note_on_c, 0, 74, 90
2, 509568, Note_on_c, 0, 55, 90
2, 509660, Note_off_c, 0, 74, 64
2, 509664, Note_on_c, 0, 77, 90
2, 509756, Note_off_c, 0, 77, 64
2, 509760, Note_on_c, 0, 74, 90
2, 509852, Note_off_c, 0, 74, 64
2, 509856, Note_on_c, 0, 71, 90
2, 509948, Note_off_c, 0, 55, 64
2, 509948, Note_off_c, 0, 71, 64
2, 509952, Note_on_c, 0, 60, 65
2, 509952, Note_on_c, 0, 72, 65
2, 510140, Note_off_c, 0, 72, 64
2, 510332, Note_off_c, 0, 60, 64
2, 510336, Note_on_c, 0, 67, 65
2, 510524, Note_off_c, 0, 67, 64
2, 510720, Note_on_c, 0, 72, 65
2, 510908, Note_off_c, 0, 72, 64
2, 511104, Note_on_c, 0, 76, 65
2, 511292, Note_off_c, 0, 76, 64
2, 511488, Note_on_c, 0, 77, 65
2, 511488, Note_on_c, 0, 62, 65
2, 511676, Note_off_c, 0, 62, 64
2, 511872, Note_on_c, 0, 55, 65
2, 512060, Note_off_c, 0, 77, 64
2, 512060, Note_off_c, 0, 55, 64
2, 512064, Note_on_c, 0, 76, 65
2, 512120, Note_off_c, 0, 76, 64
2, 512128, Note_on_c, 0, 74, 65
2, 512184, Note_off_c, 0, 74, 64
2, 512192, Note_on_c, 0, 72, 65
2, 512248, Note_off_c, 0, 72, 64
2, 512256, Note_on_c, 0, 71, 65
2, 512256, Note_on_c, 0, 62, 65
2, 512444, Note_off_c, 0, 62, 64
2, 512636, Note_off_c, 0, 71, 64
2, 512640, Note_on_c, 0, 65, 65
2, 512828, Note_off_c, 0, 65, 64
2, 513024, Note_on_c, 0, 67, 65
2, 513024, Note_on_c, 0, 64, 65
2, 513116, Note_off_c, 0, 67, 64
2, 513120, Note_on_c, 0, 72, 65
2, 513212, Note_off_c, 0, 72, 64
2, 513216, Note_on_c, 0, 76, 65
2, 513308, Note_off_c, 0, 76, 64
2, 513312, Note_on_c, 0, 79, 66
2, 513404, Note_off_c, 0, 79, 64
2, 513408, Note_on_c, 0, 67, 66
2, 513500, Note_off_c, 0, 67, 64
2, 513504, Note_on_c, 0, 79, 67
2, 513596, Note_off_c, 0, 64, 64
2, 513596, Note_off_c, 0, 79, 64
2, 513600, Note_on_c, 0, 67, 67
2, 513600, Note_on_c, 0, 65, 67
2, 513656, Note_off_c, 0, 65, 64
2, 513664, Note_on_c, 0, 64, 68
2, 513692, Note_off_c, 0, 67, 64
2, 513696, Note_on_c, 0, 79, 68
2, 513720, Note_off_c, 0, 64, 64
2, 513728, Note_on_c, 0, 62, 68
2, 513784, Note_off_c, 0, 62, 64
2, 513788, Note_off_c, 0, 79, 64
2, 513792, Note_on_c, 0, 67, 69
2, 513792, Note_on_c, 0, 60, 69
2, 513884, Note_off_c, 0, 67, 64
2, 513888, Note_on_c, 0, 79, 71
2, 513980, Note_off_c, 0, 79, 64
2, 513984, Note_on_c, 0, 67, 71
2, 514076, Note_off_c, 0, 67, 64
2, 514080, Note_on_c, 0, 79, 73
2, 514172, Note_off_c, 0, 60, 64
2, 514172, Note_off_c, 0, 79, 64
2, 514176, Note_on_c, 0, 67, 73
2, 514268, Note_off_c, 0, 67, 64
2, 514272, Note_on_c, 0, 79, 75
2, 514364, Note_off_c, 0, 79, 64
2, 514368, Note_on_c, 0, 67, 74
2, 514460, Note_off_c, 0, 67, 64
2, 514464, Note_on_c, 0, 79, 76
2, 514556, Note_off_c, 0, 79, 64
2, 514560, Note_on_c, 0, 67, 76
2, 514652, Note_off_c, 0, 67, 64
2, 514656, Note_on_c, 0, 79, 78
2, 514748, Note_off_c, 0, 79, 64
2, 514752, Note_on_c, 0, 67, 79
2, 514844, Note_off_c, 0, 67, 64
2, 514848, Note_on_c, 0, 79, 79
2, 514940, Note_off_c, 0, 79, 64
2, 514944, Note_on_c, 0, 67, 80
2, 515036, Note_off_c, 0, 67, 64
2, 515040, Note_on_c, 0, 79, 82
2, 515132, Note_off_c, 0, 79, 64
2, 515136, Note_on_c, 0, 67, 82
2, 515228, Note_off_c, 0, 67, 64
2, 515232, Note_on_c, 0, 79, 83
2, 515324, Note_off_c, 0, 79, 64
2, 515328, Note_on_c, 0, 67, 83
2, 515420, Note_off_c, 0, 67, 64
2, 515424, Note_on_c, 0, 79, 85
2, 515516, Note_off_c, 0, 79, 64
2, 515520, Note_on_c, 0, 67, 85
2, 515612, Note_off_c, 0, 67, 64
2, 515616, Note_on_c, 0, 79, 87
2, 515708, Note_off_c, 0, 79, 64
2, 515712, Note_on_c, 0, 67, 87
2, 515804, Note_off_c, 0, 67, 64
2, 515808, Note_on_c, 0, 79, 89
2, 515900, Note_off_c, 0, 79, 64
2, 515904, Note_on_c, 0, 67, 89
2, 515996, Note_off_c, 0, 67, 64
2, 516000, Note_on_c, 0, 79, 91
2, 516092, Note_off_c, 0, 79, 64
2, 516096, Note_on_c, 0, 79, 91
2, 516188, Note_off_c, 0, 79, 64
2, 516192, Note_on_c, 0, 76, 90
2, 516284, Note_off_c, 0, 76, 64
2, 516288, Note_on_c, 0, 72, 90
2, 516380, Note_off_c, 0, 72, 64
2, 516384, Note_on_c, 0, 67, 90
2, 516476, Note_off_c, 0, 67, 64
2, 516480, Note_on_c, 0, 64, 90
2, 516572, Note_off_c, 0, 64, 64
2, 516576, Note_on_c, 0, 67, 90
2, 516668, Note_off_c, 0, 67, 64
2, 516672, Note_on_c, 0, 72, 90
2, 516764, Note_off_c, 0, 72, 64
2, 516768, Note_on_c, 0, 76, 90
2, 516860, Note_off_c, 0, 76, 64
2, 516864, Note_on_c, 0, 79, 91
2, 516956, Note_off_c, 0, 79, 64
2, 516960, Note_on_c, 0, 76, 90
2, 517052, Note_off_c, 0, 76, 64
2, 517056, Note_on_c, 0, 72, 90
2, 517148, Note_off_c, 0, 72, 64
2, 517152, Note_on_c, 0, 67, 90
2, 517244, Note_off_c, 0, 67, 64
2, 517248, Note_on_c, 0, 64, 90
2, 517340, Note_off_c, 0, 64, 64
2, 517344, Note_on_c, 0, 67, 90
2, 517436, Note_off_c, 0, 67, 64
2, 517440, Note_on_c, 0, 72, 90
2, 517532, Note_off_c, 0, 72, 64
2, 517536, Note_on_c, 0, 76, 90
2, 517628, Note_off_c, 0, 76, 64
2, 517632, Note_on_c, 0, 79, 91
2, 517724, Note_off_c, 0, 79, 64
2, 517728, Note_on_c, 0, 76, 90
2, 517820, Note_off_c, 0, 76, 64
2, 517824, Note_on_c, 0, 72, 90
2, 517916, Note_off_c, 0, 72, 64
2, 517920, Note_on_c, 0, 69, 90
2, 518012, Note_off_c, 0, 69, 64
2, 518016, Note_on_c, 0, 68, 90
2, 518108, Note_off_c, 0, 68, 64
2, 518112, Note_on_c, 0, 69, 90
2, 518204, Note_off_c, 0, 69, 64
2, 518208, Note_on_c, 0, 72, 90
2, 518300, Note_off_c, 0, 72, 64
2, 518304, Note_on_c, 0, 76, 90
2, 518396, Note_off_c, 0, 76, 64
2, 518400, Note_on_c, 0, 79, 91
2, 518492, Note_off_c, 0, 79, 64
2, 518496, Note_on_c, 0, 76, 90
2, 518588, Note_off_c, 0, 76, 64
2, 518592, Note_on_c, 0, 72, 90
2, 518684, Note_off_c, 0, 72, 64
2, 518688, Note_on_c, 0, 69, 90
2, 518780, Note_off_c, 0, 69, 64
2, 518784, Note_on_c, 0, 68, 90
2, 518876, Note_off_c, 0, 68, 64
2, 518880, Note_on_c, 0, 69, 90
2, 518972, Note_off_c, 0, 69, 64
2, 518976, Note_on_c, 0, 72, 90
2, 519068, Note_off_c, 0, 72, 64
2, 519072, Note_on_c, 0, 76, 90
2, 519164, Note_off_c, 0, 76, 64
2, 519168, Note_on_c, 0, 77, 90
2, 519260, Note_off_c, 0, 77, 64
2, 519264, Note_on_c, 0, 74, 90
2, 519356, Note_off_c, 0, 74, 64
2, 519360, Note_on_c, 0, 71, 90
2, 519452, Note_off_c, 0, 71, 64
2, 519456, Note_on_c, 0, 69, 90
2, 519548, Note_off_c, 0, 69, 64
2, 519552, Note_on_c, 0, 68, 90
2, 519644, Note_off_c, 0, 68, 64
2, 519648, Note_on_c, 0, 69, 90
2, 519740, Note_off_c, 0, 69, 64
2, 519744, Note_on_c, 0, 71, 90
2, 519836, Note_off_c, 0, 71, 64
2, 519840, Note_on_c, 0, 74, 90
2, 519932, Note_off_c, 0, 74, 64
2, 519936, Note_on_c, 0, 77, 90
2, 520028, Note_off_c, 0, 77, 64
2, 520032, Note_on_c, 0, 74, 90
2, 520124, Note_off_c, 0, 74, 64
2, 520128, Note_on_c, 0, 71, 90
2, 520220, Note_off_c, 0, 71, 64
2, 520224, Note_on_c, 0, 69, 90
2, 520316, Note_off_c, 0, 69, 64
2, 520320, Note_on_c, 0, 68, 90
2, 520412, Note_off_c, 0, 68, 64
2, 520416, Note_on_c, 0, 69, 90
2, 520508, Note_off_c, 0, 69, 64
2, 520512, Note_on_c, 0, 71, 90
2, 520604, Note_off_c, 0, 71, 64
2, 520608, Note_on_c, 0, 74, 90
2, 520700, Note_off_c, 0, 74, 64
2, 520704, Note_on_c, 0, 77, 90
2, 520796, Note_off_c, 0, 77, 64
2, 520800, Note_on_c, 0, 74, 90
2, 520892, Note_off_c, 0, 74, 64
2, 520896, Note_on_c, 0, 71, 90
2, 520988, Note_off_c, 0, 71, 64
2, 520992, Note_on_c, 0, 67, 90
2, 521084, Note_off_c, 0, 67, 64
2, 521088, Note_on_c, 0, 66, 90
2, 521180, Note_off_c, 0, 66, 64
2, 521184, Note_on_c, 0, 67, 90
2, 521276, Note_off_c, 0, 67, 64
2, 521280, Note_on_c, 0, 71, 90
2, 521372, Note_off_c, 0, 71, 64
2, 521376, Note_on_c, 0, 74, 90
2, 521468, Note_off_c, 0, 74, 64
2, 521472, Note_on_c, 0, 77, 90
2, 521564, Note_off_c, 0, 77, 64
2, 521568, Note_on_c, 0, 74, 90
2, 521660, Note_off_c, 0, 74, 64
2, 521664, Note_on_c, 0, 71, 90
2, 521756, Note_off_c, 0, 71, 64
2, 521760, Note_on_c, 0, 67, 90
2, 521852, Note_off_c, 0, 67, 64
2, 521856, Note_on_c, 0, 66, 90
2, 521948, Note_off_c, 0, 66, 64
2, 521952, Note_on_c, 0, 67, 90
2, 522044, Note_off_c, 0, 67, 64
2, 522048, Note_on_c, 0, 71, 90
2, 522140, Note_off_c, 0, 71, 64
2, 522144, Note_on_c, 0, 74, 90
2, 522236, Note_off_c, 0, 74, 64
2, 522240, Note_on_c, 0, 88, 96
2, 522332, Note_off_c, 0, 88, 64
2, 522336, Note_on_c, 0, 84, 94
2, 522428, Note_off_c, 0, 84, 64
2, 522432, Note_on_c, 0, 81, 92
2, 522524, Note_off_c, 0, 81, 64
2, 522528, Note_on_c, 0, 79, 91
2, 522620, Note_off_c, 0, 79, 64
2, 522624, Note_on_c, 0, 77, 90
2, 522716, Note_off_c, 0, 77, 64
2, 522720, Note_on_c, 0, 79, 91
2, 522812, Note_off_c, 0, 79, 64
2, 522816, Note_on_c, 0, 81, 92
2, 522908, Note_off_c, 0, 81, 64
2, 522912, Note_on_c, 0, 84, 94
2, 523004, Note_off_c, 0, 84, 64
2, 523008, Note_on_c, 0, 88, 96
2, 523100, Note_off_c, 0, 88, 64
2, 523104, Note_on_c, 0, 84, 94
2, 523196, Note_off_c, 0, 84, 64
2, 523200, Note_on_c, 0, 81, 92
2, 523292, Note_off_c, 0, 81, 64
2, 523296, Note_on_c, 0, 79, 91
2, 523388, Note_off_c, 0, 79, 64
2, 523392, Note_on_c, 0, 77, 90
2, 523484, Note_off_c, 0, 77, 64
2, 523488, Note_on_c, 0, 79, 91
2, 523580, Note_off_c, 0, 79, 64
2, 523584, Note_on_c, 0, 81, 92
2, 523676, Note_off_c, 0, 81, 64
2, 523680, Note_on_c, 0, 84, 94
2, 523772, Note_off_c, 0, 84, 64
2, 523776, Note_on_c, 0, 88, 96
2, 523868, Note_off_c, 0, 88, 64
2, 523872, Note_on_c, 0, 84, 94
2, 523964, Note_off_c, 0, 84, 64
2, 523968, Note_on_c, 0, 81, 92
2, 524060, Note_off_c, 0, 81, 64
2, 524064, Note_on_c, 0, 77, 90
2, 524156, Note_off_c, 0, 77, 64
2, 524160, Note_on_c, 0, 76, 90
2, 524252, Note_off_c, 0, 76, 64
2, 524256, Note_on_c, 0, 77, 90
2, 524348, Note_off_c, 0, 77, 64
2, 524352, Note_on_c, 0, 81, 92
2, 524444, Note_off_c, 0, 81, 64
2, 524448, Note_on_c, 0, 84, 94
2, 524540, Note_off_c, 0, 84, 64
2, 524544, Note_on_c, 0, 88, 96
2, 524636, Note_off_c, 0, 88, 64
2, 524640, Note_on_c, 0, 84, 94
2, 524732, Note_off_c, 0, 84, 64
2, 524736, Note_on_c, 0, 81, 92
2, 524828, Note_off_c, 0, 81, 64
2, 524832, Note_on_c, 0, 77, 90
2, 524924, Note_off_c, 0, 77, 64
2, 524928, Note_on_c, 0, 76, 90
2, 524928, Note_on_c, 0, 62, 90
2, 525020, Note_off_c, 0, 76, 64
2, 525020, Note_off_c, 0, 62, 64
2, 525024, Note_on_c, 0, 77, 90
2, 525024, Note_on_c, 0, 74, 90
2, 525104, Note_on_c, 0, 73, 90
2, 525116, Note_off_c, 0, 77, 64
2, 525116, Note_off_c, 0, 74, 64
2, 525120, Note_on_c, 0, 81, 92
2, 525196, Note_off_c, 0, 73, 64
2, 525212, Note_off_c, 0, 81, 64
2, 525216, Note_on_c, 0, 84, 94
2, 525216, Note_on_c, 0, 74, 90
2, 525308, Note_off_c, 0, 84, 64
2, 525308, Note_off_c, 0, 74, 64
2, 525312, Note_on_c, 0, 86, 95
2, 525404, Note_off_c, 0, 86, 64
2, 525408, Note_on_c, 0, 83, 93
2, 525500, Note_off_c, 0, 83, 64
2, 525504, Note_on_c, 0, 79, 91
2, 525596, Note_off_c, 0, 79, 64
2, 525600, Note_on_c, 0, 77, 90
2, 525692, Note_off_c, 0, 77, 64
2, 525696, Note_on_c, 0, 76, 90
2, 525788, Note_off_c, 0, 76, 64
2, 525792, Note_on_c, 0, 77, 90
2, 525884, Note_off_c, 0, 77, 64
2, 525888, Note_on_c, 0, 79, 91
2, 525980, Note_off_c, 0, 79, 64
2, 525984, Note_on_c, 0, 83, 93
2, 526076, Note_off_c, 0, 83, 64
2, 526080, Note_on_c, 0, 86, 95
2, 526172, Note_off_c, 0, 86, 64
2, 526176, Note_on_c, 0, 83, 93
2, 526268, Note_off_c, 0, 83, 64
2, 526272, Note_on_c, 0, 79, 91
2, 526364, Note_off_c, 0, 79, 64
2, 526368, Note_on_c, 0, 77, 90
2, 526460, Note_off_c, 0, 77, 64
2, 526464, Note_on_c, 0, 76, 90
2, 526556, Note_off_c, 0, 76, 64
2, 526560, Note_on_c, 0, 77, 90
2, 526652, Note_off_c, 0, 77, 64
2, 526656, Note_on_c, 0, 79, 91
2, 526748, Note_off_c, 0, 79, 64
2, 526752, Note_on_c, 0, 83, 93
2, 526844, Note_off_c, 0, 83, 64
2, 526848, Note_on_c, 0, 88, 96
2, 526848, Note_on_c, 0, 60, 90
2, 526940, Note_off_c, 0, 88, 64
2, 526940, Note_off_c, 0, 60, 64
2, 526944, Note_on_c, 0, 84, 94
2, 526944, Note_on_c, 0, 64, 90
2, 527036, Note_off_c, 0, 84, 64
2, 527036, Note_off_c, 0, 64, 64
2, 527040, Note_on_c, 0, 79, 91
2, 527040, Note_on_c, 0, 67, 90
2, 527132, Note_off_c, 0, 79, 64
2, 527132, Note_off_c, 0, 67, 64
2, 527136, Note_on_c, 0, 76, 90
2, 527136, Note_on_c, 0, 72, 90
2, 527228, Note_off_c, 0, 76, 64
2, 527228, Note_off_c, 0, 72, 64
2, 527232, Note_on_c, 0, 75, 90
2, 527232, Note_on_c, 0, 71, 90
2, 527324, Note_off_c, 0, 75, 64
2, 527324, Note_off_c, 0, 71, 64
2, 527328, Note_on_c, 0, 76, 90
2, 527328, Note_on_c, 0, 72, 90
2, 527420, Note_off_c, 0, 76, 64
2, 527420, Note_off_c, 0, 72, 64
2, 527424, Note_on_c, 0, 79, 91
2, 527424, Note_on_c, 0, 67, 90
2, 527516, Note_off_c, 0, 79, 64
2, 527516, Note_off_c, 0, 67, 64
2, 527520, Note_on_c, 0, 84, 94
2, 527520, Note_on_c, 0, 64, 90
2, 527612, Note_off_c, 0, 84, 64
2, 527612, Note_off_c, 0, 64, 64
2, 527616, Note_on_c, 0, 88, 96
2, 527616, Note_on_c, 0, 60, 90
2, 527708, Note_off_c, 0, 88, 64
2, 527708, Note_off_c, 0, 60, 64
2, 527712, Note_on_c, 0, 84, 94
2, 527712, Note_on_c, 0, 64, 90
2, 527792, Note_on_c, 0, 67, 91
2, 527804, Note_off_c, 0, 84, 64
2, 527804, Note_off_c, 0, 64, 64
2, 527808, Note_on_c, 0, 79, 90
2, 527884, Note_off_c, 0, 67, 64
2, 527900, Note_off_c, 0, 79, 64
2, 527904, Note_on_c, 0, 76, 90
2, 527904, Note_on_c, 0, 72, 90
2, 527996, Note_off_c, 0, 76, 64
2, 527996, Note_off_c, 0, 72, 64
2, 528000, Note_on_c, 0, 88, 96
2, 528000, Note_on_c, 0, 60, 90
2, 528092, Note_off_c, 0, 88, 64
2, 528092, Note_off_c, 0, 60, 64
2, 528096, Note_on_c, 0, 76, 90
2, 528096, Note_on_c, 0, 72, 90
2, 528188, Note_off_c, 0, 76, 64
2, 528188, Note_off_c, 0, 72, 64
2, 528192, Note_on_c, 0, 86, 95
2, 528192, Note_on_c, 0, 59, 90
2, 528284, Note_off_c, 0, 86, 64
2, 528284, Note_off_c, 0, 59, 64
2, 528288, Note_on_c, 0, 74, 90
2, 528288, Note_on_c, 0, 71, 90
2, 528380, Note_off_c, 0, 74, 64
2, 528380, Note_off_c, 0, 71, 64
2, 528384, Note_on_c, 0, 84, 94
2, 528384, Note_on_c, 0, 57, 90
2, 528476, Note_off_c, 0, 84, 64
2, 528476, Note_off_c, 0, 57, 64
2, 528480, Note_on_c, 0, 81, 92
2, 528480, Note_on_c, 0, 60, 90
2, 528572, Note_off_c, 0, 81, 64
2, 528572, Note_off_c, 0, 60, 64
2, 528576, Note_on_c, 0, 76, 90
2, 528576, Note_on_c, 0, 64, 90
2, 528668, Note_off_c, 0, 76, 64
2, 528668, Note_off_c, 0, 64, 64
2, 528672, Note_on_c, 0, 72, 90
2, 528672, Note_on_c, 0, 69, 90
2, 528764, Note_off_c, 0, 72, 64
2, 528764, Note_off_c, 0, 69, 64
2, 528768, Note_on_c, 0, 71, 90
2, 528768, Note_on_c, 0, 68, 90
2, 528860, Note_off_c, 0, 71, 64
2, 528860, Note_off_c, 0, 68, 64
2, 528864, Note_on_c, 0, 72, 90
2, 528864, Note_on_c, 0, 69, 90
2, 528956, Note_off_c, 0, 72, 64
2, 528956, Note_off_c, 0, 69, 64
2, 528960, Note_on_c, 0, 76, 90
2, 528960, Note_on_c, 0, 64, 90
2, 529052, Note_off_c, 0, 76, 64
2, 529052, Note_off_c, 0, 64, 64
2, 529056, Note_on_c, 0, 81, 92
2, 529056, Note_on_c, 0, 60, 90
2, 529148, Note_off_c, 0, 81, 64
2, 529148, Note_off_c, 0, 60, 64
2, 529152, Note_on_c, 0, 84, 94
2, 529152, Note_on_c, 0, 57, 90
2, 529244, Note_off_c, 0, 84, 64
2, 529244, Note_off_c, 0, 57, 64
2, 529248, Note_on_c, 0, 81, 92
2, 529248, Note_on_c, 0, 60, 90
2, 529340, Note_off_c, 0, 81, 64
2, 529340, Note_off_c, 0, 60, 64
2, 529344, Note_on_c, 0, 76, 90
2, 529344, Note_on_c, 0, 64, 90
2, 529436, Note_off_c, 0, 76, 64
2, 529436, Note_off_c, 0, 64, 64
2, 529440, Note_on_c, 0, 72, 90
2, 529440, Note_on_c, 0, 69, 90
2, 529532, Note_off_c, 0, 72, 64
2, 529532, Note_off_c, 0, 69, 64
2, 529536, Note_on_c, 0, 84, 94
2, 529536, Note_on_c, 0, 57, 90
2, 529628, Note_off_c, 0, 84, 64
2, 529628, Note_off_c, 0, 57, 64
2, 529632, Note_on_c, 0, 72, 90
2, 529632, Note_on_c, 0, 69, 90
2, 529724, Note_off_c, 0, 72, 64
2, 529724, Note_off_c, 0, 69, 64
2, 529728, Note_on_c, 0, 83, 92
2, 529728, Note_on_c, 0, 55, 90
2, 529820, Note_off_c, 0, 83, 64
2, 529820, Note_off_c, 0, 55, 64
2, 529824, Note_on_c, 0, 71, 90
2, 529824, Note_on_c, 0, 67, 90
2, 529916, Note_off_c, 0, 71, 64
2, 529916, Note_off_c, 0, 67, 64
2, 529920, Note_on_c, 0, 81, 92
2, 530012, Note_off_c, 0, 81, 64
2, 530016, Note_on_c, 0, 77, 90
2, 530108, Note_off_c, 0, 77, 64
2, 530112, Note_on_c, 0, 72, 90
2, 530204, Note_off_c, 0, 72, 64
2, 530208, Note_on_c, 0, 69, 90
2, 530300, Note_off_c, 0, 69, 64
2, 530304, Note_on_c, 0, 68, 90
2, 530396, Note_off_c, 0, 68, 64
2, 530400, Note_on_c, 0, 69, 90
2, 530492, Note_off_c, 0, 69, 64
2, 530496, Note_on_c, 0, 72, 90
2, 530588, Note_off_c, 0, 72, 64
2, 530592, Note_on_c, 0, 77, 90
2, 530684, Note_off_c, 0, 77, 64
2, 530688, Note_on_c, 0, 81, 92
2, 530780, Note_off_c, 0, 81, 64
2, 530784, Note_on_c, 0, 77, 90
2, 530876, Note_off_c, 0, 77, 64
2, 530880, Note_on_c, 0, 72, 90
2, 530972, Note_off_c, 0, 72, 64
2, 530976, Note_on_c, 0, 69, 90
2, 531068, Note_off_c, 0, 69, 64
2, 531072, Note_on_c, 0, 81, 92
2, 531164, Note_off_c, 0, 81, 64
2, 531168, Note_on_c, 0, 69, 90
2, 531260, Note_off_c, 0, 69, 64
2, 531264, Note_on_c, 0, 79, 91
2, 531356, Note_off_c, 0, 79, 64
2, 531360, Note_on_c, 0, 67, 90
2, 531452, Note_off_c, 0, 67, 64
2, 531456, Note_on_c, 0, 77, 90
2, 531548, Note_off_c, 0, 77, 64
2, 531552, Note_on_c, 0, 74, 90
2, 531644, Note_off_c, 0, 74, 64
2, 531648, Note_on_c, 0, 69, 90
2, 531740, Note_off_c, 0, 69, 64
2, 531744, Note_on_c, 0, 65, 90
2, 531836, Note_off_c, 0, 65, 64
2, 531840, Note_on_c, 0, 77, 90
2, 531932, Note_off_c, 0, 77, 64
2, 531936, Note_on_c, 0, 65, 90
2, 532028, Note_off_c, 0, 65, 64
2, 532032, Note_on_c, 0, 76, 90
2, 532124, Note_off_c, 0, 76, 64
2, 532128, Note_on_c, 0, 64, 90
2, 532220, Note_off_c, 0, 64, 64
2, 532224, Note_on_c, 0, 74, 90
2, 532316, Note_off_c, 0, 74, 64
2, 532320, Note_on_c, 0, 71, 90
2, 532412, Note_off_c, 0, 71, 64
2, 532416, Note_on_c, 0, 65, 90
2, 532508, Note_off_c, 0, 65, 64
2, 532512, Note_on_c, 0, 62, 90
2, 532604, Note_off_c, 0, 62, 64
2, 532608, Note_on_c, 0, 74, 90
2, 532700, Note_off_c, 0, 74, 64
2, 532704, Note_on_c, 0, 62, 90
2, 532796, Note_off_c, 0, 62, 64
2, 532800, Note_on_c, 0, 72, 90
2, 532892, Note_off_c, 0, 72, 64
2, 532896, Note_on_c, 0, 60, 90
2, 532988, Note_off_c, 0, 60, 64
2, 532992, Note_on_c, 0, 71, 90
2, 533084, Note_off_c, 0, 71, 64
2, 533088, Note_on_c, 0, 77, 90
2, 533180, Note_off_c, 0, 77, 64
2, 533184, Note_on_c, 0, 74, 90
2, 533276, Note_off_c, 0, 74, 64
2, 533280, Note_on_c, 0, 71, 90
2, 533372, Note_off_c, 0, 71, 64
2, 533376, Note_on_c, 0, 67, 90
2, 533468, Note_off_c, 0, 67, 64
2, 533472, Note_on_c, 0, 77, 90
2, 533564, Note_off_c, 0, 77, 64
2, 533568, Note_on_c, 0, 68, 90
2, 533660, Note_off_c, 0, 68, 64
2, 533664, Note_on_c, 0, 77, 90
2, 533756, Note_off_c, 0, 77, 64
2, 533760, Note_on_c, 0, 67, 90
2, 533852, Note_off_c, 0, 67, 64
2, 533856, Note_on_c, 0, 77, 90
2, 533948, Note_off_c, 0, 77, 64
2, 533952, Note_on_c, 0, 68, 90
2, 534044, Note_off_c, 0, 68, 64
2, 534048, Note_on_c, 0, 77, 90
2, 534140, Note_off_c, 0, 77, 64
2, 534144, Note_on_c, 0, 67, 90
2, 534236, Note_off_c, 0, 67, 64
2, 534240, Note_on_c, 0, 77, 90
2, 534332, Note_off_c, 0, 77, 64
2, 534336, Note_on_c, 0, 68, 90
2, 534428, Note_off_c, 0, 68, 64
2, 534432, Note_on_c, 0, 77, 90
2, 534524, Note_off_c, 0, 77, 64
2, 534528, Note_on_c, 0, 71, 90
2, 534620, Note_off_c, 0, 71, 64
2, 534624, Note_on_c, 0, 77, 90
2, 534716, Note_off_c, 0, 77, 64
2, 534720, Note_on_c, 0, 74, 90
2, 534812, Note_off_c, 0, 74, 64
2, 534816, Note_on_c, 0, 71, 90
2, 534908, Note_off_c, 0, 71, 64
2, 534912, Note_on_c, 0, 67, 90
2, 535004, Note_off_c, 0, 67, 64
2, 535008, Note_on_c, 0, 77, 90
2, 535100, Note_off_c, 0, 77, 64
2, 535104, Note_on_c, 0, 68, 90
2, 535196, Note_off_c, 0, 68, 64
2, 535200, Note_on_c, 0, 77, 90
2, 535292, Note_off_c, 0, 77, 64
2, 535296, Note_on_c, 0, 67, 90
2, 535388, Note_off_c, 0, 67, 64
2, 535392, Note_on_c, 0, 77, 90
2, 535484, Note_off_c, 0, 77, 64
2, 535488, Note_on_c, 0, 68, 90
2, 535580, Note_off_c, 0, 68, 64
2, 535584, Note_on_c, 0, 77, 90
2, 535676, Note_off_c, 0, 77, 64
2, 535680, Note_on_c, 0, 67, 90
2, 535772, Note_off_c, 0, 67, 64
2, 535776, Note_on_c, 0, 77, 90
2, 535868, Note_off_c, 0, 77, 64
2, 535872, Note_on_c, 0, 68, 90
2, 535964, Note_off_c, 0, 68, 64
2, 535968, Note_on_c, 0, 77, 90
2, 536060, Note_off_c, 0, 77, 64
2, 536064, Note_on_c, 0, 67, 90
2, 536156, Note_off_c, 0, 67, 64
2, 536160, Note_on_c, 0, 77, 90
2, 536252, Note_off_c, 0, 77, 64
2, 536256, Note_on_c, 0, 66, 90
2, 536348, Note_off_c, 0, 66, 64
2, 536352, Note_on_c, 0, 77, 90
2, 536444, Note_off_c, 0, 77, 64
2, 536448, Note_on_c, 0, 67, 90
2, 536540, Note_off_c, 0, 67, 64
2, 536544, Note_on_c, 0, 77, 90
2, 536636, Note_off_c, 0, 77, 64
2, 536640, Note_on_c, 0, 68, 90
2, 536732, Note_off_c, 0, 68, 64
2, 536736, Note_on_c, 0, 77, 90
2, 536828, Note_off_c, 0, 77, 64
2, 536832, Note_on_c, 0, 69, 90
2, 536924, Note_off_c, 0, 69, 64
2, 536928, Note_on_c, 0, 77, 90
2, 537020, Note_off_c, 0, 77, 64
2, 537024, Note_on_c, 0, 70, 90
2, 537116, Note_off_c, 0, 70, 64
2, 537120, Note_on_c, 0, 77, 90
2, 537212, Note_off_c, 0, 77, 64
2, 537216, Note_on_c, 0, 71, 90
2, 537308, Note_off_c, 0, 71, 64
2, 537312, Note_on_c, 0, 77, 90
2, 537404, Note_off_c, 0, 77, 64
2, 537408, Note_on_c, 0, 72, 90
2, 537500, Note_off_c, 0, 72, 64
2, 537504, Note_on_c, 0, 77, 90
2, 537596, Note_off_c, 0, 77, 64
2, 537600, Note_on_c, 0, 73, 90
2, 537692, Note_off_c, 0, 73, 64
2, 537696, Note_on_c, 0, 77, 90
2, 537788, Note_off_c, 0, 77, 64
2, 537792, Note_on_c, 0, 74, 90
2, 537884, Note_off_c, 0, 74, 64
2, 537888, Note_on_c, 0, 77, 90
2, 537980, Note_off_c, 0, 77, 64
2, 537984, Note_on_c, 0, 73, 90
2, 538076, Note_off_c, 0, 73, 64
2, 538080, Note_on_c, 0, 77, 90
2, 538172, Note_off_c, 0, 77, 64
2, 538176, Note_on_c, 0, 72, 90
2, 538268, Note_off_c, 0, 72, 64
2, 538272, Note_on_c, 0, 77, 90
2, 538364, Note_off_c, 0, 77, 64
2, 538368, Note_on_c, 0, 71, 90
2, 538460, Note_off_c, 0, 71, 64
2, 538464, Note_on_c, 0, 77, 90
2, 538556, Note_off_c, 0, 77, 64
2, 538560, Note_on_c, 0, 70, 90
2, 538652, Note_off_c, 0, 70, 64
2, 538656, Note_on_c, 0, 77, 90
2, 538748, Note_off_c, 0, 77, 64
2, 538752, Note_on_c, 0, 69, 90
2, 538844, Note_off_c, 0, 69, 64
2, 538848, Note_on_c, 0, 77, 90
2, 538940, Note_off_c, 0, 77, 64
2, 538944, Note_on_c, 0, 68, 90
2, 539036, Note_off_c, 0, 68, 64
2, 539040, Note_on_c, 0, 77, 90
2, 539132, Note_off_c, 0, 77, 64
2, 539136, Note_on_c, 0, 77, 90
2, 539228, Note_off_c, 0, 77, 64
2, 539232, Note_on_c, 0, 74, 90
2, 539324, Note_off_c, 0, 74, 64
2, 539328, Note_on_c, 0, 71, 90
2, 539420, Note_off_c, 0, 71, 64
2, 539424, Note_on_c, 0, 74, 90
2, 539516, Note_off_c, 0, 74, 64
2, 539520, Note_on_c, 0, 77, 90
2, 539612, Note_off_c, 0, 77, 64
2, 539616, Note_on_c, 0, 74, 90
2, 539708, Note_off_c, 0, 74, 64
2, 539712, Note_on_c, 0, 76, 90
2, 539804, Note_off_c, 0, 76, 64
2, 539808, Note_on_c, 0, 73, 90
2, 539900, Note_off_c, 0, 73, 64
2, 539904, Note_on_c, 0, 77, 90
2, 539996, Note_off_c, 0, 77, 64
2, 540000, Note_on_c, 0, 74, 90
2, 540092, Note_off_c, 0, 74, 64
2, 540096, Note_on_c, 0, 76, 90
2, 540188, Note_off_c, 0, 76, 64
2, 540192, Note_on_c, 0, 73, 90
2, 540284, Note_off_c, 0, 73, 64
2, 540288, Note_on_c, 0, 77, 90
2, 540380, Note_off_c, 0, 77, 64
2, 540384, Note_on_c, 0, 74, 90
2, 540476, Note_off_c, 0, 74, 64
2, 540480, Note_on_c, 0, 76, 90
2, 540572, Note_off_c, 0, 76, 64
2, 540576, Note_on_c, 0, 73, 90
2, 540668, Note_off_c, 0, 73, 64
2, 540672, Note_on_c, 0, 77, 90
2, 540764, Note_off_c, 0, 77, 64
2, 540768, Note_on_c, 0, 83, 93
2, 540860, Note_off_c, 0, 83, 64
2, 540864, Note_on_c, 0, 86, 95
2, 540956, Note_off_c, 0, 86, 64
2, 540960, Note_on_c, 0, 83, 93
2, 541052, Note_off_c, 0, 83, 64
2, 541056, Note_on_c, 0, 89, 96
2, 541148, Note_off_c, 0, 89, 64
2, 541152, Note_on_c, 0, 86, 95
2, 541244, Note_off_c, 0, 86, 64
2, 541248, Note_on_c, 0, 88, 96
2, 541340, Note_off_c, 0, 88, 64
2, 541344, Note_on_c, 0, 85, 94
2, 541436, Note_off_c, 0, 85, 64
2, 541440, Note_on_c, 0, 89, 96
2, 541532, Note_off_c, 0, 89, 64
2, 541536, Note_on_c, 0, 86, 95
2, 541628, Note_off_c, 0, 86, 64
2, 541632, Note_on_c, 0, 88, 96
2, 541724, Note_off_c, 0, 88, 64
2, 541728, Note_on_c, 0, 85, 94
2, 541820, Note_off_c, 0, 85, 64
2, 541824, Note_on_c, 0, 89, 97
2, 541916, Note_off_c, 0, 89, 64
2, 541920, Note_on_c, 0, 86, 95
2, 542012, Note_off_c, 0, 86, 64
2, 542016, Note_on_c, 0, 88, 96
2, 542108, Note_off_c, 0, 88, 64
2, 542112, Note_on_c, 0, 85, 95
2, 542204, Note_off_c, 0, 85, 64
2, 542208, Note_on_c, 0, 89, 97
2, 542300, Note_off_c, 0, 89, 64
2, 542304, Note_on_c, 0, 86, 95
2, 542396, Note_off_c, 0, 86, 64
2, 542400, Note_on_c, 0, 88, 96
2, 542492, Note_off_c, 0, 88, 64
2, 542496, Note_on_c, 0, 84, 94
2, 542588, Note_off_c, 0, 84, 64
2, 542592, Note_on_c, 0, 86, 95
2, 542684, Note_off_c, 0, 86, 64
2, 542688, Note_on_c, 0, 83, 93
2, 542780, Note_off_c, 0, 83, 64
2, 542784, Note_on_c, 0, 84, 94
2, 542876, Note_off_c, 0, 84, 64
2, 542880, Note_on_c, 0, 81, 92
2, 542972, Note_off_c, 0, 81, 64
2, 542976, Note_on_c, 0, 83, 93
2, 543068, Note_off_c, 0, 83, 64
2, 543072, Note_on_c, 0, 79, 91
2, 543164, Note_off_c, 0, 79, 64
2, 543168, Note_on_c, 0, 81, 92
2, 543260, Note_off_c, 0, 81, 64
2, 543264, Note_on_c, 0, 77, 90
2, 543356, Note_off_c, 0, 77, 64
2, 543360, Note_on_c, 0, 79, 91
2, 543452, Note_off_c, 0, 79, 64
2, 543456, Note_on_c, 0, 76, 90
2, 543548, Note_off_c, 0, 76, 64
2, 543552, Note_on_c, 0, 78, 90
2, 543644, Note_off_c, 0, 78, 64
2, 543648, Note_on_c, 0, 75, 90
2, 543740, Note_off_c, 0, 75, 64
2, 543744, Note_on_c, 0, 77, 90
2, 543836, Note_off_c, 0, 77, 64
2, 543840, Note_on_c, 0, 74, 90
2, 543932, Note_off_c, 0, 74, 64
2, 543936, Note_on_c, 0, 76, 88
2, 544028, Note_off_c, 0, 76, 64
2, 544032, Note_on_c, 0, 72, 87
2, 544124, Note_off_c, 0, 72, 64
2, 544128, Note_on_c, 0, 74, 85
2, 544220, Note_off_c, 0, 74, 64
2, 544224, Note_on_c, 0, 71, 84
2, 544316, Note_off_c, 0, 71, 64
2, 544320, Note_on_c, 0, 72, 82
2, 544412, Note_off_c, 0, 72, 64
2, 544416, Note_on_c, 0, 69, 80
2, 544508, Note_off_c, 0, 69, 64
2, 544512, Note_on_c, 0, 71, 79
2, 544604, Note_off_c, 0, 71, 64
2, 544608, Note_on_c, 0, 67, 77
2, 544700, Note_off_c, 0, 67, 64
2, 544704, Note_on_c, 0, 69, 76
2, 544796, Note_off_c, 0, 69, 64
2, 544800, Note_on_c, 0, 65, 74
2, 544892, Note_off_c, 0, 65, 64
2, 544896, Note_on_c, 0, 67, 72
2, 544988, Note_off_c, 0, 67, 64
2, 544992, Note_on_c, 0, 64, 71
2, 545084, Note_off_c, 0, 64, 64
2, 545088, Note_on_c, 0, 65, 69
2, 545180, Note_off_c, 0, 65, 64
2, 545184, Note_on_c, 0, 62, 68
2, 545276, Note_off_c, 0, 62, 64
2, 545280, Note_on_c, 0, 64, 66
2, 545660, Note_off_c, 0, 64, 64
2, 551424, Note_on_c, 0, 79, 66
2, 551424, Note_on_c, 0, 76, 65
2, 551424, Note_on_c, 0, 67, 65
2, 551424, Note_on_c, 0, 64, 65
2, 552188, Note_off_c, 0, 79, 64
2, 552188, Note_off_c, 0, 76, 64
2, 552188, Note_off_c, 0, 67, 64
2, 552188, Note_off_c, 0, 64, 64
2, 552192, Note_on_c, 0, 76, 65
2, 552192, Note_on_c, 0, 72, 65
2, 552192, Note_on_c, 0, 64, 65
2, 552192, Note_on_c, 0, 60, 65
2, 552572, Note_off_c, 0, 76, 64
2, 552572, Note_off_c, 0, 72, 64
2, 552572, Note_off_c, 0, 64, 64
2, 552572, Note_off_c, 0, 60, 64
2, 552960, Note_on_c, 0, 84, 66
2, 552960, Note_on_c, 0, 72, 65
2, 552960, Note_on_c, 0, 64, 65
2, 553104, Note_off_c, 0, 84, 64
2, 553104, Note_on_c, 0, 86, 75
2, 553144, Note_off_c, 0, 86, 64
2, 553152, Note_on_c, 0, 84, 69
2, 553244, Note_off_c, 0, 84, 64
2, 553248, Note_on_c, 0, 83, 68
2, 553340, Note_off_c, 0, 83, 64
2, 553344, Note_on_c, 0, 84, 69
2, 553532, Note_off_c, 0, 72, 64
2, 553532, Note_off_c, 0, 64, 64
2, 553532, Note_off_c, 0, 84, 64
2, 553536, Note_on_c, 0, 86, 70
2, 553536, Note_on_c, 0, 74, 65
2, 553536, Note_on_c, 0, 67, 65
2, 553628, Note_off_c, 0, 86, 64
2, 553724, Note_off_c, 0, 74, 64
2, 553724, Note_off_c, 0, 67, 64
2, 553728, Note_on_c, 0, 88, 71
2, 553728, Note_on_c, 0, 76, 65
2, 553728, Note_on_c, 0, 72, 65
2, 554108, Note_off_c, 0, 88, 64
2, 554108, Note_off_c, 0, 76, 64
2, 554108, Note_off_c, 0, 72, 64
2, 554304, Note_on_c, 0, 79, 66
2, 554304, Note_on_c, 0, 67, 65
2, 554492, Note_off_c, 0, 79, 64
2, 554492, Note_off_c, 0, 67, 64
2, 554496, Note_on_c, 0, 79, 66
2, 554496, Note_on_c, 0, 67, 65
2, 554684, Note_off_c, 0, 79, 64
2, 554684, Note_off_c, 0, 67, 64
2, 554688, Note_on_c, 0, 89, 72
2, 554688, Note_on_c, 0, 77, 66
2, 554876, Note_off_c, 0, 89, 64
2, 554876, Note_off_c, 0, 77, 64
2, 554880, Note_on_c, 0, 76, 65
2, 554880, Note_on_c, 0, 88, 71
2, 555068, Note_off_c, 0, 76, 64
2, 555068, Note_off_c, 0, 88, 64
2, 555072, Note_on_c, 0, 86, 70
2, 555072, Note_on_c, 0, 74, 65
2, 555260, Note_off_c, 0, 86, 64
2, 555260, Note_off_c, 0, 74, 64
2, 555264, Note_on_c, 0, 84, 69
2, 555264, Note_on_c, 0, 72, 65
2, 555452, Note_off_c, 0, 84, 64
2, 555452, Note_off_c, 0, 72, 64
2, 555456, Note_on_c, 0, 83, 68
2, 555456, Note_on_c, 0, 71, 65
2, 555644, Note_off_c, 0, 83, 64
2, 555644, Note_off_c, 0, 71, 64
2, 555648, Note_on_c, 0, 81, 67
2, 555648, Note_on_c, 0, 69, 65
2, 555836, Note_off_c, 0, 81, 64
2, 555836, Note_off_c, 0, 69, 64
2, 555840, Note_on_c, 0, 79, 66
2, 555840, Note_on_c, 0, 67, 65
2, 556028, Note_off_c, 0, 79, 64
2, 556028, Note_off_c, 0, 67, 64
2, 556032, Note_on_c, 0, 78, 65
2, 556032, Note_on_c, 0, 66, 65
2, 556220, Note_off_c, 0, 78, 64
2, 556220, Note_off_c, 0, 66, 64
2, 556224, Note_on_c, 0, 79, 66
2, 556224, Note_on_c, 0, 67, 65
2, 556412, Note_off_c, 0, 79, 64
2, 556412, Note_off_c, 0, 67, 64
2, 556416, Note_on_c, 0, 81, 67
2, 556416, Note_on_c, 0, 69, 65
2, 556604, Note_off_c, 0, 81, 64
2, 556604, Note_off_c, 0, 69, 64
2, 556608, Note_on_c, 0, 79, 66
2, 556608, Note_on_c, 0, 67, 65
2, 556796, Note_off_c, 0, 79, 64
2, 556796, Note_off_c, 0, 67, 64
2, 556800, Note_on_c, 0, 79, 66
2, 556800, Note_on_c, 0, 67, 65
2, 556988, Note_off_c, 0, 79, 64
2, 556988, Note_off_c, 0, 67, 64
2, 556992, Note_on_c, 0, 78, 66
2, 556992, Note_on_c, 0, 66, 65
2, 557180, Note_off_c, 0, 78, 64
2, 557180, Note_off_c, 0, 66, 64
2, 557184, Note_on_c, 0, 77, 65
2, 557184, Note_on_c, 0, 65, 65
2, 557372, Note_off_c, 0, 77, 64
2, 557372, Note_off_c, 0, 65, 64
2, 557376, Note_on_c, 0, 74, 65
2, 557376, Note_on_c, 0, 62, 65
2, 557564, Note_off_c, 0, 74, 64
2, 557564, Note_off_c, 0, 62, 64
2, 557568, Note_on_c, 0, 72, 65
2, 557948, Note_off_c, 0, 72, 64
2, 558528, Note_on_c, 0, 88, 75
2, 558528, Note_on_c, 0, 84, 73
2, 558716, Note_off_c, 0, 88, 64
2, 558720, Note_on_c, 0, 86, 75
2, 558908, Note_off_c, 0, 84, 64
2, 558912, Note_on_c, 0, 83, 74
2, 559100, Note_off_c, 0, 86, 64
2, 559100, Note_off_c, 0, 83, 64
2, 559104, Note_on_c, 0, 84, 76
2, 559104, Note_on_c, 0, 81, 74
2, 559104, Note_on_c, 0, 76, 72
2, 559484, Note_off_c, 0, 84, 64
2, 559484, Note_off_c, 0, 81, 64
2, 559484, Note_off_c, 0, 76, 64
2, 560064, Note_on_c, 0, 84, 78
2, 560064, Note_on_c, 0, 81, 78
2, 560252, Note_off_c, 0, 84, 64
2, 560256, Note_on_c, 0, 83, 79
2, 560444, Note_off_c, 0, 81, 64
2, 560448, Note_on_c, 0, 79, 80
2, 560636, Note_off_c, 0, 83, 64
2, 560636, Note_off_c, 0, 79, 64
2, 560640, Note_on_c, 0, 81, 81
2, 560640, Note_on_c, 0, 77, 81
2, 560640, Note_on_c, 0, 72, 81
2, 561020, Note_off_c, 0, 81, 64
2, 561020, Note_off_c, 0, 77, 64
2, 561020, Note_off_c, 0, 72, 64
2, 561600, Note_on_c, 0, 81, 89
2, 561600, Note_on_c, 0, 77, 87
2, 561788, Note_off_c, 0, 81, 64
2, 561792, Note_on_c, 0, 79, 89
2, 561980, Note_off_c, 0, 77, 64
2, 561984, Note_on_c, 0, 76, 89
2, 562172, Note_off_c, 0, 79, 64
2, 562172, Note_off_c, 0, 76, 64
2, 562176, Note_on_c, 0, 77, 90
2, 562268, Note_off_c, 0, 77, 64
2, 562272, Note_on_c, 0, 89, 97
2, 562364, Note_off_c, 0, 89, 64
2, 562368, Note_on_c, 0, 77, 90
2, 562460, Note_off_c, 0, 77, 64
2, 562464, Note_on_c, 0, 76, 90
2, 562556, Note_off_c, 0, 76, 64
2, 562560, Note_on_c, 0, 74, 90
2, 562652, Note_off_c, 0, 74, 64
2, 562656, Note_on_c, 0, 86, 95
2, 562748, Note_off_c, 0, 86, 64
2, 562752, Note_on_c, 0, 74, 90
2, 562844, Note_off_c, 0, 74, 64
2, 562848, Note_on_c, 0, 72, 90
2, 562940, Note_off_c, 0, 72, 64
2, 562944, Note_on_c, 0, 71, 90
2, 563036, Note_off_c, 0, 71, 64
2, 563040, Note_on_c, 0, 83, 93
2, 563132, Note_off_c, 0, 83, 64
2, 563136, Note_on_c, 0, 71, 90
2, 563228, Note_off_c, 0, 71, 64
2, 563232, Note_on_c, 0, 69, 90
2, 563324, Note_off_c, 0, 69, 64
2, 563328, Note_on_c, 0, 67, 90
2, 563420, Note_off_c, 0, 67, 64
2, 563424, Note_on_c, 0, 79, 91
2, 563516, Note_off_c, 0, 79, 64
2, 563520, Note_on_c, 0, 67, 90
2, 563612, Note_off_c, 0, 67, 64
2, 563616, Note_on_c, 0, 65, 90
2, 563708, Note_off_c, 0, 65, 64
2, 563712, Note_on_c, 0, 64, 90
2, 563804, Note_off_c, 0, 64, 64
2, 563808, Note_on_c, 0, 60, 90
2, 563900, Note_off_c, 0, 60, 64
2, 563904, Note_on_c, 0, 67, 90
2, 563996, Note_off_c, 0, 67, 64
2, 564000, Note_on_c, 0, 64, 90
2, 564092, Note_off_c, 0, 64, 64
2, 564096, Note_on_c, 0, 72, 90
2, 564188, Note_off_c, 0, 72, 64
2, 564192, Note_on_c, 0, 67, 90
2, 564284, Note_off_c, 0, 67, 64
2, 564288, Note_on_c, 0, 76, 90
2, 564380, Note_off_c, 0, 76, 64
2, 564384, Note_on_c, 0, 72, 90
2, 564476, Note_off_c, 0, 72, 64
2, 564480, Note_on_c, 0, 79, 91
2, 564572, Note_off_c, 0, 79, 64
2, 564576, Note_on_c, 0, 76, 90
2, 564668, Note_off_c, 0, 76, 64
2, 564672, Note_on_c, 0, 84, 94
2, 564764, Note_off_c, 0, 84, 64
2, 564768, Note_on_c, 0, 79, 90
2, 564860, Note_off_c, 0, 79, 64
2, 564864, Note_on_c, 0, 76, 90
2, 564956, Note_off_c, 0, 76, 64
2, 564960, Note_on_c, 0, 72, 90
2, 565052, Note_off_c, 0, 72, 64
2, 565056, Note_on_c, 0, 67, 90
2, 565148, Note_off_c, 0, 67, 64
2, 565152, Note_on_c, 0, 64, 90
2, 565244, Note_off_c, 0, 64, 64
2, 565248, Note_on_c, 0, 62, 90
2, 565340, Note_off_c, 0, 62, 64
2, 565344, Note_on_c, 0, 57, 90
2, 565436, Note_off_c, 0, 57, 64
2, 565440, Note_on_c, 0, 65, 90
2, 565532, Note_off_c, 0, 65, 64
2, 565536, Note_on_c, 0, 62, 90
2, 565628, Note_off_c, 0, 62, 64
2, 565632, Note_on_c, 0, 69, 90
2, 565724, Note_off_c, 0, 69, 64
2, 565728, Note_on_c, 0, 65, 90
2, 565820, Note_off_c, 0, 65, 64
2, 565824, Note_on_c, 0, 74, 90
2, 565916, Note_off_c, 0, 74, 64
2, 565920, Note_on_c, 0, 69, 90
2, 566012, Note_off_c, 0, 69, 64
2, 566016, Note_on_c, 0, 77, 90
2, 566108, Note_off_c, 0, 77, 64
2, 566112, Note_on_c, 0, 74, 90
2, 566204, Note_off_c, 0, 74, 64
2, 566208, Note_on_c, 0, 81, 92
2, 566300, Note_off_c, 0, 81, 64
2, 566304, Note_on_c, 0, 77, 90
2, 566396, Note_off_c, 0, 77, 64
2, 566400, Note_on_c, 0, 74, 90
2, 566492, Note_off_c, 0, 74, 64
2, 566496, Note_on_c, 0, 69, 90
2, 566588, Note_off_c, 0, 69, 64
2, 566592, Note_on_c, 0, 65, 90
2, 566684, Note_off_c, 0, 65, 64
2, 566688, Note_on_c, 0, 62, 90
2, 566780, Note_off_c, 0, 62, 64
2, 566784, Note_on_c, 0, 60, 90
2, 566876, Note_off_c, 0, 60, 64
2, 566880, Note_on_c, 0, 64, 90
2, 566972, Note_off_c, 0, 64, 64
2, 566976, Note_on_c, 0, 67, 90
2, 567068, Note_off_c, 0, 67, 64
2, 567072, Note_on_c, 0, 72, 90
2, 567164, Note_off_c, 0, 72, 64
2, 567168, Note_on_c, 0, 67, 90
2, 567260, Note_off_c, 0, 67, 64
2, 567264, Note_on_c, 0, 72, 90
2, 567356, Note_off_c, 0, 72, 64
2, 567360, Note_on_c, 0, 76, 90
2, 567452, Note_off_c, 0, 76, 64
2, 567456, Note_on_c, 0, 79, 91
2, 567548, Note_off_c, 0, 79, 64
2, 567552, Note_on_c, 0, 74, 90
2, 567592, Note_off_c, 0, 74, 64
2, 567600, Note_on_c, 0, 76, 90
2, 567640, Note_off_c, 0, 76, 64
2, 567648, Note_on_c, 0, 74, 90
2, 567688, Note_off_c, 0, 74, 64
2, 567696, Note_on_c, 0, 76, 90
2, 567736, Note_off_c, 0, 76, 64
2, 567744, Note_on_c, 0, 74, 90
2, 567784, Note_off_c, 0, 74, 64
2, 567792, Note_on_c, 0, 76, 90
2, 567832, Note_off_c, 0, 76, 64
2, 567840, Note_on_c, 0, 74, 90
2, 567880, Note_off_c, 0, 74, 64
2, 567888, Note_on_c, 0, 76, 90
2, 567928, Note_off_c, 0, 76, 64
2, 567936, Note_on_c, 0, 74, 90
2, 567976, Note_off_c, 0, 74, 64
2, 567984, Note_on_c, 0, 76, 90
2, 568024, Note_off_c, 0, 76, 64
2, 568032, Note_on_c, 0, 74, 90
2, 568072, Note_off_c, 0, 74, 64
2, 568080, Note_on_c, 0, 76, 90
2, 568120, Note_off_c, 0, 76, 64
2, 568128, Note_on_c, 0, 74, 90
2, 568168, Note_off_c, 0, 74, 64
2, 568176, Note_on_c, 0, 76, 90
2, 568216, Note_off_c, 0, 76, 64
2, 568224, Note_on_c, 0, 72, 90
2, 568264, Note_off_c, 0, 72, 64
2, 568272, Note_on_c, 0, 74, 90
2, 568312, Note_off_c, 0, 74, 64
2, 568416, Note_on_c, 0, 60, 90
2, 568508, Note_off_c, 0, 60, 64
2, 568512, Note_on_c, 0, 62, 90
2, 568604, Note_off_c, 0, 62, 64
2, 568608, Note_on_c, 0, 64, 90
2, 568700, Note_off_c, 0, 64, 64
2, 568704, Note_on_c, 0, 65, 90
2, 568796, Note_off_c, 0, 65, 64
2, 568800, Note_on_c, 0, 67, 90
2, 568892, Note_off_c, 0, 67, 64
2, 568896, Note_on_c, 0, 69, 90
2, 568988, Note_off_c, 0, 69, 64
2, 568992, Note_on_c, 0, 71, 90
2, 569084, Note_off_c, 0, 71, 64
2, 569088, Note_on_c, 0, 72, 90
2, 569180, Note_off_c, 0, 72, 64
2, 569184, Note_on_c, 0, 74, 90
2, 569276, Note_off_c, 0, 74, 64
2, 569280, Note_on_c, 0, 76, 90
2, 569372, Note_off_c, 0, 76, 64
2, 569376, Note_on_c, 0, 77, 90
2, 569468, Note_off_c, 0, 77, 64
2, 569472, Note_on_c, 0, 79, 91
2, 569564, Note_off_c, 0, 79, 64
2, 569664, Note_on_c, 0, 67, 90
2, 569756, Note_off_c, 0, 67, 64
2, 569952, Note_on_c, 0, 69, 85
2, 570044, Note_off_c, 0, 69, 64
2, 570048, Note_on_c, 0, 71, 86
2, 570140, Note_off_c, 0, 71, 64
2, 570144, Note_on_c, 0, 72, 87
2, 570236, Note_off_c, 0, 72, 64
2, 570240, Note_on_c, 0, 74, 88
2, 570332, Note_off_c, 0, 74, 64
2, 570336, Note_on_c, 0, 76, 89
2, 570428, Note_off_c, 0, 76, 64
2, 570432, Note_on_c, 0, 78, 90
2, 570524, Note_off_c, 0, 78, 64
2, 570528, Note_on_c, 0, 80, 91
2, 570620, Note_off_c, 0, 80, 64
2, 570624, Note_on_c, 0, 81, 92
2, 570716, Note_off_c, 0, 81, 64
2, 570720, Note_on_c, 0, 83, 93
2, 570812, Note_off_c, 0, 83, 64
2, 570816, Note_on_c, 0, 84, 94
2, 570908, Note_off_c, 0, 84, 64
2, 570912, Note_on_c, 0, 86, 95
2, 571004, Note_off_c, 0, 86, 64
2, 571008, Note_on_c, 0, 88, 96
2, 571100, Note_off_c, 0, 88, 64
2, 571200, Note_on_c, 0, 76, 89
2, 571292, Note_off_c, 0, 76, 64
2, 571488, Note_on_c, 0, 65, 83
2, 571580, Note_off_c, 0, 65, 64
2, 571584, Note_on_c, 0, 67, 84
2, 571676, Note_off_c, 0, 67, 64
2, 571680, Note_on_c, 0, 69, 85
2, 571772, Note_off_c, 0, 69, 64
2, 571776, Note_on_c, 0, 70, 86
2, 571868, Note_off_c, 0, 70, 64
2, 571872, Note_on_c, 0, 72, 87
2, 571964, Note_off_c, 0, 72, 64
2, 571968, Note_on_c, 0, 74, 88
2, 572060, Note_off_c, 0, 74, 64
2, 572064, Note_on_c, 0, 76, 89
2, 572156, Note_off_c, 0, 76, 64
2, 572160, Note_on_c, 0, 77, 90
2, 572252, Note_off_c, 0, 77, 64
2, 572256, Note_on_c, 0, 79, 91
2, 572348, Note_off_c, 0, 79, 64
2, 572352, Note_on_c, 0, 81, 92
2, 572444, Note_off_c, 0, 81, 64
2, 572448, Note_on_c, 0, 83, 93
2, 572540, Note_off_c, 0, 83, 64
2, 572544, Note_on_c, 0, 84, 94
2, 572636, Note_off_c, 0, 84, 64
2, 572736, Note_on_c, 0, 72, 87
2, 572828, Note_off_c, 0, 72, 64
2, 572928, Note_on_c, 0, 77, 90
2, 573020, Note_off_c, 0, 77, 64
2, 573024, Note_on_c, 0, 89, 97
2, 573116, Note_off_c, 0, 89, 64
2, 573120, Note_on_c, 0, 76, 90
2, 573212, Note_off_c, 0, 76, 64
2, 573216, Note_on_c, 0, 88, 96
2, 573308, Note_off_c, 0, 88, 64
2, 573312, Note_on_c, 0, 74, 90
2, 573404, Note_off_c, 0, 74, 64
2, 573408, Note_on_c, 0, 86, 95
2, 573500, Note_off_c, 0, 86, 64
2, 573504, Note_on_c, 0, 72, 90
2, 573596, Note_off_c, 0, 72, 64
2, 573600, Note_on_c, 0, 84, 94
2, 573692, Note_off_c, 0, 84, 64
2, 573696, Note_on_c, 0, 71, 90
2, 573788, Note_off_c, 0, 71, 64
2, 573792, Note_on_c, 0, 83, 93
2, 573884, Note_off_c, 0, 83, 64
2, 573888, Note_on_c, 0, 69, 90
2, 573980, Note_off_c, 0, 69, 64
2, 573984, Note_on_c, 0, 81, 92
2, 574076, Note_off_c, 0, 81, 64
2, 574080, Note_on_c, 0, 67, 90
2, 574172, Note_off_c, 0, 67, 64
2, 574176, Note_on_c, 0, 79, 91
2, 574268, Note_off_c, 0, 79, 64
2, 574272, Note_on_c, 0, 65, 90
2, 574364, Note_off_c, 0, 65, 64
2, 574368, Note_on_c, 0, 77, 90
2, 574460, Note_off_c, 0, 77, 64
2, 574464, Note_on_c, 0, 64, 90
2, 574844, Note_off_c, 0, 64, 64
2, 575232, Note_on_c, 0, 84, 94
2, 575324, Note_off_c, 0, 84, 64
2, 575328, Note_on_c, 0, 88, 96
2, 575420, Note_off_c, 0, 88, 64
2, 575424, Note_on_c, 0, 79, 91
2, 575516, Note_off_c, 0, 79, 64
2, 575520, Note_on_c, 0, 84, 94
2, 575612, Note_off_c, 0, 84, 64
2, 575616, Note_on_c, 0, 76, 89
2, 575708, Note_off_c, 0, 76, 64
2, 575712, Note_on_c, 0, 79, 91
2, 575804, Note_off_c, 0, 79, 64
2, 575808, Note_on_c, 0, 72, 87
2, 575900, Note_off_c, 0, 72, 64
2, 575904, Note_on_c, 0, 79, 91
2, 575996, Note_off_c, 0, 79, 64
2, 576000, Note_on_c, 0, 70, 90
2, 576380, Note_off_c, 0, 70, 64
2, 576768, Note_on_c, 0, 79, 91
2, 576860, Note_off_c, 0, 79, 64
2, 576864, Note_on_c, 0, 82, 93
2, 576956, Note_off_c, 0, 82, 64
2, 576960, Note_on_c, 0, 76, 89
2, 577052, Note_off_c, 0, 76, 64
2, 577056, Note_on_c, 0, 79, 91
2, 577148, Note_off_c, 0, 79, 64
2, 577152, Note_on_c, 0, 72, 87
2, 577244, Note_off_c, 0, 72, 64
2, 577248, Note_on_c, 0, 79, 91
2, 577340, Note_off_c, 0, 79, 64
2, 577344, Note_on_c, 0, 70, 86
2, 577436, Note_off_c, 0, 70, 64
2, 577440, Note_on_c, 0, 79, 91
2, 577532, Note_off_c, 0, 79, 64
2, 577536, Note_on_c, 0, 69, 90
2, 577916, Note_off_c, 0, 69, 64
2, 578304, Note_on_c, 0, 84, 94
2, 578396, Note_off_c, 0, 84, 64
2, 578400, Note_on_c, 0, 89, 97
2, 578492, Note_off_c, 0, 89, 64
2, 578496, Note_on_c, 0, 81, 92
2, 578588, Note_off_c, 0, 81, 64
2, 578592, Note_on_c, 0, 84, 94
2, 578684, Note_off_c, 0, 84, 64
2, 578688, Note_on_c, 0, 77, 90
2, 578780, Note_off_c, 0, 77, 64
2, 578784, Note_on_c, 0, 81, 92
2, 578876, Note_off_c, 0, 81, 64
2, 578880, Note_on_c, 0, 72, 90
2, 578972, Note_off_c, 0, 72, 64
2, 578976, Note_on_c, 0, 77, 90
2, 579068, Note_off_c, 0, 77, 64
2, 579072, Note_on_c, 0, 69, 90
2, 579452, Note_off_c, 0, 69, 64
2, 579840, Note_on_c, 0, 84, 94
2, 579932, Note_off_c, 0, 84, 64
2, 579936, Note_on_c, 0, 87, 96
2, 580028, Note_off_c, 0, 87, 64
2, 580032, Note_on_c, 0, 81, 92
2, 580124, Note_off_c, 0, 81, 64
2, 580128, Note_on_c, 0, 84, 94
2, 580220, Note_off_c, 0, 84, 64
2, 580224, Note_on_c, 0, 78, 90
2, 580316, Note_off_c, 0, 78, 64
2, 580320, Note_on_c, 0, 81, 92
2, 580412, Note_off_c, 0, 81, 64
2, 580416, Note_on_c, 0, 75, 90
2, 580508, Note_off_c, 0, 75, 64
2, 580512, Note_on_c, 0, 78, 90
2, 580604, Note_off_c, 0, 78, 64
2, 580608, Note_on_c, 0, 72, 90
2, 580700, Note_off_c, 0, 72, 64
2, 580704, Note_on_c, 0, 75, 90
2, 580796, Note_off_c, 0, 75, 64
2, 580800, Note_on_c, 0, 69, 90
2, 580892, Note_off_c, 0, 69, 64
2, 580896, Note_on_c, 0, 72, 90
2, 580988, Note_off_c, 0, 72, 64
2, 580992, Note_on_c, 0, 66, 90
2, 581084, Note_off_c, 0, 66, 64
2, 581088, Note_on_c, 0, 69, 90
2, 581180, Note_off_c, 0, 69, 64
2, 581184, Note_on_c, 0, 63, 90
2, 581276, Note_off_c, 0, 63, 64
2, 581280, Note_on_c, 0, 66, 90
2, 581372, Note_off_c, 0, 66, 64
2, 581376, Note_on_c, 0, 60, 90
2, 581468, Note_off_c, 0, 60, 64
2, 581472, Note_on_c, 0, 63, 90
2, 581564, Note_off_c, 0, 63, 64
2, 581568, Note_on_c, 0, 56, 90
2, 581660, Note_off_c, 0, 56, 64
2, 581664, Note_on_c, 0, 60, 90
2, 581756, Note_off_c, 0, 60, 64
2, 583296, Note_on_c, 0, 57, 90
2, 583388, Note_off_c, 0, 57, 64
2, 583392, Note_on_c, 0, 65, 90
2, 583484, Note_off_c, 0, 65, 64
2, 583488, Note_on_c, 0, 59, 90
2, 583580, Note_off_c, 0, 59, 64
2, 583584, Note_on_c, 0, 62, 90
2, 583676, Note_off_c, 0, 62, 64
2, 583680, Note_on_c, 0, 60, 90
2, 583772, Note_off_c, 0, 60, 64
2, 583776, Note_on_c, 0, 64, 90
2, 583868, Note_off_c, 0, 64, 64
2, 583872, Note_on_c, 0, 64, 90
2, 583964, Note_off_c, 0, 64, 64
2, 583968, Note_on_c, 0, 72, 90
2, 584060, Note_off_c, 0, 72, 64
2, 584064, Note_on_c, 0, 62, 90
2, 584156, Note_off_c, 0, 62, 64
2, 584160, Note_on_c, 0, 71, 90
2, 584252, Note_off_c, 0, 71, 64
2, 584256, Note_on_c, 0, 65, 90
2, 584348, Note_off_c, 0, 65, 64
2, 584352, Note_on_c, 0, 74, 90
2, 584444, Note_off_c, 0, 74, 64
2, 584448, Note_on_c, 0, 64, 90
2, 584540, Note_off_c, 0, 64, 64
2, 584544, Note_on_c, 0, 72, 90
2, 584636, Note_off_c, 0, 72, 64
2, 584640, Note_on_c, 0, 67, 90
2, 584732, Note_off_c, 0, 67, 64
2, 584736, Note_on_c, 0, 76, 90
2, 584828, Note_off_c, 0, 76, 64
2, 584832, Note_on_c, 0, 69, 90
2, 584924, Note_off_c, 0, 69, 64
2, 584928, Note_on_c, 0, 77, 90
2, 585020, Note_off_c, 0, 77, 64
2, 585024, Note_on_c, 0, 71, 90
2, 585116, Note_off_c, 0, 71, 64
2, 585120, Note_on_c, 0, 74, 90
2, 585212, Note_off_c, 0, 74, 64
2, 585216, Note_on_c, 0, 72, 90
2, 585308, Note_off_c, 0, 72, 64
2, 585312, Note_on_c, 0, 76, 90
2, 585404, Note_off_c, 0, 76, 64
2, 585408, Note_on_c, 0, 76, 90
2, 585500, Note_off_c, 0, 76, 64
2, 585504, Note_on_c, 0, 84, 94
2, 585596, Note_off_c, 0, 84, 64
2, 585600, Note_on_c, 0, 74, 90
2, 585692, Note_off_c, 0, 74, 64
2, 585696, Note_on_c, 0, 83, 92
2, 585788, Note_off_c, 0, 83, 64
2, 585792, Note_on_c, 0, 77, 90
2, 585884, Note_off_c, 0, 77, 64
2, 585888, Note_on_c, 0, 86, 95
2, 585980, Note_off_c, 0, 86, 64
2, 585984, Note_on_c, 0, 76, 90
2, 586076, Note_off_c, 0, 76, 64
2, 586080, Note_on_c, 0, 84, 94
2, 586172, Note_off_c, 0, 84, 64
2, 586176, Note_on_c, 0, 79, 91
2, 586268, Note_off_c, 0, 79, 64
2, 586272, Note_on_c, 0, 88, 96
2, 586364, Note_off_c, 0, 88, 64
2, 586368, Note_on_c, 0, 81, 92
2, 586460, Note_off_c, 0, 81, 64
2, 586464, Note_on_c, 0, 89, 97
2, 586556, Note_off_c, 0, 89, 64
2, 586560, Note_on_c, 0, 83, 93
2, 586652, Note_off_c, 0, 83, 64
2, 586656, Note_on_c, 0, 86, 95
2, 586748, Note_off_c, 0, 86, 64
2, 586752, Note_on_c, 0, 88, 96
2, 586752, Note_on_c, 0, 72, 90
2, 586844, Note_off_c, 0, 88, 64
2, 586844, Note_off_c, 0, 72, 64
2, 586848, Note_on_c, 0, 87, 95
2, 586848, Note_on_c, 0, 71, 90
2, 586940, Note_off_c, 0, 87, 64
2, 586940, Note_off_c, 0, 71, 64
2, 586944, Note_on_c, 0, 88, 96
2, 586944, Note_on_c, 0, 72, 90
2, 587036, Note_off_c, 0, 88, 64
2, 587036, Note_off_c, 0, 72, 64
2, 587040, Note_on_c, 0, 87, 95
2, 587040, Note_on_c, 0, 71, 90
2, 587132, Note_off_c, 0, 87, 64
2, 587132, Note_off_c, 0, 71, 64
2, 587136, Note_on_c, 0, 88, 96
2, 587136, Note_on_c, 0, 72, 90
2, 587228, Note_off_c, 0, 88, 64
2, 587228, Note_off_c, 0, 72, 64
2, 587232, Note_on_c, 0, 86, 95
2, 587232, Note_on_c, 0, 71, 90
2, 587324, Note_off_c, 0, 86, 64
2, 587324, Note_off_c, 0, 71, 64
2, 587328, Note_on_c, 0, 84, 94
2, 587328, Note_on_c, 0, 69, 90
2, 587420, Note_off_c, 0, 84, 64
2, 587420, Note_off_c, 0, 69, 64
2, 587424, Note_on_c, 0, 83, 93
2, 587424, Note_on_c, 0, 68, 90
2, 587516, Note_off_c, 0, 83, 64
2, 587516, Note_off_c, 0, 68, 64
2, 587520, Note_on_c, 0, 84, 94
2, 587520, Note_on_c, 0, 69, 90
2, 587612, Note_off_c, 0, 84, 64
2, 587612, Note_off_c, 0, 69, 64
2, 587616, Note_on_c, 0, 83, 93
2, 587616, Note_on_c, 0, 67, 90
2, 587708, Note_off_c, 0, 83, 64
2, 587708, Note_off_c, 0, 67, 64
2, 587712, Note_on_c, 0, 81, 92
2, 587712, Note_on_c, 0, 65, 90
2, 587804, Note_off_c, 0, 81, 64
2, 587804, Note_off_c, 0, 65, 64
2, 587808, Note_on_c, 0, 80, 91
2, 587808, Note_on_c, 0, 64, 90
2, 587900, Note_off_c, 0, 80, 64
2, 587900, Note_off_c, 0, 64, 64
2, 587904, Note_on_c, 0, 81, 92
2, 587904, Note_on_c, 0, 65, 90
2, 587996, Note_off_c, 0, 81, 64
2, 587996, Note_off_c, 0, 65, 64
2, 588000, Note_on_c, 0, 79, 91
2, 588000, Note_on_c, 0, 64, 90
2, 588092, Note_off_c, 0, 79, 64
2, 588092, Note_off_c, 0, 64, 64
2, 588096, Note_on_c, 0, 77, 90
2, 588096, Note_on_c, 0, 62, 90
2, 588188, Note_off_c, 0, 77, 64
2, 588188, Note_off_c, 0, 62, 64
2, 588192, Note_on_c, 0, 76, 90
2, 588192, Note_on_c, 0, 60, 90
2, 588284, Note_off_c, 0, 76, 64
2, 588284, Note_off_c, 0, 60, 64
2, 588288, Note_on_c, 0, 81, 90
2, 588380, Note_off_c, 0, 81, 64
2, 588384, Note_on_c, 0, 80, 92
2, 588476, Note_off_c, 0, 80, 64
2, 588480, Note_on_c, 0, 81, 91
2, 588572, Note_off_c, 0, 81, 64
2, 588576, Note_on_c, 0, 80, 92
2, 588668, Note_off_c, 0, 80, 64
2, 588672, Note_on_c, 0, 81, 91
2, 588764, Note_off_c, 0, 81, 64
2, 588768, Note_on_c, 0, 79, 92
2, 588860, Note_off_c, 0, 79, 64
2, 588864, Note_on_c, 0, 77, 90
2, 588956, Note_off_c, 0, 77, 64
2, 588960, Note_on_c, 0, 76, 91
2, 589052, Note_off_c, 0, 76, 64
2, 589056, Note_on_c, 0, 77, 90
2, 589148, Note_off_c, 0, 77, 64
2, 589152, Note_on_c, 0, 76, 90
2, 589244, Note_off_c, 0, 76, 64
2, 589248, Note_on_c, 0, 74, 90
2, 589340, Note_off_c, 0, 74, 64
2, 589344, Note_on_c, 0, 72, 90
2, 589436, Note_off_c, 0, 72, 64
2, 589440, Note_on_c, 0, 74, 90
2, 589532, Note_off_c, 0, 74, 64
2, 589536, Note_on_c, 0, 72, 90
2, 589628, Note_off_c, 0, 72, 64
2, 589632, Note_on_c, 0, 71, 90
2, 589724, Note_off_c, 0, 71, 64
2, 589728, Note_on_c, 0, 69, 90
2, 589820, Note_off_c, 0, 69, 64
2, 589824, Note_on_c, 0, 67, 90
2, 591356, Note_off_c, 0, 67, 64
2, 591360, Note_on_c, 0, 88, 96
2, 591452, Note_off_c, 0, 88, 64
2, 591456, Note_on_c, 0, 86, 95
2, 591548, Note_off_c, 0, 86, 64
2, 591552, Note_on_c, 0, 84, 94
2, 591644, Note_off_c, 0, 84, 64
2, 591648, Note_on_c, 0, 83, 93
2, 591740, Note_off_c, 0, 83, 64
2, 591744, Note_on_c, 0, 81, 92
2, 591836, Note_off_c, 0, 81, 64
2, 591840, Note_on_c, 0, 79, 91
2, 591932, Note_off_c, 0, 79, 64
2, 591936, Note_on_c, 0, 77, 90
2, 592028, Note_off_c, 0, 77, 64
2, 592032, Note_on_c, 0, 76, 90
2, 592124, Note_off_c, 0, 76, 64
2, 592128, Note_on_c, 0, 84, 94
2, 592220, Note_off_c, 0, 84, 64
2, 592224, Note_on_c, 0, 83, 93
2, 592316, Note_off_c, 0, 83, 64
2, 592320, Note_on_c, 0, 81, 92
2, 592412, Note_off_c, 0, 81, 64
2, 592416, Note_on_c, 0, 79, 91
2, 592508, Note_off_c, 0, 79, 64
2, 592512, Note_on_c, 0, 77, 90
2, 592604, Note_off_c, 0, 77, 64
2, 592608, Note_on_c, 0, 76, 90
2, 592700, Note_off_c, 0, 76, 64
2, 592704, Note_on_c, 0, 74, 90
2, 592796, Note_off_c, 0, 74, 64
2, 592800, Note_on_c, 0, 72, 90
2, 592892, Note_off_c, 0, 72, 64
2, 592896, Note_on_c, 0, 73, 90
2, 592988, Note_off_c, 0, 73, 64
2, 592992, Note_on_c, 0, 85, 94
2, 593084, Note_off_c, 0, 85, 64
2, 593088, Note_on_c, 0, 74, 90
2, 593180, Note_off_c, 0, 74, 64
2, 593184, Note_on_c, 0, 86, 95
2, 593276, Note_off_c, 0, 86, 64
2, 593280, Note_on_c, 0, 73, 90
2, 593372, Note_off_c, 0, 73, 64
2, 593376, Note_on_c, 0, 85, 94
2, 593468, Note_off_c, 0, 85, 64
2, 593472, Note_on_c, 0, 74, 90
2, 593564, Note_off_c, 0, 74, 64
2, 593568, Note_on_c, 0, 86, 95
2, 593660, Note_off_c, 0, 86, 64
2, 593664, Note_on_c, 0, 73, 90
2, 593756, Note_off_c, 0, 73, 64
2, 593760, Note_on_c, 0, 85, 94
2, 593852, Note_off_c, 0, 85, 64
2, 593856, Note_on_c, 0, 74, 90
2, 593948, Note_off_c, 0, 74, 64
2, 593952, Note_on_c, 0, 86, 94
2, 594044, Note_off_c, 0, 86, 64
2, 594048, Note_on_c, 0, 77, 90
2, 594140, Note_off_c, 0, 77, 64
2, 594144, Note_on_c, 0, 89, 97
2, 594236, Note_off_c, 0, 89, 64
2, 594336, Note_on_c, 0, 86, 95
2, 594428, Note_off_c, 0, 86, 64
2, 594432, Note_on_c, 0, 86, 95
2, 594472, Note_off_c, 0, 86, 64
2, 594480, Note_on_c, 0, 88, 96
2, 594520, Note_off_c, 0, 88, 64
2, 594528, Note_on_c, 0, 86, 95
2, 594568, Note_off_c, 0, 86, 64
2, 594576, Note_on_c, 0, 88, 96
2, 594616, Note_off_c, 0, 88, 64
2, 594624, Note_on_c, 0, 86, 95
2, 594664, Note_off_c, 0, 86, 64
2, 594672, Note_on_c, 0, 88, 96
2, 594712, Note_off_c, 0, 88, 64
2, 594720, Note_on_c, 0, 86, 95
2, 594760, Note_off_c, 0, 86, 64
2, 594768, Note_on_c, 0, 88, 96
2, 594808, Note_off_c, 0, 88, 64
2, 594816, Note_on_c, 0, 86, 95
2, 594856, Note_off_c, 0, 86, 64
2, 594864, Note_on_c, 0, 88, 96
2, 594904, Note_off_c, 0, 88, 64
2, 594912, Note_on_c, 0, 86, 95
2, 594952, Note_off_c, 0, 86, 64
2, 594960, Note_on_c, 0, 88, 96
2, 595000, Note_off_c, 0, 88, 64
2, 595008, Note_on_c, 0, 86, 95
2, 595048, Note_off_c, 0, 86, 64
2, 595056, Note_on_c, 0, 88, 96
2, 595096, Note_off_c, 0, 88, 64
2, 595104, Note_on_c, 0, 86, 95
2, 595144, Note_off_c, 0, 86, 64
2, 595152, Note_on_c, 0, 88, 96
2, 595192, Note_off_c, 0, 88, 64
2, 595200, Note_on_c, 0, 86, 95
2, 595240, Note_off_c, 0, 86, 64
2, 595248, Note_on_c, 0, 88, 96
2, 595288, Note_off_c, 0, 88, 64
2, 595296, Note_on_c, 0, 86, 95
2, 595336, Note_off_c, 0, 86, 64
2, 595344, Note_on_c, 0, 88, 96
2, 595384, Note_off_c, 0, 88, 64
2, 595392, Note_on_c, 0, 86, 95
2, 595432, Note_off_c, 0, 86, 64
2, 595440, Note_on_c, 0, 88, 96
2, 595480, Note_off_c, 0, 88, 64
2, 595488, Note_on_c, 0, 86, 95
2, 595528, Note_off_c, 0, 86, 64
2, 595536, Note_on_c, 0, 88, 96
2, 595576, Note_off_c, 0, 88, 64
2, 595584, Note_on_c, 0, 86, 95
2, 595624, Note_off_c, 0, 86, 64
2, 595632, Note_on_c, 0, 88, 96
2, 595672, Note_off_c, 0, 88, 64
2, 595680, Note_on_c, 0, 86, 95
2, 595720, Note_off_c, 0, 86, 64
2, 595728, Note_on_c, 0, 88, 96
2, 595768, Note_off_c, 0, 88, 64
2, 595776, Note_on_c, 0, 84, 94
2, 595864, Note_off_c, 0, 84, 64
2, 595872, Note_on_c, 0, 86, 95
2, 595960, Note_off_c, 0, 86, 64
2, 595968, Note_on_c, 0, 84, 94
2, 596348, Note_off_c, 0, 84, 64
2, 614392, Control_c, 0, 64, 127
2, 614400, Note_on_c, 0, 76, 89
2, 614400, Note_on_c, 0, 72, 87
2, 614400, Note_on_c, 0, 67, 84
2, 614400, Note_on_c, 0, 79, 91
2, 615160, Control_c, 0, 64, 0
2, 615548, Note_off_c, 0, 76, 64
2, 615548, Note_off_c, 0, 72, 64
2, 615548, Note_off_c, 0, 67, 64
2, 615548, Note_off_c, 0, 79, 64
2, 615936, Note_on_c, 0, 91, 98
2, 616028, Note_off_c, 0, 91, 64
2, 616032, Note_on_c, 0, 88, 96
2, 616124, Note_off_c, 0, 88, 64
2, 616128, Note_on_c, 0, 89, 97
2, 616220, Note_off_c, 0, 89, 64
2, 616224, Note_on_c, 0, 86, 95
2, 616316, Note_off_c, 0, 86, 64
2, 616320, Note_on_c, 0, 88, 96
2, 616412, Note_off_c, 0, 88, 64
2, 616416, Note_on_c, 0, 84, 94
2, 616508, Note_off_c, 0, 84, 64
2, 616512, Note_on_c, 0, 86, 95
2, 616604, Note_off_c, 0, 86, 64
2, 616608, Note_on_c, 0, 83, 93
2, 616700, Note_off_c, 0, 83, 64
2, 616704, Note_on_c, 0, 84, 94
2, 616796, Note_off_c, 0, 84, 64
2, 616800, Note_on_c, 0, 81, 92
2, 616892, Note_off_c, 0, 81, 64
2, 616896, Note_on_c, 0, 83, 93
2, 616988, Note_off_c, 0, 83, 64
2, 616992, Note_on_c, 0, 79, 91
2, 617084, Note_off_c, 0, 79, 64
2, 617088, Note_on_c, 0, 81, 92
2, 617180, Note_off_c, 0, 81, 64
2, 617184, Note_on_c, 0, 77, 90
2, 617276, Note_off_c, 0, 77, 64
2, 617280, Note_on_c, 0, 79, 91
2, 617372, Note_off_c, 0, 79, 64
2, 617376, Note_on_c, 0, 76, 90
2, 617468, Note_off_c, 0, 76, 64
2, 617472, Note_on_c, 0, 88, 96
2, 617472, Note_on_c, 0, 79, 91
2, 617564, Note_off_c, 0, 88, 64
2, 617564, Note_off_c, 0, 79, 64
2, 617568, Note_on_c, 0, 84, 94
2, 617568, Note_on_c, 0, 76, 89
2, 617660, Note_off_c, 0, 84, 64
2, 617660, Note_off_c, 0, 76, 64
2, 617664, Note_on_c, 0, 86, 95
2, 617664, Note_on_c, 0, 77, 90
2, 617756, Note_off_c, 0, 86, 64
2, 617756, Note_off_c, 0, 77, 64
2, 617760, Note_on_c, 0, 83, 93
2, 617760, Note_on_c, 0, 74, 88
2, 617852, Note_off_c, 0, 83, 64
2, 617852, Note_off_c, 0, 74, 64
2, 617856, Note_on_c, 0, 84, 94
2, 617856, Note_on_c, 0, 76, 89
2, 617948, Note_off_c, 0, 84, 64
2, 617948, Note_off_c, 0, 76, 64
2, 617952, Note_on_c, 0, 81, 92
2, 617952, Note_on_c, 0, 72, 87
2, 618044, Note_off_c, 0, 81, 64
2, 618044, Note_off_c, 0, 72, 64
2, 618048, Note_on_c, 0, 83, 93
2, 618048, Note_on_c, 0, 74, 88
2, 618140, Note_off_c, 0, 83, 64
2, 618140, Note_off_c, 0, 74, 64
2, 618144, Note_on_c, 0, 79, 91
2, 618144, Note_on_c, 0, 71, 86
2, 618236, Note_off_c, 0, 79, 64
2, 618236, Note_off_c, 0, 71, 64
2, 618240, Note_on_c, 0, 81, 92
2, 618240, Note_on_c, 0, 72, 87
2, 618332, Note_off_c, 0, 81, 64
2, 618332, Note_off_c, 0, 72, 64
2, 618336, Note_on_c, 0, 69, 90
2, 618336, Note_on_c, 0, 77, 85
2, 618428, Note_off_c, 0, 69, 64
2, 618428, Note_off_c, 0, 77, 64
2, 618432, Note_on_c, 0, 79, 91
2, 618432, Note_on_c, 0, 71, 86
2, 618524, Note_off_c, 0, 79, 64
2, 618524, Note_off_c, 0, 71, 64
2, 618528, Note_on_c, 0, 76, 90
2, 618528, Note_on_c, 0, 67, 85
2, 618620, Note_off_c, 0, 76, 64
2, 618620, Note_off_c, 0, 67, 64
2, 618624, Note_on_c, 0, 77, 90
2, 618624, Note_on_c, 0, 69, 85
2, 618716, Note_off_c, 0, 77, 64
2, 618716, Note_off_c, 0, 69, 64
2, 618720, Note_on_c, 0, 74, 90
2, 618720, Note_on_c, 0, 65, 84
2, 618812, Note_off_c, 0, 74, 64
2, 618812, Note_off_c, 0, 65, 64
2, 618816, Note_on_c, 0, 76, 90
2, 618816, Note_on_c, 0, 67, 85
2, 618908, Note_off_c, 0, 76, 64
2, 618908, Note_off_c, 0, 67, 64
2, 618912, Note_on_c, 0, 72, 90
2, 618912, Note_on_c, 0, 64, 83
2, 619004, Note_off_c, 0, 72, 64
2, 619004, Note_off_c, 0, 64, 64
2, 619008, Note_on_c, 0, 84, 93
2, 619008, Note_on_c, 0, 76, 90
2, 619100, Note_off_c, 0, 84, 64
2, 619100, Note_off_c, 0, 76, 64
2, 619104, Note_on_c, 0, 79, 91
2, 619196, Note_off_c, 0, 79, 64
2, 619200, Note_on_c, 0, 83, 93
2, 619200, Note_on_c, 0, 76, 90
2, 619292, Note_off_c, 0, 83, 64
2, 619292, Note_off_c, 0, 76, 64
2, 619296, Note_on_c, 0, 77, 90
2, 619388, Note_off_c, 0, 77, 64
2, 619392, Note_on_c, 0, 81, 92
2, 619392, Note_on_c, 0, 72, 90
2, 619484, Note_off_c, 0, 81, 64
2, 619484, Note_off_c, 0, 72, 64
2, 619488, Note_on_c, 0, 76, 90
2, 619580, Note_off_c, 0, 76, 64
2, 619584, Note_on_c, 0, 79, 91
2, 619584, Note_on_c, 0, 71, 90
2, 619676, Note_off_c, 0, 79, 64
2, 619676, Note_off_c, 0, 71, 64
2, 619680, Note_on_c, 0, 74, 90
2, 619772, Note_off_c, 0, 74, 64
2, 619776, Note_on_c, 0, 77, 89
2, 619776, Note_on_c, 0, 69, 89
2, 619868, Note_off_c, 0, 77, 64
2, 619868, Note_off_c, 0, 69, 64
2, 619872, Note_on_c, 0, 72, 89
2, 619964, Note_off_c, 0, 72, 64
2, 619968, Note_on_c, 0, 76, 88
2, 619968, Note_on_c, 0, 67, 88
2, 620060, Note_off_c, 0, 76, 64
2, 620060, Note_off_c, 0, 67, 64
2, 620064, Note_on_c, 0, 71, 87
2, 620156, Note_off_c, 0, 71, 64
2, 620160, Note_on_c, 0, 74, 86
2, 620160, Note_on_c, 0, 65, 86
2, 620252, Note_off_c, 0, 74, 64
2, 620252, Note_off_c, 0, 65, 64
2, 620256, Note_on_c, 0, 69, 85
2, 620348, Note_off_c, 0, 69, 64
2, 620352, Note_on_c, 0, 72, 84
2, 620352, Note_on_c, 0, 64, 84
2, 620444, Note_off_c, 0, 72, 64
2, 620444, Note_off_c, 0, 64, 64
2, 620448, Note_on_c, 0, 67, 84
2, 620540, Note_off_c, 0, 67, 64
2, 620544, Note_on_c, 0, 69, 80
2, 620544, Note_on_c, 0, 72, 80
2, 620584, Note_off_c, 0, 72, 64
2, 620592, Note_on_c, 0, 74, 80
2, 620632, Note_off_c, 0, 74, 64
2, 620636, Note_off_c, 0, 69, 64
2, 620640, Note_on_c, 0, 72, 80
2, 620680, Note_off_c, 0, 72, 64
2, 620688, Note_on_c, 0, 74, 81
2, 620728, Note_off_c, 0, 74, 64
2, 620736, Note_on_c, 0, 72, 81
2, 620776, Note_off_c, 0, 72, 64
2, 620784, Note_on_c, 0, 74, 81
2, 620824, Note_off_c, 0, 74, 64
2, 620832, Note_on_c, 0, 72, 82
2, 620872, Note_off_c, 0, 72, 64
2, 620880, Note_on_c, 0, 74, 82
2, 620920, Note_off_c, 0, 74, 64
2, 620928, Note_on_c, 0, 72, 82
2, 620968, Note_off_c, 0, 72, 64
2, 620976, Note_on_c, 0, 74, 83
2, 621016, Note_off_c, 0, 74, 64
2, 621024, Note_on_c, 0, 72, 83
2, 621064, Note_off_c, 0, 72, 64
2, 621072, Note_on_c, 0, 74, 83
2, 621112, Note_off_c, 0, 74, 64
2, 621120, Note_on_c, 0, 72, 84
2, 621160, Note_off_c, 0, 72, 64
2, 621168, Note_on_c, 0, 74, 84
2, 621208, Note_off_c, 0, 74, 64
2, 621216, Note_on_c, 0, 72, 84
2, 621256, Note_off_c, 0, 72, 64
2, 621264, Note_on_c, 0, 74, 85
2, 621304, Note_off_c, 0, 74, 64
2, 621312, Note_on_c, 0, 72, 85
2, 621352, Note_off_c, 0, 72, 64
2, 621360, Note_on_c, 0, 74, 85
2, 621400, Note_off_c, 0, 74, 64
2, 621408, Note_on_c, 0, 72, 86
2, 621448, Note_off_c, 0, 72, 64
2, 621456, Note_on_c, 0, 74, 86
2, 621496, Note_off_c, 0, 74, 64
2, 621504, Note_on_c, 0, 72, 86
2, 621544, Note_off_c, 0, 72, 64
2, 621552, Note_on_c, 0, 74, 87
2, 621592, Note_off_c, 0, 74, 64
2, 621600, Note_on_c, 0, 72, 87
2, 621640, Note_off_c, 0, 72, 64
2, 621648, Note_on_c, 0, 74, 87
2, 621688, Note_off_c, 0, 74, 64
2, 621696, Note_on_c, 0, 72, 88
2, 621736, Note_off_c, 0, 72, 64
2, 621744, Note_on_c, 0, 74, 88
2, 621784, Note_off_c, 0, 74, 64
2, 621792, Note_on_c, 0, 72, 88
2, 621832, Note_off_c, 0, 72, 64
2, 621840, Note_on_c, 0, 74, 89
2, 621880, Note_off_c, 0, 74, 64
2, 621888, Note_on_c, 0, 72, 89
2, 621928, Note_off_c, 0, 72, 64
2, 621936, Note_on_c, 0, 74, 89
2, 621976, Note_off_c, 0, 74, 64
2, 621984, Note_on_c, 0, 72, 90
2, 622024, Note_off_c, 0, 72, 64
2, 622032, Note_on_c, 0, 74, 90
2, 622072, Note_off_c, 0, 74, 64
2, 622080, Note_on_c, 0, 64, 89
2, 622080, Note_on_c, 0, 55, 89
2, 622080, Note_on_c, 0, 72, 89
2, 622176, Note_on_c, 0, 72, 88
2, 622264, Note_off_c, 0, 72, 64
2, 622272, Note_on_c, 0, 74, 86
2, 622364, Note_off_c, 0, 74, 64
2, 622368, Note_on_c, 0, 72, 84
2, 622460, Note_off_c, 0, 72, 64
2, 622464, Note_on_c, 0, 76, 83
2, 622556, Note_off_c, 0, 76, 64
2, 622560, Note_on_c, 0, 72, 81
2, 622648, Note_off_c, 0, 64, 64
2, 622648, Note_off_c, 0, 55, 64
2, 622652, Note_off_c, 0, 72, 64
2, 622652, Note_off_c, 0, 72, 64
2, 622656, Note_on_c, 0, 74, 80
2, 622656, Note_on_c, 0, 71, 80
2, 622748, Note_off_c, 0, 74, 64
2, 622748, Note_off_c, 0, 71, 64
2, 622752, Note_on_c, 0, 72, 80
2, 622752, Note_on_c, 0, 69, 80
2, 622844, Note_off_c, 0, 72, 64
2, 622844, Note_off_c, 0, 69, 64
2, 622848, Note_on_c, 0, 79, 81
2, 622848, Note_on_c, 0, 67, 80
2, 622940, Note_off_c, 0, 79, 64
2, 622940, Note_off_c, 0, 67, 64
2, 622944, Note_on_c, 0, 72, 80
2, 623036, Note_off_c, 0, 72, 64
2, 623040, Note_on_c, 0, 74, 80
2, 623132, Note_off_c, 0, 74, 64
2, 623136, Note_on_c, 0, 72, 80
2, 623228, Note_off_c, 0, 72, 64
2, 623232, Note_on_c, 0, 84, 84
2, 623324, Note_off_c, 0, 84, 64
2, 623328, Note_on_c, 0, 72, 80
2, 623420, Note_off_c, 0, 72, 64
2, 623424, Note_on_c, 0, 74, 80
2, 623516, Note_off_c, 0, 74, 64
2, 623520, Note_on_c, 0, 72, 80
2, 623612, Note_off_c, 0, 72, 64
2, 623616, Note_on_c, 0, 84, 84
2, 623708, Note_off_c, 0, 84, 64
2, 623712, Note_on_c, 0, 72, 80
2, 623804, Note_off_c, 0, 72, 64
2, 623808, Note_on_c, 0, 74, 80
2, 623900, Note_off_c, 0, 74, 64
2, 623904, Note_on_c, 0, 72, 80
2, 623996, Note_off_c, 0, 72, 64
2, 624000, Note_on_c, 0, 74, 81
2, 624092, Note_off_c, 0, 74, 64
2, 624096, Note_on_c, 0, 72, 81
2, 624136, Note_off_c, 0, 72, 64
2, 624144, Note_on_c, 0, 74, 82
2, 624184, Note_off_c, 0, 74, 64
2, 624192, Note_on_c, 0, 72, 82
2, 624232, Note_off_c, 0, 72, 64
2, 624240, Note_on_c, 0, 74, 83
2, 624280, Note_off_c, 0, 74, 64
2, 624288, Note_on_c, 0, 72, 83
2, 624328, Note_off_c, 0, 72, 64
2, 624336, Note_on_c, 0, 74, 83
2, 624376, Note_off_c, 0, 74, 64
2, 624384, Note_on_c, 0, 72, 84
2, 624424, Note_off_c, 0, 72, 64
2, 624432, Note_on_c, 0, 74, 84
2, 624472, Note_off_c, 0, 74, 64
2, 624480, Note_on_c, 0, 72, 85
2, 624520, Note_off_c, 0, 72, 64
2, 624528, Note_on_c, 0, 74, 85
2, 624568, Note_off_c, 0, 74, 64
2, 624576, Note_on_c, 0, 72, 86
2, 624616, Note_off_c, 0, 72, 64
2, 624624, Note_on_c, 0, 74, 86
2, 624664, Note_off_c, 0, 74, 64
2, 624672, Note_on_c, 0, 72, 86
2, 624712, Note_off_c, 0, 72, 64
2, 624720, Note_on_c, 0, 74, 87
2, 624760, Note_off_c, 0, 74, 64
2, 624768, Note_on_c, 0, 72, 87
2, 624808, Note_off_c, 0, 72, 64
2, 624816, Note_on_c, 0, 74, 88
2, 624856, Note_off_c, 0, 74, 64
2, 624864, Note_on_c, 0, 72, 88
2, 624904, Note_off_c, 0, 72, 64
2, 624912, Note_on_c, 0, 74, 88
2, 624952, Note_off_c, 0, 74, 64
2, 624960, Note_on_c, 0, 72, 89
2, 625000, Note_off_c, 0, 72, 64
2, 625008, Note_on_c, 0, 74, 89
2, 625048, Note_off_c, 0, 74, 64
2, 625056, Note_on_c, 0, 72, 90
2, 625096, Note_off_c, 0, 72, 64
2, 625104, Note_on_c, 0, 74, 90
2, 625144, Note_off_c, 0, 74, 64
2, 625152, Note_on_c, 0, 72, 89
2, 625152, Note_on_c, 0, 63, 89
2, 625152, Note_on_c, 0, 55, 89
2, 625248, Note_on_c, 0, 72, 89
2, 625340, Note_off_c, 0, 72, 64
2, 625344, Note_on_c, 0, 74, 88
2, 625436, Note_off_c, 0, 74, 64
2, 625440, Note_on_c, 0, 72, 87
2, 625532, Note_off_c, 0, 72, 64
2, 625536, Note_on_c, 0, 75, 86
2, 625628, Note_off_c, 0, 75, 64
2, 625632, Note_on_c, 0, 72, 85
2, 625724, Note_off_c, 0, 63, 64
2, 625724, Note_off_c, 0, 55, 64
2, 625724, Note_off_c, 0, 72, 64
2, 625724, Note_off_c, 0, 72, 64
2, 625728, Note_on_c, 0, 70, 84
2, 625728, Note_on_c, 0, 74, 84
2, 625820, Note_off_c, 0, 70, 64
2, 625820, Note_off_c, 0, 74, 64
2, 625824, Note_on_c, 0, 72, 84
2, 625824, Note_on_c, 0, 68, 84
2, 625916, Note_off_c, 0, 72, 64
2, 625916, Note_off_c, 0, 68, 64
2, 625920, Note_on_c, 0, 79, 84
2, 625920, Note_on_c, 0, 67, 83
2, 626012, Note_off_c, 0, 79, 64
2, 626012, Note_off_c, 0, 67, 64
2, 626016, Note_on_c, 0, 72, 82
2, 626108, Note_off_c, 0, 72, 64
2, 626112, Note_on_c, 0, 74, 81
2, 626204, Note_off_c, 0, 74, 64
2, 626208, Note_on_c, 0, 72, 80
2, 626300, Note_off_c, 0, 72, 64
2, 626304, Note_on_c, 0, 84, 85
2, 626396, Note_off_c, 0, 84, 64
2, 626400, Note_on_c, 0, 72, 80
2, 626492, Note_off_c, 0, 72, 64
2, 626496, Note_on_c, 0, 74, 80
2, 626588, Note_off_c, 0, 74, 64
2, 626592, Note_on_c, 0, 72, 80
2, 626684, Note_off_c, 0, 72, 64
2, 626688, Note_on_c, 0, 84, 69
2, 626780, Note_off_c, 0, 84, 64
2, 626784, Note_on_c, 0, 72, 65
2, 626876, Note_off_c, 0, 72, 64
2, 626880, Note_on_c, 0, 73, 65
2, 626972, Note_off_c, 0, 73, 64
2, 626976, Note_on_c, 0, 72, 65
2, 627068, Note_off_c, 0, 72, 64
2, 627072, Note_on_c, 0, 73, 65
2, 627164, Note_off_c, 0, 73, 64
2, 627168, Note_on_c, 0, 72, 65
2, 627260, Note_off_c, 0, 72, 64
2, 627264, Note_on_c, 0, 73, 65
2, 627356, Note_off_c, 0, 73, 64
2, 627360, Note_on_c, 0, 72, 65
2, 627452, Note_off_c, 0, 72, 64
2, 627456, Note_on_c, 0, 73, 65
2, 627548, Note_off_c, 0, 73, 64
2, 627552, Note_on_c, 0, 72, 65
2, 627644, Note_off_c, 0, 72, 64
2, 627648, Note_on_c, 0, 73, 65
2, 627740, Note_off_c, 0, 73, 64
2, 627744, Note_on_c, 0, 72, 65
2, 627836, Note_off_c, 0, 72, 64
2, 627840, Note_on_c, 0, 75, 65
2, 627932, Note_off_c, 0, 75, 64
2, 627936, Note_on_c, 0, 72, 65
2, 628028, Note_off_c, 0, 72, 64
2, 628032, Note_on_c, 0, 73, 65
2, 628124, Note_off_c, 0, 73, 64
2, 628128, Note_on_c, 0, 72, 65
2, 628220, Note_off_c, 0, 72, 64
2, 628224, Note_on_c, 0, 78, 58
2, 628316, Note_off_c, 0, 78, 64
2, 628320, Note_on_c, 0, 75, 58
2, 628412, Note_off_c, 0, 75, 64
2, 628416, Note_on_c, 0, 77, 58
2, 628508, Note_off_c, 0, 77, 64
2, 628512, Note_on_c, 0, 75, 59
2, 628604, Note_off_c, 0, 75, 64
2, 628608, Note_on_c, 0, 84, 63
2, 628700, Note_off_c, 0, 84, 64
2, 628704, Note_on_c, 0, 78, 60
2, 628796, Note_off_c, 0, 78, 64
2, 628800, Note_on_c, 0, 80, 62
2, 628892, Note_off_c, 0, 80, 64
2, 628896, Note_on_c, 0, 78, 60
2, 628988, Note_off_c, 0, 78, 64
2, 628992, Note_on_c, 0, 87, 67
2, 629084, Note_off_c, 0, 87, 64
2, 629088, Note_on_c, 0, 84, 65
2, 629180, Note_off_c, 0, 84, 64
2, 629184, Note_on_c, 0, 85, 67
2, 629276, Note_off_c, 0, 85, 64
2, 629280, Note_on_c, 0, 84, 66
2, 629372, Note_off_c, 0, 84, 64
2, 629376, Note_on_c, 0, 90, 70
2, 629468, Note_off_c, 0, 90, 64
2, 629472, Note_on_c, 0, 87, 69
2, 629564, Note_off_c, 0, 87, 64
2, 629568, Note_on_c, 0, 89, 70
2, 629660, Note_off_c, 0, 89, 64
2, 629664, Note_on_c, 0, 87, 69
2, 629756, Note_off_c, 0, 87, 64
2, 629760, Note_on_c, 0, 96, 76
2, 629852, Note_off_c, 0, 96, 64
2, 629856, Note_on_c, 0, 90, 72
2, 629948, Note_off_c, 0, 90, 64
2, 629952, Note_on_c, 0, 92, 74
2, 630044, Note_off_c, 0, 92, 64
2, 630048, Note_on_c, 0, 90, 77
2, 630140, Note_off_c, 0, 90, 64
2, 630144, Note_on_c, 0, 99, 76
2, 630236, Note_off_c, 0, 99, 64
2, 630240, Note_on_c, 0, 96, 77
2, 630332, Note_off_c, 0, 96, 64
2, 630336, Note_on_c, 0, 97, 67
2, 630428, Note_off_c, 0, 97, 64
2, 630432, Note_on_c, 0, 96, 67
2, 630524, Note_off_c, 0, 96, 64
2, 630528, Note_on_c, 0, 103, 83
2, 630620, Note_off_c, 0, 103, 64
2, 630624, Note_on_c, 0, 100, 81
2, 630716, Note_off_c, 0, 100, 64
2, 630720, Note_on_c, 0, 99, 81
2, 630812, Note_off_c, 0, 99, 64
2, 630816, Note_on_c, 0, 97, 80
2, 630908, Note_off_c, 0, 97, 64
2, 630912, Note_on_c, 0, 96, 79
2, 631004, Note_off_c, 0, 96, 64
2, 631008, Note_on_c, 0, 94, 77
2, 631100, Note_off_c, 0, 94, 64
2, 631104, Note_on_c, 0, 92, 76
2, 631196, Note_off_c, 0, 92, 64
2, 631200, Note_on_c, 0, 90, 75
2, 631292, Note_off_c, 0, 90, 64
2, 631296, Note_on_c, 0, 89, 72
2, 631388, Note_off_c, 0, 89, 64
2, 631392, Note_on_c, 0, 87, 70
2, 631484, Note_off_c, 0, 87, 64
2, 631488, Note_on_c, 0, 85, 65
2, 631580, Note_off_c, 0, 85, 64
2, 631584, Note_on_c, 0, 84, 64
2, 631676, Note_off_c, 0, 84, 64
2, 631680, Note_on_c, 0, 82, 63
2, 631772, Note_off_c, 0, 82, 64
2, 631776, Note_on_c, 0, 80, 62
2, 631868, Note_off_c, 0, 80, 64
2, 631872, Note_on_c, 0, 78, 62
2, 631964, Note_off_c, 0, 78, 64
2, 631968, Note_on_c, 0, 77, 62
2, 632060, Note_off_c, 0, 77, 64
2, 632064, Note_on_c, 0, 75, 61
2, 632156, Note_off_c, 0, 75, 64
2, 632160, Note_on_c, 0, 73, 61
2, 632252, Note_off_c, 0, 73, 64
2, 632256, Note_on_c, 0, 72, 60
2, 632348, Note_off_c, 0, 72, 64
2, 632352, Note_on_c, 0, 70, 60
2, 632444, Note_off_c, 0, 70, 64
2, 632448, Note_on_c, 0, 68, 59
2, 632540, Note_off_c, 0, 68, 64
2, 632544, Note_on_c, 0, 66, 59
2, 632636, Note_off_c, 0, 66, 64
2, 632640, Note_on_c, 0, 65, 58
2, 632732, Note_off_c, 0, 65, 64
2, 632736, Note_on_c, 0, 63, 58
2, 632828, Note_off_c, 0, 63, 64
2, 632832, Note_on_c, 0, 61, 57
2, 632920, Note_on_c, 0, 60, 57
2, 632924, Note_off_c, 0, 61, 64
2, 633012, Note_off_c, 0, 60, 64
2, 633024, Note_on_c, 0, 58, 56
2, 633116, Note_off_c, 0, 58, 64
2, 633120, Note_on_c, 0, 56, 56
2, 633212, Note_off_c, 0, 56, 64
2, 633216, Note_on_c, 0, 58, 56
2, 633308, Note_off_c, 0, 58, 64
2, 633312, Note_on_c, 0, 59, 56
2, 633404, Note_off_c, 0, 59, 64
2, 633408, Note_on_c, 0, 60, 56
2, 633500, Note_off_c, 0, 60, 64
2, 633504, Note_on_c, 0, 61, 57
2, 633596, Note_off_c, 0, 61, 64
2, 633600, Note_on_c, 0, 62, 57
2, 633692, Note_off_c, 0, 62, 64
2, 633696, Note_on_c, 0, 63, 57
2, 633788, Note_off_c, 0, 63, 64
2, 633792, Note_on_c, 0, 64, 58
2, 633884, Note_off_c, 0, 64, 64
2, 633888, Note_on_c, 0, 65, 58
2, 633980, Note_off_c, 0, 65, 64
2, 633984, Note_on_c, 0, 66, 58
2, 634076, Note_off_c, 0, 66, 64
2, 634080, Note_on_c, 0, 67, 59
2, 634172, Note_off_c, 0, 67, 64
2, 634176, Note_on_c, 0, 68, 59
2, 634268, Note_off_c, 0, 68, 64
2, 634272, Note_on_c, 0, 69, 59
2, 634364, Note_off_c, 0, 69, 64
2, 634368, Note_on_c, 0, 70, 60
2, 634492, Note_off_c, 0, 70, 64
2, 634496, Note_on_c, 0, 71, 60
2, 634620, Note_off_c, 0, 71, 64
2, 634624, Note_on_c, 0, 72, 61
2, 634748, Note_off_c, 0, 72, 64
2, 634752, Note_on_c, 0, 73, 61
2, 634876, Note_off_c, 0, 73, 64
2, 634880, Note_on_c, 0, 74, 62
2, 635004, Note_off_c, 0, 74, 64
2, 635008, Note_on_c, 0, 75, 62
2, 635132, Note_off_c, 0, 75, 64
2, 635136, Note_on_c, 0, 76, 63
2, 635228, Note_off_c, 0, 76, 64
2, 635328, Note_on_c, 0, 77, 63
2, 635420, Note_off_c, 0, 77, 64
2, 635520, Note_on_c, 0, 78, 64
2, 635612, Note_off_c, 0, 78, 64
2, 635712, Note_on_c, 0, 79, 66
2, 635804, Note_off_c, 0, 79, 64
2, 635904, Note_on_c, 0, 80, 67
2, 636092, Note_off_c, 0, 80, 64
2, 636096, Note_on_c, 0, 77, 65
2, 636284, Note_off_c, 0, 77, 64
2, 636288, Note_on_c, 0, 75, 65
2, 636476, Note_off_c, 0, 75, 64
2, 636480, Note_on_c, 0, 73, 65
2, 636668, Note_off_c, 0, 73, 64
2, 636672, Note_on_c, 0, 80, 67
2, 636860, Note_off_c, 0, 80, 64
2, 636864, Note_on_c, 0, 77, 65
2, 637052, Note_off_c, 0, 77, 64
2, 637056, Note_on_c, 0, 75, 65
2, 637244, Note_off_c, 0, 75, 64
2, 637248, Note_on_c, 0, 73, 65
2, 637436, Note_off_c, 0, 73, 64
2, 637440, Note_on_c, 0, 82, 68
2, 637628, Note_off_c, 0, 82, 64
2, 637632, Note_on_c, 0, 78, 65
2, 637820, Note_off_c, 0, 78, 64
2, 637824, Note_on_c, 0, 77, 65
2, 638012, Note_off_c, 0, 77, 64
2, 638016, Note_on_c, 0, 75, 65
2, 638204, Note_off_c, 0, 75, 64
2, 638208, Note_on_c, 0, 82, 72
2, 638224, Note_on_c, 0, 94, 74
2, 638392, Note_off_c, 0, 94, 64
2, 638396, Note_off_c, 0, 82, 64
2, 638400, Note_on_c, 0, 90, 70
2, 638420, Note_on_c, 0, 78, 72
2, 638588, Note_off_c, 0, 90, 64
2, 638588, Note_off_c, 0, 78, 64
2, 638592, Note_on_c, 0, 89, 67
2, 638608, Note_on_c, 0, 77, 69
2, 638776, Note_off_c, 0, 77, 64
2, 638780, Note_off_c, 0, 89, 64
2, 638784, Note_on_c, 0, 87, 65
2, 638804, Note_on_c, 0, 75, 67
2, 638972, Note_off_c, 0, 87, 64
2, 638972, Note_off_c, 0, 75, 64
2, 638976, Note_on_c, 0, 78, 65
2, 639164, Note_off_c, 0, 78, 64
2, 639168, Note_on_c, 0, 75, 65
2, 639356, Note_off_c, 0, 75, 64
2, 639360, Note_on_c, 0, 73, 65
2, 639548, Note_off_c, 0, 73, 64
2, 639552, Note_on_c, 0, 72, 65
2, 639740, Note_off_c, 0, 72, 64
2, 639744, Note_on_c, 0, 78, 65
2, 639932, Note_off_c, 0, 78, 64
2, 639936, Note_on_c, 0, 75, 65
2, 640124, Note_off_c, 0, 75, 64
2, 640128, Note_on_c, 0, 73, 65
2, 640316, Note_off_c, 0, 73, 64
2, 640320, Note_on_c, 0, 72, 65
2, 640508, Note_off_c, 0, 72, 64
2, 640512, Note_on_c, 0, 80, 67
2, 640700, Note_off_c, 0, 80, 64
2, 640704, Note_on_c, 0, 77, 65
2, 640892, Note_off_c, 0, 77, 64
2, 640896, Note_on_c, 0, 75, 71
2, 641084, Note_off_c, 0, 75, 64
2, 641088, Note_on_c, 0, 73, 70
2, 641276, Note_off_c, 0, 73, 64
2, 641280, Note_on_c, 0, 80, 69
2, 641296, Note_on_c, 0, 92, 71
2, 641464, Note_off_c, 0, 92, 64
2, 641468, Note_off_c, 0, 80, 64
2, 641472, Note_on_c, 0, 89, 68
2, 641492, Note_on_c, 0, 77, 70
2, 641660, Note_off_c, 0, 89, 64
2, 641660, Note_off_c, 0, 77, 64
2, 641664, Note_on_c, 0, 87, 67
2, 641680, Note_on_c, 0, 75, 69
2, 641848, Note_off_c, 0, 75, 64
2, 641852, Note_off_c, 0, 87, 64
2, 641856, Note_on_c, 0, 73, 66
2, 641876, Note_on_c, 0, 85, 68
2, 642044, Note_off_c, 0, 73, 64
2, 642044, Note_off_c, 0, 85, 64
2, 642048, Note_on_c, 0, 80, 67
2, 642236, Note_off_c, 0, 80, 64
2, 642240, Note_on_c, 0, 76, 65
2, 642428, Note_off_c, 0, 76, 64
2, 642432, Note_on_c, 0, 75, 65
2, 642620, Note_off_c, 0, 75, 64
2, 642624, Note_on_c, 0, 73, 65
2, 642812, Note_off_c, 0, 73, 64
2, 642816, Note_on_c, 0, 80, 67
2, 642832, Note_on_c, 0, 92, 71
2, 643000, Note_off_c, 0, 92, 64
2, 643004, Note_off_c, 0, 80, 64
2, 643008, Note_on_c, 0, 76, 69
2, 643028, Note_on_c, 0, 88, 65
2, 643176, Note_off_c, 0, 76, 64
2, 643200, Note_on_c, 0, 87, 65
2, 643216, Note_off_c, 0, 88, 64
2, 643216, Note_on_c, 0, 75, 69
2, 643384, Note_off_c, 0, 75, 64
2, 643388, Note_off_c, 0, 87, 64
2, 643392, Note_on_c, 0, 73, 65
2, 643412, Note_on_c, 0, 85, 69
2, 643580, Note_off_c, 0, 73, 64
2, 643580, Note_off_c, 0, 85, 64
2, 643968, Note_on_c, 0, 76, 80
2, 643968, Note_on_c, 0, 73, 80
2, 643968, Note_on_c, 0, 64, 80
2, 644060, Note_off_c, 0, 76, 64
2, 644060, Note_off_c, 0, 73, 64
2, 644060, Note_off_c, 0, 64, 64
2, 644352, Note_on_c, 0, 81, 83
2, 644352, Note_on_c, 0, 73, 77
2, 644352, Note_on_c, 0, 69, 75
2, 644444, Note_off_c, 0, 81, 64
2, 644444, Note_off_c, 0, 73, 64
2, 644444, Note_off_c, 0, 69, 64
2, 644736, Note_on_c, 0, 73, 90
2, 644736, Note_on_c, 0, 85, 83
2, 644828, Note_off_c, 0, 73, 64
2, 644828, Note_off_c, 0, 85, 64
2, 645120, Note_on_c, 0, 71, 90
2, 645136, Note_on_c, 0, 74, 90
2, 645156, Note_on_c, 0, 90, 97
2, 645688, Note_off_c, 0, 90, 64
2, 645696, Note_on_c, 0, 88, 88
2, 645752, Note_off_c, 0, 88, 64
2, 645760, Note_on_c, 0, 86, 86
2, 645816, Note_off_c, 0, 86, 64
2, 645824, Note_on_c, 0, 84, 84
2, 645880, Note_off_c, 0, 84, 64
2, 645884, Note_off_c, 0, 71, 64
2, 645888, Note_on_c, 0, 83, 68
2, 645888, Note_on_c, 0, 78, 65
2, 645900, Note_off_c, 0, 74, 64
2, 646076, Note_off_c, 0, 78, 64
2, 646080, Note_on_c, 0, 74, 65
2, 646268, Note_off_c, 0, 74, 64
2, 646272, Note_on_c, 0, 73, 65
2, 646460, Note_off_c, 0, 73, 64
2, 646464, Note_on_c, 0, 71, 65
2, 646652, Note_off_c, 0, 83, 64
2, 646652, Note_off_c, 0, 71, 64
2, 647040, Note_on_c, 0, 76, 72
2, 647040, Note_on_c, 0, 74, 72
2, 647040, Note_on_c, 0, 64, 72
2, 647132, Note_off_c, 0, 76, 64
2, 647132, Note_off_c, 0, 74, 64
2, 647132, Note_off_c, 0, 64, 64
2, 647424, Note_on_c, 0, 80, 80
2, 647424, Note_on_c, 0, 74, 76
2, 647424, Note_on_c, 0, 68, 75
2, 647516, Note_off_c, 0, 80, 64
2, 647516, Note_off_c, 0, 74, 64
2, 647516, Note_off_c, 0, 68, 64
2, 647808, Note_on_c, 0, 83, 86
2, 647808, Note_on_c, 0, 71, 79
2, 647900, Note_off_c, 0, 83, 64
2, 647900, Note_off_c, 0, 71, 64
2, 648192, Note_on_c, 0, 69, 90
2, 648208, Note_on_c, 0, 73, 90
2, 648228, Note_on_c, 0, 88, 96
2, 648760, Note_off_c, 0, 88, 64
2, 648768, Note_on_c, 0, 86, 85
2, 648828, Note_off_c, 0, 86, 64
2, 648832, Note_on_c, 0, 85, 85
2, 648892, Note_off_c, 0, 85, 64
2, 648896, Note_on_c, 0, 83, 82
2, 648956, Note_off_c, 0, 69, 64
2, 648956, Note_off_c, 0, 83, 64
2, 648960, Note_on_c, 0, 81, 80
2, 648960, Note_on_c, 0, 76, 77
2, 648972, Note_off_c, 0, 73, 64
2, 649148, Note_off_c, 0, 76, 64
2, 649152, Note_on_c, 0, 73, 74
2, 649340, Note_off_c, 0, 73, 64
2, 649344, Note_on_c, 0, 71, 71
2, 649532, Note_off_c, 0, 71, 64
2, 649536, Note_on_c, 0, 69, 68
2, 649724, Note_off_c, 0, 81, 64
2, 649724, Note_off_c, 0, 69, 64
2, 649728, Note_on_c, 0, 69, 65
2, 650300, Note_off_c, 0, 69, 64
2, 650304, Note_on_c, 0, 73, 68
2, 650492, Note_off_c, 0, 73, 64
2, 650496, Note_on_c, 0, 71, 70
2, 650684, Note_off_c, 0, 71, 64
2, 650688, Note_on_c, 0, 74, 68
2, 650876, Note_off_c, 0, 74, 64
2, 650880, Note_on_c, 0, 68, 66
2, 651068, Note_off_c, 0, 68, 64
2, 651072, Note_on_c, 0, 71, 65
2, 651260, Note_off_c, 0, 71, 64
2, 651264, Note_on_c, 0, 69, 65
2, 651836, Note_off_c, 0, 69, 64
2, 651840, Note_on_c, 0, 72, 70
2, 652028, Note_off_c, 0, 72, 64
2, 652032, Note_on_c, 0, 70, 68
2, 652220, Note_off_c, 0, 70, 64
2, 652224, Note_on_c, 0, 74, 67
2, 652412, Note_off_c, 0, 74, 64
2, 652416, Note_on_c, 0, 67, 66
2, 652604, Note_off_c, 0, 67, 64
2, 652608, Note_on_c, 0, 70, 65
2, 652796, Note_off_c, 0, 70, 64
2, 652800, Note_on_c, 0, 69, 65
2, 652800, Note_on_c, 0, 81, 67
2, 652800, Note_on_c, 0, 74, 65
2, 652892, Note_off_c, 0, 69, 64
2, 652896, Note_on_c, 0, 84, 69
2, 652988, Note_off_c, 0, 81, 64
2, 652988, Note_off_c, 0, 74, 64
2, 652988, Note_off_c, 0, 84, 64
2, 652992, Note_on_c, 0, 76, 66
2, 652992, Note_on_c, 0, 73, 65
2, 652992, Note_on_c, 0, 70, 65
2, 653084, Note_off_c, 0, 76, 64
2, 653088, Note_on_c, 0, 79, 65
2, 653180, Note_off_c, 0, 73, 64
2, 653180, Note_off_c, 0, 70, 64
2, 653180, Note_off_c, 0, 79, 64
2, 653184, Note_on_c, 0, 77, 65
2, 653184, Note_on_c, 0, 72, 65
2, 653184, Note_on_c, 0, 69, 65
2, 653276, Note_off_c, 0, 77, 64
2, 653280, Note_on_c, 0, 81, 67
2, 653372, Note_off_c, 0, 72, 64
2, 653372, Note_off_c, 0, 69, 64
2, 653372, Note_off_c, 0, 81, 64
2, 653376, Note_on_c, 0, 73, 65
2, 653376, Note_on_c, 0, 70, 65
2, 653376, Note_on_c, 0, 67, 65
2, 653468, Note_off_c, 0, 73, 64
2, 653472, Note_on_c, 0, 76, 65
2, 653564, Note_off_c, 0, 70, 64
2, 653564, Note_off_c, 0, 67, 64
2, 653564, Note_off_c, 0, 76, 64
2, 653568, Note_on_c, 0, 72, 65
2, 653568, Note_on_c, 0, 69, 65
2, 653660, Note_off_c, 0, 72, 64
2, 653664, Note_on_c, 0, 77, 65
2, 653756, Note_off_c, 0, 69, 64
2, 653756, Note_off_c, 0, 77, 64
2, 653760, Note_on_c, 0, 70, 65
2, 653760, Note_on_c, 0, 67, 65
2, 653760, Note_on_c, 0, 64, 65
2, 653852, Note_off_c, 0, 70, 64
2, 653856, Note_on_c, 0, 73, 65
2, 653948, Note_off_c, 0, 67, 64
2, 653948, Note_off_c, 0, 64, 64
2, 653948, Note_off_c, 0, 73, 64
2, 653952, Note_on_c, 0, 69, 65
2, 653952, Note_on_c, 0, 65, 65
2, 654044, Note_off_c, 0, 69, 64
2, 654048, Note_on_c, 0, 72, 65
2, 654140, Note_off_c, 0, 65, 64
2, 654140, Note_off_c, 0, 72, 64
2, 654144, Note_on_c, 0, 67, 65
2, 654144, Note_on_c, 0, 61, 65
2, 654236, Note_off_c, 0, 67, 64
2, 654240, Note_on_c, 0, 70, 65
2, 654332, Note_off_c, 0, 61, 64
2, 654332, Note_off_c, 0, 70, 64
2, 654336, Note_on_c, 0, 65, 65
2, 654428, Note_off_c, 0, 65, 64
2, 654432, Note_on_c, 0, 69, 65
2, 654524, Note_off_c, 0, 69, 64
2, 654528, Note_on_c, 0, 61, 65
2, 654620, Note_off_c, 0, 61, 64
2, 654624, Note_on_c, 0, 64, 65
2, 654716, Note_off_c, 0, 64, 64
2, 654720, Note_on_c, 0, 60, 65
2, 654812, Note_off_c, 0, 60, 64
2, 654816, Note_on_c, 0, 65, 65
2, 654908, Note_off_c, 0, 65, 64
2, 654912, Note_on_c, 0, 58, 65
2, 655004, Note_off_c, 0, 58, 64
2, 655008, Note_on_c, 0, 61, 65
2, 655100, Note_off_c, 0, 61, 64
2, 655104, Note_on_c, 0, 57, 65
2, 655104, Note_on_c, 0, 57, 65
2, 655196, Note_off_c, 0, 57, 64
2, 655200, Note_on_c, 0, 60, 65
2, 655292, Note_off_c, 0, 57, 64
2, 655292, Note_off_c, 0, 60, 64
2, 655296, Note_on_c, 0, 58, 65
2, 655296, Note_on_c, 0, 58, 65
2, 655388, Note_off_c, 0, 58, 64
2, 655392, Note_on_c, 0, 61, 65
2, 655484, Note_off_c, 0, 58, 64
2, 655484, Note_off_c, 0, 61, 64
2, 655488, Note_on_c, 0, 57, 65
2, 655488, Note_on_c, 0, 57, 65
2, 655580, Note_off_c, 0, 57, 64
2, 655584, Note_on_c, 0, 61, 65
2, 655676, Note_off_c, 0, 57, 64
2, 655676, Note_off_c, 0, 61, 64
2, 655680, Note_on_c, 0, 56, 65
2, 655680, Note_on_c, 0, 56, 65
2, 655772, Note_off_c, 0, 56, 64
2, 655776, Note_on_c, 0, 63, 65
2, 655776, Note_on_c, 0, 61, 65
2, 655868, Note_off_c, 0, 56, 64
2, 655868, Note_off_c, 0, 63, 64
2, 655868, Note_off_c, 0, 61, 64
2, 655872, Note_on_c, 0, 64, 56
2, 655872, Note_on_c, 0, 60, 56
2, 655872, Note_on_c, 0, 55, 56
2, 655964, Note_off_c, 0, 64, 64
2, 655964, Note_off_c, 0, 60, 64
2, 655964, Note_off_c, 0, 55, 64
2, 656640, Note_on_c, 0, 66, 63
2, 656732, Note_off_c, 0, 66, 64
2, 656736, Note_on_c, 0, 67, 63
2, 656828, Note_off_c, 0, 67, 64
2, 656832, Note_on_c, 0, 72, 64
2, 656924, Note_off_c, 0, 72, 64
2, 656928, Note_on_c, 0, 76, 65
2, 657020, Note_off_c, 0, 76, 64
2, 657024, Note_on_c, 0, 78, 66
2, 657116, Note_off_c, 0, 78, 64
2, 657120, Note_on_c, 0, 79, 67
2, 657212, Note_off_c, 0, 79, 64
2, 657216, Note_on_c, 0, 84, 68
2, 657308, Note_off_c, 0, 84, 64
2, 657312, Note_on_c, 0, 88, 69
2, 657404, Note_off_c, 0, 88, 64
2, 657408, Note_on_c, 0, 91, 70
2, 657500, Note_off_c, 0, 91, 64
2, 657504, Note_on_c, 0, 89, 70
2, 657596, Note_off_c, 0, 89, 64
2, 657600, Note_on_c, 0, 86, 69
2, 657692, Note_off_c, 0, 86, 64
2, 657696, Note_on_c, 0, 84, 68
2, 657788, Note_off_c, 0, 84, 64
2, 657792, Note_on_c, 0, 80, 67
2, 657884, Note_off_c, 0, 80, 64
2, 657888, Note_on_c, 0, 77, 66
2, 657980, Note_off_c, 0, 77, 64
2, 657984, Note_on_c, 0, 74, 65
2, 658076, Note_off_c, 0, 74, 64
2, 658080, Note_on_c, 0, 72, 64
2, 658172, Note_off_c, 0, 72, 64
2, 658176, Note_on_c, 0, 68, 63
2, 658268, Note_off_c, 0, 68, 64
2, 658272, Note_on_c, 0, 65, 62
2, 658364, Note_off_c, 0, 65, 64
2, 658368, Note_on_c, 0, 62, 61
2, 658460, Note_off_c, 0, 62, 64
2, 658464, Note_on_c, 0, 60, 60
2, 658556, Note_off_c, 0, 60, 64
2, 659712, Note_on_c, 0, 66, 62
2, 659804, Note_off_c, 0, 66, 64
2, 659808, Note_on_c, 0, 67, 63
2, 659900, Note_off_c, 0, 67, 64
2, 659904, Note_on_c, 0, 72, 64
2, 659996, Note_off_c, 0, 72, 64
2, 660000, Note_on_c, 0, 76, 65
2, 660092, Note_off_c, 0, 76, 64
2, 660096, Note_on_c, 0, 78, 66
2, 660188, Note_off_c, 0, 78, 64
2, 660192, Note_on_c, 0, 79, 67
2, 660284, Note_off_c, 0, 79, 64
2, 660288, Note_on_c, 0, 84, 68
2, 660380, Note_off_c, 0, 84, 64
2, 660384, Note_on_c, 0, 88, 69
2, 660476, Note_off_c, 0, 88, 64
2, 660480, Note_on_c, 0, 94, 70
2, 660572, Note_off_c, 0, 94, 64
2, 660576, Note_on_c, 0, 91, 70
2, 660668, Note_off_c, 0, 91, 64
2, 660672, Note_on_c, 0, 88, 69
2, 660764, Note_off_c, 0, 88, 64
2, 660768, Note_on_c, 0, 86, 68
2, 660860, Note_off_c, 0, 86, 64
2, 660864, Note_on_c, 0, 82, 67
2, 660956, Note_off_c, 0, 82, 64
2, 660960, Note_on_c, 0, 79, 66
2, 661052, Note_off_c, 0, 79, 64
2, 661056, Note_on_c, 0, 76, 65
2, 661148, Note_off_c, 0, 76, 64
2, 661152, Note_on_c, 0, 74, 64
2, 661244, Note_off_c, 0, 74, 64
2, 661248, Note_on_c, 0, 70, 63
2, 661340, Note_off_c, 0, 70, 64
2, 661344, Note_on_c, 0, 67, 62
2, 661436, Note_off_c, 0, 67, 64
2, 661440, Note_on_c, 0, 64, 61
2, 661532, Note_off_c, 0, 64, 64
2, 661536, Note_on_c, 0, 62, 60
2, 661628, Note_off_c, 0, 62, 64
2, 662400, Note_on_c, 0, 68, 62
2, 662492, Note_off_c, 0, 68, 64
2, 662496, Note_on_c, 0, 69, 64
2, 662588, Note_off_c, 0, 69, 64
2, 662592, Note_on_c, 0, 73, 66
2, 662684, Note_off_c, 0, 73, 64
2, 662688, Note_on_c, 0, 81, 68
2, 662780, Note_off_c, 0, 81, 64
2, 662784, Note_on_c, 0, 82, 70
2, 662876, Note_off_c, 0, 82, 64
2, 662880, Note_on_c, 0, 79, 70
2, 662972, Note_off_c, 0, 79, 64
2, 662976, Note_on_c, 0, 76, 69
2, 663068, Note_off_c, 0, 76, 64
2, 663072, Note_on_c, 0, 74, 68
2, 663164, Note_off_c, 0, 74, 64
2, 663168, Note_on_c, 0, 70, 67
2, 663260, Note_off_c, 0, 70, 64
2, 663264, Note_on_c, 0, 67, 67
2, 663356, Note_off_c, 0, 67, 64
2, 663360, Note_on_c, 0, 64, 66
2, 663452, Note_off_c, 0, 64, 64
2, 663456, Note_on_c, 0, 62, 65
2, 663548, Note_off_c, 0, 62, 64
2, 663936, Note_on_c, 0, 68, 66
2, 664028, Note_off_c, 0, 68, 64
2, 664032, Note_on_c, 0, 69, 66
2, 664124, Note_off_c, 0, 69, 64
2, 664128, Note_on_c, 0, 73, 67
2, 664220, Note_off_c, 0, 73, 64
2, 664224, Note_on_c, 0, 81, 67
2, 664316, Note_off_c, 0, 81, 64
2, 664416, Note_on_c, 0, 62, 68
2, 664508, Note_off_c, 0, 62, 64
2, 664512, Note_on_c, 0, 66, 69
2, 664604, Note_off_c, 0, 66, 64
2, 664608, Note_on_c, 0, 74, 69
2, 664700, Note_off_c, 0, 74, 64
2, 664704, Note_on_c, 0, 73, 70
2, 664796, Note_off_c, 0, 73, 64
2, 664800, Note_on_c, 0, 74, 70
2, 664892, Note_off_c, 0, 74, 64
2, 664896, Note_on_c, 0, 80, 71
2, 664988, Note_off_c, 0, 80, 64
2, 664992, Note_on_c, 0, 86, 74
2, 665084, Note_off_c, 0, 86, 64
2, 665472, Note_on_c, 0, 66, 74
2, 665564, Note_off_c, 0, 66, 64
2, 665568, Note_on_c, 0, 67, 75
2, 665660, Note_off_c, 0, 67, 64
2, 665664, Note_on_c, 0, 71, 75
2, 665756, Note_off_c, 0, 71, 64
2, 665760, Note_on_c, 0, 79, 76
2, 665852, Note_off_c, 0, 79, 64
2, 665952, Note_on_c, 0, 60, 77
2, 666044, Note_off_c, 0, 60, 64
2, 666048, Note_on_c, 0, 64, 77
2, 666140, Note_off_c, 0, 64, 64
2, 666144, Note_on_c, 0, 72, 78
2, 666236, Note_off_c, 0, 72, 64
2, 666240, Note_on_c, 0, 71, 78
2, 666332, Note_off_c, 0, 71, 64
2, 666336, Note_on_c, 0, 72, 79
2, 666428, Note_off_c, 0, 72, 64
2, 666432, Note_on_c, 0, 76, 79
2, 666524, Note_off_c, 0, 76, 64
2, 666528, Note_on_c, 0, 84, 80
2, 666620, Note_off_c, 0, 84, 64
2, 667008, Note_on_c, 0, 64, 80
2, 667100, Note_off_c, 0, 64, 64
2, 667104, Note_on_c, 0, 65, 80
2, 667196, Note_off_c, 0, 65, 64
2, 667200, Note_on_c, 0, 69, 80
2, 667292, Note_off_c, 0, 69, 64
2, 667296, Note_on_c, 0, 77, 80
2, 667388, Note_off_c, 0, 77, 64
2, 667776, Note_on_c, 0, 68, 83
2, 667868, Note_off_c, 0, 68, 64
2, 667872, Note_on_c, 0, 69, 84
2, 667964, Note_off_c, 0, 69, 64
2, 667968, Note_on_c, 0, 72, 85
2, 668060, Note_off_c, 0, 72, 64
2, 668064, Note_on_c, 0, 81, 85
2, 668156, Note_off_c, 0, 81, 64
2, 668256, Note_on_c, 0, 60, 86
2, 668348, Note_off_c, 0, 60, 64
2, 668352, Note_on_c, 0, 69, 87
2, 668444, Note_off_c, 0, 69, 64
2, 668448, Note_on_c, 0, 72, 88
2, 668540, Note_off_c, 0, 72, 64
2, 668544, Note_on_c, 0, 71, 89
2, 668636, Note_off_c, 0, 71, 64
2, 668640, Note_on_c, 0, 72, 90
2, 668732, Note_off_c, 0, 72, 64
2, 668736, Note_on_c, 0, 81, 90
2, 668828, Note_off_c, 0, 81, 64
2, 668832, Note_on_c, 0, 84, 91
2, 668924, Note_off_c, 0, 84, 64
2, 669024, Note_on_c, 0, 62, 93
2, 669024, Note_on_c, 0, 60, 93
2, 669116, Note_off_c, 0, 62, 64
2, 669116, Note_off_c, 0, 60, 64
2, 669120, Note_on_c, 0, 69, 93
2, 669212, Note_off_c, 0, 69, 64
2, 669216, Note_on_c, 0, 74, 94
2, 669308, Note_off_c, 0, 74, 64
2, 669312, Note_on_c, 0, 73, 95
2, 669404, Note_off_c, 0, 73, 64
2, 669408, Note_on_c, 0, 74, 95
2, 669408, Note_on_c, 0, 73, 95
2, 669500, Note_off_c, 0, 74, 64
2, 669500, Note_off_c, 0, 73, 64
2, 669504, Note_on_c, 0, 81, 96
2, 669596, Note_off_c, 0, 81, 64
2, 669600, Note_on_c, 0, 86, 97
2, 669692, Note_off_c, 0, 86, 64
2, 669696, Note_on_c, 0, 88, 102
2, 669696, Note_on_c, 0, 84, 100
2, 669696, Note_on_c, 0, 79, 99
2, 669696, Note_on_c, 0, 76, 98
2, 669884, Note_off_c, 0, 88, 64
2, 669884, Note_off_c, 0, 84, 64
2, 669884, Note_off_c, 0, 79, 64
2, 669884, Note_off_c, 0, 76, 64
2, 672000, Note_on_c, 0, 67, 98
2, 672000, Note_on_c, 0, 55, 98
2, 672096, Note_on_c, 0, 72, 98
2, 672188, Note_off_c, 0, 67, 64
2, 672188, Note_off_c, 0, 55, 64
2, 672192, Note_on_c, 0, 71, 98
2, 672192, Note_on_c, 0, 59, 98
2, 672284, Note_off_c, 0, 72, 64
2, 672288, Note_on_c, 0, 74, 98
2, 672380, Note_off_c, 0, 71, 64
2, 672380, Note_off_c, 0, 59, 64
2, 672384, Note_on_c, 0, 72, 98
2, 672384, Note_on_c, 0, 60, 98
2, 672476, Note_off_c, 0, 74, 64
2, 672480, Note_on_c, 0, 76, 98
2, 672572, Note_off_c, 0, 72, 64
2, 672572, Note_off_c, 0, 60, 64
2, 672576, Note_on_c, 0, 63, 98
2, 672576, Note_on_c, 0, 75, 98
2, 672668, Note_off_c, 0, 76, 64
2, 672672, Note_on_c, 0, 77, 98
2, 672764, Note_off_c, 0, 63, 64
2, 672764, Note_off_c, 0, 75, 64
2, 672764, Note_off_c, 0, 77, 64
2, 672768, Note_on_c, 0, 76, 98
2, 672768, Note_on_c, 0, 64, 98
2, 672864, Note_on_c, 0, 79, 98
2, 672956, Note_off_c, 0, 76, 64
2, 672956, Note_off_c, 0, 64, 64
2, 672960, Note_on_c, 0, 78, 98
2, 672960, Note_on_c, 0, 66, 98
2, 673052, Note_off_c, 0, 79, 64
2, 673056, Note_on_c, 0, 81, 98
2, 673148, Note_off_c, 0, 78, 64
2, 673148, Note_off_c, 0, 66, 64
2, 673152, Note_on_c, 0, 79, 98
2, 673152, Note_on_c, 0, 67, 98
2, 673244, Note_off_c, 0, 81, 64
2, 673248, Note_on_c, 0, 84, 98
2, 673340, Note_off_c, 0, 79, 64
2, 673340, Note_off_c, 0, 67, 64
2, 673344, Note_on_c, 0, 83, 98
2, 673344, Note_on_c, 0, 71, 98
2, 673436, Note_off_c, 0, 84, 64
2, 673440, Note_on_c, 0, 86, 98
2, 673532, Note_off_c, 0, 83, 64
2, 673532, Note_off_c, 0, 71, 64
2, 673532, Note_off_c, 0, 86, 64
2, 673536, Note_on_c, 0, 72, 98
2, 673536, Note_on_c, 0, 84, 98
2, 673632, Note_on_c, 0, 88, 98
2, 673724, Note_off_c, 0, 72, 64
2, 673724, Note_off_c, 0, 84, 64
2, 673728, Note_on_c, 0, 87, 98
2, 673728, Note_on_c, 0, 75, 98
2, 673820, Note_off_c, 0, 88, 64
2, 673824, Note_on_c, 0, 89, 98
2, 673916, Note_off_c, 0, 87, 64
2, 673916, Note_off_c, 0, 75, 64
2, 673920, Note_on_c, 0, 76, 98
2, 673920, Note_on_c, 0, 88, 98
2, 674012, Note_off_c, 0, 89, 64
2, 674016, Note_on_c, 0, 91, 98
2, 674108, Note_off_c, 0, 76, 64
2, 674108, Note_off_c, 0, 88, 64
2, 674112, Note_on_c, 0, 90, 98
2, 674112, Note_on_c, 0, 78, 98
2, 674204, Note_off_c, 0, 91, 64
2, 674204, Note_on_c, 0, 93, 98
2, 674296, Note_off_c, 0, 93, 64
2, 674300, Note_off_c, 0, 90, 64
2, 674300, Note_off_c, 0, 78, 64
2, 674304, Note_on_c, 0, 89, 98
2, 674304, Note_on_c, 0, 79, 98
2, 674396, Note_off_c, 0, 89, 64
2, 674396, Note_off_c, 0, 79, 64
2, 674400, Note_on_c, 0, 100, 98
2, 674492, Note_off_c, 0, 100, 64
2, 674496, Note_on_c, 0, 96, 98
2, 674588, Note_off_c, 0, 96, 64
2, 674592, Note_on_c, 0, 91, 98
2, 674684, Note_off_c, 0, 91, 64
2, 674688, Note_on_c, 0, 88, 98
2, 674780, Note_off_c, 0, 88, 64
2, 674788, Note_on_c, 0, 84, 98
2, 674876, Note_on_c, 0, 79, 98
2, 674880, Note_off_c, 0, 84, 64
2, 674968, Note_off_c, 0, 79, 64
2, 674976, Note_on_c, 0, 76, 98
2, 675068, Note_off_c, 0, 76, 64
2, 675072, Note_on_c, 0, 79, 98
2, 675072, Note_on_c, 0, 72, 98
2, 675164, Note_off_c, 0, 79, 64
2, 675164, Note_off_c, 0, 72, 64
2, 675168, Note_on_c, 0, 88, 98
2, 675168, Note_on_c, 0, 79, 98
2, 675260, Note_off_c, 0, 88, 64
2, 675260, Note_off_c, 0, 79, 64
2, 675264, Note_on_c, 0, 84, 98
2, 675264, Note_on_c, 0, 76, 98
2, 675356, Note_off_c, 0, 84, 64
2, 675356, Note_off_c, 0, 76, 64
2, 675360, Note_on_c, 0, 79, 98
2, 675360, Note_on_c, 0, 72, 98
2, 675452, Note_off_c, 0, 79, 64
2, 675452, Note_off_c, 0, 72, 64
2, 675456, Note_on_c, 0, 76, 98
2, 675456, Note_on_c, 0, 67, 98
2, 675548, Note_off_c, 0, 76, 64
2, 675548, Note_off_c, 0, 67, 64
2, 675552, Note_on_c, 0, 72, 98
2, 675552, Note_on_c, 0, 64, 98
2, 675644, Note_off_c, 0, 72, 64
2, 675644, Note_off_c, 0, 64, 64
2, 675648, Note_on_c, 0, 67, 98
2, 675648, Note_on_c, 0, 60, 98
2, 675740, Note_off_c, 0, 67, 64
2, 675740, Note_off_c, 0, 60, 64
2, 675744, Note_on_c, 0, 65, 98
2, 675744, Note_on_c, 0, 55, 98
2, 675836, Note_off_c, 0, 65, 64
2, 675836, Note_off_c, 0, 55, 64
2, 675840, Note_on_c, 0, 72, 91
2, 675840, Note_on_c, 0, 65, 91
2, 675840, Note_on_c, 0, 74, 91
2, 675880, Note_off_c, 0, 74, 64
2, 675888, Note_on_c, 0, 76, 91
2, 675928, Note_off_c, 0, 76, 64
2, 675936, Note_on_c, 0, 74, 91
2, 675976, Note_off_c, 0, 74, 64
2, 675984, Note_on_c, 0, 76, 91
2, 676024, Note_off_c, 0, 76, 64
2, 676032, Note_on_c, 0, 74, 91
2, 676072, Note_off_c, 0, 74, 64
2, 676080, Note_on_c, 0, 76, 92
2, 676120, Note_off_c, 0, 76, 64
2, 676128, Note_on_c, 0, 74, 92
2, 676168, Note_off_c, 0, 74, 64
2, 676176, Note_on_c, 0, 76, 92
2, 676216, Note_off_c, 0, 76, 64
2, 676224, Note_on_c, 0, 74, 92
2, 676264, Note_off_c, 0, 74, 64
2, 676272, Note_on_c, 0, 76, 92
2, 676312, Note_off_c, 0, 76, 64
2, 676320, Note_on_c, 0, 74, 93
2, 676360, Note_off_c, 0, 74, 64
2, 676368, Note_on_c, 0, 76, 93
2, 676408, Note_off_c, 0, 76, 64
2, 676416, Note_on_c, 0, 74, 93
2, 676456, Note_off_c, 0, 74, 64
2, 676464, Note_on_c, 0, 76, 93
2, 676504, Note_off_c, 0, 76, 64
2, 676512, Note_on_c, 0, 74, 94
2, 676552, Note_off_c, 0, 74, 64
2, 676560, Note_on_c, 0, 76, 94
2, 676600, Note_off_c, 0, 76, 64
2, 676604, Note_off_c, 0, 72, 64
2, 676604, Note_off_c, 0, 65, 64
2, 676608, Note_on_c, 0, 74, 94
2, 676648, Note_off_c, 0, 74, 64
2, 676656, Note_on_c, 0, 76, 94
2, 676696, Note_off_c, 0, 76, 64
2, 676704, Note_on_c, 0, 74, 94
2, 676744, Note_off_c, 0, 74, 64
2, 676752, Note_on_c, 0, 76, 95
2, 676792, Note_off_c, 0, 76, 64
2, 676800, Note_on_c, 0, 74, 95
2, 676840, Note_off_c, 0, 74, 64
2, 676848, Note_on_c, 0, 76, 95
2, 676888, Note_off_c, 0, 76, 64
2, 676896, Note_on_c, 0, 74, 95
2, 676936, Note_off_c, 0, 74, 64
2, 676944, Note_on_c, 0, 76, 96
2, 676984, Note_off_c, 0, 76, 64
2, 676992, Note_on_c, 0, 74, 96
2, 677032, Note_off_c, 0, 74, 64
2, 677040, Note_on_c, 0, 76, 96
2, 677080, Note_off_c, 0, 76, 64
2, 677088, Note_on_c, 0, 74, 96
2, 677128, Note_off_c, 0, 74, 64
2, 677136, Note_on_c, 0, 76, 96
2, 677176, Note_off_c, 0, 76, 64
2, 677184, Note_on_c, 0, 74, 97
2, 677224, Note_off_c, 0, 74, 64
2, 677232, Note_on_c, 0, 76, 97
2, 677272, Note_off_c, 0, 76, 64
2, 677280, Note_on_c, 0, 74, 97
2, 677320, Note_off_c, 0, 74, 64
2, 677328, Note_on_c, 0, 76, 97
2, 677368, Note_off_c, 0, 76, 64
2, 677376, Note_on_c, 0, 72, 97
2, 677376, Note_on_c, 0, 74, 97
2, 677416, Note_off_c, 0, 74, 64
2, 677424, Note_on_c, 0, 76, 97
2, 677464, Note_off_c, 0, 76, 64
2, 677472, Note_on_c, 0, 74, 97
2, 677512, Note_off_c, 0, 74, 64
2, 677520, Note_on_c, 0, 76, 97
2, 677560, Note_off_c, 0, 76, 64
2, 677568, Note_on_c, 0, 74, 96
2, 677608, Note_off_c, 0, 74, 64
2, 677616, Note_on_c, 0, 76, 96
2, 677656, Note_off_c, 0, 76, 64
2, 677664, Note_on_c, 0, 74, 96
2, 677704, Note_off_c, 0, 74, 64
2, 677712, Note_on_c, 0, 76, 96
2, 677752, Note_off_c, 0, 76, 64
2, 677760, Note_on_c, 0, 74, 95
2, 677800, Note_off_c, 0, 74, 64
2, 677808, Note_on_c, 0, 76, 95
2, 677848, Note_off_c, 0, 76, 64
2, 677856, Note_on_c, 0, 74, 95
2, 677896, Note_off_c, 0, 74, 64
2, 677904, Note_on_c, 0, 76, 95
2, 677944, Note_off_c, 0, 76, 64
2, 677952, Note_on_c, 0, 74, 94
2, 677992, Note_off_c, 0, 74, 64
2, 678000, Note_on_c, 0, 76, 94
2, 678040, Note_off_c, 0, 76, 64
2, 678048, Note_on_c, 0, 74, 94
2, 678088, Note_off_c, 0, 74, 64
2, 678096, Note_on_c, 0, 76, 94
2, 678136, Note_off_c, 0, 76, 64
2, 678144, Note_on_c, 0, 74, 93
2, 678184, Note_off_c, 0, 74, 64
2, 678192, Note_on_c, 0, 76, 93
2, 678232, Note_off_c, 0, 76, 64
2, 678240, Note_on_c, 0, 74, 93
2, 678280, Note_off_c, 0, 74, 64
2, 678288, Note_on_c, 0, 76, 93
2, 678328, Note_off_c, 0, 76, 64
2, 678336, Note_on_c, 0, 74, 92
2, 678376, Note_off_c, 0, 74, 64
2, 678384, Note_on_c, 0, 76, 92
2, 678424, Note_off_c, 0, 76, 64
2, 678432, Note_on_c, 0, 74, 92
2, 678472, Note_off_c, 0, 74, 64
2, 678480, Note_on_c, 0, 76, 92
2, 678520, Note_off_c, 0, 76, 64
2, 678528, Note_on_c, 0, 93, 100
2, 678528, Note_on_c, 0, 74, 91
2, 678568, Note_off_c, 0, 74, 64
2, 678576, Note_on_c, 0, 76, 91
2, 678616, Note_off_c, 0, 76, 64
2, 678620, Note_off_c, 0, 93, 64
2, 678624, Note_on_c, 0, 74, 91
2, 678664, Note_off_c, 0, 74, 64
2, 678672, Note_on_c, 0, 76, 91
2, 678712, Note_off_c, 0, 76, 64
2, 678720, Note_on_c, 0, 74, 90
2, 678760, Note_off_c, 0, 74, 64
2, 678768, Note_on_c, 0, 76, 90
2, 678808, Note_off_c, 0, 76, 64
2, 678816, Note_on_c, 0, 74, 90
2, 678856, Note_off_c, 0, 74, 64
2, 678864, Note_on_c, 0, 76, 90
2, 678904, Note_off_c, 0, 76, 64
2, 678908, Note_off_c, 0, 72, 64
2, 678912, Note_on_c, 0, 72, 90
2, 678912, Note_on_c, 0, 66, 90
2, 678912, Note_on_c, 0, 74, 90
2, 678952, Note_off_c, 0, 74, 64
2, 678960, Note_on_c, 0, 76, 90
2, 679000, Note_off_c, 0, 76, 64
2, 679008, Note_on_c, 0, 74, 90
2, 679048, Note_off_c, 0, 74, 64
2, 679056, Note_on_c, 0, 76, 90
2, 679096, Note_off_c, 0, 76, 64
2, 679104, Note_on_c, 0, 74, 91
2, 679144, Note_off_c, 0, 74, 64
2, 679152, Note_on_c, 0, 76, 91
2, 679192, Note_off_c, 0, 76, 64
2, 679200, Note_on_c, 0, 74, 91
2, 679240, Note_off_c, 0, 74, 64
2, 679248, Note_on_c, 0, 76, 91
2, 679288, Note_off_c, 0, 76, 64
2, 679296, Note_on_c, 0, 74, 92
2, 679336, Note_off_c, 0, 74, 64
2, 679344, Note_on_c, 0, 76, 92
2, 679384, Note_off_c, 0, 76, 64
2, 679392, Note_on_c, 0, 74, 92
2, 679432, Note_off_c, 0, 74, 64
2, 679440, Note_on_c, 0, 76, 93
2, 679480, Note_off_c, 0, 76, 64
2, 679488, Note_on_c, 0, 74, 93
2, 679528, Note_off_c, 0, 74, 64
2, 679536, Note_on_c, 0, 76, 93
2, 679576, Note_off_c, 0, 76, 64
2, 679584, Note_on_c, 0, 74, 93
2, 679624, Note_off_c, 0, 74, 64
2, 679632, Note_on_c, 0, 76, 94
2, 679672, Note_off_c, 0, 76, 64
2, 679676, Note_off_c, 0, 72, 64
2, 679676, Note_off_c, 0, 66, 64
2, 679680, Note_on_c, 0, 74, 94
2, 679720, Note_off_c, 0, 74, 64
2, 679728, Note_on_c, 0, 76, 94
2, 679768, Note_off_c, 0, 76, 64
2, 679776, Note_on_c, 0, 74, 95
2, 679816, Note_off_c, 0, 74, 64
2, 679824, Note_on_c, 0, 76, 95
2, 679864, Note_off_c, 0, 76, 64
2, 679872, Note_on_c, 0, 74, 95
2, 679912, Note_off_c, 0, 74, 64
2, 679920, Note_on_c, 0, 76, 95
2, 679960, Note_off_c, 0, 76, 64
2, 679968, Note_on_c, 0, 74, 96
2, 680008, Note_off_c, 0, 74, 64
2, 680016, Note_on_c, 0, 76, 96
2, 680056, Note_off_c, 0, 76, 64
2, 680064, Note_on_c, 0, 74, 96
2, 680104, Note_off_c, 0, 74, 64
2, 680112, Note_on_c, 0, 76, 97
2, 680152, Note_off_c, 0, 76, 64
2, 680160, Note_on_c, 0, 74, 97
2, 680200, Note_off_c, 0, 74, 64
2, 680208, Note_on_c, 0, 76, 97
2, 680248, Note_off_c, 0, 76, 64
2, 680256, Note_on_c, 0, 74, 97
2, 680296, Note_off_c, 0, 74, 64
2, 680304, Note_on_c, 0, 76, 98
2, 680344, Note_off_c, 0, 76, 64
2, 680352, Note_on_c, 0, 74, 98
2, 680392, Note_off_c, 0, 74, 64
2, 680400, Note_on_c, 0, 76, 98
2, 680440, Note_off_c, 0, 76, 64
2, 680448, Note_on_c, 0, 72, 97
2, 680448, Note_on_c, 0, 74, 97
2, 680488, Note_off_c, 0, 74, 64
2, 680496, Note_on_c, 0, 76, 97
2, 680536, Note_off_c, 0, 76, 64
2, 680544, Note_on_c, 0, 74, 97
2, 680584, Note_off_c, 0, 74, 64
2, 680592, Note_on_c, 0, 76, 97
2, 680632, Note_off_c, 0, 76, 64
2, 680640, Note_on_c, 0, 74, 96
2, 680680, Note_off_c, 0, 74, 64
2, 680688, Note_on_c, 0, 76, 96
2, 680728, Note_off_c, 0, 76, 64
2, 680736, Note_on_c, 0, 74, 96
2, 680776, Note_off_c, 0, 74, 64
2, 680784, Note_on_c, 0, 76, 96
2, 680824, Note_off_c, 0, 76, 64
2, 680832, Note_on_c, 0, 74, 95
2, 680872, Note_off_c, 0, 74, 64
2, 680880, Note_on_c, 0, 76, 95
2, 680920, Note_off_c, 0, 76, 64
2, 680928, Note_on_c, 0, 74, 95
2, 680968, Note_off_c, 0, 74, 64
2, 680976, Note_on_c, 0, 76, 95
2, 681016, Note_off_c, 0, 76, 64
2, 681020, Note_off_c, 0, 72, 64
2, 681024, Note_on_c, 0, 74, 94
2, 681024, Note_on_c, 0, 71, 94
2, 681064, Note_off_c, 0, 74, 64
2, 681072, Note_on_c, 0, 76, 94
2, 681080, Note_off_c, 0, 71, 64
2, 681088, Note_on_c, 0, 69, 94
2, 681112, Note_off_c, 0, 76, 64
2, 681120, Note_on_c, 0, 74, 94
2, 681144, Note_off_c, 0, 69, 64
2, 681152, Note_on_c, 0, 67, 94
2, 681160, Note_off_c, 0, 74, 64
2, 681168, Note_on_c, 0, 76, 94
2, 681208, Note_off_c, 0, 67, 64
2, 681208, Note_off_c, 0, 76, 64
2, 681216, Note_on_c, 0, 66, 93
2, 681216, Note_on_c, 0, 74, 93
2, 681256, Note_off_c, 0, 74, 64
2, 681264, Note_on_c, 0, 76, 93
2, 681304, Note_off_c, 0, 76, 64
2, 681308, Note_off_c, 0, 66, 64
2, 681312, Note_on_c, 0, 74, 93
2, 681352, Note_off_c, 0, 74, 64
2, 681360, Note_on_c, 0, 76, 93
2, 681400, Note_off_c, 0, 76, 64
2, 681408, Note_on_c, 0, 74, 92
2, 681448, Note_off_c, 0, 74, 64
2, 681456, Note_on_c, 0, 76, 92
2, 681496, Note_off_c, 0, 76, 64
2, 681504, Note_on_c, 0, 74, 92
2, 681544, Note_off_c, 0, 74, 64
2, 681552, Note_on_c, 0, 76, 92
2, 681592, Note_off_c, 0, 76, 64
2, 681600, Note_on_c, 0, 96, 102
2, 681600, Note_on_c, 0, 74, 91
2, 681640, Note_off_c, 0, 74, 64
2, 681648, Note_on_c, 0, 76, 91
2, 681688, Note_off_c, 0, 76, 64
2, 681692, Note_off_c, 0, 96, 64
2, 681696, Note_on_c, 0, 74, 91
2, 681736, Note_off_c, 0, 74, 64
2, 681744, Note_on_c, 0, 76, 91
2, 681784, Note_off_c, 0, 76, 64
2, 681792, Note_on_c, 0, 74, 90
2, 681832, Note_off_c, 0, 74, 64
2, 681840, Note_on_c, 0, 76, 90
2, 681880, Note_off_c, 0, 76, 64
2, 681888, Note_on_c, 0, 74, 90
2, 681928, Note_off_c, 0, 74, 64
2, 681936, Note_on_c, 0, 76, 90
2, 681976, Note_off_c, 0, 76, 64
2, 681984, Note_on_c, 0, 67, 91
2, 681984, Note_on_c, 0, 65, 91
2, 681984, Note_on_c, 0, 74, 91
2, 681984, Note_on_c, 0, 71, 91
2, 682024, Note_off_c, 0, 74, 64
2, 682032, Note_on_c, 0, 76, 91
2, 682072, Note_off_c, 0, 76, 64
2, 682080, Note_on_c, 0, 74, 92
2, 682120, Note_off_c, 0, 74, 64
2, 682128, Note_on_c, 0, 76, 92
2, 682168, Note_off_c, 0, 76, 64
2, 682172, Note_off_c, 0, 67, 64
2, 682172, Note_off_c, 0, 65, 64
2, 682176, Note_on_c, 0, 55, 93
2, 682176, Note_on_c, 0, 74, 93
2, 682216, Note_off_c, 0, 74, 64
2, 682224, Note_on_c, 0, 76, 93
2, 682264, Note_off_c, 0, 76, 64
2, 682272, Note_on_c, 0, 74, 94
2, 682312, Note_off_c, 0, 74, 64
2, 682320, Note_on_c, 0, 76, 94
2, 682360, Note_off_c, 0, 76, 64
2, 682364, Note_off_c, 0, 55, 64
2, 682368, Note_on_c, 0, 68, 95
2, 682368, Note_on_c, 0, 65, 95
2, 682368, Note_on_c, 0, 74, 95
2, 682408, Note_off_c, 0, 74, 64
2, 682416, Note_on_c, 0, 76, 95
2, 682456, Note_off_c, 0, 76, 64
2, 682464, Note_on_c, 0, 74, 96
2, 682504, Note_off_c, 0, 74, 64
2, 682512, Note_on_c, 0, 76, 96
2, 682552, Note_off_c, 0, 76, 64
2, 682556, Note_off_c, 0, 68, 64
2, 682556, Note_off_c, 0, 65, 64
2, 682560, Note_on_c, 0, 56, 97
2, 682560, Note_on_c, 0, 74, 97
2, 682600, Note_off_c, 0, 74, 64
2, 682608, Note_on_c, 0, 76, 97
2, 682648, Note_off_c, 0, 76, 64
2, 682656, Note_on_c, 0, 74, 98
2, 682696, Note_off_c, 0, 74, 64
2, 682704, Note_on_c, 0, 76, 98
2, 682744, Note_off_c, 0, 76, 64
2, 682748, Note_off_c, 0, 71, 64
2, 682748, Note_off_c, 0, 56, 64
2, 682752, Note_on_c, 0, 72, 97
2, 682752, Note_on_c, 0, 69, 97
2, 682752, Note_on_c, 0, 66, 97
2, 682752, Note_on_c, 0, 74, 97
2, 682792, Note_off_c, 0, 74, 64
2, 682800, Note_on_c, 0, 76, 97
2, 682840, Note_off_c, 0, 76, 64
2, 682848, Note_on_c, 0, 74, 96
2, 682888, Note_off_c, 0, 74, 64
2, 682896, Note_on_c, 0, 76, 96
2, 682936, Note_off_c, 0, 76, 64
2, 682940, Note_off_c, 0, 69, 64
2, 682940, Note_off_c, 0, 66, 64
2, 682944, Note_on_c, 0, 57, 95
2, 682944, Note_on_c, 0, 74, 95
2, 682984, Note_off_c, 0, 74, 64
2, 682992, Note_on_c, 0, 76, 95
2, 683032, Note_off_c, 0, 76, 64
2, 683040, Note_on_c, 0, 74, 94
2, 683080, Note_off_c, 0, 74, 64
2, 683088, Note_on_c, 0, 76, 94
2, 683128, Note_off_c, 0, 76, 64
2, 683132, Note_off_c, 0, 57, 64
2, 683136, Note_on_c, 0, 68, 93
2, 683136, Note_on_c, 0, 65, 93
2, 683136, Note_on_c, 0, 74, 93
2, 683176, Note_off_c, 0, 74, 64
2, 683184, Note_on_c, 0, 76, 93
2, 683224, Note_off_c, 0, 76, 64
2, 683232, Note_on_c, 0, 74, 92
2, 683272, Note_off_c, 0, 74, 64
2, 683280, Note_on_c, 0, 76, 92
2, 683320, Note_off_c, 0, 76, 64
2, 683324, Note_off_c, 0, 68, 64
2, 683324, Note_off_c, 0, 65, 64
2, 683328, Note_on_c, 0, 56, 91
2, 683328, Note_on_c, 0, 74, 91
2, 683368, Note_off_c, 0, 74, 64
2, 683376, Note_on_c, 0, 76, 91
2, 683416, Note_off_c, 0, 76, 64
2, 683424, Note_on_c, 0, 74, 90
2, 683464, Note_off_c, 0, 74, 64
2, 683472, Note_on_c, 0, 76, 90
2, 683512, Note_off_c, 0, 76, 64
2, 683516, Note_off_c, 0, 72, 64
2, 683516, Note_off_c, 0, 56, 64
2, 683520, Note_on_c, 0, 71, 90
2, 683520, Note_on_c, 0, 67, 90
2, 683520, Note_on_c, 0, 65, 90
2, 683520, Note_on_c, 0, 74, 90
2, 683560, Note_off_c, 0, 74, 64
2, 683568, Note_on_c, 0, 76, 90
2, 683608, Note_off_c, 0, 76, 64
2, 683616, Note_on_c, 0, 74, 90
2, 683656, Note_off_c, 0, 74, 64
2, 683664, Note_on_c, 0, 76, 90
2, 683704, Note_off_c, 0, 76, 64
2, 683708, Note_off_c, 0, 67, 64
2, 683708, Note_off_c, 0, 65, 64
2, 683712, Note_on_c, 0, 55, 91
2, 683712, Note_on_c, 0, 74, 91
2, 683752, Note_off_c, 0, 74, 64
2, 683760, Note_on_c, 0, 76, 91
2, 683800, Note_off_c, 0, 76, 64
2, 683808, Note_on_c, 0, 74, 91
2, 683848, Note_off_c, 0, 74, 64
2, 683856, Note_on_c, 0, 76, 91
2, 683896, Note_off_c, 0, 76, 64
2, 683900, Note_off_c, 0, 55, 64
2, 683904, Note_on_c, 0, 68, 92
2, 683904, Note_on_c, 0, 65, 92
2, 683904, Note_on_c, 0, 74, 92
2, 683944, Note_off_c, 0, 74, 64
2, 683952, Note_on_c, 0, 76, 92
2, 683992, Note_off_c, 0, 76, 64
2, 684000, Note_on_c, 0, 74, 92
2, 684040, Note_off_c, 0, 74, 64
2, 684048, Note_on_c, 0, 76, 92
2, 684088, Note_off_c, 0, 76, 64
2, 684092, Note_off_c, 0, 68, 64
2, 684092, Note_off_c, 0, 65, 64
2, 684096, Note_on_c, 0, 56, 93
2, 684096, Note_on_c, 0, 74, 93
2, 684136, Note_off_c, 0, 74, 64
2, 684144, Note_on_c, 0, 76, 93
2, 684184, Note_off_c, 0, 76, 64
2, 684192, Note_on_c, 0, 74, 93
2, 684232, Note_off_c, 0, 74, 64
2, 684240, Note_on_c, 0, 76, 93
2, 684280, Note_off_c, 0, 76, 64
2, 684284, Note_off_c, 0, 71, 64
2, 684284, Note_off_c, 0, 56, 64
2, 684288, Note_on_c, 0, 72, 94
2, 684288, Note_on_c, 0, 69, 94
2, 684288, Note_on_c, 0, 66, 94
2, 684288, Note_on_c, 0, 74, 94
2, 684328, Note_off_c, 0, 74, 64
2, 684336, Note_on_c, 0, 76, 94
2, 684376, Note_off_c, 0, 76, 64
2, 684384, Note_on_c, 0, 74, 94
2, 684424, Note_off_c, 0, 74, 64
2, 684432, Note_on_c, 0, 76, 94
2, 684472, Note_off_c, 0, 76, 64
2, 684476, Note_off_c, 0, 69, 64
2, 684476, Note_off_c, 0, 66, 64
2, 684480, Note_on_c, 0, 57, 95
2, 684480, Note_on_c, 0, 74, 95
2, 684520, Note_off_c, 0, 74, 64
2, 684528, Note_on_c, 0, 76, 95
2, 684568, Note_off_c, 0, 76, 64
2, 684576, Note_on_c, 0, 74, 95
2, 684616, Note_off_c, 0, 74, 64
2, 684624, Note_on_c, 0, 76, 95
2, 684664, Note_off_c, 0, 76, 64
2, 684668, Note_off_c, 0, 57, 64
2, 684672, Note_on_c, 0, 68, 96
2, 684672, Note_on_c, 0, 56, 96
2, 684672, Note_on_c, 0, 65, 96
2, 684672, Note_on_c, 0, 74, 96
2, 684712, Note_off_c, 0, 74, 64
2, 684720, Note_on_c, 0, 76, 96
2, 684760, Note_off_c, 0, 76, 64
2, 684768, Note_on_c, 0, 74, 96
2, 684808, Note_off_c, 0, 74, 64
2, 684816, Note_on_c, 0, 76, 96
2, 684856, Note_off_c, 0, 76, 64
2, 684860, Note_off_c, 0, 68, 64
2, 684860, Note_off_c, 0, 56, 64
2, 684860, Note_off_c, 0, 65, 64
2, 684864, Note_on_c, 0, 74, 97
2, 684904, Note_off_c, 0, 74, 64
2, 684912, Note_on_c, 0, 76, 97
2, 684952, Note_off_c, 0, 76, 64
2, 684960, Note_on_c, 0, 74, 97
2, 685000, Note_off_c, 0, 74, 64
2, 685008, Note_on_c, 0, 76, 97
2, 685048, Note_off_c, 0, 76, 64
2, 685052, Note_off_c, 0, 72, 64
2, 685056, Note_on_c, 0, 72, 98
2, 685056, Note_on_c, 0, 65, 98
2, 685056, Note_on_c, 0, 65, 98
2, 685056, Note_on_c, 0, 74, 98
2, 685096, Note_off_c, 0, 65, 64
2, 685096, Note_off_c, 0, 74, 64
2, 685104, Note_on_c, 0, 67, 98
2, 685104, Note_on_c, 0, 76, 98
2, 685144, Note_off_c, 0, 67, 64
2, 685144, Note_off_c, 0, 76, 64
2, 685152, Note_on_c, 0, 74, 98
2, 685152, Note_on_c, 0, 65, 98
2, 685192, Note_off_c, 0, 74, 64
2, 685196, Note_off_c, 0, 65, 64
2, 685200, Note_on_c, 0, 76, 98
2, 685200, Note_on_c, 0, 67, 98
2, 685240, Note_off_c, 0, 76, 64
2, 685240, Note_off_c, 0, 67, 64
2, 685248, Note_on_c, 0, 74, 98
2, 685248, Note_on_c, 0, 65, 98
2, 685288, Note_off_c, 0, 74, 64
2, 685292, Note_off_c, 0, 65, 64
2, 685296, Note_on_c, 0, 76, 98
2, 685296, Note_on_c, 0, 67, 98
2, 685336, Note_off_c, 0, 76, 64
2, 685336, Note_off_c, 0, 67, 64
2, 685344, Note_on_c, 0, 74, 98
2, 685344, Note_on_c, 0, 65, 98
2, 685384, Note_off_c, 0, 74, 64
2, 685388, Note_off_c, 0, 65, 64
2, 685392, Note_on_c, 0, 76, 98
2, 685392, Note_on_c, 0, 67, 98
2, 685432, Note_off_c, 0, 76, 64
2, 685432, Note_off_c, 0, 67, 64
2, 685436, Note_off_c, 0, 72, 64
2, 685436, Note_off_c, 0, 65, 64
2, 685440, Note_on_c, 0, 74, 98
2, 685440, Note_on_c, 0, 65, 98
2, 685480, Note_off_c, 0, 74, 64
2, 685480, Note_off_c, 0, 65, 64
2, 685488, Note_on_c, 0, 76, 98
2, 685488, Note_on_c, 0, 67, 98
2, 685528, Note_off_c, 0, 76, 64
2, 685528, Note_off_c, 0, 67, 64
2, 685536, Note_on_c, 0, 74, 98
2, 685536, Note_on_c, 0, 65, 98
2, 685576, Note_off_c, 0, 74, 64
2, 685576, Note_off_c, 0, 65, 64
2, 685584, Note_on_c, 0, 67, 98
2, 685584, Note_on_c, 0, 76, 98
2, 685624, Note_off_c, 0, 67, 64
2, 685624, Note_off_c, 0, 76, 64
2, 685632, Note_on_c, 0, 74, 98
2, 685632, Note_on_c, 0, 65, 98
2, 685672, Note_off_c, 0, 74, 64
2, 685672, Note_off_c, 0, 65, 64
2, 685680, Note_on_c, 0, 67, 98
2, 685680, Note_on_c, 0, 76, 98
2, 685720, Note_off_c, 0, 67, 64
2, 685720, Note_off_c, 0, 76, 64
2, 685728, Note_on_c, 0, 74, 98
2, 685728, Note_on_c, 0, 65, 98
2, 685768, Note_off_c, 0, 74, 64
2, 685768, Note_off_c, 0, 65, 64
2, 685776, Note_on_c, 0, 76, 98
2, 685776, Note_on_c, 0, 67, 98
2, 685816, Note_off_c, 0, 76, 64
2, 685816, Note_off_c, 0, 67, 64
2, 685824, Note_on_c, 0, 74, 98
2, 685824, Note_on_c, 0, 65, 98
2, 685864, Note_off_c, 0, 74, 64
2, 685864, Note_off_c, 0, 65, 64
2, 685872, Note_on_c, 0, 67, 98
2, 685872, Note_on_c, 0, 76, 98
2, 685912, Note_off_c, 0, 67, 64
2, 685912, Note_off_c, 0, 76, 64
2, 685920, Note_on_c, 0, 74, 98
2, 685920, Note_on_c, 0, 65, 98
2, 686012, Note_off_c, 0, 74, 64
2, 686012, Note_off_c, 0, 65, 64
2, 686016, Note_on_c, 0, 73, 98
2, 686016, Note_on_c, 0, 64, 98
2, 686108, Note_off_c, 0, 73, 64
2, 686108, Note_off_c, 0, 64, 64
2, 686112, Note_on_c, 0, 73, 98
2, 686112, Note_on_c, 0, 64, 98
2, 686152, Note_off_c, 0, 73, 64
2, 686152, Note_off_c, 0, 64, 64
2, 686160, Note_on_c, 0, 74, 98
2, 686160, Note_on_c, 0, 65, 98
2, 686200, Note_off_c, 0, 74, 64
2, 686200, Note_off_c, 0, 65, 64
2, 686208, Note_on_c, 0, 76, 98
2, 686208, Note_on_c, 0, 67, 98
2, 686248, Note_off_c, 0, 76, 64
2, 686248, Note_off_c, 0, 67, 64
2, 686256, Note_on_c, 0, 77, 98
2, 686256, Note_on_c, 0, 69, 98
2, 686296, Note_off_c, 0, 77, 64
2, 686296, Note_off_c, 0, 69, 64
2, 686304, Note_on_c, 0, 79, 98
2, 686304, Note_on_c, 0, 71, 98
2, 686344, Note_off_c, 0, 79, 64
2, 686344, Note_off_c, 0, 71, 64
2, 686352, Note_on_c, 0, 81, 98
2, 686352, Note_on_c, 0, 72, 98
2, 686392, Note_off_c, 0, 81, 64
2, 686392, Note_off_c, 0, 72, 64
2, 686400, Note_on_c, 0, 74, 98
2, 686400, Note_on_c, 0, 83, 98
2, 686440, Note_off_c, 0, 74, 64
2, 686440, Note_off_c, 0, 83, 64
2, 686448, Note_on_c, 0, 84, 98
2, 686448, Note_on_c, 0, 76, 98
2, 686488, Note_off_c, 0, 84, 64
2, 686488, Note_off_c, 0, 76, 64
2, 686496, Note_on_c, 0, 86, 98
2, 686496, Note_on_c, 0, 77, 98
2, 686536, Note_off_c, 0, 86, 64
2, 686536, Note_off_c, 0, 77, 64
2, 686544, Note_on_c, 0, 88, 98
2, 686544, Note_on_c, 0, 79, 98
2, 686584, Note_off_c, 0, 88, 64
2, 686584, Note_off_c, 0, 79, 64
2, 686592, Note_on_c, 0, 86, 98
2, 686592, Note_on_c, 0, 77, 98
2, 686632, Note_off_c, 0, 86, 64
2, 686632, Note_off_c, 0, 77, 64
2, 686640, Note_on_c, 0, 88, 98
2, 686640, Note_on_c, 0, 79, 98
2, 686680, Note_off_c, 0, 88, 64
2, 686680, Note_off_c, 0, 79, 64
2, 686688, Note_on_c, 0, 86, 98
2, 686688, Note_on_c, 0, 77, 98
2, 686728, Note_off_c, 0, 86, 64
2, 686728, Note_off_c, 0, 77, 64
2, 686736, Note_on_c, 0, 88, 98
2, 686736, Note_on_c, 0, 79, 98
2, 686776, Note_off_c, 0, 88, 64
2, 686776, Note_off_c, 0, 79, 64
2, 686784, Note_on_c, 0, 86, 98
2, 686784, Note_on_c, 0, 77, 98
2, 686824, Note_off_c, 0, 86, 64
2, 686824, Note_off_c, 0, 77, 64
2, 686832, Note_on_c, 0, 88, 98
2, 686832, Note_on_c, 0, 79, 98
2, 686872, Note_off_c, 0, 88, 64
2, 686872, Note_off_c, 0, 79, 64
2, 686880, Note_on_c, 0, 86, 98
2, 686880, Note_on_c, 0, 77, 98
2, 686920, Note_off_c, 0, 86, 64
2, 686920, Note_off_c, 0, 77, 64
2, 686928, Note_on_c, 0, 88, 98
2, 686928, Note_on_c, 0, 79, 98
2, 686968, Note_off_c, 0, 88, 64
2, 686968, Note_off_c, 0, 79, 64
2, 686976, Note_on_c, 0, 86, 98
2, 686976, Note_on_c, 0, 77, 98
2, 687016, Note_off_c, 0, 86, 64
2, 687016, Note_off_c, 0, 77, 64
2, 687024, Note_on_c, 0, 88, 98
2, 687024, Note_on_c, 0, 79, 98
2, 687064, Note_off_c, 0, 88, 64
2, 687064, Note_off_c, 0, 79, 64
2, 687072, Note_on_c, 0, 86, 98
2, 687072, Note_on_c, 0, 77, 98
2, 687112, Note_off_c, 0, 86, 64
2, 687112, Note_off_c, 0, 77, 64
2, 687120, Note_on_c, 0, 88, 98
2, 687120, Note_on_c, 0, 79, 98
2, 687160, Note_off_c, 0, 88, 64
2, 687160, Note_off_c, 0, 79, 64
2, 687168, Note_on_c, 0, 86, 98
2, 687168, Note_on_c, 0, 77, 98
2, 687208, Note_off_c, 0, 86, 64
2, 687208, Note_off_c, 0, 77, 64
2, 687216, Note_on_c, 0, 88, 98
2, 687216, Note_on_c, 0, 79, 98
2, 687256, Note_off_c, 0, 88, 64
2, 687256, Note_off_c, 0, 79, 64
2, 687264, Note_on_c, 0, 86, 98
2, 687264, Note_on_c, 0, 77, 98
2, 687304, Note_off_c, 0, 86, 64
2, 687304, Note_off_c, 0, 77, 64
2, 687312, Note_on_c, 0, 88, 98
2, 687312, Note_on_c, 0, 79, 98
2, 687352, Note_off_c, 0, 88, 64
2, 687352, Note_off_c, 0, 79, 64
2, 687360, Note_on_c, 0, 86, 98
2, 687360, Note_on_c, 0, 77, 98
2, 687400, Note_off_c, 0, 86, 64
2, 687400, Note_off_c, 0, 77, 64
2, 687408, Note_on_c, 0, 88, 98
2, 687408, Note_on_c, 0, 79, 98
2, 687448, Note_off_c, 0, 88, 64
2, 687448, Note_off_c, 0, 79, 64
2, 687456, Note_on_c, 0, 86, 98
2, 687456, Note_on_c, 0, 77, 98
2, 687496, Note_off_c, 0, 86, 64
2, 687496, Note_off_c, 0, 77, 64
2, 687504, Note_on_c, 0, 88, 98
2, 687504, Note_on_c, 0, 79, 98
2, 687544, Note_off_c, 0, 88, 64
2, 687544, Note_off_c, 0, 79, 64
2, 687552, Note_on_c, 0, 86, 98
2, 687552, Note_on_c, 0, 77, 98
2, 687592, Note_off_c, 0, 86, 64
2, 687592, Note_off_c, 0, 77, 64
2, 687600, Note_on_c, 0, 88, 98
2, 687600, Note_on_c, 0, 79, 98
2, 687640, Note_off_c, 0, 88, 64
2, 687640, Note_off_c, 0, 79, 64
2, 687648, Note_on_c, 0, 86, 98
2, 687648, Note_on_c, 0, 77, 98
2, 687688, Note_off_c, 0, 86, 64
2, 687688, Note_off_c, 0, 77, 64
2, 687696, Note_on_c, 0, 88, 98
2, 687696, Note_on_c, 0, 79, 98
2, 687736, Note_off_c, 0, 88, 64
2, 687736, Note_off_c, 0, 79, 64
2, 687744, Note_on_c, 0, 86, 98
2, 687744, Note_on_c, 0, 77, 98
2, 687784, Note_off_c, 0, 86, 64
2, 687784, Note_off_c, 0, 77, 64
2, 687792, Note_on_c, 0, 88, 98
2, 687792, Note_on_c, 0, 79, 98
2, 687832, Note_off_c, 0, 88, 64
2, 687832, Note_off_c, 0, 79, 64
2, 687840, Note_on_c, 0, 86, 98
2, 687840, Note_on_c, 0, 77, 98
2, 687880, Note_off_c, 0, 86, 64
2, 687880, Note_off_c, 0, 77, 64
2, 687888, Note_on_c, 0, 88, 98
2, 687888, Note_on_c, 0, 79, 98
2, 687928, Note_off_c, 0, 88, 64
2, 687928, Note_off_c, 0, 79, 64
2, 687936, Note_on_c, 0, 76, 98
2, 687936, Note_on_c, 0, 84, 98
2, 688024, Note_off_c, 0, 76, 64
2, 688024, Note_off_c, 0, 84, 64
2, 688032, Note_on_c, 0, 86, 98
2, 688032, Note_on_c, 0, 77, 98
2, 688120, Note_off_c, 0, 86, 64
2, 688120, Note_off_c, 0, 77, 64
2, 688128, Note_on_c, 0, 84, 98
2, 688128, Note_on_c, 0, 76, 98
2, 688128, Note_on_c, 0, 72, 98
2, 688508, Note_off_c, 0, 84, 64
2, 688508, Note_off_c, 0, 76, 64
2, 688508, Note_off_c, 0, 72, 64
2, 688508, End_track
3, 0, Start_track
3, 0, Title_t, "K467a - #21"
3, 0, Control_c, 1, 0, 0
3, 0, Program_c, 1, 0
3, 0, Control_c, 1, 10, 66
3, 0, Control_c, 1, 91, 63
3, 0, Control_c, 1, 93, 67
3, 0, Key_signature, 0, "major"
3, 0, Control_c, 1, 121, 0
3, 144, Control_c, 1, 10, 63
3, 480, Control_c, 1, 91, 63
3, 576, Control_c, 1, 93, 35
3, 768, Program_c, 1, 0
3, 113664, Note_on_c, 1, 55, 65
3, 113664, Note_on_c, 1, 43, 66
3, 114044, Note_off_c, 1, 55, 64
3, 114044, Note_off_c, 1, 43, 64
3, 115200, Note_on_c, 1, 55, 65
3, 115200, Note_on_c, 1, 43, 65
3, 115580, Note_off_c, 1, 55, 64
3, 115580, Note_off_c, 1, 43, 64
3, 119808, Note_on_c, 1, 62, 90
3, 119808, Note_on_c, 1, 59, 90
3, 119808, Note_on_c, 1, 55, 90
3, 120572, Note_off_c, 1, 62, 64
3, 120572, Note_off_c, 1, 59, 64
3, 120572, Note_off_c, 1, 55, 64
3, 120576, Note_on_c, 1, 62, 90
3, 120576, Note_on_c, 1, 59, 90
3, 120576, Note_on_c, 1, 55, 90
3, 121340, Note_off_c, 1, 62, 64
3, 121340, Note_off_c, 1, 59, 64
3, 121340, Note_off_c, 1, 55, 64
3, 121344, Note_on_c, 1, 55, 90
3, 121344, Note_on_c, 1, 50, 90
3, 121344, Note_on_c, 1, 47, 90
3, 121344, Note_on_c, 1, 43, 91
3, 122876, Note_off_c, 1, 55, 64
3, 122876, Note_off_c, 1, 50, 64
3, 122876, Note_off_c, 1, 47, 64
3, 122876, Note_off_c, 1, 43, 64
3, 125952, Note_on_c, 1, 59, 90
3, 125952, Note_on_c, 1, 55, 90
3, 127484, Note_off_c, 1, 59, 64
3, 127484, Note_off_c, 1, 55, 64
3, 144384, Note_on_c, 1, 60, 88
3, 144384, Note_on_c, 1, 48, 88
3, 144764, Note_off_c, 1, 60, 64
3, 144764, Note_off_c, 1, 48, 64
3, 145152, Note_on_c, 1, 55, 77
3, 145152, Note_on_c, 1, 43, 77
3, 145532, Note_off_c, 1, 55, 64
3, 145532, Note_off_c, 1, 43, 64
3, 161280, Note_on_c, 1, 53, 90
3, 161660, Note_off_c, 1, 53, 64
3, 162816, Note_on_c, 1, 53, 90
3, 163388, Note_off_c, 1, 53, 64
3, 163392, Note_on_c, 1, 55, 90
3, 163580, Note_off_c, 1, 55, 64
3, 163584, Note_on_c, 1, 57, 90
3, 164156, Note_off_c, 1, 57, 64
3, 164160, Note_on_c, 1, 54, 90
3, 164348, Note_off_c, 1, 54, 64
3, 175104, Note_on_c, 1, 55, 90
3, 175104, Note_on_c, 1, 43, 90
3, 175104, Note_on_c, 1, 50, 90
3, 175104, Note_on_c, 1, 46, 90
3, 175484, Note_off_c, 1, 50, 64
3, 175484, Note_off_c, 1, 46, 64
3, 175868, Note_off_c, 1, 55, 64
3, 175868, Note_off_c, 1, 43, 64
3, 175872, Note_on_c, 1, 58, 65
3, 175872, Note_on_c, 1, 55, 65
3, 176636, Note_off_c, 1, 58, 64
3, 176636, Note_off_c, 1, 55, 64
3, 176640, Note_on_c, 1, 57, 65
3, 176640, Note_on_c, 1, 54, 65
3, 177020, Note_off_c, 1, 57, 64
3, 177020, Note_off_c, 1, 54, 64
3, 177024, Note_on_c, 1, 58, 65
3, 177024, Note_on_c, 1, 55, 65
3, 177404, Note_off_c, 1, 58, 64
3, 177404, Note_off_c, 1, 55, 64
3, 177408, Note_on_c, 1, 57, 65
3, 177408, Note_on_c, 1, 54, 65
3, 177788, Note_off_c, 1, 57, 64
3, 177788, Note_off_c, 1, 54, 64
3, 177792, Note_on_c, 1, 58, 65
3, 177792, Note_on_c, 1, 55, 65
3, 178172, Note_off_c, 1, 58, 64
3, 178172, Note_off_c, 1, 55, 64
3, 178176, Note_on_c, 1, 57, 65
3, 178176, Note_on_c, 1, 54, 65
3, 179324, Note_off_c, 1, 57, 64
3, 179324, Note_off_c, 1, 54, 64
3, 199680, Note_on_c, 1, 48, 90
3, 199680, Note_on_c, 1, 45, 90
3, 199680, Note_on_c, 1, 42, 91
3, 199680, Note_on_c, 1, 38, 92
3, 202748, Note_off_c, 1, 38, 64
3, 202748, Note_off_c, 1, 42, 64
3, 202748, Note_off_c, 1, 45, 64
3, 202748, Note_off_c, 1, 48, 64
3, 202752, Note_on_c, 1, 55, 65
3, 202940, Note_off_c, 1, 55, 64
3, 202944, Note_on_c, 1, 62, 65
3, 203132, Note_off_c, 1, 62, 64
3, 203136, Note_on_c, 1, 59, 65
3, 203324, Note_off_c, 1, 59, 64
3, 203328, Note_on_c, 1, 62, 65
3, 203516, Note_off_c, 1, 62, 64
3, 203520, Note_on_c, 1, 55, 65
3, 203708, Note_off_c, 1, 55, 64
3, 203712, Note_on_c, 1, 62, 65
3, 203900, Note_off_c, 1, 62, 64
3, 203904, Note_on_c, 1, 59, 65
3, 204092, Note_off_c, 1, 59, 64
3, 204096, Note_on_c, 1, 62, 65
3, 204284, Note_off_c, 1, 62, 64
3, 204288, Note_on_c, 1, 48, 65
3, 204476, Note_off_c, 1, 48, 64
3, 204480, Note_on_c, 1, 57, 65
3, 204668, Note_off_c, 1, 57, 64
3, 204672, Note_on_c, 1, 52, 65
3, 204860, Note_off_c, 1, 52, 64
3, 204864, Note_on_c, 1, 57, 65
3, 205052, Note_off_c, 1, 57, 64
3, 205056, Note_on_c, 1, 48, 65
3, 205244, Note_off_c, 1, 48, 64
3, 205248, Note_on_c, 1, 57, 65
3, 205436, Note_off_c, 1, 57, 64
3, 205440, Note_on_c, 1, 52, 65
3, 205628, Note_off_c, 1, 52, 64
3, 205632, Note_on_c, 1, 57, 65
3, 205820, Note_off_c, 1, 57, 64
3, 205824, Note_on_c, 1, 50, 65
3, 206012, Note_off_c, 1, 50, 64
3, 206016, Note_on_c, 1, 60, 65
3, 206204, Note_off_c, 1, 60, 64
3, 206208, Note_on_c, 1, 57, 65
3, 206396, Note_off_c, 1, 57, 64
3, 206400, Note_on_c, 1, 60, 65
3, 206588, Note_off_c, 1, 60, 64
3, 206592, Note_on_c, 1, 50, 65
3, 206780, Note_off_c, 1, 50, 64
3, 206784, Note_on_c, 1, 60, 65
3, 206972, Note_off_c, 1, 60, 64
3, 206976, Note_on_c, 1, 57, 65
3, 207164, Note_off_c, 1, 57, 64
3, 207168, Note_on_c, 1, 60, 65
3, 207356, Note_off_c, 1, 60, 64
3, 207360, Note_on_c, 1, 47, 65
3, 207548, Note_off_c, 1, 47, 64
3, 207552, Note_on_c, 1, 55, 65
3, 207740, Note_off_c, 1, 55, 64
3, 207744, Note_on_c, 1, 50, 65
3, 207932, Note_off_c, 1, 50, 64
3, 207936, Note_on_c, 1, 55, 65
3, 208124, Note_off_c, 1, 55, 64
3, 208128, Note_on_c, 1, 47, 65
3, 208316, Note_off_c, 1, 47, 64
3, 208320, Note_on_c, 1, 55, 65
3, 208508, Note_off_c, 1, 55, 64
3, 208512, Note_on_c, 1, 50, 65
3, 208700, Note_off_c, 1, 50, 64
3, 208704, Note_on_c, 1, 55, 65
3, 208892, Note_off_c, 1, 55, 64
3, 209280, Note_on_c, 1, 62, 65
3, 209280, Note_on_c, 1, 59, 65
3, 209660, Note_off_c, 1, 62, 64
3, 209660, Note_off_c, 1, 59, 64
3, 209664, Note_on_c, 1, 62, 65
3, 209664, Note_on_c, 1, 60, 65
3, 210428, Note_off_c, 1, 62, 64
3, 210428, Note_off_c, 1, 60, 64
3, 210816, Note_on_c, 1, 62, 65
3, 210816, Note_on_c, 1, 59, 65
3, 211196, Note_off_c, 1, 62, 64
3, 211196, Note_off_c, 1, 59, 64
3, 211200, Note_on_c, 1, 62, 65
3, 211200, Note_on_c, 1, 60, 65
3, 211964, Note_off_c, 1, 62, 64
3, 211964, Note_off_c, 1, 60, 64
3, 211968, Note_on_c, 1, 62, 65
3, 211968, Note_on_c, 1, 59, 65
3, 212348, Note_off_c, 1, 62, 64
3, 212348, Note_off_c, 1, 59, 64
3, 213120, Note_on_c, 1, 67, 65
3, 213120, Note_on_c, 1, 59, 65
3, 213212, Note_off_c, 1, 67, 64
3, 213212, Note_off_c, 1, 59, 64
3, 213312, Note_on_c, 1, 67, 65
3, 213312, Note_on_c, 1, 61, 65
3, 213404, Note_off_c, 1, 67, 64
3, 213404, Note_off_c, 1, 61, 64
3, 213504, Note_on_c, 1, 67, 65
3, 213504, Note_on_c, 1, 62, 65
3, 214268, Note_off_c, 1, 67, 64
3, 214268, Note_off_c, 1, 62, 64
3, 214272, Note_on_c, 1, 66, 65
3, 214272, Note_on_c, 1, 62, 65
3, 214652, Note_off_c, 1, 66, 64
3, 214652, Note_off_c, 1, 62, 64
3, 221568, Note_on_c, 1, 62, 65
3, 221568, Note_on_c, 1, 59, 65
3, 221948, Note_off_c, 1, 62, 64
3, 221948, Note_off_c, 1, 59, 64
3, 221952, Note_on_c, 1, 63, 65
3, 221952, Note_on_c, 1, 60, 65
3, 222332, Note_off_c, 1, 63, 64
3, 222336, Note_on_c, 1, 62, 65
3, 222716, Note_off_c, 1, 60, 64
3, 222716, Note_off_c, 1, 62, 64
3, 223104, Note_on_c, 1, 62, 68
3, 223104, Note_on_c, 1, 59, 68
3, 223484, Note_off_c, 1, 62, 64
3, 223484, Note_off_c, 1, 59, 64
3, 223488, Note_on_c, 1, 63, 76
3, 223488, Note_on_c, 1, 60, 76
3, 223868, Note_off_c, 1, 63, 64
3, 223872, Note_on_c, 1, 62, 84
3, 224252, Note_off_c, 1, 60, 64
3, 224252, Note_off_c, 1, 62, 64
3, 224256, Note_on_c, 1, 59, 90
3, 224256, Note_on_c, 1, 62, 90
3, 224636, Note_off_c, 1, 59, 64
3, 224636, Note_off_c, 1, 62, 64
3, 224640, Note_on_c, 1, 60, 90
3, 225020, Note_off_c, 1, 60, 64
3, 225024, Note_on_c, 1, 62, 90
3, 225404, Note_off_c, 1, 62, 64
3, 225408, Note_on_c, 1, 50, 90
3, 225788, Note_off_c, 1, 50, 64
3, 225792, Note_on_c, 1, 55, 90
3, 226172, Note_off_c, 1, 55, 64
3, 227328, Note_on_c, 1, 57, 65
3, 227516, Note_off_c, 1, 57, 64
3, 227712, Note_on_c, 1, 50, 65
3, 227900, Note_off_c, 1, 50, 64
3, 228096, Note_on_c, 1, 57, 65
3, 228284, Note_off_c, 1, 57, 64
3, 228480, Note_on_c, 1, 60, 65
3, 228668, Note_off_c, 1, 60, 64
3, 228864, Note_on_c, 1, 59, 66
3, 229436, Note_off_c, 1, 59, 64
3, 229440, Note_on_c, 1, 60, 70
3, 229496, Note_off_c, 1, 60, 64
3, 229504, Note_on_c, 1, 59, 71
3, 229560, Note_off_c, 1, 59, 64
3, 229568, Note_on_c, 1, 57, 71
3, 229624, Note_off_c, 1, 57, 64
3, 229632, Note_on_c, 1, 55, 72
3, 230012, Note_off_c, 1, 55, 64
3, 233472, Note_on_c, 1, 36, 94
3, 233564, Note_off_c, 1, 36, 64
3, 233568, Note_on_c, 1, 48, 90
3, 233660, Note_off_c, 1, 48, 64
3, 233664, Note_on_c, 1, 47, 90
3, 233756, Note_off_c, 1, 47, 64
3, 233760, Note_on_c, 1, 48, 90
3, 233852, Note_off_c, 1, 48, 64
3, 233856, Note_on_c, 1, 40, 92
3, 233948, Note_off_c, 1, 40, 64
3, 233952, Note_on_c, 1, 52, 90
3, 234044, Note_off_c, 1, 52, 64
3, 234048, Note_on_c, 1, 51, 90
3, 234140, Note_off_c, 1, 51, 64
3, 234144, Note_on_c, 1, 52, 90
3, 234236, Note_off_c, 1, 52, 64
3, 234240, Note_on_c, 1, 43, 90
3, 234332, Note_off_c, 1, 43, 64
3, 234336, Note_on_c, 1, 55, 90
3, 234428, Note_off_c, 1, 55, 64
3, 234432, Note_on_c, 1, 54, 90
3, 234524, Note_off_c, 1, 54, 64
3, 234528, Note_on_c, 1, 55, 90
3, 234620, Note_off_c, 1, 55, 64
3, 234624, Note_on_c, 1, 48, 90
3, 234716, Note_off_c, 1, 48, 64
3, 234720, Note_on_c, 1, 60, 90
3, 234812, Note_off_c, 1, 60, 64
3, 234816, Note_on_c, 1, 59, 90
3, 234908, Note_off_c, 1, 59, 64
3, 234912, Note_on_c, 1, 60, 90
3, 235004, Note_off_c, 1, 60, 64
3, 235008, Note_on_c, 1, 54, 90
3, 235100, Note_off_c, 1, 54, 64
3, 235104, Note_on_c, 1, 66, 90
3, 235196, Note_off_c, 1, 66, 64
3, 235200, Note_on_c, 1, 65, 90
3, 235292, Note_off_c, 1, 65, 64
3, 235296, Note_on_c, 1, 66, 90
3, 235388, Note_off_c, 1, 66, 64
3, 235392, Note_on_c, 1, 48, 90
3, 235484, Note_off_c, 1, 48, 64
3, 235488, Note_on_c, 1, 60, 90
3, 235580, Note_off_c, 1, 60, 64
3, 235584, Note_on_c, 1, 59, 90
3, 235676, Note_off_c, 1, 59, 64
3, 235680, Note_on_c, 1, 60, 90
3, 235772, Note_off_c, 1, 60, 64
3, 235776, Note_on_c, 1, 45, 90
3, 235868, Note_off_c, 1, 45, 64
3, 235872, Note_on_c, 1, 57, 90
3, 235964, Note_off_c, 1, 57, 64
3, 235968, Note_on_c, 1, 56, 90
3, 236060, Note_off_c, 1, 56, 64
3, 236064, Note_on_c, 1, 57, 90
3, 236156, Note_off_c, 1, 57, 64
3, 236160, Note_on_c, 1, 42, 91
3, 236252, Note_off_c, 1, 42, 64
3, 236256, Note_on_c, 1, 54, 90
3, 236348, Note_off_c, 1, 54, 64
3, 236352, Note_on_c, 1, 53, 90
3, 236444, Note_off_c, 1, 53, 64
3, 236448, Note_on_c, 1, 54, 90
3, 236540, Note_off_c, 1, 54, 64
3, 236544, Note_on_c, 1, 36, 94
3, 236636, Note_off_c, 1, 36, 64
3, 236640, Note_on_c, 1, 47, 90
3, 236732, Note_off_c, 1, 47, 64
3, 236736, Note_on_c, 1, 46, 90
3, 236828, Note_off_c, 1, 46, 64
3, 236832, Note_on_c, 1, 47, 90
3, 236924, Note_off_c, 1, 47, 64
3, 236928, Note_on_c, 1, 38, 93
3, 237020, Note_off_c, 1, 38, 64
3, 237024, Note_on_c, 1, 50, 90
3, 237116, Note_off_c, 1, 50, 64
3, 237120, Note_on_c, 1, 49, 90
3, 237212, Note_off_c, 1, 49, 64
3, 237216, Note_on_c, 1, 50, 90
3, 237308, Note_off_c, 1, 50, 64
3, 237312, Note_on_c, 1, 42, 91
3, 237404, Note_off_c, 1, 42, 64
3, 237408, Note_on_c, 1, 54, 90
3, 237500, Note_off_c, 1, 54, 64
3, 237504, Note_on_c, 1, 53, 90
3, 237596, Note_off_c, 1, 53, 64
3, 237600, Note_on_c, 1, 54, 90
3, 237692, Note_off_c, 1, 54, 64
3, 237696, Note_on_c, 1, 47, 90
3, 237788, Note_off_c, 1, 47, 64
3, 237792, Note_on_c, 1, 59, 90
3, 237884, Note_off_c, 1, 59, 64
3, 237888, Note_on_c, 1, 58, 90
3, 237980, Note_off_c, 1, 58, 64
3, 237984, Note_on_c, 1, 59, 90
3, 238076, Note_off_c, 1, 59, 64
3, 238080, Note_on_c, 1, 52, 90
3, 238172, Note_off_c, 1, 52, 64
3, 238176, Note_on_c, 1, 64, 90
3, 238268, Note_off_c, 1, 64, 64
3, 238272, Note_on_c, 1, 63, 90
3, 238364, Note_off_c, 1, 63, 64
3, 238368, Note_on_c, 1, 64, 90
3, 238460, Note_off_c, 1, 64, 64
3, 238464, Note_on_c, 1, 47, 90
3, 238556, Note_off_c, 1, 47, 64
3, 238560, Note_on_c, 1, 59, 90
3, 238652, Note_off_c, 1, 59, 64
3, 238656, Note_on_c, 1, 58, 90
3, 238748, Note_off_c, 1, 58, 64
3, 238752, Note_on_c, 1, 59, 90
3, 238844, Note_off_c, 1, 59, 64
3, 238848, Note_on_c, 1, 43, 90
3, 238940, Note_off_c, 1, 43, 64
3, 238944, Note_on_c, 1, 55, 90
3, 239036, Note_off_c, 1, 55, 64
3, 239040, Note_on_c, 1, 54, 90
3, 239132, Note_off_c, 1, 54, 64
3, 239136, Note_on_c, 1, 55, 90
3, 239228, Note_off_c, 1, 55, 64
3, 239232, Note_on_c, 1, 40, 90
3, 239324, Note_off_c, 1, 40, 64
3, 239328, Note_on_c, 1, 52, 90
3, 239420, Note_off_c, 1, 52, 64
3, 239424, Note_on_c, 1, 51, 90
3, 239516, Note_off_c, 1, 51, 64
3, 239520, Note_on_c, 1, 52, 90
3, 239612, Note_off_c, 1, 52, 64
3, 239616, Note_on_c, 1, 45, 90
3, 239708, Note_off_c, 1, 45, 64
3, 239712, Note_on_c, 1, 57, 90
3, 239804, Note_off_c, 1, 57, 64
3, 239808, Note_on_c, 1, 56, 90
3, 239900, Note_off_c, 1, 56, 64
3, 239904, Note_on_c, 1, 57, 90
3, 239996, Note_off_c, 1, 57, 64
3, 240000, Note_on_c, 1, 48, 90
3, 240092, Note_off_c, 1, 48, 64
3, 240096, Note_on_c, 1, 60, 90
3, 240188, Note_off_c, 1, 60, 64
3, 240192, Note_on_c, 1, 59, 90
3, 240284, Note_off_c, 1, 59, 64
3, 240288, Note_on_c, 1, 60, 90
3, 240380, Note_off_c, 1, 60, 64
3, 240384, Note_on_c, 1, 52, 90
3, 240476, Note_off_c, 1, 52, 64
3, 240480, Note_on_c, 1, 64, 90
3, 240572, Note_off_c, 1, 64, 64
3, 240576, Note_on_c, 1, 63, 90
3, 240668, Note_off_c, 1, 63, 64
3, 240672, Note_on_c, 1, 64, 90
3, 240764, Note_off_c, 1, 64, 64
3, 240768, Note_on_c, 1, 57, 90
3, 240860, Note_off_c, 1, 57, 64
3, 240864, Note_on_c, 1, 69, 90
3, 240956, Note_off_c, 1, 69, 64
3, 240960, Note_on_c, 1, 68, 90
3, 241052, Note_off_c, 1, 68, 64
3, 241056, Note_on_c, 1, 69, 90
3, 241148, Note_off_c, 1, 69, 64
3, 241152, Note_on_c, 1, 50, 90
3, 241244, Note_off_c, 1, 50, 64
3, 241248, Note_on_c, 1, 62, 90
3, 241340, Note_off_c, 1, 62, 64
3, 241344, Note_on_c, 1, 61, 90
3, 241436, Note_off_c, 1, 61, 64
3, 241440, Note_on_c, 1, 62, 90
3, 241532, Note_off_c, 1, 62, 64
3, 241536, Note_on_c, 1, 45, 90
3, 241628, Note_off_c, 1, 45, 64
3, 241632, Note_on_c, 1, 57, 90
3, 241724, Note_off_c, 1, 57, 64
3, 241728, Note_on_c, 1, 56, 90
3, 241820, Note_off_c, 1, 56, 64
3, 241824, Note_on_c, 1, 57, 90
3, 241916, Note_off_c, 1, 57, 64
3, 241920, Note_on_c, 1, 42, 91
3, 242012, Note_off_c, 1, 42, 64
3, 242016, Note_on_c, 1, 54, 90
3, 242108, Note_off_c, 1, 54, 64
3, 242112, Note_on_c, 1, 53, 90
3, 242204, Note_off_c, 1, 53, 64
3, 242208, Note_on_c, 1, 54, 90
3, 242300, Note_off_c, 1, 54, 64
3, 242304, Note_on_c, 1, 38, 93
3, 242396, Note_off_c, 1, 38, 64
3, 242400, Note_on_c, 1, 50, 90
3, 242492, Note_off_c, 1, 50, 64
3, 242496, Note_on_c, 1, 49, 90
3, 242588, Note_off_c, 1, 49, 64
3, 242592, Note_on_c, 1, 50, 90
3, 242684, Note_off_c, 1, 50, 64
3, 242688, Note_on_c, 1, 55, 90
3, 242780, Note_off_c, 1, 55, 64
3, 242784, Note_on_c, 1, 59, 90
3, 242876, Note_off_c, 1, 59, 64
3, 242880, Note_on_c, 1, 62, 90
3, 242972, Note_off_c, 1, 62, 64
3, 242976, Note_on_c, 1, 67, 90
3, 243068, Note_off_c, 1, 67, 64
3, 243072, Note_on_c, 1, 66, 90
3, 243164, Note_off_c, 1, 66, 64
3, 243168, Note_on_c, 1, 67, 90
3, 243260, Note_off_c, 1, 67, 64
3, 243264, Note_on_c, 1, 62, 90
3, 243356, Note_off_c, 1, 62, 64
3, 243360, Note_on_c, 1, 59, 90
3, 243452, Note_off_c, 1, 59, 64
3, 243456, Note_on_c, 1, 55, 90
3, 243548, Note_off_c, 1, 55, 64
3, 243552, Note_on_c, 1, 59, 90
3, 243644, Note_off_c, 1, 59, 64
3, 243648, Note_on_c, 1, 62, 90
3, 243740, Note_off_c, 1, 62, 64
3, 243744, Note_on_c, 1, 67, 90
3, 243836, Note_off_c, 1, 67, 64
3, 243840, Note_on_c, 1, 55, 90
3, 243932, Note_off_c, 1, 55, 64
3, 243936, Note_on_c, 1, 67, 90
3, 244028, Note_off_c, 1, 67, 64
3, 244032, Note_on_c, 1, 54, 90
3, 244124, Note_off_c, 1, 54, 64
3, 244128, Note_on_c, 1, 66, 90
3, 244220, Note_off_c, 1, 66, 64
3, 244224, Note_on_c, 1, 52, 90
3, 244316, Note_off_c, 1, 52, 64
3, 244320, Note_on_c, 1, 55, 90
3, 244412, Note_off_c, 1, 55, 64
3, 244416, Note_on_c, 1, 59, 90
3, 244508, Note_off_c, 1, 59, 64
3, 244512, Note_on_c, 1, 64, 90
3, 244604, Note_off_c, 1, 64, 64
3, 244608, Note_on_c, 1, 63, 90
3, 244700, Note_off_c, 1, 63, 64
3, 244704, Note_on_c, 1, 64, 90
3, 244796, Note_off_c, 1, 64, 64
3, 244800, Note_on_c, 1, 59, 90
3, 244892, Note_off_c, 1, 59, 64
3, 244896, Note_on_c, 1, 55, 90
3, 244988, Note_off_c, 1, 55, 64
3, 244992, Note_on_c, 1, 52, 90
3, 245084, Note_off_c, 1, 52, 64
3, 245088, Note_on_c, 1, 55, 90
3, 245180, Note_off_c, 1, 55, 64
3, 245184, Note_on_c, 1, 59, 90
3, 245276, Note_off_c, 1, 59, 64
3, 245280, Note_on_c, 1, 64, 90
3, 245372, Note_off_c, 1, 64, 64
3, 245376, Note_on_c, 1, 52, 90
3, 245468, Note_off_c, 1, 52, 64
3, 245472, Note_on_c, 1, 64, 90
3, 245564, Note_off_c, 1, 64, 64
3, 245568, Note_on_c, 1, 50, 90
3, 245660, Note_off_c, 1, 50, 64
3, 245664, Note_on_c, 1, 62, 90
3, 245756, Note_off_c, 1, 62, 64
3, 245760, Note_on_c, 1, 48, 90
3, 245852, Note_off_c, 1, 48, 64
3, 245856, Note_on_c, 1, 52, 90
3, 245948, Note_off_c, 1, 52, 64
3, 245952, Note_on_c, 1, 55, 90
3, 246044, Note_off_c, 1, 55, 64
3, 246048, Note_on_c, 1, 60, 90
3, 246140, Note_off_c, 1, 60, 64
3, 246144, Note_on_c, 1, 59, 90
3, 246236, Note_off_c, 1, 59, 64
3, 246240, Note_on_c, 1, 60, 90
3, 246332, Note_off_c, 1, 60, 64
3, 246336, Note_on_c, 1, 55, 90
3, 246428, Note_off_c, 1, 55, 64
3, 246432, Note_on_c, 1, 52, 90
3, 246524, Note_off_c, 1, 52, 64
3, 246528, Note_on_c, 1, 48, 90
3, 246620, Note_off_c, 1, 48, 64
3, 246624, Note_on_c, 1, 52, 90
3, 246716, Note_off_c, 1, 52, 64
3, 246720, Note_on_c, 1, 55, 90
3, 246812, Note_off_c, 1, 55, 64
3, 246816, Note_on_c, 1, 60, 90
3, 246908, Note_off_c, 1, 60, 64
3, 246912, Note_on_c, 1, 48, 90
3, 247004, Note_off_c, 1, 48, 64
3, 247008, Note_on_c, 1, 60, 90
3, 247100, Note_off_c, 1, 60, 64
3, 247104, Note_on_c, 1, 47, 90
3, 247196, Note_off_c, 1, 47, 64
3, 247200, Note_on_c, 1, 59, 90
3, 247292, Note_off_c, 1, 59, 64
3, 247296, Note_on_c, 1, 45, 90
3, 247388, Note_off_c, 1, 45, 64
3, 247392, Note_on_c, 1, 48, 90
3, 247484, Note_off_c, 1, 48, 64
3, 247488, Note_on_c, 1, 52, 90
3, 247580, Note_off_c, 1, 52, 64
3, 247584, Note_on_c, 1, 57, 90
3, 247676, Note_off_c, 1, 57, 64
3, 247680, Note_on_c, 1, 45, 90
3, 247772, Note_off_c, 1, 45, 64
3, 247776, Note_on_c, 1, 57, 90
3, 247868, Note_off_c, 1, 57, 64
3, 247872, Note_on_c, 1, 43, 90
3, 247964, Note_off_c, 1, 43, 64
3, 247968, Note_on_c, 1, 55, 90
3, 248060, Note_off_c, 1, 55, 64
3, 248064, Note_on_c, 1, 42, 91
3, 248156, Note_off_c, 1, 42, 64
3, 248160, Note_on_c, 1, 45, 90
3, 248252, Note_off_c, 1, 45, 64
3, 248256, Note_on_c, 1, 48, 90
3, 248348, Note_off_c, 1, 48, 64
3, 248352, Note_on_c, 1, 53, 90
3, 248444, Note_off_c, 1, 53, 64
3, 248448, Note_on_c, 1, 42, 91
3, 248540, Note_off_c, 1, 42, 64
3, 248544, Note_on_c, 1, 53, 90
3, 248636, Note_off_c, 1, 53, 64
3, 248640, Note_on_c, 1, 40, 92
3, 248732, Note_off_c, 1, 40, 64
3, 248736, Note_on_c, 1, 52, 90
3, 248828, Note_off_c, 1, 52, 64
3, 248832, Note_on_c, 1, 50, 90
3, 248832, Note_on_c, 1, 38, 93
3, 249404, Note_off_c, 1, 50, 64
3, 249404, Note_off_c, 1, 38, 64
3, 249408, Note_on_c, 1, 51, 90
3, 249408, Note_on_c, 1, 39, 92
3, 249596, Note_off_c, 1, 51, 64
3, 249596, Note_off_c, 1, 39, 64
3, 249600, Note_on_c, 1, 50, 90
3, 249600, Note_on_c, 1, 38, 93
3, 249788, Note_off_c, 1, 50, 64
3, 249788, Note_off_c, 1, 38, 64
3, 249792, Note_on_c, 1, 51, 90
3, 249792, Note_on_c, 1, 39, 92
3, 249980, Note_off_c, 1, 51, 64
3, 249980, Note_off_c, 1, 39, 64
3, 249984, Note_on_c, 1, 50, 90
3, 249984, Note_on_c, 1, 38, 93
3, 250172, Note_off_c, 1, 50, 64
3, 250172, Note_off_c, 1, 38, 64
3, 250176, Note_on_c, 1, 51, 90
3, 250176, Note_on_c, 1, 39, 92
3, 250364, Note_off_c, 1, 51, 64
3, 250364, Note_off_c, 1, 39, 64
3, 250368, Note_on_c, 1, 50, 90
3, 250368, Note_on_c, 1, 38, 93
3, 250940, Note_off_c, 1, 50, 64
3, 250940, Note_off_c, 1, 38, 64
3, 250944, Note_on_c, 1, 51, 90
3, 250944, Note_on_c, 1, 39, 92
3, 251132, Note_off_c, 1, 51, 64
3, 251132, Note_off_c, 1, 39, 64
3, 251136, Note_on_c, 1, 50, 90
3, 251136, Note_on_c, 1, 38, 93
3, 251324, Note_off_c, 1, 50, 64
3, 251324, Note_off_c, 1, 38, 64
3, 251328, Note_on_c, 1, 51, 90
3, 251328, Note_on_c, 1, 39, 92
3, 251516, Note_off_c, 1, 51, 64
3, 251516, Note_off_c, 1, 39, 64
3, 251520, Note_on_c, 1, 50, 90
3, 251520, Note_on_c, 1, 38, 93
3, 251708, Note_off_c, 1, 50, 64
3, 251708, Note_off_c, 1, 38, 64
3, 251712, Note_on_c, 1, 51, 90
3, 251712, Note_on_c, 1, 39, 93
3, 251900, Note_off_c, 1, 51, 64
3, 251900, Note_off_c, 1, 39, 64
3, 251904, Note_on_c, 1, 50, 90
3, 251904, Note_on_c, 1, 38, 93
3, 252092, Note_off_c, 1, 50, 64
3, 252092, Note_off_c, 1, 38, 64
3, 252096, Note_on_c, 1, 49, 90
3, 252096, Note_on_c, 1, 37, 94
3, 252284, Note_off_c, 1, 49, 64
3, 252284, Note_off_c, 1, 37, 64
3, 252288, Note_on_c, 1, 50, 90
3, 252288, Note_on_c, 1, 38, 93
3, 252476, Note_off_c, 1, 50, 64
3, 252476, Note_off_c, 1, 38, 64
3, 252480, Note_on_c, 1, 51, 90
3, 252480, Note_on_c, 1, 39, 93
3, 252668, Note_off_c, 1, 51, 64
3, 252668, Note_off_c, 1, 39, 64
3, 252672, Note_on_c, 1, 52, 90
3, 252672, Note_on_c, 1, 40, 92
3, 252860, Note_off_c, 1, 52, 64
3, 252860, Note_off_c, 1, 40, 64
3, 252864, Note_on_c, 1, 53, 90
3, 252864, Note_on_c, 1, 41, 91
3, 253052, Note_off_c, 1, 53, 64
3, 253052, Note_off_c, 1, 41, 64
3, 253056, Note_on_c, 1, 54, 90
3, 253056, Note_on_c, 1, 42, 91
3, 253244, Note_off_c, 1, 54, 64
3, 253244, Note_off_c, 1, 42, 64
3, 253248, Note_on_c, 1, 55, 90
3, 253248, Note_on_c, 1, 43, 90
3, 253436, Note_off_c, 1, 55, 64
3, 253436, Note_off_c, 1, 43, 64
3, 253440, Note_on_c, 1, 56, 90
3, 253440, Note_on_c, 1, 44, 90
3, 253628, Note_off_c, 1, 56, 64
3, 253628, Note_off_c, 1, 44, 64
3, 253632, Note_on_c, 1, 57, 90
3, 253632, Note_on_c, 1, 45, 90
3, 253820, Note_off_c, 1, 57, 64
3, 253820, Note_off_c, 1, 45, 64
3, 253824, Note_on_c, 1, 56, 90
3, 253824, Note_on_c, 1, 44, 90
3, 254012, Note_off_c, 1, 56, 64
3, 254012, Note_off_c, 1, 44, 64
3, 254016, Note_on_c, 1, 55, 90
3, 254016, Note_on_c, 1, 43, 90
3, 254204, Note_off_c, 1, 55, 64
3, 254204, Note_off_c, 1, 43, 64
3, 254208, Note_on_c, 1, 54, 90
3, 254208, Note_on_c, 1, 42, 91
3, 254396, Note_off_c, 1, 54, 64
3, 254396, Note_off_c, 1, 42, 64
3, 254400, Note_on_c, 1, 53, 90
3, 254400, Note_on_c, 1, 41, 91
3, 254588, Note_off_c, 1, 53, 64
3, 254588, Note_off_c, 1, 41, 64
3, 254592, Note_on_c, 1, 52, 90
3, 254592, Note_on_c, 1, 40, 92
3, 254780, Note_off_c, 1, 52, 64
3, 254780, Note_off_c, 1, 40, 64
3, 254784, Note_on_c, 1, 51, 90
3, 254784, Note_on_c, 1, 39, 92
3, 254972, Note_off_c, 1, 51, 64
3, 254972, Note_off_c, 1, 39, 64
3, 254976, Note_on_c, 1, 50, 90
3, 254976, Note_on_c, 1, 38, 93
3, 255356, Note_off_c, 1, 50, 64
3, 255356, Note_off_c, 1, 38, 64
3, 255360, Note_on_c, 1, 51, 65
3, 255360, Note_on_c, 1, 39, 68
3, 255740, Note_off_c, 1, 51, 64
3, 255740, Note_off_c, 1, 39, 64
3, 255744, Note_on_c, 1, 52, 65
3, 255744, Note_on_c, 1, 40, 67
3, 256124, Note_off_c, 1, 52, 64
3, 256124, Note_off_c, 1, 40, 64
3, 256128, Note_on_c, 1, 50, 65
3, 256128, Note_on_c, 1, 38, 68
3, 256508, Note_off_c, 1, 50, 64
3, 256508, Note_off_c, 1, 38, 64
3, 256512, Note_on_c, 1, 48, 65
3, 256512, Note_on_c, 1, 36, 69
3, 256892, Note_off_c, 1, 48, 64
3, 256892, Note_off_c, 1, 36, 64
3, 262656, Note_on_c, 1, 50, 65
3, 262844, Note_off_c, 1, 50, 64
3, 262848, Note_on_c, 1, 59, 65
3, 263036, Note_off_c, 1, 59, 64
3, 263040, Note_on_c, 1, 55, 65
3, 263228, Note_off_c, 1, 55, 64
3, 263232, Note_on_c, 1, 59, 65
3, 263420, Note_off_c, 1, 59, 64
3, 263424, Note_on_c, 1, 50, 65
3, 263612, Note_off_c, 1, 50, 64
3, 263616, Note_on_c, 1, 59, 65
3, 263804, Note_off_c, 1, 59, 64
3, 263808, Note_on_c, 1, 55, 65
3, 263996, Note_off_c, 1, 55, 64
3, 264000, Note_on_c, 1, 59, 65
3, 264188, Note_off_c, 1, 59, 64
3, 264192, Note_on_c, 1, 50, 65
3, 264380, Note_off_c, 1, 50, 64
3, 264384, Note_on_c, 1, 59, 65
3, 264572, Note_off_c, 1, 59, 64
3, 264576, Note_on_c, 1, 55, 65
3, 264764, Note_off_c, 1, 55, 64
3, 264768, Note_on_c, 1, 59, 65
3, 264956, Note_off_c, 1, 59, 64
3, 264960, Note_on_c, 1, 50, 65
3, 265148, Note_off_c, 1, 50, 64
3, 265152, Note_on_c, 1, 60, 65
3, 265340, Note_off_c, 1, 60, 64
3, 265344, Note_on_c, 1, 54, 65
3, 265532, Note_off_c, 1, 54, 64
3, 265536, Note_on_c, 1, 60, 65
3, 265724, Note_off_c, 1, 60, 64
3, 265728, Note_on_c, 1, 59, 90
3, 265728, Note_on_c, 1, 55, 90
3, 266108, Note_off_c, 1, 59, 64
3, 266108, Note_off_c, 1, 55, 64
3, 266880, Note_on_c, 1, 60, 90
3, 266880, Note_on_c, 1, 57, 90
3, 266880, Note_on_c, 1, 54, 90
3, 266880, Note_on_c, 1, 50, 90
3, 267260, Note_off_c, 1, 60, 64
3, 267260, Note_off_c, 1, 57, 64
3, 267260, Note_off_c, 1, 54, 64
3, 267260, Note_off_c, 1, 50, 64
3, 267264, Note_on_c, 1, 59, 90
3, 267264, Note_on_c, 1, 55, 90
3, 267644, Note_off_c, 1, 59, 64
3, 267644, Note_off_c, 1, 55, 64
3, 268416, Note_on_c, 1, 60, 90
3, 268416, Note_on_c, 1, 57, 90
3, 268416, Note_on_c, 1, 54, 90
3, 268416, Note_on_c, 1, 50, 90
3, 268796, Note_off_c, 1, 60, 64
3, 268796, Note_off_c, 1, 57, 64
3, 268796, Note_off_c, 1, 54, 64
3, 268796, Note_off_c, 1, 50, 64
3, 268896, Note_on_c, 1, 43, 90
3, 268988, Note_off_c, 1, 43, 64
3, 268992, Note_on_c, 1, 45, 90
3, 269084, Note_off_c, 1, 45, 64
3, 269088, Note_on_c, 1, 47, 90
3, 269180, Note_off_c, 1, 47, 64
3, 269184, Note_on_c, 1, 48, 90
3, 269276, Note_off_c, 1, 48, 64
3, 269280, Note_on_c, 1, 50, 90
3, 269372, Note_off_c, 1, 50, 64
3, 269376, Note_on_c, 1, 52, 90
3, 269468, Note_off_c, 1, 52, 64
3, 269472, Note_on_c, 1, 54, 90
3, 269564, Note_off_c, 1, 54, 64
3, 269568, Note_on_c, 1, 55, 90
3, 269660, Note_off_c, 1, 55, 64
3, 269664, Note_on_c, 1, 57, 90
3, 269756, Note_off_c, 1, 57, 64
3, 269760, Note_on_c, 1, 59, 90
3, 269852, Note_off_c, 1, 59, 64
3, 269856, Note_on_c, 1, 60, 90
3, 269948, Note_off_c, 1, 60, 64
3, 269952, Note_on_c, 1, 62, 90
3, 270044, Note_off_c, 1, 62, 64
3, 270144, Note_on_c, 1, 50, 90
3, 270236, Note_off_c, 1, 50, 64
3, 270432, Note_on_c, 1, 40, 92
3, 270524, Note_off_c, 1, 40, 64
3, 270528, Note_on_c, 1, 42, 91
3, 270620, Note_off_c, 1, 42, 64
3, 270624, Note_on_c, 1, 43, 91
3, 270716, Note_off_c, 1, 43, 64
3, 270720, Note_on_c, 1, 45, 90
3, 270812, Note_off_c, 1, 45, 64
3, 270816, Note_on_c, 1, 47, 90
3, 270908, Note_off_c, 1, 47, 64
3, 270912, Note_on_c, 1, 49, 90
3, 271004, Note_off_c, 1, 49, 64
3, 271008, Note_on_c, 1, 50, 90
3, 271100, Note_off_c, 1, 50, 64
3, 271104, Note_on_c, 1, 52, 90
3, 271196, Note_off_c, 1, 52, 64
3, 271200, Note_on_c, 1, 54, 90
3, 271292, Note_off_c, 1, 54, 64
3, 271296, Note_on_c, 1, 55, 90
3, 271388, Note_off_c, 1, 55, 64
3, 271392, Note_on_c, 1, 57, 90
3, 271484, Note_off_c, 1, 57, 64
3, 271488, Note_on_c, 1, 59, 90
3, 271580, Note_off_c, 1, 59, 64
3, 271680, Note_on_c, 1, 47, 90
3, 271772, Note_off_c, 1, 47, 64
3, 271968, Note_on_c, 1, 36, 94
3, 272060, Note_off_c, 1, 36, 64
3, 272064, Note_on_c, 1, 38, 93
3, 272156, Note_off_c, 1, 38, 64
3, 272160, Note_on_c, 1, 40, 92
3, 272252, Note_off_c, 1, 40, 64
3, 272256, Note_on_c, 1, 41, 91
3, 272348, Note_off_c, 1, 41, 64
3, 272352, Note_on_c, 1, 43, 91
3, 272444, Note_off_c, 1, 43, 64
3, 272448, Note_on_c, 1, 45, 90
3, 272540, Note_off_c, 1, 45, 64
3, 272544, Note_on_c, 1, 47, 90
3, 272636, Note_off_c, 1, 47, 64
3, 272640, Note_on_c, 1, 48, 90
3, 272732, Note_off_c, 1, 48, 64
3, 272736, Note_on_c, 1, 50, 90
3, 272828, Note_off_c, 1, 50, 64
3, 272832, Note_on_c, 1, 52, 90
3, 272924, Note_off_c, 1, 52, 64
3, 272928, Note_on_c, 1, 54, 90
3, 273020, Note_off_c, 1, 54, 64
3, 273024, Note_on_c, 1, 55, 90
3, 273116, Note_off_c, 1, 55, 64
3, 273216, Note_on_c, 1, 43, 90
3, 273308, Note_off_c, 1, 43, 64
3, 273408, Note_on_c, 1, 57, 90
3, 273692, Note_off_c, 1, 57, 64
3, 273696, Note_on_c, 1, 55, 90
3, 273788, Note_off_c, 1, 55, 64
3, 273792, Note_on_c, 1, 54, 90
3, 274076, Note_off_c, 1, 54, 64
3, 274080, Note_on_c, 1, 52, 90
3, 274172, Note_off_c, 1, 52, 64
3, 274176, Note_on_c, 1, 50, 90
3, 274460, Note_off_c, 1, 50, 64
3, 274464, Note_on_c, 1, 48, 90
3, 274556, Note_off_c, 1, 48, 64
3, 274560, Note_on_c, 1, 47, 90
3, 274844, Note_off_c, 1, 47, 64
3, 274848, Note_on_c, 1, 45, 90
3, 274940, Note_off_c, 1, 45, 64
3, 274944, Note_on_c, 1, 43, 90
3, 274944, Note_on_c, 1, 43, 90
3, 275324, Note_off_c, 1, 43, 64
3, 276092, Note_off_c, 1, 43, 64
3, 276096, Note_on_c, 1, 53, 90
3, 276096, Note_on_c, 1, 41, 91
3, 276476, Note_off_c, 1, 53, 64
3, 276476, Note_off_c, 1, 41, 64
3, 276480, Note_on_c, 1, 52, 90
3, 276480, Note_on_c, 1, 40, 92
3, 276480, Note_on_c, 1, 40, 92
3, 276860, Note_off_c, 1, 52, 64
3, 276860, Note_off_c, 1, 40, 64
3, 277628, Note_off_c, 1, 40, 64
3, 277632, Note_on_c, 1, 40, 91
3, 278012, Note_off_c, 1, 40, 64
3, 278016, Note_on_c, 1, 50, 90
3, 278016, Note_on_c, 1, 50, 90
3, 278016, Note_on_c, 1, 38, 93
3, 278396, Note_off_c, 1, 50, 64
3, 278780, Note_off_c, 1, 50, 64
3, 278780, Note_off_c, 1, 38, 64
3, 279552, Note_on_c, 1, 43, 90
3, 279644, Note_off_c, 1, 43, 64
3, 279648, Note_on_c, 1, 47, 90
3, 279740, Note_off_c, 1, 47, 64
3, 279744, Note_on_c, 1, 50, 90
3, 279836, Note_off_c, 1, 50, 64
3, 279840, Note_on_c, 1, 55, 90
3, 279932, Note_off_c, 1, 55, 64
3, 279936, Note_on_c, 1, 43, 90
3, 280028, Note_off_c, 1, 43, 64
3, 280032, Note_on_c, 1, 55, 90
3, 280124, Note_off_c, 1, 55, 64
3, 280128, Note_on_c, 1, 45, 90
3, 280220, Note_off_c, 1, 45, 64
3, 280224, Note_on_c, 1, 57, 90
3, 280316, Note_off_c, 1, 57, 64
3, 280320, Note_on_c, 1, 47, 90
3, 280412, Note_off_c, 1, 47, 64
3, 280416, Note_on_c, 1, 59, 90
3, 280508, Note_off_c, 1, 59, 64
3, 280512, Note_on_c, 1, 48, 90
3, 280604, Note_off_c, 1, 48, 64
3, 280608, Note_on_c, 1, 60, 90
3, 280700, Note_off_c, 1, 60, 64
3, 280704, Note_on_c, 1, 61, 90
3, 280796, Note_off_c, 1, 61, 64
3, 280800, Note_on_c, 1, 64, 90
3, 280892, Note_off_c, 1, 64, 64
3, 280896, Note_on_c, 1, 60, 90
3, 280988, Note_off_c, 1, 60, 64
3, 280992, Note_on_c, 1, 57, 90
3, 281084, Note_off_c, 1, 57, 64
3, 281088, Note_on_c, 1, 43, 90
3, 281180, Note_off_c, 1, 43, 64
3, 281184, Note_on_c, 1, 47, 90
3, 281276, Note_off_c, 1, 47, 64
3, 281280, Note_on_c, 1, 50, 90
3, 281372, Note_off_c, 1, 50, 64
3, 281376, Note_on_c, 1, 55, 90
3, 281468, Note_off_c, 1, 55, 64
3, 281472, Note_on_c, 1, 43, 90
3, 281564, Note_off_c, 1, 43, 64
3, 281568, Note_on_c, 1, 55, 90
3, 281660, Note_off_c, 1, 55, 64
3, 281664, Note_on_c, 1, 45, 90
3, 281756, Note_off_c, 1, 45, 64
3, 281760, Note_on_c, 1, 57, 90
3, 281852, Note_off_c, 1, 57, 64
3, 281856, Note_on_c, 1, 47, 90
3, 281948, Note_off_c, 1, 47, 64
3, 281952, Note_on_c, 1, 59, 90
3, 282044, Note_off_c, 1, 59, 64
3, 282048, Note_on_c, 1, 48, 90
3, 282140, Note_off_c, 1, 48, 64
3, 282144, Note_on_c, 1, 60, 90
3, 282236, Note_off_c, 1, 60, 64
3, 282240, Note_on_c, 1, 61, 90
3, 282332, Note_off_c, 1, 61, 64
3, 282336, Note_on_c, 1, 64, 90
3, 282428, Note_off_c, 1, 64, 64
3, 282432, Note_on_c, 1, 60, 90
3, 282524, Note_off_c, 1, 60, 64
3, 282528, Note_on_c, 1, 57, 90
3, 282620, Note_off_c, 1, 57, 64
3, 282624, Note_on_c, 1, 55, 90
3, 283004, Note_off_c, 1, 55, 64
3, 283776, Note_on_c, 1, 43, 90
3, 283776, Note_on_c, 1, 55, 90
3, 283868, Note_off_c, 1, 43, 64
3, 283868, Note_off_c, 1, 55, 64
3, 283968, Note_on_c, 1, 54, 90
3, 283968, Note_on_c, 1, 42, 90
3, 284060, Note_off_c, 1, 54, 64
3, 284060, Note_off_c, 1, 42, 64
3, 284160, Note_on_c, 1, 52, 90
3, 284160, Note_on_c, 1, 40, 92
3, 284540, Note_off_c, 1, 52, 64
3, 284540, Note_off_c, 1, 40, 64
3, 285312, Note_on_c, 1, 52, 90
3, 285312, Note_on_c, 1, 40, 92
3, 285404, Note_off_c, 1, 52, 64
3, 285404, Note_off_c, 1, 40, 64
3, 285504, Note_on_c, 1, 50, 90
3, 285504, Note_on_c, 1, 38, 93
3, 285596, Note_off_c, 1, 50, 64
3, 285596, Note_off_c, 1, 38, 64
3, 285696, Note_on_c, 1, 48, 90
3, 285696, Note_on_c, 1, 36, 94
3, 286076, Note_off_c, 1, 48, 64
3, 286076, Note_off_c, 1, 36, 64
3, 286848, Note_on_c, 1, 48, 90
3, 286848, Note_on_c, 1, 36, 94
3, 286940, Note_off_c, 1, 48, 64
3, 286940, Note_off_c, 1, 36, 64
3, 287040, Note_on_c, 1, 47, 90
3, 287040, Note_on_c, 1, 35, 95
3, 287132, Note_off_c, 1, 47, 64
3, 287132, Note_off_c, 1, 35, 64
3, 287232, Note_on_c, 1, 33, 96
3, 287324, Note_off_c, 1, 33, 64
3, 287328, Note_on_c, 1, 45, 90
3, 287420, Note_off_c, 1, 45, 64
3, 287424, Note_on_c, 1, 35, 95
3, 287516, Note_off_c, 1, 35, 64
3, 287520, Note_on_c, 1, 47, 90
3, 287612, Note_off_c, 1, 47, 64
3, 287616, Note_on_c, 1, 36, 94
3, 287708, Note_off_c, 1, 36, 64
3, 287712, Note_on_c, 1, 48, 90
3, 287804, Note_off_c, 1, 48, 64
3, 287808, Note_on_c, 1, 38, 93
3, 287900, Note_off_c, 1, 38, 64
3, 287904, Note_on_c, 1, 50, 90
3, 287996, Note_off_c, 1, 50, 64
3, 288000, Note_on_c, 1, 40, 92
3, 288092, Note_off_c, 1, 40, 64
3, 288096, Note_on_c, 1, 52, 90
3, 288188, Note_off_c, 1, 52, 64
3, 288192, Note_on_c, 1, 42, 91
3, 288284, Note_off_c, 1, 42, 64
3, 288288, Note_on_c, 1, 54, 90
3, 288380, Note_off_c, 1, 54, 64
3, 288384, Note_on_c, 1, 43, 91
3, 288476, Note_off_c, 1, 43, 64
3, 288480, Note_on_c, 1, 55, 90
3, 288572, Note_off_c, 1, 55, 64
3, 288576, Note_on_c, 1, 45, 90
3, 288668, Note_off_c, 1, 45, 64
3, 288672, Note_on_c, 1, 57, 90
3, 288764, Note_off_c, 1, 57, 64
3, 288768, Note_on_c, 1, 59, 90
3, 288860, Note_off_c, 1, 59, 64
3, 288864, Note_on_c, 1, 62, 90
3, 288956, Note_off_c, 1, 62, 64
3, 288960, Note_on_c, 1, 55, 90
3, 289052, Note_off_c, 1, 55, 64
3, 289056, Note_on_c, 1, 59, 90
3, 289148, Note_off_c, 1, 59, 64
3, 289152, Note_on_c, 1, 50, 90
3, 289244, Note_off_c, 1, 50, 64
3, 289248, Note_on_c, 1, 55, 90
3, 289340, Note_off_c, 1, 55, 64
3, 289344, Note_on_c, 1, 47, 90
3, 289436, Note_off_c, 1, 47, 64
3, 289440, Note_on_c, 1, 50, 90
3, 289532, Note_off_c, 1, 50, 64
3, 289536, Note_on_c, 1, 43, 90
3, 289916, Note_off_c, 1, 43, 64
3, 290304, Note_on_c, 1, 52, 90
3, 290396, Note_off_c, 1, 52, 64
3, 290400, Note_on_c, 1, 55, 90
3, 290492, Note_off_c, 1, 55, 64
3, 290496, Note_on_c, 1, 48, 90
3, 290588, Note_off_c, 1, 48, 64
3, 290592, Note_on_c, 1, 52, 90
3, 290684, Note_off_c, 1, 52, 64
3, 290688, Note_on_c, 1, 43, 90
3, 290780, Note_off_c, 1, 43, 64
3, 290784, Note_on_c, 1, 48, 90
3, 290876, Note_off_c, 1, 48, 64
3, 290880, Note_on_c, 1, 40, 92
3, 290972, Note_off_c, 1, 40, 64
3, 290976, Note_on_c, 1, 43, 90
3, 291068, Note_off_c, 1, 43, 64
3, 291840, Note_on_c, 1, 52, 90
3, 291932, Note_off_c, 1, 52, 64
3, 291936, Note_on_c, 1, 55, 90
3, 292028, Note_off_c, 1, 55, 64
3, 292032, Note_on_c, 1, 49, 90
3, 292124, Note_off_c, 1, 49, 64
3, 292128, Note_on_c, 1, 52, 90
3, 292220, Note_off_c, 1, 52, 64
3, 292224, Note_on_c, 1, 43, 90
3, 292316, Note_off_c, 1, 43, 64
3, 292320, Note_on_c, 1, 46, 90
3, 292412, Note_off_c, 1, 46, 64
3, 292416, Note_on_c, 1, 40, 92
3, 292508, Note_off_c, 1, 40, 64
3, 292512, Note_on_c, 1, 43, 90
3, 292604, Note_off_c, 1, 43, 64
3, 292608, Note_on_c, 1, 37, 90
3, 292988, Note_off_c, 1, 37, 64
3, 293376, Note_on_c, 1, 58, 90
3, 293564, Note_off_c, 1, 58, 64
3, 293568, Note_on_c, 1, 55, 90
3, 293756, Note_off_c, 1, 55, 64
3, 293760, Note_on_c, 1, 52, 90
3, 293948, Note_off_c, 1, 52, 64
3, 293952, Note_on_c, 1, 49, 90
3, 294140, Note_off_c, 1, 49, 64
3, 294144, Note_on_c, 1, 58, 90
3, 294144, Note_on_c, 1, 46, 90
3, 294236, Note_off_c, 1, 58, 64
3, 294240, Note_on_c, 1, 61, 90
3, 294332, Note_off_c, 1, 46, 64
3, 294332, Note_off_c, 1, 61, 64
3, 294336, Note_on_c, 1, 55, 90
3, 294336, Note_on_c, 1, 43, 91
3, 294428, Note_off_c, 1, 55, 64
3, 294432, Note_on_c, 1, 58, 92
3, 294524, Note_off_c, 1, 43, 64
3, 294524, Note_off_c, 1, 58, 64
3, 294528, Note_on_c, 1, 52, 90
3, 294528, Note_on_c, 1, 40, 94
3, 294620, Note_off_c, 1, 52, 64
3, 294624, Note_on_c, 1, 55, 90
3, 294716, Note_off_c, 1, 40, 64
3, 294716, Note_off_c, 1, 55, 64
3, 294720, Note_on_c, 1, 49, 90
3, 294720, Note_on_c, 1, 37, 90
3, 294812, Note_off_c, 1, 49, 64
3, 294816, Note_on_c, 1, 52, 90
3, 294908, Note_off_c, 1, 37, 64
3, 294908, Note_off_c, 1, 52, 64
3, 294912, Note_on_c, 1, 50, 90
3, 294912, Note_on_c, 1, 38, 93
3, 295004, Note_off_c, 1, 50, 64
3, 295004, Note_off_c, 1, 38, 64
3, 295008, Note_on_c, 1, 55, 90
3, 295008, Note_on_c, 1, 43, 91
3, 295100, Note_off_c, 1, 55, 64
3, 295100, Note_off_c, 1, 43, 64
3, 295104, Note_on_c, 1, 54, 90
3, 295104, Note_on_c, 1, 42, 91
3, 295196, Note_off_c, 1, 54, 64
3, 295196, Note_off_c, 1, 42, 64
3, 295200, Note_on_c, 1, 57, 90
3, 295200, Note_on_c, 1, 45, 90
3, 295292, Note_off_c, 1, 57, 64
3, 295292, Note_off_c, 1, 45, 64
3, 295296, Note_on_c, 1, 55, 90
3, 295296, Note_on_c, 1, 43, 91
3, 295388, Note_off_c, 1, 55, 64
3, 295388, Note_off_c, 1, 43, 64
3, 295392, Note_on_c, 1, 59, 90
3, 295392, Note_on_c, 1, 47, 90
3, 295484, Note_off_c, 1, 59, 64
3, 295484, Note_off_c, 1, 47, 64
3, 295488, Note_on_c, 1, 57, 90
3, 295488, Note_on_c, 1, 45, 90
3, 295580, Note_off_c, 1, 57, 64
3, 295580, Note_off_c, 1, 45, 64
3, 295584, Note_on_c, 1, 60, 90
3, 295584, Note_on_c, 1, 48, 90
3, 295676, Note_off_c, 1, 60, 64
3, 295676, Note_off_c, 1, 48, 64
3, 295680, Note_on_c, 1, 47, 90
3, 295772, Note_off_c, 1, 47, 64
3, 295776, Note_on_c, 1, 50, 90
3, 295868, Note_off_c, 1, 50, 64
3, 295872, Note_on_c, 1, 48, 90
3, 295964, Note_off_c, 1, 48, 64
3, 295968, Note_on_c, 1, 52, 90
3, 296060, Note_off_c, 1, 52, 64
3, 296064, Note_on_c, 1, 50, 90
3, 296156, Note_off_c, 1, 50, 64
3, 296160, Note_on_c, 1, 55, 90
3, 296252, Note_off_c, 1, 55, 64
3, 296256, Note_on_c, 1, 54, 90
3, 296348, Note_off_c, 1, 54, 64
3, 296352, Note_on_c, 1, 57, 90
3, 296444, Note_off_c, 1, 57, 64
3, 296448, Note_on_c, 1, 55, 90
3, 296540, Note_off_c, 1, 55, 64
3, 296544, Note_on_c, 1, 59, 90
3, 296636, Note_off_c, 1, 59, 64
3, 296640, Note_on_c, 1, 57, 90
3, 296732, Note_off_c, 1, 57, 64
3, 296736, Note_on_c, 1, 60, 90
3, 296828, Note_off_c, 1, 60, 64
3, 296832, Note_on_c, 1, 59, 90
3, 296924, Note_off_c, 1, 59, 64
3, 296928, Note_on_c, 1, 62, 90
3, 297020, Note_off_c, 1, 62, 64
3, 297024, Note_on_c, 1, 60, 90
3, 297116, Note_off_c, 1, 60, 64
3, 297120, Note_on_c, 1, 64, 90
3, 297212, Note_off_c, 1, 64, 64
3, 298752, Note_on_c, 1, 62, 90
3, 298844, Note_off_c, 1, 62, 64
3, 298848, Note_on_c, 1, 67, 90
3, 298940, Note_off_c, 1, 67, 64
3, 298944, Note_on_c, 1, 58, 90
3, 299036, Note_off_c, 1, 58, 64
3, 299040, Note_on_c, 1, 61, 90
3, 299132, Note_off_c, 1, 61, 64
3, 299136, Note_on_c, 1, 59, 90
3, 299228, Note_off_c, 1, 59, 64
3, 299232, Note_on_c, 1, 62, 90
3, 299324, Note_off_c, 1, 62, 64
3, 299328, Note_on_c, 1, 54, 90
3, 299420, Note_off_c, 1, 54, 64
3, 299424, Note_on_c, 1, 57, 90
3, 299516, Note_off_c, 1, 57, 64
3, 299520, Note_on_c, 1, 55, 90
3, 299612, Note_off_c, 1, 55, 64
3, 299616, Note_on_c, 1, 59, 90
3, 299708, Note_off_c, 1, 59, 64
3, 299712, Note_on_c, 1, 49, 90
3, 299804, Note_off_c, 1, 49, 64
3, 299808, Note_on_c, 1, 52, 90
3, 299900, Note_off_c, 1, 52, 64
3, 299904, Note_on_c, 1, 50, 90
3, 299996, Note_off_c, 1, 50, 64
3, 300000, Note_on_c, 1, 55, 90
3, 300092, Note_off_c, 1, 55, 64
3, 300096, Note_on_c, 1, 46, 90
3, 300188, Note_off_c, 1, 46, 64
3, 300192, Note_on_c, 1, 49, 90
3, 300284, Note_off_c, 1, 49, 64
3, 300288, Note_on_c, 1, 59, 90
3, 300288, Note_on_c, 1, 47, 90
3, 300380, Note_off_c, 1, 59, 64
3, 300380, Note_off_c, 1, 47, 64
3, 300384, Note_on_c, 1, 62, 90
3, 300384, Note_on_c, 1, 50, 90
3, 300476, Note_off_c, 1, 62, 64
3, 300476, Note_off_c, 1, 50, 64
3, 300480, Note_on_c, 1, 54, 90
3, 300480, Note_on_c, 1, 42, 91
3, 300572, Note_off_c, 1, 54, 64
3, 300572, Note_off_c, 1, 42, 64
3, 300576, Note_on_c, 1, 57, 90
3, 300576, Note_on_c, 1, 45, 90
3, 300668, Note_off_c, 1, 57, 64
3, 300668, Note_off_c, 1, 45, 64
3, 300672, Note_on_c, 1, 55, 90
3, 300672, Note_on_c, 1, 43, 90
3, 300764, Note_off_c, 1, 55, 64
3, 300764, Note_off_c, 1, 43, 64
3, 300768, Note_on_c, 1, 59, 90
3, 300768, Note_on_c, 1, 47, 90
3, 300860, Note_off_c, 1, 59, 64
3, 300860, Note_off_c, 1, 47, 64
3, 300864, Note_on_c, 1, 49, 90
3, 300864, Note_on_c, 1, 37, 93
3, 300956, Note_off_c, 1, 49, 64
3, 300956, Note_off_c, 1, 37, 64
3, 300960, Note_on_c, 1, 52, 90
3, 300960, Note_on_c, 1, 40, 92
3, 301052, Note_off_c, 1, 52, 64
3, 301052, Note_off_c, 1, 40, 64
3, 301056, Note_on_c, 1, 50, 90
3, 301056, Note_on_c, 1, 38, 93
3, 301180, Note_off_c, 1, 50, 64
3, 301184, Note_on_c, 1, 55, 90
3, 301308, Note_off_c, 1, 55, 64
3, 301312, Note_on_c, 1, 59, 90
3, 301436, Note_off_c, 1, 59, 64
3, 304124, Note_off_c, 1, 38, 64
3, 348672, Note_on_c, 1, 52, 65
3, 349052, Note_off_c, 1, 52, 64
3, 350208, Note_on_c, 1, 52, 65
3, 350588, Note_off_c, 1, 52, 64
3, 351744, Note_on_c, 1, 51, 65
3, 352124, Note_off_c, 1, 51, 64
3, 353280, Note_on_c, 1, 51, 65
3, 353660, Note_off_c, 1, 51, 64
3, 354816, Note_on_c, 1, 52, 65
3, 355196, Note_off_c, 1, 52, 64
3, 355584, Note_on_c, 1, 57, 65
3, 355964, Note_off_c, 1, 57, 64
3, 356352, Note_on_c, 1, 59, 65
3, 356732, Note_off_c, 1, 59, 64
3, 357120, Note_on_c, 1, 47, 65
3, 357500, Note_off_c, 1, 47, 64
3, 357888, Note_on_c, 1, 52, 65
3, 358268, Note_off_c, 1, 52, 64
3, 360960, Note_on_c, 1, 64, 80
3, 360960, Note_on_c, 1, 52, 80
3, 362492, Note_off_c, 1, 64, 64
3, 362492, Note_off_c, 1, 52, 64
3, 364032, Note_on_c, 1, 51, 80
3, 364032, Note_on_c, 1, 39, 80
3, 365564, Note_off_c, 1, 51, 64
3, 365564, Note_off_c, 1, 39, 64
3, 367104, Note_on_c, 1, 64, 80
3, 367104, Note_on_c, 1, 52, 80
3, 367484, Note_off_c, 1, 64, 64
3, 367484, Note_off_c, 1, 52, 64
3, 367872, Note_on_c, 1, 57, 80
3, 367872, Note_on_c, 1, 45, 80
3, 368252, Note_off_c, 1, 57, 64
3, 368252, Note_off_c, 1, 45, 64
3, 368640, Note_on_c, 1, 59, 80
3, 368640, Note_on_c, 1, 47, 80
3, 369020, Note_off_c, 1, 59, 64
3, 369020, Note_off_c, 1, 47, 64
3, 369408, Note_on_c, 1, 47, 80
3, 369408, Note_on_c, 1, 35, 85
3, 369788, Note_off_c, 1, 47, 64
3, 369788, Note_off_c, 1, 35, 64
3, 370176, Note_on_c, 1, 52, 90
3, 370176, Note_on_c, 1, 40, 92
3, 370556, Note_off_c, 1, 52, 64
3, 370556, Note_off_c, 1, 40, 64
3, 371712, Note_on_c, 1, 52, 90
3, 371712, Note_on_c, 1, 40, 92
3, 372092, Note_off_c, 1, 52, 64
3, 372092, Note_off_c, 1, 40, 64
3, 373248, Note_on_c, 1, 51, 90
3, 373340, Note_off_c, 1, 51, 64
3, 373344, Note_on_c, 1, 63, 90
3, 373436, Note_off_c, 1, 63, 64
3, 373440, Note_on_c, 1, 52, 90
3, 373532, Note_off_c, 1, 52, 64
3, 373536, Note_on_c, 1, 64, 90
3, 373628, Note_off_c, 1, 64, 64
3, 373632, Note_on_c, 1, 53, 90
3, 373724, Note_off_c, 1, 53, 64
3, 373728, Note_on_c, 1, 65, 90
3, 373820, Note_off_c, 1, 65, 64
3, 373824, Note_on_c, 1, 52, 90
3, 373916, Note_off_c, 1, 52, 64
3, 373920, Note_on_c, 1, 64, 90
3, 374012, Note_off_c, 1, 64, 64
3, 374016, Note_on_c, 1, 51, 90
3, 374108, Note_off_c, 1, 51, 64
3, 374112, Note_on_c, 1, 63, 90
3, 374204, Note_off_c, 1, 63, 64
3, 374208, Note_on_c, 1, 52, 90
3, 374300, Note_off_c, 1, 52, 64
3, 374304, Note_on_c, 1, 64, 90
3, 374396, Note_off_c, 1, 64, 64
3, 374400, Note_on_c, 1, 50, 90
3, 374492, Note_off_c, 1, 50, 64
3, 374496, Note_on_c, 1, 62, 90
3, 374588, Note_off_c, 1, 62, 64
3, 374592, Note_on_c, 1, 48, 90
3, 374684, Note_off_c, 1, 48, 64
3, 374688, Note_on_c, 1, 60, 90
3, 374780, Note_off_c, 1, 60, 64
3, 374784, Note_on_c, 1, 47, 90
3, 374876, Note_off_c, 1, 47, 64
3, 374880, Note_on_c, 1, 59, 90
3, 374972, Note_off_c, 1, 59, 64
3, 374976, Note_on_c, 1, 45, 90
3, 375068, Note_off_c, 1, 45, 64
3, 375072, Note_on_c, 1, 57, 90
3, 375164, Note_off_c, 1, 57, 64
3, 375168, Note_on_c, 1, 44, 90
3, 375260, Note_off_c, 1, 44, 64
3, 375264, Note_on_c, 1, 56, 90
3, 375356, Note_off_c, 1, 56, 64
3, 375360, Note_on_c, 1, 41, 91
3, 375452, Note_off_c, 1, 41, 64
3, 375456, Note_on_c, 1, 53, 90
3, 375548, Note_off_c, 1, 53, 64
3, 375552, Note_on_c, 1, 40, 92
3, 375644, Note_off_c, 1, 40, 64
3, 375648, Note_on_c, 1, 52, 90
3, 375740, Note_off_c, 1, 52, 64
3, 375744, Note_on_c, 1, 38, 93
3, 375836, Note_off_c, 1, 38, 64
3, 375840, Note_on_c, 1, 50, 90
3, 375932, Note_off_c, 1, 50, 64
3, 375936, Note_on_c, 1, 36, 94
3, 376028, Note_off_c, 1, 36, 64
3, 376032, Note_on_c, 1, 48, 90
3, 376124, Note_off_c, 1, 48, 64
3, 376128, Note_on_c, 1, 35, 95
3, 376220, Note_off_c, 1, 35, 64
3, 376224, Note_on_c, 1, 47, 90
3, 376316, Note_off_c, 1, 47, 64
3, 376320, Note_on_c, 1, 45, 90
3, 376320, Note_on_c, 1, 33, 96
3, 376700, Note_off_c, 1, 45, 64
3, 376700, Note_off_c, 1, 33, 64
3, 377856, Note_on_c, 1, 57, 90
3, 377856, Note_on_c, 1, 45, 90
3, 378236, Note_off_c, 1, 57, 64
3, 378236, Note_off_c, 1, 45, 64
3, 379392, Note_on_c, 1, 56, 90
3, 379484, Note_off_c, 1, 56, 64
3, 379584, Note_on_c, 1, 57, 90
3, 379676, Note_off_c, 1, 57, 64
3, 379776, Note_on_c, 1, 58, 90
3, 379868, Note_off_c, 1, 58, 64
3, 379968, Note_on_c, 1, 57, 90
3, 380060, Note_off_c, 1, 57, 64
3, 380160, Note_on_c, 1, 56, 90
3, 380252, Note_off_c, 1, 56, 64
3, 380352, Note_on_c, 1, 57, 90
3, 380444, Note_off_c, 1, 57, 64
3, 380544, Note_on_c, 1, 55, 90
3, 380636, Note_off_c, 1, 55, 64
3, 380736, Note_on_c, 1, 53, 90
3, 380828, Note_off_c, 1, 53, 64
3, 380832, Note_on_c, 1, 65, 90
3, 380924, Note_off_c, 1, 65, 64
3, 380928, Note_on_c, 1, 52, 90
3, 381020, Note_off_c, 1, 52, 64
3, 381024, Note_on_c, 1, 64, 90
3, 381116, Note_off_c, 1, 64, 64
3, 381120, Note_on_c, 1, 50, 90
3, 381212, Note_off_c, 1, 50, 64
3, 381216, Note_on_c, 1, 62, 90
3, 381308, Note_off_c, 1, 62, 64
3, 381312, Note_on_c, 1, 49, 90
3, 381404, Note_off_c, 1, 49, 64
3, 381408, Note_on_c, 1, 61, 90
3, 381500, Note_off_c, 1, 61, 64
3, 381504, Note_on_c, 1, 46, 90
3, 381596, Note_off_c, 1, 46, 64
3, 381600, Note_on_c, 1, 58, 90
3, 381692, Note_off_c, 1, 58, 64
3, 381696, Note_on_c, 1, 45, 90
3, 381788, Note_off_c, 1, 45, 64
3, 381792, Note_on_c, 1, 57, 90
3, 381884, Note_off_c, 1, 57, 64
3, 381888, Note_on_c, 1, 43, 91
3, 381980, Note_off_c, 1, 43, 64
3, 381984, Note_on_c, 1, 55, 91
3, 382064, Note_on_c, 1, 41, 92
3, 382076, Note_off_c, 1, 55, 64
3, 382156, Note_off_c, 1, 41, 64
3, 382176, Note_on_c, 1, 53, 93
3, 382268, Note_off_c, 1, 53, 64
3, 382272, Note_on_c, 1, 40, 90
3, 382364, Note_off_c, 1, 40, 64
3, 382368, Note_on_c, 1, 52, 90
3, 382460, Note_off_c, 1, 52, 64
3, 382464, Note_on_c, 1, 50, 90
3, 382464, Note_on_c, 1, 38, 90
3, 382844, Note_off_c, 1, 50, 64
3, 382844, Note_off_c, 1, 38, 64
3, 385536, Note_on_c, 1, 49, 90
3, 385628, Note_off_c, 1, 49, 64
3, 385632, Note_on_c, 1, 61, 90
3, 385724, Note_off_c, 1, 61, 64
3, 385728, Note_on_c, 1, 50, 90
3, 385820, Note_off_c, 1, 50, 64
3, 385824, Note_on_c, 1, 62, 90
3, 385916, Note_off_c, 1, 62, 64
3, 385920, Note_on_c, 1, 51, 90
3, 386012, Note_off_c, 1, 51, 64
3, 386016, Note_on_c, 1, 63, 90
3, 386108, Note_off_c, 1, 63, 64
3, 386112, Note_on_c, 1, 50, 90
3, 386204, Note_off_c, 1, 50, 64
3, 386208, Note_on_c, 1, 62, 90
3, 386300, Note_off_c, 1, 62, 64
3, 386304, Note_on_c, 1, 49, 90
3, 386396, Note_off_c, 1, 49, 64
3, 386400, Note_on_c, 1, 61, 90
3, 386492, Note_off_c, 1, 61, 64
3, 386496, Note_on_c, 1, 50, 90
3, 386588, Note_off_c, 1, 50, 64
3, 386592, Note_on_c, 1, 62, 90
3, 386684, Note_off_c, 1, 62, 64
3, 386688, Note_on_c, 1, 48, 90
3, 386780, Note_off_c, 1, 48, 64
3, 386784, Note_on_c, 1, 60, 90
3, 386876, Note_off_c, 1, 60, 64
3, 386880, Note_on_c, 1, 46, 90
3, 386972, Note_off_c, 1, 46, 64
3, 386976, Note_on_c, 1, 58, 90
3, 387068, Note_off_c, 1, 58, 64
3, 387072, Note_on_c, 1, 45, 90
3, 387164, Note_off_c, 1, 45, 64
3, 387168, Note_on_c, 1, 57, 90
3, 387260, Note_off_c, 1, 57, 64
3, 387264, Note_on_c, 1, 43, 91
3, 387356, Note_off_c, 1, 43, 64
3, 387360, Note_on_c, 1, 55, 90
3, 387452, Note_off_c, 1, 55, 64
3, 387456, Note_on_c, 1, 42, 91
3, 387548, Note_off_c, 1, 42, 64
3, 387552, Note_on_c, 1, 54, 90
3, 387644, Note_off_c, 1, 54, 64
3, 387648, Note_on_c, 1, 39, 92
3, 387740, Note_off_c, 1, 39, 64
3, 387744, Note_on_c, 1, 51, 90
3, 387836, Note_off_c, 1, 51, 64
3, 387840, Note_on_c, 1, 38, 93
3, 387932, Note_off_c, 1, 38, 64
3, 387936, Note_on_c, 1, 50, 90
3, 388028, Note_off_c, 1, 50, 64
3, 388032, Note_on_c, 1, 36, 94
3, 388124, Note_off_c, 1, 36, 64
3, 388128, Note_on_c, 1, 48, 90
3, 388220, Note_off_c, 1, 48, 64
3, 388224, Note_on_c, 1, 34, 95
3, 388316, Note_off_c, 1, 34, 64
3, 388320, Note_on_c, 1, 46, 90
3, 388412, Note_off_c, 1, 46, 64
3, 388416, Note_on_c, 1, 33, 96
3, 388508, Note_off_c, 1, 33, 64
3, 388512, Note_on_c, 1, 45, 90
3, 388604, Note_off_c, 1, 45, 64
3, 388608, Note_on_c, 1, 43, 90
3, 388608, Note_on_c, 1, 31, 97
3, 388988, Note_off_c, 1, 43, 64
3, 388988, Note_off_c, 1, 31, 64
3, 391680, Note_on_c, 1, 48, 90
3, 391772, Note_off_c, 1, 48, 64
3, 391776, Note_on_c, 1, 52, 90
3, 391868, Note_off_c, 1, 52, 64
3, 391872, Note_on_c, 1, 55, 90
3, 391964, Note_off_c, 1, 55, 64
3, 391968, Note_on_c, 1, 60, 90
3, 392060, Note_off_c, 1, 60, 64
3, 392064, Note_on_c, 1, 48, 90
3, 392156, Note_off_c, 1, 48, 64
3, 392160, Note_on_c, 1, 60, 90
3, 392252, Note_off_c, 1, 60, 64
3, 392256, Note_on_c, 1, 50, 90
3, 392348, Note_off_c, 1, 50, 64
3, 392352, Note_on_c, 1, 62, 90
3, 392444, Note_off_c, 1, 62, 64
3, 392448, Note_on_c, 1, 52, 90
3, 392540, Note_off_c, 1, 52, 64
3, 392544, Note_on_c, 1, 64, 90
3, 392636, Note_off_c, 1, 64, 64
3, 392640, Note_on_c, 1, 53, 90
3, 392732, Note_off_c, 1, 53, 64
3, 392736, Note_on_c, 1, 65, 90
3, 392828, Note_off_c, 1, 65, 64
3, 392832, Note_on_c, 1, 55, 90
3, 392924, Note_off_c, 1, 55, 64
3, 392928, Note_on_c, 1, 67, 90
3, 393020, Note_off_c, 1, 67, 64
3, 393024, Note_on_c, 1, 52, 90
3, 393116, Note_off_c, 1, 52, 64
3, 393120, Note_on_c, 1, 64, 90
3, 393212, Note_off_c, 1, 64, 64
3, 393216, Note_on_c, 1, 48, 90
3, 393308, Note_off_c, 1, 48, 64
3, 393312, Note_on_c, 1, 52, 90
3, 393404, Note_off_c, 1, 52, 64
3, 393408, Note_on_c, 1, 55, 90
3, 393500, Note_off_c, 1, 55, 64
3, 393504, Note_on_c, 1, 60, 90
3, 393596, Note_off_c, 1, 60, 64
3, 393600, Note_on_c, 1, 48, 90
3, 393692, Note_off_c, 1, 48, 64
3, 393696, Note_on_c, 1, 60, 90
3, 393788, Note_off_c, 1, 60, 64
3, 393792, Note_on_c, 1, 50, 90
3, 393884, Note_off_c, 1, 50, 64
3, 393888, Note_on_c, 1, 62, 90
3, 393980, Note_off_c, 1, 62, 64
3, 393984, Note_on_c, 1, 52, 90
3, 394076, Note_off_c, 1, 52, 64
3, 394080, Note_on_c, 1, 64, 90
3, 394172, Note_off_c, 1, 64, 64
3, 394176, Note_on_c, 1, 53, 90
3, 394268, Note_off_c, 1, 53, 64
3, 394272, Note_on_c, 1, 65, 90
3, 394364, Note_off_c, 1, 65, 64
3, 394368, Note_on_c, 1, 55, 90
3, 394460, Note_off_c, 1, 55, 64
3, 394464, Note_on_c, 1, 67, 90
3, 394556, Note_off_c, 1, 67, 64
3, 394560, Note_on_c, 1, 52, 90
3, 394652, Note_off_c, 1, 52, 64
3, 394656, Note_on_c, 1, 64, 90
3, 394748, Note_off_c, 1, 64, 64
3, 394752, Note_on_c, 1, 53, 80
3, 394844, Note_off_c, 1, 53, 64
3, 394848, Note_on_c, 1, 65, 80
3, 394940, Note_off_c, 1, 65, 64
3, 394944, Note_on_c, 1, 64, 80
3, 395036, Note_off_c, 1, 64, 64
3, 395040, Note_on_c, 1, 65, 80
3, 395132, Note_off_c, 1, 65, 64
3, 395136, Note_on_c, 1, 67, 80
3, 395228, Note_off_c, 1, 67, 64
3, 395232, Note_on_c, 1, 65, 80
3, 395324, Note_off_c, 1, 65, 64
3, 395328, Note_on_c, 1, 64, 80
3, 395420, Note_off_c, 1, 64, 64
3, 395424, Note_on_c, 1, 65, 80
3, 395516, Note_off_c, 1, 65, 64
3, 395520, Note_on_c, 1, 62, 80
3, 395612, Note_off_c, 1, 62, 64
3, 395616, Note_on_c, 1, 65, 80
3, 395708, Note_off_c, 1, 65, 64
3, 395712, Note_on_c, 1, 64, 80
3, 395804, Note_off_c, 1, 64, 64
3, 395808, Note_on_c, 1, 65, 80
3, 395900, Note_off_c, 1, 65, 64
3, 395904, Note_on_c, 1, 60, 80
3, 395996, Note_off_c, 1, 60, 64
3, 396000, Note_on_c, 1, 65, 80
3, 396092, Note_off_c, 1, 65, 64
3, 396096, Note_on_c, 1, 64, 80
3, 396188, Note_off_c, 1, 64, 64
3, 396192, Note_on_c, 1, 65, 80
3, 396284, Note_off_c, 1, 65, 64
3, 396288, Note_on_c, 1, 58, 80
3, 396380, Note_off_c, 1, 58, 64
3, 396384, Note_on_c, 1, 65, 80
3, 396476, Note_off_c, 1, 65, 64
3, 396480, Note_on_c, 1, 64, 80
3, 396572, Note_off_c, 1, 64, 64
3, 396576, Note_on_c, 1, 65, 80
3, 396668, Note_off_c, 1, 65, 64
3, 396672, Note_on_c, 1, 62, 80
3, 396764, Note_off_c, 1, 62, 64
3, 396768, Note_on_c, 1, 65, 80
3, 396860, Note_off_c, 1, 65, 64
3, 396864, Note_on_c, 1, 60, 80
3, 396956, Note_off_c, 1, 60, 64
3, 396960, Note_on_c, 1, 65, 80
3, 397052, Note_off_c, 1, 65, 64
3, 397056, Note_on_c, 1, 58, 80
3, 397148, Note_off_c, 1, 58, 64
3, 397152, Note_on_c, 1, 65, 80
3, 397244, Note_off_c, 1, 65, 64
3, 397248, Note_on_c, 1, 63, 80
3, 397340, Note_off_c, 1, 63, 64
3, 397344, Note_on_c, 1, 65, 80
3, 397436, Note_off_c, 1, 65, 64
3, 397440, Note_on_c, 1, 62, 80
3, 397532, Note_off_c, 1, 62, 64
3, 397536, Note_on_c, 1, 65, 80
3, 397628, Note_off_c, 1, 65, 64
3, 397632, Note_on_c, 1, 58, 80
3, 397724, Note_off_c, 1, 58, 64
3, 397728, Note_on_c, 1, 62, 80
3, 397820, Note_off_c, 1, 62, 64
3, 397824, Note_on_c, 1, 51, 80
3, 397916, Note_off_c, 1, 51, 64
3, 397920, Note_on_c, 1, 63, 80
3, 398012, Note_off_c, 1, 63, 64
3, 398016, Note_on_c, 1, 62, 80
3, 398108, Note_off_c, 1, 62, 64
3, 398112, Note_on_c, 1, 63, 80
3, 398204, Note_off_c, 1, 63, 64
3, 398208, Note_on_c, 1, 65, 80
3, 398300, Note_off_c, 1, 65, 64
3, 398304, Note_on_c, 1, 63, 80
3, 398396, Note_off_c, 1, 63, 64
3, 398400, Note_on_c, 1, 62, 80
3, 398492, Note_off_c, 1, 62, 64
3, 398496, Note_on_c, 1, 63, 80
3, 398588, Note_off_c, 1, 63, 64
3, 398592, Note_on_c, 1, 60, 80
3, 398684, Note_off_c, 1, 60, 64
3, 398688, Note_on_c, 1, 63, 80
3, 398780, Note_off_c, 1, 63, 64
3, 398784, Note_on_c, 1, 62, 80
3, 398876, Note_off_c, 1, 62, 64
3, 398880, Note_on_c, 1, 63, 80
3, 398972, Note_off_c, 1, 63, 64
3, 398976, Note_on_c, 1, 58, 80
3, 399068, Note_off_c, 1, 58, 64
3, 399072, Note_on_c, 1, 63, 80
3, 399164, Note_off_c, 1, 63, 64
3, 399168, Note_on_c, 1, 62, 80
3, 399260, Note_off_c, 1, 62, 64
3, 399264, Note_on_c, 1, 63, 80
3, 399356, Note_off_c, 1, 63, 64
3, 399360, Note_on_c, 1, 56, 80
3, 399452, Note_off_c, 1, 56, 64
3, 399456, Note_on_c, 1, 63, 80
3, 399548, Note_off_c, 1, 63, 64
3, 399552, Note_on_c, 1, 62, 80
3, 399644, Note_off_c, 1, 62, 64
3, 399648, Note_on_c, 1, 63, 80
3, 399740, Note_off_c, 1, 63, 64
3, 399744, Note_on_c, 1, 60, 80
3, 399836, Note_off_c, 1, 60, 64
3, 399840, Note_on_c, 1, 63, 80
3, 399932, Note_off_c, 1, 63, 64
3, 399936, Note_on_c, 1, 58, 80
3, 400028, Note_off_c, 1, 58, 64
3, 400032, Note_on_c, 1, 63, 80
3, 400124, Note_off_c, 1, 63, 64
3, 400128, Note_on_c, 1, 56, 80
3, 400220, Note_off_c, 1, 56, 64
3, 400224, Note_on_c, 1, 63, 80
3, 400316, Note_off_c, 1, 63, 64
3, 400320, Note_on_c, 1, 62, 80
3, 400412, Note_off_c, 1, 62, 64
3, 400416, Note_on_c, 1, 63, 80
3, 400508, Note_off_c, 1, 63, 64
3, 400512, Note_on_c, 1, 60, 80
3, 400604, Note_off_c, 1, 60, 64
3, 400608, Note_on_c, 1, 63, 80
3, 400700, Note_off_c, 1, 63, 64
3, 400704, Note_on_c, 1, 56, 80
3, 400796, Note_off_c, 1, 56, 64
3, 400800, Note_on_c, 1, 60, 80
3, 400892, Note_off_c, 1, 60, 64
3, 400896, Note_on_c, 1, 50, 80
3, 400988, Note_off_c, 1, 50, 64
3, 400992, Note_on_c, 1, 62, 80
3, 401084, Note_off_c, 1, 62, 64
3, 401088, Note_on_c, 1, 60, 80
3, 401180, Note_off_c, 1, 60, 64
3, 401184, Note_on_c, 1, 62, 80
3, 401276, Note_off_c, 1, 62, 64
3, 401280, Note_on_c, 1, 63, 80
3, 401372, Note_off_c, 1, 63, 64
3, 401376, Note_on_c, 1, 62, 80
3, 401468, Note_off_c, 1, 62, 64
3, 401472, Note_on_c, 1, 60, 80
3, 401564, Note_off_c, 1, 60, 64
3, 401568, Note_on_c, 1, 62, 80
3, 401660, Note_off_c, 1, 62, 64
3, 401664, Note_on_c, 1, 59, 80
3, 401756, Note_off_c, 1, 59, 64
3, 401760, Note_on_c, 1, 62, 80
3, 401852, Note_off_c, 1, 62, 64
3, 401856, Note_on_c, 1, 60, 80
3, 401948, Note_off_c, 1, 60, 64
3, 401952, Note_on_c, 1, 62, 80
3, 402044, Note_off_c, 1, 62, 64
3, 402048, Note_on_c, 1, 57, 80
3, 402140, Note_off_c, 1, 57, 64
3, 402144, Note_on_c, 1, 62, 80
3, 402236, Note_off_c, 1, 62, 64
3, 402240, Note_on_c, 1, 60, 80
3, 402332, Note_off_c, 1, 60, 64
3, 402336, Note_on_c, 1, 62, 80
3, 402428, Note_off_c, 1, 62, 64
3, 402432, Note_on_c, 1, 55, 80
3, 402524, Note_off_c, 1, 55, 64
3, 402528, Note_on_c, 1, 62, 80
3, 402620, Note_off_c, 1, 62, 64
3, 402624, Note_on_c, 1, 60, 80
3, 402716, Note_off_c, 1, 60, 64
3, 402720, Note_on_c, 1, 62, 80
3, 402812, Note_off_c, 1, 62, 64
3, 402816, Note_on_c, 1, 59, 80
3, 402908, Note_off_c, 1, 59, 64
3, 402912, Note_on_c, 1, 62, 80
3, 403004, Note_off_c, 1, 62, 64
3, 403008, Note_on_c, 1, 57, 80
3, 403100, Note_off_c, 1, 57, 64
3, 403104, Note_on_c, 1, 62, 80
3, 403196, Note_off_c, 1, 62, 64
3, 403200, Note_on_c, 1, 55, 80
3, 403292, Note_off_c, 1, 55, 64
3, 403296, Note_on_c, 1, 62, 80
3, 403388, Note_off_c, 1, 62, 64
3, 403392, Note_on_c, 1, 60, 80
3, 403484, Note_off_c, 1, 60, 64
3, 403488, Note_on_c, 1, 62, 80
3, 403580, Note_off_c, 1, 62, 64
3, 403584, Note_on_c, 1, 59, 80
3, 403676, Note_off_c, 1, 59, 64
3, 403680, Note_on_c, 1, 64, 80
3, 403772, Note_off_c, 1, 64, 64
3, 403776, Note_on_c, 1, 55, 80
3, 403868, Note_off_c, 1, 55, 64
3, 403872, Note_on_c, 1, 59, 80
3, 403964, Note_off_c, 1, 59, 64
3, 403968, Note_on_c, 1, 60, 80
3, 404348, Note_off_c, 1, 60, 64
3, 404736, Note_on_c, 1, 58, 80
3, 405116, Note_off_c, 1, 58, 64
3, 405504, Note_on_c, 1, 56, 80
3, 405884, Note_off_c, 1, 56, 64
3, 406272, Note_on_c, 1, 52, 80
3, 406652, Note_off_c, 1, 52, 64
3, 407040, Note_on_c, 1, 53, 80
3, 407420, Note_off_c, 1, 53, 64
3, 407808, Note_on_c, 1, 51, 80
3, 408188, Note_off_c, 1, 51, 64
3, 408576, Note_on_c, 1, 50, 80
3, 408956, Note_off_c, 1, 50, 64
3, 409344, Note_on_c, 1, 53, 80
3, 409724, Note_off_c, 1, 53, 64
3, 410112, Note_on_c, 1, 51, 80
3, 410492, Note_off_c, 1, 51, 64
3, 410880, Note_on_c, 1, 47, 80
3, 411260, Note_off_c, 1, 47, 64
3, 411648, Note_on_c, 1, 48, 90
3, 413180, Note_off_c, 1, 48, 64
3, 413184, Note_on_c, 1, 56, 90
3, 413184, Note_on_c, 1, 60, 90
3, 413948, Note_off_c, 1, 60, 64
3, 413952, Note_on_c, 1, 66, 90
3, 414716, Note_off_c, 1, 56, 64
3, 414716, Note_off_c, 1, 66, 64
3, 414720, Note_on_c, 1, 55, 90
3, 414812, Note_off_c, 1, 55, 64
3, 414816, Note_on_c, 1, 67, 90
3, 414908, Note_off_c, 1, 67, 64
3, 414912, Note_on_c, 1, 66, 90
3, 415004, Note_off_c, 1, 66, 64
3, 415008, Note_on_c, 1, 67, 90
3, 415100, Note_off_c, 1, 67, 64
3, 415104, Note_on_c, 1, 66, 90
3, 415196, Note_off_c, 1, 66, 64
3, 415200, Note_on_c, 1, 67, 90
3, 415292, Note_off_c, 1, 67, 64
3, 415296, Note_on_c, 1, 66, 90
3, 415388, Note_off_c, 1, 66, 64
3, 415392, Note_on_c, 1, 67, 90
3, 415484, Note_off_c, 1, 67, 64
3, 415488, Note_on_c, 1, 66, 90
3, 415580, Note_off_c, 1, 66, 64
3, 415584, Note_on_c, 1, 67, 90
3, 415676, Note_off_c, 1, 67, 64
3, 415680, Note_on_c, 1, 66, 90
3, 415772, Note_off_c, 1, 66, 64
3, 415776, Note_on_c, 1, 67, 90
3, 415868, Note_off_c, 1, 67, 64
3, 415872, Note_on_c, 1, 65, 90
3, 415964, Note_off_c, 1, 65, 64
3, 415968, Note_on_c, 1, 67, 90
3, 416060, Note_off_c, 1, 67, 64
3, 416064, Note_on_c, 1, 65, 90
3, 416156, Note_off_c, 1, 65, 64
3, 416160, Note_on_c, 1, 67, 90
3, 416252, Note_off_c, 1, 67, 64
3, 416256, Note_on_c, 1, 63, 90
3, 416348, Note_off_c, 1, 63, 64
3, 416352, Note_on_c, 1, 67, 90
3, 416444, Note_off_c, 1, 67, 64
3, 416448, Note_on_c, 1, 66, 90
3, 416540, Note_off_c, 1, 66, 64
3, 416544, Note_on_c, 1, 67, 90
3, 416636, Note_off_c, 1, 67, 64
3, 416640, Note_on_c, 1, 66, 90
3, 416732, Note_off_c, 1, 66, 64
3, 416736, Note_on_c, 1, 67, 90
3, 416828, Note_off_c, 1, 67, 64
3, 416832, Note_on_c, 1, 66, 90
3, 416924, Note_off_c, 1, 66, 64
3, 416928, Note_on_c, 1, 67, 90
3, 417020, Note_off_c, 1, 67, 64
3, 417024, Note_on_c, 1, 66, 90
3, 417116, Note_off_c, 1, 66, 64
3, 417120, Note_on_c, 1, 67, 90
3, 417212, Note_off_c, 1, 67, 64
3, 417216, Note_on_c, 1, 66, 90
3, 417308, Note_off_c, 1, 66, 64
3, 417312, Note_on_c, 1, 67, 90
3, 417404, Note_off_c, 1, 67, 64
3, 417408, Note_on_c, 1, 60, 90
3, 417500, Note_off_c, 1, 60, 64
3, 417504, Note_on_c, 1, 67, 90
3, 417596, Note_off_c, 1, 67, 64
3, 417600, Note_on_c, 1, 60, 90
3, 417692, Note_off_c, 1, 60, 64
3, 417696, Note_on_c, 1, 67, 90
3, 417792, Note_on_c, 1, 55, 90
3, 417796, Note_off_c, 1, 67, 64
3, 417884, Note_off_c, 1, 55, 64
3, 417888, Note_on_c, 1, 67, 90
3, 417980, Note_off_c, 1, 67, 64
3, 417984, Note_on_c, 1, 66, 90
3, 418076, Note_off_c, 1, 66, 64
3, 418080, Note_on_c, 1, 67, 90
3, 418172, Note_off_c, 1, 67, 64
3, 418176, Note_on_c, 1, 66, 90
3, 418268, Note_off_c, 1, 66, 64
3, 418272, Note_on_c, 1, 67, 90
3, 418364, Note_off_c, 1, 67, 64
3, 418368, Note_on_c, 1, 66, 90
3, 418460, Note_off_c, 1, 66, 64
3, 418464, Note_on_c, 1, 67, 90
3, 418556, Note_off_c, 1, 67, 64
3, 418560, Note_on_c, 1, 66, 90
3, 418652, Note_off_c, 1, 66, 64
3, 418656, Note_on_c, 1, 67, 90
3, 418748, Note_off_c, 1, 67, 64
3, 418752, Note_on_c, 1, 66, 90
3, 418844, Note_off_c, 1, 66, 64
3, 418848, Note_on_c, 1, 67, 90
3, 418940, Note_off_c, 1, 67, 64
3, 418944, Note_on_c, 1, 65, 90
3, 419036, Note_off_c, 1, 65, 64
3, 419040, Note_on_c, 1, 67, 90
3, 419132, Note_off_c, 1, 67, 64
3, 419136, Note_on_c, 1, 65, 90
3, 419228, Note_off_c, 1, 65, 64
3, 419232, Note_on_c, 1, 67, 90
3, 419324, Note_off_c, 1, 67, 64
3, 419328, Note_on_c, 1, 63, 90
3, 419420, Note_off_c, 1, 63, 64
3, 419424, Note_on_c, 1, 67, 90
3, 419516, Note_off_c, 1, 67, 64
3, 419520, Note_on_c, 1, 66, 90
3, 419612, Note_off_c, 1, 66, 64
3, 419616, Note_on_c, 1, 67, 90
3, 419708, Note_off_c, 1, 67, 64
3, 419712, Note_on_c, 1, 66, 90
3, 419804, Note_off_c, 1, 66, 64
3, 419808, Note_on_c, 1, 67, 90
3, 419900, Note_off_c, 1, 67, 64
3, 419904, Note_on_c, 1, 66, 90
3, 419996, Note_off_c, 1, 66, 64
3, 420000, Note_on_c, 1, 67, 90
3, 420092, Note_off_c, 1, 67, 64
3, 420096, Note_on_c, 1, 66, 90
3, 420188, Note_off_c, 1, 66, 64
3, 420192, Note_on_c, 1, 67, 90
3, 420284, Note_off_c, 1, 67, 64
3, 420288, Note_on_c, 1, 66, 90
3, 420380, Note_off_c, 1, 66, 64
3, 420384, Note_on_c, 1, 67, 90
3, 420476, Note_off_c, 1, 67, 64
3, 420480, Note_on_c, 1, 60, 90
3, 420572, Note_off_c, 1, 60, 64
3, 420576, Note_on_c, 1, 67, 90
3, 420668, Note_off_c, 1, 67, 64
3, 420672, Note_on_c, 1, 60, 90
3, 420764, Note_off_c, 1, 60, 64
3, 420768, Note_on_c, 1, 67, 90
3, 420860, Note_off_c, 1, 67, 64
3, 420864, Note_on_c, 1, 55, 89
3, 423932, Note_off_c, 1, 55, 64
3, 423936, Note_on_c, 1, 43, 91
3, 427004, Note_off_c, 1, 43, 64
3, 427008, Note_on_c, 1, 48, 65
3, 427388, Note_off_c, 1, 48, 64
3, 480768, Note_on_c, 1, 53, 90
3, 480768, Note_on_c, 1, 50, 90
3, 480768, Note_on_c, 1, 47, 90
3, 480768, Note_on_c, 1, 43, 90
3, 482300, Note_off_c, 1, 53, 64
3, 482300, Note_off_c, 1, 50, 64
3, 482300, Note_off_c, 1, 47, 64
3, 482300, Note_off_c, 1, 43, 64
3, 482304, Note_on_c, 1, 55, 90
3, 482396, Note_off_c, 1, 55, 64
3, 482400, Note_on_c, 1, 56, 90
3, 482492, Note_off_c, 1, 56, 64
3, 482496, Note_on_c, 1, 57, 90
3, 482588, Note_off_c, 1, 57, 64
3, 482592, Note_on_c, 1, 55, 90
3, 482684, Note_off_c, 1, 55, 64
3, 482688, Note_on_c, 1, 53, 90
3, 482780, Note_off_c, 1, 53, 64
3, 482784, Note_on_c, 1, 52, 90
3, 482876, Note_off_c, 1, 52, 64
3, 482880, Note_on_c, 1, 50, 90
3, 482972, Note_off_c, 1, 50, 64
3, 482976, Note_on_c, 1, 49, 90
3, 483068, Note_off_c, 1, 49, 64
3, 483072, Note_on_c, 1, 50, 90
3, 483164, Note_off_c, 1, 50, 64
3, 483168, Note_on_c, 1, 52, 90
3, 483260, Note_off_c, 1, 52, 64
3, 483264, Note_on_c, 1, 53, 90
3, 483356, Note_off_c, 1, 53, 64
3, 483360, Note_on_c, 1, 52, 90
3, 483452, Note_off_c, 1, 52, 64
3, 483456, Note_on_c, 1, 50, 90
3, 483548, Note_off_c, 1, 50, 64
3, 483552, Note_on_c, 1, 48, 90
3, 483644, Note_off_c, 1, 48, 64
3, 483648, Note_on_c, 1, 47, 90
3, 483740, Note_off_c, 1, 47, 64
3, 483744, Note_on_c, 1, 45, 90
3, 483836, Note_off_c, 1, 45, 64
3, 483840, Note_on_c, 1, 43, 91
3, 483840, Note_on_c, 1, 31, 97
3, 483840, Note_on_c, 1, 47, 90
3, 483932, Note_off_c, 1, 47, 64
3, 483936, Note_on_c, 1, 48, 90
3, 484028, Note_off_c, 1, 48, 64
3, 484032, Note_on_c, 1, 49, 90
3, 484124, Note_off_c, 1, 49, 64
3, 484128, Note_on_c, 1, 50, 90
3, 484220, Note_off_c, 1, 50, 64
3, 484224, Note_on_c, 1, 51, 90
3, 484316, Note_off_c, 1, 51, 64
3, 484320, Note_on_c, 1, 52, 90
3, 484412, Note_off_c, 1, 52, 64
3, 484416, Note_on_c, 1, 53, 90
3, 484508, Note_off_c, 1, 53, 64
3, 484512, Note_on_c, 1, 54, 90
3, 484604, Note_off_c, 1, 54, 64
3, 484608, Note_on_c, 1, 55, 90
3, 484700, Note_off_c, 1, 55, 64
3, 484704, Note_on_c, 1, 56, 90
3, 484796, Note_off_c, 1, 56, 64
3, 484800, Note_on_c, 1, 57, 90
3, 484892, Note_off_c, 1, 57, 64
3, 484896, Note_on_c, 1, 58, 90
3, 484988, Note_off_c, 1, 58, 64
3, 484992, Note_on_c, 1, 59, 90
3, 485084, Note_off_c, 1, 59, 64
3, 485088, Note_on_c, 1, 60, 90
3, 485180, Note_off_c, 1, 60, 64
3, 485184, Note_on_c, 1, 61, 90
3, 485276, Note_off_c, 1, 61, 64
3, 485280, Note_on_c, 1, 62, 90
3, 485372, Note_off_c, 1, 43, 64
3, 485372, Note_off_c, 1, 31, 64
3, 485372, Note_off_c, 1, 62, 64
3, 486912, Note_on_c, 1, 60, 65
3, 487100, Note_off_c, 1, 60, 64
3, 487104, Note_on_c, 1, 67, 65
3, 487292, Note_off_c, 1, 67, 64
3, 487296, Note_on_c, 1, 64, 65
3, 487484, Note_off_c, 1, 64, 64
3, 487488, Note_on_c, 1, 67, 65
3, 487676, Note_off_c, 1, 67, 64
3, 487680, Note_on_c, 1, 60, 65
3, 487868, Note_off_c, 1, 60, 64
3, 487872, Note_on_c, 1, 67, 65
3, 488060, Note_off_c, 1, 67, 64
3, 488064, Note_on_c, 1, 64, 65
3, 488252, Note_off_c, 1, 64, 64
3, 488256, Note_on_c, 1, 67, 65
3, 488444, Note_off_c, 1, 67, 64
3, 488448, Note_on_c, 1, 53, 65
3, 488636, Note_off_c, 1, 53, 64
3, 488640, Note_on_c, 1, 62, 65
3, 488828, Note_off_c, 1, 62, 64
3, 488832, Note_on_c, 1, 57, 65
3, 489020, Note_off_c, 1, 57, 64
3, 489024, Note_on_c, 1, 62, 65
3, 489212, Note_off_c, 1, 62, 64
3, 489216, Note_on_c, 1, 53, 65
3, 489404, Note_off_c, 1, 53, 64
3, 489408, Note_on_c, 1, 62, 65
3, 489596, Note_off_c, 1, 62, 64
3, 489600, Note_on_c, 1, 57, 65
3, 489788, Note_off_c, 1, 57, 64
3, 489792, Note_on_c, 1, 62, 65
3, 489980, Note_off_c, 1, 62, 64
3, 489984, Note_on_c, 1, 55, 65
3, 490172, Note_off_c, 1, 55, 64
3, 490176, Note_on_c, 1, 65, 65
3, 490364, Note_off_c, 1, 65, 64
3, 490368, Note_on_c, 1, 62, 65
3, 490556, Note_off_c, 1, 62, 64
3, 490560, Note_on_c, 1, 65, 65
3, 490748, Note_off_c, 1, 65, 64
3, 490752, Note_on_c, 1, 55, 65
3, 490940, Note_off_c, 1, 55, 64
3, 490944, Note_on_c, 1, 65, 65
3, 491132, Note_off_c, 1, 65, 64
3, 491136, Note_on_c, 1, 62, 65
3, 491324, Note_off_c, 1, 62, 64
3, 491328, Note_on_c, 1, 65, 65
3, 491516, Note_off_c, 1, 65, 64
3, 491520, Note_on_c, 1, 52, 65
3, 491708, Note_off_c, 1, 52, 64
3, 491712, Note_on_c, 1, 60, 65
3, 491900, Note_off_c, 1, 60, 64
3, 491904, Note_on_c, 1, 55, 65
3, 492092, Note_off_c, 1, 55, 64
3, 492096, Note_on_c, 1, 60, 65
3, 492284, Note_off_c, 1, 60, 64
3, 492288, Note_on_c, 1, 52, 65
3, 492476, Note_off_c, 1, 52, 64
3, 492480, Note_on_c, 1, 60, 65
3, 492668, Note_off_c, 1, 60, 64
3, 492672, Note_on_c, 1, 55, 65
3, 492860, Note_off_c, 1, 55, 64
3, 492864, Note_on_c, 1, 60, 65
3, 493052, Note_off_c, 1, 60, 64
3, 493440, Note_on_c, 1, 55, 65
3, 493440, Note_on_c, 1, 52, 65
3, 493820, Note_off_c, 1, 55, 64
3, 493820, Note_off_c, 1, 52, 64
3, 493824, Note_on_c, 1, 55, 65
3, 493824, Note_on_c, 1, 53, 65
3, 494588, Note_off_c, 1, 55, 64
3, 494588, Note_off_c, 1, 53, 64
3, 494976, Note_on_c, 1, 55, 65
3, 494976, Note_on_c, 1, 52, 65
3, 495356, Note_off_c, 1, 55, 64
3, 495356, Note_off_c, 1, 52, 64
3, 495360, Note_on_c, 1, 55, 65
3, 495360, Note_on_c, 1, 53, 65
3, 496124, Note_off_c, 1, 55, 64
3, 496124, Note_off_c, 1, 53, 64
3, 496128, Note_on_c, 1, 55, 65
3, 496128, Note_on_c, 1, 52, 65
3, 496508, Note_off_c, 1, 55, 64
3, 496508, Note_off_c, 1, 52, 64
3, 497280, Note_on_c, 1, 60, 65
3, 497280, Note_on_c, 1, 52, 65
3, 497372, Note_off_c, 1, 60, 64
3, 497372, Note_off_c, 1, 52, 64
3, 497472, Note_on_c, 1, 60, 65
3, 497472, Note_on_c, 1, 54, 65
3, 497564, Note_off_c, 1, 60, 64
3, 497564, Note_off_c, 1, 54, 64
3, 497664, Note_on_c, 1, 60, 65
3, 497664, Note_on_c, 1, 55, 65
3, 498428, Note_off_c, 1, 60, 64
3, 498428, Note_off_c, 1, 55, 64
3, 498432, Note_on_c, 1, 59, 65
3, 498432, Note_on_c, 1, 55, 65
3, 498812, Note_off_c, 1, 59, 64
3, 498812, Note_off_c, 1, 55, 64
3, 505728, Note_on_c, 1, 55, 65
3, 505728, Note_on_c, 1, 52, 65
3, 506108, Note_off_c, 1, 55, 64
3, 506108, Note_off_c, 1, 52, 64
3, 506112, Note_on_c, 1, 56, 65
3, 506112, Note_on_c, 1, 53, 65
3, 506492, Note_off_c, 1, 56, 64
3, 506496, Note_on_c, 1, 55, 65
3, 506876, Note_off_c, 1, 53, 64
3, 506876, Note_off_c, 1, 55, 64
3, 517632, Note_on_c, 1, 41, 91
3, 517724, Note_off_c, 1, 41, 64
3, 517728, Note_on_c, 1, 53, 90
3, 517820, Note_off_c, 1, 53, 64
3, 517824, Note_on_c, 1, 52, 90
3, 517916, Note_off_c, 1, 52, 64
3, 517920, Note_on_c, 1, 53, 90
3, 518012, Note_off_c, 1, 53, 64
3, 518016, Note_on_c, 1, 45, 90
3, 518108, Note_off_c, 1, 45, 64
3, 518112, Note_on_c, 1, 57, 90
3, 518204, Note_off_c, 1, 57, 64
3, 518208, Note_on_c, 1, 56, 90
3, 518300, Note_off_c, 1, 56, 64
3, 518304, Note_on_c, 1, 57, 90
3, 518396, Note_off_c, 1, 57, 64
3, 518400, Note_on_c, 1, 48, 90
3, 518492, Note_off_c, 1, 48, 64
3, 518496, Note_on_c, 1, 60, 90
3, 518588, Note_off_c, 1, 60, 64
3, 518592, Note_on_c, 1, 59, 90
3, 518684, Note_off_c, 1, 59, 64
3, 518688, Note_on_c, 1, 60, 90
3, 518780, Note_off_c, 1, 60, 64
3, 518784, Note_on_c, 1, 53, 90
3, 518876, Note_off_c, 1, 53, 64
3, 518880, Note_on_c, 1, 65, 90
3, 518972, Note_off_c, 1, 65, 64
3, 518976, Note_on_c, 1, 64, 90
3, 519068, Note_off_c, 1, 64, 64
3, 519072, Note_on_c, 1, 65, 90
3, 519164, Note_off_c, 1, 65, 64
3, 519168, Note_on_c, 1, 47, 90
3, 519260, Note_off_c, 1, 47, 64
3, 519264, Note_on_c, 1, 59, 90
3, 519356, Note_off_c, 1, 59, 64
3, 519360, Note_on_c, 1, 58, 90
3, 519452, Note_off_c, 1, 58, 64
3, 519456, Note_on_c, 1, 59, 90
3, 519548, Note_off_c, 1, 59, 64
3, 519552, Note_on_c, 1, 41, 91
3, 519644, Note_off_c, 1, 41, 64
3, 519648, Note_on_c, 1, 53, 90
3, 519740, Note_off_c, 1, 53, 64
3, 519744, Note_on_c, 1, 52, 90
3, 519836, Note_off_c, 1, 52, 64
3, 519840, Note_on_c, 1, 53, 90
3, 519932, Note_off_c, 1, 53, 64
3, 519936, Note_on_c, 1, 38, 92
3, 520028, Note_off_c, 1, 38, 64
3, 520032, Note_on_c, 1, 50, 90
3, 520124, Note_off_c, 1, 50, 64
3, 520128, Note_on_c, 1, 49, 90
3, 520220, Note_off_c, 1, 49, 64
3, 520224, Note_on_c, 1, 50, 90
3, 520316, Note_off_c, 1, 50, 64
3, 520320, Note_on_c, 1, 35, 95
3, 520412, Note_off_c, 1, 35, 64
3, 520416, Note_on_c, 1, 47, 90
3, 520508, Note_off_c, 1, 47, 64
3, 520512, Note_on_c, 1, 46, 90
3, 520604, Note_off_c, 1, 46, 64
3, 520608, Note_on_c, 1, 47, 90
3, 520700, Note_off_c, 1, 47, 64
3, 520704, Note_on_c, 1, 40, 92
3, 520796, Note_off_c, 1, 40, 64
3, 520800, Note_on_c, 1, 52, 90
3, 520892, Note_off_c, 1, 52, 64
3, 520896, Note_on_c, 1, 51, 90
3, 520988, Note_off_c, 1, 51, 64
3, 520992, Note_on_c, 1, 52, 90
3, 521084, Note_off_c, 1, 52, 64
3, 521088, Note_on_c, 1, 43, 91
3, 521180, Note_off_c, 1, 43, 64
3, 521184, Note_on_c, 1, 55, 90
3, 521276, Note_off_c, 1, 55, 64
3, 521280, Note_on_c, 1, 54, 90
3, 521372, Note_off_c, 1, 54, 64
3, 521376, Note_on_c, 1, 55, 90
3, 521468, Note_off_c, 1, 55, 64
3, 521472, Note_on_c, 1, 47, 90
3, 521564, Note_off_c, 1, 47, 64
3, 521568, Note_on_c, 1, 59, 90
3, 521660, Note_off_c, 1, 59, 64
3, 521664, Note_on_c, 1, 58, 90
3, 521756, Note_off_c, 1, 58, 64
3, 521760, Note_on_c, 1, 59, 90
3, 521852, Note_off_c, 1, 59, 64
3, 521856, Note_on_c, 1, 52, 90
3, 521948, Note_off_c, 1, 52, 64
3, 521952, Note_on_c, 1, 64, 90
3, 522044, Note_off_c, 1, 64, 64
3, 522048, Note_on_c, 1, 63, 90
3, 522140, Note_off_c, 1, 63, 64
3, 522144, Note_on_c, 1, 64, 90
3, 522236, Note_off_c, 1, 64, 64
3, 522240, Note_on_c, 1, 57, 90
3, 522332, Note_off_c, 1, 57, 64
3, 522336, Note_on_c, 1, 69, 90
3, 522428, Note_off_c, 1, 69, 64
3, 522432, Note_on_c, 1, 68, 90
3, 522524, Note_off_c, 1, 68, 64
3, 522528, Note_on_c, 1, 69, 90
3, 522620, Note_off_c, 1, 69, 64
3, 522624, Note_on_c, 1, 52, 90
3, 522716, Note_off_c, 1, 52, 64
3, 522720, Note_on_c, 1, 64, 90
3, 522812, Note_off_c, 1, 64, 64
3, 522816, Note_on_c, 1, 63, 90
3, 522908, Note_off_c, 1, 63, 64
3, 522912, Note_on_c, 1, 64, 90
3, 523004, Note_off_c, 1, 64, 64
3, 523008, Note_on_c, 1, 48, 90
3, 523100, Note_off_c, 1, 48, 64
3, 523104, Note_on_c, 1, 60, 90
3, 523196, Note_off_c, 1, 60, 64
3, 523200, Note_on_c, 1, 60, 90
3, 523292, Note_off_c, 1, 60, 64
3, 523296, Note_on_c, 1, 60, 90
3, 523388, Note_off_c, 1, 60, 64
3, 523392, Note_on_c, 1, 45, 90
3, 523484, Note_off_c, 1, 45, 64
3, 523488, Note_on_c, 1, 57, 90
3, 523580, Note_off_c, 1, 57, 64
3, 523584, Note_on_c, 1, 56, 90
3, 523676, Note_off_c, 1, 56, 64
3, 523680, Note_on_c, 1, 57, 90
3, 523772, Note_off_c, 1, 57, 64
3, 523776, Note_on_c, 1, 47, 90
3, 523868, Note_off_c, 1, 47, 64
3, 523872, Note_on_c, 1, 62, 90
3, 523964, Note_off_c, 1, 62, 64
3, 523968, Note_on_c, 1, 61, 90
3, 524060, Note_off_c, 1, 61, 64
3, 524064, Note_on_c, 1, 62, 90
3, 524156, Note_off_c, 1, 62, 64
3, 524160, Note_on_c, 1, 53, 90
3, 524252, Note_off_c, 1, 53, 64
3, 524256, Note_on_c, 1, 65, 90
3, 524348, Note_off_c, 1, 65, 64
3, 524352, Note_on_c, 1, 64, 90
3, 524444, Note_off_c, 1, 64, 64
3, 524448, Note_on_c, 1, 65, 90
3, 524540, Note_off_c, 1, 65, 64
3, 524544, Note_on_c, 1, 57, 90
3, 524636, Note_off_c, 1, 57, 64
3, 524640, Note_on_c, 1, 69, 90
3, 524732, Note_off_c, 1, 69, 64
3, 524736, Note_on_c, 1, 68, 90
3, 524828, Note_off_c, 1, 68, 64
3, 524832, Note_on_c, 1, 69, 90
3, 524924, Note_off_c, 1, 69, 64
3, 525312, Note_on_c, 1, 55, 90
3, 525404, Note_off_c, 1, 55, 64
3, 525408, Note_on_c, 1, 67, 90
3, 525500, Note_off_c, 1, 67, 64
3, 525504, Note_on_c, 1, 66, 90
3, 525596, Note_off_c, 1, 66, 64
3, 525600, Note_on_c, 1, 67, 90
3, 525692, Note_off_c, 1, 67, 64
3, 525696, Note_on_c, 1, 50, 90
3, 525788, Note_off_c, 1, 50, 64
3, 525792, Note_on_c, 1, 62, 90
3, 525884, Note_off_c, 1, 62, 64
3, 525888, Note_on_c, 1, 61, 90
3, 525980, Note_off_c, 1, 61, 64
3, 525984, Note_on_c, 1, 62, 90
3, 526076, Note_off_c, 1, 62, 64
3, 526080, Note_on_c, 1, 47, 90
3, 526172, Note_off_c, 1, 47, 64
3, 526176, Note_on_c, 1, 59, 90
3, 526268, Note_off_c, 1, 59, 64
3, 526272, Note_on_c, 1, 58, 90
3, 526364, Note_off_c, 1, 58, 64
3, 526368, Note_on_c, 1, 59, 90
3, 526460, Note_off_c, 1, 59, 64
3, 526464, Note_on_c, 1, 43, 90
3, 526556, Note_off_c, 1, 43, 64
3, 526560, Note_on_c, 1, 55, 90
3, 526652, Note_off_c, 1, 55, 64
3, 526656, Note_on_c, 1, 54, 90
3, 526748, Note_off_c, 1, 54, 64
3, 526752, Note_on_c, 1, 55, 90
3, 526844, Note_off_c, 1, 55, 64
3, 529920, Note_on_c, 1, 53, 90
3, 530012, Note_off_c, 1, 53, 64
3, 530016, Note_on_c, 1, 57, 90
3, 530108, Note_off_c, 1, 57, 64
3, 530112, Note_on_c, 1, 60, 90
3, 530204, Note_off_c, 1, 60, 64
3, 530208, Note_on_c, 1, 65, 90
3, 530300, Note_off_c, 1, 65, 64
3, 530304, Note_on_c, 1, 64, 90
3, 530396, Note_off_c, 1, 64, 64
3, 530400, Note_on_c, 1, 65, 90
3, 530492, Note_off_c, 1, 65, 64
3, 530496, Note_on_c, 1, 60, 90
3, 530588, Note_off_c, 1, 60, 64
3, 530592, Note_on_c, 1, 57, 90
3, 530684, Note_off_c, 1, 57, 64
3, 530688, Note_on_c, 1, 53, 90
3, 530780, Note_off_c, 1, 53, 64
3, 530784, Note_on_c, 1, 57, 90
3, 530876, Note_off_c, 1, 57, 64
3, 530880, Note_on_c, 1, 60, 90
3, 530972, Note_off_c, 1, 60, 64
3, 530976, Note_on_c, 1, 65, 90
3, 531068, Note_off_c, 1, 65, 64
3, 531072, Note_on_c, 1, 53, 90
3, 531164, Note_off_c, 1, 53, 64
3, 531168, Note_on_c, 1, 65, 90
3, 531260, Note_off_c, 1, 65, 64
3, 531264, Note_on_c, 1, 52, 90
3, 531356, Note_off_c, 1, 52, 64
3, 531360, Note_on_c, 1, 64, 90
3, 531452, Note_off_c, 1, 64, 64
3, 531456, Note_on_c, 1, 50, 90
3, 531548, Note_off_c, 1, 50, 64
3, 531552, Note_on_c, 1, 53, 90
3, 531644, Note_off_c, 1, 53, 64
3, 531648, Note_on_c, 1, 57, 90
3, 531740, Note_off_c, 1, 57, 64
3, 531744, Note_on_c, 1, 62, 90
3, 531836, Note_off_c, 1, 62, 64
3, 531840, Note_on_c, 1, 50, 90
3, 531932, Note_off_c, 1, 50, 64
3, 531936, Note_on_c, 1, 62, 90
3, 532028, Note_off_c, 1, 62, 64
3, 532032, Note_on_c, 1, 48, 90
3, 532124, Note_off_c, 1, 48, 64
3, 532128, Note_on_c, 1, 60, 90
3, 532220, Note_off_c, 1, 60, 64
3, 532224, Note_on_c, 1, 47, 90
3, 532316, Note_off_c, 1, 47, 64
3, 532320, Note_on_c, 1, 50, 90
3, 532412, Note_off_c, 1, 50, 64
3, 532416, Note_on_c, 1, 53, 90
3, 532508, Note_off_c, 1, 53, 64
3, 532512, Note_on_c, 1, 59, 90
3, 532604, Note_off_c, 1, 59, 64
3, 532608, Note_on_c, 1, 47, 90
3, 532700, Note_off_c, 1, 47, 64
3, 532704, Note_on_c, 1, 59, 90
3, 532796, Note_off_c, 1, 59, 64
3, 532800, Note_on_c, 1, 45, 90
3, 532892, Note_off_c, 1, 45, 64
3, 532896, Note_on_c, 1, 57, 90
3, 532988, Note_off_c, 1, 57, 64
3, 532992, Note_on_c, 1, 55, 90
3, 532992, Note_on_c, 1, 43, 90
3, 533564, Note_off_c, 1, 55, 64
3, 533564, Note_off_c, 1, 43, 64
3, 533568, Note_on_c, 1, 56, 90
3, 533568, Note_on_c, 1, 44, 90
3, 533756, Note_off_c, 1, 56, 64
3, 533756, Note_off_c, 1, 44, 64
3, 533760, Note_on_c, 1, 55, 90
3, 533760, Note_on_c, 1, 43, 90
3, 533948, Note_off_c, 1, 55, 64
3, 533948, Note_off_c, 1, 43, 64
3, 533952, Note_on_c, 1, 56, 90
3, 533952, Note_on_c, 1, 44, 90
3, 534140, Note_off_c, 1, 56, 64
3, 534140, Note_off_c, 1, 44, 64
3, 534144, Note_on_c, 1, 55, 90
3, 534144, Note_on_c, 1, 43, 90
3, 534332, Note_off_c, 1, 55, 64
3, 534332, Note_off_c, 1, 43, 64
3, 534336, Note_on_c, 1, 56, 90
3, 534336, Note_on_c, 1, 44, 90
3, 534524, Note_off_c, 1, 56, 64
3, 534524, Note_off_c, 1, 44, 64
3, 534528, Note_on_c, 1, 43, 90
3, 534528, Note_on_c, 1, 55, 90
3, 535100, Note_off_c, 1, 43, 64
3, 535100, Note_off_c, 1, 55, 64
3, 535104, Note_on_c, 1, 56, 90
3, 535104, Note_on_c, 1, 44, 90
3, 535196, Note_off_c, 1, 56, 64
3, 535196, Note_off_c, 1, 44, 64
3, 535296, Note_on_c, 1, 55, 90
3, 535296, Note_on_c, 1, 43, 90
3, 535388, Note_off_c, 1, 55, 64
3, 535388, Note_off_c, 1, 43, 64
3, 535488, Note_on_c, 1, 56, 90
3, 535488, Note_on_c, 1, 44, 90
3, 535580, Note_off_c, 1, 56, 64
3, 535580, Note_off_c, 1, 44, 64
3, 535680, Note_on_c, 1, 55, 90
3, 535680, Note_on_c, 1, 43, 90
3, 535772, Note_off_c, 1, 55, 64
3, 535772, Note_off_c, 1, 43, 64
3, 535872, Note_on_c, 1, 56, 90
3, 535872, Note_on_c, 1, 44, 90
3, 535964, Note_off_c, 1, 56, 64
3, 535964, Note_off_c, 1, 44, 64
3, 536064, Note_on_c, 1, 55, 90
3, 536064, Note_on_c, 1, 43, 90
3, 536252, Note_off_c, 1, 55, 64
3, 536252, Note_off_c, 1, 43, 64
3, 536256, Note_on_c, 1, 54, 90
3, 536256, Note_on_c, 1, 42, 91
3, 536444, Note_off_c, 1, 54, 64
3, 536444, Note_off_c, 1, 42, 64
3, 536448, Note_on_c, 1, 55, 90
3, 536448, Note_on_c, 1, 43, 90
3, 536636, Note_off_c, 1, 55, 64
3, 536636, Note_off_c, 1, 43, 64
3, 536640, Note_on_c, 1, 56, 90
3, 536640, Note_on_c, 1, 44, 90
3, 536828, Note_off_c, 1, 56, 64
3, 536828, Note_off_c, 1, 44, 64
3, 536832, Note_on_c, 1, 57, 90
3, 536832, Note_on_c, 1, 45, 90
3, 537020, Note_off_c, 1, 57, 64
3, 537020, Note_off_c, 1, 45, 64
3, 537024, Note_on_c, 1, 58, 90
3, 537024, Note_on_c, 1, 46, 90
3, 537212, Note_off_c, 1, 58, 64
3, 537212, Note_off_c, 1, 46, 64
3, 537216, Note_on_c, 1, 59, 90
3, 537216, Note_on_c, 1, 47, 90
3, 537404, Note_off_c, 1, 59, 64
3, 537404, Note_off_c, 1, 47, 64
3, 537408, Note_on_c, 1, 60, 90
3, 537408, Note_on_c, 1, 48, 90
3, 537596, Note_off_c, 1, 60, 64
3, 537596, Note_off_c, 1, 48, 64
3, 537600, Note_on_c, 1, 61, 90
3, 537600, Note_on_c, 1, 49, 90
3, 537788, Note_off_c, 1, 61, 64
3, 537788, Note_off_c, 1, 49, 64
3, 537792, Note_on_c, 1, 62, 90
3, 537792, Note_on_c, 1, 50, 90
3, 537980, Note_off_c, 1, 62, 64
3, 537980, Note_off_c, 1, 50, 64
3, 537984, Note_on_c, 1, 61, 90
3, 537984, Note_on_c, 1, 49, 90
3, 538172, Note_off_c, 1, 61, 64
3, 538172, Note_off_c, 1, 49, 64
3, 538176, Note_on_c, 1, 60, 90
3, 538176, Note_on_c, 1, 48, 90
3, 538364, Note_off_c, 1, 60, 64
3, 538364, Note_off_c, 1, 48, 64
3, 538368, Note_on_c, 1, 59, 90
3, 538368, Note_on_c, 1, 47, 90
3, 538556, Note_off_c, 1, 59, 64
3, 538556, Note_off_c, 1, 47, 64
3, 538560, Note_on_c, 1, 58, 90
3, 538560, Note_on_c, 1, 46, 90
3, 538748, Note_off_c, 1, 58, 64
3, 538748, Note_off_c, 1, 46, 64
3, 538752, Note_on_c, 1, 57, 90
3, 538752, Note_on_c, 1, 45, 90
3, 538940, Note_off_c, 1, 57, 64
3, 538940, Note_off_c, 1, 45, 64
3, 538944, Note_on_c, 1, 56, 90
3, 538944, Note_on_c, 1, 44, 90
3, 539132, Note_off_c, 1, 56, 64
3, 539132, Note_off_c, 1, 44, 64
3, 539136, Note_on_c, 1, 55, 90
3, 539136, Note_on_c, 1, 43, 90
3, 539516, Note_off_c, 1, 55, 64
3, 539516, Note_off_c, 1, 43, 64
3, 557664, Note_on_c, 1, 48, 65
3, 557756, Note_off_c, 1, 48, 64
3, 557760, Note_on_c, 1, 50, 65
3, 557852, Note_off_c, 1, 50, 64
3, 557856, Note_on_c, 1, 52, 65
3, 557948, Note_off_c, 1, 52, 64
3, 557952, Note_on_c, 1, 53, 66
3, 558044, Note_off_c, 1, 53, 64
3, 558048, Note_on_c, 1, 55, 66
3, 558140, Note_off_c, 1, 55, 64
3, 558144, Note_on_c, 1, 57, 67
3, 558236, Note_off_c, 1, 57, 64
3, 558240, Note_on_c, 1, 59, 67
3, 558332, Note_off_c, 1, 59, 64
3, 558336, Note_on_c, 1, 60, 68
3, 558428, Note_off_c, 1, 60, 64
3, 558432, Note_on_c, 1, 62, 68
3, 558524, Note_off_c, 1, 62, 64
3, 558528, Note_on_c, 1, 64, 69
3, 558620, Note_off_c, 1, 64, 64
3, 558624, Note_on_c, 1, 65, 69
3, 558716, Note_off_c, 1, 65, 64
3, 558720, Note_on_c, 1, 67, 70
3, 558812, Note_off_c, 1, 67, 64
3, 558912, Note_on_c, 1, 55, 71
3, 559004, Note_off_c, 1, 55, 64
3, 559200, Note_on_c, 1, 45, 73
3, 559292, Note_off_c, 1, 45, 64
3, 559296, Note_on_c, 1, 47, 73
3, 559388, Note_off_c, 1, 47, 64
3, 559392, Note_on_c, 1, 48, 74
3, 559484, Note_off_c, 1, 48, 64
3, 559488, Note_on_c, 1, 50, 75
3, 559580, Note_off_c, 1, 50, 64
3, 559584, Note_on_c, 1, 52, 75
3, 559676, Note_off_c, 1, 52, 64
3, 559680, Note_on_c, 1, 54, 76
3, 559772, Note_off_c, 1, 54, 64
3, 559776, Note_on_c, 1, 56, 76
3, 559868, Note_off_c, 1, 56, 64
3, 559872, Note_on_c, 1, 57, 77
3, 559964, Note_off_c, 1, 57, 64
3, 559968, Note_on_c, 1, 59, 77
3, 560048, Note_on_c, 1, 60, 78
3, 560060, Note_off_c, 1, 59, 64
3, 560140, Note_off_c, 1, 60, 64
3, 560160, Note_on_c, 1, 62, 79
3, 560252, Note_off_c, 1, 62, 64
3, 560256, Note_on_c, 1, 64, 79
3, 560348, Note_off_c, 1, 64, 64
3, 560448, Note_on_c, 1, 52, 80
3, 560540, Note_off_c, 1, 52, 64
3, 560736, Note_on_c, 1, 41, 83
3, 560828, Note_off_c, 1, 41, 64
3, 560832, Note_on_c, 1, 43, 83
3, 560924, Note_off_c, 1, 43, 64
3, 560928, Note_on_c, 1, 45, 83
3, 561020, Note_off_c, 1, 45, 64
3, 561024, Note_on_c, 1, 46, 84
3, 561116, Note_off_c, 1, 46, 64
3, 561120, Note_on_c, 1, 48, 84
3, 561212, Note_off_c, 1, 48, 64
3, 561216, Note_on_c, 1, 50, 85
3, 561308, Note_off_c, 1, 50, 64
3, 561312, Note_on_c, 1, 52, 85
3, 561404, Note_off_c, 1, 52, 64
3, 561408, Note_on_c, 1, 53, 86
3, 561500, Note_off_c, 1, 53, 64
3, 561504, Note_on_c, 1, 55, 87
3, 561596, Note_off_c, 1, 55, 64
3, 561600, Note_on_c, 1, 57, 87
3, 561692, Note_off_c, 1, 57, 64
3, 561696, Note_on_c, 1, 59, 88
3, 561788, Note_off_c, 1, 59, 64
3, 561792, Note_on_c, 1, 60, 88
3, 561884, Note_off_c, 1, 60, 64
3, 561984, Note_on_c, 1, 48, 89
3, 562076, Note_off_c, 1, 48, 64
3, 562176, Note_on_c, 1, 62, 90
3, 562460, Note_off_c, 1, 62, 64
3, 562464, Note_on_c, 1, 60, 90
3, 562556, Note_off_c, 1, 60, 64
3, 562560, Note_on_c, 1, 59, 90
3, 562844, Note_off_c, 1, 59, 64
3, 562848, Note_on_c, 1, 57, 90
3, 562940, Note_off_c, 1, 57, 64
3, 562944, Note_on_c, 1, 55, 90
3, 563228, Note_off_c, 1, 55, 64
3, 563232, Note_on_c, 1, 53, 90
3, 563324, Note_off_c, 1, 53, 64
3, 563328, Note_on_c, 1, 52, 90
3, 563612, Note_off_c, 1, 52, 64
3, 563616, Note_on_c, 1, 50, 90
3, 563708, Note_off_c, 1, 50, 64
3, 563712, Note_on_c, 1, 48, 90
3, 564092, Note_off_c, 1, 48, 64
3, 564864, Note_on_c, 1, 52, 90
3, 564864, Note_on_c, 1, 40, 92
3, 565244, Note_off_c, 1, 52, 64
3, 565244, Note_off_c, 1, 40, 64
3, 565248, Note_on_c, 1, 53, 90
3, 565248, Note_on_c, 1, 41, 91
3, 565628, Note_off_c, 1, 53, 64
3, 565628, Note_off_c, 1, 41, 64
3, 566400, Note_on_c, 1, 53, 90
3, 566400, Note_on_c, 1, 41, 91
3, 566780, Note_off_c, 1, 53, 64
3, 566780, Note_off_c, 1, 41, 64
3, 566784, Note_on_c, 1, 55, 90
3, 567164, Note_off_c, 1, 55, 64
3, 567552, Note_on_c, 1, 43, 90
3, 567932, Note_off_c, 1, 43, 64
3, 568320, Note_on_c, 1, 48, 90
3, 568700, Note_off_c, 1, 48, 64
3, 569472, Note_on_c, 1, 60, 90
3, 569472, Note_on_c, 1, 48, 90
3, 569564, Note_off_c, 1, 60, 64
3, 569564, Note_off_c, 1, 48, 64
3, 569664, Note_on_c, 1, 59, 90
3, 569664, Note_on_c, 1, 47, 90
3, 569756, Note_off_c, 1, 59, 64
3, 569756, Note_off_c, 1, 47, 64
3, 569856, Note_on_c, 1, 57, 90
3, 569856, Note_on_c, 1, 45, 90
3, 570236, Note_off_c, 1, 57, 64
3, 570236, Note_off_c, 1, 45, 64
3, 571008, Note_on_c, 1, 57, 90
3, 571008, Note_on_c, 1, 45, 90
3, 571100, Note_off_c, 1, 57, 64
3, 571100, Note_off_c, 1, 45, 64
3, 571200, Note_on_c, 1, 55, 90
3, 571200, Note_on_c, 1, 43, 90
3, 571292, Note_off_c, 1, 55, 64
3, 571292, Note_off_c, 1, 43, 64
3, 571392, Note_on_c, 1, 53, 90
3, 571392, Note_on_c, 1, 41, 91
3, 571772, Note_off_c, 1, 53, 64
3, 571772, Note_off_c, 1, 41, 64
3, 572544, Note_on_c, 1, 65, 90
3, 572544, Note_on_c, 1, 53, 90
3, 572636, Note_off_c, 1, 65, 64
3, 572636, Note_off_c, 1, 53, 64
3, 572736, Note_on_c, 1, 64, 90
3, 572736, Note_on_c, 1, 52, 90
3, 572828, Note_off_c, 1, 64, 64
3, 572828, Note_off_c, 1, 52, 64
3, 572928, Note_on_c, 1, 50, 90
3, 573020, Note_off_c, 1, 50, 64
3, 573024, Note_on_c, 1, 62, 90
3, 573116, Note_off_c, 1, 62, 64
3, 573120, Note_on_c, 1, 48, 90
3, 573212, Note_off_c, 1, 48, 64
3, 573216, Note_on_c, 1, 60, 90
3, 573308, Note_off_c, 1, 60, 64
3, 573312, Note_on_c, 1, 47, 90
3, 573404, Note_off_c, 1, 47, 64
3, 573408, Note_on_c, 1, 59, 90
3, 573500, Note_off_c, 1, 59, 64
3, 573504, Note_on_c, 1, 45, 90
3, 573596, Note_off_c, 1, 45, 64
3, 573600, Note_on_c, 1, 57, 90
3, 573692, Note_off_c, 1, 57, 64
3, 573696, Note_on_c, 1, 43, 90
3, 573788, Note_off_c, 1, 43, 64
3, 573792, Note_on_c, 1, 55, 90
3, 573884, Note_off_c, 1, 55, 64
3, 573888, Note_on_c, 1, 41, 91
3, 573980, Note_off_c, 1, 41, 64
3, 573984, Note_on_c, 1, 53, 90
3, 574076, Note_off_c, 1, 53, 64
3, 574080, Note_on_c, 1, 40, 92
3, 574172, Note_off_c, 1, 40, 64
3, 574176, Note_on_c, 1, 52, 90
3, 574268, Note_off_c, 1, 52, 64
3, 574272, Note_on_c, 1, 38, 93
3, 574364, Note_off_c, 1, 38, 64
3, 574368, Note_on_c, 1, 50, 90
3, 574460, Note_off_c, 1, 50, 64
3, 574464, Note_on_c, 1, 48, 90
3, 574556, Note_off_c, 1, 48, 64
3, 574560, Note_on_c, 1, 55, 90
3, 574652, Note_off_c, 1, 55, 64
3, 574656, Note_on_c, 1, 52, 90
3, 574748, Note_off_c, 1, 52, 64
3, 574752, Note_on_c, 1, 48, 90
3, 574844, Note_off_c, 1, 48, 64
3, 574848, Note_on_c, 1, 43, 90
3, 574940, Note_off_c, 1, 43, 64
3, 574944, Note_on_c, 1, 48, 90
3, 575036, Note_off_c, 1, 48, 64
3, 575040, Note_on_c, 1, 40, 92
3, 575132, Note_off_c, 1, 40, 64
3, 575136, Note_on_c, 1, 43, 90
3, 575228, Note_off_c, 1, 43, 64
3, 575232, Note_on_c, 1, 36, 94
3, 575612, Note_off_c, 1, 36, 64
3, 576000, Note_on_c, 1, 55, 90
3, 576092, Note_off_c, 1, 55, 64
3, 576096, Note_on_c, 1, 58, 90
3, 576188, Note_off_c, 1, 58, 64
3, 576192, Note_on_c, 1, 52, 90
3, 576284, Note_off_c, 1, 52, 64
3, 576288, Note_on_c, 1, 55, 90
3, 576380, Note_off_c, 1, 55, 64
3, 576384, Note_on_c, 1, 46, 90
3, 576476, Note_off_c, 1, 46, 64
3, 576480, Note_on_c, 1, 52, 90
3, 576572, Note_off_c, 1, 52, 64
3, 576576, Note_on_c, 1, 43, 90
3, 576668, Note_off_c, 1, 43, 64
3, 576672, Note_on_c, 1, 46, 90
3, 576752, Note_on_c, 1, 40, 90
3, 576764, Note_off_c, 1, 46, 64
3, 577132, Note_off_c, 1, 40, 64
3, 577536, Note_on_c, 1, 53, 90
3, 577628, Note_off_c, 1, 53, 64
3, 577632, Note_on_c, 1, 60, 90
3, 577724, Note_off_c, 1, 60, 64
3, 577728, Note_on_c, 1, 57, 90
3, 577820, Note_off_c, 1, 57, 64
3, 577824, Note_on_c, 1, 53, 90
3, 577916, Note_off_c, 1, 53, 64
3, 577920, Note_on_c, 1, 48, 90
3, 578012, Note_off_c, 1, 48, 64
3, 578016, Note_on_c, 1, 53, 90
3, 578108, Note_off_c, 1, 53, 64
3, 578112, Note_on_c, 1, 45, 90
3, 578204, Note_off_c, 1, 45, 64
3, 578208, Note_on_c, 1, 48, 90
3, 578300, Note_off_c, 1, 48, 64
3, 578304, Note_on_c, 1, 41, 91
3, 578684, Note_off_c, 1, 41, 64
3, 579072, Note_on_c, 1, 54, 90
3, 579164, Note_off_c, 1, 54, 64
3, 579168, Note_on_c, 1, 57, 90
3, 579260, Note_off_c, 1, 57, 64
3, 579264, Note_on_c, 1, 51, 90
3, 579356, Note_off_c, 1, 51, 64
3, 579360, Note_on_c, 1, 54, 90
3, 579452, Note_off_c, 1, 54, 64
3, 579456, Note_on_c, 1, 48, 90
3, 579548, Note_off_c, 1, 48, 64
3, 579552, Note_on_c, 1, 51, 90
3, 579644, Note_off_c, 1, 51, 64
3, 579648, Note_on_c, 1, 45, 90
3, 579740, Note_off_c, 1, 45, 64
3, 579744, Note_on_c, 1, 48, 90
3, 579836, Note_off_c, 1, 48, 64
3, 579840, Note_on_c, 1, 42, 91
3, 580220, Note_off_c, 1, 42, 64
3, 580608, Note_on_c, 1, 60, 90
3, 580700, Note_off_c, 1, 60, 64
3, 580800, Note_on_c, 1, 57, 90
3, 580892, Note_off_c, 1, 57, 64
3, 580992, Note_on_c, 1, 54, 90
3, 581084, Note_off_c, 1, 54, 64
3, 581184, Note_on_c, 1, 51, 90
3, 581276, Note_off_c, 1, 51, 64
3, 581376, Note_on_c, 1, 48, 90
3, 581468, Note_off_c, 1, 48, 64
3, 581568, Note_on_c, 1, 44, 90
3, 581660, Note_off_c, 1, 44, 64
3, 581760, Note_on_c, 1, 55, 90
3, 581760, Note_on_c, 1, 43, 90
3, 581852, Note_off_c, 1, 55, 64
3, 581852, Note_off_c, 1, 43, 64
3, 581856, Note_on_c, 1, 60, 90
3, 581948, Note_off_c, 1, 60, 64
3, 581952, Note_on_c, 1, 54, 90
3, 581952, Note_on_c, 1, 42, 91
3, 582044, Note_off_c, 1, 54, 64
3, 582044, Note_off_c, 1, 42, 64
3, 582048, Note_on_c, 1, 60, 90
3, 582140, Note_off_c, 1, 60, 64
3, 582144, Note_on_c, 1, 43, 91
3, 582144, Note_on_c, 1, 31, 97
3, 582144, Note_on_c, 1, 55, 90
3, 582332, Note_off_c, 1, 55, 64
3, 582336, Note_on_c, 1, 52, 90
3, 582428, Note_off_c, 1, 52, 64
3, 582432, Note_on_c, 1, 60, 90
3, 582524, Note_off_c, 1, 60, 64
3, 582528, Note_on_c, 1, 50, 90
3, 582620, Note_off_c, 1, 50, 64
3, 582624, Note_on_c, 1, 59, 90
3, 582716, Note_off_c, 1, 59, 64
3, 582720, Note_on_c, 1, 53, 90
3, 582812, Note_off_c, 1, 53, 64
3, 582816, Note_on_c, 1, 62, 90
3, 582908, Note_off_c, 1, 62, 64
3, 582912, Note_on_c, 1, 52, 90
3, 583004, Note_off_c, 1, 52, 64
3, 583008, Note_on_c, 1, 60, 90
3, 583100, Note_off_c, 1, 60, 64
3, 583104, Note_on_c, 1, 55, 90
3, 583196, Note_off_c, 1, 55, 64
3, 583200, Note_on_c, 1, 64, 90
3, 583292, Note_off_c, 1, 64, 64
3, 583676, Note_off_c, 1, 43, 64
3, 583676, Note_off_c, 1, 31, 64
3, 588288, Note_on_c, 1, 65, 90
3, 588380, Note_off_c, 1, 65, 64
3, 588384, Note_on_c, 1, 64, 90
3, 588476, Note_off_c, 1, 64, 64
3, 588480, Note_on_c, 1, 65, 90
3, 588572, Note_off_c, 1, 65, 64
3, 588576, Note_on_c, 1, 64, 90
3, 588668, Note_off_c, 1, 64, 64
3, 588672, Note_on_c, 1, 65, 90
3, 588764, Note_off_c, 1, 65, 64
3, 588768, Note_on_c, 1, 64, 90
3, 588860, Note_off_c, 1, 64, 64
3, 588864, Note_on_c, 1, 62, 90
3, 588956, Note_off_c, 1, 62, 64
3, 588960, Note_on_c, 1, 61, 90
3, 589052, Note_off_c, 1, 61, 64
3, 589056, Note_on_c, 1, 62, 90
3, 589148, Note_off_c, 1, 62, 64
3, 589152, Note_on_c, 1, 60, 90
3, 589244, Note_off_c, 1, 60, 64
3, 589248, Note_on_c, 1, 59, 90
3, 589340, Note_off_c, 1, 59, 64
3, 589344, Note_on_c, 1, 57, 90
3, 589436, Note_off_c, 1, 57, 64
3, 589440, Note_on_c, 1, 59, 90
3, 589532, Note_off_c, 1, 59, 64
3, 589536, Note_on_c, 1, 57, 90
3, 589628, Note_off_c, 1, 57, 64
3, 589632, Note_on_c, 1, 55, 90
3, 589724, Note_off_c, 1, 55, 64
3, 589728, Note_on_c, 1, 54, 90
3, 589820, Note_off_c, 1, 54, 64
3, 589824, Note_on_c, 1, 55, 90
3, 589916, Note_off_c, 1, 55, 64
3, 589920, Note_on_c, 1, 64, 90
3, 590012, Note_off_c, 1, 64, 64
3, 590016, Note_on_c, 1, 60, 90
3, 590108, Note_off_c, 1, 60, 64
3, 590112, Note_on_c, 1, 64, 90
3, 590204, Note_off_c, 1, 64, 64
3, 590208, Note_on_c, 1, 55, 90
3, 590300, Note_off_c, 1, 55, 64
3, 590304, Note_on_c, 1, 64, 90
3, 590396, Note_off_c, 1, 64, 64
3, 590400, Note_on_c, 1, 60, 90
3, 590492, Note_off_c, 1, 60, 64
3, 590496, Note_on_c, 1, 64, 90
3, 590588, Note_off_c, 1, 64, 64
3, 590592, Note_on_c, 1, 55, 90
3, 590684, Note_off_c, 1, 55, 64
3, 590688, Note_on_c, 1, 64, 90
3, 590780, Note_off_c, 1, 64, 64
3, 590784, Note_on_c, 1, 60, 90
3, 590876, Note_off_c, 1, 60, 64
3, 590880, Note_on_c, 1, 64, 90
3, 590972, Note_off_c, 1, 64, 64
3, 590976, Note_on_c, 1, 55, 90
3, 591068, Note_off_c, 1, 55, 64
3, 591072, Note_on_c, 1, 64, 90
3, 591164, Note_off_c, 1, 64, 64
3, 591168, Note_on_c, 1, 60, 90
3, 591260, Note_off_c, 1, 60, 64
3, 591264, Note_on_c, 1, 64, 90
3, 591356, Note_off_c, 1, 64, 64
3, 591360, Note_on_c, 1, 55, 90
3, 591452, Note_off_c, 1, 55, 64
3, 591456, Note_on_c, 1, 64, 90
3, 591548, Note_off_c, 1, 64, 64
3, 591552, Note_on_c, 1, 60, 90
3, 591644, Note_off_c, 1, 60, 64
3, 591648, Note_on_c, 1, 64, 90
3, 591740, Note_off_c, 1, 64, 64
3, 591744, Note_on_c, 1, 55, 90
3, 591836, Note_off_c, 1, 55, 64
3, 591840, Note_on_c, 1, 64, 90
3, 591932, Note_off_c, 1, 64, 64
3, 591936, Note_on_c, 1, 60, 90
3, 592028, Note_off_c, 1, 60, 64
3, 592032, Note_on_c, 1, 64, 90
3, 592124, Note_off_c, 1, 64, 64
3, 592128, Note_on_c, 1, 55, 90
3, 592220, Note_off_c, 1, 55, 64
3, 592224, Note_on_c, 1, 64, 90
3, 592316, Note_off_c, 1, 64, 64
3, 592320, Note_on_c, 1, 60, 90
3, 592412, Note_off_c, 1, 60, 64
3, 592416, Note_on_c, 1, 64, 90
3, 592508, Note_off_c, 1, 64, 64
3, 592512, Note_on_c, 1, 55, 90
3, 592604, Note_off_c, 1, 55, 64
3, 592608, Note_on_c, 1, 64, 90
3, 592700, Note_off_c, 1, 64, 64
3, 592704, Note_on_c, 1, 60, 90
3, 592796, Note_off_c, 1, 60, 64
3, 592800, Note_on_c, 1, 64, 90
3, 592892, Note_off_c, 1, 64, 64
3, 592896, Note_on_c, 1, 55, 90
3, 592988, Note_off_c, 1, 55, 64
3, 592992, Note_on_c, 1, 65, 90
3, 593084, Note_off_c, 1, 65, 64
3, 593088, Note_on_c, 1, 60, 90
3, 593180, Note_off_c, 1, 60, 64
3, 593184, Note_on_c, 1, 65, 90
3, 593276, Note_off_c, 1, 65, 64
3, 593280, Note_on_c, 1, 55, 90
3, 593372, Note_off_c, 1, 55, 64
3, 593376, Note_on_c, 1, 65, 90
3, 593468, Note_off_c, 1, 65, 64
3, 593472, Note_on_c, 1, 60, 90
3, 593564, Note_off_c, 1, 60, 64
3, 593568, Note_on_c, 1, 65, 90
3, 593660, Note_off_c, 1, 65, 64
3, 593664, Note_on_c, 1, 55, 90
3, 593756, Note_off_c, 1, 55, 64
3, 593760, Note_on_c, 1, 65, 90
3, 593852, Note_off_c, 1, 65, 64
3, 593856, Note_on_c, 1, 60, 90
3, 593948, Note_off_c, 1, 60, 64
3, 593952, Note_on_c, 1, 65, 90
3, 594044, Note_off_c, 1, 65, 64
3, 594048, Note_on_c, 1, 55, 90
3, 594140, Note_off_c, 1, 55, 64
3, 594144, Note_on_c, 1, 65, 90
3, 594236, Note_off_c, 1, 65, 64
3, 594240, Note_on_c, 1, 60, 90
3, 594332, Note_off_c, 1, 60, 64
3, 594336, Note_on_c, 1, 65, 90
3, 594428, Note_off_c, 1, 65, 64
3, 594432, Note_on_c, 1, 55, 90
3, 594524, Note_off_c, 1, 55, 64
3, 594528, Note_on_c, 1, 65, 90
3, 594620, Note_off_c, 1, 65, 64
3, 594624, Note_on_c, 1, 59, 90
3, 594716, Note_off_c, 1, 59, 64
3, 594720, Note_on_c, 1, 65, 90
3, 594812, Note_off_c, 1, 65, 64
3, 594816, Note_on_c, 1, 55, 90
3, 594908, Note_off_c, 1, 55, 64
3, 594912, Note_on_c, 1, 65, 90
3, 595004, Note_off_c, 1, 65, 64
3, 595008, Note_on_c, 1, 59, 90
3, 595100, Note_off_c, 1, 59, 64
3, 595104, Note_on_c, 1, 65, 90
3, 595196, Note_off_c, 1, 65, 64
3, 595200, Note_on_c, 1, 55, 90
3, 595292, Note_off_c, 1, 55, 64
3, 595296, Note_on_c, 1, 65, 90
3, 595388, Note_off_c, 1, 65, 64
3, 595392, Note_on_c, 1, 59, 90
3, 595484, Note_off_c, 1, 59, 64
3, 595488, Note_on_c, 1, 65, 90
3, 595580, Note_off_c, 1, 65, 64
3, 595584, Note_on_c, 1, 55, 90
3, 595676, Note_off_c, 1, 55, 64
3, 595680, Note_on_c, 1, 65, 90
3, 595772, Note_off_c, 1, 65, 64
3, 595776, Note_on_c, 1, 59, 90
3, 595868, Note_off_c, 1, 59, 64
3, 595872, Note_on_c, 1, 65, 90
3, 595964, Note_off_c, 1, 65, 64
3, 595968, Note_on_c, 1, 64, 90
3, 595968, Note_on_c, 1, 60, 90
3, 596348, Note_off_c, 1, 64, 64
3, 596348, Note_off_c, 1, 60, 64
3, 614392, Control_c, 1, 64, 127
3, 614400, Note_on_c, 1, 55, 90
3, 614400, Note_on_c, 1, 43, 82
3, 615160, Control_c, 1, 64, 0
3, 615548, Note_off_c, 1, 55, 64
3, 615548, Note_off_c, 1, 43, 64
3, 620544, Note_on_c, 1, 62, 80
3, 620544, Note_on_c, 1, 54, 80
3, 620636, Note_off_c, 1, 62, 64
3, 620636, Note_off_c, 1, 54, 64
3, 620928, Note_on_c, 1, 60, 82
3, 621020, Note_off_c, 1, 60, 64
3, 621312, Note_on_c, 1, 62, 85
3, 621404, Note_off_c, 1, 62, 64
3, 621696, Note_on_c, 1, 69, 88
3, 621788, Note_off_c, 1, 69, 64
3, 623616, Note_on_c, 1, 69, 80
3, 623616, Note_on_c, 1, 62, 80
3, 623616, Note_on_c, 1, 54, 80
3, 623996, Note_off_c, 1, 69, 64
3, 623996, Note_off_c, 1, 62, 64
3, 623996, Note_off_c, 1, 54, 64
3, 624000, Note_on_c, 1, 60, 81
3, 624092, Note_off_c, 1, 60, 64
3, 624384, Note_on_c, 1, 62, 84
3, 624476, Note_off_c, 1, 62, 64
3, 624768, Note_on_c, 1, 69, 87
3, 624860, Note_off_c, 1, 69, 64
3, 626688, Note_on_c, 1, 32, 72
3, 627072, Note_on_c, 1, 63, 65
3, 627164, Note_off_c, 1, 63, 64
3, 627456, Note_on_c, 1, 66, 65
3, 627548, Note_off_c, 1, 66, 64
3, 627840, Note_on_c, 1, 68, 65
3, 627932, Note_off_c, 1, 68, 64
3, 632828, Note_off_c, 1, 32, 64
3, 635904, Note_on_c, 1, 49, 65
3, 636284, Note_off_c, 1, 49, 64
3, 636288, Note_on_c, 1, 68, 65
3, 636288, Note_on_c, 1, 65, 65
3, 636476, Note_off_c, 1, 68, 64
3, 636476, Note_off_c, 1, 65, 64
3, 637056, Note_on_c, 1, 68, 65
3, 637056, Note_on_c, 1, 65, 65
3, 637436, Note_off_c, 1, 68, 64
3, 637436, Note_off_c, 1, 65, 64
3, 637440, Note_on_c, 1, 42, 66
3, 637820, Note_off_c, 1, 42, 64
3, 637824, Note_on_c, 1, 70, 65
3, 637824, Note_on_c, 1, 63, 65
3, 637824, Note_on_c, 1, 61, 65
3, 638012, Note_off_c, 1, 70, 64
3, 638012, Note_off_c, 1, 63, 64
3, 638012, Note_off_c, 1, 61, 64
3, 638592, Note_on_c, 1, 70, 65
3, 638592, Note_on_c, 1, 63, 65
3, 638592, Note_on_c, 1, 61, 65
3, 638972, Note_off_c, 1, 70, 64
3, 638972, Note_off_c, 1, 63, 64
3, 638972, Note_off_c, 1, 61, 64
3, 638976, Note_on_c, 1, 44, 65
3, 639356, Note_off_c, 1, 44, 64
3, 639360, Note_on_c, 1, 66, 65
3, 639360, Note_on_c, 1, 63, 65
3, 639548, Note_off_c, 1, 66, 64
3, 639548, Note_off_c, 1, 63, 64
3, 640128, Note_on_c, 1, 63, 65
3, 640128, Note_on_c, 1, 56, 65
3, 640128, Note_on_c, 1, 54, 65
3, 640508, Note_off_c, 1, 63, 64
3, 640508, Note_off_c, 1, 56, 64
3, 640508, Note_off_c, 1, 54, 64
3, 640512, Note_on_c, 1, 53, 65
3, 640892, Note_off_c, 1, 53, 64
3, 640896, Note_on_c, 1, 56, 71
3, 640896, Note_on_c, 1, 61, 71
3, 640896, Note_on_c, 1, 68, 71
3, 641084, Note_off_c, 1, 56, 64
3, 641084, Note_off_c, 1, 61, 64
3, 641084, Note_off_c, 1, 68, 64
3, 641664, Note_on_c, 1, 68, 67
3, 641664, Note_on_c, 1, 61, 67
3, 641664, Note_on_c, 1, 56, 67
3, 642044, Note_off_c, 1, 68, 64
3, 642044, Note_off_c, 1, 61, 64
3, 642044, Note_off_c, 1, 56, 64
3, 642048, Note_on_c, 1, 52, 65
3, 642428, Note_off_c, 1, 52, 64
3, 642432, Note_on_c, 1, 68, 65
3, 642432, Note_on_c, 1, 61, 65
3, 642432, Note_on_c, 1, 56, 65
3, 642620, Note_off_c, 1, 68, 64
3, 642620, Note_off_c, 1, 61, 64
3, 642620, Note_off_c, 1, 56, 64
3, 643200, Note_on_c, 1, 68, 65
3, 643200, Note_on_c, 1, 61, 65
3, 643200, Note_on_c, 1, 56, 65
3, 643580, Note_off_c, 1, 68, 64
3, 643580, Note_off_c, 1, 61, 64
3, 643580, Note_off_c, 1, 56, 64
3, 643584, Note_on_c, 1, 64, 80
3, 643584, Note_on_c, 1, 45, 80
3, 643772, Note_off_c, 1, 64, 64
3, 643772, Note_off_c, 1, 45, 64
3, 643776, Note_on_c, 1, 61, 80
3, 643964, Note_off_c, 1, 61, 64
3, 643968, Note_on_c, 1, 59, 80
3, 644156, Note_off_c, 1, 59, 64
3, 644160, Note_on_c, 1, 57, 80
3, 644348, Note_off_c, 1, 57, 64
3, 644352, Note_on_c, 1, 64, 81
3, 644540, Note_off_c, 1, 64, 64
3, 644544, Note_on_c, 1, 61, 83
3, 644732, Note_off_c, 1, 61, 64
3, 644736, Note_on_c, 1, 59, 86
3, 644924, Note_off_c, 1, 59, 64
3, 644928, Note_on_c, 1, 57, 88
3, 645116, Note_off_c, 1, 57, 64
3, 645120, Note_on_c, 1, 66, 90
3, 645120, Note_on_c, 1, 45, 90
3, 645308, Note_off_c, 1, 66, 64
3, 645308, Note_off_c, 1, 45, 64
3, 645312, Note_on_c, 1, 62, 88
3, 645500, Note_off_c, 1, 62, 64
3, 645504, Note_on_c, 1, 61, 85
3, 645692, Note_off_c, 1, 61, 64
3, 645696, Note_on_c, 1, 59, 82
3, 645884, Note_off_c, 1, 59, 64
3, 646656, Note_on_c, 1, 62, 66
3, 646656, Note_on_c, 1, 45, 66
3, 646844, Note_off_c, 1, 62, 64
3, 646844, Note_off_c, 1, 45, 64
3, 646848, Note_on_c, 1, 59, 69
3, 647036, Note_off_c, 1, 59, 64
3, 647040, Note_on_c, 1, 57, 72
3, 647228, Note_off_c, 1, 57, 64
3, 647232, Note_on_c, 1, 56, 75
3, 647420, Note_off_c, 1, 56, 64
3, 647424, Note_on_c, 1, 62, 78
3, 647612, Note_off_c, 1, 62, 64
3, 647616, Note_on_c, 1, 59, 81
3, 647804, Note_off_c, 1, 59, 64
3, 647808, Note_on_c, 1, 57, 84
3, 647996, Note_off_c, 1, 57, 64
3, 648000, Note_on_c, 1, 56, 87
3, 648188, Note_off_c, 1, 56, 64
3, 648192, Note_on_c, 1, 64, 90
3, 648192, Note_on_c, 1, 45, 90
3, 648380, Note_off_c, 1, 64, 64
3, 648380, Note_off_c, 1, 45, 64
3, 648384, Note_on_c, 1, 61, 87
3, 648572, Note_off_c, 1, 61, 64
3, 648576, Note_on_c, 1, 59, 84
3, 648764, Note_off_c, 1, 59, 64
3, 648768, Note_on_c, 1, 57, 81
3, 648956, Note_off_c, 1, 57, 64
3, 650112, Note_on_c, 1, 61, 67
3, 650112, Note_on_c, 1, 64, 67
3, 650492, Note_off_c, 1, 61, 64
3, 650492, Note_off_c, 1, 64, 64
3, 650496, Note_on_c, 1, 66, 70
3, 650496, Note_on_c, 1, 62, 70
3, 650876, Note_off_c, 1, 66, 64
3, 650880, Note_on_c, 1, 66, 66
3, 651260, Note_off_c, 1, 62, 64
3, 651260, Note_off_c, 1, 66, 64
3, 651648, Note_on_c, 1, 64, 67
3, 651648, Note_on_c, 1, 60, 67
3, 652028, Note_off_c, 1, 64, 64
3, 652028, Note_off_c, 1, 60, 64
3, 652032, Note_on_c, 1, 65, 68
3, 652032, Note_on_c, 1, 62, 68
3, 652412, Note_off_c, 1, 65, 64
3, 652412, Note_off_c, 1, 62, 64
3, 652416, Note_on_c, 1, 52, 66
3, 652416, Note_on_c, 1, 61, 66
3, 652796, Note_off_c, 1, 52, 64
3, 652796, Note_off_c, 1, 61, 64
3, 654336, Note_on_c, 1, 60, 65
3, 654336, Note_on_c, 1, 53, 65
3, 654524, Note_off_c, 1, 60, 64
3, 654528, Note_on_c, 1, 58, 65
3, 654716, Note_off_c, 1, 58, 64
3, 654720, Note_on_c, 1, 57, 65
3, 654908, Note_off_c, 1, 53, 64
3, 654908, Note_off_c, 1, 57, 64
3, 654912, Note_on_c, 1, 55, 65
3, 654912, Note_on_c, 1, 52, 65
3, 655100, Note_off_c, 1, 55, 64
3, 655100, Note_off_c, 1, 52, 64
3, 655104, Note_on_c, 1, 53, 65
3, 655292, Note_off_c, 1, 53, 64
3, 655296, Note_on_c, 1, 40, 67
3, 655484, Note_off_c, 1, 40, 64
3, 655488, Note_on_c, 1, 41, 66
3, 655676, Note_off_c, 1, 41, 64
3, 655680, Note_on_c, 1, 42, 66
3, 655868, Note_off_c, 1, 42, 64
3, 655872, Note_on_c, 1, 31, 63
3, 655964, Note_off_c, 1, 31, 64
3, 655968, Note_on_c, 1, 43, 56
3, 656060, Note_off_c, 1, 43, 64
3, 656064, Note_on_c, 1, 48, 57
3, 656156, Note_off_c, 1, 48, 64
3, 656160, Note_on_c, 1, 52, 58
3, 656252, Note_off_c, 1, 52, 64
3, 656256, Note_on_c, 1, 54, 59
3, 656348, Note_off_c, 1, 54, 64
3, 656352, Note_on_c, 1, 55, 60
3, 656444, Note_off_c, 1, 55, 64
3, 656448, Note_on_c, 1, 60, 61
3, 656540, Note_off_c, 1, 60, 64
3, 656544, Note_on_c, 1, 64, 62
3, 656636, Note_off_c, 1, 64, 64
3, 658560, Note_on_c, 1, 56, 59
3, 658652, Note_off_c, 1, 56, 64
3, 658656, Note_on_c, 1, 53, 58
3, 658748, Note_off_c, 1, 53, 64
3, 658752, Note_on_c, 1, 50, 57
3, 658844, Note_off_c, 1, 50, 64
3, 658848, Note_on_c, 1, 48, 56
3, 658940, Note_off_c, 1, 48, 64
3, 658944, Note_on_c, 1, 31, 63
3, 659036, Note_off_c, 1, 31, 64
3, 659040, Note_on_c, 1, 43, 56
3, 659132, Note_off_c, 1, 43, 64
3, 659136, Note_on_c, 1, 48, 56
3, 659228, Note_off_c, 1, 48, 64
3, 659232, Note_on_c, 1, 52, 57
3, 659324, Note_off_c, 1, 52, 64
3, 659328, Note_on_c, 1, 54, 58
3, 659420, Note_off_c, 1, 54, 64
3, 659424, Note_on_c, 1, 55, 59
3, 659516, Note_off_c, 1, 55, 64
3, 659520, Note_on_c, 1, 60, 60
3, 659612, Note_off_c, 1, 60, 64
3, 659616, Note_on_c, 1, 64, 61
3, 659708, Note_off_c, 1, 64, 64
3, 661632, Note_on_c, 1, 58, 65
3, 661724, Note_off_c, 1, 58, 64
3, 661728, Note_on_c, 1, 55, 65
3, 661820, Note_off_c, 1, 55, 64
3, 661824, Note_on_c, 1, 52, 65
3, 661916, Note_off_c, 1, 52, 64
3, 661920, Note_on_c, 1, 50, 65
3, 662012, Note_off_c, 1, 50, 64
3, 662016, Note_on_c, 1, 55, 55
3, 662016, Note_on_c, 1, 45, 55
3, 662108, Note_off_c, 1, 55, 64
3, 662108, Note_off_c, 1, 45, 64
3, 662112, Note_on_c, 1, 57, 56
3, 662204, Note_off_c, 1, 57, 64
3, 662208, Note_on_c, 1, 61, 58
3, 662300, Note_off_c, 1, 61, 64
3, 662304, Note_on_c, 1, 69, 60
3, 662396, Note_off_c, 1, 69, 64
3, 663552, Note_on_c, 1, 55, 65
3, 663552, Note_on_c, 1, 45, 65
3, 663644, Note_off_c, 1, 55, 64
3, 663644, Note_off_c, 1, 45, 64
3, 663648, Note_on_c, 1, 57, 65
3, 663740, Note_off_c, 1, 57, 64
3, 663744, Note_on_c, 1, 61, 65
3, 663836, Note_off_c, 1, 61, 64
3, 663840, Note_on_c, 1, 69, 65
3, 663932, Note_off_c, 1, 69, 64
3, 664320, Note_on_c, 1, 60, 68
3, 664320, Note_on_c, 1, 50, 68
3, 664412, Note_off_c, 1, 60, 64
3, 664412, Note_off_c, 1, 50, 64
3, 665088, Note_on_c, 1, 53, 72
3, 665088, Note_on_c, 1, 43, 72
3, 665180, Note_off_c, 1, 53, 64
3, 665180, Note_off_c, 1, 43, 64
3, 665184, Note_on_c, 1, 55, 72
3, 665276, Note_off_c, 1, 55, 64
3, 665280, Note_on_c, 1, 59, 73
3, 665372, Note_off_c, 1, 59, 64
3, 665376, Note_on_c, 1, 64, 74
3, 665468, Note_off_c, 1, 64, 64
3, 665856, Note_on_c, 1, 58, 76
3, 665856, Note_on_c, 1, 48, 76
3, 665948, Note_off_c, 1, 58, 64
3, 665948, Note_off_c, 1, 48, 64
3, 666624, Note_on_c, 1, 48, 80
3, 666624, Note_on_c, 1, 41, 81
3, 666716, Note_off_c, 1, 48, 64
3, 666716, Note_off_c, 1, 41, 64
3, 666720, Note_on_c, 1, 53, 80
3, 666812, Note_off_c, 1, 53, 64
3, 666816, Note_on_c, 1, 57, 81
3, 666908, Note_off_c, 1, 57, 64
3, 666912, Note_on_c, 1, 65, 80
3, 667004, Note_off_c, 1, 65, 64
3, 667392, Note_on_c, 1, 48, 80
3, 667392, Note_on_c, 1, 41, 81
3, 667484, Note_off_c, 1, 48, 64
3, 667484, Note_off_c, 1, 41, 64
3, 667488, Note_on_c, 1, 57, 80
3, 667580, Note_off_c, 1, 57, 64
3, 667584, Note_on_c, 1, 60, 81
3, 667676, Note_off_c, 1, 60, 64
3, 667680, Note_on_c, 1, 69, 83
3, 667772, Note_off_c, 1, 69, 64
3, 668160, Note_on_c, 1, 57, 80
3, 668160, Note_on_c, 1, 48, 80
3, 668160, Note_on_c, 1, 41, 81
3, 668252, Note_off_c, 1, 57, 64
3, 668252, Note_off_c, 1, 48, 64
3, 668252, Note_off_c, 1, 41, 64
3, 668928, Note_on_c, 1, 57, 92
3, 668928, Note_on_c, 1, 50, 92
3, 668928, Note_on_c, 1, 42, 93
3, 669020, Note_off_c, 1, 57, 64
3, 669020, Note_off_c, 1, 50, 64
3, 669020, Note_off_c, 1, 42, 64
3, 669696, Note_on_c, 1, 43, 98
3, 669696, Note_on_c, 1, 31, 105
3, 669884, Note_off_c, 1, 43, 64
3, 669884, Note_off_c, 1, 31, 64
3, 669888, Note_on_c, 1, 47, 98
3, 669888, Note_on_c, 1, 35, 103
3, 669980, Note_off_c, 1, 47, 64
3, 669980, Note_off_c, 1, 35, 64
3, 669984, Note_on_c, 1, 51, 98
3, 670076, Note_off_c, 1, 51, 64
3, 670080, Note_on_c, 1, 48, 98
3, 670080, Note_on_c, 1, 36, 102
3, 670172, Note_off_c, 1, 48, 64
3, 670172, Note_off_c, 1, 36, 64
3, 670176, Note_on_c, 1, 52, 98
3, 670268, Note_off_c, 1, 52, 64
3, 670272, Note_on_c, 1, 51, 98
3, 670272, Note_on_c, 1, 39, 101
3, 670364, Note_off_c, 1, 51, 64
3, 670364, Note_off_c, 1, 39, 64
3, 670368, Note_on_c, 1, 53, 98
3, 670460, Note_off_c, 1, 53, 64
3, 670464, Note_on_c, 1, 52, 98
3, 670464, Note_on_c, 1, 40, 100
3, 670556, Note_off_c, 1, 52, 64
3, 670556, Note_off_c, 1, 40, 64
3, 670560, Note_on_c, 1, 55, 99
3, 670652, Note_off_c, 1, 55, 64
3, 670656, Note_on_c, 1, 42, 98
3, 670656, Note_on_c, 1, 54, 98
3, 670748, Note_off_c, 1, 42, 64
3, 670748, Note_off_c, 1, 54, 64
3, 670752, Note_on_c, 1, 57, 98
3, 670844, Note_off_c, 1, 57, 64
3, 670848, Note_on_c, 1, 55, 98
3, 670848, Note_on_c, 1, 43, 98
3, 670940, Note_off_c, 1, 55, 64
3, 670940, Note_off_c, 1, 43, 64
3, 670944, Note_on_c, 1, 60, 98
3, 671036, Note_off_c, 1, 60, 64
3, 671040, Note_on_c, 1, 59, 98
3, 671040, Note_on_c, 1, 47, 98
3, 671132, Note_off_c, 1, 59, 64
3, 671132, Note_off_c, 1, 47, 64
3, 671136, Note_on_c, 1, 62, 98
3, 671228, Note_off_c, 1, 62, 64
3, 671232, Note_on_c, 1, 60, 98
3, 671232, Note_on_c, 1, 48, 98
3, 671328, Note_on_c, 1, 64, 98
3, 671420, Note_off_c, 1, 60, 64
3, 671420, Note_off_c, 1, 48, 64
3, 671424, Note_on_c, 1, 63, 98
3, 671424, Note_on_c, 1, 51, 98
3, 671516, Note_off_c, 1, 64, 64
3, 671520, Note_on_c, 1, 65, 98
3, 671612, Note_off_c, 1, 63, 64
3, 671612, Note_off_c, 1, 51, 64
3, 671612, Note_off_c, 1, 65, 64
3, 671616, Note_on_c, 1, 64, 98
3, 671616, Note_on_c, 1, 52, 98
3, 671712, Note_on_c, 1, 67, 98
3, 671804, Note_off_c, 1, 64, 64
3, 671804, Note_off_c, 1, 52, 64
3, 671808, Note_on_c, 1, 66, 98
3, 671808, Note_on_c, 1, 54, 98
3, 671900, Note_off_c, 1, 67, 64
3, 671904, Note_on_c, 1, 69, 98
3, 671996, Note_off_c, 1, 66, 64
3, 671996, Note_off_c, 1, 54, 64
3, 671996, Note_off_c, 1, 69, 64
3, 675840, Note_on_c, 1, 43, 91
3, 676220, Note_off_c, 1, 43, 64
3, 676224, Note_on_c, 1, 57, 92
3, 676316, Note_off_c, 1, 57, 64
3, 676608, Note_on_c, 1, 62, 94
3, 676700, Note_off_c, 1, 62, 64
3, 676992, Note_on_c, 1, 65, 96
3, 677084, Note_off_c, 1, 65, 64
3, 677376, Note_on_c, 1, 69, 97
3, 677948, Note_off_c, 1, 69, 64
3, 677952, Note_on_c, 1, 67, 94
3, 678012, Note_off_c, 1, 67, 64
3, 678016, Note_on_c, 1, 65, 94
3, 678076, Note_off_c, 1, 65, 64
3, 678080, Note_on_c, 1, 64, 94
3, 678140, Note_off_c, 1, 64, 64
3, 678144, Note_on_c, 1, 62, 93
3, 678236, Note_off_c, 1, 62, 64
3, 678912, Note_on_c, 1, 43, 90
3, 679292, Note_off_c, 1, 43, 64
3, 679296, Note_on_c, 1, 57, 92
3, 679388, Note_off_c, 1, 57, 64
3, 679680, Note_on_c, 1, 62, 94
3, 679772, Note_off_c, 1, 62, 64
3, 680064, Note_on_c, 1, 66, 96
3, 680156, Note_off_c, 1, 66, 64
3, 684864, Note_on_c, 1, 50, 97
3, 684956, Note_off_c, 1, 50, 64
3, 685056, Note_on_c, 1, 55, 98
3, 685056, Note_on_c, 1, 43, 98
3, 685820, Note_off_c, 1, 55, 64
3, 685820, Note_off_c, 1, 43, 64
3, 685820, End_track
4, 0, Start_track
4, 0, Title_t, "Midi by:"
4, 0, Control_c, 2, 0, 0
4, 0, Program_c, 2, 48
4, 0, Control_c, 2, 10, 33
4, 0, Control_c, 2, 91, 63
4, 0, Control_c, 2, 93, 63
4, 0, Key_signature, 0, "major"
4, 0, Control_c, 2, 121, 0
4, 384, Control_c, 2, 10, 53
4, 480, Control_c, 2, 91, 63
4, 768, Program_c, 2, 48
4, 1536, Note_on_c, 2, 60, 65
4, 1724, Note_off_c, 2, 60, 64
4, 1920, Note_on_c, 2, 55, 65
4, 2108, Note_off_c, 2, 55, 64
4, 2304, Note_on_c, 2, 60, 65
4, 2492, Note_off_c, 2, 60, 64
4, 2688, Note_on_c, 2, 64, 65
4, 2688, Note_on_c, 2, 52, 65
4, 2876, Note_off_c, 2, 64, 64
4, 2876, Note_off_c, 2, 52, 64
4, 3072, Note_on_c, 2, 65, 65
4, 3072, Note_on_c, 2, 53, 65
4, 3644, Note_off_c, 2, 65, 64
4, 3644, Note_off_c, 2, 53, 64
4, 3648, Note_on_c, 2, 64, 73
4, 3704, Note_off_c, 2, 64, 64
4, 3712, Note_on_c, 2, 62, 72
4, 3768, Note_off_c, 2, 62, 64
4, 3776, Note_on_c, 2, 60, 71
4, 3832, Note_off_c, 2, 60, 64
4, 3840, Note_on_c, 2, 59, 71
4, 4220, Note_off_c, 2, 59, 64
4, 4512, Note_on_c, 2, 55, 65
4, 4604, Note_off_c, 2, 55, 64
4, 4608, Note_on_c, 2, 59, 65
4, 4796, Note_off_c, 2, 59, 64
4, 4992, Note_on_c, 2, 62, 65
4, 5180, Note_off_c, 2, 62, 64
4, 5376, Note_on_c, 2, 65, 65
4, 5564, Note_off_c, 2, 65, 64
4, 5760, Note_on_c, 2, 62, 65
4, 5948, Note_off_c, 2, 62, 64
4, 6144, Note_on_c, 2, 67, 65
4, 6716, Note_off_c, 2, 67, 64
4, 6720, Note_on_c, 2, 69, 73
4, 6776, Note_off_c, 2, 69, 64
4, 6784, Note_on_c, 2, 67, 72
4, 6840, Note_off_c, 2, 67, 64
4, 6848, Note_on_c, 2, 65, 71
4, 6904, Note_off_c, 2, 65, 64
4, 6912, Note_on_c, 2, 64, 71
4, 7292, Note_off_c, 2, 64, 64
4, 7680, Note_on_c, 2, 79, 66
4, 7872, Note_on_c, 2, 67, 65
4, 8060, Note_off_c, 2, 67, 64
4, 8064, Note_on_c, 2, 67, 65
4, 8252, Note_off_c, 2, 67, 64
4, 8256, Note_on_c, 2, 67, 65
4, 8444, Note_off_c, 2, 67, 64
4, 8448, Note_on_c, 2, 67, 65
4, 8636, Note_off_c, 2, 79, 64
4, 8640, Note_on_c, 2, 78, 66
4, 8732, Note_off_c, 2, 78, 64
4, 8828, Note_off_c, 2, 67, 64
4, 8832, Note_on_c, 2, 79, 67
4, 8924, Note_off_c, 2, 79, 64
4, 9024, Note_on_c, 2, 76, 66
4, 9116, Note_off_c, 2, 76, 64
4, 9216, Note_on_c, 2, 77, 66
4, 9408, Note_on_c, 2, 65, 65
4, 9408, Note_on_c, 2, 71, 65
4, 9596, Note_off_c, 2, 65, 64
4, 9596, Note_off_c, 2, 71, 64
4, 9600, Note_on_c, 2, 65, 65
4, 9600, Note_on_c, 2, 71, 65
4, 9788, Note_off_c, 2, 65, 64
4, 9788, Note_off_c, 2, 71, 64
4, 9792, Note_on_c, 2, 65, 65
4, 9792, Note_on_c, 2, 71, 65
4, 9980, Note_off_c, 2, 65, 64
4, 9980, Note_off_c, 2, 71, 64
4, 9984, Note_on_c, 2, 71, 65
4, 9984, Note_on_c, 2, 65, 65
4, 10172, Note_off_c, 2, 77, 64
4, 10176, Note_on_c, 2, 76, 66
4, 10268, Note_off_c, 2, 76, 64
4, 10364, Note_off_c, 2, 71, 64
4, 10364, Note_off_c, 2, 65, 64
4, 10368, Note_on_c, 2, 77, 67
4, 10460, Note_off_c, 2, 77, 64
4, 10560, Note_on_c, 2, 74, 66
4, 10652, Note_off_c, 2, 74, 64
4, 10752, Note_on_c, 2, 72, 65
4, 10752, Note_on_c, 2, 67, 65
4, 10752, Note_on_c, 2, 64, 65
4, 11132, Note_off_c, 2, 72, 64
4, 11132, Note_off_c, 2, 67, 64
4, 11132, Note_off_c, 2, 64, 64
4, 11136, Note_on_c, 2, 72, 65
4, 11136, Note_on_c, 2, 67, 65
4, 11136, Note_on_c, 2, 64, 65
4, 11420, Note_off_c, 2, 72, 64
4, 11420, Note_off_c, 2, 67, 64
4, 11420, Note_off_c, 2, 64, 64
4, 11424, Note_on_c, 2, 72, 76
4, 11424, Note_on_c, 2, 67, 76
4, 11424, Note_on_c, 2, 64, 76
4, 11512, Note_off_c, 2, 72, 64
4, 11512, Note_off_c, 2, 67, 64
4, 11512, Note_off_c, 2, 64, 64
4, 11520, Note_on_c, 2, 74, 65
4, 11520, Note_on_c, 2, 71, 65
4, 11520, Note_on_c, 2, 67, 65
4, 11900, Note_off_c, 2, 74, 64
4, 11900, Note_off_c, 2, 71, 64
4, 11900, Note_off_c, 2, 67, 64
4, 11904, Note_on_c, 2, 71, 65
4, 11904, Note_on_c, 2, 67, 65
4, 11904, Note_on_c, 2, 74, 65
4, 12188, Note_off_c, 2, 71, 64
4, 12188, Note_off_c, 2, 67, 64
4, 12188, Note_off_c, 2, 74, 64
4, 12192, Note_on_c, 2, 74, 76
4, 12192, Note_on_c, 2, 71, 76
4, 12192, Note_on_c, 2, 67, 76
4, 12280, Note_off_c, 2, 74, 64
4, 12280, Note_off_c, 2, 71, 64
4, 12280, Note_off_c, 2, 67, 64
4, 12288, Note_on_c, 2, 72, 71
4, 12288, Note_on_c, 2, 76, 71
4, 12324, Note_off_c, 2, 76, 64
4, 12336, Note_on_c, 2, 77, 71
4, 12372, Note_off_c, 2, 77, 64
4, 12384, Note_on_c, 2, 76, 71
4, 12420, Note_off_c, 2, 76, 64
4, 12432, Note_on_c, 2, 77, 71
4, 12468, Note_off_c, 2, 77, 64
4, 12476, Note_off_c, 2, 72, 64
4, 12480, Note_on_c, 2, 74, 65
4, 12480, Note_on_c, 2, 71, 65
4, 12572, Note_off_c, 2, 74, 64
4, 12572, Note_off_c, 2, 71, 64
4, 12576, Note_on_c, 2, 76, 65
4, 12576, Note_on_c, 2, 72, 65
4, 12668, Note_off_c, 2, 76, 64
4, 12668, Note_off_c, 2, 72, 64
4, 12672, Note_on_c, 2, 77, 65
4, 12672, Note_on_c, 2, 74, 65
4, 12672, Note_on_c, 2, 67, 65
4, 12764, Note_off_c, 2, 77, 64
4, 12764, Note_off_c, 2, 74, 64
4, 12764, Note_off_c, 2, 67, 64
4, 12864, Note_on_c, 2, 76, 65
4, 12864, Note_on_c, 2, 72, 65
4, 12864, Note_on_c, 2, 67, 65
4, 12956, Note_off_c, 2, 76, 64
4, 12956, Note_off_c, 2, 72, 64
4, 12956, Note_off_c, 2, 67, 64
4, 13056, Note_on_c, 2, 74, 65
4, 13056, Note_on_c, 2, 71, 65
4, 13056, Note_on_c, 2, 67, 65
4, 13244, Note_off_c, 2, 74, 64
4, 13248, Note_on_c, 2, 76, 65
4, 13436, Note_off_c, 2, 71, 64
4, 13436, Note_off_c, 2, 67, 64
4, 13436, Note_off_c, 2, 76, 64
4, 13440, Note_on_c, 2, 77, 65
4, 13628, Note_off_c, 2, 77, 64
4, 13632, Note_on_c, 2, 78, 65
4, 13820, Note_off_c, 2, 78, 64
4, 13824, Note_on_c, 2, 79, 66
4, 14016, Note_on_c, 2, 67, 65
4, 14204, Note_off_c, 2, 67, 64
4, 14208, Note_on_c, 2, 67, 65
4, 14396, Note_off_c, 2, 67, 64
4, 14400, Note_on_c, 2, 67, 65
4, 14588, Note_off_c, 2, 79, 64
4, 14588, Note_off_c, 2, 67, 64
4, 14592, Note_on_c, 2, 67, 65
4, 14592, Note_on_c, 2, 79, 66
4, 14736, Note_off_c, 2, 79, 64
4, 14736, Note_on_c, 2, 81, 76
4, 14776, Note_off_c, 2, 81, 64
4, 14784, Note_on_c, 2, 79, 66
4, 14876, Note_off_c, 2, 79, 64
4, 14880, Note_on_c, 2, 78, 65
4, 14972, Note_off_c, 2, 67, 64
4, 14972, Note_off_c, 2, 78, 64
4, 14976, Note_on_c, 2, 79, 65
4, 15164, Note_off_c, 2, 79, 64
4, 15168, Note_on_c, 2, 76, 65
4, 15260, Note_off_c, 2, 76, 64
4, 15360, Note_on_c, 2, 77, 67
4, 15552, Note_on_c, 2, 71, 65
4, 15552, Note_on_c, 2, 65, 65
4, 15740, Note_off_c, 2, 71, 64
4, 15740, Note_off_c, 2, 65, 64
4, 15744, Note_on_c, 2, 71, 65
4, 15744, Note_on_c, 2, 65, 65
4, 15932, Note_off_c, 2, 71, 64
4, 15932, Note_off_c, 2, 65, 64
4, 15936, Note_on_c, 2, 71, 65
4, 15936, Note_on_c, 2, 65, 65
4, 16124, Note_off_c, 2, 77, 64
4, 16124, Note_off_c, 2, 71, 64
4, 16124, Note_off_c, 2, 65, 64
4, 16128, Note_on_c, 2, 71, 65
4, 16128, Note_on_c, 2, 65, 65
4, 16128, Note_on_c, 2, 77, 66
4, 16272, Note_off_c, 2, 77, 64
4, 16272, Note_on_c, 2, 79, 76
4, 16312, Note_off_c, 2, 79, 64
4, 16320, Note_on_c, 2, 77, 66
4, 16412, Note_off_c, 2, 77, 64
4, 16416, Note_on_c, 2, 76, 65
4, 16508, Note_off_c, 2, 71, 64
4, 16508, Note_off_c, 2, 65, 64
4, 16508, Note_off_c, 2, 76, 64
4, 16512, Note_on_c, 2, 77, 66
4, 16700, Note_off_c, 2, 77, 64
4, 16704, Note_on_c, 2, 74, 65
4, 16796, Note_off_c, 2, 74, 64
4, 16896, Note_on_c, 2, 72, 65
4, 16896, Note_on_c, 2, 64, 65
4, 16896, Note_on_c, 2, 67, 65
4, 17276, Note_off_c, 2, 72, 64
4, 17276, Note_off_c, 2, 64, 64
4, 17276, Note_off_c, 2, 67, 64
4, 17280, Note_on_c, 2, 72, 65
4, 17280, Note_on_c, 2, 67, 65
4, 17280, Note_on_c, 2, 64, 65
4, 17564, Note_off_c, 2, 72, 64
4, 17564, Note_off_c, 2, 67, 64
4, 17564, Note_off_c, 2, 64, 64
4, 17568, Note_on_c, 2, 72, 76
4, 17568, Note_on_c, 2, 67, 73
4, 17568, Note_on_c, 2, 64, 73
4, 17656, Note_off_c, 2, 72, 64
4, 17656, Note_off_c, 2, 67, 64
4, 17656, Note_off_c, 2, 64, 64
4, 17664, Note_on_c, 2, 74, 74
4, 17664, Note_on_c, 2, 67, 67
4, 17664, Note_on_c, 2, 71, 67
4, 17704, Note_off_c, 2, 74, 64
4, 17712, Note_on_c, 2, 76, 75
4, 17752, Note_off_c, 2, 76, 64
4, 17760, Note_on_c, 2, 74, 74
4, 17800, Note_off_c, 2, 74, 64
4, 17808, Note_on_c, 2, 76, 75
4, 17848, Note_off_c, 2, 76, 64
4, 17856, Note_on_c, 2, 74, 74
4, 17896, Note_off_c, 2, 74, 64
4, 17904, Note_on_c, 2, 76, 75
4, 17944, Note_off_c, 2, 76, 64
4, 17948, Note_off_c, 2, 67, 64
4, 17948, Note_off_c, 2, 71, 64
4, 17952, Note_on_c, 2, 72, 65
4, 17952, Note_on_c, 2, 69, 65
4, 18044, Note_off_c, 2, 72, 64
4, 18044, Note_off_c, 2, 69, 64
4, 18048, Note_on_c, 2, 74, 65
4, 18048, Note_on_c, 2, 71, 65
4, 18332, Note_off_c, 2, 74, 64
4, 18332, Note_off_c, 2, 71, 64
4, 18336, Note_on_c, 2, 76, 65
4, 18336, Note_on_c, 2, 67, 65
4, 18428, Note_off_c, 2, 76, 64
4, 18428, Note_off_c, 2, 67, 64
4, 18432, Note_on_c, 2, 76, 86
4, 18432, Note_on_c, 2, 72, 86
4, 18524, Note_off_c, 2, 76, 64
4, 18524, Note_off_c, 2, 72, 64
4, 18528, Note_on_c, 2, 84, 89
4, 18620, Note_off_c, 2, 84, 64
4, 18624, Note_on_c, 2, 76, 86
4, 18624, Note_on_c, 2, 72, 86
4, 18716, Note_off_c, 2, 76, 64
4, 18716, Note_off_c, 2, 72, 64
4, 18720, Note_on_c, 2, 84, 89
4, 18812, Note_off_c, 2, 84, 64
4, 18816, Note_on_c, 2, 76, 86
4, 18816, Note_on_c, 2, 72, 86
4, 18908, Note_off_c, 2, 76, 64
4, 18908, Note_off_c, 2, 72, 64
4, 18912, Note_on_c, 2, 84, 89
4, 19004, Note_off_c, 2, 84, 64
4, 19008, Note_on_c, 2, 76, 86
4, 19008, Note_on_c, 2, 72, 86
4, 19100, Note_off_c, 2, 76, 64
4, 19100, Note_off_c, 2, 72, 64
4, 19104, Note_on_c, 2, 84, 89
4, 19196, Note_off_c, 2, 84, 64
4, 19200, Note_on_c, 2, 76, 86
4, 19200, Note_on_c, 2, 72, 86
4, 19292, Note_off_c, 2, 76, 64
4, 19292, Note_off_c, 2, 72, 64
4, 19296, Note_on_c, 2, 84, 89
4, 19388, Note_off_c, 2, 84, 64
4, 19392, Note_on_c, 2, 76, 86
4, 19392, Note_on_c, 2, 72, 86
4, 19484, Note_off_c, 2, 76, 64
4, 19484, Note_off_c, 2, 72, 64
4, 19488, Note_on_c, 2, 84, 89
4, 19580, Note_off_c, 2, 84, 64
4, 19584, Note_on_c, 2, 76, 86
4, 19584, Note_on_c, 2, 72, 86
4, 19676, Note_off_c, 2, 76, 64
4, 19676, Note_off_c, 2, 72, 64
4, 19680, Note_on_c, 2, 84, 89
4, 19772, Note_off_c, 2, 84, 64
4, 19776, Note_on_c, 2, 76, 86
4, 19776, Note_on_c, 2, 72, 86
4, 19868, Note_off_c, 2, 76, 64
4, 19868, Note_off_c, 2, 72, 64
4, 19872, Note_on_c, 2, 84, 89
4, 19964, Note_off_c, 2, 84, 64
4, 19968, Note_on_c, 2, 74, 86
4, 19968, Note_on_c, 2, 72, 86
4, 20060, Note_off_c, 2, 74, 64
4, 20060, Note_off_c, 2, 72, 64
4, 20064, Note_on_c, 2, 84, 89
4, 20156, Note_off_c, 2, 84, 64
4, 20160, Note_on_c, 2, 74, 86
4, 20160, Note_on_c, 2, 72, 86
4, 20252, Note_off_c, 2, 74, 64
4, 20252, Note_off_c, 2, 72, 64
4, 20256, Note_on_c, 2, 84, 89
4, 20348, Note_off_c, 2, 84, 64
4, 20352, Note_on_c, 2, 74, 86
4, 20352, Note_on_c, 2, 69, 86
4, 20444, Note_off_c, 2, 74, 64
4, 20444, Note_off_c, 2, 69, 64
4, 20448, Note_on_c, 2, 81, 88
4, 20540, Note_off_c, 2, 81, 64
4, 20544, Note_on_c, 2, 74, 86
4, 20544, Note_on_c, 2, 69, 86
4, 20636, Note_off_c, 2, 74, 64
4, 20636, Note_off_c, 2, 69, 64
4, 20640, Note_on_c, 2, 81, 88
4, 20732, Note_off_c, 2, 81, 64
4, 20736, Note_on_c, 2, 74, 86
4, 20736, Note_on_c, 2, 71, 86
4, 20828, Note_off_c, 2, 74, 64
4, 20828, Note_off_c, 2, 71, 64
4, 20832, Note_on_c, 2, 83, 88
4, 20924, Note_off_c, 2, 83, 64
4, 20928, Note_on_c, 2, 74, 86
4, 20928, Note_on_c, 2, 71, 86
4, 21020, Note_off_c, 2, 74, 64
4, 21020, Note_off_c, 2, 71, 64
4, 21024, Note_on_c, 2, 83, 88
4, 21116, Note_off_c, 2, 83, 64
4, 21120, Note_on_c, 2, 76, 86
4, 21120, Note_on_c, 2, 73, 86
4, 21212, Note_off_c, 2, 76, 64
4, 21212, Note_off_c, 2, 73, 64
4, 21216, Note_on_c, 2, 85, 89
4, 21308, Note_off_c, 2, 85, 64
4, 21312, Note_on_c, 2, 76, 86
4, 21312, Note_on_c, 2, 73, 86
4, 21404, Note_off_c, 2, 76, 64
4, 21404, Note_off_c, 2, 73, 64
4, 21408, Note_on_c, 2, 85, 89
4, 21500, Note_off_c, 2, 85, 64
4, 21504, Note_on_c, 2, 77, 86
4, 21504, Note_on_c, 2, 74, 86
4, 21596, Note_off_c, 2, 77, 64
4, 21596, Note_off_c, 2, 74, 64
4, 21600, Note_on_c, 2, 86, 90
4, 21692, Note_off_c, 2, 86, 64
4, 21696, Note_on_c, 2, 77, 86
4, 21696, Note_on_c, 2, 74, 86
4, 21788, Note_off_c, 2, 77, 64
4, 21788, Note_off_c, 2, 74, 64
4, 21792, Note_on_c, 2, 86, 90
4, 21884, Note_off_c, 2, 86, 64
4, 21888, Note_on_c, 2, 77, 86
4, 21888, Note_on_c, 2, 74, 86
4, 21980, Note_off_c, 2, 77, 64
4, 21980, Note_off_c, 2, 74, 64
4, 21984, Note_on_c, 2, 86, 90
4, 22076, Note_off_c, 2, 86, 64
4, 22080, Note_on_c, 2, 77, 86
4, 22080, Note_on_c, 2, 74, 86
4, 22172, Note_off_c, 2, 77, 64
4, 22172, Note_off_c, 2, 74, 64
4, 22176, Note_on_c, 2, 86, 90
4, 22268, Note_off_c, 2, 86, 64
4, 22272, Note_on_c, 2, 77, 86
4, 22272, Note_on_c, 2, 74, 86
4, 22364, Note_off_c, 2, 77, 64
4, 22364, Note_off_c, 2, 74, 64
4, 22368, Note_on_c, 2, 86, 90
4, 22460, Note_off_c, 2, 86, 64
4, 22464, Note_on_c, 2, 77, 86
4, 22464, Note_on_c, 2, 74, 86
4, 22556, Note_off_c, 2, 77, 64
4, 22556, Note_off_c, 2, 74, 64
4, 22560, Note_on_c, 2, 86, 90
4, 22652, Note_off_c, 2, 86, 64
4, 22656, Note_on_c, 2, 77, 86
4, 22656, Note_on_c, 2, 74, 86
4, 22748, Note_off_c, 2, 77, 64
4, 22748, Note_off_c, 2, 74, 64
4, 22752, Note_on_c, 2, 86, 90
4, 22844, Note_off_c, 2, 86, 64
4, 22848, Note_on_c, 2, 77, 86
4, 22848, Note_on_c, 2, 74, 86
4, 22940, Note_off_c, 2, 77, 64
4, 22940, Note_off_c, 2, 74, 64
4, 22944, Note_on_c, 2, 86, 86
4, 23036, Note_off_c, 2, 86, 64
4, 23040, Note_on_c, 2, 76, 86
4, 23040, Note_on_c, 2, 74, 86
4, 23132, Note_off_c, 2, 76, 64
4, 23132, Note_off_c, 2, 74, 64
4, 23136, Note_on_c, 2, 86, 90
4, 23228, Note_off_c, 2, 86, 64
4, 23232, Note_on_c, 2, 76, 86
4, 23232, Note_on_c, 2, 74, 86
4, 23324, Note_off_c, 2, 76, 64
4, 23324, Note_off_c, 2, 74, 64
4, 23328, Note_on_c, 2, 86, 90
4, 23420, Note_off_c, 2, 86, 64
4, 23424, Note_on_c, 2, 76, 86
4, 23424, Note_on_c, 2, 71, 86
4, 23516, Note_off_c, 2, 76, 64
4, 23516, Note_off_c, 2, 71, 64
4, 23520, Note_on_c, 2, 83, 88
4, 23612, Note_off_c, 2, 83, 64
4, 23616, Note_on_c, 2, 76, 86
4, 23616, Note_on_c, 2, 71, 86
4, 23708, Note_off_c, 2, 76, 64
4, 23708, Note_off_c, 2, 71, 64
4, 23712, Note_on_c, 2, 83, 88
4, 23804, Note_off_c, 2, 83, 64
4, 23808, Note_on_c, 2, 79, 86
4, 23808, Note_on_c, 2, 72, 86
4, 23900, Note_off_c, 2, 79, 64
4, 23900, Note_off_c, 2, 72, 64
4, 23904, Note_on_c, 2, 84, 89
4, 23996, Note_off_c, 2, 84, 64
4, 24000, Note_on_c, 2, 79, 86
4, 24000, Note_on_c, 2, 72, 86
4, 24092, Note_off_c, 2, 79, 64
4, 24092, Note_off_c, 2, 72, 64
4, 24096, Note_on_c, 2, 84, 89
4, 24188, Note_off_c, 2, 84, 64
4, 24192, Note_on_c, 2, 83, 86
4, 24192, Note_on_c, 2, 79, 86
4, 24192, Note_on_c, 2, 74, 86
4, 24284, Note_off_c, 2, 83, 64
4, 24284, Note_off_c, 2, 79, 64
4, 24284, Note_off_c, 2, 74, 64
4, 24288, Note_on_c, 2, 86, 90
4, 24380, Note_off_c, 2, 86, 64
4, 24384, Note_on_c, 2, 83, 86
4, 24384, Note_on_c, 2, 79, 86
4, 24384, Note_on_c, 2, 74, 86
4, 24476, Note_off_c, 2, 83, 64
4, 24476, Note_off_c, 2, 79, 64
4, 24476, Note_off_c, 2, 74, 64
4, 24480, Note_on_c, 2, 86, 90
4, 24572, Note_off_c, 2, 86, 64
4, 24576, Note_on_c, 2, 84, 89
4, 24576, Note_on_c, 2, 76, 86
4, 24668, Note_off_c, 2, 84, 64
4, 24668, Note_off_c, 2, 76, 64
4, 24672, Note_on_c, 2, 88, 90
4, 24764, Note_off_c, 2, 88, 64
4, 24768, Note_on_c, 2, 84, 89
4, 24768, Note_on_c, 2, 76, 86
4, 24860, Note_off_c, 2, 84, 64
4, 24860, Note_off_c, 2, 76, 64
4, 24864, Note_on_c, 2, 88, 90
4, 24956, Note_off_c, 2, 88, 64
4, 24960, Note_on_c, 2, 84, 89
4, 24960, Note_on_c, 2, 76, 86
4, 25052, Note_off_c, 2, 84, 64
4, 25052, Note_off_c, 2, 76, 64
4, 25056, Note_on_c, 2, 88, 90
4, 25148, Note_off_c, 2, 88, 64
4, 25152, Note_on_c, 2, 84, 89
4, 25152, Note_on_c, 2, 76, 86
4, 25244, Note_off_c, 2, 84, 64
4, 25244, Note_off_c, 2, 76, 64
4, 25248, Note_on_c, 2, 88, 90
4, 25340, Note_off_c, 2, 88, 64
4, 25344, Note_on_c, 2, 84, 89
4, 25344, Note_on_c, 2, 76, 86
4, 25436, Note_off_c, 2, 84, 64
4, 25436, Note_off_c, 2, 76, 64
4, 25440, Note_on_c, 2, 88, 90
4, 25532, Note_off_c, 2, 88, 64
4, 25536, Note_on_c, 2, 84, 89
4, 25536, Note_on_c, 2, 76, 86
4, 25628, Note_off_c, 2, 84, 64
4, 25628, Note_off_c, 2, 76, 64
4, 25632, Note_on_c, 2, 88, 90
4, 25724, Note_off_c, 2, 88, 64
4, 25728, Note_on_c, 2, 84, 89
4, 25728, Note_on_c, 2, 76, 86
4, 25820, Note_off_c, 2, 84, 64
4, 25820, Note_off_c, 2, 76, 64
4, 25824, Note_on_c, 2, 88, 90
4, 25916, Note_off_c, 2, 88, 64
4, 25920, Note_on_c, 2, 84, 89
4, 25920, Note_on_c, 2, 76, 86
4, 26012, Note_off_c, 2, 84, 64
4, 26012, Note_off_c, 2, 76, 64
4, 26016, Note_on_c, 2, 88, 90
4, 26108, Note_off_c, 2, 88, 64
4, 26112, Note_on_c, 2, 83, 88
4, 26112, Note_on_c, 2, 76, 86
4, 26204, Note_off_c, 2, 83, 64
4, 26204, Note_off_c, 2, 76, 64
4, 26208, Note_on_c, 2, 88, 91
4, 26300, Note_off_c, 2, 88, 64
4, 26304, Note_on_c, 2, 83, 88
4, 26304, Note_on_c, 2, 76, 86
4, 26396, Note_off_c, 2, 83, 64
4, 26396, Note_off_c, 2, 76, 64
4, 26400, Note_on_c, 2, 88, 91
4, 26492, Note_off_c, 2, 88, 64
4, 26496, Note_on_c, 2, 83, 88
4, 26496, Note_on_c, 2, 76, 86
4, 26588, Note_off_c, 2, 83, 64
4, 26588, Note_off_c, 2, 76, 64
4, 26592, Note_on_c, 2, 87, 90
4, 26684, Note_off_c, 2, 87, 64
4, 26688, Note_on_c, 2, 83, 88
4, 26688, Note_on_c, 2, 76, 86
4, 26780, Note_off_c, 2, 83, 64
4, 26780, Note_off_c, 2, 76, 64
4, 26784, Note_on_c, 2, 87, 90
4, 26876, Note_off_c, 2, 87, 64
4, 26880, Note_on_c, 2, 80, 88
4, 26880, Note_on_c, 2, 76, 86
4, 26972, Note_off_c, 2, 80, 64
4, 26972, Note_off_c, 2, 76, 64
4, 26976, Note_on_c, 2, 88, 91
4, 27068, Note_off_c, 2, 88, 64
4, 27072, Note_on_c, 2, 80, 88
4, 27072, Note_on_c, 2, 76, 86
4, 27164, Note_off_c, 2, 80, 64
4, 27164, Note_off_c, 2, 76, 64
4, 27168, Note_on_c, 2, 88, 91
4, 27260, Note_off_c, 2, 88, 64
4, 27264, Note_on_c, 2, 83, 88
4, 27264, Note_on_c, 2, 76, 86
4, 27264, Note_on_c, 2, 74, 86
4, 27356, Note_off_c, 2, 83, 64
4, 27356, Note_off_c, 2, 76, 64
4, 27356, Note_off_c, 2, 74, 64
4, 27360, Note_on_c, 2, 86, 90
4, 27452, Note_off_c, 2, 86, 64
4, 27456, Note_on_c, 2, 83, 88
4, 27456, Note_on_c, 2, 76, 86
4, 27456, Note_on_c, 2, 74, 86
4, 27548, Note_off_c, 2, 83, 64
4, 27548, Note_off_c, 2, 76, 64
4, 27548, Note_off_c, 2, 74, 64
4, 27552, Note_on_c, 2, 86, 90
4, 27644, Note_off_c, 2, 86, 64
4, 27648, Note_on_c, 2, 76, 86
4, 27648, Note_on_c, 2, 72, 86
4, 27740, Note_off_c, 2, 76, 64
4, 27740, Note_off_c, 2, 72, 64
4, 27744, Note_on_c, 2, 84, 89
4, 27836, Note_off_c, 2, 84, 64
4, 27840, Note_on_c, 2, 76, 86
4, 27840, Note_on_c, 2, 72, 86
4, 27932, Note_off_c, 2, 76, 64
4, 27932, Note_off_c, 2, 72, 64
4, 27936, Note_on_c, 2, 84, 89
4, 28028, Note_off_c, 2, 84, 64
4, 28032, Note_on_c, 2, 81, 88
4, 28032, Note_on_c, 2, 72, 86
4, 28124, Note_off_c, 2, 81, 64
4, 28124, Note_off_c, 2, 72, 64
4, 28128, Note_on_c, 2, 84, 89
4, 28220, Note_off_c, 2, 84, 64
4, 28224, Note_on_c, 2, 81, 88
4, 28224, Note_on_c, 2, 72, 86
4, 28316, Note_off_c, 2, 81, 64
4, 28316, Note_off_c, 2, 72, 64
4, 28320, Note_on_c, 2, 84, 89
4, 28412, Note_off_c, 2, 84, 64
4, 28416, Note_on_c, 2, 81, 88
4, 28416, Note_on_c, 2, 75, 86
4, 28508, Note_off_c, 2, 81, 64
4, 28508, Note_off_c, 2, 75, 64
4, 28512, Note_on_c, 2, 87, 91
4, 28604, Note_off_c, 2, 87, 64
4, 28608, Note_on_c, 2, 81, 88
4, 28608, Note_on_c, 2, 75, 86
4, 28700, Note_off_c, 2, 81, 64
4, 28700, Note_off_c, 2, 75, 64
4, 28704, Note_on_c, 2, 87, 91
4, 28796, Note_off_c, 2, 87, 64
4, 28800, Note_on_c, 2, 84, 89
4, 28800, Note_on_c, 2, 75, 86
4, 28892, Note_off_c, 2, 84, 64
4, 28892, Note_off_c, 2, 75, 64
4, 28896, Note_on_c, 2, 87, 91
4, 28988, Note_off_c, 2, 87, 64
4, 28992, Note_on_c, 2, 84, 89
4, 28992, Note_on_c, 2, 75, 86
4, 29084, Note_off_c, 2, 84, 64
4, 29084, Note_off_c, 2, 75, 64
4, 29088, Note_on_c, 2, 87, 91
4, 29180, Note_off_c, 2, 87, 64
4, 29184, Note_on_c, 2, 81, 88
4, 29184, Note_on_c, 2, 74, 86
4, 29276, Note_off_c, 2, 81, 64
4, 29276, Note_off_c, 2, 74, 64
4, 29280, Note_on_c, 2, 87, 91
4, 29372, Note_off_c, 2, 87, 64
4, 29376, Note_on_c, 2, 81, 88
4, 29376, Note_on_c, 2, 74, 86
4, 29468, Note_off_c, 2, 81, 64
4, 29468, Note_off_c, 2, 74, 64
4, 29472, Note_on_c, 2, 87, 91
4, 29564, Note_off_c, 2, 87, 64
4, 29568, Note_on_c, 2, 81, 88
4, 29568, Note_on_c, 2, 74, 86
4, 29660, Note_off_c, 2, 81, 64
4, 29660, Note_off_c, 2, 74, 64
4, 29664, Note_on_c, 2, 85, 89
4, 29756, Note_off_c, 2, 85, 64
4, 29760, Note_on_c, 2, 81, 88
4, 29760, Note_on_c, 2, 74, 86
4, 29852, Note_off_c, 2, 81, 64
4, 29852, Note_off_c, 2, 74, 64
4, 29856, Note_on_c, 2, 85, 89
4, 29948, Note_off_c, 2, 85, 64
4, 29952, Note_on_c, 2, 78, 86
4, 29952, Note_on_c, 2, 74, 86
4, 30044, Note_off_c, 2, 78, 64
4, 30044, Note_off_c, 2, 74, 64
4, 30048, Note_on_c, 2, 86, 90
4, 30140, Note_off_c, 2, 86, 64
4, 30144, Note_on_c, 2, 78, 86
4, 30144, Note_on_c, 2, 74, 86
4, 30236, Note_off_c, 2, 78, 64
4, 30236, Note_off_c, 2, 74, 64
4, 30240, Note_on_c, 2, 86, 90
4, 30332, Note_off_c, 2, 86, 64
4, 30336, Note_on_c, 2, 81, 88
4, 30336, Note_on_c, 2, 74, 86
4, 30336, Note_on_c, 2, 72, 86
4, 30428, Note_off_c, 2, 81, 64
4, 30428, Note_off_c, 2, 74, 64
4, 30428, Note_off_c, 2, 72, 64
4, 30432, Note_on_c, 2, 84, 89
4, 30524, Note_off_c, 2, 84, 64
4, 30528, Note_on_c, 2, 81, 88
4, 30528, Note_on_c, 2, 74, 86
4, 30528, Note_on_c, 2, 72, 86
4, 30620, Note_off_c, 2, 81, 64
4, 30620, Note_off_c, 2, 74, 64
4, 30620, Note_off_c, 2, 72, 64
4, 30624, Note_on_c, 2, 84, 89
4, 30716, Note_off_c, 2, 84, 64
4, 30720, Note_on_c, 2, 83, 88
4, 30720, Note_on_c, 2, 79, 87
4, 30720, Note_on_c, 2, 71, 86
4, 31292, Note_off_c, 2, 83, 64
4, 31292, Note_off_c, 2, 71, 64
4, 31296, Note_on_c, 2, 84, 89
4, 31296, Note_on_c, 2, 81, 88
4, 31352, Note_off_c, 2, 81, 64
4, 31356, Note_off_c, 2, 84, 64
4, 31360, Note_on_c, 2, 83, 88
4, 31360, Note_on_c, 2, 79, 87
4, 31416, Note_off_c, 2, 83, 64
4, 31420, Note_off_c, 2, 79, 64
4, 31424, Note_on_c, 2, 81, 88
4, 31424, Note_on_c, 2, 78, 87
4, 31484, Note_off_c, 2, 81, 64
4, 31484, Note_off_c, 2, 78, 64
4, 31676, Note_off_c, 2, 79, 64
4, 31680, Note_on_c, 2, 79, 87
4, 31772, Note_off_c, 2, 79, 64
4, 31872, Note_on_c, 2, 81, 88
4, 31872, Note_on_c, 2, 78, 87
4, 31964, Note_off_c, 2, 81, 64
4, 31964, Note_off_c, 2, 78, 64
4, 32064, Note_on_c, 2, 83, 88
4, 32064, Note_on_c, 2, 79, 87
4, 32156, Note_off_c, 2, 83, 64
4, 32156, Note_off_c, 2, 79, 64
4, 32256, Note_on_c, 2, 84, 90
4, 32256, Note_on_c, 2, 81, 88
4, 32828, Note_off_c, 2, 84, 64
4, 32828, Note_off_c, 2, 81, 64
4, 32832, Note_on_c, 2, 83, 90
4, 32832, Note_on_c, 2, 86, 88
4, 32888, Note_off_c, 2, 83, 64
4, 32888, Note_off_c, 2, 86, 64
4, 32896, Note_on_c, 2, 84, 89
4, 32896, Note_on_c, 2, 81, 88
4, 32952, Note_off_c, 2, 84, 64
4, 32952, Note_off_c, 2, 81, 64
4, 32960, Note_on_c, 2, 83, 88
4, 32960, Note_on_c, 2, 79, 87
4, 33016, Note_off_c, 2, 83, 64
4, 33016, Note_off_c, 2, 79, 64
4, 33024, Note_on_c, 2, 81, 88
4, 33024, Note_on_c, 2, 78, 87
4, 33148, Note_off_c, 2, 81, 64
4, 33148, Note_off_c, 2, 78, 64
4, 33216, Note_on_c, 2, 81, 88
4, 33216, Note_on_c, 2, 78, 87
4, 33308, Note_off_c, 2, 81, 64
4, 33308, Note_off_c, 2, 78, 64
4, 33408, Note_on_c, 2, 83, 88
4, 33408, Note_on_c, 2, 79, 87
4, 33500, Note_off_c, 2, 83, 64
4, 33500, Note_off_c, 2, 79, 64
4, 33600, Note_on_c, 2, 84, 98
4, 33600, Note_on_c, 2, 81, 97
4, 33688, Note_off_c, 2, 84, 64
4, 33688, Note_off_c, 2, 81, 64
4, 33792, Note_on_c, 2, 83, 90
4, 33792, Note_on_c, 2, 86, 88
4, 34364, Note_off_c, 2, 83, 64
4, 34364, Note_off_c, 2, 86, 64
4, 34368, Note_on_c, 2, 88, 91
4, 34368, Note_on_c, 2, 84, 89
4, 34424, Note_off_c, 2, 88, 64
4, 34424, Note_off_c, 2, 84, 64
4, 34432, Note_on_c, 2, 86, 90
4, 34432, Note_on_c, 2, 83, 88
4, 34488, Note_off_c, 2, 86, 64
4, 34488, Note_off_c, 2, 83, 64
4, 34496, Note_on_c, 2, 84, 89
4, 34496, Note_on_c, 2, 81, 88
4, 34552, Note_off_c, 2, 84, 64
4, 34552, Note_off_c, 2, 81, 64
4, 34560, Note_on_c, 2, 83, 88
4, 34560, Note_on_c, 2, 79, 87
4, 34748, Note_off_c, 2, 83, 64
4, 34748, Note_off_c, 2, 79, 64
4, 34752, Note_on_c, 2, 83, 88
4, 34752, Note_on_c, 2, 79, 87
4, 34844, Note_off_c, 2, 83, 64
4, 34844, Note_off_c, 2, 79, 64
4, 34944, Note_on_c, 2, 84, 89
4, 34944, Note_on_c, 2, 81, 88
4, 35036, Note_off_c, 2, 84, 64
4, 35036, Note_off_c, 2, 81, 64
4, 35136, Note_on_c, 2, 86, 99
4, 35136, Note_on_c, 2, 83, 97
4, 35224, Note_off_c, 2, 86, 64
4, 35224, Note_off_c, 2, 83, 64
4, 35328, Note_on_c, 2, 88, 91
4, 35328, Note_on_c, 2, 84, 89
4, 35900, Note_off_c, 2, 88, 64
4, 35900, Note_off_c, 2, 84, 64
4, 35904, Note_on_c, 2, 89, 92
4, 35904, Note_on_c, 2, 86, 90
4, 35960, Note_off_c, 2, 89, 64
4, 35960, Note_off_c, 2, 86, 64
4, 35968, Note_on_c, 2, 88, 91
4, 35968, Note_on_c, 2, 84, 89
4, 36024, Note_off_c, 2, 88, 64
4, 36024, Note_off_c, 2, 84, 64
4, 36032, Note_on_c, 2, 86, 90
4, 36032, Note_on_c, 2, 83, 88
4, 36088, Note_off_c, 2, 86, 64
4, 36088, Note_off_c, 2, 83, 64
4, 36096, Note_on_c, 2, 84, 89
4, 36284, Note_off_c, 2, 84, 64
4, 36288, Note_on_c, 2, 84, 89
4, 36380, Note_off_c, 2, 84, 64
4, 36480, Note_on_c, 2, 86, 90
4, 36480, Note_on_c, 2, 83, 88
4, 36572, Note_off_c, 2, 86, 64
4, 36572, Note_off_c, 2, 83, 64
4, 36672, Note_on_c, 2, 88, 97
4, 36672, Note_on_c, 2, 84, 94
4, 36764, Note_off_c, 2, 88, 64
4, 36764, Note_off_c, 2, 84, 64
4, 36864, Note_on_c, 2, 89, 92
4, 36864, Note_on_c, 2, 86, 90
4, 36864, Note_on_c, 2, 77, 87
4, 37436, Note_off_c, 2, 89, 64
4, 37436, Note_off_c, 2, 86, 64
4, 37436, Note_off_c, 2, 77, 64
4, 37440, Note_on_c, 2, 88, 91
4, 37440, Note_on_c, 2, 85, 89
4, 37440, Note_on_c, 2, 76, 86
4, 37628, Note_off_c, 2, 88, 64
4, 37628, Note_off_c, 2, 85, 64
4, 37628, Note_off_c, 2, 76, 64
4, 37632, Note_on_c, 2, 89, 92
4, 37632, Note_on_c, 2, 86, 90
4, 37632, Note_on_c, 2, 77, 87
4, 38204, Note_off_c, 2, 89, 64
4, 38204, Note_off_c, 2, 86, 64
4, 38204, Note_off_c, 2, 77, 64
4, 38208, Note_on_c, 2, 88, 91
4, 38208, Note_on_c, 2, 85, 90
4, 38208, Note_on_c, 2, 76, 86
4, 38396, Note_off_c, 2, 88, 64
4, 38396, Note_off_c, 2, 85, 64
4, 38396, Note_off_c, 2, 76, 64
4, 38400, Note_on_c, 2, 77, 87
4, 38400, Note_on_c, 2, 86, 90
4, 38400, Note_on_c, 2, 89, 92
4, 38588, Note_off_c, 2, 77, 64
4, 38588, Note_off_c, 2, 86, 64
4, 38588, Note_off_c, 2, 89, 64
4, 38592, Note_on_c, 2, 88, 91
4, 38592, Note_on_c, 2, 85, 89
4, 38592, Note_on_c, 2, 76, 86
4, 38780, Note_off_c, 2, 88, 64
4, 38780, Note_off_c, 2, 85, 64
4, 38780, Note_off_c, 2, 76, 64
4, 38784, Note_on_c, 2, 89, 92
4, 38784, Note_on_c, 2, 86, 90
4, 38784, Note_on_c, 2, 77, 87
4, 38972, Note_off_c, 2, 89, 64
4, 38972, Note_off_c, 2, 86, 64
4, 38972, Note_off_c, 2, 77, 64
4, 38976, Note_on_c, 2, 88, 91
4, 38976, Note_on_c, 2, 85, 89
4, 38976, Note_on_c, 2, 76, 86
4, 39164, Note_off_c, 2, 88, 64
4, 39164, Note_off_c, 2, 85, 64
4, 39164, Note_off_c, 2, 76, 64
4, 39168, Note_on_c, 2, 89, 92
4, 39168, Note_on_c, 2, 86, 90
4, 39168, Note_on_c, 2, 77, 87
4, 39356, Note_off_c, 2, 89, 64
4, 39356, Note_off_c, 2, 86, 64
4, 39356, Note_off_c, 2, 77, 64
4, 39360, Note_on_c, 2, 88, 91
4, 39360, Note_on_c, 2, 76, 86
4, 39360, Note_on_c, 2, 85, 89
4, 39548, Note_off_c, 2, 88, 64
4, 39548, Note_off_c, 2, 76, 64
4, 39548, Note_off_c, 2, 85, 64
4, 39552, Note_on_c, 2, 89, 92
4, 39552, Note_on_c, 2, 77, 87
4, 39552, Note_on_c, 2, 86, 90
4, 39740, Note_off_c, 2, 89, 64
4, 39740, Note_off_c, 2, 77, 64
4, 39740, Note_off_c, 2, 86, 64
4, 39744, Note_on_c, 2, 88, 91
4, 39744, Note_on_c, 2, 85, 90
4, 39744, Note_on_c, 2, 76, 86
4, 39932, Note_off_c, 2, 88, 64
4, 39932, Note_off_c, 2, 85, 64
4, 39932, Note_off_c, 2, 76, 64
4, 39936, Note_on_c, 2, 89, 91
4, 39936, Note_on_c, 2, 86, 89
4, 39936, Note_on_c, 2, 77, 87
4, 40028, Note_off_c, 2, 89, 64
4, 40028, Note_off_c, 2, 86, 64
4, 40028, Note_off_c, 2, 77, 64
4, 40128, Note_on_c, 2, 88, 91
4, 40128, Note_on_c, 2, 84, 89
4, 40220, Note_off_c, 2, 88, 64
4, 40220, Note_off_c, 2, 84, 64
4, 40320, Note_on_c, 2, 86, 71
4, 40320, Note_on_c, 2, 83, 69
4, 40412, Note_off_c, 2, 86, 64
4, 40412, Note_off_c, 2, 83, 64
4, 40512, Note_on_c, 2, 84, 70
4, 40512, Note_on_c, 2, 81, 67
4, 40604, Note_off_c, 2, 84, 64
4, 40604, Note_off_c, 2, 81, 64
4, 40704, Note_on_c, 2, 83, 69
4, 40704, Note_on_c, 2, 79, 66
4, 40796, Note_off_c, 2, 83, 64
4, 40796, Note_off_c, 2, 79, 64
4, 40896, Note_on_c, 2, 81, 67
4, 40896, Note_on_c, 2, 77, 65
4, 40988, Note_off_c, 2, 81, 64
4, 40988, Note_off_c, 2, 77, 64
4, 41088, Note_on_c, 2, 79, 66
4, 41088, Note_on_c, 2, 76, 65
4, 41180, Note_off_c, 2, 79, 64
4, 41180, Note_off_c, 2, 76, 64
4, 41280, Note_on_c, 2, 78, 65
4, 41280, Note_on_c, 2, 75, 65
4, 41372, Note_off_c, 2, 78, 64
4, 41372, Note_off_c, 2, 75, 64
4, 41472, Note_on_c, 2, 89, 73
4, 41472, Note_on_c, 2, 86, 71
4, 41472, Note_on_c, 2, 77, 65
4, 41564, Note_off_c, 2, 89, 64
4, 41564, Note_off_c, 2, 86, 64
4, 41564, Note_off_c, 2, 77, 64
4, 41664, Note_on_c, 2, 88, 72
4, 41664, Note_on_c, 2, 84, 70
4, 41664, Note_on_c, 2, 76, 65
4, 41756, Note_off_c, 2, 88, 64
4, 41756, Note_off_c, 2, 84, 64
4, 41756, Note_off_c, 2, 76, 64
4, 41856, Note_on_c, 2, 86, 71
4, 41856, Note_on_c, 2, 83, 69
4, 41856, Note_on_c, 2, 74, 65
4, 41948, Note_off_c, 2, 86, 64
4, 41948, Note_off_c, 2, 83, 64
4, 41948, Note_off_c, 2, 74, 64
4, 42048, Note_on_c, 2, 84, 70
4, 42048, Note_on_c, 2, 81, 67
4, 42048, Note_on_c, 2, 72, 65
4, 42140, Note_off_c, 2, 84, 64
4, 42140, Note_off_c, 2, 81, 64
4, 42140, Note_off_c, 2, 72, 64
4, 42240, Note_on_c, 2, 83, 69
4, 42240, Note_on_c, 2, 79, 66
4, 42240, Note_on_c, 2, 71, 65
4, 42332, Note_off_c, 2, 83, 64
4, 42332, Note_off_c, 2, 79, 64
4, 42332, Note_off_c, 2, 71, 64
4, 42432, Note_on_c, 2, 81, 67
4, 42432, Note_on_c, 2, 77, 65
4, 42432, Note_on_c, 2, 69, 65
4, 42524, Note_off_c, 2, 81, 64
4, 42524, Note_off_c, 2, 77, 64
4, 42524, Note_off_c, 2, 69, 64
4, 42624, Note_on_c, 2, 79, 66
4, 42624, Note_on_c, 2, 76, 65
4, 42624, Note_on_c, 2, 67, 65
4, 42716, Note_off_c, 2, 79, 64
4, 42716, Note_off_c, 2, 76, 64
4, 42716, Note_off_c, 2, 67, 64
4, 42816, Note_on_c, 2, 77, 76
4, 42816, Note_on_c, 2, 74, 76
4, 42816, Note_on_c, 2, 65, 76
4, 42904, Note_off_c, 2, 77, 64
4, 42904, Note_off_c, 2, 74, 64
4, 42904, Note_off_c, 2, 65, 64
4, 43008, Note_on_c, 2, 76, 65
4, 43008, Note_on_c, 2, 72, 65
4, 43008, Note_on_c, 2, 67, 65
4, 43008, Note_on_c, 2, 64, 65
4, 43388, Note_off_c, 2, 76, 64
4, 43388, Note_off_c, 2, 72, 64
4, 43772, Note_off_c, 2, 67, 64
4, 43776, Note_on_c, 2, 64, 65
4, 43776, Note_on_c, 2, 60, 65
4, 44156, Note_off_c, 2, 64, 64
4, 44156, Note_off_c, 2, 64, 64
4, 44156, Note_off_c, 2, 60, 64
4, 44544, Note_on_c, 2, 84, 70
4, 44544, Note_on_c, 2, 76, 65
4, 44688, Note_on_c, 2, 77, 76
4, 44688, Note_on_c, 2, 86, 78
4, 44728, Note_off_c, 2, 84, 64
4, 44728, Note_off_c, 2, 76, 64
4, 44728, Note_off_c, 2, 77, 64
4, 44728, Note_off_c, 2, 86, 64
4, 44736, Note_on_c, 2, 84, 70
4, 44736, Note_on_c, 2, 76, 65
4, 44828, Note_off_c, 2, 84, 64
4, 44828, Note_off_c, 2, 76, 64
4, 44832, Note_on_c, 2, 83, 69
4, 44832, Note_on_c, 2, 74, 65
4, 44924, Note_off_c, 2, 83, 64
4, 44924, Note_off_c, 2, 74, 64
4, 44928, Note_on_c, 2, 84, 70
4, 44928, Note_on_c, 2, 76, 65
4, 45116, Note_off_c, 2, 84, 64
4, 45116, Note_off_c, 2, 76, 64
4, 45120, Note_on_c, 2, 86, 71
4, 45120, Note_on_c, 2, 77, 66
4, 45212, Note_off_c, 2, 86, 64
4, 45212, Note_off_c, 2, 77, 64
4, 45312, Note_on_c, 2, 88, 72
4, 45312, Note_on_c, 2, 79, 66
4, 45500, Note_off_c, 2, 88, 64
4, 45500, Note_off_c, 2, 79, 64
4, 45888, Note_on_c, 2, 79, 66
4, 46076, Note_off_c, 2, 79, 64
4, 46080, Note_on_c, 2, 79, 66
4, 46268, Note_off_c, 2, 79, 64
4, 46272, Note_on_c, 2, 89, 73
4, 46460, Note_off_c, 2, 89, 64
4, 46464, Note_on_c, 2, 88, 72
4, 46652, Note_off_c, 2, 88, 64
4, 46656, Note_on_c, 2, 86, 71
4, 46844, Note_off_c, 2, 86, 64
4, 46848, Note_on_c, 2, 84, 70
4, 47036, Note_off_c, 2, 84, 64
4, 47040, Note_on_c, 2, 83, 69
4, 47228, Note_off_c, 2, 83, 64
4, 47232, Note_on_c, 2, 81, 67
4, 47420, Note_off_c, 2, 81, 64
4, 47424, Note_on_c, 2, 79, 66
4, 47612, Note_off_c, 2, 79, 64
4, 47616, Note_on_c, 2, 78, 65
4, 47804, Note_off_c, 2, 78, 64
4, 47808, Note_on_c, 2, 79, 66
4, 47996, Note_off_c, 2, 79, 64
4, 48000, Note_on_c, 2, 81, 67
4, 48188, Note_off_c, 2, 81, 64
4, 48192, Note_on_c, 2, 79, 66
4, 48380, Note_off_c, 2, 79, 64
4, 48384, Note_on_c, 2, 79, 66
4, 48572, Note_off_c, 2, 79, 64
4, 48576, Note_on_c, 2, 78, 66
4, 48764, Note_off_c, 2, 78, 64
4, 48768, Note_on_c, 2, 77, 65
4, 48956, Note_off_c, 2, 77, 64
4, 48960, Note_on_c, 2, 74, 65
4, 49148, Note_off_c, 2, 74, 64
4, 49152, Note_on_c, 2, 72, 65
4, 49152, Note_on_c, 2, 67, 65
4, 49152, Note_on_c, 2, 64, 65
4, 49532, Note_off_c, 2, 72, 64
4, 49916, Note_off_c, 2, 67, 64
4, 49916, Note_off_c, 2, 64, 64
4, 49920, Note_on_c, 2, 64, 65
4, 49920, Note_on_c, 2, 60, 65
4, 50300, Note_off_c, 2, 64, 64
4, 50300, Note_off_c, 2, 60, 64
4, 50688, Note_on_c, 2, 84, 70
4, 50688, Note_on_c, 2, 76, 65
4, 50832, Note_on_c, 2, 77, 75
4, 50832, Note_on_c, 2, 86, 76
4, 50872, Note_off_c, 2, 84, 64
4, 50872, Note_off_c, 2, 76, 64
4, 50872, Note_off_c, 2, 77, 64
4, 50872, Note_off_c, 2, 86, 64
4, 50880, Note_on_c, 2, 84, 70
4, 50880, Note_on_c, 2, 76, 65
4, 50972, Note_off_c, 2, 84, 64
4, 50972, Note_off_c, 2, 76, 64
4, 50976, Note_on_c, 2, 83, 69
4, 50976, Note_on_c, 2, 74, 65
4, 51068, Note_off_c, 2, 83, 64
4, 51068, Note_off_c, 2, 74, 64
4, 51072, Note_on_c, 2, 84, 70
4, 51072, Note_on_c, 2, 76, 65
4, 51260, Note_off_c, 2, 84, 64
4, 51260, Note_off_c, 2, 76, 64
4, 51264, Note_on_c, 2, 86, 71
4, 51264, Note_on_c, 2, 77, 65
4, 51356, Note_off_c, 2, 86, 64
4, 51356, Note_off_c, 2, 77, 64
4, 51456, Note_on_c, 2, 88, 72
4, 51456, Note_on_c, 2, 79, 65
4, 51644, Note_off_c, 2, 88, 64
4, 51644, Note_off_c, 2, 79, 64
4, 52032, Note_on_c, 2, 79, 66
4, 52220, Note_off_c, 2, 79, 64
4, 52224, Note_on_c, 2, 79, 66
4, 52412, Note_off_c, 2, 79, 64
4, 52416, Note_on_c, 2, 89, 73
4, 52604, Note_off_c, 2, 89, 64
4, 52608, Note_on_c, 2, 88, 72
4, 52796, Note_off_c, 2, 88, 64
4, 52800, Note_on_c, 2, 86, 71
4, 52988, Note_off_c, 2, 86, 64
4, 52992, Note_on_c, 2, 84, 70
4, 53180, Note_off_c, 2, 84, 64
4, 53184, Note_on_c, 2, 83, 69
4, 53372, Note_off_c, 2, 83, 64
4, 53376, Note_on_c, 2, 81, 67
4, 53564, Note_off_c, 2, 81, 64
4, 53568, Note_on_c, 2, 79, 66
4, 53756, Note_off_c, 2, 79, 64
4, 53760, Note_on_c, 2, 78, 65
4, 53948, Note_off_c, 2, 78, 64
4, 53952, Note_on_c, 2, 79, 66
4, 54140, Note_off_c, 2, 79, 64
4, 54144, Note_on_c, 2, 81, 67
4, 54332, Note_off_c, 2, 81, 64
4, 54336, Note_on_c, 2, 79, 66
4, 54524, Note_off_c, 2, 79, 64
4, 54528, Note_on_c, 2, 79, 66
4, 54716, Note_off_c, 2, 79, 64
4, 54720, Note_on_c, 2, 78, 66
4, 54908, Note_off_c, 2, 78, 64
4, 54912, Note_on_c, 2, 77, 65
4, 55100, Note_off_c, 2, 77, 64
4, 55104, Note_on_c, 2, 74, 65
4, 55292, Note_off_c, 2, 74, 64
4, 55296, Note_on_c, 2, 72, 65
4, 55484, Note_off_c, 2, 72, 64
4, 55680, Note_on_c, 2, 67, 65
4, 55868, Note_off_c, 2, 67, 64
4, 56064, Note_on_c, 2, 72, 65
4, 56252, Note_off_c, 2, 72, 64
4, 56448, Note_on_c, 2, 76, 65
4, 56636, Note_off_c, 2, 76, 64
4, 56832, Note_on_c, 2, 77, 65
4, 57404, Note_off_c, 2, 77, 64
4, 57408, Note_on_c, 2, 76, 71
4, 57464, Note_off_c, 2, 76, 64
4, 57472, Note_on_c, 2, 74, 70
4, 57528, Note_off_c, 2, 74, 64
4, 57536, Note_on_c, 2, 72, 69
4, 57592, Note_off_c, 2, 72, 64
4, 57600, Note_on_c, 2, 71, 67
4, 57980, Note_off_c, 2, 71, 64
4, 58368, Note_on_c, 2, 79, 66
4, 58368, Note_on_c, 2, 72, 65
4, 58556, Note_off_c, 2, 79, 64
4, 58556, Note_off_c, 2, 72, 64
4, 58560, Note_on_c, 2, 79, 66
4, 58752, Note_on_c, 2, 67, 65
4, 58940, Note_off_c, 2, 79, 64
4, 58940, Note_off_c, 2, 67, 64
4, 58944, Note_on_c, 2, 79, 66
4, 59136, Note_on_c, 2, 72, 65
4, 59324, Note_off_c, 2, 79, 64
4, 59324, Note_off_c, 2, 72, 64
4, 59328, Note_on_c, 2, 79, 66
4, 59520, Note_on_c, 2, 76, 65
4, 59708, Note_off_c, 2, 79, 64
4, 59708, Note_off_c, 2, 76, 64
4, 59712, Note_on_c, 2, 79, 66
4, 59904, Note_on_c, 2, 77, 65
4, 60092, Note_off_c, 2, 79, 64
4, 60096, Note_on_c, 2, 79, 66
4, 60476, Note_off_c, 2, 77, 64
4, 60476, Note_off_c, 2, 79, 64
4, 60480, Note_on_c, 2, 76, 74
4, 60480, Note_on_c, 2, 79, 75
4, 60536, Note_off_c, 2, 76, 64
4, 60544, Note_on_c, 2, 74, 73
4, 60600, Note_off_c, 2, 74, 64
4, 60608, Note_on_c, 2, 72, 72
4, 60664, Note_off_c, 2, 72, 64
4, 60672, Note_on_c, 2, 71, 71
4, 60848, Note_on_c, 2, 79, 66
4, 60860, Note_off_c, 2, 79, 64
4, 61052, Note_off_c, 2, 71, 64
4, 61228, Note_off_c, 2, 79, 64
4, 61248, Note_on_c, 2, 79, 66
4, 61436, Note_off_c, 2, 79, 64
4, 61440, Note_on_c, 2, 67, 86
4, 61440, Note_on_c, 2, 72, 86
4, 61532, Note_off_c, 2, 67, 64
4, 61536, Note_on_c, 2, 79, 87
4, 61628, Note_off_c, 2, 72, 64
4, 61628, Note_off_c, 2, 79, 64
4, 61632, Note_on_c, 2, 67, 86
4, 61724, Note_off_c, 2, 67, 64
4, 61728, Note_on_c, 2, 79, 87
4, 61820, Note_off_c, 2, 79, 64
4, 61824, Note_on_c, 2, 67, 86
4, 61824, Note_on_c, 2, 67, 86
4, 61916, Note_off_c, 2, 67, 64
4, 61920, Note_on_c, 2, 79, 87
4, 62012, Note_off_c, 2, 67, 64
4, 62012, Note_off_c, 2, 79, 64
4, 62016, Note_on_c, 2, 67, 86
4, 62108, Note_off_c, 2, 67, 64
4, 62112, Note_on_c, 2, 79, 87
4, 62204, Note_off_c, 2, 79, 64
4, 62208, Note_on_c, 2, 67, 86
4, 62208, Note_on_c, 2, 72, 86
4, 62300, Note_off_c, 2, 67, 64
4, 62304, Note_on_c, 2, 79, 87
4, 62396, Note_off_c, 2, 72, 64
4, 62396, Note_off_c, 2, 79, 64
4, 62400, Note_on_c, 2, 67, 86
4, 62492, Note_off_c, 2, 67, 64
4, 62496, Note_on_c, 2, 79, 87
4, 62588, Note_off_c, 2, 79, 64
4, 62592, Note_on_c, 2, 67, 86
4, 62592, Note_on_c, 2, 76, 86
4, 62684, Note_off_c, 2, 67, 64
4, 62688, Note_on_c, 2, 79, 87
4, 62780, Note_off_c, 2, 76, 64
4, 62780, Note_off_c, 2, 79, 64
4, 62784, Note_on_c, 2, 67, 86
4, 62876, Note_off_c, 2, 67, 64
4, 62880, Note_on_c, 2, 79, 87
4, 62972, Note_off_c, 2, 79, 64
4, 62976, Note_on_c, 2, 67, 86
4, 62976, Note_on_c, 2, 77, 86
4, 63068, Note_off_c, 2, 67, 64
4, 63072, Note_on_c, 2, 79, 87
4, 63164, Note_off_c, 2, 79, 64
4, 63168, Note_on_c, 2, 67, 86
4, 63260, Note_off_c, 2, 67, 64
4, 63264, Note_on_c, 2, 79, 87
4, 63356, Note_off_c, 2, 79, 64
4, 63360, Note_on_c, 2, 67, 86
4, 63452, Note_off_c, 2, 67, 64
4, 63456, Note_on_c, 2, 79, 87
4, 63548, Note_off_c, 2, 77, 64
4, 63548, Note_off_c, 2, 79, 64
4, 63552, Note_on_c, 2, 76, 93
4, 63608, Note_off_c, 2, 76, 64
4, 63616, Note_on_c, 2, 74, 92
4, 63672, Note_off_c, 2, 74, 64
4, 63680, Note_on_c, 2, 72, 91
4, 63736, Note_off_c, 2, 72, 64
4, 63744, Note_on_c, 2, 71, 86
4, 63840, Note_on_c, 2, 79, 87
4, 63932, Note_off_c, 2, 79, 64
4, 63936, Note_on_c, 2, 67, 86
4, 64028, Note_off_c, 2, 67, 64
4, 64032, Note_on_c, 2, 79, 87
4, 64124, Note_off_c, 2, 71, 64
4, 64124, Note_off_c, 2, 79, 64
4, 64128, Note_on_c, 2, 67, 86
4, 64220, Note_off_c, 2, 67, 64
4, 64224, Note_on_c, 2, 79, 87
4, 64316, Note_off_c, 2, 79, 64
4, 64320, Note_on_c, 2, 67, 86
4, 64412, Note_off_c, 2, 67, 64
4, 64416, Note_on_c, 2, 79, 87
4, 64508, Note_off_c, 2, 79, 64
4, 64512, Note_on_c, 2, 79, 87
4, 64512, Note_on_c, 2, 72, 86
4, 64604, Note_off_c, 2, 79, 64
4, 64604, Note_off_c, 2, 72, 64
4, 64608, Note_on_c, 2, 84, 89
4, 64700, Note_off_c, 2, 84, 64
4, 64704, Note_on_c, 2, 79, 87
4, 64704, Note_on_c, 2, 72, 86
4, 64796, Note_off_c, 2, 79, 64
4, 64796, Note_off_c, 2, 72, 64
4, 64800, Note_on_c, 2, 84, 89
4, 64892, Note_off_c, 2, 84, 64
4, 64896, Note_on_c, 2, 67, 86
4, 64988, Note_off_c, 2, 67, 64
4, 64992, Note_on_c, 2, 79, 87
4, 65084, Note_off_c, 2, 79, 64
4, 65088, Note_on_c, 2, 67, 86
4, 65180, Note_off_c, 2, 67, 64
4, 65184, Note_on_c, 2, 79, 87
4, 65276, Note_off_c, 2, 79, 64
4, 65280, Note_on_c, 2, 79, 87
4, 65280, Note_on_c, 2, 72, 86
4, 65372, Note_off_c, 2, 79, 64
4, 65372, Note_off_c, 2, 72, 64
4, 65376, Note_on_c, 2, 84, 89
4, 65468, Note_off_c, 2, 84, 64
4, 65472, Note_on_c, 2, 79, 87
4, 65472, Note_on_c, 2, 72, 86
4, 65564, Note_off_c, 2, 79, 64
4, 65564, Note_off_c, 2, 72, 64
4, 65568, Note_on_c, 2, 84, 89
4, 65660, Note_off_c, 2, 84, 64
4, 65664, Note_on_c, 2, 79, 86
4, 65664, Note_on_c, 2, 76, 86
4, 65756, Note_off_c, 2, 79, 64
4, 65756, Note_off_c, 2, 76, 64
4, 65760, Note_on_c, 2, 88, 91
4, 65852, Note_off_c, 2, 88, 64
4, 65856, Note_on_c, 2, 79, 87
4, 65856, Note_on_c, 2, 76, 86
4, 65948, Note_off_c, 2, 79, 64
4, 65948, Note_off_c, 2, 76, 64
4, 65952, Note_on_c, 2, 88, 91
4, 66044, Note_off_c, 2, 88, 64
4, 66048, Note_on_c, 2, 79, 87
4, 66048, Note_on_c, 2, 77, 86
4, 66140, Note_off_c, 2, 79, 64
4, 66140, Note_off_c, 2, 77, 64
4, 66144, Note_on_c, 2, 89, 92
4, 66236, Note_off_c, 2, 89, 64
4, 66240, Note_on_c, 2, 79, 87
4, 66240, Note_on_c, 2, 77, 86
4, 66332, Note_off_c, 2, 79, 64
4, 66332, Note_off_c, 2, 77, 64
4, 66336, Note_on_c, 2, 89, 92
4, 66428, Note_off_c, 2, 89, 64
4, 66432, Note_on_c, 2, 79, 87
4, 66432, Note_on_c, 2, 77, 92
4, 66524, Note_off_c, 2, 79, 64
4, 66524, Note_off_c, 2, 77, 64
4, 66528, Note_on_c, 2, 89, 86
4, 66620, Note_off_c, 2, 89, 64
4, 66624, Note_on_c, 2, 88, 97
4, 66680, Note_off_c, 2, 88, 64
4, 66688, Note_on_c, 2, 86, 96
4, 66744, Note_off_c, 2, 86, 64
4, 66752, Note_on_c, 2, 84, 94
4, 66808, Note_off_c, 2, 84, 64
4, 66816, Note_on_c, 2, 83, 93
4, 67004, Note_off_c, 2, 83, 64
4, 67008, Note_on_c, 2, 67, 86
4, 67100, Note_off_c, 2, 67, 64
4, 67104, Note_on_c, 2, 79, 87
4, 67196, Note_off_c, 2, 79, 64
4, 67200, Note_on_c, 2, 67, 86
4, 67292, Note_off_c, 2, 67, 64
4, 67296, Note_on_c, 2, 79, 87
4, 67388, Note_off_c, 2, 79, 64
4, 67392, Note_on_c, 2, 67, 86
4, 67484, Note_off_c, 2, 67, 64
4, 67488, Note_on_c, 2, 79, 87
4, 67580, Note_off_c, 2, 79, 64
4, 67584, Note_on_c, 2, 84, 89
4, 67584, Note_on_c, 2, 79, 87
4, 67584, Note_on_c, 2, 72, 86
4, 68348, Note_off_c, 2, 79, 64
4, 68352, Note_on_c, 2, 80, 86
4, 68540, Note_off_c, 2, 84, 64
4, 68540, Note_off_c, 2, 72, 64
4, 68544, Note_on_c, 2, 85, 90
4, 68544, Note_on_c, 2, 73, 86
4, 68732, Note_off_c, 2, 85, 64
4, 68732, Note_off_c, 2, 73, 64
4, 68736, Note_on_c, 2, 84, 89
4, 68736, Note_on_c, 2, 72, 86
4, 68924, Note_off_c, 2, 84, 64
4, 68924, Note_off_c, 2, 72, 64
4, 68928, Note_on_c, 2, 83, 88
4, 68928, Note_on_c, 2, 71, 86
4, 69116, Note_off_c, 2, 80, 64
4, 69116, Note_off_c, 2, 83, 64
4, 69116, Note_off_c, 2, 71, 64
4, 69120, Note_on_c, 2, 84, 89
4, 69120, Note_on_c, 2, 79, 87
4, 69120, Note_on_c, 2, 72, 86
4, 69884, Note_off_c, 2, 79, 64
4, 69888, Note_on_c, 2, 80, 87
4, 70076, Note_off_c, 2, 84, 64
4, 70076, Note_off_c, 2, 72, 64
4, 70080, Note_on_c, 2, 85, 90
4, 70080, Note_on_c, 2, 73, 86
4, 70268, Note_off_c, 2, 85, 64
4, 70268, Note_off_c, 2, 73, 64
4, 70272, Note_on_c, 2, 84, 89
4, 70272, Note_on_c, 2, 72, 86
4, 70460, Note_off_c, 2, 84, 64
4, 70460, Note_off_c, 2, 72, 64
4, 70464, Note_on_c, 2, 83, 88
4, 70464, Note_on_c, 2, 71, 86
4, 70652, Note_off_c, 2, 80, 64
4, 70652, Note_off_c, 2, 83, 64
4, 70652, Note_off_c, 2, 71, 64
4, 70656, Note_on_c, 2, 84, 89
4, 70656, Note_on_c, 2, 79, 87
4, 70656, Note_on_c, 2, 72, 86
4, 71420, Note_off_c, 2, 79, 64
4, 71424, Note_on_c, 2, 80, 87
4, 71612, Note_off_c, 2, 84, 64
4, 71612, Note_off_c, 2, 72, 64
4, 71616, Note_on_c, 2, 85, 90
4, 71616, Note_on_c, 2, 73, 86
4, 71804, Note_off_c, 2, 85, 64
4, 71804, Note_off_c, 2, 73, 64
4, 71808, Note_on_c, 2, 84, 89
4, 71808, Note_on_c, 2, 72, 86
4, 71996, Note_off_c, 2, 84, 64
4, 71996, Note_off_c, 2, 72, 64
4, 72000, Note_on_c, 2, 83, 88
4, 72000, Note_on_c, 2, 71, 86
4, 72188, Note_off_c, 2, 80, 64
4, 72188, Note_off_c, 2, 83, 64
4, 72188, Note_off_c, 2, 71, 64
4, 72192, Note_on_c, 2, 84, 89
4, 72192, Note_on_c, 2, 72, 86
4, 72192, Note_on_c, 2, 84, 86
4, 72380, Note_off_c, 2, 84, 64
4, 72384, Note_on_c, 2, 79, 87
4, 72572, Note_off_c, 2, 79, 64
4, 72576, Note_on_c, 2, 79, 87
4, 73340, Note_off_c, 2, 79, 64
4, 73344, Note_on_c, 2, 80, 87
4, 73724, Note_off_c, 2, 72, 64
4, 73724, Note_off_c, 2, 84, 64
4, 73724, Note_off_c, 2, 80, 64
4, 73728, Note_on_c, 2, 84, 89
4, 73728, Note_on_c, 2, 80, 87
4, 73728, Note_on_c, 2, 72, 86
4, 73916, Note_off_c, 2, 80, 64
4, 73920, Note_on_c, 2, 81, 88
4, 74108, Note_off_c, 2, 81, 64
4, 74112, Note_on_c, 2, 81, 88
4, 74876, Note_off_c, 2, 84, 64
4, 74876, Note_off_c, 2, 72, 64
4, 74876, Note_off_c, 2, 81, 64
4, 74880, Note_on_c, 2, 83, 88
4, 74880, Note_on_c, 2, 86, 90
4, 75452, Note_off_c, 2, 83, 64
4, 75452, Note_off_c, 2, 86, 64
4, 75456, Note_on_c, 2, 84, 90
4, 75456, Note_on_c, 2, 87, 89
4, 75548, Note_off_c, 2, 84, 64
4, 75548, Note_off_c, 2, 87, 64
4, 75648, Note_on_c, 2, 84, 90
4, 75648, Note_on_c, 2, 87, 89
4, 76412, Note_off_c, 2, 84, 64
4, 76412, Note_off_c, 2, 87, 64
4, 76416, Note_on_c, 2, 90, 92
4, 76416, Note_on_c, 2, 78, 87
4, 76796, Note_off_c, 2, 90, 64
4, 76796, Note_off_c, 2, 78, 64
4, 76800, Note_on_c, 2, 91, 93
4, 76800, Note_on_c, 2, 79, 87
4, 76988, Note_off_c, 2, 79, 64
4, 76992, Note_on_c, 2, 79, 87
4, 77180, Note_off_c, 2, 79, 64
4, 77184, Note_on_c, 2, 79, 87
4, 77564, Note_off_c, 2, 91, 64
4, 77568, Note_on_c, 2, 88, 86
4, 77756, Note_off_c, 2, 79, 64
4, 77760, Note_on_c, 2, 81, 86
4, 77852, Note_off_c, 2, 81, 64
4, 77856, Note_on_c, 2, 79, 86
4, 77948, Note_off_c, 2, 88, 64
4, 77948, Note_off_c, 2, 79, 64
4, 77952, Note_on_c, 2, 84, 86
4, 77952, Note_on_c, 2, 77, 86
4, 78044, Note_off_c, 2, 77, 64
4, 78048, Note_on_c, 2, 76, 86
4, 78140, Note_off_c, 2, 76, 64
4, 78144, Note_on_c, 2, 74, 86
4, 78236, Note_off_c, 2, 74, 64
4, 78240, Note_on_c, 2, 72, 86
4, 78332, Note_off_c, 2, 84, 64
4, 78332, Note_off_c, 2, 72, 64
4, 78336, Note_on_c, 2, 89, 86
4, 78336, Note_on_c, 2, 77, 86
4, 78524, Note_off_c, 2, 77, 64
4, 78528, Note_on_c, 2, 77, 86
4, 78716, Note_off_c, 2, 77, 64
4, 78720, Note_on_c, 2, 77, 86
4, 79100, Note_off_c, 2, 89, 64
4, 79104, Note_on_c, 2, 86, 90
4, 79292, Note_off_c, 2, 77, 64
4, 79296, Note_on_c, 2, 79, 87
4, 79388, Note_off_c, 2, 79, 64
4, 79392, Note_on_c, 2, 77, 86
4, 79484, Note_off_c, 2, 86, 64
4, 79484, Note_off_c, 2, 77, 64
4, 79488, Note_on_c, 2, 83, 88
4, 79488, Note_on_c, 2, 76, 86
4, 79580, Note_off_c, 2, 76, 64
4, 79584, Note_on_c, 2, 74, 86
4, 79676, Note_off_c, 2, 74, 64
4, 79680, Note_on_c, 2, 72, 86
4, 79772, Note_off_c, 2, 72, 64
4, 79776, Note_on_c, 2, 71, 86
4, 79868, Note_off_c, 2, 83, 64
4, 79868, Note_off_c, 2, 71, 64
4, 79872, Note_on_c, 2, 84, 92
4, 79872, Note_on_c, 2, 72, 86
4, 80252, Note_off_c, 2, 84, 64
4, 80252, Note_off_c, 2, 72, 64
4, 80256, Note_on_c, 2, 73, 65
4, 80256, Note_on_c, 2, 67, 65
4, 80256, Note_on_c, 2, 64, 65
4, 80444, Note_off_c, 2, 67, 64
4, 80444, Note_off_c, 2, 64, 64
4, 80448, Note_on_c, 2, 67, 65
4, 80448, Note_on_c, 2, 64, 65
4, 80636, Note_off_c, 2, 73, 64
4, 80636, Note_off_c, 2, 67, 64
4, 80636, Note_off_c, 2, 64, 64
4, 80640, Note_on_c, 2, 74, 65
4, 80640, Note_on_c, 2, 65, 65
4, 80640, Note_on_c, 2, 62, 65
4, 80828, Note_off_c, 2, 65, 64
4, 80828, Note_off_c, 2, 62, 64
4, 80832, Note_on_c, 2, 65, 65
4, 80832, Note_on_c, 2, 62, 65
4, 81020, Note_off_c, 2, 74, 64
4, 81020, Note_off_c, 2, 65, 64
4, 81020, Note_off_c, 2, 62, 64
4, 81024, Note_on_c, 2, 76, 65
4, 81024, Note_on_c, 2, 70, 65
4, 81024, Note_on_c, 2, 67, 65
4, 81212, Note_off_c, 2, 70, 64
4, 81212, Note_off_c, 2, 67, 64
4, 81216, Note_on_c, 2, 70, 65
4, 81216, Note_on_c, 2, 67, 65
4, 81404, Note_off_c, 2, 76, 64
4, 81404, Note_off_c, 2, 70, 64
4, 81404, Note_off_c, 2, 67, 64
4, 81408, Note_on_c, 2, 77, 66
4, 81408, Note_on_c, 2, 69, 65
4, 81408, Note_on_c, 2, 65, 65
4, 81596, Note_off_c, 2, 69, 64
4, 81596, Note_off_c, 2, 65, 64
4, 81600, Note_on_c, 2, 69, 65
4, 81600, Note_on_c, 2, 65, 65
4, 81788, Note_off_c, 2, 77, 64
4, 81788, Note_off_c, 2, 69, 64
4, 81788, Note_off_c, 2, 65, 64
4, 81792, Note_on_c, 2, 78, 66
4, 81792, Note_on_c, 2, 72, 65
4, 81792, Note_on_c, 2, 69, 65
4, 81980, Note_off_c, 2, 72, 64
4, 81980, Note_off_c, 2, 69, 64
4, 81984, Note_on_c, 2, 72, 65
4, 81984, Note_on_c, 2, 69, 65
4, 82172, Note_off_c, 2, 78, 64
4, 82172, Note_off_c, 2, 72, 64
4, 82172, Note_off_c, 2, 69, 64
4, 82176, Note_on_c, 2, 79, 66
4, 82176, Note_on_c, 2, 71, 65
4, 82176, Note_on_c, 2, 67, 65
4, 82364, Note_off_c, 2, 71, 64
4, 82364, Note_off_c, 2, 67, 64
4, 82368, Note_on_c, 2, 71, 65
4, 82368, Note_on_c, 2, 67, 65
4, 82556, Note_off_c, 2, 79, 64
4, 82556, Note_off_c, 2, 71, 64
4, 82556, Note_off_c, 2, 67, 64
4, 82560, Note_on_c, 2, 80, 66
4, 82560, Note_on_c, 2, 74, 65
4, 82560, Note_on_c, 2, 71, 65
4, 82748, Note_off_c, 2, 74, 64
4, 82748, Note_off_c, 2, 71, 64
4, 82752, Note_on_c, 2, 74, 65
4, 82752, Note_on_c, 2, 71, 65
4, 82940, Note_off_c, 2, 80, 64
4, 82940, Note_off_c, 2, 74, 64
4, 82940, Note_off_c, 2, 71, 64
4, 82944, Note_on_c, 2, 81, 67
4, 82944, Note_on_c, 2, 72, 65
4, 82944, Note_on_c, 2, 69, 65
4, 82944, Note_on_c, 2, 81, 66
4, 83324, Note_off_c, 2, 81, 64
4, 83324, Note_off_c, 2, 72, 64
4, 83324, Note_off_c, 2, 69, 64
4, 83900, Note_off_c, 2, 81, 64
4, 83904, Note_on_c, 2, 84, 70
4, 84092, Note_off_c, 2, 84, 64
4, 84096, Note_on_c, 2, 83, 69
4, 84188, Note_off_c, 2, 83, 64
4, 84288, Note_on_c, 2, 81, 66
4, 84380, Note_off_c, 2, 81, 64
4, 84480, Note_on_c, 2, 81, 65
4, 84668, Note_off_c, 2, 81, 64
4, 84672, Note_on_c, 2, 79, 65
4, 84860, Note_off_c, 2, 79, 64
4, 84864, Note_on_c, 2, 77, 65
4, 84956, Note_off_c, 2, 77, 64
4, 85056, Note_on_c, 2, 76, 65
4, 85148, Note_off_c, 2, 76, 64
4, 85248, Note_on_c, 2, 76, 65
4, 85248, Note_on_c, 2, 65, 65
4, 85436, Note_off_c, 2, 76, 64
4, 85436, Note_off_c, 2, 65, 64
4, 85440, Note_on_c, 2, 74, 65
4, 85440, Note_on_c, 2, 65, 65
4, 85440, Note_on_c, 2, 62, 65
4, 85628, Note_off_c, 2, 74, 64
4, 85628, Note_off_c, 2, 65, 64
4, 85628, Note_off_c, 2, 62, 64
4, 85632, Note_on_c, 2, 72, 65
4, 85632, Note_on_c, 2, 65, 65
4, 85632, Note_on_c, 2, 62, 65
4, 85724, Note_off_c, 2, 72, 64
4, 85724, Note_off_c, 2, 65, 64
4, 85724, Note_off_c, 2, 62, 64
4, 85824, Note_on_c, 2, 65, 65
4, 85824, Note_on_c, 2, 62, 65
4, 85824, Note_on_c, 2, 71, 65
4, 85916, Note_off_c, 2, 65, 64
4, 85916, Note_off_c, 2, 62, 64
4, 85916, Note_off_c, 2, 71, 64
4, 86016, Note_on_c, 2, 72, 65
4, 86016, Note_on_c, 2, 67, 65
4, 86016, Note_on_c, 2, 64, 65
4, 86204, Note_off_c, 2, 67, 64
4, 86204, Note_off_c, 2, 64, 64
4, 86208, Note_on_c, 2, 67, 65
4, 86208, Note_on_c, 2, 64, 65
4, 86396, Note_off_c, 2, 72, 64
4, 86396, Note_off_c, 2, 67, 64
4, 86396, Note_off_c, 2, 64, 64
4, 86400, Note_on_c, 2, 73, 65
4, 86400, Note_on_c, 2, 67, 65
4, 86400, Note_on_c, 2, 64, 65
4, 86588, Note_off_c, 2, 67, 64
4, 86588, Note_off_c, 2, 64, 64
4, 86592, Note_on_c, 2, 67, 65
4, 86592, Note_on_c, 2, 64, 65
4, 86780, Note_off_c, 2, 73, 64
4, 86780, Note_off_c, 2, 67, 64
4, 86780, Note_off_c, 2, 64, 64
4, 86784, Note_on_c, 2, 74, 65
4, 86784, Note_on_c, 2, 65, 65
4, 86784, Note_on_c, 2, 62, 65
4, 86972, Note_off_c, 2, 65, 64
4, 86972, Note_off_c, 2, 62, 64
4, 86976, Note_on_c, 2, 65, 65
4, 86976, Note_on_c, 2, 62, 65
4, 87164, Note_off_c, 2, 74, 64
4, 87164, Note_off_c, 2, 65, 64
4, 87164, Note_off_c, 2, 62, 64
4, 87168, Note_on_c, 2, 76, 66
4, 87168, Note_on_c, 2, 70, 65
4, 87168, Note_on_c, 2, 67, 65
4, 87356, Note_off_c, 2, 70, 64
4, 87356, Note_off_c, 2, 67, 64
4, 87360, Note_on_c, 2, 70, 65
4, 87360, Note_on_c, 2, 67, 65
4, 87548, Note_off_c, 2, 76, 64
4, 87548, Note_off_c, 2, 70, 64
4, 87548, Note_off_c, 2, 67, 64
4, 87552, Note_on_c, 2, 77, 66
4, 87552, Note_on_c, 2, 69, 65
4, 87552, Note_on_c, 2, 65, 65
4, 87740, Note_off_c, 2, 69, 64
4, 87740, Note_off_c, 2, 65, 64
4, 87744, Note_on_c, 2, 69, 66
4, 87744, Note_on_c, 2, 65, 65
4, 87932, Note_off_c, 2, 77, 64
4, 87932, Note_off_c, 2, 69, 64
4, 87932, Note_off_c, 2, 65, 64
4, 87936, Note_on_c, 2, 78, 66
4, 87936, Note_on_c, 2, 72, 65
4, 87936, Note_on_c, 2, 69, 65
4, 88124, Note_off_c, 2, 72, 64
4, 88124, Note_off_c, 2, 69, 64
4, 88128, Note_on_c, 2, 72, 65
4, 88128, Note_on_c, 2, 69, 65
4, 88316, Note_off_c, 2, 78, 64
4, 88316, Note_off_c, 2, 72, 64
4, 88316, Note_off_c, 2, 69, 64
4, 88320, Note_on_c, 2, 79, 66
4, 88320, Note_on_c, 2, 71, 65
4, 88320, Note_on_c, 2, 67, 65
4, 88508, Note_off_c, 2, 71, 64
4, 88508, Note_off_c, 2, 67, 64
4, 88512, Note_on_c, 2, 71, 65
4, 88512, Note_on_c, 2, 67, 65
4, 88700, Note_off_c, 2, 79, 64
4, 88700, Note_off_c, 2, 71, 64
4, 88700, Note_off_c, 2, 67, 64
4, 88704, Note_on_c, 2, 80, 66
4, 88704, Note_on_c, 2, 71, 65
4, 88704, Note_on_c, 2, 74, 65
4, 88892, Note_off_c, 2, 71, 64
4, 88892, Note_off_c, 2, 74, 64
4, 88896, Note_on_c, 2, 74, 65
4, 88896, Note_on_c, 2, 71, 65
4, 89084, Note_off_c, 2, 80, 64
4, 89084, Note_off_c, 2, 74, 64
4, 89084, Note_off_c, 2, 71, 64
4, 89088, Note_on_c, 2, 81, 70
4, 89088, Note_on_c, 2, 72, 65
4, 89088, Note_on_c, 2, 69, 65
4, 89088, Note_on_c, 2, 81, 65
4, 89468, Note_off_c, 2, 81, 64
4, 89468, Note_off_c, 2, 72, 64
4, 89468, Note_off_c, 2, 69, 64
4, 90044, Note_off_c, 2, 81, 64
4, 90048, Note_on_c, 2, 84, 70
4, 90236, Note_off_c, 2, 84, 64
4, 90240, Note_on_c, 2, 83, 69
4, 90332, Note_off_c, 2, 83, 64
4, 90432, Note_on_c, 2, 81, 67
4, 90524, Note_off_c, 2, 81, 64
4, 90624, Note_on_c, 2, 81, 69
4, 90812, Note_off_c, 2, 81, 64
4, 90816, Note_on_c, 2, 79, 67
4, 91004, Note_off_c, 2, 79, 64
4, 91008, Note_on_c, 2, 77, 67
4, 91100, Note_off_c, 2, 77, 64
4, 91200, Note_on_c, 2, 76, 65
4, 91292, Note_off_c, 2, 76, 64
4, 91392, Note_on_c, 2, 76, 65
4, 91580, Note_off_c, 2, 76, 64
4, 91584, Note_on_c, 2, 74, 65
4, 91772, Note_off_c, 2, 74, 64
4, 91776, Note_on_c, 2, 72, 64
4, 91964, Note_off_c, 2, 72, 64
4, 91968, Note_on_c, 2, 71, 63
4, 92156, Note_off_c, 2, 71, 64
4, 92160, Note_on_c, 2, 74, 65
4, 92348, Note_off_c, 2, 74, 64
4, 92352, Note_on_c, 2, 72, 65
4, 92540, Note_off_c, 2, 72, 64
4, 92544, Note_on_c, 2, 72, 65
4, 92636, Note_off_c, 2, 72, 64
4, 92736, Note_on_c, 2, 72, 65
4, 92828, Note_off_c, 2, 72, 64
4, 92928, Note_on_c, 2, 84, 70
4, 93500, Note_off_c, 2, 84, 64
4, 93504, Note_on_c, 2, 75, 66
4, 93504, Note_on_c, 2, 78, 65
4, 93692, Note_off_c, 2, 75, 64
4, 93692, Note_off_c, 2, 78, 64
4, 93696, Note_on_c, 2, 79, 66
4, 93696, Note_on_c, 2, 76, 65
4, 93884, Note_off_c, 2, 76, 64
4, 93888, Note_on_c, 2, 76, 65
4, 94076, Note_off_c, 2, 76, 64
4, 94080, Note_on_c, 2, 76, 65
4, 94268, Note_off_c, 2, 79, 64
4, 94268, Note_off_c, 2, 76, 64
4, 94272, Note_on_c, 2, 64, 65
4, 94272, Note_on_c, 2, 72, 65
4, 94460, Note_off_c, 2, 64, 64
4, 94460, Note_off_c, 2, 72, 64
4, 94464, Note_on_c, 2, 69, 65
4, 94464, Note_on_c, 2, 76, 65
4, 94652, Note_off_c, 2, 69, 64
4, 94656, Note_on_c, 2, 69, 65
4, 94844, Note_off_c, 2, 76, 64
4, 94844, Note_off_c, 2, 69, 64
4, 94848, Note_on_c, 2, 69, 65
4, 94848, Note_on_c, 2, 74, 65
4, 95036, Note_off_c, 2, 69, 64
4, 95040, Note_on_c, 2, 69, 65
4, 95228, Note_off_c, 2, 74, 64
4, 95228, Note_off_c, 2, 69, 64
4, 95232, Note_on_c, 2, 81, 67
4, 95232, Note_on_c, 2, 74, 65
4, 95232, Note_on_c, 2, 72, 65
4, 95996, Note_off_c, 2, 81, 64
4, 95996, Note_off_c, 2, 74, 64
4, 96000, Note_on_c, 2, 75, 65
4, 96192, Note_on_c, 2, 81, 67
4, 96284, Note_off_c, 2, 81, 64
4, 96384, Note_on_c, 2, 83, 69
4, 96476, Note_off_c, 2, 83, 64
4, 96576, Note_on_c, 2, 84, 70
4, 96668, Note_off_c, 2, 84, 64
4, 96764, Note_off_c, 2, 72, 64
4, 96764, Note_off_c, 2, 75, 64
4, 96768, Note_on_c, 2, 84, 76
4, 96856, Note_off_c, 2, 84, 64
4, 96864, Note_on_c, 2, 72, 64
4, 96864, Note_on_c, 2, 79, 66
4, 96864, Note_on_c, 2, 76, 65
4, 97536, Note_off_c, 2, 72, 64
4, 97536, Note_off_c, 2, 79, 64
4, 97536, Note_off_c, 2, 76, 64
4, 97536, Note_on_c, 2, 77, 71
4, 97536, Note_on_c, 2, 74, 71
4, 97536, Note_on_c, 2, 83, 76
4, 97576, Note_off_c, 2, 83, 64
4, 97584, Note_on_c, 2, 84, 76
4, 97624, Note_off_c, 2, 84, 64
4, 97632, Note_on_c, 2, 83, 76
4, 97672, Note_off_c, 2, 83, 64
4, 97680, Note_on_c, 2, 84, 76
4, 97720, Note_off_c, 2, 84, 64
4, 97728, Note_on_c, 2, 83, 76
4, 97768, Note_off_c, 2, 83, 64
4, 97776, Note_on_c, 2, 84, 76
4, 97816, Note_off_c, 2, 84, 64
4, 97824, Note_on_c, 2, 83, 76
4, 97864, Note_off_c, 2, 83, 64
4, 97872, Note_on_c, 2, 84, 76
4, 97912, Note_off_c, 2, 84, 64
4, 97920, Note_on_c, 2, 83, 76
4, 97960, Note_off_c, 2, 83, 64
4, 97968, Note_on_c, 2, 84, 76
4, 98008, Note_off_c, 2, 84, 64
4, 98016, Note_on_c, 2, 83, 76
4, 98056, Note_off_c, 2, 83, 64
4, 98064, Note_on_c, 2, 84, 76
4, 98104, Note_off_c, 2, 84, 64
4, 98112, Note_on_c, 2, 81, 75
4, 98200, Note_off_c, 2, 81, 64
4, 98208, Note_on_c, 2, 84, 76
4, 98300, Note_off_c, 2, 77, 64
4, 98300, Note_off_c, 2, 74, 64
4, 98300, Note_off_c, 2, 84, 64
4, 98304, Note_on_c, 2, 84, 89
4, 98304, Note_on_c, 2, 76, 86
4, 98304, Note_on_c, 2, 72, 85
4, 98492, Note_off_c, 2, 84, 64
4, 98492, Note_off_c, 2, 76, 64
4, 98492, Note_off_c, 2, 72, 64
4, 98688, Note_on_c, 2, 79, 87
4, 98688, Note_on_c, 2, 67, 86
4, 98876, Note_off_c, 2, 79, 64
4, 98876, Note_off_c, 2, 67, 64
4, 99072, Note_on_c, 2, 84, 89
4, 99072, Note_on_c, 2, 72, 86
4, 99260, Note_off_c, 2, 84, 64
4, 99260, Note_off_c, 2, 72, 64
4, 99456, Note_on_c, 2, 88, 91
4, 99456, Note_on_c, 2, 76, 86
4, 99644, Note_off_c, 2, 88, 64
4, 99644, Note_off_c, 2, 76, 64
4, 99840, Note_on_c, 2, 91, 93
4, 99840, Note_on_c, 2, 79, 86
4, 100220, Note_off_c, 2, 91, 64
4, 100220, Note_off_c, 2, 79, 64
4, 100224, Note_on_c, 2, 79, 87
4, 100224, Note_on_c, 2, 67, 86
4, 100508, Note_off_c, 2, 79, 64
4, 100508, Note_off_c, 2, 67, 64
4, 100512, Note_on_c, 2, 79, 103
4, 100512, Note_on_c, 2, 67, 102
4, 100600, Note_off_c, 2, 79, 64
4, 100600, Note_off_c, 2, 67, 64
4, 100608, Note_on_c, 2, 79, 87
4, 100608, Note_on_c, 2, 67, 86
4, 100988, Note_off_c, 2, 79, 64
4, 100988, Note_off_c, 2, 67, 64
4, 100992, Note_on_c, 2, 79, 87
4, 100992, Note_on_c, 2, 67, 86
4, 101372, Note_off_c, 2, 79, 64
4, 101372, Note_off_c, 2, 67, 64
4, 101376, Note_on_c, 2, 77, 86
4, 101376, Note_on_c, 2, 89, 92
4, 101376, Note_on_c, 2, 79, 87
4, 101948, Note_off_c, 2, 77, 64
4, 101948, Note_off_c, 2, 89, 64
4, 101952, Note_on_c, 2, 86, 90
4, 102044, Note_off_c, 2, 86, 64
4, 102048, Note_on_c, 2, 83, 88
4, 102140, Note_off_c, 2, 79, 64
4, 102140, Note_off_c, 2, 83, 64
4, 102144, Note_on_c, 2, 72, 89
4, 102144, Note_on_c, 2, 84, 86
4, 102716, Note_off_c, 2, 72, 64
4, 102716, Note_off_c, 2, 84, 64
4, 102720, Note_on_c, 2, 81, 88
4, 102812, Note_off_c, 2, 81, 64
4, 102816, Note_on_c, 2, 78, 86
4, 102908, Note_off_c, 2, 78, 64
4, 102912, Note_on_c, 2, 79, 87
4, 102912, Note_on_c, 2, 76, 86
4, 102912, Note_on_c, 2, 72, 86
4, 102912, Note_on_c, 2, 67, 85
4, 103292, Note_off_c, 2, 79, 64
4, 103292, Note_off_c, 2, 76, 64
4, 103292, Note_off_c, 2, 72, 64
4, 103292, Note_off_c, 2, 67, 64
4, 103296, Note_on_c, 2, 88, 91
4, 103296, Note_on_c, 2, 84, 89
4, 103296, Note_on_c, 2, 79, 87
4, 103296, Note_on_c, 2, 76, 86
4, 103676, Note_off_c, 2, 88, 64
4, 103676, Note_off_c, 2, 84, 64
4, 103676, Note_off_c, 2, 79, 64
4, 103676, Note_off_c, 2, 76, 64
4, 104064, Note_on_c, 2, 86, 90
4, 104064, Note_on_c, 2, 83, 88
4, 104064, Note_on_c, 2, 79, 87
4, 104064, Note_on_c, 2, 74, 86
4, 104444, Note_off_c, 2, 86, 64
4, 104444, Note_off_c, 2, 83, 64
4, 104444, Note_off_c, 2, 79, 64
4, 104444, Note_off_c, 2, 74, 64
4, 104448, Note_on_c, 2, 84, 70
4, 104448, Note_on_c, 2, 79, 66
4, 104448, Note_on_c, 2, 76, 65
4, 104448, Note_on_c, 2, 72, 65
4, 104828, Note_off_c, 2, 84, 64
4, 104828, Note_off_c, 2, 79, 64
4, 104828, Note_off_c, 2, 76, 64
4, 104828, Note_off_c, 2, 72, 64
4, 105024, Note_on_c, 2, 79, 66
4, 105212, Note_off_c, 2, 79, 64
4, 105216, Note_on_c, 2, 78, 65
4, 105404, Note_off_c, 2, 78, 64
4, 105408, Note_on_c, 2, 79, 66
4, 105596, Note_off_c, 2, 79, 64
4, 105600, Note_on_c, 2, 81, 67
4, 105788, Note_off_c, 2, 81, 64
4, 105792, Note_on_c, 2, 79, 66
4, 105980, Note_off_c, 2, 79, 64
4, 105984, Note_on_c, 2, 84, 69
4, 106364, Note_off_c, 2, 84, 64
4, 106368, Note_on_c, 2, 76, 65
4, 106752, Note_on_c, 2, 72, 65
4, 106752, Note_on_c, 2, 69, 65
4, 106752, Note_on_c, 2, 62, 65
4, 107132, Note_off_c, 2, 76, 64
4, 107136, Note_on_c, 2, 78, 65
4, 107516, Note_off_c, 2, 72, 64
4, 107516, Note_off_c, 2, 69, 64
4, 107516, Note_off_c, 2, 62, 64
4, 107516, Note_off_c, 2, 78, 64
4, 107520, Note_on_c, 2, 79, 66
4, 107520, Note_on_c, 2, 71, 65
4, 107520, Note_on_c, 2, 67, 65
4, 107520, Note_on_c, 2, 55, 65
4, 107900, Note_off_c, 2, 79, 64
4, 107900, Note_off_c, 2, 71, 64
4, 107900, Note_off_c, 2, 67, 64
4, 107900, Note_off_c, 2, 55, 64
4, 108096, Note_on_c, 2, 55, 65
4, 108284, Note_off_c, 2, 55, 64
4, 108288, Note_on_c, 2, 54, 65
4, 108476, Note_off_c, 2, 54, 64
4, 108480, Note_on_c, 2, 55, 65
4, 108668, Note_off_c, 2, 55, 64
4, 108672, Note_on_c, 2, 57, 65
4, 108860, Note_off_c, 2, 57, 64
4, 108864, Note_on_c, 2, 55, 65
4, 109052, Note_off_c, 2, 55, 64
4, 109056, Note_on_c, 2, 60, 65
4, 109244, Note_off_c, 2, 60, 64
4, 109248, Note_on_c, 2, 62, 74
4, 109304, Note_off_c, 2, 62, 64
4, 109312, Note_on_c, 2, 60, 73
4, 109368, Note_off_c, 2, 60, 64
4, 109376, Note_on_c, 2, 59, 72
4, 109432, Note_off_c, 2, 59, 64
4, 109440, Note_on_c, 2, 60, 71
4, 109440, Note_on_c, 2, 60, 71
4, 109628, Note_off_c, 2, 60, 64
4, 109632, Note_on_c, 2, 62, 65
4, 109820, Note_off_c, 2, 62, 64
4, 109824, Note_on_c, 2, 64, 65
4, 110204, Note_off_c, 2, 64, 64
4, 110208, Note_on_c, 2, 66, 65
4, 110588, Note_off_c, 2, 60, 64
4, 110588, Note_off_c, 2, 66, 64
4, 110592, Note_on_c, 2, 67, 65
4, 110592, Note_on_c, 2, 59, 65
4, 110972, Note_off_c, 2, 67, 64
4, 110972, Note_off_c, 2, 59, 64
4, 111168, Note_on_c, 2, 79, 66
4, 111356, Note_off_c, 2, 79, 64
4, 111360, Note_on_c, 2, 78, 65
4, 111548, Note_off_c, 2, 78, 64
4, 111552, Note_on_c, 2, 79, 66
4, 111740, Note_off_c, 2, 79, 64
4, 111744, Note_on_c, 2, 81, 67
4, 111932, Note_off_c, 2, 81, 64
4, 111936, Note_on_c, 2, 83, 68
4, 112124, Note_off_c, 2, 83, 64
4, 112128, Note_on_c, 2, 84, 69
4, 112128, Note_on_c, 2, 75, 65
4, 112508, Note_off_c, 2, 84, 64
4, 112508, Note_off_c, 2, 75, 64
4, 112512, Note_on_c, 2, 86, 70
4, 112512, Note_on_c, 2, 71, 65
4, 112892, Note_off_c, 2, 86, 64
4, 112892, Note_off_c, 2, 71, 64
4, 112896, Note_on_c, 2, 87, 71
4, 112896, Note_on_c, 2, 72, 64
4, 113276, Note_off_c, 2, 87, 64
4, 113280, Note_on_c, 2, 90, 72
4, 113660, Note_off_c, 2, 72, 64
4, 113660, Note_off_c, 2, 90, 64
4, 113680, Note_on_c, 2, 62, 65
4, 113700, Note_on_c, 2, 67, 65
4, 113720, Note_on_c, 2, 71, 65
4, 113720, Note_on_c, 2, 91, 73
4, 114060, Note_off_c, 2, 62, 64
4, 114080, Note_off_c, 2, 67, 64
4, 114100, Note_off_c, 2, 71, 64
4, 114100, Note_off_c, 2, 91, 64
4, 114624, Note_on_c, 2, 67, 65
4, 114624, Note_on_c, 2, 62, 65
4, 114624, Note_on_c, 2, 59, 65
4, 114812, Note_off_c, 2, 67, 64
4, 114812, Note_off_c, 2, 62, 64
4, 114812, Note_off_c, 2, 59, 64
4, 114816, Note_on_c, 2, 59, 65
4, 114816, Note_on_c, 2, 67, 65
4, 114816, Note_on_c, 2, 62, 65
4, 115004, Note_off_c, 2, 59, 64
4, 115004, Note_off_c, 2, 67, 64
4, 115004, Note_off_c, 2, 62, 64
4, 115008, Note_on_c, 2, 67, 65
4, 115008, Note_on_c, 2, 62, 65
4, 115008, Note_on_c, 2, 59, 65
4, 115196, Note_off_c, 2, 67, 64
4, 115196, Note_off_c, 2, 62, 64
4, 115196, Note_off_c, 2, 59, 64
4, 115200, Note_on_c, 2, 67, 65
4, 115200, Note_on_c, 2, 62, 65
4, 115200, Note_on_c, 2, 59, 65
4, 115580, Note_off_c, 2, 67, 64
4, 115580, Note_off_c, 2, 62, 64
4, 115580, Note_off_c, 2, 59, 64
4, 116160, Note_on_c, 2, 71, 65
4, 116160, Note_on_c, 2, 67, 65
4, 116160, Note_on_c, 2, 62, 65
4, 116348, Note_off_c, 2, 71, 64
4, 116348, Note_off_c, 2, 67, 64
4, 116348, Note_off_c, 2, 62, 64
4, 116352, Note_on_c, 2, 71, 65
4, 116352, Note_on_c, 2, 67, 65
4, 116352, Note_on_c, 2, 62, 65
4, 116540, Note_off_c, 2, 71, 64
4, 116540, Note_off_c, 2, 67, 64
4, 116540, Note_off_c, 2, 62, 64
4, 116544, Note_on_c, 2, 71, 65
4, 116544, Note_on_c, 2, 67, 65
4, 116544, Note_on_c, 2, 62, 65
4, 116732, Note_off_c, 2, 71, 64
4, 116732, Note_off_c, 2, 67, 64
4, 116732, Note_off_c, 2, 62, 64
4, 116736, Note_on_c, 2, 74, 71
4, 116736, Note_on_c, 2, 62, 65
4, 116736, Note_on_c, 2, 65, 65
4, 116736, Note_on_c, 2, 67, 65
4, 116736, Note_on_c, 2, 71, 65
4, 116736, Note_on_c, 2, 74, 65
4, 117500, Note_off_c, 2, 74, 64
4, 117504, Note_on_c, 2, 77, 65
4, 118268, Note_off_c, 2, 77, 64
4, 118272, Note_on_c, 2, 83, 68
4, 119036, Note_off_c, 2, 83, 64
4, 119040, Note_on_c, 2, 86, 65
4, 119804, Note_off_c, 2, 86, 64
4, 119808, Note_on_c, 2, 89, 72
4, 120188, Note_off_c, 2, 89, 64
4, 120192, Note_on_c, 2, 86, 70
4, 120572, Note_off_c, 2, 86, 64
4, 120576, Note_on_c, 2, 83, 68
4, 120956, Note_off_c, 2, 83, 64
4, 120960, Note_on_c, 2, 79, 66
4, 121340, Note_off_c, 2, 79, 64
4, 121344, Note_on_c, 2, 77, 65
4, 121724, Note_off_c, 2, 77, 64
4, 122108, Note_off_c, 2, 62, 64
4, 122108, Note_off_c, 2, 65, 64
4, 122108, Note_off_c, 2, 67, 64
4, 122108, Note_off_c, 2, 71, 64
4, 122108, Note_off_c, 2, 74, 64
4, 129024, Note_on_c, 2, 60, 65
4, 129212, Note_off_c, 2, 60, 64
4, 129408, Note_on_c, 2, 55, 65
4, 129596, Note_off_c, 2, 55, 64
4, 129792, Note_on_c, 2, 60, 65
4, 129980, Note_off_c, 2, 60, 64
4, 130176, Note_on_c, 2, 52, 65
4, 130176, Note_on_c, 2, 64, 65
4, 130364, Note_off_c, 2, 52, 64
4, 130364, Note_off_c, 2, 64, 64
4, 130560, Note_on_c, 2, 53, 65
4, 130560, Note_on_c, 2, 65, 65
4, 131132, Note_off_c, 2, 53, 64
4, 131132, Note_off_c, 2, 65, 64
4, 131136, Note_on_c, 2, 64, 69
4, 131192, Note_off_c, 2, 64, 64
4, 131200, Note_on_c, 2, 62, 67
4, 131256, Note_off_c, 2, 62, 64
4, 131264, Note_on_c, 2, 60, 66
4, 131320, Note_off_c, 2, 60, 64
4, 131328, Note_on_c, 2, 59, 65
4, 131708, Note_off_c, 2, 59, 64
4, 132000, Note_on_c, 2, 55, 65
4, 132092, Note_off_c, 2, 55, 64
4, 132096, Note_on_c, 2, 59, 65
4, 132284, Note_off_c, 2, 59, 64
4, 132480, Note_on_c, 2, 62, 65
4, 132668, Note_off_c, 2, 62, 64
4, 132864, Note_on_c, 2, 65, 65
4, 133052, Note_off_c, 2, 65, 64
4, 133248, Note_on_c, 2, 62, 65
4, 133436, Note_off_c, 2, 62, 64
4, 133632, Note_on_c, 2, 67, 65
4, 134204, Note_off_c, 2, 67, 64
4, 134208, Note_on_c, 2, 69, 69
4, 134264, Note_off_c, 2, 69, 64
4, 134272, Note_on_c, 2, 67, 67
4, 134328, Note_off_c, 2, 67, 64
4, 134336, Note_on_c, 2, 65, 66
4, 134392, Note_off_c, 2, 65, 64
4, 134400, Note_on_c, 2, 64, 65
4, 134780, Note_off_c, 2, 64, 64
4, 141312, Note_on_c, 2, 79, 66
4, 141312, Note_on_c, 2, 67, 65
4, 142268, Note_off_c, 2, 79, 64
4, 142272, Note_on_c, 2, 78, 65
4, 142364, Note_off_c, 2, 78, 64
4, 142464, Note_on_c, 2, 79, 65
4, 142556, Note_off_c, 2, 79, 64
4, 142656, Note_on_c, 2, 76, 65
4, 142748, Note_off_c, 2, 76, 64
4, 142848, Note_on_c, 2, 77, 65
4, 143804, Note_off_c, 2, 77, 64
4, 143808, Note_on_c, 2, 76, 65
4, 143900, Note_off_c, 2, 76, 64
4, 144000, Note_on_c, 2, 77, 65
4, 144092, Note_off_c, 2, 77, 64
4, 144192, Note_on_c, 2, 74, 65
4, 144284, Note_off_c, 2, 74, 64
4, 144380, Note_off_c, 2, 67, 64
4, 144384, Note_on_c, 2, 72, 65
4, 144384, Note_on_c, 2, 67, 65
4, 144384, Note_on_c, 2, 64, 65
4, 144384, Note_on_c, 2, 60, 65
4, 144764, Note_off_c, 2, 72, 64
4, 144764, Note_off_c, 2, 67, 64
4, 144764, Note_off_c, 2, 64, 64
4, 144764, Note_off_c, 2, 60, 64
4, 144768, Note_on_c, 2, 60, 65
4, 144768, Note_on_c, 2, 72, 65
4, 144768, Note_on_c, 2, 67, 65
4, 144768, Note_on_c, 2, 64, 65
4, 145052, Note_off_c, 2, 60, 64
4, 145052, Note_off_c, 2, 72, 64
4, 145052, Note_off_c, 2, 67, 64
4, 145052, Note_off_c, 2, 64, 64
4, 145056, Note_on_c, 2, 72, 76
4, 145056, Note_on_c, 2, 67, 76
4, 145056, Note_on_c, 2, 64, 76
4, 145056, Note_on_c, 2, 60, 76
4, 145148, Note_off_c, 2, 72, 64
4, 145148, Note_off_c, 2, 67, 64
4, 145148, Note_off_c, 2, 64, 64
4, 145148, Note_off_c, 2, 60, 64
4, 145152, Note_on_c, 2, 74, 71
4, 145152, Note_on_c, 2, 71, 65
4, 145152, Note_on_c, 2, 67, 65
4, 145192, Note_off_c, 2, 74, 64
4, 145200, Note_on_c, 2, 76, 71
4, 145240, Note_off_c, 2, 76, 64
4, 145248, Note_on_c, 2, 74, 71
4, 145288, Note_off_c, 2, 74, 64
4, 145296, Note_on_c, 2, 76, 71
4, 145336, Note_off_c, 2, 76, 64
4, 145344, Note_on_c, 2, 74, 71
4, 145384, Note_off_c, 2, 74, 64
4, 145392, Note_on_c, 2, 76, 71
4, 145432, Note_off_c, 2, 76, 64
4, 145436, Note_off_c, 2, 71, 64
4, 145436, Note_off_c, 2, 67, 64
4, 145440, Note_on_c, 2, 72, 69
4, 145440, Note_on_c, 2, 69, 71
4, 145532, Note_off_c, 2, 72, 64
4, 145532, Note_off_c, 2, 69, 64
4, 145536, Note_on_c, 2, 74, 65
4, 145536, Note_on_c, 2, 71, 65
4, 145820, Note_off_c, 2, 74, 64
4, 145820, Note_off_c, 2, 71, 64
4, 145824, Note_on_c, 2, 76, 65
4, 145824, Note_on_c, 2, 67, 65
4, 145916, Note_off_c, 2, 76, 64
4, 145916, Note_off_c, 2, 67, 64
4, 145920, Note_on_c, 2, 72, 65
4, 145920, Note_on_c, 2, 67, 65
4, 145920, Note_on_c, 2, 64, 65
4, 146300, Note_off_c, 2, 72, 64
4, 146300, Note_off_c, 2, 67, 64
4, 146300, Note_off_c, 2, 64, 64
4, 150528, Note_on_c, 2, 67, 65
4, 150528, Note_on_c, 2, 64, 65
4, 150528, Note_on_c, 2, 60, 65
4, 152060, Note_off_c, 2, 67, 64
4, 152060, Note_off_c, 2, 64, 64
4, 152064, Note_on_c, 2, 69, 65
4, 152064, Note_on_c, 2, 65, 65
4, 153596, Note_off_c, 2, 60, 64
4, 153596, Note_off_c, 2, 69, 64
4, 153600, Note_on_c, 2, 71, 65
4, 153600, Note_on_c, 2, 62, 65
4, 155132, Note_off_c, 2, 65, 64
4, 155132, Note_off_c, 2, 71, 64
4, 155132, Note_off_c, 2, 62, 64
4, 155136, Note_on_c, 2, 72, 65
4, 155136, Note_on_c, 2, 64, 65
4, 155136, Note_on_c, 2, 60, 65
4, 155516, Note_off_c, 2, 72, 64
4, 155516, Note_off_c, 2, 64, 64
4, 155516, Note_off_c, 2, 60, 64
4, 155904, Note_on_c, 2, 74, 65
4, 155904, Note_on_c, 2, 67, 65
4, 156284, Note_off_c, 2, 74, 64
4, 156284, Note_off_c, 2, 67, 64
4, 156672, Note_on_c, 2, 76, 65
4, 156672, Note_on_c, 2, 67, 65
4, 157052, Note_off_c, 2, 67, 64
4, 157056, Note_on_c, 2, 69, 65
4, 157436, Note_off_c, 2, 76, 64
4, 157440, Note_on_c, 2, 77, 65
4, 157820, Note_off_c, 2, 69, 64
4, 157824, Note_on_c, 2, 71, 65
4, 158204, Note_off_c, 2, 77, 64
4, 158204, Note_off_c, 2, 71, 64
4, 158208, Note_on_c, 2, 79, 66
4, 158208, Note_on_c, 2, 72, 65
4, 158588, Note_off_c, 2, 79, 64
4, 158588, Note_off_c, 2, 72, 64
4, 159552, Note_on_c, 2, 74, 65
4, 159552, Note_on_c, 2, 67, 65
4, 159552, Note_on_c, 2, 83, 68
4, 159740, Note_off_c, 2, 74, 64
4, 159740, Note_off_c, 2, 67, 64
4, 159744, Note_on_c, 2, 72, 65
4, 159744, Note_on_c, 2, 69, 65
4, 159932, Note_off_c, 2, 83, 64
4, 159932, Note_off_c, 2, 69, 64
4, 159936, Note_on_c, 2, 81, 67
4, 159936, Note_on_c, 2, 65, 65
4, 160124, Note_off_c, 2, 72, 64
4, 160124, Note_off_c, 2, 65, 64
4, 160128, Note_on_c, 2, 71, 66
4, 160128, Note_on_c, 2, 67, 65
4, 160316, Note_off_c, 2, 81, 64
4, 160316, Note_off_c, 2, 67, 64
4, 160320, Note_on_c, 2, 79, 65
4, 160320, Note_on_c, 2, 64, 65
4, 160508, Note_off_c, 2, 71, 64
4, 160508, Note_off_c, 2, 64, 64
4, 160512, Note_on_c, 2, 69, 65
4, 160512, Note_on_c, 2, 65, 65
4, 160700, Note_off_c, 2, 79, 64
4, 160700, Note_off_c, 2, 65, 64
4, 160704, Note_on_c, 2, 77, 66
4, 160704, Note_on_c, 2, 62, 65
4, 160892, Note_off_c, 2, 69, 64
4, 160892, Note_off_c, 2, 62, 64
4, 160896, Note_on_c, 2, 69, 65
4, 160896, Note_on_c, 2, 64, 65
4, 161084, Note_off_c, 2, 77, 64
4, 161084, Note_off_c, 2, 64, 64
4, 161088, Note_on_c, 2, 76, 65
4, 161088, Note_on_c, 2, 60, 65
4, 161276, Note_off_c, 2, 69, 64
4, 161276, Note_off_c, 2, 76, 64
4, 161276, Note_off_c, 2, 60, 64
4, 161280, Note_on_c, 2, 74, 65
4, 161280, Note_on_c, 2, 69, 65
4, 161280, Note_on_c, 2, 65, 65
4, 161660, Note_off_c, 2, 74, 64
4, 161660, Note_off_c, 2, 69, 64
4, 161660, Note_off_c, 2, 65, 64
4, 167424, Note_on_c, 2, 67, 65
4, 167424, Note_on_c, 2, 59, 65
4, 167804, Note_off_c, 2, 67, 64
4, 167804, Note_off_c, 2, 59, 64
4, 167808, Note_on_c, 2, 69, 65
4, 167808, Note_on_c, 2, 66, 65
4, 167808, Note_on_c, 2, 60, 65
4, 168188, Note_off_c, 2, 69, 64
4, 168188, Note_off_c, 2, 66, 64
4, 168188, Note_off_c, 2, 60, 64
4, 168192, Note_on_c, 2, 71, 65
4, 168192, Note_on_c, 2, 65, 65
4, 168192, Note_on_c, 2, 62, 65
4, 168572, Note_off_c, 2, 71, 64
4, 168572, Note_off_c, 2, 65, 64
4, 168572, Note_off_c, 2, 62, 64
4, 168576, Note_on_c, 2, 67, 65
4, 168576, Note_on_c, 2, 64, 65
4, 168576, Note_on_c, 2, 72, 65
4, 168956, Note_off_c, 2, 67, 64
4, 168956, Note_off_c, 2, 64, 64
4, 168960, Note_on_c, 2, 65, 65
4, 168960, Note_on_c, 2, 62, 65
4, 169148, Note_off_c, 2, 72, 64
4, 169152, Note_on_c, 2, 71, 65
4, 169340, Note_off_c, 2, 65, 64
4, 169340, Note_off_c, 2, 62, 64
4, 169344, Note_on_c, 2, 64, 65
4, 169344, Note_on_c, 2, 60, 65
4, 169532, Note_off_c, 2, 71, 64
4, 169536, Note_on_c, 2, 69, 65
4, 169724, Note_off_c, 2, 64, 64
4, 169724, Note_off_c, 2, 60, 64
4, 169728, Note_on_c, 2, 62, 65
4, 169728, Note_on_c, 2, 59, 65
4, 169916, Note_off_c, 2, 69, 64
4, 169920, Note_on_c, 2, 67, 65
4, 170108, Note_off_c, 2, 62, 64
4, 170108, Note_off_c, 2, 59, 64
4, 170112, Note_on_c, 2, 60, 65
4, 170112, Note_on_c, 2, 57, 65
4, 170300, Note_off_c, 2, 67, 64
4, 170304, Note_on_c, 2, 66, 65
4, 170492, Note_off_c, 2, 60, 64
4, 170492, Note_off_c, 2, 57, 64
4, 170492, Note_off_c, 2, 66, 64
4, 170496, Note_on_c, 2, 67, 65
4, 170496, Note_on_c, 2, 59, 65
4, 170496, Note_on_c, 2, 55, 65
4, 171068, Note_off_c, 2, 67, 64
4, 171068, Note_off_c, 2, 59, 64
4, 171068, Note_off_c, 2, 55, 64
4, 171072, Note_on_c, 2, 67, 86
4, 171164, Note_off_c, 2, 67, 64
4, 171168, Note_on_c, 2, 69, 86
4, 171260, Note_off_c, 2, 69, 64
4, 171264, Note_on_c, 2, 71, 86
4, 171452, Note_off_c, 2, 71, 64
4, 171456, Note_on_c, 2, 71, 86
4, 171548, Note_off_c, 2, 71, 64
4, 171552, Note_on_c, 2, 72, 86
4, 171644, Note_off_c, 2, 72, 64
4, 171648, Note_on_c, 2, 74, 86
4, 171836, Note_off_c, 2, 74, 64
4, 171840, Note_on_c, 2, 74, 86
4, 171904, Note_off_c, 2, 74, 64
4, 171904, Note_on_c, 2, 76, 86
4, 171968, Note_off_c, 2, 76, 64
4, 171968, Note_on_c, 2, 78, 86
4, 172032, Note_off_c, 2, 78, 64
4, 172032, Note_on_c, 2, 79, 87
4, 172032, Note_on_c, 2, 74, 86
4, 172032, Note_on_c, 2, 71, 86
4, 172032, Note_on_c, 2, 67, 86
4, 172604, Note_off_c, 2, 79, 64
4, 172604, Note_off_c, 2, 74, 64
4, 172604, Note_off_c, 2, 71, 64
4, 172604, Note_off_c, 2, 67, 64
4, 172608, Note_on_c, 2, 67, 86
4, 172700, Note_off_c, 2, 67, 64
4, 172704, Note_on_c, 2, 69, 86
4, 172796, Note_off_c, 2, 69, 64
4, 172800, Note_on_c, 2, 83, 88
4, 172800, Note_on_c, 2, 79, 87
4, 172800, Note_on_c, 2, 74, 86
4, 172800, Note_on_c, 2, 71, 86
4, 172988, Note_off_c, 2, 83, 64
4, 172988, Note_off_c, 2, 79, 64
4, 172988, Note_off_c, 2, 74, 64
4, 172988, Note_off_c, 2, 71, 64
4, 172992, Note_on_c, 2, 71, 86
4, 173084, Note_off_c, 2, 71, 64
4, 173088, Note_on_c, 2, 72, 86
4, 173180, Note_off_c, 2, 72, 64
4, 173184, Note_on_c, 2, 86, 91
4, 173184, Note_on_c, 2, 83, 89
4, 173184, Note_on_c, 2, 79, 87
4, 173184, Note_on_c, 2, 74, 86
4, 173372, Note_off_c, 2, 86, 64
4, 173372, Note_off_c, 2, 83, 64
4, 173372, Note_off_c, 2, 79, 64
4, 173372, Note_off_c, 2, 74, 64
4, 173376, Note_on_c, 2, 74, 86
4, 173440, Note_off_c, 2, 74, 64
4, 173440, Note_on_c, 2, 76, 86
4, 173504, Note_off_c, 2, 76, 64
4, 173504, Note_on_c, 2, 77, 86
4, 173568, Note_off_c, 2, 77, 64
4, 173568, Note_on_c, 2, 91, 94
4, 173568, Note_on_c, 2, 86, 91
4, 173568, Note_on_c, 2, 83, 89
4, 173568, Note_on_c, 2, 79, 87
4, 173948, Note_off_c, 2, 91, 64
4, 173948, Note_off_c, 2, 86, 64
4, 173948, Note_off_c, 2, 83, 64
4, 173948, Note_off_c, 2, 79, 64
4, 193536, Note_on_c, 2, 74, 65
4, 193536, Note_on_c, 2, 69, 65
4, 193536, Note_on_c, 2, 66, 65
4, 194300, Note_off_c, 2, 74, 64
4, 194300, Note_off_c, 2, 69, 64
4, 194300, Note_off_c, 2, 66, 64
4, 194304, Note_on_c, 2, 73, 65
4, 194304, Note_on_c, 2, 70, 65
4, 194304, Note_on_c, 2, 67, 65
4, 195068, Note_off_c, 2, 73, 64
4, 195068, Note_off_c, 2, 70, 64
4, 195068, Note_off_c, 2, 67, 64
4, 195072, Note_on_c, 2, 74, 65
4, 195072, Note_on_c, 2, 69, 65
4, 195072, Note_on_c, 2, 66, 65
4, 195836, Note_off_c, 2, 74, 64
4, 195836, Note_off_c, 2, 69, 64
4, 195836, Note_off_c, 2, 66, 64
4, 195840, Note_on_c, 2, 73, 65
4, 195840, Note_on_c, 2, 70, 65
4, 195840, Note_on_c, 2, 67, 65
4, 196604, Note_off_c, 2, 73, 64
4, 196604, Note_off_c, 2, 70, 64
4, 196604, Note_off_c, 2, 67, 64
4, 196608, Note_on_c, 2, 74, 65
4, 196608, Note_on_c, 2, 69, 65
4, 196608, Note_on_c, 2, 66, 65
4, 196988, Note_off_c, 2, 74, 64
4, 196988, Note_off_c, 2, 69, 64
4, 196988, Note_off_c, 2, 66, 64
4, 203136, Note_on_c, 2, 74, 65
4, 203136, Note_on_c, 2, 71, 65
4, 203136, Note_on_c, 2, 67, 65
4, 203516, Note_off_c, 2, 74, 64
4, 203516, Note_off_c, 2, 71, 64
4, 203516, Note_off_c, 2, 67, 64
4, 203904, Note_on_c, 2, 71, 65
4, 203904, Note_on_c, 2, 67, 65
4, 203904, Note_on_c, 2, 74, 65
4, 204284, Note_off_c, 2, 71, 64
4, 204284, Note_off_c, 2, 67, 64
4, 204284, Note_off_c, 2, 74, 64
4, 204672, Note_on_c, 2, 72, 65
4, 204672, Note_on_c, 2, 69, 65
4, 204672, Note_on_c, 2, 64, 65
4, 205052, Note_off_c, 2, 72, 64
4, 205052, Note_off_c, 2, 69, 64
4, 205052, Note_off_c, 2, 64, 64
4, 205440, Note_on_c, 2, 72, 65
4, 205440, Note_on_c, 2, 69, 65
4, 205440, Note_on_c, 2, 64, 65
4, 205820, Note_off_c, 2, 72, 64
4, 205820, Note_off_c, 2, 69, 64
4, 205820, Note_off_c, 2, 64, 64
4, 206208, Note_on_c, 2, 69, 65
4, 206208, Note_on_c, 2, 66, 65
4, 206208, Note_on_c, 2, 62, 65
4, 206588, Note_off_c, 2, 69, 64
4, 206588, Note_off_c, 2, 66, 64
4, 206588, Note_off_c, 2, 62, 64
4, 206976, Note_on_c, 2, 69, 65
4, 206976, Note_on_c, 2, 66, 65
4, 206976, Note_on_c, 2, 62, 65
4, 207356, Note_off_c, 2, 69, 64
4, 207356, Note_off_c, 2, 66, 64
4, 207356, Note_off_c, 2, 62, 64
4, 207744, Note_on_c, 2, 74, 65
4, 207744, Note_on_c, 2, 67, 65
4, 207744, Note_on_c, 2, 62, 65
4, 208124, Note_off_c, 2, 74, 64
4, 208124, Note_off_c, 2, 67, 64
4, 208124, Note_off_c, 2, 62, 64
4, 208512, Note_on_c, 2, 74, 65
4, 208512, Note_on_c, 2, 67, 65
4, 208512, Note_on_c, 2, 62, 65
4, 208892, Note_off_c, 2, 74, 64
4, 208892, Note_off_c, 2, 67, 64
4, 208892, Note_off_c, 2, 62, 64
4, 215040, Note_on_c, 2, 86, 70
4, 215040, Note_on_c, 2, 74, 65
4, 215228, Note_off_c, 2, 86, 64
4, 215228, Note_off_c, 2, 74, 64
4, 215232, Note_on_c, 2, 83, 68
4, 215232, Note_on_c, 2, 71, 65
4, 215420, Note_off_c, 2, 83, 64
4, 215420, Note_off_c, 2, 71, 64
4, 215424, Note_on_c, 2, 81, 67
4, 215424, Note_on_c, 2, 69, 65
4, 215612, Note_off_c, 2, 81, 64
4, 215612, Note_off_c, 2, 69, 64
4, 215616, Note_on_c, 2, 79, 66
4, 215616, Note_on_c, 2, 67, 65
4, 215804, Note_off_c, 2, 79, 64
4, 215804, Note_off_c, 2, 67, 64
4, 215808, Note_on_c, 2, 86, 70
4, 215808, Note_on_c, 2, 74, 65
4, 215996, Note_off_c, 2, 86, 64
4, 215996, Note_off_c, 2, 74, 64
4, 216000, Note_on_c, 2, 71, 68
4, 216000, Note_on_c, 2, 83, 65
4, 216188, Note_off_c, 2, 71, 64
4, 216188, Note_off_c, 2, 83, 64
4, 216192, Note_on_c, 2, 81, 67
4, 216192, Note_on_c, 2, 69, 65
4, 216380, Note_off_c, 2, 81, 64
4, 216380, Note_off_c, 2, 69, 64
4, 216384, Note_on_c, 2, 79, 66
4, 216384, Note_on_c, 2, 67, 65
4, 216572, Note_off_c, 2, 79, 64
4, 216572, Note_off_c, 2, 67, 64
4, 216576, Note_on_c, 2, 88, 71
4, 216576, Note_on_c, 2, 76, 65
4, 216764, Note_off_c, 2, 88, 64
4, 216764, Note_off_c, 2, 76, 64
4, 216768, Note_on_c, 2, 84, 69
4, 216768, Note_on_c, 2, 72, 65
4, 216956, Note_off_c, 2, 84, 64
4, 216956, Note_off_c, 2, 72, 64
4, 216960, Note_on_c, 2, 83, 68
4, 216960, Note_on_c, 2, 71, 65
4, 217148, Note_off_c, 2, 83, 64
4, 217148, Note_off_c, 2, 71, 64
4, 217152, Note_on_c, 2, 81, 67
4, 217152, Note_on_c, 2, 69, 65
4, 217340, Note_off_c, 2, 81, 64
4, 217340, Note_off_c, 2, 69, 64
4, 217344, Note_on_c, 2, 81, 67
4, 217344, Note_on_c, 2, 69, 65
4, 218108, Note_off_c, 2, 81, 64
4, 218108, Note_off_c, 2, 69, 64
4, 218112, Note_on_c, 2, 84, 69
4, 218112, Note_on_c, 2, 72, 65
4, 218300, Note_off_c, 2, 84, 64
4, 218300, Note_off_c, 2, 72, 64
4, 218304, Note_on_c, 2, 81, 68
4, 218304, Note_on_c, 2, 69, 65
4, 218492, Note_off_c, 2, 81, 64
4, 218492, Note_off_c, 2, 69, 64
4, 218496, Note_on_c, 2, 79, 66
4, 218496, Note_on_c, 2, 67, 65
4, 218684, Note_off_c, 2, 79, 64
4, 218684, Note_off_c, 2, 67, 64
4, 218688, Note_on_c, 2, 78, 65
4, 218688, Note_on_c, 2, 66, 65
4, 218876, Note_off_c, 2, 78, 64
4, 218876, Note_off_c, 2, 66, 64
4, 218880, Note_on_c, 2, 84, 69
4, 218880, Note_on_c, 2, 72, 65
4, 219068, Note_off_c, 2, 84, 64
4, 219068, Note_off_c, 2, 72, 64
4, 219072, Note_on_c, 2, 81, 67
4, 219072, Note_on_c, 2, 69, 65
4, 219260, Note_off_c, 2, 81, 64
4, 219260, Note_off_c, 2, 69, 64
4, 219264, Note_on_c, 2, 79, 66
4, 219264, Note_on_c, 2, 67, 65
4, 219452, Note_off_c, 2, 79, 64
4, 219452, Note_off_c, 2, 67, 64
4, 219456, Note_on_c, 2, 78, 65
4, 219456, Note_on_c, 2, 66, 65
4, 219644, Note_off_c, 2, 78, 64
4, 219644, Note_off_c, 2, 66, 64
4, 219648, Note_on_c, 2, 86, 70
4, 219648, Note_on_c, 2, 74, 65
4, 219836, Note_off_c, 2, 86, 64
4, 219836, Note_off_c, 2, 74, 64
4, 219840, Note_on_c, 2, 83, 68
4, 219840, Note_on_c, 2, 71, 65
4, 220028, Note_off_c, 2, 83, 64
4, 220028, Note_off_c, 2, 71, 64
4, 220032, Note_on_c, 2, 81, 67
4, 220032, Note_on_c, 2, 69, 65
4, 220220, Note_off_c, 2, 81, 64
4, 220220, Note_off_c, 2, 69, 64
4, 220224, Note_on_c, 2, 79, 66
4, 220224, Note_on_c, 2, 67, 65
4, 220412, Note_off_c, 2, 79, 64
4, 220412, Note_off_c, 2, 67, 64
4, 220416, Note_on_c, 2, 79, 66
4, 220416, Note_on_c, 2, 67, 65
4, 221180, Note_off_c, 2, 79, 64
4, 221180, Note_off_c, 2, 67, 64
4, 221568, Note_on_c, 2, 74, 65
4, 221948, Note_off_c, 2, 74, 64
4, 221952, Note_on_c, 2, 75, 65
4, 222332, Note_off_c, 2, 75, 64
4, 222336, Note_on_c, 2, 74, 65
4, 222716, Note_off_c, 2, 74, 64
4, 223104, Note_on_c, 2, 86, 70
4, 223484, Note_off_c, 2, 86, 64
4, 223488, Note_on_c, 2, 87, 71
4, 223868, Note_off_c, 2, 87, 64
4, 223872, Note_on_c, 2, 86, 70
4, 224252, Note_off_c, 2, 86, 64
4, 228864, Note_on_c, 2, 79, 66
4, 228864, Note_on_c, 2, 67, 65
4, 229052, Note_off_c, 2, 79, 64
4, 229052, Note_off_c, 2, 67, 64
4, 229248, Note_on_c, 2, 74, 65
4, 229248, Note_on_c, 2, 62, 65
4, 229436, Note_off_c, 2, 74, 64
4, 229436, Note_off_c, 2, 62, 64
4, 229632, Note_on_c, 2, 79, 66
4, 229632, Note_on_c, 2, 67, 65
4, 229820, Note_off_c, 2, 79, 64
4, 229820, Note_off_c, 2, 67, 64
4, 230016, Note_on_c, 2, 83, 68
4, 230016, Note_on_c, 2, 71, 65
4, 230204, Note_off_c, 2, 83, 64
4, 230204, Note_off_c, 2, 71, 64
4, 230400, Note_on_c, 2, 84, 69
4, 230400, Note_on_c, 2, 72, 65
4, 230972, Note_off_c, 2, 84, 64
4, 230972, Note_off_c, 2, 72, 64
4, 230976, Note_on_c, 2, 83, 68
4, 231032, Note_off_c, 2, 83, 64
4, 231040, Note_on_c, 2, 81, 67
4, 231096, Note_off_c, 2, 81, 64
4, 231104, Note_on_c, 2, 79, 66
4, 231160, Note_off_c, 2, 79, 64
4, 231168, Note_on_c, 2, 78, 65
4, 231548, Note_off_c, 2, 78, 64
4, 231936, Note_on_c, 2, 79, 66
4, 231936, Note_on_c, 2, 67, 65
4, 232124, Note_off_c, 2, 79, 64
4, 232124, Note_off_c, 2, 67, 64
4, 232320, Note_on_c, 2, 74, 65
4, 232320, Note_on_c, 2, 62, 65
4, 232508, Note_off_c, 2, 74, 64
4, 232508, Note_off_c, 2, 62, 64
4, 232704, Note_on_c, 2, 79, 66
4, 232704, Note_on_c, 2, 67, 65
4, 232892, Note_off_c, 2, 79, 64
4, 232892, Note_off_c, 2, 67, 64
4, 233088, Note_on_c, 2, 83, 68
4, 233088, Note_on_c, 2, 71, 65
4, 233276, Note_off_c, 2, 83, 64
4, 233276, Note_off_c, 2, 71, 64
4, 233472, Note_on_c, 2, 88, 71
4, 235008, Note_on_c, 2, 84, 69
4, 235008, Note_on_c, 2, 81, 67
4, 235008, Note_on_c, 2, 78, 65
4, 235008, Note_on_c, 2, 66, 65
4, 235196, Note_off_c, 2, 78, 64
4, 235196, Note_off_c, 2, 66, 64
4, 235392, Note_on_c, 2, 72, 65
4, 235392, Note_on_c, 2, 60, 65
4, 235580, Note_off_c, 2, 72, 64
4, 235580, Note_off_c, 2, 60, 64
4, 235776, Note_on_c, 2, 66, 65
4, 235776, Note_on_c, 2, 78, 65
4, 235964, Note_off_c, 2, 66, 64
4, 235964, Note_off_c, 2, 78, 64
4, 236160, Note_on_c, 2, 81, 67
4, 236160, Note_on_c, 2, 69, 65
4, 236348, Note_off_c, 2, 81, 64
4, 236348, Note_off_c, 2, 69, 64
4, 236540, Note_off_c, 2, 88, 64
4, 236544, Note_on_c, 2, 86, 70
4, 238076, Note_off_c, 2, 81, 64
4, 238076, Note_off_c, 2, 84, 64
4, 238080, Note_on_c, 2, 83, 68
4, 238080, Note_on_c, 2, 79, 65
4, 238080, Note_on_c, 2, 76, 65
4, 238080, Note_on_c, 2, 64, 65
4, 238268, Note_off_c, 2, 76, 64
4, 238268, Note_off_c, 2, 64, 64
4, 238464, Note_on_c, 2, 71, 65
4, 238464, Note_on_c, 2, 59, 68
4, 238652, Note_off_c, 2, 71, 64
4, 238652, Note_off_c, 2, 59, 64
4, 238848, Note_on_c, 2, 76, 65
4, 238848, Note_on_c, 2, 64, 65
4, 239036, Note_off_c, 2, 76, 64
4, 239036, Note_off_c, 2, 64, 64
4, 239232, Note_on_c, 2, 79, 66
4, 239232, Note_on_c, 2, 67, 65
4, 239420, Note_off_c, 2, 79, 64
4, 239420, Note_off_c, 2, 67, 64
4, 239612, Note_off_c, 2, 86, 64
4, 239616, Note_on_c, 2, 84, 65
4, 241148, Note_off_c, 2, 79, 64
4, 241148, Note_off_c, 2, 83, 64
4, 241152, Note_on_c, 2, 81, 67
4, 241152, Note_on_c, 2, 78, 65
4, 241152, Note_on_c, 2, 74, 65
4, 241152, Note_on_c, 2, 62, 65
4, 241340, Note_off_c, 2, 74, 64
4, 241340, Note_off_c, 2, 62, 64
4, 241536, Note_on_c, 2, 69, 65
4, 241536, Note_on_c, 2, 57, 65
4, 241724, Note_off_c, 2, 69, 64
4, 241724, Note_off_c, 2, 57, 64
4, 241920, Note_on_c, 2, 74, 65
4, 241920, Note_on_c, 2, 62, 65
4, 242108, Note_off_c, 2, 74, 64
4, 242108, Note_off_c, 2, 62, 64
4, 242304, Note_on_c, 2, 78, 65
4, 242304, Note_on_c, 2, 66, 65
4, 242492, Note_off_c, 2, 78, 64
4, 242492, Note_off_c, 2, 66, 64
4, 242684, Note_off_c, 2, 84, 64
4, 242684, Note_off_c, 2, 81, 64
4, 242684, Note_off_c, 2, 78, 64
4, 242688, Note_on_c, 2, 79, 66
4, 242688, Note_on_c, 2, 83, 68
4, 242688, Note_on_c, 2, 67, 65
4, 243068, Note_off_c, 2, 79, 64
4, 243068, Note_off_c, 2, 83, 64
4, 243068, Note_off_c, 2, 67, 64
4, 243840, Note_on_c, 2, 83, 68
4, 243840, Note_on_c, 2, 74, 65
4, 244028, Note_off_c, 2, 83, 64
4, 244028, Note_off_c, 2, 74, 64
4, 244032, Note_on_c, 2, 81, 67
4, 244032, Note_on_c, 2, 69, 65
4, 244032, Note_on_c, 2, 74, 65
4, 244220, Note_off_c, 2, 81, 64
4, 244220, Note_off_c, 2, 69, 64
4, 244220, Note_off_c, 2, 74, 64
4, 244224, Note_on_c, 2, 79, 66
4, 244224, Note_on_c, 2, 76, 65
4, 244224, Note_on_c, 2, 71, 65
4, 244604, Note_off_c, 2, 79, 64
4, 244604, Note_off_c, 2, 76, 64
4, 244604, Note_off_c, 2, 71, 64
4, 245376, Note_on_c, 2, 79, 66
4, 245376, Note_on_c, 2, 71, 65
4, 245564, Note_off_c, 2, 79, 64
4, 245564, Note_off_c, 2, 71, 64
4, 245568, Note_on_c, 2, 78, 65
4, 245568, Note_on_c, 2, 71, 65
4, 245568, Note_on_c, 2, 66, 65
4, 245756, Note_off_c, 2, 78, 64
4, 245756, Note_off_c, 2, 71, 64
4, 245756, Note_off_c, 2, 66, 64
4, 245760, Note_on_c, 2, 76, 65
4, 245760, Note_on_c, 2, 72, 65
4, 245760, Note_on_c, 2, 67, 65
4, 246140, Note_off_c, 2, 76, 64
4, 246140, Note_off_c, 2, 72, 64
4, 246140, Note_off_c, 2, 67, 64
4, 246912, Note_on_c, 2, 76, 65
4, 246912, Note_on_c, 2, 67, 65
4, 247100, Note_off_c, 2, 76, 64
4, 247100, Note_off_c, 2, 67, 64
4, 247104, Note_on_c, 2, 74, 65
4, 247104, Note_on_c, 2, 67, 65
4, 247104, Note_on_c, 2, 62, 65
4, 247292, Note_off_c, 2, 74, 64
4, 247292, Note_off_c, 2, 67, 64
4, 247292, Note_off_c, 2, 62, 64
4, 247296, Note_on_c, 2, 72, 65
4, 247296, Note_on_c, 2, 69, 65
4, 247296, Note_on_c, 2, 64, 65
4, 247676, Note_off_c, 2, 72, 64
4, 247676, Note_off_c, 2, 69, 64
4, 247676, Note_off_c, 2, 64, 64
4, 247680, Note_on_c, 2, 72, 65
4, 247680, Note_on_c, 2, 64, 65
4, 247868, Note_off_c, 2, 72, 64
4, 247868, Note_off_c, 2, 64, 64
4, 247872, Note_on_c, 2, 71, 65
4, 247872, Note_on_c, 2, 64, 65
4, 247872, Note_on_c, 2, 59, 65
4, 248060, Note_off_c, 2, 71, 64
4, 248060, Note_off_c, 2, 64, 64
4, 248060, Note_off_c, 2, 59, 64
4, 248064, Note_on_c, 2, 69, 65
4, 248064, Note_on_c, 2, 66, 65
4, 248064, Note_on_c, 2, 60, 65
4, 248444, Note_off_c, 2, 69, 64
4, 248444, Note_off_c, 2, 66, 64
4, 248444, Note_off_c, 2, 60, 64
4, 248448, Note_on_c, 2, 69, 65
4, 248448, Note_on_c, 2, 60, 65
4, 248636, Note_off_c, 2, 69, 64
4, 248636, Note_off_c, 2, 60, 64
4, 248640, Note_on_c, 2, 67, 65
4, 248640, Note_on_c, 2, 60, 65
4, 248640, Note_on_c, 2, 55, 65
4, 248828, Note_off_c, 2, 67, 64
4, 248828, Note_off_c, 2, 60, 64
4, 248828, Note_off_c, 2, 55, 64
4, 248832, Note_on_c, 2, 66, 65
4, 248832, Note_on_c, 2, 60, 65
4, 248832, Note_on_c, 2, 57, 65
4, 249404, Note_off_c, 2, 66, 64
4, 249408, Note_on_c, 2, 67, 65
4, 249596, Note_off_c, 2, 67, 64
4, 249600, Note_on_c, 2, 66, 65
4, 249788, Note_off_c, 2, 66, 64
4, 249792, Note_on_c, 2, 67, 65
4, 249980, Note_off_c, 2, 67, 64
4, 249984, Note_on_c, 2, 66, 65
4, 250172, Note_off_c, 2, 66, 64
4, 250176, Note_on_c, 2, 67, 65
4, 250364, Note_off_c, 2, 67, 64
4, 250368, Note_on_c, 2, 66, 65
4, 250940, Note_off_c, 2, 66, 64
4, 250944, Note_on_c, 2, 67, 65
4, 251132, Note_off_c, 2, 67, 64
4, 251136, Note_on_c, 2, 66, 65
4, 251324, Note_off_c, 2, 66, 64
4, 251328, Note_on_c, 2, 67, 65
4, 251516, Note_off_c, 2, 67, 64
4, 251520, Note_on_c, 2, 66, 65
4, 251708, Note_off_c, 2, 66, 64
4, 251712, Note_on_c, 2, 67, 65
4, 251900, Note_off_c, 2, 67, 64
4, 251904, Note_on_c, 2, 66, 65
4, 252284, Note_off_c, 2, 57, 64
4, 252284, Note_off_c, 2, 60, 64
4, 252284, Note_off_c, 2, 66, 64
4, 255360, Note_on_c, 2, 72, 85
4, 255360, Note_on_c, 2, 79, 86
4, 255360, Note_on_c, 2, 69, 85
4, 255740, Note_off_c, 2, 72, 64
4, 255740, Note_off_c, 2, 79, 64
4, 255740, Note_off_c, 2, 69, 64
4, 255744, Note_on_c, 2, 79, 86
4, 255744, Note_on_c, 2, 71, 85
4, 255744, Note_on_c, 2, 67, 85
4, 256124, Note_off_c, 2, 79, 64
4, 256124, Note_off_c, 2, 71, 64
4, 256124, Note_off_c, 2, 67, 64
4, 256128, Note_on_c, 2, 71, 85
4, 256128, Note_on_c, 2, 67, 85
4, 256128, Note_on_c, 2, 65, 85
4, 256128, Note_on_c, 2, 77, 85
4, 256508, Note_off_c, 2, 71, 64
4, 256508, Note_off_c, 2, 67, 64
4, 256508, Note_off_c, 2, 65, 64
4, 256508, Note_off_c, 2, 77, 64
4, 256512, Note_on_c, 2, 76, 85
4, 256512, Note_on_c, 2, 72, 85
4, 256512, Note_on_c, 2, 67, 85
4, 256512, Note_on_c, 2, 64, 85
4, 256892, Note_off_c, 2, 76, 64
4, 256892, Note_off_c, 2, 72, 64
4, 256892, Note_off_c, 2, 67, 64
4, 256892, Note_off_c, 2, 64, 64
4, 262848, Note_on_c, 2, 71, 65
4, 262848, Note_on_c, 2, 67, 65
4, 262848, Note_on_c, 2, 62, 65
4, 263036, Note_off_c, 2, 71, 64
4, 263036, Note_off_c, 2, 67, 64
4, 263036, Note_off_c, 2, 62, 64
4, 263040, Note_on_c, 2, 71, 65
4, 263040, Note_on_c, 2, 67, 65
4, 263040, Note_on_c, 2, 62, 65
4, 263228, Note_off_c, 2, 71, 64
4, 263228, Note_off_c, 2, 67, 64
4, 263228, Note_off_c, 2, 62, 64
4, 263232, Note_on_c, 2, 71, 65
4, 263232, Note_on_c, 2, 67, 65
4, 263232, Note_on_c, 2, 62, 65
4, 263420, Note_off_c, 2, 71, 64
4, 263420, Note_off_c, 2, 67, 64
4, 263420, Note_off_c, 2, 62, 64
4, 263424, Note_on_c, 2, 71, 65
4, 263424, Note_on_c, 2, 67, 65
4, 263424, Note_on_c, 2, 62, 65
4, 263612, Note_off_c, 2, 71, 64
4, 263612, Note_off_c, 2, 67, 64
4, 263612, Note_off_c, 2, 62, 64
4, 263616, Note_on_c, 2, 71, 65
4, 263616, Note_on_c, 2, 67, 65
4, 263616, Note_on_c, 2, 62, 65
4, 263804, Note_off_c, 2, 71, 64
4, 263804, Note_off_c, 2, 67, 64
4, 263804, Note_off_c, 2, 62, 64
4, 263808, Note_on_c, 2, 71, 65
4, 263808, Note_on_c, 2, 67, 65
4, 263808, Note_on_c, 2, 62, 65
4, 263996, Note_off_c, 2, 71, 64
4, 263996, Note_off_c, 2, 67, 64
4, 263996, Note_off_c, 2, 62, 64
4, 264000, Note_on_c, 2, 71, 65
4, 264000, Note_on_c, 2, 67, 65
4, 264000, Note_on_c, 2, 62, 65
4, 264188, Note_off_c, 2, 71, 64
4, 264188, Note_off_c, 2, 67, 64
4, 264188, Note_off_c, 2, 62, 64
4, 264192, Note_on_c, 2, 71, 65
4, 264192, Note_on_c, 2, 67, 65
4, 264192, Note_on_c, 2, 62, 65
4, 264380, Note_off_c, 2, 71, 64
4, 264380, Note_off_c, 2, 67, 64
4, 264380, Note_off_c, 2, 62, 64
4, 264384, Note_on_c, 2, 71, 65
4, 264384, Note_on_c, 2, 67, 65
4, 264384, Note_on_c, 2, 62, 65
4, 264572, Note_off_c, 2, 71, 64
4, 264572, Note_off_c, 2, 67, 64
4, 264572, Note_off_c, 2, 62, 64
4, 264576, Note_on_c, 2, 71, 65
4, 264576, Note_on_c, 2, 62, 65
4, 264576, Note_on_c, 2, 67, 65
4, 264764, Note_off_c, 2, 71, 64
4, 264764, Note_off_c, 2, 62, 64
4, 264764, Note_off_c, 2, 67, 64
4, 264768, Note_on_c, 2, 71, 65
4, 264768, Note_on_c, 2, 67, 65
4, 264768, Note_on_c, 2, 62, 65
4, 264956, Note_off_c, 2, 71, 64
4, 264956, Note_off_c, 2, 67, 64
4, 264956, Note_off_c, 2, 62, 64
4, 264960, Note_on_c, 2, 69, 65
4, 264960, Note_on_c, 2, 66, 65
4, 264960, Note_on_c, 2, 62, 65
4, 264960, Note_on_c, 2, 60, 65
4, 265148, Note_off_c, 2, 69, 64
4, 265148, Note_off_c, 2, 66, 64
4, 265148, Note_off_c, 2, 62, 64
4, 265148, Note_off_c, 2, 60, 64
4, 265152, Note_on_c, 2, 69, 65
4, 265152, Note_on_c, 2, 66, 65
4, 265152, Note_on_c, 2, 62, 65
4, 265152, Note_on_c, 2, 60, 65
4, 265340, Note_off_c, 2, 69, 64
4, 265340, Note_off_c, 2, 66, 64
4, 265340, Note_off_c, 2, 62, 64
4, 265340, Note_off_c, 2, 60, 64
4, 265344, Note_on_c, 2, 69, 65
4, 265344, Note_on_c, 2, 66, 65
4, 265344, Note_on_c, 2, 62, 65
4, 265344, Note_on_c, 2, 60, 65
4, 265532, Note_off_c, 2, 69, 64
4, 265532, Note_off_c, 2, 66, 64
4, 265532, Note_off_c, 2, 62, 64
4, 265532, Note_off_c, 2, 60, 64
4, 265536, Note_on_c, 2, 69, 65
4, 265536, Note_on_c, 2, 66, 65
4, 265536, Note_on_c, 2, 62, 65
4, 265536, Note_on_c, 2, 60, 65
4, 265724, Note_off_c, 2, 69, 64
4, 265724, Note_off_c, 2, 66, 64
4, 265724, Note_off_c, 2, 62, 64
4, 265724, Note_off_c, 2, 60, 64
4, 265728, Note_on_c, 2, 67, 65
4, 265728, Note_on_c, 2, 62, 65
4, 265728, Note_on_c, 2, 59, 65
4, 266108, Note_off_c, 2, 67, 64
4, 266108, Note_off_c, 2, 62, 64
4, 266108, Note_off_c, 2, 59, 64
4, 278208, Note_on_c, 2, 71, 65
4, 278208, Note_on_c, 2, 67, 65
4, 278208, Note_on_c, 2, 62, 65
4, 278396, Note_off_c, 2, 71, 64
4, 278396, Note_off_c, 2, 67, 64
4, 278396, Note_off_c, 2, 62, 64
4, 278400, Note_on_c, 2, 71, 65
4, 278400, Note_on_c, 2, 67, 65
4, 278400, Note_on_c, 2, 62, 65
4, 278588, Note_off_c, 2, 71, 64
4, 278588, Note_off_c, 2, 67, 64
4, 278588, Note_off_c, 2, 62, 64
4, 278592, Note_on_c, 2, 71, 65
4, 278592, Note_on_c, 2, 62, 65
4, 278592, Note_on_c, 2, 67, 65
4, 278780, Note_off_c, 2, 71, 64
4, 278780, Note_off_c, 2, 62, 64
4, 278780, Note_off_c, 2, 67, 64
4, 278784, Note_on_c, 2, 69, 65
4, 278784, Note_on_c, 2, 66, 65
4, 278784, Note_on_c, 2, 62, 65
4, 278784, Note_on_c, 2, 60, 65
4, 278972, Note_off_c, 2, 69, 64
4, 278972, Note_off_c, 2, 66, 64
4, 278972, Note_off_c, 2, 62, 64
4, 278972, Note_off_c, 2, 60, 64
4, 278976, Note_on_c, 2, 69, 65
4, 278976, Note_on_c, 2, 66, 65
4, 278976, Note_on_c, 2, 62, 65
4, 278976, Note_on_c, 2, 60, 65
4, 279164, Note_off_c, 2, 69, 64
4, 279164, Note_off_c, 2, 66, 64
4, 279164, Note_off_c, 2, 62, 64
4, 279164, Note_off_c, 2, 60, 64
4, 279168, Note_on_c, 2, 69, 65
4, 279168, Note_on_c, 2, 66, 65
4, 279168, Note_on_c, 2, 62, 65
4, 279168, Note_on_c, 2, 60, 65
4, 279356, Note_off_c, 2, 69, 64
4, 279356, Note_off_c, 2, 66, 64
4, 279356, Note_off_c, 2, 62, 64
4, 279356, Note_off_c, 2, 60, 64
4, 279360, Note_on_c, 2, 69, 65
4, 279360, Note_on_c, 2, 66, 65
4, 279360, Note_on_c, 2, 62, 65
4, 279360, Note_on_c, 2, 60, 65
4, 279548, Note_off_c, 2, 69, 64
4, 279548, Note_off_c, 2, 66, 64
4, 279548, Note_off_c, 2, 62, 64
4, 279548, Note_off_c, 2, 60, 64
4, 279552, Note_on_c, 2, 67, 65
4, 279552, Note_on_c, 2, 62, 65
4, 279552, Note_on_c, 2, 59, 65
4, 279932, Note_off_c, 2, 67, 64
4, 279932, Note_off_c, 2, 62, 64
4, 279932, Note_off_c, 2, 59, 64
4, 283776, Note_on_c, 2, 71, 65
4, 283776, Note_on_c, 2, 83, 68
4, 283964, Note_off_c, 2, 71, 64
4, 283964, Note_off_c, 2, 83, 64
4, 283968, Note_on_c, 2, 69, 65
4, 283968, Note_on_c, 2, 81, 67
4, 284156, Note_off_c, 2, 69, 64
4, 284156, Note_off_c, 2, 81, 64
4, 284160, Note_on_c, 2, 79, 66
4, 284160, Note_on_c, 2, 67, 65
4, 284540, Note_off_c, 2, 79, 64
4, 284540, Note_off_c, 2, 67, 64
4, 285312, Note_on_c, 2, 79, 66
4, 285312, Note_on_c, 2, 67, 65
4, 285500, Note_off_c, 2, 79, 64
4, 285500, Note_off_c, 2, 67, 64
4, 285504, Note_on_c, 2, 78, 65
4, 285504, Note_on_c, 2, 66, 65
4, 285692, Note_off_c, 2, 78, 64
4, 285692, Note_off_c, 2, 66, 64
4, 285696, Note_on_c, 2, 76, 65
4, 285696, Note_on_c, 2, 64, 65
4, 286076, Note_off_c, 2, 76, 64
4, 286076, Note_off_c, 2, 64, 64
4, 286848, Note_on_c, 2, 76, 65
4, 286848, Note_on_c, 2, 64, 65
4, 287036, Note_off_c, 2, 76, 64
4, 287036, Note_off_c, 2, 64, 64
4, 287040, Note_on_c, 2, 74, 65
4, 287040, Note_on_c, 2, 62, 65
4, 287228, Note_off_c, 2, 74, 64
4, 287228, Note_off_c, 2, 62, 64
4, 287232, Note_on_c, 2, 72, 65
4, 287232, Note_on_c, 2, 60, 65
4, 287612, Note_off_c, 2, 72, 64
4, 287612, Note_off_c, 2, 60, 64
4, 288768, Note_on_c, 2, 67, 65
4, 288768, Note_on_c, 2, 71, 65
4, 288768, Note_on_c, 2, 74, 65
4, 290300, Note_off_c, 2, 71, 64
4, 290300, Note_off_c, 2, 74, 64
4, 290304, Note_on_c, 2, 72, 65
4, 290304, Note_on_c, 2, 76, 65
4, 291836, Note_off_c, 2, 67, 64
4, 291836, Note_off_c, 2, 72, 64
4, 291836, Note_off_c, 2, 76, 64
4, 291840, Note_on_c, 2, 67, 65
4, 291840, Note_on_c, 2, 64, 65
4, 291840, Note_on_c, 2, 58, 65
4, 292608, Note_on_c, 2, 70, 65
4, 292608, Note_on_c, 2, 67, 65
4, 292608, Note_on_c, 2, 64, 65
4, 292796, Note_off_c, 2, 67, 64
4, 292796, Note_off_c, 2, 64, 64
4, 292796, Note_off_c, 2, 70, 64
4, 292988, Note_off_c, 2, 58, 64
4, 292988, Note_off_c, 2, 67, 64
4, 292988, Note_off_c, 2, 64, 64
4, 293376, Note_on_c, 2, 73, 65
4, 293376, Note_on_c, 2, 70, 65
4, 293376, Note_on_c, 2, 67, 65
4, 293564, Note_off_c, 2, 73, 64
4, 293564, Note_off_c, 2, 70, 64
4, 293564, Note_off_c, 2, 67, 64
4, 293760, Note_on_c, 2, 76, 65
4, 293760, Note_on_c, 2, 73, 65
4, 293760, Note_on_c, 2, 70, 65
4, 293948, Note_off_c, 2, 76, 64
4, 293948, Note_off_c, 2, 73, 64
4, 293948, Note_off_c, 2, 70, 64
4, 294144, Note_on_c, 2, 79, 66
4, 294144, Note_on_c, 2, 76, 65
4, 294144, Note_on_c, 2, 73, 65
4, 294332, Note_off_c, 2, 79, 64
4, 294332, Note_off_c, 2, 76, 64
4, 294332, Note_off_c, 2, 73, 64
4, 294528, Note_on_c, 2, 79, 66
4, 294528, Note_on_c, 2, 76, 65
4, 294528, Note_on_c, 2, 82, 68
4, 294716, Note_off_c, 2, 79, 64
4, 294716, Note_off_c, 2, 76, 64
4, 294716, Note_off_c, 2, 82, 64
4, 296256, Note_on_c, 2, 66, 65
4, 296444, Note_off_c, 2, 66, 64
4, 296448, Note_on_c, 2, 67, 65
4, 296636, Note_off_c, 2, 67, 64
4, 296640, Note_on_c, 2, 69, 65
4, 296828, Note_off_c, 2, 69, 64
4, 296832, Note_on_c, 2, 71, 65
4, 297020, Note_off_c, 2, 71, 64
4, 297024, Note_on_c, 2, 72, 65
4, 297212, Note_off_c, 2, 72, 64
4, 297216, Note_on_c, 2, 74, 65
4, 297216, Note_on_c, 2, 62, 65
4, 297404, Note_off_c, 2, 74, 64
4, 297404, Note_off_c, 2, 62, 64
4, 297408, Note_on_c, 2, 78, 65
4, 297408, Note_on_c, 2, 66, 65
4, 297596, Note_off_c, 2, 78, 64
4, 297596, Note_off_c, 2, 66, 64
4, 297600, Note_on_c, 2, 79, 66
4, 297600, Note_on_c, 2, 67, 65
4, 297788, Note_off_c, 2, 79, 64
4, 297788, Note_off_c, 2, 67, 64
4, 297792, Note_on_c, 2, 81, 67
4, 297792, Note_on_c, 2, 69, 65
4, 297980, Note_off_c, 2, 81, 64
4, 297980, Note_off_c, 2, 69, 64
4, 297984, Note_on_c, 2, 83, 68
4, 297984, Note_on_c, 2, 79, 66
4, 297984, Note_on_c, 2, 74, 65
4, 297984, Note_on_c, 2, 71, 65
4, 298364, Note_off_c, 2, 71, 64
4, 298748, Note_off_c, 2, 74, 64
4, 298752, Note_on_c, 2, 71, 65
4, 299132, Note_off_c, 2, 71, 64
4, 299136, Note_on_c, 2, 67, 65
4, 299516, Note_off_c, 2, 67, 64
4, 301052, Note_off_c, 2, 79, 64
4, 301052, Note_off_c, 2, 83, 64
4, 301056, Note_on_c, 2, 71, 65
4, 301056, Note_on_c, 2, 67, 65
4, 301056, Note_on_c, 2, 62, 65
4, 301244, Note_off_c, 2, 71, 64
4, 301244, Note_off_c, 2, 67, 64
4, 301244, Note_off_c, 2, 62, 64
4, 301248, Note_on_c, 2, 71, 65
4, 301248, Note_on_c, 2, 67, 65
4, 301248, Note_on_c, 2, 62, 65
4, 301436, Note_off_c, 2, 71, 64
4, 301436, Note_off_c, 2, 67, 64
4, 301436, Note_off_c, 2, 62, 64
4, 301440, Note_on_c, 2, 71, 65
4, 301440, Note_on_c, 2, 67, 65
4, 301440, Note_on_c, 2, 62, 65
4, 301628, Note_off_c, 2, 71, 64
4, 301628, Note_off_c, 2, 67, 64
4, 301628, Note_off_c, 2, 62, 64
4, 301632, Note_on_c, 2, 71, 65
4, 301632, Note_on_c, 2, 67, 65
4, 301632, Note_on_c, 2, 62, 65
4, 301820, Note_off_c, 2, 71, 64
4, 301820, Note_off_c, 2, 67, 64
4, 301820, Note_off_c, 2, 62, 64
4, 301824, Note_on_c, 2, 71, 65
4, 301824, Note_on_c, 2, 67, 65
4, 301824, Note_on_c, 2, 62, 65
4, 302012, Note_off_c, 2, 71, 64
4, 302012, Note_off_c, 2, 67, 64
4, 302012, Note_off_c, 2, 62, 64
4, 302016, Note_on_c, 2, 71, 65
4, 302016, Note_on_c, 2, 67, 65
4, 302016, Note_on_c, 2, 62, 65
4, 302204, Note_off_c, 2, 71, 64
4, 302204, Note_off_c, 2, 67, 64
4, 302204, Note_off_c, 2, 62, 64
4, 302208, Note_on_c, 2, 71, 65
4, 302208, Note_on_c, 2, 67, 65
4, 302208, Note_on_c, 2, 62, 65
4, 302396, Note_off_c, 2, 71, 64
4, 302396, Note_off_c, 2, 67, 64
4, 302396, Note_off_c, 2, 62, 64
4, 302400, Note_on_c, 2, 71, 65
4, 302400, Note_on_c, 2, 67, 65
4, 302400, Note_on_c, 2, 62, 65
4, 302588, Note_off_c, 2, 71, 64
4, 302588, Note_off_c, 2, 67, 64
4, 302588, Note_off_c, 2, 62, 64
4, 302592, Note_on_c, 2, 69, 65
4, 302592, Note_on_c, 2, 66, 65
4, 302592, Note_on_c, 2, 62, 65
4, 302592, Note_on_c, 2, 60, 65
4, 302780, Note_off_c, 2, 69, 64
4, 302780, Note_off_c, 2, 66, 64
4, 302780, Note_off_c, 2, 62, 64
4, 302780, Note_off_c, 2, 60, 64
4, 302784, Note_on_c, 2, 69, 65
4, 302784, Note_on_c, 2, 66, 65
4, 302784, Note_on_c, 2, 62, 65
4, 302784, Note_on_c, 2, 60, 65
4, 302972, Note_off_c, 2, 69, 64
4, 302972, Note_off_c, 2, 66, 64
4, 302972, Note_off_c, 2, 62, 64
4, 302972, Note_off_c, 2, 60, 64
4, 302976, Note_on_c, 2, 69, 65
4, 302976, Note_on_c, 2, 66, 65
4, 302976, Note_on_c, 2, 62, 65
4, 302976, Note_on_c, 2, 60, 65
4, 303164, Note_off_c, 2, 69, 64
4, 303164, Note_off_c, 2, 66, 64
4, 303164, Note_off_c, 2, 62, 64
4, 303164, Note_off_c, 2, 60, 64
4, 303168, Note_on_c, 2, 69, 65
4, 303168, Note_on_c, 2, 66, 65
4, 303168, Note_on_c, 2, 62, 65
4, 303168, Note_on_c, 2, 60, 65
4, 303356, Note_off_c, 2, 69, 64
4, 303356, Note_off_c, 2, 66, 64
4, 303356, Note_off_c, 2, 62, 64
4, 303356, Note_off_c, 2, 60, 64
4, 303360, Note_on_c, 2, 69, 65
4, 303360, Note_on_c, 2, 66, 65
4, 303360, Note_on_c, 2, 62, 65
4, 303360, Note_on_c, 2, 60, 65
4, 303548, Note_off_c, 2, 69, 64
4, 303548, Note_off_c, 2, 66, 64
4, 303548, Note_off_c, 2, 62, 64
4, 303548, Note_off_c, 2, 60, 64
4, 303552, Note_on_c, 2, 69, 65
4, 303552, Note_on_c, 2, 66, 65
4, 303552, Note_on_c, 2, 62, 65
4, 303552, Note_on_c, 2, 60, 65
4, 303740, Note_off_c, 2, 69, 64
4, 303740, Note_off_c, 2, 66, 64
4, 303740, Note_off_c, 2, 62, 64
4, 303740, Note_off_c, 2, 60, 64
4, 303744, Note_on_c, 2, 69, 65
4, 303744, Note_on_c, 2, 66, 65
4, 303744, Note_on_c, 2, 62, 65
4, 303744, Note_on_c, 2, 60, 65
4, 303932, Note_off_c, 2, 69, 64
4, 303932, Note_off_c, 2, 66, 64
4, 303932, Note_off_c, 2, 62, 64
4, 303932, Note_off_c, 2, 60, 64
4, 303936, Note_on_c, 2, 69, 65
4, 303936, Note_on_c, 2, 66, 65
4, 303936, Note_on_c, 2, 62, 65
4, 303936, Note_on_c, 2, 60, 65
4, 304124, Note_off_c, 2, 69, 64
4, 304124, Note_off_c, 2, 66, 64
4, 304124, Note_off_c, 2, 62, 64
4, 304124, Note_off_c, 2, 60, 64
4, 304128, Note_on_c, 2, 76, 90
4, 304128, Note_on_c, 2, 71, 90
4, 304128, Note_on_c, 2, 67, 90
4, 304220, Note_off_c, 2, 76, 64
4, 304220, Note_off_c, 2, 71, 64
4, 304220, Note_off_c, 2, 67, 64
4, 304224, Note_on_c, 2, 79, 91
4, 304316, Note_off_c, 2, 79, 64
4, 304320, Note_on_c, 2, 71, 90
4, 304412, Note_off_c, 2, 71, 64
4, 304416, Note_on_c, 2, 79, 91
4, 304508, Note_off_c, 2, 79, 64
4, 304512, Note_on_c, 2, 71, 90
4, 304604, Note_off_c, 2, 71, 64
4, 304608, Note_on_c, 2, 79, 91
4, 304700, Note_off_c, 2, 79, 64
4, 304704, Note_on_c, 2, 71, 90
4, 304796, Note_off_c, 2, 71, 64
4, 304800, Note_on_c, 2, 79, 91
4, 304892, Note_off_c, 2, 79, 64
4, 304896, Note_on_c, 2, 71, 90
4, 304988, Note_off_c, 2, 71, 64
4, 304992, Note_on_c, 2, 79, 91
4, 305084, Note_off_c, 2, 79, 64
4, 305088, Note_on_c, 2, 71, 90
4, 305180, Note_off_c, 2, 71, 64
4, 305184, Note_on_c, 2, 79, 91
4, 305276, Note_off_c, 2, 79, 64
4, 305280, Note_on_c, 2, 71, 90
4, 305372, Note_off_c, 2, 71, 64
4, 305376, Note_on_c, 2, 79, 91
4, 305468, Note_off_c, 2, 79, 64
4, 305472, Note_on_c, 2, 71, 90
4, 305564, Note_off_c, 2, 71, 64
4, 305568, Note_on_c, 2, 79, 91
4, 305660, Note_off_c, 2, 79, 64
4, 305664, Note_on_c, 2, 74, 90
4, 305664, Note_on_c, 2, 69, 90
4, 305756, Note_off_c, 2, 74, 64
4, 305756, Note_off_c, 2, 69, 64
4, 305760, Note_on_c, 2, 79, 91
4, 305852, Note_off_c, 2, 79, 64
4, 305856, Note_on_c, 2, 74, 90
4, 305856, Note_on_c, 2, 69, 90
4, 305948, Note_off_c, 2, 74, 64
4, 305948, Note_off_c, 2, 69, 64
4, 305952, Note_on_c, 2, 79, 91
4, 306044, Note_off_c, 2, 79, 64
4, 306048, Note_on_c, 2, 74, 90
4, 306048, Note_on_c, 2, 69, 90
4, 306140, Note_off_c, 2, 74, 64
4, 306140, Note_off_c, 2, 69, 64
4, 306144, Note_on_c, 2, 76, 91
4, 306236, Note_off_c, 2, 76, 64
4, 306240, Note_on_c, 2, 74, 90
4, 306240, Note_on_c, 2, 69, 90
4, 306332, Note_off_c, 2, 74, 64
4, 306332, Note_off_c, 2, 69, 64
4, 306336, Note_on_c, 2, 76, 90
4, 306428, Note_off_c, 2, 76, 64
4, 306432, Note_on_c, 2, 74, 90
4, 306432, Note_on_c, 2, 69, 90
4, 306524, Note_off_c, 2, 74, 64
4, 306524, Note_off_c, 2, 69, 64
4, 306528, Note_on_c, 2, 78, 90
4, 306620, Note_off_c, 2, 78, 64
4, 306624, Note_on_c, 2, 74, 90
4, 306624, Note_on_c, 2, 69, 90
4, 306716, Note_off_c, 2, 74, 64
4, 306716, Note_off_c, 2, 69, 64
4, 306720, Note_on_c, 2, 78, 90
4, 306812, Note_off_c, 2, 78, 64
4, 306816, Note_on_c, 2, 74, 90
4, 306816, Note_on_c, 2, 71, 90
4, 306908, Note_off_c, 2, 74, 64
4, 306908, Note_off_c, 2, 71, 64
4, 306912, Note_on_c, 2, 80, 92
4, 307004, Note_off_c, 2, 80, 64
4, 307008, Note_on_c, 2, 74, 90
4, 307008, Note_on_c, 2, 71, 90
4, 307100, Note_off_c, 2, 74, 64
4, 307100, Note_off_c, 2, 71, 64
4, 307104, Note_on_c, 2, 80, 92
4, 307196, Note_off_c, 2, 80, 64
4, 307200, Note_on_c, 2, 74, 90
4, 307200, Note_on_c, 2, 72, 90
4, 307292, Note_off_c, 2, 74, 64
4, 307292, Note_off_c, 2, 72, 64
4, 307296, Note_on_c, 2, 81, 92
4, 307388, Note_off_c, 2, 81, 64
4, 307392, Note_on_c, 2, 72, 90
4, 307484, Note_off_c, 2, 72, 64
4, 307488, Note_on_c, 2, 81, 92
4, 307580, Note_off_c, 2, 81, 64
4, 307584, Note_on_c, 2, 72, 90
4, 307676, Note_off_c, 2, 72, 64
4, 307680, Note_on_c, 2, 81, 92
4, 307772, Note_off_c, 2, 81, 64
4, 307776, Note_on_c, 2, 72, 90
4, 307868, Note_off_c, 2, 72, 64
4, 307872, Note_on_c, 2, 81, 92
4, 307964, Note_off_c, 2, 81, 64
4, 307968, Note_on_c, 2, 72, 90
4, 308060, Note_off_c, 2, 72, 64
4, 308064, Note_on_c, 2, 81, 92
4, 308156, Note_off_c, 2, 81, 64
4, 308160, Note_on_c, 2, 72, 90
4, 308252, Note_off_c, 2, 72, 64
4, 308256, Note_on_c, 2, 81, 92
4, 308348, Note_off_c, 2, 81, 64
4, 308352, Note_on_c, 2, 72, 90
4, 308444, Note_off_c, 2, 72, 64
4, 308448, Note_on_c, 2, 81, 92
4, 308540, Note_off_c, 2, 81, 64
4, 308544, Note_on_c, 2, 72, 90
4, 308636, Note_off_c, 2, 72, 64
4, 308640, Note_on_c, 2, 81, 92
4, 308732, Note_off_c, 2, 81, 64
4, 308736, Note_on_c, 2, 74, 90
4, 308736, Note_on_c, 2, 71, 90
4, 308828, Note_off_c, 2, 74, 64
4, 308828, Note_off_c, 2, 71, 64
4, 308832, Note_on_c, 2, 81, 92
4, 308924, Note_off_c, 2, 81, 64
4, 308928, Note_on_c, 2, 74, 90
4, 308928, Note_on_c, 2, 71, 90
4, 309020, Note_off_c, 2, 74, 64
4, 309020, Note_off_c, 2, 71, 64
4, 309024, Note_on_c, 2, 81, 92
4, 309116, Note_off_c, 2, 81, 64
4, 309120, Note_on_c, 2, 74, 90
4, 309120, Note_on_c, 2, 71, 90
4, 309212, Note_off_c, 2, 74, 64
4, 309212, Note_off_c, 2, 71, 64
4, 309216, Note_on_c, 2, 78, 90
4, 309308, Note_off_c, 2, 78, 64
4, 309312, Note_on_c, 2, 74, 90
4, 309312, Note_on_c, 2, 71, 90
4, 309404, Note_off_c, 2, 74, 64
4, 309404, Note_off_c, 2, 71, 64
4, 309408, Note_on_c, 2, 78, 90
4, 309500, Note_off_c, 2, 78, 64
4, 309504, Note_on_c, 2, 67, 90
4, 309504, Note_on_c, 2, 74, 90
4, 309596, Note_off_c, 2, 67, 64
4, 309596, Note_off_c, 2, 74, 64
4, 309600, Note_on_c, 2, 79, 91
4, 309692, Note_off_c, 2, 79, 64
4, 309696, Note_on_c, 2, 74, 90
4, 309696, Note_on_c, 2, 67, 90
4, 309788, Note_off_c, 2, 74, 64
4, 309788, Note_off_c, 2, 67, 64
4, 309792, Note_on_c, 2, 79, 91
4, 309884, Note_off_c, 2, 79, 64
4, 309888, Note_on_c, 2, 78, 91
4, 309888, Note_on_c, 2, 74, 90
4, 309980, Note_off_c, 2, 78, 64
4, 309980, Note_off_c, 2, 74, 64
4, 309984, Note_on_c, 2, 81, 92
4, 310076, Note_off_c, 2, 81, 64
4, 310080, Note_on_c, 2, 78, 91
4, 310080, Note_on_c, 2, 74, 90
4, 310172, Note_off_c, 2, 78, 64
4, 310172, Note_off_c, 2, 74, 64
4, 310176, Note_on_c, 2, 81, 92
4, 310268, Note_off_c, 2, 81, 64
4, 310272, Note_on_c, 2, 79, 91
4, 310272, Note_on_c, 2, 74, 90
4, 310364, Note_off_c, 2, 79, 64
4, 310364, Note_off_c, 2, 74, 64
4, 310368, Note_on_c, 2, 82, 93
4, 310460, Note_off_c, 2, 82, 64
4, 310464, Note_on_c, 2, 79, 91
4, 310556, Note_off_c, 2, 79, 64
4, 310560, Note_on_c, 2, 82, 93
4, 310652, Note_off_c, 2, 82, 64
4, 310656, Note_on_c, 2, 79, 91
4, 310748, Note_off_c, 2, 79, 64
4, 310752, Note_on_c, 2, 82, 93
4, 310844, Note_off_c, 2, 82, 64
4, 310848, Note_on_c, 2, 79, 91
4, 310940, Note_off_c, 2, 79, 64
4, 310944, Note_on_c, 2, 82, 93
4, 311036, Note_off_c, 2, 82, 64
4, 311040, Note_on_c, 2, 79, 91
4, 311132, Note_off_c, 2, 79, 64
4, 311136, Note_on_c, 2, 82, 93
4, 311228, Note_off_c, 2, 82, 64
4, 311232, Note_on_c, 2, 79, 91
4, 311324, Note_off_c, 2, 79, 64
4, 311328, Note_on_c, 2, 82, 93
4, 311420, Note_off_c, 2, 82, 64
4, 311424, Note_on_c, 2, 79, 91
4, 311516, Note_off_c, 2, 79, 64
4, 311520, Note_on_c, 2, 82, 93
4, 311612, Note_off_c, 2, 82, 64
4, 311616, Note_on_c, 2, 79, 91
4, 311708, Note_off_c, 2, 79, 64
4, 311712, Note_on_c, 2, 82, 93
4, 311804, Note_off_c, 2, 82, 64
4, 311808, Note_on_c, 2, 79, 91
4, 311808, Note_on_c, 2, 75, 90
4, 311808, Note_on_c, 2, 70, 90
4, 311900, Note_off_c, 2, 79, 64
4, 311900, Note_off_c, 2, 75, 64
4, 311900, Note_off_c, 2, 70, 64
4, 311904, Note_on_c, 2, 82, 93
4, 311996, Note_off_c, 2, 82, 64
4, 312000, Note_on_c, 2, 79, 91
4, 312000, Note_on_c, 2, 75, 90
4, 312000, Note_on_c, 2, 70, 90
4, 312092, Note_off_c, 2, 79, 64
4, 312092, Note_off_c, 2, 75, 64
4, 312092, Note_off_c, 2, 70, 64
4, 312096, Note_on_c, 2, 82, 93
4, 312188, Note_off_c, 2, 82, 64
4, 312192, Note_on_c, 2, 79, 91
4, 312192, Note_on_c, 2, 75, 90
4, 312192, Note_on_c, 2, 70, 90
4, 312284, Note_off_c, 2, 79, 64
4, 312284, Note_off_c, 2, 75, 64
4, 312284, Note_off_c, 2, 70, 64
4, 312288, Note_on_c, 2, 82, 93
4, 312380, Note_off_c, 2, 82, 64
4, 312384, Note_on_c, 2, 79, 91
4, 312384, Note_on_c, 2, 75, 90
4, 312384, Note_on_c, 2, 70, 90
4, 312476, Note_off_c, 2, 79, 64
4, 312476, Note_off_c, 2, 75, 64
4, 312476, Note_off_c, 2, 70, 64
4, 312480, Note_on_c, 2, 82, 93
4, 312572, Note_off_c, 2, 82, 64
4, 312576, Note_on_c, 2, 79, 91
4, 312576, Note_on_c, 2, 75, 90
4, 312576, Note_on_c, 2, 70, 90
4, 312668, Note_off_c, 2, 79, 64
4, 312668, Note_off_c, 2, 75, 64
4, 312668, Note_off_c, 2, 70, 64
4, 312672, Note_on_c, 2, 82, 93
4, 312764, Note_off_c, 2, 82, 64
4, 312768, Note_on_c, 2, 79, 91
4, 312768, Note_on_c, 2, 75, 90
4, 312768, Note_on_c, 2, 70, 90
4, 312860, Note_off_c, 2, 79, 64
4, 312860, Note_off_c, 2, 75, 64
4, 312860, Note_off_c, 2, 70, 64
4, 312864, Note_on_c, 2, 82, 93
4, 312956, Note_off_c, 2, 82, 64
4, 312960, Note_on_c, 2, 79, 91
4, 312960, Note_on_c, 2, 75, 90
4, 312960, Note_on_c, 2, 70, 90
4, 313052, Note_off_c, 2, 79, 64
4, 313052, Note_off_c, 2, 75, 64
4, 313052, Note_off_c, 2, 70, 64
4, 313056, Note_on_c, 2, 82, 93
4, 313148, Note_off_c, 2, 82, 64
4, 313152, Note_on_c, 2, 79, 91
4, 313152, Note_on_c, 2, 75, 90
4, 313152, Note_on_c, 2, 70, 90
4, 313244, Note_off_c, 2, 79, 64
4, 313244, Note_off_c, 2, 75, 64
4, 313244, Note_off_c, 2, 70, 64
4, 313248, Note_on_c, 2, 82, 93
4, 313340, Note_off_c, 2, 82, 64
4, 313344, Note_on_c, 2, 80, 92
4, 313344, Note_on_c, 2, 77, 90
4, 313344, Note_on_c, 2, 70, 90
4, 313436, Note_off_c, 2, 80, 64
4, 313436, Note_off_c, 2, 77, 64
4, 313436, Note_off_c, 2, 70, 64
4, 313440, Note_on_c, 2, 82, 93
4, 313532, Note_off_c, 2, 82, 64
4, 313536, Note_on_c, 2, 80, 92
4, 313536, Note_on_c, 2, 77, 90
4, 313536, Note_on_c, 2, 70, 90
4, 313628, Note_off_c, 2, 80, 64
4, 313628, Note_off_c, 2, 77, 64
4, 313628, Note_off_c, 2, 70, 64
4, 313632, Note_on_c, 2, 82, 93
4, 313724, Note_off_c, 2, 82, 64
4, 313728, Note_on_c, 2, 80, 92
4, 313728, Note_on_c, 2, 77, 90
4, 313728, Note_on_c, 2, 70, 90
4, 313820, Note_off_c, 2, 80, 64
4, 313820, Note_off_c, 2, 77, 64
4, 313820, Note_off_c, 2, 70, 64
4, 313824, Note_on_c, 2, 82, 93
4, 313916, Note_off_c, 2, 82, 64
4, 313920, Note_on_c, 2, 80, 92
4, 313920, Note_on_c, 2, 77, 90
4, 313920, Note_on_c, 2, 70, 90
4, 314012, Note_off_c, 2, 80, 64
4, 314012, Note_off_c, 2, 77, 64
4, 314012, Note_off_c, 2, 70, 64
4, 314016, Note_on_c, 2, 82, 93
4, 314108, Note_off_c, 2, 82, 64
4, 314112, Note_on_c, 2, 80, 92
4, 314112, Note_on_c, 2, 77, 90
4, 314112, Note_on_c, 2, 70, 90
4, 314204, Note_off_c, 2, 80, 64
4, 314204, Note_off_c, 2, 77, 64
4, 314204, Note_off_c, 2, 70, 64
4, 314208, Note_on_c, 2, 82, 93
4, 314300, Note_off_c, 2, 82, 64
4, 314304, Note_on_c, 2, 80, 92
4, 314304, Note_on_c, 2, 77, 90
4, 314304, Note_on_c, 2, 70, 90
4, 314396, Note_off_c, 2, 80, 64
4, 314396, Note_off_c, 2, 77, 64
4, 314396, Note_off_c, 2, 70, 64
4, 314400, Note_on_c, 2, 82, 93
4, 314492, Note_off_c, 2, 82, 64
4, 314496, Note_on_c, 2, 80, 92
4, 314496, Note_on_c, 2, 77, 90
4, 314496, Note_on_c, 2, 70, 90
4, 314588, Note_off_c, 2, 80, 64
4, 314588, Note_off_c, 2, 77, 64
4, 314588, Note_off_c, 2, 70, 64
4, 314592, Note_on_c, 2, 82, 93
4, 314684, Note_off_c, 2, 82, 64
4, 314688, Note_on_c, 2, 80, 92
4, 314688, Note_on_c, 2, 77, 90
4, 314688, Note_on_c, 2, 70, 90
4, 314780, Note_off_c, 2, 80, 64
4, 314780, Note_off_c, 2, 77, 64
4, 314780, Note_off_c, 2, 70, 64
4, 314784, Note_on_c, 2, 82, 93
4, 314876, Note_off_c, 2, 82, 64
4, 314880, Note_on_c, 2, 79, 91
4, 314880, Note_on_c, 2, 75, 90
4, 314880, Note_on_c, 2, 70, 90
4, 314972, Note_off_c, 2, 79, 64
4, 314972, Note_off_c, 2, 75, 64
4, 314972, Note_off_c, 2, 70, 64
4, 314976, Note_on_c, 2, 82, 93
4, 315068, Note_off_c, 2, 82, 64
4, 315072, Note_on_c, 2, 79, 91
4, 315072, Note_on_c, 2, 75, 90
4, 315072, Note_on_c, 2, 70, 90
4, 315164, Note_off_c, 2, 79, 64
4, 315164, Note_off_c, 2, 75, 64
4, 315164, Note_off_c, 2, 70, 64
4, 315168, Note_on_c, 2, 82, 93
4, 315260, Note_off_c, 2, 82, 64
4, 315264, Note_on_c, 2, 79, 89
4, 315264, Note_on_c, 2, 75, 90
4, 315264, Note_on_c, 2, 70, 90
4, 315356, Note_off_c, 2, 79, 64
4, 315356, Note_off_c, 2, 75, 64
4, 315356, Note_off_c, 2, 70, 64
4, 315360, Note_on_c, 2, 82, 93
4, 315452, Note_off_c, 2, 82, 64
4, 315456, Note_on_c, 2, 79, 91
4, 315456, Note_on_c, 2, 75, 90
4, 315456, Note_on_c, 2, 70, 90
4, 315548, Note_off_c, 2, 79, 64
4, 315548, Note_off_c, 2, 75, 64
4, 315548, Note_off_c, 2, 70, 64
4, 315552, Note_on_c, 2, 82, 93
4, 315644, Note_off_c, 2, 82, 64
4, 315648, Note_on_c, 2, 70, 92
4, 315648, Note_on_c, 2, 80, 90
4, 315648, Note_on_c, 2, 77, 90
4, 315740, Note_off_c, 2, 70, 64
4, 315740, Note_off_c, 2, 80, 64
4, 315740, Note_off_c, 2, 77, 64
4, 315744, Note_on_c, 2, 82, 93
4, 315836, Note_off_c, 2, 82, 64
4, 315840, Note_on_c, 2, 70, 92
4, 315840, Note_on_c, 2, 80, 90
4, 315840, Note_on_c, 2, 77, 90
4, 315932, Note_off_c, 2, 70, 64
4, 315932, Note_off_c, 2, 80, 64
4, 315932, Note_off_c, 2, 77, 64
4, 315936, Note_on_c, 2, 82, 93
4, 316028, Note_off_c, 2, 82, 64
4, 316032, Note_on_c, 2, 70, 92
4, 316032, Note_on_c, 2, 80, 90
4, 316032, Note_on_c, 2, 77, 90
4, 316124, Note_off_c, 2, 70, 64
4, 316124, Note_off_c, 2, 80, 64
4, 316124, Note_off_c, 2, 77, 64
4, 316128, Note_on_c, 2, 82, 93
4, 316220, Note_off_c, 2, 82, 64
4, 316224, Note_on_c, 2, 70, 92
4, 316224, Note_on_c, 2, 80, 90
4, 316224, Note_on_c, 2, 77, 90
4, 316316, Note_off_c, 2, 70, 64
4, 316316, Note_off_c, 2, 80, 64
4, 316316, Note_off_c, 2, 77, 64
4, 316320, Note_on_c, 2, 82, 93
4, 316412, Note_off_c, 2, 82, 64
4, 316416, Note_on_c, 2, 79, 91
4, 316416, Note_on_c, 2, 75, 90
4, 316416, Note_on_c, 2, 70, 90
4, 316508, Note_off_c, 2, 79, 64
4, 316508, Note_off_c, 2, 75, 64
4, 316508, Note_off_c, 2, 70, 64
4, 316512, Note_on_c, 2, 82, 93
4, 316604, Note_off_c, 2, 82, 64
4, 316608, Note_on_c, 2, 79, 91
4, 316608, Note_on_c, 2, 75, 90
4, 316608, Note_on_c, 2, 70, 90
4, 316700, Note_off_c, 2, 79, 64
4, 316700, Note_off_c, 2, 75, 64
4, 316700, Note_off_c, 2, 70, 64
4, 316704, Note_on_c, 2, 82, 93
4, 316796, Note_off_c, 2, 82, 64
4, 316800, Note_on_c, 2, 80, 92
4, 316800, Note_on_c, 2, 77, 90
4, 316800, Note_on_c, 2, 70, 90
4, 316892, Note_off_c, 2, 80, 64
4, 316892, Note_off_c, 2, 77, 64
4, 316892, Note_off_c, 2, 70, 64
4, 316896, Note_on_c, 2, 82, 93
4, 316988, Note_off_c, 2, 82, 64
4, 316992, Note_on_c, 2, 80, 92
4, 316992, Note_on_c, 2, 77, 90
4, 316992, Note_on_c, 2, 70, 90
4, 317084, Note_off_c, 2, 80, 64
4, 317084, Note_off_c, 2, 77, 64
4, 317084, Note_off_c, 2, 70, 64
4, 317088, Note_on_c, 2, 82, 93
4, 317180, Note_off_c, 2, 82, 64
4, 317184, Note_on_c, 2, 79, 91
4, 317184, Note_on_c, 2, 75, 90
4, 317184, Note_on_c, 2, 70, 90
4, 317276, Note_off_c, 2, 79, 64
4, 317276, Note_off_c, 2, 75, 64
4, 317276, Note_off_c, 2, 70, 64
4, 317280, Note_on_c, 2, 82, 93
4, 317372, Note_off_c, 2, 82, 64
4, 317376, Note_on_c, 2, 79, 91
4, 317376, Note_on_c, 2, 75, 90
4, 317376, Note_on_c, 2, 70, 90
4, 317468, Note_off_c, 2, 79, 64
4, 317468, Note_off_c, 2, 75, 64
4, 317468, Note_off_c, 2, 70, 64
4, 317472, Note_on_c, 2, 82, 93
4, 317564, Note_off_c, 2, 82, 64
4, 317568, Note_on_c, 2, 80, 92
4, 317568, Note_on_c, 2, 77, 90
4, 317568, Note_on_c, 2, 70, 90
4, 317660, Note_off_c, 2, 80, 64
4, 317660, Note_off_c, 2, 77, 64
4, 317660, Note_off_c, 2, 70, 64
4, 317664, Note_on_c, 2, 82, 93
4, 317756, Note_off_c, 2, 82, 64
4, 317760, Note_on_c, 2, 80, 92
4, 317760, Note_on_c, 2, 77, 90
4, 317760, Note_on_c, 2, 70, 90
4, 317852, Note_off_c, 2, 80, 64
4, 317852, Note_off_c, 2, 77, 64
4, 317852, Note_off_c, 2, 70, 64
4, 317856, Note_on_c, 2, 82, 93
4, 317948, Note_off_c, 2, 82, 64
4, 317952, Note_on_c, 2, 79, 91
4, 317952, Note_on_c, 2, 75, 90
4, 317952, Note_on_c, 2, 70, 90
4, 318044, Note_off_c, 2, 79, 64
4, 318044, Note_off_c, 2, 75, 64
4, 318044, Note_off_c, 2, 70, 64
4, 318048, Note_on_c, 2, 82, 93
4, 318140, Note_off_c, 2, 82, 64
4, 318144, Note_on_c, 2, 79, 91
4, 318144, Note_on_c, 2, 70, 90
4, 318236, Note_off_c, 2, 79, 64
4, 318236, Note_off_c, 2, 70, 64
4, 318240, Note_on_c, 2, 82, 93
4, 318332, Note_off_c, 2, 82, 64
4, 318336, Note_on_c, 2, 79, 91
4, 318336, Note_on_c, 2, 71, 90
4, 318428, Note_off_c, 2, 79, 64
4, 318428, Note_off_c, 2, 71, 64
4, 318432, Note_on_c, 2, 83, 93
4, 318524, Note_off_c, 2, 83, 64
4, 318528, Note_on_c, 2, 79, 91
4, 318528, Note_on_c, 2, 71, 90
4, 318620, Note_off_c, 2, 79, 64
4, 318620, Note_off_c, 2, 71, 64
4, 318624, Note_on_c, 2, 83, 93
4, 318716, Note_off_c, 2, 83, 64
4, 318720, Note_on_c, 2, 79, 91
4, 318720, Note_on_c, 2, 72, 90
4, 318812, Note_off_c, 2, 79, 64
4, 318812, Note_off_c, 2, 72, 64
4, 318816, Note_on_c, 2, 84, 94
4, 318908, Note_off_c, 2, 84, 64
4, 318912, Note_on_c, 2, 79, 91
4, 318912, Note_on_c, 2, 72, 90
4, 319004, Note_off_c, 2, 79, 64
4, 319004, Note_off_c, 2, 72, 64
4, 319008, Note_on_c, 2, 84, 94
4, 319100, Note_off_c, 2, 84, 64
4, 319104, Note_on_c, 2, 79, 91
4, 319104, Note_on_c, 2, 73, 90
4, 319196, Note_off_c, 2, 79, 64
4, 319196, Note_off_c, 2, 73, 64
4, 319200, Note_on_c, 2, 85, 94
4, 319292, Note_off_c, 2, 85, 64
4, 319296, Note_on_c, 2, 79, 91
4, 319296, Note_on_c, 2, 73, 90
4, 319388, Note_off_c, 2, 79, 64
4, 319388, Note_off_c, 2, 73, 64
4, 319392, Note_on_c, 2, 85, 94
4, 319484, Note_off_c, 2, 85, 64
4, 319488, Note_on_c, 2, 86, 95
4, 319488, Note_on_c, 2, 83, 93
4, 319488, Note_on_c, 2, 79, 91
4, 319488, Note_on_c, 2, 74, 90
4, 319868, Note_off_c, 2, 86, 64
4, 319868, Note_off_c, 2, 83, 64
4, 319868, Note_off_c, 2, 79, 64
4, 319868, Note_off_c, 2, 74, 64
4, 320256, Note_on_c, 2, 78, 90
4, 320256, Note_on_c, 2, 74, 90
4, 320256, Note_on_c, 2, 72, 90
4, 320256, Note_on_c, 2, 69, 90
4, 320256, Note_on_c, 2, 66, 90
4, 320636, Note_off_c, 2, 78, 64
4, 320636, Note_off_c, 2, 74, 64
4, 320636, Note_off_c, 2, 72, 64
4, 320636, Note_off_c, 2, 69, 64
4, 320636, Note_off_c, 2, 66, 64
4, 321024, Note_on_c, 2, 79, 91
4, 321024, Note_on_c, 2, 74, 90
4, 321024, Note_on_c, 2, 71, 90
4, 321024, Note_on_c, 2, 67, 90
4, 321404, Note_off_c, 2, 79, 64
4, 321404, Note_off_c, 2, 74, 64
4, 321404, Note_off_c, 2, 71, 64
4, 321404, Note_off_c, 2, 67, 64
4, 321408, Note_on_c, 2, 68, 71
4, 321408, Note_on_c, 2, 62, 71
4, 321408, Note_on_c, 2, 59, 71
4, 321596, Note_off_c, 2, 62, 64
4, 321596, Note_off_c, 2, 59, 64
4, 321600, Note_on_c, 2, 62, 71
4, 321600, Note_on_c, 2, 59, 71
4, 321788, Note_off_c, 2, 68, 64
4, 321788, Note_off_c, 2, 62, 64
4, 321788, Note_off_c, 2, 59, 64
4, 321792, Note_on_c, 2, 69, 71
4, 321792, Note_on_c, 2, 60, 71
4, 321792, Note_on_c, 2, 57, 71
4, 321980, Note_off_c, 2, 60, 64
4, 321980, Note_off_c, 2, 57, 64
4, 321984, Note_on_c, 2, 60, 71
4, 321984, Note_on_c, 2, 57, 71
4, 322172, Note_off_c, 2, 69, 64
4, 322172, Note_off_c, 2, 60, 64
4, 322172, Note_off_c, 2, 57, 64
4, 322176, Note_on_c, 2, 65, 71
4, 322176, Note_on_c, 2, 62, 71
4, 322176, Note_on_c, 2, 71, 71
4, 322364, Note_off_c, 2, 65, 64
4, 322364, Note_off_c, 2, 62, 64
4, 322368, Note_on_c, 2, 65, 71
4, 322368, Note_on_c, 2, 62, 71
4, 322556, Note_off_c, 2, 71, 64
4, 322556, Note_off_c, 2, 65, 64
4, 322556, Note_off_c, 2, 62, 64
4, 322560, Note_on_c, 2, 72, 71
4, 322560, Note_on_c, 2, 64, 71
4, 322560, Note_on_c, 2, 60, 71
4, 322748, Note_off_c, 2, 64, 64
4, 322748, Note_off_c, 2, 60, 64
4, 322752, Note_on_c, 2, 64, 71
4, 322752, Note_on_c, 2, 60, 71
4, 322940, Note_off_c, 2, 72, 64
4, 322940, Note_off_c, 2, 64, 64
4, 322940, Note_off_c, 2, 60, 64
4, 322944, Note_on_c, 2, 73, 71
4, 322944, Note_on_c, 2, 67, 71
4, 322944, Note_on_c, 2, 64, 71
4, 323132, Note_off_c, 2, 67, 64
4, 323132, Note_off_c, 2, 64, 64
4, 323136, Note_on_c, 2, 67, 71
4, 323136, Note_on_c, 2, 64, 71
4, 323324, Note_off_c, 2, 73, 64
4, 323324, Note_off_c, 2, 67, 64
4, 323324, Note_off_c, 2, 64, 64
4, 323328, Note_on_c, 2, 74, 71
4, 323328, Note_on_c, 2, 66, 71
4, 323328, Note_on_c, 2, 62, 71
4, 323516, Note_off_c, 2, 66, 64
4, 323516, Note_off_c, 2, 62, 64
4, 323520, Note_on_c, 2, 66, 71
4, 323520, Note_on_c, 2, 62, 71
4, 323708, Note_off_c, 2, 74, 64
4, 323708, Note_off_c, 2, 66, 64
4, 323708, Note_off_c, 2, 62, 64
4, 323712, Note_on_c, 2, 75, 71
4, 323712, Note_on_c, 2, 69, 71
4, 323712, Note_on_c, 2, 66, 71
4, 323900, Note_off_c, 2, 69, 64
4, 323900, Note_off_c, 2, 66, 64
4, 323904, Note_on_c, 2, 69, 71
4, 323904, Note_on_c, 2, 66, 71
4, 324092, Note_off_c, 2, 75, 64
4, 324092, Note_off_c, 2, 69, 64
4, 324092, Note_off_c, 2, 66, 64
4, 324096, Note_on_c, 2, 67, 71
4, 324096, Note_on_c, 2, 64, 71
4, 324096, Note_on_c, 2, 76, 71
4, 324476, Note_off_c, 2, 67, 64
4, 324476, Note_off_c, 2, 64, 64
4, 325052, Note_off_c, 2, 76, 64
4, 325056, Note_on_c, 2, 79, 72
4, 325244, Note_off_c, 2, 79, 64
4, 325248, Note_on_c, 2, 78, 71
4, 325340, Note_off_c, 2, 78, 64
4, 325440, Note_on_c, 2, 76, 71
4, 325532, Note_off_c, 2, 76, 64
4, 325632, Note_on_c, 2, 76, 71
4, 325820, Note_off_c, 2, 76, 64
4, 325824, Note_on_c, 2, 74, 71
4, 326012, Note_off_c, 2, 74, 64
4, 326016, Note_on_c, 2, 72, 71
4, 326108, Note_off_c, 2, 72, 64
4, 326208, Note_on_c, 2, 71, 71
4, 326300, Note_off_c, 2, 71, 64
4, 326400, Note_on_c, 2, 71, 71
4, 326588, Note_off_c, 2, 71, 64
4, 326592, Note_on_c, 2, 69, 71
4, 326780, Note_off_c, 2, 69, 64
4, 326784, Note_on_c, 2, 67, 71
4, 326876, Note_off_c, 2, 67, 64
4, 326976, Note_on_c, 2, 66, 71
4, 327068, Note_off_c, 2, 66, 64
4, 327168, Note_on_c, 2, 67, 71
4, 327168, Note_on_c, 2, 62, 71
4, 327356, Note_off_c, 2, 62, 64
4, 327360, Note_on_c, 2, 62, 71
4, 327548, Note_off_c, 2, 67, 64
4, 327548, Note_off_c, 2, 62, 64
4, 327552, Note_on_c, 2, 68, 71
4, 327552, Note_on_c, 2, 62, 71
4, 327552, Note_on_c, 2, 59, 71
4, 327740, Note_off_c, 2, 62, 64
4, 327740, Note_off_c, 2, 59, 64
4, 327744, Note_on_c, 2, 62, 71
4, 327744, Note_on_c, 2, 59, 71
4, 327932, Note_off_c, 2, 68, 64
4, 327932, Note_off_c, 2, 62, 64
4, 327932, Note_off_c, 2, 59, 64
4, 327936, Note_on_c, 2, 69, 71
4, 327936, Note_on_c, 2, 57, 71
4, 327936, Note_on_c, 2, 60, 71
4, 328124, Note_off_c, 2, 57, 64
4, 328124, Note_off_c, 2, 60, 64
4, 328128, Note_on_c, 2, 60, 71
4, 328128, Note_on_c, 2, 57, 71
4, 328316, Note_off_c, 2, 69, 64
4, 328316, Note_off_c, 2, 60, 64
4, 328316, Note_off_c, 2, 57, 64
4, 328320, Note_on_c, 2, 71, 71
4, 328320, Note_on_c, 2, 65, 71
4, 328320, Note_on_c, 2, 62, 71
4, 328508, Note_off_c, 2, 65, 64
4, 328508, Note_off_c, 2, 62, 64
4, 328512, Note_on_c, 2, 65, 71
4, 328512, Note_on_c, 2, 62, 71
4, 328700, Note_off_c, 2, 71, 64
4, 328700, Note_off_c, 2, 65, 64
4, 328700, Note_off_c, 2, 62, 64
4, 328704, Note_on_c, 2, 72, 71
4, 328704, Note_on_c, 2, 64, 71
4, 328704, Note_on_c, 2, 60, 71
4, 328892, Note_off_c, 2, 64, 64
4, 328892, Note_off_c, 2, 60, 64
4, 328896, Note_on_c, 2, 64, 71
4, 328896, Note_on_c, 2, 60, 71
4, 329084, Note_off_c, 2, 72, 64
4, 329084, Note_off_c, 2, 64, 64
4, 329084, Note_off_c, 2, 60, 64
4, 329088, Note_on_c, 2, 73, 71
4, 329088, Note_on_c, 2, 67, 71
4, 329088, Note_on_c, 2, 64, 71
4, 329276, Note_off_c, 2, 67, 64
4, 329276, Note_off_c, 2, 64, 64
4, 329280, Note_on_c, 2, 67, 71
4, 329280, Note_on_c, 2, 64, 71
4, 329468, Note_off_c, 2, 73, 64
4, 329468, Note_off_c, 2, 67, 64
4, 329468, Note_off_c, 2, 64, 64
4, 329472, Note_on_c, 2, 74, 71
4, 329472, Note_on_c, 2, 66, 71
4, 329472, Note_on_c, 2, 62, 71
4, 329660, Note_off_c, 2, 66, 64
4, 329660, Note_off_c, 2, 62, 64
4, 329664, Note_on_c, 2, 66, 71
4, 329664, Note_on_c, 2, 62, 71
4, 329852, Note_off_c, 2, 74, 64
4, 329852, Note_off_c, 2, 66, 64
4, 329852, Note_off_c, 2, 62, 64
4, 329856, Note_on_c, 2, 75, 71
4, 329856, Note_on_c, 2, 69, 71
4, 329856, Note_on_c, 2, 66, 71
4, 330044, Note_off_c, 2, 69, 64
4, 330044, Note_off_c, 2, 66, 64
4, 330048, Note_on_c, 2, 69, 71
4, 330048, Note_on_c, 2, 66, 71
4, 330236, Note_off_c, 2, 75, 64
4, 330236, Note_off_c, 2, 69, 64
4, 330236, Note_off_c, 2, 66, 64
4, 330240, Note_on_c, 2, 67, 71
4, 330240, Note_on_c, 2, 64, 71
4, 330240, Note_on_c, 2, 76, 71
4, 330620, Note_off_c, 2, 67, 64
4, 330620, Note_off_c, 2, 64, 64
4, 331196, Note_off_c, 2, 76, 64
4, 331200, Note_on_c, 2, 79, 72
4, 331388, Note_off_c, 2, 79, 64
4, 331392, Note_on_c, 2, 78, 71
4, 331484, Note_off_c, 2, 78, 64
4, 331584, Note_on_c, 2, 76, 71
4, 331676, Note_off_c, 2, 76, 64
4, 331776, Note_on_c, 2, 76, 71
4, 331964, Note_off_c, 2, 76, 64
4, 331968, Note_on_c, 2, 74, 71
4, 332156, Note_off_c, 2, 74, 64
4, 332160, Note_on_c, 2, 72, 71
4, 332252, Note_off_c, 2, 72, 64
4, 332352, Note_on_c, 2, 71, 71
4, 332444, Note_off_c, 2, 71, 64
4, 332544, Note_on_c, 2, 71, 71
4, 332732, Note_off_c, 2, 71, 64
4, 332736, Note_on_c, 2, 69, 71
4, 332924, Note_off_c, 2, 69, 64
4, 332928, Note_on_c, 2, 67, 71
4, 333020, Note_off_c, 2, 67, 64
4, 333120, Note_on_c, 2, 66, 71
4, 333212, Note_off_c, 2, 66, 64
4, 333312, Note_on_c, 2, 69, 71
4, 333500, Note_off_c, 2, 69, 64
4, 333504, Note_on_c, 2, 67, 71
4, 333692, Note_off_c, 2, 67, 64
4, 333696, Note_on_c, 2, 67, 71
4, 333788, Note_off_c, 2, 67, 64
4, 333888, Note_on_c, 2, 67, 71
4, 333980, Note_off_c, 2, 67, 64
4, 334080, Note_on_c, 2, 61, 71
4, 334080, Note_on_c, 2, 79, 72
4, 334268, Note_off_c, 2, 61, 64
4, 334272, Note_on_c, 2, 70, 71
4, 334460, Note_off_c, 2, 70, 64
4, 334464, Note_on_c, 2, 70, 71
4, 334652, Note_off_c, 2, 79, 64
4, 334652, Note_off_c, 2, 70, 64
4, 334656, Note_on_c, 2, 70, 71
4, 334656, Note_on_c, 2, 73, 71
4, 334844, Note_off_c, 2, 70, 64
4, 334844, Note_off_c, 2, 73, 64
4, 334848, Note_on_c, 2, 74, 71
4, 334848, Note_on_c, 2, 71, 71
4, 335036, Note_off_c, 2, 71, 64
4, 335420, Note_off_c, 2, 74, 64
4, 335424, Note_on_c, 2, 67, 71
4, 335612, Note_off_c, 2, 67, 64
4, 335616, Note_on_c, 2, 71, 71
4, 335616, Note_on_c, 2, 64, 71
4, 335804, Note_off_c, 2, 71, 64
4, 335804, Note_off_c, 2, 64, 64
4, 335808, Note_on_c, 2, 64, 71
4, 335996, Note_off_c, 2, 64, 64
4, 336000, Note_on_c, 2, 69, 71
4, 336000, Note_on_c, 2, 64, 71
4, 336188, Note_off_c, 2, 69, 64
4, 336188, Note_off_c, 2, 64, 64
4, 336192, Note_on_c, 2, 64, 71
4, 336380, Note_off_c, 2, 64, 64
4, 336384, Note_on_c, 2, 76, 71
4, 337340, Note_off_c, 2, 76, 64
4, 337344, Note_on_c, 2, 76, 71
4, 337436, Note_off_c, 2, 76, 64
4, 337536, Note_on_c, 2, 78, 71
4, 337628, Note_off_c, 2, 78, 64
4, 337728, Note_on_c, 2, 79, 72
4, 337820, Note_off_c, 2, 79, 64
4, 337920, Note_on_c, 2, 79, 72
4, 338108, Note_off_c, 2, 79, 64
4, 338112, Note_on_c, 2, 75, 71
4, 338300, Note_off_c, 2, 75, 64
4, 338304, Note_on_c, 2, 76, 71
4, 338876, Note_off_c, 2, 76, 64
4, 338880, Note_on_c, 2, 76, 71
4, 338972, Note_off_c, 2, 76, 64
4, 339072, Note_on_c, 2, 78, 71
4, 339164, Note_off_c, 2, 78, 64
4, 339264, Note_on_c, 2, 79, 72
4, 339356, Note_off_c, 2, 79, 64
4, 339456, Note_on_c, 2, 79, 72
4, 339644, Note_off_c, 2, 79, 64
4, 339648, Note_on_c, 2, 75, 71
4, 339836, Note_off_c, 2, 75, 64
4, 339840, Note_on_c, 2, 76, 71
4, 340412, Note_off_c, 2, 76, 64
4, 340416, Note_on_c, 2, 76, 71
4, 340508, Note_off_c, 2, 76, 64
4, 340608, Note_on_c, 2, 78, 71
4, 340700, Note_off_c, 2, 78, 64
4, 340800, Note_on_c, 2, 79, 72
4, 340892, Note_off_c, 2, 79, 64
4, 340992, Note_on_c, 2, 79, 72
4, 341372, Note_off_c, 2, 79, 64
4, 341376, Note_on_c, 2, 70, 71
4, 341376, Note_on_c, 2, 67, 71
4, 341756, Note_off_c, 2, 67, 64
4, 341760, Note_on_c, 2, 66, 71
4, 342140, Note_off_c, 2, 70, 64
4, 342140, Note_off_c, 2, 66, 64
4, 342144, Note_on_c, 2, 70, 71
4, 342144, Note_on_c, 2, 64, 71
4, 342524, Note_off_c, 2, 70, 64
4, 342524, Note_off_c, 2, 64, 64
4, 342528, Note_on_c, 2, 71, 71
4, 342528, Note_on_c, 2, 63, 71
4, 342716, Note_off_c, 2, 63, 64
4, 342720, Note_on_c, 2, 66, 71
4, 342720, Note_on_c, 2, 63, 71
4, 342908, Note_off_c, 2, 71, 64
4, 342908, Note_off_c, 2, 66, 64
4, 342908, Note_off_c, 2, 63, 64
4, 342912, Note_on_c, 2, 66, 71
4, 342912, Note_on_c, 2, 63, 71
4, 343100, Note_off_c, 2, 66, 64
4, 343100, Note_off_c, 2, 63, 64
4, 343104, Note_on_c, 2, 66, 71
4, 343104, Note_on_c, 2, 63, 71
4, 343292, Note_off_c, 2, 66, 64
4, 343292, Note_off_c, 2, 63, 64
4, 343296, Note_on_c, 2, 67, 71
4, 343296, Note_on_c, 2, 64, 71
4, 343296, Note_on_c, 2, 76, 71
4, 343296, Note_on_c, 2, 70, 71
4, 343484, Note_off_c, 2, 67, 64
4, 343484, Note_off_c, 2, 64, 64
4, 343488, Note_on_c, 2, 67, 71
4, 343488, Note_on_c, 2, 64, 71
4, 343676, Note_off_c, 2, 67, 64
4, 343676, Note_off_c, 2, 64, 64
4, 343680, Note_on_c, 2, 67, 71
4, 343680, Note_on_c, 2, 64, 71
4, 343868, Note_off_c, 2, 76, 64
4, 343868, Note_off_c, 2, 70, 64
4, 343868, Note_off_c, 2, 67, 64
4, 343868, Note_off_c, 2, 64, 64
4, 343872, Note_on_c, 2, 67, 71
4, 343872, Note_on_c, 2, 64, 71
4, 343872, Note_on_c, 2, 70, 71
4, 344060, Note_off_c, 2, 67, 64
4, 344060, Note_off_c, 2, 64, 64
4, 344060, Note_off_c, 2, 70, 64
4, 344064, Note_on_c, 2, 71, 71
4, 344064, Note_on_c, 2, 66, 71
4, 344064, Note_on_c, 2, 63, 71
4, 344252, Note_off_c, 2, 66, 64
4, 344252, Note_off_c, 2, 63, 64
4, 344256, Note_on_c, 2, 66, 71
4, 344256, Note_on_c, 2, 63, 71
4, 344444, Note_off_c, 2, 71, 64
4, 344444, Note_off_c, 2, 66, 64
4, 344444, Note_off_c, 2, 63, 64
4, 344448, Note_on_c, 2, 66, 71
4, 344448, Note_on_c, 2, 63, 71
4, 344636, Note_off_c, 2, 66, 64
4, 344636, Note_off_c, 2, 63, 64
4, 344640, Note_on_c, 2, 66, 71
4, 344640, Note_on_c, 2, 63, 71
4, 344828, Note_off_c, 2, 66, 64
4, 344828, Note_off_c, 2, 63, 64
4, 344832, Note_on_c, 2, 79, 71
4, 344832, Note_on_c, 2, 70, 71
4, 344832, Note_on_c, 2, 67, 71
4, 345020, Note_off_c, 2, 67, 64
4, 345024, Note_on_c, 2, 67, 71
4, 345212, Note_off_c, 2, 67, 64
4, 345216, Note_on_c, 2, 67, 71
4, 345404, Note_off_c, 2, 79, 64
4, 345404, Note_off_c, 2, 70, 64
4, 345404, Note_off_c, 2, 67, 64
4, 345408, Note_on_c, 2, 67, 71
4, 345408, Note_on_c, 2, 70, 71
4, 345596, Note_off_c, 2, 67, 64
4, 345596, Note_off_c, 2, 70, 64
4, 345600, Note_on_c, 2, 71, 65
4, 345600, Note_on_c, 2, 66, 65
4, 345600, Note_on_c, 2, 63, 65
4, 345980, Note_off_c, 2, 71, 64
4, 345980, Note_off_c, 2, 66, 64
4, 345980, Note_off_c, 2, 63, 64
4, 346368, Note_on_c, 2, 71, 65
4, 346368, Note_on_c, 2, 66, 65
4, 346368, Note_on_c, 2, 63, 65
4, 346748, Note_off_c, 2, 71, 64
4, 346748, Note_off_c, 2, 66, 64
4, 346748, Note_off_c, 2, 63, 64
4, 347136, Note_on_c, 2, 71, 65
4, 347136, Note_on_c, 2, 66, 65
4, 347136, Note_on_c, 2, 63, 65
4, 347516, Note_off_c, 2, 71, 64
4, 347516, Note_off_c, 2, 66, 64
4, 347516, Note_off_c, 2, 63, 64
4, 349056, Note_on_c, 2, 67, 65
4, 349056, Note_on_c, 2, 64, 65
4, 349436, Note_off_c, 2, 67, 64
4, 349436, Note_off_c, 2, 64, 64
4, 349440, Note_on_c, 2, 71, 65
4, 349440, Note_on_c, 2, 67, 65
4, 349820, Note_off_c, 2, 71, 64
4, 349820, Note_off_c, 2, 67, 64
4, 349824, Note_on_c, 2, 69, 65
4, 349824, Note_on_c, 2, 66, 65
4, 350204, Note_off_c, 2, 69, 64
4, 350204, Note_off_c, 2, 66, 64
4, 350208, Note_on_c, 2, 67, 65
4, 350208, Note_on_c, 2, 64, 65
4, 350588, Note_off_c, 2, 67, 64
4, 350588, Note_off_c, 2, 64, 64
4, 352128, Note_on_c, 2, 69, 65
4, 352128, Note_on_c, 2, 66, 65
4, 352508, Note_off_c, 2, 69, 64
4, 352508, Note_off_c, 2, 66, 64
4, 352512, Note_on_c, 2, 72, 65
4, 352512, Note_on_c, 2, 69, 65
4, 352892, Note_off_c, 2, 72, 64
4, 352892, Note_off_c, 2, 69, 64
4, 352896, Note_on_c, 2, 71, 65
4, 352896, Note_on_c, 2, 67, 65
4, 353276, Note_off_c, 2, 71, 64
4, 353276, Note_off_c, 2, 67, 64
4, 353280, Note_on_c, 2, 69, 65
4, 353280, Note_on_c, 2, 66, 65
4, 353660, Note_off_c, 2, 69, 64
4, 353660, Note_off_c, 2, 66, 64
4, 360960, Note_on_c, 2, 83, 71
4, 360960, Note_on_c, 2, 79, 71
4, 361724, Note_off_c, 2, 83, 64
4, 361724, Note_off_c, 2, 79, 64
4, 361728, Note_on_c, 2, 79, 71
4, 361728, Note_on_c, 2, 76, 71
4, 362108, Note_off_c, 2, 79, 64
4, 362108, Note_off_c, 2, 76, 64
4, 362880, Note_on_c, 2, 76, 65
4, 362880, Note_on_c, 2, 71, 65
4, 363260, Note_off_c, 2, 76, 64
4, 363260, Note_off_c, 2, 71, 64
4, 363264, Note_on_c, 2, 79, 66
4, 363264, Note_on_c, 2, 76, 65
4, 363644, Note_off_c, 2, 79, 64
4, 363644, Note_off_c, 2, 76, 64
4, 363648, Note_on_c, 2, 83, 67
4, 363648, Note_on_c, 2, 79, 66
4, 364028, Note_off_c, 2, 83, 64
4, 364028, Note_off_c, 2, 79, 64
4, 364032, Note_on_c, 2, 84, 65
4, 364032, Note_on_c, 2, 81, 67
4, 364796, Note_off_c, 2, 84, 64
4, 364796, Note_off_c, 2, 81, 64
4, 364800, Note_on_c, 2, 81, 67
4, 364800, Note_on_c, 2, 78, 65
4, 365180, Note_off_c, 2, 81, 64
4, 365180, Note_off_c, 2, 78, 64
4, 365952, Note_on_c, 2, 78, 65
4, 365952, Note_on_c, 2, 72, 65
4, 366332, Note_off_c, 2, 78, 64
4, 366332, Note_off_c, 2, 72, 64
4, 366336, Note_on_c, 2, 81, 67
4, 366336, Note_on_c, 2, 78, 65
4, 366716, Note_off_c, 2, 81, 64
4, 366716, Note_off_c, 2, 78, 64
4, 366720, Note_on_c, 2, 84, 69
4, 366720, Note_on_c, 2, 81, 67
4, 367100, Note_off_c, 2, 84, 64
4, 367100, Note_off_c, 2, 81, 64
4, 367104, Note_on_c, 2, 83, 68
4, 367104, Note_on_c, 2, 79, 66
4, 367296, Note_on_c, 2, 71, 65
4, 367296, Note_on_c, 2, 67, 65
4, 367296, Note_on_c, 2, 64, 65
4, 367484, Note_off_c, 2, 71, 64
4, 367484, Note_off_c, 2, 67, 64
4, 367484, Note_off_c, 2, 64, 64
4, 367488, Note_on_c, 2, 71, 65
4, 367488, Note_on_c, 2, 67, 65
4, 367488, Note_on_c, 2, 64, 65
4, 367676, Note_off_c, 2, 71, 64
4, 367676, Note_off_c, 2, 67, 64
4, 367676, Note_off_c, 2, 64, 64
4, 367680, Note_on_c, 2, 71, 65
4, 367680, Note_on_c, 2, 67, 65
4, 367680, Note_on_c, 2, 64, 65
4, 367868, Note_off_c, 2, 83, 64
4, 367868, Note_off_c, 2, 79, 64
4, 367868, Note_off_c, 2, 71, 64
4, 367868, Note_off_c, 2, 67, 64
4, 367868, Note_off_c, 2, 64, 64
4, 367872, Note_on_c, 2, 81, 67
4, 367872, Note_on_c, 2, 78, 65
4, 367872, Note_on_c, 2, 57, 65
4, 368060, Note_off_c, 2, 57, 64
4, 368064, Note_on_c, 2, 69, 65
4, 368064, Note_on_c, 2, 66, 65
4, 368252, Note_off_c, 2, 69, 64
4, 368252, Note_off_c, 2, 66, 64
4, 368256, Note_on_c, 2, 69, 65
4, 368256, Note_on_c, 2, 66, 65
4, 368444, Note_off_c, 2, 69, 64
4, 368444, Note_off_c, 2, 66, 64
4, 368448, Note_on_c, 2, 69, 65
4, 368448, Note_on_c, 2, 66, 65
4, 368636, Note_off_c, 2, 81, 64
4, 368636, Note_off_c, 2, 78, 64
4, 368636, Note_off_c, 2, 69, 64
4, 368636, Note_off_c, 2, 66, 64
4, 368640, Note_on_c, 2, 79, 66
4, 368640, Note_on_c, 2, 76, 65
4, 368640, Note_on_c, 2, 59, 65
4, 368828, Note_off_c, 2, 59, 64
4, 368832, Note_on_c, 2, 67, 65
4, 368832, Note_on_c, 2, 64, 65
4, 369020, Note_off_c, 2, 67, 64
4, 369020, Note_off_c, 2, 64, 64
4, 369024, Note_on_c, 2, 67, 65
4, 369024, Note_on_c, 2, 64, 65
4, 369212, Note_off_c, 2, 67, 64
4, 369212, Note_off_c, 2, 64, 64
4, 369216, Note_on_c, 2, 67, 65
4, 369216, Note_on_c, 2, 64, 65
4, 369404, Note_off_c, 2, 79, 64
4, 369404, Note_off_c, 2, 76, 64
4, 369404, Note_off_c, 2, 67, 64
4, 369404, Note_off_c, 2, 64, 64
4, 369408, Note_on_c, 2, 78, 65
4, 369408, Note_on_c, 2, 75, 65
4, 370172, Note_off_c, 2, 78, 64
4, 370172, Note_off_c, 2, 75, 64
4, 370176, Note_on_c, 2, 80, 67
4, 370176, Note_on_c, 2, 74, 65
4, 370556, Note_off_c, 2, 80, 64
4, 370556, Note_off_c, 2, 74, 64
4, 370944, Note_on_c, 2, 86, 70
4, 370944, Note_on_c, 2, 68, 65
4, 370944, Note_on_c, 2, 65, 65
4, 371132, Note_off_c, 2, 86, 64
4, 371132, Note_off_c, 2, 68, 64
4, 371136, Note_on_c, 2, 84, 69
4, 371136, Note_on_c, 2, 69, 65
4, 371324, Note_off_c, 2, 84, 64
4, 371324, Note_off_c, 2, 69, 64
4, 371328, Note_on_c, 2, 83, 68
4, 371328, Note_on_c, 2, 71, 65
4, 371516, Note_off_c, 2, 83, 64
4, 371516, Note_off_c, 2, 71, 64
4, 371520, Note_on_c, 2, 86, 70
4, 371520, Note_on_c, 2, 68, 65
4, 371708, Note_off_c, 2, 65, 64
4, 371708, Note_off_c, 2, 86, 64
4, 371708, Note_off_c, 2, 68, 64
4, 371712, Note_on_c, 2, 80, 67
4, 371712, Note_on_c, 2, 64, 65
4, 371712, Note_on_c, 2, 74, 65
4, 372092, Note_off_c, 2, 80, 64
4, 372092, Note_off_c, 2, 64, 64
4, 372092, Note_off_c, 2, 74, 64
4, 372480, Note_on_c, 2, 65, 65
4, 372480, Note_on_c, 2, 68, 65
4, 372480, Note_on_c, 2, 86, 70
4, 372668, Note_off_c, 2, 68, 64
4, 372668, Note_off_c, 2, 86, 64
4, 372672, Note_on_c, 2, 69, 65
4, 372672, Note_on_c, 2, 84, 69
4, 372860, Note_off_c, 2, 69, 64
4, 372860, Note_off_c, 2, 84, 64
4, 372864, Note_on_c, 2, 83, 68
4, 372864, Note_on_c, 2, 71, 65
4, 373052, Note_off_c, 2, 83, 64
4, 373052, Note_off_c, 2, 71, 64
4, 373056, Note_on_c, 2, 86, 70
4, 373056, Note_on_c, 2, 68, 65
4, 373244, Note_off_c, 2, 65, 64
4, 373244, Note_off_c, 2, 86, 64
4, 373244, Note_off_c, 2, 68, 64
4, 373248, Note_on_c, 2, 80, 67
4, 373248, Note_on_c, 2, 74, 65
4, 373628, Note_off_c, 2, 80, 64
4, 373628, Note_off_c, 2, 74, 64
4, 373632, Note_on_c, 2, 62, 65
4, 373632, Note_on_c, 2, 59, 65
4, 373632, Note_on_c, 2, 56, 65
4, 374012, Note_off_c, 2, 62, 64
4, 374012, Note_off_c, 2, 59, 64
4, 374012, Note_off_c, 2, 56, 64
4, 374400, Note_on_c, 2, 68, 65
4, 374400, Note_on_c, 2, 62, 65
4, 374400, Note_on_c, 2, 59, 65
4, 374780, Note_off_c, 2, 68, 64
4, 374780, Note_off_c, 2, 62, 64
4, 374780, Note_off_c, 2, 59, 64
4, 375168, Note_on_c, 2, 71, 65
4, 375168, Note_on_c, 2, 68, 65
4, 375168, Note_on_c, 2, 62, 65
4, 375548, Note_off_c, 2, 71, 64
4, 375548, Note_off_c, 2, 68, 64
4, 375548, Note_off_c, 2, 62, 64
4, 375552, Note_on_c, 2, 74, 65
4, 375552, Note_on_c, 2, 71, 65
4, 375552, Note_on_c, 2, 68, 65
4, 375932, Note_off_c, 2, 74, 64
4, 375932, Note_off_c, 2, 71, 64
4, 375932, Note_off_c, 2, 68, 64
4, 375936, Note_on_c, 2, 80, 67
4, 375936, Note_on_c, 2, 76, 65
4, 375936, Note_on_c, 2, 74, 65
4, 376316, Note_off_c, 2, 80, 64
4, 376316, Note_off_c, 2, 76, 64
4, 376316, Note_off_c, 2, 74, 64
4, 376320, Note_on_c, 2, 81, 67
4, 376320, Note_on_c, 2, 76, 65
4, 376320, Note_on_c, 2, 73, 65
4, 376700, Note_off_c, 2, 81, 64
4, 376700, Note_off_c, 2, 76, 64
4, 376700, Note_off_c, 2, 73, 64
4, 377088, Note_on_c, 2, 79, 66
4, 377276, Note_off_c, 2, 79, 64
4, 377280, Note_on_c, 2, 77, 65
4, 377468, Note_off_c, 2, 77, 64
4, 377472, Note_on_c, 2, 76, 65
4, 377660, Note_off_c, 2, 76, 64
4, 377664, Note_on_c, 2, 79, 66
4, 377852, Note_off_c, 2, 79, 64
4, 377856, Note_on_c, 2, 73, 65
4, 378236, Note_off_c, 2, 73, 64
4, 378624, Note_on_c, 2, 79, 66
4, 378812, Note_off_c, 2, 79, 64
4, 378816, Note_on_c, 2, 77, 65
4, 379004, Note_off_c, 2, 77, 64
4, 379008, Note_on_c, 2, 76, 65
4, 379196, Note_off_c, 2, 76, 64
4, 379200, Note_on_c, 2, 79, 66
4, 379388, Note_off_c, 2, 79, 64
4, 379392, Note_on_c, 2, 73, 65
4, 379392, Note_on_c, 2, 67, 65
4, 379772, Note_off_c, 2, 73, 64
4, 379772, Note_off_c, 2, 67, 64
4, 379776, Note_on_c, 2, 67, 65
4, 379776, Note_on_c, 2, 64, 65
4, 379776, Note_on_c, 2, 61, 65
4, 380156, Note_off_c, 2, 67, 64
4, 380156, Note_off_c, 2, 64, 64
4, 380156, Note_off_c, 2, 61, 64
4, 380544, Note_on_c, 2, 73, 65
4, 380544, Note_on_c, 2, 64, 65
4, 380544, Note_on_c, 2, 64, 65
4, 380924, Note_off_c, 2, 73, 64
4, 380924, Note_off_c, 2, 64, 64
4, 380924, Note_off_c, 2, 64, 64
4, 381312, Note_on_c, 2, 76, 65
4, 381312, Note_on_c, 2, 67, 65
4, 381312, Note_on_c, 2, 73, 65
4, 381692, Note_off_c, 2, 76, 64
4, 381692, Note_off_c, 2, 67, 64
4, 381692, Note_off_c, 2, 73, 64
4, 381696, Note_on_c, 2, 79, 66
4, 381696, Note_on_c, 2, 76, 65
4, 381696, Note_on_c, 2, 73, 65
4, 382076, Note_off_c, 2, 79, 64
4, 382076, Note_off_c, 2, 76, 64
4, 382076, Note_off_c, 2, 73, 64
4, 382080, Note_on_c, 2, 81, 67
4, 382080, Note_on_c, 2, 79, 66
4, 382080, Note_on_c, 2, 85, 69
4, 382460, Note_off_c, 2, 81, 64
4, 382460, Note_off_c, 2, 79, 64
4, 382460, Note_off_c, 2, 85, 64
4, 382464, Note_on_c, 2, 86, 70
4, 382464, Note_on_c, 2, 81, 67
4, 382464, Note_on_c, 2, 78, 65
4, 382844, Note_off_c, 2, 86, 64
4, 382844, Note_off_c, 2, 81, 64
4, 382844, Note_off_c, 2, 78, 64
4, 383232, Note_on_c, 2, 84, 69
4, 383232, Note_on_c, 2, 66, 65
4, 383232, Note_on_c, 2, 63, 65
4, 383420, Note_off_c, 2, 84, 64
4, 383420, Note_off_c, 2, 66, 64
4, 383424, Note_on_c, 2, 82, 68
4, 383424, Note_on_c, 2, 67, 65
4, 383612, Note_off_c, 2, 82, 64
4, 383612, Note_off_c, 2, 67, 64
4, 383616, Note_on_c, 2, 81, 67
4, 383616, Note_on_c, 2, 69, 65
4, 383804, Note_off_c, 2, 81, 64
4, 383804, Note_off_c, 2, 69, 64
4, 383808, Note_on_c, 2, 84, 69
4, 383808, Note_on_c, 2, 66, 65
4, 383996, Note_off_c, 2, 63, 64
4, 383996, Note_off_c, 2, 84, 64
4, 383996, Note_off_c, 2, 66, 64
4, 384000, Note_on_c, 2, 78, 65
4, 384000, Note_on_c, 2, 72, 65
4, 384000, Note_on_c, 2, 62, 65
4, 384380, Note_off_c, 2, 78, 64
4, 384380, Note_off_c, 2, 72, 64
4, 384380, Note_off_c, 2, 62, 64
4, 384768, Note_on_c, 2, 84, 69
4, 384768, Note_on_c, 2, 66, 65
4, 384768, Note_on_c, 2, 63, 65
4, 384956, Note_off_c, 2, 84, 64
4, 384956, Note_off_c, 2, 66, 64
4, 384960, Note_on_c, 2, 82, 68
4, 384960, Note_on_c, 2, 67, 65
4, 385148, Note_off_c, 2, 82, 64
4, 385148, Note_off_c, 2, 67, 64
4, 385152, Note_on_c, 2, 81, 67
4, 385152, Note_on_c, 2, 69, 65
4, 385340, Note_off_c, 2, 81, 64
4, 385340, Note_off_c, 2, 69, 64
4, 385344, Note_on_c, 2, 84, 69
4, 385344, Note_on_c, 2, 66, 65
4, 385532, Note_off_c, 2, 63, 64
4, 385532, Note_off_c, 2, 84, 64
4, 385532, Note_off_c, 2, 66, 64
4, 385536, Note_on_c, 2, 78, 65
4, 385536, Note_on_c, 2, 72, 65
4, 385916, Note_off_c, 2, 78, 64
4, 385916, Note_off_c, 2, 72, 64
4, 385920, Note_on_c, 2, 60, 65
4, 386300, Note_off_c, 2, 60, 64
4, 386688, Note_on_c, 2, 66, 65
4, 386688, Note_on_c, 2, 60, 65
4, 386688, Note_on_c, 2, 57, 65
4, 387068, Note_off_c, 2, 66, 64
4, 387068, Note_off_c, 2, 60, 64
4, 387068, Note_off_c, 2, 57, 64
4, 387456, Note_on_c, 2, 69, 65
4, 387456, Note_on_c, 2, 66, 65
4, 387456, Note_on_c, 2, 60, 65
4, 387836, Note_off_c, 2, 69, 64
4, 387836, Note_off_c, 2, 66, 64
4, 387836, Note_off_c, 2, 60, 64
4, 387840, Note_on_c, 2, 72, 65
4, 387840, Note_on_c, 2, 69, 65
4, 387840, Note_on_c, 2, 66, 65
4, 388220, Note_off_c, 2, 72, 64
4, 388220, Note_off_c, 2, 69, 64
4, 388220, Note_off_c, 2, 66, 64
4, 388224, Note_on_c, 2, 78, 65
4, 388224, Note_on_c, 2, 74, 65
4, 388224, Note_on_c, 2, 72, 65
4, 388604, Note_off_c, 2, 78, 64
4, 388604, Note_off_c, 2, 74, 64
4, 388604, Note_off_c, 2, 72, 64
4, 388608, Note_on_c, 2, 79, 66
4, 388608, Note_on_c, 2, 74, 65
4, 388608, Note_on_c, 2, 71, 65
4, 388988, Note_off_c, 2, 79, 64
4, 388988, Note_off_c, 2, 74, 64
4, 388988, Note_off_c, 2, 71, 64
4, 389376, Note_on_c, 2, 77, 65
4, 389564, Note_off_c, 2, 77, 64
4, 389568, Note_on_c, 2, 75, 65
4, 389756, Note_off_c, 2, 75, 64
4, 389760, Note_on_c, 2, 74, 65
4, 389948, Note_off_c, 2, 74, 64
4, 389952, Note_on_c, 2, 77, 65
4, 390140, Note_off_c, 2, 77, 64
4, 390144, Note_on_c, 2, 71, 65
4, 390524, Note_off_c, 2, 71, 64
4, 390912, Note_on_c, 2, 77, 65
4, 391100, Note_off_c, 2, 77, 64
4, 391104, Note_on_c, 2, 75, 65
4, 391292, Note_off_c, 2, 75, 64
4, 391296, Note_on_c, 2, 74, 65
4, 391484, Note_off_c, 2, 74, 64
4, 391488, Note_on_c, 2, 77, 65
4, 391676, Note_off_c, 2, 77, 64
4, 391680, Note_on_c, 2, 76, 65
4, 392060, Note_off_c, 2, 76, 64
4, 392448, Note_on_c, 2, 82, 68
4, 392448, Note_on_c, 2, 79, 66
4, 392448, Note_on_c, 2, 64, 65
4, 392448, Note_on_c, 2, 67, 65
4, 392636, Note_off_c, 2, 82, 64
4, 392636, Note_off_c, 2, 79, 64
4, 392636, Note_off_c, 2, 64, 64
4, 392636, Note_off_c, 2, 67, 64
4, 392640, Note_on_c, 2, 80, 66
4, 392640, Note_on_c, 2, 77, 65
4, 392640, Note_on_c, 2, 65, 65
4, 392640, Note_on_c, 2, 68, 65
4, 392828, Note_off_c, 2, 80, 64
4, 392828, Note_off_c, 2, 77, 64
4, 392828, Note_off_c, 2, 65, 64
4, 392828, Note_off_c, 2, 68, 64
4, 392832, Note_on_c, 2, 79, 66
4, 392832, Note_on_c, 2, 76, 65
4, 392832, Note_on_c, 2, 67, 65
4, 392832, Note_on_c, 2, 70, 65
4, 393020, Note_off_c, 2, 79, 64
4, 393020, Note_off_c, 2, 76, 64
4, 393020, Note_off_c, 2, 67, 64
4, 393020, Note_off_c, 2, 70, 64
4, 393024, Note_on_c, 2, 82, 68
4, 393024, Note_on_c, 2, 79, 66
4, 393024, Note_on_c, 2, 64, 65
4, 393024, Note_on_c, 2, 67, 65
4, 393212, Note_off_c, 2, 82, 64
4, 393212, Note_off_c, 2, 79, 64
4, 393212, Note_off_c, 2, 64, 64
4, 393212, Note_off_c, 2, 67, 64
4, 393216, Note_on_c, 2, 76, 65
4, 393216, Note_on_c, 2, 72, 65
4, 393216, Note_on_c, 2, 70, 65
4, 393216, Note_on_c, 2, 67, 65
4, 393596, Note_off_c, 2, 76, 64
4, 393596, Note_off_c, 2, 72, 64
4, 393596, Note_off_c, 2, 70, 64
4, 393596, Note_off_c, 2, 67, 64
4, 393984, Note_on_c, 2, 82, 68
4, 393984, Note_on_c, 2, 79, 67
4, 393984, Note_on_c, 2, 64, 65
4, 393984, Note_on_c, 2, 67, 65
4, 394172, Note_off_c, 2, 82, 64
4, 394172, Note_off_c, 2, 79, 64
4, 394172, Note_off_c, 2, 64, 64
4, 394172, Note_off_c, 2, 67, 64
4, 394176, Note_on_c, 2, 80, 67
4, 394176, Note_on_c, 2, 77, 65
4, 394176, Note_on_c, 2, 65, 65
4, 394176, Note_on_c, 2, 68, 65
4, 394364, Note_off_c, 2, 80, 64
4, 394364, Note_off_c, 2, 77, 64
4, 394364, Note_off_c, 2, 65, 64
4, 394364, Note_off_c, 2, 68, 64
4, 394368, Note_on_c, 2, 79, 67
4, 394368, Note_on_c, 2, 76, 65
4, 394368, Note_on_c, 2, 67, 65
4, 394368, Note_on_c, 2, 70, 65
4, 394556, Note_off_c, 2, 79, 64
4, 394556, Note_off_c, 2, 76, 64
4, 394556, Note_off_c, 2, 67, 64
4, 394556, Note_off_c, 2, 70, 64
4, 394560, Note_on_c, 2, 82, 68
4, 394560, Note_on_c, 2, 79, 66
4, 394560, Note_on_c, 2, 64, 65
4, 394560, Note_on_c, 2, 67, 65
4, 394748, Note_off_c, 2, 82, 64
4, 394748, Note_off_c, 2, 79, 64
4, 394748, Note_off_c, 2, 64, 64
4, 394748, Note_off_c, 2, 67, 64
4, 394752, Note_on_c, 2, 68, 67
4, 394752, Note_on_c, 2, 65, 65
4, 394752, Note_on_c, 2, 80, 65
4, 395132, Note_off_c, 2, 68, 64
4, 395132, Note_off_c, 2, 65, 64
4, 395132, Note_off_c, 2, 80, 64
4, 395136, Note_on_c, 2, 60, 65
4, 395516, Note_off_c, 2, 60, 64
4, 395520, Note_on_c, 2, 65, 65
4, 395520, Note_on_c, 2, 68, 65
4, 395900, Note_off_c, 2, 65, 64
4, 395904, Note_on_c, 2, 64, 65
4, 396284, Note_off_c, 2, 64, 64
4, 396288, Note_on_c, 2, 62, 65
4, 396668, Note_off_c, 2, 68, 64
4, 396668, Note_off_c, 2, 62, 64
4, 396672, Note_on_c, 2, 62, 65
4, 396672, Note_on_c, 2, 58, 65
4, 397052, Note_off_c, 2, 62, 64
4, 397052, Note_off_c, 2, 58, 64
4, 397056, Note_on_c, 2, 63, 65
4, 397056, Note_on_c, 2, 60, 65
4, 397436, Note_off_c, 2, 63, 64
4, 397436, Note_off_c, 2, 60, 64
4, 397440, Note_on_c, 2, 65, 65
4, 397440, Note_on_c, 2, 62, 65
4, 397820, Note_off_c, 2, 65, 64
4, 397820, Note_off_c, 2, 62, 64
4, 397824, Note_on_c, 2, 67, 65
4, 397824, Note_on_c, 2, 63, 65
4, 398208, Note_on_c, 2, 67, 65
4, 398588, Note_off_c, 2, 67, 64
4, 398588, Note_off_c, 2, 63, 64
4, 398592, Note_on_c, 2, 68, 65
4, 398972, Note_off_c, 2, 68, 64
4, 398976, Note_on_c, 2, 70, 65
4, 399356, Note_off_c, 2, 70, 64
4, 399360, Note_on_c, 2, 72, 65
4, 399360, Note_on_c, 2, 60, 65
4, 399740, Note_off_c, 2, 67, 64
4, 399740, Note_off_c, 2, 60, 64
4, 399744, Note_on_c, 2, 60, 65
4, 399744, Note_on_c, 2, 56, 65
4, 400124, Note_off_c, 2, 60, 64
4, 400124, Note_off_c, 2, 56, 64
4, 400128, Note_on_c, 2, 62, 65
4, 400128, Note_on_c, 2, 58, 65
4, 400508, Note_off_c, 2, 62, 64
4, 400508, Note_off_c, 2, 58, 64
4, 400512, Note_on_c, 2, 63, 65
4, 400512, Note_on_c, 2, 60, 65
4, 400892, Note_off_c, 2, 63, 64
4, 400892, Note_off_c, 2, 60, 64
4, 400896, Note_on_c, 2, 65, 65
4, 400896, Note_on_c, 2, 62, 65
4, 401276, Note_off_c, 2, 72, 64
4, 401280, Note_on_c, 2, 65, 65
4, 401660, Note_off_c, 2, 65, 64
4, 401664, Note_on_c, 2, 67, 65
4, 402044, Note_off_c, 2, 62, 64
4, 402044, Note_off_c, 2, 67, 64
4, 402048, Note_on_c, 2, 69, 65
4, 402048, Note_on_c, 2, 60, 65
4, 402428, Note_off_c, 2, 69, 64
4, 402428, Note_off_c, 2, 60, 64
4, 402432, Note_on_c, 2, 71, 65
4, 402432, Note_on_c, 2, 59, 65
4, 402812, Note_off_c, 2, 65, 64
4, 402812, Note_off_c, 2, 71, 64
4, 402812, Note_off_c, 2, 59, 64
4, 402816, Note_on_c, 2, 59, 65
4, 402816, Note_on_c, 2, 55, 65
4, 403196, Note_off_c, 2, 59, 64
4, 403196, Note_off_c, 2, 55, 64
4, 403200, Note_on_c, 2, 60, 65
4, 403200, Note_on_c, 2, 57, 65
4, 403580, Note_off_c, 2, 60, 64
4, 403580, Note_off_c, 2, 57, 64
4, 403584, Note_on_c, 2, 62, 65
4, 403584, Note_on_c, 2, 59, 65
4, 403964, Note_off_c, 2, 62, 64
4, 403964, Note_off_c, 2, 59, 64
4, 403968, Note_on_c, 2, 75, 65
4, 404160, Note_on_c, 2, 63, 65
4, 404348, Note_off_c, 2, 63, 64
4, 404352, Note_on_c, 2, 62, 65
4, 404540, Note_off_c, 2, 62, 64
4, 404544, Note_on_c, 2, 63, 65
4, 404732, Note_off_c, 2, 75, 64
4, 404732, Note_off_c, 2, 63, 64
4, 404736, Note_on_c, 2, 76, 65
4, 404928, Note_on_c, 2, 64, 65
4, 405116, Note_off_c, 2, 64, 64
4, 405120, Note_on_c, 2, 62, 65
4, 405308, Note_off_c, 2, 62, 64
4, 405312, Note_on_c, 2, 64, 65
4, 405500, Note_off_c, 2, 76, 64
4, 405500, Note_off_c, 2, 64, 64
4, 405504, Note_on_c, 2, 77, 66
4, 405696, Note_on_c, 2, 65, 65
4, 405884, Note_off_c, 2, 65, 64
4, 405888, Note_on_c, 2, 64, 65
4, 406076, Note_off_c, 2, 64, 64
4, 406080, Note_on_c, 2, 65, 65
4, 406268, Note_off_c, 2, 77, 64
4, 406268, Note_off_c, 2, 65, 64
4, 406272, Note_on_c, 2, 79, 66
4, 406464, Note_on_c, 2, 67, 65
4, 406652, Note_off_c, 2, 67, 64
4, 406656, Note_on_c, 2, 65, 65
4, 406844, Note_off_c, 2, 65, 64
4, 406848, Note_on_c, 2, 67, 65
4, 407036, Note_off_c, 2, 79, 64
4, 407036, Note_off_c, 2, 67, 64
4, 407040, Note_on_c, 2, 80, 66
4, 407232, Note_on_c, 2, 68, 65
4, 407420, Note_off_c, 2, 68, 64
4, 407424, Note_on_c, 2, 67, 65
4, 407612, Note_off_c, 2, 67, 64
4, 407616, Note_on_c, 2, 68, 65
4, 407804, Note_off_c, 2, 80, 64
4, 407804, Note_off_c, 2, 68, 64
4, 407808, Note_on_c, 2, 81, 66
4, 408000, Note_on_c, 2, 69, 65
4, 408188, Note_off_c, 2, 69, 64
4, 408192, Note_on_c, 2, 67, 65
4, 408380, Note_off_c, 2, 67, 64
4, 408384, Note_on_c, 2, 69, 65
4, 408572, Note_off_c, 2, 81, 64
4, 408572, Note_off_c, 2, 69, 64
4, 408576, Note_on_c, 2, 82, 68
4, 408768, Note_on_c, 2, 70, 65
4, 408956, Note_off_c, 2, 70, 64
4, 408960, Note_on_c, 2, 69, 65
4, 409148, Note_off_c, 2, 69, 64
4, 409152, Note_on_c, 2, 70, 65
4, 409340, Note_off_c, 2, 82, 64
4, 409340, Note_off_c, 2, 70, 64
4, 409344, Note_on_c, 2, 83, 68
4, 409536, Note_on_c, 2, 71, 65
4, 409724, Note_off_c, 2, 71, 64
4, 409728, Note_on_c, 2, 69, 65
4, 409916, Note_off_c, 2, 69, 64
4, 409920, Note_on_c, 2, 71, 65
4, 410108, Note_off_c, 2, 83, 64
4, 410108, Note_off_c, 2, 71, 64
4, 410112, Note_on_c, 2, 84, 69
4, 410304, Note_on_c, 2, 72, 65
4, 410492, Note_off_c, 2, 72, 64
4, 410496, Note_on_c, 2, 71, 65
4, 410684, Note_off_c, 2, 71, 64
4, 410688, Note_on_c, 2, 72, 65
4, 410876, Note_off_c, 2, 84, 64
4, 410876, Note_off_c, 2, 72, 64
4, 410880, Note_on_c, 2, 86, 65
4, 411072, Note_on_c, 2, 74, 70
4, 411260, Note_off_c, 2, 74, 64
4, 411264, Note_on_c, 2, 72, 65
4, 411452, Note_off_c, 2, 72, 64
4, 411456, Note_on_c, 2, 74, 65
4, 411644, Note_off_c, 2, 86, 64
4, 411644, Note_off_c, 2, 74, 64
4, 411648, Note_on_c, 2, 87, 71
4, 411648, Note_on_c, 2, 75, 65
4, 412028, Note_off_c, 2, 87, 64
4, 412028, Note_off_c, 2, 75, 64
4, 414720, Note_on_c, 2, 74, 65
4, 414720, Note_on_c, 2, 71, 65
4, 416252, Note_off_c, 2, 74, 64
4, 416252, Note_off_c, 2, 71, 64
4, 416256, Note_on_c, 2, 75, 65
4, 416256, Note_on_c, 2, 72, 65
4, 417788, Note_off_c, 2, 75, 64
4, 417788, Note_off_c, 2, 72, 64
4, 417792, Note_on_c, 2, 86, 70
4, 417792, Note_on_c, 2, 74, 65
4, 419324, Note_off_c, 2, 86, 64
4, 419324, Note_off_c, 2, 74, 64
4, 419328, Note_on_c, 2, 87, 71
4, 419328, Note_on_c, 2, 75, 65
4, 420860, Note_off_c, 2, 87, 64
4, 420860, Note_off_c, 2, 75, 64
4, 420864, Note_on_c, 2, 86, 70
4, 420864, Note_on_c, 2, 74, 65
4, 420864, Note_on_c, 2, 62, 65
4, 420864, Note_on_c, 2, 59, 65
4, 420864, Note_on_c, 2, 55, 65
4, 421056, Note_on_c, 2, 74, 65
4, 421056, Note_on_c, 2, 71, 65
4, 421244, Note_off_c, 2, 74, 64
4, 421244, Note_off_c, 2, 62, 64
4, 421244, Note_off_c, 2, 59, 64
4, 421244, Note_off_c, 2, 55, 64
4, 421244, Note_off_c, 2, 71, 64
4, 421248, Note_on_c, 2, 74, 65
4, 421248, Note_on_c, 2, 71, 65
4, 421436, Note_off_c, 2, 74, 64
4, 421436, Note_off_c, 2, 71, 64
4, 421440, Note_on_c, 2, 74, 65
4, 421440, Note_on_c, 2, 71, 65
4, 421628, Note_off_c, 2, 86, 64
4, 421628, Note_off_c, 2, 74, 64
4, 421628, Note_off_c, 2, 74, 64
4, 421628, Note_off_c, 2, 71, 64
4, 421632, Note_on_c, 2, 84, 69
4, 421632, Note_on_c, 2, 81, 67
4, 421632, Note_on_c, 2, 67, 65
4, 421632, Note_on_c, 2, 55, 65
4, 421824, Note_on_c, 2, 72, 65
4, 421824, Note_on_c, 2, 69, 65
4, 422012, Note_off_c, 2, 67, 64
4, 422012, Note_off_c, 2, 55, 64
4, 422012, Note_off_c, 2, 72, 64
4, 422012, Note_off_c, 2, 69, 64
4, 422016, Note_on_c, 2, 72, 65
4, 422016, Note_on_c, 2, 69, 65
4, 422204, Note_off_c, 2, 72, 64
4, 422204, Note_off_c, 2, 69, 64
4, 422208, Note_on_c, 2, 72, 65
4, 422208, Note_on_c, 2, 69, 65
4, 422396, Note_off_c, 2, 84, 64
4, 422396, Note_off_c, 2, 81, 64
4, 422396, Note_off_c, 2, 72, 64
4, 422396, Note_off_c, 2, 69, 64
4, 422400, Note_on_c, 2, 83, 68
4, 422400, Note_on_c, 2, 79, 66
4, 422400, Note_on_c, 2, 67, 65
4, 422400, Note_on_c, 2, 55, 65
4, 422592, Note_on_c, 2, 71, 65
4, 422592, Note_on_c, 2, 67, 65
4, 422780, Note_off_c, 2, 67, 64
4, 422780, Note_off_c, 2, 55, 64
4, 422780, Note_off_c, 2, 71, 64
4, 422780, Note_off_c, 2, 67, 64
4, 422784, Note_on_c, 2, 71, 65
4, 422784, Note_on_c, 2, 67, 65
4, 422972, Note_off_c, 2, 71, 64
4, 422972, Note_off_c, 2, 67, 64
4, 422976, Note_on_c, 2, 71, 65
4, 422976, Note_on_c, 2, 67, 65
4, 423164, Note_off_c, 2, 83, 64
4, 423164, Note_off_c, 2, 79, 64
4, 423164, Note_off_c, 2, 71, 64
4, 423164, Note_off_c, 2, 67, 64
4, 423168, Note_on_c, 2, 81, 65
4, 423168, Note_on_c, 2, 77, 65
4, 423168, Note_on_c, 2, 67, 65
4, 423168, Note_on_c, 2, 55, 65
4, 423360, Note_on_c, 2, 69, 65
4, 423360, Note_on_c, 2, 65, 65
4, 423548, Note_off_c, 2, 67, 64
4, 423548, Note_off_c, 2, 55, 64
4, 423548, Note_off_c, 2, 69, 64
4, 423548, Note_off_c, 2, 65, 64
4, 423552, Note_on_c, 2, 69, 65
4, 423552, Note_on_c, 2, 65, 65
4, 423740, Note_off_c, 2, 69, 64
4, 423740, Note_off_c, 2, 65, 64
4, 423744, Note_on_c, 2, 69, 65
4, 423744, Note_on_c, 2, 65, 65
4, 423932, Note_off_c, 2, 81, 64
4, 423932, Note_off_c, 2, 77, 64
4, 423932, Note_off_c, 2, 69, 64
4, 423932, Note_off_c, 2, 65, 64
4, 423936, Note_on_c, 2, 79, 66
4, 423936, Note_on_c, 2, 76, 65
4, 424700, Note_off_c, 2, 79, 64
4, 424700, Note_off_c, 2, 76, 64
4, 424704, Note_on_c, 2, 77, 65
4, 424704, Note_on_c, 2, 74, 65
4, 425468, Note_off_c, 2, 77, 64
4, 425468, Note_off_c, 2, 74, 64
4, 425472, Note_on_c, 2, 76, 65
4, 425472, Note_on_c, 2, 72, 65
4, 426236, Note_off_c, 2, 76, 64
4, 426236, Note_off_c, 2, 72, 64
4, 426240, Note_on_c, 2, 74, 65
4, 426240, Note_on_c, 2, 71, 65
4, 427004, Note_off_c, 2, 74, 64
4, 427004, Note_off_c, 2, 71, 64
4, 427008, Note_on_c, 2, 72, 66
4, 427008, Note_on_c, 2, 60, 66
4, 427196, Note_off_c, 2, 72, 64
4, 427196, Note_off_c, 2, 60, 64
4, 427392, Note_on_c, 2, 55, 65
4, 427580, Note_off_c, 2, 55, 64
4, 427776, Note_on_c, 2, 60, 65
4, 427964, Note_off_c, 2, 60, 64
4, 428160, Note_on_c, 2, 64, 65
4, 428160, Note_on_c, 2, 52, 65
4, 428348, Note_off_c, 2, 64, 64
4, 428348, Note_off_c, 2, 52, 64
4, 428544, Note_on_c, 2, 65, 65
4, 429116, Note_off_c, 2, 65, 64
4, 429120, Note_on_c, 2, 64, 65
4, 429176, Note_off_c, 2, 64, 64
4, 429184, Note_on_c, 2, 62, 64
4, 429240, Note_off_c, 2, 62, 64
4, 429248, Note_on_c, 2, 60, 63
4, 429304, Note_off_c, 2, 60, 64
4, 429312, Note_on_c, 2, 59, 62
4, 429692, Note_off_c, 2, 59, 64
4, 429984, Note_on_c, 2, 55, 60
4, 430076, Note_off_c, 2, 55, 64
4, 430080, Note_on_c, 2, 59, 62
4, 430172, Note_off_c, 2, 59, 64
4, 430464, Note_on_c, 2, 62, 63
4, 430556, Note_off_c, 2, 62, 64
4, 430848, Note_on_c, 2, 65, 65
4, 430940, Note_off_c, 2, 65, 64
4, 431232, Note_on_c, 2, 62, 65
4, 431324, Note_off_c, 2, 62, 64
4, 431616, Note_on_c, 2, 67, 65
4, 432188, Note_off_c, 2, 67, 64
4, 432192, Note_on_c, 2, 69, 65
4, 432248, Note_off_c, 2, 69, 64
4, 432256, Note_on_c, 2, 67, 64
4, 432312, Note_off_c, 2, 67, 64
4, 432320, Note_on_c, 2, 65, 63
4, 432376, Note_off_c, 2, 65, 64
4, 432384, Note_on_c, 2, 64, 62
4, 432764, Note_off_c, 2, 64, 64
4, 433152, Note_on_c, 2, 79, 66
4, 433344, Note_on_c, 2, 67, 65
4, 433532, Note_off_c, 2, 67, 64
4, 433536, Note_on_c, 2, 67, 65
4, 433724, Note_off_c, 2, 67, 64
4, 433728, Note_on_c, 2, 67, 65
4, 433916, Note_off_c, 2, 67, 64
4, 433920, Note_on_c, 2, 67, 65
4, 434108, Note_off_c, 2, 79, 64
4, 434112, Note_on_c, 2, 78, 66
4, 434204, Note_off_c, 2, 78, 64
4, 434300, Note_off_c, 2, 67, 64
4, 434304, Note_on_c, 2, 79, 67
4, 434396, Note_off_c, 2, 79, 64
4, 434496, Note_on_c, 2, 76, 65
4, 434588, Note_off_c, 2, 76, 64
4, 434688, Note_on_c, 2, 77, 65
4, 434880, Note_on_c, 2, 65, 65
4, 434880, Note_on_c, 2, 71, 65
4, 435068, Note_off_c, 2, 65, 64
4, 435068, Note_off_c, 2, 71, 64
4, 435072, Note_on_c, 2, 65, 65
4, 435072, Note_on_c, 2, 71, 65
4, 435260, Note_off_c, 2, 65, 64
4, 435260, Note_off_c, 2, 71, 64
4, 435264, Note_on_c, 2, 65, 65
4, 435264, Note_on_c, 2, 71, 65
4, 435452, Note_off_c, 2, 65, 64
4, 435452, Note_off_c, 2, 71, 64
4, 435456, Note_on_c, 2, 71, 65
4, 435456, Note_on_c, 2, 65, 65
4, 435644, Note_off_c, 2, 77, 64
4, 435648, Note_on_c, 2, 76, 65
4, 435740, Note_off_c, 2, 76, 64
4, 435836, Note_off_c, 2, 71, 64
4, 435836, Note_off_c, 2, 65, 64
4, 435840, Note_on_c, 2, 77, 65
4, 435932, Note_off_c, 2, 77, 64
4, 436032, Note_on_c, 2, 74, 65
4, 436124, Note_off_c, 2, 74, 64
4, 436224, Note_on_c, 2, 72, 65
4, 436224, Note_on_c, 2, 67, 65
4, 436224, Note_on_c, 2, 64, 65
4, 436604, Note_off_c, 2, 72, 64
4, 436604, Note_off_c, 2, 67, 64
4, 436604, Note_off_c, 2, 64, 64
4, 436608, Note_on_c, 2, 72, 65
4, 436608, Note_on_c, 2, 67, 65
4, 436608, Note_on_c, 2, 64, 65
4, 436892, Note_off_c, 2, 72, 64
4, 436892, Note_off_c, 2, 67, 64
4, 436892, Note_off_c, 2, 64, 64
4, 436896, Note_on_c, 2, 72, 65
4, 436896, Note_on_c, 2, 67, 65
4, 436896, Note_on_c, 2, 64, 65
4, 436988, Note_off_c, 2, 72, 64
4, 436988, Note_off_c, 2, 67, 64
4, 436988, Note_off_c, 2, 64, 64
4, 436992, Note_on_c, 2, 74, 65
4, 436992, Note_on_c, 2, 71, 65
4, 436992, Note_on_c, 2, 67, 65
4, 437372, Note_off_c, 2, 74, 64
4, 437372, Note_off_c, 2, 71, 64
4, 437372, Note_off_c, 2, 67, 64
4, 437376, Note_on_c, 2, 71, 65
4, 437376, Note_on_c, 2, 67, 65
4, 437376, Note_on_c, 2, 74, 65
4, 437660, Note_off_c, 2, 71, 64
4, 437660, Note_off_c, 2, 67, 64
4, 437660, Note_off_c, 2, 74, 64
4, 437664, Note_on_c, 2, 74, 65
4, 437664, Note_on_c, 2, 71, 65
4, 437664, Note_on_c, 2, 67, 65
4, 437756, Note_off_c, 2, 74, 64
4, 437756, Note_off_c, 2, 71, 64
4, 437756, Note_off_c, 2, 67, 64
4, 437760, Note_on_c, 2, 72, 65
4, 437760, Note_on_c, 2, 76, 65
4, 437804, Note_off_c, 2, 76, 64
4, 437808, Note_on_c, 2, 77, 65
4, 437852, Note_off_c, 2, 77, 64
4, 437856, Note_on_c, 2, 76, 65
4, 437900, Note_off_c, 2, 76, 64
4, 437904, Note_on_c, 2, 77, 65
4, 437948, Note_off_c, 2, 72, 64
4, 437948, Note_off_c, 2, 77, 64
4, 437952, Note_on_c, 2, 74, 65
4, 437952, Note_on_c, 2, 71, 65
4, 438044, Note_off_c, 2, 74, 64
4, 438044, Note_off_c, 2, 71, 64
4, 438048, Note_on_c, 2, 76, 65
4, 438048, Note_on_c, 2, 72, 65
4, 438140, Note_off_c, 2, 76, 64
4, 438140, Note_off_c, 2, 72, 64
4, 438144, Note_on_c, 2, 77, 65
4, 438144, Note_on_c, 2, 74, 65
4, 438144, Note_on_c, 2, 67, 65
4, 438236, Note_off_c, 2, 77, 64
4, 438236, Note_off_c, 2, 74, 64
4, 438236, Note_off_c, 2, 67, 64
4, 438336, Note_on_c, 2, 76, 65
4, 438336, Note_on_c, 2, 72, 65
4, 438336, Note_on_c, 2, 67, 65
4, 438428, Note_off_c, 2, 76, 64
4, 438428, Note_off_c, 2, 72, 64
4, 438428, Note_off_c, 2, 67, 64
4, 438528, Note_on_c, 2, 74, 65
4, 438528, Note_on_c, 2, 71, 65
4, 438528, Note_on_c, 2, 67, 65
4, 438716, Note_off_c, 2, 74, 64
4, 438720, Note_on_c, 2, 76, 65
4, 438908, Note_off_c, 2, 71, 64
4, 438908, Note_off_c, 2, 67, 64
4, 438908, Note_off_c, 2, 76, 64
4, 438912, Note_on_c, 2, 77, 65
4, 439100, Note_off_c, 2, 77, 64
4, 439104, Note_on_c, 2, 78, 65
4, 439292, Note_off_c, 2, 78, 64
4, 439296, Note_on_c, 2, 79, 66
4, 439488, Note_on_c, 2, 67, 65
4, 439676, Note_off_c, 2, 67, 64
4, 439680, Note_on_c, 2, 67, 65
4, 439868, Note_off_c, 2, 67, 64
4, 439872, Note_on_c, 2, 67, 65
4, 440060, Note_off_c, 2, 79, 64
4, 440060, Note_off_c, 2, 67, 64
4, 440064, Note_on_c, 2, 67, 65
4, 440064, Note_on_c, 2, 79, 66
4, 440208, Note_off_c, 2, 79, 64
4, 440208, Note_on_c, 2, 81, 75
4, 440248, Note_off_c, 2, 81, 64
4, 440256, Note_on_c, 2, 79, 66
4, 440348, Note_off_c, 2, 79, 64
4, 440352, Note_on_c, 2, 78, 65
4, 440444, Note_off_c, 2, 67, 64
4, 440444, Note_off_c, 2, 78, 64
4, 440448, Note_on_c, 2, 79, 66
4, 440636, Note_off_c, 2, 79, 64
4, 440640, Note_on_c, 2, 76, 65
4, 440732, Note_off_c, 2, 76, 64
4, 440832, Note_on_c, 2, 77, 66
4, 441024, Note_on_c, 2, 71, 65
4, 441024, Note_on_c, 2, 65, 65
4, 441212, Note_off_c, 2, 71, 64
4, 441212, Note_off_c, 2, 65, 64
4, 441216, Note_on_c, 2, 71, 65
4, 441216, Note_on_c, 2, 65, 65
4, 441404, Note_off_c, 2, 71, 64
4, 441404, Note_off_c, 2, 65, 64
4, 441408, Note_on_c, 2, 71, 65
4, 441408, Note_on_c, 2, 65, 65
4, 441596, Note_off_c, 2, 77, 64
4, 441596, Note_off_c, 2, 71, 64
4, 441596, Note_off_c, 2, 65, 64
4, 441600, Note_on_c, 2, 71, 65
4, 441600, Note_on_c, 2, 65, 65
4, 441600, Note_on_c, 2, 77, 65
4, 441744, Note_off_c, 2, 77, 64
4, 441744, Note_on_c, 2, 79, 75
4, 441784, Note_off_c, 2, 79, 64
4, 441792, Note_on_c, 2, 77, 65
4, 441884, Note_off_c, 2, 77, 64
4, 441888, Note_on_c, 2, 76, 65
4, 441980, Note_off_c, 2, 71, 64
4, 441980, Note_off_c, 2, 65, 64
4, 441980, Note_off_c, 2, 76, 64
4, 441984, Note_on_c, 2, 77, 65
4, 442172, Note_off_c, 2, 77, 64
4, 442176, Note_on_c, 2, 74, 65
4, 442268, Note_off_c, 2, 74, 64
4, 442368, Note_on_c, 2, 72, 65
4, 442368, Note_on_c, 2, 64, 65
4, 442368, Note_on_c, 2, 67, 65
4, 442748, Note_off_c, 2, 72, 64
4, 442748, Note_off_c, 2, 64, 64
4, 442748, Note_off_c, 2, 67, 64
4, 442752, Note_on_c, 2, 72, 65
4, 442752, Note_on_c, 2, 67, 65
4, 442752, Note_on_c, 2, 64, 65
4, 443036, Note_off_c, 2, 72, 64
4, 443036, Note_off_c, 2, 67, 64
4, 443036, Note_off_c, 2, 64, 64
4, 443040, Note_on_c, 2, 72, 65
4, 443040, Note_on_c, 2, 67, 65
4, 443040, Note_on_c, 2, 64, 65
4, 443132, Note_off_c, 2, 72, 64
4, 443132, Note_off_c, 2, 67, 64
4, 443132, Note_off_c, 2, 64, 64
4, 443136, Note_on_c, 2, 74, 65
4, 443136, Note_on_c, 2, 67, 65
4, 443136, Note_on_c, 2, 71, 65
4, 443180, Note_off_c, 2, 74, 64
4, 443184, Note_on_c, 2, 76, 65
4, 443228, Note_off_c, 2, 76, 64
4, 443232, Note_on_c, 2, 74, 65
4, 443276, Note_off_c, 2, 74, 64
4, 443280, Note_on_c, 2, 76, 65
4, 443324, Note_off_c, 2, 76, 64
4, 443328, Note_on_c, 2, 74, 65
4, 443372, Note_off_c, 2, 74, 64
4, 443376, Note_on_c, 2, 76, 65
4, 443420, Note_off_c, 2, 67, 64
4, 443420, Note_off_c, 2, 71, 64
4, 443420, Note_off_c, 2, 76, 64
4, 443424, Note_on_c, 2, 72, 65
4, 443424, Note_on_c, 2, 69, 65
4, 443516, Note_off_c, 2, 72, 64
4, 443516, Note_off_c, 2, 69, 64
4, 443520, Note_on_c, 2, 74, 65
4, 443520, Note_on_c, 2, 71, 65
4, 443804, Note_off_c, 2, 74, 64
4, 443804, Note_off_c, 2, 71, 64
4, 443808, Note_on_c, 2, 76, 65
4, 443808, Note_on_c, 2, 67, 65
4, 443900, Note_off_c, 2, 76, 64
4, 443900, Note_off_c, 2, 67, 64
4, 443904, Note_on_c, 2, 76, 90
4, 443904, Note_on_c, 2, 72, 90
4, 443996, Note_off_c, 2, 76, 64
4, 443996, Note_off_c, 2, 72, 64
4, 444000, Note_on_c, 2, 84, 94
4, 444092, Note_off_c, 2, 84, 64
4, 444096, Note_on_c, 2, 76, 90
4, 444096, Note_on_c, 2, 72, 90
4, 444188, Note_off_c, 2, 76, 64
4, 444188, Note_off_c, 2, 72, 64
4, 444192, Note_on_c, 2, 84, 94
4, 444284, Note_off_c, 2, 84, 64
4, 444288, Note_on_c, 2, 76, 90
4, 444288, Note_on_c, 2, 72, 90
4, 444380, Note_off_c, 2, 76, 64
4, 444380, Note_off_c, 2, 72, 64
4, 444384, Note_on_c, 2, 84, 94
4, 444476, Note_off_c, 2, 84, 64
4, 444480, Note_on_c, 2, 76, 90
4, 444480, Note_on_c, 2, 72, 90
4, 444572, Note_off_c, 2, 76, 64
4, 444572, Note_off_c, 2, 72, 64
4, 444576, Note_on_c, 2, 84, 94
4, 444668, Note_off_c, 2, 84, 64
4, 444672, Note_on_c, 2, 76, 90
4, 444672, Note_on_c, 2, 72, 90
4, 444764, Note_off_c, 2, 76, 64
4, 444764, Note_off_c, 2, 72, 64
4, 444768, Note_on_c, 2, 84, 94
4, 444860, Note_off_c, 2, 84, 64
4, 444864, Note_on_c, 2, 76, 90
4, 444864, Note_on_c, 2, 72, 90
4, 444956, Note_off_c, 2, 76, 64
4, 444956, Note_off_c, 2, 72, 64
4, 444960, Note_on_c, 2, 84, 94
4, 445052, Note_off_c, 2, 84, 64
4, 445056, Note_on_c, 2, 76, 90
4, 445056, Note_on_c, 2, 72, 90
4, 445148, Note_off_c, 2, 76, 64
4, 445148, Note_off_c, 2, 72, 64
4, 445152, Note_on_c, 2, 84, 94
4, 445244, Note_off_c, 2, 84, 64
4, 445248, Note_on_c, 2, 76, 90
4, 445248, Note_on_c, 2, 72, 90
4, 445340, Note_off_c, 2, 76, 64
4, 445340, Note_off_c, 2, 72, 64
4, 445344, Note_on_c, 2, 84, 94
4, 445436, Note_off_c, 2, 84, 64
4, 445440, Note_on_c, 2, 74, 90
4, 445440, Note_on_c, 2, 72, 90
4, 445532, Note_off_c, 2, 74, 64
4, 445532, Note_off_c, 2, 72, 64
4, 445536, Note_on_c, 2, 84, 94
4, 445628, Note_off_c, 2, 84, 64
4, 445632, Note_on_c, 2, 74, 90
4, 445632, Note_on_c, 2, 72, 90
4, 445724, Note_off_c, 2, 74, 64
4, 445724, Note_off_c, 2, 72, 64
4, 445728, Note_on_c, 2, 84, 94
4, 445820, Note_off_c, 2, 84, 64
4, 445824, Note_on_c, 2, 74, 90
4, 445824, Note_on_c, 2, 69, 90
4, 445916, Note_off_c, 2, 74, 64
4, 445916, Note_off_c, 2, 69, 64
4, 445920, Note_on_c, 2, 81, 92
4, 446012, Note_off_c, 2, 81, 64
4, 446016, Note_on_c, 2, 74, 90
4, 446016, Note_on_c, 2, 69, 90
4, 446108, Note_off_c, 2, 74, 64
4, 446108, Note_off_c, 2, 69, 64
4, 446112, Note_on_c, 2, 81, 92
4, 446204, Note_off_c, 2, 81, 64
4, 446208, Note_on_c, 2, 74, 90
4, 446208, Note_on_c, 2, 71, 90
4, 446300, Note_off_c, 2, 74, 64
4, 446300, Note_off_c, 2, 71, 64
4, 446304, Note_on_c, 2, 83, 93
4, 446396, Note_off_c, 2, 83, 64
4, 446400, Note_on_c, 2, 74, 90
4, 446400, Note_on_c, 2, 71, 90
4, 446492, Note_off_c, 2, 74, 64
4, 446492, Note_off_c, 2, 71, 64
4, 446496, Note_on_c, 2, 83, 93
4, 446588, Note_off_c, 2, 83, 64
4, 446592, Note_on_c, 2, 76, 90
4, 446592, Note_on_c, 2, 73, 90
4, 446684, Note_off_c, 2, 76, 64
4, 446684, Note_off_c, 2, 73, 64
4, 446688, Note_on_c, 2, 85, 94
4, 446780, Note_off_c, 2, 85, 64
4, 446784, Note_on_c, 2, 76, 90
4, 446784, Note_on_c, 2, 73, 90
4, 446876, Note_off_c, 2, 76, 64
4, 446876, Note_off_c, 2, 73, 64
4, 446880, Note_on_c, 2, 85, 94
4, 446972, Note_off_c, 2, 85, 64
4, 446976, Note_on_c, 2, 77, 90
4, 446976, Note_on_c, 2, 74, 90
4, 447068, Note_off_c, 2, 77, 64
4, 447068, Note_off_c, 2, 74, 64
4, 447072, Note_on_c, 2, 86, 95
4, 447164, Note_off_c, 2, 86, 64
4, 447168, Note_on_c, 2, 77, 90
4, 447168, Note_on_c, 2, 74, 90
4, 447260, Note_off_c, 2, 77, 64
4, 447260, Note_off_c, 2, 74, 64
4, 447264, Note_on_c, 2, 86, 95
4, 447356, Note_off_c, 2, 86, 64
4, 447360, Note_on_c, 2, 77, 90
4, 447360, Note_on_c, 2, 74, 90
4, 447452, Note_off_c, 2, 77, 64
4, 447452, Note_off_c, 2, 74, 64
4, 447456, Note_on_c, 2, 86, 95
4, 447548, Note_off_c, 2, 86, 64
4, 447552, Note_on_c, 2, 77, 90
4, 447552, Note_on_c, 2, 74, 91
4, 447644, Note_off_c, 2, 77, 64
4, 447644, Note_off_c, 2, 74, 64
4, 447648, Note_on_c, 2, 86, 95
4, 447740, Note_off_c, 2, 86, 64
4, 447744, Note_on_c, 2, 77, 90
4, 447744, Note_on_c, 2, 74, 90
4, 447836, Note_off_c, 2, 77, 64
4, 447836, Note_off_c, 2, 74, 64
4, 447840, Note_on_c, 2, 86, 95
4, 447932, Note_off_c, 2, 86, 64
4, 447936, Note_on_c, 2, 77, 90
4, 447936, Note_on_c, 2, 74, 90
4, 448028, Note_off_c, 2, 77, 64
4, 448028, Note_off_c, 2, 74, 64
4, 448032, Note_on_c, 2, 86, 95
4, 448124, Note_off_c, 2, 86, 64
4, 448128, Note_on_c, 2, 77, 90
4, 448128, Note_on_c, 2, 74, 90
4, 448220, Note_off_c, 2, 77, 64
4, 448220, Note_off_c, 2, 74, 64
4, 448224, Note_on_c, 2, 86, 95
4, 448316, Note_off_c, 2, 86, 64
4, 448320, Note_on_c, 2, 77, 90
4, 448320, Note_on_c, 2, 74, 90
4, 448412, Note_off_c, 2, 77, 64
4, 448412, Note_off_c, 2, 74, 64
4, 448416, Note_on_c, 2, 86, 95
4, 448508, Note_off_c, 2, 86, 64
4, 448512, Note_on_c, 2, 76, 90
4, 448512, Note_on_c, 2, 74, 90
4, 448604, Note_off_c, 2, 76, 64
4, 448604, Note_off_c, 2, 74, 64
4, 448608, Note_on_c, 2, 86, 95
4, 448700, Note_off_c, 2, 86, 64
4, 448704, Note_on_c, 2, 74, 90
4, 448704, Note_on_c, 2, 76, 90
4, 448796, Note_off_c, 2, 74, 64
4, 448796, Note_off_c, 2, 76, 64
4, 448800, Note_on_c, 2, 86, 95
4, 448892, Note_off_c, 2, 86, 64
4, 448896, Note_on_c, 2, 76, 90
4, 448896, Note_on_c, 2, 71, 90
4, 448988, Note_off_c, 2, 76, 64
4, 448988, Note_off_c, 2, 71, 64
4, 448992, Note_on_c, 2, 83, 93
4, 449084, Note_off_c, 2, 83, 64
4, 449088, Note_on_c, 2, 76, 90
4, 449088, Note_on_c, 2, 71, 90
4, 449180, Note_off_c, 2, 76, 64
4, 449180, Note_off_c, 2, 71, 64
4, 449184, Note_on_c, 2, 83, 93
4, 449276, Note_off_c, 2, 83, 64
4, 449280, Note_on_c, 2, 79, 90
4, 449280, Note_on_c, 2, 72, 90
4, 449372, Note_off_c, 2, 79, 64
4, 449372, Note_off_c, 2, 72, 64
4, 449376, Note_on_c, 2, 84, 94
4, 449468, Note_off_c, 2, 84, 64
4, 449472, Note_on_c, 2, 79, 90
4, 449472, Note_on_c, 2, 72, 90
4, 449564, Note_off_c, 2, 79, 64
4, 449564, Note_off_c, 2, 72, 64
4, 449568, Note_on_c, 2, 84, 94
4, 449660, Note_off_c, 2, 84, 64
4, 449664, Note_on_c, 2, 83, 90
4, 449664, Note_on_c, 2, 79, 90
4, 449664, Note_on_c, 2, 74, 90
4, 449756, Note_off_c, 2, 83, 64
4, 449756, Note_off_c, 2, 79, 64
4, 449756, Note_off_c, 2, 74, 64
4, 449760, Note_on_c, 2, 86, 95
4, 449852, Note_off_c, 2, 86, 64
4, 449856, Note_on_c, 2, 83, 90
4, 449856, Note_on_c, 2, 79, 90
4, 449856, Note_on_c, 2, 74, 90
4, 449948, Note_off_c, 2, 83, 64
4, 449948, Note_off_c, 2, 79, 64
4, 449948, Note_off_c, 2, 74, 64
4, 449952, Note_on_c, 2, 86, 95
4, 450044, Note_off_c, 2, 86, 64
4, 450048, Note_on_c, 2, 84, 94
4, 450048, Note_on_c, 2, 76, 90
4, 450140, Note_off_c, 2, 84, 64
4, 450140, Note_off_c, 2, 76, 64
4, 450144, Note_on_c, 2, 88, 96
4, 450236, Note_off_c, 2, 88, 64
4, 450240, Note_on_c, 2, 84, 94
4, 450240, Note_on_c, 2, 76, 90
4, 450332, Note_off_c, 2, 84, 64
4, 450332, Note_off_c, 2, 76, 64
4, 450336, Note_on_c, 2, 88, 96
4, 450428, Note_off_c, 2, 88, 64
4, 450432, Note_on_c, 2, 84, 94
4, 450432, Note_on_c, 2, 76, 90
4, 450524, Note_off_c, 2, 84, 64
4, 450524, Note_off_c, 2, 76, 64
4, 450528, Note_on_c, 2, 88, 96
4, 450620, Note_off_c, 2, 88, 64
4, 450624, Note_on_c, 2, 84, 94
4, 450624, Note_on_c, 2, 76, 90
4, 450716, Note_off_c, 2, 84, 64
4, 450716, Note_off_c, 2, 76, 64
4, 450720, Note_on_c, 2, 88, 96
4, 450812, Note_off_c, 2, 88, 64
4, 450816, Note_on_c, 2, 84, 94
4, 450816, Note_on_c, 2, 76, 90
4, 450908, Note_off_c, 2, 84, 64
4, 450908, Note_off_c, 2, 76, 64
4, 450912, Note_on_c, 2, 88, 96
4, 451004, Note_off_c, 2, 88, 64
4, 451008, Note_on_c, 2, 84, 94
4, 451008, Note_on_c, 2, 76, 90
4, 451100, Note_off_c, 2, 84, 64
4, 451100, Note_off_c, 2, 76, 64
4, 451104, Note_on_c, 2, 88, 96
4, 451196, Note_off_c, 2, 88, 64
4, 451200, Note_on_c, 2, 84, 94
4, 451200, Note_on_c, 2, 76, 90
4, 451292, Note_off_c, 2, 84, 64
4, 451292, Note_off_c, 2, 76, 64
4, 451296, Note_on_c, 2, 88, 96
4, 451388, Note_off_c, 2, 88, 64
4, 451392, Note_on_c, 2, 84, 94
4, 451392, Note_on_c, 2, 76, 90
4, 451484, Note_off_c, 2, 84, 64
4, 451484, Note_off_c, 2, 76, 64
4, 451488, Note_on_c, 2, 88, 96
4, 451580, Note_off_c, 2, 88, 64
4, 451584, Note_on_c, 2, 83, 93
4, 451584, Note_on_c, 2, 76, 90
4, 451676, Note_off_c, 2, 83, 64
4, 451676, Note_off_c, 2, 76, 64
4, 451680, Note_on_c, 2, 88, 96
4, 451772, Note_off_c, 2, 88, 64
4, 451776, Note_on_c, 2, 83, 93
4, 451776, Note_on_c, 2, 76, 90
4, 451868, Note_off_c, 2, 83, 64
4, 451868, Note_off_c, 2, 76, 64
4, 451872, Note_on_c, 2, 88, 96
4, 451964, Note_off_c, 2, 88, 64
4, 451968, Note_on_c, 2, 83, 93
4, 451968, Note_on_c, 2, 76, 90
4, 452060, Note_off_c, 2, 83, 64
4, 452060, Note_off_c, 2, 76, 64
4, 452064, Note_on_c, 2, 87, 96
4, 452156, Note_off_c, 2, 87, 64
4, 452160, Note_on_c, 2, 83, 93
4, 452160, Note_on_c, 2, 76, 90
4, 452252, Note_off_c, 2, 83, 64
4, 452252, Note_off_c, 2, 76, 64
4, 452256, Note_on_c, 2, 87, 96
4, 452348, Note_off_c, 2, 87, 64
4, 452352, Note_on_c, 2, 80, 93
4, 452352, Note_on_c, 2, 76, 90
4, 452444, Note_off_c, 2, 80, 64
4, 452444, Note_off_c, 2, 76, 64
4, 452448, Note_on_c, 2, 88, 96
4, 452540, Note_off_c, 2, 88, 64
4, 452544, Note_on_c, 2, 80, 93
4, 452544, Note_on_c, 2, 76, 90
4, 452636, Note_off_c, 2, 80, 64
4, 452636, Note_off_c, 2, 76, 64
4, 452640, Note_on_c, 2, 88, 96
4, 452732, Note_off_c, 2, 88, 64
4, 452736, Note_on_c, 2, 83, 90
4, 452736, Note_on_c, 2, 76, 90
4, 452736, Note_on_c, 2, 74, 90
4, 452828, Note_off_c, 2, 83, 64
4, 452828, Note_off_c, 2, 76, 64
4, 452828, Note_off_c, 2, 74, 64
4, 452832, Note_on_c, 2, 86, 94
4, 452924, Note_off_c, 2, 86, 64
4, 452928, Note_on_c, 2, 83, 90
4, 452928, Note_on_c, 2, 76, 90
4, 452928, Note_on_c, 2, 74, 90
4, 453020, Note_off_c, 2, 83, 64
4, 453020, Note_off_c, 2, 76, 64
4, 453020, Note_off_c, 2, 74, 64
4, 453024, Note_on_c, 2, 86, 94
4, 453116, Note_off_c, 2, 86, 64
4, 453120, Note_on_c, 2, 76, 92
4, 453120, Note_on_c, 2, 72, 90
4, 453212, Note_off_c, 2, 76, 64
4, 453212, Note_off_c, 2, 72, 64
4, 453216, Note_on_c, 2, 84, 94
4, 453308, Note_off_c, 2, 84, 64
4, 453312, Note_on_c, 2, 76, 92
4, 453312, Note_on_c, 2, 72, 90
4, 453404, Note_off_c, 2, 76, 64
4, 453404, Note_off_c, 2, 72, 64
4, 453408, Note_on_c, 2, 84, 94
4, 453500, Note_off_c, 2, 84, 64
4, 453504, Note_on_c, 2, 81, 92
4, 453504, Note_on_c, 2, 72, 90
4, 453596, Note_off_c, 2, 81, 64
4, 453596, Note_off_c, 2, 72, 64
4, 453600, Note_on_c, 2, 84, 96
4, 453692, Note_off_c, 2, 84, 64
4, 453696, Note_on_c, 2, 81, 92
4, 453696, Note_on_c, 2, 72, 90
4, 453788, Note_off_c, 2, 81, 64
4, 453788, Note_off_c, 2, 72, 64
4, 453792, Note_on_c, 2, 84, 96
4, 453884, Note_off_c, 2, 84, 64
4, 453888, Note_on_c, 2, 81, 94
4, 453888, Note_on_c, 2, 75, 90
4, 453980, Note_off_c, 2, 81, 64
4, 453980, Note_off_c, 2, 75, 64
4, 453984, Note_on_c, 2, 87, 96
4, 454076, Note_off_c, 2, 87, 64
4, 454080, Note_on_c, 2, 81, 94
4, 454080, Note_on_c, 2, 75, 90
4, 454172, Note_off_c, 2, 81, 64
4, 454172, Note_off_c, 2, 75, 64
4, 454176, Note_on_c, 2, 87, 96
4, 454268, Note_off_c, 2, 87, 64
4, 454272, Note_on_c, 2, 84, 94
4, 454272, Note_on_c, 2, 75, 90
4, 454364, Note_off_c, 2, 84, 64
4, 454364, Note_off_c, 2, 75, 64
4, 454368, Note_on_c, 2, 87, 96
4, 454460, Note_off_c, 2, 87, 64
4, 454464, Note_on_c, 2, 84, 94
4, 454464, Note_on_c, 2, 75, 90
4, 454556, Note_off_c, 2, 84, 64
4, 454556, Note_off_c, 2, 75, 64
4, 454560, Note_on_c, 2, 87, 96
4, 454652, Note_off_c, 2, 87, 64
4, 454656, Note_on_c, 2, 81, 92
4, 454656, Note_on_c, 2, 74, 90
4, 454748, Note_off_c, 2, 81, 64
4, 454748, Note_off_c, 2, 74, 64
4, 454752, Note_on_c, 2, 87, 96
4, 454844, Note_off_c, 2, 87, 64
4, 454848, Note_on_c, 2, 81, 92
4, 454848, Note_on_c, 2, 74, 90
4, 454940, Note_off_c, 2, 81, 64
4, 454940, Note_off_c, 2, 74, 64
4, 454944, Note_on_c, 2, 87, 96
4, 455036, Note_off_c, 2, 87, 64
4, 455040, Note_on_c, 2, 81, 92
4, 455040, Note_on_c, 2, 74, 90
4, 455132, Note_off_c, 2, 81, 64
4, 455132, Note_off_c, 2, 74, 64
4, 455136, Note_on_c, 2, 85, 94
4, 455228, Note_off_c, 2, 85, 64
4, 455232, Note_on_c, 2, 81, 92
4, 455232, Note_on_c, 2, 74, 90
4, 455324, Note_off_c, 2, 81, 64
4, 455324, Note_off_c, 2, 74, 64
4, 455328, Note_on_c, 2, 85, 94
4, 455420, Note_off_c, 2, 85, 64
4, 455424, Note_on_c, 2, 78, 90
4, 455424, Note_on_c, 2, 74, 90
4, 455516, Note_off_c, 2, 78, 64
4, 455516, Note_off_c, 2, 74, 64
4, 455520, Note_on_c, 2, 86, 95
4, 455612, Note_off_c, 2, 86, 64
4, 455616, Note_on_c, 2, 78, 90
4, 455616, Note_on_c, 2, 74, 90
4, 455708, Note_off_c, 2, 78, 64
4, 455708, Note_off_c, 2, 74, 64
4, 455712, Note_on_c, 2, 86, 95
4, 455804, Note_off_c, 2, 86, 64
4, 455808, Note_on_c, 2, 81, 92
4, 455808, Note_on_c, 2, 74, 90
4, 455808, Note_on_c, 2, 72, 90
4, 455900, Note_off_c, 2, 81, 64
4, 455900, Note_off_c, 2, 74, 64
4, 455900, Note_off_c, 2, 72, 64
4, 455904, Note_on_c, 2, 84, 94
4, 455996, Note_off_c, 2, 84, 64
4, 456000, Note_on_c, 2, 81, 92
4, 456000, Note_on_c, 2, 74, 90
4, 456000, Note_on_c, 2, 72, 90
4, 456092, Note_off_c, 2, 81, 64
4, 456092, Note_off_c, 2, 74, 64
4, 456092, Note_off_c, 2, 72, 64
4, 456096, Note_on_c, 2, 84, 94
4, 456188, Note_off_c, 2, 84, 64
4, 456192, Note_on_c, 2, 74, 90
4, 456192, Note_on_c, 2, 70, 90
4, 456284, Note_off_c, 2, 74, 64
4, 456284, Note_off_c, 2, 70, 64
4, 456288, Note_on_c, 2, 82, 93
4, 456380, Note_off_c, 2, 82, 64
4, 456384, Note_on_c, 2, 74, 90
4, 456384, Note_on_c, 2, 70, 90
4, 456476, Note_off_c, 2, 74, 64
4, 456476, Note_off_c, 2, 70, 64
4, 456480, Note_on_c, 2, 82, 93
4, 456572, Note_off_c, 2, 82, 64
4, 456576, Note_on_c, 2, 79, 91
4, 456576, Note_on_c, 2, 70, 90
4, 456668, Note_off_c, 2, 79, 64
4, 456668, Note_off_c, 2, 70, 64
4, 456672, Note_on_c, 2, 82, 93
4, 456764, Note_off_c, 2, 82, 64
4, 456768, Note_on_c, 2, 79, 91
4, 456768, Note_on_c, 2, 70, 90
4, 456860, Note_off_c, 2, 79, 64
4, 456860, Note_off_c, 2, 70, 64
4, 456864, Note_on_c, 2, 82, 93
4, 456956, Note_off_c, 2, 82, 64
4, 456960, Note_on_c, 2, 79, 91
4, 456960, Note_on_c, 2, 73, 90
4, 457052, Note_off_c, 2, 79, 64
4, 457052, Note_off_c, 2, 73, 64
4, 457056, Note_on_c, 2, 85, 94
4, 457148, Note_off_c, 2, 85, 64
4, 457152, Note_on_c, 2, 79, 91
4, 457152, Note_on_c, 2, 73, 90
4, 457244, Note_off_c, 2, 79, 64
4, 457244, Note_off_c, 2, 73, 64
4, 457248, Note_on_c, 2, 85, 94
4, 457340, Note_off_c, 2, 85, 64
4, 457344, Note_on_c, 2, 82, 93
4, 457344, Note_on_c, 2, 73, 90
4, 457436, Note_off_c, 2, 82, 64
4, 457436, Note_off_c, 2, 73, 64
4, 457440, Note_on_c, 2, 85, 94
4, 457532, Note_off_c, 2, 85, 64
4, 457536, Note_on_c, 2, 82, 93
4, 457536, Note_on_c, 2, 73, 90
4, 457628, Note_off_c, 2, 82, 64
4, 457628, Note_off_c, 2, 73, 64
4, 457632, Note_on_c, 2, 85, 94
4, 457724, Note_off_c, 2, 85, 64
4, 457728, Note_on_c, 2, 79, 91
4, 457728, Note_on_c, 2, 72, 90
4, 457820, Note_off_c, 2, 79, 64
4, 457820, Note_off_c, 2, 72, 64
4, 457824, Note_on_c, 2, 85, 94
4, 457916, Note_off_c, 2, 85, 64
4, 457920, Note_on_c, 2, 79, 91
4, 457920, Note_on_c, 2, 72, 90
4, 458012, Note_off_c, 2, 79, 64
4, 458012, Note_off_c, 2, 72, 64
4, 458016, Note_on_c, 2, 85, 94
4, 458108, Note_off_c, 2, 85, 64
4, 458112, Note_on_c, 2, 79, 91
4, 458112, Note_on_c, 2, 72, 90
4, 458204, Note_off_c, 2, 79, 64
4, 458204, Note_off_c, 2, 72, 64
4, 458208, Note_on_c, 2, 83, 93
4, 458300, Note_off_c, 2, 83, 64
4, 458304, Note_on_c, 2, 79, 91
4, 458304, Note_on_c, 2, 72, 90
4, 458396, Note_off_c, 2, 79, 64
4, 458396, Note_off_c, 2, 72, 64
4, 458400, Note_on_c, 2, 83, 93
4, 458492, Note_off_c, 2, 83, 64
4, 458496, Note_on_c, 2, 76, 90
4, 458496, Note_on_c, 2, 72, 90
4, 458588, Note_off_c, 2, 76, 64
4, 458588, Note_off_c, 2, 72, 64
4, 458592, Note_on_c, 2, 84, 94
4, 458684, Note_off_c, 2, 84, 64
4, 458688, Note_on_c, 2, 76, 90
4, 458688, Note_on_c, 2, 72, 90
4, 458780, Note_off_c, 2, 76, 64
4, 458780, Note_off_c, 2, 72, 64
4, 458784, Note_on_c, 2, 84, 94
4, 458876, Note_off_c, 2, 84, 64
4, 458880, Note_on_c, 2, 79, 91
4, 458880, Note_on_c, 2, 72, 90
4, 458972, Note_off_c, 2, 79, 64
4, 458972, Note_off_c, 2, 72, 64
4, 458976, Note_on_c, 2, 82, 93
4, 459068, Note_off_c, 2, 82, 64
4, 459072, Note_on_c, 2, 79, 91
4, 459072, Note_on_c, 2, 72, 90
4, 459164, Note_off_c, 2, 79, 64
4, 459164, Note_off_c, 2, 72, 64
4, 459168, Note_on_c, 2, 82, 93
4, 459260, Note_off_c, 2, 82, 64
4, 459264, Note_on_c, 2, 81, 92
4, 459264, Note_on_c, 2, 77, 90
4, 459264, Note_on_c, 2, 72, 90
4, 459452, Note_off_c, 2, 81, 64
4, 459452, Note_off_c, 2, 77, 64
4, 459452, Note_off_c, 2, 72, 64
4, 459648, Note_on_c, 2, 72, 90
4, 459836, Note_off_c, 2, 72, 64
4, 460032, Note_on_c, 2, 77, 90
4, 460220, Note_off_c, 2, 77, 64
4, 460416, Note_on_c, 2, 81, 92
4, 460604, Note_off_c, 2, 81, 64
4, 460800, Note_on_c, 2, 82, 93
4, 460800, Note_on_c, 2, 67, 90
4, 460988, Note_off_c, 2, 67, 64
4, 461184, Note_on_c, 2, 60, 90
4, 461372, Note_off_c, 2, 82, 64
4, 461372, Note_off_c, 2, 60, 64
4, 461376, Note_on_c, 2, 81, 86
4, 461432, Note_off_c, 2, 81, 64
4, 461440, Note_on_c, 2, 79, 85
4, 461496, Note_off_c, 2, 79, 64
4, 461504, Note_on_c, 2, 77, 84
4, 461560, Note_off_c, 2, 77, 64
4, 461568, Note_on_c, 2, 76, 83
4, 461568, Note_on_c, 2, 67, 90
4, 461756, Note_off_c, 2, 67, 64
4, 461948, Note_off_c, 2, 76, 64
4, 461952, Note_on_c, 2, 70, 90
4, 462140, Note_off_c, 2, 70, 64
4, 462336, Note_on_c, 2, 69, 90
4, 462908, Note_off_c, 2, 69, 64
4, 462912, Note_on_c, 2, 70, 71
4, 462968, Note_off_c, 2, 70, 64
4, 462976, Note_on_c, 2, 69, 71
4, 463032, Note_off_c, 2, 69, 64
4, 463040, Note_on_c, 2, 67, 71
4, 463096, Note_off_c, 2, 67, 64
4, 463104, Note_on_c, 2, 65, 69
4, 463484, Note_off_c, 2, 65, 64
4, 465408, Note_on_c, 2, 77, 67
4, 465596, Note_off_c, 2, 77, 64
4, 465792, Note_on_c, 2, 72, 67
4, 465980, Note_off_c, 2, 72, 64
4, 466176, Note_on_c, 2, 77, 67
4, 466364, Note_off_c, 2, 77, 64
4, 466560, Note_on_c, 2, 80, 69
4, 466748, Note_off_c, 2, 80, 64
4, 466944, Note_on_c, 2, 85, 71
4, 466944, Note_on_c, 2, 70, 67
4, 466944, Note_on_c, 2, 67, 67
4, 467132, Note_off_c, 2, 70, 64
4, 467328, Note_on_c, 2, 67, 67
4, 467516, Note_off_c, 2, 67, 64
4, 467708, Note_off_c, 2, 85, 64
4, 467712, Note_on_c, 2, 76, 67
4, 467712, Note_on_c, 2, 70, 67
4, 467900, Note_off_c, 2, 70, 64
4, 468096, Note_on_c, 2, 73, 67
4, 468284, Note_off_c, 2, 73, 64
4, 468476, Note_off_c, 2, 67, 64
4, 468476, Note_off_c, 2, 76, 64
4, 468480, Note_on_c, 2, 77, 67
4, 468480, Note_on_c, 2, 72, 67
4, 468480, Note_on_c, 2, 68, 67
4, 469244, Note_off_c, 2, 77, 64
4, 469244, Note_off_c, 2, 72, 64
4, 469244, Note_off_c, 2, 68, 64
4, 469248, Note_on_c, 2, 76, 67
4, 469248, Note_on_c, 2, 70, 67
4, 469248, Note_on_c, 2, 67, 67
4, 470012, Note_off_c, 2, 76, 64
4, 470012, Note_off_c, 2, 70, 64
4, 470012, Note_off_c, 2, 67, 64
4, 470016, Note_on_c, 2, 77, 67
4, 470016, Note_on_c, 2, 72, 67
4, 470016, Note_on_c, 2, 68, 67
4, 470780, Note_off_c, 2, 77, 64
4, 470780, Note_off_c, 2, 72, 64
4, 470780, Note_off_c, 2, 68, 64
4, 470784, Note_on_c, 2, 76, 67
4, 470784, Note_on_c, 2, 70, 67
4, 470784, Note_on_c, 2, 67, 67
4, 471548, Note_off_c, 2, 76, 64
4, 471548, Note_off_c, 2, 70, 64
4, 471548, Note_off_c, 2, 67, 64
4, 471552, Note_on_c, 2, 77, 67
4, 471552, Note_on_c, 2, 72, 67
4, 471552, Note_on_c, 2, 68, 67
4, 471932, Note_off_c, 2, 77, 64
4, 471932, Note_off_c, 2, 72, 64
4, 471932, Note_off_c, 2, 68, 64
4, 474624, Note_on_c, 2, 79, 68
4, 474624, Note_on_c, 2, 74, 67
4, 474624, Note_on_c, 2, 71, 67
4, 474624, Note_on_c, 2, 67, 67
4, 475388, Note_off_c, 2, 79, 64
4, 475388, Note_off_c, 2, 74, 64
4, 475388, Note_off_c, 2, 71, 64
4, 475392, Note_on_c, 2, 78, 67
4, 475392, Note_on_c, 2, 75, 67
4, 475392, Note_on_c, 2, 72, 67
4, 476156, Note_off_c, 2, 78, 64
4, 476156, Note_off_c, 2, 75, 64
4, 476156, Note_off_c, 2, 72, 64
4, 476160, Note_on_c, 2, 79, 68
4, 476160, Note_on_c, 2, 74, 67
4, 476160, Note_on_c, 2, 71, 67
4, 476924, Note_off_c, 2, 79, 64
4, 476924, Note_off_c, 2, 74, 64
4, 476924, Note_off_c, 2, 71, 64
4, 476928, Note_on_c, 2, 78, 67
4, 476928, Note_on_c, 2, 75, 67
4, 476928, Note_on_c, 2, 72, 67
4, 477692, Note_off_c, 2, 78, 64
4, 477692, Note_off_c, 2, 75, 64
4, 477692, Note_off_c, 2, 72, 64
4, 477696, Note_on_c, 2, 79, 68
4, 477696, Note_on_c, 2, 74, 67
4, 477696, Note_on_c, 2, 71, 67
4, 478076, Note_off_c, 2, 67, 64
4, 478076, Note_off_c, 2, 79, 64
4, 478076, Note_off_c, 2, 74, 64
4, 478076, Note_off_c, 2, 71, 64
4, 480768, Note_on_c, 2, 65, 65
4, 480768, Note_on_c, 2, 62, 65
4, 480768, Note_on_c, 2, 59, 65
4, 482300, Note_off_c, 2, 65, 64
4, 482300, Note_off_c, 2, 62, 64
4, 482300, Note_off_c, 2, 59, 64
4, 483840, Note_on_c, 2, 89, 72
4, 483840, Note_on_c, 2, 71, 65
4, 486140, Note_off_c, 2, 71, 64
4, 486140, Note_off_c, 2, 89, 64
4, 486144, Note_on_c, 2, 86, 70
4, 486144, Note_on_c, 2, 74, 65
4, 486144, Note_on_c, 2, 71, 65
4, 486524, Note_off_c, 2, 86, 64
4, 486524, Note_off_c, 2, 74, 64
4, 486524, Note_off_c, 2, 71, 64
4, 486528, Note_on_c, 2, 83, 68
4, 486528, Note_on_c, 2, 74, 65
4, 486528, Note_on_c, 2, 77, 65
4, 486908, Note_off_c, 2, 83, 64
4, 486908, Note_off_c, 2, 74, 64
4, 486908, Note_off_c, 2, 77, 64
4, 486912, Note_on_c, 2, 84, 69
4, 486912, Note_on_c, 2, 76, 65
4, 486912, Note_on_c, 2, 72, 65
4, 487292, Note_off_c, 2, 84, 64
4, 487292, Note_off_c, 2, 76, 64
4, 487292, Note_off_c, 2, 72, 64
4, 487296, Note_on_c, 2, 67, 65
4, 487296, Note_on_c, 2, 64, 65
4, 487296, Note_on_c, 2, 60, 65
4, 487676, Note_off_c, 2, 67, 64
4, 487676, Note_off_c, 2, 64, 64
4, 487676, Note_off_c, 2, 60, 64
4, 488064, Note_on_c, 2, 64, 65
4, 488064, Note_on_c, 2, 67, 65
4, 488064, Note_on_c, 2, 60, 65
4, 488444, Note_off_c, 2, 64, 64
4, 488444, Note_off_c, 2, 67, 64
4, 488444, Note_off_c, 2, 60, 64
4, 488832, Note_on_c, 2, 65, 65
4, 488832, Note_on_c, 2, 62, 65
4, 488832, Note_on_c, 2, 57, 65
4, 489212, Note_off_c, 2, 65, 64
4, 489212, Note_off_c, 2, 62, 64
4, 489212, Note_off_c, 2, 57, 64
4, 489600, Note_on_c, 2, 65, 65
4, 489600, Note_on_c, 2, 62, 65
4, 489600, Note_on_c, 2, 57, 65
4, 489980, Note_off_c, 2, 65, 64
4, 489980, Note_off_c, 2, 62, 64
4, 489980, Note_off_c, 2, 57, 64
4, 490368, Note_on_c, 2, 62, 65
4, 490368, Note_on_c, 2, 59, 65
4, 490368, Note_on_c, 2, 55, 65
4, 490748, Note_off_c, 2, 62, 64
4, 490748, Note_off_c, 2, 59, 64
4, 490748, Note_off_c, 2, 55, 64
4, 491136, Note_on_c, 2, 62, 65
4, 491136, Note_on_c, 2, 59, 65
4, 491136, Note_on_c, 2, 55, 65
4, 491516, Note_off_c, 2, 62, 64
4, 491516, Note_off_c, 2, 59, 64
4, 491516, Note_off_c, 2, 55, 64
4, 491904, Note_on_c, 2, 67, 65
4, 491904, Note_on_c, 2, 60, 65
4, 491904, Note_on_c, 2, 55, 65
4, 492284, Note_off_c, 2, 67, 64
4, 492284, Note_off_c, 2, 60, 64
4, 492284, Note_off_c, 2, 55, 64
4, 492672, Note_on_c, 2, 67, 65
4, 492672, Note_on_c, 2, 60, 65
4, 492672, Note_on_c, 2, 55, 65
4, 493052, Note_off_c, 2, 67, 64
4, 493052, Note_off_c, 2, 60, 64
4, 493052, Note_off_c, 2, 55, 64
4, 499200, Note_on_c, 2, 79, 66
4, 499388, Note_off_c, 2, 79, 64
4, 499392, Note_on_c, 2, 76, 65
4, 499580, Note_off_c, 2, 76, 64
4, 499584, Note_on_c, 2, 74, 65
4, 499772, Note_off_c, 2, 74, 64
4, 499776, Note_on_c, 2, 72, 65
4, 499964, Note_off_c, 2, 72, 64
4, 499968, Note_on_c, 2, 79, 66
4, 500156, Note_off_c, 2, 79, 64
4, 500160, Note_on_c, 2, 76, 65
4, 500348, Note_off_c, 2, 76, 64
4, 500352, Note_on_c, 2, 74, 65
4, 500540, Note_off_c, 2, 74, 64
4, 500544, Note_on_c, 2, 72, 65
4, 500732, Note_off_c, 2, 72, 64
4, 500736, Note_on_c, 2, 81, 67
4, 500924, Note_off_c, 2, 81, 64
4, 500928, Note_on_c, 2, 77, 66
4, 501116, Note_off_c, 2, 77, 64
4, 501120, Note_on_c, 2, 76, 65
4, 501308, Note_off_c, 2, 76, 64
4, 501312, Note_on_c, 2, 74, 64
4, 501500, Note_off_c, 2, 74, 64
4, 501504, Note_on_c, 2, 74, 63
4, 502268, Note_off_c, 2, 74, 64
4, 502272, Note_on_c, 2, 89, 72
4, 502272, Note_on_c, 2, 77, 66
4, 502460, Note_off_c, 2, 89, 64
4, 502460, Note_off_c, 2, 77, 64
4, 502464, Note_on_c, 2, 86, 70
4, 502464, Note_on_c, 2, 74, 65
4, 502652, Note_off_c, 2, 86, 64
4, 502652, Note_off_c, 2, 74, 64
4, 502656, Note_on_c, 2, 84, 69
4, 502656, Note_on_c, 2, 72, 65
4, 502844, Note_off_c, 2, 84, 64
4, 502844, Note_off_c, 2, 72, 64
4, 502848, Note_on_c, 2, 83, 68
4, 502848, Note_on_c, 2, 71, 65
4, 503036, Note_off_c, 2, 83, 64
4, 503036, Note_off_c, 2, 71, 64
4, 503040, Note_on_c, 2, 89, 72
4, 503040, Note_on_c, 2, 77, 66
4, 503228, Note_off_c, 2, 89, 64
4, 503228, Note_off_c, 2, 77, 64
4, 503232, Note_on_c, 2, 86, 70
4, 503232, Note_on_c, 2, 74, 65
4, 503420, Note_off_c, 2, 86, 64
4, 503420, Note_off_c, 2, 74, 64
4, 503424, Note_on_c, 2, 84, 69
4, 503424, Note_on_c, 2, 72, 65
4, 503612, Note_off_c, 2, 84, 64
4, 503612, Note_off_c, 2, 72, 64
4, 503616, Note_on_c, 2, 83, 67
4, 503616, Note_on_c, 2, 71, 65
4, 503804, Note_off_c, 2, 83, 64
4, 503804, Note_off_c, 2, 71, 64
4, 503808, Note_on_c, 2, 91, 73
4, 503808, Note_on_c, 2, 79, 66
4, 503996, Note_off_c, 2, 91, 64
4, 503996, Note_off_c, 2, 79, 64
4, 504000, Note_on_c, 2, 88, 71
4, 504000, Note_on_c, 2, 76, 65
4, 504188, Note_off_c, 2, 88, 64
4, 504188, Note_off_c, 2, 76, 64
4, 504192, Note_on_c, 2, 86, 70
4, 504192, Note_on_c, 2, 74, 65
4, 504380, Note_off_c, 2, 86, 64
4, 504380, Note_off_c, 2, 74, 64
4, 504384, Note_on_c, 2, 84, 69
4, 504384, Note_on_c, 2, 72, 65
4, 504572, Note_off_c, 2, 84, 64
4, 504572, Note_off_c, 2, 72, 64
4, 504576, Note_on_c, 2, 84, 69
4, 504576, Note_on_c, 2, 72, 65
4, 505340, Note_off_c, 2, 84, 64
4, 505340, Note_off_c, 2, 72, 64
4, 505728, Note_on_c, 2, 67, 65
4, 506108, Note_off_c, 2, 67, 64
4, 506112, Note_on_c, 2, 68, 65
4, 506492, Note_off_c, 2, 68, 64
4, 506496, Note_on_c, 2, 67, 65
4, 506876, Note_off_c, 2, 67, 64
4, 507264, Note_on_c, 2, 79, 66
4, 507644, Note_off_c, 2, 79, 64
4, 507648, Note_on_c, 2, 80, 67
4, 508028, Note_off_c, 2, 80, 64
4, 508032, Note_on_c, 2, 79, 66
4, 508412, Note_off_c, 2, 79, 64
4, 513024, Note_on_c, 2, 72, 65
4, 513212, Note_off_c, 2, 72, 64
4, 513408, Note_on_c, 2, 67, 65
4, 513596, Note_off_c, 2, 67, 64
4, 513792, Note_on_c, 2, 72, 65
4, 513980, Note_off_c, 2, 72, 64
4, 514176, Note_on_c, 2, 76, 65
4, 514364, Note_off_c, 2, 76, 64
4, 514560, Note_on_c, 2, 77, 66
4, 514560, Note_on_c, 2, 65, 65
4, 515132, Note_off_c, 2, 77, 64
4, 515132, Note_off_c, 2, 65, 64
4, 515136, Note_on_c, 2, 76, 66
4, 515192, Note_off_c, 2, 76, 64
4, 515200, Note_on_c, 2, 74, 65
4, 515256, Note_off_c, 2, 74, 64
4, 515264, Note_on_c, 2, 72, 64
4, 515320, Note_off_c, 2, 72, 64
4, 515328, Note_on_c, 2, 71, 63
4, 515708, Note_off_c, 2, 71, 64
4, 516096, Note_on_c, 2, 84, 69
4, 516096, Note_on_c, 2, 72, 65
4, 516284, Note_off_c, 2, 84, 64
4, 516284, Note_off_c, 2, 72, 64
4, 516480, Note_on_c, 2, 79, 66
4, 516480, Note_on_c, 2, 67, 65
4, 516668, Note_off_c, 2, 79, 64
4, 516668, Note_off_c, 2, 67, 64
4, 516864, Note_on_c, 2, 84, 69
4, 516864, Note_on_c, 2, 72, 65
4, 517052, Note_off_c, 2, 84, 64
4, 517052, Note_off_c, 2, 72, 64
4, 517248, Note_on_c, 2, 88, 71
4, 517248, Note_on_c, 2, 76, 65
4, 517436, Note_off_c, 2, 88, 64
4, 517436, Note_off_c, 2, 76, 64
4, 517632, Note_on_c, 2, 81, 67
4, 519168, Note_on_c, 2, 86, 70
4, 519168, Note_on_c, 2, 89, 72
4, 519168, Note_on_c, 2, 71, 65
4, 519168, Note_on_c, 2, 65, 65
4, 519356, Note_off_c, 2, 71, 64
4, 519552, Note_on_c, 2, 65, 65
4, 519740, Note_off_c, 2, 65, 64
4, 519740, Note_off_c, 2, 65, 64
4, 519744, Note_on_c, 2, 64, 65
4, 519804, Note_off_c, 2, 64, 64
4, 519808, Note_on_c, 2, 62, 65
4, 519868, Note_off_c, 2, 62, 64
4, 519872, Note_on_c, 2, 60, 65
4, 519932, Note_off_c, 2, 60, 64
4, 519936, Note_on_c, 2, 71, 65
4, 519936, Note_on_c, 2, 59, 65
4, 520124, Note_off_c, 2, 71, 64
4, 520316, Note_off_c, 2, 59, 64
4, 520320, Note_on_c, 2, 74, 65
4, 520508, Note_off_c, 2, 74, 64
4, 520700, Note_off_c, 2, 81, 64
4, 520704, Note_on_c, 2, 79, 66
4, 522236, Note_off_c, 2, 86, 64
4, 522236, Note_off_c, 2, 89, 64
4, 522240, Note_on_c, 2, 84, 69
4, 522240, Note_on_c, 2, 88, 71
4, 522240, Note_on_c, 2, 69, 65
4, 522240, Note_on_c, 2, 64, 65
4, 522428, Note_off_c, 2, 69, 64
4, 522624, Note_on_c, 2, 64, 65
4, 522812, Note_off_c, 2, 64, 64
4, 522812, Note_off_c, 2, 64, 64
4, 522816, Note_on_c, 2, 62, 65
4, 522876, Note_off_c, 2, 62, 64
4, 522880, Note_on_c, 2, 60, 65
4, 522940, Note_off_c, 2, 60, 64
4, 522944, Note_on_c, 2, 59, 65
4, 523004, Note_off_c, 2, 59, 64
4, 523008, Note_on_c, 2, 69, 65
4, 523008, Note_on_c, 2, 60, 65
4, 523196, Note_off_c, 2, 69, 64
4, 523388, Note_off_c, 2, 60, 64
4, 523392, Note_on_c, 2, 72, 65
4, 523580, Note_off_c, 2, 72, 64
4, 523772, Note_off_c, 2, 79, 64
4, 523776, Note_on_c, 2, 77, 65
4, 525308, Note_off_c, 2, 84, 64
4, 525308, Note_off_c, 2, 88, 64
4, 525312, Note_on_c, 2, 83, 68
4, 525312, Note_on_c, 2, 86, 70
4, 525312, Note_on_c, 2, 67, 65
4, 525312, Note_on_c, 2, 62, 65
4, 525500, Note_off_c, 2, 67, 64
4, 525696, Note_on_c, 2, 62, 65
4, 525884, Note_off_c, 2, 62, 64
4, 525884, Note_off_c, 2, 62, 64
4, 525888, Note_on_c, 2, 60, 65
4, 525948, Note_off_c, 2, 60, 64
4, 525952, Note_on_c, 2, 59, 65
4, 526012, Note_off_c, 2, 59, 64
4, 526016, Note_on_c, 2, 57, 65
4, 526076, Note_off_c, 2, 57, 64
4, 526080, Note_on_c, 2, 55, 65
4, 526080, Note_on_c, 2, 67, 65
4, 526268, Note_off_c, 2, 67, 64
4, 526460, Note_off_c, 2, 55, 64
4, 526464, Note_on_c, 2, 71, 65
4, 526652, Note_off_c, 2, 71, 64
4, 526844, Note_off_c, 2, 77, 64
4, 526844, Note_off_c, 2, 83, 64
4, 526844, Note_off_c, 2, 86, 64
4, 526848, Note_on_c, 2, 84, 69
4, 526848, Note_on_c, 2, 76, 65
4, 526848, Note_on_c, 2, 72, 65
4, 527228, Note_off_c, 2, 84, 64
4, 527228, Note_off_c, 2, 76, 64
4, 527228, Note_off_c, 2, 72, 64
4, 528000, Note_on_c, 2, 76, 65
4, 528000, Note_on_c, 2, 67, 65
4, 528188, Note_off_c, 2, 76, 64
4, 528188, Note_off_c, 2, 67, 64
4, 528192, Note_on_c, 2, 74, 65
4, 528192, Note_on_c, 2, 67, 65
4, 528192, Note_on_c, 2, 62, 65
4, 528380, Note_off_c, 2, 74, 64
4, 528380, Note_off_c, 2, 67, 64
4, 528380, Note_off_c, 2, 62, 64
4, 528384, Note_on_c, 2, 72, 65
4, 528384, Note_on_c, 2, 69, 65
4, 528384, Note_on_c, 2, 64, 65
4, 528764, Note_off_c, 2, 72, 64
4, 528764, Note_off_c, 2, 69, 64
4, 528764, Note_off_c, 2, 64, 64
4, 529536, Note_on_c, 2, 84, 69
4, 529536, Note_on_c, 2, 76, 65
4, 529536, Note_on_c, 2, 69, 65
4, 529724, Note_off_c, 2, 84, 64
4, 529724, Note_off_c, 2, 76, 64
4, 529724, Note_off_c, 2, 69, 64
4, 529728, Note_on_c, 2, 83, 68
4, 529728, Note_on_c, 2, 76, 65
4, 529728, Note_on_c, 2, 71, 65
4, 529916, Note_off_c, 2, 83, 64
4, 529916, Note_off_c, 2, 76, 64
4, 529916, Note_off_c, 2, 71, 64
4, 529920, Note_on_c, 2, 81, 67
4, 529920, Note_on_c, 2, 77, 65
4, 529920, Note_on_c, 2, 72, 65
4, 530300, Note_off_c, 2, 81, 64
4, 530300, Note_off_c, 2, 77, 64
4, 530300, Note_off_c, 2, 72, 64
4, 531072, Note_on_c, 2, 72, 65
4, 531072, Note_on_c, 2, 81, 67
4, 531260, Note_off_c, 2, 72, 64
4, 531260, Note_off_c, 2, 81, 64
4, 531264, Note_on_c, 2, 79, 66
4, 531264, Note_on_c, 2, 72, 65
4, 531264, Note_on_c, 2, 67, 65
4, 531452, Note_off_c, 2, 79, 64
4, 531452, Note_off_c, 2, 72, 64
4, 531452, Note_off_c, 2, 67, 64
4, 531456, Note_on_c, 2, 77, 65
4, 531456, Note_on_c, 2, 74, 65
4, 531456, Note_on_c, 2, 69, 65
4, 531836, Note_off_c, 2, 77, 64
4, 531836, Note_off_c, 2, 74, 64
4, 531836, Note_off_c, 2, 69, 64
4, 531840, Note_on_c, 2, 77, 65
4, 531840, Note_on_c, 2, 69, 65
4, 532028, Note_off_c, 2, 77, 64
4, 532028, Note_off_c, 2, 69, 64
4, 532032, Note_on_c, 2, 76, 65
4, 532032, Note_on_c, 2, 72, 65
4, 532032, Note_on_c, 2, 64, 65
4, 532220, Note_off_c, 2, 76, 64
4, 532220, Note_off_c, 2, 72, 64
4, 532220, Note_off_c, 2, 64, 64
4, 532224, Note_on_c, 2, 74, 65
4, 532224, Note_on_c, 2, 71, 65
4, 532224, Note_on_c, 2, 65, 65
4, 532604, Note_off_c, 2, 74, 64
4, 532604, Note_off_c, 2, 71, 64
4, 532604, Note_off_c, 2, 65, 64
4, 532608, Note_on_c, 2, 74, 65
4, 532608, Note_on_c, 2, 65, 65
4, 532796, Note_off_c, 2, 74, 64
4, 532796, Note_off_c, 2, 65, 64
4, 532800, Note_on_c, 2, 72, 65
4, 532800, Note_on_c, 2, 65, 65
4, 532800, Note_on_c, 2, 60, 65
4, 532988, Note_off_c, 2, 72, 64
4, 532988, Note_off_c, 2, 65, 64
4, 532988, Note_off_c, 2, 60, 64
4, 532992, Note_on_c, 2, 65, 65
4, 532992, Note_on_c, 2, 62, 65
4, 532992, Note_on_c, 2, 71, 65
4, 533564, Note_off_c, 2, 71, 64
4, 533568, Note_on_c, 2, 72, 65
4, 533756, Note_off_c, 2, 72, 64
4, 533760, Note_on_c, 2, 71, 65
4, 533948, Note_off_c, 2, 71, 64
4, 533952, Note_on_c, 2, 72, 65
4, 534140, Note_off_c, 2, 72, 64
4, 534144, Note_on_c, 2, 71, 65
4, 534332, Note_off_c, 2, 71, 64
4, 534336, Note_on_c, 2, 72, 65
4, 534524, Note_off_c, 2, 72, 64
4, 534528, Note_on_c, 2, 71, 65
4, 535100, Note_off_c, 2, 71, 64
4, 535104, Note_on_c, 2, 72, 65
4, 535196, Note_off_c, 2, 72, 64
4, 535296, Note_on_c, 2, 71, 65
4, 535388, Note_off_c, 2, 71, 64
4, 535488, Note_on_c, 2, 72, 65
4, 535580, Note_off_c, 2, 72, 64
4, 535680, Note_on_c, 2, 71, 65
4, 535772, Note_off_c, 2, 71, 64
4, 535872, Note_on_c, 2, 72, 65
4, 535964, Note_off_c, 2, 72, 64
4, 536064, Note_on_c, 2, 71, 65
4, 536444, Note_off_c, 2, 62, 64
4, 536444, Note_off_c, 2, 65, 64
4, 536444, Note_off_c, 2, 71, 64
4, 539136, Note_on_c, 2, 67, 65
4, 539136, Note_on_c, 2, 65, 65
4, 539136, Note_on_c, 2, 62, 65
4, 539708, Note_off_c, 2, 65, 64
4, 539708, Note_off_c, 2, 62, 64
4, 539712, Note_on_c, 2, 64, 65
4, 539712, Note_on_c, 2, 61, 65
4, 539900, Note_off_c, 2, 64, 64
4, 539900, Note_off_c, 2, 61, 64
4, 539904, Note_on_c, 2, 65, 65
4, 539904, Note_on_c, 2, 62, 65
4, 540092, Note_off_c, 2, 65, 64
4, 540092, Note_off_c, 2, 62, 64
4, 540096, Note_on_c, 2, 64, 65
4, 540096, Note_on_c, 2, 61, 65
4, 540284, Note_off_c, 2, 64, 64
4, 540284, Note_off_c, 2, 61, 64
4, 540288, Note_on_c, 2, 65, 65
4, 540288, Note_on_c, 2, 62, 65
4, 540476, Note_off_c, 2, 65, 64
4, 540476, Note_off_c, 2, 62, 64
4, 540480, Note_on_c, 2, 64, 65
4, 540480, Note_on_c, 2, 61, 65
4, 540668, Note_off_c, 2, 64, 64
4, 540668, Note_off_c, 2, 61, 64
4, 540672, Note_on_c, 2, 65, 65
4, 540672, Note_on_c, 2, 62, 65
4, 541052, Note_off_c, 2, 65, 64
4, 541052, Note_off_c, 2, 62, 64
4, 541056, Note_on_c, 2, 77, 65
4, 541056, Note_on_c, 2, 74, 65
4, 541244, Note_off_c, 2, 77, 64
4, 541244, Note_off_c, 2, 74, 64
4, 541248, Note_on_c, 2, 76, 65
4, 541248, Note_on_c, 2, 72, 65
4, 541436, Note_off_c, 2, 76, 64
4, 541436, Note_off_c, 2, 72, 64
4, 541440, Note_on_c, 2, 77, 65
4, 541440, Note_on_c, 2, 74, 65
4, 541628, Note_off_c, 2, 77, 64
4, 541628, Note_off_c, 2, 74, 64
4, 541632, Note_on_c, 2, 76, 65
4, 541632, Note_on_c, 2, 72, 65
4, 541820, Note_off_c, 2, 76, 64
4, 541820, Note_off_c, 2, 72, 64
4, 541824, Note_on_c, 2, 77, 65
4, 541824, Note_on_c, 2, 74, 65
4, 542012, Note_off_c, 2, 77, 64
4, 542012, Note_off_c, 2, 74, 64
4, 542016, Note_on_c, 2, 76, 65
4, 542016, Note_on_c, 2, 72, 65
4, 542204, Note_off_c, 2, 67, 64
4, 542204, Note_off_c, 2, 76, 64
4, 542204, Note_off_c, 2, 72, 64
4, 542208, Note_on_c, 2, 67, 65
4, 542208, Note_on_c, 2, 77, 65
4, 542208, Note_on_c, 2, 74, 65
4, 542300, Note_off_c, 2, 77, 64
4, 542300, Note_off_c, 2, 74, 64
4, 542400, Note_on_c, 2, 76, 65
4, 542400, Note_on_c, 2, 72, 65
4, 542492, Note_off_c, 2, 76, 64
4, 542492, Note_off_c, 2, 72, 64
4, 542588, Note_off_c, 2, 67, 64
4, 542592, Note_on_c, 2, 74, 65
4, 542592, Note_on_c, 2, 71, 65
4, 542684, Note_off_c, 2, 74, 64
4, 542684, Note_off_c, 2, 71, 64
4, 542784, Note_on_c, 2, 72, 65
4, 542784, Note_on_c, 2, 69, 65
4, 542876, Note_off_c, 2, 72, 64
4, 542876, Note_off_c, 2, 69, 64
4, 542976, Note_on_c, 2, 71, 65
4, 542976, Note_on_c, 2, 67, 65
4, 543068, Note_off_c, 2, 71, 64
4, 543068, Note_off_c, 2, 67, 64
4, 543168, Note_on_c, 2, 69, 65
4, 543168, Note_on_c, 2, 65, 65
4, 543260, Note_off_c, 2, 69, 64
4, 543260, Note_off_c, 2, 65, 64
4, 543360, Note_on_c, 2, 67, 65
4, 543360, Note_on_c, 2, 64, 65
4, 543452, Note_off_c, 2, 67, 64
4, 543452, Note_off_c, 2, 64, 64
4, 543552, Note_on_c, 2, 66, 65
4, 543552, Note_on_c, 2, 63, 65
4, 543644, Note_off_c, 2, 66, 64
4, 543644, Note_off_c, 2, 63, 64
4, 543744, Note_on_c, 2, 89, 72
4, 543744, Note_on_c, 2, 86, 70
4, 543744, Note_on_c, 2, 77, 65
4, 543836, Note_off_c, 2, 89, 64
4, 543836, Note_off_c, 2, 86, 64
4, 543836, Note_off_c, 2, 77, 64
4, 543936, Note_on_c, 2, 88, 71
4, 543936, Note_on_c, 2, 84, 69
4, 543936, Note_on_c, 2, 76, 65
4, 544028, Note_off_c, 2, 88, 64
4, 544028, Note_off_c, 2, 84, 64
4, 544028, Note_off_c, 2, 76, 64
4, 544128, Note_on_c, 2, 86, 70
4, 544128, Note_on_c, 2, 83, 69
4, 544128, Note_on_c, 2, 74, 65
4, 544220, Note_off_c, 2, 86, 64
4, 544220, Note_off_c, 2, 83, 64
4, 544220, Note_off_c, 2, 74, 64
4, 544320, Note_on_c, 2, 84, 69
4, 544320, Note_on_c, 2, 81, 67
4, 544320, Note_on_c, 2, 72, 65
4, 544412, Note_off_c, 2, 84, 64
4, 544412, Note_off_c, 2, 81, 64
4, 544412, Note_off_c, 2, 72, 64
4, 544512, Note_on_c, 2, 83, 67
4, 544512, Note_on_c, 2, 79, 65
4, 544512, Note_on_c, 2, 71, 65
4, 544604, Note_off_c, 2, 83, 64
4, 544604, Note_off_c, 2, 79, 64
4, 544604, Note_off_c, 2, 71, 64
4, 544704, Note_on_c, 2, 81, 65
4, 544704, Note_on_c, 2, 77, 65
4, 544704, Note_on_c, 2, 69, 65
4, 544796, Note_off_c, 2, 81, 64
4, 544796, Note_off_c, 2, 77, 64
4, 544796, Note_off_c, 2, 69, 64
4, 544896, Note_on_c, 2, 79, 66
4, 544896, Note_on_c, 2, 76, 65
4, 544896, Note_on_c, 2, 67, 65
4, 544988, Note_off_c, 2, 79, 64
4, 544988, Note_off_c, 2, 76, 64
4, 544988, Note_off_c, 2, 67, 64
4, 545088, Note_on_c, 2, 77, 65
4, 545088, Note_on_c, 2, 74, 65
4, 545088, Note_on_c, 2, 65, 65
4, 545180, Note_off_c, 2, 77, 64
4, 545180, Note_off_c, 2, 74, 64
4, 545180, Note_off_c, 2, 65, 64
4, 545280, Note_on_c, 2, 76, 65
4, 545280, Note_on_c, 2, 67, 65
4, 545280, Note_on_c, 2, 64, 65
4, 545660, Note_off_c, 2, 76, 64
4, 546044, Note_off_c, 2, 67, 64
4, 546044, Note_off_c, 2, 64, 64
4, 546048, Note_on_c, 2, 64, 65
4, 546048, Note_on_c, 2, 60, 65
4, 546428, Note_off_c, 2, 64, 64
4, 546428, Note_off_c, 2, 60, 64
4, 546816, Note_on_c, 2, 84, 69
4, 546816, Note_on_c, 2, 76, 65
4, 546960, Note_off_c, 2, 84, 64
4, 546960, Note_off_c, 2, 76, 64
4, 546960, Note_on_c, 2, 86, 75
4, 546960, Note_on_c, 2, 77, 75
4, 547000, Note_off_c, 2, 86, 64
4, 547000, Note_off_c, 2, 77, 64
4, 547008, Note_on_c, 2, 84, 69
4, 547008, Note_on_c, 2, 76, 65
4, 547100, Note_off_c, 2, 84, 64
4, 547100, Note_off_c, 2, 76, 64
4, 547104, Note_on_c, 2, 83, 68
4, 547104, Note_on_c, 2, 74, 65
4, 547196, Note_off_c, 2, 83, 64
4, 547196, Note_off_c, 2, 74, 64
4, 547200, Note_on_c, 2, 84, 70
4, 547200, Note_on_c, 2, 76, 65
4, 547388, Note_off_c, 2, 84, 64
4, 547388, Note_off_c, 2, 76, 64
4, 547392, Note_on_c, 2, 86, 71
4, 547392, Note_on_c, 2, 77, 65
4, 547484, Note_off_c, 2, 86, 64
4, 547484, Note_off_c, 2, 77, 64
4, 547584, Note_on_c, 2, 88, 66
4, 547584, Note_on_c, 2, 79, 65
4, 547964, Note_off_c, 2, 88, 64
4, 547964, Note_off_c, 2, 79, 64
4, 548160, Note_on_c, 2, 79, 65
4, 548348, Note_off_c, 2, 79, 64
4, 548352, Note_on_c, 2, 79, 66
4, 548540, Note_off_c, 2, 79, 64
4, 548544, Note_on_c, 2, 89, 72
4, 548732, Note_off_c, 2, 89, 64
4, 548736, Note_on_c, 2, 88, 71
4, 548924, Note_off_c, 2, 88, 64
4, 548928, Note_on_c, 2, 86, 70
4, 549116, Note_off_c, 2, 86, 64
4, 549120, Note_on_c, 2, 84, 69
4, 549308, Note_off_c, 2, 84, 64
4, 549312, Note_on_c, 2, 83, 68
4, 549500, Note_off_c, 2, 83, 64
4, 549504, Note_on_c, 2, 81, 67
4, 549692, Note_off_c, 2, 81, 64
4, 549696, Note_on_c, 2, 79, 66
4, 549884, Note_off_c, 2, 79, 64
4, 549888, Note_on_c, 2, 78, 65
4, 550076, Note_off_c, 2, 78, 64
4, 550080, Note_on_c, 2, 79, 66
4, 550268, Note_off_c, 2, 79, 64
4, 550272, Note_on_c, 2, 81, 67
4, 550460, Note_off_c, 2, 81, 64
4, 550464, Note_on_c, 2, 79, 66
4, 550464, Note_on_c, 2, 67, 65
4, 550652, Note_off_c, 2, 79, 64
4, 550652, Note_off_c, 2, 67, 64
4, 550656, Note_on_c, 2, 79, 66
4, 550656, Note_on_c, 2, 67, 65
4, 550844, Note_off_c, 2, 79, 64
4, 550844, Note_off_c, 2, 67, 64
4, 550848, Note_on_c, 2, 78, 66
4, 550848, Note_on_c, 2, 66, 65
4, 551036, Note_off_c, 2, 78, 64
4, 551036, Note_off_c, 2, 66, 64
4, 551040, Note_on_c, 2, 77, 65
4, 551040, Note_on_c, 2, 65, 65
4, 551228, Note_off_c, 2, 77, 64
4, 551228, Note_off_c, 2, 65, 64
4, 551232, Note_on_c, 2, 74, 65
4, 551420, Note_off_c, 2, 74, 64
4, 551424, Note_on_c, 2, 72, 65
4, 551804, Note_off_c, 2, 72, 64
4, 552960, Note_on_c, 2, 88, 71
4, 552960, Note_on_c, 2, 79, 66
4, 552960, Note_on_c, 2, 76, 65
4, 553724, Note_off_c, 2, 88, 64
4, 553724, Note_off_c, 2, 79, 64
4, 553724, Note_off_c, 2, 76, 64
4, 553728, Note_on_c, 2, 76, 69
4, 553728, Note_on_c, 2, 72, 65
4, 553728, Note_on_c, 2, 84, 65
4, 554108, Note_off_c, 2, 76, 64
4, 554108, Note_off_c, 2, 72, 64
4, 554108, Note_off_c, 2, 84, 64
4, 554496, Note_on_c, 2, 74, 65
4, 554496, Note_on_c, 2, 71, 65
4, 555644, Note_off_c, 2, 74, 64
4, 555644, Note_off_c, 2, 71, 64
4, 555648, Note_on_c, 2, 76, 65
4, 555648, Note_on_c, 2, 72, 65
4, 556028, Note_off_c, 2, 76, 64
4, 556028, Note_off_c, 2, 72, 64
4, 556032, Note_on_c, 2, 77, 65
4, 556032, Note_on_c, 2, 74, 65
4, 556032, Note_on_c, 2, 65, 65
4, 556412, Note_off_c, 2, 77, 64
4, 556412, Note_off_c, 2, 74, 64
4, 556412, Note_off_c, 2, 65, 64
4, 556416, Note_on_c, 2, 74, 65
4, 556416, Note_on_c, 2, 71, 65
4, 556796, Note_off_c, 2, 74, 64
4, 556796, Note_off_c, 2, 71, 64
4, 556800, Note_on_c, 2, 71, 65
4, 556800, Note_on_c, 2, 67, 65
4, 557180, Note_off_c, 2, 71, 64
4, 557180, Note_off_c, 2, 67, 64
4, 557184, Note_on_c, 2, 74, 65
4, 557184, Note_on_c, 2, 71, 65
4, 557564, Note_off_c, 2, 74, 64
4, 557564, Note_off_c, 2, 71, 64
4, 557568, Note_on_c, 2, 76, 65
4, 557568, Note_on_c, 2, 72, 65
4, 557568, Note_on_c, 2, 67, 65
4, 557568, Note_on_c, 2, 64, 65
4, 557948, Note_off_c, 2, 76, 64
4, 557948, Note_off_c, 2, 72, 64
4, 557948, Note_off_c, 2, 67, 64
4, 557948, Note_off_c, 2, 64, 64
4, 568320, Note_on_c, 2, 60, 65
4, 568320, Note_on_c, 2, 55, 65
4, 568320, Note_on_c, 2, 52, 65
4, 568700, Note_off_c, 2, 60, 64
4, 568700, Note_off_c, 2, 55, 64
4, 568700, Note_off_c, 2, 52, 64
4, 569472, Note_on_c, 2, 76, 65
4, 569472, Note_on_c, 2, 67, 65
4, 569472, Note_on_c, 2, 64, 65
4, 569660, Note_off_c, 2, 76, 64
4, 569660, Note_off_c, 2, 67, 64
4, 569660, Note_off_c, 2, 64, 64
4, 569664, Note_on_c, 2, 74, 65
4, 569664, Note_on_c, 2, 67, 65
4, 569664, Note_on_c, 2, 62, 65
4, 569852, Note_off_c, 2, 74, 64
4, 569852, Note_off_c, 2, 67, 64
4, 569852, Note_off_c, 2, 62, 64
4, 569856, Note_on_c, 2, 72, 65
4, 569856, Note_on_c, 2, 64, 65
4, 569856, Note_on_c, 2, 60, 65
4, 570236, Note_off_c, 2, 72, 64
4, 570236, Note_off_c, 2, 64, 64
4, 570236, Note_off_c, 2, 60, 64
4, 571008, Note_on_c, 2, 84, 69
4, 571008, Note_on_c, 2, 76, 65
4, 571008, Note_on_c, 2, 72, 65
4, 571196, Note_off_c, 2, 84, 64
4, 571196, Note_off_c, 2, 76, 64
4, 571196, Note_off_c, 2, 72, 64
4, 571200, Note_on_c, 2, 83, 68
4, 571200, Note_on_c, 2, 76, 65
4, 571200, Note_on_c, 2, 71, 65
4, 571388, Note_off_c, 2, 83, 64
4, 571388, Note_off_c, 2, 76, 64
4, 571388, Note_off_c, 2, 71, 64
4, 571392, Note_on_c, 2, 81, 67
4, 571392, Note_on_c, 2, 72, 65
4, 571392, Note_on_c, 2, 69, 65
4, 571772, Note_off_c, 2, 81, 64
4, 571772, Note_off_c, 2, 72, 64
4, 571772, Note_off_c, 2, 69, 64
4, 572544, Note_on_c, 2, 81, 67
4, 572544, Note_on_c, 2, 72, 65
4, 572544, Note_on_c, 2, 69, 65
4, 572732, Note_off_c, 2, 81, 64
4, 572732, Note_off_c, 2, 72, 64
4, 572732, Note_off_c, 2, 69, 64
4, 572736, Note_on_c, 2, 79, 66
4, 572736, Note_on_c, 2, 72, 65
4, 572736, Note_on_c, 2, 67, 65
4, 572924, Note_off_c, 2, 79, 64
4, 572924, Note_off_c, 2, 72, 64
4, 572924, Note_off_c, 2, 67, 64
4, 572928, Note_on_c, 2, 77, 65
4, 572928, Note_on_c, 2, 69, 65
4, 572928, Note_on_c, 2, 65, 65
4, 573308, Note_off_c, 2, 65, 64
4, 573692, Note_off_c, 2, 69, 64
4, 573696, Note_on_c, 2, 71, 65
4, 574460, Note_off_c, 2, 77, 64
4, 574460, Note_off_c, 2, 71, 64
4, 574464, Note_on_c, 2, 76, 65
4, 574464, Note_on_c, 2, 72, 65
4, 574464, Note_on_c, 2, 64, 65
4, 574844, Note_off_c, 2, 76, 64
4, 575996, Note_off_c, 2, 72, 64
4, 575996, Note_off_c, 2, 64, 64
4, 576000, Note_on_c, 2, 70, 65
4, 576000, Note_on_c, 2, 67, 65
4, 576000, Note_on_c, 2, 60, 65
4, 577532, Note_off_c, 2, 70, 64
4, 577532, Note_off_c, 2, 67, 64
4, 577532, Note_off_c, 2, 60, 64
4, 577536, Note_on_c, 2, 69, 65
4, 577536, Note_on_c, 2, 65, 65
4, 577536, Note_on_c, 2, 60, 65
4, 579068, Note_off_c, 2, 69, 64
4, 579068, Note_off_c, 2, 65, 64
4, 579068, Note_off_c, 2, 60, 64
4, 579072, Note_on_c, 2, 63, 65
4, 579072, Note_on_c, 2, 60, 65
4, 579072, Note_on_c, 2, 57, 65
4, 580220, Note_off_c, 2, 63, 64
4, 580220, Note_off_c, 2, 60, 64
4, 580220, Note_off_c, 2, 57, 64
4, 580224, Note_on_c, 2, 69, 65
4, 580224, Note_on_c, 2, 63, 65
4, 580224, Note_on_c, 2, 60, 65
4, 580412, Note_off_c, 2, 69, 64
4, 580412, Note_off_c, 2, 63, 64
4, 580412, Note_off_c, 2, 60, 64
4, 580416, Note_on_c, 2, 75, 65
4, 580416, Note_on_c, 2, 87, 71
4, 580604, Note_off_c, 2, 75, 64
4, 580604, Note_off_c, 2, 87, 64
4, 580608, Note_on_c, 2, 84, 69
4, 580608, Note_on_c, 2, 72, 65
4, 580608, Note_on_c, 2, 69, 65
4, 580608, Note_on_c, 2, 63, 65
4, 580796, Note_off_c, 2, 84, 64
4, 580796, Note_off_c, 2, 72, 64
4, 580796, Note_off_c, 2, 69, 64
4, 580796, Note_off_c, 2, 63, 64
4, 580800, Note_on_c, 2, 81, 67
4, 580800, Note_on_c, 2, 69, 65
4, 580988, Note_off_c, 2, 81, 64
4, 580988, Note_off_c, 2, 69, 64
4, 580992, Note_on_c, 2, 75, 65
4, 580992, Note_on_c, 2, 72, 65
4, 580992, Note_on_c, 2, 69, 65
4, 580992, Note_on_c, 2, 66, 65
4, 581180, Note_off_c, 2, 75, 64
4, 581180, Note_off_c, 2, 72, 64
4, 581180, Note_off_c, 2, 69, 64
4, 581180, Note_off_c, 2, 66, 64
4, 581376, Note_on_c, 2, 78, 65
4, 581376, Note_on_c, 2, 75, 65
4, 581376, Note_on_c, 2, 72, 65
4, 581564, Note_off_c, 2, 78, 64
4, 581564, Note_off_c, 2, 75, 64
4, 581564, Note_off_c, 2, 72, 64
4, 581568, Note_on_c, 2, 84, 69
4, 581568, Note_on_c, 2, 78, 65
4, 581568, Note_on_c, 2, 75, 65
4, 581756, Note_off_c, 2, 84, 64
4, 581756, Note_off_c, 2, 78, 64
4, 581756, Note_off_c, 2, 75, 64
4, 581760, Note_on_c, 2, 84, 69
4, 581760, Note_on_c, 2, 79, 65
4, 581760, Note_on_c, 2, 75, 65
4, 581948, Note_off_c, 2, 84, 64
4, 581948, Note_off_c, 2, 79, 64
4, 581948, Note_off_c, 2, 75, 64
4, 581952, Note_on_c, 2, 84, 69
4, 581952, Note_on_c, 2, 81, 67
4, 581952, Note_on_c, 2, 75, 65
4, 582140, Note_off_c, 2, 84, 64
4, 582140, Note_off_c, 2, 81, 64
4, 582140, Note_off_c, 2, 75, 64
4, 582144, Note_on_c, 2, 79, 66
4, 582144, Note_on_c, 2, 67, 65
4, 582332, Note_off_c, 2, 79, 64
4, 582332, Note_off_c, 2, 67, 64
4, 583872, Note_on_c, 2, 72, 65
4, 583872, Note_on_c, 2, 64, 65
4, 584060, Note_off_c, 2, 72, 64
4, 584060, Note_off_c, 2, 64, 64
4, 584064, Note_on_c, 2, 71, 65
4, 584064, Note_on_c, 2, 62, 65
4, 584252, Note_off_c, 2, 71, 64
4, 584252, Note_off_c, 2, 62, 64
4, 584256, Note_on_c, 2, 74, 65
4, 584256, Note_on_c, 2, 65, 65
4, 584444, Note_off_c, 2, 74, 64
4, 584444, Note_off_c, 2, 65, 64
4, 584448, Note_on_c, 2, 72, 65
4, 584448, Note_on_c, 2, 64, 65
4, 584636, Note_off_c, 2, 72, 64
4, 584636, Note_off_c, 2, 64, 64
4, 584640, Note_on_c, 2, 76, 65
4, 584640, Note_on_c, 2, 67, 65
4, 584828, Note_off_c, 2, 76, 64
4, 584828, Note_off_c, 2, 67, 64
4, 584832, Note_on_c, 2, 77, 65
4, 584832, Note_on_c, 2, 69, 65
4, 585020, Note_off_c, 2, 77, 64
4, 585020, Note_off_c, 2, 69, 64
4, 585024, Note_on_c, 2, 74, 65
4, 585024, Note_on_c, 2, 71, 65
4, 585212, Note_off_c, 2, 74, 64
4, 585212, Note_off_c, 2, 71, 64
4, 585216, Note_on_c, 2, 76, 65
4, 585216, Note_on_c, 2, 72, 65
4, 585404, Note_off_c, 2, 76, 64
4, 585404, Note_off_c, 2, 72, 64
4, 585408, Note_on_c, 2, 84, 69
4, 585408, Note_on_c, 2, 76, 65
4, 585596, Note_off_c, 2, 84, 64
4, 585596, Note_off_c, 2, 76, 64
4, 585600, Note_on_c, 2, 83, 68
4, 585600, Note_on_c, 2, 74, 65
4, 585788, Note_off_c, 2, 83, 64
4, 585788, Note_off_c, 2, 74, 64
4, 585792, Note_on_c, 2, 86, 70
4, 585792, Note_on_c, 2, 77, 65
4, 585980, Note_off_c, 2, 86, 64
4, 585980, Note_off_c, 2, 77, 64
4, 585984, Note_on_c, 2, 84, 69
4, 585984, Note_on_c, 2, 76, 65
4, 586172, Note_off_c, 2, 84, 64
4, 586172, Note_off_c, 2, 76, 64
4, 586176, Note_on_c, 2, 88, 71
4, 586176, Note_on_c, 2, 79, 66
4, 586364, Note_off_c, 2, 88, 64
4, 586364, Note_off_c, 2, 79, 64
4, 586368, Note_on_c, 2, 89, 72
4, 586368, Note_on_c, 2, 81, 67
4, 586556, Note_off_c, 2, 89, 64
4, 586556, Note_off_c, 2, 81, 64
4, 586560, Note_on_c, 2, 86, 69
4, 586560, Note_on_c, 2, 83, 67
4, 586748, Note_off_c, 2, 86, 64
4, 586748, Note_off_c, 2, 83, 64
4, 586752, Note_on_c, 2, 84, 71
4, 586752, Note_on_c, 2, 88, 69
4, 587132, Note_off_c, 2, 84, 64
4, 587132, Note_off_c, 2, 88, 64
4, 589824, Note_on_c, 2, 79, 66
4, 589824, Note_on_c, 2, 91, 73
4, 590588, Note_off_c, 2, 79, 64
4, 590588, Note_off_c, 2, 91, 64
4, 590592, Note_on_c, 2, 76, 65
4, 590592, Note_on_c, 2, 88, 71
4, 590972, Note_off_c, 2, 76, 64
4, 590972, Note_off_c, 2, 88, 64
4, 590976, Note_on_c, 2, 72, 65
4, 590976, Note_on_c, 2, 84, 69
4, 591356, Note_off_c, 2, 72, 64
4, 591356, Note_off_c, 2, 84, 64
4, 591360, Note_on_c, 2, 79, 66
4, 592124, Note_off_c, 2, 79, 64
4, 592128, Note_on_c, 2, 76, 65
4, 592508, Note_off_c, 2, 76, 64
4, 592512, Note_on_c, 2, 72, 65
4, 592892, Note_off_c, 2, 72, 64
4, 592896, Note_on_c, 2, 74, 65
4, 592896, Note_on_c, 2, 72, 65
4, 594428, Note_off_c, 2, 72, 64
4, 594432, Note_on_c, 2, 83, 68
4, 594432, Note_on_c, 2, 71, 65
4, 595964, Note_off_c, 2, 74, 64
4, 595964, Note_off_c, 2, 83, 64
4, 595964, Note_off_c, 2, 71, 64
4, 595968, Note_on_c, 2, 79, 91
4, 595968, Note_on_c, 2, 76, 90
4, 595968, Note_on_c, 2, 72, 90
4, 596060, Note_off_c, 2, 79, 64
4, 596060, Note_off_c, 2, 76, 64
4, 596060, Note_off_c, 2, 72, 64
4, 596064, Note_on_c, 2, 84, 94
4, 596156, Note_off_c, 2, 84, 64
4, 596160, Note_on_c, 2, 76, 90
4, 596160, Note_on_c, 2, 72, 90
4, 596252, Note_off_c, 2, 76, 64
4, 596252, Note_off_c, 2, 72, 64
4, 596256, Note_on_c, 2, 84, 94
4, 596348, Note_off_c, 2, 84, 64
4, 596352, Note_on_c, 2, 76, 90
4, 596352, Note_on_c, 2, 72, 90
4, 596444, Note_off_c, 2, 76, 64
4, 596444, Note_off_c, 2, 72, 64
4, 596448, Note_on_c, 2, 84, 94
4, 596540, Note_off_c, 2, 84, 64
4, 596544, Note_on_c, 2, 76, 90
4, 596544, Note_on_c, 2, 72, 90
4, 596636, Note_off_c, 2, 76, 64
4, 596636, Note_off_c, 2, 72, 64
4, 596640, Note_on_c, 2, 84, 94
4, 596732, Note_off_c, 2, 84, 64
4, 596736, Note_on_c, 2, 76, 90
4, 596736, Note_on_c, 2, 72, 90
4, 596828, Note_off_c, 2, 76, 64
4, 596828, Note_off_c, 2, 72, 64
4, 596832, Note_on_c, 2, 84, 94
4, 596924, Note_off_c, 2, 84, 64
4, 596928, Note_on_c, 2, 76, 90
4, 596928, Note_on_c, 2, 72, 90
4, 597020, Note_off_c, 2, 76, 64
4, 597020, Note_off_c, 2, 72, 64
4, 597024, Note_on_c, 2, 84, 94
4, 597116, Note_off_c, 2, 84, 64
4, 597120, Note_on_c, 2, 76, 90
4, 597120, Note_on_c, 2, 72, 90
4, 597212, Note_off_c, 2, 76, 64
4, 597212, Note_off_c, 2, 72, 64
4, 597216, Note_on_c, 2, 84, 94
4, 597308, Note_off_c, 2, 84, 64
4, 597312, Note_on_c, 2, 76, 90
4, 597312, Note_on_c, 2, 72, 90
4, 597404, Note_off_c, 2, 76, 64
4, 597404, Note_off_c, 2, 72, 64
4, 597408, Note_on_c, 2, 84, 94
4, 597500, Note_off_c, 2, 84, 64
4, 597504, Note_on_c, 2, 74, 90
4, 597504, Note_on_c, 2, 72, 90
4, 597596, Note_off_c, 2, 74, 64
4, 597596, Note_off_c, 2, 72, 64
4, 597600, Note_on_c, 2, 84, 94
4, 597692, Note_off_c, 2, 84, 64
4, 597696, Note_on_c, 2, 74, 90
4, 597696, Note_on_c, 2, 72, 90
4, 597788, Note_off_c, 2, 74, 64
4, 597788, Note_off_c, 2, 72, 64
4, 597792, Note_on_c, 2, 84, 94
4, 597884, Note_off_c, 2, 84, 64
4, 597888, Note_on_c, 2, 74, 90
4, 597888, Note_on_c, 2, 69, 90
4, 597980, Note_off_c, 2, 74, 64
4, 597980, Note_off_c, 2, 69, 64
4, 597984, Note_on_c, 2, 81, 92
4, 598076, Note_off_c, 2, 81, 64
4, 598080, Note_on_c, 2, 74, 90
4, 598080, Note_on_c, 2, 69, 90
4, 598172, Note_off_c, 2, 74, 64
4, 598172, Note_off_c, 2, 69, 64
4, 598176, Note_on_c, 2, 81, 92
4, 598268, Note_off_c, 2, 81, 64
4, 598272, Note_on_c, 2, 74, 90
4, 598272, Note_on_c, 2, 71, 90
4, 598364, Note_off_c, 2, 74, 64
4, 598364, Note_off_c, 2, 71, 64
4, 598368, Note_on_c, 2, 83, 93
4, 598460, Note_off_c, 2, 83, 64
4, 598464, Note_on_c, 2, 74, 90
4, 598464, Note_on_c, 2, 71, 90
4, 598556, Note_off_c, 2, 74, 64
4, 598556, Note_off_c, 2, 71, 64
4, 598560, Note_on_c, 2, 83, 93
4, 598652, Note_off_c, 2, 83, 64
4, 598656, Note_on_c, 2, 76, 90
4, 598656, Note_on_c, 2, 73, 90
4, 598748, Note_off_c, 2, 76, 64
4, 598748, Note_off_c, 2, 73, 64
4, 598752, Note_on_c, 2, 85, 94
4, 598844, Note_off_c, 2, 85, 64
4, 598848, Note_on_c, 2, 76, 90
4, 598848, Note_on_c, 2, 73, 90
4, 598940, Note_off_c, 2, 76, 64
4, 598940, Note_off_c, 2, 73, 64
4, 598944, Note_on_c, 2, 85, 94
4, 599036, Note_off_c, 2, 85, 64
4, 599040, Note_on_c, 2, 77, 90
4, 599040, Note_on_c, 2, 74, 90
4, 599132, Note_off_c, 2, 77, 64
4, 599132, Note_off_c, 2, 74, 64
4, 599136, Note_on_c, 2, 86, 95
4, 599228, Note_off_c, 2, 86, 64
4, 599232, Note_on_c, 2, 77, 90
4, 599232, Note_on_c, 2, 74, 90
4, 599324, Note_off_c, 2, 77, 64
4, 599324, Note_off_c, 2, 74, 64
4, 599328, Note_on_c, 2, 86, 95
4, 599420, Note_off_c, 2, 86, 64
4, 599424, Note_on_c, 2, 77, 90
4, 599424, Note_on_c, 2, 74, 90
4, 599516, Note_off_c, 2, 77, 64
4, 599516, Note_off_c, 2, 74, 64
4, 599520, Note_on_c, 2, 86, 95
4, 599612, Note_off_c, 2, 86, 64
4, 599616, Note_on_c, 2, 77, 90
4, 599616, Note_on_c, 2, 74, 90
4, 599708, Note_off_c, 2, 77, 64
4, 599708, Note_off_c, 2, 74, 64
4, 599712, Note_on_c, 2, 86, 95
4, 599804, Note_off_c, 2, 86, 64
4, 599808, Note_on_c, 2, 77, 90
4, 599808, Note_on_c, 2, 74, 90
4, 599900, Note_off_c, 2, 77, 64
4, 599900, Note_off_c, 2, 74, 64
4, 599904, Note_on_c, 2, 86, 95
4, 599996, Note_off_c, 2, 86, 64
4, 600000, Note_on_c, 2, 77, 90
4, 600000, Note_on_c, 2, 74, 90
4, 600092, Note_off_c, 2, 77, 64
4, 600092, Note_off_c, 2, 74, 64
4, 600096, Note_on_c, 2, 86, 95
4, 600188, Note_off_c, 2, 86, 64
4, 600192, Note_on_c, 2, 77, 90
4, 600192, Note_on_c, 2, 74, 90
4, 600284, Note_off_c, 2, 77, 64
4, 600284, Note_off_c, 2, 74, 64
4, 600288, Note_on_c, 2, 86, 95
4, 600380, Note_off_c, 2, 86, 64
4, 600384, Note_on_c, 2, 77, 90
4, 600384, Note_on_c, 2, 74, 90
4, 600476, Note_off_c, 2, 77, 64
4, 600476, Note_off_c, 2, 74, 64
4, 600480, Note_on_c, 2, 86, 95
4, 600572, Note_off_c, 2, 86, 64
4, 600576, Note_on_c, 2, 79, 91
4, 600576, Note_on_c, 2, 76, 90
4, 600576, Note_on_c, 2, 74, 90
4, 600668, Note_off_c, 2, 79, 64
4, 600668, Note_off_c, 2, 76, 64
4, 600668, Note_off_c, 2, 74, 64
4, 600672, Note_on_c, 2, 86, 95
4, 600764, Note_off_c, 2, 86, 64
4, 600768, Note_on_c, 2, 79, 91
4, 600768, Note_on_c, 2, 76, 90
4, 600768, Note_on_c, 2, 74, 90
4, 600860, Note_off_c, 2, 79, 64
4, 600860, Note_off_c, 2, 76, 64
4, 600860, Note_off_c, 2, 74, 64
4, 600864, Note_on_c, 2, 86, 95
4, 600956, Note_off_c, 2, 86, 64
4, 600960, Note_on_c, 2, 79, 91
4, 600960, Note_on_c, 2, 76, 90
4, 600960, Note_on_c, 2, 71, 90
4, 601052, Note_off_c, 2, 79, 64
4, 601052, Note_off_c, 2, 76, 64
4, 601052, Note_off_c, 2, 71, 64
4, 601056, Note_on_c, 2, 83, 93
4, 601148, Note_off_c, 2, 83, 64
4, 601152, Note_on_c, 2, 79, 91
4, 601152, Note_on_c, 2, 76, 90
4, 601152, Note_on_c, 2, 71, 90
4, 601244, Note_off_c, 2, 79, 64
4, 601244, Note_off_c, 2, 76, 64
4, 601244, Note_off_c, 2, 71, 64
4, 601248, Note_on_c, 2, 83, 93
4, 601340, Note_off_c, 2, 83, 64
4, 601344, Note_on_c, 2, 79, 91
4, 601344, Note_on_c, 2, 72, 90
4, 601436, Note_off_c, 2, 79, 64
4, 601436, Note_off_c, 2, 72, 64
4, 601440, Note_on_c, 2, 84, 94
4, 601532, Note_off_c, 2, 84, 64
4, 601536, Note_on_c, 2, 79, 91
4, 601536, Note_on_c, 2, 72, 90
4, 601628, Note_off_c, 2, 79, 64
4, 601628, Note_off_c, 2, 72, 64
4, 601632, Note_on_c, 2, 84, 94
4, 601724, Note_off_c, 2, 84, 64
4, 601728, Note_on_c, 2, 83, 93
4, 601728, Note_on_c, 2, 79, 91
4, 601728, Note_on_c, 2, 74, 90
4, 601820, Note_off_c, 2, 83, 64
4, 601820, Note_off_c, 2, 79, 64
4, 601820, Note_off_c, 2, 74, 64
4, 601824, Note_on_c, 2, 86, 95
4, 601916, Note_off_c, 2, 86, 64
4, 601920, Note_on_c, 2, 83, 93
4, 601920, Note_on_c, 2, 79, 91
4, 601920, Note_on_c, 2, 74, 90
4, 602012, Note_off_c, 2, 83, 64
4, 602012, Note_off_c, 2, 79, 64
4, 602012, Note_off_c, 2, 74, 64
4, 602016, Note_on_c, 2, 86, 95
4, 602108, Note_off_c, 2, 86, 64
4, 602112, Note_on_c, 2, 84, 94
4, 602112, Note_on_c, 2, 75, 90
4, 602204, Note_off_c, 2, 84, 64
4, 602204, Note_off_c, 2, 75, 64
4, 602208, Note_on_c, 2, 87, 96
4, 602300, Note_off_c, 2, 87, 64
4, 602304, Note_on_c, 2, 84, 94
4, 602304, Note_on_c, 2, 75, 90
4, 602396, Note_off_c, 2, 84, 64
4, 602396, Note_off_c, 2, 75, 64
4, 602400, Note_on_c, 2, 87, 96
4, 602492, Note_off_c, 2, 87, 64
4, 602496, Note_on_c, 2, 84, 94
4, 602496, Note_on_c, 2, 75, 90
4, 602588, Note_off_c, 2, 84, 64
4, 602588, Note_off_c, 2, 75, 64
4, 602592, Note_on_c, 2, 87, 96
4, 602684, Note_off_c, 2, 87, 64
4, 602688, Note_on_c, 2, 84, 94
4, 602688, Note_on_c, 2, 75, 90
4, 602780, Note_off_c, 2, 84, 64
4, 602780, Note_off_c, 2, 75, 64
4, 602784, Note_on_c, 2, 87, 96
4, 602876, Note_off_c, 2, 87, 64
4, 602880, Note_on_c, 2, 84, 94
4, 602880, Note_on_c, 2, 75, 90
4, 602972, Note_off_c, 2, 84, 64
4, 602972, Note_off_c, 2, 75, 64
4, 602976, Note_on_c, 2, 87, 96
4, 603068, Note_off_c, 2, 87, 64
4, 603072, Note_on_c, 2, 84, 94
4, 603072, Note_on_c, 2, 75, 90
4, 603164, Note_off_c, 2, 84, 64
4, 603164, Note_off_c, 2, 75, 64
4, 603168, Note_on_c, 2, 87, 96
4, 603260, Note_off_c, 2, 87, 64
4, 603264, Note_on_c, 2, 84, 94
4, 603264, Note_on_c, 2, 75, 90
4, 603356, Note_off_c, 2, 84, 64
4, 603356, Note_off_c, 2, 75, 64
4, 603360, Note_on_c, 2, 87, 96
4, 603452, Note_off_c, 2, 87, 64
4, 603456, Note_on_c, 2, 84, 94
4, 603456, Note_on_c, 2, 75, 90
4, 603548, Note_off_c, 2, 84, 64
4, 603548, Note_off_c, 2, 75, 64
4, 603552, Note_on_c, 2, 87, 96
4, 603644, Note_off_c, 2, 87, 64
4, 603648, Note_on_c, 2, 87, 96
4, 603648, Note_on_c, 2, 84, 94
4, 603648, Note_on_c, 2, 75, 90
4, 603836, Note_off_c, 2, 87, 64
4, 603836, Note_off_c, 2, 84, 64
4, 603836, Note_off_c, 2, 75, 64
4, 603840, Note_on_c, 2, 72, 90
4, 603840, Note_on_c, 2, 68, 90
4, 603932, Note_off_c, 2, 72, 64
4, 603932, Note_off_c, 2, 68, 64
4, 603936, Note_on_c, 2, 75, 90
4, 604028, Note_off_c, 2, 75, 64
4, 604032, Note_on_c, 2, 72, 90
4, 604032, Note_on_c, 2, 68, 90
4, 604124, Note_off_c, 2, 72, 64
4, 604124, Note_off_c, 2, 68, 64
4, 604128, Note_on_c, 2, 75, 90
4, 604220, Note_off_c, 2, 75, 64
4, 604224, Note_on_c, 2, 72, 90
4, 604224, Note_on_c, 2, 68, 90
4, 604316, Note_off_c, 2, 72, 64
4, 604316, Note_off_c, 2, 68, 64
4, 604320, Note_on_c, 2, 75, 90
4, 604412, Note_off_c, 2, 75, 64
4, 604416, Note_on_c, 2, 72, 90
4, 604416, Note_on_c, 2, 68, 90
4, 604508, Note_off_c, 2, 72, 64
4, 604508, Note_off_c, 2, 68, 64
4, 604512, Note_on_c, 2, 75, 90
4, 604604, Note_off_c, 2, 75, 64
4, 604608, Note_on_c, 2, 72, 90
4, 604608, Note_on_c, 2, 68, 90
4, 604700, Note_off_c, 2, 72, 64
4, 604700, Note_off_c, 2, 68, 64
4, 604704, Note_on_c, 2, 75, 90
4, 604796, Note_off_c, 2, 75, 64
4, 604800, Note_on_c, 2, 72, 90
4, 604800, Note_on_c, 2, 68, 90
4, 604892, Note_off_c, 2, 72, 64
4, 604892, Note_off_c, 2, 68, 64
4, 604896, Note_on_c, 2, 75, 90
4, 604988, Note_off_c, 2, 75, 64
4, 604992, Note_on_c, 2, 72, 90
4, 604992, Note_on_c, 2, 68, 90
4, 605084, Note_off_c, 2, 72, 64
4, 605084, Note_off_c, 2, 68, 64
4, 605088, Note_on_c, 2, 75, 90
4, 605180, Note_off_c, 2, 75, 64
4, 605184, Note_on_c, 2, 73, 90
4, 605184, Note_on_c, 2, 70, 90
4, 605276, Note_off_c, 2, 73, 64
4, 605276, Note_off_c, 2, 70, 64
4, 605280, Note_on_c, 2, 75, 90
4, 605372, Note_off_c, 2, 75, 64
4, 605376, Note_on_c, 2, 73, 90
4, 605376, Note_on_c, 2, 70, 90
4, 605468, Note_off_c, 2, 73, 64
4, 605468, Note_off_c, 2, 70, 64
4, 605472, Note_on_c, 2, 75, 90
4, 605564, Note_off_c, 2, 75, 64
4, 605568, Note_on_c, 2, 73, 90
4, 605568, Note_on_c, 2, 70, 90
4, 605660, Note_off_c, 2, 73, 64
4, 605660, Note_off_c, 2, 70, 64
4, 605664, Note_on_c, 2, 75, 90
4, 605756, Note_off_c, 2, 75, 64
4, 605760, Note_on_c, 2, 73, 90
4, 605760, Note_on_c, 2, 70, 90
4, 605852, Note_off_c, 2, 73, 64
4, 605852, Note_off_c, 2, 70, 64
4, 605856, Note_on_c, 2, 75, 90
4, 605948, Note_off_c, 2, 75, 64
4, 605952, Note_on_c, 2, 73, 90
4, 605952, Note_on_c, 2, 70, 90
4, 606044, Note_off_c, 2, 73, 64
4, 606044, Note_off_c, 2, 70, 64
4, 606048, Note_on_c, 2, 75, 90
4, 606140, Note_off_c, 2, 75, 64
4, 606144, Note_on_c, 2, 73, 90
4, 606144, Note_on_c, 2, 70, 90
4, 606236, Note_off_c, 2, 73, 64
4, 606236, Note_off_c, 2, 70, 64
4, 606240, Note_on_c, 2, 75, 90
4, 606332, Note_off_c, 2, 75, 64
4, 606336, Note_on_c, 2, 73, 90
4, 606336, Note_on_c, 2, 70, 90
4, 606428, Note_off_c, 2, 73, 64
4, 606428, Note_off_c, 2, 70, 64
4, 606432, Note_on_c, 2, 75, 90
4, 606524, Note_off_c, 2, 75, 64
4, 606528, Note_on_c, 2, 73, 90
4, 606528, Note_on_c, 2, 70, 90
4, 606620, Note_off_c, 2, 73, 64
4, 606620, Note_off_c, 2, 70, 64
4, 606624, Note_on_c, 2, 75, 90
4, 606716, Note_off_c, 2, 75, 64
4, 606720, Note_on_c, 2, 75, 90
4, 606720, Note_on_c, 2, 72, 90
4, 606720, Note_on_c, 2, 68, 90
4, 606908, Note_off_c, 2, 75, 64
4, 606908, Note_off_c, 2, 72, 64
4, 606908, Note_off_c, 2, 68, 64
4, 606912, Note_on_c, 2, 87, 96
4, 606912, Note_on_c, 2, 84, 94
4, 606912, Note_on_c, 2, 80, 92
4, 607292, Note_off_c, 2, 87, 64
4, 607292, Note_off_c, 2, 84, 64
4, 607292, Note_off_c, 2, 80, 64
4, 607296, Note_on_c, 2, 87, 96
4, 607296, Note_on_c, 2, 84, 94
4, 607296, Note_on_c, 2, 80, 92
4, 607484, Note_off_c, 2, 84, 64
4, 607484, Note_off_c, 2, 80, 64
4, 607488, Note_on_c, 2, 85, 94
4, 607488, Note_on_c, 2, 82, 93
4, 607676, Note_off_c, 2, 87, 64
4, 607676, Note_off_c, 2, 85, 64
4, 607676, Note_off_c, 2, 82, 64
4, 607680, Note_on_c, 2, 85, 96
4, 607680, Note_on_c, 2, 82, 94
4, 607680, Note_on_c, 2, 87, 93
4, 608060, Note_off_c, 2, 85, 64
4, 608060, Note_off_c, 2, 82, 64
4, 608060, Note_off_c, 2, 87, 64
4, 608064, Note_on_c, 2, 85, 96
4, 608064, Note_on_c, 2, 82, 94
4, 608064, Note_on_c, 2, 87, 93
4, 608252, Note_off_c, 2, 85, 64
4, 608252, Note_off_c, 2, 82, 64
4, 608256, Note_on_c, 2, 84, 94
4, 608256, Note_on_c, 2, 80, 92
4, 608444, Note_off_c, 2, 87, 64
4, 608444, Note_off_c, 2, 84, 64
4, 608444, Note_off_c, 2, 80, 64
4, 608448, Note_on_c, 2, 75, 90
4, 608448, Note_on_c, 2, 72, 90
4, 608448, Note_on_c, 2, 68, 90
4, 608636, Note_off_c, 2, 72, 64
4, 608636, Note_off_c, 2, 68, 64
4, 608640, Note_on_c, 2, 73, 90
4, 608640, Note_on_c, 2, 70, 90
4, 608828, Note_off_c, 2, 75, 64
4, 608828, Note_off_c, 2, 73, 64
4, 608828, Note_off_c, 2, 70, 64
4, 608832, Note_on_c, 2, 75, 90
4, 608832, Note_on_c, 2, 73, 90
4, 608832, Note_on_c, 2, 70, 90
4, 609020, Note_off_c, 2, 73, 64
4, 609020, Note_off_c, 2, 70, 64
4, 609024, Note_on_c, 2, 72, 90
4, 609024, Note_on_c, 2, 68, 90
4, 609212, Note_off_c, 2, 75, 64
4, 609212, Note_off_c, 2, 72, 64
4, 609212, Note_off_c, 2, 68, 64
4, 609216, Note_on_c, 2, 75, 90
4, 609216, Note_on_c, 2, 68, 90
4, 609216, Note_on_c, 2, 72, 90
4, 609404, Note_off_c, 2, 68, 64
4, 609404, Note_off_c, 2, 72, 64
4, 609408, Note_on_c, 2, 73, 90
4, 609408, Note_on_c, 2, 70, 90
4, 609596, Note_off_c, 2, 75, 64
4, 609596, Note_off_c, 2, 73, 64
4, 609596, Note_off_c, 2, 70, 64
4, 609600, Note_on_c, 2, 75, 90
4, 609600, Note_on_c, 2, 73, 90
4, 609600, Note_on_c, 2, 70, 90
4, 609788, Note_off_c, 2, 75, 64
4, 609788, Note_off_c, 2, 73, 64
4, 609788, Note_off_c, 2, 70, 64
4, 609792, Note_on_c, 2, 72, 90
4, 609792, Note_on_c, 2, 68, 90
4, 609884, Note_off_c, 2, 72, 64
4, 609884, Note_off_c, 2, 68, 64
4, 609888, Note_on_c, 2, 75, 90
4, 609980, Note_off_c, 2, 75, 64
4, 609984, Note_on_c, 2, 72, 90
4, 609984, Note_on_c, 2, 68, 90
4, 610076, Note_off_c, 2, 72, 64
4, 610076, Note_off_c, 2, 68, 64
4, 610080, Note_on_c, 2, 75, 90
4, 610172, Note_off_c, 2, 75, 64
4, 610176, Note_on_c, 2, 72, 90
4, 610176, Note_on_c, 2, 68, 90
4, 610176, Note_on_c, 2, 64, 90
4, 610268, Note_off_c, 2, 72, 64
4, 610268, Note_off_c, 2, 68, 64
4, 610268, Note_off_c, 2, 64, 64
4, 610272, Note_on_c, 2, 76, 90
4, 610364, Note_off_c, 2, 76, 64
4, 610368, Note_on_c, 2, 72, 90
4, 610368, Note_on_c, 2, 68, 90
4, 610368, Note_on_c, 2, 64, 90
4, 610460, Note_off_c, 2, 72, 64
4, 610460, Note_off_c, 2, 68, 64
4, 610460, Note_off_c, 2, 64, 64
4, 610464, Note_on_c, 2, 76, 90
4, 610556, Note_off_c, 2, 76, 64
4, 610560, Note_on_c, 2, 72, 90
4, 610560, Note_on_c, 2, 68, 90
4, 610560, Note_on_c, 2, 65, 90
4, 610652, Note_off_c, 2, 72, 64
4, 610652, Note_off_c, 2, 68, 64
4, 610652, Note_off_c, 2, 65, 64
4, 610656, Note_on_c, 2, 77, 90
4, 610748, Note_off_c, 2, 77, 64
4, 610752, Note_on_c, 2, 72, 90
4, 610752, Note_on_c, 2, 68, 90
4, 610752, Note_on_c, 2, 65, 90
4, 610844, Note_off_c, 2, 72, 64
4, 610844, Note_off_c, 2, 68, 64
4, 610844, Note_off_c, 2, 65, 64
4, 610848, Note_on_c, 2, 77, 90
4, 610940, Note_off_c, 2, 77, 64
4, 610944, Note_on_c, 2, 72, 90
4, 610944, Note_on_c, 2, 68, 90
4, 610944, Note_on_c, 2, 66, 90
4, 611036, Note_off_c, 2, 72, 64
4, 611036, Note_off_c, 2, 68, 64
4, 611036, Note_off_c, 2, 66, 64
4, 611040, Note_on_c, 2, 78, 90
4, 611132, Note_off_c, 2, 78, 64
4, 611136, Note_on_c, 2, 72, 90
4, 611136, Note_on_c, 2, 68, 90
4, 611136, Note_on_c, 2, 66, 90
4, 611228, Note_off_c, 2, 72, 64
4, 611228, Note_off_c, 2, 68, 64
4, 611228, Note_off_c, 2, 66, 64
4, 611232, Note_on_c, 2, 78, 90
4, 611324, Note_off_c, 2, 78, 64
4, 611328, Note_on_c, 2, 79, 91
4, 611328, Note_on_c, 2, 71, 90
4, 611328, Note_on_c, 2, 67, 90
4, 611708, Note_off_c, 2, 79, 64
4, 611708, Note_off_c, 2, 71, 64
4, 611708, Note_off_c, 2, 67, 64
4, 612096, Note_on_c, 2, 83, 93
4, 612096, Note_on_c, 2, 79, 91
4, 612096, Note_on_c, 2, 74, 90
4, 612476, Note_off_c, 2, 83, 64
4, 612476, Note_off_c, 2, 79, 64
4, 612476, Note_off_c, 2, 74, 64
4, 612864, Note_on_c, 2, 84, 94
4, 612864, Note_on_c, 2, 79, 91
4, 612864, Note_on_c, 2, 76, 90
4, 612864, Note_on_c, 2, 72, 90
4, 613244, Note_off_c, 2, 84, 64
4, 613244, Note_off_c, 2, 79, 64
4, 613244, Note_off_c, 2, 76, 64
4, 613244, Note_off_c, 2, 72, 64
4, 613632, Note_on_c, 2, 90, 97
4, 613632, Note_on_c, 2, 87, 96
4, 613632, Note_on_c, 2, 84, 94
4, 613632, Note_on_c, 2, 78, 90
4, 614012, Note_off_c, 2, 90, 64
4, 614012, Note_off_c, 2, 87, 64
4, 614012, Note_off_c, 2, 84, 64
4, 614012, Note_off_c, 2, 78, 64
4, 614392, Control_c, 2, 64, 127
4, 614400, Note_on_c, 2, 91, 98
4, 614400, Note_on_c, 2, 88, 96
4, 614400, Note_on_c, 2, 84, 94
4, 614400, Note_on_c, 2, 79, 91
4, 615160, Control_c, 2, 64, 0
4, 615548, Note_off_c, 2, 91, 64
4, 615548, Note_off_c, 2, 88, 64
4, 615548, Note_off_c, 2, 84, 64
4, 615548, Note_off_c, 2, 79, 64
4, 688128, Note_on_c, 2, 84, 94
4, 688128, Note_on_c, 2, 72, 90
4, 688128, Note_on_c, 2, 72, 90
4, 688508, Note_off_c, 2, 72, 64
4, 688512, Note_on_c, 2, 79, 91
4, 688892, Note_off_c, 2, 84, 64
4, 688892, Note_off_c, 2, 72, 64
4, 688892, Note_off_c, 2, 79, 64
4, 688896, Note_on_c, 2, 84, 94
4, 688896, Note_on_c, 2, 72, 91
4, 688896, Note_on_c, 2, 80, 90
4, 689084, Note_off_c, 2, 84, 64
4, 689084, Note_off_c, 2, 72, 64
4, 689088, Note_on_c, 2, 85, 95
4, 689088, Note_on_c, 2, 73, 90
4, 689276, Note_off_c, 2, 85, 64
4, 689276, Note_off_c, 2, 73, 64
4, 689280, Note_on_c, 2, 84, 94
4, 689280, Note_on_c, 2, 72, 90
4, 689468, Note_off_c, 2, 84, 64
4, 689468, Note_off_c, 2, 72, 64
4, 689472, Note_on_c, 2, 83, 93
4, 689472, Note_on_c, 2, 71, 90
4, 689660, Note_off_c, 2, 80, 64
4, 689660, Note_off_c, 2, 83, 64
4, 689660, Note_off_c, 2, 71, 64
4, 689664, Note_on_c, 2, 84, 94
4, 689664, Note_on_c, 2, 72, 91
4, 689664, Note_on_c, 2, 79, 90
4, 690428, Note_off_c, 2, 84, 64
4, 690428, Note_off_c, 2, 72, 64
4, 690428, Note_off_c, 2, 79, 64
4, 690432, Note_on_c, 2, 84, 93
4, 690432, Note_on_c, 2, 72, 91
4, 690432, Note_on_c, 2, 80, 90
4, 690620, Note_off_c, 2, 84, 64
4, 690620, Note_off_c, 2, 72, 64
4, 690624, Note_on_c, 2, 85, 95
4, 690624, Note_on_c, 2, 73, 90
4, 690812, Note_off_c, 2, 85, 64
4, 690812, Note_off_c, 2, 73, 64
4, 690816, Note_on_c, 2, 84, 94
4, 690816, Note_on_c, 2, 72, 90
4, 691004, Note_off_c, 2, 84, 64
4, 691004, Note_off_c, 2, 72, 64
4, 691008, Note_on_c, 2, 83, 93
4, 691008, Note_on_c, 2, 71, 90
4, 691196, Note_off_c, 2, 80, 64
4, 691196, Note_off_c, 2, 83, 64
4, 691196, Note_off_c, 2, 71, 64
4, 691200, Note_on_c, 2, 84, 94
4, 691200, Note_on_c, 2, 72, 91
4, 691200, Note_on_c, 2, 79, 90
4, 691964, Note_off_c, 2, 84, 64
4, 691964, Note_off_c, 2, 72, 64
4, 691964, Note_off_c, 2, 79, 64
4, 691968, Note_on_c, 2, 84, 94
4, 691968, Note_on_c, 2, 72, 91
4, 691968, Note_on_c, 2, 80, 90
4, 692156, Note_off_c, 2, 84, 64
4, 692156, Note_off_c, 2, 72, 64
4, 692160, Note_on_c, 2, 85, 95
4, 692160, Note_on_c, 2, 73, 90
4, 692348, Note_off_c, 2, 85, 64
4, 692348, Note_off_c, 2, 73, 64
4, 692352, Note_on_c, 2, 84, 94
4, 692352, Note_on_c, 2, 72, 91
4, 692540, Note_off_c, 2, 84, 64
4, 692540, Note_off_c, 2, 72, 64
4, 692544, Note_on_c, 2, 83, 93
4, 692544, Note_on_c, 2, 71, 90
4, 692732, Note_off_c, 2, 80, 64
4, 692732, Note_off_c, 2, 83, 64
4, 692732, Note_off_c, 2, 71, 64
4, 692736, Note_on_c, 2, 72, 95
4, 692736, Note_on_c, 2, 84, 90
4, 692736, Note_on_c, 2, 84, 90
4, 692924, Note_off_c, 2, 84, 64
4, 692928, Note_on_c, 2, 79, 91
4, 693116, Note_off_c, 2, 79, 64
4, 693120, Note_on_c, 2, 79, 91
4, 693884, Note_off_c, 2, 79, 64
4, 693888, Note_on_c, 2, 80, 92
4, 694268, Note_off_c, 2, 84, 64
4, 694272, Note_on_c, 2, 84, 94
4, 694460, Note_off_c, 2, 80, 64
4, 694464, Note_on_c, 2, 81, 92
4, 694556, Note_off_c, 2, 81, 64
4, 694656, Note_on_c, 2, 81, 92
4, 695420, Note_off_c, 2, 72, 64
4, 695420, Note_off_c, 2, 84, 64
4, 695420, Note_off_c, 2, 81, 64
4, 695424, Note_on_c, 2, 86, 95
4, 695424, Note_on_c, 2, 74, 93
4, 695424, Note_on_c, 2, 83, 90
4, 695804, Note_off_c, 2, 86, 64
4, 695804, Note_off_c, 2, 74, 64
4, 695808, Note_on_c, 2, 75, 90
4, 695824, Note_on_c, 2, 87, 96
4, 695996, Note_off_c, 2, 83, 64
4, 696000, Note_on_c, 2, 84, 94
4, 696092, Note_off_c, 2, 84, 64
4, 696192, Note_on_c, 2, 84, 94
4, 696956, Note_off_c, 2, 75, 64
4, 696956, Note_off_c, 2, 84, 64
4, 696960, Note_on_c, 2, 90, 97
4, 696960, Note_on_c, 2, 78, 90
4, 696972, Note_off_c, 2, 87, 64
4, 697340, Note_off_c, 2, 90, 64
4, 697340, Note_off_c, 2, 78, 64
4, 697344, Note_on_c, 2, 91, 98
4, 697344, Note_on_c, 2, 79, 91
4, 697532, Note_off_c, 2, 79, 64
4, 697536, Note_on_c, 2, 79, 91
4, 697724, Note_off_c, 2, 79, 64
4, 697728, Note_on_c, 2, 79, 91
4, 698108, Note_off_c, 2, 91, 64
4, 698112, Note_on_c, 2, 88, 96
4, 698300, Note_off_c, 2, 79, 64
4, 698304, Note_on_c, 2, 81, 92
4, 698396, Note_off_c, 2, 81, 64
4, 698400, Note_on_c, 2, 79, 91
4, 698492, Note_off_c, 2, 88, 64
4, 698492, Note_off_c, 2, 79, 64
4, 698496, Note_on_c, 2, 84, 94
4, 698496, Note_on_c, 2, 77, 90
4, 698588, Note_off_c, 2, 77, 64
4, 698592, Note_on_c, 2, 76, 90
4, 698684, Note_off_c, 2, 76, 64
4, 698688, Note_on_c, 2, 74, 90
4, 698780, Note_off_c, 2, 74, 64
4, 698784, Note_on_c, 2, 72, 90
4, 698876, Note_off_c, 2, 84, 64
4, 698876, Note_off_c, 2, 72, 64
4, 698880, Note_on_c, 2, 89, 97
4, 698880, Note_on_c, 2, 77, 90
4, 699068, Note_off_c, 2, 77, 64
4, 699072, Note_on_c, 2, 77, 90
4, 699260, Note_off_c, 2, 77, 64
4, 699280, Note_on_c, 2, 77, 90
4, 699644, Note_off_c, 2, 89, 64
4, 699648, Note_on_c, 2, 86, 95
4, 699840, Note_on_c, 2, 79, 90
4, 699852, Note_off_c, 2, 77, 64
4, 699932, Note_off_c, 2, 79, 64
4, 699936, Note_on_c, 2, 77, 90
4, 700028, Note_off_c, 2, 86, 64
4, 700028, Note_off_c, 2, 77, 64
4, 700032, Note_on_c, 2, 83, 93
4, 700032, Note_on_c, 2, 76, 90
4, 700124, Note_off_c, 2, 76, 64
4, 700128, Note_on_c, 2, 74, 90
4, 700220, Note_off_c, 2, 74, 64
4, 700224, Note_on_c, 2, 72, 90
4, 700316, Note_off_c, 2, 72, 64
4, 700320, Note_on_c, 2, 71, 90
4, 700412, Note_off_c, 2, 83, 64
4, 700412, Note_off_c, 2, 71, 64
4, 700416, Note_on_c, 2, 84, 94
4, 700416, Note_on_c, 2, 72, 90
4, 700604, Note_off_c, 2, 84, 64
4, 700604, Note_off_c, 2, 72, 64
4, 700608, Note_on_c, 2, 72, 90
4, 700796, Note_off_c, 2, 72, 64
4, 700800, Note_on_c, 2, 67, 90
4, 700800, Note_on_c, 2, 64, 90
4, 700800, Note_on_c, 2, 73, 90
4, 700988, Note_off_c, 2, 67, 64
4, 700988, Note_off_c, 2, 64, 64
4, 700992, Note_on_c, 2, 67, 90
4, 700992, Note_on_c, 2, 64, 90
4, 701180, Note_off_c, 2, 73, 64
4, 701180, Note_off_c, 2, 67, 64
4, 701180, Note_off_c, 2, 64, 64
4, 701184, Note_on_c, 2, 65, 90
4, 701184, Note_on_c, 2, 62, 90
4, 701184, Note_on_c, 2, 74, 90
4, 701372, Note_off_c, 2, 65, 64
4, 701372, Note_off_c, 2, 62, 64
4, 701376, Note_on_c, 2, 65, 90
4, 701376, Note_on_c, 2, 62, 90
4, 701564, Note_off_c, 2, 74, 64
4, 701564, Note_off_c, 2, 65, 64
4, 701564, Note_off_c, 2, 62, 64
4, 701568, Note_on_c, 2, 70, 90
4, 701568, Note_on_c, 2, 67, 90
4, 701568, Note_on_c, 2, 76, 90
4, 701756, Note_off_c, 2, 70, 64
4, 701756, Note_off_c, 2, 67, 64
4, 701760, Note_on_c, 2, 70, 90
4, 701760, Note_on_c, 2, 67, 90
4, 701948, Note_off_c, 2, 76, 64
4, 701948, Note_off_c, 2, 70, 64
4, 701948, Note_off_c, 2, 67, 64
4, 701952, Note_on_c, 2, 69, 90
4, 701952, Note_on_c, 2, 65, 90
4, 701952, Note_on_c, 2, 77, 90
4, 702140, Note_off_c, 2, 69, 64
4, 702140, Note_off_c, 2, 65, 64
4, 702144, Note_on_c, 2, 69, 90
4, 702144, Note_on_c, 2, 65, 90
4, 702332, Note_off_c, 2, 77, 64
4, 702332, Note_off_c, 2, 69, 64
4, 702332, Note_off_c, 2, 65, 64
4, 702336, Note_on_c, 2, 72, 90
4, 702336, Note_on_c, 2, 69, 90
4, 702336, Note_on_c, 2, 78, 90
4, 702524, Note_off_c, 2, 72, 64
4, 702524, Note_off_c, 2, 69, 64
4, 702528, Note_on_c, 2, 72, 90
4, 702528, Note_on_c, 2, 69, 90
4, 702716, Note_off_c, 2, 78, 64
4, 702716, Note_off_c, 2, 72, 64
4, 702716, Note_off_c, 2, 69, 64
4, 702720, Note_on_c, 2, 71, 90
4, 702720, Note_on_c, 2, 67, 90
4, 702720, Note_on_c, 2, 79, 91
4, 702908, Note_off_c, 2, 71, 64
4, 702908, Note_off_c, 2, 67, 64
4, 702912, Note_on_c, 2, 71, 90
4, 702912, Note_on_c, 2, 67, 90
4, 703100, Note_off_c, 2, 79, 64
4, 703100, Note_off_c, 2, 71, 64
4, 703100, Note_off_c, 2, 67, 64
4, 703104, Note_on_c, 2, 74, 91
4, 703104, Note_on_c, 2, 71, 90
4, 703104, Note_on_c, 2, 80, 90
4, 703292, Note_off_c, 2, 74, 64
4, 703292, Note_off_c, 2, 71, 64
4, 703296, Note_on_c, 2, 74, 90
4, 703296, Note_on_c, 2, 71, 90
4, 703484, Note_off_c, 2, 80, 64
4, 703484, Note_off_c, 2, 74, 64
4, 703484, Note_off_c, 2, 71, 64
4, 703488, Note_on_c, 2, 81, 92
4, 703488, Note_on_c, 2, 72, 90
4, 703488, Note_on_c, 2, 69, 90
4, 703868, Note_off_c, 2, 72, 64
4, 703868, Note_off_c, 2, 69, 64
4, 704348, Note_off_c, 2, 81, 64
4, 704448, Note_on_c, 2, 84, 94
4, 704636, Note_off_c, 2, 84, 64
4, 704640, Note_on_c, 2, 83, 93
4, 704732, Note_off_c, 2, 83, 64
4, 704832, Note_on_c, 2, 81, 92
4, 704924, Note_off_c, 2, 81, 64
4, 705024, Note_on_c, 2, 81, 92
4, 705212, Note_off_c, 2, 81, 64
4, 705216, Note_on_c, 2, 79, 91
4, 705404, Note_off_c, 2, 79, 64
4, 705408, Note_on_c, 2, 77, 90
4, 705500, Note_off_c, 2, 77, 64
4, 705600, Note_on_c, 2, 76, 90
4, 705692, Note_off_c, 2, 76, 64
4, 705792, Note_on_c, 2, 76, 90
4, 705980, Note_off_c, 2, 76, 64
4, 705984, Note_on_c, 2, 74, 90
4, 706172, Note_off_c, 2, 74, 64
4, 706176, Note_on_c, 2, 72, 90
4, 706268, Note_off_c, 2, 72, 64
4, 706368, Note_on_c, 2, 71, 90
4, 706460, Note_off_c, 2, 71, 64
4, 706560, Note_on_c, 2, 84, 94
4, 706560, Note_on_c, 2, 72, 90
4, 706748, Note_off_c, 2, 84, 64
4, 706748, Note_off_c, 2, 72, 64
4, 706944, Note_on_c, 2, 79, 91
4, 706944, Note_on_c, 2, 67, 90
4, 707132, Note_off_c, 2, 79, 64
4, 707132, Note_off_c, 2, 67, 64
4, 707328, Note_on_c, 2, 84, 94
4, 707328, Note_on_c, 2, 72, 90
4, 707516, Note_off_c, 2, 84, 64
4, 707516, Note_off_c, 2, 72, 64
4, 707712, Note_on_c, 2, 88, 96
4, 707712, Note_on_c, 2, 76, 90
4, 707900, Note_off_c, 2, 88, 64
4, 707900, Note_off_c, 2, 76, 64
4, 708096, Note_on_c, 2, 91, 98
4, 708096, Note_on_c, 2, 79, 90
4, 708284, Note_off_c, 2, 91, 64
4, 708284, Note_off_c, 2, 79, 64
4, 708480, Note_on_c, 2, 79, 91
4, 708480, Note_on_c, 2, 67, 90
4, 708764, Note_off_c, 2, 79, 64
4, 708764, Note_off_c, 2, 67, 64
4, 708768, Note_on_c, 2, 79, 98
4, 708768, Note_on_c, 2, 67, 95
4, 708860, Note_off_c, 2, 79, 64
4, 708860, Note_off_c, 2, 67, 64
4, 708864, Note_on_c, 2, 79, 91
4, 708864, Note_on_c, 2, 67, 90
4, 709244, Note_off_c, 2, 79, 64
4, 709244, Note_off_c, 2, 67, 64
4, 709248, Note_on_c, 2, 79, 91
4, 709248, Note_on_c, 2, 67, 90
4, 709628, Note_off_c, 2, 79, 64
4, 709628, Note_off_c, 2, 67, 64
4, 709632, Note_on_c, 2, 89, 97
4, 709632, Note_on_c, 2, 77, 90
4, 709632, Note_on_c, 2, 79, 91
4, 710204, Note_off_c, 2, 89, 64
4, 710204, Note_off_c, 2, 77, 64
4, 710208, Note_on_c, 2, 86, 95
4, 710300, Note_off_c, 2, 86, 64
4, 710304, Note_on_c, 2, 83, 93
4, 710396, Note_off_c, 2, 79, 64
4, 710396, Note_off_c, 2, 83, 64
4, 710400, Note_on_c, 2, 84, 94
4, 710400, Note_on_c, 2, 72, 90
4, 710972, Note_off_c, 2, 84, 64
4, 710976, Note_on_c, 2, 81, 92
4, 711068, Note_off_c, 2, 81, 64
4, 711072, Note_on_c, 2, 78, 90
4, 711164, Note_off_c, 2, 72, 64
4, 711164, Note_off_c, 2, 78, 64
4, 711168, Note_on_c, 2, 79, 91
4, 711168, Note_on_c, 2, 67, 90
4, 711548, Note_off_c, 2, 79, 64
4, 711548, Note_off_c, 2, 67, 64
4, 711552, Note_on_c, 2, 88, 96
4, 711552, Note_on_c, 2, 84, 94
4, 711552, Note_on_c, 2, 79, 91
4, 711552, Note_on_c, 2, 76, 90
4, 711932, Note_off_c, 2, 88, 64
4, 711932, Note_off_c, 2, 84, 64
4, 711932, Note_off_c, 2, 79, 64
4, 711932, Note_off_c, 2, 76, 64
4, 712320, Note_on_c, 2, 86, 95
4, 712320, Note_on_c, 2, 83, 93
4, 712320, Note_on_c, 2, 79, 91
4, 712320, Note_on_c, 2, 74, 90
4, 712700, Note_off_c, 2, 86, 64
4, 712700, Note_off_c, 2, 83, 64
4, 712700, Note_off_c, 2, 79, 64
4, 712700, Note_off_c, 2, 74, 64
4, 712704, Note_on_c, 2, 84, 94
4, 712704, Note_on_c, 2, 76, 90
4, 712704, Note_on_c, 2, 72, 90
4, 713084, Note_off_c, 2, 84, 64
4, 713084, Note_off_c, 2, 76, 64
4, 713084, Note_off_c, 2, 72, 64
4, 713472, Note_on_c, 2, 90, 72
4, 713472, Note_on_c, 2, 87, 70
4, 713472, Note_on_c, 2, 78, 65
4, 713660, Note_off_c, 2, 90, 64
4, 713660, Note_off_c, 2, 87, 64
4, 713660, Note_off_c, 2, 78, 64
4, 713664, Note_on_c, 2, 91, 73
4, 713664, Note_on_c, 2, 79, 71
4, 713664, Note_on_c, 2, 88, 66
4, 713852, Note_off_c, 2, 91, 64
4, 713852, Note_off_c, 2, 79, 64
4, 713852, Note_off_c, 2, 88, 64
4, 713856, Note_on_c, 2, 91, 73
4, 713856, Note_on_c, 2, 88, 71
4, 713856, Note_on_c, 2, 79, 66
4, 713948, Note_off_c, 2, 91, 64
4, 713948, Note_off_c, 2, 88, 64
4, 713948, Note_off_c, 2, 79, 64
4, 714048, Note_on_c, 2, 91, 73
4, 714048, Note_on_c, 2, 88, 71
4, 714048, Note_on_c, 2, 79, 66
4, 714140, Note_off_c, 2, 91, 64
4, 714140, Note_off_c, 2, 88, 64
4, 714140, Note_off_c, 2, 79, 64
4, 714240, Note_on_c, 2, 91, 73
4, 714240, Note_on_c, 2, 88, 71
4, 714240, Note_on_c, 2, 79, 66
4, 714620, Note_off_c, 2, 91, 64
4, 714620, Note_off_c, 2, 88, 64
4, 714620, Note_off_c, 2, 79, 64
4, 715008, Note_on_c, 2, 87, 70
4, 715008, Note_on_c, 2, 83, 68
4, 715008, Note_on_c, 2, 75, 65
4, 715196, Note_off_c, 2, 87, 64
4, 715196, Note_off_c, 2, 83, 64
4, 715196, Note_off_c, 2, 75, 64
4, 715200, Note_on_c, 2, 88, 71
4, 715200, Note_on_c, 2, 84, 69
4, 715200, Note_on_c, 2, 76, 65
4, 715388, Note_off_c, 2, 88, 64
4, 715388, Note_off_c, 2, 84, 64
4, 715388, Note_off_c, 2, 76, 64
4, 715392, Note_on_c, 2, 88, 71
4, 715392, Note_on_c, 2, 84, 69
4, 715392, Note_on_c, 2, 76, 65
4, 715484, Note_off_c, 2, 88, 64
4, 715484, Note_off_c, 2, 84, 64
4, 715484, Note_off_c, 2, 76, 64
4, 715584, Note_on_c, 2, 88, 71
4, 715584, Note_on_c, 2, 84, 69
4, 715584, Note_on_c, 2, 76, 65
4, 715676, Note_off_c, 2, 88, 64
4, 715676, Note_off_c, 2, 84, 64
4, 715676, Note_off_c, 2, 76, 64
4, 715776, Note_on_c, 2, 88, 71
4, 715776, Note_on_c, 2, 84, 69
4, 715776, Note_on_c, 2, 76, 65
4, 716156, Note_off_c, 2, 88, 64
4, 716156, Note_off_c, 2, 84, 64
4, 716156, Note_off_c, 2, 76, 64
4, 716544, Note_on_c, 2, 75, 65
4, 716544, Note_on_c, 2, 71, 65
4, 716544, Note_on_c, 2, 83, 68
4, 716732, Note_off_c, 2, 75, 64
4, 716732, Note_off_c, 2, 71, 64
4, 716732, Note_off_c, 2, 83, 64
4, 716736, Note_on_c, 2, 84, 69
4, 716736, Note_on_c, 2, 76, 65
4, 716736, Note_on_c, 2, 72, 65
4, 716924, Note_off_c, 2, 84, 64
4, 716924, Note_off_c, 2, 76, 64
4, 716924, Note_off_c, 2, 72, 64
4, 716928, Note_on_c, 2, 84, 69
4, 716928, Note_on_c, 2, 76, 65
4, 716928, Note_on_c, 2, 72, 65
4, 717020, Note_off_c, 2, 84, 64
4, 717020, Note_off_c, 2, 76, 64
4, 717020, Note_off_c, 2, 72, 64
4, 717120, Note_on_c, 2, 84, 69
4, 717120, Note_on_c, 2, 76, 65
4, 717120, Note_on_c, 2, 72, 65
4, 717212, Note_off_c, 2, 84, 64
4, 717212, Note_off_c, 2, 76, 64
4, 717212, Note_off_c, 2, 72, 64
4, 717312, Note_on_c, 2, 84, 69
4, 717312, Note_on_c, 2, 76, 65
4, 717312, Note_on_c, 2, 72, 65
4, 717500, Note_off_c, 2, 84, 64
4, 717500, Note_off_c, 2, 76, 64
4, 717500, Note_off_c, 2, 72, 64
4, 717696, Note_on_c, 2, 84, 69
4, 717696, Note_on_c, 2, 76, 65
4, 717696, Note_on_c, 2, 72, 65
4, 717884, Note_off_c, 2, 84, 64
4, 717884, Note_off_c, 2, 76, 64
4, 717884, Note_off_c, 2, 72, 64
4, 718080, Note_on_c, 2, 84, 69
4, 718080, Note_on_c, 2, 76, 65
4, 718080, Note_on_c, 2, 72, 65
4, 718268, Note_off_c, 2, 84, 64
4, 718268, Note_off_c, 2, 76, 64
4, 718268, Note_off_c, 2, 72, 64
4, 718464, Note_on_c, 2, 84, 69
4, 718464, Note_on_c, 2, 76, 65
4, 718464, Note_on_c, 2, 72, 65
4, 718652, Note_off_c, 2, 84, 64
4, 718652, Note_off_c, 2, 76, 64
4, 718652, Note_off_c, 2, 72, 64
4, 718848, Note_on_c, 2, 84, 69
4, 718848, Note_on_c, 2, 76, 65
4, 718848, Note_on_c, 2, 72, 65
4, 719224, Note_off_c, 2, 84, 64
4, 719228, Note_off_c, 2, 76, 64
4, 719232, Note_off_c, 2, 72, 64
4, 719232, End_track
5, 0, Start_track
5, 0, Title_t, "B.Fisher"
5, 0, Control_c, 3, 0, 0
5, 0, Program_c, 3, 48
5, 0, Control_c, 3, 10, 94
5, 0, Control_c, 3, 91, 67
5, 0, Control_c, 3, 93, 68
5, 0, Key_signature, 0, "major"
5, 0, Control_c, 3, 121, 0
5, 384, Control_c, 3, 10, 73
5, 480, Control_c, 3, 91, 63
5, 768, Program_c, 3, 48
5, 1536, Note_on_c, 3, 48, 62
5, 1536, Note_on_c, 3, 36, 66
5, 1724, Note_off_c, 3, 48, 61
5, 1724, Note_off_c, 3, 36, 61
5, 1920, Note_on_c, 3, 43, 62
5, 1920, Note_on_c, 3, 31, 69
5, 2108, Note_off_c, 3, 43, 61
5, 2108, Note_off_c, 3, 31, 61
5, 2304, Note_on_c, 3, 48, 62
5, 2304, Note_on_c, 3, 36, 66
5, 2492, Note_off_c, 3, 48, 61
5, 2492, Note_off_c, 3, 36, 61
5, 2688, Note_on_c, 3, 40, 64
5, 2876, Note_off_c, 3, 40, 61
5, 3072, Note_on_c, 3, 41, 63
5, 3644, Note_off_c, 3, 41, 61
5, 3648, Note_on_c, 3, 40, 70
5, 3704, Note_off_c, 3, 40, 61
5, 3712, Note_on_c, 3, 38, 71
5, 3768, Note_off_c, 3, 38, 61
5, 3776, Note_on_c, 3, 36, 72
5, 3832, Note_off_c, 3, 36, 61
5, 3840, Note_on_c, 3, 47, 62
5, 3840, Note_on_c, 3, 35, 72
5, 4220, Note_off_c, 3, 47, 61
5, 4220, Note_off_c, 3, 35, 61
5, 4512, Note_on_c, 3, 43, 63
5, 4512, Note_on_c, 3, 31, 70
5, 4604, Note_off_c, 3, 43, 61
5, 4604, Note_off_c, 3, 31, 61
5, 4608, Note_on_c, 3, 47, 62
5, 4608, Note_on_c, 3, 35, 68
5, 4796, Note_off_c, 3, 47, 61
5, 4796, Note_off_c, 3, 35, 61
5, 4992, Note_on_c, 3, 50, 62
5, 4992, Note_on_c, 3, 38, 66
5, 5180, Note_off_c, 3, 50, 61
5, 5180, Note_off_c, 3, 38, 61
5, 5376, Note_on_c, 3, 53, 62
5, 5376, Note_on_c, 3, 41, 63
5, 5564, Note_off_c, 3, 53, 61
5, 5564, Note_off_c, 3, 41, 61
5, 5760, Note_on_c, 3, 50, 62
5, 5760, Note_on_c, 3, 38, 66
5, 5948, Note_off_c, 3, 50, 61
5, 5948, Note_off_c, 3, 38, 61
5, 6144, Note_on_c, 3, 55, 62
5, 6144, Note_on_c, 3, 43, 63
5, 6716, Note_off_c, 3, 55, 61
5, 6716, Note_off_c, 3, 43, 61
5, 6720, Note_on_c, 3, 45, 68
5, 6776, Note_off_c, 3, 45, 61
5, 6784, Note_on_c, 3, 43, 69
5, 6840, Note_off_c, 3, 43, 61
5, 6848, Note_on_c, 3, 41, 70
5, 6904, Note_off_c, 3, 41, 61
5, 6912, Note_on_c, 3, 40, 71
5, 6912, Note_on_c, 3, 52, 62
5, 7292, Note_off_c, 3, 40, 61
5, 7292, Note_off_c, 3, 52, 61
5, 7872, Note_on_c, 3, 60, 62
5, 7872, Note_on_c, 3, 52, 62
5, 7872, Note_on_c, 3, 48, 62
5, 8060, Note_off_c, 3, 60, 61
5, 8060, Note_off_c, 3, 52, 61
5, 8060, Note_off_c, 3, 48, 61
5, 8064, Note_on_c, 3, 60, 62
5, 8064, Note_on_c, 3, 52, 62
5, 8064, Note_on_c, 3, 48, 62
5, 8252, Note_off_c, 3, 60, 61
5, 8252, Note_off_c, 3, 52, 61
5, 8252, Note_off_c, 3, 48, 61
5, 8256, Note_on_c, 3, 60, 62
5, 8256, Note_on_c, 3, 52, 62
5, 8256, Note_on_c, 3, 48, 62
5, 8444, Note_off_c, 3, 60, 61
5, 8444, Note_off_c, 3, 52, 61
5, 8444, Note_off_c, 3, 48, 61
5, 8448, Note_on_c, 3, 60, 62
5, 8448, Note_on_c, 3, 52, 62
5, 8448, Note_on_c, 3, 48, 62
5, 8828, Note_off_c, 3, 60, 61
5, 8828, Note_off_c, 3, 52, 61
5, 8828, Note_off_c, 3, 48, 61
5, 9408, Note_on_c, 3, 55, 62
5, 9408, Note_on_c, 3, 50, 62
5, 9408, Note_on_c, 3, 43, 63
5, 9596, Note_off_c, 3, 55, 61
5, 9596, Note_off_c, 3, 50, 61
5, 9596, Note_off_c, 3, 43, 61
5, 9600, Note_on_c, 3, 55, 62
5, 9600, Note_on_c, 3, 50, 62
5, 9600, Note_on_c, 3, 43, 63
5, 9788, Note_off_c, 3, 55, 61
5, 9788, Note_off_c, 3, 50, 61
5, 9788, Note_off_c, 3, 43, 61
5, 9792, Note_on_c, 3, 55, 62
5, 9792, Note_on_c, 3, 50, 62
5, 9792, Note_on_c, 3, 43, 63
5, 9980, Note_off_c, 3, 55, 61
5, 9980, Note_off_c, 3, 50, 61
5, 9980, Note_off_c, 3, 43, 61
5, 9984, Note_on_c, 3, 55, 62
5, 9984, Note_on_c, 3, 50, 62
5, 9984, Note_on_c, 3, 43, 63
5, 10364, Note_off_c, 3, 55, 61
5, 10364, Note_off_c, 3, 50, 61
5, 10364, Note_off_c, 3, 43, 61
5, 10752, Note_on_c, 3, 60, 62
5, 10752, Note_on_c, 3, 55, 62
5, 10752, Note_on_c, 3, 52, 62
5, 10752, Note_on_c, 3, 48, 62
5, 11132, Note_off_c, 3, 60, 61
5, 11132, Note_off_c, 3, 55, 61
5, 11132, Note_off_c, 3, 52, 61
5, 11132, Note_off_c, 3, 48, 61
5, 11136, Note_on_c, 3, 52, 62
5, 11136, Note_on_c, 3, 48, 62
5, 11136, Note_on_c, 3, 60, 62
5, 11136, Note_on_c, 3, 55, 62
5, 11420, Note_off_c, 3, 52, 61
5, 11420, Note_off_c, 3, 48, 61
5, 11420, Note_off_c, 3, 60, 61
5, 11420, Note_off_c, 3, 55, 61
5, 11424, Note_on_c, 3, 60, 72
5, 11424, Note_on_c, 3, 48, 72
5, 11424, Note_on_c, 3, 55, 72
5, 11424, Note_on_c, 3, 52, 72
5, 11512, Note_off_c, 3, 60, 61
5, 11512, Note_off_c, 3, 48, 61
5, 11512, Note_off_c, 3, 55, 61
5, 11512, Note_off_c, 3, 52, 61
5, 11520, Note_on_c, 3, 55, 62
5, 11520, Note_on_c, 3, 43, 63
5, 11900, Note_off_c, 3, 55, 61
5, 11900, Note_off_c, 3, 43, 61
5, 11904, Note_on_c, 3, 55, 62
5, 11904, Note_on_c, 3, 43, 63
5, 12188, Note_off_c, 3, 55, 61
5, 12188, Note_off_c, 3, 43, 61
5, 12192, Note_on_c, 3, 55, 72
5, 12192, Note_on_c, 3, 43, 72
5, 12280, Note_off_c, 3, 55, 61
5, 12280, Note_off_c, 3, 43, 61
5, 12288, Note_on_c, 3, 60, 62
5, 12288, Note_on_c, 3, 48, 62
5, 12668, Note_off_c, 3, 60, 61
5, 12668, Note_off_c, 3, 48, 61
5, 12672, Note_on_c, 3, 59, 62
5, 12672, Note_on_c, 3, 47, 62
5, 12764, Note_off_c, 3, 59, 61
5, 12764, Note_off_c, 3, 47, 61
5, 12864, Note_on_c, 3, 60, 62
5, 12864, Note_on_c, 3, 48, 62
5, 12956, Note_off_c, 3, 60, 61
5, 12956, Note_off_c, 3, 48, 61
5, 13056, Note_on_c, 3, 55, 62
5, 13056, Note_on_c, 3, 43, 63
5, 13436, Note_off_c, 3, 55, 61
5, 13436, Note_off_c, 3, 43, 61
5, 14016, Note_on_c, 3, 52, 62
5, 14016, Note_on_c, 3, 60, 62
5, 14016, Note_on_c, 3, 48, 62
5, 14204, Note_off_c, 3, 52, 61
5, 14204, Note_off_c, 3, 60, 61
5, 14204, Note_off_c, 3, 48, 61
5, 14208, Note_on_c, 3, 60, 62
5, 14208, Note_on_c, 3, 52, 62
5, 14208, Note_on_c, 3, 48, 62
5, 14396, Note_off_c, 3, 60, 61
5, 14396, Note_off_c, 3, 52, 61
5, 14396, Note_off_c, 3, 48, 61
5, 14400, Note_on_c, 3, 60, 62
5, 14400, Note_on_c, 3, 52, 62
5, 14400, Note_on_c, 3, 48, 62
5, 14588, Note_off_c, 3, 60, 61
5, 14588, Note_off_c, 3, 52, 61
5, 14588, Note_off_c, 3, 48, 61
5, 14592, Note_on_c, 3, 60, 62
5, 14592, Note_on_c, 3, 52, 62
5, 14592, Note_on_c, 3, 48, 62
5, 14972, Note_off_c, 3, 60, 61
5, 14972, Note_off_c, 3, 52, 61
5, 14972, Note_off_c, 3, 48, 61
5, 15552, Note_on_c, 3, 55, 62
5, 15552, Note_on_c, 3, 50, 62
5, 15552, Note_on_c, 3, 43, 62
5, 15740, Note_off_c, 3, 55, 61
5, 15740, Note_off_c, 3, 50, 61
5, 15740, Note_off_c, 3, 43, 61
5, 15744, Note_on_c, 3, 55, 62
5, 15744, Note_on_c, 3, 50, 62
5, 15744, Note_on_c, 3, 43, 62
5, 15932, Note_off_c, 3, 55, 61
5, 15932, Note_off_c, 3, 50, 61
5, 15932, Note_off_c, 3, 43, 61
5, 15936, Note_on_c, 3, 55, 62
5, 15936, Note_on_c, 3, 50, 62
5, 15936, Note_on_c, 3, 43, 62
5, 16124, Note_off_c, 3, 55, 61
5, 16124, Note_off_c, 3, 50, 61
5, 16124, Note_off_c, 3, 43, 61
5, 16128, Note_on_c, 3, 55, 62
5, 16128, Note_on_c, 3, 50, 62
5, 16128, Note_on_c, 3, 43, 62
5, 16508, Note_off_c, 3, 55, 61
5, 16508, Note_off_c, 3, 50, 61
5, 16508, Note_off_c, 3, 43, 61
5, 16896, Note_on_c, 3, 60, 62
5, 16896, Note_on_c, 3, 55, 62
5, 16896, Note_on_c, 3, 52, 62
5, 16896, Note_on_c, 3, 48, 62
5, 17276, Note_off_c, 3, 60, 61
5, 17276, Note_off_c, 3, 55, 61
5, 17276, Note_off_c, 3, 52, 61
5, 17276, Note_off_c, 3, 48, 61
5, 17280, Note_on_c, 3, 55, 62
5, 17280, Note_on_c, 3, 52, 62
5, 17280, Note_on_c, 3, 48, 62
5, 17280, Note_on_c, 3, 60, 62
5, 17564, Note_off_c, 3, 55, 61
5, 17564, Note_off_c, 3, 52, 61
5, 17564, Note_off_c, 3, 48, 61
5, 17564, Note_off_c, 3, 60, 61
5, 17568, Note_on_c, 3, 60, 62
5, 17568, Note_on_c, 3, 55, 62
5, 17568, Note_on_c, 3, 52, 62
5, 17568, Note_on_c, 3, 48, 62
5, 17660, Note_off_c, 3, 60, 61
5, 17660, Note_off_c, 3, 55, 61
5, 17660, Note_off_c, 3, 52, 61
5, 17660, Note_off_c, 3, 48, 61
5, 17664, Note_on_c, 3, 55, 62
5, 17664, Note_on_c, 3, 43, 63
5, 18044, Note_off_c, 3, 55, 61
5, 18044, Note_off_c, 3, 43, 61
5, 18048, Note_on_c, 3, 55, 62
5, 18048, Note_on_c, 3, 43, 63
5, 18428, Note_off_c, 3, 55, 61
5, 18428, Note_off_c, 3, 43, 61
5, 18432, Note_on_c, 3, 48, 82
5, 18432, Note_on_c, 3, 36, 85
5, 18620, Note_off_c, 3, 48, 61
5, 18620, Note_off_c, 3, 36, 61
5, 18816, Note_on_c, 3, 43, 83
5, 18816, Note_on_c, 3, 31, 88
5, 19004, Note_off_c, 3, 43, 61
5, 19004, Note_off_c, 3, 31, 61
5, 19200, Note_on_c, 3, 36, 85
5, 19200, Note_on_c, 3, 48, 82
5, 19388, Note_off_c, 3, 36, 61
5, 19388, Note_off_c, 3, 48, 61
5, 19584, Note_on_c, 3, 52, 82
5, 19584, Note_on_c, 3, 40, 84
5, 19772, Note_off_c, 3, 52, 61
5, 19772, Note_off_c, 3, 40, 61
5, 19968, Note_on_c, 3, 55, 82
5, 19968, Note_on_c, 3, 53, 82
5, 19968, Note_on_c, 3, 41, 83
5, 20540, Note_off_c, 3, 53, 61
5, 20540, Note_off_c, 3, 41, 61
5, 20544, Note_on_c, 3, 52, 82
5, 20604, Note_off_c, 3, 52, 61
5, 20608, Note_on_c, 3, 50, 82
5, 20668, Note_off_c, 3, 50, 61
5, 20672, Note_on_c, 3, 48, 82
5, 20732, Note_off_c, 3, 55, 61
5, 20732, Note_off_c, 3, 48, 61
5, 20736, Note_on_c, 3, 55, 82
5, 20736, Note_on_c, 3, 47, 82
5, 21116, Note_off_c, 3, 55, 61
5, 21116, Note_off_c, 3, 47, 61
5, 21120, Note_on_c, 3, 55, 82
5, 21408, Note_on_c, 3, 43, 82
5, 21500, Note_off_c, 3, 55, 61
5, 21500, Note_off_c, 3, 43, 61
5, 21504, Note_on_c, 3, 55, 82
5, 21504, Note_on_c, 3, 47, 82
5, 21692, Note_off_c, 3, 47, 61
5, 21884, Note_off_c, 3, 55, 61
5, 21888, Note_on_c, 3, 50, 82
5, 21888, Note_on_c, 3, 38, 84
5, 22076, Note_off_c, 3, 50, 61
5, 22076, Note_off_c, 3, 38, 61
5, 22272, Note_on_c, 3, 53, 82
5, 22272, Note_on_c, 3, 41, 83
5, 22460, Note_off_c, 3, 53, 61
5, 22460, Note_off_c, 3, 41, 61
5, 22656, Note_on_c, 3, 50, 82
5, 22656, Note_on_c, 3, 38, 84
5, 22844, Note_off_c, 3, 50, 61
5, 22844, Note_off_c, 3, 38, 61
5, 23040, Note_on_c, 3, 55, 82
5, 23040, Note_on_c, 3, 43, 83
5, 23612, Note_off_c, 3, 55, 61
5, 23612, Note_off_c, 3, 43, 61
5, 23616, Note_on_c, 3, 57, 89
5, 23672, Note_off_c, 3, 57, 61
5, 23680, Note_on_c, 3, 55, 88
5, 23736, Note_off_c, 3, 55, 61
5, 23744, Note_on_c, 3, 53, 87
5, 23800, Note_off_c, 3, 53, 61
5, 23808, Note_on_c, 3, 52, 86
5, 23808, Note_on_c, 3, 40, 89
5, 24188, Note_off_c, 3, 52, 61
5, 24188, Note_off_c, 3, 40, 61
5, 24480, Note_on_c, 3, 55, 82
5, 24480, Note_on_c, 3, 43, 83
5, 24572, Note_off_c, 3, 55, 61
5, 24572, Note_off_c, 3, 43, 61
5, 24576, Note_on_c, 3, 48, 82
5, 24576, Note_on_c, 3, 36, 85
5, 24764, Note_off_c, 3, 48, 61
5, 24764, Note_off_c, 3, 36, 61
5, 24960, Note_on_c, 3, 52, 82
5, 24960, Note_on_c, 3, 40, 84
5, 25148, Note_off_c, 3, 52, 61
5, 25148, Note_off_c, 3, 40, 61
5, 25344, Note_on_c, 3, 57, 82
5, 25344, Note_on_c, 3, 45, 82
5, 25532, Note_off_c, 3, 57, 61
5, 25532, Note_off_c, 3, 45, 61
5, 25728, Note_on_c, 3, 60, 82
5, 25728, Note_on_c, 3, 48, 82
5, 25916, Note_off_c, 3, 60, 61
5, 25916, Note_off_c, 3, 48, 61
5, 26112, Note_on_c, 3, 56, 82
5, 26112, Note_on_c, 3, 44, 82
5, 26684, Note_off_c, 3, 56, 61
5, 26684, Note_off_c, 3, 44, 61
5, 26688, Note_on_c, 3, 57, 86
5, 26744, Note_off_c, 3, 57, 61
5, 26752, Note_on_c, 3, 56, 86
5, 26808, Note_off_c, 3, 56, 61
5, 26816, Note_on_c, 3, 54, 86
5, 26872, Note_off_c, 3, 54, 61
5, 26880, Note_on_c, 3, 52, 82
5, 26880, Note_on_c, 3, 40, 86
5, 27260, Note_off_c, 3, 52, 61
5, 27260, Note_off_c, 3, 40, 61
5, 27552, Note_on_c, 3, 56, 82
5, 27552, Note_on_c, 3, 44, 82
5, 27644, Note_off_c, 3, 56, 61
5, 27644, Note_off_c, 3, 44, 61
5, 27648, Note_on_c, 3, 57, 82
5, 27648, Note_on_c, 3, 45, 82
5, 27836, Note_off_c, 3, 57, 61
5, 27836, Note_off_c, 3, 45, 61
5, 28032, Note_on_c, 3, 52, 82
5, 28032, Note_on_c, 3, 40, 84
5, 28220, Note_off_c, 3, 52, 61
5, 28220, Note_off_c, 3, 40, 61
5, 28416, Note_on_c, 3, 60, 82
5, 28416, Note_on_c, 3, 48, 82
5, 28604, Note_off_c, 3, 60, 61
5, 28604, Note_off_c, 3, 48, 61
5, 28800, Note_on_c, 3, 57, 82
5, 28800, Note_on_c, 3, 45, 82
5, 28988, Note_off_c, 3, 57, 61
5, 28988, Note_off_c, 3, 45, 61
5, 29184, Note_on_c, 3, 54, 82
5, 29184, Note_on_c, 3, 42, 82
5, 29756, Note_off_c, 3, 54, 61
5, 29756, Note_off_c, 3, 42, 61
5, 29760, Note_on_c, 3, 55, 86
5, 29816, Note_off_c, 3, 55, 61
5, 29824, Note_on_c, 3, 54, 86
5, 29880, Note_off_c, 3, 54, 61
5, 29888, Note_on_c, 3, 52, 86
5, 29944, Note_off_c, 3, 52, 61
5, 29952, Note_on_c, 3, 50, 82
5, 29952, Note_on_c, 3, 38, 89
5, 30332, Note_off_c, 3, 50, 61
5, 30332, Note_off_c, 3, 38, 61
5, 30624, Note_on_c, 3, 66, 82
5, 30624, Note_on_c, 3, 54, 82
5, 30716, Note_off_c, 3, 66, 61
5, 30716, Note_off_c, 3, 54, 61
5, 30720, Note_on_c, 3, 67, 82
5, 30720, Note_on_c, 3, 55, 82
5, 30908, Note_off_c, 3, 55, 61
5, 30912, Note_on_c, 3, 55, 82
5, 31100, Note_off_c, 3, 55, 61
5, 31104, Note_on_c, 3, 55, 82
5, 31292, Note_off_c, 3, 55, 61
5, 31296, Note_on_c, 3, 55, 82
5, 31484, Note_off_c, 3, 55, 61
5, 31488, Note_on_c, 3, 55, 82
5, 31676, Note_off_c, 3, 55, 61
5, 31680, Note_on_c, 3, 55, 82
5, 31868, Note_off_c, 3, 55, 61
5, 31872, Note_on_c, 3, 55, 82
5, 32060, Note_off_c, 3, 55, 61
5, 32064, Note_on_c, 3, 55, 82
5, 32252, Note_off_c, 3, 67, 61
5, 32252, Note_off_c, 3, 55, 61
5, 32256, Note_on_c, 3, 66, 82
5, 32256, Note_on_c, 3, 57, 82
5, 32256, Note_on_c, 3, 55, 82
5, 32444, Note_off_c, 3, 55, 61
5, 32448, Note_on_c, 3, 55, 82
5, 32636, Note_off_c, 3, 55, 61
5, 32640, Note_on_c, 3, 55, 82
5, 32828, Note_off_c, 3, 55, 61
5, 32832, Note_on_c, 3, 55, 82
5, 33020, Note_off_c, 3, 55, 61
5, 33024, Note_on_c, 3, 55, 82
5, 33212, Note_off_c, 3, 55, 61
5, 33216, Note_on_c, 3, 55, 82
5, 33404, Note_off_c, 3, 55, 61
5, 33408, Note_on_c, 3, 55, 82
5, 33596, Note_off_c, 3, 55, 61
5, 33600, Note_on_c, 3, 55, 82
5, 33788, Note_off_c, 3, 66, 61
5, 33788, Note_off_c, 3, 57, 61
5, 33788, Note_off_c, 3, 55, 61
5, 33792, Note_on_c, 3, 55, 82
5, 33792, Note_on_c, 3, 65, 82
5, 33792, Note_on_c, 3, 59, 82
5, 33980, Note_off_c, 3, 55, 61
5, 33984, Note_on_c, 3, 55, 82
5, 34172, Note_off_c, 3, 55, 61
5, 34176, Note_on_c, 3, 55, 82
5, 34364, Note_off_c, 3, 55, 61
5, 34368, Note_on_c, 3, 55, 82
5, 34556, Note_off_c, 3, 55, 61
5, 34560, Note_on_c, 3, 55, 82
5, 34748, Note_off_c, 3, 55, 61
5, 34752, Note_on_c, 3, 55, 82
5, 34940, Note_off_c, 3, 55, 61
5, 34944, Note_on_c, 3, 55, 82
5, 35132, Note_off_c, 3, 55, 61
5, 35136, Note_on_c, 3, 55, 82
5, 35324, Note_off_c, 3, 65, 61
5, 35324, Note_off_c, 3, 59, 61
5, 35324, Note_off_c, 3, 55, 61
5, 35328, Note_on_c, 3, 55, 82
5, 35328, Note_on_c, 3, 64, 82
5, 35328, Note_on_c, 3, 60, 82
5, 35516, Note_off_c, 3, 55, 61
5, 35520, Note_on_c, 3, 55, 82
5, 35708, Note_off_c, 3, 55, 61
5, 35712, Note_on_c, 3, 55, 82
5, 35900, Note_off_c, 3, 55, 61
5, 35904, Note_on_c, 3, 55, 82
5, 36092, Note_off_c, 3, 55, 61
5, 36096, Note_on_c, 3, 55, 82
5, 36284, Note_off_c, 3, 55, 61
5, 36288, Note_on_c, 3, 55, 82
5, 36476, Note_off_c, 3, 55, 61
5, 36480, Note_on_c, 3, 55, 82
5, 36668, Note_off_c, 3, 55, 61
5, 36672, Note_on_c, 3, 55, 82
5, 36860, Note_off_c, 3, 64, 61
5, 36860, Note_off_c, 3, 60, 61
5, 36860, Note_off_c, 3, 55, 61
5, 36864, Note_on_c, 3, 55, 82
5, 36864, Note_on_c, 3, 65, 82
5, 36864, Note_on_c, 3, 62, 82
5, 37052, Note_off_c, 3, 55, 61
5, 37056, Note_on_c, 3, 55, 82
5, 37244, Note_off_c, 3, 55, 61
5, 37248, Note_on_c, 3, 55, 82
5, 37436, Note_off_c, 3, 65, 61
5, 37436, Note_off_c, 3, 62, 61
5, 37436, Note_off_c, 3, 55, 61
5, 37440, Note_on_c, 3, 55, 82
5, 37440, Note_on_c, 3, 64, 82
5, 37440, Note_on_c, 3, 61, 82
5, 37628, Note_off_c, 3, 55, 61
5, 37628, Note_off_c, 3, 64, 61
5, 37628, Note_off_c, 3, 61, 61
5, 37632, Note_on_c, 3, 55, 82
5, 37632, Note_on_c, 3, 65, 82
5, 37632, Note_on_c, 3, 62, 82
5, 37820, Note_off_c, 3, 55, 61
5, 37824, Note_on_c, 3, 55, 82
5, 38012, Note_off_c, 3, 55, 61
5, 38016, Note_on_c, 3, 55, 82
5, 38204, Note_off_c, 3, 65, 61
5, 38204, Note_off_c, 3, 62, 61
5, 38204, Note_off_c, 3, 55, 61
5, 38208, Note_on_c, 3, 55, 82
5, 38208, Note_on_c, 3, 64, 82
5, 38208, Note_on_c, 3, 61, 82
5, 38396, Note_off_c, 3, 55, 61
5, 38396, Note_off_c, 3, 64, 61
5, 38396, Note_off_c, 3, 61, 61
5, 38400, Note_on_c, 3, 55, 82
5, 38400, Note_on_c, 3, 62, 82
5, 38400, Note_on_c, 3, 65, 82
5, 38588, Note_off_c, 3, 55, 61
5, 38588, Note_off_c, 3, 62, 61
5, 38588, Note_off_c, 3, 65, 61
5, 38592, Note_on_c, 3, 55, 82
5, 38592, Note_on_c, 3, 61, 82
5, 38592, Note_on_c, 3, 64, 82
5, 38780, Note_off_c, 3, 55, 61
5, 38780, Note_off_c, 3, 61, 61
5, 38780, Note_off_c, 3, 64, 61
5, 38784, Note_on_c, 3, 55, 82
5, 38784, Note_on_c, 3, 65, 82
5, 38784, Note_on_c, 3, 62, 82
5, 38972, Note_off_c, 3, 55, 61
5, 38972, Note_off_c, 3, 65, 61
5, 38972, Note_off_c, 3, 62, 61
5, 38976, Note_on_c, 3, 55, 82
5, 38976, Note_on_c, 3, 61, 82
5, 38976, Note_on_c, 3, 64, 82
5, 39164, Note_off_c, 3, 55, 61
5, 39164, Note_off_c, 3, 61, 61
5, 39164, Note_off_c, 3, 64, 61
5, 39168, Note_on_c, 3, 62, 82
5, 39168, Note_on_c, 3, 65, 82
5, 39168, Note_on_c, 3, 55, 82
5, 39356, Note_off_c, 3, 62, 61
5, 39356, Note_off_c, 3, 65, 61
5, 39356, Note_off_c, 3, 55, 61
5, 39360, Note_on_c, 3, 55, 82
5, 39360, Note_on_c, 3, 64, 82
5, 39360, Note_on_c, 3, 61, 82
5, 39548, Note_off_c, 3, 55, 61
5, 39548, Note_off_c, 3, 64, 61
5, 39548, Note_off_c, 3, 61, 61
5, 39552, Note_on_c, 3, 55, 82
5, 39552, Note_on_c, 3, 62, 82
5, 39552, Note_on_c, 3, 65, 82
5, 39740, Note_off_c, 3, 55, 61
5, 39740, Note_off_c, 3, 62, 61
5, 39740, Note_off_c, 3, 65, 61
5, 39744, Note_on_c, 3, 55, 82
5, 39744, Note_on_c, 3, 61, 82
5, 39744, Note_on_c, 3, 64, 82
5, 39932, Note_off_c, 3, 55, 61
5, 39932, Note_off_c, 3, 61, 61
5, 39932, Note_off_c, 3, 64, 61
5, 39936, Note_on_c, 3, 62, 82
5, 39936, Note_on_c, 3, 65, 82
5, 39936, Note_on_c, 3, 55, 82
5, 40316, Note_off_c, 3, 62, 61
5, 40316, Note_off_c, 3, 65, 61
5, 41472, Note_on_c, 3, 62, 62
5, 41472, Note_on_c, 3, 65, 62
5, 41564, Note_off_c, 3, 62, 61
5, 41564, Note_off_c, 3, 65, 61
5, 41664, Note_on_c, 3, 60, 62
5, 41664, Note_on_c, 3, 64, 62
5, 41756, Note_off_c, 3, 60, 61
5, 41756, Note_off_c, 3, 64, 61
5, 41856, Note_on_c, 3, 59, 62
5, 41856, Note_on_c, 3, 62, 62
5, 41948, Note_off_c, 3, 59, 61
5, 41948, Note_off_c, 3, 62, 61
5, 42048, Note_on_c, 3, 57, 62
5, 42048, Note_on_c, 3, 60, 62
5, 42140, Note_off_c, 3, 57, 61
5, 42140, Note_off_c, 3, 60, 61
5, 42236, Note_off_c, 3, 55, 61
5, 42240, Note_on_c, 3, 55, 62
5, 42240, Note_on_c, 3, 59, 62
5, 42332, Note_off_c, 3, 55, 61
5, 42332, Note_off_c, 3, 59, 61
5, 42432, Note_on_c, 3, 53, 62
5, 42432, Note_on_c, 3, 57, 62
5, 42524, Note_off_c, 3, 53, 61
5, 42524, Note_off_c, 3, 57, 61
5, 42624, Note_on_c, 3, 52, 62
5, 42624, Note_on_c, 3, 55, 62
5, 42716, Note_off_c, 3, 52, 61
5, 42716, Note_off_c, 3, 55, 61
5, 42816, Note_on_c, 3, 50, 62
5, 42816, Note_on_c, 3, 53, 62
5, 42908, Note_off_c, 3, 50, 61
5, 42908, Note_off_c, 3, 53, 61
5, 43008, Note_on_c, 3, 55, 62
5, 43008, Note_on_c, 3, 52, 62
5, 43008, Note_on_c, 3, 48, 62
5, 43388, Note_off_c, 3, 48, 61
5, 43392, Note_on_c, 3, 48, 62
5, 43772, Note_off_c, 3, 55, 61
5, 43772, Note_off_c, 3, 52, 61
5, 43772, Note_off_c, 3, 48, 61
5, 43776, Note_on_c, 3, 48, 62
5, 43776, Note_on_c, 3, 52, 62
5, 44156, Note_off_c, 3, 48, 61
5, 44156, Note_off_c, 3, 52, 61
5, 44160, Note_on_c, 3, 48, 62
5, 44540, Note_off_c, 3, 48, 61
5, 44544, Note_on_c, 3, 48, 62
5, 44924, Note_off_c, 3, 48, 61
5, 44928, Note_on_c, 3, 48, 62
5, 45308, Note_off_c, 3, 48, 61
5, 45312, Note_on_c, 3, 48, 62
5, 45692, Note_off_c, 3, 48, 61
5, 45696, Note_on_c, 3, 48, 62
5, 46076, Note_off_c, 3, 48, 61
5, 46080, Note_on_c, 3, 62, 62
5, 46080, Note_on_c, 3, 59, 62
5, 46080, Note_on_c, 3, 55, 62
5, 47228, Note_off_c, 3, 62, 61
5, 47228, Note_off_c, 3, 59, 61
5, 47232, Note_on_c, 3, 64, 62
5, 47232, Note_on_c, 3, 60, 62
5, 47612, Note_off_c, 3, 55, 61
5, 47612, Note_off_c, 3, 64, 61
5, 47612, Note_off_c, 3, 60, 61
5, 47616, Note_on_c, 3, 43, 63
5, 47628, Note_on_c, 3, 62, 62
5, 47644, Note_on_c, 3, 65, 62
5, 48000, Note_on_c, 3, 62, 62
5, 48000, Note_on_c, 3, 59, 62
5, 48008, Note_off_c, 3, 62, 61
5, 48024, Note_off_c, 3, 65, 61
5, 48380, Note_off_c, 3, 62, 61
5, 48380, Note_off_c, 3, 59, 61
5, 48384, Note_on_c, 3, 59, 62
5, 48384, Note_on_c, 3, 55, 62
5, 48764, Note_off_c, 3, 59, 61
5, 48764, Note_off_c, 3, 55, 61
5, 48768, Note_on_c, 3, 59, 62
5, 48768, Note_on_c, 3, 62, 62
5, 49148, Note_off_c, 3, 43, 61
5, 49148, Note_off_c, 3, 59, 61
5, 49148, Note_off_c, 3, 62, 61
5, 49152, Note_on_c, 3, 60, 62
5, 49152, Note_on_c, 3, 48, 62
5, 49152, Note_on_c, 3, 55, 62
5, 49152, Note_on_c, 3, 52, 62
5, 49532, Note_off_c, 3, 60, 61
5, 49532, Note_off_c, 3, 48, 61
5, 49536, Note_on_c, 3, 48, 62
5, 49916, Note_off_c, 3, 55, 61
5, 49916, Note_off_c, 3, 52, 61
5, 49916, Note_off_c, 3, 48, 61
5, 49920, Note_on_c, 3, 48, 62
5, 49920, Note_on_c, 3, 52, 62
5, 50300, Note_off_c, 3, 48, 61
5, 50300, Note_off_c, 3, 52, 61
5, 50304, Note_on_c, 3, 48, 62
5, 50684, Note_off_c, 3, 48, 61
5, 50688, Note_on_c, 3, 48, 62
5, 50688, Note_on_c, 3, 55, 62
5, 50688, Note_on_c, 3, 64, 62
5, 51068, Note_off_c, 3, 48, 61
5, 51072, Note_on_c, 3, 48, 62
5, 51452, Note_off_c, 3, 55, 61
5, 51452, Note_off_c, 3, 64, 61
5, 51452, Note_off_c, 3, 48, 61
5, 51456, Note_on_c, 3, 48, 62
5, 51456, Note_on_c, 3, 60, 62
5, 51456, Note_on_c, 3, 52, 62
5, 51836, Note_off_c, 3, 48, 61
5, 51836, Note_off_c, 3, 60, 61
5, 51836, Note_off_c, 3, 52, 61
5, 51840, Note_on_c, 3, 48, 62
5, 52220, Note_off_c, 3, 48, 61
5, 52224, Note_on_c, 3, 59, 62
5, 52224, Note_on_c, 3, 62, 62
5, 52224, Note_on_c, 3, 55, 62
5, 53372, Note_off_c, 3, 59, 61
5, 53372, Note_off_c, 3, 62, 61
5, 53376, Note_on_c, 3, 60, 62
5, 53376, Note_on_c, 3, 64, 62
5, 53756, Note_off_c, 3, 55, 61
5, 53756, Note_off_c, 3, 60, 61
5, 53756, Note_off_c, 3, 64, 61
5, 53760, Note_on_c, 3, 43, 63
5, 53772, Note_on_c, 3, 62, 62
5, 53788, Note_on_c, 3, 65, 62
5, 54144, Note_on_c, 3, 59, 62
5, 54144, Note_on_c, 3, 62, 62
5, 54152, Note_off_c, 3, 62, 61
5, 54168, Note_off_c, 3, 65, 61
5, 54524, Note_off_c, 3, 59, 61
5, 54524, Note_off_c, 3, 62, 61
5, 54528, Note_on_c, 3, 55, 62
5, 54528, Note_on_c, 3, 59, 62
5, 54908, Note_off_c, 3, 55, 61
5, 54908, Note_off_c, 3, 59, 61
5, 54912, Note_on_c, 3, 59, 62
5, 54912, Note_on_c, 3, 62, 62
5, 55292, Note_off_c, 3, 43, 61
5, 55292, Note_off_c, 3, 59, 61
5, 55292, Note_off_c, 3, 62, 61
5, 55296, Note_on_c, 3, 60, 62
5, 55296, Note_on_c, 3, 48, 62
5, 55676, Note_off_c, 3, 60, 61
5, 55676, Note_off_c, 3, 48, 61
5, 56832, Note_on_c, 3, 62, 62
5, 57020, Note_off_c, 3, 62, 61
5, 57216, Note_on_c, 3, 55, 62
5, 57404, Note_off_c, 3, 55, 61
5, 57600, Note_on_c, 3, 62, 62
5, 57788, Note_off_c, 3, 62, 61
5, 57984, Note_on_c, 3, 65, 62
5, 58172, Note_off_c, 3, 65, 61
5, 58368, Note_on_c, 3, 64, 62
5, 58940, Note_off_c, 3, 64, 61
5, 58944, Note_on_c, 3, 65, 71
5, 59000, Note_off_c, 3, 65, 61
5, 59008, Note_on_c, 3, 64, 70
5, 59064, Note_off_c, 3, 64, 61
5, 59072, Note_on_c, 3, 62, 69
5, 59128, Note_off_c, 3, 62, 61
5, 59136, Note_on_c, 3, 60, 68
5, 59516, Note_off_c, 3, 60, 61
5, 59904, Note_on_c, 3, 62, 62
5, 59904, Note_on_c, 3, 50, 62
5, 60092, Note_off_c, 3, 62, 61
5, 60092, Note_off_c, 3, 50, 61
5, 60288, Note_on_c, 3, 55, 62
5, 60288, Note_on_c, 3, 43, 63
5, 60476, Note_off_c, 3, 55, 61
5, 60476, Note_off_c, 3, 43, 61
5, 60672, Note_on_c, 3, 62, 62
5, 60672, Note_on_c, 3, 50, 62
5, 60860, Note_off_c, 3, 62, 61
5, 60860, Note_off_c, 3, 50, 61
5, 61056, Note_on_c, 3, 65, 62
5, 61056, Note_on_c, 3, 53, 62
5, 61244, Note_off_c, 3, 65, 61
5, 61244, Note_off_c, 3, 53, 61
5, 61440, Note_on_c, 3, 64, 82
5, 61440, Note_on_c, 3, 52, 82
5, 62012, Note_off_c, 3, 64, 61
5, 62012, Note_off_c, 3, 52, 61
5, 62016, Note_on_c, 3, 53, 89
5, 62072, Note_off_c, 3, 53, 61
5, 62080, Note_on_c, 3, 52, 88
5, 62136, Note_off_c, 3, 52, 61
5, 62144, Note_on_c, 3, 50, 87
5, 62200, Note_off_c, 3, 50, 61
5, 62208, Note_on_c, 3, 60, 82
5, 62208, Note_on_c, 3, 48, 86
5, 62588, Note_off_c, 3, 60, 61
5, 62588, Note_off_c, 3, 48, 61
5, 62976, Note_on_c, 3, 50, 82
5, 62976, Note_on_c, 3, 38, 84
5, 63164, Note_off_c, 3, 50, 61
5, 63164, Note_off_c, 3, 38, 61
5, 63360, Note_on_c, 3, 43, 82
5, 63360, Note_on_c, 3, 31, 88
5, 63548, Note_off_c, 3, 43, 61
5, 63548, Note_off_c, 3, 31, 61
5, 63744, Note_on_c, 3, 50, 82
5, 63744, Note_on_c, 3, 38, 84
5, 63932, Note_off_c, 3, 50, 61
5, 63932, Note_off_c, 3, 38, 61
5, 64128, Note_on_c, 3, 53, 82
5, 64128, Note_on_c, 3, 41, 83
5, 64316, Note_off_c, 3, 53, 61
5, 64316, Note_off_c, 3, 41, 61
5, 64512, Note_on_c, 3, 52, 82
5, 64512, Note_on_c, 3, 40, 84
5, 65084, Note_off_c, 3, 52, 61
5, 65084, Note_off_c, 3, 40, 61
5, 65088, Note_on_c, 3, 41, 90
5, 65144, Note_off_c, 3, 41, 61
5, 65152, Note_on_c, 3, 40, 90
5, 65208, Note_off_c, 3, 40, 61
5, 65216, Note_on_c, 3, 38, 92
5, 65272, Note_off_c, 3, 38, 61
5, 65280, Note_on_c, 3, 48, 82
5, 65280, Note_on_c, 3, 36, 92
5, 65660, Note_off_c, 3, 48, 61
5, 65660, Note_off_c, 3, 36, 61
5, 66048, Note_on_c, 3, 59, 82
5, 66048, Note_on_c, 3, 47, 82
5, 66620, Note_off_c, 3, 59, 61
5, 66620, Note_off_c, 3, 47, 61
5, 66624, Note_on_c, 3, 60, 86
5, 66680, Note_off_c, 3, 60, 61
5, 66688, Note_on_c, 3, 62, 87
5, 66744, Note_off_c, 3, 62, 61
5, 66752, Note_on_c, 3, 64, 88
5, 66808, Note_off_c, 3, 64, 61
5, 66816, Note_on_c, 3, 65, 86
5, 66816, Note_on_c, 3, 53, 89
5, 67196, Note_off_c, 3, 65, 61
5, 67196, Note_off_c, 3, 53, 61
5, 67200, Note_on_c, 3, 53, 82
5, 67200, Note_on_c, 3, 41, 83
5, 67580, Note_off_c, 3, 53, 61
5, 67580, Note_off_c, 3, 41, 61
5, 67584, Note_on_c, 3, 52, 82
5, 67584, Note_on_c, 3, 40, 84
5, 67772, Note_off_c, 3, 52, 61
5, 67772, Note_off_c, 3, 40, 61
5, 67776, Note_on_c, 3, 55, 82
5, 67776, Note_on_c, 3, 52, 82
5, 67964, Note_off_c, 3, 55, 61
5, 67964, Note_off_c, 3, 52, 61
5, 67968, Note_on_c, 3, 55, 82
5, 67968, Note_on_c, 3, 52, 82
5, 68156, Note_off_c, 3, 55, 61
5, 68156, Note_off_c, 3, 52, 61
5, 68160, Note_on_c, 3, 55, 82
5, 68160, Note_on_c, 3, 52, 82
5, 68348, Note_off_c, 3, 55, 61
5, 68348, Note_off_c, 3, 52, 61
5, 68352, Note_on_c, 3, 53, 82
5, 68352, Note_on_c, 3, 41, 83
5, 68540, Note_off_c, 3, 53, 61
5, 68540, Note_off_c, 3, 41, 61
5, 68544, Note_on_c, 3, 53, 82
5, 68544, Note_on_c, 3, 56, 82
5, 68732, Note_off_c, 3, 53, 61
5, 68732, Note_off_c, 3, 56, 61
5, 68736, Note_on_c, 3, 56, 82
5, 68736, Note_on_c, 3, 53, 82
5, 68924, Note_off_c, 3, 56, 61
5, 68924, Note_off_c, 3, 53, 61
5, 68928, Note_on_c, 3, 56, 82
5, 68928, Note_on_c, 3, 53, 82
5, 69116, Note_off_c, 3, 56, 61
5, 69116, Note_off_c, 3, 53, 61
5, 69120, Note_on_c, 3, 52, 82
5, 69120, Note_on_c, 3, 40, 84
5, 69308, Note_off_c, 3, 52, 61
5, 69308, Note_off_c, 3, 40, 61
5, 69312, Note_on_c, 3, 55, 82
5, 69312, Note_on_c, 3, 52, 82
5, 69500, Note_off_c, 3, 55, 61
5, 69500, Note_off_c, 3, 52, 61
5, 69504, Note_on_c, 3, 55, 82
5, 69504, Note_on_c, 3, 52, 82
5, 69692, Note_off_c, 3, 55, 61
5, 69692, Note_off_c, 3, 52, 61
5, 69696, Note_on_c, 3, 55, 82
5, 69696, Note_on_c, 3, 52, 82
5, 69884, Note_off_c, 3, 55, 61
5, 69884, Note_off_c, 3, 52, 61
5, 69888, Note_on_c, 3, 53, 82
5, 69888, Note_on_c, 3, 41, 82
5, 70076, Note_off_c, 3, 53, 61
5, 70076, Note_off_c, 3, 41, 61
5, 70080, Note_on_c, 3, 56, 82
5, 70080, Note_on_c, 3, 53, 82
5, 70268, Note_off_c, 3, 56, 61
5, 70268, Note_off_c, 3, 53, 61
5, 70272, Note_on_c, 3, 56, 82
5, 70272, Note_on_c, 3, 53, 82
5, 70460, Note_off_c, 3, 56, 61
5, 70460, Note_off_c, 3, 53, 61
5, 70464, Note_on_c, 3, 56, 82
5, 70464, Note_on_c, 3, 53, 82
5, 70652, Note_off_c, 3, 56, 61
5, 70652, Note_off_c, 3, 53, 61
5, 70656, Note_on_c, 3, 52, 82
5, 70656, Note_on_c, 3, 40, 84
5, 70844, Note_off_c, 3, 52, 61
5, 70844, Note_off_c, 3, 40, 61
5, 70848, Note_on_c, 3, 55, 82
5, 70848, Note_on_c, 3, 52, 82
5, 71036, Note_off_c, 3, 55, 61
5, 71036, Note_off_c, 3, 52, 61
5, 71040, Note_on_c, 3, 55, 82
5, 71040, Note_on_c, 3, 52, 82
5, 71228, Note_off_c, 3, 55, 61
5, 71228, Note_off_c, 3, 52, 61
5, 71232, Note_on_c, 3, 55, 82
5, 71232, Note_on_c, 3, 52, 82
5, 71420, Note_off_c, 3, 55, 61
5, 71420, Note_off_c, 3, 52, 61
5, 71424, Note_on_c, 3, 53, 82
5, 71424, Note_on_c, 3, 41, 83
5, 71612, Note_off_c, 3, 53, 61
5, 71612, Note_off_c, 3, 41, 61
5, 71616, Note_on_c, 3, 56, 82
5, 71616, Note_on_c, 3, 53, 82
5, 71804, Note_off_c, 3, 56, 61
5, 71804, Note_off_c, 3, 53, 61
5, 71808, Note_on_c, 3, 56, 82
5, 71808, Note_on_c, 3, 53, 82
5, 71996, Note_off_c, 3, 56, 61
5, 71996, Note_off_c, 3, 53, 61
5, 72000, Note_on_c, 3, 56, 82
5, 72000, Note_on_c, 3, 53, 82
5, 72188, Note_off_c, 3, 56, 61
5, 72188, Note_off_c, 3, 53, 61
5, 72192, Note_on_c, 3, 55, 82
5, 72192, Note_on_c, 3, 52, 82
5, 72284, Note_off_c, 3, 55, 61
5, 72284, Note_off_c, 3, 52, 61
5, 72288, Note_on_c, 3, 60, 82
5, 72380, Note_off_c, 3, 60, 61
5, 72384, Note_on_c, 3, 55, 82
5, 72384, Note_on_c, 3, 52, 82
5, 72476, Note_off_c, 3, 55, 61
5, 72476, Note_off_c, 3, 52, 61
5, 72480, Note_on_c, 3, 60, 82
5, 72572, Note_off_c, 3, 60, 61
5, 72576, Note_on_c, 3, 55, 82
5, 72576, Note_on_c, 3, 52, 82
5, 72668, Note_off_c, 3, 55, 61
5, 72668, Note_off_c, 3, 52, 61
5, 72672, Note_on_c, 3, 60, 82
5, 72764, Note_off_c, 3, 60, 61
5, 72768, Note_on_c, 3, 55, 82
5, 72768, Note_on_c, 3, 52, 82
5, 72860, Note_off_c, 3, 55, 61
5, 72860, Note_off_c, 3, 52, 61
5, 72864, Note_on_c, 3, 60, 82
5, 72956, Note_off_c, 3, 60, 61
5, 72960, Note_on_c, 3, 55, 82
5, 72960, Note_on_c, 3, 52, 82
5, 73052, Note_off_c, 3, 55, 61
5, 73052, Note_off_c, 3, 52, 61
5, 73056, Note_on_c, 3, 60, 82
5, 73148, Note_off_c, 3, 60, 61
5, 73152, Note_on_c, 3, 55, 82
5, 73152, Note_on_c, 3, 52, 82
5, 73244, Note_off_c, 3, 55, 61
5, 73244, Note_off_c, 3, 52, 61
5, 73248, Note_on_c, 3, 60, 82
5, 73340, Note_off_c, 3, 60, 61
5, 73344, Note_on_c, 3, 52, 82
5, 73344, Note_on_c, 3, 58, 82
5, 73436, Note_off_c, 3, 52, 61
5, 73436, Note_off_c, 3, 58, 61
5, 73440, Note_on_c, 3, 60, 82
5, 73532, Note_off_c, 3, 60, 61
5, 73536, Note_on_c, 3, 52, 82
5, 73536, Note_on_c, 3, 58, 82
5, 73628, Note_off_c, 3, 52, 61
5, 73628, Note_off_c, 3, 58, 61
5, 73632, Note_on_c, 3, 60, 82
5, 73724, Note_off_c, 3, 60, 61
5, 73728, Note_on_c, 3, 57, 82
5, 73728, Note_on_c, 3, 53, 82
5, 73820, Note_off_c, 3, 57, 61
5, 73820, Note_off_c, 3, 53, 61
5, 73824, Note_on_c, 3, 60, 82
5, 73916, Note_off_c, 3, 60, 61
5, 73920, Note_on_c, 3, 57, 82
5, 73920, Note_on_c, 3, 53, 82
5, 74012, Note_off_c, 3, 57, 61
5, 74012, Note_off_c, 3, 53, 61
5, 74016, Note_on_c, 3, 60, 82
5, 74108, Note_off_c, 3, 60, 61
5, 74112, Note_on_c, 3, 57, 82
5, 74112, Note_on_c, 3, 53, 82
5, 74204, Note_off_c, 3, 57, 61
5, 74204, Note_off_c, 3, 53, 61
5, 74208, Note_on_c, 3, 60, 82
5, 74300, Note_off_c, 3, 60, 61
5, 74304, Note_on_c, 3, 57, 82
5, 74304, Note_on_c, 3, 53, 82
5, 74396, Note_off_c, 3, 57, 61
5, 74396, Note_off_c, 3, 53, 61
5, 74400, Note_on_c, 3, 60, 82
5, 74492, Note_off_c, 3, 60, 61
5, 74496, Note_on_c, 3, 57, 82
5, 74496, Note_on_c, 3, 53, 82
5, 74588, Note_off_c, 3, 57, 61
5, 74588, Note_off_c, 3, 53, 61
5, 74592, Note_on_c, 3, 60, 82
5, 74684, Note_off_c, 3, 60, 61
5, 74688, Note_on_c, 3, 57, 82
5, 74688, Note_on_c, 3, 53, 82
5, 74780, Note_off_c, 3, 57, 61
5, 74780, Note_off_c, 3, 53, 61
5, 74784, Note_on_c, 3, 60, 82
5, 74876, Note_off_c, 3, 60, 61
5, 74880, Note_on_c, 3, 56, 82
5, 74880, Note_on_c, 3, 53, 82
5, 74972, Note_off_c, 3, 56, 61
5, 74972, Note_off_c, 3, 53, 61
5, 74976, Note_on_c, 3, 62, 82
5, 75068, Note_off_c, 3, 62, 61
5, 75072, Note_on_c, 3, 56, 82
5, 75072, Note_on_c, 3, 53, 82
5, 75164, Note_off_c, 3, 56, 61
5, 75164, Note_off_c, 3, 53, 61
5, 75168, Note_on_c, 3, 62, 82
5, 75260, Note_off_c, 3, 62, 61
5, 75264, Note_on_c, 3, 57, 82
5, 75264, Note_on_c, 3, 54, 82
5, 75356, Note_off_c, 3, 57, 61
5, 75356, Note_off_c, 3, 54, 61
5, 75360, Note_on_c, 3, 63, 82
5, 75452, Note_off_c, 3, 63, 61
5, 75456, Note_on_c, 3, 57, 82
5, 75456, Note_on_c, 3, 54, 82
5, 75548, Note_off_c, 3, 57, 61
5, 75548, Note_off_c, 3, 54, 61
5, 75552, Note_on_c, 3, 63, 82
5, 75644, Note_off_c, 3, 63, 61
5, 75648, Note_on_c, 3, 57, 82
5, 75648, Note_on_c, 3, 54, 82
5, 75740, Note_off_c, 3, 57, 61
5, 75740, Note_off_c, 3, 54, 61
5, 75744, Note_on_c, 3, 63, 82
5, 75836, Note_off_c, 3, 63, 61
5, 75840, Note_on_c, 3, 57, 82
5, 75840, Note_on_c, 3, 54, 82
5, 75932, Note_off_c, 3, 57, 61
5, 75932, Note_off_c, 3, 54, 61
5, 75936, Note_on_c, 3, 63, 82
5, 76028, Note_off_c, 3, 63, 61
5, 76032, Note_on_c, 3, 60, 82
5, 76032, Note_on_c, 3, 57, 82
5, 76124, Note_off_c, 3, 60, 61
5, 76124, Note_off_c, 3, 57, 61
5, 76128, Note_on_c, 3, 63, 82
5, 76220, Note_off_c, 3, 63, 61
5, 76224, Note_on_c, 3, 60, 82
5, 76224, Note_on_c, 3, 57, 82
5, 76316, Note_off_c, 3, 60, 61
5, 76316, Note_off_c, 3, 57, 61
5, 76320, Note_on_c, 3, 63, 82
5, 76412, Note_off_c, 3, 63, 61
5, 76416, Note_on_c, 3, 60, 82
5, 76416, Note_on_c, 3, 57, 82
5, 76508, Note_off_c, 3, 60, 61
5, 76508, Note_off_c, 3, 57, 61
5, 76512, Note_on_c, 3, 63, 82
5, 76604, Note_off_c, 3, 63, 61
5, 76608, Note_on_c, 3, 60, 82
5, 76608, Note_on_c, 3, 57, 82
5, 76700, Note_off_c, 3, 60, 61
5, 76700, Note_off_c, 3, 57, 61
5, 76704, Note_on_c, 3, 63, 82
5, 76796, Note_off_c, 3, 63, 61
5, 76800, Note_on_c, 3, 60, 82
5, 76800, Note_on_c, 3, 55, 82
5, 76892, Note_off_c, 3, 60, 61
5, 76892, Note_off_c, 3, 55, 61
5, 76896, Note_on_c, 3, 64, 82
5, 76988, Note_off_c, 3, 64, 61
5, 76992, Note_on_c, 3, 60, 82
5, 76992, Note_on_c, 3, 55, 82
5, 77084, Note_off_c, 3, 60, 61
5, 77084, Note_off_c, 3, 55, 61
5, 77088, Note_on_c, 3, 64, 82
5, 77180, Note_off_c, 3, 64, 61
5, 77184, Note_on_c, 3, 60, 82
5, 77184, Note_on_c, 3, 55, 82
5, 77276, Note_off_c, 3, 60, 61
5, 77276, Note_off_c, 3, 55, 61
5, 77280, Note_on_c, 3, 64, 82
5, 77372, Note_off_c, 3, 64, 61
5, 77376, Note_on_c, 3, 60, 82
5, 77376, Note_on_c, 3, 55, 82
5, 77468, Note_off_c, 3, 60, 61
5, 77468, Note_off_c, 3, 55, 61
5, 77472, Note_on_c, 3, 64, 82
5, 77564, Note_off_c, 3, 64, 61
5, 77568, Note_on_c, 3, 60, 82
5, 77568, Note_on_c, 3, 55, 82
5, 77660, Note_off_c, 3, 60, 61
5, 77660, Note_off_c, 3, 55, 61
5, 77664, Note_on_c, 3, 64, 82
5, 77756, Note_off_c, 3, 64, 61
5, 77760, Note_on_c, 3, 60, 82
5, 77760, Note_on_c, 3, 55, 82
5, 77852, Note_off_c, 3, 60, 61
5, 77852, Note_off_c, 3, 55, 61
5, 77856, Note_on_c, 3, 64, 82
5, 77948, Note_off_c, 3, 64, 61
5, 77952, Note_on_c, 3, 60, 82
5, 77952, Note_on_c, 3, 55, 82
5, 78044, Note_off_c, 3, 60, 61
5, 78044, Note_off_c, 3, 55, 61
5, 78048, Note_on_c, 3, 64, 82
5, 78140, Note_off_c, 3, 64, 61
5, 78144, Note_on_c, 3, 60, 82
5, 78144, Note_on_c, 3, 55, 82
5, 78236, Note_off_c, 3, 60, 61
5, 78236, Note_off_c, 3, 55, 61
5, 78240, Note_on_c, 3, 64, 82
5, 78332, Note_off_c, 3, 64, 61
5, 78336, Note_on_c, 3, 59, 82
5, 78336, Note_on_c, 3, 55, 82
5, 78428, Note_off_c, 3, 59, 61
5, 78428, Note_off_c, 3, 55, 61
5, 78432, Note_on_c, 3, 62, 82
5, 78524, Note_off_c, 3, 62, 61
5, 78528, Note_on_c, 3, 59, 82
5, 78528, Note_on_c, 3, 55, 82
5, 78620, Note_off_c, 3, 59, 61
5, 78620, Note_off_c, 3, 55, 61
5, 78624, Note_on_c, 3, 62, 82
5, 78716, Note_off_c, 3, 62, 61
5, 78720, Note_on_c, 3, 59, 82
5, 78720, Note_on_c, 3, 55, 82
5, 78812, Note_off_c, 3, 59, 61
5, 78812, Note_off_c, 3, 55, 61
5, 78816, Note_on_c, 3, 62, 82
5, 78908, Note_off_c, 3, 62, 61
5, 78912, Note_on_c, 3, 59, 82
5, 78912, Note_on_c, 3, 55, 82
5, 79004, Note_off_c, 3, 59, 61
5, 79004, Note_off_c, 3, 55, 61
5, 79008, Note_on_c, 3, 62, 82
5, 79100, Note_off_c, 3, 62, 61
5, 79104, Note_on_c, 3, 62, 82
5, 79104, Note_on_c, 3, 55, 82
5, 79196, Note_off_c, 3, 62, 61
5, 79196, Note_off_c, 3, 55, 61
5, 79200, Note_on_c, 3, 65, 82
5, 79292, Note_off_c, 3, 65, 61
5, 79296, Note_on_c, 3, 62, 82
5, 79296, Note_on_c, 3, 55, 82
5, 79388, Note_off_c, 3, 62, 61
5, 79388, Note_off_c, 3, 55, 61
5, 79392, Note_on_c, 3, 65, 82
5, 79484, Note_off_c, 3, 65, 61
5, 79488, Note_on_c, 3, 62, 82
5, 79488, Note_on_c, 3, 55, 82
5, 79580, Note_off_c, 3, 62, 61
5, 79580, Note_off_c, 3, 55, 61
5, 79584, Note_on_c, 3, 65, 82
5, 79676, Note_off_c, 3, 65, 61
5, 79680, Note_on_c, 3, 62, 82
5, 79680, Note_on_c, 3, 55, 82
5, 79772, Note_off_c, 3, 62, 61
5, 79772, Note_off_c, 3, 55, 61
5, 79776, Note_on_c, 3, 65, 82
5, 79868, Note_off_c, 3, 65, 61
5, 79872, Note_on_c, 3, 60, 82
5, 79872, Note_on_c, 3, 55, 82
5, 79872, Note_on_c, 3, 52, 82
5, 79872, Note_on_c, 3, 48, 82
5, 80252, Note_off_c, 3, 60, 61
5, 80252, Note_off_c, 3, 55, 61
5, 80252, Note_off_c, 3, 52, 61
5, 80252, Note_off_c, 3, 48, 61
5, 80256, Note_on_c, 3, 57, 62
5, 80256, Note_on_c, 3, 45, 62
5, 80444, Note_off_c, 3, 57, 61
5, 80444, Note_off_c, 3, 45, 61
5, 80448, Note_on_c, 3, 57, 62
5, 80448, Note_on_c, 3, 45, 62
5, 80636, Note_off_c, 3, 57, 61
5, 80636, Note_off_c, 3, 45, 61
5, 80640, Note_on_c, 3, 57, 62
5, 80640, Note_on_c, 3, 50, 62
5, 80828, Note_off_c, 3, 57, 61
5, 80828, Note_off_c, 3, 50, 61
5, 80832, Note_on_c, 3, 57, 62
5, 80832, Note_on_c, 3, 50, 62
5, 81020, Note_off_c, 3, 57, 61
5, 81020, Note_off_c, 3, 50, 61
5, 81024, Note_on_c, 3, 60, 62
5, 81024, Note_on_c, 3, 48, 62
5, 81212, Note_off_c, 3, 60, 61
5, 81212, Note_off_c, 3, 48, 61
5, 81216, Note_on_c, 3, 60, 62
5, 81216, Note_on_c, 3, 48, 62
5, 81404, Note_off_c, 3, 60, 61
5, 81404, Note_off_c, 3, 48, 61
5, 81408, Note_on_c, 3, 60, 62
5, 81408, Note_on_c, 3, 53, 62
5, 81596, Note_off_c, 3, 60, 61
5, 81596, Note_off_c, 3, 53, 61
5, 81600, Note_on_c, 3, 60, 62
5, 81600, Note_on_c, 3, 53, 62
5, 81788, Note_off_c, 3, 60, 61
5, 81788, Note_off_c, 3, 53, 61
5, 81792, Note_on_c, 3, 62, 62
5, 81792, Note_on_c, 3, 50, 62
5, 81980, Note_off_c, 3, 62, 61
5, 81980, Note_off_c, 3, 50, 61
5, 81984, Note_on_c, 3, 62, 62
5, 81984, Note_on_c, 3, 50, 62
5, 82172, Note_off_c, 3, 62, 61
5, 82172, Note_off_c, 3, 50, 61
5, 82176, Note_on_c, 3, 62, 62
5, 82176, Note_on_c, 3, 55, 62
5, 82364, Note_off_c, 3, 62, 61
5, 82364, Note_off_c, 3, 55, 61
5, 82368, Note_on_c, 3, 62, 62
5, 82368, Note_on_c, 3, 55, 62
5, 82556, Note_off_c, 3, 62, 61
5, 82556, Note_off_c, 3, 55, 61
5, 82560, Note_on_c, 3, 64, 62
5, 82560, Note_on_c, 3, 52, 62
5, 82748, Note_off_c, 3, 64, 61
5, 82748, Note_off_c, 3, 52, 61
5, 82752, Note_on_c, 3, 64, 62
5, 82752, Note_on_c, 3, 52, 62
5, 82940, Note_off_c, 3, 64, 61
5, 82940, Note_off_c, 3, 52, 61
5, 82944, Note_on_c, 3, 62, 62
5, 82944, Note_on_c, 3, 60, 62
5, 82944, Note_on_c, 3, 53, 62
5, 83132, Note_off_c, 3, 62, 61
5, 83132, Note_off_c, 3, 60, 61
5, 83132, Note_off_c, 3, 53, 61
5, 83136, Note_on_c, 3, 62, 62
5, 83136, Note_on_c, 3, 60, 62
5, 83136, Note_on_c, 3, 53, 62
5, 83324, Note_off_c, 3, 62, 61
5, 83324, Note_off_c, 3, 60, 61
5, 83324, Note_off_c, 3, 53, 61
5, 83328, Note_on_c, 3, 62, 62
5, 83328, Note_on_c, 3, 60, 62
5, 83328, Note_on_c, 3, 53, 62
5, 83516, Note_off_c, 3, 62, 61
5, 83516, Note_off_c, 3, 60, 61
5, 83516, Note_off_c, 3, 53, 61
5, 83520, Note_on_c, 3, 62, 62
5, 83520, Note_on_c, 3, 60, 62
5, 83520, Note_on_c, 3, 53, 62
5, 83708, Note_off_c, 3, 62, 61
5, 83708, Note_off_c, 3, 60, 61
5, 83708, Note_off_c, 3, 53, 61
5, 83712, Note_on_c, 3, 62, 62
5, 83712, Note_on_c, 3, 60, 62
5, 83712, Note_on_c, 3, 53, 62
5, 83900, Note_off_c, 3, 62, 61
5, 83900, Note_off_c, 3, 60, 61
5, 83900, Note_off_c, 3, 53, 61
5, 83904, Note_on_c, 3, 62, 62
5, 83904, Note_on_c, 3, 60, 62
5, 83904, Note_on_c, 3, 53, 62
5, 84092, Note_off_c, 3, 62, 61
5, 84092, Note_off_c, 3, 60, 61
5, 84092, Note_off_c, 3, 53, 61
5, 84096, Note_on_c, 3, 62, 62
5, 84096, Note_on_c, 3, 60, 62
5, 84096, Note_on_c, 3, 53, 62
5, 84284, Note_off_c, 3, 62, 61
5, 84284, Note_off_c, 3, 60, 61
5, 84284, Note_off_c, 3, 53, 61
5, 84288, Note_on_c, 3, 62, 62
5, 84288, Note_on_c, 3, 60, 62
5, 84288, Note_on_c, 3, 53, 62
5, 84476, Note_off_c, 3, 62, 61
5, 84476, Note_off_c, 3, 60, 61
5, 84476, Note_off_c, 3, 53, 61
5, 84480, Note_on_c, 3, 64, 62
5, 84480, Note_on_c, 3, 60, 62
5, 84480, Note_on_c, 3, 55, 62
5, 84668, Note_off_c, 3, 64, 61
5, 84668, Note_off_c, 3, 60, 61
5, 84668, Note_off_c, 3, 55, 61
5, 84672, Note_on_c, 3, 64, 62
5, 84672, Note_on_c, 3, 60, 62
5, 84672, Note_on_c, 3, 55, 62
5, 84860, Note_off_c, 3, 64, 61
5, 84860, Note_off_c, 3, 60, 61
5, 84860, Note_off_c, 3, 55, 61
5, 84864, Note_on_c, 3, 64, 62
5, 84864, Note_on_c, 3, 60, 62
5, 84864, Note_on_c, 3, 55, 62
5, 85052, Note_off_c, 3, 64, 61
5, 85052, Note_off_c, 3, 60, 61
5, 85052, Note_off_c, 3, 55, 61
5, 85056, Note_on_c, 3, 64, 62
5, 85056, Note_on_c, 3, 60, 62
5, 85056, Note_on_c, 3, 55, 62
5, 85244, Note_off_c, 3, 64, 61
5, 85244, Note_off_c, 3, 60, 61
5, 85244, Note_off_c, 3, 55, 61
5, 85248, Note_on_c, 3, 43, 62
5, 85436, Note_off_c, 3, 43, 61
5, 85440, Note_on_c, 3, 43, 62
5, 85628, Note_off_c, 3, 43, 61
5, 85632, Note_on_c, 3, 43, 62
5, 85820, Note_off_c, 3, 43, 61
5, 85824, Note_on_c, 3, 43, 62
5, 86012, Note_off_c, 3, 43, 61
5, 86016, Note_on_c, 3, 55, 62
5, 86016, Note_on_c, 3, 48, 62
5, 86204, Note_off_c, 3, 48, 61
5, 86208, Note_on_c, 3, 48, 62
5, 86396, Note_off_c, 3, 55, 61
5, 86396, Note_off_c, 3, 48, 61
5, 86400, Note_on_c, 3, 55, 62
5, 86400, Note_on_c, 3, 45, 62
5, 86588, Note_off_c, 3, 55, 61
5, 86588, Note_off_c, 3, 45, 61
5, 86592, Note_on_c, 3, 55, 62
5, 86592, Note_on_c, 3, 45, 62
5, 86780, Note_off_c, 3, 55, 61
5, 86780, Note_off_c, 3, 45, 61
5, 86784, Note_on_c, 3, 57, 62
5, 86784, Note_on_c, 3, 50, 62
5, 86972, Note_off_c, 3, 57, 61
5, 86972, Note_off_c, 3, 50, 61
5, 86976, Note_on_c, 3, 57, 62
5, 86976, Note_on_c, 3, 50, 62
5, 87164, Note_off_c, 3, 57, 61
5, 87164, Note_off_c, 3, 50, 61
5, 87168, Note_on_c, 3, 60, 62
5, 87168, Note_on_c, 3, 48, 62
5, 87356, Note_off_c, 3, 60, 61
5, 87356, Note_off_c, 3, 48, 61
5, 87360, Note_on_c, 3, 60, 62
5, 87360, Note_on_c, 3, 48, 62
5, 87548, Note_off_c, 3, 60, 61
5, 87548, Note_off_c, 3, 48, 61
5, 87552, Note_on_c, 3, 60, 62
5, 87552, Note_on_c, 3, 53, 62
5, 87740, Note_off_c, 3, 60, 61
5, 87740, Note_off_c, 3, 53, 61
5, 87744, Note_on_c, 3, 60, 62
5, 87744, Note_on_c, 3, 53, 62
5, 87932, Note_off_c, 3, 60, 61
5, 87932, Note_off_c, 3, 53, 61
5, 87936, Note_on_c, 3, 62, 62
5, 87936, Note_on_c, 3, 50, 62
5, 88124, Note_off_c, 3, 62, 61
5, 88124, Note_off_c, 3, 50, 61
5, 88128, Note_on_c, 3, 62, 62
5, 88128, Note_on_c, 3, 50, 62
5, 88316, Note_off_c, 3, 62, 61
5, 88316, Note_off_c, 3, 50, 61
5, 88320, Note_on_c, 3, 62, 62
5, 88320, Note_on_c, 3, 55, 62
5, 88508, Note_off_c, 3, 62, 61
5, 88508, Note_off_c, 3, 55, 61
5, 88512, Note_on_c, 3, 62, 62
5, 88512, Note_on_c, 3, 55, 62
5, 88700, Note_off_c, 3, 62, 61
5, 88700, Note_off_c, 3, 55, 61
5, 88704, Note_on_c, 3, 64, 62
5, 88704, Note_on_c, 3, 52, 62
5, 88892, Note_off_c, 3, 64, 61
5, 88892, Note_off_c, 3, 52, 61
5, 88896, Note_on_c, 3, 64, 62
5, 88896, Note_on_c, 3, 52, 62
5, 89084, Note_off_c, 3, 64, 61
5, 89084, Note_off_c, 3, 52, 61
5, 89088, Note_on_c, 3, 62, 62
5, 89088, Note_on_c, 3, 60, 62
5, 89088, Note_on_c, 3, 53, 62
5, 89180, Note_off_c, 3, 62, 61
5, 89180, Note_off_c, 3, 60, 61
5, 89180, Note_off_c, 3, 53, 61
5, 89280, Note_on_c, 3, 62, 62
5, 89280, Note_on_c, 3, 60, 62
5, 89280, Note_on_c, 3, 53, 62
5, 89372, Note_off_c, 3, 62, 61
5, 89372, Note_off_c, 3, 60, 61
5, 89372, Note_off_c, 3, 53, 61
5, 89472, Note_on_c, 3, 62, 62
5, 89472, Note_on_c, 3, 60, 62
5, 89472, Note_on_c, 3, 53, 62
5, 89564, Note_off_c, 3, 62, 61
5, 89564, Note_off_c, 3, 60, 61
5, 89564, Note_off_c, 3, 53, 61
5, 89664, Note_on_c, 3, 62, 62
5, 89664, Note_on_c, 3, 60, 62
5, 89664, Note_on_c, 3, 53, 62
5, 89756, Note_off_c, 3, 62, 61
5, 89756, Note_off_c, 3, 60, 61
5, 89756, Note_off_c, 3, 53, 61
5, 89856, Note_on_c, 3, 62, 62
5, 89856, Note_on_c, 3, 60, 62
5, 89856, Note_on_c, 3, 54, 62
5, 89948, Note_off_c, 3, 62, 61
5, 89948, Note_off_c, 3, 60, 61
5, 89948, Note_off_c, 3, 54, 61
5, 90048, Note_on_c, 3, 62, 62
5, 90048, Note_on_c, 3, 60, 62
5, 90048, Note_on_c, 3, 54, 62
5, 90140, Note_off_c, 3, 62, 61
5, 90140, Note_off_c, 3, 60, 61
5, 90140, Note_off_c, 3, 54, 61
5, 90240, Note_on_c, 3, 62, 62
5, 90240, Note_on_c, 3, 60, 62
5, 90240, Note_on_c, 3, 54, 62
5, 90332, Note_off_c, 3, 62, 61
5, 90332, Note_off_c, 3, 60, 61
5, 90332, Note_off_c, 3, 54, 61
5, 90432, Note_on_c, 3, 62, 62
5, 90432, Note_on_c, 3, 60, 62
5, 90432, Note_on_c, 3, 54, 62
5, 90524, Note_off_c, 3, 62, 61
5, 90524, Note_off_c, 3, 60, 61
5, 90524, Note_off_c, 3, 54, 61
5, 90624, Note_on_c, 3, 64, 62
5, 90624, Note_on_c, 3, 60, 62
5, 90624, Note_on_c, 3, 55, 62
5, 90812, Note_off_c, 3, 64, 61
5, 90812, Note_off_c, 3, 60, 61
5, 90812, Note_off_c, 3, 55, 61
5, 90816, Note_on_c, 3, 64, 62
5, 90816, Note_on_c, 3, 60, 62
5, 90816, Note_on_c, 3, 55, 62
5, 91004, Note_off_c, 3, 64, 61
5, 91004, Note_off_c, 3, 60, 61
5, 91004, Note_off_c, 3, 55, 61
5, 91008, Note_on_c, 3, 64, 62
5, 91008, Note_on_c, 3, 60, 62
5, 91008, Note_on_c, 3, 55, 62
5, 91196, Note_off_c, 3, 64, 61
5, 91196, Note_off_c, 3, 60, 61
5, 91196, Note_off_c, 3, 55, 61
5, 91200, Note_on_c, 3, 64, 62
5, 91200, Note_on_c, 3, 60, 62
5, 91200, Note_on_c, 3, 55, 62
5, 91388, Note_off_c, 3, 64, 61
5, 91388, Note_off_c, 3, 60, 61
5, 91388, Note_off_c, 3, 55, 61
5, 91392, Note_on_c, 3, 65, 62
5, 91392, Note_on_c, 3, 59, 62
5, 91392, Note_on_c, 3, 56, 62
5, 91580, Note_off_c, 3, 65, 61
5, 91580, Note_off_c, 3, 59, 61
5, 91580, Note_off_c, 3, 56, 61
5, 91584, Note_on_c, 3, 65, 62
5, 91584, Note_on_c, 3, 59, 62
5, 91584, Note_on_c, 3, 56, 62
5, 91772, Note_off_c, 3, 65, 61
5, 91772, Note_off_c, 3, 59, 61
5, 91772, Note_off_c, 3, 56, 61
5, 91776, Note_on_c, 3, 65, 62
5, 91776, Note_on_c, 3, 60, 62
5, 91776, Note_on_c, 3, 56, 62
5, 91964, Note_off_c, 3, 65, 61
5, 91964, Note_off_c, 3, 60, 61
5, 91964, Note_off_c, 3, 56, 61
5, 91968, Note_on_c, 3, 65, 62
5, 91968, Note_on_c, 3, 62, 62
5, 91968, Note_on_c, 3, 56, 62
5, 92156, Note_off_c, 3, 65, 61
5, 92156, Note_off_c, 3, 62, 61
5, 92156, Note_off_c, 3, 56, 61
5, 92160, Note_on_c, 3, 64, 62
5, 92160, Note_on_c, 3, 60, 62
5, 92160, Note_on_c, 3, 57, 62
5, 92348, Note_off_c, 3, 64, 61
5, 92348, Note_off_c, 3, 60, 61
5, 92348, Note_off_c, 3, 57, 61
5, 92352, Note_on_c, 3, 64, 62
5, 92352, Note_on_c, 3, 60, 62
5, 92352, Note_on_c, 3, 57, 62
5, 92540, Note_off_c, 3, 64, 61
5, 92540, Note_off_c, 3, 60, 61
5, 92540, Note_off_c, 3, 57, 61
5, 92544, Note_on_c, 3, 64, 62
5, 92544, Note_on_c, 3, 60, 62
5, 92544, Note_on_c, 3, 57, 62
5, 92732, Note_off_c, 3, 64, 61
5, 92732, Note_off_c, 3, 60, 61
5, 92732, Note_off_c, 3, 57, 61
5, 92736, Note_on_c, 3, 64, 62
5, 92736, Note_on_c, 3, 60, 62
5, 92736, Note_on_c, 3, 57, 62
5, 92924, Note_off_c, 3, 64, 61
5, 92924, Note_off_c, 3, 60, 61
5, 92924, Note_off_c, 3, 57, 61
5, 92928, Note_on_c, 3, 63, 62
5, 92928, Note_on_c, 3, 56, 62
5, 92928, Note_on_c, 3, 66, 62
5, 93116, Note_off_c, 3, 63, 61
5, 93116, Note_off_c, 3, 56, 61
5, 93116, Note_off_c, 3, 66, 61
5, 93120, Note_on_c, 3, 63, 62
5, 93120, Note_on_c, 3, 56, 62
5, 93120, Note_on_c, 3, 66, 62
5, 93308, Note_off_c, 3, 63, 61
5, 93308, Note_off_c, 3, 56, 61
5, 93308, Note_off_c, 3, 66, 61
5, 93312, Note_on_c, 3, 63, 62
5, 93312, Note_on_c, 3, 56, 62
5, 93312, Note_on_c, 3, 66, 62
5, 93500, Note_off_c, 3, 63, 61
5, 93500, Note_off_c, 3, 56, 61
5, 93500, Note_off_c, 3, 66, 61
5, 93504, Note_on_c, 3, 60, 62
5, 93504, Note_on_c, 3, 56, 62
5, 93692, Note_off_c, 3, 60, 61
5, 93692, Note_off_c, 3, 56, 61
5, 93696, Note_on_c, 3, 60, 62
5, 93696, Note_on_c, 3, 55, 62
5, 93884, Note_off_c, 3, 60, 61
5, 93884, Note_off_c, 3, 55, 61
5, 93888, Note_on_c, 3, 60, 62
5, 93888, Note_on_c, 3, 55, 62
5, 94076, Note_off_c, 3, 60, 61
5, 94076, Note_off_c, 3, 55, 61
5, 94080, Note_on_c, 3, 60, 62
5, 94080, Note_on_c, 3, 55, 62
5, 94268, Note_off_c, 3, 60, 61
5, 94268, Note_off_c, 3, 55, 61
5, 94272, Note_on_c, 3, 55, 62
5, 94272, Note_on_c, 3, 60, 62
5, 94460, Note_off_c, 3, 55, 61
5, 94460, Note_off_c, 3, 60, 61
5, 94464, Note_on_c, 3, 60, 62
5, 94464, Note_on_c, 3, 54, 62
5, 94652, Note_off_c, 3, 60, 61
5, 94652, Note_off_c, 3, 54, 61
5, 94656, Note_on_c, 3, 60, 62
5, 94656, Note_on_c, 3, 54, 62
5, 94844, Note_off_c, 3, 60, 61
5, 94844, Note_off_c, 3, 54, 61
5, 94848, Note_on_c, 3, 60, 62
5, 94848, Note_on_c, 3, 54, 62
5, 95036, Note_off_c, 3, 60, 61
5, 95036, Note_off_c, 3, 54, 61
5, 95040, Note_on_c, 3, 60, 62
5, 95040, Note_on_c, 3, 54, 62
5, 95228, Note_off_c, 3, 60, 61
5, 95228, Note_off_c, 3, 54, 61
5, 95232, Note_on_c, 3, 62, 62
5, 95232, Note_on_c, 3, 60, 62
5, 95232, Note_on_c, 3, 53, 62
5, 95420, Note_off_c, 3, 62, 61
5, 95420, Note_off_c, 3, 60, 61
5, 95420, Note_off_c, 3, 53, 61
5, 95424, Note_on_c, 3, 62, 62
5, 95424, Note_on_c, 3, 53, 62
5, 95424, Note_on_c, 3, 60, 62
5, 95612, Note_off_c, 3, 62, 61
5, 95612, Note_off_c, 3, 53, 61
5, 95612, Note_off_c, 3, 60, 61
5, 95616, Note_on_c, 3, 62, 62
5, 95616, Note_on_c, 3, 60, 62
5, 95616, Note_on_c, 3, 53, 62
5, 95804, Note_off_c, 3, 62, 61
5, 95804, Note_off_c, 3, 60, 61
5, 95804, Note_off_c, 3, 53, 61
5, 95808, Note_on_c, 3, 62, 62
5, 95808, Note_on_c, 3, 60, 62
5, 95808, Note_on_c, 3, 53, 62
5, 95996, Note_off_c, 3, 62, 61
5, 95996, Note_off_c, 3, 60, 61
5, 95996, Note_off_c, 3, 53, 61
5, 96000, Note_on_c, 3, 63, 62
5, 96000, Note_on_c, 3, 60, 62
5, 96000, Note_on_c, 3, 54, 62
5, 96188, Note_off_c, 3, 63, 61
5, 96188, Note_off_c, 3, 60, 61
5, 96188, Note_off_c, 3, 54, 61
5, 96192, Note_on_c, 3, 63, 62
5, 96192, Note_on_c, 3, 60, 62
5, 96192, Note_on_c, 3, 54, 62
5, 96380, Note_off_c, 3, 63, 61
5, 96380, Note_off_c, 3, 60, 61
5, 96380, Note_off_c, 3, 54, 61
5, 96384, Note_on_c, 3, 63, 62
5, 96384, Note_on_c, 3, 60, 62
5, 96384, Note_on_c, 3, 54, 62
5, 96572, Note_off_c, 3, 63, 61
5, 96572, Note_off_c, 3, 60, 61
5, 96572, Note_off_c, 3, 54, 61
5, 96576, Note_on_c, 3, 63, 62
5, 96576, Note_on_c, 3, 60, 62
5, 96576, Note_on_c, 3, 54, 62
5, 96764, Note_off_c, 3, 63, 61
5, 96764, Note_off_c, 3, 60, 61
5, 96764, Note_off_c, 3, 54, 61
5, 96768, Note_on_c, 3, 55, 62
5, 96768, Note_on_c, 3, 64, 62
5, 96768, Note_on_c, 3, 60, 62
5, 96956, Note_off_c, 3, 55, 61
5, 96956, Note_off_c, 3, 64, 61
5, 96956, Note_off_c, 3, 60, 61
5, 96960, Note_on_c, 3, 64, 62
5, 96960, Note_on_c, 3, 60, 62
5, 96960, Note_on_c, 3, 55, 62
5, 97148, Note_off_c, 3, 64, 61
5, 97148, Note_off_c, 3, 60, 61
5, 97148, Note_off_c, 3, 55, 61
5, 97152, Note_on_c, 3, 64, 62
5, 97152, Note_on_c, 3, 60, 62
5, 97152, Note_on_c, 3, 55, 62
5, 97340, Note_off_c, 3, 64, 61
5, 97340, Note_off_c, 3, 60, 61
5, 97340, Note_off_c, 3, 55, 61
5, 97344, Note_on_c, 3, 64, 62
5, 97344, Note_on_c, 3, 60, 62
5, 97344, Note_on_c, 3, 55, 62
5, 97532, Note_off_c, 3, 64, 61
5, 97532, Note_off_c, 3, 60, 61
5, 97532, Note_off_c, 3, 55, 61
5, 97536, Note_on_c, 3, 43, 62
5, 97724, Note_off_c, 3, 43, 61
5, 97728, Note_on_c, 3, 65, 62
5, 97728, Note_on_c, 3, 59, 62
5, 97728, Note_on_c, 3, 55, 62
5, 97916, Note_off_c, 3, 65, 61
5, 97916, Note_off_c, 3, 59, 61
5, 97916, Note_off_c, 3, 55, 61
5, 97920, Note_on_c, 3, 65, 62
5, 97920, Note_on_c, 3, 59, 62
5, 97920, Note_on_c, 3, 55, 62
5, 98108, Note_off_c, 3, 65, 61
5, 98108, Note_off_c, 3, 59, 61
5, 98108, Note_off_c, 3, 55, 61
5, 98112, Note_on_c, 3, 65, 62
5, 98112, Note_on_c, 3, 59, 62
5, 98112, Note_on_c, 3, 55, 62
5, 98300, Note_off_c, 3, 65, 61
5, 98300, Note_off_c, 3, 59, 61
5, 98300, Note_off_c, 3, 55, 61
5, 98304, Note_on_c, 3, 60, 82
5, 98304, Note_on_c, 3, 64, 82
5, 98492, Note_off_c, 3, 60, 61
5, 98492, Note_off_c, 3, 64, 61
5, 98688, Note_on_c, 3, 55, 82
5, 98876, Note_off_c, 3, 55, 61
5, 99072, Note_on_c, 3, 60, 82
5, 99260, Note_off_c, 3, 60, 61
5, 99456, Note_on_c, 3, 64, 82
5, 99644, Note_off_c, 3, 64, 61
5, 99840, Note_on_c, 3, 60, 82
5, 99840, Note_on_c, 3, 48, 82
5, 100028, Note_off_c, 3, 60, 61
5, 100028, Note_off_c, 3, 48, 61
5, 100224, Note_on_c, 3, 55, 82
5, 100224, Note_on_c, 3, 43, 83
5, 100412, Note_off_c, 3, 55, 61
5, 100412, Note_off_c, 3, 43, 61
5, 100608, Note_on_c, 3, 60, 82
5, 100608, Note_on_c, 3, 48, 82
5, 100796, Note_off_c, 3, 60, 61
5, 100796, Note_off_c, 3, 48, 61
5, 100992, Note_on_c, 3, 64, 82
5, 100992, Note_on_c, 3, 52, 82
5, 101180, Note_off_c, 3, 64, 61
5, 101180, Note_off_c, 3, 52, 61
5, 101376, Note_on_c, 3, 53, 82
5, 101376, Note_on_c, 3, 65, 82
5, 101388, Note_on_c, 3, 67, 82
5, 101948, Note_off_c, 3, 53, 61
5, 101948, Note_off_c, 3, 65, 61
5, 101952, Note_on_c, 3, 62, 82
5, 102044, Note_off_c, 3, 62, 61
5, 102048, Note_on_c, 3, 59, 82
5, 102140, Note_off_c, 3, 59, 61
5, 102144, Note_on_c, 3, 60, 82
5, 102144, Note_on_c, 3, 60, 82
5, 102144, Note_on_c, 3, 48, 82
5, 102152, Note_off_c, 3, 67, 61
5, 102716, Note_off_c, 3, 60, 61
5, 102716, Note_off_c, 3, 48, 61
5, 102720, Note_on_c, 3, 57, 82
5, 102812, Note_off_c, 3, 57, 61
5, 102816, Note_on_c, 3, 54, 82
5, 102908, Note_off_c, 3, 60, 61
5, 102908, Note_off_c, 3, 54, 61
5, 102912, Note_on_c, 3, 55, 82
5, 102912, Note_on_c, 3, 43, 83
5, 103292, Note_off_c, 3, 55, 61
5, 103292, Note_off_c, 3, 43, 61
5, 103296, Note_on_c, 3, 60, 82
5, 103296, Note_on_c, 3, 64, 82
5, 103580, Note_off_c, 3, 60, 61
5, 103580, Note_off_c, 3, 64, 61
5, 103584, Note_on_c, 3, 64, 94
5, 103584, Note_on_c, 3, 60, 94
5, 103676, Note_off_c, 3, 64, 61
5, 103676, Note_off_c, 3, 60, 61
5, 103680, Note_on_c, 3, 62, 82
5, 103680, Note_on_c, 3, 55, 82
5, 103680, Note_on_c, 3, 43, 83
5, 103680, Note_on_c, 3, 31, 88
5, 104060, Note_off_c, 3, 62, 61
5, 104060, Note_off_c, 3, 55, 61
5, 104060, Note_off_c, 3, 43, 61
5, 104060, Note_off_c, 3, 31, 61
5, 104064, Note_on_c, 3, 62, 82
5, 104064, Note_on_c, 3, 55, 82
5, 104444, Note_off_c, 3, 62, 61
5, 104444, Note_off_c, 3, 55, 61
5, 104448, Note_on_c, 3, 48, 86
5, 104448, Note_on_c, 3, 36, 90
5, 104488, Note_off_c, 3, 48, 61
5, 104488, Note_off_c, 3, 36, 61
5, 104496, Note_on_c, 3, 60, 82
5, 104496, Note_on_c, 3, 52, 82
5, 104832, Note_off_c, 3, 60, 61
5, 104832, Note_off_c, 3, 52, 61
5, 109056, Note_on_c, 3, 52, 62
5, 109056, Note_on_c, 3, 45, 62
5, 109820, Note_off_c, 3, 52, 61
5, 109824, Note_on_c, 3, 48, 62
5, 110588, Note_off_c, 3, 45, 61
5, 110588, Note_off_c, 3, 48, 61
5, 110592, Note_on_c, 3, 50, 60
5, 110592, Note_on_c, 3, 43, 60
5, 110972, Note_off_c, 3, 50, 61
5, 110972, Note_off_c, 3, 43, 61
5, 112128, Note_on_c, 3, 60, 62
5, 112128, Note_on_c, 3, 56, 62
5, 112508, Note_off_c, 3, 60, 61
5, 112512, Note_on_c, 3, 65, 62
5, 112892, Note_off_c, 3, 65, 61
5, 112896, Note_on_c, 3, 63, 62
5, 113276, Note_off_c, 3, 63, 61
5, 113280, Note_on_c, 3, 60, 62
5, 113660, Note_off_c, 3, 56, 61
5, 113660, Note_off_c, 3, 60, 61
5, 113664, Note_on_c, 3, 55, 62
5, 114044, Note_off_c, 3, 55, 61
5, 114624, Note_on_c, 3, 55, 62
5, 114624, Note_on_c, 3, 43, 63
5, 114812, Note_off_c, 3, 55, 61
5, 114812, Note_off_c, 3, 43, 61
5, 114816, Note_on_c, 3, 55, 62
5, 114816, Note_on_c, 3, 43, 63
5, 115004, Note_off_c, 3, 55, 61
5, 115004, Note_off_c, 3, 43, 61
5, 115008, Note_on_c, 3, 55, 62
5, 115008, Note_on_c, 3, 43, 63
5, 115196, Note_off_c, 3, 55, 61
5, 115196, Note_off_c, 3, 43, 61
5, 115200, Note_on_c, 3, 55, 62
5, 115200, Note_on_c, 3, 43, 63
5, 115580, Note_off_c, 3, 55, 61
5, 115580, Note_off_c, 3, 43, 61
5, 116160, Note_on_c, 3, 55, 62
5, 116160, Note_on_c, 3, 43, 63
5, 116348, Note_off_c, 3, 55, 61
5, 116348, Note_off_c, 3, 43, 61
5, 116352, Note_on_c, 3, 55, 62
5, 116352, Note_on_c, 3, 43, 63
5, 116540, Note_off_c, 3, 55, 61
5, 116540, Note_off_c, 3, 43, 61
5, 116544, Note_on_c, 3, 55, 62
5, 116544, Note_on_c, 3, 43, 63
5, 116732, Note_off_c, 3, 55, 61
5, 116732, Note_off_c, 3, 43, 61
5, 116736, Note_on_c, 3, 55, 62
5, 116736, Note_on_c, 3, 43, 63
5, 121724, Note_off_c, 3, 43, 61
5, 121724, Note_off_c, 3, 55, 61
5, 129024, Note_on_c, 3, 36, 66
5, 129024, Note_on_c, 3, 48, 62
5, 129212, Note_off_c, 3, 36, 61
5, 129212, Note_off_c, 3, 48, 61
5, 129408, Note_on_c, 3, 31, 69
5, 129408, Note_on_c, 3, 43, 62
5, 129596, Note_off_c, 3, 31, 61
5, 129596, Note_off_c, 3, 43, 61
5, 129792, Note_on_c, 3, 36, 66
5, 129792, Note_on_c, 3, 48, 62
5, 129980, Note_off_c, 3, 36, 61
5, 129980, Note_off_c, 3, 48, 61
5, 130176, Note_on_c, 3, 40, 64
5, 130364, Note_off_c, 3, 40, 61
5, 130560, Note_on_c, 3, 41, 63
5, 131132, Note_off_c, 3, 41, 61
5, 131136, Note_on_c, 3, 40, 65
5, 131192, Note_off_c, 3, 40, 61
5, 131200, Note_on_c, 3, 38, 64
5, 131256, Note_off_c, 3, 38, 61
5, 131264, Note_on_c, 3, 36, 63
5, 131320, Note_off_c, 3, 36, 61
5, 131328, Note_on_c, 3, 35, 69
5, 131328, Note_on_c, 3, 47, 62
5, 131708, Note_off_c, 3, 35, 61
5, 131708, Note_off_c, 3, 47, 61
5, 132000, Note_on_c, 3, 43, 62
5, 132092, Note_off_c, 3, 43, 61
5, 132096, Note_on_c, 3, 47, 62
5, 132284, Note_off_c, 3, 47, 61
5, 132480, Note_on_c, 3, 50, 62
5, 132668, Note_off_c, 3, 50, 61
5, 132864, Note_on_c, 3, 41, 64
5, 132864, Note_on_c, 3, 53, 62
5, 133052, Note_off_c, 3, 41, 61
5, 133052, Note_off_c, 3, 53, 61
5, 133248, Note_on_c, 3, 38, 67
5, 133248, Note_on_c, 3, 50, 62
5, 133436, Note_off_c, 3, 38, 61
5, 133436, Note_off_c, 3, 50, 61
5, 133632, Note_on_c, 3, 43, 62
5, 133632, Note_on_c, 3, 55, 62
5, 134204, Note_off_c, 3, 43, 61
5, 134204, Note_off_c, 3, 55, 61
5, 134208, Note_on_c, 3, 45, 67
5, 134264, Note_off_c, 3, 45, 61
5, 134272, Note_on_c, 3, 43, 66
5, 134328, Note_off_c, 3, 43, 61
5, 134336, Note_on_c, 3, 41, 65
5, 134392, Note_off_c, 3, 41, 61
5, 134400, Note_on_c, 3, 40, 64
5, 134400, Note_on_c, 3, 52, 62
5, 134780, Note_off_c, 3, 40, 61
5, 134780, Note_off_c, 3, 52, 61
5, 141312, Note_on_c, 3, 48, 62
5, 141324, Note_on_c, 3, 64, 62
5, 141692, Note_off_c, 3, 48, 61
5, 142272, Note_on_c, 3, 63, 62
5, 142280, Note_off_c, 3, 64, 61
5, 142364, Note_off_c, 3, 63, 61
5, 142464, Note_on_c, 3, 64, 62
5, 142556, Note_off_c, 3, 64, 61
5, 142656, Note_on_c, 3, 60, 62
5, 142748, Note_off_c, 3, 60, 61
5, 142848, Note_on_c, 3, 43, 63
5, 142860, Note_on_c, 3, 62, 62
5, 143228, Note_off_c, 3, 43, 61
5, 143808, Note_on_c, 3, 61, 62
5, 143816, Note_off_c, 3, 62, 61
5, 143900, Note_off_c, 3, 61, 61
5, 144000, Note_on_c, 3, 62, 62
5, 144092, Note_off_c, 3, 62, 61
5, 144192, Note_on_c, 3, 59, 62
5, 144284, Note_off_c, 3, 59, 61
5, 144384, Note_on_c, 3, 60, 62
5, 144384, Note_on_c, 3, 55, 62
5, 144384, Note_on_c, 3, 52, 62
5, 144384, Note_on_c, 3, 48, 62
5, 144764, Note_off_c, 3, 60, 61
5, 144764, Note_off_c, 3, 55, 61
5, 144764, Note_off_c, 3, 52, 61
5, 144764, Note_off_c, 3, 48, 61
5, 144768, Note_on_c, 3, 55, 62
5, 144768, Note_on_c, 3, 52, 62
5, 144768, Note_on_c, 3, 48, 62
5, 144768, Note_on_c, 3, 60, 62
5, 145052, Note_off_c, 3, 55, 61
5, 145052, Note_off_c, 3, 52, 61
5, 145052, Note_off_c, 3, 48, 61
5, 145052, Note_off_c, 3, 60, 61
5, 145056, Note_on_c, 3, 60, 62
5, 145056, Note_on_c, 3, 55, 62
5, 145056, Note_on_c, 3, 52, 62
5, 145056, Note_on_c, 3, 48, 62
5, 145148, Note_off_c, 3, 60, 61
5, 145148, Note_off_c, 3, 55, 61
5, 145148, Note_off_c, 3, 52, 61
5, 145148, Note_off_c, 3, 48, 61
5, 145152, Note_on_c, 3, 55, 62
5, 145152, Note_on_c, 3, 43, 63
5, 145532, Note_off_c, 3, 55, 61
5, 145532, Note_off_c, 3, 43, 61
5, 145536, Note_on_c, 3, 55, 62
5, 145536, Note_on_c, 3, 43, 63
5, 145916, Note_off_c, 3, 55, 61
5, 145916, Note_off_c, 3, 43, 61
5, 145920, Note_on_c, 3, 60, 62
5, 145920, Note_on_c, 3, 55, 62
5, 145920, Note_on_c, 3, 52, 62
5, 145920, Note_on_c, 3, 48, 62
5, 146300, Note_off_c, 3, 60, 61
5, 146300, Note_off_c, 3, 55, 61
5, 146300, Note_off_c, 3, 52, 61
5, 146300, Note_off_c, 3, 48, 61
5, 150528, Note_on_c, 3, 48, 62
5, 150528, Note_on_c, 3, 36, 66
5, 155132, Note_off_c, 3, 36, 61
5, 155132, Note_off_c, 3, 48, 61
5, 155136, Note_on_c, 3, 50, 62
5, 155136, Note_on_c, 3, 36, 66
5, 155516, Note_off_c, 3, 50, 61
5, 155516, Note_off_c, 3, 36, 61
5, 155904, Note_on_c, 3, 59, 62
5, 156284, Note_off_c, 3, 59, 61
5, 156672, Note_on_c, 3, 60, 62
5, 157436, Note_off_c, 3, 60, 61
5, 157440, Note_on_c, 3, 62, 62
5, 158204, Note_off_c, 3, 62, 61
5, 158208, Note_on_c, 3, 64, 62
5, 158588, Note_off_c, 3, 64, 61
5, 167424, Note_on_c, 3, 55, 62
5, 167424, Note_on_c, 3, 43, 63
5, 170492, Note_off_c, 3, 43, 61
5, 170492, Note_off_c, 3, 55, 61
5, 170496, Note_on_c, 3, 43, 62
5, 170496, Note_on_c, 3, 31, 69
5, 171068, Note_off_c, 3, 43, 61
5, 171068, Note_off_c, 3, 31, 61
5, 171072, Note_on_c, 3, 55, 82
5, 171164, Note_off_c, 3, 55, 61
5, 171168, Note_on_c, 3, 57, 82
5, 171260, Note_off_c, 3, 57, 61
5, 171264, Note_on_c, 3, 59, 82
5, 171452, Note_off_c, 3, 59, 61
5, 171456, Note_on_c, 3, 59, 82
5, 171548, Note_off_c, 3, 59, 61
5, 171552, Note_on_c, 3, 60, 82
5, 171644, Note_off_c, 3, 60, 61
5, 171648, Note_on_c, 3, 62, 82
5, 171836, Note_off_c, 3, 62, 61
5, 171840, Note_on_c, 3, 62, 82
5, 171904, Note_off_c, 3, 62, 61
5, 171904, Note_on_c, 3, 64, 82
5, 171968, Note_off_c, 3, 64, 61
5, 171968, Note_on_c, 3, 66, 82
5, 172032, Note_off_c, 3, 66, 61
5, 172032, Note_on_c, 3, 43, 82
5, 172032, Note_on_c, 3, 31, 89
5, 172604, Note_off_c, 3, 43, 61
5, 172604, Note_off_c, 3, 31, 61
5, 172608, Note_on_c, 3, 43, 82
5, 172700, Note_off_c, 3, 43, 61
5, 172704, Note_on_c, 3, 45, 82
5, 172796, Note_off_c, 3, 45, 61
5, 172800, Note_on_c, 3, 47, 82
5, 172800, Note_on_c, 3, 35, 87
5, 172988, Note_off_c, 3, 47, 61
5, 172988, Note_off_c, 3, 35, 61
5, 172992, Note_on_c, 3, 47, 82
5, 173084, Note_off_c, 3, 47, 61
5, 173088, Note_on_c, 3, 48, 82
5, 173180, Note_off_c, 3, 48, 61
5, 173184, Note_on_c, 3, 50, 82
5, 173184, Note_on_c, 3, 38, 85
5, 173372, Note_off_c, 3, 50, 61
5, 173372, Note_off_c, 3, 38, 61
5, 173376, Note_on_c, 3, 50, 82
5, 173440, Note_off_c, 3, 50, 61
5, 173440, Note_on_c, 3, 52, 82
5, 173504, Note_off_c, 3, 52, 61
5, 173504, Note_on_c, 3, 53, 82
5, 173568, Note_off_c, 3, 53, 61
5, 173568, Note_on_c, 3, 55, 82
5, 173568, Note_on_c, 3, 43, 83
5, 173948, Note_off_c, 3, 55, 61
5, 173948, Note_off_c, 3, 43, 61
5, 193536, Note_on_c, 3, 62, 62
5, 196988, Note_off_c, 3, 62, 61
5, 202752, Note_on_c, 3, 55, 62
5, 202752, Note_on_c, 3, 43, 63
5, 203132, Note_off_c, 3, 55, 61
5, 203132, Note_off_c, 3, 43, 61
5, 203520, Note_on_c, 3, 55, 62
5, 203520, Note_on_c, 3, 43, 63
5, 203900, Note_off_c, 3, 55, 61
5, 203900, Note_off_c, 3, 43, 61
5, 204288, Note_on_c, 3, 48, 62
5, 204288, Note_on_c, 3, 36, 66
5, 204668, Note_off_c, 3, 48, 61
5, 204668, Note_off_c, 3, 36, 61
5, 205056, Note_on_c, 3, 48, 62
5, 205056, Note_on_c, 3, 36, 66
5, 205436, Note_off_c, 3, 48, 61
5, 205436, Note_off_c, 3, 36, 61
5, 205824, Note_on_c, 3, 50, 62
5, 205824, Note_on_c, 3, 38, 65
5, 206204, Note_off_c, 3, 50, 61
5, 206204, Note_off_c, 3, 38, 61
5, 206592, Note_on_c, 3, 50, 62
5, 206592, Note_on_c, 3, 38, 65
5, 206972, Note_off_c, 3, 50, 61
5, 206972, Note_off_c, 3, 38, 61
5, 207360, Note_on_c, 3, 47, 62
5, 207360, Note_on_c, 3, 35, 67
5, 207740, Note_off_c, 3, 47, 61
5, 207740, Note_off_c, 3, 35, 61
5, 208128, Note_on_c, 3, 47, 62
5, 208128, Note_on_c, 3, 35, 67
5, 208508, Note_off_c, 3, 47, 61
5, 208508, Note_off_c, 3, 35, 61
5, 215040, Note_on_c, 3, 43, 63
5, 215232, Note_on_c, 3, 59, 62
5, 215232, Note_on_c, 3, 55, 62
5, 215420, Note_off_c, 3, 43, 61
5, 215420, Note_off_c, 3, 59, 61
5, 215420, Note_off_c, 3, 55, 61
5, 215424, Note_on_c, 3, 60, 62
5, 215424, Note_on_c, 3, 57, 62
5, 215612, Note_off_c, 3, 60, 61
5, 215612, Note_off_c, 3, 57, 61
5, 215616, Note_on_c, 3, 62, 62
5, 215616, Note_on_c, 3, 59, 62
5, 215804, Note_off_c, 3, 62, 61
5, 215804, Note_off_c, 3, 59, 61
5, 215808, Note_on_c, 3, 43, 63
5, 216000, Note_on_c, 3, 59, 62
5, 216000, Note_on_c, 3, 55, 62
5, 216188, Note_off_c, 3, 43, 61
5, 216188, Note_off_c, 3, 59, 61
5, 216188, Note_off_c, 3, 55, 61
5, 216192, Note_on_c, 3, 60, 62
5, 216192, Note_on_c, 3, 57, 62
5, 216380, Note_off_c, 3, 60, 61
5, 216380, Note_off_c, 3, 57, 61
5, 216384, Note_on_c, 3, 62, 62
5, 216384, Note_on_c, 3, 59, 62
5, 216572, Note_off_c, 3, 62, 61
5, 216572, Note_off_c, 3, 59, 61
5, 216576, Note_on_c, 3, 48, 62
5, 216768, Note_on_c, 3, 60, 62
5, 216768, Note_on_c, 3, 57, 62
5, 216956, Note_off_c, 3, 48, 61
5, 216956, Note_off_c, 3, 60, 61
5, 216956, Note_off_c, 3, 57, 61
5, 216960, Note_on_c, 3, 62, 62
5, 216960, Note_on_c, 3, 59, 62
5, 217148, Note_off_c, 3, 62, 61
5, 217148, Note_off_c, 3, 59, 61
5, 217152, Note_on_c, 3, 64, 62
5, 217152, Note_on_c, 3, 60, 62
5, 217340, Note_off_c, 3, 64, 61
5, 217340, Note_off_c, 3, 60, 61
5, 217344, Note_on_c, 3, 48, 62
5, 217536, Note_on_c, 3, 60, 62
5, 217536, Note_on_c, 3, 57, 62
5, 217724, Note_off_c, 3, 48, 61
5, 217724, Note_off_c, 3, 60, 61
5, 217724, Note_off_c, 3, 57, 61
5, 217728, Note_on_c, 3, 62, 62
5, 217728, Note_on_c, 3, 59, 62
5, 217916, Note_off_c, 3, 62, 61
5, 217916, Note_off_c, 3, 59, 61
5, 217920, Note_on_c, 3, 64, 62
5, 217920, Note_on_c, 3, 60, 62
5, 218108, Note_off_c, 3, 64, 61
5, 218108, Note_off_c, 3, 60, 61
5, 218112, Note_on_c, 3, 50, 62
5, 218304, Note_on_c, 3, 57, 62
5, 218304, Note_on_c, 3, 54, 62
5, 218492, Note_off_c, 3, 50, 61
5, 218492, Note_off_c, 3, 57, 61
5, 218492, Note_off_c, 3, 54, 61
5, 218496, Note_on_c, 3, 59, 62
5, 218496, Note_on_c, 3, 55, 62
5, 218684, Note_off_c, 3, 59, 61
5, 218684, Note_off_c, 3, 55, 61
5, 218688, Note_on_c, 3, 60, 62
5, 218688, Note_on_c, 3, 57, 62
5, 218876, Note_off_c, 3, 60, 61
5, 218876, Note_off_c, 3, 57, 61
5, 218880, Note_on_c, 3, 50, 62
5, 219072, Note_on_c, 3, 57, 62
5, 219072, Note_on_c, 3, 54, 62
5, 219260, Note_off_c, 3, 50, 61
5, 219260, Note_off_c, 3, 57, 61
5, 219260, Note_off_c, 3, 54, 61
5, 219264, Note_on_c, 3, 59, 62
5, 219264, Note_on_c, 3, 55, 62
5, 219452, Note_off_c, 3, 59, 61
5, 219452, Note_off_c, 3, 55, 61
5, 219456, Note_on_c, 3, 60, 62
5, 219456, Note_on_c, 3, 57, 62
5, 219644, Note_off_c, 3, 60, 61
5, 219644, Note_off_c, 3, 57, 61
5, 219648, Note_on_c, 3, 47, 62
5, 219840, Note_on_c, 3, 59, 62
5, 219840, Note_on_c, 3, 55, 62
5, 220028, Note_off_c, 3, 47, 61
5, 220028, Note_off_c, 3, 59, 61
5, 220028, Note_off_c, 3, 55, 61
5, 220032, Note_on_c, 3, 60, 62
5, 220032, Note_on_c, 3, 57, 62
5, 220220, Note_off_c, 3, 60, 61
5, 220220, Note_off_c, 3, 57, 61
5, 220224, Note_on_c, 3, 62, 62
5, 220224, Note_on_c, 3, 59, 62
5, 220412, Note_off_c, 3, 62, 61
5, 220412, Note_off_c, 3, 59, 61
5, 220416, Note_on_c, 3, 47, 62
5, 220608, Note_on_c, 3, 59, 62
5, 220608, Note_on_c, 3, 55, 62
5, 220796, Note_off_c, 3, 47, 61
5, 220796, Note_off_c, 3, 59, 61
5, 220796, Note_off_c, 3, 55, 61
5, 220800, Note_on_c, 3, 60, 62
5, 220800, Note_on_c, 3, 57, 62
5, 220988, Note_off_c, 3, 60, 61
5, 220988, Note_off_c, 3, 57, 61
5, 220992, Note_on_c, 3, 62, 62
5, 220992, Note_on_c, 3, 59, 62
5, 221180, Note_off_c, 3, 62, 61
5, 221180, Note_off_c, 3, 59, 61
5, 230400, Note_on_c, 3, 57, 62
5, 230400, Note_on_c, 3, 69, 62
5, 230588, Note_off_c, 3, 57, 61
5, 230588, Note_off_c, 3, 69, 61
5, 230784, Note_on_c, 3, 50, 62
5, 230784, Note_on_c, 3, 62, 62
5, 230972, Note_off_c, 3, 50, 61
5, 230972, Note_off_c, 3, 62, 61
5, 231168, Note_on_c, 3, 57, 62
5, 231168, Note_on_c, 3, 69, 62
5, 231356, Note_off_c, 3, 57, 61
5, 231356, Note_off_c, 3, 69, 61
5, 231552, Note_on_c, 3, 60, 62
5, 231740, Note_off_c, 3, 60, 61
5, 231936, Note_on_c, 3, 59, 62
5, 231936, Note_on_c, 3, 55, 62
5, 232124, Note_off_c, 3, 55, 61
5, 232320, Note_on_c, 3, 50, 62
5, 232508, Note_off_c, 3, 59, 61
5, 232508, Note_off_c, 3, 50, 61
5, 232512, Note_on_c, 3, 60, 68
5, 232568, Note_off_c, 3, 60, 61
5, 232576, Note_on_c, 3, 59, 68
5, 232632, Note_off_c, 3, 59, 61
5, 232640, Note_on_c, 3, 57, 68
5, 232696, Note_off_c, 3, 57, 61
5, 232704, Note_on_c, 3, 55, 68
5, 232704, Note_on_c, 3, 55, 68
5, 232892, Note_off_c, 3, 55, 61
5, 233084, Note_off_c, 3, 55, 61
5, 233088, Note_on_c, 3, 59, 62
5, 233276, Note_off_c, 3, 59, 61
5, 233472, Note_on_c, 3, 60, 62
5, 233472, Note_on_c, 3, 48, 62
5, 233660, Note_off_c, 3, 60, 61
5, 233660, Note_off_c, 3, 48, 61
5, 233856, Note_on_c, 3, 55, 62
5, 233856, Note_on_c, 3, 43, 63
5, 234044, Note_off_c, 3, 55, 61
5, 234044, Note_off_c, 3, 43, 61
5, 234240, Note_on_c, 3, 60, 62
5, 234240, Note_on_c, 3, 48, 62
5, 234428, Note_off_c, 3, 60, 61
5, 234428, Note_off_c, 3, 48, 61
5, 234624, Note_on_c, 3, 64, 62
5, 234624, Note_on_c, 3, 52, 62
5, 234812, Note_off_c, 3, 64, 61
5, 234812, Note_off_c, 3, 52, 61
5, 236544, Note_on_c, 3, 59, 62
5, 236544, Note_on_c, 3, 47, 62
5, 236732, Note_off_c, 3, 59, 61
5, 236732, Note_off_c, 3, 47, 61
5, 236928, Note_on_c, 3, 53, 62
5, 236928, Note_on_c, 3, 41, 63
5, 237116, Note_off_c, 3, 53, 61
5, 237116, Note_off_c, 3, 41, 61
5, 237312, Note_on_c, 3, 59, 62
5, 237312, Note_on_c, 3, 47, 62
5, 237500, Note_off_c, 3, 59, 61
5, 237500, Note_off_c, 3, 47, 61
5, 237696, Note_on_c, 3, 62, 62
5, 237696, Note_on_c, 3, 50, 62
5, 237884, Note_off_c, 3, 62, 61
5, 237884, Note_off_c, 3, 50, 61
5, 243840, Note_on_c, 3, 55, 62
5, 243840, Note_on_c, 3, 67, 62
5, 244028, Note_off_c, 3, 55, 61
5, 244028, Note_off_c, 3, 67, 61
5, 244032, Note_on_c, 3, 54, 62
5, 244220, Note_off_c, 3, 54, 61
5, 244224, Note_on_c, 3, 52, 62
5, 244604, Note_off_c, 3, 52, 61
5, 245376, Note_on_c, 3, 64, 62
5, 245376, Note_on_c, 3, 52, 62
5, 245564, Note_off_c, 3, 64, 61
5, 245564, Note_off_c, 3, 52, 61
5, 245568, Note_on_c, 3, 62, 62
5, 245568, Note_on_c, 3, 50, 62
5, 245756, Note_off_c, 3, 62, 61
5, 245756, Note_off_c, 3, 50, 61
5, 245760, Note_on_c, 3, 60, 62
5, 245760, Note_on_c, 3, 48, 62
5, 246140, Note_off_c, 3, 60, 61
5, 246140, Note_off_c, 3, 48, 61
5, 246912, Note_on_c, 3, 60, 62
5, 246912, Note_on_c, 3, 48, 62
5, 247100, Note_off_c, 3, 60, 61
5, 247100, Note_off_c, 3, 48, 61
5, 247104, Note_on_c, 3, 59, 62
5, 247104, Note_on_c, 3, 47, 62
5, 247292, Note_off_c, 3, 59, 61
5, 247292, Note_off_c, 3, 47, 61
5, 247296, Note_on_c, 3, 57, 62
5, 247296, Note_on_c, 3, 45, 62
5, 247676, Note_off_c, 3, 57, 61
5, 247676, Note_off_c, 3, 45, 61
5, 247680, Note_on_c, 3, 57, 62
5, 247680, Note_on_c, 3, 45, 62
5, 247868, Note_off_c, 3, 57, 61
5, 247868, Note_off_c, 3, 45, 61
5, 247872, Note_on_c, 3, 55, 62
5, 247872, Note_on_c, 3, 43, 63
5, 248060, Note_off_c, 3, 55, 61
5, 248060, Note_off_c, 3, 43, 61
5, 248064, Note_on_c, 3, 54, 62
5, 248064, Note_on_c, 3, 42, 63
5, 248444, Note_off_c, 3, 54, 61
5, 248444, Note_off_c, 3, 42, 61
5, 248448, Note_on_c, 3, 54, 62
5, 248448, Note_on_c, 3, 42, 63
5, 248636, Note_off_c, 3, 54, 61
5, 248636, Note_off_c, 3, 42, 61
5, 248640, Note_on_c, 3, 52, 62
5, 248640, Note_on_c, 3, 40, 64
5, 248828, Note_off_c, 3, 52, 61
5, 248828, Note_off_c, 3, 40, 61
5, 248832, Note_on_c, 3, 50, 62
5, 248832, Note_on_c, 3, 38, 65
5, 249404, Note_off_c, 3, 50, 61
5, 249404, Note_off_c, 3, 38, 61
5, 249408, Note_on_c, 3, 51, 62
5, 249408, Note_on_c, 3, 39, 64
5, 249596, Note_off_c, 3, 51, 61
5, 249596, Note_off_c, 3, 39, 61
5, 249600, Note_on_c, 3, 50, 62
5, 249600, Note_on_c, 3, 38, 65
5, 249788, Note_off_c, 3, 50, 61
5, 249788, Note_off_c, 3, 38, 61
5, 249792, Note_on_c, 3, 51, 62
5, 249792, Note_on_c, 3, 39, 64
5, 249980, Note_off_c, 3, 51, 61
5, 249980, Note_off_c, 3, 39, 61
5, 249984, Note_on_c, 3, 50, 62
5, 249984, Note_on_c, 3, 38, 65
5, 250172, Note_off_c, 3, 50, 61
5, 250172, Note_off_c, 3, 38, 61
5, 250176, Note_on_c, 3, 51, 62
5, 250176, Note_on_c, 3, 39, 65
5, 250364, Note_off_c, 3, 51, 61
5, 250364, Note_off_c, 3, 39, 61
5, 250368, Note_on_c, 3, 50, 62
5, 250368, Note_on_c, 3, 38, 65
5, 250940, Note_off_c, 3, 50, 61
5, 250940, Note_off_c, 3, 38, 61
5, 250944, Note_on_c, 3, 51, 62
5, 250944, Note_on_c, 3, 39, 64
5, 251132, Note_off_c, 3, 51, 61
5, 251132, Note_off_c, 3, 39, 61
5, 251136, Note_on_c, 3, 50, 62
5, 251136, Note_on_c, 3, 38, 65
5, 251324, Note_off_c, 3, 50, 61
5, 251324, Note_off_c, 3, 38, 61
5, 251328, Note_on_c, 3, 51, 62
5, 251328, Note_on_c, 3, 39, 64
5, 251516, Note_off_c, 3, 51, 61
5, 251516, Note_off_c, 3, 39, 61
5, 251520, Note_on_c, 3, 50, 62
5, 251520, Note_on_c, 3, 38, 65
5, 251708, Note_off_c, 3, 50, 61
5, 251708, Note_off_c, 3, 38, 61
5, 251712, Note_on_c, 3, 51, 62
5, 251712, Note_on_c, 3, 39, 65
5, 251900, Note_off_c, 3, 51, 61
5, 251900, Note_off_c, 3, 39, 61
5, 251904, Note_on_c, 3, 50, 62
5, 251904, Note_on_c, 3, 38, 65
5, 252284, Note_off_c, 3, 50, 61
5, 252284, Note_off_c, 3, 38, 61
5, 255360, Note_on_c, 3, 51, 81
5, 255360, Note_on_c, 3, 63, 81
5, 255740, Note_off_c, 3, 51, 61
5, 255740, Note_off_c, 3, 63, 61
5, 255744, Note_on_c, 3, 64, 81
5, 255744, Note_on_c, 3, 52, 81
5, 256124, Note_off_c, 3, 64, 61
5, 256124, Note_off_c, 3, 52, 61
5, 256128, Note_on_c, 3, 62, 81
5, 256128, Note_on_c, 3, 55, 81
5, 256128, Note_on_c, 3, 50, 81
5, 256508, Note_off_c, 3, 62, 61
5, 256508, Note_off_c, 3, 55, 61
5, 256508, Note_off_c, 3, 50, 61
5, 256512, Note_on_c, 3, 60, 81
5, 256512, Note_on_c, 3, 55, 81
5, 256512, Note_on_c, 3, 48, 81
5, 256892, Note_off_c, 3, 60, 61
5, 256892, Note_off_c, 3, 55, 61
5, 256892, Note_off_c, 3, 48, 61
5, 262656, Note_on_c, 3, 50, 62
5, 262656, Note_on_c, 3, 38, 65
5, 263036, Note_off_c, 3, 50, 61
5, 263036, Note_off_c, 3, 38, 61
5, 263424, Note_on_c, 3, 50, 62
5, 263424, Note_on_c, 3, 38, 65
5, 263804, Note_off_c, 3, 50, 61
5, 263804, Note_off_c, 3, 38, 61
5, 264192, Note_on_c, 3, 50, 62
5, 264192, Note_on_c, 3, 38, 65
5, 264572, Note_off_c, 3, 50, 61
5, 264572, Note_off_c, 3, 38, 61
5, 264960, Note_on_c, 3, 50, 62
5, 264960, Note_on_c, 3, 38, 65
5, 265340, Note_off_c, 3, 50, 61
5, 265340, Note_off_c, 3, 38, 61
5, 265728, Note_on_c, 3, 43, 63
5, 265728, Note_on_c, 3, 31, 69
5, 266108, Note_off_c, 3, 43, 61
5, 266108, Note_off_c, 3, 31, 61
5, 278016, Note_on_c, 3, 50, 62
5, 278016, Note_on_c, 3, 38, 65
5, 278396, Note_off_c, 3, 50, 61
5, 278396, Note_off_c, 3, 38, 61
5, 278784, Note_on_c, 3, 50, 62
5, 278784, Note_on_c, 3, 38, 65
5, 279164, Note_off_c, 3, 50, 61
5, 279164, Note_off_c, 3, 38, 61
5, 279552, Note_on_c, 3, 43, 63
5, 279552, Note_on_c, 3, 31, 69
5, 279932, Note_off_c, 3, 43, 61
5, 279932, Note_off_c, 3, 31, 61
5, 283776, Note_on_c, 3, 62, 62
5, 283776, Note_on_c, 3, 55, 62
5, 283964, Note_off_c, 3, 62, 61
5, 283964, Note_off_c, 3, 55, 61
5, 283968, Note_on_c, 3, 54, 62
5, 283968, Note_on_c, 3, 62, 62
5, 284156, Note_off_c, 3, 54, 61
5, 284156, Note_off_c, 3, 62, 61
5, 284160, Note_on_c, 3, 59, 62
5, 284160, Note_on_c, 3, 52, 62
5, 284540, Note_off_c, 3, 59, 61
5, 284540, Note_off_c, 3, 52, 61
5, 285312, Note_on_c, 3, 59, 62
5, 285312, Note_on_c, 3, 52, 62
5, 285500, Note_off_c, 3, 59, 61
5, 285500, Note_off_c, 3, 52, 61
5, 285504, Note_on_c, 3, 59, 62
5, 285504, Note_on_c, 3, 50, 62
5, 285692, Note_off_c, 3, 59, 61
5, 285692, Note_off_c, 3, 50, 61
5, 285696, Note_on_c, 3, 55, 62
5, 285696, Note_on_c, 3, 48, 62
5, 286076, Note_off_c, 3, 55, 61
5, 286076, Note_off_c, 3, 48, 61
5, 286848, Note_on_c, 3, 55, 62
5, 286848, Note_on_c, 3, 48, 62
5, 287036, Note_off_c, 3, 55, 61
5, 287036, Note_off_c, 3, 48, 61
5, 287040, Note_on_c, 3, 55, 62
5, 287040, Note_on_c, 3, 47, 62
5, 287228, Note_off_c, 3, 55, 61
5, 287228, Note_off_c, 3, 47, 61
5, 287232, Note_on_c, 3, 57, 62
5, 287232, Note_on_c, 3, 45, 62
5, 287612, Note_off_c, 3, 57, 61
5, 287612, Note_off_c, 3, 45, 61
5, 288768, Note_on_c, 3, 55, 62
5, 288768, Note_on_c, 3, 43, 63
5, 290300, Note_off_c, 3, 55, 61
5, 290300, Note_off_c, 3, 43, 61
5, 290304, Note_on_c, 3, 48, 62
5, 290304, Note_on_c, 3, 36, 66
5, 291836, Note_off_c, 3, 48, 61
5, 291836, Note_off_c, 3, 36, 61
5, 291840, Note_on_c, 3, 51, 62
5, 291840, Note_on_c, 3, 37, 66
5, 292992, Note_on_c, 3, 73, 62
5, 293180, Note_off_c, 3, 73, 61
5, 293376, Note_on_c, 3, 70, 62
5, 293564, Note_off_c, 3, 70, 61
5, 293568, Note_on_c, 3, 67, 62
5, 293756, Note_off_c, 3, 67, 61
5, 293760, Note_on_c, 3, 64, 62
5, 293948, Note_off_c, 3, 64, 61
5, 293952, Note_on_c, 3, 61, 62
5, 293952, Note_on_c, 3, 49, 62
5, 294140, Note_off_c, 3, 61, 61
5, 294140, Note_off_c, 3, 49, 61
5, 294144, Note_on_c, 3, 58, 62
5, 294144, Note_on_c, 3, 46, 62
5, 294332, Note_off_c, 3, 58, 61
5, 294332, Note_off_c, 3, 46, 61
5, 294336, Note_on_c, 3, 55, 62
5, 294336, Note_on_c, 3, 43, 63
5, 294524, Note_off_c, 3, 55, 61
5, 294524, Note_off_c, 3, 43, 61
5, 294528, Note_on_c, 3, 52, 62
5, 294528, Note_on_c, 3, 40, 64
5, 294688, Note_on_c, 3, 37, 62
5, 294716, Note_off_c, 3, 52, 61
5, 294716, Note_off_c, 3, 40, 61
5, 294720, Note_on_c, 3, 49, 66
5, 294876, Note_off_c, 3, 37, 61
5, 294908, Note_off_c, 3, 51, 61
5, 294908, Note_off_c, 3, 37, 61
5, 294908, Note_off_c, 3, 49, 61
5, 294912, Note_on_c, 3, 50, 62
5, 294912, Note_on_c, 3, 38, 65
5, 295100, Note_off_c, 3, 50, 61
5, 295100, Note_off_c, 3, 38, 61
5, 295104, Note_on_c, 3, 54, 62
5, 295104, Note_on_c, 3, 42, 63
5, 295292, Note_off_c, 3, 54, 61
5, 295292, Note_off_c, 3, 42, 61
5, 295296, Note_on_c, 3, 55, 62
5, 295296, Note_on_c, 3, 43, 63
5, 295484, Note_off_c, 3, 55, 61
5, 295484, Note_off_c, 3, 43, 61
5, 295488, Note_on_c, 3, 57, 62
5, 295488, Note_on_c, 3, 45, 62
5, 295676, Note_off_c, 3, 57, 61
5, 295676, Note_off_c, 3, 45, 61
5, 295680, Note_on_c, 3, 59, 62
5, 295680, Note_on_c, 3, 47, 62
5, 295868, Note_off_c, 3, 59, 61
5, 295868, Note_off_c, 3, 47, 61
5, 295872, Note_on_c, 3, 60, 62
5, 295872, Note_on_c, 3, 48, 62
5, 296060, Note_off_c, 3, 60, 61
5, 296060, Note_off_c, 3, 48, 61
5, 296064, Note_on_c, 3, 62, 62
5, 296064, Note_on_c, 3, 50, 62
5, 296252, Note_off_c, 3, 62, 61
5, 296252, Note_off_c, 3, 50, 61
5, 296256, Note_on_c, 3, 53, 62
5, 296444, Note_off_c, 3, 53, 61
5, 296448, Note_on_c, 3, 55, 62
5, 296636, Note_off_c, 3, 55, 61
5, 296640, Note_on_c, 3, 57, 62
5, 296828, Note_off_c, 3, 57, 61
5, 296832, Note_on_c, 3, 59, 62
5, 297020, Note_off_c, 3, 59, 61
5, 297024, Note_on_c, 3, 60, 62
5, 297212, Note_off_c, 3, 60, 61
5, 297984, Note_on_c, 3, 62, 62
5, 298748, Note_off_c, 3, 62, 61
5, 298752, Note_on_c, 3, 59, 62
5, 299132, Note_off_c, 3, 59, 61
5, 299136, Note_on_c, 3, 55, 62
5, 299516, Note_off_c, 3, 55, 61
5, 299520, Note_on_c, 3, 62, 62
5, 299520, Note_on_c, 3, 50, 62
5, 300284, Note_off_c, 3, 62, 61
5, 300284, Note_off_c, 3, 50, 61
5, 300288, Note_on_c, 3, 59, 62
5, 300288, Note_on_c, 3, 47, 62
5, 300668, Note_off_c, 3, 59, 61
5, 300668, Note_off_c, 3, 47, 61
5, 300672, Note_on_c, 3, 55, 62
5, 300672, Note_on_c, 3, 43, 63
5, 301052, Note_off_c, 3, 55, 61
5, 301052, Note_off_c, 3, 43, 61
5, 301056, Note_on_c, 3, 50, 62
5, 301056, Note_on_c, 3, 38, 65
5, 301436, Note_off_c, 3, 50, 61
5, 301436, Note_off_c, 3, 38, 61
5, 302592, Note_on_c, 3, 50, 62
5, 302592, Note_on_c, 3, 38, 65
5, 302780, Note_off_c, 3, 50, 61
5, 302780, Note_off_c, 3, 38, 61
5, 302784, Note_on_c, 3, 50, 62
5, 302784, Note_on_c, 3, 38, 65
5, 302972, Note_off_c, 3, 50, 61
5, 302972, Note_off_c, 3, 38, 61
5, 302976, Note_on_c, 3, 50, 62
5, 302976, Note_on_c, 3, 38, 65
5, 303164, Note_off_c, 3, 50, 61
5, 303164, Note_off_c, 3, 38, 61
5, 303168, Note_on_c, 3, 50, 62
5, 303168, Note_on_c, 3, 38, 65
5, 303356, Note_off_c, 3, 50, 61
5, 303356, Note_off_c, 3, 38, 61
5, 303360, Note_on_c, 3, 50, 62
5, 303360, Note_on_c, 3, 38, 65
5, 303548, Note_off_c, 3, 50, 61
5, 303548, Note_off_c, 3, 38, 61
5, 303552, Note_on_c, 3, 50, 62
5, 303552, Note_on_c, 3, 38, 65
5, 303740, Note_off_c, 3, 50, 61
5, 303740, Note_off_c, 3, 38, 61
5, 303744, Note_on_c, 3, 50, 62
5, 303744, Note_on_c, 3, 38, 67
5, 303932, Note_off_c, 3, 50, 61
5, 303932, Note_off_c, 3, 38, 61
5, 303936, Note_on_c, 3, 50, 62
5, 303936, Note_on_c, 3, 38, 65
5, 304124, Note_off_c, 3, 50, 61
5, 304124, Note_off_c, 3, 38, 61
5, 304128, Note_on_c, 3, 55, 86
5, 304128, Note_on_c, 3, 43, 87
5, 304316, Note_off_c, 3, 55, 61
5, 304316, Note_off_c, 3, 43, 61
5, 304512, Note_on_c, 3, 50, 86
5, 304512, Note_on_c, 3, 38, 89
5, 304700, Note_off_c, 3, 50, 61
5, 304700, Note_off_c, 3, 38, 61
5, 304896, Note_on_c, 3, 55, 86
5, 304896, Note_on_c, 3, 43, 87
5, 305084, Note_off_c, 3, 55, 61
5, 305084, Note_off_c, 3, 43, 61
5, 305280, Note_on_c, 3, 59, 86
5, 305280, Note_on_c, 3, 47, 86
5, 305468, Note_off_c, 3, 59, 61
5, 305468, Note_off_c, 3, 47, 61
5, 305664, Note_on_c, 3, 60, 86
5, 305664, Note_on_c, 3, 48, 86
5, 306236, Note_off_c, 3, 60, 61
5, 306236, Note_off_c, 3, 48, 61
5, 306240, Note_on_c, 3, 59, 86
5, 306296, Note_off_c, 3, 59, 61
5, 306304, Note_on_c, 3, 57, 86
5, 306360, Note_off_c, 3, 57, 61
5, 306368, Note_on_c, 3, 55, 86
5, 306424, Note_off_c, 3, 55, 61
5, 306432, Note_on_c, 3, 54, 86
5, 306432, Note_on_c, 3, 42, 87
5, 306812, Note_off_c, 3, 54, 61
5, 306812, Note_off_c, 3, 42, 61
5, 307104, Note_on_c, 3, 50, 86
5, 307104, Note_on_c, 3, 38, 89
5, 307196, Note_off_c, 3, 50, 61
5, 307196, Note_off_c, 3, 38, 61
5, 307200, Note_on_c, 3, 54, 86
5, 307200, Note_on_c, 3, 42, 87
5, 307388, Note_off_c, 3, 54, 61
5, 307388, Note_off_c, 3, 42, 61
5, 307584, Note_on_c, 3, 57, 86
5, 307584, Note_on_c, 3, 45, 86
5, 307772, Note_off_c, 3, 57, 61
5, 307772, Note_off_c, 3, 45, 61
5, 307968, Note_on_c, 3, 60, 86
5, 307968, Note_on_c, 3, 48, 86
5, 308156, Note_off_c, 3, 60, 61
5, 308156, Note_off_c, 3, 48, 61
5, 308352, Note_on_c, 3, 57, 86
5, 308352, Note_on_c, 3, 45, 86
5, 308540, Note_off_c, 3, 57, 61
5, 308540, Note_off_c, 3, 45, 61
5, 308736, Note_on_c, 3, 62, 86
5, 308736, Note_on_c, 3, 50, 86
5, 309308, Note_off_c, 3, 62, 61
5, 309308, Note_off_c, 3, 50, 61
5, 309312, Note_on_c, 3, 64, 86
5, 309372, Note_off_c, 3, 64, 61
5, 309376, Note_on_c, 3, 62, 86
5, 309436, Note_off_c, 3, 62, 61
5, 309440, Note_on_c, 3, 60, 86
5, 309500, Note_off_c, 3, 60, 61
5, 309504, Note_on_c, 3, 59, 86
5, 309504, Note_on_c, 3, 47, 86
5, 309884, Note_off_c, 3, 59, 61
5, 309884, Note_off_c, 3, 47, 61
5, 310176, Note_on_c, 3, 50, 86
5, 310176, Note_on_c, 3, 38, 89
5, 310268, Note_off_c, 3, 50, 61
5, 310268, Note_off_c, 3, 38, 61
5, 310272, Note_on_c, 3, 55, 86
5, 310272, Note_on_c, 3, 43, 86
5, 310460, Note_off_c, 3, 55, 61
5, 310460, Note_off_c, 3, 43, 61
5, 310656, Note_on_c, 3, 58, 86
5, 310656, Note_on_c, 3, 46, 86
5, 310844, Note_off_c, 3, 58, 61
5, 310844, Note_off_c, 3, 46, 61
5, 311040, Note_on_c, 3, 62, 86
5, 311040, Note_on_c, 3, 50, 86
5, 311228, Note_off_c, 3, 62, 61
5, 311228, Note_off_c, 3, 50, 61
5, 311424, Note_on_c, 3, 58, 86
5, 311424, Note_on_c, 3, 46, 86
5, 311612, Note_off_c, 3, 58, 61
5, 311612, Note_off_c, 3, 46, 61
5, 311808, Note_on_c, 3, 63, 86
5, 311808, Note_on_c, 3, 51, 86
5, 311808, Note_on_c, 3, 51, 86
5, 312572, Note_off_c, 3, 63, 61
5, 312572, Note_off_c, 3, 51, 61
5, 312960, Note_on_c, 3, 51, 86
5, 312960, Note_on_c, 3, 39, 88
5, 313340, Note_off_c, 3, 51, 61
5, 313340, Note_off_c, 3, 51, 61
5, 313340, Note_off_c, 3, 39, 61
5, 313344, Note_on_c, 3, 50, 86
5, 313344, Note_on_c, 3, 38, 89
5, 314108, Note_off_c, 3, 50, 61
5, 314496, Note_on_c, 3, 62, 86
5, 314496, Note_on_c, 3, 50, 86
5, 314876, Note_off_c, 3, 38, 61
5, 314876, Note_off_c, 3, 62, 61
5, 314876, Note_off_c, 3, 50, 61
5, 314880, Note_on_c, 3, 63, 86
5, 314880, Note_on_c, 3, 51, 86
5, 314880, Note_on_c, 3, 51, 86
5, 315452, Note_off_c, 3, 63, 61
5, 315452, Note_off_c, 3, 51, 61
5, 315456, Note_on_c, 3, 51, 86
5, 315456, Note_on_c, 3, 39, 86
5, 315644, Note_off_c, 3, 51, 61
5, 315644, Note_off_c, 3, 51, 61
5, 315644, Note_off_c, 3, 39, 61
5, 315648, Note_on_c, 3, 50, 86
5, 315648, Note_on_c, 3, 38, 86
5, 315648, Note_on_c, 3, 38, 86
5, 316220, Note_off_c, 3, 50, 61
5, 316220, Note_off_c, 3, 38, 61
5, 316224, Note_on_c, 3, 62, 86
5, 316224, Note_on_c, 3, 50, 86
5, 316412, Note_off_c, 3, 38, 61
5, 316412, Note_off_c, 3, 62, 61
5, 316412, Note_off_c, 3, 50, 61
5, 316416, Note_on_c, 3, 63, 86
5, 316416, Note_on_c, 3, 51, 86
5, 316604, Note_off_c, 3, 63, 61
5, 316604, Note_off_c, 3, 51, 61
5, 316608, Note_on_c, 3, 51, 86
5, 316608, Note_on_c, 3, 39, 88
5, 316796, Note_off_c, 3, 51, 61
5, 316796, Note_off_c, 3, 39, 61
5, 316800, Note_on_c, 3, 50, 86
5, 316800, Note_on_c, 3, 38, 89
5, 316988, Note_off_c, 3, 50, 61
5, 316988, Note_off_c, 3, 38, 61
5, 316992, Note_on_c, 3, 62, 86
5, 316992, Note_on_c, 3, 50, 86
5, 317180, Note_off_c, 3, 62, 61
5, 317180, Note_off_c, 3, 50, 61
5, 317184, Note_on_c, 3, 63, 86
5, 317184, Note_on_c, 3, 51, 86
5, 317372, Note_off_c, 3, 63, 61
5, 317372, Note_off_c, 3, 51, 61
5, 317376, Note_on_c, 3, 51, 86
5, 317376, Note_on_c, 3, 39, 88
5, 317564, Note_off_c, 3, 51, 61
5, 317564, Note_off_c, 3, 39, 61
5, 317568, Note_on_c, 3, 50, 86
5, 317568, Note_on_c, 3, 38, 89
5, 317756, Note_off_c, 3, 50, 61
5, 317756, Note_off_c, 3, 38, 61
5, 317760, Note_on_c, 3, 62, 86
5, 317760, Note_on_c, 3, 50, 86
5, 317948, Note_off_c, 3, 62, 61
5, 317948, Note_off_c, 3, 50, 61
5, 317952, Note_on_c, 3, 63, 86
5, 317952, Note_on_c, 3, 51, 86
5, 318140, Note_off_c, 3, 63, 61
5, 318140, Note_off_c, 3, 51, 61
5, 318144, Note_on_c, 3, 63, 86
5, 318144, Note_on_c, 3, 51, 86
5, 318332, Note_off_c, 3, 63, 61
5, 318332, Note_off_c, 3, 51, 61
5, 318336, Note_on_c, 3, 63, 86
5, 318336, Note_on_c, 3, 51, 86
5, 318524, Note_off_c, 3, 63, 61
5, 318524, Note_off_c, 3, 51, 61
5, 318528, Note_on_c, 3, 63, 86
5, 318528, Note_on_c, 3, 51, 86
5, 318716, Note_off_c, 3, 63, 61
5, 318716, Note_off_c, 3, 51, 61
5, 318720, Note_on_c, 3, 63, 86
5, 318720, Note_on_c, 3, 51, 86
5, 318908, Note_off_c, 3, 63, 61
5, 318908, Note_off_c, 3, 51, 61
5, 318912, Note_on_c, 3, 63, 86
5, 318912, Note_on_c, 3, 51, 86
5, 319100, Note_off_c, 3, 63, 61
5, 319100, Note_off_c, 3, 51, 61
5, 319104, Note_on_c, 3, 63, 86
5, 319104, Note_on_c, 3, 51, 86
5, 319292, Note_off_c, 3, 63, 61
5, 319292, Note_off_c, 3, 51, 61
5, 319296, Note_on_c, 3, 63, 86
5, 319296, Note_on_c, 3, 51, 86
5, 319484, Note_off_c, 3, 63, 61
5, 319484, Note_off_c, 3, 51, 61
5, 319488, Note_on_c, 3, 62, 86
5, 319488, Note_on_c, 3, 50, 86
5, 319488, Note_on_c, 3, 50, 86
5, 319676, Note_off_c, 3, 62, 61
5, 319676, Note_off_c, 3, 50, 61
5, 319680, Note_on_c, 3, 62, 86
5, 319680, Note_on_c, 3, 50, 86
5, 319868, Note_off_c, 3, 50, 61
5, 319868, Note_off_c, 3, 62, 61
5, 319868, Note_off_c, 3, 50, 61
5, 319872, Note_on_c, 3, 62, 86
5, 319872, Note_on_c, 3, 50, 86
5, 320060, Note_off_c, 3, 62, 61
5, 320060, Note_off_c, 3, 50, 61
5, 320064, Note_on_c, 3, 62, 86
5, 320064, Note_on_c, 3, 50, 86
5, 320252, Note_off_c, 3, 62, 61
5, 320252, Note_off_c, 3, 50, 61
5, 320256, Note_on_c, 3, 38, 86
5, 320256, Note_on_c, 3, 38, 86
5, 320256, Note_on_c, 3, 50, 86
5, 320444, Note_off_c, 3, 38, 61
5, 320444, Note_off_c, 3, 50, 61
5, 320448, Note_on_c, 3, 50, 86
5, 320448, Note_on_c, 3, 38, 86
5, 320636, Note_off_c, 3, 38, 61
5, 320636, Note_off_c, 3, 50, 61
5, 320636, Note_off_c, 3, 38, 61
5, 320640, Note_on_c, 3, 50, 86
5, 320640, Note_on_c, 3, 38, 86
5, 320828, Note_off_c, 3, 50, 61
5, 320828, Note_off_c, 3, 38, 61
5, 320832, Note_on_c, 3, 50, 86
5, 320832, Note_on_c, 3, 38, 86
5, 321020, Note_off_c, 3, 50, 61
5, 321020, Note_off_c, 3, 38, 61
5, 321024, Note_on_c, 3, 55, 86
5, 321024, Note_on_c, 3, 43, 86
5, 321404, Note_off_c, 3, 55, 61
5, 321404, Note_off_c, 3, 43, 61
5, 321408, Note_on_c, 3, 52, 62
5, 321596, Note_off_c, 3, 52, 61
5, 321600, Note_on_c, 3, 52, 62
5, 321788, Note_off_c, 3, 52, 61
5, 321792, Note_on_c, 3, 45, 62
5, 321980, Note_off_c, 3, 45, 61
5, 321984, Note_on_c, 3, 45, 62
5, 322172, Note_off_c, 3, 45, 61
5, 322176, Note_on_c, 3, 43, 63
5, 322364, Note_off_c, 3, 43, 61
5, 322368, Note_on_c, 3, 43, 63
5, 322556, Note_off_c, 3, 43, 61
5, 322560, Note_on_c, 3, 48, 62
5, 322748, Note_off_c, 3, 48, 61
5, 322752, Note_on_c, 3, 48, 62
5, 322940, Note_off_c, 3, 48, 61
5, 322944, Note_on_c, 3, 45, 62
5, 323132, Note_off_c, 3, 45, 61
5, 323136, Note_on_c, 3, 45, 62
5, 323324, Note_off_c, 3, 45, 61
5, 323328, Note_on_c, 3, 50, 62
5, 323516, Note_off_c, 3, 50, 61
5, 323520, Note_on_c, 3, 50, 62
5, 323708, Note_off_c, 3, 50, 61
5, 323712, Note_on_c, 3, 47, 62
5, 323900, Note_off_c, 3, 47, 61
5, 323904, Note_on_c, 3, 47, 62
5, 324092, Note_off_c, 3, 47, 61
5, 324096, Note_on_c, 3, 57, 62
5, 324096, Note_on_c, 3, 55, 62
5, 324096, Note_on_c, 3, 48, 62
5, 324284, Note_off_c, 3, 57, 61
5, 324284, Note_off_c, 3, 55, 61
5, 324284, Note_off_c, 3, 48, 61
5, 324288, Note_on_c, 3, 57, 62
5, 324288, Note_on_c, 3, 48, 62
5, 324288, Note_on_c, 3, 55, 62
5, 324476, Note_off_c, 3, 57, 61
5, 324476, Note_off_c, 3, 48, 61
5, 324476, Note_off_c, 3, 55, 61
5, 324480, Note_on_c, 3, 57, 62
5, 324480, Note_on_c, 3, 55, 62
5, 324480, Note_on_c, 3, 48, 62
5, 324668, Note_off_c, 3, 57, 61
5, 324668, Note_off_c, 3, 55, 61
5, 324668, Note_off_c, 3, 48, 61
5, 324672, Note_on_c, 3, 57, 62
5, 324672, Note_on_c, 3, 55, 62
5, 324672, Note_on_c, 3, 48, 62
5, 324860, Note_off_c, 3, 57, 61
5, 324860, Note_off_c, 3, 55, 61
5, 324860, Note_off_c, 3, 48, 61
5, 324864, Note_on_c, 3, 57, 62
5, 324864, Note_on_c, 3, 55, 62
5, 324864, Note_on_c, 3, 48, 62
5, 325052, Note_off_c, 3, 57, 61
5, 325052, Note_off_c, 3, 55, 61
5, 325052, Note_off_c, 3, 48, 61
5, 325056, Note_on_c, 3, 57, 62
5, 325056, Note_on_c, 3, 55, 62
5, 325056, Note_on_c, 3, 48, 62
5, 325244, Note_off_c, 3, 57, 61
5, 325244, Note_off_c, 3, 55, 61
5, 325244, Note_off_c, 3, 48, 61
5, 325248, Note_on_c, 3, 57, 62
5, 325248, Note_on_c, 3, 55, 62
5, 325248, Note_on_c, 3, 48, 62
5, 325436, Note_off_c, 3, 57, 61
5, 325436, Note_off_c, 3, 55, 61
5, 325436, Note_off_c, 3, 48, 61
5, 325440, Note_on_c, 3, 57, 62
5, 325440, Note_on_c, 3, 55, 62
5, 325440, Note_on_c, 3, 48, 62
5, 325628, Note_off_c, 3, 57, 61
5, 325628, Note_off_c, 3, 55, 61
5, 325628, Note_off_c, 3, 48, 61
5, 325632, Note_on_c, 3, 59, 62
5, 325632, Note_on_c, 3, 55, 62
5, 325632, Note_on_c, 3, 50, 62
5, 325820, Note_off_c, 3, 59, 61
5, 325820, Note_off_c, 3, 55, 61
5, 325820, Note_off_c, 3, 50, 61
5, 325824, Note_on_c, 3, 59, 62
5, 325824, Note_on_c, 3, 55, 62
5, 325824, Note_on_c, 3, 50, 62
5, 326012, Note_off_c, 3, 59, 61
5, 326012, Note_off_c, 3, 55, 61
5, 326012, Note_off_c, 3, 50, 61
5, 326016, Note_on_c, 3, 59, 62
5, 326016, Note_on_c, 3, 55, 62
5, 326016, Note_on_c, 3, 50, 62
5, 326204, Note_off_c, 3, 59, 61
5, 326204, Note_off_c, 3, 55, 61
5, 326204, Note_off_c, 3, 50, 61
5, 326208, Note_on_c, 3, 59, 62
5, 326208, Note_on_c, 3, 55, 62
5, 326208, Note_on_c, 3, 50, 62
5, 326396, Note_off_c, 3, 59, 61
5, 326396, Note_off_c, 3, 55, 61
5, 326396, Note_off_c, 3, 50, 61
5, 326400, Note_on_c, 3, 60, 62
5, 326400, Note_on_c, 3, 57, 62
5, 326400, Note_on_c, 3, 50, 62
5, 326588, Note_off_c, 3, 60, 61
5, 326588, Note_off_c, 3, 57, 61
5, 326588, Note_off_c, 3, 50, 61
5, 326592, Note_on_c, 3, 60, 62
5, 326592, Note_on_c, 3, 57, 62
5, 326592, Note_on_c, 3, 50, 62
5, 326780, Note_off_c, 3, 60, 61
5, 326780, Note_off_c, 3, 57, 61
5, 326780, Note_off_c, 3, 50, 61
5, 326784, Note_on_c, 3, 60, 62
5, 326784, Note_on_c, 3, 57, 62
5, 326784, Note_on_c, 3, 50, 62
5, 326972, Note_off_c, 3, 60, 61
5, 326972, Note_off_c, 3, 57, 61
5, 326972, Note_off_c, 3, 50, 61
5, 326976, Note_on_c, 3, 60, 62
5, 326976, Note_on_c, 3, 57, 62
5, 326976, Note_on_c, 3, 50, 62
5, 327164, Note_off_c, 3, 60, 61
5, 327164, Note_off_c, 3, 57, 61
5, 327164, Note_off_c, 3, 50, 61
5, 327168, Note_on_c, 3, 59, 62
5, 327168, Note_on_c, 3, 55, 62
5, 327356, Note_off_c, 3, 59, 61
5, 327356, Note_off_c, 3, 55, 61
5, 327360, Note_on_c, 3, 59, 62
5, 327360, Note_on_c, 3, 55, 62
5, 327548, Note_off_c, 3, 59, 61
5, 327548, Note_off_c, 3, 55, 61
5, 327552, Note_on_c, 3, 52, 62
5, 327740, Note_off_c, 3, 52, 61
5, 327744, Note_on_c, 3, 52, 62
5, 327932, Note_off_c, 3, 52, 61
5, 327936, Note_on_c, 3, 45, 62
5, 328124, Note_off_c, 3, 45, 61
5, 328128, Note_on_c, 3, 45, 62
5, 328316, Note_off_c, 3, 45, 61
5, 328320, Note_on_c, 3, 43, 63
5, 328508, Note_off_c, 3, 43, 61
5, 328512, Note_on_c, 3, 43, 63
5, 328700, Note_off_c, 3, 43, 61
5, 328704, Note_on_c, 3, 48, 62
5, 328892, Note_off_c, 3, 48, 61
5, 328896, Note_on_c, 3, 48, 62
5, 329084, Note_off_c, 3, 48, 61
5, 329088, Note_on_c, 3, 45, 62
5, 329276, Note_off_c, 3, 45, 61
5, 329280, Note_on_c, 3, 45, 62
5, 329468, Note_off_c, 3, 45, 61
5, 329472, Note_on_c, 3, 50, 62
5, 329660, Note_off_c, 3, 50, 61
5, 329664, Note_on_c, 3, 50, 62
5, 329852, Note_off_c, 3, 50, 61
5, 329856, Note_on_c, 3, 47, 62
5, 330044, Note_off_c, 3, 47, 61
5, 330048, Note_on_c, 3, 47, 62
5, 330236, Note_off_c, 3, 47, 61
5, 330240, Note_on_c, 3, 57, 62
5, 330240, Note_on_c, 3, 55, 62
5, 330240, Note_on_c, 3, 48, 62
5, 330428, Note_off_c, 3, 57, 61
5, 330428, Note_off_c, 3, 55, 61
5, 330428, Note_off_c, 3, 48, 61
5, 330432, Note_on_c, 3, 57, 62
5, 330432, Note_on_c, 3, 55, 62
5, 330432, Note_on_c, 3, 48, 62
5, 330620, Note_off_c, 3, 57, 61
5, 330620, Note_off_c, 3, 55, 61
5, 330620, Note_off_c, 3, 48, 61
5, 330624, Note_on_c, 3, 57, 62
5, 330624, Note_on_c, 3, 55, 62
5, 330624, Note_on_c, 3, 48, 62
5, 330812, Note_off_c, 3, 57, 61
5, 330812, Note_off_c, 3, 55, 61
5, 330812, Note_off_c, 3, 48, 61
5, 330816, Note_on_c, 3, 57, 62
5, 330816, Note_on_c, 3, 55, 62
5, 330816, Note_on_c, 3, 48, 62
5, 331004, Note_off_c, 3, 57, 61
5, 331004, Note_off_c, 3, 55, 61
5, 331004, Note_off_c, 3, 48, 61
5, 331008, Note_on_c, 3, 57, 62
5, 331008, Note_on_c, 3, 55, 62
5, 331008, Note_on_c, 3, 49, 62
5, 331196, Note_off_c, 3, 57, 61
5, 331196, Note_off_c, 3, 55, 61
5, 331196, Note_off_c, 3, 49, 61
5, 331200, Note_on_c, 3, 57, 62
5, 331200, Note_on_c, 3, 55, 62
5, 331200, Note_on_c, 3, 49, 62
5, 331388, Note_off_c, 3, 57, 61
5, 331388, Note_off_c, 3, 55, 61
5, 331388, Note_off_c, 3, 49, 61
5, 331392, Note_on_c, 3, 57, 62
5, 331392, Note_on_c, 3, 55, 62
5, 331392, Note_on_c, 3, 49, 62
5, 331580, Note_off_c, 3, 57, 61
5, 331580, Note_off_c, 3, 55, 61
5, 331580, Note_off_c, 3, 49, 61
5, 331584, Note_on_c, 3, 57, 62
5, 331584, Note_on_c, 3, 49, 62
5, 331584, Note_on_c, 3, 55, 62
5, 331772, Note_off_c, 3, 57, 61
5, 331772, Note_off_c, 3, 49, 61
5, 331772, Note_off_c, 3, 55, 61
5, 331776, Note_on_c, 3, 59, 62
5, 331776, Note_on_c, 3, 55, 62
5, 331776, Note_on_c, 3, 50, 62
5, 331964, Note_off_c, 3, 59, 61
5, 331964, Note_off_c, 3, 55, 61
5, 331964, Note_off_c, 3, 50, 61
5, 331968, Note_on_c, 3, 59, 62
5, 331968, Note_on_c, 3, 55, 62
5, 331968, Note_on_c, 3, 50, 62
5, 332156, Note_off_c, 3, 59, 61
5, 332156, Note_off_c, 3, 55, 61
5, 332156, Note_off_c, 3, 50, 61
5, 332160, Note_on_c, 3, 59, 62
5, 332160, Note_on_c, 3, 55, 62
5, 332160, Note_on_c, 3, 50, 62
5, 332348, Note_off_c, 3, 59, 61
5, 332348, Note_off_c, 3, 55, 61
5, 332348, Note_off_c, 3, 50, 61
5, 332352, Note_on_c, 3, 59, 62
5, 332352, Note_on_c, 3, 55, 62
5, 332352, Note_on_c, 3, 50, 62
5, 332540, Note_off_c, 3, 59, 61
5, 332540, Note_off_c, 3, 55, 61
5, 332540, Note_off_c, 3, 50, 61
5, 332544, Note_on_c, 3, 60, 62
5, 332544, Note_on_c, 3, 51, 62
5, 332544, Note_on_c, 3, 54, 62
5, 332732, Note_off_c, 3, 60, 61
5, 332732, Note_off_c, 3, 51, 61
5, 332732, Note_off_c, 3, 54, 61
5, 332736, Note_on_c, 3, 60, 62
5, 332736, Note_on_c, 3, 54, 62
5, 332736, Note_on_c, 3, 51, 62
5, 332924, Note_off_c, 3, 60, 61
5, 332924, Note_off_c, 3, 54, 61
5, 332924, Note_off_c, 3, 51, 61
5, 332928, Note_on_c, 3, 60, 62
5, 332928, Note_on_c, 3, 55, 62
5, 332928, Note_on_c, 3, 51, 62
5, 333116, Note_off_c, 3, 60, 61
5, 333116, Note_off_c, 3, 55, 61
5, 333116, Note_off_c, 3, 51, 61
5, 333120, Note_on_c, 3, 60, 62
5, 333120, Note_on_c, 3, 57, 62
5, 333120, Note_on_c, 3, 51, 62
5, 333308, Note_off_c, 3, 60, 61
5, 333308, Note_off_c, 3, 57, 61
5, 333308, Note_off_c, 3, 51, 61
5, 333312, Note_on_c, 3, 59, 62
5, 333312, Note_on_c, 3, 55, 62
5, 333312, Note_on_c, 3, 52, 62
5, 333500, Note_off_c, 3, 59, 61
5, 333500, Note_off_c, 3, 55, 61
5, 333500, Note_off_c, 3, 52, 61
5, 333504, Note_on_c, 3, 59, 62
5, 333504, Note_on_c, 3, 55, 62
5, 333504, Note_on_c, 3, 52, 62
5, 333692, Note_off_c, 3, 59, 61
5, 333692, Note_off_c, 3, 55, 61
5, 333692, Note_off_c, 3, 52, 61
5, 333696, Note_on_c, 3, 59, 62
5, 333696, Note_on_c, 3, 55, 62
5, 333696, Note_on_c, 3, 52, 62
5, 333884, Note_off_c, 3, 59, 61
5, 333884, Note_off_c, 3, 55, 61
5, 333884, Note_off_c, 3, 52, 61
5, 333888, Note_on_c, 3, 59, 62
5, 333888, Note_on_c, 3, 55, 62
5, 333888, Note_on_c, 3, 52, 62
5, 334076, Note_off_c, 3, 59, 61
5, 334076, Note_off_c, 3, 55, 61
5, 334076, Note_off_c, 3, 52, 61
5, 334080, Note_on_c, 3, 55, 62
5, 334080, Note_on_c, 3, 51, 62
5, 334268, Note_off_c, 3, 55, 61
5, 334268, Note_off_c, 3, 51, 61
5, 334272, Note_on_c, 3, 55, 62
5, 334272, Note_on_c, 3, 51, 62
5, 334460, Note_off_c, 3, 55, 61
5, 334460, Note_off_c, 3, 51, 61
5, 334464, Note_on_c, 3, 55, 62
5, 334464, Note_on_c, 3, 51, 62
5, 334652, Note_off_c, 3, 55, 61
5, 334652, Note_off_c, 3, 51, 61
5, 334656, Note_on_c, 3, 55, 62
5, 334656, Note_on_c, 3, 51, 62
5, 334844, Note_off_c, 3, 55, 61
5, 334844, Note_off_c, 3, 51, 61
5, 334848, Note_on_c, 3, 55, 62
5, 334848, Note_on_c, 3, 50, 62
5, 335036, Note_off_c, 3, 55, 61
5, 335036, Note_off_c, 3, 50, 61
5, 335040, Note_on_c, 3, 59, 62
5, 335040, Note_on_c, 3, 55, 62
5, 335040, Note_on_c, 3, 50, 62
5, 335228, Note_off_c, 3, 59, 61
5, 335228, Note_off_c, 3, 55, 61
5, 335228, Note_off_c, 3, 50, 61
5, 335232, Note_on_c, 3, 59, 62
5, 335232, Note_on_c, 3, 55, 62
5, 335232, Note_on_c, 3, 50, 62
5, 335420, Note_off_c, 3, 59, 61
5, 335420, Note_off_c, 3, 55, 61
5, 335420, Note_off_c, 3, 50, 61
5, 335424, Note_on_c, 3, 59, 62
5, 335424, Note_on_c, 3, 55, 62
5, 335424, Note_on_c, 3, 50, 62
5, 335612, Note_off_c, 3, 59, 61
5, 335612, Note_off_c, 3, 55, 61
5, 335612, Note_off_c, 3, 50, 61
5, 335616, Note_on_c, 3, 55, 62
5, 335616, Note_on_c, 3, 49, 62
5, 335804, Note_off_c, 3, 55, 61
5, 335804, Note_off_c, 3, 49, 61
5, 335808, Note_on_c, 3, 55, 62
5, 335808, Note_on_c, 3, 49, 62
5, 335996, Note_off_c, 3, 55, 61
5, 335996, Note_off_c, 3, 49, 61
5, 336000, Note_on_c, 3, 55, 62
5, 336000, Note_on_c, 3, 49, 62
5, 336188, Note_off_c, 3, 55, 61
5, 336188, Note_off_c, 3, 49, 61
5, 336192, Note_on_c, 3, 55, 62
5, 336192, Note_on_c, 3, 49, 62
5, 336380, Note_off_c, 3, 55, 61
5, 336380, Note_off_c, 3, 49, 61
5, 336384, Note_on_c, 3, 57, 62
5, 336384, Note_on_c, 3, 55, 62
5, 336384, Note_on_c, 3, 48, 62
5, 336572, Note_off_c, 3, 57, 61
5, 336572, Note_off_c, 3, 55, 61
5, 336572, Note_off_c, 3, 48, 61
5, 336576, Note_on_c, 3, 57, 62
5, 336576, Note_on_c, 3, 55, 62
5, 336576, Note_on_c, 3, 48, 62
5, 336764, Note_off_c, 3, 57, 61
5, 336764, Note_off_c, 3, 55, 61
5, 336764, Note_off_c, 3, 48, 61
5, 336768, Note_on_c, 3, 57, 62
5, 336768, Note_on_c, 3, 55, 62
5, 336768, Note_on_c, 3, 48, 62
5, 336956, Note_off_c, 3, 57, 61
5, 336956, Note_off_c, 3, 55, 61
5, 336956, Note_off_c, 3, 48, 61
5, 336960, Note_on_c, 3, 57, 62
5, 336960, Note_on_c, 3, 55, 62
5, 336960, Note_on_c, 3, 48, 62
5, 337148, Note_off_c, 3, 57, 61
5, 337148, Note_off_c, 3, 55, 61
5, 337148, Note_off_c, 3, 48, 61
5, 337152, Note_on_c, 3, 58, 62
5, 337152, Note_on_c, 3, 55, 62
5, 337152, Note_on_c, 3, 48, 62
5, 337340, Note_off_c, 3, 58, 61
5, 337340, Note_off_c, 3, 55, 61
5, 337340, Note_off_c, 3, 48, 61
5, 337344, Note_on_c, 3, 58, 62
5, 337344, Note_on_c, 3, 55, 62
5, 337344, Note_on_c, 3, 48, 62
5, 337532, Note_off_c, 3, 58, 61
5, 337532, Note_off_c, 3, 55, 61
5, 337532, Note_off_c, 3, 48, 61
5, 337536, Note_on_c, 3, 58, 62
5, 337536, Note_on_c, 3, 48, 62
5, 337536, Note_on_c, 3, 51, 62
5, 337724, Note_off_c, 3, 58, 61
5, 337724, Note_off_c, 3, 48, 61
5, 337724, Note_off_c, 3, 51, 61
5, 337728, Note_on_c, 3, 58, 62
5, 337728, Note_on_c, 3, 48, 62
5, 337728, Note_on_c, 3, 52, 62
5, 337916, Note_off_c, 3, 58, 61
5, 337916, Note_off_c, 3, 48, 61
5, 337916, Note_off_c, 3, 52, 61
5, 337920, Note_on_c, 3, 59, 62
5, 337920, Note_on_c, 3, 52, 62
5, 337920, Note_on_c, 3, 47, 62
5, 338108, Note_off_c, 3, 59, 61
5, 338108, Note_off_c, 3, 52, 61
5, 338108, Note_off_c, 3, 47, 61
5, 338112, Note_on_c, 3, 59, 62
5, 338112, Note_on_c, 3, 54, 62
5, 338112, Note_on_c, 3, 47, 62
5, 338300, Note_off_c, 3, 59, 61
5, 338300, Note_off_c, 3, 54, 61
5, 338300, Note_off_c, 3, 47, 61
5, 338304, Note_on_c, 3, 59, 62
5, 338304, Note_on_c, 3, 55, 62
5, 338304, Note_on_c, 3, 47, 62
5, 338492, Note_off_c, 3, 59, 61
5, 338492, Note_off_c, 3, 55, 61
5, 338492, Note_off_c, 3, 47, 61
5, 338496, Note_on_c, 3, 59, 62
5, 338496, Note_on_c, 3, 54, 62
5, 338496, Note_on_c, 3, 47, 62
5, 338684, Note_off_c, 3, 59, 61
5, 338684, Note_off_c, 3, 54, 61
5, 338684, Note_off_c, 3, 47, 61
5, 338688, Note_on_c, 3, 59, 62
5, 338688, Note_on_c, 3, 55, 62
5, 338688, Note_on_c, 3, 47, 62
5, 338876, Note_off_c, 3, 59, 61
5, 338876, Note_off_c, 3, 55, 61
5, 338876, Note_off_c, 3, 47, 61
5, 338880, Note_on_c, 3, 59, 62
5, 338880, Note_on_c, 3, 47, 62
5, 338880, Note_on_c, 3, 55, 62
5, 339068, Note_off_c, 3, 59, 61
5, 339068, Note_off_c, 3, 47, 61
5, 339068, Note_off_c, 3, 55, 61
5, 339072, Note_on_c, 3, 59, 62
5, 339072, Note_on_c, 3, 51, 62
5, 339072, Note_on_c, 3, 47, 62
5, 339260, Note_off_c, 3, 59, 61
5, 339260, Note_off_c, 3, 51, 61
5, 339260, Note_off_c, 3, 47, 61
5, 339264, Note_on_c, 3, 59, 62
5, 339264, Note_on_c, 3, 52, 62
5, 339264, Note_on_c, 3, 47, 62
5, 339452, Note_off_c, 3, 59, 61
5, 339452, Note_off_c, 3, 52, 61
5, 339452, Note_off_c, 3, 47, 61
5, 339456, Note_on_c, 3, 61, 62
5, 339456, Note_on_c, 3, 52, 62
5, 339456, Note_on_c, 3, 46, 62
5, 339644, Note_off_c, 3, 61, 61
5, 339644, Note_off_c, 3, 52, 61
5, 339644, Note_off_c, 3, 46, 61
5, 339648, Note_on_c, 3, 61, 62
5, 339648, Note_on_c, 3, 54, 62
5, 339648, Note_on_c, 3, 46, 62
5, 339836, Note_off_c, 3, 61, 61
5, 339836, Note_off_c, 3, 54, 61
5, 339836, Note_off_c, 3, 46, 61
5, 339840, Note_on_c, 3, 46, 62
5, 339840, Note_on_c, 3, 55, 62
5, 339840, Note_on_c, 3, 61, 62
5, 340028, Note_off_c, 3, 46, 61
5, 340028, Note_off_c, 3, 55, 61
5, 340028, Note_off_c, 3, 61, 61
5, 340032, Note_on_c, 3, 61, 62
5, 340032, Note_on_c, 3, 54, 62
5, 340032, Note_on_c, 3, 46, 62
5, 340220, Note_off_c, 3, 61, 61
5, 340220, Note_off_c, 3, 54, 61
5, 340220, Note_off_c, 3, 46, 61
5, 340224, Note_on_c, 3, 59, 62
5, 340224, Note_on_c, 3, 55, 62
5, 340224, Note_on_c, 3, 47, 62
5, 340412, Note_off_c, 3, 59, 61
5, 340412, Note_off_c, 3, 55, 61
5, 340412, Note_off_c, 3, 47, 61
5, 340416, Note_on_c, 3, 59, 62
5, 340416, Note_on_c, 3, 55, 62
5, 340416, Note_on_c, 3, 47, 62
5, 340604, Note_off_c, 3, 59, 61
5, 340604, Note_off_c, 3, 55, 61
5, 340604, Note_off_c, 3, 47, 61
5, 340608, Note_on_c, 3, 59, 62
5, 340608, Note_on_c, 3, 51, 62
5, 340608, Note_on_c, 3, 47, 62
5, 340796, Note_off_c, 3, 59, 61
5, 340796, Note_off_c, 3, 51, 61
5, 340796, Note_off_c, 3, 47, 61
5, 340800, Note_on_c, 3, 59, 62
5, 340800, Note_on_c, 3, 52, 62
5, 340800, Note_on_c, 3, 47, 62
5, 340988, Note_off_c, 3, 59, 61
5, 340988, Note_off_c, 3, 52, 61
5, 340988, Note_off_c, 3, 47, 61
5, 340992, Note_on_c, 3, 57, 62
5, 340992, Note_on_c, 3, 52, 62
5, 340992, Note_on_c, 3, 48, 62
5, 341180, Note_off_c, 3, 48, 61
5, 341184, Note_on_c, 3, 48, 62
5, 341372, Note_off_c, 3, 57, 61
5, 341372, Note_off_c, 3, 52, 61
5, 341372, Note_off_c, 3, 48, 61
5, 341376, Note_on_c, 3, 48, 62
5, 341376, Note_on_c, 3, 52, 62
5, 341564, Note_off_c, 3, 48, 61
5, 341568, Note_on_c, 3, 48, 62
5, 341756, Note_off_c, 3, 52, 61
5, 341756, Note_off_c, 3, 48, 61
5, 341760, Note_on_c, 3, 48, 62
5, 341760, Note_on_c, 3, 51, 62
5, 341948, Note_off_c, 3, 48, 61
5, 341952, Note_on_c, 3, 48, 62
5, 342140, Note_off_c, 3, 51, 61
5, 342140, Note_off_c, 3, 48, 61
5, 342144, Note_on_c, 3, 48, 62
5, 342144, Note_on_c, 3, 52, 62
5, 342332, Note_off_c, 3, 48, 61
5, 342336, Note_on_c, 3, 48, 62
5, 342524, Note_off_c, 3, 52, 61
5, 342528, Note_on_c, 3, 54, 62
5, 342528, Note_on_c, 3, 47, 62
5, 342532, Note_off_c, 3, 48, 61
5, 342908, Note_off_c, 3, 54, 61
5, 342908, Note_off_c, 3, 47, 61
5, 343296, Note_on_c, 3, 47, 62
5, 343676, Note_off_c, 3, 47, 61
5, 344064, Note_on_c, 3, 47, 62
5, 344444, Note_off_c, 3, 47, 61
5, 344832, Note_on_c, 3, 47, 62
5, 344844, Note_on_c, 3, 64, 62
5, 345024, Note_on_c, 3, 64, 62
5, 345032, Note_off_c, 3, 64, 61
5, 345212, Note_off_c, 3, 47, 61
5, 345212, Note_off_c, 3, 64, 61
5, 345216, Note_on_c, 3, 64, 62
5, 345404, Note_off_c, 3, 64, 61
5, 345408, Note_on_c, 3, 64, 62
5, 345596, Note_off_c, 3, 64, 61
5, 345600, Note_on_c, 3, 47, 62
5, 345980, Note_off_c, 3, 47, 61
5, 346368, Note_on_c, 3, 47, 62
5, 346368, Note_on_c, 3, 35, 67
5, 346748, Note_off_c, 3, 47, 61
5, 346748, Note_off_c, 3, 35, 61
5, 347136, Note_on_c, 3, 47, 62
5, 347136, Note_on_c, 3, 35, 67
5, 347516, Note_off_c, 3, 47, 61
5, 347516, Note_off_c, 3, 35, 61
5, 362496, Note_on_c, 3, 64, 62
5, 362496, Note_on_c, 3, 52, 62
5, 362496, Note_on_c, 3, 59, 62
5, 362496, Note_on_c, 3, 55, 62
5, 363260, Note_off_c, 3, 59, 61
5, 363260, Note_off_c, 3, 55, 61
5, 363264, Note_on_c, 3, 55, 62
5, 363264, Note_on_c, 3, 52, 62
5, 363644, Note_off_c, 3, 52, 61
5, 363644, Note_off_c, 3, 55, 61
5, 364028, Note_off_c, 3, 64, 61
5, 364028, Note_off_c, 3, 52, 61
5, 364416, Note_on_c, 3, 48, 62
5, 364416, Note_on_c, 3, 45, 62
5, 364796, Note_off_c, 3, 48, 61
5, 364796, Note_off_c, 3, 45, 61
5, 364800, Note_on_c, 3, 54, 62
5, 364800, Note_on_c, 3, 48, 62
5, 365180, Note_off_c, 3, 54, 61
5, 365180, Note_off_c, 3, 48, 61
5, 365184, Note_on_c, 3, 57, 62
5, 365184, Note_on_c, 3, 54, 62
5, 365564, Note_off_c, 3, 57, 61
5, 365564, Note_off_c, 3, 54, 61
5, 365568, Note_on_c, 3, 63, 62
5, 365568, Note_on_c, 3, 51, 62
5, 365568, Note_on_c, 3, 60, 62
5, 365568, Note_on_c, 3, 57, 62
5, 366332, Note_off_c, 3, 60, 61
5, 366332, Note_off_c, 3, 57, 61
5, 366336, Note_on_c, 3, 57, 62
5, 366336, Note_on_c, 3, 54, 62
5, 366716, Note_off_c, 3, 57, 61
5, 366716, Note_off_c, 3, 54, 61
5, 367100, Note_off_c, 3, 63, 61
5, 367100, Note_off_c, 3, 51, 61
5, 367104, Note_on_c, 3, 64, 62
5, 367104, Note_on_c, 3, 52, 62
5, 367292, Note_off_c, 3, 64, 61
5, 367292, Note_off_c, 3, 52, 61
5, 369408, Note_on_c, 3, 47, 62
5, 369596, Note_off_c, 3, 47, 61
5, 369600, Note_on_c, 3, 66, 62
5, 369600, Note_on_c, 3, 63, 62
5, 369600, Note_on_c, 3, 59, 62
5, 369788, Note_off_c, 3, 66, 61
5, 369788, Note_off_c, 3, 63, 61
5, 369788, Note_off_c, 3, 59, 61
5, 369792, Note_on_c, 3, 66, 62
5, 369792, Note_on_c, 3, 63, 62
5, 369792, Note_on_c, 3, 59, 62
5, 369980, Note_off_c, 3, 66, 61
5, 369980, Note_off_c, 3, 63, 61
5, 369980, Note_off_c, 3, 59, 61
5, 369984, Note_on_c, 3, 66, 62
5, 369984, Note_on_c, 3, 63, 62
5, 369984, Note_on_c, 3, 59, 62
5, 370172, Note_off_c, 3, 66, 61
5, 370172, Note_off_c, 3, 63, 61
5, 370172, Note_off_c, 3, 59, 61
5, 370176, Note_on_c, 3, 52, 62
5, 370556, Note_off_c, 3, 52, 61
5, 373248, Note_on_c, 3, 52, 62
5, 373248, Note_on_c, 3, 40, 64
5, 373628, Note_off_c, 3, 52, 61
5, 373628, Note_off_c, 3, 40, 61
5, 374016, Note_on_c, 3, 52, 62
5, 374016, Note_on_c, 3, 40, 64
5, 374396, Note_off_c, 3, 52, 61
5, 374396, Note_off_c, 3, 40, 61
5, 374784, Note_on_c, 3, 52, 62
5, 374784, Note_on_c, 3, 40, 64
5, 375164, Note_off_c, 3, 52, 61
5, 375164, Note_off_c, 3, 40, 61
5, 375552, Note_on_c, 3, 40, 62
5, 375552, Note_on_c, 3, 52, 64
5, 375932, Note_off_c, 3, 40, 61
5, 375932, Note_off_c, 3, 52, 61
5, 375936, Note_on_c, 3, 52, 62
5, 375936, Note_on_c, 3, 40, 64
5, 376316, Note_off_c, 3, 52, 61
5, 376316, Note_off_c, 3, 40, 61
5, 376320, Note_on_c, 3, 45, 62
5, 376320, Note_on_c, 3, 33, 68
5, 376700, Note_off_c, 3, 45, 61
5, 376700, Note_off_c, 3, 33, 61
5, 377088, Note_on_c, 3, 61, 62
5, 377088, Note_on_c, 3, 58, 62
5, 377276, Note_off_c, 3, 61, 61
5, 377280, Note_on_c, 3, 62, 62
5, 377468, Note_off_c, 3, 62, 61
5, 377472, Note_on_c, 3, 64, 62
5, 377660, Note_off_c, 3, 64, 61
5, 377664, Note_on_c, 3, 61, 62
5, 377852, Note_off_c, 3, 58, 61
5, 377852, Note_off_c, 3, 61, 61
5, 377856, Note_on_c, 3, 57, 62
5, 377856, Note_on_c, 3, 67, 62
5, 378236, Note_off_c, 3, 57, 61
5, 378236, Note_off_c, 3, 67, 61
5, 378624, Note_on_c, 3, 58, 62
5, 378624, Note_on_c, 3, 61, 62
5, 378812, Note_off_c, 3, 61, 61
5, 378816, Note_on_c, 3, 62, 62
5, 379004, Note_off_c, 3, 62, 61
5, 379008, Note_on_c, 3, 64, 62
5, 379196, Note_off_c, 3, 64, 61
5, 379200, Note_on_c, 3, 61, 62
5, 379388, Note_off_c, 3, 58, 61
5, 379388, Note_off_c, 3, 61, 61
5, 379392, Note_on_c, 3, 57, 62
5, 379392, Note_on_c, 3, 45, 62
5, 379772, Note_off_c, 3, 57, 61
5, 379772, Note_off_c, 3, 45, 61
5, 380160, Note_on_c, 3, 57, 62
5, 380160, Note_on_c, 3, 45, 62
5, 380540, Note_off_c, 3, 57, 61
5, 380540, Note_off_c, 3, 45, 61
5, 380928, Note_on_c, 3, 57, 62
5, 380928, Note_on_c, 3, 45, 62
5, 381308, Note_off_c, 3, 57, 61
5, 381308, Note_off_c, 3, 45, 61
5, 381696, Note_on_c, 3, 57, 62
5, 381696, Note_on_c, 3, 45, 62
5, 382076, Note_off_c, 3, 57, 61
5, 382076, Note_off_c, 3, 45, 61
5, 382080, Note_on_c, 3, 57, 62
5, 382080, Note_on_c, 3, 45, 62
5, 382460, Note_off_c, 3, 57, 61
5, 382460, Note_off_c, 3, 45, 61
5, 382464, Note_on_c, 3, 50, 62
5, 382464, Note_on_c, 3, 38, 65
5, 382844, Note_off_c, 3, 50, 61
5, 382844, Note_off_c, 3, 38, 61
5, 385536, Note_on_c, 3, 50, 62
5, 385536, Note_on_c, 3, 38, 65
5, 385916, Note_off_c, 3, 50, 61
5, 385916, Note_off_c, 3, 38, 61
5, 385920, Note_on_c, 3, 57, 62
5, 385920, Note_on_c, 3, 54, 62
5, 386300, Note_off_c, 3, 57, 61
5, 386300, Note_off_c, 3, 54, 61
5, 386304, Note_on_c, 3, 50, 62
5, 386304, Note_on_c, 3, 38, 65
5, 386684, Note_off_c, 3, 50, 61
5, 386684, Note_off_c, 3, 38, 61
5, 387072, Note_on_c, 3, 50, 62
5, 387072, Note_on_c, 3, 38, 65
5, 387452, Note_off_c, 3, 50, 61
5, 387452, Note_off_c, 3, 38, 61
5, 387840, Note_on_c, 3, 50, 62
5, 387840, Note_on_c, 3, 38, 65
5, 388220, Note_off_c, 3, 50, 61
5, 388220, Note_off_c, 3, 38, 61
5, 388224, Note_on_c, 3, 50, 62
5, 388224, Note_on_c, 3, 38, 65
5, 388604, Note_off_c, 3, 50, 61
5, 388604, Note_off_c, 3, 38, 61
5, 388608, Note_on_c, 3, 43, 62
5, 388608, Note_on_c, 3, 31, 69
5, 388988, Note_off_c, 3, 43, 61
5, 388988, Note_off_c, 3, 31, 61
5, 389376, Note_on_c, 3, 59, 62
5, 389376, Note_on_c, 3, 56, 62
5, 389564, Note_off_c, 3, 59, 61
5, 389568, Note_on_c, 3, 60, 62
5, 389756, Note_off_c, 3, 60, 61
5, 389760, Note_on_c, 3, 62, 62
5, 389948, Note_off_c, 3, 62, 61
5, 389952, Note_on_c, 3, 59, 62
5, 390140, Note_off_c, 3, 56, 61
5, 390140, Note_off_c, 3, 59, 61
5, 390144, Note_on_c, 3, 65, 62
5, 390144, Note_on_c, 3, 55, 62
5, 390524, Note_off_c, 3, 65, 61
5, 390524, Note_off_c, 3, 55, 61
5, 390912, Note_on_c, 3, 59, 62
5, 390912, Note_on_c, 3, 55, 62
5, 391100, Note_off_c, 3, 59, 61
5, 391104, Note_on_c, 3, 60, 62
5, 391292, Note_off_c, 3, 60, 61
5, 391296, Note_on_c, 3, 62, 62
5, 391484, Note_off_c, 3, 62, 61
5, 391488, Note_on_c, 3, 59, 62
5, 391676, Note_off_c, 3, 55, 61
5, 391676, Note_off_c, 3, 59, 61
5, 391680, Note_on_c, 3, 60, 62
5, 391680, Note_on_c, 3, 48, 62
5, 392060, Note_off_c, 3, 60, 61
5, 392060, Note_off_c, 3, 48, 61
5, 392448, Note_on_c, 3, 61, 62
5, 392448, Note_on_c, 3, 49, 62
5, 393212, Note_off_c, 3, 61, 61
5, 393212, Note_off_c, 3, 49, 61
5, 393216, Note_on_c, 3, 60, 62
5, 393216, Note_on_c, 3, 48, 62
5, 393596, Note_off_c, 3, 60, 61
5, 393596, Note_off_c, 3, 48, 61
5, 393984, Note_on_c, 3, 60, 62
5, 393984, Note_on_c, 3, 48, 62
5, 394748, Note_off_c, 3, 60, 61
5, 394748, Note_off_c, 3, 48, 61
5, 394752, Note_on_c, 3, 65, 62
5, 394752, Note_on_c, 3, 53, 62
5, 395132, Note_off_c, 3, 65, 61
5, 395132, Note_off_c, 3, 53, 61
5, 395520, Note_on_c, 3, 62, 62
5, 395900, Note_off_c, 3, 62, 61
5, 395904, Note_on_c, 3, 60, 62
5, 396284, Note_off_c, 3, 60, 61
5, 396288, Note_on_c, 3, 58, 62
5, 396668, Note_off_c, 3, 58, 61
5, 396672, Note_on_c, 3, 56, 62
5, 397052, Note_off_c, 3, 56, 61
5, 397056, Note_on_c, 3, 55, 62
5, 397436, Note_off_c, 3, 55, 61
5, 397440, Note_on_c, 3, 53, 62
5, 397820, Note_off_c, 3, 53, 61
5, 397824, Note_on_c, 3, 51, 62
5, 397824, Note_on_c, 3, 51, 62
5, 398588, Note_off_c, 3, 51, 61
5, 398588, Note_off_c, 3, 51, 61
5, 398592, Note_on_c, 3, 60, 62
5, 398592, Note_on_c, 3, 53, 62
5, 398972, Note_off_c, 3, 60, 61
5, 398972, Note_off_c, 3, 53, 61
5, 398976, Note_on_c, 3, 58, 62
5, 398976, Note_on_c, 3, 55, 62
5, 399356, Note_off_c, 3, 58, 61
5, 399356, Note_off_c, 3, 55, 61
5, 399360, Note_on_c, 3, 56, 62
5, 399360, Note_on_c, 3, 56, 62
5, 399740, Note_off_c, 3, 56, 61
5, 399740, Note_off_c, 3, 56, 61
5, 399744, Note_on_c, 3, 55, 62
5, 400124, Note_off_c, 3, 55, 61
5, 400128, Note_on_c, 3, 53, 62
5, 400508, Note_off_c, 3, 53, 61
5, 400512, Note_on_c, 3, 51, 62
5, 400892, Note_off_c, 3, 51, 61
5, 400896, Note_on_c, 3, 50, 62
5, 400896, Note_on_c, 3, 50, 62
5, 401660, Note_off_c, 3, 50, 61
5, 401660, Note_off_c, 3, 50, 61
5, 401664, Note_on_c, 3, 59, 62
5, 401664, Note_on_c, 3, 51, 62
5, 402044, Note_off_c, 3, 59, 61
5, 402044, Note_off_c, 3, 51, 61
5, 402048, Note_on_c, 3, 57, 62
5, 402048, Note_on_c, 3, 53, 62
5, 402428, Note_off_c, 3, 57, 61
5, 402428, Note_off_c, 3, 53, 61
5, 402432, Note_on_c, 3, 55, 62
5, 402432, Note_on_c, 3, 55, 62
5, 402812, Note_off_c, 3, 55, 61
5, 402816, Note_on_c, 3, 53, 62
5, 403196, Note_off_c, 3, 55, 61
5, 403196, Note_off_c, 3, 53, 61
5, 403200, Note_on_c, 3, 51, 62
5, 403200, Note_on_c, 3, 43, 62
5, 403580, Note_off_c, 3, 51, 61
5, 403584, Note_on_c, 3, 50, 62
5, 403964, Note_off_c, 3, 43, 61
5, 403964, Note_off_c, 3, 50, 61
5, 403968, Note_on_c, 3, 60, 62
5, 403968, Note_on_c, 3, 48, 62
5, 404348, Note_off_c, 3, 48, 61
5, 404736, Note_on_c, 3, 58, 62
5, 405116, Note_off_c, 3, 58, 61
5, 405504, Note_on_c, 3, 56, 62
5, 405884, Note_off_c, 3, 56, 61
5, 406272, Note_on_c, 3, 52, 62
5, 406652, Note_off_c, 3, 52, 61
5, 407040, Note_on_c, 3, 53, 62
5, 407420, Note_off_c, 3, 53, 61
5, 407808, Note_on_c, 3, 51, 62
5, 408188, Note_off_c, 3, 51, 61
5, 408576, Note_on_c, 3, 50, 62
5, 408956, Note_off_c, 3, 50, 61
5, 409344, Note_on_c, 3, 53, 62
5, 409724, Note_off_c, 3, 53, 61
5, 410112, Note_on_c, 3, 51, 62
5, 410492, Note_off_c, 3, 51, 61
5, 410880, Note_on_c, 3, 47, 62
5, 411260, Note_off_c, 3, 47, 61
5, 411648, Note_on_c, 3, 48, 62
5, 412028, Note_off_c, 3, 60, 61
5, 412028, Note_off_c, 3, 48, 61
5, 414720, Note_on_c, 3, 67, 62
5, 414720, Note_on_c, 3, 55, 62
5, 417788, Note_off_c, 3, 55, 61
5, 417788, Note_off_c, 3, 67, 61
5, 417792, Note_on_c, 3, 55, 62
5, 417792, Note_on_c, 3, 62, 62
5, 417792, Note_on_c, 3, 59, 62
5, 419324, Note_off_c, 3, 62, 61
5, 419324, Note_off_c, 3, 59, 61
5, 419328, Note_on_c, 3, 63, 62
5, 419328, Note_on_c, 3, 60, 62
5, 420860, Note_off_c, 3, 55, 61
5, 420860, Note_off_c, 3, 63, 61
5, 420860, Note_off_c, 3, 60, 61
5, 423936, Note_on_c, 3, 55, 62
5, 423936, Note_on_c, 3, 43, 63
5, 424128, Note_on_c, 3, 67, 62
5, 424128, Note_on_c, 3, 64, 62
5, 424316, Note_off_c, 3, 55, 61
5, 424316, Note_off_c, 3, 43, 61
5, 424316, Note_off_c, 3, 67, 61
5, 424316, Note_off_c, 3, 64, 61
5, 424320, Note_on_c, 3, 67, 62
5, 424320, Note_on_c, 3, 64, 62
5, 424508, Note_off_c, 3, 67, 61
5, 424508, Note_off_c, 3, 64, 61
5, 424512, Note_on_c, 3, 67, 62
5, 424512, Note_on_c, 3, 64, 62
5, 424700, Note_off_c, 3, 67, 61
5, 424700, Note_off_c, 3, 64, 61
5, 424704, Note_on_c, 3, 55, 62
5, 424896, Note_on_c, 3, 65, 62
5, 424896, Note_on_c, 3, 62, 62
5, 425084, Note_off_c, 3, 55, 61
5, 425084, Note_off_c, 3, 65, 61
5, 425084, Note_off_c, 3, 62, 61
5, 425088, Note_on_c, 3, 65, 62
5, 425088, Note_on_c, 3, 62, 62
5, 425276, Note_off_c, 3, 65, 61
5, 425276, Note_off_c, 3, 62, 61
5, 425280, Note_on_c, 3, 65, 62
5, 425280, Note_on_c, 3, 62, 62
5, 425468, Note_off_c, 3, 65, 61
5, 425468, Note_off_c, 3, 62, 61
5, 425472, Note_on_c, 3, 55, 62
5, 425472, Note_on_c, 3, 43, 63
5, 425664, Note_on_c, 3, 64, 62
5, 425664, Note_on_c, 3, 60, 62
5, 425852, Note_off_c, 3, 55, 61
5, 425852, Note_off_c, 3, 43, 61
5, 425852, Note_off_c, 3, 64, 61
5, 425852, Note_off_c, 3, 60, 61
5, 425856, Note_on_c, 3, 64, 62
5, 425856, Note_on_c, 3, 60, 62
5, 426044, Note_off_c, 3, 64, 61
5, 426044, Note_off_c, 3, 60, 61
5, 426048, Note_on_c, 3, 64, 62
5, 426048, Note_on_c, 3, 60, 62
5, 426236, Note_off_c, 3, 64, 61
5, 426236, Note_off_c, 3, 60, 61
5, 426240, Note_on_c, 3, 55, 62
5, 426432, Note_on_c, 3, 62, 62
5, 426432, Note_on_c, 3, 59, 62
5, 426620, Note_off_c, 3, 55, 61
5, 426620, Note_off_c, 3, 62, 61
5, 426620, Note_off_c, 3, 59, 61
5, 426624, Note_on_c, 3, 62, 62
5, 426624, Note_on_c, 3, 59, 62
5, 426812, Note_off_c, 3, 62, 61
5, 426812, Note_off_c, 3, 59, 61
5, 426816, Note_on_c, 3, 62, 62
5, 426816, Note_on_c, 3, 59, 62
5, 427004, Note_off_c, 3, 62, 61
5, 427004, Note_off_c, 3, 59, 61
5, 427008, Note_on_c, 3, 48, 62
5, 427008, Note_on_c, 3, 36, 66
5, 427196, Note_off_c, 3, 48, 61
5, 427196, Note_off_c, 3, 36, 61
5, 427392, Note_on_c, 3, 43, 62
5, 427392, Note_on_c, 3, 31, 69
5, 427580, Note_off_c, 3, 43, 61
5, 427580, Note_off_c, 3, 31, 61
5, 427776, Note_on_c, 3, 48, 62
5, 427776, Note_on_c, 3, 36, 66
5, 427964, Note_off_c, 3, 48, 61
5, 427964, Note_off_c, 3, 36, 61
5, 428160, Note_on_c, 3, 40, 64
5, 428348, Note_off_c, 3, 40, 61
5, 428544, Note_on_c, 3, 41, 63
5, 429116, Note_off_c, 3, 41, 61
5, 429120, Note_on_c, 3, 40, 64
5, 429176, Note_off_c, 3, 40, 61
5, 429184, Note_on_c, 3, 38, 65
5, 429240, Note_off_c, 3, 38, 61
5, 429248, Note_on_c, 3, 36, 67
5, 429304, Note_off_c, 3, 36, 61
5, 429312, Note_on_c, 3, 47, 62
5, 429312, Note_on_c, 3, 35, 68
5, 429692, Note_off_c, 3, 47, 61
5, 429692, Note_off_c, 3, 35, 61
5, 429984, Note_on_c, 3, 43, 62
5, 429984, Note_on_c, 3, 31, 69
5, 430076, Note_off_c, 3, 43, 61
5, 430076, Note_off_c, 3, 31, 61
5, 430080, Note_on_c, 3, 47, 62
5, 430080, Note_on_c, 3, 35, 67
5, 430172, Note_off_c, 3, 47, 61
5, 430172, Note_off_c, 3, 35, 61
5, 430464, Note_on_c, 3, 50, 62
5, 430464, Note_on_c, 3, 38, 65
5, 430556, Note_off_c, 3, 50, 61
5, 430556, Note_off_c, 3, 38, 61
5, 430848, Note_on_c, 3, 53, 62
5, 430848, Note_on_c, 3, 41, 62
5, 430940, Note_off_c, 3, 53, 61
5, 430940, Note_off_c, 3, 41, 61
5, 431232, Note_on_c, 3, 50, 62
5, 431232, Note_on_c, 3, 38, 64
5, 431324, Note_off_c, 3, 50, 61
5, 431324, Note_off_c, 3, 38, 61
5, 431616, Note_on_c, 3, 55, 62
5, 431616, Note_on_c, 3, 43, 63
5, 432188, Note_off_c, 3, 55, 61
5, 432188, Note_off_c, 3, 43, 61
5, 432192, Note_on_c, 3, 45, 62
5, 432248, Note_off_c, 3, 45, 61
5, 432256, Note_on_c, 3, 43, 63
5, 432312, Note_off_c, 3, 43, 61
5, 432320, Note_on_c, 3, 41, 64
5, 432376, Note_off_c, 3, 41, 61
5, 432384, Note_on_c, 3, 52, 62
5, 432384, Note_on_c, 3, 40, 65
5, 432764, Note_off_c, 3, 52, 61
5, 432764, Note_off_c, 3, 40, 61
5, 433344, Note_on_c, 3, 60, 62
5, 433344, Note_on_c, 3, 52, 62
5, 433344, Note_on_c, 3, 48, 62
5, 433532, Note_off_c, 3, 60, 61
5, 433532, Note_off_c, 3, 52, 61
5, 433532, Note_off_c, 3, 48, 61
5, 433536, Note_on_c, 3, 60, 62
5, 433536, Note_on_c, 3, 52, 62
5, 433536, Note_on_c, 3, 48, 62
5, 433724, Note_off_c, 3, 60, 61
5, 433724, Note_off_c, 3, 52, 61
5, 433724, Note_off_c, 3, 48, 61
5, 433728, Note_on_c, 3, 60, 62
5, 433728, Note_on_c, 3, 52, 62
5, 433728, Note_on_c, 3, 48, 62
5, 433916, Note_off_c, 3, 60, 61
5, 433916, Note_off_c, 3, 52, 61
5, 433916, Note_off_c, 3, 48, 61
5, 433920, Note_on_c, 3, 60, 62
5, 433920, Note_on_c, 3, 52, 62
5, 433920, Note_on_c, 3, 48, 62
5, 434300, Note_off_c, 3, 60, 61
5, 434300, Note_off_c, 3, 52, 61
5, 434300, Note_off_c, 3, 48, 61
5, 434880, Note_on_c, 3, 55, 62
5, 434880, Note_on_c, 3, 50, 62
5, 434880, Note_on_c, 3, 43, 63
5, 435068, Note_off_c, 3, 55, 61
5, 435068, Note_off_c, 3, 50, 61
5, 435068, Note_off_c, 3, 43, 61
5, 435072, Note_on_c, 3, 55, 62
5, 435072, Note_on_c, 3, 50, 62
5, 435072, Note_on_c, 3, 43, 63
5, 435260, Note_off_c, 3, 55, 61
5, 435260, Note_off_c, 3, 50, 61
5, 435260, Note_off_c, 3, 43, 61
5, 435264, Note_on_c, 3, 55, 62
5, 435264, Note_on_c, 3, 50, 62
5, 435264, Note_on_c, 3, 43, 63
5, 435452, Note_off_c, 3, 55, 61
5, 435452, Note_off_c, 3, 50, 61
5, 435452, Note_off_c, 3, 43, 61
5, 435456, Note_on_c, 3, 55, 62
5, 435456, Note_on_c, 3, 50, 62
5, 435456, Note_on_c, 3, 43, 63
5, 435836, Note_off_c, 3, 55, 61
5, 435836, Note_off_c, 3, 50, 61
5, 435836, Note_off_c, 3, 43, 61
5, 436224, Note_on_c, 3, 60, 62
5, 436224, Note_on_c, 3, 55, 62
5, 436224, Note_on_c, 3, 52, 62
5, 436224, Note_on_c, 3, 48, 62
5, 436604, Note_off_c, 3, 60, 61
5, 436604, Note_off_c, 3, 55, 61
5, 436604, Note_off_c, 3, 52, 61
5, 436604, Note_off_c, 3, 48, 61
5, 436608, Note_on_c, 3, 52, 62
5, 436608, Note_on_c, 3, 48, 62
5, 436608, Note_on_c, 3, 60, 62
5, 436608, Note_on_c, 3, 55, 62
5, 436892, Note_off_c, 3, 52, 61
5, 436892, Note_off_c, 3, 48, 61
5, 436892, Note_off_c, 3, 60, 61
5, 436892, Note_off_c, 3, 55, 61
5, 436896, Note_on_c, 3, 60, 62
5, 436896, Note_on_c, 3, 48, 62
5, 436896, Note_on_c, 3, 55, 62
5, 436896, Note_on_c, 3, 52, 62
5, 436988, Note_off_c, 3, 60, 61
5, 436988, Note_off_c, 3, 48, 61
5, 436988, Note_off_c, 3, 55, 61
5, 436988, Note_off_c, 3, 52, 61
5, 436992, Note_on_c, 3, 55, 62
5, 436992, Note_on_c, 3, 43, 63
5, 437372, Note_off_c, 3, 55, 61
5, 437372, Note_off_c, 3, 43, 61
5, 437376, Note_on_c, 3, 55, 62
5, 437376, Note_on_c, 3, 43, 63
5, 437660, Note_off_c, 3, 55, 61
5, 437660, Note_off_c, 3, 43, 61
5, 437664, Note_on_c, 3, 55, 62
5, 437664, Note_on_c, 3, 43, 63
5, 437756, Note_off_c, 3, 55, 61
5, 437756, Note_off_c, 3, 43, 61
5, 437760, Note_on_c, 3, 60, 62
5, 437760, Note_on_c, 3, 48, 62
5, 438140, Note_off_c, 3, 60, 61
5, 438140, Note_off_c, 3, 48, 61
5, 438144, Note_on_c, 3, 59, 62
5, 438144, Note_on_c, 3, 47, 62
5, 438236, Note_off_c, 3, 59, 61
5, 438236, Note_off_c, 3, 47, 61
5, 438336, Note_on_c, 3, 60, 62
5, 438336, Note_on_c, 3, 48, 62
5, 438428, Note_off_c, 3, 60, 61
5, 438428, Note_off_c, 3, 48, 61
5, 438528, Note_on_c, 3, 55, 62
5, 438528, Note_on_c, 3, 43, 63
5, 438908, Note_off_c, 3, 55, 61
5, 438908, Note_off_c, 3, 43, 61
5, 439488, Note_on_c, 3, 52, 62
5, 439488, Note_on_c, 3, 60, 62
5, 439488, Note_on_c, 3, 48, 62
5, 439676, Note_off_c, 3, 52, 61
5, 439676, Note_off_c, 3, 60, 61
5, 439676, Note_off_c, 3, 48, 61
5, 439680, Note_on_c, 3, 60, 62
5, 439680, Note_on_c, 3, 52, 62
5, 439680, Note_on_c, 3, 48, 62
5, 439868, Note_off_c, 3, 60, 61
5, 439868, Note_off_c, 3, 52, 61
5, 439868, Note_off_c, 3, 48, 61
5, 439872, Note_on_c, 3, 60, 62
5, 439872, Note_on_c, 3, 52, 62
5, 439872, Note_on_c, 3, 48, 62
5, 440060, Note_off_c, 3, 60, 61
5, 440060, Note_off_c, 3, 52, 61
5, 440060, Note_off_c, 3, 48, 61
5, 440064, Note_on_c, 3, 60, 62
5, 440064, Note_on_c, 3, 52, 62
5, 440064, Note_on_c, 3, 48, 62
5, 440444, Note_off_c, 3, 60, 61
5, 440444, Note_off_c, 3, 52, 61
5, 440444, Note_off_c, 3, 48, 61
5, 441024, Note_on_c, 3, 55, 62
5, 441024, Note_on_c, 3, 50, 62
5, 441024, Note_on_c, 3, 43, 63
5, 441212, Note_off_c, 3, 55, 61
5, 441212, Note_off_c, 3, 50, 61
5, 441212, Note_off_c, 3, 43, 61
5, 441216, Note_on_c, 3, 55, 62
5, 441216, Note_on_c, 3, 50, 62
5, 441216, Note_on_c, 3, 43, 63
5, 441404, Note_off_c, 3, 55, 61
5, 441404, Note_off_c, 3, 50, 61
5, 441404, Note_off_c, 3, 43, 61
5, 441408, Note_on_c, 3, 55, 62
5, 441408, Note_on_c, 3, 50, 62
5, 441408, Note_on_c, 3, 43, 63
5, 441596, Note_off_c, 3, 55, 61
5, 441596, Note_off_c, 3, 50, 61
5, 441596, Note_off_c, 3, 43, 61
5, 441600, Note_on_c, 3, 55, 62
5, 441600, Note_on_c, 3, 50, 62
5, 441600, Note_on_c, 3, 43, 63
5, 441980, Note_off_c, 3, 55, 61
5, 441980, Note_off_c, 3, 50, 61
5, 441980, Note_off_c, 3, 43, 61
5, 442368, Note_on_c, 3, 60, 62
5, 442368, Note_on_c, 3, 55, 62
5, 442368, Note_on_c, 3, 52, 62
5, 442368, Note_on_c, 3, 48, 62
5, 442748, Note_off_c, 3, 60, 61
5, 442748, Note_off_c, 3, 55, 61
5, 442748, Note_off_c, 3, 52, 61
5, 442748, Note_off_c, 3, 48, 61
5, 442752, Note_on_c, 3, 55, 62
5, 442752, Note_on_c, 3, 52, 62
5, 442752, Note_on_c, 3, 48, 62
5, 442752, Note_on_c, 3, 60, 62
5, 443036, Note_off_c, 3, 55, 61
5, 443036, Note_off_c, 3, 52, 61
5, 443036, Note_off_c, 3, 48, 61
5, 443036, Note_off_c, 3, 60, 61
5, 443040, Note_on_c, 3, 60, 62
5, 443040, Note_on_c, 3, 55, 62
5, 443040, Note_on_c, 3, 52, 62
5, 443040, Note_on_c, 3, 48, 62
5, 443132, Note_off_c, 3, 60, 61
5, 443132, Note_off_c, 3, 55, 61
5, 443132, Note_off_c, 3, 52, 61
5, 443132, Note_off_c, 3, 48, 61
5, 443136, Note_on_c, 3, 55, 62
5, 443136, Note_on_c, 3, 43, 62
5, 443516, Note_off_c, 3, 55, 61
5, 443516, Note_off_c, 3, 43, 61
5, 443520, Note_on_c, 3, 55, 62
5, 443520, Note_on_c, 3, 43, 62
5, 443900, Note_off_c, 3, 55, 61
5, 443900, Note_off_c, 3, 43, 61
5, 443904, Note_on_c, 3, 48, 86
5, 443904, Note_on_c, 3, 36, 90
5, 444092, Note_off_c, 3, 48, 61
5, 444092, Note_off_c, 3, 36, 61
5, 444288, Note_on_c, 3, 43, 86
5, 444288, Note_on_c, 3, 31, 93
5, 444476, Note_off_c, 3, 43, 61
5, 444476, Note_off_c, 3, 31, 61
5, 444672, Note_on_c, 3, 48, 86
5, 444672, Note_on_c, 3, 36, 90
5, 444860, Note_off_c, 3, 48, 61
5, 444860, Note_off_c, 3, 36, 61
5, 445056, Note_on_c, 3, 52, 86
5, 445056, Note_on_c, 3, 40, 88
5, 445244, Note_off_c, 3, 52, 61
5, 445244, Note_off_c, 3, 40, 61
5, 445440, Note_on_c, 3, 55, 86
5, 445440, Note_on_c, 3, 53, 86
5, 445440, Note_on_c, 3, 41, 87
5, 446012, Note_off_c, 3, 53, 61
5, 446012, Note_off_c, 3, 41, 61
5, 446016, Note_on_c, 3, 52, 86
5, 446076, Note_off_c, 3, 52, 61
5, 446080, Note_on_c, 3, 50, 86
5, 446140, Note_off_c, 3, 50, 61
5, 446144, Note_on_c, 3, 48, 86
5, 446204, Note_off_c, 3, 55, 61
5, 446204, Note_off_c, 3, 48, 61
5, 446208, Note_on_c, 3, 55, 86
5, 446208, Note_on_c, 3, 47, 86
5, 446588, Note_off_c, 3, 55, 61
5, 446588, Note_off_c, 3, 47, 61
5, 446592, Note_on_c, 3, 55, 86
5, 446880, Note_on_c, 3, 43, 86
5, 446972, Note_off_c, 3, 55, 61
5, 446972, Note_off_c, 3, 43, 61
5, 446976, Note_on_c, 3, 55, 86
5, 446976, Note_on_c, 3, 47, 86
5, 447164, Note_off_c, 3, 47, 61
5, 447356, Note_off_c, 3, 55, 61
5, 447360, Note_on_c, 3, 50, 86
5, 447360, Note_on_c, 3, 38, 89
5, 447548, Note_off_c, 3, 50, 61
5, 447548, Note_off_c, 3, 38, 61
5, 447744, Note_on_c, 3, 53, 86
5, 447744, Note_on_c, 3, 41, 87
5, 447932, Note_off_c, 3, 53, 61
5, 447932, Note_off_c, 3, 41, 61
5, 448128, Note_on_c, 3, 50, 86
5, 448128, Note_on_c, 3, 38, 89
5, 448316, Note_off_c, 3, 50, 61
5, 448316, Note_off_c, 3, 38, 61
5, 448512, Note_on_c, 3, 55, 86
5, 448512, Note_on_c, 3, 43, 86
5, 449084, Note_off_c, 3, 55, 61
5, 449084, Note_off_c, 3, 43, 61
5, 449088, Note_on_c, 3, 57, 86
5, 449144, Note_off_c, 3, 57, 61
5, 449152, Note_on_c, 3, 55, 86
5, 449208, Note_off_c, 3, 55, 61
5, 449216, Note_on_c, 3, 53, 86
5, 449272, Note_off_c, 3, 53, 61
5, 449280, Note_on_c, 3, 52, 86
5, 449280, Note_on_c, 3, 40, 86
5, 449660, Note_off_c, 3, 52, 61
5, 449660, Note_off_c, 3, 40, 61
5, 449952, Note_on_c, 3, 55, 86
5, 449952, Note_on_c, 3, 43, 86
5, 450044, Note_off_c, 3, 55, 61
5, 450044, Note_off_c, 3, 43, 61
5, 450048, Note_on_c, 3, 48, 86
5, 450048, Note_on_c, 3, 36, 90
5, 450236, Note_off_c, 3, 48, 61
5, 450236, Note_off_c, 3, 36, 61
5, 450432, Note_on_c, 3, 52, 86
5, 450432, Note_on_c, 3, 40, 88
5, 450620, Note_off_c, 3, 52, 61
5, 450620, Note_off_c, 3, 40, 61
5, 450816, Note_on_c, 3, 57, 86
5, 450816, Note_on_c, 3, 45, 86
5, 451004, Note_off_c, 3, 57, 61
5, 451004, Note_off_c, 3, 45, 61
5, 451200, Note_on_c, 3, 60, 86
5, 451200, Note_on_c, 3, 48, 86
5, 451388, Note_off_c, 3, 60, 61
5, 451388, Note_off_c, 3, 48, 61
5, 451584, Note_on_c, 3, 56, 86
5, 451584, Note_on_c, 3, 44, 86
5, 452156, Note_off_c, 3, 56, 61
5, 452156, Note_off_c, 3, 44, 61
5, 452160, Note_on_c, 3, 57, 86
5, 452220, Note_off_c, 3, 57, 61
5, 452224, Note_on_c, 3, 56, 86
5, 452284, Note_off_c, 3, 56, 61
5, 452288, Note_on_c, 3, 54, 86
5, 452348, Note_off_c, 3, 54, 61
5, 452352, Note_on_c, 3, 52, 86
5, 452352, Note_on_c, 3, 40, 88
5, 452732, Note_off_c, 3, 52, 61
5, 452732, Note_off_c, 3, 40, 61
5, 453024, Note_on_c, 3, 56, 86
5, 453024, Note_on_c, 3, 44, 86
5, 453116, Note_off_c, 3, 56, 61
5, 453116, Note_off_c, 3, 44, 61
5, 453120, Note_on_c, 3, 57, 86
5, 453120, Note_on_c, 3, 45, 86
5, 453308, Note_off_c, 3, 57, 61
5, 453308, Note_off_c, 3, 45, 61
5, 453504, Note_on_c, 3, 52, 86
5, 453504, Note_on_c, 3, 40, 88
5, 453692, Note_off_c, 3, 52, 61
5, 453692, Note_off_c, 3, 40, 61
5, 453888, Note_on_c, 3, 60, 86
5, 453888, Note_on_c, 3, 48, 86
5, 454076, Note_off_c, 3, 60, 61
5, 454076, Note_off_c, 3, 48, 61
5, 454272, Note_on_c, 3, 57, 86
5, 454272, Note_on_c, 3, 45, 86
5, 454460, Note_off_c, 3, 57, 61
5, 454460, Note_off_c, 3, 45, 61
5, 454656, Note_on_c, 3, 54, 86
5, 454656, Note_on_c, 3, 42, 87
5, 455228, Note_off_c, 3, 54, 61
5, 455228, Note_off_c, 3, 42, 61
5, 455232, Note_on_c, 3, 55, 86
5, 455288, Note_off_c, 3, 55, 61
5, 455296, Note_on_c, 3, 54, 86
5, 455352, Note_off_c, 3, 54, 61
5, 455360, Note_on_c, 3, 52, 86
5, 455416, Note_off_c, 3, 52, 61
5, 455424, Note_on_c, 3, 50, 86
5, 455424, Note_on_c, 3, 38, 89
5, 455804, Note_off_c, 3, 50, 61
5, 455804, Note_off_c, 3, 38, 61
5, 456096, Note_on_c, 3, 54, 86
5, 456096, Note_on_c, 3, 42, 87
5, 456188, Note_off_c, 3, 54, 61
5, 456188, Note_off_c, 3, 42, 61
5, 456192, Note_on_c, 3, 55, 86
5, 456192, Note_on_c, 3, 43, 86
5, 456380, Note_off_c, 3, 55, 61
5, 456380, Note_off_c, 3, 43, 61
5, 456576, Note_on_c, 3, 50, 86
5, 456576, Note_on_c, 3, 38, 89
5, 456764, Note_off_c, 3, 50, 61
5, 456764, Note_off_c, 3, 38, 61
5, 456960, Note_on_c, 3, 58, 86
5, 456960, Note_on_c, 3, 46, 86
5, 457148, Note_off_c, 3, 58, 61
5, 457148, Note_off_c, 3, 46, 61
5, 457344, Note_on_c, 3, 55, 86
5, 457344, Note_on_c, 3, 43, 86
5, 457532, Note_off_c, 3, 55, 61
5, 457532, Note_off_c, 3, 43, 61
5, 457728, Note_on_c, 3, 52, 86
5, 457728, Note_on_c, 3, 40, 88
5, 458300, Note_off_c, 3, 52, 61
5, 458300, Note_off_c, 3, 40, 61
5, 458304, Note_on_c, 3, 53, 86
5, 458360, Note_off_c, 3, 53, 61
5, 458368, Note_on_c, 3, 52, 86
5, 458424, Note_off_c, 3, 52, 61
5, 458432, Note_on_c, 3, 50, 86
5, 458488, Note_off_c, 3, 50, 61
5, 458496, Note_on_c, 3, 48, 86
5, 458496, Note_on_c, 3, 36, 90
5, 458876, Note_off_c, 3, 48, 61
5, 458876, Note_off_c, 3, 36, 61
5, 459168, Note_on_c, 3, 52, 86
5, 459168, Note_on_c, 3, 40, 88
5, 459260, Note_off_c, 3, 52, 61
5, 459260, Note_off_c, 3, 40, 61
5, 459264, Note_on_c, 3, 53, 86
5, 459264, Note_on_c, 3, 41, 87
5, 459644, Note_off_c, 3, 53, 61
5, 459644, Note_off_c, 3, 41, 61
5, 480768, Note_on_c, 3, 55, 62
5, 480768, Note_on_c, 3, 43, 63
5, 482300, Note_off_c, 3, 55, 61
5, 482304, Note_on_c, 3, 65, 62
5, 482304, Note_on_c, 3, 62, 62
5, 482304, Note_on_c, 3, 59, 62
5, 482304, Note_on_c, 3, 55, 62
5, 486140, Note_off_c, 3, 59, 61
5, 486140, Note_off_c, 3, 62, 61
5, 486140, Note_off_c, 3, 65, 61
5, 486144, Note_on_c, 3, 65, 62
5, 486144, Note_on_c, 3, 62, 62
5, 486908, Note_off_c, 3, 43, 61
5, 486908, Note_off_c, 3, 55, 61
5, 486908, Note_off_c, 3, 65, 61
5, 486908, Note_off_c, 3, 62, 61
5, 486912, Note_on_c, 3, 64, 62
5, 486912, Note_on_c, 3, 55, 62
5, 486912, Note_on_c, 3, 48, 62
5, 487292, Note_off_c, 3, 64, 61
5, 487292, Note_off_c, 3, 55, 61
5, 487292, Note_off_c, 3, 48, 61
5, 487680, Note_on_c, 3, 48, 62
5, 487680, Note_on_c, 3, 36, 66
5, 488060, Note_off_c, 3, 48, 61
5, 488060, Note_off_c, 3, 36, 61
5, 488448, Note_on_c, 3, 53, 62
5, 488448, Note_on_c, 3, 41, 63
5, 488828, Note_off_c, 3, 53, 61
5, 488828, Note_off_c, 3, 41, 61
5, 489216, Note_on_c, 3, 53, 62
5, 489216, Note_on_c, 3, 41, 63
5, 489596, Note_off_c, 3, 53, 61
5, 489596, Note_off_c, 3, 41, 61
5, 489984, Note_on_c, 3, 55, 62
5, 489984, Note_on_c, 3, 43, 62
5, 490364, Note_off_c, 3, 55, 61
5, 490364, Note_off_c, 3, 43, 61
5, 490752, Note_on_c, 3, 55, 62
5, 490752, Note_on_c, 3, 43, 62
5, 491132, Note_off_c, 3, 55, 61
5, 491132, Note_off_c, 3, 43, 61
5, 491520, Note_on_c, 3, 52, 62
5, 491520, Note_on_c, 3, 40, 64
5, 491900, Note_off_c, 3, 52, 61
5, 491900, Note_off_c, 3, 40, 61
5, 492288, Note_on_c, 3, 52, 62
5, 492288, Note_on_c, 3, 40, 64
5, 492668, Note_off_c, 3, 52, 61
5, 492668, Note_off_c, 3, 40, 61
5, 499200, Note_on_c, 3, 48, 62
5, 499392, Note_on_c, 3, 64, 62
5, 499392, Note_on_c, 3, 60, 62
5, 499580, Note_off_c, 3, 48, 61
5, 499580, Note_off_c, 3, 64, 61
5, 499580, Note_off_c, 3, 60, 61
5, 499584, Note_on_c, 3, 65, 62
5, 499584, Note_on_c, 3, 62, 62
5, 499772, Note_off_c, 3, 65, 61
5, 499772, Note_off_c, 3, 62, 61
5, 499776, Note_on_c, 3, 67, 62
5, 499776, Note_on_c, 3, 64, 62
5, 499964, Note_off_c, 3, 67, 61
5, 499964, Note_off_c, 3, 64, 61
5, 499968, Note_on_c, 3, 48, 62
5, 500160, Note_on_c, 3, 65, 62
5, 500160, Note_on_c, 3, 60, 62
5, 500348, Note_off_c, 3, 48, 61
5, 500348, Note_off_c, 3, 65, 61
5, 500348, Note_off_c, 3, 60, 61
5, 500352, Note_on_c, 3, 64, 62
5, 500352, Note_on_c, 3, 67, 62
5, 500540, Note_off_c, 3, 64, 61
5, 500540, Note_off_c, 3, 67, 61
5, 500544, Note_on_c, 3, 69, 62
5, 500544, Note_on_c, 3, 65, 62
5, 500732, Note_off_c, 3, 69, 61
5, 500732, Note_off_c, 3, 65, 61
5, 500736, Note_on_c, 3, 53, 62
5, 500928, Note_on_c, 3, 65, 62
5, 500928, Note_on_c, 3, 62, 62
5, 501116, Note_off_c, 3, 53, 61
5, 501116, Note_off_c, 3, 65, 61
5, 501116, Note_off_c, 3, 62, 61
5, 501120, Note_on_c, 3, 67, 62
5, 501120, Note_on_c, 3, 64, 62
5, 501308, Note_off_c, 3, 67, 61
5, 501308, Note_off_c, 3, 64, 61
5, 501312, Note_on_c, 3, 69, 62
5, 501312, Note_on_c, 3, 65, 62
5, 501500, Note_off_c, 3, 69, 61
5, 501500, Note_off_c, 3, 65, 61
5, 501504, Note_on_c, 3, 53, 62
5, 501696, Note_on_c, 3, 65, 62
5, 501696, Note_on_c, 3, 62, 62
5, 501884, Note_off_c, 3, 53, 61
5, 501884, Note_off_c, 3, 65, 61
5, 501884, Note_off_c, 3, 62, 61
5, 501888, Note_on_c, 3, 67, 62
5, 501888, Note_on_c, 3, 64, 62
5, 502076, Note_off_c, 3, 67, 61
5, 502076, Note_off_c, 3, 64, 61
5, 502080, Note_on_c, 3, 69, 62
5, 502080, Note_on_c, 3, 65, 62
5, 502268, Note_off_c, 3, 69, 61
5, 502268, Note_off_c, 3, 65, 61
5, 502272, Note_on_c, 3, 55, 62
5, 502464, Note_on_c, 3, 62, 62
5, 502464, Note_on_c, 3, 59, 62
5, 502652, Note_off_c, 3, 55, 61
5, 502652, Note_off_c, 3, 62, 61
5, 502652, Note_off_c, 3, 59, 61
5, 502656, Note_on_c, 3, 64, 62
5, 502656, Note_on_c, 3, 60, 62
5, 502844, Note_off_c, 3, 64, 61
5, 502844, Note_off_c, 3, 60, 61
5, 502848, Note_on_c, 3, 65, 62
5, 502848, Note_on_c, 3, 62, 62
5, 503036, Note_off_c, 3, 65, 61
5, 503036, Note_off_c, 3, 62, 61
5, 503040, Note_on_c, 3, 55, 62
5, 503232, Note_on_c, 3, 62, 62
5, 503232, Note_on_c, 3, 59, 62
5, 503420, Note_off_c, 3, 55, 61
5, 503420, Note_off_c, 3, 62, 61
5, 503420, Note_off_c, 3, 59, 61
5, 503424, Note_on_c, 3, 64, 62
5, 503424, Note_on_c, 3, 60, 62
5, 503612, Note_off_c, 3, 64, 61
5, 503612, Note_off_c, 3, 60, 61
5, 503616, Note_on_c, 3, 65, 62
5, 503616, Note_on_c, 3, 62, 62
5, 503804, Note_off_c, 3, 65, 61
5, 503804, Note_off_c, 3, 62, 61
5, 503808, Note_on_c, 3, 52, 62
5, 504000, Note_on_c, 3, 64, 62
5, 504000, Note_on_c, 3, 60, 62
5, 504188, Note_off_c, 3, 52, 61
5, 504188, Note_off_c, 3, 64, 61
5, 504188, Note_off_c, 3, 60, 61
5, 504192, Note_on_c, 3, 65, 62
5, 504192, Note_on_c, 3, 62, 62
5, 504380, Note_off_c, 3, 65, 61
5, 504380, Note_off_c, 3, 62, 61
5, 504384, Note_on_c, 3, 67, 62
5, 504384, Note_on_c, 3, 64, 62
5, 504572, Note_off_c, 3, 67, 61
5, 504572, Note_off_c, 3, 64, 61
5, 504576, Note_on_c, 3, 52, 62
5, 504768, Note_on_c, 3, 64, 62
5, 504768, Note_on_c, 3, 60, 62
5, 504956, Note_off_c, 3, 52, 61
5, 504956, Note_off_c, 3, 64, 61
5, 504956, Note_off_c, 3, 60, 61
5, 504960, Note_on_c, 3, 62, 62
5, 504960, Note_on_c, 3, 65, 62
5, 505148, Note_off_c, 3, 62, 61
5, 505148, Note_off_c, 3, 65, 61
5, 505152, Note_on_c, 3, 67, 62
5, 505152, Note_on_c, 3, 64, 62
5, 505340, Note_off_c, 3, 67, 61
5, 505340, Note_off_c, 3, 64, 61
5, 513024, Note_on_c, 3, 60, 62
5, 513212, Note_off_c, 3, 60, 61
5, 513408, Note_on_c, 3, 55, 62
5, 513596, Note_off_c, 3, 55, 61
5, 513792, Note_on_c, 3, 60, 62
5, 513980, Note_off_c, 3, 60, 61
5, 514176, Note_on_c, 3, 64, 62
5, 514364, Note_off_c, 3, 64, 61
5, 514560, Note_on_c, 3, 62, 62
5, 514560, Note_on_c, 3, 50, 62
5, 514748, Note_off_c, 3, 62, 61
5, 514748, Note_off_c, 3, 50, 61
5, 514944, Note_on_c, 3, 55, 62
5, 514944, Note_on_c, 3, 43, 62
5, 515132, Note_off_c, 3, 55, 61
5, 515132, Note_off_c, 3, 43, 61
5, 515328, Note_on_c, 3, 62, 62
5, 515328, Note_on_c, 3, 50, 62
5, 515516, Note_off_c, 3, 62, 61
5, 515516, Note_off_c, 3, 50, 61
5, 515712, Note_on_c, 3, 53, 62
5, 515900, Note_off_c, 3, 53, 61
5, 516096, Note_on_c, 3, 48, 62
5, 516096, Note_on_c, 3, 52, 62
5, 516284, Note_off_c, 3, 48, 61
5, 516480, Note_on_c, 3, 43, 62
5, 516668, Note_off_c, 3, 52, 61
5, 516668, Note_off_c, 3, 43, 61
5, 516672, Note_on_c, 3, 53, 62
5, 516732, Note_off_c, 3, 53, 61
5, 516736, Note_on_c, 3, 52, 62
5, 516796, Note_off_c, 3, 52, 61
5, 516800, Note_on_c, 3, 50, 62
5, 516860, Note_off_c, 3, 50, 61
5, 516864, Note_on_c, 3, 48, 62
5, 516864, Note_on_c, 3, 48, 62
5, 517052, Note_off_c, 3, 48, 61
5, 517244, Note_off_c, 3, 48, 61
5, 517248, Note_on_c, 3, 52, 62
5, 517436, Note_off_c, 3, 52, 61
5, 517632, Note_on_c, 3, 65, 62
5, 517632, Note_on_c, 3, 53, 62
5, 517632, Note_on_c, 3, 60, 62
5, 517820, Note_off_c, 3, 65, 61
5, 517820, Note_off_c, 3, 53, 61
5, 518016, Note_on_c, 3, 48, 62
5, 518204, Note_off_c, 3, 60, 61
5, 518204, Note_off_c, 3, 48, 61
5, 518208, Note_on_c, 3, 59, 62
5, 518268, Note_off_c, 3, 59, 61
5, 518272, Note_on_c, 3, 57, 62
5, 518332, Note_off_c, 3, 57, 61
5, 518336, Note_on_c, 3, 55, 62
5, 518396, Note_off_c, 3, 55, 61
5, 518400, Note_on_c, 3, 65, 62
5, 518400, Note_on_c, 3, 53, 62
5, 518400, Note_on_c, 3, 53, 62
5, 518588, Note_off_c, 3, 65, 61
5, 518588, Note_off_c, 3, 53, 61
5, 518780, Note_off_c, 3, 53, 61
5, 518784, Note_on_c, 3, 57, 62
5, 518784, Note_on_c, 3, 69, 62
5, 518972, Note_off_c, 3, 57, 61
5, 518972, Note_off_c, 3, 69, 61
5, 520704, Note_on_c, 3, 64, 62
5, 520704, Note_on_c, 3, 52, 62
5, 520704, Note_on_c, 3, 59, 62
5, 520892, Note_off_c, 3, 64, 61
5, 520892, Note_off_c, 3, 52, 61
5, 521088, Note_on_c, 3, 47, 62
5, 521276, Note_off_c, 3, 59, 61
5, 521276, Note_off_c, 3, 47, 61
5, 521280, Note_on_c, 3, 57, 62
5, 521336, Note_off_c, 3, 57, 61
5, 521344, Note_on_c, 3, 55, 62
5, 521400, Note_off_c, 3, 55, 61
5, 521408, Note_on_c, 3, 53, 62
5, 521464, Note_off_c, 3, 53, 61
5, 521472, Note_on_c, 3, 64, 62
5, 521472, Note_on_c, 3, 52, 62
5, 521472, Note_on_c, 3, 52, 62
5, 521660, Note_off_c, 3, 64, 61
5, 521660, Note_off_c, 3, 52, 61
5, 521852, Note_off_c, 3, 52, 61
5, 521856, Note_on_c, 3, 55, 62
5, 521856, Note_on_c, 3, 67, 62
5, 522044, Note_off_c, 3, 55, 61
5, 522044, Note_off_c, 3, 67, 61
5, 523776, Note_on_c, 3, 62, 62
5, 523776, Note_on_c, 3, 50, 62
5, 523776, Note_on_c, 3, 57, 62
5, 523964, Note_off_c, 3, 62, 61
5, 523964, Note_off_c, 3, 50, 61
5, 524160, Note_on_c, 3, 45, 62
5, 524348, Note_off_c, 3, 57, 61
5, 524348, Note_off_c, 3, 45, 61
5, 524352, Note_on_c, 3, 55, 62
5, 524408, Note_off_c, 3, 55, 61
5, 524416, Note_on_c, 3, 53, 62
5, 524472, Note_off_c, 3, 53, 61
5, 524480, Note_on_c, 3, 52, 62
5, 524536, Note_off_c, 3, 52, 61
5, 524544, Note_on_c, 3, 62, 62
5, 524544, Note_on_c, 3, 50, 62
5, 524544, Note_on_c, 3, 50, 62
5, 524732, Note_off_c, 3, 62, 61
5, 524732, Note_off_c, 3, 50, 61
5, 524924, Note_off_c, 3, 50, 61
5, 524928, Note_on_c, 3, 65, 62
5, 524928, Note_on_c, 3, 53, 62
5, 525116, Note_off_c, 3, 65, 61
5, 525116, Note_off_c, 3, 53, 61
5, 528000, Note_on_c, 3, 60, 62
5, 528000, Note_on_c, 3, 48, 62
5, 528188, Note_off_c, 3, 60, 61
5, 528188, Note_off_c, 3, 48, 61
5, 528192, Note_on_c, 3, 59, 62
5, 528192, Note_on_c, 3, 47, 62
5, 528380, Note_off_c, 3, 59, 61
5, 528380, Note_off_c, 3, 47, 61
5, 528384, Note_on_c, 3, 57, 62
5, 528384, Note_on_c, 3, 45, 62
5, 528764, Note_off_c, 3, 57, 61
5, 528764, Note_off_c, 3, 45, 61
5, 529536, Note_on_c, 3, 57, 62
5, 529536, Note_on_c, 3, 45, 62
5, 529724, Note_off_c, 3, 57, 61
5, 529724, Note_off_c, 3, 45, 61
5, 529728, Note_on_c, 3, 55, 62
5, 529728, Note_on_c, 3, 43, 62
5, 529916, Note_off_c, 3, 55, 61
5, 529916, Note_off_c, 3, 43, 61
5, 529920, Note_on_c, 3, 53, 62
5, 529920, Note_on_c, 3, 41, 63
5, 530300, Note_off_c, 3, 53, 61
5, 530300, Note_off_c, 3, 41, 61
5, 531072, Note_on_c, 3, 65, 62
5, 531072, Note_on_c, 3, 53, 62
5, 531260, Note_off_c, 3, 65, 61
5, 531260, Note_off_c, 3, 53, 61
5, 531264, Note_on_c, 3, 64, 62
5, 531264, Note_on_c, 3, 52, 62
5, 531452, Note_off_c, 3, 64, 61
5, 531452, Note_off_c, 3, 52, 61
5, 531456, Note_on_c, 3, 62, 62
5, 531456, Note_on_c, 3, 50, 62
5, 531836, Note_off_c, 3, 62, 61
5, 531836, Note_off_c, 3, 50, 61
5, 531840, Note_on_c, 3, 62, 62
5, 531840, Note_on_c, 3, 50, 62
5, 532028, Note_off_c, 3, 62, 61
5, 532028, Note_off_c, 3, 50, 61
5, 532032, Note_on_c, 3, 60, 62
5, 532032, Note_on_c, 3, 48, 62
5, 532220, Note_off_c, 3, 60, 61
5, 532220, Note_off_c, 3, 48, 61
5, 532224, Note_on_c, 3, 59, 62
5, 532224, Note_on_c, 3, 47, 62
5, 532604, Note_off_c, 3, 59, 61
5, 532604, Note_off_c, 3, 47, 61
5, 532608, Note_on_c, 3, 59, 62
5, 532608, Note_on_c, 3, 47, 62
5, 532796, Note_off_c, 3, 59, 61
5, 532796, Note_off_c, 3, 47, 61
5, 532800, Note_on_c, 3, 57, 62
5, 532800, Note_on_c, 3, 45, 62
5, 532988, Note_off_c, 3, 57, 61
5, 532988, Note_off_c, 3, 45, 61
5, 532992, Note_on_c, 3, 55, 62
5, 532992, Note_on_c, 3, 43, 62
5, 533564, Note_off_c, 3, 55, 61
5, 533564, Note_off_c, 3, 43, 61
5, 533568, Note_on_c, 3, 56, 62
5, 533568, Note_on_c, 3, 44, 62
5, 533756, Note_off_c, 3, 56, 61
5, 533756, Note_off_c, 3, 44, 61
5, 533760, Note_on_c, 3, 55, 62
5, 533760, Note_on_c, 3, 43, 62
5, 533948, Note_off_c, 3, 55, 61
5, 533948, Note_off_c, 3, 43, 61
5, 533952, Note_on_c, 3, 44, 62
5, 533952, Note_on_c, 3, 56, 62
5, 534140, Note_off_c, 3, 44, 61
5, 534140, Note_off_c, 3, 56, 61
5, 534144, Note_on_c, 3, 55, 62
5, 534144, Note_on_c, 3, 43, 62
5, 534332, Note_off_c, 3, 55, 61
5, 534332, Note_off_c, 3, 43, 61
5, 534336, Note_on_c, 3, 56, 62
5, 534336, Note_on_c, 3, 44, 62
5, 534524, Note_off_c, 3, 56, 61
5, 534524, Note_off_c, 3, 44, 61
5, 534528, Note_on_c, 3, 55, 62
5, 534528, Note_on_c, 3, 43, 62
5, 535100, Note_off_c, 3, 55, 61
5, 535100, Note_off_c, 3, 43, 61
5, 535104, Note_on_c, 3, 56, 62
5, 535104, Note_on_c, 3, 44, 62
5, 535196, Note_off_c, 3, 56, 61
5, 535196, Note_off_c, 3, 44, 61
5, 535296, Note_on_c, 3, 55, 62
5, 535296, Note_on_c, 3, 43, 62
5, 535388, Note_off_c, 3, 55, 61
5, 535388, Note_off_c, 3, 43, 61
5, 535488, Note_on_c, 3, 56, 62
5, 535488, Note_on_c, 3, 44, 62
5, 535580, Note_off_c, 3, 56, 61
5, 535580, Note_off_c, 3, 44, 61
5, 535680, Note_on_c, 3, 55, 62
5, 535680, Note_on_c, 3, 43, 62
5, 535772, Note_off_c, 3, 55, 61
5, 535772, Note_off_c, 3, 43, 61
5, 535872, Note_on_c, 3, 56, 62
5, 535872, Note_on_c, 3, 44, 62
5, 535964, Note_off_c, 3, 56, 61
5, 535964, Note_off_c, 3, 44, 61
5, 536064, Note_on_c, 3, 55, 62
5, 536064, Note_on_c, 3, 43, 62
5, 536444, Note_off_c, 3, 55, 61
5, 536444, Note_off_c, 3, 43, 61
5, 539136, Note_on_c, 3, 43, 63
5, 539136, Note_on_c, 3, 55, 62
5, 542204, Note_off_c, 3, 43, 61
5, 542204, Note_off_c, 3, 55, 61
5, 542208, Note_on_c, 3, 55, 62
5, 542208, Note_on_c, 3, 43, 62
5, 543740, Note_off_c, 3, 43, 61
5, 543744, Note_on_c, 3, 65, 62
5, 543744, Note_on_c, 3, 62, 62
5, 543836, Note_off_c, 3, 65, 61
5, 543836, Note_off_c, 3, 62, 61
5, 543936, Note_on_c, 3, 64, 62
5, 543936, Note_on_c, 3, 60, 62
5, 544028, Note_off_c, 3, 64, 61
5, 544028, Note_off_c, 3, 60, 61
5, 544128, Note_on_c, 3, 62, 62
5, 544128, Note_on_c, 3, 59, 62
5, 544220, Note_off_c, 3, 62, 61
5, 544220, Note_off_c, 3, 59, 61
5, 544320, Note_on_c, 3, 60, 62
5, 544320, Note_on_c, 3, 57, 62
5, 544412, Note_off_c, 3, 60, 61
5, 544412, Note_off_c, 3, 57, 61
5, 544508, Note_off_c, 3, 55, 61
5, 544512, Note_on_c, 3, 59, 62
5, 544512, Note_on_c, 3, 55, 62
5, 544604, Note_off_c, 3, 59, 61
5, 544604, Note_off_c, 3, 55, 61
5, 544704, Note_on_c, 3, 57, 62
5, 544704, Note_on_c, 3, 53, 62
5, 544796, Note_off_c, 3, 57, 61
5, 544796, Note_off_c, 3, 53, 61
5, 544896, Note_on_c, 3, 55, 62
5, 544896, Note_on_c, 3, 52, 62
5, 544988, Note_off_c, 3, 55, 61
5, 544988, Note_off_c, 3, 52, 61
5, 545088, Note_on_c, 3, 53, 62
5, 545088, Note_on_c, 3, 50, 62
5, 545180, Note_off_c, 3, 53, 61
5, 545180, Note_off_c, 3, 50, 61
5, 545280, Note_on_c, 3, 55, 62
5, 545280, Note_on_c, 3, 52, 62
5, 545280, Note_on_c, 3, 48, 62
5, 545660, Note_off_c, 3, 48, 61
5, 545664, Note_on_c, 3, 48, 62
5, 546044, Note_off_c, 3, 55, 61
5, 546044, Note_off_c, 3, 52, 61
5, 546044, Note_off_c, 3, 48, 61
5, 546048, Note_on_c, 3, 48, 62
5, 546048, Note_on_c, 3, 52, 62
5, 546428, Note_off_c, 3, 48, 61
5, 546428, Note_off_c, 3, 52, 61
5, 546432, Note_on_c, 3, 48, 62
5, 546812, Note_off_c, 3, 48, 61
5, 546816, Note_on_c, 3, 60, 62
5, 546816, Note_on_c, 3, 48, 62
5, 547196, Note_off_c, 3, 60, 61
5, 547196, Note_off_c, 3, 48, 61
5, 547200, Note_on_c, 3, 60, 62
5, 547200, Note_on_c, 3, 48, 62
5, 547580, Note_off_c, 3, 60, 61
5, 547580, Note_off_c, 3, 48, 61
5, 547584, Note_on_c, 3, 60, 62
5, 547584, Note_on_c, 3, 48, 62
5, 547964, Note_off_c, 3, 60, 61
5, 547964, Note_off_c, 3, 48, 61
5, 547968, Note_on_c, 3, 60, 62
5, 547968, Note_on_c, 3, 48, 62
5, 548348, Note_off_c, 3, 60, 61
5, 548348, Note_off_c, 3, 48, 61
5, 548352, Note_on_c, 3, 62, 62
5, 548352, Note_on_c, 3, 59, 62
5, 548352, Note_on_c, 3, 55, 62
5, 549500, Note_off_c, 3, 62, 61
5, 549500, Note_off_c, 3, 59, 61
5, 549504, Note_on_c, 3, 64, 62
5, 549504, Note_on_c, 3, 60, 62
5, 549884, Note_off_c, 3, 55, 61
5, 549884, Note_off_c, 3, 64, 61
5, 549884, Note_off_c, 3, 60, 61
5, 549888, Note_on_c, 3, 43, 62
5, 549900, Note_on_c, 3, 62, 62
5, 549916, Note_on_c, 3, 65, 62
5, 550272, Note_on_c, 3, 62, 62
5, 550272, Note_on_c, 3, 59, 62
5, 550280, Note_off_c, 3, 62, 61
5, 550296, Note_off_c, 3, 65, 61
5, 550652, Note_off_c, 3, 62, 61
5, 550652, Note_off_c, 3, 59, 61
5, 550656, Note_on_c, 3, 59, 62
5, 550656, Note_on_c, 3, 55, 62
5, 551036, Note_off_c, 3, 59, 61
5, 551036, Note_off_c, 3, 55, 61
5, 551040, Note_on_c, 3, 59, 62
5, 551040, Note_on_c, 3, 62, 62
5, 551420, Note_off_c, 3, 43, 61
5, 551420, Note_off_c, 3, 59, 61
5, 551424, Note_on_c, 3, 60, 62
5, 551424, Note_on_c, 3, 55, 62
5, 551424, Note_on_c, 3, 48, 62
5, 551428, Note_off_c, 3, 62, 61
5, 551804, Note_off_c, 3, 60, 61
5, 551804, Note_off_c, 3, 55, 61
5, 551804, Note_off_c, 3, 48, 61
5, 551808, Note_on_c, 3, 60, 62
5, 551808, Note_on_c, 3, 48, 62
5, 552188, Note_off_c, 3, 60, 61
5, 552188, Note_off_c, 3, 48, 61
5, 552192, Note_on_c, 3, 60, 62
5, 552192, Note_on_c, 3, 48, 62
5, 552572, Note_off_c, 3, 60, 61
5, 552572, Note_off_c, 3, 48, 61
5, 552576, Note_on_c, 3, 60, 62
5, 552576, Note_on_c, 3, 48, 62
5, 552956, Note_off_c, 3, 60, 61
5, 552956, Note_off_c, 3, 48, 61
5, 552960, Note_on_c, 3, 64, 62
5, 552960, Note_on_c, 3, 55, 62
5, 552960, Note_on_c, 3, 48, 62
5, 553340, Note_off_c, 3, 48, 61
5, 553344, Note_on_c, 3, 48, 62
5, 553724, Note_off_c, 3, 64, 61
5, 553724, Note_off_c, 3, 55, 61
5, 553724, Note_off_c, 3, 48, 61
5, 553728, Note_on_c, 3, 48, 62
5, 553728, Note_on_c, 3, 60, 62
5, 553728, Note_on_c, 3, 52, 62
5, 554108, Note_off_c, 3, 48, 61
5, 554108, Note_off_c, 3, 60, 61
5, 554108, Note_off_c, 3, 52, 61
5, 554112, Note_on_c, 3, 48, 62
5, 554492, Note_off_c, 3, 48, 61
5, 554496, Note_on_c, 3, 62, 62
5, 554496, Note_on_c, 3, 59, 62
5, 554496, Note_on_c, 3, 55, 62
5, 555644, Note_off_c, 3, 62, 61
5, 555644, Note_off_c, 3, 59, 61
5, 555648, Note_on_c, 3, 64, 62
5, 555648, Note_on_c, 3, 60, 62
5, 556028, Note_off_c, 3, 55, 61
5, 556028, Note_off_c, 3, 64, 61
5, 556028, Note_off_c, 3, 60, 61
5, 556032, Note_on_c, 3, 43, 62
5, 556416, Note_on_c, 3, 62, 62
5, 556416, Note_on_c, 3, 59, 62
5, 556796, Note_off_c, 3, 62, 61
5, 556796, Note_off_c, 3, 59, 61
5, 556800, Note_on_c, 3, 59, 62
5, 556800, Note_on_c, 3, 55, 62
5, 557180, Note_off_c, 3, 59, 61
5, 557180, Note_off_c, 3, 55, 61
5, 557184, Note_on_c, 3, 59, 62
5, 557184, Note_on_c, 3, 62, 62
5, 557564, Note_off_c, 3, 43, 61
5, 557564, Note_off_c, 3, 59, 61
5, 557564, Note_off_c, 3, 62, 61
5, 557568, Note_on_c, 3, 60, 62
5, 557568, Note_on_c, 3, 48, 62
5, 557948, Note_off_c, 3, 60, 61
5, 557948, Note_off_c, 3, 48, 61
5, 568320, Note_on_c, 3, 48, 62
5, 568320, Note_on_c, 3, 36, 66
5, 568700, Note_off_c, 3, 48, 61
5, 568700, Note_off_c, 3, 36, 61
5, 569472, Note_on_c, 3, 48, 62
5, 569472, Note_on_c, 3, 36, 66
5, 569660, Note_off_c, 3, 48, 61
5, 569660, Note_off_c, 3, 36, 61
5, 569664, Note_on_c, 3, 47, 62
5, 569664, Note_on_c, 3, 35, 67
5, 569852, Note_off_c, 3, 47, 61
5, 569852, Note_off_c, 3, 35, 61
5, 569856, Note_on_c, 3, 45, 62
5, 569856, Note_on_c, 3, 33, 68
5, 570236, Note_off_c, 3, 45, 61
5, 570236, Note_off_c, 3, 33, 61
5, 571008, Note_on_c, 3, 57, 62
5, 571008, Note_on_c, 3, 45, 62
5, 571196, Note_off_c, 3, 57, 61
5, 571196, Note_off_c, 3, 45, 61
5, 571200, Note_on_c, 3, 55, 62
5, 571200, Note_on_c, 3, 43, 62
5, 571388, Note_off_c, 3, 55, 61
5, 571388, Note_off_c, 3, 43, 61
5, 571392, Note_on_c, 3, 53, 62
5, 571392, Note_on_c, 3, 41, 63
5, 571772, Note_off_c, 3, 53, 61
5, 571772, Note_off_c, 3, 41, 61
5, 572544, Note_on_c, 3, 53, 62
5, 572544, Note_on_c, 3, 41, 63
5, 572732, Note_off_c, 3, 53, 61
5, 572732, Note_off_c, 3, 41, 61
5, 572736, Note_on_c, 3, 52, 62
5, 572736, Note_on_c, 3, 40, 64
5, 572924, Note_off_c, 3, 52, 61
5, 572924, Note_off_c, 3, 40, 61
5, 572928, Note_on_c, 3, 38, 62
5, 572928, Note_on_c, 3, 50, 65
5, 573308, Note_off_c, 3, 38, 61
5, 573692, Note_off_c, 3, 50, 61
5, 573696, Note_on_c, 3, 62, 62
5, 573696, Note_on_c, 3, 55, 62
5, 574460, Note_off_c, 3, 62, 61
5, 574460, Note_off_c, 3, 55, 61
5, 574464, Note_on_c, 3, 55, 62
5, 574464, Note_on_c, 3, 48, 62
5, 575996, Note_off_c, 3, 55, 61
5, 575996, Note_off_c, 3, 48, 61
5, 576000, Note_on_c, 3, 52, 62
5, 576000, Note_on_c, 3, 40, 64
5, 577532, Note_off_c, 3, 52, 61
5, 577532, Note_off_c, 3, 40, 61
5, 577536, Note_on_c, 3, 53, 62
5, 577536, Note_on_c, 3, 41, 63
5, 579068, Note_off_c, 3, 53, 61
5, 579068, Note_off_c, 3, 41, 61
5, 579072, Note_on_c, 3, 54, 62
5, 579072, Note_on_c, 3, 42, 63
5, 580988, Note_off_c, 3, 42, 61
5, 580988, Note_off_c, 3, 54, 61
5, 581184, Note_on_c, 3, 63, 62
5, 581184, Note_on_c, 3, 51, 62
5, 581372, Note_off_c, 3, 63, 61
5, 581372, Note_off_c, 3, 51, 61
5, 581376, Note_on_c, 3, 60, 62
5, 581376, Note_on_c, 3, 48, 62
5, 581564, Note_off_c, 3, 60, 61
5, 581564, Note_off_c, 3, 48, 61
5, 581568, Note_on_c, 3, 56, 62
5, 581568, Note_on_c, 3, 44, 62
5, 581756, Note_off_c, 3, 56, 61
5, 581756, Note_off_c, 3, 44, 61
5, 581760, Note_on_c, 3, 55, 62
5, 581760, Note_on_c, 3, 43, 62
5, 581948, Note_off_c, 3, 55, 61
5, 581948, Note_off_c, 3, 43, 61
5, 581952, Note_on_c, 3, 54, 62
5, 581952, Note_on_c, 3, 42, 62
5, 582140, Note_off_c, 3, 54, 61
5, 582140, Note_off_c, 3, 42, 61
5, 582144, Note_on_c, 3, 55, 62
5, 582144, Note_on_c, 3, 43, 62
5, 582336, Note_on_c, 3, 60, 62
5, 582336, Note_on_c, 3, 52, 62
5, 582524, Note_off_c, 3, 43, 61
5, 582524, Note_off_c, 3, 60, 61
5, 582524, Note_off_c, 3, 52, 61
5, 582528, Note_on_c, 3, 59, 62
5, 582528, Note_on_c, 3, 50, 62
5, 582716, Note_off_c, 3, 59, 61
5, 582716, Note_off_c, 3, 50, 61
5, 582720, Note_on_c, 3, 62, 62
5, 582720, Note_on_c, 3, 53, 62
5, 582908, Note_off_c, 3, 62, 61
5, 582908, Note_off_c, 3, 53, 61
5, 582912, Note_on_c, 3, 60, 62
5, 582912, Note_on_c, 3, 52, 62
5, 583100, Note_off_c, 3, 60, 61
5, 583100, Note_off_c, 3, 52, 61
5, 583104, Note_on_c, 3, 64, 62
5, 583104, Note_on_c, 3, 55, 62
5, 583292, Note_off_c, 3, 55, 61
5, 583292, Note_off_c, 3, 64, 61
5, 583296, Note_on_c, 3, 65, 62
5, 583296, Note_on_c, 3, 57, 62
5, 583484, Note_off_c, 3, 65, 61
5, 583484, Note_off_c, 3, 57, 61
5, 583488, Note_on_c, 3, 62, 62
5, 583488, Note_on_c, 3, 59, 62
5, 583676, Note_off_c, 3, 62, 61
5, 583676, Note_off_c, 3, 59, 61
5, 583680, Note_on_c, 3, 64, 62
5, 583680, Note_on_c, 3, 60, 62
5, 583680, Note_on_c, 3, 43, 62
5, 583868, Note_off_c, 3, 64, 61
5, 583868, Note_off_c, 3, 60, 61
5, 584060, Note_off_c, 3, 43, 61
5, 585216, Note_on_c, 3, 43, 62
5, 585596, Note_off_c, 3, 43, 61
5, 587132, Note_off_c, 3, 55, 61
5, 589824, Note_on_c, 3, 55, 62
5, 589824, Note_on_c, 3, 43, 62
5, 590012, Note_off_c, 3, 55, 61
5, 590012, Note_off_c, 3, 43, 61
5, 590016, Note_on_c, 3, 55, 62
5, 590016, Note_on_c, 3, 60, 62
5, 590016, Note_on_c, 3, 64, 62
5, 590204, Note_off_c, 3, 55, 61
5, 590204, Note_off_c, 3, 60, 61
5, 590204, Note_off_c, 3, 64, 61
5, 590208, Note_on_c, 3, 55, 62
5, 590208, Note_on_c, 3, 60, 62
5, 590208, Note_on_c, 3, 64, 62
5, 590396, Note_off_c, 3, 55, 61
5, 590396, Note_off_c, 3, 60, 61
5, 590396, Note_off_c, 3, 64, 61
5, 590400, Note_on_c, 3, 55, 62
5, 590400, Note_on_c, 3, 60, 62
5, 590400, Note_on_c, 3, 64, 62
5, 590588, Note_off_c, 3, 55, 61
5, 590588, Note_off_c, 3, 60, 61
5, 590588, Note_off_c, 3, 64, 61
5, 590592, Note_on_c, 3, 55, 62
5, 590592, Note_on_c, 3, 60, 62
5, 590592, Note_on_c, 3, 64, 62
5, 590780, Note_off_c, 3, 55, 61
5, 590780, Note_off_c, 3, 60, 61
5, 590780, Note_off_c, 3, 64, 61
5, 590784, Note_on_c, 3, 55, 62
5, 590784, Note_on_c, 3, 60, 62
5, 590784, Note_on_c, 3, 64, 62
5, 590972, Note_off_c, 3, 55, 61
5, 590972, Note_off_c, 3, 60, 61
5, 590972, Note_off_c, 3, 64, 61
5, 590976, Note_on_c, 3, 55, 62
5, 590976, Note_on_c, 3, 64, 62
5, 590976, Note_on_c, 3, 60, 62
5, 591164, Note_off_c, 3, 55, 61
5, 591164, Note_off_c, 3, 64, 61
5, 591164, Note_off_c, 3, 60, 61
5, 591168, Note_on_c, 3, 55, 62
5, 591168, Note_on_c, 3, 60, 62
5, 591168, Note_on_c, 3, 64, 62
5, 591356, Note_off_c, 3, 55, 61
5, 591356, Note_off_c, 3, 60, 61
5, 591356, Note_off_c, 3, 64, 61
5, 591360, Note_on_c, 3, 55, 62
5, 591360, Note_on_c, 3, 43, 62
5, 591548, Note_off_c, 3, 55, 61
5, 591548, Note_off_c, 3, 43, 61
5, 591552, Note_on_c, 3, 64, 62
5, 591552, Note_on_c, 3, 60, 62
5, 591552, Note_on_c, 3, 55, 62
5, 591740, Note_off_c, 3, 64, 61
5, 591740, Note_off_c, 3, 60, 61
5, 591740, Note_off_c, 3, 55, 61
5, 591744, Note_on_c, 3, 64, 62
5, 591744, Note_on_c, 3, 60, 62
5, 591744, Note_on_c, 3, 55, 62
5, 591932, Note_off_c, 3, 64, 61
5, 591932, Note_off_c, 3, 60, 61
5, 591932, Note_off_c, 3, 55, 61
5, 591936, Note_on_c, 3, 64, 62
5, 591936, Note_on_c, 3, 60, 62
5, 591936, Note_on_c, 3, 55, 62
5, 592124, Note_off_c, 3, 64, 61
5, 592124, Note_off_c, 3, 60, 61
5, 592124, Note_off_c, 3, 55, 61
5, 592128, Note_on_c, 3, 64, 62
5, 592128, Note_on_c, 3, 60, 62
5, 592128, Note_on_c, 3, 55, 62
5, 592316, Note_off_c, 3, 64, 61
5, 592316, Note_off_c, 3, 60, 61
5, 592316, Note_off_c, 3, 55, 61
5, 592320, Note_on_c, 3, 64, 62
5, 592320, Note_on_c, 3, 60, 62
5, 592320, Note_on_c, 3, 55, 62
5, 592508, Note_off_c, 3, 64, 61
5, 592508, Note_off_c, 3, 60, 61
5, 592508, Note_off_c, 3, 55, 61
5, 592512, Note_on_c, 3, 64, 62
5, 592512, Note_on_c, 3, 60, 62
5, 592512, Note_on_c, 3, 55, 62
5, 592700, Note_off_c, 3, 64, 61
5, 592700, Note_off_c, 3, 60, 61
5, 592700, Note_off_c, 3, 55, 61
5, 592704, Note_on_c, 3, 64, 62
5, 592704, Note_on_c, 3, 60, 62
5, 592704, Note_on_c, 3, 55, 62
5, 592892, Note_off_c, 3, 64, 61
5, 592892, Note_off_c, 3, 60, 61
5, 592892, Note_off_c, 3, 55, 61
5, 592896, Note_on_c, 3, 55, 62
5, 592896, Note_on_c, 3, 43, 62
5, 593084, Note_off_c, 3, 55, 61
5, 593084, Note_off_c, 3, 43, 61
5, 593088, Note_on_c, 3, 62, 62
5, 593088, Note_on_c, 3, 60, 62
5, 593088, Note_on_c, 3, 55, 62
5, 593276, Note_off_c, 3, 62, 61
5, 593276, Note_off_c, 3, 60, 61
5, 593276, Note_off_c, 3, 55, 61
5, 593280, Note_on_c, 3, 62, 62
5, 593280, Note_on_c, 3, 60, 62
5, 593280, Note_on_c, 3, 55, 62
5, 593468, Note_off_c, 3, 62, 61
5, 593468, Note_off_c, 3, 60, 61
5, 593468, Note_off_c, 3, 55, 61
5, 593472, Note_on_c, 3, 62, 62
5, 593472, Note_on_c, 3, 60, 62
5, 593472, Note_on_c, 3, 55, 62
5, 593660, Note_off_c, 3, 62, 61
5, 593660, Note_off_c, 3, 60, 61
5, 593660, Note_off_c, 3, 55, 61
5, 593664, Note_on_c, 3, 62, 62
5, 593664, Note_on_c, 3, 60, 62
5, 593664, Note_on_c, 3, 55, 62
5, 593852, Note_off_c, 3, 62, 61
5, 593852, Note_off_c, 3, 60, 61
5, 593852, Note_off_c, 3, 55, 61
5, 593856, Note_on_c, 3, 62, 62
5, 593856, Note_on_c, 3, 60, 62
5, 593856, Note_on_c, 3, 55, 62
5, 594044, Note_off_c, 3, 62, 61
5, 594044, Note_off_c, 3, 60, 61
5, 594044, Note_off_c, 3, 55, 61
5, 594048, Note_on_c, 3, 62, 62
5, 594048, Note_on_c, 3, 60, 62
5, 594048, Note_on_c, 3, 55, 62
5, 594236, Note_off_c, 3, 62, 61
5, 594236, Note_off_c, 3, 60, 61
5, 594236, Note_off_c, 3, 55, 61
5, 594240, Note_on_c, 3, 62, 62
5, 594240, Note_on_c, 3, 60, 62
5, 594240, Note_on_c, 3, 55, 62
5, 594428, Note_off_c, 3, 62, 61
5, 594428, Note_off_c, 3, 60, 61
5, 594428, Note_off_c, 3, 55, 61
5, 594432, Note_on_c, 3, 55, 62
5, 594432, Note_on_c, 3, 43, 62
5, 594620, Note_off_c, 3, 55, 61
5, 594620, Note_off_c, 3, 43, 61
5, 594624, Note_on_c, 3, 62, 62
5, 594624, Note_on_c, 3, 59, 62
5, 594624, Note_on_c, 3, 55, 62
5, 594624, Note_on_c, 3, 53, 62
5, 594812, Note_off_c, 3, 62, 61
5, 594812, Note_off_c, 3, 59, 61
5, 594812, Note_off_c, 3, 55, 61
5, 594812, Note_off_c, 3, 53, 61
5, 594816, Note_on_c, 3, 62, 62
5, 594816, Note_on_c, 3, 59, 62
5, 594816, Note_on_c, 3, 55, 62
5, 594816, Note_on_c, 3, 53, 62
5, 595004, Note_off_c, 3, 62, 61
5, 595004, Note_off_c, 3, 59, 61
5, 595004, Note_off_c, 3, 55, 61
5, 595004, Note_off_c, 3, 53, 61
5, 595008, Note_on_c, 3, 62, 62
5, 595008, Note_on_c, 3, 59, 62
5, 595008, Note_on_c, 3, 55, 62
5, 595008, Note_on_c, 3, 53, 62
5, 595196, Note_off_c, 3, 62, 61
5, 595196, Note_off_c, 3, 59, 61
5, 595196, Note_off_c, 3, 55, 61
5, 595196, Note_off_c, 3, 53, 61
5, 595200, Note_on_c, 3, 62, 62
5, 595200, Note_on_c, 3, 59, 62
5, 595200, Note_on_c, 3, 55, 62
5, 595200, Note_on_c, 3, 53, 62
5, 595388, Note_off_c, 3, 62, 61
5, 595388, Note_off_c, 3, 59, 61
5, 595388, Note_off_c, 3, 55, 61
5, 595388, Note_off_c, 3, 53, 61
5, 595392, Note_on_c, 3, 62, 62
5, 595392, Note_on_c, 3, 59, 62
5, 595392, Note_on_c, 3, 55, 62
5, 595392, Note_on_c, 3, 53, 62
5, 595580, Note_off_c, 3, 62, 61
5, 595580, Note_off_c, 3, 59, 61
5, 595580, Note_off_c, 3, 55, 61
5, 595580, Note_off_c, 3, 53, 61
5, 595584, Note_on_c, 3, 62, 62
5, 595584, Note_on_c, 3, 59, 62
5, 595584, Note_on_c, 3, 55, 62
5, 595584, Note_on_c, 3, 53, 62
5, 595772, Note_off_c, 3, 62, 61
5, 595772, Note_off_c, 3, 59, 61
5, 595772, Note_off_c, 3, 55, 61
5, 595772, Note_off_c, 3, 53, 61
5, 595776, Note_on_c, 3, 62, 62
5, 595776, Note_on_c, 3, 59, 62
5, 595776, Note_on_c, 3, 55, 62
5, 595776, Note_on_c, 3, 53, 62
5, 595964, Note_off_c, 3, 62, 61
5, 595964, Note_off_c, 3, 59, 61
5, 595964, Note_off_c, 3, 55, 61
5, 595964, Note_off_c, 3, 53, 61
5, 595968, Note_on_c, 3, 48, 86
5, 595968, Note_on_c, 3, 36, 90
5, 596156, Note_off_c, 3, 48, 61
5, 596156, Note_off_c, 3, 36, 61
5, 596352, Note_on_c, 3, 43, 86
5, 596352, Note_on_c, 3, 31, 93
5, 596540, Note_off_c, 3, 43, 61
5, 596540, Note_off_c, 3, 31, 61
5, 596736, Note_on_c, 3, 48, 86
5, 596736, Note_on_c, 3, 36, 90
5, 596924, Note_off_c, 3, 48, 61
5, 596924, Note_off_c, 3, 36, 61
5, 597120, Note_on_c, 3, 52, 86
5, 597120, Note_on_c, 3, 40, 88
5, 597308, Note_off_c, 3, 52, 61
5, 597308, Note_off_c, 3, 40, 61
5, 597504, Note_on_c, 3, 55, 86
5, 597504, Note_on_c, 3, 53, 86
5, 597504, Note_on_c, 3, 41, 87
5, 598076, Note_off_c, 3, 53, 61
5, 598076, Note_off_c, 3, 41, 61
5, 598080, Note_on_c, 3, 52, 86
5, 598140, Note_off_c, 3, 52, 61
5, 598144, Note_on_c, 3, 50, 86
5, 598204, Note_off_c, 3, 50, 61
5, 598208, Note_on_c, 3, 48, 86
5, 598268, Note_off_c, 3, 55, 61
5, 598268, Note_off_c, 3, 48, 61
5, 598272, Note_on_c, 3, 55, 86
5, 598272, Note_on_c, 3, 47, 86
5, 598652, Note_off_c, 3, 55, 61
5, 598652, Note_off_c, 3, 47, 61
5, 598656, Note_on_c, 3, 55, 86
5, 598944, Note_on_c, 3, 43, 86
5, 599036, Note_off_c, 3, 55, 61
5, 599036, Note_off_c, 3, 43, 61
5, 599040, Note_on_c, 3, 55, 86
5, 599040, Note_on_c, 3, 47, 86
5, 599228, Note_off_c, 3, 47, 61
5, 599420, Note_off_c, 3, 55, 61
5, 599424, Note_on_c, 3, 50, 86
5, 599424, Note_on_c, 3, 38, 89
5, 599612, Note_off_c, 3, 38, 61
5, 599804, Note_off_c, 3, 50, 61
5, 599808, Note_on_c, 3, 53, 86
5, 599808, Note_on_c, 3, 41, 86
5, 599996, Note_off_c, 3, 41, 61
5, 600188, Note_off_c, 3, 53, 61
5, 600192, Note_on_c, 3, 50, 86
5, 600192, Note_on_c, 3, 38, 89
5, 600380, Note_off_c, 3, 38, 61
5, 600572, Note_off_c, 3, 50, 61
5, 600576, Note_on_c, 3, 55, 86
5, 600576, Note_on_c, 3, 43, 86
5, 601148, Note_off_c, 3, 55, 61
5, 601148, Note_off_c, 3, 43, 61
5, 601152, Note_on_c, 3, 57, 86
5, 601212, Note_off_c, 3, 57, 61
5, 601216, Note_on_c, 3, 55, 86
5, 601276, Note_off_c, 3, 55, 61
5, 601280, Note_on_c, 3, 53, 86
5, 601340, Note_off_c, 3, 53, 61
5, 601344, Note_on_c, 3, 52, 86
5, 601344, Note_on_c, 3, 40, 88
5, 601724, Note_off_c, 3, 52, 61
5, 601724, Note_off_c, 3, 40, 61
5, 602016, Note_on_c, 3, 55, 86
5, 602016, Note_on_c, 3, 43, 86
5, 602108, Note_off_c, 3, 55, 61
5, 602108, Note_off_c, 3, 43, 61
5, 602112, Note_on_c, 3, 48, 86
5, 602112, Note_on_c, 3, 36, 90
5, 602300, Note_off_c, 3, 48, 61
5, 602300, Note_off_c, 3, 36, 61
5, 602496, Note_on_c, 3, 51, 86
5, 602496, Note_on_c, 3, 39, 88
5, 602496, Note_on_c, 3, 48, 86
5, 602684, Note_off_c, 3, 51, 61
5, 602684, Note_off_c, 3, 39, 61
5, 602780, Note_off_c, 3, 48, 61
5, 602784, Note_on_c, 3, 48, 86
5, 602876, Note_off_c, 3, 48, 61
5, 602880, Note_on_c, 3, 48, 86
5, 602880, Note_on_c, 3, 55, 86
5, 602880, Note_on_c, 3, 43, 86
5, 603068, Note_off_c, 3, 55, 61
5, 603068, Note_off_c, 3, 43, 61
5, 603260, Note_off_c, 3, 48, 61
5, 603264, Note_on_c, 3, 60, 86
5, 603264, Note_on_c, 3, 48, 86
5, 603452, Note_off_c, 3, 60, 61
5, 603452, Note_off_c, 3, 48, 61
5, 603648, Note_on_c, 3, 56, 86
5, 603648, Note_on_c, 3, 44, 86
5, 604412, Note_off_c, 3, 56, 61
5, 604412, Note_off_c, 3, 44, 61
5, 604800, Note_on_c, 3, 44, 86
5, 604800, Note_on_c, 3, 32, 92
5, 605180, Note_off_c, 3, 44, 61
5, 605180, Note_off_c, 3, 32, 61
5, 605184, Note_on_c, 3, 43, 86
5, 605184, Note_on_c, 3, 31, 93
5, 605948, Note_off_c, 3, 43, 61
5, 605948, Note_off_c, 3, 31, 61
5, 606336, Note_on_c, 3, 55, 86
5, 606336, Note_on_c, 3, 43, 86
5, 606716, Note_off_c, 3, 55, 61
5, 606716, Note_off_c, 3, 43, 61
5, 606720, Note_on_c, 3, 56, 86
5, 606720, Note_on_c, 3, 44, 86
5, 607292, Note_off_c, 3, 56, 61
5, 607292, Note_off_c, 3, 44, 61
5, 607296, Note_on_c, 3, 44, 86
5, 607296, Note_on_c, 3, 32, 92
5, 607484, Note_off_c, 3, 44, 61
5, 607484, Note_off_c, 3, 32, 61
5, 607488, Note_on_c, 3, 43, 87
5, 607488, Note_on_c, 3, 31, 93
5, 608060, Note_off_c, 3, 43, 61
5, 608060, Note_off_c, 3, 31, 61
5, 608064, Note_on_c, 3, 55, 86
5, 608064, Note_on_c, 3, 43, 86
5, 608252, Note_off_c, 3, 55, 61
5, 608252, Note_off_c, 3, 43, 61
5, 608256, Note_on_c, 3, 56, 86
5, 608256, Note_on_c, 3, 44, 86
5, 608444, Note_off_c, 3, 56, 61
5, 608444, Note_off_c, 3, 44, 61
5, 608448, Note_on_c, 3, 44, 86
5, 608448, Note_on_c, 3, 32, 92
5, 608636, Note_off_c, 3, 44, 61
5, 608636, Note_off_c, 3, 32, 61
5, 608640, Note_on_c, 3, 43, 86
5, 608640, Note_on_c, 3, 31, 93
5, 608828, Note_off_c, 3, 43, 61
5, 608828, Note_off_c, 3, 31, 61
5, 608832, Note_on_c, 3, 55, 86
5, 608832, Note_on_c, 3, 43, 86
5, 609020, Note_off_c, 3, 55, 61
5, 609020, Note_off_c, 3, 43, 61
5, 609024, Note_on_c, 3, 56, 86
5, 609024, Note_on_c, 3, 44, 86
5, 609212, Note_off_c, 3, 56, 61
5, 609212, Note_off_c, 3, 44, 61
5, 609216, Note_on_c, 3, 44, 86
5, 609216, Note_on_c, 3, 32, 92
5, 609404, Note_off_c, 3, 44, 61
5, 609404, Note_off_c, 3, 32, 61
5, 609408, Note_on_c, 3, 43, 86
5, 609408, Note_on_c, 3, 31, 93
5, 609596, Note_off_c, 3, 43, 61
5, 609596, Note_off_c, 3, 31, 61
5, 609600, Note_on_c, 3, 55, 86
5, 609600, Note_on_c, 3, 43, 86
5, 609788, Note_off_c, 3, 55, 61
5, 609788, Note_off_c, 3, 43, 61
5, 609792, Note_on_c, 3, 56, 86
5, 609792, Note_on_c, 3, 44, 86
5, 609980, Note_off_c, 3, 56, 61
5, 609980, Note_off_c, 3, 44, 61
5, 609984, Note_on_c, 3, 56, 86
5, 609984, Note_on_c, 3, 44, 86
5, 610172, Note_off_c, 3, 56, 61
5, 610172, Note_off_c, 3, 44, 61
5, 610176, Note_on_c, 3, 56, 86
5, 610176, Note_on_c, 3, 44, 86
5, 610364, Note_off_c, 3, 56, 61
5, 610364, Note_off_c, 3, 44, 61
5, 610368, Note_on_c, 3, 56, 86
5, 610368, Note_on_c, 3, 44, 86
5, 610556, Note_off_c, 3, 56, 61
5, 610556, Note_off_c, 3, 44, 61
5, 610560, Note_on_c, 3, 56, 86
5, 610560, Note_on_c, 3, 44, 86
5, 610748, Note_off_c, 3, 56, 61
5, 610748, Note_off_c, 3, 44, 61
5, 610752, Note_on_c, 3, 56, 86
5, 610752, Note_on_c, 3, 44, 86
5, 610940, Note_off_c, 3, 56, 61
5, 610940, Note_off_c, 3, 44, 61
5, 610944, Note_on_c, 3, 56, 86
5, 610944, Note_on_c, 3, 44, 86
5, 611132, Note_off_c, 3, 56, 61
5, 611132, Note_off_c, 3, 44, 61
5, 611136, Note_on_c, 3, 56, 86
5, 611136, Note_on_c, 3, 44, 86
5, 611324, Note_off_c, 3, 56, 61
5, 611324, Note_off_c, 3, 44, 61
5, 611328, Note_on_c, 3, 55, 86
5, 611328, Note_on_c, 3, 43, 86
5, 611708, Note_off_c, 3, 55, 61
5, 611708, Note_off_c, 3, 43, 61
5, 612096, Note_on_c, 3, 53, 86
5, 612096, Note_on_c, 3, 41, 86
5, 612476, Note_off_c, 3, 53, 61
5, 612476, Note_off_c, 3, 41, 61
5, 612864, Note_on_c, 3, 52, 86
5, 612864, Note_on_c, 3, 40, 86
5, 613244, Note_off_c, 3, 52, 61
5, 613244, Note_off_c, 3, 40, 61
5, 613632, Note_on_c, 3, 57, 86
5, 613632, Note_on_c, 3, 45, 86
5, 614012, Note_off_c, 3, 57, 61
5, 614012, Note_off_c, 3, 45, 61
5, 614392, Control_c, 3, 64, 127
5, 614400, Note_on_c, 3, 55, 86
5, 614400, Note_on_c, 3, 43, 86
5, 615160, Control_c, 3, 64, 0
5, 615548, Note_off_c, 3, 55, 61
5, 615548, Note_off_c, 3, 43, 61
5, 688128, Note_on_c, 3, 48, 86
5, 688128, Note_on_c, 3, 36, 90
5, 688316, Note_off_c, 3, 48, 61
5, 688316, Note_off_c, 3, 36, 61
5, 688320, Note_on_c, 3, 52, 86
5, 688320, Note_on_c, 3, 48, 86
5, 688508, Note_off_c, 3, 52, 61
5, 688508, Note_off_c, 3, 48, 61
5, 688512, Note_on_c, 3, 55, 86
5, 688512, Note_on_c, 3, 52, 86
5, 688700, Note_off_c, 3, 55, 61
5, 688700, Note_off_c, 3, 52, 61
5, 688704, Note_on_c, 3, 55, 86
5, 688704, Note_on_c, 3, 52, 86
5, 688892, Note_off_c, 3, 55, 61
5, 688892, Note_off_c, 3, 52, 61
5, 688896, Note_on_c, 3, 53, 86
5, 688896, Note_on_c, 3, 41, 87
5, 689084, Note_off_c, 3, 53, 61
5, 689084, Note_off_c, 3, 41, 61
5, 689088, Note_on_c, 3, 56, 86
5, 689088, Note_on_c, 3, 53, 86
5, 689276, Note_off_c, 3, 56, 61
5, 689276, Note_off_c, 3, 53, 61
5, 689280, Note_on_c, 3, 56, 86
5, 689280, Note_on_c, 3, 53, 86
5, 689468, Note_off_c, 3, 56, 61
5, 689468, Note_off_c, 3, 53, 61
5, 689472, Note_on_c, 3, 56, 86
5, 689472, Note_on_c, 3, 53, 86
5, 689660, Note_off_c, 3, 56, 61
5, 689660, Note_off_c, 3, 53, 61
5, 689664, Note_on_c, 3, 52, 86
5, 689664, Note_on_c, 3, 40, 88
5, 689852, Note_off_c, 3, 52, 61
5, 689852, Note_off_c, 3, 40, 61
5, 689856, Note_on_c, 3, 55, 86
5, 689856, Note_on_c, 3, 52, 86
5, 690044, Note_off_c, 3, 55, 61
5, 690044, Note_off_c, 3, 52, 61
5, 690048, Note_on_c, 3, 55, 86
5, 690048, Note_on_c, 3, 52, 86
5, 690236, Note_off_c, 3, 55, 61
5, 690236, Note_off_c, 3, 52, 61
5, 690240, Note_on_c, 3, 55, 86
5, 690240, Note_on_c, 3, 52, 86
5, 690428, Note_off_c, 3, 55, 61
5, 690428, Note_off_c, 3, 52, 61
5, 690432, Note_on_c, 3, 53, 86
5, 690432, Note_on_c, 3, 41, 87
5, 690620, Note_off_c, 3, 53, 61
5, 690620, Note_off_c, 3, 41, 61
5, 690624, Note_on_c, 3, 56, 86
5, 690624, Note_on_c, 3, 53, 86
5, 690812, Note_off_c, 3, 56, 61
5, 690812, Note_off_c, 3, 53, 61
5, 690816, Note_on_c, 3, 56, 86
5, 690816, Note_on_c, 3, 53, 86
5, 691004, Note_off_c, 3, 56, 61
5, 691004, Note_off_c, 3, 53, 61
5, 691008, Note_on_c, 3, 56, 86
5, 691008, Note_on_c, 3, 53, 86
5, 691196, Note_off_c, 3, 56, 61
5, 691196, Note_off_c, 3, 53, 61
5, 691200, Note_on_c, 3, 52, 86
5, 691200, Note_on_c, 3, 40, 88
5, 691388, Note_off_c, 3, 52, 61
5, 691388, Note_off_c, 3, 40, 61
5, 691392, Note_on_c, 3, 55, 86
5, 691392, Note_on_c, 3, 52, 86
5, 691580, Note_off_c, 3, 55, 61
5, 691580, Note_off_c, 3, 52, 61
5, 691584, Note_on_c, 3, 55, 86
5, 691584, Note_on_c, 3, 52, 86
5, 691772, Note_off_c, 3, 55, 61
5, 691772, Note_off_c, 3, 52, 61
5, 691776, Note_on_c, 3, 55, 86
5, 691776, Note_on_c, 3, 52, 86
5, 691964, Note_off_c, 3, 55, 61
5, 691964, Note_off_c, 3, 52, 61
5, 691968, Note_on_c, 3, 53, 87
5, 691968, Note_on_c, 3, 41, 86
5, 692156, Note_off_c, 3, 53, 61
5, 692156, Note_off_c, 3, 41, 61
5, 692160, Note_on_c, 3, 56, 86
5, 692160, Note_on_c, 3, 53, 86
5, 692348, Note_off_c, 3, 56, 61
5, 692348, Note_off_c, 3, 53, 61
5, 692352, Note_on_c, 3, 56, 86
5, 692352, Note_on_c, 3, 53, 86
5, 692540, Note_off_c, 3, 56, 61
5, 692540, Note_off_c, 3, 53, 61
5, 692544, Note_on_c, 3, 56, 86
5, 692544, Note_on_c, 3, 53, 86
5, 692732, Note_off_c, 3, 56, 61
5, 692732, Note_off_c, 3, 53, 61
5, 692736, Note_on_c, 3, 55, 86
5, 692736, Note_on_c, 3, 52, 86
5, 692828, Note_off_c, 3, 55, 61
5, 692828, Note_off_c, 3, 52, 61
5, 692832, Note_on_c, 3, 60, 86
5, 692924, Note_off_c, 3, 60, 61
5, 692928, Note_on_c, 3, 55, 86
5, 692928, Note_on_c, 3, 52, 86
5, 693020, Note_off_c, 3, 55, 61
5, 693020, Note_off_c, 3, 52, 61
5, 693024, Note_on_c, 3, 60, 86
5, 693116, Note_off_c, 3, 60, 61
5, 693120, Note_on_c, 3, 55, 86
5, 693120, Note_on_c, 3, 52, 86
5, 693212, Note_off_c, 3, 55, 61
5, 693212, Note_off_c, 3, 52, 61
5, 693216, Note_on_c, 3, 60, 86
5, 693308, Note_off_c, 3, 60, 61
5, 693312, Note_on_c, 3, 55, 86
5, 693312, Note_on_c, 3, 52, 86
5, 693404, Note_off_c, 3, 55, 61
5, 693404, Note_off_c, 3, 52, 61
5, 693408, Note_on_c, 3, 60, 86
5, 693500, Note_off_c, 3, 60, 61
5, 693504, Note_on_c, 3, 55, 86
5, 693504, Note_on_c, 3, 52, 86
5, 693596, Note_off_c, 3, 55, 61
5, 693596, Note_off_c, 3, 52, 61
5, 693600, Note_on_c, 3, 60, 86
5, 693692, Note_off_c, 3, 60, 61
5, 693696, Note_on_c, 3, 55, 86
5, 693696, Note_on_c, 3, 52, 86
5, 693788, Note_off_c, 3, 55, 61
5, 693788, Note_off_c, 3, 52, 61
5, 693792, Note_on_c, 3, 60, 86
5, 693884, Note_off_c, 3, 60, 61
5, 693888, Note_on_c, 3, 58, 86
5, 693888, Note_on_c, 3, 52, 86
5, 693980, Note_off_c, 3, 58, 61
5, 693980, Note_off_c, 3, 52, 61
5, 693984, Note_on_c, 3, 60, 86
5, 694076, Note_off_c, 3, 60, 61
5, 694080, Note_on_c, 3, 58, 86
5, 694080, Note_on_c, 3, 52, 86
5, 694172, Note_off_c, 3, 58, 61
5, 694172, Note_off_c, 3, 52, 61
5, 694176, Note_on_c, 3, 60, 86
5, 694268, Note_off_c, 3, 60, 61
5, 694272, Note_on_c, 3, 57, 86
5, 694272, Note_on_c, 3, 53, 86
5, 694364, Note_off_c, 3, 57, 61
5, 694364, Note_off_c, 3, 53, 61
5, 694368, Note_on_c, 3, 60, 86
5, 694460, Note_off_c, 3, 60, 61
5, 694464, Note_on_c, 3, 57, 86
5, 694464, Note_on_c, 3, 53, 86
5, 694556, Note_off_c, 3, 57, 61
5, 694556, Note_off_c, 3, 53, 61
5, 694560, Note_on_c, 3, 60, 86
5, 694652, Note_off_c, 3, 60, 61
5, 694656, Note_on_c, 3, 57, 86
5, 694656, Note_on_c, 3, 53, 86
5, 694748, Note_off_c, 3, 57, 61
5, 694748, Note_off_c, 3, 53, 61
5, 694752, Note_on_c, 3, 60, 86
5, 694844, Note_off_c, 3, 60, 61
5, 694848, Note_on_c, 3, 57, 86
5, 694848, Note_on_c, 3, 53, 86
5, 694940, Note_off_c, 3, 57, 61
5, 694940, Note_off_c, 3, 53, 61
5, 694944, Note_on_c, 3, 60, 86
5, 695036, Note_off_c, 3, 60, 61
5, 695040, Note_on_c, 3, 57, 86
5, 695040, Note_on_c, 3, 53, 86
5, 695132, Note_off_c, 3, 57, 61
5, 695132, Note_off_c, 3, 53, 61
5, 695136, Note_on_c, 3, 60, 86
5, 695228, Note_off_c, 3, 60, 61
5, 695232, Note_on_c, 3, 57, 86
5, 695232, Note_on_c, 3, 53, 86
5, 695324, Note_off_c, 3, 57, 61
5, 695324, Note_off_c, 3, 53, 61
5, 695328, Note_on_c, 3, 60, 86
5, 695420, Note_off_c, 3, 60, 61
5, 695424, Note_on_c, 3, 56, 86
5, 695424, Note_on_c, 3, 53, 86
5, 695516, Note_off_c, 3, 56, 61
5, 695516, Note_off_c, 3, 53, 61
5, 695520, Note_on_c, 3, 62, 86
5, 695612, Note_off_c, 3, 62, 61
5, 695616, Note_on_c, 3, 56, 86
5, 695616, Note_on_c, 3, 53, 86
5, 695708, Note_off_c, 3, 56, 61
5, 695708, Note_off_c, 3, 53, 61
5, 695712, Note_on_c, 3, 62, 86
5, 695804, Note_off_c, 3, 62, 61
5, 695808, Note_on_c, 3, 57, 86
5, 695808, Note_on_c, 3, 53, 86
5, 695900, Note_off_c, 3, 57, 61
5, 695900, Note_off_c, 3, 53, 61
5, 695904, Note_on_c, 3, 63, 86
5, 695996, Note_off_c, 3, 63, 61
5, 696000, Note_on_c, 3, 57, 86
5, 696000, Note_on_c, 3, 53, 86
5, 696092, Note_off_c, 3, 57, 61
5, 696092, Note_off_c, 3, 53, 61
5, 696096, Note_on_c, 3, 63, 86
5, 696188, Note_off_c, 3, 63, 61
5, 696192, Note_on_c, 3, 57, 86
5, 696192, Note_on_c, 3, 53, 86
5, 696284, Note_off_c, 3, 57, 61
5, 696284, Note_off_c, 3, 53, 61
5, 696288, Note_on_c, 3, 63, 86
5, 696380, Note_off_c, 3, 63, 61
5, 696384, Note_on_c, 3, 57, 86
5, 696384, Note_on_c, 3, 53, 86
5, 696476, Note_off_c, 3, 57, 61
5, 696476, Note_off_c, 3, 53, 61
5, 696480, Note_on_c, 3, 63, 86
5, 696572, Note_off_c, 3, 63, 61
5, 696576, Note_on_c, 3, 60, 86
5, 696576, Note_on_c, 3, 57, 86
5, 696668, Note_off_c, 3, 60, 61
5, 696668, Note_off_c, 3, 57, 61
5, 696672, Note_on_c, 3, 63, 86
5, 696764, Note_off_c, 3, 63, 61
5, 696768, Note_on_c, 3, 60, 86
5, 696768, Note_on_c, 3, 57, 86
5, 696860, Note_off_c, 3, 60, 61
5, 696860, Note_off_c, 3, 57, 61
5, 696864, Note_on_c, 3, 63, 86
5, 696956, Note_off_c, 3, 63, 61
5, 696960, Note_on_c, 3, 60, 86
5, 696960, Note_on_c, 3, 57, 86
5, 697052, Note_off_c, 3, 60, 61
5, 697052, Note_off_c, 3, 57, 61
5, 697056, Note_on_c, 3, 63, 86
5, 697148, Note_off_c, 3, 63, 61
5, 697152, Note_on_c, 3, 60, 86
5, 697152, Note_on_c, 3, 57, 86
5, 697244, Note_off_c, 3, 60, 61
5, 697244, Note_off_c, 3, 57, 61
5, 697248, Note_on_c, 3, 63, 86
5, 697340, Note_off_c, 3, 63, 61
5, 697344, Note_on_c, 3, 60, 86
5, 697344, Note_on_c, 3, 55, 86
5, 697436, Note_off_c, 3, 60, 61
5, 697436, Note_off_c, 3, 55, 61
5, 697440, Note_on_c, 3, 64, 86
5, 697532, Note_off_c, 3, 64, 61
5, 697536, Note_on_c, 3, 60, 86
5, 697536, Note_on_c, 3, 55, 86
5, 697628, Note_off_c, 3, 60, 61
5, 697628, Note_off_c, 3, 55, 61
5, 697632, Note_on_c, 3, 64, 86
5, 697724, Note_off_c, 3, 64, 61
5, 697728, Note_on_c, 3, 60, 86
5, 697728, Note_on_c, 3, 55, 86
5, 697820, Note_off_c, 3, 60, 61
5, 697820, Note_off_c, 3, 55, 61
5, 697824, Note_on_c, 3, 64, 86
5, 697916, Note_off_c, 3, 64, 61
5, 697920, Note_on_c, 3, 60, 86
5, 697920, Note_on_c, 3, 55, 86
5, 698012, Note_off_c, 3, 60, 61
5, 698012, Note_off_c, 3, 55, 61
5, 698016, Note_on_c, 3, 64, 86
5, 698108, Note_off_c, 3, 64, 61
5, 698112, Note_on_c, 3, 60, 86
5, 698112, Note_on_c, 3, 55, 86
5, 698204, Note_off_c, 3, 60, 61
5, 698204, Note_off_c, 3, 55, 61
5, 698208, Note_on_c, 3, 64, 86
5, 698300, Note_off_c, 3, 64, 61
5, 698304, Note_on_c, 3, 60, 86
5, 698304, Note_on_c, 3, 55, 86
5, 698396, Note_off_c, 3, 60, 61
5, 698396, Note_off_c, 3, 55, 61
5, 698400, Note_on_c, 3, 64, 86
5, 698492, Note_off_c, 3, 64, 61
5, 698496, Note_on_c, 3, 60, 86
5, 698496, Note_on_c, 3, 55, 86
5, 698588, Note_off_c, 3, 60, 61
5, 698588, Note_off_c, 3, 55, 61
5, 698592, Note_on_c, 3, 64, 86
5, 698684, Note_off_c, 3, 64, 61
5, 698688, Note_on_c, 3, 60, 86
5, 698688, Note_on_c, 3, 55, 86
5, 698780, Note_off_c, 3, 60, 61
5, 698780, Note_off_c, 3, 55, 61
5, 698784, Note_on_c, 3, 64, 86
5, 698876, Note_off_c, 3, 64, 61
5, 698880, Note_on_c, 3, 59, 86
5, 698880, Note_on_c, 3, 55, 86
5, 698972, Note_off_c, 3, 59, 61
5, 698972, Note_off_c, 3, 55, 61
5, 698976, Note_on_c, 3, 62, 86
5, 699068, Note_off_c, 3, 62, 61
5, 699072, Note_on_c, 3, 59, 86
5, 699072, Note_on_c, 3, 55, 86
5, 699164, Note_off_c, 3, 59, 61
5, 699164, Note_off_c, 3, 55, 61
5, 699168, Note_on_c, 3, 62, 86
5, 699260, Note_off_c, 3, 62, 61
5, 699264, Note_on_c, 3, 59, 86
5, 699264, Note_on_c, 3, 55, 86
5, 699356, Note_off_c, 3, 59, 61
5, 699356, Note_off_c, 3, 55, 61
5, 699360, Note_on_c, 3, 62, 86
5, 699452, Note_off_c, 3, 62, 61
5, 699456, Note_on_c, 3, 59, 86
5, 699456, Note_on_c, 3, 55, 86
5, 699548, Note_off_c, 3, 59, 61
5, 699548, Note_off_c, 3, 55, 61
5, 699552, Note_on_c, 3, 62, 86
5, 699644, Note_off_c, 3, 62, 61
5, 699648, Note_on_c, 3, 62, 86
5, 699648, Note_on_c, 3, 55, 86
5, 699740, Note_off_c, 3, 62, 61
5, 699740, Note_off_c, 3, 55, 61
5, 699744, Note_on_c, 3, 65, 86
5, 699836, Note_off_c, 3, 65, 61
5, 699840, Note_on_c, 3, 62, 86
5, 699840, Note_on_c, 3, 55, 86
5, 699932, Note_off_c, 3, 62, 61
5, 699932, Note_off_c, 3, 55, 61
5, 699936, Note_on_c, 3, 65, 86
5, 700028, Note_off_c, 3, 65, 61
5, 700032, Note_on_c, 3, 62, 86
5, 700032, Note_on_c, 3, 55, 86
5, 700124, Note_off_c, 3, 62, 61
5, 700124, Note_off_c, 3, 55, 61
5, 700128, Note_on_c, 3, 65, 86
5, 700220, Note_off_c, 3, 65, 61
5, 700224, Note_on_c, 3, 62, 86
5, 700224, Note_on_c, 3, 55, 86
5, 700316, Note_off_c, 3, 62, 61
5, 700316, Note_off_c, 3, 55, 61
5, 700320, Note_on_c, 3, 65, 86
5, 700412, Note_off_c, 3, 65, 61
5, 700416, Note_on_c, 3, 60, 86
5, 700416, Note_on_c, 3, 55, 86
5, 700416, Note_on_c, 3, 52, 86
5, 700416, Note_on_c, 3, 48, 86
5, 700604, Note_off_c, 3, 60, 61
5, 700604, Note_off_c, 3, 55, 61
5, 700604, Note_off_c, 3, 52, 61
5, 700604, Note_off_c, 3, 48, 61
5, 700608, Note_on_c, 3, 60, 86
5, 700796, Note_off_c, 3, 60, 61
5, 700800, Note_on_c, 3, 57, 86
5, 700800, Note_on_c, 3, 45, 86
5, 700988, Note_off_c, 3, 57, 61
5, 700988, Note_off_c, 3, 45, 61
5, 700992, Note_on_c, 3, 57, 86
5, 700992, Note_on_c, 3, 45, 86
5, 701180, Note_off_c, 3, 57, 61
5, 701180, Note_off_c, 3, 45, 61
5, 701184, Note_on_c, 3, 57, 86
5, 701184, Note_on_c, 3, 50, 86
5, 701372, Note_off_c, 3, 57, 61
5, 701372, Note_off_c, 3, 50, 61
5, 701376, Note_on_c, 3, 57, 86
5, 701376, Note_on_c, 3, 50, 86
5, 701564, Note_off_c, 3, 57, 61
5, 701564, Note_off_c, 3, 50, 61
5, 701568, Note_on_c, 3, 60, 86
5, 701568, Note_on_c, 3, 48, 86
5, 701756, Note_off_c, 3, 60, 61
5, 701756, Note_off_c, 3, 48, 61
5, 701760, Note_on_c, 3, 60, 86
5, 701760, Note_on_c, 3, 48, 86
5, 701948, Note_off_c, 3, 60, 61
5, 701948, Note_off_c, 3, 48, 61
5, 701952, Note_on_c, 3, 60, 86
5, 701952, Note_on_c, 3, 53, 86
5, 702140, Note_off_c, 3, 60, 61
5, 702140, Note_off_c, 3, 53, 61
5, 702144, Note_on_c, 3, 60, 86
5, 702144, Note_on_c, 3, 53, 86
5, 702332, Note_off_c, 3, 60, 61
5, 702332, Note_off_c, 3, 53, 61
5, 702336, Note_on_c, 3, 62, 86
5, 702336, Note_on_c, 3, 50, 86
5, 702524, Note_off_c, 3, 62, 61
5, 702524, Note_off_c, 3, 50, 61
5, 702528, Note_on_c, 3, 62, 86
5, 702528, Note_on_c, 3, 50, 86
5, 702716, Note_off_c, 3, 62, 61
5, 702716, Note_off_c, 3, 50, 61
5, 702720, Note_on_c, 3, 62, 86
5, 702720, Note_on_c, 3, 55, 86
5, 702908, Note_off_c, 3, 62, 61
5, 702908, Note_off_c, 3, 55, 61
5, 702912, Note_on_c, 3, 62, 86
5, 702912, Note_on_c, 3, 55, 86
5, 703100, Note_off_c, 3, 62, 61
5, 703100, Note_off_c, 3, 55, 61
5, 703104, Note_on_c, 3, 64, 86
5, 703104, Note_on_c, 3, 52, 86
5, 703292, Note_off_c, 3, 64, 61
5, 703292, Note_off_c, 3, 52, 61
5, 703296, Note_on_c, 3, 64, 86
5, 703296, Note_on_c, 3, 52, 86
5, 703484, Note_off_c, 3, 64, 61
5, 703484, Note_off_c, 3, 52, 61
5, 703488, Note_on_c, 3, 62, 86
5, 703488, Note_on_c, 3, 60, 86
5, 703488, Note_on_c, 3, 53, 86
5, 703676, Note_off_c, 3, 62, 61
5, 703676, Note_off_c, 3, 60, 61
5, 703676, Note_off_c, 3, 53, 61
5, 703680, Note_on_c, 3, 62, 86
5, 703680, Note_on_c, 3, 60, 86
5, 703680, Note_on_c, 3, 53, 86
5, 703868, Note_off_c, 3, 62, 61
5, 703868, Note_off_c, 3, 60, 61
5, 703868, Note_off_c, 3, 53, 61
5, 703872, Note_on_c, 3, 62, 86
5, 703872, Note_on_c, 3, 53, 86
5, 703872, Note_on_c, 3, 60, 86
5, 704060, Note_off_c, 3, 62, 61
5, 704060, Note_off_c, 3, 53, 61
5, 704060, Note_off_c, 3, 60, 61
5, 704064, Note_on_c, 3, 62, 86
5, 704064, Note_on_c, 3, 60, 86
5, 704064, Note_on_c, 3, 53, 86
5, 704252, Note_off_c, 3, 62, 61
5, 704252, Note_off_c, 3, 60, 61
5, 704252, Note_off_c, 3, 53, 61
5, 704256, Note_on_c, 3, 62, 86
5, 704256, Note_on_c, 3, 60, 86
5, 704256, Note_on_c, 3, 53, 86
5, 704444, Note_off_c, 3, 62, 61
5, 704444, Note_off_c, 3, 60, 61
5, 704444, Note_off_c, 3, 53, 61
5, 704448, Note_on_c, 3, 62, 86
5, 704448, Note_on_c, 3, 60, 86
5, 704448, Note_on_c, 3, 53, 86
5, 704636, Note_off_c, 3, 62, 61
5, 704636, Note_off_c, 3, 60, 61
5, 704636, Note_off_c, 3, 53, 61
5, 704640, Note_on_c, 3, 62, 86
5, 704640, Note_on_c, 3, 60, 86
5, 704640, Note_on_c, 3, 53, 86
5, 704828, Note_off_c, 3, 62, 61
5, 704828, Note_off_c, 3, 60, 61
5, 704828, Note_off_c, 3, 53, 61
5, 704832, Note_on_c, 3, 62, 86
5, 704832, Note_on_c, 3, 60, 86
5, 704832, Note_on_c, 3, 53, 86
5, 705020, Note_off_c, 3, 62, 61
5, 705020, Note_off_c, 3, 60, 61
5, 705020, Note_off_c, 3, 53, 61
5, 705024, Note_on_c, 3, 64, 86
5, 705024, Note_on_c, 3, 60, 86
5, 705024, Note_on_c, 3, 55, 86
5, 705212, Note_off_c, 3, 64, 61
5, 705212, Note_off_c, 3, 60, 61
5, 705212, Note_off_c, 3, 55, 61
5, 705216, Note_on_c, 3, 64, 86
5, 705216, Note_on_c, 3, 60, 86
5, 705216, Note_on_c, 3, 55, 86
5, 705404, Note_off_c, 3, 64, 61
5, 705404, Note_off_c, 3, 60, 61
5, 705404, Note_off_c, 3, 55, 61
5, 705408, Note_on_c, 3, 64, 86
5, 705408, Note_on_c, 3, 60, 86
5, 705408, Note_on_c, 3, 55, 86
5, 705596, Note_off_c, 3, 64, 61
5, 705596, Note_off_c, 3, 60, 61
5, 705596, Note_off_c, 3, 55, 61
5, 705600, Note_on_c, 3, 64, 86
5, 705600, Note_on_c, 3, 60, 86
5, 705600, Note_on_c, 3, 55, 86
5, 705788, Note_off_c, 3, 64, 61
5, 705788, Note_off_c, 3, 60, 61
5, 705788, Note_off_c, 3, 55, 61
5, 705792, Note_on_c, 3, 64, 86
5, 705792, Note_on_c, 3, 60, 86
5, 705792, Note_on_c, 3, 55, 86
5, 705980, Note_off_c, 3, 64, 61
5, 705980, Note_off_c, 3, 60, 61
5, 705980, Note_off_c, 3, 55, 61
5, 705984, Note_on_c, 3, 64, 86
5, 705984, Note_on_c, 3, 60, 86
5, 705984, Note_on_c, 3, 55, 86
5, 706172, Note_off_c, 3, 64, 61
5, 706172, Note_off_c, 3, 60, 61
5, 706172, Note_off_c, 3, 55, 61
5, 706176, Note_on_c, 3, 64, 86
5, 706176, Note_on_c, 3, 60, 86
5, 706176, Note_on_c, 3, 55, 86
5, 706364, Note_off_c, 3, 64, 61
5, 706364, Note_off_c, 3, 60, 61
5, 706364, Note_off_c, 3, 55, 61
5, 706368, Note_on_c, 3, 64, 86
5, 706368, Note_on_c, 3, 60, 86
5, 706368, Note_on_c, 3, 55, 86
5, 706556, Note_off_c, 3, 64, 61
5, 706556, Note_off_c, 3, 60, 61
5, 706556, Note_off_c, 3, 55, 61
5, 706560, Note_on_c, 3, 60, 86
5, 706560, Note_on_c, 3, 48, 86
5, 706748, Note_off_c, 3, 60, 61
5, 706748, Note_off_c, 3, 48, 61
5, 706944, Note_on_c, 3, 55, 86
5, 707132, Note_off_c, 3, 55, 61
5, 707328, Note_on_c, 3, 60, 86
5, 707516, Note_off_c, 3, 60, 61
5, 707712, Note_on_c, 3, 64, 86
5, 707900, Note_off_c, 3, 64, 61
5, 708096, Note_on_c, 3, 60, 86
5, 708096, Note_on_c, 3, 48, 86
5, 708284, Note_off_c, 3, 60, 61
5, 708284, Note_off_c, 3, 48, 61
5, 708480, Note_on_c, 3, 43, 86
5, 708480, Note_on_c, 3, 55, 86
5, 708668, Note_off_c, 3, 43, 61
5, 708668, Note_off_c, 3, 55, 61
5, 708864, Note_on_c, 3, 60, 86
5, 708864, Note_on_c, 3, 48, 86
5, 709052, Note_off_c, 3, 60, 61
5, 709052, Note_off_c, 3, 48, 61
5, 709248, Note_on_c, 3, 64, 86
5, 709248, Note_on_c, 3, 52, 86
5, 709436, Note_off_c, 3, 64, 61
5, 709436, Note_off_c, 3, 52, 61
5, 709632, Note_on_c, 3, 65, 86
5, 709632, Note_on_c, 3, 53, 86
5, 709632, Note_on_c, 3, 67, 86
5, 710204, Note_off_c, 3, 65, 61
5, 710204, Note_off_c, 3, 53, 61
5, 710208, Note_on_c, 3, 62, 86
5, 710300, Note_off_c, 3, 62, 61
5, 710304, Note_on_c, 3, 59, 86
5, 710396, Note_off_c, 3, 67, 61
5, 710396, Note_off_c, 3, 59, 61
5, 710400, Note_on_c, 3, 60, 86
5, 710400, Note_on_c, 3, 60, 86
5, 710400, Note_on_c, 3, 48, 86
5, 710972, Note_off_c, 3, 60, 61
5, 710972, Note_off_c, 3, 48, 61
5, 710976, Note_on_c, 3, 57, 86
5, 711068, Note_off_c, 3, 57, 61
5, 711072, Note_on_c, 3, 54, 86
5, 711164, Note_off_c, 3, 60, 61
5, 711164, Note_off_c, 3, 54, 61
5, 711168, Note_on_c, 3, 55, 86
5, 711168, Note_on_c, 3, 43, 86
5, 711548, Note_off_c, 3, 55, 61
5, 711548, Note_off_c, 3, 43, 61
5, 711552, Note_on_c, 3, 55, 86
5, 711552, Note_on_c, 3, 43, 86
5, 711836, Note_off_c, 3, 55, 61
5, 711836, Note_off_c, 3, 43, 61
5, 711840, Note_on_c, 3, 55, 94
5, 711840, Note_on_c, 3, 43, 94
5, 711932, Note_off_c, 3, 55, 61
5, 711932, Note_off_c, 3, 43, 61
5, 711936, Note_on_c, 3, 55, 86
5, 711936, Note_on_c, 3, 43, 86
5, 712316, Note_off_c, 3, 55, 61
5, 712316, Note_off_c, 3, 43, 61
5, 712320, Note_on_c, 3, 55, 86
5, 712320, Note_on_c, 3, 43, 86
5, 712700, Note_off_c, 3, 55, 61
5, 712700, Note_off_c, 3, 43, 61
5, 712704, Note_on_c, 3, 60, 86
5, 712704, Note_on_c, 3, 55, 86
5, 712704, Note_on_c, 3, 52, 86
5, 712704, Note_on_c, 3, 48, 86
5, 713084, Note_off_c, 3, 60, 61
5, 713084, Note_off_c, 3, 55, 61
5, 713084, Note_off_c, 3, 52, 61
5, 713084, Note_off_c, 3, 48, 61
5, 713472, Note_on_c, 3, 63, 62
5, 713472, Note_on_c, 3, 66, 62
5, 713660, Note_off_c, 3, 63, 61
5, 713660, Note_off_c, 3, 66, 61
5, 713664, Note_on_c, 3, 64, 62
5, 713664, Note_on_c, 3, 67, 62
5, 713852, Note_off_c, 3, 64, 61
5, 713852, Note_off_c, 3, 67, 61
5, 713856, Note_on_c, 3, 64, 62
5, 713856, Note_on_c, 3, 67, 62
5, 713948, Note_off_c, 3, 64, 61
5, 713948, Note_off_c, 3, 67, 61
5, 714144, Note_on_c, 3, 55, 62
5, 714144, Note_on_c, 3, 43, 62
5, 714236, Note_off_c, 3, 55, 61
5, 714236, Note_off_c, 3, 43, 61
5, 714240, Note_on_c, 3, 60, 62
5, 714240, Note_on_c, 3, 48, 62
5, 714428, Note_off_c, 3, 60, 61
5, 714428, Note_off_c, 3, 48, 61
5, 714624, Note_on_c, 3, 64, 62
5, 714624, Note_on_c, 3, 52, 62
5, 714812, Note_off_c, 3, 64, 61
5, 714812, Note_off_c, 3, 52, 61
5, 715008, Note_on_c, 3, 63, 62
5, 715008, Note_on_c, 3, 59, 62
5, 715008, Note_on_c, 3, 67, 62
5, 715008, Note_on_c, 3, 55, 62
5, 715196, Note_off_c, 3, 63, 61
5, 715196, Note_off_c, 3, 59, 61
5, 715200, Note_on_c, 3, 64, 62
5, 715200, Note_on_c, 3, 60, 62
5, 715388, Note_off_c, 3, 67, 61
5, 715388, Note_off_c, 3, 55, 61
5, 715388, Note_off_c, 3, 64, 61
5, 715388, Note_off_c, 3, 60, 61
5, 715392, Note_on_c, 3, 64, 62
5, 715392, Note_on_c, 3, 60, 62
5, 715484, Note_off_c, 3, 64, 61
5, 715484, Note_off_c, 3, 60, 61
5, 715680, Note_on_c, 3, 55, 62
5, 715680, Note_on_c, 3, 43, 62
5, 715772, Note_off_c, 3, 55, 61
5, 715772, Note_off_c, 3, 43, 61
5, 715776, Note_on_c, 3, 60, 62
5, 715776, Note_on_c, 3, 48, 62
5, 715964, Note_off_c, 3, 60, 61
5, 715964, Note_off_c, 3, 48, 61
5, 716160, Note_on_c, 3, 64, 62
5, 716160, Note_on_c, 3, 52, 62
5, 716348, Note_off_c, 3, 64, 61
5, 716348, Note_off_c, 3, 52, 61
5, 716544, Note_on_c, 3, 63, 62
5, 716544, Note_on_c, 3, 59, 62
5, 716544, Note_on_c, 3, 67, 62
5, 716544, Note_on_c, 3, 55, 62
5, 716636, Note_off_c, 3, 63, 61
5, 716636, Note_off_c, 3, 59, 61
5, 716736, Note_on_c, 3, 64, 62
5, 716736, Note_on_c, 3, 60, 62
5, 716924, Note_off_c, 3, 64, 61
5, 716924, Note_off_c, 3, 60, 61
5, 716928, Note_on_c, 3, 60, 62
5, 716928, Note_on_c, 3, 64, 62
5, 717020, Note_off_c, 3, 60, 61
5, 717020, Note_off_c, 3, 64, 61
5, 717116, Note_off_c, 3, 67, 61
5, 717116, Note_off_c, 3, 55, 61
5, 717120, Note_on_c, 3, 53, 62
5, 717180, Note_off_c, 3, 53, 61
5, 717184, Note_on_c, 3, 52, 62
5, 717244, Note_off_c, 3, 52, 61
5, 717248, Note_on_c, 3, 50, 62
5, 717308, Note_off_c, 3, 50, 61
5, 717312, Note_on_c, 3, 60, 62
5, 717312, Note_on_c, 3, 48, 62
5, 717500, Note_off_c, 3, 60, 61
5, 717500, Note_off_c, 3, 48, 61
5, 717696, Note_on_c, 3, 55, 62
5, 717696, Note_on_c, 3, 43, 62
5, 717884, Note_off_c, 3, 55, 61
5, 717884, Note_off_c, 3, 43, 61
5, 718080, Note_on_c, 3, 60, 62
5, 718080, Note_on_c, 3, 48, 62
5, 718268, Note_off_c, 3, 60, 61
5, 718268, Note_off_c, 3, 48, 61
5, 718464, Note_on_c, 3, 64, 62
5, 718464, Note_on_c, 3, 52, 62
5, 718652, Note_off_c, 3, 64, 61
5, 718652, Note_off_c, 3, 52, 61
5, 718848, Note_on_c, 3, 60, 62
5, 718848, Note_on_c, 3, 48, 62
5, 719228, Note_off_c, 3, 48, 61
5, 719232, Note_off_c, 3, 60, 61
5, 719232, End_track
0, 0, End_of_file
