0, 0, Header, 1, 17, 384
1, 0, Start_track
1, 0, Time_signature, 2, 2, 96, 8
1, 0, Sequencer_specific, 3, 0, 0, 65
1, 0, Tempo, 697674
1, 193536, Tempo, 750000
1, 193536, End_track
2, 0, Start_track
2, 0, Title_t, "Mozart"
2, 0, Control_c, 0, 0, 0
2, 0, Program_c, 0, 0
2, 0, Control_c, 0, 7, 115
2, 0, Control_c, 0, 10, 81
2, 0, Control_c, 0, 91, 36
2, 0, Control_c, 0, 93, 37
2, 0, Key_signature, 0, "major"
2, 0, Control_c, 0, 121, 0
2, 96, Control_c, 0, 10, 73
2, 136, Control_c, 0, 91, 63
2, 176, Control_c, 0, 93, 40
2, 184, Program_c, 0, 0
2, 1344, Note_on_c, 0, 79, 68
2, 1472, Note_off_c, 0, 79, 100
2, 1536, Note_on_c, 0, 77, 68
2, 1536, Note_on_c, 0, 60, 68
2, 1600, Note_off_c, 0, 77, 100
2, 1600, Note_off_c, 0, 60, 100
2, 1600, Note_on_c, 0, 76, 68
2, 1632, Note_on_c, 0, 64, 68
2, 1696, Note_off_c, 0, 64, 100
2, 1728, Note_off_c, 0, 76, 100
2, 1728, Note_on_c, 0, 74, 68
2, 1728, Note_on_c, 0, 67, 68
2, 1792, Note_off_c, 0, 74, 100
2, 1792, Note_off_c, 0, 67, 100
2, 1824, Note_on_c, 0, 72, 68
2, 1824, Note_on_c, 0, 64, 68
2, 1888, Note_off_c, 0, 72, 100
2, 1888, Note_off_c, 0, 64, 100
2, 1920, Note_on_c, 0, 72, 68
2, 1920, Note_on_c, 0, 60, 68
2, 1984, Note_off_c, 0, 60, 100
2, 2016, Note_on_c, 0, 64, 68
2, 2048, Note_off_c, 0, 72, 100
2, 2080, Note_off_c, 0, 64, 100
2, 2112, Note_on_c, 0, 72, 68
2, 2112, Note_on_c, 0, 67, 68
2, 2176, Note_off_c, 0, 67, 100
2, 2208, Note_on_c, 0, 64, 68
2, 2240, Note_off_c, 0, 72, 100
2, 2272, Note_off_c, 0, 64, 100
2, 2304, Note_on_c, 0, 72, 68
2, 2304, Note_on_c, 0, 60, 68
2, 2368, Note_off_c, 0, 60, 100
2, 2400, Note_on_c, 0, 64, 68
2, 2464, Note_off_c, 0, 64, 100
2, 2496, Note_on_c, 0, 67, 68
2, 2560, Note_off_c, 0, 67, 100
2, 2592, Note_on_c, 0, 64, 68
2, 2656, Note_off_c, 0, 64, 100
2, 2688, Note_off_c, 0, 72, 100
2, 2688, Note_on_c, 0, 60, 68
2, 2752, Note_off_c, 0, 60, 100
2, 2784, Note_on_c, 0, 64, 68
2, 2848, Note_off_c, 0, 64, 100
2, 2880, Note_on_c, 0, 84, 68
2, 2880, Note_on_c, 0, 67, 68
2, 2944, Note_off_c, 0, 67, 100
2, 2976, Note_on_c, 0, 64, 68
2, 3008, Note_off_c, 0, 84, 100
2, 3040, Note_off_c, 0, 64, 100
2, 3072, Note_on_c, 0, 83, 68
2, 3072, Note_on_c, 0, 60, 68
2, 3136, Note_off_c, 0, 83, 100
2, 3136, Note_off_c, 0, 60, 100
2, 3136, Note_on_c, 0, 81, 68
2, 3168, Note_on_c, 0, 65, 68
2, 3232, Note_off_c, 0, 65, 100
2, 3264, Note_off_c, 0, 81, 100
2, 3264, Note_on_c, 0, 79, 68
2, 3264, Note_on_c, 0, 69, 68
2, 3328, Note_off_c, 0, 79, 100
2, 3328, Note_off_c, 0, 69, 100
2, 3360, Note_on_c, 0, 77, 68
2, 3360, Note_on_c, 0, 65, 68
2, 3424, Note_off_c, 0, 77, 100
2, 3424, Note_off_c, 0, 65, 100
2, 3456, Note_on_c, 0, 77, 68
2, 3456, Note_on_c, 0, 60, 68
2, 3520, Note_off_c, 0, 60, 100
2, 3552, Note_on_c, 0, 65, 68
2, 3584, Note_off_c, 0, 77, 100
2, 3616, Note_off_c, 0, 65, 100
2, 3648, Note_on_c, 0, 77, 68
2, 3648, Note_on_c, 0, 69, 68
2, 3712, Note_off_c, 0, 69, 100
2, 3744, Note_on_c, 0, 65, 68
2, 3776, Note_off_c, 0, 77, 100
2, 3808, Note_off_c, 0, 65, 100
2, 3840, Note_on_c, 0, 77, 68
2, 3840, Note_on_c, 0, 60, 68
2, 3904, Note_off_c, 0, 60, 100
2, 3936, Note_on_c, 0, 65, 68
2, 4000, Note_off_c, 0, 65, 100
2, 4032, Note_on_c, 0, 69, 68
2, 4096, Note_off_c, 0, 69, 100
2, 4128, Note_on_c, 0, 65, 68
2, 4192, Note_off_c, 0, 65, 100
2, 4224, Note_off_c, 0, 77, 100
2, 4224, Note_on_c, 0, 60, 68
2, 4288, Note_off_c, 0, 60, 100
2, 4320, Note_on_c, 0, 65, 68
2, 4384, Note_off_c, 0, 65, 100
2, 4416, Note_on_c, 0, 81, 68
2, 4416, Note_on_c, 0, 69, 68
2, 4480, Note_off_c, 0, 69, 100
2, 4512, Note_on_c, 0, 65, 68
2, 4544, Note_off_c, 0, 81, 100
2, 4576, Note_off_c, 0, 65, 100
2, 4608, Note_on_c, 0, 81, 68
2, 4608, Note_on_c, 0, 60, 68
2, 4672, Note_off_c, 0, 81, 100
2, 4672, Note_off_c, 0, 60, 100
2, 4672, Note_on_c, 0, 79, 68
2, 4704, Note_on_c, 0, 64, 68
2, 4768, Note_off_c, 0, 79, 100
2, 4768, Note_off_c, 0, 64, 100
2, 4800, Note_on_c, 0, 77, 68
2, 4800, Note_on_c, 0, 67, 68
2, 4864, Note_off_c, 0, 77, 100
2, 4864, Note_off_c, 0, 67, 100
2, 4896, Note_on_c, 0, 76, 68
2, 4896, Note_on_c, 0, 64, 68
2, 4960, Note_off_c, 0, 76, 100
2, 4960, Note_off_c, 0, 64, 100
2, 4992, Note_on_c, 0, 76, 68
2, 4992, Note_on_c, 0, 60, 68
2, 5056, Note_off_c, 0, 60, 100
2, 5088, Note_on_c, 0, 64, 68
2, 5120, Note_off_c, 0, 76, 100
2, 5152, Note_off_c, 0, 64, 100
2, 5184, Note_on_c, 0, 79, 68
2, 5184, Note_on_c, 0, 67, 68
2, 5248, Note_off_c, 0, 67, 100
2, 5280, Note_on_c, 0, 64, 68
2, 5312, Note_off_c, 0, 79, 100
2, 5344, Note_off_c, 0, 64, 100
2, 5376, Note_on_c, 0, 79, 68
2, 5376, Note_on_c, 0, 59, 68
2, 5440, Note_off_c, 0, 79, 100
2, 5440, Note_off_c, 0, 59, 100
2, 5440, Note_on_c, 0, 77, 68
2, 5472, Note_on_c, 0, 62, 68
2, 5536, Note_off_c, 0, 77, 100
2, 5536, Note_off_c, 0, 62, 100
2, 5568, Note_on_c, 0, 76, 68
2, 5568, Note_on_c, 0, 67, 68
2, 5632, Note_off_c, 0, 76, 100
2, 5632, Note_off_c, 0, 67, 100
2, 5664, Note_on_c, 0, 74, 68
2, 5664, Note_on_c, 0, 62, 68
2, 5728, Note_off_c, 0, 74, 100
2, 5728, Note_off_c, 0, 62, 100
2, 5760, Note_on_c, 0, 74, 68
2, 5760, Note_on_c, 0, 59, 68
2, 5824, Note_off_c, 0, 59, 100
2, 5856, Note_on_c, 0, 62, 68
2, 5888, Note_off_c, 0, 74, 100
2, 5920, Note_off_c, 0, 62, 100
2, 5952, Note_on_c, 0, 77, 68
2, 5952, Note_on_c, 0, 67, 68
2, 6016, Note_off_c, 0, 67, 100
2, 6048, Note_on_c, 0, 62, 68
2, 6080, Note_off_c, 0, 77, 100
2, 6112, Note_off_c, 0, 62, 100
2, 6144, Note_on_c, 0, 77, 68
2, 6144, Note_on_c, 0, 60, 68
2, 6208, Note_off_c, 0, 77, 100
2, 6208, Note_on_c, 0, 76, 68
2, 6272, Note_off_c, 0, 60, 100
2, 6304, Note_off_c, 0, 76, 100
2, 6336, Note_on_c, 0, 74, 68
2, 6336, Note_on_c, 0, 67, 68
2, 6336, Note_on_c, 0, 64, 68
2, 6400, Note_off_c, 0, 74, 100
2, 6432, Note_on_c, 0, 72, 68
2, 6464, Note_off_c, 0, 67, 100
2, 6464, Note_off_c, 0, 64, 100
2, 6496, Note_off_c, 0, 72, 100
2, 6528, Note_on_c, 0, 71, 68
2, 6528, Note_on_c, 0, 65, 68
2, 6528, Note_on_c, 0, 62, 68
2, 6656, Note_off_c, 0, 71, 100
2, 6656, Note_off_c, 0, 65, 100
2, 6656, Note_off_c, 0, 62, 100
2, 6720, Note_on_c, 0, 72, 68
2, 6720, Note_on_c, 0, 64, 68
2, 6720, Note_on_c, 0, 60, 68
2, 6848, Note_off_c, 0, 72, 100
2, 6848, Note_off_c, 0, 64, 100
2, 6848, Note_off_c, 0, 60, 100
2, 6912, Note_on_c, 0, 60, 68
2, 6912, Note_on_c, 0, 55, 68
2, 6928, Note_on_c, 0, 76, 68
2, 7168, Note_off_c, 0, 60, 100
2, 7168, Note_off_c, 0, 55, 100
2, 7296, Note_on_c, 0, 74, 68
2, 7296, Note_on_c, 0, 55, 68
2, 7296, Note_on_c, 0, 59, 68
2, 7312, Note_off_c, 0, 76, 100
2, 7424, Note_off_c, 0, 74, 100
2, 7424, Note_off_c, 0, 55, 100
2, 7424, Note_off_c, 0, 59, 100
2, 7488, Note_on_c, 0, 79, 68
2, 7616, Note_off_c, 0, 79, 100
2, 7680, Note_on_c, 0, 77, 68
2, 7680, Note_on_c, 0, 60, 68
2, 7744, Note_off_c, 0, 77, 100
2, 7744, Note_off_c, 0, 60, 100
2, 7744, Note_on_c, 0, 76, 68
2, 7776, Note_on_c, 0, 64, 68
2, 7840, Note_off_c, 0, 76, 100
2, 7840, Note_off_c, 0, 64, 100
2, 7872, Note_on_c, 0, 74, 68
2, 7872, Note_on_c, 0, 67, 68
2, 7936, Note_off_c, 0, 74, 100
2, 7936, Note_off_c, 0, 67, 100
2, 7968, Note_on_c, 0, 72, 68
2, 7968, Note_on_c, 0, 64, 68
2, 8032, Note_off_c, 0, 72, 100
2, 8032, Note_off_c, 0, 64, 100
2, 8064, Note_on_c, 0, 72, 68
2, 8064, Note_on_c, 0, 60, 68
2, 8128, Note_off_c, 0, 60, 100
2, 8160, Note_on_c, 0, 64, 68
2, 8192, Note_off_c, 0, 72, 100
2, 8224, Note_off_c, 0, 64, 100
2, 8256, Note_on_c, 0, 72, 68
2, 8256, Note_on_c, 0, 67, 68
2, 8320, Note_off_c, 0, 67, 100
2, 8352, Note_on_c, 0, 64, 68
2, 8384, Note_off_c, 0, 72, 100
2, 8416, Note_off_c, 0, 64, 100
2, 8448, Note_on_c, 0, 71, 68
2, 8448, Note_on_c, 0, 60, 68
2, 8480, Note_off_c, 0, 71, 100
2, 8480, Note_on_c, 0, 72, 68
2, 8512, Note_off_c, 0, 60, 100
2, 8512, Note_off_c, 0, 72, 100
2, 8512, Note_on_c, 0, 74, 68
2, 8544, Note_off_c, 0, 74, 100
2, 8544, Note_on_c, 0, 64, 68
2, 8544, Note_on_c, 0, 72, 68
2, 8608, Note_off_c, 0, 64, 100
2, 8640, Note_on_c, 0, 67, 68
2, 8704, Note_off_c, 0, 67, 100
2, 8736, Note_on_c, 0, 64, 68
2, 8800, Note_off_c, 0, 64, 100
2, 8832, Note_on_c, 0, 60, 68
2, 8896, Note_off_c, 0, 60, 100
2, 8928, Note_on_c, 0, 64, 68
2, 8992, Note_off_c, 0, 64, 100
2, 9024, Note_on_c, 0, 84, 68
2, 9024, Note_on_c, 0, 67, 68
2, 9056, Note_off_c, 0, 72, 100
2, 9088, Note_off_c, 0, 67, 100
2, 9120, Note_on_c, 0, 64, 68
2, 9152, Note_off_c, 0, 84, 100
2, 9184, Note_off_c, 0, 64, 100
2, 9216, Note_on_c, 0, 83, 68
2, 9216, Note_on_c, 0, 60, 68
2, 9280, Note_off_c, 0, 83, 100
2, 9280, Note_off_c, 0, 60, 100
2, 9280, Note_on_c, 0, 81, 68
2, 9312, Note_on_c, 0, 65, 68
2, 9376, Note_off_c, 0, 81, 100
2, 9376, Note_off_c, 0, 65, 100
2, 9408, Note_on_c, 0, 79, 68
2, 9408, Note_on_c, 0, 69, 68
2, 9472, Note_off_c, 0, 79, 100
2, 9472, Note_off_c, 0, 69, 100
2, 9504, Note_on_c, 0, 77, 68
2, 9504, Note_on_c, 0, 65, 68
2, 9568, Note_off_c, 0, 77, 100
2, 9568, Note_off_c, 0, 65, 100
2, 9600, Note_on_c, 0, 77, 68
2, 9600, Note_on_c, 0, 60, 68
2, 9664, Note_off_c, 0, 60, 100
2, 9696, Note_on_c, 0, 65, 68
2, 9728, Note_off_c, 0, 77, 100
2, 9760, Note_off_c, 0, 65, 100
2, 9792, Note_on_c, 0, 77, 68
2, 9792, Note_on_c, 0, 69, 68
2, 9856, Note_off_c, 0, 69, 100
2, 9888, Note_on_c, 0, 65, 68
2, 9920, Note_off_c, 0, 77, 100
2, 9952, Note_off_c, 0, 65, 100
2, 9984, Note_on_c, 0, 76, 68
2, 9984, Note_on_c, 0, 60, 68
2, 10016, Note_off_c, 0, 76, 100
2, 10032, Note_on_c, 0, 77, 68
2, 10048, Note_off_c, 0, 60, 100
2, 10064, Note_off_c, 0, 77, 100
2, 10080, Note_on_c, 0, 79, 68
2, 10080, Note_on_c, 0, 65, 68
2, 10112, Note_off_c, 0, 79, 100
2, 10112, Note_on_c, 0, 77, 68
2, 10144, Note_off_c, 0, 65, 100
2, 10176, Note_on_c, 0, 69, 68
2, 10240, Note_off_c, 0, 69, 100
2, 10272, Note_on_c, 0, 65, 68
2, 10336, Note_off_c, 0, 65, 100
2, 10368, Note_on_c, 0, 60, 68
2, 10432, Note_off_c, 0, 60, 100
2, 10464, Note_on_c, 0, 65, 68
2, 10496, Note_off_c, 0, 77, 100
2, 10528, Note_off_c, 0, 65, 100
2, 10560, Note_on_c, 0, 81, 68
2, 10560, Note_on_c, 0, 69, 68
2, 10624, Note_off_c, 0, 69, 100
2, 10656, Note_on_c, 0, 65, 68
2, 10688, Note_off_c, 0, 81, 100
2, 10720, Note_off_c, 0, 65, 100
2, 10752, Note_on_c, 0, 81, 68
2, 10752, Note_on_c, 0, 60, 68
2, 10816, Note_off_c, 0, 81, 100
2, 10816, Note_off_c, 0, 60, 100
2, 10816, Note_on_c, 0, 79, 68
2, 10848, Note_on_c, 0, 64, 68
2, 10912, Note_off_c, 0, 79, 100
2, 10912, Note_off_c, 0, 64, 100
2, 10944, Note_on_c, 0, 77, 68
2, 10944, Note_on_c, 0, 67, 68
2, 11008, Note_off_c, 0, 77, 100
2, 11008, Note_off_c, 0, 67, 100
2, 11040, Note_on_c, 0, 76, 68
2, 11040, Note_on_c, 0, 64, 68
2, 11104, Note_off_c, 0, 76, 100
2, 11104, Note_off_c, 0, 64, 100
2, 11136, Note_on_c, 0, 76, 68
2, 11136, Note_on_c, 0, 61, 68
2, 11200, Note_off_c, 0, 61, 100
2, 11232, Note_on_c, 0, 64, 68
2, 11264, Note_off_c, 0, 76, 100
2, 11296, Note_off_c, 0, 64, 100
2, 11328, Note_on_c, 0, 79, 68
2, 11328, Note_on_c, 0, 69, 68
2, 11392, Note_off_c, 0, 69, 100
2, 11424, Note_on_c, 0, 64, 68
2, 11456, Note_off_c, 0, 79, 100
2, 11488, Note_off_c, 0, 64, 100
2, 11520, Note_on_c, 0, 79, 68
2, 11520, Note_on_c, 0, 62, 68
2, 11584, Note_off_c, 0, 79, 100
2, 11584, Note_off_c, 0, 62, 100
2, 11584, Note_on_c, 0, 77, 68
2, 11616, Note_on_c, 0, 65, 68
2, 11680, Note_off_c, 0, 77, 100
2, 11680, Note_off_c, 0, 65, 100
2, 11712, Note_on_c, 0, 76, 68
2, 11712, Note_on_c, 0, 69, 68
2, 11776, Note_off_c, 0, 76, 100
2, 11776, Note_off_c, 0, 69, 100
2, 11808, Note_on_c, 0, 74, 68
2, 11808, Note_on_c, 0, 65, 68
2, 11872, Note_off_c, 0, 74, 100
2, 11872, Note_off_c, 0, 65, 100
2, 11904, Note_on_c, 0, 74, 68
2, 11904, Note_on_c, 0, 60, 68
2, 11968, Note_off_c, 0, 60, 100
2, 12000, Note_on_c, 0, 62, 68
2, 12032, Note_off_c, 0, 74, 100
2, 12064, Note_off_c, 0, 62, 100
2, 12096, Note_on_c, 0, 77, 68
2, 12096, Note_on_c, 0, 69, 68
2, 12160, Note_off_c, 0, 69, 100
2, 12192, Note_on_c, 0, 62, 68
2, 12224, Note_off_c, 0, 77, 100
2, 12256, Note_off_c, 0, 62, 100
2, 12288, Note_on_c, 0, 77, 68
2, 12288, Note_on_c, 0, 67, 68
2, 12288, Note_on_c, 0, 60, 68
2, 12352, Note_off_c, 0, 77, 100
2, 12352, Note_on_c, 0, 76, 68
2, 12416, Note_off_c, 0, 67, 100
2, 12416, Note_off_c, 0, 60, 100
2, 12480, Note_on_c, 0, 77, 68
2, 12544, Note_off_c, 0, 76, 100
2, 12544, Note_off_c, 0, 77, 100
2, 12576, Note_on_c, 0, 74, 68
2, 12640, Note_off_c, 0, 74, 100
2, 12672, Note_on_c, 0, 72, 68
2, 12800, Note_off_c, 0, 72, 100
2, 12864, Note_on_c, 0, 71, 68
2, 12992, Note_off_c, 0, 71, 100
2, 13056, Note_on_c, 0, 81, 68
2, 13056, Note_on_c, 0, 60, 68
2, 13120, Note_off_c, 0, 81, 100
2, 13120, Note_off_c, 0, 60, 100
2, 13120, Note_on_c, 0, 79, 68
2, 13152, Note_on_c, 0, 64, 68
2, 13216, Note_off_c, 0, 79, 100
2, 13216, Note_off_c, 0, 64, 100
2, 13248, Note_on_c, 0, 77, 68
2, 13248, Note_on_c, 0, 67, 68
2, 13312, Note_off_c, 0, 77, 100
2, 13312, Note_off_c, 0, 67, 100
2, 13344, Note_on_c, 0, 76, 68
2, 13344, Note_on_c, 0, 64, 68
2, 13408, Note_off_c, 0, 76, 100
2, 13408, Note_off_c, 0, 64, 100
2, 13440, Note_on_c, 0, 88, 68
2, 13440, Note_on_c, 0, 61, 68
2, 13504, Note_off_c, 0, 88, 100
2, 13504, Note_off_c, 0, 61, 100
2, 13536, Note_on_c, 0, 85, 68
2, 13536, Note_on_c, 0, 64, 68
2, 13600, Note_off_c, 0, 85, 100
2, 13600, Note_off_c, 0, 64, 100
2, 13632, Note_on_c, 0, 81, 68
2, 13632, Note_on_c, 0, 69, 68
2, 13696, Note_off_c, 0, 81, 100
2, 13696, Note_off_c, 0, 69, 100
2, 13728, Note_on_c, 0, 79, 68
2, 13728, Note_on_c, 0, 64, 68
2, 13792, Note_off_c, 0, 79, 100
2, 13792, Note_off_c, 0, 64, 100
2, 13824, Note_on_c, 0, 79, 68
2, 13824, Note_on_c, 0, 62, 68
2, 13888, Note_off_c, 0, 79, 100
2, 13888, Note_off_c, 0, 62, 100
2, 13888, Note_on_c, 0, 77, 68
2, 13920, Note_on_c, 0, 65, 68
2, 13984, Note_off_c, 0, 77, 100
2, 13984, Note_off_c, 0, 65, 100
2, 14016, Note_on_c, 0, 76, 68
2, 14016, Note_on_c, 0, 69, 68
2, 14080, Note_off_c, 0, 76, 100
2, 14080, Note_off_c, 0, 69, 100
2, 14112, Note_on_c, 0, 74, 68
2, 14112, Note_on_c, 0, 65, 68
2, 14176, Note_off_c, 0, 74, 100
2, 14176, Note_off_c, 0, 65, 100
2, 14208, Note_on_c, 0, 86, 68
2, 14208, Note_on_c, 0, 59, 68
2, 14272, Note_off_c, 0, 86, 100
2, 14272, Note_off_c, 0, 59, 100
2, 14304, Note_on_c, 0, 83, 68
2, 14304, Note_on_c, 0, 62, 68
2, 14368, Note_off_c, 0, 83, 100
2, 14368, Note_off_c, 0, 62, 100
2, 14400, Note_on_c, 0, 79, 68
2, 14400, Note_on_c, 0, 67, 68
2, 14464, Note_off_c, 0, 79, 100
2, 14464, Note_off_c, 0, 67, 100
2, 14496, Note_on_c, 0, 77, 68
2, 14496, Note_on_c, 0, 62, 68
2, 14560, Note_off_c, 0, 77, 100
2, 14560, Note_off_c, 0, 62, 100
2, 14592, Note_on_c, 0, 77, 68
2, 14592, Note_on_c, 0, 67, 68
2, 14592, Note_on_c, 0, 60, 68
2, 14656, Note_off_c, 0, 77, 100
2, 14656, Note_on_c, 0, 76, 68
2, 14720, Note_off_c, 0, 67, 100
2, 14720, Note_off_c, 0, 60, 100
2, 14752, Note_off_c, 0, 76, 100
2, 14784, Note_on_c, 0, 81, 68
2, 14848, Note_off_c, 0, 81, 100
2, 14880, Note_on_c, 0, 77, 68
2, 14944, Note_off_c, 0, 77, 100
2, 14976, Note_on_c, 0, 76, 68
2, 15040, Note_off_c, 0, 76, 100
2, 15072, Note_on_c, 0, 79, 68
2, 15136, Note_off_c, 0, 79, 100
2, 15168, Note_on_c, 0, 77, 68
2, 15232, Note_off_c, 0, 77, 100
2, 15264, Note_on_c, 0, 74, 68
2, 15328, Note_off_c, 0, 74, 100
2, 15360, Note_on_c, 0, 72, 75
2, 15488, Note_off_c, 0, 72, 100
2, 15744, Note_on_c, 0, 60, 75
2, 15808, Note_off_c, 0, 60, 100
2, 15840, Note_on_c, 0, 64, 75
2, 15904, Note_off_c, 0, 64, 100
2, 15936, Note_on_c, 0, 67, 75
2, 16000, Note_off_c, 0, 67, 100
2, 16032, Note_on_c, 0, 72, 75
2, 16096, Note_off_c, 0, 72, 100
2, 16128, Note_on_c, 0, 72, 75
2, 16128, Note_on_c, 0, 64, 75
2, 16384, Note_off_c, 0, 72, 100
2, 16384, Note_off_c, 0, 64, 100
2, 16512, Note_on_c, 0, 76, 75
2, 16576, Note_off_c, 0, 76, 100
2, 16576, Note_on_c, 0, 74, 75
2, 16672, Note_off_c, 0, 74, 100
2, 16704, Note_on_c, 0, 72, 75
2, 16768, Note_off_c, 0, 72, 100
2, 16800, Note_on_c, 0, 74, 75
2, 16864, Note_off_c, 0, 74, 100
2, 16896, Note_on_c, 0, 72, 75
2, 16896, Note_on_c, 0, 64, 75
2, 17024, Note_off_c, 0, 72, 100
2, 17024, Note_off_c, 0, 64, 100
2, 17280, Note_on_c, 0, 64, 75
2, 17280, Note_on_c, 0, 60, 75
2, 17344, Note_off_c, 0, 64, 100
2, 17344, Note_off_c, 0, 60, 100
2, 17376, Note_on_c, 0, 67, 75
2, 17376, Note_on_c, 0, 64, 75
2, 17440, Note_off_c, 0, 67, 100
2, 17440, Note_off_c, 0, 64, 100
2, 17472, Note_on_c, 0, 72, 75
2, 17472, Note_on_c, 0, 67, 75
2, 17536, Note_off_c, 0, 72, 100
2, 17536, Note_off_c, 0, 67, 100
2, 17568, Note_on_c, 0, 76, 75
2, 17568, Note_on_c, 0, 72, 75
2, 17632, Note_off_c, 0, 76, 100
2, 17632, Note_off_c, 0, 72, 100
2, 17664, Note_on_c, 0, 76, 75
2, 17664, Note_on_c, 0, 72, 75
2, 17920, Note_off_c, 0, 76, 100
2, 17920, Note_off_c, 0, 72, 100
2, 18048, Note_on_c, 0, 79, 75
2, 18048, Note_on_c, 0, 76, 75
2, 18112, Note_off_c, 0, 79, 100
2, 18112, Note_off_c, 0, 76, 100
2, 18112, Note_on_c, 0, 77, 75
2, 18112, Note_on_c, 0, 74, 75
2, 18208, Note_off_c, 0, 77, 100
2, 18208, Note_off_c, 0, 74, 100
2, 18240, Note_on_c, 0, 76, 75
2, 18240, Note_on_c, 0, 72, 75
2, 18304, Note_off_c, 0, 76, 100
2, 18304, Note_off_c, 0, 72, 100
2, 18336, Note_on_c, 0, 77, 75
2, 18336, Note_on_c, 0, 74, 75
2, 18400, Note_off_c, 0, 77, 100
2, 18400, Note_off_c, 0, 74, 100
2, 18432, Note_on_c, 0, 76, 75
2, 18432, Note_on_c, 0, 72, 75
2, 18560, Note_off_c, 0, 76, 100
2, 18560, Note_off_c, 0, 72, 100
2, 18816, Note_on_c, 0, 72, 75
2, 18880, Note_off_c, 0, 72, 100
2, 18912, Note_on_c, 0, 76, 75
2, 18976, Note_off_c, 0, 76, 100
2, 19008, Note_on_c, 0, 79, 75
2, 19072, Note_off_c, 0, 79, 100
2, 19104, Note_on_c, 0, 84, 75
2, 19168, Note_off_c, 0, 84, 100
2, 19200, Note_on_c, 0, 80, 75
2, 19328, Note_off_c, 0, 80, 100
2, 19392, Note_on_c, 0, 81, 75
2, 19456, Note_off_c, 0, 81, 100
2, 19584, Note_on_c, 0, 78, 75
2, 19712, Note_off_c, 0, 78, 100
2, 19776, Note_on_c, 0, 79, 75
2, 19840, Note_off_c, 0, 79, 100
2, 19968, Note_on_c, 0, 76, 75
2, 20096, Note_off_c, 0, 76, 100
2, 20160, Note_on_c, 0, 77, 75
2, 20224, Note_off_c, 0, 77, 100
2, 20352, Note_on_c, 0, 75, 75
2, 20480, Note_off_c, 0, 75, 100
2, 20544, Note_on_c, 0, 76, 75
2, 20608, Note_off_c, 0, 76, 100
2, 20736, Note_on_c, 0, 73, 75
2, 20800, Note_off_c, 0, 73, 100
2, 20848, Note_on_c, 0, 74, 75
2, 20912, Note_off_c, 0, 74, 100
2, 20928, Note_on_c, 0, 77, 75
2, 20992, Note_off_c, 0, 77, 100
2, 21024, Note_on_c, 0, 81, 75
2, 21088, Note_off_c, 0, 81, 100
2, 21120, Note_on_c, 0, 79, 75
2, 21184, Note_off_c, 0, 79, 100
2, 21216, Note_on_c, 0, 77, 75
2, 21280, Note_off_c, 0, 77, 100
2, 21312, Note_on_c, 0, 76, 75
2, 21376, Note_off_c, 0, 76, 100
2, 21408, Note_on_c, 0, 74, 75
2, 21472, Note_off_c, 0, 74, 100
2, 21504, Note_on_c, 0, 72, 75
2, 21632, Note_off_c, 0, 72, 100
2, 21696, Note_on_c, 0, 71, 75
2, 21824, Note_off_c, 0, 71, 100
2, 21888, Note_on_c, 0, 60, 75
2, 21952, Note_off_c, 0, 60, 100
2, 21984, Note_on_c, 0, 64, 75
2, 22048, Note_off_c, 0, 64, 100
2, 22080, Note_on_c, 0, 67, 75
2, 22144, Note_off_c, 0, 67, 100
2, 22176, Note_on_c, 0, 72, 75
2, 22240, Note_off_c, 0, 72, 100
2, 22272, Note_on_c, 0, 72, 75
2, 22272, Note_on_c, 0, 64, 75
2, 22528, Note_off_c, 0, 72, 100
2, 22528, Note_off_c, 0, 64, 100
2, 22656, Note_on_c, 0, 76, 75
2, 22720, Note_off_c, 0, 76, 100
2, 22720, Note_on_c, 0, 74, 75
2, 22816, Note_off_c, 0, 74, 100
2, 22848, Note_on_c, 0, 72, 75
2, 22912, Note_off_c, 0, 72, 100
2, 22944, Note_on_c, 0, 74, 75
2, 23008, Note_off_c, 0, 74, 100
2, 23040, Note_on_c, 0, 72, 75
2, 23040, Note_on_c, 0, 64, 75
2, 23168, Note_off_c, 0, 72, 100
2, 23168, Note_off_c, 0, 64, 100
2, 23424, Note_on_c, 0, 64, 75
2, 23424, Note_on_c, 0, 60, 75
2, 23488, Note_off_c, 0, 64, 100
2, 23488, Note_off_c, 0, 60, 100
2, 23520, Note_on_c, 0, 67, 75
2, 23520, Note_on_c, 0, 64, 75
2, 23584, Note_off_c, 0, 67, 100
2, 23584, Note_off_c, 0, 64, 100
2, 23616, Note_on_c, 0, 72, 75
2, 23616, Note_on_c, 0, 67, 75
2, 23680, Note_off_c, 0, 72, 100
2, 23680, Note_off_c, 0, 67, 100
2, 23712, Note_on_c, 0, 76, 75
2, 23712, Note_on_c, 0, 72, 75
2, 23776, Note_off_c, 0, 76, 100
2, 23776, Note_off_c, 0, 72, 100
2, 23808, Note_on_c, 0, 76, 75
2, 23808, Note_on_c, 0, 72, 75
2, 24064, Note_off_c, 0, 76, 100
2, 24064, Note_off_c, 0, 72, 100
2, 24192, Note_on_c, 0, 79, 75
2, 24192, Note_on_c, 0, 76, 75
2, 24256, Note_off_c, 0, 79, 100
2, 24256, Note_off_c, 0, 76, 100
2, 24256, Note_on_c, 0, 77, 75
2, 24256, Note_on_c, 0, 74, 75
2, 24352, Note_off_c, 0, 77, 100
2, 24352, Note_off_c, 0, 74, 100
2, 24384, Note_on_c, 0, 76, 75
2, 24384, Note_on_c, 0, 72, 75
2, 24448, Note_off_c, 0, 76, 100
2, 24448, Note_off_c, 0, 72, 100
2, 24480, Note_on_c, 0, 77, 75
2, 24480, Note_on_c, 0, 74, 75
2, 24544, Note_off_c, 0, 77, 100
2, 24544, Note_off_c, 0, 74, 100
2, 24576, Note_on_c, 0, 76, 75
2, 24576, Note_on_c, 0, 72, 75
2, 24704, Note_off_c, 0, 76, 100
2, 24704, Note_off_c, 0, 72, 100
2, 24960, Note_on_c, 0, 72, 75
2, 25024, Note_off_c, 0, 72, 100
2, 25056, Note_on_c, 0, 76, 75
2, 25120, Note_off_c, 0, 76, 100
2, 25152, Note_on_c, 0, 79, 75
2, 25216, Note_off_c, 0, 79, 100
2, 25248, Note_on_c, 0, 84, 75
2, 25312, Note_off_c, 0, 84, 100
2, 25344, Note_on_c, 0, 80, 75
2, 25408, Note_off_c, 0, 80, 100
2, 25440, Note_on_c, 0, 81, 75
2, 25504, Note_off_c, 0, 81, 100
2, 25536, Note_on_c, 0, 81, 75
2, 25600, Note_off_c, 0, 81, 100
2, 25632, Note_on_c, 0, 81, 75
2, 25696, Note_off_c, 0, 81, 100
2, 25728, Note_on_c, 0, 78, 75
2, 25792, Note_off_c, 0, 78, 100
2, 25824, Note_on_c, 0, 79, 75
2, 25888, Note_off_c, 0, 79, 100
2, 25920, Note_on_c, 0, 79, 75
2, 25984, Note_off_c, 0, 79, 100
2, 26016, Note_on_c, 0, 79, 75
2, 26080, Note_off_c, 0, 79, 100
2, 26112, Note_on_c, 0, 76, 75
2, 26176, Note_off_c, 0, 76, 100
2, 26208, Note_on_c, 0, 77, 75
2, 26272, Note_off_c, 0, 77, 100
2, 26304, Note_on_c, 0, 77, 75
2, 26368, Note_off_c, 0, 77, 100
2, 26400, Note_on_c, 0, 77, 75
2, 26464, Note_off_c, 0, 77, 100
2, 26496, Note_on_c, 0, 75, 75
2, 26560, Note_off_c, 0, 75, 100
2, 26592, Note_on_c, 0, 76, 75
2, 26656, Note_off_c, 0, 76, 100
2, 26688, Note_on_c, 0, 76, 75
2, 26752, Note_off_c, 0, 76, 100
2, 26784, Note_on_c, 0, 76, 75
2, 26848, Note_off_c, 0, 76, 100
2, 26880, Note_on_c, 0, 84, 75
2, 26880, Note_on_c, 0, 72, 75
2, 27008, Note_off_c, 0, 84, 100
2, 27072, Note_on_c, 0, 81, 75
2, 27136, Note_off_c, 0, 72, 100
2, 27264, Note_on_c, 0, 72, 75
2, 27328, Note_off_c, 0, 81, 100
2, 27456, Note_on_c, 0, 79, 75
2, 27520, Note_off_c, 0, 72, 100
2, 27584, Note_off_c, 0, 79, 100
2, 27648, Note_on_c, 0, 79, 75
2, 27648, Note_on_c, 0, 72, 75
2, 27776, Note_off_c, 0, 79, 100
2, 27840, Note_on_c, 0, 77, 75
2, 27904, Note_off_c, 0, 72, 100
2, 28032, Note_on_c, 0, 72, 75
2, 28096, Note_off_c, 0, 77, 100
2, 28224, Note_on_c, 0, 76, 75
2, 28288, Note_off_c, 0, 72, 100
2, 28352, Note_off_c, 0, 76, 100
2, 28416, Note_on_c, 0, 74, 50
2, 28508, Note_off_c, 0, 74, 0
2, 28512, Note_on_c, 0, 76, 50
2, 28556, Note_off_c, 0, 76, 0
2, 28560, Note_on_c, 0, 74, 50
2, 28604, Note_off_c, 0, 74, 0
2, 28608, Note_on_c, 0, 73, 50
2, 28652, Note_off_c, 0, 73, 0
2, 28656, Note_on_c, 0, 74, 50
2, 28700, Note_off_c, 0, 74, 0
2, 28704, Note_on_c, 0, 76, 50
2, 28768, Note_off_c, 0, 76, 100
2, 28800, Note_on_c, 0, 77, 50
2, 28892, Note_off_c, 0, 77, 0
2, 28896, Note_on_c, 0, 79, 50
2, 28940, Note_off_c, 0, 79, 0
2, 28944, Note_on_c, 0, 77, 50
2, 28988, Note_off_c, 0, 77, 0
2, 28992, Note_on_c, 0, 76, 50
2, 29036, Note_off_c, 0, 76, 0
2, 29040, Note_on_c, 0, 77, 50
2, 29084, Note_off_c, 0, 77, 0
2, 29088, Note_on_c, 0, 79, 50
2, 29152, Note_off_c, 0, 79, 100
2, 29184, Note_on_c, 0, 81, 50
2, 29276, Note_off_c, 0, 81, 0
2, 29280, Note_on_c, 0, 83, 50
2, 29324, Note_off_c, 0, 83, 0
2, 29328, Note_on_c, 0, 81, 50
2, 29372, Note_off_c, 0, 81, 0
2, 29376, Note_on_c, 0, 80, 50
2, 29420, Note_off_c, 0, 80, 0
2, 29424, Note_on_c, 0, 81, 50
2, 29468, Note_off_c, 0, 81, 0
2, 29472, Note_on_c, 0, 83, 50
2, 29536, Note_off_c, 0, 83, 100
2, 29568, Note_on_c, 0, 84, 75
2, 29760, Note_off_c, 0, 84, 100
2, 29856, Note_on_c, 0, 76, 50
2, 29920, Note_off_c, 0, 76, 100
2, 29952, Note_on_c, 0, 79, 50
2, 30208, Note_off_c, 0, 79, 100
2, 30336, Note_on_c, 0, 79, 50
2, 30400, Note_off_c, 0, 79, 100
2, 30400, Note_on_c, 0, 78, 50
2, 30432, Note_off_c, 0, 78, 100
2, 30480, Note_on_c, 0, 79, 50
2, 30512, Note_off_c, 0, 79, 100
2, 30528, Note_on_c, 0, 81, 50
2, 30560, Note_off_c, 0, 81, 100
2, 30576, Note_on_c, 0, 79, 50
2, 30608, Note_off_c, 0, 79, 100
2, 30624, Note_on_c, 0, 77, 50
2, 30656, Note_off_c, 0, 77, 100
2, 30672, Note_on_c, 0, 76, 50
2, 30704, Note_off_c, 0, 76, 100
2, 30720, Note_on_c, 0, 74, 50
2, 30848, Note_off_c, 0, 74, 100
2, 30912, Note_on_c, 0, 67, 50
2, 30912, Note_on_c, 0, 71, 50
2, 31040, Note_off_c, 0, 67, 100
2, 31040, Note_off_c, 0, 71, 100
2, 31104, Note_on_c, 0, 72, 50
2, 31104, Note_on_c, 0, 69, 50
2, 31232, Note_off_c, 0, 72, 100
2, 31232, Note_off_c, 0, 69, 100
2, 31296, Note_on_c, 0, 74, 75
2, 31296, Note_on_c, 0, 69, 75
2, 31296, Note_on_c, 0, 66, 75
2, 31424, Note_off_c, 0, 74, 100
2, 31424, Note_off_c, 0, 69, 100
2, 31424, Note_off_c, 0, 66, 100
2, 31488, Note_on_c, 0, 86, 75
2, 31488, Note_on_c, 0, 71, 75
2, 31488, Note_on_c, 0, 67, 75
2, 31536, Note_off_c, 0, 86, 100
2, 31552, Note_on_c, 0, 88, 75
2, 31600, Note_off_c, 0, 88, 100
2, 31616, Note_off_c, 0, 71, 100
2, 31616, Note_off_c, 0, 67, 100
2, 31616, Note_on_c, 0, 86, 75
2, 31664, Note_off_c, 0, 86, 100
2, 31680, Note_on_c, 0, 84, 75
2, 31728, Note_off_c, 0, 84, 100
2, 31744, Note_on_c, 0, 83, 75
2, 31792, Note_off_c, 0, 83, 100
2, 31808, Note_on_c, 0, 81, 75
2, 31856, Note_off_c, 0, 81, 100
2, 31872, Note_on_c, 0, 83, 75
2, 31920, Note_off_c, 0, 83, 100
2, 31936, Note_on_c, 0, 84, 75
2, 31984, Note_off_c, 0, 84, 100
2, 32000, Note_on_c, 0, 83, 75
2, 32048, Note_off_c, 0, 83, 100
2, 32064, Note_on_c, 0, 81, 75
2, 32112, Note_off_c, 0, 81, 100
2, 32128, Note_on_c, 0, 79, 75
2, 32176, Note_off_c, 0, 79, 100
2, 32192, Note_on_c, 0, 78, 75
2, 32240, Note_off_c, 0, 78, 100
2, 32256, Note_on_c, 0, 79, 75
2, 32304, Note_off_c, 0, 79, 100
2, 32320, Note_on_c, 0, 81, 75
2, 32368, Note_off_c, 0, 81, 100
2, 32384, Note_on_c, 0, 79, 75
2, 32432, Note_off_c, 0, 79, 100
2, 32448, Note_on_c, 0, 78, 75
2, 32496, Note_off_c, 0, 78, 100
2, 32512, Note_on_c, 0, 76, 75
2, 32560, Note_off_c, 0, 76, 100
2, 32576, Note_on_c, 0, 75, 75
2, 32624, Note_off_c, 0, 75, 100
2, 32640, Note_on_c, 0, 76, 75
2, 32688, Note_off_c, 0, 76, 100
2, 32704, Note_on_c, 0, 78, 75
2, 32752, Note_off_c, 0, 78, 100
2, 32768, Note_on_c, 0, 76, 75
2, 32816, Note_off_c, 0, 76, 100
2, 32832, Note_on_c, 0, 74, 75
2, 32880, Note_off_c, 0, 74, 100
2, 32896, Note_on_c, 0, 72, 75
2, 32944, Note_off_c, 0, 72, 100
2, 32960, Note_on_c, 0, 71, 75
2, 33008, Note_off_c, 0, 71, 100
2, 33024, Note_on_c, 0, 72, 75
2, 33216, Note_off_c, 0, 72, 100
2, 33312, Note_on_c, 0, 76, 75
2, 33344, Note_off_c, 0, 76, 100
2, 33360, Note_on_c, 0, 74, 75
2, 33392, Note_off_c, 0, 74, 100
2, 33408, Note_on_c, 0, 72, 75
2, 33536, Note_off_c, 0, 72, 100
2, 33696, Note_on_c, 0, 72, 50
2, 33760, Note_off_c, 0, 72, 100
2, 33792, Note_on_c, 0, 72, 50
2, 33984, Note_off_c, 0, 72, 100
2, 34080, Note_on_c, 0, 75, 50
2, 34112, Note_off_c, 0, 75, 100
2, 34128, Note_on_c, 0, 74, 50
2, 34160, Note_off_c, 0, 74, 100
2, 34176, Note_on_c, 0, 72, 50
2, 34304, Note_off_c, 0, 72, 100
2, 34464, Note_on_c, 0, 72, 75
2, 34528, Note_off_c, 0, 72, 100
2, 34560, Note_on_c, 0, 84, 75
2, 34608, Note_off_c, 0, 84, 100
2, 34624, Note_on_c, 0, 86, 75
2, 34672, Note_off_c, 0, 86, 100
2, 34688, Note_on_c, 0, 84, 75
2, 34736, Note_off_c, 0, 84, 100
2, 34752, Note_on_c, 0, 83, 75
2, 34800, Note_off_c, 0, 83, 100
2, 34816, Note_on_c, 0, 81, 75
2, 34864, Note_off_c, 0, 81, 100
2, 34880, Note_on_c, 0, 80, 75
2, 34928, Note_off_c, 0, 80, 100
2, 34944, Note_on_c, 0, 81, 75
2, 34992, Note_off_c, 0, 81, 100
2, 35008, Note_on_c, 0, 83, 75
2, 35056, Note_off_c, 0, 83, 100
2, 35072, Note_on_c, 0, 81, 75
2, 35120, Note_off_c, 0, 81, 100
2, 35136, Note_on_c, 0, 79, 75
2, 35184, Note_off_c, 0, 79, 100
2, 35200, Note_on_c, 0, 78, 75
2, 35248, Note_off_c, 0, 78, 100
2, 35264, Note_on_c, 0, 77, 75
2, 35312, Note_off_c, 0, 77, 100
2, 35328, Note_on_c, 0, 78, 75
2, 35376, Note_off_c, 0, 78, 100
2, 35392, Note_on_c, 0, 79, 75
2, 35440, Note_off_c, 0, 79, 100
2, 35456, Note_on_c, 0, 78, 75
2, 35504, Note_off_c, 0, 78, 100
2, 35520, Note_on_c, 0, 76, 75
2, 35568, Note_off_c, 0, 76, 100
2, 35584, Note_on_c, 0, 74, 75
2, 35632, Note_off_c, 0, 74, 100
2, 35648, Note_on_c, 0, 73, 75
2, 35696, Note_off_c, 0, 73, 100
2, 35712, Note_on_c, 0, 74, 75
2, 35760, Note_off_c, 0, 74, 100
2, 35776, Note_on_c, 0, 76, 75
2, 35824, Note_off_c, 0, 76, 100
2, 35840, Note_on_c, 0, 74, 75
2, 35888, Note_off_c, 0, 74, 100
2, 35904, Note_on_c, 0, 72, 75
2, 35952, Note_off_c, 0, 72, 100
2, 35968, Note_on_c, 0, 71, 75
2, 36016, Note_off_c, 0, 71, 100
2, 36032, Note_on_c, 0, 69, 75
2, 36080, Note_off_c, 0, 69, 100
2, 36096, Note_on_c, 0, 71, 75
2, 36288, Note_off_c, 0, 71, 100
2, 36384, Note_on_c, 0, 74, 75
2, 36416, Note_off_c, 0, 74, 100
2, 36432, Note_on_c, 0, 72, 75
2, 36464, Note_off_c, 0, 72, 100
2, 36480, Note_on_c, 0, 71, 75
2, 36608, Note_off_c, 0, 71, 100
2, 36768, Note_on_c, 0, 71, 50
2, 36832, Note_off_c, 0, 71, 100
2, 36864, Note_on_c, 0, 71, 50
2, 37056, Note_off_c, 0, 71, 100
2, 37152, Note_on_c, 0, 74, 50
2, 37184, Note_off_c, 0, 74, 100
2, 37200, Note_on_c, 0, 72, 50
2, 37232, Note_off_c, 0, 72, 100
2, 37248, Note_on_c, 0, 71, 50
2, 37376, Note_off_c, 0, 71, 100
2, 37536, Note_on_c, 0, 74, 75
2, 37600, Note_off_c, 0, 74, 100
2, 37632, Note_on_c, 0, 83, 75
2, 37680, Note_off_c, 0, 83, 100
2, 37696, Note_on_c, 0, 86, 75
2, 37744, Note_off_c, 0, 86, 100
2, 37760, Note_on_c, 0, 84, 75
2, 37808, Note_off_c, 0, 84, 100
2, 37824, Note_on_c, 0, 83, 75
2, 37872, Note_off_c, 0, 83, 100
2, 37888, Note_on_c, 0, 81, 75
2, 37936, Note_off_c, 0, 81, 100
2, 37952, Note_on_c, 0, 79, 75
2, 38000, Note_off_c, 0, 79, 100
2, 38016, Note_on_c, 0, 78, 75
2, 38064, Note_off_c, 0, 78, 100
2, 38080, Note_on_c, 0, 81, 75
2, 38128, Note_off_c, 0, 81, 100
2, 38144, Note_on_c, 0, 79, 75
2, 38192, Note_off_c, 0, 79, 100
2, 38208, Note_on_c, 0, 83, 75
2, 38256, Note_off_c, 0, 83, 100
2, 38272, Note_on_c, 0, 75, 75
2, 38320, Note_off_c, 0, 75, 100
2, 38336, Note_on_c, 0, 78, 75
2, 38384, Note_off_c, 0, 78, 100
2, 38400, Note_on_c, 0, 76, 75
2, 38448, Note_off_c, 0, 76, 100
2, 38464, Note_on_c, 0, 79, 75
2, 38512, Note_off_c, 0, 79, 100
2, 38528, Note_on_c, 0, 78, 75
2, 38576, Note_off_c, 0, 78, 100
2, 38592, Note_on_c, 0, 76, 75
2, 38640, Note_off_c, 0, 76, 100
2, 38656, Note_on_c, 0, 74, 75
2, 38704, Note_off_c, 0, 74, 100
2, 38720, Note_on_c, 0, 72, 75
2, 38768, Note_off_c, 0, 72, 100
2, 38784, Note_on_c, 0, 71, 75
2, 38832, Note_off_c, 0, 71, 100
2, 38848, Note_on_c, 0, 74, 75
2, 38896, Note_off_c, 0, 74, 100
2, 38912, Note_on_c, 0, 72, 75
2, 38960, Note_off_c, 0, 72, 100
2, 38976, Note_on_c, 0, 76, 75
2, 39024, Note_off_c, 0, 76, 100
2, 39040, Note_on_c, 0, 68, 75
2, 39088, Note_off_c, 0, 68, 100
2, 39104, Note_on_c, 0, 71, 75
2, 39152, Note_off_c, 0, 71, 100
2, 39168, Note_on_c, 0, 69, 75
2, 39216, Note_off_c, 0, 69, 100
2, 39232, Note_on_c, 0, 72, 75
2, 39280, Note_off_c, 0, 72, 100
2, 39296, Note_on_c, 0, 71, 75
2, 39344, Note_off_c, 0, 71, 100
2, 39360, Note_on_c, 0, 69, 75
2, 39408, Note_off_c, 0, 69, 100
2, 39424, Note_on_c, 0, 67, 75
2, 39472, Note_off_c, 0, 67, 100
2, 39488, Note_on_c, 0, 66, 75
2, 39536, Note_off_c, 0, 66, 100
2, 39552, Note_on_c, 0, 64, 75
2, 39600, Note_off_c, 0, 64, 100
2, 39616, Note_on_c, 0, 67, 75
2, 39664, Note_off_c, 0, 67, 100
2, 39680, Note_on_c, 0, 66, 75
2, 39728, Note_off_c, 0, 66, 100
2, 39744, Note_on_c, 0, 69, 75
2, 39792, Note_off_c, 0, 69, 100
2, 39808, Note_on_c, 0, 61, 75
2, 39856, Note_off_c, 0, 61, 100
2, 39872, Note_on_c, 0, 64, 75
2, 39920, Note_off_c, 0, 64, 100
2, 39936, Note_on_c, 0, 62, 75
2, 39984, Note_off_c, 0, 62, 100
2, 40000, Note_on_c, 0, 64, 75
2, 40048, Note_off_c, 0, 64, 100
2, 40064, Note_on_c, 0, 61, 75
2, 40112, Note_off_c, 0, 61, 100
2, 40128, Note_on_c, 0, 62, 75
2, 40176, Note_off_c, 0, 62, 100
2, 40192, Note_on_c, 0, 64, 75
2, 40240, Note_off_c, 0, 64, 100
2, 40256, Note_on_c, 0, 61, 75
2, 40304, Note_off_c, 0, 61, 100
2, 40320, Note_on_c, 0, 62, 75
2, 40368, Note_off_c, 0, 62, 100
2, 40384, Note_on_c, 0, 64, 75
2, 40432, Note_off_c, 0, 64, 100
2, 40448, Note_on_c, 0, 61, 75
2, 40496, Note_off_c, 0, 61, 100
2, 40512, Note_on_c, 0, 62, 75
2, 40560, Note_off_c, 0, 62, 100
2, 40576, Note_on_c, 0, 64, 75
2, 40624, Note_off_c, 0, 64, 100
2, 40640, Note_on_c, 0, 61, 75
2, 40688, Note_off_c, 0, 61, 100
2, 40704, Note_on_c, 0, 62, 75
2, 40832, Note_off_c, 0, 62, 100
2, 40896, Note_on_c, 0, 72, 50
2, 41024, Note_off_c, 0, 72, 100
2, 41088, Note_on_c, 0, 72, 50
2, 41216, Note_off_c, 0, 72, 100
2, 41280, Note_on_c, 0, 72, 50
2, 41408, Note_off_c, 0, 72, 100
2, 41472, Note_on_c, 0, 72, 50
2, 41472, Note_on_c, 0, 66, 50
2, 41472, Note_on_c, 0, 62, 50
2, 41536, Note_off_c, 0, 66, 100
2, 41568, Note_on_c, 0, 69, 50
2, 41600, Note_off_c, 0, 72, 100
2, 41600, Note_off_c, 0, 62, 100
2, 41632, Note_off_c, 0, 69, 100
2, 41664, Note_on_c, 0, 84, 50
2, 41664, Note_on_c, 0, 66, 50
2, 41664, Note_on_c, 0, 63, 50
2, 41728, Note_off_c, 0, 66, 100
2, 41760, Note_on_c, 0, 69, 50
2, 41792, Note_off_c, 0, 84, 100
2, 41792, Note_off_c, 0, 63, 100
2, 41824, Note_off_c, 0, 69, 100
2, 41856, Note_on_c, 0, 84, 50
2, 41856, Note_on_c, 0, 66, 50
2, 41856, Note_on_c, 0, 62, 50
2, 41920, Note_off_c, 0, 66, 100
2, 41952, Note_on_c, 0, 69, 50
2, 41984, Note_off_c, 0, 84, 100
2, 41984, Note_off_c, 0, 62, 100
2, 42016, Note_off_c, 0, 69, 100
2, 42048, Note_on_c, 0, 84, 50
2, 42048, Note_on_c, 0, 66, 50
2, 42048, Note_on_c, 0, 63, 50
2, 42112, Note_off_c, 0, 66, 100
2, 42144, Note_on_c, 0, 69, 50
2, 42176, Note_off_c, 0, 84, 100
2, 42176, Note_off_c, 0, 63, 100
2, 42208, Note_off_c, 0, 69, 100
2, 42240, Note_on_c, 0, 84, 50
2, 42240, Note_on_c, 0, 62, 50
2, 42240, Note_on_c, 0, 66, 50
2, 42304, Note_off_c, 0, 66, 100
2, 42336, Note_on_c, 0, 69, 50
2, 42368, Note_off_c, 0, 62, 100
2, 42400, Note_off_c, 0, 69, 100
2, 42432, Note_off_c, 0, 84, 100
2, 42432, Note_on_c, 0, 66, 50
2, 42432, Note_on_c, 0, 63, 50
2, 42496, Note_off_c, 0, 66, 100
2, 42528, Note_on_c, 0, 81, 50
2, 42528, Note_on_c, 0, 69, 50
2, 42560, Note_off_c, 0, 63, 100
2, 42592, Note_off_c, 0, 81, 100
2, 42592, Note_off_c, 0, 69, 100
2, 42624, Note_on_c, 0, 78, 50
2, 42624, Note_on_c, 0, 62, 50
2, 42624, Note_on_c, 0, 66, 50
2, 42688, Note_off_c, 0, 66, 100
2, 42720, Note_on_c, 0, 69, 50
2, 42752, Note_off_c, 0, 78, 100
2, 42752, Note_off_c, 0, 62, 100
2, 42784, Note_off_c, 0, 69, 100
2, 42816, Note_on_c, 0, 66, 50
2, 42816, Note_on_c, 0, 63, 50
2, 42880, Note_off_c, 0, 66, 100
2, 42912, Note_on_c, 0, 69, 50
2, 42944, Note_off_c, 0, 63, 100
2, 42976, Note_off_c, 0, 69, 100
2, 43008, Note_on_c, 0, 66, 50
2, 43008, Note_on_c, 0, 62, 50
2, 43072, Note_off_c, 0, 66, 100
2, 43104, Note_on_c, 0, 72, 50
2, 43104, Note_on_c, 0, 69, 50
2, 43136, Note_off_c, 0, 62, 100
2, 43168, Note_off_c, 0, 72, 100
2, 43168, Note_off_c, 0, 69, 100
2, 43200, Note_on_c, 0, 84, 50
2, 43200, Note_on_c, 0, 66, 50
2, 43200, Note_on_c, 0, 63, 50
2, 43264, Note_off_c, 0, 84, 100
2, 43296, Note_on_c, 0, 84, 50
2, 43296, Note_on_c, 0, 69, 50
2, 43328, Note_off_c, 0, 66, 100
2, 43328, Note_off_c, 0, 63, 100
2, 43360, Note_off_c, 0, 84, 100
2, 43360, Note_off_c, 0, 69, 100
2, 43392, Note_on_c, 0, 84, 52
2, 43392, Note_on_c, 0, 62, 55
2, 43392, Note_on_c, 0, 66, 55
2, 43456, Note_off_c, 0, 84, 99
2, 43456, Note_off_c, 0, 66, 100
2, 43488, Note_on_c, 0, 84, 57
2, 43488, Note_on_c, 0, 69, 57
2, 43520, Note_off_c, 0, 62, 100
2, 43552, Note_off_c, 0, 84, 100
2, 43552, Note_off_c, 0, 69, 100
2, 43584, Note_on_c, 0, 84, 60
2, 43584, Note_on_c, 0, 66, 60
2, 43584, Note_on_c, 0, 63, 60
2, 43648, Note_off_c, 0, 84, 100
2, 43648, Note_off_c, 0, 66, 100
2, 43680, Note_on_c, 0, 84, 62
2, 43680, Note_on_c, 0, 69, 62
2, 43712, Note_off_c, 0, 63, 100
2, 43744, Note_off_c, 0, 84, 100
2, 43744, Note_off_c, 0, 69, 100
2, 43776, Note_on_c, 0, 84, 65
2, 43776, Note_on_c, 0, 66, 65
2, 43776, Note_on_c, 0, 62, 65
2, 43840, Note_off_c, 0, 66, 100
2, 43872, Note_on_c, 0, 69, 66
2, 43904, Note_off_c, 0, 62, 100
2, 43936, Note_off_c, 0, 69, 100
2, 43968, Note_off_c, 0, 84, 100
2, 43968, Note_on_c, 0, 66, 67
2, 43968, Note_on_c, 0, 63, 67
2, 44032, Note_off_c, 0, 66, 100
2, 44064, Note_on_c, 0, 81, 68
2, 44064, Note_on_c, 0, 69, 68
2, 44096, Note_off_c, 0, 63, 100
2, 44128, Note_off_c, 0, 81, 100
2, 44128, Note_off_c, 0, 69, 100
2, 44160, Note_on_c, 0, 78, 70
2, 44160, Note_on_c, 0, 66, 70
2, 44160, Note_on_c, 0, 62, 70
2, 44224, Note_off_c, 0, 66, 100
2, 44256, Note_on_c, 0, 69, 71
2, 44288, Note_off_c, 0, 78, 100
2, 44288, Note_off_c, 0, 62, 100
2, 44320, Note_off_c, 0, 69, 100
2, 44352, Note_on_c, 0, 66, 72
2, 44352, Note_on_c, 0, 63, 72
2, 44416, Note_off_c, 0, 66, 100
2, 44448, Note_on_c, 0, 69, 73
2, 44480, Note_off_c, 0, 63, 100
2, 44512, Note_off_c, 0, 69, 100
2, 44544, Note_on_c, 0, 84, 75
2, 44544, Note_on_c, 0, 66, 75
2, 44544, Note_on_c, 0, 62, 75
2, 44608, Note_off_c, 0, 66, 100
2, 44640, Note_on_c, 0, 69, 75
2, 44672, Note_off_c, 0, 84, 100
2, 44672, Note_off_c, 0, 62, 100
2, 44704, Note_off_c, 0, 69, 100
2, 44736, Note_on_c, 0, 84, 75
2, 44736, Note_on_c, 0, 66, 75
2, 44736, Note_on_c, 0, 63, 75
2, 44768, Note_off_c, 0, 84, 100
2, 44784, Note_on_c, 0, 81, 75
2, 44800, Note_off_c, 0, 66, 100
2, 44816, Note_off_c, 0, 81, 100
2, 44832, Note_on_c, 0, 84, 75
2, 44832, Note_on_c, 0, 69, 75
2, 44864, Note_off_c, 0, 63, 100
2, 44864, Note_off_c, 0, 84, 100
2, 44880, Note_on_c, 0, 81, 75
2, 44896, Note_off_c, 0, 69, 100
2, 44912, Note_off_c, 0, 81, 100
2, 44928, Note_on_c, 0, 78, 75
2, 44928, Note_on_c, 0, 66, 75
2, 44928, Note_on_c, 0, 62, 75
2, 44992, Note_off_c, 0, 66, 100
2, 45024, Note_on_c, 0, 69, 75
2, 45056, Note_off_c, 0, 78, 100
2, 45056, Note_off_c, 0, 62, 100
2, 45088, Note_off_c, 0, 69, 100
2, 45120, Note_on_c, 0, 66, 75
2, 45120, Note_on_c, 0, 60, 75
2, 45184, Note_off_c, 0, 66, 100
2, 45216, Note_on_c, 0, 69, 75
2, 45248, Note_off_c, 0, 60, 100
2, 45280, Note_off_c, 0, 69, 100
2, 45312, Note_on_c, 0, 74, 82
2, 45312, Note_on_c, 0, 67, 82
2, 45312, Note_on_c, 0, 59, 82
2, 45344, Note_off_c, 0, 74, 100
2, 45360, Note_on_c, 0, 86, 82
2, 45392, Note_off_c, 0, 86, 100
2, 45408, Note_on_c, 0, 74, 82
2, 45440, Note_off_c, 0, 67, 100
2, 45440, Note_off_c, 0, 59, 100
2, 45440, Note_off_c, 0, 74, 100
2, 45456, Note_on_c, 0, 86, 82
2, 45488, Note_off_c, 0, 86, 100
2, 45504, Note_on_c, 0, 74, 82
2, 45536, Note_off_c, 0, 74, 100
2, 45552, Note_on_c, 0, 86, 82
2, 45584, Note_off_c, 0, 86, 100
2, 45600, Note_on_c, 0, 74, 82
2, 45632, Note_off_c, 0, 74, 100
2, 45648, Note_on_c, 0, 86, 82
2, 45680, Note_off_c, 0, 86, 100
2, 45696, Note_on_c, 0, 74, 82
2, 45696, Note_on_c, 0, 67, 82
2, 45696, Note_on_c, 0, 71, 82
2, 45728, Note_off_c, 0, 74, 100
2, 45744, Note_on_c, 0, 86, 82
2, 45776, Note_off_c, 0, 86, 100
2, 45792, Note_on_c, 0, 74, 82
2, 45824, Note_off_c, 0, 67, 100
2, 45824, Note_off_c, 0, 71, 100
2, 45824, Note_off_c, 0, 74, 100
2, 45840, Note_on_c, 0, 86, 82
2, 45872, Note_off_c, 0, 86, 100
2, 45888, Note_on_c, 0, 74, 82
2, 45888, Note_on_c, 0, 66, 82
2, 45888, Note_on_c, 0, 72, 82
2, 45920, Note_off_c, 0, 74, 100
2, 45936, Note_on_c, 0, 86, 82
2, 45968, Note_off_c, 0, 86, 100
2, 45984, Note_on_c, 0, 74, 82
2, 46016, Note_off_c, 0, 66, 100
2, 46016, Note_off_c, 0, 72, 100
2, 46016, Note_off_c, 0, 74, 100
2, 46032, Note_on_c, 0, 86, 82
2, 46064, Note_off_c, 0, 86, 100
2, 46080, Note_on_c, 0, 74, 82
2, 46080, Note_on_c, 0, 71, 82
2, 46080, Note_on_c, 0, 67, 82
2, 46112, Note_off_c, 0, 74, 100
2, 46128, Note_on_c, 0, 86, 82
2, 46160, Note_off_c, 0, 86, 100
2, 46176, Note_on_c, 0, 74, 82
2, 46208, Note_off_c, 0, 71, 100
2, 46208, Note_off_c, 0, 67, 100
2, 46208, Note_off_c, 0, 74, 100
2, 46224, Note_on_c, 0, 86, 82
2, 46256, Note_off_c, 0, 86, 100
2, 46272, Note_on_c, 0, 74, 82
2, 46304, Note_off_c, 0, 74, 100
2, 46320, Note_on_c, 0, 86, 82
2, 46352, Note_off_c, 0, 86, 100
2, 46368, Note_on_c, 0, 74, 82
2, 46400, Note_off_c, 0, 74, 100
2, 46416, Note_on_c, 0, 86, 82
2, 46448, Note_off_c, 0, 86, 100
2, 46464, Note_on_c, 0, 74, 82
2, 46496, Note_off_c, 0, 74, 100
2, 46512, Note_on_c, 0, 86, 82
2, 46544, Note_off_c, 0, 86, 100
2, 46560, Note_on_c, 0, 74, 82
2, 46592, Note_off_c, 0, 74, 100
2, 46608, Note_on_c, 0, 86, 82
2, 46640, Note_off_c, 0, 86, 100
2, 46656, Note_on_c, 0, 74, 82
2, 46688, Note_off_c, 0, 74, 100
2, 46704, Note_on_c, 0, 86, 82
2, 46736, Note_off_c, 0, 86, 100
2, 46752, Note_on_c, 0, 74, 82
2, 46784, Note_off_c, 0, 74, 100
2, 46800, Note_on_c, 0, 86, 82
2, 46832, Note_off_c, 0, 86, 100
2, 46848, Note_on_c, 0, 74, 82
2, 46880, Note_off_c, 0, 74, 100
2, 46896, Note_on_c, 0, 86, 82
2, 46928, Note_off_c, 0, 86, 100
2, 46944, Note_on_c, 0, 74, 82
2, 46976, Note_off_c, 0, 74, 100
2, 46992, Note_on_c, 0, 86, 82
2, 47024, Note_off_c, 0, 86, 100
2, 47040, Note_on_c, 0, 74, 82
2, 47072, Note_off_c, 0, 74, 100
2, 47088, Note_on_c, 0, 86, 82
2, 47120, Note_off_c, 0, 86, 100
2, 47136, Note_on_c, 0, 74, 82
2, 47168, Note_off_c, 0, 74, 100
2, 47184, Note_on_c, 0, 86, 82
2, 47216, Note_off_c, 0, 86, 100
2, 47232, Note_on_c, 0, 74, 82
2, 47232, Note_on_c, 0, 67, 82
2, 47232, Note_on_c, 0, 71, 82
2, 47264, Note_off_c, 0, 74, 100
2, 47280, Note_on_c, 0, 86, 82
2, 47296, Note_off_c, 0, 67, 100
2, 47296, Note_off_c, 0, 71, 100
2, 47312, Note_off_c, 0, 86, 100
2, 47328, Note_on_c, 0, 74, 82
2, 47328, Note_on_c, 0, 71, 82
2, 47328, Note_on_c, 0, 67, 82
2, 47360, Note_off_c, 0, 74, 100
2, 47376, Note_on_c, 0, 86, 82
2, 47392, Note_off_c, 0, 71, 100
2, 47392, Note_off_c, 0, 67, 100
2, 47408, Note_off_c, 0, 86, 100
2, 47424, Note_on_c, 0, 74, 82
2, 47424, Note_on_c, 0, 66, 82
2, 47424, Note_on_c, 0, 72, 82
2, 47456, Note_off_c, 0, 74, 100
2, 47472, Note_on_c, 0, 86, 82
2, 47488, Note_off_c, 0, 66, 100
2, 47488, Note_off_c, 0, 72, 100
2, 47504, Note_off_c, 0, 86, 100
2, 47520, Note_on_c, 0, 74, 82
2, 47520, Note_on_c, 0, 66, 82
2, 47520, Note_on_c, 0, 72, 82
2, 47552, Note_off_c, 0, 74, 100
2, 47568, Note_on_c, 0, 86, 82
2, 47584, Note_off_c, 0, 66, 100
2, 47584, Note_off_c, 0, 72, 100
2, 47600, Note_off_c, 0, 86, 100
2, 47616, Note_on_c, 0, 74, 82
2, 47616, Note_on_c, 0, 71, 82
2, 47616, Note_on_c, 0, 67, 82
2, 47648, Note_off_c, 0, 74, 100
2, 47664, Note_on_c, 0, 86, 82
2, 47696, Note_off_c, 0, 86, 100
2, 47712, Note_on_c, 0, 74, 82
2, 47744, Note_off_c, 0, 71, 100
2, 47744, Note_off_c, 0, 67, 100
2, 47744, Note_off_c, 0, 74, 100
2, 47760, Note_on_c, 0, 86, 82
2, 47792, Note_off_c, 0, 86, 100
2, 47808, Note_on_c, 0, 74, 82
2, 47840, Note_off_c, 0, 74, 100
2, 47856, Note_on_c, 0, 86, 82
2, 47888, Note_off_c, 0, 86, 100
2, 47920, Note_on_c, 0, 74, 82
2, 47952, Note_off_c, 0, 74, 100
2, 47952, Note_on_c, 0, 86, 82
2, 47984, Note_off_c, 0, 86, 100
2, 48000, Note_on_c, 0, 74, 82
2, 48032, Note_off_c, 0, 74, 100
2, 48048, Note_on_c, 0, 86, 82
2, 48080, Note_off_c, 0, 86, 100
2, 48096, Note_on_c, 0, 74, 82
2, 48128, Note_off_c, 0, 74, 100
2, 48144, Note_on_c, 0, 86, 82
2, 48176, Note_off_c, 0, 86, 100
2, 48192, Note_on_c, 0, 74, 82
2, 48224, Note_off_c, 0, 74, 100
2, 48240, Note_on_c, 0, 86, 82
2, 48272, Note_off_c, 0, 86, 100
2, 48288, Note_on_c, 0, 74, 82
2, 48320, Note_off_c, 0, 74, 100
2, 48336, Note_on_c, 0, 86, 82
2, 48368, Note_off_c, 0, 86, 100
2, 48384, Note_on_c, 0, 74, 82
2, 48384, Note_on_c, 0, 86, 82
2, 48448, Note_off_c, 0, 74, 100
2, 48448, Note_off_c, 0, 86, 100
2, 48480, Note_on_c, 0, 84, 82
2, 48544, Note_off_c, 0, 84, 100
2, 48576, Note_on_c, 0, 83, 82
2, 48640, Note_off_c, 0, 83, 100
2, 48672, Note_on_c, 0, 81, 82
2, 48736, Note_off_c, 0, 81, 100
2, 48768, Note_on_c, 0, 79, 82
2, 48832, Note_off_c, 0, 79, 100
2, 48864, Note_on_c, 0, 78, 82
2, 48928, Note_off_c, 0, 78, 100
2, 48960, Note_on_c, 0, 76, 82
2, 49024, Note_off_c, 0, 76, 100
2, 49056, Note_on_c, 0, 74, 82
2, 49120, Note_off_c, 0, 74, 100
2, 49152, Note_on_c, 0, 76, 82
2, 49216, Note_off_c, 0, 76, 100
2, 49248, Note_on_c, 0, 74, 82
2, 49312, Note_off_c, 0, 74, 100
2, 49344, Note_on_c, 0, 72, 82
2, 49408, Note_off_c, 0, 72, 100
2, 49440, Note_on_c, 0, 71, 82
2, 49504, Note_off_c, 0, 71, 100
2, 49536, Note_on_c, 0, 69, 82
2, 49600, Note_off_c, 0, 69, 100
2, 49632, Note_on_c, 0, 67, 82
2, 49696, Note_off_c, 0, 67, 100
2, 49744, Note_on_c, 0, 66, 82
2, 49808, Note_off_c, 0, 66, 100
2, 49824, Note_on_c, 0, 64, 82
2, 49888, Note_off_c, 0, 64, 100
2, 49920, Note_on_c, 0, 62, 82
2, 50048, Note_off_c, 0, 62, 100
2, 50304, Note_on_c, 0, 66, 82
2, 50304, Note_on_c, 0, 60, 82
2, 50304, Note_on_c, 0, 57, 82
2, 50432, Note_off_c, 0, 66, 100
2, 50432, Note_off_c, 0, 60, 100
2, 50432, Note_off_c, 0, 57, 100
2, 50688, Note_on_c, 0, 67, 82
2, 50688, Note_on_c, 0, 59, 82
2, 50688, Note_on_c, 0, 55, 82
2, 50816, Note_off_c, 0, 67, 100
2, 50816, Note_off_c, 0, 59, 100
2, 50816, Note_off_c, 0, 55, 100
2, 51456, Note_on_c, 0, 81, 50
2, 51552, Note_on_c, 0, 79, 50
2, 51584, Note_off_c, 0, 81, 100
2, 51648, Note_on_c, 0, 69, 50
2, 51648, Note_on_c, 0, 64, 50
2, 51648, Note_on_c, 0, 61, 50
2, 51744, Note_off_c, 0, 79, 100
2, 51776, Note_off_c, 0, 69, 100
2, 51776, Note_off_c, 0, 64, 100
2, 51776, Note_off_c, 0, 61, 100
2, 51840, Note_on_c, 0, 79, 50
2, 51840, Note_on_c, 0, 69, 50
2, 51840, Note_on_c, 0, 64, 50
2, 51840, Note_on_c, 0, 61, 50
2, 51904, Note_off_c, 0, 79, 100
2, 51936, Note_on_c, 0, 78, 50
2, 51968, Note_off_c, 0, 69, 100
2, 51968, Note_off_c, 0, 64, 100
2, 51968, Note_off_c, 0, 61, 100
2, 52000, Note_off_c, 0, 78, 100
2, 52032, Note_on_c, 0, 79, 50
2, 52032, Note_on_c, 0, 69, 50
2, 52032, Note_on_c, 0, 64, 50
2, 52032, Note_on_c, 0, 61, 50
2, 52096, Note_off_c, 0, 79, 100
2, 52128, Note_on_c, 0, 76, 50
2, 52160, Note_off_c, 0, 69, 100
2, 52160, Note_off_c, 0, 64, 100
2, 52160, Note_off_c, 0, 61, 100
2, 52192, Note_off_c, 0, 76, 100
2, 52224, Note_on_c, 0, 74, 50
2, 52416, Note_on_c, 0, 71, 50
2, 52416, Note_on_c, 0, 67, 50
2, 52416, Note_on_c, 0, 62, 50
2, 52480, Note_off_c, 0, 74, 100
2, 52544, Note_off_c, 0, 71, 100
2, 52544, Note_off_c, 0, 67, 100
2, 52544, Note_off_c, 0, 62, 100
2, 52608, Note_on_c, 0, 74, 50
2, 52608, Note_on_c, 0, 71, 50
2, 52608, Note_on_c, 0, 67, 50
2, 52608, Note_on_c, 0, 62, 50
2, 52672, Note_off_c, 0, 74, 100
2, 52704, Note_on_c, 0, 73, 50
2, 52736, Note_off_c, 0, 71, 100
2, 52736, Note_off_c, 0, 67, 100
2, 52736, Note_off_c, 0, 62, 100
2, 52768, Note_off_c, 0, 73, 100
2, 52800, Note_on_c, 0, 74, 50
2, 52800, Note_on_c, 0, 71, 50
2, 52800, Note_on_c, 0, 67, 50
2, 52800, Note_on_c, 0, 62, 50
2, 52864, Note_off_c, 0, 74, 100
2, 52896, Note_on_c, 0, 71, 50
2, 52928, Note_off_c, 0, 71, 100
2, 52928, Note_off_c, 0, 67, 100
2, 52928, Note_off_c, 0, 62, 100
2, 52960, Note_off_c, 0, 71, 100
2, 52992, Note_on_c, 0, 74, 50
2, 53088, Note_on_c, 0, 72, 50
2, 53120, Note_off_c, 0, 74, 100
2, 53184, Note_on_c, 0, 69, 50
2, 53184, Note_on_c, 0, 62, 50
2, 53184, Note_on_c, 0, 66, 50
2, 53280, Note_off_c, 0, 72, 100
2, 53312, Note_off_c, 0, 69, 100
2, 53312, Note_off_c, 0, 62, 100
2, 53312, Note_off_c, 0, 66, 100
2, 53376, Note_on_c, 0, 72, 50
2, 53376, Note_on_c, 0, 69, 50
2, 53376, Note_on_c, 0, 66, 50
2, 53376, Note_on_c, 0, 62, 50
2, 53440, Note_off_c, 0, 72, 100
2, 53472, Note_on_c, 0, 71, 50
2, 53504, Note_off_c, 0, 69, 100
2, 53504, Note_off_c, 0, 66, 100
2, 53504, Note_off_c, 0, 62, 100
2, 53536, Note_off_c, 0, 71, 100
2, 53568, Note_on_c, 0, 72, 50
2, 53568, Note_on_c, 0, 69, 50
2, 53568, Note_on_c, 0, 62, 50
2, 53568, Note_on_c, 0, 66, 50
2, 53632, Note_off_c, 0, 72, 100
2, 53664, Note_on_c, 0, 69, 50
2, 53696, Note_off_c, 0, 69, 100
2, 53696, Note_off_c, 0, 62, 100
2, 53696, Note_off_c, 0, 66, 100
2, 53728, Note_off_c, 0, 69, 100
2, 53760, Note_on_c, 0, 74, 75
2, 53792, Note_off_c, 0, 74, 100
2, 53808, Note_on_c, 0, 86, 75
2, 53840, Note_off_c, 0, 86, 100
2, 53856, Note_on_c, 0, 74, 75
2, 53888, Note_off_c, 0, 74, 100
2, 53904, Note_on_c, 0, 86, 75
2, 53936, Note_off_c, 0, 86, 100
2, 53952, Note_on_c, 0, 74, 75
2, 53984, Note_off_c, 0, 74, 100
2, 54000, Note_on_c, 0, 86, 75
2, 54032, Note_off_c, 0, 86, 100
2, 54048, Note_on_c, 0, 74, 75
2, 54080, Note_off_c, 0, 74, 100
2, 54096, Note_on_c, 0, 86, 75
2, 54128, Note_off_c, 0, 86, 100
2, 54144, Note_on_c, 0, 74, 75
2, 54144, Note_on_c, 0, 70, 75
2, 54144, Note_on_c, 0, 67, 75
2, 54176, Note_off_c, 0, 74, 100
2, 54192, Note_on_c, 0, 86, 75
2, 54224, Note_off_c, 0, 86, 100
2, 54240, Note_on_c, 0, 74, 75
2, 54272, Note_off_c, 0, 70, 100
2, 54272, Note_off_c, 0, 67, 100
2, 54272, Note_off_c, 0, 74, 100
2, 54288, Note_on_c, 0, 86, 75
2, 54320, Note_off_c, 0, 86, 100
2, 54336, Note_on_c, 0, 74, 75
2, 54336, Note_on_c, 0, 72, 75
2, 54336, Note_on_c, 0, 66, 75
2, 54368, Note_off_c, 0, 74, 100
2, 54384, Note_on_c, 0, 86, 75
2, 54416, Note_off_c, 0, 86, 100
2, 54432, Note_on_c, 0, 74, 75
2, 54464, Note_off_c, 0, 72, 100
2, 54464, Note_off_c, 0, 66, 100
2, 54464, Note_off_c, 0, 74, 100
2, 54480, Note_on_c, 0, 86, 75
2, 54512, Note_off_c, 0, 86, 100
2, 54528, Note_on_c, 0, 74, 75
2, 54528, Note_on_c, 0, 70, 75
2, 54528, Note_on_c, 0, 67, 75
2, 54560, Note_off_c, 0, 74, 100
2, 54576, Note_on_c, 0, 86, 75
2, 54608, Note_off_c, 0, 86, 100
2, 54624, Note_on_c, 0, 74, 75
2, 54656, Note_off_c, 0, 70, 100
2, 54656, Note_off_c, 0, 67, 100
2, 54656, Note_off_c, 0, 74, 100
2, 54672, Note_on_c, 0, 86, 75
2, 54704, Note_off_c, 0, 86, 100
2, 54720, Note_on_c, 0, 74, 75
2, 54752, Note_off_c, 0, 74, 100
2, 54768, Note_on_c, 0, 86, 75
2, 54800, Note_off_c, 0, 86, 100
2, 54816, Note_on_c, 0, 74, 75
2, 54848, Note_off_c, 0, 74, 100
2, 54864, Note_on_c, 0, 86, 75
2, 54896, Note_off_c, 0, 86, 100
2, 54912, Note_on_c, 0, 74, 75
2, 54944, Note_off_c, 0, 74, 100
2, 54960, Note_on_c, 0, 86, 75
2, 54992, Note_off_c, 0, 86, 100
2, 55008, Note_on_c, 0, 74, 75
2, 55040, Note_off_c, 0, 74, 100
2, 55056, Note_on_c, 0, 86, 75
2, 55088, Note_off_c, 0, 86, 100
2, 55104, Note_on_c, 0, 74, 75
2, 55136, Note_off_c, 0, 74, 100
2, 55152, Note_on_c, 0, 86, 75
2, 55184, Note_off_c, 0, 86, 100
2, 55200, Note_on_c, 0, 74, 75
2, 55232, Note_off_c, 0, 74, 100
2, 55248, Note_on_c, 0, 86, 75
2, 55280, Note_off_c, 0, 86, 100
2, 55296, Note_on_c, 0, 74, 75
2, 55328, Note_off_c, 0, 74, 100
2, 55344, Note_on_c, 0, 86, 75
2, 55376, Note_off_c, 0, 86, 100
2, 55392, Note_on_c, 0, 74, 75
2, 55424, Note_off_c, 0, 74, 100
2, 55440, Note_on_c, 0, 86, 75
2, 55472, Note_off_c, 0, 86, 100
2, 55488, Note_on_c, 0, 74, 75
2, 55520, Note_off_c, 0, 74, 100
2, 55536, Note_on_c, 0, 86, 75
2, 55568, Note_off_c, 0, 86, 100
2, 55584, Note_on_c, 0, 74, 75
2, 55616, Note_off_c, 0, 74, 100
2, 55632, Note_on_c, 0, 86, 75
2, 55664, Note_off_c, 0, 86, 100
2, 55680, Note_on_c, 0, 74, 75
2, 55680, Note_on_c, 0, 67, 75
2, 55680, Note_on_c, 0, 71, 75
2, 55712, Note_off_c, 0, 74, 100
2, 55728, Note_on_c, 0, 86, 75
2, 55744, Note_off_c, 0, 67, 100
2, 55744, Note_off_c, 0, 71, 100
2, 55760, Note_off_c, 0, 86, 100
2, 55776, Note_on_c, 0, 74, 75
2, 55776, Note_on_c, 0, 67, 75
2, 55776, Note_on_c, 0, 71, 75
2, 55808, Note_off_c, 0, 74, 100
2, 55824, Note_on_c, 0, 86, 75
2, 55840, Note_off_c, 0, 67, 100
2, 55840, Note_off_c, 0, 71, 100
2, 55856, Note_off_c, 0, 86, 100
2, 55872, Note_on_c, 0, 74, 75
2, 55872, Note_on_c, 0, 66, 75
2, 55872, Note_on_c, 0, 72, 75
2, 55904, Note_off_c, 0, 74, 100
2, 55920, Note_on_c, 0, 86, 75
2, 55936, Note_off_c, 0, 66, 100
2, 55936, Note_off_c, 0, 72, 100
2, 55952, Note_off_c, 0, 86, 100
2, 55968, Note_on_c, 0, 74, 75
2, 55968, Note_on_c, 0, 72, 75
2, 55968, Note_on_c, 0, 66, 75
2, 56000, Note_off_c, 0, 74, 100
2, 56016, Note_on_c, 0, 86, 75
2, 56032, Note_off_c, 0, 72, 100
2, 56032, Note_off_c, 0, 66, 100
2, 56048, Note_off_c, 0, 86, 100
2, 56064, Note_on_c, 0, 74, 75
2, 56064, Note_on_c, 0, 67, 75
2, 56064, Note_on_c, 0, 71, 75
2, 56096, Note_off_c, 0, 74, 100
2, 56112, Note_on_c, 0, 86, 75
2, 56144, Note_off_c, 0, 86, 100
2, 56160, Note_on_c, 0, 74, 75
2, 56192, Note_off_c, 0, 67, 100
2, 56192, Note_off_c, 0, 71, 100
2, 56192, Note_off_c, 0, 74, 100
2, 56208, Note_on_c, 0, 86, 75
2, 56240, Note_off_c, 0, 86, 100
2, 56256, Note_on_c, 0, 74, 75
2, 56288, Note_off_c, 0, 74, 100
2, 56304, Note_on_c, 0, 86, 75
2, 56336, Note_off_c, 0, 86, 100
2, 56352, Note_on_c, 0, 74, 75
2, 56384, Note_off_c, 0, 74, 100
2, 56400, Note_on_c, 0, 86, 75
2, 56432, Note_off_c, 0, 86, 100
2, 56448, Note_on_c, 0, 74, 75
2, 56480, Note_off_c, 0, 74, 100
2, 56496, Note_on_c, 0, 86, 75
2, 56528, Note_off_c, 0, 86, 100
2, 56544, Note_on_c, 0, 74, 75
2, 56576, Note_off_c, 0, 74, 100
2, 56592, Note_on_c, 0, 86, 75
2, 56624, Note_off_c, 0, 86, 100
2, 56640, Note_on_c, 0, 74, 75
2, 56672, Note_off_c, 0, 74, 100
2, 56688, Note_on_c, 0, 86, 75
2, 56720, Note_off_c, 0, 86, 100
2, 56736, Note_on_c, 0, 74, 75
2, 56768, Note_off_c, 0, 74, 100
2, 56784, Note_on_c, 0, 86, 75
2, 56816, Note_off_c, 0, 86, 100
2, 56832, Note_on_c, 0, 74, 75
2, 56864, Note_off_c, 0, 74, 100
2, 56880, Note_on_c, 0, 86, 75
2, 56912, Note_off_c, 0, 86, 100
2, 56944, Note_on_c, 0, 74, 75
2, 56976, Note_off_c, 0, 74, 100
2, 56976, Note_on_c, 0, 86, 75
2, 57008, Note_off_c, 0, 86, 100
2, 57024, Note_on_c, 0, 75, 50
2, 57056, Note_off_c, 0, 75, 100
2, 57072, Note_on_c, 0, 87, 50
2, 57104, Note_off_c, 0, 87, 100
2, 57120, Note_on_c, 0, 75, 50
2, 57152, Note_off_c, 0, 75, 100
2, 57168, Note_on_c, 0, 87, 50
2, 57200, Note_off_c, 0, 87, 100
2, 57216, Note_on_c, 0, 75, 50
2, 57248, Note_off_c, 0, 75, 100
2, 57264, Note_on_c, 0, 87, 50
2, 57296, Note_off_c, 0, 87, 100
2, 57312, Note_on_c, 0, 75, 50
2, 57344, Note_off_c, 0, 75, 100
2, 57360, Note_on_c, 0, 87, 50
2, 57392, Note_off_c, 0, 87, 100
2, 57408, Note_on_c, 0, 75, 50
2, 57440, Note_off_c, 0, 75, 100
2, 57456, Note_on_c, 0, 87, 50
2, 57488, Note_off_c, 0, 87, 100
2, 57504, Note_on_c, 0, 75, 50
2, 57536, Note_off_c, 0, 75, 100
2, 57552, Note_on_c, 0, 87, 50
2, 57584, Note_off_c, 0, 87, 100
2, 57600, Note_on_c, 0, 76, 75
2, 57632, Note_off_c, 0, 76, 100
2, 57648, Note_on_c, 0, 88, 75
2, 57680, Note_off_c, 0, 88, 100
2, 57696, Note_on_c, 0, 76, 75
2, 57728, Note_off_c, 0, 76, 100
2, 57744, Note_on_c, 0, 88, 75
2, 57776, Note_off_c, 0, 88, 100
2, 57792, Note_on_c, 0, 73, 50
2, 57824, Note_off_c, 0, 73, 100
2, 57840, Note_on_c, 0, 85, 50
2, 57872, Note_off_c, 0, 85, 100
2, 57888, Note_on_c, 0, 73, 50
2, 57920, Note_off_c, 0, 73, 100
2, 57936, Note_on_c, 0, 85, 50
2, 57968, Note_off_c, 0, 85, 100
2, 57984, Note_on_c, 0, 73, 50
2, 58016, Note_off_c, 0, 73, 100
2, 58032, Note_on_c, 0, 85, 50
2, 58064, Note_off_c, 0, 85, 100
2, 58080, Note_on_c, 0, 73, 50
2, 58112, Note_off_c, 0, 73, 100
2, 58128, Note_on_c, 0, 85, 50
2, 58160, Note_off_c, 0, 85, 100
2, 58176, Note_on_c, 0, 73, 50
2, 58208, Note_off_c, 0, 73, 100
2, 58224, Note_on_c, 0, 85, 50
2, 58256, Note_off_c, 0, 85, 100
2, 58272, Note_on_c, 0, 73, 50
2, 58304, Note_off_c, 0, 73, 100
2, 58320, Note_on_c, 0, 85, 50
2, 58352, Note_off_c, 0, 85, 100
2, 58368, Note_on_c, 0, 83, 75
2, 58416, Note_off_c, 0, 83, 100
2, 58432, Note_on_c, 0, 86, 75
2, 58480, Note_off_c, 0, 86, 100
2, 58496, Note_on_c, 0, 83, 75
2, 58544, Note_off_c, 0, 83, 100
2, 58560, Note_on_c, 0, 79, 75
2, 58608, Note_off_c, 0, 79, 100
2, 58624, Note_on_c, 0, 74, 75
2, 58672, Note_off_c, 0, 74, 100
2, 58688, Note_on_c, 0, 71, 75
2, 58736, Note_off_c, 0, 71, 100
2, 58752, Note_on_c, 0, 67, 75
2, 58800, Note_off_c, 0, 67, 100
2, 58816, Note_on_c, 0, 71, 75
2, 58864, Note_off_c, 0, 71, 100
2, 58880, Note_on_c, 0, 67, 75
2, 58928, Note_off_c, 0, 67, 100
2, 58944, Note_on_c, 0, 62, 75
2, 58992, Note_off_c, 0, 62, 100
2, 59008, Note_on_c, 0, 59, 75
2, 59056, Note_off_c, 0, 59, 100
2, 59072, Note_on_c, 0, 55, 75
2, 59136, Note_on_c, 0, 62, 75
2, 59140, Note_off_c, 0, 55, 100
2, 59264, Note_off_c, 0, 62, 100
2, 59520, Note_on_c, 0, 78, 75
2, 59520, Note_on_c, 0, 74, 75
2, 59520, Note_on_c, 0, 72, 75
2, 59520, Note_on_c, 0, 69, 75
2, 59648, Note_off_c, 0, 78, 100
2, 59648, Note_off_c, 0, 74, 100
2, 59648, Note_off_c, 0, 72, 100
2, 59648, Note_off_c, 0, 69, 100
2, 59904, Note_on_c, 0, 79, 75
2, 59904, Note_on_c, 0, 74, 75
2, 59904, Note_on_c, 0, 71, 75
2, 59904, Note_on_c, 0, 67, 75
2, 60032, Note_off_c, 0, 79, 100
2, 60032, Note_off_c, 0, 74, 100
2, 60032, Note_off_c, 0, 71, 100
2, 60032, Note_off_c, 0, 67, 100
2, 60288, Note_on_c, 0, 67, 50
2, 60352, Note_off_c, 0, 67, 100
2, 60384, Note_on_c, 0, 69, 50
2, 60448, Note_off_c, 0, 69, 100
2, 60480, Note_on_c, 0, 71, 50
2, 60544, Note_off_c, 0, 71, 100
2, 60576, Note_on_c, 0, 72, 50
2, 60640, Note_off_c, 0, 72, 100
2, 60672, Note_on_c, 0, 74, 50
2, 60800, Note_off_c, 0, 74, 100
2, 60864, Note_on_c, 0, 76, 50
2, 60992, Note_off_c, 0, 76, 100
2, 61056, Note_on_c, 0, 74, 50
2, 61184, Note_off_c, 0, 74, 100
2, 61264, Note_on_c, 0, 73, 50
2, 61392, Note_off_c, 0, 73, 100
2, 61440, Note_on_c, 0, 72, 50
2, 61568, Note_off_c, 0, 72, 100
2, 61824, Note_on_c, 0, 71, 50
2, 61952, Note_off_c, 0, 71, 100
2, 62400, Note_on_c, 0, 69, 50
2, 62528, Note_off_c, 0, 69, 100
2, 62592, Note_on_c, 0, 72, 50
2, 62720, Note_off_c, 0, 72, 100
2, 62784, Note_on_c, 0, 66, 50
2, 62912, Note_off_c, 0, 66, 100
2, 62976, Note_on_c, 0, 67, 50
2, 63104, Note_off_c, 0, 67, 100
2, 63360, Note_on_c, 0, 79, 50
2, 63424, Note_off_c, 0, 79, 100
2, 63456, Note_on_c, 0, 81, 50
2, 63520, Note_off_c, 0, 81, 100
2, 63552, Note_on_c, 0, 83, 50
2, 63616, Note_off_c, 0, 83, 100
2, 63648, Note_on_c, 0, 84, 50
2, 63712, Note_off_c, 0, 84, 100
2, 63744, Note_on_c, 0, 86, 50
2, 63872, Note_off_c, 0, 86, 100
2, 63936, Note_on_c, 0, 88, 50
2, 64064, Note_off_c, 0, 88, 100
2, 64128, Note_on_c, 0, 86, 50
2, 64256, Note_off_c, 0, 86, 100
2, 64320, Note_on_c, 0, 85, 50
2, 64448, Note_off_c, 0, 85, 100
2, 64512, Note_on_c, 0, 84, 50
2, 64640, Note_off_c, 0, 84, 100
2, 64704, Note_on_c, 0, 66, 50
2, 64704, Note_on_c, 0, 63, 50
2, 64832, Note_off_c, 0, 66, 100
2, 64832, Note_off_c, 0, 63, 100
2, 64896, Note_on_c, 0, 83, 50
2, 65024, Note_off_c, 0, 83, 100
2, 65088, Note_on_c, 0, 67, 50
2, 65088, Note_on_c, 0, 64, 50
2, 65216, Note_off_c, 0, 67, 100
2, 65216, Note_off_c, 0, 64, 100
2, 65280, Note_on_c, 0, 64, 50
2, 65280, Note_on_c, 0, 60, 50
2, 65472, Note_on_c, 0, 81, 50
2, 65536, Note_off_c, 0, 64, 100
2, 65536, Note_off_c, 0, 60, 100
2, 65600, Note_off_c, 0, 81, 100
2, 65664, Note_on_c, 0, 84, 50
2, 65792, Note_off_c, 0, 84, 100
2, 65856, Note_on_c, 0, 78, 50
2, 65856, Note_on_c, 0, 72, 50
2, 65856, Note_on_c, 0, 62, 50
2, 65984, Note_off_c, 0, 78, 100
2, 65984, Note_off_c, 0, 72, 100
2, 65984, Note_off_c, 0, 62, 100
2, 66048, Note_on_c, 0, 79, 50
2, 66048, Note_on_c, 0, 71, 50
2, 66048, Note_on_c, 0, 67, 50
2, 66176, Note_off_c, 0, 71, 100
2, 66176, Note_off_c, 0, 67, 100
2, 66304, Note_off_c, 0, 79, 100
2, 66624, Note_on_c, 0, 67, 75
2, 66624, Note_on_c, 0, 62, 75
2, 66624, Note_on_c, 0, 59, 75
2, 66752, Note_off_c, 0, 67, 100
2, 66752, Note_off_c, 0, 62, 100
2, 66752, Note_off_c, 0, 59, 100
2, 66816, Note_on_c, 0, 71, 75
2, 66816, Note_on_c, 0, 67, 75
2, 66816, Note_on_c, 0, 62, 75
2, 67072, Note_off_c, 0, 71, 100
2, 67072, Note_off_c, 0, 67, 100
2, 67072, Note_off_c, 0, 62, 100
2, 67392, Note_on_c, 0, 71, 75
2, 67392, Note_on_c, 0, 67, 75
2, 67392, Note_on_c, 0, 62, 75
2, 67520, Note_off_c, 0, 71, 100
2, 67520, Note_off_c, 0, 67, 100
2, 67520, Note_off_c, 0, 62, 100
2, 67584, Note_on_c, 0, 74, 75
2, 67584, Note_on_c, 0, 71, 75
2, 67584, Note_on_c, 0, 67, 75
2, 67840, Note_off_c, 0, 74, 100
2, 67840, Note_off_c, 0, 71, 100
2, 67840, Note_off_c, 0, 67, 100
2, 68160, Note_on_c, 0, 74, 75
2, 68160, Note_on_c, 0, 67, 75
2, 68160, Note_on_c, 0, 71, 75
2, 68288, Note_off_c, 0, 74, 100
2, 68288, Note_off_c, 0, 67, 100
2, 68288, Note_off_c, 0, 71, 100
2, 68352, Note_on_c, 0, 77, 75
2, 68352, Note_on_c, 0, 74, 75
2, 68352, Note_on_c, 0, 71, 75
2, 68352, Note_on_c, 0, 67, 75
2, 68608, Note_off_c, 0, 77, 100
2, 68608, Note_off_c, 0, 74, 100
2, 68608, Note_off_c, 0, 71, 100
2, 68608, Note_off_c, 0, 67, 100
2, 68928, Note_on_c, 0, 77, 75
2, 68928, Note_on_c, 0, 74, 75
2, 68928, Note_on_c, 0, 71, 75
2, 68928, Note_on_c, 0, 67, 75
2, 69056, Note_off_c, 0, 77, 100
2, 69056, Note_off_c, 0, 74, 100
2, 69056, Note_off_c, 0, 71, 100
2, 69056, Note_off_c, 0, 67, 100
2, 69120, Note_on_c, 0, 83, 75
2, 69120, Note_on_c, 0, 79, 75
2, 69120, Note_on_c, 0, 77, 75
2, 69120, Note_on_c, 0, 74, 75
2, 69248, Note_off_c, 0, 83, 100
2, 69248, Note_off_c, 0, 79, 100
2, 69248, Note_off_c, 0, 77, 100
2, 69248, Note_off_c, 0, 74, 100
2, 69312, Note_on_c, 0, 77, 50
2, 69440, Note_off_c, 0, 77, 100
2, 69504, Note_on_c, 0, 74, 50
2, 69632, Note_off_c, 0, 74, 100
2, 69696, Note_on_c, 0, 71, 50
2, 69824, Note_off_c, 0, 71, 100
2, 70080, Note_on_c, 0, 83, 50
2, 70208, Note_off_c, 0, 83, 100
2, 70272, Note_on_c, 0, 77, 50
2, 70400, Note_off_c, 0, 77, 100
2, 70464, Note_on_c, 0, 74, 50
2, 70592, Note_off_c, 0, 74, 100
2, 70848, Note_on_c, 0, 89, 50
2, 70976, Note_off_c, 0, 89, 100
2, 71040, Note_on_c, 0, 86, 50
2, 71168, Note_off_c, 0, 86, 100
2, 71232, Note_on_c, 0, 83, 50
2, 71360, Note_off_c, 0, 83, 100
2, 71616, Note_on_c, 0, 86, 50
2, 71744, Note_off_c, 0, 86, 100
2, 71808, Note_on_c, 0, 83, 50
2, 71936, Note_off_c, 0, 83, 100
2, 72000, Note_on_c, 0, 79, 50
2, 72128, Note_off_c, 0, 79, 100
2, 72192, Note_on_c, 0, 77, 50
2, 72192, Note_on_c, 0, 60, 50
2, 72256, Note_off_c, 0, 77, 100
2, 72256, Note_off_c, 0, 60, 100
2, 72256, Note_on_c, 0, 76, 50
2, 72288, Note_on_c, 0, 64, 50
2, 72352, Note_off_c, 0, 76, 100
2, 72352, Note_off_c, 0, 64, 100
2, 72384, Note_on_c, 0, 74, 50
2, 72384, Note_on_c, 0, 67, 50
2, 72448, Note_off_c, 0, 74, 100
2, 72448, Note_off_c, 0, 67, 100
2, 72480, Note_on_c, 0, 72, 50
2, 72480, Note_on_c, 0, 64, 50
2, 72544, Note_off_c, 0, 72, 100
2, 72544, Note_off_c, 0, 64, 100
2, 72576, Note_on_c, 0, 72, 50
2, 72576, Note_on_c, 0, 60, 50
2, 72640, Note_off_c, 0, 60, 100
2, 72672, Note_on_c, 0, 64, 50
2, 72704, Note_off_c, 0, 72, 100
2, 72736, Note_off_c, 0, 64, 100
2, 72768, Note_on_c, 0, 72, 50
2, 72768, Note_on_c, 0, 67, 50
2, 72832, Note_off_c, 0, 67, 100
2, 72864, Note_on_c, 0, 64, 50
2, 72896, Note_off_c, 0, 72, 100
2, 72928, Note_off_c, 0, 64, 100
2, 72960, Note_on_c, 0, 72, 50
2, 72960, Note_on_c, 0, 60, 50
2, 73024, Note_off_c, 0, 60, 100
2, 73056, Note_on_c, 0, 64, 50
2, 73120, Note_off_c, 0, 64, 100
2, 73152, Note_on_c, 0, 67, 50
2, 73216, Note_off_c, 0, 67, 100
2, 73248, Note_on_c, 0, 64, 50
2, 73312, Note_off_c, 0, 64, 100
2, 73344, Note_off_c, 0, 72, 100
2, 73344, Note_on_c, 0, 60, 50
2, 73408, Note_off_c, 0, 60, 100
2, 73440, Note_on_c, 0, 64, 50
2, 73504, Note_off_c, 0, 64, 100
2, 73536, Note_on_c, 0, 84, 50
2, 73536, Note_on_c, 0, 67, 50
2, 73600, Note_off_c, 0, 67, 100
2, 73632, Note_on_c, 0, 64, 50
2, 73664, Note_off_c, 0, 84, 100
2, 73696, Note_off_c, 0, 64, 100
2, 73728, Note_on_c, 0, 83, 50
2, 73728, Note_on_c, 0, 60, 50
2, 73792, Note_off_c, 0, 83, 100
2, 73792, Note_off_c, 0, 60, 100
2, 73792, Note_on_c, 0, 81, 50
2, 73824, Note_on_c, 0, 65, 50
2, 73888, Note_off_c, 0, 81, 100
2, 73888, Note_off_c, 0, 65, 100
2, 73920, Note_on_c, 0, 79, 50
2, 73920, Note_on_c, 0, 69, 50
2, 73984, Note_off_c, 0, 79, 100
2, 73984, Note_off_c, 0, 69, 100
2, 74016, Note_on_c, 0, 77, 50
2, 74016, Note_on_c, 0, 65, 50
2, 74080, Note_off_c, 0, 77, 100
2, 74080, Note_off_c, 0, 65, 100
2, 74112, Note_on_c, 0, 77, 50
2, 74112, Note_on_c, 0, 60, 50
2, 74176, Note_off_c, 0, 60, 100
2, 74208, Note_on_c, 0, 65, 50
2, 74240, Note_off_c, 0, 77, 100
2, 74272, Note_off_c, 0, 65, 100
2, 74304, Note_on_c, 0, 77, 50
2, 74304, Note_on_c, 0, 69, 50
2, 74368, Note_off_c, 0, 69, 100
2, 74400, Note_on_c, 0, 65, 50
2, 74432, Note_off_c, 0, 77, 100
2, 74464, Note_off_c, 0, 65, 100
2, 74496, Note_on_c, 0, 77, 50
2, 74496, Note_on_c, 0, 60, 50
2, 74560, Note_off_c, 0, 60, 100
2, 74592, Note_on_c, 0, 65, 50
2, 74656, Note_off_c, 0, 65, 100
2, 74688, Note_on_c, 0, 69, 50
2, 74752, Note_off_c, 0, 69, 100
2, 74784, Note_on_c, 0, 65, 50
2, 74848, Note_off_c, 0, 65, 100
2, 74880, Note_off_c, 0, 77, 100
2, 74880, Note_on_c, 0, 60, 50
2, 74944, Note_off_c, 0, 60, 100
2, 74976, Note_on_c, 0, 65, 50
2, 75040, Note_off_c, 0, 65, 100
2, 75072, Note_on_c, 0, 81, 50
2, 75072, Note_on_c, 0, 69, 50
2, 75136, Note_off_c, 0, 69, 100
2, 75168, Note_on_c, 0, 65, 50
2, 75200, Note_off_c, 0, 81, 100
2, 75232, Note_off_c, 0, 65, 100
2, 75264, Note_on_c, 0, 81, 50
2, 75264, Note_on_c, 0, 60, 50
2, 75328, Note_off_c, 0, 81, 100
2, 75328, Note_off_c, 0, 60, 100
2, 75328, Note_on_c, 0, 79, 50
2, 75360, Note_on_c, 0, 64, 50
2, 75424, Note_off_c, 0, 79, 100
2, 75424, Note_off_c, 0, 64, 100
2, 75456, Note_on_c, 0, 77, 50
2, 75456, Note_on_c, 0, 67, 50
2, 75520, Note_off_c, 0, 77, 100
2, 75520, Note_off_c, 0, 67, 100
2, 75552, Note_on_c, 0, 76, 50
2, 75552, Note_on_c, 0, 64, 50
2, 75616, Note_off_c, 0, 76, 100
2, 75616, Note_off_c, 0, 64, 100
2, 75648, Note_on_c, 0, 76, 50
2, 75648, Note_on_c, 0, 60, 50
2, 75712, Note_off_c, 0, 60, 100
2, 75744, Note_on_c, 0, 64, 50
2, 75776, Note_off_c, 0, 76, 100
2, 75808, Note_off_c, 0, 64, 100
2, 75840, Note_on_c, 0, 79, 50
2, 75840, Note_on_c, 0, 67, 50
2, 75904, Note_off_c, 0, 67, 100
2, 75936, Note_on_c, 0, 64, 50
2, 75968, Note_off_c, 0, 79, 100
2, 76000, Note_off_c, 0, 64, 100
2, 76032, Note_on_c, 0, 79, 50
2, 76032, Note_on_c, 0, 59, 50
2, 76096, Note_off_c, 0, 79, 100
2, 76096, Note_off_c, 0, 59, 100
2, 76096, Note_on_c, 0, 77, 50
2, 76128, Note_on_c, 0, 62, 50
2, 76192, Note_off_c, 0, 77, 100
2, 76192, Note_off_c, 0, 62, 100
2, 76224, Note_on_c, 0, 76, 50
2, 76224, Note_on_c, 0, 67, 50
2, 76288, Note_off_c, 0, 76, 100
2, 76288, Note_off_c, 0, 67, 100
2, 76320, Note_on_c, 0, 74, 50
2, 76320, Note_on_c, 0, 62, 50
2, 76384, Note_off_c, 0, 74, 100
2, 76384, Note_off_c, 0, 62, 100
2, 76416, Note_on_c, 0, 74, 50
2, 76416, Note_on_c, 0, 59, 50
2, 76480, Note_off_c, 0, 59, 100
2, 76512, Note_on_c, 0, 62, 50
2, 76544, Note_off_c, 0, 74, 100
2, 76576, Note_off_c, 0, 62, 100
2, 76592, Note_on_c, 0, 67, 50
2, 76608, Note_on_c, 0, 77, 50
2, 76656, Note_off_c, 0, 67, 100
2, 76704, Note_on_c, 0, 62, 50
2, 76736, Note_off_c, 0, 77, 100
2, 76768, Note_off_c, 0, 62, 100
2, 76800, Note_on_c, 0, 77, 50
2, 76800, Note_on_c, 0, 60, 50
2, 76864, Note_off_c, 0, 77, 100
2, 76864, Note_on_c, 0, 76, 50
2, 76928, Note_off_c, 0, 60, 100
2, 76960, Note_off_c, 0, 76, 100
2, 76992, Note_on_c, 0, 74, 50
2, 76992, Note_on_c, 0, 64, 50
2, 76992, Note_on_c, 0, 67, 50
2, 77056, Note_off_c, 0, 74, 100
2, 77088, Note_on_c, 0, 72, 50
2, 77120, Note_off_c, 0, 64, 100
2, 77120, Note_off_c, 0, 67, 100
2, 77152, Note_off_c, 0, 72, 100
2, 77184, Note_on_c, 0, 71, 50
2, 77184, Note_on_c, 0, 65, 50
2, 77184, Note_on_c, 0, 62, 50
2, 77312, Note_off_c, 0, 71, 100
2, 77312, Note_off_c, 0, 65, 100
2, 77312, Note_off_c, 0, 62, 100
2, 77376, Note_on_c, 0, 72, 50
2, 77376, Note_on_c, 0, 64, 50
2, 77376, Note_on_c, 0, 60, 50
2, 77504, Note_off_c, 0, 72, 100
2, 77504, Note_off_c, 0, 64, 100
2, 77504, Note_off_c, 0, 60, 100
2, 77568, Note_on_c, 0, 76, 50
2, 77568, Note_on_c, 0, 60, 50
2, 77568, Note_on_c, 0, 55, 50
2, 77824, Note_off_c, 0, 76, 100
2, 77824, Note_off_c, 0, 60, 100
2, 77824, Note_off_c, 0, 55, 100
2, 77952, Note_on_c, 0, 74, 50
2, 77952, Note_on_c, 0, 59, 50
2, 77952, Note_on_c, 0, 55, 50
2, 78016, Note_off_c, 0, 74, 100
2, 78048, Note_on_c, 0, 78, 50
2, 78080, Note_off_c, 0, 59, 100
2, 78080, Note_off_c, 0, 55, 100
2, 78112, Note_off_c, 0, 78, 100
2, 78144, Note_on_c, 0, 79, 50
2, 78208, Note_off_c, 0, 79, 100
2, 78240, Note_on_c, 0, 77, 50
2, 78304, Note_off_c, 0, 77, 100
2, 78336, Note_on_c, 0, 77, 50
2, 78336, Note_on_c, 0, 60, 50
2, 78400, Note_off_c, 0, 77, 100
2, 78400, Note_off_c, 0, 60, 100
2, 78400, Note_on_c, 0, 76, 50
2, 78432, Note_on_c, 0, 64, 50
2, 78496, Note_off_c, 0, 76, 100
2, 78496, Note_off_c, 0, 64, 100
2, 78528, Note_on_c, 0, 74, 50
2, 78528, Note_on_c, 0, 67, 50
2, 78592, Note_off_c, 0, 74, 100
2, 78592, Note_off_c, 0, 67, 100
2, 78624, Note_on_c, 0, 72, 50
2, 78624, Note_on_c, 0, 64, 50
2, 78688, Note_off_c, 0, 72, 100
2, 78688, Note_off_c, 0, 64, 100
2, 78720, Note_on_c, 0, 71, 50
2, 78720, Note_on_c, 0, 60, 50
2, 78784, Note_off_c, 0, 71, 100
2, 78784, Note_off_c, 0, 60, 100
2, 78816, Note_on_c, 0, 72, 50
2, 78816, Note_on_c, 0, 64, 50
2, 78880, Note_off_c, 0, 72, 100
2, 78880, Note_off_c, 0, 64, 100
2, 78912, Note_on_c, 0, 74, 50
2, 78912, Note_on_c, 0, 67, 50
2, 78976, Note_off_c, 0, 74, 100
2, 78976, Note_off_c, 0, 67, 100
2, 79008, Note_on_c, 0, 72, 50
2, 79008, Note_on_c, 0, 64, 50
2, 79072, Note_off_c, 0, 72, 100
2, 79072, Note_off_c, 0, 64, 100
2, 79104, Note_on_c, 0, 72, 50
2, 79104, Note_on_c, 0, 60, 50
2, 79168, Note_off_c, 0, 60, 100
2, 79200, Note_on_c, 0, 64, 50
2, 79264, Note_off_c, 0, 64, 100
2, 79296, Note_on_c, 0, 67, 50
2, 79360, Note_off_c, 0, 72, 100
2, 79360, Note_off_c, 0, 67, 100
2, 79392, Note_on_c, 0, 64, 50
2, 79456, Note_off_c, 0, 64, 100
2, 79488, Note_on_c, 0, 72, 50
2, 79488, Note_on_c, 0, 60, 50
2, 79552, Note_off_c, 0, 72, 100
2, 79552, Note_off_c, 0, 60, 100
2, 79584, Note_on_c, 0, 79, 50
2, 79584, Note_on_c, 0, 64, 50
2, 79648, Note_off_c, 0, 79, 100
2, 79648, Note_off_c, 0, 64, 100
2, 79680, Note_on_c, 0, 76, 50
2, 79680, Note_on_c, 0, 67, 50
2, 79744, Note_off_c, 0, 76, 100
2, 79744, Note_off_c, 0, 67, 100
2, 79776, Note_on_c, 0, 84, 50
2, 79776, Note_on_c, 0, 64, 50
2, 79840, Note_off_c, 0, 84, 100
2, 79840, Note_off_c, 0, 64, 100
2, 79872, Note_on_c, 0, 83, 50
2, 79872, Note_on_c, 0, 60, 50
2, 79936, Note_off_c, 0, 83, 100
2, 79936, Note_off_c, 0, 60, 100
2, 79936, Note_on_c, 0, 81, 50
2, 79968, Note_on_c, 0, 65, 50
2, 80032, Note_off_c, 0, 81, 100
2, 80032, Note_off_c, 0, 65, 100
2, 80064, Note_on_c, 0, 79, 50
2, 80064, Note_on_c, 0, 69, 50
2, 80128, Note_off_c, 0, 79, 100
2, 80128, Note_off_c, 0, 69, 100
2, 80160, Note_on_c, 0, 77, 50
2, 80160, Note_on_c, 0, 65, 50
2, 80224, Note_off_c, 0, 77, 100
2, 80224, Note_off_c, 0, 65, 100
2, 80256, Note_on_c, 0, 76, 50
2, 80256, Note_on_c, 0, 60, 50
2, 80320, Note_off_c, 0, 76, 100
2, 80320, Note_off_c, 0, 60, 100
2, 80352, Note_on_c, 0, 77, 50
2, 80352, Note_on_c, 0, 65, 50
2, 80416, Note_off_c, 0, 77, 100
2, 80416, Note_off_c, 0, 65, 100
2, 80448, Note_on_c, 0, 79, 50
2, 80448, Note_on_c, 0, 69, 50
2, 80512, Note_off_c, 0, 79, 100
2, 80512, Note_off_c, 0, 69, 100
2, 80544, Note_on_c, 0, 77, 50
2, 80544, Note_on_c, 0, 65, 50
2, 80608, Note_off_c, 0, 77, 100
2, 80608, Note_off_c, 0, 65, 100
2, 80640, Note_on_c, 0, 77, 50
2, 80640, Note_on_c, 0, 60, 50
2, 80704, Note_off_c, 0, 60, 100
2, 80736, Note_on_c, 0, 65, 50
2, 80800, Note_off_c, 0, 65, 100
2, 80832, Note_on_c, 0, 69, 50
2, 80896, Note_off_c, 0, 77, 100
2, 80896, Note_off_c, 0, 69, 100
2, 80928, Note_on_c, 0, 65, 50
2, 80992, Note_off_c, 0, 65, 100
2, 81024, Note_on_c, 0, 77, 50
2, 81024, Note_on_c, 0, 60, 50
2, 81088, Note_off_c, 0, 77, 100
2, 81088, Note_off_c, 0, 60, 100
2, 81120, Note_on_c, 0, 81, 50
2, 81120, Note_on_c, 0, 65, 50
2, 81184, Note_off_c, 0, 81, 100
2, 81184, Note_off_c, 0, 65, 100
2, 81216, Note_on_c, 0, 84, 50
2, 81216, Note_on_c, 0, 69, 50
2, 81280, Note_off_c, 0, 84, 100
2, 81280, Note_off_c, 0, 69, 100
2, 81312, Note_on_c, 0, 81, 50
2, 81312, Note_on_c, 0, 65, 50
2, 81376, Note_off_c, 0, 81, 100
2, 81376, Note_off_c, 0, 65, 100
2, 81408, Note_on_c, 0, 81, 50
2, 81408, Note_on_c, 0, 60, 50
2, 81472, Note_off_c, 0, 81, 100
2, 81472, Note_off_c, 0, 60, 100
2, 81472, Note_on_c, 0, 79, 50
2, 81504, Note_on_c, 0, 64, 50
2, 81568, Note_off_c, 0, 79, 100
2, 81568, Note_off_c, 0, 64, 100
2, 81600, Note_on_c, 0, 77, 50
2, 81600, Note_on_c, 0, 67, 50
2, 81664, Note_off_c, 0, 77, 100
2, 81664, Note_off_c, 0, 67, 100
2, 81696, Note_on_c, 0, 76, 50
2, 81696, Note_on_c, 0, 64, 50
2, 81760, Note_off_c, 0, 76, 100
2, 81760, Note_off_c, 0, 64, 100
2, 81792, Note_on_c, 0, 76, 50
2, 81792, Note_on_c, 0, 61, 50
2, 81856, Note_off_c, 0, 76, 100
2, 81856, Note_off_c, 0, 61, 100
2, 81888, Note_on_c, 0, 64, 50
2, 81904, Note_on_c, 0, 82, 50
2, 81952, Note_off_c, 0, 64, 100
2, 81968, Note_off_c, 0, 82, 100
2, 81984, Note_on_c, 0, 81, 50
2, 81984, Note_on_c, 0, 69, 50
2, 82048, Note_off_c, 0, 81, 100
2, 82048, Note_off_c, 0, 69, 100
2, 82080, Note_on_c, 0, 79, 50
2, 82080, Note_on_c, 0, 64, 50
2, 82144, Note_off_c, 0, 79, 100
2, 82144, Note_off_c, 0, 64, 100
2, 82176, Note_on_c, 0, 79, 50
2, 82176, Note_on_c, 0, 62, 50
2, 82240, Note_off_c, 0, 79, 100
2, 82240, Note_off_c, 0, 62, 100
2, 82240, Note_on_c, 0, 77, 50
2, 82272, Note_on_c, 0, 65, 50
2, 82336, Note_off_c, 0, 77, 100
2, 82336, Note_off_c, 0, 65, 100
2, 82368, Note_on_c, 0, 76, 50
2, 82368, Note_on_c, 0, 69, 50
2, 82432, Note_off_c, 0, 76, 100
2, 82432, Note_off_c, 0, 69, 100
2, 82464, Note_on_c, 0, 74, 50
2, 82464, Note_on_c, 0, 65, 50
2, 82528, Note_off_c, 0, 74, 100
2, 82528, Note_off_c, 0, 65, 100
2, 82560, Note_on_c, 0, 74, 50
2, 82560, Note_on_c, 0, 59, 50
2, 82624, Note_off_c, 0, 74, 100
2, 82624, Note_off_c, 0, 59, 100
2, 82656, Note_on_c, 0, 81, 50
2, 82656, Note_on_c, 0, 62, 50
2, 82720, Note_off_c, 0, 81, 100
2, 82720, Note_off_c, 0, 62, 100
2, 82752, Note_on_c, 0, 79, 50
2, 82752, Note_on_c, 0, 67, 50
2, 82816, Note_off_c, 0, 79, 100
2, 82816, Note_off_c, 0, 67, 100
2, 82848, Note_on_c, 0, 77, 50
2, 82848, Note_on_c, 0, 62, 50
2, 82912, Note_off_c, 0, 77, 100
2, 82912, Note_off_c, 0, 62, 100
2, 82944, Note_on_c, 0, 77, 50
2, 82944, Note_on_c, 0, 60, 50
2, 82944, Note_on_c, 0, 71, 50
2, 83008, Note_off_c, 0, 77, 100
2, 83008, Note_on_c, 0, 76, 50
2, 83072, Note_off_c, 0, 60, 100
2, 83072, Note_off_c, 0, 71, 100
2, 83136, Note_off_c, 0, 76, 100
2, 83136, Note_on_c, 0, 77, 50
2, 83200, Note_off_c, 0, 77, 100
2, 83232, Note_on_c, 0, 74, 50
2, 83296, Note_off_c, 0, 74, 100
2, 83328, Note_on_c, 0, 72, 50
2, 83456, Note_off_c, 0, 72, 100
2, 83520, Note_on_c, 0, 71, 50
2, 83540, Note_off_c, 0, 71, 0
2, 83544, Note_on_c, 0, 72, 50
2, 83564, Note_off_c, 0, 72, 0
2, 83568, Note_on_c, 0, 71, 50
2, 83588, Note_off_c, 0, 71, 0
2, 83592, Note_on_c, 0, 72, 50
2, 83612, Note_off_c, 0, 72, 0
2, 83616, Note_on_c, 0, 71, 50
2, 83636, Note_off_c, 0, 71, 0
2, 83640, Note_on_c, 0, 72, 50
2, 83660, Note_off_c, 0, 72, 0
2, 83664, Note_on_c, 0, 69, 50
2, 83684, Note_off_c, 0, 69, 0
2, 83688, Note_on_c, 0, 71, 50
2, 83708, Note_off_c, 0, 71, 0
2, 83712, Note_on_c, 0, 79, 75
2, 83776, Note_off_c, 0, 79, 100
2, 83808, Note_on_c, 0, 76, 75
2, 83872, Note_off_c, 0, 76, 100
2, 83904, Note_on_c, 0, 88, 75
2, 83968, Note_off_c, 0, 88, 100
2, 84000, Note_on_c, 0, 88, 75
2, 84064, Note_off_c, 0, 88, 100
2, 84096, Note_on_c, 0, 88, 75
2, 84160, Note_off_c, 0, 88, 100
2, 84192, Note_on_c, 0, 79, 75
2, 84256, Note_off_c, 0, 79, 100
2, 84288, Note_on_c, 0, 81, 75
2, 84352, Note_off_c, 0, 81, 100
2, 84384, Note_on_c, 0, 76, 75
2, 84448, Note_off_c, 0, 76, 100
2, 84480, Note_on_c, 0, 77, 75
2, 84544, Note_off_c, 0, 77, 100
2, 84576, Note_on_c, 0, 74, 75
2, 84640, Note_off_c, 0, 74, 100
2, 84672, Note_on_c, 0, 86, 75
2, 84736, Note_off_c, 0, 86, 100
2, 84768, Note_on_c, 0, 86, 75
2, 84832, Note_off_c, 0, 86, 100
2, 84864, Note_on_c, 0, 86, 75
2, 84928, Note_off_c, 0, 86, 100
2, 84960, Note_on_c, 0, 77, 75
2, 85024, Note_off_c, 0, 77, 100
2, 85056, Note_on_c, 0, 79, 75
2, 85120, Note_off_c, 0, 79, 100
2, 85152, Note_on_c, 0, 74, 75
2, 85216, Note_off_c, 0, 74, 100
2, 85248, Note_on_c, 0, 76, 75
2, 85312, Note_off_c, 0, 76, 100
2, 85344, Note_on_c, 0, 84, 75
2, 85408, Note_off_c, 0, 84, 100
2, 85440, Note_on_c, 0, 80, 75
2, 85504, Note_off_c, 0, 80, 100
2, 85536, Note_on_c, 0, 81, 75
2, 85600, Note_off_c, 0, 81, 100
2, 85632, Note_on_c, 0, 78, 75
2, 85696, Note_off_c, 0, 78, 100
2, 85728, Note_on_c, 0, 79, 75
2, 85792, Note_off_c, 0, 79, 100
2, 85824, Note_on_c, 0, 77, 75
2, 85888, Note_off_c, 0, 77, 100
2, 85936, Note_on_c, 0, 74, 75
2, 86000, Note_off_c, 0, 74, 100
2, 86016, Note_on_c, 0, 72, 75
2, 86048, Note_off_c, 0, 72, 100
2, 86064, Note_on_c, 0, 84, 75
2, 86096, Note_off_c, 0, 84, 100
2, 86112, Note_on_c, 0, 72, 75
2, 86144, Note_off_c, 0, 72, 100
2, 86160, Note_on_c, 0, 84, 75
2, 86192, Note_off_c, 0, 84, 100
2, 86208, Note_on_c, 0, 72, 75
2, 86240, Note_off_c, 0, 72, 100
2, 86256, Note_on_c, 0, 84, 75
2, 86288, Note_off_c, 0, 84, 100
2, 86304, Note_on_c, 0, 72, 75
2, 86336, Note_off_c, 0, 72, 100
2, 86352, Note_on_c, 0, 84, 75
2, 86384, Note_off_c, 0, 84, 100
2, 86400, Note_on_c, 0, 72, 75
2, 86400, Note_on_c, 0, 64, 75
2, 86400, Note_on_c, 0, 67, 75
2, 86432, Note_off_c, 0, 72, 100
2, 86448, Note_on_c, 0, 84, 75
2, 86480, Note_off_c, 0, 84, 100
2, 86496, Note_on_c, 0, 72, 75
2, 86528, Note_off_c, 0, 64, 100
2, 86528, Note_off_c, 0, 67, 100
2, 86528, Note_off_c, 0, 72, 100
2, 86544, Note_on_c, 0, 84, 75
2, 86576, Note_off_c, 0, 84, 100
2, 86592, Note_on_c, 0, 72, 75
2, 86592, Note_on_c, 0, 69, 75
2, 86592, Note_on_c, 0, 65, 75
2, 86624, Note_off_c, 0, 72, 100
2, 86640, Note_on_c, 0, 84, 75
2, 86672, Note_off_c, 0, 84, 100
2, 86688, Note_on_c, 0, 72, 75
2, 86720, Note_off_c, 0, 69, 100
2, 86720, Note_off_c, 0, 65, 100
2, 86720, Note_off_c, 0, 72, 100
2, 86736, Note_on_c, 0, 84, 75
2, 86768, Note_off_c, 0, 84, 100
2, 86784, Note_on_c, 0, 72, 75
2, 86784, Note_on_c, 0, 70, 75
2, 86784, Note_on_c, 0, 67, 75
2, 86816, Note_off_c, 0, 72, 100
2, 86832, Note_on_c, 0, 84, 75
2, 86864, Note_off_c, 0, 84, 100
2, 86880, Note_on_c, 0, 72, 75
2, 86912, Note_off_c, 0, 70, 100
2, 86912, Note_off_c, 0, 67, 100
2, 86912, Note_off_c, 0, 72, 100
2, 86928, Note_on_c, 0, 84, 75
2, 86960, Note_off_c, 0, 84, 100
2, 86976, Note_on_c, 0, 72, 75
2, 87008, Note_off_c, 0, 72, 100
2, 87024, Note_on_c, 0, 84, 75
2, 87056, Note_off_c, 0, 84, 100
2, 87072, Note_on_c, 0, 72, 75
2, 87104, Note_off_c, 0, 72, 100
2, 87120, Note_on_c, 0, 84, 75
2, 87152, Note_off_c, 0, 84, 100
2, 87168, Note_on_c, 0, 72, 75
2, 87200, Note_off_c, 0, 72, 100
2, 87216, Note_on_c, 0, 84, 75
2, 87248, Note_off_c, 0, 84, 100
2, 87264, Note_on_c, 0, 72, 75
2, 87296, Note_off_c, 0, 72, 100
2, 87312, Note_on_c, 0, 84, 75
2, 87344, Note_off_c, 0, 84, 100
2, 87360, Note_on_c, 0, 72, 75
2, 87392, Note_off_c, 0, 72, 100
2, 87408, Note_on_c, 0, 84, 75
2, 87440, Note_off_c, 0, 84, 100
2, 87456, Note_on_c, 0, 72, 75
2, 87488, Note_off_c, 0, 72, 100
2, 87504, Note_on_c, 0, 84, 75
2, 87536, Note_off_c, 0, 84, 100
2, 87552, Note_on_c, 0, 72, 75
2, 87584, Note_off_c, 0, 72, 100
2, 87600, Note_on_c, 0, 84, 75
2, 87632, Note_off_c, 0, 84, 100
2, 87648, Note_on_c, 0, 72, 75
2, 87680, Note_off_c, 0, 72, 100
2, 87696, Note_on_c, 0, 84, 75
2, 87728, Note_off_c, 0, 84, 100
2, 87744, Note_on_c, 0, 72, 75
2, 87776, Note_off_c, 0, 72, 100
2, 87792, Note_on_c, 0, 84, 75
2, 87824, Note_off_c, 0, 84, 100
2, 87840, Note_on_c, 0, 72, 75
2, 87872, Note_off_c, 0, 72, 100
2, 87888, Note_on_c, 0, 84, 75
2, 87920, Note_off_c, 0, 84, 100
2, 87936, Note_on_c, 0, 72, 75
2, 87936, Note_on_c, 0, 67, 75
2, 87936, Note_on_c, 0, 64, 75
2, 87968, Note_off_c, 0, 72, 100
2, 87984, Note_on_c, 0, 84, 75
2, 88000, Note_off_c, 0, 67, 100
2, 88000, Note_off_c, 0, 64, 100
2, 88016, Note_off_c, 0, 84, 100
2, 88032, Note_on_c, 0, 72, 75
2, 88032, Note_on_c, 0, 67, 75
2, 88032, Note_on_c, 0, 64, 75
2, 88064, Note_off_c, 0, 72, 100
2, 88080, Note_on_c, 0, 84, 75
2, 88096, Note_off_c, 0, 67, 100
2, 88096, Note_off_c, 0, 64, 100
2, 88112, Note_off_c, 0, 84, 100
2, 88128, Note_on_c, 0, 72, 75
2, 88128, Note_on_c, 0, 69, 75
2, 88128, Note_on_c, 0, 65, 75
2, 88160, Note_off_c, 0, 72, 100
2, 88176, Note_on_c, 0, 84, 75
2, 88192, Note_off_c, 0, 69, 100
2, 88192, Note_off_c, 0, 65, 100
2, 88208, Note_off_c, 0, 84, 100
2, 88224, Note_on_c, 0, 72, 75
2, 88224, Note_on_c, 0, 69, 75
2, 88224, Note_on_c, 0, 65, 75
2, 88256, Note_off_c, 0, 72, 100
2, 88272, Note_on_c, 0, 84, 75
2, 88288, Note_off_c, 0, 69, 100
2, 88288, Note_off_c, 0, 65, 100
2, 88304, Note_off_c, 0, 84, 100
2, 88320, Note_on_c, 0, 72, 75
2, 88320, Note_on_c, 0, 70, 75
2, 88320, Note_on_c, 0, 67, 75
2, 88352, Note_off_c, 0, 72, 100
2, 88368, Note_on_c, 0, 84, 75
2, 88400, Note_off_c, 0, 84, 100
2, 88416, Note_on_c, 0, 72, 75
2, 88448, Note_off_c, 0, 70, 100
2, 88448, Note_off_c, 0, 67, 100
2, 88448, Note_off_c, 0, 72, 100
2, 88464, Note_on_c, 0, 84, 75
2, 88496, Note_off_c, 0, 84, 100
2, 88512, Note_on_c, 0, 72, 75
2, 88544, Note_off_c, 0, 72, 100
2, 88560, Note_on_c, 0, 84, 75
2, 88592, Note_off_c, 0, 84, 100
2, 88608, Note_on_c, 0, 72, 75
2, 88640, Note_off_c, 0, 72, 100
2, 88656, Note_on_c, 0, 84, 75
2, 88688, Note_off_c, 0, 84, 100
2, 88704, Note_on_c, 0, 72, 75
2, 88736, Note_off_c, 0, 72, 100
2, 88752, Note_on_c, 0, 84, 75
2, 88784, Note_off_c, 0, 84, 100
2, 88800, Note_on_c, 0, 72, 75
2, 88832, Note_off_c, 0, 72, 100
2, 88848, Note_on_c, 0, 84, 75
2, 88880, Note_off_c, 0, 84, 100
2, 88896, Note_on_c, 0, 72, 75
2, 88928, Note_off_c, 0, 72, 100
2, 88944, Note_on_c, 0, 84, 75
2, 88976, Note_off_c, 0, 84, 100
2, 88992, Note_on_c, 0, 72, 75
2, 89024, Note_off_c, 0, 72, 100
2, 89040, Note_on_c, 0, 84, 75
2, 89072, Note_off_c, 0, 84, 100
2, 89088, Note_on_c, 0, 72, 75
2, 89152, Note_off_c, 0, 72, 100
2, 89184, Note_on_c, 0, 83, 71
2, 89248, Note_off_c, 0, 83, 100
2, 89280, Note_on_c, 0, 84, 67
2, 89344, Note_off_c, 0, 84, 100
2, 89376, Note_on_c, 0, 83, 62
2, 89440, Note_off_c, 0, 83, 100
2, 89472, Note_on_c, 0, 82, 60
2, 89536, Note_off_c, 0, 82, 100
2, 89568, Note_on_c, 0, 81, 57
2, 89632, Note_off_c, 0, 81, 100
2, 89664, Note_on_c, 0, 82, 55
2, 89728, Note_off_c, 0, 82, 100
2, 89760, Note_on_c, 0, 79, 52
2, 89824, Note_off_c, 0, 79, 100
2, 89856, Note_on_c, 0, 77, 50
2, 89856, Note_on_c, 0, 65, 50
2, 89920, Note_off_c, 0, 77, 100
2, 89920, Note_off_c, 0, 65, 100
2, 89952, Note_on_c, 0, 77, 50
2, 89952, Note_on_c, 0, 72, 50
2, 89984, Note_off_c, 0, 77, 100
2, 89984, Note_on_c, 0, 76, 50
2, 90016, Note_off_c, 0, 72, 100
2, 90016, Note_off_c, 0, 76, 100
2, 90048, Note_on_c, 0, 77, 50
2, 90048, Note_on_c, 0, 69, 50
2, 90112, Note_off_c, 0, 77, 100
2, 90112, Note_off_c, 0, 69, 100
2, 90144, Note_on_c, 0, 79, 50
2, 90144, Note_on_c, 0, 72, 50
2, 90208, Note_off_c, 0, 79, 100
2, 90208, Note_off_c, 0, 72, 100
2, 90240, Note_on_c, 0, 81, 50
2, 90240, Note_on_c, 0, 64, 50
2, 90304, Note_off_c, 0, 81, 100
2, 90304, Note_off_c, 0, 64, 100
2, 90336, Note_on_c, 0, 81, 50
2, 90336, Note_on_c, 0, 72, 50
2, 90368, Note_off_c, 0, 81, 100
2, 90368, Note_on_c, 0, 79, 50
2, 90400, Note_off_c, 0, 72, 100
2, 90400, Note_off_c, 0, 79, 100
2, 90432, Note_on_c, 0, 81, 50
2, 90432, Note_on_c, 0, 69, 50
2, 90496, Note_off_c, 0, 81, 100
2, 90496, Note_off_c, 0, 69, 100
2, 90528, Note_on_c, 0, 82, 50
2, 90528, Note_on_c, 0, 72, 50
2, 90592, Note_off_c, 0, 82, 100
2, 90592, Note_off_c, 0, 72, 100
2, 90624, Note_on_c, 0, 84, 50
2, 90624, Note_on_c, 0, 64, 50
2, 90688, Note_off_c, 0, 64, 100
2, 90720, Note_on_c, 0, 72, 50
2, 90784, Note_off_c, 0, 72, 100
2, 90816, Note_off_c, 0, 84, 100
2, 90816, Note_on_c, 0, 67, 50
2, 90880, Note_off_c, 0, 67, 100
2, 90912, Note_on_c, 0, 86, 50
2, 90912, Note_on_c, 0, 72, 50
2, 90976, Note_off_c, 0, 86, 100
2, 90976, Note_off_c, 0, 72, 100
2, 91008, Note_on_c, 0, 82, 50
2, 91008, Note_on_c, 0, 64, 50
2, 91072, Note_off_c, 0, 64, 100
2, 91104, Note_on_c, 0, 72, 50
2, 91136, Note_off_c, 0, 82, 100
2, 91168, Note_off_c, 0, 72, 100
2, 91200, Note_on_c, 0, 79, 50
2, 91200, Note_on_c, 0, 67, 50
2, 91264, Note_off_c, 0, 67, 100
2, 91296, Note_on_c, 0, 72, 50
2, 91328, Note_off_c, 0, 79, 100
2, 91360, Note_off_c, 0, 72, 100
2, 91392, Note_on_c, 0, 77, 50
2, 91392, Note_on_c, 0, 65, 50
2, 91456, Note_off_c, 0, 77, 100
2, 91456, Note_off_c, 0, 65, 100
2, 91488, Note_on_c, 0, 77, 50
2, 91488, Note_on_c, 0, 72, 50
2, 91520, Note_off_c, 0, 77, 100
2, 91536, Note_on_c, 0, 76, 50
2, 91552, Note_off_c, 0, 72, 100
2, 91568, Note_off_c, 0, 76, 100
2, 91584, Note_on_c, 0, 77, 50
2, 91584, Note_on_c, 0, 69, 50
2, 91648, Note_off_c, 0, 77, 100
2, 91648, Note_off_c, 0, 69, 100
2, 91680, Note_on_c, 0, 79, 50
2, 91680, Note_on_c, 0, 72, 50
2, 91744, Note_off_c, 0, 79, 100
2, 91744, Note_off_c, 0, 72, 100
2, 91776, Note_on_c, 0, 81, 50
2, 91776, Note_on_c, 0, 65, 50
2, 91840, Note_off_c, 0, 81, 100
2, 91840, Note_off_c, 0, 65, 100
2, 91872, Note_on_c, 0, 81, 50
2, 91872, Note_on_c, 0, 72, 50
2, 91904, Note_off_c, 0, 81, 100
2, 91920, Note_on_c, 0, 79, 50
2, 91936, Note_off_c, 0, 72, 100
2, 91952, Note_off_c, 0, 79, 100
2, 91968, Note_on_c, 0, 81, 50
2, 91968, Note_on_c, 0, 69, 50
2, 92032, Note_off_c, 0, 81, 100
2, 92032, Note_off_c, 0, 69, 100
2, 92064, Note_on_c, 0, 82, 50
2, 92064, Note_on_c, 0, 72, 50
2, 92128, Note_off_c, 0, 82, 100
2, 92128, Note_off_c, 0, 72, 100
2, 92160, Note_on_c, 0, 81, 50
2, 92160, Note_on_c, 0, 60, 50
2, 92224, Note_off_c, 0, 60, 100
2, 92256, Note_on_c, 0, 72, 50
2, 92288, Note_off_c, 0, 81, 100
2, 92320, Note_off_c, 0, 72, 100
2, 92352, Note_on_c, 0, 79, 50
2, 92352, Note_on_c, 0, 71, 50
2, 92416, Note_off_c, 0, 71, 100
2, 92448, Note_on_c, 0, 72, 50
2, 92480, Note_off_c, 0, 79, 100
2, 92512, Note_off_c, 0, 72, 100
2, 92544, Note_on_c, 0, 77, 50
2, 92544, Note_on_c, 0, 60, 50
2, 92608, Note_off_c, 0, 77, 100
2, 92608, Note_off_c, 0, 60, 100
2, 92640, Note_on_c, 0, 76, 50
2, 92640, Note_on_c, 0, 70, 50
2, 92704, Note_off_c, 0, 76, 100
2, 92704, Note_off_c, 0, 70, 100
2, 92736, Note_on_c, 0, 74, 50
2, 92736, Note_on_c, 0, 67, 50
2, 92800, Note_off_c, 0, 74, 100
2, 92800, Note_off_c, 0, 67, 100
2, 92832, Note_on_c, 0, 72, 50
2, 92832, Note_on_c, 0, 70, 50
2, 92896, Note_off_c, 0, 72, 100
2, 92896, Note_off_c, 0, 70, 100
2, 92928, Note_on_c, 0, 77, 50
2, 92928, Note_on_c, 0, 65, 50
2, 92992, Note_off_c, 0, 77, 100
2, 92992, Note_off_c, 0, 65, 100
2, 93024, Note_on_c, 0, 77, 50
2, 93024, Note_on_c, 0, 72, 50
2, 93056, Note_off_c, 0, 77, 100
2, 93072, Note_on_c, 0, 76, 50
2, 93088, Note_off_c, 0, 72, 100
2, 93104, Note_off_c, 0, 76, 100
2, 93120, Note_on_c, 0, 77, 50
2, 93120, Note_on_c, 0, 69, 50
2, 93184, Note_off_c, 0, 77, 100
2, 93184, Note_off_c, 0, 69, 100
2, 93216, Note_on_c, 0, 79, 50
2, 93216, Note_on_c, 0, 72, 50
2, 93280, Note_off_c, 0, 79, 100
2, 93280, Note_off_c, 0, 72, 100
2, 93312, Note_on_c, 0, 81, 50
2, 93312, Note_on_c, 0, 65, 50
2, 93376, Note_off_c, 0, 81, 100
2, 93376, Note_off_c, 0, 65, 100
2, 93408, Note_on_c, 0, 81, 50
2, 93408, Note_on_c, 0, 72, 50
2, 93440, Note_off_c, 0, 81, 100
2, 93456, Note_on_c, 0, 79, 50
2, 93472, Note_off_c, 0, 72, 100
2, 93488, Note_off_c, 0, 79, 100
2, 93504, Note_on_c, 0, 81, 50
2, 93504, Note_on_c, 0, 69, 50
2, 93568, Note_off_c, 0, 81, 100
2, 93568, Note_off_c, 0, 69, 100
2, 93600, Note_on_c, 0, 82, 50
2, 93600, Note_on_c, 0, 72, 50
2, 93664, Note_off_c, 0, 82, 100
2, 93664, Note_off_c, 0, 72, 100
2, 93696, Note_on_c, 0, 84, 50
2, 93696, Note_on_c, 0, 64, 50
2, 93760, Note_off_c, 0, 64, 100
2, 93792, Note_on_c, 0, 72, 50
2, 93856, Note_off_c, 0, 72, 100
2, 93872, Note_on_c, 0, 67, 50
2, 93888, Note_off_c, 0, 84, 100
2, 93936, Note_off_c, 0, 67, 100
2, 93984, Note_on_c, 0, 86, 50
2, 93984, Note_on_c, 0, 72, 50
2, 94048, Note_off_c, 0, 86, 100
2, 94048, Note_off_c, 0, 72, 100
2, 94080, Note_on_c, 0, 82, 50
2, 94080, Note_on_c, 0, 64, 50
2, 94144, Note_off_c, 0, 64, 100
2, 94176, Note_on_c, 0, 72, 50
2, 94208, Note_off_c, 0, 82, 100
2, 94240, Note_off_c, 0, 72, 100
2, 94256, Note_on_c, 0, 70, 50
2, 94272, Note_on_c, 0, 79, 50
2, 94320, Note_off_c, 0, 70, 100
2, 94368, Note_on_c, 0, 72, 50
2, 94400, Note_off_c, 0, 79, 100
2, 94432, Note_off_c, 0, 72, 100
2, 94464, Note_on_c, 0, 81, 50
2, 94464, Note_on_c, 0, 65, 50
2, 94528, Note_off_c, 0, 65, 100
2, 94560, Note_on_c, 0, 72, 50
2, 94624, Note_off_c, 0, 72, 100
2, 94656, Note_off_c, 0, 81, 100
2, 94656, Note_on_c, 0, 69, 50
2, 94720, Note_off_c, 0, 69, 100
2, 94752, Note_on_c, 0, 82, 50
2, 94752, Note_on_c, 0, 72, 50
2, 94816, Note_off_c, 0, 82, 100
2, 94816, Note_off_c, 0, 72, 100
2, 94848, Note_on_c, 0, 79, 50
2, 94848, Note_on_c, 0, 60, 50
2, 94912, Note_off_c, 0, 60, 100
2, 94944, Note_on_c, 0, 71, 50
2, 94976, Note_off_c, 0, 79, 100
2, 95008, Note_off_c, 0, 71, 100
2, 95040, Note_on_c, 0, 76, 50
2, 95040, Note_on_c, 0, 69, 50
2, 95104, Note_off_c, 0, 69, 100
2, 95136, Note_on_c, 0, 71, 50
2, 95168, Note_off_c, 0, 76, 100
2, 95200, Note_off_c, 0, 71, 100
2, 95232, Note_on_c, 0, 77, 50
2, 95232, Note_on_c, 0, 69, 50
2, 95232, Note_on_c, 0, 65, 50
2, 95296, Note_off_c, 0, 77, 100
2, 95328, Note_on_c, 0, 72, 50
2, 95360, Note_off_c, 0, 69, 100
2, 95360, Note_off_c, 0, 65, 100
2, 95392, Note_off_c, 0, 72, 100
2, 95424, Note_on_c, 0, 74, 50
2, 95488, Note_off_c, 0, 74, 100
2, 95520, Note_on_c, 0, 69, 50
2, 95584, Note_off_c, 0, 69, 100
2, 95616, Note_on_c, 0, 70, 50
2, 95680, Note_off_c, 0, 70, 100
2, 95712, Note_on_c, 0, 67, 50
2, 95776, Note_off_c, 0, 67, 100
2, 95808, Note_on_c, 0, 72, 50
2, 95872, Note_off_c, 0, 72, 100
2, 95904, Note_on_c, 0, 64, 50
2, 95968, Note_off_c, 0, 64, 100
2, 96000, Note_on_c, 0, 65, 75
2, 96064, Note_off_c, 0, 65, 100
2, 96096, Note_on_c, 0, 65, 75
2, 96128, Note_off_c, 0, 65, 100
2, 96144, Note_on_c, 0, 64, 75
2, 96176, Note_off_c, 0, 64, 100
2, 96192, Note_on_c, 0, 65, 75
2, 96256, Note_off_c, 0, 65, 100
2, 96288, Note_on_c, 0, 67, 75
2, 96352, Note_off_c, 0, 67, 100
2, 96384, Note_on_c, 0, 69, 75
2, 96448, Note_off_c, 0, 69, 100
2, 96480, Note_on_c, 0, 69, 75
2, 96512, Note_off_c, 0, 69, 100
2, 96528, Note_on_c, 0, 67, 75
2, 96560, Note_off_c, 0, 67, 100
2, 96576, Note_on_c, 0, 69, 75
2, 96640, Note_off_c, 0, 69, 100
2, 96672, Note_on_c, 0, 70, 75
2, 96736, Note_off_c, 0, 70, 100
2, 96768, Note_on_c, 0, 72, 75
2, 96960, Note_off_c, 0, 72, 100
2, 97056, Note_on_c, 0, 74, 75
2, 97120, Note_off_c, 0, 74, 100
2, 97152, Note_on_c, 0, 70, 75
2, 97280, Note_off_c, 0, 70, 100
2, 97344, Note_on_c, 0, 67, 75
2, 97472, Note_off_c, 0, 67, 100
2, 97536, Note_on_c, 0, 65, 75
2, 97600, Note_off_c, 0, 65, 100
2, 97632, Note_on_c, 0, 65, 75
2, 97664, Note_off_c, 0, 65, 100
2, 97680, Note_on_c, 0, 64, 75
2, 97712, Note_off_c, 0, 64, 100
2, 97728, Note_on_c, 0, 65, 75
2, 97792, Note_off_c, 0, 65, 100
2, 97824, Note_on_c, 0, 67, 75
2, 97888, Note_off_c, 0, 67, 100
2, 97920, Note_on_c, 0, 69, 75
2, 97984, Note_off_c, 0, 69, 100
2, 98016, Note_on_c, 0, 69, 75
2, 98048, Note_off_c, 0, 69, 100
2, 98064, Note_on_c, 0, 67, 75
2, 98096, Note_off_c, 0, 67, 100
2, 98112, Note_on_c, 0, 69, 75
2, 98176, Note_off_c, 0, 69, 100
2, 98208, Note_on_c, 0, 70, 75
2, 98272, Note_off_c, 0, 70, 100
2, 98304, Note_on_c, 0, 69, 75
2, 98432, Note_off_c, 0, 69, 100
2, 98496, Note_on_c, 0, 67, 75
2, 98624, Note_off_c, 0, 67, 100
2, 98688, Note_on_c, 0, 65, 75
2, 98752, Note_off_c, 0, 65, 100
2, 98784, Note_on_c, 0, 64, 75
2, 98848, Note_off_c, 0, 64, 100
2, 98880, Note_on_c, 0, 62, 75
2, 98944, Note_off_c, 0, 62, 100
2, 98976, Note_on_c, 0, 60, 75
2, 99040, Note_off_c, 0, 60, 100
2, 99072, Note_on_c, 0, 65, 75
2, 99136, Note_off_c, 0, 65, 100
2, 99168, Note_on_c, 0, 65, 75
2, 99200, Note_off_c, 0, 65, 100
2, 99216, Note_on_c, 0, 64, 75
2, 99248, Note_off_c, 0, 64, 100
2, 99264, Note_on_c, 0, 65, 75
2, 99328, Note_off_c, 0, 65, 100
2, 99360, Note_on_c, 0, 67, 75
2, 99424, Note_off_c, 0, 67, 100
2, 99456, Note_on_c, 0, 69, 75
2, 99520, Note_off_c, 0, 69, 100
2, 99552, Note_on_c, 0, 69, 75
2, 99584, Note_off_c, 0, 69, 100
2, 99600, Note_on_c, 0, 67, 75
2, 99632, Note_off_c, 0, 67, 100
2, 99648, Note_on_c, 0, 69, 75
2, 99712, Note_off_c, 0, 69, 100
2, 99744, Note_on_c, 0, 70, 75
2, 99808, Note_off_c, 0, 70, 100
2, 99840, Note_on_c, 0, 72, 75
2, 99904, Note_off_c, 0, 72, 100
2, 99936, Note_on_c, 0, 72, 75
2, 99968, Note_off_c, 0, 72, 100
2, 99984, Note_on_c, 0, 70, 75
2, 100016, Note_off_c, 0, 70, 100
2, 100032, Note_on_c, 0, 72, 75
2, 100096, Note_off_c, 0, 72, 100
2, 100128, Note_on_c, 0, 74, 75
2, 100192, Note_off_c, 0, 74, 100
2, 100224, Note_on_c, 0, 76, 75
2, 100288, Note_off_c, 0, 76, 100
2, 100320, Note_on_c, 0, 76, 75
2, 100352, Note_off_c, 0, 76, 100
2, 100368, Note_on_c, 0, 74, 75
2, 100400, Note_off_c, 0, 74, 100
2, 100416, Note_on_c, 0, 76, 75
2, 100480, Note_off_c, 0, 76, 100
2, 100512, Note_on_c, 0, 77, 75
2, 100576, Note_off_c, 0, 77, 100
2, 100608, Note_on_c, 0, 77, 75
2, 100672, Note_off_c, 0, 77, 100
2, 100704, Note_on_c, 0, 74, 75
2, 100768, Note_off_c, 0, 74, 100
2, 100800, Note_on_c, 0, 77, 75
2, 100800, Note_on_c, 0, 74, 75
2, 100864, Note_off_c, 0, 77, 100
2, 100864, Note_off_c, 0, 74, 100
2, 100896, Note_on_c, 0, 74, 75
2, 100896, Note_on_c, 0, 70, 75
2, 100960, Note_off_c, 0, 74, 100
2, 100960, Note_off_c, 0, 70, 100
2, 100992, Note_on_c, 0, 72, 75
2, 100992, Note_on_c, 0, 69, 75
2, 101056, Note_off_c, 0, 72, 100
2, 101056, Note_off_c, 0, 69, 100
2, 101088, Note_on_c, 0, 69, 75
2, 101088, Note_on_c, 0, 65, 75
2, 101152, Note_off_c, 0, 69, 100
2, 101152, Note_off_c, 0, 65, 100
2, 101184, Note_on_c, 0, 70, 75
2, 101184, Note_on_c, 0, 67, 75
2, 101248, Note_off_c, 0, 70, 100
2, 101248, Note_off_c, 0, 67, 100
2, 101280, Note_on_c, 0, 67, 75
2, 101280, Note_on_c, 0, 64, 75
2, 101344, Note_off_c, 0, 67, 100
2, 101344, Note_off_c, 0, 64, 100
2, 101376, Note_on_c, 0, 65, 50
2, 101504, Note_off_c, 0, 65, 100
2, 101568, Note_on_c, 0, 69, 50
2, 101696, Note_off_c, 0, 69, 100
2, 101760, Note_on_c, 0, 72, 50
2, 101888, Note_off_c, 0, 72, 100
2, 101952, Note_on_c, 0, 76, 50
2, 102080, Note_off_c, 0, 76, 100
2, 102144, Note_on_c, 0, 77, 75
2, 102272, Note_off_c, 0, 77, 100
2, 102336, Note_on_c, 0, 84, 50
2, 102336, Note_on_c, 0, 65, 50
2, 102336, Note_on_c, 0, 69, 50
2, 102464, Note_off_c, 0, 65, 100
2, 102464, Note_off_c, 0, 69, 100
2, 102528, Note_on_c, 0, 65, 50
2, 102528, Note_on_c, 0, 69, 75
2, 102592, Note_off_c, 0, 84, 100
2, 102656, Note_off_c, 0, 65, 100
2, 102656, Note_off_c, 0, 69, 100
2, 102720, Note_on_c, 0, 79, 50
2, 102720, Note_on_c, 0, 65, 50
2, 102720, Note_on_c, 0, 69, 50
2, 102752, Note_off_c, 0, 79, 100
2, 102768, Note_on_c, 0, 77, 50
2, 102800, Note_off_c, 0, 77, 100
2, 102816, Note_on_c, 0, 76, 50
2, 102848, Note_off_c, 0, 65, 100
2, 102848, Note_off_c, 0, 69, 100
2, 102848, Note_off_c, 0, 76, 100
2, 102864, Note_on_c, 0, 74, 50
2, 102896, Note_off_c, 0, 74, 100
2, 102912, Note_on_c, 0, 73, 50
2, 102912, Note_on_c, 0, 70, 50
2, 102912, Note_on_c, 0, 67, 50
2, 102912, Note_on_c, 0, 64, 50
2, 103040, Note_off_c, 0, 73, 100
2, 103040, Note_off_c, 0, 70, 100
2, 103040, Note_off_c, 0, 67, 100
2, 103040, Note_off_c, 0, 64, 100
2, 103104, Note_on_c, 0, 76, 50
2, 103232, Note_off_c, 0, 76, 100
2, 103296, Note_on_c, 0, 79, 50
2, 103424, Note_off_c, 0, 79, 100
2, 103488, Note_on_c, 0, 82, 50
2, 103616, Note_off_c, 0, 82, 100
2, 103680, Note_on_c, 0, 85, 75
2, 103808, Note_off_c, 0, 85, 100
2, 103872, Note_on_c, 0, 88, 75
2, 103872, Note_on_c, 0, 61, 50
2, 103872, Note_on_c, 0, 67, 50
2, 103872, Note_on_c, 0, 69, 50
2, 104000, Note_off_c, 0, 61, 100
2, 104000, Note_off_c, 0, 67, 100
2, 104000, Note_off_c, 0, 69, 100
2, 104064, Note_on_c, 0, 61, 50
2, 104064, Note_on_c, 0, 67, 50
2, 104064, Note_on_c, 0, 69, 50
2, 104128, Note_off_c, 0, 88, 100
2, 104192, Note_off_c, 0, 61, 100
2, 104192, Note_off_c, 0, 67, 100
2, 104192, Note_off_c, 0, 69, 100
2, 104256, Note_on_c, 0, 86, 50
2, 104256, Note_on_c, 0, 61, 50
2, 104256, Note_on_c, 0, 67, 50
2, 104256, Note_on_c, 0, 69, 50
2, 104288, Note_off_c, 0, 86, 100
2, 104304, Note_on_c, 0, 84, 50
2, 104336, Note_off_c, 0, 84, 100
2, 104352, Note_on_c, 0, 83, 50
2, 104384, Note_off_c, 0, 61, 100
2, 104384, Note_off_c, 0, 67, 100
2, 104384, Note_off_c, 0, 69, 100
2, 104384, Note_off_c, 0, 83, 100
2, 104400, Note_on_c, 0, 81, 50
2, 104432, Note_off_c, 0, 81, 100
2, 104448, Note_on_c, 0, 89, 75
2, 104448, Note_on_c, 0, 62, 75
2, 104448, Note_on_c, 0, 65, 75
2, 104448, Note_on_c, 0, 69, 75
2, 104512, Note_off_c, 0, 89, 100
2, 104576, Note_off_c, 0, 62, 100
2, 104576, Note_off_c, 0, 65, 100
2, 104576, Note_off_c, 0, 69, 100
2, 104576, Note_on_c, 0, 81, 75
2, 104640, Note_off_c, 0, 81, 100
2, 104640, Note_on_c, 0, 83, 75
2, 104640, Note_on_c, 0, 65, 75
2, 104704, Note_off_c, 0, 83, 100
2, 104736, Note_on_c, 0, 86, 75
2, 104768, Note_off_c, 0, 65, 100
2, 104800, Note_off_c, 0, 86, 100
2, 104832, Note_on_c, 0, 88, 75
2, 104832, Note_on_c, 0, 60, 75
2, 104832, Note_on_c, 0, 67, 75
2, 104896, Note_off_c, 0, 88, 100
2, 104928, Note_on_c, 0, 78, 75
2, 104960, Note_off_c, 0, 60, 100
2, 104960, Note_off_c, 0, 67, 100
2, 104992, Note_off_c, 0, 78, 100
2, 105024, Note_on_c, 0, 79, 75
2, 105024, Note_on_c, 0, 64, 75
2, 105024, Note_on_c, 0, 72, 75
2, 105088, Note_off_c, 0, 79, 100
2, 105120, Note_on_c, 0, 84, 75
2, 105152, Note_off_c, 0, 64, 100
2, 105152, Note_off_c, 0, 72, 100
2, 105184, Note_off_c, 0, 84, 100
2, 105216, Note_on_c, 0, 88, 75
2, 105216, Note_on_c, 0, 65, 75
2, 105216, Note_on_c, 0, 69, 75
2, 105280, Note_off_c, 0, 88, 100
2, 105344, Note_off_c, 0, 65, 100
2, 105344, Note_off_c, 0, 69, 100
2, 105344, Note_on_c, 0, 86, 75
2, 105408, Note_off_c, 0, 86, 100
2, 105408, Note_on_c, 0, 86, 75
2, 105408, Note_on_c, 0, 65, 75
2, 105408, Note_on_c, 0, 69, 75
2, 105536, Note_off_c, 0, 65, 100
2, 105536, Note_off_c, 0, 69, 100
2, 105600, Note_on_c, 0, 65, 75
2, 105600, Note_on_c, 0, 69, 75
2, 105664, Note_off_c, 0, 86, 100
2, 105728, Note_off_c, 0, 65, 100
2, 105728, Note_off_c, 0, 69, 100
2, 105792, Note_on_c, 0, 66, 75
2, 105792, Note_on_c, 0, 69, 75
2, 105792, Note_on_c, 0, 74, 75
2, 105792, Note_on_c, 0, 84, 75
2, 105812, Note_off_c, 0, 84, 0
2, 105816, Note_on_c, 0, 86, 75
2, 105836, Note_off_c, 0, 86, 0
2, 105840, Note_on_c, 0, 84, 75
2, 105860, Note_off_c, 0, 84, 0
2, 105864, Note_on_c, 0, 86, 75
2, 105884, Note_off_c, 0, 86, 0
2, 105888, Note_on_c, 0, 84, 75
2, 105908, Note_off_c, 0, 84, 0
2, 105912, Note_on_c, 0, 86, 75
2, 105920, Note_off_c, 0, 66, 100
2, 105920, Note_off_c, 0, 69, 100
2, 105920, Note_off_c, 0, 74, 100
2, 105932, Note_off_c, 0, 86, 0
2, 105936, Note_on_c, 0, 83, 75
2, 105956, Note_off_c, 0, 83, 0
2, 105960, Note_on_c, 0, 84, 75
2, 105984, Note_on_c, 0, 83, 75
2, 105984, Note_on_c, 0, 74, 75
2, 105984, Note_on_c, 0, 71, 75
2, 105984, Note_on_c, 0, 67, 75
2, 105988, Note_off_c, 0, 84, 0
2, 106032, Note_off_c, 0, 83, 100
2, 106048, Note_on_c, 0, 86, 75
2, 106096, Note_off_c, 0, 86, 100
2, 106112, Note_on_c, 0, 84, 75
2, 106160, Note_off_c, 0, 84, 100
2, 106176, Note_on_c, 0, 83, 75
2, 106224, Note_off_c, 0, 83, 100
2, 106240, Note_off_c, 0, 74, 100
2, 106240, Note_off_c, 0, 71, 100
2, 106240, Note_off_c, 0, 67, 100
2, 106240, Note_on_c, 0, 81, 75
2, 106288, Note_off_c, 0, 81, 100
2, 106304, Note_on_c, 0, 79, 75
2, 106352, Note_off_c, 0, 79, 100
2, 106368, Note_on_c, 0, 78, 75
2, 106416, Note_off_c, 0, 78, 100
2, 106432, Note_on_c, 0, 81, 75
2, 106480, Note_off_c, 0, 81, 100
2, 106496, Note_on_c, 0, 79, 75
2, 106544, Note_off_c, 0, 79, 100
2, 106560, Note_on_c, 0, 83, 75
2, 106608, Note_off_c, 0, 83, 100
2, 106624, Note_on_c, 0, 74, 75
2, 106672, Note_off_c, 0, 74, 100
2, 106688, Note_on_c, 0, 77, 75
2, 106736, Note_off_c, 0, 77, 100
2, 106752, Note_on_c, 0, 76, 75
2, 106752, Note_on_c, 0, 67, 75
2, 106752, Note_on_c, 0, 72, 75
2, 106800, Note_off_c, 0, 76, 100
2, 106816, Note_on_c, 0, 79, 75
2, 106864, Note_off_c, 0, 79, 100
2, 106880, Note_on_c, 0, 77, 75
2, 106928, Note_off_c, 0, 77, 100
2, 106944, Note_on_c, 0, 76, 75
2, 106992, Note_off_c, 0, 76, 100
2, 107008, Note_off_c, 0, 67, 100
2, 107008, Note_off_c, 0, 72, 100
2, 107008, Note_on_c, 0, 74, 75
2, 107056, Note_off_c, 0, 74, 100
2, 107072, Note_on_c, 0, 72, 75
2, 107120, Note_off_c, 0, 72, 100
2, 107136, Note_on_c, 0, 71, 75
2, 107184, Note_off_c, 0, 71, 100
2, 107200, Note_on_c, 0, 74, 75
2, 107248, Note_off_c, 0, 74, 100
2, 107264, Note_on_c, 0, 72, 75
2, 107312, Note_off_c, 0, 72, 100
2, 107328, Note_on_c, 0, 76, 75
2, 107376, Note_off_c, 0, 76, 100
2, 107392, Note_on_c, 0, 69, 75
2, 107440, Note_off_c, 0, 69, 100
2, 107456, Note_on_c, 0, 72, 75
2, 107504, Note_off_c, 0, 72, 100
2, 107520, Note_on_c, 0, 71, 75
2, 107568, Note_off_c, 0, 71, 100
2, 107584, Note_on_c, 0, 74, 75
2, 107632, Note_off_c, 0, 74, 100
2, 107648, Note_on_c, 0, 72, 75
2, 107696, Note_off_c, 0, 72, 100
2, 107712, Note_on_c, 0, 71, 75
2, 107760, Note_off_c, 0, 71, 100
2, 107776, Note_on_c, 0, 69, 75
2, 107824, Note_off_c, 0, 69, 100
2, 107840, Note_on_c, 0, 67, 75
2, 107888, Note_off_c, 0, 67, 100
2, 107904, Note_on_c, 0, 66, 75
2, 107952, Note_off_c, 0, 66, 100
2, 107968, Note_on_c, 0, 69, 75
2, 108016, Note_off_c, 0, 69, 100
2, 108032, Note_on_c, 0, 67, 75
2, 108080, Note_off_c, 0, 67, 100
2, 108096, Note_on_c, 0, 71, 75
2, 108144, Note_off_c, 0, 71, 100
2, 108160, Note_on_c, 0, 62, 75
2, 108208, Note_off_c, 0, 62, 100
2, 108224, Note_on_c, 0, 65, 75
2, 108272, Note_off_c, 0, 65, 100
2, 108288, Note_on_c, 0, 64, 75
2, 108336, Note_off_c, 0, 64, 100
2, 108352, Note_on_c, 0, 67, 75
2, 108400, Note_off_c, 0, 67, 100
2, 108416, Note_on_c, 0, 65, 75
2, 108464, Note_off_c, 0, 65, 100
2, 108480, Note_on_c, 0, 64, 75
2, 108528, Note_off_c, 0, 64, 100
2, 108544, Note_on_c, 0, 62, 75
2, 108592, Note_off_c, 0, 62, 100
2, 108608, Note_on_c, 0, 60, 75
2, 108656, Note_off_c, 0, 60, 100
2, 108672, Note_on_c, 0, 59, 75
2, 108720, Note_off_c, 0, 59, 100
2, 108736, Note_on_c, 0, 62, 75
2, 108784, Note_off_c, 0, 62, 100
2, 108800, Note_on_c, 0, 60, 75
2, 108848, Note_off_c, 0, 60, 100
2, 108864, Note_on_c, 0, 64, 75
2, 108912, Note_off_c, 0, 64, 100
2, 110016, Note_on_c, 0, 62, 75
2, 110016, Note_on_c, 0, 59, 75
2, 110144, Note_off_c, 0, 62, 100
2, 110144, Note_off_c, 0, 59, 100
2, 110208, Note_on_c, 0, 64, 75
2, 110208, Note_on_c, 0, 60, 75
2, 110336, Note_off_c, 0, 64, 100
2, 110336, Note_off_c, 0, 60, 100
2, 110400, Note_on_c, 0, 67, 75
2, 110400, Note_on_c, 0, 65, 75
2, 110400, Note_on_c, 0, 62, 75
2, 110528, Note_off_c, 0, 67, 100
2, 110528, Note_off_c, 0, 65, 100
2, 110528, Note_off_c, 0, 62, 100
2, 110592, Note_on_c, 0, 79, 75
2, 110592, Note_on_c, 0, 64, 75
2, 110592, Note_on_c, 0, 60, 75
2, 110640, Note_off_c, 0, 79, 100
2, 110656, Note_on_c, 0, 81, 75
2, 110704, Note_off_c, 0, 81, 100
2, 110720, Note_on_c, 0, 79, 75
2, 110768, Note_off_c, 0, 79, 100
2, 110784, Note_on_c, 0, 77, 75
2, 110832, Note_off_c, 0, 77, 100
2, 110848, Note_off_c, 0, 64, 100
2, 110848, Note_off_c, 0, 60, 100
2, 110848, Note_on_c, 0, 76, 75
2, 110896, Note_off_c, 0, 76, 100
2, 110912, Note_on_c, 0, 74, 75
2, 110960, Note_off_c, 0, 74, 100
2, 110976, Note_on_c, 0, 76, 75
2, 111024, Note_off_c, 0, 76, 100
2, 111040, Note_on_c, 0, 77, 75
2, 111088, Note_off_c, 0, 77, 100
2, 111104, Note_on_c, 0, 76, 75
2, 111152, Note_off_c, 0, 76, 100
2, 111168, Note_on_c, 0, 74, 75
2, 111216, Note_off_c, 0, 74, 100
2, 111232, Note_on_c, 0, 72, 75
2, 111280, Note_off_c, 0, 72, 100
2, 111296, Note_on_c, 0, 71, 75
2, 111344, Note_off_c, 0, 71, 100
2, 111360, Note_on_c, 0, 72, 75
2, 111408, Note_off_c, 0, 72, 100
2, 111424, Note_on_c, 0, 74, 75
2, 111472, Note_off_c, 0, 74, 100
2, 111488, Note_on_c, 0, 72, 75
2, 111536, Note_off_c, 0, 72, 100
2, 111552, Note_on_c, 0, 71, 75
2, 111600, Note_off_c, 0, 71, 100
2, 111616, Note_on_c, 0, 69, 75
2, 111664, Note_off_c, 0, 69, 100
2, 111680, Note_on_c, 0, 68, 75
2, 111728, Note_off_c, 0, 68, 100
2, 111744, Note_on_c, 0, 69, 75
2, 111792, Note_off_c, 0, 69, 100
2, 111808, Note_on_c, 0, 71, 75
2, 111856, Note_off_c, 0, 71, 100
2, 111872, Note_on_c, 0, 69, 75
2, 111920, Note_off_c, 0, 69, 100
2, 111936, Note_on_c, 0, 67, 75
2, 111984, Note_off_c, 0, 67, 100
2, 112000, Note_on_c, 0, 65, 75
2, 112048, Note_off_c, 0, 65, 100
2, 112064, Note_on_c, 0, 64, 75
2, 112112, Note_off_c, 0, 64, 100
2, 112128, Note_on_c, 0, 67, 75
2, 112320, Note_off_c, 0, 67, 100
2, 112416, Note_on_c, 0, 69, 75
2, 112448, Note_off_c, 0, 69, 100
2, 112464, Note_on_c, 0, 67, 75
2, 112496, Note_off_c, 0, 67, 100
2, 112512, Note_on_c, 0, 65, 75
2, 112640, Note_off_c, 0, 65, 100
2, 112800, Note_on_c, 0, 65, 50
2, 112864, Note_off_c, 0, 65, 100
2, 112896, Note_on_c, 0, 65, 50
2, 113088, Note_off_c, 0, 65, 100
2, 113184, Note_on_c, 0, 68, 50
2, 113216, Note_off_c, 0, 68, 100
2, 113232, Note_on_c, 0, 67, 50
2, 113264, Note_off_c, 0, 67, 100
2, 113280, Note_on_c, 0, 65, 50
2, 113408, Note_off_c, 0, 65, 100
2, 113568, Note_on_c, 0, 65, 75
2, 113632, Note_off_c, 0, 65, 100
2, 113664, Note_on_c, 0, 77, 75
2, 113712, Note_off_c, 0, 77, 100
2, 113728, Note_on_c, 0, 79, 75
2, 113776, Note_off_c, 0, 79, 100
2, 113792, Note_on_c, 0, 77, 75
2, 113840, Note_off_c, 0, 77, 100
2, 113856, Note_on_c, 0, 76, 75
2, 113904, Note_off_c, 0, 76, 100
2, 113920, Note_on_c, 0, 74, 75
2, 113968, Note_off_c, 0, 74, 100
2, 113984, Note_on_c, 0, 73, 75
2, 114032, Note_off_c, 0, 73, 100
2, 114048, Note_on_c, 0, 74, 75
2, 114096, Note_off_c, 0, 74, 100
2, 114112, Note_on_c, 0, 76, 75
2, 114160, Note_off_c, 0, 76, 100
2, 114176, Note_on_c, 0, 74, 75
2, 114224, Note_off_c, 0, 74, 100
2, 114240, Note_on_c, 0, 72, 75
2, 114288, Note_off_c, 0, 72, 100
2, 114304, Note_on_c, 0, 71, 75
2, 114352, Note_off_c, 0, 71, 100
2, 114368, Note_on_c, 0, 70, 75
2, 114416, Note_off_c, 0, 70, 100
2, 114432, Note_on_c, 0, 71, 75
2, 114480, Note_off_c, 0, 71, 100
2, 114496, Note_on_c, 0, 72, 75
2, 114544, Note_off_c, 0, 72, 100
2, 114560, Note_on_c, 0, 71, 75
2, 114608, Note_off_c, 0, 71, 100
2, 114624, Note_on_c, 0, 69, 75
2, 114672, Note_off_c, 0, 69, 100
2, 114688, Note_on_c, 0, 67, 75
2, 114736, Note_off_c, 0, 67, 100
2, 114752, Note_on_c, 0, 66, 75
2, 114800, Note_off_c, 0, 66, 100
2, 114816, Note_on_c, 0, 67, 75
2, 114864, Note_off_c, 0, 67, 100
2, 114880, Note_on_c, 0, 69, 75
2, 114928, Note_off_c, 0, 69, 100
2, 114944, Note_on_c, 0, 67, 75
2, 114992, Note_off_c, 0, 67, 100
2, 115008, Note_on_c, 0, 65, 75
2, 115056, Note_off_c, 0, 65, 100
2, 115072, Note_on_c, 0, 64, 75
2, 115120, Note_off_c, 0, 64, 100
2, 115136, Note_on_c, 0, 62, 75
2, 115184, Note_off_c, 0, 62, 100
2, 115200, Note_on_c, 0, 64, 75
2, 115488, Note_on_c, 0, 67, 75
2, 115520, Note_off_c, 0, 67, 100
2, 115536, Note_on_c, 0, 65, 75
2, 115568, Note_off_c, 0, 65, 100
2, 115584, Note_off_c, 0, 64, 100
2, 115584, Note_on_c, 0, 64, 75
2, 115712, Note_off_c, 0, 64, 100
2, 115872, Note_on_c, 0, 64, 50
2, 115936, Note_off_c, 0, 64, 100
2, 115968, Note_on_c, 0, 64, 50
2, 116160, Note_off_c, 0, 64, 100
2, 116256, Note_on_c, 0, 67, 50
2, 116288, Note_off_c, 0, 67, 100
2, 116304, Note_on_c, 0, 65, 50
2, 116336, Note_off_c, 0, 65, 100
2, 116352, Note_on_c, 0, 64, 50
2, 116480, Note_off_c, 0, 64, 100
2, 116640, Note_on_c, 0, 79, 75
2, 116704, Note_off_c, 0, 79, 100
2, 116736, Note_on_c, 0, 84, 75
2, 116784, Note_off_c, 0, 84, 100
2, 116800, Note_on_c, 0, 86, 75
2, 116848, Note_off_c, 0, 86, 100
2, 116864, Note_on_c, 0, 84, 75
2, 116912, Note_off_c, 0, 84, 100
2, 116928, Note_on_c, 0, 81, 75
2, 116976, Note_off_c, 0, 81, 100
2, 116992, Note_on_c, 0, 79, 75
2, 117040, Note_off_c, 0, 79, 100
2, 117056, Note_on_c, 0, 78, 75
2, 117104, Note_off_c, 0, 78, 100
2, 117120, Note_on_c, 0, 79, 75
2, 117168, Note_off_c, 0, 79, 100
2, 117184, Note_on_c, 0, 81, 75
2, 117232, Note_off_c, 0, 81, 100
2, 117248, Note_on_c, 0, 79, 75
2, 117296, Note_off_c, 0, 79, 100
2, 117312, Note_on_c, 0, 77, 75
2, 117360, Note_off_c, 0, 77, 100
2, 117376, Note_on_c, 0, 76, 75
2, 117424, Note_off_c, 0, 76, 100
2, 117440, Note_on_c, 0, 74, 75
2, 117488, Note_off_c, 0, 74, 100
2, 117504, Note_on_c, 0, 76, 75
2, 117552, Note_off_c, 0, 76, 100
2, 117568, Note_on_c, 0, 77, 75
2, 117616, Note_off_c, 0, 77, 100
2, 117632, Note_on_c, 0, 76, 75
2, 117680, Note_off_c, 0, 76, 100
2, 117696, Note_on_c, 0, 74, 75
2, 117744, Note_off_c, 0, 74, 100
2, 117760, Note_on_c, 0, 72, 75
2, 117808, Note_off_c, 0, 72, 100
2, 117824, Note_on_c, 0, 71, 75
2, 117872, Note_off_c, 0, 71, 100
2, 117888, Note_on_c, 0, 72, 75
2, 117936, Note_off_c, 0, 72, 100
2, 117952, Note_on_c, 0, 74, 75
2, 118000, Note_off_c, 0, 74, 100
2, 118016, Note_on_c, 0, 72, 75
2, 118064, Note_off_c, 0, 72, 100
2, 118080, Note_on_c, 0, 67, 75
2, 118128, Note_off_c, 0, 67, 100
2, 118144, Note_on_c, 0, 65, 75
2, 118192, Note_off_c, 0, 65, 100
2, 118208, Note_on_c, 0, 64, 75
2, 118256, Note_off_c, 0, 64, 100
2, 118272, Note_on_c, 0, 62, 75
2, 118464, Note_off_c, 0, 62, 100
2, 118560, Note_on_c, 0, 65, 75
2, 118592, Note_off_c, 0, 65, 100
2, 118608, Note_on_c, 0, 64, 75
2, 118640, Note_off_c, 0, 64, 100
2, 118656, Note_on_c, 0, 62, 75
2, 118784, Note_off_c, 0, 62, 100
2, 118944, Note_on_c, 0, 62, 50
2, 119008, Note_off_c, 0, 62, 100
2, 119040, Note_on_c, 0, 62, 50
2, 119232, Note_off_c, 0, 62, 100
2, 119296, Note_on_c, 0, 65, 50
2, 119328, Note_off_c, 0, 65, 100
2, 119360, Note_on_c, 0, 64, 50
2, 119392, Note_off_c, 0, 64, 100
2, 119424, Note_on_c, 0, 62, 50
2, 119552, Note_off_c, 0, 62, 100
2, 119712, Note_on_c, 0, 74, 75
2, 119776, Note_off_c, 0, 74, 100
2, 119808, Note_on_c, 0, 84, 75
2, 119856, Note_off_c, 0, 84, 100
2, 119872, Note_on_c, 0, 86, 75
2, 119920, Note_off_c, 0, 86, 100
2, 119936, Note_on_c, 0, 84, 75
2, 119984, Note_off_c, 0, 84, 100
2, 120000, Note_on_c, 0, 83, 75
2, 120048, Note_off_c, 0, 83, 100
2, 120064, Note_on_c, 0, 81, 75
2, 120112, Note_off_c, 0, 81, 100
2, 120128, Note_on_c, 0, 80, 75
2, 120176, Note_off_c, 0, 80, 100
2, 120192, Note_on_c, 0, 81, 75
2, 120240, Note_off_c, 0, 81, 100
2, 120256, Note_on_c, 0, 83, 75
2, 120304, Note_off_c, 0, 83, 100
2, 120320, Note_on_c, 0, 81, 75
2, 120368, Note_off_c, 0, 81, 100
2, 120384, Note_on_c, 0, 79, 75
2, 120432, Note_off_c, 0, 79, 100
2, 120448, Note_on_c, 0, 77, 75
2, 120496, Note_off_c, 0, 77, 100
2, 120512, Note_on_c, 0, 76, 75
2, 120560, Note_off_c, 0, 76, 100
2, 120576, Note_on_c, 0, 77, 75
2, 120624, Note_off_c, 0, 77, 100
2, 120640, Note_on_c, 0, 79, 75
2, 120688, Note_off_c, 0, 79, 100
2, 120704, Note_on_c, 0, 77, 75
2, 120752, Note_off_c, 0, 77, 100
2, 120768, Note_on_c, 0, 76, 75
2, 120816, Note_off_c, 0, 76, 100
2, 120832, Note_on_c, 0, 74, 75
2, 120880, Note_off_c, 0, 74, 100
2, 120896, Note_on_c, 0, 73, 75
2, 120944, Note_off_c, 0, 73, 100
2, 120960, Note_on_c, 0, 74, 75
2, 121008, Note_off_c, 0, 74, 100
2, 121024, Note_on_c, 0, 76, 75
2, 121072, Note_off_c, 0, 76, 100
2, 121088, Note_on_c, 0, 74, 75
2, 121136, Note_off_c, 0, 74, 100
2, 121152, Note_on_c, 0, 72, 75
2, 121200, Note_off_c, 0, 72, 100
2, 121216, Note_on_c, 0, 71, 75
2, 121264, Note_off_c, 0, 71, 100
2, 121280, Note_on_c, 0, 69, 75
2, 121328, Note_off_c, 0, 69, 100
2, 121344, Note_on_c, 0, 71, 50
2, 121472, Note_off_c, 0, 71, 100
2, 121536, Note_on_c, 0, 77, 50
2, 121664, Note_off_c, 0, 77, 100
2, 121728, Note_on_c, 0, 77, 50
2, 121856, Note_off_c, 0, 77, 100
2, 121920, Note_on_c, 0, 77, 50
2, 122048, Note_off_c, 0, 77, 100
2, 122112, Note_on_c, 0, 77, 50
2, 122304, Note_off_c, 0, 77, 100
2, 122400, Note_on_c, 0, 74, 50
2, 122464, Note_off_c, 0, 74, 100
2, 122496, Note_on_c, 0, 71, 50
2, 122624, Note_off_c, 0, 71, 100
2, 122976, Note_on_c, 0, 65, 50
2, 123040, Note_off_c, 0, 65, 100
2, 123072, Note_on_c, 0, 77, 50
2, 123136, Note_off_c, 0, 77, 100
2, 123168, Note_on_c, 0, 77, 52
2, 123232, Note_off_c, 0, 77, 100
2, 123264, Note_on_c, 0, 77, 55
2, 123328, Note_off_c, 0, 77, 100
2, 123360, Note_on_c, 0, 77, 57
2, 123424, Note_off_c, 0, 77, 100
2, 123456, Note_on_c, 0, 77, 60
2, 123520, Note_off_c, 0, 77, 100
2, 123536, Note_on_c, 0, 77, 62
2, 123600, Note_off_c, 0, 77, 100
2, 123648, Note_on_c, 0, 77, 67
2, 123840, Note_off_c, 0, 77, 100
2, 123936, Note_on_c, 0, 74, 70
2, 124000, Note_off_c, 0, 74, 100
2, 124032, Note_on_c, 0, 71, 72
2, 124160, Note_off_c, 0, 71, 100
2, 124416, Note_on_c, 0, 77, 75
2, 124544, Note_off_c, 0, 77, 100
2, 124608, Note_on_c, 0, 77, 75
2, 124640, Note_off_c, 0, 77, 100
2, 124656, Note_on_c, 0, 74, 75
2, 124688, Note_off_c, 0, 74, 100
2, 124704, Note_on_c, 0, 77, 75
2, 124736, Note_off_c, 0, 77, 100
2, 124752, Note_on_c, 0, 74, 75
2, 124784, Note_off_c, 0, 74, 100
2, 124800, Note_on_c, 0, 71, 75
2, 124928, Note_off_c, 0, 71, 100
2, 125184, Note_on_c, 0, 67, 82
2, 125216, Note_off_c, 0, 67, 100
2, 125232, Note_on_c, 0, 79, 82
2, 125264, Note_off_c, 0, 79, 100
2, 125280, Note_on_c, 0, 67, 82
2, 125312, Note_off_c, 0, 67, 100
2, 125328, Note_on_c, 0, 79, 82
2, 125360, Note_off_c, 0, 79, 100
2, 125376, Note_on_c, 0, 67, 82
2, 125408, Note_off_c, 0, 67, 100
2, 125424, Note_on_c, 0, 79, 82
2, 125456, Note_off_c, 0, 79, 100
2, 125472, Note_on_c, 0, 67, 82
2, 125504, Note_off_c, 0, 67, 100
2, 125520, Note_on_c, 0, 79, 82
2, 125552, Note_off_c, 0, 79, 100
2, 125568, Note_on_c, 0, 67, 82
2, 125600, Note_off_c, 0, 67, 100
2, 125616, Note_on_c, 0, 79, 82
2, 125648, Note_off_c, 0, 79, 100
2, 125664, Note_on_c, 0, 67, 82
2, 125696, Note_off_c, 0, 67, 100
2, 125712, Note_on_c, 0, 79, 82
2, 125744, Note_off_c, 0, 79, 100
2, 125760, Note_on_c, 0, 67, 82
2, 125792, Note_off_c, 0, 67, 100
2, 125808, Note_on_c, 0, 79, 82
2, 125840, Note_off_c, 0, 79, 100
2, 125856, Note_on_c, 0, 67, 82
2, 125888, Note_off_c, 0, 67, 100
2, 125904, Note_on_c, 0, 79, 82
2, 125936, Note_off_c, 0, 79, 100
2, 125952, Note_on_c, 0, 67, 82
2, 125984, Note_off_c, 0, 67, 100
2, 126000, Note_on_c, 0, 79, 82
2, 126032, Note_off_c, 0, 79, 100
2, 126048, Note_on_c, 0, 67, 82
2, 126080, Note_off_c, 0, 67, 100
2, 126096, Note_on_c, 0, 79, 82
2, 126128, Note_off_c, 0, 79, 100
2, 126144, Note_on_c, 0, 67, 82
2, 126176, Note_off_c, 0, 67, 100
2, 126192, Note_on_c, 0, 79, 82
2, 126224, Note_off_c, 0, 79, 100
2, 126240, Note_on_c, 0, 67, 82
2, 126272, Note_off_c, 0, 67, 100
2, 126288, Note_on_c, 0, 79, 82
2, 126320, Note_off_c, 0, 79, 100
2, 126336, Note_on_c, 0, 67, 82
2, 126368, Note_off_c, 0, 67, 100
2, 126384, Note_on_c, 0, 79, 82
2, 126416, Note_off_c, 0, 79, 100
2, 126432, Note_on_c, 0, 67, 82
2, 126464, Note_off_c, 0, 67, 100
2, 126480, Note_on_c, 0, 79, 82
2, 126512, Note_off_c, 0, 79, 100
2, 126528, Note_on_c, 0, 67, 82
2, 126560, Note_off_c, 0, 67, 100
2, 126576, Note_on_c, 0, 79, 82
2, 126608, Note_off_c, 0, 79, 100
2, 126624, Note_on_c, 0, 67, 82
2, 126656, Note_off_c, 0, 67, 100
2, 126672, Note_on_c, 0, 79, 82
2, 126704, Note_off_c, 0, 79, 100
2, 126720, Note_on_c, 0, 67, 82
2, 126752, Note_off_c, 0, 67, 100
2, 126768, Note_on_c, 0, 79, 82
2, 126800, Note_off_c, 0, 79, 100
2, 126816, Note_on_c, 0, 67, 82
2, 126848, Note_off_c, 0, 67, 100
2, 126864, Note_on_c, 0, 79, 82
2, 126896, Note_off_c, 0, 79, 100
2, 126912, Note_on_c, 0, 67, 82
2, 126944, Note_off_c, 0, 67, 100
2, 126960, Note_on_c, 0, 79, 82
2, 126992, Note_off_c, 0, 79, 100
2, 127008, Note_on_c, 0, 67, 82
2, 127040, Note_off_c, 0, 67, 100
2, 127056, Note_on_c, 0, 79, 82
2, 127088, Note_off_c, 0, 79, 100
2, 127104, Note_on_c, 0, 67, 82
2, 127136, Note_off_c, 0, 67, 100
2, 127152, Note_on_c, 0, 79, 82
2, 127184, Note_off_c, 0, 79, 100
2, 127200, Note_on_c, 0, 67, 82
2, 127232, Note_off_c, 0, 67, 100
2, 127248, Note_on_c, 0, 79, 82
2, 127280, Note_off_c, 0, 79, 100
2, 127296, Note_on_c, 0, 67, 82
2, 127328, Note_off_c, 0, 67, 100
2, 127344, Note_on_c, 0, 79, 82
2, 127376, Note_off_c, 0, 79, 100
2, 127392, Note_on_c, 0, 67, 82
2, 127424, Note_off_c, 0, 67, 100
2, 127440, Note_on_c, 0, 79, 82
2, 127472, Note_off_c, 0, 79, 100
2, 127488, Note_on_c, 0, 67, 82
2, 127520, Note_off_c, 0, 67, 100
2, 127536, Note_on_c, 0, 79, 82
2, 127568, Note_off_c, 0, 79, 100
2, 127584, Note_on_c, 0, 67, 82
2, 127616, Note_off_c, 0, 67, 100
2, 127632, Note_on_c, 0, 79, 82
2, 127664, Note_off_c, 0, 79, 100
2, 127680, Note_on_c, 0, 67, 82
2, 127712, Note_off_c, 0, 67, 100
2, 127728, Note_on_c, 0, 79, 82
2, 127760, Note_off_c, 0, 79, 100
2, 127776, Note_on_c, 0, 67, 82
2, 127808, Note_off_c, 0, 67, 100
2, 127824, Note_on_c, 0, 79, 82
2, 127856, Note_off_c, 0, 79, 100
2, 127872, Note_on_c, 0, 67, 82
2, 127904, Note_off_c, 0, 67, 100
2, 127920, Note_on_c, 0, 79, 82
2, 127952, Note_off_c, 0, 79, 100
2, 127968, Note_on_c, 0, 67, 82
2, 128000, Note_off_c, 0, 67, 100
2, 128016, Note_on_c, 0, 79, 82
2, 128048, Note_off_c, 0, 79, 100
2, 128064, Note_on_c, 0, 67, 82
2, 128096, Note_off_c, 0, 67, 100
2, 128112, Note_on_c, 0, 79, 82
2, 128144, Note_off_c, 0, 79, 100
2, 128160, Note_on_c, 0, 67, 82
2, 128192, Note_off_c, 0, 67, 100
2, 128208, Note_on_c, 0, 79, 82
2, 128240, Note_off_c, 0, 79, 100
2, 128256, Note_on_c, 0, 79, 82
2, 128256, Note_on_c, 0, 67, 82
2, 128320, Note_off_c, 0, 79, 100
2, 128320, Note_off_c, 0, 67, 100
2, 128352, Note_on_c, 0, 77, 82
2, 128416, Note_off_c, 0, 77, 100
2, 128448, Note_on_c, 0, 76, 82
2, 128512, Note_off_c, 0, 76, 100
2, 128544, Note_on_c, 0, 74, 82
2, 128608, Note_off_c, 0, 74, 100
2, 128640, Note_on_c, 0, 72, 82
2, 128704, Note_off_c, 0, 72, 100
2, 128736, Note_on_c, 0, 71, 82
2, 128800, Note_off_c, 0, 71, 100
2, 128832, Note_on_c, 0, 69, 82
2, 128896, Note_off_c, 0, 69, 100
2, 128928, Note_on_c, 0, 67, 82
2, 128992, Note_off_c, 0, 67, 100
2, 129024, Note_on_c, 0, 81, 82
2, 129088, Note_off_c, 0, 81, 100
2, 129120, Note_on_c, 0, 79, 82
2, 129184, Note_off_c, 0, 79, 100
2, 129216, Note_on_c, 0, 77, 82
2, 129280, Note_off_c, 0, 77, 100
2, 129312, Note_on_c, 0, 76, 82
2, 129376, Note_off_c, 0, 76, 100
2, 129408, Note_on_c, 0, 74, 82
2, 129472, Note_off_c, 0, 74, 100
2, 129504, Note_on_c, 0, 72, 82
2, 129568, Note_off_c, 0, 72, 100
2, 129600, Note_on_c, 0, 71, 82
2, 129664, Note_off_c, 0, 71, 100
2, 129696, Note_on_c, 0, 69, 82
2, 129760, Note_off_c, 0, 69, 100
2, 129792, Note_on_c, 0, 67, 82
2, 129920, Note_off_c, 0, 67, 100
2, 130176, Note_on_c, 0, 71, 82
2, 130176, Note_on_c, 0, 65, 82
2, 130176, Note_on_c, 0, 62, 82
2, 130304, Note_off_c, 0, 71, 100
2, 130304, Note_off_c, 0, 65, 100
2, 130304, Note_off_c, 0, 62, 100
2, 130560, Note_on_c, 0, 72, 82
2, 130560, Note_on_c, 0, 60, 82
2, 130560, Note_on_c, 0, 64, 82
2, 130688, Note_off_c, 0, 72, 100
2, 130688, Note_off_c, 0, 60, 100
2, 130688, Note_off_c, 0, 64, 100
2, 131328, Note_on_c, 0, 86, 50
2, 131392, Note_off_c, 0, 86, 100
2, 131392, Note_on_c, 0, 84, 50
2, 131520, Note_on_c, 0, 74, 50
2, 131520, Note_on_c, 0, 69, 50
2, 131520, Note_on_c, 0, 66, 50
2, 131584, Note_off_c, 0, 84, 100
2, 131648, Note_off_c, 0, 74, 100
2, 131648, Note_off_c, 0, 69, 100
2, 131648, Note_off_c, 0, 66, 100
2, 131712, Note_on_c, 0, 84, 50
2, 131712, Note_on_c, 0, 66, 50
2, 131712, Note_on_c, 0, 74, 50
2, 131712, Note_on_c, 0, 69, 50
2, 131776, Note_off_c, 0, 84, 100
2, 131808, Note_on_c, 0, 83, 50
2, 131840, Note_off_c, 0, 66, 100
2, 131840, Note_off_c, 0, 74, 100
2, 131840, Note_off_c, 0, 69, 100
2, 131872, Note_off_c, 0, 83, 100
2, 131904, Note_on_c, 0, 84, 50
2, 131904, Note_on_c, 0, 74, 50
2, 131904, Note_on_c, 0, 69, 50
2, 131904, Note_on_c, 0, 66, 50
2, 131968, Note_off_c, 0, 84, 100
2, 132000, Note_on_c, 0, 81, 50
2, 132032, Note_off_c, 0, 74, 100
2, 132032, Note_off_c, 0, 69, 100
2, 132032, Note_off_c, 0, 66, 100
2, 132064, Note_off_c, 0, 81, 100
2, 132096, Note_on_c, 0, 79, 50
2, 132288, Note_on_c, 0, 76, 50
2, 132288, Note_on_c, 0, 72, 50
2, 132288, Note_on_c, 0, 67, 50
2, 132352, Note_off_c, 0, 79, 100
2, 132416, Note_off_c, 0, 76, 100
2, 132416, Note_off_c, 0, 72, 100
2, 132416, Note_off_c, 0, 67, 100
2, 132480, Note_on_c, 0, 79, 50
2, 132480, Note_on_c, 0, 76, 50
2, 132480, Note_on_c, 0, 72, 50
2, 132480, Note_on_c, 0, 67, 50
2, 132544, Note_off_c, 0, 79, 100
2, 132576, Note_on_c, 0, 78, 50
2, 132608, Note_off_c, 0, 76, 100
2, 132608, Note_off_c, 0, 72, 100
2, 132608, Note_off_c, 0, 67, 100
2, 132640, Note_off_c, 0, 78, 100
2, 132672, Note_on_c, 0, 79, 50
2, 132672, Note_on_c, 0, 72, 50
2, 132672, Note_on_c, 0, 67, 50
2, 132736, Note_off_c, 0, 79, 100
2, 132768, Note_on_c, 0, 76, 50
2, 132800, Note_off_c, 0, 72, 100
2, 132800, Note_off_c, 0, 67, 100
2, 132832, Note_off_c, 0, 76, 100
2, 132864, Note_on_c, 0, 79, 50
2, 132928, Note_off_c, 0, 79, 100
2, 132928, Note_on_c, 0, 77, 50
2, 133056, Note_on_c, 0, 74, 50
2, 133056, Note_on_c, 0, 71, 50
2, 133056, Note_on_c, 0, 67, 50
2, 133120, Note_off_c, 0, 77, 100
2, 133184, Note_off_c, 0, 74, 100
2, 133184, Note_off_c, 0, 71, 100
2, 133184, Note_off_c, 0, 67, 100
2, 133232, Note_on_c, 0, 77, 50
2, 133248, Note_on_c, 0, 74, 50
2, 133248, Note_on_c, 0, 71, 50
2, 133248, Note_on_c, 0, 67, 50
2, 133296, Note_off_c, 0, 77, 100
2, 133344, Note_on_c, 0, 76, 50
2, 133376, Note_off_c, 0, 74, 100
2, 133376, Note_off_c, 0, 71, 100
2, 133376, Note_off_c, 0, 67, 100
2, 133408, Note_off_c, 0, 76, 100
2, 133440, Note_on_c, 0, 77, 50
2, 133440, Note_on_c, 0, 71, 50
2, 133440, Note_on_c, 0, 67, 50
2, 133504, Note_off_c, 0, 77, 100
2, 133536, Note_on_c, 0, 74, 50
2, 133568, Note_off_c, 0, 71, 100
2, 133568, Note_off_c, 0, 67, 100
2, 133600, Note_off_c, 0, 74, 100
2, 133632, Note_on_c, 0, 67, 50
2, 133664, Note_off_c, 0, 67, 100
2, 133680, Note_on_c, 0, 79, 50
2, 133712, Note_off_c, 0, 79, 100
2, 133728, Note_on_c, 0, 67, 50
2, 133760, Note_off_c, 0, 67, 100
2, 133776, Note_on_c, 0, 79, 50
2, 133808, Note_off_c, 0, 79, 100
2, 133824, Note_on_c, 0, 67, 50
2, 133856, Note_off_c, 0, 67, 100
2, 133872, Note_on_c, 0, 79, 50
2, 133904, Note_off_c, 0, 79, 100
2, 133920, Note_on_c, 0, 67, 50
2, 133952, Note_off_c, 0, 67, 100
2, 133968, Note_on_c, 0, 79, 50
2, 134000, Note_off_c, 0, 79, 100
2, 134016, Note_on_c, 0, 67, 50
2, 134048, Note_off_c, 0, 67, 100
2, 134064, Note_on_c, 0, 79, 50
2, 134096, Note_off_c, 0, 79, 100
2, 134112, Note_on_c, 0, 67, 50
2, 134144, Note_off_c, 0, 67, 100
2, 134160, Note_on_c, 0, 79, 50
2, 134192, Note_off_c, 0, 79, 100
2, 134208, Note_on_c, 0, 67, 50
2, 134240, Note_off_c, 0, 67, 100
2, 134256, Note_on_c, 0, 79, 50
2, 134288, Note_off_c, 0, 79, 100
2, 134304, Note_on_c, 0, 67, 50
2, 134336, Note_off_c, 0, 67, 100
2, 134352, Note_on_c, 0, 79, 50
2, 134384, Note_off_c, 0, 79, 100
2, 134400, Note_on_c, 0, 67, 50
2, 134432, Note_off_c, 0, 67, 100
2, 134448, Note_on_c, 0, 79, 50
2, 134480, Note_off_c, 0, 79, 100
2, 134496, Note_on_c, 0, 67, 50
2, 134528, Note_off_c, 0, 67, 100
2, 134544, Note_on_c, 0, 79, 50
2, 134576, Note_off_c, 0, 79, 100
2, 134592, Note_on_c, 0, 67, 50
2, 134624, Note_off_c, 0, 67, 100
2, 134640, Note_on_c, 0, 79, 50
2, 134672, Note_off_c, 0, 79, 100
2, 134688, Note_on_c, 0, 67, 50
2, 134720, Note_off_c, 0, 67, 100
2, 134736, Note_on_c, 0, 79, 50
2, 134768, Note_off_c, 0, 79, 100
2, 134784, Note_on_c, 0, 67, 50
2, 134816, Note_off_c, 0, 67, 100
2, 134832, Note_on_c, 0, 79, 50
2, 134864, Note_off_c, 0, 79, 100
2, 134880, Note_on_c, 0, 67, 50
2, 134912, Note_off_c, 0, 67, 100
2, 134928, Note_on_c, 0, 79, 50
2, 134960, Note_off_c, 0, 79, 100
2, 134976, Note_on_c, 0, 67, 50
2, 135008, Note_off_c, 0, 67, 100
2, 135024, Note_on_c, 0, 79, 50
2, 135056, Note_off_c, 0, 79, 100
2, 135072, Note_on_c, 0, 67, 50
2, 135104, Note_off_c, 0, 67, 100
2, 135120, Note_on_c, 0, 79, 50
2, 135152, Note_off_c, 0, 79, 100
2, 135168, Note_on_c, 0, 67, 50
2, 135200, Note_off_c, 0, 67, 100
2, 135216, Note_on_c, 0, 79, 50
2, 135248, Note_off_c, 0, 79, 100
2, 135264, Note_on_c, 0, 67, 50
2, 135296, Note_off_c, 0, 67, 100
2, 135312, Note_on_c, 0, 79, 50
2, 135344, Note_off_c, 0, 79, 100
2, 135360, Note_on_c, 0, 67, 50
2, 135392, Note_off_c, 0, 67, 100
2, 135408, Note_on_c, 0, 79, 50
2, 135440, Note_off_c, 0, 79, 100
2, 135456, Note_on_c, 0, 67, 50
2, 135488, Note_off_c, 0, 67, 100
2, 135504, Note_on_c, 0, 79, 50
2, 135536, Note_off_c, 0, 79, 100
2, 135552, Note_on_c, 0, 67, 50
2, 135584, Note_off_c, 0, 67, 100
2, 135600, Note_on_c, 0, 79, 50
2, 135632, Note_off_c, 0, 79, 100
2, 135648, Note_on_c, 0, 67, 50
2, 135680, Note_off_c, 0, 67, 100
2, 135696, Note_on_c, 0, 79, 50
2, 135728, Note_off_c, 0, 79, 100
2, 135744, Note_on_c, 0, 67, 50
2, 135776, Note_off_c, 0, 67, 100
2, 135792, Note_on_c, 0, 79, 50
2, 135824, Note_off_c, 0, 79, 100
2, 135840, Note_on_c, 0, 67, 50
2, 135872, Note_off_c, 0, 67, 100
2, 135888, Note_on_c, 0, 79, 50
2, 135920, Note_off_c, 0, 79, 100
2, 135936, Note_on_c, 0, 67, 50
2, 135968, Note_off_c, 0, 67, 100
2, 135984, Note_on_c, 0, 79, 50
2, 136016, Note_off_c, 0, 79, 100
2, 136032, Note_on_c, 0, 67, 50
2, 136064, Note_off_c, 0, 67, 100
2, 136080, Note_on_c, 0, 79, 50
2, 136112, Note_off_c, 0, 79, 100
2, 136128, Note_on_c, 0, 67, 50
2, 136160, Note_off_c, 0, 67, 100
2, 136176, Note_on_c, 0, 79, 50
2, 136208, Note_off_c, 0, 79, 100
2, 136224, Note_on_c, 0, 67, 50
2, 136256, Note_off_c, 0, 67, 100
2, 136272, Note_on_c, 0, 79, 50
2, 136304, Note_off_c, 0, 79, 100
2, 136320, Note_on_c, 0, 67, 50
2, 136352, Note_off_c, 0, 67, 100
2, 136368, Note_on_c, 0, 79, 50
2, 136400, Note_off_c, 0, 79, 100
2, 136416, Note_on_c, 0, 67, 50
2, 136448, Note_off_c, 0, 67, 100
2, 136464, Note_on_c, 0, 79, 50
2, 136496, Note_off_c, 0, 79, 100
2, 136512, Note_on_c, 0, 67, 50
2, 136544, Note_off_c, 0, 67, 100
2, 136560, Note_on_c, 0, 79, 50
2, 136592, Note_off_c, 0, 79, 100
2, 136608, Note_on_c, 0, 67, 50
2, 136640, Note_off_c, 0, 67, 100
2, 136656, Note_on_c, 0, 79, 50
2, 136688, Note_off_c, 0, 79, 100
2, 136704, Note_on_c, 0, 67, 75
2, 136736, Note_off_c, 0, 67, 100
2, 136752, Note_on_c, 0, 79, 75
2, 136784, Note_off_c, 0, 79, 100
2, 136800, Note_on_c, 0, 67, 75
2, 136832, Note_off_c, 0, 67, 100
2, 136848, Note_on_c, 0, 79, 75
2, 136880, Note_off_c, 0, 79, 100
2, 136896, Note_on_c, 0, 67, 50
2, 136928, Note_off_c, 0, 67, 100
2, 136944, Note_on_c, 0, 79, 50
2, 136976, Note_off_c, 0, 79, 100
2, 136992, Note_on_c, 0, 67, 50
2, 137024, Note_off_c, 0, 67, 100
2, 137040, Note_on_c, 0, 79, 50
2, 137072, Note_off_c, 0, 79, 100
2, 137088, Note_on_c, 0, 67, 50
2, 137120, Note_off_c, 0, 67, 100
2, 137136, Note_on_c, 0, 79, 50
2, 137168, Note_off_c, 0, 79, 100
2, 137184, Note_on_c, 0, 67, 50
2, 137216, Note_off_c, 0, 67, 100
2, 137232, Note_on_c, 0, 79, 50
2, 137264, Note_off_c, 0, 79, 100
2, 137280, Note_on_c, 0, 67, 50
2, 137312, Note_off_c, 0, 67, 100
2, 137328, Note_on_c, 0, 79, 50
2, 137360, Note_off_c, 0, 79, 100
2, 137376, Note_on_c, 0, 67, 50
2, 137408, Note_off_c, 0, 67, 100
2, 137424, Note_on_c, 0, 79, 50
2, 137456, Note_off_c, 0, 79, 100
2, 137472, Note_on_c, 0, 67, 75
2, 137504, Note_off_c, 0, 67, 100
2, 137520, Note_on_c, 0, 79, 75
2, 137552, Note_off_c, 0, 79, 100
2, 137568, Note_on_c, 0, 67, 75
2, 137600, Note_off_c, 0, 67, 100
2, 137616, Note_on_c, 0, 79, 75
2, 137648, Note_off_c, 0, 79, 100
2, 137664, Note_on_c, 0, 67, 50
2, 137696, Note_off_c, 0, 67, 100
2, 137712, Note_on_c, 0, 79, 50
2, 137744, Note_off_c, 0, 79, 100
2, 137760, Note_on_c, 0, 67, 50
2, 137792, Note_off_c, 0, 67, 100
2, 137808, Note_on_c, 0, 79, 50
2, 137840, Note_off_c, 0, 79, 100
2, 137856, Note_on_c, 0, 67, 50
2, 137888, Note_off_c, 0, 67, 100
2, 137904, Note_on_c, 0, 79, 50
2, 137936, Note_off_c, 0, 79, 100
2, 137952, Note_on_c, 0, 67, 50
2, 137984, Note_off_c, 0, 67, 100
2, 138000, Note_on_c, 0, 79, 50
2, 138032, Note_off_c, 0, 79, 100
2, 138048, Note_on_c, 0, 67, 50
2, 138080, Note_off_c, 0, 67, 100
2, 138096, Note_on_c, 0, 79, 50
2, 138128, Note_off_c, 0, 79, 100
2, 138144, Note_on_c, 0, 67, 50
2, 138176, Note_off_c, 0, 67, 100
2, 138192, Note_on_c, 0, 79, 50
2, 138224, Note_off_c, 0, 79, 100
2, 138240, Note_on_c, 0, 81, 50
2, 138288, Note_off_c, 0, 81, 100
2, 138304, Note_on_c, 0, 82, 50
2, 138352, Note_off_c, 0, 82, 100
2, 138384, Note_on_c, 0, 81, 50
2, 138432, Note_off_c, 0, 81, 100
2, 138432, Note_on_c, 0, 79, 50
2, 138480, Note_off_c, 0, 79, 100
2, 138496, Note_on_c, 0, 81, 50
2, 138544, Note_off_c, 0, 81, 100
2, 138560, Note_on_c, 0, 79, 50
2, 138608, Note_off_c, 0, 79, 100
2, 138624, Note_on_c, 0, 77, 50
2, 138672, Note_off_c, 0, 77, 100
2, 138688, Note_on_c, 0, 79, 50
2, 138736, Note_off_c, 0, 79, 100
2, 138752, Note_on_c, 0, 77, 50
2, 138800, Note_off_c, 0, 77, 100
2, 138816, Note_on_c, 0, 76, 50
2, 138864, Note_off_c, 0, 76, 100
2, 138880, Note_on_c, 0, 77, 50
2, 138928, Note_off_c, 0, 77, 100
2, 138944, Note_on_c, 0, 76, 50
2, 138992, Note_off_c, 0, 76, 100
2, 139008, Note_on_c, 0, 74, 50
2, 139056, Note_off_c, 0, 74, 100
2, 139072, Note_on_c, 0, 76, 50
2, 139120, Note_off_c, 0, 76, 100
2, 139136, Note_on_c, 0, 74, 50
2, 139184, Note_off_c, 0, 74, 100
2, 139200, Note_on_c, 0, 76, 50
2, 139248, Note_off_c, 0, 76, 100
2, 139264, Note_on_c, 0, 77, 50
2, 139312, Note_off_c, 0, 77, 100
2, 139328, Note_on_c, 0, 76, 50
2, 139376, Note_off_c, 0, 76, 100
2, 139392, Note_on_c, 0, 77, 50
2, 139440, Note_off_c, 0, 77, 100
2, 139456, Note_on_c, 0, 79, 50
2, 139504, Note_off_c, 0, 79, 100
2, 139520, Note_on_c, 0, 77, 50
2, 139568, Note_off_c, 0, 77, 100
2, 139584, Note_on_c, 0, 82, 75
2, 139632, Note_off_c, 0, 82, 100
2, 139648, Note_on_c, 0, 84, 75
2, 139696, Note_off_c, 0, 84, 100
2, 139712, Note_on_c, 0, 82, 75
2, 139760, Note_off_c, 0, 82, 100
2, 139776, Note_on_c, 0, 81, 50
2, 139824, Note_off_c, 0, 81, 100
2, 139840, Note_on_c, 0, 82, 50
2, 139888, Note_off_c, 0, 82, 100
2, 139904, Note_on_c, 0, 81, 50
2, 139952, Note_off_c, 0, 81, 100
2, 139968, Note_on_c, 0, 79, 50
2, 140016, Note_off_c, 0, 79, 100
2, 140032, Note_on_c, 0, 81, 50
2, 140080, Note_off_c, 0, 81, 100
2, 140096, Note_on_c, 0, 79, 50
2, 140144, Note_off_c, 0, 79, 100
2, 140160, Note_on_c, 0, 77, 50
2, 140208, Note_off_c, 0, 77, 100
2, 140224, Note_on_c, 0, 79, 50
2, 140272, Note_off_c, 0, 79, 100
2, 140288, Note_on_c, 0, 77, 50
2, 140336, Note_off_c, 0, 77, 100
2, 140352, Note_on_c, 0, 76, 50
2, 140400, Note_off_c, 0, 76, 100
2, 140416, Note_on_c, 0, 77, 50
2, 140464, Note_off_c, 0, 77, 100
2, 140480, Note_on_c, 0, 76, 50
2, 140528, Note_off_c, 0, 76, 100
2, 140544, Note_on_c, 0, 74, 50
2, 140592, Note_off_c, 0, 74, 100
2, 140608, Note_on_c, 0, 76, 50
2, 140656, Note_off_c, 0, 76, 100
2, 140672, Note_on_c, 0, 74, 50
2, 140720, Note_off_c, 0, 74, 100
2, 140736, Note_on_c, 0, 76, 50
2, 140784, Note_off_c, 0, 76, 100
2, 140800, Note_on_c, 0, 77, 50
2, 140848, Note_off_c, 0, 77, 100
2, 140864, Note_on_c, 0, 76, 50
2, 140912, Note_off_c, 0, 76, 100
2, 140928, Note_on_c, 0, 77, 50
2, 140976, Note_off_c, 0, 77, 100
2, 140992, Note_on_c, 0, 79, 50
2, 141040, Note_off_c, 0, 79, 100
2, 141056, Note_on_c, 0, 77, 50
2, 141104, Note_off_c, 0, 77, 100
2, 141120, Note_on_c, 0, 82, 75
2, 141168, Note_off_c, 0, 82, 100
2, 141184, Note_on_c, 0, 84, 75
2, 141232, Note_off_c, 0, 84, 100
2, 141248, Note_on_c, 0, 82, 75
2, 141296, Note_off_c, 0, 82, 100
2, 141312, Note_on_c, 0, 81, 50
2, 141360, Note_off_c, 0, 81, 100
2, 141376, Note_on_c, 0, 84, 50
2, 141424, Note_off_c, 0, 84, 100
2, 141440, Note_on_c, 0, 83, 50
2, 141488, Note_off_c, 0, 83, 100
2, 141504, Note_on_c, 0, 81, 50
2, 141552, Note_off_c, 0, 81, 100
2, 141568, Note_on_c, 0, 83, 50
2, 141616, Note_off_c, 0, 83, 100
2, 141632, Note_on_c, 0, 84, 50
2, 141680, Note_off_c, 0, 84, 100
2, 141696, Note_on_c, 0, 77, 50
2, 141744, Note_off_c, 0, 77, 100
2, 141760, Note_on_c, 0, 81, 50
2, 141808, Note_off_c, 0, 81, 100
2, 141824, Note_on_c, 0, 79, 50
2, 141872, Note_off_c, 0, 79, 100
2, 141888, Note_on_c, 0, 77, 50
2, 141936, Note_off_c, 0, 77, 100
2, 141952, Note_on_c, 0, 79, 50
2, 142000, Note_off_c, 0, 79, 100
2, 142016, Note_on_c, 0, 81, 50
2, 142064, Note_off_c, 0, 81, 100
2, 142080, Note_on_c, 0, 74, 50
2, 142128, Note_off_c, 0, 74, 100
2, 142144, Note_on_c, 0, 77, 50
2, 142192, Note_off_c, 0, 77, 100
2, 142208, Note_on_c, 0, 76, 50
2, 142256, Note_off_c, 0, 76, 100
2, 142272, Note_on_c, 0, 74, 50
2, 142320, Note_off_c, 0, 74, 100
2, 142336, Note_on_c, 0, 76, 50
2, 142384, Note_off_c, 0, 76, 100
2, 142400, Note_on_c, 0, 77, 50
2, 142448, Note_off_c, 0, 77, 100
2, 142464, Note_on_c, 0, 69, 50
2, 142512, Note_off_c, 0, 69, 100
2, 142528, Note_on_c, 0, 72, 50
2, 142576, Note_off_c, 0, 72, 100
2, 142592, Note_on_c, 0, 71, 50
2, 142640, Note_off_c, 0, 71, 100
2, 142656, Note_on_c, 0, 69, 50
2, 142704, Note_off_c, 0, 69, 100
2, 142720, Note_on_c, 0, 71, 50
2, 142768, Note_off_c, 0, 71, 100
2, 142784, Note_on_c, 0, 72, 50
2, 142832, Note_off_c, 0, 72, 100
2, 142848, Note_on_c, 0, 71, 50
2, 142896, Note_off_c, 0, 71, 100
2, 142912, Note_on_c, 0, 67, 50
2, 142960, Note_off_c, 0, 67, 100
2, 142976, Note_on_c, 0, 71, 50
2, 143024, Note_off_c, 0, 71, 100
2, 143040, Note_on_c, 0, 74, 50
2, 143088, Note_off_c, 0, 74, 100
2, 143104, Note_on_c, 0, 71, 50
2, 143152, Note_off_c, 0, 71, 100
2, 143168, Note_on_c, 0, 74, 50
2, 143216, Note_off_c, 0, 74, 100
2, 143232, Note_on_c, 0, 79, 50
2, 143280, Note_off_c, 0, 79, 100
2, 143296, Note_on_c, 0, 74, 50
2, 143344, Note_off_c, 0, 74, 100
2, 143360, Note_on_c, 0, 79, 50
2, 143408, Note_off_c, 0, 79, 100
2, 143424, Note_on_c, 0, 83, 50
2, 143472, Note_off_c, 0, 83, 100
2, 143488, Note_on_c, 0, 79, 50
2, 143536, Note_off_c, 0, 79, 100
2, 143552, Note_on_c, 0, 83, 50
2, 143600, Note_off_c, 0, 83, 100
2, 143616, Note_on_c, 0, 86, 50
2, 143664, Note_off_c, 0, 86, 100
2, 143680, Note_on_c, 0, 83, 50
2, 143728, Note_off_c, 0, 83, 100
2, 143744, Note_on_c, 0, 86, 50
2, 143792, Note_off_c, 0, 86, 100
2, 143808, Note_on_c, 0, 89, 75
2, 143808, Note_on_c, 0, 77, 75
2, 144192, Note_off_c, 0, 89, 100
2, 144192, Note_off_c, 0, 77, 100
2, 144384, Note_on_c, 0, 89, 50
2, 144384, Note_on_c, 0, 77, 50
2, 144448, Note_off_c, 0, 89, 100
2, 144448, Note_off_c, 0, 77, 100
2, 144480, Note_on_c, 0, 89, 50
2, 144544, Note_off_c, 0, 89, 100
2, 144576, Note_on_c, 0, 87, 50
2, 144640, Note_off_c, 0, 87, 100
2, 144672, Note_on_c, 0, 88, 50
2, 144736, Note_off_c, 0, 88, 100
2, 144768, Note_on_c, 0, 85, 50
2, 144832, Note_off_c, 0, 85, 100
2, 144864, Note_on_c, 0, 86, 50
2, 144928, Note_off_c, 0, 86, 100
2, 144960, Note_on_c, 0, 83, 50
2, 145024, Note_off_c, 0, 83, 100
2, 145056, Note_on_c, 0, 84, 50
2, 145120, Note_off_c, 0, 84, 100
2, 145152, Note_on_c, 0, 82, 50
2, 145216, Note_off_c, 0, 82, 100
2, 145248, Note_on_c, 0, 83, 50
2, 145312, Note_off_c, 0, 83, 100
2, 145344, Note_on_c, 0, 80, 50
2, 145408, Note_off_c, 0, 80, 100
2, 145440, Note_on_c, 0, 81, 50
2, 145504, Note_off_c, 0, 81, 100
2, 145536, Note_on_c, 0, 78, 50
2, 145600, Note_off_c, 0, 78, 100
2, 145632, Note_on_c, 0, 79, 50
2, 145696, Note_off_c, 0, 79, 100
2, 145728, Note_on_c, 0, 77, 50
2, 145792, Note_off_c, 0, 77, 100
2, 145824, Note_on_c, 0, 79, 50
2, 145888, Note_off_c, 0, 79, 100
2, 145920, Note_on_c, 0, 77, 50
2, 145920, Note_on_c, 0, 60, 50
2, 145984, Note_off_c, 0, 77, 100
2, 145984, Note_off_c, 0, 60, 100
2, 145984, Note_on_c, 0, 76, 50
2, 146016, Note_on_c, 0, 64, 50
2, 146080, Note_off_c, 0, 76, 100
2, 146080, Note_off_c, 0, 64, 100
2, 146112, Note_on_c, 0, 74, 50
2, 146112, Note_on_c, 0, 67, 50
2, 146176, Note_off_c, 0, 74, 100
2, 146176, Note_off_c, 0, 67, 100
2, 146208, Note_on_c, 0, 72, 50
2, 146208, Note_on_c, 0, 64, 50
2, 146272, Note_off_c, 0, 72, 100
2, 146272, Note_off_c, 0, 64, 100
2, 146304, Note_on_c, 0, 72, 50
2, 146304, Note_on_c, 0, 60, 50
2, 146368, Note_off_c, 0, 60, 100
2, 146400, Note_on_c, 0, 64, 50
2, 146432, Note_off_c, 0, 72, 100
2, 146464, Note_off_c, 0, 64, 100
2, 146496, Note_on_c, 0, 72, 50
2, 146496, Note_on_c, 0, 67, 50
2, 146560, Note_off_c, 0, 67, 100
2, 146592, Note_on_c, 0, 64, 50
2, 146624, Note_off_c, 0, 72, 100
2, 146656, Note_off_c, 0, 64, 100
2, 146688, Note_on_c, 0, 71, 50
2, 146688, Note_on_c, 0, 60, 50
2, 146720, Note_off_c, 0, 71, 100
2, 146736, Note_on_c, 0, 72, 50
2, 146752, Note_off_c, 0, 60, 100
2, 146768, Note_off_c, 0, 72, 100
2, 146784, Note_on_c, 0, 74, 50
2, 146784, Note_on_c, 0, 64, 50
2, 146816, Note_off_c, 0, 74, 100
2, 146832, Note_on_c, 0, 72, 50
2, 146848, Note_off_c, 0, 64, 100
2, 146880, Note_on_c, 0, 67, 50
2, 146944, Note_off_c, 0, 67, 100
2, 146976, Note_on_c, 0, 64, 50
2, 147024, Note_off_c, 0, 72, 100
2, 147040, Note_off_c, 0, 64, 100
2, 147072, Note_on_c, 0, 60, 50
2, 147136, Note_off_c, 0, 60, 100
2, 147168, Note_on_c, 0, 64, 50
2, 147232, Note_off_c, 0, 64, 100
2, 147264, Note_on_c, 0, 84, 50
2, 147264, Note_on_c, 0, 67, 50
2, 147328, Note_off_c, 0, 67, 100
2, 147360, Note_on_c, 0, 64, 50
2, 147392, Note_off_c, 0, 84, 100
2, 147424, Note_off_c, 0, 64, 100
2, 147456, Note_on_c, 0, 83, 50
2, 147456, Note_on_c, 0, 60, 50
2, 147520, Note_off_c, 0, 83, 100
2, 147520, Note_off_c, 0, 60, 100
2, 147520, Note_on_c, 0, 81, 50
2, 147552, Note_on_c, 0, 65, 50
2, 147616, Note_off_c, 0, 81, 100
2, 147616, Note_off_c, 0, 65, 100
2, 147648, Note_on_c, 0, 79, 50
2, 147648, Note_on_c, 0, 69, 50
2, 147712, Note_off_c, 0, 79, 100
2, 147712, Note_off_c, 0, 69, 100
2, 147744, Note_on_c, 0, 77, 50
2, 147744, Note_on_c, 0, 65, 50
2, 147808, Note_off_c, 0, 77, 100
2, 147808, Note_off_c, 0, 65, 100
2, 147840, Note_on_c, 0, 77, 50
2, 147840, Note_on_c, 0, 60, 50
2, 147904, Note_off_c, 0, 60, 100
2, 147936, Note_on_c, 0, 65, 50
2, 147968, Note_off_c, 0, 77, 100
2, 148000, Note_off_c, 0, 65, 100
2, 148032, Note_on_c, 0, 77, 50
2, 148032, Note_on_c, 0, 69, 50
2, 148096, Note_off_c, 0, 69, 100
2, 148128, Note_on_c, 0, 65, 50
2, 148160, Note_off_c, 0, 77, 100
2, 148192, Note_off_c, 0, 65, 100
2, 148224, Note_on_c, 0, 76, 50
2, 148224, Note_on_c, 0, 60, 50
2, 148256, Note_off_c, 0, 76, 100
2, 148272, Note_on_c, 0, 77, 50
2, 148288, Note_off_c, 0, 60, 100
2, 148304, Note_off_c, 0, 77, 100
2, 148320, Note_on_c, 0, 81, 50
2, 148320, Note_on_c, 0, 65, 50
2, 148352, Note_off_c, 0, 81, 100
2, 148368, Note_on_c, 0, 77, 50
2, 148384, Note_off_c, 0, 65, 100
2, 148416, Note_on_c, 0, 69, 50
2, 148480, Note_off_c, 0, 69, 100
2, 148512, Note_on_c, 0, 65, 50
2, 148560, Note_off_c, 0, 77, 100
2, 148576, Note_off_c, 0, 65, 100
2, 148608, Note_on_c, 0, 60, 50
2, 148672, Note_off_c, 0, 60, 100
2, 148704, Note_on_c, 0, 65, 50
2, 148768, Note_off_c, 0, 65, 100
2, 148800, Note_on_c, 0, 81, 50
2, 148800, Note_on_c, 0, 69, 50
2, 148864, Note_off_c, 0, 69, 100
2, 148896, Note_on_c, 0, 65, 50
2, 148928, Note_off_c, 0, 81, 100
2, 148960, Note_off_c, 0, 65, 100
2, 148992, Note_on_c, 0, 81, 50
2, 148992, Note_on_c, 0, 60, 50
2, 149056, Note_off_c, 0, 81, 100
2, 149056, Note_off_c, 0, 60, 100
2, 149056, Note_on_c, 0, 79, 50
2, 149088, Note_on_c, 0, 64, 50
2, 149152, Note_off_c, 0, 79, 100
2, 149152, Note_off_c, 0, 64, 100
2, 149184, Note_on_c, 0, 77, 50
2, 149184, Note_on_c, 0, 67, 50
2, 149248, Note_off_c, 0, 77, 100
2, 149248, Note_off_c, 0, 67, 100
2, 149280, Note_on_c, 0, 76, 50
2, 149280, Note_on_c, 0, 64, 50
2, 149344, Note_off_c, 0, 76, 100
2, 149344, Note_off_c, 0, 64, 100
2, 149376, Note_on_c, 0, 76, 50
2, 149376, Note_on_c, 0, 61, 50
2, 149440, Note_off_c, 0, 61, 100
2, 149472, Note_on_c, 0, 69, 50
2, 149504, Note_off_c, 0, 76, 100
2, 149536, Note_off_c, 0, 69, 100
2, 149568, Note_on_c, 0, 79, 50
2, 149568, Note_on_c, 0, 70, 50
2, 149632, Note_off_c, 0, 70, 100
2, 149664, Note_on_c, 0, 69, 50
2, 149696, Note_off_c, 0, 79, 100
2, 149728, Note_off_c, 0, 69, 100
2, 149760, Note_on_c, 0, 79, 50
2, 149760, Note_on_c, 0, 62, 50
2, 149824, Note_off_c, 0, 79, 100
2, 149824, Note_off_c, 0, 62, 100
2, 149824, Note_on_c, 0, 77, 50
2, 149856, Note_on_c, 0, 65, 50
2, 149920, Note_off_c, 0, 77, 100
2, 149920, Note_off_c, 0, 65, 100
2, 149952, Note_on_c, 0, 76, 50
2, 149952, Note_on_c, 0, 69, 50
2, 150016, Note_off_c, 0, 76, 100
2, 150016, Note_off_c, 0, 69, 100
2, 150048, Note_on_c, 0, 74, 50
2, 150048, Note_on_c, 0, 65, 50
2, 150112, Note_off_c, 0, 74, 100
2, 150112, Note_off_c, 0, 65, 100
2, 150144, Note_on_c, 0, 74, 50
2, 150144, Note_on_c, 0, 59, 50
2, 150208, Note_off_c, 0, 59, 100
2, 150240, Note_on_c, 0, 67, 50
2, 150272, Note_off_c, 0, 74, 100
2, 150304, Note_off_c, 0, 67, 100
2, 150336, Note_on_c, 0, 77, 50
2, 150336, Note_on_c, 0, 68, 50
2, 150400, Note_off_c, 0, 68, 100
2, 150432, Note_on_c, 0, 67, 50
2, 150464, Note_off_c, 0, 77, 100
2, 150496, Note_off_c, 0, 67, 100
2, 150528, Note_on_c, 0, 77, 50
2, 150528, Note_on_c, 0, 60, 50
2, 150592, Note_off_c, 0, 77, 100
2, 150592, Note_off_c, 0, 60, 100
2, 150592, Note_on_c, 0, 76, 50
2, 150624, Note_on_c, 0, 67, 50
2, 150688, Note_off_c, 0, 76, 100
2, 150688, Note_off_c, 0, 67, 100
2, 150720, Note_on_c, 0, 74, 50
2, 150720, Note_on_c, 0, 64, 50
2, 150784, Note_off_c, 0, 74, 100
2, 150784, Note_off_c, 0, 64, 100
2, 150816, Note_on_c, 0, 72, 50
2, 150816, Note_on_c, 0, 67, 50
2, 150880, Note_off_c, 0, 72, 100
2, 150880, Note_off_c, 0, 67, 100
2, 150912, Note_on_c, 0, 62, 50
2, 150928, Note_on_c, 0, 71, 50
2, 150976, Note_off_c, 0, 62, 100
2, 151008, Note_on_c, 0, 65, 50
2, 151056, Note_off_c, 0, 71, 100
2, 151072, Note_off_c, 0, 65, 100
2, 151104, Note_on_c, 0, 72, 50
2, 151104, Note_on_c, 0, 60, 50
2, 151168, Note_off_c, 0, 60, 100
2, 151200, Note_on_c, 0, 64, 50
2, 151232, Note_off_c, 0, 72, 100
2, 151264, Note_off_c, 0, 64, 100
2, 151296, Note_on_c, 0, 76, 50
2, 151296, Note_on_c, 0, 55, 50
2, 151360, Note_off_c, 0, 55, 100
2, 151392, Note_on_c, 0, 60, 50
2, 151456, Note_off_c, 0, 60, 100
2, 151488, Note_on_c, 0, 64, 50
2, 151552, Note_off_c, 0, 76, 100
2, 151552, Note_off_c, 0, 64, 100
2, 151584, Note_on_c, 0, 60, 50
2, 151648, Note_off_c, 0, 60, 100
2, 151680, Note_on_c, 0, 74, 50
2, 151680, Note_on_c, 0, 59, 50
2, 151680, Note_on_c, 0, 55, 50
2, 151744, Note_off_c, 0, 74, 100
2, 151776, Note_on_c, 0, 79, 50
2, 151808, Note_off_c, 0, 59, 100
2, 151808, Note_off_c, 0, 55, 100
2, 151840, Note_off_c, 0, 79, 100
2, 151872, Note_on_c, 0, 78, 50
2, 151936, Note_off_c, 0, 78, 100
2, 151968, Note_on_c, 0, 77, 50
2, 152032, Note_off_c, 0, 77, 100
2, 152064, Note_on_c, 0, 77, 75
2, 152128, Note_off_c, 0, 77, 100
2, 152128, Note_on_c, 0, 76, 75
2, 152224, Note_off_c, 0, 76, 100
2, 152256, Note_on_c, 0, 74, 75
2, 152320, Note_off_c, 0, 74, 100
2, 152352, Note_on_c, 0, 72, 75
2, 152416, Note_off_c, 0, 72, 100
2, 152448, Note_on_c, 0, 72, 75
2, 152512, Note_off_c, 0, 72, 100
2, 152544, Note_on_c, 0, 72, 75
2, 152608, Note_off_c, 0, 72, 100
2, 152640, Note_on_c, 0, 72, 75
2, 152704, Note_off_c, 0, 72, 100
2, 152736, Note_on_c, 0, 72, 75
2, 152800, Note_off_c, 0, 72, 100
2, 152832, Note_on_c, 0, 72, 75
2, 153216, Note_off_c, 0, 72, 100
2, 153408, Note_on_c, 0, 84, 75
2, 153536, Note_off_c, 0, 84, 100
2, 153600, Note_on_c, 0, 83, 75
2, 153664, Note_off_c, 0, 83, 100
2, 153664, Note_on_c, 0, 81, 75
2, 153760, Note_off_c, 0, 81, 100
2, 153792, Note_on_c, 0, 79, 75
2, 153856, Note_off_c, 0, 79, 100
2, 153888, Note_on_c, 0, 77, 75
2, 153952, Note_off_c, 0, 77, 100
2, 153984, Note_on_c, 0, 77, 75
2, 154048, Note_off_c, 0, 77, 100
2, 154080, Note_on_c, 0, 77, 75
2, 154144, Note_off_c, 0, 77, 100
2, 154176, Note_on_c, 0, 77, 75
2, 154240, Note_off_c, 0, 77, 100
2, 154272, Note_on_c, 0, 77, 75
2, 154336, Note_off_c, 0, 77, 100
2, 154368, Note_on_c, 0, 77, 75
2, 154624, Note_off_c, 0, 77, 100
2, 154752, Note_on_c, 0, 77, 75
2, 154816, Note_off_c, 0, 77, 100
2, 154848, Note_on_c, 0, 81, 75
2, 154912, Note_off_c, 0, 81, 100
2, 154944, Note_on_c, 0, 84, 75
2, 155008, Note_off_c, 0, 84, 100
2, 155040, Note_on_c, 0, 81, 75
2, 155104, Note_off_c, 0, 81, 100
2, 155136, Note_on_c, 0, 78, 75
2, 155200, Note_off_c, 0, 78, 100
2, 155232, Note_on_c, 0, 79, 75
2, 155296, Note_off_c, 0, 79, 100
2, 155328, Note_on_c, 0, 88, 75
2, 155456, Note_off_c, 0, 88, 100
2, 155520, Note_on_c, 0, 88, 75
2, 155584, Note_off_c, 0, 88, 100
2, 155616, Note_on_c, 0, 79, 75
2, 155680, Note_off_c, 0, 79, 100
2, 155712, Note_on_c, 0, 81, 75
2, 155776, Note_off_c, 0, 81, 100
2, 155808, Note_on_c, 0, 76, 75
2, 155872, Note_off_c, 0, 76, 100
2, 155904, Note_on_c, 0, 79, 75
2, 155968, Note_off_c, 0, 79, 100
2, 156000, Note_on_c, 0, 78, 75
2, 156064, Note_off_c, 0, 78, 100
2, 156096, Note_on_c, 0, 86, 75
2, 156224, Note_off_c, 0, 86, 100
2, 156288, Note_on_c, 0, 86, 75
2, 156352, Note_off_c, 0, 86, 100
2, 156384, Note_on_c, 0, 77, 75
2, 156448, Note_off_c, 0, 77, 100
2, 156480, Note_on_c, 0, 79, 75
2, 156544, Note_off_c, 0, 79, 100
2, 156576, Note_on_c, 0, 74, 75
2, 156640, Note_off_c, 0, 74, 100
2, 156672, Note_on_c, 0, 77, 75
2, 156736, Note_off_c, 0, 77, 100
2, 156768, Note_on_c, 0, 76, 75
2, 156832, Note_off_c, 0, 76, 100
2, 156864, Note_on_c, 0, 77, 75
2, 156928, Note_off_c, 0, 77, 100
2, 156960, Note_on_c, 0, 76, 75
2, 156992, Note_off_c, 0, 76, 100
2, 157008, Note_on_c, 0, 74, 75
2, 157040, Note_off_c, 0, 74, 100
2, 157056, Note_on_c, 0, 72, 75
2, 157184, Note_off_c, 0, 72, 100
2, 157248, Note_on_c, 0, 71, 75
2, 157376, Note_off_c, 0, 71, 100
2, 157440, Note_on_c, 0, 79, 75
2, 157488, Note_off_c, 0, 79, 100
2, 157504, Note_on_c, 0, 76, 75
2, 157552, Note_off_c, 0, 76, 100
2, 157568, Note_on_c, 0, 79, 75
2, 157616, Note_off_c, 0, 79, 100
2, 157632, Note_on_c, 0, 84, 75
2, 157680, Note_off_c, 0, 84, 100
2, 157696, Note_on_c, 0, 79, 75
2, 157744, Note_off_c, 0, 79, 100
2, 157760, Note_on_c, 0, 84, 75
2, 157808, Note_off_c, 0, 84, 100
2, 157824, Note_on_c, 0, 88, 75
2, 157872, Note_off_c, 0, 88, 100
2, 157888, Note_on_c, 0, 86, 75
2, 157936, Note_off_c, 0, 86, 100
2, 157952, Note_on_c, 0, 84, 75
2, 158000, Note_off_c, 0, 84, 100
2, 158016, Note_on_c, 0, 82, 75
2, 158064, Note_off_c, 0, 82, 100
2, 158080, Note_on_c, 0, 81, 75
2, 158128, Note_off_c, 0, 81, 100
2, 158144, Note_on_c, 0, 79, 75
2, 158192, Note_off_c, 0, 79, 100
2, 158208, Note_on_c, 0, 77, 75
2, 158256, Note_off_c, 0, 77, 100
2, 158272, Note_on_c, 0, 79, 75
2, 158320, Note_off_c, 0, 79, 100
2, 158336, Note_on_c, 0, 77, 75
2, 158384, Note_off_c, 0, 77, 100
2, 158400, Note_on_c, 0, 76, 75
2, 158448, Note_off_c, 0, 76, 100
2, 158464, Note_on_c, 0, 74, 75
2, 158512, Note_off_c, 0, 74, 100
2, 158528, Note_on_c, 0, 72, 75
2, 158576, Note_off_c, 0, 72, 100
2, 158592, Note_on_c, 0, 71, 75
2, 158640, Note_off_c, 0, 71, 100
2, 158656, Note_on_c, 0, 69, 75
2, 158704, Note_off_c, 0, 69, 100
2, 158720, Note_on_c, 0, 67, 75
2, 158768, Note_off_c, 0, 67, 100
2, 158784, Note_on_c, 0, 65, 75
2, 158832, Note_off_c, 0, 65, 100
2, 158848, Note_on_c, 0, 64, 75
2, 158896, Note_off_c, 0, 64, 100
2, 158912, Note_on_c, 0, 62, 75
2, 158960, Note_off_c, 0, 62, 100
2, 158976, Note_on_c, 0, 64, 75
2, 159024, Note_off_c, 0, 64, 100
2, 159040, Note_on_c, 0, 67, 75
2, 159088, Note_off_c, 0, 67, 100
2, 159104, Note_on_c, 0, 72, 75
2, 159152, Note_off_c, 0, 72, 100
2, 159168, Note_on_c, 0, 69, 75
2, 159216, Note_off_c, 0, 69, 100
2, 159232, Note_on_c, 0, 65, 75
2, 159280, Note_off_c, 0, 65, 100
2, 159296, Note_on_c, 0, 62, 75
2, 159344, Note_off_c, 0, 62, 100
2, 159360, Note_on_c, 0, 60, 75
2, 159488, Note_off_c, 0, 60, 100
2, 159552, Note_on_c, 0, 62, 75
2, 159572, Note_off_c, 0, 62, 0
2, 159576, Note_on_c, 0, 64, 75
2, 159596, Note_off_c, 0, 64, 0
2, 159600, Note_on_c, 0, 62, 75
2, 159620, Note_off_c, 0, 62, 0
2, 159624, Note_on_c, 0, 64, 75
2, 159644, Note_off_c, 0, 64, 0
2, 159648, Note_on_c, 0, 62, 75
2, 159668, Note_off_c, 0, 62, 0
2, 159672, Note_on_c, 0, 64, 75
2, 159692, Note_off_c, 0, 64, 0
2, 159696, Note_on_c, 0, 60, 75
2, 159716, Note_off_c, 0, 60, 0
2, 159720, Note_on_c, 0, 62, 75
2, 159740, Note_off_c, 0, 62, 0
2, 159744, Note_on_c, 0, 60, 75
2, 159872, Note_off_c, 0, 60, 100
2, 159936, Note_on_c, 0, 76, 75
2, 159984, Note_off_c, 0, 76, 100
2, 160000, Note_on_c, 0, 74, 75
2, 160048, Note_off_c, 0, 74, 100
2, 160064, Note_on_c, 0, 72, 75
2, 160112, Note_off_c, 0, 72, 100
2, 160128, Note_on_c, 0, 71, 75
2, 160176, Note_off_c, 0, 71, 100
2, 160192, Note_on_c, 0, 74, 75
2, 160240, Note_off_c, 0, 74, 100
2, 160256, Note_on_c, 0, 72, 75
2, 160304, Note_off_c, 0, 72, 100
2, 160320, Note_on_c, 0, 76, 75
2, 160368, Note_off_c, 0, 76, 100
2, 160384, Note_on_c, 0, 68, 75
2, 160432, Note_off_c, 0, 68, 100
2, 160448, Note_on_c, 0, 74, 75
2, 160496, Note_off_c, 0, 74, 100
2, 160512, Note_on_c, 0, 69, 75
2, 160560, Note_off_c, 0, 69, 100
2, 160576, Note_on_c, 0, 72, 75
2, 160624, Note_off_c, 0, 72, 100
2, 160640, Note_on_c, 0, 71, 75
2, 160688, Note_off_c, 0, 71, 100
2, 160704, Note_on_c, 0, 69, 75
2, 160752, Note_off_c, 0, 69, 100
2, 160768, Note_on_c, 0, 67, 75
2, 160816, Note_off_c, 0, 67, 100
2, 160832, Note_on_c, 0, 65, 75
2, 160880, Note_off_c, 0, 65, 100
2, 160896, Note_on_c, 0, 62, 75
2, 160944, Note_off_c, 0, 62, 100
2, 160960, Note_on_c, 0, 67, 75
2, 161008, Note_off_c, 0, 67, 100
2, 161024, Note_on_c, 0, 65, 75
2, 161072, Note_off_c, 0, 65, 100
2, 161088, Note_on_c, 0, 69, 75
2, 161136, Note_off_c, 0, 69, 100
2, 161152, Note_on_c, 0, 61, 75
2, 161200, Note_off_c, 0, 61, 100
2, 161216, Note_on_c, 0, 64, 75
2, 161264, Note_off_c, 0, 64, 100
2, 161280, Note_on_c, 0, 62, 75
2, 161328, Note_off_c, 0, 62, 100
2, 161344, Note_on_c, 0, 65, 75
2, 161392, Note_off_c, 0, 65, 100
2, 161408, Note_on_c, 0, 64, 75
2, 161456, Note_off_c, 0, 64, 100
2, 161472, Note_on_c, 0, 62, 75
2, 161520, Note_off_c, 0, 62, 100
2, 161536, Note_on_c, 0, 60, 75
2, 161584, Note_off_c, 0, 60, 100
2, 161600, Note_on_c, 0, 59, 75
2, 161648, Note_off_c, 0, 59, 100
2, 162432, Note_on_c, 0, 55, 50
2, 162496, Note_off_c, 0, 55, 100
2, 162528, Note_on_c, 0, 57, 50
2, 162592, Note_off_c, 0, 57, 100
2, 162608, Note_on_c, 0, 59, 50
2, 162672, Note_off_c, 0, 59, 100
2, 162704, Note_on_c, 0, 60, 50
2, 162768, Note_off_c, 0, 60, 100
2, 162816, Note_on_c, 0, 62, 52
2, 162944, Note_off_c, 0, 62, 100
2, 163200, Note_on_c, 0, 67, 57
2, 163264, Note_off_c, 0, 67, 100
2, 163296, Note_on_c, 0, 69, 62
2, 163360, Note_off_c, 0, 69, 100
2, 163392, Note_on_c, 0, 71, 67
2, 163456, Note_off_c, 0, 71, 100
2, 163488, Note_on_c, 0, 72, 72
2, 163552, Note_off_c, 0, 72, 100
2, 163584, Note_on_c, 0, 74, 75
2, 163712, Note_off_c, 0, 74, 100
2, 163968, Note_on_c, 0, 71, 75
2, 164032, Note_off_c, 0, 71, 100
2, 164064, Note_on_c, 0, 72, 75
2, 164128, Note_off_c, 0, 72, 100
2, 164160, Note_on_c, 0, 74, 75
2, 164224, Note_off_c, 0, 74, 100
2, 164256, Note_on_c, 0, 76, 75
2, 164320, Note_off_c, 0, 76, 100
2, 164352, Note_on_c, 0, 77, 50
2, 164416, Note_off_c, 0, 77, 100
2, 164736, Note_on_c, 0, 72, 50
2, 164800, Note_off_c, 0, 72, 100
2, 164832, Note_on_c, 0, 74, 50
2, 164896, Note_off_c, 0, 74, 100
2, 164928, Note_on_c, 0, 76, 50
2, 164992, Note_off_c, 0, 76, 100
2, 165024, Note_on_c, 0, 77, 50
2, 165088, Note_off_c, 0, 77, 100
2, 165120, Note_on_c, 0, 79, 50
2, 165248, Note_off_c, 0, 79, 100
2, 165312, Note_on_c, 0, 81, 50
2, 165440, Note_off_c, 0, 81, 100
2, 165504, Note_on_c, 0, 79, 50
2, 165632, Note_off_c, 0, 79, 100
2, 165696, Note_on_c, 0, 78, 50
2, 165824, Note_off_c, 0, 78, 100
2, 165888, Note_on_c, 0, 77, 50
2, 166016, Note_off_c, 0, 77, 100
2, 166272, Note_on_c, 0, 76, 50
2, 166400, Note_off_c, 0, 76, 100
2, 166848, Note_on_c, 0, 74, 50
2, 166976, Note_off_c, 0, 74, 100
2, 167040, Note_on_c, 0, 77, 50
2, 167168, Note_off_c, 0, 77, 100
2, 167232, Note_on_c, 0, 71, 50
2, 167360, Note_off_c, 0, 71, 100
2, 167424, Note_on_c, 0, 72, 50
2, 167552, Note_off_c, 0, 72, 100
2, 169152, Note_on_c, 0, 83, 75
2, 169152, Note_on_c, 0, 80, 75
2, 169152, Note_on_c, 0, 74, 75
2, 169280, Note_off_c, 0, 83, 100
2, 169280, Note_off_c, 0, 80, 100
2, 169280, Note_off_c, 0, 74, 100
2, 169536, Note_on_c, 0, 82, 75
2, 169536, Note_on_c, 0, 79, 75
2, 169536, Note_on_c, 0, 73, 75
2, 169664, Note_off_c, 0, 82, 100
2, 169664, Note_off_c, 0, 79, 100
2, 169664, Note_off_c, 0, 73, 100
2, 169792, Note_on_c, 0, 81, 75
2, 169816, Note_off_c, 0, 81, 100
2, 169856, Note_on_c, 0, 79, 75
2, 169880, Note_off_c, 0, 79, 100
2, 169920, Note_on_c, 0, 81, 75
2, 169944, Note_off_c, 0, 81, 100
2, 169984, Note_on_c, 0, 77, 75
2, 170008, Note_off_c, 0, 77, 100
2, 170048, Note_on_c, 0, 74, 75
2, 170072, Note_off_c, 0, 74, 100
2, 170112, Note_on_c, 0, 72, 75
2, 170240, Note_off_c, 0, 72, 100
2, 170304, Note_on_c, 0, 74, 75
2, 170432, Note_off_c, 0, 74, 100
2, 170496, Note_on_c, 0, 67, 82
2, 170528, Note_off_c, 0, 67, 100
2, 170544, Note_on_c, 0, 79, 82
2, 170576, Note_off_c, 0, 79, 100
2, 170592, Note_on_c, 0, 67, 82
2, 170624, Note_off_c, 0, 67, 100
2, 170640, Note_on_c, 0, 79, 82
2, 170672, Note_off_c, 0, 79, 100
2, 170688, Note_on_c, 0, 67, 82
2, 170720, Note_off_c, 0, 67, 100
2, 170736, Note_on_c, 0, 79, 82
2, 170768, Note_off_c, 0, 79, 100
2, 170784, Note_on_c, 0, 67, 82
2, 170816, Note_off_c, 0, 67, 100
2, 170832, Note_on_c, 0, 79, 82
2, 170864, Note_off_c, 0, 79, 100
2, 170880, Note_on_c, 0, 67, 82
2, 170912, Note_off_c, 0, 67, 100
2, 170928, Note_on_c, 0, 79, 82
2, 170960, Note_off_c, 0, 79, 100
2, 170976, Note_on_c, 0, 67, 82
2, 171008, Note_off_c, 0, 67, 100
2, 171024, Note_on_c, 0, 79, 82
2, 171056, Note_off_c, 0, 79, 100
2, 171072, Note_on_c, 0, 67, 82
2, 171104, Note_off_c, 0, 67, 100
2, 171120, Note_on_c, 0, 79, 82
2, 171152, Note_off_c, 0, 79, 100
2, 171168, Note_on_c, 0, 67, 82
2, 171200, Note_off_c, 0, 67, 100
2, 171216, Note_on_c, 0, 79, 82
2, 171248, Note_off_c, 0, 79, 100
2, 171264, Note_on_c, 0, 67, 82
2, 171296, Note_off_c, 0, 67, 100
2, 171312, Note_on_c, 0, 79, 82
2, 171344, Note_off_c, 0, 79, 100
2, 171360, Note_on_c, 0, 67, 82
2, 171392, Note_off_c, 0, 67, 100
2, 171408, Note_on_c, 0, 79, 82
2, 171440, Note_off_c, 0, 79, 100
2, 171456, Note_on_c, 0, 67, 82
2, 171488, Note_off_c, 0, 67, 100
2, 171504, Note_on_c, 0, 79, 82
2, 171536, Note_off_c, 0, 79, 100
2, 171552, Note_on_c, 0, 67, 82
2, 171584, Note_off_c, 0, 67, 100
2, 171600, Note_on_c, 0, 79, 82
2, 171632, Note_off_c, 0, 79, 100
2, 171648, Note_on_c, 0, 67, 82
2, 171680, Note_off_c, 0, 67, 100
2, 171696, Note_on_c, 0, 79, 82
2, 171728, Note_off_c, 0, 79, 100
2, 171744, Note_on_c, 0, 67, 82
2, 171776, Note_off_c, 0, 67, 100
2, 171792, Note_on_c, 0, 79, 82
2, 171824, Note_off_c, 0, 79, 100
2, 171840, Note_on_c, 0, 67, 82
2, 171872, Note_off_c, 0, 67, 100
2, 171888, Note_on_c, 0, 79, 82
2, 171920, Note_off_c, 0, 79, 100
2, 171936, Note_on_c, 0, 67, 82
2, 171968, Note_off_c, 0, 67, 100
2, 171984, Note_on_c, 0, 79, 82
2, 172016, Note_off_c, 0, 79, 100
2, 172032, Note_on_c, 0, 67, 82
2, 172064, Note_off_c, 0, 67, 100
2, 172080, Note_on_c, 0, 79, 82
2, 172112, Note_off_c, 0, 79, 100
2, 172128, Note_on_c, 0, 67, 82
2, 172160, Note_off_c, 0, 67, 100
2, 172176, Note_on_c, 0, 79, 82
2, 172208, Note_off_c, 0, 79, 100
2, 172224, Note_on_c, 0, 67, 82
2, 172256, Note_off_c, 0, 67, 100
2, 172272, Note_on_c, 0, 79, 82
2, 172304, Note_off_c, 0, 79, 100
2, 172320, Note_on_c, 0, 67, 82
2, 172352, Note_off_c, 0, 67, 100
2, 172368, Note_on_c, 0, 79, 82
2, 172400, Note_off_c, 0, 79, 100
2, 172416, Note_on_c, 0, 67, 82
2, 172448, Note_off_c, 0, 67, 100
2, 172464, Note_on_c, 0, 79, 82
2, 172496, Note_off_c, 0, 79, 100
2, 172512, Note_on_c, 0, 67, 82
2, 172544, Note_off_c, 0, 67, 100
2, 172560, Note_on_c, 0, 79, 82
2, 172592, Note_off_c, 0, 79, 100
2, 172608, Note_on_c, 0, 67, 82
2, 172640, Note_off_c, 0, 67, 100
2, 172656, Note_on_c, 0, 79, 82
2, 172688, Note_off_c, 0, 79, 100
2, 172704, Note_on_c, 0, 67, 82
2, 172736, Note_off_c, 0, 67, 100
2, 172768, Note_on_c, 0, 79, 82
2, 172800, Note_off_c, 0, 79, 100
2, 172800, Note_on_c, 0, 67, 82
2, 172832, Note_off_c, 0, 67, 100
2, 172848, Note_on_c, 0, 79, 82
2, 172880, Note_off_c, 0, 79, 100
2, 172896, Note_on_c, 0, 67, 82
2, 172928, Note_off_c, 0, 67, 100
2, 172944, Note_on_c, 0, 79, 82
2, 172976, Note_off_c, 0, 79, 100
2, 172992, Note_on_c, 0, 67, 82
2, 173024, Note_off_c, 0, 67, 100
2, 173040, Note_on_c, 0, 79, 82
2, 173072, Note_off_c, 0, 79, 100
2, 173088, Note_on_c, 0, 67, 82
2, 173120, Note_off_c, 0, 67, 100
2, 173136, Note_on_c, 0, 79, 82
2, 173168, Note_off_c, 0, 79, 100
2, 173184, Note_on_c, 0, 67, 82
2, 173216, Note_off_c, 0, 67, 100
2, 173232, Note_on_c, 0, 79, 82
2, 173264, Note_off_c, 0, 79, 100
2, 173280, Note_on_c, 0, 67, 82
2, 173312, Note_off_c, 0, 67, 100
2, 173328, Note_on_c, 0, 79, 82
2, 173360, Note_off_c, 0, 79, 100
2, 173376, Note_on_c, 0, 67, 82
2, 173408, Note_off_c, 0, 67, 100
2, 173424, Note_on_c, 0, 79, 82
2, 173456, Note_off_c, 0, 79, 100
2, 173472, Note_on_c, 0, 67, 82
2, 173504, Note_off_c, 0, 67, 100
2, 173520, Note_on_c, 0, 79, 82
2, 173552, Note_off_c, 0, 79, 100
2, 173568, Note_on_c, 0, 67, 75
2, 173600, Note_off_c, 0, 67, 100
2, 173616, Note_on_c, 0, 79, 75
2, 173648, Note_off_c, 0, 79, 100
2, 173664, Note_on_c, 0, 67, 75
2, 173696, Note_off_c, 0, 67, 100
2, 173712, Note_on_c, 0, 79, 75
2, 173744, Note_off_c, 0, 79, 100
2, 173760, Note_on_c, 0, 70, 50
2, 173792, Note_off_c, 0, 70, 100
2, 173808, Note_on_c, 0, 82, 50
2, 173840, Note_off_c, 0, 82, 100
2, 173856, Note_on_c, 0, 70, 50
2, 173888, Note_off_c, 0, 70, 100
2, 173904, Note_on_c, 0, 82, 50
2, 173936, Note_off_c, 0, 82, 100
2, 173952, Note_on_c, 0, 70, 50
2, 173984, Note_off_c, 0, 70, 100
2, 174000, Note_on_c, 0, 82, 50
2, 174032, Note_off_c, 0, 82, 100
2, 174048, Note_on_c, 0, 70, 50
2, 174080, Note_off_c, 0, 70, 100
2, 174096, Note_on_c, 0, 82, 50
2, 174128, Note_off_c, 0, 82, 100
2, 174144, Note_on_c, 0, 70, 50
2, 174176, Note_off_c, 0, 70, 100
2, 174192, Note_on_c, 0, 82, 50
2, 174224, Note_off_c, 0, 82, 100
2, 174240, Note_on_c, 0, 70, 50
2, 174272, Note_off_c, 0, 70, 100
2, 174288, Note_on_c, 0, 82, 50
2, 174320, Note_off_c, 0, 82, 100
2, 174336, Note_on_c, 0, 69, 75
2, 174368, Note_off_c, 0, 69, 100
2, 174384, Note_on_c, 0, 81, 75
2, 174416, Note_off_c, 0, 81, 100
2, 174448, Note_on_c, 0, 69, 75
2, 174480, Note_off_c, 0, 69, 100
2, 174480, Note_on_c, 0, 81, 75
2, 174512, Note_off_c, 0, 81, 100
2, 174528, Note_on_c, 0, 71, 50
2, 174560, Note_off_c, 0, 71, 100
2, 174576, Note_on_c, 0, 83, 50
2, 174608, Note_off_c, 0, 83, 100
2, 174624, Note_on_c, 0, 71, 50
2, 174656, Note_off_c, 0, 71, 100
2, 174672, Note_on_c, 0, 83, 50
2, 174704, Note_off_c, 0, 83, 100
2, 174720, Note_on_c, 0, 71, 50
2, 174752, Note_off_c, 0, 71, 100
2, 174768, Note_on_c, 0, 83, 50
2, 174800, Note_off_c, 0, 83, 100
2, 174816, Note_on_c, 0, 71, 50
2, 174848, Note_off_c, 0, 71, 100
2, 174864, Note_on_c, 0, 83, 50
2, 174896, Note_off_c, 0, 83, 100
2, 174912, Note_on_c, 0, 71, 50
2, 174944, Note_off_c, 0, 71, 100
2, 174960, Note_on_c, 0, 83, 50
2, 174992, Note_off_c, 0, 83, 100
2, 175008, Note_on_c, 0, 71, 50
2, 175040, Note_off_c, 0, 71, 100
2, 175056, Note_on_c, 0, 83, 50
2, 175088, Note_off_c, 0, 83, 100
2, 175104, Note_on_c, 0, 72, 75
2, 175136, Note_off_c, 0, 72, 100
2, 175152, Note_on_c, 0, 84, 75
2, 175184, Note_off_c, 0, 84, 100
2, 175200, Note_on_c, 0, 72, 75
2, 175232, Note_off_c, 0, 72, 100
2, 175264, Note_on_c, 0, 84, 75
2, 175296, Note_off_c, 0, 84, 100
2, 175312, Note_on_c, 0, 63, 50
2, 175344, Note_off_c, 0, 63, 100
2, 175344, Note_on_c, 0, 75, 50
2, 175376, Note_off_c, 0, 75, 100
2, 175392, Note_on_c, 0, 63, 50
2, 175424, Note_off_c, 0, 63, 100
2, 175440, Note_on_c, 0, 75, 50
2, 175472, Note_off_c, 0, 75, 100
2, 175488, Note_on_c, 0, 63, 50
2, 175520, Note_off_c, 0, 63, 100
2, 175536, Note_on_c, 0, 75, 50
2, 175568, Note_off_c, 0, 75, 100
2, 175584, Note_on_c, 0, 63, 50
2, 175616, Note_off_c, 0, 63, 100
2, 175632, Note_on_c, 0, 75, 50
2, 175664, Note_off_c, 0, 75, 100
2, 175680, Note_on_c, 0, 63, 50
2, 175712, Note_off_c, 0, 63, 100
2, 175728, Note_on_c, 0, 75, 50
2, 175760, Note_off_c, 0, 75, 100
2, 175776, Note_on_c, 0, 63, 50
2, 175808, Note_off_c, 0, 63, 100
2, 175824, Note_on_c, 0, 75, 50
2, 175856, Note_off_c, 0, 75, 100
2, 175936, Note_on_c, 0, 76, 50
2, 175984, Note_off_c, 0, 76, 100
2, 176000, Note_on_c, 0, 75, 50
2, 176048, Note_off_c, 0, 75, 100
2, 176064, Note_on_c, 0, 76, 50
2, 176088, Note_off_c, 0, 76, 100
2, 176128, Note_on_c, 0, 72, 50
2, 176152, Note_off_c, 0, 72, 100
2, 176192, Note_on_c, 0, 67, 50
2, 176216, Note_off_c, 0, 67, 100
2, 176320, Note_on_c, 0, 79, 50
2, 176344, Note_off_c, 0, 79, 100
2, 176384, Note_on_c, 0, 78, 50
2, 176408, Note_off_c, 0, 78, 100
2, 176448, Note_on_c, 0, 79, 50
2, 176472, Note_off_c, 0, 79, 100
2, 176512, Note_on_c, 0, 76, 50
2, 176536, Note_off_c, 0, 76, 100
2, 176576, Note_on_c, 0, 72, 50
2, 176600, Note_off_c, 0, 72, 100
2, 176704, Note_on_c, 0, 84, 50
2, 176752, Note_off_c, 0, 84, 100
2, 176768, Note_on_c, 0, 83, 50
2, 176816, Note_off_c, 0, 83, 100
2, 176832, Note_on_c, 0, 84, 50
2, 176880, Note_off_c, 0, 84, 100
2, 176896, Note_on_c, 0, 79, 50
2, 176944, Note_off_c, 0, 79, 100
2, 176960, Note_on_c, 0, 76, 50
2, 177008, Note_off_c, 0, 76, 100
2, 177088, Note_on_c, 0, 88, 50
2, 177136, Note_off_c, 0, 88, 100
2, 177152, Note_on_c, 0, 87, 50
2, 177200, Note_off_c, 0, 87, 100
2, 177216, Note_on_c, 0, 88, 50
2, 177240, Note_off_c, 0, 88, 100
2, 177280, Note_on_c, 0, 84, 50
2, 177304, Note_off_c, 0, 84, 100
2, 177344, Note_on_c, 0, 79, 50
2, 177368, Note_off_c, 0, 79, 100
2, 177408, Note_on_c, 0, 87, 75
2, 177408, Note_on_c, 0, 84, 75
2, 177408, Note_on_c, 0, 81, 75
2, 177408, Note_on_c, 0, 78, 75
2, 177472, Note_on_c, 0, 72, 75
2, 177520, Note_off_c, 0, 72, 100
2, 177536, Note_off_c, 0, 87, 100
2, 177536, Note_off_c, 0, 84, 100
2, 177536, Note_off_c, 0, 81, 100
2, 177536, Note_off_c, 0, 78, 100
2, 177536, Note_on_c, 0, 71, 75
2, 177584, Note_off_c, 0, 71, 100
2, 177600, Note_on_c, 0, 72, 75
2, 177648, Note_off_c, 0, 72, 100
2, 177664, Note_on_c, 0, 69, 75
2, 177712, Note_off_c, 0, 69, 100
2, 177728, Note_on_c, 0, 66, 75
2, 177776, Note_off_c, 0, 66, 100
2, 177792, Note_on_c, 0, 87, 75
2, 177792, Note_on_c, 0, 84, 75
2, 177792, Note_on_c, 0, 81, 75
2, 177792, Note_on_c, 0, 78, 75
2, 177856, Note_on_c, 0, 69, 75
2, 177904, Note_off_c, 0, 69, 100
2, 177920, Note_off_c, 0, 87, 100
2, 177920, Note_off_c, 0, 84, 100
2, 177920, Note_off_c, 0, 81, 100
2, 177920, Note_off_c, 0, 78, 100
2, 177920, Note_on_c, 0, 68, 75
2, 177968, Note_off_c, 0, 68, 100
2, 177984, Note_on_c, 0, 69, 75
2, 178032, Note_off_c, 0, 69, 100
2, 178048, Note_on_c, 0, 66, 75
2, 178096, Note_off_c, 0, 66, 100
2, 178112, Note_on_c, 0, 60, 75
2, 178160, Note_off_c, 0, 60, 100
2, 178176, Note_on_c, 0, 87, 75
2, 178176, Note_on_c, 0, 84, 75
2, 178176, Note_on_c, 0, 81, 75
2, 178176, Note_on_c, 0, 78, 75
2, 178240, Note_on_c, 0, 66, 75
2, 178288, Note_off_c, 0, 66, 100
2, 178304, Note_off_c, 0, 87, 100
2, 178304, Note_off_c, 0, 84, 100
2, 178304, Note_off_c, 0, 81, 100
2, 178304, Note_off_c, 0, 78, 100
2, 178304, Note_on_c, 0, 63, 75
2, 178352, Note_off_c, 0, 63, 100
2, 178368, Note_on_c, 0, 66, 75
2, 178416, Note_off_c, 0, 66, 100
2, 178432, Note_on_c, 0, 60, 75
2, 178480, Note_off_c, 0, 60, 100
2, 178496, Note_on_c, 0, 57, 75
2, 178544, Note_off_c, 0, 57, 100
2, 178560, Note_on_c, 0, 87, 75
2, 178560, Note_on_c, 0, 84, 75
2, 178560, Note_on_c, 0, 81, 75
2, 178560, Note_on_c, 0, 78, 75
2, 178688, Note_off_c, 0, 87, 100
2, 178688, Note_off_c, 0, 84, 100
2, 178688, Note_off_c, 0, 81, 100
2, 178688, Note_off_c, 0, 78, 100
2, 178944, Note_on_c, 0, 88, 75
2, 178976, Note_off_c, 0, 88, 100
2, 178992, Note_on_c, 0, 86, 75
2, 179024, Note_off_c, 0, 86, 100
2, 179040, Note_on_c, 0, 84, 75
2, 179072, Note_off_c, 0, 84, 100
2, 179088, Note_on_c, 0, 83, 75
2, 179120, Note_off_c, 0, 83, 100
2, 179136, Note_on_c, 0, 84, 75
2, 179168, Note_off_c, 0, 84, 100
2, 179184, Note_on_c, 0, 83, 75
2, 179216, Note_off_c, 0, 83, 100
2, 179232, Note_on_c, 0, 81, 75
2, 179264, Note_off_c, 0, 81, 100
2, 179280, Note_on_c, 0, 79, 75
2, 179312, Note_off_c, 0, 79, 100
2, 179328, Note_on_c, 0, 81, 75
2, 179360, Note_off_c, 0, 81, 100
2, 179376, Note_on_c, 0, 79, 75
2, 179408, Note_off_c, 0, 79, 100
2, 179424, Note_on_c, 0, 77, 75
2, 179456, Note_off_c, 0, 77, 100
2, 179472, Note_on_c, 0, 76, 75
2, 179504, Note_off_c, 0, 76, 100
2, 179520, Note_on_c, 0, 77, 75
2, 179552, Note_off_c, 0, 77, 100
2, 179568, Note_on_c, 0, 76, 75
2, 179600, Note_off_c, 0, 76, 100
2, 179616, Note_on_c, 0, 74, 75
2, 179648, Note_off_c, 0, 74, 100
2, 179664, Note_on_c, 0, 72, 75
2, 179696, Note_off_c, 0, 72, 100
2, 179712, Note_on_c, 0, 74, 75
2, 179744, Note_off_c, 0, 74, 100
2, 179760, Note_on_c, 0, 76, 75
2, 179792, Note_off_c, 0, 76, 100
2, 179808, Note_on_c, 0, 74, 75
2, 179840, Note_off_c, 0, 74, 100
2, 179840, Note_on_c, 0, 76, 75
2, 179872, Note_off_c, 0, 76, 100
2, 179904, Note_on_c, 0, 74, 75
2, 179936, Note_off_c, 0, 74, 100
2, 179952, Note_on_c, 0, 76, 75
2, 179984, Note_off_c, 0, 76, 100
2, 180000, Note_on_c, 0, 74, 75
2, 180032, Note_off_c, 0, 74, 100
2, 180048, Note_on_c, 0, 76, 75
2, 180080, Note_off_c, 0, 76, 100
2, 180096, Note_on_c, 0, 74, 75
2, 180128, Note_off_c, 0, 74, 100
2, 180144, Note_on_c, 0, 76, 75
2, 180176, Note_off_c, 0, 76, 100
2, 180192, Note_on_c, 0, 74, 75
2, 180224, Note_off_c, 0, 74, 100
2, 180224, Note_on_c, 0, 76, 75
2, 180256, Note_off_c, 0, 76, 100
2, 180288, Note_on_c, 0, 74, 75
2, 180320, Note_off_c, 0, 74, 100
2, 180336, Note_on_c, 0, 76, 75
2, 180368, Note_off_c, 0, 76, 100
2, 180384, Note_on_c, 0, 72, 75
2, 180416, Note_off_c, 0, 72, 100
2, 180432, Note_on_c, 0, 74, 75
2, 180464, Note_off_c, 0, 74, 100
2, 180480, Note_on_c, 0, 72, 75
2, 180608, Note_off_c, 0, 72, 100
2, 180864, Note_on_c, 0, 60, 75
2, 180928, Note_off_c, 0, 60, 100
2, 180960, Note_on_c, 0, 64, 75
2, 181024, Note_off_c, 0, 64, 100
2, 181056, Note_on_c, 0, 67, 75
2, 181120, Note_off_c, 0, 67, 100
2, 181152, Note_on_c, 0, 72, 75
2, 181216, Note_off_c, 0, 72, 100
2, 181248, Note_on_c, 0, 72, 75
2, 181248, Note_on_c, 0, 64, 75
2, 181504, Note_off_c, 0, 72, 100
2, 181504, Note_off_c, 0, 64, 100
2, 181536, Note_on_c, 0, 76, 75
2, 181600, Note_off_c, 0, 76, 100
2, 181632, Note_on_c, 0, 65, 75
2, 181632, Note_on_c, 0, 74, 75
2, 181760, Note_off_c, 0, 74, 100
2, 181824, Note_on_c, 0, 72, 75
2, 181888, Note_off_c, 0, 65, 100
2, 181888, Note_off_c, 0, 72, 100
2, 181920, Note_on_c, 0, 74, 75
2, 181984, Note_off_c, 0, 74, 100
2, 182016, Note_on_c, 0, 72, 75
2, 182016, Note_on_c, 0, 64, 75
2, 182144, Note_off_c, 0, 72, 100
2, 182144, Note_off_c, 0, 64, 100
2, 182400, Note_on_c, 0, 60, 75
2, 182400, Note_on_c, 0, 64, 75
2, 182464, Note_off_c, 0, 60, 100
2, 182464, Note_off_c, 0, 64, 100
2, 182496, Note_on_c, 0, 67, 75
2, 182496, Note_on_c, 0, 64, 75
2, 182560, Note_off_c, 0, 67, 100
2, 182560, Note_off_c, 0, 64, 100
2, 182592, Note_on_c, 0, 72, 75
2, 182592, Note_on_c, 0, 67, 75
2, 182656, Note_off_c, 0, 72, 100
2, 182656, Note_off_c, 0, 67, 100
2, 182688, Note_on_c, 0, 76, 75
2, 182688, Note_on_c, 0, 72, 75
2, 182752, Note_off_c, 0, 76, 100
2, 182752, Note_off_c, 0, 72, 100
2, 182784, Note_on_c, 0, 76, 75
2, 182784, Note_on_c, 0, 72, 75
2, 183040, Note_off_c, 0, 76, 100
2, 183040, Note_off_c, 0, 72, 100
2, 183072, Note_on_c, 0, 79, 75
2, 183072, Note_on_c, 0, 76, 75
2, 183136, Note_off_c, 0, 79, 100
2, 183136, Note_off_c, 0, 76, 100
2, 183168, Note_on_c, 0, 77, 75
2, 183168, Note_on_c, 0, 74, 75
2, 183296, Note_off_c, 0, 77, 100
2, 183296, Note_off_c, 0, 74, 100
2, 183360, Note_on_c, 0, 76, 75
2, 183360, Note_on_c, 0, 72, 75
2, 183424, Note_off_c, 0, 76, 100
2, 183424, Note_off_c, 0, 72, 100
2, 183456, Note_on_c, 0, 77, 75
2, 183456, Note_on_c, 0, 74, 75
2, 183520, Note_off_c, 0, 77, 100
2, 183520, Note_off_c, 0, 74, 100
2, 183552, Note_on_c, 0, 76, 75
2, 183552, Note_on_c, 0, 72, 75
2, 183680, Note_off_c, 0, 76, 100
2, 183680, Note_off_c, 0, 72, 100
2, 183936, Note_on_c, 0, 64, 75
2, 183936, Note_on_c, 0, 67, 75
2, 184000, Note_off_c, 0, 64, 100
2, 184000, Note_off_c, 0, 67, 100
2, 184032, Note_on_c, 0, 67, 75
2, 184032, Note_on_c, 0, 72, 75
2, 184096, Note_off_c, 0, 67, 100
2, 184096, Note_off_c, 0, 72, 100
2, 184128, Note_on_c, 0, 76, 75
2, 184128, Note_on_c, 0, 72, 75
2, 184192, Note_off_c, 0, 76, 100
2, 184192, Note_off_c, 0, 72, 100
2, 184224, Note_on_c, 0, 79, 75
2, 184224, Note_on_c, 0, 76, 75
2, 184288, Note_off_c, 0, 79, 100
2, 184288, Note_off_c, 0, 76, 100
2, 184320, Note_on_c, 0, 79, 75
2, 184320, Note_on_c, 0, 76, 75
2, 184576, Note_off_c, 0, 79, 100
2, 184576, Note_off_c, 0, 76, 100
2, 184704, Note_on_c, 0, 83, 75
2, 184704, Note_on_c, 0, 74, 75
2, 184896, Note_off_c, 0, 83, 100
2, 184960, Note_off_c, 0, 74, 100
2, 184992, Note_on_c, 0, 81, 75
2, 185024, Note_off_c, 0, 81, 100
2, 185040, Note_on_c, 0, 83, 75
2, 185072, Note_off_c, 0, 83, 100
2, 185088, Note_on_c, 0, 84, 75
2, 185088, Note_on_c, 0, 76, 75
2, 185216, Note_off_c, 0, 84, 100
2, 185216, Note_off_c, 0, 76, 100
2, 185280, Note_on_c, 0, 79, 75
2, 185328, Note_off_c, 0, 79, 100
2, 185344, Note_on_c, 0, 76, 75
2, 185392, Note_off_c, 0, 76, 100
2, 185408, Note_on_c, 0, 72, 75
2, 185456, Note_off_c, 0, 72, 100
2, 185472, Note_on_c, 0, 76, 75
2, 185520, Note_off_c, 0, 76, 100
2, 185536, Note_on_c, 0, 72, 75
2, 185584, Note_off_c, 0, 72, 100
2, 185600, Note_on_c, 0, 67, 75
2, 185648, Note_off_c, 0, 67, 100
2, 185664, Note_on_c, 0, 83, 75
2, 185712, Note_off_c, 0, 83, 100
2, 185728, Note_on_c, 0, 79, 75
2, 185776, Note_off_c, 0, 79, 100
2, 185792, Note_on_c, 0, 74, 75
2, 185840, Note_off_c, 0, 74, 100
2, 185856, Note_on_c, 0, 84, 75
2, 185904, Note_off_c, 0, 84, 100
2, 185920, Note_on_c, 0, 79, 75
2, 185968, Note_off_c, 0, 79, 100
2, 185984, Note_on_c, 0, 76, 75
2, 186032, Note_off_c, 0, 76, 100
2, 186048, Note_on_c, 0, 79, 75
2, 186096, Note_off_c, 0, 79, 100
2, 186112, Note_on_c, 0, 76, 75
2, 186160, Note_off_c, 0, 76, 100
2, 186176, Note_on_c, 0, 72, 75
2, 186224, Note_off_c, 0, 72, 100
2, 186240, Note_on_c, 0, 76, 75
2, 186288, Note_off_c, 0, 76, 100
2, 186304, Note_on_c, 0, 72, 75
2, 186352, Note_off_c, 0, 72, 100
2, 186368, Note_on_c, 0, 67, 75
2, 186416, Note_off_c, 0, 67, 100
2, 186432, Note_on_c, 0, 83, 75
2, 186480, Note_off_c, 0, 83, 100
2, 186496, Note_on_c, 0, 79, 75
2, 186544, Note_off_c, 0, 79, 100
2, 186560, Note_on_c, 0, 74, 75
2, 186608, Note_off_c, 0, 74, 100
2, 186624, Note_on_c, 0, 76, 75
2, 186624, Note_on_c, 0, 79, 75
2, 186624, Note_on_c, 0, 84, 75
2, 186752, Note_off_c, 0, 76, 100
2, 186752, Note_off_c, 0, 79, 100
2, 186752, Note_off_c, 0, 84, 100
2, 187200, Note_on_c, 0, 74, 75
2, 187200, Note_on_c, 0, 79, 75
2, 187200, Note_on_c, 0, 83, 75
2, 187328, Note_off_c, 0, 74, 100
2, 187328, Note_off_c, 0, 79, 100
2, 187328, Note_off_c, 0, 83, 100
2, 187392, Note_on_c, 0, 76, 75
2, 187392, Note_on_c, 0, 79, 75
2, 187392, Note_on_c, 0, 84, 75
2, 187520, Note_off_c, 0, 76, 100
2, 187520, Note_off_c, 0, 79, 100
2, 187520, Note_off_c, 0, 84, 100
2, 187968, Note_on_c, 0, 74, 75
2, 187968, Note_on_c, 0, 79, 75
2, 187968, Note_on_c, 0, 83, 75
2, 188096, Note_off_c, 0, 74, 100
2, 188096, Note_off_c, 0, 79, 100
2, 188096, Note_off_c, 0, 83, 100
2, 188160, Note_on_c, 0, 84, 75
2, 188160, Note_on_c, 0, 79, 75
2, 188160, Note_on_c, 0, 76, 75
2, 188416, Note_off_c, 0, 84, 100
2, 188416, Note_off_c, 0, 79, 100
2, 188416, Note_off_c, 0, 76, 100
2, 188736, Note_on_c, 0, 67, 50
2, 188864, Note_off_c, 0, 67, 100
2, 188928, Note_on_c, 0, 65, 50
2, 188992, Note_off_c, 0, 65, 100
2, 188992, Note_on_c, 0, 64, 50
2, 189088, Note_off_c, 0, 64, 100
2, 189120, Note_on_c, 0, 62, 50
2, 189184, Note_off_c, 0, 62, 100
2, 189216, Note_on_c, 0, 60, 50
2, 189280, Note_off_c, 0, 60, 100
2, 189312, Note_on_c, 0, 60, 50
2, 189440, Note_off_c, 0, 60, 100
2, 189488, Note_on_c, 0, 60, 50
2, 189616, Note_off_c, 0, 60, 100
2, 189696, Note_on_c, 0, 60, 50
2, 190080, Note_off_c, 0, 60, 100
2, 190272, Note_on_c, 0, 72, 50
2, 190400, Note_off_c, 0, 72, 100
2, 190464, Note_on_c, 0, 70, 50
2, 190528, Note_off_c, 0, 70, 100
2, 190528, Note_on_c, 0, 69, 50
2, 190624, Note_off_c, 0, 69, 100
2, 190656, Note_on_c, 0, 67, 50
2, 190720, Note_off_c, 0, 67, 100
2, 190752, Note_on_c, 0, 65, 50
2, 190816, Note_off_c, 0, 65, 100
2, 190848, Note_on_c, 0, 65, 50
2, 190976, Note_off_c, 0, 65, 100
2, 191040, Note_on_c, 0, 65, 50
2, 191168, Note_off_c, 0, 65, 100
2, 191232, Note_on_c, 0, 65, 50
2, 191616, Note_off_c, 0, 65, 100
2, 191808, Note_on_c, 0, 69, 50
2, 191936, Note_off_c, 0, 69, 100
2, 192000, Note_on_c, 0, 67, 50
2, 192064, Note_off_c, 0, 67, 100
2, 192064, Note_on_c, 0, 65, 50
2, 192160, Note_off_c, 0, 65, 100
2, 192192, Note_on_c, 0, 64, 50
2, 192256, Note_off_c, 0, 64, 100
2, 192288, Note_on_c, 0, 62, 50
2, 192352, Note_off_c, 0, 62, 100
2, 192384, Note_on_c, 0, 62, 50
2, 192512, Note_off_c, 0, 62, 100
2, 192576, Note_on_c, 0, 62, 50
2, 192704, Note_off_c, 0, 62, 100
2, 192768, Note_on_c, 0, 67, 37
2, 192960, Note_off_c, 0, 67, 100
2, 193056, Note_on_c, 0, 69, 37
2, 193120, Note_off_c, 0, 69, 100
2, 193152, Note_on_c, 0, 67, 37
2, 193216, Note_off_c, 0, 67, 100
2, 193248, Note_on_c, 0, 65, 37
2, 193312, Note_off_c, 0, 65, 100
2, 193344, Note_on_c, 0, 64, 37
2, 193408, Note_off_c, 0, 64, 100
2, 193440, Note_on_c, 0, 62, 37
2, 193504, Note_off_c, 0, 62, 100
2, 193536, Note_on_c, 0, 62, 37
2, 193600, Note_off_c, 0, 62, 100
2, 193600, Note_on_c, 0, 60, 37
2, 193696, Note_off_c, 0, 60, 100
2, 193728, Note_on_c, 0, 60, 37
2, 193792, Note_off_c, 0, 60, 100
2, 193920, Note_on_c, 0, 60, 37
2, 193984, Note_off_c, 0, 60, 100
2, 194112, Note_on_c, 0, 60, 37
2, 194176, Note_off_c, 0, 60, 100
2, 194304, Note_on_c, 0, 60, 37
2, 194560, Note_off_c, 0, 60, 100
2, 194560, End_track
3, 0, Start_track
3, 0, Title_t, "K309-c -Allegretto Grazioso"
3, 0, Control_c, 1, 0, 0
3, 0, Program_c, 1, 0
3, 0, Control_c, 1, 7, 115
3, 0, Control_c, 1, 10, 51
3, 0, Control_c, 1, 91, 44
3, 0, Control_c, 1, 93, 37
3, 0, Key_signature, 0, "major"
3, 0, Control_c, 1, 121, 0
3, 96, Control_c, 1, 10, 53
3, 136, Control_c, 1, 91, 63
3, 176, Control_c, 1, 93, 40
3, 184, Program_c, 1, 0
3, 12480, Note_on_c, 1, 53, 68
3, 12480, Note_on_c, 1, 62, 68
3, 12608, Note_off_c, 1, 53, 100
3, 12608, Note_off_c, 1, 62, 100
3, 12672, Note_on_c, 1, 55, 68
3, 12672, Note_on_c, 1, 64, 68
3, 12800, Note_off_c, 1, 64, 100
3, 12864, Note_on_c, 1, 62, 68
3, 12928, Note_off_c, 1, 55, 100
3, 12992, Note_off_c, 1, 62, 100
3, 14784, Note_on_c, 1, 53, 68
3, 14784, Note_on_c, 1, 62, 68
3, 14912, Note_off_c, 1, 53, 100
3, 14912, Note_off_c, 1, 62, 100
3, 14976, Note_on_c, 1, 55, 68
3, 14976, Note_on_c, 1, 60, 68
3, 15104, Note_off_c, 1, 60, 100
3, 15168, Note_on_c, 1, 59, 68
3, 15232, Note_off_c, 1, 55, 100
3, 15296, Note_off_c, 1, 59, 100
3, 15360, Note_on_c, 1, 60, 75
3, 15488, Note_off_c, 1, 60, 100
3, 15552, Note_on_c, 1, 55, 75
3, 15552, Note_on_c, 1, 43, 75
3, 15680, Note_off_c, 1, 55, 100
3, 15680, Note_off_c, 1, 43, 100
3, 15744, Note_on_c, 1, 52, 75
3, 15744, Note_on_c, 1, 40, 75
3, 15872, Note_off_c, 1, 52, 100
3, 15872, Note_off_c, 1, 40, 100
3, 15936, Note_on_c, 1, 48, 75
3, 15936, Note_on_c, 1, 36, 75
3, 16064, Note_off_c, 1, 48, 100
3, 16064, Note_off_c, 1, 36, 100
3, 16128, Note_on_c, 1, 55, 75
3, 16128, Note_on_c, 1, 43, 75
3, 16256, Note_off_c, 1, 55, 100
3, 16256, Note_off_c, 1, 43, 100
3, 16320, Note_on_c, 1, 55, 75
3, 16448, Note_off_c, 1, 55, 100
3, 16512, Note_on_c, 1, 55, 75
3, 16640, Note_off_c, 1, 55, 100
3, 16704, Note_on_c, 1, 55, 75
3, 16832, Note_off_c, 1, 55, 100
3, 16896, Note_on_c, 1, 60, 75
3, 17024, Note_off_c, 1, 60, 100
3, 17088, Note_on_c, 1, 55, 75
3, 17088, Note_on_c, 1, 43, 75
3, 17216, Note_off_c, 1, 55, 100
3, 17216, Note_off_c, 1, 43, 100
3, 17280, Note_on_c, 1, 52, 75
3, 17280, Note_on_c, 1, 40, 75
3, 17408, Note_off_c, 1, 52, 100
3, 17408, Note_off_c, 1, 40, 100
3, 17472, Note_on_c, 1, 48, 75
3, 17472, Note_on_c, 1, 36, 75
3, 17600, Note_off_c, 1, 48, 100
3, 17600, Note_off_c, 1, 36, 100
3, 17664, Note_on_c, 1, 55, 75
3, 17664, Note_on_c, 1, 43, 75
3, 17792, Note_off_c, 1, 55, 100
3, 17792, Note_off_c, 1, 43, 100
3, 17856, Note_on_c, 1, 55, 75
3, 17984, Note_off_c, 1, 55, 100
3, 18048, Note_on_c, 1, 55, 75
3, 18176, Note_off_c, 1, 55, 100
3, 18240, Note_on_c, 1, 55, 75
3, 18368, Note_off_c, 1, 55, 100
3, 18432, Note_on_c, 1, 60, 75
3, 18560, Note_off_c, 1, 60, 100
3, 18624, Note_on_c, 1, 55, 75
3, 18624, Note_on_c, 1, 43, 75
3, 18752, Note_off_c, 1, 55, 100
3, 18752, Note_off_c, 1, 43, 100
3, 18816, Note_on_c, 1, 52, 75
3, 18816, Note_on_c, 1, 40, 75
3, 18944, Note_off_c, 1, 52, 100
3, 18944, Note_off_c, 1, 40, 100
3, 19008, Note_on_c, 1, 48, 75
3, 19008, Note_on_c, 1, 36, 75
3, 19136, Note_off_c, 1, 48, 100
3, 19136, Note_off_c, 1, 36, 100
3, 19200, Note_on_c, 1, 53, 75
3, 19456, Note_off_c, 1, 53, 100
3, 19584, Note_on_c, 1, 52, 75
3, 19840, Note_off_c, 1, 52, 100
3, 19968, Note_on_c, 1, 57, 75
3, 20224, Note_off_c, 1, 57, 100
3, 20352, Note_on_c, 1, 55, 75
3, 20608, Note_off_c, 1, 55, 100
3, 20736, Note_on_c, 1, 57, 75
3, 20736, Note_on_c, 1, 53, 75
3, 20992, Note_off_c, 1, 57, 100
3, 20992, Note_off_c, 1, 53, 100
3, 21312, Note_on_c, 1, 65, 75
3, 21312, Note_on_c, 1, 53, 75
3, 21440, Note_off_c, 1, 65, 100
3, 21440, Note_off_c, 1, 53, 100
3, 21504, Note_on_c, 1, 64, 75
3, 21632, Note_off_c, 1, 64, 100
3, 21696, Note_on_c, 1, 62, 75
3, 21824, Note_off_c, 1, 62, 100
3, 22272, Note_on_c, 1, 43, 75
3, 22336, Note_off_c, 1, 43, 100
3, 22368, Note_on_c, 1, 48, 75
3, 22432, Note_off_c, 1, 48, 100
3, 22464, Note_on_c, 1, 52, 75
3, 22528, Note_off_c, 1, 52, 100
3, 22560, Note_on_c, 1, 55, 75
3, 22624, Note_off_c, 1, 55, 100
3, 22656, Note_on_c, 1, 55, 75
3, 22784, Note_off_c, 1, 55, 100
3, 22848, Note_on_c, 1, 55, 75
3, 22976, Note_off_c, 1, 55, 100
3, 23040, Note_on_c, 1, 60, 75
3, 23168, Note_off_c, 1, 60, 100
3, 23232, Note_on_c, 1, 48, 75
3, 23360, Note_off_c, 1, 48, 100
3, 23808, Note_on_c, 1, 43, 75
3, 23872, Note_off_c, 1, 43, 100
3, 23904, Note_on_c, 1, 48, 75
3, 23968, Note_off_c, 1, 48, 100
3, 24000, Note_on_c, 1, 52, 75
3, 24064, Note_off_c, 1, 52, 100
3, 24096, Note_on_c, 1, 55, 75
3, 24160, Note_off_c, 1, 55, 100
3, 24192, Note_on_c, 1, 55, 75
3, 24320, Note_off_c, 1, 55, 100
3, 24384, Note_on_c, 1, 55, 75
3, 24512, Note_off_c, 1, 55, 100
3, 24576, Note_on_c, 1, 60, 75
3, 24704, Note_off_c, 1, 60, 100
3, 24768, Note_on_c, 1, 48, 75
3, 24896, Note_off_c, 1, 48, 100
3, 25536, Note_on_c, 1, 60, 75
3, 25792, Note_off_c, 1, 60, 100
3, 25920, Note_on_c, 1, 60, 75
3, 26048, Note_off_c, 1, 60, 100
3, 26112, Note_on_c, 1, 60, 75
3, 26240, Note_off_c, 1, 60, 100
3, 26304, Note_on_c, 1, 60, 75
3, 26560, Note_off_c, 1, 60, 100
3, 26688, Note_on_c, 1, 60, 75
3, 26816, Note_off_c, 1, 60, 100
3, 26880, Note_on_c, 1, 52, 75
3, 26944, Note_off_c, 1, 52, 100
3, 26976, Note_on_c, 1, 53, 75
3, 27040, Note_off_c, 1, 53, 100
3, 27072, Note_on_c, 1, 53, 75
3, 27136, Note_off_c, 1, 53, 100
3, 27168, Note_on_c, 1, 53, 75
3, 27232, Note_off_c, 1, 53, 100
3, 27264, Note_on_c, 1, 51, 75
3, 27328, Note_off_c, 1, 51, 100
3, 27360, Note_on_c, 1, 52, 75
3, 27424, Note_off_c, 1, 52, 100
3, 27456, Note_on_c, 1, 52, 75
3, 27520, Note_off_c, 1, 52, 100
3, 27552, Note_on_c, 1, 52, 75
3, 27616, Note_off_c, 1, 52, 100
3, 27648, Note_on_c, 1, 49, 75
3, 27712, Note_off_c, 1, 49, 100
3, 27744, Note_on_c, 1, 50, 75
3, 27808, Note_off_c, 1, 50, 100
3, 27840, Note_on_c, 1, 50, 75
3, 27904, Note_off_c, 1, 50, 100
3, 27936, Note_on_c, 1, 50, 75
3, 28000, Note_off_c, 1, 50, 100
3, 28032, Note_on_c, 1, 47, 75
3, 28096, Note_off_c, 1, 47, 100
3, 28128, Note_on_c, 1, 48, 75
3, 28192, Note_off_c, 1, 48, 100
3, 28224, Note_on_c, 1, 48, 75
3, 28288, Note_off_c, 1, 48, 100
3, 28320, Note_on_c, 1, 48, 75
3, 28384, Note_off_c, 1, 48, 100
3, 28416, Note_on_c, 1, 57, 50
3, 28416, Note_on_c, 1, 53, 50
3, 28928, Note_off_c, 1, 57, 100
3, 28928, Note_off_c, 1, 53, 100
3, 29184, Note_on_c, 1, 57, 50
3, 29184, Note_on_c, 1, 53, 50
3, 29440, Note_off_c, 1, 57, 100
3, 29440, Note_off_c, 1, 53, 100
3, 29568, Note_on_c, 1, 57, 50
3, 29568, Note_on_c, 1, 54, 50
3, 29696, Note_off_c, 1, 57, 100
3, 29696, Note_off_c, 1, 54, 100
3, 30144, Note_on_c, 1, 55, 50
3, 30160, Note_on_c, 1, 60, 50
3, 30272, Note_off_c, 1, 55, 100
3, 30288, Note_off_c, 1, 60, 100
3, 30336, Note_on_c, 1, 60, 50
3, 30336, Note_on_c, 1, 55, 50
3, 30464, Note_off_c, 1, 60, 100
3, 30464, Note_off_c, 1, 55, 100
3, 30528, Note_on_c, 1, 60, 50
3, 30528, Note_on_c, 1, 55, 50
3, 30656, Note_off_c, 1, 60, 100
3, 30656, Note_off_c, 1, 55, 100
3, 30720, Note_on_c, 1, 59, 50
3, 30720, Note_on_c, 1, 55, 50
3, 30848, Note_off_c, 1, 59, 100
3, 30848, Note_off_c, 1, 55, 100
3, 33216, Note_on_c, 1, 57, 75
3, 33216, Note_on_c, 1, 55, 75
3, 33216, Note_on_c, 1, 64, 75
3, 33344, Note_off_c, 1, 57, 100
3, 33344, Note_off_c, 1, 55, 100
3, 33344, Note_off_c, 1, 64, 100
3, 33408, Note_on_c, 1, 57, 75
3, 33408, Note_on_c, 1, 55, 75
3, 33408, Note_on_c, 1, 64, 75
3, 33536, Note_off_c, 1, 57, 100
3, 33536, Note_off_c, 1, 55, 100
3, 33536, Note_off_c, 1, 64, 100
3, 33600, Note_on_c, 1, 57, 75
3, 33600, Note_on_c, 1, 55, 75
3, 33600, Note_on_c, 1, 64, 75
3, 33728, Note_off_c, 1, 57, 100
3, 33728, Note_off_c, 1, 55, 100
3, 33728, Note_off_c, 1, 64, 100
3, 33984, Note_on_c, 1, 57, 50
3, 33984, Note_on_c, 1, 55, 50
3, 33984, Note_on_c, 1, 63, 50
3, 34112, Note_off_c, 1, 57, 100
3, 34112, Note_off_c, 1, 55, 100
3, 34112, Note_off_c, 1, 63, 100
3, 34176, Note_on_c, 1, 57, 50
3, 34176, Note_on_c, 1, 55, 50
3, 34176, Note_on_c, 1, 63, 50
3, 34304, Note_off_c, 1, 57, 100
3, 34304, Note_off_c, 1, 55, 100
3, 34304, Note_off_c, 1, 63, 100
3, 34368, Note_on_c, 1, 57, 50
3, 34368, Note_on_c, 1, 55, 50
3, 34368, Note_on_c, 1, 63, 50
3, 34496, Note_off_c, 1, 57, 100
3, 34496, Note_off_c, 1, 55, 100
3, 34496, Note_off_c, 1, 63, 100
3, 34560, Note_on_c, 1, 62, 75
3, 34560, Note_on_c, 1, 57, 75
3, 34560, Note_on_c, 1, 54, 75
3, 34688, Note_off_c, 1, 62, 100
3, 34688, Note_off_c, 1, 57, 100
3, 34688, Note_off_c, 1, 54, 100
3, 36288, Note_on_c, 1, 55, 75
3, 36288, Note_on_c, 1, 62, 75
3, 36416, Note_off_c, 1, 55, 100
3, 36416, Note_off_c, 1, 62, 100
3, 36480, Note_on_c, 1, 55, 75
3, 36480, Note_on_c, 1, 62, 75
3, 36608, Note_off_c, 1, 55, 100
3, 36608, Note_off_c, 1, 62, 100
3, 36672, Note_on_c, 1, 55, 75
3, 36672, Note_on_c, 1, 62, 75
3, 36800, Note_off_c, 1, 55, 100
3, 36800, Note_off_c, 1, 62, 100
3, 37056, Note_on_c, 1, 55, 50
3, 37056, Note_on_c, 1, 62, 50
3, 37184, Note_off_c, 1, 55, 100
3, 37184, Note_off_c, 1, 62, 100
3, 37248, Note_on_c, 1, 55, 50
3, 37248, Note_on_c, 1, 62, 50
3, 37376, Note_off_c, 1, 55, 100
3, 37376, Note_off_c, 1, 62, 100
3, 37440, Note_on_c, 1, 55, 50
3, 37440, Note_on_c, 1, 62, 50
3, 37568, Note_off_c, 1, 55, 100
3, 37568, Note_off_c, 1, 62, 100
3, 37632, Note_on_c, 1, 55, 75
3, 37632, Note_on_c, 1, 47, 75
3, 37888, Note_off_c, 1, 55, 100
3, 37888, Note_off_c, 1, 47, 100
3, 38400, Note_on_c, 1, 55, 75
3, 38400, Note_on_c, 1, 48, 75
3, 38656, Note_off_c, 1, 55, 100
3, 38656, Note_off_c, 1, 48, 100
3, 39168, Note_on_c, 1, 57, 75
3, 39216, Note_off_c, 1, 57, 100
3, 39232, Note_on_c, 1, 60, 75
3, 39280, Note_off_c, 1, 60, 100
3, 39296, Note_on_c, 1, 59, 75
3, 39344, Note_off_c, 1, 59, 100
3, 39360, Note_on_c, 1, 57, 75
3, 39408, Note_off_c, 1, 57, 100
3, 39424, Note_on_c, 1, 55, 75
3, 39472, Note_off_c, 1, 55, 100
3, 39488, Note_on_c, 1, 54, 75
3, 39536, Note_off_c, 1, 54, 100
3, 39552, Note_on_c, 1, 52, 75
3, 39600, Note_off_c, 1, 52, 100
3, 39616, Note_on_c, 1, 55, 75
3, 39664, Note_off_c, 1, 55, 100
3, 39680, Note_on_c, 1, 54, 75
3, 39728, Note_off_c, 1, 54, 100
3, 39744, Note_on_c, 1, 57, 75
3, 39792, Note_off_c, 1, 57, 100
3, 39808, Note_on_c, 1, 49, 75
3, 39856, Note_off_c, 1, 49, 100
3, 39872, Note_on_c, 1, 52, 75
3, 39936, Note_on_c, 1, 50, 75
3, 39940, Note_off_c, 1, 52, 100
3, 39984, Note_off_c, 1, 50, 100
3, 40000, Note_on_c, 1, 52, 75
3, 40048, Note_off_c, 1, 52, 100
3, 40064, Note_on_c, 1, 49, 75
3, 40112, Note_off_c, 1, 49, 100
3, 40128, Note_on_c, 1, 50, 75
3, 40176, Note_off_c, 1, 50, 100
3, 40192, Note_on_c, 1, 52, 75
3, 40240, Note_off_c, 1, 52, 100
3, 40256, Note_on_c, 1, 49, 75
3, 40304, Note_off_c, 1, 49, 100
3, 40320, Note_on_c, 1, 50, 75
3, 40368, Note_off_c, 1, 50, 100
3, 40384, Note_on_c, 1, 52, 75
3, 40432, Note_off_c, 1, 52, 100
3, 40448, Note_on_c, 1, 49, 75
3, 40496, Note_off_c, 1, 49, 100
3, 40512, Note_on_c, 1, 50, 75
3, 40560, Note_off_c, 1, 50, 100
3, 40576, Note_on_c, 1, 52, 75
3, 40624, Note_off_c, 1, 52, 100
3, 40640, Note_on_c, 1, 49, 75
3, 40688, Note_off_c, 1, 49, 100
3, 40704, Note_on_c, 1, 50, 75
3, 40832, Note_off_c, 1, 50, 100
3, 46464, Note_on_c, 1, 59, 87
3, 46464, Note_on_c, 1, 55, 87
3, 46592, Note_off_c, 1, 59, 100
3, 46592, Note_off_c, 1, 55, 100
3, 46656, Note_on_c, 1, 54, 87
3, 46672, Note_on_c, 1, 60, 87
3, 46784, Note_off_c, 1, 54, 100
3, 46800, Note_off_c, 1, 60, 100
3, 46848, Note_on_c, 1, 59, 87
3, 46848, Note_on_c, 1, 55, 87
3, 46976, Note_off_c, 1, 59, 100
3, 46976, Note_off_c, 1, 55, 100
3, 48000, Note_on_c, 1, 59, 87
3, 48000, Note_on_c, 1, 55, 87
3, 48064, Note_off_c, 1, 59, 100
3, 48064, Note_off_c, 1, 55, 100
3, 48096, Note_on_c, 1, 59, 87
3, 48096, Note_on_c, 1, 55, 87
3, 48160, Note_off_c, 1, 59, 100
3, 48160, Note_off_c, 1, 55, 100
3, 48192, Note_on_c, 1, 60, 87
3, 48192, Note_on_c, 1, 54, 87
3, 48256, Note_off_c, 1, 60, 100
3, 48256, Note_off_c, 1, 54, 100
3, 48288, Note_on_c, 1, 60, 87
3, 48288, Note_on_c, 1, 54, 87
3, 48352, Note_off_c, 1, 60, 100
3, 48352, Note_off_c, 1, 54, 100
3, 48384, Note_on_c, 1, 59, 87
3, 48384, Note_on_c, 1, 55, 87
3, 48512, Note_off_c, 1, 59, 100
3, 48512, Note_off_c, 1, 55, 100
3, 49152, Note_on_c, 1, 57, 87
3, 49152, Note_on_c, 1, 52, 87
3, 49152, Note_on_c, 1, 48, 87
3, 49280, Note_off_c, 1, 57, 100
3, 49280, Note_off_c, 1, 52, 100
3, 49280, Note_off_c, 1, 48, 100
3, 49920, Note_on_c, 1, 50, 87
3, 49920, Note_on_c, 1, 38, 87
3, 50048, Note_off_c, 1, 50, 100
3, 50048, Note_off_c, 1, 38, 100
3, 50304, Note_on_c, 1, 51, 87
3, 50304, Note_on_c, 1, 39, 87
3, 50432, Note_off_c, 1, 51, 100
3, 50432, Note_off_c, 1, 39, 100
3, 50688, Note_on_c, 1, 52, 87
3, 50688, Note_on_c, 1, 40, 87
3, 50816, Note_off_c, 1, 52, 100
3, 50816, Note_off_c, 1, 40, 100
3, 54912, Note_on_c, 1, 58, 75
3, 54912, Note_on_c, 1, 55, 75
3, 55040, Note_off_c, 1, 58, 100
3, 55040, Note_off_c, 1, 55, 100
3, 55104, Note_on_c, 1, 62, 75
3, 55104, Note_on_c, 1, 54, 75
3, 55232, Note_off_c, 1, 62, 100
3, 55232, Note_off_c, 1, 54, 100
3, 55296, Note_on_c, 1, 58, 75
3, 55296, Note_on_c, 1, 55, 75
3, 55424, Note_off_c, 1, 58, 100
3, 55424, Note_off_c, 1, 55, 100
3, 56448, Note_on_c, 1, 59, 75
3, 56448, Note_on_c, 1, 55, 75
3, 56512, Note_off_c, 1, 59, 100
3, 56512, Note_off_c, 1, 55, 100
3, 56544, Note_on_c, 1, 59, 75
3, 56544, Note_on_c, 1, 55, 75
3, 56608, Note_off_c, 1, 59, 100
3, 56608, Note_off_c, 1, 55, 100
3, 56640, Note_on_c, 1, 54, 75
3, 56640, Note_on_c, 1, 60, 75
3, 56704, Note_off_c, 1, 54, 100
3, 56704, Note_off_c, 1, 60, 100
3, 56736, Note_on_c, 1, 60, 75
3, 56736, Note_on_c, 1, 54, 75
3, 56800, Note_off_c, 1, 60, 100
3, 56800, Note_off_c, 1, 54, 100
3, 56832, Note_on_c, 1, 59, 75
3, 56832, Note_on_c, 1, 55, 75
3, 56960, Note_off_c, 1, 59, 100
3, 56960, Note_off_c, 1, 55, 100
3, 57024, Note_on_c, 1, 54, 50
3, 57024, Note_on_c, 1, 47, 50
3, 57024, Note_on_c, 1, 57, 50
3, 57408, Note_off_c, 1, 54, 100
3, 57408, Note_off_c, 1, 47, 100
3, 57408, Note_off_c, 1, 57, 100
3, 57600, Note_on_c, 1, 55, 75
3, 57600, Note_on_c, 1, 48, 75
3, 57728, Note_off_c, 1, 55, 100
3, 57728, Note_off_c, 1, 48, 100
3, 57792, Note_on_c, 1, 55, 50
3, 57792, Note_on_c, 1, 52, 50
3, 57792, Note_on_c, 1, 49, 50
3, 58176, Note_off_c, 1, 55, 100
3, 58176, Note_off_c, 1, 52, 100
3, 58176, Note_off_c, 1, 49, 100
3, 58368, Note_on_c, 1, 55, 75
3, 58368, Note_on_c, 1, 50, 75
3, 58496, Note_off_c, 1, 55, 100
3, 58496, Note_off_c, 1, 50, 100
3, 58816, Note_on_c, 1, 59, 75
3, 58864, Note_off_c, 1, 59, 100
3, 58880, Note_on_c, 1, 55, 75
3, 58928, Note_off_c, 1, 55, 100
3, 58944, Note_on_c, 1, 50, 75
3, 58992, Note_off_c, 1, 50, 100
3, 59008, Note_on_c, 1, 47, 75
3, 59056, Note_off_c, 1, 47, 100
3, 59072, Note_on_c, 1, 43, 75
3, 59120, Note_off_c, 1, 43, 100
3, 59136, Note_on_c, 1, 38, 75
3, 59264, Note_off_c, 1, 38, 100
3, 59520, Note_on_c, 1, 62, 75
3, 59520, Note_on_c, 1, 50, 75
3, 59648, Note_off_c, 1, 62, 100
3, 59648, Note_off_c, 1, 50, 100
3, 59904, Note_on_c, 1, 55, 75
3, 59904, Note_on_c, 1, 43, 75
3, 60032, Note_off_c, 1, 55, 100
3, 60032, Note_off_c, 1, 43, 100
3, 61632, Note_on_c, 1, 63, 50
3, 61632, Note_on_c, 1, 54, 50
3, 61760, Note_off_c, 1, 63, 100
3, 61760, Note_off_c, 1, 54, 100
3, 62016, Note_on_c, 1, 55, 50
3, 62016, Note_on_c, 1, 62, 50
3, 62144, Note_off_c, 1, 55, 100
3, 62144, Note_off_c, 1, 62, 100
3, 62208, Note_on_c, 1, 52, 50
3, 62208, Note_on_c, 1, 48, 50
3, 62336, Note_off_c, 1, 52, 100
3, 62336, Note_off_c, 1, 48, 100
3, 62784, Note_on_c, 1, 60, 50
3, 62784, Note_on_c, 1, 50, 50
3, 62912, Note_off_c, 1, 60, 100
3, 62912, Note_off_c, 1, 50, 100
3, 62976, Note_on_c, 1, 59, 50
3, 62976, Note_on_c, 1, 55, 50
3, 63104, Note_off_c, 1, 59, 100
3, 63104, Note_off_c, 1, 55, 100
3, 63168, Note_on_c, 1, 43, 50
3, 63296, Note_off_c, 1, 43, 100
3, 66240, Note_on_c, 1, 62, 75
3, 66240, Note_on_c, 1, 50, 75
3, 66368, Note_off_c, 1, 62, 100
3, 66368, Note_off_c, 1, 50, 100
3, 66432, Note_on_c, 1, 59, 75
3, 66432, Note_on_c, 1, 47, 75
3, 66560, Note_off_c, 1, 59, 100
3, 66560, Note_off_c, 1, 47, 100
3, 66624, Note_on_c, 1, 55, 75
3, 66624, Note_on_c, 1, 43, 75
3, 66752, Note_off_c, 1, 55, 100
3, 66752, Note_off_c, 1, 43, 100
3, 67008, Note_on_c, 1, 59, 75
3, 67008, Note_on_c, 1, 47, 75
3, 67136, Note_off_c, 1, 59, 100
3, 67136, Note_off_c, 1, 47, 100
3, 67200, Note_on_c, 1, 55, 75
3, 67200, Note_on_c, 1, 43, 75
3, 67328, Note_off_c, 1, 55, 100
3, 67328, Note_off_c, 1, 43, 100
3, 67392, Note_on_c, 1, 50, 75
3, 67392, Note_on_c, 1, 38, 75
3, 67520, Note_off_c, 1, 50, 100
3, 67520, Note_off_c, 1, 38, 100
3, 67776, Note_on_c, 1, 53, 75
3, 67776, Note_on_c, 1, 41, 75
3, 67904, Note_off_c, 1, 53, 100
3, 67904, Note_off_c, 1, 41, 100
3, 67968, Note_on_c, 1, 50, 75
3, 67968, Note_on_c, 1, 38, 75
3, 68096, Note_off_c, 1, 50, 100
3, 68096, Note_off_c, 1, 38, 100
3, 68160, Note_on_c, 1, 47, 75
3, 68160, Note_on_c, 1, 35, 75
3, 68288, Note_off_c, 1, 47, 100
3, 68288, Note_off_c, 1, 35, 100
3, 68544, Note_on_c, 1, 50, 75
3, 68544, Note_on_c, 1, 38, 75
3, 68672, Note_off_c, 1, 50, 100
3, 68672, Note_off_c, 1, 38, 100
3, 68736, Note_on_c, 1, 47, 75
3, 68736, Note_on_c, 1, 35, 75
3, 68864, Note_off_c, 1, 47, 100
3, 68864, Note_off_c, 1, 35, 100
3, 68928, Note_on_c, 1, 43, 75
3, 68928, Note_on_c, 1, 31, 75
3, 69056, Note_off_c, 1, 43, 100
3, 69056, Note_off_c, 1, 31, 100
3, 69120, Note_on_c, 1, 55, 75
3, 69120, Note_on_c, 1, 43, 75
3, 69376, Note_off_c, 1, 55, 100
3, 69376, Note_off_c, 1, 43, 100
3, 69696, Note_on_c, 1, 62, 50
3, 69696, Note_on_c, 1, 59, 50
3, 69696, Note_on_c, 1, 55, 50
3, 69824, Note_off_c, 1, 62, 100
3, 69824, Note_off_c, 1, 59, 100
3, 69824, Note_off_c, 1, 55, 100
3, 69888, Note_on_c, 1, 55, 50
3, 69904, Note_on_c, 1, 62, 50
3, 69904, Note_on_c, 1, 59, 50
3, 70144, Note_off_c, 1, 55, 100
3, 70160, Note_off_c, 1, 62, 100
3, 70160, Note_off_c, 1, 59, 100
3, 70464, Note_on_c, 1, 59, 50
3, 70464, Note_on_c, 1, 62, 50
3, 70464, Note_on_c, 1, 55, 50
3, 70592, Note_off_c, 1, 59, 100
3, 70592, Note_off_c, 1, 62, 100
3, 70592, Note_off_c, 1, 55, 100
3, 70656, Note_on_c, 1, 62, 50
3, 70656, Note_on_c, 1, 59, 50
3, 70656, Note_on_c, 1, 55, 50
3, 70912, Note_off_c, 1, 62, 100
3, 70912, Note_off_c, 1, 59, 100
3, 70912, Note_off_c, 1, 55, 100
3, 71232, Note_on_c, 1, 62, 50
3, 71232, Note_on_c, 1, 59, 50
3, 71232, Note_on_c, 1, 55, 50
3, 71360, Note_off_c, 1, 62, 100
3, 71360, Note_off_c, 1, 59, 100
3, 71360, Note_off_c, 1, 55, 100
3, 71424, Note_on_c, 1, 65, 50
3, 71424, Note_on_c, 1, 62, 50
3, 71424, Note_on_c, 1, 55, 50
3, 71440, Note_on_c, 1, 59, 50
3, 71680, Note_off_c, 1, 65, 100
3, 71680, Note_off_c, 1, 62, 100
3, 71680, Note_off_c, 1, 55, 100
3, 71696, Note_off_c, 1, 59, 100
3, 83136, Note_on_c, 1, 53, 50
3, 83136, Note_on_c, 1, 62, 62
3, 83264, Note_off_c, 1, 53, 100
3, 83324, Note_off_c, 1, 62, 0
3, 83328, Note_on_c, 1, 55, 50
3, 83328, Note_on_c, 1, 64, 62
3, 83516, Note_off_c, 1, 64, 0
3, 83520, Note_on_c, 1, 62, 62
3, 83584, Note_off_c, 1, 55, 100
3, 83708, Note_off_c, 1, 62, 0
3, 83712, Note_on_c, 1, 48, 75
3, 83776, Note_off_c, 1, 48, 100
3, 83808, Note_on_c, 1, 55, 75
3, 83872, Note_off_c, 1, 55, 100
3, 83904, Note_on_c, 1, 52, 75
3, 83968, Note_off_c, 1, 52, 100
3, 84000, Note_on_c, 1, 55, 75
3, 84064, Note_off_c, 1, 55, 100
3, 84096, Note_on_c, 1, 48, 75
3, 84160, Note_off_c, 1, 48, 100
3, 84192, Note_on_c, 1, 57, 75
3, 84256, Note_off_c, 1, 57, 100
3, 84288, Note_on_c, 1, 52, 75
3, 84352, Note_off_c, 1, 52, 100
3, 84384, Note_on_c, 1, 57, 75
3, 84448, Note_off_c, 1, 57, 100
3, 84480, Note_on_c, 1, 50, 75
3, 84544, Note_off_c, 1, 50, 100
3, 84576, Note_on_c, 1, 57, 75
3, 84640, Note_off_c, 1, 57, 100
3, 84672, Note_on_c, 1, 53, 75
3, 84736, Note_off_c, 1, 53, 100
3, 84768, Note_on_c, 1, 57, 75
3, 84832, Note_off_c, 1, 57, 100
3, 84864, Note_on_c, 1, 47, 75
3, 84928, Note_off_c, 1, 47, 100
3, 84960, Note_on_c, 1, 55, 75
3, 85024, Note_off_c, 1, 55, 100
3, 85056, Note_on_c, 1, 50, 75
3, 85120, Note_off_c, 1, 50, 100
3, 85152, Note_on_c, 1, 55, 75
3, 85216, Note_off_c, 1, 55, 100
3, 85248, Note_on_c, 1, 48, 75
3, 85376, Note_off_c, 1, 48, 100
3, 85440, Note_on_c, 1, 64, 75
3, 85504, Note_off_c, 1, 64, 100
3, 85536, Note_on_c, 1, 65, 75
3, 85600, Note_off_c, 1, 65, 100
3, 85632, Note_on_c, 1, 63, 75
3, 85696, Note_off_c, 1, 63, 100
3, 85728, Note_on_c, 1, 64, 75
3, 85792, Note_off_c, 1, 64, 100
3, 85824, Note_on_c, 1, 55, 75
3, 85824, Note_on_c, 1, 62, 75
3, 85888, Note_off_c, 1, 62, 100
3, 85920, Note_on_c, 1, 59, 75
3, 85952, Note_off_c, 1, 55, 100
3, 85984, Note_off_c, 1, 59, 100
3, 86016, Note_on_c, 1, 60, 75
3, 86144, Note_off_c, 1, 60, 100
3, 87168, Note_on_c, 1, 55, 75
3, 87168, Note_on_c, 1, 52, 75
3, 87296, Note_off_c, 1, 55, 100
3, 87296, Note_off_c, 1, 52, 100
3, 87360, Note_on_c, 1, 57, 75
3, 87360, Note_on_c, 1, 53, 75
3, 87488, Note_off_c, 1, 57, 100
3, 87488, Note_off_c, 1, 53, 100
3, 87552, Note_on_c, 1, 58, 75
3, 87552, Note_on_c, 1, 55, 75
3, 87680, Note_off_c, 1, 58, 100
3, 87680, Note_off_c, 1, 55, 100
3, 88704, Note_on_c, 1, 55, 75
3, 88704, Note_on_c, 1, 52, 75
3, 88768, Note_off_c, 1, 55, 100
3, 88768, Note_off_c, 1, 52, 100
3, 88800, Note_on_c, 1, 55, 75
3, 88800, Note_on_c, 1, 52, 75
3, 88864, Note_off_c, 1, 55, 100
3, 88864, Note_off_c, 1, 52, 100
3, 88896, Note_on_c, 1, 57, 75
3, 88896, Note_on_c, 1, 53, 75
3, 88960, Note_off_c, 1, 57, 100
3, 88960, Note_off_c, 1, 53, 100
3, 88992, Note_on_c, 1, 57, 75
3, 88992, Note_on_c, 1, 53, 75
3, 89056, Note_off_c, 1, 57, 100
3, 89056, Note_off_c, 1, 53, 100
3, 89088, Note_on_c, 1, 58, 75
3, 89088, Note_on_c, 1, 55, 75
3, 89216, Note_off_c, 1, 58, 100
3, 89216, Note_off_c, 1, 55, 100
3, 96000, Note_on_c, 1, 40, 75
3, 96064, Note_off_c, 1, 40, 100
3, 96096, Note_on_c, 1, 48, 75
3, 96160, Note_off_c, 1, 48, 100
3, 96192, Note_on_c, 1, 45, 75
3, 96256, Note_off_c, 1, 45, 100
3, 96288, Note_on_c, 1, 48, 75
3, 96352, Note_off_c, 1, 48, 100
3, 96384, Note_on_c, 1, 41, 75
3, 96448, Note_off_c, 1, 41, 100
3, 96480, Note_on_c, 1, 48, 75
3, 96544, Note_off_c, 1, 48, 100
3, 96576, Note_on_c, 1, 45, 75
3, 96640, Note_off_c, 1, 45, 100
3, 96672, Note_on_c, 1, 48, 75
3, 96736, Note_off_c, 1, 48, 100
3, 96768, Note_on_c, 1, 40, 75
3, 96832, Note_off_c, 1, 40, 100
3, 96864, Note_on_c, 1, 48, 75
3, 96928, Note_off_c, 1, 48, 100
3, 96960, Note_on_c, 1, 43, 75
3, 97024, Note_off_c, 1, 43, 100
3, 97056, Note_on_c, 1, 48, 75
3, 97120, Note_off_c, 1, 48, 100
3, 97152, Note_on_c, 1, 36, 75
3, 97216, Note_off_c, 1, 36, 100
3, 97248, Note_on_c, 1, 43, 75
3, 97312, Note_off_c, 1, 43, 100
3, 97344, Note_on_c, 1, 40, 75
3, 97408, Note_off_c, 1, 40, 100
3, 97440, Note_on_c, 1, 43, 75
3, 97504, Note_off_c, 1, 43, 100
3, 97536, Note_on_c, 1, 40, 75
3, 97600, Note_off_c, 1, 40, 100
3, 97632, Note_on_c, 1, 48, 75
3, 97696, Note_off_c, 1, 48, 100
3, 97728, Note_on_c, 1, 45, 75
3, 97792, Note_off_c, 1, 45, 100
3, 97824, Note_on_c, 1, 48, 75
3, 97888, Note_off_c, 1, 48, 100
3, 97920, Note_on_c, 1, 40, 75
3, 97984, Note_off_c, 1, 40, 100
3, 98016, Note_on_c, 1, 48, 75
3, 98080, Note_off_c, 1, 48, 100
3, 98112, Note_on_c, 1, 45, 75
3, 98176, Note_off_c, 1, 45, 100
3, 98208, Note_on_c, 1, 48, 75
3, 98272, Note_off_c, 1, 48, 100
3, 98304, Note_on_c, 1, 36, 75
3, 98368, Note_off_c, 1, 36, 100
3, 98400, Note_on_c, 1, 48, 75
3, 98464, Note_off_c, 1, 48, 100
3, 98496, Note_on_c, 1, 43, 75
3, 98560, Note_off_c, 1, 43, 100
3, 98592, Note_on_c, 1, 48, 75
3, 98656, Note_off_c, 1, 48, 100
3, 98688, Note_on_c, 1, 36, 75
3, 98752, Note_off_c, 1, 36, 100
3, 98784, Note_on_c, 1, 46, 75
3, 98848, Note_off_c, 1, 46, 100
3, 98880, Note_on_c, 1, 43, 75
3, 98944, Note_off_c, 1, 43, 100
3, 98976, Note_on_c, 1, 46, 75
3, 99040, Note_off_c, 1, 46, 100
3, 99072, Note_on_c, 1, 45, 75
3, 99072, Note_on_c, 1, 41, 75
3, 99200, Note_off_c, 1, 45, 100
3, 99200, Note_off_c, 1, 41, 100
3, 99840, Note_on_c, 1, 57, 75
3, 99904, Note_off_c, 1, 57, 100
3, 99952, Note_on_c, 1, 57, 75
3, 99984, Note_off_c, 1, 57, 100
3, 99984, Note_on_c, 1, 55, 75
3, 100016, Note_off_c, 1, 55, 100
3, 100032, Note_on_c, 1, 57, 75
3, 100096, Note_off_c, 1, 57, 100
3, 100128, Note_on_c, 1, 58, 75
3, 100192, Note_off_c, 1, 58, 100
3, 100224, Note_on_c, 1, 60, 75
3, 100288, Note_off_c, 1, 60, 100
3, 100304, Note_on_c, 1, 60, 75
3, 100336, Note_off_c, 1, 60, 100
3, 100352, Note_on_c, 1, 58, 75
3, 100384, Note_off_c, 1, 58, 100
3, 100416, Note_on_c, 1, 60, 75
3, 100480, Note_off_c, 1, 60, 100
3, 100512, Note_on_c, 1, 62, 75
3, 100576, Note_off_c, 1, 62, 100
3, 100800, Note_on_c, 1, 58, 75
3, 100928, Note_off_c, 1, 58, 100
3, 100992, Note_on_c, 1, 60, 75
3, 101120, Note_off_c, 1, 60, 100
3, 101184, Note_on_c, 1, 48, 75
3, 101312, Note_off_c, 1, 48, 100
3, 101376, Note_on_c, 1, 53, 50
3, 101632, Note_off_c, 1, 53, 100
3, 107520, Note_on_c, 1, 59, 75
3, 107568, Note_off_c, 1, 59, 100
3, 107584, Note_on_c, 1, 62, 75
3, 107632, Note_off_c, 1, 62, 100
3, 107648, Note_on_c, 1, 60, 75
3, 107696, Note_off_c, 1, 60, 100
3, 107712, Note_on_c, 1, 59, 75
3, 107760, Note_off_c, 1, 59, 100
3, 107776, Note_on_c, 1, 57, 75
3, 107824, Note_off_c, 1, 57, 100
3, 107840, Note_on_c, 1, 55, 75
3, 107888, Note_off_c, 1, 55, 100
3, 107904, Note_on_c, 1, 54, 75
3, 107952, Note_off_c, 1, 54, 100
3, 107968, Note_on_c, 1, 57, 75
3, 108016, Note_off_c, 1, 57, 100
3, 108032, Note_on_c, 1, 55, 75
3, 108080, Note_off_c, 1, 55, 100
3, 108096, Note_on_c, 1, 59, 75
3, 108144, Note_off_c, 1, 59, 100
3, 108160, Note_on_c, 1, 50, 75
3, 108208, Note_off_c, 1, 50, 100
3, 108224, Note_on_c, 1, 53, 75
3, 108272, Note_off_c, 1, 53, 100
3, 108288, Note_on_c, 1, 52, 75
3, 108336, Note_off_c, 1, 52, 100
3, 108352, Note_on_c, 1, 55, 75
3, 108400, Note_off_c, 1, 55, 100
3, 108416, Note_on_c, 1, 53, 75
3, 108464, Note_off_c, 1, 53, 100
3, 108480, Note_on_c, 1, 52, 75
3, 108528, Note_off_c, 1, 52, 100
3, 108544, Note_on_c, 1, 50, 75
3, 108592, Note_off_c, 1, 50, 100
3, 108608, Note_on_c, 1, 48, 75
3, 108656, Note_off_c, 1, 48, 100
3, 108672, Note_on_c, 1, 47, 75
3, 108720, Note_off_c, 1, 47, 100
3, 108736, Note_on_c, 1, 50, 75
3, 108784, Note_off_c, 1, 50, 100
3, 108800, Note_on_c, 1, 48, 75
3, 108848, Note_off_c, 1, 48, 100
3, 108864, Note_on_c, 1, 52, 75
3, 108912, Note_off_c, 1, 52, 100
3, 108928, Note_on_c, 1, 42, 75
3, 108928, Note_on_c, 1, 54, 75
3, 108976, Note_off_c, 1, 42, 100
3, 108976, Note_off_c, 1, 54, 100
3, 108992, Note_on_c, 1, 57, 75
3, 108992, Note_on_c, 1, 45, 75
3, 109040, Note_off_c, 1, 57, 100
3, 109040, Note_off_c, 1, 45, 100
3, 109056, Note_on_c, 1, 55, 75
3, 109056, Note_on_c, 1, 43, 75
3, 109104, Note_off_c, 1, 55, 100
3, 109104, Note_off_c, 1, 43, 100
3, 109120, Note_on_c, 1, 57, 75
3, 109120, Note_on_c, 1, 45, 75
3, 109168, Note_off_c, 1, 57, 100
3, 109168, Note_off_c, 1, 45, 100
3, 109184, Note_on_c, 1, 54, 75
3, 109184, Note_on_c, 1, 42, 75
3, 109232, Note_off_c, 1, 54, 100
3, 109232, Note_off_c, 1, 42, 100
3, 109248, Note_on_c, 1, 55, 75
3, 109248, Note_on_c, 1, 43, 75
3, 109296, Note_off_c, 1, 55, 100
3, 109296, Note_off_c, 1, 43, 100
3, 109312, Note_on_c, 1, 57, 75
3, 109312, Note_on_c, 1, 45, 75
3, 109360, Note_off_c, 1, 57, 100
3, 109360, Note_off_c, 1, 45, 100
3, 109376, Note_on_c, 1, 42, 75
3, 109376, Note_on_c, 1, 54, 75
3, 109424, Note_off_c, 1, 42, 100
3, 109424, Note_off_c, 1, 54, 100
3, 109440, Note_on_c, 1, 55, 75
3, 109440, Note_on_c, 1, 43, 75
3, 109488, Note_off_c, 1, 55, 100
3, 109488, Note_off_c, 1, 43, 100
3, 109504, Note_on_c, 1, 57, 75
3, 109504, Note_on_c, 1, 45, 75
3, 109552, Note_off_c, 1, 57, 100
3, 109552, Note_off_c, 1, 45, 100
3, 109568, Note_on_c, 1, 54, 75
3, 109568, Note_on_c, 1, 42, 75
3, 109616, Note_off_c, 1, 54, 100
3, 109616, Note_off_c, 1, 42, 100
3, 109632, Note_on_c, 1, 55, 75
3, 109632, Note_on_c, 1, 43, 75
3, 109680, Note_off_c, 1, 55, 100
3, 109680, Note_off_c, 1, 43, 100
3, 109696, Note_on_c, 1, 45, 75
3, 109696, Note_on_c, 1, 57, 75
3, 109744, Note_off_c, 1, 45, 100
3, 109744, Note_off_c, 1, 57, 100
3, 109760, Note_on_c, 1, 55, 75
3, 109760, Note_on_c, 1, 43, 75
3, 109808, Note_off_c, 1, 55, 100
3, 109808, Note_off_c, 1, 43, 100
3, 109824, Note_on_c, 1, 55, 75
3, 109824, Note_on_c, 1, 43, 75
3, 109952, Note_off_c, 1, 55, 100
3, 109952, Note_off_c, 1, 43, 100
3, 112320, Note_on_c, 1, 57, 75
3, 112320, Note_on_c, 1, 50, 75
3, 112320, Note_on_c, 1, 48, 75
3, 112448, Note_off_c, 1, 57, 100
3, 112448, Note_off_c, 1, 50, 100
3, 112448, Note_off_c, 1, 48, 100
3, 112512, Note_on_c, 1, 57, 75
3, 112512, Note_on_c, 1, 50, 75
3, 112512, Note_on_c, 1, 48, 75
3, 112640, Note_off_c, 1, 57, 100
3, 112640, Note_off_c, 1, 50, 100
3, 112640, Note_off_c, 1, 48, 100
3, 112704, Note_on_c, 1, 57, 75
3, 112704, Note_on_c, 1, 50, 75
3, 112704, Note_on_c, 1, 48, 75
3, 112832, Note_off_c, 1, 57, 100
3, 112832, Note_off_c, 1, 50, 100
3, 112832, Note_off_c, 1, 48, 100
3, 113088, Note_on_c, 1, 56, 50
3, 113088, Note_on_c, 1, 50, 50
3, 113088, Note_on_c, 1, 48, 50
3, 113216, Note_off_c, 1, 56, 100
3, 113216, Note_off_c, 1, 50, 100
3, 113216, Note_off_c, 1, 48, 100
3, 113280, Note_on_c, 1, 56, 50
3, 113280, Note_on_c, 1, 50, 50
3, 113280, Note_on_c, 1, 48, 50
3, 113408, Note_off_c, 1, 56, 100
3, 113408, Note_off_c, 1, 50, 100
3, 113408, Note_off_c, 1, 48, 100
3, 113472, Note_on_c, 1, 56, 50
3, 113472, Note_on_c, 1, 50, 50
3, 113472, Note_on_c, 1, 48, 50
3, 113600, Note_off_c, 1, 56, 100
3, 113600, Note_off_c, 1, 50, 100
3, 113600, Note_off_c, 1, 48, 100
3, 113664, Note_on_c, 1, 55, 75
3, 113664, Note_on_c, 1, 50, 75
3, 113664, Note_on_c, 1, 47, 75
3, 113920, Note_off_c, 1, 55, 100
3, 113920, Note_off_c, 1, 50, 100
3, 113920, Note_off_c, 1, 47, 100
3, 115392, Note_on_c, 1, 55, 75
3, 115392, Note_on_c, 1, 48, 75
3, 115520, Note_off_c, 1, 55, 100
3, 115520, Note_off_c, 1, 48, 100
3, 115584, Note_on_c, 1, 55, 75
3, 115584, Note_on_c, 1, 48, 75
3, 115712, Note_off_c, 1, 55, 100
3, 115712, Note_off_c, 1, 48, 100
3, 115776, Note_on_c, 1, 55, 75
3, 115776, Note_on_c, 1, 48, 75
3, 115904, Note_off_c, 1, 55, 100
3, 115904, Note_off_c, 1, 48, 100
3, 116160, Note_on_c, 1, 55, 50
3, 116160, Note_on_c, 1, 48, 50
3, 116288, Note_off_c, 1, 55, 100
3, 116288, Note_off_c, 1, 48, 100
3, 116352, Note_on_c, 1, 55, 50
3, 116352, Note_on_c, 1, 48, 50
3, 116480, Note_off_c, 1, 55, 100
3, 116480, Note_off_c, 1, 48, 100
3, 116544, Note_on_c, 1, 55, 50
3, 116544, Note_on_c, 1, 48, 50
3, 116672, Note_off_c, 1, 55, 100
3, 116672, Note_off_c, 1, 48, 100
3, 116736, Note_on_c, 1, 60, 75
3, 116736, Note_on_c, 1, 55, 75
3, 116736, Note_on_c, 1, 52, 75
3, 116992, Note_off_c, 1, 60, 100
3, 116992, Note_off_c, 1, 55, 100
3, 116992, Note_off_c, 1, 52, 100
3, 118464, Note_on_c, 1, 53, 75
3, 118464, Note_on_c, 1, 57, 75
3, 118464, Note_on_c, 1, 60, 75
3, 118592, Note_off_c, 1, 53, 100
3, 118592, Note_off_c, 1, 57, 100
3, 118592, Note_off_c, 1, 60, 100
3, 118656, Note_on_c, 1, 53, 75
3, 118656, Note_on_c, 1, 57, 75
3, 118656, Note_on_c, 1, 60, 75
3, 118784, Note_off_c, 1, 53, 100
3, 118784, Note_off_c, 1, 57, 100
3, 118784, Note_off_c, 1, 60, 100
3, 118848, Note_on_c, 1, 53, 75
3, 118848, Note_on_c, 1, 57, 75
3, 118848, Note_on_c, 1, 60, 75
3, 118976, Note_off_c, 1, 53, 100
3, 118976, Note_off_c, 1, 57, 100
3, 118976, Note_off_c, 1, 60, 100
3, 119232, Note_on_c, 1, 60, 50
3, 119232, Note_on_c, 1, 57, 50
3, 119232, Note_on_c, 1, 53, 50
3, 119360, Note_off_c, 1, 60, 100
3, 119360, Note_off_c, 1, 57, 100
3, 119360, Note_off_c, 1, 53, 100
3, 119424, Note_on_c, 1, 60, 50
3, 119424, Note_on_c, 1, 57, 50
3, 119424, Note_on_c, 1, 53, 50
3, 119552, Note_off_c, 1, 60, 100
3, 119552, Note_off_c, 1, 57, 100
3, 119552, Note_off_c, 1, 53, 100
3, 119616, Note_on_c, 1, 60, 50
3, 119616, Note_on_c, 1, 57, 50
3, 119616, Note_on_c, 1, 53, 50
3, 119744, Note_off_c, 1, 60, 100
3, 119744, Note_off_c, 1, 57, 100
3, 119744, Note_off_c, 1, 53, 100
3, 119808, Note_on_c, 1, 62, 75
3, 119808, Note_on_c, 1, 57, 75
3, 119808, Note_on_c, 1, 53, 75
3, 120064, Note_off_c, 1, 62, 100
3, 120064, Note_off_c, 1, 57, 100
3, 120064, Note_off_c, 1, 53, 100
3, 121344, Note_on_c, 1, 59, 50
3, 121408, Note_off_c, 1, 59, 100
3, 121440, Note_on_c, 1, 62, 50
3, 121504, Note_off_c, 1, 62, 100
3, 121536, Note_on_c, 1, 59, 50
3, 121600, Note_off_c, 1, 59, 100
3, 121632, Note_on_c, 1, 62, 50
3, 121696, Note_off_c, 1, 62, 100
3, 121728, Note_on_c, 1, 59, 50
3, 121792, Note_off_c, 1, 59, 100
3, 121824, Note_on_c, 1, 62, 50
3, 121888, Note_off_c, 1, 62, 100
3, 121920, Note_on_c, 1, 59, 50
3, 121984, Note_off_c, 1, 59, 100
3, 122016, Note_on_c, 1, 62, 50
3, 122080, Note_off_c, 1, 62, 100
3, 122112, Note_on_c, 1, 59, 50
3, 122176, Note_off_c, 1, 59, 100
3, 122208, Note_on_c, 1, 62, 50
3, 122272, Note_off_c, 1, 62, 100
3, 122304, Note_on_c, 1, 59, 50
3, 122368, Note_off_c, 1, 59, 100
3, 122400, Note_on_c, 1, 62, 50
3, 122464, Note_off_c, 1, 62, 100
3, 122496, Note_on_c, 1, 59, 50
3, 122560, Note_off_c, 1, 59, 100
3, 122576, Note_on_c, 1, 62, 50
3, 122640, Note_off_c, 1, 62, 100
3, 122688, Note_on_c, 1, 59, 50
3, 122752, Note_off_c, 1, 59, 100
3, 122784, Note_on_c, 1, 62, 50
3, 122848, Note_off_c, 1, 62, 100
3, 122880, Note_on_c, 1, 59, 50
3, 122944, Note_off_c, 1, 59, 100
3, 122976, Note_on_c, 1, 62, 50
3, 123040, Note_off_c, 1, 62, 100
3, 123072, Note_on_c, 1, 59, 50
3, 123136, Note_off_c, 1, 59, 100
3, 123168, Note_on_c, 1, 62, 50
3, 123232, Note_off_c, 1, 62, 100
3, 123264, Note_on_c, 1, 59, 52
3, 123328, Note_off_c, 1, 59, 100
3, 123360, Note_on_c, 1, 62, 55
3, 123424, Note_off_c, 1, 62, 100
3, 123456, Note_on_c, 1, 59, 57
3, 123520, Note_off_c, 1, 59, 100
3, 123552, Note_on_c, 1, 62, 60
3, 123616, Note_off_c, 1, 62, 100
3, 123648, Note_on_c, 1, 59, 62
3, 123712, Note_off_c, 1, 59, 100
3, 123744, Note_on_c, 1, 62, 65
3, 123808, Note_off_c, 1, 62, 100
3, 123824, Note_on_c, 1, 59, 67
3, 123888, Note_off_c, 1, 59, 100
3, 123936, Note_on_c, 1, 62, 68
3, 124000, Note_off_c, 1, 62, 100
3, 124032, Note_on_c, 1, 59, 70
3, 124096, Note_off_c, 1, 59, 100
3, 124128, Note_on_c, 1, 62, 71
3, 124192, Note_off_c, 1, 62, 100
3, 124224, Note_on_c, 1, 59, 72
3, 124288, Note_off_c, 1, 59, 100
3, 124320, Note_on_c, 1, 62, 73
3, 124384, Note_off_c, 1, 62, 100
3, 124416, Note_on_c, 1, 59, 75
3, 124480, Note_off_c, 1, 59, 100
3, 124512, Note_on_c, 1, 62, 75
3, 124576, Note_off_c, 1, 62, 100
3, 124608, Note_on_c, 1, 59, 75
3, 124672, Note_off_c, 1, 59, 100
3, 124704, Note_on_c, 1, 62, 75
3, 124768, Note_off_c, 1, 62, 100
3, 124800, Note_on_c, 1, 59, 75
3, 124864, Note_off_c, 1, 59, 100
3, 124896, Note_on_c, 1, 62, 75
3, 124960, Note_off_c, 1, 62, 100
3, 124992, Note_on_c, 1, 59, 75
3, 125056, Note_off_c, 1, 59, 100
3, 125088, Note_on_c, 1, 62, 75
3, 125152, Note_off_c, 1, 62, 100
3, 125184, Note_on_c, 1, 60, 87
3, 125184, Note_on_c, 1, 52, 87
3, 125312, Note_off_c, 1, 60, 100
3, 125312, Note_off_c, 1, 52, 100
3, 125568, Note_on_c, 1, 64, 87
3, 125568, Note_on_c, 1, 60, 87
3, 125696, Note_off_c, 1, 64, 100
3, 125696, Note_off_c, 1, 60, 100
3, 125760, Note_on_c, 1, 59, 87
3, 125760, Note_on_c, 1, 65, 87
3, 125888, Note_off_c, 1, 59, 100
3, 125888, Note_off_c, 1, 65, 100
3, 125952, Note_on_c, 1, 64, 87
3, 125952, Note_on_c, 1, 60, 87
3, 126080, Note_off_c, 1, 64, 100
3, 126080, Note_off_c, 1, 60, 100
3, 126336, Note_on_c, 1, 52, 87
3, 126336, Note_on_c, 1, 48, 87
3, 126464, Note_off_c, 1, 52, 100
3, 126464, Note_off_c, 1, 48, 100
3, 126528, Note_on_c, 1, 53, 87
3, 126528, Note_on_c, 1, 47, 87
3, 126656, Note_off_c, 1, 53, 100
3, 126656, Note_off_c, 1, 47, 100
3, 126720, Note_on_c, 1, 52, 87
3, 126720, Note_on_c, 1, 48, 87
3, 126848, Note_off_c, 1, 52, 100
3, 126848, Note_off_c, 1, 48, 100
3, 127104, Note_on_c, 1, 64, 87
3, 127104, Note_on_c, 1, 60, 87
3, 127168, Note_off_c, 1, 64, 100
3, 127168, Note_off_c, 1, 60, 100
3, 127200, Note_on_c, 1, 64, 87
3, 127200, Note_on_c, 1, 60, 87
3, 127264, Note_off_c, 1, 64, 100
3, 127264, Note_off_c, 1, 60, 100
3, 127296, Note_on_c, 1, 59, 87
3, 127296, Note_on_c, 1, 65, 87
3, 127360, Note_off_c, 1, 59, 100
3, 127360, Note_off_c, 1, 65, 100
3, 127392, Note_on_c, 1, 59, 87
3, 127392, Note_on_c, 1, 65, 87
3, 127456, Note_off_c, 1, 59, 100
3, 127456, Note_off_c, 1, 65, 100
3, 127488, Note_on_c, 1, 64, 87
3, 127488, Note_on_c, 1, 60, 87
3, 127616, Note_off_c, 1, 64, 100
3, 127616, Note_off_c, 1, 60, 100
3, 127872, Note_on_c, 1, 52, 87
3, 127872, Note_on_c, 1, 48, 87
3, 127936, Note_off_c, 1, 52, 100
3, 127936, Note_off_c, 1, 48, 100
3, 127968, Note_on_c, 1, 52, 87
3, 127968, Note_on_c, 1, 48, 87
3, 128032, Note_off_c, 1, 52, 100
3, 128032, Note_off_c, 1, 48, 100
3, 128064, Note_on_c, 1, 53, 87
3, 128064, Note_on_c, 1, 47, 87
3, 128128, Note_off_c, 1, 53, 100
3, 128128, Note_off_c, 1, 47, 100
3, 128160, Note_on_c, 1, 53, 87
3, 128160, Note_on_c, 1, 47, 87
3, 128224, Note_off_c, 1, 53, 100
3, 128224, Note_off_c, 1, 47, 100
3, 128256, Note_on_c, 1, 52, 87
3, 128256, Note_on_c, 1, 48, 87
3, 128384, Note_off_c, 1, 52, 100
3, 128384, Note_off_c, 1, 48, 100
3, 129024, Note_on_c, 1, 50, 87
3, 129024, Note_on_c, 1, 45, 87
3, 129024, Note_on_c, 1, 41, 87
3, 129152, Note_off_c, 1, 50, 100
3, 129152, Note_off_c, 1, 45, 100
3, 129152, Note_off_c, 1, 41, 100
3, 129792, Note_on_c, 1, 55, 87
3, 129792, Note_on_c, 1, 43, 87
3, 129920, Note_off_c, 1, 55, 100
3, 129920, Note_off_c, 1, 43, 100
3, 130176, Note_on_c, 1, 56, 87
3, 130176, Note_on_c, 1, 44, 87
3, 130304, Note_off_c, 1, 56, 100
3, 130304, Note_off_c, 1, 44, 100
3, 130560, Note_on_c, 1, 57, 87
3, 130560, Note_on_c, 1, 45, 87
3, 130688, Note_off_c, 1, 57, 100
3, 130688, Note_off_c, 1, 45, 100
3, 134016, Note_on_c, 1, 60, 50
3, 134016, Note_on_c, 1, 63, 50
3, 134144, Note_off_c, 1, 60, 100
3, 134144, Note_off_c, 1, 63, 100
3, 134208, Note_on_c, 1, 59, 50
3, 134208, Note_on_c, 1, 67, 50
3, 134336, Note_off_c, 1, 59, 100
3, 134336, Note_off_c, 1, 67, 100
3, 134400, Note_on_c, 1, 60, 50
3, 134400, Note_on_c, 1, 63, 50
3, 134528, Note_off_c, 1, 60, 100
3, 134528, Note_off_c, 1, 63, 100
3, 134784, Note_on_c, 1, 48, 50
3, 134784, Note_on_c, 1, 51, 50
3, 134912, Note_off_c, 1, 48, 100
3, 134912, Note_off_c, 1, 51, 100
3, 134976, Note_on_c, 1, 53, 50
3, 134976, Note_on_c, 1, 47, 50
3, 135104, Note_off_c, 1, 53, 100
3, 135104, Note_off_c, 1, 47, 100
3, 135168, Note_on_c, 1, 48, 50
3, 135168, Note_on_c, 1, 51, 50
3, 135296, Note_off_c, 1, 48, 100
3, 135296, Note_off_c, 1, 51, 100
3, 135552, Note_on_c, 1, 64, 50
3, 135552, Note_on_c, 1, 60, 50
3, 135616, Note_off_c, 1, 64, 100
3, 135616, Note_off_c, 1, 60, 100
3, 135648, Note_on_c, 1, 60, 50
3, 135648, Note_on_c, 1, 64, 50
3, 135712, Note_off_c, 1, 60, 100
3, 135712, Note_off_c, 1, 64, 100
3, 135744, Note_on_c, 1, 59, 50
3, 135744, Note_on_c, 1, 65, 50
3, 135808, Note_off_c, 1, 59, 100
3, 135808, Note_off_c, 1, 65, 100
3, 135840, Note_on_c, 1, 65, 50
3, 135840, Note_on_c, 1, 59, 50
3, 135904, Note_off_c, 1, 65, 100
3, 135904, Note_off_c, 1, 59, 100
3, 135936, Note_on_c, 1, 64, 50
3, 135936, Note_on_c, 1, 60, 50
3, 136064, Note_off_c, 1, 64, 100
3, 136064, Note_off_c, 1, 60, 100
3, 136320, Note_on_c, 1, 52, 50
3, 136320, Note_on_c, 1, 48, 50
3, 136384, Note_off_c, 1, 52, 100
3, 136384, Note_off_c, 1, 48, 100
3, 136416, Note_on_c, 1, 52, 50
3, 136416, Note_on_c, 1, 48, 50
3, 136480, Note_off_c, 1, 52, 100
3, 136480, Note_off_c, 1, 48, 100
3, 136512, Note_on_c, 1, 47, 50
3, 136512, Note_on_c, 1, 53, 50
3, 136576, Note_off_c, 1, 47, 100
3, 136576, Note_off_c, 1, 53, 100
3, 136608, Note_on_c, 1, 53, 50
3, 136608, Note_on_c, 1, 47, 50
3, 136672, Note_off_c, 1, 53, 100
3, 136672, Note_off_c, 1, 47, 100
3, 136704, Note_on_c, 1, 48, 75
3, 136704, Note_on_c, 1, 52, 75
3, 136832, Note_off_c, 1, 48, 100
3, 136832, Note_off_c, 1, 52, 100
3, 136896, Note_on_c, 1, 62, 50
3, 136896, Note_on_c, 1, 59, 50
3, 136896, Note_on_c, 1, 52, 50
3, 137280, Note_off_c, 1, 62, 100
3, 137280, Note_off_c, 1, 59, 100
3, 137280, Note_off_c, 1, 52, 100
3, 137472, Note_on_c, 1, 60, 75
3, 137472, Note_on_c, 1, 53, 75
3, 137600, Note_off_c, 1, 60, 100
3, 137600, Note_off_c, 1, 53, 100
3, 137664, Note_on_c, 1, 61, 50
3, 137664, Note_on_c, 1, 64, 50
3, 137664, Note_on_c, 1, 55, 50
3, 138048, Note_off_c, 1, 61, 100
3, 138048, Note_off_c, 1, 64, 100
3, 138048, Note_off_c, 1, 55, 100
3, 138240, Note_on_c, 1, 62, 50
3, 138240, Note_on_c, 1, 57, 50
3, 138240, Note_on_c, 1, 53, 50
3, 138368, Note_off_c, 1, 62, 100
3, 138368, Note_off_c, 1, 57, 100
3, 138368, Note_off_c, 1, 53, 100
3, 139584, Note_on_c, 1, 61, 75
3, 139584, Note_on_c, 1, 55, 75
3, 139584, Note_on_c, 1, 52, 75
3, 139712, Note_off_c, 1, 61, 100
3, 139712, Note_off_c, 1, 55, 100
3, 139712, Note_off_c, 1, 52, 100
3, 139776, Note_on_c, 1, 62, 50
3, 139776, Note_on_c, 1, 57, 50
3, 139776, Note_on_c, 1, 53, 50
3, 139904, Note_off_c, 1, 62, 100
3, 139904, Note_off_c, 1, 57, 100
3, 139904, Note_off_c, 1, 53, 100
3, 141120, Note_on_c, 1, 61, 75
3, 141120, Note_on_c, 1, 52, 75
3, 141120, Note_on_c, 1, 55, 75
3, 141248, Note_off_c, 1, 61, 100
3, 141248, Note_off_c, 1, 52, 100
3, 141248, Note_off_c, 1, 55, 100
3, 141312, Note_on_c, 1, 62, 50
3, 141312, Note_on_c, 1, 57, 50
3, 141312, Note_on_c, 1, 53, 50
3, 141824, Note_off_c, 1, 62, 100
3, 141824, Note_off_c, 1, 57, 100
3, 141824, Note_off_c, 1, 53, 100
3, 142080, Note_on_c, 1, 60, 50
3, 142080, Note_on_c, 1, 57, 50
3, 142464, Note_on_c, 1, 54, 62
3, 142592, Note_off_c, 1, 60, 100
3, 142592, Note_off_c, 1, 57, 100
3, 142844, Note_off_c, 1, 54, 0
3, 142848, Note_on_c, 1, 62, 50
3, 142848, Note_on_c, 1, 59, 50
3, 142848, Note_on_c, 1, 55, 50
3, 142976, Note_off_c, 1, 62, 100
3, 142976, Note_off_c, 1, 59, 100
3, 142976, Note_off_c, 1, 55, 100
3, 143808, Note_on_c, 1, 50, 75
3, 143808, Note_on_c, 1, 47, 75
3, 143808, Note_on_c, 1, 43, 75
3, 143808, Note_on_c, 1, 55, 75
3, 144192, Note_off_c, 1, 50, 100
3, 144192, Note_off_c, 1, 47, 100
3, 144192, Note_off_c, 1, 43, 100
3, 144192, Note_off_c, 1, 55, 100
3, 144384, Note_on_c, 1, 55, 50
3, 144384, Note_on_c, 1, 50, 50
3, 144384, Note_on_c, 1, 47, 50
3, 144384, Note_on_c, 1, 43, 50
3, 144512, Note_off_c, 1, 55, 100
3, 144512, Note_off_c, 1, 50, 100
3, 144512, Note_off_c, 1, 47, 100
3, 144512, Note_off_c, 1, 43, 100
3, 152064, Note_on_c, 1, 48, 75
3, 152128, Note_off_c, 1, 48, 100
3, 152160, Note_on_c, 1, 60, 75
3, 152224, Note_off_c, 1, 60, 100
3, 152256, Note_on_c, 1, 52, 75
3, 152320, Note_off_c, 1, 52, 100
3, 152352, Note_on_c, 1, 60, 75
3, 152416, Note_off_c, 1, 60, 100
3, 152448, Note_on_c, 1, 55, 75
3, 152512, Note_off_c, 1, 55, 100
3, 152544, Note_on_c, 1, 60, 75
3, 152608, Note_off_c, 1, 60, 100
3, 152640, Note_on_c, 1, 52, 75
3, 152704, Note_off_c, 1, 52, 100
3, 152736, Note_on_c, 1, 60, 75
3, 152800, Note_off_c, 1, 60, 100
3, 152832, Note_on_c, 1, 48, 75
3, 152896, Note_off_c, 1, 48, 100
3, 152928, Note_on_c, 1, 60, 75
3, 152992, Note_off_c, 1, 60, 100
3, 153024, Note_on_c, 1, 52, 75
3, 153088, Note_off_c, 1, 52, 100
3, 153120, Note_on_c, 1, 60, 75
3, 153184, Note_off_c, 1, 60, 100
3, 153216, Note_on_c, 1, 55, 75
3, 153280, Note_off_c, 1, 55, 100
3, 153312, Note_on_c, 1, 60, 75
3, 153376, Note_off_c, 1, 60, 100
3, 153408, Note_on_c, 1, 52, 75
3, 153472, Note_off_c, 1, 52, 100
3, 153504, Note_on_c, 1, 60, 75
3, 153568, Note_off_c, 1, 60, 100
3, 153600, Note_on_c, 1, 48, 75
3, 153664, Note_off_c, 1, 48, 100
3, 153696, Note_on_c, 1, 60, 75
3, 153760, Note_off_c, 1, 60, 100
3, 153792, Note_on_c, 1, 53, 75
3, 153856, Note_off_c, 1, 53, 100
3, 153888, Note_on_c, 1, 60, 75
3, 153952, Note_off_c, 1, 60, 100
3, 153984, Note_on_c, 1, 57, 75
3, 154048, Note_off_c, 1, 57, 100
3, 154080, Note_on_c, 1, 60, 75
3, 154144, Note_off_c, 1, 60, 100
3, 154176, Note_on_c, 1, 53, 75
3, 154240, Note_off_c, 1, 53, 100
3, 154240, Note_on_c, 1, 60, 75
3, 154304, Note_off_c, 1, 60, 100
3, 154368, Note_on_c, 1, 48, 75
3, 154432, Note_off_c, 1, 48, 100
3, 154464, Note_on_c, 1, 60, 75
3, 154528, Note_off_c, 1, 60, 100
3, 154560, Note_on_c, 1, 53, 75
3, 154624, Note_off_c, 1, 53, 100
3, 154656, Note_on_c, 1, 60, 75
3, 154720, Note_off_c, 1, 60, 100
3, 154752, Note_on_c, 1, 57, 75
3, 154816, Note_off_c, 1, 57, 100
3, 154848, Note_on_c, 1, 60, 75
3, 154912, Note_off_c, 1, 60, 100
3, 154944, Note_on_c, 1, 53, 75
3, 155008, Note_off_c, 1, 53, 100
3, 155024, Note_on_c, 1, 60, 75
3, 155088, Note_off_c, 1, 60, 100
3, 155136, Note_on_c, 1, 52, 75
3, 155200, Note_off_c, 1, 52, 100
3, 155232, Note_on_c, 1, 60, 75
3, 155296, Note_off_c, 1, 60, 100
3, 155328, Note_on_c, 1, 55, 75
3, 155392, Note_off_c, 1, 55, 100
3, 155424, Note_on_c, 1, 60, 75
3, 155488, Note_off_c, 1, 60, 100
3, 155520, Note_on_c, 1, 49, 75
3, 155584, Note_off_c, 1, 49, 100
3, 155616, Note_on_c, 1, 57, 75
3, 155680, Note_off_c, 1, 57, 100
3, 155712, Note_on_c, 1, 52, 75
3, 155776, Note_off_c, 1, 52, 100
3, 155808, Note_on_c, 1, 57, 75
3, 155872, Note_off_c, 1, 57, 100
3, 155904, Note_on_c, 1, 48, 75
3, 155968, Note_off_c, 1, 48, 100
3, 156000, Note_on_c, 1, 57, 75
3, 156064, Note_off_c, 1, 57, 100
3, 156096, Note_on_c, 1, 54, 75
3, 156160, Note_off_c, 1, 54, 100
3, 156192, Note_on_c, 1, 57, 75
3, 156256, Note_off_c, 1, 57, 100
3, 156288, Note_on_c, 1, 47, 75
3, 156352, Note_off_c, 1, 47, 100
3, 156384, Note_on_c, 1, 55, 75
3, 156448, Note_off_c, 1, 55, 100
3, 156480, Note_on_c, 1, 50, 75
3, 156544, Note_off_c, 1, 50, 100
3, 156576, Note_on_c, 1, 55, 75
3, 156640, Note_off_c, 1, 55, 100
3, 156672, Note_on_c, 1, 48, 75
3, 156736, Note_off_c, 1, 48, 100
3, 156768, Note_on_c, 1, 55, 75
3, 156832, Note_off_c, 1, 55, 100
3, 156864, Note_on_c, 1, 53, 75
3, 156864, Note_on_c, 1, 57, 75
3, 156928, Note_off_c, 1, 57, 100
3, 156960, Note_on_c, 1, 62, 75
3, 156992, Note_off_c, 1, 53, 100
3, 157024, Note_off_c, 1, 62, 100
3, 157056, Note_on_c, 1, 55, 75
3, 157120, Note_off_c, 1, 55, 100
3, 157152, Note_on_c, 1, 64, 75
3, 157216, Note_off_c, 1, 64, 100
3, 157248, Note_on_c, 1, 55, 75
3, 157312, Note_off_c, 1, 55, 100
3, 157344, Note_on_c, 1, 65, 75
3, 157408, Note_off_c, 1, 65, 100
3, 157440, Note_on_c, 1, 64, 75
3, 157440, Note_on_c, 1, 60, 75
3, 157568, Note_off_c, 1, 64, 100
3, 157568, Note_off_c, 1, 60, 100
3, 158016, Note_on_c, 1, 57, 75
3, 158016, Note_on_c, 1, 52, 75
3, 158016, Note_on_c, 1, 49, 75
3, 158144, Note_off_c, 1, 57, 100
3, 158144, Note_off_c, 1, 52, 100
3, 158144, Note_off_c, 1, 49, 100
3, 158208, Note_on_c, 1, 57, 75
3, 158208, Note_on_c, 1, 53, 75
3, 158208, Note_on_c, 1, 50, 75
3, 158336, Note_off_c, 1, 57, 100
3, 158336, Note_off_c, 1, 53, 100
3, 158336, Note_off_c, 1, 50, 100
3, 158592, Note_on_c, 1, 53, 75
3, 158592, Note_on_c, 1, 50, 75
3, 158592, Note_on_c, 1, 43, 75
3, 158720, Note_off_c, 1, 53, 100
3, 158720, Note_off_c, 1, 50, 100
3, 158720, Note_off_c, 1, 43, 100
3, 158976, Note_on_c, 1, 48, 75
3, 159104, Note_off_c, 1, 48, 100
3, 159168, Note_on_c, 1, 53, 75
3, 159168, Note_on_c, 1, 41, 75
3, 159296, Note_off_c, 1, 53, 100
3, 159296, Note_off_c, 1, 41, 100
3, 159360, Note_on_c, 1, 52, 75
3, 159360, Note_on_c, 1, 43, 75
3, 159488, Note_off_c, 1, 52, 100
3, 159552, Note_on_c, 1, 47, 75
3, 159616, Note_off_c, 1, 43, 100
3, 159680, Note_off_c, 1, 47, 100
3, 159744, Note_on_c, 1, 48, 75
3, 159872, Note_off_c, 1, 48, 100
3, 159936, Note_on_c, 1, 64, 75
3, 159960, Note_off_c, 1, 64, 100
3, 160000, Note_on_c, 1, 62, 75
3, 160024, Note_off_c, 1, 62, 100
3, 160064, Note_on_c, 1, 60, 75
3, 160088, Note_off_c, 1, 60, 100
3, 160128, Note_on_c, 1, 59, 75
3, 160152, Note_off_c, 1, 59, 100
3, 160192, Note_on_c, 1, 62, 75
3, 160216, Note_off_c, 1, 62, 100
3, 160256, Note_on_c, 1, 60, 75
3, 160280, Note_off_c, 1, 60, 100
3, 160320, Note_on_c, 1, 64, 75
3, 160344, Note_off_c, 1, 64, 100
3, 160384, Note_on_c, 1, 56, 75
3, 160408, Note_off_c, 1, 56, 100
3, 160448, Note_on_c, 1, 59, 75
3, 160472, Note_off_c, 1, 59, 100
3, 160512, Note_on_c, 1, 57, 75
3, 160560, Note_off_c, 1, 57, 100
3, 160576, Note_on_c, 1, 60, 75
3, 160624, Note_off_c, 1, 60, 100
3, 160640, Note_on_c, 1, 59, 75
3, 160688, Note_off_c, 1, 59, 100
3, 160704, Note_on_c, 1, 57, 75
3, 160752, Note_off_c, 1, 57, 100
3, 160768, Note_on_c, 1, 55, 75
3, 160816, Note_off_c, 1, 55, 100
3, 160832, Note_on_c, 1, 53, 75
3, 160880, Note_off_c, 1, 53, 100
3, 160896, Note_on_c, 1, 52, 75
3, 160944, Note_off_c, 1, 52, 100
3, 160960, Note_on_c, 1, 55, 75
3, 161008, Note_off_c, 1, 55, 100
3, 161024, Note_on_c, 1, 53, 75
3, 161072, Note_off_c, 1, 53, 100
3, 161088, Note_on_c, 1, 57, 75
3, 161136, Note_off_c, 1, 57, 100
3, 161152, Note_on_c, 1, 49, 75
3, 161200, Note_off_c, 1, 49, 100
3, 161216, Note_on_c, 1, 52, 75
3, 161264, Note_off_c, 1, 52, 100
3, 161280, Note_on_c, 1, 50, 75
3, 161304, Note_off_c, 1, 50, 100
3, 161344, Note_on_c, 1, 53, 75
3, 161368, Note_off_c, 1, 53, 100
3, 161408, Note_on_c, 1, 52, 75
3, 161432, Note_off_c, 1, 52, 100
3, 161472, Note_on_c, 1, 50, 75
3, 161496, Note_off_c, 1, 50, 100
3, 161536, Note_on_c, 1, 48, 75
3, 161560, Note_off_c, 1, 48, 100
3, 161600, Note_on_c, 1, 47, 75
3, 161624, Note_off_c, 1, 47, 100
3, 161664, Note_on_c, 1, 45, 75
3, 161664, Note_on_c, 1, 57, 75
3, 161688, Note_off_c, 1, 45, 100
3, 161688, Note_off_c, 1, 57, 100
3, 161728, Note_on_c, 1, 60, 75
3, 161728, Note_on_c, 1, 48, 75
3, 161752, Note_off_c, 1, 60, 100
3, 161752, Note_off_c, 1, 48, 100
3, 161792, Note_on_c, 1, 47, 75
3, 161792, Note_on_c, 1, 59, 75
3, 161816, Note_off_c, 1, 47, 100
3, 161816, Note_off_c, 1, 59, 100
3, 161856, Note_on_c, 1, 50, 75
3, 161856, Note_on_c, 1, 62, 75
3, 161880, Note_off_c, 1, 50, 100
3, 161880, Note_off_c, 1, 62, 100
3, 161920, Note_on_c, 1, 42, 75
3, 161920, Note_on_c, 1, 54, 75
3, 161944, Note_off_c, 1, 42, 100
3, 161944, Note_off_c, 1, 54, 100
3, 161984, Note_on_c, 1, 45, 75
3, 161984, Note_on_c, 1, 57, 75
3, 162008, Note_off_c, 1, 45, 100
3, 162008, Note_off_c, 1, 57, 100
3, 162048, Note_on_c, 1, 55, 75
3, 162048, Note_on_c, 1, 43, 75
3, 162176, Note_off_c, 1, 55, 100
3, 162176, Note_off_c, 1, 43, 100
3, 163008, Note_on_c, 1, 50, 50
3, 163008, Note_on_c, 1, 47, 50
3, 163008, Note_on_c, 1, 43, 50
3, 163136, Note_off_c, 1, 50, 100
3, 163136, Note_off_c, 1, 47, 100
3, 163136, Note_off_c, 1, 43, 100
3, 163776, Note_on_c, 1, 50, 75
3, 163776, Note_on_c, 1, 47, 75
3, 163776, Note_on_c, 1, 43, 75
3, 163840, Note_off_c, 1, 50, 100
3, 163840, Note_off_c, 1, 47, 100
3, 163840, Note_off_c, 1, 43, 100
3, 164544, Note_on_c, 1, 62, 50
3, 164544, Note_on_c, 1, 59, 50
3, 164544, Note_on_c, 1, 55, 50
3, 164608, Note_off_c, 1, 62, 100
3, 164608, Note_off_c, 1, 59, 100
3, 164608, Note_off_c, 1, 55, 100
3, 166080, Note_on_c, 1, 56, 50
3, 166080, Note_on_c, 1, 59, 50
3, 166208, Note_off_c, 1, 56, 100
3, 166208, Note_off_c, 1, 59, 100
3, 166464, Note_on_c, 1, 57, 50
3, 166464, Note_on_c, 1, 60, 50
3, 166592, Note_off_c, 1, 57, 100
3, 166592, Note_off_c, 1, 60, 100
3, 166656, Note_on_c, 1, 57, 50
3, 166656, Note_on_c, 1, 53, 50
3, 166912, Note_off_c, 1, 57, 100
3, 166912, Note_off_c, 1, 53, 100
3, 167232, Note_on_c, 1, 65, 50
3, 167232, Note_on_c, 1, 55, 50
3, 167360, Note_off_c, 1, 65, 100
3, 167360, Note_off_c, 1, 55, 100
3, 167424, Note_on_c, 1, 64, 50
3, 167424, Note_on_c, 1, 60, 50
3, 167552, Note_off_c, 1, 64, 100
3, 167552, Note_off_c, 1, 60, 100
3, 167616, Note_on_c, 1, 48, 50
3, 167744, Note_off_c, 1, 48, 100
3, 167808, Note_on_c, 1, 48, 75
3, 167808, Note_on_c, 1, 36, 75
3, 167872, Note_off_c, 1, 48, 100
3, 167872, Note_off_c, 1, 36, 100
3, 167904, Note_on_c, 1, 50, 75
3, 167904, Note_on_c, 1, 38, 75
3, 167968, Note_off_c, 1, 50, 100
3, 167968, Note_off_c, 1, 38, 100
3, 168000, Note_on_c, 1, 52, 75
3, 168000, Note_on_c, 1, 40, 75
3, 168064, Note_off_c, 1, 52, 100
3, 168064, Note_off_c, 1, 40, 100
3, 168096, Note_on_c, 1, 53, 75
3, 168096, Note_on_c, 1, 41, 75
3, 168160, Note_off_c, 1, 53, 100
3, 168160, Note_off_c, 1, 41, 100
3, 168192, Note_on_c, 1, 55, 75
3, 168192, Note_on_c, 1, 43, 75
3, 168320, Note_off_c, 1, 55, 100
3, 168320, Note_off_c, 1, 43, 100
3, 168384, Note_on_c, 1, 57, 75
3, 168384, Note_on_c, 1, 45, 75
3, 168512, Note_off_c, 1, 57, 100
3, 168512, Note_off_c, 1, 45, 100
3, 168576, Note_on_c, 1, 55, 75
3, 168576, Note_on_c, 1, 43, 75
3, 168704, Note_off_c, 1, 55, 100
3, 168704, Note_off_c, 1, 43, 100
3, 168768, Note_on_c, 1, 54, 75
3, 168768, Note_on_c, 1, 42, 75
3, 168896, Note_off_c, 1, 54, 100
3, 168896, Note_off_c, 1, 42, 100
3, 168960, Note_on_c, 1, 53, 75
3, 168960, Note_on_c, 1, 41, 75
3, 169088, Note_off_c, 1, 53, 100
3, 169088, Note_off_c, 1, 41, 100
3, 169344, Note_on_c, 1, 52, 75
3, 169344, Note_on_c, 1, 40, 75
3, 169472, Note_off_c, 1, 52, 100
3, 169472, Note_off_c, 1, 40, 100
3, 169728, Note_on_c, 1, 53, 75
3, 169920, Note_on_c, 1, 62, 75
3, 169984, Note_off_c, 1, 53, 100
3, 170048, Note_off_c, 1, 62, 100
3, 170112, Note_on_c, 1, 64, 75
3, 170112, Note_on_c, 1, 55, 75
3, 170240, Note_off_c, 1, 64, 100
3, 170240, Note_off_c, 1, 55, 100
3, 170304, Note_on_c, 1, 59, 75
3, 170304, Note_on_c, 1, 55, 75
3, 170432, Note_off_c, 1, 59, 100
3, 170432, Note_off_c, 1, 55, 100
3, 170880, Note_on_c, 1, 60, 87
3, 170880, Note_on_c, 1, 64, 87
3, 171008, Note_off_c, 1, 60, 100
3, 171008, Note_off_c, 1, 64, 100
3, 171072, Note_on_c, 1, 65, 87
3, 171072, Note_on_c, 1, 59, 87
3, 171200, Note_off_c, 1, 65, 100
3, 171200, Note_off_c, 1, 59, 100
3, 171264, Note_on_c, 1, 64, 87
3, 171264, Note_on_c, 1, 60, 87
3, 171392, Note_off_c, 1, 64, 100
3, 171392, Note_off_c, 1, 60, 100
3, 171648, Note_on_c, 1, 52, 87
3, 171648, Note_on_c, 1, 48, 87
3, 171776, Note_off_c, 1, 52, 100
3, 171776, Note_off_c, 1, 48, 100
3, 171840, Note_on_c, 1, 53, 87
3, 171840, Note_on_c, 1, 47, 87
3, 171968, Note_off_c, 1, 53, 100
3, 171968, Note_off_c, 1, 47, 100
3, 172032, Note_on_c, 1, 52, 87
3, 172032, Note_on_c, 1, 48, 87
3, 172160, Note_off_c, 1, 52, 100
3, 172160, Note_off_c, 1, 48, 100
3, 172416, Note_on_c, 1, 60, 87
3, 172416, Note_on_c, 1, 64, 87
3, 172480, Note_off_c, 1, 60, 100
3, 172480, Note_off_c, 1, 64, 100
3, 172512, Note_on_c, 1, 60, 87
3, 172512, Note_on_c, 1, 64, 87
3, 172576, Note_off_c, 1, 60, 100
3, 172576, Note_off_c, 1, 64, 100
3, 172608, Note_on_c, 1, 59, 87
3, 172608, Note_on_c, 1, 65, 87
3, 172672, Note_off_c, 1, 59, 100
3, 172672, Note_off_c, 1, 65, 100
3, 172704, Note_on_c, 1, 65, 87
3, 172704, Note_on_c, 1, 59, 87
3, 172768, Note_off_c, 1, 65, 100
3, 172768, Note_off_c, 1, 59, 100
3, 172800, Note_on_c, 1, 60, 87
3, 172800, Note_on_c, 1, 64, 87
3, 172928, Note_off_c, 1, 60, 100
3, 172928, Note_off_c, 1, 64, 100
3, 173184, Note_on_c, 1, 52, 87
3, 173184, Note_on_c, 1, 48, 87
3, 173248, Note_off_c, 1, 52, 100
3, 173248, Note_off_c, 1, 48, 100
3, 173280, Note_on_c, 1, 52, 87
3, 173280, Note_on_c, 1, 48, 87
3, 173344, Note_off_c, 1, 52, 100
3, 173344, Note_off_c, 1, 48, 100
3, 173376, Note_on_c, 1, 53, 87
3, 173376, Note_on_c, 1, 47, 87
3, 173440, Note_off_c, 1, 53, 100
3, 173440, Note_off_c, 1, 47, 100
3, 173472, Note_on_c, 1, 53, 87
3, 173472, Note_on_c, 1, 47, 87
3, 173536, Note_off_c, 1, 53, 100
3, 173536, Note_off_c, 1, 47, 100
3, 173568, Note_on_c, 1, 52, 75
3, 173568, Note_on_c, 1, 48, 75
3, 173696, Note_off_c, 1, 52, 100
3, 173696, Note_off_c, 1, 48, 100
3, 173760, Note_on_c, 1, 55, 50
3, 173760, Note_on_c, 1, 52, 50
3, 173760, Note_on_c, 1, 49, 50
3, 174144, Note_off_c, 1, 55, 100
3, 174144, Note_off_c, 1, 52, 100
3, 174144, Note_off_c, 1, 49, 100
3, 174336, Note_on_c, 1, 53, 75
3, 174336, Note_on_c, 1, 50, 75
3, 174464, Note_off_c, 1, 53, 100
3, 174464, Note_off_c, 1, 50, 100
3, 174528, Note_on_c, 1, 50, 50
3, 174528, Note_on_c, 1, 53, 50
3, 174528, Note_on_c, 1, 44, 50
3, 174912, Note_off_c, 1, 50, 100
3, 174912, Note_off_c, 1, 53, 100
3, 174912, Note_off_c, 1, 44, 100
3, 175104, Note_on_c, 1, 52, 75
3, 175104, Note_on_c, 1, 48, 75
3, 175104, Note_on_c, 1, 45, 75
3, 175232, Note_off_c, 1, 52, 100
3, 175232, Note_off_c, 1, 48, 100
3, 175232, Note_off_c, 1, 45, 100
3, 175296, Note_on_c, 1, 57, 50
3, 175296, Note_on_c, 1, 54, 50
3, 175296, Note_on_c, 1, 60, 50
3, 175680, Note_off_c, 1, 57, 100
3, 175680, Note_off_c, 1, 54, 100
3, 175680, Note_off_c, 1, 60, 100
3, 175872, Note_on_c, 1, 60, 50
3, 175872, Note_on_c, 1, 55, 50
3, 176000, Note_off_c, 1, 60, 100
3, 176000, Note_off_c, 1, 55, 100
3, 176256, Note_on_c, 1, 64, 50
3, 176256, Note_on_c, 1, 60, 50
3, 176256, Note_on_c, 1, 55, 50
3, 176384, Note_off_c, 1, 64, 100
3, 176384, Note_off_c, 1, 60, 100
3, 176384, Note_off_c, 1, 55, 100
3, 176640, Note_on_c, 1, 64, 50
3, 176640, Note_on_c, 1, 60, 50
3, 176640, Note_on_c, 1, 55, 50
3, 176768, Note_off_c, 1, 64, 100
3, 176768, Note_off_c, 1, 60, 100
3, 176768, Note_off_c, 1, 55, 100
3, 177024, Note_on_c, 1, 64, 50
3, 177024, Note_on_c, 1, 60, 50
3, 177024, Note_on_c, 1, 55, 50
3, 177152, Note_off_c, 1, 64, 100
3, 177152, Note_off_c, 1, 60, 100
3, 177152, Note_off_c, 1, 55, 100
3, 178624, Note_on_c, 1, 60, 75
3, 178672, Note_off_c, 1, 60, 100
3, 178688, Note_on_c, 1, 59, 75
3, 178736, Note_off_c, 1, 59, 100
3, 178752, Note_on_c, 1, 60, 75
3, 178800, Note_off_c, 1, 60, 100
3, 178816, Note_on_c, 1, 57, 75
3, 178864, Note_off_c, 1, 57, 100
3, 178880, Note_on_c, 1, 54, 75
3, 178928, Note_off_c, 1, 54, 100
3, 178944, Note_on_c, 1, 60, 75
3, 178944, Note_on_c, 1, 55, 75
3, 179072, Note_off_c, 1, 60, 100
3, 179072, Note_off_c, 1, 55, 100
3, 179136, Note_on_c, 1, 60, 75
3, 179136, Note_on_c, 1, 55, 75
3, 179264, Note_off_c, 1, 60, 100
3, 179264, Note_off_c, 1, 55, 100
3, 179328, Note_on_c, 1, 60, 75
3, 179328, Note_on_c, 1, 55, 75
3, 179456, Note_off_c, 1, 60, 100
3, 179456, Note_off_c, 1, 55, 100
3, 179520, Note_on_c, 1, 60, 75
3, 179520, Note_on_c, 1, 55, 75
3, 179648, Note_off_c, 1, 60, 100
3, 179648, Note_off_c, 1, 55, 100
3, 179712, Note_on_c, 1, 55, 75
3, 179728, Note_on_c, 1, 60, 75
3, 179840, Note_off_c, 1, 55, 100
3, 179856, Note_off_c, 1, 60, 100
3, 179904, Note_on_c, 1, 55, 75
3, 179904, Note_on_c, 1, 60, 75
3, 180032, Note_off_c, 1, 55, 100
3, 180032, Note_off_c, 1, 60, 100
3, 180096, Note_on_c, 1, 55, 75
3, 180096, Note_on_c, 1, 59, 75
3, 180224, Note_off_c, 1, 55, 100
3, 180224, Note_off_c, 1, 59, 100
3, 180288, Note_on_c, 1, 55, 75
3, 180288, Note_on_c, 1, 59, 75
3, 180416, Note_off_c, 1, 55, 100
3, 180416, Note_off_c, 1, 59, 100
3, 180480, Note_on_c, 1, 60, 75
3, 180608, Note_off_c, 1, 60, 100
3, 180672, Note_on_c, 1, 55, 75
3, 180672, Note_on_c, 1, 45, 75
3, 180800, Note_off_c, 1, 55, 100
3, 180800, Note_off_c, 1, 45, 100
3, 180864, Note_on_c, 1, 52, 75
3, 180864, Note_on_c, 1, 40, 75
3, 180992, Note_off_c, 1, 52, 100
3, 180992, Note_off_c, 1, 40, 100
3, 181056, Note_on_c, 1, 48, 75
3, 181056, Note_on_c, 1, 36, 75
3, 181184, Note_off_c, 1, 48, 100
3, 181184, Note_off_c, 1, 36, 100
3, 181248, Note_on_c, 1, 43, 75
3, 181248, Note_on_c, 1, 55, 75
3, 181376, Note_off_c, 1, 55, 100
3, 181440, Note_on_c, 1, 55, 75
3, 181504, Note_off_c, 1, 43, 100
3, 181568, Note_off_c, 1, 55, 100
3, 181632, Note_on_c, 1, 55, 75
3, 181760, Note_off_c, 1, 55, 100
3, 181824, Note_on_c, 1, 55, 75
3, 181952, Note_off_c, 1, 55, 100
3, 182016, Note_on_c, 1, 60, 75
3, 182144, Note_off_c, 1, 60, 100
3, 182208, Note_on_c, 1, 55, 75
3, 182208, Note_on_c, 1, 43, 75
3, 182336, Note_off_c, 1, 55, 100
3, 182336, Note_off_c, 1, 43, 100
3, 182400, Note_on_c, 1, 52, 75
3, 182400, Note_on_c, 1, 40, 75
3, 182528, Note_off_c, 1, 52, 100
3, 182528, Note_off_c, 1, 40, 100
3, 182592, Note_on_c, 1, 48, 75
3, 182592, Note_on_c, 1, 36, 75
3, 182720, Note_off_c, 1, 48, 100
3, 182720, Note_off_c, 1, 36, 100
3, 182784, Note_on_c, 1, 43, 75
3, 182784, Note_on_c, 1, 55, 75
3, 182912, Note_off_c, 1, 55, 100
3, 182976, Note_on_c, 1, 55, 75
3, 183040, Note_off_c, 1, 43, 100
3, 183104, Note_off_c, 1, 55, 100
3, 183168, Note_on_c, 1, 55, 75
3, 183296, Note_off_c, 1, 55, 100
3, 183360, Note_on_c, 1, 55, 75
3, 183488, Note_off_c, 1, 55, 100
3, 183552, Note_on_c, 1, 60, 75
3, 183680, Note_off_c, 1, 60, 100
3, 184320, Note_on_c, 1, 43, 75
3, 184320, Note_on_c, 1, 55, 75
3, 184448, Note_off_c, 1, 55, 100
3, 184512, Note_on_c, 1, 55, 75
3, 184576, Note_off_c, 1, 43, 100
3, 184640, Note_off_c, 1, 55, 100
3, 184704, Note_on_c, 1, 55, 75
3, 184832, Note_off_c, 1, 55, 100
3, 184896, Note_on_c, 1, 55, 75
3, 185024, Note_off_c, 1, 55, 100
3, 185088, Note_on_c, 1, 48, 75
3, 185344, Note_off_c, 1, 48, 100
3, 185664, Note_on_c, 1, 65, 75
3, 185664, Note_on_c, 1, 62, 75
3, 185664, Note_on_c, 1, 55, 75
3, 185792, Note_off_c, 1, 65, 100
3, 185792, Note_off_c, 1, 62, 100
3, 185792, Note_off_c, 1, 55, 100
3, 185856, Note_on_c, 1, 64, 75
3, 185856, Note_on_c, 1, 60, 75
3, 186112, Note_off_c, 1, 64, 100
3, 186112, Note_off_c, 1, 60, 100
3, 186432, Note_on_c, 1, 65, 75
3, 186432, Note_on_c, 1, 62, 75
3, 186432, Note_on_c, 1, 55, 75
3, 186560, Note_off_c, 1, 65, 100
3, 186560, Note_off_c, 1, 62, 100
3, 186560, Note_off_c, 1, 55, 100
3, 186624, Note_on_c, 1, 60, 75
3, 186624, Note_on_c, 1, 64, 75
3, 186752, Note_off_c, 1, 60, 100
3, 186752, Note_off_c, 1, 64, 100
3, 186816, Note_on_c, 1, 48, 75
3, 186864, Note_off_c, 1, 48, 100
3, 186880, Note_on_c, 1, 52, 75
3, 186928, Note_off_c, 1, 52, 100
3, 186944, Note_on_c, 1, 55, 75
3, 186992, Note_off_c, 1, 55, 100
3, 187008, Note_on_c, 1, 52, 75
3, 187056, Note_off_c, 1, 52, 100
3, 187072, Note_on_c, 1, 55, 75
3, 187120, Note_off_c, 1, 55, 100
3, 187136, Note_on_c, 1, 60, 75
3, 187184, Note_off_c, 1, 60, 100
3, 187200, Note_on_c, 1, 55, 75
3, 187248, Note_off_c, 1, 55, 100
3, 187264, Note_on_c, 1, 59, 75
3, 187312, Note_off_c, 1, 59, 100
3, 187328, Note_on_c, 1, 62, 75
3, 187376, Note_off_c, 1, 62, 100
3, 187392, Note_on_c, 1, 60, 75
3, 187440, Note_off_c, 1, 60, 100
3, 187456, Note_on_c, 1, 64, 75
3, 187504, Note_off_c, 1, 64, 100
3, 187520, Note_on_c, 1, 67, 75
3, 187568, Note_off_c, 1, 67, 100
3, 187584, Note_on_c, 1, 48, 75
3, 187632, Note_off_c, 1, 48, 100
3, 187648, Note_on_c, 1, 52, 75
3, 187696, Note_off_c, 1, 52, 100
3, 187712, Note_on_c, 1, 55, 75
3, 187760, Note_off_c, 1, 55, 100
3, 187776, Note_on_c, 1, 52, 75
3, 187824, Note_off_c, 1, 52, 100
3, 187840, Note_on_c, 1, 55, 75
3, 187888, Note_off_c, 1, 55, 100
3, 187904, Note_on_c, 1, 60, 75
3, 187952, Note_off_c, 1, 60, 100
3, 187968, Note_on_c, 1, 55, 75
3, 188016, Note_off_c, 1, 55, 100
3, 188032, Note_on_c, 1, 59, 75
3, 188080, Note_off_c, 1, 59, 100
3, 188096, Note_on_c, 1, 62, 75
3, 188144, Note_off_c, 1, 62, 100
3, 188160, Note_on_c, 1, 64, 75
3, 188160, Note_on_c, 1, 60, 75
3, 188416, Note_off_c, 1, 64, 100
3, 188416, Note_off_c, 1, 60, 100
3, 188928, Note_on_c, 1, 36, 50
3, 188992, Note_off_c, 1, 36, 100
3, 189024, Note_on_c, 1, 43, 50
3, 189088, Note_off_c, 1, 43, 100
3, 189120, Note_on_c, 1, 40, 50
3, 189184, Note_off_c, 1, 40, 100
3, 189216, Note_on_c, 1, 43, 50
3, 189280, Note_off_c, 1, 43, 100
3, 189312, Note_on_c, 1, 48, 50
3, 189376, Note_off_c, 1, 48, 100
3, 189408, Note_on_c, 1, 43, 50
3, 189472, Note_off_c, 1, 43, 100
3, 189504, Note_on_c, 1, 40, 50
3, 189568, Note_off_c, 1, 40, 100
3, 189600, Note_on_c, 1, 43, 50
3, 189664, Note_off_c, 1, 43, 100
3, 189696, Note_on_c, 1, 36, 50
3, 189760, Note_off_c, 1, 36, 100
3, 189808, Note_on_c, 1, 43, 50
3, 189872, Note_off_c, 1, 43, 100
3, 189872, Note_on_c, 1, 40, 50
3, 189936, Note_off_c, 1, 40, 100
3, 189984, Note_on_c, 1, 43, 50
3, 190048, Note_off_c, 1, 43, 100
3, 190080, Note_on_c, 1, 46, 50
3, 190144, Note_off_c, 1, 46, 100
3, 190176, Note_on_c, 1, 43, 50
3, 190240, Note_off_c, 1, 43, 100
3, 190272, Note_on_c, 1, 40, 50
3, 190336, Note_off_c, 1, 40, 100
3, 190368, Note_on_c, 1, 43, 50
3, 190432, Note_off_c, 1, 43, 100
3, 190464, Note_on_c, 1, 36, 50
3, 190528, Note_off_c, 1, 36, 100
3, 190560, Note_on_c, 1, 45, 50
3, 190624, Note_off_c, 1, 45, 100
3, 190656, Note_on_c, 1, 41, 50
3, 190720, Note_off_c, 1, 41, 100
3, 190752, Note_on_c, 1, 45, 50
3, 190816, Note_off_c, 1, 45, 100
3, 190848, Note_on_c, 1, 48, 50
3, 190912, Note_off_c, 1, 48, 100
3, 190944, Note_on_c, 1, 45, 50
3, 191008, Note_off_c, 1, 45, 100
3, 191040, Note_on_c, 1, 41, 50
3, 191104, Note_off_c, 1, 41, 100
3, 191136, Note_on_c, 1, 45, 50
3, 191200, Note_off_c, 1, 45, 100
3, 191232, Note_on_c, 1, 36, 50
3, 191296, Note_off_c, 1, 36, 100
3, 191328, Note_on_c, 1, 45, 50
3, 191392, Note_off_c, 1, 45, 100
3, 191424, Note_on_c, 1, 41, 50
3, 191488, Note_off_c, 1, 41, 100
3, 191520, Note_on_c, 1, 45, 50
3, 191584, Note_off_c, 1, 45, 100
3, 191616, Note_on_c, 1, 48, 50
3, 191680, Note_off_c, 1, 48, 100
3, 191712, Note_on_c, 1, 45, 50
3, 191776, Note_off_c, 1, 45, 100
3, 191808, Note_on_c, 1, 41, 50
3, 191872, Note_off_c, 1, 41, 100
3, 191904, Note_on_c, 1, 45, 50
3, 191968, Note_off_c, 1, 45, 100
3, 192000, Note_on_c, 1, 36, 50
3, 192064, Note_off_c, 1, 36, 100
3, 192096, Note_on_c, 1, 43, 50
3, 192160, Note_off_c, 1, 43, 100
3, 192192, Note_on_c, 1, 41, 50
3, 192256, Note_off_c, 1, 41, 100
3, 192288, Note_on_c, 1, 43, 50
3, 192352, Note_off_c, 1, 43, 100
3, 192384, Note_on_c, 1, 47, 50
3, 192448, Note_off_c, 1, 47, 100
3, 192480, Note_on_c, 1, 43, 50
3, 192544, Note_off_c, 1, 43, 100
3, 192576, Note_on_c, 1, 41, 50
3, 192640, Note_off_c, 1, 41, 100
3, 192672, Note_on_c, 1, 43, 50
3, 192736, Note_off_c, 1, 43, 100
3, 192768, Note_on_c, 1, 36, 37
3, 192832, Note_off_c, 1, 36, 100
3, 192864, Note_on_c, 1, 47, 37
3, 192928, Note_off_c, 1, 47, 100
3, 192960, Note_on_c, 1, 43, 37
3, 193024, Note_off_c, 1, 43, 100
3, 193056, Note_on_c, 1, 47, 37
3, 193120, Note_off_c, 1, 47, 100
3, 193152, Note_on_c, 1, 50, 37
3, 193216, Note_off_c, 1, 50, 100
3, 193248, Note_on_c, 1, 47, 37
3, 193312, Note_off_c, 1, 47, 100
3, 193344, Note_on_c, 1, 43, 37
3, 193408, Note_off_c, 1, 43, 100
3, 193440, Note_on_c, 1, 47, 37
3, 193504, Note_off_c, 1, 47, 100
3, 193536, Note_on_c, 1, 36, 37
3, 193600, Note_off_c, 1, 36, 100
3, 193632, Note_on_c, 1, 43, 37
3, 193696, Note_off_c, 1, 43, 100
3, 193728, Note_on_c, 1, 55, 37
3, 193728, Note_on_c, 1, 52, 37
3, 193728, Note_on_c, 1, 40, 37
3, 193792, Note_off_c, 1, 40, 100
3, 193824, Note_on_c, 1, 43, 37
3, 193856, Note_off_c, 1, 55, 100
3, 193856, Note_off_c, 1, 52, 100
3, 193888, Note_off_c, 1, 43, 100
3, 193920, Note_on_c, 1, 48, 37
3, 193920, Note_on_c, 1, 55, 37
3, 193920, Note_on_c, 1, 52, 37
3, 193984, Note_off_c, 1, 48, 100
3, 194016, Note_on_c, 1, 43, 37
3, 194048, Note_off_c, 1, 55, 100
3, 194048, Note_off_c, 1, 52, 100
3, 194080, Note_off_c, 1, 43, 100
3, 194112, Note_on_c, 1, 40, 37
3, 194112, Note_on_c, 1, 55, 37
3, 194112, Note_on_c, 1, 52, 37
3, 194176, Note_off_c, 1, 40, 100
3, 194208, Note_on_c, 1, 43, 37
3, 194240, Note_off_c, 1, 55, 100
3, 194240, Note_off_c, 1, 52, 100
3, 194272, Note_off_c, 1, 43, 100
3, 194304, Note_on_c, 1, 55, 37
3, 194304, Note_on_c, 1, 52, 37
3, 194304, Note_on_c, 1, 48, 37
3, 194304, Note_on_c, 1, 36, 37
3, 194560, Note_off_c, 1, 55, 100
3, 194560, Note_off_c, 1, 52, 100
3, 194560, Note_off_c, 1, 48, 100
3, 194560, Note_off_c, 1, 36, 100
3, 194560, End_track
4, 0, Start_track
4, 0, Title_t, "Sonata # 10"
4, 0, Control_c, 2, 10, 45
4, 0, Control_c, 2, 91, 0
4, 0, Control_c, 2, 93, 0
4, 0, Key_signature, 0, "major"
4, 0, End_track
5, 0, Start_track
5, 0, Title_t, "by Bob"
5, 0, Key_signature, 0, "major"
5, 0, End_track
6, 0, Start_track
6, 0, Title_t, "Fisher"
6, 0, Key_signature, 0, "major"
6, 0, End_track
7, 0, Start_track
7, 0, Key_signature, 0, "major"
7, 0, End_track
8, 0, Start_track
8, 0, Key_signature, 0, "major"
8, 0, End_track
9, 0, Start_track
9, 0, Key_signature, 0, "major"
9, 0, End_track
10, 0, Start_track
10, 0, Key_signature, 0, "major"
10, 0, End_track
11, 0, Start_track
11, 0, Key_signature, 0, "major"
11, 0, End_track
12, 0, Start_track
12, 0, Key_signature, 0, "major"
12, 0, End_track
13, 0, Start_track
13, 0, Key_signature, 0, "major"
13, 0, End_track
14, 0, Start_track
14, 0, Key_signature, 0, "major"
14, 0, End_track
15, 0, Start_track
15, 0, Key_signature, 0, "major"
15, 0, End_track
16, 0, Start_track
16, 0, Key_signature, 0, "major"
16, 0, End_track
17, 0, Start_track
17, 0, Key_signature, 0, "major"
17, 0, End_track
0, 0, End_of_file
