0, 0, Header, 1, 6, 384
1, 0, Start_track
1, 0, Sequencer_specific, 3, 0, 0, 65
1, 0, Time_signature, 4, 2, 24, 8
1, 0, Key_signature, 0, "major"
1, 0, Tempo, 600000
1, 1536, Tempo, 882353
1, 33408, Tempo, 1818182
1, 33600, Tempo, 1176471
1, 33792, Tempo, 882353
1, 96576, Tempo, 1818182
1, 96624, Tempo, 882353
1, 127392, Tempo, 1333333
1, 127488, Tempo, 882353
1, 179712, Tempo, 967742
1, 180480, Tempo, 1200000
1, 181248, Tempo, 882353
1, 210048, Tempo, 967742
1, 219648, Tempo, 1176471
1, 220032, Tempo, 1333333
1, 220416, Tempo, 1538462
1, 220800, Tempo, 1764706
1, 220992, Tempo, 2142857
1, 221184, Tempo, 882353
1, 231936, Tempo, 1052632
1, 231936, End_track
2, 0, Start_track
2, 0, MIDI_port, 0
2, 0, Title_t, "Mozart - Violin"
2, 0, Control_c, 0, 0, 0
2, 0, Control_c, 0, 32, 0
2, 0, Program_c, 0, 40
2, 0, Control_c, 0, 7, 127
2, 0, Control_c, 0, 10, 67
2, 0, Control_c, 0, 91, 67
2, 0, Control_c, 0, 93, 37
2, 0, Control_c, 0, 121, 0
2, 192, Control_c, 0, 10, 63
2, 384, Control_c, 0, 91, 73
2, 480, Control_c, 0, 93, 35
2, 576, Program_c, 0, 40
2, 672, Control_c, 0, 1, 55
2, 33792, Note_on_c, 0, 86, 82
2, 34172, Note_on_c, 0, 86, 0
2, 34176, Note_on_c, 0, 81, 82
2, 34464, Note_on_c, 0, 81, 0
2, 34464, Note_on_c, 0, 81, 82
2, 34512, Note_on_c, 0, 81, 0
2, 34560, Note_on_c, 0, 78, 82
2, 34660, Note_on_c, 0, 78, 0
2, 34752, Note_on_c, 0, 74, 82
2, 34852, Note_on_c, 0, 74, 0
2, 35136, Note_on_c, 0, 74, 65
2, 35196, Note_on_c, 0, 74, 0
2, 35200, Note_on_c, 0, 76, 65
2, 35260, Note_on_c, 0, 76, 0
2, 35264, Note_on_c, 0, 74, 65
2, 35324, Note_on_c, 0, 74, 0
2, 35328, Note_on_c, 0, 79, 65
2, 35420, Note_on_c, 0, 79, 0
2, 35904, Note_on_c, 0, 74, 65
2, 35964, Note_on_c, 0, 74, 0
2, 35968, Note_on_c, 0, 76, 65
2, 36028, Note_on_c, 0, 76, 0
2, 36032, Note_on_c, 0, 74, 65
2, 36092, Note_on_c, 0, 74, 0
2, 36096, Note_on_c, 0, 83, 65
2, 36188, Note_on_c, 0, 83, 0
2, 36672, Note_on_c, 0, 86, 65
2, 36732, Note_on_c, 0, 86, 0
2, 36736, Note_on_c, 0, 85, 65
2, 36796, Note_on_c, 0, 85, 0
2, 36800, Note_on_c, 0, 83, 65
2, 36860, Note_on_c, 0, 83, 0
2, 36864, Note_on_c, 0, 81, 65
2, 36912, Note_on_c, 0, 81, 0
2, 36960, Note_on_c, 0, 81, 71
2, 36988, Note_on_c, 0, 81, 0
2, 36992, Note_on_c, 0, 83, 71
2, 37020, Note_on_c, 0, 83, 0
2, 37024, Note_on_c, 0, 81, 71
2, 37052, Note_on_c, 0, 81, 0
2, 37056, Note_on_c, 0, 83, 65
2, 37144, Note_on_c, 0, 83, 0
2, 37152, Note_on_c, 0, 78, 65
2, 37240, Note_on_c, 0, 78, 0
2, 37248, Note_on_c, 0, 81, 71
2, 37276, Note_on_c, 0, 81, 0
2, 37280, Note_on_c, 0, 79, 71
2, 37308, Note_on_c, 0, 79, 0
2, 37312, Note_on_c, 0, 81, 71
2, 37340, Note_on_c, 0, 81, 0
2, 37344, Note_on_c, 0, 79, 71
2, 37372, Note_on_c, 0, 79, 0
2, 37376, Note_on_c, 0, 81, 71
2, 37404, Note_on_c, 0, 81, 0
2, 37408, Note_on_c, 0, 79, 71
2, 37436, Note_on_c, 0, 79, 0
2, 37440, Note_on_c, 0, 81, 71
2, 37468, Note_on_c, 0, 81, 0
2, 37472, Note_on_c, 0, 79, 71
2, 37500, Note_on_c, 0, 79, 0
2, 37504, Note_on_c, 0, 81, 71
2, 37532, Note_on_c, 0, 81, 0
2, 37536, Note_on_c, 0, 78, 67
2, 37576, Note_on_c, 0, 78, 0
2, 37584, Note_on_c, 0, 79, 67
2, 37624, Note_on_c, 0, 79, 0
2, 37632, Note_on_c, 0, 79, 65
2, 37820, Note_on_c, 0, 79, 0
2, 37824, Note_on_c, 0, 78, 65
2, 38012, Note_on_c, 0, 78, 0
2, 38592, Note_on_c, 0, 74, 65
2, 38652, Note_on_c, 0, 74, 0
2, 38656, Note_on_c, 0, 76, 65
2, 38716, Note_on_c, 0, 76, 0
2, 38720, Note_on_c, 0, 74, 65
2, 38780, Note_on_c, 0, 74, 0
2, 38784, Note_on_c, 0, 79, 65
2, 38884, Note_on_c, 0, 79, 0
2, 39360, Note_on_c, 0, 74, 65
2, 39420, Note_on_c, 0, 74, 0
2, 39424, Note_on_c, 0, 76, 65
2, 39484, Note_on_c, 0, 76, 0
2, 39488, Note_on_c, 0, 74, 65
2, 39548, Note_on_c, 0, 74, 0
2, 39552, Note_on_c, 0, 83, 65
2, 39652, Note_on_c, 0, 83, 0
2, 39936, Note_on_c, 0, 81, 65
2, 40412, Note_on_c, 0, 81, 0
2, 40416, Note_on_c, 0, 83, 65
2, 40512, Note_on_c, 0, 83, 0
2, 40512, Note_on_c, 0, 85, 65
2, 40604, Note_on_c, 0, 85, 0
2, 40608, Note_on_c, 0, 86, 65
2, 40696, Note_on_c, 0, 86, 0
2, 40704, Note_on_c, 0, 86, 72
2, 40736, Note_on_c, 0, 86, 0
2, 40736, Note_on_c, 0, 88, 72
2, 40768, Note_on_c, 0, 88, 0
2, 40768, Note_on_c, 0, 86, 72
2, 40800, Note_on_c, 0, 86, 0
2, 40800, Note_on_c, 0, 85, 66
2, 40880, Note_on_c, 0, 85, 67
2, 40888, Note_on_c, 0, 85, 0
2, 41260, Note_on_c, 0, 85, 0
2, 41280, Note_on_c, 0, 88, 71
2, 41660, Note_on_c, 0, 88, 0
2, 41664, Note_on_c, 0, 91, 71
2, 42044, Note_on_c, 0, 91, 0
2, 42048, Note_on_c, 0, 55, 84
2, 42428, Note_on_c, 0, 55, 0
2, 42432, Note_on_c, 0, 79, 84
2, 42720, Note_on_c, 0, 79, 0
2, 42720, Note_on_c, 0, 81, 85
2, 42764, Note_on_c, 0, 81, 0
2, 42768, Note_on_c, 0, 83, 85
2, 42812, Note_on_c, 0, 83, 0
2, 42816, Note_on_c, 0, 81, 86
2, 42908, Note_on_c, 0, 81, 0
2, 42912, Note_on_c, 0, 79, 87
2, 42960, Note_on_c, 0, 79, 0
2, 43008, Note_on_c, 0, 78, 87
2, 43072, Note_on_c, 0, 78, 0
2, 43072, Note_on_c, 0, 81, 87
2, 43136, Note_on_c, 0, 81, 0
2, 43136, Note_on_c, 0, 81, 87
2, 43200, Note_on_c, 0, 81, 0
2, 43200, Note_on_c, 0, 81, 87
2, 43264, Note_on_c, 0, 81, 0
2, 43264, Note_on_c, 0, 78, 87
2, 43328, Note_on_c, 0, 78, 0
2, 43328, Note_on_c, 0, 74, 87
2, 43392, Note_on_c, 0, 74, 0
2, 43392, Note_on_c, 0, 76, 87
2, 43456, Note_on_c, 0, 76, 0
2, 43456, Note_on_c, 0, 81, 87
2, 43520, Note_on_c, 0, 81, 0
2, 43520, Note_on_c, 0, 81, 87
2, 43584, Note_on_c, 0, 81, 0
2, 43584, Note_on_c, 0, 81, 87
2, 43648, Note_on_c, 0, 81, 0
2, 43648, Note_on_c, 0, 79, 87
2, 43712, Note_on_c, 0, 79, 0
2, 43712, Note_on_c, 0, 76, 87
2, 43776, Note_on_c, 0, 76, 0
2, 43776, Note_on_c, 0, 78, 87
2, 43840, Note_on_c, 0, 78, 0
2, 43840, Note_on_c, 0, 81, 87
2, 43904, Note_on_c, 0, 81, 0
2, 43904, Note_on_c, 0, 81, 87
2, 43968, Note_on_c, 0, 81, 0
2, 43968, Note_on_c, 0, 81, 87
2, 44032, Note_on_c, 0, 81, 0
2, 44032, Note_on_c, 0, 78, 87
2, 44096, Note_on_c, 0, 78, 0
2, 44096, Note_on_c, 0, 74, 87
2, 44160, Note_on_c, 0, 74, 0
2, 44160, Note_on_c, 0, 76, 87
2, 44224, Note_on_c, 0, 76, 0
2, 44224, Note_on_c, 0, 81, 87
2, 44288, Note_on_c, 0, 81, 0
2, 44288, Note_on_c, 0, 81, 87
2, 44352, Note_on_c, 0, 81, 0
2, 44352, Note_on_c, 0, 81, 87
2, 44416, Note_on_c, 0, 81, 0
2, 44416, Note_on_c, 0, 79, 87
2, 44480, Note_on_c, 0, 79, 0
2, 44480, Note_on_c, 0, 76, 87
2, 44544, Note_on_c, 0, 76, 0
2, 44544, Note_on_c, 0, 78, 87
2, 44568, Note_on_c, 0, 78, 0
2, 44592, Note_on_c, 0, 74, 87
2, 44640, Note_on_c, 0, 74, 0
2, 44640, Note_on_c, 0, 76, 87
2, 44684, Note_on_c, 0, 76, 0
2, 44688, Note_on_c, 0, 78, 87
2, 44732, Note_on_c, 0, 78, 0
2, 44736, Note_on_c, 0, 79, 87
2, 44780, Note_on_c, 0, 79, 0
2, 44784, Note_on_c, 0, 81, 87
2, 44828, Note_on_c, 0, 81, 0
2, 44832, Note_on_c, 0, 83, 87
2, 44876, Note_on_c, 0, 83, 0
2, 44880, Note_on_c, 0, 85, 87
2, 44920, Note_on_c, 0, 85, 0
2, 44928, Note_on_c, 0, 86, 87
2, 45400, Note_on_c, 0, 86, 0
2, 45408, Note_on_c, 0, 85, 87
2, 45504, Note_on_c, 0, 85, 0
2, 45504, Note_on_c, 0, 83, 87
2, 45592, Note_on_c, 0, 83, 0
2, 45600, Note_on_c, 0, 81, 87
2, 45696, Note_on_c, 0, 81, 0
2, 45696, Note_on_c, 0, 79, 87
2, 45784, Note_on_c, 0, 79, 0
2, 45792, Note_on_c, 0, 78, 87
2, 45888, Note_on_c, 0, 78, 0
2, 45888, Note_on_c, 0, 76, 87
2, 45980, Note_on_c, 0, 76, 0
2, 45984, Note_on_c, 0, 78, 87
2, 46072, Note_on_c, 0, 78, 0
2, 46080, Note_on_c, 0, 78, 92
2, 46108, Note_on_c, 0, 78, 0
2, 46112, Note_on_c, 0, 79, 92
2, 46140, Note_on_c, 0, 79, 0
2, 46144, Note_on_c, 0, 78, 92
2, 46172, Note_on_c, 0, 78, 0
2, 46176, Note_on_c, 0, 79, 92
2, 46204, Note_on_c, 0, 79, 0
2, 46208, Note_on_c, 0, 76, 92
2, 46236, Note_on_c, 0, 76, 0
2, 46240, Note_on_c, 0, 78, 92
2, 46268, Note_on_c, 0, 78, 0
2, 46272, Note_on_c, 0, 76, 87
2, 46460, Note_on_c, 0, 76, 0
2, 46848, Note_on_c, 0, 76, 65
2, 47020, Note_on_c, 0, 76, 0
2, 47040, Note_on_c, 0, 76, 76
2, 47324, Note_on_c, 0, 76, 0
2, 47328, Note_on_c, 0, 85, 65
2, 47416, Note_on_c, 0, 85, 0
2, 47424, Note_on_c, 0, 83, 65
2, 47512, Note_on_c, 0, 83, 0
2, 47520, Note_on_c, 0, 81, 65
2, 47608, Note_on_c, 0, 81, 0
2, 47616, Note_on_c, 0, 81, 65
2, 47712, Note_on_c, 0, 81, 0
2, 47712, Note_on_c, 0, 80, 65
2, 47800, Note_on_c, 0, 80, 0
2, 47808, Note_on_c, 0, 80, 65
2, 48192, Note_on_c, 0, 80, 0
2, 48192, Note_on_c, 0, 78, 65
2, 48568, Note_on_c, 0, 78, 0
2, 48576, Note_on_c, 0, 76, 65
2, 48960, Note_on_c, 0, 76, 0
2, 48960, Note_on_c, 0, 74, 65
2, 49144, Note_on_c, 0, 74, 0
2, 49152, Note_on_c, 0, 74, 71
2, 49180, Note_on_c, 0, 74, 0
2, 49184, Note_on_c, 0, 76, 71
2, 49212, Note_on_c, 0, 76, 0
2, 49216, Note_on_c, 0, 74, 71
2, 49244, Note_on_c, 0, 74, 0
2, 49248, Note_on_c, 0, 76, 71
2, 49276, Note_on_c, 0, 76, 0
2, 49280, Note_on_c, 0, 74, 71
2, 49308, Note_on_c, 0, 74, 0
2, 49312, Note_on_c, 0, 76, 71
2, 49340, Note_on_c, 0, 76, 0
2, 49344, Note_on_c, 0, 74, 71
2, 49372, Note_on_c, 0, 74, 0
2, 49376, Note_on_c, 0, 76, 71
2, 49404, Note_on_c, 0, 76, 0
2, 49408, Note_on_c, 0, 74, 71
2, 49436, Note_on_c, 0, 74, 0
2, 49440, Note_on_c, 0, 76, 71
2, 49468, Note_on_c, 0, 76, 0
2, 49472, Note_on_c, 0, 73, 71
2, 49500, Note_on_c, 0, 73, 0
2, 49504, Note_on_c, 0, 74, 71
2, 49532, Note_on_c, 0, 74, 0
2, 49536, Note_on_c, 0, 73, 66
2, 49724, Note_on_c, 0, 73, 0
2, 49920, Note_on_c, 0, 76, 69
2, 50108, Note_on_c, 0, 76, 0
2, 50112, Note_on_c, 0, 76, 71
2, 50400, Note_on_c, 0, 76, 0
2, 50400, Note_on_c, 0, 85, 75
2, 50492, Note_on_c, 0, 85, 0
2, 50496, Note_on_c, 0, 83, 77
2, 50588, Note_on_c, 0, 83, 0
2, 50592, Note_on_c, 0, 81, 79
2, 50680, Note_on_c, 0, 81, 0
2, 50688, Note_on_c, 0, 81, 82
2, 50784, Note_on_c, 0, 81, 0
2, 50784, Note_on_c, 0, 78, 82
2, 50872, Note_on_c, 0, 78, 0
2, 50880, Note_on_c, 0, 78, 82
2, 51264, Note_on_c, 0, 78, 0
2, 51264, Note_on_c, 0, 76, 82
2, 51444, Note_on_c, 0, 76, 0
2, 51456, Note_on_c, 0, 76, 78
2, 51648, Note_on_c, 0, 76, 0
2, 51648, Note_on_c, 0, 74, 72
2, 52024, Note_on_c, 0, 74, 0
2, 52032, Note_on_c, 0, 73, 65
2, 52212, Note_on_c, 0, 73, 0
2, 52224, Note_on_c, 0, 73, 71
2, 52252, Note_on_c, 0, 73, 0
2, 52256, Note_on_c, 0, 74, 71
2, 52284, Note_on_c, 0, 74, 0
2, 52288, Note_on_c, 0, 73, 71
2, 52316, Note_on_c, 0, 73, 0
2, 52320, Note_on_c, 0, 74, 71
2, 52348, Note_on_c, 0, 74, 0
2, 52352, Note_on_c, 0, 73, 71
2, 52380, Note_on_c, 0, 73, 0
2, 52384, Note_on_c, 0, 74, 71
2, 52412, Note_on_c, 0, 74, 0
2, 52416, Note_on_c, 0, 71, 71
2, 52604, Note_on_c, 0, 71, 0
2, 53088, Note_on_c, 0, 76, 71
2, 53180, Note_on_c, 0, 76, 0
2, 53184, Note_on_c, 0, 75, 73
2, 53276, Note_on_c, 0, 75, 0
2, 53280, Note_on_c, 0, 76, 75
2, 53372, Note_on_c, 0, 76, 0
2, 53376, Note_on_c, 0, 75, 78
2, 53468, Note_on_c, 0, 75, 0
2, 53472, Note_on_c, 0, 76, 80
2, 53564, Note_on_c, 0, 76, 0
2, 53568, Note_on_c, 0, 78, 83
2, 53660, Note_on_c, 0, 78, 0
2, 53664, Note_on_c, 0, 76, 85
2, 53756, Note_on_c, 0, 76, 0
2, 53760, Note_on_c, 0, 64, 87
2, 53820, Note_on_c, 0, 64, 0
2, 53824, Note_on_c, 0, 74, 87
2, 53884, Note_on_c, 0, 74, 0
2, 53888, Note_on_c, 0, 83, 87
2, 53920, Note_on_c, 0, 83, 0
2, 53952, Note_on_c, 0, 65, 87
2, 54012, Note_on_c, 0, 65, 0
2, 54016, Note_on_c, 0, 74, 87
2, 54076, Note_on_c, 0, 74, 0
2, 54080, Note_on_c, 0, 83, 87
2, 54112, Note_on_c, 0, 83, 0
2, 54144, Note_on_c, 0, 64, 87
2, 54204, Note_on_c, 0, 64, 0
2, 54208, Note_on_c, 0, 74, 87
2, 54268, Note_on_c, 0, 74, 0
2, 54272, Note_on_c, 0, 83, 87
2, 54304, Note_on_c, 0, 83, 0
2, 54336, Note_on_c, 0, 65, 87
2, 54396, Note_on_c, 0, 65, 0
2, 54400, Note_on_c, 0, 74, 87
2, 54460, Note_on_c, 0, 74, 0
2, 54464, Note_on_c, 0, 83, 87
2, 54496, Note_on_c, 0, 83, 0
2, 54528, Note_on_c, 0, 64, 87
2, 54588, Note_on_c, 0, 64, 0
2, 54592, Note_on_c, 0, 74, 87
2, 54652, Note_on_c, 0, 74, 0
2, 54656, Note_on_c, 0, 83, 87
2, 54716, Note_on_c, 0, 83, 0
2, 54720, Note_on_c, 0, 83, 87
2, 54780, Note_on_c, 0, 83, 0
2, 54784, Note_on_c, 0, 83, 87
2, 54844, Note_on_c, 0, 83, 0
2, 54848, Note_on_c, 0, 83, 87
2, 54908, Note_on_c, 0, 83, 0
2, 54912, Note_on_c, 0, 83, 87
2, 54976, Note_on_c, 0, 83, 0
2, 54976, Note_on_c, 0, 81, 87
2, 55040, Note_on_c, 0, 81, 0
2, 55040, Note_on_c, 0, 80, 87
2, 55104, Note_on_c, 0, 80, 0
2, 55104, Note_on_c, 0, 78, 87
2, 55168, Note_on_c, 0, 78, 0
2, 55168, Note_on_c, 0, 76, 87
2, 55232, Note_on_c, 0, 76, 0
2, 55232, Note_on_c, 0, 74, 87
2, 55296, Note_on_c, 0, 74, 0
2, 55296, Note_on_c, 0, 64, 87
2, 55360, Note_on_c, 0, 64, 0
2, 55360, Note_on_c, 0, 73, 87
2, 55416, Note_on_c, 0, 73, 0
2, 55424, Note_on_c, 0, 81, 87
2, 55488, Note_on_c, 0, 81, 0
2, 55488, Note_on_c, 0, 64, 87
2, 55552, Note_on_c, 0, 64, 0
2, 55552, Note_on_c, 0, 74, 87
2, 55608, Note_on_c, 0, 74, 0
2, 55616, Note_on_c, 0, 83, 87
2, 55680, Note_on_c, 0, 83, 0
2, 55680, Note_on_c, 0, 64, 87
2, 55744, Note_on_c, 0, 64, 0
2, 55744, Note_on_c, 0, 73, 87
2, 55800, Note_on_c, 0, 73, 0
2, 55808, Note_on_c, 0, 81, 87
2, 55872, Note_on_c, 0, 81, 0
2, 55872, Note_on_c, 0, 64, 87
2, 55936, Note_on_c, 0, 64, 0
2, 55936, Note_on_c, 0, 74, 87
2, 55992, Note_on_c, 0, 74, 0
2, 56000, Note_on_c, 0, 83, 87
2, 56064, Note_on_c, 0, 83, 0
2, 56064, Note_on_c, 0, 64, 87
2, 56128, Note_on_c, 0, 64, 0
2, 56128, Note_on_c, 0, 73, 87
2, 56188, Note_on_c, 0, 73, 0
2, 56192, Note_on_c, 0, 83, 87
2, 56248, Note_on_c, 0, 83, 0
2, 56256, Note_on_c, 0, 81, 87
2, 56320, Note_on_c, 0, 81, 0
2, 56320, Note_on_c, 0, 81, 87
2, 56384, Note_on_c, 0, 81, 0
2, 56384, Note_on_c, 0, 81, 87
2, 56448, Note_on_c, 0, 81, 0
2, 56448, Note_on_c, 0, 81, 87
2, 56512, Note_on_c, 0, 81, 0
2, 56512, Note_on_c, 0, 80, 87
2, 56576, Note_on_c, 0, 80, 0
2, 56576, Note_on_c, 0, 78, 87
2, 56640, Note_on_c, 0, 78, 0
2, 56640, Note_on_c, 0, 76, 87
2, 56704, Note_on_c, 0, 76, 0
2, 56704, Note_on_c, 0, 74, 87
2, 56768, Note_on_c, 0, 74, 0
2, 56768, Note_on_c, 0, 73, 87
2, 56832, Note_on_c, 0, 73, 0
2, 56832, Note_on_c, 0, 64, 65
2, 56896, Note_on_c, 0, 64, 0
2, 56896, Note_on_c, 0, 74, 65
2, 56952, Note_on_c, 0, 74, 0
2, 56960, Note_on_c, 0, 83, 65
2, 56992, Note_on_c, 0, 83, 0
2, 57024, Note_on_c, 0, 65, 65
2, 57088, Note_on_c, 0, 65, 0
2, 57088, Note_on_c, 0, 74, 65
2, 57144, Note_on_c, 0, 74, 0
2, 57152, Note_on_c, 0, 83, 65
2, 57184, Note_on_c, 0, 83, 0
2, 57216, Note_on_c, 0, 64, 65
2, 57280, Note_on_c, 0, 64, 0
2, 57280, Note_on_c, 0, 74, 65
2, 57336, Note_on_c, 0, 74, 0
2, 57344, Note_on_c, 0, 83, 65
2, 57376, Note_on_c, 0, 83, 0
2, 57408, Note_on_c, 0, 65, 65
2, 57472, Note_on_c, 0, 65, 0
2, 57472, Note_on_c, 0, 74, 65
2, 57528, Note_on_c, 0, 74, 0
2, 57536, Note_on_c, 0, 83, 65
2, 57568, Note_on_c, 0, 83, 0
2, 57600, Note_on_c, 0, 64, 65
2, 57664, Note_on_c, 0, 64, 0
2, 57664, Note_on_c, 0, 74, 65
2, 57720, Note_on_c, 0, 74, 0
2, 57728, Note_on_c, 0, 83, 65
2, 57760, Note_on_c, 0, 83, 0
2, 57792, Note_on_c, 0, 83, 65
2, 57824, Note_on_c, 0, 83, 0
2, 57856, Note_on_c, 0, 83, 65
2, 57888, Note_on_c, 0, 83, 0
2, 57920, Note_on_c, 0, 83, 65
2, 57952, Note_on_c, 0, 83, 0
2, 57984, Note_on_c, 0, 83, 65
2, 58020, Note_on_c, 0, 83, 0
2, 58048, Note_on_c, 0, 81, 65
2, 58080, Note_on_c, 0, 81, 0
2, 58112, Note_on_c, 0, 80, 65
2, 58144, Note_on_c, 0, 80, 0
2, 58176, Note_on_c, 0, 78, 65
2, 58208, Note_on_c, 0, 78, 0
2, 58240, Note_on_c, 0, 76, 65
2, 58272, Note_on_c, 0, 76, 0
2, 58304, Note_on_c, 0, 74, 65
2, 58332, Note_on_c, 0, 74, 0
2, 58368, Note_on_c, 0, 73, 65
2, 58428, Note_on_c, 0, 73, 0
2, 58432, Note_on_c, 0, 76, 65
2, 58492, Note_on_c, 0, 76, 0
2, 58496, Note_on_c, 0, 81, 65
2, 58556, Note_on_c, 0, 81, 0
2, 58560, Note_on_c, 0, 85, 65
2, 58652, Note_on_c, 0, 85, 0
2, 58752, Note_on_c, 0, 76, 65
2, 58812, Note_on_c, 0, 76, 0
2, 58816, Note_on_c, 0, 81, 65
2, 58876, Note_on_c, 0, 81, 0
2, 58880, Note_on_c, 0, 85, 65
2, 58940, Note_on_c, 0, 85, 0
2, 58944, Note_on_c, 0, 88, 65
2, 59036, Note_on_c, 0, 88, 0
2, 59136, Note_on_c, 0, 73, 66
2, 59196, Note_on_c, 0, 73, 0
2, 59200, Note_on_c, 0, 76, 67
2, 59260, Note_on_c, 0, 76, 0
2, 59264, Note_on_c, 0, 81, 70
2, 59324, Note_on_c, 0, 81, 0
2, 59328, Note_on_c, 0, 85, 72
2, 59420, Note_on_c, 0, 85, 0
2, 59424, Note_on_c, 0, 85, 74
2, 59516, Note_on_c, 0, 85, 0
2, 59520, Note_on_c, 0, 76, 77
2, 59580, Note_on_c, 0, 76, 0
2, 59584, Note_on_c, 0, 81, 78
2, 59644, Note_on_c, 0, 81, 0
2, 59648, Note_on_c, 0, 85, 80
2, 59708, Note_on_c, 0, 85, 0
2, 59712, Note_on_c, 0, 88, 83
2, 59804, Note_on_c, 0, 88, 0
2, 59808, Note_on_c, 0, 88, 85
2, 59900, Note_on_c, 0, 88, 0
2, 59904, Note_on_c, 0, 64, 92
2, 60284, Note_on_c, 0, 64, 0
2, 60288, Note_on_c, 0, 83, 92
2, 60316, Note_on_c, 0, 83, 0
2, 60320, Note_on_c, 0, 85, 92
2, 60348, Note_on_c, 0, 85, 0
2, 60352, Note_on_c, 0, 83, 92
2, 60380, Note_on_c, 0, 83, 0
2, 60384, Note_on_c, 0, 85, 92
2, 60412, Note_on_c, 0, 85, 0
2, 60416, Note_on_c, 0, 83, 92
2, 60444, Note_on_c, 0, 83, 0
2, 60448, Note_on_c, 0, 85, 92
2, 60476, Note_on_c, 0, 85, 0
2, 60480, Note_on_c, 0, 83, 92
2, 60508, Note_on_c, 0, 83, 0
2, 60512, Note_on_c, 0, 85, 92
2, 60540, Note_on_c, 0, 85, 0
2, 60544, Note_on_c, 0, 83, 92
2, 60572, Note_on_c, 0, 83, 0
2, 60576, Note_on_c, 0, 81, 92
2, 60620, Note_on_c, 0, 81, 0
2, 60624, Note_on_c, 0, 83, 92
2, 60668, Note_on_c, 0, 83, 0
2, 60672, Note_on_c, 0, 81, 87
2, 61052, Note_on_c, 0, 81, 0
2, 61056, Control_c, 0, 1, 55
2, 62208, Note_on_c, 0, 88, 73
2, 64024, Note_on_c, 0, 88, 0
2, 64032, Note_on_c, 0, 76, 69
2, 64124, Note_on_c, 0, 76, 0
2, 64128, Note_on_c, 0, 76, 65
2, 64320, Note_on_c, 0, 76, 0
2, 64320, Note_on_c, 0, 76, 65
2, 64512, Note_on_c, 0, 76, 0
2, 64512, Note_on_c, 0, 76, 65
2, 64608, Note_on_c, 0, 76, 0
2, 64608, Note_on_c, 0, 85, 65
2, 64792, Note_on_c, 0, 85, 0
2, 64800, Note_on_c, 0, 76, 65
2, 64896, Note_on_c, 0, 76, 0
2, 64896, Note_on_c, 0, 76, 65
2, 64992, Note_on_c, 0, 76, 0
2, 64992, Note_on_c, 0, 86, 65
2, 65176, Note_on_c, 0, 86, 0
2, 65184, Note_on_c, 0, 76, 65
2, 65280, Note_on_c, 0, 76, 0
2, 65280, Note_on_c, 0, 76, 65
2, 65376, Note_on_c, 0, 76, 0
2, 65376, Note_on_c, 0, 88, 65
2, 65464, Note_on_c, 0, 88, 0
2, 65472, Note_on_c, 0, 88, 65
2, 65664, Note_on_c, 0, 88, 0
2, 65856, Note_on_c, 0, 76, 65
2, 65956, Note_on_c, 0, 76, 0
2, 66048, Note_on_c, 0, 76, 65
2, 66144, Note_on_c, 0, 76, 0
2, 66144, Note_on_c, 0, 83, 71
2, 66328, Note_on_c, 0, 83, 0
2, 66336, Note_on_c, 0, 76, 76
2, 66432, Note_on_c, 0, 76, 0
2, 66432, Note_on_c, 0, 76, 82
2, 66528, Note_on_c, 0, 76, 0
2, 66544, Note_on_c, 0, 85, 73
2, 66720, Note_on_c, 0, 76, 65
2, 66728, Note_on_c, 0, 85, 0
2, 66808, Note_on_c, 0, 76, 0
2, 66816, Note_on_c, 0, 76, 65
2, 66912, Note_on_c, 0, 76, 0
2, 66912, Note_on_c, 0, 86, 65
2, 67000, Note_on_c, 0, 86, 0
2, 67008, Note_on_c, 0, 86, 65
2, 67200, Note_on_c, 0, 86, 0
2, 67392, Note_on_c, 0, 74, 65
2, 67492, Note_on_c, 0, 74, 0
2, 67584, Note_on_c, 0, 73, 65
2, 67964, Note_on_c, 0, 73, 0
2, 67968, Note_on_c, 0, 74, 71
2, 67996, Note_on_c, 0, 74, 0
2, 68000, Note_on_c, 0, 76, 71
2, 68028, Note_on_c, 0, 76, 0
2, 68032, Note_on_c, 0, 74, 71
2, 68060, Note_on_c, 0, 74, 0
2, 68064, Note_on_c, 0, 76, 71
2, 68092, Note_on_c, 0, 76, 0
2, 68096, Note_on_c, 0, 74, 71
2, 68124, Note_on_c, 0, 74, 0
2, 68128, Note_on_c, 0, 76, 71
2, 68156, Note_on_c, 0, 76, 0
2, 68160, Note_on_c, 0, 74, 71
2, 68188, Note_on_c, 0, 74, 0
2, 68192, Note_on_c, 0, 76, 71
2, 68220, Note_on_c, 0, 76, 0
2, 68224, Note_on_c, 0, 74, 71
2, 68252, Note_on_c, 0, 74, 0
2, 68256, Note_on_c, 0, 73, 71
2, 68300, Note_on_c, 0, 73, 0
2, 68304, Note_on_c, 0, 74, 71
2, 68348, Note_on_c, 0, 74, 0
2, 68352, Note_on_c, 0, 76, 71
2, 68732, Note_on_c, 0, 76, 0
2, 68800, Note_on_c, 0, 69, 65
2, 68864, Note_on_c, 0, 69, 0
2, 68864, Note_on_c, 0, 68, 65
2, 68924, Note_on_c, 0, 68, 0
2, 68928, Note_on_c, 0, 69, 65
2, 68984, Note_on_c, 0, 69, 0
2, 68992, Note_on_c, 0, 66, 65
2, 69024, Note_on_c, 0, 66, 0
2, 69056, Note_on_c, 0, 62, 65
2, 69088, Note_on_c, 0, 62, 0
2, 69120, Note_on_c, 0, 61, 76
2, 69480, Note_on_c, 0, 61, 0
2, 69504, Note_on_c, 0, 62, 76
2, 69532, Note_on_c, 0, 62, 0
2, 69536, Note_on_c, 0, 64, 76
2, 69564, Note_on_c, 0, 64, 0
2, 69568, Note_on_c, 0, 62, 76
2, 69596, Note_on_c, 0, 62, 0
2, 69600, Note_on_c, 0, 64, 76
2, 69628, Note_on_c, 0, 64, 0
2, 69632, Note_on_c, 0, 62, 76
2, 69660, Note_on_c, 0, 62, 0
2, 69664, Note_on_c, 0, 64, 76
2, 69692, Note_on_c, 0, 64, 0
2, 69696, Note_on_c, 0, 62, 76
2, 69724, Note_on_c, 0, 62, 0
2, 69728, Note_on_c, 0, 64, 76
2, 69756, Note_on_c, 0, 64, 0
2, 69760, Note_on_c, 0, 62, 76
2, 69788, Note_on_c, 0, 62, 0
2, 69792, Note_on_c, 0, 61, 76
2, 69836, Note_on_c, 0, 61, 0
2, 69840, Note_on_c, 0, 62, 76
2, 69884, Note_on_c, 0, 62, 0
2, 69888, Note_on_c, 0, 64, 71
2, 70268, Note_on_c, 0, 64, 0
2, 70336, Note_on_c, 0, 81, 67
2, 70400, Note_on_c, 0, 81, 0
2, 70400, Note_on_c, 0, 80, 66
2, 70460, Note_on_c, 0, 80, 0
2, 70464, Note_on_c, 0, 81, 67
2, 70520, Note_on_c, 0, 81, 0
2, 70528, Note_on_c, 0, 78, 65
2, 70560, Note_on_c, 0, 78, 0
2, 70592, Note_on_c, 0, 74, 65
2, 70624, Note_on_c, 0, 74, 0
2, 70656, Note_on_c, 0, 73, 65
2, 71016, Note_on_c, 0, 73, 0
2, 71040, Note_on_c, 0, 74, 71
2, 71068, Note_on_c, 0, 74, 0
2, 71072, Note_on_c, 0, 76, 71
2, 71100, Note_on_c, 0, 76, 0
2, 71104, Note_on_c, 0, 74, 71
2, 71132, Note_on_c, 0, 74, 0
2, 71136, Note_on_c, 0, 76, 71
2, 71164, Note_on_c, 0, 76, 0
2, 71168, Note_on_c, 0, 74, 71
2, 71196, Note_on_c, 0, 74, 0
2, 71200, Note_on_c, 0, 76, 71
2, 71228, Note_on_c, 0, 76, 0
2, 71232, Note_on_c, 0, 74, 71
2, 71260, Note_on_c, 0, 74, 0
2, 71264, Note_on_c, 0, 76, 71
2, 71292, Note_on_c, 0, 76, 0
2, 71296, Note_on_c, 0, 74, 71
2, 71324, Note_on_c, 0, 74, 0
2, 71328, Note_on_c, 0, 73, 71
2, 71372, Note_on_c, 0, 73, 0
2, 71376, Note_on_c, 0, 74, 71
2, 71420, Note_on_c, 0, 74, 0
2, 71424, Note_on_c, 0, 76, 72
2, 71516, Note_on_c, 0, 76, 0
2, 71520, Note_on_c, 0, 81, 72
2, 71708, Note_on_c, 0, 81, 0
2, 71712, Note_on_c, 0, 79, 73
2, 71900, Note_on_c, 0, 79, 0
2, 71904, Note_on_c, 0, 78, 75
2, 72092, Note_on_c, 0, 78, 0
2, 72096, Note_on_c, 0, 77, 76
2, 72284, Note_on_c, 0, 77, 0
2, 72288, Note_on_c, 0, 78, 77
2, 72476, Note_on_c, 0, 78, 0
2, 72480, Note_on_c, 0, 86, 78
2, 72668, Note_on_c, 0, 86, 0
2, 72672, Note_on_c, 0, 85, 80
2, 72860, Note_on_c, 0, 85, 0
2, 72864, Note_on_c, 0, 83, 82
2, 72912, Note_on_c, 0, 83, 0
2, 72960, Note_on_c, 0, 81, 83
2, 73340, Note_on_c, 0, 81, 0
2, 73344, Note_on_c, 0, 83, 85
2, 73372, Note_on_c, 0, 83, 0
2, 73376, Note_on_c, 0, 85, 85
2, 73404, Note_on_c, 0, 85, 0
2, 73408, Note_on_c, 0, 83, 85
2, 73436, Note_on_c, 0, 83, 0
2, 73440, Note_on_c, 0, 85, 86
2, 73468, Note_on_c, 0, 85, 0
2, 73472, Note_on_c, 0, 83, 86
2, 73500, Note_on_c, 0, 83, 0
2, 73504, Note_on_c, 0, 85, 86
2, 73532, Note_on_c, 0, 85, 0
2, 73536, Note_on_c, 0, 83, 86
2, 73564, Note_on_c, 0, 83, 0
2, 73568, Note_on_c, 0, 85, 86
2, 73596, Note_on_c, 0, 85, 0
2, 73600, Note_on_c, 0, 83, 87
2, 73628, Note_on_c, 0, 83, 0
2, 73632, Note_on_c, 0, 81, 87
2, 73680, Note_on_c, 0, 81, 0
2, 73680, Note_on_c, 0, 83, 87
2, 73728, Note_on_c, 0, 83, 0
2, 73728, Note_on_c, 0, 85, 87
2, 73792, Note_on_c, 0, 85, 0
2, 73792, Note_on_c, 0, 81, 87
2, 73852, Note_on_c, 0, 81, 0
2, 73856, Note_on_c, 0, 76, 87
2, 73912, Note_on_c, 0, 76, 0
2, 73920, Note_on_c, 0, 81, 87
2, 73984, Note_on_c, 0, 81, 0
2, 73984, Note_on_c, 0, 83, 87
2, 74048, Note_on_c, 0, 83, 0
2, 74048, Note_on_c, 0, 85, 87
2, 74112, Note_on_c, 0, 85, 0
2, 74112, Note_on_c, 0, 86, 87
2, 74176, Note_on_c, 0, 86, 0
2, 74176, Note_on_c, 0, 83, 87
2, 74236, Note_on_c, 0, 83, 0
2, 74240, Note_on_c, 0, 76, 87
2, 74296, Note_on_c, 0, 76, 0
2, 74304, Note_on_c, 0, 83, 87
2, 74368, Note_on_c, 0, 83, 0
2, 74368, Note_on_c, 0, 85, 87
2, 74432, Note_on_c, 0, 85, 0
2, 74432, Note_on_c, 0, 86, 87
2, 74496, Note_on_c, 0, 86, 0
2, 74496, Note_on_c, 0, 85, 87
2, 74560, Note_on_c, 0, 85, 0
2, 74560, Note_on_c, 0, 81, 87
2, 74620, Note_on_c, 0, 81, 0
2, 74624, Note_on_c, 0, 76, 87
2, 74680, Note_on_c, 0, 76, 0
2, 74688, Note_on_c, 0, 81, 87
2, 74752, Note_on_c, 0, 81, 0
2, 74752, Note_on_c, 0, 83, 87
2, 74816, Note_on_c, 0, 83, 0
2, 74816, Note_on_c, 0, 85, 87
2, 74880, Note_on_c, 0, 85, 0
2, 74880, Note_on_c, 0, 86, 87
2, 74944, Note_on_c, 0, 86, 0
2, 74944, Note_on_c, 0, 83, 87
2, 75004, Note_on_c, 0, 83, 0
2, 75008, Note_on_c, 0, 76, 87
2, 75072, Note_on_c, 0, 76, 0
2, 75072, Note_on_c, 0, 83, 87
2, 75136, Note_on_c, 0, 83, 0
2, 75136, Note_on_c, 0, 85, 87
2, 75200, Note_on_c, 0, 85, 0
2, 75200, Note_on_c, 0, 86, 87
2, 75264, Note_on_c, 0, 86, 0
2, 75264, Note_on_c, 0, 85, 87
2, 75324, Note_on_c, 0, 85, 0
2, 75328, Note_on_c, 0, 83, 87
2, 75388, Note_on_c, 0, 83, 0
2, 75392, Note_on_c, 0, 81, 87
2, 75452, Note_on_c, 0, 81, 0
2, 75456, Note_on_c, 0, 79, 87
2, 75516, Note_on_c, 0, 79, 0
2, 75520, Note_on_c, 0, 78, 87
2, 75580, Note_on_c, 0, 78, 0
2, 75584, Note_on_c, 0, 76, 87
2, 75644, Note_on_c, 0, 76, 0
2, 75648, Note_on_c, 0, 83, 98
2, 75676, Note_on_c, 0, 83, 0
2, 75680, Note_on_c, 0, 85, 92
2, 75708, Note_on_c, 0, 85, 0
2, 75712, Note_on_c, 0, 83, 92
2, 75740, Note_on_c, 0, 83, 0
2, 75744, Note_on_c, 0, 85, 92
2, 75772, Note_on_c, 0, 85, 0
2, 75776, Note_on_c, 0, 83, 92
2, 75804, Note_on_c, 0, 83, 0
2, 75808, Note_on_c, 0, 85, 92
2, 75836, Note_on_c, 0, 85, 0
2, 75840, Note_on_c, 0, 83, 92
2, 75868, Note_on_c, 0, 83, 0
2, 75872, Note_on_c, 0, 85, 92
2, 75900, Note_on_c, 0, 85, 0
2, 75904, Note_on_c, 0, 83, 92
2, 75932, Note_on_c, 0, 83, 0
2, 75936, Note_on_c, 0, 81, 90
2, 75980, Note_on_c, 0, 81, 0
2, 75984, Note_on_c, 0, 83, 90
2, 76028, Note_on_c, 0, 83, 0
2, 76032, Note_on_c, 0, 85, 65
2, 76092, Note_on_c, 0, 85, 0
2, 76096, Note_on_c, 0, 81, 65
2, 76156, Note_on_c, 0, 81, 0
2, 76160, Note_on_c, 0, 76, 65
2, 76220, Note_on_c, 0, 76, 0
2, 76224, Note_on_c, 0, 81, 65
2, 76256, Note_on_c, 0, 81, 0
2, 76288, Note_on_c, 0, 83, 65
2, 76320, Note_on_c, 0, 83, 0
2, 76352, Note_on_c, 0, 85, 65
2, 76384, Note_on_c, 0, 85, 0
2, 76416, Note_on_c, 0, 86, 65
2, 76476, Note_on_c, 0, 86, 0
2, 76480, Note_on_c, 0, 83, 65
2, 76540, Note_on_c, 0, 83, 0
2, 76544, Note_on_c, 0, 76, 65
2, 76604, Note_on_c, 0, 76, 0
2, 76608, Note_on_c, 0, 83, 65
2, 76640, Note_on_c, 0, 83, 0
2, 76672, Note_on_c, 0, 85, 65
2, 76704, Note_on_c, 0, 85, 0
2, 76736, Note_on_c, 0, 86, 65
2, 76768, Note_on_c, 0, 86, 0
2, 76800, Note_on_c, 0, 85, 65
2, 76860, Note_on_c, 0, 85, 0
2, 76864, Note_on_c, 0, 81, 65
2, 76924, Note_on_c, 0, 81, 0
2, 76928, Note_on_c, 0, 76, 65
2, 76988, Note_on_c, 0, 76, 0
2, 76992, Note_on_c, 0, 81, 65
2, 77024, Note_on_c, 0, 81, 0
2, 77056, Note_on_c, 0, 83, 65
2, 77088, Note_on_c, 0, 83, 0
2, 77120, Note_on_c, 0, 85, 65
2, 77152, Note_on_c, 0, 85, 0
2, 77184, Note_on_c, 0, 86, 65
2, 77244, Note_on_c, 0, 86, 0
2, 77248, Note_on_c, 0, 83, 65
2, 77308, Note_on_c, 0, 83, 0
2, 77312, Note_on_c, 0, 76, 65
2, 77372, Note_on_c, 0, 76, 0
2, 77376, Note_on_c, 0, 83, 65
2, 77408, Note_on_c, 0, 83, 0
2, 77440, Note_on_c, 0, 85, 65
2, 77472, Note_on_c, 0, 85, 0
2, 77504, Note_on_c, 0, 86, 65
2, 77536, Note_on_c, 0, 86, 0
2, 77568, Note_on_c, 0, 85, 65
2, 77592, Note_on_c, 0, 85, 0
2, 77616, Note_on_c, 0, 69, 66
2, 77664, Note_on_c, 0, 69, 0
2, 77664, Note_on_c, 0, 71, 67
2, 77708, Note_on_c, 0, 71, 0
2, 77712, Note_on_c, 0, 73, 69
2, 77756, Note_on_c, 0, 73, 0
2, 77760, Note_on_c, 0, 74, 70
2, 77804, Note_on_c, 0, 74, 0
2, 77808, Note_on_c, 0, 76, 71
2, 77852, Note_on_c, 0, 76, 0
2, 77856, Note_on_c, 0, 78, 72
2, 77900, Note_on_c, 0, 78, 0
2, 77904, Note_on_c, 0, 80, 73
2, 77948, Note_on_c, 0, 80, 0
2, 77952, Note_on_c, 0, 81, 74
2, 77992, Note_on_c, 0, 81, 0
2, 78000, Note_on_c, 0, 76, 66
2, 78048, Note_on_c, 0, 76, 0
2, 78048, Note_on_c, 0, 78, 67
2, 78092, Note_on_c, 0, 78, 0
2, 78096, Note_on_c, 0, 80, 69
2, 78140, Note_on_c, 0, 80, 0
2, 78144, Note_on_c, 0, 81, 70
2, 78188, Note_on_c, 0, 81, 0
2, 78192, Note_on_c, 0, 83, 71
2, 78236, Note_on_c, 0, 83, 0
2, 78240, Note_on_c, 0, 85, 72
2, 78284, Note_on_c, 0, 85, 0
2, 78288, Note_on_c, 0, 86, 73
2, 78328, Note_on_c, 0, 86, 0
2, 78336, Note_on_c, 0, 88, 66
2, 78476, Note_on_c, 0, 88, 0
2, 78480, Note_on_c, 0, 85, 67
2, 78524, Note_on_c, 0, 85, 0
2, 78528, Note_on_c, 0, 88, 69
2, 78908, Note_on_c, 0, 88, 0
2, 78912, Note_on_c, 0, 76, 74
2, 78972, Note_on_c, 0, 76, 0
2, 78976, Note_on_c, 0, 89, 75
2, 79296, Note_on_c, 0, 89, 0
2, 79296, Note_on_c, 0, 78, 79
2, 79356, Note_on_c, 0, 78, 0
2, 79360, Note_on_c, 0, 90, 80
2, 79680, Note_on_c, 0, 90, 0
2, 79680, Note_on_c, 0, 93, 85
2, 79868, Note_on_c, 0, 93, 0
2, 79872, Note_on_c, 0, 64, 92
2, 80636, Note_on_c, 0, 64, 0
2, 80640, Note_on_c, 0, 83, 87
2, 80668, Note_on_c, 0, 83, 0
2, 80672, Note_on_c, 0, 85, 87
2, 80700, Note_on_c, 0, 85, 0
2, 80704, Note_on_c, 0, 83, 87
2, 80732, Note_on_c, 0, 83, 0
2, 80736, Note_on_c, 0, 85, 87
2, 80764, Note_on_c, 0, 85, 0
2, 80768, Note_on_c, 0, 83, 87
2, 80796, Note_on_c, 0, 83, 0
2, 80800, Note_on_c, 0, 85, 87
2, 80828, Note_on_c, 0, 85, 0
2, 80832, Note_on_c, 0, 83, 87
2, 80860, Note_on_c, 0, 83, 0
2, 80864, Note_on_c, 0, 85, 87
2, 80892, Note_on_c, 0, 85, 0
2, 80896, Note_on_c, 0, 83, 87
2, 80924, Note_on_c, 0, 83, 0
2, 80928, Note_on_c, 0, 85, 87
2, 80956, Note_on_c, 0, 85, 0
2, 80960, Note_on_c, 0, 83, 87
2, 80988, Note_on_c, 0, 83, 0
2, 80992, Note_on_c, 0, 85, 87
2, 81020, Note_on_c, 0, 85, 0
2, 81024, Note_on_c, 0, 83, 87
2, 81052, Note_on_c, 0, 83, 0
2, 81056, Note_on_c, 0, 85, 87
2, 81084, Note_on_c, 0, 85, 0
2, 81088, Note_on_c, 0, 83, 87
2, 81116, Note_on_c, 0, 83, 0
2, 81120, Note_on_c, 0, 85, 87
2, 81148, Note_on_c, 0, 85, 0
2, 81152, Note_on_c, 0, 83, 87
2, 81180, Note_on_c, 0, 83, 0
2, 81184, Note_on_c, 0, 85, 87
2, 81212, Note_on_c, 0, 85, 0
2, 81216, Note_on_c, 0, 81, 87
2, 81304, Note_on_c, 0, 81, 0
2, 81312, Note_on_c, 0, 83, 87
2, 81400, Note_on_c, 0, 83, 0
2, 81408, Note_on_c, 0, 81, 87
2, 81788, Note_on_c, 0, 81, 0
2, 96756, Control_c, 0, 1, 55
2, 96768, Note_on_c, 0, 81, 65
2, 97148, Note_on_c, 0, 81, 0
2, 97152, Note_on_c, 0, 83, 65
2, 97244, Note_on_c, 0, 83, 0
2, 97248, Note_on_c, 0, 81, 65
2, 97340, Note_on_c, 0, 81, 0
2, 97344, Note_on_c, 0, 80, 65
2, 97436, Note_on_c, 0, 80, 0
2, 97440, Note_on_c, 0, 78, 65
2, 97532, Note_on_c, 0, 78, 0
2, 97536, Note_on_c, 0, 76, 65
2, 97916, Note_on_c, 0, 76, 0
2, 97920, Note_on_c, 0, 80, 65
2, 98012, Note_on_c, 0, 80, 0
2, 98016, Note_on_c, 0, 78, 65
2, 98108, Note_on_c, 0, 78, 0
2, 98112, Note_on_c, 0, 76, 65
2, 98204, Note_on_c, 0, 76, 0
2, 98208, Note_on_c, 0, 74, 65
2, 98300, Note_on_c, 0, 74, 0
2, 98304, Note_on_c, 0, 73, 65
2, 98684, Note_on_c, 0, 73, 0
2, 98688, Note_on_c, 0, 76, 65
2, 98780, Note_on_c, 0, 76, 0
2, 98784, Note_on_c, 0, 74, 65
2, 98876, Note_on_c, 0, 74, 0
2, 98880, Note_on_c, 0, 73, 65
2, 98972, Note_on_c, 0, 73, 0
2, 98976, Note_on_c, 0, 71, 65
2, 99068, Note_on_c, 0, 71, 0
2, 99072, Note_on_c, 0, 69, 65
2, 99260, Note_on_c, 0, 69, 0
2, 99264, Note_on_c, 0, 68, 65
2, 99296, Note_on_c, 0, 68, 0
2, 99296, Note_on_c, 0, 69, 65
2, 99328, Note_on_c, 0, 69, 0
2, 99328, Note_on_c, 0, 68, 65
2, 99360, Note_on_c, 0, 68, 0
2, 99360, Note_on_c, 0, 69, 65
2, 99392, Note_on_c, 0, 69, 0
2, 99392, Note_on_c, 0, 68, 65
2, 99424, Note_on_c, 0, 68, 0
2, 99424, Note_on_c, 0, 69, 65
2, 99456, Note_on_c, 0, 69, 0
2, 99456, Note_on_c, 0, 69, 65
2, 99556, Note_on_c, 0, 69, 0
2, 99904, Note_on_c, 0, 74, 76
2, 99936, Note_on_c, 0, 74, 0
2, 99968, Note_on_c, 0, 73, 76
2, 100000, Note_on_c, 0, 73, 0
2, 100032, Note_on_c, 0, 71, 76
2, 100096, Note_on_c, 0, 71, 0
2, 100096, Note_on_c, 0, 74, 76
2, 100152, Note_on_c, 0, 74, 0
2, 100160, Note_on_c, 0, 69, 76
2, 100192, Note_on_c, 0, 69, 0
2, 100224, Note_on_c, 0, 68, 76
2, 100288, Note_on_c, 0, 68, 0
2, 100288, Note_on_c, 0, 71, 76
2, 100344, Note_on_c, 0, 71, 0
2, 100352, Note_on_c, 0, 66, 76
2, 100384, Note_on_c, 0, 66, 0
2, 100416, Note_on_c, 0, 64, 76
2, 100480, Note_on_c, 0, 64, 0
2, 100480, Note_on_c, 0, 68, 76
2, 100536, Note_on_c, 0, 68, 0
2, 100544, Note_on_c, 0, 62, 76
2, 100576, Note_on_c, 0, 62, 0
2, 100608, Note_on_c, 0, 61, 76
2, 100640, Note_on_c, 0, 61, 0
2, 100672, Note_on_c, 0, 76, 76
2, 100736, Note_on_c, 0, 76, 0
2, 100736, Note_on_c, 0, 74, 76
2, 100792, Note_on_c, 0, 74, 0
2, 100800, Note_on_c, 0, 73, 76
2, 100864, Note_on_c, 0, 73, 0
2, 100864, Note_on_c, 0, 76, 76
2, 100920, Note_on_c, 0, 76, 0
2, 100928, Note_on_c, 0, 71, 76
2, 100960, Note_on_c, 0, 71, 0
2, 100992, Note_on_c, 0, 69, 76
2, 101056, Note_on_c, 0, 69, 0
2, 101056, Note_on_c, 0, 73, 76
2, 101112, Note_on_c, 0, 73, 0
2, 101120, Note_on_c, 0, 68, 76
2, 101152, Note_on_c, 0, 68, 0
2, 101184, Note_on_c, 0, 66, 76
2, 101248, Note_on_c, 0, 66, 0
2, 101248, Note_on_c, 0, 69, 76
2, 101304, Note_on_c, 0, 69, 0
2, 101312, Note_on_c, 0, 64, 76
2, 101344, Note_on_c, 0, 64, 0
2, 101376, Note_on_c, 0, 66, 65
2, 101424, Note_on_c, 0, 66, 0
2, 101472, Note_on_c, 0, 81, 65
2, 101568, Note_on_c, 0, 81, 0
2, 101568, Note_on_c, 0, 80, 66
2, 101660, Note_on_c, 0, 80, 0
2, 101664, Note_on_c, 0, 78, 66
2, 101752, Note_on_c, 0, 78, 0
2, 101760, Note_on_c, 0, 78, 67
2, 101856, Note_on_c, 0, 78, 0
2, 101856, Note_on_c, 0, 76, 69
2, 101944, Note_on_c, 0, 76, 0
2, 101952, Note_on_c, 0, 76, 70
2, 102048, Note_on_c, 0, 76, 0
2, 102048, Note_on_c, 0, 74, 71
2, 102136, Note_on_c, 0, 74, 0
2, 102144, Note_on_c, 0, 73, 72
2, 102240, Note_on_c, 0, 73, 0
2, 102240, Note_on_c, 0, 74, 73
2, 102332, Note_on_c, 0, 74, 0
2, 102336, Note_on_c, 0, 75, 74
2, 102428, Note_on_c, 0, 75, 0
2, 102432, Note_on_c, 0, 76, 75
2, 102520, Note_on_c, 0, 76, 0
2, 102528, Note_on_c, 0, 76, 76
2, 102628, Note_on_c, 0, 76, 0
2, 102976, Note_on_c, 0, 74, 65
2, 103040, Note_on_c, 0, 74, 0
2, 103040, Note_on_c, 0, 73, 65
2, 103096, Note_on_c, 0, 73, 0
2, 103104, Note_on_c, 0, 71, 65
2, 103168, Note_on_c, 0, 71, 0
2, 103168, Note_on_c, 0, 74, 65
2, 103224, Note_on_c, 0, 74, 0
2, 103232, Note_on_c, 0, 69, 65
2, 103264, Note_on_c, 0, 69, 0
2, 103296, Note_on_c, 0, 68, 65
2, 103360, Note_on_c, 0, 68, 0
2, 103360, Note_on_c, 0, 71, 65
2, 103416, Note_on_c, 0, 71, 0
2, 103424, Note_on_c, 0, 66, 65
2, 103456, Note_on_c, 0, 66, 0
2, 103488, Note_on_c, 0, 64, 65
2, 103552, Note_on_c, 0, 64, 0
2, 103552, Note_on_c, 0, 68, 65
2, 103608, Note_on_c, 0, 68, 0
2, 103616, Note_on_c, 0, 62, 65
2, 103648, Note_on_c, 0, 62, 0
2, 103680, Note_on_c, 0, 61, 65
2, 103712, Note_on_c, 0, 61, 0
2, 103744, Note_on_c, 0, 81, 65
2, 103808, Note_on_c, 0, 81, 0
2, 103808, Note_on_c, 0, 80, 65
2, 103864, Note_on_c, 0, 80, 0
2, 103872, Note_on_c, 0, 78, 65
2, 103936, Note_on_c, 0, 78, 0
2, 103936, Note_on_c, 0, 81, 65
2, 103992, Note_on_c, 0, 81, 0
2, 104000, Note_on_c, 0, 76, 65
2, 104032, Note_on_c, 0, 76, 0
2, 104064, Note_on_c, 0, 74, 65
2, 104128, Note_on_c, 0, 74, 0
2, 104128, Note_on_c, 0, 81, 65
2, 104184, Note_on_c, 0, 81, 0
2, 104192, Note_on_c, 0, 73, 65
2, 104224, Note_on_c, 0, 73, 0
2, 104256, Note_on_c, 0, 71, 65
2, 104320, Note_on_c, 0, 71, 0
2, 104320, Note_on_c, 0, 81, 65
2, 104376, Note_on_c, 0, 81, 0
2, 104384, Note_on_c, 0, 69, 65
2, 104416, Note_on_c, 0, 69, 0
2, 104448, Note_on_c, 0, 70, 65
2, 104544, Note_on_c, 0, 70, 0
2, 104544, Note_on_c, 0, 71, 65
2, 104636, Note_on_c, 0, 71, 0
2, 104640, Note_on_c, 0, 74, 65
2, 104732, Note_on_c, 0, 74, 0
2, 104736, Note_on_c, 0, 78, 65
2, 104824, Note_on_c, 0, 78, 0
2, 104832, Note_on_c, 0, 78, 65
2, 105024, Note_on_c, 0, 78, 0
2, 105024, Note_on_c, 0, 76, 65
2, 105160, Note_on_c, 0, 76, 0
2, 105168, Note_on_c, 0, 74, 65
2, 105200, Note_on_c, 0, 74, 0
2, 105216, Note_on_c, 0, 74, 65
2, 105264, Note_on_c, 0, 74, 0
2, 105264, Note_on_c, 0, 73, 65
2, 105308, Note_on_c, 0, 73, 0
2, 105312, Note_on_c, 0, 71, 65
2, 105356, Note_on_c, 0, 71, 0
2, 105360, Note_on_c, 0, 69, 65
2, 105400, Note_on_c, 0, 69, 0
2, 105408, Note_on_c, 0, 69, 65
2, 105596, Note_on_c, 0, 69, 0
2, 105984, Note_on_c, 0, 60, 82
2, 106364, Note_on_c, 0, 60, 0
2, 106368, Note_on_c, 0, 59, 76
2, 106396, Note_on_c, 0, 59, 0
2, 106400, Note_on_c, 0, 60, 76
2, 106428, Note_on_c, 0, 60, 0
2, 106432, Note_on_c, 0, 59, 76
2, 106460, Note_on_c, 0, 59, 0
2, 106464, Note_on_c, 0, 60, 76
2, 106492, Note_on_c, 0, 60, 0
2, 106496, Note_on_c, 0, 59, 76
2, 106524, Note_on_c, 0, 59, 0
2, 106528, Note_on_c, 0, 60, 76
2, 106556, Note_on_c, 0, 60, 0
2, 106560, Note_on_c, 0, 59, 76
2, 106588, Note_on_c, 0, 59, 0
2, 106592, Note_on_c, 0, 60, 76
2, 106620, Note_on_c, 0, 60, 0
2, 106624, Note_on_c, 0, 59, 76
2, 106652, Note_on_c, 0, 59, 0
2, 106656, Note_on_c, 0, 58, 76
2, 106700, Note_on_c, 0, 58, 0
2, 106704, Note_on_c, 0, 59, 76
2, 106748, Note_on_c, 0, 59, 0
2, 106752, Note_on_c, 0, 58, 82
2, 106944, Control_c, 0, 1, 55
2, 107132, Note_on_c, 0, 58, 0
2, 107136, Note_on_c, 0, 85, 76
2, 107708, Note_on_c, 0, 85, 0
2, 107712, Note_on_c, 0, 79, 65
2, 107904, Note_on_c, 0, 79, 0
2, 107904, Note_on_c, 0, 78, 65
2, 108092, Note_on_c, 0, 78, 0
2, 108096, Note_on_c, 0, 76, 65
2, 108280, Note_on_c, 0, 76, 0
2, 108288, Note_on_c, 0, 76, 65
2, 108336, Note_on_c, 0, 76, 0
2, 108336, Note_on_c, 0, 74, 65
2, 108380, Note_on_c, 0, 74, 0
2, 108384, Note_on_c, 0, 73, 65
2, 108428, Note_on_c, 0, 73, 0
2, 108432, Note_on_c, 0, 71, 65
2, 108472, Note_on_c, 0, 71, 0
2, 108480, Note_on_c, 0, 71, 65
2, 108580, Note_on_c, 0, 71, 0
2, 108864, Note_on_c, 0, 78, 65
2, 108892, Note_on_c, 0, 78, 0
2, 108896, Note_on_c, 0, 79, 65
2, 108924, Note_on_c, 0, 79, 0
2, 108928, Note_on_c, 0, 78, 65
2, 108956, Note_on_c, 0, 78, 0
2, 108960, Note_on_c, 0, 76, 65
2, 109004, Note_on_c, 0, 76, 0
2, 109008, Note_on_c, 0, 78, 65
2, 109052, Note_on_c, 0, 78, 0
2, 109056, Note_on_c, 0, 81, 65
2, 109152, Note_on_c, 0, 81, 0
2, 109152, Note_on_c, 0, 79, 65
2, 109240, Note_on_c, 0, 79, 0
2, 109248, Note_on_c, 0, 79, 65
2, 109536, Note_on_c, 0, 79, 0
2, 109536, Note_on_c, 0, 79, 69
2, 109628, Note_on_c, 0, 79, 0
2, 109632, Note_on_c, 0, 78, 72
2, 109652, Note_on_c, 0, 78, 0
2, 109656, Note_on_c, 0, 79, 75
2, 109676, Note_on_c, 0, 79, 0
2, 109680, Note_on_c, 0, 81, 78
2, 109724, Note_on_c, 0, 81, 0
2, 109728, Note_on_c, 0, 83, 82
2, 109820, Note_on_c, 0, 83, 0
2, 109824, Note_on_c, 0, 83, 82
2, 110208, Note_on_c, 0, 83, 0
2, 110208, Note_on_c, 0, 77, 71
2, 110392, Note_on_c, 0, 77, 0
2, 110496, Note_on_c, 0, 77, 65
2, 110588, Note_on_c, 0, 77, 0
2, 110592, Note_on_c, 0, 80, 65
2, 110688, Note_on_c, 0, 80, 0
2, 110688, Note_on_c, 0, 78, 65
2, 110776, Note_on_c, 0, 78, 0
2, 110784, Note_on_c, 0, 78, 65
2, 111072, Note_on_c, 0, 78, 0
2, 111072, Note_on_c, 0, 78, 69
2, 111164, Note_on_c, 0, 78, 0
2, 111168, Note_on_c, 0, 76, 72
2, 111188, Note_on_c, 0, 76, 0
2, 111192, Note_on_c, 0, 78, 75
2, 111212, Note_on_c, 0, 78, 0
2, 111216, Note_on_c, 0, 80, 78
2, 111260, Note_on_c, 0, 80, 0
2, 111264, Note_on_c, 0, 81, 82
2, 111356, Note_on_c, 0, 81, 0
2, 111360, Note_on_c, 0, 81, 82
2, 111744, Note_on_c, 0, 81, 0
2, 111744, Note_on_c, 0, 75, 71
2, 111928, Note_on_c, 0, 75, 0
2, 112032, Note_on_c, 0, 75, 65
2, 112124, Note_on_c, 0, 75, 0
2, 112128, Note_on_c, 0, 78, 65
2, 112224, Note_on_c, 0, 78, 0
2, 112224, Note_on_c, 0, 76, 65
2, 112312, Note_on_c, 0, 76, 0
2, 112320, Note_on_c, 0, 76, 65
2, 112608, Note_on_c, 0, 76, 0
2, 112608, Note_on_c, 0, 76, 69
2, 112700, Note_on_c, 0, 76, 0
2, 112704, Note_on_c, 0, 74, 72
2, 112724, Note_on_c, 0, 74, 0
2, 112728, Note_on_c, 0, 76, 75
2, 112748, Note_on_c, 0, 76, 0
2, 112752, Note_on_c, 0, 78, 78
2, 112796, Note_on_c, 0, 78, 0
2, 112800, Note_on_c, 0, 79, 82
2, 112892, Note_on_c, 0, 79, 0
2, 112896, Note_on_c, 0, 79, 82
2, 113280, Note_on_c, 0, 79, 0
2, 113280, Note_on_c, 0, 73, 71
2, 113464, Note_on_c, 0, 73, 0
2, 113568, Note_on_c, 0, 73, 65
2, 113660, Note_on_c, 0, 73, 0
2, 113664, Note_on_c, 0, 62, 87
2, 113728, Note_on_c, 0, 62, 0
2, 113728, Note_on_c, 0, 69, 87
2, 113788, Note_on_c, 0, 69, 0
2, 113792, Note_on_c, 0, 72, 87
2, 113848, Note_on_c, 0, 72, 0
2, 113856, Note_on_c, 0, 72, 87
2, 113880, Note_on_c, 0, 72, 0
2, 113880, Note_on_c, 0, 74, 87
2, 113900, Note_on_c, 0, 74, 0
2, 113900, Note_on_c, 0, 72, 87
2, 113916, Note_on_c, 0, 72, 0
2, 113920, Note_on_c, 0, 71, 87
2, 113980, Note_on_c, 0, 71, 0
2, 113984, Note_on_c, 0, 72, 87
2, 114040, Note_on_c, 0, 72, 0
2, 114048, Note_on_c, 0, 81, 87
2, 114112, Note_on_c, 0, 81, 0
2, 114112, Note_on_c, 0, 79, 87
2, 114176, Note_on_c, 0, 79, 0
2, 114176, Note_on_c, 0, 78, 87
2, 114240, Note_on_c, 0, 78, 0
2, 114240, Note_on_c, 0, 76, 87
2, 114304, Note_on_c, 0, 76, 0
2, 114304, Note_on_c, 0, 74, 87
2, 114368, Note_on_c, 0, 74, 0
2, 114368, Note_on_c, 0, 72, 87
2, 114432, Note_on_c, 0, 72, 0
2, 114432, Note_on_c, 0, 71, 87
2, 114496, Note_on_c, 0, 71, 0
2, 114496, Note_on_c, 0, 74, 87
2, 114556, Note_on_c, 0, 74, 0
2, 114560, Note_on_c, 0, 79, 87
2, 114616, Note_on_c, 0, 79, 0
2, 114624, Note_on_c, 0, 79, 87
2, 114648, Note_on_c, 0, 79, 0
2, 114648, Note_on_c, 0, 81, 92
2, 114668, Note_on_c, 0, 81, 0
2, 114668, Note_on_c, 0, 79, 92
2, 114688, Note_on_c, 0, 79, 0
2, 114688, Note_on_c, 0, 78, 87
2, 114748, Note_on_c, 0, 78, 0
2, 114752, Note_on_c, 0, 79, 87
2, 114808, Note_on_c, 0, 79, 0
2, 114816, Note_on_c, 0, 83, 87
2, 114916, Note_on_c, 0, 83, 0
2, 115104, Note_on_c, 0, 71, 87
2, 115196, Note_on_c, 0, 71, 0
2, 115200, Note_on_c, 0, 59, 87
2, 115264, Note_on_c, 0, 59, 0
2, 115264, Note_on_c, 0, 66, 87
2, 115324, Note_on_c, 0, 66, 0
2, 115328, Note_on_c, 0, 69, 87
2, 115384, Note_on_c, 0, 69, 0
2, 115392, Note_on_c, 0, 69, 87
2, 115416, Note_on_c, 0, 69, 0
2, 115416, Note_on_c, 0, 71, 92
2, 115436, Note_on_c, 0, 71, 0
2, 115436, Note_on_c, 0, 69, 92
2, 115456, Note_on_c, 0, 69, 0
2, 115456, Note_on_c, 0, 67, 87
2, 115516, Note_on_c, 0, 67, 0
2, 115520, Note_on_c, 0, 69, 87
2, 115576, Note_on_c, 0, 69, 0
2, 115584, Note_on_c, 0, 78, 87
2, 115648, Note_on_c, 0, 78, 0
2, 115648, Note_on_c, 0, 76, 87
2, 115712, Note_on_c, 0, 76, 0
2, 115712, Note_on_c, 0, 74, 87
2, 115776, Note_on_c, 0, 74, 0
2, 115776, Note_on_c, 0, 72, 87
2, 115840, Note_on_c, 0, 72, 0
2, 115840, Note_on_c, 0, 71, 87
2, 115904, Note_on_c, 0, 71, 0
2, 115904, Note_on_c, 0, 69, 87
2, 115964, Note_on_c, 0, 69, 0
2, 115968, Note_on_c, 0, 67, 87
2, 116032, Note_on_c, 0, 67, 0
2, 116032, Note_on_c, 0, 71, 87
2, 116092, Note_on_c, 0, 71, 0
2, 116096, Note_on_c, 0, 76, 87
2, 116152, Note_on_c, 0, 76, 0
2, 116160, Note_on_c, 0, 76, 87
2, 116184, Note_on_c, 0, 76, 0
2, 116184, Note_on_c, 0, 78, 87
2, 116204, Note_on_c, 0, 78, 0
2, 116208, Note_on_c, 0, 76, 87
2, 116224, Note_on_c, 0, 76, 0
2, 116224, Note_on_c, 0, 74, 87
2, 116284, Note_on_c, 0, 74, 0
2, 116288, Note_on_c, 0, 76, 87
2, 116344, Note_on_c, 0, 76, 0
2, 116352, Note_on_c, 0, 79, 87
2, 116452, Note_on_c, 0, 79, 0
2, 116736, Note_on_c, 0, 83, 87
2, 117120, Note_on_c, 0, 83, 0
2, 117120, Note_on_c, 0, 84, 87
2, 117304, Note_on_c, 0, 84, 0
2, 117312, Note_on_c, 0, 75, 87
2, 117504, Note_on_c, 0, 75, 0
2, 117504, Note_on_c, 0, 76, 87
2, 117688, Note_on_c, 0, 76, 0
2, 117696, Note_on_c, 0, 83, 87
2, 117888, Note_on_c, 0, 83, 0
2, 117888, Note_on_c, 0, 84, 87
2, 118072, Note_on_c, 0, 84, 0
2, 118080, Note_on_c, 0, 75, 87
2, 118268, Note_on_c, 0, 75, 0
2, 118272, Note_on_c, 0, 76, 87
2, 118460, Note_on_c, 0, 76, 0
2, 118464, Note_on_c, 0, 77, 87
2, 118844, Note_on_c, 0, 77, 0
2, 118848, Note_on_c, 0, 76, 65
2, 118940, Note_on_c, 0, 76, 0
2, 118944, Note_on_c, 0, 74, 65
2, 119036, Note_on_c, 0, 74, 0
2, 119040, Note_on_c, 0, 73, 65
2, 119420, Note_on_c, 0, 73, 0
2, 119424, Note_on_c, 0, 76, 65
2, 119804, Note_on_c, 0, 76, 0
2, 119808, Note_on_c, 0, 77, 65
2, 120188, Note_on_c, 0, 77, 0
2, 120192, Note_on_c, 0, 78, 71
2, 120220, Note_on_c, 0, 78, 0
2, 120224, Note_on_c, 0, 79, 71
2, 120252, Note_on_c, 0, 79, 0
2, 120256, Note_on_c, 0, 78, 71
2, 120284, Note_on_c, 0, 78, 0
2, 120288, Note_on_c, 0, 79, 71
2, 120316, Note_on_c, 0, 79, 0
2, 120320, Note_on_c, 0, 78, 71
2, 120348, Note_on_c, 0, 78, 0
2, 120352, Note_on_c, 0, 79, 71
2, 120380, Note_on_c, 0, 79, 0
2, 120384, Note_on_c, 0, 78, 71
2, 120412, Note_on_c, 0, 78, 0
2, 120416, Note_on_c, 0, 79, 71
2, 120444, Note_on_c, 0, 79, 0
2, 120448, Note_on_c, 0, 78, 71
2, 120476, Note_on_c, 0, 78, 0
2, 120480, Note_on_c, 0, 76, 71
2, 120524, Note_on_c, 0, 76, 0
2, 120528, Note_on_c, 0, 78, 71
2, 120572, Note_on_c, 0, 78, 0
2, 120576, Note_on_c, 0, 79, 65
2, 120956, Note_on_c, 0, 79, 0
2, 120960, Note_on_c, 0, 80, 71
2, 120988, Note_on_c, 0, 80, 0
2, 120992, Note_on_c, 0, 81, 71
2, 121020, Note_on_c, 0, 81, 0
2, 121024, Note_on_c, 0, 80, 71
2, 121052, Note_on_c, 0, 80, 0
2, 121056, Note_on_c, 0, 81, 71
2, 121084, Note_on_c, 0, 81, 0
2, 121088, Note_on_c, 0, 80, 71
2, 121116, Note_on_c, 0, 80, 0
2, 121120, Note_on_c, 0, 81, 71
2, 121148, Note_on_c, 0, 81, 0
2, 121152, Note_on_c, 0, 80, 71
2, 121180, Note_on_c, 0, 80, 0
2, 121184, Note_on_c, 0, 81, 71
2, 121212, Note_on_c, 0, 81, 0
2, 121216, Note_on_c, 0, 80, 71
2, 121244, Note_on_c, 0, 80, 0
2, 121248, Note_on_c, 0, 78, 71
2, 121292, Note_on_c, 0, 78, 0
2, 121296, Note_on_c, 0, 80, 71
2, 121340, Note_on_c, 0, 80, 0
2, 121344, Note_on_c, 0, 81, 65
2, 121724, Note_on_c, 0, 81, 0
2, 127488, Note_on_c, 0, 86, 65
2, 127868, Note_on_c, 0, 86, 0
2, 127872, Note_on_c, 0, 81, 65
2, 128160, Note_on_c, 0, 81, 0
2, 128160, Note_on_c, 0, 81, 65
2, 128208, Note_on_c, 0, 81, 0
2, 128256, Note_on_c, 0, 78, 76
2, 128356, Note_on_c, 0, 78, 0
2, 128448, Note_on_c, 0, 74, 76
2, 128548, Note_on_c, 0, 74, 0
2, 128832, Note_on_c, 0, 74, 65
2, 128892, Note_on_c, 0, 74, 0
2, 128896, Note_on_c, 0, 76, 65
2, 128956, Note_on_c, 0, 76, 0
2, 128960, Note_on_c, 0, 74, 65
2, 129020, Note_on_c, 0, 74, 0
2, 129024, Note_on_c, 0, 79, 65
2, 129124, Note_on_c, 0, 79, 0
2, 129600, Note_on_c, 0, 74, 65
2, 129660, Note_on_c, 0, 74, 0
2, 129664, Note_on_c, 0, 76, 65
2, 129724, Note_on_c, 0, 76, 0
2, 129728, Note_on_c, 0, 74, 65
2, 129788, Note_on_c, 0, 74, 0
2, 129792, Note_on_c, 0, 83, 65
2, 129892, Note_on_c, 0, 83, 0
2, 130368, Note_on_c, 0, 86, 65
2, 130428, Note_on_c, 0, 86, 0
2, 130432, Note_on_c, 0, 85, 65
2, 130492, Note_on_c, 0, 85, 0
2, 130496, Note_on_c, 0, 83, 65
2, 130556, Note_on_c, 0, 83, 0
2, 130560, Note_on_c, 0, 81, 65
2, 130608, Note_on_c, 0, 81, 0
2, 130656, Note_on_c, 0, 83, 65
2, 130688, Note_on_c, 0, 83, 0
2, 130688, Note_on_c, 0, 85, 65
2, 130716, Note_on_c, 0, 85, 0
2, 130720, Note_on_c, 0, 83, 65
2, 130748, Note_on_c, 0, 83, 0
2, 130752, Note_on_c, 0, 83, 65
2, 130844, Note_on_c, 0, 83, 0
2, 130848, Note_on_c, 0, 78, 65
2, 130936, Note_on_c, 0, 78, 0
2, 130944, Note_on_c, 0, 81, 65
2, 130972, Note_on_c, 0, 81, 0
2, 130976, Note_on_c, 0, 79, 65
2, 131004, Note_on_c, 0, 79, 0
2, 131008, Note_on_c, 0, 81, 65
2, 131036, Note_on_c, 0, 81, 0
2, 131040, Note_on_c, 0, 79, 65
2, 131068, Note_on_c, 0, 79, 0
2, 131072, Note_on_c, 0, 81, 65
2, 131100, Note_on_c, 0, 81, 0
2, 131104, Note_on_c, 0, 79, 65
2, 131132, Note_on_c, 0, 79, 0
2, 131136, Note_on_c, 0, 81, 65
2, 131164, Note_on_c, 0, 81, 0
2, 131168, Note_on_c, 0, 79, 65
2, 131196, Note_on_c, 0, 79, 0
2, 131200, Note_on_c, 0, 81, 65
2, 131228, Note_on_c, 0, 81, 0
2, 131232, Note_on_c, 0, 78, 65
2, 131276, Note_on_c, 0, 78, 0
2, 131280, Note_on_c, 0, 79, 65
2, 131324, Note_on_c, 0, 79, 0
2, 131344, Note_on_c, 0, 79, 65
2, 131520, Note_on_c, 0, 78, 65
2, 131532, Note_on_c, 0, 79, 0
2, 131708, Note_on_c, 0, 78, 0
2, 132288, Note_on_c, 0, 74, 65
2, 132348, Note_on_c, 0, 74, 0
2, 132352, Note_on_c, 0, 76, 65
2, 132412, Note_on_c, 0, 76, 0
2, 132416, Note_on_c, 0, 74, 65
2, 132476, Note_on_c, 0, 74, 0
2, 132480, Note_on_c, 0, 79, 65
2, 132580, Note_on_c, 0, 79, 0
2, 133056, Note_on_c, 0, 74, 65
2, 133116, Note_on_c, 0, 74, 0
2, 133120, Note_on_c, 0, 76, 65
2, 133180, Note_on_c, 0, 76, 0
2, 133184, Note_on_c, 0, 74, 65
2, 133244, Note_on_c, 0, 74, 0
2, 133248, Note_on_c, 0, 83, 65
2, 133348, Note_on_c, 0, 83, 0
2, 133632, Note_on_c, 0, 81, 65
2, 134108, Note_on_c, 0, 81, 0
2, 134112, Note_on_c, 0, 83, 65
2, 134204, Note_on_c, 0, 83, 0
2, 134208, Note_on_c, 0, 85, 65
2, 134300, Note_on_c, 0, 85, 0
2, 134304, Note_on_c, 0, 86, 65
2, 134396, Note_on_c, 0, 86, 0
2, 134400, Note_on_c, 0, 86, 65
2, 134428, Note_on_c, 0, 86, 0
2, 134432, Note_on_c, 0, 88, 65
2, 134460, Note_on_c, 0, 88, 0
2, 134464, Note_on_c, 0, 86, 65
2, 134492, Note_on_c, 0, 86, 0
2, 134496, Note_on_c, 0, 85, 65
2, 134584, Note_on_c, 0, 85, 0
2, 134592, Note_on_c, 0, 85, 66
2, 134972, Note_on_c, 0, 85, 0
2, 134976, Note_on_c, 0, 88, 70
2, 135356, Note_on_c, 0, 88, 0
2, 135360, Note_on_c, 0, 91, 74
2, 135740, Note_on_c, 0, 91, 0
2, 135744, Note_on_c, 0, 55, 93
2, 136124, Note_on_c, 0, 55, 0
2, 136128, Note_on_c, 0, 79, 82
2, 136416, Note_on_c, 0, 79, 0
2, 136416, Note_on_c, 0, 81, 85
2, 136460, Note_on_c, 0, 81, 0
2, 136464, Note_on_c, 0, 83, 85
2, 136508, Note_on_c, 0, 83, 0
2, 136512, Note_on_c, 0, 81, 86
2, 136604, Note_on_c, 0, 81, 0
2, 136608, Note_on_c, 0, 79, 87
2, 136700, Note_on_c, 0, 79, 0
2, 136704, Note_on_c, 0, 78, 87
2, 136768, Note_on_c, 0, 78, 0
2, 136768, Note_on_c, 0, 81, 87
2, 136832, Note_on_c, 0, 81, 0
2, 136832, Note_on_c, 0, 81, 87
2, 136896, Note_on_c, 0, 81, 0
2, 136896, Note_on_c, 0, 81, 87
2, 136960, Note_on_c, 0, 81, 0
2, 136960, Note_on_c, 0, 78, 87
2, 137024, Note_on_c, 0, 78, 0
2, 137024, Note_on_c, 0, 74, 87
2, 137088, Note_on_c, 0, 74, 0
2, 137088, Note_on_c, 0, 76, 87
2, 137152, Note_on_c, 0, 76, 0
2, 137152, Note_on_c, 0, 81, 87
2, 137216, Note_on_c, 0, 81, 0
2, 137216, Note_on_c, 0, 81, 87
2, 137280, Note_on_c, 0, 81, 0
2, 137280, Note_on_c, 0, 81, 87
2, 137344, Note_on_c, 0, 81, 0
2, 137344, Note_on_c, 0, 79, 87
2, 137408, Note_on_c, 0, 79, 0
2, 137408, Note_on_c, 0, 76, 87
2, 137472, Note_on_c, 0, 76, 0
2, 137472, Note_on_c, 0, 78, 87
2, 137536, Note_on_c, 0, 78, 0
2, 137536, Note_on_c, 0, 81, 87
2, 137600, Note_on_c, 0, 81, 0
2, 137600, Note_on_c, 0, 81, 87
2, 137664, Note_on_c, 0, 81, 0
2, 137664, Note_on_c, 0, 81, 87
2, 137728, Note_on_c, 0, 81, 0
2, 137728, Note_on_c, 0, 78, 87
2, 137792, Note_on_c, 0, 78, 0
2, 137792, Note_on_c, 0, 74, 87
2, 137856, Note_on_c, 0, 74, 0
2, 137856, Note_on_c, 0, 76, 87
2, 137920, Note_on_c, 0, 76, 0
2, 137920, Note_on_c, 0, 81, 87
2, 137984, Note_on_c, 0, 81, 0
2, 137984, Note_on_c, 0, 81, 87
2, 138048, Note_on_c, 0, 81, 0
2, 138048, Note_on_c, 0, 81, 87
2, 138112, Note_on_c, 0, 81, 0
2, 138112, Note_on_c, 0, 79, 87
2, 138176, Note_on_c, 0, 79, 0
2, 138176, Note_on_c, 0, 76, 87
2, 138240, Note_on_c, 0, 76, 0
2, 138240, Note_on_c, 0, 78, 87
2, 138268, Note_on_c, 0, 78, 0
2, 138288, Note_on_c, 0, 74, 87
2, 138336, Note_on_c, 0, 76, 87
2, 138340, Note_on_c, 0, 74, 0
2, 138384, Note_on_c, 0, 76, 0
2, 138384, Note_on_c, 0, 78, 87
2, 138432, Note_on_c, 0, 78, 0
2, 138432, Note_on_c, 0, 79, 87
2, 138480, Note_on_c, 0, 79, 0
2, 138480, Note_on_c, 0, 81, 87
2, 138528, Note_on_c, 0, 81, 0
2, 138528, Note_on_c, 0, 83, 87
2, 138576, Note_on_c, 0, 83, 0
2, 138576, Note_on_c, 0, 85, 87
2, 138620, Note_on_c, 0, 85, 0
2, 138624, Note_on_c, 0, 86, 87
2, 139100, Note_on_c, 0, 86, 0
2, 139104, Note_on_c, 0, 85, 87
2, 139200, Note_on_c, 0, 85, 0
2, 139200, Note_on_c, 0, 83, 87
2, 139288, Note_on_c, 0, 83, 0
2, 139296, Note_on_c, 0, 81, 87
2, 139392, Note_on_c, 0, 81, 0
2, 139392, Note_on_c, 0, 79, 87
2, 139480, Note_on_c, 0, 79, 0
2, 139488, Note_on_c, 0, 78, 87
2, 139584, Note_on_c, 0, 78, 0
2, 139584, Note_on_c, 0, 76, 87
2, 139676, Note_on_c, 0, 76, 0
2, 139680, Note_on_c, 0, 78, 87
2, 139768, Note_on_c, 0, 78, 0
2, 139776, Note_on_c, 0, 78, 87
2, 139804, Note_on_c, 0, 78, 0
2, 139808, Note_on_c, 0, 79, 87
2, 139836, Note_on_c, 0, 79, 0
2, 139840, Note_on_c, 0, 78, 87
2, 139868, Note_on_c, 0, 78, 0
2, 139872, Note_on_c, 0, 79, 87
2, 139900, Note_on_c, 0, 79, 0
2, 139904, Note_on_c, 0, 78, 87
2, 139932, Note_on_c, 0, 78, 0
2, 139936, Note_on_c, 0, 79, 87
2, 139964, Note_on_c, 0, 79, 0
2, 139968, Note_on_c, 0, 76, 87
2, 140156, Note_on_c, 0, 76, 0
2, 140544, Note_on_c, 0, 69, 71
2, 140732, Note_on_c, 0, 69, 0
2, 140736, Note_on_c, 0, 69, 65
2, 141024, Note_on_c, 0, 69, 0
2, 141024, Note_on_c, 0, 78, 65
2, 141116, Note_on_c, 0, 78, 0
2, 141120, Note_on_c, 0, 76, 65
2, 141212, Note_on_c, 0, 76, 0
2, 141216, Note_on_c, 0, 74, 65
2, 141304, Note_on_c, 0, 74, 0
2, 141312, Note_on_c, 0, 74, 65
2, 141408, Note_on_c, 0, 74, 0
2, 141408, Note_on_c, 0, 73, 65
2, 141496, Note_on_c, 0, 73, 0
2, 141504, Note_on_c, 0, 73, 65
2, 141888, Note_on_c, 0, 73, 0
2, 141888, Note_on_c, 0, 71, 65
2, 142264, Note_on_c, 0, 71, 0
2, 142272, Note_on_c, 0, 69, 65
2, 142656, Note_on_c, 0, 69, 0
2, 142656, Note_on_c, 0, 67, 65
2, 142840, Note_on_c, 0, 67, 0
2, 142848, Note_on_c, 0, 67, 71
2, 142876, Note_on_c, 0, 67, 0
2, 142880, Note_on_c, 0, 69, 71
2, 142908, Note_on_c, 0, 69, 0
2, 142912, Note_on_c, 0, 67, 71
2, 142940, Note_on_c, 0, 67, 0
2, 142944, Note_on_c, 0, 69, 71
2, 142972, Note_on_c, 0, 69, 0
2, 142976, Note_on_c, 0, 67, 71
2, 143004, Note_on_c, 0, 67, 0
2, 143008, Note_on_c, 0, 69, 71
2, 143036, Note_on_c, 0, 69, 0
2, 143040, Note_on_c, 0, 67, 71
2, 143068, Note_on_c, 0, 67, 0
2, 143072, Note_on_c, 0, 69, 71
2, 143100, Note_on_c, 0, 69, 0
2, 143104, Note_on_c, 0, 67, 71
2, 143132, Note_on_c, 0, 67, 0
2, 143136, Note_on_c, 0, 69, 71
2, 143164, Note_on_c, 0, 69, 0
2, 143168, Note_on_c, 0, 66, 71
2, 143196, Note_on_c, 0, 66, 0
2, 143200, Note_on_c, 0, 67, 71
2, 143228, Note_on_c, 0, 67, 0
2, 143232, Note_on_c, 0, 66, 65
2, 143420, Note_on_c, 0, 66, 0
2, 143616, Note_on_c, 0, 74, 65
2, 143804, Note_on_c, 0, 74, 0
2, 143808, Note_on_c, 0, 74, 66
2, 144096, Note_on_c, 0, 74, 0
2, 144096, Note_on_c, 0, 78, 77
2, 144188, Note_on_c, 0, 78, 0
2, 144192, Note_on_c, 0, 81, 80
2, 144284, Note_on_c, 0, 81, 0
2, 144288, Note_on_c, 0, 86, 84
2, 144380, Note_on_c, 0, 86, 0
2, 144384, Note_on_c, 0, 86, 87
2, 144480, Note_on_c, 0, 86, 0
2, 144480, Note_on_c, 0, 83, 87
2, 144568, Note_on_c, 0, 83, 0
2, 144576, Note_on_c, 0, 83, 87
2, 144960, Note_on_c, 0, 83, 0
2, 144960, Note_on_c, 0, 81, 87
2, 145144, Note_on_c, 0, 81, 0
2, 145152, Note_on_c, 0, 81, 82
2, 145344, Note_on_c, 0, 81, 0
2, 145344, Note_on_c, 0, 79, 76
2, 145720, Note_on_c, 0, 79, 0
2, 145728, Note_on_c, 0, 78, 71
2, 145824, Note_on_c, 0, 78, 0
2, 145920, Note_on_c, 0, 78, 65
2, 145948, Note_on_c, 0, 78, 0
2, 145952, Note_on_c, 0, 79, 65
2, 145980, Note_on_c, 0, 79, 0
2, 145984, Note_on_c, 0, 78, 65
2, 146012, Note_on_c, 0, 78, 0
2, 146016, Note_on_c, 0, 79, 65
2, 146044, Note_on_c, 0, 79, 0
2, 146048, Note_on_c, 0, 76, 65
2, 146076, Note_on_c, 0, 76, 0
2, 146080, Note_on_c, 0, 78, 65
2, 146108, Note_on_c, 0, 78, 0
2, 146112, Note_on_c, 0, 76, 65
2, 146300, Note_on_c, 0, 76, 0
2, 146784, Note_on_c, 0, 69, 65
2, 146876, Note_on_c, 0, 69, 0
2, 146880, Note_on_c, 0, 68, 65
2, 146972, Note_on_c, 0, 68, 0
2, 146976, Note_on_c, 0, 69, 65
2, 147068, Note_on_c, 0, 69, 0
2, 147072, Note_on_c, 0, 68, 66
2, 147164, Note_on_c, 0, 68, 0
2, 147168, Note_on_c, 0, 69, 72
2, 147260, Note_on_c, 0, 69, 0
2, 147264, Note_on_c, 0, 71, 77
2, 147356, Note_on_c, 0, 71, 0
2, 147360, Note_on_c, 0, 69, 83
2, 147452, Note_on_c, 0, 69, 0
2, 147456, Note_on_c, 0, 57, 87
2, 147520, Note_on_c, 0, 57, 0
2, 147520, Note_on_c, 0, 67, 87
2, 147576, Note_on_c, 0, 67, 0
2, 147584, Note_on_c, 0, 76, 87
2, 147648, Note_on_c, 0, 76, 0
2, 147648, Note_on_c, 0, 59, 87
2, 147712, Note_on_c, 0, 59, 0
2, 147712, Note_on_c, 0, 67, 87
2, 147768, Note_on_c, 0, 67, 0
2, 147776, Note_on_c, 0, 76, 87
2, 147836, Note_on_c, 0, 76, 0
2, 147840, Note_on_c, 0, 57, 87
2, 147904, Note_on_c, 0, 57, 0
2, 147904, Note_on_c, 0, 67, 87
2, 147960, Note_on_c, 0, 67, 0
2, 147968, Note_on_c, 0, 76, 87
2, 148032, Note_on_c, 0, 76, 0
2, 148032, Note_on_c, 0, 59, 87
2, 148096, Note_on_c, 0, 59, 0
2, 148096, Note_on_c, 0, 67, 87
2, 148152, Note_on_c, 0, 67, 0
2, 148160, Note_on_c, 0, 76, 87
2, 148224, Note_on_c, 0, 76, 0
2, 148224, Note_on_c, 0, 57, 87
2, 148288, Note_on_c, 0, 57, 0
2, 148288, Note_on_c, 0, 67, 87
2, 148344, Note_on_c, 0, 67, 0
2, 148352, Note_on_c, 0, 76, 87
2, 148416, Note_on_c, 0, 76, 0
2, 148416, Note_on_c, 0, 76, 87
2, 148480, Note_on_c, 0, 76, 0
2, 148480, Note_on_c, 0, 76, 87
2, 148540, Note_on_c, 0, 76, 0
2, 148544, Note_on_c, 0, 76, 87
2, 148600, Note_on_c, 0, 76, 0
2, 148608, Note_on_c, 0, 76, 87
2, 148672, Note_on_c, 0, 76, 0
2, 148672, Note_on_c, 0, 74, 87
2, 148736, Note_on_c, 0, 74, 0
2, 148736, Note_on_c, 0, 73, 87
2, 148800, Note_on_c, 0, 73, 0
2, 148800, Note_on_c, 0, 71, 87
2, 148864, Note_on_c, 0, 71, 0
2, 148864, Note_on_c, 0, 69, 87
2, 148928, Note_on_c, 0, 69, 0
2, 148928, Note_on_c, 0, 67, 87
2, 148992, Note_on_c, 0, 67, 0
2, 148992, Note_on_c, 0, 57, 87
2, 149056, Note_on_c, 0, 57, 0
2, 149056, Note_on_c, 0, 66, 87
2, 149112, Note_on_c, 0, 66, 0
2, 149120, Note_on_c, 0, 74, 87
2, 149184, Note_on_c, 0, 74, 0
2, 149184, Note_on_c, 0, 57, 87
2, 149248, Note_on_c, 0, 57, 0
2, 149248, Note_on_c, 0, 67, 87
2, 149304, Note_on_c, 0, 67, 0
2, 149312, Note_on_c, 0, 76, 87
2, 149376, Note_on_c, 0, 76, 0
2, 149376, Note_on_c, 0, 57, 87
2, 149440, Note_on_c, 0, 57, 0
2, 149440, Note_on_c, 0, 66, 87
2, 149496, Note_on_c, 0, 66, 0
2, 149504, Note_on_c, 0, 74, 87
2, 149568, Note_on_c, 0, 74, 0
2, 149568, Note_on_c, 0, 57, 87
2, 149632, Note_on_c, 0, 57, 0
2, 149632, Note_on_c, 0, 67, 87
2, 149688, Note_on_c, 0, 67, 0
2, 149696, Note_on_c, 0, 76, 87
2, 149760, Note_on_c, 0, 76, 0
2, 149760, Note_on_c, 0, 57, 87
2, 149824, Note_on_c, 0, 57, 0
2, 149824, Note_on_c, 0, 66, 87
2, 149880, Note_on_c, 0, 66, 0
2, 149888, Note_on_c, 0, 74, 87
2, 149952, Note_on_c, 0, 74, 0
2, 149952, Note_on_c, 0, 74, 87
2, 150016, Note_on_c, 0, 74, 0
2, 150016, Note_on_c, 0, 74, 87
2, 150080, Note_on_c, 0, 74, 0
2, 150080, Note_on_c, 0, 74, 87
2, 150144, Note_on_c, 0, 74, 0
2, 150144, Note_on_c, 0, 74, 87
2, 150208, Note_on_c, 0, 74, 0
2, 150208, Note_on_c, 0, 73, 87
2, 150272, Note_on_c, 0, 73, 0
2, 150272, Note_on_c, 0, 71, 87
2, 150336, Note_on_c, 0, 71, 0
2, 150336, Note_on_c, 0, 69, 87
2, 150400, Note_on_c, 0, 69, 0
2, 150400, Note_on_c, 0, 67, 87
2, 150464, Note_on_c, 0, 67, 0
2, 150464, Note_on_c, 0, 66, 87
2, 150528, Note_on_c, 0, 66, 0
2, 150528, Note_on_c, 0, 57, 65
2, 150592, Note_on_c, 0, 57, 0
2, 150592, Note_on_c, 0, 67, 65
2, 150648, Note_on_c, 0, 67, 0
2, 150656, Note_on_c, 0, 76, 65
2, 150688, Note_on_c, 0, 76, 0
2, 150720, Note_on_c, 0, 59, 65
2, 150784, Note_on_c, 0, 59, 0
2, 150784, Note_on_c, 0, 67, 65
2, 150840, Note_on_c, 0, 67, 0
2, 150848, Note_on_c, 0, 76, 65
2, 150880, Note_on_c, 0, 76, 0
2, 150912, Note_on_c, 0, 57, 65
2, 150976, Note_on_c, 0, 57, 0
2, 150976, Note_on_c, 0, 67, 65
2, 151032, Note_on_c, 0, 67, 0
2, 151040, Note_on_c, 0, 76, 65
2, 151072, Note_on_c, 0, 76, 0
2, 151104, Note_on_c, 0, 59, 65
2, 151168, Note_on_c, 0, 59, 0
2, 151168, Note_on_c, 0, 67, 65
2, 151224, Note_on_c, 0, 67, 0
2, 151232, Note_on_c, 0, 76, 65
2, 151264, Note_on_c, 0, 76, 0
2, 151296, Note_on_c, 0, 57, 65
2, 151360, Note_on_c, 0, 57, 0
2, 151360, Note_on_c, 0, 67, 65
2, 151416, Note_on_c, 0, 67, 0
2, 151424, Note_on_c, 0, 76, 65
2, 151456, Note_on_c, 0, 76, 0
2, 151488, Note_on_c, 0, 76, 65
2, 151520, Note_on_c, 0, 76, 0
2, 151552, Note_on_c, 0, 76, 65
2, 151584, Note_on_c, 0, 76, 0
2, 151616, Note_on_c, 0, 76, 65
2, 151648, Note_on_c, 0, 76, 0
2, 151680, Note_on_c, 0, 76, 65
2, 151712, Note_on_c, 0, 76, 0
2, 151744, Note_on_c, 0, 74, 65
2, 151776, Note_on_c, 0, 74, 0
2, 151808, Note_on_c, 0, 73, 65
2, 151840, Note_on_c, 0, 73, 0
2, 151872, Note_on_c, 0, 71, 65
2, 151904, Note_on_c, 0, 71, 0
2, 151936, Note_on_c, 0, 69, 65
2, 151968, Note_on_c, 0, 69, 0
2, 152000, Note_on_c, 0, 67, 65
2, 152032, Note_on_c, 0, 67, 0
2, 152064, Note_on_c, 0, 66, 65
2, 152128, Note_on_c, 0, 66, 0
2, 152128, Note_on_c, 0, 69, 65
2, 152184, Note_on_c, 0, 69, 0
2, 152192, Note_on_c, 0, 74, 65
2, 152224, Note_on_c, 0, 74, 0
2, 152256, Note_on_c, 0, 78, 65
2, 152288, Note_on_c, 0, 78, 0
2, 152448, Note_on_c, 0, 69, 65
2, 152512, Note_on_c, 0, 69, 0
2, 152512, Note_on_c, 0, 74, 65
2, 152568, Note_on_c, 0, 74, 0
2, 152576, Note_on_c, 0, 78, 65
2, 152608, Note_on_c, 0, 78, 0
2, 152640, Note_on_c, 0, 81, 65
2, 152672, Note_on_c, 0, 81, 0
2, 152832, Note_on_c, 0, 66, 66
2, 152896, Note_on_c, 0, 66, 0
2, 152896, Note_on_c, 0, 69, 67
2, 152956, Note_on_c, 0, 69, 0
2, 152960, Note_on_c, 0, 74, 70
2, 153016, Note_on_c, 0, 74, 0
2, 153024, Note_on_c, 0, 78, 72
2, 153068, Note_on_c, 0, 78, 0
2, 153120, Note_on_c, 0, 78, 74
2, 153164, Note_on_c, 0, 78, 0
2, 153216, Note_on_c, 0, 69, 77
2, 153280, Note_on_c, 0, 69, 0
2, 153280, Note_on_c, 0, 74, 78
2, 153340, Note_on_c, 0, 74, 0
2, 153344, Note_on_c, 0, 78, 80
2, 153400, Note_on_c, 0, 78, 0
2, 153408, Note_on_c, 0, 81, 83
2, 153452, Note_on_c, 0, 81, 0
2, 153504, Note_on_c, 0, 81, 85
2, 153548, Note_on_c, 0, 81, 0
2, 153600, Note_on_c, 0, 57, 101
2, 153980, Note_on_c, 0, 57, 0
2, 153984, Note_on_c, 0, 76, 94
2, 154012, Note_on_c, 0, 76, 0
2, 154016, Note_on_c, 0, 78, 90
2, 154044, Note_on_c, 0, 78, 0
2, 154048, Note_on_c, 0, 76, 87
2, 154076, Note_on_c, 0, 76, 0
2, 154080, Note_on_c, 0, 78, 87
2, 154108, Note_on_c, 0, 78, 0
2, 154112, Note_on_c, 0, 76, 87
2, 154140, Note_on_c, 0, 76, 0
2, 154144, Note_on_c, 0, 78, 87
2, 154172, Note_on_c, 0, 78, 0
2, 154176, Note_on_c, 0, 76, 87
2, 154204, Note_on_c, 0, 76, 0
2, 154208, Note_on_c, 0, 78, 87
2, 154236, Note_on_c, 0, 78, 0
2, 154240, Note_on_c, 0, 76, 87
2, 154268, Note_on_c, 0, 76, 0
2, 154272, Note_on_c, 0, 74, 87
2, 154316, Note_on_c, 0, 74, 0
2, 154320, Note_on_c, 0, 76, 87
2, 154364, Note_on_c, 0, 76, 0
2, 154368, Note_on_c, 0, 74, 87
2, 154748, Note_on_c, 0, 74, 0
2, 155904, Note_on_c, 0, 81, 76
2, 157724, Note_on_c, 0, 81, 0
2, 157728, Note_on_c, 0, 69, 65
2, 157816, Note_on_c, 0, 69, 0
2, 157824, Note_on_c, 0, 69, 65
2, 157924, Note_on_c, 0, 69, 0
2, 158016, Note_on_c, 0, 69, 65
2, 158116, Note_on_c, 0, 69, 0
2, 158208, Note_on_c, 0, 69, 65
2, 158304, Note_on_c, 0, 69, 0
2, 158320, Note_on_c, 0, 78, 65
2, 158496, Note_on_c, 0, 69, 65
2, 158504, Note_on_c, 0, 78, 0
2, 158592, Note_on_c, 0, 69, 0
2, 158592, Note_on_c, 0, 69, 65
2, 158688, Note_on_c, 0, 69, 0
2, 158688, Note_on_c, 0, 79, 65
2, 158872, Note_on_c, 0, 79, 0
2, 158880, Note_on_c, 0, 69, 65
2, 158976, Note_on_c, 0, 69, 0
2, 158976, Note_on_c, 0, 69, 65
2, 159072, Note_on_c, 0, 69, 0
2, 159072, Note_on_c, 0, 81, 65
2, 159160, Note_on_c, 0, 81, 0
2, 159168, Note_on_c, 0, 81, 65
2, 159360, Note_on_c, 0, 81, 0
2, 159552, Note_on_c, 0, 69, 65
2, 159652, Note_on_c, 0, 69, 0
2, 159744, Note_on_c, 0, 69, 65
2, 159840, Note_on_c, 0, 69, 0
2, 159840, Note_on_c, 0, 76, 65
2, 160024, Note_on_c, 0, 76, 0
2, 160032, Note_on_c, 0, 69, 65
2, 160128, Note_on_c, 0, 69, 0
2, 160128, Note_on_c, 0, 69, 65
2, 160224, Note_on_c, 0, 69, 0
2, 160240, Note_on_c, 0, 78, 65
2, 160416, Note_on_c, 0, 69, 65
2, 160424, Note_on_c, 0, 78, 0
2, 160512, Note_on_c, 0, 69, 0
2, 160512, Note_on_c, 0, 69, 65
2, 160608, Note_on_c, 0, 69, 0
2, 160608, Note_on_c, 0, 79, 65
2, 160696, Note_on_c, 0, 79, 0
2, 160704, Note_on_c, 0, 79, 65
2, 160896, Note_on_c, 0, 79, 0
2, 161088, Note_on_c, 0, 79, 65
2, 161188, Note_on_c, 0, 79, 0
2, 161280, Note_on_c, 0, 78, 65
2, 161660, Note_on_c, 0, 78, 0
2, 161664, Note_on_c, 0, 79, 71
2, 161692, Note_on_c, 0, 79, 0
2, 161696, Note_on_c, 0, 81, 71
2, 161724, Note_on_c, 0, 81, 0
2, 161728, Note_on_c, 0, 79, 71
2, 161756, Note_on_c, 0, 79, 0
2, 161760, Note_on_c, 0, 81, 71
2, 161788, Note_on_c, 0, 81, 0
2, 161792, Note_on_c, 0, 79, 71
2, 161820, Note_on_c, 0, 79, 0
2, 161824, Note_on_c, 0, 81, 71
2, 161852, Note_on_c, 0, 81, 0
2, 161856, Note_on_c, 0, 79, 71
2, 161884, Note_on_c, 0, 79, 0
2, 161888, Note_on_c, 0, 81, 71
2, 161916, Note_on_c, 0, 81, 0
2, 161920, Note_on_c, 0, 79, 71
2, 161948, Note_on_c, 0, 79, 0
2, 161952, Note_on_c, 0, 78, 71
2, 161996, Note_on_c, 0, 78, 0
2, 162000, Note_on_c, 0, 79, 71
2, 162044, Note_on_c, 0, 79, 0
2, 162048, Note_on_c, 0, 81, 71
2, 162428, Note_on_c, 0, 81, 0
2, 162496, Note_on_c, 0, 74, 65
2, 162556, Note_on_c, 0, 74, 0
2, 162560, Note_on_c, 0, 73, 65
2, 162620, Note_on_c, 0, 73, 0
2, 162624, Note_on_c, 0, 74, 65
2, 162684, Note_on_c, 0, 74, 0
2, 162688, Note_on_c, 0, 71, 65
2, 162720, Note_on_c, 0, 71, 0
2, 162752, Note_on_c, 0, 67, 65
2, 162784, Note_on_c, 0, 67, 0
2, 162816, Note_on_c, 0, 66, 76
2, 163196, Note_on_c, 0, 66, 0
2, 163200, Note_on_c, 0, 67, 76
2, 163228, Note_on_c, 0, 67, 0
2, 163232, Note_on_c, 0, 69, 76
2, 163260, Note_on_c, 0, 69, 0
2, 163264, Note_on_c, 0, 67, 76
2, 163292, Note_on_c, 0, 67, 0
2, 163296, Note_on_c, 0, 69, 76
2, 163324, Note_on_c, 0, 69, 0
2, 163328, Note_on_c, 0, 67, 76
2, 163356, Note_on_c, 0, 67, 0
2, 163360, Note_on_c, 0, 69, 76
2, 163388, Note_on_c, 0, 69, 0
2, 163392, Note_on_c, 0, 67, 76
2, 163420, Note_on_c, 0, 67, 0
2, 163424, Note_on_c, 0, 69, 76
2, 163452, Note_on_c, 0, 69, 0
2, 163456, Note_on_c, 0, 67, 76
2, 163484, Note_on_c, 0, 67, 0
2, 163488, Note_on_c, 0, 66, 76
2, 163532, Note_on_c, 0, 66, 0
2, 163536, Note_on_c, 0, 67, 76
2, 163580, Note_on_c, 0, 67, 0
2, 163584, Note_on_c, 0, 69, 71
2, 163964, Note_on_c, 0, 69, 0
2, 164032, Note_on_c, 0, 86, 65
2, 164092, Note_on_c, 0, 86, 0
2, 164096, Note_on_c, 0, 85, 65
2, 164156, Note_on_c, 0, 85, 0
2, 164160, Note_on_c, 0, 86, 65
2, 164220, Note_on_c, 0, 86, 0
2, 164224, Note_on_c, 0, 83, 65
2, 164256, Note_on_c, 0, 83, 0
2, 164288, Note_on_c, 0, 79, 65
2, 164320, Note_on_c, 0, 79, 0
2, 164352, Note_on_c, 0, 78, 65
2, 164732, Note_on_c, 0, 78, 0
2, 164736, Note_on_c, 0, 79, 71
2, 164764, Note_on_c, 0, 79, 0
2, 164768, Note_on_c, 0, 81, 71
2, 164796, Note_on_c, 0, 81, 0
2, 164800, Note_on_c, 0, 79, 71
2, 164828, Note_on_c, 0, 79, 0
2, 164832, Note_on_c, 0, 81, 71
2, 164860, Note_on_c, 0, 81, 0
2, 164864, Note_on_c, 0, 79, 71
2, 164892, Note_on_c, 0, 79, 0
2, 164896, Note_on_c, 0, 81, 71
2, 164924, Note_on_c, 0, 81, 0
2, 164928, Note_on_c, 0, 79, 71
2, 164956, Note_on_c, 0, 79, 0
2, 164960, Note_on_c, 0, 81, 71
2, 164988, Note_on_c, 0, 81, 0
2, 164992, Note_on_c, 0, 79, 71
2, 165020, Note_on_c, 0, 79, 0
2, 165024, Note_on_c, 0, 78, 71
2, 165068, Note_on_c, 0, 78, 0
2, 165072, Note_on_c, 0, 79, 71
2, 165116, Note_on_c, 0, 79, 0
2, 165120, Note_on_c, 0, 81, 66
2, 165212, Note_on_c, 0, 81, 0
2, 165216, Note_on_c, 0, 86, 67
2, 165404, Note_on_c, 0, 86, 0
2, 165408, Note_on_c, 0, 84, 70
2, 165596, Note_on_c, 0, 84, 0
2, 165600, Note_on_c, 0, 83, 73
2, 165788, Note_on_c, 0, 83, 0
2, 165792, Note_on_c, 0, 82, 75
2, 165980, Note_on_c, 0, 82, 0
2, 165984, Note_on_c, 0, 83, 78
2, 166172, Note_on_c, 0, 83, 0
2, 166176, Note_on_c, 0, 91, 80
2, 166364, Note_on_c, 0, 91, 0
2, 166368, Note_on_c, 0, 90, 84
2, 166560, Note_on_c, 0, 90, 0
2, 166560, Note_on_c, 0, 88, 86
2, 166608, Note_on_c, 0, 88, 0
2, 166656, Note_on_c, 0, 86, 87
2, 167036, Note_on_c, 0, 86, 0
2, 167040, Note_on_c, 0, 88, 98
2, 167068, Note_on_c, 0, 88, 0
2, 167072, Note_on_c, 0, 90, 92
2, 167100, Note_on_c, 0, 90, 0
2, 167104, Note_on_c, 0, 88, 87
2, 167132, Note_on_c, 0, 88, 0
2, 167136, Note_on_c, 0, 90, 87
2, 167164, Note_on_c, 0, 90, 0
2, 167168, Note_on_c, 0, 88, 87
2, 167196, Note_on_c, 0, 88, 0
2, 167200, Note_on_c, 0, 90, 87
2, 167228, Note_on_c, 0, 90, 0
2, 167232, Note_on_c, 0, 88, 87
2, 167260, Note_on_c, 0, 88, 0
2, 167264, Note_on_c, 0, 90, 87
2, 167292, Note_on_c, 0, 90, 0
2, 167296, Note_on_c, 0, 88, 87
2, 167324, Note_on_c, 0, 88, 0
2, 167328, Note_on_c, 0, 86, 87
2, 167372, Note_on_c, 0, 86, 0
2, 167376, Note_on_c, 0, 88, 87
2, 167420, Note_on_c, 0, 88, 0
2, 167424, Note_on_c, 0, 86, 98
2, 167612, Note_on_c, 0, 86, 0
2, 167808, Note_on_c, 0, 86, 65
2, 167904, Note_on_c, 0, 86, 0
2, 167904, Note_on_c, 0, 85, 65
2, 167996, Note_on_c, 0, 85, 0
2, 168000, Note_on_c, 0, 83, 65
2, 168092, Note_on_c, 0, 83, 0
2, 168096, Note_on_c, 0, 81, 65
2, 168184, Note_on_c, 0, 81, 0
2, 168192, Note_on_c, 0, 81, 65
2, 168288, Note_on_c, 0, 81, 0
2, 168288, Note_on_c, 0, 80, 65
2, 168376, Note_on_c, 0, 80, 0
2, 168384, Note_on_c, 0, 80, 65
2, 168480, Note_on_c, 0, 80, 0
2, 168480, Note_on_c, 0, 80, 65
2, 168576, Note_on_c, 0, 80, 0
2, 168576, Note_on_c, 0, 80, 65
2, 168676, Note_on_c, 0, 80, 0
2, 168768, Note_on_c, 0, 80, 65
2, 168868, Note_on_c, 0, 80, 0
2, 168960, Note_on_c, 0, 81, 65
2, 169248, Note_on_c, 0, 81, 0
2, 169248, Note_on_c, 0, 82, 65
2, 169336, Note_on_c, 0, 82, 0
2, 169344, Note_on_c, 0, 83, 65
2, 169440, Note_on_c, 0, 83, 0
2, 169440, Note_on_c, 0, 81, 65
2, 169532, Note_on_c, 0, 81, 0
2, 169536, Note_on_c, 0, 79, 65
2, 169628, Note_on_c, 0, 79, 0
2, 169632, Note_on_c, 0, 78, 65
2, 169720, Note_on_c, 0, 78, 0
2, 169728, Note_on_c, 0, 78, 65
2, 169824, Note_on_c, 0, 78, 0
2, 169824, Note_on_c, 0, 76, 65
2, 169912, Note_on_c, 0, 76, 0
2, 169920, Note_on_c, 0, 76, 65
2, 170016, Note_on_c, 0, 76, 0
2, 170016, Note_on_c, 0, 76, 65
2, 170112, Note_on_c, 0, 76, 0
2, 170112, Note_on_c, 0, 76, 65
2, 170208, Note_on_c, 0, 76, 0
2, 170208, Note_on_c, 0, 79, 65
2, 170300, Note_on_c, 0, 79, 0
2, 170304, Note_on_c, 0, 78, 65
2, 170396, Note_on_c, 0, 78, 0
2, 170400, Note_on_c, 0, 76, 65
2, 170488, Note_on_c, 0, 76, 0
2, 170496, Note_on_c, 0, 78, 65
2, 170556, Note_on_c, 0, 78, 0
2, 170560, Note_on_c, 0, 74, 65
2, 170620, Note_on_c, 0, 74, 0
2, 170624, Note_on_c, 0, 69, 65
2, 170684, Note_on_c, 0, 69, 0
2, 170688, Note_on_c, 0, 74, 65
2, 170720, Note_on_c, 0, 74, 0
2, 170752, Note_on_c, 0, 76, 65
2, 170784, Note_on_c, 0, 76, 0
2, 170816, Note_on_c, 0, 78, 65
2, 170848, Note_on_c, 0, 78, 0
2, 170880, Note_on_c, 0, 79, 65
2, 170940, Note_on_c, 0, 79, 0
2, 170944, Note_on_c, 0, 76, 65
2, 171004, Note_on_c, 0, 76, 0
2, 171008, Note_on_c, 0, 69, 65
2, 171068, Note_on_c, 0, 69, 0
2, 171072, Note_on_c, 0, 76, 65
2, 171104, Note_on_c, 0, 76, 0
2, 171136, Note_on_c, 0, 78, 65
2, 171168, Note_on_c, 0, 78, 0
2, 171200, Note_on_c, 0, 79, 65
2, 171232, Note_on_c, 0, 79, 0
2, 171264, Note_on_c, 0, 78, 66
2, 171324, Note_on_c, 0, 78, 0
2, 171328, Note_on_c, 0, 74, 66
2, 171388, Note_on_c, 0, 74, 0
2, 171392, Note_on_c, 0, 69, 67
2, 171452, Note_on_c, 0, 69, 0
2, 171456, Note_on_c, 0, 74, 69
2, 171488, Note_on_c, 0, 74, 0
2, 171520, Note_on_c, 0, 76, 70
2, 171552, Note_on_c, 0, 76, 0
2, 171584, Note_on_c, 0, 78, 71
2, 171616, Note_on_c, 0, 78, 0
2, 171648, Note_on_c, 0, 79, 72
2, 171708, Note_on_c, 0, 79, 0
2, 171712, Note_on_c, 0, 76, 72
2, 171772, Note_on_c, 0, 76, 0
2, 171776, Note_on_c, 0, 69, 73
2, 171836, Note_on_c, 0, 69, 0
2, 171840, Note_on_c, 0, 76, 74
2, 171872, Note_on_c, 0, 76, 0
2, 171904, Note_on_c, 0, 78, 75
2, 171936, Note_on_c, 0, 78, 0
2, 171968, Note_on_c, 0, 79, 76
2, 172000, Note_on_c, 0, 79, 0
2, 172032, Note_on_c, 0, 78, 77
2, 172096, Note_on_c, 0, 78, 0
2, 172096, Note_on_c, 0, 81, 77
2, 172156, Note_on_c, 0, 81, 0
2, 172160, Note_on_c, 0, 79, 78
2, 172220, Note_on_c, 0, 79, 0
2, 172224, Note_on_c, 0, 78, 79
2, 172284, Note_on_c, 0, 78, 0
2, 172288, Note_on_c, 0, 76, 80
2, 172348, Note_on_c, 0, 76, 0
2, 172352, Note_on_c, 0, 74, 82
2, 172408, Note_on_c, 0, 74, 0
2, 172416, Note_on_c, 0, 76, 83
2, 172448, Note_on_c, 0, 76, 0
2, 172448, Note_on_c, 0, 78, 83
2, 172476, Note_on_c, 0, 78, 0
2, 172480, Note_on_c, 0, 76, 83
2, 172508, Note_on_c, 0, 76, 0
2, 172512, Note_on_c, 0, 78, 84
2, 172540, Note_on_c, 0, 78, 0
2, 172544, Note_on_c, 0, 76, 84
2, 172572, Note_on_c, 0, 76, 0
2, 172576, Note_on_c, 0, 78, 85
2, 172604, Note_on_c, 0, 78, 0
2, 172608, Note_on_c, 0, 76, 85
2, 172636, Note_on_c, 0, 76, 0
2, 172640, Note_on_c, 0, 78, 85
2, 172668, Note_on_c, 0, 78, 0
2, 172672, Note_on_c, 0, 76, 86
2, 172700, Note_on_c, 0, 76, 0
2, 172704, Note_on_c, 0, 74, 86
2, 172748, Note_on_c, 0, 74, 0
2, 172752, Note_on_c, 0, 76, 87
2, 172792, Note_on_c, 0, 76, 0
2, 172800, Note_on_c, 0, 78, 87
2, 172864, Note_on_c, 0, 78, 0
2, 172864, Note_on_c, 0, 74, 87
2, 172920, Note_on_c, 0, 74, 0
2, 172928, Note_on_c, 0, 69, 87
2, 172960, Note_on_c, 0, 69, 0
2, 172992, Note_on_c, 0, 78, 87
2, 173056, Note_on_c, 0, 78, 0
2, 173056, Note_on_c, 0, 81, 87
2, 173112, Note_on_c, 0, 81, 0
2, 173120, Note_on_c, 0, 86, 87
2, 173152, Note_on_c, 0, 86, 0
2, 173184, Note_on_c, 0, 85, 87
2, 173248, Note_on_c, 0, 85, 0
2, 173248, Note_on_c, 0, 88, 87
2, 173304, Note_on_c, 0, 88, 0
2, 173312, Note_on_c, 0, 76, 87
2, 173344, Note_on_c, 0, 76, 0
2, 173376, Note_on_c, 0, 79, 87
2, 173408, Note_on_c, 0, 79, 0
2, 173408, Note_on_c, 0, 81, 87
2, 173436, Note_on_c, 0, 81, 0
2, 173440, Note_on_c, 0, 79, 87
2, 173468, Note_on_c, 0, 79, 0
2, 173472, Note_on_c, 0, 81, 87
2, 173500, Note_on_c, 0, 81, 0
2, 173504, Note_on_c, 0, 78, 87
2, 173532, Note_on_c, 0, 78, 0
2, 173536, Note_on_c, 0, 79, 87
2, 173560, Note_on_c, 0, 79, 0
2, 173568, Note_on_c, 0, 78, 87
2, 173632, Note_on_c, 0, 78, 0
2, 173632, Note_on_c, 0, 74, 87
2, 173692, Note_on_c, 0, 74, 0
2, 173696, Note_on_c, 0, 69, 87
2, 173752, Note_on_c, 0, 69, 0
2, 173760, Note_on_c, 0, 78, 87
2, 173824, Note_on_c, 0, 78, 0
2, 173824, Note_on_c, 0, 81, 87
2, 173880, Note_on_c, 0, 81, 0
2, 173888, Note_on_c, 0, 86, 87
2, 173920, Note_on_c, 0, 86, 0
2, 173952, Note_on_c, 0, 85, 87
2, 174016, Note_on_c, 0, 85, 0
2, 174016, Note_on_c, 0, 88, 87
2, 174072, Note_on_c, 0, 88, 0
2, 174080, Note_on_c, 0, 76, 87
2, 174112, Note_on_c, 0, 76, 0
2, 174144, Note_on_c, 0, 79, 87
2, 174172, Note_on_c, 0, 79, 0
2, 174176, Note_on_c, 0, 81, 87
2, 174204, Note_on_c, 0, 81, 0
2, 174208, Note_on_c, 0, 79, 87
2, 174236, Note_on_c, 0, 79, 0
2, 174240, Note_on_c, 0, 81, 87
2, 174268, Note_on_c, 0, 81, 0
2, 174272, Note_on_c, 0, 78, 87
2, 174300, Note_on_c, 0, 78, 0
2, 174304, Note_on_c, 0, 79, 87
2, 174328, Note_on_c, 0, 79, 0
2, 174336, Note_on_c, 0, 78, 98
2, 174384, Note_on_c, 0, 78, 0
2, 174384, Note_on_c, 0, 76, 87
2, 174424, Note_on_c, 0, 76, 0
2, 174432, Note_on_c, 0, 74, 87
2, 174480, Note_on_c, 0, 74, 0
2, 174480, Note_on_c, 0, 73, 87
2, 174528, Note_on_c, 0, 73, 0
2, 174528, Note_on_c, 0, 74, 98
2, 174576, Note_on_c, 0, 74, 0
2, 174576, Note_on_c, 0, 73, 87
2, 174616, Note_on_c, 0, 73, 0
2, 174624, Note_on_c, 0, 71, 87
2, 174672, Note_on_c, 0, 71, 0
2, 174672, Note_on_c, 0, 69, 87
2, 174720, Note_on_c, 0, 69, 0
2, 174720, Note_on_c, 0, 71, 98
2, 174768, Note_on_c, 0, 71, 0
2, 174768, Note_on_c, 0, 69, 87
2, 174808, Note_on_c, 0, 69, 0
2, 174816, Note_on_c, 0, 67, 87
2, 174864, Note_on_c, 0, 67, 0
2, 174864, Note_on_c, 0, 66, 87
2, 174912, Note_on_c, 0, 66, 0
2, 174912, Note_on_c, 0, 67, 98
2, 174960, Note_on_c, 0, 67, 0
2, 174960, Note_on_c, 0, 66, 87
2, 175000, Note_on_c, 0, 66, 0
2, 175008, Note_on_c, 0, 64, 87
2, 175056, Note_on_c, 0, 64, 0
2, 175056, Note_on_c, 0, 62, 87
2, 175104, Note_on_c, 0, 62, 0
2, 175104, Note_on_c, 0, 57, 98
2, 175200, Note_on_c, 0, 57, 0
2, 175200, Note_on_c, 0, 74, 87
2, 175288, Note_on_c, 0, 74, 0
2, 175296, Note_on_c, 0, 76, 87
2, 175392, Note_on_c, 0, 76, 0
2, 175392, Note_on_c, 0, 78, 87
2, 175488, Note_on_c, 0, 78, 0
2, 175488, Note_on_c, 0, 79, 87
2, 175584, Note_on_c, 0, 79, 0
2, 175584, Note_on_c, 0, 81, 87
2, 175680, Note_on_c, 0, 81, 0
2, 175680, Note_on_c, 0, 83, 87
2, 175776, Note_on_c, 0, 83, 0
2, 175776, Note_on_c, 0, 85, 87
2, 175872, Note_on_c, 0, 85, 0
2, 175872, Note_on_c, 0, 86, 87
2, 175968, Note_on_c, 0, 86, 0
2, 175968, Note_on_c, 0, 88, 87
2, 176064, Note_on_c, 0, 88, 0
2, 176064, Note_on_c, 0, 90, 87
2, 176160, Note_on_c, 0, 90, 0
2, 176160, Note_on_c, 0, 91, 87
2, 176256, Note_on_c, 0, 91, 0
2, 176256, Note_on_c, 0, 93, 98
2, 176444, Note_on_c, 0, 93, 0
2, 176448, Note_on_c, 0, 62, 98
2, 176636, Note_on_c, 0, 62, 0
2, 176640, Note_on_c, 0, 57, 101
2, 177404, Note_on_c, 0, 57, 0
2, 177408, Note_on_c, 0, 76, 98
2, 177436, Note_on_c, 0, 76, 0
2, 177440, Note_on_c, 0, 78, 90
2, 177468, Note_on_c, 0, 78, 0
2, 177472, Note_on_c, 0, 76, 89
2, 177500, Note_on_c, 0, 76, 0
2, 177504, Note_on_c, 0, 78, 87
2, 177532, Note_on_c, 0, 78, 0
2, 177536, Note_on_c, 0, 76, 87
2, 177564, Note_on_c, 0, 76, 0
2, 177568, Note_on_c, 0, 78, 87
2, 177596, Note_on_c, 0, 78, 0
2, 177600, Note_on_c, 0, 76, 87
2, 177628, Note_on_c, 0, 76, 0
2, 177632, Note_on_c, 0, 78, 87
2, 177660, Note_on_c, 0, 78, 0
2, 177664, Note_on_c, 0, 76, 87
2, 177692, Note_on_c, 0, 76, 0
2, 177696, Note_on_c, 0, 78, 87
2, 177724, Note_on_c, 0, 78, 0
2, 177728, Note_on_c, 0, 76, 87
2, 177756, Note_on_c, 0, 76, 0
2, 177760, Note_on_c, 0, 78, 87
2, 177788, Note_on_c, 0, 78, 0
2, 177792, Note_on_c, 0, 76, 87
2, 177820, Note_on_c, 0, 76, 0
2, 177824, Note_on_c, 0, 78, 87
2, 177852, Note_on_c, 0, 78, 0
2, 177856, Note_on_c, 0, 76, 87
2, 177884, Note_on_c, 0, 76, 0
2, 177888, Note_on_c, 0, 78, 87
2, 177916, Note_on_c, 0, 78, 0
2, 177920, Note_on_c, 0, 76, 87
2, 177948, Note_on_c, 0, 76, 0
2, 177952, Note_on_c, 0, 78, 87
2, 177980, Note_on_c, 0, 78, 0
2, 177984, Note_on_c, 0, 74, 87
2, 178076, Note_on_c, 0, 74, 0
2, 178080, Note_on_c, 0, 76, 87
2, 178172, Note_on_c, 0, 76, 0
2, 178176, Note_on_c, 0, 74, 87
2, 178556, Note_on_c, 0, 74, 0
2, 180480, Control_c, 0, 1, 55
2, 180672, Note_on_c, 0, 86, 82
2, 181052, Note_on_c, 0, 86, 0
2, 181056, Note_on_c, 0, 86, 87
2, 181244, Note_on_c, 0, 86, 0
2, 181248, Note_on_c, 0, 86, 92
2, 181248, Note_on_c, 0, 78, 92
2, 181248, Note_on_c, 0, 62, 94
2, 181628, Note_on_c, 0, 62, 0
2, 181628, Note_on_c, 0, 78, 0
2, 181628, Note_on_c, 0, 86, 0
2, 181632, Note_on_c, 0, 81, 91
2, 181632, Note_on_c, 0, 78, 91
2, 181920, Note_on_c, 0, 78, 0
2, 181920, Note_on_c, 0, 81, 0
2, 181920, Note_on_c, 0, 78, 89
2, 181920, Note_on_c, 0, 81, 89
2, 181960, Note_on_c, 0, 81, 0
2, 181960, Note_on_c, 0, 78, 0
2, 182016, Note_on_c, 0, 78, 98
2, 182016, Note_on_c, 0, 69, 98
2, 182016, Note_on_c, 0, 62, 98
2, 182204, Note_on_c, 0, 62, 0
2, 182204, Note_on_c, 0, 69, 0
2, 182204, Note_on_c, 0, 78, 0
2, 182208, Note_on_c, 0, 74, 98
2, 182396, Note_on_c, 0, 74, 0
2, 182592, Note_on_c, 0, 69, 87
2, 182656, Note_on_c, 0, 69, 0
2, 182656, Note_on_c, 0, 71, 87
2, 182716, Note_on_c, 0, 71, 0
2, 182720, Note_on_c, 0, 69, 87
2, 182776, Note_on_c, 0, 69, 0
2, 182784, Note_on_c, 0, 78, 87
2, 182784, Note_on_c, 0, 74, 87
2, 182976, Note_on_c, 0, 74, 0
2, 182976, Note_on_c, 0, 78, 0
2, 182976, Note_on_c, 0, 69, 87
2, 183040, Note_on_c, 0, 69, 0
2, 183040, Note_on_c, 0, 71, 87
2, 183100, Note_on_c, 0, 71, 0
2, 183104, Note_on_c, 0, 69, 87
2, 183160, Note_on_c, 0, 69, 0
2, 183168, Note_on_c, 0, 79, 87
2, 183168, Note_on_c, 0, 76, 87
2, 183360, Note_on_c, 0, 76, 0
2, 183360, Note_on_c, 0, 79, 0
2, 183360, Note_on_c, 0, 69, 87
2, 183424, Note_on_c, 0, 69, 0
2, 183424, Note_on_c, 0, 71, 87
2, 183484, Note_on_c, 0, 71, 0
2, 183488, Note_on_c, 0, 69, 87
2, 183544, Note_on_c, 0, 69, 0
2, 183552, Note_on_c, 0, 81, 87
2, 183552, Note_on_c, 0, 78, 87
2, 183744, Note_on_c, 0, 78, 0
2, 183744, Note_on_c, 0, 81, 0
2, 184320, Note_on_c, 0, 93, 87
2, 184384, Note_on_c, 0, 93, 0
2, 184384, Note_on_c, 0, 92, 87
2, 184444, Note_on_c, 0, 92, 0
2, 184448, Note_on_c, 0, 93, 87
2, 184504, Note_on_c, 0, 93, 0
2, 184512, Note_on_c, 0, 81, 87
2, 184576, Note_on_c, 0, 81, 0
2, 184576, Note_on_c, 0, 90, 87
2, 184636, Note_on_c, 0, 90, 0
2, 184640, Note_on_c, 0, 93, 87
2, 184696, Note_on_c, 0, 93, 0
2, 184704, Note_on_c, 0, 90, 87
2, 184768, Note_on_c, 0, 90, 0
2, 184768, Note_on_c, 0, 89, 87
2, 184828, Note_on_c, 0, 89, 0
2, 184832, Note_on_c, 0, 90, 87
2, 184888, Note_on_c, 0, 90, 0
2, 184896, Note_on_c, 0, 81, 87
2, 184960, Note_on_c, 0, 81, 0
2, 184960, Note_on_c, 0, 86, 87
2, 185020, Note_on_c, 0, 86, 0
2, 185024, Note_on_c, 0, 90, 87
2, 185080, Note_on_c, 0, 90, 0
2, 185088, Note_on_c, 0, 86, 87
2, 185152, Note_on_c, 0, 86, 0
2, 185152, Note_on_c, 0, 85, 87
2, 185212, Note_on_c, 0, 85, 0
2, 185216, Note_on_c, 0, 86, 87
2, 185272, Note_on_c, 0, 86, 0
2, 185280, Note_on_c, 0, 71, 87
2, 185344, Note_on_c, 0, 71, 0
2, 185344, Note_on_c, 0, 81, 87
2, 185404, Note_on_c, 0, 81, 0
2, 185408, Note_on_c, 0, 86, 87
2, 185464, Note_on_c, 0, 86, 0
2, 185472, Note_on_c, 0, 81, 87
2, 185536, Note_on_c, 0, 81, 0
2, 185536, Note_on_c, 0, 80, 87
2, 185596, Note_on_c, 0, 80, 0
2, 185600, Note_on_c, 0, 81, 87
2, 185656, Note_on_c, 0, 81, 0
2, 185664, Note_on_c, 0, 69, 87
2, 185728, Note_on_c, 0, 69, 0
2, 185728, Note_on_c, 0, 74, 87
2, 185788, Note_on_c, 0, 74, 0
2, 185792, Note_on_c, 0, 78, 87
2, 185848, Note_on_c, 0, 78, 0
2, 185856, Note_on_c, 0, 79, 87
2, 185856, Note_on_c, 0, 69, 87
2, 185856, Note_on_c, 0, 64, 87
2, 185856, Note_on_c, 0, 57, 87
2, 186236, Note_on_c, 0, 57, 0
2, 186236, Note_on_c, 0, 79, 0
2, 186236, Note_on_c, 0, 69, 0
2, 186236, Note_on_c, 0, 64, 0
2, 186240, Note_on_c, 0, 76, 87
2, 186240, Note_on_c, 0, 69, 87
2, 186528, Note_on_c, 0, 69, 0
2, 186528, Note_on_c, 0, 76, 0
2, 186528, Note_on_c, 0, 76, 87
2, 186528, Note_on_c, 0, 69, 87
2, 186568, Note_on_c, 0, 69, 0
2, 186568, Note_on_c, 0, 76, 0
2, 186624, Note_on_c, 0, 73, 98
2, 186624, Note_on_c, 0, 64, 98
2, 186812, Note_on_c, 0, 64, 0
2, 186812, Note_on_c, 0, 73, 0
2, 186816, Note_on_c, 0, 69, 98
2, 187004, Note_on_c, 0, 69, 0
2, 187200, Note_on_c, 0, 69, 87
2, 187264, Note_on_c, 0, 69, 0
2, 187264, Note_on_c, 0, 71, 87
2, 187324, Note_on_c, 0, 71, 0
2, 187328, Note_on_c, 0, 69, 87
2, 187384, Note_on_c, 0, 69, 0
2, 187392, Note_on_c, 0, 76, 87
2, 187392, Note_on_c, 0, 73, 87
2, 187584, Note_on_c, 0, 73, 0
2, 187584, Note_on_c, 0, 76, 0
2, 187584, Note_on_c, 0, 69, 87
2, 187648, Note_on_c, 0, 69, 0
2, 187648, Note_on_c, 0, 71, 87
2, 187708, Note_on_c, 0, 71, 0
2, 187712, Note_on_c, 0, 69, 87
2, 187768, Note_on_c, 0, 69, 0
2, 187776, Note_on_c, 0, 78, 87
2, 187776, Note_on_c, 0, 75, 87
2, 187968, Note_on_c, 0, 75, 0
2, 187968, Note_on_c, 0, 78, 0
2, 187968, Note_on_c, 0, 69, 87
2, 188032, Note_on_c, 0, 69, 0
2, 188032, Note_on_c, 0, 71, 87
2, 188092, Note_on_c, 0, 71, 0
2, 188096, Note_on_c, 0, 69, 87
2, 188152, Note_on_c, 0, 69, 0
2, 188160, Note_on_c, 0, 79, 87
2, 188160, Note_on_c, 0, 76, 87
2, 188352, Note_on_c, 0, 76, 0
2, 188352, Note_on_c, 0, 79, 0
2, 188928, Note_on_c, 0, 88, 87
2, 188992, Note_on_c, 0, 88, 0
2, 188992, Note_on_c, 0, 87, 87
2, 189052, Note_on_c, 0, 87, 0
2, 189056, Note_on_c, 0, 88, 87
2, 189112, Note_on_c, 0, 88, 0
2, 189120, Note_on_c, 0, 76, 87
2, 189184, Note_on_c, 0, 76, 0
2, 189184, Note_on_c, 0, 85, 87
2, 189244, Note_on_c, 0, 85, 0
2, 189248, Note_on_c, 0, 88, 87
2, 189304, Note_on_c, 0, 88, 0
2, 189312, Note_on_c, 0, 85, 87
2, 189376, Note_on_c, 0, 85, 0
2, 189376, Note_on_c, 0, 84, 87
2, 189436, Note_on_c, 0, 84, 0
2, 189440, Note_on_c, 0, 85, 87
2, 189496, Note_on_c, 0, 85, 0
2, 189504, Note_on_c, 0, 73, 87
2, 189568, Note_on_c, 0, 73, 0
2, 189568, Note_on_c, 0, 81, 87
2, 189628, Note_on_c, 0, 81, 0
2, 189632, Note_on_c, 0, 85, 87
2, 189688, Note_on_c, 0, 85, 0
2, 189696, Note_on_c, 0, 81, 87
2, 189760, Note_on_c, 0, 81, 0
2, 189760, Note_on_c, 0, 80, 87
2, 189820, Note_on_c, 0, 80, 0
2, 189824, Note_on_c, 0, 81, 87
2, 189880, Note_on_c, 0, 81, 0
2, 189888, Note_on_c, 0, 69, 87
2, 189952, Note_on_c, 0, 69, 0
2, 189952, Note_on_c, 0, 76, 87
2, 190012, Note_on_c, 0, 76, 0
2, 190016, Note_on_c, 0, 81, 87
2, 190072, Note_on_c, 0, 81, 0
2, 190080, Note_on_c, 0, 79, 87
2, 190144, Note_on_c, 0, 79, 0
2, 190144, Note_on_c, 0, 78, 87
2, 190204, Note_on_c, 0, 78, 0
2, 190208, Note_on_c, 0, 79, 87
2, 190264, Note_on_c, 0, 79, 0
2, 190272, Note_on_c, 0, 69, 87
2, 190336, Note_on_c, 0, 69, 0
2, 190336, Note_on_c, 0, 76, 87
2, 190396, Note_on_c, 0, 76, 0
2, 190400, Note_on_c, 0, 79, 87
2, 190456, Note_on_c, 0, 79, 0
2, 190464, Note_on_c, 0, 81, 87
2, 190464, Note_on_c, 0, 57, 87
2, 190464, Note_on_c, 0, 73, 87
2, 190652, Note_on_c, 0, 73, 0
2, 190652, Note_on_c, 0, 57, 0
2, 190652, Note_on_c, 0, 81, 0
2, 190656, Note_on_c, 0, 74, 87
2, 190656, Note_on_c, 0, 66, 87
2, 190844, Note_on_c, 0, 66, 0
2, 190844, Note_on_c, 0, 74, 0
2, 190848, Note_on_c, 0, 78, 87
2, 190940, Note_on_c, 0, 78, 0
2, 190944, Note_on_c, 0, 69, 87
2, 191040, Note_on_c, 0, 69, 0
2, 191040, Note_on_c, 0, 74, 87
2, 191088, Note_on_c, 0, 74, 0
2, 191136, Note_on_c, 0, 69, 87
2, 191184, Note_on_c, 0, 69, 0
2, 191232, Note_on_c, 0, 66, 87
2, 191280, Note_on_c, 0, 66, 0
2, 191328, Note_on_c, 0, 62, 87
2, 191376, Note_on_c, 0, 62, 0
2, 191424, Note_on_c, 0, 69, 98
2, 191612, Note_on_c, 0, 69, 0
2, 191616, Note_on_c, 0, 57, 98
2, 191804, Note_on_c, 0, 57, 0
2, 192000, Note_on_c, 0, 81, 87
2, 192000, Note_on_c, 0, 57, 87
2, 192000, Note_on_c, 0, 74, 87
2, 192188, Note_on_c, 0, 74, 0
2, 192188, Note_on_c, 0, 57, 0
2, 192188, Note_on_c, 0, 81, 0
2, 192192, Note_on_c, 0, 86, 87
2, 192192, Note_on_c, 0, 74, 87
2, 192380, Note_on_c, 0, 74, 0
2, 192380, Note_on_c, 0, 86, 0
2, 192384, Note_on_c, 0, 86, 87
2, 192384, Note_on_c, 0, 74, 87
2, 192480, Note_on_c, 0, 74, 0
2, 192480, Note_on_c, 0, 86, 0
2, 192480, Note_on_c, 0, 85, 87
2, 192572, Note_on_c, 0, 85, 0
2, 192576, Note_on_c, 0, 83, 87
2, 192668, Note_on_c, 0, 83, 0
2, 192672, Note_on_c, 0, 81, 87
2, 192760, Note_on_c, 0, 81, 0
2, 192768, Note_on_c, 0, 81, 87
2, 192864, Note_on_c, 0, 81, 0
2, 192864, Note_on_c, 0, 80, 87
2, 192952, Note_on_c, 0, 80, 0
2, 192960, Note_on_c, 0, 80, 87
2, 193052, Note_on_c, 0, 80, 0
2, 193056, Note_on_c, 0, 80, 87
2, 193148, Note_on_c, 0, 80, 0
2, 193152, Note_on_c, 0, 74, 87
2, 193152, Note_on_c, 0, 80, 87
2, 193248, Note_on_c, 0, 74, 0
2, 193248, Note_on_c, 0, 76, 87
2, 193336, Note_on_c, 0, 76, 0
2, 193344, Note_on_c, 0, 80, 0
2, 193344, Note_on_c, 0, 74, 87
2, 193344, Note_on_c, 0, 80, 87
2, 193440, Note_on_c, 0, 74, 0
2, 193440, Note_on_c, 0, 76, 87
2, 193528, Note_on_c, 0, 76, 0
2, 193532, Note_on_c, 0, 80, 0
2, 193536, Note_on_c, 0, 83, 87
2, 193536, Note_on_c, 0, 73, 87
2, 193724, Note_on_c, 0, 73, 0
2, 193824, Note_on_c, 0, 83, 0
2, 193824, Note_on_c, 0, 82, 87
2, 193912, Note_on_c, 0, 82, 0
2, 193920, Note_on_c, 0, 83, 87
2, 194016, Note_on_c, 0, 83, 0
2, 194016, Note_on_c, 0, 81, 87
2, 194108, Note_on_c, 0, 81, 0
2, 194112, Note_on_c, 0, 79, 87
2, 194204, Note_on_c, 0, 79, 0
2, 194208, Note_on_c, 0, 78, 87
2, 194296, Note_on_c, 0, 78, 0
2, 194304, Note_on_c, 0, 78, 87
2, 194400, Note_on_c, 0, 78, 0
2, 194400, Note_on_c, 0, 77, 87
2, 194488, Note_on_c, 0, 77, 0
2, 194496, Note_on_c, 0, 77, 87
2, 194544, Note_on_c, 0, 77, 0
2, 194592, Note_on_c, 0, 77, 87
2, 194640, Note_on_c, 0, 77, 0
2, 194688, Note_on_c, 0, 71, 87
2, 194688, Note_on_c, 0, 77, 87
2, 194784, Note_on_c, 0, 77, 0
2, 194784, Note_on_c, 0, 71, 0
2, 194784, Note_on_c, 0, 73, 87
2, 194872, Note_on_c, 0, 73, 0
2, 194880, Note_on_c, 0, 71, 87
2, 194880, Note_on_c, 0, 77, 87
2, 194976, Note_on_c, 0, 77, 0
2, 194976, Note_on_c, 0, 71, 0
2, 194976, Note_on_c, 0, 73, 87
2, 195064, Note_on_c, 0, 73, 0
2, 195072, Note_on_c, 0, 78, 87
2, 195072, Note_on_c, 0, 69, 87
2, 195360, Note_on_c, 0, 69, 0
2, 195360, Note_on_c, 0, 78, 0
2, 195360, Note_on_c, 0, 78, 87
2, 195452, Note_on_c, 0, 78, 0
2, 195456, Note_on_c, 0, 79, 87
2, 195552, Note_on_c, 0, 79, 0
2, 195552, Note_on_c, 0, 78, 87
2, 195644, Note_on_c, 0, 78, 0
2, 195648, Note_on_c, 0, 76, 87
2, 195740, Note_on_c, 0, 76, 0
2, 195744, Note_on_c, 0, 74, 87
2, 195832, Note_on_c, 0, 74, 0
2, 195840, Note_on_c, 0, 74, 87
2, 195936, Note_on_c, 0, 74, 0
2, 195936, Note_on_c, 0, 73, 87
2, 196024, Note_on_c, 0, 73, 0
2, 196032, Note_on_c, 0, 73, 87
2, 196080, Note_on_c, 0, 73, 0
2, 196128, Note_on_c, 0, 73, 87
2, 196176, Note_on_c, 0, 73, 0
2, 196224, Note_on_c, 0, 67, 87
2, 196224, Note_on_c, 0, 73, 87
2, 196320, Note_on_c, 0, 73, 0
2, 196320, Note_on_c, 0, 67, 0
2, 196320, Note_on_c, 0, 69, 87
2, 196408, Note_on_c, 0, 69, 0
2, 196416, Note_on_c, 0, 67, 87
2, 196416, Note_on_c, 0, 73, 87
2, 196512, Note_on_c, 0, 73, 0
2, 196512, Note_on_c, 0, 67, 0
2, 196512, Note_on_c, 0, 69, 87
2, 196600, Note_on_c, 0, 69, 0
2, 196608, Note_on_c, 0, 74, 87
2, 196608, Note_on_c, 0, 66, 87
2, 196668, Note_on_c, 0, 66, 0
2, 196668, Note_on_c, 0, 74, 0
2, 196672, Note_on_c, 0, 74, 87
2, 196704, Note_on_c, 0, 74, 0
2, 196736, Note_on_c, 0, 71, 87
2, 196768, Note_on_c, 0, 71, 0
2, 196800, Note_on_c, 0, 74, 87
2, 196832, Note_on_c, 0, 74, 0
2, 196864, Note_on_c, 0, 76, 87
2, 196896, Note_on_c, 0, 76, 0
2, 196928, Note_on_c, 0, 78, 87
2, 196960, Note_on_c, 0, 78, 0
2, 196992, Note_on_c, 0, 79, 87
2, 197092, Note_on_c, 0, 79, 0
2, 197184, Note_on_c, 0, 79, 87
2, 197284, Note_on_c, 0, 79, 0
2, 197376, Note_on_c, 0, 79, 87
2, 197404, Note_on_c, 0, 79, 0
2, 197408, Note_on_c, 0, 81, 87
2, 197436, Note_on_c, 0, 81, 0
2, 197440, Note_on_c, 0, 79, 87
2, 197468, Note_on_c, 0, 79, 0
2, 197472, Note_on_c, 0, 81, 87
2, 197500, Note_on_c, 0, 81, 0
2, 197504, Note_on_c, 0, 78, 87
2, 197532, Note_on_c, 0, 78, 0
2, 197536, Note_on_c, 0, 79, 87
2, 197564, Note_on_c, 0, 79, 0
2, 197568, Note_on_c, 0, 78, 87
2, 197756, Note_on_c, 0, 78, 0
2, 197952, Note_on_c, 0, 81, 87
2, 198140, Note_on_c, 0, 81, 0
2, 198144, Note_on_c, 0, 81, 87
2, 198240, Note_on_c, 0, 81, 0
2, 198240, Note_on_c, 0, 79, 87
2, 198328, Note_on_c, 0, 79, 0
2, 198336, Note_on_c, 0, 79, 87
2, 198432, Note_on_c, 0, 79, 0
2, 198432, Note_on_c, 0, 78, 87
2, 198520, Note_on_c, 0, 78, 0
2, 198528, Note_on_c, 0, 78, 87
2, 198624, Note_on_c, 0, 78, 0
2, 198624, Note_on_c, 0, 76, 87
2, 198712, Note_on_c, 0, 76, 0
2, 198720, Note_on_c, 0, 76, 87
2, 198816, Note_on_c, 0, 76, 0
2, 198816, Note_on_c, 0, 74, 87
2, 198904, Note_on_c, 0, 74, 0
2, 198912, Note_on_c, 0, 74, 87
2, 199008, Note_on_c, 0, 74, 0
2, 199008, Note_on_c, 0, 73, 87
2, 199096, Note_on_c, 0, 73, 0
2, 199104, Note_on_c, 0, 71, 87
2, 199200, Note_on_c, 0, 71, 0
2, 199200, Note_on_c, 0, 69, 87
2, 199296, Note_on_c, 0, 69, 0
2, 199296, Note_on_c, 0, 68, 87
2, 199392, Note_on_c, 0, 68, 0
2, 199392, Note_on_c, 0, 69, 87
2, 199484, Note_on_c, 0, 69, 0
2, 199488, Note_on_c, 0, 71, 87
2, 199580, Note_on_c, 0, 71, 0
2, 199584, Note_on_c, 0, 69, 87
2, 199672, Note_on_c, 0, 69, 0
2, 199680, Note_on_c, 0, 69, 87
2, 199744, Note_on_c, 0, 69, 0
2, 199744, Note_on_c, 0, 79, 87
2, 199800, Note_on_c, 0, 79, 0
2, 199808, Note_on_c, 0, 88, 87
2, 199868, Note_on_c, 0, 88, 0
2, 199872, Note_on_c, 0, 70, 87
2, 199936, Note_on_c, 0, 70, 0
2, 199936, Note_on_c, 0, 79, 87
2, 199992, Note_on_c, 0, 79, 0
2, 200000, Note_on_c, 0, 88, 87
2, 200060, Note_on_c, 0, 88, 0
2, 200064, Note_on_c, 0, 69, 87
2, 200128, Note_on_c, 0, 69, 0
2, 200128, Note_on_c, 0, 79, 87
2, 200184, Note_on_c, 0, 79, 0
2, 200192, Note_on_c, 0, 88, 87
2, 200252, Note_on_c, 0, 88, 0
2, 200256, Note_on_c, 0, 70, 87
2, 200320, Note_on_c, 0, 70, 0
2, 200320, Note_on_c, 0, 79, 87
2, 200376, Note_on_c, 0, 79, 0
2, 200384, Note_on_c, 0, 88, 87
2, 200444, Note_on_c, 0, 88, 0
2, 200448, Note_on_c, 0, 69, 87
2, 200512, Note_on_c, 0, 69, 0
2, 200512, Note_on_c, 0, 79, 87
2, 200572, Note_on_c, 0, 79, 0
2, 200576, Note_on_c, 0, 88, 87
2, 200632, Note_on_c, 0, 88, 0
2, 200640, Note_on_c, 0, 88, 87
2, 200672, Note_on_c, 0, 88, 0
2, 200704, Note_on_c, 0, 88, 87
2, 200736, Note_on_c, 0, 88, 0
2, 200768, Note_on_c, 0, 88, 87
2, 200800, Note_on_c, 0, 88, 0
2, 200832, Note_on_c, 0, 88, 87
2, 200864, Note_on_c, 0, 88, 0
2, 200896, Note_on_c, 0, 86, 87
2, 200928, Note_on_c, 0, 86, 0
2, 200960, Note_on_c, 0, 85, 87
2, 200992, Note_on_c, 0, 85, 0
2, 201024, Note_on_c, 0, 83, 87
2, 201084, Note_on_c, 0, 83, 0
2, 201088, Note_on_c, 0, 81, 87
2, 201148, Note_on_c, 0, 81, 0
2, 201152, Note_on_c, 0, 79, 87
2, 201212, Note_on_c, 0, 79, 0
2, 201216, Note_on_c, 0, 69, 87
2, 201280, Note_on_c, 0, 69, 0
2, 201280, Note_on_c, 0, 78, 87
2, 201336, Note_on_c, 0, 78, 0
2, 201344, Note_on_c, 0, 86, 87
2, 201404, Note_on_c, 0, 86, 0
2, 201408, Note_on_c, 0, 69, 87
2, 201472, Note_on_c, 0, 69, 0
2, 201472, Note_on_c, 0, 79, 87
2, 201528, Note_on_c, 0, 79, 0
2, 201536, Note_on_c, 0, 88, 87
2, 201596, Note_on_c, 0, 88, 0
2, 201600, Note_on_c, 0, 69, 87
2, 201664, Note_on_c, 0, 69, 0
2, 201664, Note_on_c, 0, 78, 87
2, 201720, Note_on_c, 0, 78, 0
2, 201728, Note_on_c, 0, 86, 87
2, 201788, Note_on_c, 0, 86, 0
2, 201792, Note_on_c, 0, 69, 87
2, 201856, Note_on_c, 0, 69, 0
2, 201856, Note_on_c, 0, 79, 87
2, 201912, Note_on_c, 0, 79, 0
2, 201920, Note_on_c, 0, 88, 87
2, 201980, Note_on_c, 0, 88, 0
2, 201984, Note_on_c, 0, 69, 87
2, 202048, Note_on_c, 0, 69, 0
2, 202048, Note_on_c, 0, 78, 87
2, 202108, Note_on_c, 0, 78, 0
2, 202112, Note_on_c, 0, 86, 87
2, 202168, Note_on_c, 0, 86, 0
2, 202176, Note_on_c, 0, 86, 87
2, 202208, Note_on_c, 0, 86, 0
2, 202240, Note_on_c, 0, 86, 87
2, 202272, Note_on_c, 0, 86, 0
2, 202304, Note_on_c, 0, 86, 87
2, 202336, Note_on_c, 0, 86, 0
2, 202368, Note_on_c, 0, 86, 87
2, 202400, Note_on_c, 0, 86, 0
2, 202432, Note_on_c, 0, 85, 87
2, 202464, Note_on_c, 0, 85, 0
2, 202496, Note_on_c, 0, 83, 87
2, 202528, Note_on_c, 0, 83, 0
2, 202560, Note_on_c, 0, 81, 87
2, 202620, Note_on_c, 0, 81, 0
2, 202624, Note_on_c, 0, 79, 87
2, 202684, Note_on_c, 0, 79, 0
2, 202688, Note_on_c, 0, 78, 87
2, 202748, Note_on_c, 0, 78, 0
2, 202752, Note_on_c, 0, 69, 65
2, 202816, Note_on_c, 0, 69, 0
2, 202816, Note_on_c, 0, 79, 65
2, 202872, Note_on_c, 0, 79, 0
2, 202880, Note_on_c, 0, 88, 65
2, 202940, Note_on_c, 0, 88, 0
2, 202944, Note_on_c, 0, 70, 65
2, 203008, Note_on_c, 0, 70, 0
2, 203008, Note_on_c, 0, 79, 65
2, 203064, Note_on_c, 0, 79, 0
2, 203072, Note_on_c, 0, 88, 65
2, 203132, Note_on_c, 0, 88, 0
2, 203136, Note_on_c, 0, 69, 65
2, 203200, Note_on_c, 0, 69, 0
2, 203200, Note_on_c, 0, 79, 65
2, 203256, Note_on_c, 0, 79, 0
2, 203264, Note_on_c, 0, 88, 65
2, 203324, Note_on_c, 0, 88, 0
2, 203328, Note_on_c, 0, 70, 65
2, 203392, Note_on_c, 0, 70, 0
2, 203392, Note_on_c, 0, 79, 65
2, 203448, Note_on_c, 0, 79, 0
2, 203456, Note_on_c, 0, 88, 65
2, 203516, Note_on_c, 0, 88, 0
2, 203520, Note_on_c, 0, 69, 65
2, 203584, Note_on_c, 0, 69, 0
2, 203584, Note_on_c, 0, 79, 65
2, 203640, Note_on_c, 0, 79, 0
2, 203648, Note_on_c, 0, 88, 65
2, 203708, Note_on_c, 0, 88, 0
2, 203712, Note_on_c, 0, 88, 65
2, 203744, Note_on_c, 0, 88, 0
2, 203776, Note_on_c, 0, 88, 65
2, 203808, Note_on_c, 0, 88, 0
2, 203840, Note_on_c, 0, 88, 65
2, 203872, Note_on_c, 0, 88, 0
2, 203904, Note_on_c, 0, 88, 65
2, 203964, Note_on_c, 0, 88, 0
2, 203968, Note_on_c, 0, 86, 65
2, 204028, Note_on_c, 0, 86, 0
2, 204032, Note_on_c, 0, 85, 65
2, 204092, Note_on_c, 0, 85, 0
2, 204096, Note_on_c, 0, 83, 65
2, 204156, Note_on_c, 0, 83, 0
2, 204160, Note_on_c, 0, 81, 65
2, 204220, Note_on_c, 0, 81, 0
2, 204224, Note_on_c, 0, 79, 65
2, 204284, Note_on_c, 0, 79, 0
2, 204288, Note_on_c, 0, 69, 65
2, 204352, Note_on_c, 0, 69, 0
2, 204352, Note_on_c, 0, 78, 65
2, 204408, Note_on_c, 0, 78, 0
2, 204416, Note_on_c, 0, 86, 65
2, 204476, Note_on_c, 0, 86, 0
2, 204480, Note_on_c, 0, 69, 65
2, 204544, Note_on_c, 0, 69, 0
2, 204544, Note_on_c, 0, 79, 65
2, 204600, Note_on_c, 0, 79, 0
2, 204608, Note_on_c, 0, 88, 65
2, 204668, Note_on_c, 0, 88, 0
2, 204672, Note_on_c, 0, 69, 65
2, 204736, Note_on_c, 0, 69, 0
2, 204736, Note_on_c, 0, 78, 65
2, 204792, Note_on_c, 0, 78, 0
2, 204800, Note_on_c, 0, 86, 65
2, 204860, Note_on_c, 0, 86, 0
2, 204864, Note_on_c, 0, 69, 65
2, 204928, Note_on_c, 0, 69, 0
2, 204928, Note_on_c, 0, 79, 65
2, 204984, Note_on_c, 0, 79, 0
2, 204992, Note_on_c, 0, 88, 65
2, 205052, Note_on_c, 0, 88, 0
2, 205056, Note_on_c, 0, 86, 66
2, 205116, Note_on_c, 0, 86, 0
2, 205120, Note_on_c, 0, 86, 67
2, 205184, Note_on_c, 0, 86, 0
2, 205184, Note_on_c, 0, 85, 70
2, 205244, Note_on_c, 0, 85, 0
2, 205248, Note_on_c, 0, 86, 72
2, 205304, Note_on_c, 0, 86, 0
2, 205312, Note_on_c, 0, 81, 73
2, 205372, Note_on_c, 0, 81, 0
2, 205376, Note_on_c, 0, 78, 75
2, 205436, Note_on_c, 0, 78, 0
2, 205440, Note_on_c, 0, 74, 77
2, 205500, Note_on_c, 0, 74, 0
2, 205504, Note_on_c, 0, 86, 78
2, 205568, Note_on_c, 0, 86, 0
2, 205568, Note_on_c, 0, 85, 80
2, 205628, Note_on_c, 0, 85, 0
2, 205632, Note_on_c, 0, 86, 83
2, 205688, Note_on_c, 0, 86, 0
2, 205696, Note_on_c, 0, 84, 84
2, 205756, Note_on_c, 0, 84, 0
2, 205760, Note_on_c, 0, 81, 86
2, 205820, Note_on_c, 0, 81, 0
2, 205824, Note_on_c, 0, 67, 87
2, 205888, Note_on_c, 0, 67, 0
2, 205888, Note_on_c, 0, 74, 87
2, 205944, Note_on_c, 0, 74, 0
2, 205952, Note_on_c, 0, 83, 87
2, 206012, Note_on_c, 0, 83, 0
2, 206016, Note_on_c, 0, 66, 87
2, 206080, Note_on_c, 0, 66, 0
2, 206080, Note_on_c, 0, 74, 87
2, 206136, Note_on_c, 0, 74, 0
2, 206144, Note_on_c, 0, 84, 87
2, 206204, Note_on_c, 0, 84, 0
2, 206208, Note_on_c, 0, 67, 87
2, 206272, Note_on_c, 0, 67, 0
2, 206272, Note_on_c, 0, 74, 87
2, 206328, Note_on_c, 0, 74, 0
2, 206336, Note_on_c, 0, 83, 87
2, 206396, Note_on_c, 0, 83, 0
2, 206400, Note_on_c, 0, 68, 87
2, 206464, Note_on_c, 0, 68, 0
2, 206464, Note_on_c, 0, 77, 87
2, 206520, Note_on_c, 0, 77, 0
2, 206528, Note_on_c, 0, 86, 87
2, 206588, Note_on_c, 0, 86, 0
2, 206592, Note_on_c, 0, 69, 87
2, 206656, Note_on_c, 0, 69, 0
2, 206656, Note_on_c, 0, 76, 87
2, 206712, Note_on_c, 0, 76, 0
2, 206720, Note_on_c, 0, 84, 87
2, 206780, Note_on_c, 0, 84, 0
2, 206784, Note_on_c, 0, 70, 87
2, 206848, Note_on_c, 0, 70, 0
2, 206848, Note_on_c, 0, 79, 87
2, 206904, Note_on_c, 0, 79, 0
2, 206912, Note_on_c, 0, 88, 87
2, 206972, Note_on_c, 0, 88, 0
2, 206976, Note_on_c, 0, 71, 87
2, 207040, Note_on_c, 0, 71, 0
2, 207040, Note_on_c, 0, 77, 87
2, 207096, Note_on_c, 0, 77, 0
2, 207104, Note_on_c, 0, 86, 87
2, 207164, Note_on_c, 0, 86, 0
2, 207168, Note_on_c, 0, 73, 87
2, 207232, Note_on_c, 0, 73, 0
2, 207232, Note_on_c, 0, 82, 87
2, 207288, Note_on_c, 0, 82, 0
2, 207296, Note_on_c, 0, 91, 87
2, 207356, Note_on_c, 0, 91, 0
2, 207360, Note_on_c, 0, 89, 87
2, 207360, Note_on_c, 0, 82, 87
2, 207360, Note_on_c, 0, 74, 87
2, 207420, Note_on_c, 0, 74, 0
2, 207420, Note_on_c, 0, 82, 0
2, 207420, Note_on_c, 0, 89, 0
2, 207424, Note_on_c, 0, 89, 87
2, 207488, Note_on_c, 0, 89, 0
2, 207488, Note_on_c, 0, 88, 86
2, 207548, Note_on_c, 0, 88, 0
2, 207552, Note_on_c, 0, 89, 85
2, 207608, Note_on_c, 0, 89, 0
2, 207616, Note_on_c, 0, 86, 84
2, 207676, Note_on_c, 0, 86, 0
2, 207680, Note_on_c, 0, 82, 83
2, 207740, Note_on_c, 0, 82, 0
2, 207744, Note_on_c, 0, 77, 82
2, 207804, Note_on_c, 0, 77, 0
2, 207808, Note_on_c, 0, 77, 80
2, 207872, Note_on_c, 0, 77, 0
2, 207872, Note_on_c, 0, 76, 79
2, 207932, Note_on_c, 0, 76, 0
2, 207936, Note_on_c, 0, 77, 79
2, 207992, Note_on_c, 0, 77, 0
2, 208000, Note_on_c, 0, 74, 78
2, 208060, Note_on_c, 0, 74, 0
2, 208064, Note_on_c, 0, 70, 77
2, 208124, Note_on_c, 0, 70, 0
2, 208128, Note_on_c, 0, 65, 76
2, 208188, Note_on_c, 0, 65, 0
2, 208192, Note_on_c, 0, 65, 75
2, 208256, Note_on_c, 0, 65, 0
2, 208256, Note_on_c, 0, 64, 74
2, 208316, Note_on_c, 0, 64, 0
2, 208320, Note_on_c, 0, 65, 73
2, 208376, Note_on_c, 0, 65, 0
2, 208384, Note_on_c, 0, 62, 72
2, 208444, Note_on_c, 0, 62, 0
2, 208448, Note_on_c, 0, 58, 72
2, 208508, Note_on_c, 0, 58, 0
2, 208512, Note_on_c, 0, 62, 71
2, 208572, Note_on_c, 0, 62, 0
2, 208576, Note_on_c, 0, 62, 70
2, 208640, Note_on_c, 0, 62, 0
2, 208640, Note_on_c, 0, 61, 69
2, 208700, Note_on_c, 0, 61, 0
2, 208704, Note_on_c, 0, 62, 67
2, 208760, Note_on_c, 0, 62, 0
2, 208768, Note_on_c, 0, 58, 66
2, 208828, Note_on_c, 0, 58, 0
2, 208832, Note_on_c, 0, 56, 65
2, 208892, Note_on_c, 0, 56, 0
2, 208896, Note_on_c, 0, 55, 66
2, 208956, Note_on_c, 0, 55, 0
2, 208960, Note_on_c, 0, 58, 66
2, 209020, Note_on_c, 0, 58, 0
2, 209024, Note_on_c, 0, 62, 67
2, 209084, Note_on_c, 0, 62, 0
2, 209088, Note_on_c, 0, 61, 69
2, 209148, Note_on_c, 0, 61, 0
2, 209152, Note_on_c, 0, 62, 70
2, 209212, Note_on_c, 0, 62, 0
2, 209216, Note_on_c, 0, 62, 71
2, 209276, Note_on_c, 0, 62, 0
2, 209280, Note_on_c, 0, 58, 72
2, 209340, Note_on_c, 0, 58, 0
2, 209344, Note_on_c, 0, 62, 72
2, 209404, Note_on_c, 0, 62, 0
2, 209408, Note_on_c, 0, 65, 73
2, 209468, Note_on_c, 0, 65, 0
2, 209472, Note_on_c, 0, 64, 74
2, 209532, Note_on_c, 0, 64, 0
2, 209536, Note_on_c, 0, 65, 75
2, 209596, Note_on_c, 0, 65, 0
2, 209600, Note_on_c, 0, 65, 76
2, 209660, Note_on_c, 0, 65, 0
2, 209664, Note_on_c, 0, 62, 77
2, 209724, Note_on_c, 0, 62, 0
2, 209728, Note_on_c, 0, 69, 77
2, 209788, Note_on_c, 0, 69, 0
2, 209792, Note_on_c, 0, 69, 78
2, 209852, Note_on_c, 0, 69, 0
2, 209856, Note_on_c, 0, 67, 79
2, 209916, Note_on_c, 0, 67, 0
2, 209920, Note_on_c, 0, 71, 80
2, 209980, Note_on_c, 0, 71, 0
2, 209984, Note_on_c, 0, 71, 82
2, 210044, Note_on_c, 0, 71, 0
2, 210048, Note_on_c, 0, 72, 83
2, 210096, Note_on_c, 0, 72, 0
2, 210144, Note_on_c, 0, 76, 84
2, 210192, Note_on_c, 0, 76, 0
2, 210240, Note_on_c, 0, 79, 85
2, 210288, Note_on_c, 0, 79, 0
2, 210336, Note_on_c, 0, 83, 86
2, 210384, Note_on_c, 0, 83, 0
2, 210432, Note_on_c, 0, 86, 87
2, 210620, Note_on_c, 0, 86, 0
2, 210624, Note_on_c, 0, 90, 87
2, 210812, Note_on_c, 0, 90, 0
2, 210816, Note_on_c, 0, 91, 87
2, 211004, Note_on_c, 0, 91, 0
2, 211008, Note_on_c, 0, 93, 87
2, 211196, Note_on_c, 0, 93, 0
2, 211200, Note_on_c, 0, 94, 87
2, 211292, Note_on_c, 0, 94, 0
2, 211296, Note_on_c, 0, 95, 87
2, 211388, Note_on_c, 0, 95, 0
2, 211392, Note_on_c, 0, 95, 87
2, 211484, Note_on_c, 0, 95, 0
2, 211488, Note_on_c, 0, 90, 87
2, 211580, Note_on_c, 0, 90, 0
2, 211584, Note_on_c, 0, 90, 87
2, 211676, Note_on_c, 0, 90, 0
2, 211680, Note_on_c, 0, 91, 87
2, 211772, Note_on_c, 0, 91, 0
2, 211776, Note_on_c, 0, 91, 87
2, 211868, Note_on_c, 0, 91, 0
2, 211872, Note_on_c, 0, 87, 87
2, 211964, Note_on_c, 0, 87, 0
2, 211968, Note_on_c, 0, 87, 86
2, 212060, Note_on_c, 0, 87, 0
2, 212064, Note_on_c, 0, 88, 85
2, 212156, Note_on_c, 0, 88, 0
2, 212160, Note_on_c, 0, 88, 84
2, 212252, Note_on_c, 0, 88, 0
2, 212256, Note_on_c, 0, 82, 83
2, 212348, Note_on_c, 0, 82, 0
2, 212352, Note_on_c, 0, 82, 80
2, 212444, Note_on_c, 0, 82, 0
2, 212448, Note_on_c, 0, 83, 79
2, 212540, Note_on_c, 0, 83, 0
2, 212544, Note_on_c, 0, 83, 78
2, 212636, Note_on_c, 0, 83, 0
2, 212640, Note_on_c, 0, 78, 77
2, 212732, Note_on_c, 0, 78, 0
2, 212736, Note_on_c, 0, 78, 75
2, 212828, Note_on_c, 0, 78, 0
2, 212832, Note_on_c, 0, 79, 74
2, 212924, Note_on_c, 0, 79, 0
2, 212928, Note_on_c, 0, 79, 73
2, 213020, Note_on_c, 0, 79, 0
2, 213024, Note_on_c, 0, 75, 72
2, 213116, Note_on_c, 0, 75, 0
2, 213120, Note_on_c, 0, 75, 70
2, 213212, Note_on_c, 0, 75, 0
2, 213216, Note_on_c, 0, 76, 69
2, 213308, Note_on_c, 0, 76, 0
2, 213312, Note_on_c, 0, 76, 67
2, 213404, Note_on_c, 0, 76, 0
2, 213408, Note_on_c, 0, 70, 66
2, 213500, Note_on_c, 0, 70, 0
2, 213504, Note_on_c, 0, 69, 66
2, 213504, Note_on_c, 0, 64, 66
2, 213504, Note_on_c, 0, 57, 66
2, 213596, Note_on_c, 0, 57, 0
2, 213596, Note_on_c, 0, 64, 0
2, 213596, Note_on_c, 0, 69, 0
2, 213600, Note_on_c, 0, 69, 67
2, 213600, Note_on_c, 0, 64, 67
2, 213600, Note_on_c, 0, 57, 67
2, 213692, Note_on_c, 0, 57, 0
2, 213692, Note_on_c, 0, 64, 0
2, 213692, Note_on_c, 0, 69, 0
2, 213696, Note_on_c, 0, 76, 69
2, 213696, Note_on_c, 0, 73, 69
2, 213884, Note_on_c, 0, 73, 0
2, 213884, Note_on_c, 0, 76, 0
2, 213888, Note_on_c, 0, 69, 72
2, 213888, Note_on_c, 0, 64, 72
2, 213980, Note_on_c, 0, 64, 0
2, 213980, Note_on_c, 0, 69, 0
2, 213984, Note_on_c, 0, 69, 73
2, 213984, Note_on_c, 0, 64, 73
2, 214076, Note_on_c, 0, 64, 0
2, 214076, Note_on_c, 0, 69, 0
2, 214080, Note_on_c, 0, 78, 74
2, 214080, Note_on_c, 0, 75, 74
2, 214268, Note_on_c, 0, 75, 0
2, 214268, Note_on_c, 0, 78, 0
2, 214272, Note_on_c, 0, 69, 77
2, 214272, Note_on_c, 0, 66, 77
2, 214364, Note_on_c, 0, 66, 0
2, 214364, Note_on_c, 0, 69, 0
2, 214368, Note_on_c, 0, 69, 78
2, 214368, Note_on_c, 0, 66, 78
2, 214460, Note_on_c, 0, 66, 0
2, 214460, Note_on_c, 0, 69, 0
2, 214464, Note_on_c, 0, 79, 79
2, 214464, Note_on_c, 0, 76, 79
2, 214556, Note_on_c, 0, 76, 0
2, 214556, Note_on_c, 0, 79, 0
2, 214560, Note_on_c, 0, 75, 80
2, 214560, Note_on_c, 0, 78, 80
2, 214652, Note_on_c, 0, 78, 0
2, 214652, Note_on_c, 0, 75, 0
2, 214656, Note_on_c, 0, 73, 83
2, 214656, Note_on_c, 0, 76, 83
2, 215036, Note_on_c, 0, 76, 0
2, 215036, Note_on_c, 0, 73, 0
2, 215040, Note_on_c, 0, 76, 87
2, 215040, Note_on_c, 0, 69, 87
2, 215132, Note_on_c, 0, 69, 0
2, 215132, Note_on_c, 0, 76, 0
2, 215136, Note_on_c, 0, 76, 87
2, 215136, Note_on_c, 0, 69, 87
2, 215216, Note_on_c, 0, 88, 87
2, 215228, Note_on_c, 0, 69, 0
2, 215228, Note_on_c, 0, 76, 0
2, 215232, Note_on_c, 0, 76, 87
2, 215232, Note_on_c, 0, 73, 87
2, 215404, Note_on_c, 0, 88, 0
2, 215420, Note_on_c, 0, 73, 0
2, 215420, Note_on_c, 0, 76, 0
2, 215424, Note_on_c, 0, 76, 87
2, 215424, Note_on_c, 0, 69, 87
2, 215516, Note_on_c, 0, 69, 0
2, 215516, Note_on_c, 0, 76, 0
2, 215520, Note_on_c, 0, 76, 87
2, 215520, Note_on_c, 0, 69, 87
2, 215612, Note_on_c, 0, 69, 0
2, 215612, Note_on_c, 0, 76, 0
2, 215616, Note_on_c, 0, 75, 87
2, 215616, Note_on_c, 0, 78, 87
2, 215616, Note_on_c, 0, 90, 87
2, 215804, Note_on_c, 0, 90, 0
2, 215804, Note_on_c, 0, 78, 0
2, 215804, Note_on_c, 0, 75, 0
2, 215808, Note_on_c, 0, 78, 87
2, 215808, Note_on_c, 0, 71, 87
2, 215900, Note_on_c, 0, 71, 0
2, 215900, Note_on_c, 0, 78, 0
2, 215904, Note_on_c, 0, 78, 87
2, 215904, Note_on_c, 0, 71, 87
2, 215996, Note_on_c, 0, 71, 0
2, 215996, Note_on_c, 0, 78, 0
2, 216000, Note_on_c, 0, 79, 87
2, 216000, Note_on_c, 0, 76, 87
2, 216000, Note_on_c, 0, 91, 87
2, 216092, Note_on_c, 0, 91, 0
2, 216092, Note_on_c, 0, 76, 0
2, 216092, Note_on_c, 0, 79, 0
2, 216096, Note_on_c, 0, 78, 87
2, 216096, Note_on_c, 0, 75, 87
2, 216096, Note_on_c, 0, 90, 87
2, 216188, Note_on_c, 0, 90, 0
2, 216188, Note_on_c, 0, 75, 0
2, 216188, Note_on_c, 0, 78, 0
2, 216192, Note_on_c, 0, 76, 87
2, 216192, Note_on_c, 0, 73, 87
2, 216192, Note_on_c, 0, 88, 87
2, 216572, Note_on_c, 0, 88, 0
2, 216572, Note_on_c, 0, 73, 0
2, 216572, Note_on_c, 0, 76, 0
2, 216576, Note_on_c, 0, 57, 66
2, 216576, Note_on_c, 0, 69, 66
2, 216620, Note_on_c, 0, 69, 0
2, 216620, Note_on_c, 0, 57, 0
2, 216624, Note_on_c, 0, 61, 66
2, 216668, Note_on_c, 0, 61, 0
2, 216672, Note_on_c, 0, 64, 67
2, 216716, Note_on_c, 0, 64, 0
2, 216720, Note_on_c, 0, 62, 67
2, 216764, Note_on_c, 0, 62, 0
2, 216768, Note_on_c, 0, 61, 69
2, 216812, Note_on_c, 0, 61, 0
2, 216816, Note_on_c, 0, 64, 70
2, 216860, Note_on_c, 0, 64, 0
2, 216864, Note_on_c, 0, 67, 70
2, 216908, Note_on_c, 0, 67, 0
2, 216912, Note_on_c, 0, 66, 71
2, 216956, Note_on_c, 0, 66, 0
2, 216960, Note_on_c, 0, 64, 72
2, 217004, Note_on_c, 0, 64, 0
2, 217008, Note_on_c, 0, 69, 72
2, 217052, Note_on_c, 0, 69, 0
2, 217056, Note_on_c, 0, 73, 73
2, 217100, Note_on_c, 0, 73, 0
2, 217104, Note_on_c, 0, 71, 73
2, 217148, Note_on_c, 0, 71, 0
2, 217152, Note_on_c, 0, 69, 74
2, 217196, Note_on_c, 0, 69, 0
2, 217200, Note_on_c, 0, 73, 75
2, 217244, Note_on_c, 0, 73, 0
2, 217248, Note_on_c, 0, 76, 75
2, 217292, Note_on_c, 0, 76, 0
2, 217296, Note_on_c, 0, 74, 76
2, 217340, Note_on_c, 0, 74, 0
2, 217344, Note_on_c, 0, 73, 77
2, 217388, Note_on_c, 0, 73, 0
2, 217392, Note_on_c, 0, 76, 77
2, 217436, Note_on_c, 0, 76, 0
2, 217440, Note_on_c, 0, 79, 78
2, 217484, Note_on_c, 0, 79, 0
2, 217488, Note_on_c, 0, 78, 78
2, 217532, Note_on_c, 0, 78, 0
2, 217536, Note_on_c, 0, 76, 79
2, 217580, Note_on_c, 0, 76, 0
2, 217584, Note_on_c, 0, 81, 80
2, 217628, Note_on_c, 0, 81, 0
2, 217632, Note_on_c, 0, 85, 80
2, 217676, Note_on_c, 0, 85, 0
2, 217680, Note_on_c, 0, 83, 82
2, 217724, Note_on_c, 0, 83, 0
2, 217728, Note_on_c, 0, 81, 83
2, 217772, Note_on_c, 0, 81, 0
2, 217776, Note_on_c, 0, 85, 83
2, 217820, Note_on_c, 0, 85, 0
2, 217824, Note_on_c, 0, 88, 84
2, 217868, Note_on_c, 0, 88, 0
2, 217872, Note_on_c, 0, 86, 84
2, 217916, Note_on_c, 0, 86, 0
2, 217920, Note_on_c, 0, 85, 85
2, 217964, Note_on_c, 0, 85, 0
2, 217968, Note_on_c, 0, 88, 86
2, 218012, Note_on_c, 0, 88, 0
2, 218016, Note_on_c, 0, 91, 86
2, 218060, Note_on_c, 0, 91, 0
2, 218064, Note_on_c, 0, 90, 87
2, 218108, Note_on_c, 0, 90, 0
2, 218112, Note_on_c, 0, 88, 87
2, 218156, Note_on_c, 0, 88, 0
2, 218160, Note_on_c, 0, 91, 87
2, 218204, Note_on_c, 0, 91, 0
2, 218208, Note_on_c, 0, 95, 87
2, 218252, Note_on_c, 0, 95, 0
2, 218256, Note_on_c, 0, 93, 87
2, 218300, Note_on_c, 0, 93, 0
2, 218304, Note_on_c, 0, 91, 87
2, 218348, Note_on_c, 0, 91, 0
2, 218352, Note_on_c, 0, 90, 87
2, 218396, Note_on_c, 0, 90, 0
2, 218400, Note_on_c, 0, 88, 87
2, 218444, Note_on_c, 0, 88, 0
2, 218448, Note_on_c, 0, 86, 87
2, 218492, Note_on_c, 0, 86, 0
2, 218496, Note_on_c, 0, 85, 87
2, 218540, Note_on_c, 0, 85, 0
2, 218544, Note_on_c, 0, 88, 87
2, 218588, Note_on_c, 0, 88, 0
2, 218592, Note_on_c, 0, 91, 87
2, 218636, Note_on_c, 0, 91, 0
2, 218640, Note_on_c, 0, 90, 87
2, 218684, Note_on_c, 0, 90, 0
2, 218688, Note_on_c, 0, 88, 87
2, 218732, Note_on_c, 0, 88, 0
2, 218736, Note_on_c, 0, 86, 87
2, 218780, Note_on_c, 0, 86, 0
2, 218784, Note_on_c, 0, 85, 87
2, 218828, Note_on_c, 0, 85, 0
2, 218832, Note_on_c, 0, 83, 87
2, 218876, Note_on_c, 0, 83, 0
2, 218880, Note_on_c, 0, 81, 87
2, 218924, Note_on_c, 0, 81, 0
2, 218928, Note_on_c, 0, 82, 87
2, 218972, Note_on_c, 0, 82, 0
2, 218976, Note_on_c, 0, 83, 87
2, 219020, Note_on_c, 0, 83, 0
2, 219024, Note_on_c, 0, 84, 87
2, 219068, Note_on_c, 0, 84, 0
2, 219072, Note_on_c, 0, 85, 87
2, 219116, Note_on_c, 0, 85, 0
2, 219120, Note_on_c, 0, 86, 87
2, 219164, Note_on_c, 0, 86, 0
2, 219168, Note_on_c, 0, 87, 87
2, 219212, Note_on_c, 0, 87, 0
2, 219216, Note_on_c, 0, 88, 87
2, 219260, Note_on_c, 0, 88, 0
2, 219260, Control_c, 0, 1, 35
2, 219264, Note_on_c, 0, 79, 87
2, 219264, Note_on_c, 0, 88, 87
2, 219284, Note_on_c, 0, 88, 0
2, 219288, Note_on_c, 0, 90, 87
2, 219308, Note_on_c, 0, 90, 0
2, 219312, Note_on_c, 0, 88, 87
2, 219332, Note_on_c, 0, 88, 0
2, 219336, Note_on_c, 0, 90, 87
2, 219356, Note_on_c, 0, 90, 0
2, 219360, Note_on_c, 0, 88, 87
2, 219380, Note_on_c, 0, 88, 0
2, 219384, Note_on_c, 0, 90, 87
2, 219404, Note_on_c, 0, 90, 0
2, 219408, Note_on_c, 0, 88, 87
2, 219428, Note_on_c, 0, 88, 0
2, 219432, Note_on_c, 0, 90, 87
2, 219452, Note_on_c, 0, 90, 0
2, 219456, Note_on_c, 0, 88, 87
2, 219476, Note_on_c, 0, 88, 0
2, 219480, Note_on_c, 0, 90, 87
2, 219500, Note_on_c, 0, 90, 0
2, 219504, Note_on_c, 0, 88, 87
2, 219524, Note_on_c, 0, 88, 0
2, 219528, Note_on_c, 0, 90, 87
2, 219548, Note_on_c, 0, 90, 0
2, 219552, Note_on_c, 0, 88, 87
2, 219572, Note_on_c, 0, 88, 0
2, 219576, Note_on_c, 0, 90, 87
2, 219596, Note_on_c, 0, 90, 0
2, 219600, Note_on_c, 0, 88, 87
2, 219620, Note_on_c, 0, 88, 0
2, 219624, Note_on_c, 0, 90, 87
2, 219644, Note_on_c, 0, 90, 0
2, 219648, Note_on_c, 0, 88, 87
2, 219668, Note_on_c, 0, 88, 0
2, 219672, Note_on_c, 0, 90, 87
2, 219692, Note_on_c, 0, 90, 0
2, 219696, Note_on_c, 0, 88, 87
2, 219716, Note_on_c, 0, 88, 0
2, 219720, Note_on_c, 0, 90, 87
2, 219740, Note_on_c, 0, 90, 0
2, 219744, Note_on_c, 0, 88, 87
2, 219764, Note_on_c, 0, 88, 0
2, 219768, Note_on_c, 0, 90, 87
2, 219788, Note_on_c, 0, 90, 0
2, 219792, Note_on_c, 0, 88, 87
2, 219812, Note_on_c, 0, 88, 0
2, 219816, Note_on_c, 0, 90, 87
2, 219836, Note_on_c, 0, 90, 0
2, 219840, Note_on_c, 0, 88, 87
2, 219860, Note_on_c, 0, 88, 0
2, 219864, Note_on_c, 0, 90, 87
2, 219884, Note_on_c, 0, 90, 0
2, 219888, Note_on_c, 0, 88, 87
2, 219908, Note_on_c, 0, 88, 0
2, 219912, Note_on_c, 0, 90, 87
2, 219932, Note_on_c, 0, 90, 0
2, 219936, Note_on_c, 0, 88, 87
2, 219956, Note_on_c, 0, 88, 0
2, 219960, Note_on_c, 0, 90, 87
2, 219980, Note_on_c, 0, 90, 0
2, 219984, Note_on_c, 0, 88, 87
2, 220004, Note_on_c, 0, 88, 0
2, 220008, Note_on_c, 0, 90, 87
2, 220028, Note_on_c, 0, 90, 0
2, 220032, Note_on_c, 0, 88, 87
2, 220052, Note_on_c, 0, 88, 0
2, 220056, Note_on_c, 0, 90, 87
2, 220076, Note_on_c, 0, 90, 0
2, 220080, Note_on_c, 0, 88, 87
2, 220100, Note_on_c, 0, 88, 0
2, 220104, Note_on_c, 0, 90, 87
2, 220124, Note_on_c, 0, 90, 0
2, 220128, Note_on_c, 0, 88, 87
2, 220148, Note_on_c, 0, 88, 0
2, 220152, Note_on_c, 0, 90, 87
2, 220172, Note_on_c, 0, 90, 0
2, 220176, Note_on_c, 0, 88, 87
2, 220196, Note_on_c, 0, 88, 0
2, 220200, Note_on_c, 0, 90, 87
2, 220220, Note_on_c, 0, 90, 0
2, 220224, Note_on_c, 0, 88, 87
2, 220244, Note_on_c, 0, 88, 0
2, 220248, Note_on_c, 0, 90, 87
2, 220268, Note_on_c, 0, 90, 0
2, 220272, Note_on_c, 0, 88, 87
2, 220292, Note_on_c, 0, 88, 0
2, 220296, Note_on_c, 0, 90, 87
2, 220316, Note_on_c, 0, 90, 0
2, 220320, Note_on_c, 0, 88, 87
2, 220340, Note_on_c, 0, 88, 0
2, 220344, Note_on_c, 0, 90, 87
2, 220364, Note_on_c, 0, 90, 0
2, 220368, Note_on_c, 0, 88, 87
2, 220388, Note_on_c, 0, 88, 0
2, 220392, Note_on_c, 0, 90, 87
2, 220412, Note_on_c, 0, 90, 0
2, 220416, Note_on_c, 0, 88, 87
2, 220436, Note_on_c, 0, 88, 0
2, 220440, Note_on_c, 0, 90, 87
2, 220460, Note_on_c, 0, 90, 0
2, 220464, Note_on_c, 0, 88, 87
2, 220484, Note_on_c, 0, 88, 0
2, 220488, Note_on_c, 0, 90, 87
2, 220508, Note_on_c, 0, 90, 0
2, 220512, Note_on_c, 0, 88, 87
2, 220532, Note_on_c, 0, 88, 0
2, 220536, Note_on_c, 0, 90, 87
2, 220556, Note_on_c, 0, 90, 0
2, 220560, Note_on_c, 0, 88, 87
2, 220580, Note_on_c, 0, 88, 0
2, 220584, Note_on_c, 0, 90, 87
2, 220604, Note_on_c, 0, 90, 0
2, 220608, Note_on_c, 0, 88, 87
2, 220628, Note_on_c, 0, 88, 0
2, 220632, Note_on_c, 0, 90, 87
2, 220652, Note_on_c, 0, 90, 0
2, 220656, Note_on_c, 0, 88, 87
2, 220676, Note_on_c, 0, 88, 0
2, 220680, Note_on_c, 0, 90, 87
2, 220700, Note_on_c, 0, 90, 0
2, 220704, Note_on_c, 0, 88, 87
2, 220724, Note_on_c, 0, 88, 0
2, 220728, Note_on_c, 0, 90, 87
2, 220748, Note_on_c, 0, 90, 0
2, 220752, Note_on_c, 0, 88, 87
2, 220772, Note_on_c, 0, 88, 0
2, 220776, Note_on_c, 0, 90, 87
2, 220796, Note_on_c, 0, 90, 0
2, 220800, Note_on_c, 0, 88, 87
2, 220820, Note_on_c, 0, 88, 0
2, 220824, Note_on_c, 0, 90, 87
2, 220844, Note_on_c, 0, 90, 0
2, 220848, Note_on_c, 0, 88, 87
2, 220868, Note_on_c, 0, 88, 0
2, 220872, Note_on_c, 0, 90, 87
2, 220892, Note_on_c, 0, 90, 0
2, 220896, Note_on_c, 0, 88, 87
2, 220916, Note_on_c, 0, 88, 0
2, 220920, Note_on_c, 0, 90, 87
2, 220940, Note_on_c, 0, 90, 0
2, 220944, Note_on_c, 0, 88, 87
2, 220964, Note_on_c, 0, 88, 0
2, 220968, Note_on_c, 0, 90, 87
2, 220988, Note_on_c, 0, 90, 0
2, 220992, Note_on_c, 0, 86, 87
2, 221084, Note_on_c, 0, 86, 0
2, 221084, Note_on_c, 0, 79, 0
2, 221088, Note_on_c, 0, 88, 87
2, 221180, Note_on_c, 0, 88, 0
2, 221184, Note_on_c, 0, 86, 87
2, 221184, Note_on_c, 0, 78, 87
2, 221564, Note_on_c, 0, 78, 0
2, 221564, Note_on_c, 0, 86, 0
2, 221564, End_track
3, 0, Start_track
3, 0, MIDI_port, 0
3, 0, Title_t, "Concerto  #2"
3, 0, Control_c, 1, 0, 0
3, 0, Control_c, 1, 32, 0
3, 0, Program_c, 1, 48
3, 0, Control_c, 1, 7, 127
3, 0, Control_c, 1, 10, 46
3, 0, Control_c, 1, 91, 67
3, 0, Control_c, 1, 93, 2
3, 0, Control_c, 1, 121, 0
3, 192, Control_c, 1, 10, 53
3, 384, Control_c, 1, 91, 73
3, 576, Program_c, 1, 48
3, 1536, Note_on_c, 1, 74, 92
3, 1916, Note_on_c, 1, 74, 0
3, 1920, Note_on_c, 1, 69, 92
3, 2208, Note_on_c, 1, 69, 0
3, 2208, Note_on_c, 1, 69, 92
3, 2256, Note_on_c, 1, 69, 0
3, 2304, Note_on_c, 1, 66, 92
3, 2404, Note_on_c, 1, 66, 0
3, 2496, Note_on_c, 1, 62, 92
3, 2596, Note_on_c, 1, 62, 0
3, 2880, Note_on_c, 1, 62, 70
3, 2940, Note_on_c, 1, 62, 0
3, 2944, Note_on_c, 1, 64, 70
3, 3004, Note_on_c, 1, 64, 0
3, 3008, Note_on_c, 1, 62, 70
3, 3068, Note_on_c, 1, 62, 0
3, 3072, Note_on_c, 1, 67, 70
3, 3172, Note_on_c, 1, 67, 0
3, 3648, Note_on_c, 1, 62, 70
3, 3708, Note_on_c, 1, 62, 0
3, 3712, Note_on_c, 1, 64, 70
3, 3772, Note_on_c, 1, 64, 0
3, 3776, Note_on_c, 1, 62, 70
3, 3836, Note_on_c, 1, 62, 0
3, 3840, Note_on_c, 1, 71, 70
3, 3940, Note_on_c, 1, 71, 0
3, 4416, Note_on_c, 1, 74, 92
3, 4476, Note_on_c, 1, 74, 0
3, 4480, Note_on_c, 1, 73, 92
3, 4540, Note_on_c, 1, 73, 0
3, 4544, Note_on_c, 1, 71, 92
3, 4604, Note_on_c, 1, 71, 0
3, 4608, Note_on_c, 1, 69, 92
3, 4640, Note_on_c, 1, 69, 0
3, 4672, Note_on_c, 1, 74, 92
3, 4732, Note_on_c, 1, 74, 0
3, 4736, Note_on_c, 1, 73, 92
3, 4796, Note_on_c, 1, 73, 0
3, 4800, Note_on_c, 1, 74, 92
3, 4860, Note_on_c, 1, 74, 0
3, 4864, Note_on_c, 1, 76, 92
3, 4864, Note_on_c, 1, 73, 92
3, 4896, Note_on_c, 1, 73, 0
3, 4896, Note_on_c, 1, 76, 0
3, 4928, Note_on_c, 1, 78, 92
3, 4928, Note_on_c, 1, 74, 92
3, 4960, Note_on_c, 1, 74, 0
3, 4960, Note_on_c, 1, 78, 0
3, 4992, Note_on_c, 1, 79, 92
3, 4992, Note_on_c, 1, 76, 92
3, 5092, Note_on_c, 1, 76, 0
3, 5092, Note_on_c, 1, 79, 0
3, 5184, Note_on_c, 1, 79, 92
3, 5184, Note_on_c, 1, 76, 92
3, 5284, Note_on_c, 1, 76, 0
3, 5284, Note_on_c, 1, 79, 0
3, 5376, Note_on_c, 1, 76, 92
3, 5376, Note_on_c, 1, 79, 98
3, 5404, Note_on_c, 1, 79, 0
3, 5408, Note_on_c, 1, 81, 98
3, 5436, Note_on_c, 1, 81, 0
3, 5440, Note_on_c, 1, 79, 98
3, 5468, Note_on_c, 1, 79, 0
3, 5472, Note_on_c, 1, 81, 98
3, 5500, Note_on_c, 1, 81, 0
3, 5504, Note_on_c, 1, 79, 98
3, 5532, Note_on_c, 1, 79, 0
3, 5536, Note_on_c, 1, 81, 98
3, 5564, Note_on_c, 1, 81, 0
3, 5564, Note_on_c, 1, 76, 0
3, 5568, Note_on_c, 1, 78, 92
3, 5568, Note_on_c, 1, 74, 92
3, 5756, Note_on_c, 1, 74, 0
3, 5756, Note_on_c, 1, 78, 0
3, 5952, Note_on_c, 1, 62, 70
3, 6012, Note_on_c, 1, 62, 0
3, 6016, Note_on_c, 1, 64, 70
3, 6076, Note_on_c, 1, 64, 0
3, 6080, Note_on_c, 1, 62, 70
3, 6140, Note_on_c, 1, 62, 0
3, 6144, Note_on_c, 1, 67, 70
3, 6244, Note_on_c, 1, 67, 0
3, 6336, Note_on_c, 1, 62, 70
3, 6396, Note_on_c, 1, 62, 0
3, 6400, Note_on_c, 1, 64, 70
3, 6460, Note_on_c, 1, 64, 0
3, 6464, Note_on_c, 1, 62, 70
3, 6524, Note_on_c, 1, 62, 0
3, 6528, Note_on_c, 1, 67, 70
3, 6628, Note_on_c, 1, 67, 0
3, 6720, Note_on_c, 1, 62, 70
3, 6780, Note_on_c, 1, 62, 0
3, 6784, Note_on_c, 1, 64, 70
3, 6844, Note_on_c, 1, 64, 0
3, 6848, Note_on_c, 1, 62, 70
3, 6908, Note_on_c, 1, 62, 0
3, 6912, Note_on_c, 1, 71, 70
3, 7012, Note_on_c, 1, 71, 0
3, 7104, Note_on_c, 1, 62, 70
3, 7164, Note_on_c, 1, 62, 0
3, 7168, Note_on_c, 1, 64, 70
3, 7228, Note_on_c, 1, 64, 0
3, 7232, Note_on_c, 1, 62, 70
3, 7292, Note_on_c, 1, 62, 0
3, 7296, Note_on_c, 1, 71, 70
3, 7396, Note_on_c, 1, 71, 0
3, 7488, Note_on_c, 1, 74, 92
3, 7548, Note_on_c, 1, 74, 0
3, 7552, Note_on_c, 1, 73, 92
3, 7612, Note_on_c, 1, 73, 0
3, 7616, Note_on_c, 1, 71, 92
3, 7676, Note_on_c, 1, 71, 0
3, 7680, Note_on_c, 1, 69, 92
3, 7712, Note_on_c, 1, 69, 0
3, 7744, Note_on_c, 1, 74, 92
3, 7804, Note_on_c, 1, 74, 0
3, 7808, Note_on_c, 1, 73, 92
3, 7868, Note_on_c, 1, 73, 0
3, 7872, Note_on_c, 1, 74, 92
3, 7932, Note_on_c, 1, 74, 0
3, 7936, Note_on_c, 1, 76, 92
3, 7936, Note_on_c, 1, 73, 92
3, 7968, Note_on_c, 1, 73, 0
3, 7968, Note_on_c, 1, 76, 0
3, 8000, Note_on_c, 1, 78, 92
3, 8000, Note_on_c, 1, 74, 92
3, 8032, Note_on_c, 1, 74, 0
3, 8032, Note_on_c, 1, 78, 0
3, 8064, Note_on_c, 1, 79, 92
3, 8064, Note_on_c, 1, 76, 92
3, 8164, Note_on_c, 1, 76, 0
3, 8164, Note_on_c, 1, 79, 0
3, 8256, Note_on_c, 1, 78, 92
3, 8256, Note_on_c, 1, 74, 92
3, 8356, Note_on_c, 1, 74, 0
3, 8356, Note_on_c, 1, 78, 0
3, 8448, Note_on_c, 1, 74, 92
3, 8448, Note_on_c, 1, 78, 98
3, 8476, Note_on_c, 1, 78, 0
3, 8480, Note_on_c, 1, 79, 98
3, 8508, Note_on_c, 1, 79, 0
3, 8512, Note_on_c, 1, 78, 98
3, 8540, Note_on_c, 1, 78, 0
3, 8544, Note_on_c, 1, 79, 98
3, 8572, Note_on_c, 1, 79, 0
3, 8576, Note_on_c, 1, 78, 98
3, 8604, Note_on_c, 1, 78, 0
3, 8608, Note_on_c, 1, 79, 98
3, 8636, Note_on_c, 1, 79, 0
3, 8636, Note_on_c, 1, 74, 0
3, 8640, Note_on_c, 1, 73, 92
3, 8640, Note_on_c, 1, 76, 92
3, 8784, Note_on_c, 1, 76, 0
3, 8784, Note_on_c, 1, 73, 0
3, 8784, Note_on_c, 1, 81, 98
3, 8828, Note_on_c, 1, 81, 0
3, 8832, Note_on_c, 1, 69, 92
3, 8932, Note_on_c, 1, 69, 0
3, 9024, Note_on_c, 1, 69, 92
3, 9124, Note_on_c, 1, 69, 0
3, 9216, Note_on_c, 1, 74, 92
3, 9404, Note_on_c, 1, 74, 0
3, 9408, Note_on_c, 1, 78, 92
3, 9500, Note_on_c, 1, 78, 0
3, 9504, Note_on_c, 1, 69, 92
3, 9552, Note_on_c, 1, 69, 0
3, 9600, Note_on_c, 1, 74, 92
3, 9648, Note_on_c, 1, 74, 0
3, 9696, Note_on_c, 1, 69, 92
3, 9744, Note_on_c, 1, 69, 0
3, 9792, Note_on_c, 1, 66, 92
3, 9840, Note_on_c, 1, 66, 0
3, 9888, Note_on_c, 1, 62, 92
3, 9936, Note_on_c, 1, 62, 0
3, 9984, Note_on_c, 1, 69, 92
3, 10084, Note_on_c, 1, 69, 0
3, 10176, Note_on_c, 1, 57, 92
3, 10276, Note_on_c, 1, 57, 0
3, 10560, Note_on_c, 1, 57, 70
3, 10660, Note_on_c, 1, 57, 0
3, 10752, Note_on_c, 1, 57, 70
3, 10844, Note_on_c, 1, 57, 0
3, 10848, Note_on_c, 1, 66, 70
3, 11036, Note_on_c, 1, 66, 0
3, 11040, Note_on_c, 1, 57, 70
3, 11132, Note_on_c, 1, 57, 0
3, 11136, Note_on_c, 1, 57, 70
3, 11220, Note_on_c, 1, 57, 0
3, 11232, Note_on_c, 1, 67, 70
3, 11328, Note_on_c, 1, 61, 70
3, 11420, Note_on_c, 1, 67, 0
3, 11424, Note_on_c, 1, 57, 70
3, 11516, Note_on_c, 1, 57, 0
3, 11516, Note_on_c, 1, 61, 0
3, 11520, Note_on_c, 1, 57, 70
3, 11520, Note_on_c, 1, 62, 70
3, 11612, Note_on_c, 1, 57, 0
3, 11616, Note_on_c, 1, 69, 70
3, 11700, Note_on_c, 1, 69, 0
3, 11712, Note_on_c, 1, 69, 70
3, 11804, Note_on_c, 1, 62, 0
3, 11808, Note_on_c, 1, 64, 70
3, 11808, Note_on_c, 1, 62, 70
3, 11900, Note_on_c, 1, 62, 0
3, 11900, Note_on_c, 1, 64, 0
3, 11900, Note_on_c, 1, 69, 0
3, 11904, Note_on_c, 1, 66, 70
3, 11904, Note_on_c, 1, 62, 70
3, 12004, Note_on_c, 1, 62, 0
3, 12004, Note_on_c, 1, 66, 0
3, 12096, Note_on_c, 1, 57, 70
3, 12196, Note_on_c, 1, 57, 0
3, 12288, Note_on_c, 1, 57, 70
3, 12380, Note_on_c, 1, 57, 0
3, 12384, Note_on_c, 1, 64, 70
3, 12572, Note_on_c, 1, 64, 0
3, 12576, Note_on_c, 1, 57, 70
3, 12668, Note_on_c, 1, 57, 0
3, 12672, Note_on_c, 1, 57, 70
3, 12764, Note_on_c, 1, 57, 0
3, 12768, Note_on_c, 1, 66, 70
3, 12864, Note_on_c, 1, 62, 70
3, 12956, Note_on_c, 1, 66, 0
3, 12960, Note_on_c, 1, 57, 70
3, 13052, Note_on_c, 1, 57, 0
3, 13052, Note_on_c, 1, 62, 0
3, 13056, Note_on_c, 1, 57, 70
3, 13056, Note_on_c, 1, 61, 70
3, 13148, Note_on_c, 1, 57, 0
3, 13152, Note_on_c, 1, 67, 70
3, 13236, Note_on_c, 1, 67, 0
3, 13248, Note_on_c, 1, 67, 70
3, 13340, Note_on_c, 1, 61, 0
3, 13344, Note_on_c, 1, 62, 70
3, 13436, Note_on_c, 1, 62, 0
3, 13436, Note_on_c, 1, 67, 0
3, 13440, Note_on_c, 1, 64, 70
3, 13532, Note_on_c, 1, 64, 0
3, 13536, Note_on_c, 1, 57, 70
3, 13628, Note_on_c, 1, 57, 0
3, 13632, Note_on_c, 1, 64, 70
3, 13632, Note_on_c, 1, 67, 70
3, 13724, Note_on_c, 1, 64, 0
3, 13728, Note_on_c, 1, 61, 70
3, 13820, Note_on_c, 1, 61, 0
3, 13820, Note_on_c, 1, 67, 0
3, 13824, Note_on_c, 1, 66, 76
3, 13824, Note_on_c, 1, 62, 76
3, 13916, Note_on_c, 1, 62, 0
3, 14204, Note_on_c, 1, 66, 0
3, 14208, Note_on_c, 1, 67, 81
3, 14236, Note_on_c, 1, 67, 0
3, 14240, Note_on_c, 1, 69, 81
3, 14268, Note_on_c, 1, 69, 0
3, 14272, Note_on_c, 1, 67, 81
3, 14300, Note_on_c, 1, 67, 0
3, 14304, Note_on_c, 1, 69, 81
3, 14332, Note_on_c, 1, 69, 0
3, 14336, Note_on_c, 1, 67, 81
3, 14364, Note_on_c, 1, 67, 0
3, 14368, Note_on_c, 1, 69, 81
3, 14396, Note_on_c, 1, 69, 0
3, 14400, Note_on_c, 1, 67, 81
3, 14428, Note_on_c, 1, 67, 0
3, 14432, Note_on_c, 1, 69, 81
3, 14460, Note_on_c, 1, 69, 0
3, 14464, Note_on_c, 1, 67, 81
3, 14492, Note_on_c, 1, 67, 0
3, 14496, Note_on_c, 1, 69, 81
3, 14524, Note_on_c, 1, 69, 0
3, 14528, Note_on_c, 1, 66, 81
3, 14556, Note_on_c, 1, 66, 0
3, 14560, Note_on_c, 1, 69, 81
3, 14588, Note_on_c, 1, 69, 0
3, 14592, Note_on_c, 1, 69, 76
3, 14592, Note_on_c, 1, 62, 76
3, 14652, Note_on_c, 1, 62, 0
3, 14652, Note_on_c, 1, 69, 0
3, 14656, Note_on_c, 1, 74, 85
3, 14688, Note_on_c, 1, 74, 0
3, 14720, Note_on_c, 1, 73, 85
3, 14752, Note_on_c, 1, 73, 0
3, 14784, Note_on_c, 1, 74, 85
3, 14816, Note_on_c, 1, 74, 0
3, 14848, Note_on_c, 1, 69, 88
3, 14880, Note_on_c, 1, 69, 0
3, 14912, Note_on_c, 1, 66, 90
3, 14944, Note_on_c, 1, 66, 0
3, 15040, Note_on_c, 1, 86, 92
3, 15072, Note_on_c, 1, 86, 0
3, 15104, Note_on_c, 1, 85, 90
3, 15136, Note_on_c, 1, 85, 0
3, 15168, Note_on_c, 1, 86, 92
3, 15200, Note_on_c, 1, 86, 0
3, 15232, Note_on_c, 1, 83, 89
3, 15264, Note_on_c, 1, 83, 0
3, 15296, Note_on_c, 1, 79, 85
3, 15328, Note_on_c, 1, 79, 0
3, 15360, Note_on_c, 1, 78, 76
3, 15740, Note_on_c, 1, 78, 0
3, 15744, Note_on_c, 1, 79, 87
3, 15772, Note_on_c, 1, 79, 0
3, 15776, Note_on_c, 1, 81, 87
3, 15804, Note_on_c, 1, 81, 0
3, 15808, Note_on_c, 1, 79, 87
3, 15836, Note_on_c, 1, 79, 0
3, 15840, Note_on_c, 1, 81, 87
3, 15868, Note_on_c, 1, 81, 0
3, 15872, Note_on_c, 1, 79, 87
3, 15900, Note_on_c, 1, 79, 0
3, 15904, Note_on_c, 1, 81, 89
3, 15932, Note_on_c, 1, 81, 0
3, 15936, Note_on_c, 1, 79, 87
3, 15964, Note_on_c, 1, 79, 0
3, 15968, Note_on_c, 1, 81, 89
3, 15996, Note_on_c, 1, 81, 0
3, 16000, Note_on_c, 1, 79, 87
3, 16028, Note_on_c, 1, 79, 0
3, 16032, Note_on_c, 1, 81, 89
3, 16060, Note_on_c, 1, 81, 0
3, 16064, Note_on_c, 1, 78, 87
3, 16092, Note_on_c, 1, 78, 0
3, 16096, Note_on_c, 1, 79, 87
3, 16124, Note_on_c, 1, 79, 0
3, 16128, Note_on_c, 1, 81, 89
3, 16160, Note_on_c, 1, 81, 0
3, 16192, Note_on_c, 1, 86, 92
3, 16224, Note_on_c, 1, 86, 0
3, 16256, Note_on_c, 1, 85, 92
3, 16288, Note_on_c, 1, 85, 0
3, 16320, Note_on_c, 1, 86, 92
3, 16352, Note_on_c, 1, 86, 0
3, 16384, Note_on_c, 1, 81, 87
3, 16416, Note_on_c, 1, 81, 0
3, 16448, Note_on_c, 1, 78, 81
3, 16480, Note_on_c, 1, 78, 0
3, 16512, Note_on_c, 1, 74, 80
3, 16544, Note_on_c, 1, 74, 0
3, 16576, Note_on_c, 1, 74, 79
3, 16608, Note_on_c, 1, 74, 0
3, 16640, Note_on_c, 1, 73, 78
3, 16672, Note_on_c, 1, 73, 0
3, 16704, Note_on_c, 1, 74, 78
3, 16736, Note_on_c, 1, 74, 0
3, 16768, Note_on_c, 1, 71, 78
3, 16800, Note_on_c, 1, 71, 0
3, 16832, Note_on_c, 1, 67, 76
3, 16864, Note_on_c, 1, 67, 0
3, 16896, Note_on_c, 1, 66, 76
3, 17276, Note_on_c, 1, 66, 0
3, 17280, Note_on_c, 1, 67, 81
3, 17308, Note_on_c, 1, 67, 0
3, 17312, Note_on_c, 1, 69, 81
3, 17340, Note_on_c, 1, 69, 0
3, 17344, Note_on_c, 1, 67, 81
3, 17372, Note_on_c, 1, 67, 0
3, 17376, Note_on_c, 1, 69, 81
3, 17404, Note_on_c, 1, 69, 0
3, 17408, Note_on_c, 1, 67, 81
3, 17436, Note_on_c, 1, 67, 0
3, 17440, Note_on_c, 1, 69, 81
3, 17468, Note_on_c, 1, 69, 0
3, 17472, Note_on_c, 1, 67, 81
3, 17500, Note_on_c, 1, 67, 0
3, 17504, Note_on_c, 1, 69, 81
3, 17532, Note_on_c, 1, 69, 0
3, 17536, Note_on_c, 1, 67, 81
3, 17564, Note_on_c, 1, 67, 0
3, 17568, Note_on_c, 1, 69, 81
3, 17596, Note_on_c, 1, 69, 0
3, 17600, Note_on_c, 1, 66, 81
3, 17628, Note_on_c, 1, 66, 0
3, 17632, Note_on_c, 1, 67, 81
3, 17660, Note_on_c, 1, 67, 0
3, 17664, Note_on_c, 1, 69, 76
3, 17664, Note_on_c, 1, 62, 76
3, 17852, Note_on_c, 1, 62, 0
3, 17852, Note_on_c, 1, 69, 0
3, 17856, Note_on_c, 1, 74, 92
3, 17856, Note_on_c, 1, 69, 92
3, 17856, Note_on_c, 1, 81, 92
3, 17996, Note_on_c, 1, 74, 0
3, 18000, Note_on_c, 1, 74, 92
3, 18044, Note_on_c, 1, 74, 0
3, 18048, Note_on_c, 1, 74, 92
3, 18236, Note_on_c, 1, 74, 0
3, 18236, Note_on_c, 1, 81, 0
3, 18236, Note_on_c, 1, 69, 0
3, 18240, Note_on_c, 1, 70, 92
3, 18240, Note_on_c, 1, 82, 92
3, 18240, Note_on_c, 1, 74, 92
3, 18428, Note_on_c, 1, 74, 0
3, 18428, Note_on_c, 1, 82, 0
3, 18428, Note_on_c, 1, 70, 0
3, 18432, Note_on_c, 1, 82, 92
3, 18432, Note_on_c, 1, 70, 92
3, 18524, Note_on_c, 1, 70, 0
3, 18524, Note_on_c, 1, 82, 0
3, 18528, Note_on_c, 1, 83, 92
3, 18528, Note_on_c, 1, 71, 92
3, 18620, Note_on_c, 1, 71, 0
3, 18620, Note_on_c, 1, 83, 0
3, 18624, Note_on_c, 1, 76, 92
3, 18624, Note_on_c, 1, 74, 92
3, 18624, Note_on_c, 1, 71, 92
3, 18764, Note_on_c, 1, 71, 0
3, 18764, Note_on_c, 1, 74, 0
3, 18768, Note_on_c, 1, 74, 92
3, 18768, Note_on_c, 1, 71, 92
3, 18812, Note_on_c, 1, 71, 0
3, 18812, Note_on_c, 1, 74, 0
3, 18816, Note_on_c, 1, 74, 92
3, 18816, Note_on_c, 1, 71, 92
3, 19004, Note_on_c, 1, 71, 0
3, 19004, Note_on_c, 1, 74, 0
3, 19004, Note_on_c, 1, 76, 0
3, 19008, Note_on_c, 1, 74, 92
3, 19008, Note_on_c, 1, 71, 92
3, 19008, Note_on_c, 1, 77, 92
3, 19196, Note_on_c, 1, 77, 0
3, 19196, Note_on_c, 1, 71, 0
3, 19196, Note_on_c, 1, 74, 0
3, 19200, Note_on_c, 1, 74, 92
3, 19200, Note_on_c, 1, 69, 92
3, 19200, Note_on_c, 1, 77, 92
3, 19292, Note_on_c, 1, 77, 0
3, 19296, Note_on_c, 1, 78, 92
3, 19388, Note_on_c, 1, 78, 0
3, 19388, Note_on_c, 1, 69, 0
3, 19388, Note_on_c, 1, 74, 0
3, 19392, Note_on_c, 1, 80, 92
3, 19484, Note_on_c, 1, 80, 0
3, 19488, Note_on_c, 1, 81, 92
3, 19580, Note_on_c, 1, 81, 0
3, 19584, Note_on_c, 1, 76, 98
3, 19612, Note_on_c, 1, 76, 0
3, 19616, Note_on_c, 1, 78, 98
3, 19644, Note_on_c, 1, 78, 0
3, 19648, Note_on_c, 1, 76, 98
3, 19676, Note_on_c, 1, 76, 0
3, 19680, Note_on_c, 1, 78, 98
3, 19708, Note_on_c, 1, 78, 0
3, 19712, Note_on_c, 1, 76, 98
3, 19740, Note_on_c, 1, 76, 0
3, 19744, Note_on_c, 1, 78, 98
3, 19772, Note_on_c, 1, 78, 0
3, 19776, Note_on_c, 1, 76, 98
3, 19804, Note_on_c, 1, 76, 0
3, 19808, Note_on_c, 1, 78, 98
3, 19836, Note_on_c, 1, 78, 0
3, 19840, Note_on_c, 1, 76, 98
3, 19868, Note_on_c, 1, 76, 0
3, 19872, Note_on_c, 1, 78, 98
3, 19900, Note_on_c, 1, 78, 0
3, 19904, Note_on_c, 1, 74, 98
3, 19932, Note_on_c, 1, 74, 0
3, 19936, Note_on_c, 1, 76, 98
3, 19964, Note_on_c, 1, 76, 0
3, 19968, Note_on_c, 1, 74, 98
3, 20156, Note_on_c, 1, 74, 0
3, 20352, Note_on_c, 1, 74, 70
3, 20440, Note_on_c, 1, 74, 0
3, 20448, Note_on_c, 1, 73, 70
3, 20536, Note_on_c, 1, 73, 0
3, 20544, Note_on_c, 1, 71, 70
3, 20632, Note_on_c, 1, 71, 0
3, 20640, Note_on_c, 1, 69, 70
3, 20728, Note_on_c, 1, 69, 0
3, 20736, Note_on_c, 1, 69, 70
3, 20824, Note_on_c, 1, 69, 0
3, 20832, Note_on_c, 1, 68, 70
3, 20920, Note_on_c, 1, 68, 0
3, 20928, Note_on_c, 1, 68, 70
3, 21024, Note_on_c, 1, 68, 0
3, 21024, Note_on_c, 1, 68, 70
3, 21120, Note_on_c, 1, 68, 0
3, 21120, Note_on_c, 1, 62, 70
3, 21120, Note_on_c, 1, 68, 70
3, 21212, Note_on_c, 1, 62, 0
3, 21216, Note_on_c, 1, 64, 70
3, 21308, Note_on_c, 1, 64, 0
3, 21308, Note_on_c, 1, 68, 0
3, 21312, Note_on_c, 1, 62, 70
3, 21312, Note_on_c, 1, 68, 70
3, 21404, Note_on_c, 1, 68, 0
3, 21404, Note_on_c, 1, 62, 0
3, 21408, Note_on_c, 1, 64, 70
3, 21500, Note_on_c, 1, 64, 0
3, 21504, Note_on_c, 1, 61, 70
3, 21504, Note_on_c, 1, 69, 70
3, 21788, Note_on_c, 1, 69, 0
3, 21792, Note_on_c, 1, 70, 70
3, 21880, Note_on_c, 1, 70, 0
3, 21884, Note_on_c, 1, 61, 0
3, 21888, Note_on_c, 1, 71, 70
3, 21976, Note_on_c, 1, 71, 0
3, 21984, Note_on_c, 1, 69, 70
3, 22072, Note_on_c, 1, 69, 0
3, 22080, Note_on_c, 1, 67, 70
3, 22168, Note_on_c, 1, 67, 0
3, 22176, Note_on_c, 1, 66, 70
3, 22264, Note_on_c, 1, 66, 0
3, 22272, Note_on_c, 1, 66, 70
3, 22360, Note_on_c, 1, 66, 0
3, 22368, Note_on_c, 1, 64, 70
3, 22456, Note_on_c, 1, 64, 0
3, 22464, Note_on_c, 1, 64, 70
3, 22560, Note_on_c, 1, 64, 0
3, 22560, Note_on_c, 1, 64, 70
3, 22656, Note_on_c, 1, 64, 0
3, 22656, Note_on_c, 1, 64, 70
3, 22656, Note_on_c, 1, 61, 70
3, 22748, Note_on_c, 1, 61, 0
3, 22748, Note_on_c, 1, 64, 0
3, 22752, Note_on_c, 1, 67, 70
3, 22752, Note_on_c, 1, 64, 70
3, 22844, Note_on_c, 1, 64, 0
3, 22844, Note_on_c, 1, 67, 0
3, 22848, Note_on_c, 1, 66, 70
3, 22848, Note_on_c, 1, 62, 70
3, 22940, Note_on_c, 1, 62, 0
3, 22940, Note_on_c, 1, 66, 0
3, 22944, Note_on_c, 1, 64, 70
3, 22944, Note_on_c, 1, 61, 70
3, 23036, Note_on_c, 1, 61, 0
3, 23036, Note_on_c, 1, 64, 0
3, 23040, Note_on_c, 1, 62, 70
3, 23224, Note_on_c, 1, 62, 0
3, 23232, Note_on_c, 1, 66, 92
3, 23232, Note_on_c, 1, 54, 92
3, 23372, Note_on_c, 1, 54, 0
3, 23372, Note_on_c, 1, 66, 0
3, 23376, Note_on_c, 1, 62, 95
3, 23416, Note_on_c, 1, 62, 0
3, 23424, Note_on_c, 1, 67, 92
3, 23424, Note_on_c, 1, 55, 92
3, 23608, Note_on_c, 1, 55, 0
3, 23608, Note_on_c, 1, 67, 0
3, 23616, Note_on_c, 1, 68, 92
3, 23616, Note_on_c, 1, 56, 92
3, 23756, Note_on_c, 1, 56, 0
3, 23756, Note_on_c, 1, 68, 0
3, 23760, Note_on_c, 1, 64, 95
3, 23800, Note_on_c, 1, 64, 0
3, 23808, Note_on_c, 1, 69, 92
3, 23808, Note_on_c, 1, 57, 92
3, 23992, Note_on_c, 1, 57, 0
3, 23992, Note_on_c, 1, 69, 0
3, 24000, Note_on_c, 1, 70, 92
3, 24000, Note_on_c, 1, 58, 92
3, 24140, Note_on_c, 1, 58, 0
3, 24140, Note_on_c, 1, 70, 0
3, 24144, Note_on_c, 1, 66, 95
3, 24184, Note_on_c, 1, 66, 0
3, 24192, Note_on_c, 1, 71, 92
3, 24192, Note_on_c, 1, 59, 92
3, 24376, Note_on_c, 1, 59, 0
3, 24376, Note_on_c, 1, 71, 0
3, 24384, Note_on_c, 1, 73, 92
3, 24384, Note_on_c, 1, 61, 92
3, 24524, Note_on_c, 1, 61, 0
3, 24524, Note_on_c, 1, 73, 0
3, 24528, Note_on_c, 1, 69, 95
3, 24568, Note_on_c, 1, 69, 0
3, 24576, Note_on_c, 1, 74, 92
3, 24668, Note_on_c, 1, 74, 0
3, 24672, Note_on_c, 1, 74, 92
3, 24672, Note_on_c, 1, 86, 92
3, 24860, Note_on_c, 1, 86, 0
3, 24860, Note_on_c, 1, 74, 0
3, 24864, Note_on_c, 1, 74, 92
3, 24864, Note_on_c, 1, 84, 92
3, 25052, Note_on_c, 1, 84, 0
3, 25052, Note_on_c, 1, 74, 0
3, 25056, Note_on_c, 1, 74, 92
3, 25056, Note_on_c, 1, 83, 92
3, 25244, Note_on_c, 1, 83, 0
3, 25244, Note_on_c, 1, 74, 0
3, 25248, Note_on_c, 1, 82, 92
3, 25248, Note_on_c, 1, 74, 92
3, 25340, Note_on_c, 1, 74, 0
3, 25340, Note_on_c, 1, 82, 0
3, 25344, Note_on_c, 1, 74, 92
3, 25344, Note_on_c, 1, 82, 92
3, 25440, Note_on_c, 1, 82, 0
3, 25440, Note_on_c, 1, 83, 92
3, 25528, Note_on_c, 1, 83, 0
3, 25532, Note_on_c, 1, 74, 0
3, 25536, Note_on_c, 1, 74, 92
3, 25536, Note_on_c, 1, 82, 92
3, 25616, Note_on_c, 1, 83, 92
3, 25632, Note_on_c, 1, 82, 0
3, 25704, Note_on_c, 1, 83, 0
3, 25724, Note_on_c, 1, 74, 0
3, 25728, Note_on_c, 1, 81, 92
3, 25728, Note_on_c, 1, 73, 92
3, 25816, Note_on_c, 1, 73, 0
3, 25816, Note_on_c, 1, 81, 0
3, 25824, Note_on_c, 1, 79, 92
3, 25824, Note_on_c, 1, 71, 92
3, 25912, Note_on_c, 1, 71, 0
3, 25912, Note_on_c, 1, 79, 0
3, 25920, Note_on_c, 1, 78, 92
3, 25920, Note_on_c, 1, 69, 92
3, 26008, Note_on_c, 1, 69, 0
3, 26008, Note_on_c, 1, 78, 0
3, 26016, Note_on_c, 1, 76, 92
3, 26016, Note_on_c, 1, 67, 92
3, 26104, Note_on_c, 1, 67, 0
3, 26104, Note_on_c, 1, 76, 0
3, 26112, Note_on_c, 1, 74, 92
3, 26112, Note_on_c, 1, 66, 92
3, 26304, Note_on_c, 1, 69, 92
3, 26492, Note_on_c, 1, 69, 0
3, 26492, Note_on_c, 1, 66, 0
3, 26492, Note_on_c, 1, 74, 0
3, 26496, Note_on_c, 1, 73, 92
3, 26496, Note_on_c, 1, 67, 92
3, 26496, Note_on_c, 1, 76, 98
3, 26524, Note_on_c, 1, 76, 0
3, 26528, Note_on_c, 1, 78, 98
3, 26556, Note_on_c, 1, 78, 0
3, 26560, Note_on_c, 1, 76, 98
3, 26588, Note_on_c, 1, 76, 0
3, 26592, Note_on_c, 1, 78, 98
3, 26620, Note_on_c, 1, 78, 0
3, 26624, Note_on_c, 1, 76, 98
3, 26652, Note_on_c, 1, 76, 0
3, 26656, Note_on_c, 1, 78, 98
3, 26684, Note_on_c, 1, 78, 0
3, 26688, Note_on_c, 1, 76, 98
3, 26716, Note_on_c, 1, 76, 0
3, 26720, Note_on_c, 1, 78, 98
3, 26748, Note_on_c, 1, 78, 0
3, 26752, Note_on_c, 1, 76, 98
3, 26780, Note_on_c, 1, 76, 0
3, 26784, Note_on_c, 1, 78, 98
3, 26812, Note_on_c, 1, 78, 0
3, 26816, Note_on_c, 1, 74, 98
3, 26844, Note_on_c, 1, 74, 0
3, 26848, Note_on_c, 1, 76, 98
3, 26876, Note_on_c, 1, 76, 0
3, 26876, Note_on_c, 1, 67, 0
3, 26876, Note_on_c, 1, 73, 0
3, 26880, Note_on_c, 1, 74, 92
3, 26880, Note_on_c, 1, 66, 92
3, 26968, Note_on_c, 1, 66, 0
3, 26968, Note_on_c, 1, 74, 0
3, 26976, Note_on_c, 1, 74, 70
3, 27164, Note_on_c, 1, 74, 0
3, 27168, Note_on_c, 1, 72, 70
3, 27356, Note_on_c, 1, 72, 0
3, 27360, Note_on_c, 1, 71, 70
3, 27548, Note_on_c, 1, 71, 0
3, 27552, Note_on_c, 1, 70, 70
3, 27596, Note_on_c, 1, 70, 0
3, 27648, Note_on_c, 1, 70, 70
3, 27744, Note_on_c, 1, 70, 0
3, 27744, Note_on_c, 1, 71, 70
3, 27836, Note_on_c, 1, 71, 0
3, 27840, Note_on_c, 1, 70, 70
3, 27932, Note_on_c, 1, 70, 0
3, 27936, Note_on_c, 1, 71, 70
3, 28024, Note_on_c, 1, 71, 0
3, 28032, Note_on_c, 1, 75, 70
3, 28128, Note_on_c, 1, 75, 0
3, 28128, Note_on_c, 1, 76, 70
3, 28220, Note_on_c, 1, 76, 0
3, 28224, Note_on_c, 1, 75, 70
3, 28224, Note_on_c, 1, 83, 81
3, 28316, Note_on_c, 1, 83, 0
3, 28316, Note_on_c, 1, 75, 0
3, 28320, Note_on_c, 1, 76, 70
3, 28408, Note_on_c, 1, 76, 0
3, 28416, Note_on_c, 1, 70, 70
3, 28512, Note_on_c, 1, 70, 0
3, 28512, Note_on_c, 1, 71, 70
3, 28604, Note_on_c, 1, 71, 0
3, 28608, Note_on_c, 1, 70, 70
3, 28608, Note_on_c, 1, 79, 81
3, 28700, Note_on_c, 1, 79, 0
3, 28700, Note_on_c, 1, 70, 0
3, 28704, Note_on_c, 1, 71, 70
3, 28792, Note_on_c, 1, 71, 0
3, 28800, Note_on_c, 1, 66, 70
3, 28896, Note_on_c, 1, 66, 0
3, 28896, Note_on_c, 1, 67, 70
3, 28988, Note_on_c, 1, 67, 0
3, 28992, Note_on_c, 1, 66, 70
3, 28992, Note_on_c, 1, 76, 81
3, 29084, Note_on_c, 1, 76, 0
3, 29084, Note_on_c, 1, 66, 0
3, 29088, Note_on_c, 1, 67, 70
3, 29176, Note_on_c, 1, 67, 0
3, 29184, Note_on_c, 1, 81, 76
3, 29184, Note_on_c, 1, 66, 70
3, 29184, Note_on_c, 1, 57, 70
3, 29276, Note_on_c, 1, 66, 0
3, 29280, Note_on_c, 1, 69, 70
3, 29372, Note_on_c, 1, 69, 0
3, 29372, Note_on_c, 1, 57, 0
3, 29376, Note_on_c, 1, 66, 70
3, 29376, Note_on_c, 1, 57, 70
3, 29468, Note_on_c, 1, 66, 0
3, 29472, Note_on_c, 1, 62, 70
3, 29564, Note_on_c, 1, 62, 0
3, 29564, Note_on_c, 1, 57, 0
3, 29564, Note_on_c, 1, 81, 0
3, 29568, Note_on_c, 1, 66, 70
3, 29568, Note_on_c, 1, 81, 76
3, 29568, Note_on_c, 1, 57, 70
3, 29660, Note_on_c, 1, 66, 0
3, 29664, Note_on_c, 1, 69, 70
3, 29756, Note_on_c, 1, 69, 0
3, 29756, Note_on_c, 1, 57, 0
3, 29760, Note_on_c, 1, 66, 70
3, 29760, Note_on_c, 1, 57, 70
3, 29852, Note_on_c, 1, 66, 0
3, 29852, Note_on_c, 1, 81, 0
3, 29856, Note_on_c, 1, 83, 70
3, 29856, Note_on_c, 1, 62, 70
3, 29944, Note_on_c, 1, 62, 0
3, 29944, Note_on_c, 1, 83, 0
3, 29948, Note_on_c, 1, 57, 0
3, 29952, Note_on_c, 1, 74, 70
3, 29952, Note_on_c, 1, 67, 70
3, 29952, Note_on_c, 1, 57, 70
3, 30044, Note_on_c, 1, 67, 0
3, 30048, Note_on_c, 1, 69, 70
3, 30140, Note_on_c, 1, 69, 0
3, 30140, Note_on_c, 1, 57, 0
3, 30144, Note_on_c, 1, 67, 70
3, 30144, Note_on_c, 1, 57, 70
3, 30236, Note_on_c, 1, 67, 0
3, 30240, Note_on_c, 1, 64, 70
3, 30240, Note_on_c, 1, 64, 70
3, 30332, Note_on_c, 1, 64, 0
3, 30332, Note_on_c, 1, 74, 0
3, 30332, Note_on_c, 1, 57, 0
3, 30332, Note_on_c, 1, 64, 0
3, 30336, Note_on_c, 1, 67, 70
3, 30336, Note_on_c, 1, 57, 70
3, 30336, Note_on_c, 1, 73, 76
3, 30364, Note_on_c, 1, 73, 0
3, 30368, Note_on_c, 1, 74, 76
3, 30396, Note_on_c, 1, 74, 0
3, 30400, Note_on_c, 1, 73, 76
3, 30428, Note_on_c, 1, 73, 0
3, 30428, Note_on_c, 1, 67, 0
3, 30432, Note_on_c, 1, 69, 70
3, 30432, Note_on_c, 1, 74, 76
3, 30460, Note_on_c, 1, 74, 0
3, 30464, Note_on_c, 1, 73, 76
3, 30492, Note_on_c, 1, 73, 0
3, 30496, Note_on_c, 1, 74, 76
3, 30524, Note_on_c, 1, 74, 0
3, 30524, Note_on_c, 1, 69, 0
3, 30524, Note_on_c, 1, 57, 0
3, 30528, Note_on_c, 1, 67, 70
3, 30528, Note_on_c, 1, 57, 70
3, 30528, Note_on_c, 1, 73, 76
3, 30556, Note_on_c, 1, 73, 0
3, 30560, Note_on_c, 1, 74, 76
3, 30588, Note_on_c, 1, 74, 0
3, 30592, Note_on_c, 1, 73, 76
3, 30620, Note_on_c, 1, 73, 0
3, 30620, Note_on_c, 1, 67, 0
3, 30624, Note_on_c, 1, 64, 70
3, 30624, Note_on_c, 1, 71, 76
3, 30668, Note_on_c, 1, 71, 0
3, 30672, Note_on_c, 1, 73, 76
3, 30716, Note_on_c, 1, 73, 0
3, 30716, Note_on_c, 1, 64, 0
3, 30716, Note_on_c, 1, 57, 0
3, 30720, Note_on_c, 1, 74, 70
3, 30720, Note_on_c, 1, 66, 70
3, 30908, Note_on_c, 1, 66, 0
3, 30908, Note_on_c, 1, 74, 0
3, 30912, Note_on_c, 1, 78, 92
3, 31004, Note_on_c, 1, 78, 0
3, 31056, Note_on_c, 1, 74, 95
3, 31096, Note_on_c, 1, 74, 0
3, 31104, Note_on_c, 1, 81, 92
3, 31292, Note_on_c, 1, 81, 0
3, 31296, Note_on_c, 1, 85, 92
3, 31436, Note_on_c, 1, 85, 0
3, 31440, Note_on_c, 1, 81, 95
3, 31480, Note_on_c, 1, 81, 0
3, 31488, Note_on_c, 1, 86, 92
3, 31676, Note_on_c, 1, 86, 0
3, 31680, Note_on_c, 1, 78, 92
3, 31820, Note_on_c, 1, 78, 0
3, 31824, Note_on_c, 1, 74, 95
3, 31864, Note_on_c, 1, 74, 0
3, 31872, Note_on_c, 1, 81, 92
3, 32060, Note_on_c, 1, 81, 0
3, 32064, Note_on_c, 1, 73, 92
3, 32204, Note_on_c, 1, 73, 0
3, 32208, Note_on_c, 1, 69, 95
3, 32248, Note_on_c, 1, 69, 0
3, 32256, Note_on_c, 1, 74, 92
3, 32444, Note_on_c, 1, 74, 0
3, 32448, Note_on_c, 1, 66, 92
3, 32448, Note_on_c, 1, 62, 92
3, 32588, Note_on_c, 1, 62, 0
3, 32588, Note_on_c, 1, 66, 0
3, 32592, Note_on_c, 1, 66, 95
3, 32592, Note_on_c, 1, 62, 95
3, 32632, Note_on_c, 1, 62, 0
3, 32632, Note_on_c, 1, 66, 0
3, 32640, Note_on_c, 1, 64, 92
3, 32640, Note_on_c, 1, 62, 92
3, 32828, Note_on_c, 1, 62, 0
3, 32828, Note_on_c, 1, 64, 0
3, 32832, Note_on_c, 1, 64, 92
3, 32832, Note_on_c, 1, 61, 92
3, 32832, Note_on_c, 1, 57, 92
3, 32972, Note_on_c, 1, 57, 0
3, 32972, Note_on_c, 1, 61, 0
3, 32972, Note_on_c, 1, 64, 0
3, 32976, Note_on_c, 1, 64, 95
3, 32976, Note_on_c, 1, 57, 95
3, 32976, Note_on_c, 1, 61, 95
3, 33016, Note_on_c, 1, 61, 0
3, 33016, Note_on_c, 1, 57, 0
3, 33016, Note_on_c, 1, 64, 0
3, 33024, Note_on_c, 1, 62, 92
3, 33024, Note_on_c, 1, 57, 92
3, 33024, Note_on_c, 1, 54, 92
3, 33212, Note_on_c, 1, 54, 0
3, 33212, Note_on_c, 1, 57, 0
3, 33212, Note_on_c, 1, 62, 0
3, 33216, Note_on_c, 1, 74, 92
3, 33216, Note_on_c, 1, 69, 92
3, 33216, Note_on_c, 1, 78, 92
3, 33404, Note_on_c, 1, 78, 0
3, 33404, Note_on_c, 1, 69, 0
3, 33404, Note_on_c, 1, 74, 0
3, 33408, Note_on_c, 1, 78, 92
3, 33408, Note_on_c, 1, 74, 92
3, 33408, Note_on_c, 1, 69, 92
3, 33596, Note_on_c, 1, 69, 0
3, 33596, Note_on_c, 1, 74, 0
3, 33596, Note_on_c, 1, 78, 0
3, 33780, Control_c, 1, 1, 55
3, 33792, Note_on_c, 1, 74, 92
3, 34172, Note_on_c, 1, 74, 0
3, 34176, Note_on_c, 1, 69, 92
3, 34464, Note_on_c, 1, 69, 0
3, 34464, Note_on_c, 1, 69, 95
3, 34504, Note_on_c, 1, 69, 0
3, 34560, Note_on_c, 1, 66, 92
3, 34660, Note_on_c, 1, 66, 0
3, 34752, Note_on_c, 1, 62, 92
3, 34852, Note_on_c, 1, 62, 0
3, 35520, Note_on_c, 1, 62, 70
3, 35620, Note_on_c, 1, 62, 0
3, 35712, Note_on_c, 1, 62, 70
3, 35812, Note_on_c, 1, 62, 0
3, 36288, Note_on_c, 1, 62, 70
3, 36388, Note_on_c, 1, 62, 0
3, 36480, Note_on_c, 1, 62, 70
3, 36580, Note_on_c, 1, 62, 0
3, 37056, Note_on_c, 1, 74, 70
3, 37436, Note_on_c, 1, 74, 0
3, 37440, Note_on_c, 1, 73, 70
3, 37628, Note_on_c, 1, 73, 0
3, 37632, Note_on_c, 1, 74, 70
3, 37820, Note_on_c, 1, 74, 0
3, 37824, Note_on_c, 1, 66, 76
3, 37852, Note_on_c, 1, 66, 0
3, 37856, Note_on_c, 1, 67, 76
3, 37884, Note_on_c, 1, 67, 0
3, 37888, Note_on_c, 1, 66, 76
3, 37916, Note_on_c, 1, 66, 0
3, 37920, Note_on_c, 1, 67, 76
3, 37948, Note_on_c, 1, 67, 0
3, 37952, Note_on_c, 1, 67, 73
3, 38000, Note_on_c, 1, 67, 0
3, 38016, Note_on_c, 1, 69, 70
3, 38204, Note_on_c, 1, 69, 0
3, 38208, Note_on_c, 1, 62, 70
3, 38268, Note_on_c, 1, 62, 0
3, 38272, Note_on_c, 1, 64, 70
3, 38332, Note_on_c, 1, 64, 0
3, 38336, Note_on_c, 1, 62, 70
3, 38396, Note_on_c, 1, 62, 0
3, 38400, Note_on_c, 1, 67, 70
3, 38500, Note_on_c, 1, 67, 0
3, 38976, Note_on_c, 1, 62, 70
3, 39036, Note_on_c, 1, 62, 0
3, 39040, Note_on_c, 1, 64, 70
3, 39100, Note_on_c, 1, 64, 0
3, 39104, Note_on_c, 1, 62, 70
3, 39164, Note_on_c, 1, 62, 0
3, 39168, Note_on_c, 1, 71, 70
3, 39268, Note_on_c, 1, 71, 0
3, 39744, Note_on_c, 1, 74, 70
3, 39804, Note_on_c, 1, 74, 0
3, 39808, Note_on_c, 1, 73, 70
3, 39868, Note_on_c, 1, 73, 0
3, 39872, Note_on_c, 1, 71, 70
3, 39932, Note_on_c, 1, 71, 0
3, 39936, Note_on_c, 1, 69, 70
3, 40124, Note_on_c, 1, 69, 0
3, 40128, Note_on_c, 1, 74, 70
3, 40316, Note_on_c, 1, 74, 0
3, 40320, Note_on_c, 1, 74, 70
3, 40508, Note_on_c, 1, 74, 0
3, 40512, Note_on_c, 1, 74, 70
3, 40700, Note_on_c, 1, 74, 0
3, 40704, Note_on_c, 1, 67, 71
3, 40892, Note_on_c, 1, 67, 0
3, 40896, Note_on_c, 1, 67, 71
3, 41084, Note_on_c, 1, 67, 0
3, 41088, Note_on_c, 1, 67, 73
3, 41276, Note_on_c, 1, 67, 0
3, 41280, Note_on_c, 1, 67, 74
3, 41468, Note_on_c, 1, 67, 0
3, 41472, Note_on_c, 1, 67, 81
3, 41660, Note_on_c, 1, 67, 0
3, 41664, Note_on_c, 1, 64, 81
3, 41852, Note_on_c, 1, 64, 0
3, 41856, Note_on_c, 1, 64, 81
3, 42044, Note_on_c, 1, 64, 0
3, 42048, Note_on_c, 1, 61, 81
3, 42236, Note_on_c, 1, 61, 0
3, 42240, Note_on_c, 1, 61, 81
3, 42428, Note_on_c, 1, 61, 0
3, 42432, Note_on_c, 1, 76, 81
3, 42620, Note_on_c, 1, 76, 0
3, 42624, Note_on_c, 1, 76, 81
3, 42812, Note_on_c, 1, 76, 0
3, 42816, Note_on_c, 1, 73, 81
3, 43004, Note_on_c, 1, 73, 0
3, 43008, Note_on_c, 1, 74, 81
3, 43196, Note_on_c, 1, 74, 0
3, 43264, Note_on_c, 1, 69, 81
3, 43324, Note_on_c, 1, 69, 0
3, 43328, Note_on_c, 1, 66, 81
3, 43388, Note_on_c, 1, 66, 0
3, 43392, Note_on_c, 1, 67, 81
3, 43580, Note_on_c, 1, 67, 0
3, 43584, Note_on_c, 1, 73, 81
3, 43612, Note_on_c, 1, 74, 81
3, 43616, Note_on_c, 1, 73, 0
3, 43644, Note_on_c, 1, 74, 0
3, 43644, Note_on_c, 1, 73, 81
3, 43676, Note_on_c, 1, 73, 0
3, 43676, Note_on_c, 1, 74, 81
3, 43708, Note_on_c, 1, 74, 0
3, 43708, Note_on_c, 1, 71, 81
3, 43740, Note_on_c, 1, 71, 0
3, 43740, Note_on_c, 1, 73, 81
3, 43772, Note_on_c, 1, 73, 0
3, 43776, Note_on_c, 1, 74, 81
3, 43964, Note_on_c, 1, 74, 0
3, 44032, Note_on_c, 1, 69, 81
3, 44092, Note_on_c, 1, 69, 0
3, 44096, Note_on_c, 1, 66, 81
3, 44156, Note_on_c, 1, 66, 0
3, 44160, Note_on_c, 1, 67, 81
3, 44348, Note_on_c, 1, 67, 0
3, 44352, Note_on_c, 1, 73, 81
3, 44380, Note_on_c, 1, 74, 81
3, 44384, Note_on_c, 1, 73, 0
3, 44412, Note_on_c, 1, 74, 0
3, 44412, Note_on_c, 1, 73, 81
3, 44444, Note_on_c, 1, 73, 0
3, 44444, Note_on_c, 1, 74, 81
3, 44476, Note_on_c, 1, 74, 0
3, 44476, Note_on_c, 1, 71, 81
3, 44508, Note_on_c, 1, 71, 0
3, 44508, Note_on_c, 1, 73, 81
3, 44540, Note_on_c, 1, 73, 0
3, 44544, Note_on_c, 1, 74, 81
3, 44924, Note_on_c, 1, 74, 0
3, 45024, Note_on_c, 1, 72, 81
3, 45024, Note_on_c, 1, 69, 81
3, 45116, Note_on_c, 1, 69, 0
3, 45116, Note_on_c, 1, 72, 0
3, 45120, Note_on_c, 1, 71, 81
3, 45120, Note_on_c, 1, 67, 81
3, 45212, Note_on_c, 1, 67, 0
3, 45212, Note_on_c, 1, 71, 0
3, 45216, Note_on_c, 1, 70, 81
3, 45216, Note_on_c, 1, 66, 81
3, 45308, Note_on_c, 1, 66, 0
3, 45308, Note_on_c, 1, 70, 0
3, 45312, Note_on_c, 1, 71, 81
3, 45312, Note_on_c, 1, 67, 81
3, 45500, Note_on_c, 1, 67, 0
3, 45500, Note_on_c, 1, 71, 0
3, 45504, Note_on_c, 1, 71, 81
3, 45504, Note_on_c, 1, 67, 81
3, 45692, Note_on_c, 1, 67, 0
3, 45692, Note_on_c, 1, 71, 0
3, 45696, Note_on_c, 1, 71, 81
3, 45696, Note_on_c, 1, 67, 81
3, 45884, Note_on_c, 1, 67, 0
3, 45884, Note_on_c, 1, 71, 0
3, 45888, Note_on_c, 1, 74, 81
3, 45888, Note_on_c, 1, 68, 81
3, 46076, Note_on_c, 1, 68, 0
3, 46076, Note_on_c, 1, 74, 0
3, 46080, Note_on_c, 1, 69, 81
3, 46080, Note_on_c, 1, 74, 87
3, 46108, Note_on_c, 1, 74, 0
3, 46112, Note_on_c, 1, 76, 87
3, 46140, Note_on_c, 1, 76, 0
3, 46144, Note_on_c, 1, 74, 87
3, 46172, Note_on_c, 1, 74, 0
3, 46176, Note_on_c, 1, 76, 87
3, 46204, Note_on_c, 1, 76, 0
3, 46208, Note_on_c, 1, 74, 87
3, 46236, Note_on_c, 1, 74, 0
3, 46240, Note_on_c, 1, 76, 87
3, 46268, Note_on_c, 1, 76, 0
3, 46272, Note_on_c, 1, 73, 87
3, 46460, Note_on_c, 1, 73, 0
3, 46460, Note_on_c, 1, 69, 0
3, 46464, Note_on_c, 1, 76, 92
3, 46652, Note_on_c, 1, 76, 0
3, 46656, Note_on_c, 1, 80, 92
3, 46656, Note_on_c, 1, 76, 92
3, 46656, Note_on_c, 1, 71, 92
3, 46844, Note_on_c, 1, 71, 0
3, 46844, Note_on_c, 1, 76, 0
3, 46844, Note_on_c, 1, 80, 0
3, 46848, Note_on_c, 1, 81, 92
3, 46848, Note_on_c, 1, 69, 92
3, 46848, Note_on_c, 1, 76, 92
3, 47036, Note_on_c, 1, 76, 0
3, 47036, Note_on_c, 1, 69, 0
3, 47036, Note_on_c, 1, 81, 0
3, 47040, Note_on_c, 1, 73, 70
3, 47040, Note_on_c, 1, 69, 70
3, 47228, Note_on_c, 1, 69, 0
3, 47228, Note_on_c, 1, 73, 0
3, 47232, Note_on_c, 1, 73, 70
3, 47232, Note_on_c, 1, 69, 70
3, 47420, Note_on_c, 1, 69, 0
3, 47420, Note_on_c, 1, 73, 0
3, 47424, Note_on_c, 1, 73, 70
3, 47424, Note_on_c, 1, 69, 70
3, 47612, Note_on_c, 1, 69, 0
3, 47612, Note_on_c, 1, 73, 0
3, 47616, Note_on_c, 1, 74, 70
3, 47616, Note_on_c, 1, 71, 70
3, 47804, Note_on_c, 1, 71, 0
3, 47804, Note_on_c, 1, 74, 0
3, 47808, Note_on_c, 1, 74, 70
3, 47808, Note_on_c, 1, 71, 70
3, 47996, Note_on_c, 1, 71, 0
3, 47996, Note_on_c, 1, 74, 0
3, 48000, Note_on_c, 1, 73, 70
3, 48000, Note_on_c, 1, 69, 70
3, 48188, Note_on_c, 1, 69, 0
3, 48188, Note_on_c, 1, 73, 0
3, 48192, Note_on_c, 1, 73, 70
3, 48192, Note_on_c, 1, 69, 70
3, 48380, Note_on_c, 1, 69, 0
3, 48380, Note_on_c, 1, 73, 0
3, 48384, Note_on_c, 1, 71, 70
3, 48384, Note_on_c, 1, 68, 70
3, 48572, Note_on_c, 1, 68, 0
3, 48572, Note_on_c, 1, 71, 0
3, 48576, Note_on_c, 1, 71, 70
3, 48576, Note_on_c, 1, 68, 70
3, 48764, Note_on_c, 1, 68, 0
3, 48764, Note_on_c, 1, 71, 0
3, 48768, Note_on_c, 1, 68, 70
3, 48768, Note_on_c, 1, 64, 70
3, 48956, Note_on_c, 1, 64, 0
3, 48956, Note_on_c, 1, 68, 0
3, 48960, Note_on_c, 1, 68, 70
3, 48960, Note_on_c, 1, 64, 70
3, 49148, Note_on_c, 1, 64, 0
3, 49148, Note_on_c, 1, 68, 0
3, 49152, Note_on_c, 1, 67, 70
3, 49344, Note_on_c, 1, 57, 70
3, 49532, Note_on_c, 1, 57, 0
3, 49532, Note_on_c, 1, 67, 0
3, 49536, Note_on_c, 1, 69, 70
3, 49536, Note_on_c, 1, 57, 70
3, 49628, Note_on_c, 1, 57, 0
3, 49628, Note_on_c, 1, 69, 0
3, 49632, Note_on_c, 1, 67, 70
3, 49632, Note_on_c, 1, 59, 70
3, 49724, Note_on_c, 1, 59, 0
3, 49724, Note_on_c, 1, 67, 0
3, 49728, Note_on_c, 1, 69, 70
3, 49728, Note_on_c, 1, 61, 70
3, 49820, Note_on_c, 1, 61, 0
3, 49820, Note_on_c, 1, 69, 0
3, 49824, Note_on_c, 1, 71, 70
3, 49824, Note_on_c, 1, 56, 70
3, 49916, Note_on_c, 1, 56, 0
3, 49916, Note_on_c, 1, 71, 0
3, 49920, Note_on_c, 1, 73, 70
3, 49920, Note_on_c, 1, 57, 70
3, 50108, Note_on_c, 1, 57, 0
3, 50108, Note_on_c, 1, 73, 0
3, 50112, Note_on_c, 1, 73, 70
3, 50112, Note_on_c, 1, 57, 70
3, 50300, Note_on_c, 1, 57, 0
3, 50300, Note_on_c, 1, 73, 0
3, 50304, Note_on_c, 1, 61, 70
3, 50304, Note_on_c, 1, 69, 70
3, 50492, Note_on_c, 1, 69, 0
3, 50492, Note_on_c, 1, 61, 0
3, 50496, Note_on_c, 1, 76, 70
3, 50496, Note_on_c, 1, 61, 70
3, 50684, Note_on_c, 1, 61, 0
3, 50684, Note_on_c, 1, 76, 0
3, 50688, Note_on_c, 1, 78, 70
3, 50688, Note_on_c, 1, 62, 70
3, 50780, Note_on_c, 1, 78, 0
3, 50784, Note_on_c, 1, 74, 70
3, 50876, Note_on_c, 1, 74, 0
3, 50876, Note_on_c, 1, 62, 0
3, 50880, Note_on_c, 1, 74, 70
3, 50880, Note_on_c, 1, 62, 70
3, 51068, Note_on_c, 1, 62, 0
3, 51072, Note_on_c, 1, 62, 70
3, 51260, Note_on_c, 1, 62, 0
3, 51260, Note_on_c, 1, 74, 0
3, 51264, Note_on_c, 1, 73, 70
3, 51264, Note_on_c, 1, 62, 70
3, 51452, Note_on_c, 1, 62, 0
3, 51452, Note_on_c, 1, 73, 0
3, 51456, Note_on_c, 1, 73, 70
3, 51456, Note_on_c, 1, 62, 70
3, 51644, Note_on_c, 1, 62, 0
3, 51644, Note_on_c, 1, 73, 0
3, 51648, Note_on_c, 1, 71, 70
3, 51648, Note_on_c, 1, 62, 70
3, 51836, Note_on_c, 1, 62, 0
3, 51840, Note_on_c, 1, 62, 70
3, 52028, Note_on_c, 1, 62, 0
3, 52028, Note_on_c, 1, 71, 0
3, 52032, Note_on_c, 1, 69, 70
3, 52032, Note_on_c, 1, 63, 70
3, 52220, Note_on_c, 1, 63, 0
3, 52220, Note_on_c, 1, 69, 0
3, 52224, Note_on_c, 1, 64, 70
3, 52224, Note_on_c, 1, 69, 76
3, 52252, Note_on_c, 1, 69, 0
3, 52256, Note_on_c, 1, 71, 76
3, 52284, Note_on_c, 1, 71, 0
3, 52288, Note_on_c, 1, 69, 76
3, 52316, Note_on_c, 1, 69, 0
3, 52320, Note_on_c, 1, 71, 76
3, 52348, Note_on_c, 1, 71, 0
3, 52352, Note_on_c, 1, 69, 76
3, 52380, Note_on_c, 1, 69, 0
3, 52384, Note_on_c, 1, 71, 76
3, 52412, Note_on_c, 1, 71, 0
3, 52416, Note_on_c, 1, 68, 70
3, 52604, Note_on_c, 1, 68, 0
3, 52604, Note_on_c, 1, 64, 0
3, 52608, Note_on_c, 1, 80, 92
3, 52608, Note_on_c, 1, 76, 92
3, 52608, Note_on_c, 1, 71, 92
3, 52796, Note_on_c, 1, 71, 0
3, 52796, Note_on_c, 1, 76, 0
3, 52796, Note_on_c, 1, 80, 0
3, 52800, Note_on_c, 1, 80, 92
3, 52800, Note_on_c, 1, 76, 92
3, 52800, Note_on_c, 1, 71, 92
3, 52988, Note_on_c, 1, 71, 0
3, 52988, Note_on_c, 1, 76, 0
3, 52988, Note_on_c, 1, 80, 0
3, 52992, Note_on_c, 1, 80, 92
3, 52992, Note_on_c, 1, 71, 92
3, 52992, Note_on_c, 1, 76, 92
3, 53372, Note_on_c, 1, 76, 0
3, 53372, Note_on_c, 1, 71, 0
3, 53372, Note_on_c, 1, 80, 0
3, 53760, Note_on_c, 1, 76, 76
3, 53760, Note_on_c, 1, 74, 76
3, 53760, Note_on_c, 1, 71, 76
3, 53948, Note_on_c, 1, 71, 0
3, 53948, Note_on_c, 1, 74, 0
3, 53948, Note_on_c, 1, 76, 0
3, 53952, Note_on_c, 1, 77, 76
3, 53952, Note_on_c, 1, 74, 76
3, 53952, Note_on_c, 1, 71, 76
3, 54140, Note_on_c, 1, 77, 0
3, 54144, Note_on_c, 1, 76, 76
3, 54332, Note_on_c, 1, 76, 0
3, 54332, Note_on_c, 1, 71, 0
3, 54332, Note_on_c, 1, 74, 0
3, 54336, Note_on_c, 1, 77, 76
3, 54336, Note_on_c, 1, 74, 76
3, 54336, Note_on_c, 1, 71, 76
3, 54524, Note_on_c, 1, 71, 0
3, 54524, Note_on_c, 1, 74, 0
3, 54524, Note_on_c, 1, 77, 0
3, 54528, Note_on_c, 1, 74, 76
3, 54528, Note_on_c, 1, 71, 76
3, 54528, Note_on_c, 1, 76, 76
3, 54908, Note_on_c, 1, 76, 0
3, 54908, Note_on_c, 1, 71, 0
3, 54908, Note_on_c, 1, 74, 0
3, 55296, Note_on_c, 1, 76, 76
3, 55296, Note_on_c, 1, 69, 76
3, 55484, Note_on_c, 1, 69, 0
3, 55484, Note_on_c, 1, 76, 0
3, 55488, Note_on_c, 1, 71, 76
3, 55488, Note_on_c, 1, 76, 76
3, 55676, Note_on_c, 1, 71, 0
3, 55680, Note_on_c, 1, 69, 76
3, 55868, Note_on_c, 1, 69, 0
3, 55868, Note_on_c, 1, 76, 0
3, 55872, Note_on_c, 1, 71, 76
3, 55872, Note_on_c, 1, 76, 76
3, 56060, Note_on_c, 1, 76, 0
3, 56060, Note_on_c, 1, 71, 0
3, 56064, Note_on_c, 1, 76, 76
3, 56064, Note_on_c, 1, 69, 76
3, 56444, Note_on_c, 1, 69, 0
3, 56444, Note_on_c, 1, 76, 0
3, 56832, Note_on_c, 1, 76, 59
3, 56832, Note_on_c, 1, 74, 59
3, 56832, Note_on_c, 1, 71, 59
3, 57020, Note_on_c, 1, 71, 0
3, 57020, Note_on_c, 1, 74, 0
3, 57020, Note_on_c, 1, 76, 0
3, 57024, Note_on_c, 1, 77, 59
3, 57024, Note_on_c, 1, 74, 59
3, 57024, Note_on_c, 1, 71, 59
3, 57212, Note_on_c, 1, 77, 0
3, 57216, Note_on_c, 1, 76, 59
3, 57404, Note_on_c, 1, 76, 0
3, 57404, Note_on_c, 1, 71, 0
3, 57404, Note_on_c, 1, 74, 0
3, 57408, Note_on_c, 1, 77, 59
3, 57408, Note_on_c, 1, 74, 59
3, 57408, Note_on_c, 1, 71, 59
3, 57596, Note_on_c, 1, 71, 0
3, 57596, Note_on_c, 1, 74, 0
3, 57596, Note_on_c, 1, 77, 0
3, 57600, Note_on_c, 1, 76, 59
3, 57600, Note_on_c, 1, 74, 59
3, 57600, Note_on_c, 1, 71, 59
3, 57980, Note_on_c, 1, 71, 0
3, 57980, Note_on_c, 1, 74, 0
3, 57980, Note_on_c, 1, 76, 0
3, 58560, Note_on_c, 1, 76, 59
3, 58560, Note_on_c, 1, 73, 59
3, 58560, Note_on_c, 1, 69, 59
3, 58940, Note_on_c, 1, 69, 0
3, 58940, Note_on_c, 1, 73, 0
3, 58940, Note_on_c, 1, 76, 0
3, 58944, Note_on_c, 1, 69, 59
3, 58944, Note_on_c, 1, 76, 59
3, 58944, Note_on_c, 1, 73, 59
3, 59324, Note_on_c, 1, 73, 0
3, 59324, Note_on_c, 1, 76, 0
3, 59324, Note_on_c, 1, 69, 0
3, 59328, Note_on_c, 1, 69, 74
3, 59328, Note_on_c, 1, 76, 74
3, 59328, Note_on_c, 1, 73, 74
3, 59708, Note_on_c, 1, 73, 0
3, 59708, Note_on_c, 1, 76, 0
3, 59708, Note_on_c, 1, 69, 0
3, 59712, Note_on_c, 1, 76, 79
3, 59712, Note_on_c, 1, 73, 79
3, 59712, Note_on_c, 1, 69, 79
3, 59996, Note_on_c, 1, 69, 0
3, 59996, Note_on_c, 1, 73, 0
3, 59996, Note_on_c, 1, 76, 0
3, 60000, Note_on_c, 1, 73, 81
3, 60000, Note_on_c, 1, 69, 81
3, 60092, Note_on_c, 1, 69, 0
3, 60092, Note_on_c, 1, 73, 0
3, 60096, Note_on_c, 1, 73, 81
3, 60096, Note_on_c, 1, 69, 81
3, 60096, Note_on_c, 1, 64, 81
3, 60188, Note_on_c, 1, 64, 0
3, 60188, Note_on_c, 1, 69, 0
3, 60188, Note_on_c, 1, 73, 0
3, 60192, Note_on_c, 1, 73, 81
3, 60192, Note_on_c, 1, 69, 81
3, 60192, Note_on_c, 1, 64, 81
3, 60284, Note_on_c, 1, 64, 0
3, 60284, Note_on_c, 1, 69, 0
3, 60284, Note_on_c, 1, 73, 0
3, 60288, Note_on_c, 1, 74, 81
3, 60288, Note_on_c, 1, 68, 81
3, 60288, Note_on_c, 1, 64, 81
3, 60380, Note_on_c, 1, 64, 0
3, 60380, Note_on_c, 1, 68, 0
3, 60380, Note_on_c, 1, 74, 0
3, 60384, Note_on_c, 1, 74, 81
3, 60384, Note_on_c, 1, 68, 81
3, 60384, Note_on_c, 1, 64, 81
3, 60476, Note_on_c, 1, 64, 0
3, 60476, Note_on_c, 1, 68, 0
3, 60476, Note_on_c, 1, 74, 0
3, 60480, Note_on_c, 1, 74, 81
3, 60480, Note_on_c, 1, 68, 81
3, 60480, Note_on_c, 1, 64, 81
3, 60560, Note_on_c, 1, 68, 81
3, 60572, Note_on_c, 1, 68, 0
3, 60572, Note_on_c, 1, 64, 0
3, 60572, Note_on_c, 1, 74, 0
3, 60576, Note_on_c, 1, 74, 81
3, 60576, Note_on_c, 1, 64, 81
3, 60652, Note_on_c, 1, 68, 0
3, 60668, Note_on_c, 1, 64, 0
3, 60668, Note_on_c, 1, 74, 0
3, 60672, Note_on_c, 1, 73, 81
3, 60672, Note_on_c, 1, 64, 81
3, 60672, Note_on_c, 1, 69, 81
3, 61052, Note_on_c, 1, 69, 0
3, 61052, Note_on_c, 1, 64, 0
3, 61052, Note_on_c, 1, 73, 0
3, 61248, Note_on_c, 1, 64, 70
3, 61436, Note_on_c, 1, 64, 0
3, 61440, Note_on_c, 1, 64, 70
3, 61532, Note_on_c, 1, 64, 0
3, 61536, Note_on_c, 1, 73, 70
3, 61724, Note_on_c, 1, 73, 0
3, 61728, Note_on_c, 1, 64, 70
3, 61820, Note_on_c, 1, 64, 0
3, 61824, Note_on_c, 1, 64, 70
3, 61916, Note_on_c, 1, 64, 0
3, 61920, Note_on_c, 1, 74, 70
3, 62016, Note_on_c, 1, 68, 70
3, 62108, Note_on_c, 1, 74, 0
3, 62112, Note_on_c, 1, 64, 70
3, 62204, Note_on_c, 1, 64, 0
3, 62204, Note_on_c, 1, 68, 0
3, 62208, Note_on_c, 1, 64, 70
3, 62208, Note_on_c, 1, 69, 70
3, 62300, Note_on_c, 1, 64, 0
3, 62304, Note_on_c, 1, 76, 70
3, 62384, Note_on_c, 1, 76, 70
3, 62396, Note_on_c, 1, 76, 0
3, 62492, Note_on_c, 1, 69, 0
3, 62496, Note_on_c, 1, 71, 70
3, 62496, Note_on_c, 1, 69, 70
3, 62572, Note_on_c, 1, 76, 0
3, 62588, Note_on_c, 1, 69, 0
3, 62588, Note_on_c, 1, 71, 0
3, 62592, Note_on_c, 1, 73, 70
3, 62592, Note_on_c, 1, 69, 70
3, 62780, Note_on_c, 1, 69, 0
3, 62780, Note_on_c, 1, 73, 0
3, 62784, Note_on_c, 1, 64, 70
3, 62972, Note_on_c, 1, 64, 0
3, 62976, Note_on_c, 1, 64, 70
3, 63068, Note_on_c, 1, 64, 0
3, 63072, Note_on_c, 1, 71, 70
3, 63260, Note_on_c, 1, 71, 0
3, 63264, Note_on_c, 1, 64, 70
3, 63356, Note_on_c, 1, 64, 0
3, 63360, Note_on_c, 1, 64, 70
3, 63452, Note_on_c, 1, 64, 0
3, 63456, Note_on_c, 1, 73, 70
3, 63552, Note_on_c, 1, 69, 70
3, 63644, Note_on_c, 1, 73, 0
3, 63648, Note_on_c, 1, 64, 70
3, 63740, Note_on_c, 1, 64, 0
3, 63740, Note_on_c, 1, 69, 0
3, 63744, Note_on_c, 1, 64, 70
3, 63744, Note_on_c, 1, 68, 70
3, 63836, Note_on_c, 1, 64, 0
3, 63840, Note_on_c, 1, 74, 70
3, 63932, Note_on_c, 1, 74, 0
3, 63936, Note_on_c, 1, 74, 70
3, 64028, Note_on_c, 1, 68, 0
3, 64032, Note_on_c, 1, 69, 70
3, 64124, Note_on_c, 1, 69, 0
3, 64124, Note_on_c, 1, 74, 0
3, 64128, Note_on_c, 1, 71, 70
3, 64220, Note_on_c, 1, 71, 0
3, 64224, Note_on_c, 1, 64, 70
3, 64316, Note_on_c, 1, 64, 0
3, 64320, Note_on_c, 1, 71, 70
3, 64320, Note_on_c, 1, 62, 70
3, 64412, Note_on_c, 1, 62, 0
3, 64412, Note_on_c, 1, 71, 0
3, 64416, Note_on_c, 1, 68, 70
3, 64508, Note_on_c, 1, 68, 0
3, 64512, Note_on_c, 1, 69, 70
3, 64512, Note_on_c, 1, 61, 70
3, 64604, Note_on_c, 1, 61, 0
3, 64604, Note_on_c, 1, 69, 0
3, 64608, Note_on_c, 1, 73, 70
3, 64700, Note_on_c, 1, 73, 0
3, 64704, Note_on_c, 1, 73, 70
3, 64796, Note_on_c, 1, 73, 0
3, 64800, Note_on_c, 1, 76, 70
3, 64892, Note_on_c, 1, 76, 0
3, 64896, Note_on_c, 1, 74, 70
3, 64992, Note_on_c, 1, 74, 0
3, 64992, Note_on_c, 1, 71, 70
3, 65080, Note_on_c, 1, 71, 0
3, 65088, Note_on_c, 1, 80, 70
3, 65184, Note_on_c, 1, 80, 0
3, 65184, Note_on_c, 1, 83, 70
3, 65272, Note_on_c, 1, 83, 0
3, 65280, Note_on_c, 1, 73, 70
3, 65376, Note_on_c, 1, 73, 0
3, 65376, Note_on_c, 1, 76, 70
3, 65464, Note_on_c, 1, 76, 0
3, 65472, Note_on_c, 1, 81, 70
3, 65568, Note_on_c, 1, 81, 0
3, 65568, Note_on_c, 1, 76, 70
3, 65656, Note_on_c, 1, 76, 0
3, 65664, Note_on_c, 1, 61, 70
3, 65760, Note_on_c, 1, 61, 0
3, 65760, Note_on_c, 1, 64, 70
3, 65848, Note_on_c, 1, 64, 0
3, 65856, Note_on_c, 1, 73, 70
3, 65952, Note_on_c, 1, 73, 0
3, 65952, Note_on_c, 1, 69, 70
3, 66040, Note_on_c, 1, 69, 0
3, 66048, Note_on_c, 1, 71, 70
3, 66144, Note_on_c, 1, 71, 0
3, 66144, Note_on_c, 1, 68, 70
3, 66232, Note_on_c, 1, 68, 0
3, 66240, Note_on_c, 1, 71, 70
3, 66336, Note_on_c, 1, 71, 0
3, 66336, Note_on_c, 1, 74, 70
3, 66424, Note_on_c, 1, 74, 0
3, 66432, Note_on_c, 1, 73, 70
3, 66528, Note_on_c, 1, 73, 0
3, 66528, Note_on_c, 1, 69, 70
3, 66616, Note_on_c, 1, 69, 0
3, 66624, Note_on_c, 1, 73, 70
3, 66720, Note_on_c, 1, 73, 0
3, 66720, Note_on_c, 1, 76, 70
3, 66808, Note_on_c, 1, 76, 0
3, 66816, Note_on_c, 1, 68, 70
3, 66912, Note_on_c, 1, 68, 0
3, 66912, Note_on_c, 1, 71, 70
3, 67000, Note_on_c, 1, 71, 0
3, 67008, Note_on_c, 1, 74, 70
3, 67104, Note_on_c, 1, 74, 0
3, 67104, Note_on_c, 1, 71, 70
3, 67192, Note_on_c, 1, 71, 0
3, 67200, Note_on_c, 1, 59, 70
3, 67296, Note_on_c, 1, 59, 0
3, 67296, Note_on_c, 1, 62, 70
3, 67384, Note_on_c, 1, 62, 0
3, 67392, Note_on_c, 1, 68, 70
3, 67488, Note_on_c, 1, 68, 0
3, 67488, Note_on_c, 1, 64, 70
3, 67576, Note_on_c, 1, 64, 0
3, 67584, Note_on_c, 1, 64, 70
3, 67676, Note_on_c, 1, 64, 0
3, 67680, Note_on_c, 1, 69, 70
3, 67772, Note_on_c, 1, 69, 0
3, 67776, Note_on_c, 1, 69, 70
3, 67868, Note_on_c, 1, 69, 0
3, 67872, Note_on_c, 1, 69, 70
3, 67964, Note_on_c, 1, 69, 0
3, 67968, Note_on_c, 1, 69, 70
3, 68060, Note_on_c, 1, 69, 0
3, 68064, Note_on_c, 1, 69, 70
3, 68156, Note_on_c, 1, 69, 0
3, 68160, Note_on_c, 1, 69, 70
3, 68252, Note_on_c, 1, 69, 0
3, 68256, Note_on_c, 1, 69, 70
3, 68348, Note_on_c, 1, 69, 0
3, 68352, Note_on_c, 1, 69, 70
3, 68412, Note_on_c, 1, 69, 0
3, 68416, Note_on_c, 1, 69, 70
3, 68480, Note_on_c, 1, 69, 0
3, 68480, Note_on_c, 1, 68, 70
3, 68540, Note_on_c, 1, 68, 0
3, 68544, Note_on_c, 1, 69, 70
3, 68600, Note_on_c, 1, 69, 0
3, 68608, Note_on_c, 1, 64, 70
3, 68640, Note_on_c, 1, 64, 0
3, 68680, Note_on_c, 1, 61, 70
3, 68712, Note_on_c, 1, 61, 0
3, 68736, Note_on_c, 1, 57, 70
3, 68836, Note_on_c, 1, 57, 0
3, 69120, Note_on_c, 1, 57, 70
3, 69212, Note_on_c, 1, 57, 0
3, 69216, Note_on_c, 1, 57, 70
3, 69308, Note_on_c, 1, 57, 0
3, 69312, Note_on_c, 1, 57, 70
3, 69404, Note_on_c, 1, 57, 0
3, 69408, Note_on_c, 1, 57, 70
3, 69500, Note_on_c, 1, 57, 0
3, 69504, Note_on_c, 1, 57, 70
3, 69568, Note_on_c, 1, 57, 70
3, 69596, Note_on_c, 1, 57, 0
3, 69660, Note_on_c, 1, 57, 0
3, 69696, Note_on_c, 1, 57, 70
3, 69788, Note_on_c, 1, 57, 0
3, 69792, Note_on_c, 1, 57, 70
3, 69884, Note_on_c, 1, 57, 0
3, 69888, Note_on_c, 1, 57, 70
3, 69948, Note_on_c, 1, 57, 0
3, 69952, Note_on_c, 1, 69, 70
3, 70016, Note_on_c, 1, 69, 0
3, 70016, Note_on_c, 1, 67, 70
3, 70076, Note_on_c, 1, 67, 0
3, 70080, Note_on_c, 1, 69, 70
3, 70136, Note_on_c, 1, 69, 0
3, 70144, Note_on_c, 1, 64, 70
3, 70176, Note_on_c, 1, 64, 0
3, 70208, Note_on_c, 1, 61, 70
3, 70240, Note_on_c, 1, 61, 0
3, 70272, Note_on_c, 1, 57, 70
3, 70372, Note_on_c, 1, 57, 0
3, 70656, Note_on_c, 1, 69, 70
3, 70748, Note_on_c, 1, 69, 0
3, 70752, Note_on_c, 1, 69, 70
3, 70844, Note_on_c, 1, 69, 0
3, 70848, Note_on_c, 1, 69, 70
3, 70940, Note_on_c, 1, 69, 0
3, 70944, Note_on_c, 1, 69, 70
3, 71036, Note_on_c, 1, 69, 0
3, 71040, Note_on_c, 1, 69, 70
3, 71132, Note_on_c, 1, 69, 0
3, 71136, Note_on_c, 1, 69, 70
3, 71228, Note_on_c, 1, 69, 0
3, 71232, Note_on_c, 1, 69, 70
3, 71324, Note_on_c, 1, 69, 0
3, 71328, Note_on_c, 1, 69, 70
3, 71420, Note_on_c, 1, 69, 0
3, 71424, Note_on_c, 1, 69, 71
3, 71612, Note_on_c, 1, 69, 0
3, 71616, Note_on_c, 1, 69, 73
3, 71804, Note_on_c, 1, 69, 0
3, 71808, Note_on_c, 1, 69, 75
3, 71996, Note_on_c, 1, 69, 0
3, 72000, Note_on_c, 1, 69, 77
3, 72188, Note_on_c, 1, 69, 0
3, 72192, Note_on_c, 1, 69, 78
3, 72380, Note_on_c, 1, 69, 0
3, 72384, Note_on_c, 1, 69, 80
3, 72764, Note_on_c, 1, 69, 0
3, 72768, Note_on_c, 1, 69, 83
3, 72956, Note_on_c, 1, 69, 0
3, 72960, Note_on_c, 1, 73, 86
3, 73148, Note_on_c, 1, 73, 0
3, 73152, Note_on_c, 1, 73, 88
3, 73340, Note_on_c, 1, 73, 0
3, 73344, Note_on_c, 1, 68, 89
3, 73532, Note_on_c, 1, 68, 0
3, 73536, Note_on_c, 1, 68, 91
3, 73724, Note_on_c, 1, 68, 0
3, 73728, Note_on_c, 1, 69, 92
3, 73916, Note_on_c, 1, 69, 0
3, 73920, Note_on_c, 1, 76, 92
3, 73920, Note_on_c, 1, 73, 92
3, 73980, Note_on_c, 1, 73, 0
3, 73980, Note_on_c, 1, 76, 0
3, 73984, Note_on_c, 1, 76, 92
3, 74016, Note_on_c, 1, 71, 92
3, 74044, Note_on_c, 1, 76, 0
3, 74048, Note_on_c, 1, 76, 92
3, 74048, Note_on_c, 1, 69, 92
3, 74076, Note_on_c, 1, 71, 0
3, 74108, Note_on_c, 1, 69, 0
3, 74108, Note_on_c, 1, 76, 0
3, 74112, Note_on_c, 1, 76, 92
3, 74112, Note_on_c, 1, 68, 92
3, 74300, Note_on_c, 1, 68, 0
3, 74300, Note_on_c, 1, 76, 0
3, 74304, Note_on_c, 1, 76, 92
3, 74304, Note_on_c, 1, 64, 92
3, 74364, Note_on_c, 1, 76, 0
3, 74368, Note_on_c, 1, 76, 92
3, 74428, Note_on_c, 1, 76, 0
3, 74432, Note_on_c, 1, 76, 92
3, 74480, Note_on_c, 1, 69, 92
3, 74492, Note_on_c, 1, 76, 0
3, 74492, Note_on_c, 1, 64, 0
3, 74496, Note_on_c, 1, 76, 92
3, 74668, Note_on_c, 1, 69, 0
3, 74684, Note_on_c, 1, 76, 0
3, 74688, Note_on_c, 1, 76, 92
3, 74688, Note_on_c, 1, 73, 92
3, 74748, Note_on_c, 1, 73, 0
3, 74748, Note_on_c, 1, 76, 0
3, 74752, Note_on_c, 1, 76, 92
3, 74752, Note_on_c, 1, 71, 92
3, 74812, Note_on_c, 1, 71, 0
3, 74812, Note_on_c, 1, 76, 0
3, 74816, Note_on_c, 1, 76, 92
3, 74816, Note_on_c, 1, 69, 92
3, 74876, Note_on_c, 1, 69, 0
3, 74876, Note_on_c, 1, 76, 0
3, 74880, Note_on_c, 1, 76, 92
3, 74880, Note_on_c, 1, 68, 92
3, 75068, Note_on_c, 1, 68, 0
3, 75068, Note_on_c, 1, 76, 0
3, 75072, Note_on_c, 1, 76, 92
3, 75072, Note_on_c, 1, 64, 92
3, 75132, Note_on_c, 1, 76, 0
3, 75136, Note_on_c, 1, 76, 92
3, 75196, Note_on_c, 1, 76, 0
3, 75200, Note_on_c, 1, 76, 92
3, 75260, Note_on_c, 1, 76, 0
3, 75260, Note_on_c, 1, 64, 0
3, 75264, Note_on_c, 1, 76, 92
3, 75264, Note_on_c, 1, 69, 92
3, 75452, Note_on_c, 1, 69, 0
3, 75452, Note_on_c, 1, 76, 0
3, 75456, Note_on_c, 1, 69, 87
3, 75456, Note_on_c, 1, 61, 87
3, 75644, Note_on_c, 1, 61, 0
3, 75648, Note_on_c, 1, 62, 81
3, 75836, Note_on_c, 1, 62, 0
3, 75836, Note_on_c, 1, 69, 0
3, 75840, Note_on_c, 1, 67, 76
3, 75840, Note_on_c, 1, 64, 76
3, 76028, Note_on_c, 1, 64, 0
3, 76028, Note_on_c, 1, 67, 0
3, 76032, Note_on_c, 1, 69, 70
3, 76032, Note_on_c, 1, 57, 70
3, 76220, Note_on_c, 1, 57, 0
3, 76220, Note_on_c, 1, 69, 0
3, 76224, Note_on_c, 1, 76, 70
3, 76224, Note_on_c, 1, 73, 70
3, 76256, Note_on_c, 1, 73, 0
3, 76256, Note_on_c, 1, 76, 0
3, 76288, Note_on_c, 1, 76, 70
3, 76288, Note_on_c, 1, 71, 70
3, 76320, Note_on_c, 1, 71, 0
3, 76320, Note_on_c, 1, 76, 0
3, 76352, Note_on_c, 1, 76, 70
3, 76352, Note_on_c, 1, 69, 70
3, 76384, Note_on_c, 1, 69, 0
3, 76384, Note_on_c, 1, 76, 0
3, 76416, Note_on_c, 1, 76, 70
3, 76416, Note_on_c, 1, 68, 70
3, 76516, Note_on_c, 1, 68, 0
3, 76516, Note_on_c, 1, 76, 0
3, 76608, Note_on_c, 1, 76, 70
3, 76608, Note_on_c, 1, 64, 70
3, 76640, Note_on_c, 1, 64, 0
3, 76640, Note_on_c, 1, 76, 0
3, 76672, Note_on_c, 1, 76, 70
3, 76704, Note_on_c, 1, 76, 0
3, 76736, Note_on_c, 1, 76, 70
3, 76768, Note_on_c, 1, 76, 0
3, 76800, Note_on_c, 1, 76, 70
3, 76800, Note_on_c, 1, 69, 70
3, 76900, Note_on_c, 1, 69, 0
3, 76900, Note_on_c, 1, 76, 0
3, 76992, Note_on_c, 1, 76, 70
3, 76992, Note_on_c, 1, 73, 70
3, 77024, Note_on_c, 1, 73, 0
3, 77024, Note_on_c, 1, 76, 0
3, 77056, Note_on_c, 1, 76, 70
3, 77056, Note_on_c, 1, 71, 70
3, 77088, Note_on_c, 1, 71, 0
3, 77088, Note_on_c, 1, 76, 0
3, 77120, Note_on_c, 1, 76, 70
3, 77120, Note_on_c, 1, 69, 70
3, 77152, Note_on_c, 1, 69, 0
3, 77152, Note_on_c, 1, 76, 0
3, 77184, Note_on_c, 1, 76, 70
3, 77184, Note_on_c, 1, 68, 70
3, 77284, Note_on_c, 1, 68, 0
3, 77284, Note_on_c, 1, 76, 0
3, 77376, Note_on_c, 1, 76, 70
3, 77376, Note_on_c, 1, 64, 70
3, 77408, Note_on_c, 1, 76, 0
3, 77440, Note_on_c, 1, 76, 70
3, 77472, Note_on_c, 1, 76, 0
3, 77476, Note_on_c, 1, 64, 0
3, 77504, Note_on_c, 1, 76, 70
3, 77536, Note_on_c, 1, 76, 0
3, 77568, Note_on_c, 1, 76, 76
3, 77568, Note_on_c, 1, 69, 76
3, 77668, Note_on_c, 1, 69, 0
3, 77668, Note_on_c, 1, 76, 0
3, 77952, Note_on_c, 1, 73, 81
3, 77952, Note_on_c, 1, 57, 81
3, 78140, Note_on_c, 1, 57, 0
3, 78140, Note_on_c, 1, 73, 0
3, 78432, Note_on_c, 1, 69, 71
3, 78524, Note_on_c, 1, 69, 0
3, 78528, Note_on_c, 1, 69, 73
3, 78620, Note_on_c, 1, 69, 0
3, 78624, Note_on_c, 1, 69, 73
3, 78716, Note_on_c, 1, 69, 0
3, 78720, Note_on_c, 1, 69, 74
3, 78812, Note_on_c, 1, 69, 0
3, 78816, Note_on_c, 1, 69, 75
3, 78908, Note_on_c, 1, 69, 0
3, 78912, Note_on_c, 1, 69, 75
3, 79004, Note_on_c, 1, 69, 0
3, 79008, Note_on_c, 1, 69, 76
3, 79100, Note_on_c, 1, 69, 0
3, 79104, Note_on_c, 1, 69, 77
3, 79196, Note_on_c, 1, 69, 0
3, 79200, Note_on_c, 1, 69, 77
3, 79292, Note_on_c, 1, 69, 0
3, 79296, Note_on_c, 1, 69, 78
3, 79388, Note_on_c, 1, 69, 0
3, 79392, Note_on_c, 1, 69, 78
3, 79484, Note_on_c, 1, 69, 0
3, 79488, Note_on_c, 1, 69, 79
3, 79580, Note_on_c, 1, 69, 0
3, 79584, Note_on_c, 1, 69, 80
3, 79676, Note_on_c, 1, 69, 0
3, 79680, Note_on_c, 1, 71, 80
3, 79772, Note_on_c, 1, 71, 0
3, 79776, Note_on_c, 1, 71, 81
3, 79868, Note_on_c, 1, 71, 0
3, 79872, Note_on_c, 1, 73, 82
3, 79872, Note_on_c, 1, 69, 82
3, 79964, Note_on_c, 1, 69, 0
3, 79964, Note_on_c, 1, 73, 0
3, 79968, Note_on_c, 1, 64, 82
3, 80060, Note_on_c, 1, 64, 0
3, 80064, Note_on_c, 1, 73, 83
3, 80064, Note_on_c, 1, 69, 83
3, 80156, Note_on_c, 1, 69, 0
3, 80156, Note_on_c, 1, 73, 0
3, 80160, Note_on_c, 1, 64, 83
3, 80252, Note_on_c, 1, 64, 0
3, 80256, Note_on_c, 1, 73, 85
3, 80256, Note_on_c, 1, 69, 85
3, 80348, Note_on_c, 1, 69, 0
3, 80348, Note_on_c, 1, 73, 0
3, 80352, Note_on_c, 1, 64, 86
3, 80444, Note_on_c, 1, 64, 0
3, 80448, Note_on_c, 1, 73, 86
3, 80448, Note_on_c, 1, 69, 86
3, 80540, Note_on_c, 1, 69, 0
3, 80540, Note_on_c, 1, 73, 0
3, 80544, Note_on_c, 1, 64, 87
3, 80636, Note_on_c, 1, 64, 0
3, 80640, Note_on_c, 1, 74, 88
3, 80640, Note_on_c, 1, 71, 88
3, 80640, Note_on_c, 1, 68, 88
3, 80732, Note_on_c, 1, 68, 0
3, 80732, Note_on_c, 1, 71, 0
3, 80732, Note_on_c, 1, 74, 0
3, 80736, Note_on_c, 1, 64, 88
3, 80828, Note_on_c, 1, 64, 0
3, 80832, Note_on_c, 1, 74, 89
3, 80832, Note_on_c, 1, 71, 89
3, 80832, Note_on_c, 1, 68, 89
3, 80924, Note_on_c, 1, 68, 0
3, 80924, Note_on_c, 1, 71, 0
3, 80924, Note_on_c, 1, 74, 0
3, 80928, Note_on_c, 1, 64, 89
3, 81020, Note_on_c, 1, 64, 0
3, 81024, Note_on_c, 1, 80, 90
3, 81024, Note_on_c, 1, 76, 90
3, 81024, Note_on_c, 1, 74, 90
3, 81116, Note_on_c, 1, 74, 0
3, 81116, Note_on_c, 1, 76, 0
3, 81116, Note_on_c, 1, 80, 0
3, 81120, Note_on_c, 1, 71, 91
3, 81212, Note_on_c, 1, 71, 0
3, 81216, Note_on_c, 1, 80, 91
3, 81216, Note_on_c, 1, 76, 91
3, 81216, Note_on_c, 1, 74, 91
3, 81308, Note_on_c, 1, 74, 0
3, 81308, Note_on_c, 1, 76, 0
3, 81308, Note_on_c, 1, 80, 0
3, 81312, Note_on_c, 1, 71, 92
3, 81404, Note_on_c, 1, 71, 0
3, 81408, Note_on_c, 1, 81, 92
3, 81408, Note_on_c, 1, 76, 92
3, 81408, Note_on_c, 1, 73, 92
3, 81408, Note_on_c, 1, 69, 92
3, 81596, Note_on_c, 1, 69, 0
3, 81596, Note_on_c, 1, 81, 0
3, 81596, Note_on_c, 1, 76, 0
3, 81596, Note_on_c, 1, 73, 0
3, 81600, Note_on_c, 1, 69, 92
3, 81660, Note_on_c, 1, 69, 0
3, 81664, Note_on_c, 1, 71, 92
3, 81724, Note_on_c, 1, 71, 0
3, 81728, Note_on_c, 1, 69, 92
3, 81788, Note_on_c, 1, 69, 0
3, 81792, Note_on_c, 1, 68, 92
3, 81852, Note_on_c, 1, 68, 0
3, 81856, Note_on_c, 1, 69, 92
3, 81916, Note_on_c, 1, 69, 0
3, 81920, Note_on_c, 1, 68, 92
3, 81980, Note_on_c, 1, 68, 0
3, 81984, Note_on_c, 1, 66, 92
3, 82044, Note_on_c, 1, 66, 0
3, 82048, Note_on_c, 1, 68, 92
3, 82108, Note_on_c, 1, 68, 0
3, 82112, Note_on_c, 1, 66, 92
3, 82172, Note_on_c, 1, 66, 0
3, 82176, Note_on_c, 1, 64, 92
3, 82364, Note_on_c, 1, 64, 0
3, 82368, Note_on_c, 1, 81, 92
3, 82368, Note_on_c, 1, 69, 92
3, 82428, Note_on_c, 1, 81, 0
3, 82432, Note_on_c, 1, 83, 92
3, 82492, Note_on_c, 1, 83, 0
3, 82496, Note_on_c, 1, 81, 92
3, 82556, Note_on_c, 1, 81, 0
3, 82560, Note_on_c, 1, 80, 92
3, 82620, Note_on_c, 1, 80, 0
3, 82624, Note_on_c, 1, 81, 92
3, 82684, Note_on_c, 1, 81, 0
3, 82688, Note_on_c, 1, 80, 92
3, 82748, Note_on_c, 1, 80, 0
3, 82752, Note_on_c, 1, 78, 92
3, 82812, Note_on_c, 1, 78, 0
3, 82816, Note_on_c, 1, 80, 92
3, 82876, Note_on_c, 1, 80, 0
3, 82880, Note_on_c, 1, 78, 92
3, 82940, Note_on_c, 1, 78, 0
3, 82944, Note_on_c, 1, 69, 98
3, 83136, Note_on_c, 1, 78, 92
3, 83196, Note_on_c, 1, 78, 0
3, 83200, Note_on_c, 1, 80, 92
3, 83260, Note_on_c, 1, 80, 0
3, 83264, Note_on_c, 1, 78, 92
3, 83324, Note_on_c, 1, 78, 0
3, 83328, Note_on_c, 1, 76, 92
3, 83388, Note_on_c, 1, 76, 0
3, 83392, Note_on_c, 1, 78, 92
3, 83452, Note_on_c, 1, 78, 0
3, 83456, Note_on_c, 1, 76, 92
3, 83516, Note_on_c, 1, 76, 0
3, 83520, Note_on_c, 1, 74, 92
3, 83580, Note_on_c, 1, 74, 0
3, 83584, Note_on_c, 1, 76, 92
3, 83644, Note_on_c, 1, 76, 0
3, 83648, Note_on_c, 1, 74, 92
3, 83708, Note_on_c, 1, 74, 0
3, 83708, Note_on_c, 1, 69, 0
3, 83708, Note_on_c, 1, 69, 0
3, 83712, Note_on_c, 1, 73, 92
3, 83712, Note_on_c, 1, 69, 92
3, 83900, Note_on_c, 1, 69, 0
3, 83900, Note_on_c, 1, 73, 0
3, 83904, Note_on_c, 1, 69, 92
3, 83904, Note_on_c, 1, 76, 92
3, 83904, Note_on_c, 1, 64, 92
3, 84044, Note_on_c, 1, 69, 0
3, 84048, Note_on_c, 1, 69, 98
3, 84092, Note_on_c, 1, 69, 0
3, 84096, Note_on_c, 1, 69, 92
3, 84284, Note_on_c, 1, 69, 0
3, 84284, Note_on_c, 1, 64, 0
3, 84284, Note_on_c, 1, 76, 0
3, 84288, Note_on_c, 1, 69, 92
3, 84288, Note_on_c, 1, 77, 92
3, 84288, Note_on_c, 1, 65, 92
3, 84476, Note_on_c, 1, 65, 0
3, 84476, Note_on_c, 1, 77, 0
3, 84476, Note_on_c, 1, 69, 0
3, 84480, Note_on_c, 1, 76, 92
3, 84480, Note_on_c, 1, 64, 92
3, 84572, Note_on_c, 1, 64, 0
3, 84572, Note_on_c, 1, 76, 0
3, 84576, Note_on_c, 1, 78, 92
3, 84576, Note_on_c, 1, 66, 92
3, 84668, Note_on_c, 1, 66, 0
3, 84668, Note_on_c, 1, 78, 0
3, 84672, Note_on_c, 1, 71, 92
3, 84672, Note_on_c, 1, 66, 92
3, 84812, Note_on_c, 1, 66, 0
3, 84816, Note_on_c, 1, 66, 98
3, 84860, Note_on_c, 1, 66, 0
3, 84864, Note_on_c, 1, 66, 92
3, 85052, Note_on_c, 1, 66, 0
3, 85052, Note_on_c, 1, 71, 0
3, 85056, Note_on_c, 1, 66, 92
3, 85056, Note_on_c, 1, 72, 92
3, 85244, Note_on_c, 1, 72, 0
3, 85244, Note_on_c, 1, 66, 0
3, 85248, Note_on_c, 1, 69, 92
3, 85248, Note_on_c, 1, 64, 92
3, 85248, Note_on_c, 1, 72, 92
3, 85340, Note_on_c, 1, 72, 0
3, 85344, Note_on_c, 1, 73, 92
3, 85436, Note_on_c, 1, 73, 0
3, 85436, Note_on_c, 1, 64, 0
3, 85436, Note_on_c, 1, 69, 0
3, 85440, Note_on_c, 1, 75, 92
3, 85532, Note_on_c, 1, 75, 0
3, 85536, Note_on_c, 1, 76, 92
3, 85628, Note_on_c, 1, 76, 0
3, 85632, Note_on_c, 1, 71, 92
3, 85660, Note_on_c, 1, 71, 0
3, 85664, Note_on_c, 1, 73, 92
3, 85692, Note_on_c, 1, 73, 0
3, 85696, Note_on_c, 1, 71, 92
3, 85724, Note_on_c, 1, 71, 0
3, 85728, Note_on_c, 1, 73, 92
3, 85756, Note_on_c, 1, 73, 0
3, 85760, Note_on_c, 1, 71, 92
3, 85788, Note_on_c, 1, 71, 0
3, 85792, Note_on_c, 1, 73, 92
3, 85820, Note_on_c, 1, 73, 0
3, 85824, Note_on_c, 1, 71, 92
3, 85852, Note_on_c, 1, 71, 0
3, 85856, Note_on_c, 1, 73, 92
3, 85884, Note_on_c, 1, 73, 0
3, 85888, Note_on_c, 1, 71, 92
3, 85916, Note_on_c, 1, 71, 0
3, 85920, Note_on_c, 1, 69, 92
3, 85964, Note_on_c, 1, 69, 0
3, 85968, Note_on_c, 1, 71, 92
3, 86012, Note_on_c, 1, 71, 0
3, 86016, Note_on_c, 1, 69, 92
3, 86204, Note_on_c, 1, 69, 0
3, 86400, Note_on_c, 1, 69, 70
3, 86492, Note_on_c, 1, 69, 0
3, 86496, Note_on_c, 1, 68, 70
3, 86588, Note_on_c, 1, 68, 0
3, 86592, Note_on_c, 1, 66, 70
3, 86684, Note_on_c, 1, 66, 0
3, 86688, Note_on_c, 1, 64, 70
3, 86780, Note_on_c, 1, 64, 0
3, 86784, Note_on_c, 1, 64, 70
3, 86876, Note_on_c, 1, 64, 0
3, 86880, Note_on_c, 1, 63, 70
3, 86972, Note_on_c, 1, 63, 0
3, 86976, Note_on_c, 1, 63, 70
3, 87072, Note_on_c, 1, 63, 0
3, 87072, Note_on_c, 1, 63, 70
3, 87168, Note_on_c, 1, 63, 0
3, 87168, Note_on_c, 1, 57, 70
3, 87168, Note_on_c, 1, 63, 70
3, 87260, Note_on_c, 1, 57, 0
3, 87264, Note_on_c, 1, 59, 70
3, 87356, Note_on_c, 1, 59, 0
3, 87356, Note_on_c, 1, 63, 0
3, 87360, Note_on_c, 1, 57, 70
3, 87360, Note_on_c, 1, 63, 70
3, 87452, Note_on_c, 1, 57, 0
3, 87456, Note_on_c, 1, 59, 70
3, 87548, Note_on_c, 1, 59, 0
3, 87548, Note_on_c, 1, 63, 0
3, 87552, Note_on_c, 1, 56, 70
3, 87552, Note_on_c, 1, 64, 70
3, 87836, Note_on_c, 1, 64, 0
3, 87840, Note_on_c, 1, 65, 70
3, 87932, Note_on_c, 1, 65, 0
3, 87932, Note_on_c, 1, 56, 0
3, 87936, Note_on_c, 1, 66, 70
3, 88028, Note_on_c, 1, 66, 0
3, 88032, Note_on_c, 1, 64, 70
3, 88124, Note_on_c, 1, 64, 0
3, 88128, Note_on_c, 1, 62, 70
3, 88220, Note_on_c, 1, 62, 0
3, 88224, Note_on_c, 1, 61, 70
3, 88316, Note_on_c, 1, 61, 0
3, 88320, Note_on_c, 1, 61, 70
3, 88412, Note_on_c, 1, 61, 0
3, 88416, Note_on_c, 1, 59, 70
3, 88508, Note_on_c, 1, 59, 0
3, 88512, Note_on_c, 1, 59, 70
3, 88608, Note_on_c, 1, 59, 0
3, 88608, Note_on_c, 1, 59, 70
3, 88704, Note_on_c, 1, 59, 0
3, 88704, Note_on_c, 1, 59, 70
3, 88704, Note_on_c, 1, 56, 70
3, 88796, Note_on_c, 1, 56, 0
3, 88796, Note_on_c, 1, 59, 0
3, 88800, Note_on_c, 1, 62, 70
3, 88800, Note_on_c, 1, 59, 70
3, 88892, Note_on_c, 1, 59, 0
3, 88892, Note_on_c, 1, 62, 0
3, 88896, Note_on_c, 1, 61, 70
3, 88896, Note_on_c, 1, 57, 70
3, 88988, Note_on_c, 1, 57, 0
3, 88988, Note_on_c, 1, 61, 0
3, 88992, Note_on_c, 1, 59, 70
3, 88992, Note_on_c, 1, 56, 70
3, 89084, Note_on_c, 1, 56, 0
3, 89084, Note_on_c, 1, 59, 0
3, 89088, Note_on_c, 1, 57, 70
3, 89276, Note_on_c, 1, 57, 0
3, 89280, Note_on_c, 1, 61, 92
3, 89420, Note_on_c, 1, 61, 0
3, 89424, Note_on_c, 1, 57, 98
3, 89468, Note_on_c, 1, 57, 0
3, 89472, Note_on_c, 1, 62, 92
3, 89660, Note_on_c, 1, 62, 0
3, 89664, Note_on_c, 1, 63, 92
3, 89804, Note_on_c, 1, 63, 0
3, 89808, Note_on_c, 1, 59, 98
3, 89852, Note_on_c, 1, 59, 0
3, 89856, Note_on_c, 1, 64, 92
3, 90044, Note_on_c, 1, 64, 0
3, 90048, Note_on_c, 1, 65, 92
3, 90188, Note_on_c, 1, 65, 0
3, 90192, Note_on_c, 1, 61, 98
3, 90236, Note_on_c, 1, 61, 0
3, 90240, Note_on_c, 1, 66, 92
3, 90428, Note_on_c, 1, 66, 0
3, 90432, Note_on_c, 1, 68, 92
3, 90572, Note_on_c, 1, 68, 0
3, 90576, Note_on_c, 1, 65, 98
3, 90620, Note_on_c, 1, 65, 0
3, 90624, Note_on_c, 1, 69, 92
3, 90716, Note_on_c, 1, 69, 0
3, 90720, Note_on_c, 1, 69, 92
3, 90720, Note_on_c, 1, 81, 92
3, 90908, Note_on_c, 1, 81, 0
3, 90908, Note_on_c, 1, 69, 0
3, 90912, Note_on_c, 1, 79, 92
3, 90912, Note_on_c, 1, 69, 92
3, 91100, Note_on_c, 1, 69, 0
3, 91100, Note_on_c, 1, 79, 0
3, 91104, Note_on_c, 1, 69, 92
3, 91104, Note_on_c, 1, 78, 92
3, 91292, Note_on_c, 1, 78, 0
3, 91292, Note_on_c, 1, 69, 0
3, 91296, Note_on_c, 1, 76, 92
3, 91296, Note_on_c, 1, 69, 92
3, 91388, Note_on_c, 1, 69, 0
3, 91388, Note_on_c, 1, 76, 0
3, 91392, Note_on_c, 1, 76, 92
3, 91392, Note_on_c, 1, 69, 92
3, 91484, Note_on_c, 1, 76, 0
3, 91488, Note_on_c, 1, 78, 92
3, 91580, Note_on_c, 1, 78, 0
3, 91580, Note_on_c, 1, 69, 0
3, 91584, Note_on_c, 1, 76, 92
3, 91584, Note_on_c, 1, 69, 92
3, 91676, Note_on_c, 1, 76, 0
3, 91680, Note_on_c, 1, 78, 92
3, 91760, Note_on_c, 1, 68, 92
3, 91772, Note_on_c, 1, 78, 0
3, 91772, Note_on_c, 1, 69, 0
3, 91776, Note_on_c, 1, 76, 92
3, 91852, Note_on_c, 1, 68, 0
3, 91868, Note_on_c, 1, 76, 0
3, 91872, Note_on_c, 1, 74, 92
3, 91872, Note_on_c, 1, 66, 92
3, 91952, Note_on_c, 1, 64, 92
3, 91964, Note_on_c, 1, 66, 0
3, 91964, Note_on_c, 1, 74, 0
3, 91968, Note_on_c, 1, 73, 92
3, 92044, Note_on_c, 1, 64, 0
3, 92048, Note_on_c, 1, 62, 92
3, 92060, Note_on_c, 1, 73, 0
3, 92064, Note_on_c, 1, 71, 92
3, 92140, Note_on_c, 1, 62, 0
3, 92156, Note_on_c, 1, 71, 0
3, 92160, Note_on_c, 1, 69, 92
3, 92160, Note_on_c, 1, 61, 92
3, 92540, Note_on_c, 1, 61, 0
3, 92540, Note_on_c, 1, 69, 0
3, 92544, Note_on_c, 1, 71, 98
3, 92572, Note_on_c, 1, 71, 0
3, 92576, Note_on_c, 1, 73, 98
3, 92604, Note_on_c, 1, 73, 0
3, 92608, Note_on_c, 1, 71, 98
3, 92636, Note_on_c, 1, 71, 0
3, 92640, Note_on_c, 1, 73, 98
3, 92668, Note_on_c, 1, 73, 0
3, 92672, Note_on_c, 1, 71, 98
3, 92700, Note_on_c, 1, 71, 0
3, 92704, Note_on_c, 1, 73, 98
3, 92732, Note_on_c, 1, 73, 0
3, 92736, Note_on_c, 1, 71, 98
3, 92764, Note_on_c, 1, 71, 0
3, 92768, Note_on_c, 1, 73, 98
3, 92796, Note_on_c, 1, 73, 0
3, 92800, Note_on_c, 1, 71, 98
3, 92828, Note_on_c, 1, 71, 0
3, 92832, Note_on_c, 1, 69, 98
3, 92876, Note_on_c, 1, 69, 0
3, 92880, Note_on_c, 1, 71, 98
3, 92924, Note_on_c, 1, 71, 0
3, 92928, Note_on_c, 1, 69, 92
3, 93020, Note_on_c, 1, 69, 0
3, 93024, Note_on_c, 1, 69, 70
3, 93216, Note_on_c, 1, 69, 0
3, 93216, Note_on_c, 1, 67, 70
3, 93408, Note_on_c, 1, 67, 0
3, 93408, Note_on_c, 1, 66, 70
3, 93600, Note_on_c, 1, 66, 0
3, 93600, Note_on_c, 1, 65, 70
3, 93648, Note_on_c, 1, 65, 0
3, 93696, Note_on_c, 1, 64, 70
3, 93788, Note_on_c, 1, 64, 0
3, 93792, Note_on_c, 1, 66, 70
3, 93884, Note_on_c, 1, 66, 0
3, 93888, Note_on_c, 1, 64, 70
3, 93980, Note_on_c, 1, 64, 0
3, 93984, Note_on_c, 1, 66, 70
3, 94076, Note_on_c, 1, 66, 0
3, 94080, Note_on_c, 1, 70, 70
3, 94172, Note_on_c, 1, 70, 0
3, 94176, Note_on_c, 1, 71, 70
3, 94268, Note_on_c, 1, 71, 0
3, 94272, Note_on_c, 1, 70, 70
3, 94272, Note_on_c, 1, 78, 81
3, 94364, Note_on_c, 1, 78, 0
3, 94364, Note_on_c, 1, 70, 0
3, 94368, Note_on_c, 1, 71, 70
3, 94460, Note_on_c, 1, 71, 0
3, 94464, Note_on_c, 1, 64, 70
3, 94556, Note_on_c, 1, 64, 0
3, 94560, Note_on_c, 1, 66, 70
3, 94652, Note_on_c, 1, 66, 0
3, 94656, Note_on_c, 1, 64, 70
3, 94656, Note_on_c, 1, 74, 81
3, 94748, Note_on_c, 1, 74, 0
3, 94748, Note_on_c, 1, 64, 0
3, 94752, Note_on_c, 1, 66, 70
3, 94844, Note_on_c, 1, 66, 0
3, 94848, Note_on_c, 1, 61, 70
3, 94940, Note_on_c, 1, 61, 0
3, 94944, Note_on_c, 1, 62, 70
3, 95036, Note_on_c, 1, 62, 0
3, 95040, Note_on_c, 1, 61, 70
3, 95040, Note_on_c, 1, 71, 81
3, 95132, Note_on_c, 1, 71, 0
3, 95132, Note_on_c, 1, 61, 0
3, 95136, Note_on_c, 1, 62, 70
3, 95228, Note_on_c, 1, 62, 0
3, 95232, Note_on_c, 1, 76, 70
3, 95612, Note_on_c, 1, 76, 0
3, 95616, Note_on_c, 1, 76, 70
3, 95900, Note_on_c, 1, 76, 0
3, 95904, Note_on_c, 1, 78, 76
3, 95996, Note_on_c, 1, 78, 0
3, 96000, Note_on_c, 1, 69, 70
3, 96380, Note_on_c, 1, 69, 0
3, 96384, Note_on_c, 1, 68, 70
3, 96412, Note_on_c, 1, 68, 0
3, 96416, Note_on_c, 1, 69, 70
3, 96444, Note_on_c, 1, 69, 0
3, 96448, Note_on_c, 1, 68, 70
3, 96476, Note_on_c, 1, 68, 0
3, 96480, Note_on_c, 1, 69, 70
3, 96508, Note_on_c, 1, 69, 0
3, 96512, Note_on_c, 1, 68, 70
3, 96540, Note_on_c, 1, 68, 0
3, 96544, Note_on_c, 1, 69, 70
3, 96572, Note_on_c, 1, 69, 0
3, 96576, Note_on_c, 1, 66, 70
3, 96620, Note_on_c, 1, 66, 0
3, 96624, Note_on_c, 1, 68, 70
3, 96668, Note_on_c, 1, 68, 0
3, 96768, Note_on_c, 1, 69, 59
3, 96860, Note_on_c, 1, 69, 0
3, 96864, Note_on_c, 1, 73, 59
3, 96956, Note_on_c, 1, 73, 0
3, 96960, Note_on_c, 1, 76, 59
3, 97052, Note_on_c, 1, 76, 0
3, 97056, Note_on_c, 1, 73, 59
3, 97148, Note_on_c, 1, 73, 0
3, 97248, Note_on_c, 1, 69, 59
3, 97248, Note_on_c, 1, 66, 59
3, 97340, Note_on_c, 1, 66, 0
3, 97340, Note_on_c, 1, 69, 0
3, 97344, Note_on_c, 1, 68, 59
3, 97344, Note_on_c, 1, 64, 59
3, 97436, Note_on_c, 1, 64, 0
3, 97436, Note_on_c, 1, 68, 0
3, 97440, Note_on_c, 1, 66, 59
3, 97440, Note_on_c, 1, 62, 59
3, 97532, Note_on_c, 1, 62, 0
3, 97532, Note_on_c, 1, 66, 0
3, 97536, Note_on_c, 1, 64, 59
3, 97536, Note_on_c, 1, 61, 59
3, 97628, Note_on_c, 1, 61, 0
3, 97628, Note_on_c, 1, 64, 0
3, 97632, Note_on_c, 1, 69, 59
3, 97724, Note_on_c, 1, 69, 0
3, 97728, Note_on_c, 1, 73, 59
3, 97820, Note_on_c, 1, 73, 0
3, 97824, Note_on_c, 1, 69, 59
3, 97916, Note_on_c, 1, 69, 0
3, 98000, Note_on_c, 1, 62, 59
3, 98016, Note_on_c, 1, 66, 59
3, 98092, Note_on_c, 1, 62, 0
3, 98108, Note_on_c, 1, 66, 0
3, 98112, Note_on_c, 1, 64, 59
3, 98112, Note_on_c, 1, 61, 59
3, 98204, Note_on_c, 1, 61, 0
3, 98204, Note_on_c, 1, 64, 0
3, 98208, Note_on_c, 1, 62, 59
3, 98208, Note_on_c, 1, 59, 59
3, 98300, Note_on_c, 1, 59, 0
3, 98300, Note_on_c, 1, 62, 0
3, 98304, Note_on_c, 1, 61, 59
3, 98304, Note_on_c, 1, 57, 59
3, 98396, Note_on_c, 1, 57, 0
3, 98396, Note_on_c, 1, 61, 0
3, 98400, Note_on_c, 1, 64, 59
3, 98492, Note_on_c, 1, 64, 0
3, 98496, Note_on_c, 1, 69, 59
3, 98588, Note_on_c, 1, 69, 0
3, 98592, Note_on_c, 1, 64, 59
3, 98684, Note_on_c, 1, 64, 0
3, 98784, Note_on_c, 1, 62, 59
3, 98876, Note_on_c, 1, 62, 0
3, 98880, Note_on_c, 1, 64, 59
3, 98972, Note_on_c, 1, 64, 0
3, 98976, Note_on_c, 1, 66, 59
3, 99068, Note_on_c, 1, 66, 0
3, 99072, Note_on_c, 1, 64, 59
3, 99164, Note_on_c, 1, 64, 0
3, 99168, Note_on_c, 1, 61, 59
3, 99260, Note_on_c, 1, 61, 0
3, 99264, Note_on_c, 1, 64, 59
3, 99264, Note_on_c, 1, 62, 59
3, 99356, Note_on_c, 1, 64, 0
3, 99360, Note_on_c, 1, 59, 59
3, 99452, Note_on_c, 1, 59, 0
3, 99452, Note_on_c, 1, 62, 0
3, 99456, Note_on_c, 1, 57, 59
3, 99456, Note_on_c, 1, 61, 59
3, 99548, Note_on_c, 1, 61, 0
3, 99548, Note_on_c, 1, 57, 0
3, 99552, Note_on_c, 1, 64, 59
3, 99552, Note_on_c, 1, 69, 59
3, 99644, Note_on_c, 1, 69, 0
3, 99644, Note_on_c, 1, 64, 0
3, 99648, Note_on_c, 1, 62, 59
3, 99648, Note_on_c, 1, 68, 59
3, 99740, Note_on_c, 1, 68, 0
3, 99740, Note_on_c, 1, 62, 0
3, 99744, Note_on_c, 1, 69, 59
3, 99744, Note_on_c, 1, 61, 59
3, 99836, Note_on_c, 1, 61, 0
3, 99836, Note_on_c, 1, 69, 0
3, 99840, Note_on_c, 1, 68, 59
3, 99840, Note_on_c, 1, 59, 59
3, 100220, Note_on_c, 1, 59, 0
3, 100220, Note_on_c, 1, 68, 0
3, 100416, Note_on_c, 1, 71, 76
3, 100416, Note_on_c, 1, 68, 76
3, 100416, Note_on_c, 1, 64, 76
3, 100604, Note_on_c, 1, 64, 0
3, 100604, Note_on_c, 1, 68, 0
3, 100604, Note_on_c, 1, 71, 0
3, 100608, Note_on_c, 1, 73, 76
3, 100608, Note_on_c, 1, 69, 76
3, 100608, Note_on_c, 1, 64, 76
3, 100988, Note_on_c, 1, 64, 0
3, 100988, Note_on_c, 1, 69, 0
3, 100988, Note_on_c, 1, 73, 0
3, 101184, Note_on_c, 1, 73, 76
3, 101184, Note_on_c, 1, 69, 76
3, 101184, Note_on_c, 1, 64, 76
3, 101372, Note_on_c, 1, 64, 0
3, 101372, Note_on_c, 1, 69, 0
3, 101372, Note_on_c, 1, 73, 0
3, 101376, Note_on_c, 1, 74, 70
3, 101376, Note_on_c, 1, 66, 70
3, 101564, Note_on_c, 1, 66, 0
3, 101568, Note_on_c, 1, 64, 71
3, 101660, Note_on_c, 1, 64, 0
3, 101664, Note_on_c, 1, 62, 73
3, 101756, Note_on_c, 1, 62, 0
3, 101756, Note_on_c, 1, 74, 0
3, 101760, Note_on_c, 1, 62, 74
3, 101852, Note_on_c, 1, 62, 0
3, 101856, Note_on_c, 1, 61, 76
3, 101948, Note_on_c, 1, 61, 0
3, 101952, Note_on_c, 1, 68, 77
3, 101952, Note_on_c, 1, 61, 77
3, 102044, Note_on_c, 1, 61, 0
3, 102048, Note_on_c, 1, 59, 79
3, 102140, Note_on_c, 1, 59, 0
3, 102140, Note_on_c, 1, 68, 0
3, 102144, Note_on_c, 1, 69, 80
3, 102144, Note_on_c, 1, 57, 80
3, 102236, Note_on_c, 1, 57, 0
3, 102240, Note_on_c, 1, 59, 81
3, 102332, Note_on_c, 1, 59, 0
3, 102336, Note_on_c, 1, 60, 83
3, 102428, Note_on_c, 1, 60, 0
3, 102432, Note_on_c, 1, 61, 85
3, 102524, Note_on_c, 1, 61, 0
3, 102524, Note_on_c, 1, 69, 0
3, 102528, Note_on_c, 1, 61, 87
3, 102620, Note_on_c, 1, 61, 0
3, 102624, Note_on_c, 1, 73, 82
3, 102624, Note_on_c, 1, 64, 82
3, 102716, Note_on_c, 1, 64, 0
3, 102716, Note_on_c, 1, 73, 0
3, 102720, Note_on_c, 1, 71, 78
3, 102720, Note_on_c, 1, 62, 78
3, 102812, Note_on_c, 1, 62, 0
3, 102812, Note_on_c, 1, 71, 0
3, 102816, Note_on_c, 1, 69, 74
3, 102816, Note_on_c, 1, 61, 74
3, 102908, Note_on_c, 1, 61, 0
3, 102908, Note_on_c, 1, 69, 0
3, 102912, Note_on_c, 1, 68, 70
3, 102912, Note_on_c, 1, 59, 70
3, 103292, Note_on_c, 1, 59, 0
3, 103292, Note_on_c, 1, 68, 0
3, 103488, Note_on_c, 1, 71, 70
3, 103488, Note_on_c, 1, 68, 70
3, 103488, Note_on_c, 1, 64, 70
3, 103676, Note_on_c, 1, 64, 0
3, 103676, Note_on_c, 1, 68, 0
3, 103676, Note_on_c, 1, 71, 0
3, 103680, Note_on_c, 1, 73, 70
3, 103680, Note_on_c, 1, 69, 70
3, 103680, Note_on_c, 1, 64, 70
3, 104060, Note_on_c, 1, 64, 0
3, 104060, Note_on_c, 1, 69, 0
3, 104060, Note_on_c, 1, 73, 0
3, 104256, Note_on_c, 1, 69, 70
3, 104256, Note_on_c, 1, 64, 70
3, 104256, Note_on_c, 1, 61, 70
3, 104444, Note_on_c, 1, 61, 0
3, 104444, Note_on_c, 1, 64, 0
3, 104444, Note_on_c, 1, 69, 0
3, 104448, Note_on_c, 1, 66, 70
3, 104448, Note_on_c, 1, 62, 70
3, 104732, Note_on_c, 1, 66, 0
3, 104736, Note_on_c, 1, 74, 70
3, 104828, Note_on_c, 1, 74, 0
3, 104828, Note_on_c, 1, 62, 0
3, 104832, Note_on_c, 1, 74, 70
3, 105008, Note_on_c, 1, 64, 70
3, 105020, Note_on_c, 1, 74, 0
3, 105024, Note_on_c, 1, 73, 70
3, 105024, Note_on_c, 1, 67, 70
3, 105164, Note_on_c, 1, 73, 0
3, 105168, Note_on_c, 1, 71, 70
3, 105196, Note_on_c, 1, 64, 0
3, 105212, Note_on_c, 1, 71, 0
3, 105212, Note_on_c, 1, 67, 0
3, 105216, Note_on_c, 1, 69, 70
3, 105216, Note_on_c, 1, 64, 70
3, 105316, Note_on_c, 1, 64, 0
3, 105316, Note_on_c, 1, 69, 0
3, 105408, Note_on_c, 1, 64, 70
3, 105408, Note_on_c, 1, 61, 70
3, 105408, Note_on_c, 1, 57, 70
3, 105508, Note_on_c, 1, 57, 0
3, 105508, Note_on_c, 1, 61, 0
3, 105508, Note_on_c, 1, 64, 0
3, 105600, Note_on_c, 1, 57, 92
3, 105660, Note_on_c, 1, 57, 0
3, 105664, Note_on_c, 1, 59, 92
3, 105724, Note_on_c, 1, 59, 0
3, 105728, Note_on_c, 1, 57, 92
3, 105788, Note_on_c, 1, 57, 0
3, 105792, Note_on_c, 1, 59, 92
3, 105852, Note_on_c, 1, 59, 0
3, 105856, Note_on_c, 1, 60, 92
3, 105916, Note_on_c, 1, 60, 0
3, 105920, Note_on_c, 1, 59, 92
3, 105980, Note_on_c, 1, 59, 0
3, 105984, Note_on_c, 1, 60, 92
3, 106364, Note_on_c, 1, 60, 0
3, 106752, Note_on_c, 1, 73, 70
3, 106752, Note_on_c, 1, 64, 70
3, 106944, Note_on_c, 1, 64, 0
3, 106944, Note_on_c, 1, 73, 0
3, 106944, Note_on_c, 1, 71, 70
3, 106944, Note_on_c, 1, 62, 70
3, 107132, Note_on_c, 1, 62, 0
3, 107132, Note_on_c, 1, 71, 0
3, 107136, Note_on_c, 1, 61, 70
3, 107136, Note_on_c, 1, 70, 70
3, 107324, Note_on_c, 1, 70, 0
3, 107324, Note_on_c, 1, 61, 0
3, 107328, Note_on_c, 1, 59, 70
3, 107328, Note_on_c, 1, 67, 70
3, 107512, Note_on_c, 1, 67, 0
3, 107512, Note_on_c, 1, 59, 0
3, 107520, Note_on_c, 1, 66, 70
3, 107520, Note_on_c, 1, 58, 70
3, 107708, Note_on_c, 1, 58, 0
3, 107708, Note_on_c, 1, 66, 0
3, 107712, Note_on_c, 1, 64, 70
3, 107712, Note_on_c, 1, 58, 70
3, 107900, Note_on_c, 1, 64, 0
3, 107904, Note_on_c, 1, 62, 70
3, 108092, Note_on_c, 1, 62, 0
3, 108092, Note_on_c, 1, 58, 0
3, 108096, Note_on_c, 1, 61, 70
3, 108096, Note_on_c, 1, 58, 70
3, 108284, Note_on_c, 1, 58, 0
3, 108284, Note_on_c, 1, 61, 0
3, 108288, Note_on_c, 1, 59, 70
3, 108476, Note_on_c, 1, 59, 0
3, 108480, Note_on_c, 1, 66, 67
3, 108480, Note_on_c, 1, 62, 67
3, 108524, Note_on_c, 1, 62, 0
3, 108524, Note_on_c, 1, 66, 0
3, 108528, Note_on_c, 1, 67, 67
3, 108528, Note_on_c, 1, 64, 67
3, 108572, Note_on_c, 1, 64, 0
3, 108572, Note_on_c, 1, 67, 0
3, 108576, Note_on_c, 1, 66, 67
3, 108576, Note_on_c, 1, 62, 67
3, 108620, Note_on_c, 1, 62, 0
3, 108620, Note_on_c, 1, 66, 0
3, 108624, Note_on_c, 1, 64, 70
3, 108624, Note_on_c, 1, 61, 70
3, 108668, Note_on_c, 1, 61, 0
3, 108668, Note_on_c, 1, 64, 0
3, 108672, Note_on_c, 1, 62, 70
3, 108672, Note_on_c, 1, 59, 70
3, 108860, Note_on_c, 1, 59, 0
3, 108860, Note_on_c, 1, 62, 0
3, 109056, Note_on_c, 1, 74, 70
3, 109056, Note_on_c, 1, 71, 70
3, 109244, Note_on_c, 1, 71, 0
3, 109244, Note_on_c, 1, 74, 0
3, 109248, Note_on_c, 1, 74, 70
3, 109248, Note_on_c, 1, 71, 70
3, 109436, Note_on_c, 1, 71, 0
3, 109436, Note_on_c, 1, 74, 0
3, 109440, Note_on_c, 1, 74, 70
3, 109440, Note_on_c, 1, 71, 70
3, 109628, Note_on_c, 1, 71, 0
3, 109628, Note_on_c, 1, 74, 0
3, 109632, Note_on_c, 1, 74, 70
3, 109632, Note_on_c, 1, 71, 70
3, 109820, Note_on_c, 1, 71, 0
3, 109820, Note_on_c, 1, 74, 0
3, 109824, Note_on_c, 1, 74, 70
3, 109824, Note_on_c, 1, 71, 70
3, 110012, Note_on_c, 1, 71, 0
3, 110012, Note_on_c, 1, 74, 0
3, 110016, Note_on_c, 1, 74, 70
3, 110016, Note_on_c, 1, 71, 70
3, 110204, Note_on_c, 1, 71, 0
3, 110204, Note_on_c, 1, 74, 0
3, 110208, Note_on_c, 1, 74, 70
3, 110208, Note_on_c, 1, 71, 70
3, 110400, Note_on_c, 1, 71, 0
3, 110400, Note_on_c, 1, 74, 0
3, 110400, Note_on_c, 1, 73, 70
3, 110400, Note_on_c, 1, 71, 70
3, 110584, Note_on_c, 1, 71, 0
3, 110584, Note_on_c, 1, 73, 0
3, 110592, Note_on_c, 1, 73, 70
3, 110592, Note_on_c, 1, 70, 70
3, 110780, Note_on_c, 1, 70, 0
3, 110780, Note_on_c, 1, 73, 0
3, 110784, Note_on_c, 1, 73, 70
3, 110784, Note_on_c, 1, 70, 70
3, 110972, Note_on_c, 1, 70, 0
3, 110972, Note_on_c, 1, 73, 0
3, 110976, Note_on_c, 1, 73, 70
3, 110976, Note_on_c, 1, 70, 70
3, 111164, Note_on_c, 1, 70, 0
3, 111164, Note_on_c, 1, 73, 0
3, 111168, Note_on_c, 1, 73, 70
3, 111168, Note_on_c, 1, 69, 70
3, 111356, Note_on_c, 1, 69, 0
3, 111356, Note_on_c, 1, 73, 0
3, 111360, Note_on_c, 1, 72, 70
3, 111360, Note_on_c, 1, 69, 70
3, 111548, Note_on_c, 1, 69, 0
3, 111548, Note_on_c, 1, 72, 0
3, 111552, Note_on_c, 1, 72, 70
3, 111552, Note_on_c, 1, 69, 70
3, 111740, Note_on_c, 1, 69, 0
3, 111740, Note_on_c, 1, 72, 0
3, 111744, Note_on_c, 1, 72, 70
3, 111744, Note_on_c, 1, 69, 70
3, 111936, Note_on_c, 1, 69, 0
3, 111936, Note_on_c, 1, 72, 0
3, 111936, Note_on_c, 1, 71, 70
3, 111936, Note_on_c, 1, 69, 70
3, 112120, Note_on_c, 1, 69, 0
3, 112120, Note_on_c, 1, 71, 0
3, 112128, Note_on_c, 1, 71, 70
3, 112128, Note_on_c, 1, 68, 70
3, 112316, Note_on_c, 1, 68, 0
3, 112316, Note_on_c, 1, 71, 0
3, 112320, Note_on_c, 1, 71, 70
3, 112320, Note_on_c, 1, 68, 70
3, 112508, Note_on_c, 1, 68, 0
3, 112508, Note_on_c, 1, 71, 0
3, 112512, Note_on_c, 1, 71, 70
3, 112512, Note_on_c, 1, 68, 70
3, 112700, Note_on_c, 1, 68, 0
3, 112700, Note_on_c, 1, 71, 0
3, 112704, Note_on_c, 1, 71, 70
3, 112704, Note_on_c, 1, 67, 70
3, 112892, Note_on_c, 1, 67, 0
3, 112892, Note_on_c, 1, 71, 0
3, 112896, Note_on_c, 1, 70, 70
3, 112896, Note_on_c, 1, 67, 70
3, 113084, Note_on_c, 1, 67, 0
3, 113084, Note_on_c, 1, 70, 0
3, 113088, Note_on_c, 1, 70, 70
3, 113088, Note_on_c, 1, 67, 70
3, 113276, Note_on_c, 1, 67, 0
3, 113276, Note_on_c, 1, 70, 0
3, 113280, Note_on_c, 1, 70, 70
3, 113280, Note_on_c, 1, 67, 70
3, 113468, Note_on_c, 1, 67, 0
3, 113468, Note_on_c, 1, 70, 0
3, 113472, Note_on_c, 1, 69, 70
3, 113472, Note_on_c, 1, 67, 70
3, 113660, Note_on_c, 1, 67, 0
3, 113660, Note_on_c, 1, 69, 0
3, 113664, Note_on_c, 1, 69, 81
3, 113664, Note_on_c, 1, 66, 81
3, 113764, Note_on_c, 1, 66, 0
3, 113764, Note_on_c, 1, 69, 0
3, 113856, Note_on_c, 1, 62, 81
3, 113856, Note_on_c, 1, 60, 81
3, 114236, Note_on_c, 1, 60, 0
3, 114236, Note_on_c, 1, 62, 0
3, 114240, Note_on_c, 1, 62, 81
3, 114240, Note_on_c, 1, 60, 81
3, 114428, Note_on_c, 1, 60, 0
3, 114428, Note_on_c, 1, 62, 0
3, 114432, Note_on_c, 1, 62, 81
3, 114432, Note_on_c, 1, 59, 81
3, 114532, Note_on_c, 1, 59, 0
3, 114532, Note_on_c, 1, 62, 0
3, 114624, Note_on_c, 1, 59, 81
3, 114624, Note_on_c, 1, 62, 81
3, 114624, Note_on_c, 1, 55, 81
3, 115004, Note_on_c, 1, 55, 0
3, 115004, Note_on_c, 1, 62, 0
3, 115004, Note_on_c, 1, 59, 0
3, 115008, Note_on_c, 1, 62, 81
3, 115008, Note_on_c, 1, 55, 81
3, 115008, Note_on_c, 1, 59, 81
3, 115196, Note_on_c, 1, 59, 0
3, 115196, Note_on_c, 1, 55, 0
3, 115196, Note_on_c, 1, 62, 0
3, 115200, Note_on_c, 1, 63, 81
3, 115200, Note_on_c, 1, 59, 81
3, 115200, Note_on_c, 1, 57, 81
3, 115300, Note_on_c, 1, 57, 0
3, 115300, Note_on_c, 1, 59, 0
3, 115300, Note_on_c, 1, 63, 0
3, 115392, Note_on_c, 1, 59, 81
3, 115392, Note_on_c, 1, 57, 81
3, 115392, Note_on_c, 1, 63, 81
3, 115772, Note_on_c, 1, 63, 0
3, 115772, Note_on_c, 1, 57, 0
3, 115772, Note_on_c, 1, 59, 0
3, 115776, Note_on_c, 1, 63, 81
3, 115776, Note_on_c, 1, 59, 81
3, 115776, Note_on_c, 1, 57, 81
3, 115964, Note_on_c, 1, 57, 0
3, 115964, Note_on_c, 1, 59, 0
3, 115964, Note_on_c, 1, 63, 0
3, 115968, Note_on_c, 1, 64, 81
3, 115968, Note_on_c, 1, 59, 81
3, 115968, Note_on_c, 1, 55, 81
3, 116068, Note_on_c, 1, 55, 0
3, 116068, Note_on_c, 1, 59, 0
3, 116068, Note_on_c, 1, 64, 0
3, 116160, Note_on_c, 1, 64, 81
3, 116160, Note_on_c, 1, 59, 81
3, 116160, Note_on_c, 1, 55, 81
3, 116540, Note_on_c, 1, 55, 0
3, 116540, Note_on_c, 1, 59, 0
3, 116540, Note_on_c, 1, 64, 0
3, 116544, Note_on_c, 1, 64, 81
3, 116544, Note_on_c, 1, 55, 81
3, 116544, Note_on_c, 1, 59, 81
3, 116732, Note_on_c, 1, 59, 0
3, 116732, Note_on_c, 1, 55, 0
3, 116732, Note_on_c, 1, 64, 0
3, 116928, Note_on_c, 1, 64, 81
3, 117120, Note_on_c, 1, 64, 0
3, 117120, Note_on_c, 1, 63, 81
3, 117304, Note_on_c, 1, 63, 0
3, 117312, Note_on_c, 1, 72, 81
3, 117504, Note_on_c, 1, 72, 0
3, 117504, Note_on_c, 1, 71, 81
3, 117688, Note_on_c, 1, 71, 0
3, 117696, Note_on_c, 1, 64, 81
3, 117888, Note_on_c, 1, 64, 0
3, 117888, Note_on_c, 1, 63, 81
3, 118072, Note_on_c, 1, 63, 0
3, 118080, Note_on_c, 1, 72, 81
3, 118272, Note_on_c, 1, 72, 0
3, 118272, Note_on_c, 1, 71, 81
3, 118456, Note_on_c, 1, 71, 0
3, 118464, Note_on_c, 1, 62, 81
3, 118848, Note_on_c, 1, 62, 0
3, 118848, Note_on_c, 1, 64, 70
3, 118940, Note_on_c, 1, 64, 0
3, 118944, Note_on_c, 1, 66, 70
3, 119032, Note_on_c, 1, 66, 0
3, 119040, Note_on_c, 1, 64, 70
3, 119232, Note_on_c, 1, 64, 0
3, 119232, Note_on_c, 1, 69, 70
3, 119232, Note_on_c, 1, 61, 70
3, 119416, Note_on_c, 1, 69, 0
3, 119420, Note_on_c, 1, 61, 0
3, 119424, Note_on_c, 1, 67, 70
3, 119424, Note_on_c, 1, 61, 70
3, 119524, Note_on_c, 1, 61, 0
3, 119524, Note_on_c, 1, 67, 0
3, 119616, Note_on_c, 1, 67, 70
3, 119616, Note_on_c, 1, 61, 70
3, 119716, Note_on_c, 1, 61, 0
3, 119716, Note_on_c, 1, 67, 0
3, 119808, Note_on_c, 1, 65, 70
3, 119808, Note_on_c, 1, 62, 70
3, 119996, Note_on_c, 1, 62, 0
3, 119996, Note_on_c, 1, 65, 0
3, 120000, Note_on_c, 1, 65, 70
3, 120000, Note_on_c, 1, 62, 70
3, 120188, Note_on_c, 1, 62, 0
3, 120188, Note_on_c, 1, 65, 0
3, 120192, Note_on_c, 1, 63, 70
3, 120192, Note_on_c, 1, 60, 70
3, 120380, Note_on_c, 1, 60, 0
3, 120380, Note_on_c, 1, 63, 0
3, 120384, Note_on_c, 1, 63, 70
3, 120384, Note_on_c, 1, 60, 70
3, 120572, Note_on_c, 1, 60, 0
3, 120572, Note_on_c, 1, 63, 0
3, 120576, Note_on_c, 1, 62, 70
3, 120576, Note_on_c, 1, 59, 70
3, 120764, Note_on_c, 1, 59, 0
3, 120764, Note_on_c, 1, 62, 0
3, 120768, Note_on_c, 1, 62, 70
3, 120768, Note_on_c, 1, 59, 70
3, 120956, Note_on_c, 1, 59, 0
3, 120956, Note_on_c, 1, 62, 0
3, 120960, Note_on_c, 1, 62, 70
3, 120960, Note_on_c, 1, 58, 70
3, 121148, Note_on_c, 1, 58, 0
3, 121148, Note_on_c, 1, 62, 0
3, 121152, Note_on_c, 1, 62, 70
3, 121152, Note_on_c, 1, 58, 70
3, 121340, Note_on_c, 1, 58, 0
3, 121340, Note_on_c, 1, 62, 0
3, 121344, Note_on_c, 1, 61, 70
3, 121344, Note_on_c, 1, 57, 70
3, 121532, Note_on_c, 1, 57, 0
3, 121532, Note_on_c, 1, 61, 0
3, 121536, Note_on_c, 1, 69, 92
3, 121536, Note_on_c, 1, 81, 92
3, 121676, Note_on_c, 1, 81, 0
3, 121676, Note_on_c, 1, 69, 0
3, 121680, Note_on_c, 1, 81, 92
3, 121680, Note_on_c, 1, 69, 92
3, 121724, Note_on_c, 1, 69, 0
3, 121724, Note_on_c, 1, 81, 0
3, 121728, Note_on_c, 1, 81, 92
3, 121728, Note_on_c, 1, 69, 92
3, 121916, Note_on_c, 1, 69, 0
3, 121916, Note_on_c, 1, 81, 0
3, 121920, Note_on_c, 1, 81, 92
3, 121920, Note_on_c, 1, 69, 92
3, 122108, Note_on_c, 1, 69, 0
3, 122108, Note_on_c, 1, 81, 0
3, 122112, Note_on_c, 1, 86, 98
3, 122112, Note_on_c, 1, 74, 98
3, 122492, Note_on_c, 1, 74, 0
3, 122492, Note_on_c, 1, 86, 0
3, 122496, Note_on_c, 1, 80, 98
3, 122496, Note_on_c, 1, 68, 98
3, 122876, Note_on_c, 1, 68, 0
3, 122876, Note_on_c, 1, 80, 0
3, 122880, Note_on_c, 1, 81, 98
3, 122880, Note_on_c, 1, 69, 98
3, 123068, Note_on_c, 1, 69, 0
3, 123068, Note_on_c, 1, 81, 0
3, 123072, Note_on_c, 1, 81, 70
3, 123212, Note_on_c, 1, 81, 0
3, 123216, Note_on_c, 1, 81, 70
3, 123260, Note_on_c, 1, 81, 0
3, 123264, Note_on_c, 1, 81, 70
3, 123452, Note_on_c, 1, 81, 0
3, 123456, Note_on_c, 1, 81, 70
3, 123644, Note_on_c, 1, 81, 0
3, 123648, Note_on_c, 1, 86, 70
3, 123648, Note_on_c, 1, 74, 70
3, 124028, Note_on_c, 1, 74, 0
3, 124028, Note_on_c, 1, 86, 0
3, 124032, Note_on_c, 1, 80, 70
3, 124032, Note_on_c, 1, 68, 70
3, 124412, Note_on_c, 1, 68, 0
3, 124412, Note_on_c, 1, 80, 0
3, 124416, Note_on_c, 1, 81, 70
3, 124604, Note_on_c, 1, 81, 0
3, 124608, Note_on_c, 1, 69, 92
3, 124748, Note_on_c, 1, 69, 0
3, 124752, Note_on_c, 1, 69, 98
3, 124796, Note_on_c, 1, 69, 0
3, 124800, Note_on_c, 1, 69, 92
3, 124988, Note_on_c, 1, 69, 0
3, 124992, Note_on_c, 1, 69, 92
3, 125180, Note_on_c, 1, 69, 0
3, 125184, Note_on_c, 1, 74, 92
3, 125376, Note_on_c, 1, 74, 0
3, 125376, Note_on_c, 1, 78, 94
3, 125464, Note_on_c, 1, 78, 0
3, 125472, Note_on_c, 1, 69, 98
3, 125520, Note_on_c, 1, 69, 0
3, 125568, Note_on_c, 1, 74, 98
3, 125616, Note_on_c, 1, 74, 0
3, 125664, Note_on_c, 1, 69, 98
3, 125712, Note_on_c, 1, 69, 0
3, 125760, Note_on_c, 1, 66, 98
3, 125808, Note_on_c, 1, 66, 0
3, 125856, Note_on_c, 1, 62, 98
3, 125904, Note_on_c, 1, 62, 0
3, 125952, Note_on_c, 1, 57, 92
3, 126140, Note_on_c, 1, 57, 0
3, 126144, Note_on_c, 1, 64, 70
3, 126144, Note_on_c, 1, 61, 70
3, 126236, Note_on_c, 1, 61, 0
3, 126236, Note_on_c, 1, 64, 0
3, 126240, Note_on_c, 1, 62, 70
3, 126240, Note_on_c, 1, 59, 70
3, 126332, Note_on_c, 1, 59, 0
3, 126332, Note_on_c, 1, 62, 0
3, 126336, Note_on_c, 1, 62, 98
3, 126336, Note_on_c, 1, 59, 98
3, 126432, Note_on_c, 1, 59, 0
3, 126432, Note_on_c, 1, 62, 0
3, 126432, Note_on_c, 1, 61, 98
3, 126432, Note_on_c, 1, 57, 98
3, 126520, Note_on_c, 1, 57, 0
3, 126520, Note_on_c, 1, 61, 0
3, 126528, Note_on_c, 1, 67, 70
3, 126528, Note_on_c, 1, 64, 70
3, 126576, Note_on_c, 1, 64, 0
3, 126576, Note_on_c, 1, 67, 0
3, 126624, Note_on_c, 1, 66, 70
3, 126624, Note_on_c, 1, 62, 70
3, 126672, Note_on_c, 1, 62, 0
3, 126672, Note_on_c, 1, 66, 0
3, 126720, Note_on_c, 1, 66, 98
3, 126720, Note_on_c, 1, 62, 98
3, 126816, Note_on_c, 1, 62, 0
3, 126816, Note_on_c, 1, 66, 0
3, 126816, Note_on_c, 1, 64, 98
3, 126816, Note_on_c, 1, 61, 98
3, 126904, Note_on_c, 1, 61, 0
3, 126904, Note_on_c, 1, 64, 0
3, 126912, Note_on_c, 1, 76, 70
3, 126912, Note_on_c, 1, 67, 70
3, 126960, Note_on_c, 1, 67, 0
3, 126960, Note_on_c, 1, 76, 0
3, 127008, Note_on_c, 1, 74, 70
3, 127008, Note_on_c, 1, 66, 70
3, 127056, Note_on_c, 1, 66, 0
3, 127056, Note_on_c, 1, 74, 0
3, 127104, Note_on_c, 1, 74, 98
3, 127104, Note_on_c, 1, 66, 98
3, 127200, Note_on_c, 1, 66, 0
3, 127200, Note_on_c, 1, 74, 0
3, 127200, Note_on_c, 1, 73, 98
3, 127200, Note_on_c, 1, 64, 98
3, 127288, Note_on_c, 1, 64, 0
3, 127288, Note_on_c, 1, 73, 0
3, 127296, Note_on_c, 1, 79, 70
3, 127296, Note_on_c, 1, 76, 70
3, 127344, Note_on_c, 1, 76, 0
3, 127344, Note_on_c, 1, 79, 0
3, 127392, Note_on_c, 1, 76, 70
3, 127392, Note_on_c, 1, 73, 70
3, 127440, Note_on_c, 1, 73, 0
3, 127440, Note_on_c, 1, 76, 0
3, 127488, Note_on_c, 1, 74, 92
3, 127868, Note_on_c, 1, 74, 0
3, 127872, Note_on_c, 1, 69, 92
3, 128160, Note_on_c, 1, 69, 0
3, 128160, Note_on_c, 1, 69, 92
3, 128208, Note_on_c, 1, 69, 0
3, 128256, Note_on_c, 1, 66, 92
3, 128356, Note_on_c, 1, 66, 0
3, 128448, Note_on_c, 1, 62, 92
3, 128548, Note_on_c, 1, 62, 0
3, 129216, Note_on_c, 1, 62, 70
3, 129316, Note_on_c, 1, 62, 0
3, 129408, Note_on_c, 1, 62, 70
3, 129508, Note_on_c, 1, 62, 0
3, 129984, Note_on_c, 1, 62, 70
3, 130084, Note_on_c, 1, 62, 0
3, 130176, Note_on_c, 1, 62, 70
3, 130276, Note_on_c, 1, 62, 0
3, 130752, Note_on_c, 1, 74, 70
3, 131132, Note_on_c, 1, 74, 0
3, 131136, Note_on_c, 1, 73, 70
3, 131324, Note_on_c, 1, 73, 0
3, 131328, Note_on_c, 1, 74, 70
3, 131516, Note_on_c, 1, 74, 0
3, 131520, Note_on_c, 1, 66, 70
3, 131552, Note_on_c, 1, 66, 0
3, 131556, Note_on_c, 1, 67, 70
3, 131588, Note_on_c, 1, 67, 0
3, 131592, Note_on_c, 1, 66, 70
3, 131624, Note_on_c, 1, 66, 0
3, 131628, Note_on_c, 1, 67, 67
3, 131660, Note_on_c, 1, 67, 0
3, 131664, Note_on_c, 1, 67, 70
3, 131708, Note_on_c, 1, 67, 0
3, 131712, Note_on_c, 1, 69, 70
3, 131900, Note_on_c, 1, 69, 0
3, 131904, Note_on_c, 1, 62, 70
3, 131964, Note_on_c, 1, 62, 0
3, 131968, Note_on_c, 1, 64, 70
3, 132028, Note_on_c, 1, 64, 0
3, 132032, Note_on_c, 1, 62, 70
3, 132092, Note_on_c, 1, 62, 0
3, 132096, Note_on_c, 1, 67, 70
3, 132196, Note_on_c, 1, 67, 0
3, 132672, Note_on_c, 1, 62, 70
3, 132732, Note_on_c, 1, 62, 0
3, 132736, Note_on_c, 1, 64, 70
3, 132796, Note_on_c, 1, 64, 0
3, 132800, Note_on_c, 1, 62, 70
3, 132860, Note_on_c, 1, 62, 0
3, 132864, Note_on_c, 1, 71, 70
3, 132964, Note_on_c, 1, 71, 0
3, 133440, Note_on_c, 1, 74, 70
3, 133500, Note_on_c, 1, 74, 0
3, 133504, Note_on_c, 1, 73, 70
3, 133564, Note_on_c, 1, 73, 0
3, 133568, Note_on_c, 1, 71, 70
3, 133628, Note_on_c, 1, 71, 0
3, 133632, Note_on_c, 1, 69, 70
3, 133820, Note_on_c, 1, 69, 0
3, 133824, Note_on_c, 1, 74, 70
3, 134012, Note_on_c, 1, 74, 0
3, 134016, Note_on_c, 1, 74, 70
3, 134204, Note_on_c, 1, 74, 0
3, 134208, Note_on_c, 1, 74, 70
3, 134396, Note_on_c, 1, 74, 0
3, 134400, Note_on_c, 1, 67, 70
3, 134588, Note_on_c, 1, 67, 0
3, 134592, Note_on_c, 1, 67, 71
3, 134780, Note_on_c, 1, 67, 0
3, 134784, Note_on_c, 1, 67, 71
3, 134972, Note_on_c, 1, 67, 0
3, 134976, Note_on_c, 1, 67, 73
3, 135164, Note_on_c, 1, 67, 0
3, 135168, Note_on_c, 1, 67, 74
3, 135356, Note_on_c, 1, 67, 0
3, 135360, Note_on_c, 1, 64, 75
3, 135548, Note_on_c, 1, 64, 0
3, 135552, Note_on_c, 1, 64, 76
3, 135740, Note_on_c, 1, 64, 0
3, 135744, Note_on_c, 1, 61, 77
3, 135932, Note_on_c, 1, 61, 0
3, 135936, Note_on_c, 1, 61, 78
3, 136124, Note_on_c, 1, 61, 0
3, 136128, Note_on_c, 1, 76, 79
3, 136316, Note_on_c, 1, 76, 0
3, 136320, Note_on_c, 1, 76, 80
3, 136508, Note_on_c, 1, 76, 0
3, 136512, Note_on_c, 1, 73, 81
3, 136700, Note_on_c, 1, 73, 0
3, 136704, Note_on_c, 1, 74, 81
3, 136892, Note_on_c, 1, 74, 0
3, 136960, Note_on_c, 1, 69, 81
3, 137020, Note_on_c, 1, 69, 0
3, 137024, Note_on_c, 1, 66, 81
3, 137084, Note_on_c, 1, 66, 0
3, 137088, Note_on_c, 1, 67, 81
3, 137276, Note_on_c, 1, 67, 0
3, 137280, Note_on_c, 1, 73, 81
3, 137312, Note_on_c, 1, 73, 0
3, 137312, Note_on_c, 1, 74, 81
3, 137344, Note_on_c, 1, 74, 0
3, 137344, Note_on_c, 1, 73, 81
3, 137376, Note_on_c, 1, 73, 0
3, 137376, Note_on_c, 1, 74, 81
3, 137408, Note_on_c, 1, 74, 0
3, 137408, Note_on_c, 1, 71, 81
3, 137440, Note_on_c, 1, 71, 0
3, 137440, Note_on_c, 1, 73, 81
3, 137472, Note_on_c, 1, 73, 0
3, 137472, Note_on_c, 1, 74, 81
3, 137660, Note_on_c, 1, 74, 0
3, 137728, Note_on_c, 1, 69, 81
3, 137788, Note_on_c, 1, 69, 0
3, 137792, Note_on_c, 1, 66, 81
3, 137852, Note_on_c, 1, 66, 0
3, 137856, Note_on_c, 1, 67, 81
3, 138044, Note_on_c, 1, 67, 0
3, 138048, Note_on_c, 1, 73, 81
3, 138080, Note_on_c, 1, 73, 0
3, 138080, Note_on_c, 1, 74, 81
3, 138112, Note_on_c, 1, 74, 0
3, 138112, Note_on_c, 1, 73, 81
3, 138144, Note_on_c, 1, 73, 0
3, 138144, Note_on_c, 1, 74, 81
3, 138176, Note_on_c, 1, 74, 0
3, 138176, Note_on_c, 1, 71, 81
3, 138208, Note_on_c, 1, 71, 0
3, 138224, Note_on_c, 1, 73, 81
3, 138240, Note_on_c, 1, 74, 81
3, 138256, Note_on_c, 1, 73, 0
3, 138620, Note_on_c, 1, 74, 0
3, 138720, Note_on_c, 1, 72, 81
3, 138720, Note_on_c, 1, 69, 81
3, 138800, Note_on_c, 1, 67, 81
3, 138812, Note_on_c, 1, 69, 0
3, 138812, Note_on_c, 1, 72, 0
3, 138816, Note_on_c, 1, 71, 81
3, 138892, Note_on_c, 1, 67, 0
3, 138908, Note_on_c, 1, 71, 0
3, 138912, Note_on_c, 1, 70, 81
3, 138912, Note_on_c, 1, 66, 81
3, 139004, Note_on_c, 1, 66, 0
3, 139004, Note_on_c, 1, 70, 0
3, 139008, Note_on_c, 1, 71, 81
3, 139008, Note_on_c, 1, 67, 81
3, 139184, Note_on_c, 1, 67, 81
3, 139196, Note_on_c, 1, 67, 0
3, 139196, Note_on_c, 1, 71, 0
3, 139200, Note_on_c, 1, 71, 81
3, 139372, Note_on_c, 1, 67, 0
3, 139376, Note_on_c, 1, 67, 81
3, 139388, Note_on_c, 1, 71, 0
3, 139392, Note_on_c, 1, 71, 81
3, 139564, Note_on_c, 1, 67, 0
3, 139568, Note_on_c, 1, 68, 81
3, 139580, Note_on_c, 1, 71, 0
3, 139584, Note_on_c, 1, 74, 81
3, 139756, Note_on_c, 1, 68, 0
3, 139772, Note_on_c, 1, 74, 0
3, 139776, Note_on_c, 1, 69, 81
3, 139776, Note_on_c, 1, 74, 81
3, 139808, Note_on_c, 1, 74, 0
3, 139808, Note_on_c, 1, 76, 81
3, 139840, Note_on_c, 1, 76, 0
3, 139840, Note_on_c, 1, 74, 81
3, 139872, Note_on_c, 1, 74, 0
3, 139872, Note_on_c, 1, 76, 81
3, 139904, Note_on_c, 1, 76, 0
3, 139904, Note_on_c, 1, 74, 81
3, 139936, Note_on_c, 1, 74, 0
3, 139936, Note_on_c, 1, 76, 81
3, 139968, Note_on_c, 1, 76, 0
3, 139968, Note_on_c, 1, 73, 81
3, 140156, Note_on_c, 1, 73, 0
3, 140156, Note_on_c, 1, 69, 0
3, 140160, Note_on_c, 1, 81, 92
3, 140160, Note_on_c, 1, 76, 92
3, 140160, Note_on_c, 1, 73, 92
3, 140160, Note_on_c, 1, 69, 92
3, 140348, Note_on_c, 1, 69, 0
3, 140348, Note_on_c, 1, 81, 0
3, 140348, Note_on_c, 1, 76, 0
3, 140348, Note_on_c, 1, 73, 0
3, 140352, Note_on_c, 1, 81, 92
3, 140352, Note_on_c, 1, 76, 92
3, 140352, Note_on_c, 1, 73, 92
3, 140352, Note_on_c, 1, 69, 92
3, 140540, Note_on_c, 1, 69, 0
3, 140540, Note_on_c, 1, 81, 0
3, 140540, Note_on_c, 1, 76, 0
3, 140540, Note_on_c, 1, 73, 0
3, 140544, Note_on_c, 1, 81, 92
3, 140544, Note_on_c, 1, 76, 92
3, 140544, Note_on_c, 1, 73, 92
3, 140544, Note_on_c, 1, 69, 92
3, 140732, Note_on_c, 1, 69, 0
3, 140732, Note_on_c, 1, 81, 0
3, 140732, Note_on_c, 1, 76, 0
3, 140732, Note_on_c, 1, 73, 0
3, 140736, Note_on_c, 1, 66, 70
3, 140924, Note_on_c, 1, 66, 0
3, 140928, Note_on_c, 1, 66, 70
3, 141116, Note_on_c, 1, 66, 0
3, 141120, Note_on_c, 1, 66, 70
3, 141308, Note_on_c, 1, 66, 0
3, 141312, Note_on_c, 1, 67, 70
3, 141500, Note_on_c, 1, 67, 0
3, 141504, Note_on_c, 1, 67, 70
3, 141692, Note_on_c, 1, 67, 0
3, 141696, Note_on_c, 1, 66, 70
3, 141884, Note_on_c, 1, 66, 0
3, 141888, Note_on_c, 1, 66, 70
3, 142076, Note_on_c, 1, 66, 0
3, 142080, Note_on_c, 1, 64, 70
3, 142268, Note_on_c, 1, 64, 0
3, 142272, Note_on_c, 1, 64, 70
3, 142460, Note_on_c, 1, 64, 0
3, 142464, Note_on_c, 1, 61, 70
3, 142652, Note_on_c, 1, 61, 0
3, 142656, Note_on_c, 1, 61, 70
3, 142844, Note_on_c, 1, 61, 0
3, 142848, Note_on_c, 1, 62, 70
3, 143036, Note_on_c, 1, 62, 0
3, 143040, Note_on_c, 1, 64, 70
3, 143228, Note_on_c, 1, 64, 0
3, 143232, Note_on_c, 1, 66, 70
3, 143324, Note_on_c, 1, 66, 0
3, 143328, Note_on_c, 1, 64, 70
3, 143420, Note_on_c, 1, 64, 0
3, 143424, Note_on_c, 1, 66, 70
3, 143516, Note_on_c, 1, 66, 0
3, 143520, Note_on_c, 1, 67, 70
3, 143612, Note_on_c, 1, 67, 0
3, 143616, Note_on_c, 1, 69, 70
3, 143804, Note_on_c, 1, 69, 0
3, 143808, Note_on_c, 1, 69, 70
3, 143996, Note_on_c, 1, 69, 0
3, 144000, Note_on_c, 1, 69, 70
3, 144188, Note_on_c, 1, 69, 0
3, 144192, Note_on_c, 1, 69, 70
3, 144380, Note_on_c, 1, 69, 0
3, 144384, Note_on_c, 1, 71, 70
3, 144476, Note_on_c, 1, 71, 0
3, 144480, Note_on_c, 1, 67, 70
3, 144572, Note_on_c, 1, 67, 0
3, 144576, Note_on_c, 1, 67, 70
3, 144956, Note_on_c, 1, 67, 0
3, 144960, Note_on_c, 1, 66, 70
3, 145148, Note_on_c, 1, 66, 0
3, 145152, Note_on_c, 1, 66, 70
3, 145328, Note_on_c, 1, 64, 70
3, 145340, Note_on_c, 1, 66, 0
3, 145708, Note_on_c, 1, 64, 0
3, 145728, Note_on_c, 1, 62, 70
3, 145916, Note_on_c, 1, 62, 0
3, 145920, Note_on_c, 1, 62, 81
3, 145948, Note_on_c, 1, 62, 0
3, 145952, Note_on_c, 1, 64, 81
3, 145980, Note_on_c, 1, 64, 0
3, 145984, Note_on_c, 1, 62, 81
3, 146012, Note_on_c, 1, 62, 0
3, 146016, Note_on_c, 1, 64, 81
3, 146044, Note_on_c, 1, 64, 0
3, 146048, Note_on_c, 1, 61, 81
3, 146076, Note_on_c, 1, 61, 0
3, 146080, Note_on_c, 1, 62, 81
3, 146108, Note_on_c, 1, 62, 0
3, 146112, Note_on_c, 1, 61, 76
3, 146300, Note_on_c, 1, 61, 0
3, 146304, Note_on_c, 1, 81, 92
3, 146304, Note_on_c, 1, 76, 92
3, 146304, Note_on_c, 1, 73, 92
3, 146304, Note_on_c, 1, 69, 92
3, 146492, Note_on_c, 1, 69, 0
3, 146492, Note_on_c, 1, 81, 0
3, 146492, Note_on_c, 1, 76, 0
3, 146492, Note_on_c, 1, 73, 0
3, 146496, Note_on_c, 1, 81, 92
3, 146496, Note_on_c, 1, 76, 92
3, 146496, Note_on_c, 1, 73, 92
3, 146496, Note_on_c, 1, 69, 92
3, 146684, Note_on_c, 1, 69, 0
3, 146684, Note_on_c, 1, 81, 0
3, 146684, Note_on_c, 1, 76, 0
3, 146684, Note_on_c, 1, 73, 0
3, 146688, Note_on_c, 1, 81, 92
3, 146688, Note_on_c, 1, 76, 92
3, 146688, Note_on_c, 1, 73, 92
3, 146688, Note_on_c, 1, 69, 92
3, 147068, Note_on_c, 1, 69, 0
3, 147068, Note_on_c, 1, 81, 0
3, 147068, Note_on_c, 1, 76, 0
3, 147068, Note_on_c, 1, 73, 0
3, 147456, Note_on_c, 1, 69, 76
3, 147456, Note_on_c, 1, 67, 76
3, 147456, Note_on_c, 1, 64, 76
3, 147632, Note_on_c, 1, 67, 76
3, 147632, Note_on_c, 1, 64, 76
3, 147644, Note_on_c, 1, 64, 0
3, 147644, Note_on_c, 1, 69, 0
3, 147644, Note_on_c, 1, 67, 0
3, 147648, Note_on_c, 1, 70, 76
3, 147836, Note_on_c, 1, 70, 0
3, 147840, Note_on_c, 1, 69, 76
3, 148012, Note_on_c, 1, 64, 0
3, 148012, Note_on_c, 1, 67, 0
3, 148028, Note_on_c, 1, 69, 0
3, 148032, Note_on_c, 1, 70, 76
3, 148032, Note_on_c, 1, 67, 76
3, 148032, Note_on_c, 1, 64, 76
3, 148220, Note_on_c, 1, 64, 0
3, 148220, Note_on_c, 1, 67, 0
3, 148220, Note_on_c, 1, 70, 0
3, 148224, Note_on_c, 1, 69, 76
3, 148224, Note_on_c, 1, 67, 76
3, 148224, Note_on_c, 1, 64, 76
3, 148604, Note_on_c, 1, 64, 0
3, 148604, Note_on_c, 1, 67, 0
3, 148604, Note_on_c, 1, 69, 0
3, 148992, Note_on_c, 1, 62, 70
3, 148992, Note_on_c, 1, 69, 70
3, 149180, Note_on_c, 1, 69, 0
3, 149180, Note_on_c, 1, 62, 0
3, 149184, Note_on_c, 1, 64, 70
3, 149184, Note_on_c, 1, 69, 70
3, 149372, Note_on_c, 1, 64, 0
3, 149376, Note_on_c, 1, 62, 70
3, 149564, Note_on_c, 1, 62, 0
3, 149564, Note_on_c, 1, 69, 0
3, 149568, Note_on_c, 1, 64, 70
3, 149568, Note_on_c, 1, 69, 70
3, 149756, Note_on_c, 1, 69, 0
3, 149756, Note_on_c, 1, 64, 0
3, 149760, Note_on_c, 1, 69, 70
3, 149760, Note_on_c, 1, 62, 70
3, 150140, Note_on_c, 1, 62, 0
3, 150140, Note_on_c, 1, 69, 0
3, 150528, Note_on_c, 1, 69, 59
3, 150528, Note_on_c, 1, 67, 59
3, 150528, Note_on_c, 1, 64, 59
3, 150716, Note_on_c, 1, 64, 0
3, 150716, Note_on_c, 1, 67, 0
3, 150716, Note_on_c, 1, 69, 0
3, 150720, Note_on_c, 1, 71, 59
3, 150720, Note_on_c, 1, 67, 59
3, 150720, Note_on_c, 1, 64, 59
3, 150908, Note_on_c, 1, 71, 0
3, 150912, Note_on_c, 1, 69, 59
3, 151100, Note_on_c, 1, 69, 0
3, 151100, Note_on_c, 1, 64, 0
3, 151100, Note_on_c, 1, 67, 0
3, 151104, Note_on_c, 1, 71, 59
3, 151104, Note_on_c, 1, 67, 59
3, 151104, Note_on_c, 1, 64, 59
3, 151292, Note_on_c, 1, 64, 0
3, 151292, Note_on_c, 1, 67, 0
3, 151292, Note_on_c, 1, 71, 0
3, 151296, Note_on_c, 1, 69, 59
3, 151296, Note_on_c, 1, 67, 59
3, 151296, Note_on_c, 1, 64, 59
3, 151676, Note_on_c, 1, 64, 0
3, 151676, Note_on_c, 1, 67, 0
3, 151676, Note_on_c, 1, 69, 0
3, 152256, Note_on_c, 1, 66, 59
3, 152256, Note_on_c, 1, 62, 59
3, 152256, Note_on_c, 1, 69, 59
3, 152636, Note_on_c, 1, 69, 0
3, 152636, Note_on_c, 1, 62, 0
3, 152636, Note_on_c, 1, 66, 0
3, 152640, Note_on_c, 1, 69, 59
3, 152640, Note_on_c, 1, 62, 59
3, 152640, Note_on_c, 1, 66, 59
3, 153020, Note_on_c, 1, 66, 0
3, 153020, Note_on_c, 1, 62, 0
3, 153020, Note_on_c, 1, 69, 0
3, 153024, Note_on_c, 1, 69, 66
3, 153024, Note_on_c, 1, 66, 66
3, 153024, Note_on_c, 1, 62, 66
3, 153404, Note_on_c, 1, 62, 0
3, 153404, Note_on_c, 1, 66, 0
3, 153404, Note_on_c, 1, 69, 0
3, 153408, Note_on_c, 1, 69, 77
3, 153408, Note_on_c, 1, 66, 77
3, 153408, Note_on_c, 1, 62, 77
3, 153696, Note_on_c, 1, 66, 81
3, 153696, Note_on_c, 1, 62, 81
3, 153788, Note_on_c, 1, 62, 0
3, 153788, Note_on_c, 1, 62, 0
3, 153788, Note_on_c, 1, 69, 0
3, 153788, Note_on_c, 1, 66, 0
3, 153788, Note_on_c, 1, 66, 0
3, 153792, Note_on_c, 1, 66, 81
3, 153792, Note_on_c, 1, 62, 81
3, 153792, Note_on_c, 1, 57, 81
3, 153884, Note_on_c, 1, 57, 0
3, 153884, Note_on_c, 1, 62, 0
3, 153884, Note_on_c, 1, 66, 0
3, 153888, Note_on_c, 1, 66, 81
3, 153888, Note_on_c, 1, 62, 81
3, 153888, Note_on_c, 1, 57, 81
3, 153980, Note_on_c, 1, 57, 0
3, 153980, Note_on_c, 1, 62, 0
3, 153980, Note_on_c, 1, 66, 0
3, 153984, Note_on_c, 1, 67, 81
3, 153984, Note_on_c, 1, 61, 81
3, 153984, Note_on_c, 1, 57, 81
3, 154076, Note_on_c, 1, 57, 0
3, 154076, Note_on_c, 1, 61, 0
3, 154076, Note_on_c, 1, 67, 0
3, 154080, Note_on_c, 1, 67, 81
3, 154080, Note_on_c, 1, 61, 81
3, 154080, Note_on_c, 1, 57, 81
3, 154172, Note_on_c, 1, 57, 0
3, 154172, Note_on_c, 1, 61, 0
3, 154172, Note_on_c, 1, 67, 0
3, 154176, Note_on_c, 1, 67, 81
3, 154176, Note_on_c, 1, 61, 81
3, 154176, Note_on_c, 1, 57, 81
3, 154268, Note_on_c, 1, 57, 0
3, 154268, Note_on_c, 1, 61, 0
3, 154268, Note_on_c, 1, 67, 0
3, 154272, Note_on_c, 1, 67, 81
3, 154272, Note_on_c, 1, 61, 81
3, 154272, Note_on_c, 1, 57, 81
3, 154364, Note_on_c, 1, 57, 0
3, 154364, Note_on_c, 1, 61, 0
3, 154364, Note_on_c, 1, 67, 0
3, 154368, Note_on_c, 1, 66, 81
3, 154368, Note_on_c, 1, 62, 81
3, 154368, Note_on_c, 1, 57, 81
3, 154748, Note_on_c, 1, 57, 0
3, 154748, Note_on_c, 1, 62, 0
3, 154748, Note_on_c, 1, 66, 0
3, 154944, Note_on_c, 1, 57, 70
3, 155132, Note_on_c, 1, 57, 0
3, 155136, Note_on_c, 1, 57, 70
3, 155232, Note_on_c, 1, 57, 0
3, 155232, Note_on_c, 1, 66, 70
3, 155416, Note_on_c, 1, 66, 0
3, 155424, Note_on_c, 1, 57, 70
3, 155520, Note_on_c, 1, 57, 0
3, 155520, Note_on_c, 1, 57, 70
3, 155608, Note_on_c, 1, 57, 0
3, 155616, Note_on_c, 1, 67, 70
3, 155712, Note_on_c, 1, 61, 70
3, 155804, Note_on_c, 1, 67, 0
3, 155808, Note_on_c, 1, 57, 70
3, 155900, Note_on_c, 1, 61, 0
3, 155904, Note_on_c, 1, 57, 0
3, 155904, Note_on_c, 1, 57, 70
3, 155904, Note_on_c, 1, 62, 70
3, 155992, Note_on_c, 1, 57, 0
3, 156000, Note_on_c, 1, 69, 70
3, 156092, Note_on_c, 1, 69, 0
3, 156096, Note_on_c, 1, 69, 70
3, 156188, Note_on_c, 1, 62, 0
3, 156192, Note_on_c, 1, 64, 70
3, 156192, Note_on_c, 1, 62, 70
3, 156284, Note_on_c, 1, 62, 0
3, 156284, Note_on_c, 1, 64, 0
3, 156288, Note_on_c, 1, 69, 0
3, 156288, Note_on_c, 1, 66, 70
3, 156288, Note_on_c, 1, 62, 70
3, 156388, Note_on_c, 1, 62, 0
3, 156388, Note_on_c, 1, 66, 0
3, 156480, Note_on_c, 1, 57, 70
3, 156668, Note_on_c, 1, 57, 0
3, 156672, Note_on_c, 1, 57, 70
3, 156768, Note_on_c, 1, 57, 0
3, 156768, Note_on_c, 1, 64, 70
3, 156952, Note_on_c, 1, 64, 0
3, 156960, Note_on_c, 1, 57, 70
3, 157056, Note_on_c, 1, 57, 0
3, 157056, Note_on_c, 1, 57, 70
3, 157144, Note_on_c, 1, 57, 0
3, 157168, Note_on_c, 1, 66, 70
3, 157248, Note_on_c, 1, 62, 70
3, 157344, Note_on_c, 1, 57, 70
3, 157356, Note_on_c, 1, 66, 0
3, 157436, Note_on_c, 1, 62, 0
3, 157440, Note_on_c, 1, 57, 0
3, 157440, Note_on_c, 1, 57, 70
3, 157440, Note_on_c, 1, 61, 70
3, 157528, Note_on_c, 1, 57, 0
3, 157536, Note_on_c, 1, 67, 70
3, 157628, Note_on_c, 1, 67, 0
3, 157632, Note_on_c, 1, 67, 70
3, 157724, Note_on_c, 1, 61, 0
3, 157728, Note_on_c, 1, 62, 70
3, 157820, Note_on_c, 1, 62, 0
3, 157824, Note_on_c, 1, 67, 0
3, 157824, Note_on_c, 1, 64, 70
3, 157872, Note_on_c, 1, 64, 0
3, 157920, Note_on_c, 1, 57, 70
3, 158012, Note_on_c, 1, 57, 0
3, 158016, Note_on_c, 1, 64, 70
3, 158016, Note_on_c, 1, 55, 70
3, 158108, Note_on_c, 1, 64, 0
3, 158112, Note_on_c, 1, 61, 70
3, 158204, Note_on_c, 1, 61, 0
3, 158204, Note_on_c, 1, 55, 0
3, 158208, Note_on_c, 1, 62, 70
3, 158208, Note_on_c, 1, 54, 70
3, 158300, Note_on_c, 1, 54, 0
3, 158304, Note_on_c, 1, 62, 0
3, 158304, Note_on_c, 1, 66, 70
3, 158392, Note_on_c, 1, 66, 0
3, 158400, Note_on_c, 1, 66, 70
3, 158496, Note_on_c, 1, 66, 0
3, 158496, Note_on_c, 1, 69, 70
3, 158584, Note_on_c, 1, 69, 0
3, 158592, Note_on_c, 1, 67, 70
3, 158688, Note_on_c, 1, 67, 0
3, 158688, Note_on_c, 1, 64, 70
3, 158776, Note_on_c, 1, 64, 0
3, 158784, Note_on_c, 1, 73, 70
3, 158880, Note_on_c, 1, 73, 0
3, 158880, Note_on_c, 1, 76, 70
3, 158968, Note_on_c, 1, 76, 0
3, 158976, Note_on_c, 1, 66, 70
3, 159072, Note_on_c, 1, 66, 0
3, 159072, Note_on_c, 1, 69, 70
3, 159160, Note_on_c, 1, 69, 0
3, 159168, Note_on_c, 1, 74, 70
3, 159264, Note_on_c, 1, 74, 0
3, 159264, Note_on_c, 1, 69, 70
3, 159352, Note_on_c, 1, 69, 0
3, 159360, Note_on_c, 1, 57, 70
3, 159456, Note_on_c, 1, 57, 0
3, 159456, Note_on_c, 1, 62, 70
3, 159544, Note_on_c, 1, 62, 0
3, 159552, Note_on_c, 1, 66, 70
3, 159648, Note_on_c, 1, 66, 0
3, 159648, Note_on_c, 1, 62, 70
3, 159736, Note_on_c, 1, 62, 0
3, 159744, Note_on_c, 1, 64, 70
3, 159840, Note_on_c, 1, 64, 0
3, 159840, Note_on_c, 1, 57, 70
3, 159928, Note_on_c, 1, 57, 0
3, 159936, Note_on_c, 1, 64, 70
3, 160032, Note_on_c, 1, 64, 0
3, 160032, Note_on_c, 1, 67, 70
3, 160120, Note_on_c, 1, 67, 0
3, 160128, Note_on_c, 1, 66, 70
3, 160224, Note_on_c, 1, 66, 0
3, 160224, Note_on_c, 1, 57, 70
3, 160312, Note_on_c, 1, 57, 0
3, 160320, Note_on_c, 1, 66, 70
3, 160416, Note_on_c, 1, 66, 0
3, 160416, Note_on_c, 1, 69, 70
3, 160504, Note_on_c, 1, 69, 0
3, 160512, Note_on_c, 1, 61, 70
3, 160608, Note_on_c, 1, 61, 0
3, 160608, Note_on_c, 1, 64, 70
3, 160696, Note_on_c, 1, 64, 0
3, 160704, Note_on_c, 1, 67, 70
3, 160800, Note_on_c, 1, 67, 0
3, 160800, Note_on_c, 1, 64, 70
3, 160888, Note_on_c, 1, 64, 0
3, 160896, Note_on_c, 1, 64, 70
3, 160992, Note_on_c, 1, 64, 0
3, 160992, Note_on_c, 1, 67, 70
3, 161080, Note_on_c, 1, 67, 0
3, 161088, Note_on_c, 1, 76, 70
3, 161184, Note_on_c, 1, 76, 0
3, 161184, Note_on_c, 1, 73, 70
3, 161272, Note_on_c, 1, 73, 0
3, 161280, Note_on_c, 1, 74, 70
3, 161372, Note_on_c, 1, 74, 0
3, 161376, Note_on_c, 1, 74, 70
3, 161468, Note_on_c, 1, 74, 0
3, 161472, Note_on_c, 1, 74, 70
3, 161472, Note_on_c, 1, 72, 70
3, 161564, Note_on_c, 1, 74, 0
3, 161568, Note_on_c, 1, 74, 70
3, 161660, Note_on_c, 1, 74, 0
3, 161660, Note_on_c, 1, 72, 0
3, 161664, Note_on_c, 1, 74, 70
3, 161664, Note_on_c, 1, 71, 70
3, 161756, Note_on_c, 1, 74, 0
3, 161760, Note_on_c, 1, 74, 70
3, 161852, Note_on_c, 1, 74, 0
3, 161852, Note_on_c, 1, 71, 0
3, 161856, Note_on_c, 1, 74, 70
3, 161856, Note_on_c, 1, 67, 70
3, 161948, Note_on_c, 1, 74, 0
3, 161952, Note_on_c, 1, 74, 70
3, 162044, Note_on_c, 1, 74, 0
3, 162044, Note_on_c, 1, 67, 0
3, 162048, Note_on_c, 1, 74, 70
3, 162048, Note_on_c, 1, 66, 70
3, 162108, Note_on_c, 1, 74, 0
3, 162112, Note_on_c, 1, 74, 70
3, 162148, Note_on_c, 1, 66, 0
3, 162172, Note_on_c, 1, 74, 0
3, 162176, Note_on_c, 1, 73, 70
3, 162236, Note_on_c, 1, 73, 0
3, 162240, Note_on_c, 1, 74, 70
3, 162240, Note_on_c, 1, 60, 70
3, 162300, Note_on_c, 1, 74, 0
3, 162304, Note_on_c, 1, 69, 70
3, 162340, Note_on_c, 1, 60, 0
3, 162364, Note_on_c, 1, 69, 0
3, 162368, Note_on_c, 1, 66, 70
3, 162400, Note_on_c, 1, 66, 0
3, 162432, Note_on_c, 1, 62, 70
3, 162432, Note_on_c, 1, 59, 70
3, 162464, Note_on_c, 1, 62, 0
3, 162532, Note_on_c, 1, 59, 0
3, 162624, Note_on_c, 1, 55, 70
3, 162724, Note_on_c, 1, 55, 0
3, 162816, Note_on_c, 1, 62, 70
3, 162908, Note_on_c, 1, 62, 0
3, 162912, Note_on_c, 1, 62, 70
3, 163004, Note_on_c, 1, 62, 0
3, 163008, Note_on_c, 1, 62, 70
3, 163100, Note_on_c, 1, 62, 0
3, 163104, Note_on_c, 1, 62, 70
3, 163196, Note_on_c, 1, 62, 0
3, 163200, Note_on_c, 1, 62, 70
3, 163292, Note_on_c, 1, 62, 0
3, 163296, Note_on_c, 1, 62, 70
3, 163388, Note_on_c, 1, 62, 0
3, 163392, Note_on_c, 1, 62, 70
3, 163484, Note_on_c, 1, 62, 0
3, 163488, Note_on_c, 1, 62, 70
3, 163580, Note_on_c, 1, 62, 0
3, 163584, Note_on_c, 1, 62, 70
3, 163644, Note_on_c, 1, 62, 0
3, 163648, Note_on_c, 1, 74, 70
3, 163708, Note_on_c, 1, 74, 0
3, 163712, Note_on_c, 1, 73, 70
3, 163772, Note_on_c, 1, 73, 0
3, 163776, Note_on_c, 1, 74, 70
3, 163836, Note_on_c, 1, 74, 0
3, 163840, Note_on_c, 1, 69, 70
3, 163872, Note_on_c, 1, 69, 0
3, 163904, Note_on_c, 1, 66, 70
3, 163936, Note_on_c, 1, 66, 0
3, 163968, Note_on_c, 1, 62, 70
3, 164068, Note_on_c, 1, 62, 0
3, 164352, Note_on_c, 1, 74, 70
3, 164444, Note_on_c, 1, 74, 0
3, 164448, Note_on_c, 1, 74, 70
3, 164540, Note_on_c, 1, 74, 0
3, 164544, Note_on_c, 1, 74, 70
3, 164544, Note_on_c, 1, 72, 70
3, 164636, Note_on_c, 1, 74, 0
3, 164640, Note_on_c, 1, 74, 70
3, 164644, Note_on_c, 1, 72, 0
3, 164732, Note_on_c, 1, 74, 0
3, 164736, Note_on_c, 1, 74, 70
3, 164736, Note_on_c, 1, 71, 70
3, 164828, Note_on_c, 1, 74, 0
3, 164832, Note_on_c, 1, 74, 70
3, 164836, Note_on_c, 1, 71, 0
3, 164924, Note_on_c, 1, 74, 0
3, 164928, Note_on_c, 1, 74, 70
3, 164928, Note_on_c, 1, 67, 70
3, 165020, Note_on_c, 1, 74, 0
3, 165024, Note_on_c, 1, 74, 70
3, 165028, Note_on_c, 1, 67, 0
3, 165116, Note_on_c, 1, 74, 0
3, 165120, Note_on_c, 1, 74, 71
3, 165120, Note_on_c, 1, 66, 71
3, 165308, Note_on_c, 1, 66, 0
3, 165308, Note_on_c, 1, 74, 0
3, 165312, Note_on_c, 1, 74, 73
3, 165312, Note_on_c, 1, 66, 73
3, 165500, Note_on_c, 1, 66, 0
3, 165500, Note_on_c, 1, 74, 0
3, 165504, Note_on_c, 1, 74, 74
3, 165504, Note_on_c, 1, 66, 74
3, 165692, Note_on_c, 1, 66, 0
3, 165692, Note_on_c, 1, 74, 0
3, 165696, Note_on_c, 1, 74, 75
3, 165696, Note_on_c, 1, 66, 75
3, 165884, Note_on_c, 1, 66, 0
3, 165884, Note_on_c, 1, 74, 0
3, 165888, Note_on_c, 1, 74, 77
3, 165888, Note_on_c, 1, 67, 77
3, 166076, Note_on_c, 1, 67, 0
3, 166076, Note_on_c, 1, 74, 0
3, 166080, Note_on_c, 1, 71, 78
3, 166080, Note_on_c, 1, 74, 78
3, 166268, Note_on_c, 1, 71, 0
3, 166272, Note_on_c, 1, 69, 79
3, 166460, Note_on_c, 1, 69, 0
3, 166460, Note_on_c, 1, 74, 0
3, 166464, Note_on_c, 1, 74, 80
3, 166464, Note_on_c, 1, 68, 80
3, 166652, Note_on_c, 1, 68, 0
3, 166652, Note_on_c, 1, 74, 0
3, 166656, Note_on_c, 1, 78, 81
3, 166656, Note_on_c, 1, 69, 81
3, 166844, Note_on_c, 1, 69, 0
3, 166844, Note_on_c, 1, 78, 0
3, 166848, Note_on_c, 1, 78, 81
3, 166848, Note_on_c, 1, 69, 81
3, 167036, Note_on_c, 1, 69, 0
3, 167036, Note_on_c, 1, 78, 0
3, 167040, Note_on_c, 1, 73, 81
3, 167040, Note_on_c, 1, 69, 81
3, 167228, Note_on_c, 1, 69, 0
3, 167228, Note_on_c, 1, 73, 0
3, 167232, Note_on_c, 1, 73, 81
3, 167232, Note_on_c, 1, 69, 81
3, 167420, Note_on_c, 1, 69, 0
3, 167420, Note_on_c, 1, 73, 0
3, 167424, Note_on_c, 1, 74, 81
3, 167424, Note_on_c, 1, 71, 81
3, 167612, Note_on_c, 1, 71, 0
3, 167612, Note_on_c, 1, 74, 0
3, 168576, Note_on_c, 1, 71, 70
3, 168576, Note_on_c, 1, 64, 70
3, 168576, Note_on_c, 1, 74, 70
3, 168668, Note_on_c, 1, 74, 0
3, 168668, Note_on_c, 1, 71, 0
3, 168672, Note_on_c, 1, 76, 70
3, 168672, Note_on_c, 1, 73, 70
3, 168764, Note_on_c, 1, 73, 0
3, 168764, Note_on_c, 1, 76, 0
3, 168768, Note_on_c, 1, 74, 70
3, 168768, Note_on_c, 1, 71, 70
3, 168860, Note_on_c, 1, 71, 0
3, 168860, Note_on_c, 1, 74, 0
3, 168864, Note_on_c, 1, 76, 70
3, 168864, Note_on_c, 1, 73, 70
3, 168956, Note_on_c, 1, 73, 0
3, 168956, Note_on_c, 1, 76, 0
3, 168956, Note_on_c, 1, 64, 0
3, 168960, Note_on_c, 1, 73, 70
3, 168960, Note_on_c, 1, 69, 70
3, 168960, Note_on_c, 1, 57, 70
3, 169340, Note_on_c, 1, 57, 0
3, 169340, Note_on_c, 1, 69, 0
3, 169340, Note_on_c, 1, 73, 0
3, 170112, Note_on_c, 1, 73, 70
3, 170112, Note_on_c, 1, 69, 70
3, 170112, Note_on_c, 1, 57, 70
3, 170204, Note_on_c, 1, 69, 0
3, 170204, Note_on_c, 1, 73, 0
3, 170208, Note_on_c, 1, 76, 70
3, 170208, Note_on_c, 1, 67, 70
3, 170300, Note_on_c, 1, 67, 0
3, 170300, Note_on_c, 1, 76, 0
3, 170304, Note_on_c, 1, 74, 70
3, 170304, Note_on_c, 1, 69, 70
3, 170396, Note_on_c, 1, 69, 0
3, 170396, Note_on_c, 1, 74, 0
3, 170400, Note_on_c, 1, 73, 70
3, 170400, Note_on_c, 1, 67, 70
3, 170492, Note_on_c, 1, 67, 0
3, 170492, Note_on_c, 1, 73, 0
3, 170492, Note_on_c, 1, 57, 0
3, 170496, Note_on_c, 1, 74, 70
3, 170496, Note_on_c, 1, 66, 70
3, 170496, Note_on_c, 1, 62, 70
3, 170684, Note_on_c, 1, 62, 0
3, 170684, Note_on_c, 1, 66, 0
3, 170684, Note_on_c, 1, 74, 0
3, 170688, Note_on_c, 1, 69, 70
3, 170688, Note_on_c, 1, 66, 70
3, 170720, Note_on_c, 1, 66, 0
3, 170720, Note_on_c, 1, 69, 0
3, 170752, Note_on_c, 1, 69, 70
3, 170752, Note_on_c, 1, 64, 70
3, 170784, Note_on_c, 1, 64, 0
3, 170784, Note_on_c, 1, 69, 0
3, 170816, Note_on_c, 1, 69, 70
3, 170816, Note_on_c, 1, 62, 70
3, 170848, Note_on_c, 1, 62, 0
3, 170848, Note_on_c, 1, 69, 0
3, 170880, Note_on_c, 1, 69, 70
3, 170880, Note_on_c, 1, 61, 70
3, 170980, Note_on_c, 1, 61, 0
3, 170980, Note_on_c, 1, 69, 0
3, 171072, Note_on_c, 1, 69, 70
3, 171072, Note_on_c, 1, 57, 70
3, 171104, Note_on_c, 1, 69, 0
3, 171136, Note_on_c, 1, 69, 70
3, 171168, Note_on_c, 1, 69, 0
3, 171172, Note_on_c, 1, 57, 0
3, 171200, Note_on_c, 1, 69, 70
3, 171232, Note_on_c, 1, 69, 0
3, 171264, Note_on_c, 1, 69, 71
3, 171264, Note_on_c, 1, 62, 71
3, 171364, Note_on_c, 1, 62, 0
3, 171364, Note_on_c, 1, 69, 0
3, 171456, Note_on_c, 1, 69, 73
3, 171456, Note_on_c, 1, 66, 73
3, 171488, Note_on_c, 1, 66, 0
3, 171488, Note_on_c, 1, 69, 0
3, 171520, Note_on_c, 1, 69, 73
3, 171520, Note_on_c, 1, 64, 73
3, 171552, Note_on_c, 1, 64, 0
3, 171552, Note_on_c, 1, 69, 0
3, 171584, Note_on_c, 1, 69, 74
3, 171584, Note_on_c, 1, 62, 74
3, 171616, Note_on_c, 1, 62, 0
3, 171616, Note_on_c, 1, 69, 0
3, 171648, Note_on_c, 1, 69, 74
3, 171648, Note_on_c, 1, 61, 74
3, 171748, Note_on_c, 1, 61, 0
3, 171748, Note_on_c, 1, 69, 0
3, 171840, Note_on_c, 1, 69, 75
3, 171840, Note_on_c, 1, 57, 75
3, 171872, Note_on_c, 1, 69, 0
3, 171904, Note_on_c, 1, 69, 76
3, 171936, Note_on_c, 1, 69, 0
3, 171940, Note_on_c, 1, 57, 0
3, 171968, Note_on_c, 1, 69, 76
3, 172000, Note_on_c, 1, 69, 0
3, 172032, Note_on_c, 1, 69, 77
3, 172032, Note_on_c, 1, 62, 77
3, 172132, Note_on_c, 1, 62, 0
3, 172132, Note_on_c, 1, 69, 0
3, 172224, Note_on_c, 1, 66, 78
3, 172224, Note_on_c, 1, 74, 78
3, 172324, Note_on_c, 1, 66, 0
3, 172416, Note_on_c, 1, 67, 79
3, 172516, Note_on_c, 1, 67, 0
3, 172604, Note_on_c, 1, 74, 0
3, 172608, Note_on_c, 1, 69, 80
3, 172608, Note_on_c, 1, 73, 80
3, 172708, Note_on_c, 1, 69, 0
3, 172796, Note_on_c, 1, 73, 0
3, 172800, Note_on_c, 1, 62, 81
3, 172800, Note_on_c, 1, 74, 81
3, 172900, Note_on_c, 1, 74, 0
3, 172900, Note_on_c, 1, 62, 0
3, 172992, Note_on_c, 1, 69, 81
3, 172992, Note_on_c, 1, 62, 81
3, 173024, Note_on_c, 1, 69, 0
3, 173056, Note_on_c, 1, 69, 81
3, 173088, Note_on_c, 1, 69, 0
3, 173092, Note_on_c, 1, 62, 0
3, 173120, Note_on_c, 1, 69, 81
3, 173152, Note_on_c, 1, 69, 0
3, 173184, Note_on_c, 1, 69, 81
3, 173184, Note_on_c, 1, 64, 81
3, 173284, Note_on_c, 1, 64, 0
3, 173284, Note_on_c, 1, 69, 0
3, 173376, Note_on_c, 1, 76, 81
3, 173376, Note_on_c, 1, 57, 81
3, 173408, Note_on_c, 1, 76, 0
3, 173440, Note_on_c, 1, 73, 81
3, 173472, Note_on_c, 1, 73, 0
3, 173476, Note_on_c, 1, 57, 0
3, 173504, Note_on_c, 1, 76, 81
3, 173536, Note_on_c, 1, 76, 0
3, 173568, Note_on_c, 1, 74, 81
3, 173568, Note_on_c, 1, 62, 81
3, 173668, Note_on_c, 1, 62, 0
3, 173668, Note_on_c, 1, 74, 0
3, 173760, Note_on_c, 1, 69, 81
3, 173760, Note_on_c, 1, 62, 81
3, 173792, Note_on_c, 1, 69, 0
3, 173824, Note_on_c, 1, 69, 81
3, 173856, Note_on_c, 1, 69, 0
3, 173860, Note_on_c, 1, 62, 0
3, 173888, Note_on_c, 1, 69, 81
3, 173920, Note_on_c, 1, 69, 0
3, 173952, Note_on_c, 1, 69, 81
3, 173952, Note_on_c, 1, 64, 81
3, 174052, Note_on_c, 1, 64, 0
3, 174052, Note_on_c, 1, 69, 0
3, 174144, Note_on_c, 1, 76, 81
3, 174144, Note_on_c, 1, 57, 81
3, 174204, Note_on_c, 1, 76, 0
3, 174208, Note_on_c, 1, 73, 81
3, 174244, Note_on_c, 1, 57, 0
3, 174268, Note_on_c, 1, 73, 0
3, 174272, Note_on_c, 1, 76, 81
3, 174332, Note_on_c, 1, 76, 0
3, 174336, Note_on_c, 1, 74, 81
3, 174336, Note_on_c, 1, 62, 81
3, 174436, Note_on_c, 1, 62, 0
3, 174436, Note_on_c, 1, 74, 0
3, 174528, Note_on_c, 1, 66, 81
3, 174528, Note_on_c, 1, 74, 81
3, 174716, Note_on_c, 1, 66, 0
3, 174720, Note_on_c, 1, 55, 81
3, 174908, Note_on_c, 1, 55, 0
3, 174908, Note_on_c, 1, 74, 0
3, 174912, Note_on_c, 1, 62, 81
3, 174912, Note_on_c, 1, 59, 81
3, 175100, Note_on_c, 1, 59, 0
3, 175100, Note_on_c, 1, 62, 0
3, 175104, Note_on_c, 1, 66, 81
3, 175104, Note_on_c, 1, 62, 81
3, 175104, Note_on_c, 1, 57, 81
3, 175484, Note_on_c, 1, 57, 0
3, 175484, Note_on_c, 1, 62, 0
3, 175484, Note_on_c, 1, 66, 0
3, 176640, Note_on_c, 1, 66, 71
3, 176640, Note_on_c, 1, 62, 71
3, 176732, Note_on_c, 1, 62, 0
3, 176732, Note_on_c, 1, 66, 0
3, 176736, Note_on_c, 1, 57, 73
3, 176828, Note_on_c, 1, 57, 0
3, 176832, Note_on_c, 1, 66, 74
3, 176832, Note_on_c, 1, 62, 74
3, 176924, Note_on_c, 1, 62, 0
3, 176924, Note_on_c, 1, 66, 0
3, 176928, Note_on_c, 1, 57, 75
3, 177020, Note_on_c, 1, 57, 0
3, 177024, Note_on_c, 1, 66, 77
3, 177024, Note_on_c, 1, 62, 77
3, 177116, Note_on_c, 1, 62, 0
3, 177116, Note_on_c, 1, 66, 0
3, 177120, Note_on_c, 1, 57, 78
3, 177212, Note_on_c, 1, 57, 0
3, 177216, Note_on_c, 1, 66, 79
3, 177216, Note_on_c, 1, 62, 79
3, 177308, Note_on_c, 1, 62, 0
3, 177308, Note_on_c, 1, 66, 0
3, 177312, Note_on_c, 1, 57, 80
3, 177392, Note_on_c, 1, 61, 81
3, 177404, Note_on_c, 1, 57, 0
3, 177408, Note_on_c, 1, 67, 82
3, 177408, Note_on_c, 1, 64, 82
3, 177484, Note_on_c, 1, 61, 0
3, 177500, Note_on_c, 1, 64, 0
3, 177500, Note_on_c, 1, 67, 0
3, 177504, Note_on_c, 1, 57, 83
3, 177596, Note_on_c, 1, 57, 0
3, 177600, Note_on_c, 1, 67, 85
3, 177600, Note_on_c, 1, 64, 85
3, 177600, Note_on_c, 1, 61, 85
3, 177692, Note_on_c, 1, 61, 0
3, 177692, Note_on_c, 1, 64, 0
3, 177692, Note_on_c, 1, 67, 0
3, 177696, Note_on_c, 1, 57, 86
3, 177788, Note_on_c, 1, 57, 0
3, 177792, Note_on_c, 1, 73, 88
3, 177792, Note_on_c, 1, 69, 88
3, 177792, Note_on_c, 1, 67, 88
3, 177884, Note_on_c, 1, 67, 0
3, 177884, Note_on_c, 1, 69, 0
3, 177884, Note_on_c, 1, 73, 0
3, 177888, Note_on_c, 1, 64, 89
3, 177980, Note_on_c, 1, 64, 0
3, 177984, Note_on_c, 1, 73, 90
3, 177984, Note_on_c, 1, 69, 90
3, 177984, Note_on_c, 1, 67, 90
3, 178076, Note_on_c, 1, 67, 0
3, 178076, Note_on_c, 1, 69, 0
3, 178076, Note_on_c, 1, 73, 0
3, 178080, Note_on_c, 1, 64, 91
3, 178172, Note_on_c, 1, 64, 0
3, 178176, Note_on_c, 1, 74, 92
3, 178176, Note_on_c, 1, 69, 92
3, 178176, Note_on_c, 1, 66, 92
3, 178176, Note_on_c, 1, 62, 92
3, 178364, Note_on_c, 1, 62, 0
3, 178364, Note_on_c, 1, 74, 0
3, 178364, Note_on_c, 1, 69, 0
3, 178364, Note_on_c, 1, 66, 0
3, 178368, Note_on_c, 1, 62, 92
3, 178428, Note_on_c, 1, 62, 0
3, 178432, Note_on_c, 1, 64, 92
3, 178492, Note_on_c, 1, 64, 0
3, 178496, Note_on_c, 1, 62, 92
3, 178556, Note_on_c, 1, 62, 0
3, 178560, Note_on_c, 1, 61, 92
3, 178620, Note_on_c, 1, 61, 0
3, 178624, Note_on_c, 1, 62, 92
3, 178684, Note_on_c, 1, 62, 0
3, 178688, Note_on_c, 1, 61, 92
3, 178748, Note_on_c, 1, 61, 0
3, 178752, Note_on_c, 1, 59, 92
3, 178812, Note_on_c, 1, 59, 0
3, 178816, Note_on_c, 1, 61, 92
3, 178876, Note_on_c, 1, 61, 0
3, 178880, Note_on_c, 1, 59, 92
3, 178940, Note_on_c, 1, 59, 0
3, 178944, Note_on_c, 1, 57, 92
3, 179120, Note_on_c, 1, 74, 92
3, 179132, Note_on_c, 1, 57, 0
3, 179136, Note_on_c, 1, 86, 92
3, 179196, Note_on_c, 1, 86, 0
3, 179200, Note_on_c, 1, 88, 92
3, 179260, Note_on_c, 1, 88, 0
3, 179264, Note_on_c, 1, 86, 92
3, 179324, Note_on_c, 1, 86, 0
3, 179328, Note_on_c, 1, 85, 92
3, 179328, Note_on_c, 1, 74, 92
3, 179388, Note_on_c, 1, 85, 0
3, 179392, Note_on_c, 1, 86, 92
3, 179452, Note_on_c, 1, 86, 0
3, 179456, Note_on_c, 1, 85, 92
3, 179516, Note_on_c, 1, 85, 0
3, 179516, Note_on_c, 1, 74, 0
3, 179520, Note_on_c, 1, 83, 92
3, 179580, Note_on_c, 1, 83, 0
3, 179584, Note_on_c, 1, 85, 92
3, 179644, Note_on_c, 1, 85, 0
3, 179648, Note_on_c, 1, 83, 92
3, 179692, Note_on_c, 1, 74, 0
3, 179708, Note_on_c, 1, 83, 0
3, 179712, Note_on_c, 1, 81, 92
3, 179712, Note_on_c, 1, 74, 92
3, 179900, Note_on_c, 1, 81, 0
3, 179904, Note_on_c, 1, 83, 92
3, 179964, Note_on_c, 1, 83, 0
3, 179968, Note_on_c, 1, 85, 92
3, 180028, Note_on_c, 1, 85, 0
3, 180032, Note_on_c, 1, 83, 92
3, 180092, Note_on_c, 1, 83, 0
3, 180096, Note_on_c, 1, 81, 92
3, 180156, Note_on_c, 1, 81, 0
3, 180160, Note_on_c, 1, 83, 92
3, 180220, Note_on_c, 1, 83, 0
3, 180224, Note_on_c, 1, 81, 92
3, 180284, Note_on_c, 1, 81, 0
3, 180288, Note_on_c, 1, 79, 92
3, 180348, Note_on_c, 1, 79, 0
3, 180352, Note_on_c, 1, 81, 92
3, 180412, Note_on_c, 1, 81, 0
3, 180416, Note_on_c, 1, 79, 92
3, 180476, Note_on_c, 1, 79, 0
3, 180476, Note_on_c, 1, 74, 0
3, 180480, Note_on_c, 1, 78, 92
3, 180480, Note_on_c, 1, 74, 92
3, 180668, Note_on_c, 1, 74, 0
3, 180668, Note_on_c, 1, 78, 0
3, 180672, Note_on_c, 1, 79, 92
3, 180672, Note_on_c, 1, 74, 92
3, 180732, Note_on_c, 1, 79, 0
3, 180736, Note_on_c, 1, 81, 92
3, 180796, Note_on_c, 1, 81, 0
3, 180800, Note_on_c, 1, 79, 92
3, 180860, Note_on_c, 1, 79, 0
3, 180864, Note_on_c, 1, 78, 92
3, 180924, Note_on_c, 1, 78, 0
3, 180928, Note_on_c, 1, 79, 92
3, 180988, Note_on_c, 1, 79, 0
3, 180992, Note_on_c, 1, 78, 92
3, 181052, Note_on_c, 1, 78, 0
3, 181052, Note_on_c, 1, 74, 0
3, 181056, Note_on_c, 1, 76, 92
3, 181056, Note_on_c, 1, 74, 92
3, 181116, Note_on_c, 1, 76, 0
3, 181120, Note_on_c, 1, 78, 92
3, 181180, Note_on_c, 1, 78, 0
3, 181184, Note_on_c, 1, 76, 92
3, 181244, Note_on_c, 1, 76, 0
3, 181244, Note_on_c, 1, 74, 0
3, 181248, Note_on_c, 1, 78, 92
3, 181248, Note_on_c, 1, 74, 92
3, 181248, Note_on_c, 1, 69, 92
3, 182204, Note_on_c, 1, 69, 0
3, 182204, Note_on_c, 1, 74, 0
3, 182204, Note_on_c, 1, 78, 0
3, 220800, Program_c, 1, 48
3, 221184, Note_on_c, 1, 74, 92
3, 221184, Note_on_c, 1, 62, 92
3, 221372, Note_on_c, 1, 62, 0
3, 221372, Note_on_c, 1, 74, 0
3, 221376, Note_on_c, 1, 66, 92
3, 221376, Note_on_c, 1, 54, 92
3, 221516, Note_on_c, 1, 54, 0
3, 221516, Note_on_c, 1, 66, 0
3, 221520, Note_on_c, 1, 62, 103
3, 221564, Note_on_c, 1, 62, 0
3, 221568, Note_on_c, 1, 67, 92
3, 221568, Note_on_c, 1, 55, 92
3, 221756, Note_on_c, 1, 55, 0
3, 221756, Note_on_c, 1, 67, 0
3, 221760, Note_on_c, 1, 68, 92
3, 221760, Note_on_c, 1, 56, 92
3, 221900, Note_on_c, 1, 56, 0
3, 221900, Note_on_c, 1, 68, 0
3, 221904, Note_on_c, 1, 64, 103
3, 221948, Note_on_c, 1, 64, 0
3, 221952, Note_on_c, 1, 69, 92
3, 221952, Note_on_c, 1, 57, 92
3, 222140, Note_on_c, 1, 57, 0
3, 222140, Note_on_c, 1, 69, 0
3, 222144, Note_on_c, 1, 70, 92
3, 222144, Note_on_c, 1, 58, 92
3, 222284, Note_on_c, 1, 58, 0
3, 222284, Note_on_c, 1, 70, 0
3, 222288, Note_on_c, 1, 66, 103
3, 222332, Note_on_c, 1, 66, 0
3, 222336, Note_on_c, 1, 71, 92
3, 222336, Note_on_c, 1, 59, 92
3, 222524, Note_on_c, 1, 59, 0
3, 222524, Note_on_c, 1, 71, 0
3, 222528, Note_on_c, 1, 73, 92
3, 222528, Note_on_c, 1, 61, 92
3, 222620, Note_on_c, 1, 61, 0
3, 222620, Note_on_c, 1, 73, 0
3, 222672, Note_on_c, 1, 69, 103
3, 222716, Note_on_c, 1, 69, 0
3, 222720, Note_on_c, 1, 74, 92
3, 222812, Note_on_c, 1, 74, 0
3, 222816, Note_on_c, 1, 74, 92
3, 222816, Note_on_c, 1, 86, 92
3, 223004, Note_on_c, 1, 86, 0
3, 223004, Note_on_c, 1, 74, 0
3, 223008, Note_on_c, 1, 74, 92
3, 223008, Note_on_c, 1, 84, 92
3, 223196, Note_on_c, 1, 84, 0
3, 223196, Note_on_c, 1, 74, 0
3, 223200, Note_on_c, 1, 74, 92
3, 223200, Note_on_c, 1, 83, 92
3, 223388, Note_on_c, 1, 83, 0
3, 223388, Note_on_c, 1, 74, 0
3, 223392, Note_on_c, 1, 82, 92
3, 223392, Note_on_c, 1, 74, 92
3, 223484, Note_on_c, 1, 74, 0
3, 223484, Note_on_c, 1, 82, 0
3, 223488, Note_on_c, 1, 74, 92
3, 223488, Note_on_c, 1, 82, 92
3, 223580, Note_on_c, 1, 82, 0
3, 223584, Note_on_c, 1, 83, 92
3, 223676, Note_on_c, 1, 83, 0
3, 223676, Note_on_c, 1, 74, 0
3, 223680, Note_on_c, 1, 74, 92
3, 223680, Note_on_c, 1, 82, 92
3, 223772, Note_on_c, 1, 82, 0
3, 223776, Note_on_c, 1, 83, 92
3, 223868, Note_on_c, 1, 83, 0
3, 223868, Note_on_c, 1, 74, 0
3, 223872, Note_on_c, 1, 81, 92
3, 223872, Note_on_c, 1, 73, 92
3, 223964, Note_on_c, 1, 73, 0
3, 223964, Note_on_c, 1, 81, 0
3, 223968, Note_on_c, 1, 79, 92
3, 223968, Note_on_c, 1, 71, 92
3, 224060, Note_on_c, 1, 71, 0
3, 224060, Note_on_c, 1, 79, 0
3, 224064, Note_on_c, 1, 78, 92
3, 224064, Note_on_c, 1, 69, 92
3, 224156, Note_on_c, 1, 69, 0
3, 224156, Note_on_c, 1, 78, 0
3, 224160, Note_on_c, 1, 76, 92
3, 224160, Note_on_c, 1, 67, 92
3, 224252, Note_on_c, 1, 67, 0
3, 224252, Note_on_c, 1, 76, 0
3, 224256, Note_on_c, 1, 74, 92
3, 224256, Note_on_c, 1, 66, 92
3, 224448, Note_on_c, 1, 69, 92
3, 224636, Note_on_c, 1, 69, 0
3, 224636, Note_on_c, 1, 66, 0
3, 224636, Note_on_c, 1, 74, 0
3, 224640, Note_on_c, 1, 67, 92
3, 224640, Note_on_c, 1, 73, 92
3, 224640, Note_on_c, 1, 76, 92
3, 224668, Note_on_c, 1, 76, 0
3, 224672, Note_on_c, 1, 78, 92
3, 224700, Note_on_c, 1, 78, 0
3, 224704, Note_on_c, 1, 76, 92
3, 224732, Note_on_c, 1, 76, 0
3, 224736, Note_on_c, 1, 78, 92
3, 224764, Note_on_c, 1, 78, 0
3, 224768, Note_on_c, 1, 76, 92
3, 224796, Note_on_c, 1, 76, 0
3, 224800, Note_on_c, 1, 78, 92
3, 224828, Note_on_c, 1, 78, 0
3, 224832, Note_on_c, 1, 76, 92
3, 224860, Note_on_c, 1, 76, 0
3, 224864, Note_on_c, 1, 78, 92
3, 224892, Note_on_c, 1, 78, 0
3, 224896, Note_on_c, 1, 76, 92
3, 224924, Note_on_c, 1, 76, 0
3, 224928, Note_on_c, 1, 74, 92
3, 224972, Note_on_c, 1, 74, 0
3, 224976, Note_on_c, 1, 76, 92
3, 225020, Note_on_c, 1, 76, 0
3, 225020, Note_on_c, 1, 73, 0
3, 225020, Note_on_c, 1, 67, 0
3, 225024, Note_on_c, 1, 74, 70
3, 225024, Note_on_c, 1, 66, 70
3, 225116, Note_on_c, 1, 66, 0
3, 225116, Note_on_c, 1, 74, 0
3, 225120, Note_on_c, 1, 74, 70
3, 225312, Note_on_c, 1, 74, 0
3, 225312, Note_on_c, 1, 72, 70
3, 225504, Note_on_c, 1, 72, 0
3, 225504, Note_on_c, 1, 71, 70
3, 225696, Note_on_c, 1, 71, 0
3, 225696, Note_on_c, 1, 70, 70
3, 225788, Note_on_c, 1, 70, 0
3, 225792, Note_on_c, 1, 70, 70
3, 225884, Note_on_c, 1, 70, 0
3, 225888, Note_on_c, 1, 71, 70
3, 225980, Note_on_c, 1, 71, 0
3, 225984, Note_on_c, 1, 70, 70
3, 226076, Note_on_c, 1, 70, 0
3, 226080, Note_on_c, 1, 71, 70
3, 226172, Note_on_c, 1, 71, 0
3, 226176, Note_on_c, 1, 75, 70
3, 226268, Note_on_c, 1, 75, 0
3, 226272, Note_on_c, 1, 76, 70
3, 226364, Note_on_c, 1, 76, 0
3, 226368, Note_on_c, 1, 75, 70
3, 226368, Note_on_c, 1, 83, 76
3, 226460, Note_on_c, 1, 75, 0
3, 226464, Note_on_c, 1, 76, 70
3, 226468, Note_on_c, 1, 83, 0
3, 226556, Note_on_c, 1, 76, 0
3, 226560, Note_on_c, 1, 70, 70
3, 226652, Note_on_c, 1, 70, 0
3, 226656, Note_on_c, 1, 71, 70
3, 226748, Note_on_c, 1, 71, 0
3, 226752, Note_on_c, 1, 70, 70
3, 226752, Note_on_c, 1, 79, 76
3, 226844, Note_on_c, 1, 70, 0
3, 226848, Note_on_c, 1, 71, 70
3, 226852, Note_on_c, 1, 79, 0
3, 226940, Note_on_c, 1, 71, 0
3, 226944, Note_on_c, 1, 66, 70
3, 227036, Note_on_c, 1, 66, 0
3, 227040, Note_on_c, 1, 67, 70
3, 227132, Note_on_c, 1, 67, 0
3, 227136, Note_on_c, 1, 66, 70
3, 227136, Note_on_c, 1, 76, 76
3, 227228, Note_on_c, 1, 66, 0
3, 227232, Note_on_c, 1, 67, 70
3, 227236, Note_on_c, 1, 76, 0
3, 227324, Note_on_c, 1, 67, 0
3, 227328, Note_on_c, 1, 66, 70
3, 227328, Note_on_c, 1, 57, 70
3, 227328, Note_on_c, 1, 81, 70
3, 227420, Note_on_c, 1, 66, 0
3, 227424, Note_on_c, 1, 69, 70
3, 227516, Note_on_c, 1, 69, 0
3, 227516, Note_on_c, 1, 57, 0
3, 227520, Note_on_c, 1, 66, 70
3, 227520, Note_on_c, 1, 57, 70
3, 227612, Note_on_c, 1, 66, 0
3, 227616, Note_on_c, 1, 62, 70
3, 227708, Note_on_c, 1, 62, 0
3, 227708, Note_on_c, 1, 57, 0
3, 227708, Note_on_c, 1, 81, 0
3, 227712, Note_on_c, 1, 66, 70
3, 227712, Note_on_c, 1, 57, 70
3, 227712, Note_on_c, 1, 81, 70
3, 227804, Note_on_c, 1, 66, 0
3, 227808, Note_on_c, 1, 69, 70
3, 227900, Note_on_c, 1, 69, 0
3, 227900, Note_on_c, 1, 57, 0
3, 227904, Note_on_c, 1, 66, 70
3, 227904, Note_on_c, 1, 57, 70
3, 227996, Note_on_c, 1, 66, 0
3, 227996, Note_on_c, 1, 81, 0
3, 228000, Note_on_c, 1, 62, 70
3, 228000, Note_on_c, 1, 83, 70
3, 228092, Note_on_c, 1, 83, 0
3, 228092, Note_on_c, 1, 62, 0
3, 228092, Note_on_c, 1, 57, 0
3, 228096, Note_on_c, 1, 67, 70
3, 228096, Note_on_c, 1, 57, 70
3, 228096, Note_on_c, 1, 74, 70
3, 228188, Note_on_c, 1, 67, 0
3, 228192, Note_on_c, 1, 69, 70
3, 228284, Note_on_c, 1, 69, 0
3, 228284, Note_on_c, 1, 57, 0
3, 228288, Note_on_c, 1, 67, 70
3, 228288, Note_on_c, 1, 57, 70
3, 228380, Note_on_c, 1, 67, 0
3, 228384, Note_on_c, 1, 64, 70
3, 228476, Note_on_c, 1, 64, 0
3, 228476, Note_on_c, 1, 57, 0
3, 228476, Note_on_c, 1, 74, 0
3, 228480, Note_on_c, 1, 67, 70
3, 228480, Note_on_c, 1, 57, 70
3, 228480, Note_on_c, 1, 73, 76
3, 228508, Note_on_c, 1, 73, 0
3, 228512, Note_on_c, 1, 74, 76
3, 228540, Note_on_c, 1, 74, 0
3, 228544, Note_on_c, 1, 74, 76
3, 228572, Note_on_c, 1, 74, 0
3, 228572, Note_on_c, 1, 67, 0
3, 228576, Note_on_c, 1, 73, 76
3, 228576, Note_on_c, 1, 69, 70
3, 228604, Note_on_c, 1, 73, 0
3, 228608, Note_on_c, 1, 73, 76
3, 228636, Note_on_c, 1, 73, 0
3, 228640, Note_on_c, 1, 74, 76
3, 228668, Note_on_c, 1, 74, 0
3, 228668, Note_on_c, 1, 69, 0
3, 228668, Note_on_c, 1, 57, 0
3, 228672, Note_on_c, 1, 67, 70
3, 228672, Note_on_c, 1, 57, 70
3, 228672, Note_on_c, 1, 73, 76
3, 228700, Note_on_c, 1, 73, 0
3, 228704, Note_on_c, 1, 74, 76
3, 228732, Note_on_c, 1, 74, 0
3, 228736, Note_on_c, 1, 73, 76
3, 228764, Note_on_c, 1, 73, 0
3, 228764, Note_on_c, 1, 67, 0
3, 228768, Note_on_c, 1, 64, 70
3, 228768, Note_on_c, 1, 71, 76
3, 228812, Note_on_c, 1, 71, 0
3, 228816, Note_on_c, 1, 73, 76
3, 228860, Note_on_c, 1, 73, 0
3, 228860, Note_on_c, 1, 64, 0
3, 228860, Note_on_c, 1, 57, 0
3, 228864, Note_on_c, 1, 74, 92
3, 228864, Note_on_c, 1, 66, 92
3, 229052, Note_on_c, 1, 66, 0
3, 229052, Note_on_c, 1, 74, 0
3, 229056, Note_on_c, 1, 78, 92
3, 229196, Note_on_c, 1, 78, 0
3, 229200, Note_on_c, 1, 74, 98
3, 229244, Note_on_c, 1, 74, 0
3, 229248, Note_on_c, 1, 81, 92
3, 229436, Note_on_c, 1, 81, 0
3, 229440, Note_on_c, 1, 85, 92
3, 229580, Note_on_c, 1, 85, 0
3, 229584, Note_on_c, 1, 81, 98
3, 229628, Note_on_c, 1, 81, 0
3, 229632, Note_on_c, 1, 86, 92
3, 229820, Note_on_c, 1, 86, 0
3, 229824, Note_on_c, 1, 78, 92
3, 229964, Note_on_c, 1, 78, 0
3, 229968, Note_on_c, 1, 74, 98
3, 230012, Note_on_c, 1, 74, 0
3, 230016, Note_on_c, 1, 81, 92
3, 230204, Note_on_c, 1, 81, 0
3, 230208, Note_on_c, 1, 73, 92
3, 230348, Note_on_c, 1, 73, 0
3, 230352, Note_on_c, 1, 69, 98
3, 230396, Note_on_c, 1, 69, 0
3, 230400, Note_on_c, 1, 74, 92
3, 230576, Note_on_c, 1, 71, 92
3, 230588, Note_on_c, 1, 74, 0
3, 230716, Note_on_c, 1, 71, 0
3, 230736, Note_on_c, 1, 66, 98
3, 230780, Note_on_c, 1, 66, 0
3, 230784, Note_on_c, 1, 67, 92
3, 230960, Note_on_c, 1, 71, 92
3, 230972, Note_on_c, 1, 67, 0
3, 231100, Note_on_c, 1, 71, 0
3, 231120, Note_on_c, 1, 73, 98
3, 231164, Note_on_c, 1, 73, 0
3, 231168, Note_on_c, 1, 74, 92
3, 231356, Note_on_c, 1, 74, 0
3, 231360, Note_on_c, 1, 74, 92
3, 231360, Note_on_c, 1, 78, 92
3, 231500, Note_on_c, 1, 78, 0
3, 231500, Note_on_c, 1, 74, 0
3, 231504, Note_on_c, 1, 78, 98
3, 231504, Note_on_c, 1, 74, 98
3, 231548, Note_on_c, 1, 74, 0
3, 231548, Note_on_c, 1, 78, 0
3, 231552, Note_on_c, 1, 76, 92
3, 231552, Note_on_c, 1, 74, 92
3, 231740, Note_on_c, 1, 74, 0
3, 231740, Note_on_c, 1, 76, 0
3, 231744, Note_on_c, 1, 73, 92
3, 231744, Note_on_c, 1, 69, 92
3, 231744, Note_on_c, 1, 76, 92
3, 231884, Note_on_c, 1, 76, 0
3, 231884, Note_on_c, 1, 69, 0
3, 231884, Note_on_c, 1, 73, 0
3, 231888, Note_on_c, 1, 76, 98
3, 231888, Note_on_c, 1, 73, 98
3, 231888, Note_on_c, 1, 69, 98
3, 231932, Note_on_c, 1, 69, 0
3, 231932, Note_on_c, 1, 73, 0
3, 231932, Note_on_c, 1, 76, 0
3, 231936, Note_on_c, 1, 74, 92
3, 231936, Note_on_c, 1, 69, 92
3, 231936, Note_on_c, 1, 66, 92
3, 232316, Note_on_c, 1, 66, 0
3, 232316, Note_on_c, 1, 69, 0
3, 232320, Note_on_c, 1, 81, 92
3, 232320, Note_on_c, 1, 74, 92
3, 232320, Note_on_c, 1, 69, 92
3, 232320, Note_on_c, 1, 78, 92
3, 232508, Note_on_c, 1, 74, 0
3, 232700, Note_on_c, 1, 69, 0
3, 232700, Note_on_c, 1, 74, 0
3, 232700, Note_on_c, 1, 81, 0
3, 232700, Note_on_c, 1, 78, 0
3, 232704, Note_on_c, 1, 86, 92
3, 232704, Note_on_c, 1, 81, 92
3, 232704, Note_on_c, 1, 78, 92
3, 232704, Note_on_c, 1, 74, 92
3, 233084, Note_on_c, 1, 74, 0
3, 233084, Note_on_c, 1, 86, 0
3, 233084, Note_on_c, 1, 81, 0
3, 233084, Note_on_c, 1, 78, 0
3, 233084, End_track
4, 0, Start_track
4, 0, MIDI_port, 0
4, 0, Title_t, "K211 -a -Moderato assai"
4, 0, Control_c, 2, 0, 0
4, 0, Control_c, 2, 32, 0
4, 0, Program_c, 2, 48
4, 0, Control_c, 2, 7, 127
4, 0, Control_c, 2, 10, 79
4, 0, Control_c, 2, 91, 67
4, 0, Control_c, 2, 93, 0
4, 0, Control_c, 2, 121, 0
4, 192, Control_c, 2, 10, 73
4, 384, Control_c, 2, 91, 73
4, 576, Program_c, 2, 48
4, 1536, Note_on_c, 2, 62, 92
4, 1536, Note_on_c, 2, 50, 92
4, 1916, Note_on_c, 2, 50, 0
4, 1916, Note_on_c, 2, 62, 0
4, 1920, Note_on_c, 2, 57, 92
4, 1920, Note_on_c, 2, 45, 92
4, 2208, Note_on_c, 2, 45, 0
4, 2208, Note_on_c, 2, 57, 0
4, 2208, Note_on_c, 2, 57, 92
4, 2208, Note_on_c, 2, 45, 92
4, 2256, Note_on_c, 2, 45, 0
4, 2256, Note_on_c, 2, 57, 0
4, 2304, Note_on_c, 2, 54, 92
4, 2304, Note_on_c, 2, 42, 92
4, 2404, Note_on_c, 2, 42, 0
4, 2404, Note_on_c, 2, 54, 0
4, 2496, Note_on_c, 2, 50, 92
4, 2496, Note_on_c, 2, 38, 92
4, 2596, Note_on_c, 2, 38, 0
4, 2596, Note_on_c, 2, 50, 0
4, 3264, Note_on_c, 2, 59, 70
4, 3264, Note_on_c, 2, 62, 70
4, 3364, Note_on_c, 2, 62, 0
4, 3364, Note_on_c, 2, 59, 0
4, 3456, Note_on_c, 2, 59, 70
4, 3456, Note_on_c, 2, 62, 70
4, 3556, Note_on_c, 2, 62, 0
4, 3556, Note_on_c, 2, 59, 0
4, 4032, Note_on_c, 2, 59, 70
4, 4032, Note_on_c, 2, 62, 70
4, 4132, Note_on_c, 2, 62, 0
4, 4132, Note_on_c, 2, 59, 0
4, 4224, Note_on_c, 2, 59, 70
4, 4224, Note_on_c, 2, 62, 70
4, 4324, Note_on_c, 2, 62, 0
4, 4324, Note_on_c, 2, 59, 0
4, 4608, Note_on_c, 2, 62, 92
4, 4608, Note_on_c, 2, 57, 92
4, 4608, Note_on_c, 2, 54, 92
4, 4708, Note_on_c, 2, 54, 0
4, 4708, Note_on_c, 2, 57, 0
4, 4708, Note_on_c, 2, 62, 0
4, 4800, Note_on_c, 2, 57, 92
4, 4800, Note_on_c, 2, 54, 92
4, 4800, Note_on_c, 2, 50, 92
4, 4900, Note_on_c, 2, 50, 0
4, 4900, Note_on_c, 2, 54, 0
4, 4900, Note_on_c, 2, 57, 0
4, 4992, Note_on_c, 2, 57, 92
4, 4992, Note_on_c, 2, 52, 92
4, 4992, Note_on_c, 2, 49, 92
4, 5092, Note_on_c, 2, 49, 0
4, 5092, Note_on_c, 2, 52, 0
4, 5092, Note_on_c, 2, 57, 0
4, 5184, Note_on_c, 2, 57, 92
4, 5184, Note_on_c, 2, 52, 92
4, 5184, Note_on_c, 2, 49, 92
4, 5184, Note_on_c, 2, 45, 92
4, 5284, Note_on_c, 2, 45, 0
4, 5284, Note_on_c, 2, 57, 0
4, 5284, Note_on_c, 2, 52, 0
4, 5284, Note_on_c, 2, 49, 0
4, 5376, Note_on_c, 2, 50, 92
4, 5476, Note_on_c, 2, 50, 0
4, 5568, Note_on_c, 2, 62, 92
4, 5668, Note_on_c, 2, 62, 0
4, 5760, Note_on_c, 2, 50, 92
4, 5860, Note_on_c, 2, 50, 0
4, 6336, Note_on_c, 2, 59, 70
4, 6436, Note_on_c, 2, 59, 0
4, 6528, Note_on_c, 2, 59, 70
4, 6628, Note_on_c, 2, 59, 0
4, 7104, Note_on_c, 2, 55, 70
4, 7204, Note_on_c, 2, 55, 0
4, 7296, Note_on_c, 2, 55, 70
4, 7396, Note_on_c, 2, 55, 0
4, 7680, Note_on_c, 2, 54, 92
4, 7780, Note_on_c, 2, 54, 0
4, 7872, Note_on_c, 2, 57, 92
4, 7872, Note_on_c, 2, 54, 92
4, 7872, Note_on_c, 2, 50, 92
4, 7972, Note_on_c, 2, 50, 0
4, 7972, Note_on_c, 2, 54, 0
4, 7972, Note_on_c, 2, 57, 0
4, 8064, Note_on_c, 2, 57, 92
4, 8064, Note_on_c, 2, 52, 92
4, 8064, Note_on_c, 2, 49, 92
4, 8164, Note_on_c, 2, 49, 0
4, 8164, Note_on_c, 2, 52, 0
4, 8164, Note_on_c, 2, 57, 0
4, 8256, Note_on_c, 2, 57, 92
4, 8256, Note_on_c, 2, 50, 92
4, 8256, Note_on_c, 2, 54, 92
4, 8356, Note_on_c, 2, 54, 0
4, 8356, Note_on_c, 2, 50, 0
4, 8356, Note_on_c, 2, 57, 0
4, 8448, Note_on_c, 2, 57, 92
4, 8548, Note_on_c, 2, 57, 0
4, 8640, Note_on_c, 2, 45, 92
4, 8740, Note_on_c, 2, 45, 0
4, 8832, Note_on_c, 2, 57, 92
4, 8932, Note_on_c, 2, 57, 0
4, 9024, Note_on_c, 2, 57, 92
4, 9124, Note_on_c, 2, 57, 0
4, 9216, Note_on_c, 2, 62, 92
4, 9404, Note_on_c, 2, 62, 0
4, 9408, Note_on_c, 2, 66, 92
4, 9500, Note_on_c, 2, 66, 0
4, 9504, Note_on_c, 2, 57, 92
4, 9552, Note_on_c, 2, 57, 0
4, 9600, Note_on_c, 2, 62, 92
4, 9648, Note_on_c, 2, 62, 0
4, 9696, Note_on_c, 2, 57, 92
4, 9744, Note_on_c, 2, 57, 0
4, 9792, Note_on_c, 2, 54, 92
4, 9840, Note_on_c, 2, 54, 0
4, 9888, Note_on_c, 2, 50, 92
4, 9936, Note_on_c, 2, 50, 0
4, 9984, Note_on_c, 2, 57, 92
4, 10084, Note_on_c, 2, 57, 0
4, 10176, Note_on_c, 2, 45, 92
4, 10276, Note_on_c, 2, 45, 0
4, 10752, Note_on_c, 2, 50, 70
4, 10852, Note_on_c, 2, 50, 0
4, 10944, Note_on_c, 2, 45, 70
4, 11044, Note_on_c, 2, 45, 0
4, 11136, Note_on_c, 2, 52, 70
4, 11236, Note_on_c, 2, 52, 0
4, 11328, Note_on_c, 2, 45, 70
4, 11428, Note_on_c, 2, 45, 0
4, 11520, Note_on_c, 2, 54, 70
4, 11620, Note_on_c, 2, 54, 0
4, 11712, Note_on_c, 2, 45, 70
4, 11812, Note_on_c, 2, 45, 0
4, 11904, Note_on_c, 2, 50, 70
4, 12004, Note_on_c, 2, 50, 0
4, 12096, Note_on_c, 2, 45, 70
4, 12196, Note_on_c, 2, 45, 0
4, 12288, Note_on_c, 2, 49, 70
4, 12388, Note_on_c, 2, 49, 0
4, 12480, Note_on_c, 2, 45, 70
4, 12580, Note_on_c, 2, 45, 0
4, 12672, Note_on_c, 2, 50, 70
4, 12772, Note_on_c, 2, 50, 0
4, 12864, Note_on_c, 2, 45, 70
4, 12964, Note_on_c, 2, 45, 0
4, 13056, Note_on_c, 2, 52, 70
4, 13156, Note_on_c, 2, 52, 0
4, 13248, Note_on_c, 2, 45, 70
4, 13348, Note_on_c, 2, 45, 0
4, 13440, Note_on_c, 2, 49, 70
4, 13540, Note_on_c, 2, 49, 0
4, 13632, Note_on_c, 2, 45, 70
4, 13732, Note_on_c, 2, 45, 0
4, 13824, Note_on_c, 2, 50, 70
4, 13916, Note_on_c, 2, 50, 0
4, 13920, Note_on_c, 2, 62, 70
4, 14012, Note_on_c, 2, 62, 0
4, 14016, Note_on_c, 2, 60, 70
4, 14108, Note_on_c, 2, 60, 0
4, 14112, Note_on_c, 2, 62, 70
4, 14204, Note_on_c, 2, 62, 0
4, 14208, Note_on_c, 2, 59, 70
4, 14300, Note_on_c, 2, 59, 0
4, 14304, Note_on_c, 2, 62, 70
4, 14396, Note_on_c, 2, 62, 0
4, 14400, Note_on_c, 2, 55, 70
4, 14492, Note_on_c, 2, 55, 0
4, 14496, Note_on_c, 2, 62, 70
4, 14588, Note_on_c, 2, 62, 0
4, 14592, Note_on_c, 2, 54, 70
4, 14780, Note_on_c, 2, 54, 0
4, 14784, Note_on_c, 2, 62, 70
4, 14784, Note_on_c, 2, 60, 70
4, 14972, Note_on_c, 2, 60, 0
4, 14972, Note_on_c, 2, 62, 0
4, 14976, Note_on_c, 2, 62, 70
4, 14976, Note_on_c, 2, 59, 70
4, 15164, Note_on_c, 2, 59, 0
4, 15164, Note_on_c, 2, 62, 0
4, 15168, Note_on_c, 2, 62, 70
4, 15168, Note_on_c, 2, 55, 70
4, 15356, Note_on_c, 2, 55, 0
4, 15356, Note_on_c, 2, 62, 0
4, 15360, Note_on_c, 2, 50, 70
4, 15452, Note_on_c, 2, 50, 0
4, 15456, Note_on_c, 2, 62, 70
4, 15548, Note_on_c, 2, 62, 0
4, 15552, Note_on_c, 2, 60, 70
4, 15644, Note_on_c, 2, 60, 0
4, 15648, Note_on_c, 2, 62, 70
4, 15740, Note_on_c, 2, 62, 0
4, 15744, Note_on_c, 2, 59, 70
4, 15836, Note_on_c, 2, 59, 0
4, 15840, Note_on_c, 2, 62, 70
4, 15932, Note_on_c, 2, 62, 0
4, 15936, Note_on_c, 2, 55, 70
4, 16028, Note_on_c, 2, 55, 0
4, 16032, Note_on_c, 2, 62, 70
4, 16124, Note_on_c, 2, 62, 0
4, 16128, Note_on_c, 2, 54, 70
4, 16316, Note_on_c, 2, 54, 0
4, 16320, Note_on_c, 2, 62, 70
4, 16320, Note_on_c, 2, 60, 70
4, 16508, Note_on_c, 2, 60, 0
4, 16508, Note_on_c, 2, 62, 0
4, 16512, Note_on_c, 2, 62, 70
4, 16512, Note_on_c, 2, 59, 70
4, 16700, Note_on_c, 2, 59, 0
4, 16700, Note_on_c, 2, 62, 0
4, 16704, Note_on_c, 2, 62, 70
4, 16704, Note_on_c, 2, 55, 70
4, 16892, Note_on_c, 2, 55, 0
4, 16892, Note_on_c, 2, 62, 0
4, 16896, Note_on_c, 2, 50, 70
4, 16988, Note_on_c, 2, 50, 0
4, 16992, Note_on_c, 2, 62, 70
4, 17084, Note_on_c, 2, 62, 0
4, 17088, Note_on_c, 2, 60, 70
4, 17180, Note_on_c, 2, 60, 0
4, 17184, Note_on_c, 2, 62, 70
4, 17276, Note_on_c, 2, 62, 0
4, 17280, Note_on_c, 2, 59, 70
4, 17372, Note_on_c, 2, 59, 0
4, 17376, Note_on_c, 2, 62, 70
4, 17468, Note_on_c, 2, 62, 0
4, 17472, Note_on_c, 2, 55, 70
4, 17564, Note_on_c, 2, 55, 0
4, 17568, Note_on_c, 2, 62, 70
4, 17660, Note_on_c, 2, 62, 0
4, 17664, Note_on_c, 2, 54, 70
4, 17852, Note_on_c, 2, 54, 0
4, 17856, Note_on_c, 2, 54, 92
4, 17856, Note_on_c, 2, 62, 92
4, 17856, Note_on_c, 2, 66, 92
4, 17996, Note_on_c, 2, 66, 0
4, 17996, Note_on_c, 2, 62, 0
4, 17996, Note_on_c, 2, 54, 0
4, 18000, Note_on_c, 2, 66, 92
4, 18000, Note_on_c, 2, 62, 92
4, 18000, Note_on_c, 2, 54, 92
4, 18044, Note_on_c, 2, 54, 0
4, 18044, Note_on_c, 2, 62, 0
4, 18044, Note_on_c, 2, 66, 0
4, 18048, Note_on_c, 2, 66, 92
4, 18048, Note_on_c, 2, 62, 92
4, 18048, Note_on_c, 2, 54, 92
4, 18236, Note_on_c, 2, 54, 0
4, 18236, Note_on_c, 2, 62, 0
4, 18236, Note_on_c, 2, 66, 0
4, 18240, Note_on_c, 2, 66, 92
4, 18240, Note_on_c, 2, 62, 92
4, 18240, Note_on_c, 2, 54, 92
4, 18428, Note_on_c, 2, 54, 0
4, 18428, Note_on_c, 2, 62, 0
4, 18428, Note_on_c, 2, 66, 0
4, 18432, Note_on_c, 2, 67, 92
4, 18432, Note_on_c, 2, 62, 92
4, 18432, Note_on_c, 2, 55, 92
4, 18620, Note_on_c, 2, 55, 0
4, 18620, Note_on_c, 2, 62, 0
4, 18620, Note_on_c, 2, 67, 0
4, 18624, Note_on_c, 2, 62, 92
4, 18624, Note_on_c, 2, 55, 92
4, 18764, Note_on_c, 2, 55, 0
4, 18764, Note_on_c, 2, 62, 0
4, 18768, Note_on_c, 2, 62, 92
4, 18768, Note_on_c, 2, 55, 92
4, 18812, Note_on_c, 2, 55, 0
4, 18812, Note_on_c, 2, 62, 0
4, 18816, Note_on_c, 2, 62, 92
4, 18816, Note_on_c, 2, 56, 92
4, 19004, Note_on_c, 2, 56, 0
4, 19004, Note_on_c, 2, 62, 0
4, 19008, Note_on_c, 2, 62, 92
4, 19008, Note_on_c, 2, 56, 92
4, 19196, Note_on_c, 2, 56, 0
4, 19196, Note_on_c, 2, 62, 0
4, 19200, Note_on_c, 2, 62, 92
4, 19200, Note_on_c, 2, 57, 92
4, 19388, Note_on_c, 2, 57, 0
4, 19388, Note_on_c, 2, 62, 0
4, 19392, Note_on_c, 2, 66, 92
4, 19392, Note_on_c, 2, 62, 92
4, 19392, Note_on_c, 2, 57, 92
4, 19536, Note_on_c, 2, 66, 92
4, 19536, Note_on_c, 2, 62, 92
4, 19536, Note_on_c, 2, 57, 92
4, 19580, Note_on_c, 2, 57, 0
4, 19580, Note_on_c, 2, 66, 0
4, 19580, Note_on_c, 2, 62, 0
4, 19584, Note_on_c, 2, 57, 92
4, 19584, Note_on_c, 2, 67, 92
4, 19584, Note_on_c, 2, 61, 92
4, 19676, Note_on_c, 2, 57, 0
4, 19676, Note_on_c, 2, 66, 0
4, 19676, Note_on_c, 2, 62, 0
4, 19772, Note_on_c, 2, 57, 0
4, 19772, Note_on_c, 2, 67, 0
4, 19772, Note_on_c, 2, 61, 0
4, 19776, Note_on_c, 2, 61, 92
4, 19776, Note_on_c, 2, 57, 92
4, 19776, Note_on_c, 2, 67, 92
4, 19964, Note_on_c, 2, 67, 0
4, 19964, Note_on_c, 2, 57, 0
4, 19964, Note_on_c, 2, 61, 0
4, 19968, Note_on_c, 2, 66, 70
4, 19968, Note_on_c, 2, 62, 70
4, 19968, Note_on_c, 2, 59, 70
4, 20156, Note_on_c, 2, 59, 0
4, 20156, Note_on_c, 2, 62, 0
4, 20156, Note_on_c, 2, 66, 0
4, 21120, Note_on_c, 2, 59, 70
4, 21120, Note_on_c, 2, 52, 70
4, 21212, Note_on_c, 2, 59, 0
4, 21216, Note_on_c, 2, 61, 70
4, 21308, Note_on_c, 2, 61, 0
4, 21312, Note_on_c, 2, 59, 70
4, 21404, Note_on_c, 2, 59, 0
4, 21408, Note_on_c, 2, 61, 70
4, 21500, Note_on_c, 2, 61, 0
4, 21500, Note_on_c, 2, 52, 0
4, 21504, Note_on_c, 2, 57, 70
4, 21884, Note_on_c, 2, 57, 0
4, 22656, Note_on_c, 2, 57, 70
4, 22656, Note_on_c, 2, 45, 70
4, 22748, Note_on_c, 2, 57, 0
4, 22752, Note_on_c, 2, 55, 70
4, 22844, Note_on_c, 2, 55, 0
4, 22848, Note_on_c, 2, 57, 70
4, 22940, Note_on_c, 2, 57, 0
4, 22944, Note_on_c, 2, 55, 70
4, 23036, Note_on_c, 2, 55, 0
4, 23036, Note_on_c, 2, 45, 0
4, 23040, Note_on_c, 2, 54, 70
4, 23040, Note_on_c, 2, 50, 70
4, 23224, Note_on_c, 2, 50, 0
4, 23224, Note_on_c, 2, 54, 0
4, 23232, Note_on_c, 2, 42, 92
4, 23372, Note_on_c, 2, 42, 0
4, 23376, Note_on_c, 2, 50, 92
4, 23376, Note_on_c, 2, 38, 92
4, 23416, Note_on_c, 2, 38, 0
4, 23416, Note_on_c, 2, 50, 0
4, 23424, Note_on_c, 2, 43, 92
4, 23608, Note_on_c, 2, 43, 0
4, 23616, Note_on_c, 2, 44, 92
4, 23756, Note_on_c, 2, 44, 0
4, 23760, Note_on_c, 2, 52, 92
4, 23760, Note_on_c, 2, 40, 92
4, 23800, Note_on_c, 2, 40, 0
4, 23800, Note_on_c, 2, 52, 0
4, 23808, Note_on_c, 2, 45, 92
4, 23992, Note_on_c, 2, 45, 0
4, 24000, Note_on_c, 2, 46, 92
4, 24140, Note_on_c, 2, 46, 0
4, 24144, Note_on_c, 2, 54, 92
4, 24144, Note_on_c, 2, 42, 92
4, 24184, Note_on_c, 2, 42, 0
4, 24184, Note_on_c, 2, 54, 0
4, 24192, Note_on_c, 2, 47, 92
4, 24376, Note_on_c, 2, 47, 0
4, 24384, Note_on_c, 2, 49, 92
4, 24524, Note_on_c, 2, 49, 0
4, 24528, Note_on_c, 2, 57, 92
4, 24528, Note_on_c, 2, 45, 92
4, 24568, Note_on_c, 2, 45, 0
4, 24568, Note_on_c, 2, 57, 0
4, 24576, Note_on_c, 2, 62, 92
4, 24576, Note_on_c, 2, 50, 92
4, 24764, Note_on_c, 2, 50, 0
4, 24764, Note_on_c, 2, 62, 0
4, 24768, Note_on_c, 2, 62, 92
4, 24768, Note_on_c, 2, 50, 92
4, 24956, Note_on_c, 2, 50, 0
4, 24956, Note_on_c, 2, 62, 0
4, 24960, Note_on_c, 2, 62, 92
4, 24960, Note_on_c, 2, 50, 92
4, 25148, Note_on_c, 2, 50, 0
4, 25148, Note_on_c, 2, 62, 0
4, 25152, Note_on_c, 2, 62, 92
4, 25152, Note_on_c, 2, 50, 92
4, 25340, Note_on_c, 2, 50, 0
4, 25340, Note_on_c, 2, 62, 0
4, 25344, Note_on_c, 2, 62, 92
4, 25344, Note_on_c, 2, 50, 92
4, 25532, Note_on_c, 2, 50, 0
4, 25532, Note_on_c, 2, 62, 0
4, 25536, Note_on_c, 2, 62, 92
4, 25536, Note_on_c, 2, 50, 92
4, 25724, Note_on_c, 2, 50, 0
4, 25724, Note_on_c, 2, 62, 0
4, 25728, Note_on_c, 2, 62, 92
4, 25728, Note_on_c, 2, 50, 92
4, 25916, Note_on_c, 2, 50, 0
4, 25916, Note_on_c, 2, 62, 0
4, 25920, Note_on_c, 2, 62, 92
4, 25920, Note_on_c, 2, 50, 92
4, 26108, Note_on_c, 2, 50, 0
4, 26108, Note_on_c, 2, 62, 0
4, 26112, Note_on_c, 2, 62, 92
4, 26112, Note_on_c, 2, 57, 92
4, 26300, Note_on_c, 2, 57, 0
4, 26300, Note_on_c, 2, 62, 0
4, 26304, Note_on_c, 2, 62, 92
4, 26304, Note_on_c, 2, 57, 92
4, 26492, Note_on_c, 2, 57, 0
4, 26492, Note_on_c, 2, 62, 0
4, 26496, Note_on_c, 2, 45, 92
4, 26496, Note_on_c, 2, 57, 92
4, 26684, Note_on_c, 2, 57, 0
4, 26684, Note_on_c, 2, 45, 0
4, 26688, Note_on_c, 2, 57, 92
4, 26688, Note_on_c, 2, 45, 92
4, 26876, Note_on_c, 2, 45, 0
4, 26876, Note_on_c, 2, 57, 0
4, 26880, Note_on_c, 2, 57, 92
4, 26880, Note_on_c, 2, 50, 92
4, 27068, Note_on_c, 2, 50, 0
4, 27068, Note_on_c, 2, 57, 0
4, 27072, Note_on_c, 2, 57, 70
4, 27072, Note_on_c, 2, 62, 70
4, 27072, Note_on_c, 2, 66, 70
4, 27260, Note_on_c, 2, 66, 0
4, 27260, Note_on_c, 2, 62, 0
4, 27260, Note_on_c, 2, 57, 0
4, 27264, Note_on_c, 2, 55, 70
4, 27264, Note_on_c, 2, 62, 70
4, 27264, Note_on_c, 2, 67, 70
4, 27452, Note_on_c, 2, 67, 0
4, 27452, Note_on_c, 2, 62, 0
4, 27452, Note_on_c, 2, 55, 0
4, 27456, Note_on_c, 2, 54, 70
4, 27456, Note_on_c, 2, 62, 70
4, 27644, Note_on_c, 2, 62, 0
4, 27644, Note_on_c, 2, 54, 0
4, 27648, Note_on_c, 2, 62, 70
4, 27648, Note_on_c, 2, 55, 70
4, 27836, Note_on_c, 2, 55, 0
4, 27836, Note_on_c, 2, 62, 0
4, 27840, Note_on_c, 2, 55, 70
4, 28028, Note_on_c, 2, 55, 0
4, 28032, Note_on_c, 2, 55, 70
4, 28220, Note_on_c, 2, 55, 0
4, 28224, Note_on_c, 2, 55, 70
4, 28412, Note_on_c, 2, 55, 0
4, 28416, Note_on_c, 2, 55, 70
4, 28604, Note_on_c, 2, 55, 0
4, 28608, Note_on_c, 2, 55, 70
4, 28796, Note_on_c, 2, 55, 0
4, 28800, Note_on_c, 2, 55, 70
4, 28800, Note_on_c, 2, 59, 70
4, 28988, Note_on_c, 2, 59, 0
4, 28988, Note_on_c, 2, 55, 0
4, 28992, Note_on_c, 2, 55, 70
4, 28992, Note_on_c, 2, 59, 70
4, 29180, Note_on_c, 2, 59, 0
4, 29180, Note_on_c, 2, 55, 0
4, 30720, Note_on_c, 2, 62, 70
4, 30720, Note_on_c, 2, 50, 70
4, 30908, Note_on_c, 2, 50, 0
4, 30908, Note_on_c, 2, 62, 0
4, 30912, Note_on_c, 2, 62, 92
4, 30912, Note_on_c, 2, 62, 92
4, 30912, Note_on_c, 2, 50, 92
4, 31004, Note_on_c, 2, 50, 0
4, 31004, Note_on_c, 2, 62, 0
4, 31004, Note_on_c, 2, 62, 0
4, 31040, Note_on_c, 2, 50, 92
4, 31056, Note_on_c, 2, 62, 92
4, 31080, Note_on_c, 2, 50, 0
4, 31096, Note_on_c, 2, 62, 0
4, 31104, Note_on_c, 2, 64, 92
4, 31104, Note_on_c, 2, 57, 92
4, 31292, Note_on_c, 2, 57, 0
4, 31292, Note_on_c, 2, 64, 0
4, 31296, Note_on_c, 2, 64, 92
4, 31296, Note_on_c, 2, 57, 92
4, 31436, Note_on_c, 2, 57, 0
4, 31436, Note_on_c, 2, 64, 0
4, 31440, Note_on_c, 2, 64, 92
4, 31440, Note_on_c, 2, 57, 92
4, 31480, Note_on_c, 2, 57, 0
4, 31480, Note_on_c, 2, 64, 0
4, 31488, Note_on_c, 2, 62, 92
4, 31488, Note_on_c, 2, 66, 92
4, 31676, Note_on_c, 2, 66, 0
4, 31676, Note_on_c, 2, 62, 0
4, 31680, Note_on_c, 2, 42, 92
4, 31680, Note_on_c, 2, 54, 92
4, 31820, Note_on_c, 2, 54, 0
4, 31820, Note_on_c, 2, 42, 0
4, 31824, Note_on_c, 2, 50, 92
4, 31824, Note_on_c, 2, 38, 92
4, 31864, Note_on_c, 2, 38, 0
4, 31864, Note_on_c, 2, 50, 0
4, 31872, Note_on_c, 2, 57, 92
4, 31872, Note_on_c, 2, 45, 92
4, 32060, Note_on_c, 2, 45, 0
4, 32060, Note_on_c, 2, 57, 0
4, 32064, Note_on_c, 2, 49, 92
4, 32064, Note_on_c, 2, 61, 92
4, 32192, Note_on_c, 2, 45, 92
4, 32204, Note_on_c, 2, 61, 0
4, 32204, Note_on_c, 2, 49, 0
4, 32208, Note_on_c, 2, 57, 92
4, 32232, Note_on_c, 2, 45, 0
4, 32248, Note_on_c, 2, 57, 0
4, 32256, Note_on_c, 2, 62, 92
4, 32256, Note_on_c, 2, 50, 92
4, 32444, Note_on_c, 2, 50, 0
4, 32444, Note_on_c, 2, 62, 0
4, 32448, Note_on_c, 2, 59, 92
4, 32448, Note_on_c, 2, 47, 92
4, 32588, Note_on_c, 2, 47, 0
4, 32588, Note_on_c, 2, 59, 0
4, 32592, Note_on_c, 2, 54, 92
4, 32592, Note_on_c, 2, 42, 92
4, 32632, Note_on_c, 2, 42, 0
4, 32632, Note_on_c, 2, 54, 0
4, 32640, Note_on_c, 2, 55, 92
4, 32640, Note_on_c, 2, 43, 92
4, 32828, Note_on_c, 2, 43, 0
4, 32828, Note_on_c, 2, 55, 0
4, 32832, Note_on_c, 2, 45, 92
4, 33020, Note_on_c, 2, 45, 0
4, 33024, Note_on_c, 2, 50, 92
4, 33024, Note_on_c, 2, 38, 92
4, 33212, Note_on_c, 2, 38, 0
4, 33212, Note_on_c, 2, 50, 0
4, 33216, Note_on_c, 2, 62, 92
4, 33216, Note_on_c, 2, 50, 92
4, 33404, Note_on_c, 2, 50, 0
4, 33404, Note_on_c, 2, 62, 0
4, 33408, Note_on_c, 2, 50, 92
4, 33408, Note_on_c, 2, 38, 92
4, 33596, Note_on_c, 2, 38, 0
4, 33596, Note_on_c, 2, 50, 0
4, 33792, Note_on_c, 2, 62, 92
4, 34172, Note_on_c, 2, 62, 0
4, 34176, Note_on_c, 2, 57, 92
4, 34464, Note_on_c, 2, 57, 0
4, 34464, Note_on_c, 2, 57, 95
4, 34504, Note_on_c, 2, 57, 0
4, 34560, Note_on_c, 2, 54, 92
4, 34660, Note_on_c, 2, 54, 0
4, 34752, Note_on_c, 2, 50, 92
4, 34852, Note_on_c, 2, 50, 0
4, 35520, Note_on_c, 2, 59, 70
4, 35620, Note_on_c, 2, 59, 0
4, 35712, Note_on_c, 2, 59, 70
4, 35812, Note_on_c, 2, 59, 0
4, 36288, Note_on_c, 2, 55, 70
4, 36388, Note_on_c, 2, 55, 0
4, 36480, Note_on_c, 2, 55, 70
4, 36580, Note_on_c, 2, 55, 0
4, 36864, Note_on_c, 2, 66, 70
4, 37052, Note_on_c, 2, 66, 0
4, 37056, Note_on_c, 2, 62, 70
4, 37244, Note_on_c, 2, 62, 0
4, 37248, Note_on_c, 2, 64, 70
4, 37436, Note_on_c, 2, 64, 0
4, 37440, Note_on_c, 2, 69, 70
4, 37628, Note_on_c, 2, 69, 0
4, 37632, Note_on_c, 2, 62, 70
4, 37820, Note_on_c, 2, 62, 0
4, 37824, Note_on_c, 2, 62, 76
4, 37852, Note_on_c, 2, 62, 0
4, 37856, Note_on_c, 2, 64, 76
4, 37884, Note_on_c, 2, 64, 0
4, 37888, Note_on_c, 2, 62, 76
4, 37916, Note_on_c, 2, 62, 0
4, 37920, Note_on_c, 2, 64, 76
4, 37948, Note_on_c, 2, 64, 0
4, 37952, Note_on_c, 2, 64, 73
4, 38000, Note_on_c, 2, 64, 0
4, 38016, Note_on_c, 2, 66, 70
4, 38204, Note_on_c, 2, 66, 0
4, 38592, Note_on_c, 2, 59, 70
4, 38592, Note_on_c, 2, 62, 70
4, 38692, Note_on_c, 2, 62, 0
4, 38692, Note_on_c, 2, 59, 0
4, 38784, Note_on_c, 2, 59, 70
4, 38784, Note_on_c, 2, 62, 70
4, 38884, Note_on_c, 2, 62, 0
4, 38884, Note_on_c, 2, 59, 0
4, 39360, Note_on_c, 2, 55, 70
4, 39360, Note_on_c, 2, 62, 70
4, 39460, Note_on_c, 2, 62, 0
4, 39460, Note_on_c, 2, 55, 0
4, 39552, Note_on_c, 2, 55, 70
4, 39552, Note_on_c, 2, 62, 70
4, 39652, Note_on_c, 2, 62, 0
4, 39652, Note_on_c, 2, 55, 0
4, 39936, Note_on_c, 2, 66, 70
4, 40124, Note_on_c, 2, 66, 0
4, 40128, Note_on_c, 2, 66, 70
4, 40316, Note_on_c, 2, 66, 0
4, 40320, Note_on_c, 2, 66, 70
4, 40508, Note_on_c, 2, 66, 0
4, 40512, Note_on_c, 2, 66, 70
4, 40700, Note_on_c, 2, 66, 0
4, 40704, Note_on_c, 2, 64, 71
4, 40892, Note_on_c, 2, 64, 0
4, 40896, Note_on_c, 2, 64, 71
4, 41084, Note_on_c, 2, 64, 0
4, 41088, Note_on_c, 2, 64, 73
4, 41180, Note_on_c, 2, 64, 0
4, 41184, Note_on_c, 2, 62, 74
4, 41276, Note_on_c, 2, 62, 0
4, 41280, Note_on_c, 2, 61, 74
4, 41372, Note_on_c, 2, 61, 0
4, 41376, Note_on_c, 2, 59, 74
4, 41468, Note_on_c, 2, 59, 0
4, 41472, Note_on_c, 2, 57, 81
4, 41660, Note_on_c, 2, 57, 0
4, 41664, Note_on_c, 2, 57, 81
4, 41852, Note_on_c, 2, 57, 0
4, 41856, Note_on_c, 2, 57, 81
4, 42044, Note_on_c, 2, 57, 0
4, 42048, Note_on_c, 2, 57, 81
4, 42236, Note_on_c, 2, 57, 0
4, 42240, Note_on_c, 2, 57, 81
4, 42428, Note_on_c, 2, 57, 0
4, 42432, Note_on_c, 2, 57, 81
4, 42620, Note_on_c, 2, 57, 0
4, 42624, Note_on_c, 2, 57, 81
4, 42812, Note_on_c, 2, 57, 0
4, 42816, Note_on_c, 2, 57, 81
4, 43004, Note_on_c, 2, 57, 0
4, 43008, Note_on_c, 2, 62, 81
4, 43196, Note_on_c, 2, 62, 0
4, 43200, Note_on_c, 2, 57, 81
4, 43388, Note_on_c, 2, 57, 0
4, 43392, Note_on_c, 2, 61, 81
4, 43580, Note_on_c, 2, 61, 0
4, 43584, Note_on_c, 2, 57, 81
4, 43772, Note_on_c, 2, 57, 0
4, 43776, Note_on_c, 2, 62, 81
4, 43964, Note_on_c, 2, 62, 0
4, 43968, Note_on_c, 2, 57, 81
4, 44156, Note_on_c, 2, 57, 0
4, 44160, Note_on_c, 2, 61, 81
4, 44348, Note_on_c, 2, 61, 0
4, 44352, Note_on_c, 2, 57, 81
4, 44540, Note_on_c, 2, 57, 0
4, 44544, Note_on_c, 2, 62, 81
4, 44924, Note_on_c, 2, 62, 0
4, 46464, Note_on_c, 2, 52, 92
4, 46524, Note_on_c, 2, 52, 0
4, 46528, Note_on_c, 2, 54, 92
4, 46588, Note_on_c, 2, 54, 0
4, 46592, Note_on_c, 2, 52, 92
4, 46652, Note_on_c, 2, 52, 0
4, 46656, Note_on_c, 2, 50, 92
4, 46716, Note_on_c, 2, 50, 0
4, 46720, Note_on_c, 2, 52, 92
4, 46780, Note_on_c, 2, 52, 0
4, 46784, Note_on_c, 2, 50, 92
4, 46844, Note_on_c, 2, 50, 0
4, 46848, Note_on_c, 2, 49, 92
4, 47036, Note_on_c, 2, 49, 0
4, 52608, Note_on_c, 2, 59, 92
4, 52668, Note_on_c, 2, 59, 0
4, 52672, Note_on_c, 2, 61, 92
4, 52732, Note_on_c, 2, 61, 0
4, 52736, Note_on_c, 2, 59, 92
4, 52796, Note_on_c, 2, 59, 0
4, 52800, Note_on_c, 2, 56, 92
4, 52860, Note_on_c, 2, 56, 0
4, 52864, Note_on_c, 2, 57, 92
4, 52924, Note_on_c, 2, 57, 0
4, 52928, Note_on_c, 2, 56, 92
4, 52988, Note_on_c, 2, 56, 0
4, 52992, Note_on_c, 2, 52, 92
4, 53372, Note_on_c, 2, 52, 0
4, 53760, Note_on_c, 2, 56, 76
4, 53948, Note_on_c, 2, 56, 0
4, 53952, Note_on_c, 2, 57, 76
4, 54140, Note_on_c, 2, 57, 0
4, 54144, Note_on_c, 2, 56, 76
4, 54332, Note_on_c, 2, 56, 0
4, 54336, Note_on_c, 2, 57, 76
4, 54524, Note_on_c, 2, 57, 0
4, 54528, Note_on_c, 2, 56, 76
4, 54908, Note_on_c, 2, 56, 0
4, 55296, Note_on_c, 2, 57, 76
4, 55296, Note_on_c, 2, 61, 76
4, 55484, Note_on_c, 2, 61, 0
4, 55484, Note_on_c, 2, 57, 0
4, 55488, Note_on_c, 2, 56, 76
4, 55488, Note_on_c, 2, 62, 76
4, 55676, Note_on_c, 2, 62, 0
4, 55676, Note_on_c, 2, 56, 0
4, 55680, Note_on_c, 2, 57, 76
4, 55680, Note_on_c, 2, 61, 76
4, 55868, Note_on_c, 2, 61, 0
4, 55868, Note_on_c, 2, 57, 0
4, 55872, Note_on_c, 2, 56, 76
4, 55872, Note_on_c, 2, 62, 76
4, 56060, Note_on_c, 2, 62, 0
4, 56060, Note_on_c, 2, 56, 0
4, 56064, Note_on_c, 2, 61, 76
4, 56064, Note_on_c, 2, 57, 76
4, 56444, Note_on_c, 2, 57, 0
4, 56444, Note_on_c, 2, 61, 0
4, 56832, Note_on_c, 2, 56, 59
4, 57020, Note_on_c, 2, 56, 0
4, 57024, Note_on_c, 2, 57, 59
4, 57212, Note_on_c, 2, 57, 0
4, 57216, Note_on_c, 2, 56, 59
4, 57404, Note_on_c, 2, 56, 0
4, 57408, Note_on_c, 2, 57, 59
4, 57596, Note_on_c, 2, 57, 0
4, 57600, Note_on_c, 2, 56, 59
4, 57980, Note_on_c, 2, 56, 0
4, 58368, Note_on_c, 2, 57, 59
4, 58556, Note_on_c, 2, 57, 0
4, 58560, Note_on_c, 2, 52, 59
4, 58748, Note_on_c, 2, 52, 0
4, 58752, Note_on_c, 2, 49, 59
4, 58940, Note_on_c, 2, 49, 0
4, 58944, Note_on_c, 2, 45, 59
4, 59132, Note_on_c, 2, 45, 0
4, 59136, Note_on_c, 2, 57, 71
4, 59324, Note_on_c, 2, 57, 0
4, 59328, Note_on_c, 2, 52, 74
4, 59516, Note_on_c, 2, 52, 0
4, 59520, Note_on_c, 2, 49, 77
4, 59708, Note_on_c, 2, 49, 0
4, 59712, Note_on_c, 2, 45, 79
4, 59900, Note_on_c, 2, 45, 0
4, 59904, Note_on_c, 2, 52, 81
4, 60092, Note_on_c, 2, 52, 0
4, 60096, Note_on_c, 2, 52, 81
4, 60284, Note_on_c, 2, 52, 0
4, 60288, Note_on_c, 2, 52, 81
4, 60476, Note_on_c, 2, 52, 0
4, 60480, Note_on_c, 2, 52, 81
4, 60668, Note_on_c, 2, 52, 0
4, 60672, Note_on_c, 2, 45, 81
4, 60860, Note_on_c, 2, 45, 0
4, 60864, Note_on_c, 2, 57, 81
4, 61052, Note_on_c, 2, 57, 0
4, 61056, Note_on_c, 2, 45, 81
4, 61244, Note_on_c, 2, 45, 0
4, 61440, Note_on_c, 2, 57, 70
4, 61540, Note_on_c, 2, 57, 0
4, 61632, Note_on_c, 2, 52, 70
4, 61732, Note_on_c, 2, 52, 0
4, 61824, Note_on_c, 2, 59, 70
4, 61924, Note_on_c, 2, 59, 0
4, 62016, Note_on_c, 2, 52, 70
4, 62116, Note_on_c, 2, 52, 0
4, 62208, Note_on_c, 2, 61, 70
4, 62308, Note_on_c, 2, 61, 0
4, 62400, Note_on_c, 2, 52, 70
4, 62500, Note_on_c, 2, 52, 0
4, 62592, Note_on_c, 2, 57, 70
4, 62692, Note_on_c, 2, 57, 0
4, 62784, Note_on_c, 2, 52, 70
4, 62884, Note_on_c, 2, 52, 0
4, 62976, Note_on_c, 2, 56, 70
4, 63076, Note_on_c, 2, 56, 0
4, 63168, Note_on_c, 2, 52, 70
4, 63268, Note_on_c, 2, 52, 0
4, 63360, Note_on_c, 2, 57, 70
4, 63460, Note_on_c, 2, 57, 0
4, 63552, Note_on_c, 2, 52, 70
4, 63652, Note_on_c, 2, 52, 0
4, 63744, Note_on_c, 2, 59, 70
4, 63844, Note_on_c, 2, 59, 0
4, 63936, Note_on_c, 2, 52, 70
4, 64036, Note_on_c, 2, 52, 0
4, 64128, Note_on_c, 2, 56, 70
4, 64228, Note_on_c, 2, 56, 0
4, 64320, Note_on_c, 2, 52, 70
4, 64420, Note_on_c, 2, 52, 0
4, 64512, Note_on_c, 2, 57, 70
4, 64612, Note_on_c, 2, 57, 0
4, 64704, Note_on_c, 2, 52, 70
4, 64804, Note_on_c, 2, 52, 0
4, 64896, Note_on_c, 2, 59, 70
4, 64996, Note_on_c, 2, 59, 0
4, 65088, Note_on_c, 2, 52, 70
4, 65188, Note_on_c, 2, 52, 0
4, 65280, Note_on_c, 2, 61, 70
4, 65380, Note_on_c, 2, 61, 0
4, 65472, Note_on_c, 2, 52, 70
4, 65572, Note_on_c, 2, 52, 0
4, 65664, Note_on_c, 2, 57, 70
4, 65764, Note_on_c, 2, 57, 0
4, 65856, Note_on_c, 2, 52, 70
4, 65956, Note_on_c, 2, 52, 0
4, 66048, Note_on_c, 2, 56, 70
4, 66148, Note_on_c, 2, 56, 0
4, 66240, Note_on_c, 2, 52, 70
4, 66340, Note_on_c, 2, 52, 0
4, 66432, Note_on_c, 2, 57, 70
4, 66532, Note_on_c, 2, 57, 0
4, 66624, Note_on_c, 2, 52, 70
4, 66724, Note_on_c, 2, 52, 0
4, 66816, Note_on_c, 2, 59, 70
4, 66916, Note_on_c, 2, 59, 0
4, 67008, Note_on_c, 2, 52, 70
4, 67108, Note_on_c, 2, 52, 0
4, 67200, Note_on_c, 2, 56, 70
4, 67300, Note_on_c, 2, 56, 0
4, 67392, Note_on_c, 2, 52, 70
4, 67492, Note_on_c, 2, 52, 0
4, 67584, Note_on_c, 2, 57, 70
4, 67684, Note_on_c, 2, 57, 0
4, 67776, Note_on_c, 2, 67, 70
4, 67876, Note_on_c, 2, 67, 0
4, 67968, Note_on_c, 2, 66, 70
4, 68068, Note_on_c, 2, 66, 0
4, 68160, Note_on_c, 2, 62, 70
4, 68260, Note_on_c, 2, 62, 0
4, 68352, Note_on_c, 2, 61, 70
4, 68452, Note_on_c, 2, 61, 0
4, 68544, Note_on_c, 2, 55, 70
4, 68644, Note_on_c, 2, 55, 0
4, 68736, Note_on_c, 2, 54, 70
4, 68836, Note_on_c, 2, 54, 0
4, 68928, Note_on_c, 2, 50, 70
4, 69028, Note_on_c, 2, 50, 0
4, 69120, Note_on_c, 2, 45, 70
4, 69220, Note_on_c, 2, 45, 0
4, 69312, Note_on_c, 2, 55, 70
4, 69412, Note_on_c, 2, 55, 0
4, 69504, Note_on_c, 2, 54, 70
4, 69604, Note_on_c, 2, 54, 0
4, 69696, Note_on_c, 2, 50, 70
4, 69796, Note_on_c, 2, 50, 0
4, 69888, Note_on_c, 2, 49, 70
4, 69988, Note_on_c, 2, 49, 0
4, 70080, Note_on_c, 2, 55, 70
4, 70180, Note_on_c, 2, 55, 0
4, 70272, Note_on_c, 2, 54, 70
4, 70372, Note_on_c, 2, 54, 0
4, 70464, Note_on_c, 2, 50, 70
4, 70564, Note_on_c, 2, 50, 0
4, 70656, Note_on_c, 2, 45, 70
4, 70756, Note_on_c, 2, 45, 0
4, 70848, Note_on_c, 2, 67, 70
4, 70948, Note_on_c, 2, 67, 0
4, 71040, Note_on_c, 2, 66, 70
4, 71140, Note_on_c, 2, 66, 0
4, 71232, Note_on_c, 2, 62, 70
4, 71332, Note_on_c, 2, 62, 0
4, 71424, Note_on_c, 2, 61, 71
4, 71612, Note_on_c, 2, 61, 0
4, 71616, Note_on_c, 2, 61, 73
4, 71804, Note_on_c, 2, 61, 0
4, 71808, Note_on_c, 2, 61, 75
4, 71996, Note_on_c, 2, 61, 0
4, 72000, Note_on_c, 2, 61, 77
4, 72188, Note_on_c, 2, 61, 0
4, 72192, Note_on_c, 2, 62, 78
4, 72380, Note_on_c, 2, 62, 0
4, 72384, Note_on_c, 2, 66, 80
4, 72572, Note_on_c, 2, 66, 0
4, 72576, Note_on_c, 2, 64, 82
4, 72764, Note_on_c, 2, 64, 0
4, 72768, Note_on_c, 2, 63, 83
4, 72956, Note_on_c, 2, 63, 0
4, 72960, Note_on_c, 2, 64, 86
4, 73148, Note_on_c, 2, 64, 0
4, 73152, Note_on_c, 2, 64, 88
4, 73340, Note_on_c, 2, 64, 0
4, 73344, Note_on_c, 2, 64, 89
4, 73532, Note_on_c, 2, 64, 0
4, 73536, Note_on_c, 2, 64, 91
4, 73724, Note_on_c, 2, 64, 0
4, 73728, Note_on_c, 2, 57, 92
4, 73916, Note_on_c, 2, 57, 0
4, 78336, Note_on_c, 2, 57, 71
4, 78524, Note_on_c, 2, 57, 0
4, 78528, Note_on_c, 2, 57, 73
4, 78716, Note_on_c, 2, 57, 0
4, 78720, Note_on_c, 2, 61, 74
4, 78908, Note_on_c, 2, 61, 0
4, 78912, Note_on_c, 2, 61, 75
4, 79100, Note_on_c, 2, 61, 0
4, 79104, Note_on_c, 2, 62, 77
4, 79292, Note_on_c, 2, 62, 0
4, 79296, Note_on_c, 2, 66, 78
4, 79296, Note_on_c, 2, 50, 78
4, 79484, Note_on_c, 2, 50, 0
4, 79484, Note_on_c, 2, 66, 0
4, 79488, Note_on_c, 2, 66, 79
4, 79488, Note_on_c, 2, 50, 79
4, 79676, Note_on_c, 2, 50, 0
4, 79676, Note_on_c, 2, 66, 0
4, 79680, Note_on_c, 2, 66, 80
4, 79680, Note_on_c, 2, 57, 80
4, 79680, Note_on_c, 2, 51, 80
4, 79868, Note_on_c, 2, 51, 0
4, 79868, Note_on_c, 2, 57, 0
4, 79868, Note_on_c, 2, 66, 0
4, 79872, Note_on_c, 2, 52, 82
4, 79872, Note_on_c, 2, 64, 82
4, 79872, Note_on_c, 2, 57, 82
4, 79964, Note_on_c, 2, 57, 0
4, 79964, Note_on_c, 2, 64, 0
4, 80060, Note_on_c, 2, 52, 0
4, 80064, Note_on_c, 2, 52, 82
4, 80252, Note_on_c, 2, 52, 0
4, 80256, Note_on_c, 2, 52, 83
4, 80444, Note_on_c, 2, 52, 0
4, 80448, Note_on_c, 2, 52, 83
4, 80636, Note_on_c, 2, 52, 0
4, 80640, Note_on_c, 2, 52, 85
4, 80828, Note_on_c, 2, 52, 0
4, 80832, Note_on_c, 2, 52, 86
4, 81020, Note_on_c, 2, 52, 0
4, 81024, Note_on_c, 2, 52, 86
4, 81212, Note_on_c, 2, 52, 0
4, 81216, Note_on_c, 2, 52, 87
4, 81404, Note_on_c, 2, 52, 0
4, 81408, Note_on_c, 2, 45, 92
4, 81596, Note_on_c, 2, 45, 0
4, 81600, Note_on_c, 2, 57, 92
4, 81660, Note_on_c, 2, 57, 0
4, 81664, Note_on_c, 2, 59, 92
4, 81724, Note_on_c, 2, 59, 0
4, 81728, Note_on_c, 2, 57, 92
4, 81788, Note_on_c, 2, 57, 0
4, 81792, Note_on_c, 2, 56, 92
4, 81852, Note_on_c, 2, 56, 0
4, 81856, Note_on_c, 2, 57, 92
4, 81916, Note_on_c, 2, 57, 0
4, 81920, Note_on_c, 2, 56, 92
4, 81980, Note_on_c, 2, 56, 0
4, 81984, Note_on_c, 2, 54, 92
4, 82044, Note_on_c, 2, 54, 0
4, 82048, Note_on_c, 2, 56, 92
4, 82108, Note_on_c, 2, 56, 0
4, 82112, Note_on_c, 2, 54, 92
4, 82172, Note_on_c, 2, 54, 0
4, 82176, Note_on_c, 2, 52, 92
4, 82352, Note_on_c, 2, 57, 92
4, 82364, Note_on_c, 2, 52, 0
4, 82368, Note_on_c, 2, 54, 92
4, 82428, Note_on_c, 2, 54, 0
4, 82432, Note_on_c, 2, 56, 92
4, 82492, Note_on_c, 2, 56, 0
4, 82496, Note_on_c, 2, 54, 92
4, 82556, Note_on_c, 2, 54, 0
4, 82560, Note_on_c, 2, 52, 92
4, 82620, Note_on_c, 2, 52, 0
4, 82624, Note_on_c, 2, 54, 92
4, 82684, Note_on_c, 2, 54, 0
4, 82688, Note_on_c, 2, 52, 92
4, 82748, Note_on_c, 2, 52, 0
4, 82752, Note_on_c, 2, 50, 92
4, 82812, Note_on_c, 2, 50, 0
4, 82816, Note_on_c, 2, 52, 92
4, 82876, Note_on_c, 2, 52, 0
4, 82880, Note_on_c, 2, 50, 92
4, 82940, Note_on_c, 2, 50, 0
4, 82944, Note_on_c, 2, 57, 98
4, 83136, Note_on_c, 2, 50, 92
4, 83196, Note_on_c, 2, 50, 0
4, 83200, Note_on_c, 2, 52, 92
4, 83260, Note_on_c, 2, 52, 0
4, 83264, Note_on_c, 2, 50, 92
4, 83324, Note_on_c, 2, 50, 0
4, 83328, Note_on_c, 2, 49, 92
4, 83388, Note_on_c, 2, 49, 0
4, 83392, Note_on_c, 2, 50, 92
4, 83452, Note_on_c, 2, 50, 0
4, 83456, Note_on_c, 2, 49, 92
4, 83516, Note_on_c, 2, 49, 0
4, 83520, Note_on_c, 2, 47, 92
4, 83580, Note_on_c, 2, 47, 0
4, 83584, Note_on_c, 2, 49, 92
4, 83644, Note_on_c, 2, 49, 0
4, 83648, Note_on_c, 2, 47, 92
4, 83692, Note_on_c, 2, 57, 0
4, 83708, Note_on_c, 2, 47, 0
4, 83708, Note_on_c, 2, 57, 0
4, 83712, Note_on_c, 2, 45, 92
4, 83712, Note_on_c, 2, 57, 92
4, 83900, Note_on_c, 2, 57, 0
4, 83900, Note_on_c, 2, 45, 0
4, 83904, Note_on_c, 2, 49, 92
4, 83904, Note_on_c, 2, 57, 92
4, 84044, Note_on_c, 2, 57, 0
4, 84044, Note_on_c, 2, 49, 0
4, 84048, Note_on_c, 2, 57, 98
4, 84048, Note_on_c, 2, 49, 98
4, 84092, Note_on_c, 2, 49, 0
4, 84092, Note_on_c, 2, 57, 0
4, 84096, Note_on_c, 2, 57, 92
4, 84096, Note_on_c, 2, 49, 92
4, 84284, Note_on_c, 2, 49, 0
4, 84284, Note_on_c, 2, 57, 0
4, 84288, Note_on_c, 2, 57, 92
4, 84288, Note_on_c, 2, 49, 92
4, 84476, Note_on_c, 2, 49, 0
4, 84476, Note_on_c, 2, 57, 0
4, 84480, Note_on_c, 2, 57, 92
4, 84480, Note_on_c, 2, 50, 92
4, 84668, Note_on_c, 2, 50, 0
4, 84668, Note_on_c, 2, 57, 0
4, 84672, Note_on_c, 2, 57, 92
4, 84672, Note_on_c, 2, 50, 92
4, 84812, Note_on_c, 2, 50, 0
4, 84812, Note_on_c, 2, 57, 0
4, 84816, Note_on_c, 2, 57, 98
4, 84816, Note_on_c, 2, 50, 98
4, 84860, Note_on_c, 2, 50, 0
4, 84860, Note_on_c, 2, 57, 0
4, 84864, Note_on_c, 2, 57, 92
4, 84864, Note_on_c, 2, 51, 92
4, 85052, Note_on_c, 2, 51, 0
4, 85052, Note_on_c, 2, 57, 0
4, 85056, Note_on_c, 2, 57, 92
4, 85056, Note_on_c, 2, 51, 92
4, 85244, Note_on_c, 2, 51, 0
4, 85244, Note_on_c, 2, 57, 0
4, 85248, Note_on_c, 2, 57, 92
4, 85248, Note_on_c, 2, 52, 92
4, 85436, Note_on_c, 2, 52, 0
4, 85436, Note_on_c, 2, 57, 0
4, 85440, Note_on_c, 2, 57, 92
4, 85440, Note_on_c, 2, 61, 92
4, 85440, Note_on_c, 2, 52, 92
4, 85580, Note_on_c, 2, 52, 0
4, 85580, Note_on_c, 2, 61, 0
4, 85580, Note_on_c, 2, 57, 0
4, 85584, Note_on_c, 2, 61, 92
4, 85584, Note_on_c, 2, 57, 92
4, 85584, Note_on_c, 2, 52, 92
4, 85628, Note_on_c, 2, 52, 0
4, 85628, Note_on_c, 2, 57, 0
4, 85628, Note_on_c, 2, 61, 0
4, 85632, Note_on_c, 2, 62, 92
4, 85632, Note_on_c, 2, 56, 92
4, 85632, Note_on_c, 2, 52, 92
4, 85820, Note_on_c, 2, 52, 0
4, 85820, Note_on_c, 2, 56, 0
4, 85820, Note_on_c, 2, 62, 0
4, 85824, Note_on_c, 2, 62, 92
4, 85824, Note_on_c, 2, 56, 92
4, 85824, Note_on_c, 2, 52, 92
4, 86012, Note_on_c, 2, 52, 0
4, 86012, Note_on_c, 2, 56, 0
4, 86012, Note_on_c, 2, 62, 0
4, 86016, Note_on_c, 2, 61, 92
4, 86016, Note_on_c, 2, 57, 92
4, 86016, Note_on_c, 2, 54, 92
4, 86204, Note_on_c, 2, 54, 0
4, 86204, Note_on_c, 2, 57, 0
4, 86204, Note_on_c, 2, 61, 0
4, 87168, Note_on_c, 2, 54, 70
4, 87168, Note_on_c, 2, 47, 70
4, 87260, Note_on_c, 2, 54, 0
4, 87264, Note_on_c, 2, 56, 70
4, 87356, Note_on_c, 2, 56, 0
4, 87360, Note_on_c, 2, 54, 70
4, 87452, Note_on_c, 2, 54, 0
4, 87456, Note_on_c, 2, 56, 70
4, 87548, Note_on_c, 2, 56, 0
4, 87548, Note_on_c, 2, 47, 0
4, 87552, Note_on_c, 2, 52, 70
4, 87552, Note_on_c, 2, 52, 70
4, 87932, Note_on_c, 2, 52, 0
4, 87932, Note_on_c, 2, 52, 0
4, 88704, Note_on_c, 2, 40, 70
4, 88704, Note_on_c, 2, 52, 70
4, 88796, Note_on_c, 2, 52, 0
4, 88800, Note_on_c, 2, 50, 70
4, 88892, Note_on_c, 2, 50, 0
4, 88896, Note_on_c, 2, 52, 70
4, 88988, Note_on_c, 2, 52, 0
4, 88992, Note_on_c, 2, 50, 70
4, 89084, Note_on_c, 2, 50, 0
4, 89084, Note_on_c, 2, 40, 0
4, 89088, Note_on_c, 2, 49, 70
4, 89088, Note_on_c, 2, 45, 70
4, 89276, Note_on_c, 2, 45, 0
4, 89276, Note_on_c, 2, 49, 0
4, 89280, Note_on_c, 2, 37, 92
4, 89280, Note_on_c, 2, 49, 92
4, 89420, Note_on_c, 2, 49, 0
4, 89420, Note_on_c, 2, 37, 0
4, 89424, Note_on_c, 2, 45, 98
4, 89424, Note_on_c, 2, 33, 98
4, 89468, Note_on_c, 2, 33, 0
4, 89468, Note_on_c, 2, 45, 0
4, 89472, Note_on_c, 2, 38, 92
4, 89660, Note_on_c, 2, 38, 0
4, 89664, Note_on_c, 2, 51, 92
4, 89664, Note_on_c, 2, 39, 92
4, 89804, Note_on_c, 2, 39, 0
4, 89804, Note_on_c, 2, 51, 0
4, 89808, Note_on_c, 2, 47, 98
4, 89808, Note_on_c, 2, 35, 98
4, 89852, Note_on_c, 2, 35, 0
4, 89852, Note_on_c, 2, 47, 0
4, 89856, Note_on_c, 2, 40, 92
4, 90044, Note_on_c, 2, 40, 0
4, 90048, Note_on_c, 2, 41, 92
4, 90048, Note_on_c, 2, 53, 92
4, 90188, Note_on_c, 2, 53, 0
4, 90188, Note_on_c, 2, 41, 0
4, 90192, Note_on_c, 2, 49, 98
4, 90192, Note_on_c, 2, 37, 98
4, 90236, Note_on_c, 2, 37, 0
4, 90236, Note_on_c, 2, 49, 0
4, 90240, Note_on_c, 2, 42, 92
4, 90428, Note_on_c, 2, 42, 0
4, 90432, Note_on_c, 2, 56, 92
4, 90432, Note_on_c, 2, 44, 92
4, 90572, Note_on_c, 2, 44, 0
4, 90572, Note_on_c, 2, 56, 0
4, 90576, Note_on_c, 2, 53, 92
4, 90576, Note_on_c, 2, 41, 92
4, 90620, Note_on_c, 2, 41, 0
4, 90620, Note_on_c, 2, 53, 0
4, 90624, Note_on_c, 2, 57, 92
4, 90624, Note_on_c, 2, 45, 92
4, 90812, Note_on_c, 2, 45, 0
4, 90812, Note_on_c, 2, 57, 0
4, 90816, Note_on_c, 2, 57, 92
4, 90816, Note_on_c, 2, 45, 92
4, 91004, Note_on_c, 2, 45, 0
4, 91004, Note_on_c, 2, 57, 0
4, 91008, Note_on_c, 2, 57, 92
4, 91008, Note_on_c, 2, 49, 92
4, 91196, Note_on_c, 2, 49, 0
4, 91196, Note_on_c, 2, 57, 0
4, 91200, Note_on_c, 2, 57, 92
4, 91200, Note_on_c, 2, 49, 92
4, 91388, Note_on_c, 2, 49, 0
4, 91388, Note_on_c, 2, 57, 0
4, 91392, Note_on_c, 2, 57, 92
4, 91392, Note_on_c, 2, 50, 92
4, 91580, Note_on_c, 2, 50, 0
4, 91580, Note_on_c, 2, 57, 0
4, 91584, Note_on_c, 2, 57, 92
4, 91584, Note_on_c, 2, 50, 92
4, 91772, Note_on_c, 2, 50, 0
4, 91772, Note_on_c, 2, 57, 0
4, 91776, Note_on_c, 2, 57, 92
4, 91776, Note_on_c, 2, 50, 92
4, 91964, Note_on_c, 2, 50, 0
4, 91964, Note_on_c, 2, 57, 0
4, 91968, Note_on_c, 2, 57, 92
4, 91968, Note_on_c, 2, 50, 92
4, 92156, Note_on_c, 2, 50, 0
4, 92156, Note_on_c, 2, 57, 0
4, 92160, Note_on_c, 2, 57, 92
4, 92160, Note_on_c, 2, 52, 92
4, 92348, Note_on_c, 2, 52, 0
4, 92348, Note_on_c, 2, 57, 0
4, 92352, Note_on_c, 2, 57, 92
4, 92352, Note_on_c, 2, 52, 92
4, 92540, Note_on_c, 2, 52, 0
4, 92540, Note_on_c, 2, 57, 0
4, 92544, Note_on_c, 2, 56, 92
4, 92544, Note_on_c, 2, 52, 92
4, 92544, Note_on_c, 2, 64, 92
4, 92732, Note_on_c, 2, 64, 0
4, 92732, Note_on_c, 2, 52, 0
4, 92732, Note_on_c, 2, 56, 0
4, 92736, Note_on_c, 2, 62, 92
4, 92736, Note_on_c, 2, 56, 92
4, 92736, Note_on_c, 2, 52, 92
4, 92924, Note_on_c, 2, 52, 0
4, 92924, Note_on_c, 2, 56, 0
4, 92924, Note_on_c, 2, 62, 0
4, 92928, Note_on_c, 2, 61, 92
4, 92928, Note_on_c, 2, 57, 92
4, 93116, Note_on_c, 2, 57, 0
4, 93116, Note_on_c, 2, 61, 0
4, 93120, Note_on_c, 2, 61, 70
4, 93120, Note_on_c, 2, 57, 70
4, 93120, Note_on_c, 2, 52, 70
4, 93308, Note_on_c, 2, 52, 0
4, 93308, Note_on_c, 2, 57, 0
4, 93308, Note_on_c, 2, 61, 0
4, 93312, Note_on_c, 2, 62, 70
4, 93312, Note_on_c, 2, 57, 70
4, 93312, Note_on_c, 2, 50, 70
4, 93500, Note_on_c, 2, 50, 0
4, 93500, Note_on_c, 2, 57, 0
4, 93500, Note_on_c, 2, 62, 0
4, 93504, Note_on_c, 2, 57, 70
4, 93504, Note_on_c, 2, 49, 70
4, 93692, Note_on_c, 2, 49, 0
4, 93692, Note_on_c, 2, 57, 0
4, 93696, Note_on_c, 2, 57, 70
4, 93696, Note_on_c, 2, 50, 70
4, 93884, Note_on_c, 2, 50, 0
4, 93884, Note_on_c, 2, 57, 0
4, 93888, Note_on_c, 2, 50, 70
4, 94076, Note_on_c, 2, 50, 0
4, 94080, Note_on_c, 2, 50, 70
4, 94268, Note_on_c, 2, 50, 0
4, 94272, Note_on_c, 2, 50, 70
4, 94460, Note_on_c, 2, 50, 0
4, 94464, Note_on_c, 2, 50, 70
4, 94652, Note_on_c, 2, 50, 0
4, 94656, Note_on_c, 2, 50, 70
4, 94656, Note_on_c, 2, 50, 70
4, 94844, Note_on_c, 2, 50, 0
4, 94844, Note_on_c, 2, 50, 0
4, 94848, Note_on_c, 2, 54, 70
4, 94848, Note_on_c, 2, 50, 70
4, 95036, Note_on_c, 2, 50, 0
4, 95036, Note_on_c, 2, 54, 0
4, 95040, Note_on_c, 2, 54, 70
4, 95040, Note_on_c, 2, 50, 70
4, 95228, Note_on_c, 2, 50, 0
4, 95228, Note_on_c, 2, 54, 0
4, 95232, Note_on_c, 2, 61, 70
4, 95232, Note_on_c, 2, 52, 70
4, 95324, Note_on_c, 2, 61, 0
4, 95328, Note_on_c, 2, 64, 70
4, 95420, Note_on_c, 2, 64, 0
4, 95420, Note_on_c, 2, 52, 0
4, 95424, Note_on_c, 2, 61, 70
4, 95424, Note_on_c, 2, 52, 70
4, 95516, Note_on_c, 2, 61, 0
4, 95520, Note_on_c, 2, 57, 70
4, 95600, Note_on_c, 2, 52, 70
4, 95612, Note_on_c, 2, 52, 0
4, 95612, Note_on_c, 2, 57, 0
4, 95616, Note_on_c, 2, 61, 70
4, 95708, Note_on_c, 2, 61, 0
4, 95712, Note_on_c, 2, 64, 70
4, 95788, Note_on_c, 2, 52, 0
4, 95804, Note_on_c, 2, 64, 0
4, 95808, Note_on_c, 2, 61, 70
4, 95808, Note_on_c, 2, 52, 70
4, 95900, Note_on_c, 2, 61, 0
4, 95904, Note_on_c, 2, 57, 70
4, 95996, Note_on_c, 2, 57, 0
4, 95996, Note_on_c, 2, 52, 0
4, 96000, Note_on_c, 2, 62, 70
4, 96000, Note_on_c, 2, 52, 70
4, 96092, Note_on_c, 2, 62, 0
4, 96096, Note_on_c, 2, 64, 70
4, 96188, Note_on_c, 2, 64, 0
4, 96188, Note_on_c, 2, 52, 0
4, 96192, Note_on_c, 2, 62, 70
4, 96192, Note_on_c, 2, 52, 70
4, 96284, Note_on_c, 2, 62, 0
4, 96288, Note_on_c, 2, 59, 70
4, 96380, Note_on_c, 2, 59, 0
4, 96380, Note_on_c, 2, 52, 0
4, 96384, Note_on_c, 2, 62, 70
4, 96384, Note_on_c, 2, 52, 70
4, 96476, Note_on_c, 2, 62, 0
4, 96480, Note_on_c, 2, 64, 70
4, 96572, Note_on_c, 2, 64, 0
4, 96572, Note_on_c, 2, 52, 0
4, 96576, Note_on_c, 2, 62, 70
4, 96576, Note_on_c, 2, 52, 70
4, 96620, Note_on_c, 2, 62, 0
4, 96624, Note_on_c, 2, 59, 70
4, 96668, Note_on_c, 2, 59, 0
4, 96668, Note_on_c, 2, 52, 0
4, 96768, Note_on_c, 2, 57, 59
4, 96768, Note_on_c, 2, 61, 59
4, 96956, Note_on_c, 2, 61, 0
4, 96956, Note_on_c, 2, 57, 0
4, 96960, Note_on_c, 2, 57, 59
4, 97148, Note_on_c, 2, 57, 0
4, 97152, Note_on_c, 2, 57, 59
4, 97340, Note_on_c, 2, 57, 0
4, 97344, Note_on_c, 2, 57, 59
4, 97532, Note_on_c, 2, 57, 0
4, 97536, Note_on_c, 2, 57, 59
4, 97724, Note_on_c, 2, 57, 0
4, 97728, Note_on_c, 2, 57, 59
4, 97916, Note_on_c, 2, 57, 0
4, 97920, Note_on_c, 2, 57, 59
4, 98108, Note_on_c, 2, 57, 0
4, 98112, Note_on_c, 2, 57, 59
4, 98300, Note_on_c, 2, 57, 0
4, 98304, Note_on_c, 2, 45, 59
4, 98684, Note_on_c, 2, 45, 0
4, 98688, Note_on_c, 2, 54, 59
4, 98784, Note_on_c, 2, 57, 59
4, 98876, Note_on_c, 2, 54, 0
4, 98880, Note_on_c, 2, 52, 59
4, 98972, Note_on_c, 2, 52, 0
4, 98972, Note_on_c, 2, 57, 0
4, 98976, Note_on_c, 2, 50, 59
4, 98976, Note_on_c, 2, 57, 59
4, 99068, Note_on_c, 2, 57, 0
4, 99068, Note_on_c, 2, 50, 0
4, 99072, Note_on_c, 2, 57, 59
4, 99072, Note_on_c, 2, 52, 59
4, 99260, Note_on_c, 2, 52, 0
4, 99260, Note_on_c, 2, 57, 0
4, 99264, Note_on_c, 2, 52, 59
4, 99264, Note_on_c, 2, 40, 59
4, 99452, Note_on_c, 2, 40, 0
4, 99452, Note_on_c, 2, 52, 0
4, 99456, Note_on_c, 2, 52, 59
4, 99456, Note_on_c, 2, 45, 59
4, 99548, Note_on_c, 2, 45, 0
4, 99548, Note_on_c, 2, 52, 0
4, 99552, Note_on_c, 2, 49, 59
4, 99644, Note_on_c, 2, 49, 0
4, 99648, Note_on_c, 2, 47, 59
4, 99740, Note_on_c, 2, 47, 0
4, 99744, Note_on_c, 2, 45, 59
4, 99836, Note_on_c, 2, 45, 0
4, 99840, Note_on_c, 2, 52, 59
4, 100220, Note_on_c, 2, 52, 0
4, 100416, Note_on_c, 2, 52, 76
4, 100592, Note_on_c, 2, 45, 76
4, 100604, Note_on_c, 2, 52, 0
4, 101164, Note_on_c, 2, 45, 0
4, 101184, Note_on_c, 2, 57, 76
4, 101372, Note_on_c, 2, 57, 0
4, 101376, Note_on_c, 2, 62, 70
4, 101376, Note_on_c, 2, 50, 70
4, 101756, Note_on_c, 2, 50, 0
4, 101756, Note_on_c, 2, 62, 0
4, 101952, Note_on_c, 2, 52, 77
4, 102140, Note_on_c, 2, 52, 0
4, 102144, Note_on_c, 2, 52, 80
4, 102144, Note_on_c, 2, 45, 80
4, 102524, Note_on_c, 2, 45, 0
4, 102524, Note_on_c, 2, 52, 0
4, 102624, Note_on_c, 2, 49, 82
4, 102716, Note_on_c, 2, 49, 0
4, 102720, Note_on_c, 2, 50, 78
4, 102812, Note_on_c, 2, 50, 0
4, 102816, Note_on_c, 2, 51, 74
4, 102908, Note_on_c, 2, 51, 0
4, 102912, Note_on_c, 2, 52, 70
4, 103292, Note_on_c, 2, 52, 0
4, 103488, Note_on_c, 2, 52, 70
4, 103676, Note_on_c, 2, 52, 0
4, 103680, Note_on_c, 2, 45, 70
4, 104060, Note_on_c, 2, 45, 0
4, 104256, Note_on_c, 2, 57, 70
4, 104444, Note_on_c, 2, 57, 0
4, 104448, Note_on_c, 2, 50, 70
4, 104828, Note_on_c, 2, 50, 0
4, 104832, Note_on_c, 2, 52, 70
4, 105212, Note_on_c, 2, 52, 0
4, 105216, Note_on_c, 2, 45, 70
4, 105404, Note_on_c, 2, 45, 0
4, 105600, Note_on_c, 2, 45, 92
4, 105660, Note_on_c, 2, 45, 0
4, 105664, Note_on_c, 2, 47, 92
4, 105724, Note_on_c, 2, 47, 0
4, 105728, Note_on_c, 2, 45, 92
4, 105788, Note_on_c, 2, 45, 0
4, 105792, Note_on_c, 2, 47, 92
4, 105852, Note_on_c, 2, 47, 0
4, 105856, Note_on_c, 2, 48, 92
4, 105916, Note_on_c, 2, 48, 0
4, 105920, Note_on_c, 2, 47, 92
4, 105980, Note_on_c, 2, 47, 0
4, 105984, Note_on_c, 2, 48, 92
4, 106364, Note_on_c, 2, 48, 0
4, 106752, Note_on_c, 2, 54, 70
4, 108092, Note_on_c, 2, 54, 0
4, 108096, Note_on_c, 2, 54, 70
4, 108284, Note_on_c, 2, 54, 0
4, 108288, Note_on_c, 2, 54, 70
4, 108288, Note_on_c, 2, 47, 70
4, 108476, Note_on_c, 2, 47, 0
4, 108476, Note_on_c, 2, 54, 0
4, 108480, Note_on_c, 2, 54, 70
4, 108480, Note_on_c, 2, 47, 70
4, 108668, Note_on_c, 2, 47, 0
4, 108668, Note_on_c, 2, 54, 0
4, 108672, Note_on_c, 2, 54, 70
4, 108672, Note_on_c, 2, 47, 70
4, 108860, Note_on_c, 2, 47, 0
4, 108860, Note_on_c, 2, 54, 0
4, 113664, Note_on_c, 2, 50, 81
4, 113764, Note_on_c, 2, 50, 0
4, 113856, Note_on_c, 2, 54, 81
4, 113856, Note_on_c, 2, 45, 81
4, 114044, Note_on_c, 2, 45, 0
4, 114044, Note_on_c, 2, 54, 0
4, 114048, Note_on_c, 2, 57, 81
4, 114048, Note_on_c, 2, 42, 81
4, 114236, Note_on_c, 2, 42, 0
4, 114236, Note_on_c, 2, 57, 0
4, 114240, Note_on_c, 2, 54, 81
4, 114240, Note_on_c, 2, 38, 81
4, 114428, Note_on_c, 2, 38, 0
4, 114428, Note_on_c, 2, 54, 0
4, 114432, Note_on_c, 2, 55, 81
4, 114432, Note_on_c, 2, 43, 81
4, 114532, Note_on_c, 2, 43, 0
4, 114532, Note_on_c, 2, 55, 0
4, 114624, Note_on_c, 2, 50, 81
4, 114812, Note_on_c, 2, 50, 0
4, 114816, Note_on_c, 2, 47, 81
4, 115004, Note_on_c, 2, 47, 0
4, 115008, Note_on_c, 2, 43, 81
4, 115196, Note_on_c, 2, 43, 0
4, 115200, Note_on_c, 2, 42, 81
4, 115300, Note_on_c, 2, 42, 0
4, 115392, Note_on_c, 2, 54, 81
4, 115580, Note_on_c, 2, 54, 0
4, 115584, Note_on_c, 2, 51, 81
4, 115772, Note_on_c, 2, 51, 0
4, 115776, Note_on_c, 2, 47, 81
4, 115964, Note_on_c, 2, 47, 0
4, 115968, Note_on_c, 2, 52, 81
4, 116068, Note_on_c, 2, 52, 0
4, 116160, Note_on_c, 2, 45, 81
4, 116348, Note_on_c, 2, 45, 0
4, 116352, Note_on_c, 2, 43, 81
4, 116540, Note_on_c, 2, 43, 0
4, 116544, Note_on_c, 2, 40, 81
4, 116732, Note_on_c, 2, 40, 0
4, 116736, Note_on_c, 2, 55, 81
4, 116924, Note_on_c, 2, 55, 0
4, 116928, Note_on_c, 2, 55, 81
4, 117116, Note_on_c, 2, 55, 0
4, 117120, Note_on_c, 2, 57, 81
4, 117308, Note_on_c, 2, 57, 0
4, 117312, Note_on_c, 2, 57, 81
4, 117500, Note_on_c, 2, 57, 0
4, 117504, Note_on_c, 2, 55, 81
4, 117692, Note_on_c, 2, 55, 0
4, 117696, Note_on_c, 2, 55, 81
4, 117884, Note_on_c, 2, 55, 0
4, 117888, Note_on_c, 2, 57, 81
4, 118076, Note_on_c, 2, 57, 0
4, 118080, Note_on_c, 2, 57, 81
4, 118268, Note_on_c, 2, 57, 0
4, 118272, Note_on_c, 2, 55, 81
4, 118460, Note_on_c, 2, 55, 0
4, 118464, Note_on_c, 2, 55, 70
4, 118652, Note_on_c, 2, 55, 0
4, 118656, Note_on_c, 2, 55, 70
4, 118844, Note_on_c, 2, 55, 0
4, 118848, Note_on_c, 2, 55, 70
4, 119036, Note_on_c, 2, 55, 0
4, 119040, Note_on_c, 2, 55, 70
4, 119040, Note_on_c, 2, 45, 70
4, 119228, Note_on_c, 2, 55, 0
4, 121344, Note_on_c, 2, 45, 70
4, 121532, Note_on_c, 2, 45, 0
4, 121532, Note_on_c, 2, 45, 0
4, 121536, Note_on_c, 2, 61, 92
4, 121536, Note_on_c, 2, 64, 92
4, 121724, Note_on_c, 2, 64, 0
4, 121724, Note_on_c, 2, 61, 0
4, 121728, Note_on_c, 2, 62, 92
4, 121728, Note_on_c, 2, 65, 92
4, 121916, Note_on_c, 2, 65, 0
4, 121916, Note_on_c, 2, 62, 0
4, 121920, Note_on_c, 2, 64, 92
4, 121920, Note_on_c, 2, 67, 92
4, 122108, Note_on_c, 2, 67, 0
4, 122108, Note_on_c, 2, 64, 0
4, 122112, Note_on_c, 2, 65, 92
4, 122112, Note_on_c, 2, 62, 92
4, 122112, Note_on_c, 2, 57, 92
4, 122300, Note_on_c, 2, 57, 0
4, 122300, Note_on_c, 2, 62, 0
4, 122300, Note_on_c, 2, 65, 0
4, 122304, Note_on_c, 2, 62, 92
4, 122304, Note_on_c, 2, 65, 92
4, 122304, Note_on_c, 2, 57, 92
4, 122444, Note_on_c, 2, 57, 0
4, 122444, Note_on_c, 2, 65, 0
4, 122444, Note_on_c, 2, 62, 0
4, 122448, Note_on_c, 2, 65, 92
4, 122448, Note_on_c, 2, 62, 92
4, 122448, Note_on_c, 2, 57, 92
4, 122492, Note_on_c, 2, 57, 0
4, 122492, Note_on_c, 2, 62, 0
4, 122492, Note_on_c, 2, 65, 0
4, 122496, Note_on_c, 2, 65, 92
4, 122496, Note_on_c, 2, 62, 92
4, 122496, Note_on_c, 2, 57, 92
4, 122684, Note_on_c, 2, 57, 0
4, 122684, Note_on_c, 2, 62, 0
4, 122684, Note_on_c, 2, 65, 0
4, 122688, Note_on_c, 2, 65, 92
4, 122688, Note_on_c, 2, 62, 92
4, 122688, Note_on_c, 2, 57, 92
4, 122876, Note_on_c, 2, 57, 0
4, 122876, Note_on_c, 2, 62, 0
4, 122876, Note_on_c, 2, 65, 0
4, 122880, Note_on_c, 2, 64, 92
4, 122880, Note_on_c, 2, 61, 92
4, 122880, Note_on_c, 2, 57, 92
4, 123260, Note_on_c, 2, 57, 0
4, 123260, Note_on_c, 2, 61, 0
4, 123260, Note_on_c, 2, 64, 0
4, 123648, Note_on_c, 2, 65, 70
4, 123648, Note_on_c, 2, 62, 70
4, 123648, Note_on_c, 2, 57, 70
4, 123836, Note_on_c, 2, 57, 0
4, 123836, Note_on_c, 2, 62, 0
4, 123836, Note_on_c, 2, 65, 0
4, 123840, Note_on_c, 2, 65, 70
4, 123840, Note_on_c, 2, 62, 70
4, 123840, Note_on_c, 2, 57, 70
4, 123980, Note_on_c, 2, 57, 0
4, 123980, Note_on_c, 2, 62, 0
4, 123980, Note_on_c, 2, 65, 0
4, 123984, Note_on_c, 2, 65, 70
4, 123984, Note_on_c, 2, 62, 70
4, 123984, Note_on_c, 2, 57, 70
4, 124028, Note_on_c, 2, 57, 0
4, 124028, Note_on_c, 2, 62, 0
4, 124028, Note_on_c, 2, 65, 0
4, 124032, Note_on_c, 2, 65, 70
4, 124032, Note_on_c, 2, 62, 70
4, 124032, Note_on_c, 2, 57, 70
4, 124220, Note_on_c, 2, 57, 0
4, 124220, Note_on_c, 2, 62, 0
4, 124220, Note_on_c, 2, 65, 0
4, 124224, Note_on_c, 2, 65, 70
4, 124224, Note_on_c, 2, 62, 70
4, 124224, Note_on_c, 2, 57, 70
4, 124412, Note_on_c, 2, 57, 0
4, 124412, Note_on_c, 2, 62, 0
4, 124412, Note_on_c, 2, 65, 0
4, 124416, Note_on_c, 2, 64, 70
4, 124416, Note_on_c, 2, 61, 70
4, 124416, Note_on_c, 2, 57, 70
4, 124604, Note_on_c, 2, 57, 0
4, 124604, Note_on_c, 2, 61, 0
4, 124604, Note_on_c, 2, 64, 0
4, 124608, Note_on_c, 2, 57, 92
4, 124748, Note_on_c, 2, 57, 0
4, 124752, Note_on_c, 2, 57, 92
4, 124796, Note_on_c, 2, 57, 0
4, 124800, Note_on_c, 2, 57, 92
4, 124988, Note_on_c, 2, 57, 0
4, 124992, Note_on_c, 2, 57, 92
4, 125180, Note_on_c, 2, 57, 0
4, 125184, Note_on_c, 2, 62, 92
4, 125368, Note_on_c, 2, 62, 0
4, 125376, Note_on_c, 2, 66, 92
4, 125464, Note_on_c, 2, 66, 0
4, 125472, Note_on_c, 2, 57, 92
4, 125520, Note_on_c, 2, 57, 0
4, 125568, Note_on_c, 2, 62, 92
4, 125616, Note_on_c, 2, 62, 0
4, 125664, Note_on_c, 2, 57, 92
4, 125712, Note_on_c, 2, 57, 0
4, 125760, Note_on_c, 2, 54, 92
4, 125808, Note_on_c, 2, 54, 0
4, 125856, Note_on_c, 2, 50, 92
4, 125904, Note_on_c, 2, 50, 0
4, 125952, Note_on_c, 2, 45, 92
4, 126332, Note_on_c, 2, 45, 0
4, 127488, Note_on_c, 2, 62, 92
4, 127868, Note_on_c, 2, 62, 0
4, 127872, Note_on_c, 2, 57, 92
4, 128160, Note_on_c, 2, 57, 0
4, 128160, Note_on_c, 2, 57, 92
4, 128208, Note_on_c, 2, 57, 0
4, 128256, Note_on_c, 2, 54, 92
4, 128356, Note_on_c, 2, 54, 0
4, 128448, Note_on_c, 2, 50, 92
4, 128548, Note_on_c, 2, 50, 0
4, 129216, Note_on_c, 2, 59, 70
4, 129316, Note_on_c, 2, 59, 0
4, 129408, Note_on_c, 2, 59, 70
4, 129508, Note_on_c, 2, 59, 0
4, 129984, Note_on_c, 2, 55, 70
4, 130084, Note_on_c, 2, 55, 0
4, 130176, Note_on_c, 2, 55, 70
4, 130276, Note_on_c, 2, 55, 0
4, 130560, Note_on_c, 2, 66, 70
4, 130748, Note_on_c, 2, 66, 0
4, 130752, Note_on_c, 2, 62, 70
4, 130940, Note_on_c, 2, 62, 0
4, 130944, Note_on_c, 2, 64, 70
4, 131132, Note_on_c, 2, 64, 0
4, 131136, Note_on_c, 2, 69, 70
4, 131324, Note_on_c, 2, 69, 0
4, 131328, Note_on_c, 2, 62, 70
4, 131516, Note_on_c, 2, 62, 0
4, 131520, Note_on_c, 2, 62, 70
4, 131552, Note_on_c, 2, 62, 0
4, 131556, Note_on_c, 2, 64, 70
4, 131588, Note_on_c, 2, 64, 0
4, 131592, Note_on_c, 2, 62, 70
4, 131624, Note_on_c, 2, 62, 0
4, 131628, Note_on_c, 2, 64, 70
4, 131660, Note_on_c, 2, 64, 0
4, 131664, Note_on_c, 2, 64, 70
4, 131708, Note_on_c, 2, 64, 0
4, 131712, Note_on_c, 2, 66, 70
4, 131900, Note_on_c, 2, 66, 0
4, 132288, Note_on_c, 2, 59, 70
4, 132288, Note_on_c, 2, 62, 70
4, 132388, Note_on_c, 2, 62, 0
4, 132388, Note_on_c, 2, 59, 0
4, 132480, Note_on_c, 2, 59, 70
4, 132480, Note_on_c, 2, 62, 70
4, 132580, Note_on_c, 2, 62, 0
4, 132580, Note_on_c, 2, 59, 0
4, 133056, Note_on_c, 2, 55, 70
4, 133056, Note_on_c, 2, 62, 70
4, 133156, Note_on_c, 2, 62, 0
4, 133156, Note_on_c, 2, 55, 0
4, 133248, Note_on_c, 2, 55, 70
4, 133248, Note_on_c, 2, 62, 70
4, 133348, Note_on_c, 2, 62, 0
4, 133348, Note_on_c, 2, 55, 0
4, 133632, Note_on_c, 2, 66, 70
4, 133820, Note_on_c, 2, 66, 0
4, 133824, Note_on_c, 2, 66, 70
4, 134012, Note_on_c, 2, 66, 0
4, 134016, Note_on_c, 2, 66, 70
4, 134204, Note_on_c, 2, 66, 0
4, 134208, Note_on_c, 2, 66, 70
4, 134396, Note_on_c, 2, 66, 0
4, 134400, Note_on_c, 2, 64, 70
4, 134588, Note_on_c, 2, 64, 0
4, 134592, Note_on_c, 2, 64, 71
4, 134780, Note_on_c, 2, 64, 0
4, 134784, Note_on_c, 2, 64, 71
4, 134876, Note_on_c, 2, 64, 0
4, 134880, Note_on_c, 2, 62, 73
4, 134972, Note_on_c, 2, 62, 0
4, 134976, Note_on_c, 2, 61, 73
4, 135068, Note_on_c, 2, 61, 0
4, 135072, Note_on_c, 2, 59, 74
4, 135164, Note_on_c, 2, 59, 0
4, 135168, Note_on_c, 2, 57, 74
4, 135356, Note_on_c, 2, 57, 0
4, 135360, Note_on_c, 2, 57, 75
4, 135548, Note_on_c, 2, 57, 0
4, 135552, Note_on_c, 2, 57, 76
4, 135740, Note_on_c, 2, 57, 0
4, 135744, Note_on_c, 2, 57, 77
4, 135932, Note_on_c, 2, 57, 0
4, 135936, Note_on_c, 2, 57, 78
4, 136124, Note_on_c, 2, 57, 0
4, 136128, Note_on_c, 2, 57, 79
4, 136316, Note_on_c, 2, 57, 0
4, 136320, Note_on_c, 2, 57, 80
4, 136508, Note_on_c, 2, 57, 0
4, 136512, Note_on_c, 2, 57, 81
4, 136700, Note_on_c, 2, 57, 0
4, 136704, Note_on_c, 2, 62, 81
4, 136892, Note_on_c, 2, 62, 0
4, 136896, Note_on_c, 2, 57, 81
4, 137084, Note_on_c, 2, 57, 0
4, 137088, Note_on_c, 2, 61, 81
4, 137276, Note_on_c, 2, 61, 0
4, 137280, Note_on_c, 2, 57, 81
4, 137468, Note_on_c, 2, 57, 0
4, 137472, Note_on_c, 2, 62, 81
4, 137660, Note_on_c, 2, 62, 0
4, 137664, Note_on_c, 2, 57, 81
4, 137852, Note_on_c, 2, 57, 0
4, 137856, Note_on_c, 2, 61, 81
4, 138044, Note_on_c, 2, 61, 0
4, 138048, Note_on_c, 2, 57, 81
4, 138236, Note_on_c, 2, 57, 0
4, 138240, Note_on_c, 2, 62, 81
4, 138620, Note_on_c, 2, 62, 0
4, 140160, Note_on_c, 2, 57, 70
4, 140220, Note_on_c, 2, 57, 0
4, 140224, Note_on_c, 2, 59, 70
4, 140284, Note_on_c, 2, 59, 0
4, 140288, Note_on_c, 2, 57, 70
4, 140348, Note_on_c, 2, 57, 0
4, 140352, Note_on_c, 2, 55, 70
4, 140412, Note_on_c, 2, 55, 0
4, 140416, Note_on_c, 2, 57, 70
4, 140476, Note_on_c, 2, 57, 0
4, 140480, Note_on_c, 2, 55, 70
4, 140540, Note_on_c, 2, 55, 0
4, 140544, Note_on_c, 2, 54, 70
4, 140732, Note_on_c, 2, 54, 0
4, 140736, Note_on_c, 2, 62, 70
4, 140924, Note_on_c, 2, 62, 0
4, 140928, Note_on_c, 2, 62, 70
4, 141116, Note_on_c, 2, 62, 0
4, 141120, Note_on_c, 2, 62, 70
4, 141308, Note_on_c, 2, 62, 0
4, 141312, Note_on_c, 2, 64, 70
4, 141500, Note_on_c, 2, 64, 0
4, 141504, Note_on_c, 2, 64, 70
4, 141692, Note_on_c, 2, 64, 0
4, 141696, Note_on_c, 2, 62, 70
4, 141884, Note_on_c, 2, 62, 0
4, 141888, Note_on_c, 2, 62, 70
4, 142076, Note_on_c, 2, 62, 0
4, 142080, Note_on_c, 2, 61, 70
4, 142268, Note_on_c, 2, 61, 0
4, 142272, Note_on_c, 2, 61, 70
4, 142460, Note_on_c, 2, 61, 0
4, 142464, Note_on_c, 2, 57, 70
4, 142652, Note_on_c, 2, 57, 0
4, 142656, Note_on_c, 2, 57, 70
4, 142844, Note_on_c, 2, 57, 0
4, 142848, Note_on_c, 2, 59, 70
4, 143040, Note_on_c, 2, 59, 0
4, 143040, Note_on_c, 2, 61, 70
4, 143224, Note_on_c, 2, 61, 0
4, 143232, Note_on_c, 2, 62, 70
4, 143328, Note_on_c, 2, 62, 0
4, 143328, Note_on_c, 2, 61, 70
4, 143420, Note_on_c, 2, 61, 0
4, 143424, Note_on_c, 2, 62, 70
4, 143516, Note_on_c, 2, 62, 0
4, 143520, Note_on_c, 2, 64, 70
4, 143608, Note_on_c, 2, 64, 0
4, 143616, Note_on_c, 2, 66, 70
4, 143804, Note_on_c, 2, 66, 0
4, 143808, Note_on_c, 2, 66, 70
4, 143996, Note_on_c, 2, 66, 0
4, 144000, Note_on_c, 2, 66, 70
4, 144188, Note_on_c, 2, 66, 0
4, 144192, Note_on_c, 2, 66, 70
4, 144380, Note_on_c, 2, 66, 0
4, 144384, Note_on_c, 2, 67, 70
4, 144576, Note_on_c, 2, 67, 0
4, 144576, Note_on_c, 2, 55, 70
4, 144760, Note_on_c, 2, 55, 0
4, 144768, Note_on_c, 2, 55, 70
4, 144868, Note_on_c, 2, 55, 0
4, 144960, Note_on_c, 2, 55, 70
4, 145060, Note_on_c, 2, 55, 0
4, 145152, Note_on_c, 2, 55, 70
4, 145252, Note_on_c, 2, 55, 0
4, 145344, Note_on_c, 2, 55, 70
4, 145444, Note_on_c, 2, 55, 0
4, 145536, Note_on_c, 2, 55, 70
4, 145728, Note_on_c, 2, 55, 0
4, 145728, Note_on_c, 2, 56, 70
4, 145912, Note_on_c, 2, 56, 0
4, 145920, Note_on_c, 2, 57, 70
4, 146300, Note_on_c, 2, 57, 0
4, 146304, Note_on_c, 2, 52, 70
4, 146364, Note_on_c, 2, 52, 0
4, 146368, Note_on_c, 2, 54, 70
4, 146428, Note_on_c, 2, 54, 0
4, 146432, Note_on_c, 2, 52, 70
4, 146492, Note_on_c, 2, 52, 0
4, 146496, Note_on_c, 2, 49, 70
4, 146556, Note_on_c, 2, 49, 0
4, 146560, Note_on_c, 2, 50, 70
4, 146620, Note_on_c, 2, 50, 0
4, 146624, Note_on_c, 2, 49, 70
4, 146684, Note_on_c, 2, 49, 0
4, 146688, Note_on_c, 2, 45, 70
4, 147068, Note_on_c, 2, 45, 0
4, 147456, Note_on_c, 2, 49, 76
4, 147644, Note_on_c, 2, 49, 0
4, 147648, Note_on_c, 2, 50, 76
4, 147836, Note_on_c, 2, 50, 0
4, 147840, Note_on_c, 2, 49, 76
4, 148028, Note_on_c, 2, 49, 0
4, 148032, Note_on_c, 2, 50, 76
4, 148220, Note_on_c, 2, 50, 0
4, 148224, Note_on_c, 2, 49, 76
4, 148604, Note_on_c, 2, 49, 0
4, 148992, Note_on_c, 2, 54, 70
4, 148992, Note_on_c, 2, 50, 70
4, 149180, Note_on_c, 2, 50, 0
4, 149180, Note_on_c, 2, 54, 0
4, 149184, Note_on_c, 2, 55, 70
4, 149184, Note_on_c, 2, 49, 70
4, 149372, Note_on_c, 2, 49, 0
4, 149372, Note_on_c, 2, 55, 0
4, 149376, Note_on_c, 2, 54, 70
4, 149376, Note_on_c, 2, 50, 70
4, 149564, Note_on_c, 2, 50, 0
4, 149564, Note_on_c, 2, 54, 0
4, 149568, Note_on_c, 2, 55, 70
4, 149568, Note_on_c, 2, 49, 70
4, 149756, Note_on_c, 2, 49, 0
4, 149756, Note_on_c, 2, 55, 0
4, 149760, Note_on_c, 2, 54, 70
4, 149760, Note_on_c, 2, 50, 70
4, 150140, Note_on_c, 2, 50, 0
4, 150140, Note_on_c, 2, 54, 0
4, 150528, Note_on_c, 2, 49, 59
4, 150716, Note_on_c, 2, 49, 0
4, 150720, Note_on_c, 2, 50, 59
4, 150908, Note_on_c, 2, 50, 0
4, 150912, Note_on_c, 2, 49, 59
4, 151100, Note_on_c, 2, 49, 0
4, 151104, Note_on_c, 2, 50, 59
4, 151292, Note_on_c, 2, 50, 0
4, 151296, Note_on_c, 2, 49, 59
4, 151676, Note_on_c, 2, 49, 0
4, 152064, Note_on_c, 2, 50, 59
4, 152164, Note_on_c, 2, 50, 0
4, 152256, Note_on_c, 2, 45, 59
4, 152356, Note_on_c, 2, 45, 0
4, 152448, Note_on_c, 2, 42, 59
4, 152548, Note_on_c, 2, 42, 0
4, 152640, Note_on_c, 2, 38, 59
4, 152740, Note_on_c, 2, 38, 0
4, 152832, Note_on_c, 2, 50, 61
4, 152932, Note_on_c, 2, 50, 0
4, 153024, Note_on_c, 2, 45, 66
4, 153124, Note_on_c, 2, 45, 0
4, 153216, Note_on_c, 2, 42, 71
4, 153316, Note_on_c, 2, 42, 0
4, 153408, Note_on_c, 2, 38, 77
4, 153508, Note_on_c, 2, 38, 0
4, 153600, Note_on_c, 2, 45, 81
4, 153788, Note_on_c, 2, 45, 0
4, 153792, Note_on_c, 2, 45, 81
4, 153980, Note_on_c, 2, 45, 0
4, 153984, Note_on_c, 2, 45, 81
4, 154172, Note_on_c, 2, 45, 0
4, 154176, Note_on_c, 2, 45, 81
4, 154364, Note_on_c, 2, 45, 0
4, 154368, Note_on_c, 2, 38, 81
4, 154556, Note_on_c, 2, 38, 0
4, 154560, Note_on_c, 2, 50, 81
4, 154748, Note_on_c, 2, 50, 0
4, 154752, Note_on_c, 2, 38, 81
4, 154940, Note_on_c, 2, 38, 0
4, 155136, Note_on_c, 2, 50, 70
4, 155236, Note_on_c, 2, 50, 0
4, 155328, Note_on_c, 2, 45, 70
4, 155428, Note_on_c, 2, 45, 0
4, 155520, Note_on_c, 2, 52, 70
4, 155620, Note_on_c, 2, 52, 0
4, 155712, Note_on_c, 2, 45, 70
4, 155812, Note_on_c, 2, 45, 0
4, 155904, Note_on_c, 2, 54, 70
4, 156004, Note_on_c, 2, 54, 0
4, 156096, Note_on_c, 2, 45, 70
4, 156196, Note_on_c, 2, 45, 0
4, 156288, Note_on_c, 2, 50, 70
4, 156388, Note_on_c, 2, 50, 0
4, 156480, Note_on_c, 2, 45, 70
4, 156580, Note_on_c, 2, 45, 0
4, 156672, Note_on_c, 2, 49, 70
4, 156772, Note_on_c, 2, 49, 0
4, 156864, Note_on_c, 2, 45, 70
4, 156964, Note_on_c, 2, 45, 0
4, 157056, Note_on_c, 2, 50, 70
4, 157156, Note_on_c, 2, 50, 0
4, 157248, Note_on_c, 2, 45, 70
4, 157348, Note_on_c, 2, 45, 0
4, 157440, Note_on_c, 2, 52, 70
4, 157540, Note_on_c, 2, 52, 0
4, 157632, Note_on_c, 2, 45, 70
4, 157732, Note_on_c, 2, 45, 0
4, 157824, Note_on_c, 2, 49, 70
4, 157924, Note_on_c, 2, 49, 0
4, 158016, Note_on_c, 2, 45, 70
4, 158116, Note_on_c, 2, 45, 0
4, 158208, Note_on_c, 2, 50, 70
4, 158308, Note_on_c, 2, 50, 0
4, 158400, Note_on_c, 2, 45, 70
4, 158500, Note_on_c, 2, 45, 0
4, 158592, Note_on_c, 2, 52, 70
4, 158692, Note_on_c, 2, 52, 0
4, 158784, Note_on_c, 2, 45, 70
4, 158884, Note_on_c, 2, 45, 0
4, 158976, Note_on_c, 2, 54, 70
4, 159076, Note_on_c, 2, 54, 0
4, 159168, Note_on_c, 2, 45, 70
4, 159268, Note_on_c, 2, 45, 0
4, 159360, Note_on_c, 2, 50, 70
4, 159460, Note_on_c, 2, 50, 0
4, 159552, Note_on_c, 2, 45, 70
4, 159652, Note_on_c, 2, 45, 0
4, 159744, Note_on_c, 2, 49, 70
4, 159844, Note_on_c, 2, 49, 0
4, 159936, Note_on_c, 2, 45, 70
4, 160036, Note_on_c, 2, 45, 0
4, 160128, Note_on_c, 2, 50, 70
4, 160228, Note_on_c, 2, 50, 0
4, 160320, Note_on_c, 2, 45, 70
4, 160420, Note_on_c, 2, 45, 0
4, 160512, Note_on_c, 2, 52, 70
4, 160612, Note_on_c, 2, 52, 0
4, 160704, Note_on_c, 2, 45, 70
4, 160804, Note_on_c, 2, 45, 0
4, 160896, Note_on_c, 2, 49, 70
4, 160996, Note_on_c, 2, 49, 0
4, 161088, Note_on_c, 2, 45, 70
4, 161188, Note_on_c, 2, 45, 0
4, 161280, Note_on_c, 2, 50, 70
4, 161380, Note_on_c, 2, 50, 0
4, 162816, Note_on_c, 2, 50, 70
4, 162916, Note_on_c, 2, 50, 0
4, 163008, Note_on_c, 2, 60, 70
4, 163108, Note_on_c, 2, 60, 0
4, 163200, Note_on_c, 2, 59, 70
4, 163300, Note_on_c, 2, 59, 0
4, 163392, Note_on_c, 2, 55, 70
4, 163492, Note_on_c, 2, 55, 0
4, 163584, Note_on_c, 2, 54, 70
4, 163684, Note_on_c, 2, 54, 0
4, 163776, Note_on_c, 2, 60, 70
4, 163876, Note_on_c, 2, 60, 0
4, 163968, Note_on_c, 2, 59, 70
4, 164068, Note_on_c, 2, 59, 0
4, 164160, Note_on_c, 2, 55, 70
4, 164260, Note_on_c, 2, 55, 0
4, 164352, Note_on_c, 2, 54, 70
4, 164452, Note_on_c, 2, 54, 0
4, 176640, Note_on_c, 2, 45, 71
4, 176828, Note_on_c, 2, 45, 0
4, 176832, Note_on_c, 2, 45, 74
4, 177020, Note_on_c, 2, 45, 0
4, 177024, Note_on_c, 2, 45, 77
4, 177212, Note_on_c, 2, 45, 0
4, 177216, Note_on_c, 2, 45, 79
4, 177404, Note_on_c, 2, 45, 0
4, 177408, Note_on_c, 2, 45, 82
4, 177596, Note_on_c, 2, 45, 0
4, 177600, Note_on_c, 2, 45, 85
4, 177788, Note_on_c, 2, 45, 0
4, 177792, Note_on_c, 2, 45, 88
4, 177792, Note_on_c, 2, 33, 88
4, 177952, Note_on_c, 2, 33, 90
4, 177980, Note_on_c, 2, 33, 0
4, 177980, Note_on_c, 2, 45, 0
4, 177984, Note_on_c, 2, 45, 90
4, 178140, Note_on_c, 2, 33, 0
4, 178172, Note_on_c, 2, 45, 0
4, 178176, Note_on_c, 2, 50, 92
4, 178176, Note_on_c, 2, 38, 92
4, 178364, Note_on_c, 2, 38, 0
4, 178364, Note_on_c, 2, 50, 0
4, 178368, Note_on_c, 2, 50, 92
4, 178428, Note_on_c, 2, 50, 0
4, 178432, Note_on_c, 2, 52, 92
4, 178492, Note_on_c, 2, 52, 0
4, 178496, Note_on_c, 2, 50, 92
4, 178556, Note_on_c, 2, 50, 0
4, 178560, Note_on_c, 2, 49, 92
4, 178620, Note_on_c, 2, 49, 0
4, 178624, Note_on_c, 2, 50, 92
4, 178684, Note_on_c, 2, 50, 0
4, 178688, Note_on_c, 2, 49, 92
4, 178748, Note_on_c, 2, 49, 0
4, 178752, Note_on_c, 2, 47, 92
4, 178812, Note_on_c, 2, 47, 0
4, 178816, Note_on_c, 2, 49, 92
4, 178876, Note_on_c, 2, 49, 0
4, 178880, Note_on_c, 2, 47, 92
4, 178940, Note_on_c, 2, 47, 0
4, 178944, Note_on_c, 2, 45, 92
4, 178944, Note_on_c, 2, 57, 92
4, 179120, Note_on_c, 2, 62, 92
4, 179132, Note_on_c, 2, 57, 0
4, 179132, Note_on_c, 2, 45, 0
4, 179136, Note_on_c, 2, 59, 92
4, 179196, Note_on_c, 2, 59, 0
4, 179200, Note_on_c, 2, 61, 92
4, 179260, Note_on_c, 2, 61, 0
4, 179264, Note_on_c, 2, 59, 92
4, 179324, Note_on_c, 2, 59, 0
4, 179328, Note_on_c, 2, 57, 92
4, 179388, Note_on_c, 2, 57, 0
4, 179392, Note_on_c, 2, 59, 92
4, 179452, Note_on_c, 2, 59, 0
4, 179456, Note_on_c, 2, 57, 92
4, 179516, Note_on_c, 2, 57, 0
4, 179520, Note_on_c, 2, 55, 92
4, 179520, Note_on_c, 2, 62, 92
4, 179580, Note_on_c, 2, 55, 0
4, 179584, Note_on_c, 2, 57, 92
4, 179644, Note_on_c, 2, 57, 0
4, 179648, Note_on_c, 2, 55, 92
4, 179692, Note_on_c, 2, 62, 0
4, 179708, Note_on_c, 2, 55, 0
4, 179708, Note_on_c, 2, 62, 0
4, 179712, Note_on_c, 2, 54, 92
4, 179712, Note_on_c, 2, 62, 92
4, 179900, Note_on_c, 2, 54, 0
4, 179904, Note_on_c, 2, 55, 92
4, 179964, Note_on_c, 2, 55, 0
4, 179968, Note_on_c, 2, 57, 92
4, 180028, Note_on_c, 2, 57, 0
4, 180032, Note_on_c, 2, 55, 92
4, 180092, Note_on_c, 2, 55, 0
4, 180096, Note_on_c, 2, 54, 92
4, 180156, Note_on_c, 2, 54, 0
4, 180160, Note_on_c, 2, 55, 92
4, 180220, Note_on_c, 2, 55, 0
4, 180224, Note_on_c, 2, 54, 92
4, 180284, Note_on_c, 2, 54, 0
4, 180288, Note_on_c, 2, 52, 92
4, 180348, Note_on_c, 2, 52, 0
4, 180352, Note_on_c, 2, 54, 92
4, 180412, Note_on_c, 2, 54, 0
4, 180416, Note_on_c, 2, 52, 92
4, 180476, Note_on_c, 2, 52, 0
4, 180476, Note_on_c, 2, 62, 0
4, 180480, Note_on_c, 2, 50, 92
4, 180480, Note_on_c, 2, 62, 92
4, 180656, Note_on_c, 2, 62, 92
4, 180668, Note_on_c, 2, 62, 0
4, 180668, Note_on_c, 2, 50, 0
4, 180672, Note_on_c, 2, 59, 92
4, 180732, Note_on_c, 2, 59, 0
4, 180736, Note_on_c, 2, 61, 92
4, 180796, Note_on_c, 2, 61, 0
4, 180800, Note_on_c, 2, 59, 92
4, 180860, Note_on_c, 2, 59, 0
4, 180864, Note_on_c, 2, 57, 92
4, 180924, Note_on_c, 2, 57, 0
4, 180928, Note_on_c, 2, 59, 92
4, 180988, Note_on_c, 2, 59, 0
4, 180992, Note_on_c, 2, 57, 92
4, 181036, Note_on_c, 2, 62, 0
4, 181052, Note_on_c, 2, 57, 0
4, 181056, Note_on_c, 2, 56, 92
4, 181056, Note_on_c, 2, 62, 92
4, 181116, Note_on_c, 2, 56, 0
4, 181120, Note_on_c, 2, 57, 92
4, 181180, Note_on_c, 2, 57, 0
4, 181184, Note_on_c, 2, 56, 92
4, 181244, Note_on_c, 2, 56, 0
4, 181244, Note_on_c, 2, 62, 0
4, 181248, Note_on_c, 2, 57, 92
4, 181248, Note_on_c, 2, 62, 92
4, 181248, Note_on_c, 2, 66, 92
4, 182012, Note_on_c, 2, 66, 0
4, 182204, Note_on_c, 2, 62, 0
4, 182204, Note_on_c, 2, 57, 0
4, 220800, Program_c, 2, 48
4, 221184, Note_on_c, 2, 50, 92
4, 221184, Note_on_c, 2, 38, 92
4, 221372, Note_on_c, 2, 38, 0
4, 221372, Note_on_c, 2, 50, 0
4, 221376, Note_on_c, 2, 42, 92
4, 221520, Note_on_c, 2, 50, 98
4, 221520, Note_on_c, 2, 38, 98
4, 221564, Note_on_c, 2, 38, 0
4, 221564, Note_on_c, 2, 50, 0
4, 221568, Note_on_c, 2, 43, 92
4, 221660, Note_on_c, 2, 42, 0
4, 221756, Note_on_c, 2, 43, 0
4, 221760, Note_on_c, 2, 44, 92
4, 221904, Note_on_c, 2, 52, 98
4, 221904, Note_on_c, 2, 40, 98
4, 221948, Note_on_c, 2, 40, 0
4, 221948, Note_on_c, 2, 52, 0
4, 221952, Note_on_c, 2, 45, 92
4, 222044, Note_on_c, 2, 44, 0
4, 222140, Note_on_c, 2, 45, 0
4, 222144, Note_on_c, 2, 46, 92
4, 222288, Note_on_c, 2, 54, 98
4, 222288, Note_on_c, 2, 42, 98
4, 222332, Note_on_c, 2, 42, 0
4, 222332, Note_on_c, 2, 54, 0
4, 222336, Note_on_c, 2, 47, 92
4, 222428, Note_on_c, 2, 46, 0
4, 222524, Note_on_c, 2, 47, 0
4, 222528, Note_on_c, 2, 49, 92
4, 222620, Note_on_c, 2, 49, 0
4, 222672, Note_on_c, 2, 57, 98
4, 222672, Note_on_c, 2, 45, 98
4, 222716, Note_on_c, 2, 45, 0
4, 222716, Note_on_c, 2, 57, 0
4, 222720, Note_on_c, 2, 62, 92
4, 222720, Note_on_c, 2, 50, 92
4, 222908, Note_on_c, 2, 50, 0
4, 222908, Note_on_c, 2, 62, 0
4, 222912, Note_on_c, 2, 62, 92
4, 222912, Note_on_c, 2, 50, 92
4, 223100, Note_on_c, 2, 50, 0
4, 223100, Note_on_c, 2, 62, 0
4, 223104, Note_on_c, 2, 62, 92
4, 223104, Note_on_c, 2, 54, 92
4, 223292, Note_on_c, 2, 54, 0
4, 223292, Note_on_c, 2, 62, 0
4, 223296, Note_on_c, 2, 54, 92
4, 223296, Note_on_c, 2, 62, 92
4, 223484, Note_on_c, 2, 62, 0
4, 223484, Note_on_c, 2, 54, 0
4, 223488, Note_on_c, 2, 62, 92
4, 223488, Note_on_c, 2, 55, 92
4, 223676, Note_on_c, 2, 55, 0
4, 223676, Note_on_c, 2, 62, 0
4, 223680, Note_on_c, 2, 62, 92
4, 223680, Note_on_c, 2, 55, 92
4, 223868, Note_on_c, 2, 55, 0
4, 223868, Note_on_c, 2, 62, 0
4, 223872, Note_on_c, 2, 62, 92
4, 223872, Note_on_c, 2, 55, 92
4, 224060, Note_on_c, 2, 55, 0
4, 224060, Note_on_c, 2, 62, 0
4, 224064, Note_on_c, 2, 62, 92
4, 224064, Note_on_c, 2, 55, 92
4, 224252, Note_on_c, 2, 55, 0
4, 224252, Note_on_c, 2, 62, 0
4, 224256, Note_on_c, 2, 57, 92
4, 224256, Note_on_c, 2, 62, 92
4, 224444, Note_on_c, 2, 62, 0
4, 224444, Note_on_c, 2, 57, 0
4, 224448, Note_on_c, 2, 62, 92
4, 224448, Note_on_c, 2, 57, 92
4, 224636, Note_on_c, 2, 57, 0
4, 224636, Note_on_c, 2, 62, 0
4, 224640, Note_on_c, 2, 57, 92
4, 224640, Note_on_c, 2, 45, 92
4, 224828, Note_on_c, 2, 45, 0
4, 224828, Note_on_c, 2, 57, 0
4, 224832, Note_on_c, 2, 57, 92
4, 224832, Note_on_c, 2, 45, 92
4, 225020, Note_on_c, 2, 45, 0
4, 225020, Note_on_c, 2, 57, 0
4, 225024, Note_on_c, 2, 57, 70
4, 225024, Note_on_c, 2, 50, 70
4, 225212, Note_on_c, 2, 50, 0
4, 225212, Note_on_c, 2, 57, 0
4, 225216, Note_on_c, 2, 57, 70
4, 225216, Note_on_c, 2, 62, 70
4, 225216, Note_on_c, 2, 66, 70
4, 225404, Note_on_c, 2, 66, 0
4, 225404, Note_on_c, 2, 62, 0
4, 225404, Note_on_c, 2, 57, 0
4, 225408, Note_on_c, 2, 55, 70
4, 225408, Note_on_c, 2, 62, 70
4, 225408, Note_on_c, 2, 67, 70
4, 225596, Note_on_c, 2, 67, 0
4, 225596, Note_on_c, 2, 62, 0
4, 225596, Note_on_c, 2, 55, 0
4, 225600, Note_on_c, 2, 54, 70
4, 225600, Note_on_c, 2, 62, 70
4, 225788, Note_on_c, 2, 62, 0
4, 225788, Note_on_c, 2, 54, 0
4, 225792, Note_on_c, 2, 62, 70
4, 225980, Note_on_c, 2, 62, 0
4, 225984, Note_on_c, 2, 55, 70
4, 226172, Note_on_c, 2, 55, 0
4, 226176, Note_on_c, 2, 55, 70
4, 226364, Note_on_c, 2, 55, 0
4, 226368, Note_on_c, 2, 55, 70
4, 226556, Note_on_c, 2, 55, 0
4, 226560, Note_on_c, 2, 55, 70
4, 226748, Note_on_c, 2, 55, 0
4, 226752, Note_on_c, 2, 55, 70
4, 226940, Note_on_c, 2, 55, 0
4, 226944, Note_on_c, 2, 55, 70
4, 226944, Note_on_c, 2, 59, 70
4, 227132, Note_on_c, 2, 59, 0
4, 227132, Note_on_c, 2, 55, 0
4, 227136, Note_on_c, 2, 55, 70
4, 227136, Note_on_c, 2, 59, 70
4, 227324, Note_on_c, 2, 59, 0
4, 227324, Note_on_c, 2, 55, 0
4, 228864, Note_on_c, 2, 62, 92
4, 228864, Note_on_c, 2, 50, 92
4, 229052, Note_on_c, 2, 50, 0
4, 229052, Note_on_c, 2, 62, 0
4, 229056, Note_on_c, 2, 62, 92
4, 229056, Note_on_c, 2, 54, 92
4, 229196, Note_on_c, 2, 54, 0
4, 229196, Note_on_c, 2, 62, 0
4, 229200, Note_on_c, 2, 62, 98
4, 229200, Note_on_c, 2, 54, 98
4, 229244, Note_on_c, 2, 54, 0
4, 229244, Note_on_c, 2, 62, 0
4, 229248, Note_on_c, 2, 64, 92
4, 229248, Note_on_c, 2, 57, 92
4, 229436, Note_on_c, 2, 57, 0
4, 229436, Note_on_c, 2, 64, 0
4, 229440, Note_on_c, 2, 64, 92
4, 229440, Note_on_c, 2, 57, 92
4, 229580, Note_on_c, 2, 57, 0
4, 229580, Note_on_c, 2, 64, 0
4, 229584, Note_on_c, 2, 64, 98
4, 229584, Note_on_c, 2, 57, 98
4, 229628, Note_on_c, 2, 57, 0
4, 229628, Note_on_c, 2, 64, 0
4, 229632, Note_on_c, 2, 66, 92
4, 229632, Note_on_c, 2, 62, 92
4, 229820, Note_on_c, 2, 62, 0
4, 229820, Note_on_c, 2, 66, 0
4, 229824, Note_on_c, 2, 42, 92
4, 229824, Note_on_c, 2, 54, 92
4, 229964, Note_on_c, 2, 54, 0
4, 229964, Note_on_c, 2, 42, 0
4, 229968, Note_on_c, 2, 50, 98
4, 229968, Note_on_c, 2, 38, 98
4, 230012, Note_on_c, 2, 38, 0
4, 230012, Note_on_c, 2, 50, 0
4, 230016, Note_on_c, 2, 57, 92
4, 230016, Note_on_c, 2, 45, 92
4, 230176, Note_on_c, 2, 61, 92
4, 230204, Note_on_c, 2, 45, 0
4, 230204, Note_on_c, 2, 57, 0
4, 230208, Note_on_c, 2, 49, 92
4, 230316, Note_on_c, 2, 61, 0
4, 230348, Note_on_c, 2, 49, 0
4, 230352, Note_on_c, 2, 57, 98
4, 230352, Note_on_c, 2, 45, 98
4, 230396, Note_on_c, 2, 45, 0
4, 230396, Note_on_c, 2, 57, 0
4, 230400, Note_on_c, 2, 62, 92
4, 230400, Note_on_c, 2, 50, 92
4, 230588, Note_on_c, 2, 50, 0
4, 230588, Note_on_c, 2, 62, 0
4, 230592, Note_on_c, 2, 59, 92
4, 230592, Note_on_c, 2, 47, 92
4, 230732, Note_on_c, 2, 47, 0
4, 230732, Note_on_c, 2, 59, 0
4, 230736, Note_on_c, 2, 54, 98
4, 230736, Note_on_c, 2, 42, 98
4, 230780, Note_on_c, 2, 42, 0
4, 230780, Note_on_c, 2, 54, 0
4, 230784, Note_on_c, 2, 55, 92
4, 230784, Note_on_c, 2, 43, 92
4, 230972, Note_on_c, 2, 43, 0
4, 230972, Note_on_c, 2, 55, 0
4, 230976, Note_on_c, 2, 59, 92
4, 230976, Note_on_c, 2, 47, 92
4, 231116, Note_on_c, 2, 47, 0
4, 231116, Note_on_c, 2, 59, 0
4, 231120, Note_on_c, 2, 61, 98
4, 231120, Note_on_c, 2, 49, 98
4, 231164, Note_on_c, 2, 49, 0
4, 231164, Note_on_c, 2, 61, 0
4, 231168, Note_on_c, 2, 62, 92
4, 231168, Note_on_c, 2, 50, 92
4, 231356, Note_on_c, 2, 50, 0
4, 231356, Note_on_c, 2, 62, 0
4, 231360, Note_on_c, 2, 59, 92
4, 231360, Note_on_c, 2, 47, 92
4, 231500, Note_on_c, 2, 47, 0
4, 231500, Note_on_c, 2, 59, 0
4, 231504, Note_on_c, 2, 54, 98
4, 231504, Note_on_c, 2, 42, 98
4, 231548, Note_on_c, 2, 42, 0
4, 231548, Note_on_c, 2, 54, 0
4, 231552, Note_on_c, 2, 55, 92
4, 231552, Note_on_c, 2, 43, 92
4, 231740, Note_on_c, 2, 43, 0
4, 231740, Note_on_c, 2, 55, 0
4, 231744, Note_on_c, 2, 57, 92
4, 231744, Note_on_c, 2, 45, 92
4, 231932, Note_on_c, 2, 45, 0
4, 231932, Note_on_c, 2, 57, 0
4, 231936, Note_on_c, 2, 50, 93
4, 231936, Note_on_c, 2, 38, 93
4, 232124, Note_on_c, 2, 38, 0
4, 232124, Note_on_c, 2, 50, 0
4, 232128, Note_on_c, 2, 62, 95
4, 232128, Note_on_c, 2, 50, 95
4, 232316, Note_on_c, 2, 50, 0
4, 232316, Note_on_c, 2, 62, 0
4, 232320, Note_on_c, 2, 59, 94
4, 232320, Note_on_c, 2, 45, 94
4, 232508, Note_on_c, 2, 45, 0
4, 232508, Note_on_c, 2, 59, 0
4, 232512, Note_on_c, 2, 54, 93
4, 232512, Note_on_c, 2, 42, 93
4, 232700, Note_on_c, 2, 42, 0
4, 232700, Note_on_c, 2, 54, 0
4, 232704, Note_on_c, 2, 50, 92
4, 232704, Note_on_c, 2, 38, 92
4, 233084, Note_on_c, 2, 38, 0
4, 233084, Note_on_c, 2, 50, 0
4, 233084, End_track
5, 0, Start_track
5, 0, MIDI_port, 0
5, 0, Title_t, "Midi by:"
5, 175280, Note_on_c, 0, 50, 62
5, 175324, Note_on_c, 0, 50, 0
5, 175324, End_track
6, 0, Start_track
6, 0, MIDI_port, 0
6, 0, Title_t, "B.Fisher"
6, 0, End_track
0, 0, End_of_file
