0, 0, Header, 1, 7, 384
1, 0, Start_track
1, 0, Time_signature, 4, 2, 96, 8
1, 0, Sequencer_specific, 3, 0, 0, 65
1, 0, Sequencer_specific, 5, 0, 0, 119, 14, 0
1, 0, Tempo, 277777
1, 0, End_track
2, 0, Start_track
2, 0, Title_t, "Mozart - Piano Concerto #23"
2, 0, Control_c, 0, 0, 0
2, 0, Program_c, 0, 0
2, 0, Control_c, 0, 7, 127
2, 0, Control_c, 0, 10, 66
2, 0, Control_c, 0, 91, 84
2, 0, Control_c, 0, 93, 48
2, 0, Key_signature, 3, "major"
2, 0, Control_c, 0, 121, 0
2, 384, Control_c, 0, 10, 63
2, 480, Control_c, 0, 91, 85
2, 576, Control_c, 0, 93, 35
2, 672, Program_c, 0, 0
2, 1536, Note_on_c, 0, 76, 100
2, 1856, Note_off_c, 0, 76, 0
2, 2304, Note_on_c, 0, 69, 100
2, 2624, Note_off_c, 0, 69, 0
2, 3072, Note_on_c, 0, 81, 105
2, 4220, Note_off_c, 0, 81, 0
2, 4224, Note_on_c, 0, 80, 97
2, 4412, Note_off_c, 0, 80, 0
2, 4416, Note_on_c, 0, 78, 95
2, 4576, Note_off_c, 0, 78, 0
2, 4608, Note_on_c, 0, 78, 95
2, 4796, Note_off_c, 0, 78, 0
2, 4800, Note_on_c, 0, 76, 95
2, 4988, Note_off_c, 0, 76, 0
2, 4992, Note_on_c, 0, 74, 95
2, 5180, Note_off_c, 0, 74, 0
2, 5184, Note_on_c, 0, 73, 95
2, 5372, Note_off_c, 0, 73, 0
2, 5376, Note_on_c, 0, 74, 95
2, 5564, Note_off_c, 0, 74, 0
2, 5568, Note_on_c, 0, 71, 95
2, 5756, Note_off_c, 0, 71, 0
2, 5760, Note_on_c, 0, 73, 95
2, 5948, Note_off_c, 0, 73, 0
2, 5952, Note_on_c, 0, 69, 95
2, 6140, Note_off_c, 0, 69, 0
2, 6144, Note_on_c, 0, 73, 95
2, 6332, Note_off_c, 0, 73, 0
2, 6336, Note_on_c, 0, 71, 95
2, 6524, Note_off_c, 0, 71, 0
2, 6528, Note_on_c, 0, 69, 95
2, 6716, Note_off_c, 0, 69, 0
2, 6720, Note_on_c, 0, 68, 95
2, 6908, Note_off_c, 0, 68, 0
2, 6912, Note_on_c, 0, 66, 95
2, 7100, Note_off_c, 0, 66, 0
2, 7104, Note_on_c, 0, 64, 95
2, 7292, Note_off_c, 0, 64, 0
2, 7296, Note_on_c, 0, 63, 95
2, 7484, Note_off_c, 0, 63, 0
2, 7488, Note_on_c, 0, 64, 95
2, 7676, Note_off_c, 0, 64, 0
2, 7680, Note_on_c, 0, 76, 98
2, 8000, Note_off_c, 0, 76, 0
2, 8448, Note_on_c, 0, 69, 98
2, 8728, Note_off_c, 0, 69, 0
2, 9216, Note_on_c, 0, 69, 110
2, 9336, Note_off_c, 0, 69, 0
2, 9360, Note_on_c, 0, 81, 99
2, 10360, Note_off_c, 0, 81, 0
2, 10368, Note_on_c, 0, 80, 97
2, 10556, Note_off_c, 0, 80, 0
2, 10560, Note_on_c, 0, 78, 95
2, 10720, Note_off_c, 0, 78, 0
2, 10752, Note_on_c, 0, 76, 95
2, 10940, Note_off_c, 0, 76, 0
2, 10944, Note_on_c, 0, 81, 95
2, 11104, Note_off_c, 0, 81, 0
2, 11136, Note_on_c, 0, 78, 95
2, 11324, Note_off_c, 0, 78, 0
2, 11328, Note_on_c, 0, 74, 95
2, 11488, Note_off_c, 0, 74, 0
2, 11520, Note_on_c, 0, 73, 95
2, 11708, Note_off_c, 0, 73, 0
2, 11712, Note_on_c, 0, 76, 95
2, 11872, Note_off_c, 0, 76, 0
2, 11904, Note_on_c, 0, 74, 95
2, 12092, Note_off_c, 0, 74, 0
2, 12096, Note_on_c, 0, 71, 95
2, 12256, Note_off_c, 0, 71, 0
2, 12288, Note_on_c, 0, 69, 95
2, 12476, Note_off_c, 0, 69, 0
2, 12480, Note_on_c, 0, 71, 95
2, 12668, Note_off_c, 0, 71, 0
2, 12672, Note_on_c, 0, 73, 95
2, 12860, Note_off_c, 0, 73, 0
2, 12864, Note_on_c, 0, 74, 95
2, 13024, Note_off_c, 0, 74, 0
2, 13056, Note_on_c, 0, 76, 95
2, 13136, Note_off_c, 0, 76, 0
2, 13248, Note_on_c, 0, 78, 95
2, 13328, Note_off_c, 0, 78, 0
2, 13440, Note_on_c, 0, 80, 95
2, 13520, Note_off_c, 0, 80, 0
2, 13632, Note_on_c, 0, 81, 95
2, 13712, Note_off_c, 0, 81, 0
2, 95232, Note_on_c, 0, 73, 70
2, 95996, Note_off_c, 0, 73, 0
2, 96000, Note_on_c, 0, 74, 70
2, 96572, Note_off_c, 0, 74, 0
2, 96576, Note_on_c, 0, 71, 75
2, 96764, Note_off_c, 0, 71, 0
2, 96768, Note_on_c, 0, 76, 70
2, 97916, Note_off_c, 0, 76, 0
2, 97920, Note_on_c, 0, 77, 70
2, 98300, Note_off_c, 0, 77, 0
2, 98304, Note_on_c, 0, 78, 70
2, 98464, Note_off_c, 0, 78, 0
2, 98688, Note_on_c, 0, 80, 70
2, 98848, Note_off_c, 0, 80, 0
2, 99072, Note_on_c, 0, 81, 70
2, 99232, Note_off_c, 0, 81, 0
2, 99456, Note_on_c, 0, 80, 70
2, 99616, Note_off_c, 0, 80, 0
2, 99840, Note_on_c, 0, 80, 70
2, 100220, Note_off_c, 0, 80, 0
2, 100224, Note_on_c, 0, 78, 70
2, 100604, Note_off_c, 0, 78, 0
2, 100608, Note_on_c, 0, 76, 70
2, 100928, Note_off_c, 0, 76, 0
2, 101376, Note_on_c, 0, 76, 85
2, 101456, Note_off_c, 0, 76, 0
2, 101472, Note_on_c, 0, 81, 75
2, 101472, Note_on_c, 0, 64, 70
2, 101472, Note_on_c, 0, 57, 70
2, 101472, Note_on_c, 0, 61, 70
2, 101948, Note_off_c, 0, 81, 0
2, 101952, Note_on_c, 0, 81, 72
2, 102016, Note_off_c, 0, 64, 0
2, 102016, Note_off_c, 0, 57, 0
2, 102016, Note_off_c, 0, 61, 0
2, 102112, Note_off_c, 0, 81, 0
2, 102144, Note_on_c, 0, 80, 85
2, 102224, Note_off_c, 0, 80, 0
2, 102240, Note_on_c, 0, 86, 75
2, 102240, Note_on_c, 0, 59, 70
2, 102240, Note_on_c, 0, 62, 70
2, 102240, Note_on_c, 0, 68, 70
2, 102716, Note_off_c, 0, 86, 0
2, 102720, Note_on_c, 0, 83, 72
2, 102784, Note_off_c, 0, 59, 0
2, 102784, Note_off_c, 0, 62, 0
2, 102784, Note_off_c, 0, 68, 0
2, 102880, Note_off_c, 0, 83, 0
2, 102912, Note_on_c, 0, 81, 85
2, 102972, Note_off_c, 0, 81, 0
2, 102980, Note_on_c, 0, 85, 85
2, 103040, Note_off_c, 0, 85, 0
2, 103056, Note_on_c, 0, 69, 70
2, 103056, Note_on_c, 0, 64, 70
2, 103056, Note_on_c, 0, 88, 75
2, 103056, Note_on_c, 0, 61, 70
2, 103228, Note_off_c, 0, 69, 0
2, 103228, Note_off_c, 0, 64, 0
2, 103228, Note_off_c, 0, 61, 0
2, 103288, Note_off_c, 0, 88, 0
2, 103296, Note_on_c, 0, 86, 74
2, 103484, Note_off_c, 0, 86, 0
2, 103488, Note_on_c, 0, 85, 73
2, 103676, Note_off_c, 0, 85, 0
2, 103680, Note_on_c, 0, 83, 72
2, 103868, Note_off_c, 0, 83, 0
2, 103872, Note_on_c, 0, 81, 71
2, 104060, Note_off_c, 0, 81, 0
2, 104064, Note_on_c, 0, 80, 70
2, 104252, Note_off_c, 0, 80, 0
2, 104256, Note_on_c, 0, 78, 70
2, 104444, Note_off_c, 0, 78, 0
2, 104448, Note_on_c, 0, 76, 70
2, 104636, Note_off_c, 0, 76, 0
2, 104640, Note_on_c, 0, 74, 70
2, 104828, Note_off_c, 0, 74, 0
2, 104832, Note_on_c, 0, 73, 70
2, 105020, Note_off_c, 0, 73, 0
2, 105024, Note_on_c, 0, 71, 70
2, 105212, Note_off_c, 0, 71, 0
2, 105216, Note_on_c, 0, 69, 70
2, 105596, Note_off_c, 0, 69, 0
2, 105600, Note_on_c, 0, 78, 70
2, 105920, Note_off_c, 0, 78, 0
2, 105984, Note_on_c, 0, 73, 70
2, 106748, Note_off_c, 0, 73, 0
2, 106752, Note_on_c, 0, 71, 70
2, 107072, Note_off_c, 0, 71, 0
2, 113856, Note_on_c, 0, 76, 95
2, 114044, Note_off_c, 0, 76, 0
2, 114048, Note_on_c, 0, 88, 95
2, 114236, Note_off_c, 0, 88, 0
2, 114240, Note_on_c, 0, 86, 95
2, 114428, Note_off_c, 0, 86, 0
2, 114432, Note_on_c, 0, 85, 95
2, 114620, Note_off_c, 0, 85, 0
2, 114624, Note_on_c, 0, 83, 95
2, 114812, Note_off_c, 0, 83, 0
2, 114816, Note_on_c, 0, 81, 95
2, 115004, Note_off_c, 0, 81, 0
2, 115008, Note_on_c, 0, 80, 95
2, 115196, Note_off_c, 0, 80, 0
2, 115200, Note_on_c, 0, 78, 95
2, 115388, Note_off_c, 0, 78, 0
2, 115392, Note_on_c, 0, 76, 95
2, 115580, Note_off_c, 0, 76, 0
2, 115584, Note_on_c, 0, 74, 95
2, 115772, Note_off_c, 0, 74, 0
2, 115776, Note_on_c, 0, 73, 95
2, 115964, Note_off_c, 0, 73, 0
2, 115968, Note_on_c, 0, 71, 95
2, 116156, Note_off_c, 0, 71, 0
2, 116160, Note_on_c, 0, 69, 95
2, 116348, Note_off_c, 0, 69, 0
2, 116352, Note_on_c, 0, 68, 95
2, 116540, Note_off_c, 0, 68, 0
2, 116544, Note_on_c, 0, 66, 95
2, 116732, Note_off_c, 0, 66, 0
2, 116736, Note_on_c, 0, 64, 95
2, 116924, Note_off_c, 0, 64, 0
2, 116928, Note_on_c, 0, 69, 95
2, 117116, Note_off_c, 0, 69, 0
2, 117120, Note_on_c, 0, 73, 95
2, 117308, Note_off_c, 0, 73, 0
2, 117312, Note_on_c, 0, 76, 95
2, 117500, Note_off_c, 0, 76, 0
2, 117504, Note_on_c, 0, 76, 95
2, 117692, Note_off_c, 0, 76, 0
2, 117696, Note_on_c, 0, 74, 95
2, 117884, Note_off_c, 0, 74, 0
2, 117888, Note_on_c, 0, 71, 95
2, 118076, Note_off_c, 0, 71, 0
2, 118080, Note_on_c, 0, 68, 95
2, 118268, Note_off_c, 0, 68, 0
2, 118272, Note_on_c, 0, 69, 95
2, 118592, Note_off_c, 0, 69, 0
2, 119616, Note_on_c, 0, 69, 95
2, 119696, Note_off_c, 0, 69, 0
2, 119808, Note_on_c, 0, 71, 95
2, 119996, Note_off_c, 0, 71, 0
2, 120000, Note_on_c, 0, 73, 95
2, 120092, Note_off_c, 0, 73, 0
2, 120096, Note_on_c, 0, 71, 95
2, 120188, Note_off_c, 0, 71, 0
2, 120192, Note_on_c, 0, 69, 95
2, 120284, Note_off_c, 0, 69, 0
2, 120288, Note_on_c, 0, 71, 95
2, 120380, Note_off_c, 0, 71, 0
2, 120384, Note_on_c, 0, 73, 95
2, 120572, Note_off_c, 0, 73, 0
2, 120576, Note_on_c, 0, 74, 95
2, 120764, Note_off_c, 0, 74, 0
2, 120768, Note_on_c, 0, 76, 95
2, 120956, Note_off_c, 0, 76, 0
2, 120960, Note_on_c, 0, 78, 95
2, 121148, Note_off_c, 0, 78, 0
2, 121152, Note_on_c, 0, 80, 95
2, 121340, Note_off_c, 0, 80, 0
2, 121344, Note_on_c, 0, 81, 95
2, 121724, Note_off_c, 0, 81, 0
2, 121728, Note_on_c, 0, 76, 95
2, 122048, Note_off_c, 0, 76, 0
2, 122688, Note_on_c, 0, 69, 95
2, 122768, Note_off_c, 0, 69, 0
2, 122880, Note_on_c, 0, 71, 95
2, 123068, Note_off_c, 0, 71, 0
2, 123072, Note_on_c, 0, 73, 95
2, 123164, Note_off_c, 0, 73, 0
2, 123168, Note_on_c, 0, 71, 95
2, 123260, Note_off_c, 0, 71, 0
2, 123264, Note_on_c, 0, 69, 95
2, 123356, Note_off_c, 0, 69, 0
2, 123360, Note_on_c, 0, 71, 95
2, 123452, Note_off_c, 0, 71, 0
2, 123456, Note_on_c, 0, 73, 95
2, 123644, Note_off_c, 0, 73, 0
2, 123648, Note_on_c, 0, 74, 95
2, 123836, Note_off_c, 0, 74, 0
2, 123840, Note_on_c, 0, 76, 95
2, 124028, Note_off_c, 0, 76, 0
2, 124032, Note_on_c, 0, 78, 95
2, 124220, Note_off_c, 0, 78, 0
2, 124224, Note_on_c, 0, 80, 95
2, 124412, Note_off_c, 0, 80, 0
2, 124416, Note_on_c, 0, 81, 95
2, 124736, Note_off_c, 0, 81, 0
2, 124992, Note_on_c, 0, 81, 95
2, 125180, Note_off_c, 0, 81, 0
2, 125184, Note_on_c, 0, 83, 95
2, 125504, Note_off_c, 0, 83, 0
2, 125760, Note_on_c, 0, 83, 95
2, 125948, Note_off_c, 0, 83, 0
2, 125952, Note_on_c, 0, 85, 95
2, 126272, Note_off_c, 0, 85, 0
2, 126528, Note_on_c, 0, 85, 95
2, 126716, Note_off_c, 0, 85, 0
2, 126720, Note_on_c, 0, 87, 95
2, 127040, Note_off_c, 0, 87, 0
2, 127296, Note_on_c, 0, 87, 95
2, 127484, Note_off_c, 0, 87, 0
2, 127488, Note_on_c, 0, 88, 95
2, 127808, Note_off_c, 0, 88, 0
2, 128832, Note_on_c, 0, 64, 95
2, 128912, Note_off_c, 0, 64, 0
2, 129024, Note_on_c, 0, 66, 95
2, 129212, Note_off_c, 0, 66, 0
2, 129216, Note_on_c, 0, 68, 95
2, 129308, Note_off_c, 0, 68, 0
2, 129312, Note_on_c, 0, 66, 95
2, 129404, Note_off_c, 0, 66, 0
2, 129408, Note_on_c, 0, 64, 95
2, 129500, Note_off_c, 0, 64, 0
2, 129504, Note_on_c, 0, 66, 95
2, 129596, Note_off_c, 0, 66, 0
2, 129600, Note_on_c, 0, 68, 95
2, 129788, Note_off_c, 0, 68, 0
2, 129792, Note_on_c, 0, 69, 95
2, 129980, Note_off_c, 0, 69, 0
2, 129984, Note_on_c, 0, 71, 95
2, 130172, Note_off_c, 0, 71, 0
2, 130176, Note_on_c, 0, 73, 95
2, 130364, Note_off_c, 0, 73, 0
2, 130368, Note_on_c, 0, 75, 95
2, 130556, Note_off_c, 0, 75, 0
2, 130560, Note_on_c, 0, 76, 95
2, 130940, Note_off_c, 0, 76, 0
2, 130944, Note_on_c, 0, 71, 95
2, 131264, Note_off_c, 0, 71, 0
2, 131904, Note_on_c, 0, 76, 95
2, 131984, Note_off_c, 0, 76, 0
2, 132096, Note_on_c, 0, 78, 95
2, 132284, Note_off_c, 0, 78, 0
2, 132288, Note_on_c, 0, 80, 95
2, 132380, Note_off_c, 0, 80, 0
2, 132384, Note_on_c, 0, 78, 95
2, 132476, Note_off_c, 0, 78, 0
2, 132480, Note_on_c, 0, 76, 95
2, 132572, Note_off_c, 0, 76, 0
2, 132576, Note_on_c, 0, 78, 95
2, 132668, Note_off_c, 0, 78, 0
2, 132672, Note_on_c, 0, 80, 95
2, 132860, Note_off_c, 0, 80, 0
2, 132864, Note_on_c, 0, 81, 95
2, 133052, Note_off_c, 0, 81, 0
2, 133056, Note_on_c, 0, 83, 95
2, 133244, Note_off_c, 0, 83, 0
2, 133248, Note_on_c, 0, 85, 95
2, 133436, Note_off_c, 0, 85, 0
2, 133440, Note_on_c, 0, 87, 95
2, 133628, Note_off_c, 0, 87, 0
2, 133632, Note_on_c, 0, 88, 95
2, 133952, Note_off_c, 0, 88, 0
2, 134208, Note_on_c, 0, 76, 95
2, 134396, Note_off_c, 0, 76, 0
2, 134400, Note_on_c, 0, 78, 95
2, 134720, Note_off_c, 0, 78, 0
2, 134976, Note_on_c, 0, 78, 95
2, 135164, Note_off_c, 0, 78, 0
2, 135168, Note_on_c, 0, 80, 95
2, 135488, Note_off_c, 0, 80, 0
2, 135744, Note_on_c, 0, 80, 95
2, 135932, Note_off_c, 0, 80, 0
2, 135936, Note_on_c, 0, 82, 95
2, 136256, Note_off_c, 0, 82, 0
2, 136512, Note_on_c, 0, 82, 95
2, 136700, Note_off_c, 0, 82, 0
2, 136704, Note_on_c, 0, 83, 95
2, 137024, Note_off_c, 0, 83, 0
2, 138432, Note_on_c, 0, 71, 95
2, 138620, Note_off_c, 0, 71, 0
2, 138624, Note_on_c, 0, 76, 95
2, 138812, Note_off_c, 0, 76, 0
2, 138816, Note_on_c, 0, 80, 95
2, 139004, Note_off_c, 0, 80, 0
2, 139008, Note_on_c, 0, 83, 95
2, 139196, Note_off_c, 0, 83, 0
2, 139200, Note_on_c, 0, 80, 95
2, 139388, Note_off_c, 0, 80, 0
2, 139392, Note_on_c, 0, 76, 95
2, 139580, Note_off_c, 0, 76, 0
2, 139584, Note_on_c, 0, 71, 95
2, 139744, Note_off_c, 0, 71, 0
2, 139968, Note_on_c, 0, 73, 95
2, 140156, Note_off_c, 0, 73, 0
2, 140160, Note_on_c, 0, 85, 95
2, 140348, Note_off_c, 0, 85, 0
2, 140352, Note_on_c, 0, 83, 95
2, 140540, Note_off_c, 0, 83, 0
2, 140544, Note_on_c, 0, 81, 95
2, 140732, Note_off_c, 0, 81, 0
2, 140736, Note_on_c, 0, 80, 95
2, 140924, Note_off_c, 0, 80, 0
2, 140928, Note_on_c, 0, 78, 95
2, 141116, Note_off_c, 0, 78, 0
2, 141120, Note_on_c, 0, 77, 95
2, 141308, Note_off_c, 0, 77, 0
2, 141312, Note_on_c, 0, 78, 95
2, 141500, Note_off_c, 0, 78, 0
2, 141504, Note_on_c, 0, 79, 95
2, 141692, Note_off_c, 0, 79, 0
2, 141696, Note_on_c, 0, 80, 95
2, 141884, Note_off_c, 0, 80, 0
2, 141888, Note_on_c, 0, 81, 95
2, 142076, Note_off_c, 0, 81, 0
2, 142080, Note_on_c, 0, 82, 95
2, 142268, Note_off_c, 0, 82, 0
2, 142272, Note_on_c, 0, 83, 95
2, 142460, Note_off_c, 0, 83, 0
2, 142464, Note_on_c, 0, 84, 95
2, 142652, Note_off_c, 0, 84, 0
2, 142656, Note_on_c, 0, 85, 95
2, 142816, Note_off_c, 0, 85, 0
2, 143040, Note_on_c, 0, 71, 95
2, 143228, Note_off_c, 0, 71, 0
2, 143232, Note_on_c, 0, 83, 95
2, 143420, Note_off_c, 0, 83, 0
2, 143424, Note_on_c, 0, 81, 95
2, 143612, Note_off_c, 0, 81, 0
2, 143616, Note_on_c, 0, 80, 95
2, 143804, Note_off_c, 0, 80, 0
2, 143808, Note_on_c, 0, 78, 95
2, 143996, Note_off_c, 0, 78, 0
2, 144000, Note_on_c, 0, 76, 95
2, 144188, Note_off_c, 0, 76, 0
2, 144192, Note_on_c, 0, 75, 95
2, 144380, Note_off_c, 0, 75, 0
2, 144384, Note_on_c, 0, 76, 95
2, 144572, Note_off_c, 0, 76, 0
2, 144576, Note_on_c, 0, 77, 95
2, 144764, Note_off_c, 0, 77, 0
2, 144768, Note_on_c, 0, 78, 95
2, 144956, Note_off_c, 0, 78, 0
2, 144960, Note_on_c, 0, 79, 95
2, 145148, Note_off_c, 0, 79, 0
2, 145152, Note_on_c, 0, 80, 95
2, 145340, Note_off_c, 0, 80, 0
2, 145344, Note_on_c, 0, 81, 95
2, 145532, Note_off_c, 0, 81, 0
2, 145536, Note_on_c, 0, 82, 95
2, 145724, Note_off_c, 0, 82, 0
2, 145728, Note_on_c, 0, 83, 95
2, 145888, Note_off_c, 0, 83, 0
2, 146112, Note_on_c, 0, 69, 95
2, 146300, Note_off_c, 0, 69, 0
2, 146304, Note_on_c, 0, 81, 95
2, 146492, Note_off_c, 0, 81, 0
2, 146496, Note_on_c, 0, 80, 95
2, 146684, Note_off_c, 0, 80, 0
2, 146688, Note_on_c, 0, 78, 95
2, 146876, Note_off_c, 0, 78, 0
2, 146880, Note_on_c, 0, 76, 95
2, 147068, Note_off_c, 0, 76, 0
2, 147072, Note_on_c, 0, 75, 95
2, 147260, Note_off_c, 0, 75, 0
2, 147264, Note_on_c, 0, 73, 95
2, 147452, Note_off_c, 0, 73, 0
2, 147456, Note_on_c, 0, 76, 95
2, 147644, Note_off_c, 0, 76, 0
2, 147648, Note_on_c, 0, 75, 95
2, 147836, Note_off_c, 0, 75, 0
2, 147840, Note_on_c, 0, 78, 95
2, 148028, Note_off_c, 0, 78, 0
2, 148032, Note_on_c, 0, 76, 95
2, 148220, Note_off_c, 0, 76, 0
2, 148224, Note_on_c, 0, 75, 95
2, 148412, Note_off_c, 0, 75, 0
2, 148416, Note_on_c, 0, 73, 95
2, 148604, Note_off_c, 0, 73, 0
2, 148608, Note_on_c, 0, 71, 95
2, 148796, Note_off_c, 0, 71, 0
2, 148800, Note_on_c, 0, 69, 95
2, 148960, Note_off_c, 0, 69, 0
2, 149184, Note_on_c, 0, 68, 95
2, 149372, Note_off_c, 0, 68, 0
2, 149376, Note_on_c, 0, 71, 95
2, 149564, Note_off_c, 0, 71, 0
2, 149568, Note_on_c, 0, 76, 95
2, 149756, Note_off_c, 0, 76, 0
2, 149760, Note_on_c, 0, 80, 95
2, 149948, Note_off_c, 0, 80, 0
2, 149952, Note_on_c, 0, 83, 95
2, 150140, Note_off_c, 0, 83, 0
2, 150144, Note_on_c, 0, 80, 95
2, 150332, Note_off_c, 0, 80, 0
2, 150336, Note_on_c, 0, 76, 95
2, 150524, Note_off_c, 0, 76, 0
2, 150528, Note_on_c, 0, 81, 95
2, 150716, Note_off_c, 0, 81, 0
2, 150720, Note_on_c, 0, 78, 95
2, 150908, Note_off_c, 0, 78, 0
2, 150912, Note_on_c, 0, 75, 95
2, 151100, Note_off_c, 0, 75, 0
2, 151104, Note_on_c, 0, 71, 95
2, 151292, Note_off_c, 0, 71, 0
2, 151296, Note_on_c, 0, 69, 95
2, 151484, Note_off_c, 0, 69, 0
2, 151488, Note_on_c, 0, 71, 95
2, 151676, Note_off_c, 0, 71, 0
2, 151680, Note_on_c, 0, 69, 95
2, 151868, Note_off_c, 0, 69, 0
2, 151872, Note_on_c, 0, 66, 95
2, 152032, Note_off_c, 0, 66, 0
2, 152256, Note_on_c, 0, 68, 95
2, 152444, Note_off_c, 0, 68, 0
2, 152448, Note_on_c, 0, 71, 95
2, 152636, Note_off_c, 0, 71, 0
2, 152640, Note_on_c, 0, 76, 95
2, 152828, Note_off_c, 0, 76, 0
2, 152832, Note_on_c, 0, 80, 95
2, 153020, Note_off_c, 0, 80, 0
2, 153024, Note_on_c, 0, 83, 95
2, 153212, Note_off_c, 0, 83, 0
2, 153216, Note_on_c, 0, 80, 95
2, 153404, Note_off_c, 0, 80, 0
2, 153408, Note_on_c, 0, 76, 95
2, 153596, Note_off_c, 0, 76, 0
2, 153600, Note_on_c, 0, 81, 95
2, 153788, Note_off_c, 0, 81, 0
2, 153792, Note_on_c, 0, 78, 95
2, 153980, Note_off_c, 0, 78, 0
2, 153984, Note_on_c, 0, 75, 95
2, 154172, Note_off_c, 0, 75, 0
2, 154176, Note_on_c, 0, 71, 95
2, 154364, Note_off_c, 0, 71, 0
2, 154368, Note_on_c, 0, 69, 95
2, 154556, Note_off_c, 0, 69, 0
2, 154560, Note_on_c, 0, 71, 95
2, 154748, Note_off_c, 0, 71, 0
2, 154752, Note_on_c, 0, 69, 95
2, 154940, Note_off_c, 0, 69, 0
2, 154944, Note_on_c, 0, 66, 95
2, 155104, Note_off_c, 0, 66, 0
2, 155328, Note_on_c, 0, 68, 95
2, 155516, Note_off_c, 0, 68, 0
2, 155520, Note_on_c, 0, 71, 95
2, 155708, Note_off_c, 0, 71, 0
2, 155712, Note_on_c, 0, 76, 95
2, 155900, Note_off_c, 0, 76, 0
2, 155904, Note_on_c, 0, 80, 95
2, 156092, Note_off_c, 0, 80, 0
2, 156096, Note_on_c, 0, 83, 95
2, 156284, Note_off_c, 0, 83, 0
2, 156288, Note_on_c, 0, 80, 95
2, 156476, Note_off_c, 0, 80, 0
2, 156480, Note_on_c, 0, 76, 95
2, 156640, Note_off_c, 0, 76, 0
2, 156864, Note_on_c, 0, 73, 95
2, 157052, Note_off_c, 0, 73, 0
2, 157056, Note_on_c, 0, 78, 95
2, 157244, Note_off_c, 0, 78, 0
2, 157248, Note_on_c, 0, 81, 95
2, 157436, Note_off_c, 0, 81, 0
2, 157440, Note_on_c, 0, 85, 95
2, 157628, Note_off_c, 0, 85, 0
2, 157632, Note_on_c, 0, 88, 95
2, 157820, Note_off_c, 0, 88, 0
2, 157824, Note_on_c, 0, 85, 95
2, 158012, Note_off_c, 0, 85, 0
2, 158016, Note_on_c, 0, 81, 95
2, 158176, Note_off_c, 0, 81, 0
2, 158400, Note_on_c, 0, 68, 95
2, 158588, Note_off_c, 0, 68, 0
2, 158592, Note_on_c, 0, 71, 95
2, 158780, Note_off_c, 0, 71, 0
2, 158784, Note_on_c, 0, 76, 95
2, 158972, Note_off_c, 0, 76, 0
2, 158976, Note_on_c, 0, 80, 95
2, 159164, Note_off_c, 0, 80, 0
2, 159168, Note_on_c, 0, 83, 95
2, 159356, Note_off_c, 0, 83, 0
2, 159360, Note_on_c, 0, 80, 95
2, 159548, Note_off_c, 0, 80, 0
2, 159552, Note_on_c, 0, 76, 95
2, 159712, Note_off_c, 0, 76, 0
2, 159744, Note_on_c, 0, 59, 95
2, 159744, Note_on_c, 0, 78, 95
2, 159824, Note_off_c, 0, 78, 0
2, 159840, Note_on_c, 0, 80, 95
2, 159904, Note_off_c, 0, 59, 0
2, 159920, Note_off_c, 0, 80, 0
2, 159936, Note_on_c, 0, 69, 95
2, 159936, Note_on_c, 0, 78, 95
2, 160016, Note_off_c, 0, 78, 0
2, 160032, Note_on_c, 0, 80, 95
2, 160096, Note_off_c, 0, 69, 0
2, 160112, Note_off_c, 0, 80, 0
2, 160128, Note_on_c, 0, 63, 95
2, 160128, Note_on_c, 0, 78, 95
2, 160208, Note_off_c, 0, 78, 0
2, 160224, Note_on_c, 0, 80, 95
2, 160288, Note_off_c, 0, 63, 0
2, 160304, Note_off_c, 0, 80, 0
2, 160320, Note_on_c, 0, 69, 95
2, 160320, Note_on_c, 0, 78, 95
2, 160400, Note_off_c, 0, 78, 0
2, 160416, Note_on_c, 0, 80, 95
2, 160480, Note_off_c, 0, 69, 0
2, 160496, Note_off_c, 0, 80, 0
2, 160512, Note_on_c, 0, 59, 95
2, 160512, Note_on_c, 0, 78, 95
2, 160592, Note_off_c, 0, 78, 0
2, 160608, Note_on_c, 0, 80, 95
2, 160672, Note_off_c, 0, 59, 0
2, 160688, Note_off_c, 0, 80, 0
2, 160704, Note_on_c, 0, 69, 95
2, 160704, Note_on_c, 0, 78, 95
2, 160784, Note_off_c, 0, 78, 0
2, 160800, Note_on_c, 0, 80, 95
2, 160864, Note_off_c, 0, 69, 0
2, 160880, Note_off_c, 0, 80, 0
2, 160896, Note_on_c, 0, 63, 95
2, 160896, Note_on_c, 0, 78, 95
2, 160976, Note_off_c, 0, 78, 0
2, 160992, Note_on_c, 0, 80, 95
2, 161056, Note_off_c, 0, 63, 0
2, 161072, Note_off_c, 0, 80, 0
2, 161088, Note_on_c, 0, 69, 95
2, 161088, Note_on_c, 0, 76, 95
2, 161168, Note_off_c, 0, 76, 0
2, 161184, Note_on_c, 0, 78, 95
2, 161248, Note_off_c, 0, 69, 0
2, 161264, Note_off_c, 0, 78, 0
2, 161280, Note_on_c, 0, 76, 95
2, 161280, Note_on_c, 0, 68, 95
2, 161280, Note_on_c, 0, 64, 95
2, 161984, Note_off_c, 0, 76, 0
2, 161984, Note_off_c, 0, 68, 0
2, 161984, Note_off_c, 0, 64, 0
2, 173760, Note_on_c, 0, 71, 95
2, 173948, Note_off_c, 0, 71, 0
2, 173952, Note_on_c, 0, 73, 95
2, 174140, Note_off_c, 0, 73, 0
2, 174144, Note_on_c, 0, 75, 95
2, 174332, Note_off_c, 0, 75, 0
2, 174336, Note_on_c, 0, 76, 95
2, 174524, Note_off_c, 0, 76, 0
2, 174528, Note_on_c, 0, 75, 95
2, 174716, Note_off_c, 0, 75, 0
2, 174720, Note_on_c, 0, 78, 95
2, 174908, Note_off_c, 0, 78, 0
2, 174912, Note_on_c, 0, 76, 95
2, 175100, Note_off_c, 0, 76, 0
2, 175104, Note_on_c, 0, 79, 95
2, 175104, Note_on_c, 0, 64, 95
2, 175292, Note_off_c, 0, 64, 0
2, 175296, Note_on_c, 0, 71, 95
2, 175484, Note_off_c, 0, 71, 0
2, 175488, Note_on_c, 0, 67, 95
2, 175676, Note_off_c, 0, 67, 0
2, 175680, Note_on_c, 0, 71, 95
2, 175840, Note_off_c, 0, 71, 0
2, 175872, Note_on_c, 0, 64, 95
2, 176060, Note_off_c, 0, 64, 0
2, 176064, Note_on_c, 0, 71, 95
2, 176252, Note_off_c, 0, 71, 0
2, 176256, Note_on_c, 0, 67, 95
2, 176444, Note_off_c, 0, 67, 0
2, 176448, Note_on_c, 0, 71, 95
2, 176496, Note_off_c, 0, 79, 0
2, 176608, Note_off_c, 0, 71, 0
2, 176640, Note_on_c, 0, 78, 95
2, 176640, Note_on_c, 0, 63, 95
2, 176828, Note_off_c, 0, 63, 0
2, 176832, Note_on_c, 0, 71, 95
2, 177020, Note_off_c, 0, 78, 0
2, 177020, Note_off_c, 0, 71, 0
2, 177024, Note_on_c, 0, 83, 100
2, 177024, Note_on_c, 0, 68, 95
2, 177184, Note_off_c, 0, 83, 0
2, 177212, Note_off_c, 0, 68, 0
2, 177216, Note_on_c, 0, 71, 95
2, 177404, Note_off_c, 0, 71, 0
2, 177408, Note_on_c, 0, 83, 100
2, 177408, Note_on_c, 0, 63, 95
2, 177568, Note_off_c, 0, 83, 0
2, 177596, Note_off_c, 0, 63, 0
2, 177600, Note_on_c, 0, 71, 95
2, 177788, Note_off_c, 0, 71, 0
2, 177792, Note_on_c, 0, 83, 100
2, 177792, Note_on_c, 0, 69, 95
2, 177952, Note_off_c, 0, 83, 0
2, 177980, Note_off_c, 0, 69, 0
2, 177984, Note_on_c, 0, 71, 95
2, 178144, Note_off_c, 0, 71, 0
2, 178176, Note_on_c, 0, 83, 95
2, 178176, Note_on_c, 0, 64, 95
2, 178364, Note_off_c, 0, 83, 0
2, 178364, Note_off_c, 0, 64, 0
2, 178368, Note_on_c, 0, 82, 95
2, 178368, Note_on_c, 0, 71, 95
2, 178556, Note_off_c, 0, 82, 0
2, 178556, Note_off_c, 0, 71, 0
2, 178560, Note_on_c, 0, 81, 95
2, 178560, Note_on_c, 0, 67, 95
2, 178748, Note_off_c, 0, 81, 0
2, 178748, Note_off_c, 0, 67, 0
2, 178752, Note_on_c, 0, 80, 95
2, 178752, Note_on_c, 0, 71, 95
2, 178940, Note_off_c, 0, 80, 0
2, 178940, Note_off_c, 0, 71, 0
2, 178944, Note_on_c, 0, 79, 95
2, 178944, Note_on_c, 0, 64, 95
2, 179132, Note_off_c, 0, 79, 0
2, 179132, Note_off_c, 0, 64, 0
2, 179136, Note_on_c, 0, 78, 95
2, 179136, Note_on_c, 0, 71, 95
2, 179324, Note_off_c, 0, 78, 0
2, 179324, Note_off_c, 0, 71, 0
2, 179328, Note_on_c, 0, 77, 95
2, 179328, Note_on_c, 0, 67, 95
2, 179516, Note_off_c, 0, 77, 0
2, 179516, Note_off_c, 0, 67, 0
2, 179520, Note_on_c, 0, 76, 95
2, 179520, Note_on_c, 0, 71, 95
2, 179680, Note_off_c, 0, 71, 0
2, 179708, Note_off_c, 0, 76, 0
2, 179712, Note_on_c, 0, 75, 95
2, 179712, Note_on_c, 0, 59, 95
2, 179900, Note_off_c, 0, 59, 0
2, 179904, Note_on_c, 0, 71, 95
2, 180032, Note_off_c, 0, 75, 0
2, 180092, Note_off_c, 0, 71, 0
2, 180096, Note_on_c, 0, 66, 95
2, 180284, Note_off_c, 0, 66, 0
2, 180288, Note_on_c, 0, 71, 95
2, 180476, Note_off_c, 0, 71, 0
2, 180480, Note_on_c, 0, 59, 95
2, 180668, Note_off_c, 0, 59, 0
2, 180672, Note_on_c, 0, 69, 95
2, 180860, Note_off_c, 0, 69, 0
2, 180864, Note_on_c, 0, 66, 95
2, 181052, Note_off_c, 0, 66, 0
2, 181056, Note_on_c, 0, 69, 95
2, 181216, Note_off_c, 0, 69, 0
2, 181248, Note_on_c, 0, 79, 100
2, 181248, Note_on_c, 0, 60, 95
2, 181436, Note_off_c, 0, 60, 0
2, 181440, Note_on_c, 0, 67, 95
2, 181628, Note_off_c, 0, 67, 0
2, 181632, Note_on_c, 0, 64, 95
2, 181820, Note_off_c, 0, 64, 0
2, 181824, Note_on_c, 0, 67, 95
2, 182012, Note_off_c, 0, 67, 0
2, 182016, Note_on_c, 0, 60, 95
2, 182204, Note_off_c, 0, 60, 0
2, 182208, Note_on_c, 0, 67, 95
2, 182396, Note_off_c, 0, 79, 0
2, 182396, Note_off_c, 0, 67, 0
2, 182400, Note_on_c, 0, 81, 95
2, 182400, Note_on_c, 0, 64, 95
2, 182588, Note_off_c, 0, 81, 0
2, 182588, Note_off_c, 0, 64, 0
2, 182592, Note_on_c, 0, 67, 95
2, 182592, Note_on_c, 0, 79, 95
2, 182752, Note_off_c, 0, 67, 0
2, 182752, Note_off_c, 0, 79, 0
2, 182784, Note_on_c, 0, 78, 95
2, 182784, Note_on_c, 0, 57, 95
2, 182972, Note_off_c, 0, 57, 0
2, 182976, Note_on_c, 0, 66, 95
2, 183164, Note_off_c, 0, 78, 0
2, 183164, Note_off_c, 0, 66, 0
2, 183168, Note_on_c, 0, 84, 100
2, 183168, Note_on_c, 0, 64, 95
2, 183328, Note_off_c, 0, 84, 0
2, 183356, Note_off_c, 0, 64, 0
2, 183360, Note_on_c, 0, 66, 95
2, 183548, Note_off_c, 0, 66, 0
2, 183552, Note_on_c, 0, 84, 100
2, 183552, Note_on_c, 0, 56, 95
2, 183712, Note_off_c, 0, 84, 0
2, 183740, Note_off_c, 0, 56, 0
2, 183744, Note_on_c, 0, 66, 95
2, 183932, Note_off_c, 0, 66, 0
2, 183936, Note_on_c, 0, 84, 100
2, 183936, Note_on_c, 0, 64, 95
2, 184096, Note_off_c, 0, 84, 0
2, 184124, Note_off_c, 0, 64, 0
2, 184128, Note_on_c, 0, 66, 95
2, 184288, Note_off_c, 0, 66, 0
2, 184320, Note_on_c, 0, 84, 100
2, 184320, Note_on_c, 0, 57, 95
2, 184508, Note_off_c, 0, 57, 0
2, 184512, Note_on_c, 0, 66, 95
2, 184700, Note_off_c, 0, 66, 0
2, 184704, Note_on_c, 0, 63, 95
2, 184892, Note_off_c, 0, 63, 0
2, 184896, Note_on_c, 0, 66, 95
2, 185084, Note_off_c, 0, 66, 0
2, 185088, Note_on_c, 0, 57, 95
2, 185276, Note_off_c, 0, 57, 0
2, 185280, Note_on_c, 0, 66, 95
2, 185468, Note_off_c, 0, 84, 0
2, 185468, Note_off_c, 0, 66, 0
2, 185472, Note_on_c, 0, 86, 95
2, 185472, Note_on_c, 0, 63, 95
2, 185564, Note_off_c, 0, 86, 0
2, 185568, Note_on_c, 0, 84, 95
2, 185660, Note_off_c, 0, 63, 0
2, 185660, Note_off_c, 0, 84, 0
2, 185664, Note_on_c, 0, 83, 95
2, 185664, Note_on_c, 0, 66, 95
2, 185756, Note_off_c, 0, 83, 0
2, 185760, Note_on_c, 0, 84, 95
2, 185824, Note_off_c, 0, 66, 0
2, 185852, Note_off_c, 0, 84, 0
2, 185856, Note_on_c, 0, 88, 100
2, 185856, Note_on_c, 0, 55, 95
2, 186044, Note_off_c, 0, 55, 0
2, 186048, Note_on_c, 0, 64, 95
2, 186236, Note_off_c, 0, 64, 0
2, 186240, Note_on_c, 0, 60, 95
2, 186428, Note_off_c, 0, 60, 0
2, 186432, Note_on_c, 0, 64, 95
2, 186480, Note_off_c, 0, 88, 0
2, 186620, Note_off_c, 0, 64, 0
2, 186624, Note_on_c, 0, 84, 95
2, 186624, Note_on_c, 0, 55, 95
2, 186812, Note_off_c, 0, 84, 0
2, 186812, Note_off_c, 0, 55, 0
2, 186816, Note_on_c, 0, 79, 95
2, 186816, Note_on_c, 0, 64, 95
2, 187004, Note_off_c, 0, 79, 0
2, 187004, Note_off_c, 0, 64, 0
2, 187008, Note_on_c, 0, 76, 95
2, 187008, Note_on_c, 0, 60, 95
2, 187196, Note_off_c, 0, 76, 0
2, 187196, Note_off_c, 0, 60, 0
2, 187200, Note_on_c, 0, 72, 95
2, 187200, Note_on_c, 0, 64, 95
2, 187360, Note_off_c, 0, 64, 0
2, 187388, Note_off_c, 0, 72, 0
2, 187392, Note_on_c, 0, 71, 95
2, 187392, Note_on_c, 0, 55, 95
2, 187580, Note_off_c, 0, 55, 0
2, 187584, Note_on_c, 0, 65, 95
2, 187712, Note_off_c, 0, 71, 0
2, 187772, Note_off_c, 0, 65, 0
2, 187776, Note_on_c, 0, 89, 100
2, 187776, Note_on_c, 0, 62, 95
2, 187964, Note_off_c, 0, 62, 0
2, 187968, Note_on_c, 0, 65, 95
2, 188156, Note_off_c, 0, 65, 0
2, 188160, Note_on_c, 0, 55, 95
2, 188348, Note_off_c, 0, 55, 0
2, 188352, Note_on_c, 0, 65, 95
2, 188540, Note_off_c, 0, 89, 0
2, 188540, Note_off_c, 0, 65, 0
2, 188544, Note_on_c, 0, 71, 95
2, 188544, Note_on_c, 0, 62, 95
2, 188732, Note_off_c, 0, 62, 0
2, 188736, Note_on_c, 0, 65, 95
2, 188864, Note_off_c, 0, 71, 0
2, 188896, Note_off_c, 0, 65, 0
2, 188928, Note_on_c, 0, 55, 95
2, 189116, Note_off_c, 0, 55, 0
2, 189120, Note_on_c, 0, 72, 95
2, 189120, Note_on_c, 0, 64, 95
2, 189308, Note_off_c, 0, 72, 0
2, 189308, Note_off_c, 0, 64, 0
2, 189312, Note_on_c, 0, 88, 95
2, 189312, Note_on_c, 0, 60, 95
2, 189500, Note_off_c, 0, 88, 0
2, 189500, Note_off_c, 0, 60, 0
2, 189504, Note_on_c, 0, 83, 95
2, 189504, Note_on_c, 0, 64, 95
2, 189692, Note_off_c, 0, 83, 0
2, 189692, Note_off_c, 0, 64, 0
2, 189696, Note_on_c, 0, 84, 95
2, 189696, Note_on_c, 0, 55, 95
2, 189884, Note_off_c, 0, 84, 0
2, 189884, Note_off_c, 0, 55, 0
2, 189888, Note_on_c, 0, 79, 95
2, 189888, Note_on_c, 0, 64, 95
2, 190076, Note_off_c, 0, 79, 0
2, 190076, Note_off_c, 0, 64, 0
2, 190080, Note_on_c, 0, 76, 95
2, 190080, Note_on_c, 0, 60, 95
2, 190268, Note_off_c, 0, 76, 0
2, 190268, Note_off_c, 0, 60, 0
2, 190272, Note_on_c, 0, 72, 95
2, 190272, Note_on_c, 0, 64, 95
2, 190432, Note_off_c, 0, 64, 0
2, 190460, Note_off_c, 0, 72, 0
2, 190464, Note_on_c, 0, 71, 95
2, 190464, Note_on_c, 0, 55, 95
2, 190652, Note_off_c, 0, 55, 0
2, 190656, Note_on_c, 0, 65, 95
2, 190784, Note_off_c, 0, 71, 0
2, 190844, Note_off_c, 0, 65, 0
2, 190848, Note_on_c, 0, 89, 100
2, 190848, Note_on_c, 0, 62, 95
2, 191036, Note_off_c, 0, 62, 0
2, 191040, Note_on_c, 0, 65, 95
2, 191228, Note_off_c, 0, 65, 0
2, 191232, Note_on_c, 0, 55, 95
2, 191420, Note_off_c, 0, 55, 0
2, 191424, Note_on_c, 0, 65, 95
2, 191612, Note_off_c, 0, 89, 0
2, 191612, Note_off_c, 0, 65, 0
2, 191616, Note_on_c, 0, 71, 95
2, 191616, Note_on_c, 0, 62, 95
2, 191804, Note_off_c, 0, 62, 0
2, 191808, Note_on_c, 0, 65, 95
2, 191936, Note_off_c, 0, 71, 0
2, 191968, Note_off_c, 0, 65, 0
2, 192000, Note_on_c, 0, 64, 95
2, 192000, Note_on_c, 0, 60, 95
2, 192192, Note_on_c, 0, 88, 95
2, 192352, Note_off_c, 0, 88, 0
2, 192384, Note_on_c, 0, 76, 105
2, 192572, Note_off_c, 0, 76, 0
2, 192576, Note_on_c, 0, 88, 95
2, 192736, Note_off_c, 0, 88, 0
2, 192768, Note_on_c, 0, 77, 105
2, 192956, Note_off_c, 0, 77, 0
2, 192960, Note_on_c, 0, 88, 95
2, 193120, Note_off_c, 0, 88, 0
2, 193152, Note_on_c, 0, 78, 105
2, 193340, Note_off_c, 0, 78, 0
2, 193344, Note_on_c, 0, 88, 95
2, 193504, Note_off_c, 0, 88, 0
2, 193536, Note_on_c, 0, 79, 105
2, 193724, Note_off_c, 0, 79, 0
2, 193728, Note_on_c, 0, 88, 95
2, 193888, Note_off_c, 0, 88, 0
2, 193920, Note_on_c, 0, 80, 105
2, 194108, Note_off_c, 0, 80, 0
2, 194112, Note_on_c, 0, 88, 95
2, 194272, Note_off_c, 0, 88, 0
2, 194304, Note_on_c, 0, 81, 105
2, 194492, Note_off_c, 0, 81, 0
2, 194496, Note_on_c, 0, 88, 95
2, 194656, Note_off_c, 0, 88, 0
2, 194688, Note_on_c, 0, 82, 105
2, 194876, Note_off_c, 0, 82, 0
2, 194880, Note_on_c, 0, 88, 95
2, 194928, Note_off_c, 0, 64, 0
2, 194928, Note_off_c, 0, 60, 0
2, 195040, Note_off_c, 0, 88, 0
2, 195072, Note_on_c, 0, 83, 105
2, 195072, Note_on_c, 0, 64, 95
2, 195072, Note_on_c, 0, 59, 95
2, 195232, Note_off_c, 0, 83, 0
2, 195264, Note_on_c, 0, 88, 95
2, 195452, Note_off_c, 0, 88, 0
2, 195456, Note_on_c, 0, 80, 95
2, 195644, Note_off_c, 0, 80, 0
2, 195648, Note_on_c, 0, 83, 95
2, 195696, Note_off_c, 0, 64, 64
2, 195696, Note_off_c, 0, 59, 64
2, 195836, Note_off_c, 0, 83, 0
2, 195840, Note_on_c, 0, 76, 95
2, 196028, Note_off_c, 0, 76, 0
2, 196032, Note_on_c, 0, 80, 95
2, 196220, Note_off_c, 0, 80, 0
2, 196224, Note_on_c, 0, 71, 95
2, 196412, Note_off_c, 0, 71, 0
2, 196416, Note_on_c, 0, 76, 95
2, 196604, Note_off_c, 0, 76, 0
2, 196608, Note_on_c, 0, 68, 95
2, 196796, Note_off_c, 0, 68, 0
2, 196800, Note_on_c, 0, 71, 95
2, 196988, Note_off_c, 0, 71, 0
2, 196992, Note_on_c, 0, 64, 95
2, 197180, Note_off_c, 0, 64, 0
2, 197184, Note_on_c, 0, 68, 95
2, 197372, Note_off_c, 0, 68, 0
2, 197376, Note_on_c, 0, 66, 95
2, 197564, Note_off_c, 0, 66, 0
2, 197568, Note_on_c, 0, 69, 95
2, 197756, Note_off_c, 0, 69, 0
2, 197760, Note_on_c, 0, 63, 95
2, 197948, Note_off_c, 0, 63, 0
2, 197952, Note_on_c, 0, 66, 95
2, 198140, Note_off_c, 0, 66, 0
2, 198144, Note_on_c, 0, 64, 95
2, 198768, Note_off_c, 0, 64, 0
2, 199488, Note_on_c, 0, 80, 95
2, 199676, Note_off_c, 0, 80, 0
2, 199680, Note_on_c, 0, 78, 95
2, 199680, Note_on_c, 0, 71, 95
2, 200300, Note_off_c, 0, 71, 0
2, 200304, Note_off_c, 0, 78, 0
2, 201024, Note_on_c, 0, 83, 95
2, 201212, Note_off_c, 0, 83, 0
2, 201216, Note_on_c, 0, 88, 95
2, 201216, Note_on_c, 0, 80, 95
2, 201216, Note_on_c, 0, 76, 95
2, 201536, Note_off_c, 0, 80, 0
2, 201536, Note_off_c, 0, 76, 0
2, 201840, Note_off_c, 0, 88, 0
2, 202560, Note_on_c, 0, 76, 95
2, 202748, Note_off_c, 0, 76, 0
2, 202752, Note_on_c, 0, 75, 95
2, 202752, Note_on_c, 0, 68, 95
2, 203376, Note_off_c, 0, 75, 0
2, 203376, Note_off_c, 0, 68, 0
2, 204096, Note_on_c, 0, 80, 95
2, 204284, Note_off_c, 0, 80, 0
2, 204288, Note_on_c, 0, 85, 95
2, 204288, Note_on_c, 0, 76, 95
2, 204288, Note_on_c, 0, 73, 95
2, 204608, Note_off_c, 0, 76, 0
2, 204608, Note_off_c, 0, 73, 0
2, 204912, Note_off_c, 0, 85, 0
2, 205632, Note_on_c, 0, 73, 95
2, 205820, Note_off_c, 0, 73, 0
2, 205824, Note_on_c, 0, 71, 95
2, 205824, Note_on_c, 0, 64, 95
2, 206448, Note_off_c, 0, 71, 0
2, 206448, Note_off_c, 0, 64, 0
2, 207168, Note_on_c, 0, 71, 95
2, 207356, Note_off_c, 0, 71, 0
2, 207360, Note_on_c, 0, 70, 95
2, 207548, Note_off_c, 0, 70, 0
2, 207552, Note_on_c, 0, 76, 95
2, 207740, Note_off_c, 0, 76, 0
2, 207744, Note_on_c, 0, 73, 95
2, 207932, Note_off_c, 0, 73, 0
2, 207936, Note_on_c, 0, 71, 95
2, 208124, Note_off_c, 0, 71, 0
2, 208128, Note_on_c, 0, 70, 95
2, 208316, Note_off_c, 0, 70, 0
2, 208320, Note_on_c, 0, 76, 95
2, 208508, Note_off_c, 0, 76, 0
2, 208512, Note_on_c, 0, 73, 95
2, 208700, Note_off_c, 0, 73, 0
2, 208704, Note_on_c, 0, 71, 95
2, 208892, Note_off_c, 0, 71, 0
2, 208896, Note_on_c, 0, 70, 95
2, 209084, Note_off_c, 0, 70, 0
2, 209088, Note_on_c, 0, 76, 95
2, 209276, Note_off_c, 0, 76, 0
2, 209280, Note_on_c, 0, 73, 95
2, 209468, Note_off_c, 0, 73, 0
2, 209472, Note_on_c, 0, 71, 95
2, 209660, Note_off_c, 0, 71, 0
2, 209664, Note_on_c, 0, 70, 95
2, 209852, Note_off_c, 0, 70, 0
2, 209856, Note_on_c, 0, 79, 95
2, 210044, Note_off_c, 0, 79, 0
2, 210048, Note_on_c, 0, 78, 95
2, 210236, Note_off_c, 0, 78, 0
2, 210240, Note_on_c, 0, 76, 95
2, 210400, Note_off_c, 0, 76, 0
2, 210432, Note_on_c, 0, 75, 95
2, 210432, Note_on_c, 0, 59, 95
2, 210432, Note_on_c, 0, 69, 95
2, 210432, Note_on_c, 0, 66, 95
2, 210620, Note_off_c, 0, 75, 0
2, 210624, Note_on_c, 0, 81, 95
2, 210812, Note_off_c, 0, 59, 0
2, 210812, Note_off_c, 0, 81, 0
2, 210816, Note_on_c, 0, 78, 95
2, 210816, Note_on_c, 0, 60, 95
2, 211004, Note_off_c, 0, 78, 0
2, 211008, Note_on_c, 0, 76, 95
2, 211196, Note_off_c, 0, 60, 0
2, 211196, Note_off_c, 0, 76, 0
2, 211200, Note_on_c, 0, 75, 95
2, 211200, Note_on_c, 0, 59, 95
2, 211388, Note_off_c, 0, 75, 0
2, 211392, Note_on_c, 0, 81, 95
2, 211580, Note_off_c, 0, 59, 0
2, 211580, Note_off_c, 0, 81, 0
2, 211584, Note_on_c, 0, 78, 95
2, 211584, Note_on_c, 0, 60, 95
2, 211772, Note_off_c, 0, 78, 0
2, 211776, Note_on_c, 0, 76, 95
2, 211964, Note_off_c, 0, 60, 0
2, 211964, Note_off_c, 0, 76, 0
2, 211968, Note_on_c, 0, 75, 95
2, 211968, Note_on_c, 0, 59, 95
2, 212156, Note_off_c, 0, 75, 0
2, 212160, Note_on_c, 0, 81, 95
2, 212348, Note_off_c, 0, 59, 0
2, 212348, Note_off_c, 0, 81, 0
2, 212352, Note_on_c, 0, 78, 95
2, 212352, Note_on_c, 0, 60, 95
2, 212540, Note_off_c, 0, 78, 0
2, 212544, Note_on_c, 0, 76, 95
2, 212732, Note_off_c, 0, 60, 0
2, 212732, Note_off_c, 0, 76, 0
2, 212736, Note_on_c, 0, 75, 95
2, 212736, Note_on_c, 0, 59, 95
2, 212896, Note_off_c, 0, 69, 64
2, 212896, Note_off_c, 0, 66, 64
2, 212924, Note_off_c, 0, 75, 0
2, 212928, Note_on_c, 0, 84, 95
2, 213056, Note_off_c, 0, 59, 0
2, 213116, Note_off_c, 0, 84, 0
2, 213120, Note_on_c, 0, 83, 95
2, 213308, Note_off_c, 0, 83, 0
2, 213312, Note_on_c, 0, 81, 95
2, 213500, Note_off_c, 0, 81, 0
2, 213504, Note_on_c, 0, 80, 95
2, 213504, Note_on_c, 0, 64, 95
2, 213504, Note_on_c, 0, 71, 95
2, 213504, Note_on_c, 0, 74, 95
2, 213692, Note_off_c, 0, 80, 0
2, 213696, Note_on_c, 0, 86, 95
2, 213884, Note_off_c, 0, 64, 0
2, 213884, Note_off_c, 0, 86, 0
2, 213888, Note_on_c, 0, 83, 95
2, 213888, Note_on_c, 0, 65, 95
2, 214076, Note_off_c, 0, 83, 0
2, 214080, Note_on_c, 0, 81, 95
2, 214208, Note_off_c, 0, 65, 0
2, 214268, Note_off_c, 0, 81, 0
2, 214272, Note_on_c, 0, 80, 95
2, 214272, Note_on_c, 0, 64, 95
2, 214460, Note_off_c, 0, 80, 0
2, 214464, Note_on_c, 0, 86, 95
2, 214652, Note_off_c, 0, 64, 0
2, 214652, Note_off_c, 0, 86, 0
2, 214656, Note_on_c, 0, 83, 95
2, 214656, Note_on_c, 0, 65, 95
2, 214844, Note_off_c, 0, 83, 0
2, 214848, Note_on_c, 0, 81, 95
2, 214976, Note_off_c, 0, 65, 0
2, 215036, Note_off_c, 0, 81, 0
2, 215040, Note_on_c, 0, 80, 95
2, 215040, Note_on_c, 0, 64, 95
2, 215228, Note_off_c, 0, 80, 0
2, 215232, Note_on_c, 0, 86, 95
2, 215420, Note_off_c, 0, 64, 0
2, 215420, Note_off_c, 0, 86, 0
2, 215424, Note_on_c, 0, 83, 95
2, 215424, Note_on_c, 0, 65, 95
2, 215612, Note_off_c, 0, 83, 0
2, 215616, Note_on_c, 0, 81, 95
2, 215804, Note_off_c, 0, 65, 0
2, 215804, Note_off_c, 0, 81, 0
2, 215808, Note_on_c, 0, 80, 95
2, 215808, Note_on_c, 0, 64, 95
2, 215968, Note_off_c, 0, 71, 64
2, 215968, Note_off_c, 0, 74, 64
2, 215996, Note_off_c, 0, 80, 0
2, 216000, Note_on_c, 0, 83, 95
2, 216128, Note_off_c, 0, 64, 0
2, 216188, Note_off_c, 0, 83, 0
2, 216192, Note_on_c, 0, 88, 95
2, 216380, Note_off_c, 0, 88, 0
2, 216384, Note_on_c, 0, 86, 95
2, 216544, Note_off_c, 0, 86, 0
2, 216576, Note_on_c, 0, 85, 95
2, 216576, Note_on_c, 0, 69, 95
2, 216764, Note_off_c, 0, 85, 0
2, 216768, Note_on_c, 0, 88, 95
2, 216956, Note_off_c, 0, 88, 0
2, 216960, Note_on_c, 0, 85, 95
2, 217148, Note_off_c, 0, 69, 0
2, 217148, Note_off_c, 0, 85, 0
2, 217152, Note_on_c, 0, 83, 95
2, 217152, Note_on_c, 0, 68, 95
2, 217312, Note_off_c, 0, 68, 0
2, 217340, Note_off_c, 0, 83, 0
2, 217344, Note_on_c, 0, 81, 95
2, 217344, Note_on_c, 0, 66, 95
2, 217532, Note_off_c, 0, 81, 0
2, 217536, Note_on_c, 0, 85, 95
2, 217696, Note_off_c, 0, 85, 0
2, 217728, Note_on_c, 0, 81, 95
2, 217916, Note_off_c, 0, 66, 0
2, 217916, Note_off_c, 0, 81, 0
2, 217920, Note_on_c, 0, 80, 95
2, 217920, Note_on_c, 0, 64, 95
2, 218108, Note_off_c, 0, 80, 0
2, 218108, Note_off_c, 0, 64, 0
2, 218112, Note_on_c, 0, 78, 95
2, 218112, Note_on_c, 0, 63, 95
2, 218300, Note_off_c, 0, 78, 0
2, 218304, Note_on_c, 0, 81, 95
2, 218492, Note_off_c, 0, 81, 0
2, 218496, Note_on_c, 0, 78, 95
2, 218684, Note_off_c, 0, 63, 0
2, 218684, Note_off_c, 0, 78, 0
2, 218688, Note_on_c, 0, 76, 95
2, 218688, Note_on_c, 0, 61, 95
2, 218848, Note_off_c, 0, 61, 0
2, 218876, Note_off_c, 0, 76, 0
2, 218880, Note_on_c, 0, 75, 95
2, 218880, Note_on_c, 0, 59, 95
2, 219068, Note_off_c, 0, 75, 0
2, 219072, Note_on_c, 0, 78, 95
2, 219260, Note_off_c, 0, 78, 0
2, 219264, Note_on_c, 0, 75, 95
2, 219452, Note_off_c, 0, 59, 0
2, 219452, Note_off_c, 0, 75, 0
2, 219456, Note_on_c, 0, 73, 95
2, 219456, Note_on_c, 0, 57, 95
2, 219616, Note_off_c, 0, 57, 0
2, 219644, Note_off_c, 0, 73, 0
2, 219648, Note_on_c, 0, 71, 95
2, 219836, Note_off_c, 0, 71, 0
2, 219840, Note_on_c, 0, 75, 95
2, 220028, Note_off_c, 0, 75, 0
2, 220032, Note_on_c, 0, 71, 95
2, 220220, Note_off_c, 0, 71, 0
2, 220224, Note_on_c, 0, 69, 95
2, 220412, Note_off_c, 0, 69, 0
2, 220416, Note_on_c, 0, 68, 95
2, 220604, Note_off_c, 0, 68, 0
2, 220608, Note_on_c, 0, 71, 95
2, 220796, Note_off_c, 0, 71, 0
2, 220800, Note_on_c, 0, 68, 95
2, 220988, Note_off_c, 0, 68, 0
2, 220992, Note_on_c, 0, 66, 95
2, 221180, Note_off_c, 0, 66, 0
2, 221184, Note_on_c, 0, 64, 95
2, 221372, Note_off_c, 0, 64, 0
2, 221376, Note_on_c, 0, 68, 95
2, 221564, Note_off_c, 0, 68, 0
2, 221568, Note_on_c, 0, 64, 95
2, 221756, Note_off_c, 0, 64, 0
2, 221760, Note_on_c, 0, 63, 95
2, 221948, Note_off_c, 0, 63, 0
2, 221952, Note_on_c, 0, 61, 95
2, 222140, Note_off_c, 0, 61, 0
2, 222144, Note_on_c, 0, 64, 95
2, 222332, Note_off_c, 0, 64, 0
2, 222336, Note_on_c, 0, 61, 95
2, 222524, Note_off_c, 0, 61, 0
2, 222528, Note_on_c, 0, 59, 95
2, 222688, Note_off_c, 0, 59, 0
2, 222720, Note_on_c, 0, 57, 95
2, 222908, Note_off_c, 0, 57, 0
2, 222912, Note_on_c, 0, 59, 95
2, 223100, Note_off_c, 0, 59, 0
2, 223104, Note_on_c, 0, 61, 95
2, 223292, Note_off_c, 0, 61, 0
2, 223296, Note_on_c, 0, 63, 95
2, 223484, Note_off_c, 0, 63, 0
2, 223488, Note_on_c, 0, 64, 95
2, 223676, Note_off_c, 0, 64, 0
2, 223680, Note_on_c, 0, 66, 95
2, 223868, Note_off_c, 0, 66, 0
2, 223872, Note_on_c, 0, 68, 95
2, 224060, Note_off_c, 0, 68, 0
2, 224064, Note_on_c, 0, 69, 95
2, 224252, Note_off_c, 0, 69, 0
2, 224256, Note_on_c, 0, 71, 95
2, 224444, Note_off_c, 0, 71, 0
2, 224448, Note_on_c, 0, 73, 95
2, 224636, Note_off_c, 0, 73, 0
2, 224640, Note_on_c, 0, 75, 95
2, 224828, Note_off_c, 0, 75, 0
2, 224832, Note_on_c, 0, 76, 95
2, 225020, Note_off_c, 0, 76, 0
2, 225024, Note_on_c, 0, 78, 95
2, 225212, Note_off_c, 0, 78, 0
2, 225216, Note_on_c, 0, 80, 95
2, 225404, Note_off_c, 0, 80, 0
2, 225408, Note_on_c, 0, 81, 95
2, 225596, Note_off_c, 0, 81, 0
2, 225600, Note_on_c, 0, 83, 95
2, 225788, Note_off_c, 0, 83, 0
2, 225792, Note_on_c, 0, 85, 95
2, 225980, Note_off_c, 0, 85, 0
2, 225984, Note_on_c, 0, 87, 95
2, 226172, Note_off_c, 0, 87, 0
2, 226176, Note_on_c, 0, 88, 95
2, 226364, Note_off_c, 0, 88, 0
2, 226368, Note_on_c, 0, 87, 95
2, 226556, Note_off_c, 0, 87, 0
2, 226560, Note_on_c, 0, 85, 95
2, 226748, Note_off_c, 0, 85, 0
2, 226752, Note_on_c, 0, 83, 95
2, 226940, Note_off_c, 0, 83, 0
2, 226944, Note_on_c, 0, 81, 95
2, 227132, Note_off_c, 0, 81, 0
2, 227136, Note_on_c, 0, 80, 95
2, 227324, Note_off_c, 0, 80, 0
2, 227328, Note_on_c, 0, 78, 95
2, 227516, Note_off_c, 0, 78, 0
2, 227520, Note_on_c, 0, 80, 95
2, 227708, Note_off_c, 0, 80, 0
2, 227712, Note_on_c, 0, 81, 95
2, 227900, Note_off_c, 0, 81, 0
2, 227904, Note_on_c, 0, 80, 95
2, 228092, Note_off_c, 0, 80, 0
2, 228096, Note_on_c, 0, 78, 95
2, 228284, Note_off_c, 0, 78, 0
2, 228288, Note_on_c, 0, 76, 95
2, 228476, Note_off_c, 0, 76, 0
2, 228480, Note_on_c, 0, 75, 95
2, 228668, Note_off_c, 0, 75, 0
2, 228672, Note_on_c, 0, 73, 95
2, 228832, Note_off_c, 0, 73, 0
2, 228864, Note_on_c, 0, 71, 95
2, 229052, Note_off_c, 0, 71, 0
2, 229056, Note_on_c, 0, 76, 95
2, 229244, Note_off_c, 0, 76, 0
2, 229248, Note_on_c, 0, 80, 95
2, 229436, Note_off_c, 0, 80, 0
2, 229440, Note_on_c, 0, 83, 95
2, 229600, Note_off_c, 0, 83, 0
2, 229632, Note_on_c, 0, 76, 95
2, 229820, Note_off_c, 0, 76, 0
2, 229824, Note_on_c, 0, 80, 95
2, 230012, Note_off_c, 0, 80, 0
2, 230016, Note_on_c, 0, 83, 95
2, 230204, Note_off_c, 0, 83, 0
2, 230208, Note_on_c, 0, 88, 95
2, 230368, Note_off_c, 0, 88, 0
2, 230400, Note_on_c, 0, 78, 100
2, 230480, Note_off_c, 0, 78, 0
2, 230496, Note_on_c, 0, 80, 100
2, 230576, Note_off_c, 0, 80, 0
2, 230592, Note_on_c, 0, 78, 100
2, 230672, Note_off_c, 0, 78, 0
2, 230688, Note_on_c, 0, 80, 100
2, 230768, Note_off_c, 0, 80, 0
2, 230784, Note_on_c, 0, 78, 100
2, 230864, Note_off_c, 0, 78, 0
2, 230880, Note_on_c, 0, 80, 100
2, 230960, Note_off_c, 0, 80, 0
2, 230976, Note_on_c, 0, 78, 100
2, 231056, Note_off_c, 0, 78, 0
2, 231072, Note_on_c, 0, 80, 100
2, 231152, Note_off_c, 0, 80, 0
2, 231168, Note_on_c, 0, 78, 100
2, 231248, Note_off_c, 0, 78, 0
2, 231264, Note_on_c, 0, 80, 100
2, 231344, Note_off_c, 0, 80, 0
2, 231360, Note_on_c, 0, 78, 100
2, 231440, Note_off_c, 0, 78, 0
2, 231456, Note_on_c, 0, 80, 100
2, 231536, Note_off_c, 0, 80, 0
2, 231552, Note_on_c, 0, 78, 100
2, 231632, Note_off_c, 0, 78, 0
2, 231648, Note_on_c, 0, 80, 100
2, 231728, Note_off_c, 0, 80, 0
2, 231744, Note_on_c, 0, 76, 100
2, 231824, Note_off_c, 0, 76, 0
2, 231840, Note_on_c, 0, 78, 100
2, 231920, Note_off_c, 0, 78, 0
2, 232128, Note_on_c, 0, 64, 100
2, 232316, Note_off_c, 0, 64, 0
2, 232320, Note_on_c, 0, 68, 95
2, 232508, Note_off_c, 0, 68, 0
2, 232512, Note_on_c, 0, 71, 95
2, 232700, Note_off_c, 0, 71, 0
2, 232704, Note_on_c, 0, 76, 95
2, 232892, Note_off_c, 0, 76, 0
2, 232896, Note_on_c, 0, 80, 95
2, 233084, Note_off_c, 0, 80, 0
2, 233088, Note_on_c, 0, 83, 95
2, 233276, Note_off_c, 0, 83, 0
2, 233280, Note_on_c, 0, 88, 95
2, 233440, Note_off_c, 0, 88, 0
2, 233664, Note_on_c, 0, 59, 95
2, 233852, Note_off_c, 0, 59, 0
2, 233856, Note_on_c, 0, 63, 95
2, 234044, Note_off_c, 0, 63, 0
2, 234048, Note_on_c, 0, 66, 95
2, 234236, Note_off_c, 0, 66, 0
2, 234240, Note_on_c, 0, 71, 95
2, 234428, Note_off_c, 0, 71, 0
2, 234432, Note_on_c, 0, 75, 95
2, 234620, Note_off_c, 0, 75, 0
2, 234624, Note_on_c, 0, 78, 95
2, 234812, Note_off_c, 0, 78, 0
2, 234816, Note_on_c, 0, 83, 95
2, 234976, Note_off_c, 0, 83, 0
2, 235200, Note_on_c, 0, 61, 95
2, 235388, Note_off_c, 0, 61, 0
2, 235392, Note_on_c, 0, 64, 95
2, 235580, Note_off_c, 0, 64, 0
2, 235584, Note_on_c, 0, 68, 95
2, 235772, Note_off_c, 0, 68, 0
2, 235776, Note_on_c, 0, 73, 95
2, 235964, Note_off_c, 0, 73, 0
2, 235968, Note_on_c, 0, 76, 95
2, 236156, Note_off_c, 0, 76, 0
2, 236160, Note_on_c, 0, 80, 95
2, 236348, Note_off_c, 0, 80, 0
2, 236352, Note_on_c, 0, 85, 95
2, 236512, Note_off_c, 0, 85, 0
2, 236736, Note_on_c, 0, 56, 95
2, 236924, Note_off_c, 0, 56, 0
2, 236928, Note_on_c, 0, 59, 95
2, 237116, Note_off_c, 0, 59, 0
2, 237120, Note_on_c, 0, 63, 95
2, 237308, Note_off_c, 0, 63, 0
2, 237312, Note_on_c, 0, 68, 95
2, 237500, Note_off_c, 0, 68, 0
2, 237504, Note_on_c, 0, 71, 95
2, 237692, Note_off_c, 0, 71, 0
2, 237696, Note_on_c, 0, 75, 95
2, 237884, Note_off_c, 0, 75, 0
2, 237888, Note_on_c, 0, 80, 95
2, 238048, Note_off_c, 0, 80, 0
2, 238272, Note_on_c, 0, 57, 95
2, 238460, Note_off_c, 0, 57, 0
2, 238464, Note_on_c, 0, 61, 95
2, 238652, Note_off_c, 0, 61, 0
2, 238656, Note_on_c, 0, 64, 95
2, 238844, Note_off_c, 0, 64, 0
2, 238848, Note_on_c, 0, 69, 95
2, 239036, Note_off_c, 0, 69, 0
2, 239040, Note_on_c, 0, 73, 95
2, 239228, Note_off_c, 0, 73, 0
2, 239232, Note_on_c, 0, 76, 95
2, 239420, Note_off_c, 0, 76, 0
2, 239424, Note_on_c, 0, 81, 95
2, 239584, Note_off_c, 0, 81, 0
2, 239808, Note_on_c, 0, 52, 95
2, 239996, Note_off_c, 0, 52, 0
2, 240000, Note_on_c, 0, 56, 95
2, 240188, Note_off_c, 0, 56, 0
2, 240192, Note_on_c, 0, 59, 95
2, 240380, Note_off_c, 0, 59, 0
2, 240384, Note_on_c, 0, 64, 95
2, 240572, Note_off_c, 0, 64, 0
2, 240576, Note_on_c, 0, 68, 95
2, 240764, Note_off_c, 0, 68, 0
2, 240768, Note_on_c, 0, 71, 95
2, 240956, Note_off_c, 0, 71, 0
2, 240960, Note_on_c, 0, 76, 95
2, 241148, Note_off_c, 0, 76, 0
2, 241152, Note_on_c, 0, 70, 95
2, 241532, Note_off_c, 0, 70, 0
2, 241536, Note_on_c, 0, 73, 95
2, 241616, Note_off_c, 0, 73, 0
2, 241632, Note_on_c, 0, 71, 95
2, 241912, Note_off_c, 0, 71, 0
2, 241920, Note_on_c, 0, 70, 95
2, 242240, Note_off_c, 0, 70, 0
2, 242304, Note_on_c, 0, 73, 95
2, 242384, Note_off_c, 0, 73, 0
2, 242400, Note_on_c, 0, 71, 95
2, 242680, Note_off_c, 0, 71, 0
2, 242688, Note_on_c, 0, 70, 95
2, 243068, Note_off_c, 0, 70, 0
2, 243072, Note_on_c, 0, 73, 95
2, 243152, Note_off_c, 0, 73, 0
2, 243168, Note_on_c, 0, 71, 95
2, 243448, Note_off_c, 0, 71, 0
2, 243456, Note_on_c, 0, 70, 95
2, 243776, Note_off_c, 0, 70, 0
2, 243840, Note_on_c, 0, 76, 95
2, 244220, Note_off_c, 0, 76, 0
2, 244224, Note_on_c, 0, 75, 95
2, 244224, Note_on_c, 0, 59, 95
2, 244412, Note_off_c, 0, 59, 0
2, 244416, Note_on_c, 0, 69, 95
2, 244604, Note_off_c, 0, 75, 0
2, 244604, Note_off_c, 0, 69, 0
2, 244608, Note_on_c, 0, 60, 95
2, 244608, Note_on_c, 0, 78, 95
2, 244688, Note_off_c, 0, 78, 0
2, 244704, Note_on_c, 0, 76, 95
2, 244796, Note_off_c, 0, 60, 0
2, 244800, Note_on_c, 0, 69, 95
2, 244984, Note_off_c, 0, 76, 0
2, 244988, Note_off_c, 0, 69, 0
2, 244992, Note_on_c, 0, 75, 95
2, 244992, Note_on_c, 0, 59, 95
2, 245180, Note_off_c, 0, 59, 0
2, 245184, Note_on_c, 0, 69, 95
2, 245360, Note_on_c, 0, 60, 95
2, 245372, Note_off_c, 0, 75, 0
2, 245372, Note_off_c, 0, 69, 0
2, 245376, Note_on_c, 0, 78, 95
2, 245456, Note_off_c, 0, 78, 0
2, 245472, Note_on_c, 0, 76, 95
2, 245548, Note_off_c, 0, 60, 0
2, 245568, Note_on_c, 0, 69, 95
2, 245752, Note_off_c, 0, 76, 0
2, 245756, Note_off_c, 0, 69, 0
2, 245760, Note_on_c, 0, 75, 95
2, 245760, Note_on_c, 0, 59, 95
2, 245948, Note_off_c, 0, 59, 0
2, 245952, Note_on_c, 0, 69, 95
2, 246140, Note_off_c, 0, 75, 0
2, 246140, Note_off_c, 0, 69, 0
2, 246144, Note_on_c, 0, 60, 95
2, 246144, Note_on_c, 0, 78, 95
2, 246224, Note_off_c, 0, 78, 0
2, 246240, Note_on_c, 0, 76, 95
2, 246332, Note_off_c, 0, 60, 0
2, 246336, Note_on_c, 0, 69, 95
2, 246520, Note_off_c, 0, 76, 0
2, 246524, Note_off_c, 0, 69, 0
2, 246528, Note_on_c, 0, 75, 95
2, 246528, Note_on_c, 0, 59, 95
2, 246848, Note_off_c, 0, 75, 0
2, 246848, Note_off_c, 0, 59, 0
2, 246912, Note_on_c, 0, 81, 95
2, 247292, Note_off_c, 0, 81, 0
2, 247296, Note_on_c, 0, 80, 95
2, 247296, Note_on_c, 0, 64, 95
2, 247484, Note_off_c, 0, 64, 0
2, 247488, Note_on_c, 0, 74, 95
2, 247676, Note_off_c, 0, 80, 0
2, 247676, Note_off_c, 0, 74, 0
2, 247680, Note_on_c, 0, 83, 95
2, 247680, Note_on_c, 0, 65, 95
2, 247760, Note_off_c, 0, 83, 0
2, 247776, Note_on_c, 0, 81, 95
2, 247868, Note_off_c, 0, 65, 0
2, 247872, Note_on_c, 0, 74, 95
2, 248056, Note_off_c, 0, 81, 0
2, 248060, Note_off_c, 0, 74, 0
2, 248064, Note_on_c, 0, 80, 95
2, 248064, Note_on_c, 0, 64, 95
2, 248252, Note_off_c, 0, 64, 0
2, 248256, Note_on_c, 0, 74, 95
2, 248444, Note_off_c, 0, 80, 0
2, 248444, Note_off_c, 0, 74, 0
2, 248448, Note_on_c, 0, 65, 95
2, 248448, Note_on_c, 0, 83, 95
2, 248528, Note_off_c, 0, 83, 0
2, 248544, Note_on_c, 0, 81, 95
2, 248636, Note_off_c, 0, 65, 0
2, 248640, Note_on_c, 0, 74, 95
2, 248824, Note_off_c, 0, 81, 0
2, 248828, Note_off_c, 0, 74, 0
2, 248832, Note_on_c, 0, 80, 95
2, 248832, Note_on_c, 0, 64, 95
2, 249020, Note_off_c, 0, 64, 0
2, 249024, Note_on_c, 0, 74, 95
2, 249212, Note_off_c, 0, 80, 0
2, 249212, Note_off_c, 0, 74, 0
2, 249216, Note_on_c, 0, 83, 95
2, 249216, Note_on_c, 0, 65, 95
2, 249296, Note_off_c, 0, 83, 0
2, 249312, Note_on_c, 0, 81, 95
2, 249404, Note_off_c, 0, 65, 0
2, 249408, Note_on_c, 0, 74, 95
2, 249592, Note_off_c, 0, 81, 0
2, 249596, Note_off_c, 0, 74, 0
2, 249600, Note_on_c, 0, 80, 95
2, 249600, Note_on_c, 0, 64, 95
2, 249920, Note_off_c, 0, 80, 0
2, 249920, Note_off_c, 0, 64, 0
2, 249984, Note_on_c, 0, 86, 95
2, 250364, Note_off_c, 0, 86, 0
2, 250368, Note_on_c, 0, 85, 95
2, 250748, Note_off_c, 0, 85, 0
2, 250752, Note_on_c, 0, 88, 95
2, 251072, Note_off_c, 0, 88, 0
2, 251136, Note_on_c, 0, 81, 95
2, 251516, Note_off_c, 0, 81, 0
2, 251520, Note_on_c, 0, 85, 95
2, 251840, Note_off_c, 0, 85, 0
2, 251904, Note_on_c, 0, 78, 95
2, 252284, Note_off_c, 0, 78, 0
2, 252288, Note_on_c, 0, 81, 95
2, 252608, Note_off_c, 0, 81, 0
2, 252672, Note_on_c, 0, 75, 95
2, 253052, Note_off_c, 0, 75, 0
2, 253056, Note_on_c, 0, 78, 95
2, 253376, Note_off_c, 0, 78, 0
2, 253440, Note_on_c, 0, 71, 95
2, 253820, Note_off_c, 0, 71, 0
2, 253824, Note_on_c, 0, 75, 95
2, 254144, Note_off_c, 0, 75, 0
2, 254208, Note_on_c, 0, 68, 95
2, 254588, Note_off_c, 0, 68, 0
2, 254592, Note_on_c, 0, 71, 95
2, 254912, Note_off_c, 0, 71, 0
2, 254976, Note_on_c, 0, 64, 95
2, 255356, Note_off_c, 0, 64, 0
2, 255360, Note_on_c, 0, 68, 95
2, 255680, Note_off_c, 0, 68, 0
2, 255744, Note_on_c, 0, 61, 95
2, 256124, Note_off_c, 0, 61, 0
2, 256128, Note_on_c, 0, 64, 95
2, 256448, Note_off_c, 0, 64, 0
2, 256704, Note_on_c, 0, 57, 95
2, 256892, Note_off_c, 0, 57, 0
2, 256896, Note_on_c, 0, 63, 95
2, 257084, Note_off_c, 0, 63, 0
2, 257088, Note_on_c, 0, 66, 95
2, 257276, Note_off_c, 0, 66, 0
2, 257280, Note_on_c, 0, 69, 95
2, 257468, Note_off_c, 0, 69, 0
2, 257472, Note_on_c, 0, 75, 95
2, 257660, Note_off_c, 0, 75, 0
2, 257664, Note_on_c, 0, 78, 95
2, 257852, Note_off_c, 0, 78, 0
2, 257856, Note_on_c, 0, 81, 95
2, 258016, Note_off_c, 0, 81, 0
2, 258240, Note_on_c, 0, 59, 95
2, 258428, Note_off_c, 0, 59, 0
2, 258432, Note_on_c, 0, 65, 95
2, 258620, Note_off_c, 0, 65, 0
2, 258624, Note_on_c, 0, 68, 95
2, 258812, Note_off_c, 0, 68, 0
2, 258816, Note_on_c, 0, 71, 95
2, 259004, Note_off_c, 0, 71, 0
2, 259008, Note_on_c, 0, 77, 95
2, 259196, Note_off_c, 0, 77, 0
2, 259200, Note_on_c, 0, 80, 95
2, 259388, Note_off_c, 0, 80, 0
2, 259392, Note_on_c, 0, 83, 95
2, 259552, Note_off_c, 0, 83, 0
2, 259776, Note_on_c, 0, 61, 95
2, 259964, Note_off_c, 0, 61, 0
2, 259968, Note_on_c, 0, 66, 95
2, 260156, Note_off_c, 0, 66, 0
2, 260160, Note_on_c, 0, 69, 95
2, 260348, Note_off_c, 0, 69, 0
2, 260352, Note_on_c, 0, 73, 95
2, 260540, Note_off_c, 0, 73, 0
2, 260544, Note_on_c, 0, 78, 95
2, 260732, Note_off_c, 0, 78, 0
2, 260736, Note_on_c, 0, 81, 95
2, 260924, Note_off_c, 0, 81, 0
2, 260928, Note_on_c, 0, 85, 95
2, 261088, Note_off_c, 0, 85, 0
2, 261312, Note_on_c, 0, 64, 95
2, 261500, Note_off_c, 0, 64, 0
2, 261504, Note_on_c, 0, 67, 95
2, 261692, Note_off_c, 0, 67, 0
2, 261696, Note_on_c, 0, 73, 95
2, 261884, Note_off_c, 0, 73, 0
2, 261888, Note_on_c, 0, 76, 95
2, 262076, Note_off_c, 0, 76, 0
2, 262080, Note_on_c, 0, 79, 95
2, 262268, Note_off_c, 0, 79, 0
2, 262272, Note_on_c, 0, 85, 95
2, 262460, Note_off_c, 0, 85, 0
2, 262464, Note_on_c, 0, 88, 95
2, 262624, Note_off_c, 0, 88, 0
2, 262848, Note_on_c, 0, 71, 95
2, 263008, Note_off_c, 0, 71, 0
2, 263040, Note_on_c, 0, 70, 95
2, 263200, Note_off_c, 0, 70, 0
2, 263232, Note_on_c, 0, 71, 95
2, 263392, Note_off_c, 0, 71, 0
2, 263424, Note_on_c, 0, 73, 110
2, 263584, Note_off_c, 0, 73, 0
2, 263616, Note_on_c, 0, 71, 95
2, 263776, Note_off_c, 0, 71, 0
2, 263808, Note_on_c, 0, 75, 110
2, 263808, Note_on_c, 0, 69, 95
2, 263968, Note_off_c, 0, 75, 0
2, 263968, Note_off_c, 0, 69, 0
2, 264000, Note_on_c, 0, 71, 95
2, 264160, Note_off_c, 0, 71, 0
2, 264192, Note_on_c, 0, 76, 110
2, 264192, Note_on_c, 0, 68, 95
2, 264352, Note_off_c, 0, 76, 0
2, 264352, Note_off_c, 0, 68, 0
2, 264384, Note_on_c, 0, 71, 95
2, 264544, Note_off_c, 0, 71, 0
2, 264576, Note_on_c, 0, 78, 110
2, 264576, Note_on_c, 0, 63, 95
2, 264736, Note_off_c, 0, 78, 0
2, 264736, Note_off_c, 0, 63, 0
2, 264768, Note_on_c, 0, 71, 95
2, 264928, Note_off_c, 0, 71, 0
2, 264960, Note_on_c, 0, 80, 110
2, 264960, Note_on_c, 0, 64, 95
2, 265120, Note_off_c, 0, 80, 0
2, 265120, Note_off_c, 0, 64, 0
2, 265152, Note_on_c, 0, 71, 95
2, 265312, Note_off_c, 0, 71, 0
2, 265344, Note_on_c, 0, 81, 110
2, 265344, Note_on_c, 0, 66, 95
2, 265504, Note_off_c, 0, 81, 0
2, 265504, Note_off_c, 0, 66, 0
2, 265536, Note_on_c, 0, 71, 95
2, 265696, Note_off_c, 0, 71, 0
2, 265728, Note_on_c, 0, 83, 110
2, 265728, Note_on_c, 0, 68, 95
2, 265916, Note_off_c, 0, 68, 0
2, 265920, Note_on_c, 0, 71, 95
2, 266048, Note_off_c, 0, 83, 0
2, 266108, Note_off_c, 0, 71, 0
2, 266112, Note_on_c, 0, 85, 110
2, 266112, Note_on_c, 0, 69, 95
2, 266300, Note_off_c, 0, 69, 0
2, 266304, Note_on_c, 0, 71, 95
2, 266432, Note_off_c, 0, 85, 0
2, 266492, Note_off_c, 0, 71, 0
2, 266496, Note_on_c, 0, 87, 110
2, 266496, Note_on_c, 0, 66, 95
2, 266684, Note_off_c, 0, 66, 0
2, 266688, Note_on_c, 0, 71, 95
2, 266816, Note_off_c, 0, 87, 0
2, 266876, Note_off_c, 0, 71, 0
2, 266880, Note_on_c, 0, 88, 110
2, 266880, Note_on_c, 0, 68, 95
2, 267068, Note_off_c, 0, 68, 0
2, 267072, Note_on_c, 0, 71, 95
2, 267200, Note_off_c, 0, 88, 0
2, 267232, Note_off_c, 0, 71, 0
2, 267264, Note_on_c, 0, 59, 95
2, 267264, Note_on_c, 0, 78, 100
2, 267344, Note_off_c, 0, 78, 0
2, 267360, Note_on_c, 0, 80, 100
2, 267440, Note_off_c, 0, 80, 0
2, 267452, Note_off_c, 0, 59, 0
2, 267456, Note_on_c, 0, 69, 95
2, 267456, Note_on_c, 0, 78, 100
2, 267536, Note_off_c, 0, 78, 0
2, 267552, Note_on_c, 0, 80, 100
2, 267632, Note_off_c, 0, 80, 0
2, 267644, Note_off_c, 0, 69, 0
2, 267648, Note_on_c, 0, 63, 95
2, 267648, Note_on_c, 0, 78, 100
2, 267728, Note_off_c, 0, 78, 0
2, 267744, Note_on_c, 0, 80, 100
2, 267824, Note_off_c, 0, 80, 0
2, 267836, Note_off_c, 0, 63, 0
2, 267840, Note_on_c, 0, 69, 95
2, 267840, Note_on_c, 0, 78, 100
2, 267920, Note_off_c, 0, 78, 0
2, 267936, Note_on_c, 0, 80, 100
2, 268016, Note_off_c, 0, 80, 0
2, 268028, Note_off_c, 0, 69, 0
2, 268032, Note_on_c, 0, 59, 95
2, 268032, Note_on_c, 0, 78, 100
2, 268112, Note_off_c, 0, 78, 0
2, 268128, Note_on_c, 0, 80, 100
2, 268208, Note_off_c, 0, 80, 0
2, 268220, Note_off_c, 0, 59, 0
2, 268224, Note_on_c, 0, 69, 95
2, 268224, Note_on_c, 0, 78, 100
2, 268304, Note_off_c, 0, 78, 0
2, 268320, Note_on_c, 0, 80, 100
2, 268400, Note_off_c, 0, 80, 0
2, 268412, Note_off_c, 0, 69, 0
2, 268416, Note_on_c, 0, 63, 95
2, 268416, Note_on_c, 0, 78, 100
2, 268496, Note_off_c, 0, 78, 0
2, 268512, Note_on_c, 0, 80, 100
2, 268592, Note_off_c, 0, 80, 0
2, 268604, Note_off_c, 0, 63, 0
2, 268608, Note_on_c, 0, 69, 95
2, 268608, Note_on_c, 0, 76, 100
2, 268688, Note_off_c, 0, 76, 0
2, 268704, Note_on_c, 0, 78, 100
2, 268768, Note_off_c, 0, 69, 0
2, 268784, Note_off_c, 0, 78, 0
2, 268800, Note_on_c, 0, 76, 100
2, 269120, Note_off_c, 0, 76, 0
2, 270336, Note_on_c, 0, 71, 95
2, 271484, Note_off_c, 0, 71, 0
2, 271488, Note_on_c, 0, 73, 95
2, 271676, Note_off_c, 0, 73, 0
2, 271680, Note_on_c, 0, 75, 95
2, 271868, Note_off_c, 0, 75, 0
2, 271872, Note_on_c, 0, 76, 95
2, 272192, Note_off_c, 0, 76, 0
2, 272256, Note_on_c, 0, 76, 95
2, 272576, Note_off_c, 0, 76, 0
2, 272640, Note_on_c, 0, 76, 95
2, 272828, Note_off_c, 0, 76, 0
2, 272832, Note_on_c, 0, 78, 95
2, 273020, Note_off_c, 0, 78, 0
2, 273024, Note_on_c, 0, 80, 95
2, 273212, Note_off_c, 0, 80, 0
2, 273216, Note_on_c, 0, 81, 95
2, 273404, Note_off_c, 0, 81, 0
2, 273408, Note_on_c, 0, 83, 95
2, 273728, Note_off_c, 0, 83, 0
2, 273792, Note_on_c, 0, 83, 95
2, 274112, Note_off_c, 0, 83, 0
2, 274176, Note_on_c, 0, 83, 95
2, 274556, Note_off_c, 0, 83, 0
2, 274560, Note_on_c, 0, 85, 95
2, 274748, Note_off_c, 0, 85, 0
2, 274752, Note_on_c, 0, 87, 95
2, 274940, Note_off_c, 0, 87, 0
2, 274944, Note_on_c, 0, 88, 95
2, 275264, Note_off_c, 0, 88, 0
2, 275328, Note_on_c, 0, 88, 95
2, 275648, Note_off_c, 0, 88, 0
2, 275712, Note_on_c, 0, 88, 95
2, 276092, Note_off_c, 0, 88, 0
2, 276096, Note_on_c, 0, 87, 95
2, 276284, Note_off_c, 0, 87, 0
2, 276288, Note_on_c, 0, 85, 95
2, 276476, Note_off_c, 0, 85, 0
2, 276480, Note_on_c, 0, 83, 95
2, 276800, Note_off_c, 0, 83, 0
2, 276864, Note_on_c, 0, 83, 95
2, 277184, Note_off_c, 0, 83, 0
2, 277248, Note_on_c, 0, 83, 95
2, 277436, Note_off_c, 0, 83, 0
2, 277440, Note_on_c, 0, 81, 95
2, 277628, Note_off_c, 0, 81, 0
2, 277632, Note_on_c, 0, 80, 95
2, 277820, Note_off_c, 0, 80, 0
2, 277824, Note_on_c, 0, 78, 95
2, 278012, Note_off_c, 0, 78, 0
2, 278016, Note_on_c, 0, 76, 95
2, 278336, Note_off_c, 0, 76, 0
2, 278400, Note_on_c, 0, 80, 95
2, 278588, Note_off_c, 0, 80, 0
2, 278592, Note_on_c, 0, 76, 95
2, 278780, Note_off_c, 0, 76, 0
2, 278784, Note_on_c, 0, 71, 95
2, 279104, Note_off_c, 0, 71, 0
2, 279168, Note_on_c, 0, 71, 95
2, 279488, Note_off_c, 0, 71, 0
2, 279552, Note_on_c, 0, 81, 95
2, 279932, Note_off_c, 0, 81, 0
2, 279936, Note_on_c, 0, 78, 95
2, 280256, Note_off_c, 0, 78, 0
2, 280704, Note_on_c, 0, 71, 95
2, 281024, Note_off_c, 0, 71, 0
2, 281088, Note_on_c, 0, 83, 95
2, 281468, Note_off_c, 0, 83, 0
2, 281472, Note_on_c, 0, 80, 95
2, 281792, Note_off_c, 0, 80, 0
2, 282240, Note_on_c, 0, 71, 95
2, 282560, Note_off_c, 0, 71, 0
2, 282624, Note_on_c, 0, 81, 95
2, 282812, Note_off_c, 0, 81, 0
2, 282816, Note_on_c, 0, 80, 95
2, 283004, Note_off_c, 0, 80, 0
2, 283008, Note_on_c, 0, 78, 95
2, 283196, Note_off_c, 0, 78, 0
2, 283200, Note_on_c, 0, 76, 95
2, 283388, Note_off_c, 0, 76, 0
2, 283392, Note_on_c, 0, 75, 95
2, 283712, Note_off_c, 0, 75, 0
2, 283776, Note_on_c, 0, 71, 95
2, 284096, Note_off_c, 0, 71, 0
2, 284160, Note_on_c, 0, 83, 95
2, 284348, Note_off_c, 0, 83, 0
2, 284352, Note_on_c, 0, 81, 95
2, 284540, Note_off_c, 0, 81, 0
2, 284544, Note_on_c, 0, 80, 95
2, 284732, Note_off_c, 0, 80, 0
2, 284736, Note_on_c, 0, 78, 95
2, 284924, Note_off_c, 0, 78, 0
2, 284928, Note_on_c, 0, 76, 95
2, 285248, Note_off_c, 0, 76, 0
2, 285312, Note_on_c, 0, 76, 95
2, 285632, Note_off_c, 0, 76, 0
2, 285696, Note_on_c, 0, 75, 95
2, 285884, Note_off_c, 0, 75, 0
2, 285888, Note_on_c, 0, 76, 95
2, 286076, Note_off_c, 0, 76, 0
2, 286080, Note_on_c, 0, 78, 95
2, 286268, Note_off_c, 0, 78, 0
2, 286272, Note_on_c, 0, 80, 95
2, 286460, Note_off_c, 0, 80, 0
2, 286464, Note_on_c, 0, 81, 95
2, 286652, Note_off_c, 0, 81, 0
2, 286656, Note_on_c, 0, 83, 95
2, 286844, Note_off_c, 0, 83, 0
2, 286848, Note_on_c, 0, 85, 95
2, 287036, Note_off_c, 0, 85, 0
2, 287040, Note_on_c, 0, 87, 95
2, 287228, Note_off_c, 0, 87, 0
2, 287232, Note_on_c, 0, 88, 95
2, 287420, Note_off_c, 0, 88, 0
2, 287424, Note_on_c, 0, 83, 95
2, 287612, Note_off_c, 0, 83, 0
2, 287616, Note_on_c, 0, 80, 95
2, 287804, Note_off_c, 0, 80, 0
2, 287808, Note_on_c, 0, 76, 95
2, 287968, Note_off_c, 0, 76, 0
2, 288000, Note_on_c, 0, 80, 95
2, 288000, Note_on_c, 0, 68, 95
2, 288000, Note_on_c, 0, 64, 95
2, 288160, Note_off_c, 0, 68, 0
2, 288160, Note_off_c, 0, 64, 0
2, 288188, Note_off_c, 0, 80, 0
2, 288192, Note_on_c, 0, 76, 95
2, 288380, Note_off_c, 0, 76, 0
2, 288384, Note_on_c, 0, 81, 95
2, 288384, Note_on_c, 0, 66, 95
2, 288384, Note_on_c, 0, 69, 95
2, 288544, Note_off_c, 0, 66, 0
2, 288544, Note_off_c, 0, 69, 0
2, 288572, Note_off_c, 0, 81, 0
2, 288576, Note_on_c, 0, 78, 95
2, 288764, Note_off_c, 0, 78, 0
2, 288768, Note_on_c, 0, 83, 95
2, 288768, Note_on_c, 0, 71, 95
2, 288768, Note_on_c, 0, 68, 95
2, 288928, Note_off_c, 0, 71, 0
2, 288928, Note_off_c, 0, 68, 0
2, 288956, Note_off_c, 0, 83, 0
2, 288960, Note_on_c, 0, 80, 95
2, 289148, Note_off_c, 0, 80, 0
2, 289152, Note_on_c, 0, 76, 95
2, 289340, Note_off_c, 0, 76, 0
2, 289344, Note_on_c, 0, 83, 95
2, 289504, Note_off_c, 0, 83, 0
2, 289536, Note_on_c, 0, 85, 95
2, 289536, Note_on_c, 0, 73, 95
2, 289536, Note_on_c, 0, 69, 95
2, 289696, Note_off_c, 0, 73, 0
2, 289696, Note_off_c, 0, 69, 0
2, 289724, Note_off_c, 0, 85, 0
2, 289728, Note_on_c, 0, 81, 95
2, 289916, Note_off_c, 0, 81, 0
2, 289920, Note_on_c, 0, 87, 95
2, 289920, Note_on_c, 0, 69, 95
2, 289920, Note_on_c, 0, 66, 95
2, 290080, Note_off_c, 0, 69, 0
2, 290080, Note_off_c, 0, 66, 0
2, 290108, Note_off_c, 0, 87, 0
2, 290112, Note_on_c, 0, 83, 95
2, 290300, Note_off_c, 0, 83, 0
2, 290304, Note_on_c, 0, 88, 95
2, 290304, Note_on_c, 0, 64, 95
2, 290304, Note_on_c, 0, 68, 95
2, 290464, Note_off_c, 0, 64, 0
2, 290464, Note_off_c, 0, 68, 0
2, 290492, Note_off_c, 0, 88, 0
2, 290496, Note_on_c, 0, 83, 95
2, 290684, Note_off_c, 0, 83, 0
2, 290688, Note_on_c, 0, 80, 95
2, 290876, Note_off_c, 0, 80, 0
2, 290880, Note_on_c, 0, 76, 95
2, 291040, Note_off_c, 0, 76, 0
2, 291072, Note_on_c, 0, 80, 95
2, 291072, Note_on_c, 0, 64, 95
2, 291072, Note_on_c, 0, 68, 95
2, 291232, Note_off_c, 0, 64, 0
2, 291232, Note_off_c, 0, 68, 0
2, 291260, Note_off_c, 0, 80, 0
2, 291264, Note_on_c, 0, 76, 95
2, 291452, Note_off_c, 0, 76, 0
2, 291456, Note_on_c, 0, 81, 95
2, 291456, Note_on_c, 0, 66, 95
2, 291456, Note_on_c, 0, 69, 95
2, 291616, Note_off_c, 0, 66, 0
2, 291616, Note_off_c, 0, 69, 0
2, 291644, Note_off_c, 0, 81, 0
2, 291648, Note_on_c, 0, 78, 95
2, 291836, Note_off_c, 0, 78, 0
2, 291840, Note_on_c, 0, 83, 95
2, 291840, Note_on_c, 0, 71, 95
2, 291840, Note_on_c, 0, 68, 95
2, 292000, Note_off_c, 0, 71, 0
2, 292000, Note_off_c, 0, 68, 0
2, 292028, Note_off_c, 0, 83, 0
2, 292032, Note_on_c, 0, 80, 95
2, 292220, Note_off_c, 0, 80, 0
2, 292224, Note_on_c, 0, 78, 95
2, 292412, Note_off_c, 0, 78, 0
2, 292416, Note_on_c, 0, 83, 95
2, 292576, Note_off_c, 0, 83, 0
2, 292608, Note_on_c, 0, 85, 95
2, 292608, Note_on_c, 0, 73, 95
2, 292608, Note_on_c, 0, 69, 95
2, 292760, Note_off_c, 0, 69, 0
2, 292768, Note_off_c, 0, 73, 0
2, 292796, Note_off_c, 0, 85, 0
2, 292800, Note_on_c, 0, 81, 95
2, 292988, Note_off_c, 0, 81, 0
2, 292992, Note_on_c, 0, 87, 95
2, 292992, Note_on_c, 0, 69, 95
2, 292992, Note_on_c, 0, 66, 95
2, 293152, Note_off_c, 0, 69, 0
2, 293152, Note_off_c, 0, 66, 0
2, 293180, Note_off_c, 0, 87, 0
2, 293184, Note_on_c, 0, 83, 95
2, 293372, Note_off_c, 0, 83, 0
2, 293376, Note_on_c, 0, 88, 95
2, 293376, Note_on_c, 0, 64, 95
2, 293376, Note_on_c, 0, 68, 95
2, 293536, Note_off_c, 0, 64, 64
2, 293536, Note_off_c, 0, 68, 64
2, 293564, Note_off_c, 0, 88, 0
2, 293568, Note_on_c, 0, 83, 95
2, 293756, Note_off_c, 0, 83, 0
2, 293760, Note_on_c, 0, 80, 95
2, 293948, Note_off_c, 0, 80, 0
2, 293952, Note_on_c, 0, 76, 95
2, 294112, Note_off_c, 0, 76, 0
2, 294128, Note_on_c, 0, 69, 95
2, 294128, Note_on_c, 0, 73, 95
2, 294144, Note_on_c, 0, 85, 95
2, 294288, Note_off_c, 0, 69, 64
2, 294288, Note_off_c, 0, 73, 64
2, 294332, Note_off_c, 0, 85, 0
2, 294336, Note_on_c, 0, 81, 95
2, 294524, Note_off_c, 0, 81, 0
2, 294528, Note_on_c, 0, 87, 95
2, 294528, Note_on_c, 0, 66, 95
2, 294528, Note_on_c, 0, 69, 95
2, 294688, Note_off_c, 0, 66, 64
2, 294688, Note_off_c, 0, 69, 64
2, 294716, Note_off_c, 0, 87, 0
2, 294720, Note_on_c, 0, 83, 95
2, 294908, Note_off_c, 0, 83, 0
2, 294912, Note_on_c, 0, 88, 95
2, 294912, Note_on_c, 0, 64, 95
2, 294912, Note_on_c, 0, 68, 95
2, 295072, Note_off_c, 0, 64, 64
2, 295072, Note_off_c, 0, 68, 64
2, 295100, Note_off_c, 0, 88, 0
2, 295104, Note_on_c, 0, 83, 95
2, 295292, Note_off_c, 0, 83, 0
2, 295296, Note_on_c, 0, 80, 95
2, 295484, Note_off_c, 0, 80, 0
2, 295488, Note_on_c, 0, 76, 95
2, 295648, Note_off_c, 0, 76, 0
2, 295680, Note_on_c, 0, 85, 95
2, 295680, Note_on_c, 0, 69, 95
2, 295680, Note_on_c, 0, 73, 95
2, 295840, Note_off_c, 0, 69, 64
2, 295840, Note_off_c, 0, 73, 64
2, 295868, Note_off_c, 0, 85, 0
2, 295872, Note_on_c, 0, 81, 95
2, 296060, Note_off_c, 0, 81, 0
2, 296064, Note_on_c, 0, 87, 95
2, 296064, Note_on_c, 0, 69, 95
2, 296064, Note_on_c, 0, 66, 95
2, 296224, Note_off_c, 0, 69, 64
2, 296224, Note_off_c, 0, 66, 64
2, 296252, Note_off_c, 0, 87, 0
2, 296256, Note_on_c, 0, 83, 95
2, 296444, Note_off_c, 0, 83, 0
2, 296448, Note_on_c, 0, 88, 95
2, 296448, Note_on_c, 0, 68, 95
2, 296448, Note_on_c, 0, 64, 95
2, 296608, Note_off_c, 0, 68, 64
2, 296608, Note_off_c, 0, 64, 64
2, 296768, Note_off_c, 0, 88, 0
2, 297600, Note_on_c, 0, 76, 95
2, 297788, Note_off_c, 0, 76, 0
2, 297792, Note_on_c, 0, 78, 95
2, 297980, Note_off_c, 0, 78, 0
2, 297984, Note_on_c, 0, 80, 95
2, 298304, Note_off_c, 0, 80, 0
2, 298368, Note_on_c, 0, 80, 95
2, 298556, Note_off_c, 0, 80, 0
2, 298560, Note_on_c, 0, 81, 95
2, 298748, Note_off_c, 0, 81, 0
2, 298752, Note_on_c, 0, 83, 95
2, 299072, Note_off_c, 0, 83, 0
2, 299136, Note_on_c, 0, 85, 95
2, 299324, Note_off_c, 0, 85, 0
2, 299328, Note_on_c, 0, 87, 95
2, 299516, Note_off_c, 0, 87, 0
2, 299520, Note_on_c, 0, 88, 95
2, 299840, Note_off_c, 0, 88, 0
2, 300672, Note_on_c, 0, 64, 95
2, 300860, Note_off_c, 0, 64, 0
2, 300864, Note_on_c, 0, 66, 95
2, 301052, Note_off_c, 0, 66, 0
2, 301056, Note_on_c, 0, 68, 95
2, 301376, Note_off_c, 0, 68, 0
2, 301440, Note_on_c, 0, 68, 95
2, 301628, Note_off_c, 0, 68, 0
2, 301632, Note_on_c, 0, 69, 95
2, 301820, Note_off_c, 0, 69, 0
2, 301824, Note_on_c, 0, 71, 95
2, 302144, Note_off_c, 0, 71, 0
2, 302208, Note_on_c, 0, 73, 95
2, 302396, Note_off_c, 0, 73, 0
2, 302400, Note_on_c, 0, 75, 95
2, 302588, Note_off_c, 0, 75, 0
2, 302592, Note_on_c, 0, 76, 95
2, 302912, Note_off_c, 0, 76, 0
2, 303744, Note_on_c, 0, 64, 95
2, 303932, Note_off_c, 0, 64, 0
2, 303936, Note_on_c, 0, 66, 95
2, 304124, Note_off_c, 0, 66, 0
2, 304128, Note_on_c, 0, 68, 95
2, 304448, Note_off_c, 0, 68, 0
2, 305280, Note_on_c, 0, 64, 95
2, 305468, Note_off_c, 0, 64, 0
2, 305472, Note_on_c, 0, 66, 95
2, 305660, Note_off_c, 0, 66, 0
2, 305664, Note_on_c, 0, 69, 95
2, 305984, Note_off_c, 0, 69, 0
2, 306816, Note_on_c, 0, 68, 95
2, 307004, Note_off_c, 0, 68, 0
2, 307008, Note_on_c, 0, 69, 95
2, 307196, Note_off_c, 0, 69, 0
2, 307200, Note_on_c, 0, 71, 95
2, 307520, Note_off_c, 0, 71, 0
2, 308352, Note_on_c, 0, 69, 95
2, 308540, Note_off_c, 0, 69, 0
2, 308544, Note_on_c, 0, 71, 95
2, 308732, Note_off_c, 0, 71, 0
2, 308736, Note_on_c, 0, 73, 95
2, 309056, Note_off_c, 0, 73, 0
2, 309120, Note_on_c, 0, 71, 95
2, 309308, Note_off_c, 0, 71, 0
2, 309312, Note_on_c, 0, 73, 95
2, 309500, Note_off_c, 0, 73, 0
2, 309504, Note_on_c, 0, 74, 95
2, 309824, Note_off_c, 0, 74, 0
2, 309888, Note_on_c, 0, 73, 95
2, 310076, Note_off_c, 0, 73, 0
2, 310080, Note_on_c, 0, 74, 95
2, 310268, Note_off_c, 0, 74, 0
2, 310272, Note_on_c, 0, 76, 95
2, 310592, Note_off_c, 0, 76, 0
2, 311040, Note_on_c, 0, 69, 95
2, 311360, Note_off_c, 0, 69, 0
2, 311808, Note_on_c, 0, 81, 95
2, 312956, Note_off_c, 0, 81, 0
2, 312960, Note_on_c, 0, 80, 95
2, 313148, Note_off_c, 0, 80, 0
2, 313152, Note_on_c, 0, 78, 95
2, 313312, Note_off_c, 0, 78, 0
2, 313344, Note_on_c, 0, 78, 95
2, 313532, Note_off_c, 0, 78, 0
2, 313536, Note_on_c, 0, 76, 95
2, 313724, Note_off_c, 0, 76, 0
2, 313728, Note_on_c, 0, 74, 95
2, 313916, Note_off_c, 0, 74, 0
2, 313920, Note_on_c, 0, 73, 95
2, 314080, Note_off_c, 0, 73, 0
2, 314112, Note_on_c, 0, 74, 95
2, 314300, Note_off_c, 0, 74, 0
2, 314304, Note_on_c, 0, 71, 95
2, 314492, Note_off_c, 0, 71, 0
2, 314496, Note_on_c, 0, 73, 95
2, 314684, Note_off_c, 0, 73, 0
2, 314688, Note_on_c, 0, 69, 95
2, 314848, Note_off_c, 0, 69, 0
2, 314880, Note_on_c, 0, 73, 95
2, 315068, Note_off_c, 0, 73, 0
2, 315072, Note_on_c, 0, 71, 95
2, 315260, Note_off_c, 0, 71, 0
2, 315264, Note_on_c, 0, 69, 95
2, 315452, Note_off_c, 0, 69, 0
2, 315456, Note_on_c, 0, 68, 95
2, 315644, Note_off_c, 0, 68, 0
2, 315648, Note_on_c, 0, 66, 95
2, 315836, Note_off_c, 0, 66, 0
2, 315840, Note_on_c, 0, 64, 95
2, 316028, Note_off_c, 0, 64, 0
2, 316032, Note_on_c, 0, 63, 95
2, 316220, Note_off_c, 0, 63, 0
2, 316224, Note_on_c, 0, 64, 95
2, 316384, Note_off_c, 0, 64, 0
2, 316416, Note_on_c, 0, 76, 95
2, 316736, Note_off_c, 0, 76, 0
2, 317184, Note_on_c, 0, 69, 95
2, 317504, Note_off_c, 0, 69, 0
2, 317952, Note_on_c, 0, 81, 95
2, 318112, Note_off_c, 0, 81, 0
2, 318336, Note_on_c, 0, 81, 95
2, 319100, Note_off_c, 0, 81, 0
2, 319104, Note_on_c, 0, 80, 95
2, 319292, Note_off_c, 0, 80, 0
2, 319296, Note_on_c, 0, 78, 95
2, 319456, Note_off_c, 0, 78, 0
2, 319488, Note_on_c, 0, 76, 95
2, 319676, Note_off_c, 0, 76, 0
2, 319680, Note_on_c, 0, 81, 95
2, 319840, Note_off_c, 0, 81, 0
2, 319872, Note_on_c, 0, 78, 95
2, 319952, Note_off_c, 0, 78, 0
2, 320064, Note_on_c, 0, 74, 95
2, 320144, Note_off_c, 0, 74, 0
2, 320256, Note_on_c, 0, 73, 95
2, 320444, Note_off_c, 0, 73, 0
2, 320448, Note_on_c, 0, 76, 95
2, 320608, Note_off_c, 0, 76, 0
2, 320640, Note_on_c, 0, 74, 95
2, 320720, Note_off_c, 0, 74, 0
2, 320832, Note_on_c, 0, 71, 95
2, 320912, Note_off_c, 0, 71, 0
2, 321024, Note_on_c, 0, 69, 95
2, 321212, Note_off_c, 0, 69, 0
2, 321216, Note_on_c, 0, 73, 95
2, 321404, Note_off_c, 0, 73, 0
2, 321408, Note_on_c, 0, 76, 95
2, 321596, Note_off_c, 0, 76, 0
2, 321600, Note_on_c, 0, 81, 95
2, 321788, Note_off_c, 0, 81, 0
2, 321792, Note_on_c, 0, 85, 95
2, 321980, Note_off_c, 0, 85, 0
2, 321984, Note_on_c, 0, 88, 95
2, 322172, Note_off_c, 0, 88, 0
2, 322176, Note_on_c, 0, 85, 95
2, 322364, Note_off_c, 0, 85, 0
2, 322368, Note_on_c, 0, 81, 95
2, 322528, Note_off_c, 0, 81, 0
2, 353280, Note_on_c, 0, 78, 95
2, 353280, Note_on_c, 0, 73, 95
2, 353280, Note_on_c, 0, 85, 95
2, 353600, Note_off_c, 0, 78, 0
2, 353600, Note_off_c, 0, 73, 0
2, 354236, Note_off_c, 0, 85, 0
2, 354240, Note_on_c, 0, 83, 95
2, 354428, Note_off_c, 0, 83, 0
2, 354432, Note_on_c, 0, 81, 95
2, 354620, Note_off_c, 0, 81, 0
2, 354624, Note_on_c, 0, 80, 95
2, 354812, Note_off_c, 0, 80, 0
2, 354816, Note_on_c, 0, 78, 95
2, 355004, Note_off_c, 0, 78, 0
2, 355008, Note_on_c, 0, 76, 95
2, 355196, Note_off_c, 0, 76, 0
2, 355200, Note_on_c, 0, 74, 95
2, 355388, Note_off_c, 0, 74, 0
2, 355392, Note_on_c, 0, 73, 95
2, 355580, Note_off_c, 0, 73, 0
2, 355584, Note_on_c, 0, 71, 95
2, 355772, Note_off_c, 0, 71, 0
2, 355776, Note_on_c, 0, 69, 95
2, 355964, Note_off_c, 0, 69, 0
2, 355968, Note_on_c, 0, 68, 95
2, 356156, Note_off_c, 0, 68, 0
2, 356160, Note_on_c, 0, 66, 95
2, 356320, Note_off_c, 0, 66, 64
2, 356352, Note_on_c, 0, 65, 95
2, 356540, Note_off_c, 0, 65, 0
2, 356544, Note_on_c, 0, 68, 95
2, 356732, Note_off_c, 0, 68, 0
2, 356736, Note_on_c, 0, 71, 95
2, 356924, Note_off_c, 0, 71, 0
2, 356928, Note_on_c, 0, 69, 95
2, 357088, Note_off_c, 0, 69, 0
2, 357120, Note_on_c, 0, 68, 95
2, 357308, Note_off_c, 0, 68, 0
2, 357312, Note_on_c, 0, 71, 95
2, 357500, Note_off_c, 0, 71, 0
2, 357504, Note_on_c, 0, 74, 95
2, 357692, Note_off_c, 0, 74, 0
2, 357696, Note_on_c, 0, 73, 95
2, 357856, Note_off_c, 0, 73, 0
2, 357888, Note_on_c, 0, 71, 95
2, 358076, Note_off_c, 0, 71, 0
2, 358080, Note_on_c, 0, 77, 95
2, 358268, Note_off_c, 0, 77, 0
2, 358272, Note_on_c, 0, 80, 95
2, 358460, Note_off_c, 0, 80, 0
2, 358464, Note_on_c, 0, 78, 95
2, 358624, Note_off_c, 0, 78, 0
2, 358656, Note_on_c, 0, 77, 95
2, 358844, Note_off_c, 0, 77, 0
2, 358848, Note_on_c, 0, 80, 95
2, 359036, Note_off_c, 0, 80, 0
2, 359040, Note_on_c, 0, 83, 95
2, 359228, Note_off_c, 0, 83, 0
2, 359232, Note_on_c, 0, 81, 95
2, 359392, Note_off_c, 0, 81, 0
2, 359424, Note_on_c, 0, 80, 95
2, 359612, Note_off_c, 0, 80, 0
2, 359616, Note_on_c, 0, 83, 95
2, 359804, Note_off_c, 0, 83, 0
2, 359808, Note_on_c, 0, 86, 95
2, 359996, Note_off_c, 0, 86, 0
2, 360000, Note_on_c, 0, 85, 95
2, 360188, Note_off_c, 0, 85, 0
2, 360192, Note_on_c, 0, 83, 95
2, 360380, Note_off_c, 0, 83, 0
2, 360384, Note_on_c, 0, 81, 95
2, 360572, Note_off_c, 0, 81, 0
2, 360576, Note_on_c, 0, 80, 95
2, 360764, Note_off_c, 0, 80, 0
2, 360768, Note_on_c, 0, 78, 95
2, 360928, Note_off_c, 0, 78, 0
2, 360960, Note_on_c, 0, 77, 95
2, 361148, Note_off_c, 0, 77, 0
2, 361152, Note_on_c, 0, 74, 95
2, 361340, Note_off_c, 0, 74, 0
2, 361344, Note_on_c, 0, 73, 95
2, 361532, Note_off_c, 0, 73, 0
2, 361536, Note_on_c, 0, 71, 95
2, 361724, Note_off_c, 0, 71, 0
2, 361728, Note_on_c, 0, 69, 95
2, 361916, Note_off_c, 0, 69, 0
2, 361920, Note_on_c, 0, 68, 95
2, 362108, Note_off_c, 0, 68, 0
2, 362112, Note_on_c, 0, 66, 95
2, 362300, Note_off_c, 0, 66, 0
2, 362304, Note_on_c, 0, 65, 95
2, 362492, Note_off_c, 0, 65, 0
2, 362496, Note_on_c, 0, 66, 95
2, 362684, Note_off_c, 0, 66, 0
2, 362688, Note_on_c, 0, 61, 95
2, 362876, Note_off_c, 0, 61, 0
2, 362880, Note_on_c, 0, 69, 95
2, 363068, Note_off_c, 0, 69, 0
2, 363072, Note_on_c, 0, 66, 95
2, 363260, Note_off_c, 0, 66, 0
2, 363264, Note_on_c, 0, 68, 95
2, 363452, Note_off_c, 0, 68, 0
2, 363456, Note_on_c, 0, 61, 95
2, 363644, Note_off_c, 0, 61, 0
2, 363648, Note_on_c, 0, 71, 95
2, 363836, Note_off_c, 0, 71, 0
2, 363840, Note_on_c, 0, 68, 95
2, 364028, Note_off_c, 0, 68, 0
2, 364032, Note_on_c, 0, 69, 95
2, 364220, Note_off_c, 0, 69, 0
2, 364224, Note_on_c, 0, 66, 95
2, 364412, Note_off_c, 0, 66, 0
2, 364416, Note_on_c, 0, 73, 95
2, 364604, Note_off_c, 0, 73, 0
2, 364608, Note_on_c, 0, 69, 95
2, 364796, Note_off_c, 0, 69, 0
2, 364800, Note_on_c, 0, 71, 95
2, 364988, Note_off_c, 0, 71, 0
2, 364992, Note_on_c, 0, 68, 95
2, 365180, Note_off_c, 0, 68, 0
2, 365184, Note_on_c, 0, 74, 95
2, 365372, Note_off_c, 0, 74, 0
2, 365376, Note_on_c, 0, 71, 95
2, 365564, Note_off_c, 0, 71, 0
2, 365568, Note_on_c, 0, 73, 95
2, 365948, Note_off_c, 0, 73, 0
2, 377856, Note_on_c, 0, 85, 95
2, 377856, Note_on_c, 0, 78, 95
2, 377856, Note_on_c, 0, 73, 95
2, 378176, Note_off_c, 0, 78, 0
2, 378176, Note_off_c, 0, 73, 0
2, 378812, Note_off_c, 0, 85, 0
2, 378816, Note_on_c, 0, 83, 95
2, 379004, Note_off_c, 0, 83, 0
2, 379008, Note_on_c, 0, 81, 95
2, 379196, Note_off_c, 0, 81, 0
2, 379200, Note_on_c, 0, 80, 95
2, 379360, Note_off_c, 0, 80, 0
2, 379392, Note_on_c, 0, 78, 95
2, 379580, Note_off_c, 0, 78, 0
2, 379584, Note_on_c, 0, 76, 95
2, 379772, Note_off_c, 0, 76, 0
2, 379776, Note_on_c, 0, 74, 95
2, 379964, Note_off_c, 0, 74, 0
2, 379968, Note_on_c, 0, 73, 95
2, 380156, Note_off_c, 0, 73, 0
2, 380160, Note_on_c, 0, 71, 95
2, 380348, Note_off_c, 0, 71, 0
2, 380352, Note_on_c, 0, 69, 95
2, 380540, Note_off_c, 0, 69, 0
2, 380544, Note_on_c, 0, 68, 95
2, 380732, Note_off_c, 0, 68, 0
2, 380736, Note_on_c, 0, 66, 95
2, 380896, Note_off_c, 0, 66, 0
2, 380928, Note_on_c, 0, 65, 95
2, 381116, Note_off_c, 0, 65, 0
2, 381120, Note_on_c, 0, 68, 95
2, 381308, Note_off_c, 0, 68, 0
2, 381312, Note_on_c, 0, 71, 95
2, 381500, Note_off_c, 0, 71, 0
2, 381504, Note_on_c, 0, 69, 95
2, 381692, Note_off_c, 0, 69, 0
2, 381696, Note_on_c, 0, 68, 95
2, 381884, Note_off_c, 0, 68, 0
2, 381888, Note_on_c, 0, 71, 95
2, 382076, Note_off_c, 0, 71, 0
2, 382080, Note_on_c, 0, 74, 95
2, 382268, Note_off_c, 0, 74, 0
2, 382272, Note_on_c, 0, 73, 95
2, 382432, Note_off_c, 0, 73, 0
2, 382464, Note_on_c, 0, 71, 95
2, 382652, Note_off_c, 0, 71, 0
2, 382656, Note_on_c, 0, 77, 95
2, 382844, Note_off_c, 0, 77, 0
2, 382848, Note_on_c, 0, 80, 95
2, 383036, Note_off_c, 0, 80, 0
2, 383040, Note_on_c, 0, 78, 95
2, 383228, Note_off_c, 0, 78, 0
2, 383232, Note_on_c, 0, 77, 95
2, 383420, Note_off_c, 0, 77, 0
2, 383424, Note_on_c, 0, 80, 95
2, 383612, Note_off_c, 0, 80, 0
2, 383616, Note_on_c, 0, 83, 95
2, 383804, Note_off_c, 0, 83, 0
2, 383808, Note_on_c, 0, 81, 95
2, 383968, Note_off_c, 0, 81, 0
2, 384000, Note_on_c, 0, 80, 95
2, 384188, Note_off_c, 0, 80, 0
2, 384192, Note_on_c, 0, 83, 95
2, 384380, Note_off_c, 0, 83, 0
2, 384384, Note_on_c, 0, 86, 95
2, 384572, Note_off_c, 0, 86, 0
2, 384576, Note_on_c, 0, 85, 95
2, 384764, Note_off_c, 0, 85, 0
2, 384768, Note_on_c, 0, 83, 95
2, 384956, Note_off_c, 0, 83, 0
2, 384960, Note_on_c, 0, 81, 95
2, 385148, Note_off_c, 0, 81, 0
2, 385152, Note_on_c, 0, 80, 95
2, 385340, Note_off_c, 0, 80, 0
2, 385344, Note_on_c, 0, 78, 95
2, 385532, Note_off_c, 0, 78, 0
2, 385536, Note_on_c, 0, 77, 95
2, 385724, Note_off_c, 0, 77, 0
2, 385728, Note_on_c, 0, 74, 95
2, 385916, Note_off_c, 0, 74, 0
2, 385920, Note_on_c, 0, 73, 95
2, 386108, Note_off_c, 0, 73, 0
2, 386112, Note_on_c, 0, 71, 95
2, 386300, Note_off_c, 0, 71, 0
2, 386304, Note_on_c, 0, 69, 95
2, 386492, Note_off_c, 0, 69, 0
2, 386496, Note_on_c, 0, 68, 95
2, 386684, Note_off_c, 0, 68, 0
2, 386688, Note_on_c, 0, 66, 95
2, 386876, Note_off_c, 0, 66, 0
2, 386880, Note_on_c, 0, 65, 95
2, 387068, Note_off_c, 0, 65, 0
2, 387072, Note_on_c, 0, 66, 95
2, 387232, Note_off_c, 0, 66, 0
2, 387264, Note_on_c, 0, 61, 95
2, 387452, Note_off_c, 0, 61, 0
2, 387456, Note_on_c, 0, 69, 95
2, 387644, Note_off_c, 0, 69, 0
2, 387648, Note_on_c, 0, 66, 95
2, 387836, Note_off_c, 0, 66, 0
2, 387840, Note_on_c, 0, 68, 95
2, 388000, Note_off_c, 0, 68, 0
2, 388032, Note_on_c, 0, 61, 95
2, 388220, Note_off_c, 0, 61, 0
2, 388224, Note_on_c, 0, 71, 95
2, 388412, Note_off_c, 0, 71, 0
2, 388416, Note_on_c, 0, 68, 95
2, 388604, Note_off_c, 0, 68, 0
2, 388608, Note_on_c, 0, 69, 95
2, 388768, Note_off_c, 0, 69, 0
2, 388800, Note_on_c, 0, 66, 95
2, 388988, Note_off_c, 0, 66, 0
2, 388992, Note_on_c, 0, 73, 95
2, 389180, Note_off_c, 0, 73, 0
2, 389184, Note_on_c, 0, 70, 95
2, 389372, Note_off_c, 0, 70, 0
2, 389376, Note_on_c, 0, 71, 95
2, 389536, Note_off_c, 0, 71, 0
2, 389568, Note_on_c, 0, 66, 95
2, 389756, Note_off_c, 0, 66, 0
2, 389760, Note_on_c, 0, 74, 95
2, 389948, Note_off_c, 0, 74, 0
2, 389952, Note_on_c, 0, 71, 95
2, 390140, Note_off_c, 0, 71, 0
2, 390144, Note_on_c, 0, 73, 95
2, 390304, Note_off_c, 0, 73, 0
2, 402432, Note_on_c, 0, 57, 95
2, 402620, Note_off_c, 0, 57, 0
2, 402624, Note_on_c, 0, 66, 95
2, 402812, Note_off_c, 0, 66, 0
2, 402816, Note_on_c, 0, 62, 95
2, 403004, Note_off_c, 0, 62, 0
2, 403008, Note_on_c, 0, 66, 95
2, 403196, Note_off_c, 0, 66, 0
2, 403200, Note_on_c, 0, 69, 95
2, 403388, Note_off_c, 0, 69, 0
2, 403392, Note_on_c, 0, 66, 95
2, 403580, Note_off_c, 0, 66, 0
2, 403584, Note_on_c, 0, 62, 95
2, 403772, Note_off_c, 0, 62, 0
2, 403776, Note_on_c, 0, 66, 95
2, 403936, Note_off_c, 0, 66, 0
2, 403968, Note_on_c, 0, 57, 95
2, 404156, Note_off_c, 0, 57, 0
2, 404160, Note_on_c, 0, 67, 95
2, 404348, Note_off_c, 0, 67, 0
2, 404352, Note_on_c, 0, 64, 95
2, 404540, Note_off_c, 0, 64, 0
2, 404544, Note_on_c, 0, 67, 95
2, 404732, Note_off_c, 0, 67, 0
2, 404736, Note_on_c, 0, 69, 95
2, 404924, Note_off_c, 0, 69, 0
2, 404928, Note_on_c, 0, 67, 95
2, 405116, Note_off_c, 0, 67, 0
2, 405120, Note_on_c, 0, 64, 95
2, 405308, Note_off_c, 0, 64, 0
2, 405312, Note_on_c, 0, 67, 95
2, 405472, Note_off_c, 0, 67, 0
2, 405504, Note_on_c, 0, 57, 95
2, 405692, Note_off_c, 0, 57, 0
2, 405696, Note_on_c, 0, 64, 95
2, 405884, Note_off_c, 0, 64, 0
2, 405888, Note_on_c, 0, 61, 95
2, 406076, Note_off_c, 0, 61, 0
2, 406080, Note_on_c, 0, 64, 95
2, 406268, Note_off_c, 0, 64, 0
2, 406272, Note_on_c, 0, 69, 95
2, 406460, Note_off_c, 0, 69, 0
2, 406464, Note_on_c, 0, 64, 95
2, 406652, Note_off_c, 0, 64, 0
2, 406656, Note_on_c, 0, 61, 95
2, 406844, Note_off_c, 0, 61, 0
2, 406848, Note_on_c, 0, 64, 95
2, 407008, Note_off_c, 0, 64, 0
2, 407040, Note_on_c, 0, 57, 95
2, 407228, Note_off_c, 0, 57, 0
2, 407232, Note_on_c, 0, 64, 95
2, 407420, Note_off_c, 0, 64, 0
2, 407424, Note_on_c, 0, 61, 95
2, 407612, Note_off_c, 0, 61, 0
2, 407616, Note_on_c, 0, 64, 95
2, 407804, Note_off_c, 0, 64, 0
2, 407808, Note_on_c, 0, 57, 95
2, 407996, Note_off_c, 0, 57, 0
2, 408000, Note_on_c, 0, 66, 95
2, 408188, Note_off_c, 0, 66, 0
2, 408192, Note_on_c, 0, 62, 95
2, 408380, Note_off_c, 0, 62, 0
2, 408384, Note_on_c, 0, 66, 95
2, 408544, Note_off_c, 0, 66, 0
2, 408576, Note_on_c, 0, 59, 95
2, 408764, Note_off_c, 0, 59, 0
2, 408768, Note_on_c, 0, 67, 95
2, 408956, Note_off_c, 0, 67, 0
2, 408960, Note_on_c, 0, 62, 95
2, 409148, Note_off_c, 0, 62, 0
2, 409152, Note_on_c, 0, 67, 95
2, 409340, Note_off_c, 0, 67, 0
2, 409344, Note_on_c, 0, 71, 95
2, 409532, Note_off_c, 0, 71, 0
2, 409536, Note_on_c, 0, 67, 95
2, 409724, Note_off_c, 0, 67, 0
2, 409728, Note_on_c, 0, 64, 95
2, 409916, Note_off_c, 0, 64, 0
2, 409920, Note_on_c, 0, 69, 95
2, 410080, Note_off_c, 0, 69, 0
2, 410112, Note_on_c, 0, 62, 95
2, 410300, Note_off_c, 0, 62, 0
2, 410304, Note_on_c, 0, 69, 95
2, 410492, Note_off_c, 0, 69, 0
2, 410496, Note_on_c, 0, 66, 95
2, 410684, Note_off_c, 0, 66, 0
2, 410688, Note_on_c, 0, 69, 95
2, 410876, Note_off_c, 0, 69, 0
2, 410880, Note_on_c, 0, 62, 95
2, 411068, Note_off_c, 0, 62, 0
2, 411072, Note_on_c, 0, 69, 95
2, 411260, Note_off_c, 0, 69, 0
2, 411264, Note_on_c, 0, 66, 95
2, 411452, Note_off_c, 0, 66, 0
2, 411456, Note_on_c, 0, 69, 95
2, 411616, Note_off_c, 0, 69, 0
2, 411648, Note_on_c, 0, 62, 95
2, 411836, Note_off_c, 0, 62, 0
2, 411840, Note_on_c, 0, 71, 95
2, 412028, Note_off_c, 0, 71, 0
2, 412032, Note_on_c, 0, 64, 95
2, 412220, Note_off_c, 0, 64, 0
2, 412224, Note_on_c, 0, 69, 95
2, 412412, Note_off_c, 0, 69, 0
2, 412416, Note_on_c, 0, 62, 95
2, 412604, Note_off_c, 0, 62, 0
2, 412608, Note_on_c, 0, 69, 95
2, 412796, Note_off_c, 0, 69, 0
2, 412800, Note_on_c, 0, 66, 95
2, 412988, Note_off_c, 0, 66, 0
2, 412992, Note_on_c, 0, 74, 95
2, 413152, Note_off_c, 0, 74, 0
2, 413184, Note_on_c, 0, 62, 95
2, 413372, Note_off_c, 0, 62, 0
2, 413376, Note_on_c, 0, 66, 95
2, 413564, Note_off_c, 0, 66, 0
2, 413568, Note_on_c, 0, 69, 95
2, 413756, Note_off_c, 0, 69, 0
2, 413760, Note_on_c, 0, 74, 95
2, 413948, Note_off_c, 0, 74, 0
2, 413952, Note_on_c, 0, 73, 95
2, 414144, Note_on_c, 0, 69, 95
2, 414272, Note_off_c, 0, 73, 0
2, 414332, Note_off_c, 0, 69, 0
2, 414336, Note_on_c, 0, 67, 95
2, 414524, Note_off_c, 0, 67, 0
2, 414528, Note_on_c, 0, 64, 95
2, 414688, Note_off_c, 0, 64, 0
2, 414720, Note_on_c, 0, 78, 95
2, 414720, Note_on_c, 0, 62, 95
2, 414908, Note_off_c, 0, 62, 0
2, 414912, Note_on_c, 0, 69, 95
2, 415100, Note_off_c, 0, 69, 0
2, 415104, Note_on_c, 0, 66, 95
2, 415292, Note_off_c, 0, 66, 0
2, 415296, Note_on_c, 0, 69, 95
2, 415484, Note_off_c, 0, 69, 0
2, 415488, Note_on_c, 0, 62, 95
2, 415676, Note_off_c, 0, 62, 0
2, 415680, Note_on_c, 0, 69, 95
2, 415868, Note_off_c, 0, 78, 0
2, 415868, Note_off_c, 0, 69, 0
2, 415872, Note_on_c, 0, 81, 95
2, 415872, Note_on_c, 0, 66, 95
2, 416060, Note_off_c, 0, 66, 0
2, 416064, Note_on_c, 0, 69, 95
2, 416192, Note_off_c, 0, 81, 0
2, 416224, Note_off_c, 0, 69, 0
2, 416256, Note_on_c, 0, 81, 95
2, 416256, Note_on_c, 0, 61, 95
2, 416444, Note_off_c, 0, 61, 0
2, 416448, Note_on_c, 0, 69, 95
2, 416636, Note_off_c, 0, 81, 0
2, 416636, Note_off_c, 0, 69, 0
2, 416640, Note_on_c, 0, 76, 95
2, 416640, Note_on_c, 0, 67, 95
2, 416828, Note_off_c, 0, 67, 0
2, 416832, Note_on_c, 0, 69, 95
2, 416960, Note_off_c, 0, 76, 0
2, 417020, Note_off_c, 0, 69, 0
2, 417024, Note_on_c, 0, 76, 95
2, 417024, Note_on_c, 0, 61, 95
2, 417212, Note_off_c, 0, 61, 0
2, 417216, Note_on_c, 0, 69, 95
2, 417404, Note_off_c, 0, 76, 0
2, 417404, Note_off_c, 0, 69, 0
2, 417408, Note_on_c, 0, 78, 95
2, 417408, Note_on_c, 0, 62, 95
2, 417596, Note_off_c, 0, 62, 0
2, 417600, Note_on_c, 0, 69, 95
2, 417728, Note_off_c, 0, 78, 0
2, 417760, Note_off_c, 0, 69, 0
2, 417792, Note_on_c, 0, 79, 95
2, 417792, Note_on_c, 0, 64, 95
2, 417980, Note_off_c, 0, 64, 0
2, 417984, Note_on_c, 0, 69, 95
2, 418112, Note_off_c, 0, 79, 0
2, 418172, Note_off_c, 0, 69, 0
2, 418176, Note_on_c, 0, 79, 95
2, 418176, Note_on_c, 0, 62, 95
2, 418364, Note_off_c, 0, 62, 0
2, 418368, Note_on_c, 0, 69, 95
2, 418496, Note_off_c, 0, 79, 0
2, 418556, Note_off_c, 0, 69, 0
2, 418560, Note_on_c, 0, 79, 95
2, 418560, Note_on_c, 0, 61, 95
2, 418748, Note_off_c, 0, 61, 0
2, 418752, Note_on_c, 0, 69, 95
2, 418880, Note_off_c, 0, 79, 0
2, 418940, Note_off_c, 0, 69, 0
2, 418944, Note_on_c, 0, 79, 95
2, 418944, Note_on_c, 0, 57, 95
2, 419132, Note_off_c, 0, 57, 0
2, 419136, Note_on_c, 0, 69, 95
2, 419264, Note_off_c, 0, 79, 0
2, 419296, Note_off_c, 0, 69, 0
2, 419328, Note_on_c, 0, 81, 105
2, 419328, Note_on_c, 0, 61, 95
2, 419408, Note_off_c, 0, 81, 0
2, 419424, Note_on_c, 0, 79, 100
2, 419516, Note_off_c, 0, 61, 0
2, 419520, Note_on_c, 0, 69, 95
2, 419708, Note_off_c, 0, 69, 0
2, 419712, Note_on_c, 0, 64, 95
2, 419900, Note_off_c, 0, 64, 0
2, 419904, Note_on_c, 0, 69, 95
2, 420092, Note_off_c, 0, 79, 0
2, 420092, Note_off_c, 0, 69, 0
2, 420096, Note_on_c, 0, 78, 95
2, 420096, Note_on_c, 0, 62, 95
2, 420284, Note_off_c, 0, 62, 0
2, 420288, Note_on_c, 0, 69, 95
2, 420416, Note_off_c, 0, 78, 0
2, 420476, Note_off_c, 0, 69, 0
2, 420480, Note_on_c, 0, 66, 95
2, 420668, Note_off_c, 0, 66, 0
2, 420672, Note_on_c, 0, 69, 95
2, 420860, Note_off_c, 0, 69, 0
2, 420864, Note_on_c, 0, 83, 95
2, 422012, Note_off_c, 0, 83, 0
2, 422016, Note_on_c, 0, 86, 95
2, 422336, Note_off_c, 0, 86, 0
2, 422400, Note_on_c, 0, 86, 95
2, 422780, Note_off_c, 0, 86, 0
2, 422976, Note_on_c, 0, 78, 95
2, 423136, Note_off_c, 0, 78, 0
2, 423168, Note_on_c, 0, 76, 95
2, 423548, Note_off_c, 0, 76, 0
2, 423744, Note_on_c, 0, 83, 95
2, 423904, Note_off_c, 0, 83, 0
2, 423936, Note_on_c, 0, 74, 95
2, 425084, Note_off_c, 0, 74, 0
2, 425088, Note_on_c, 0, 78, 95
2, 425276, Note_off_c, 0, 78, 0
2, 425280, Note_on_c, 0, 76, 95
2, 425468, Note_off_c, 0, 76, 0
2, 425472, Note_on_c, 0, 74, 95
2, 425632, Note_off_c, 0, 74, 0
2, 425664, Note_on_c, 0, 73, 95
2, 425744, Note_off_c, 0, 73, 0
2, 425856, Note_on_c, 0, 71, 95
2, 425936, Note_off_c, 0, 71, 0
2, 426048, Note_on_c, 0, 69, 95
2, 426128, Note_off_c, 0, 69, 0
2, 426240, Note_on_c, 0, 67, 95
2, 426320, Note_off_c, 0, 67, 0
2, 426432, Note_on_c, 0, 66, 95
2, 426512, Note_off_c, 0, 66, 0
2, 426624, Note_on_c, 0, 64, 95
2, 426704, Note_off_c, 0, 64, 0
2, 426816, Note_on_c, 0, 62, 95
2, 426896, Note_off_c, 0, 62, 0
2, 427008, Note_on_c, 0, 57, 95
2, 427196, Note_off_c, 0, 57, 0
2, 427200, Note_on_c, 0, 69, 95
2, 427388, Note_off_c, 0, 69, 0
2, 427392, Note_on_c, 0, 64, 95
2, 427580, Note_off_c, 0, 64, 0
2, 427584, Note_on_c, 0, 69, 95
2, 427772, Note_off_c, 0, 69, 0
2, 427776, Note_on_c, 0, 57, 95
2, 427964, Note_off_c, 0, 57, 0
2, 427968, Note_on_c, 0, 69, 95
2, 428156, Note_off_c, 0, 69, 0
2, 428160, Note_on_c, 0, 62, 95
2, 428348, Note_off_c, 0, 62, 0
2, 428352, Note_on_c, 0, 69, 95
2, 428512, Note_off_c, 0, 69, 0
2, 428544, Note_on_c, 0, 57, 95
2, 428732, Note_off_c, 0, 57, 0
2, 428736, Note_on_c, 0, 69, 95
2, 428924, Note_off_c, 0, 69, 0
2, 428928, Note_on_c, 0, 61, 95
2, 429116, Note_off_c, 0, 61, 0
2, 429120, Note_on_c, 0, 69, 95
2, 429308, Note_off_c, 0, 69, 0
2, 429312, Note_on_c, 0, 64, 95
2, 429500, Note_off_c, 0, 64, 0
2, 429504, Note_on_c, 0, 69, 95
2, 429692, Note_off_c, 0, 69, 0
2, 429696, Note_on_c, 0, 61, 95
2, 429884, Note_off_c, 0, 61, 0
2, 429888, Note_on_c, 0, 69, 95
2, 430048, Note_off_c, 0, 69, 0
2, 430080, Note_on_c, 0, 57, 95
2, 430268, Note_off_c, 0, 57, 0
2, 430272, Note_on_c, 0, 69, 95
2, 430460, Note_off_c, 0, 69, 0
2, 430464, Note_on_c, 0, 64, 95
2, 430652, Note_off_c, 0, 64, 0
2, 430656, Note_on_c, 0, 69, 95
2, 430844, Note_off_c, 0, 69, 0
2, 430848, Note_on_c, 0, 57, 95
2, 431036, Note_off_c, 0, 57, 0
2, 431040, Note_on_c, 0, 69, 95
2, 431228, Note_off_c, 0, 69, 0
2, 431232, Note_on_c, 0, 62, 95
2, 431420, Note_off_c, 0, 62, 0
2, 431424, Note_on_c, 0, 69, 95
2, 431584, Note_off_c, 0, 69, 0
2, 431616, Note_on_c, 0, 57, 95
2, 431804, Note_off_c, 0, 57, 0
2, 431808, Note_on_c, 0, 69, 95
2, 431996, Note_off_c, 0, 69, 0
2, 432000, Note_on_c, 0, 61, 95
2, 432188, Note_off_c, 0, 61, 0
2, 432192, Note_on_c, 0, 69, 95
2, 432380, Note_off_c, 0, 69, 0
2, 432384, Note_on_c, 0, 62, 95
2, 432572, Note_off_c, 0, 62, 0
2, 432576, Note_on_c, 0, 68, 95
2, 432764, Note_off_c, 0, 68, 0
2, 432768, Note_on_c, 0, 64, 95
2, 432956, Note_off_c, 0, 64, 0
2, 432960, Note_on_c, 0, 67, 95
2, 433120, Note_off_c, 0, 67, 0
2, 433152, Note_on_c, 0, 62, 95
2, 433340, Note_off_c, 0, 62, 0
2, 433344, Note_on_c, 0, 66, 95
2, 433532, Note_off_c, 0, 66, 0
2, 433536, Note_on_c, 0, 71, 95
2, 433724, Note_off_c, 0, 71, 0
2, 433728, Note_on_c, 0, 66, 95
2, 433916, Note_off_c, 0, 66, 0
2, 433920, Note_on_c, 0, 74, 95
2, 434108, Note_off_c, 0, 74, 0
2, 434112, Note_on_c, 0, 71, 95
2, 434300, Note_off_c, 0, 71, 0
2, 434304, Note_on_c, 0, 76, 95
2, 434492, Note_off_c, 0, 76, 0
2, 434496, Note_on_c, 0, 74, 95
2, 434656, Note_off_c, 0, 74, 0
2, 434688, Note_on_c, 0, 73, 95
2, 434876, Note_off_c, 0, 73, 0
2, 434880, Note_on_c, 0, 69, 95
2, 435068, Note_off_c, 0, 69, 0
2, 435072, Note_on_c, 0, 74, 95
2, 435260, Note_off_c, 0, 74, 0
2, 435264, Note_on_c, 0, 71, 95
2, 435452, Note_off_c, 0, 71, 0
2, 435456, Note_on_c, 0, 76, 95
2, 435644, Note_off_c, 0, 76, 0
2, 435648, Note_on_c, 0, 71, 95
2, 435836, Note_off_c, 0, 71, 0
2, 435840, Note_on_c, 0, 67, 95
2, 436028, Note_off_c, 0, 67, 0
2, 436032, Note_on_c, 0, 71, 95
2, 436192, Note_off_c, 0, 71, 0
2, 436224, Note_on_c, 0, 66, 95
2, 436412, Note_off_c, 0, 66, 0
2, 436416, Note_on_c, 0, 69, 95
2, 436604, Note_off_c, 0, 69, 0
2, 436608, Note_on_c, 0, 74, 95
2, 436796, Note_off_c, 0, 74, 0
2, 436800, Note_on_c, 0, 69, 95
2, 436988, Note_off_c, 0, 69, 0
2, 436992, Note_on_c, 0, 66, 95
2, 437180, Note_off_c, 0, 66, 0
2, 437184, Note_on_c, 0, 69, 95
2, 437372, Note_off_c, 0, 69, 0
2, 437376, Note_on_c, 0, 67, 95
2, 437564, Note_off_c, 0, 67, 0
2, 437568, Note_on_c, 0, 69, 95
2, 437728, Note_off_c, 0, 69, 0
2, 437760, Note_on_c, 0, 66, 95
2, 437840, Note_off_c, 0, 66, 0
2, 437952, Note_on_c, 0, 67, 95
2, 438032, Note_off_c, 0, 67, 0
2, 438144, Note_on_c, 0, 69, 95
2, 438224, Note_off_c, 0, 69, 0
2, 438336, Note_on_c, 0, 71, 95
2, 438416, Note_off_c, 0, 71, 0
2, 438528, Note_on_c, 0, 73, 95
2, 438608, Note_off_c, 0, 73, 0
2, 438720, Note_on_c, 0, 74, 95
2, 438800, Note_off_c, 0, 74, 0
2, 438912, Note_on_c, 0, 76, 95
2, 438992, Note_off_c, 0, 76, 0
2, 439104, Note_on_c, 0, 78, 95
2, 439184, Note_off_c, 0, 78, 0
2, 439296, Note_on_c, 0, 81, 95
2, 439296, Note_on_c, 0, 61, 95
2, 439484, Note_off_c, 0, 61, 0
2, 439488, Note_on_c, 0, 69, 95
2, 439676, Note_off_c, 0, 81, 0
2, 439676, Note_off_c, 0, 69, 0
2, 439680, Note_on_c, 0, 79, 95
2, 439680, Note_on_c, 0, 64, 95
2, 439868, Note_off_c, 0, 64, 0
2, 439872, Note_on_c, 0, 69, 95
2, 440060, Note_off_c, 0, 69, 0
2, 440064, Note_on_c, 0, 62, 95
2, 440252, Note_off_c, 0, 62, 0
2, 440256, Note_on_c, 0, 69, 95
2, 440444, Note_off_c, 0, 79, 0
2, 440444, Note_off_c, 0, 69, 0
2, 440448, Note_on_c, 0, 78, 95
2, 440448, Note_on_c, 0, 66, 95
2, 440636, Note_off_c, 0, 66, 0
2, 440640, Note_on_c, 0, 69, 95
2, 440800, Note_off_c, 0, 69, 0
2, 440828, Note_off_c, 0, 78, 0
2, 440832, Note_on_c, 0, 76, 95
2, 440832, Note_on_c, 0, 57, 95
2, 441020, Note_off_c, 0, 76, 0
2, 441020, Note_off_c, 0, 57, 0
2, 441024, Note_on_c, 0, 81, 95
2, 441024, Note_on_c, 0, 69, 95
2, 441212, Note_off_c, 0, 81, 0
2, 441212, Note_off_c, 0, 69, 0
2, 441216, Note_on_c, 0, 80, 95
2, 441216, Note_on_c, 0, 61, 95
2, 441404, Note_off_c, 0, 80, 0
2, 441404, Note_off_c, 0, 61, 0
2, 441408, Note_on_c, 0, 81, 95
2, 441408, Note_on_c, 0, 69, 95
2, 441596, Note_off_c, 0, 81, 0
2, 441596, Note_off_c, 0, 69, 0
2, 441600, Note_on_c, 0, 80, 95
2, 441600, Note_on_c, 0, 64, 95
2, 441776, Note_on_c, 0, 81, 95
2, 441788, Note_off_c, 0, 80, 0
2, 441788, Note_off_c, 0, 64, 0
2, 441792, Note_on_c, 0, 69, 95
2, 441964, Note_off_c, 0, 81, 0
2, 441980, Note_off_c, 0, 69, 0
2, 441984, Note_on_c, 0, 62, 95
2, 441984, Note_on_c, 0, 83, 95
2, 442172, Note_off_c, 0, 62, 0
2, 442172, Note_off_c, 0, 83, 0
2, 442176, Note_on_c, 0, 81, 95
2, 442176, Note_on_c, 0, 69, 95
2, 442336, Note_off_c, 0, 69, 0
2, 442364, Note_off_c, 0, 81, 0
2, 442368, Note_on_c, 0, 81, 95
2, 442368, Note_on_c, 0, 61, 95
2, 442556, Note_off_c, 0, 81, 0
2, 442556, Note_off_c, 0, 61, 0
2, 442560, Note_on_c, 0, 79, 95
2, 442560, Note_on_c, 0, 69, 95
2, 442748, Note_off_c, 0, 79, 0
2, 442748, Note_off_c, 0, 69, 0
2, 442752, Note_on_c, 0, 78, 95
2, 442752, Note_on_c, 0, 64, 95
2, 442940, Note_off_c, 0, 78, 0
2, 442940, Note_off_c, 0, 64, 0
2, 442944, Note_on_c, 0, 69, 95
2, 442944, Note_on_c, 0, 79, 95
2, 443120, Note_on_c, 0, 79, 95
2, 443132, Note_off_c, 0, 69, 0
2, 443132, Note_off_c, 0, 79, 0
2, 443136, Note_on_c, 0, 62, 95
2, 443308, Note_off_c, 0, 79, 0
2, 443312, Note_on_c, 0, 78, 95
2, 443324, Note_off_c, 0, 62, 0
2, 443328, Note_on_c, 0, 69, 95
2, 443500, Note_off_c, 0, 78, 0
2, 443516, Note_off_c, 0, 69, 0
2, 443520, Note_on_c, 0, 66, 95
2, 443520, Note_on_c, 0, 77, 95
2, 443708, Note_off_c, 0, 66, 0
2, 443708, Note_off_c, 0, 77, 0
2, 443712, Note_on_c, 0, 78, 95
2, 443712, Note_on_c, 0, 69, 95
2, 443872, Note_off_c, 0, 78, 0
2, 443872, Note_off_c, 0, 69, 0
2, 443904, Note_on_c, 0, 76, 95
2, 443904, Note_on_c, 0, 57, 95
2, 444092, Note_off_c, 0, 76, 0
2, 444092, Note_off_c, 0, 57, 0
2, 444096, Note_on_c, 0, 81, 95
2, 444096, Note_on_c, 0, 69, 95
2, 444284, Note_off_c, 0, 81, 0
2, 444284, Note_off_c, 0, 69, 0
2, 444288, Note_on_c, 0, 80, 95
2, 444288, Note_on_c, 0, 61, 95
2, 444476, Note_off_c, 0, 80, 0
2, 444476, Note_off_c, 0, 61, 0
2, 444480, Note_on_c, 0, 81, 95
2, 444480, Note_on_c, 0, 69, 95
2, 444656, Note_on_c, 0, 82, 95
2, 444668, Note_off_c, 0, 81, 0
2, 444668, Note_off_c, 0, 69, 0
2, 444672, Note_on_c, 0, 64, 95
2, 444844, Note_off_c, 0, 82, 0
2, 444860, Note_off_c, 0, 64, 0
2, 444864, Note_on_c, 0, 83, 95
2, 444864, Note_on_c, 0, 69, 95
2, 445052, Note_off_c, 0, 83, 0
2, 445052, Note_off_c, 0, 69, 0
2, 445056, Note_on_c, 0, 57, 95
2, 445056, Note_on_c, 0, 84, 95
2, 445244, Note_off_c, 0, 57, 0
2, 445244, Note_off_c, 0, 84, 0
2, 445248, Note_on_c, 0, 85, 95
2, 445248, Note_on_c, 0, 67, 95
2, 445436, Note_off_c, 0, 85, 0
2, 445436, Note_off_c, 0, 67, 0
2, 445440, Note_on_c, 0, 86, 95
2, 445440, Note_on_c, 0, 59, 95
2, 445600, Note_off_c, 0, 86, 0
2, 445628, Note_off_c, 0, 59, 0
2, 445632, Note_on_c, 0, 66, 95
2, 445820, Note_off_c, 0, 66, 0
2, 445824, Note_on_c, 0, 78, 95
2, 445824, Note_on_c, 0, 62, 95
2, 446012, Note_off_c, 0, 62, 0
2, 446016, Note_on_c, 0, 66, 95
2, 446204, Note_off_c, 0, 66, 0
2, 446208, Note_on_c, 0, 59, 95
2, 446396, Note_off_c, 0, 59, 0
2, 446400, Note_on_c, 0, 64, 95
2, 446588, Note_off_c, 0, 78, 0
2, 446588, Note_off_c, 0, 64, 0
2, 446592, Note_on_c, 0, 80, 95
2, 446592, Note_on_c, 0, 62, 95
2, 446780, Note_off_c, 0, 62, 0
2, 446784, Note_on_c, 0, 64, 95
2, 446944, Note_off_c, 0, 64, 0
2, 446972, Note_off_c, 0, 80, 0
2, 446976, Note_on_c, 0, 81, 95
2, 446976, Note_on_c, 0, 57, 95
2, 447164, Note_off_c, 0, 57, 0
2, 447168, Note_on_c, 0, 61, 95
2, 447296, Note_off_c, 0, 81, 0
2, 447356, Note_off_c, 0, 61, 0
2, 447360, Note_on_c, 0, 85, 95
2, 447360, Note_on_c, 0, 55, 95
2, 447548, Note_off_c, 0, 85, 0
2, 447548, Note_off_c, 0, 55, 0
2, 447552, Note_on_c, 0, 83, 95
2, 447552, Note_on_c, 0, 62, 95
2, 447712, Note_off_c, 0, 83, 0
2, 447740, Note_off_c, 0, 62, 0
2, 447744, Note_on_c, 0, 81, 95
2, 447744, Note_on_c, 0, 59, 95
2, 447932, Note_off_c, 0, 81, 0
2, 447932, Note_off_c, 0, 59, 0
2, 447936, Note_on_c, 0, 79, 95
2, 447936, Note_on_c, 0, 62, 95
2, 448096, Note_off_c, 0, 79, 0
2, 448124, Note_off_c, 0, 62, 0
2, 448128, Note_on_c, 0, 78, 95
2, 448128, Note_on_c, 0, 55, 95
2, 448316, Note_off_c, 0, 78, 0
2, 448316, Note_off_c, 0, 55, 0
2, 448320, Note_on_c, 0, 76, 95
2, 448320, Note_on_c, 0, 67, 95
2, 448480, Note_off_c, 0, 76, 0
2, 448480, Note_off_c, 0, 67, 0
2, 448512, Note_on_c, 0, 74, 95
2, 448512, Note_on_c, 0, 57, 95
2, 448700, Note_off_c, 0, 57, 0
2, 448704, Note_on_c, 0, 66, 95
2, 448892, Note_off_c, 0, 66, 0
2, 448896, Note_on_c, 0, 62, 95
2, 449084, Note_off_c, 0, 62, 0
2, 449088, Note_on_c, 0, 66, 95
2, 449276, Note_off_c, 0, 66, 0
2, 449280, Note_on_c, 0, 57, 95
2, 449468, Note_off_c, 0, 57, 0
2, 449472, Note_on_c, 0, 67, 95
2, 449660, Note_off_c, 0, 74, 0
2, 449660, Note_off_c, 0, 67, 0
2, 449664, Note_on_c, 0, 78, 95
2, 449664, Note_on_c, 0, 61, 95
2, 449852, Note_off_c, 0, 78, 0
2, 449852, Note_off_c, 0, 61, 0
2, 449856, Note_on_c, 0, 76, 95
2, 449856, Note_on_c, 0, 67, 95
2, 450044, Note_off_c, 0, 76, 0
2, 450044, Note_off_c, 0, 67, 0
2, 450048, Note_on_c, 0, 74, 95
2, 450048, Note_on_c, 0, 66, 95
2, 450048, Note_on_c, 0, 62, 95
2, 450368, Note_off_c, 0, 74, 0
2, 450368, Note_off_c, 0, 66, 0
2, 450368, Note_off_c, 0, 62, 0
2, 451584, Note_on_c, 0, 78, 95
2, 451772, Note_off_c, 0, 78, 0
2, 451776, Note_on_c, 0, 79, 95
2, 451964, Note_off_c, 0, 79, 0
2, 451968, Note_on_c, 0, 78, 95
2, 452156, Note_off_c, 0, 78, 0
2, 452160, Note_on_c, 0, 74, 95
2, 452320, Note_off_c, 0, 74, 0
2, 452352, Note_on_c, 0, 78, 95
2, 452540, Note_off_c, 0, 78, 0
2, 452544, Note_on_c, 0, 76, 95
2, 452732, Note_off_c, 0, 76, 0
2, 452736, Note_on_c, 0, 73, 95
2, 452924, Note_off_c, 0, 73, 0
2, 452928, Note_on_c, 0, 70, 95
2, 453088, Note_off_c, 0, 70, 0
2, 453120, Note_on_c, 0, 71, 95
2, 453280, Note_off_c, 0, 71, 0
2, 453504, Note_on_c, 0, 73, 95
2, 453664, Note_off_c, 0, 73, 0
2, 453888, Note_on_c, 0, 74, 95
2, 454048, Note_off_c, 0, 74, 0
2, 454272, Note_on_c, 0, 75, 95
2, 454432, Note_off_c, 0, 75, 0
2, 454656, Note_on_c, 0, 76, 95
2, 455612, Note_off_c, 0, 76, 0
2, 455616, Note_on_c, 0, 74, 95
2, 455804, Note_off_c, 0, 74, 0
2, 455808, Note_on_c, 0, 71, 95
2, 455996, Note_off_c, 0, 71, 0
2, 456000, Note_on_c, 0, 68, 95
2, 456160, Note_off_c, 0, 68, 0
2, 456192, Note_on_c, 0, 69, 95
2, 456572, Note_off_c, 0, 69, 0
2, 456576, Note_on_c, 0, 71, 95
2, 456764, Note_off_c, 0, 71, 0
2, 456768, Note_on_c, 0, 72, 95
2, 456956, Note_off_c, 0, 72, 0
2, 456960, Note_on_c, 0, 74, 95
2, 457148, Note_off_c, 0, 74, 0
2, 457152, Note_on_c, 0, 76, 95
2, 457340, Note_off_c, 0, 76, 0
2, 457344, Note_on_c, 0, 77, 95
2, 457532, Note_off_c, 0, 77, 0
2, 457536, Note_on_c, 0, 79, 95
2, 457724, Note_off_c, 0, 79, 0
2, 457728, Note_on_c, 0, 81, 95
2, 457888, Note_off_c, 0, 81, 0
2, 458112, Note_on_c, 0, 69, 95
2, 458272, Note_off_c, 0, 69, 0
2, 458496, Note_on_c, 0, 84, 95
2, 459644, Note_off_c, 0, 84, 0
2, 459648, Note_on_c, 0, 83, 95
2, 459836, Note_off_c, 0, 83, 0
2, 459840, Note_on_c, 0, 81, 95
2, 460028, Note_off_c, 0, 81, 0
2, 460032, Note_on_c, 0, 79, 95
2, 460220, Note_off_c, 0, 79, 0
2, 460224, Note_on_c, 0, 77, 95
2, 460412, Note_off_c, 0, 77, 0
2, 460416, Note_on_c, 0, 76, 95
2, 460604, Note_off_c, 0, 76, 0
2, 460608, Note_on_c, 0, 75, 95
2, 460768, Note_off_c, 0, 75, 0
2, 460992, Note_on_c, 0, 76, 95
2, 461180, Note_off_c, 0, 76, 0
2, 461184, Note_on_c, 0, 83, 95
2, 461372, Note_off_c, 0, 83, 0
2, 461376, Note_on_c, 0, 80, 95
2, 461564, Note_off_c, 0, 80, 0
2, 461568, Note_on_c, 0, 76, 95
2, 461756, Note_off_c, 0, 76, 0
2, 461760, Note_on_c, 0, 71, 95
2, 461948, Note_off_c, 0, 71, 0
2, 461952, Note_on_c, 0, 68, 95
2, 462140, Note_off_c, 0, 68, 0
2, 462144, Note_on_c, 0, 64, 95
2, 462304, Note_off_c, 0, 64, 0
2, 462528, Note_on_c, 0, 76, 95
2, 462716, Note_off_c, 0, 76, 0
2, 462720, Note_on_c, 0, 84, 95
2, 462908, Note_off_c, 0, 84, 0
2, 462912, Note_on_c, 0, 81, 95
2, 463100, Note_off_c, 0, 81, 0
2, 463104, Note_on_c, 0, 76, 95
2, 463292, Note_off_c, 0, 76, 0
2, 463296, Note_on_c, 0, 72, 95
2, 463484, Note_off_c, 0, 72, 0
2, 463488, Note_on_c, 0, 69, 95
2, 463676, Note_off_c, 0, 69, 0
2, 463680, Note_on_c, 0, 64, 95
2, 463840, Note_off_c, 0, 64, 0
2, 464064, Note_on_c, 0, 76, 95
2, 464252, Note_off_c, 0, 76, 0
2, 464256, Note_on_c, 0, 83, 95
2, 464444, Note_off_c, 0, 83, 0
2, 464448, Note_on_c, 0, 80, 95
2, 464636, Note_off_c, 0, 80, 0
2, 464640, Note_on_c, 0, 76, 95
2, 464828, Note_off_c, 0, 76, 0
2, 464832, Note_on_c, 0, 71, 95
2, 465020, Note_off_c, 0, 71, 0
2, 465024, Note_on_c, 0, 68, 95
2, 465212, Note_off_c, 0, 68, 0
2, 465216, Note_on_c, 0, 64, 95
2, 465376, Note_off_c, 0, 64, 0
2, 465600, Note_on_c, 0, 76, 95
2, 465788, Note_off_c, 0, 76, 0
2, 465792, Note_on_c, 0, 84, 95
2, 465980, Note_off_c, 0, 84, 0
2, 465984, Note_on_c, 0, 81, 95
2, 466172, Note_off_c, 0, 81, 0
2, 466176, Note_on_c, 0, 76, 95
2, 466364, Note_off_c, 0, 76, 0
2, 466368, Note_on_c, 0, 72, 95
2, 466556, Note_off_c, 0, 72, 0
2, 466560, Note_on_c, 0, 69, 95
2, 466748, Note_off_c, 0, 69, 0
2, 466752, Note_on_c, 0, 64, 95
2, 466912, Note_off_c, 0, 64, 0
2, 467136, Note_on_c, 0, 63, 95
2, 467324, Note_off_c, 0, 63, 0
2, 467328, Note_on_c, 0, 66, 95
2, 467516, Note_off_c, 0, 66, 0
2, 467520, Note_on_c, 0, 64, 95
2, 467708, Note_off_c, 0, 64, 0
2, 467712, Note_on_c, 0, 68, 95
2, 467900, Note_off_c, 0, 68, 0
2, 467904, Note_on_c, 0, 66, 95
2, 468092, Note_off_c, 0, 66, 0
2, 468096, Note_on_c, 0, 69, 95
2, 468284, Note_off_c, 0, 69, 0
2, 468288, Note_on_c, 0, 68, 95
2, 468476, Note_off_c, 0, 68, 0
2, 468480, Note_on_c, 0, 71, 95
2, 468668, Note_off_c, 0, 71, 0
2, 468672, Note_on_c, 0, 69, 95
2, 468860, Note_off_c, 0, 69, 0
2, 468864, Note_on_c, 0, 73, 95
2, 469052, Note_off_c, 0, 73, 0
2, 469056, Note_on_c, 0, 71, 95
2, 469244, Note_off_c, 0, 71, 0
2, 469248, Note_on_c, 0, 74, 95
2, 469436, Note_off_c, 0, 74, 0
2, 469440, Note_on_c, 0, 73, 95
2, 469628, Note_off_c, 0, 73, 0
2, 469632, Note_on_c, 0, 76, 95
2, 469820, Note_off_c, 0, 76, 0
2, 469824, Note_on_c, 0, 74, 95
2, 470012, Note_off_c, 0, 74, 0
2, 470016, Note_on_c, 0, 78, 95
2, 470204, Note_off_c, 0, 78, 0
2, 470208, Note_on_c, 0, 76, 95
2, 470396, Note_off_c, 0, 76, 0
2, 470400, Note_on_c, 0, 80, 95
2, 470588, Note_off_c, 0, 80, 0
2, 470592, Note_on_c, 0, 78, 95
2, 470780, Note_off_c, 0, 78, 0
2, 470784, Note_on_c, 0, 81, 95
2, 470972, Note_off_c, 0, 81, 0
2, 470976, Note_on_c, 0, 80, 95
2, 471164, Note_off_c, 0, 80, 0
2, 471168, Note_on_c, 0, 83, 95
2, 471356, Note_off_c, 0, 83, 0
2, 471360, Note_on_c, 0, 81, 95
2, 471548, Note_off_c, 0, 81, 0
2, 471552, Note_on_c, 0, 85, 95
2, 471740, Note_off_c, 0, 85, 0
2, 471744, Note_on_c, 0, 83, 95
2, 471932, Note_off_c, 0, 83, 0
2, 471936, Note_on_c, 0, 86, 95
2, 472124, Note_off_c, 0, 86, 0
2, 472128, Note_on_c, 0, 85, 95
2, 472316, Note_off_c, 0, 85, 0
2, 472320, Note_on_c, 0, 88, 95
2, 472508, Note_off_c, 0, 88, 0
2, 472512, Note_on_c, 0, 86, 95
2, 472672, Note_off_c, 0, 86, 0
2, 472704, Note_on_c, 0, 85, 95
2, 472784, Note_off_c, 0, 85, 0
2, 472896, Note_on_c, 0, 83, 95
2, 472976, Note_off_c, 0, 83, 0
2, 473088, Note_on_c, 0, 86, 95
2, 473276, Note_off_c, 0, 86, 0
2, 473280, Note_on_c, 0, 85, 95
2, 473440, Note_off_c, 0, 85, 0
2, 473472, Note_on_c, 0, 83, 95
2, 473552, Note_off_c, 0, 83, 0
2, 473664, Note_on_c, 0, 81, 95
2, 473744, Note_off_c, 0, 81, 0
2, 473856, Note_on_c, 0, 85, 95
2, 474044, Note_off_c, 0, 85, 0
2, 474048, Note_on_c, 0, 83, 95
2, 474208, Note_off_c, 0, 83, 0
2, 474240, Note_on_c, 0, 81, 95
2, 474320, Note_off_c, 0, 81, 0
2, 474432, Note_on_c, 0, 80, 95
2, 474512, Note_off_c, 0, 80, 0
2, 474624, Note_on_c, 0, 83, 95
2, 474812, Note_off_c, 0, 83, 0
2, 474816, Note_on_c, 0, 81, 95
2, 474976, Note_off_c, 0, 81, 0
2, 475008, Note_on_c, 0, 80, 95
2, 475088, Note_off_c, 0, 80, 0
2, 475200, Note_on_c, 0, 78, 95
2, 475280, Note_off_c, 0, 78, 0
2, 475392, Note_on_c, 0, 81, 95
2, 475580, Note_off_c, 0, 81, 0
2, 475584, Note_on_c, 0, 80, 95
2, 475744, Note_off_c, 0, 80, 0
2, 475776, Note_on_c, 0, 78, 95
2, 475856, Note_off_c, 0, 78, 0
2, 475968, Note_on_c, 0, 76, 95
2, 476048, Note_off_c, 0, 76, 0
2, 476160, Note_on_c, 0, 80, 95
2, 476348, Note_off_c, 0, 80, 0
2, 476352, Note_on_c, 0, 78, 95
2, 476512, Note_off_c, 0, 78, 0
2, 476544, Note_on_c, 0, 76, 95
2, 476624, Note_off_c, 0, 76, 0
2, 476736, Note_on_c, 0, 74, 95
2, 476816, Note_off_c, 0, 74, 0
2, 476928, Note_on_c, 0, 78, 95
2, 477116, Note_off_c, 0, 78, 0
2, 477120, Note_on_c, 0, 76, 95
2, 477280, Note_off_c, 0, 76, 0
2, 477312, Note_on_c, 0, 74, 95
2, 477392, Note_off_c, 0, 74, 0
2, 477504, Note_on_c, 0, 73, 95
2, 477584, Note_off_c, 0, 73, 0
2, 477696, Note_on_c, 0, 76, 95
2, 478076, Note_off_c, 0, 76, 0
2, 478080, Note_on_c, 0, 74, 95
2, 478400, Note_off_c, 0, 74, 0
2, 478464, Note_on_c, 0, 73, 95
2, 478784, Note_off_c, 0, 73, 0
2, 478848, Note_on_c, 0, 71, 95
2, 479168, Note_off_c, 0, 71, 0
2, 479232, Note_on_c, 0, 73, 70
2, 479612, Note_off_c, 0, 73, 0
2, 479616, Note_on_c, 0, 74, 70
2, 479708, Note_off_c, 0, 74, 0
2, 479712, Note_on_c, 0, 73, 70
2, 479804, Note_off_c, 0, 73, 0
2, 479808, Note_on_c, 0, 71, 70
2, 479900, Note_off_c, 0, 71, 0
2, 479904, Note_on_c, 0, 73, 70
2, 479996, Note_off_c, 0, 73, 0
2, 480000, Note_on_c, 0, 74, 70
2, 480572, Note_off_c, 0, 74, 0
2, 480576, Note_on_c, 0, 71, 70
2, 480764, Note_off_c, 0, 71, 0
2, 480768, Note_on_c, 0, 76, 70
2, 481916, Note_off_c, 0, 76, 0
2, 481920, Note_on_c, 0, 77, 70
2, 482300, Note_off_c, 0, 77, 0
2, 482304, Note_on_c, 0, 78, 70
2, 482624, Note_off_c, 0, 78, 0
2, 482688, Note_on_c, 0, 80, 70
2, 482848, Note_off_c, 0, 80, 0
2, 483072, Note_on_c, 0, 81, 70
2, 483232, Note_off_c, 0, 81, 0
2, 483456, Note_on_c, 0, 80, 70
2, 483616, Note_off_c, 0, 80, 0
2, 483840, Note_on_c, 0, 80, 70
2, 484220, Note_off_c, 0, 80, 0
2, 484224, Note_on_c, 0, 78, 70
2, 484604, Note_off_c, 0, 78, 0
2, 484608, Note_on_c, 0, 76, 70
2, 484928, Note_off_c, 0, 76, 0
2, 485376, Note_on_c, 0, 76, 85
2, 485456, Note_off_c, 0, 76, 0
2, 485472, Note_on_c, 0, 85, 75
2, 485936, Note_off_c, 0, 85, 0
2, 485952, Note_on_c, 0, 81, 73
2, 486140, Note_off_c, 0, 81, 0
2, 486144, Note_on_c, 0, 80, 85
2, 486224, Note_off_c, 0, 80, 0
2, 486240, Note_on_c, 0, 86, 75
2, 486704, Note_off_c, 0, 86, 0
2, 486720, Note_on_c, 0, 83, 73
2, 486908, Note_off_c, 0, 83, 0
2, 486912, Note_on_c, 0, 81, 85
2, 486972, Note_off_c, 0, 81, 0
2, 486980, Note_on_c, 0, 85, 85
2, 487040, Note_off_c, 0, 85, 0
2, 487056, Note_on_c, 0, 88, 75
2, 487288, Note_off_c, 0, 88, 0
2, 487296, Note_on_c, 0, 86, 74
2, 487484, Note_off_c, 0, 86, 0
2, 487488, Note_on_c, 0, 85, 73
2, 487676, Note_off_c, 0, 85, 0
2, 487680, Note_on_c, 0, 83, 72
2, 487868, Note_off_c, 0, 83, 0
2, 487872, Note_on_c, 0, 81, 71
2, 488060, Note_off_c, 0, 81, 0
2, 488064, Note_on_c, 0, 80, 70
2, 488252, Note_off_c, 0, 80, 0
2, 488256, Note_on_c, 0, 78, 70
2, 488444, Note_off_c, 0, 78, 0
2, 488448, Note_on_c, 0, 76, 70
2, 488636, Note_off_c, 0, 76, 0
2, 488640, Note_on_c, 0, 74, 70
2, 488828, Note_off_c, 0, 74, 0
2, 488832, Note_on_c, 0, 73, 70
2, 489020, Note_off_c, 0, 73, 0
2, 489024, Note_on_c, 0, 71, 70
2, 489212, Note_off_c, 0, 71, 0
2, 489216, Note_on_c, 0, 69, 70
2, 489536, Note_off_c, 0, 69, 0
2, 489600, Note_on_c, 0, 78, 70
2, 489920, Note_off_c, 0, 78, 0
2, 489984, Note_on_c, 0, 73, 70
2, 490748, Note_off_c, 0, 73, 0
2, 490752, Note_on_c, 0, 71, 70
2, 491072, Note_off_c, 0, 71, 0
2, 497280, Note_on_c, 0, 76, 95
2, 497280, Note_on_c, 0, 72, 95
2, 497280, Note_on_c, 0, 64, 95
2, 497280, Note_on_c, 0, 60, 95
2, 497660, Note_off_c, 0, 76, 0
2, 497660, Note_off_c, 0, 72, 0
2, 497660, Note_off_c, 0, 64, 0
2, 497660, Note_off_c, 0, 60, 0
2, 497664, Note_on_c, 0, 77, 95
2, 497664, Note_on_c, 0, 74, 95
2, 497664, Note_on_c, 0, 65, 95
2, 497664, Note_on_c, 0, 62, 95
2, 498044, Note_off_c, 0, 77, 0
2, 498044, Note_off_c, 0, 74, 0
2, 498044, Note_off_c, 0, 65, 0
2, 498044, Note_off_c, 0, 62, 0
2, 498048, Note_on_c, 0, 79, 95
2, 498048, Note_on_c, 0, 76, 95
2, 498048, Note_on_c, 0, 67, 95
2, 498048, Note_on_c, 0, 64, 95
2, 498428, Note_off_c, 0, 79, 0
2, 498428, Note_off_c, 0, 76, 0
2, 498428, Note_off_c, 0, 67, 0
2, 498428, Note_off_c, 0, 64, 0
2, 498432, Note_on_c, 0, 81, 95
2, 498432, Note_on_c, 0, 77, 95
2, 498432, Note_on_c, 0, 69, 95
2, 498432, Note_on_c, 0, 65, 95
2, 498812, Note_off_c, 0, 81, 0
2, 498812, Note_off_c, 0, 77, 0
2, 498812, Note_off_c, 0, 69, 0
2, 498812, Note_off_c, 0, 65, 0
2, 498816, Note_on_c, 0, 79, 95
2, 498816, Note_on_c, 0, 76, 95
2, 498816, Note_on_c, 0, 67, 95
2, 498816, Note_on_c, 0, 64, 95
2, 499196, Note_off_c, 0, 79, 0
2, 499196, Note_off_c, 0, 76, 0
2, 499196, Note_off_c, 0, 67, 0
2, 499196, Note_off_c, 0, 64, 0
2, 499200, Note_on_c, 0, 79, 95
2, 499200, Note_on_c, 0, 76, 95
2, 499200, Note_on_c, 0, 67, 95
2, 499200, Note_on_c, 0, 64, 95
2, 499580, Note_off_c, 0, 79, 0
2, 499580, Note_off_c, 0, 76, 0
2, 499580, Note_off_c, 0, 67, 0
2, 499580, Note_off_c, 0, 64, 0
2, 499584, Note_on_c, 0, 77, 95
2, 499584, Note_on_c, 0, 74, 95
2, 499584, Note_on_c, 0, 65, 95
2, 499584, Note_on_c, 0, 62, 95
2, 499964, Note_off_c, 0, 77, 0
2, 499964, Note_off_c, 0, 74, 0
2, 499964, Note_off_c, 0, 65, 0
2, 499964, Note_off_c, 0, 62, 0
2, 499968, Note_on_c, 0, 76, 95
2, 499968, Note_on_c, 0, 72, 95
2, 499968, Note_on_c, 0, 64, 95
2, 499968, Note_on_c, 0, 60, 95
2, 500288, Note_off_c, 0, 76, 0
2, 500288, Note_off_c, 0, 72, 0
2, 500288, Note_off_c, 0, 64, 0
2, 500288, Note_off_c, 0, 60, 0
2, 503424, Note_on_c, 0, 76, 95
2, 503744, Note_off_c, 0, 76, 0
2, 503808, Note_on_c, 0, 75, 95
2, 503808, Note_on_c, 0, 69, 95
2, 503808, Note_on_c, 0, 66, 95
2, 504188, Note_off_c, 0, 75, 0
2, 504192, Note_on_c, 0, 84, 95
2, 504956, Note_off_c, 0, 84, 0
2, 504960, Note_on_c, 0, 75, 95
2, 505280, Note_off_c, 0, 75, 64
2, 505340, Note_off_c, 0, 69, 0
2, 505340, Note_off_c, 0, 66, 0
2, 505344, Note_on_c, 0, 78, 95
2, 505344, Note_on_c, 0, 68, 95
2, 505344, Note_on_c, 0, 64, 95
2, 505664, Note_off_c, 0, 78, 0
2, 505728, Note_on_c, 0, 76, 95
2, 505968, Note_off_c, 0, 68, 0
2, 505968, Note_off_c, 0, 64, 0
2, 506048, Note_off_c, 0, 76, 0
2, 517824, Note_on_c, 0, 76, 95
2, 518012, Note_off_c, 0, 76, 0
2, 518016, Note_on_c, 0, 78, 95
2, 518204, Note_off_c, 0, 78, 0
2, 518208, Note_on_c, 0, 80, 95
2, 518396, Note_off_c, 0, 80, 0
2, 518400, Note_on_c, 0, 81, 95
2, 518588, Note_off_c, 0, 81, 0
2, 518592, Note_on_c, 0, 80, 95
2, 518780, Note_off_c, 0, 80, 0
2, 518784, Note_on_c, 0, 83, 95
2, 518972, Note_off_c, 0, 83, 0
2, 518976, Note_on_c, 0, 81, 95
2, 519164, Note_off_c, 0, 81, 0
2, 519168, Note_on_c, 0, 84, 95
2, 519168, Note_on_c, 0, 69, 95
2, 519356, Note_off_c, 0, 69, 0
2, 519360, Note_on_c, 0, 76, 95
2, 519548, Note_off_c, 0, 76, 0
2, 519552, Note_on_c, 0, 72, 95
2, 519740, Note_off_c, 0, 72, 0
2, 519744, Note_on_c, 0, 76, 95
2, 519932, Note_off_c, 0, 76, 0
2, 519936, Note_on_c, 0, 69, 95
2, 520124, Note_off_c, 0, 69, 0
2, 520128, Note_on_c, 0, 76, 95
2, 520316, Note_off_c, 0, 76, 0
2, 520320, Note_on_c, 0, 72, 95
2, 520508, Note_off_c, 0, 72, 0
2, 520512, Note_on_c, 0, 76, 95
2, 520560, Note_off_c, 0, 84, 0
2, 520672, Note_off_c, 0, 76, 0
2, 520704, Note_on_c, 0, 83, 95
2, 520704, Note_on_c, 0, 68, 95
2, 520892, Note_off_c, 0, 68, 0
2, 520896, Note_on_c, 0, 76, 95
2, 521084, Note_off_c, 0, 83, 0
2, 521084, Note_off_c, 0, 76, 0
2, 521088, Note_on_c, 0, 88, 95
2, 521088, Note_on_c, 0, 74, 95
2, 521276, Note_off_c, 0, 74, 0
2, 521280, Note_on_c, 0, 76, 95
2, 521408, Note_off_c, 0, 88, 0
2, 521468, Note_off_c, 0, 76, 0
2, 521472, Note_on_c, 0, 88, 95
2, 521472, Note_on_c, 0, 68, 95
2, 521660, Note_off_c, 0, 68, 0
2, 521664, Note_on_c, 0, 76, 95
2, 521792, Note_off_c, 0, 88, 0
2, 521852, Note_off_c, 0, 76, 0
2, 521856, Note_on_c, 0, 88, 95
2, 521856, Note_on_c, 0, 74, 95
2, 522044, Note_off_c, 0, 74, 0
2, 522048, Note_on_c, 0, 76, 95
2, 522176, Note_off_c, 0, 88, 0
2, 522208, Note_off_c, 0, 76, 0
2, 522240, Note_on_c, 0, 88, 95
2, 522240, Note_on_c, 0, 69, 95
2, 522428, Note_off_c, 0, 88, 0
2, 522428, Note_off_c, 0, 69, 0
2, 522432, Note_on_c, 0, 87, 95
2, 522432, Note_on_c, 0, 76, 95
2, 522620, Note_off_c, 0, 87, 0
2, 522620, Note_off_c, 0, 76, 0
2, 522624, Note_on_c, 0, 86, 95
2, 522624, Note_on_c, 0, 72, 95
2, 522812, Note_off_c, 0, 86, 0
2, 522812, Note_off_c, 0, 72, 0
2, 522816, Note_on_c, 0, 85, 95
2, 522816, Note_on_c, 0, 76, 95
2, 523004, Note_off_c, 0, 85, 0
2, 523004, Note_off_c, 0, 76, 0
2, 523008, Note_on_c, 0, 84, 95
2, 523008, Note_on_c, 0, 69, 95
2, 523196, Note_off_c, 0, 84, 0
2, 523196, Note_off_c, 0, 69, 0
2, 523200, Note_on_c, 0, 83, 95
2, 523200, Note_on_c, 0, 76, 95
2, 523388, Note_off_c, 0, 83, 0
2, 523388, Note_off_c, 0, 76, 0
2, 523392, Note_on_c, 0, 82, 95
2, 523392, Note_on_c, 0, 72, 95
2, 523580, Note_off_c, 0, 82, 0
2, 523580, Note_off_c, 0, 72, 0
2, 523584, Note_on_c, 0, 81, 95
2, 523584, Note_on_c, 0, 76, 95
2, 523744, Note_off_c, 0, 76, 0
2, 523772, Note_off_c, 0, 81, 0
2, 523776, Note_on_c, 0, 80, 95
2, 523776, Note_on_c, 0, 64, 95
2, 523964, Note_off_c, 0, 64, 0
2, 523968, Note_on_c, 0, 76, 95
2, 524096, Note_off_c, 0, 80, 0
2, 524156, Note_off_c, 0, 76, 0
2, 524160, Note_on_c, 0, 71, 95
2, 524348, Note_off_c, 0, 71, 0
2, 524352, Note_on_c, 0, 76, 95
2, 524540, Note_off_c, 0, 76, 0
2, 524544, Note_on_c, 0, 64, 95
2, 524732, Note_off_c, 0, 64, 0
2, 524736, Note_on_c, 0, 74, 95
2, 524924, Note_off_c, 0, 74, 0
2, 524928, Note_on_c, 0, 71, 95
2, 525116, Note_off_c, 0, 71, 0
2, 525120, Note_on_c, 0, 74, 95
2, 525280, Note_off_c, 0, 74, 0
2, 525312, Note_on_c, 0, 84, 95
2, 525312, Note_on_c, 0, 62, 95
2, 525500, Note_off_c, 0, 62, 0
2, 525504, Note_on_c, 0, 71, 95
2, 525692, Note_off_c, 0, 71, 0
2, 525696, Note_on_c, 0, 69, 95
2, 525884, Note_off_c, 0, 69, 0
2, 525888, Note_on_c, 0, 71, 95
2, 526076, Note_off_c, 0, 71, 0
2, 526080, Note_on_c, 0, 62, 95
2, 526268, Note_off_c, 0, 62, 0
2, 526272, Note_on_c, 0, 71, 95
2, 526460, Note_off_c, 0, 84, 0
2, 526460, Note_off_c, 0, 71, 0
2, 526464, Note_on_c, 0, 86, 95
2, 526464, Note_on_c, 0, 69, 95
2, 526652, Note_off_c, 0, 86, 0
2, 526652, Note_off_c, 0, 69, 0
2, 526656, Note_on_c, 0, 84, 95
2, 526656, Note_on_c, 0, 71, 95
2, 526816, Note_off_c, 0, 71, 0
2, 526844, Note_off_c, 0, 84, 0
2, 526848, Note_on_c, 0, 83, 95
2, 526848, Note_on_c, 0, 62, 95
2, 527036, Note_off_c, 0, 62, 0
2, 527040, Note_on_c, 0, 71, 95
2, 527168, Note_off_c, 0, 83, 0
2, 527228, Note_off_c, 0, 71, 0
2, 527232, Note_on_c, 0, 89, 95
2, 527232, Note_on_c, 0, 69, 95
2, 527392, Note_off_c, 0, 89, 0
2, 527420, Note_off_c, 0, 69, 0
2, 527424, Note_on_c, 0, 71, 95
2, 527612, Note_off_c, 0, 71, 0
2, 527616, Note_on_c, 0, 89, 95
2, 527616, Note_on_c, 0, 62, 95
2, 527776, Note_off_c, 0, 89, 0
2, 527804, Note_off_c, 0, 62, 0
2, 527808, Note_on_c, 0, 71, 95
2, 527996, Note_off_c, 0, 71, 0
2, 528000, Note_on_c, 0, 89, 95
2, 528000, Note_on_c, 0, 69, 95
2, 528160, Note_off_c, 0, 89, 0
2, 528188, Note_off_c, 0, 69, 0
2, 528192, Note_on_c, 0, 71, 95
2, 528352, Note_off_c, 0, 71, 0
2, 528384, Note_on_c, 0, 81, 95
2, 528384, Note_on_c, 0, 64, 95
2, 528572, Note_off_c, 0, 64, 0
2, 528576, Note_on_c, 0, 72, 95
2, 528764, Note_off_c, 0, 72, 0
2, 528768, Note_on_c, 0, 69, 95
2, 528956, Note_off_c, 0, 69, 0
2, 528960, Note_on_c, 0, 72, 95
2, 529148, Note_off_c, 0, 72, 0
2, 529152, Note_on_c, 0, 64, 95
2, 529340, Note_off_c, 0, 64, 0
2, 529344, Note_on_c, 0, 74, 95
2, 529532, Note_off_c, 0, 81, 0
2, 529532, Note_off_c, 0, 74, 0
2, 529536, Note_on_c, 0, 85, 95
2, 529536, Note_on_c, 0, 68, 95
2, 529724, Note_off_c, 0, 85, 0
2, 529724, Note_off_c, 0, 68, 0
2, 529728, Note_on_c, 0, 83, 95
2, 529728, Note_on_c, 0, 74, 95
2, 529916, Note_off_c, 0, 83, 0
2, 529916, Note_off_c, 0, 74, 0
2, 529920, Note_on_c, 0, 81, 95
2, 529920, Note_on_c, 0, 72, 95
2, 529920, Note_on_c, 0, 65, 95
2, 530108, Note_off_c, 0, 81, 0
2, 530112, Note_on_c, 0, 80, 95
2, 530240, Note_off_c, 0, 72, 0
2, 530240, Note_off_c, 0, 65, 0
2, 530300, Note_off_c, 0, 80, 0
2, 530304, Note_on_c, 0, 79, 95
2, 530492, Note_off_c, 0, 79, 0
2, 530496, Note_on_c, 0, 78, 95
2, 530684, Note_off_c, 0, 78, 0
2, 530688, Note_on_c, 0, 77, 95
2, 530876, Note_off_c, 0, 77, 0
2, 530880, Note_on_c, 0, 76, 95
2, 531068, Note_off_c, 0, 76, 0
2, 531072, Note_on_c, 0, 75, 95
2, 531260, Note_off_c, 0, 75, 0
2, 531264, Note_on_c, 0, 74, 95
2, 531452, Note_off_c, 0, 74, 0
2, 531456, Note_on_c, 0, 72, 95
2, 532384, Note_off_c, 0, 72, 0
2, 532608, Note_on_c, 0, 74, 95
2, 532796, Note_off_c, 0, 74, 0
2, 532800, Note_on_c, 0, 72, 95
2, 532988, Note_off_c, 0, 72, 0
2, 532992, Note_on_c, 0, 71, 95
2, 533372, Note_off_c, 0, 71, 0
2, 533376, Note_on_c, 0, 77, 95
2, 533696, Note_off_c, 0, 77, 0
2, 533760, Note_on_c, 0, 77, 95
2, 533920, Note_off_c, 0, 77, 0
2, 534144, Note_on_c, 0, 77, 95
2, 534304, Note_off_c, 0, 77, 0
2, 536064, Note_on_c, 0, 70, 95
2, 536444, Note_off_c, 0, 70, 0
2, 536448, Note_on_c, 0, 77, 95
2, 536768, Note_off_c, 0, 77, 0
2, 536832, Note_on_c, 0, 77, 95
2, 536992, Note_off_c, 0, 77, 0
2, 537216, Note_on_c, 0, 77, 95
2, 537376, Note_off_c, 0, 77, 0
2, 539136, Note_on_c, 0, 70, 95
2, 539516, Note_off_c, 0, 70, 0
2, 539520, Note_on_c, 0, 77, 95
2, 539840, Note_off_c, 0, 77, 0
2, 539904, Note_on_c, 0, 77, 95
2, 540064, Note_off_c, 0, 77, 0
2, 540288, Note_on_c, 0, 77, 95
2, 540448, Note_off_c, 0, 77, 0
2, 541824, Note_on_c, 0, 79, 95
2, 541904, Note_off_c, 0, 79, 0
2, 541920, Note_on_c, 0, 77, 95
2, 542000, Note_off_c, 0, 77, 0
2, 542016, Note_on_c, 0, 76, 95
2, 542096, Note_off_c, 0, 76, 0
2, 542112, Note_on_c, 0, 77, 95
2, 542192, Note_off_c, 0, 77, 0
2, 542208, Note_on_c, 0, 81, 95
2, 542972, Note_off_c, 0, 81, 0
2, 542976, Note_on_c, 0, 77, 95
2, 543164, Note_off_c, 0, 77, 0
2, 543168, Note_on_c, 0, 72, 95
2, 543356, Note_off_c, 0, 72, 0
2, 543360, Note_on_c, 0, 69, 95
2, 543548, Note_off_c, 0, 69, 0
2, 543552, Note_on_c, 0, 65, 95
2, 543740, Note_off_c, 0, 65, 0
2, 543744, Note_on_c, 0, 64, 95
2, 543904, Note_off_c, 0, 64, 0
2, 544128, Note_on_c, 0, 82, 95
2, 544752, Note_off_c, 0, 82, 0
2, 544896, Note_on_c, 0, 64, 95
2, 545216, Note_off_c, 0, 64, 0
2, 545472, Note_on_c, 0, 65, 95
2, 545660, Note_off_c, 0, 65, 0
2, 545664, Note_on_c, 0, 81, 95
2, 545852, Note_off_c, 0, 81, 0
2, 545856, Note_on_c, 0, 76, 95
2, 546044, Note_off_c, 0, 76, 0
2, 546048, Note_on_c, 0, 77, 95
2, 546236, Note_off_c, 0, 77, 0
2, 546240, Note_on_c, 0, 72, 95
2, 546428, Note_off_c, 0, 72, 0
2, 546432, Note_on_c, 0, 69, 95
2, 546620, Note_off_c, 0, 69, 0
2, 546624, Note_on_c, 0, 65, 95
2, 546812, Note_off_c, 0, 65, 0
2, 546816, Note_on_c, 0, 64, 95
2, 547136, Note_off_c, 0, 64, 0
2, 547200, Note_on_c, 0, 82, 95
2, 547824, Note_off_c, 0, 82, 0
2, 547968, Note_on_c, 0, 64, 95
2, 548288, Note_off_c, 0, 64, 0
2, 548544, Note_on_c, 0, 65, 95
2, 548732, Note_off_c, 0, 65, 0
2, 548736, Note_on_c, 0, 81, 95
2, 548924, Note_off_c, 0, 81, 0
2, 548928, Note_on_c, 0, 76, 95
2, 549116, Note_off_c, 0, 76, 0
2, 549120, Note_on_c, 0, 77, 95
2, 549308, Note_off_c, 0, 77, 0
2, 549312, Note_on_c, 0, 74, 95
2, 549500, Note_off_c, 0, 74, 0
2, 549504, Note_on_c, 0, 69, 95
2, 549692, Note_off_c, 0, 69, 0
2, 549696, Note_on_c, 0, 65, 95
2, 549884, Note_off_c, 0, 65, 0
2, 549888, Note_on_c, 0, 66, 95
2, 550208, Note_off_c, 0, 66, 0
2, 550272, Note_on_c, 0, 84, 95
2, 550896, Note_off_c, 0, 84, 0
2, 551040, Note_on_c, 0, 66, 95
2, 551360, Note_off_c, 0, 66, 0
2, 551616, Note_on_c, 0, 64, 95
2, 551804, Note_off_c, 0, 64, 0
2, 551808, Note_on_c, 0, 66, 95
2, 551996, Note_off_c, 0, 66, 0
2, 552000, Note_on_c, 0, 68, 95
2, 552188, Note_off_c, 0, 68, 0
2, 552192, Note_on_c, 0, 69, 95
2, 552380, Note_off_c, 0, 69, 0
2, 552384, Note_on_c, 0, 71, 95
2, 552572, Note_off_c, 0, 71, 0
2, 552576, Note_on_c, 0, 73, 95
2, 552764, Note_off_c, 0, 73, 0
2, 552768, Note_on_c, 0, 74, 95
2, 552956, Note_off_c, 0, 74, 0
2, 552960, Note_on_c, 0, 76, 95
2, 553148, Note_off_c, 0, 76, 0
2, 553152, Note_on_c, 0, 78, 95
2, 553340, Note_off_c, 0, 78, 0
2, 553344, Note_on_c, 0, 80, 95
2, 553532, Note_off_c, 0, 80, 0
2, 553536, Note_on_c, 0, 81, 95
2, 553724, Note_off_c, 0, 81, 0
2, 553728, Note_on_c, 0, 83, 95
2, 553916, Note_off_c, 0, 83, 0
2, 553920, Note_on_c, 0, 85, 95
2, 554108, Note_off_c, 0, 85, 0
2, 554112, Note_on_c, 0, 86, 95
2, 554300, Note_off_c, 0, 86, 0
2, 554304, Note_on_c, 0, 88, 95
2, 554464, Note_off_c, 0, 88, 0
2, 554496, Note_on_c, 0, 76, 95
2, 554684, Note_off_c, 0, 76, 0
2, 554688, Note_on_c, 0, 81, 95
2, 554876, Note_off_c, 0, 81, 0
2, 554880, Note_on_c, 0, 73, 95
2, 555068, Note_off_c, 0, 73, 0
2, 555072, Note_on_c, 0, 76, 95
2, 555260, Note_off_c, 0, 76, 0
2, 555264, Note_on_c, 0, 74, 95
2, 555452, Note_off_c, 0, 74, 0
2, 555456, Note_on_c, 0, 78, 95
2, 555644, Note_off_c, 0, 78, 0
2, 555648, Note_on_c, 0, 71, 95
2, 555836, Note_off_c, 0, 71, 0
2, 555840, Note_on_c, 0, 74, 95
2, 556000, Note_off_c, 0, 74, 0
2, 556032, Note_on_c, 0, 73, 95
2, 556220, Note_off_c, 0, 73, 0
2, 556224, Note_on_c, 0, 76, 95
2, 556412, Note_off_c, 0, 76, 0
2, 556416, Note_on_c, 0, 69, 95
2, 556604, Note_off_c, 0, 69, 0
2, 556608, Note_on_c, 0, 73, 95
2, 556796, Note_off_c, 0, 73, 0
2, 556800, Note_on_c, 0, 71, 95
2, 556988, Note_off_c, 0, 71, 0
2, 556992, Note_on_c, 0, 74, 95
2, 557180, Note_off_c, 0, 74, 0
2, 557184, Note_on_c, 0, 68, 95
2, 557372, Note_off_c, 0, 68, 0
2, 557376, Note_on_c, 0, 71, 95
2, 557536, Note_off_c, 0, 71, 0
2, 557568, Note_on_c, 0, 69, 95
2, 558192, Note_off_c, 0, 69, 0
2, 558912, Note_on_c, 0, 73, 95
2, 559100, Note_off_c, 0, 73, 0
2, 559104, Note_on_c, 0, 76, 95
2, 559104, Note_on_c, 0, 71, 95
2, 559728, Note_off_c, 0, 76, 0
2, 559728, Note_off_c, 0, 71, 0
2, 560448, Note_on_c, 0, 76, 95
2, 560636, Note_off_c, 0, 76, 0
2, 560640, Note_on_c, 0, 81, 95
2, 560640, Note_on_c, 0, 73, 95
2, 560640, Note_on_c, 0, 69, 95
2, 560960, Note_off_c, 0, 73, 0
2, 560960, Note_off_c, 0, 69, 0
2, 561264, Note_off_c, 0, 81, 0
2, 561984, Note_on_c, 0, 69, 95
2, 562172, Note_off_c, 0, 69, 0
2, 562176, Note_on_c, 0, 73, 95
2, 562176, Note_on_c, 0, 68, 95
2, 562800, Note_off_c, 0, 73, 0
2, 562800, Note_off_c, 0, 68, 0
2, 563520, Note_on_c, 0, 73, 95
2, 563708, Note_off_c, 0, 73, 0
2, 563712, Note_on_c, 0, 66, 95
2, 563712, Note_on_c, 0, 69, 95
2, 563712, Note_on_c, 0, 78, 95
2, 564032, Note_off_c, 0, 66, 0
2, 564032, Note_off_c, 0, 69, 0
2, 564336, Note_off_c, 0, 78, 0
2, 565056, Note_on_c, 0, 73, 95
2, 565244, Note_off_c, 0, 73, 0
2, 565248, Note_on_c, 0, 81, 95
2, 565248, Note_on_c, 0, 76, 95
2, 565248, Note_on_c, 0, 69, 95
2, 565568, Note_off_c, 0, 76, 0
2, 565568, Note_off_c, 0, 69, 0
2, 565872, Note_off_c, 0, 81, 0
2, 566592, Note_on_c, 0, 76, 95
2, 566752, Note_off_c, 0, 76, 0
2, 566784, Note_on_c, 0, 75, 95
2, 566972, Note_off_c, 0, 75, 0
2, 566976, Note_on_c, 0, 81, 95
2, 567164, Note_off_c, 0, 81, 0
2, 567168, Note_on_c, 0, 78, 95
2, 567356, Note_off_c, 0, 78, 0
2, 567360, Note_on_c, 0, 76, 95
2, 567548, Note_off_c, 0, 76, 0
2, 567552, Note_on_c, 0, 75, 95
2, 567740, Note_off_c, 0, 75, 0
2, 567744, Note_on_c, 0, 81, 95
2, 567932, Note_off_c, 0, 81, 0
2, 567936, Note_on_c, 0, 78, 95
2, 568124, Note_off_c, 0, 78, 0
2, 568128, Note_on_c, 0, 76, 95
2, 568288, Note_off_c, 0, 76, 0
2, 568320, Note_on_c, 0, 75, 95
2, 568508, Note_off_c, 0, 75, 0
2, 568512, Note_on_c, 0, 81, 95
2, 568700, Note_off_c, 0, 81, 0
2, 568704, Note_on_c, 0, 78, 95
2, 568892, Note_off_c, 0, 78, 0
2, 568896, Note_on_c, 0, 76, 95
2, 569084, Note_off_c, 0, 76, 0
2, 569088, Note_on_c, 0, 75, 95
2, 569276, Note_off_c, 0, 75, 0
2, 569280, Note_on_c, 0, 84, 95
2, 569468, Note_off_c, 0, 84, 0
2, 569472, Note_on_c, 0, 83, 95
2, 569660, Note_off_c, 0, 83, 0
2, 569664, Note_on_c, 0, 81, 95
2, 569824, Note_off_c, 0, 81, 0
2, 569856, Note_on_c, 0, 80, 95
2, 569856, Note_on_c, 0, 64, 95
2, 569856, Note_on_c, 0, 74, 95
2, 569856, Note_on_c, 0, 71, 95
2, 570044, Note_off_c, 0, 80, 0
2, 570048, Note_on_c, 0, 86, 95
2, 570176, Note_off_c, 0, 64, 0
2, 570236, Note_off_c, 0, 86, 0
2, 570240, Note_on_c, 0, 83, 95
2, 570240, Note_on_c, 0, 66, 95
2, 570428, Note_off_c, 0, 83, 0
2, 570432, Note_on_c, 0, 81, 95
2, 570560, Note_off_c, 0, 66, 0
2, 570620, Note_off_c, 0, 81, 0
2, 570624, Note_on_c, 0, 80, 95
2, 570624, Note_on_c, 0, 64, 95
2, 570812, Note_off_c, 0, 80, 0
2, 570816, Note_on_c, 0, 86, 95
2, 570944, Note_off_c, 0, 64, 0
2, 571004, Note_off_c, 0, 86, 0
2, 571008, Note_on_c, 0, 83, 95
2, 571008, Note_on_c, 0, 65, 95
2, 571196, Note_off_c, 0, 83, 0
2, 571200, Note_on_c, 0, 81, 95
2, 571328, Note_off_c, 0, 65, 0
2, 571360, Note_off_c, 0, 81, 0
2, 571392, Note_on_c, 0, 80, 95
2, 571392, Note_on_c, 0, 64, 95
2, 571580, Note_off_c, 0, 80, 0
2, 571584, Note_on_c, 0, 86, 95
2, 571712, Note_off_c, 0, 64, 0
2, 571772, Note_off_c, 0, 86, 0
2, 571776, Note_on_c, 0, 83, 95
2, 571776, Note_on_c, 0, 65, 95
2, 571964, Note_off_c, 0, 83, 0
2, 571968, Note_on_c, 0, 81, 95
2, 572096, Note_off_c, 0, 65, 0
2, 572156, Note_off_c, 0, 81, 0
2, 572160, Note_on_c, 0, 80, 95
2, 572160, Note_on_c, 0, 64, 95
2, 572320, Note_off_c, 0, 74, 64
2, 572320, Note_off_c, 0, 71, 64
2, 572348, Note_off_c, 0, 80, 0
2, 572352, Note_on_c, 0, 89, 95
2, 572480, Note_off_c, 0, 64, 0
2, 572540, Note_off_c, 0, 89, 0
2, 572544, Note_on_c, 0, 88, 95
2, 572732, Note_off_c, 0, 88, 0
2, 572736, Note_on_c, 0, 86, 95
2, 572896, Note_off_c, 0, 86, 0
2, 572928, Note_on_c, 0, 85, 95
2, 572928, Note_on_c, 0, 69, 95
2, 572928, Note_on_c, 0, 79, 95
2, 572928, Note_on_c, 0, 76, 95
2, 573116, Note_off_c, 0, 85, 0
2, 573120, Note_on_c, 0, 86, 95
2, 573248, Note_off_c, 0, 69, 0
2, 573308, Note_off_c, 0, 86, 0
2, 573312, Note_on_c, 0, 88, 95
2, 573312, Note_on_c, 0, 70, 95
2, 573500, Note_off_c, 0, 88, 0
2, 573504, Note_on_c, 0, 86, 95
2, 573632, Note_off_c, 0, 70, 0
2, 573692, Note_off_c, 0, 86, 0
2, 573696, Note_on_c, 0, 85, 95
2, 573696, Note_on_c, 0, 69, 95
2, 573884, Note_off_c, 0, 85, 0
2, 573888, Note_on_c, 0, 86, 95
2, 574016, Note_off_c, 0, 69, 0
2, 574076, Note_off_c, 0, 86, 0
2, 574080, Note_on_c, 0, 88, 95
2, 574080, Note_on_c, 0, 70, 95
2, 574268, Note_off_c, 0, 88, 0
2, 574272, Note_on_c, 0, 86, 95
2, 574400, Note_off_c, 0, 70, 0
2, 574460, Note_off_c, 0, 86, 0
2, 574464, Note_on_c, 0, 85, 95
2, 574464, Note_on_c, 0, 69, 95
2, 574652, Note_off_c, 0, 85, 0
2, 574656, Note_on_c, 0, 86, 95
2, 574784, Note_off_c, 0, 69, 0
2, 574844, Note_off_c, 0, 86, 0
2, 574848, Note_on_c, 0, 88, 95
2, 574848, Note_on_c, 0, 70, 95
2, 575036, Note_off_c, 0, 88, 0
2, 575040, Note_on_c, 0, 86, 95
2, 575168, Note_off_c, 0, 70, 0
2, 575228, Note_off_c, 0, 86, 0
2, 575232, Note_on_c, 0, 85, 95
2, 575232, Note_on_c, 0, 69, 95
2, 575392, Note_off_c, 0, 79, 64
2, 575392, Note_off_c, 0, 76, 64
2, 575420, Note_off_c, 0, 85, 0
2, 575424, Note_on_c, 0, 83, 95
2, 575552, Note_off_c, 0, 69, 0
2, 575612, Note_off_c, 0, 83, 0
2, 575616, Note_on_c, 0, 81, 95
2, 575804, Note_off_c, 0, 81, 0
2, 575808, Note_on_c, 0, 79, 95
2, 575968, Note_off_c, 0, 79, 0
2, 576000, Note_on_c, 0, 78, 95
2, 576188, Note_off_c, 0, 78, 0
2, 576192, Note_on_c, 0, 81, 95
2, 576380, Note_off_c, 0, 81, 0
2, 576384, Note_on_c, 0, 78, 95
2, 576572, Note_off_c, 0, 78, 0
2, 576576, Note_on_c, 0, 76, 95
2, 576764, Note_off_c, 0, 76, 0
2, 576768, Note_on_c, 0, 74, 95
2, 576956, Note_off_c, 0, 74, 0
2, 576960, Note_on_c, 0, 78, 95
2, 577148, Note_off_c, 0, 78, 0
2, 577152, Note_on_c, 0, 74, 95
2, 577340, Note_off_c, 0, 74, 0
2, 577344, Note_on_c, 0, 73, 95
2, 577532, Note_off_c, 0, 73, 0
2, 577536, Note_on_c, 0, 71, 95
2, 577724, Note_off_c, 0, 71, 0
2, 577728, Note_on_c, 0, 74, 95
2, 577916, Note_off_c, 0, 74, 0
2, 577920, Note_on_c, 0, 71, 95
2, 578108, Note_off_c, 0, 71, 0
2, 578112, Note_on_c, 0, 69, 95
2, 578300, Note_off_c, 0, 69, 0
2, 578304, Note_on_c, 0, 68, 95
2, 578492, Note_off_c, 0, 68, 0
2, 578496, Note_on_c, 0, 71, 95
2, 578684, Note_off_c, 0, 71, 0
2, 578688, Note_on_c, 0, 68, 95
2, 578876, Note_off_c, 0, 68, 0
2, 578880, Note_on_c, 0, 66, 95
2, 579068, Note_off_c, 0, 66, 0
2, 579072, Note_on_c, 0, 64, 95
2, 579260, Note_off_c, 0, 64, 0
2, 579264, Note_on_c, 0, 68, 95
2, 579452, Note_off_c, 0, 68, 0
2, 579456, Note_on_c, 0, 64, 95
2, 579644, Note_off_c, 0, 64, 0
2, 579648, Note_on_c, 0, 62, 95
2, 579836, Note_off_c, 0, 62, 0
2, 579840, Note_on_c, 0, 61, 95
2, 580028, Note_off_c, 0, 61, 0
2, 580032, Note_on_c, 0, 64, 95
2, 580220, Note_off_c, 0, 64, 0
2, 580224, Note_on_c, 0, 61, 95
2, 580412, Note_off_c, 0, 61, 0
2, 580416, Note_on_c, 0, 59, 95
2, 580604, Note_off_c, 0, 59, 0
2, 580608, Note_on_c, 0, 57, 95
2, 580796, Note_off_c, 0, 57, 0
2, 580800, Note_on_c, 0, 61, 95
2, 580988, Note_off_c, 0, 61, 0
2, 580992, Note_on_c, 0, 57, 95
2, 581180, Note_off_c, 0, 57, 0
2, 581184, Note_on_c, 0, 56, 95
2, 581372, Note_off_c, 0, 56, 0
2, 581376, Note_on_c, 0, 54, 95
2, 581564, Note_off_c, 0, 54, 0
2, 581568, Note_on_c, 0, 57, 95
2, 581756, Note_off_c, 0, 57, 0
2, 581760, Note_on_c, 0, 54, 95
2, 581948, Note_off_c, 0, 54, 0
2, 581952, Note_on_c, 0, 52, 95
2, 582140, Note_off_c, 0, 52, 0
2, 582144, Note_on_c, 0, 50, 95
2, 582332, Note_off_c, 0, 50, 0
2, 582336, Note_on_c, 0, 52, 95
2, 582524, Note_off_c, 0, 52, 0
2, 582528, Note_on_c, 0, 54, 95
2, 582716, Note_off_c, 0, 54, 0
2, 582720, Note_on_c, 0, 56, 95
2, 582908, Note_off_c, 0, 56, 0
2, 582912, Note_on_c, 0, 57, 95
2, 583100, Note_off_c, 0, 57, 0
2, 583104, Note_on_c, 0, 59, 95
2, 583292, Note_off_c, 0, 59, 0
2, 583296, Note_on_c, 0, 61, 95
2, 583484, Note_off_c, 0, 61, 0
2, 583488, Note_on_c, 0, 62, 95
2, 583648, Note_off_c, 0, 62, 0
2, 583680, Note_on_c, 0, 64, 95
2, 583868, Note_off_c, 0, 64, 0
2, 583872, Note_on_c, 0, 66, 95
2, 584060, Note_off_c, 0, 66, 0
2, 584064, Note_on_c, 0, 68, 95
2, 584252, Note_off_c, 0, 68, 0
2, 584256, Note_on_c, 0, 69, 95
2, 584444, Note_off_c, 0, 69, 0
2, 584448, Note_on_c, 0, 71, 95
2, 584636, Note_off_c, 0, 71, 0
2, 584640, Note_on_c, 0, 73, 95
2, 584828, Note_off_c, 0, 73, 0
2, 584832, Note_on_c, 0, 74, 95
2, 585020, Note_off_c, 0, 74, 0
2, 585024, Note_on_c, 0, 76, 95
2, 585184, Note_off_c, 0, 76, 0
2, 585216, Note_on_c, 0, 78, 95
2, 585404, Note_off_c, 0, 78, 0
2, 585408, Note_on_c, 0, 80, 95
2, 585596, Note_off_c, 0, 80, 0
2, 585600, Note_on_c, 0, 81, 95
2, 585788, Note_off_c, 0, 81, 0
2, 585792, Note_on_c, 0, 80, 95
2, 585980, Note_off_c, 0, 80, 0
2, 585984, Note_on_c, 0, 78, 95
2, 586172, Note_off_c, 0, 78, 0
2, 586176, Note_on_c, 0, 76, 95
2, 586364, Note_off_c, 0, 76, 0
2, 586368, Note_on_c, 0, 74, 95
2, 586556, Note_off_c, 0, 74, 0
2, 586560, Note_on_c, 0, 73, 95
2, 586748, Note_off_c, 0, 73, 0
2, 586752, Note_on_c, 0, 71, 95
2, 586940, Note_off_c, 0, 71, 0
2, 586944, Note_on_c, 0, 73, 95
2, 587132, Note_off_c, 0, 73, 0
2, 587136, Note_on_c, 0, 74, 95
2, 587324, Note_off_c, 0, 74, 0
2, 587328, Note_on_c, 0, 73, 95
2, 587516, Note_off_c, 0, 73, 0
2, 587520, Note_on_c, 0, 71, 95
2, 587708, Note_off_c, 0, 71, 0
2, 587712, Note_on_c, 0, 69, 95
2, 587900, Note_off_c, 0, 69, 0
2, 587904, Note_on_c, 0, 68, 95
2, 588092, Note_off_c, 0, 68, 0
2, 588096, Note_on_c, 0, 66, 95
2, 588256, Note_off_c, 0, 66, 0
2, 588288, Note_on_c, 0, 64, 95
2, 588476, Note_off_c, 0, 64, 0
2, 588480, Note_on_c, 0, 69, 95
2, 588668, Note_off_c, 0, 69, 0
2, 588672, Note_on_c, 0, 73, 95
2, 588860, Note_off_c, 0, 73, 0
2, 588864, Note_on_c, 0, 76, 95
2, 589024, Note_off_c, 0, 76, 0
2, 589056, Note_on_c, 0, 69, 95
2, 589244, Note_off_c, 0, 69, 0
2, 589248, Note_on_c, 0, 73, 95
2, 589436, Note_off_c, 0, 73, 0
2, 589440, Note_on_c, 0, 76, 95
2, 589628, Note_off_c, 0, 76, 0
2, 589632, Note_on_c, 0, 81, 95
2, 589792, Note_off_c, 0, 81, 0
2, 589824, Note_on_c, 0, 71, 95
2, 589904, Note_off_c, 0, 71, 0
2, 589920, Note_on_c, 0, 73, 95
2, 590000, Note_off_c, 0, 73, 0
2, 590016, Note_on_c, 0, 71, 95
2, 590096, Note_off_c, 0, 71, 0
2, 590112, Note_on_c, 0, 73, 95
2, 590192, Note_off_c, 0, 73, 0
2, 590208, Note_on_c, 0, 71, 95
2, 590288, Note_off_c, 0, 71, 0
2, 590304, Note_on_c, 0, 73, 95
2, 590384, Note_off_c, 0, 73, 0
2, 590400, Note_on_c, 0, 71, 95
2, 590480, Note_off_c, 0, 71, 0
2, 590496, Note_on_c, 0, 73, 95
2, 590576, Note_off_c, 0, 73, 0
2, 590592, Note_on_c, 0, 71, 95
2, 590672, Note_off_c, 0, 71, 0
2, 590688, Note_on_c, 0, 73, 95
2, 590768, Note_off_c, 0, 73, 0
2, 590784, Note_on_c, 0, 71, 95
2, 590864, Note_off_c, 0, 71, 0
2, 590880, Note_on_c, 0, 73, 95
2, 590960, Note_off_c, 0, 73, 0
2, 590976, Note_on_c, 0, 71, 95
2, 591056, Note_off_c, 0, 71, 0
2, 591072, Note_on_c, 0, 73, 95
2, 591152, Note_off_c, 0, 73, 0
2, 591168, Note_on_c, 0, 69, 95
2, 591248, Note_off_c, 0, 69, 0
2, 591264, Note_on_c, 0, 71, 95
2, 591344, Note_off_c, 0, 71, 0
2, 591552, Note_on_c, 0, 64, 95
2, 591740, Note_off_c, 0, 64, 0
2, 591744, Note_on_c, 0, 69, 95
2, 591932, Note_off_c, 0, 69, 0
2, 591936, Note_on_c, 0, 73, 95
2, 592124, Note_off_c, 0, 73, 0
2, 592128, Note_on_c, 0, 76, 95
2, 592316, Note_off_c, 0, 76, 0
2, 592320, Note_on_c, 0, 81, 95
2, 592508, Note_off_c, 0, 81, 0
2, 592512, Note_on_c, 0, 85, 95
2, 592700, Note_off_c, 0, 85, 0
2, 592704, Note_on_c, 0, 88, 95
2, 592864, Note_off_c, 0, 88, 0
2, 593088, Note_on_c, 0, 88, 95
2, 593276, Note_off_c, 0, 88, 0
2, 593280, Note_on_c, 0, 83, 95
2, 593468, Note_off_c, 0, 83, 0
2, 593472, Note_on_c, 0, 80, 95
2, 593660, Note_off_c, 0, 80, 0
2, 593664, Note_on_c, 0, 76, 95
2, 593852, Note_off_c, 0, 76, 0
2, 593856, Note_on_c, 0, 71, 95
2, 594044, Note_off_c, 0, 71, 0
2, 594048, Note_on_c, 0, 68, 95
2, 594236, Note_off_c, 0, 68, 0
2, 594240, Note_on_c, 0, 64, 95
2, 594400, Note_off_c, 0, 64, 0
2, 594624, Note_on_c, 0, 61, 95
2, 594812, Note_off_c, 0, 61, 0
2, 594816, Note_on_c, 0, 66, 95
2, 595004, Note_off_c, 0, 66, 0
2, 595008, Note_on_c, 0, 69, 95
2, 595196, Note_off_c, 0, 69, 0
2, 595200, Note_on_c, 0, 73, 95
2, 595388, Note_off_c, 0, 73, 0
2, 595392, Note_on_c, 0, 78, 95
2, 595580, Note_off_c, 0, 78, 0
2, 595584, Note_on_c, 0, 81, 95
2, 595772, Note_off_c, 0, 81, 0
2, 595776, Note_on_c, 0, 85, 95
2, 595936, Note_off_c, 0, 85, 0
2, 596160, Note_on_c, 0, 85, 95
2, 596348, Note_off_c, 0, 85, 0
2, 596352, Note_on_c, 0, 80, 95
2, 596540, Note_off_c, 0, 80, 0
2, 596544, Note_on_c, 0, 76, 95
2, 596732, Note_off_c, 0, 76, 0
2, 596736, Note_on_c, 0, 73, 95
2, 596924, Note_off_c, 0, 73, 0
2, 596928, Note_on_c, 0, 68, 95
2, 597116, Note_off_c, 0, 68, 0
2, 597120, Note_on_c, 0, 64, 95
2, 597308, Note_off_c, 0, 64, 0
2, 597312, Note_on_c, 0, 61, 95
2, 597472, Note_off_c, 0, 61, 0
2, 597696, Note_on_c, 0, 57, 95
2, 597884, Note_off_c, 0, 57, 0
2, 597888, Note_on_c, 0, 62, 95
2, 598076, Note_off_c, 0, 62, 0
2, 598080, Note_on_c, 0, 66, 95
2, 598268, Note_off_c, 0, 66, 0
2, 598272, Note_on_c, 0, 69, 95
2, 598460, Note_off_c, 0, 69, 0
2, 598464, Note_on_c, 0, 74, 95
2, 598652, Note_off_c, 0, 74, 0
2, 598656, Note_on_c, 0, 78, 95
2, 598844, Note_off_c, 0, 78, 0
2, 598848, Note_on_c, 0, 81, 95
2, 599008, Note_off_c, 0, 81, 0
2, 599232, Note_on_c, 0, 81, 95
2, 599420, Note_off_c, 0, 81, 0
2, 599424, Note_on_c, 0, 76, 95
2, 599612, Note_off_c, 0, 76, 0
2, 599616, Note_on_c, 0, 73, 95
2, 599804, Note_off_c, 0, 73, 0
2, 599808, Note_on_c, 0, 69, 95
2, 599996, Note_off_c, 0, 69, 0
2, 600000, Note_on_c, 0, 64, 95
2, 600188, Note_off_c, 0, 64, 0
2, 600192, Note_on_c, 0, 61, 95
2, 600380, Note_off_c, 0, 61, 0
2, 600384, Note_on_c, 0, 57, 95
2, 600544, Note_off_c, 0, 57, 0
2, 600576, Note_on_c, 0, 63, 95
2, 600956, Note_off_c, 0, 63, 0
2, 600960, Note_on_c, 0, 66, 95
2, 601040, Note_off_c, 0, 66, 0
2, 601056, Note_on_c, 0, 64, 95
2, 601340, Note_off_c, 0, 64, 0
2, 601344, Note_on_c, 0, 63, 95
2, 601724, Note_off_c, 0, 63, 0
2, 601728, Note_on_c, 0, 66, 95
2, 601808, Note_off_c, 0, 66, 0
2, 601824, Note_on_c, 0, 64, 95
2, 602108, Note_off_c, 0, 64, 64
2, 602112, Note_on_c, 0, 63, 95
2, 602492, Note_off_c, 0, 63, 0
2, 602496, Note_on_c, 0, 66, 95
2, 602576, Note_off_c, 0, 66, 0
2, 602592, Note_on_c, 0, 64, 95
2, 602876, Note_off_c, 0, 64, 0
2, 602880, Note_on_c, 0, 63, 95
2, 603200, Note_off_c, 0, 63, 0
2, 603264, Note_on_c, 0, 69, 95
2, 603584, Note_off_c, 0, 69, 0
2, 603648, Note_on_c, 0, 68, 95
2, 604028, Note_off_c, 0, 68, 0
2, 604032, Note_on_c, 0, 71, 95
2, 604112, Note_off_c, 0, 71, 0
2, 604128, Note_on_c, 0, 69, 95
2, 604412, Note_off_c, 0, 69, 0
2, 604416, Note_on_c, 0, 68, 95
2, 604796, Note_off_c, 0, 68, 0
2, 604800, Note_on_c, 0, 71, 95
2, 604880, Note_off_c, 0, 71, 0
2, 604896, Note_on_c, 0, 69, 95
2, 605180, Note_off_c, 0, 69, 64
2, 605184, Note_on_c, 0, 68, 95
2, 605564, Note_off_c, 0, 68, 0
2, 605568, Note_on_c, 0, 71, 95
2, 605648, Note_off_c, 0, 71, 0
2, 605664, Note_on_c, 0, 69, 95
2, 605948, Note_off_c, 0, 69, 0
2, 605952, Note_on_c, 0, 68, 95
2, 606272, Note_off_c, 0, 68, 0
2, 606336, Note_on_c, 0, 74, 95
2, 606656, Note_off_c, 0, 74, 0
2, 606720, Note_on_c, 0, 73, 95
2, 606720, Note_on_c, 0, 57, 95
2, 606908, Note_off_c, 0, 57, 0
2, 606912, Note_on_c, 0, 67, 95
2, 607100, Note_off_c, 0, 73, 0
2, 607100, Note_off_c, 0, 67, 0
2, 607104, Note_on_c, 0, 76, 95
2, 607104, Note_on_c, 0, 58, 95
2, 607184, Note_off_c, 0, 76, 0
2, 607200, Note_on_c, 0, 74, 95
2, 607292, Note_off_c, 0, 58, 0
2, 607296, Note_on_c, 0, 67, 95
2, 607484, Note_off_c, 0, 74, 0
2, 607484, Note_off_c, 0, 67, 0
2, 607488, Note_on_c, 0, 73, 95
2, 607488, Note_on_c, 0, 57, 95
2, 607676, Note_off_c, 0, 57, 0
2, 607680, Note_on_c, 0, 67, 95
2, 607868, Note_off_c, 0, 73, 0
2, 607868, Note_off_c, 0, 67, 0
2, 607872, Note_on_c, 0, 76, 95
2, 607872, Note_on_c, 0, 58, 95
2, 607952, Note_off_c, 0, 76, 0
2, 607968, Note_on_c, 0, 74, 95
2, 608060, Note_off_c, 0, 58, 0
2, 608064, Note_on_c, 0, 67, 95
2, 608252, Note_off_c, 0, 74, 64
2, 608252, Note_off_c, 0, 67, 0
2, 608256, Note_on_c, 0, 73, 95
2, 608256, Note_on_c, 0, 57, 95
2, 608444, Note_off_c, 0, 57, 0
2, 608448, Note_on_c, 0, 67, 95
2, 608636, Note_off_c, 0, 73, 0
2, 608636, Note_off_c, 0, 67, 0
2, 608640, Note_on_c, 0, 76, 95
2, 608640, Note_on_c, 0, 58, 95
2, 608720, Note_off_c, 0, 76, 0
2, 608736, Note_on_c, 0, 74, 95
2, 608736, Note_on_c, 0, 67, 95
2, 608828, Note_off_c, 0, 58, 0
2, 608924, Note_off_c, 0, 67, 0
2, 609020, Note_off_c, 0, 74, 0
2, 609024, Note_on_c, 0, 73, 95
2, 609024, Note_on_c, 0, 57, 95
2, 609344, Note_off_c, 0, 73, 0
2, 609344, Note_off_c, 0, 57, 0
2, 609408, Note_on_c, 0, 79, 95
2, 609728, Note_off_c, 0, 79, 0
2, 609792, Note_on_c, 0, 78, 95
2, 609792, Note_on_c, 0, 62, 95
2, 609980, Note_off_c, 0, 62, 0
2, 609984, Note_on_c, 0, 74, 95
2, 610172, Note_off_c, 0, 78, 0
2, 610172, Note_off_c, 0, 74, 0
2, 610176, Note_on_c, 0, 81, 95
2, 610176, Note_on_c, 0, 61, 95
2, 610364, Note_off_c, 0, 61, 0
2, 610368, Note_on_c, 0, 73, 95
2, 610496, Note_off_c, 0, 81, 0
2, 610556, Note_off_c, 0, 73, 0
2, 610560, Note_on_c, 0, 74, 95
2, 610560, Note_on_c, 0, 59, 95
2, 610748, Note_off_c, 0, 59, 0
2, 610752, Note_on_c, 0, 71, 95
2, 610940, Note_off_c, 0, 74, 0
2, 610940, Note_off_c, 0, 71, 0
2, 610944, Note_on_c, 0, 78, 95
2, 610944, Note_on_c, 0, 57, 95
2, 611132, Note_off_c, 0, 57, 0
2, 611136, Note_on_c, 0, 69, 95
2, 611264, Note_off_c, 0, 78, 0
2, 611324, Note_off_c, 0, 69, 0
2, 611328, Note_on_c, 0, 71, 95
2, 611328, Note_on_c, 0, 56, 95
2, 611516, Note_off_c, 0, 56, 0
2, 611520, Note_on_c, 0, 68, 95
2, 611708, Note_off_c, 0, 71, 0
2, 611708, Note_off_c, 0, 68, 0
2, 611712, Note_on_c, 0, 74, 95
2, 611712, Note_on_c, 0, 54, 95
2, 611900, Note_off_c, 0, 54, 0
2, 611904, Note_on_c, 0, 66, 95
2, 612032, Note_off_c, 0, 74, 0
2, 612092, Note_off_c, 0, 66, 0
2, 612096, Note_on_c, 0, 68, 95
2, 612096, Note_on_c, 0, 52, 95
2, 612284, Note_off_c, 0, 52, 0
2, 612288, Note_on_c, 0, 64, 95
2, 612476, Note_off_c, 0, 68, 0
2, 612476, Note_off_c, 0, 64, 0
2, 612480, Note_on_c, 0, 71, 95
2, 612480, Note_on_c, 0, 50, 95
2, 612668, Note_off_c, 0, 50, 0
2, 612672, Note_on_c, 0, 62, 95
2, 612800, Note_off_c, 0, 71, 0
2, 612860, Note_off_c, 0, 62, 0
2, 612864, Note_on_c, 0, 64, 95
2, 613052, Note_off_c, 0, 64, 0
2, 613056, Note_on_c, 0, 76, 95
2, 613216, Note_off_c, 0, 76, 0
2, 613248, Note_on_c, 0, 68, 95
2, 613436, Note_off_c, 0, 68, 0
2, 613440, Note_on_c, 0, 80, 95
2, 613600, Note_off_c, 0, 80, 0
2, 613632, Note_on_c, 0, 61, 95
2, 613820, Note_off_c, 0, 61, 0
2, 613824, Note_on_c, 0, 73, 95
2, 613984, Note_off_c, 0, 73, 0
2, 614016, Note_on_c, 0, 64, 95
2, 614204, Note_off_c, 0, 64, 0
2, 614208, Note_on_c, 0, 76, 95
2, 614368, Note_off_c, 0, 76, 0
2, 614400, Note_on_c, 0, 57, 95
2, 614588, Note_off_c, 0, 57, 0
2, 614592, Note_on_c, 0, 69, 95
2, 614752, Note_off_c, 0, 69, 0
2, 614784, Note_on_c, 0, 61, 95
2, 614972, Note_off_c, 0, 61, 0
2, 614976, Note_on_c, 0, 73, 95
2, 615136, Note_off_c, 0, 73, 0
2, 615168, Note_on_c, 0, 54, 95
2, 615356, Note_off_c, 0, 54, 0
2, 615360, Note_on_c, 0, 66, 95
2, 615520, Note_off_c, 0, 66, 0
2, 615552, Note_on_c, 0, 57, 95
2, 615740, Note_off_c, 0, 57, 0
2, 615744, Note_on_c, 0, 69, 95
2, 615904, Note_off_c, 0, 69, 0
2, 616704, Note_on_c, 0, 62, 95
2, 616892, Note_off_c, 0, 62, 0
2, 616896, Note_on_c, 0, 68, 95
2, 617084, Note_off_c, 0, 68, 0
2, 617088, Note_on_c, 0, 71, 95
2, 617276, Note_off_c, 0, 71, 0
2, 617280, Note_on_c, 0, 74, 95
2, 617440, Note_off_c, 0, 74, 0
2, 618240, Note_on_c, 0, 64, 95
2, 618428, Note_off_c, 0, 64, 0
2, 618432, Note_on_c, 0, 70, 95
2, 618620, Note_off_c, 0, 70, 0
2, 618624, Note_on_c, 0, 73, 95
2, 618812, Note_off_c, 0, 73, 0
2, 618816, Note_on_c, 0, 76, 95
2, 618976, Note_off_c, 0, 76, 0
2, 619776, Note_on_c, 0, 66, 95
2, 619964, Note_off_c, 0, 66, 0
2, 619968, Note_on_c, 0, 71, 95
2, 620156, Note_off_c, 0, 71, 0
2, 620160, Note_on_c, 0, 74, 95
2, 620348, Note_off_c, 0, 74, 0
2, 620352, Note_on_c, 0, 78, 95
2, 620512, Note_off_c, 0, 78, 0
2, 620736, Note_on_c, 0, 57, 95
2, 620924, Note_off_c, 0, 57, 0
2, 620928, Note_on_c, 0, 60, 95
2, 621116, Note_off_c, 0, 60, 0
2, 621120, Note_on_c, 0, 66, 95
2, 621308, Note_off_c, 0, 66, 0
2, 621312, Note_on_c, 0, 69, 95
2, 621500, Note_off_c, 0, 69, 0
2, 621504, Note_on_c, 0, 72, 95
2, 621692, Note_off_c, 0, 72, 0
2, 621696, Note_on_c, 0, 78, 95
2, 621884, Note_off_c, 0, 78, 0
2, 621888, Note_on_c, 0, 81, 95
2, 622048, Note_off_c, 0, 81, 0
2, 622272, Note_on_c, 0, 64, 95
2, 622460, Note_off_c, 0, 64, 0
2, 622464, Note_on_c, 0, 62, 95
2, 622652, Note_off_c, 0, 62, 0
2, 622656, Note_on_c, 0, 64, 95
2, 622844, Note_off_c, 0, 64, 0
2, 622848, Note_on_c, 0, 66, 95
2, 623036, Note_off_c, 0, 66, 0
2, 623040, Note_on_c, 0, 64, 95
2, 623228, Note_off_c, 0, 64, 0
2, 623232, Note_on_c, 0, 68, 95
2, 623420, Note_off_c, 0, 68, 0
2, 623424, Note_on_c, 0, 64, 95
2, 623612, Note_off_c, 0, 64, 0
2, 623616, Note_on_c, 0, 69, 95
2, 623804, Note_off_c, 0, 69, 0
2, 623808, Note_on_c, 0, 64, 95
2, 623996, Note_off_c, 0, 64, 0
2, 624000, Note_on_c, 0, 71, 95
2, 624188, Note_off_c, 0, 71, 0
2, 624192, Note_on_c, 0, 64, 95
2, 624380, Note_off_c, 0, 64, 0
2, 624384, Note_on_c, 0, 73, 95
2, 624572, Note_off_c, 0, 73, 0
2, 624576, Note_on_c, 0, 64, 95
2, 624764, Note_off_c, 0, 64, 0
2, 624768, Note_on_c, 0, 74, 95
2, 624956, Note_off_c, 0, 74, 0
2, 624960, Note_on_c, 0, 64, 95
2, 625148, Note_off_c, 0, 64, 0
2, 625152, Note_on_c, 0, 76, 95
2, 625312, Note_off_c, 0, 76, 0
2, 625536, Note_on_c, 0, 77, 95
2, 625696, Note_off_c, 0, 77, 0
2, 625920, Note_on_c, 0, 78, 95
2, 626080, Note_off_c, 0, 78, 0
2, 626304, Note_on_c, 0, 80, 95
2, 626464, Note_off_c, 0, 80, 0
2, 626688, Note_on_c, 0, 81, 95
2, 626848, Note_off_c, 0, 81, 0
2, 627072, Note_on_c, 0, 83, 95
2, 627232, Note_off_c, 0, 83, 0
2, 627456, Note_on_c, 0, 85, 95
2, 627616, Note_off_c, 0, 85, 0
2, 627840, Note_on_c, 0, 86, 95
2, 628000, Note_off_c, 0, 86, 0
2, 628224, Note_on_c, 0, 88, 95
2, 628412, Note_off_c, 0, 88, 0
2, 628416, Note_on_c, 0, 85, 95
2, 628604, Note_off_c, 0, 85, 0
2, 628608, Note_on_c, 0, 81, 95
2, 628796, Note_off_c, 0, 81, 0
2, 628800, Note_on_c, 0, 76, 95
2, 628960, Note_off_c, 0, 76, 0
2, 628992, Note_on_c, 0, 81, 95
2, 629180, Note_off_c, 0, 81, 0
2, 629184, Note_on_c, 0, 76, 95
2, 629372, Note_off_c, 0, 76, 0
2, 629376, Note_on_c, 0, 73, 95
2, 629564, Note_off_c, 0, 73, 0
2, 629568, Note_on_c, 0, 69, 95
2, 629728, Note_off_c, 0, 69, 0
2, 629760, Note_on_c, 0, 71, 95
2, 629840, Note_off_c, 0, 71, 0
2, 629856, Note_on_c, 0, 73, 95
2, 629936, Note_off_c, 0, 73, 0
2, 629952, Note_on_c, 0, 71, 95
2, 630032, Note_off_c, 0, 71, 0
2, 630048, Note_on_c, 0, 73, 95
2, 630128, Note_off_c, 0, 73, 0
2, 630144, Note_on_c, 0, 71, 95
2, 630224, Note_off_c, 0, 71, 0
2, 630240, Note_on_c, 0, 73, 95
2, 630320, Note_off_c, 0, 73, 0
2, 630336, Note_on_c, 0, 71, 95
2, 630416, Note_off_c, 0, 71, 0
2, 630432, Note_on_c, 0, 73, 95
2, 630512, Note_off_c, 0, 73, 0
2, 630528, Note_on_c, 0, 71, 95
2, 630608, Note_off_c, 0, 71, 0
2, 630624, Note_on_c, 0, 73, 95
2, 630704, Note_off_c, 0, 73, 0
2, 630720, Note_on_c, 0, 71, 95
2, 630800, Note_off_c, 0, 71, 0
2, 630816, Note_on_c, 0, 73, 95
2, 630896, Note_off_c, 0, 73, 0
2, 630912, Note_on_c, 0, 71, 95
2, 630992, Note_off_c, 0, 71, 0
2, 631008, Note_on_c, 0, 73, 95
2, 631088, Note_off_c, 0, 73, 0
2, 631104, Note_on_c, 0, 69, 95
2, 631184, Note_off_c, 0, 69, 0
2, 631200, Note_on_c, 0, 71, 95
2, 631280, Note_off_c, 0, 71, 0
2, 631296, Note_on_c, 0, 69, 95
2, 631616, Note_off_c, 0, 69, 0
2, 632832, Note_on_c, 0, 64, 95
2, 633980, Note_off_c, 0, 64, 0
2, 633984, Note_on_c, 0, 66, 95
2, 634172, Note_off_c, 0, 66, 0
2, 634176, Note_on_c, 0, 68, 95
2, 634336, Note_off_c, 0, 68, 0
2, 634368, Note_on_c, 0, 69, 95
2, 634528, Note_off_c, 0, 69, 0
2, 634752, Note_on_c, 0, 69, 95
2, 634912, Note_off_c, 0, 69, 0
2, 635136, Note_on_c, 0, 69, 95
2, 635324, Note_off_c, 0, 69, 0
2, 635328, Note_on_c, 0, 71, 95
2, 635516, Note_off_c, 0, 71, 0
2, 635520, Note_on_c, 0, 73, 95
2, 635708, Note_off_c, 0, 73, 0
2, 635712, Note_on_c, 0, 74, 95
2, 635872, Note_off_c, 0, 74, 0
2, 635904, Note_on_c, 0, 76, 95
2, 636064, Note_off_c, 0, 76, 0
2, 636288, Note_on_c, 0, 76, 95
2, 636448, Note_off_c, 0, 76, 0
2, 636672, Note_on_c, 0, 76, 95
2, 637052, Note_off_c, 0, 76, 0
2, 637056, Note_on_c, 0, 78, 95
2, 637244, Note_off_c, 0, 78, 0
2, 637248, Note_on_c, 0, 80, 95
2, 637436, Note_off_c, 0, 80, 0
2, 637440, Note_on_c, 0, 81, 95
2, 637760, Note_off_c, 0, 81, 0
2, 637824, Note_on_c, 0, 81, 95
2, 637984, Note_off_c, 0, 81, 0
2, 638208, Note_on_c, 0, 81, 95
2, 638588, Note_off_c, 0, 81, 0
2, 638592, Note_on_c, 0, 80, 95
2, 638780, Note_off_c, 0, 80, 0
2, 638784, Note_on_c, 0, 78, 95
2, 638972, Note_off_c, 0, 78, 0
2, 638976, Note_on_c, 0, 76, 95
2, 639296, Note_off_c, 0, 76, 0
2, 639360, Note_on_c, 0, 76, 95
2, 639520, Note_off_c, 0, 76, 0
2, 639744, Note_on_c, 0, 76, 95
2, 639932, Note_off_c, 0, 76, 0
2, 639936, Note_on_c, 0, 74, 95
2, 640124, Note_off_c, 0, 74, 0
2, 640128, Note_on_c, 0, 73, 95
2, 640316, Note_off_c, 0, 73, 0
2, 640320, Note_on_c, 0, 71, 95
2, 640508, Note_off_c, 0, 71, 0
2, 640512, Note_on_c, 0, 69, 95
2, 640832, Note_off_c, 0, 69, 0
2, 640896, Note_on_c, 0, 73, 95
2, 641084, Note_off_c, 0, 73, 0
2, 641088, Note_on_c, 0, 69, 95
2, 641276, Note_off_c, 0, 69, 0
2, 641280, Note_on_c, 0, 64, 95
2, 641600, Note_off_c, 0, 64, 0
2, 641664, Note_on_c, 0, 64, 95
2, 641984, Note_off_c, 0, 64, 0
2, 642048, Note_on_c, 0, 74, 95
2, 642428, Note_off_c, 0, 74, 0
2, 642432, Note_on_c, 0, 71, 95
2, 642752, Note_off_c, 0, 71, 0
2, 643200, Note_on_c, 0, 64, 95
2, 643520, Note_off_c, 0, 64, 0
2, 643584, Note_on_c, 0, 76, 95
2, 643964, Note_off_c, 0, 76, 0
2, 643968, Note_on_c, 0, 73, 95
2, 644288, Note_off_c, 0, 73, 0
2, 644736, Note_on_c, 0, 64, 95
2, 645056, Note_off_c, 0, 64, 0
2, 645120, Note_on_c, 0, 74, 95
2, 645308, Note_off_c, 0, 74, 0
2, 645312, Note_on_c, 0, 73, 95
2, 645500, Note_off_c, 0, 73, 0
2, 645504, Note_on_c, 0, 71, 95
2, 645692, Note_off_c, 0, 71, 0
2, 645696, Note_on_c, 0, 69, 95
2, 645884, Note_off_c, 0, 69, 0
2, 645888, Note_on_c, 0, 68, 95
2, 646208, Note_off_c, 0, 68, 0
2, 646272, Note_on_c, 0, 64, 95
2, 646592, Note_off_c, 0, 64, 0
2, 646656, Note_on_c, 0, 76, 95
2, 646844, Note_off_c, 0, 76, 0
2, 646848, Note_on_c, 0, 74, 95
2, 647036, Note_off_c, 0, 74, 0
2, 647040, Note_on_c, 0, 73, 95
2, 647228, Note_off_c, 0, 73, 0
2, 647232, Note_on_c, 0, 71, 95
2, 647420, Note_off_c, 0, 71, 0
2, 647424, Note_on_c, 0, 69, 95
2, 647744, Note_off_c, 0, 69, 0
2, 647808, Note_on_c, 0, 69, 95
2, 648128, Note_off_c, 0, 69, 0
2, 648192, Note_on_c, 0, 68, 95
2, 648380, Note_off_c, 0, 68, 0
2, 648384, Note_on_c, 0, 69, 95
2, 648572, Note_off_c, 0, 69, 0
2, 648576, Note_on_c, 0, 71, 95
2, 648764, Note_off_c, 0, 71, 0
2, 648768, Note_on_c, 0, 73, 95
2, 648956, Note_off_c, 0, 73, 0
2, 648960, Note_on_c, 0, 74, 95
2, 649148, Note_off_c, 0, 74, 0
2, 649152, Note_on_c, 0, 76, 95
2, 649340, Note_off_c, 0, 76, 0
2, 649344, Note_on_c, 0, 78, 95
2, 649532, Note_off_c, 0, 78, 0
2, 649536, Note_on_c, 0, 80, 95
2, 649696, Note_off_c, 0, 80, 0
2, 649728, Note_on_c, 0, 81, 95
2, 649916, Note_off_c, 0, 81, 0
2, 649920, Note_on_c, 0, 76, 95
2, 650108, Note_off_c, 0, 76, 0
2, 650112, Note_on_c, 0, 73, 95
2, 650300, Note_off_c, 0, 73, 0
2, 650304, Note_on_c, 0, 69, 95
2, 650492, Note_off_c, 0, 69, 0
2, 650496, Note_on_c, 0, 73, 95
2, 650684, Note_off_c, 0, 73, 0
2, 650688, Note_on_c, 0, 71, 95
2, 650876, Note_off_c, 0, 71, 0
2, 650880, Note_on_c, 0, 74, 95
2, 651068, Note_off_c, 0, 74, 0
2, 651072, Note_on_c, 0, 71, 95
2, 651232, Note_off_c, 0, 71, 0
2, 651264, Note_on_c, 0, 76, 95
2, 651452, Note_off_c, 0, 76, 0
2, 651456, Note_on_c, 0, 73, 95
2, 651644, Note_off_c, 0, 73, 0
2, 651648, Note_on_c, 0, 69, 95
2, 651836, Note_off_c, 0, 69, 0
2, 651840, Note_on_c, 0, 76, 95
2, 652028, Note_off_c, 0, 76, 0
2, 652032, Note_on_c, 0, 78, 95
2, 652220, Note_off_c, 0, 78, 0
2, 652224, Note_on_c, 0, 74, 95
2, 652412, Note_off_c, 0, 74, 0
2, 652416, Note_on_c, 0, 80, 95
2, 652604, Note_off_c, 0, 80, 0
2, 652608, Note_on_c, 0, 76, 95
2, 652768, Note_off_c, 0, 76, 0
2, 652800, Note_on_c, 0, 81, 95
2, 652988, Note_off_c, 0, 81, 0
2, 652992, Note_on_c, 0, 76, 95
2, 653180, Note_off_c, 0, 76, 0
2, 653184, Note_on_c, 0, 73, 95
2, 653372, Note_off_c, 0, 73, 0
2, 653376, Note_on_c, 0, 69, 95
2, 653564, Note_off_c, 0, 69, 0
2, 653568, Note_on_c, 0, 69, 95
2, 653756, Note_off_c, 0, 69, 0
2, 653760, Note_on_c, 0, 66, 95
2, 653948, Note_off_c, 0, 66, 0
2, 653952, Note_on_c, 0, 71, 95
2, 654140, Note_off_c, 0, 71, 0
2, 654144, Note_on_c, 0, 68, 95
2, 654304, Note_off_c, 0, 68, 0
2, 654336, Note_on_c, 0, 73, 95
2, 654524, Note_off_c, 0, 73, 0
2, 654528, Note_on_c, 0, 69, 95
2, 654716, Note_off_c, 0, 69, 0
2, 654720, Note_on_c, 0, 66, 95
2, 654908, Note_off_c, 0, 66, 0
2, 654912, Note_on_c, 0, 73, 95
2, 655100, Note_off_c, 0, 73, 0
2, 655104, Note_on_c, 0, 74, 95
2, 655292, Note_off_c, 0, 74, 0
2, 655296, Note_on_c, 0, 71, 95
2, 655484, Note_off_c, 0, 71, 0
2, 655488, Note_on_c, 0, 77, 95
2, 655676, Note_off_c, 0, 77, 0
2, 655680, Note_on_c, 0, 73, 95
2, 655840, Note_off_c, 0, 73, 0
2, 655872, Note_on_c, 0, 78, 95
2, 656060, Note_off_c, 0, 78, 0
2, 656064, Note_on_c, 0, 73, 95
2, 656252, Note_off_c, 0, 73, 0
2, 656256, Note_on_c, 0, 69, 95
2, 656444, Note_off_c, 0, 69, 0
2, 656448, Note_on_c, 0, 66, 95
2, 656636, Note_off_c, 0, 66, 0
2, 656640, Note_on_c, 0, 66, 95
2, 656828, Note_off_c, 0, 66, 0
2, 656832, Note_on_c, 0, 62, 95
2, 657020, Note_off_c, 0, 62, 0
2, 657024, Note_on_c, 0, 67, 95
2, 657212, Note_off_c, 0, 67, 0
2, 657216, Note_on_c, 0, 64, 95
2, 657376, Note_off_c, 0, 64, 0
2, 657408, Note_on_c, 0, 69, 95
2, 657596, Note_off_c, 0, 69, 0
2, 657600, Note_on_c, 0, 66, 95
2, 657788, Note_off_c, 0, 66, 0
2, 657792, Note_on_c, 0, 62, 95
2, 657980, Note_off_c, 0, 62, 0
2, 657984, Note_on_c, 0, 69, 95
2, 658172, Note_off_c, 0, 69, 0
2, 658176, Note_on_c, 0, 71, 95
2, 658364, Note_off_c, 0, 71, 0
2, 658368, Note_on_c, 0, 67, 95
2, 658556, Note_off_c, 0, 67, 0
2, 658560, Note_on_c, 0, 73, 95
2, 658748, Note_off_c, 0, 73, 0
2, 658752, Note_on_c, 0, 69, 95
2, 658912, Note_off_c, 0, 69, 0
2, 658944, Note_on_c, 0, 74, 95
2, 659132, Note_off_c, 0, 74, 0
2, 659136, Note_on_c, 0, 69, 95
2, 659324, Note_off_c, 0, 69, 0
2, 659328, Note_on_c, 0, 76, 95
2, 659516, Note_off_c, 0, 76, 0
2, 659520, Note_on_c, 0, 69, 95
2, 659708, Note_off_c, 0, 69, 0
2, 659712, Note_on_c, 0, 78, 95
2, 659900, Note_off_c, 0, 78, 0
2, 659904, Note_on_c, 0, 69, 95
2, 660092, Note_off_c, 0, 69, 0
2, 660096, Note_on_c, 0, 80, 95
2, 660284, Note_off_c, 0, 80, 0
2, 660288, Note_on_c, 0, 69, 95
2, 660476, Note_off_c, 0, 69, 0
2, 660480, Note_on_c, 0, 81, 95
2, 660668, Note_off_c, 0, 81, 0
2, 660672, Note_on_c, 0, 76, 95
2, 660860, Note_off_c, 0, 76, 0
2, 660864, Note_on_c, 0, 83, 95
2, 661052, Note_off_c, 0, 83, 0
2, 661056, Note_on_c, 0, 76, 95
2, 661244, Note_off_c, 0, 76, 0
2, 661248, Note_on_c, 0, 85, 95
2, 661436, Note_off_c, 0, 85, 0
2, 661440, Note_on_c, 0, 76, 95
2, 661628, Note_off_c, 0, 76, 0
2, 661632, Note_on_c, 0, 87, 95
2, 661820, Note_off_c, 0, 87, 0
2, 661824, Note_on_c, 0, 76, 95
2, 661984, Note_off_c, 0, 76, 0
2, 662016, Note_on_c, 0, 88, 95
2, 662204, Note_off_c, 0, 88, 0
2, 662208, Note_on_c, 0, 87, 95
2, 662396, Note_off_c, 0, 87, 0
2, 662400, Note_on_c, 0, 85, 95
2, 662588, Note_off_c, 0, 85, 0
2, 662592, Note_on_c, 0, 83, 95
2, 662780, Note_off_c, 0, 83, 0
2, 662784, Note_on_c, 0, 81, 95
2, 662972, Note_off_c, 0, 81, 0
2, 662976, Note_on_c, 0, 80, 95
2, 663164, Note_off_c, 0, 80, 0
2, 663168, Note_on_c, 0, 78, 95
2, 663356, Note_off_c, 0, 78, 0
2, 663360, Note_on_c, 0, 76, 95
2, 663520, Note_off_c, 0, 76, 0
2, 663552, Note_on_c, 0, 75, 95
2, 663740, Note_off_c, 0, 75, 0
2, 663744, Note_on_c, 0, 76, 95
2, 663932, Note_off_c, 0, 76, 0
2, 663936, Note_on_c, 0, 78, 95
2, 664124, Note_off_c, 0, 78, 0
2, 664128, Note_on_c, 0, 80, 95
2, 664316, Note_off_c, 0, 80, 0
2, 664320, Note_on_c, 0, 81, 95
2, 664508, Note_off_c, 0, 81, 0
2, 664512, Note_on_c, 0, 83, 95
2, 664700, Note_off_c, 0, 83, 0
2, 664704, Note_on_c, 0, 85, 95
2, 664892, Note_off_c, 0, 85, 0
2, 664896, Note_on_c, 0, 87, 95
2, 665084, Note_off_c, 0, 87, 0
2, 665088, Note_on_c, 0, 88, 95
2, 665276, Note_off_c, 0, 88, 0
2, 665280, Note_on_c, 0, 87, 95
2, 665468, Note_off_c, 0, 87, 0
2, 665472, Note_on_c, 0, 85, 95
2, 665660, Note_off_c, 0, 85, 0
2, 665664, Note_on_c, 0, 83, 95
2, 665852, Note_off_c, 0, 83, 0
2, 665856, Note_on_c, 0, 81, 95
2, 666044, Note_off_c, 0, 81, 0
2, 666048, Note_on_c, 0, 80, 95
2, 666236, Note_off_c, 0, 80, 0
2, 666240, Note_on_c, 0, 78, 95
2, 666428, Note_off_c, 0, 78, 0
2, 666432, Note_on_c, 0, 76, 95
2, 666592, Note_off_c, 0, 76, 0
2, 666624, Note_on_c, 0, 75, 95
2, 666812, Note_off_c, 0, 75, 0
2, 666816, Note_on_c, 0, 76, 95
2, 667004, Note_off_c, 0, 76, 0
2, 667008, Note_on_c, 0, 78, 95
2, 667196, Note_off_c, 0, 78, 0
2, 667200, Note_on_c, 0, 80, 95
2, 667388, Note_off_c, 0, 80, 0
2, 667392, Note_on_c, 0, 81, 95
2, 667580, Note_off_c, 0, 81, 0
2, 667584, Note_on_c, 0, 83, 95
2, 667772, Note_off_c, 0, 83, 0
2, 667776, Note_on_c, 0, 85, 95
2, 667964, Note_off_c, 0, 85, 0
2, 667968, Note_on_c, 0, 87, 95
2, 668156, Note_off_c, 0, 87, 0
2, 668160, Note_on_c, 0, 88, 95
2, 668348, Note_off_c, 0, 88, 0
2, 668352, Note_on_c, 0, 87, 95
2, 668540, Note_off_c, 0, 87, 0
2, 668544, Note_on_c, 0, 85, 95
2, 668732, Note_off_c, 0, 85, 0
2, 668736, Note_on_c, 0, 83, 95
2, 668924, Note_off_c, 0, 83, 0
2, 668928, Note_on_c, 0, 81, 95
2, 669116, Note_off_c, 0, 81, 0
2, 669120, Note_on_c, 0, 80, 95
2, 669308, Note_off_c, 0, 80, 0
2, 669312, Note_on_c, 0, 78, 95
2, 669500, Note_off_c, 0, 78, 0
2, 669504, Note_on_c, 0, 76, 95
2, 669692, Note_off_c, 0, 76, 0
2, 669696, Note_on_c, 0, 75, 95
2, 669884, Note_off_c, 0, 75, 0
2, 669888, Note_on_c, 0, 73, 95
2, 670076, Note_off_c, 0, 73, 0
2, 670080, Note_on_c, 0, 71, 95
2, 670268, Note_off_c, 0, 71, 0
2, 670272, Note_on_c, 0, 69, 95
2, 670460, Note_off_c, 0, 69, 0
2, 670464, Note_on_c, 0, 68, 95
2, 670652, Note_off_c, 0, 68, 0
2, 670656, Note_on_c, 0, 66, 95
2, 670844, Note_off_c, 0, 66, 0
2, 670848, Note_on_c, 0, 64, 95
2, 671036, Note_off_c, 0, 64, 0
2, 671040, Note_on_c, 0, 63, 95
2, 671200, Note_off_c, 0, 63, 0
2, 671424, Note_on_c, 0, 64, 95
2, 671612, Note_off_c, 0, 64, 0
2, 671616, Note_on_c, 0, 63, 95
2, 671804, Note_off_c, 0, 63, 0
2, 671808, Note_on_c, 0, 64, 95
2, 671996, Note_off_c, 0, 64, 0
2, 672000, Note_on_c, 0, 63, 95
2, 672188, Note_off_c, 0, 63, 0
2, 672192, Note_on_c, 0, 64, 95
2, 672380, Note_off_c, 0, 64, 0
2, 672384, Note_on_c, 0, 63, 95
2, 672572, Note_off_c, 0, 63, 0
2, 672576, Note_on_c, 0, 64, 95
2, 672764, Note_off_c, 0, 64, 0
2, 672768, Note_on_c, 0, 63, 95
2, 672956, Note_off_c, 0, 63, 0
2, 672960, Note_on_c, 0, 64, 95
2, 673148, Note_off_c, 0, 64, 0
2, 673152, Note_on_c, 0, 65, 105
2, 673340, Note_off_c, 0, 65, 0
2, 673344, Note_on_c, 0, 64, 95
2, 673532, Note_off_c, 0, 64, 0
2, 673536, Note_on_c, 0, 66, 105
2, 673724, Note_off_c, 0, 66, 0
2, 673728, Note_on_c, 0, 64, 95
2, 673916, Note_off_c, 0, 64, 0
2, 673920, Note_on_c, 0, 67, 105
2, 674108, Note_off_c, 0, 67, 0
2, 674112, Note_on_c, 0, 64, 95
2, 674300, Note_off_c, 0, 64, 0
2, 674304, Note_on_c, 0, 68, 105
2, 674492, Note_off_c, 0, 68, 0
2, 674496, Note_on_c, 0, 64, 95
2, 674684, Note_off_c, 0, 64, 0
2, 674688, Note_on_c, 0, 69, 105
2, 674876, Note_off_c, 0, 69, 0
2, 674880, Note_on_c, 0, 64, 95
2, 675068, Note_off_c, 0, 64, 0
2, 675072, Note_on_c, 0, 70, 105
2, 675260, Note_off_c, 0, 70, 0
2, 675264, Note_on_c, 0, 64, 95
2, 675452, Note_off_c, 0, 64, 0
2, 675456, Note_on_c, 0, 71, 105
2, 675644, Note_off_c, 0, 71, 0
2, 675648, Note_on_c, 0, 64, 95
2, 675836, Note_off_c, 0, 64, 0
2, 675840, Note_on_c, 0, 72, 105
2, 676028, Note_off_c, 0, 72, 0
2, 676032, Note_on_c, 0, 64, 95
2, 676220, Note_off_c, 0, 64, 0
2, 676224, Note_on_c, 0, 73, 105
2, 676412, Note_off_c, 0, 73, 0
2, 676416, Note_on_c, 0, 64, 95
2, 676604, Note_off_c, 0, 64, 0
2, 676608, Note_on_c, 0, 74, 105
2, 676796, Note_off_c, 0, 74, 0
2, 676800, Note_on_c, 0, 64, 95
2, 676988, Note_off_c, 0, 64, 0
2, 676992, Note_on_c, 0, 75, 105
2, 677180, Note_off_c, 0, 75, 0
2, 677184, Note_on_c, 0, 64, 95
2, 677372, Note_off_c, 0, 64, 0
2, 677376, Note_on_c, 0, 76, 105
2, 677696, Note_off_c, 0, 76, 0
2, 678144, Note_on_c, 0, 69, 95
2, 678464, Note_off_c, 0, 69, 0
2, 678912, Note_on_c, 0, 81, 95
2, 680060, Note_off_c, 0, 81, 0
2, 680064, Note_on_c, 0, 80, 95
2, 680252, Note_off_c, 0, 80, 0
2, 680256, Note_on_c, 0, 78, 95
2, 680444, Note_off_c, 0, 78, 0
2, 680448, Note_on_c, 0, 78, 95
2, 680636, Note_off_c, 0, 78, 0
2, 680640, Note_on_c, 0, 76, 95
2, 680828, Note_off_c, 0, 76, 0
2, 680832, Note_on_c, 0, 74, 95
2, 681020, Note_off_c, 0, 74, 0
2, 681024, Note_on_c, 0, 73, 95
2, 681184, Note_off_c, 0, 73, 0
2, 681216, Note_on_c, 0, 74, 95
2, 681404, Note_off_c, 0, 74, 0
2, 681408, Note_on_c, 0, 71, 95
2, 681596, Note_off_c, 0, 71, 0
2, 681600, Note_on_c, 0, 73, 95
2, 681788, Note_off_c, 0, 73, 0
2, 681792, Note_on_c, 0, 69, 95
2, 681952, Note_off_c, 0, 69, 0
2, 681984, Note_on_c, 0, 73, 95
2, 682172, Note_off_c, 0, 73, 0
2, 682176, Note_on_c, 0, 71, 95
2, 682364, Note_off_c, 0, 71, 0
2, 682368, Note_on_c, 0, 69, 95
2, 682556, Note_off_c, 0, 69, 0
2, 682560, Note_on_c, 0, 68, 95
2, 682748, Note_off_c, 0, 68, 0
2, 682752, Note_on_c, 0, 66, 95
2, 682940, Note_off_c, 0, 66, 0
2, 682944, Note_on_c, 0, 64, 95
2, 683132, Note_off_c, 0, 64, 0
2, 683136, Note_on_c, 0, 63, 95
2, 683324, Note_off_c, 0, 63, 0
2, 683328, Note_on_c, 0, 64, 95
2, 683488, Note_off_c, 0, 64, 0
2, 683520, Note_on_c, 0, 76, 95
2, 683840, Note_off_c, 0, 76, 0
2, 684288, Note_on_c, 0, 69, 95
2, 684608, Note_off_c, 0, 69, 0
2, 685056, Note_on_c, 0, 81, 95
2, 685376, Note_off_c, 0, 81, 0
2, 685440, Note_on_c, 0, 81, 95
2, 686204, Note_off_c, 0, 81, 0
2, 686208, Note_on_c, 0, 80, 95
2, 686396, Note_off_c, 0, 80, 0
2, 686400, Note_on_c, 0, 78, 95
2, 686588, Note_off_c, 0, 78, 0
2, 686592, Note_on_c, 0, 76, 95
2, 686780, Note_off_c, 0, 76, 0
2, 686784, Note_on_c, 0, 81, 95
2, 686972, Note_off_c, 0, 81, 0
2, 686976, Note_on_c, 0, 78, 95
2, 687164, Note_off_c, 0, 78, 0
2, 687168, Note_on_c, 0, 74, 95
2, 687328, Note_off_c, 0, 74, 0
2, 687360, Note_on_c, 0, 73, 95
2, 687548, Note_off_c, 0, 73, 0
2, 687552, Note_on_c, 0, 76, 95
2, 687740, Note_off_c, 0, 76, 0
2, 687744, Note_on_c, 0, 74, 95
2, 687932, Note_off_c, 0, 74, 0
2, 687936, Note_on_c, 0, 71, 95
2, 688124, Note_off_c, 0, 71, 0
2, 688128, Note_on_c, 0, 69, 95
2, 688288, Note_off_c, 0, 69, 0
2, 688320, Note_on_c, 0, 68, 95
2, 688508, Note_off_c, 0, 68, 0
2, 688512, Note_on_c, 0, 69, 95
2, 688700, Note_off_c, 0, 69, 0
2, 688704, Note_on_c, 0, 71, 95
2, 688892, Note_off_c, 0, 71, 0
2, 688896, Note_on_c, 0, 72, 95
2, 689084, Note_off_c, 0, 72, 0
2, 689088, Note_on_c, 0, 73, 95
2, 689276, Note_off_c, 0, 73, 0
2, 689280, Note_on_c, 0, 74, 95
2, 689468, Note_off_c, 0, 74, 0
2, 689472, Note_on_c, 0, 75, 95
2, 689660, Note_off_c, 0, 75, 0
2, 689664, Note_on_c, 0, 76, 95
2, 690024, Note_off_c, 0, 76, 0
2, 713472, Note_on_c, 0, 69, 95
2, 713472, Note_on_c, 0, 73, 95
2, 713660, Note_off_c, 0, 73, 0
2, 713664, Note_on_c, 0, 71, 95
2, 713852, Note_off_c, 0, 71, 0
2, 713856, Note_on_c, 0, 73, 95
2, 714044, Note_off_c, 0, 73, 0
2, 714048, Note_on_c, 0, 74, 95
2, 714096, Note_off_c, 0, 69, 0
2, 714236, Note_off_c, 0, 74, 0
2, 714240, Note_on_c, 0, 71, 95
2, 714240, Note_on_c, 0, 68, 95
2, 714560, Note_off_c, 0, 71, 0
2, 714560, Note_off_c, 0, 68, 0
2, 715008, Note_on_c, 0, 71, 95
2, 715008, Note_on_c, 0, 74, 95
2, 715196, Note_off_c, 0, 74, 0
2, 715200, Note_on_c, 0, 73, 95
2, 715388, Note_off_c, 0, 73, 0
2, 715392, Note_on_c, 0, 74, 95
2, 715580, Note_off_c, 0, 74, 0
2, 715584, Note_on_c, 0, 76, 95
2, 715632, Note_off_c, 0, 71, 0
2, 715772, Note_off_c, 0, 76, 0
2, 715776, Note_on_c, 0, 73, 95
2, 715776, Note_on_c, 0, 69, 95
2, 716096, Note_off_c, 0, 73, 0
2, 716096, Note_off_c, 0, 69, 0
2, 716544, Note_on_c, 0, 78, 95
2, 716544, Note_on_c, 0, 74, 95
2, 716732, Note_off_c, 0, 74, 0
2, 716736, Note_on_c, 0, 73, 95
2, 716924, Note_off_c, 0, 73, 0
2, 716928, Note_on_c, 0, 71, 95
2, 717116, Note_off_c, 0, 71, 0
2, 717120, Note_on_c, 0, 69, 95
2, 717308, Note_off_c, 0, 78, 0
2, 717308, Note_off_c, 0, 69, 0
2, 717312, Note_on_c, 0, 76, 95
2, 717312, Note_on_c, 0, 68, 95
2, 717500, Note_off_c, 0, 68, 0
2, 717504, Note_on_c, 0, 71, 95
2, 717692, Note_off_c, 0, 71, 0
2, 717696, Note_on_c, 0, 69, 95
2, 717884, Note_off_c, 0, 69, 0
2, 717888, Note_on_c, 0, 73, 95
2, 717936, Note_off_c, 0, 76, 0
2, 718076, Note_off_c, 0, 73, 0
2, 718080, Note_on_c, 0, 74, 95
2, 718080, Note_on_c, 0, 71, 95
2, 718268, Note_off_c, 0, 74, 0
2, 718272, Note_on_c, 0, 76, 95
2, 718400, Note_off_c, 0, 71, 0
2, 718460, Note_off_c, 0, 76, 0
2, 718464, Note_on_c, 0, 73, 95
2, 718464, Note_on_c, 0, 69, 95
2, 718652, Note_off_c, 0, 73, 0
2, 718656, Note_on_c, 0, 74, 95
2, 718784, Note_off_c, 0, 69, 0
2, 718844, Note_off_c, 0, 74, 0
2, 718848, Note_on_c, 0, 73, 95
2, 718848, Note_on_c, 0, 69, 95
2, 719168, Note_off_c, 0, 69, 0
2, 719228, Note_off_c, 0, 73, 0
2, 719232, Note_on_c, 0, 71, 95
2, 719232, Note_on_c, 0, 68, 95
2, 719552, Note_off_c, 0, 71, 0
2, 719552, Note_off_c, 0, 68, 0
2, 719616, Note_on_c, 0, 68, 95
2, 719616, Note_on_c, 0, 76, 95
2, 720240, Note_off_c, 0, 68, 0
2, 720384, Note_on_c, 0, 69, 95
2, 721008, Note_off_c, 0, 76, 0
2, 721152, Note_on_c, 0, 74, 95
2, 721776, Note_off_c, 0, 69, 0
2, 721920, Note_on_c, 0, 68, 95
2, 722544, Note_off_c, 0, 68, 0
2, 722544, Note_off_c, 0, 74, 0
2, 722688, Note_on_c, 0, 73, 95
2, 722688, Note_on_c, 0, 69, 95
2, 723776, Note_off_c, 0, 73, 0
2, 723776, Note_off_c, 0, 69, 0
2, 723840, Note_on_c, 0, 74, 95
2, 723840, Note_on_c, 0, 71, 95
2, 724160, Note_off_c, 0, 74, 0
2, 724160, Note_off_c, 0, 71, 0
2, 724224, Note_on_c, 0, 73, 95
2, 724224, Note_on_c, 0, 69, 95
2, 724544, Note_off_c, 0, 73, 0
2, 724544, Note_off_c, 0, 69, 0
2, 724608, Note_on_c, 0, 71, 95
2, 724608, Note_on_c, 0, 68, 95
2, 724928, Note_off_c, 0, 71, 0
2, 724928, Note_off_c, 0, 68, 0
2, 724992, Note_on_c, 0, 69, 95
2, 725312, Note_off_c, 0, 69, 0
2, 738816, Note_on_c, 0, 69, 95
2, 739964, Note_off_c, 0, 69, 0
2, 739968, Note_on_c, 0, 71, 95
2, 740156, Note_off_c, 0, 71, 0
2, 740160, Note_on_c, 0, 73, 95
2, 740348, Note_off_c, 0, 73, 0
2, 740352, Note_on_c, 0, 74, 95
2, 740672, Note_off_c, 0, 74, 0
2, 740736, Note_on_c, 0, 74, 95
2, 740896, Note_off_c, 0, 74, 0
2, 741120, Note_on_c, 0, 74, 95
2, 741308, Note_off_c, 0, 74, 0
2, 741312, Note_on_c, 0, 76, 95
2, 741500, Note_off_c, 0, 76, 0
2, 741504, Note_on_c, 0, 78, 95
2, 741692, Note_off_c, 0, 78, 0
2, 741696, Note_on_c, 0, 79, 95
2, 741884, Note_off_c, 0, 79, 0
2, 741888, Note_on_c, 0, 81, 95
2, 742208, Note_off_c, 0, 81, 0
2, 742272, Note_on_c, 0, 81, 95
2, 742432, Note_off_c, 0, 81, 0
2, 742656, Note_on_c, 0, 81, 95
2, 743036, Note_off_c, 0, 81, 0
2, 743040, Note_on_c, 0, 83, 95
2, 743228, Note_off_c, 0, 83, 0
2, 743232, Note_on_c, 0, 85, 95
2, 743420, Note_off_c, 0, 85, 0
2, 743424, Note_on_c, 0, 86, 95
2, 743744, Note_off_c, 0, 86, 0
2, 743808, Note_on_c, 0, 86, 95
2, 743968, Note_off_c, 0, 86, 0
2, 744192, Note_on_c, 0, 86, 95
2, 744572, Note_off_c, 0, 86, 0
2, 744576, Note_on_c, 0, 85, 95
2, 744764, Note_off_c, 0, 85, 0
2, 744768, Note_on_c, 0, 83, 95
2, 744956, Note_off_c, 0, 83, 0
2, 744960, Note_on_c, 0, 81, 95
2, 745280, Note_off_c, 0, 81, 0
2, 745344, Note_on_c, 0, 81, 95
2, 745664, Note_off_c, 0, 81, 0
2, 745728, Note_on_c, 0, 81, 95
2, 745916, Note_off_c, 0, 81, 0
2, 745920, Note_on_c, 0, 79, 95
2, 746108, Note_off_c, 0, 79, 0
2, 746112, Note_on_c, 0, 78, 95
2, 746300, Note_off_c, 0, 78, 0
2, 746304, Note_on_c, 0, 76, 95
2, 746492, Note_off_c, 0, 76, 0
2, 746496, Note_on_c, 0, 74, 95
2, 746816, Note_off_c, 0, 74, 0
2, 746880, Note_on_c, 0, 74, 95
2, 747040, Note_off_c, 0, 74, 0
2, 747264, Note_on_c, 0, 74, 95
2, 747452, Note_off_c, 0, 74, 0
2, 747456, Note_on_c, 0, 73, 95
2, 747644, Note_off_c, 0, 73, 0
2, 747648, Note_on_c, 0, 71, 95
2, 747836, Note_off_c, 0, 71, 0
2, 747840, Note_on_c, 0, 69, 95
2, 748028, Note_off_c, 0, 69, 0
2, 748032, Note_on_c, 0, 68, 95
2, 748352, Note_off_c, 0, 68, 0
2, 748416, Note_on_c, 0, 68, 95
2, 748736, Note_off_c, 0, 68, 0
2, 748800, Note_on_c, 0, 68, 95
2, 748988, Note_off_c, 0, 68, 0
2, 748992, Note_on_c, 0, 69, 95
2, 749180, Note_off_c, 0, 69, 0
2, 749184, Note_on_c, 0, 71, 95
2, 749372, Note_off_c, 0, 71, 0
2, 749376, Note_on_c, 0, 68, 95
2, 749564, Note_off_c, 0, 68, 0
2, 749568, Note_on_c, 0, 69, 95
2, 749888, Note_off_c, 0, 69, 0
2, 749952, Note_on_c, 0, 73, 95
2, 750140, Note_off_c, 0, 73, 0
2, 750144, Note_on_c, 0, 69, 95
2, 750332, Note_off_c, 0, 69, 0
2, 750336, Note_on_c, 0, 64, 95
2, 750656, Note_off_c, 0, 64, 0
2, 750720, Note_on_c, 0, 64, 95
2, 751040, Note_off_c, 0, 64, 0
2, 751104, Note_on_c, 0, 76, 95
2, 751484, Note_off_c, 0, 76, 0
2, 751488, Note_on_c, 0, 73, 95
2, 751808, Note_off_c, 0, 73, 0
2, 752256, Note_on_c, 0, 69, 95
2, 752576, Note_off_c, 0, 69, 0
2, 752640, Note_on_c, 0, 78, 95
2, 753020, Note_off_c, 0, 78, 0
2, 753024, Note_on_c, 0, 74, 95
2, 753344, Note_off_c, 0, 74, 0
2, 753792, Note_on_c, 0, 69, 95
2, 754112, Note_off_c, 0, 69, 0
2, 754176, Note_on_c, 0, 80, 95
2, 754364, Note_off_c, 0, 80, 0
2, 754368, Note_on_c, 0, 78, 95
2, 754556, Note_off_c, 0, 78, 0
2, 754560, Note_on_c, 0, 76, 95
2, 754748, Note_off_c, 0, 76, 0
2, 754752, Note_on_c, 0, 74, 95
2, 754940, Note_off_c, 0, 74, 0
2, 754944, Note_on_c, 0, 73, 95
2, 755324, Note_off_c, 0, 73, 0
2, 755328, Note_on_c, 0, 69, 95
2, 755648, Note_off_c, 0, 69, 0
2, 755712, Note_on_c, 0, 81, 95
2, 755900, Note_off_c, 0, 81, 0
2, 755904, Note_on_c, 0, 80, 95
2, 756092, Note_off_c, 0, 80, 0
2, 756096, Note_on_c, 0, 78, 95
2, 756284, Note_off_c, 0, 78, 0
2, 756288, Note_on_c, 0, 76, 95
2, 756476, Note_off_c, 0, 76, 0
2, 756480, Note_on_c, 0, 74, 95
2, 756860, Note_off_c, 0, 74, 0
2, 756864, Note_on_c, 0, 74, 95
2, 757184, Note_off_c, 0, 74, 0
2, 757248, Note_on_c, 0, 73, 95
2, 757436, Note_off_c, 0, 73, 0
2, 757440, Note_on_c, 0, 74, 95
2, 757628, Note_off_c, 0, 74, 0
2, 757632, Note_on_c, 0, 76, 95
2, 757820, Note_off_c, 0, 76, 0
2, 757824, Note_on_c, 0, 78, 95
2, 758012, Note_off_c, 0, 78, 0
2, 758016, Note_on_c, 0, 80, 95
2, 758204, Note_off_c, 0, 80, 0
2, 758208, Note_on_c, 0, 81, 95
2, 758396, Note_off_c, 0, 81, 0
2, 758400, Note_on_c, 0, 83, 95
2, 758588, Note_off_c, 0, 83, 0
2, 758592, Note_on_c, 0, 85, 95
2, 758780, Note_off_c, 0, 85, 0
2, 758784, Note_on_c, 0, 86, 95
2, 758972, Note_off_c, 0, 86, 0
2, 758976, Note_on_c, 0, 88, 95
2, 759164, Note_off_c, 0, 88, 0
2, 759168, Note_on_c, 0, 86, 95
2, 759356, Note_off_c, 0, 86, 0
2, 759360, Note_on_c, 0, 85, 95
2, 759548, Note_off_c, 0, 85, 0
2, 759552, Note_on_c, 0, 86, 95
2, 759740, Note_off_c, 0, 86, 0
2, 759744, Note_on_c, 0, 85, 95
2, 759932, Note_off_c, 0, 85, 0
2, 759936, Note_on_c, 0, 83, 95
2, 760124, Note_off_c, 0, 83, 0
2, 760128, Note_on_c, 0, 81, 95
2, 760316, Note_off_c, 0, 81, 0
2, 760320, Note_on_c, 0, 80, 95
2, 760508, Note_off_c, 0, 80, 0
2, 760512, Note_on_c, 0, 78, 95
2, 760700, Note_off_c, 0, 78, 0
2, 760704, Note_on_c, 0, 76, 95
2, 760892, Note_off_c, 0, 76, 0
2, 760896, Note_on_c, 0, 78, 95
2, 761084, Note_off_c, 0, 78, 0
2, 761088, Note_on_c, 0, 80, 95
2, 761276, Note_off_c, 0, 80, 0
2, 761280, Note_on_c, 0, 81, 95
2, 761468, Note_off_c, 0, 81, 0
2, 761472, Note_on_c, 0, 83, 95
2, 761660, Note_off_c, 0, 83, 0
2, 761664, Note_on_c, 0, 80, 95
2, 761852, Note_off_c, 0, 80, 0
2, 761856, Note_on_c, 0, 81, 95
2, 762176, Note_off_c, 0, 81, 0
2, 771072, Note_on_c, 0, 73, 95
2, 771072, Note_on_c, 0, 57, 95
2, 771260, Note_off_c, 0, 73, 0
2, 771260, Note_off_c, 0, 57, 0
2, 771264, Note_on_c, 0, 74, 95
2, 771264, Note_on_c, 0, 59, 95
2, 771452, Note_off_c, 0, 74, 0
2, 771452, Note_off_c, 0, 59, 0
2, 771456, Note_on_c, 0, 76, 95
2, 771456, Note_on_c, 0, 61, 95
2, 771644, Note_off_c, 0, 76, 0
2, 771644, Note_off_c, 0, 61, 0
2, 771648, Note_on_c, 0, 78, 95
2, 771648, Note_on_c, 0, 62, 95
2, 771836, Note_off_c, 0, 78, 0
2, 771836, Note_off_c, 0, 62, 0
2, 771840, Note_on_c, 0, 80, 95
2, 771840, Note_on_c, 0, 64, 95
2, 772028, Note_off_c, 0, 80, 0
2, 772028, Note_off_c, 0, 64, 0
2, 772032, Note_on_c, 0, 81, 95
2, 772032, Note_on_c, 0, 66, 95
2, 772220, Note_off_c, 0, 81, 0
2, 772220, Note_off_c, 0, 66, 0
2, 772224, Note_on_c, 0, 83, 95
2, 772224, Note_on_c, 0, 68, 95
2, 772412, Note_off_c, 0, 83, 0
2, 772412, Note_off_c, 0, 68, 0
2, 772416, Note_on_c, 0, 85, 95
2, 772416, Note_on_c, 0, 69, 95
2, 772604, Note_off_c, 0, 85, 0
2, 772604, Note_off_c, 0, 69, 0
2, 772608, Note_on_c, 0, 86, 95
2, 772608, Note_on_c, 0, 71, 95
2, 772796, Note_off_c, 0, 86, 0
2, 772796, Note_off_c, 0, 71, 0
2, 772800, Note_on_c, 0, 85, 95
2, 772800, Note_on_c, 0, 69, 95
2, 772988, Note_off_c, 0, 85, 0
2, 772988, Note_off_c, 0, 69, 0
2, 772992, Note_on_c, 0, 83, 95
2, 772992, Note_on_c, 0, 68, 95
2, 773180, Note_off_c, 0, 83, 0
2, 773180, Note_off_c, 0, 68, 0
2, 773184, Note_on_c, 0, 81, 95
2, 773184, Note_on_c, 0, 66, 95
2, 773372, Note_off_c, 0, 81, 0
2, 773372, Note_off_c, 0, 66, 0
2, 773376, Note_on_c, 0, 80, 95
2, 773376, Note_on_c, 0, 64, 95
2, 773564, Note_off_c, 0, 80, 0
2, 773564, Note_off_c, 0, 64, 0
2, 773568, Note_on_c, 0, 78, 95
2, 773568, Note_on_c, 0, 62, 95
2, 773756, Note_off_c, 0, 78, 0
2, 773756, Note_off_c, 0, 62, 0
2, 773760, Note_on_c, 0, 76, 95
2, 773760, Note_on_c, 0, 61, 95
2, 773948, Note_off_c, 0, 76, 0
2, 773948, Note_off_c, 0, 61, 0
2, 773952, Note_on_c, 0, 74, 95
2, 773952, Note_on_c, 0, 59, 95
2, 774140, Note_off_c, 0, 59, 0
2, 774144, Note_on_c, 0, 73, 95
2, 774144, Note_on_c, 0, 57, 95
2, 774148, Note_off_c, 0, 74, 0
2, 774332, Note_off_c, 0, 73, 0
2, 774332, Note_off_c, 0, 57, 0
2, 774336, Note_on_c, 0, 74, 95
2, 774336, Note_on_c, 0, 59, 95
2, 774524, Note_off_c, 0, 74, 0
2, 774524, Note_off_c, 0, 59, 0
2, 774528, Note_on_c, 0, 76, 95
2, 774528, Note_on_c, 0, 61, 95
2, 774716, Note_off_c, 0, 76, 0
2, 774716, Note_off_c, 0, 61, 0
2, 774720, Note_on_c, 0, 78, 95
2, 774720, Note_on_c, 0, 62, 95
2, 774908, Note_off_c, 0, 78, 0
2, 774908, Note_off_c, 0, 62, 0
2, 774912, Note_on_c, 0, 80, 95
2, 774912, Note_on_c, 0, 64, 95
2, 775100, Note_off_c, 0, 80, 0
2, 775100, Note_off_c, 0, 64, 0
2, 775104, Note_on_c, 0, 81, 95
2, 775104, Note_on_c, 0, 66, 95
2, 775292, Note_off_c, 0, 81, 0
2, 775292, Note_off_c, 0, 66, 0
2, 775296, Note_on_c, 0, 83, 95
2, 775296, Note_on_c, 0, 68, 95
2, 775484, Note_off_c, 0, 83, 0
2, 775484, Note_off_c, 0, 68, 0
2, 775488, Note_on_c, 0, 85, 95
2, 775488, Note_on_c, 0, 69, 95
2, 775676, Note_off_c, 0, 85, 0
2, 775676, Note_off_c, 0, 69, 0
2, 775680, Note_on_c, 0, 86, 95
2, 775680, Note_on_c, 0, 71, 95
2, 775868, Note_off_c, 0, 86, 0
2, 775868, Note_off_c, 0, 71, 0
2, 775872, Note_on_c, 0, 85, 95
2, 775872, Note_on_c, 0, 69, 95
2, 776060, Note_off_c, 0, 85, 0
2, 776060, Note_off_c, 0, 69, 0
2, 776064, Note_on_c, 0, 83, 95
2, 776064, Note_on_c, 0, 68, 95
2, 776252, Note_off_c, 0, 83, 0
2, 776252, Note_off_c, 0, 68, 0
2, 776256, Note_on_c, 0, 81, 95
2, 776256, Note_on_c, 0, 66, 95
2, 776444, Note_off_c, 0, 81, 0
2, 776444, Note_off_c, 0, 66, 0
2, 776448, Note_on_c, 0, 80, 95
2, 776448, Note_on_c, 0, 64, 95
2, 776636, Note_off_c, 0, 80, 0
2, 776636, Note_off_c, 0, 64, 0
2, 776640, Note_on_c, 0, 78, 95
2, 776640, Note_on_c, 0, 62, 95
2, 776828, Note_off_c, 0, 78, 0
2, 776828, Note_off_c, 0, 62, 0
2, 776832, Note_on_c, 0, 76, 95
2, 776832, Note_on_c, 0, 61, 95
2, 777020, Note_off_c, 0, 76, 0
2, 777020, Note_off_c, 0, 61, 0
2, 777024, Note_on_c, 0, 74, 95
2, 777024, Note_on_c, 0, 59, 95
2, 777212, Note_off_c, 0, 74, 0
2, 777212, Note_off_c, 0, 59, 0
2, 777216, Note_on_c, 0, 57, 95
2, 777408, Note_on_c, 0, 73, 95
2, 777536, Note_off_c, 0, 57, 0
2, 777596, Note_off_c, 0, 73, 0
2, 777600, Note_on_c, 0, 76, 95
2, 777788, Note_off_c, 0, 76, 0
2, 777792, Note_on_c, 0, 85, 95
2, 777952, Note_off_c, 0, 85, 0
2, 778176, Note_on_c, 0, 73, 95
2, 778364, Note_off_c, 0, 73, 0
2, 778368, Note_on_c, 0, 78, 95
2, 778556, Note_off_c, 0, 78, 0
2, 778560, Note_on_c, 0, 81, 95
2, 778720, Note_off_c, 0, 81, 0
2, 778944, Note_on_c, 0, 74, 95
2, 779132, Note_off_c, 0, 74, 0
2, 779136, Note_on_c, 0, 78, 95
2, 779324, Note_off_c, 0, 78, 0
2, 779328, Note_on_c, 0, 83, 95
2, 779488, Note_off_c, 0, 83, 0
2, 779712, Note_on_c, 0, 71, 95
2, 779900, Note_off_c, 0, 71, 0
2, 779904, Note_on_c, 0, 76, 95
2, 780092, Note_off_c, 0, 76, 0
2, 780096, Note_on_c, 0, 80, 95
2, 780256, Note_off_c, 0, 80, 0
2, 789504, Note_on_c, 0, 81, 95
2, 789692, Note_off_c, 0, 81, 0
2, 789696, Note_on_c, 0, 76, 95
2, 789884, Note_off_c, 0, 76, 0
2, 789888, Note_on_c, 0, 73, 95
2, 790076, Note_off_c, 0, 73, 0
2, 790080, Note_on_c, 0, 69, 95
2, 790268, Note_off_c, 0, 69, 0
2, 790272, Note_on_c, 0, 73, 95
2, 790460, Note_off_c, 0, 73, 0
2, 790464, Note_on_c, 0, 69, 95
2, 790652, Note_off_c, 0, 69, 0
2, 790656, Note_on_c, 0, 74, 95
2, 790844, Note_off_c, 0, 74, 0
2, 790848, Note_on_c, 0, 71, 95
2, 791036, Note_off_c, 0, 71, 0
2, 791040, Note_on_c, 0, 76, 95
2, 791228, Note_off_c, 0, 76, 0
2, 791232, Note_on_c, 0, 73, 95
2, 791420, Note_off_c, 0, 73, 0
2, 791424, Note_on_c, 0, 69, 95
2, 791612, Note_off_c, 0, 69, 0
2, 791616, Note_on_c, 0, 76, 95
2, 791804, Note_off_c, 0, 76, 0
2, 791808, Note_on_c, 0, 78, 95
2, 791996, Note_off_c, 0, 78, 0
2, 792000, Note_on_c, 0, 74, 95
2, 792188, Note_off_c, 0, 74, 0
2, 792192, Note_on_c, 0, 80, 95
2, 792380, Note_off_c, 0, 80, 0
2, 792384, Note_on_c, 0, 76, 95
2, 792544, Note_off_c, 0, 76, 0
2, 792576, Note_on_c, 0, 81, 95
2, 792764, Note_off_c, 0, 81, 0
2, 792768, Note_on_c, 0, 76, 95
2, 792956, Note_off_c, 0, 76, 0
2, 792960, Note_on_c, 0, 73, 95
2, 793148, Note_off_c, 0, 73, 0
2, 793152, Note_on_c, 0, 69, 95
2, 793340, Note_off_c, 0, 69, 0
2, 793344, Note_on_c, 0, 73, 95
2, 793532, Note_off_c, 0, 73, 0
2, 793536, Note_on_c, 0, 69, 95
2, 793724, Note_off_c, 0, 69, 0
2, 793728, Note_on_c, 0, 74, 95
2, 793916, Note_off_c, 0, 74, 0
2, 793920, Note_on_c, 0, 71, 95
2, 794108, Note_off_c, 0, 71, 0
2, 794112, Note_on_c, 0, 76, 95
2, 794300, Note_off_c, 0, 76, 0
2, 794304, Note_on_c, 0, 73, 95
2, 794492, Note_off_c, 0, 73, 0
2, 794496, Note_on_c, 0, 69, 95
2, 794684, Note_off_c, 0, 69, 0
2, 794688, Note_on_c, 0, 76, 95
2, 794876, Note_off_c, 0, 76, 0
2, 794880, Note_on_c, 0, 78, 95
2, 795068, Note_off_c, 0, 78, 0
2, 795072, Note_on_c, 0, 74, 95
2, 795260, Note_off_c, 0, 74, 0
2, 795264, Note_on_c, 0, 80, 95
2, 795452, Note_off_c, 0, 80, 0
2, 795456, Note_on_c, 0, 76, 95
2, 795644, Note_off_c, 0, 76, 0
2, 795648, Note_on_c, 0, 81, 95
2, 795836, Note_off_c, 0, 81, 0
2, 795840, Note_on_c, 0, 76, 95
2, 796028, Note_off_c, 0, 76, 0
2, 796032, Note_on_c, 0, 73, 95
2, 796220, Note_off_c, 0, 73, 0
2, 796224, Note_on_c, 0, 69, 95
2, 796412, Note_off_c, 0, 69, 0
2, 796416, Note_on_c, 0, 73, 95
2, 796604, Note_off_c, 0, 73, 0
2, 796608, Note_on_c, 0, 69, 95
2, 796796, Note_off_c, 0, 69, 0
2, 796800, Note_on_c, 0, 74, 95
2, 796988, Note_off_c, 0, 74, 0
2, 796992, Note_on_c, 0, 71, 95
2, 797180, Note_off_c, 0, 71, 0
2, 797184, Note_on_c, 0, 76, 95
2, 797372, Note_off_c, 0, 76, 0
2, 797376, Note_on_c, 0, 73, 95
2, 797564, Note_off_c, 0, 73, 0
2, 797568, Note_on_c, 0, 69, 95
2, 797756, Note_off_c, 0, 69, 0
2, 797760, Note_on_c, 0, 76, 95
2, 797948, Note_off_c, 0, 76, 0
2, 797952, Note_on_c, 0, 78, 95
2, 798140, Note_off_c, 0, 78, 0
2, 798144, Note_on_c, 0, 74, 95
2, 798332, Note_off_c, 0, 74, 0
2, 798336, Note_on_c, 0, 80, 95
2, 798524, Note_off_c, 0, 80, 0
2, 798528, Note_on_c, 0, 76, 95
2, 798716, Note_off_c, 0, 76, 0
2, 798720, Note_on_c, 0, 81, 95
2, 799040, Note_off_c, 0, 81, 0
2, 799040, End_track
3, 0, Start_track
3, 0, Title_t, "K488c - Presto"
3, 0, Control_c, 1, 0, 0
3, 0, Program_c, 1, 0
3, 0, Control_c, 1, 7, 127
3, 0, Control_c, 1, 10, 70
3, 0, Control_c, 1, 91, 87
3, 0, Control_c, 1, 93, 48
3, 0, Key_signature, 3, "major"
3, 0, Control_c, 1, 121, 0
3, 384, Control_c, 1, 10, 63
3, 480, Control_c, 1, 91, 85
3, 576, Control_c, 1, 93, 35
3, 672, Program_c, 1, 0
3, 1536, Note_on_c, 1, 57, 100
3, 1724, Note_off_c, 1, 57, 0
3, 1728, Note_on_c, 1, 64, 100
3, 1916, Note_off_c, 1, 64, 0
3, 1920, Note_on_c, 1, 61, 100
3, 2108, Note_off_c, 1, 61, 0
3, 2112, Note_on_c, 1, 64, 100
3, 2300, Note_off_c, 1, 64, 0
3, 2304, Note_on_c, 1, 57, 100
3, 2492, Note_off_c, 1, 57, 0
3, 2496, Note_on_c, 1, 64, 100
3, 2684, Note_off_c, 1, 64, 0
3, 2688, Note_on_c, 1, 61, 100
3, 2876, Note_off_c, 1, 61, 0
3, 2880, Note_on_c, 1, 64, 100
3, 3040, Note_off_c, 1, 64, 0
3, 3072, Note_on_c, 1, 57, 100
3, 3260, Note_off_c, 1, 57, 0
3, 3264, Note_on_c, 1, 66, 100
3, 3452, Note_off_c, 1, 66, 0
3, 3456, Note_on_c, 1, 62, 100
3, 3644, Note_off_c, 1, 62, 0
3, 3648, Note_on_c, 1, 66, 100
3, 3836, Note_off_c, 1, 66, 0
3, 3840, Note_on_c, 1, 57, 100
3, 4028, Note_off_c, 1, 57, 0
3, 4032, Note_on_c, 1, 66, 100
3, 4220, Note_off_c, 1, 66, 0
3, 4224, Note_on_c, 1, 62, 100
3, 4412, Note_off_c, 1, 62, 0
3, 4416, Note_on_c, 1, 66, 100
3, 4576, Note_off_c, 1, 66, 0
3, 4608, Note_on_c, 1, 57, 100
3, 4796, Note_off_c, 1, 57, 0
3, 4800, Note_on_c, 1, 64, 100
3, 4988, Note_off_c, 1, 64, 0
3, 4992, Note_on_c, 1, 61, 100
3, 5180, Note_off_c, 1, 61, 0
3, 5184, Note_on_c, 1, 64, 100
3, 5372, Note_off_c, 1, 64, 0
3, 5376, Note_on_c, 1, 56, 100
3, 5564, Note_off_c, 1, 56, 0
3, 5568, Note_on_c, 1, 64, 100
3, 5756, Note_off_c, 1, 64, 0
3, 5760, Note_on_c, 1, 57, 100
3, 5948, Note_off_c, 1, 57, 0
3, 5952, Note_on_c, 1, 64, 100
3, 6112, Note_off_c, 1, 64, 64
3, 6144, Note_on_c, 1, 52, 100
3, 6464, Note_off_c, 1, 52, 0
3, 7680, Note_on_c, 1, 57, 100
3, 7868, Note_off_c, 1, 57, 0
3, 7872, Note_on_c, 1, 64, 100
3, 8060, Note_off_c, 1, 64, 0
3, 8064, Note_on_c, 1, 61, 100
3, 8252, Note_off_c, 1, 61, 0
3, 8256, Note_on_c, 1, 64, 100
3, 8444, Note_off_c, 1, 64, 0
3, 8448, Note_on_c, 1, 57, 100
3, 8636, Note_off_c, 1, 57, 0
3, 8640, Note_on_c, 1, 67, 100
3, 8828, Note_off_c, 1, 67, 0
3, 8832, Note_on_c, 1, 61, 100
3, 9020, Note_off_c, 1, 61, 0
3, 9024, Note_on_c, 1, 67, 100
3, 9184, Note_off_c, 1, 67, 0
3, 9216, Note_on_c, 1, 57, 100
3, 9404, Note_off_c, 1, 57, 0
3, 9408, Note_on_c, 1, 66, 100
3, 9596, Note_off_c, 1, 66, 0
3, 9600, Note_on_c, 1, 62, 100
3, 9788, Note_off_c, 1, 62, 0
3, 9792, Note_on_c, 1, 66, 100
3, 9980, Note_off_c, 1, 66, 0
3, 9984, Note_on_c, 1, 57, 100
3, 10172, Note_off_c, 1, 57, 0
3, 10176, Note_on_c, 1, 66, 100
3, 10364, Note_off_c, 1, 66, 0
3, 10368, Note_on_c, 1, 62, 100
3, 10556, Note_off_c, 1, 62, 0
3, 10560, Note_on_c, 1, 66, 100
3, 10720, Note_off_c, 1, 66, 0
3, 10752, Note_on_c, 1, 57, 100
3, 10752, Note_on_c, 1, 61, 100
3, 11132, Note_off_c, 1, 57, 0
3, 11132, Note_off_c, 1, 61, 0
3, 11136, Note_on_c, 1, 59, 100
3, 11136, Note_on_c, 1, 50, 100
3, 11516, Note_off_c, 1, 59, 0
3, 11516, Note_off_c, 1, 50, 0
3, 11520, Note_on_c, 1, 57, 100
3, 11520, Note_on_c, 1, 52, 100
3, 11900, Note_off_c, 1, 57, 0
3, 11904, Note_on_c, 1, 56, 100
3, 12284, Note_off_c, 1, 52, 0
3, 12284, Note_off_c, 1, 56, 0
3, 12288, Note_on_c, 1, 57, 100
3, 12608, Note_off_c, 1, 57, 0
3, 95232, Note_on_c, 1, 57, 75
3, 95232, Note_on_c, 1, 57, 75
3, 95996, Note_off_c, 1, 57, 0
3, 96000, Note_on_c, 1, 59, 75
3, 96624, Note_off_c, 1, 57, 0
3, 96624, Note_off_c, 1, 59, 0
3, 96768, Note_on_c, 1, 61, 75
3, 96768, Note_on_c, 1, 57, 85
3, 98160, Note_off_c, 1, 61, 0
3, 98304, Note_on_c, 1, 62, 75
3, 98464, Note_off_c, 1, 62, 0
3, 98688, Note_on_c, 1, 64, 75
3, 98848, Note_off_c, 1, 64, 0
3, 99072, Note_on_c, 1, 66, 75
3, 99232, Note_off_c, 1, 66, 0
3, 99456, Note_on_c, 1, 64, 75
3, 99616, Note_off_c, 1, 64, 0
3, 99840, Note_on_c, 1, 64, 75
3, 100220, Note_off_c, 1, 64, 0
3, 100224, Note_on_c, 1, 62, 75
3, 100604, Note_off_c, 1, 62, 0
3, 100608, Note_on_c, 1, 61, 75
3, 100928, Note_off_c, 1, 57, 64
3, 100928, Note_off_c, 1, 61, 0
3, 105600, Note_on_c, 1, 57, 75
3, 105600, Note_on_c, 1, 51, 75
3, 105980, Note_off_c, 1, 57, 0
3, 105980, Note_off_c, 1, 51, 0
3, 105984, Note_on_c, 1, 57, 75
3, 105984, Note_on_c, 1, 52, 75
3, 106748, Note_off_c, 1, 57, 0
3, 106748, Note_off_c, 1, 52, 0
3, 106752, Note_on_c, 1, 56, 75
3, 106752, Note_on_c, 1, 52, 75
3, 107072, Note_off_c, 1, 56, 0
3, 107072, Note_off_c, 1, 52, 0
3, 113664, Note_on_c, 1, 57, 100
3, 113664, Note_on_c, 1, 52, 100
3, 113664, Note_on_c, 1, 49, 100
3, 115196, Note_off_c, 1, 57, 0
3, 115196, Note_off_c, 1, 52, 0
3, 115196, Note_off_c, 1, 49, 0
3, 115200, Note_on_c, 1, 59, 100
3, 115200, Note_on_c, 1, 54, 100
3, 115200, Note_on_c, 1, 50, 100
3, 116732, Note_off_c, 1, 59, 0
3, 116732, Note_off_c, 1, 54, 0
3, 116732, Note_off_c, 1, 50, 0
3, 116736, Note_on_c, 1, 61, 100
3, 116736, Note_on_c, 1, 57, 100
3, 116736, Note_on_c, 1, 52, 100
3, 117500, Note_off_c, 1, 61, 0
3, 117500, Note_off_c, 1, 57, 0
3, 117504, Note_on_c, 1, 59, 100
3, 117504, Note_on_c, 1, 62, 100
3, 118128, Note_off_c, 1, 59, 0
3, 118128, Note_off_c, 1, 62, 0
3, 118268, Note_off_c, 1, 52, 0
3, 118272, Note_on_c, 1, 57, 100
3, 118460, Note_off_c, 1, 57, 0
3, 118464, Note_on_c, 1, 64, 100
3, 118652, Note_off_c, 1, 64, 0
3, 118656, Note_on_c, 1, 61, 100
3, 118844, Note_off_c, 1, 61, 0
3, 118848, Note_on_c, 1, 64, 100
3, 119036, Note_off_c, 1, 64, 0
3, 119040, Note_on_c, 1, 57, 100
3, 119228, Note_off_c, 1, 57, 0
3, 119232, Note_on_c, 1, 64, 100
3, 119420, Note_off_c, 1, 64, 0
3, 119424, Note_on_c, 1, 61, 100
3, 119612, Note_off_c, 1, 61, 0
3, 119616, Note_on_c, 1, 64, 100
3, 119776, Note_off_c, 1, 64, 0
3, 119808, Note_on_c, 1, 57, 100
3, 119996, Note_off_c, 1, 57, 0
3, 120000, Note_on_c, 1, 64, 100
3, 120188, Note_off_c, 1, 64, 0
3, 120192, Note_on_c, 1, 62, 100
3, 120380, Note_off_c, 1, 62, 0
3, 120384, Note_on_c, 1, 64, 100
3, 120572, Note_off_c, 1, 64, 0
3, 120576, Note_on_c, 1, 57, 100
3, 120764, Note_off_c, 1, 57, 0
3, 120768, Note_on_c, 1, 64, 100
3, 120956, Note_off_c, 1, 64, 0
3, 120960, Note_on_c, 1, 62, 100
3, 121148, Note_off_c, 1, 62, 0
3, 121152, Note_on_c, 1, 64, 100
3, 121312, Note_off_c, 1, 64, 0
3, 121344, Note_on_c, 1, 57, 100
3, 121532, Note_off_c, 1, 57, 0
3, 121536, Note_on_c, 1, 64, 100
3, 121724, Note_off_c, 1, 64, 0
3, 121728, Note_on_c, 1, 61, 100
3, 121916, Note_off_c, 1, 61, 0
3, 121920, Note_on_c, 1, 64, 100
3, 122108, Note_off_c, 1, 64, 0
3, 122112, Note_on_c, 1, 57, 100
3, 122300, Note_off_c, 1, 57, 0
3, 122304, Note_on_c, 1, 64, 100
3, 122492, Note_off_c, 1, 64, 0
3, 122496, Note_on_c, 1, 61, 100
3, 122684, Note_off_c, 1, 61, 0
3, 122688, Note_on_c, 1, 64, 100
3, 122876, Note_off_c, 1, 64, 0
3, 122880, Note_on_c, 1, 57, 100
3, 123068, Note_off_c, 1, 57, 0
3, 123072, Note_on_c, 1, 64, 100
3, 123260, Note_off_c, 1, 64, 0
3, 123264, Note_on_c, 1, 62, 100
3, 123452, Note_off_c, 1, 62, 0
3, 123456, Note_on_c, 1, 64, 100
3, 123644, Note_off_c, 1, 64, 0
3, 123648, Note_on_c, 1, 57, 100
3, 123836, Note_off_c, 1, 57, 0
3, 123840, Note_on_c, 1, 64, 100
3, 124028, Note_off_c, 1, 64, 0
3, 124032, Note_on_c, 1, 62, 100
3, 124220, Note_off_c, 1, 62, 0
3, 124224, Note_on_c, 1, 64, 100
3, 124384, Note_off_c, 1, 64, 0
3, 124800, Note_on_c, 1, 57, 100
3, 124800, Note_on_c, 1, 61, 100
3, 125120, Note_off_c, 1, 57, 0
3, 125120, Note_off_c, 1, 61, 0
3, 125568, Note_on_c, 1, 56, 100
3, 125568, Note_on_c, 1, 64, 100
3, 125888, Note_off_c, 1, 56, 0
3, 125888, Note_off_c, 1, 64, 0
3, 126336, Note_on_c, 1, 57, 100
3, 126336, Note_on_c, 1, 64, 100
3, 126656, Note_off_c, 1, 57, 0
3, 126656, Note_off_c, 1, 64, 0
3, 127104, Note_on_c, 1, 57, 100
3, 127104, Note_on_c, 1, 54, 100
3, 127424, Note_off_c, 1, 57, 0
3, 127424, Note_off_c, 1, 54, 0
3, 127488, Note_on_c, 1, 52, 100
3, 127676, Note_off_c, 1, 52, 0
3, 127680, Note_on_c, 1, 59, 100
3, 127868, Note_off_c, 1, 59, 0
3, 127872, Note_on_c, 1, 56, 100
3, 128060, Note_off_c, 1, 56, 0
3, 128064, Note_on_c, 1, 59, 100
3, 128252, Note_off_c, 1, 59, 0
3, 128256, Note_on_c, 1, 52, 100
3, 128444, Note_off_c, 1, 52, 0
3, 128448, Note_on_c, 1, 59, 100
3, 128636, Note_off_c, 1, 59, 0
3, 128640, Note_on_c, 1, 56, 100
3, 128828, Note_off_c, 1, 56, 0
3, 128832, Note_on_c, 1, 59, 100
3, 128992, Note_off_c, 1, 59, 0
3, 129024, Note_on_c, 1, 52, 100
3, 129212, Note_off_c, 1, 52, 0
3, 129216, Note_on_c, 1, 59, 100
3, 129404, Note_off_c, 1, 59, 0
3, 129408, Note_on_c, 1, 57, 100
3, 129596, Note_off_c, 1, 57, 0
3, 129600, Note_on_c, 1, 59, 100
3, 129788, Note_off_c, 1, 59, 0
3, 129792, Note_on_c, 1, 52, 100
3, 129980, Note_off_c, 1, 52, 0
3, 129984, Note_on_c, 1, 59, 100
3, 130172, Note_off_c, 1, 59, 0
3, 130176, Note_on_c, 1, 57, 100
3, 130364, Note_off_c, 1, 57, 0
3, 130368, Note_on_c, 1, 59, 100
3, 130528, Note_off_c, 1, 59, 0
3, 130560, Note_on_c, 1, 52, 100
3, 130748, Note_off_c, 1, 52, 0
3, 130752, Note_on_c, 1, 59, 100
3, 130940, Note_off_c, 1, 59, 0
3, 130944, Note_on_c, 1, 56, 100
3, 131132, Note_off_c, 1, 56, 0
3, 131136, Note_on_c, 1, 59, 100
3, 131324, Note_off_c, 1, 59, 0
3, 131328, Note_on_c, 1, 52, 100
3, 131516, Note_off_c, 1, 52, 0
3, 131520, Note_on_c, 1, 59, 100
3, 131708, Note_off_c, 1, 59, 0
3, 131712, Note_on_c, 1, 56, 100
3, 131900, Note_off_c, 1, 56, 0
3, 131904, Note_on_c, 1, 59, 100
3, 132064, Note_off_c, 1, 59, 0
3, 132096, Note_on_c, 1, 52, 100
3, 132284, Note_off_c, 1, 52, 0
3, 132288, Note_on_c, 1, 59, 100
3, 132476, Note_off_c, 1, 59, 0
3, 132480, Note_on_c, 1, 57, 100
3, 132668, Note_off_c, 1, 57, 0
3, 132672, Note_on_c, 1, 59, 100
3, 132860, Note_off_c, 1, 59, 0
3, 132864, Note_on_c, 1, 52, 100
3, 133052, Note_off_c, 1, 52, 0
3, 133056, Note_on_c, 1, 59, 100
3, 133244, Note_off_c, 1, 59, 0
3, 133248, Note_on_c, 1, 57, 100
3, 133436, Note_off_c, 1, 57, 0
3, 133440, Note_on_c, 1, 59, 100
3, 133600, Note_off_c, 1, 59, 0
3, 134016, Note_on_c, 1, 56, 100
3, 134016, Note_on_c, 1, 52, 100
3, 134336, Note_off_c, 1, 56, 0
3, 134336, Note_off_c, 1, 52, 0
3, 134784, Note_on_c, 1, 59, 100
3, 134784, Note_on_c, 1, 51, 100
3, 135104, Note_off_c, 1, 59, 0
3, 135104, Note_off_c, 1, 51, 0
3, 135552, Note_on_c, 1, 59, 100
3, 135552, Note_on_c, 1, 52, 100
3, 135872, Note_off_c, 1, 59, 0
3, 135872, Note_off_c, 1, 52, 0
3, 136320, Note_on_c, 1, 52, 100
3, 136320, Note_on_c, 1, 49, 100
3, 136640, Note_off_c, 1, 52, 0
3, 136640, Note_off_c, 1, 49, 0
3, 136896, Note_on_c, 1, 47, 100
3, 137084, Note_off_c, 1, 47, 0
3, 137088, Note_on_c, 1, 51, 100
3, 137276, Note_off_c, 1, 51, 0
3, 137280, Note_on_c, 1, 54, 100
3, 137468, Note_off_c, 1, 54, 0
3, 137472, Note_on_c, 1, 59, 100
3, 137660, Note_off_c, 1, 59, 0
3, 137664, Note_on_c, 1, 54, 100
3, 137852, Note_off_c, 1, 54, 0
3, 137856, Note_on_c, 1, 51, 100
3, 138044, Note_off_c, 1, 51, 0
3, 138048, Note_on_c, 1, 47, 100
3, 138168, Note_off_c, 1, 47, 0
3, 138240, Note_on_c, 1, 56, 100
3, 138240, Note_on_c, 1, 47, 100
3, 139632, Note_off_c, 1, 56, 0
3, 139776, Note_on_c, 1, 57, 100
3, 142704, Note_off_c, 1, 57, 64
3, 142704, Note_off_c, 1, 47, 64
3, 142848, Note_on_c, 1, 56, 100
3, 142848, Note_on_c, 1, 47, 100
3, 145776, Note_off_c, 1, 56, 64
3, 145776, Note_off_c, 1, 47, 64
3, 145920, Note_on_c, 1, 47, 100
3, 145920, Note_on_c, 1, 54, 100
3, 148848, Note_off_c, 1, 47, 64
3, 148848, Note_off_c, 1, 54, 64
3, 148992, Note_on_c, 1, 52, 100
3, 148992, Note_on_c, 1, 40, 100
3, 149616, Note_off_c, 1, 52, 0
3, 149616, Note_off_c, 1, 40, 0
3, 151872, Note_on_c, 1, 51, 100
3, 151872, Note_on_c, 1, 39, 100
3, 151952, Note_off_c, 1, 51, 0
3, 151952, Note_off_c, 1, 39, 0
3, 152064, Note_on_c, 1, 52, 100
3, 152064, Note_on_c, 1, 40, 100
3, 152688, Note_off_c, 1, 52, 0
3, 152688, Note_off_c, 1, 40, 0
3, 154944, Note_on_c, 1, 51, 100
3, 154944, Note_on_c, 1, 39, 100
3, 155024, Note_off_c, 1, 51, 0
3, 155024, Note_off_c, 1, 39, 0
3, 155136, Note_on_c, 1, 52, 100
3, 155136, Note_on_c, 1, 40, 100
3, 155760, Note_off_c, 1, 52, 0
3, 155760, Note_off_c, 1, 40, 0
3, 156480, Note_on_c, 1, 52, 100
3, 156480, Note_on_c, 1, 40, 100
3, 156560, Note_off_c, 1, 52, 0
3, 156560, Note_off_c, 1, 40, 0
3, 156672, Note_on_c, 1, 57, 100
3, 156672, Note_on_c, 1, 45, 100
3, 157296, Note_off_c, 1, 57, 0
3, 157296, Note_off_c, 1, 45, 0
3, 158016, Note_on_c, 1, 57, 100
3, 158016, Note_on_c, 1, 45, 100
3, 158096, Note_off_c, 1, 57, 0
3, 158096, Note_off_c, 1, 45, 0
3, 158208, Note_on_c, 1, 59, 100
3, 158208, Note_on_c, 1, 47, 100
3, 158832, Note_off_c, 1, 59, 0
3, 158832, Note_off_c, 1, 47, 0
3, 196608, Note_on_c, 1, 59, 100
3, 196608, Note_on_c, 1, 47, 100
3, 197232, Note_off_c, 1, 59, 0
3, 197232, Note_off_c, 1, 47, 0
3, 197376, Note_on_c, 1, 57, 100
3, 197376, Note_on_c, 1, 47, 100
3, 198140, Note_off_c, 1, 57, 0
3, 198140, Note_off_c, 1, 47, 0
3, 198336, Note_on_c, 1, 40, 100
3, 198524, Note_off_c, 1, 40, 0
3, 198528, Note_on_c, 1, 44, 100
3, 198716, Note_off_c, 1, 44, 0
3, 198720, Note_on_c, 1, 47, 100
3, 198908, Note_off_c, 1, 47, 0
3, 198912, Note_on_c, 1, 52, 100
3, 199100, Note_off_c, 1, 52, 0
3, 199104, Note_on_c, 1, 51, 100
3, 199292, Note_off_c, 1, 51, 0
3, 199296, Note_on_c, 1, 52, 100
3, 199484, Note_off_c, 1, 52, 0
3, 199488, Note_on_c, 1, 40, 100
3, 199648, Note_off_c, 1, 40, 0
3, 199872, Note_on_c, 1, 39, 100
3, 200060, Note_off_c, 1, 39, 0
3, 200064, Note_on_c, 1, 42, 100
3, 200252, Note_off_c, 1, 42, 0
3, 200256, Note_on_c, 1, 47, 100
3, 200444, Note_off_c, 1, 47, 0
3, 200448, Note_on_c, 1, 51, 100
3, 200636, Note_off_c, 1, 51, 0
3, 200640, Note_on_c, 1, 49, 100
3, 200828, Note_off_c, 1, 49, 0
3, 200832, Note_on_c, 1, 51, 100
3, 201020, Note_off_c, 1, 51, 0
3, 201024, Note_on_c, 1, 39, 100
3, 201184, Note_off_c, 1, 39, 0
3, 201408, Note_on_c, 1, 37, 100
3, 201596, Note_off_c, 1, 37, 0
3, 201600, Note_on_c, 1, 40, 100
3, 201788, Note_off_c, 1, 40, 0
3, 201792, Note_on_c, 1, 44, 100
3, 201980, Note_off_c, 1, 44, 0
3, 201984, Note_on_c, 1, 49, 100
3, 202172, Note_off_c, 1, 49, 0
3, 202176, Note_on_c, 1, 48, 100
3, 202364, Note_off_c, 1, 48, 0
3, 202368, Note_on_c, 1, 49, 100
3, 202556, Note_off_c, 1, 49, 0
3, 202560, Note_on_c, 1, 37, 100
3, 202720, Note_off_c, 1, 37, 0
3, 202944, Note_on_c, 1, 35, 100
3, 203132, Note_off_c, 1, 35, 0
3, 203136, Note_on_c, 1, 39, 100
3, 203324, Note_off_c, 1, 39, 0
3, 203328, Note_on_c, 1, 44, 100
3, 203516, Note_off_c, 1, 44, 0
3, 203520, Note_on_c, 1, 47, 100
3, 203708, Note_off_c, 1, 47, 0
3, 203712, Note_on_c, 1, 46, 100
3, 203900, Note_off_c, 1, 46, 0
3, 203904, Note_on_c, 1, 47, 100
3, 204092, Note_off_c, 1, 47, 0
3, 204096, Note_on_c, 1, 35, 100
3, 204256, Note_off_c, 1, 35, 0
3, 204480, Note_on_c, 1, 45, 100
3, 204668, Note_off_c, 1, 45, 0
3, 204672, Note_on_c, 1, 49, 100
3, 204860, Note_off_c, 1, 49, 0
3, 204864, Note_on_c, 1, 52, 100
3, 205052, Note_off_c, 1, 52, 0
3, 205056, Note_on_c, 1, 57, 100
3, 205244, Note_off_c, 1, 57, 0
3, 205248, Note_on_c, 1, 56, 100
3, 205436, Note_off_c, 1, 56, 0
3, 205440, Note_on_c, 1, 57, 100
3, 205628, Note_off_c, 1, 57, 0
3, 205632, Note_on_c, 1, 45, 100
3, 205792, Note_off_c, 1, 45, 0
3, 206016, Note_on_c, 1, 44, 100
3, 206204, Note_off_c, 1, 44, 0
3, 206208, Note_on_c, 1, 47, 100
3, 206396, Note_off_c, 1, 47, 0
3, 206400, Note_on_c, 1, 52, 100
3, 206588, Note_off_c, 1, 52, 0
3, 206592, Note_on_c, 1, 56, 100
3, 206780, Note_off_c, 1, 56, 0
3, 206784, Note_on_c, 1, 54, 100
3, 206972, Note_off_c, 1, 54, 0
3, 206976, Note_on_c, 1, 56, 100
3, 207164, Note_off_c, 1, 56, 0
3, 207168, Note_on_c, 1, 44, 100
3, 207328, Note_off_c, 1, 44, 0
3, 207360, Note_on_c, 1, 54, 100
3, 207740, Note_off_c, 1, 54, 0
3, 207744, Note_on_c, 1, 56, 100
3, 208124, Note_off_c, 1, 56, 0
3, 208128, Note_on_c, 1, 54, 100
3, 208508, Note_off_c, 1, 54, 0
3, 208512, Note_on_c, 1, 56, 100
3, 208892, Note_off_c, 1, 56, 0
3, 208896, Note_on_c, 1, 54, 100
3, 209276, Note_off_c, 1, 54, 0
3, 209280, Note_on_c, 1, 55, 100
3, 209660, Note_off_c, 1, 55, 0
3, 209664, Note_on_c, 1, 54, 100
3, 209984, Note_off_c, 1, 54, 0
3, 219648, Note_on_c, 1, 56, 100
3, 220220, Note_off_c, 1, 56, 0
3, 220224, Note_on_c, 1, 54, 100
3, 220384, Note_off_c, 1, 54, 0
3, 220416, Note_on_c, 1, 52, 100
3, 220988, Note_off_c, 1, 52, 0
3, 220992, Note_on_c, 1, 51, 100
3, 221152, Note_off_c, 1, 51, 0
3, 221184, Note_on_c, 1, 49, 100
3, 221756, Note_off_c, 1, 49, 0
3, 221760, Note_on_c, 1, 47, 100
3, 221920, Note_off_c, 1, 47, 0
3, 221952, Note_on_c, 1, 45, 100
3, 222524, Note_off_c, 1, 45, 0
3, 222528, Note_on_c, 1, 44, 100
3, 222688, Note_off_c, 1, 44, 0
3, 222720, Note_on_c, 1, 42, 100
3, 224252, Note_off_c, 1, 42, 0
3, 224256, Note_on_c, 1, 44, 100
3, 225788, Note_off_c, 1, 44, 0
3, 225792, Note_on_c, 1, 45, 100
3, 226416, Note_off_c, 1, 45, 0
3, 228864, Note_on_c, 1, 47, 100
3, 229488, Note_off_c, 1, 47, 0
3, 230400, Note_on_c, 1, 47, 100
3, 230560, Note_off_c, 1, 47, 0
3, 230592, Note_on_c, 1, 57, 100
3, 230752, Note_off_c, 1, 57, 0
3, 230784, Note_on_c, 1, 51, 100
3, 230944, Note_off_c, 1, 51, 0
3, 230976, Note_on_c, 1, 57, 100
3, 231136, Note_off_c, 1, 57, 0
3, 231168, Note_on_c, 1, 47, 100
3, 231328, Note_off_c, 1, 47, 0
3, 231360, Note_on_c, 1, 57, 100
3, 231520, Note_off_c, 1, 57, 0
3, 231552, Note_on_c, 1, 51, 100
3, 231712, Note_off_c, 1, 51, 0
3, 231744, Note_on_c, 1, 57, 100
3, 231904, Note_off_c, 1, 57, 0
3, 231936, Note_on_c, 1, 56, 100
3, 231936, Note_on_c, 1, 52, 100
3, 232560, Note_off_c, 1, 56, 0
3, 232560, Note_off_c, 1, 52, 0
3, 233280, Note_on_c, 1, 52, 100
3, 233280, Note_on_c, 1, 40, 100
3, 233440, Note_off_c, 1, 52, 0
3, 233440, Note_off_c, 1, 40, 0
3, 233472, Note_on_c, 1, 51, 100
3, 233472, Note_on_c, 1, 39, 100
3, 234096, Note_off_c, 1, 51, 0
3, 234096, Note_off_c, 1, 39, 0
3, 234816, Note_on_c, 1, 51, 100
3, 234816, Note_on_c, 1, 39, 100
3, 234976, Note_off_c, 1, 51, 0
3, 234976, Note_off_c, 1, 39, 0
3, 235008, Note_on_c, 1, 49, 100
3, 235008, Note_on_c, 1, 37, 100
3, 235632, Note_off_c, 1, 49, 0
3, 235632, Note_off_c, 1, 37, 0
3, 236352, Note_on_c, 1, 49, 100
3, 236352, Note_on_c, 1, 37, 100
3, 236512, Note_off_c, 1, 49, 0
3, 236512, Note_off_c, 1, 37, 0
3, 236544, Note_on_c, 1, 47, 100
3, 236544, Note_on_c, 1, 35, 100
3, 237168, Note_off_c, 1, 47, 0
3, 237168, Note_off_c, 1, 35, 0
3, 237888, Note_on_c, 1, 47, 100
3, 237888, Note_on_c, 1, 35, 100
3, 238048, Note_off_c, 1, 47, 0
3, 238048, Note_off_c, 1, 35, 0
3, 238080, Note_on_c, 1, 45, 100
3, 238080, Note_on_c, 1, 33, 100
3, 238704, Note_off_c, 1, 45, 0
3, 238704, Note_off_c, 1, 33, 0
3, 239424, Note_on_c, 1, 45, 100
3, 239424, Note_on_c, 1, 33, 100
3, 239584, Note_off_c, 1, 45, 0
3, 239584, Note_off_c, 1, 33, 0
3, 239616, Note_on_c, 1, 44, 100
3, 239616, Note_on_c, 1, 32, 100
3, 240240, Note_off_c, 1, 44, 0
3, 240240, Note_off_c, 1, 32, 0
3, 241152, Note_on_c, 1, 54, 100
3, 241340, Note_off_c, 1, 54, 0
3, 241344, Note_on_c, 1, 64, 100
3, 241532, Note_off_c, 1, 64, 0
3, 241536, Note_on_c, 1, 56, 100
3, 241724, Note_off_c, 1, 56, 0
3, 241728, Note_on_c, 1, 64, 100
3, 241916, Note_off_c, 1, 64, 0
3, 241920, Note_on_c, 1, 54, 100
3, 242108, Note_off_c, 1, 54, 0
3, 242112, Note_on_c, 1, 64, 100
3, 242300, Note_off_c, 1, 64, 0
3, 242304, Note_on_c, 1, 56, 100
3, 242492, Note_off_c, 1, 56, 0
3, 242496, Note_on_c, 1, 64, 100
3, 242684, Note_off_c, 1, 64, 0
3, 242688, Note_on_c, 1, 54, 100
3, 242876, Note_off_c, 1, 54, 0
3, 242880, Note_on_c, 1, 64, 100
3, 243068, Note_off_c, 1, 64, 0
3, 243072, Note_on_c, 1, 56, 100
3, 243260, Note_off_c, 1, 56, 0
3, 243264, Note_on_c, 1, 64, 100
3, 243452, Note_off_c, 1, 64, 0
3, 243456, Note_on_c, 1, 54, 100
3, 243644, Note_off_c, 1, 54, 0
3, 250368, Note_on_c, 1, 57, 100
3, 250556, Note_off_c, 1, 57, 0
3, 250560, Note_on_c, 1, 69, 100
3, 250748, Note_off_c, 1, 69, 0
3, 250752, Note_on_c, 1, 56, 100
3, 250940, Note_off_c, 1, 56, 0
3, 250944, Note_on_c, 1, 68, 100
3, 251132, Note_off_c, 1, 68, 0
3, 251136, Note_on_c, 1, 54, 100
3, 251324, Note_off_c, 1, 54, 0
3, 251328, Note_on_c, 1, 66, 100
3, 251516, Note_off_c, 1, 66, 0
3, 251520, Note_on_c, 1, 52, 100
3, 251708, Note_off_c, 1, 52, 0
3, 251712, Note_on_c, 1, 64, 100
3, 251872, Note_off_c, 1, 64, 0
3, 251904, Note_on_c, 1, 51, 100
3, 252092, Note_off_c, 1, 51, 0
3, 252096, Note_on_c, 1, 63, 100
3, 252284, Note_off_c, 1, 63, 0
3, 252288, Note_on_c, 1, 49, 100
3, 252476, Note_off_c, 1, 49, 0
3, 252480, Note_on_c, 1, 61, 100
3, 252668, Note_off_c, 1, 61, 0
3, 252672, Note_on_c, 1, 47, 100
3, 252860, Note_off_c, 1, 47, 0
3, 252864, Note_on_c, 1, 59, 100
3, 253052, Note_off_c, 1, 59, 0
3, 253056, Note_on_c, 1, 45, 100
3, 253244, Note_off_c, 1, 45, 0
3, 253248, Note_on_c, 1, 57, 100
3, 253408, Note_off_c, 1, 57, 0
3, 253440, Note_on_c, 1, 44, 100
3, 253628, Note_off_c, 1, 44, 0
3, 253632, Note_on_c, 1, 56, 100
3, 253820, Note_off_c, 1, 56, 0
3, 253824, Note_on_c, 1, 42, 100
3, 254012, Note_off_c, 1, 42, 0
3, 254016, Note_on_c, 1, 54, 100
3, 254204, Note_off_c, 1, 54, 0
3, 254208, Note_on_c, 1, 40, 100
3, 254396, Note_off_c, 1, 40, 0
3, 254400, Note_on_c, 1, 52, 100
3, 254588, Note_off_c, 1, 52, 0
3, 254592, Note_on_c, 1, 39, 100
3, 254780, Note_off_c, 1, 39, 0
3, 254784, Note_on_c, 1, 51, 100
3, 254944, Note_off_c, 1, 51, 0
3, 254976, Note_on_c, 1, 37, 100
3, 255136, Note_off_c, 1, 37, 0
3, 255168, Note_on_c, 1, 49, 100
3, 255328, Note_off_c, 1, 49, 0
3, 255360, Note_on_c, 1, 35, 100
3, 255520, Note_off_c, 1, 35, 0
3, 255552, Note_on_c, 1, 47, 100
3, 255712, Note_off_c, 1, 47, 0
3, 255744, Note_on_c, 1, 33, 100
3, 255904, Note_off_c, 1, 33, 0
3, 255936, Note_on_c, 1, 45, 100
3, 256096, Note_off_c, 1, 45, 0
3, 256128, Note_on_c, 1, 32, 100
3, 256288, Note_off_c, 1, 32, 0
3, 256320, Note_on_c, 1, 44, 100
3, 256480, Note_off_c, 1, 44, 0
3, 256512, Note_on_c, 1, 42, 100
3, 256512, Note_on_c, 1, 30, 100
3, 257904, Note_off_c, 1, 42, 0
3, 257904, Note_off_c, 1, 30, 0
3, 258048, Note_on_c, 1, 44, 100
3, 258048, Note_on_c, 1, 32, 100
3, 259440, Note_off_c, 1, 44, 0
3, 259440, Note_off_c, 1, 32, 0
3, 259584, Note_on_c, 1, 45, 100
3, 260976, Note_off_c, 1, 45, 0
3, 261120, Note_on_c, 1, 46, 100
3, 261120, Note_on_c, 1, 34, 100
3, 262512, Note_off_c, 1, 46, 0
3, 262512, Note_off_c, 1, 34, 0
3, 262656, Note_on_c, 1, 47, 100
3, 262656, Note_on_c, 1, 35, 100
3, 263420, Note_off_c, 1, 47, 0
3, 263420, Note_off_c, 1, 35, 0
3, 268800, Note_on_c, 1, 52, 100
3, 268988, Note_off_c, 1, 52, 0
3, 268992, Note_on_c, 1, 64, 100
3, 269180, Note_off_c, 1, 64, 0
3, 269184, Note_on_c, 1, 56, 100
3, 269372, Note_off_c, 1, 56, 0
3, 269376, Note_on_c, 1, 64, 100
3, 269564, Note_off_c, 1, 64, 0
3, 269568, Note_on_c, 1, 59, 100
3, 269756, Note_off_c, 1, 59, 0
3, 269760, Note_on_c, 1, 64, 100
3, 269948, Note_off_c, 1, 64, 0
3, 269952, Note_on_c, 1, 56, 100
3, 270140, Note_off_c, 1, 56, 0
3, 270144, Note_on_c, 1, 64, 100
3, 270304, Note_off_c, 1, 64, 0
3, 270336, Note_on_c, 1, 52, 100
3, 270524, Note_off_c, 1, 52, 0
3, 270528, Note_on_c, 1, 64, 100
3, 270716, Note_off_c, 1, 64, 0
3, 270720, Note_on_c, 1, 54, 100
3, 270908, Note_off_c, 1, 54, 0
3, 270912, Note_on_c, 1, 64, 100
3, 271100, Note_off_c, 1, 64, 0
3, 271104, Note_on_c, 1, 57, 100
3, 271292, Note_off_c, 1, 57, 0
3, 271296, Note_on_c, 1, 64, 100
3, 271484, Note_off_c, 1, 64, 0
3, 271488, Note_on_c, 1, 54, 100
3, 271676, Note_off_c, 1, 54, 0
3, 271680, Note_on_c, 1, 64, 100
3, 271840, Note_off_c, 1, 64, 0
3, 271872, Note_on_c, 1, 52, 100
3, 272060, Note_off_c, 1, 52, 0
3, 272064, Note_on_c, 1, 64, 100
3, 272252, Note_off_c, 1, 64, 0
3, 272256, Note_on_c, 1, 56, 100
3, 272444, Note_off_c, 1, 56, 0
3, 272448, Note_on_c, 1, 64, 100
3, 272636, Note_off_c, 1, 64, 0
3, 272640, Note_on_c, 1, 59, 100
3, 272828, Note_off_c, 1, 59, 0
3, 272832, Note_on_c, 1, 64, 100
3, 273020, Note_off_c, 1, 64, 0
3, 273024, Note_on_c, 1, 56, 100
3, 273212, Note_off_c, 1, 56, 0
3, 273216, Note_on_c, 1, 64, 100
3, 273376, Note_off_c, 1, 64, 0
3, 273408, Note_on_c, 1, 52, 100
3, 273596, Note_off_c, 1, 52, 0
3, 273600, Note_on_c, 1, 64, 100
3, 273788, Note_off_c, 1, 64, 0
3, 273792, Note_on_c, 1, 54, 100
3, 273980, Note_off_c, 1, 54, 0
3, 273984, Note_on_c, 1, 64, 100
3, 274172, Note_off_c, 1, 64, 0
3, 274176, Note_on_c, 1, 57, 100
3, 274364, Note_off_c, 1, 57, 0
3, 274368, Note_on_c, 1, 64, 100
3, 274556, Note_off_c, 1, 64, 0
3, 274560, Note_on_c, 1, 54, 100
3, 274748, Note_off_c, 1, 54, 0
3, 274752, Note_on_c, 1, 64, 100
3, 274912, Note_off_c, 1, 64, 0
3, 274944, Note_on_c, 1, 52, 100
3, 275132, Note_off_c, 1, 52, 0
3, 275136, Note_on_c, 1, 64, 100
3, 275324, Note_off_c, 1, 64, 0
3, 275328, Note_on_c, 1, 56, 100
3, 275516, Note_off_c, 1, 56, 0
3, 275520, Note_on_c, 1, 64, 100
3, 275708, Note_off_c, 1, 64, 0
3, 275712, Note_on_c, 1, 59, 100
3, 275900, Note_off_c, 1, 59, 0
3, 275904, Note_on_c, 1, 64, 100
3, 276092, Note_off_c, 1, 64, 0
3, 276096, Note_on_c, 1, 56, 100
3, 276284, Note_off_c, 1, 56, 0
3, 276288, Note_on_c, 1, 64, 100
3, 276448, Note_off_c, 1, 64, 0
3, 276480, Note_on_c, 1, 52, 100
3, 276668, Note_off_c, 1, 52, 0
3, 276672, Note_on_c, 1, 64, 100
3, 276860, Note_off_c, 1, 64, 0
3, 276864, Note_on_c, 1, 54, 100
3, 277052, Note_off_c, 1, 54, 0
3, 277056, Note_on_c, 1, 64, 100
3, 277244, Note_off_c, 1, 64, 0
3, 277248, Note_on_c, 1, 57, 100
3, 277436, Note_off_c, 1, 57, 0
3, 277440, Note_on_c, 1, 64, 100
3, 277628, Note_off_c, 1, 64, 0
3, 277632, Note_on_c, 1, 54, 100
3, 277820, Note_off_c, 1, 54, 0
3, 277824, Note_on_c, 1, 64, 100
3, 277984, Note_off_c, 1, 64, 0
3, 278016, Note_on_c, 1, 52, 100
3, 278204, Note_off_c, 1, 52, 0
3, 278208, Note_on_c, 1, 64, 100
3, 278396, Note_off_c, 1, 64, 0
3, 278400, Note_on_c, 1, 56, 100
3, 278588, Note_off_c, 1, 56, 0
3, 278592, Note_on_c, 1, 64, 100
3, 278780, Note_off_c, 1, 64, 0
3, 278784, Note_on_c, 1, 59, 100
3, 278972, Note_off_c, 1, 59, 0
3, 278976, Note_on_c, 1, 64, 100
3, 279164, Note_off_c, 1, 64, 0
3, 279168, Note_on_c, 1, 56, 100
3, 279356, Note_off_c, 1, 56, 0
3, 279360, Note_on_c, 1, 64, 100
3, 279520, Note_off_c, 1, 64, 0
3, 279552, Note_on_c, 1, 52, 100
3, 279740, Note_off_c, 1, 52, 0
3, 279744, Note_on_c, 1, 64, 100
3, 279932, Note_off_c, 1, 64, 0
3, 279936, Note_on_c, 1, 54, 100
3, 280124, Note_off_c, 1, 54, 0
3, 280128, Note_on_c, 1, 64, 100
3, 280316, Note_off_c, 1, 64, 0
3, 280320, Note_on_c, 1, 57, 100
3, 280508, Note_off_c, 1, 57, 0
3, 280512, Note_on_c, 1, 64, 100
3, 280700, Note_off_c, 1, 64, 0
3, 280704, Note_on_c, 1, 54, 100
3, 280892, Note_off_c, 1, 54, 0
3, 280896, Note_on_c, 1, 64, 100
3, 281056, Note_off_c, 1, 64, 0
3, 281088, Note_on_c, 1, 52, 100
3, 281276, Note_off_c, 1, 52, 0
3, 281280, Note_on_c, 1, 64, 100
3, 281468, Note_off_c, 1, 64, 0
3, 281472, Note_on_c, 1, 56, 100
3, 281660, Note_off_c, 1, 56, 0
3, 281664, Note_on_c, 1, 64, 100
3, 281852, Note_off_c, 1, 64, 0
3, 281856, Note_on_c, 1, 59, 100
3, 282044, Note_off_c, 1, 59, 0
3, 282048, Note_on_c, 1, 64, 100
3, 282236, Note_off_c, 1, 64, 0
3, 282240, Note_on_c, 1, 56, 100
3, 282428, Note_off_c, 1, 56, 0
3, 282432, Note_on_c, 1, 64, 100
3, 282592, Note_off_c, 1, 64, 0
3, 282624, Note_on_c, 1, 52, 100
3, 282812, Note_off_c, 1, 52, 0
3, 282816, Note_on_c, 1, 64, 100
3, 283004, Note_off_c, 1, 64, 0
3, 283008, Note_on_c, 1, 56, 100
3, 283196, Note_off_c, 1, 56, 0
3, 283200, Note_on_c, 1, 64, 100
3, 283388, Note_off_c, 1, 64, 0
3, 283392, Note_on_c, 1, 57, 100
3, 283580, Note_off_c, 1, 57, 0
3, 283584, Note_on_c, 1, 64, 100
3, 283772, Note_off_c, 1, 64, 0
3, 283776, Note_on_c, 1, 56, 100
3, 283964, Note_off_c, 1, 56, 0
3, 283968, Note_on_c, 1, 64, 100
3, 284128, Note_off_c, 1, 64, 0
3, 284160, Note_on_c, 1, 52, 100
3, 284348, Note_off_c, 1, 52, 0
3, 284352, Note_on_c, 1, 64, 100
3, 284540, Note_off_c, 1, 64, 0
3, 284544, Note_on_c, 1, 56, 100
3, 284732, Note_off_c, 1, 56, 0
3, 284736, Note_on_c, 1, 64, 100
3, 284924, Note_off_c, 1, 64, 0
3, 284928, Note_on_c, 1, 59, 100
3, 285116, Note_off_c, 1, 59, 0
3, 285120, Note_on_c, 1, 64, 100
3, 285308, Note_off_c, 1, 64, 0
3, 285312, Note_on_c, 1, 56, 100
3, 285500, Note_off_c, 1, 56, 0
3, 285504, Note_on_c, 1, 64, 100
3, 285664, Note_off_c, 1, 64, 0
3, 285696, Note_on_c, 1, 52, 100
3, 285856, Note_off_c, 1, 52, 0
3, 285888, Note_on_c, 1, 64, 100
3, 286048, Note_off_c, 1, 64, 0
3, 286080, Note_on_c, 1, 54, 100
3, 286240, Note_off_c, 1, 54, 0
3, 286272, Note_on_c, 1, 64, 100
3, 286432, Note_off_c, 1, 64, 0
3, 286464, Note_on_c, 1, 57, 100
3, 286624, Note_off_c, 1, 57, 0
3, 286656, Note_on_c, 1, 64, 100
3, 286816, Note_off_c, 1, 64, 0
3, 286848, Note_on_c, 1, 54, 100
3, 287008, Note_off_c, 1, 54, 0
3, 287040, Note_on_c, 1, 64, 100
3, 287200, Note_off_c, 1, 64, 0
3, 287232, Note_on_c, 1, 52, 100
3, 287552, Note_off_c, 1, 52, 0
3, 293376, Note_on_c, 1, 47, 100
3, 293376, Note_on_c, 1, 44, 100
3, 293756, Note_off_c, 1, 47, 0
3, 293756, Note_off_c, 1, 44, 0
3, 294144, Note_on_c, 1, 52, 100
3, 294144, Note_on_c, 1, 49, 100
3, 294524, Note_off_c, 1, 52, 0
3, 294524, Note_off_c, 1, 49, 0
3, 294528, Note_on_c, 1, 49, 100
3, 294528, Note_on_c, 1, 45, 100
3, 294908, Note_off_c, 1, 49, 0
3, 294908, Note_off_c, 1, 45, 0
3, 294912, Note_on_c, 1, 47, 100
3, 294912, Note_on_c, 1, 44, 100
3, 295292, Note_off_c, 1, 47, 0
3, 295292, Note_off_c, 1, 44, 0
3, 295680, Note_on_c, 1, 52, 100
3, 295680, Note_on_c, 1, 49, 100
3, 296060, Note_off_c, 1, 52, 0
3, 296060, Note_off_c, 1, 49, 0
3, 296064, Note_on_c, 1, 49, 100
3, 296064, Note_on_c, 1, 45, 100
3, 296444, Note_off_c, 1, 49, 0
3, 296444, Note_off_c, 1, 45, 0
3, 296448, Note_on_c, 1, 44, 100
3, 296448, Note_on_c, 1, 47, 100
3, 296828, Note_off_c, 1, 44, 0
3, 296828, Note_off_c, 1, 47, 0
3, 310272, Note_on_c, 1, 57, 100
3, 310460, Note_off_c, 1, 57, 0
3, 310464, Note_on_c, 1, 64, 100
3, 310652, Note_off_c, 1, 64, 0
3, 310656, Note_on_c, 1, 61, 100
3, 310844, Note_off_c, 1, 61, 0
3, 310848, Note_on_c, 1, 64, 100
3, 311036, Note_off_c, 1, 64, 0
3, 311040, Note_on_c, 1, 57, 100
3, 311228, Note_off_c, 1, 57, 0
3, 311232, Note_on_c, 1, 64, 100
3, 311420, Note_off_c, 1, 64, 0
3, 311424, Note_on_c, 1, 61, 100
3, 311612, Note_off_c, 1, 61, 0
3, 311616, Note_on_c, 1, 64, 100
3, 311776, Note_off_c, 1, 64, 0
3, 311808, Note_on_c, 1, 57, 100
3, 311996, Note_off_c, 1, 57, 0
3, 312000, Note_on_c, 1, 66, 100
3, 312188, Note_off_c, 1, 66, 0
3, 312192, Note_on_c, 1, 62, 100
3, 312380, Note_off_c, 1, 62, 0
3, 312384, Note_on_c, 1, 66, 100
3, 312572, Note_off_c, 1, 66, 0
3, 312576, Note_on_c, 1, 57, 100
3, 312764, Note_off_c, 1, 57, 0
3, 312768, Note_on_c, 1, 66, 100
3, 312956, Note_off_c, 1, 66, 0
3, 312960, Note_on_c, 1, 62, 100
3, 313148, Note_off_c, 1, 62, 0
3, 313152, Note_on_c, 1, 66, 100
3, 313312, Note_off_c, 1, 66, 0
3, 313344, Note_on_c, 1, 57, 100
3, 313532, Note_off_c, 1, 57, 0
3, 313536, Note_on_c, 1, 64, 100
3, 313724, Note_off_c, 1, 64, 0
3, 313728, Note_on_c, 1, 61, 100
3, 313916, Note_off_c, 1, 61, 0
3, 313920, Note_on_c, 1, 64, 100
3, 314108, Note_off_c, 1, 64, 0
3, 314112, Note_on_c, 1, 56, 100
3, 314300, Note_off_c, 1, 56, 0
3, 314304, Note_on_c, 1, 64, 100
3, 314492, Note_off_c, 1, 64, 0
3, 314496, Note_on_c, 1, 57, 100
3, 314684, Note_off_c, 1, 57, 0
3, 314688, Note_on_c, 1, 64, 100
3, 314848, Note_off_c, 1, 64, 0
3, 314880, Note_on_c, 1, 52, 100
3, 315200, Note_off_c, 1, 52, 0
3, 316416, Note_on_c, 1, 57, 100
3, 316604, Note_off_c, 1, 57, 0
3, 316608, Note_on_c, 1, 64, 100
3, 316796, Note_off_c, 1, 64, 0
3, 316800, Note_on_c, 1, 61, 100
3, 316988, Note_off_c, 1, 61, 0
3, 316992, Note_on_c, 1, 64, 100
3, 317180, Note_off_c, 1, 64, 0
3, 317184, Note_on_c, 1, 57, 100
3, 317372, Note_off_c, 1, 57, 0
3, 317376, Note_on_c, 1, 67, 100
3, 317564, Note_off_c, 1, 67, 0
3, 317568, Note_on_c, 1, 61, 100
3, 317756, Note_off_c, 1, 61, 0
3, 317760, Note_on_c, 1, 67, 100
3, 317920, Note_off_c, 1, 67, 0
3, 317952, Note_on_c, 1, 57, 100
3, 318140, Note_off_c, 1, 57, 0
3, 318144, Note_on_c, 1, 66, 100
3, 318332, Note_off_c, 1, 66, 0
3, 318336, Note_on_c, 1, 62, 100
3, 318524, Note_off_c, 1, 62, 0
3, 318528, Note_on_c, 1, 66, 100
3, 318716, Note_off_c, 1, 66, 0
3, 318720, Note_on_c, 1, 57, 100
3, 318908, Note_off_c, 1, 57, 0
3, 318912, Note_on_c, 1, 66, 100
3, 319100, Note_off_c, 1, 66, 0
3, 319104, Note_on_c, 1, 62, 100
3, 319292, Note_off_c, 1, 62, 0
3, 319296, Note_on_c, 1, 66, 100
3, 319456, Note_off_c, 1, 66, 0
3, 319488, Note_on_c, 1, 61, 100
3, 319488, Note_on_c, 1, 57, 100
3, 319868, Note_off_c, 1, 61, 0
3, 319868, Note_off_c, 1, 57, 0
3, 319872, Note_on_c, 1, 59, 100
3, 319872, Note_on_c, 1, 50, 100
3, 320252, Note_off_c, 1, 59, 0
3, 320252, Note_off_c, 1, 50, 0
3, 320256, Note_on_c, 1, 57, 100
3, 320256, Note_on_c, 1, 52, 100
3, 320636, Note_off_c, 1, 57, 0
3, 320640, Note_on_c, 1, 56, 100
3, 320880, Note_off_c, 1, 52, 0
3, 321020, Note_off_c, 1, 56, 0
3, 321024, Note_on_c, 1, 57, 100
3, 321344, Note_off_c, 1, 57, 0
3, 353280, Note_on_c, 1, 54, 100
3, 353280, Note_on_c, 1, 49, 100
3, 353280, Note_on_c, 1, 45, 100
3, 353280, Note_on_c, 1, 42, 100
3, 353520, Note_off_c, 1, 49, 0
3, 353520, Note_off_c, 1, 45, 0
3, 353520, Note_off_c, 1, 42, 0
3, 353904, Note_off_c, 1, 54, 0
3, 356352, Note_on_c, 1, 56, 100
3, 356352, Note_on_c, 1, 62, 100
3, 356352, Note_on_c, 1, 59, 100
3, 359280, Note_off_c, 1, 56, 64
3, 359280, Note_off_c, 1, 62, 64
3, 359280, Note_off_c, 1, 59, 64
3, 359424, Note_on_c, 1, 49, 100
3, 359424, Note_on_c, 1, 56, 100
3, 359424, Note_on_c, 1, 59, 100
3, 362352, Note_off_c, 1, 49, 64
3, 362352, Note_off_c, 1, 56, 64
3, 362352, Note_off_c, 1, 59, 64
3, 362496, Note_on_c, 1, 57, 100
3, 362816, Note_off_c, 1, 57, 0
3, 362880, Note_on_c, 1, 54, 100
3, 363200, Note_off_c, 1, 54, 0
3, 363264, Note_on_c, 1, 53, 100
3, 363584, Note_off_c, 1, 53, 0
3, 363648, Note_on_c, 1, 49, 100
3, 363968, Note_off_c, 1, 49, 0
3, 364032, Note_on_c, 1, 54, 100
3, 364352, Note_off_c, 1, 54, 0
3, 364416, Note_on_c, 1, 49, 100
3, 364736, Note_off_c, 1, 49, 0
3, 364800, Note_on_c, 1, 56, 100
3, 365120, Note_off_c, 1, 56, 0
3, 365184, Note_on_c, 1, 49, 100
3, 365504, Note_off_c, 1, 49, 0
3, 365568, Note_on_c, 1, 57, 100
3, 365888, Note_off_c, 1, 57, 0
3, 377856, Note_on_c, 1, 54, 100
3, 377856, Note_on_c, 1, 49, 100
3, 377856, Note_on_c, 1, 45, 100
3, 377856, Note_on_c, 1, 42, 100
3, 378176, Note_off_c, 1, 49, 0
3, 378176, Note_off_c, 1, 45, 0
3, 378176, Note_off_c, 1, 42, 0
3, 378480, Note_off_c, 1, 54, 0
3, 380928, Note_on_c, 1, 62, 100
3, 380928, Note_on_c, 1, 56, 100
3, 380928, Note_on_c, 1, 59, 100
3, 383856, Note_off_c, 1, 62, 64
3, 383856, Note_off_c, 1, 56, 64
3, 383856, Note_off_c, 1, 59, 64
3, 384000, Note_on_c, 1, 59, 100
3, 384000, Note_on_c, 1, 49, 100
3, 384000, Note_on_c, 1, 56, 100
3, 386928, Note_off_c, 1, 59, 64
3, 386928, Note_off_c, 1, 49, 64
3, 386928, Note_off_c, 1, 56, 64
3, 387072, Note_on_c, 1, 57, 100
3, 387232, Note_off_c, 1, 57, 0
3, 387456, Note_on_c, 1, 54, 100
3, 387616, Note_off_c, 1, 54, 0
3, 387840, Note_on_c, 1, 53, 100
3, 388000, Note_off_c, 1, 53, 0
3, 388224, Note_on_c, 1, 49, 100
3, 388384, Note_off_c, 1, 49, 0
3, 388608, Note_on_c, 1, 54, 100
3, 388768, Note_off_c, 1, 54, 0
3, 388992, Note_on_c, 1, 52, 100
3, 389152, Note_off_c, 1, 52, 0
3, 389376, Note_on_c, 1, 50, 100
3, 389536, Note_off_c, 1, 50, 0
3, 389760, Note_on_c, 1, 47, 100
3, 389920, Note_off_c, 1, 47, 0
3, 390144, Note_on_c, 1, 46, 100
3, 390304, Note_off_c, 1, 46, 0
3, 402432, Note_on_c, 1, 50, 100
3, 403824, Note_off_c, 1, 50, 0
3, 403968, Note_on_c, 1, 49, 100
3, 405360, Note_off_c, 1, 49, 0
3, 405504, Note_on_c, 1, 45, 100
3, 406896, Note_off_c, 1, 45, 0
3, 407040, Note_on_c, 1, 50, 100
3, 408432, Note_off_c, 1, 50, 0
3, 408576, Note_on_c, 1, 43, 100
3, 410108, Note_off_c, 1, 43, 0
3, 410112, Note_on_c, 1, 42, 100
3, 411040, Note_off_c, 1, 42, 0
3, 411264, Note_on_c, 1, 54, 100
3, 411424, Note_off_c, 1, 54, 0
3, 411648, Note_on_c, 1, 52, 100
3, 411808, Note_off_c, 1, 52, 0
3, 412032, Note_on_c, 1, 49, 100
3, 412192, Note_off_c, 1, 49, 0
3, 412416, Note_on_c, 1, 50, 100
3, 412576, Note_off_c, 1, 50, 0
3, 412800, Note_on_c, 1, 44, 100
3, 412960, Note_off_c, 1, 44, 0
3, 413184, Note_on_c, 1, 45, 100
3, 413808, Note_off_c, 1, 45, 0
3, 420864, Note_on_c, 1, 55, 100
3, 421052, Note_off_c, 1, 55, 0
3, 421056, Note_on_c, 1, 62, 100
3, 421244, Note_off_c, 1, 62, 0
3, 421248, Note_on_c, 1, 59, 100
3, 421436, Note_off_c, 1, 59, 0
3, 421440, Note_on_c, 1, 62, 100
3, 421628, Note_off_c, 1, 62, 0
3, 421632, Note_on_c, 1, 55, 100
3, 421820, Note_off_c, 1, 55, 0
3, 421824, Note_on_c, 1, 62, 100
3, 422012, Note_off_c, 1, 62, 0
3, 422016, Note_on_c, 1, 59, 100
3, 422204, Note_off_c, 1, 59, 0
3, 422208, Note_on_c, 1, 62, 100
3, 422368, Note_off_c, 1, 62, 0
3, 422400, Note_on_c, 1, 54, 100
3, 422588, Note_off_c, 1, 54, 0
3, 422592, Note_on_c, 1, 62, 100
3, 422780, Note_off_c, 1, 62, 0
3, 422784, Note_on_c, 1, 57, 100
3, 422972, Note_off_c, 1, 57, 0
3, 422976, Note_on_c, 1, 62, 100
3, 423164, Note_off_c, 1, 62, 0
3, 423168, Note_on_c, 1, 55, 100
3, 423356, Note_off_c, 1, 55, 0
3, 423360, Note_on_c, 1, 64, 100
3, 423548, Note_off_c, 1, 64, 0
3, 423552, Note_on_c, 1, 59, 100
3, 423740, Note_off_c, 1, 59, 0
3, 423744, Note_on_c, 1, 64, 100
3, 423904, Note_off_c, 1, 64, 0
3, 423936, Note_on_c, 1, 57, 100
3, 424124, Note_off_c, 1, 57, 0
3, 424128, Note_on_c, 1, 66, 100
3, 424316, Note_off_c, 1, 66, 0
3, 424320, Note_on_c, 1, 62, 100
3, 424508, Note_off_c, 1, 62, 0
3, 424512, Note_on_c, 1, 66, 100
3, 424700, Note_off_c, 1, 66, 0
3, 424704, Note_on_c, 1, 57, 100
3, 424892, Note_off_c, 1, 57, 0
3, 424896, Note_on_c, 1, 68, 100
3, 425084, Note_off_c, 1, 68, 0
3, 425088, Note_on_c, 1, 61, 100
3, 425276, Note_off_c, 1, 61, 0
3, 425280, Note_on_c, 1, 68, 100
3, 425440, Note_off_c, 1, 68, 0
3, 425472, Note_on_c, 1, 66, 100
3, 425472, Note_on_c, 1, 62, 100
3, 425792, Note_off_c, 1, 66, 0
3, 425792, Note_off_c, 1, 62, 0
3, 427008, Note_on_c, 1, 49, 100
3, 427772, Note_off_c, 1, 49, 0
3, 427776, Note_on_c, 1, 50, 100
3, 428540, Note_off_c, 1, 50, 0
3, 428544, Note_on_c, 1, 45, 100
3, 429936, Note_off_c, 1, 45, 0
3, 430080, Note_on_c, 1, 49, 100
3, 430844, Note_off_c, 1, 49, 0
3, 430848, Note_on_c, 1, 50, 100
3, 431612, Note_off_c, 1, 50, 0
3, 431616, Note_on_c, 1, 45, 100
3, 433008, Note_off_c, 1, 45, 0
3, 433152, Note_on_c, 1, 47, 100
3, 434544, Note_off_c, 1, 47, 0
3, 434688, Note_on_c, 1, 45, 100
3, 435008, Note_off_c, 1, 45, 0
3, 435072, Note_on_c, 1, 43, 100
3, 435392, Note_off_c, 1, 43, 0
3, 435840, Note_on_c, 1, 43, 100
3, 436160, Note_off_c, 1, 43, 0
3, 436224, Note_on_c, 1, 45, 100
3, 437616, Note_off_c, 1, 45, 0
3, 437760, Note_on_c, 1, 50, 100
3, 438080, Note_off_c, 1, 50, 0
3, 451584, Note_on_c, 1, 62, 100
3, 451584, Note_on_c, 1, 54, 100
3, 452348, Note_off_c, 1, 62, 0
3, 452352, Note_on_c, 1, 64, 100
3, 452976, Note_off_c, 1, 54, 0
3, 453116, Note_off_c, 1, 64, 0
3, 453120, Note_on_c, 1, 59, 100
3, 453120, Note_on_c, 1, 62, 100
3, 453440, Note_off_c, 1, 59, 0
3, 453440, Note_off_c, 1, 62, 0
3, 454656, Note_on_c, 1, 61, 100
3, 454656, Note_on_c, 1, 52, 100
3, 455420, Note_off_c, 1, 61, 0
3, 455424, Note_on_c, 1, 62, 100
3, 456048, Note_off_c, 1, 52, 0
3, 456068, Note_off_c, 1, 62, 0
3, 456192, Note_on_c, 1, 60, 100
3, 456192, Note_on_c, 1, 53, 100
3, 457584, Note_off_c, 1, 60, 0
3, 457584, Note_off_c, 1, 53, 0
3, 457728, Note_on_c, 1, 53, 100
3, 457888, Note_off_c, 1, 53, 0
3, 457920, Note_on_c, 1, 60, 100
3, 458080, Note_off_c, 1, 60, 0
3, 458112, Note_on_c, 1, 57, 100
3, 458272, Note_off_c, 1, 57, 0
3, 458304, Note_on_c, 1, 60, 100
3, 458464, Note_off_c, 1, 60, 0
3, 458496, Note_on_c, 1, 53, 100
3, 458656, Note_off_c, 1, 53, 0
3, 458688, Note_on_c, 1, 60, 100
3, 458848, Note_off_c, 1, 60, 0
3, 458880, Note_on_c, 1, 57, 100
3, 459040, Note_off_c, 1, 57, 0
3, 459072, Note_on_c, 1, 60, 100
3, 459232, Note_off_c, 1, 60, 0
3, 459264, Note_on_c, 1, 53, 100
3, 459424, Note_off_c, 1, 53, 0
3, 459456, Note_on_c, 1, 60, 100
3, 459616, Note_off_c, 1, 60, 0
3, 459648, Note_on_c, 1, 57, 100
3, 459808, Note_off_c, 1, 57, 0
3, 459840, Note_on_c, 1, 60, 100
3, 460000, Note_off_c, 1, 60, 0
3, 460032, Note_on_c, 1, 53, 100
3, 460192, Note_off_c, 1, 53, 0
3, 460224, Note_on_c, 1, 60, 100
3, 460384, Note_off_c, 1, 60, 0
3, 460416, Note_on_c, 1, 57, 100
3, 460576, Note_off_c, 1, 57, 0
3, 460608, Note_on_c, 1, 60, 100
3, 460768, Note_off_c, 1, 60, 0
3, 460800, Note_on_c, 1, 56, 100
3, 460800, Note_on_c, 1, 52, 100
3, 461120, Note_off_c, 1, 56, 0
3, 461120, Note_off_c, 1, 52, 0
3, 462336, Note_on_c, 1, 57, 100
3, 462336, Note_on_c, 1, 52, 100
3, 462656, Note_off_c, 1, 57, 0
3, 462656, Note_off_c, 1, 52, 0
3, 463872, Note_on_c, 1, 56, 100
3, 463872, Note_on_c, 1, 52, 100
3, 464192, Note_off_c, 1, 56, 0
3, 464192, Note_off_c, 1, 52, 0
3, 465408, Note_on_c, 1, 57, 100
3, 465408, Note_on_c, 1, 52, 100
3, 465728, Note_off_c, 1, 57, 0
3, 465728, Note_off_c, 1, 52, 0
3, 466944, Note_on_c, 1, 52, 100
3, 466944, Note_on_c, 1, 40, 100
3, 468336, Note_off_c, 1, 52, 0
3, 468336, Note_off_c, 1, 40, 0
3, 479232, Note_on_c, 1, 57, 75
3, 479232, Note_on_c, 1, 57, 75
3, 479996, Note_off_c, 1, 57, 0
3, 480000, Note_on_c, 1, 59, 75
3, 480764, Note_off_c, 1, 57, 0
3, 480764, Note_off_c, 1, 59, 0
3, 480768, Note_on_c, 1, 61, 75
3, 480768, Note_on_c, 1, 57, 75
3, 482160, Note_off_c, 1, 61, 0
3, 482304, Note_on_c, 1, 62, 75
3, 482684, Note_off_c, 1, 62, 0
3, 482688, Note_on_c, 1, 64, 75
3, 482848, Note_off_c, 1, 64, 0
3, 483072, Note_on_c, 1, 66, 75
3, 483232, Note_off_c, 1, 66, 0
3, 483456, Note_on_c, 1, 64, 75
3, 483616, Note_off_c, 1, 64, 0
3, 483840, Note_on_c, 1, 64, 75
3, 484220, Note_off_c, 1, 64, 0
3, 484224, Note_on_c, 1, 62, 75
3, 484544, Note_off_c, 1, 62, 0
3, 484608, Note_on_c, 1, 61, 75
3, 484768, Note_off_c, 1, 57, 64
3, 484928, Note_off_c, 1, 61, 0
3, 485472, Note_on_c, 1, 64, 75
3, 485472, Note_on_c, 1, 61, 75
3, 485472, Note_on_c, 1, 57, 75
3, 486236, Note_off_c, 1, 64, 0
3, 486236, Note_off_c, 1, 61, 0
3, 486236, Note_off_c, 1, 57, 0
3, 486240, Note_on_c, 1, 68, 75
3, 486240, Note_on_c, 1, 59, 75
3, 486240, Note_on_c, 1, 62, 75
3, 487004, Note_off_c, 1, 68, 0
3, 487004, Note_off_c, 1, 59, 0
3, 487004, Note_off_c, 1, 62, 0
3, 487056, Note_on_c, 1, 61, 75
3, 487056, Note_on_c, 1, 69, 75
3, 487056, Note_on_c, 1, 64, 75
3, 487680, Note_off_c, 1, 61, 0
3, 487680, Note_off_c, 1, 69, 0
3, 487680, Note_off_c, 1, 64, 0
3, 489600, Note_on_c, 1, 57, 75
3, 489600, Note_on_c, 1, 51, 75
3, 489920, Note_off_c, 1, 57, 0
3, 489920, Note_off_c, 1, 51, 0
3, 489984, Note_on_c, 1, 57, 75
3, 489984, Note_on_c, 1, 52, 75
3, 490748, Note_off_c, 1, 57, 0
3, 490752, Note_on_c, 1, 56, 75
3, 490912, Note_off_c, 1, 52, 0
3, 491072, Note_off_c, 1, 56, 0
3, 531456, Note_on_c, 1, 48, 100
3, 531644, Note_off_c, 1, 48, 0
3, 531648, Note_on_c, 1, 57, 100
3, 531836, Note_off_c, 1, 57, 0
3, 531840, Note_on_c, 1, 52, 100
3, 532028, Note_off_c, 1, 52, 0
3, 532032, Note_on_c, 1, 57, 100
3, 532220, Note_off_c, 1, 57, 0
3, 532224, Note_on_c, 1, 48, 100
3, 532412, Note_off_c, 1, 48, 0
3, 532416, Note_on_c, 1, 57, 100
3, 532604, Note_off_c, 1, 57, 0
3, 532608, Note_on_c, 1, 52, 100
3, 532796, Note_off_c, 1, 52, 0
3, 532800, Note_on_c, 1, 57, 100
3, 532960, Note_off_c, 1, 57, 0
3, 532992, Note_on_c, 1, 50, 100
3, 533180, Note_off_c, 1, 50, 0
3, 533184, Note_on_c, 1, 59, 100
3, 533372, Note_off_c, 1, 59, 0
3, 533376, Note_on_c, 1, 53, 100
3, 533564, Note_off_c, 1, 53, 0
3, 533568, Note_on_c, 1, 59, 100
3, 533756, Note_off_c, 1, 59, 0
3, 533760, Note_on_c, 1, 50, 100
3, 533948, Note_off_c, 1, 50, 0
3, 533952, Note_on_c, 1, 59, 100
3, 534140, Note_off_c, 1, 59, 0
3, 534144, Note_on_c, 1, 53, 100
3, 534332, Note_off_c, 1, 53, 0
3, 534336, Note_on_c, 1, 59, 100
3, 534496, Note_off_c, 1, 59, 0
3, 534528, Note_on_c, 1, 50, 100
3, 534716, Note_off_c, 1, 50, 0
3, 534720, Note_on_c, 1, 59, 100
3, 534908, Note_off_c, 1, 59, 0
3, 534912, Note_on_c, 1, 53, 100
3, 535100, Note_off_c, 1, 53, 0
3, 535104, Note_on_c, 1, 59, 100
3, 535292, Note_off_c, 1, 59, 0
3, 535296, Note_on_c, 1, 50, 100
3, 535484, Note_off_c, 1, 50, 0
3, 535488, Note_on_c, 1, 59, 100
3, 535676, Note_off_c, 1, 59, 0
3, 535680, Note_on_c, 1, 53, 100
3, 535868, Note_off_c, 1, 53, 0
3, 535872, Note_on_c, 1, 59, 100
3, 536032, Note_off_c, 1, 59, 0
3, 536064, Note_on_c, 1, 50, 100
3, 536252, Note_off_c, 1, 50, 0
3, 536256, Note_on_c, 1, 58, 100
3, 536444, Note_off_c, 1, 58, 0
3, 536448, Note_on_c, 1, 53, 100
3, 536636, Note_off_c, 1, 53, 0
3, 536640, Note_on_c, 1, 58, 100
3, 536828, Note_off_c, 1, 58, 0
3, 536832, Note_on_c, 1, 50, 100
3, 537020, Note_off_c, 1, 50, 0
3, 537024, Note_on_c, 1, 58, 100
3, 537212, Note_off_c, 1, 58, 0
3, 537216, Note_on_c, 1, 53, 100
3, 537404, Note_off_c, 1, 53, 0
3, 537408, Note_on_c, 1, 58, 100
3, 537568, Note_off_c, 1, 58, 0
3, 537600, Note_on_c, 1, 50, 100
3, 537788, Note_off_c, 1, 50, 0
3, 537792, Note_on_c, 1, 58, 100
3, 537980, Note_off_c, 1, 58, 0
3, 537984, Note_on_c, 1, 53, 100
3, 538172, Note_off_c, 1, 53, 0
3, 538176, Note_on_c, 1, 58, 100
3, 538364, Note_off_c, 1, 58, 0
3, 538368, Note_on_c, 1, 50, 100
3, 538556, Note_off_c, 1, 50, 0
3, 538560, Note_on_c, 1, 58, 100
3, 538748, Note_off_c, 1, 58, 0
3, 538752, Note_on_c, 1, 53, 100
3, 538940, Note_off_c, 1, 53, 0
3, 538944, Note_on_c, 1, 58, 100
3, 539132, Note_off_c, 1, 58, 0
3, 539136, Note_on_c, 1, 49, 100
3, 539324, Note_off_c, 1, 49, 0
3, 539328, Note_on_c, 1, 58, 100
3, 539516, Note_off_c, 1, 58, 0
3, 539520, Note_on_c, 1, 53, 100
3, 539708, Note_off_c, 1, 53, 0
3, 539712, Note_on_c, 1, 58, 100
3, 539900, Note_off_c, 1, 58, 0
3, 539904, Note_on_c, 1, 49, 100
3, 540092, Note_off_c, 1, 49, 0
3, 540096, Note_on_c, 1, 58, 100
3, 540284, Note_off_c, 1, 58, 0
3, 540288, Note_on_c, 1, 53, 100
3, 540476, Note_off_c, 1, 53, 0
3, 540480, Note_on_c, 1, 58, 100
3, 540640, Note_off_c, 1, 58, 0
3, 540672, Note_on_c, 1, 49, 100
3, 540860, Note_off_c, 1, 49, 0
3, 540864, Note_on_c, 1, 56, 100
3, 541052, Note_off_c, 1, 56, 0
3, 541056, Note_on_c, 1, 53, 100
3, 541244, Note_off_c, 1, 53, 0
3, 541248, Note_on_c, 1, 56, 100
3, 541436, Note_off_c, 1, 56, 0
3, 541440, Note_on_c, 1, 49, 100
3, 541628, Note_off_c, 1, 49, 0
3, 541632, Note_on_c, 1, 56, 100
3, 541820, Note_off_c, 1, 56, 0
3, 541824, Note_on_c, 1, 53, 100
3, 542012, Note_off_c, 1, 53, 0
3, 542016, Note_on_c, 1, 56, 100
3, 542176, Note_off_c, 1, 56, 0
3, 542208, Note_on_c, 1, 48, 100
3, 542396, Note_off_c, 1, 48, 0
3, 542400, Note_on_c, 1, 58, 100
3, 542588, Note_off_c, 1, 58, 0
3, 542592, Note_on_c, 1, 55, 100
3, 542780, Note_off_c, 1, 55, 0
3, 542784, Note_on_c, 1, 58, 100
3, 542972, Note_off_c, 1, 58, 0
3, 542976, Note_on_c, 1, 48, 100
3, 543164, Note_off_c, 1, 48, 0
3, 543168, Note_on_c, 1, 58, 100
3, 543356, Note_off_c, 1, 58, 0
3, 543360, Note_on_c, 1, 55, 100
3, 543548, Note_off_c, 1, 55, 0
3, 543552, Note_on_c, 1, 58, 100
3, 543712, Note_off_c, 1, 58, 0
3, 543744, Note_on_c, 1, 48, 100
3, 543932, Note_off_c, 1, 48, 0
3, 543936, Note_on_c, 1, 58, 100
3, 544124, Note_off_c, 1, 58, 0
3, 544128, Note_on_c, 1, 55, 100
3, 544316, Note_off_c, 1, 55, 0
3, 544320, Note_on_c, 1, 58, 100
3, 544508, Note_off_c, 1, 58, 0
3, 544512, Note_on_c, 1, 48, 100
3, 544700, Note_off_c, 1, 48, 0
3, 544704, Note_on_c, 1, 58, 100
3, 544892, Note_off_c, 1, 58, 0
3, 544896, Note_on_c, 1, 55, 100
3, 545084, Note_off_c, 1, 55, 0
3, 545088, Note_on_c, 1, 58, 100
3, 545248, Note_off_c, 1, 58, 0
3, 545280, Note_on_c, 1, 48, 100
3, 545468, Note_off_c, 1, 48, 0
3, 545472, Note_on_c, 1, 57, 100
3, 545660, Note_off_c, 1, 57, 0
3, 545664, Note_on_c, 1, 53, 100
3, 545852, Note_off_c, 1, 53, 0
3, 545856, Note_on_c, 1, 57, 100
3, 546044, Note_off_c, 1, 57, 0
3, 546048, Note_on_c, 1, 48, 100
3, 546236, Note_off_c, 1, 48, 0
3, 546240, Note_on_c, 1, 57, 100
3, 546428, Note_off_c, 1, 57, 0
3, 546432, Note_on_c, 1, 53, 100
3, 546620, Note_off_c, 1, 53, 0
3, 546624, Note_on_c, 1, 57, 100
3, 546784, Note_off_c, 1, 57, 0
3, 546816, Note_on_c, 1, 49, 100
3, 547004, Note_off_c, 1, 49, 0
3, 547008, Note_on_c, 1, 58, 100
3, 547196, Note_off_c, 1, 58, 0
3, 547200, Note_on_c, 1, 55, 100
3, 547388, Note_off_c, 1, 55, 0
3, 547392, Note_on_c, 1, 58, 100
3, 547580, Note_off_c, 1, 58, 0
3, 547584, Note_on_c, 1, 49, 100
3, 547772, Note_off_c, 1, 49, 0
3, 547776, Note_on_c, 1, 58, 100
3, 547964, Note_off_c, 1, 58, 0
3, 547968, Note_on_c, 1, 55, 100
3, 548156, Note_off_c, 1, 55, 0
3, 548160, Note_on_c, 1, 58, 100
3, 548320, Note_off_c, 1, 58, 0
3, 548352, Note_on_c, 1, 50, 100
3, 548540, Note_off_c, 1, 50, 0
3, 548544, Note_on_c, 1, 57, 100
3, 548732, Note_off_c, 1, 57, 0
3, 548736, Note_on_c, 1, 53, 100
3, 548924, Note_off_c, 1, 53, 0
3, 548928, Note_on_c, 1, 57, 100
3, 549116, Note_off_c, 1, 57, 0
3, 549120, Note_on_c, 1, 50, 100
3, 549308, Note_off_c, 1, 50, 0
3, 549312, Note_on_c, 1, 57, 100
3, 549500, Note_off_c, 1, 57, 0
3, 549504, Note_on_c, 1, 53, 100
3, 549692, Note_off_c, 1, 53, 0
3, 549696, Note_on_c, 1, 57, 100
3, 549856, Note_off_c, 1, 57, 0
3, 549888, Note_on_c, 1, 51, 100
3, 550076, Note_off_c, 1, 51, 0
3, 550080, Note_on_c, 1, 60, 100
3, 550268, Note_off_c, 1, 60, 0
3, 550272, Note_on_c, 1, 57, 100
3, 550460, Note_off_c, 1, 57, 0
3, 550464, Note_on_c, 1, 60, 100
3, 550652, Note_off_c, 1, 60, 0
3, 550656, Note_on_c, 1, 51, 100
3, 550844, Note_off_c, 1, 51, 0
3, 550848, Note_on_c, 1, 60, 100
3, 551036, Note_off_c, 1, 60, 0
3, 551040, Note_on_c, 1, 57, 100
3, 551228, Note_off_c, 1, 57, 0
3, 551232, Note_on_c, 1, 60, 100
3, 551392, Note_off_c, 1, 60, 0
3, 551424, Note_on_c, 1, 61, 100
3, 551424, Note_on_c, 1, 57, 100
3, 551424, Note_on_c, 1, 52, 100
3, 552816, Note_off_c, 1, 61, 0
3, 552816, Note_off_c, 1, 57, 0
3, 552816, Note_off_c, 1, 52, 0
3, 554496, Note_on_c, 1, 52, 100
3, 554880, Note_on_c, 1, 57, 100
3, 555260, Note_off_c, 1, 57, 0
3, 555264, Note_on_c, 1, 59, 100
3, 555644, Note_off_c, 1, 59, 0
3, 555648, Note_on_c, 1, 56, 100
3, 556028, Note_off_c, 1, 56, 0
3, 556032, Note_on_c, 1, 57, 100
3, 556412, Note_off_c, 1, 57, 0
3, 556416, Note_on_c, 1, 61, 100
3, 556796, Note_off_c, 1, 61, 0
3, 556800, Note_on_c, 1, 62, 100
3, 557180, Note_off_c, 1, 62, 0
3, 557184, Note_on_c, 1, 59, 100
3, 557424, Note_off_c, 1, 52, 0
3, 557564, Note_off_c, 1, 59, 0
3, 557760, Note_on_c, 1, 45, 100
3, 557948, Note_off_c, 1, 45, 0
3, 557952, Note_on_c, 1, 49, 100
3, 558140, Note_off_c, 1, 49, 0
3, 558144, Note_on_c, 1, 52, 100
3, 558332, Note_off_c, 1, 52, 0
3, 558336, Note_on_c, 1, 57, 100
3, 558524, Note_off_c, 1, 57, 0
3, 558528, Note_on_c, 1, 56, 100
3, 558716, Note_off_c, 1, 56, 0
3, 558720, Note_on_c, 1, 57, 100
3, 558908, Note_off_c, 1, 57, 0
3, 558912, Note_on_c, 1, 45, 100
3, 559072, Note_off_c, 1, 45, 0
3, 559296, Note_on_c, 1, 44, 100
3, 559484, Note_off_c, 1, 44, 0
3, 559488, Note_on_c, 1, 47, 100
3, 559676, Note_off_c, 1, 47, 0
3, 559680, Note_on_c, 1, 52, 100
3, 559868, Note_off_c, 1, 52, 0
3, 559872, Note_on_c, 1, 56, 100
3, 560060, Note_off_c, 1, 56, 0
3, 560064, Note_on_c, 1, 54, 100
3, 560252, Note_off_c, 1, 54, 0
3, 560256, Note_on_c, 1, 56, 100
3, 560444, Note_off_c, 1, 56, 0
3, 560448, Note_on_c, 1, 44, 100
3, 560608, Note_off_c, 1, 44, 0
3, 560832, Note_on_c, 1, 42, 100
3, 561020, Note_off_c, 1, 42, 0
3, 561024, Note_on_c, 1, 45, 100
3, 561212, Note_off_c, 1, 45, 0
3, 561216, Note_on_c, 1, 49, 100
3, 561404, Note_off_c, 1, 49, 0
3, 561408, Note_on_c, 1, 54, 100
3, 561596, Note_off_c, 1, 54, 0
3, 561600, Note_on_c, 1, 53, 100
3, 561788, Note_off_c, 1, 53, 0
3, 561792, Note_on_c, 1, 54, 100
3, 561980, Note_off_c, 1, 54, 0
3, 561984, Note_on_c, 1, 42, 100
3, 562144, Note_off_c, 1, 42, 0
3, 562368, Note_on_c, 1, 40, 100
3, 562556, Note_off_c, 1, 40, 0
3, 562560, Note_on_c, 1, 44, 100
3, 562748, Note_off_c, 1, 44, 0
3, 562752, Note_on_c, 1, 49, 100
3, 562940, Note_off_c, 1, 49, 0
3, 562944, Note_on_c, 1, 52, 100
3, 563132, Note_off_c, 1, 52, 0
3, 563136, Note_on_c, 1, 51, 100
3, 563324, Note_off_c, 1, 51, 0
3, 563328, Note_on_c, 1, 52, 100
3, 563516, Note_off_c, 1, 52, 0
3, 563520, Note_on_c, 1, 40, 100
3, 563680, Note_off_c, 1, 40, 0
3, 563904, Note_on_c, 1, 50, 100
3, 564092, Note_off_c, 1, 50, 0
3, 564096, Note_on_c, 1, 54, 100
3, 564284, Note_off_c, 1, 54, 0
3, 564288, Note_on_c, 1, 57, 100
3, 564476, Note_off_c, 1, 57, 0
3, 564480, Note_on_c, 1, 62, 100
3, 564668, Note_off_c, 1, 62, 0
3, 564672, Note_on_c, 1, 61, 100
3, 564860, Note_off_c, 1, 61, 0
3, 564864, Note_on_c, 1, 62, 100
3, 565052, Note_off_c, 1, 62, 0
3, 565056, Note_on_c, 1, 50, 100
3, 565216, Note_off_c, 1, 50, 0
3, 565440, Note_on_c, 1, 49, 100
3, 565628, Note_off_c, 1, 49, 0
3, 565632, Note_on_c, 1, 52, 100
3, 565820, Note_off_c, 1, 52, 0
3, 565824, Note_on_c, 1, 57, 100
3, 566012, Note_off_c, 1, 57, 0
3, 566016, Note_on_c, 1, 61, 100
3, 566204, Note_off_c, 1, 61, 0
3, 566208, Note_on_c, 1, 59, 100
3, 566396, Note_off_c, 1, 59, 0
3, 566400, Note_on_c, 1, 61, 100
3, 566588, Note_off_c, 1, 61, 0
3, 566592, Note_on_c, 1, 49, 100
3, 566752, Note_off_c, 1, 49, 0
3, 566784, Note_on_c, 1, 59, 100
3, 567104, Note_off_c, 1, 59, 0
3, 567168, Note_on_c, 1, 60, 100
3, 567488, Note_off_c, 1, 60, 0
3, 567552, Note_on_c, 1, 59, 100
3, 567872, Note_off_c, 1, 59, 0
3, 567936, Note_on_c, 1, 60, 100
3, 568256, Note_off_c, 1, 60, 0
3, 568320, Note_on_c, 1, 59, 100
3, 568640, Note_off_c, 1, 59, 0
3, 568704, Note_on_c, 1, 60, 100
3, 569024, Note_off_c, 1, 60, 0
3, 569088, Note_on_c, 1, 59, 100
3, 569408, Note_off_c, 1, 59, 0
3, 576000, Note_on_c, 1, 62, 100
3, 576572, Note_off_c, 1, 62, 0
3, 576576, Note_on_c, 1, 61, 100
3, 576764, Note_off_c, 1, 61, 0
3, 576768, Note_on_c, 1, 59, 100
3, 577340, Note_off_c, 1, 59, 0
3, 577344, Note_on_c, 1, 57, 100
3, 577532, Note_off_c, 1, 57, 0
3, 577536, Note_on_c, 1, 56, 100
3, 578108, Note_off_c, 1, 56, 0
3, 578112, Note_on_c, 1, 54, 100
3, 578300, Note_off_c, 1, 54, 0
3, 578304, Note_on_c, 1, 52, 100
3, 578876, Note_off_c, 1, 52, 0
3, 578880, Note_on_c, 1, 50, 100
3, 579040, Note_off_c, 1, 50, 0
3, 579072, Note_on_c, 1, 49, 100
3, 579644, Note_off_c, 1, 49, 0
3, 579648, Note_on_c, 1, 47, 100
3, 579836, Note_off_c, 1, 47, 0
3, 579840, Note_on_c, 1, 45, 100
3, 580412, Note_off_c, 1, 45, 0
3, 580416, Note_on_c, 1, 44, 100
3, 580604, Note_off_c, 1, 44, 0
3, 580608, Note_on_c, 1, 42, 100
3, 581180, Note_off_c, 1, 42, 0
3, 581184, Note_on_c, 1, 40, 100
3, 581372, Note_off_c, 1, 40, 0
3, 581376, Note_on_c, 1, 38, 100
3, 581948, Note_off_c, 1, 38, 0
3, 581952, Note_on_c, 1, 37, 100
3, 582112, Note_off_c, 1, 37, 0
3, 582144, Note_on_c, 1, 35, 100
3, 583536, Note_off_c, 1, 35, 0
3, 583680, Note_on_c, 1, 37, 100
3, 585072, Note_off_c, 1, 37, 0
3, 585216, Note_on_c, 1, 38, 100
3, 585840, Note_off_c, 1, 38, 0
3, 588288, Note_on_c, 1, 40, 100
3, 588912, Note_off_c, 1, 40, 0
3, 589824, Note_on_c, 1, 52, 100
3, 590012, Note_off_c, 1, 52, 0
3, 590016, Note_on_c, 1, 62, 100
3, 590204, Note_off_c, 1, 62, 0
3, 590208, Note_on_c, 1, 56, 100
3, 590396, Note_off_c, 1, 56, 0
3, 590400, Note_on_c, 1, 62, 100
3, 590588, Note_off_c, 1, 62, 0
3, 590592, Note_on_c, 1, 52, 100
3, 590780, Note_off_c, 1, 52, 0
3, 590784, Note_on_c, 1, 62, 100
3, 590972, Note_off_c, 1, 62, 0
3, 590976, Note_on_c, 1, 56, 100
3, 591164, Note_off_c, 1, 56, 0
3, 591168, Note_on_c, 1, 62, 100
3, 591328, Note_off_c, 1, 62, 0
3, 591360, Note_on_c, 1, 57, 100
3, 591360, Note_on_c, 1, 61, 100
3, 591984, Note_off_c, 1, 57, 0
3, 591984, Note_off_c, 1, 61, 0
3, 592704, Note_on_c, 1, 57, 100
3, 592704, Note_on_c, 1, 45, 100
3, 592864, Note_off_c, 1, 57, 0
3, 592864, Note_off_c, 1, 45, 0
3, 592896, Note_on_c, 1, 56, 100
3, 592896, Note_on_c, 1, 44, 100
3, 593520, Note_off_c, 1, 56, 0
3, 593520, Note_off_c, 1, 44, 0
3, 594240, Note_on_c, 1, 56, 100
3, 594240, Note_on_c, 1, 44, 100
3, 594400, Note_off_c, 1, 56, 0
3, 594400, Note_off_c, 1, 44, 0
3, 594432, Note_on_c, 1, 54, 100
3, 594432, Note_on_c, 1, 42, 100
3, 595056, Note_off_c, 1, 54, 0
3, 595056, Note_off_c, 1, 42, 0
3, 595776, Note_on_c, 1, 54, 100
3, 595776, Note_on_c, 1, 42, 100
3, 595936, Note_off_c, 1, 54, 0
3, 595936, Note_off_c, 1, 42, 0
3, 595968, Note_on_c, 1, 52, 100
3, 595968, Note_on_c, 1, 40, 100
3, 596592, Note_off_c, 1, 52, 0
3, 596592, Note_off_c, 1, 40, 0
3, 597312, Note_on_c, 1, 54, 100
3, 597312, Note_on_c, 1, 42, 100
3, 597472, Note_off_c, 1, 54, 0
3, 597472, Note_off_c, 1, 42, 0
3, 597504, Note_on_c, 1, 52, 100
3, 597504, Note_on_c, 1, 40, 100
3, 598128, Note_off_c, 1, 52, 0
3, 598128, Note_off_c, 1, 40, 0
3, 598848, Note_on_c, 1, 52, 100
3, 598848, Note_on_c, 1, 40, 100
3, 599008, Note_off_c, 1, 52, 0
3, 599008, Note_off_c, 1, 40, 0
3, 599040, Note_on_c, 1, 49, 100
3, 599040, Note_on_c, 1, 37, 100
3, 599664, Note_off_c, 1, 49, 0
3, 599664, Note_off_c, 1, 37, 0
3, 600576, Note_on_c, 1, 47, 100
3, 600764, Note_off_c, 1, 47, 0
3, 600768, Note_on_c, 1, 57, 100
3, 600956, Note_off_c, 1, 57, 0
3, 600960, Note_on_c, 1, 48, 100
3, 601148, Note_off_c, 1, 48, 0
3, 601152, Note_on_c, 1, 57, 100
3, 601340, Note_off_c, 1, 57, 0
3, 601344, Note_on_c, 1, 47, 100
3, 601532, Note_off_c, 1, 47, 0
3, 601536, Note_on_c, 1, 57, 100
3, 601724, Note_off_c, 1, 57, 0
3, 601728, Note_on_c, 1, 48, 100
3, 601916, Note_off_c, 1, 48, 0
3, 601920, Note_on_c, 1, 57, 100
3, 602080, Note_off_c, 1, 57, 0
3, 602112, Note_on_c, 1, 47, 100
3, 602300, Note_off_c, 1, 47, 0
3, 602304, Note_on_c, 1, 57, 100
3, 602492, Note_off_c, 1, 57, 0
3, 602496, Note_on_c, 1, 48, 100
3, 602684, Note_off_c, 1, 48, 0
3, 602688, Note_on_c, 1, 57, 100
3, 602876, Note_off_c, 1, 57, 0
3, 602880, Note_on_c, 1, 47, 100
3, 603200, Note_off_c, 1, 47, 0
3, 603648, Note_on_c, 1, 52, 100
3, 603836, Note_off_c, 1, 52, 0
3, 603840, Note_on_c, 1, 62, 100
3, 604028, Note_off_c, 1, 62, 0
3, 604032, Note_on_c, 1, 53, 100
3, 604220, Note_off_c, 1, 53, 0
3, 604224, Note_on_c, 1, 62, 100
3, 604412, Note_off_c, 1, 62, 0
3, 604416, Note_on_c, 1, 52, 100
3, 604604, Note_off_c, 1, 52, 0
3, 604608, Note_on_c, 1, 62, 100
3, 604796, Note_off_c, 1, 62, 0
3, 604800, Note_on_c, 1, 53, 100
3, 604988, Note_off_c, 1, 53, 0
3, 604992, Note_on_c, 1, 62, 100
3, 605152, Note_off_c, 1, 62, 0
3, 605184, Note_on_c, 1, 52, 100
3, 605372, Note_off_c, 1, 52, 0
3, 605376, Note_on_c, 1, 62, 100
3, 605564, Note_off_c, 1, 62, 0
3, 605568, Note_on_c, 1, 53, 100
3, 605756, Note_off_c, 1, 53, 0
3, 605760, Note_on_c, 1, 62, 100
3, 605948, Note_off_c, 1, 62, 0
3, 605952, Note_on_c, 1, 52, 100
3, 606272, Note_off_c, 1, 52, 0
3, 612864, Note_on_c, 1, 49, 100
3, 613052, Note_off_c, 1, 49, 0
3, 613056, Note_on_c, 1, 61, 100
3, 613216, Note_off_c, 1, 61, 0
3, 613248, Note_on_c, 1, 47, 100
3, 613436, Note_off_c, 1, 47, 0
3, 613440, Note_on_c, 1, 59, 100
3, 613600, Note_off_c, 1, 59, 0
3, 613632, Note_on_c, 1, 45, 100
3, 613820, Note_off_c, 1, 45, 0
3, 613824, Note_on_c, 1, 57, 100
3, 613984, Note_off_c, 1, 57, 0
3, 614016, Note_on_c, 1, 44, 100
3, 614204, Note_off_c, 1, 44, 0
3, 614208, Note_on_c, 1, 56, 100
3, 614368, Note_off_c, 1, 56, 0
3, 614400, Note_on_c, 1, 42, 100
3, 614588, Note_off_c, 1, 42, 0
3, 614592, Note_on_c, 1, 54, 100
3, 614752, Note_off_c, 1, 54, 0
3, 614784, Note_on_c, 1, 40, 100
3, 614972, Note_off_c, 1, 40, 0
3, 614976, Note_on_c, 1, 52, 100
3, 615136, Note_off_c, 1, 52, 0
3, 615168, Note_on_c, 1, 38, 100
3, 615356, Note_off_c, 1, 38, 0
3, 615360, Note_on_c, 1, 50, 100
3, 615520, Note_off_c, 1, 50, 0
3, 615552, Note_on_c, 1, 37, 100
3, 615740, Note_off_c, 1, 37, 0
3, 615744, Note_on_c, 1, 49, 100
3, 615904, Note_off_c, 1, 49, 0
3, 615936, Note_on_c, 1, 47, 100
3, 615936, Note_on_c, 1, 35, 100
3, 616128, Note_on_c, 1, 50, 100
3, 616316, Note_off_c, 1, 50, 0
3, 616320, Note_on_c, 1, 56, 100
3, 616508, Note_off_c, 1, 56, 0
3, 616512, Note_on_c, 1, 59, 100
3, 616700, Note_off_c, 1, 59, 0
3, 617328, Note_off_c, 1, 47, 0
3, 617328, Note_off_c, 1, 35, 0
3, 617472, Note_on_c, 1, 49, 100
3, 617472, Note_on_c, 1, 37, 100
3, 617664, Note_on_c, 1, 52, 100
3, 617852, Note_off_c, 1, 52, 0
3, 617856, Note_on_c, 1, 58, 100
3, 618044, Note_off_c, 1, 58, 0
3, 618048, Note_on_c, 1, 61, 100
3, 618236, Note_off_c, 1, 61, 0
3, 618864, Note_off_c, 1, 49, 0
3, 618864, Note_off_c, 1, 37, 0
3, 619008, Note_on_c, 1, 50, 100
3, 619008, Note_on_c, 1, 38, 100
3, 619200, Note_on_c, 1, 54, 100
3, 619388, Note_off_c, 1, 54, 0
3, 619392, Note_on_c, 1, 59, 100
3, 619580, Note_off_c, 1, 59, 0
3, 619584, Note_on_c, 1, 62, 100
3, 619772, Note_off_c, 1, 62, 0
3, 620400, Note_off_c, 1, 50, 0
3, 620400, Note_off_c, 1, 38, 0
3, 620544, Note_on_c, 1, 51, 100
3, 620544, Note_on_c, 1, 39, 100
3, 621936, Note_off_c, 1, 51, 0
3, 621936, Note_off_c, 1, 39, 0
3, 622080, Note_on_c, 1, 52, 100
3, 622080, Note_on_c, 1, 40, 100
3, 622704, Note_off_c, 1, 52, 0
3, 622704, Note_off_c, 1, 40, 0
3, 623232, Note_on_c, 1, 62, 100
3, 623392, Note_off_c, 1, 62, 0
3, 623616, Note_on_c, 1, 61, 100
3, 623776, Note_off_c, 1, 61, 0
3, 624000, Note_on_c, 1, 56, 100
3, 624160, Note_off_c, 1, 56, 0
3, 624384, Note_on_c, 1, 57, 100
3, 624544, Note_off_c, 1, 57, 0
3, 624768, Note_on_c, 1, 59, 100
3, 624928, Note_off_c, 1, 59, 0
3, 625152, Note_on_c, 1, 61, 100
3, 625340, Note_off_c, 1, 61, 0
3, 625344, Note_on_c, 1, 64, 100
3, 625532, Note_off_c, 1, 64, 0
3, 625536, Note_on_c, 1, 61, 100
3, 625724, Note_off_c, 1, 61, 0
3, 625728, Note_on_c, 1, 64, 100
3, 625916, Note_off_c, 1, 64, 0
3, 625920, Note_on_c, 1, 62, 100
3, 626108, Note_off_c, 1, 62, 0
3, 626112, Note_on_c, 1, 64, 100
3, 626300, Note_off_c, 1, 64, 0
3, 626304, Note_on_c, 1, 59, 100
3, 626492, Note_off_c, 1, 59, 0
3, 626496, Note_on_c, 1, 64, 100
3, 626656, Note_off_c, 1, 64, 0
3, 626688, Note_on_c, 1, 61, 100
3, 626876, Note_off_c, 1, 61, 0
3, 626880, Note_on_c, 1, 64, 100
3, 627068, Note_off_c, 1, 64, 0
3, 627072, Note_on_c, 1, 56, 100
3, 627260, Note_off_c, 1, 56, 0
3, 627264, Note_on_c, 1, 64, 100
3, 627452, Note_off_c, 1, 64, 0
3, 627456, Note_on_c, 1, 57, 100
3, 627644, Note_off_c, 1, 57, 0
3, 627648, Note_on_c, 1, 64, 100
3, 627836, Note_off_c, 1, 64, 0
3, 627840, Note_on_c, 1, 59, 100
3, 628028, Note_off_c, 1, 59, 0
3, 628032, Note_on_c, 1, 64, 100
3, 628192, Note_off_c, 1, 64, 0
3, 628224, Note_on_c, 1, 61, 100
3, 628544, Note_off_c, 1, 61, 0
3, 629760, Note_on_c, 1, 52, 100
3, 629948, Note_off_c, 1, 52, 0
3, 629952, Note_on_c, 1, 62, 100
3, 630140, Note_off_c, 1, 62, 0
3, 630144, Note_on_c, 1, 56, 100
3, 630332, Note_off_c, 1, 56, 0
3, 630336, Note_on_c, 1, 62, 100
3, 630524, Note_off_c, 1, 62, 0
3, 630528, Note_on_c, 1, 52, 100
3, 630716, Note_off_c, 1, 52, 0
3, 630720, Note_on_c, 1, 62, 100
3, 630908, Note_off_c, 1, 62, 0
3, 630912, Note_on_c, 1, 56, 100
3, 631100, Note_off_c, 1, 56, 0
3, 631104, Note_on_c, 1, 62, 100
3, 631264, Note_off_c, 1, 62, 0
3, 631296, Note_on_c, 1, 45, 100
3, 631484, Note_off_c, 1, 45, 0
3, 631488, Note_on_c, 1, 57, 100
3, 631676, Note_off_c, 1, 57, 0
3, 631680, Note_on_c, 1, 49, 100
3, 631868, Note_off_c, 1, 49, 0
3, 631872, Note_on_c, 1, 57, 100
3, 632060, Note_off_c, 1, 57, 0
3, 632064, Note_on_c, 1, 52, 100
3, 632252, Note_off_c, 1, 52, 0
3, 632256, Note_on_c, 1, 57, 100
3, 632444, Note_off_c, 1, 57, 0
3, 632448, Note_on_c, 1, 49, 100
3, 632636, Note_off_c, 1, 49, 0
3, 632640, Note_on_c, 1, 57, 100
3, 632800, Note_off_c, 1, 57, 0
3, 632832, Note_on_c, 1, 45, 100
3, 633020, Note_off_c, 1, 45, 0
3, 633024, Note_on_c, 1, 57, 100
3, 633212, Note_off_c, 1, 57, 0
3, 633216, Note_on_c, 1, 47, 100
3, 633404, Note_off_c, 1, 47, 0
3, 633408, Note_on_c, 1, 57, 100
3, 633596, Note_off_c, 1, 57, 0
3, 633600, Note_on_c, 1, 50, 100
3, 633788, Note_off_c, 1, 50, 0
3, 633792, Note_on_c, 1, 57, 100
3, 633980, Note_off_c, 1, 57, 0
3, 633984, Note_on_c, 1, 47, 100
3, 634172, Note_off_c, 1, 47, 0
3, 634176, Note_on_c, 1, 57, 100
3, 634336, Note_off_c, 1, 57, 0
3, 634368, Note_on_c, 1, 45, 100
3, 634556, Note_off_c, 1, 45, 0
3, 634560, Note_on_c, 1, 57, 100
3, 634748, Note_off_c, 1, 57, 0
3, 634752, Note_on_c, 1, 49, 100
3, 634940, Note_off_c, 1, 49, 0
3, 634944, Note_on_c, 1, 57, 100
3, 635132, Note_off_c, 1, 57, 0
3, 635136, Note_on_c, 1, 52, 100
3, 635324, Note_off_c, 1, 52, 0
3, 635328, Note_on_c, 1, 57, 100
3, 635516, Note_off_c, 1, 57, 0
3, 635520, Note_on_c, 1, 49, 100
3, 635708, Note_off_c, 1, 49, 0
3, 635712, Note_on_c, 1, 57, 100
3, 635872, Note_off_c, 1, 57, 0
3, 635904, Note_on_c, 1, 45, 100
3, 636092, Note_off_c, 1, 45, 0
3, 636096, Note_on_c, 1, 57, 100
3, 636284, Note_off_c, 1, 57, 0
3, 636288, Note_on_c, 1, 47, 100
3, 636476, Note_off_c, 1, 47, 0
3, 636480, Note_on_c, 1, 57, 100
3, 636668, Note_off_c, 1, 57, 0
3, 636672, Note_on_c, 1, 50, 100
3, 636860, Note_off_c, 1, 50, 0
3, 636864, Note_on_c, 1, 57, 100
3, 637052, Note_off_c, 1, 57, 0
3, 637056, Note_on_c, 1, 47, 100
3, 637244, Note_off_c, 1, 47, 0
3, 637248, Note_on_c, 1, 57, 100
3, 637408, Note_off_c, 1, 57, 0
3, 637440, Note_on_c, 1, 45, 100
3, 637628, Note_off_c, 1, 45, 0
3, 637632, Note_on_c, 1, 57, 100
3, 637820, Note_off_c, 1, 57, 0
3, 637824, Note_on_c, 1, 49, 100
3, 638012, Note_off_c, 1, 49, 0
3, 638016, Note_on_c, 1, 57, 100
3, 638204, Note_off_c, 1, 57, 0
3, 638208, Note_on_c, 1, 52, 100
3, 638396, Note_off_c, 1, 52, 0
3, 638400, Note_on_c, 1, 57, 100
3, 638588, Note_off_c, 1, 57, 0
3, 638592, Note_on_c, 1, 49, 100
3, 638780, Note_off_c, 1, 49, 0
3, 638784, Note_on_c, 1, 57, 100
3, 638944, Note_off_c, 1, 57, 0
3, 638976, Note_on_c, 1, 45, 100
3, 639164, Note_off_c, 1, 45, 0
3, 639168, Note_on_c, 1, 57, 100
3, 639356, Note_off_c, 1, 57, 0
3, 639360, Note_on_c, 1, 47, 100
3, 639548, Note_off_c, 1, 47, 0
3, 639552, Note_on_c, 1, 57, 100
3, 639740, Note_off_c, 1, 57, 0
3, 639744, Note_on_c, 1, 50, 100
3, 639932, Note_off_c, 1, 50, 0
3, 639936, Note_on_c, 1, 57, 100
3, 640124, Note_off_c, 1, 57, 0
3, 640128, Note_on_c, 1, 47, 100
3, 640316, Note_off_c, 1, 47, 0
3, 640320, Note_on_c, 1, 57, 100
3, 640480, Note_off_c, 1, 57, 0
3, 640512, Note_on_c, 1, 45, 100
3, 640700, Note_off_c, 1, 45, 0
3, 640704, Note_on_c, 1, 57, 100
3, 640892, Note_off_c, 1, 57, 0
3, 640896, Note_on_c, 1, 49, 100
3, 641084, Note_off_c, 1, 49, 0
3, 641088, Note_on_c, 1, 57, 100
3, 641276, Note_off_c, 1, 57, 0
3, 641280, Note_on_c, 1, 52, 100
3, 641468, Note_off_c, 1, 52, 0
3, 641472, Note_on_c, 1, 57, 100
3, 641660, Note_off_c, 1, 57, 0
3, 641664, Note_on_c, 1, 49, 100
3, 641852, Note_off_c, 1, 49, 0
3, 641856, Note_on_c, 1, 57, 100
3, 642016, Note_off_c, 1, 57, 0
3, 642048, Note_on_c, 1, 45, 100
3, 642236, Note_off_c, 1, 45, 0
3, 642240, Note_on_c, 1, 57, 100
3, 642428, Note_off_c, 1, 57, 0
3, 642432, Note_on_c, 1, 47, 100
3, 642620, Note_off_c, 1, 47, 0
3, 642624, Note_on_c, 1, 57, 100
3, 642812, Note_off_c, 1, 57, 0
3, 642816, Note_on_c, 1, 50, 100
3, 643004, Note_off_c, 1, 50, 0
3, 643008, Note_on_c, 1, 57, 100
3, 643196, Note_off_c, 1, 57, 0
3, 643200, Note_on_c, 1, 47, 100
3, 643388, Note_off_c, 1, 47, 0
3, 643392, Note_on_c, 1, 57, 100
3, 643552, Note_off_c, 1, 57, 0
3, 643584, Note_on_c, 1, 45, 100
3, 643772, Note_off_c, 1, 45, 0
3, 643776, Note_on_c, 1, 57, 100
3, 643964, Note_off_c, 1, 57, 0
3, 643968, Note_on_c, 1, 49, 100
3, 644156, Note_off_c, 1, 49, 0
3, 644160, Note_on_c, 1, 57, 100
3, 644348, Note_off_c, 1, 57, 0
3, 644352, Note_on_c, 1, 52, 100
3, 644540, Note_off_c, 1, 52, 0
3, 644544, Note_on_c, 1, 57, 100
3, 644732, Note_off_c, 1, 57, 0
3, 644736, Note_on_c, 1, 49, 100
3, 644924, Note_off_c, 1, 49, 0
3, 644928, Note_on_c, 1, 57, 100
3, 645088, Note_off_c, 1, 57, 0
3, 645120, Note_on_c, 1, 45, 100
3, 645308, Note_off_c, 1, 45, 0
3, 645312, Note_on_c, 1, 57, 100
3, 645500, Note_off_c, 1, 57, 0
3, 645504, Note_on_c, 1, 47, 100
3, 645692, Note_off_c, 1, 47, 0
3, 645696, Note_on_c, 1, 57, 100
3, 645884, Note_off_c, 1, 57, 0
3, 645888, Note_on_c, 1, 50, 100
3, 646076, Note_off_c, 1, 50, 0
3, 646080, Note_on_c, 1, 57, 100
3, 646268, Note_off_c, 1, 57, 0
3, 646272, Note_on_c, 1, 47, 100
3, 646460, Note_off_c, 1, 47, 0
3, 646464, Note_on_c, 1, 57, 100
3, 646624, Note_off_c, 1, 57, 0
3, 646656, Note_on_c, 1, 45, 100
3, 646844, Note_off_c, 1, 45, 0
3, 646848, Note_on_c, 1, 57, 100
3, 647036, Note_off_c, 1, 57, 0
3, 647040, Note_on_c, 1, 49, 100
3, 647228, Note_off_c, 1, 49, 0
3, 647232, Note_on_c, 1, 57, 100
3, 647420, Note_off_c, 1, 57, 0
3, 647424, Note_on_c, 1, 52, 100
3, 647612, Note_off_c, 1, 52, 0
3, 647616, Note_on_c, 1, 57, 100
3, 647804, Note_off_c, 1, 57, 0
3, 647808, Note_on_c, 1, 49, 100
3, 647996, Note_off_c, 1, 49, 0
3, 648000, Note_on_c, 1, 57, 100
3, 648160, Note_off_c, 1, 57, 0
3, 648192, Note_on_c, 1, 45, 100
3, 648380, Note_off_c, 1, 45, 0
3, 648384, Note_on_c, 1, 57, 100
3, 648572, Note_off_c, 1, 57, 0
3, 648576, Note_on_c, 1, 47, 100
3, 648764, Note_off_c, 1, 47, 0
3, 648768, Note_on_c, 1, 57, 100
3, 648956, Note_off_c, 1, 57, 0
3, 648960, Note_on_c, 1, 50, 100
3, 649148, Note_off_c, 1, 50, 0
3, 649152, Note_on_c, 1, 57, 100
3, 649340, Note_off_c, 1, 57, 0
3, 649344, Note_on_c, 1, 47, 100
3, 649532, Note_off_c, 1, 47, 0
3, 649536, Note_on_c, 1, 57, 100
3, 649696, Note_off_c, 1, 57, 0
3, 649728, Note_on_c, 1, 45, 100
3, 650048, Note_off_c, 1, 45, 0
3, 650496, Note_on_c, 1, 57, 100
3, 650496, Note_on_c, 1, 61, 100
3, 650656, Note_off_c, 1, 57, 0
3, 650656, Note_off_c, 1, 61, 0
3, 650880, Note_on_c, 1, 59, 100
3, 650880, Note_on_c, 1, 62, 100
3, 651040, Note_off_c, 1, 59, 0
3, 651040, Note_off_c, 1, 62, 0
3, 651264, Note_on_c, 1, 61, 100
3, 651264, Note_on_c, 1, 64, 100
3, 651584, Note_off_c, 1, 61, 0
3, 651584, Note_off_c, 1, 64, 0
3, 652032, Note_on_c, 1, 62, 100
3, 652032, Note_on_c, 1, 66, 100
3, 652192, Note_off_c, 1, 62, 0
3, 652192, Note_off_c, 1, 66, 0
3, 652416, Note_on_c, 1, 59, 100
3, 652416, Note_on_c, 1, 62, 100
3, 652576, Note_off_c, 1, 59, 0
3, 652576, Note_off_c, 1, 62, 0
3, 652800, Note_on_c, 1, 57, 100
3, 652800, Note_on_c, 1, 61, 100
3, 652960, Note_off_c, 1, 57, 0
3, 652960, Note_off_c, 1, 61, 0
3, 653568, Note_on_c, 1, 57, 100
3, 653568, Note_on_c, 1, 54, 100
3, 653728, Note_off_c, 1, 57, 0
3, 653728, Note_off_c, 1, 54, 0
3, 653952, Note_on_c, 1, 59, 100
3, 653952, Note_on_c, 1, 56, 100
3, 654112, Note_off_c, 1, 59, 0
3, 654112, Note_off_c, 1, 56, 0
3, 654336, Note_on_c, 1, 61, 100
3, 654336, Note_on_c, 1, 57, 100
3, 654496, Note_off_c, 1, 61, 0
3, 654496, Note_off_c, 1, 57, 0
3, 655104, Note_on_c, 1, 59, 100
3, 655104, Note_on_c, 1, 62, 100
3, 655264, Note_off_c, 1, 59, 0
3, 655264, Note_off_c, 1, 62, 0
3, 655488, Note_on_c, 1, 56, 100
3, 655488, Note_on_c, 1, 59, 100
3, 655648, Note_off_c, 1, 56, 0
3, 655648, Note_off_c, 1, 59, 0
3, 655872, Note_on_c, 1, 54, 100
3, 655872, Note_on_c, 1, 57, 100
3, 656032, Note_off_c, 1, 54, 0
3, 656032, Note_off_c, 1, 57, 0
3, 656640, Note_on_c, 1, 54, 100
3, 656640, Note_on_c, 1, 50, 100
3, 656800, Note_off_c, 1, 54, 0
3, 656800, Note_off_c, 1, 50, 0
3, 657024, Note_on_c, 1, 55, 100
3, 657024, Note_on_c, 1, 52, 100
3, 657184, Note_off_c, 1, 55, 0
3, 657184, Note_off_c, 1, 52, 0
3, 657408, Note_on_c, 1, 57, 100
3, 657408, Note_on_c, 1, 54, 100
3, 657568, Note_off_c, 1, 57, 0
3, 657568, Note_off_c, 1, 54, 0
3, 658176, Note_on_c, 1, 59, 100
3, 658176, Note_on_c, 1, 55, 100
3, 658336, Note_off_c, 1, 59, 0
3, 658336, Note_off_c, 1, 55, 0
3, 658560, Note_on_c, 1, 55, 100
3, 658560, Note_on_c, 1, 52, 100
3, 658720, Note_off_c, 1, 55, 0
3, 658720, Note_off_c, 1, 52, 0
3, 658944, Note_on_c, 1, 54, 100
3, 659324, Note_off_c, 1, 54, 0
3, 659328, Note_on_c, 1, 61, 100
3, 659708, Note_off_c, 1, 61, 0
3, 659712, Note_on_c, 1, 62, 100
3, 660092, Note_off_c, 1, 62, 0
3, 660096, Note_on_c, 1, 59, 100
3, 660476, Note_off_c, 1, 59, 0
3, 660480, Note_on_c, 1, 61, 100
3, 660860, Note_off_c, 1, 61, 0
3, 660864, Note_on_c, 1, 56, 100
3, 661244, Note_off_c, 1, 56, 0
3, 661248, Note_on_c, 1, 57, 100
3, 661628, Note_off_c, 1, 57, 0
3, 661632, Note_on_c, 1, 54, 100
3, 662012, Note_off_c, 1, 54, 0
3, 662016, Note_on_c, 1, 52, 100
3, 662336, Note_off_c, 1, 52, 0
3, 663552, Note_on_c, 1, 47, 100
3, 663872, Note_off_c, 1, 47, 0
3, 665088, Note_on_c, 1, 52, 100
3, 665408, Note_off_c, 1, 52, 0
3, 666624, Note_on_c, 1, 47, 100
3, 666944, Note_off_c, 1, 47, 0
3, 668160, Note_on_c, 1, 52, 100
3, 668480, Note_off_c, 1, 52, 0
3, 669696, Note_on_c, 1, 47, 100
3, 670016, Note_off_c, 1, 47, 0
3, 671232, Note_on_c, 1, 40, 100
3, 671856, Note_off_c, 1, 40, 0
3, 677376, Note_on_c, 1, 57, 100
3, 677564, Note_off_c, 1, 57, 0
3, 677568, Note_on_c, 1, 64, 100
3, 677756, Note_off_c, 1, 64, 0
3, 677760, Note_on_c, 1, 61, 100
3, 677948, Note_off_c, 1, 61, 0
3, 677952, Note_on_c, 1, 64, 100
3, 678140, Note_off_c, 1, 64, 0
3, 678144, Note_on_c, 1, 57, 100
3, 678332, Note_off_c, 1, 57, 0
3, 678336, Note_on_c, 1, 64, 100
3, 678524, Note_off_c, 1, 64, 0
3, 678528, Note_on_c, 1, 61, 100
3, 678716, Note_off_c, 1, 61, 0
3, 678720, Note_on_c, 1, 64, 100
3, 678880, Note_off_c, 1, 64, 0
3, 678912, Note_on_c, 1, 57, 100
3, 679100, Note_off_c, 1, 57, 0
3, 679104, Note_on_c, 1, 66, 100
3, 679292, Note_off_c, 1, 66, 0
3, 679296, Note_on_c, 1, 62, 100
3, 679484, Note_off_c, 1, 62, 0
3, 679488, Note_on_c, 1, 66, 100
3, 679676, Note_off_c, 1, 66, 0
3, 679680, Note_on_c, 1, 57, 100
3, 679868, Note_off_c, 1, 57, 0
3, 679872, Note_on_c, 1, 66, 100
3, 680060, Note_off_c, 1, 66, 0
3, 680064, Note_on_c, 1, 62, 100
3, 680252, Note_off_c, 1, 62, 0
3, 680256, Note_on_c, 1, 66, 100
3, 680416, Note_off_c, 1, 66, 0
3, 680448, Note_on_c, 1, 57, 100
3, 680636, Note_off_c, 1, 57, 0
3, 680640, Note_on_c, 1, 64, 100
3, 680828, Note_off_c, 1, 64, 0
3, 680832, Note_on_c, 1, 61, 100
3, 681020, Note_off_c, 1, 61, 0
3, 681024, Note_on_c, 1, 64, 100
3, 681212, Note_off_c, 1, 64, 0
3, 681216, Note_on_c, 1, 56, 100
3, 681404, Note_off_c, 1, 56, 0
3, 681408, Note_on_c, 1, 64, 100
3, 681596, Note_off_c, 1, 64, 0
3, 681600, Note_on_c, 1, 57, 100
3, 681788, Note_off_c, 1, 57, 0
3, 681792, Note_on_c, 1, 64, 100
3, 681952, Note_off_c, 1, 64, 0
3, 681984, Note_on_c, 1, 52, 100
3, 682304, Note_off_c, 1, 52, 0
3, 683520, Note_on_c, 1, 57, 100
3, 683708, Note_off_c, 1, 57, 0
3, 683712, Note_on_c, 1, 64, 100
3, 683900, Note_off_c, 1, 64, 0
3, 683904, Note_on_c, 1, 61, 100
3, 684092, Note_off_c, 1, 61, 0
3, 684096, Note_on_c, 1, 64, 100
3, 684284, Note_off_c, 1, 64, 0
3, 684288, Note_on_c, 1, 57, 100
3, 684476, Note_off_c, 1, 57, 0
3, 684480, Note_on_c, 1, 67, 100
3, 684668, Note_off_c, 1, 67, 0
3, 684672, Note_on_c, 1, 61, 100
3, 684860, Note_off_c, 1, 61, 0
3, 684864, Note_on_c, 1, 67, 100
3, 685052, Note_off_c, 1, 67, 0
3, 685056, Note_on_c, 1, 57, 100
3, 685244, Note_off_c, 1, 57, 0
3, 685248, Note_on_c, 1, 66, 100
3, 685436, Note_off_c, 1, 66, 0
3, 685440, Note_on_c, 1, 62, 100
3, 685628, Note_off_c, 1, 62, 0
3, 685632, Note_on_c, 1, 66, 100
3, 685820, Note_off_c, 1, 66, 0
3, 685824, Note_on_c, 1, 57, 100
3, 686012, Note_off_c, 1, 57, 0
3, 686016, Note_on_c, 1, 66, 100
3, 686204, Note_off_c, 1, 66, 0
3, 686208, Note_on_c, 1, 62, 100
3, 686396, Note_off_c, 1, 62, 0
3, 686400, Note_on_c, 1, 66, 100
3, 686588, Note_off_c, 1, 66, 0
3, 686592, Note_on_c, 1, 57, 100
3, 686592, Note_on_c, 1, 61, 100
3, 686972, Note_off_c, 1, 57, 0
3, 686972, Note_off_c, 1, 61, 0
3, 686976, Note_on_c, 1, 59, 100
3, 686976, Note_on_c, 1, 50, 100
3, 687356, Note_off_c, 1, 59, 0
3, 687356, Note_off_c, 1, 50, 0
3, 687360, Note_on_c, 1, 57, 100
3, 687360, Note_on_c, 1, 52, 100
3, 687740, Note_off_c, 1, 57, 0
3, 687744, Note_on_c, 1, 56, 100
3, 688124, Note_off_c, 1, 52, 0
3, 688124, Note_off_c, 1, 56, 0
3, 688128, Note_on_c, 1, 57, 100
3, 688316, Note_off_c, 1, 57, 0
3, 688320, Note_on_c, 1, 56, 100
3, 688508, Note_off_c, 1, 56, 0
3, 688512, Note_on_c, 1, 57, 100
3, 688700, Note_off_c, 1, 57, 0
3, 688704, Note_on_c, 1, 59, 100
3, 688892, Note_off_c, 1, 59, 0
3, 688896, Note_on_c, 1, 60, 100
3, 689084, Note_off_c, 1, 60, 0
3, 689088, Note_on_c, 1, 61, 100
3, 689276, Note_off_c, 1, 61, 0
3, 689280, Note_on_c, 1, 62, 100
3, 689468, Note_off_c, 1, 62, 0
3, 689472, Note_on_c, 1, 63, 100
3, 689660, Note_off_c, 1, 63, 0
3, 689664, Note_on_c, 1, 64, 100
3, 690044, Note_off_c, 1, 64, 0
3, 714240, Note_on_c, 1, 52, 100
3, 714428, Note_off_c, 1, 52, 0
3, 714432, Note_on_c, 1, 54, 100
3, 714620, Note_off_c, 1, 54, 0
3, 714624, Note_on_c, 1, 56, 100
3, 714812, Note_off_c, 1, 56, 0
3, 714816, Note_on_c, 1, 57, 100
3, 715004, Note_off_c, 1, 57, 0
3, 715008, Note_on_c, 1, 59, 100
3, 715328, Note_off_c, 1, 59, 0
3, 715776, Note_on_c, 1, 54, 100
3, 715964, Note_off_c, 1, 54, 0
3, 715968, Note_on_c, 1, 57, 100
3, 716156, Note_off_c, 1, 57, 0
3, 716160, Note_on_c, 1, 59, 100
3, 716348, Note_off_c, 1, 59, 0
3, 716352, Note_on_c, 1, 61, 100
3, 716540, Note_off_c, 1, 61, 0
3, 716544, Note_on_c, 1, 62, 100
3, 717632, Note_off_c, 1, 62, 0
3, 717696, Note_on_c, 1, 61, 100
3, 718016, Note_off_c, 1, 61, 0
3, 718080, Note_on_c, 1, 56, 100
3, 718400, Note_off_c, 1, 56, 0
3, 718464, Note_on_c, 1, 57, 100
3, 718784, Note_off_c, 1, 57, 0
3, 718848, Note_on_c, 1, 52, 100
3, 719472, Note_off_c, 1, 52, 0
3, 719616, Note_on_c, 1, 49, 100
3, 719804, Note_off_c, 1, 49, 0
3, 719808, Note_on_c, 1, 50, 100
3, 719996, Note_off_c, 1, 50, 0
3, 720000, Note_on_c, 1, 52, 100
3, 720188, Note_off_c, 1, 52, 0
3, 720192, Note_on_c, 1, 49, 100
3, 720380, Note_off_c, 1, 49, 0
3, 720384, Note_on_c, 1, 54, 100
3, 720572, Note_off_c, 1, 54, 0
3, 720576, Note_on_c, 1, 52, 100
3, 720764, Note_off_c, 1, 52, 0
3, 720768, Note_on_c, 1, 50, 100
3, 720956, Note_off_c, 1, 50, 0
3, 720960, Note_on_c, 1, 49, 100
3, 721148, Note_off_c, 1, 49, 0
3, 721152, Note_on_c, 1, 47, 100
3, 721340, Note_off_c, 1, 47, 0
3, 721344, Note_on_c, 1, 49, 100
3, 721532, Note_off_c, 1, 49, 0
3, 721536, Note_on_c, 1, 50, 100
3, 721724, Note_off_c, 1, 50, 0
3, 721728, Note_on_c, 1, 47, 100
3, 721888, Note_off_c, 1, 47, 0
3, 721920, Note_on_c, 1, 52, 100
3, 722108, Note_off_c, 1, 52, 0
3, 722112, Note_on_c, 1, 50, 100
3, 722300, Note_off_c, 1, 50, 0
3, 722304, Note_on_c, 1, 49, 100
3, 722492, Note_off_c, 1, 49, 0
3, 722496, Note_on_c, 1, 47, 100
3, 722684, Note_off_c, 1, 47, 0
3, 722688, Note_on_c, 1, 45, 100
3, 722876, Note_off_c, 1, 45, 0
3, 722880, Note_on_c, 1, 52, 100
3, 723068, Note_off_c, 1, 52, 0
3, 723072, Note_on_c, 1, 57, 100
3, 723260, Note_off_c, 1, 57, 0
3, 723264, Note_on_c, 1, 56, 100
3, 723424, Note_off_c, 1, 56, 0
3, 723456, Note_on_c, 1, 54, 100
3, 723644, Note_off_c, 1, 54, 0
3, 723648, Note_on_c, 1, 52, 100
3, 723836, Note_off_c, 1, 52, 0
3, 723840, Note_on_c, 1, 50, 100
3, 724028, Note_off_c, 1, 50, 0
3, 724032, Note_on_c, 1, 47, 100
3, 724220, Note_off_c, 1, 47, 0
3, 724224, Note_on_c, 1, 52, 100
3, 724412, Note_off_c, 1, 52, 0
3, 724416, Note_on_c, 1, 50, 100
3, 724604, Note_off_c, 1, 50, 0
3, 724608, Note_on_c, 1, 52, 100
3, 724796, Note_off_c, 1, 52, 0
3, 724800, Note_on_c, 1, 40, 100
3, 724988, Note_off_c, 1, 40, 0
3, 724992, Note_on_c, 1, 45, 100
3, 725312, Note_off_c, 1, 45, 0
3, 737280, Note_on_c, 1, 45, 100
3, 737468, Note_off_c, 1, 45, 0
3, 737472, Note_on_c, 1, 57, 100
3, 737660, Note_off_c, 1, 57, 0
3, 737664, Note_on_c, 1, 49, 100
3, 737852, Note_off_c, 1, 49, 0
3, 737856, Note_on_c, 1, 57, 100
3, 738044, Note_off_c, 1, 57, 0
3, 738048, Note_on_c, 1, 52, 100
3, 738236, Note_off_c, 1, 52, 0
3, 738240, Note_on_c, 1, 57, 100
3, 738428, Note_off_c, 1, 57, 0
3, 738432, Note_on_c, 1, 52, 100
3, 738620, Note_off_c, 1, 52, 0
3, 738624, Note_on_c, 1, 57, 100
3, 738784, Note_off_c, 1, 57, 0
3, 738816, Note_on_c, 1, 45, 100
3, 739004, Note_off_c, 1, 45, 0
3, 739008, Note_on_c, 1, 57, 100
3, 739196, Note_off_c, 1, 57, 0
3, 739200, Note_on_c, 1, 52, 100
3, 739388, Note_off_c, 1, 52, 0
3, 739392, Note_on_c, 1, 57, 100
3, 739580, Note_off_c, 1, 57, 0
3, 739584, Note_on_c, 1, 56, 100
3, 739772, Note_off_c, 1, 56, 0
3, 739776, Note_on_c, 1, 57, 100
3, 739964, Note_off_c, 1, 57, 0
3, 739968, Note_on_c, 1, 52, 100
3, 740156, Note_off_c, 1, 52, 0
3, 740160, Note_on_c, 1, 57, 100
3, 740320, Note_off_c, 1, 57, 0
3, 740352, Note_on_c, 1, 45, 100
3, 740540, Note_off_c, 1, 45, 0
3, 740544, Note_on_c, 1, 59, 100
3, 740732, Note_off_c, 1, 59, 0
3, 740736, Note_on_c, 1, 50, 100
3, 740924, Note_off_c, 1, 50, 0
3, 740928, Note_on_c, 1, 57, 100
3, 741116, Note_off_c, 1, 57, 0
3, 741120, Note_on_c, 1, 54, 100
3, 741308, Note_off_c, 1, 54, 0
3, 741312, Note_on_c, 1, 57, 100
3, 741500, Note_off_c, 1, 57, 0
3, 741504, Note_on_c, 1, 50, 100
3, 741692, Note_off_c, 1, 50, 0
3, 741696, Note_on_c, 1, 57, 100
3, 741856, Note_off_c, 1, 57, 0
3, 741888, Note_on_c, 1, 45, 100
3, 742076, Note_off_c, 1, 45, 0
3, 742080, Note_on_c, 1, 57, 100
3, 742268, Note_off_c, 1, 57, 0
3, 742272, Note_on_c, 1, 52, 100
3, 742460, Note_off_c, 1, 52, 0
3, 742464, Note_on_c, 1, 57, 100
3, 742652, Note_off_c, 1, 57, 0
3, 742656, Note_on_c, 1, 56, 100
3, 742844, Note_off_c, 1, 56, 0
3, 742848, Note_on_c, 1, 57, 100
3, 743036, Note_off_c, 1, 57, 0
3, 743040, Note_on_c, 1, 52, 100
3, 743228, Note_off_c, 1, 52, 0
3, 743232, Note_on_c, 1, 57, 100
3, 743392, Note_off_c, 1, 57, 0
3, 743424, Note_on_c, 1, 45, 100
3, 743612, Note_off_c, 1, 45, 0
3, 743616, Note_on_c, 1, 57, 100
3, 743804, Note_off_c, 1, 57, 0
3, 743808, Note_on_c, 1, 50, 100
3, 743996, Note_off_c, 1, 50, 0
3, 744000, Note_on_c, 1, 57, 100
3, 744188, Note_off_c, 1, 57, 0
3, 744192, Note_on_c, 1, 54, 100
3, 744380, Note_off_c, 1, 54, 0
3, 744384, Note_on_c, 1, 57, 100
3, 744572, Note_off_c, 1, 57, 0
3, 744576, Note_on_c, 1, 50, 100
3, 744764, Note_off_c, 1, 50, 0
3, 744768, Note_on_c, 1, 57, 100
3, 744928, Note_off_c, 1, 57, 0
3, 744960, Note_on_c, 1, 45, 100
3, 745148, Note_off_c, 1, 45, 0
3, 745152, Note_on_c, 1, 57, 100
3, 745340, Note_off_c, 1, 57, 0
3, 745344, Note_on_c, 1, 52, 100
3, 745532, Note_off_c, 1, 52, 0
3, 745536, Note_on_c, 1, 57, 100
3, 745724, Note_off_c, 1, 57, 0
3, 745728, Note_on_c, 1, 56, 100
3, 745916, Note_off_c, 1, 56, 0
3, 745920, Note_on_c, 1, 57, 100
3, 746108, Note_off_c, 1, 57, 0
3, 746112, Note_on_c, 1, 52, 100
3, 746300, Note_off_c, 1, 52, 0
3, 746304, Note_on_c, 1, 57, 100
3, 746464, Note_off_c, 1, 57, 0
3, 746496, Note_on_c, 1, 45, 100
3, 746684, Note_off_c, 1, 45, 0
3, 746688, Note_on_c, 1, 57, 100
3, 746876, Note_off_c, 1, 57, 0
3, 746880, Note_on_c, 1, 50, 100
3, 747068, Note_off_c, 1, 50, 0
3, 747072, Note_on_c, 1, 57, 100
3, 747260, Note_off_c, 1, 57, 0
3, 747264, Note_on_c, 1, 54, 100
3, 747452, Note_off_c, 1, 54, 0
3, 747456, Note_on_c, 1, 57, 100
3, 747644, Note_off_c, 1, 57, 0
3, 747648, Note_on_c, 1, 50, 100
3, 747836, Note_off_c, 1, 50, 0
3, 747840, Note_on_c, 1, 57, 100
3, 748000, Note_off_c, 1, 57, 0
3, 748032, Note_on_c, 1, 45, 100
3, 748220, Note_off_c, 1, 45, 0
3, 748224, Note_on_c, 1, 57, 100
3, 748412, Note_off_c, 1, 57, 0
3, 748416, Note_on_c, 1, 47, 100
3, 748604, Note_off_c, 1, 47, 0
3, 748608, Note_on_c, 1, 57, 100
3, 748796, Note_off_c, 1, 57, 0
3, 748800, Note_on_c, 1, 50, 100
3, 748988, Note_off_c, 1, 50, 0
3, 748992, Note_on_c, 1, 57, 100
3, 749180, Note_off_c, 1, 57, 0
3, 749184, Note_on_c, 1, 47, 100
3, 749372, Note_off_c, 1, 47, 0
3, 749376, Note_on_c, 1, 57, 100
3, 749536, Note_off_c, 1, 57, 0
3, 749568, Note_on_c, 1, 45, 100
3, 749756, Note_off_c, 1, 45, 0
3, 749760, Note_on_c, 1, 57, 100
3, 749948, Note_off_c, 1, 57, 0
3, 749952, Note_on_c, 1, 50, 100
3, 750140, Note_off_c, 1, 50, 0
3, 750144, Note_on_c, 1, 57, 100
3, 750332, Note_off_c, 1, 57, 0
3, 750336, Note_on_c, 1, 54, 100
3, 750524, Note_off_c, 1, 54, 0
3, 750528, Note_on_c, 1, 57, 100
3, 750716, Note_off_c, 1, 57, 0
3, 750720, Note_on_c, 1, 50, 100
3, 750908, Note_off_c, 1, 50, 0
3, 750912, Note_on_c, 1, 57, 100
3, 751072, Note_off_c, 1, 57, 0
3, 751104, Note_on_c, 1, 45, 100
3, 751292, Note_off_c, 1, 45, 0
3, 751296, Note_on_c, 1, 57, 100
3, 751484, Note_off_c, 1, 57, 0
3, 751488, Note_on_c, 1, 52, 100
3, 751676, Note_off_c, 1, 52, 0
3, 751680, Note_on_c, 1, 57, 100
3, 751868, Note_off_c, 1, 57, 0
3, 751872, Note_on_c, 1, 55, 100
3, 752060, Note_off_c, 1, 55, 0
3, 752064, Note_on_c, 1, 57, 100
3, 752252, Note_off_c, 1, 57, 0
3, 752256, Note_on_c, 1, 52, 100
3, 752444, Note_off_c, 1, 52, 0
3, 752448, Note_on_c, 1, 57, 100
3, 752608, Note_off_c, 1, 57, 0
3, 752640, Note_on_c, 1, 45, 100
3, 752828, Note_off_c, 1, 45, 0
3, 752832, Note_on_c, 1, 57, 100
3, 753020, Note_off_c, 1, 57, 0
3, 753024, Note_on_c, 1, 49, 100
3, 753212, Note_off_c, 1, 49, 0
3, 753216, Note_on_c, 1, 57, 100
3, 753404, Note_off_c, 1, 57, 0
3, 753408, Note_on_c, 1, 52, 100
3, 753596, Note_off_c, 1, 52, 0
3, 753600, Note_on_c, 1, 57, 100
3, 753788, Note_off_c, 1, 57, 0
3, 753792, Note_on_c, 1, 50, 100
3, 753980, Note_off_c, 1, 50, 0
3, 753984, Note_on_c, 1, 57, 100
3, 754144, Note_off_c, 1, 57, 0
3, 754176, Note_on_c, 1, 45, 100
3, 754364, Note_off_c, 1, 45, 0
3, 754368, Note_on_c, 1, 57, 100
3, 754556, Note_off_c, 1, 57, 0
3, 754560, Note_on_c, 1, 52, 100
3, 754748, Note_off_c, 1, 52, 0
3, 754752, Note_on_c, 1, 57, 100
3, 754940, Note_off_c, 1, 57, 0
3, 754944, Note_on_c, 1, 55, 100
3, 755132, Note_off_c, 1, 55, 0
3, 755136, Note_on_c, 1, 57, 100
3, 755324, Note_off_c, 1, 57, 0
3, 755328, Note_on_c, 1, 52, 100
3, 755516, Note_off_c, 1, 52, 0
3, 755520, Note_on_c, 1, 57, 100
3, 755680, Note_off_c, 1, 57, 0
3, 755712, Note_on_c, 1, 45, 100
3, 755900, Note_off_c, 1, 45, 0
3, 755904, Note_on_c, 1, 57, 100
3, 756092, Note_off_c, 1, 57, 0
3, 756096, Note_on_c, 1, 50, 100
3, 756284, Note_off_c, 1, 50, 0
3, 756288, Note_on_c, 1, 57, 100
3, 756476, Note_off_c, 1, 57, 0
3, 756480, Note_on_c, 1, 54, 100
3, 756668, Note_off_c, 1, 54, 0
3, 756672, Note_on_c, 1, 57, 100
3, 756860, Note_off_c, 1, 57, 0
3, 756864, Note_on_c, 1, 50, 100
3, 757052, Note_off_c, 1, 50, 0
3, 757056, Note_on_c, 1, 57, 100
3, 757216, Note_off_c, 1, 57, 0
3, 757248, Note_on_c, 1, 45, 100
3, 757436, Note_off_c, 1, 45, 0
3, 757440, Note_on_c, 1, 57, 100
3, 757628, Note_off_c, 1, 57, 0
3, 757632, Note_on_c, 1, 52, 100
3, 757820, Note_off_c, 1, 52, 0
3, 757824, Note_on_c, 1, 57, 100
3, 758012, Note_off_c, 1, 57, 0
3, 758016, Note_on_c, 1, 55, 100
3, 758204, Note_off_c, 1, 55, 0
3, 758208, Note_on_c, 1, 57, 100
3, 758396, Note_off_c, 1, 57, 0
3, 758400, Note_on_c, 1, 52, 100
3, 758588, Note_off_c, 1, 52, 0
3, 758592, Note_on_c, 1, 57, 100
3, 758752, Note_off_c, 1, 57, 0
3, 758784, Note_on_c, 1, 45, 100
3, 758944, Note_off_c, 1, 45, 0
3, 758976, Note_on_c, 1, 57, 100
3, 759136, Note_off_c, 1, 57, 0
3, 759168, Note_on_c, 1, 50, 100
3, 759328, Note_off_c, 1, 50, 0
3, 759360, Note_on_c, 1, 57, 100
3, 759520, Note_off_c, 1, 57, 0
3, 759552, Note_on_c, 1, 54, 100
3, 759712, Note_off_c, 1, 54, 0
3, 759744, Note_on_c, 1, 57, 100
3, 759904, Note_off_c, 1, 57, 0
3, 759936, Note_on_c, 1, 50, 100
3, 760096, Note_off_c, 1, 50, 0
3, 760128, Note_on_c, 1, 57, 100
3, 760288, Note_off_c, 1, 57, 0
3, 760320, Note_on_c, 1, 45, 100
3, 760508, Note_off_c, 1, 45, 0
3, 760512, Note_on_c, 1, 57, 100
3, 760700, Note_off_c, 1, 57, 0
3, 760704, Note_on_c, 1, 47, 100
3, 760892, Note_off_c, 1, 47, 0
3, 760896, Note_on_c, 1, 57, 100
3, 761084, Note_off_c, 1, 57, 0
3, 761088, Note_on_c, 1, 50, 100
3, 761276, Note_off_c, 1, 50, 0
3, 761280, Note_on_c, 1, 57, 100
3, 761468, Note_off_c, 1, 57, 0
3, 761472, Note_on_c, 1, 47, 100
3, 761660, Note_off_c, 1, 47, 0
3, 761664, Note_on_c, 1, 57, 100
3, 761824, Note_off_c, 1, 57, 0
3, 761856, Note_on_c, 1, 45, 100
3, 762176, Note_off_c, 1, 45, 0
3, 777984, Note_on_c, 1, 54, 100
3, 778304, Note_off_c, 1, 54, 0
3, 778752, Note_on_c, 1, 50, 100
3, 779072, Note_off_c, 1, 50, 0
3, 779520, Note_on_c, 1, 52, 100
3, 779840, Note_off_c, 1, 52, 0
3, 789504, Note_on_c, 1, 45, 100
3, 789824, Note_off_c, 1, 45, 0
3, 790272, Note_on_c, 1, 57, 100
3, 790272, Note_on_c, 1, 61, 100
3, 790432, Note_off_c, 1, 57, 0
3, 790432, Note_off_c, 1, 61, 0
3, 790656, Note_on_c, 1, 59, 100
3, 790656, Note_on_c, 1, 62, 100
3, 790816, Note_off_c, 1, 59, 0
3, 790816, Note_off_c, 1, 62, 0
3, 791040, Note_on_c, 1, 61, 100
3, 791040, Note_on_c, 1, 64, 100
3, 791200, Note_off_c, 1, 61, 0
3, 791200, Note_off_c, 1, 64, 0
3, 792192, Note_on_c, 1, 52, 100
3, 792192, Note_on_c, 1, 40, 100
3, 792512, Note_off_c, 1, 52, 0
3, 792512, Note_off_c, 1, 40, 0
3, 792576, Note_on_c, 1, 57, 100
3, 792576, Note_on_c, 1, 45, 100
3, 792896, Note_off_c, 1, 57, 0
3, 792896, Note_off_c, 1, 45, 0
3, 793344, Note_on_c, 1, 57, 100
3, 793344, Note_on_c, 1, 61, 100
3, 793504, Note_off_c, 1, 57, 0
3, 793504, Note_off_c, 1, 61, 0
3, 793728, Note_on_c, 1, 59, 100
3, 793728, Note_on_c, 1, 62, 100
3, 793888, Note_off_c, 1, 59, 0
3, 793888, Note_off_c, 1, 62, 0
3, 794112, Note_on_c, 1, 61, 100
3, 794112, Note_on_c, 1, 64, 100
3, 794272, Note_off_c, 1, 61, 0
3, 794272, Note_off_c, 1, 64, 0
3, 795264, Note_on_c, 1, 52, 100
3, 795264, Note_on_c, 1, 40, 100
3, 795584, Note_off_c, 1, 52, 0
3, 795584, Note_off_c, 1, 40, 0
3, 795648, Note_on_c, 1, 57, 100
3, 795648, Note_on_c, 1, 45, 100
3, 795968, Note_off_c, 1, 57, 0
3, 795968, Note_off_c, 1, 45, 0
3, 796416, Note_on_c, 1, 57, 100
3, 796416, Note_on_c, 1, 61, 100
3, 796576, Note_off_c, 1, 57, 0
3, 796576, Note_off_c, 1, 61, 0
3, 796800, Note_on_c, 1, 59, 100
3, 796800, Note_on_c, 1, 62, 100
3, 796960, Note_off_c, 1, 59, 0
3, 796960, Note_off_c, 1, 62, 0
3, 797184, Note_on_c, 1, 61, 100
3, 797184, Note_on_c, 1, 64, 100
3, 797344, Note_off_c, 1, 61, 0
3, 797344, Note_off_c, 1, 64, 0
3, 798336, Note_on_c, 1, 52, 100
3, 798336, Note_on_c, 1, 40, 100
3, 798656, Note_off_c, 1, 52, 0
3, 798656, Note_off_c, 1, 40, 0
3, 798720, Note_on_c, 1, 57, 100
3, 798720, Note_on_c, 1, 45, 100
3, 799040, Note_off_c, 1, 57, 0
3, 799040, Note_off_c, 1, 45, 0
3, 799040, End_track
4, 0, Start_track
4, 0, Title_t, "Midi by:"
4, 0, Control_c, 2, 0, 0
4, 0, Program_c, 2, 48
4, 0, Control_c, 2, 7, 127
4, 0, Control_c, 2, 10, 45
4, 0, Control_c, 2, 91, 60
4, 0, Control_c, 2, 93, 0
4, 0, Key_signature, 3, "major"
4, 0, Control_c, 2, 121, 0
4, 384, Control_c, 2, 10, 53
4, 480, Control_c, 2, 91, 85
4, 672, Program_c, 2, 48
4, 13824, Note_on_c, 2, 64, 85
4, 13840, Note_on_c, 2, 73, 85
4, 13856, Note_on_c, 2, 69, 85
4, 13872, Note_on_c, 2, 76, 85
4, 14144, Note_off_c, 2, 64, 0
4, 14160, Note_off_c, 2, 73, 0
4, 14176, Note_off_c, 2, 69, 0
4, 14192, Note_off_c, 2, 76, 0
4, 14592, Note_on_c, 2, 69, 85
4, 14912, Note_off_c, 2, 69, 0
4, 15360, Note_on_c, 2, 69, 85
4, 15376, Note_on_c, 2, 74, 85
4, 15392, Note_on_c, 2, 78, 85
4, 15408, Note_on_c, 2, 81, 85
4, 16288, Note_off_c, 2, 69, 0
4, 16304, Note_off_c, 2, 74, 0
4, 16320, Note_off_c, 2, 78, 0
4, 16336, Note_off_c, 2, 81, 0
4, 16512, Note_on_c, 2, 80, 85
4, 16512, Note_on_c, 2, 74, 85
4, 16512, Note_on_c, 2, 69, 85
4, 16700, Note_off_c, 2, 80, 0
4, 16700, Note_off_c, 2, 74, 0
4, 16700, Note_off_c, 2, 69, 0
4, 16704, Note_on_c, 2, 78, 85
4, 16864, Note_off_c, 2, 78, 0
4, 16896, Note_on_c, 2, 78, 85
4, 16896, Note_on_c, 2, 73, 85
4, 16896, Note_on_c, 2, 69, 85
4, 17084, Note_off_c, 2, 78, 0
4, 17084, Note_off_c, 2, 73, 0
4, 17084, Note_off_c, 2, 69, 0
4, 17088, Note_on_c, 2, 76, 85
4, 17248, Note_off_c, 2, 76, 0
4, 17280, Note_on_c, 2, 74, 85
4, 17468, Note_off_c, 2, 74, 0
4, 17472, Note_on_c, 2, 73, 85
4, 17632, Note_off_c, 2, 73, 0
4, 17664, Note_on_c, 2, 74, 85
4, 17852, Note_off_c, 2, 74, 0
4, 17856, Note_on_c, 2, 71, 85
4, 18016, Note_off_c, 2, 71, 0
4, 18048, Note_on_c, 2, 73, 85
4, 18236, Note_off_c, 2, 73, 0
4, 18240, Note_on_c, 2, 69, 85
4, 18400, Note_off_c, 2, 69, 0
4, 18432, Note_on_c, 2, 71, 85
4, 18620, Note_off_c, 2, 71, 0
4, 18624, Note_on_c, 2, 76, 85
4, 18784, Note_off_c, 2, 76, 0
4, 18816, Note_on_c, 2, 75, 85
4, 19004, Note_off_c, 2, 75, 0
4, 19008, Note_on_c, 2, 76, 85
4, 19168, Note_off_c, 2, 76, 0
4, 19200, Note_on_c, 2, 75, 85
4, 19388, Note_off_c, 2, 75, 0
4, 19392, Note_on_c, 2, 76, 85
4, 19552, Note_off_c, 2, 76, 0
4, 19584, Note_on_c, 2, 78, 85
4, 19772, Note_off_c, 2, 78, 0
4, 19776, Note_on_c, 2, 76, 85
4, 19936, Note_off_c, 2, 76, 0
4, 19968, Note_on_c, 2, 64, 85
4, 19984, Note_on_c, 2, 69, 85
4, 20000, Note_on_c, 2, 73, 85
4, 20016, Note_on_c, 2, 76, 85
4, 20288, Note_off_c, 2, 64, 0
4, 20304, Note_off_c, 2, 69, 0
4, 20320, Note_off_c, 2, 73, 0
4, 20336, Note_off_c, 2, 76, 0
4, 20736, Note_on_c, 2, 69, 85
4, 21056, Note_off_c, 2, 69, 0
4, 21504, Note_on_c, 2, 69, 85
4, 21520, Note_on_c, 2, 74, 85
4, 21536, Note_on_c, 2, 78, 85
4, 21552, Note_on_c, 2, 81, 85
4, 21692, Note_off_c, 2, 69, 0
4, 21708, Note_off_c, 2, 74, 0
4, 21724, Note_off_c, 2, 78, 0
4, 21740, Note_off_c, 2, 81, 0
4, 21888, Note_on_c, 2, 81, 100
4, 22512, Note_off_c, 2, 81, 0
4, 22656, Note_on_c, 2, 80, 85
4, 22844, Note_off_c, 2, 80, 0
4, 22848, Note_on_c, 2, 78, 85
4, 23008, Note_off_c, 2, 78, 0
4, 23040, Note_on_c, 2, 69, 85
4, 23040, Note_on_c, 2, 76, 85
4, 23228, Note_off_c, 2, 76, 0
4, 23232, Note_on_c, 2, 81, 85
4, 23360, Note_off_c, 2, 69, 0
4, 23392, Note_off_c, 2, 81, 0
4, 23424, Note_on_c, 2, 78, 85
4, 23424, Note_on_c, 2, 74, 85
4, 23504, Note_off_c, 2, 78, 0
4, 23504, Note_off_c, 2, 74, 0
4, 23616, Note_on_c, 2, 74, 85
4, 23616, Note_on_c, 2, 71, 85
4, 23696, Note_off_c, 2, 74, 0
4, 23696, Note_off_c, 2, 71, 0
4, 23808, Note_on_c, 2, 73, 85
4, 23808, Note_on_c, 2, 69, 85
4, 23996, Note_off_c, 2, 73, 0
4, 23996, Note_off_c, 2, 69, 0
4, 24000, Note_on_c, 2, 76, 85
4, 24000, Note_on_c, 2, 73, 85
4, 24160, Note_off_c, 2, 76, 0
4, 24160, Note_off_c, 2, 73, 0
4, 24192, Note_on_c, 2, 74, 85
4, 24192, Note_on_c, 2, 71, 85
4, 24272, Note_off_c, 2, 74, 0
4, 24272, Note_off_c, 2, 71, 0
4, 24384, Note_on_c, 2, 71, 85
4, 24384, Note_on_c, 2, 68, 85
4, 24464, Note_off_c, 2, 71, 0
4, 24464, Note_off_c, 2, 68, 0
4, 24576, Note_on_c, 2, 69, 85
4, 24896, Note_off_c, 2, 69, 0
4, 25344, Note_on_c, 2, 73, 65
4, 25344, Note_on_c, 2, 69, 65
4, 25504, Note_off_c, 2, 73, 0
4, 25504, Note_off_c, 2, 69, 0
4, 25728, Note_on_c, 2, 73, 65
4, 25728, Note_on_c, 2, 69, 65
4, 26108, Note_off_c, 2, 73, 0
4, 26108, Note_off_c, 2, 69, 0
4, 26112, Note_on_c, 2, 64, 65
4, 26112, Note_on_c, 2, 71, 65
4, 26112, Note_on_c, 2, 68, 65
4, 26272, Note_off_c, 2, 64, 0
4, 26496, Note_on_c, 2, 64, 65
4, 26736, Note_off_c, 2, 71, 0
4, 26736, Note_off_c, 2, 68, 0
4, 26876, Note_off_c, 2, 64, 0
4, 26880, Note_on_c, 2, 74, 65
4, 26880, Note_on_c, 2, 71, 65
4, 26880, Note_on_c, 2, 66, 65
4, 27040, Note_off_c, 2, 74, 0
4, 27040, Note_off_c, 2, 71, 0
4, 27264, Note_on_c, 2, 74, 65
4, 27264, Note_on_c, 2, 71, 65
4, 27644, Note_off_c, 2, 66, 0
4, 27644, Note_off_c, 2, 74, 0
4, 27644, Note_off_c, 2, 71, 0
4, 27648, Note_on_c, 2, 66, 65
4, 27648, Note_on_c, 2, 73, 65
4, 27648, Note_on_c, 2, 69, 65
4, 27808, Note_off_c, 2, 66, 0
4, 28032, Note_on_c, 2, 66, 65
4, 28272, Note_off_c, 2, 73, 0
4, 28272, Note_off_c, 2, 69, 0
4, 28412, Note_off_c, 2, 66, 0
4, 28416, Note_on_c, 2, 78, 65
4, 28416, Note_on_c, 2, 74, 65
4, 28416, Note_on_c, 2, 69, 65
4, 28576, Note_off_c, 2, 78, 0
4, 28576, Note_off_c, 2, 74, 0
4, 28800, Note_on_c, 2, 78, 65
4, 28800, Note_on_c, 2, 74, 65
4, 29040, Note_off_c, 2, 69, 0
4, 29180, Note_off_c, 2, 78, 0
4, 29180, Note_off_c, 2, 74, 0
4, 29184, Note_on_c, 2, 74, 65
4, 29184, Note_on_c, 2, 71, 65
4, 29184, Note_on_c, 2, 76, 65
4, 29948, Note_off_c, 2, 74, 0
4, 29948, Note_off_c, 2, 71, 0
4, 29952, Note_on_c, 2, 73, 65
4, 29952, Note_on_c, 2, 69, 65
4, 30332, Note_off_c, 2, 76, 0
4, 30332, Note_off_c, 2, 73, 0
4, 30332, Note_off_c, 2, 69, 0
4, 30336, Note_on_c, 2, 74, 65
4, 30336, Note_on_c, 2, 71, 65
4, 30336, Note_on_c, 2, 66, 65
4, 30656, Note_off_c, 2, 74, 0
4, 30656, Note_off_c, 2, 71, 0
4, 30656, Note_off_c, 2, 66, 0
4, 30720, Note_on_c, 2, 73, 65
4, 30720, Note_on_c, 2, 69, 65
4, 30720, Note_on_c, 2, 64, 65
4, 31100, Note_off_c, 2, 73, 0
4, 31100, Note_off_c, 2, 69, 0
4, 31104, Note_on_c, 2, 71, 65
4, 31104, Note_on_c, 2, 68, 65
4, 31344, Note_off_c, 2, 64, 0
4, 31424, Note_off_c, 2, 71, 0
4, 31424, Note_off_c, 2, 68, 0
4, 31488, Note_on_c, 2, 68, 65
4, 31488, Note_on_c, 2, 76, 65
4, 32112, Note_off_c, 2, 68, 0
4, 32256, Note_on_c, 2, 69, 65
4, 32880, Note_off_c, 2, 76, 64
4, 33024, Note_on_c, 2, 74, 65
4, 33184, Note_off_c, 2, 69, 0
4, 33408, Note_on_c, 2, 71, 65
4, 33596, Note_off_c, 2, 71, 0
4, 33600, Note_on_c, 2, 69, 65
4, 33760, Note_off_c, 2, 69, 0
4, 33792, Note_on_c, 2, 68, 65
4, 34172, Note_off_c, 2, 68, 0
4, 34176, Note_on_c, 2, 71, 65
4, 34416, Note_off_c, 2, 74, 64
4, 34556, Note_off_c, 2, 71, 0
4, 34560, Note_on_c, 2, 69, 65
4, 34560, Note_on_c, 2, 73, 65
4, 34940, Note_off_c, 2, 69, 0
4, 34944, Note_on_c, 2, 68, 65
4, 35264, Note_off_c, 2, 68, 0
4, 35328, Note_on_c, 2, 66, 65
4, 35648, Note_off_c, 2, 66, 0
4, 35648, Note_off_c, 2, 73, 64
4, 35712, Note_on_c, 2, 74, 65
4, 35712, Note_on_c, 2, 71, 65
4, 35712, Note_on_c, 2, 66, 65
4, 36092, Note_off_c, 2, 74, 0
4, 36092, Note_off_c, 2, 71, 0
4, 36092, Note_off_c, 2, 66, 0
4, 36096, Note_on_c, 2, 64, 65
4, 36096, Note_on_c, 2, 69, 65
4, 36096, Note_on_c, 2, 73, 65
4, 36476, Note_off_c, 2, 64, 0
4, 36476, Note_off_c, 2, 69, 0
4, 36476, Note_off_c, 2, 73, 64
4, 36480, Note_on_c, 2, 62, 65
4, 36480, Note_on_c, 2, 71, 65
4, 36480, Note_on_c, 2, 68, 65
4, 36800, Note_off_c, 2, 62, 0
4, 36800, Note_off_c, 2, 71, 0
4, 36800, Note_off_c, 2, 68, 64
4, 36864, Note_on_c, 2, 68, 65
4, 36864, Note_on_c, 2, 71, 65
4, 36864, Note_on_c, 2, 62, 65
4, 37244, Note_off_c, 2, 68, 0
4, 37244, Note_off_c, 2, 71, 0
4, 37244, Note_off_c, 2, 62, 0
4, 37248, Note_on_c, 2, 61, 65
4, 37248, Note_on_c, 2, 69, 65
4, 37248, Note_on_c, 2, 73, 65
4, 37568, Note_off_c, 2, 61, 0
4, 37568, Note_off_c, 2, 69, 0
4, 37568, Note_off_c, 2, 73, 0
4, 37632, Note_on_c, 2, 69, 65
4, 37632, Note_on_c, 2, 73, 65
4, 37792, Note_off_c, 2, 69, 0
4, 37792, Note_off_c, 2, 73, 0
4, 38016, Note_on_c, 2, 69, 65
4, 38016, Note_on_c, 2, 73, 65
4, 38396, Note_off_c, 2, 69, 0
4, 38396, Note_off_c, 2, 73, 0
4, 38400, Note_on_c, 2, 64, 65
4, 38400, Note_on_c, 2, 71, 65
4, 38400, Note_on_c, 2, 68, 65
4, 38560, Note_off_c, 2, 64, 0
4, 38784, Note_on_c, 2, 64, 65
4, 39024, Note_off_c, 2, 71, 0
4, 39024, Note_off_c, 2, 68, 0
4, 39164, Note_off_c, 2, 64, 0
4, 39168, Note_on_c, 2, 74, 65
4, 39168, Note_on_c, 2, 71, 65
4, 39168, Note_on_c, 2, 66, 65
4, 39328, Note_off_c, 2, 74, 0
4, 39328, Note_off_c, 2, 71, 0
4, 39552, Note_on_c, 2, 74, 65
4, 39552, Note_on_c, 2, 71, 65
4, 39792, Note_off_c, 2, 66, 0
4, 39932, Note_off_c, 2, 74, 0
4, 39932, Note_off_c, 2, 71, 0
4, 39936, Note_on_c, 2, 69, 65
4, 39936, Note_on_c, 2, 73, 65
4, 39936, Note_on_c, 2, 66, 65
4, 40096, Note_off_c, 2, 66, 0
4, 40320, Note_on_c, 2, 66, 65
4, 40560, Note_off_c, 2, 69, 0
4, 40560, Note_off_c, 2, 73, 0
4, 40700, Note_off_c, 2, 66, 0
4, 40704, Note_on_c, 2, 78, 65
4, 40704, Note_on_c, 2, 74, 65
4, 40704, Note_on_c, 2, 69, 65
4, 40864, Note_off_c, 2, 78, 0
4, 40864, Note_off_c, 2, 74, 0
4, 41088, Note_on_c, 2, 78, 65
4, 41088, Note_on_c, 2, 74, 65
4, 41328, Note_off_c, 2, 69, 0
4, 41468, Note_off_c, 2, 78, 0
4, 41468, Note_off_c, 2, 74, 0
4, 41472, Note_on_c, 2, 74, 65
4, 41472, Note_on_c, 2, 71, 65
4, 41472, Note_on_c, 2, 76, 65
4, 42236, Note_off_c, 2, 74, 0
4, 42236, Note_off_c, 2, 71, 0
4, 42240, Note_on_c, 2, 73, 65
4, 42240, Note_on_c, 2, 69, 65
4, 42620, Note_off_c, 2, 76, 0
4, 42620, Note_off_c, 2, 73, 0
4, 42620, Note_off_c, 2, 69, 0
4, 42624, Note_on_c, 2, 74, 65
4, 42624, Note_on_c, 2, 71, 65
4, 42624, Note_on_c, 2, 66, 65
4, 42944, Note_off_c, 2, 74, 0
4, 42944, Note_off_c, 2, 71, 0
4, 42944, Note_off_c, 2, 66, 0
4, 43008, Note_on_c, 2, 73, 65
4, 43008, Note_on_c, 2, 69, 65
4, 43008, Note_on_c, 2, 64, 65
4, 43388, Note_off_c, 2, 73, 0
4, 43388, Note_off_c, 2, 69, 0
4, 43392, Note_on_c, 2, 71, 65
4, 43392, Note_on_c, 2, 68, 65
4, 43632, Note_off_c, 2, 64, 0
4, 43712, Note_off_c, 2, 71, 0
4, 43712, Note_off_c, 2, 68, 0
4, 43776, Note_on_c, 2, 68, 65
4, 43776, Note_on_c, 2, 76, 65
4, 44400, Note_off_c, 2, 68, 0
4, 44544, Note_on_c, 2, 69, 65
4, 45168, Note_off_c, 2, 76, 64
4, 45312, Note_on_c, 2, 74, 65
4, 45936, Note_off_c, 2, 69, 0
4, 46080, Note_on_c, 2, 68, 65
4, 46460, Note_off_c, 2, 68, 0
4, 46464, Note_on_c, 2, 71, 65
4, 46704, Note_off_c, 2, 74, 64
4, 46848, Note_on_c, 2, 73, 65
4, 47228, Note_off_c, 2, 71, 0
4, 47232, Note_on_c, 2, 69, 65
4, 47420, Note_off_c, 2, 69, 0
4, 47424, Note_on_c, 2, 68, 65
4, 47584, Note_off_c, 2, 68, 0
4, 47616, Note_on_c, 2, 69, 65
4, 47936, Note_off_c, 2, 73, 64
4, 47996, Note_off_c, 2, 69, 0
4, 48000, Note_on_c, 2, 74, 65
4, 48000, Note_on_c, 2, 71, 65
4, 48380, Note_off_c, 2, 74, 0
4, 48380, Note_off_c, 2, 71, 0
4, 48384, Note_on_c, 2, 73, 65
4, 48384, Note_on_c, 2, 69, 65
4, 48764, Note_off_c, 2, 73, 0
4, 48764, Note_off_c, 2, 69, 0
4, 48768, Note_on_c, 2, 71, 65
4, 48768, Note_on_c, 2, 68, 65
4, 49088, Note_off_c, 2, 71, 0
4, 49088, Note_off_c, 2, 68, 0
4, 49152, Note_on_c, 2, 71, 85
4, 49152, Note_on_c, 2, 68, 85
4, 49344, Note_on_c, 2, 76, 85
4, 49532, Note_off_c, 2, 71, 0
4, 49532, Note_off_c, 2, 68, 0
4, 49532, Note_off_c, 2, 76, 0
4, 49536, Note_on_c, 2, 73, 85
4, 49536, Note_on_c, 2, 76, 85
4, 49536, Note_on_c, 2, 69, 85
4, 49724, Note_off_c, 2, 76, 0
4, 49728, Note_on_c, 2, 78, 85
4, 49856, Note_off_c, 2, 73, 0
4, 49856, Note_off_c, 2, 69, 0
4, 49916, Note_off_c, 2, 78, 0
4, 49920, Note_on_c, 2, 71, 85
4, 49920, Note_on_c, 2, 80, 85
4, 50108, Note_off_c, 2, 80, 0
4, 50112, Note_on_c, 2, 76, 85
4, 50240, Note_off_c, 2, 71, 0
4, 50300, Note_off_c, 2, 76, 0
4, 50304, Note_on_c, 2, 78, 85
4, 50492, Note_off_c, 2, 78, 0
4, 50496, Note_on_c, 2, 80, 85
4, 50656, Note_off_c, 2, 80, 0
4, 50688, Note_on_c, 2, 73, 85
4, 50688, Note_on_c, 2, 81, 85
4, 50876, Note_off_c, 2, 81, 0
4, 50880, Note_on_c, 2, 78, 85
4, 51008, Note_off_c, 2, 73, 0
4, 51068, Note_off_c, 2, 78, 0
4, 51072, Note_on_c, 2, 80, 85
4, 51260, Note_off_c, 2, 80, 0
4, 51264, Note_on_c, 2, 81, 85
4, 51452, Note_off_c, 2, 81, 0
4, 51456, Note_on_c, 2, 71, 85
4, 51456, Note_on_c, 2, 83, 85
4, 51644, Note_off_c, 2, 83, 0
4, 51648, Note_on_c, 2, 78, 85
4, 51776, Note_off_c, 2, 71, 0
4, 51836, Note_off_c, 2, 78, 0
4, 51840, Note_on_c, 2, 83, 85
4, 52028, Note_off_c, 2, 83, 0
4, 52032, Note_on_c, 2, 81, 85
4, 52220, Note_off_c, 2, 81, 0
4, 52224, Note_on_c, 2, 80, 85
4, 52224, Note_on_c, 2, 71, 85
4, 52412, Note_off_c, 2, 80, 0
4, 52416, Note_on_c, 2, 76, 85
4, 52544, Note_off_c, 2, 71, 0
4, 52604, Note_off_c, 2, 76, 0
4, 52608, Note_on_c, 2, 78, 85
4, 52796, Note_off_c, 2, 78, 0
4, 52800, Note_on_c, 2, 80, 85
4, 52988, Note_off_c, 2, 80, 0
4, 52992, Note_on_c, 2, 76, 85
4, 52992, Note_on_c, 2, 81, 85
4, 53180, Note_off_c, 2, 81, 0
4, 53184, Note_on_c, 2, 83, 85
4, 53312, Note_off_c, 2, 76, 0
4, 53372, Note_off_c, 2, 83, 0
4, 53376, Note_on_c, 2, 76, 85
4, 53376, Note_on_c, 2, 85, 85
4, 53564, Note_off_c, 2, 85, 0
4, 53568, Note_on_c, 2, 81, 85
4, 53696, Note_off_c, 2, 76, 0
4, 53728, Note_off_c, 2, 81, 0
4, 53760, Note_on_c, 2, 86, 85
4, 53760, Note_on_c, 2, 78, 85
4, 53760, Note_on_c, 2, 74, 85
4, 53920, Note_off_c, 2, 86, 0
4, 53920, Note_off_c, 2, 78, 0
4, 53920, Note_off_c, 2, 74, 0
4, 54144, Note_on_c, 2, 78, 95
4, 54144, Note_on_c, 2, 74, 95
4, 54144, Note_on_c, 2, 86, 95
4, 54768, Note_off_c, 2, 78, 0
4, 54768, Note_off_c, 2, 74, 0
4, 54768, Note_off_c, 2, 86, 0
4, 54912, Note_on_c, 2, 78, 85
4, 54912, Note_on_c, 2, 74, 85
4, 54912, Note_on_c, 2, 86, 85
4, 55292, Note_off_c, 2, 78, 0
4, 55292, Note_off_c, 2, 74, 0
4, 55296, Note_on_c, 2, 83, 85
4, 55296, Note_on_c, 2, 76, 85
4, 55296, Note_on_c, 2, 74, 85
4, 55616, Note_off_c, 2, 83, 0
4, 55616, Note_off_c, 2, 76, 0
4, 55616, Note_off_c, 2, 74, 0
4, 55616, Note_off_c, 2, 86, 0
4, 55680, Note_on_c, 2, 76, 85
4, 55680, Note_on_c, 2, 71, 85
4, 55680, Note_on_c, 2, 74, 85
4, 55840, Note_off_c, 2, 76, 0
4, 55840, Note_off_c, 2, 71, 0
4, 55840, Note_off_c, 2, 74, 0
4, 56064, Note_on_c, 2, 85, 85
4, 56064, Note_on_c, 2, 81, 85
4, 56064, Note_on_c, 2, 76, 85
4, 56064, Note_on_c, 2, 73, 85
4, 56384, Note_off_c, 2, 85, 0
4, 56384, Note_off_c, 2, 81, 0
4, 56384, Note_off_c, 2, 76, 0
4, 56384, Note_off_c, 2, 73, 0
4, 56448, Note_on_c, 2, 69, 85
4, 56608, Note_off_c, 2, 69, 0
4, 56832, Note_on_c, 2, 78, 85
4, 56832, Note_on_c, 2, 74, 85
4, 56832, Note_on_c, 2, 83, 85
4, 57152, Note_off_c, 2, 78, 0
4, 57152, Note_off_c, 2, 74, 0
4, 57152, Note_off_c, 2, 83, 0
4, 57216, Note_on_c, 2, 83, 85
4, 57216, Note_on_c, 2, 71, 85
4, 57376, Note_off_c, 2, 83, 0
4, 57376, Note_off_c, 2, 71, 0
4, 57600, Note_on_c, 2, 80, 85
4, 57600, Note_on_c, 2, 76, 85
4, 57600, Note_on_c, 2, 71, 85
4, 57920, Note_off_c, 2, 80, 0
4, 57920, Note_off_c, 2, 76, 0
4, 57920, Note_off_c, 2, 71, 0
4, 57984, Note_on_c, 2, 80, 85
4, 57984, Note_on_c, 2, 68, 85
4, 58144, Note_off_c, 2, 80, 0
4, 58144, Note_off_c, 2, 68, 0
4, 58368, Note_on_c, 2, 81, 85
4, 58368, Note_on_c, 2, 76, 85
4, 58368, Note_on_c, 2, 73, 85
4, 58528, Note_off_c, 2, 81, 0
4, 58528, Note_off_c, 2, 76, 0
4, 58528, Note_off_c, 2, 73, 0
4, 58752, Note_on_c, 2, 81, 85
4, 58752, Note_on_c, 2, 69, 85
4, 58912, Note_off_c, 2, 81, 0
4, 58912, Note_off_c, 2, 69, 0
4, 59136, Note_on_c, 2, 90, 85
4, 59136, Note_on_c, 2, 86, 85
4, 59136, Note_on_c, 2, 81, 85
4, 59296, Note_off_c, 2, 90, 0
4, 59296, Note_off_c, 2, 86, 0
4, 59296, Note_off_c, 2, 81, 0
4, 59520, Note_on_c, 2, 78, 85
4, 59520, Note_on_c, 2, 66, 85
4, 59680, Note_off_c, 2, 78, 0
4, 59680, Note_off_c, 2, 66, 0
4, 59904, Note_on_c, 2, 81, 85
4, 59904, Note_on_c, 2, 85, 85
4, 59904, Note_on_c, 2, 76, 85
4, 60064, Note_off_c, 2, 81, 0
4, 60064, Note_off_c, 2, 85, 0
4, 60064, Note_off_c, 2, 76, 0
4, 60288, Note_on_c, 2, 76, 85
4, 60288, Note_on_c, 2, 64, 85
4, 60448, Note_off_c, 2, 76, 0
4, 60448, Note_off_c, 2, 64, 0
4, 60672, Note_on_c, 2, 83, 85
4, 60672, Note_on_c, 2, 80, 85
4, 60672, Note_on_c, 2, 74, 85
4, 60832, Note_off_c, 2, 83, 0
4, 60832, Note_off_c, 2, 80, 0
4, 60832, Note_off_c, 2, 74, 0
4, 61056, Note_on_c, 2, 80, 85
4, 61056, Note_on_c, 2, 68, 85
4, 61216, Note_off_c, 2, 80, 0
4, 61216, Note_off_c, 2, 68, 0
4, 61440, Note_on_c, 2, 81, 85
4, 61440, Note_on_c, 2, 76, 85
4, 61440, Note_on_c, 2, 73, 85
4, 61760, Note_off_c, 2, 81, 0
4, 61760, Note_off_c, 2, 76, 0
4, 61760, Note_off_c, 2, 73, 0
4, 61824, Note_on_c, 2, 85, 85
4, 62012, Note_off_c, 2, 85, 0
4, 62016, Note_on_c, 2, 81, 85
4, 62176, Note_off_c, 2, 81, 0
4, 62208, Note_on_c, 2, 76, 85
4, 62528, Note_off_c, 2, 76, 0
4, 62592, Note_on_c, 2, 73, 85
4, 62780, Note_off_c, 2, 73, 0
4, 62784, Note_on_c, 2, 69, 85
4, 62944, Note_off_c, 2, 69, 0
4, 62976, Note_on_c, 2, 64, 85
4, 63296, Note_off_c, 2, 64, 0
4, 63360, Note_on_c, 2, 86, 85
4, 63548, Note_off_c, 2, 86, 0
4, 63552, Note_on_c, 2, 83, 85
4, 63712, Note_off_c, 2, 83, 0
4, 63744, Note_on_c, 2, 76, 85
4, 64064, Note_off_c, 2, 76, 0
4, 64128, Note_on_c, 2, 64, 85
4, 64208, Note_off_c, 2, 64, 0
4, 64320, Note_on_c, 2, 64, 85
4, 64508, Note_off_c, 2, 64, 0
4, 64512, Note_on_c, 2, 69, 85
4, 64832, Note_off_c, 2, 69, 0
4, 64896, Note_on_c, 2, 85, 85
4, 65084, Note_off_c, 2, 85, 0
4, 65088, Note_on_c, 2, 81, 85
4, 65248, Note_off_c, 2, 81, 0
4, 65280, Note_on_c, 2, 76, 85
4, 65600, Note_off_c, 2, 76, 0
4, 65664, Note_on_c, 2, 73, 85
4, 65852, Note_off_c, 2, 73, 0
4, 65856, Note_on_c, 2, 69, 85
4, 66016, Note_off_c, 2, 69, 0
4, 66048, Note_on_c, 2, 64, 85
4, 66368, Note_off_c, 2, 64, 0
4, 66432, Note_on_c, 2, 86, 85
4, 66620, Note_off_c, 2, 86, 0
4, 66624, Note_on_c, 2, 83, 85
4, 66784, Note_off_c, 2, 83, 0
4, 66816, Note_on_c, 2, 76, 85
4, 67136, Note_off_c, 2, 76, 0
4, 67200, Note_on_c, 2, 64, 85
4, 67280, Note_off_c, 2, 64, 0
4, 67392, Note_on_c, 2, 64, 85
4, 67580, Note_off_c, 2, 64, 0
4, 67584, Note_on_c, 2, 69, 85
4, 67904, Note_off_c, 2, 69, 0
4, 67968, Note_on_c, 2, 81, 85
4, 67968, Note_on_c, 2, 85, 85
4, 67968, Note_on_c, 2, 76, 85
4, 68288, Note_off_c, 2, 81, 0
4, 68288, Note_off_c, 2, 85, 0
4, 68288, Note_off_c, 2, 76, 0
4, 68736, Note_on_c, 2, 78, 85
4, 68736, Note_on_c, 2, 81, 85
4, 68736, Note_on_c, 2, 73, 85
4, 69056, Note_off_c, 2, 78, 0
4, 69056, Note_off_c, 2, 81, 0
4, 69056, Note_off_c, 2, 73, 0
4, 69504, Note_on_c, 2, 74, 85
4, 69504, Note_on_c, 2, 78, 85
4, 69504, Note_on_c, 2, 83, 85
4, 69824, Note_off_c, 2, 74, 0
4, 69824, Note_off_c, 2, 78, 0
4, 69824, Note_off_c, 2, 83, 0
4, 70272, Note_on_c, 2, 80, 85
4, 70272, Note_on_c, 2, 71, 85
4, 70592, Note_off_c, 2, 80, 0
4, 70592, Note_off_c, 2, 71, 0
4, 70656, Note_on_c, 2, 73, 65
4, 70656, Note_on_c, 2, 81, 65
4, 70976, Note_off_c, 2, 73, 0
4, 70976, Note_off_c, 2, 81, 0
4, 71040, Note_on_c, 2, 85, 65
4, 71228, Note_off_c, 2, 85, 0
4, 71232, Note_on_c, 2, 81, 65
4, 71392, Note_off_c, 2, 81, 0
4, 71424, Note_on_c, 2, 76, 65
4, 71744, Note_off_c, 2, 76, 0
4, 71808, Note_on_c, 2, 76, 65
4, 72188, Note_off_c, 2, 76, 0
4, 72192, Note_on_c, 2, 86, 65
4, 72192, Note_on_c, 2, 76, 65
4, 72512, Note_off_c, 2, 86, 0
4, 72512, Note_off_c, 2, 76, 0
4, 72576, Note_on_c, 2, 86, 65
4, 72764, Note_off_c, 2, 86, 0
4, 72768, Note_on_c, 2, 83, 65
4, 72928, Note_off_c, 2, 83, 0
4, 72960, Note_on_c, 2, 76, 65
4, 73280, Note_off_c, 2, 76, 0
4, 73344, Note_on_c, 2, 76, 65
4, 73724, Note_off_c, 2, 76, 0
4, 73728, Note_on_c, 2, 85, 65
4, 73728, Note_on_c, 2, 76, 65
4, 74048, Note_off_c, 2, 85, 0
4, 74048, Note_off_c, 2, 76, 0
4, 74112, Note_on_c, 2, 85, 65
4, 74300, Note_off_c, 2, 85, 0
4, 74304, Note_on_c, 2, 81, 65
4, 74464, Note_off_c, 2, 81, 0
4, 74496, Note_on_c, 2, 76, 65
4, 74816, Note_off_c, 2, 76, 0
4, 74880, Note_on_c, 2, 76, 65
4, 75260, Note_off_c, 2, 76, 0
4, 75264, Note_on_c, 2, 86, 65
4, 75264, Note_on_c, 2, 76, 65
4, 75584, Note_off_c, 2, 86, 0
4, 75584, Note_off_c, 2, 76, 0
4, 75648, Note_on_c, 2, 86, 65
4, 75836, Note_off_c, 2, 86, 0
4, 75840, Note_on_c, 2, 83, 65
4, 76000, Note_off_c, 2, 83, 0
4, 76032, Note_on_c, 2, 76, 65
4, 76352, Note_off_c, 2, 76, 0
4, 76416, Note_on_c, 2, 76, 65
4, 76736, Note_off_c, 2, 76, 0
4, 76800, Note_on_c, 2, 73, 65
4, 76800, Note_on_c, 2, 69, 65
4, 76800, Note_on_c, 2, 64, 65
4, 77120, Note_off_c, 2, 73, 0
4, 77120, Note_off_c, 2, 69, 0
4, 77120, Note_off_c, 2, 64, 0
4, 77184, Note_on_c, 2, 73, 65
4, 77184, Note_on_c, 2, 85, 65
4, 77808, Note_off_c, 2, 73, 0
4, 77808, Note_off_c, 2, 85, 0
4, 77952, Note_on_c, 2, 69, 65
4, 77952, Note_on_c, 2, 81, 65
4, 78576, Note_off_c, 2, 69, 64
4, 78576, Note_off_c, 2, 81, 64
4, 78720, Note_on_c, 2, 83, 65
4, 78720, Note_on_c, 2, 71, 65
4, 79344, Note_off_c, 2, 83, 0
4, 79344, Note_off_c, 2, 71, 0
4, 79488, Note_on_c, 2, 80, 65
4, 79488, Note_on_c, 2, 68, 65
4, 79808, Note_off_c, 2, 80, 0
4, 79808, Note_off_c, 2, 68, 0
4, 79872, Note_on_c, 2, 85, 85
4, 79872, Note_on_c, 2, 80, 85
4, 79872, Note_on_c, 2, 73, 85
4, 80960, Note_off_c, 2, 85, 0
4, 80960, Note_off_c, 2, 80, 0
4, 80960, Note_off_c, 2, 73, 0
4, 81024, Note_on_c, 2, 86, 85
4, 81148, Note_off_c, 2, 86, 0
4, 81152, Note_on_c, 2, 85, 85
4, 81276, Note_off_c, 2, 85, 0
4, 81280, Note_on_c, 2, 83, 85
4, 81404, Note_off_c, 2, 83, 64
4, 81408, Note_on_c, 2, 81, 85
4, 81728, Note_off_c, 2, 81, 0
4, 81792, Note_on_c, 2, 81, 85
4, 81792, Note_on_c, 2, 78, 85
4, 81792, Note_on_c, 2, 73, 85
4, 81952, Note_off_c, 2, 81, 0
4, 81952, Note_off_c, 2, 78, 0
4, 81952, Note_off_c, 2, 73, 0
4, 81984, Note_on_c, 2, 81, 85
4, 81984, Note_on_c, 2, 78, 85
4, 81984, Note_on_c, 2, 73, 85
4, 82144, Note_off_c, 2, 81, 0
4, 82144, Note_off_c, 2, 78, 0
4, 82144, Note_off_c, 2, 73, 0
4, 82176, Note_on_c, 2, 81, 85
4, 82176, Note_on_c, 2, 78, 85
4, 82176, Note_on_c, 2, 73, 85
4, 82496, Note_off_c, 2, 81, 0
4, 82496, Note_off_c, 2, 78, 0
4, 82496, Note_off_c, 2, 73, 0
4, 82560, Note_on_c, 2, 81, 85
4, 82560, Note_on_c, 2, 78, 85
4, 82560, Note_on_c, 2, 73, 85
4, 82560, Note_on_c, 2, 69, 85
4, 82880, Note_off_c, 2, 81, 0
4, 82880, Note_off_c, 2, 78, 0
4, 82880, Note_off_c, 2, 73, 0
4, 82880, Note_off_c, 2, 69, 64
4, 82944, Note_on_c, 2, 83, 95
4, 82944, Note_on_c, 2, 78, 95
4, 82944, Note_on_c, 2, 69, 95
4, 82944, Note_on_c, 2, 71, 95
4, 83568, Note_off_c, 2, 83, 0
4, 83568, Note_off_c, 2, 78, 0
4, 83568, Note_off_c, 2, 69, 0
4, 83568, Note_off_c, 2, 71, 0
4, 83712, Note_on_c, 2, 76, 95
4, 83712, Note_on_c, 2, 71, 95
4, 83712, Note_on_c, 2, 68, 95
4, 84336, Note_off_c, 2, 76, 0
4, 84336, Note_off_c, 2, 71, 0
4, 84336, Note_off_c, 2, 68, 0
4, 84480, Note_on_c, 2, 85, 85
4, 84480, Note_on_c, 2, 80, 85
4, 84480, Note_on_c, 2, 73, 85
4, 85568, Note_off_c, 2, 85, 0
4, 85568, Note_off_c, 2, 80, 0
4, 85568, Note_off_c, 2, 73, 0
4, 85632, Note_on_c, 2, 86, 85
4, 85756, Note_off_c, 2, 86, 0
4, 85760, Note_on_c, 2, 85, 85
4, 85884, Note_off_c, 2, 85, 0
4, 85888, Note_on_c, 2, 83, 85
4, 86012, Note_off_c, 2, 83, 64
4, 86016, Note_on_c, 2, 81, 85
4, 86016, Note_on_c, 2, 73, 85
4, 86336, Note_off_c, 2, 81, 0
4, 86336, Note_off_c, 2, 73, 0
4, 86400, Note_on_c, 2, 78, 85
4, 86400, Note_on_c, 2, 81, 85
4, 86400, Note_on_c, 2, 73, 85
4, 86560, Note_off_c, 2, 78, 0
4, 86560, Note_off_c, 2, 81, 0
4, 86560, Note_off_c, 2, 73, 0
4, 86592, Note_on_c, 2, 78, 85
4, 86592, Note_on_c, 2, 81, 85
4, 86592, Note_on_c, 2, 73, 85
4, 86752, Note_off_c, 2, 78, 0
4, 86752, Note_off_c, 2, 81, 0
4, 86752, Note_off_c, 2, 73, 0
4, 86784, Note_on_c, 2, 81, 85
4, 86784, Note_on_c, 2, 78, 85
4, 86784, Note_on_c, 2, 73, 85
4, 87104, Note_off_c, 2, 81, 0
4, 87104, Note_off_c, 2, 78, 0
4, 87104, Note_off_c, 2, 73, 0
4, 87168, Note_on_c, 2, 78, 85
4, 87168, Note_on_c, 2, 73, 85
4, 87168, Note_on_c, 2, 81, 85
4, 87488, Note_off_c, 2, 78, 0
4, 87488, Note_off_c, 2, 73, 0
4, 87488, Note_off_c, 2, 81, 0
4, 87552, Note_on_c, 2, 83, 85
4, 87552, Note_on_c, 2, 78, 85
4, 87552, Note_on_c, 2, 71, 85
4, 87552, Note_on_c, 2, 69, 85
4, 88176, Note_off_c, 2, 83, 0
4, 88176, Note_off_c, 2, 78, 0
4, 88176, Note_off_c, 2, 71, 0
4, 88176, Note_off_c, 2, 69, 0
4, 88320, Note_on_c, 2, 76, 85
4, 88320, Note_on_c, 2, 71, 85
4, 88320, Note_on_c, 2, 68, 85
4, 88944, Note_off_c, 2, 76, 0
4, 88944, Note_off_c, 2, 71, 0
4, 88944, Note_off_c, 2, 68, 0
4, 89088, Note_on_c, 2, 81, 85
4, 89088, Note_on_c, 2, 76, 85
4, 89088, Note_on_c, 2, 73, 85
4, 89088, Note_on_c, 2, 69, 85
4, 89408, Note_off_c, 2, 81, 0
4, 89408, Note_off_c, 2, 76, 0
4, 89408, Note_off_c, 2, 73, 0
4, 89408, Note_off_c, 2, 69, 0
4, 89472, Note_on_c, 2, 81, 85
4, 89660, Note_off_c, 2, 81, 0
4, 89664, Note_on_c, 2, 85, 85
4, 89852, Note_off_c, 2, 85, 0
4, 89856, Note_on_c, 2, 88, 85
4, 90176, Note_off_c, 2, 88, 0
4, 90240, Note_on_c, 2, 80, 85
4, 90240, Note_on_c, 2, 76, 85
4, 90240, Note_on_c, 2, 71, 85
4, 90560, Note_off_c, 2, 80, 0
4, 90560, Note_off_c, 2, 76, 0
4, 90560, Note_off_c, 2, 71, 0
4, 90624, Note_on_c, 2, 81, 85
4, 90624, Note_on_c, 2, 76, 85
4, 90624, Note_on_c, 2, 73, 85
4, 90624, Note_on_c, 2, 69, 85
4, 90944, Note_off_c, 2, 81, 0
4, 90944, Note_off_c, 2, 76, 0
4, 90944, Note_off_c, 2, 73, 0
4, 90944, Note_off_c, 2, 69, 0
4, 91008, Note_on_c, 2, 81, 85
4, 91196, Note_off_c, 2, 81, 0
4, 91200, Note_on_c, 2, 85, 85
4, 91388, Note_off_c, 2, 85, 0
4, 91392, Note_on_c, 2, 88, 85
4, 91712, Note_off_c, 2, 88, 0
4, 91776, Note_on_c, 2, 80, 85
4, 91776, Note_on_c, 2, 76, 85
4, 91776, Note_on_c, 2, 71, 85
4, 92096, Note_off_c, 2, 80, 0
4, 92096, Note_off_c, 2, 76, 0
4, 92096, Note_off_c, 2, 71, 0
4, 92160, Note_on_c, 2, 81, 85
4, 92160, Note_on_c, 2, 76, 85
4, 92160, Note_on_c, 2, 73, 85
4, 92924, Note_off_c, 2, 81, 0
4, 92924, Note_off_c, 2, 76, 0
4, 92924, Note_off_c, 2, 73, 0
4, 92928, Note_on_c, 2, 69, 85
4, 92928, Note_on_c, 2, 57, 85
4, 93392, Note_off_c, 2, 69, 0
4, 93392, Note_off_c, 2, 57, 0
4, 93504, Note_on_c, 2, 69, 85
4, 93504, Note_on_c, 2, 57, 85
4, 93664, Note_off_c, 2, 69, 0
4, 93664, Note_off_c, 2, 57, 0
4, 93696, Note_on_c, 2, 69, 85
4, 93696, Note_on_c, 2, 57, 85
4, 94320, Note_off_c, 2, 69, 0
4, 94320, Note_off_c, 2, 57, 0
4, 107520, Note_on_c, 2, 73, 65
4, 107520, Note_on_c, 2, 69, 65
4, 108284, Note_off_c, 2, 73, 0
4, 108284, Note_off_c, 2, 69, 0
4, 108288, Note_on_c, 2, 74, 65
4, 108288, Note_on_c, 2, 71, 65
4, 108668, Note_off_c, 2, 74, 0
4, 108668, Note_off_c, 2, 71, 0
4, 108672, Note_on_c, 2, 75, 65
4, 108672, Note_on_c, 2, 72, 65
4, 108992, Note_off_c, 2, 75, 0
4, 108992, Note_off_c, 2, 72, 0
4, 109056, Note_on_c, 2, 76, 65
4, 109056, Note_on_c, 2, 73, 65
4, 109440, Note_on_c, 2, 69, 65
4, 109440, Note_on_c, 2, 57, 65
4, 109760, Note_off_c, 2, 69, 0
4, 109760, Note_off_c, 2, 57, 0
4, 109824, Note_on_c, 2, 69, 65
4, 109824, Note_on_c, 2, 57, 65
4, 110144, Note_off_c, 2, 69, 0
4, 110144, Note_off_c, 2, 57, 0
4, 110204, Note_off_c, 2, 76, 0
4, 110208, Note_on_c, 2, 77, 65
4, 110208, Note_on_c, 2, 69, 65
4, 110208, Note_on_c, 2, 57, 65
4, 110448, Note_off_c, 2, 73, 0
4, 110528, Note_off_c, 2, 77, 0
4, 110528, Note_off_c, 2, 69, 0
4, 110528, Note_off_c, 2, 57, 0
4, 110592, Note_on_c, 2, 78, 65
4, 110592, Note_on_c, 2, 74, 65
4, 110592, Note_on_c, 2, 57, 65
4, 110592, Note_on_c, 2, 69, 65
4, 110972, Note_off_c, 2, 78, 0
4, 110972, Note_off_c, 2, 74, 0
4, 110976, Note_on_c, 2, 80, 65
4, 110976, Note_on_c, 2, 76, 65
4, 111356, Note_off_c, 2, 80, 0
4, 111356, Note_off_c, 2, 76, 0
4, 111360, Note_on_c, 2, 78, 65
4, 111360, Note_on_c, 2, 81, 65
4, 111740, Note_off_c, 2, 78, 0
4, 111740, Note_off_c, 2, 81, 0
4, 111744, Note_on_c, 2, 76, 65
4, 111744, Note_on_c, 2, 80, 65
4, 112124, Note_off_c, 2, 76, 0
4, 112124, Note_off_c, 2, 80, 0
4, 112128, Note_on_c, 2, 80, 65
4, 112128, Note_on_c, 2, 76, 65
4, 112508, Note_off_c, 2, 80, 0
4, 112508, Note_off_c, 2, 76, 0
4, 112512, Note_on_c, 2, 74, 65
4, 112512, Note_on_c, 2, 78, 65
4, 112892, Note_off_c, 2, 74, 0
4, 112892, Note_off_c, 2, 78, 0
4, 112896, Note_on_c, 2, 76, 65
4, 112896, Note_on_c, 2, 73, 65
4, 113216, Note_off_c, 2, 57, 64
4, 113216, Note_off_c, 2, 69, 64
4, 113216, Note_off_c, 2, 76, 0
4, 113216, Note_off_c, 2, 73, 0
4, 118272, Note_on_c, 2, 69, 65
4, 118272, Note_on_c, 2, 61, 65
4, 118272, Note_on_c, 2, 64, 65
4, 119664, Note_off_c, 2, 61, 0
4, 119804, Note_off_c, 2, 69, 0
4, 119808, Note_on_c, 2, 68, 65
4, 119808, Note_on_c, 2, 62, 65
4, 119808, Note_on_c, 2, 59, 65
4, 121200, Note_off_c, 2, 68, 0
4, 121200, Note_off_c, 2, 62, 0
4, 121200, Note_off_c, 2, 59, 0
4, 121344, Note_on_c, 2, 61, 65
4, 121344, Note_on_c, 2, 69, 65
4, 122736, Note_off_c, 2, 61, 0
4, 122876, Note_off_c, 2, 69, 0
4, 122880, Note_on_c, 2, 68, 65
4, 122880, Note_on_c, 2, 62, 65
4, 122880, Note_on_c, 2, 59, 65
4, 124272, Note_off_c, 2, 68, 0
4, 124272, Note_off_c, 2, 62, 0
4, 124272, Note_off_c, 2, 59, 0
4, 124272, Note_off_c, 2, 64, 0
4, 124416, Note_on_c, 2, 64, 65
4, 124416, Note_on_c, 2, 61, 65
4, 124416, Note_on_c, 2, 69, 65
4, 124736, Note_off_c, 2, 64, 0
4, 124736, Note_off_c, 2, 61, 0
4, 124736, Note_off_c, 2, 69, 0
4, 125184, Note_on_c, 2, 71, 65
4, 125184, Note_on_c, 2, 64, 65
4, 125184, Note_on_c, 2, 62, 65
4, 125504, Note_off_c, 2, 71, 0
4, 125504, Note_off_c, 2, 64, 0
4, 125504, Note_off_c, 2, 62, 0
4, 125952, Note_on_c, 2, 73, 65
4, 125952, Note_on_c, 2, 64, 65
4, 126272, Note_off_c, 2, 73, 0
4, 126272, Note_off_c, 2, 64, 0
4, 126720, Note_on_c, 2, 75, 65
4, 126720, Note_on_c, 2, 69, 65
4, 127040, Note_off_c, 2, 75, 0
4, 127040, Note_off_c, 2, 69, 0
4, 127488, Note_on_c, 2, 64, 65
4, 127488, Note_on_c, 2, 59, 65
4, 129020, Note_off_c, 2, 64, 0
4, 129024, Note_on_c, 2, 63, 65
4, 130416, Note_off_c, 2, 63, 0
4, 130560, Note_on_c, 2, 64, 65
4, 132092, Note_off_c, 2, 64, 0
4, 132096, Note_on_c, 2, 63, 65
4, 133488, Note_off_c, 2, 63, 0
4, 133488, Note_off_c, 2, 59, 64
4, 133632, Note_on_c, 2, 64, 65
4, 133632, Note_on_c, 2, 59, 65
4, 133952, Note_off_c, 2, 64, 0
4, 133952, Note_off_c, 2, 59, 0
4, 134400, Note_on_c, 2, 66, 65
4, 134400, Note_on_c, 2, 59, 65
4, 134720, Note_off_c, 2, 66, 0
4, 134720, Note_off_c, 2, 59, 0
4, 135168, Note_on_c, 2, 68, 65
4, 135168, Note_on_c, 2, 59, 65
4, 135488, Note_off_c, 2, 68, 0
4, 135488, Note_off_c, 2, 59, 0
4, 135936, Note_on_c, 2, 70, 65
4, 135936, Note_on_c, 2, 64, 65
4, 136256, Note_off_c, 2, 70, 0
4, 136256, Note_off_c, 2, 64, 0
4, 136704, Note_on_c, 2, 63, 65
4, 136704, Note_on_c, 2, 71, 65
4, 138236, Note_off_c, 2, 63, 0
4, 138240, Note_on_c, 2, 64, 65
4, 139004, Note_off_c, 2, 64, 0
4, 139008, Note_on_c, 2, 68, 65
4, 139772, Note_off_c, 2, 71, 64
4, 139776, Note_on_c, 2, 73, 65
4, 140540, Note_off_c, 2, 68, 64
4, 140544, Note_on_c, 2, 61, 65
4, 141308, Note_off_c, 2, 61, 0
4, 141312, Note_on_c, 2, 66, 65
4, 142844, Note_off_c, 2, 73, 64
4, 142848, Note_on_c, 2, 71, 65
4, 143612, Note_off_c, 2, 66, 64
4, 143616, Note_on_c, 2, 59, 65
4, 144380, Note_off_c, 2, 59, 0
4, 144384, Note_on_c, 2, 64, 65
4, 145916, Note_off_c, 2, 71, 64
4, 145920, Note_on_c, 2, 69, 65
4, 146684, Note_off_c, 2, 64, 64
4, 146688, Note_on_c, 2, 57, 65
4, 147452, Note_off_c, 2, 57, 0
4, 147456, Note_on_c, 2, 63, 65
4, 148988, Note_off_c, 2, 63, 0
4, 148988, Note_off_c, 2, 69, 64
4, 148992, Note_on_c, 2, 64, 65
4, 148992, Note_on_c, 2, 68, 65
4, 149616, Note_off_c, 2, 64, 0
4, 149616, Note_off_c, 2, 68, 0
4, 152064, Note_on_c, 2, 68, 65
4, 152064, Note_on_c, 2, 64, 65
4, 152688, Note_off_c, 2, 68, 0
4, 152688, Note_off_c, 2, 64, 0
4, 155136, Note_on_c, 2, 71, 65
4, 155136, Note_on_c, 2, 68, 65
4, 155136, Note_on_c, 2, 64, 65
4, 156528, Note_off_c, 2, 71, 0
4, 156528, Note_off_c, 2, 68, 0
4, 156528, Note_off_c, 2, 64, 0
4, 156672, Note_on_c, 2, 69, 65
4, 156672, Note_on_c, 2, 66, 65
4, 156672, Note_on_c, 2, 61, 65
4, 158064, Note_off_c, 2, 69, 0
4, 158064, Note_off_c, 2, 66, 0
4, 158064, Note_off_c, 2, 61, 0
4, 158208, Note_on_c, 2, 68, 65
4, 158208, Note_on_c, 2, 64, 65
4, 158208, Note_on_c, 2, 59, 65
4, 159600, Note_off_c, 2, 68, 0
4, 159600, Note_off_c, 2, 64, 0
4, 159600, Note_off_c, 2, 59, 0
4, 159744, Note_on_c, 2, 66, 65
4, 159744, Note_on_c, 2, 63, 65
4, 159744, Note_on_c, 2, 59, 65
4, 161136, Note_off_c, 2, 66, 0
4, 161136, Note_off_c, 2, 63, 0
4, 161136, Note_off_c, 2, 59, 0
4, 161280, Note_on_c, 2, 59, 65
4, 161280, Note_on_c, 2, 64, 65
4, 161984, Note_off_c, 2, 59, 0
4, 161984, Note_off_c, 2, 64, 0
4, 162816, Note_on_c, 2, 71, 65
4, 162816, Note_on_c, 2, 67, 65
4, 162816, Note_on_c, 2, 79, 65
4, 163972, Note_off_c, 2, 79, 0
4, 164208, Note_off_c, 2, 71, 0
4, 164208, Note_off_c, 2, 67, 0
4, 164352, Note_on_c, 2, 78, 65
4, 164352, Note_on_c, 2, 71, 65
4, 164592, Note_off_c, 2, 79, 0
4, 164732, Note_off_c, 2, 78, 0
4, 164732, Note_off_c, 2, 71, 0
4, 164736, Note_on_c, 2, 83, 65
4, 164736, Note_on_c, 2, 71, 65
4, 165056, Note_off_c, 2, 83, 0
4, 165056, Note_off_c, 2, 71, 0
4, 165120, Note_on_c, 2, 83, 65
4, 165120, Note_on_c, 2, 71, 65
4, 165280, Note_off_c, 2, 83, 0
4, 165280, Note_off_c, 2, 71, 0
4, 165504, Note_on_c, 2, 83, 65
4, 165504, Note_on_c, 2, 71, 65
4, 165664, Note_off_c, 2, 83, 0
4, 165664, Note_off_c, 2, 71, 0
4, 165888, Note_on_c, 2, 83, 65
4, 166976, Note_off_c, 2, 83, 0
4, 167040, Note_on_c, 2, 81, 65
4, 167120, Note_off_c, 2, 81, 0
4, 167136, Note_on_c, 2, 79, 65
4, 167216, Note_off_c, 2, 79, 0
4, 167232, Note_on_c, 2, 78, 65
4, 167312, Note_off_c, 2, 78, 0
4, 167328, Note_on_c, 2, 76, 65
4, 167408, Note_off_c, 2, 76, 0
4, 167424, Note_on_c, 2, 75, 65
4, 167744, Note_off_c, 2, 75, 0
4, 167808, Note_on_c, 2, 71, 65
4, 168188, Note_off_c, 2, 71, 0
4, 168192, Note_on_c, 2, 70, 65
4, 168572, Note_off_c, 2, 70, 0
4, 168576, Note_on_c, 2, 69, 65
4, 168896, Note_off_c, 2, 69, 0
4, 168960, Note_on_c, 2, 79, 65
4, 168960, Note_on_c, 2, 67, 65
4, 170352, Note_off_c, 2, 79, 0
4, 170352, Note_off_c, 2, 67, 0
4, 170496, Note_on_c, 2, 78, 65
4, 170496, Note_on_c, 2, 66, 65
4, 170816, Note_off_c, 2, 78, 0
4, 170816, Note_off_c, 2, 66, 0
4, 170880, Note_on_c, 2, 84, 65
4, 170880, Note_on_c, 2, 72, 65
4, 171040, Note_off_c, 2, 84, 0
4, 171040, Note_off_c, 2, 72, 0
4, 171264, Note_on_c, 2, 84, 65
4, 171264, Note_on_c, 2, 72, 65
4, 171424, Note_off_c, 2, 84, 0
4, 171424, Note_off_c, 2, 72, 0
4, 171648, Note_on_c, 2, 84, 65
4, 171648, Note_on_c, 2, 72, 65
4, 171808, Note_off_c, 2, 84, 0
4, 171808, Note_off_c, 2, 72, 0
4, 172032, Note_on_c, 2, 76, 65
4, 172032, Note_on_c, 2, 67, 65
4, 173180, Note_off_c, 2, 76, 0
4, 173180, Note_off_c, 2, 67, 0
4, 173184, Note_on_c, 2, 79, 65
4, 173184, Note_on_c, 2, 69, 65
4, 173372, Note_off_c, 2, 79, 0
4, 173376, Note_on_c, 2, 78, 65
4, 173564, Note_off_c, 2, 69, 0
4, 173564, Note_off_c, 2, 78, 0
4, 173568, Note_on_c, 2, 76, 65
4, 173568, Note_on_c, 2, 67, 65
4, 173888, Note_off_c, 2, 76, 0
4, 173888, Note_off_c, 2, 67, 0
4, 175104, Note_on_c, 2, 67, 65
4, 175104, Note_on_c, 2, 64, 65
4, 176636, Note_off_c, 2, 67, 0
4, 176636, Note_off_c, 2, 64, 0
4, 176640, Note_on_c, 2, 69, 65
4, 176640, Note_on_c, 2, 66, 65
4, 178032, Note_off_c, 2, 69, 0
4, 178032, Note_off_c, 2, 66, 0
4, 178176, Note_on_c, 2, 67, 65
4, 178176, Note_on_c, 2, 64, 65
4, 179708, Note_off_c, 2, 67, 0
4, 179708, Note_off_c, 2, 64, 0
4, 179712, Note_on_c, 2, 66, 65
4, 179712, Note_on_c, 2, 63, 65
4, 181104, Note_off_c, 2, 66, 0
4, 181104, Note_off_c, 2, 63, 0
4, 181248, Note_on_c, 2, 72, 65
4, 181248, Note_on_c, 2, 67, 65
4, 181248, Note_on_c, 2, 64, 65
4, 182640, Note_off_c, 2, 72, 0
4, 182640, Note_off_c, 2, 67, 0
4, 182640, Note_off_c, 2, 64, 0
4, 182784, Note_on_c, 2, 72, 65
4, 182784, Note_on_c, 2, 64, 65
4, 182784, Note_on_c, 2, 66, 65
4, 184176, Note_off_c, 2, 72, 0
4, 184176, Note_off_c, 2, 64, 0
4, 184176, Note_off_c, 2, 66, 0
4, 184320, Note_on_c, 2, 72, 65
4, 184320, Note_on_c, 2, 66, 65
4, 184320, Note_on_c, 2, 63, 65
4, 185712, Note_off_c, 2, 72, 0
4, 185712, Note_off_c, 2, 66, 0
4, 185712, Note_off_c, 2, 63, 0
4, 185856, Note_on_c, 2, 84, 65
4, 185856, Note_on_c, 2, 79, 65
4, 185856, Note_on_c, 2, 76, 65
4, 185856, Note_on_c, 2, 72, 65
4, 187248, Note_off_c, 2, 84, 0
4, 187248, Note_off_c, 2, 79, 0
4, 187248, Note_off_c, 2, 76, 0
4, 187248, Note_off_c, 2, 72, 0
4, 187392, Note_on_c, 2, 79, 65
4, 187392, Note_on_c, 2, 83, 65
4, 187392, Note_on_c, 2, 77, 65
4, 187392, Note_on_c, 2, 74, 65
4, 188784, Note_off_c, 2, 79, 0
4, 188784, Note_off_c, 2, 83, 0
4, 188784, Note_off_c, 2, 77, 0
4, 188784, Note_off_c, 2, 74, 0
4, 188928, Note_on_c, 2, 84, 65
4, 188928, Note_on_c, 2, 76, 65
4, 188928, Note_on_c, 2, 72, 65
4, 189856, Note_off_c, 2, 84, 0
4, 189856, Note_off_c, 2, 76, 0
4, 189856, Note_off_c, 2, 72, 0
4, 190080, Note_on_c, 2, 79, 65
4, 190400, Note_off_c, 2, 79, 0
4, 190464, Note_on_c, 2, 83, 65
4, 190464, Note_on_c, 2, 79, 65
4, 190464, Note_on_c, 2, 74, 65
4, 190464, Note_on_c, 2, 77, 65
4, 191856, Note_off_c, 2, 83, 0
4, 191856, Note_off_c, 2, 79, 0
4, 191856, Note_off_c, 2, 74, 0
4, 191856, Note_off_c, 2, 77, 0
4, 192000, Note_on_c, 2, 84, 65
4, 192000, Note_on_c, 2, 79, 65
4, 192000, Note_on_c, 2, 76, 65
4, 192000, Note_on_c, 2, 72, 65
4, 192624, Note_off_c, 2, 84, 0
4, 192624, Note_off_c, 2, 79, 0
4, 192624, Note_off_c, 2, 76, 0
4, 192624, Note_off_c, 2, 72, 0
4, 192768, Note_on_c, 2, 77, 65
4, 192768, Note_on_c, 2, 65, 65
4, 192928, Note_off_c, 2, 77, 0
4, 192928, Note_off_c, 2, 65, 0
4, 193152, Note_on_c, 2, 78, 65
4, 193152, Note_on_c, 2, 66, 65
4, 193312, Note_off_c, 2, 78, 0
4, 193312, Note_off_c, 2, 66, 0
4, 193536, Note_on_c, 2, 79, 65
4, 193536, Note_on_c, 2, 67, 65
4, 193696, Note_off_c, 2, 79, 0
4, 193696, Note_off_c, 2, 67, 0
4, 193920, Note_on_c, 2, 80, 65
4, 193920, Note_on_c, 2, 68, 65
4, 194080, Note_off_c, 2, 80, 0
4, 194080, Note_off_c, 2, 68, 0
4, 194304, Note_on_c, 2, 81, 65
4, 194304, Note_on_c, 2, 69, 65
4, 194464, Note_off_c, 2, 81, 0
4, 194464, Note_off_c, 2, 69, 0
4, 194688, Note_on_c, 2, 82, 65
4, 194688, Note_on_c, 2, 70, 65
4, 194848, Note_off_c, 2, 82, 0
4, 194848, Note_off_c, 2, 70, 0
4, 195072, Note_on_c, 2, 80, 65
4, 195072, Note_on_c, 2, 83, 65
4, 195072, Note_on_c, 2, 71, 65
4, 196992, Note_on_c, 2, 76, 65
4, 196992, Note_on_c, 2, 80, 65
4, 197232, Note_off_c, 2, 80, 64
4, 197232, Note_off_c, 2, 83, 64
4, 197372, Note_off_c, 2, 76, 0
4, 197372, Note_off_c, 2, 80, 0
4, 197376, Note_on_c, 2, 78, 65
4, 197376, Note_on_c, 2, 81, 65
4, 197756, Note_off_c, 2, 78, 0
4, 197756, Note_off_c, 2, 81, 0
4, 197760, Note_on_c, 2, 78, 65
4, 197760, Note_on_c, 2, 75, 65
4, 198000, Note_off_c, 2, 71, 64
4, 198140, Note_off_c, 2, 78, 0
4, 198140, Note_off_c, 2, 75, 0
4, 198144, Note_on_c, 2, 76, 65
4, 198144, Note_on_c, 2, 71, 65
4, 198144, Note_on_c, 2, 68, 65
4, 198768, Note_off_c, 2, 76, 0
4, 198768, Note_off_c, 2, 71, 0
4, 198768, Note_off_c, 2, 68, 0
4, 199680, Note_on_c, 2, 71, 65
4, 199680, Note_on_c, 2, 66, 65
4, 199680, Note_on_c, 2, 59, 65
4, 200304, Note_off_c, 2, 71, 0
4, 200304, Note_off_c, 2, 66, 0
4, 200304, Note_off_c, 2, 59, 0
4, 201216, Note_on_c, 2, 76, 65
4, 201216, Note_on_c, 2, 73, 65
4, 201216, Note_on_c, 2, 68, 65
4, 201840, Note_off_c, 2, 76, 0
4, 201840, Note_off_c, 2, 73, 0
4, 201840, Note_off_c, 2, 68, 0
4, 202752, Note_on_c, 2, 68, 65
4, 202752, Note_on_c, 2, 63, 65
4, 202752, Note_on_c, 2, 56, 65
4, 203376, Note_off_c, 2, 68, 0
4, 203376, Note_off_c, 2, 63, 0
4, 203376, Note_off_c, 2, 56, 0
4, 204288, Note_on_c, 2, 73, 65
4, 204288, Note_on_c, 2, 69, 65
4, 204288, Note_on_c, 2, 64, 65
4, 204912, Note_off_c, 2, 73, 0
4, 204912, Note_off_c, 2, 69, 0
4, 204912, Note_off_c, 2, 64, 0
4, 207360, Note_on_c, 2, 76, 65
4, 209216, Note_off_c, 2, 76, 64
4, 210048, Note_on_c, 2, 70, 65
4, 210368, Note_off_c, 2, 70, 0
4, 210432, Note_on_c, 2, 81, 65
4, 210432, Note_on_c, 2, 69, 65
4, 212592, Note_off_c, 2, 81, 64
4, 212592, Note_off_c, 2, 69, 64
4, 212736, Note_on_c, 2, 75, 65
4, 212736, Note_on_c, 2, 63, 65
4, 213056, Note_off_c, 2, 75, 0
4, 213056, Note_off_c, 2, 63, 0
4, 213504, Note_on_c, 2, 86, 65
4, 213504, Note_on_c, 2, 74, 65
4, 215664, Note_off_c, 2, 86, 64
4, 215664, Note_off_c, 2, 74, 64
4, 215808, Note_on_c, 2, 80, 65
4, 215808, Note_on_c, 2, 68, 65
4, 216128, Note_off_c, 2, 80, 0
4, 216128, Note_off_c, 2, 68, 0
4, 216576, Note_on_c, 2, 85, 65
4, 216576, Note_on_c, 2, 69, 65
4, 217148, Note_off_c, 2, 85, 0
4, 217148, Note_off_c, 2, 69, 0
4, 217152, Note_on_c, 2, 83, 65
4, 217152, Note_on_c, 2, 68, 65
4, 217312, Note_off_c, 2, 83, 0
4, 217312, Note_off_c, 2, 68, 0
4, 217344, Note_on_c, 2, 81, 65
4, 217344, Note_on_c, 2, 66, 65
4, 217916, Note_off_c, 2, 81, 0
4, 217916, Note_off_c, 2, 66, 0
4, 217920, Note_on_c, 2, 80, 65
4, 217920, Note_on_c, 2, 64, 65
4, 218080, Note_off_c, 2, 80, 0
4, 218080, Note_off_c, 2, 64, 0
4, 218112, Note_on_c, 2, 78, 65
4, 218112, Note_on_c, 2, 63, 65
4, 218684, Note_off_c, 2, 78, 0
4, 218684, Note_off_c, 2, 63, 0
4, 218688, Note_on_c, 2, 76, 65
4, 218688, Note_on_c, 2, 61, 65
4, 218848, Note_off_c, 2, 76, 0
4, 218848, Note_off_c, 2, 61, 0
4, 218880, Note_on_c, 2, 75, 65
4, 218880, Note_on_c, 2, 59, 65
4, 219452, Note_off_c, 2, 75, 0
4, 219452, Note_off_c, 2, 59, 0
4, 219456, Note_on_c, 2, 73, 65
4, 219456, Note_on_c, 2, 57, 65
4, 219616, Note_off_c, 2, 73, 0
4, 219616, Note_off_c, 2, 57, 0
4, 219648, Note_on_c, 2, 71, 65
4, 220220, Note_off_c, 2, 71, 0
4, 220224, Note_on_c, 2, 69, 65
4, 220384, Note_off_c, 2, 69, 0
4, 220416, Note_on_c, 2, 68, 65
4, 220988, Note_off_c, 2, 68, 0
4, 220992, Note_on_c, 2, 66, 65
4, 221152, Note_off_c, 2, 66, 0
4, 221184, Note_on_c, 2, 64, 65
4, 221756, Note_off_c, 2, 64, 0
4, 221760, Note_on_c, 2, 63, 65
4, 221920, Note_off_c, 2, 63, 0
4, 221952, Note_on_c, 2, 61, 65
4, 222524, Note_off_c, 2, 61, 0
4, 222528, Note_on_c, 2, 59, 65
4, 222688, Note_off_c, 2, 59, 0
4, 222720, Note_on_c, 2, 69, 65
4, 222720, Note_on_c, 2, 63, 65
4, 222720, Note_on_c, 2, 57, 65
4, 224112, Note_off_c, 2, 69, 0
4, 224112, Note_off_c, 2, 63, 0
4, 224112, Note_off_c, 2, 57, 0
4, 224256, Note_on_c, 2, 68, 65
4, 224256, Note_on_c, 2, 64, 65
4, 224256, Note_on_c, 2, 59, 65
4, 225648, Note_off_c, 2, 68, 0
4, 225648, Note_off_c, 2, 64, 0
4, 225648, Note_off_c, 2, 59, 0
4, 225792, Note_on_c, 2, 78, 65
4, 225792, Note_on_c, 2, 73, 65
4, 225792, Note_on_c, 2, 66, 65
4, 227184, Note_off_c, 2, 78, 0
4, 227184, Note_off_c, 2, 73, 0
4, 227184, Note_off_c, 2, 66, 0
4, 227328, Note_on_c, 2, 64, 65
4, 227328, Note_on_c, 2, 61, 65
4, 227328, Note_on_c, 2, 66, 65
4, 228720, Note_off_c, 2, 64, 0
4, 228720, Note_off_c, 2, 61, 0
4, 228720, Note_off_c, 2, 66, 0
4, 228864, Note_on_c, 2, 68, 65
4, 228864, Note_on_c, 2, 64, 65
4, 228864, Note_on_c, 2, 59, 65
4, 229184, Note_off_c, 2, 68, 0
4, 229184, Note_off_c, 2, 64, 0
4, 229184, Note_off_c, 2, 59, 0
4, 229248, Note_on_c, 2, 68, 65
4, 229248, Note_on_c, 2, 64, 65
4, 229248, Note_on_c, 2, 59, 65
4, 229568, Note_off_c, 2, 68, 0
4, 229568, Note_off_c, 2, 64, 0
4, 229568, Note_off_c, 2, 59, 0
4, 229632, Note_on_c, 2, 68, 65
4, 229632, Note_on_c, 2, 64, 65
4, 229632, Note_on_c, 2, 59, 65
4, 229952, Note_off_c, 2, 68, 0
4, 229952, Note_off_c, 2, 64, 0
4, 229952, Note_off_c, 2, 59, 0
4, 230016, Note_on_c, 2, 68, 65
4, 230016, Note_on_c, 2, 64, 65
4, 230016, Note_on_c, 2, 59, 65
4, 230336, Note_off_c, 2, 68, 0
4, 230336, Note_off_c, 2, 64, 0
4, 230336, Note_off_c, 2, 59, 0
4, 230400, Note_on_c, 2, 66, 65
4, 230400, Note_on_c, 2, 63, 65
4, 230400, Note_on_c, 2, 59, 65
4, 230400, Note_on_c, 2, 57, 65
4, 230720, Note_off_c, 2, 66, 0
4, 230720, Note_off_c, 2, 63, 0
4, 230720, Note_off_c, 2, 59, 0
4, 230720, Note_off_c, 2, 57, 0
4, 230784, Note_on_c, 2, 66, 65
4, 230784, Note_on_c, 2, 63, 65
4, 230784, Note_on_c, 2, 59, 65
4, 230784, Note_on_c, 2, 57, 65
4, 231104, Note_off_c, 2, 66, 0
4, 231104, Note_off_c, 2, 63, 0
4, 231104, Note_off_c, 2, 59, 0
4, 231104, Note_off_c, 2, 57, 0
4, 231168, Note_on_c, 2, 66, 65
4, 231168, Note_on_c, 2, 63, 65
4, 231168, Note_on_c, 2, 59, 65
4, 231168, Note_on_c, 2, 57, 65
4, 231488, Note_off_c, 2, 66, 0
4, 231488, Note_off_c, 2, 63, 0
4, 231488, Note_off_c, 2, 59, 0
4, 231488, Note_off_c, 2, 57, 0
4, 231552, Note_on_c, 2, 66, 65
4, 231552, Note_on_c, 2, 63, 65
4, 231552, Note_on_c, 2, 59, 65
4, 231552, Note_on_c, 2, 57, 65
4, 231872, Note_off_c, 2, 66, 0
4, 231872, Note_off_c, 2, 63, 0
4, 231872, Note_off_c, 2, 59, 0
4, 231872, Note_off_c, 2, 57, 0
4, 232704, Note_on_c, 2, 76, 65
4, 232704, Note_on_c, 2, 80, 65
4, 232704, Note_on_c, 2, 71, 65
4, 233328, Note_off_c, 2, 76, 0
4, 233328, Note_off_c, 2, 80, 0
4, 233328, Note_off_c, 2, 71, 0
4, 233472, Note_on_c, 2, 71, 65
4, 234240, Note_on_c, 2, 83, 65
4, 234240, Note_on_c, 2, 78, 65
4, 234240, Note_on_c, 2, 75, 65
4, 234864, Note_off_c, 2, 71, 0
4, 234864, Note_off_c, 2, 83, 0
4, 234864, Note_off_c, 2, 78, 0
4, 234864, Note_off_c, 2, 75, 0
4, 235008, Note_on_c, 2, 76, 65
4, 235776, Note_on_c, 2, 80, 65
4, 235776, Note_on_c, 2, 85, 65
4, 235776, Note_on_c, 2, 88, 65
4, 236400, Note_off_c, 2, 76, 0
4, 236400, Note_off_c, 2, 80, 0
4, 236400, Note_off_c, 2, 85, 0
4, 236400, Note_off_c, 2, 88, 0
4, 236544, Note_on_c, 2, 68, 65
4, 237312, Note_on_c, 2, 75, 65
4, 237312, Note_on_c, 2, 80, 65
4, 237936, Note_off_c, 2, 68, 0
4, 237936, Note_off_c, 2, 75, 0
4, 237936, Note_off_c, 2, 80, 0
4, 238080, Note_on_c, 2, 73, 65
4, 238848, Note_on_c, 2, 81, 65
4, 238848, Note_on_c, 2, 85, 65
4, 238848, Note_on_c, 2, 76, 65
4, 239472, Note_off_c, 2, 73, 0
4, 239472, Note_off_c, 2, 81, 0
4, 239472, Note_off_c, 2, 85, 0
4, 239472, Note_off_c, 2, 76, 0
4, 239616, Note_on_c, 2, 64, 65
4, 240384, Note_on_c, 2, 76, 65
4, 240384, Note_on_c, 2, 71, 65
4, 241008, Note_off_c, 2, 64, 0
4, 241008, Note_off_c, 2, 76, 0
4, 241008, Note_off_c, 2, 71, 0
4, 241152, Note_on_c, 2, 76, 65
4, 243260, Note_off_c, 2, 76, 64
4, 243264, Note_on_c, 2, 74, 75
4, 243312, Note_off_c, 2, 74, 64
4, 243328, Note_on_c, 2, 73, 75
4, 243376, Note_off_c, 2, 73, 64
4, 243392, Note_on_c, 2, 71, 75
4, 243440, Note_off_c, 2, 71, 64
4, 243456, Note_on_c, 2, 70, 65
4, 243776, Note_off_c, 2, 70, 64
4, 244224, Note_on_c, 2, 69, 65
4, 244224, Note_on_c, 2, 81, 65
4, 246332, Note_off_c, 2, 69, 64
4, 246332, Note_off_c, 2, 81, 64
4, 246336, Note_on_c, 2, 79, 75
4, 246336, Note_on_c, 2, 67, 75
4, 246384, Note_off_c, 2, 79, 64
4, 246384, Note_off_c, 2, 67, 64
4, 246400, Note_on_c, 2, 78, 75
4, 246400, Note_on_c, 2, 66, 75
4, 246448, Note_off_c, 2, 78, 64
4, 246448, Note_off_c, 2, 66, 64
4, 246464, Note_on_c, 2, 76, 75
4, 246464, Note_on_c, 2, 64, 75
4, 246512, Note_off_c, 2, 76, 64
4, 246512, Note_off_c, 2, 64, 64
4, 246528, Note_on_c, 2, 75, 65
4, 246528, Note_on_c, 2, 63, 65
4, 246848, Note_off_c, 2, 75, 0
4, 246848, Note_off_c, 2, 63, 0
4, 247296, Note_on_c, 2, 86, 65
4, 247296, Note_on_c, 2, 74, 65
4, 249404, Note_off_c, 2, 86, 64
4, 249404, Note_off_c, 2, 74, 64
4, 249408, Note_on_c, 2, 84, 75
4, 249408, Note_on_c, 2, 72, 75
4, 249456, Note_off_c, 2, 84, 64
4, 249456, Note_off_c, 2, 72, 64
4, 249472, Note_on_c, 2, 83, 75
4, 249472, Note_on_c, 2, 71, 75
4, 249520, Note_off_c, 2, 83, 64
4, 249520, Note_off_c, 2, 71, 64
4, 249536, Note_on_c, 2, 81, 75
4, 249536, Note_on_c, 2, 69, 75
4, 249584, Note_off_c, 2, 81, 64
4, 249584, Note_off_c, 2, 69, 64
4, 249600, Note_on_c, 2, 80, 65
4, 249600, Note_on_c, 2, 68, 65
4, 249920, Note_off_c, 2, 80, 0
4, 249920, Note_off_c, 2, 68, 0
4, 250368, Note_on_c, 2, 85, 65
4, 250368, Note_on_c, 2, 69, 65
4, 250528, Note_off_c, 2, 85, 0
4, 250528, Note_off_c, 2, 69, 0
4, 250752, Note_on_c, 2, 83, 65
4, 250752, Note_on_c, 2, 68, 65
4, 250912, Note_off_c, 2, 83, 0
4, 250912, Note_off_c, 2, 68, 0
4, 251136, Note_on_c, 2, 81, 65
4, 251136, Note_on_c, 2, 66, 65
4, 251296, Note_off_c, 2, 81, 0
4, 251296, Note_off_c, 2, 66, 0
4, 251520, Note_on_c, 2, 80, 65
4, 251520, Note_on_c, 2, 64, 65
4, 251680, Note_off_c, 2, 80, 0
4, 251680, Note_off_c, 2, 64, 0
4, 251904, Note_on_c, 2, 78, 65
4, 251904, Note_on_c, 2, 63, 65
4, 252064, Note_off_c, 2, 78, 0
4, 252064, Note_off_c, 2, 63, 0
4, 252288, Note_on_c, 2, 76, 65
4, 252288, Note_on_c, 2, 61, 65
4, 252448, Note_off_c, 2, 76, 0
4, 252448, Note_off_c, 2, 61, 0
4, 252672, Note_on_c, 2, 75, 65
4, 252672, Note_on_c, 2, 59, 65
4, 252832, Note_off_c, 2, 75, 0
4, 252832, Note_off_c, 2, 59, 0
4, 253056, Note_on_c, 2, 73, 65
4, 253056, Note_on_c, 2, 57, 65
4, 253216, Note_off_c, 2, 73, 0
4, 253216, Note_off_c, 2, 57, 0
4, 253440, Note_on_c, 2, 71, 65
4, 253600, Note_off_c, 2, 71, 0
4, 253824, Note_on_c, 2, 69, 65
4, 253984, Note_off_c, 2, 69, 0
4, 254208, Note_on_c, 2, 68, 65
4, 254368, Note_off_c, 2, 68, 0
4, 254592, Note_on_c, 2, 66, 65
4, 254752, Note_off_c, 2, 66, 0
4, 254976, Note_on_c, 2, 64, 65
4, 255136, Note_off_c, 2, 64, 0
4, 255360, Note_on_c, 2, 62, 65
4, 255520, Note_off_c, 2, 62, 0
4, 255744, Note_on_c, 2, 61, 65
4, 255904, Note_off_c, 2, 61, 0
4, 256128, Note_on_c, 2, 59, 65
4, 256288, Note_off_c, 2, 59, 0
4, 256512, Note_on_c, 2, 81, 65
4, 256512, Note_on_c, 2, 75, 65
4, 256512, Note_on_c, 2, 69, 65
4, 257904, Note_off_c, 2, 81, 0
4, 257904, Note_off_c, 2, 75, 0
4, 257904, Note_off_c, 2, 69, 0
4, 258048, Note_on_c, 2, 80, 65
4, 258048, Note_on_c, 2, 77, 65
4, 258048, Note_on_c, 2, 71, 65
4, 259440, Note_off_c, 2, 80, 0
4, 259440, Note_off_c, 2, 77, 0
4, 259440, Note_off_c, 2, 71, 0
4, 259584, Note_on_c, 2, 78, 65
4, 259584, Note_on_c, 2, 73, 65
4, 260976, Note_off_c, 2, 78, 0
4, 260976, Note_off_c, 2, 73, 0
4, 261120, Note_on_c, 2, 79, 65
4, 261120, Note_on_c, 2, 76, 65
4, 261120, Note_on_c, 2, 73, 65
4, 262512, Note_off_c, 2, 79, 0
4, 262512, Note_off_c, 2, 76, 0
4, 262512, Note_off_c, 2, 73, 0
4, 262656, Note_on_c, 2, 80, 65
4, 262656, Note_on_c, 2, 76, 65
4, 262656, Note_on_c, 2, 71, 65
4, 262976, Note_off_c, 2, 80, 0
4, 262976, Note_off_c, 2, 76, 0
4, 265584, Note_off_c, 2, 71, 64
4, 265728, Note_on_c, 2, 71, 65
4, 268656, Note_off_c, 2, 71, 64
4, 270336, Note_on_c, 2, 81, 65
4, 270336, Note_on_c, 2, 78, 65
4, 270336, Note_on_c, 2, 71, 65
4, 270656, Note_off_c, 2, 81, 0
4, 270656, Note_off_c, 2, 78, 0
4, 270656, Note_off_c, 2, 71, 0
4, 271872, Note_on_c, 2, 80, 65
4, 271872, Note_on_c, 2, 76, 65
4, 271872, Note_on_c, 2, 71, 65
4, 272192, Note_off_c, 2, 80, 0
4, 272192, Note_off_c, 2, 76, 0
4, 272192, Note_off_c, 2, 71, 64
4, 273408, Note_on_c, 2, 78, 65
4, 273408, Note_on_c, 2, 75, 65
4, 273408, Note_on_c, 2, 69, 65
4, 273728, Note_off_c, 2, 78, 0
4, 273728, Note_off_c, 2, 75, 0
4, 273728, Note_off_c, 2, 69, 0
4, 274944, Note_on_c, 2, 76, 65
4, 274944, Note_on_c, 2, 71, 65
4, 274944, Note_on_c, 2, 68, 65
4, 275264, Note_off_c, 2, 76, 0
4, 275264, Note_off_c, 2, 71, 0
4, 275264, Note_off_c, 2, 68, 0
4, 276480, Note_on_c, 2, 75, 65
4, 276480, Note_on_c, 2, 69, 65
4, 276480, Note_on_c, 2, 66, 65
4, 276800, Note_off_c, 2, 75, 0
4, 276800, Note_off_c, 2, 69, 0
4, 276800, Note_off_c, 2, 66, 0
4, 278016, Note_on_c, 2, 76, 65
4, 278016, Note_on_c, 2, 71, 65
4, 278016, Note_on_c, 2, 68, 65
4, 278336, Note_off_c, 2, 76, 0
4, 278336, Note_off_c, 2, 71, 0
4, 278336, Note_off_c, 2, 68, 0
4, 279552, Note_on_c, 2, 71, 80
4, 280700, Note_off_c, 2, 71, 0
4, 280704, Note_on_c, 2, 73, 65
4, 280892, Note_off_c, 2, 73, 0
4, 280896, Note_on_c, 2, 75, 65
4, 281084, Note_off_c, 2, 75, 0
4, 281088, Note_on_c, 2, 76, 80
4, 281088, Note_on_c, 2, 64, 80
4, 281248, Note_off_c, 2, 76, 0
4, 281248, Note_off_c, 2, 64, 0
4, 281472, Note_on_c, 2, 76, 65
4, 281472, Note_on_c, 2, 64, 65
4, 281632, Note_off_c, 2, 76, 0
4, 281632, Note_off_c, 2, 64, 0
4, 281856, Note_on_c, 2, 76, 65
4, 281856, Note_on_c, 2, 64, 65
4, 282044, Note_off_c, 2, 76, 0
4, 282044, Note_off_c, 2, 64, 0
4, 282048, Note_on_c, 2, 78, 65
4, 282048, Note_on_c, 2, 66, 65
4, 282236, Note_off_c, 2, 78, 0
4, 282236, Note_off_c, 2, 66, 0
4, 282240, Note_on_c, 2, 80, 65
4, 282240, Note_on_c, 2, 68, 65
4, 282428, Note_off_c, 2, 80, 0
4, 282428, Note_off_c, 2, 68, 0
4, 282432, Note_on_c, 2, 81, 65
4, 282432, Note_on_c, 2, 69, 65
4, 282620, Note_off_c, 2, 81, 0
4, 282620, Note_off_c, 2, 69, 0
4, 282624, Note_on_c, 2, 83, 80
4, 282624, Note_on_c, 2, 71, 80
4, 282784, Note_off_c, 2, 83, 0
4, 282784, Note_off_c, 2, 71, 0
4, 283008, Note_on_c, 2, 83, 65
4, 283008, Note_on_c, 2, 71, 65
4, 283168, Note_off_c, 2, 83, 0
4, 283168, Note_off_c, 2, 71, 0
4, 283392, Note_on_c, 2, 83, 65
4, 283392, Note_on_c, 2, 71, 65
4, 283772, Note_off_c, 2, 83, 0
4, 283772, Note_off_c, 2, 71, 0
4, 283776, Note_on_c, 2, 85, 65
4, 283776, Note_on_c, 2, 73, 65
4, 283964, Note_off_c, 2, 85, 0
4, 283964, Note_off_c, 2, 73, 0
4, 283968, Note_on_c, 2, 87, 65
4, 283968, Note_on_c, 2, 75, 65
4, 284156, Note_off_c, 2, 87, 0
4, 284156, Note_off_c, 2, 75, 0
4, 284160, Note_on_c, 2, 88, 80
4, 284160, Note_on_c, 2, 76, 80
4, 284320, Note_off_c, 2, 88, 0
4, 284320, Note_off_c, 2, 76, 0
4, 284544, Note_on_c, 2, 88, 65
4, 284544, Note_on_c, 2, 76, 65
4, 284704, Note_off_c, 2, 88, 0
4, 284704, Note_off_c, 2, 76, 0
4, 284928, Note_on_c, 2, 88, 65
4, 284928, Note_on_c, 2, 76, 65
4, 285308, Note_off_c, 2, 88, 0
4, 285308, Note_off_c, 2, 76, 0
4, 285312, Note_on_c, 2, 87, 65
4, 285312, Note_on_c, 2, 75, 65
4, 285500, Note_off_c, 2, 87, 0
4, 285500, Note_off_c, 2, 75, 0
4, 285504, Note_on_c, 2, 85, 65
4, 285504, Note_on_c, 2, 73, 65
4, 285692, Note_off_c, 2, 85, 0
4, 285692, Note_off_c, 2, 73, 0
4, 285696, Note_on_c, 2, 83, 80
4, 285696, Note_on_c, 2, 71, 80
4, 285856, Note_off_c, 2, 83, 0
4, 285856, Note_off_c, 2, 71, 0
4, 286080, Note_on_c, 2, 83, 65
4, 286080, Note_on_c, 2, 71, 65
4, 286240, Note_off_c, 2, 83, 0
4, 286240, Note_off_c, 2, 71, 0
4, 286464, Note_on_c, 2, 83, 65
4, 286464, Note_on_c, 2, 71, 65
4, 286652, Note_off_c, 2, 83, 0
4, 286652, Note_off_c, 2, 71, 0
4, 286656, Note_on_c, 2, 81, 65
4, 286656, Note_on_c, 2, 69, 65
4, 286844, Note_off_c, 2, 81, 0
4, 286844, Note_off_c, 2, 69, 0
4, 286848, Note_on_c, 2, 80, 65
4, 286848, Note_on_c, 2, 68, 65
4, 287036, Note_off_c, 2, 80, 0
4, 287036, Note_off_c, 2, 68, 0
4, 287040, Note_on_c, 2, 78, 65
4, 287040, Note_on_c, 2, 66, 65
4, 287228, Note_off_c, 2, 78, 0
4, 287228, Note_off_c, 2, 66, 0
4, 287232, Note_on_c, 2, 76, 80
4, 287232, Note_on_c, 2, 64, 80
4, 287552, Note_off_c, 2, 76, 0
4, 287552, Note_off_c, 2, 64, 0
4, 289920, Note_on_c, 2, 75, 65
4, 289920, Note_on_c, 2, 66, 65
4, 290300, Note_off_c, 2, 75, 0
4, 290300, Note_off_c, 2, 66, 0
4, 290304, Note_on_c, 2, 76, 65
4, 290304, Note_on_c, 2, 64, 65
4, 290928, Note_off_c, 2, 76, 0
4, 290928, Note_off_c, 2, 64, 0
4, 292992, Note_on_c, 2, 75, 65
4, 292992, Note_on_c, 2, 66, 65
4, 293372, Note_off_c, 2, 75, 0
4, 293372, Note_off_c, 2, 66, 64
4, 293376, Note_on_c, 2, 76, 65
4, 293376, Note_on_c, 2, 64, 65
4, 294000, Note_off_c, 2, 76, 0
4, 294000, Note_off_c, 2, 64, 0
4, 294528, Note_on_c, 2, 75, 65
4, 294528, Note_on_c, 2, 66, 65
4, 294908, Note_off_c, 2, 75, 0
4, 294908, Note_off_c, 2, 66, 0
4, 294912, Note_on_c, 2, 76, 65
4, 294912, Note_on_c, 2, 64, 65
4, 295536, Note_off_c, 2, 76, 0
4, 295536, Note_off_c, 2, 64, 0
4, 296064, Note_on_c, 2, 75, 65
4, 296064, Note_on_c, 2, 66, 65
4, 296444, Note_off_c, 2, 75, 0
4, 296444, Note_off_c, 2, 66, 0
4, 296448, Note_on_c, 2, 76, 65
4, 296448, Note_on_c, 2, 64, 65
4, 296768, Note_off_c, 2, 76, 0
4, 296768, Note_off_c, 2, 64, 0
4, 296832, Note_on_c, 2, 88, 65
4, 296832, Note_on_c, 2, 76, 65
4, 296832, Note_on_c, 2, 80, 65
4, 296832, Note_on_c, 2, 71, 65
4, 296832, Note_on_c, 2, 64, 65
4, 296992, Note_off_c, 2, 88, 0
4, 296992, Note_off_c, 2, 76, 0
4, 296992, Note_off_c, 2, 80, 0
4, 296992, Note_off_c, 2, 71, 0
4, 296992, Note_off_c, 2, 64, 0
4, 297216, Note_on_c, 2, 88, 65
4, 297216, Note_on_c, 2, 80, 65
4, 297216, Note_on_c, 2, 76, 65
4, 297216, Note_on_c, 2, 71, 65
4, 297216, Note_on_c, 2, 64, 65
4, 297376, Note_off_c, 2, 88, 0
4, 297376, Note_off_c, 2, 80, 0
4, 297376, Note_off_c, 2, 76, 0
4, 297376, Note_off_c, 2, 71, 0
4, 297376, Note_off_c, 2, 64, 0
4, 299904, Note_on_c, 2, 76, 65
4, 299904, Note_on_c, 2, 71, 65
4, 299904, Note_on_c, 2, 68, 65
4, 300284, Note_off_c, 2, 76, 0
4, 300284, Note_off_c, 2, 71, 0
4, 300284, Note_off_c, 2, 68, 0
4, 300288, Note_on_c, 2, 76, 65
4, 300288, Note_on_c, 2, 71, 65
4, 300288, Note_on_c, 2, 68, 65
4, 300668, Note_off_c, 2, 76, 0
4, 300668, Note_off_c, 2, 71, 0
4, 300668, Note_off_c, 2, 68, 0
4, 302976, Note_on_c, 2, 59, 65
4, 302976, Note_on_c, 2, 56, 65
4, 303136, Note_off_c, 2, 59, 0
4, 303136, Note_off_c, 2, 56, 0
4, 303360, Note_on_c, 2, 59, 65
4, 303360, Note_on_c, 2, 56, 65
4, 303520, Note_off_c, 2, 59, 0
4, 303520, Note_off_c, 2, 56, 0
4, 304128, Note_on_c, 2, 88, 65
4, 304512, Note_on_c, 2, 76, 65
4, 304512, Note_on_c, 2, 80, 65
4, 304672, Note_off_c, 2, 76, 0
4, 304672, Note_off_c, 2, 80, 0
4, 304896, Note_on_c, 2, 76, 65
4, 304896, Note_on_c, 2, 80, 65
4, 305056, Note_off_c, 2, 76, 0
4, 305056, Note_off_c, 2, 80, 0
4, 306048, Note_on_c, 2, 78, 65
4, 306048, Note_on_c, 2, 81, 65
4, 306208, Note_off_c, 2, 78, 0
4, 306208, Note_off_c, 2, 81, 0
4, 306432, Note_on_c, 2, 78, 65
4, 306432, Note_on_c, 2, 81, 65
4, 306592, Note_off_c, 2, 78, 0
4, 306592, Note_off_c, 2, 81, 0
4, 307056, Note_off_c, 2, 88, 64
4, 307200, Note_on_c, 2, 88, 65
4, 307584, Note_on_c, 2, 76, 65
4, 307584, Note_on_c, 2, 80, 65
4, 307744, Note_off_c, 2, 76, 0
4, 307744, Note_off_c, 2, 80, 0
4, 307968, Note_on_c, 2, 76, 65
4, 307968, Note_on_c, 2, 80, 65
4, 308128, Note_off_c, 2, 76, 0
4, 308128, Note_off_c, 2, 80, 0
4, 308352, Note_on_c, 2, 76, 65
4, 308352, Note_on_c, 2, 80, 65
4, 308512, Note_off_c, 2, 76, 0
4, 308512, Note_off_c, 2, 80, 0
4, 308592, Note_off_c, 2, 88, 0
4, 308736, Note_on_c, 2, 88, 65
4, 309120, Note_on_c, 2, 76, 65
4, 309120, Note_on_c, 2, 81, 65
4, 309280, Note_off_c, 2, 76, 0
4, 309280, Note_off_c, 2, 81, 0
4, 309500, Note_off_c, 2, 88, 0
4, 309504, Note_on_c, 2, 86, 65
4, 309888, Note_on_c, 2, 76, 65
4, 309888, Note_on_c, 2, 80, 65
4, 310048, Note_off_c, 2, 76, 0
4, 310048, Note_off_c, 2, 80, 0
4, 310268, Note_off_c, 2, 86, 0
4, 310272, Note_on_c, 2, 85, 65
4, 310272, Note_on_c, 2, 81, 65
4, 310272, Note_on_c, 2, 76, 65
4, 310592, Note_off_c, 2, 85, 0
4, 310592, Note_off_c, 2, 81, 0
4, 310592, Note_off_c, 2, 76, 0
4, 322560, Note_on_c, 2, 76, 85
4, 322880, Note_off_c, 2, 76, 0
4, 323328, Note_on_c, 2, 69, 85
4, 323648, Note_off_c, 2, 69, 0
4, 324096, Note_on_c, 2, 81, 85
4, 324096, Note_on_c, 2, 78, 85
4, 324096, Note_on_c, 2, 74, 85
4, 324096, Note_on_c, 2, 69, 85
4, 325024, Note_off_c, 2, 81, 0
4, 325024, Note_off_c, 2, 78, 0
4, 325024, Note_off_c, 2, 74, 0
4, 325024, Note_off_c, 2, 69, 0
4, 325248, Note_on_c, 2, 80, 85
4, 325328, Note_off_c, 2, 80, 0
4, 325440, Note_on_c, 2, 78, 85
4, 325520, Note_off_c, 2, 78, 0
4, 325632, Note_on_c, 2, 78, 85
4, 325820, Note_off_c, 2, 78, 0
4, 325824, Note_on_c, 2, 76, 85
4, 325984, Note_off_c, 2, 76, 0
4, 326016, Note_on_c, 2, 74, 85
4, 326096, Note_off_c, 2, 74, 0
4, 326208, Note_on_c, 2, 73, 85
4, 326288, Note_off_c, 2, 73, 0
4, 326400, Note_on_c, 2, 74, 85
4, 326588, Note_off_c, 2, 74, 0
4, 326592, Note_on_c, 2, 71, 85
4, 326752, Note_off_c, 2, 71, 0
4, 326784, Note_on_c, 2, 73, 85
4, 326864, Note_off_c, 2, 73, 0
4, 326976, Note_on_c, 2, 69, 85
4, 327056, Note_off_c, 2, 69, 0
4, 327168, Note_on_c, 2, 71, 85
4, 327356, Note_off_c, 2, 71, 0
4, 327360, Note_on_c, 2, 76, 85
4, 327520, Note_off_c, 2, 76, 0
4, 327552, Note_on_c, 2, 75, 85
4, 327740, Note_off_c, 2, 75, 0
4, 327744, Note_on_c, 2, 76, 85
4, 327904, Note_off_c, 2, 76, 0
4, 327936, Note_on_c, 2, 75, 85
4, 328124, Note_off_c, 2, 75, 0
4, 328128, Note_on_c, 2, 76, 85
4, 328288, Note_off_c, 2, 76, 0
4, 328320, Note_on_c, 2, 78, 85
4, 328508, Note_off_c, 2, 78, 0
4, 328512, Note_on_c, 2, 76, 85
4, 328672, Note_off_c, 2, 76, 0
4, 328704, Note_on_c, 2, 76, 85
4, 328864, Note_off_c, 2, 76, 0
4, 329472, Note_on_c, 2, 69, 85
4, 329632, Note_off_c, 2, 69, 0
4, 330240, Note_on_c, 2, 81, 85
4, 330240, Note_on_c, 2, 69, 85
4, 330400, Note_off_c, 2, 81, 0
4, 330400, Note_off_c, 2, 69, 0
4, 330624, Note_on_c, 2, 78, 95
4, 330624, Note_on_c, 2, 74, 95
4, 330624, Note_on_c, 2, 81, 95
4, 330624, Note_on_c, 2, 69, 95
4, 331248, Note_off_c, 2, 78, 0
4, 331248, Note_off_c, 2, 74, 0
4, 331248, Note_off_c, 2, 81, 0
4, 331248, Note_off_c, 2, 69, 0
4, 331392, Note_on_c, 2, 80, 85
4, 331580, Note_off_c, 2, 80, 0
4, 331584, Note_on_c, 2, 78, 85
4, 331772, Note_off_c, 2, 78, 0
4, 331776, Note_on_c, 2, 76, 85
4, 331936, Note_off_c, 2, 76, 0
4, 332544, Note_on_c, 2, 69, 85
4, 332704, Note_off_c, 2, 69, 0
4, 333312, Note_on_c, 2, 79, 85
4, 333312, Note_on_c, 2, 76, 85
4, 333312, Note_on_c, 2, 73, 85
4, 333312, Note_on_c, 2, 67, 85
4, 334460, Note_off_c, 2, 79, 0
4, 334460, Note_off_c, 2, 76, 0
4, 334460, Note_off_c, 2, 73, 0
4, 334460, Note_off_c, 2, 67, 0
4, 334464, Note_on_c, 2, 78, 85
4, 334652, Note_off_c, 2, 78, 0
4, 334656, Note_on_c, 2, 76, 85
4, 334816, Note_off_c, 2, 76, 0
4, 334848, Note_on_c, 2, 75, 85
4, 335168, Note_off_c, 2, 75, 0
4, 335616, Note_on_c, 2, 71, 85
4, 335936, Note_off_c, 2, 71, 0
4, 336384, Note_on_c, 2, 83, 85
4, 336384, Note_on_c, 2, 71, 85
4, 336544, Note_off_c, 2, 83, 0
4, 336544, Note_off_c, 2, 71, 0
4, 336768, Note_on_c, 2, 83, 95
4, 336768, Note_on_c, 2, 79, 95
4, 336768, Note_on_c, 2, 76, 95
4, 336768, Note_on_c, 2, 71, 95
4, 337392, Note_off_c, 2, 83, 0
4, 337392, Note_off_c, 2, 79, 0
4, 337392, Note_off_c, 2, 76, 0
4, 337392, Note_off_c, 2, 71, 0
4, 337536, Note_on_c, 2, 81, 85
4, 337724, Note_off_c, 2, 81, 0
4, 337728, Note_on_c, 2, 79, 85
4, 337916, Note_off_c, 2, 79, 0
4, 337920, Note_on_c, 2, 78, 85
4, 338240, Note_off_c, 2, 78, 0
4, 338688, Note_on_c, 2, 71, 85
4, 339008, Note_off_c, 2, 71, 0
4, 339456, Note_on_c, 2, 81, 85
4, 339456, Note_on_c, 2, 78, 85
4, 339456, Note_on_c, 2, 75, 85
4, 339456, Note_on_c, 2, 69, 85
4, 340384, Note_off_c, 2, 81, 0
4, 340384, Note_off_c, 2, 78, 0
4, 340384, Note_off_c, 2, 75, 0
4, 340384, Note_off_c, 2, 69, 0
4, 340608, Note_on_c, 2, 80, 85
4, 340608, Note_on_c, 2, 68, 85
4, 340796, Note_off_c, 2, 80, 0
4, 340796, Note_off_c, 2, 68, 0
4, 340800, Note_on_c, 2, 78, 85
4, 340988, Note_off_c, 2, 78, 0
4, 340992, Note_on_c, 2, 77, 85
4, 340992, Note_on_c, 2, 65, 85
4, 341312, Note_off_c, 2, 77, 0
4, 341312, Note_off_c, 2, 65, 0
4, 341376, Note_on_c, 2, 80, 85
4, 341376, Note_on_c, 2, 68, 85
4, 341536, Note_off_c, 2, 80, 0
4, 341536, Note_off_c, 2, 68, 0
4, 341760, Note_on_c, 2, 77, 85
4, 341760, Note_on_c, 2, 65, 85
4, 341920, Note_off_c, 2, 77, 0
4, 341920, Note_off_c, 2, 65, 0
4, 342144, Note_on_c, 2, 73, 85
4, 342144, Note_on_c, 2, 61, 85
4, 342304, Note_off_c, 2, 73, 0
4, 342304, Note_off_c, 2, 61, 0
4, 342528, Note_on_c, 2, 72, 85
4, 342528, Note_on_c, 2, 60, 85
4, 342848, Note_off_c, 2, 72, 0
4, 342848, Note_off_c, 2, 60, 0
4, 342912, Note_on_c, 2, 74, 85
4, 342912, Note_on_c, 2, 72, 85
4, 342912, Note_on_c, 2, 81, 85
4, 342912, Note_on_c, 2, 84, 85
4, 343536, Note_off_c, 2, 74, 0
4, 343536, Note_off_c, 2, 72, 0
4, 343536, Note_off_c, 2, 81, 0
4, 343536, Note_off_c, 2, 84, 0
4, 343680, Note_on_c, 2, 84, 85
4, 343680, Note_on_c, 2, 72, 85
4, 343680, Note_on_c, 2, 80, 85
4, 343868, Note_off_c, 2, 80, 0
4, 343872, Note_on_c, 2, 78, 85
4, 344060, Note_off_c, 2, 84, 0
4, 344060, Note_off_c, 2, 72, 0
4, 344060, Note_off_c, 2, 78, 0
4, 344064, Note_on_c, 2, 85, 85
4, 344064, Note_on_c, 2, 77, 85
4, 344064, Note_on_c, 2, 73, 85
4, 344384, Note_off_c, 2, 85, 0
4, 344384, Note_off_c, 2, 77, 0
4, 344384, Note_off_c, 2, 73, 0
4, 344448, Note_on_c, 2, 80, 85
4, 344448, Note_on_c, 2, 68, 85
4, 344608, Note_off_c, 2, 80, 0
4, 344608, Note_off_c, 2, 68, 0
4, 344832, Note_on_c, 2, 77, 85
4, 344832, Note_on_c, 2, 65, 85
4, 344992, Note_off_c, 2, 77, 0
4, 344992, Note_off_c, 2, 65, 0
4, 345216, Note_on_c, 2, 73, 85
4, 345216, Note_on_c, 2, 61, 85
4, 345376, Note_off_c, 2, 73, 0
4, 345376, Note_off_c, 2, 61, 0
4, 345600, Note_on_c, 2, 72, 85
4, 345600, Note_on_c, 2, 60, 85
4, 345760, Note_off_c, 2, 72, 0
4, 345760, Note_off_c, 2, 60, 0
4, 345984, Note_on_c, 2, 81, 85
4, 345984, Note_on_c, 2, 84, 85
4, 345984, Note_on_c, 2, 75, 85
4, 345984, Note_on_c, 2, 72, 85
4, 346608, Note_off_c, 2, 81, 0
4, 346608, Note_off_c, 2, 84, 0
4, 346608, Note_off_c, 2, 75, 0
4, 346608, Note_off_c, 2, 72, 0
4, 346752, Note_on_c, 2, 80, 85
4, 346752, Note_on_c, 2, 84, 85
4, 346752, Note_on_c, 2, 72, 85
4, 346940, Note_off_c, 2, 80, 0
4, 346944, Note_on_c, 2, 78, 85
4, 347104, Note_off_c, 2, 78, 0
4, 347132, Note_off_c, 2, 84, 0
4, 347132, Note_off_c, 2, 72, 0
4, 347136, Note_on_c, 2, 85, 85
4, 347136, Note_on_c, 2, 77, 85
4, 347136, Note_on_c, 2, 73, 85
4, 347456, Note_off_c, 2, 85, 0
4, 347456, Note_off_c, 2, 77, 0
4, 347456, Note_off_c, 2, 73, 0
4, 347520, Note_on_c, 2, 73, 85
4, 347520, Note_on_c, 2, 66, 85
4, 347708, Note_off_c, 2, 73, 0
4, 347708, Note_off_c, 2, 66, 0
4, 347712, Note_on_c, 2, 65, 85
4, 347900, Note_off_c, 2, 65, 0
4, 347904, Note_on_c, 2, 72, 85
4, 347904, Note_on_c, 2, 66, 85
4, 348224, Note_off_c, 2, 72, 0
4, 348224, Note_off_c, 2, 66, 0
4, 348288, Note_on_c, 2, 80, 85
4, 348288, Note_on_c, 2, 84, 85
4, 348288, Note_on_c, 2, 72, 85
4, 348476, Note_off_c, 2, 80, 0
4, 348476, Note_off_c, 2, 84, 0
4, 348476, Note_off_c, 2, 72, 0
4, 348480, Note_on_c, 2, 78, 85
4, 348668, Note_off_c, 2, 78, 0
4, 348672, Note_on_c, 2, 85, 85
4, 348672, Note_on_c, 2, 77, 85
4, 348672, Note_on_c, 2, 73, 85
4, 348992, Note_off_c, 2, 85, 0
4, 348992, Note_off_c, 2, 77, 0
4, 348992, Note_off_c, 2, 73, 0
4, 349056, Note_on_c, 2, 73, 85
4, 349056, Note_on_c, 2, 66, 85
4, 349244, Note_off_c, 2, 73, 0
4, 349244, Note_off_c, 2, 66, 0
4, 349248, Note_on_c, 2, 65, 85
4, 349436, Note_off_c, 2, 65, 0
4, 349440, Note_on_c, 2, 72, 85
4, 349440, Note_on_c, 2, 66, 85
4, 349760, Note_off_c, 2, 72, 0
4, 349760, Note_off_c, 2, 66, 0
4, 349824, Note_on_c, 2, 80, 85
4, 349824, Note_on_c, 2, 84, 85
4, 349824, Note_on_c, 2, 72, 85
4, 350012, Note_off_c, 2, 80, 0
4, 350012, Note_off_c, 2, 84, 0
4, 350012, Note_off_c, 2, 72, 0
4, 350016, Note_on_c, 2, 78, 85
4, 350204, Note_off_c, 2, 78, 0
4, 350208, Note_on_c, 2, 85, 85
4, 350208, Note_on_c, 2, 77, 85
4, 350208, Note_on_c, 2, 73, 85
4, 350528, Note_off_c, 2, 85, 0
4, 350528, Note_off_c, 2, 77, 0
4, 350528, Note_off_c, 2, 73, 0
4, 350976, Note_on_c, 2, 73, 85
4, 350976, Note_on_c, 2, 61, 85
4, 351296, Note_off_c, 2, 73, 0
4, 351296, Note_off_c, 2, 61, 0
4, 351744, Note_on_c, 2, 73, 85
4, 351744, Note_on_c, 2, 61, 85
4, 352368, Note_off_c, 2, 73, 0
4, 352368, Note_off_c, 2, 61, 0
4, 353280, Note_on_c, 2, 78, 85
4, 353280, Note_on_c, 2, 73, 85
4, 353280, Note_on_c, 2, 66, 85
4, 353904, Note_off_c, 2, 78, 0
4, 353904, Note_off_c, 2, 73, 0
4, 353904, Note_off_c, 2, 66, 0
4, 356352, Note_on_c, 2, 83, 65
4, 356352, Note_on_c, 2, 74, 65
4, 359280, Note_off_c, 2, 83, 64
4, 359280, Note_off_c, 2, 74, 64
4, 359424, Note_on_c, 2, 68, 65
4, 359424, Note_on_c, 2, 61, 65
4, 359424, Note_on_c, 2, 65, 65
4, 362352, Note_off_c, 2, 68, 64
4, 362352, Note_off_c, 2, 61, 64
4, 362352, Note_off_c, 2, 65, 64
4, 362496, Note_on_c, 2, 73, 65
4, 362496, Note_on_c, 2, 69, 65
4, 362496, Note_on_c, 2, 61, 65
4, 363120, Note_off_c, 2, 73, 0
4, 363120, Note_off_c, 2, 69, 0
4, 363264, Note_on_c, 2, 71, 65
4, 363264, Note_on_c, 2, 68, 65
4, 363888, Note_off_c, 2, 71, 0
4, 363888, Note_off_c, 2, 68, 0
4, 364032, Note_on_c, 2, 69, 65
4, 364032, Note_on_c, 2, 66, 65
4, 364656, Note_off_c, 2, 69, 0
4, 364656, Note_off_c, 2, 66, 0
4, 364656, Note_off_c, 2, 61, 64
4, 364800, Note_on_c, 2, 68, 65
4, 364800, Note_on_c, 2, 65, 65
4, 364800, Note_on_c, 2, 59, 65
4, 365424, Note_off_c, 2, 68, 0
4, 365424, Note_off_c, 2, 65, 0
4, 365424, Note_off_c, 2, 59, 0
4, 365568, Note_on_c, 2, 66, 65
4, 365568, Note_on_c, 2, 61, 65
4, 365888, Note_off_c, 2, 66, 0
4, 365888, Note_off_c, 2, 61, 0
4, 365952, Note_on_c, 2, 73, 65
4, 366332, Note_off_c, 2, 73, 0
4, 366336, Note_on_c, 2, 85, 65
4, 366656, Note_off_c, 2, 85, 0
4, 366720, Note_on_c, 2, 81, 65
4, 366880, Note_off_c, 2, 81, 0
4, 367104, Note_on_c, 2, 80, 65
4, 367868, Note_off_c, 2, 80, 0
4, 367872, Note_on_c, 2, 78, 65
4, 367872, Note_on_c, 2, 66, 65
4, 368192, Note_off_c, 2, 78, 0
4, 368192, Note_off_c, 2, 66, 0
4, 368256, Note_on_c, 2, 69, 65
4, 368576, Note_off_c, 2, 69, 0
4, 368640, Note_on_c, 2, 68, 65
4, 368960, Note_off_c, 2, 68, 0
4, 369024, Note_on_c, 2, 73, 65
4, 369404, Note_off_c, 2, 73, 0
4, 369408, Note_on_c, 2, 86, 65
4, 369788, Note_off_c, 2, 86, 0
4, 369792, Note_on_c, 2, 83, 65
4, 370112, Note_off_c, 2, 83, 0
4, 370176, Note_on_c, 2, 81, 65
4, 370940, Note_off_c, 2, 81, 0
4, 370944, Note_on_c, 2, 80, 65
4, 370944, Note_on_c, 2, 68, 65
4, 371264, Note_off_c, 2, 80, 0
4, 371264, Note_off_c, 2, 68, 0
4, 371328, Note_on_c, 2, 71, 65
4, 371648, Note_off_c, 2, 71, 0
4, 371712, Note_on_c, 2, 69, 65
4, 372072, Note_off_c, 2, 69, 0
4, 372080, Note_on_c, 2, 65, 65
4, 372096, Note_on_c, 2, 77, 65
4, 372460, Note_off_c, 2, 65, 0
4, 372476, Note_off_c, 2, 77, 0
4, 372480, Note_on_c, 2, 78, 65
4, 372480, Note_on_c, 2, 66, 65
4, 372860, Note_off_c, 2, 78, 0
4, 372860, Note_off_c, 2, 66, 0
4, 372864, Note_on_c, 2, 80, 65
4, 372864, Note_on_c, 2, 68, 65
4, 373244, Note_off_c, 2, 80, 0
4, 373244, Note_off_c, 2, 68, 0
4, 373248, Note_on_c, 2, 81, 65
4, 373248, Note_on_c, 2, 69, 65
4, 373628, Note_off_c, 2, 81, 0
4, 373628, Note_off_c, 2, 69, 0
4, 373632, Note_on_c, 2, 82, 65
4, 373632, Note_on_c, 2, 70, 65
4, 374012, Note_off_c, 2, 82, 0
4, 374012, Note_off_c, 2, 70, 0
4, 374016, Note_on_c, 2, 83, 65
4, 374016, Note_on_c, 2, 71, 65
4, 374396, Note_off_c, 2, 83, 0
4, 374396, Note_off_c, 2, 71, 0
4, 374400, Note_on_c, 2, 84, 65
4, 374400, Note_on_c, 2, 72, 65
4, 374720, Note_off_c, 2, 84, 0
4, 374720, Note_off_c, 2, 72, 0
4, 374784, Note_on_c, 2, 85, 65
4, 374784, Note_on_c, 2, 73, 65
4, 375932, Note_off_c, 2, 85, 0
4, 375932, Note_off_c, 2, 73, 0
4, 375936, Note_on_c, 2, 84, 65
4, 375936, Note_on_c, 2, 72, 65
4, 376124, Note_off_c, 2, 84, 0
4, 376124, Note_off_c, 2, 72, 0
4, 376128, Note_on_c, 2, 85, 65
4, 376128, Note_on_c, 2, 73, 65
4, 376288, Note_off_c, 2, 85, 0
4, 376288, Note_off_c, 2, 73, 0
4, 376320, Note_on_c, 2, 73, 65
4, 376320, Note_on_c, 2, 61, 65
4, 376640, Note_off_c, 2, 73, 0
4, 376640, Note_off_c, 2, 61, 0
4, 376704, Note_on_c, 2, 74, 85
4, 376704, Note_on_c, 2, 68, 85
4, 376704, Note_on_c, 2, 65, 85
4, 376864, Note_off_c, 2, 74, 0
4, 376864, Note_off_c, 2, 68, 0
4, 376864, Note_off_c, 2, 65, 0
4, 377088, Note_on_c, 2, 73, 85
4, 377088, Note_on_c, 2, 69, 85
4, 377088, Note_on_c, 2, 66, 85
4, 377248, Note_off_c, 2, 73, 0
4, 377248, Note_off_c, 2, 69, 0
4, 377248, Note_off_c, 2, 66, 0
4, 377472, Note_on_c, 2, 77, 85
4, 377472, Note_on_c, 2, 71, 85
4, 377472, Note_on_c, 2, 68, 85
4, 377632, Note_off_c, 2, 77, 0
4, 377632, Note_off_c, 2, 71, 0
4, 377632, Note_off_c, 2, 68, 0
4, 377856, Note_on_c, 2, 78, 85
4, 377856, Note_on_c, 2, 73, 85
4, 377856, Note_on_c, 2, 66, 85
4, 378480, Note_off_c, 2, 78, 0
4, 378480, Note_off_c, 2, 73, 0
4, 378480, Note_off_c, 2, 66, 0
4, 380928, Note_on_c, 2, 83, 85
4, 380928, Note_on_c, 2, 74, 85
4, 383856, Note_off_c, 2, 83, 64
4, 383856, Note_off_c, 2, 74, 64
4, 384000, Note_on_c, 2, 68, 85
4, 384000, Note_on_c, 2, 61, 85
4, 384000, Note_on_c, 2, 65, 85
4, 386928, Note_off_c, 2, 68, 64
4, 386928, Note_off_c, 2, 61, 64
4, 386928, Note_off_c, 2, 65, 64
4, 387072, Note_on_c, 2, 73, 85
4, 387072, Note_on_c, 2, 69, 85
4, 387072, Note_on_c, 2, 61, 85
4, 387836, Note_off_c, 2, 73, 0
4, 387836, Note_off_c, 2, 69, 0
4, 387840, Note_on_c, 2, 71, 85
4, 387840, Note_on_c, 2, 68, 85
4, 388604, Note_off_c, 2, 71, 0
4, 388604, Note_off_c, 2, 68, 0
4, 388608, Note_on_c, 2, 69, 85
4, 388608, Note_on_c, 2, 66, 85
4, 388988, Note_off_c, 2, 69, 0
4, 388992, Note_on_c, 2, 70, 85
4, 389232, Note_off_c, 2, 61, 0
4, 389372, Note_off_c, 2, 70, 0
4, 389376, Note_on_c, 2, 71, 85
4, 389376, Note_on_c, 2, 62, 85
4, 389756, Note_off_c, 2, 66, 0
4, 389756, Note_off_c, 2, 71, 0
4, 389756, Note_off_c, 2, 62, 0
4, 389760, Note_on_c, 2, 74, 85
4, 389760, Note_on_c, 2, 66, 85
4, 389760, Note_on_c, 2, 71, 85
4, 390140, Note_off_c, 2, 74, 0
4, 390140, Note_off_c, 2, 66, 0
4, 390140, Note_off_c, 2, 71, 64
4, 390144, Note_on_c, 2, 73, 65
4, 390144, Note_on_c, 2, 67, 65
4, 390144, Note_on_c, 2, 64, 65
4, 390464, Note_off_c, 2, 73, 0
4, 390464, Note_off_c, 2, 67, 0
4, 390464, Note_off_c, 2, 64, 0
4, 390528, Note_on_c, 2, 64, 75
4, 390908, Note_off_c, 2, 64, 0
4, 390912, Note_on_c, 2, 79, 65
4, 390912, Note_on_c, 2, 67, 65
4, 391292, Note_off_c, 2, 79, 0
4, 391292, Note_off_c, 2, 67, 0
4, 391296, Note_on_c, 2, 76, 65
4, 391296, Note_on_c, 2, 64, 65
4, 391676, Note_off_c, 2, 76, 0
4, 391676, Note_off_c, 2, 64, 0
4, 391680, Note_on_c, 2, 74, 65
4, 391680, Note_on_c, 2, 62, 65
4, 392444, Note_off_c, 2, 74, 0
4, 392444, Note_off_c, 2, 62, 0
4, 392448, Note_on_c, 2, 73, 65
4, 392448, Note_on_c, 2, 61, 65
4, 392768, Note_off_c, 2, 73, 0
4, 392768, Note_off_c, 2, 61, 0
4, 393600, Note_on_c, 2, 62, 75
4, 393980, Note_off_c, 2, 62, 0
4, 393984, Note_on_c, 2, 78, 65
4, 394364, Note_off_c, 2, 78, 0
4, 394368, Note_on_c, 2, 74, 65
4, 394748, Note_off_c, 2, 74, 0
4, 394752, Note_on_c, 2, 73, 65
4, 395516, Note_off_c, 2, 73, 0
4, 395520, Note_on_c, 2, 71, 65
4, 395840, Note_off_c, 2, 71, 64
4, 396288, Note_on_c, 2, 78, 65
4, 396288, Note_on_c, 2, 69, 65
4, 396288, Note_on_c, 2, 66, 65
4, 397680, Note_off_c, 2, 78, 0
4, 397680, Note_off_c, 2, 69, 0
4, 397680, Note_off_c, 2, 66, 0
4, 397824, Note_on_c, 2, 77, 65
4, 397824, Note_on_c, 2, 68, 65
4, 397824, Note_on_c, 2, 65, 65
4, 399216, Note_off_c, 2, 77, 0
4, 399216, Note_off_c, 2, 68, 0
4, 399216, Note_off_c, 2, 65, 0
4, 399744, Note_on_c, 2, 78, 65
4, 400124, Note_off_c, 2, 78, 0
4, 400128, Note_on_c, 2, 81, 65
4, 400508, Note_off_c, 2, 81, 0
4, 400512, Note_on_c, 2, 74, 65
4, 400832, Note_off_c, 2, 74, 0
4, 401280, Note_on_c, 2, 76, 65
4, 401660, Note_off_c, 2, 76, 0
4, 401664, Note_on_c, 2, 79, 65
4, 402044, Note_off_c, 2, 79, 0
4, 402048, Note_on_c, 2, 73, 65
4, 402368, Note_off_c, 2, 73, 0
4, 402432, Note_on_c, 2, 78, 65
4, 402432, Note_on_c, 2, 66, 65
4, 403580, Note_off_c, 2, 78, 0
4, 403580, Note_off_c, 2, 66, 0
4, 403584, Note_on_c, 2, 81, 65
4, 403584, Note_on_c, 2, 69, 65
4, 403904, Note_off_c, 2, 81, 0
4, 403904, Note_off_c, 2, 69, 0
4, 403968, Note_on_c, 2, 81, 65
4, 403968, Note_on_c, 2, 69, 65
4, 404348, Note_off_c, 2, 81, 0
4, 404348, Note_off_c, 2, 69, 0
4, 404352, Note_on_c, 2, 76, 65
4, 404352, Note_on_c, 2, 64, 65
4, 404672, Note_off_c, 2, 76, 0
4, 404672, Note_off_c, 2, 64, 0
4, 404736, Note_on_c, 2, 76, 65
4, 404736, Note_on_c, 2, 64, 65
4, 405116, Note_off_c, 2, 76, 0
4, 405116, Note_off_c, 2, 64, 0
4, 405120, Note_on_c, 2, 78, 65
4, 405120, Note_on_c, 2, 66, 65
4, 405440, Note_off_c, 2, 78, 0
4, 405440, Note_off_c, 2, 66, 0
4, 405504, Note_on_c, 2, 79, 65
4, 405504, Note_on_c, 2, 67, 65
4, 405824, Note_off_c, 2, 79, 0
4, 405824, Note_off_c, 2, 67, 0
4, 405888, Note_on_c, 2, 79, 65
4, 405888, Note_on_c, 2, 67, 65
4, 406208, Note_off_c, 2, 79, 0
4, 406208, Note_off_c, 2, 67, 0
4, 406272, Note_on_c, 2, 79, 65
4, 406272, Note_on_c, 2, 67, 65
4, 406592, Note_off_c, 2, 79, 0
4, 406592, Note_off_c, 2, 67, 0
4, 406656, Note_on_c, 2, 79, 65
4, 406656, Note_on_c, 2, 67, 65
4, 406976, Note_off_c, 2, 79, 0
4, 406976, Note_off_c, 2, 67, 0
4, 407040, Note_on_c, 2, 81, 65
4, 407040, Note_on_c, 2, 69, 65
4, 407420, Note_off_c, 2, 81, 64
4, 407420, Note_off_c, 2, 69, 64
4, 407424, Note_on_c, 2, 79, 65
4, 407424, Note_on_c, 2, 67, 65
4, 407804, Note_off_c, 2, 79, 64
4, 407804, Note_off_c, 2, 67, 64
4, 407808, Note_on_c, 2, 78, 65
4, 407808, Note_on_c, 2, 66, 65
4, 408128, Note_off_c, 2, 78, 0
4, 408128, Note_off_c, 2, 66, 0
4, 408576, Note_on_c, 2, 83, 65
4, 408576, Note_on_c, 2, 74, 65
4, 408576, Note_on_c, 2, 71, 65
4, 409724, Note_off_c, 2, 83, 0
4, 409724, Note_off_c, 2, 74, 0
4, 409724, Note_off_c, 2, 71, 0
4, 409728, Note_on_c, 2, 85, 65
4, 409728, Note_on_c, 2, 81, 65
4, 409728, Note_on_c, 2, 76, 65
4, 410048, Note_off_c, 2, 85, 0
4, 410048, Note_off_c, 2, 81, 0
4, 410048, Note_off_c, 2, 76, 0
4, 410112, Note_on_c, 2, 86, 65
4, 410112, Note_on_c, 2, 74, 65
4, 410492, Note_off_c, 2, 86, 0
4, 410496, Note_on_c, 2, 85, 65
4, 410736, Note_off_c, 2, 74, 0
4, 410876, Note_off_c, 2, 85, 0
4, 410880, Note_on_c, 2, 83, 65
4, 411260, Note_off_c, 2, 83, 0
4, 411264, Note_on_c, 2, 81, 65
4, 411264, Note_on_c, 2, 74, 65
4, 411584, Note_off_c, 2, 81, 0
4, 411584, Note_off_c, 2, 74, 0
4, 411648, Note_on_c, 2, 80, 65
4, 411648, Note_on_c, 2, 74, 65
4, 411648, Note_on_c, 2, 71, 65
4, 412028, Note_off_c, 2, 80, 0
4, 412028, Note_off_c, 2, 74, 0
4, 412028, Note_off_c, 2, 71, 0
4, 412032, Note_on_c, 2, 79, 65
4, 412032, Note_on_c, 2, 76, 65
4, 412032, Note_on_c, 2, 69, 65
4, 412412, Note_off_c, 2, 79, 0
4, 412412, Note_off_c, 2, 76, 0
4, 412416, Note_on_c, 2, 78, 65
4, 412416, Note_on_c, 2, 74, 65
4, 412656, Note_off_c, 2, 69, 0
4, 412796, Note_off_c, 2, 78, 0
4, 412796, Note_off_c, 2, 74, 0
4, 412800, Note_on_c, 2, 83, 65
4, 412800, Note_on_c, 2, 74, 65
4, 412800, Note_on_c, 2, 66, 65
4, 413120, Note_off_c, 2, 83, 0
4, 413120, Note_off_c, 2, 74, 0
4, 413180, Note_off_c, 2, 66, 0
4, 413184, Note_on_c, 2, 78, 65
4, 413184, Note_on_c, 2, 74, 65
4, 413184, Note_on_c, 2, 69, 65
4, 413948, Note_off_c, 2, 78, 0
4, 413948, Note_off_c, 2, 74, 0
4, 413952, Note_on_c, 2, 76, 65
4, 413952, Note_on_c, 2, 73, 65
4, 414112, Note_off_c, 2, 69, 0
4, 414272, Note_off_c, 2, 76, 0
4, 414272, Note_off_c, 2, 73, 0
4, 414720, Note_on_c, 2, 66, 65
4, 414720, Note_on_c, 2, 62, 65
4, 416112, Note_off_c, 2, 66, 0
4, 416112, Note_off_c, 2, 62, 0
4, 416256, Note_on_c, 2, 64, 65
4, 416256, Note_on_c, 2, 61, 65
4, 417404, Note_off_c, 2, 64, 0
4, 417404, Note_off_c, 2, 61, 0
4, 417408, Note_on_c, 2, 66, 65
4, 417408, Note_on_c, 2, 62, 65
4, 417788, Note_off_c, 2, 66, 0
4, 417788, Note_off_c, 2, 62, 0
4, 417792, Note_on_c, 2, 67, 65
4, 417792, Note_on_c, 2, 64, 65
4, 418172, Note_off_c, 2, 67, 0
4, 418172, Note_off_c, 2, 64, 0
4, 418176, Note_on_c, 2, 67, 65
4, 418176, Note_on_c, 2, 64, 65
4, 418556, Note_off_c, 2, 67, 0
4, 418556, Note_off_c, 2, 64, 0
4, 418560, Note_on_c, 2, 67, 65
4, 418560, Note_on_c, 2, 64, 65
4, 418940, Note_off_c, 2, 67, 0
4, 418940, Note_off_c, 2, 64, 0
4, 418944, Note_on_c, 2, 67, 65
4, 418944, Note_on_c, 2, 64, 65
4, 419324, Note_off_c, 2, 67, 0
4, 419324, Note_off_c, 2, 64, 0
4, 419328, Note_on_c, 2, 69, 75
4, 419408, Note_off_c, 2, 69, 0
4, 419424, Note_on_c, 2, 61, 70
4, 419424, Note_on_c, 2, 67, 70
4, 419424, Note_on_c, 2, 64, 70
4, 420092, Note_off_c, 2, 61, 0
4, 420092, Note_off_c, 2, 67, 0
4, 420092, Note_off_c, 2, 64, 0
4, 420096, Note_on_c, 2, 66, 65
4, 420096, Note_on_c, 2, 62, 65
4, 420416, Note_off_c, 2, 66, 0
4, 420416, Note_off_c, 2, 62, 0
4, 420864, Note_on_c, 2, 71, 65
4, 420864, Note_on_c, 2, 62, 65
4, 422256, Note_off_c, 2, 71, 0
4, 422256, Note_off_c, 2, 62, 0
4, 422400, Note_on_c, 2, 66, 65
4, 422400, Note_on_c, 2, 69, 65
4, 423164, Note_off_c, 2, 66, 0
4, 423164, Note_off_c, 2, 69, 0
4, 423168, Note_on_c, 2, 64, 65
4, 423168, Note_on_c, 2, 67, 65
4, 423792, Note_off_c, 2, 64, 0
4, 423792, Note_off_c, 2, 67, 0
4, 423936, Note_on_c, 2, 66, 65
4, 423936, Note_on_c, 2, 62, 65
4, 424256, Note_off_c, 2, 66, 0
4, 424256, Note_off_c, 2, 62, 0
4, 424704, Note_on_c, 2, 64, 65
4, 424704, Note_on_c, 2, 61, 65
4, 425024, Note_off_c, 2, 64, 0
4, 425024, Note_off_c, 2, 61, 0
4, 425472, Note_on_c, 2, 62, 65
4, 425792, Note_off_c, 2, 62, 0
4, 427008, Note_on_c, 2, 79, 65
4, 427008, Note_on_c, 2, 76, 65
4, 427008, Note_on_c, 2, 67, 65
4, 428156, Note_off_c, 2, 79, 0
4, 428156, Note_off_c, 2, 76, 0
4, 428156, Note_off_c, 2, 67, 0
4, 428160, Note_on_c, 2, 78, 65
4, 428160, Note_on_c, 2, 74, 65
4, 428160, Note_on_c, 2, 66, 65
4, 428540, Note_off_c, 2, 78, 0
4, 428540, Note_off_c, 2, 74, 0
4, 428540, Note_off_c, 2, 66, 0
4, 428544, Note_on_c, 2, 76, 65
4, 428544, Note_on_c, 2, 73, 65
4, 428544, Note_on_c, 2, 64, 65
4, 428864, Note_off_c, 2, 76, 0
4, 428864, Note_off_c, 2, 73, 0
4, 428864, Note_off_c, 2, 64, 0
4, 428928, Note_on_c, 2, 81, 65
4, 428928, Note_on_c, 2, 69, 65
4, 429308, Note_off_c, 2, 81, 0
4, 429308, Note_off_c, 2, 69, 0
4, 429312, Note_on_c, 2, 80, 65
4, 429312, Note_on_c, 2, 68, 65
4, 429692, Note_off_c, 2, 80, 0
4, 429692, Note_off_c, 2, 68, 0
4, 429696, Note_on_c, 2, 81, 65
4, 429696, Note_on_c, 2, 69, 65
4, 430076, Note_off_c, 2, 81, 0
4, 430076, Note_off_c, 2, 69, 0
4, 430080, Note_on_c, 2, 79, 65
4, 430080, Note_on_c, 2, 76, 65
4, 430400, Note_off_c, 2, 79, 0
4, 430400, Note_off_c, 2, 76, 0
4, 430464, Note_on_c, 2, 81, 65
4, 430464, Note_on_c, 2, 69, 65
4, 430844, Note_off_c, 2, 81, 0
4, 430844, Note_off_c, 2, 69, 0
4, 430848, Note_on_c, 2, 78, 65
4, 430848, Note_on_c, 2, 74, 65
4, 431228, Note_off_c, 2, 78, 0
4, 431228, Note_off_c, 2, 74, 0
4, 431232, Note_on_c, 2, 81, 65
4, 431232, Note_on_c, 2, 69, 65
4, 431612, Note_off_c, 2, 81, 0
4, 431612, Note_off_c, 2, 69, 0
4, 431616, Note_on_c, 2, 76, 65
4, 431616, Note_on_c, 2, 73, 65
4, 431936, Note_off_c, 2, 76, 0
4, 431936, Note_off_c, 2, 73, 0
4, 432000, Note_on_c, 2, 81, 65
4, 432000, Note_on_c, 2, 69, 65
4, 432380, Note_off_c, 2, 81, 0
4, 432380, Note_off_c, 2, 69, 0
4, 432384, Note_on_c, 2, 80, 65
4, 432384, Note_on_c, 2, 83, 65
4, 432384, Note_on_c, 2, 71, 65
4, 432764, Note_off_c, 2, 80, 0
4, 432764, Note_off_c, 2, 83, 0
4, 432764, Note_off_c, 2, 71, 0
4, 432768, Note_on_c, 2, 79, 65
4, 432768, Note_on_c, 2, 85, 65
4, 432768, Note_on_c, 2, 73, 65
4, 433088, Note_off_c, 2, 79, 0
4, 433088, Note_off_c, 2, 85, 0
4, 433088, Note_off_c, 2, 73, 0
4, 433152, Note_on_c, 2, 86, 65
4, 433152, Note_on_c, 2, 78, 65
4, 433152, Note_on_c, 2, 74, 65
4, 433532, Note_off_c, 2, 86, 0
4, 433532, Note_off_c, 2, 78, 0
4, 433532, Note_off_c, 2, 74, 0
4, 433536, Note_on_c, 2, 78, 65
4, 433536, Note_on_c, 2, 66, 65
4, 434300, Note_off_c, 2, 78, 0
4, 434300, Note_off_c, 2, 66, 0
4, 434304, Note_on_c, 2, 80, 65
4, 434304, Note_on_c, 2, 68, 65
4, 434684, Note_off_c, 2, 80, 0
4, 434684, Note_off_c, 2, 68, 0
4, 434688, Note_on_c, 2, 81, 65
4, 434688, Note_on_c, 2, 69, 65
4, 435068, Note_off_c, 2, 81, 0
4, 435068, Note_off_c, 2, 69, 0
4, 435072, Note_on_c, 2, 83, 65
4, 435072, Note_on_c, 2, 71, 65
4, 435452, Note_off_c, 2, 83, 0
4, 435452, Note_off_c, 2, 71, 0
4, 435456, Note_on_c, 2, 81, 65
4, 435644, Note_off_c, 2, 81, 0
4, 435648, Note_on_c, 2, 79, 65
4, 435836, Note_off_c, 2, 79, 0
4, 435840, Note_on_c, 2, 78, 65
4, 436028, Note_off_c, 2, 78, 0
4, 436032, Note_on_c, 2, 76, 65
4, 436220, Note_off_c, 2, 76, 0
4, 436224, Note_on_c, 2, 74, 65
4, 437372, Note_off_c, 2, 74, 0
4, 437376, Note_on_c, 2, 78, 65
4, 437564, Note_off_c, 2, 78, 0
4, 437568, Note_on_c, 2, 76, 65
4, 437756, Note_off_c, 2, 76, 0
4, 437760, Note_on_c, 2, 74, 65
4, 438140, Note_off_c, 2, 74, 0
4, 439296, Note_on_c, 2, 68, 65
4, 439296, Note_on_c, 2, 64, 65
4, 440224, Note_off_c, 2, 68, 0
4, 440224, Note_off_c, 2, 64, 0
4, 440448, Note_on_c, 2, 66, 65
4, 440448, Note_on_c, 2, 62, 65
4, 440768, Note_off_c, 2, 66, 0
4, 440768, Note_off_c, 2, 62, 0
4, 440832, Note_on_c, 2, 64, 65
4, 440832, Note_on_c, 2, 61, 65
4, 441152, Note_off_c, 2, 64, 0
4, 441152, Note_off_c, 2, 61, 0
4, 442368, Note_on_c, 2, 68, 65
4, 442368, Note_on_c, 2, 64, 65
4, 443132, Note_off_c, 2, 68, 0
4, 443132, Note_off_c, 2, 64, 0
4, 443136, Note_on_c, 2, 66, 65
4, 443136, Note_on_c, 2, 62, 65
4, 443760, Note_off_c, 2, 66, 0
4, 443760, Note_off_c, 2, 62, 0
4, 443904, Note_on_c, 2, 64, 65
4, 443904, Note_on_c, 2, 61, 65
4, 444284, Note_off_c, 2, 64, 0
4, 444288, Note_on_c, 2, 69, 65
4, 444528, Note_off_c, 2, 61, 0
4, 444668, Note_off_c, 2, 69, 0
4, 444672, Note_on_c, 2, 68, 65
4, 444672, Note_on_c, 2, 62, 65
4, 445052, Note_off_c, 2, 68, 0
4, 445052, Note_off_c, 2, 62, 0
4, 445056, Note_on_c, 2, 67, 65
4, 445056, Note_on_c, 2, 64, 65
4, 445376, Note_off_c, 2, 67, 0
4, 445376, Note_off_c, 2, 64, 64
4, 445440, Note_on_c, 2, 66, 65
4, 445440, Note_on_c, 2, 62, 65
4, 446204, Note_off_c, 2, 66, 0
4, 446208, Note_on_c, 2, 68, 65
4, 446832, Note_off_c, 2, 62, 0
4, 446832, Note_off_c, 2, 68, 0
4, 446976, Note_on_c, 2, 69, 65
4, 446976, Note_on_c, 2, 61, 65
4, 447356, Note_off_c, 2, 69, 0
4, 447356, Note_off_c, 2, 61, 0
4, 447360, Note_on_c, 2, 71, 65
4, 447360, Note_on_c, 2, 62, 65
4, 447680, Note_off_c, 2, 71, 0
4, 447680, Note_off_c, 2, 62, 0
4, 448128, Note_on_c, 2, 67, 65
4, 448128, Note_on_c, 2, 64, 65
4, 448128, Note_on_c, 2, 59, 65
4, 448448, Note_off_c, 2, 67, 0
4, 448448, Note_off_c, 2, 64, 0
4, 448448, Note_off_c, 2, 59, 0
4, 448512, Note_on_c, 2, 66, 65
4, 448512, Note_on_c, 2, 62, 65
4, 449276, Note_off_c, 2, 66, 0
4, 449276, Note_off_c, 2, 62, 0
4, 449280, Note_on_c, 2, 61, 65
4, 449280, Note_on_c, 2, 57, 65
4, 449904, Note_off_c, 2, 61, 0
4, 449904, Note_off_c, 2, 57, 0
4, 450048, Note_on_c, 2, 74, 65
4, 450048, Note_on_c, 2, 62, 65
4, 450428, Note_off_c, 2, 74, 0
4, 450428, Note_off_c, 2, 62, 0
4, 450432, Note_on_c, 2, 75, 65
4, 450432, Note_on_c, 2, 63, 65
4, 450812, Note_off_c, 2, 75, 0
4, 450812, Note_off_c, 2, 63, 0
4, 450816, Note_on_c, 2, 76, 65
4, 450816, Note_on_c, 2, 64, 65
4, 451196, Note_off_c, 2, 76, 0
4, 451196, Note_off_c, 2, 64, 0
4, 451200, Note_on_c, 2, 77, 65
4, 451200, Note_on_c, 2, 65, 65
4, 451580, Note_off_c, 2, 77, 0
4, 451580, Note_off_c, 2, 65, 0
4, 451584, Note_on_c, 2, 78, 65
4, 451584, Note_on_c, 2, 66, 65
4, 453116, Note_off_c, 2, 78, 0
4, 453116, Note_off_c, 2, 66, 0
4, 453120, Note_on_c, 2, 71, 65
4, 453120, Note_on_c, 2, 59, 65
4, 453440, Note_off_c, 2, 71, 0
4, 453440, Note_off_c, 2, 59, 0
4, 454656, Note_on_c, 2, 76, 65
4, 454656, Note_on_c, 2, 64, 65
4, 455036, Note_off_c, 2, 76, 0
4, 455036, Note_off_c, 2, 64, 0
4, 455040, Note_on_c, 2, 78, 65
4, 455040, Note_on_c, 2, 66, 65
4, 455420, Note_off_c, 2, 78, 0
4, 455420, Note_off_c, 2, 66, 0
4, 455424, Note_on_c, 2, 79, 65
4, 455424, Note_on_c, 2, 67, 65
4, 455804, Note_off_c, 2, 79, 0
4, 455804, Note_off_c, 2, 67, 0
4, 455808, Note_on_c, 2, 80, 65
4, 455808, Note_on_c, 2, 68, 65
4, 456188, Note_off_c, 2, 80, 0
4, 456188, Note_off_c, 2, 68, 0
4, 456192, Note_on_c, 2, 81, 65
4, 456192, Note_on_c, 2, 72, 65
4, 456192, Note_on_c, 2, 69, 65
4, 458048, Note_off_c, 2, 81, 64
4, 458048, Note_off_c, 2, 72, 64
4, 458048, Note_off_c, 2, 69, 64
4, 459264, Note_on_c, 2, 69, 65
4, 459264, Note_on_c, 2, 75, 65
4, 460028, Note_off_c, 2, 69, 0
4, 460028, Note_off_c, 2, 75, 0
4, 460032, Note_on_c, 2, 69, 65
4, 460032, Note_on_c, 2, 81, 65
4, 460032, Note_on_c, 2, 75, 65
4, 460796, Note_off_c, 2, 69, 0
4, 460796, Note_off_c, 2, 81, 0
4, 460796, Note_off_c, 2, 75, 0
4, 460800, Note_on_c, 2, 80, 65
4, 460800, Note_on_c, 2, 76, 65
4, 460800, Note_on_c, 2, 71, 65
4, 460800, Note_on_c, 2, 68, 65
4, 461120, Note_off_c, 2, 80, 0
4, 461120, Note_off_c, 2, 76, 0
4, 462192, Note_off_c, 2, 71, 0
4, 462192, Note_off_c, 2, 68, 0
4, 462336, Note_on_c, 2, 76, 65
4, 462336, Note_on_c, 2, 72, 65
4, 462336, Note_on_c, 2, 69, 65
4, 462336, Note_on_c, 2, 81, 65
4, 462656, Note_off_c, 2, 76, 0
4, 462656, Note_off_c, 2, 81, 64
4, 463728, Note_off_c, 2, 72, 0
4, 463728, Note_off_c, 2, 69, 0
4, 463872, Note_on_c, 2, 83, 65
4, 463872, Note_on_c, 2, 76, 65
4, 463872, Note_on_c, 2, 71, 65
4, 465404, Note_off_c, 2, 83, 0
4, 465404, Note_off_c, 2, 76, 0
4, 465404, Note_off_c, 2, 71, 0
4, 465408, Note_on_c, 2, 84, 65
4, 465408, Note_on_c, 2, 81, 65
4, 465408, Note_on_c, 2, 76, 65
4, 465408, Note_on_c, 2, 72, 65
4, 466940, Note_off_c, 2, 84, 0
4, 466940, Note_off_c, 2, 81, 0
4, 466940, Note_off_c, 2, 76, 0
4, 466940, Note_off_c, 2, 72, 0
4, 466944, Note_on_c, 2, 83, 65
4, 466944, Note_on_c, 2, 80, 65
4, 466944, Note_on_c, 2, 76, 65
4, 466944, Note_on_c, 2, 71, 65
4, 467264, Note_off_c, 2, 83, 0
4, 467264, Note_off_c, 2, 80, 0
4, 467264, Note_off_c, 2, 76, 0
4, 467264, Note_off_c, 2, 71, 0
4, 472320, Note_on_c, 2, 74, 65
4, 472320, Note_on_c, 2, 71, 65
4, 473084, Note_off_c, 2, 74, 0
4, 473084, Note_off_c, 2, 71, 0
4, 473088, Note_on_c, 2, 73, 65
4, 473088, Note_on_c, 2, 69, 65
4, 473852, Note_off_c, 2, 73, 0
4, 473852, Note_off_c, 2, 69, 0
4, 473856, Note_on_c, 2, 68, 65
4, 473856, Note_on_c, 2, 71, 65
4, 474620, Note_off_c, 2, 68, 0
4, 474620, Note_off_c, 2, 71, 0
4, 474624, Note_on_c, 2, 66, 65
4, 474624, Note_on_c, 2, 69, 65
4, 475388, Note_off_c, 2, 66, 0
4, 475388, Note_off_c, 2, 69, 0
4, 475392, Note_on_c, 2, 64, 65
4, 475392, Note_on_c, 2, 68, 65
4, 476156, Note_off_c, 2, 64, 0
4, 476156, Note_off_c, 2, 68, 0
4, 476160, Note_on_c, 2, 66, 65
4, 476160, Note_on_c, 2, 62, 65
4, 476924, Note_off_c, 2, 66, 0
4, 476924, Note_off_c, 2, 62, 0
4, 476928, Note_on_c, 2, 64, 65
4, 476928, Note_on_c, 2, 61, 65
4, 477552, Note_off_c, 2, 64, 0
4, 477552, Note_off_c, 2, 61, 0
4, 477696, Note_on_c, 2, 68, 65
4, 477884, Note_off_c, 2, 68, 0
4, 477888, Note_on_c, 2, 69, 65
4, 478076, Note_off_c, 2, 69, 0
4, 478080, Note_on_c, 2, 71, 65
4, 478268, Note_off_c, 2, 71, 0
4, 478272, Note_on_c, 2, 73, 65
4, 478460, Note_off_c, 2, 73, 0
4, 478464, Note_on_c, 2, 74, 65
4, 478652, Note_off_c, 2, 74, 0
4, 478656, Note_on_c, 2, 76, 65
4, 478844, Note_off_c, 2, 76, 0
4, 478848, Note_on_c, 2, 78, 65
4, 479036, Note_off_c, 2, 78, 0
4, 479040, Note_on_c, 2, 80, 65
4, 479228, Note_off_c, 2, 80, 0
4, 479232, Note_on_c, 2, 81, 65
4, 479552, Note_off_c, 2, 81, 0
4, 491520, Note_on_c, 2, 73, 65
4, 492284, Note_off_c, 2, 73, 0
4, 492288, Note_on_c, 2, 76, 65
4, 492476, Note_off_c, 2, 76, 0
4, 492480, Note_on_c, 2, 74, 65
4, 492668, Note_off_c, 2, 74, 0
4, 492672, Note_on_c, 2, 73, 65
4, 492860, Note_off_c, 2, 73, 0
4, 492864, Note_on_c, 2, 74, 65
4, 493052, Note_off_c, 2, 74, 0
4, 493056, Note_on_c, 2, 76, 65
4, 494204, Note_off_c, 2, 76, 0
4, 494208, Note_on_c, 2, 76, 65
4, 494588, Note_off_c, 2, 76, 0
4, 494592, Note_on_c, 2, 77, 65
4, 494972, Note_off_c, 2, 77, 0
4, 494976, Note_on_c, 2, 79, 65
4, 495356, Note_off_c, 2, 79, 0
4, 495360, Note_on_c, 2, 81, 65
4, 495740, Note_off_c, 2, 81, 0
4, 495744, Note_on_c, 2, 79, 65
4, 496124, Note_off_c, 2, 79, 0
4, 496128, Note_on_c, 2, 79, 65
4, 496508, Note_off_c, 2, 79, 0
4, 496512, Note_on_c, 2, 77, 65
4, 496892, Note_off_c, 2, 77, 0
4, 496896, Note_on_c, 2, 76, 65
4, 497216, Note_off_c, 2, 76, 0
4, 499200, Note_on_c, 2, 79, 65
4, 499200, Note_on_c, 2, 83, 65
4, 499200, Note_on_c, 2, 71, 65
4, 499964, Note_off_c, 2, 79, 0
4, 499964, Note_off_c, 2, 83, 0
4, 499964, Note_off_c, 2, 71, 0
4, 499968, Note_on_c, 2, 76, 65
4, 499968, Note_on_c, 2, 72, 65
4, 499968, Note_on_c, 2, 84, 65
4, 500288, Note_off_c, 2, 76, 0
4, 500288, Note_off_c, 2, 72, 0
4, 500288, Note_off_c, 2, 84, 0
4, 500352, Note_on_c, 2, 81, 65
4, 500352, Note_on_c, 2, 77, 65
4, 500352, Note_on_c, 2, 69, 65
4, 500732, Note_off_c, 2, 81, 0
4, 500732, Note_off_c, 2, 77, 0
4, 500732, Note_off_c, 2, 69, 0
4, 500736, Note_on_c, 2, 79, 65
4, 500736, Note_on_c, 2, 76, 65
4, 500736, Note_on_c, 2, 67, 65
4, 501116, Note_off_c, 2, 79, 0
4, 501116, Note_off_c, 2, 76, 0
4, 501116, Note_off_c, 2, 67, 0
4, 501120, Note_on_c, 2, 77, 65
4, 501120, Note_on_c, 2, 74, 65
4, 501120, Note_on_c, 2, 65, 65
4, 501500, Note_off_c, 2, 77, 0
4, 501500, Note_off_c, 2, 74, 0
4, 501500, Note_off_c, 2, 65, 0
4, 501504, Note_on_c, 2, 76, 65
4, 501504, Note_on_c, 2, 72, 65
4, 501504, Note_on_c, 2, 64, 65
4, 501824, Note_off_c, 2, 76, 0
4, 501824, Note_off_c, 2, 72, 0
4, 501824, Note_off_c, 2, 64, 0
4, 501888, Note_on_c, 2, 77, 65
4, 501888, Note_on_c, 2, 89, 65
4, 502268, Note_off_c, 2, 77, 0
4, 502268, Note_off_c, 2, 89, 0
4, 502272, Note_on_c, 2, 88, 65
4, 502272, Note_on_c, 2, 76, 65
4, 502272, Note_on_c, 2, 80, 65
4, 502652, Note_off_c, 2, 88, 0
4, 502652, Note_off_c, 2, 76, 0
4, 502656, Note_on_c, 2, 86, 65
4, 502656, Note_on_c, 2, 74, 65
4, 503036, Note_off_c, 2, 80, 0
4, 503036, Note_off_c, 2, 86, 0
4, 503036, Note_off_c, 2, 74, 0
4, 503040, Note_on_c, 2, 84, 65
4, 503040, Note_on_c, 2, 81, 65
4, 503040, Note_on_c, 2, 72, 65
4, 503360, Note_off_c, 2, 84, 0
4, 503360, Note_off_c, 2, 81, 0
4, 503360, Note_off_c, 2, 72, 0
4, 505728, Note_on_c, 2, 76, 65
4, 505728, Note_on_c, 2, 88, 65
4, 506108, Note_off_c, 2, 76, 0
4, 506108, Note_off_c, 2, 88, 0
4, 506112, Note_on_c, 2, 75, 65
4, 506112, Note_on_c, 2, 87, 65
4, 506492, Note_off_c, 2, 75, 0
4, 506492, Note_off_c, 2, 87, 0
4, 506496, Note_on_c, 2, 74, 65
4, 506496, Note_on_c, 2, 86, 65
4, 506876, Note_off_c, 2, 74, 0
4, 506876, Note_off_c, 2, 86, 0
4, 506880, Note_on_c, 2, 85, 65
4, 506880, Note_on_c, 2, 81, 65
4, 506880, Note_on_c, 2, 73, 65
4, 508272, Note_off_c, 2, 85, 0
4, 508272, Note_off_c, 2, 81, 0
4, 508272, Note_off_c, 2, 73, 0
4, 508416, Note_on_c, 2, 76, 65
4, 508416, Note_on_c, 2, 71, 65
4, 508416, Note_on_c, 2, 83, 65
4, 508796, Note_off_c, 2, 76, 0
4, 508796, Note_off_c, 2, 71, 0
4, 508796, Note_off_c, 2, 83, 0
4, 508800, Note_on_c, 2, 76, 65
4, 508800, Note_on_c, 2, 88, 65
4, 509120, Note_off_c, 2, 76, 0
4, 509120, Note_off_c, 2, 88, 0
4, 509184, Note_on_c, 2, 76, 65
4, 509184, Note_on_c, 2, 88, 65
4, 509504, Note_off_c, 2, 76, 0
4, 509504, Note_off_c, 2, 88, 0
4, 509568, Note_on_c, 2, 76, 65
4, 509568, Note_on_c, 2, 88, 65
4, 509888, Note_off_c, 2, 76, 0
4, 509888, Note_off_c, 2, 88, 0
4, 509952, Note_on_c, 2, 88, 65
4, 509952, Note_on_c, 2, 76, 65
4, 510720, Note_on_c, 2, 86, 65
4, 510908, Note_off_c, 2, 86, 0
4, 510912, Note_on_c, 2, 85, 65
4, 511100, Note_off_c, 2, 88, 0
4, 511100, Note_off_c, 2, 76, 0
4, 511100, Note_off_c, 2, 85, 0
4, 511104, Note_on_c, 2, 83, 65
4, 511292, Note_off_c, 2, 83, 0
4, 511296, Note_on_c, 2, 81, 65
4, 511484, Note_off_c, 2, 81, 0
4, 511488, Note_on_c, 2, 80, 65
4, 511808, Note_off_c, 2, 80, 0
4, 511872, Note_on_c, 2, 76, 65
4, 511872, Note_on_c, 2, 64, 65
4, 512252, Note_off_c, 2, 76, 0
4, 512252, Note_off_c, 2, 64, 64
4, 512256, Note_on_c, 2, 74, 65
4, 512256, Note_on_c, 2, 71, 65
4, 512636, Note_off_c, 2, 74, 0
4, 512636, Note_off_c, 2, 71, 0
4, 512640, Note_on_c, 2, 74, 65
4, 512640, Note_on_c, 2, 68, 65
4, 513020, Note_off_c, 2, 74, 0
4, 513020, Note_off_c, 2, 68, 0
4, 513024, Note_on_c, 2, 73, 65
4, 513024, Note_on_c, 2, 69, 65
4, 513404, Note_off_c, 2, 69, 0
4, 513408, Note_on_c, 2, 66, 65
4, 513788, Note_off_c, 2, 66, 0
4, 513792, Note_on_c, 2, 69, 65
4, 514172, Note_off_c, 2, 69, 0
4, 514176, Note_on_c, 2, 66, 65
4, 514416, Note_off_c, 2, 73, 0
4, 514496, Note_off_c, 2, 66, 0
4, 514560, Note_on_c, 2, 71, 65
4, 514560, Note_on_c, 2, 69, 65
4, 514940, Note_off_c, 2, 71, 0
4, 514940, Note_off_c, 2, 69, 0
4, 514944, Note_on_c, 2, 78, 65
4, 514944, Note_on_c, 2, 66, 65
4, 515264, Note_off_c, 2, 78, 0
4, 515324, Note_off_c, 2, 66, 0
4, 515328, Note_on_c, 2, 78, 65
4, 515328, Note_on_c, 2, 69, 65
4, 515648, Note_off_c, 2, 78, 0
4, 515708, Note_off_c, 2, 69, 0
4, 515712, Note_on_c, 2, 78, 65
4, 515712, Note_on_c, 2, 66, 65
4, 516032, Note_off_c, 2, 78, 0
4, 516032, Note_off_c, 2, 66, 0
4, 516096, Note_on_c, 2, 69, 65
4, 517244, Note_off_c, 2, 69, 0
4, 517248, Note_on_c, 2, 68, 65
4, 517248, Note_on_c, 2, 73, 65
4, 517436, Note_off_c, 2, 73, 0
4, 517440, Note_on_c, 2, 71, 65
4, 517628, Note_off_c, 2, 68, 0
4, 517628, Note_off_c, 2, 71, 0
4, 517632, Note_on_c, 2, 69, 65
4, 517952, Note_off_c, 2, 69, 0
4, 519168, Note_on_c, 2, 72, 65
4, 519168, Note_on_c, 2, 69, 65
4, 520700, Note_off_c, 2, 72, 0
4, 520700, Note_off_c, 2, 69, 0
4, 520704, Note_on_c, 2, 74, 65
4, 520704, Note_on_c, 2, 71, 65
4, 522096, Note_off_c, 2, 74, 0
4, 522096, Note_off_c, 2, 71, 0
4, 522240, Note_on_c, 2, 72, 65
4, 522240, Note_on_c, 2, 69, 65
4, 523772, Note_off_c, 2, 72, 0
4, 523772, Note_off_c, 2, 69, 0
4, 523776, Note_on_c, 2, 71, 65
4, 523776, Note_on_c, 2, 68, 65
4, 525168, Note_off_c, 2, 71, 0
4, 525168, Note_off_c, 2, 68, 0
4, 525312, Note_on_c, 2, 69, 65
4, 525312, Note_on_c, 2, 65, 65
4, 528240, Note_off_c, 2, 69, 64
4, 528240, Note_off_c, 2, 65, 64
4, 528384, Note_on_c, 2, 69, 65
4, 528384, Note_on_c, 2, 64, 65
4, 529148, Note_off_c, 2, 69, 0
4, 529148, Note_off_c, 2, 64, 0
4, 529152, Note_on_c, 2, 68, 65
4, 529152, Note_on_c, 2, 62, 65
4, 529916, Note_off_c, 2, 68, 0
4, 529916, Note_off_c, 2, 62, 0
4, 529920, Note_on_c, 2, 69, 65
4, 529920, Note_on_c, 2, 60, 65
4, 530240, Note_off_c, 2, 69, 0
4, 530240, Note_off_c, 2, 60, 0
4, 531456, Note_on_c, 2, 69, 65
4, 531456, Note_on_c, 2, 72, 65
4, 531456, Note_on_c, 2, 64, 65
4, 532848, Note_off_c, 2, 69, 0
4, 532848, Note_off_c, 2, 72, 64
4, 532848, Note_off_c, 2, 64, 64
4, 532992, Note_on_c, 2, 71, 65
4, 532992, Note_on_c, 2, 65, 65
4, 534528, Note_on_c, 2, 71, 80
4, 534908, Note_off_c, 2, 71, 64
4, 534912, Note_on_c, 2, 77, 80
4, 535232, Note_off_c, 2, 77, 0
4, 535296, Note_on_c, 2, 77, 80
4, 535616, Note_off_c, 2, 77, 0
4, 535680, Note_on_c, 2, 77, 80
4, 535920, Note_off_c, 2, 71, 64
4, 535920, Note_off_c, 2, 65, 64
4, 536000, Note_off_c, 2, 77, 0
4, 536064, Note_on_c, 2, 65, 65
4, 536064, Note_on_c, 2, 70, 65
4, 537600, Note_on_c, 2, 70, 80
4, 537980, Note_off_c, 2, 70, 0
4, 537984, Note_on_c, 2, 77, 80
4, 538304, Note_off_c, 2, 77, 0
4, 538368, Note_on_c, 2, 77, 80
4, 538688, Note_off_c, 2, 77, 0
4, 538752, Note_on_c, 2, 77, 80
4, 538992, Note_off_c, 2, 65, 64
4, 538992, Note_off_c, 2, 70, 64
4, 539072, Note_off_c, 2, 77, 0
4, 539136, Note_on_c, 2, 70, 65
4, 539136, Note_on_c, 2, 65, 65
4, 540528, Note_off_c, 2, 70, 0
4, 540672, Note_on_c, 2, 71, 80
4, 540672, Note_on_c, 2, 71, 65
4, 540672, Note_on_c, 2, 69, 65
4, 541052, Note_off_c, 2, 71, 0
4, 541056, Note_on_c, 2, 77, 80
4, 541376, Note_off_c, 2, 77, 0
4, 541440, Note_on_c, 2, 77, 80
4, 541760, Note_off_c, 2, 77, 0
4, 541824, Note_on_c, 2, 77, 80
4, 542064, Note_off_c, 2, 71, 0
4, 542064, Note_off_c, 2, 65, 64
4, 542064, Note_off_c, 2, 69, 0
4, 542144, Note_off_c, 2, 77, 0
4, 542208, Note_on_c, 2, 65, 65
4, 542208, Note_on_c, 2, 69, 65
4, 543600, Note_off_c, 2, 65, 0
4, 543600, Note_off_c, 2, 69, 0
4, 543744, Note_on_c, 2, 76, 80
4, 543744, Note_on_c, 2, 76, 65
4, 543744, Note_on_c, 2, 70, 65
4, 544124, Note_off_c, 2, 76, 0
4, 544128, Note_on_c, 2, 82, 80
4, 544448, Note_off_c, 2, 82, 0
4, 544512, Note_on_c, 2, 82, 80
4, 544832, Note_off_c, 2, 82, 0
4, 544896, Note_on_c, 2, 82, 80
4, 545136, Note_off_c, 2, 76, 0
4, 545136, Note_off_c, 2, 70, 0
4, 545216, Note_off_c, 2, 82, 0
4, 545280, Note_on_c, 2, 77, 65
4, 545280, Note_on_c, 2, 69, 65
4, 545600, Note_off_c, 2, 77, 0
4, 545600, Note_off_c, 2, 69, 0
4, 545664, Note_on_c, 2, 77, 80
4, 545664, Note_on_c, 2, 72, 65
4, 545664, Note_on_c, 2, 81, 65
4, 545984, Note_off_c, 2, 77, 0
4, 546048, Note_on_c, 2, 77, 80
4, 546288, Note_off_c, 2, 72, 0
4, 546288, Note_off_c, 2, 81, 0
4, 546368, Note_off_c, 2, 77, 0
4, 546432, Note_on_c, 2, 77, 80
4, 546432, Note_on_c, 2, 69, 65
4, 546752, Note_off_c, 2, 77, 0
4, 546752, Note_off_c, 2, 69, 0
4, 546816, Note_on_c, 2, 76, 65
4, 546816, Note_on_c, 2, 76, 65
4, 546816, Note_on_c, 2, 70, 65
4, 547196, Note_off_c, 2, 76, 0
4, 547200, Note_on_c, 2, 82, 80
4, 547520, Note_off_c, 2, 82, 0
4, 547584, Note_on_c, 2, 82, 80
4, 547904, Note_off_c, 2, 82, 0
4, 547968, Note_on_c, 2, 82, 80
4, 548208, Note_off_c, 2, 76, 0
4, 548208, Note_off_c, 2, 70, 0
4, 548288, Note_off_c, 2, 82, 0
4, 548352, Note_on_c, 2, 77, 80
4, 548352, Note_on_c, 2, 69, 65
4, 548672, Note_off_c, 2, 77, 0
4, 548736, Note_on_c, 2, 81, 65
4, 548736, Note_on_c, 2, 77, 80
4, 549056, Note_off_c, 2, 77, 0
4, 549120, Note_on_c, 2, 77, 80
4, 549360, Note_off_c, 2, 81, 0
4, 549440, Note_off_c, 2, 77, 0
4, 549504, Note_on_c, 2, 77, 80
4, 549744, Note_off_c, 2, 69, 0
4, 549824, Note_off_c, 2, 77, 0
4, 549888, Note_on_c, 2, 78, 65
4, 549888, Note_on_c, 2, 72, 65
4, 549888, Note_on_c, 2, 78, 80
4, 550268, Note_off_c, 2, 78, 64
4, 550272, Note_on_c, 2, 84, 80
4, 550592, Note_off_c, 2, 84, 0
4, 550656, Note_on_c, 2, 84, 80
4, 550976, Note_off_c, 2, 84, 0
4, 551040, Note_on_c, 2, 84, 80
4, 551280, Note_off_c, 2, 78, 0
4, 551280, Note_off_c, 2, 72, 0
4, 551360, Note_off_c, 2, 84, 0
4, 551424, Note_on_c, 2, 76, 65
4, 551424, Note_on_c, 2, 73, 65
4, 551424, Note_on_c, 2, 69, 65
4, 551744, Note_off_c, 2, 76, 0
4, 551744, Note_off_c, 2, 73, 0
4, 551744, Note_off_c, 2, 69, 0
4, 554496, Note_on_c, 2, 88, 65
4, 554496, Note_on_c, 2, 85, 65
4, 554496, Note_on_c, 2, 76, 65
4, 555260, Note_off_c, 2, 88, 0
4, 555260, Note_off_c, 2, 85, 0
4, 555260, Note_off_c, 2, 76, 0
4, 555264, Note_on_c, 2, 86, 65
4, 555264, Note_on_c, 2, 83, 65
4, 555264, Note_on_c, 2, 74, 65
4, 556028, Note_off_c, 2, 86, 0
4, 556028, Note_off_c, 2, 83, 0
4, 556028, Note_off_c, 2, 74, 0
4, 556032, Note_on_c, 2, 85, 65
4, 556032, Note_on_c, 2, 81, 65
4, 556032, Note_on_c, 2, 73, 65
4, 556796, Note_off_c, 2, 85, 0
4, 556796, Note_off_c, 2, 81, 0
4, 556796, Note_off_c, 2, 73, 0
4, 556800, Note_on_c, 2, 80, 65
4, 556800, Note_on_c, 2, 83, 65
4, 556800, Note_on_c, 2, 71, 65
4, 557564, Note_off_c, 2, 80, 0
4, 557564, Note_off_c, 2, 83, 0
4, 557564, Note_off_c, 2, 71, 0
4, 557568, Note_on_c, 2, 81, 65
4, 557568, Note_on_c, 2, 73, 65
4, 557568, Note_on_c, 2, 69, 65
4, 557888, Note_off_c, 2, 81, 0
4, 557888, Note_off_c, 2, 73, 0
4, 557888, Note_off_c, 2, 69, 0
4, 559104, Note_on_c, 2, 76, 65
4, 559104, Note_on_c, 2, 71, 65
4, 559104, Note_on_c, 2, 64, 65
4, 559728, Note_off_c, 2, 76, 0
4, 559728, Note_off_c, 2, 71, 0
4, 559728, Note_off_c, 2, 64, 0
4, 560640, Note_on_c, 2, 69, 65
4, 560640, Note_on_c, 2, 66, 65
4, 560640, Note_on_c, 2, 57, 65
4, 561264, Note_off_c, 2, 69, 0
4, 561264, Note_off_c, 2, 66, 0
4, 561264, Note_off_c, 2, 57, 0
4, 562176, Note_on_c, 2, 73, 65
4, 562176, Note_on_c, 2, 68, 65
4, 562176, Note_on_c, 2, 61, 65
4, 562800, Note_off_c, 2, 73, 0
4, 562800, Note_off_c, 2, 68, 0
4, 562800, Note_off_c, 2, 61, 0
4, 563712, Note_on_c, 2, 66, 65
4, 563712, Note_on_c, 2, 62, 65
4, 563712, Note_on_c, 2, 57, 65
4, 564336, Note_off_c, 2, 66, 0
4, 564336, Note_off_c, 2, 62, 0
4, 564336, Note_off_c, 2, 57, 0
4, 565248, Note_on_c, 2, 69, 65
4, 565248, Note_on_c, 2, 64, 65
4, 565248, Note_on_c, 2, 57, 65
4, 565872, Note_off_c, 2, 69, 0
4, 565872, Note_off_c, 2, 64, 0
4, 565872, Note_off_c, 2, 57, 0
4, 566784, Note_on_c, 2, 81, 65
4, 569084, Note_off_c, 2, 81, 0
4, 569088, Note_on_c, 2, 75, 65
4, 569408, Note_off_c, 2, 75, 0
4, 569856, Note_on_c, 2, 86, 65
4, 569856, Note_on_c, 2, 74, 65
4, 572156, Note_off_c, 2, 86, 64
4, 572156, Note_off_c, 2, 74, 64
4, 572160, Note_on_c, 2, 80, 65
4, 572160, Note_on_c, 2, 68, 65
4, 572480, Note_off_c, 2, 80, 0
4, 572480, Note_off_c, 2, 68, 0
4, 572928, Note_on_c, 2, 91, 65
4, 572928, Note_on_c, 2, 79, 65
4, 575228, Note_off_c, 2, 79, 0
4, 575228, Note_off_c, 2, 91, 0
4, 575232, Note_on_c, 2, 73, 65
4, 575232, Note_on_c, 2, 85, 65
4, 575552, Note_off_c, 2, 73, 0
4, 575552, Note_off_c, 2, 85, 0
4, 576000, Note_on_c, 2, 78, 65
4, 576572, Note_off_c, 2, 78, 0
4, 576576, Note_on_c, 2, 76, 65
4, 576764, Note_off_c, 2, 76, 0
4, 576768, Note_on_c, 2, 74, 65
4, 577340, Note_off_c, 2, 74, 0
4, 577344, Note_on_c, 2, 73, 65
4, 577532, Note_off_c, 2, 73, 0
4, 577536, Note_on_c, 2, 71, 65
4, 578108, Note_off_c, 2, 71, 0
4, 578112, Note_on_c, 2, 69, 65
4, 578300, Note_off_c, 2, 69, 0
4, 578304, Note_on_c, 2, 68, 65
4, 578876, Note_off_c, 2, 68, 0
4, 578880, Note_on_c, 2, 66, 65
4, 579040, Note_off_c, 2, 66, 0
4, 579072, Note_on_c, 2, 76, 65
4, 579072, Note_on_c, 2, 64, 65
4, 579452, Note_off_c, 2, 64, 0
4, 579644, Note_off_c, 2, 76, 0
4, 579648, Note_on_c, 2, 74, 65
4, 579836, Note_off_c, 2, 74, 0
4, 579840, Note_on_c, 2, 73, 65
4, 580412, Note_off_c, 2, 73, 0
4, 580416, Note_on_c, 2, 71, 65
4, 580604, Note_off_c, 2, 71, 0
4, 580608, Note_on_c, 2, 69, 65
4, 581180, Note_off_c, 2, 69, 0
4, 581184, Note_on_c, 2, 68, 65
4, 581372, Note_off_c, 2, 68, 0
4, 581376, Note_on_c, 2, 66, 65
4, 581948, Note_off_c, 2, 66, 0
4, 581952, Note_on_c, 2, 64, 65
4, 582112, Note_off_c, 2, 64, 0
4, 582144, Note_on_c, 2, 80, 65
4, 582144, Note_on_c, 2, 74, 65
4, 582144, Note_on_c, 2, 68, 65
4, 583676, Note_off_c, 2, 80, 0
4, 583676, Note_off_c, 2, 74, 0
4, 583676, Note_off_c, 2, 68, 0
4, 583680, Note_on_c, 2, 81, 65
4, 583680, Note_on_c, 2, 76, 65
4, 583680, Note_on_c, 2, 69, 65
4, 585072, Note_off_c, 2, 81, 0
4, 585072, Note_off_c, 2, 76, 0
4, 585072, Note_off_c, 2, 69, 0
4, 585216, Note_on_c, 2, 69, 65
4, 585216, Note_on_c, 2, 71, 65
4, 585216, Note_on_c, 2, 66, 65
4, 588144, Note_off_c, 2, 69, 64
4, 588144, Note_off_c, 2, 71, 64
4, 588144, Note_off_c, 2, 66, 64
4, 588288, Note_on_c, 2, 73, 65
4, 588288, Note_on_c, 2, 69, 65
4, 588288, Note_on_c, 2, 64, 65
4, 588608, Note_off_c, 2, 73, 0
4, 588608, Note_off_c, 2, 69, 0
4, 588608, Note_off_c, 2, 64, 0
4, 588672, Note_on_c, 2, 73, 65
4, 588672, Note_on_c, 2, 69, 65
4, 588672, Note_on_c, 2, 64, 65
4, 588992, Note_off_c, 2, 73, 0
4, 588992, Note_off_c, 2, 69, 0
4, 588992, Note_off_c, 2, 64, 0
4, 589056, Note_on_c, 2, 73, 65
4, 589056, Note_on_c, 2, 69, 65
4, 589056, Note_on_c, 2, 64, 65
4, 589376, Note_off_c, 2, 73, 0
4, 589376, Note_off_c, 2, 69, 0
4, 589376, Note_off_c, 2, 64, 0
4, 589440, Note_on_c, 2, 73, 65
4, 589440, Note_on_c, 2, 69, 65
4, 589440, Note_on_c, 2, 64, 65
4, 589760, Note_off_c, 2, 73, 0
4, 589760, Note_off_c, 2, 69, 0
4, 589760, Note_off_c, 2, 64, 0
4, 589824, Note_on_c, 2, 71, 65
4, 589824, Note_on_c, 2, 68, 65
4, 589824, Note_on_c, 2, 62, 65
4, 589824, Note_on_c, 2, 64, 65
4, 590144, Note_off_c, 2, 71, 0
4, 590144, Note_off_c, 2, 68, 0
4, 590144, Note_off_c, 2, 62, 0
4, 590144, Note_off_c, 2, 64, 0
4, 590208, Note_on_c, 2, 68, 65
4, 590208, Note_on_c, 2, 64, 65
4, 590208, Note_on_c, 2, 62, 65
4, 590208, Note_on_c, 2, 71, 65
4, 590528, Note_off_c, 2, 68, 0
4, 590528, Note_off_c, 2, 64, 0
4, 590528, Note_off_c, 2, 62, 0
4, 590528, Note_off_c, 2, 71, 0
4, 590592, Note_on_c, 2, 71, 65
4, 590592, Note_on_c, 2, 68, 65
4, 590592, Note_on_c, 2, 64, 65
4, 590592, Note_on_c, 2, 62, 65
4, 590912, Note_off_c, 2, 71, 0
4, 590912, Note_off_c, 2, 68, 0
4, 590912, Note_off_c, 2, 64, 0
4, 590912, Note_off_c, 2, 62, 0
4, 590976, Note_on_c, 2, 71, 65
4, 590976, Note_on_c, 2, 68, 65
4, 590976, Note_on_c, 2, 64, 65
4, 590976, Note_on_c, 2, 62, 65
4, 591296, Note_off_c, 2, 71, 0
4, 591296, Note_off_c, 2, 68, 0
4, 591296, Note_off_c, 2, 64, 0
4, 591296, Note_off_c, 2, 62, 0
4, 591360, Note_on_c, 2, 69, 65
4, 591360, Note_on_c, 2, 64, 65
4, 591360, Note_on_c, 2, 61, 65
4, 591984, Note_off_c, 2, 69, 0
4, 591984, Note_off_c, 2, 64, 0
4, 591984, Note_off_c, 2, 61, 0
4, 592128, Note_on_c, 2, 81, 65
4, 592128, Note_on_c, 2, 85, 65
4, 592128, Note_on_c, 2, 76, 65
4, 592128, Note_on_c, 2, 73, 65
4, 592752, Note_off_c, 2, 81, 0
4, 592752, Note_off_c, 2, 85, 0
4, 592752, Note_off_c, 2, 76, 0
4, 592752, Note_off_c, 2, 73, 0
4, 592896, Note_on_c, 2, 76, 65
4, 592896, Note_on_c, 2, 71, 65
4, 592896, Note_on_c, 2, 64, 65
4, 593520, Note_off_c, 2, 76, 0
4, 593520, Note_off_c, 2, 71, 0
4, 593520, Note_off_c, 2, 64, 0
4, 593664, Note_on_c, 2, 83, 65
4, 593664, Note_on_c, 2, 88, 65
4, 593664, Note_on_c, 2, 76, 65
4, 594288, Note_off_c, 2, 83, 0
4, 594288, Note_off_c, 2, 88, 0
4, 594288, Note_off_c, 2, 76, 0
4, 594432, Note_on_c, 2, 69, 65
4, 594432, Note_on_c, 2, 66, 65
4, 594432, Note_on_c, 2, 61, 65
4, 595056, Note_off_c, 2, 69, 0
4, 595056, Note_off_c, 2, 66, 0
4, 595056, Note_off_c, 2, 61, 0
4, 595200, Note_on_c, 2, 81, 65
4, 595200, Note_on_c, 2, 78, 65
4, 595200, Note_on_c, 2, 73, 65
4, 595200, Note_on_c, 2, 69, 65
4, 595824, Note_off_c, 2, 81, 0
4, 595824, Note_off_c, 2, 78, 0
4, 595824, Note_off_c, 2, 73, 0
4, 595824, Note_off_c, 2, 69, 0
4, 595968, Note_on_c, 2, 69, 65
4, 595968, Note_on_c, 2, 66, 65
4, 595968, Note_on_c, 2, 61, 65
4, 596592, Note_off_c, 2, 69, 0
4, 596592, Note_off_c, 2, 66, 0
4, 596592, Note_off_c, 2, 61, 0
4, 596736, Note_on_c, 2, 81, 65
4, 596736, Note_on_c, 2, 78, 65
4, 596736, Note_on_c, 2, 73, 65
4, 596736, Note_on_c, 2, 69, 65
4, 597360, Note_off_c, 2, 81, 0
4, 597360, Note_off_c, 2, 78, 0
4, 597360, Note_off_c, 2, 73, 0
4, 597360, Note_off_c, 2, 69, 0
4, 597504, Note_on_c, 2, 66, 65
4, 597504, Note_on_c, 2, 62, 65
4, 597504, Note_on_c, 2, 57, 65
4, 598128, Note_off_c, 2, 66, 0
4, 598128, Note_off_c, 2, 62, 0
4, 598128, Note_off_c, 2, 57, 0
4, 598272, Note_on_c, 2, 78, 65
4, 598272, Note_on_c, 2, 74, 65
4, 598272, Note_on_c, 2, 69, 65
4, 598896, Note_off_c, 2, 78, 0
4, 598896, Note_off_c, 2, 74, 0
4, 598896, Note_off_c, 2, 69, 0
4, 599040, Note_on_c, 2, 69, 65
4, 599040, Note_on_c, 2, 64, 65
4, 599040, Note_on_c, 2, 57, 65
4, 599664, Note_off_c, 2, 69, 0
4, 599664, Note_off_c, 2, 64, 0
4, 599664, Note_off_c, 2, 57, 0
4, 599808, Note_on_c, 2, 81, 65
4, 599808, Note_on_c, 2, 76, 65
4, 599808, Note_on_c, 2, 69, 65
4, 600432, Note_off_c, 2, 81, 0
4, 600432, Note_off_c, 2, 76, 0
4, 600432, Note_off_c, 2, 69, 0
4, 600576, Note_on_c, 2, 75, 65
4, 600576, Note_on_c, 2, 81, 65
4, 600896, Note_off_c, 2, 75, 0
4, 600960, Note_on_c, 2, 76, 65
4, 601280, Note_off_c, 2, 76, 0
4, 601344, Note_on_c, 2, 75, 65
4, 601664, Note_off_c, 2, 75, 0
4, 601728, Note_on_c, 2, 76, 65
4, 602048, Note_off_c, 2, 76, 0
4, 602112, Note_on_c, 2, 75, 65
4, 602432, Note_off_c, 2, 75, 0
4, 602496, Note_on_c, 2, 76, 65
4, 602496, Note_on_c, 2, 79, 75
4, 602600, Note_off_c, 2, 79, 0
4, 602624, Note_on_c, 2, 78, 75
4, 602656, Note_off_c, 2, 81, 64
4, 602728, Note_off_c, 2, 78, 0
4, 602752, Note_on_c, 2, 76, 75
4, 602816, Note_off_c, 2, 76, 0
4, 602856, Note_off_c, 2, 76, 0
4, 602880, Note_on_c, 2, 75, 65
4, 603200, Note_off_c, 2, 75, 0
4, 603648, Note_on_c, 2, 80, 65
4, 603648, Note_on_c, 2, 86, 65
4, 603968, Note_off_c, 2, 80, 0
4, 604032, Note_on_c, 2, 81, 65
4, 604352, Note_off_c, 2, 81, 0
4, 604416, Note_on_c, 2, 80, 65
4, 604736, Note_off_c, 2, 80, 0
4, 604800, Note_on_c, 2, 81, 65
4, 605120, Note_off_c, 2, 81, 0
4, 605184, Note_on_c, 2, 80, 65
4, 605504, Note_off_c, 2, 80, 0
4, 605568, Note_on_c, 2, 81, 65
4, 605568, Note_on_c, 2, 84, 65
4, 605672, Note_off_c, 2, 84, 0
4, 605696, Note_on_c, 2, 83, 65
4, 605728, Note_off_c, 2, 86, 64
4, 605800, Note_off_c, 2, 83, 0
4, 605824, Note_on_c, 2, 81, 65
4, 605888, Note_off_c, 2, 81, 0
4, 605928, Note_off_c, 2, 81, 0
4, 605952, Note_on_c, 2, 80, 65
4, 606272, Note_off_c, 2, 80, 0
4, 606720, Note_on_c, 2, 85, 65
4, 606720, Note_on_c, 2, 91, 65
4, 607040, Note_off_c, 2, 85, 0
4, 607104, Note_on_c, 2, 86, 65
4, 607424, Note_off_c, 2, 86, 0
4, 607488, Note_on_c, 2, 85, 65
4, 607808, Note_off_c, 2, 85, 0
4, 607872, Note_on_c, 2, 86, 65
4, 608192, Note_off_c, 2, 86, 0
4, 608256, Note_on_c, 2, 85, 65
4, 608576, Note_off_c, 2, 85, 0
4, 608640, Note_on_c, 2, 86, 65
4, 608640, Note_on_c, 2, 89, 65
4, 608744, Note_off_c, 2, 89, 0
4, 608768, Note_on_c, 2, 88, 65
4, 608800, Note_off_c, 2, 91, 64
4, 608872, Note_off_c, 2, 88, 0
4, 608896, Note_on_c, 2, 86, 65
4, 608960, Note_off_c, 2, 86, 0
4, 609000, Note_off_c, 2, 86, 0
4, 609024, Note_on_c, 2, 85, 65
4, 609344, Note_off_c, 2, 85, 0
4, 609792, Note_on_c, 2, 78, 65
4, 609952, Note_off_c, 2, 78, 0
4, 610176, Note_on_c, 2, 76, 65
4, 610336, Note_off_c, 2, 76, 0
4, 610560, Note_on_c, 2, 74, 65
4, 610720, Note_off_c, 2, 74, 0
4, 610944, Note_on_c, 2, 73, 65
4, 611104, Note_off_c, 2, 73, 0
4, 611328, Note_on_c, 2, 71, 65
4, 611488, Note_off_c, 2, 71, 0
4, 611712, Note_on_c, 2, 69, 65
4, 611872, Note_off_c, 2, 69, 0
4, 612096, Note_on_c, 2, 68, 65
4, 612256, Note_off_c, 2, 68, 0
4, 612480, Note_on_c, 2, 66, 65
4, 612640, Note_off_c, 2, 66, 0
4, 612864, Note_on_c, 2, 76, 65
4, 612864, Note_on_c, 2, 64, 65
4, 613024, Note_off_c, 2, 76, 0
4, 613024, Note_off_c, 2, 64, 0
4, 613248, Note_on_c, 2, 74, 65
4, 613408, Note_off_c, 2, 74, 0
4, 613632, Note_on_c, 2, 73, 65
4, 613792, Note_off_c, 2, 73, 0
4, 614016, Note_on_c, 2, 71, 65
4, 614176, Note_off_c, 2, 71, 0
4, 614400, Note_on_c, 2, 69, 65
4, 614560, Note_off_c, 2, 69, 0
4, 614784, Note_on_c, 2, 68, 65
4, 614944, Note_off_c, 2, 68, 0
4, 615168, Note_on_c, 2, 66, 65
4, 615328, Note_off_c, 2, 66, 0
4, 615552, Note_on_c, 2, 64, 65
4, 615712, Note_off_c, 2, 64, 0
4, 615936, Note_on_c, 2, 86, 65
4, 615936, Note_on_c, 2, 80, 65
4, 615936, Note_on_c, 2, 77, 65
4, 615936, Note_on_c, 2, 74, 65
4, 617468, Note_off_c, 2, 86, 0
4, 617468, Note_off_c, 2, 80, 0
4, 617468, Note_off_c, 2, 77, 0
4, 617468, Note_off_c, 2, 74, 0
4, 617472, Note_on_c, 2, 85, 65
4, 617472, Note_on_c, 2, 82, 65
4, 617472, Note_on_c, 2, 79, 65
4, 617472, Note_on_c, 2, 76, 65
4, 617472, Note_on_c, 2, 73, 65
4, 619004, Note_off_c, 2, 85, 0
4, 619004, Note_off_c, 2, 82, 0
4, 619004, Note_off_c, 2, 79, 0
4, 619004, Note_off_c, 2, 76, 0
4, 619004, Note_off_c, 2, 73, 0
4, 619008, Note_on_c, 2, 83, 65
4, 619008, Note_on_c, 2, 78, 65
4, 619008, Note_on_c, 2, 71, 65
4, 620400, Note_off_c, 2, 83, 0
4, 620400, Note_off_c, 2, 78, 0
4, 620400, Note_off_c, 2, 71, 0
4, 620544, Note_on_c, 2, 84, 65
4, 620544, Note_on_c, 2, 81, 65
4, 620544, Note_on_c, 2, 78, 65
4, 620544, Note_on_c, 2, 72, 65
4, 622076, Note_off_c, 2, 84, 0
4, 622076, Note_off_c, 2, 81, 0
4, 622076, Note_off_c, 2, 78, 0
4, 622076, Note_off_c, 2, 72, 0
4, 622080, Note_on_c, 2, 85, 65
4, 622080, Note_on_c, 2, 81, 65
4, 622080, Note_on_c, 2, 76, 65
4, 622080, Note_on_c, 2, 73, 65
4, 622400, Note_off_c, 2, 85, 0
4, 622400, Note_off_c, 2, 81, 0
4, 622400, Note_off_c, 2, 76, 0
4, 622400, Note_off_c, 2, 73, 0
4, 632824, Program_c, 2, 45
4, 632832, Note_on_c, 2, 74, 55
4, 632832, Note_on_c, 2, 71, 55
4, 632832, Note_on_c, 2, 68, 55
4, 632832, Note_on_c, 2, 64, 55
4, 632992, Note_off_c, 2, 74, 0
4, 632992, Note_off_c, 2, 71, 0
4, 632992, Note_off_c, 2, 68, 0
4, 632992, Note_off_c, 2, 64, 0
4, 634368, Note_on_c, 2, 73, 55
4, 634368, Note_on_c, 2, 69, 55
4, 634368, Note_on_c, 2, 64, 55
4, 634528, Note_off_c, 2, 73, 0
4, 634528, Note_off_c, 2, 69, 0
4, 634528, Note_off_c, 2, 64, 0
4, 635904, Note_on_c, 2, 71, 55
4, 635904, Note_on_c, 2, 68, 55
4, 635904, Note_on_c, 2, 64, 55
4, 635904, Note_on_c, 2, 62, 55
4, 636064, Note_off_c, 2, 71, 0
4, 636064, Note_off_c, 2, 68, 0
4, 636064, Note_off_c, 2, 64, 0
4, 636064, Note_off_c, 2, 62, 0
4, 637440, Note_on_c, 2, 69, 55
4, 637440, Note_on_c, 2, 64, 55
4, 637440, Note_on_c, 2, 61, 55
4, 637600, Note_off_c, 2, 69, 0
4, 637600, Note_off_c, 2, 64, 0
4, 637600, Note_off_c, 2, 61, 0
4, 638976, Note_on_c, 2, 80, 55
4, 638976, Note_on_c, 2, 76, 55
4, 638976, Note_on_c, 2, 74, 55
4, 638976, Note_on_c, 2, 71, 55
4, 639136, Note_off_c, 2, 80, 0
4, 639136, Note_off_c, 2, 76, 0
4, 639136, Note_off_c, 2, 74, 0
4, 639136, Note_off_c, 2, 71, 0
4, 640512, Note_on_c, 2, 81, 55
4, 640512, Note_on_c, 2, 76, 55
4, 640512, Note_on_c, 2, 73, 55
4, 640512, Note_on_c, 2, 69, 55
4, 640672, Note_off_c, 2, 81, 0
4, 640672, Note_off_c, 2, 76, 0
4, 640672, Note_off_c, 2, 73, 0
4, 640672, Note_off_c, 2, 69, 0
4, 642040, Program_c, 2, 48
4, 642048, Note_on_c, 2, 59, 65
4, 642048, Note_on_c, 2, 64, 65
4, 642368, Note_off_c, 2, 59, 0
4, 643196, Note_off_c, 2, 64, 0
4, 643200, Note_on_c, 2, 66, 65
4, 643388, Note_off_c, 2, 66, 0
4, 643392, Note_on_c, 2, 68, 65
4, 643580, Note_off_c, 2, 68, 0
4, 643584, Note_on_c, 2, 69, 65
4, 643904, Note_off_c, 2, 69, 0
4, 643968, Note_on_c, 2, 69, 65
4, 644128, Note_off_c, 2, 69, 0
4, 644352, Note_on_c, 2, 69, 65
4, 644540, Note_off_c, 2, 69, 0
4, 644544, Note_on_c, 2, 71, 65
4, 644732, Note_off_c, 2, 71, 0
4, 644736, Note_on_c, 2, 73, 65
4, 644924, Note_off_c, 2, 73, 0
4, 644928, Note_on_c, 2, 74, 65
4, 645116, Note_off_c, 2, 74, 0
4, 645120, Note_on_c, 2, 76, 65
4, 645440, Note_off_c, 2, 76, 0
4, 645504, Note_on_c, 2, 76, 65
4, 645824, Note_off_c, 2, 76, 0
4, 645888, Note_on_c, 2, 76, 65
4, 646268, Note_off_c, 2, 76, 0
4, 646272, Note_on_c, 2, 78, 65
4, 646460, Note_off_c, 2, 78, 0
4, 646464, Note_on_c, 2, 80, 65
4, 646652, Note_off_c, 2, 80, 0
4, 646656, Note_on_c, 2, 81, 65
4, 646976, Note_off_c, 2, 81, 0
4, 647040, Note_on_c, 2, 81, 65
4, 647360, Note_off_c, 2, 81, 0
4, 647424, Note_on_c, 2, 81, 65
4, 647612, Note_off_c, 2, 81, 0
4, 647616, Note_on_c, 2, 83, 65
4, 647804, Note_off_c, 2, 83, 0
4, 647808, Note_on_c, 2, 85, 65
4, 647996, Note_off_c, 2, 85, 0
4, 648000, Note_on_c, 2, 86, 65
4, 648188, Note_off_c, 2, 86, 0
4, 648192, Note_on_c, 2, 88, 65
4, 648512, Note_off_c, 2, 88, 0
4, 648576, Note_on_c, 2, 88, 65
4, 648896, Note_off_c, 2, 88, 0
4, 648960, Note_on_c, 2, 88, 65
4, 649148, Note_off_c, 2, 88, 0
4, 649152, Note_on_c, 2, 86, 65
4, 649340, Note_off_c, 2, 86, 0
4, 649344, Note_on_c, 2, 85, 65
4, 649532, Note_off_c, 2, 85, 0
4, 649536, Note_on_c, 2, 83, 65
4, 649724, Note_off_c, 2, 83, 0
4, 649728, Note_on_c, 2, 81, 65
4, 650048, Note_off_c, 2, 81, 0
4, 652416, Note_on_c, 2, 80, 65
4, 652416, Note_on_c, 2, 76, 65
4, 652416, Note_on_c, 2, 74, 65
4, 652416, Note_on_c, 2, 71, 65
4, 652796, Note_off_c, 2, 80, 0
4, 652796, Note_off_c, 2, 76, 0
4, 652796, Note_off_c, 2, 74, 0
4, 652796, Note_off_c, 2, 71, 0
4, 652800, Note_on_c, 2, 81, 65
4, 652800, Note_on_c, 2, 76, 65
4, 652800, Note_on_c, 2, 73, 65
4, 652800, Note_on_c, 2, 69, 65
4, 653424, Note_off_c, 2, 81, 0
4, 653424, Note_off_c, 2, 76, 0
4, 653424, Note_off_c, 2, 73, 0
4, 653424, Note_off_c, 2, 69, 0
4, 655488, Note_on_c, 2, 77, 65
4, 655488, Note_on_c, 2, 73, 65
4, 655488, Note_on_c, 2, 71, 65
4, 655488, Note_on_c, 2, 68, 65
4, 655868, Note_off_c, 2, 77, 0
4, 655868, Note_off_c, 2, 73, 0
4, 655868, Note_off_c, 2, 71, 0
4, 655868, Note_off_c, 2, 68, 0
4, 655872, Note_on_c, 2, 78, 65
4, 655872, Note_on_c, 2, 73, 65
4, 655872, Note_on_c, 2, 69, 65
4, 655872, Note_on_c, 2, 66, 65
4, 656496, Note_off_c, 2, 78, 0
4, 656496, Note_off_c, 2, 73, 0
4, 656496, Note_off_c, 2, 69, 0
4, 656496, Note_off_c, 2, 66, 0
4, 658560, Note_on_c, 2, 61, 65
4, 658560, Note_on_c, 2, 57, 65
4, 658940, Note_off_c, 2, 61, 0
4, 658940, Note_off_c, 2, 57, 0
4, 658944, Note_on_c, 2, 62, 65
4, 658944, Note_on_c, 2, 57, 65
4, 659324, Note_off_c, 2, 62, 0
4, 659328, Note_on_c, 2, 64, 65
4, 659708, Note_off_c, 2, 64, 0
4, 659712, Note_on_c, 2, 66, 65
4, 660092, Note_off_c, 2, 57, 0
4, 660092, Note_off_c, 2, 66, 0
4, 660096, Note_on_c, 2, 68, 65
4, 660096, Note_on_c, 2, 62, 65
4, 660476, Note_off_c, 2, 68, 0
4, 660476, Note_off_c, 2, 62, 0
4, 660480, Note_on_c, 2, 69, 65
4, 660480, Note_on_c, 2, 61, 65
4, 660860, Note_off_c, 2, 69, 0
4, 660860, Note_off_c, 2, 61, 0
4, 660864, Note_on_c, 2, 71, 65
4, 660864, Note_on_c, 2, 64, 65
4, 661244, Note_off_c, 2, 71, 0
4, 661248, Note_on_c, 2, 73, 65
4, 661628, Note_off_c, 2, 64, 0
4, 661628, Note_off_c, 2, 73, 0
4, 661632, Note_on_c, 2, 75, 65
4, 661632, Note_on_c, 2, 69, 65
4, 662012, Note_off_c, 2, 75, 0
4, 662012, Note_off_c, 2, 69, 0
4, 662016, Note_on_c, 2, 76, 65
4, 662016, Note_on_c, 2, 68, 65
4, 662336, Note_off_c, 2, 76, 0
4, 662336, Note_off_c, 2, 68, 0
4, 662400, Note_on_c, 2, 68, 65
4, 662400, Note_on_c, 2, 64, 65
4, 662400, Note_on_c, 2, 59, 65
4, 662560, Note_off_c, 2, 68, 0
4, 662560, Note_off_c, 2, 64, 0
4, 662560, Note_off_c, 2, 59, 0
4, 662784, Note_on_c, 2, 68, 65
4, 662784, Note_on_c, 2, 64, 65
4, 662784, Note_on_c, 2, 59, 65
4, 662944, Note_off_c, 2, 68, 0
4, 662944, Note_off_c, 2, 64, 0
4, 662944, Note_off_c, 2, 59, 0
4, 663168, Note_on_c, 2, 68, 65
4, 663168, Note_on_c, 2, 64, 65
4, 663168, Note_on_c, 2, 59, 65
4, 663328, Note_off_c, 2, 68, 0
4, 663328, Note_off_c, 2, 64, 0
4, 663328, Note_off_c, 2, 59, 0
4, 663936, Note_on_c, 2, 69, 65
4, 663936, Note_on_c, 2, 66, 65
4, 663936, Note_on_c, 2, 59, 65
4, 664096, Note_off_c, 2, 69, 0
4, 664096, Note_off_c, 2, 66, 0
4, 664096, Note_off_c, 2, 59, 0
4, 664320, Note_on_c, 2, 69, 65
4, 664320, Note_on_c, 2, 66, 65
4, 664320, Note_on_c, 2, 59, 65
4, 664480, Note_off_c, 2, 69, 0
4, 664480, Note_off_c, 2, 66, 0
4, 664480, Note_off_c, 2, 59, 0
4, 664704, Note_on_c, 2, 69, 65
4, 664704, Note_on_c, 2, 66, 65
4, 664704, Note_on_c, 2, 59, 65
4, 664864, Note_off_c, 2, 69, 0
4, 664864, Note_off_c, 2, 66, 0
4, 664864, Note_off_c, 2, 59, 0
4, 665088, Note_on_c, 2, 68, 65
4, 665088, Note_on_c, 2, 64, 65
4, 665408, Note_off_c, 2, 68, 0
4, 665408, Note_off_c, 2, 64, 0
4, 665472, Note_on_c, 2, 71, 65
4, 665852, Note_off_c, 2, 71, 0
4, 665856, Note_on_c, 2, 83, 65
4, 666236, Note_off_c, 2, 83, 0
4, 666240, Note_on_c, 2, 71, 65
4, 666560, Note_off_c, 2, 71, 0
4, 667008, Note_on_c, 2, 71, 65
4, 667388, Note_off_c, 2, 71, 0
4, 667392, Note_on_c, 2, 83, 65
4, 667772, Note_off_c, 2, 83, 0
4, 667776, Note_on_c, 2, 71, 65
4, 668096, Note_off_c, 2, 71, 0
4, 668544, Note_on_c, 2, 71, 65
4, 668924, Note_off_c, 2, 71, 0
4, 668928, Note_on_c, 2, 83, 65
4, 669308, Note_off_c, 2, 83, 0
4, 669312, Note_on_c, 2, 71, 65
4, 669632, Note_off_c, 2, 71, 0
4, 670080, Note_on_c, 2, 71, 65
4, 670460, Note_off_c, 2, 71, 0
4, 670464, Note_on_c, 2, 83, 65
4, 670844, Note_off_c, 2, 83, 0
4, 670848, Note_on_c, 2, 71, 65
4, 671168, Note_off_c, 2, 71, 0
4, 671232, Note_on_c, 2, 80, 65
4, 671232, Note_on_c, 2, 71, 65
4, 671856, Note_off_c, 2, 80, 0
4, 671856, Note_off_c, 2, 71, 0
4, 672000, Note_on_c, 2, 64, 65
4, 672000, Note_on_c, 2, 76, 65
4, 672764, Note_off_c, 2, 64, 0
4, 672764, Note_off_c, 2, 76, 0
4, 672768, Note_on_c, 2, 76, 65
4, 672768, Note_on_c, 2, 64, 65
4, 673088, Note_off_c, 2, 76, 0
4, 673088, Note_off_c, 2, 64, 0
4, 673152, Note_on_c, 2, 77, 65
4, 673152, Note_on_c, 2, 65, 65
4, 673532, Note_off_c, 2, 77, 0
4, 673532, Note_off_c, 2, 65, 0
4, 673536, Note_on_c, 2, 78, 65
4, 673536, Note_on_c, 2, 66, 65
4, 673916, Note_off_c, 2, 78, 0
4, 673916, Note_off_c, 2, 66, 0
4, 673920, Note_on_c, 2, 79, 65
4, 673920, Note_on_c, 2, 67, 65
4, 674300, Note_off_c, 2, 79, 0
4, 674300, Note_off_c, 2, 67, 0
4, 674304, Note_on_c, 2, 80, 65
4, 674304, Note_on_c, 2, 68, 65
4, 674684, Note_off_c, 2, 80, 0
4, 674684, Note_off_c, 2, 68, 0
4, 674688, Note_on_c, 2, 69, 65
4, 674688, Note_on_c, 2, 81, 65
4, 675068, Note_off_c, 2, 69, 0
4, 675068, Note_off_c, 2, 81, 0
4, 675072, Note_on_c, 2, 82, 65
4, 675072, Note_on_c, 2, 70, 65
4, 675452, Note_off_c, 2, 82, 0
4, 675452, Note_off_c, 2, 70, 0
4, 675456, Note_on_c, 2, 83, 65
4, 675456, Note_on_c, 2, 71, 65
4, 675836, Note_off_c, 2, 83, 0
4, 675836, Note_off_c, 2, 71, 0
4, 675840, Note_on_c, 2, 84, 65
4, 675840, Note_on_c, 2, 72, 65
4, 676220, Note_off_c, 2, 84, 0
4, 676220, Note_off_c, 2, 72, 0
4, 676224, Note_on_c, 2, 85, 65
4, 676224, Note_on_c, 2, 73, 65
4, 676604, Note_off_c, 2, 85, 0
4, 676604, Note_off_c, 2, 73, 0
4, 676608, Note_on_c, 2, 74, 65
4, 676608, Note_on_c, 2, 86, 65
4, 676988, Note_off_c, 2, 74, 0
4, 676988, Note_off_c, 2, 86, 0
4, 676992, Note_on_c, 2, 87, 65
4, 676992, Note_on_c, 2, 75, 65
4, 677372, Note_off_c, 2, 87, 0
4, 677372, Note_off_c, 2, 75, 0
4, 677376, Note_on_c, 2, 88, 65
4, 677376, Note_on_c, 2, 76, 65
4, 677696, Note_off_c, 2, 88, 0
4, 677696, Note_off_c, 2, 76, 0
4, 683520, Note_on_c, 2, 76, 65
4, 683520, Note_on_c, 2, 73, 65
4, 683520, Note_on_c, 2, 64, 65
4, 685052, Note_off_c, 2, 76, 0
4, 685052, Note_off_c, 2, 73, 0
4, 685052, Note_off_c, 2, 64, 0
4, 685056, Note_on_c, 2, 78, 65
4, 685056, Note_on_c, 2, 74, 65
4, 685056, Note_on_c, 2, 66, 65
4, 686448, Note_off_c, 2, 78, 0
4, 686448, Note_off_c, 2, 74, 0
4, 686448, Note_off_c, 2, 66, 0
4, 686592, Note_on_c, 2, 76, 65
4, 686592, Note_on_c, 2, 73, 65
4, 686592, Note_on_c, 2, 64, 65
4, 686972, Note_off_c, 2, 76, 0
4, 686972, Note_off_c, 2, 73, 0
4, 686972, Note_off_c, 2, 64, 0
4, 686976, Note_on_c, 2, 74, 65
4, 686976, Note_on_c, 2, 71, 65
4, 686976, Note_on_c, 2, 62, 65
4, 687356, Note_off_c, 2, 74, 0
4, 687356, Note_off_c, 2, 71, 0
4, 687356, Note_off_c, 2, 62, 0
4, 687360, Note_on_c, 2, 73, 65
4, 687360, Note_on_c, 2, 69, 65
4, 687740, Note_off_c, 2, 73, 0
4, 687740, Note_off_c, 2, 69, 0
4, 687744, Note_on_c, 2, 71, 65
4, 687744, Note_on_c, 2, 68, 65
4, 688124, Note_off_c, 2, 71, 0
4, 688124, Note_off_c, 2, 68, 0
4, 688128, Note_on_c, 2, 69, 65
4, 688448, Note_off_c, 2, 69, 0
4, 689664, Note_on_c, 2, 76, 90
4, 689664, Note_on_c, 2, 73, 90
4, 689664, Note_on_c, 2, 69, 90
4, 689984, Note_off_c, 2, 76, 0
4, 689984, Note_off_c, 2, 73, 0
4, 689984, Note_off_c, 2, 69, 0
4, 690432, Note_on_c, 2, 69, 90
4, 690752, Note_off_c, 2, 69, 0
4, 691200, Note_on_c, 2, 81, 90
4, 691200, Note_on_c, 2, 78, 90
4, 691200, Note_on_c, 2, 74, 90
4, 691200, Note_on_c, 2, 69, 90
4, 692128, Note_off_c, 2, 81, 0
4, 692128, Note_off_c, 2, 78, 0
4, 692128, Note_off_c, 2, 74, 0
4, 692128, Note_off_c, 2, 69, 0
4, 692352, Note_on_c, 2, 80, 90
4, 692540, Note_off_c, 2, 80, 0
4, 692544, Note_on_c, 2, 78, 90
4, 692704, Note_off_c, 2, 78, 0
4, 692736, Note_on_c, 2, 78, 90
4, 692736, Note_on_c, 2, 69, 90
4, 692924, Note_off_c, 2, 78, 0
4, 692928, Note_on_c, 2, 76, 90
4, 693056, Note_off_c, 2, 69, 0
4, 693088, Note_off_c, 2, 76, 0
4, 693120, Note_on_c, 2, 74, 90
4, 693120, Note_on_c, 2, 69, 90
4, 693308, Note_off_c, 2, 74, 0
4, 693312, Note_on_c, 2, 73, 90
4, 693440, Note_off_c, 2, 69, 0
4, 693472, Note_off_c, 2, 73, 0
4, 693504, Note_on_c, 2, 74, 90
4, 693504, Note_on_c, 2, 68, 90
4, 693692, Note_off_c, 2, 74, 0
4, 693696, Note_on_c, 2, 71, 90
4, 693824, Note_off_c, 2, 68, 0
4, 693856, Note_off_c, 2, 71, 0
4, 693888, Note_on_c, 2, 73, 90
4, 693888, Note_on_c, 2, 69, 90
4, 694076, Note_off_c, 2, 73, 0
4, 694080, Note_on_c, 2, 69, 90
4, 694208, Note_off_c, 2, 69, 0
4, 694240, Note_off_c, 2, 69, 0
4, 694272, Note_on_c, 2, 68, 90
4, 694272, Note_on_c, 2, 71, 90
4, 694460, Note_off_c, 2, 71, 0
4, 694464, Note_on_c, 2, 76, 90
4, 694592, Note_off_c, 2, 68, 0
4, 694624, Note_off_c, 2, 76, 0
4, 694656, Note_on_c, 2, 64, 90
4, 694656, Note_on_c, 2, 75, 90
4, 694844, Note_off_c, 2, 75, 0
4, 694848, Note_on_c, 2, 76, 90
4, 694976, Note_off_c, 2, 64, 0
4, 695008, Note_off_c, 2, 76, 0
4, 695040, Note_on_c, 2, 64, 90
4, 695040, Note_on_c, 2, 75, 90
4, 695228, Note_off_c, 2, 75, 0
4, 695232, Note_on_c, 2, 76, 90
4, 695360, Note_off_c, 2, 64, 0
4, 695392, Note_off_c, 2, 76, 0
4, 695424, Note_on_c, 2, 64, 90
4, 695424, Note_on_c, 2, 78, 90
4, 695612, Note_off_c, 2, 78, 0
4, 695616, Note_on_c, 2, 76, 90
4, 695744, Note_off_c, 2, 64, 0
4, 695776, Note_off_c, 2, 76, 0
4, 695808, Note_on_c, 2, 76, 90
4, 695808, Note_on_c, 2, 73, 90
4, 695808, Note_on_c, 2, 69, 90
4, 695808, Note_on_c, 2, 64, 90
4, 696188, Note_off_c, 2, 76, 0
4, 696188, Note_off_c, 2, 73, 0
4, 696188, Note_off_c, 2, 69, 0
4, 696188, Note_off_c, 2, 64, 0
4, 696576, Note_on_c, 2, 69, 90
4, 696956, Note_off_c, 2, 69, 0
4, 697344, Note_on_c, 2, 81, 90
4, 697344, Note_on_c, 2, 78, 90
4, 697344, Note_on_c, 2, 74, 90
4, 697344, Note_on_c, 2, 69, 90
4, 697724, Note_off_c, 2, 81, 0
4, 697724, Note_off_c, 2, 78, 0
4, 697724, Note_off_c, 2, 74, 0
4, 697724, Note_off_c, 2, 69, 0
4, 697728, Note_on_c, 2, 69, 90
4, 697728, Note_on_c, 2, 81, 90
4, 698108, Note_off_c, 2, 69, 0
4, 698112, Note_on_c, 2, 69, 90
4, 698492, Note_off_c, 2, 81, 0
4, 698492, Note_off_c, 2, 69, 0
4, 698496, Note_on_c, 2, 69, 90
4, 698496, Note_on_c, 2, 80, 90
4, 698684, Note_off_c, 2, 80, 0
4, 698688, Note_on_c, 2, 78, 90
4, 698876, Note_off_c, 2, 69, 0
4, 698876, Note_off_c, 2, 78, 0
4, 698880, Note_on_c, 2, 76, 90
4, 698880, Note_on_c, 2, 69, 90
4, 699068, Note_off_c, 2, 76, 0
4, 699068, Note_off_c, 2, 69, 0
4, 699072, Note_on_c, 2, 81, 90
4, 699260, Note_off_c, 2, 81, 0
4, 699264, Note_on_c, 2, 78, 90
4, 699264, Note_on_c, 2, 74, 90
4, 699452, Note_off_c, 2, 78, 0
4, 699452, Note_off_c, 2, 74, 0
4, 699456, Note_on_c, 2, 74, 90
4, 699456, Note_on_c, 2, 71, 90
4, 699644, Note_off_c, 2, 74, 0
4, 699644, Note_off_c, 2, 71, 0
4, 699648, Note_on_c, 2, 73, 90
4, 699648, Note_on_c, 2, 69, 90
4, 699836, Note_off_c, 2, 73, 0
4, 699836, Note_off_c, 2, 69, 0
4, 699840, Note_on_c, 2, 76, 90
4, 699840, Note_on_c, 2, 73, 90
4, 700028, Note_off_c, 2, 76, 0
4, 700028, Note_off_c, 2, 73, 0
4, 700032, Note_on_c, 2, 74, 90
4, 700032, Note_on_c, 2, 71, 90
4, 700220, Note_off_c, 2, 74, 0
4, 700220, Note_off_c, 2, 71, 0
4, 700224, Note_on_c, 2, 71, 90
4, 700224, Note_on_c, 2, 68, 90
4, 700412, Note_off_c, 2, 71, 0
4, 700412, Note_off_c, 2, 68, 0
4, 700416, Note_on_c, 2, 69, 90
4, 700416, Note_on_c, 2, 61, 90
4, 700736, Note_off_c, 2, 69, 0
4, 700736, Note_off_c, 2, 61, 0
4, 701184, Note_on_c, 2, 73, 65
4, 701184, Note_on_c, 2, 69, 65
4, 701344, Note_off_c, 2, 73, 0
4, 701344, Note_off_c, 2, 69, 0
4, 701568, Note_on_c, 2, 73, 65
4, 701568, Note_on_c, 2, 69, 65
4, 701948, Note_off_c, 2, 73, 0
4, 701948, Note_off_c, 2, 69, 0
4, 701952, Note_on_c, 2, 68, 65
4, 701952, Note_on_c, 2, 71, 65
4, 702576, Note_off_c, 2, 68, 0
4, 702576, Note_off_c, 2, 71, 0
4, 702720, Note_on_c, 2, 74, 65
4, 702720, Note_on_c, 2, 66, 65
4, 702720, Note_on_c, 2, 71, 65
4, 702880, Note_off_c, 2, 74, 0
4, 702880, Note_off_c, 2, 66, 0
4, 702880, Note_off_c, 2, 71, 0
4, 703104, Note_on_c, 2, 74, 65
4, 703104, Note_on_c, 2, 71, 65
4, 703484, Note_off_c, 2, 74, 0
4, 703484, Note_off_c, 2, 71, 0
4, 703488, Note_on_c, 2, 73, 65
4, 703488, Note_on_c, 2, 69, 65
4, 704112, Note_off_c, 2, 73, 0
4, 704112, Note_off_c, 2, 69, 0
4, 704256, Note_on_c, 2, 78, 65
4, 704256, Note_on_c, 2, 74, 65
4, 704256, Note_on_c, 2, 69, 65
4, 704416, Note_off_c, 2, 78, 0
4, 704416, Note_off_c, 2, 74, 0
4, 704416, Note_off_c, 2, 69, 0
4, 704640, Note_on_c, 2, 78, 65
4, 704640, Note_on_c, 2, 74, 65
4, 705020, Note_off_c, 2, 78, 0
4, 705020, Note_off_c, 2, 74, 0
4, 705024, Note_on_c, 2, 76, 65
4, 705024, Note_on_c, 2, 71, 65
4, 705788, Note_off_c, 2, 71, 0
4, 705792, Note_on_c, 2, 69, 65
4, 705952, Note_off_c, 2, 76, 0
4, 706112, Note_off_c, 2, 69, 0
4, 706176, Note_on_c, 2, 74, 65
4, 706176, Note_on_c, 2, 66, 65
4, 706176, Note_on_c, 2, 71, 65
4, 706496, Note_off_c, 2, 74, 0
4, 706496, Note_off_c, 2, 66, 0
4, 706496, Note_off_c, 2, 71, 0
4, 706560, Note_on_c, 2, 73, 65
4, 706560, Note_on_c, 2, 69, 65
4, 706940, Note_off_c, 2, 73, 0
4, 706940, Note_off_c, 2, 69, 0
4, 706944, Note_on_c, 2, 71, 65
4, 706944, Note_on_c, 2, 68, 65
4, 707264, Note_off_c, 2, 71, 0
4, 707264, Note_off_c, 2, 68, 0
4, 707328, Note_on_c, 2, 68, 65
4, 707328, Note_on_c, 2, 76, 65
4, 708092, Note_off_c, 2, 68, 0
4, 708096, Note_on_c, 2, 69, 65
4, 708720, Note_off_c, 2, 76, 0
4, 708864, Note_on_c, 2, 74, 65
4, 709024, Note_off_c, 2, 69, 0
4, 709248, Note_on_c, 2, 71, 65
4, 709436, Note_off_c, 2, 71, 0
4, 709440, Note_on_c, 2, 69, 65
4, 709628, Note_off_c, 2, 69, 0
4, 709632, Note_on_c, 2, 68, 65
4, 709952, Note_off_c, 2, 68, 0
4, 710016, Note_on_c, 2, 71, 65
4, 710016, Note_on_c, 2, 64, 65
4, 710256, Note_off_c, 2, 74, 0
4, 710396, Note_off_c, 2, 71, 0
4, 710396, Note_off_c, 2, 64, 0
4, 710400, Note_on_c, 2, 69, 65
4, 710400, Note_on_c, 2, 73, 65
4, 710780, Note_off_c, 2, 69, 0
4, 710784, Note_on_c, 2, 68, 65
4, 711164, Note_off_c, 2, 68, 0
4, 711168, Note_on_c, 2, 66, 65
4, 711488, Note_off_c, 2, 66, 0
4, 711488, Note_off_c, 2, 73, 0
4, 711552, Note_on_c, 2, 66, 65
4, 711552, Note_on_c, 2, 71, 65
4, 711552, Note_on_c, 2, 74, 65
4, 711932, Note_off_c, 2, 66, 0
4, 711932, Note_off_c, 2, 71, 0
4, 711932, Note_off_c, 2, 74, 0
4, 711936, Note_on_c, 2, 64, 65
4, 711936, Note_on_c, 2, 73, 65
4, 711936, Note_on_c, 2, 69, 65
4, 712316, Note_off_c, 2, 64, 0
4, 712316, Note_off_c, 2, 73, 0
4, 712316, Note_off_c, 2, 69, 0
4, 712320, Note_on_c, 2, 62, 65
4, 712320, Note_on_c, 2, 71, 65
4, 712320, Note_on_c, 2, 68, 65
4, 712640, Note_off_c, 2, 62, 0
4, 712640, Note_off_c, 2, 71, 0
4, 712640, Note_off_c, 2, 68, 0
4, 712704, Note_on_c, 2, 71, 65
4, 712704, Note_on_c, 2, 68, 65
4, 712704, Note_on_c, 2, 62, 65
4, 713084, Note_off_c, 2, 71, 0
4, 713084, Note_off_c, 2, 68, 0
4, 713084, Note_off_c, 2, 62, 0
4, 713088, Note_on_c, 2, 73, 65
4, 713088, Note_on_c, 2, 69, 65
4, 713088, Note_on_c, 2, 61, 65
4, 713408, Note_off_c, 2, 73, 0
4, 713408, Note_off_c, 2, 69, 0
4, 713408, Note_off_c, 2, 61, 0
4, 713472, Note_on_c, 2, 73, 65
4, 713472, Note_on_c, 2, 69, 65
4, 713472, Note_on_c, 2, 64, 65
4, 713792, Note_off_c, 2, 73, 0
4, 713792, Note_off_c, 2, 69, 0
4, 713792, Note_off_c, 2, 64, 0
4, 714240, Note_on_c, 2, 71, 65
4, 714240, Note_on_c, 2, 68, 65
4, 714240, Note_on_c, 2, 64, 65
4, 714560, Note_off_c, 2, 71, 0
4, 714560, Note_off_c, 2, 68, 0
4, 714560, Note_off_c, 2, 64, 0
4, 715008, Note_on_c, 2, 74, 65
4, 715008, Note_on_c, 2, 71, 65
4, 715008, Note_on_c, 2, 66, 65
4, 715328, Note_off_c, 2, 74, 0
4, 715328, Note_off_c, 2, 71, 0
4, 715328, Note_off_c, 2, 66, 0
4, 715776, Note_on_c, 2, 73, 65
4, 715776, Note_on_c, 2, 69, 65
4, 715776, Note_on_c, 2, 66, 65
4, 716096, Note_off_c, 2, 73, 0
4, 716096, Note_off_c, 2, 69, 0
4, 716096, Note_off_c, 2, 66, 0
4, 716544, Note_on_c, 2, 78, 65
4, 716544, Note_on_c, 2, 74, 65
4, 716544, Note_on_c, 2, 69, 65
4, 717308, Note_off_c, 2, 78, 0
4, 717308, Note_off_c, 2, 74, 0
4, 717308, Note_off_c, 2, 69, 0
4, 717312, Note_on_c, 2, 76, 65
4, 717312, Note_on_c, 2, 71, 65
4, 717312, Note_on_c, 2, 68, 65
4, 717692, Note_off_c, 2, 71, 0
4, 717692, Note_off_c, 2, 68, 0
4, 717696, Note_on_c, 2, 73, 65
4, 717696, Note_on_c, 2, 69, 65
4, 718076, Note_off_c, 2, 76, 0
4, 718076, Note_off_c, 2, 73, 0
4, 718076, Note_off_c, 2, 69, 0
4, 718080, Note_on_c, 2, 74, 65
4, 718080, Note_on_c, 2, 71, 65
4, 718460, Note_off_c, 2, 74, 0
4, 718460, Note_off_c, 2, 71, 0
4, 718464, Note_on_c, 2, 73, 65
4, 718464, Note_on_c, 2, 69, 65
4, 718844, Note_off_c, 2, 73, 0
4, 718844, Note_off_c, 2, 69, 0
4, 718848, Note_on_c, 2, 73, 65
4, 718848, Note_on_c, 2, 69, 65
4, 719228, Note_off_c, 2, 73, 0
4, 719228, Note_off_c, 2, 69, 0
4, 719232, Note_on_c, 2, 71, 65
4, 719232, Note_on_c, 2, 68, 65
4, 719552, Note_off_c, 2, 71, 64
4, 719552, Note_off_c, 2, 68, 64
4, 719616, Note_on_c, 2, 80, 65
4, 719616, Note_on_c, 2, 88, 65
4, 719616, Note_on_c, 2, 76, 65
4, 720380, Note_off_c, 2, 80, 0
4, 720384, Note_on_c, 2, 81, 65
4, 721008, Note_off_c, 2, 88, 0
4, 721008, Note_off_c, 2, 76, 0
4, 721152, Note_on_c, 2, 74, 65
4, 721152, Note_on_c, 2, 86, 65
4, 721776, Note_off_c, 2, 81, 0
4, 721920, Note_on_c, 2, 80, 65
4, 722544, Note_off_c, 2, 80, 0
4, 722544, Note_off_c, 2, 74, 0
4, 722544, Note_off_c, 2, 86, 0
4, 722688, Note_on_c, 2, 85, 65
4, 722688, Note_on_c, 2, 73, 65
4, 722688, Note_on_c, 2, 81, 65
4, 723776, Note_off_c, 2, 85, 0
4, 723776, Note_off_c, 2, 73, 0
4, 723776, Note_off_c, 2, 81, 0
4, 723840, Note_on_c, 2, 86, 65
4, 723840, Note_on_c, 2, 74, 65
4, 724220, Note_off_c, 2, 86, 0
4, 724220, Note_off_c, 2, 74, 0
4, 724224, Note_on_c, 2, 85, 65
4, 724224, Note_on_c, 2, 73, 65
4, 724604, Note_off_c, 2, 85, 0
4, 724604, Note_off_c, 2, 73, 0
4, 724608, Note_on_c, 2, 83, 65
4, 724608, Note_on_c, 2, 71, 65
4, 724988, Note_off_c, 2, 83, 0
4, 724988, Note_off_c, 2, 71, 0
4, 724992, Note_on_c, 2, 81, 85
4, 724992, Note_on_c, 2, 73, 85
4, 724992, Note_on_c, 2, 69, 85
4, 725152, Note_off_c, 2, 81, 0
4, 725152, Note_off_c, 2, 73, 0
4, 725152, Note_off_c, 2, 69, 0
4, 725184, Note_on_c, 2, 76, 85
4, 725344, Note_off_c, 2, 76, 0
4, 725376, Note_on_c, 2, 76, 85
4, 725564, Note_off_c, 2, 76, 0
4, 725568, Note_on_c, 2, 78, 85
4, 725756, Note_off_c, 2, 78, 0
4, 725760, Note_on_c, 2, 80, 85
4, 725948, Note_off_c, 2, 80, 0
4, 725952, Note_on_c, 2, 76, 85
4, 726140, Note_off_c, 2, 76, 0
4, 726144, Note_on_c, 2, 78, 85
4, 726332, Note_off_c, 2, 78, 0
4, 726336, Note_on_c, 2, 80, 85
4, 726524, Note_off_c, 2, 80, 0
4, 726528, Note_on_c, 2, 81, 85
4, 726688, Note_off_c, 2, 81, 0
4, 726720, Note_on_c, 2, 78, 85
4, 726908, Note_off_c, 2, 78, 0
4, 726912, Note_on_c, 2, 80, 85
4, 727100, Note_off_c, 2, 80, 0
4, 727104, Note_on_c, 2, 81, 85
4, 727292, Note_off_c, 2, 81, 0
4, 727296, Note_on_c, 2, 83, 85
4, 727484, Note_off_c, 2, 83, 0
4, 727488, Note_on_c, 2, 78, 85
4, 727676, Note_off_c, 2, 78, 0
4, 727680, Note_on_c, 2, 83, 85
4, 727868, Note_off_c, 2, 83, 0
4, 727872, Note_on_c, 2, 81, 85
4, 728060, Note_off_c, 2, 81, 0
4, 728064, Note_on_c, 2, 80, 85
4, 728224, Note_off_c, 2, 80, 0
4, 728256, Note_on_c, 2, 76, 85
4, 728444, Note_off_c, 2, 76, 0
4, 728448, Note_on_c, 2, 78, 85
4, 728636, Note_off_c, 2, 78, 0
4, 728640, Note_on_c, 2, 80, 85
4, 728828, Note_off_c, 2, 80, 0
4, 728832, Note_on_c, 2, 81, 85
4, 729020, Note_off_c, 2, 81, 0
4, 729024, Note_on_c, 2, 83, 85
4, 729212, Note_off_c, 2, 83, 0
4, 729216, Note_on_c, 2, 85, 85
4, 729404, Note_off_c, 2, 85, 0
4, 729408, Note_on_c, 2, 81, 85
4, 729596, Note_off_c, 2, 81, 0
4, 729600, Note_on_c, 2, 86, 85
4, 729760, Note_off_c, 2, 86, 0
4, 729984, Note_on_c, 2, 86, 85
4, 730608, Note_off_c, 2, 86, 0
4, 730752, Note_on_c, 2, 86, 85
4, 731072, Note_off_c, 2, 86, 0
4, 731136, Note_on_c, 2, 86, 85
4, 731136, Note_on_c, 2, 76, 85
4, 731136, Note_on_c, 2, 74, 85
4, 731456, Note_off_c, 2, 86, 0
4, 731456, Note_off_c, 2, 76, 0
4, 731456, Note_off_c, 2, 74, 0
4, 731520, Note_on_c, 2, 76, 85
4, 731520, Note_on_c, 2, 71, 85
4, 731520, Note_on_c, 2, 74, 85
4, 731840, Note_off_c, 2, 76, 0
4, 731840, Note_off_c, 2, 71, 0
4, 731840, Note_off_c, 2, 74, 0
4, 731904, Note_on_c, 2, 85, 85
4, 731904, Note_on_c, 2, 76, 85
4, 731904, Note_on_c, 2, 73, 85
4, 732224, Note_off_c, 2, 85, 0
4, 732224, Note_off_c, 2, 76, 0
4, 732224, Note_off_c, 2, 73, 0
4, 732288, Note_on_c, 2, 69, 85
4, 732608, Note_off_c, 2, 69, 0
4, 732672, Note_on_c, 2, 83, 100
4, 733056, Note_on_c, 2, 78, 85
4, 733056, Note_on_c, 2, 74, 85
4, 733056, Note_on_c, 2, 71, 85
4, 733296, Note_off_c, 2, 83, 0
4, 733376, Note_off_c, 2, 78, 0
4, 733376, Note_off_c, 2, 74, 0
4, 733376, Note_off_c, 2, 71, 0
4, 733440, Note_on_c, 2, 80, 100
4, 733824, Note_on_c, 2, 74, 85
4, 733824, Note_on_c, 2, 71, 85
4, 733824, Note_on_c, 2, 68, 85
4, 734064, Note_off_c, 2, 80, 0
4, 734144, Note_off_c, 2, 74, 0
4, 734144, Note_off_c, 2, 71, 0
4, 734144, Note_off_c, 2, 68, 0
4, 734208, Note_on_c, 2, 81, 100
4, 734592, Note_on_c, 2, 78, 85
4, 734592, Note_on_c, 2, 73, 85
4, 734592, Note_on_c, 2, 69, 85
4, 734832, Note_off_c, 2, 81, 0
4, 734912, Note_off_c, 2, 78, 0
4, 734912, Note_off_c, 2, 73, 0
4, 734912, Note_off_c, 2, 69, 0
4, 734976, Note_on_c, 2, 90, 100
4, 735360, Note_on_c, 2, 86, 85
4, 735360, Note_on_c, 2, 81, 85
4, 735360, Note_on_c, 2, 78, 85
4, 735600, Note_off_c, 2, 90, 0
4, 735680, Note_off_c, 2, 86, 0
4, 735680, Note_off_c, 2, 81, 0
4, 735680, Note_off_c, 2, 78, 0
4, 735744, Note_on_c, 2, 85, 100
4, 736128, Note_on_c, 2, 81, 85
4, 736128, Note_on_c, 2, 76, 85
4, 736128, Note_on_c, 2, 73, 85
4, 736368, Note_off_c, 2, 85, 0
4, 736448, Note_off_c, 2, 81, 0
4, 736448, Note_off_c, 2, 76, 0
4, 736448, Note_off_c, 2, 73, 0
4, 736512, Note_on_c, 2, 83, 100
4, 736896, Note_on_c, 2, 80, 85
4, 736896, Note_on_c, 2, 74, 85
4, 736896, Note_on_c, 2, 71, 85
4, 737136, Note_off_c, 2, 83, 0
4, 737216, Note_off_c, 2, 80, 0
4, 737216, Note_off_c, 2, 74, 0
4, 737216, Note_off_c, 2, 71, 0
4, 737280, Note_on_c, 2, 81, 65
4, 737280, Note_on_c, 2, 76, 65
4, 737280, Note_on_c, 2, 69, 65
4, 737600, Note_off_c, 2, 81, 0
4, 737600, Note_off_c, 2, 76, 0
4, 737600, Note_off_c, 2, 69, 0
4, 738808, Program_c, 2, 45
4, 738816, Note_on_c, 2, 79, 55
4, 738816, Note_on_c, 2, 76, 55
4, 738816, Note_on_c, 2, 73, 55
4, 738816, Note_on_c, 2, 69, 55
4, 739136, Note_off_c, 2, 79, 0
4, 739136, Note_off_c, 2, 76, 0
4, 739136, Note_off_c, 2, 73, 0
4, 739136, Note_off_c, 2, 69, 0
4, 740352, Note_on_c, 2, 74, 55
4, 740352, Note_on_c, 2, 69, 55
4, 740352, Note_on_c, 2, 78, 55
4, 740672, Note_off_c, 2, 74, 0
4, 740672, Note_off_c, 2, 69, 0
4, 740672, Note_off_c, 2, 78, 0
4, 741888, Note_on_c, 2, 76, 55
4, 741888, Note_on_c, 2, 73, 55
4, 741888, Note_on_c, 2, 69, 55
4, 741888, Note_on_c, 2, 64, 55
4, 742208, Note_off_c, 2, 76, 0
4, 742208, Note_off_c, 2, 73, 0
4, 742208, Note_off_c, 2, 69, 0
4, 742208, Note_off_c, 2, 64, 0
4, 743424, Note_on_c, 2, 74, 55
4, 743424, Note_on_c, 2, 69, 55
4, 743424, Note_on_c, 2, 62, 55
4, 743744, Note_off_c, 2, 74, 0
4, 743744, Note_off_c, 2, 69, 0
4, 743744, Note_off_c, 2, 62, 0
4, 744960, Note_on_c, 2, 73, 55
4, 744960, Note_on_c, 2, 69, 55
4, 744960, Note_on_c, 2, 64, 55
4, 745280, Note_off_c, 2, 73, 0
4, 745280, Note_off_c, 2, 69, 0
4, 745280, Note_off_c, 2, 64, 0
4, 746496, Note_on_c, 2, 74, 55
4, 746496, Note_on_c, 2, 69, 55
4, 746496, Note_on_c, 2, 62, 55
4, 746816, Note_off_c, 2, 74, 0
4, 746816, Note_off_c, 2, 69, 0
4, 746816, Note_off_c, 2, 62, 0
4, 748032, Note_on_c, 2, 80, 55
4, 748032, Note_on_c, 2, 74, 55
4, 748032, Note_on_c, 2, 71, 55
4, 748352, Note_off_c, 2, 80, 0
4, 748352, Note_off_c, 2, 74, 0
4, 748352, Note_off_c, 2, 71, 0
4, 749568, Note_on_c, 2, 81, 55
4, 749568, Note_on_c, 2, 76, 55
4, 749568, Note_on_c, 2, 73, 55
4, 749568, Note_on_c, 2, 69, 55
4, 749888, Note_off_c, 2, 81, 0
4, 749888, Note_off_c, 2, 76, 0
4, 749888, Note_off_c, 2, 73, 0
4, 749888, Note_off_c, 2, 69, 0
4, 751096, Program_c, 2, 48
4, 751104, Note_on_c, 2, 79, 65
4, 751104, Note_on_c, 2, 73, 65
4, 751104, Note_on_c, 2, 69, 65
4, 751264, Note_off_c, 2, 79, 0
4, 751264, Note_off_c, 2, 73, 0
4, 752032, Note_off_c, 2, 69, 0
4, 752256, Note_on_c, 2, 71, 65
4, 752444, Note_off_c, 2, 71, 0
4, 752448, Note_on_c, 2, 73, 65
4, 752636, Note_off_c, 2, 73, 0
4, 752640, Note_on_c, 2, 78, 65
4, 752640, Note_on_c, 2, 74, 65
4, 752640, Note_on_c, 2, 69, 65
4, 752960, Note_off_c, 2, 78, 0
4, 752960, Note_off_c, 2, 74, 0
4, 752960, Note_off_c, 2, 69, 0
4, 753024, Note_on_c, 2, 74, 65
4, 753184, Note_off_c, 2, 74, 0
4, 753408, Note_on_c, 2, 74, 65
4, 753596, Note_off_c, 2, 74, 0
4, 753600, Note_on_c, 2, 76, 65
4, 753788, Note_off_c, 2, 76, 0
4, 753792, Note_on_c, 2, 78, 65
4, 753980, Note_off_c, 2, 78, 0
4, 753984, Note_on_c, 2, 79, 65
4, 754172, Note_off_c, 2, 79, 0
4, 754176, Note_on_c, 2, 81, 65
4, 754176, Note_on_c, 2, 76, 65
4, 754176, Note_on_c, 2, 73, 65
4, 754176, Note_on_c, 2, 67, 65
4, 754336, Note_off_c, 2, 76, 0
4, 754336, Note_off_c, 2, 73, 0
4, 754336, Note_off_c, 2, 67, 0
4, 754496, Note_off_c, 2, 81, 0
4, 754560, Note_on_c, 2, 81, 65
4, 754720, Note_off_c, 2, 81, 0
4, 754944, Note_on_c, 2, 81, 65
4, 755104, Note_off_c, 2, 81, 0
4, 755328, Note_on_c, 2, 83, 65
4, 755516, Note_off_c, 2, 83, 0
4, 755520, Note_on_c, 2, 85, 65
4, 755708, Note_off_c, 2, 85, 0
4, 755712, Note_on_c, 2, 86, 65
4, 755712, Note_on_c, 2, 74, 65
4, 755712, Note_on_c, 2, 78, 65
4, 755872, Note_off_c, 2, 74, 0
4, 755872, Note_off_c, 2, 78, 0
4, 756032, Note_off_c, 2, 86, 0
4, 756096, Note_on_c, 2, 86, 65
4, 756256, Note_off_c, 2, 86, 0
4, 756480, Note_on_c, 2, 86, 65
4, 756640, Note_off_c, 2, 86, 0
4, 756864, Note_on_c, 2, 85, 65
4, 757052, Note_off_c, 2, 85, 0
4, 757056, Note_on_c, 2, 83, 65
4, 757244, Note_off_c, 2, 83, 0
4, 757248, Note_on_c, 2, 81, 65
4, 757248, Note_on_c, 2, 73, 65
4, 757248, Note_on_c, 2, 67, 65
4, 757408, Note_off_c, 2, 73, 0
4, 757408, Note_off_c, 2, 67, 0
4, 757568, Note_off_c, 2, 81, 0
4, 757632, Note_on_c, 2, 81, 65
4, 757792, Note_off_c, 2, 81, 0
4, 758016, Note_on_c, 2, 81, 65
4, 758176, Note_off_c, 2, 81, 0
4, 758400, Note_on_c, 2, 83, 65
4, 758588, Note_off_c, 2, 83, 0
4, 758592, Note_on_c, 2, 85, 65
4, 758780, Note_off_c, 2, 85, 0
4, 758784, Note_on_c, 2, 86, 65
4, 758784, Note_on_c, 2, 81, 65
4, 758784, Note_on_c, 2, 74, 65
4, 759104, Note_off_c, 2, 86, 0
4, 759104, Note_off_c, 2, 81, 0
4, 759104, Note_off_c, 2, 74, 0
4, 759168, Note_on_c, 2, 86, 65
4, 759328, Note_off_c, 2, 86, 0
4, 759552, Note_on_c, 2, 86, 65
4, 759740, Note_off_c, 2, 86, 0
4, 759744, Note_on_c, 2, 85, 65
4, 759932, Note_off_c, 2, 85, 0
4, 759936, Note_on_c, 2, 83, 65
4, 760124, Note_off_c, 2, 83, 0
4, 760128, Note_on_c, 2, 81, 65
4, 760320, Note_on_c, 2, 80, 65
4, 760320, Note_on_c, 2, 74, 65
4, 760320, Note_on_c, 2, 71, 65
4, 760324, Note_off_c, 2, 81, 0
4, 760640, Note_off_c, 2, 80, 0
4, 760640, Note_off_c, 2, 74, 0
4, 760640, Note_off_c, 2, 71, 0
4, 760704, Note_on_c, 2, 80, 65
4, 760864, Note_off_c, 2, 80, 0
4, 761088, Note_on_c, 2, 80, 65
4, 761276, Note_off_c, 2, 80, 0
4, 761280, Note_on_c, 2, 81, 65
4, 761468, Note_off_c, 2, 81, 0
4, 761472, Note_on_c, 2, 83, 65
4, 761660, Note_off_c, 2, 83, 0
4, 761664, Note_on_c, 2, 80, 65
4, 761852, Note_off_c, 2, 80, 0
4, 761856, Note_on_c, 2, 81, 65
4, 762176, Note_off_c, 2, 81, 0
4, 762240, Note_on_c, 2, 85, 65
4, 762428, Note_off_c, 2, 85, 0
4, 762432, Note_on_c, 2, 83, 65
4, 762620, Note_off_c, 2, 83, 0
4, 762624, Note_on_c, 2, 76, 65
4, 763008, Note_on_c, 2, 73, 65
4, 763196, Note_off_c, 2, 73, 0
4, 763200, Note_on_c, 2, 69, 65
4, 763388, Note_off_c, 2, 69, 0
4, 763392, Note_on_c, 2, 64, 65
4, 763712, Note_off_c, 2, 64, 0
4, 763712, Note_off_c, 2, 76, 0
4, 763776, Note_on_c, 2, 86, 65
4, 763964, Note_off_c, 2, 86, 0
4, 763968, Note_on_c, 2, 83, 65
4, 764156, Note_off_c, 2, 83, 0
4, 764160, Note_on_c, 2, 76, 65
4, 764544, Note_on_c, 2, 68, 65
4, 764732, Note_off_c, 2, 68, 0
4, 764736, Note_on_c, 2, 68, 65
4, 764924, Note_off_c, 2, 68, 0
4, 764928, Note_on_c, 2, 73, 65
4, 764928, Note_on_c, 2, 69, 65
4, 765248, Note_off_c, 2, 73, 0
4, 765248, Note_off_c, 2, 69, 0
4, 765248, Note_off_c, 2, 76, 0
4, 765312, Note_on_c, 2, 85, 65
4, 765500, Note_off_c, 2, 85, 0
4, 765504, Note_on_c, 2, 81, 65
4, 765692, Note_off_c, 2, 81, 0
4, 765696, Note_on_c, 2, 76, 65
4, 766080, Note_on_c, 2, 73, 65
4, 766268, Note_off_c, 2, 73, 0
4, 766272, Note_on_c, 2, 69, 65
4, 766460, Note_off_c, 2, 69, 0
4, 766464, Note_on_c, 2, 64, 65
4, 766784, Note_off_c, 2, 64, 0
4, 766784, Note_off_c, 2, 76, 0
4, 766848, Note_on_c, 2, 85, 65
4, 767036, Note_off_c, 2, 85, 0
4, 767040, Note_on_c, 2, 81, 65
4, 767228, Note_off_c, 2, 81, 0
4, 767232, Note_on_c, 2, 76, 65
4, 767616, Note_on_c, 2, 68, 65
4, 767804, Note_off_c, 2, 68, 0
4, 767808, Note_on_c, 2, 68, 65
4, 767996, Note_off_c, 2, 68, 0
4, 768000, Note_on_c, 2, 69, 65
4, 768320, Note_off_c, 2, 69, 0
4, 768320, Note_off_c, 2, 76, 0
4, 768384, Note_on_c, 2, 85, 65
4, 768384, Note_on_c, 2, 76, 65
4, 768384, Note_on_c, 2, 73, 65
4, 769008, Note_off_c, 2, 85, 0
4, 769008, Note_off_c, 2, 76, 0
4, 769008, Note_off_c, 2, 73, 0
4, 769152, Note_on_c, 2, 81, 65
4, 769152, Note_on_c, 2, 69, 65
4, 769152, Note_on_c, 2, 73, 65
4, 769472, Note_off_c, 2, 81, 0
4, 769472, Note_off_c, 2, 69, 0
4, 769472, Note_off_c, 2, 73, 64
4, 769536, Note_on_c, 2, 74, 65
4, 769536, Note_on_c, 2, 71, 65
4, 769536, Note_on_c, 2, 69, 65
4, 769856, Note_off_c, 2, 74, 0
4, 769856, Note_off_c, 2, 71, 0
4, 769856, Note_off_c, 2, 69, 0
4, 769920, Note_on_c, 2, 74, 65
4, 769920, Note_on_c, 2, 83, 65
4, 769920, Note_on_c, 2, 71, 65
4, 770544, Note_off_c, 2, 74, 0
4, 770544, Note_off_c, 2, 83, 0
4, 770544, Note_off_c, 2, 71, 0
4, 770688, Note_on_c, 2, 80, 65
4, 770688, Note_on_c, 2, 71, 65
4, 770688, Note_on_c, 2, 68, 65
4, 771008, Note_off_c, 2, 80, 0
4, 771008, Note_off_c, 2, 71, 0
4, 771008, Note_off_c, 2, 68, 0
4, 771072, Note_on_c, 2, 81, 65
4, 771392, Note_off_c, 2, 81, 0
4, 771456, Note_on_c, 2, 85, 65
4, 771644, Note_off_c, 2, 85, 0
4, 771648, Note_on_c, 2, 81, 65
4, 771808, Note_off_c, 2, 81, 0
4, 771840, Note_on_c, 2, 76, 65
4, 772160, Note_off_c, 2, 76, 0
4, 772224, Note_on_c, 2, 76, 65
4, 772544, Note_off_c, 2, 76, 0
4, 772608, Note_on_c, 2, 86, 65
4, 772928, Note_off_c, 2, 86, 0
4, 772992, Note_on_c, 2, 86, 65
4, 773180, Note_off_c, 2, 86, 0
4, 773184, Note_on_c, 2, 83, 65
4, 773344, Note_off_c, 2, 83, 0
4, 773376, Note_on_c, 2, 76, 65
4, 773696, Note_off_c, 2, 76, 0
4, 773760, Note_on_c, 2, 76, 65
4, 774080, Note_off_c, 2, 76, 0
4, 774144, Note_on_c, 2, 85, 65
4, 774464, Note_off_c, 2, 85, 0
4, 774528, Note_on_c, 2, 85, 65
4, 774716, Note_off_c, 2, 85, 0
4, 774720, Note_on_c, 2, 81, 65
4, 774908, Note_off_c, 2, 81, 0
4, 774912, Note_on_c, 2, 76, 65
4, 775232, Note_off_c, 2, 76, 0
4, 775296, Note_on_c, 2, 76, 65
4, 775676, Note_off_c, 2, 76, 0
4, 775680, Note_on_c, 2, 86, 65
4, 776000, Note_off_c, 2, 86, 0
4, 776064, Note_on_c, 2, 86, 65
4, 776252, Note_off_c, 2, 86, 0
4, 776256, Note_on_c, 2, 83, 65
4, 776444, Note_off_c, 2, 83, 0
4, 776448, Note_on_c, 2, 76, 65
4, 776768, Note_off_c, 2, 76, 0
4, 776832, Note_on_c, 2, 76, 65
4, 777212, Note_off_c, 2, 76, 0
4, 777216, Note_on_c, 2, 85, 65
4, 777216, Note_on_c, 2, 73, 65
4, 777596, Note_off_c, 2, 85, 0
4, 777596, Note_off_c, 2, 73, 0
4, 777600, Note_on_c, 2, 81, 65
4, 777980, Note_off_c, 2, 81, 0
4, 778368, Note_on_c, 2, 78, 65
4, 778748, Note_off_c, 2, 78, 0
4, 778752, Note_on_c, 2, 86, 65
4, 778752, Note_on_c, 2, 74, 65
4, 779132, Note_off_c, 2, 86, 0
4, 779132, Note_off_c, 2, 74, 0
4, 779136, Note_on_c, 2, 83, 65
4, 779456, Note_off_c, 2, 83, 0
4, 779904, Note_on_c, 2, 80, 65
4, 779904, Note_on_c, 2, 71, 65
4, 779904, Note_on_c, 2, 76, 65
4, 780224, Note_off_c, 2, 80, 0
4, 780224, Note_off_c, 2, 71, 0
4, 780224, Note_off_c, 2, 76, 64
4, 780288, Note_on_c, 2, 80, 90
4, 780288, Note_on_c, 2, 77, 90
4, 780288, Note_on_c, 2, 73, 90
4, 780288, Note_on_c, 2, 85, 90
4, 780448, Note_off_c, 2, 80, 0
4, 780448, Note_off_c, 2, 77, 0
4, 780448, Note_off_c, 2, 73, 0
4, 780480, Note_on_c, 2, 77, 90
4, 780480, Note_on_c, 2, 73, 90
4, 780480, Note_on_c, 2, 80, 90
4, 780640, Note_off_c, 2, 77, 0
4, 780640, Note_off_c, 2, 73, 0
4, 780640, Note_off_c, 2, 80, 0
4, 780672, Note_on_c, 2, 80, 90
4, 780672, Note_on_c, 2, 77, 90
4, 780672, Note_on_c, 2, 73, 90
4, 780832, Note_off_c, 2, 80, 0
4, 780832, Note_off_c, 2, 77, 0
4, 780832, Note_off_c, 2, 73, 0
4, 780864, Note_on_c, 2, 80, 90
4, 780864, Note_on_c, 2, 77, 90
4, 780864, Note_on_c, 2, 73, 90
4, 781024, Note_off_c, 2, 80, 0
4, 781024, Note_off_c, 2, 77, 0
4, 781024, Note_off_c, 2, 73, 0
4, 781052, Note_off_c, 2, 85, 0
4, 781056, Note_on_c, 2, 80, 90
4, 781056, Note_on_c, 2, 77, 90
4, 781056, Note_on_c, 2, 73, 90
4, 781056, Note_on_c, 2, 85, 90
4, 781376, Note_off_c, 2, 80, 0
4, 781376, Note_off_c, 2, 77, 0
4, 781376, Note_off_c, 2, 73, 0
4, 781540, Note_off_c, 2, 85, 0
4, 781632, Note_on_c, 2, 86, 100
4, 781684, Note_off_c, 2, 86, 64
4, 781696, Note_on_c, 2, 85, 100
4, 781748, Note_off_c, 2, 85, 64
4, 781760, Note_on_c, 2, 83, 100
4, 781812, Note_off_c, 2, 83, 64
4, 781824, Note_on_c, 2, 81, 90
4, 782144, Note_off_c, 2, 81, 0
4, 782208, Note_on_c, 2, 81, 90
4, 782208, Note_on_c, 2, 78, 90
4, 782208, Note_on_c, 2, 73, 90
4, 782368, Note_off_c, 2, 81, 0
4, 782368, Note_off_c, 2, 78, 0
4, 782368, Note_off_c, 2, 73, 0
4, 782400, Note_on_c, 2, 81, 90
4, 782400, Note_on_c, 2, 78, 90
4, 782400, Note_on_c, 2, 73, 90
4, 782560, Note_off_c, 2, 81, 0
4, 782560, Note_off_c, 2, 78, 0
4, 782560, Note_off_c, 2, 73, 0
4, 782592, Note_on_c, 2, 78, 90
4, 782592, Note_on_c, 2, 73, 90
4, 782592, Note_on_c, 2, 81, 90
4, 782752, Note_off_c, 2, 78, 0
4, 782752, Note_off_c, 2, 73, 0
4, 782784, Note_on_c, 2, 78, 90
4, 782784, Note_on_c, 2, 73, 90
4, 782912, Note_off_c, 2, 81, 0
4, 782944, Note_off_c, 2, 78, 0
4, 782944, Note_off_c, 2, 73, 0
4, 782976, Note_on_c, 2, 78, 90
4, 782976, Note_on_c, 2, 73, 90
4, 782976, Note_on_c, 2, 81, 90
4, 783136, Note_off_c, 2, 78, 0
4, 783136, Note_off_c, 2, 73, 0
4, 783168, Note_on_c, 2, 78, 90
4, 783168, Note_on_c, 2, 73, 90
4, 783296, Note_off_c, 2, 81, 0
4, 783328, Note_off_c, 2, 78, 0
4, 783328, Note_off_c, 2, 73, 0
4, 783360, Note_on_c, 2, 83, 90
4, 783360, Note_on_c, 2, 81, 90
4, 783360, Note_on_c, 2, 78, 90
4, 783360, Note_on_c, 2, 71, 90
4, 783520, Note_off_c, 2, 81, 0
4, 783520, Note_off_c, 2, 78, 0
4, 783520, Note_off_c, 2, 71, 0
4, 783552, Note_on_c, 2, 78, 90
4, 783552, Note_on_c, 2, 81, 90
4, 783552, Note_on_c, 2, 71, 90
4, 783712, Note_off_c, 2, 78, 0
4, 783712, Note_off_c, 2, 81, 0
4, 783712, Note_off_c, 2, 71, 0
4, 783744, Note_on_c, 2, 81, 90
4, 783744, Note_on_c, 2, 78, 90
4, 783744, Note_on_c, 2, 71, 90
4, 783904, Note_off_c, 2, 81, 0
4, 783904, Note_off_c, 2, 78, 0
4, 783904, Note_off_c, 2, 71, 0
4, 783936, Note_on_c, 2, 81, 90
4, 783936, Note_on_c, 2, 78, 90
4, 783936, Note_on_c, 2, 71, 90
4, 784096, Note_off_c, 2, 81, 0
4, 784096, Note_off_c, 2, 78, 0
4, 784096, Note_off_c, 2, 71, 0
4, 784124, Note_off_c, 2, 83, 0
4, 784128, Note_on_c, 2, 76, 90
4, 784128, Note_on_c, 2, 71, 90
4, 784128, Note_on_c, 2, 68, 90
4, 784288, Note_off_c, 2, 71, 0
4, 784288, Note_off_c, 2, 68, 0
4, 784320, Note_on_c, 2, 71, 90
4, 784320, Note_on_c, 2, 68, 90
4, 784480, Note_off_c, 2, 71, 0
4, 784480, Note_off_c, 2, 68, 0
4, 784512, Note_on_c, 2, 71, 90
4, 784512, Note_on_c, 2, 68, 90
4, 784672, Note_off_c, 2, 71, 0
4, 784672, Note_off_c, 2, 68, 0
4, 784704, Note_on_c, 2, 71, 90
4, 784704, Note_on_c, 2, 68, 90
4, 784752, Note_off_c, 2, 76, 0
4, 784864, Note_off_c, 2, 71, 0
4, 784864, Note_off_c, 2, 68, 0
4, 784896, Note_on_c, 2, 80, 90
4, 784896, Note_on_c, 2, 76, 90
4, 784896, Note_on_c, 2, 73, 90
4, 784896, Note_on_c, 2, 69, 90
4, 784896, Note_on_c, 2, 85, 90
4, 785056, Note_off_c, 2, 80, 0
4, 785056, Note_off_c, 2, 76, 0
4, 785056, Note_off_c, 2, 73, 0
4, 785056, Note_off_c, 2, 69, 0
4, 785088, Note_on_c, 2, 80, 90
4, 785088, Note_on_c, 2, 76, 90
4, 785088, Note_on_c, 2, 73, 90
4, 785088, Note_on_c, 2, 69, 90
4, 785248, Note_off_c, 2, 80, 0
4, 785248, Note_off_c, 2, 76, 0
4, 785248, Note_off_c, 2, 73, 0
4, 785248, Note_off_c, 2, 69, 0
4, 785280, Note_on_c, 2, 80, 90
4, 785280, Note_on_c, 2, 76, 90
4, 785280, Note_on_c, 2, 73, 90
4, 785280, Note_on_c, 2, 69, 90
4, 785440, Note_off_c, 2, 80, 0
4, 785440, Note_off_c, 2, 76, 0
4, 785440, Note_off_c, 2, 73, 0
4, 785440, Note_off_c, 2, 69, 0
4, 785472, Note_on_c, 2, 80, 90
4, 785472, Note_on_c, 2, 76, 90
4, 785472, Note_on_c, 2, 69, 90
4, 785472, Note_on_c, 2, 73, 90
4, 785632, Note_off_c, 2, 80, 0
4, 785632, Note_off_c, 2, 76, 0
4, 785632, Note_off_c, 2, 69, 0
4, 785632, Note_off_c, 2, 73, 0
4, 785660, Note_off_c, 2, 85, 0
4, 785664, Note_on_c, 2, 76, 90
4, 785664, Note_on_c, 2, 73, 90
4, 785664, Note_on_c, 2, 69, 90
4, 785664, Note_on_c, 2, 85, 90
4, 785984, Note_off_c, 2, 76, 0
4, 785984, Note_off_c, 2, 73, 0
4, 785984, Note_off_c, 2, 69, 0
4, 786148, Note_off_c, 2, 85, 0
4, 786240, Note_on_c, 2, 86, 100
4, 786292, Note_off_c, 2, 86, 64
4, 786304, Note_on_c, 2, 85, 100
4, 786356, Note_off_c, 2, 85, 64
4, 786368, Note_on_c, 2, 83, 100
4, 786420, Note_off_c, 2, 83, 64
4, 786432, Note_on_c, 2, 81, 90
4, 786752, Note_off_c, 2, 81, 0
4, 786816, Note_on_c, 2, 81, 90
4, 786816, Note_on_c, 2, 78, 90
4, 786816, Note_on_c, 2, 73, 90
4, 786976, Note_off_c, 2, 81, 0
4, 786976, Note_off_c, 2, 78, 0
4, 786976, Note_off_c, 2, 73, 0
4, 787008, Note_on_c, 2, 81, 90
4, 787008, Note_on_c, 2, 78, 90
4, 787008, Note_on_c, 2, 73, 90
4, 787168, Note_off_c, 2, 81, 0
4, 787168, Note_off_c, 2, 78, 0
4, 787168, Note_off_c, 2, 73, 0
4, 787200, Note_on_c, 2, 78, 90
4, 787200, Note_on_c, 2, 73, 90
4, 787200, Note_on_c, 2, 81, 90
4, 787360, Note_off_c, 2, 78, 0
4, 787360, Note_off_c, 2, 73, 0
4, 787392, Note_on_c, 2, 78, 90
4, 787392, Note_on_c, 2, 73, 90
4, 787520, Note_off_c, 2, 81, 0
4, 787552, Note_off_c, 2, 78, 0
4, 787552, Note_off_c, 2, 73, 0
4, 787584, Note_on_c, 2, 78, 90
4, 787584, Note_on_c, 2, 81, 90
4, 787584, Note_on_c, 2, 73, 90
4, 787744, Note_off_c, 2, 78, 0
4, 787744, Note_off_c, 2, 73, 0
4, 787776, Note_on_c, 2, 78, 90
4, 787776, Note_on_c, 2, 73, 90
4, 787904, Note_off_c, 2, 81, 0
4, 787936, Note_off_c, 2, 78, 0
4, 787936, Note_off_c, 2, 73, 0
4, 787968, Note_on_c, 2, 78, 90
4, 787968, Note_on_c, 2, 81, 90
4, 787968, Note_on_c, 2, 71, 90
4, 787968, Note_on_c, 2, 83, 90
4, 788128, Note_off_c, 2, 78, 0
4, 788128, Note_off_c, 2, 81, 0
4, 788128, Note_off_c, 2, 71, 0
4, 788160, Note_on_c, 2, 78, 90
4, 788160, Note_on_c, 2, 81, 90
4, 788160, Note_on_c, 2, 71, 90
4, 788320, Note_off_c, 2, 78, 0
4, 788320, Note_off_c, 2, 81, 0
4, 788320, Note_off_c, 2, 71, 0
4, 788352, Note_on_c, 2, 78, 90
4, 788352, Note_on_c, 2, 81, 90
4, 788352, Note_on_c, 2, 71, 90
4, 788512, Note_off_c, 2, 78, 0
4, 788512, Note_off_c, 2, 81, 0
4, 788512, Note_off_c, 2, 71, 0
4, 788544, Note_on_c, 2, 78, 90
4, 788544, Note_on_c, 2, 81, 90
4, 788544, Note_on_c, 2, 71, 90
4, 788704, Note_off_c, 2, 78, 0
4, 788704, Note_off_c, 2, 81, 0
4, 788704, Note_off_c, 2, 71, 0
4, 788732, Note_off_c, 2, 83, 64
4, 788736, Note_on_c, 2, 83, 90
4, 788736, Note_on_c, 2, 80, 90
4, 788736, Note_on_c, 2, 76, 90
4, 788736, Note_on_c, 2, 85, 90
4, 788896, Note_off_c, 2, 83, 0
4, 788896, Note_off_c, 2, 80, 0
4, 788896, Note_off_c, 2, 76, 0
4, 788928, Note_on_c, 2, 83, 90
4, 788928, Note_on_c, 2, 80, 90
4, 788928, Note_on_c, 2, 76, 90
4, 789088, Note_off_c, 2, 83, 0
4, 789088, Note_off_c, 2, 80, 0
4, 789088, Note_off_c, 2, 76, 0
4, 789120, Note_on_c, 2, 83, 90
4, 789120, Note_on_c, 2, 80, 90
4, 789120, Note_on_c, 2, 76, 90
4, 789280, Note_off_c, 2, 83, 0
4, 789280, Note_off_c, 2, 80, 0
4, 789280, Note_off_c, 2, 76, 0
4, 789312, Note_on_c, 2, 83, 90
4, 789312, Note_on_c, 2, 80, 90
4, 789312, Note_on_c, 2, 76, 90
4, 789360, Note_off_c, 2, 85, 64
4, 789472, Note_off_c, 2, 83, 0
4, 789472, Note_off_c, 2, 80, 0
4, 789472, Note_off_c, 2, 76, 0
4, 789504, Note_on_c, 2, 81, 90
4, 789504, Note_on_c, 2, 76, 90
4, 789504, Note_on_c, 2, 73, 90
4, 789504, Note_on_c, 2, 69, 90
4, 789824, Note_off_c, 2, 81, 0
4, 789824, Note_off_c, 2, 76, 0
4, 789824, Note_off_c, 2, 73, 0
4, 789824, Note_off_c, 2, 69, 0
4, 790272, Note_on_c, 2, 73, 65
4, 790272, Note_on_c, 2, 69, 65
4, 790432, Note_off_c, 2, 73, 0
4, 790432, Note_off_c, 2, 69, 0
4, 790656, Note_on_c, 2, 74, 65
4, 790656, Note_on_c, 2, 71, 65
4, 790816, Note_off_c, 2, 74, 0
4, 790816, Note_off_c, 2, 71, 0
4, 791040, Note_on_c, 2, 76, 65
4, 791040, Note_on_c, 2, 73, 65
4, 791200, Note_off_c, 2, 76, 0
4, 791200, Note_off_c, 2, 73, 0
4, 791424, Note_on_c, 2, 76, 65
4, 791424, Note_on_c, 2, 73, 65
4, 791584, Note_off_c, 2, 76, 0
4, 791584, Note_off_c, 2, 73, 0
4, 791808, Note_on_c, 2, 78, 65
4, 791808, Note_on_c, 2, 74, 65
4, 791968, Note_off_c, 2, 78, 0
4, 791968, Note_off_c, 2, 74, 0
4, 792192, Note_on_c, 2, 80, 90
4, 792192, Note_on_c, 2, 76, 90
4, 792192, Note_on_c, 2, 74, 90
4, 792192, Note_on_c, 2, 71, 90
4, 792352, Note_off_c, 2, 80, 0
4, 792352, Note_off_c, 2, 76, 0
4, 792352, Note_off_c, 2, 74, 0
4, 792352, Note_off_c, 2, 71, 0
4, 792576, Note_on_c, 2, 81, 90
4, 792576, Note_on_c, 2, 76, 90
4, 792576, Note_on_c, 2, 73, 90
4, 792576, Note_on_c, 2, 69, 90
4, 793200, Note_off_c, 2, 81, 0
4, 793200, Note_off_c, 2, 76, 0
4, 793200, Note_off_c, 2, 73, 0
4, 793200, Note_off_c, 2, 69, 0
4, 793344, Note_on_c, 2, 73, 65
4, 793344, Note_on_c, 2, 69, 65
4, 793504, Note_off_c, 2, 73, 0
4, 793504, Note_off_c, 2, 69, 0
4, 793728, Note_on_c, 2, 74, 65
4, 793728, Note_on_c, 2, 71, 65
4, 793888, Note_off_c, 2, 74, 0
4, 793888, Note_off_c, 2, 71, 0
4, 794112, Note_on_c, 2, 76, 65
4, 794112, Note_on_c, 2, 73, 65
4, 794272, Note_off_c, 2, 76, 0
4, 794272, Note_off_c, 2, 73, 0
4, 794496, Note_on_c, 2, 76, 65
4, 794496, Note_on_c, 2, 73, 65
4, 794656, Note_off_c, 2, 76, 0
4, 794656, Note_off_c, 2, 73, 0
4, 794880, Note_on_c, 2, 78, 65
4, 794880, Note_on_c, 2, 74, 65
4, 795040, Note_off_c, 2, 78, 0
4, 795040, Note_off_c, 2, 74, 0
4, 795264, Note_on_c, 2, 80, 90
4, 795264, Note_on_c, 2, 76, 90
4, 795264, Note_on_c, 2, 74, 90
4, 795264, Note_on_c, 2, 71, 90
4, 795584, Note_off_c, 2, 80, 0
4, 795584, Note_off_c, 2, 76, 0
4, 795584, Note_off_c, 2, 74, 0
4, 795584, Note_off_c, 2, 71, 0
4, 795648, Note_on_c, 2, 81, 90
4, 795648, Note_on_c, 2, 76, 90
4, 795648, Note_on_c, 2, 73, 90
4, 795648, Note_on_c, 2, 69, 90
4, 796272, Note_off_c, 2, 81, 0
4, 796272, Note_off_c, 2, 76, 0
4, 796272, Note_off_c, 2, 73, 0
4, 796272, Note_off_c, 2, 69, 0
4, 796416, Note_on_c, 2, 73, 65
4, 796416, Note_on_c, 2, 69, 65
4, 796576, Note_off_c, 2, 73, 0
4, 796576, Note_off_c, 2, 69, 0
4, 796800, Note_on_c, 2, 74, 65
4, 796800, Note_on_c, 2, 71, 65
4, 796960, Note_off_c, 2, 74, 0
4, 796960, Note_off_c, 2, 71, 0
4, 797184, Note_on_c, 2, 76, 65
4, 797184, Note_on_c, 2, 73, 65
4, 797344, Note_off_c, 2, 76, 0
4, 797344, Note_off_c, 2, 73, 0
4, 797568, Note_on_c, 2, 76, 65
4, 797568, Note_on_c, 2, 73, 65
4, 797728, Note_off_c, 2, 76, 0
4, 797728, Note_off_c, 2, 73, 0
4, 797952, Note_on_c, 2, 78, 65
4, 797952, Note_on_c, 2, 74, 65
4, 798112, Note_off_c, 2, 78, 0
4, 798112, Note_off_c, 2, 74, 0
4, 798336, Note_on_c, 2, 80, 100
4, 798336, Note_on_c, 2, 76, 100
4, 798336, Note_on_c, 2, 74, 100
4, 798336, Note_on_c, 2, 71, 100
4, 798496, Note_off_c, 2, 80, 0
4, 798496, Note_off_c, 2, 76, 0
4, 798496, Note_off_c, 2, 74, 0
4, 798496, Note_off_c, 2, 71, 0
4, 798720, Note_on_c, 2, 81, 100
4, 798720, Note_on_c, 2, 76, 100
4, 798720, Note_on_c, 2, 73, 100
4, 798720, Note_on_c, 2, 69, 100
4, 798880, Note_off_c, 2, 81, 0
4, 798880, Note_off_c, 2, 76, 0
4, 798880, Note_off_c, 2, 73, 0
4, 798880, Note_off_c, 2, 69, 0
4, 799104, Note_on_c, 2, 81, 100
4, 799144, Note_off_c, 2, 81, 0
4, 799152, Note_on_c, 2, 83, 100
4, 799192, Note_off_c, 2, 83, 0
4, 799200, Note_on_c, 2, 81, 100
4, 799240, Note_off_c, 2, 81, 0
4, 799248, Note_on_c, 2, 83, 100
4, 799288, Note_off_c, 2, 83, 0
4, 799296, Note_on_c, 2, 81, 95
4, 799376, Note_off_c, 2, 81, 0
4, 799392, Note_on_c, 2, 83, 95
4, 799472, Note_off_c, 2, 83, 0
4, 799488, Note_on_c, 2, 85, 90
4, 799808, Note_off_c, 2, 85, 0
4, 799872, Note_on_c, 2, 83, 90
4, 799872, Note_on_c, 2, 80, 90
4, 799872, Note_on_c, 2, 76, 90
4, 800192, Note_off_c, 2, 83, 0
4, 800192, Note_off_c, 2, 80, 0
4, 800192, Note_off_c, 2, 76, 0
4, 800256, Note_on_c, 2, 85, 90
4, 800256, Note_on_c, 2, 81, 90
4, 800256, Note_on_c, 2, 76, 90
4, 800576, Note_off_c, 2, 85, 0
4, 800576, Note_off_c, 2, 81, 0
4, 800576, Note_off_c, 2, 76, 0
4, 800640, Note_on_c, 2, 78, 100
4, 800680, Note_off_c, 2, 78, 0
4, 800688, Note_on_c, 2, 80, 100
4, 800728, Note_off_c, 2, 80, 0
4, 800736, Note_on_c, 2, 78, 100
4, 800776, Note_off_c, 2, 78, 0
4, 800784, Note_on_c, 2, 80, 100
4, 800824, Note_off_c, 2, 80, 0
4, 800832, Note_on_c, 2, 78, 95
4, 800912, Note_off_c, 2, 78, 0
4, 800928, Note_on_c, 2, 80, 95
4, 801008, Note_off_c, 2, 80, 0
4, 801024, Note_on_c, 2, 81, 90
4, 801344, Note_off_c, 2, 81, 0
4, 801408, Note_on_c, 2, 80, 90
4, 801408, Note_on_c, 2, 76, 90
4, 801408, Note_on_c, 2, 71, 90
4, 801728, Note_off_c, 2, 80, 0
4, 801728, Note_off_c, 2, 76, 0
4, 801728, Note_off_c, 2, 71, 0
4, 801792, Note_on_c, 2, 81, 90
4, 801792, Note_on_c, 2, 73, 90
4, 801792, Note_on_c, 2, 69, 90
4, 801952, Note_off_c, 2, 81, 0
4, 801952, Note_off_c, 2, 73, 0
4, 801952, Note_off_c, 2, 69, 0
4, 802560, Note_on_c, 2, 81, 90
4, 802560, Note_on_c, 2, 73, 90
4, 802560, Note_on_c, 2, 69, 90
4, 802720, Note_off_c, 2, 81, 0
4, 802720, Note_off_c, 2, 73, 0
4, 802720, Note_off_c, 2, 69, 0
4, 803328, Note_on_c, 2, 69, 90
4, 803328, Note_on_c, 2, 64, 90
4, 803328, Note_on_c, 2, 61, 90
4, 803708, Note_off_c, 2, 69, 0
4, 803708, Note_off_c, 2, 64, 0
4, 803708, Note_off_c, 2, 61, 0
4, 804096, Note_on_c, 2, 69, 90
4, 804096, Note_on_c, 2, 64, 90
4, 804096, Note_on_c, 2, 61, 90
4, 804476, Note_off_c, 2, 69, 0
4, 804476, Note_off_c, 2, 64, 0
4, 804476, Note_off_c, 2, 61, 0
4, 804864, Note_on_c, 2, 64, 100
4, 804864, Note_on_c, 2, 61, 100
4, 804864, Note_on_c, 2, 69, 100
4, 805628, Note_off_c, 2, 64, 0
4, 805628, Note_off_c, 2, 61, 0
4, 805628, Note_off_c, 2, 69, 0
4, 805628, End_track
5, 0, Start_track
5, 0, Title_t, "Bob Fisher"
5, 0, Control_c, 3, 0, 0
5, 0, Program_c, 3, 48
5, 0, Control_c, 3, 7, 127
5, 0, Control_c, 3, 10, 87
5, 0, Control_c, 3, 91, 59
5, 0, Control_c, 3, 93, 2
5, 0, Key_signature, 3, "major"
5, 0, Control_c, 3, 121, 0
5, 384, Control_c, 3, 10, 73
5, 480, Control_c, 3, 91, 85
5, 672, Program_c, 3, 48
5, 13824, Note_on_c, 3, 57, 100
5, 13824, Note_on_c, 3, 61, 100
5, 14012, Note_off_c, 3, 61, 0
5, 14016, Note_on_c, 3, 64, 100
5, 14144, Note_off_c, 3, 57, 0
5, 14204, Note_off_c, 3, 64, 0
5, 14208, Note_on_c, 3, 57, 100
5, 14208, Note_on_c, 3, 61, 100
5, 14396, Note_off_c, 3, 61, 0
5, 14400, Note_on_c, 3, 64, 100
5, 14528, Note_off_c, 3, 57, 0
5, 14588, Note_off_c, 3, 64, 0
5, 14592, Note_on_c, 3, 57, 100
5, 14592, Note_on_c, 3, 61, 100
5, 14780, Note_off_c, 3, 61, 0
5, 14784, Note_on_c, 3, 64, 100
5, 14912, Note_off_c, 3, 57, 0
5, 14972, Note_off_c, 3, 64, 0
5, 14976, Note_on_c, 3, 57, 100
5, 14976, Note_on_c, 3, 61, 100
5, 15164, Note_off_c, 3, 61, 0
5, 15168, Note_on_c, 3, 64, 100
5, 15296, Note_off_c, 3, 57, 0
5, 15328, Note_off_c, 3, 64, 0
5, 15360, Note_on_c, 3, 62, 100
5, 15360, Note_on_c, 3, 57, 100
5, 15548, Note_off_c, 3, 57, 0
5, 15552, Note_on_c, 3, 66, 100
5, 15680, Note_off_c, 3, 62, 0
5, 15740, Note_off_c, 3, 66, 0
5, 15744, Note_on_c, 3, 57, 100
5, 15744, Note_on_c, 3, 62, 100
5, 15932, Note_off_c, 3, 62, 0
5, 15936, Note_on_c, 3, 66, 100
5, 16064, Note_off_c, 3, 57, 0
5, 16124, Note_off_c, 3, 66, 0
5, 16128, Note_on_c, 3, 57, 100
5, 16128, Note_on_c, 3, 62, 100
5, 16316, Note_off_c, 3, 62, 0
5, 16320, Note_on_c, 3, 66, 100
5, 16448, Note_off_c, 3, 57, 0
5, 16508, Note_off_c, 3, 66, 0
5, 16512, Note_on_c, 3, 57, 100
5, 16512, Note_on_c, 3, 62, 100
5, 16700, Note_off_c, 3, 62, 0
5, 16704, Note_on_c, 3, 66, 100
5, 16832, Note_off_c, 3, 57, 0
5, 16864, Note_off_c, 3, 66, 0
5, 16896, Note_on_c, 3, 57, 100
5, 16896, Note_on_c, 3, 61, 100
5, 17084, Note_off_c, 3, 61, 0
5, 17088, Note_on_c, 3, 64, 100
5, 17216, Note_off_c, 3, 57, 0
5, 17276, Note_off_c, 3, 64, 0
5, 17280, Note_on_c, 3, 57, 100
5, 17280, Note_on_c, 3, 61, 100
5, 17468, Note_off_c, 3, 61, 0
5, 17472, Note_on_c, 3, 64, 100
5, 17600, Note_off_c, 3, 57, 0
5, 17660, Note_off_c, 3, 64, 0
5, 17664, Note_on_c, 3, 57, 100
5, 17664, Note_on_c, 3, 61, 100
5, 17852, Note_off_c, 3, 61, 0
5, 17856, Note_on_c, 3, 64, 100
5, 17984, Note_off_c, 3, 57, 0
5, 18044, Note_off_c, 3, 64, 0
5, 18048, Note_on_c, 3, 57, 100
5, 18048, Note_on_c, 3, 61, 100
5, 18236, Note_off_c, 3, 61, 0
5, 18240, Note_on_c, 3, 64, 100
5, 18368, Note_off_c, 3, 57, 0
5, 18400, Note_off_c, 3, 64, 0
5, 18432, Note_on_c, 3, 59, 100
5, 18432, Note_on_c, 3, 56, 100
5, 18432, Note_on_c, 3, 52, 100
5, 19196, Note_off_c, 3, 59, 0
5, 19196, Note_off_c, 3, 56, 0
5, 19200, Note_on_c, 3, 57, 100
5, 19200, Note_on_c, 3, 61, 100
5, 19580, Note_off_c, 3, 57, 0
5, 19580, Note_off_c, 3, 61, 0
5, 19584, Note_on_c, 3, 59, 100
5, 19584, Note_on_c, 3, 62, 100
5, 19824, Note_off_c, 3, 52, 0
5, 19904, Note_off_c, 3, 59, 0
5, 19904, Note_off_c, 3, 62, 0
5, 19968, Note_on_c, 3, 57, 100
5, 19968, Note_on_c, 3, 61, 100
5, 20156, Note_off_c, 3, 61, 0
5, 20160, Note_on_c, 3, 64, 100
5, 20288, Note_off_c, 3, 57, 0
5, 20348, Note_off_c, 3, 64, 0
5, 20352, Note_on_c, 3, 57, 100
5, 20352, Note_on_c, 3, 61, 100
5, 20540, Note_off_c, 3, 61, 0
5, 20544, Note_on_c, 3, 64, 100
5, 20672, Note_off_c, 3, 57, 0
5, 20732, Note_off_c, 3, 64, 0
5, 20736, Note_on_c, 3, 57, 100
5, 20736, Note_on_c, 3, 61, 100
5, 20924, Note_off_c, 3, 61, 0
5, 20928, Note_on_c, 3, 64, 100
5, 21056, Note_off_c, 3, 57, 0
5, 21116, Note_off_c, 3, 64, 0
5, 21120, Note_on_c, 3, 57, 100
5, 21120, Note_on_c, 3, 61, 100
5, 21308, Note_off_c, 3, 61, 0
5, 21312, Note_on_c, 3, 64, 100
5, 21440, Note_off_c, 3, 57, 0
5, 21472, Note_off_c, 3, 64, 0
5, 21504, Note_on_c, 3, 57, 100
5, 21504, Note_on_c, 3, 62, 100
5, 21692, Note_off_c, 3, 62, 0
5, 21696, Note_on_c, 3, 66, 100
5, 21824, Note_off_c, 3, 57, 0
5, 21884, Note_off_c, 3, 66, 0
5, 21888, Note_on_c, 3, 57, 100
5, 21888, Note_on_c, 3, 62, 100
5, 22076, Note_off_c, 3, 62, 0
5, 22080, Note_on_c, 3, 66, 100
5, 22208, Note_off_c, 3, 57, 0
5, 22268, Note_off_c, 3, 66, 0
5, 22272, Note_on_c, 3, 57, 100
5, 22272, Note_on_c, 3, 62, 100
5, 22460, Note_off_c, 3, 62, 0
5, 22464, Note_on_c, 3, 66, 100
5, 22592, Note_off_c, 3, 57, 0
5, 22652, Note_off_c, 3, 66, 0
5, 22656, Note_on_c, 3, 57, 100
5, 22656, Note_on_c, 3, 62, 100
5, 22844, Note_off_c, 3, 62, 0
5, 22848, Note_on_c, 3, 66, 100
5, 22976, Note_off_c, 3, 57, 0
5, 23008, Note_off_c, 3, 66, 0
5, 23040, Note_on_c, 3, 57, 100
5, 23040, Note_on_c, 3, 64, 100
5, 23360, Note_off_c, 3, 57, 0
5, 23360, Note_off_c, 3, 64, 0
5, 23424, Note_on_c, 3, 59, 100
5, 23424, Note_on_c, 3, 50, 100
5, 23744, Note_off_c, 3, 59, 0
5, 23744, Note_off_c, 3, 50, 0
5, 23808, Note_on_c, 3, 64, 100
5, 23808, Note_on_c, 3, 52, 100
5, 24128, Note_off_c, 3, 64, 0
5, 24192, Note_on_c, 3, 64, 100
5, 24432, Note_off_c, 3, 52, 0
5, 24512, Note_off_c, 3, 64, 0
5, 24576, Note_on_c, 3, 64, 100
5, 24576, Note_on_c, 3, 61, 100
5, 24576, Note_on_c, 3, 57, 100
5, 24896, Note_off_c, 3, 64, 0
5, 24896, Note_off_c, 3, 61, 0
5, 24896, Note_off_c, 3, 57, 0
5, 24960, Note_on_c, 3, 45, 100
5, 25280, Note_off_c, 3, 45, 0
5, 26112, Note_on_c, 3, 52, 75
5, 26272, Note_off_c, 3, 52, 0
5, 26496, Note_on_c, 3, 52, 75
5, 26876, Note_off_c, 3, 52, 0
5, 26880, Note_on_c, 3, 47, 75
5, 27504, Note_off_c, 3, 47, 0
5, 27648, Note_on_c, 3, 54, 75
5, 27808, Note_off_c, 3, 54, 0
5, 28032, Note_on_c, 3, 54, 75
5, 28412, Note_off_c, 3, 54, 0
5, 28416, Note_on_c, 3, 50, 75
5, 29040, Note_off_c, 3, 50, 0
5, 29184, Note_on_c, 3, 56, 75
5, 29344, Note_off_c, 3, 56, 0
5, 29568, Note_on_c, 3, 56, 75
5, 29568, Note_on_c, 3, 44, 75
5, 29948, Note_off_c, 3, 56, 0
5, 29948, Note_off_c, 3, 44, 0
5, 29952, Note_on_c, 3, 57, 75
5, 29952, Note_on_c, 3, 45, 75
5, 30332, Note_off_c, 3, 57, 0
5, 30332, Note_off_c, 3, 45, 0
5, 30336, Note_on_c, 3, 50, 75
5, 30336, Note_on_c, 3, 38, 75
5, 30656, Note_off_c, 3, 50, 0
5, 30656, Note_off_c, 3, 38, 0
5, 30720, Note_on_c, 3, 52, 75
5, 30720, Note_on_c, 3, 40, 75
5, 31344, Note_off_c, 3, 52, 0
5, 31344, Note_off_c, 3, 40, 0
5, 31488, Note_on_c, 3, 49, 75
5, 31868, Note_off_c, 3, 49, 0
5, 31872, Note_on_c, 3, 52, 75
5, 32252, Note_off_c, 3, 52, 0
5, 32256, Note_on_c, 3, 54, 75
5, 32256, Note_on_c, 3, 61, 75
5, 32636, Note_off_c, 3, 54, 0
5, 32640, Note_on_c, 3, 57, 75
5, 32960, Note_off_c, 3, 57, 0
5, 33020, Note_off_c, 3, 61, 0
5, 33024, Note_on_c, 3, 47, 75
5, 33024, Note_on_c, 3, 59, 75
5, 33404, Note_off_c, 3, 47, 0
5, 33408, Note_on_c, 3, 50, 75
5, 33788, Note_off_c, 3, 50, 0
5, 33792, Note_on_c, 3, 59, 75
5, 33792, Note_on_c, 3, 52, 75
5, 33952, Note_off_c, 3, 59, 0
5, 34172, Note_off_c, 3, 59, 0
5, 34172, Note_off_c, 3, 52, 0
5, 34176, Note_on_c, 3, 56, 75
5, 34176, Note_on_c, 3, 64, 75
5, 34496, Note_off_c, 3, 56, 0
5, 34560, Note_on_c, 3, 57, 75
5, 34800, Note_off_c, 3, 64, 64
5, 34940, Note_off_c, 3, 57, 0
5, 34944, Note_on_c, 3, 53, 75
5, 34944, Note_on_c, 3, 59, 75
5, 35264, Note_off_c, 3, 53, 0
5, 35264, Note_off_c, 3, 59, 0
5, 35328, Note_on_c, 3, 57, 75
5, 35328, Note_on_c, 3, 54, 75
5, 35648, Note_off_c, 3, 57, 0
5, 35648, Note_off_c, 3, 54, 0
5, 35712, Note_on_c, 3, 50, 75
5, 36092, Note_off_c, 3, 50, 0
5, 36096, Note_on_c, 3, 52, 75
5, 36416, Note_off_c, 3, 52, 0
5, 36480, Note_on_c, 3, 52, 75
5, 36800, Note_off_c, 3, 52, 0
5, 36864, Note_on_c, 3, 52, 75
5, 36864, Note_on_c, 3, 45, 75
5, 37488, Note_off_c, 3, 52, 0
5, 37488, Note_off_c, 3, 45, 0
5, 38400, Note_on_c, 3, 52, 75
5, 38560, Note_off_c, 3, 52, 0
5, 38784, Note_on_c, 3, 52, 75
5, 39164, Note_off_c, 3, 52, 0
5, 39168, Note_on_c, 3, 59, 75
5, 39168, Note_on_c, 3, 47, 75
5, 39792, Note_off_c, 3, 59, 0
5, 39792, Note_off_c, 3, 47, 0
5, 39936, Note_on_c, 3, 54, 75
5, 40096, Note_off_c, 3, 54, 0
5, 40320, Note_on_c, 3, 54, 75
5, 40700, Note_off_c, 3, 54, 0
5, 40704, Note_on_c, 3, 50, 75
5, 41328, Note_off_c, 3, 50, 0
5, 41472, Note_on_c, 3, 56, 75
5, 41632, Note_off_c, 3, 56, 0
5, 41856, Note_on_c, 3, 56, 75
5, 42236, Note_off_c, 3, 56, 0
5, 42240, Note_on_c, 3, 57, 75
5, 42620, Note_off_c, 3, 57, 0
5, 42624, Note_on_c, 3, 50, 75
5, 42944, Note_off_c, 3, 50, 0
5, 43008, Note_on_c, 3, 52, 75
5, 43632, Note_off_c, 3, 52, 0
5, 43776, Note_on_c, 3, 49, 75
5, 43964, Note_off_c, 3, 49, 0
5, 43968, Note_on_c, 3, 50, 75
5, 44156, Note_off_c, 3, 50, 0
5, 44160, Note_on_c, 3, 52, 75
5, 44348, Note_off_c, 3, 52, 0
5, 44352, Note_on_c, 3, 49, 75
5, 44540, Note_off_c, 3, 49, 0
5, 44544, Note_on_c, 3, 54, 90
5, 44732, Note_off_c, 3, 54, 0
5, 44736, Note_on_c, 3, 56, 75
5, 44924, Note_off_c, 3, 56, 0
5, 44928, Note_on_c, 3, 57, 75
5, 45116, Note_off_c, 3, 57, 0
5, 45120, Note_on_c, 3, 54, 75
5, 45308, Note_off_c, 3, 54, 0
5, 45312, Note_on_c, 3, 59, 90
5, 45500, Note_off_c, 3, 59, 0
5, 45504, Note_on_c, 3, 57, 75
5, 45692, Note_off_c, 3, 57, 0
5, 45696, Note_on_c, 3, 56, 75
5, 45884, Note_off_c, 3, 56, 0
5, 45888, Note_on_c, 3, 54, 75
5, 46076, Note_off_c, 3, 54, 0
5, 46080, Note_on_c, 3, 52, 75
5, 46268, Note_off_c, 3, 52, 0
5, 46272, Note_on_c, 3, 54, 75
5, 46460, Note_off_c, 3, 54, 0
5, 46464, Note_on_c, 3, 56, 75
5, 46652, Note_off_c, 3, 56, 0
5, 46656, Note_on_c, 3, 52, 75
5, 46844, Note_off_c, 3, 52, 0
5, 46848, Note_on_c, 3, 57, 90
5, 47036, Note_off_c, 3, 57, 0
5, 47040, Note_on_c, 3, 56, 75
5, 47228, Note_off_c, 3, 56, 0
5, 47232, Note_on_c, 3, 54, 75
5, 47420, Note_off_c, 3, 54, 0
5, 47424, Note_on_c, 3, 53, 75
5, 47612, Note_off_c, 3, 53, 0
5, 47616, Note_on_c, 3, 54, 75
5, 47804, Note_off_c, 3, 54, 0
5, 47808, Note_on_c, 3, 52, 75
5, 47996, Note_off_c, 3, 52, 0
5, 48000, Note_on_c, 3, 50, 75
5, 48188, Note_off_c, 3, 50, 0
5, 48192, Note_on_c, 3, 47, 75
5, 48352, Note_off_c, 3, 47, 0
5, 48384, Note_on_c, 3, 52, 75
5, 48704, Note_off_c, 3, 52, 0
5, 48768, Note_on_c, 3, 40, 75
5, 49088, Note_off_c, 3, 40, 0
5, 49152, Note_on_c, 3, 45, 100
5, 49472, Note_off_c, 3, 45, 0
5, 49920, Note_on_c, 3, 52, 100
5, 49920, Note_on_c, 3, 64, 100
5, 50688, Note_on_c, 3, 52, 100
5, 51312, Note_off_c, 3, 52, 64
5, 51312, Note_off_c, 3, 64, 64
5, 51456, Note_on_c, 3, 62, 100
5, 51456, Note_on_c, 3, 50, 100
5, 52080, Note_off_c, 3, 52, 0
5, 52224, Note_on_c, 3, 52, 100
5, 52848, Note_off_c, 3, 62, 64
5, 52848, Note_off_c, 3, 50, 64
5, 52992, Note_on_c, 3, 49, 100
5, 52992, Note_on_c, 3, 61, 100
5, 53616, Note_off_c, 3, 52, 0
5, 53760, Note_on_c, 3, 49, 100
5, 53920, Note_off_c, 3, 49, 64
5, 53920, Note_off_c, 3, 61, 64
5, 53952, Note_on_c, 3, 42, 100
5, 54140, Note_off_c, 3, 49, 0
5, 54140, Note_off_c, 3, 42, 0
5, 54144, Note_on_c, 3, 44, 100
5, 54332, Note_off_c, 3, 44, 0
5, 54336, Note_on_c, 3, 45, 100
5, 54524, Note_off_c, 3, 45, 0
5, 54528, Note_on_c, 3, 47, 100
5, 54716, Note_off_c, 3, 47, 0
5, 54720, Note_on_c, 3, 42, 100
5, 54908, Note_off_c, 3, 42, 0
5, 54912, Note_on_c, 3, 47, 100
5, 55100, Note_off_c, 3, 47, 0
5, 55104, Note_on_c, 3, 45, 100
5, 55264, Note_off_c, 3, 45, 0
5, 55296, Note_on_c, 3, 44, 100
5, 55484, Note_off_c, 3, 44, 0
5, 55488, Note_on_c, 3, 40, 100
5, 55676, Note_off_c, 3, 40, 0
5, 55680, Note_on_c, 3, 42, 100
5, 55868, Note_off_c, 3, 42, 0
5, 55872, Note_on_c, 3, 44, 100
5, 56060, Note_off_c, 3, 44, 0
5, 56064, Note_on_c, 3, 45, 100
5, 56252, Note_off_c, 3, 45, 0
5, 56256, Note_on_c, 3, 44, 100
5, 56444, Note_off_c, 3, 44, 0
5, 56448, Note_on_c, 3, 42, 100
5, 56636, Note_off_c, 3, 42, 0
5, 56640, Note_on_c, 3, 40, 100
5, 56800, Note_off_c, 3, 40, 0
5, 56832, Note_on_c, 3, 38, 105
5, 57020, Note_off_c, 3, 38, 0
5, 57024, Note_on_c, 3, 50, 105
5, 57104, Note_off_c, 3, 50, 0
5, 57216, Note_on_c, 3, 50, 105
5, 57296, Note_off_c, 3, 50, 0
5, 57408, Note_on_c, 3, 50, 105
5, 57488, Note_off_c, 3, 50, 0
5, 57600, Note_on_c, 3, 40, 105
5, 57788, Note_off_c, 3, 40, 0
5, 57792, Note_on_c, 3, 52, 105
5, 57872, Note_off_c, 3, 52, 0
5, 57984, Note_on_c, 3, 52, 105
5, 58064, Note_off_c, 3, 52, 0
5, 58176, Note_on_c, 3, 52, 105
5, 58256, Note_off_c, 3, 52, 0
5, 58368, Note_on_c, 3, 42, 105
5, 58556, Note_off_c, 3, 42, 0
5, 58560, Note_on_c, 3, 54, 105
5, 58640, Note_off_c, 3, 54, 0
5, 58752, Note_on_c, 3, 54, 105
5, 58832, Note_off_c, 3, 54, 0
5, 58944, Note_on_c, 3, 54, 105
5, 59024, Note_off_c, 3, 54, 0
5, 59136, Note_on_c, 3, 38, 105
5, 59324, Note_off_c, 3, 38, 0
5, 59328, Note_on_c, 3, 50, 105
5, 59408, Note_off_c, 3, 50, 0
5, 59520, Note_on_c, 3, 50, 105
5, 59600, Note_off_c, 3, 50, 0
5, 59712, Note_on_c, 3, 50, 105
5, 59792, Note_off_c, 3, 50, 0
5, 59904, Note_on_c, 3, 40, 105
5, 60092, Note_off_c, 3, 40, 0
5, 60096, Note_on_c, 3, 52, 105
5, 60176, Note_off_c, 3, 52, 0
5, 60288, Note_on_c, 3, 52, 105
5, 60368, Note_off_c, 3, 52, 0
5, 60480, Note_on_c, 3, 52, 105
5, 60560, Note_off_c, 3, 52, 0
5, 60672, Note_on_c, 3, 40, 105
5, 60860, Note_off_c, 3, 40, 0
5, 60864, Note_on_c, 3, 52, 105
5, 60944, Note_off_c, 3, 52, 0
5, 61056, Note_on_c, 3, 52, 105
5, 61136, Note_off_c, 3, 52, 0
5, 61248, Note_on_c, 3, 52, 105
5, 61328, Note_off_c, 3, 52, 0
5, 61440, Note_on_c, 3, 57, 100
5, 61440, Note_on_c, 3, 61, 100
5, 61628, Note_off_c, 3, 57, 0
5, 61628, Note_off_c, 3, 61, 0
5, 61632, Note_on_c, 3, 64, 100
5, 61820, Note_off_c, 3, 64, 0
5, 61824, Note_on_c, 3, 61, 100
5, 61824, Note_on_c, 3, 57, 100
5, 62012, Note_off_c, 3, 61, 0
5, 62012, Note_off_c, 3, 57, 0
5, 62016, Note_on_c, 3, 64, 100
5, 62204, Note_off_c, 3, 64, 0
5, 62208, Note_on_c, 3, 57, 100
5, 62208, Note_on_c, 3, 61, 100
5, 62396, Note_off_c, 3, 57, 0
5, 62396, Note_off_c, 3, 61, 0
5, 62400, Note_on_c, 3, 64, 100
5, 62588, Note_off_c, 3, 64, 0
5, 62592, Note_on_c, 3, 61, 100
5, 62592, Note_on_c, 3, 57, 100
5, 62780, Note_off_c, 3, 61, 0
5, 62780, Note_off_c, 3, 57, 0
5, 62784, Note_on_c, 3, 61, 100
5, 62784, Note_on_c, 3, 57, 100
5, 62944, Note_off_c, 3, 61, 0
5, 62944, Note_off_c, 3, 57, 0
5, 62976, Note_on_c, 3, 56, 100
5, 62976, Note_on_c, 3, 62, 100
5, 63164, Note_off_c, 3, 56, 0
5, 63164, Note_off_c, 3, 62, 0
5, 63168, Note_on_c, 3, 64, 100
5, 63356, Note_off_c, 3, 64, 0
5, 63360, Note_on_c, 3, 56, 100
5, 63360, Note_on_c, 3, 62, 100
5, 63548, Note_off_c, 3, 56, 0
5, 63548, Note_off_c, 3, 62, 0
5, 63552, Note_on_c, 3, 64, 100
5, 63740, Note_off_c, 3, 64, 0
5, 63744, Note_on_c, 3, 56, 100
5, 63744, Note_on_c, 3, 62, 100
5, 63932, Note_off_c, 3, 56, 0
5, 63932, Note_off_c, 3, 62, 0
5, 63936, Note_on_c, 3, 64, 100
5, 64124, Note_off_c, 3, 64, 0
5, 64128, Note_on_c, 3, 56, 100
5, 64128, Note_on_c, 3, 62, 100
5, 64316, Note_off_c, 3, 56, 0
5, 64316, Note_off_c, 3, 62, 0
5, 64320, Note_on_c, 3, 56, 100
5, 64320, Note_on_c, 3, 62, 100
5, 64508, Note_off_c, 3, 56, 0
5, 64508, Note_off_c, 3, 62, 0
5, 64512, Note_on_c, 3, 57, 100
5, 64512, Note_on_c, 3, 61, 100
5, 64700, Note_off_c, 3, 57, 0
5, 64700, Note_off_c, 3, 61, 0
5, 64704, Note_on_c, 3, 64, 100
5, 64892, Note_off_c, 3, 64, 0
5, 64896, Note_on_c, 3, 57, 100
5, 64896, Note_on_c, 3, 61, 100
5, 65084, Note_off_c, 3, 57, 0
5, 65084, Note_off_c, 3, 61, 0
5, 65088, Note_on_c, 3, 64, 100
5, 65276, Note_off_c, 3, 64, 0
5, 65280, Note_on_c, 3, 57, 100
5, 65280, Note_on_c, 3, 61, 100
5, 65468, Note_off_c, 3, 57, 0
5, 65468, Note_off_c, 3, 61, 0
5, 65472, Note_on_c, 3, 64, 100
5, 65632, Note_off_c, 3, 64, 0
5, 65664, Note_on_c, 3, 57, 100
5, 65664, Note_on_c, 3, 61, 100
5, 65744, Note_off_c, 3, 57, 0
5, 65744, Note_off_c, 3, 61, 0
5, 65856, Note_on_c, 3, 57, 100
5, 65856, Note_on_c, 3, 61, 100
5, 65936, Note_off_c, 3, 57, 0
5, 65936, Note_off_c, 3, 61, 0
5, 66048, Note_on_c, 3, 56, 100
5, 66048, Note_on_c, 3, 62, 100
5, 66236, Note_off_c, 3, 56, 0
5, 66236, Note_off_c, 3, 62, 0
5, 66240, Note_on_c, 3, 64, 100
5, 66428, Note_off_c, 3, 64, 0
5, 66432, Note_on_c, 3, 56, 100
5, 66432, Note_on_c, 3, 62, 100
5, 66620, Note_off_c, 3, 56, 0
5, 66620, Note_off_c, 3, 62, 0
5, 66624, Note_on_c, 3, 64, 100
5, 66812, Note_off_c, 3, 64, 0
5, 66816, Note_on_c, 3, 56, 100
5, 66816, Note_on_c, 3, 62, 100
5, 67004, Note_off_c, 3, 56, 0
5, 67004, Note_off_c, 3, 62, 0
5, 67008, Note_on_c, 3, 64, 100
5, 67168, Note_off_c, 3, 64, 0
5, 67200, Note_on_c, 3, 56, 100
5, 67200, Note_on_c, 3, 62, 100
5, 67280, Note_off_c, 3, 56, 0
5, 67280, Note_off_c, 3, 62, 0
5, 67392, Note_on_c, 3, 56, 100
5, 67392, Note_on_c, 3, 62, 100
5, 67472, Note_off_c, 3, 56, 0
5, 67472, Note_off_c, 3, 62, 0
5, 67584, Note_on_c, 3, 57, 100
5, 67584, Note_on_c, 3, 61, 100
5, 67772, Note_off_c, 3, 57, 0
5, 67772, Note_off_c, 3, 61, 0
5, 67776, Note_on_c, 3, 64, 100
5, 67936, Note_off_c, 3, 64, 0
5, 67968, Note_on_c, 3, 57, 100
5, 67968, Note_on_c, 3, 61, 100
5, 68048, Note_off_c, 3, 57, 0
5, 68048, Note_off_c, 3, 61, 0
5, 68160, Note_on_c, 3, 57, 100
5, 68160, Note_on_c, 3, 61, 100
5, 68240, Note_off_c, 3, 57, 0
5, 68240, Note_off_c, 3, 61, 0
5, 68352, Note_on_c, 3, 57, 100
5, 68352, Note_on_c, 3, 54, 100
5, 68540, Note_off_c, 3, 57, 0
5, 68540, Note_off_c, 3, 54, 0
5, 68544, Note_on_c, 3, 61, 100
5, 68704, Note_off_c, 3, 61, 0
5, 68736, Note_on_c, 3, 57, 100
5, 68736, Note_on_c, 3, 54, 100
5, 68816, Note_off_c, 3, 57, 0
5, 68816, Note_off_c, 3, 54, 0
5, 68928, Note_on_c, 3, 54, 100
5, 68928, Note_on_c, 3, 57, 100
5, 69008, Note_off_c, 3, 54, 0
5, 69008, Note_off_c, 3, 57, 0
5, 69120, Note_on_c, 3, 57, 100
5, 69120, Note_on_c, 3, 54, 100
5, 69120, Note_on_c, 3, 50, 100
5, 69308, Note_off_c, 3, 57, 0
5, 69308, Note_off_c, 3, 54, 0
5, 69308, Note_off_c, 3, 50, 0
5, 69312, Note_on_c, 3, 59, 100
5, 69472, Note_off_c, 3, 59, 0
5, 69504, Note_on_c, 3, 57, 100
5, 69504, Note_on_c, 3, 54, 100
5, 69504, Note_on_c, 3, 50, 100
5, 69584, Note_off_c, 3, 57, 0
5, 69584, Note_off_c, 3, 54, 0
5, 69584, Note_off_c, 3, 50, 0
5, 69696, Note_on_c, 3, 57, 100
5, 69696, Note_on_c, 3, 54, 100
5, 69696, Note_on_c, 3, 50, 100
5, 69776, Note_off_c, 3, 57, 0
5, 69776, Note_off_c, 3, 54, 0
5, 69776, Note_off_c, 3, 50, 0
5, 69888, Note_on_c, 3, 56, 100
5, 69888, Note_on_c, 3, 52, 100
5, 70076, Note_off_c, 3, 56, 0
5, 70076, Note_off_c, 3, 52, 0
5, 70080, Note_on_c, 3, 59, 100
5, 70240, Note_off_c, 3, 59, 0
5, 70272, Note_on_c, 3, 56, 100
5, 70272, Note_on_c, 3, 52, 100
5, 70352, Note_off_c, 3, 56, 0
5, 70352, Note_off_c, 3, 52, 0
5, 70464, Note_on_c, 3, 56, 100
5, 70464, Note_on_c, 3, 52, 100
5, 70544, Note_off_c, 3, 56, 0
5, 70544, Note_off_c, 3, 52, 0
5, 70656, Note_on_c, 3, 45, 75
5, 70844, Note_off_c, 3, 45, 0
5, 70848, Note_on_c, 3, 47, 75
5, 71036, Note_off_c, 3, 47, 0
5, 71040, Note_on_c, 3, 49, 75
5, 71228, Note_off_c, 3, 49, 0
5, 71232, Note_on_c, 3, 50, 75
5, 71420, Note_off_c, 3, 50, 0
5, 71424, Note_on_c, 3, 52, 75
5, 71612, Note_off_c, 3, 52, 0
5, 71616, Note_on_c, 3, 54, 75
5, 71804, Note_off_c, 3, 54, 0
5, 71808, Note_on_c, 3, 56, 75
5, 71996, Note_off_c, 3, 56, 0
5, 72000, Note_on_c, 3, 57, 75
5, 72160, Note_off_c, 3, 57, 0
5, 72192, Note_on_c, 3, 44, 75
5, 72380, Note_off_c, 3, 44, 0
5, 72384, Note_on_c, 3, 45, 75
5, 72572, Note_off_c, 3, 45, 0
5, 72576, Note_on_c, 3, 47, 75
5, 72764, Note_off_c, 3, 47, 0
5, 72768, Note_on_c, 3, 49, 75
5, 72956, Note_off_c, 3, 49, 0
5, 72960, Note_on_c, 3, 50, 75
5, 73148, Note_off_c, 3, 50, 0
5, 73152, Note_on_c, 3, 52, 75
5, 73340, Note_off_c, 3, 52, 0
5, 73344, Note_on_c, 3, 54, 75
5, 73532, Note_off_c, 3, 54, 0
5, 73536, Note_on_c, 3, 56, 75
5, 73696, Note_off_c, 3, 56, 0
5, 73728, Note_on_c, 3, 45, 75
5, 73916, Note_off_c, 3, 45, 0
5, 73920, Note_on_c, 3, 47, 75
5, 74108, Note_off_c, 3, 47, 0
5, 74112, Note_on_c, 3, 49, 75
5, 74300, Note_off_c, 3, 49, 0
5, 74304, Note_on_c, 3, 50, 75
5, 74492, Note_off_c, 3, 50, 0
5, 74496, Note_on_c, 3, 52, 75
5, 74684, Note_off_c, 3, 52, 0
5, 74688, Note_on_c, 3, 54, 75
5, 74876, Note_off_c, 3, 54, 0
5, 74880, Note_on_c, 3, 56, 75
5, 75068, Note_off_c, 3, 56, 0
5, 75072, Note_on_c, 3, 57, 75
5, 75232, Note_off_c, 3, 57, 0
5, 75264, Note_on_c, 3, 44, 75
5, 75452, Note_off_c, 3, 44, 0
5, 75456, Note_on_c, 3, 45, 75
5, 75644, Note_off_c, 3, 45, 0
5, 75648, Note_on_c, 3, 47, 75
5, 75836, Note_off_c, 3, 47, 0
5, 75840, Note_on_c, 3, 49, 75
5, 76028, Note_off_c, 3, 49, 0
5, 76032, Note_on_c, 3, 50, 75
5, 76220, Note_off_c, 3, 50, 0
5, 76224, Note_on_c, 3, 52, 75
5, 76412, Note_off_c, 3, 52, 0
5, 76416, Note_on_c, 3, 54, 75
5, 76604, Note_off_c, 3, 54, 0
5, 76608, Note_on_c, 3, 56, 75
5, 76768, Note_off_c, 3, 56, 0
5, 76800, Note_on_c, 3, 57, 75
5, 77120, Note_off_c, 3, 57, 0
5, 77568, Note_on_c, 3, 54, 75
5, 77568, Note_on_c, 3, 42, 75
5, 77888, Note_off_c, 3, 54, 0
5, 77888, Note_off_c, 3, 42, 0
5, 78336, Note_on_c, 3, 50, 75
5, 78336, Note_on_c, 3, 38, 75
5, 78656, Note_off_c, 3, 50, 0
5, 78656, Note_off_c, 3, 38, 0
5, 79104, Note_on_c, 3, 40, 75
5, 79104, Note_on_c, 3, 52, 75
5, 79424, Note_off_c, 3, 40, 0
5, 79424, Note_off_c, 3, 52, 0
5, 79872, Note_on_c, 3, 59, 100
5, 79872, Note_on_c, 3, 56, 100
5, 79872, Note_on_c, 3, 53, 100
5, 80060, Note_off_c, 3, 59, 0
5, 80060, Note_off_c, 3, 56, 0
5, 80060, Note_off_c, 3, 53, 0
5, 80064, Note_on_c, 3, 61, 100
5, 80252, Note_off_c, 3, 61, 0
5, 80256, Note_on_c, 3, 59, 100
5, 80256, Note_on_c, 3, 56, 100
5, 80256, Note_on_c, 3, 53, 100
5, 80444, Note_off_c, 3, 59, 0
5, 80444, Note_off_c, 3, 56, 0
5, 80444, Note_off_c, 3, 53, 0
5, 80448, Note_on_c, 3, 61, 100
5, 80636, Note_off_c, 3, 61, 0
5, 80640, Note_on_c, 3, 59, 100
5, 80640, Note_on_c, 3, 56, 100
5, 80640, Note_on_c, 3, 53, 100
5, 80828, Note_off_c, 3, 59, 0
5, 80828, Note_off_c, 3, 56, 0
5, 80828, Note_off_c, 3, 53, 0
5, 80832, Note_on_c, 3, 61, 100
5, 81020, Note_off_c, 3, 61, 0
5, 81024, Note_on_c, 3, 59, 100
5, 81024, Note_on_c, 3, 56, 100
5, 81024, Note_on_c, 3, 53, 100
5, 81212, Note_off_c, 3, 59, 0
5, 81212, Note_off_c, 3, 56, 0
5, 81212, Note_off_c, 3, 53, 0
5, 81216, Note_on_c, 3, 61, 100
5, 81376, Note_off_c, 3, 61, 0
5, 81408, Note_on_c, 3, 54, 100
5, 81596, Note_off_c, 3, 54, 0
5, 81600, Note_on_c, 3, 56, 100
5, 81788, Note_off_c, 3, 56, 0
5, 81792, Note_on_c, 3, 57, 100
5, 81980, Note_off_c, 3, 57, 0
5, 81984, Note_on_c, 3, 56, 100
5, 82172, Note_off_c, 3, 56, 0
5, 82176, Note_on_c, 3, 54, 100
5, 82364, Note_off_c, 3, 54, 0
5, 82368, Note_on_c, 3, 52, 100
5, 82556, Note_off_c, 3, 52, 0
5, 82560, Note_on_c, 3, 50, 100
5, 82748, Note_off_c, 3, 50, 0
5, 82752, Note_on_c, 3, 49, 100
5, 82912, Note_off_c, 3, 49, 0
5, 82944, Note_on_c, 3, 50, 100
5, 83132, Note_off_c, 3, 50, 0
5, 83136, Note_on_c, 3, 47, 100
5, 83324, Note_off_c, 3, 47, 0
5, 83328, Note_on_c, 3, 49, 100
5, 83516, Note_off_c, 3, 49, 0
5, 83520, Note_on_c, 3, 50, 100
5, 83708, Note_off_c, 3, 50, 0
5, 83712, Note_on_c, 3, 52, 100
5, 83900, Note_off_c, 3, 52, 0
5, 83904, Note_on_c, 3, 54, 100
5, 84092, Note_off_c, 3, 54, 0
5, 84096, Note_on_c, 3, 56, 100
5, 84284, Note_off_c, 3, 56, 0
5, 84288, Note_on_c, 3, 54, 100
5, 84448, Note_off_c, 3, 54, 0
5, 84480, Note_on_c, 3, 59, 100
5, 84480, Note_on_c, 3, 56, 100
5, 84480, Note_on_c, 3, 53, 100
5, 84668, Note_off_c, 3, 59, 0
5, 84668, Note_off_c, 3, 56, 0
5, 84668, Note_off_c, 3, 53, 0
5, 84672, Note_on_c, 3, 61, 100
5, 84860, Note_off_c, 3, 61, 0
5, 84864, Note_on_c, 3, 59, 100
5, 84864, Note_on_c, 3, 56, 100
5, 84864, Note_on_c, 3, 53, 100
5, 85052, Note_off_c, 3, 59, 0
5, 85052, Note_off_c, 3, 56, 0
5, 85052, Note_off_c, 3, 53, 0
5, 85056, Note_on_c, 3, 61, 100
5, 85244, Note_off_c, 3, 61, 0
5, 85248, Note_on_c, 3, 59, 100
5, 85248, Note_on_c, 3, 56, 100
5, 85248, Note_on_c, 3, 53, 100
5, 85436, Note_off_c, 3, 59, 0
5, 85436, Note_off_c, 3, 56, 0
5, 85436, Note_off_c, 3, 53, 0
5, 85440, Note_on_c, 3, 61, 100
5, 85628, Note_off_c, 3, 61, 0
5, 85632, Note_on_c, 3, 59, 100
5, 85632, Note_on_c, 3, 56, 100
5, 85632, Note_on_c, 3, 53, 100
5, 85820, Note_off_c, 3, 59, 0
5, 85820, Note_off_c, 3, 56, 0
5, 85820, Note_off_c, 3, 53, 0
5, 85824, Note_on_c, 3, 61, 100
5, 85984, Note_off_c, 3, 61, 0
5, 86016, Note_on_c, 3, 54, 100
5, 86204, Note_off_c, 3, 54, 0
5, 86208, Note_on_c, 3, 56, 100
5, 86396, Note_off_c, 3, 56, 0
5, 86400, Note_on_c, 3, 57, 100
5, 86588, Note_off_c, 3, 57, 0
5, 86592, Note_on_c, 3, 56, 100
5, 86752, Note_off_c, 3, 56, 0
5, 86784, Note_on_c, 3, 54, 100
5, 86972, Note_off_c, 3, 54, 0
5, 86976, Note_on_c, 3, 52, 100
5, 87164, Note_off_c, 3, 52, 0
5, 87168, Note_on_c, 3, 50, 100
5, 87356, Note_off_c, 3, 50, 0
5, 87360, Note_on_c, 3, 49, 100
5, 87520, Note_off_c, 3, 49, 0
5, 87552, Note_on_c, 3, 50, 100
5, 87740, Note_off_c, 3, 50, 0
5, 87744, Note_on_c, 3, 49, 100
5, 87932, Note_off_c, 3, 49, 0
5, 87936, Note_on_c, 3, 50, 100
5, 88124, Note_off_c, 3, 50, 0
5, 88128, Note_on_c, 3, 47, 100
5, 88288, Note_off_c, 3, 47, 0
5, 88320, Note_on_c, 3, 52, 100
5, 88508, Note_off_c, 3, 52, 0
5, 88512, Note_on_c, 3, 50, 100
5, 88700, Note_off_c, 3, 50, 0
5, 88704, Note_on_c, 3, 49, 100
5, 88892, Note_off_c, 3, 49, 0
5, 88896, Note_on_c, 3, 47, 100
5, 89056, Note_off_c, 3, 47, 0
5, 89088, Note_on_c, 3, 45, 100
5, 89408, Note_off_c, 3, 45, 0
5, 89472, Note_on_c, 3, 57, 100
5, 89660, Note_off_c, 3, 57, 0
5, 89664, Note_on_c, 3, 61, 100
5, 89852, Note_off_c, 3, 61, 0
5, 89856, Note_on_c, 3, 64, 100
5, 90176, Note_off_c, 3, 64, 0
5, 90240, Note_on_c, 3, 52, 100
5, 90240, Note_on_c, 3, 40, 100
5, 90560, Note_off_c, 3, 52, 0
5, 90560, Note_off_c, 3, 40, 0
5, 90624, Note_on_c, 3, 57, 100
5, 90624, Note_on_c, 3, 45, 100
5, 90944, Note_off_c, 3, 57, 0
5, 90944, Note_off_c, 3, 45, 0
5, 91008, Note_on_c, 3, 57, 100
5, 91196, Note_off_c, 3, 57, 0
5, 91200, Note_on_c, 3, 61, 100
5, 91388, Note_off_c, 3, 61, 0
5, 91392, Note_on_c, 3, 64, 100
5, 91712, Note_off_c, 3, 64, 0
5, 91776, Note_on_c, 3, 52, 100
5, 91776, Note_on_c, 3, 40, 100
5, 92096, Note_off_c, 3, 52, 0
5, 92096, Note_off_c, 3, 40, 0
5, 92160, Note_on_c, 3, 57, 100
5, 92160, Note_on_c, 3, 45, 100
5, 92784, Note_off_c, 3, 57, 0
5, 92784, Note_off_c, 3, 45, 0
5, 92928, Note_on_c, 3, 45, 100
5, 92928, Note_on_c, 3, 33, 106
5, 93392, Note_off_c, 3, 45, 0
5, 93392, Note_off_c, 3, 33, 0
5, 93504, Note_on_c, 3, 45, 100
5, 93504, Note_on_c, 3, 33, 106
5, 93664, Note_off_c, 3, 45, 0
5, 93664, Note_off_c, 3, 33, 0
5, 93696, Note_on_c, 3, 45, 100
5, 93696, Note_on_c, 3, 33, 106
5, 94320, Note_off_c, 3, 45, 0
5, 94320, Note_off_c, 3, 33, 0
5, 118272, Note_on_c, 3, 45, 75
5, 118272, Note_on_c, 3, 57, 75
5, 124272, Note_off_c, 3, 45, 0
5, 124272, Note_off_c, 3, 57, 0
5, 124416, Note_on_c, 3, 57, 75
5, 124416, Note_on_c, 3, 45, 75
5, 124736, Note_off_c, 3, 57, 0
5, 124736, Note_off_c, 3, 45, 0
5, 125184, Note_on_c, 3, 56, 75
5, 125504, Note_off_c, 3, 56, 0
5, 125952, Note_on_c, 3, 57, 75
5, 125952, Note_on_c, 3, 61, 75
5, 126272, Note_off_c, 3, 57, 0
5, 126272, Note_off_c, 3, 61, 0
5, 126720, Note_on_c, 3, 57, 75
5, 126720, Note_on_c, 3, 54, 75
5, 127040, Note_off_c, 3, 57, 0
5, 127040, Note_off_c, 3, 54, 0
5, 127488, Note_on_c, 3, 56, 75
5, 127488, Note_on_c, 3, 52, 75
5, 129020, Note_off_c, 3, 56, 0
5, 129024, Note_on_c, 3, 57, 75
5, 129024, Note_on_c, 3, 54, 75
5, 130416, Note_off_c, 3, 57, 0
5, 130416, Note_off_c, 3, 52, 64
5, 130556, Note_off_c, 3, 54, 0
5, 130560, Note_on_c, 3, 56, 75
5, 130560, Note_on_c, 3, 52, 75
5, 132092, Note_off_c, 3, 56, 0
5, 132096, Note_on_c, 3, 57, 75
5, 132096, Note_on_c, 3, 54, 75
5, 133488, Note_off_c, 3, 57, 0
5, 133488, Note_off_c, 3, 54, 0
5, 133488, Note_off_c, 3, 52, 64
5, 133632, Note_on_c, 3, 56, 75
5, 133632, Note_on_c, 3, 52, 75
5, 133952, Note_off_c, 3, 56, 0
5, 133952, Note_off_c, 3, 52, 0
5, 134400, Note_on_c, 3, 57, 75
5, 134400, Note_on_c, 3, 51, 75
5, 134720, Note_off_c, 3, 57, 0
5, 134720, Note_off_c, 3, 51, 0
5, 135168, Note_on_c, 3, 56, 75
5, 135168, Note_on_c, 3, 52, 75
5, 135488, Note_off_c, 3, 56, 0
5, 135488, Note_off_c, 3, 52, 0
5, 135936, Note_on_c, 3, 52, 75
5, 135936, Note_on_c, 3, 49, 75
5, 136256, Note_off_c, 3, 52, 0
5, 136256, Note_off_c, 3, 49, 0
5, 136704, Note_on_c, 3, 54, 75
5, 136704, Note_on_c, 3, 47, 75
5, 138236, Note_off_c, 3, 54, 0
5, 138240, Note_on_c, 3, 56, 75
5, 139004, Note_off_c, 3, 56, 0
5, 139008, Note_on_c, 3, 52, 75
5, 139772, Note_off_c, 3, 52, 0
5, 139776, Note_on_c, 3, 57, 75
5, 142076, Note_off_c, 3, 57, 64
5, 142080, Note_on_c, 3, 54, 75
5, 142844, Note_off_c, 3, 54, 0
5, 142848, Note_on_c, 3, 56, 75
5, 145148, Note_off_c, 3, 56, 64
5, 145152, Note_on_c, 3, 52, 75
5, 145916, Note_off_c, 3, 52, 0
5, 145920, Note_on_c, 3, 54, 75
5, 148220, Note_off_c, 3, 54, 64
5, 148224, Note_on_c, 3, 59, 75
5, 148988, Note_off_c, 3, 47, 64
5, 148988, Note_off_c, 3, 59, 0
5, 148992, Note_on_c, 3, 59, 75
5, 148992, Note_on_c, 3, 52, 75
5, 149616, Note_off_c, 3, 59, 0
5, 149616, Note_off_c, 3, 52, 0
5, 152064, Note_on_c, 3, 59, 75
5, 152064, Note_on_c, 3, 52, 75
5, 152688, Note_off_c, 3, 59, 0
5, 152688, Note_off_c, 3, 52, 0
5, 155136, Note_on_c, 3, 52, 75
5, 155136, Note_on_c, 3, 40, 75
5, 156668, Note_off_c, 3, 52, 0
5, 156668, Note_off_c, 3, 40, 0
5, 156672, Note_on_c, 3, 45, 75
5, 158064, Note_off_c, 3, 45, 0
5, 158208, Note_on_c, 3, 47, 75
5, 159600, Note_off_c, 3, 47, 0
5, 159744, Note_on_c, 3, 57, 75
5, 159744, Note_on_c, 3, 47, 75
5, 161136, Note_off_c, 3, 57, 0
5, 161136, Note_off_c, 3, 47, 0
5, 161280, Note_on_c, 3, 56, 75
5, 161280, Note_on_c, 3, 52, 75
5, 161984, Note_off_c, 3, 56, 0
5, 161984, Note_off_c, 3, 52, 0
5, 162816, Note_on_c, 3, 52, 75
5, 162816, Note_on_c, 3, 55, 75
5, 162816, Note_on_c, 3, 59, 75
5, 163196, Note_off_c, 3, 55, 0
5, 163196, Note_off_c, 3, 59, 0
5, 163200, Note_on_c, 3, 62, 75
5, 163580, Note_off_c, 3, 62, 0
5, 163584, Note_on_c, 3, 55, 75
5, 163584, Note_on_c, 3, 59, 75
5, 163964, Note_off_c, 3, 55, 0
5, 163964, Note_off_c, 3, 59, 0
5, 163968, Note_on_c, 3, 64, 75
5, 164348, Note_off_c, 3, 52, 0
5, 164348, Note_off_c, 3, 64, 0
5, 164352, Note_on_c, 3, 51, 75
5, 164352, Note_on_c, 3, 57, 75
5, 164352, Note_on_c, 3, 59, 75
5, 164732, Note_off_c, 3, 57, 0
5, 164732, Note_off_c, 3, 59, 0
5, 164736, Note_on_c, 3, 66, 75
5, 165116, Note_off_c, 3, 66, 0
5, 165120, Note_on_c, 3, 57, 75
5, 165120, Note_on_c, 3, 59, 75
5, 165500, Note_off_c, 3, 57, 0
5, 165500, Note_off_c, 3, 59, 0
5, 165504, Note_on_c, 3, 66, 75
5, 165884, Note_off_c, 3, 51, 0
5, 165884, Note_off_c, 3, 66, 0
5, 165888, Note_on_c, 3, 52, 75
5, 165888, Note_on_c, 3, 55, 75
5, 165888, Note_on_c, 3, 59, 75
5, 166268, Note_off_c, 3, 55, 0
5, 166268, Note_off_c, 3, 59, 0
5, 166272, Note_on_c, 3, 64, 75
5, 166652, Note_off_c, 3, 64, 0
5, 166656, Note_on_c, 3, 55, 75
5, 166656, Note_on_c, 3, 59, 75
5, 167036, Note_off_c, 3, 55, 0
5, 167036, Note_off_c, 3, 59, 0
5, 167040, Note_on_c, 3, 64, 75
5, 167360, Note_off_c, 3, 64, 0
5, 167420, Note_off_c, 3, 52, 0
5, 167424, Note_on_c, 3, 54, 75
5, 167424, Note_on_c, 3, 47, 75
5, 167744, Note_off_c, 3, 54, 0
5, 167744, Note_off_c, 3, 47, 0
5, 167808, Note_on_c, 3, 59, 75
5, 168192, Note_on_c, 3, 66, 75
5, 168572, Note_off_c, 3, 66, 0
5, 168576, Note_on_c, 3, 63, 75
5, 168736, Note_off_c, 3, 59, 0
5, 168956, Note_off_c, 3, 63, 0
5, 168960, Note_on_c, 3, 60, 75
5, 168960, Note_on_c, 3, 64, 75
5, 169340, Note_off_c, 3, 60, 0
5, 169340, Note_off_c, 3, 64, 0
5, 169344, Note_on_c, 3, 60, 75
5, 169724, Note_off_c, 3, 60, 0
5, 169728, Note_on_c, 3, 64, 75
5, 170108, Note_off_c, 3, 64, 0
5, 170112, Note_on_c, 3, 60, 75
5, 170432, Note_off_c, 3, 60, 0
5, 170496, Note_on_c, 3, 57, 75
5, 170496, Note_on_c, 3, 60, 75
5, 170496, Note_on_c, 3, 64, 75
5, 170876, Note_off_c, 3, 57, 0
5, 170876, Note_off_c, 3, 60, 0
5, 170876, Note_off_c, 3, 64, 0
5, 170880, Note_on_c, 3, 66, 75
5, 171260, Note_off_c, 3, 66, 0
5, 171264, Note_on_c, 3, 57, 75
5, 171264, Note_on_c, 3, 60, 75
5, 171264, Note_on_c, 3, 64, 75
5, 171644, Note_off_c, 3, 57, 0
5, 171644, Note_off_c, 3, 60, 0
5, 171644, Note_off_c, 3, 64, 0
5, 171648, Note_on_c, 3, 66, 75
5, 171968, Note_off_c, 3, 66, 0
5, 172032, Note_on_c, 3, 59, 75
5, 172032, Note_on_c, 3, 59, 75
5, 172352, Note_off_c, 3, 59, 0
5, 172416, Note_on_c, 3, 47, 75
5, 172736, Note_off_c, 3, 47, 0
5, 172800, Note_on_c, 3, 59, 75
5, 172960, Note_off_c, 3, 59, 0
5, 173184, Note_on_c, 3, 63, 75
5, 173424, Note_off_c, 3, 59, 0
5, 173564, Note_off_c, 3, 63, 0
5, 173568, Note_on_c, 3, 64, 75
5, 173568, Note_on_c, 3, 59, 75
5, 173568, Note_on_c, 3, 52, 75
5, 173888, Note_off_c, 3, 64, 0
5, 173888, Note_off_c, 3, 59, 0
5, 173888, Note_off_c, 3, 52, 0
5, 175104, Note_on_c, 3, 52, 75
5, 175104, Note_on_c, 3, 59, 75
5, 176496, Note_off_c, 3, 52, 0
5, 176640, Note_on_c, 3, 51, 75
5, 176640, Note_on_c, 3, 59, 75
5, 178032, Note_off_c, 3, 51, 0
5, 178176, Note_on_c, 3, 52, 75
5, 179568, Note_off_c, 3, 52, 0
5, 179568, Note_off_c, 3, 59, 64
5, 179712, Note_on_c, 3, 47, 75
5, 180476, Note_off_c, 3, 59, 64
5, 181104, Note_off_c, 3, 47, 0
5, 181248, Note_on_c, 3, 60, 75
5, 181248, Note_on_c, 3, 48, 75
5, 182640, Note_off_c, 3, 60, 0
5, 182640, Note_off_c, 3, 48, 0
5, 182784, Note_on_c, 3, 57, 75
5, 182784, Note_on_c, 3, 45, 75
5, 185712, Note_off_c, 3, 57, 64
5, 185712, Note_off_c, 3, 45, 64
5, 185856, Note_on_c, 3, 64, 75
5, 185856, Note_on_c, 3, 60, 75
5, 185856, Note_on_c, 3, 55, 75
5, 186176, Note_off_c, 3, 55, 0
5, 187248, Note_off_c, 3, 64, 0
5, 187248, Note_off_c, 3, 60, 0
5, 187392, Note_on_c, 3, 62, 75
5, 187392, Note_on_c, 3, 59, 75
5, 187392, Note_on_c, 3, 55, 75
5, 187712, Note_off_c, 3, 55, 0
5, 188784, Note_off_c, 3, 62, 0
5, 188784, Note_off_c, 3, 59, 0
5, 188928, Note_on_c, 3, 64, 75
5, 188928, Note_on_c, 3, 60, 75
5, 188928, Note_on_c, 3, 55, 75
5, 189248, Note_off_c, 3, 55, 0
5, 190320, Note_off_c, 3, 64, 0
5, 190320, Note_off_c, 3, 60, 0
5, 190464, Note_on_c, 3, 65, 75
5, 190464, Note_on_c, 3, 62, 75
5, 190464, Note_on_c, 3, 59, 75
5, 190464, Note_on_c, 3, 55, 75
5, 190784, Note_off_c, 3, 59, 0
5, 190784, Note_off_c, 3, 55, 0
5, 191856, Note_off_c, 3, 65, 0
5, 191856, Note_off_c, 3, 62, 0
5, 192000, Note_on_c, 3, 52, 75
5, 192000, Note_on_c, 3, 48, 75
5, 192764, Note_off_c, 3, 52, 0
5, 192768, Note_on_c, 3, 53, 75
5, 193148, Note_off_c, 3, 53, 0
5, 193152, Note_on_c, 3, 57, 75
5, 193532, Note_off_c, 3, 57, 0
5, 193536, Note_on_c, 3, 55, 75
5, 193916, Note_off_c, 3, 55, 0
5, 193920, Note_on_c, 3, 56, 75
5, 194300, Note_off_c, 3, 56, 0
5, 194304, Note_on_c, 3, 57, 75
5, 194684, Note_off_c, 3, 57, 0
5, 194688, Note_on_c, 3, 58, 75
5, 194928, Note_off_c, 3, 48, 0
5, 195008, Note_off_c, 3, 58, 0
5, 195072, Note_on_c, 3, 59, 75
5, 195072, Note_on_c, 3, 56, 75
5, 195072, Note_on_c, 3, 47, 75
5, 196992, Note_on_c, 3, 56, 75
5, 196992, Note_on_c, 3, 52, 75
5, 197232, Note_off_c, 3, 59, 64
5, 197232, Note_off_c, 3, 56, 64
5, 197372, Note_off_c, 3, 56, 0
5, 197372, Note_off_c, 3, 52, 0
5, 197376, Note_on_c, 3, 57, 75
5, 197376, Note_on_c, 3, 54, 75
5, 197756, Note_off_c, 3, 57, 0
5, 197756, Note_off_c, 3, 54, 0
5, 197760, Note_on_c, 3, 54, 75
5, 197760, Note_on_c, 3, 51, 75
5, 198000, Note_off_c, 3, 47, 64
5, 198140, Note_off_c, 3, 54, 0
5, 198140, Note_off_c, 3, 51, 0
5, 198144, Note_on_c, 3, 52, 75
5, 198144, Note_on_c, 3, 40, 75
5, 198768, Note_off_c, 3, 52, 0
5, 198768, Note_off_c, 3, 40, 0
5, 199680, Note_on_c, 3, 51, 75
5, 199680, Note_on_c, 3, 39, 75
5, 200304, Note_off_c, 3, 51, 0
5, 200304, Note_off_c, 3, 39, 0
5, 201216, Note_on_c, 3, 49, 75
5, 201840, Note_off_c, 3, 49, 0
5, 202752, Note_on_c, 3, 47, 75
5, 202752, Note_on_c, 3, 35, 75
5, 203376, Note_off_c, 3, 47, 0
5, 203376, Note_off_c, 3, 35, 0
5, 204288, Note_on_c, 3, 45, 75
5, 204288, Note_on_c, 3, 33, 75
5, 204912, Note_off_c, 3, 45, 0
5, 204912, Note_off_c, 3, 33, 0
5, 205824, Note_on_c, 3, 64, 75
5, 205824, Note_on_c, 3, 59, 75
5, 205824, Note_on_c, 3, 52, 75
5, 205824, Note_on_c, 3, 44, 75
5, 205824, Note_on_c, 3, 32, 75
5, 206448, Note_off_c, 3, 64, 0
5, 206448, Note_off_c, 3, 59, 0
5, 206448, Note_off_c, 3, 52, 0
5, 206448, Note_off_c, 3, 44, 0
5, 206448, Note_off_c, 3, 32, 0
5, 207360, Note_on_c, 3, 64, 75
5, 209216, Note_off_c, 3, 64, 64
5, 210048, Note_on_c, 3, 58, 75
5, 210368, Note_off_c, 3, 58, 0
5, 219648, Note_on_c, 3, 56, 75
5, 220220, Note_off_c, 3, 56, 0
5, 220224, Note_on_c, 3, 54, 75
5, 220384, Note_off_c, 3, 54, 0
5, 220416, Note_on_c, 3, 52, 75
5, 220988, Note_off_c, 3, 52, 0
5, 220992, Note_on_c, 3, 51, 75
5, 221152, Note_off_c, 3, 51, 0
5, 221184, Note_on_c, 3, 49, 75
5, 221756, Note_off_c, 3, 49, 0
5, 221760, Note_on_c, 3, 47, 75
5, 221920, Note_off_c, 3, 47, 0
5, 221952, Note_on_c, 3, 45, 75
5, 222524, Note_off_c, 3, 45, 0
5, 222528, Note_on_c, 3, 44, 75
5, 222688, Note_off_c, 3, 44, 0
5, 222720, Note_on_c, 3, 42, 75
5, 222720, Note_on_c, 3, 30, 75
5, 224112, Note_off_c, 3, 42, 0
5, 224112, Note_off_c, 3, 30, 0
5, 224256, Note_on_c, 3, 44, 75
5, 224256, Note_on_c, 3, 32, 75
5, 225648, Note_off_c, 3, 44, 0
5, 225648, Note_off_c, 3, 32, 0
5, 225792, Note_on_c, 3, 52, 75
5, 225792, Note_on_c, 3, 45, 75
5, 228720, Note_off_c, 3, 52, 64
5, 228720, Note_off_c, 3, 45, 64
5, 228864, Note_on_c, 3, 47, 75
5, 228864, Note_on_c, 3, 35, 75
5, 229488, Note_off_c, 3, 47, 0
5, 229488, Note_off_c, 3, 35, 0
5, 230400, Note_on_c, 3, 47, 75
5, 230400, Note_on_c, 3, 35, 75
5, 231024, Note_off_c, 3, 47, 0
5, 231024, Note_off_c, 3, 35, 0
5, 231936, Note_on_c, 3, 64, 75
5, 231936, Note_on_c, 3, 59, 75
5, 231936, Note_on_c, 3, 56, 75
5, 231936, Note_on_c, 3, 52, 75
5, 232560, Note_off_c, 3, 64, 0
5, 232560, Note_off_c, 3, 59, 0
5, 232560, Note_off_c, 3, 56, 0
5, 232560, Note_off_c, 3, 52, 0
5, 233472, Note_on_c, 3, 59, 75
5, 233472, Note_on_c, 3, 54, 75
5, 233472, Note_on_c, 3, 51, 75
5, 234236, Note_off_c, 3, 59, 0
5, 234236, Note_off_c, 3, 54, 0
5, 234236, Note_off_c, 3, 51, 0
5, 235008, Note_on_c, 3, 56, 75
5, 235008, Note_on_c, 3, 52, 75
5, 235008, Note_on_c, 3, 49, 75
5, 235008, Note_on_c, 3, 61, 75
5, 235772, Note_off_c, 3, 56, 0
5, 235772, Note_off_c, 3, 52, 0
5, 235772, Note_off_c, 3, 49, 0
5, 235772, Note_off_c, 3, 61, 0
5, 236544, Note_on_c, 3, 56, 75
5, 236544, Note_on_c, 3, 51, 75
5, 236544, Note_on_c, 3, 47, 75
5, 237308, Note_off_c, 3, 56, 0
5, 237308, Note_off_c, 3, 51, 0
5, 237308, Note_off_c, 3, 47, 0
5, 238080, Note_on_c, 3, 57, 75
5, 238080, Note_on_c, 3, 52, 75
5, 238080, Note_on_c, 3, 45, 75
5, 238844, Note_off_c, 3, 57, 0
5, 238844, Note_off_c, 3, 52, 0
5, 238844, Note_off_c, 3, 45, 0
5, 239616, Note_on_c, 3, 52, 75
5, 239616, Note_on_c, 3, 47, 75
5, 239616, Note_on_c, 3, 44, 75
5, 240380, Note_off_c, 3, 52, 0
5, 240380, Note_off_c, 3, 47, 0
5, 240380, Note_off_c, 3, 44, 0
5, 241152, Note_on_c, 3, 64, 75
5, 243260, Note_off_c, 3, 64, 64
5, 243264, Note_on_c, 3, 62, 85
5, 243312, Note_off_c, 3, 62, 64
5, 243328, Note_on_c, 3, 61, 85
5, 243376, Note_off_c, 3, 61, 64
5, 243392, Note_on_c, 3, 59, 85
5, 243440, Note_off_c, 3, 59, 64
5, 243456, Note_on_c, 3, 58, 75
5, 243776, Note_off_c, 3, 58, 64
5, 253440, Note_on_c, 3, 56, 75
5, 253600, Note_off_c, 3, 56, 0
5, 253824, Note_on_c, 3, 54, 75
5, 253984, Note_off_c, 3, 54, 0
5, 254208, Note_on_c, 3, 52, 75
5, 254368, Note_off_c, 3, 52, 0
5, 254592, Note_on_c, 3, 51, 75
5, 254752, Note_off_c, 3, 51, 0
5, 254976, Note_on_c, 3, 49, 75
5, 255136, Note_off_c, 3, 49, 0
5, 255360, Note_on_c, 3, 47, 75
5, 255520, Note_off_c, 3, 47, 0
5, 255744, Note_on_c, 3, 45, 75
5, 255904, Note_off_c, 3, 45, 0
5, 256128, Note_on_c, 3, 44, 75
5, 256288, Note_off_c, 3, 44, 0
5, 256512, Note_on_c, 3, 57, 75
5, 256512, Note_on_c, 3, 54, 75
5, 257904, Note_off_c, 3, 57, 0
5, 257904, Note_off_c, 3, 54, 0
5, 258048, Note_on_c, 3, 62, 75
5, 258048, Note_on_c, 3, 56, 75
5, 259440, Note_off_c, 3, 62, 0
5, 259440, Note_off_c, 3, 56, 0
5, 259584, Note_on_c, 3, 61, 75
5, 259584, Note_on_c, 3, 57, 75
5, 260976, Note_off_c, 3, 61, 0
5, 260976, Note_off_c, 3, 57, 0
5, 261120, Note_on_c, 3, 64, 75
5, 261120, Note_on_c, 3, 58, 75
5, 262512, Note_off_c, 3, 64, 0
5, 262512, Note_off_c, 3, 58, 0
5, 262656, Note_on_c, 3, 59, 75
5, 263036, Note_off_c, 3, 59, 0
5, 268800, Note_on_c, 3, 64, 75
5, 268800, Note_on_c, 3, 52, 75
5, 270332, Note_off_c, 3, 64, 0
5, 270336, Note_on_c, 3, 63, 75
5, 270656, Note_off_c, 3, 63, 0
5, 271728, Note_off_c, 3, 52, 64
5, 271872, Note_on_c, 3, 64, 75
5, 271872, Note_on_c, 3, 52, 75
5, 272192, Note_off_c, 3, 64, 0
5, 273408, Note_on_c, 3, 59, 75
5, 273728, Note_off_c, 3, 59, 0
5, 274800, Note_off_c, 3, 52, 64
5, 274944, Note_on_c, 3, 59, 75
5, 274944, Note_on_c, 3, 52, 75
5, 275264, Note_off_c, 3, 59, 0
5, 276480, Note_on_c, 3, 59, 75
5, 276720, Note_off_c, 3, 59, 0
5, 277872, Note_off_c, 3, 52, 64
5, 278016, Note_on_c, 3, 64, 75
5, 278016, Note_on_c, 3, 52, 75
5, 278336, Note_off_c, 3, 64, 0
5, 279552, Note_on_c, 3, 63, 90
5, 279552, Note_on_c, 3, 57, 90
5, 279552, Note_on_c, 3, 59, 90
5, 279872, Note_off_c, 3, 63, 0
5, 279872, Note_off_c, 3, 57, 0
5, 279872, Note_off_c, 3, 59, 0
5, 281088, Note_on_c, 3, 59, 90
5, 281088, Note_on_c, 3, 56, 90
5, 281408, Note_off_c, 3, 59, 0
5, 281408, Note_off_c, 3, 56, 0
5, 282480, Note_off_c, 3, 52, 64
5, 282624, Note_on_c, 3, 63, 90
5, 282624, Note_on_c, 3, 59, 90
5, 282624, Note_on_c, 3, 54, 90
5, 282624, Note_on_c, 3, 52, 75
5, 282944, Note_off_c, 3, 63, 0
5, 282944, Note_off_c, 3, 59, 0
5, 282944, Note_off_c, 3, 54, 0
5, 284160, Note_on_c, 3, 64, 90
5, 284160, Note_on_c, 3, 59, 90
5, 284160, Note_on_c, 3, 56, 90
5, 284480, Note_off_c, 3, 64, 0
5, 284480, Note_off_c, 3, 59, 0
5, 284480, Note_off_c, 3, 56, 0
5, 285552, Note_off_c, 3, 52, 64
5, 285696, Note_on_c, 3, 62, 90
5, 285696, Note_on_c, 3, 57, 90
5, 285696, Note_on_c, 3, 54, 90
5, 285696, Note_on_c, 3, 52, 75
5, 286016, Note_off_c, 3, 62, 0
5, 286016, Note_off_c, 3, 57, 0
5, 286016, Note_off_c, 3, 54, 0
5, 287232, Note_on_c, 3, 64, 90
5, 287232, Note_on_c, 3, 59, 90
5, 287232, Note_on_c, 3, 56, 90
5, 287552, Note_off_c, 3, 64, 0
5, 287552, Note_off_c, 3, 59, 0
5, 287552, Note_off_c, 3, 56, 0
5, 288624, Note_off_c, 3, 52, 64
5, 289920, Note_on_c, 3, 59, 75
5, 289920, Note_on_c, 3, 57, 75
5, 289920, Note_on_c, 3, 47, 75
5, 290300, Note_off_c, 3, 59, 0
5, 290300, Note_off_c, 3, 57, 0
5, 290300, Note_off_c, 3, 47, 0
5, 290304, Note_on_c, 3, 59, 75
5, 290304, Note_on_c, 3, 56, 75
5, 290304, Note_on_c, 3, 52, 75
5, 290928, Note_off_c, 3, 59, 0
5, 290928, Note_off_c, 3, 56, 0
5, 290928, Note_off_c, 3, 52, 0
5, 292992, Note_on_c, 3, 59, 75
5, 292992, Note_on_c, 3, 57, 75
5, 292992, Note_on_c, 3, 47, 75
5, 293372, Note_off_c, 3, 59, 0
5, 293372, Note_off_c, 3, 57, 0
5, 293372, Note_off_c, 3, 47, 0
5, 293376, Note_on_c, 3, 59, 75
5, 293376, Note_on_c, 3, 56, 75
5, 293376, Note_on_c, 3, 52, 75
5, 294000, Note_off_c, 3, 59, 0
5, 294000, Note_off_c, 3, 56, 0
5, 294000, Note_off_c, 3, 52, 0
5, 294528, Note_on_c, 3, 57, 75
5, 294528, Note_on_c, 3, 47, 75
5, 294528, Note_on_c, 3, 59, 75
5, 294908, Note_off_c, 3, 57, 0
5, 294908, Note_off_c, 3, 47, 0
5, 294908, Note_off_c, 3, 59, 64
5, 294912, Note_on_c, 3, 59, 75
5, 294912, Note_on_c, 3, 56, 75
5, 294912, Note_on_c, 3, 52, 75
5, 295536, Note_off_c, 3, 59, 0
5, 295536, Note_off_c, 3, 56, 0
5, 295536, Note_off_c, 3, 52, 0
5, 296064, Note_on_c, 3, 59, 75
5, 296064, Note_on_c, 3, 57, 75
5, 296064, Note_on_c, 3, 47, 75
5, 296444, Note_off_c, 3, 59, 0
5, 296444, Note_off_c, 3, 57, 0
5, 296444, Note_off_c, 3, 47, 0
5, 296448, Note_on_c, 3, 59, 75
5, 296448, Note_on_c, 3, 56, 75
5, 296448, Note_on_c, 3, 52, 75
5, 296768, Note_off_c, 3, 59, 0
5, 296768, Note_off_c, 3, 56, 0
5, 296768, Note_off_c, 3, 52, 0
5, 299904, Note_on_c, 3, 64, 75
5, 299904, Note_on_c, 3, 52, 75
5, 300224, Note_off_c, 3, 64, 0
5, 300224, Note_off_c, 3, 52, 0
5, 300288, Note_on_c, 3, 64, 75
5, 300288, Note_on_c, 3, 52, 75
5, 300608, Note_off_c, 3, 64, 0
5, 300608, Note_off_c, 3, 52, 0
5, 302976, Note_on_c, 3, 52, 75
5, 302976, Note_on_c, 3, 40, 75
5, 303356, Note_off_c, 3, 52, 0
5, 303356, Note_off_c, 3, 40, 0
5, 303360, Note_on_c, 3, 52, 75
5, 303360, Note_on_c, 3, 40, 75
5, 303740, Note_off_c, 3, 52, 0
5, 303740, Note_off_c, 3, 40, 0
5, 304128, Note_on_c, 3, 64, 90
5, 304512, Note_on_c, 3, 59, 75
5, 304512, Note_on_c, 3, 52, 75
5, 304672, Note_off_c, 3, 59, 0
5, 304672, Note_off_c, 3, 52, 0
5, 304896, Note_on_c, 3, 59, 75
5, 304896, Note_on_c, 3, 52, 75
5, 305056, Note_off_c, 3, 59, 0
5, 305056, Note_off_c, 3, 52, 0
5, 305520, Note_off_c, 3, 64, 0
5, 305664, Note_on_c, 3, 63, 90
5, 306048, Note_on_c, 3, 59, 75
5, 306048, Note_on_c, 3, 52, 75
5, 306208, Note_off_c, 3, 59, 0
5, 306208, Note_off_c, 3, 52, 0
5, 306432, Note_on_c, 3, 59, 75
5, 306432, Note_on_c, 3, 52, 75
5, 306592, Note_off_c, 3, 59, 0
5, 306592, Note_off_c, 3, 52, 0
5, 307056, Note_off_c, 3, 63, 0
5, 307200, Note_on_c, 3, 62, 90
5, 307584, Note_on_c, 3, 59, 75
5, 307584, Note_on_c, 3, 52, 75
5, 307744, Note_off_c, 3, 59, 0
5, 307744, Note_off_c, 3, 52, 0
5, 307968, Note_on_c, 3, 59, 75
5, 307968, Note_on_c, 3, 52, 75
5, 308128, Note_off_c, 3, 59, 0
5, 308128, Note_off_c, 3, 52, 0
5, 308352, Note_on_c, 3, 59, 75
5, 308352, Note_on_c, 3, 52, 75
5, 308512, Note_off_c, 3, 59, 0
5, 308512, Note_off_c, 3, 52, 0
5, 308592, Note_off_c, 3, 62, 0
5, 308736, Note_on_c, 3, 61, 90
5, 309120, Note_on_c, 3, 52, 75
5, 309500, Note_off_c, 3, 61, 0
5, 309500, Note_off_c, 3, 52, 0
5, 309504, Note_on_c, 3, 59, 90
5, 309888, Note_on_c, 3, 52, 75
5, 310268, Note_off_c, 3, 59, 0
5, 310268, Note_off_c, 3, 52, 0
5, 310272, Note_on_c, 3, 57, 90
5, 310272, Note_on_c, 3, 52, 90
5, 310272, Note_on_c, 3, 45, 90
5, 310592, Note_off_c, 3, 57, 0
5, 310592, Note_off_c, 3, 52, 0
5, 310592, Note_off_c, 3, 45, 0
5, 322560, Note_on_c, 3, 57, 100
5, 322560, Note_on_c, 3, 61, 100
5, 322720, Note_off_c, 3, 61, 0
5, 322752, Note_on_c, 3, 64, 100
5, 322880, Note_off_c, 3, 57, 0
5, 322912, Note_off_c, 3, 64, 0
5, 322944, Note_on_c, 3, 57, 100
5, 322944, Note_on_c, 3, 61, 100
5, 323104, Note_off_c, 3, 61, 0
5, 323136, Note_on_c, 3, 64, 100
5, 323264, Note_off_c, 3, 57, 0
5, 323296, Note_off_c, 3, 64, 0
5, 323328, Note_on_c, 3, 57, 100
5, 323328, Note_on_c, 3, 61, 100
5, 323488, Note_off_c, 3, 61, 0
5, 323520, Note_on_c, 3, 64, 100
5, 323648, Note_off_c, 3, 57, 0
5, 323680, Note_off_c, 3, 64, 0
5, 323712, Note_on_c, 3, 57, 100
5, 323712, Note_on_c, 3, 61, 100
5, 323872, Note_off_c, 3, 61, 0
5, 323904, Note_on_c, 3, 64, 100
5, 324032, Note_off_c, 3, 57, 0
5, 324064, Note_off_c, 3, 64, 0
5, 324096, Note_on_c, 3, 57, 100
5, 324096, Note_on_c, 3, 62, 100
5, 324256, Note_off_c, 3, 62, 0
5, 324288, Note_on_c, 3, 66, 100
5, 324416, Note_off_c, 3, 57, 0
5, 324448, Note_off_c, 3, 66, 0
5, 324480, Note_on_c, 3, 57, 100
5, 324480, Note_on_c, 3, 62, 100
5, 324640, Note_off_c, 3, 62, 0
5, 324672, Note_on_c, 3, 66, 100
5, 324800, Note_off_c, 3, 57, 0
5, 324832, Note_off_c, 3, 66, 0
5, 324864, Note_on_c, 3, 57, 100
5, 324864, Note_on_c, 3, 62, 100
5, 325024, Note_off_c, 3, 62, 0
5, 325056, Note_on_c, 3, 66, 100
5, 325184, Note_off_c, 3, 57, 0
5, 325216, Note_off_c, 3, 66, 0
5, 325248, Note_on_c, 3, 57, 100
5, 325248, Note_on_c, 3, 62, 100
5, 325408, Note_off_c, 3, 62, 0
5, 325440, Note_on_c, 3, 66, 100
5, 325568, Note_off_c, 3, 57, 0
5, 325600, Note_off_c, 3, 66, 0
5, 325632, Note_on_c, 3, 57, 100
5, 325632, Note_on_c, 3, 61, 100
5, 325820, Note_off_c, 3, 57, 0
5, 325820, Note_off_c, 3, 61, 0
5, 325824, Note_on_c, 3, 64, 100
5, 326012, Note_off_c, 3, 64, 0
5, 326016, Note_on_c, 3, 57, 100
5, 326016, Note_on_c, 3, 61, 100
5, 326204, Note_off_c, 3, 57, 0
5, 326204, Note_off_c, 3, 61, 0
5, 326208, Note_on_c, 3, 64, 100
5, 326396, Note_off_c, 3, 64, 0
5, 326400, Note_on_c, 3, 56, 100
5, 326400, Note_on_c, 3, 59, 100
5, 326588, Note_off_c, 3, 56, 0
5, 326588, Note_off_c, 3, 59, 0
5, 326592, Note_on_c, 3, 64, 100
5, 326780, Note_off_c, 3, 64, 0
5, 326784, Note_on_c, 3, 57, 100
5, 326784, Note_on_c, 3, 61, 100
5, 326972, Note_off_c, 3, 57, 0
5, 326972, Note_off_c, 3, 61, 0
5, 326976, Note_on_c, 3, 64, 100
5, 327136, Note_off_c, 3, 64, 0
5, 327168, Note_on_c, 3, 59, 100
5, 327168, Note_on_c, 3, 56, 100
5, 327168, Note_on_c, 3, 52, 100
5, 327548, Note_off_c, 3, 59, 0
5, 327548, Note_off_c, 3, 56, 0
5, 327552, Note_on_c, 3, 59, 100
5, 327552, Note_on_c, 3, 62, 100
5, 327932, Note_off_c, 3, 52, 0
5, 327932, Note_off_c, 3, 59, 0
5, 327932, Note_off_c, 3, 62, 0
5, 327936, Note_on_c, 3, 57, 100
5, 327936, Note_on_c, 3, 61, 100
5, 328316, Note_off_c, 3, 57, 0
5, 328316, Note_off_c, 3, 61, 0
5, 328320, Note_on_c, 3, 56, 100
5, 328320, Note_on_c, 3, 59, 100
5, 328640, Note_off_c, 3, 56, 0
5, 328640, Note_off_c, 3, 59, 0
5, 328704, Note_on_c, 3, 45, 100
5, 328892, Note_off_c, 3, 45, 0
5, 328896, Note_on_c, 3, 64, 100
5, 329084, Note_off_c, 3, 64, 0
5, 329088, Note_on_c, 3, 57, 100
5, 329088, Note_on_c, 3, 61, 100
5, 329276, Note_off_c, 3, 57, 0
5, 329276, Note_off_c, 3, 61, 0
5, 329280, Note_on_c, 3, 64, 100
5, 329468, Note_off_c, 3, 64, 0
5, 329472, Note_on_c, 3, 57, 100
5, 329472, Note_on_c, 3, 61, 100
5, 329660, Note_off_c, 3, 57, 0
5, 329660, Note_off_c, 3, 61, 0
5, 329664, Note_on_c, 3, 64, 100
5, 329852, Note_off_c, 3, 64, 0
5, 329856, Note_on_c, 3, 57, 100
5, 329856, Note_on_c, 3, 61, 100
5, 330044, Note_off_c, 3, 57, 0
5, 330044, Note_off_c, 3, 61, 0
5, 330048, Note_on_c, 3, 64, 100
5, 330208, Note_off_c, 3, 64, 0
5, 330240, Note_on_c, 3, 57, 100
5, 330240, Note_on_c, 3, 62, 100
5, 330428, Note_off_c, 3, 57, 0
5, 330428, Note_off_c, 3, 62, 0
5, 330432, Note_on_c, 3, 66, 100
5, 330620, Note_off_c, 3, 66, 0
5, 330624, Note_on_c, 3, 57, 100
5, 330624, Note_on_c, 3, 62, 100
5, 330812, Note_off_c, 3, 57, 0
5, 330812, Note_off_c, 3, 62, 0
5, 330816, Note_on_c, 3, 66, 100
5, 331004, Note_off_c, 3, 66, 0
5, 331008, Note_on_c, 3, 57, 100
5, 331008, Note_on_c, 3, 62, 100
5, 331196, Note_off_c, 3, 57, 0
5, 331196, Note_off_c, 3, 62, 0
5, 331200, Note_on_c, 3, 66, 100
5, 331388, Note_off_c, 3, 66, 0
5, 331392, Note_on_c, 3, 57, 100
5, 331392, Note_on_c, 3, 62, 100
5, 331580, Note_off_c, 3, 57, 0
5, 331580, Note_off_c, 3, 62, 0
5, 331584, Note_on_c, 3, 66, 100
5, 331744, Note_off_c, 3, 66, 0
5, 331776, Note_on_c, 3, 57, 100
5, 331776, Note_on_c, 3, 61, 100
5, 331964, Note_off_c, 3, 57, 0
5, 331964, Note_off_c, 3, 61, 0
5, 331968, Note_on_c, 3, 64, 100
5, 332156, Note_off_c, 3, 64, 0
5, 332160, Note_on_c, 3, 57, 100
5, 332160, Note_on_c, 3, 61, 100
5, 332348, Note_off_c, 3, 57, 0
5, 332348, Note_off_c, 3, 61, 0
5, 332352, Note_on_c, 3, 64, 100
5, 332540, Note_off_c, 3, 64, 0
5, 332544, Note_on_c, 3, 57, 100
5, 332544, Note_on_c, 3, 61, 100
5, 332732, Note_off_c, 3, 57, 0
5, 332732, Note_off_c, 3, 61, 0
5, 332736, Note_on_c, 3, 64, 100
5, 332924, Note_off_c, 3, 64, 0
5, 332928, Note_on_c, 3, 57, 100
5, 332928, Note_on_c, 3, 61, 100
5, 333116, Note_off_c, 3, 57, 0
5, 333116, Note_off_c, 3, 61, 0
5, 333120, Note_on_c, 3, 64, 100
5, 333280, Note_off_c, 3, 64, 0
5, 333312, Note_on_c, 3, 58, 100
5, 333312, Note_on_c, 3, 61, 100
5, 333500, Note_off_c, 3, 58, 0
5, 333500, Note_off_c, 3, 61, 0
5, 333504, Note_on_c, 3, 64, 100
5, 333692, Note_off_c, 3, 64, 0
5, 333696, Note_on_c, 3, 58, 100
5, 333696, Note_on_c, 3, 61, 100
5, 333884, Note_off_c, 3, 58, 0
5, 333884, Note_off_c, 3, 61, 0
5, 333888, Note_on_c, 3, 64, 100
5, 334076, Note_off_c, 3, 64, 0
5, 334080, Note_on_c, 3, 58, 100
5, 334080, Note_on_c, 3, 61, 100
5, 334268, Note_off_c, 3, 58, 0
5, 334268, Note_off_c, 3, 61, 0
5, 334272, Note_on_c, 3, 64, 100
5, 334460, Note_off_c, 3, 64, 0
5, 334464, Note_on_c, 3, 58, 100
5, 334464, Note_on_c, 3, 61, 100
5, 334652, Note_off_c, 3, 58, 0
5, 334652, Note_off_c, 3, 61, 0
5, 334656, Note_on_c, 3, 64, 100
5, 334816, Note_off_c, 3, 64, 0
5, 334848, Note_on_c, 3, 47, 100
5, 335036, Note_off_c, 3, 47, 0
5, 335040, Note_on_c, 3, 66, 100
5, 335228, Note_off_c, 3, 66, 0
5, 335232, Note_on_c, 3, 59, 100
5, 335232, Note_on_c, 3, 63, 100
5, 335420, Note_off_c, 3, 59, 0
5, 335420, Note_off_c, 3, 63, 0
5, 335424, Note_on_c, 3, 66, 100
5, 335612, Note_off_c, 3, 66, 0
5, 335616, Note_on_c, 3, 59, 100
5, 335616, Note_on_c, 3, 63, 100
5, 335804, Note_off_c, 3, 59, 0
5, 335804, Note_off_c, 3, 63, 0
5, 335808, Note_on_c, 3, 66, 100
5, 335996, Note_off_c, 3, 66, 0
5, 336000, Note_on_c, 3, 59, 100
5, 336000, Note_on_c, 3, 63, 100
5, 336188, Note_off_c, 3, 59, 0
5, 336188, Note_off_c, 3, 63, 0
5, 336192, Note_on_c, 3, 66, 100
5, 336352, Note_off_c, 3, 66, 0
5, 336384, Note_on_c, 3, 59, 100
5, 336384, Note_on_c, 3, 64, 100
5, 336572, Note_off_c, 3, 59, 0
5, 336572, Note_off_c, 3, 64, 0
5, 336576, Note_on_c, 3, 67, 100
5, 336764, Note_off_c, 3, 67, 0
5, 336768, Note_on_c, 3, 59, 100
5, 336768, Note_on_c, 3, 64, 100
5, 336956, Note_off_c, 3, 59, 0
5, 336956, Note_off_c, 3, 64, 0
5, 336960, Note_on_c, 3, 67, 100
5, 337148, Note_off_c, 3, 67, 0
5, 337152, Note_on_c, 3, 59, 100
5, 337152, Note_on_c, 3, 64, 100
5, 337340, Note_off_c, 3, 59, 0
5, 337340, Note_off_c, 3, 64, 0
5, 337344, Note_on_c, 3, 67, 100
5, 337532, Note_off_c, 3, 67, 0
5, 337536, Note_on_c, 3, 59, 100
5, 337536, Note_on_c, 3, 64, 100
5, 337724, Note_off_c, 3, 59, 0
5, 337724, Note_off_c, 3, 64, 0
5, 337728, Note_on_c, 3, 67, 100
5, 337888, Note_off_c, 3, 67, 0
5, 337920, Note_on_c, 3, 59, 100
5, 337920, Note_on_c, 3, 63, 100
5, 338108, Note_off_c, 3, 59, 0
5, 338108, Note_off_c, 3, 63, 0
5, 338112, Note_on_c, 3, 66, 100
5, 338300, Note_off_c, 3, 66, 0
5, 338304, Note_on_c, 3, 59, 100
5, 338304, Note_on_c, 3, 63, 100
5, 338492, Note_off_c, 3, 59, 0
5, 338492, Note_off_c, 3, 63, 0
5, 338496, Note_on_c, 3, 66, 100
5, 338684, Note_off_c, 3, 66, 0
5, 338688, Note_on_c, 3, 59, 100
5, 338688, Note_on_c, 3, 63, 100
5, 338876, Note_off_c, 3, 59, 0
5, 338876, Note_off_c, 3, 63, 0
5, 338880, Note_on_c, 3, 66, 100
5, 339068, Note_off_c, 3, 66, 0
5, 339072, Note_on_c, 3, 59, 100
5, 339072, Note_on_c, 3, 63, 100
5, 339260, Note_off_c, 3, 59, 0
5, 339260, Note_off_c, 3, 63, 0
5, 339264, Note_on_c, 3, 66, 100
5, 339424, Note_off_c, 3, 66, 0
5, 339456, Note_on_c, 3, 60, 100
5, 339456, Note_on_c, 3, 63, 100
5, 339644, Note_off_c, 3, 60, 0
5, 339644, Note_off_c, 3, 63, 0
5, 339648, Note_on_c, 3, 66, 100
5, 339836, Note_off_c, 3, 66, 0
5, 339840, Note_on_c, 3, 60, 100
5, 339840, Note_on_c, 3, 63, 100
5, 340028, Note_off_c, 3, 60, 0
5, 340028, Note_off_c, 3, 63, 0
5, 340032, Note_on_c, 3, 66, 100
5, 340220, Note_off_c, 3, 66, 0
5, 340224, Note_on_c, 3, 60, 100
5, 340224, Note_on_c, 3, 63, 100
5, 340412, Note_off_c, 3, 60, 0
5, 340412, Note_off_c, 3, 63, 0
5, 340416, Note_on_c, 3, 66, 100
5, 340604, Note_off_c, 3, 66, 0
5, 340608, Note_on_c, 3, 60, 100
5, 340608, Note_on_c, 3, 63, 100
5, 340796, Note_off_c, 3, 60, 0
5, 340796, Note_off_c, 3, 63, 0
5, 340800, Note_on_c, 3, 66, 100
5, 340960, Note_off_c, 3, 66, 0
5, 340992, Note_on_c, 3, 49, 100
5, 341180, Note_off_c, 3, 49, 0
5, 341184, Note_on_c, 3, 61, 100
5, 341372, Note_off_c, 3, 61, 0
5, 341376, Note_on_c, 3, 53, 100
5, 341376, Note_on_c, 3, 49, 100
5, 341564, Note_off_c, 3, 53, 0
5, 341564, Note_off_c, 3, 49, 0
5, 341568, Note_on_c, 3, 56, 100
5, 341756, Note_off_c, 3, 56, 0
5, 341760, Note_on_c, 3, 53, 100
5, 341760, Note_on_c, 3, 49, 100
5, 341948, Note_off_c, 3, 53, 0
5, 341948, Note_off_c, 3, 49, 0
5, 341952, Note_on_c, 3, 56, 100
5, 342140, Note_off_c, 3, 56, 0
5, 342144, Note_on_c, 3, 53, 100
5, 342144, Note_on_c, 3, 49, 100
5, 342332, Note_off_c, 3, 53, 0
5, 342332, Note_off_c, 3, 49, 0
5, 342336, Note_on_c, 3, 56, 100
5, 342496, Note_off_c, 3, 56, 0
5, 342528, Note_on_c, 3, 54, 100
5, 342528, Note_on_c, 3, 51, 100
5, 342528, Note_on_c, 3, 49, 100
5, 342716, Note_off_c, 3, 54, 0
5, 342716, Note_off_c, 3, 51, 0
5, 342716, Note_off_c, 3, 49, 0
5, 342720, Note_on_c, 3, 57, 100
5, 342908, Note_off_c, 3, 57, 0
5, 342912, Note_on_c, 3, 54, 100
5, 342912, Note_on_c, 3, 51, 100
5, 342912, Note_on_c, 3, 49, 100
5, 343100, Note_off_c, 3, 54, 0
5, 343100, Note_off_c, 3, 51, 0
5, 343100, Note_off_c, 3, 49, 0
5, 343104, Note_on_c, 3, 57, 100
5, 343292, Note_off_c, 3, 57, 0
5, 343296, Note_on_c, 3, 54, 100
5, 343296, Note_on_c, 3, 51, 100
5, 343296, Note_on_c, 3, 49, 100
5, 343484, Note_off_c, 3, 54, 0
5, 343484, Note_off_c, 3, 51, 0
5, 343484, Note_off_c, 3, 49, 0
5, 343488, Note_on_c, 3, 57, 100
5, 343676, Note_off_c, 3, 57, 0
5, 343680, Note_on_c, 3, 54, 100
5, 343680, Note_on_c, 3, 51, 100
5, 343680, Note_on_c, 3, 49, 100
5, 343868, Note_off_c, 3, 54, 0
5, 343868, Note_off_c, 3, 51, 0
5, 343868, Note_off_c, 3, 49, 0
5, 343872, Note_on_c, 3, 57, 100
5, 344032, Note_off_c, 3, 57, 0
5, 344064, Note_on_c, 3, 56, 100
5, 344064, Note_on_c, 3, 49, 100
5, 344252, Note_off_c, 3, 56, 0
5, 344252, Note_off_c, 3, 49, 0
5, 344256, Note_on_c, 3, 61, 100
5, 344444, Note_off_c, 3, 61, 0
5, 344448, Note_on_c, 3, 53, 100
5, 344448, Note_on_c, 3, 49, 100
5, 344636, Note_off_c, 3, 53, 0
5, 344636, Note_off_c, 3, 49, 0
5, 344640, Note_on_c, 3, 56, 100
5, 344828, Note_off_c, 3, 56, 0
5, 344832, Note_on_c, 3, 53, 100
5, 344832, Note_on_c, 3, 49, 100
5, 345020, Note_off_c, 3, 53, 0
5, 345020, Note_off_c, 3, 49, 0
5, 345024, Note_on_c, 3, 56, 100
5, 345212, Note_off_c, 3, 56, 0
5, 345216, Note_on_c, 3, 53, 100
5, 345216, Note_on_c, 3, 49, 100
5, 345404, Note_off_c, 3, 53, 0
5, 345404, Note_off_c, 3, 49, 0
5, 345408, Note_on_c, 3, 56, 100
5, 345568, Note_off_c, 3, 56, 0
5, 345600, Note_on_c, 3, 54, 100
5, 345600, Note_on_c, 3, 51, 100
5, 345600, Note_on_c, 3, 49, 100
5, 345788, Note_off_c, 3, 54, 0
5, 345788, Note_off_c, 3, 51, 0
5, 345788, Note_off_c, 3, 49, 0
5, 345792, Note_on_c, 3, 57, 100
5, 345980, Note_off_c, 3, 57, 0
5, 345984, Note_on_c, 3, 54, 100
5, 345984, Note_on_c, 3, 51, 100
5, 345984, Note_on_c, 3, 49, 100
5, 346172, Note_off_c, 3, 54, 0
5, 346172, Note_off_c, 3, 51, 0
5, 346172, Note_off_c, 3, 49, 0
5, 346176, Note_on_c, 3, 57, 100
5, 346364, Note_off_c, 3, 57, 0
5, 346368, Note_on_c, 3, 54, 100
5, 346368, Note_on_c, 3, 51, 100
5, 346368, Note_on_c, 3, 49, 100
5, 346556, Note_off_c, 3, 54, 0
5, 346556, Note_off_c, 3, 51, 0
5, 346556, Note_off_c, 3, 49, 0
5, 346560, Note_on_c, 3, 57, 100
5, 346748, Note_off_c, 3, 57, 0
5, 346752, Note_on_c, 3, 54, 100
5, 346752, Note_on_c, 3, 51, 100
5, 346752, Note_on_c, 3, 49, 100
5, 346940, Note_off_c, 3, 54, 0
5, 346940, Note_off_c, 3, 51, 0
5, 346940, Note_off_c, 3, 49, 0
5, 346944, Note_on_c, 3, 57, 100
5, 347104, Note_off_c, 3, 57, 0
5, 347136, Note_on_c, 3, 56, 100
5, 347136, Note_on_c, 3, 49, 100
5, 347456, Note_off_c, 3, 56, 0
5, 347456, Note_off_c, 3, 49, 0
5, 347520, Note_on_c, 3, 54, 100
5, 347520, Note_on_c, 3, 49, 100
5, 347708, Note_off_c, 3, 54, 0
5, 347708, Note_off_c, 3, 49, 0
5, 347712, Note_on_c, 3, 56, 100
5, 347900, Note_off_c, 3, 56, 0
5, 347904, Note_on_c, 3, 57, 100
5, 347904, Note_on_c, 3, 49, 100
5, 348224, Note_off_c, 3, 57, 0
5, 348224, Note_off_c, 3, 49, 0
5, 348288, Note_on_c, 3, 56, 100
5, 348288, Note_on_c, 3, 49, 100
5, 348476, Note_off_c, 3, 56, 0
5, 348476, Note_off_c, 3, 49, 0
5, 348480, Note_on_c, 3, 57, 100
5, 348668, Note_off_c, 3, 57, 0
5, 348672, Note_on_c, 3, 56, 100
5, 348672, Note_on_c, 3, 49, 100
5, 348992, Note_off_c, 3, 56, 0
5, 348992, Note_off_c, 3, 49, 0
5, 349056, Note_on_c, 3, 54, 100
5, 349056, Note_on_c, 3, 49, 100
5, 349244, Note_off_c, 3, 54, 0
5, 349244, Note_off_c, 3, 49, 0
5, 349248, Note_on_c, 3, 56, 100
5, 349436, Note_off_c, 3, 56, 0
5, 349440, Note_on_c, 3, 57, 100
5, 349440, Note_on_c, 3, 49, 100
5, 349760, Note_off_c, 3, 57, 0
5, 349760, Note_off_c, 3, 49, 0
5, 349824, Note_on_c, 3, 56, 100
5, 349824, Note_on_c, 3, 49, 100
5, 350012, Note_off_c, 3, 56, 0
5, 350012, Note_off_c, 3, 49, 0
5, 350016, Note_on_c, 3, 57, 100
5, 350204, Note_off_c, 3, 57, 0
5, 350208, Note_on_c, 3, 56, 100
5, 350208, Note_on_c, 3, 49, 100
5, 350528, Note_off_c, 3, 56, 0
5, 350528, Note_off_c, 3, 49, 0
5, 350976, Note_on_c, 3, 49, 100
5, 350976, Note_on_c, 3, 37, 100
5, 351296, Note_off_c, 3, 49, 0
5, 351296, Note_off_c, 3, 37, 0
5, 351744, Note_on_c, 3, 49, 100
5, 351744, Note_on_c, 3, 37, 100
5, 352368, Note_off_c, 3, 49, 0
5, 352368, Note_off_c, 3, 37, 0
5, 353280, Note_on_c, 3, 57, 100
5, 353280, Note_on_c, 3, 49, 100
5, 353280, Note_on_c, 3, 42, 100
5, 353904, Note_off_c, 3, 57, 0
5, 353904, Note_off_c, 3, 49, 0
5, 353904, Note_off_c, 3, 42, 0
5, 356352, Note_on_c, 3, 65, 75
5, 356352, Note_on_c, 3, 56, 75
5, 359280, Note_off_c, 3, 65, 64
5, 359280, Note_off_c, 3, 56, 64
5, 359424, Note_on_c, 3, 37, 75
5, 359424, Note_on_c, 3, 49, 75
5, 362352, Note_off_c, 3, 37, 64
5, 362352, Note_off_c, 3, 49, 64
5, 362496, Note_on_c, 3, 57, 75
5, 362496, Note_on_c, 3, 45, 75
5, 363120, Note_off_c, 3, 57, 0
5, 363120, Note_off_c, 3, 45, 0
5, 363264, Note_on_c, 3, 53, 75
5, 363264, Note_on_c, 3, 41, 75
5, 363888, Note_off_c, 3, 53, 0
5, 363888, Note_off_c, 3, 41, 0
5, 364032, Note_on_c, 3, 54, 75
5, 364032, Note_on_c, 3, 42, 75
5, 364656, Note_off_c, 3, 54, 0
5, 364656, Note_off_c, 3, 42, 0
5, 364800, Note_on_c, 3, 56, 75
5, 364800, Note_on_c, 3, 44, 75
5, 365424, Note_off_c, 3, 56, 0
5, 365424, Note_off_c, 3, 44, 0
5, 365568, Note_on_c, 3, 57, 75
5, 365568, Note_on_c, 3, 45, 75
5, 365888, Note_off_c, 3, 57, 0
5, 365888, Note_off_c, 3, 45, 0
5, 367488, Note_on_c, 3, 61, 75
5, 367488, Note_on_c, 3, 57, 75
5, 367808, Note_off_c, 3, 61, 0
5, 367808, Note_off_c, 3, 57, 0
5, 367872, Note_on_c, 3, 61, 75
5, 367872, Note_on_c, 3, 57, 75
5, 368192, Note_off_c, 3, 61, 0
5, 368192, Note_off_c, 3, 57, 0
5, 368256, Note_on_c, 3, 61, 75
5, 368256, Note_on_c, 3, 57, 75
5, 368576, Note_off_c, 3, 61, 0
5, 368576, Note_off_c, 3, 57, 0
5, 368640, Note_on_c, 3, 61, 75
5, 368640, Note_on_c, 3, 53, 75
5, 369264, Note_off_c, 3, 61, 0
5, 369264, Note_off_c, 3, 53, 0
5, 370560, Note_on_c, 3, 61, 75
5, 370560, Note_on_c, 3, 53, 75
5, 370880, Note_off_c, 3, 61, 0
5, 370880, Note_off_c, 3, 53, 0
5, 370944, Note_on_c, 3, 61, 75
5, 370944, Note_on_c, 3, 53, 75
5, 371264, Note_off_c, 3, 61, 0
5, 371264, Note_off_c, 3, 53, 0
5, 371328, Note_on_c, 3, 61, 75
5, 371328, Note_on_c, 3, 53, 75
5, 371648, Note_off_c, 3, 61, 0
5, 371648, Note_off_c, 3, 53, 0
5, 371712, Note_on_c, 3, 54, 75
5, 371712, Note_on_c, 3, 61, 75
5, 372860, Note_off_c, 3, 54, 0
5, 372864, Note_on_c, 3, 52, 75
5, 373244, Note_off_c, 3, 52, 0
5, 373248, Note_on_c, 3, 50, 75
5, 373568, Note_off_c, 3, 61, 0
5, 373632, Note_on_c, 3, 54, 75
5, 374256, Note_off_c, 3, 54, 0
5, 374400, Note_on_c, 3, 56, 75
5, 374640, Note_off_c, 3, 50, 0
5, 374720, Note_off_c, 3, 56, 0
5, 374784, Note_on_c, 3, 57, 75
5, 374784, Note_on_c, 3, 49, 75
5, 375104, Note_off_c, 3, 57, 0
5, 375168, Note_on_c, 3, 54, 75
5, 375168, Note_on_c, 3, 57, 75
5, 375548, Note_off_c, 3, 54, 0
5, 375548, Note_off_c, 3, 57, 0
5, 375552, Note_on_c, 3, 56, 75
5, 375552, Note_on_c, 3, 53, 75
5, 375932, Note_off_c, 3, 56, 0
5, 375932, Note_off_c, 3, 53, 0
5, 375936, Note_on_c, 3, 57, 75
5, 375936, Note_on_c, 3, 54, 75
5, 376256, Note_off_c, 3, 57, 0
5, 376256, Note_off_c, 3, 54, 0
5, 376320, Note_on_c, 3, 56, 75
5, 376320, Note_on_c, 3, 53, 75
5, 376640, Note_off_c, 3, 56, 0
5, 376640, Note_off_c, 3, 53, 0
5, 376640, Note_off_c, 3, 49, 0
5, 376704, Note_on_c, 3, 59, 100
5, 376704, Note_on_c, 3, 47, 100
5, 376864, Note_off_c, 3, 59, 0
5, 376864, Note_off_c, 3, 47, 0
5, 377088, Note_on_c, 3, 57, 100
5, 377088, Note_on_c, 3, 45, 100
5, 377248, Note_off_c, 3, 57, 0
5, 377248, Note_off_c, 3, 45, 0
5, 377472, Note_on_c, 3, 56, 100
5, 377472, Note_on_c, 3, 44, 100
5, 377632, Note_off_c, 3, 56, 0
5, 377632, Note_off_c, 3, 44, 0
5, 377856, Note_on_c, 3, 57, 100
5, 377856, Note_on_c, 3, 49, 100
5, 377856, Note_on_c, 3, 42, 100
5, 378480, Note_off_c, 3, 57, 0
5, 378480, Note_off_c, 3, 49, 0
5, 378480, Note_off_c, 3, 42, 0
5, 380928, Note_on_c, 3, 65, 100
5, 380928, Note_on_c, 3, 56, 100
5, 383856, Note_off_c, 3, 65, 64
5, 383856, Note_off_c, 3, 56, 64
5, 384000, Note_on_c, 3, 49, 100
5, 384000, Note_on_c, 3, 37, 100
5, 386928, Note_off_c, 3, 49, 64
5, 386928, Note_off_c, 3, 37, 64
5, 387072, Note_on_c, 3, 57, 100
5, 387072, Note_on_c, 3, 45, 100
5, 387836, Note_off_c, 3, 57, 0
5, 387836, Note_off_c, 3, 45, 0
5, 387840, Note_on_c, 3, 53, 100
5, 387840, Note_on_c, 3, 41, 100
5, 388604, Note_off_c, 3, 53, 0
5, 388604, Note_off_c, 3, 41, 0
5, 388608, Note_on_c, 3, 54, 100
5, 388608, Note_on_c, 3, 42, 100
5, 388988, Note_off_c, 3, 54, 0
5, 388988, Note_off_c, 3, 42, 0
5, 388992, Note_on_c, 3, 52, 100
5, 388992, Note_on_c, 3, 40, 100
5, 389372, Note_off_c, 3, 52, 0
5, 389372, Note_off_c, 3, 40, 0
5, 389376, Note_on_c, 3, 50, 100
5, 389376, Note_on_c, 3, 38, 100
5, 389756, Note_off_c, 3, 50, 0
5, 389756, Note_off_c, 3, 38, 0
5, 389760, Note_on_c, 3, 47, 100
5, 389760, Note_on_c, 3, 35, 100
5, 390140, Note_off_c, 3, 47, 0
5, 390140, Note_off_c, 3, 35, 0
5, 390144, Note_on_c, 3, 46, 75
5, 390144, Note_on_c, 3, 34, 75
5, 390464, Note_off_c, 3, 46, 0
5, 390464, Note_off_c, 3, 34, 0
5, 392064, Note_on_c, 3, 55, 75
5, 392064, Note_on_c, 3, 52, 75
5, 392064, Note_on_c, 3, 46, 75
5, 392384, Note_off_c, 3, 55, 0
5, 392384, Note_off_c, 3, 52, 0
5, 392384, Note_off_c, 3, 46, 0
5, 392448, Note_on_c, 3, 55, 75
5, 392448, Note_on_c, 3, 52, 75
5, 392448, Note_on_c, 3, 46, 75
5, 392768, Note_off_c, 3, 55, 0
5, 392768, Note_off_c, 3, 52, 0
5, 392768, Note_off_c, 3, 46, 0
5, 392832, Note_on_c, 3, 55, 75
5, 392832, Note_on_c, 3, 52, 75
5, 392832, Note_on_c, 3, 46, 75
5, 393152, Note_off_c, 3, 55, 0
5, 393152, Note_off_c, 3, 52, 0
5, 393152, Note_off_c, 3, 46, 0
5, 393216, Note_on_c, 3, 54, 75
5, 393216, Note_on_c, 3, 50, 75
5, 393216, Note_on_c, 3, 47, 75
5, 393980, Note_off_c, 3, 54, 0
5, 393980, Note_off_c, 3, 50, 0
5, 393980, Note_off_c, 3, 47, 0
5, 393984, Note_on_c, 3, 66, 75
5, 394364, Note_off_c, 3, 66, 0
5, 394368, Note_on_c, 3, 62, 75
5, 394748, Note_off_c, 3, 62, 0
5, 394752, Note_on_c, 3, 61, 75
5, 395136, Note_on_c, 3, 54, 75
5, 395136, Note_on_c, 3, 50, 75
5, 395516, Note_off_c, 3, 61, 0
5, 395516, Note_off_c, 3, 54, 0
5, 395516, Note_off_c, 3, 50, 0
5, 395520, Note_on_c, 3, 59, 75
5, 395520, Note_on_c, 3, 54, 75
5, 395520, Note_on_c, 3, 50, 75
5, 395840, Note_off_c, 3, 59, 0
5, 395840, Note_off_c, 3, 54, 0
5, 395840, Note_off_c, 3, 50, 0
5, 395904, Note_on_c, 3, 54, 75
5, 395904, Note_on_c, 3, 50, 75
5, 396224, Note_off_c, 3, 54, 0
5, 396224, Note_off_c, 3, 50, 0
5, 396288, Note_on_c, 3, 49, 75
5, 396672, Note_on_c, 3, 57, 75
5, 397052, Note_off_c, 3, 57, 0
5, 397056, Note_on_c, 3, 61, 75
5, 397436, Note_off_c, 3, 61, 0
5, 397440, Note_on_c, 3, 54, 75
5, 397680, Note_off_c, 3, 49, 0
5, 397760, Note_off_c, 3, 54, 0
5, 397824, Note_on_c, 3, 49, 75
5, 398208, Note_on_c, 3, 56, 75
5, 398588, Note_off_c, 3, 56, 0
5, 398592, Note_on_c, 3, 59, 75
5, 398972, Note_off_c, 3, 59, 0
5, 398976, Note_on_c, 3, 53, 75
5, 399216, Note_off_c, 3, 49, 0
5, 399296, Note_off_c, 3, 53, 0
5, 399360, Note_on_c, 3, 54, 75
5, 399360, Note_on_c, 3, 57, 75
5, 399360, Note_on_c, 3, 62, 75
5, 400892, Note_off_c, 3, 54, 0
5, 400896, Note_on_c, 3, 52, 75
5, 401660, Note_off_c, 3, 62, 64
5, 401664, Note_on_c, 3, 61, 75
5, 402044, Note_off_c, 3, 52, 0
5, 402044, Note_off_c, 3, 61, 0
5, 402048, Note_on_c, 3, 64, 75
5, 402048, Note_on_c, 3, 55, 75
5, 402428, Note_off_c, 3, 64, 0
5, 402428, Note_off_c, 3, 55, 0
5, 402432, Note_on_c, 3, 54, 75
5, 402432, Note_on_c, 3, 50, 75
5, 402432, Note_on_c, 3, 62, 75
5, 402752, Note_off_c, 3, 54, 0
5, 402752, Note_off_c, 3, 50, 0
5, 402752, Note_off_c, 3, 57, 64
5, 402752, Note_off_c, 3, 62, 64
5, 403200, Note_on_c, 3, 50, 75
5, 403824, Note_off_c, 3, 50, 0
5, 403968, Note_on_c, 3, 49, 75
5, 405360, Note_off_c, 3, 49, 0
5, 405504, Note_on_c, 3, 45, 75
5, 406896, Note_off_c, 3, 45, 0
5, 407040, Note_on_c, 3, 50, 75
5, 408432, Note_off_c, 3, 50, 0
5, 408576, Note_on_c, 3, 55, 75
5, 410108, Note_off_c, 3, 55, 0
5, 410112, Note_on_c, 3, 54, 75
5, 410736, Note_off_c, 3, 54, 0
5, 411264, Note_on_c, 3, 54, 75
5, 411584, Note_off_c, 3, 54, 0
5, 411648, Note_on_c, 3, 52, 75
5, 411968, Note_off_c, 3, 52, 0
5, 412032, Note_on_c, 3, 49, 75
5, 412352, Note_off_c, 3, 49, 0
5, 412416, Note_on_c, 3, 50, 75
5, 412736, Note_off_c, 3, 50, 0
5, 412800, Note_on_c, 3, 56, 75
5, 413120, Note_off_c, 3, 56, 0
5, 413184, Note_on_c, 3, 57, 75
5, 413808, Note_off_c, 3, 57, 0
5, 413952, Note_on_c, 3, 45, 75
5, 414272, Note_off_c, 3, 45, 0
5, 414720, Note_on_c, 3, 50, 75
5, 414720, Note_on_c, 3, 57, 75
5, 416112, Note_off_c, 3, 50, 0
5, 416256, Note_on_c, 3, 45, 75
5, 419184, Note_off_c, 3, 45, 64
5, 419328, Note_on_c, 3, 50, 75
5, 420720, Note_off_c, 3, 50, 0
5, 420720, Note_off_c, 3, 57, 64
5, 420864, Note_on_c, 3, 59, 75
5, 420864, Note_on_c, 3, 55, 75
5, 422256, Note_off_c, 3, 59, 0
5, 422256, Note_off_c, 3, 55, 0
5, 422400, Note_on_c, 3, 62, 75
5, 422400, Note_on_c, 3, 54, 75
5, 423164, Note_off_c, 3, 62, 0
5, 423164, Note_off_c, 3, 54, 0
5, 423168, Note_on_c, 3, 59, 75
5, 423168, Note_on_c, 3, 55, 75
5, 423792, Note_off_c, 3, 59, 0
5, 423792, Note_off_c, 3, 55, 0
5, 423936, Note_on_c, 3, 57, 75
5, 424256, Note_off_c, 3, 57, 0
5, 424704, Note_on_c, 3, 55, 75
5, 424704, Note_on_c, 3, 45, 75
5, 425024, Note_off_c, 3, 55, 0
5, 425024, Note_off_c, 3, 45, 0
5, 425472, Note_on_c, 3, 54, 75
5, 425472, Note_on_c, 3, 50, 75
5, 425792, Note_off_c, 3, 54, 0
5, 425792, Note_off_c, 3, 50, 0
5, 427008, Note_on_c, 3, 49, 75
5, 427008, Note_on_c, 3, 57, 75
5, 427772, Note_off_c, 3, 49, 0
5, 427776, Note_on_c, 3, 50, 75
5, 428540, Note_off_c, 3, 50, 0
5, 428544, Note_on_c, 3, 45, 75
5, 429936, Note_off_c, 3, 45, 0
5, 429936, Note_off_c, 3, 57, 64
5, 430080, Note_on_c, 3, 57, 75
5, 430080, Note_on_c, 3, 49, 75
5, 430844, Note_off_c, 3, 49, 0
5, 430848, Note_on_c, 3, 50, 75
5, 431472, Note_off_c, 3, 57, 0
5, 431612, Note_off_c, 3, 50, 0
5, 431616, Note_on_c, 3, 45, 75
5, 432000, Note_on_c, 3, 49, 75
5, 432380, Note_off_c, 3, 49, 0
5, 432384, Note_on_c, 3, 50, 75
5, 432764, Note_off_c, 3, 50, 0
5, 432768, Note_on_c, 3, 52, 75
5, 433008, Note_off_c, 3, 45, 0
5, 433088, Note_off_c, 3, 52, 0
5, 433152, Note_on_c, 3, 47, 75
5, 434300, Note_off_c, 3, 47, 0
5, 434304, Note_on_c, 3, 48, 75
5, 434684, Note_off_c, 3, 48, 0
5, 434688, Note_on_c, 3, 57, 75
5, 434688, Note_on_c, 3, 45, 75
5, 435068, Note_off_c, 3, 57, 0
5, 435068, Note_off_c, 3, 45, 0
5, 435072, Note_on_c, 3, 55, 75
5, 435072, Note_on_c, 3, 43, 75
5, 435452, Note_off_c, 3, 55, 0
5, 435452, Note_off_c, 3, 43, 0
5, 435456, Note_on_c, 3, 57, 75
5, 435644, Note_off_c, 3, 57, 0
5, 435648, Note_on_c, 3, 55, 75
5, 435836, Note_off_c, 3, 55, 0
5, 435840, Note_on_c, 3, 43, 75
5, 435840, Note_on_c, 3, 54, 75
5, 436028, Note_off_c, 3, 54, 0
5, 436032, Note_on_c, 3, 52, 75
5, 436220, Note_off_c, 3, 43, 0
5, 436220, Note_off_c, 3, 52, 0
5, 436224, Note_on_c, 3, 50, 75
5, 436224, Note_on_c, 3, 45, 75
5, 437372, Note_off_c, 3, 50, 0
5, 437376, Note_on_c, 3, 54, 75
5, 437564, Note_off_c, 3, 54, 0
5, 437568, Note_on_c, 3, 52, 75
5, 437756, Note_off_c, 3, 45, 0
5, 437756, Note_off_c, 3, 52, 0
5, 437760, Note_on_c, 3, 50, 75
5, 438140, Note_off_c, 3, 50, 0
5, 439296, Note_on_c, 3, 49, 75
5, 439296, Note_on_c, 3, 57, 75
5, 440060, Note_off_c, 3, 49, 0
5, 440064, Note_on_c, 3, 50, 75
5, 440688, Note_off_c, 3, 50, 0
5, 440832, Note_on_c, 3, 45, 75
5, 441152, Note_off_c, 3, 45, 0
5, 442224, Note_off_c, 3, 57, 64
5, 442368, Note_on_c, 3, 49, 75
5, 442368, Note_on_c, 3, 57, 75
5, 443132, Note_off_c, 3, 49, 0
5, 443136, Note_on_c, 3, 50, 75
5, 443760, Note_off_c, 3, 50, 0
5, 443904, Note_on_c, 3, 45, 75
5, 444224, Note_off_c, 3, 45, 0
5, 444668, Note_off_c, 3, 57, 0
5, 445440, Note_on_c, 3, 59, 75
5, 445440, Note_on_c, 3, 47, 75
5, 446832, Note_off_c, 3, 59, 0
5, 446832, Note_off_c, 3, 47, 0
5, 446976, Note_on_c, 3, 57, 75
5, 446976, Note_on_c, 3, 45, 75
5, 447356, Note_off_c, 3, 57, 0
5, 447356, Note_off_c, 3, 45, 0
5, 447360, Note_on_c, 3, 55, 75
5, 447360, Note_on_c, 3, 43, 75
5, 447680, Note_off_c, 3, 55, 0
5, 447680, Note_off_c, 3, 43, 0
5, 448128, Note_on_c, 3, 55, 75
5, 448128, Note_on_c, 3, 43, 75
5, 448448, Note_off_c, 3, 55, 0
5, 448448, Note_off_c, 3, 43, 0
5, 448512, Note_on_c, 3, 57, 75
5, 448512, Note_on_c, 3, 45, 75
5, 449276, Note_off_c, 3, 57, 0
5, 449280, Note_on_c, 3, 55, 75
5, 449904, Note_off_c, 3, 45, 0
5, 449904, Note_off_c, 3, 55, 0
5, 450048, Note_on_c, 3, 54, 75
5, 450048, Note_on_c, 3, 50, 75
5, 450368, Note_off_c, 3, 54, 0
5, 450368, Note_off_c, 3, 50, 0
5, 454656, Note_on_c, 3, 52, 75
5, 456188, Note_off_c, 3, 52, 0
5, 456192, Note_on_c, 3, 57, 75
5, 456192, Note_on_c, 3, 65, 75
5, 456192, Note_on_c, 3, 53, 75
5, 456192, Note_on_c, 3, 60, 75
5, 457340, Note_off_c, 3, 65, 0
5, 457344, Note_on_c, 3, 64, 90
5, 457584, Note_off_c, 3, 57, 0
5, 457724, Note_off_c, 3, 64, 64
5, 457728, Note_on_c, 3, 63, 75
5, 459888, Note_off_c, 3, 60, 64
5, 459888, Note_off_c, 3, 63, 64
5, 460028, Note_off_c, 3, 53, 64
5, 460032, Note_on_c, 3, 53, 75
5, 460656, Note_off_c, 3, 53, 0
5, 460800, Note_on_c, 3, 59, 75
5, 460800, Note_on_c, 3, 56, 75
5, 460800, Note_on_c, 3, 64, 75
5, 460800, Note_on_c, 3, 52, 75
5, 462192, Note_off_c, 3, 59, 0
5, 462192, Note_off_c, 3, 56, 0
5, 462336, Note_on_c, 3, 60, 75
5, 462336, Note_on_c, 3, 57, 75
5, 463728, Note_off_c, 3, 60, 0
5, 463728, Note_off_c, 3, 57, 0
5, 463728, Note_off_c, 3, 64, 64
5, 463728, Note_off_c, 3, 52, 64
5, 463872, Note_on_c, 3, 59, 75
5, 463872, Note_on_c, 3, 56, 75
5, 463872, Note_on_c, 3, 64, 75
5, 463872, Note_on_c, 3, 52, 75
5, 465404, Note_off_c, 3, 59, 0
5, 465404, Note_off_c, 3, 56, 0
5, 465408, Note_on_c, 3, 60, 75
5, 465408, Note_on_c, 3, 57, 75
5, 466172, Note_off_c, 3, 52, 0
5, 466172, Note_off_c, 3, 64, 0
5, 466800, Note_off_c, 3, 60, 0
5, 466800, Note_off_c, 3, 57, 0
5, 466944, Note_on_c, 3, 64, 75
5, 466944, Note_on_c, 3, 59, 75
5, 466944, Note_on_c, 3, 56, 75
5, 466944, Note_on_c, 3, 52, 75
5, 467264, Note_off_c, 3, 64, 0
5, 467264, Note_off_c, 3, 59, 0
5, 467264, Note_off_c, 3, 56, 0
5, 467264, Note_off_c, 3, 52, 0
5, 472320, Note_on_c, 3, 62, 75
5, 472320, Note_on_c, 3, 59, 75
5, 473084, Note_off_c, 3, 62, 0
5, 473084, Note_off_c, 3, 59, 0
5, 473088, Note_on_c, 3, 61, 75
5, 473088, Note_on_c, 3, 57, 75
5, 473852, Note_off_c, 3, 61, 0
5, 473852, Note_off_c, 3, 57, 0
5, 473856, Note_on_c, 3, 59, 75
5, 473856, Note_on_c, 3, 56, 75
5, 474620, Note_off_c, 3, 59, 0
5, 474620, Note_off_c, 3, 56, 0
5, 474624, Note_on_c, 3, 57, 75
5, 474624, Note_on_c, 3, 54, 75
5, 475388, Note_off_c, 3, 57, 0
5, 475388, Note_off_c, 3, 54, 0
5, 475392, Note_on_c, 3, 56, 75
5, 475392, Note_on_c, 3, 52, 75
5, 476156, Note_off_c, 3, 56, 0
5, 476156, Note_off_c, 3, 52, 0
5, 476160, Note_on_c, 3, 54, 75
5, 476160, Note_on_c, 3, 50, 75
5, 476924, Note_off_c, 3, 54, 0
5, 476924, Note_off_c, 3, 50, 0
5, 476928, Note_on_c, 3, 52, 75
5, 476928, Note_on_c, 3, 49, 75
5, 477552, Note_off_c, 3, 52, 0
5, 477552, Note_off_c, 3, 49, 0
5, 477696, Note_on_c, 3, 62, 75
5, 477696, Note_on_c, 3, 59, 75
5, 477696, Note_on_c, 3, 52, 75
5, 479228, Note_off_c, 3, 62, 0
5, 479228, Note_off_c, 3, 59, 0
5, 479228, Note_off_c, 3, 52, 0
5, 479232, Note_on_c, 3, 57, 75
5, 479232, Note_on_c, 3, 61, 75
5, 479552, Note_off_c, 3, 57, 0
5, 479552, Note_off_c, 3, 61, 0
5, 491520, Note_on_c, 3, 57, 75
5, 492284, Note_off_c, 3, 57, 0
5, 492288, Note_on_c, 3, 61, 75
5, 492476, Note_off_c, 3, 61, 0
5, 492480, Note_on_c, 3, 59, 75
5, 492668, Note_off_c, 3, 59, 0
5, 492672, Note_on_c, 3, 57, 75
5, 492860, Note_off_c, 3, 57, 0
5, 492864, Note_on_c, 3, 59, 75
5, 493052, Note_off_c, 3, 59, 0
5, 493056, Note_on_c, 3, 60, 75
5, 493440, Note_on_c, 3, 57, 75
5, 493820, Note_off_c, 3, 57, 0
5, 493824, Note_on_c, 3, 57, 75
5, 494204, Note_off_c, 3, 60, 0
5, 494204, Note_off_c, 3, 57, 0
5, 494208, Note_on_c, 3, 57, 75
5, 494208, Note_on_c, 3, 61, 75
5, 494588, Note_off_c, 3, 57, 0
5, 494588, Note_off_c, 3, 61, 0
5, 494592, Note_on_c, 3, 62, 75
5, 494592, Note_on_c, 3, 57, 75
5, 494972, Note_off_c, 3, 62, 0
5, 494976, Note_on_c, 3, 64, 75
5, 495356, Note_off_c, 3, 64, 0
5, 495360, Note_on_c, 3, 65, 75
5, 495740, Note_off_c, 3, 65, 0
5, 495744, Note_on_c, 3, 64, 75
5, 496064, Note_off_c, 3, 64, 0
5, 496128, Note_on_c, 3, 62, 75
5, 496508, Note_off_c, 3, 62, 0
5, 496512, Note_on_c, 3, 62, 75
5, 496892, Note_off_c, 3, 62, 0
5, 496896, Note_on_c, 3, 60, 75
5, 497056, Note_off_c, 3, 57, 64
5, 497276, Note_off_c, 3, 60, 0
5, 499200, Note_on_c, 3, 59, 75
5, 499200, Note_on_c, 3, 55, 75
5, 499964, Note_off_c, 3, 59, 0
5, 499964, Note_off_c, 3, 55, 0
5, 499968, Note_on_c, 3, 60, 75
5, 499968, Note_on_c, 3, 48, 75
5, 500288, Note_off_c, 3, 60, 0
5, 500288, Note_off_c, 3, 48, 0
5, 500736, Note_on_c, 3, 64, 75
5, 500736, Note_on_c, 3, 59, 75
5, 501116, Note_off_c, 3, 64, 0
5, 501120, Note_on_c, 3, 62, 75
5, 501500, Note_off_c, 3, 59, 0
5, 501500, Note_off_c, 3, 62, 0
5, 501504, Note_on_c, 3, 60, 75
5, 501824, Note_off_c, 3, 60, 0
5, 501888, Note_on_c, 3, 62, 75
5, 502268, Note_off_c, 3, 62, 0
5, 502272, Note_on_c, 3, 60, 75
5, 502272, Note_on_c, 3, 52, 75
5, 502652, Note_off_c, 3, 60, 0
5, 502656, Note_on_c, 3, 59, 75
5, 503036, Note_off_c, 3, 52, 0
5, 503036, Note_off_c, 3, 59, 0
5, 503040, Note_on_c, 3, 57, 75
5, 503040, Note_on_c, 3, 45, 75
5, 503360, Note_off_c, 3, 57, 0
5, 503360, Note_off_c, 3, 45, 0
5, 505728, Note_on_c, 3, 64, 75
5, 506108, Note_off_c, 3, 64, 0
5, 506112, Note_on_c, 3, 63, 75
5, 506492, Note_off_c, 3, 63, 0
5, 506496, Note_on_c, 3, 62, 75
5, 506816, Note_off_c, 3, 62, 0
5, 506880, Note_on_c, 3, 61, 75
5, 506880, Note_on_c, 3, 57, 75
5, 507260, Note_off_c, 3, 61, 0
5, 507264, Note_on_c, 3, 64, 75
5, 507644, Note_off_c, 3, 64, 0
5, 507648, Note_on_c, 3, 61, 75
5, 508028, Note_off_c, 3, 61, 0
5, 508032, Note_on_c, 3, 64, 75
5, 508272, Note_off_c, 3, 57, 0
5, 508352, Note_off_c, 3, 64, 0
5, 508416, Note_on_c, 3, 62, 75
5, 508416, Note_on_c, 3, 56, 75
5, 508796, Note_off_c, 3, 62, 0
5, 508800, Note_on_c, 3, 64, 75
5, 509180, Note_off_c, 3, 64, 0
5, 509184, Note_on_c, 3, 62, 75
5, 509564, Note_off_c, 3, 62, 0
5, 509568, Note_on_c, 3, 64, 75
5, 509808, Note_off_c, 3, 56, 0
5, 509888, Note_off_c, 3, 64, 0
5, 509952, Note_on_c, 3, 61, 75
5, 509952, Note_on_c, 3, 57, 75
5, 510332, Note_off_c, 3, 61, 0
5, 510336, Note_on_c, 3, 64, 75
5, 510716, Note_off_c, 3, 64, 0
5, 510720, Note_on_c, 3, 61, 75
5, 511040, Note_off_c, 3, 61, 0
5, 511104, Note_on_c, 3, 64, 75
5, 511344, Note_off_c, 3, 57, 0
5, 511488, Note_on_c, 3, 59, 75
5, 511488, Note_on_c, 3, 52, 75
5, 511808, Note_off_c, 3, 59, 0
5, 512880, Note_off_c, 3, 52, 0
5, 512880, Note_off_c, 3, 64, 0
5, 513024, Note_on_c, 3, 61, 75
5, 513024, Note_on_c, 3, 54, 75
5, 514416, Note_off_c, 3, 61, 0
5, 514416, Note_off_c, 3, 54, 0
5, 514560, Note_on_c, 3, 59, 75
5, 514560, Note_on_c, 3, 50, 75
5, 515952, Note_off_c, 3, 59, 0
5, 515952, Note_off_c, 3, 50, 0
5, 516096, Note_on_c, 3, 61, 75
5, 516096, Note_on_c, 3, 52, 75
5, 516476, Note_off_c, 3, 61, 0
5, 516480, Note_on_c, 3, 57, 75
5, 516860, Note_off_c, 3, 57, 0
5, 516864, Note_on_c, 3, 61, 75
5, 517244, Note_off_c, 3, 61, 0
5, 517248, Note_on_c, 3, 62, 75
5, 517488, Note_off_c, 3, 52, 0
5, 517628, Note_off_c, 3, 62, 0
5, 517632, Note_on_c, 3, 57, 75
5, 517632, Note_on_c, 3, 61, 75
5, 517952, Note_off_c, 3, 57, 0
5, 517952, Note_off_c, 3, 61, 0
5, 519168, Note_on_c, 3, 64, 75
5, 519168, Note_on_c, 3, 57, 75
5, 520700, Note_off_c, 3, 57, 0
5, 520704, Note_on_c, 3, 56, 75
5, 522096, Note_off_c, 3, 56, 0
5, 522096, Note_off_c, 3, 64, 64
5, 522240, Note_on_c, 3, 57, 75
5, 522240, Note_on_c, 3, 64, 75
5, 523772, Note_off_c, 3, 57, 0
5, 523776, Note_on_c, 3, 52, 75
5, 525168, Note_off_c, 3, 52, 0
5, 525168, Note_off_c, 3, 64, 64
5, 525312, Note_on_c, 3, 60, 75
5, 525312, Note_on_c, 3, 53, 75
5, 526844, Note_off_c, 3, 60, 0
5, 526844, Note_off_c, 3, 53, 0
5, 526848, Note_on_c, 3, 59, 75
5, 526848, Note_on_c, 3, 50, 75
5, 528240, Note_off_c, 3, 59, 0
5, 528240, Note_off_c, 3, 50, 0
5, 528384, Note_on_c, 3, 60, 75
5, 528384, Note_on_c, 3, 52, 75
5, 529148, Note_off_c, 3, 60, 0
5, 529152, Note_on_c, 3, 59, 75
5, 529776, Note_off_c, 3, 52, 0
5, 529916, Note_off_c, 3, 59, 0
5, 529920, Note_on_c, 3, 57, 75
5, 529920, Note_on_c, 3, 53, 75
5, 530240, Note_off_c, 3, 57, 0
5, 530240, Note_off_c, 3, 53, 0
5, 531456, Note_on_c, 3, 48, 75
5, 532744, Note_off_c, 3, 48, 64
5, 532992, Note_on_c, 3, 62, 75
5, 532992, Note_on_c, 3, 50, 75
5, 535920, Note_off_c, 3, 62, 64
5, 535920, Note_off_c, 3, 50, 64
5, 536064, Note_on_c, 3, 62, 75
5, 536064, Note_on_c, 3, 50, 75
5, 538992, Note_off_c, 3, 62, 64
5, 538992, Note_off_c, 3, 50, 64
5, 539136, Note_on_c, 3, 61, 75
5, 539136, Note_on_c, 3, 49, 75
5, 542064, Note_off_c, 3, 61, 64
5, 542064, Note_off_c, 3, 49, 64
5, 542208, Note_on_c, 3, 60, 75
5, 542208, Note_on_c, 3, 57, 75
5, 542208, Note_on_c, 3, 48, 75
5, 543600, Note_off_c, 3, 60, 0
5, 543600, Note_off_c, 3, 57, 0
5, 543600, Note_off_c, 3, 48, 0
5, 543744, Note_on_c, 3, 60, 75
5, 543744, Note_on_c, 3, 55, 75
5, 543744, Note_on_c, 3, 48, 75
5, 545136, Note_off_c, 3, 60, 0
5, 545136, Note_off_c, 3, 55, 0
5, 545280, Note_on_c, 3, 60, 75
5, 545280, Note_on_c, 3, 53, 75
5, 546672, Note_off_c, 3, 60, 0
5, 546672, Note_off_c, 3, 53, 0
5, 546672, Note_off_c, 3, 48, 64
5, 546816, Note_on_c, 3, 61, 75
5, 546816, Note_on_c, 3, 55, 75
5, 546816, Note_on_c, 3, 49, 75
5, 548208, Note_off_c, 3, 61, 0
5, 548208, Note_off_c, 3, 55, 0
5, 548208, Note_off_c, 3, 49, 0
5, 548352, Note_on_c, 3, 62, 75
5, 548352, Note_on_c, 3, 53, 75
5, 548352, Note_on_c, 3, 50, 75
5, 549744, Note_off_c, 3, 62, 0
5, 549744, Note_off_c, 3, 53, 0
5, 549744, Note_off_c, 3, 50, 0
5, 549888, Note_on_c, 3, 63, 75
5, 549888, Note_on_c, 3, 57, 75
5, 549888, Note_on_c, 3, 51, 75
5, 551280, Note_off_c, 3, 63, 0
5, 551280, Note_off_c, 3, 57, 0
5, 551280, Note_off_c, 3, 51, 0
5, 551424, Note_on_c, 3, 64, 75
5, 551424, Note_on_c, 3, 52, 75
5, 554352, Note_off_c, 3, 64, 64
5, 554352, Note_off_c, 3, 52, 64
5, 554496, Note_on_c, 3, 64, 75
5, 554496, Note_on_c, 3, 52, 75
5, 557424, Note_off_c, 3, 64, 64
5, 557424, Note_off_c, 3, 52, 64
5, 557568, Note_on_c, 3, 61, 75
5, 557568, Note_on_c, 3, 57, 75
5, 557948, Note_off_c, 3, 61, 0
5, 557948, Note_off_c, 3, 57, 0
5, 559104, Note_on_c, 3, 56, 75
5, 559104, Note_on_c, 3, 44, 75
5, 559868, Note_off_c, 3, 56, 0
5, 559868, Note_off_c, 3, 44, 0
5, 560640, Note_on_c, 3, 54, 75
5, 560640, Note_on_c, 3, 42, 75
5, 561404, Note_off_c, 3, 54, 0
5, 561404, Note_off_c, 3, 42, 0
5, 562176, Note_on_c, 3, 52, 75
5, 562176, Note_on_c, 3, 40, 75
5, 562940, Note_off_c, 3, 52, 0
5, 562940, Note_off_c, 3, 40, 0
5, 563712, Note_on_c, 3, 50, 75
5, 563712, Note_on_c, 3, 38, 75
5, 564476, Note_off_c, 3, 50, 0
5, 564476, Note_off_c, 3, 38, 0
5, 565248, Note_on_c, 3, 49, 75
5, 565248, Note_on_c, 3, 37, 75
5, 566012, Note_off_c, 3, 49, 0
5, 566012, Note_off_c, 3, 37, 0
5, 576000, Note_on_c, 3, 62, 75
5, 576572, Note_off_c, 3, 62, 0
5, 576576, Note_on_c, 3, 61, 75
5, 576764, Note_off_c, 3, 61, 0
5, 576768, Note_on_c, 3, 59, 75
5, 577340, Note_off_c, 3, 59, 0
5, 577344, Note_on_c, 3, 57, 75
5, 577532, Note_off_c, 3, 57, 0
5, 577536, Note_on_c, 3, 56, 75
5, 578108, Note_off_c, 3, 56, 0
5, 578112, Note_on_c, 3, 54, 75
5, 578300, Note_off_c, 3, 54, 0
5, 578304, Note_on_c, 3, 52, 75
5, 578876, Note_off_c, 3, 52, 0
5, 578880, Note_on_c, 3, 50, 75
5, 579040, Note_off_c, 3, 50, 0
5, 579072, Note_on_c, 3, 61, 75
5, 579644, Note_off_c, 3, 61, 0
5, 579648, Note_on_c, 3, 59, 75
5, 579836, Note_off_c, 3, 59, 0
5, 579840, Note_on_c, 3, 57, 75
5, 580412, Note_off_c, 3, 57, 0
5, 580416, Note_on_c, 3, 56, 75
5, 580604, Note_off_c, 3, 56, 0
5, 580608, Note_on_c, 3, 54, 75
5, 581180, Note_off_c, 3, 54, 0
5, 581184, Note_on_c, 3, 52, 75
5, 581372, Note_off_c, 3, 52, 0
5, 581376, Note_on_c, 3, 50, 75
5, 581948, Note_off_c, 3, 50, 0
5, 581952, Note_on_c, 3, 49, 75
5, 582112, Note_off_c, 3, 49, 0
5, 582144, Note_on_c, 3, 59, 75
5, 582144, Note_on_c, 3, 47, 75
5, 583676, Note_off_c, 3, 59, 0
5, 583676, Note_off_c, 3, 47, 0
5, 583680, Note_on_c, 3, 61, 75
5, 583680, Note_on_c, 3, 49, 75
5, 585212, Note_off_c, 3, 61, 0
5, 585212, Note_off_c, 3, 49, 0
5, 585216, Note_on_c, 3, 38, 75
5, 585216, Note_on_c, 3, 50, 75
5, 588144, Note_off_c, 3, 38, 64
5, 588144, Note_off_c, 3, 50, 64
5, 588288, Note_on_c, 3, 52, 75
5, 588288, Note_on_c, 3, 40, 75
5, 588912, Note_off_c, 3, 52, 0
5, 588912, Note_off_c, 3, 40, 0
5, 589824, Note_on_c, 3, 52, 75
5, 589824, Note_on_c, 3, 40, 75
5, 590448, Note_off_c, 3, 52, 0
5, 590448, Note_off_c, 3, 40, 0
5, 591360, Note_on_c, 3, 57, 75
5, 591360, Note_on_c, 3, 45, 75
5, 591984, Note_off_c, 3, 57, 0
5, 591984, Note_off_c, 3, 45, 0
5, 592128, Note_on_c, 3, 61, 75
5, 592128, Note_on_c, 3, 64, 75
5, 592128, Note_on_c, 3, 57, 75
5, 592752, Note_off_c, 3, 61, 0
5, 592752, Note_off_c, 3, 64, 0
5, 592752, Note_off_c, 3, 57, 0
5, 592896, Note_on_c, 3, 56, 75
5, 592896, Note_on_c, 3, 44, 75
5, 593520, Note_off_c, 3, 56, 0
5, 593520, Note_off_c, 3, 44, 0
5, 593664, Note_on_c, 3, 68, 75
5, 593664, Note_on_c, 3, 64, 75
5, 593664, Note_on_c, 3, 59, 75
5, 593664, Note_on_c, 3, 56, 75
5, 594288, Note_off_c, 3, 68, 0
5, 594288, Note_off_c, 3, 64, 0
5, 594288, Note_off_c, 3, 59, 0
5, 594288, Note_off_c, 3, 56, 0
5, 594432, Note_on_c, 3, 54, 75
5, 594432, Note_on_c, 3, 42, 75
5, 595056, Note_off_c, 3, 54, 0
5, 595056, Note_off_c, 3, 42, 0
5, 595200, Note_on_c, 3, 66, 75
5, 595200, Note_on_c, 3, 61, 75
5, 595200, Note_on_c, 3, 54, 75
5, 595824, Note_off_c, 3, 66, 0
5, 595824, Note_off_c, 3, 61, 0
5, 595824, Note_off_c, 3, 54, 0
5, 595968, Note_on_c, 3, 52, 75
5, 595968, Note_on_c, 3, 40, 75
5, 596592, Note_off_c, 3, 52, 0
5, 596592, Note_off_c, 3, 40, 0
5, 596736, Note_on_c, 3, 61, 75
5, 596736, Note_on_c, 3, 52, 75
5, 597360, Note_off_c, 3, 61, 0
5, 597360, Note_off_c, 3, 52, 0
5, 597504, Note_on_c, 3, 50, 75
5, 597504, Note_on_c, 3, 38, 75
5, 598128, Note_off_c, 3, 50, 0
5, 598128, Note_off_c, 3, 38, 0
5, 598272, Note_on_c, 3, 62, 75
5, 598272, Note_on_c, 3, 57, 75
5, 598272, Note_on_c, 3, 50, 75
5, 598896, Note_off_c, 3, 62, 0
5, 598896, Note_off_c, 3, 57, 0
5, 598896, Note_off_c, 3, 50, 0
5, 599040, Note_on_c, 3, 49, 75
5, 599040, Note_on_c, 3, 37, 75
5, 599664, Note_off_c, 3, 49, 0
5, 599664, Note_off_c, 3, 37, 0
5, 599808, Note_on_c, 3, 57, 75
5, 599808, Note_on_c, 3, 52, 75
5, 599808, Note_on_c, 3, 49, 75
5, 600432, Note_off_c, 3, 57, 0
5, 600432, Note_off_c, 3, 52, 0
5, 600432, Note_off_c, 3, 49, 0
5, 600576, Note_on_c, 3, 47, 75
5, 600576, Note_on_c, 3, 54, 75
5, 600956, Note_off_c, 3, 47, 0
5, 600960, Note_on_c, 3, 48, 75
5, 601280, Note_off_c, 3, 48, 0
5, 601344, Note_on_c, 3, 47, 75
5, 601664, Note_off_c, 3, 47, 0
5, 601728, Note_on_c, 3, 48, 75
5, 602048, Note_off_c, 3, 48, 0
5, 602112, Note_on_c, 3, 47, 75
5, 602432, Note_off_c, 3, 47, 0
5, 602496, Note_on_c, 3, 48, 75
5, 602816, Note_off_c, 3, 48, 0
5, 602880, Note_on_c, 3, 47, 75
5, 603040, Note_off_c, 3, 54, 0
5, 603200, Note_off_c, 3, 47, 0
5, 603648, Note_on_c, 3, 52, 75
5, 603648, Note_on_c, 3, 59, 75
5, 603968, Note_off_c, 3, 52, 0
5, 604032, Note_on_c, 3, 53, 75
5, 604352, Note_off_c, 3, 53, 0
5, 604416, Note_on_c, 3, 52, 75
5, 604736, Note_off_c, 3, 52, 0
5, 604800, Note_on_c, 3, 53, 75
5, 605120, Note_off_c, 3, 53, 0
5, 605184, Note_on_c, 3, 52, 75
5, 605504, Note_off_c, 3, 52, 0
5, 605568, Note_on_c, 3, 53, 75
5, 605728, Note_off_c, 3, 59, 64
5, 605888, Note_off_c, 3, 53, 0
5, 605952, Note_on_c, 3, 52, 75
5, 606272, Note_off_c, 3, 52, 0
5, 606720, Note_on_c, 3, 57, 75
5, 606720, Note_on_c, 3, 64, 75
5, 607040, Note_off_c, 3, 57, 0
5, 607104, Note_on_c, 3, 58, 75
5, 607424, Note_off_c, 3, 58, 0
5, 607488, Note_on_c, 3, 57, 75
5, 607808, Note_off_c, 3, 57, 0
5, 607872, Note_on_c, 3, 58, 75
5, 608192, Note_off_c, 3, 58, 0
5, 608256, Note_on_c, 3, 57, 75
5, 608576, Note_off_c, 3, 57, 0
5, 608640, Note_on_c, 3, 58, 75
5, 608800, Note_off_c, 3, 64, 64
5, 608960, Note_off_c, 3, 58, 0
5, 609024, Note_on_c, 3, 57, 75
5, 609344, Note_off_c, 3, 57, 0
5, 609792, Note_on_c, 3, 62, 75
5, 609952, Note_off_c, 3, 62, 0
5, 610176, Note_on_c, 3, 61, 75
5, 610336, Note_off_c, 3, 61, 0
5, 610560, Note_on_c, 3, 59, 75
5, 610720, Note_off_c, 3, 59, 0
5, 610944, Note_on_c, 3, 57, 75
5, 611104, Note_off_c, 3, 57, 0
5, 611328, Note_on_c, 3, 56, 75
5, 611488, Note_off_c, 3, 56, 0
5, 611712, Note_on_c, 3, 54, 75
5, 611872, Note_off_c, 3, 54, 0
5, 612096, Note_on_c, 3, 52, 75
5, 612256, Note_off_c, 3, 52, 0
5, 612480, Note_on_c, 3, 50, 75
5, 612640, Note_off_c, 3, 50, 0
5, 612864, Note_on_c, 3, 61, 75
5, 612864, Note_on_c, 3, 49, 75
5, 613024, Note_off_c, 3, 61, 0
5, 613024, Note_off_c, 3, 49, 0
5, 613248, Note_on_c, 3, 59, 75
5, 613408, Note_off_c, 3, 59, 0
5, 613632, Note_on_c, 3, 57, 75
5, 613792, Note_off_c, 3, 57, 0
5, 614016, Note_on_c, 3, 56, 75
5, 614176, Note_off_c, 3, 56, 0
5, 614400, Note_on_c, 3, 54, 75
5, 614560, Note_off_c, 3, 54, 0
5, 614784, Note_on_c, 3, 52, 75
5, 614944, Note_off_c, 3, 52, 0
5, 615168, Note_on_c, 3, 50, 75
5, 615328, Note_off_c, 3, 50, 0
5, 615552, Note_on_c, 3, 49, 75
5, 615712, Note_off_c, 3, 49, 0
5, 615936, Note_on_c, 3, 59, 75
5, 615936, Note_on_c, 3, 47, 75
5, 617468, Note_off_c, 3, 59, 0
5, 617468, Note_off_c, 3, 47, 0
5, 617472, Note_on_c, 3, 61, 75
5, 617472, Note_on_c, 3, 49, 75
5, 619004, Note_off_c, 3, 61, 0
5, 619004, Note_off_c, 3, 49, 0
5, 619008, Note_on_c, 3, 62, 75
5, 619008, Note_on_c, 3, 50, 75
5, 620400, Note_off_c, 3, 62, 0
5, 620400, Note_off_c, 3, 50, 0
5, 620544, Note_on_c, 3, 63, 75
5, 620544, Note_on_c, 3, 51, 75
5, 622076, Note_off_c, 3, 63, 0
5, 622076, Note_off_c, 3, 51, 0
5, 622080, Note_on_c, 3, 64, 75
5, 622080, Note_on_c, 3, 52, 75
5, 625008, Note_off_c, 3, 64, 64
5, 625008, Note_off_c, 3, 52, 64
5, 625152, Note_on_c, 3, 64, 75
5, 625152, Note_on_c, 3, 52, 75
5, 628080, Note_off_c, 3, 64, 64
5, 628080, Note_off_c, 3, 52, 64
5, 628224, Note_on_c, 3, 52, 75
5, 628224, Note_on_c, 3, 64, 75
5, 631152, Note_off_c, 3, 52, 64
5, 631152, Note_off_c, 3, 64, 64
5, 631288, Control_c, 3, 64, 127
5, 631296, Note_on_c, 3, 45, 85
5, 642048, Note_on_c, 3, 56, 75
5, 642048, Note_on_c, 3, 52, 75
5, 642048, Note_on_c, 3, 50, 75
5, 642368, Note_off_c, 3, 56, 0
5, 642368, Note_off_c, 3, 52, 0
5, 642368, Note_off_c, 3, 50, 0
5, 642368, Control_c, 3, 64, 0
5, 643440, Note_off_c, 3, 45, 64
5, 643584, Note_on_c, 3, 57, 90
5, 643584, Note_on_c, 3, 52, 90
5, 643584, Note_on_c, 3, 49, 90
5, 643584, Note_on_c, 3, 45, 90
5, 643904, Note_off_c, 3, 57, 0
5, 643904, Note_off_c, 3, 52, 0
5, 643904, Note_off_c, 3, 49, 0
5, 644976, Note_off_c, 3, 45, 0
5, 645120, Note_on_c, 3, 59, 90
5, 645120, Note_on_c, 3, 56, 90
5, 645120, Note_on_c, 3, 50, 90
5, 645120, Note_on_c, 3, 45, 90
5, 645440, Note_off_c, 3, 59, 0
5, 645440, Note_off_c, 3, 56, 0
5, 645440, Note_off_c, 3, 50, 0
5, 646512, Note_off_c, 3, 45, 0
5, 646656, Note_on_c, 3, 57, 90
5, 646656, Note_on_c, 3, 52, 90
5, 646656, Note_on_c, 3, 49, 90
5, 646656, Note_on_c, 3, 45, 90
5, 646976, Note_off_c, 3, 57, 0
5, 646976, Note_off_c, 3, 52, 0
5, 646976, Note_off_c, 3, 49, 0
5, 648048, Note_off_c, 3, 45, 0
5, 648192, Note_on_c, 3, 56, 90
5, 648192, Note_on_c, 3, 52, 90
5, 648192, Note_on_c, 3, 50, 90
5, 648192, Note_on_c, 3, 45, 90
5, 648512, Note_off_c, 3, 56, 0
5, 648512, Note_off_c, 3, 52, 0
5, 648512, Note_off_c, 3, 50, 0
5, 649584, Note_off_c, 3, 45, 0
5, 649728, Note_on_c, 3, 57, 90
5, 649728, Note_on_c, 3, 52, 90
5, 649728, Note_on_c, 3, 49, 90
5, 649728, Note_on_c, 3, 45, 90
5, 650048, Note_off_c, 3, 57, 0
5, 650048, Note_off_c, 3, 52, 0
5, 650048, Note_off_c, 3, 49, 0
5, 650048, Note_off_c, 3, 45, 0
5, 652416, Note_on_c, 3, 52, 75
5, 652796, Note_off_c, 3, 52, 0
5, 652800, Note_on_c, 3, 57, 75
5, 653424, Note_off_c, 3, 57, 0
5, 655488, Note_on_c, 3, 49, 75
5, 655868, Note_off_c, 3, 49, 0
5, 655872, Note_on_c, 3, 54, 75
5, 656496, Note_off_c, 3, 54, 0
5, 658560, Note_on_c, 3, 55, 75
5, 658560, Note_on_c, 3, 52, 75
5, 658560, Note_on_c, 3, 45, 75
5, 658940, Note_off_c, 3, 55, 0
5, 658940, Note_off_c, 3, 52, 0
5, 658940, Note_off_c, 3, 45, 0
5, 658944, Note_on_c, 3, 54, 75
5, 658944, Note_on_c, 3, 50, 75
5, 659264, Note_off_c, 3, 54, 0
5, 659264, Note_off_c, 3, 50, 0
5, 659328, Note_on_c, 3, 56, 75
5, 659328, Note_on_c, 3, 49, 75
5, 659708, Note_off_c, 3, 56, 0
5, 659708, Note_off_c, 3, 49, 0
5, 659712, Note_on_c, 3, 54, 75
5, 659712, Note_on_c, 3, 50, 75
5, 660032, Note_off_c, 3, 54, 0
5, 660032, Note_off_c, 3, 50, 0
5, 660096, Note_on_c, 3, 52, 75
5, 660096, Note_on_c, 3, 47, 75
5, 660476, Note_off_c, 3, 52, 0
5, 660476, Note_off_c, 3, 47, 0
5, 660480, Note_on_c, 3, 52, 75
5, 660480, Note_on_c, 3, 49, 75
5, 660800, Note_off_c, 3, 52, 0
5, 660800, Note_off_c, 3, 49, 0
5, 660864, Note_on_c, 3, 56, 75
5, 660864, Note_on_c, 3, 62, 75
5, 661244, Note_off_c, 3, 56, 0
5, 661244, Note_off_c, 3, 62, 0
5, 661248, Note_on_c, 3, 57, 75
5, 661248, Note_on_c, 3, 61, 75
5, 661568, Note_off_c, 3, 57, 0
5, 661568, Note_off_c, 3, 61, 0
5, 661632, Note_on_c, 3, 57, 75
5, 661632, Note_on_c, 3, 54, 75
5, 662012, Note_off_c, 3, 57, 0
5, 662012, Note_off_c, 3, 54, 0
5, 662016, Note_on_c, 3, 59, 75
5, 662016, Note_on_c, 3, 52, 75
5, 662336, Note_off_c, 3, 59, 0
5, 662336, Note_off_c, 3, 52, 0
5, 663552, Note_on_c, 3, 47, 75
5, 663872, Note_off_c, 3, 47, 0
5, 665088, Note_on_c, 3, 52, 75
5, 665408, Note_off_c, 3, 52, 0
5, 665472, Note_on_c, 3, 68, 75
5, 665472, Note_on_c, 3, 64, 75
5, 665472, Note_on_c, 3, 59, 75
5, 665632, Note_off_c, 3, 68, 0
5, 665632, Note_off_c, 3, 64, 0
5, 665632, Note_off_c, 3, 59, 0
5, 665856, Note_on_c, 3, 68, 75
5, 665856, Note_on_c, 3, 64, 75
5, 665856, Note_on_c, 3, 59, 75
5, 666016, Note_off_c, 3, 68, 0
5, 666016, Note_off_c, 3, 64, 0
5, 666016, Note_off_c, 3, 59, 0
5, 666240, Note_on_c, 3, 68, 75
5, 666240, Note_on_c, 3, 64, 75
5, 666240, Note_on_c, 3, 59, 75
5, 666400, Note_off_c, 3, 68, 0
5, 666400, Note_off_c, 3, 64, 0
5, 666400, Note_off_c, 3, 59, 0
5, 666624, Note_on_c, 3, 59, 75
5, 666944, Note_off_c, 3, 59, 0
5, 667008, Note_on_c, 3, 69, 75
5, 667008, Note_on_c, 3, 66, 75
5, 667168, Note_off_c, 3, 69, 0
5, 667168, Note_off_c, 3, 66, 0
5, 667392, Note_on_c, 3, 69, 75
5, 667392, Note_on_c, 3, 66, 75
5, 667552, Note_off_c, 3, 69, 0
5, 667552, Note_off_c, 3, 66, 0
5, 667776, Note_on_c, 3, 69, 75
5, 667776, Note_on_c, 3, 66, 75
5, 667936, Note_off_c, 3, 69, 0
5, 667936, Note_off_c, 3, 66, 0
5, 668160, Note_on_c, 3, 52, 75
5, 668480, Note_off_c, 3, 52, 0
5, 668544, Note_on_c, 3, 59, 75
5, 668544, Note_on_c, 3, 64, 75
5, 668544, Note_on_c, 3, 68, 75
5, 668704, Note_off_c, 3, 59, 0
5, 668704, Note_off_c, 3, 64, 0
5, 668704, Note_off_c, 3, 68, 0
5, 668928, Note_on_c, 3, 59, 75
5, 668928, Note_on_c, 3, 64, 75
5, 668928, Note_on_c, 3, 68, 75
5, 669088, Note_off_c, 3, 59, 0
5, 669088, Note_off_c, 3, 64, 0
5, 669088, Note_off_c, 3, 68, 0
5, 669312, Note_on_c, 3, 59, 75
5, 669312, Note_on_c, 3, 64, 75
5, 669312, Note_on_c, 3, 68, 75
5, 669472, Note_off_c, 3, 59, 0
5, 669472, Note_off_c, 3, 64, 0
5, 669472, Note_off_c, 3, 68, 0
5, 669696, Note_on_c, 3, 59, 75
5, 670016, Note_off_c, 3, 59, 0
5, 670080, Note_on_c, 3, 66, 75
5, 670080, Note_on_c, 3, 69, 75
5, 670240, Note_off_c, 3, 66, 0
5, 670240, Note_off_c, 3, 69, 0
5, 670464, Note_on_c, 3, 66, 75
5, 670464, Note_on_c, 3, 69, 75
5, 670624, Note_off_c, 3, 66, 0
5, 670624, Note_off_c, 3, 69, 0
5, 670848, Note_on_c, 3, 66, 75
5, 670848, Note_on_c, 3, 69, 75
5, 671008, Note_off_c, 3, 66, 0
5, 671008, Note_off_c, 3, 69, 0
5, 671232, Note_on_c, 3, 64, 75
5, 671232, Note_on_c, 3, 52, 75
5, 671856, Note_off_c, 3, 64, 0
5, 671856, Note_off_c, 3, 52, 0
5, 672000, Note_on_c, 3, 52, 75
5, 672764, Note_off_c, 3, 52, 0
5, 672768, Note_on_c, 3, 52, 75
5, 673088, Note_off_c, 3, 52, 0
5, 673152, Note_on_c, 3, 53, 75
5, 673532, Note_off_c, 3, 53, 0
5, 673536, Note_on_c, 3, 54, 75
5, 673916, Note_off_c, 3, 54, 0
5, 673920, Note_on_c, 3, 55, 75
5, 674300, Note_off_c, 3, 55, 0
5, 674304, Note_on_c, 3, 56, 75
5, 674684, Note_off_c, 3, 56, 0
5, 674688, Note_on_c, 3, 57, 75
5, 675068, Note_off_c, 3, 57, 0
5, 675072, Note_on_c, 3, 58, 75
5, 675452, Note_off_c, 3, 58, 0
5, 675456, Note_on_c, 3, 59, 75
5, 675456, Note_on_c, 3, 56, 75
5, 675456, Note_on_c, 3, 52, 75
5, 675836, Note_off_c, 3, 59, 0
5, 675836, Note_off_c, 3, 56, 0
5, 675836, Note_off_c, 3, 52, 0
5, 675840, Note_on_c, 3, 57, 75
5, 675840, Note_on_c, 3, 52, 75
5, 676220, Note_off_c, 3, 57, 0
5, 676220, Note_off_c, 3, 52, 0
5, 676224, Note_on_c, 3, 58, 75
5, 676224, Note_on_c, 3, 52, 75
5, 676604, Note_off_c, 3, 58, 0
5, 676604, Note_off_c, 3, 52, 0
5, 676608, Note_on_c, 3, 59, 75
5, 676608, Note_on_c, 3, 52, 75
5, 676988, Note_off_c, 3, 59, 0
5, 676988, Note_off_c, 3, 52, 0
5, 676992, Note_on_c, 3, 60, 75
5, 676992, Note_on_c, 3, 52, 75
5, 677372, Note_off_c, 3, 60, 0
5, 677372, Note_off_c, 3, 52, 0
5, 677376, Note_on_c, 3, 61, 75
5, 677376, Note_on_c, 3, 57, 75
5, 677696, Note_off_c, 3, 61, 0
5, 677696, Note_off_c, 3, 57, 0
5, 683520, Note_on_c, 3, 61, 75
5, 683520, Note_on_c, 3, 57, 75
5, 684912, Note_off_c, 3, 61, 0
5, 685056, Note_on_c, 3, 62, 75
5, 686448, Note_off_c, 3, 62, 0
5, 686448, Note_off_c, 3, 57, 64
5, 686592, Note_on_c, 3, 61, 75
5, 686592, Note_on_c, 3, 57, 75
5, 686972, Note_off_c, 3, 61, 0
5, 686972, Note_off_c, 3, 57, 0
5, 686976, Note_on_c, 3, 59, 75
5, 687356, Note_off_c, 3, 59, 0
5, 687360, Note_on_c, 3, 61, 75
5, 687360, Note_on_c, 3, 52, 75
5, 687740, Note_off_c, 3, 61, 0
5, 687740, Note_off_c, 3, 52, 0
5, 687744, Note_on_c, 3, 59, 75
5, 687744, Note_on_c, 3, 52, 75
5, 688124, Note_off_c, 3, 59, 0
5, 688124, Note_off_c, 3, 52, 0
5, 688128, Note_on_c, 3, 57, 75
5, 688128, Note_on_c, 3, 61, 75
5, 688448, Note_off_c, 3, 57, 0
5, 688448, Note_off_c, 3, 61, 0
5, 689664, Note_on_c, 3, 57, 100
5, 689664, Note_on_c, 3, 61, 100
5, 689852, Note_off_c, 3, 57, 0
5, 689852, Note_off_c, 3, 61, 0
5, 689856, Note_on_c, 3, 64, 100
5, 690044, Note_off_c, 3, 64, 0
5, 690048, Note_on_c, 3, 57, 100
5, 690048, Note_on_c, 3, 61, 100
5, 690236, Note_off_c, 3, 57, 0
5, 690236, Note_off_c, 3, 61, 0
5, 690240, Note_on_c, 3, 64, 100
5, 690428, Note_off_c, 3, 64, 0
5, 690432, Note_on_c, 3, 61, 100
5, 690432, Note_on_c, 3, 57, 100
5, 690620, Note_off_c, 3, 61, 0
5, 690620, Note_off_c, 3, 57, 0
5, 690624, Note_on_c, 3, 64, 100
5, 690812, Note_off_c, 3, 64, 0
5, 690816, Note_on_c, 3, 61, 100
5, 690832, Note_on_c, 3, 57, 100
5, 691004, Note_off_c, 3, 61, 0
5, 691008, Note_on_c, 3, 64, 100
5, 691020, Note_off_c, 3, 57, 0
5, 691168, Note_off_c, 3, 64, 0
5, 691200, Note_on_c, 3, 62, 100
5, 691200, Note_on_c, 3, 57, 100
5, 691388, Note_off_c, 3, 62, 0
5, 691388, Note_off_c, 3, 57, 0
5, 691392, Note_on_c, 3, 66, 100
5, 691580, Note_off_c, 3, 66, 0
5, 691584, Note_on_c, 3, 62, 100
5, 691584, Note_on_c, 3, 57, 100
5, 691772, Note_off_c, 3, 62, 0
5, 691772, Note_off_c, 3, 57, 0
5, 691776, Note_on_c, 3, 66, 100
5, 691964, Note_off_c, 3, 66, 0
5, 691968, Note_on_c, 3, 62, 100
5, 691968, Note_on_c, 3, 57, 100
5, 692156, Note_off_c, 3, 62, 0
5, 692156, Note_off_c, 3, 57, 0
5, 692160, Note_on_c, 3, 66, 100
5, 692348, Note_off_c, 3, 66, 0
5, 692352, Note_on_c, 3, 62, 100
5, 692352, Note_on_c, 3, 57, 100
5, 692540, Note_off_c, 3, 62, 0
5, 692540, Note_off_c, 3, 57, 0
5, 692544, Note_on_c, 3, 66, 100
5, 692704, Note_off_c, 3, 66, 0
5, 692736, Note_on_c, 3, 57, 100
5, 692736, Note_on_c, 3, 61, 100
5, 692924, Note_off_c, 3, 57, 0
5, 692924, Note_off_c, 3, 61, 0
5, 692928, Note_on_c, 3, 64, 100
5, 693116, Note_off_c, 3, 64, 0
5, 693120, Note_on_c, 3, 61, 100
5, 693120, Note_on_c, 3, 57, 100
5, 693308, Note_off_c, 3, 61, 0
5, 693308, Note_off_c, 3, 57, 0
5, 693312, Note_on_c, 3, 64, 100
5, 693500, Note_off_c, 3, 64, 0
5, 693504, Note_on_c, 3, 61, 100
5, 693504, Note_on_c, 3, 57, 100
5, 693692, Note_off_c, 3, 61, 0
5, 693692, Note_off_c, 3, 57, 0
5, 693696, Note_on_c, 3, 64, 100
5, 693884, Note_off_c, 3, 64, 0
5, 693888, Note_on_c, 3, 61, 100
5, 693888, Note_on_c, 3, 57, 100
5, 694076, Note_off_c, 3, 61, 0
5, 694076, Note_off_c, 3, 57, 0
5, 694080, Note_on_c, 3, 64, 100
5, 694240, Note_off_c, 3, 64, 64
5, 694272, Note_on_c, 3, 59, 100
5, 694272, Note_on_c, 3, 56, 100
5, 694272, Note_on_c, 3, 52, 100
5, 694652, Note_off_c, 3, 59, 0
5, 694652, Note_off_c, 3, 56, 0
5, 694656, Note_on_c, 3, 59, 100
5, 694656, Note_on_c, 3, 62, 100
5, 695036, Note_off_c, 3, 52, 0
5, 695036, Note_off_c, 3, 59, 0
5, 695036, Note_off_c, 3, 62, 0
5, 695040, Note_on_c, 3, 57, 100
5, 695040, Note_on_c, 3, 61, 100
5, 695420, Note_off_c, 3, 57, 0
5, 695420, Note_off_c, 3, 61, 0
5, 695424, Note_on_c, 3, 59, 100
5, 695424, Note_on_c, 3, 62, 100
5, 695744, Note_off_c, 3, 59, 0
5, 695744, Note_off_c, 3, 62, 0
5, 695808, Note_on_c, 3, 45, 100
5, 695968, Note_off_c, 3, 45, 0
5, 696000, Note_on_c, 3, 64, 100
5, 696188, Note_off_c, 3, 64, 0
5, 696192, Note_on_c, 3, 61, 100
5, 696192, Note_on_c, 3, 57, 100
5, 696380, Note_off_c, 3, 61, 0
5, 696380, Note_off_c, 3, 57, 0
5, 696384, Note_on_c, 3, 64, 100
5, 696572, Note_off_c, 3, 64, 0
5, 696576, Note_on_c, 3, 61, 100
5, 696576, Note_on_c, 3, 57, 100
5, 696764, Note_off_c, 3, 61, 0
5, 696764, Note_off_c, 3, 57, 0
5, 696768, Note_on_c, 3, 64, 100
5, 696956, Note_off_c, 3, 64, 0
5, 696960, Note_on_c, 3, 61, 100
5, 696960, Note_on_c, 3, 57, 100
5, 697148, Note_off_c, 3, 61, 0
5, 697148, Note_off_c, 3, 57, 0
5, 697152, Note_on_c, 3, 64, 100
5, 697312, Note_off_c, 3, 64, 0
5, 697344, Note_on_c, 3, 62, 100
5, 697344, Note_on_c, 3, 57, 100
5, 697532, Note_off_c, 3, 62, 0
5, 697532, Note_off_c, 3, 57, 0
5, 697536, Note_on_c, 3, 66, 100
5, 697724, Note_off_c, 3, 66, 0
5, 697728, Note_on_c, 3, 62, 100
5, 697728, Note_on_c, 3, 57, 100
5, 697916, Note_off_c, 3, 62, 0
5, 697916, Note_off_c, 3, 57, 0
5, 697920, Note_on_c, 3, 66, 100
5, 698108, Note_off_c, 3, 66, 0
5, 698112, Note_on_c, 3, 62, 100
5, 698112, Note_on_c, 3, 57, 100
5, 698300, Note_off_c, 3, 62, 0
5, 698300, Note_off_c, 3, 57, 0
5, 698304, Note_on_c, 3, 66, 100
5, 698492, Note_off_c, 3, 66, 0
5, 698496, Note_on_c, 3, 57, 100
5, 698496, Note_on_c, 3, 62, 100
5, 698684, Note_off_c, 3, 57, 0
5, 698684, Note_off_c, 3, 62, 0
5, 698688, Note_on_c, 3, 66, 100
5, 698848, Note_off_c, 3, 66, 0
5, 698880, Note_on_c, 3, 64, 100
5, 698880, Note_on_c, 3, 61, 100
5, 698880, Note_on_c, 3, 57, 100
5, 699200, Note_off_c, 3, 64, 0
5, 699200, Note_off_c, 3, 61, 0
5, 699200, Note_off_c, 3, 57, 0
5, 699264, Note_on_c, 3, 59, 100
5, 699264, Note_on_c, 3, 62, 100
5, 699264, Note_on_c, 3, 50, 100
5, 699584, Note_off_c, 3, 59, 0
5, 699584, Note_off_c, 3, 62, 0
5, 699584, Note_off_c, 3, 50, 0
5, 699648, Note_on_c, 3, 57, 100
5, 699648, Note_on_c, 3, 61, 100
5, 699648, Note_on_c, 3, 52, 100
5, 699968, Note_off_c, 3, 57, 0
5, 699968, Note_off_c, 3, 61, 0
5, 699968, Note_off_c, 3, 52, 0
5, 700032, Note_on_c, 3, 59, 100
5, 700032, Note_on_c, 3, 56, 100
5, 700032, Note_on_c, 3, 52, 100
5, 700352, Note_off_c, 3, 59, 0
5, 700352, Note_off_c, 3, 56, 0
5, 700352, Note_off_c, 3, 52, 0
5, 700416, Note_on_c, 3, 45, 100
5, 700576, Note_off_c, 3, 45, 0
5, 700800, Note_on_c, 3, 57, 100
5, 700960, Note_off_c, 3, 57, 0
5, 701952, Note_on_c, 3, 64, 75
5, 701952, Note_on_c, 3, 52, 75
5, 702272, Note_off_c, 3, 64, 0
5, 702272, Note_off_c, 3, 52, 0
5, 702336, Note_on_c, 3, 64, 75
5, 702336, Note_on_c, 3, 52, 75
5, 702716, Note_off_c, 3, 64, 0
5, 702716, Note_off_c, 3, 52, 0
5, 702720, Note_on_c, 3, 59, 75
5, 702720, Note_on_c, 3, 47, 75
5, 703344, Note_off_c, 3, 59, 0
5, 703344, Note_off_c, 3, 47, 0
5, 703488, Note_on_c, 3, 66, 75
5, 703488, Note_on_c, 3, 54, 75
5, 703808, Note_off_c, 3, 66, 0
5, 703808, Note_off_c, 3, 54, 0
5, 703872, Note_on_c, 3, 66, 75
5, 703872, Note_on_c, 3, 54, 75
5, 704192, Note_off_c, 3, 54, 0
5, 704252, Note_off_c, 3, 66, 0
5, 704256, Note_on_c, 3, 50, 75
5, 704256, Note_on_c, 3, 62, 75
5, 704880, Note_off_c, 3, 50, 0
5, 705024, Note_on_c, 3, 56, 75
5, 705344, Note_off_c, 3, 62, 0
5, 705408, Note_on_c, 3, 64, 75
5, 705596, Note_off_c, 3, 64, 0
5, 705600, Note_on_c, 3, 62, 75
5, 705788, Note_off_c, 3, 56, 64
5, 705788, Note_off_c, 3, 62, 0
5, 705792, Note_on_c, 3, 57, 75
5, 705792, Note_on_c, 3, 61, 75
5, 706112, Note_off_c, 3, 57, 0
5, 706112, Note_off_c, 3, 61, 0
5, 706176, Note_on_c, 3, 62, 75
5, 706176, Note_on_c, 3, 50, 75
5, 706496, Note_off_c, 3, 62, 0
5, 706496, Note_off_c, 3, 50, 0
5, 706560, Note_on_c, 3, 64, 75
5, 706560, Note_on_c, 3, 52, 75
5, 707184, Note_off_c, 3, 64, 0
5, 707184, Note_off_c, 3, 52, 64
5, 707328, Note_on_c, 3, 49, 75
5, 707708, Note_off_c, 3, 49, 0
5, 707712, Note_on_c, 3, 52, 75
5, 708092, Note_off_c, 3, 52, 0
5, 708096, Note_on_c, 3, 61, 75
5, 708096, Note_on_c, 3, 54, 75
5, 708476, Note_off_c, 3, 54, 0
5, 708480, Note_on_c, 3, 57, 75
5, 708720, Note_off_c, 3, 61, 0
5, 708800, Note_off_c, 3, 57, 0
5, 708864, Note_on_c, 3, 47, 75
5, 708864, Note_on_c, 3, 59, 75
5, 709244, Note_off_c, 3, 47, 0
5, 709248, Note_on_c, 3, 50, 75
5, 709628, Note_off_c, 3, 50, 0
5, 709632, Note_on_c, 3, 52, 75
5, 709952, Note_off_c, 3, 59, 0
5, 710012, Note_off_c, 3, 52, 0
5, 710016, Note_on_c, 3, 56, 75
5, 710336, Note_off_c, 3, 56, 0
5, 710400, Note_on_c, 3, 57, 75
5, 710780, Note_off_c, 3, 57, 0
5, 710784, Note_on_c, 3, 59, 75
5, 710784, Note_on_c, 3, 53, 75
5, 711164, Note_off_c, 3, 59, 0
5, 711164, Note_off_c, 3, 53, 0
5, 711168, Note_on_c, 3, 54, 75
5, 711548, Note_off_c, 3, 54, 0
5, 711552, Note_on_c, 3, 50, 75
5, 711872, Note_off_c, 3, 50, 0
5, 711936, Note_on_c, 3, 52, 75
5, 712316, Note_off_c, 3, 52, 0
5, 712320, Note_on_c, 3, 52, 75
5, 712700, Note_off_c, 3, 52, 0
5, 712704, Note_on_c, 3, 52, 75
5, 712704, Note_on_c, 3, 45, 75
5, 713468, Note_off_c, 3, 52, 0
5, 713468, Note_off_c, 3, 45, 0
5, 713472, Note_on_c, 3, 57, 75
5, 713792, Note_off_c, 3, 57, 0
5, 714240, Note_on_c, 3, 52, 75
5, 714560, Note_off_c, 3, 52, 0
5, 715008, Note_on_c, 3, 57, 75
5, 715328, Note_off_c, 3, 57, 0
5, 715776, Note_on_c, 3, 54, 75
5, 716096, Note_off_c, 3, 54, 0
5, 716544, Note_on_c, 3, 62, 75
5, 717692, Note_off_c, 3, 62, 0
5, 717696, Note_on_c, 3, 61, 75
5, 718076, Note_off_c, 3, 61, 0
5, 718080, Note_on_c, 3, 64, 75
5, 718080, Note_on_c, 3, 56, 75
5, 718460, Note_off_c, 3, 64, 0
5, 718460, Note_off_c, 3, 56, 0
5, 718464, Note_on_c, 3, 64, 75
5, 718464, Note_on_c, 3, 57, 75
5, 718844, Note_off_c, 3, 64, 0
5, 718844, Note_off_c, 3, 57, 0
5, 718848, Note_on_c, 3, 64, 75
5, 718848, Note_on_c, 3, 52, 75
5, 719612, Note_off_c, 3, 64, 0
5, 719612, Note_off_c, 3, 52, 0
5, 719616, Note_on_c, 3, 49, 75
5, 719616, Note_on_c, 3, 61, 75
5, 720380, Note_off_c, 3, 49, 0
5, 720384, Note_on_c, 3, 54, 75
5, 720768, Note_on_c, 3, 66, 75
5, 721008, Note_off_c, 3, 61, 0
5, 721148, Note_off_c, 3, 54, 0
5, 721152, Note_on_c, 3, 47, 75
5, 721392, Note_off_c, 3, 66, 0
5, 721536, Note_on_c, 3, 59, 75
5, 721776, Note_off_c, 3, 47, 0
5, 721920, Note_on_c, 3, 52, 75
5, 722160, Note_off_c, 3, 59, 0
5, 722304, Note_on_c, 3, 64, 75
5, 722544, Note_off_c, 3, 52, 0
5, 722688, Note_on_c, 3, 45, 75
5, 722928, Note_off_c, 3, 64, 0
5, 723072, Note_on_c, 3, 57, 75
5, 723312, Note_off_c, 3, 45, 0
5, 723456, Note_on_c, 3, 54, 75
5, 723696, Note_off_c, 3, 57, 0
5, 723776, Note_off_c, 3, 54, 0
5, 723840, Note_on_c, 3, 66, 75
5, 723840, Note_on_c, 3, 59, 75
5, 723840, Note_on_c, 3, 50, 75
5, 724220, Note_off_c, 3, 66, 0
5, 724220, Note_off_c, 3, 59, 0
5, 724220, Note_off_c, 3, 50, 0
5, 724224, Note_on_c, 3, 64, 75
5, 724224, Note_on_c, 3, 57, 75
5, 724224, Note_on_c, 3, 52, 75
5, 724604, Note_off_c, 3, 64, 0
5, 724604, Note_off_c, 3, 57, 0
5, 724604, Note_off_c, 3, 52, 0
5, 724608, Note_on_c, 3, 68, 75
5, 724608, Note_on_c, 3, 56, 75
5, 724608, Note_on_c, 3, 52, 75
5, 724988, Note_off_c, 3, 68, 0
5, 724988, Note_off_c, 3, 56, 0
5, 724988, Note_off_c, 3, 52, 0
5, 724992, Note_on_c, 3, 61, 100
5, 724992, Note_on_c, 3, 57, 100
5, 725312, Note_off_c, 3, 61, 0
5, 725312, Note_off_c, 3, 57, 0
5, 725760, Note_on_c, 3, 52, 100
5, 725760, Note_on_c, 3, 64, 100
5, 727152, Note_off_c, 3, 52, 0
5, 727152, Note_off_c, 3, 64, 0
5, 727296, Note_on_c, 3, 62, 100
5, 727296, Note_on_c, 3, 50, 100
5, 728688, Note_off_c, 3, 62, 0
5, 728688, Note_off_c, 3, 50, 0
5, 728832, Note_on_c, 3, 49, 100
5, 728832, Note_on_c, 3, 61, 100
5, 729760, Note_off_c, 3, 49, 0
5, 729760, Note_off_c, 3, 61, 0
5, 729792, Note_on_c, 3, 42, 100
5, 729980, Note_off_c, 3, 42, 0
5, 729984, Note_on_c, 3, 44, 100
5, 730172, Note_off_c, 3, 44, 0
5, 730176, Note_on_c, 3, 45, 100
5, 730364, Note_off_c, 3, 45, 0
5, 730368, Note_on_c, 3, 47, 100
5, 730556, Note_off_c, 3, 47, 0
5, 730560, Note_on_c, 3, 42, 100
5, 730748, Note_off_c, 3, 42, 0
5, 730752, Note_on_c, 3, 47, 100
5, 730940, Note_off_c, 3, 47, 0
5, 730944, Note_on_c, 3, 45, 100
5, 731104, Note_off_c, 3, 45, 0
5, 731136, Note_on_c, 3, 44, 100
5, 731324, Note_off_c, 3, 44, 0
5, 731328, Note_on_c, 3, 40, 100
5, 731516, Note_off_c, 3, 40, 0
5, 731520, Note_on_c, 3, 42, 100
5, 731708, Note_off_c, 3, 42, 0
5, 731712, Note_on_c, 3, 44, 100
5, 731900, Note_off_c, 3, 44, 0
5, 731904, Note_on_c, 3, 45, 100
5, 732092, Note_off_c, 3, 45, 0
5, 732096, Note_on_c, 3, 44, 100
5, 732284, Note_off_c, 3, 44, 0
5, 732288, Note_on_c, 3, 42, 100
5, 732476, Note_off_c, 3, 42, 0
5, 732480, Note_on_c, 3, 40, 100
5, 732640, Note_off_c, 3, 40, 0
5, 732672, Note_on_c, 3, 38, 100
5, 732832, Note_off_c, 3, 38, 0
5, 732864, Note_on_c, 3, 50, 100
5, 733024, Note_off_c, 3, 50, 0
5, 733056, Note_on_c, 3, 38, 100
5, 733216, Note_off_c, 3, 38, 0
5, 733248, Note_on_c, 3, 50, 100
5, 733408, Note_off_c, 3, 50, 0
5, 733440, Note_on_c, 3, 40, 100
5, 733600, Note_off_c, 3, 40, 0
5, 733632, Note_on_c, 3, 52, 100
5, 733792, Note_off_c, 3, 52, 0
5, 733824, Note_on_c, 3, 40, 100
5, 733984, Note_off_c, 3, 40, 0
5, 734016, Note_on_c, 3, 52, 100
5, 734176, Note_off_c, 3, 52, 0
5, 734208, Note_on_c, 3, 42, 100
5, 734396, Note_off_c, 3, 42, 0
5, 734400, Note_on_c, 3, 54, 100
5, 734588, Note_off_c, 3, 54, 0
5, 734592, Note_on_c, 3, 42, 100
5, 734780, Note_off_c, 3, 42, 0
5, 734784, Note_on_c, 3, 54, 100
5, 734972, Note_off_c, 3, 54, 0
5, 734976, Note_on_c, 3, 38, 100
5, 735164, Note_off_c, 3, 38, 0
5, 735168, Note_on_c, 3, 50, 100
5, 735356, Note_off_c, 3, 50, 0
5, 735360, Note_on_c, 3, 38, 100
5, 735548, Note_off_c, 3, 38, 0
5, 735552, Note_on_c, 3, 50, 100
5, 735712, Note_off_c, 3, 50, 0
5, 735744, Note_on_c, 3, 40, 100
5, 735904, Note_off_c, 3, 40, 0
5, 735936, Note_on_c, 3, 52, 100
5, 736096, Note_off_c, 3, 52, 0
5, 736128, Note_on_c, 3, 40, 100
5, 736288, Note_off_c, 3, 40, 0
5, 736320, Note_on_c, 3, 52, 100
5, 736480, Note_off_c, 3, 52, 0
5, 736512, Note_on_c, 3, 40, 100
5, 736672, Note_off_c, 3, 40, 0
5, 736704, Note_on_c, 3, 52, 100
5, 736864, Note_off_c, 3, 52, 0
5, 736896, Note_on_c, 3, 40, 100
5, 737056, Note_off_c, 3, 40, 0
5, 737088, Note_on_c, 3, 52, 100
5, 737248, Note_off_c, 3, 52, 0
5, 737280, Note_on_c, 3, 45, 75
5, 740208, Note_off_c, 3, 45, 64
5, 740352, Note_on_c, 3, 45, 75
5, 743280, Note_off_c, 3, 45, 64
5, 743424, Note_on_c, 3, 54, 75
5, 743424, Note_on_c, 3, 45, 75
5, 743744, Note_off_c, 3, 54, 0
5, 744960, Note_on_c, 3, 55, 75
5, 745280, Note_off_c, 3, 55, 0
5, 746352, Note_off_c, 3, 45, 64
5, 746496, Note_on_c, 3, 54, 75
5, 746496, Note_on_c, 3, 45, 75
5, 746816, Note_off_c, 3, 54, 0
5, 748032, Note_on_c, 3, 52, 75
5, 748352, Note_off_c, 3, 52, 0
5, 749424, Note_off_c, 3, 45, 64
5, 749568, Note_on_c, 3, 52, 75
5, 749568, Note_on_c, 3, 45, 75
5, 749888, Note_off_c, 3, 52, 0
5, 751104, Note_on_c, 3, 52, 75
5, 751104, Note_on_c, 3, 57, 75
5, 751264, Note_off_c, 3, 52, 0
5, 752496, Note_off_c, 3, 57, 0
5, 752496, Note_off_c, 3, 45, 64
5, 752640, Note_on_c, 3, 57, 75
5, 752640, Note_on_c, 3, 50, 75
5, 752640, Note_on_c, 3, 45, 75
5, 752800, Note_off_c, 3, 50, 0
5, 754032, Note_off_c, 3, 57, 0
5, 754032, Note_off_c, 3, 45, 0
5, 754176, Note_on_c, 3, 52, 75
5, 754176, Note_on_c, 3, 57, 75
5, 754176, Note_on_c, 3, 45, 75
5, 754336, Note_off_c, 3, 52, 0
5, 755568, Note_off_c, 3, 57, 0
5, 755568, Note_off_c, 3, 45, 0
5, 755712, Note_on_c, 3, 50, 75
5, 755712, Note_on_c, 3, 57, 75
5, 755712, Note_on_c, 3, 45, 75
5, 755872, Note_off_c, 3, 50, 0
5, 757104, Note_off_c, 3, 57, 0
5, 757104, Note_off_c, 3, 45, 0
5, 757248, Note_on_c, 3, 52, 75
5, 757248, Note_on_c, 3, 57, 75
5, 757248, Note_on_c, 3, 45, 75
5, 757408, Note_off_c, 3, 52, 0
5, 758640, Note_off_c, 3, 57, 0
5, 758640, Note_off_c, 3, 45, 0
5, 758784, Note_on_c, 3, 57, 75
5, 758784, Note_on_c, 3, 45, 75
5, 758784, Note_on_c, 3, 54, 75
5, 759104, Note_off_c, 3, 54, 0
5, 760176, Note_off_c, 3, 57, 0
5, 760176, Note_off_c, 3, 45, 0
5, 760320, Note_on_c, 3, 45, 75
5, 760320, Note_on_c, 3, 59, 75
5, 760320, Note_on_c, 3, 52, 75
5, 760640, Note_off_c, 3, 59, 0
5, 760640, Note_off_c, 3, 52, 0
5, 761712, Note_off_c, 3, 45, 0
5, 761856, Note_on_c, 3, 61, 75
5, 761856, Note_on_c, 3, 57, 75
5, 762044, Note_off_c, 3, 61, 0
5, 762044, Note_off_c, 3, 57, 0
5, 762048, Note_on_c, 3, 64, 75
5, 762236, Note_off_c, 3, 64, 0
5, 762240, Note_on_c, 3, 61, 75
5, 762240, Note_on_c, 3, 57, 75
5, 762428, Note_off_c, 3, 61, 0
5, 762428, Note_off_c, 3, 57, 0
5, 762432, Note_on_c, 3, 64, 75
5, 762620, Note_off_c, 3, 64, 0
5, 762624, Note_on_c, 3, 61, 75
5, 762624, Note_on_c, 3, 57, 75
5, 762812, Note_off_c, 3, 61, 0
5, 762812, Note_off_c, 3, 57, 0
5, 762816, Note_on_c, 3, 64, 75
5, 763004, Note_off_c, 3, 64, 0
5, 763008, Note_on_c, 3, 61, 75
5, 763008, Note_on_c, 3, 57, 75
5, 763196, Note_off_c, 3, 61, 0
5, 763196, Note_off_c, 3, 57, 0
5, 763200, Note_on_c, 3, 64, 75
5, 763360, Note_off_c, 3, 64, 0
5, 763392, Note_on_c, 3, 62, 75
5, 763392, Note_on_c, 3, 59, 75
5, 763392, Note_on_c, 3, 56, 75
5, 763580, Note_off_c, 3, 62, 0
5, 763580, Note_off_c, 3, 59, 0
5, 763580, Note_off_c, 3, 56, 0
5, 763584, Note_on_c, 3, 64, 75
5, 763772, Note_off_c, 3, 64, 0
5, 763776, Note_on_c, 3, 62, 75
5, 763776, Note_on_c, 3, 59, 75
5, 763776, Note_on_c, 3, 56, 75
5, 763964, Note_off_c, 3, 62, 0
5, 763964, Note_off_c, 3, 59, 0
5, 763964, Note_off_c, 3, 56, 0
5, 763968, Note_on_c, 3, 64, 75
5, 764156, Note_off_c, 3, 64, 0
5, 764160, Note_on_c, 3, 62, 75
5, 764160, Note_on_c, 3, 59, 75
5, 764160, Note_on_c, 3, 56, 75
5, 764348, Note_off_c, 3, 62, 0
5, 764348, Note_off_c, 3, 59, 0
5, 764348, Note_off_c, 3, 56, 0
5, 764352, Note_on_c, 3, 64, 75
5, 764540, Note_off_c, 3, 64, 0
5, 764544, Note_on_c, 3, 62, 75
5, 764544, Note_on_c, 3, 59, 75
5, 764544, Note_on_c, 3, 56, 75
5, 764732, Note_off_c, 3, 62, 0
5, 764732, Note_off_c, 3, 59, 0
5, 764732, Note_off_c, 3, 56, 0
5, 764736, Note_on_c, 3, 64, 75
5, 764896, Note_off_c, 3, 64, 0
5, 764928, Note_on_c, 3, 61, 75
5, 764928, Note_on_c, 3, 57, 75
5, 765116, Note_off_c, 3, 61, 0
5, 765116, Note_off_c, 3, 57, 0
5, 765120, Note_on_c, 3, 64, 75
5, 765308, Note_off_c, 3, 64, 0
5, 765312, Note_on_c, 3, 61, 75
5, 765312, Note_on_c, 3, 57, 75
5, 765500, Note_off_c, 3, 61, 0
5, 765500, Note_off_c, 3, 57, 0
5, 765504, Note_on_c, 3, 64, 75
5, 765692, Note_off_c, 3, 64, 0
5, 765696, Note_on_c, 3, 61, 75
5, 765696, Note_on_c, 3, 57, 75
5, 765884, Note_off_c, 3, 61, 0
5, 765884, Note_off_c, 3, 57, 0
5, 765888, Note_on_c, 3, 64, 75
5, 766076, Note_off_c, 3, 64, 0
5, 766080, Note_on_c, 3, 61, 75
5, 766080, Note_on_c, 3, 57, 75
5, 766268, Note_off_c, 3, 61, 0
5, 766268, Note_off_c, 3, 57, 0
5, 766272, Note_on_c, 3, 64, 75
5, 766432, Note_off_c, 3, 64, 0
5, 766464, Note_on_c, 3, 62, 75
5, 766464, Note_on_c, 3, 59, 75
5, 766464, Note_on_c, 3, 56, 75
5, 766652, Note_off_c, 3, 62, 0
5, 766652, Note_off_c, 3, 59, 0
5, 766652, Note_off_c, 3, 56, 0
5, 766656, Note_on_c, 3, 64, 75
5, 766844, Note_off_c, 3, 64, 0
5, 766848, Note_on_c, 3, 62, 75
5, 766848, Note_on_c, 3, 56, 75
5, 766848, Note_on_c, 3, 59, 75
5, 767036, Note_off_c, 3, 62, 0
5, 767036, Note_off_c, 3, 56, 0
5, 767036, Note_off_c, 3, 59, 0
5, 767040, Note_on_c, 3, 64, 75
5, 767228, Note_off_c, 3, 64, 0
5, 767232, Note_on_c, 3, 62, 75
5, 767232, Note_on_c, 3, 59, 75
5, 767232, Note_on_c, 3, 56, 75
5, 767420, Note_off_c, 3, 62, 0
5, 767420, Note_off_c, 3, 59, 0
5, 767420, Note_off_c, 3, 56, 0
5, 767424, Note_on_c, 3, 64, 75
5, 767612, Note_off_c, 3, 64, 0
5, 767616, Note_on_c, 3, 62, 75
5, 767616, Note_on_c, 3, 59, 75
5, 767616, Note_on_c, 3, 56, 75
5, 767804, Note_off_c, 3, 62, 0
5, 767804, Note_off_c, 3, 59, 0
5, 767804, Note_off_c, 3, 56, 0
5, 767808, Note_on_c, 3, 64, 75
5, 767968, Note_off_c, 3, 64, 0
5, 768000, Note_on_c, 3, 61, 75
5, 768000, Note_on_c, 3, 57, 75
5, 768188, Note_off_c, 3, 61, 0
5, 768188, Note_off_c, 3, 57, 0
5, 768192, Note_on_c, 3, 64, 75
5, 768380, Note_off_c, 3, 64, 0
5, 768384, Note_on_c, 3, 61, 75
5, 768384, Note_on_c, 3, 57, 75
5, 768572, Note_off_c, 3, 61, 0
5, 768572, Note_off_c, 3, 57, 0
5, 768576, Note_on_c, 3, 64, 75
5, 768764, Note_off_c, 3, 64, 0
5, 768768, Note_on_c, 3, 61, 75
5, 768768, Note_on_c, 3, 57, 75
5, 768768, Note_on_c, 3, 54, 75
5, 768956, Note_off_c, 3, 61, 0
5, 768956, Note_off_c, 3, 57, 0
5, 768956, Note_off_c, 3, 54, 0
5, 768960, Note_on_c, 3, 66, 75
5, 769148, Note_off_c, 3, 66, 0
5, 769152, Note_on_c, 3, 61, 75
5, 769152, Note_on_c, 3, 57, 75
5, 769152, Note_on_c, 3, 54, 75
5, 769340, Note_off_c, 3, 61, 0
5, 769340, Note_off_c, 3, 57, 0
5, 769340, Note_off_c, 3, 54, 0
5, 769344, Note_on_c, 3, 66, 75
5, 769504, Note_off_c, 3, 66, 0
5, 769536, Note_on_c, 3, 59, 75
5, 769536, Note_on_c, 3, 54, 75
5, 769536, Note_on_c, 3, 50, 75
5, 769724, Note_off_c, 3, 59, 0
5, 769724, Note_off_c, 3, 54, 0
5, 769724, Note_off_c, 3, 50, 0
5, 769728, Note_on_c, 3, 62, 75
5, 769916, Note_off_c, 3, 62, 0
5, 769920, Note_on_c, 3, 54, 75
5, 769920, Note_on_c, 3, 50, 75
5, 769920, Note_on_c, 3, 59, 75
5, 770108, Note_off_c, 3, 54, 0
5, 770108, Note_off_c, 3, 50, 0
5, 770108, Note_off_c, 3, 59, 0
5, 770112, Note_on_c, 3, 62, 75
5, 770300, Note_off_c, 3, 62, 0
5, 770304, Note_on_c, 3, 59, 75
5, 770304, Note_on_c, 3, 56, 75
5, 770304, Note_on_c, 3, 52, 75
5, 770492, Note_off_c, 3, 59, 0
5, 770492, Note_off_c, 3, 56, 0
5, 770492, Note_off_c, 3, 52, 0
5, 770496, Note_on_c, 3, 64, 75
5, 770684, Note_off_c, 3, 64, 0
5, 770688, Note_on_c, 3, 59, 75
5, 770688, Note_on_c, 3, 56, 75
5, 770704, Note_on_c, 3, 52, 75
5, 770876, Note_off_c, 3, 59, 0
5, 770876, Note_off_c, 3, 56, 0
5, 770880, Note_on_c, 3, 64, 75
5, 770892, Note_off_c, 3, 52, 0
5, 771040, Note_off_c, 3, 64, 0
5, 771072, Note_on_c, 3, 57, 75
5, 771072, Note_on_c, 3, 52, 75
5, 771072, Note_on_c, 3, 45, 75
5, 772604, Note_off_c, 3, 57, 0
5, 772604, Note_off_c, 3, 45, 64
5, 772608, Note_on_c, 3, 56, 75
5, 772608, Note_on_c, 3, 44, 75
5, 774000, Note_off_c, 3, 56, 0
5, 774000, Note_off_c, 3, 52, 64
5, 774000, Note_off_c, 3, 44, 64
5, 774144, Note_on_c, 3, 57, 75
5, 774144, Note_on_c, 3, 52, 75
5, 774144, Note_on_c, 3, 45, 75
5, 775676, Note_off_c, 3, 57, 0
5, 775676, Note_off_c, 3, 45, 64
5, 775680, Note_on_c, 3, 56, 75
5, 775680, Note_on_c, 3, 44, 75
5, 777072, Note_off_c, 3, 56, 0
5, 777072, Note_off_c, 3, 52, 64
5, 777072, Note_off_c, 3, 44, 64
5, 777216, Note_on_c, 3, 45, 75
5, 777216, Note_on_c, 3, 33, 75
5, 777536, Note_off_c, 3, 45, 0
5, 777536, Note_off_c, 3, 33, 0
5, 777984, Note_on_c, 3, 54, 75
5, 777984, Note_on_c, 3, 42, 75
5, 778304, Note_off_c, 3, 54, 0
5, 778304, Note_off_c, 3, 42, 0
5, 778752, Note_on_c, 3, 50, 75
5, 778752, Note_on_c, 3, 38, 75
5, 779072, Note_off_c, 3, 50, 0
5, 779072, Note_off_c, 3, 38, 0
5, 779520, Note_on_c, 3, 52, 75
5, 779520, Note_on_c, 3, 40, 75
5, 779840, Note_off_c, 3, 52, 0
5, 779840, Note_off_c, 3, 40, 0
5, 780288, Note_on_c, 3, 61, 100
5, 780288, Note_on_c, 3, 59, 100
5, 780288, Note_on_c, 3, 53, 100
5, 780448, Note_off_c, 3, 61, 0
5, 780448, Note_off_c, 3, 59, 0
5, 780448, Note_off_c, 3, 53, 0
5, 780480, Note_on_c, 3, 61, 100
5, 780480, Note_on_c, 3, 59, 100
5, 780480, Note_on_c, 3, 53, 100
5, 780640, Note_off_c, 3, 61, 0
5, 780640, Note_off_c, 3, 59, 0
5, 780640, Note_off_c, 3, 53, 0
5, 780672, Note_on_c, 3, 61, 100
5, 780672, Note_on_c, 3, 59, 100
5, 780672, Note_on_c, 3, 53, 100
5, 780832, Note_off_c, 3, 61, 0
5, 780832, Note_off_c, 3, 59, 0
5, 780832, Note_off_c, 3, 53, 0
5, 780864, Note_on_c, 3, 61, 100
5, 780864, Note_on_c, 3, 59, 100
5, 780864, Note_on_c, 3, 53, 100
5, 781024, Note_off_c, 3, 61, 0
5, 781024, Note_off_c, 3, 59, 0
5, 781024, Note_off_c, 3, 53, 0
5, 781056, Note_on_c, 3, 61, 100
5, 781056, Note_on_c, 3, 59, 100
5, 781056, Note_on_c, 3, 53, 100
5, 781216, Note_off_c, 3, 61, 0
5, 781216, Note_off_c, 3, 59, 0
5, 781216, Note_off_c, 3, 53, 0
5, 781248, Note_on_c, 3, 61, 100
5, 781248, Note_on_c, 3, 59, 100
5, 781248, Note_on_c, 3, 53, 100
5, 781408, Note_off_c, 3, 61, 0
5, 781408, Note_off_c, 3, 59, 0
5, 781408, Note_off_c, 3, 53, 0
5, 781440, Note_on_c, 3, 61, 100
5, 781440, Note_on_c, 3, 59, 100
5, 781440, Note_on_c, 3, 53, 100
5, 781600, Note_off_c, 3, 61, 0
5, 781600, Note_off_c, 3, 59, 0
5, 781600, Note_off_c, 3, 53, 0
5, 781632, Note_on_c, 3, 61, 100
5, 781632, Note_on_c, 3, 59, 100
5, 781632, Note_on_c, 3, 53, 100
5, 781792, Note_off_c, 3, 61, 0
5, 781792, Note_off_c, 3, 59, 0
5, 781792, Note_off_c, 3, 53, 0
5, 781824, Note_on_c, 3, 61, 100
5, 781824, Note_on_c, 3, 54, 100
5, 781984, Note_off_c, 3, 61, 0
5, 782012, Note_off_c, 3, 54, 0
5, 782016, Note_on_c, 3, 56, 100
5, 782204, Note_off_c, 3, 56, 0
5, 782208, Note_on_c, 3, 57, 100
5, 782396, Note_off_c, 3, 57, 0
5, 782400, Note_on_c, 3, 56, 100
5, 782588, Note_off_c, 3, 56, 0
5, 782592, Note_on_c, 3, 54, 100
5, 782780, Note_off_c, 3, 54, 0
5, 782784, Note_on_c, 3, 52, 100
5, 782972, Note_off_c, 3, 52, 0
5, 782976, Note_on_c, 3, 50, 100
5, 783164, Note_off_c, 3, 50, 0
5, 783168, Note_on_c, 3, 49, 100
5, 783328, Note_off_c, 3, 49, 0
5, 783360, Note_on_c, 3, 50, 100
5, 783548, Note_off_c, 3, 50, 0
5, 783552, Note_on_c, 3, 47, 100
5, 783740, Note_off_c, 3, 47, 0
5, 783744, Note_on_c, 3, 49, 100
5, 783932, Note_off_c, 3, 49, 0
5, 783936, Note_on_c, 3, 50, 100
5, 784124, Note_off_c, 3, 50, 0
5, 784128, Note_on_c, 3, 52, 100
5, 784316, Note_off_c, 3, 52, 0
5, 784320, Note_on_c, 3, 54, 100
5, 784508, Note_off_c, 3, 54, 0
5, 784512, Note_on_c, 3, 56, 100
5, 784700, Note_off_c, 3, 56, 0
5, 784704, Note_on_c, 3, 54, 100
5, 784864, Note_off_c, 3, 54, 0
5, 784896, Note_on_c, 3, 61, 100
5, 784896, Note_on_c, 3, 59, 100
5, 784896, Note_on_c, 3, 52, 100
5, 785056, Note_off_c, 3, 61, 0
5, 785056, Note_off_c, 3, 59, 0
5, 785056, Note_off_c, 3, 52, 0
5, 785088, Note_on_c, 3, 61, 100
5, 785088, Note_on_c, 3, 59, 100
5, 785088, Note_on_c, 3, 52, 100
5, 785248, Note_off_c, 3, 61, 0
5, 785248, Note_off_c, 3, 59, 0
5, 785248, Note_off_c, 3, 52, 0
5, 785280, Note_on_c, 3, 61, 100
5, 785280, Note_on_c, 3, 59, 100
5, 785280, Note_on_c, 3, 52, 100
5, 785440, Note_off_c, 3, 61, 0
5, 785440, Note_off_c, 3, 59, 0
5, 785440, Note_off_c, 3, 52, 0
5, 785472, Note_on_c, 3, 61, 100
5, 785472, Note_on_c, 3, 59, 100
5, 785472, Note_on_c, 3, 52, 100
5, 785632, Note_off_c, 3, 61, 0
5, 785632, Note_off_c, 3, 59, 0
5, 785632, Note_off_c, 3, 52, 0
5, 785664, Note_on_c, 3, 61, 100
5, 785664, Note_on_c, 3, 59, 100
5, 785664, Note_on_c, 3, 52, 100
5, 785824, Note_off_c, 3, 61, 0
5, 785824, Note_off_c, 3, 59, 0
5, 785824, Note_off_c, 3, 52, 0
5, 785856, Note_on_c, 3, 61, 100
5, 785856, Note_on_c, 3, 52, 100
5, 785856, Note_on_c, 3, 59, 100
5, 786016, Note_off_c, 3, 61, 0
5, 786016, Note_off_c, 3, 52, 0
5, 786016, Note_off_c, 3, 59, 0
5, 786048, Note_on_c, 3, 61, 100
5, 786048, Note_on_c, 3, 59, 100
5, 786048, Note_on_c, 3, 52, 100
5, 786208, Note_off_c, 3, 61, 0
5, 786208, Note_off_c, 3, 59, 0
5, 786208, Note_off_c, 3, 52, 0
5, 786240, Note_on_c, 3, 61, 100
5, 786240, Note_on_c, 3, 52, 100
5, 786240, Note_on_c, 3, 59, 100
5, 786400, Note_off_c, 3, 61, 0
5, 786400, Note_off_c, 3, 52, 0
5, 786400, Note_off_c, 3, 59, 0
5, 786432, Note_on_c, 3, 61, 100
5, 786432, Note_on_c, 3, 54, 100
5, 786592, Note_off_c, 3, 61, 0
5, 786620, Note_off_c, 3, 54, 0
5, 786624, Note_on_c, 3, 56, 100
5, 786812, Note_off_c, 3, 56, 0
5, 786816, Note_on_c, 3, 57, 100
5, 787004, Note_off_c, 3, 57, 0
5, 787008, Note_on_c, 3, 56, 100
5, 787196, Note_off_c, 3, 56, 0
5, 787200, Note_on_c, 3, 54, 100
5, 787388, Note_off_c, 3, 54, 0
5, 787392, Note_on_c, 3, 52, 100
5, 787580, Note_off_c, 3, 52, 0
5, 787584, Note_on_c, 3, 50, 100
5, 787772, Note_off_c, 3, 50, 0
5, 787776, Note_on_c, 3, 49, 100
5, 787936, Note_off_c, 3, 49, 0
5, 787968, Note_on_c, 3, 50, 100
5, 788156, Note_off_c, 3, 50, 0
5, 788160, Note_on_c, 3, 47, 100
5, 788348, Note_off_c, 3, 47, 0
5, 788352, Note_on_c, 3, 49, 100
5, 788540, Note_off_c, 3, 49, 0
5, 788544, Note_on_c, 3, 50, 100
5, 788732, Note_off_c, 3, 50, 0
5, 788736, Note_on_c, 3, 52, 100
5, 788924, Note_off_c, 3, 52, 0
5, 788928, Note_on_c, 3, 50, 100
5, 789116, Note_off_c, 3, 50, 0
5, 789120, Note_on_c, 3, 49, 100
5, 789308, Note_off_c, 3, 49, 0
5, 789312, Note_on_c, 3, 47, 100
5, 789472, Note_off_c, 3, 47, 0
5, 789504, Note_on_c, 3, 45, 100
5, 789824, Note_off_c, 3, 45, 0
5, 790272, Note_on_c, 3, 57, 75
5, 790272, Note_on_c, 3, 61, 75
5, 790432, Note_off_c, 3, 57, 0
5, 790432, Note_off_c, 3, 61, 0
5, 790656, Note_on_c, 3, 59, 75
5, 790656, Note_on_c, 3, 62, 75
5, 790816, Note_off_c, 3, 59, 0
5, 790816, Note_off_c, 3, 62, 0
5, 791040, Note_on_c, 3, 61, 75
5, 791040, Note_on_c, 3, 64, 75
5, 791200, Note_off_c, 3, 61, 0
5, 791200, Note_off_c, 3, 64, 0
5, 791424, Note_on_c, 3, 61, 75
5, 791424, Note_on_c, 3, 64, 75
5, 791584, Note_off_c, 3, 61, 0
5, 791584, Note_off_c, 3, 64, 0
5, 791808, Note_on_c, 3, 62, 75
5, 791808, Note_on_c, 3, 66, 75
5, 791968, Note_off_c, 3, 62, 0
5, 791968, Note_off_c, 3, 66, 0
5, 792192, Note_on_c, 3, 52, 100
5, 792192, Note_on_c, 3, 40, 100
5, 792512, Note_off_c, 3, 52, 0
5, 792512, Note_off_c, 3, 40, 0
5, 792576, Note_on_c, 3, 57, 100
5, 792576, Note_on_c, 3, 45, 100
5, 793200, Note_off_c, 3, 57, 0
5, 793200, Note_off_c, 3, 45, 0
5, 793344, Note_on_c, 3, 57, 75
5, 793344, Note_on_c, 3, 61, 75
5, 793504, Note_off_c, 3, 57, 0
5, 793504, Note_off_c, 3, 61, 0
5, 793728, Note_on_c, 3, 59, 75
5, 793728, Note_on_c, 3, 62, 75
5, 793888, Note_off_c, 3, 59, 0
5, 793888, Note_off_c, 3, 62, 0
5, 794112, Note_on_c, 3, 61, 75
5, 794112, Note_on_c, 3, 64, 75
5, 794272, Note_off_c, 3, 61, 0
5, 794272, Note_off_c, 3, 64, 0
5, 794496, Note_on_c, 3, 61, 75
5, 794496, Note_on_c, 3, 64, 75
5, 794656, Note_off_c, 3, 61, 0
5, 794656, Note_off_c, 3, 64, 0
5, 794880, Note_on_c, 3, 62, 75
5, 794880, Note_on_c, 3, 66, 75
5, 795040, Note_off_c, 3, 62, 0
5, 795040, Note_off_c, 3, 66, 0
5, 795264, Note_on_c, 3, 52, 100
5, 795264, Note_on_c, 3, 40, 100
5, 795584, Note_off_c, 3, 52, 0
5, 795584, Note_off_c, 3, 40, 0
5, 795648, Note_on_c, 3, 57, 100
5, 795648, Note_on_c, 3, 45, 100
5, 796272, Note_off_c, 3, 57, 0
5, 796272, Note_off_c, 3, 45, 0
5, 796416, Note_on_c, 3, 57, 75
5, 796416, Note_on_c, 3, 61, 75
5, 796796, Note_off_c, 3, 57, 0
5, 796796, Note_off_c, 3, 61, 0
5, 796800, Note_on_c, 3, 59, 75
5, 796800, Note_on_c, 3, 62, 75
5, 796960, Note_off_c, 3, 59, 0
5, 796960, Note_off_c, 3, 62, 0
5, 797184, Note_on_c, 3, 61, 75
5, 797184, Note_on_c, 3, 64, 75
5, 797344, Note_off_c, 3, 61, 0
5, 797344, Note_off_c, 3, 64, 0
5, 797568, Note_on_c, 3, 61, 75
5, 797568, Note_on_c, 3, 64, 75
5, 797728, Note_off_c, 3, 61, 0
5, 797728, Note_off_c, 3, 64, 0
5, 797952, Note_on_c, 3, 62, 75
5, 797952, Note_on_c, 3, 66, 75
5, 798112, Note_off_c, 3, 62, 0
5, 798112, Note_off_c, 3, 66, 0
5, 798336, Note_on_c, 3, 64, 100
5, 798336, Note_on_c, 3, 52, 100
5, 798496, Note_off_c, 3, 64, 0
5, 798496, Note_off_c, 3, 52, 0
5, 798720, Note_on_c, 3, 64, 100
5, 798720, Note_on_c, 3, 61, 100
5, 798720, Note_on_c, 3, 57, 100
5, 798880, Note_off_c, 3, 64, 0
5, 798880, Note_off_c, 3, 61, 0
5, 798880, Note_off_c, 3, 57, 0
5, 799104, Note_on_c, 3, 64, 100
5, 799104, Note_on_c, 3, 59, 100
5, 799104, Note_on_c, 3, 56, 100
5, 799104, Note_on_c, 3, 52, 100
5, 799264, Note_off_c, 3, 64, 0
5, 799264, Note_off_c, 3, 59, 0
5, 799264, Note_off_c, 3, 56, 0
5, 799264, Note_off_c, 3, 52, 0
5, 799488, Note_on_c, 3, 64, 100
5, 799488, Note_on_c, 3, 61, 100
5, 799488, Note_on_c, 3, 57, 100
5, 799648, Note_off_c, 3, 64, 0
5, 799648, Note_off_c, 3, 61, 0
5, 799648, Note_off_c, 3, 57, 0
5, 799872, Note_on_c, 3, 64, 100
5, 799872, Note_on_c, 3, 59, 100
5, 799872, Note_on_c, 3, 56, 100
5, 799872, Note_on_c, 3, 52, 100
5, 800032, Note_off_c, 3, 64, 0
5, 800032, Note_off_c, 3, 59, 0
5, 800032, Note_off_c, 3, 56, 0
5, 800032, Note_off_c, 3, 52, 0
5, 800256, Note_on_c, 3, 64, 100
5, 800256, Note_on_c, 3, 61, 100
5, 800256, Note_on_c, 3, 57, 100
5, 800416, Note_off_c, 3, 64, 0
5, 800416, Note_off_c, 3, 61, 0
5, 800416, Note_off_c, 3, 57, 0
5, 800640, Note_on_c, 3, 64, 100
5, 800640, Note_on_c, 3, 56, 100
5, 800640, Note_on_c, 3, 52, 100
5, 800640, Note_on_c, 3, 59, 100
5, 800800, Note_off_c, 3, 64, 0
5, 800800, Note_off_c, 3, 56, 0
5, 800800, Note_off_c, 3, 52, 0
5, 800800, Note_off_c, 3, 59, 0
5, 801024, Note_on_c, 3, 64, 100
5, 801024, Note_on_c, 3, 61, 100
5, 801024, Note_on_c, 3, 57, 100
5, 801184, Note_off_c, 3, 64, 0
5, 801184, Note_off_c, 3, 61, 0
5, 801184, Note_off_c, 3, 57, 0
5, 801408, Note_on_c, 3, 64, 100
5, 801408, Note_on_c, 3, 59, 100
5, 801408, Note_on_c, 3, 56, 100
5, 801408, Note_on_c, 3, 52, 100
5, 801568, Note_off_c, 3, 64, 0
5, 801568, Note_off_c, 3, 59, 0
5, 801568, Note_off_c, 3, 56, 0
5, 801568, Note_off_c, 3, 52, 0
5, 801792, Note_on_c, 3, 64, 100
5, 801792, Note_on_c, 3, 61, 100
5, 801792, Note_on_c, 3, 57, 100
5, 801952, Note_off_c, 3, 64, 0
5, 801952, Note_off_c, 3, 61, 0
5, 801952, Note_off_c, 3, 57, 0
5, 802560, Note_on_c, 3, 64, 100
5, 802560, Note_on_c, 3, 61, 100
5, 802560, Note_on_c, 3, 57, 100
5, 802720, Note_off_c, 3, 64, 0
5, 802720, Note_off_c, 3, 61, 0
5, 802720, Note_off_c, 3, 57, 0
5, 803328, Note_on_c, 3, 45, 100
5, 803328, Note_on_c, 3, 33, 100
5, 803708, Note_off_c, 3, 45, 0
5, 803708, Note_off_c, 3, 33, 0
5, 804096, Note_on_c, 3, 45, 100
5, 804096, Note_on_c, 3, 33, 100
5, 804476, Note_off_c, 3, 45, 0
5, 804476, Note_off_c, 3, 33, 0
5, 804864, Note_on_c, 3, 45, 110
5, 804864, Note_on_c, 3, 33, 110
5, 805628, Note_off_c, 3, 45, 0
5, 805628, Note_off_c, 3, 33, 0
5, 805628, End_track
6, 0, Start_track
6, 0, Key_signature, 3, "major"
6, 0, End_track
7, 0, Start_track
7, 0, Key_signature, 3, "major"
7, 0, End_track
0, 0, End_of_file
