0, 0, Header, 1, 8, 384
1, 0, Start_track
1, 0, Time_signature, 3, 2, 96, 8
1, 0, Sequencer_specific, 3, 0, 0, 65
1, 0, Tempo, 476190
1, 65664, Tempo, 625000
1, 67968, Tempo, 517241
1, 69120, Tempo, 625000
1, 69888, Tempo, 517241
1, 73344, Tempo, 476190
1, 73536, Tempo, 789473
1, 74496, Tempo, 476190
1, 131328, Tempo, 625000
1, 132480, Tempo, 697674
1, 133632, Tempo, 517241
1, 147456, Tempo, 476190
1, 156672, Tempo, 517241
1, 163200, Tempo, 566037
1, 164736, Tempo, 517241
1, 166656, Tempo, 476190
1, 192384, Time_signature, 2, 2, 96, 8
1, 192384, Tempo, 447761
1, 241920, Tempo, 461538
1, 253824, Tempo, 447761
1, 266496, Tempo, 517241
1, 271296, Tempo, 638297
1, 272640, Tempo, 447761
1, 309120, Tempo, 476190
1, 310656, Time_signature, 3, 2, 96, 8
1, 310656, Tempo, 500000
1, 312960, Time_signature, 2, 2, 96, 8
1, 313728, Time_signature, 3, 2, 96, 8
1, 317184, Tempo, 517241
1, 318336, Tempo, 545454
1, 319104, Tempo, 476190
1, 384000, Tempo, 545454
1, 384384, Tempo, 638297
1, 385920, Tempo, 476190
1, 385920, End_track
2, 0, Start_track
2, 0, Title_t, "Mozart Violin Concerto "
2, 0, Control_c, 0, 0, 0
2, 0, Program_c, 0, 40
2, 0, Control_c, 0, 10, 63
2, 0, Control_c, 0, 91, 67
2, 0, Control_c, 0, 93, 33
2, 0, Key_signature, 3, "major"
2, 0, Control_c, 0, 121, 0
2, 12, Control_c, 0, 10, 63
2, 16, Control_c, 0, 91, 63
2, 20, Control_c, 0, 93, 35
2, 24, Program_c, 0, 40
2, 28, Control_c, 0, 1, 45
2, 768, Note_on_c, 0, 73, 60
2, 1056, Note_off_c, 0, 73, 64
2, 1056, Note_on_c, 0, 74, 60
2, 1144, Note_off_c, 0, 74, 64
2, 1152, Note_on_c, 0, 76, 60
2, 1536, Note_off_c, 0, 76, 64
2, 1536, Note_on_c, 0, 73, 60
2, 1912, Note_off_c, 0, 73, 64
2, 1920, Note_on_c, 0, 78, 60
2, 2108, Note_off_c, 0, 78, 64
2, 2304, Note_on_c, 0, 69, 60
2, 2688, Note_off_c, 0, 69, 64
2, 2688, Note_on_c, 0, 68, 60
2, 3064, Note_off_c, 0, 68, 64
2, 3072, Note_on_c, 0, 71, 60
2, 3360, Note_off_c, 0, 71, 64
2, 3360, Note_on_c, 0, 73, 60
2, 3448, Note_off_c, 0, 73, 64
2, 3456, Note_on_c, 0, 76, 70
2, 3508, Note_off_c, 0, 76, 64
2, 3516, Note_on_c, 0, 74, 60
2, 3832, Note_off_c, 0, 74, 64
2, 3840, Note_on_c, 0, 73, 60
2, 4032, Note_off_c, 0, 73, 64
2, 4032, Note_on_c, 0, 71, 60
2, 4216, Note_off_c, 0, 71, 64
2, 4224, Note_on_c, 0, 69, 60
2, 4416, Note_off_c, 0, 69, 64
2, 4416, Note_on_c, 0, 68, 60
2, 4600, Note_off_c, 0, 68, 64
2, 4608, Note_on_c, 0, 69, 60
2, 4896, Note_off_c, 0, 69, 64
2, 4896, Note_on_c, 0, 73, 60
2, 4984, Note_off_c, 0, 73, 64
2, 4992, Note_on_c, 0, 64, 61
2, 5372, Note_off_c, 0, 64, 64
2, 5376, Note_on_c, 0, 73, 64
2, 5664, Note_off_c, 0, 73, 64
2, 5664, Note_on_c, 0, 74, 67
2, 5752, Note_off_c, 0, 74, 64
2, 5760, Note_on_c, 0, 76, 70
2, 5852, Note_off_c, 0, 76, 64
2, 5952, Note_on_c, 0, 81, 73
2, 6136, Note_off_c, 0, 81, 64
2, 6144, Note_on_c, 0, 80, 76
2, 6328, Note_off_c, 0, 80, 64
2, 6336, Note_on_c, 0, 81, 80
2, 6520, Note_off_c, 0, 81, 64
2, 6720, Note_on_c, 0, 78, 60
2, 6812, Note_off_c, 0, 78, 64
2, 6912, Note_on_c, 0, 76, 60
2, 7004, Note_off_c, 0, 76, 64
2, 7104, Note_on_c, 0, 81, 60
2, 7288, Note_off_c, 0, 81, 64
2, 7296, Note_on_c, 0, 80, 60
2, 7480, Note_off_c, 0, 80, 64
2, 7488, Note_on_c, 0, 81, 60
2, 7672, Note_off_c, 0, 81, 64
2, 7872, Note_on_c, 0, 74, 60
2, 7964, Note_off_c, 0, 74, 64
2, 8064, Note_on_c, 0, 73, 60
2, 8248, Note_off_c, 0, 73, 64
2, 8256, Note_on_c, 0, 76, 60
2, 8440, Note_off_c, 0, 76, 64
2, 8448, Note_on_c, 0, 74, 60
2, 8632, Note_off_c, 0, 74, 64
2, 8640, Note_on_c, 0, 73, 60
2, 8824, Note_off_c, 0, 73, 64
2, 8832, Note_on_c, 0, 71, 60
2, 9016, Note_off_c, 0, 71, 64
2, 9024, Note_on_c, 0, 69, 60
2, 9208, Note_off_c, 0, 69, 64
2, 9216, Note_on_c, 0, 68, 60
2, 9400, Note_off_c, 0, 68, 64
2, 9408, Note_on_c, 0, 69, 60
2, 9592, Note_off_c, 0, 69, 64
2, 9600, Note_on_c, 0, 70, 60
2, 9784, Note_off_c, 0, 70, 64
2, 9792, Note_on_c, 0, 71, 60
2, 9976, Note_off_c, 0, 71, 64
2, 18432, Control_c, 0, 1, 45
2, 19008, Note_on_c, 0, 69, 84
2, 19104, Note_off_c, 0, 69, 64
2, 19104, Note_on_c, 0, 71, 84
2, 19200, Note_off_c, 0, 71, 64
2, 19200, Note_on_c, 0, 74, 84
2, 19296, Note_off_c, 0, 74, 64
2, 19296, Note_on_c, 0, 73, 84
2, 19376, Note_off_c, 0, 73, 64
2, 19392, Note_on_c, 0, 71, 84
2, 19488, Note_off_c, 0, 71, 64
2, 19488, Note_on_c, 0, 69, 84
2, 19584, Note_off_c, 0, 69, 64
2, 19584, Note_on_c, 0, 76, 84
2, 20064, Note_off_c, 0, 76, 64
2, 20064, Note_on_c, 0, 78, 84
2, 20160, Note_off_c, 0, 78, 64
2, 20160, Note_on_c, 0, 76, 84
2, 20256, Note_off_c, 0, 76, 64
2, 20256, Note_on_c, 0, 78, 84
2, 20352, Note_off_c, 0, 78, 64
2, 20352, Note_on_c, 0, 76, 84
2, 20448, Note_off_c, 0, 76, 64
2, 20448, Note_on_c, 0, 74, 84
2, 20544, Note_off_c, 0, 74, 64
2, 20544, Note_on_c, 0, 73, 84
2, 20640, Note_off_c, 0, 73, 64
2, 20640, Note_on_c, 0, 71, 84
2, 20736, Note_off_c, 0, 71, 64
2, 20736, Note_on_c, 0, 69, 84
2, 21116, Note_off_c, 0, 69, 64
2, 21312, Note_on_c, 0, 69, 62
2, 21356, Note_off_c, 0, 69, 64
2, 21408, Note_on_c, 0, 71, 62
2, 21452, Note_off_c, 0, 71, 64
2, 21504, Note_on_c, 0, 74, 62
2, 21600, Note_off_c, 0, 74, 64
2, 21600, Note_on_c, 0, 73, 62
2, 21680, Note_off_c, 0, 73, 64
2, 21696, Note_on_c, 0, 71, 62
2, 21740, Note_off_c, 0, 71, 64
2, 21792, Note_on_c, 0, 69, 62
2, 21836, Note_off_c, 0, 69, 64
2, 21888, Note_on_c, 0, 76, 62
2, 22352, Note_off_c, 0, 76, 64
2, 22368, Note_on_c, 0, 78, 62
2, 22412, Note_off_c, 0, 78, 64
2, 22464, Note_on_c, 0, 76, 62
2, 22508, Note_off_c, 0, 76, 64
2, 22560, Note_on_c, 0, 78, 62
2, 22604, Note_off_c, 0, 78, 64
2, 22656, Note_on_c, 0, 76, 62
2, 22700, Note_off_c, 0, 76, 64
2, 22752, Note_on_c, 0, 74, 62
2, 22796, Note_off_c, 0, 74, 64
2, 22848, Note_on_c, 0, 73, 62
2, 22892, Note_off_c, 0, 73, 64
2, 22944, Note_on_c, 0, 71, 62
2, 22988, Note_off_c, 0, 71, 64
2, 23040, Note_on_c, 0, 69, 61
2, 23420, Note_off_c, 0, 69, 64
2, 23424, Control_c, 0, 1, 45
2, 23808, Note_on_c, 0, 63, 66
2, 23864, Note_off_c, 0, 63, 64
2, 23868, Note_on_c, 0, 64, 56
2, 23964, Note_off_c, 0, 64, 64
2, 24192, Note_on_c, 0, 68, 66
2, 24248, Note_off_c, 0, 68, 64
2, 24252, Note_on_c, 0, 69, 56
2, 24348, Note_off_c, 0, 69, 64
2, 24576, Note_on_c, 0, 72, 66
2, 24632, Note_off_c, 0, 72, 64
2, 24636, Note_on_c, 0, 73, 56
2, 24732, Note_off_c, 0, 73, 64
2, 24960, Note_on_c, 0, 75, 66
2, 25016, Note_off_c, 0, 75, 64
2, 25020, Note_on_c, 0, 76, 56
2, 25116, Note_off_c, 0, 76, 64
2, 25344, Note_on_c, 0, 80, 66
2, 25400, Note_off_c, 0, 80, 64
2, 25404, Note_on_c, 0, 81, 56
2, 25500, Note_off_c, 0, 81, 64
2, 26112, Note_on_c, 0, 76, 62
2, 26204, Note_off_c, 0, 76, 64
2, 26208, Note_on_c, 0, 78, 62
2, 26300, Note_off_c, 0, 78, 64
2, 26304, Note_on_c, 0, 76, 62
2, 26396, Note_off_c, 0, 76, 64
2, 26400, Note_on_c, 0, 74, 62
2, 26492, Note_off_c, 0, 74, 64
2, 26496, Note_on_c, 0, 73, 62
2, 26880, Control_c, 0, 1, 45
2, 27072, Note_off_c, 0, 73, 64
2, 27072, Note_on_c, 0, 76, 62
2, 27256, Note_off_c, 0, 76, 64
2, 27264, Note_on_c, 0, 81, 52
2, 27456, Note_off_c, 0, 81, 64
2, 27456, Note_on_c, 0, 85, 62
2, 27628, Note_off_c, 0, 85, 64
2, 27648, Note_on_c, 0, 85, 73
2, 27704, Note_off_c, 0, 85, 64
2, 27708, Note_on_c, 0, 83, 63
2, 28028, Note_off_c, 0, 83, 64
2, 28032, Note_on_c, 0, 80, 62
2, 28216, Note_off_c, 0, 80, 64
2, 28224, Note_on_c, 0, 76, 62
2, 28408, Note_off_c, 0, 76, 64
2, 28416, Note_on_c, 0, 71, 62
2, 28508, Note_off_c, 0, 71, 64
2, 28512, Note_on_c, 0, 73, 62
2, 28604, Note_off_c, 0, 73, 64
2, 28608, Note_on_c, 0, 71, 62
2, 28700, Note_off_c, 0, 71, 64
2, 28704, Note_on_c, 0, 69, 62
2, 28796, Note_off_c, 0, 69, 64
2, 28800, Note_on_c, 0, 68, 62
2, 29376, Note_off_c, 0, 68, 64
2, 29376, Note_on_c, 0, 76, 62
2, 29560, Note_off_c, 0, 76, 64
2, 29568, Note_on_c, 0, 80, 62
2, 29760, Note_off_c, 0, 80, 64
2, 29760, Note_on_c, 0, 83, 63
2, 29944, Note_off_c, 0, 83, 64
2, 29952, Note_on_c, 0, 83, 72
2, 30008, Note_off_c, 0, 83, 64
2, 30012, Note_on_c, 0, 81, 62
2, 30328, Note_off_c, 0, 81, 64
2, 30336, Note_on_c, 0, 78, 62
2, 30520, Note_off_c, 0, 78, 64
2, 30528, Note_on_c, 0, 75, 62
2, 30712, Note_off_c, 0, 75, 64
2, 30720, Note_on_c, 0, 69, 62
2, 30812, Note_off_c, 0, 69, 64
2, 30816, Note_on_c, 0, 71, 62
2, 30908, Note_off_c, 0, 71, 64
2, 30912, Note_on_c, 0, 69, 62
2, 31004, Note_off_c, 0, 69, 64
2, 31008, Note_on_c, 0, 68, 62
2, 31100, Note_off_c, 0, 68, 64
2, 31104, Note_on_c, 0, 66, 65
2, 31488, Control_c, 0, 1, 45
2, 31680, Note_off_c, 0, 66, 64
2, 31680, Note_on_c, 0, 75, 70
2, 31864, Note_off_c, 0, 75, 64
2, 31872, Note_on_c, 0, 78, 75
2, 32064, Note_off_c, 0, 78, 64
2, 32064, Note_on_c, 0, 81, 82
2, 32248, Note_off_c, 0, 81, 64
2, 32256, Note_on_c, 0, 81, 84
2, 32448, Note_off_c, 0, 81, 64
2, 32448, Note_on_c, 0, 80, 84
2, 32632, Note_off_c, 0, 80, 64
2, 32640, Note_on_c, 0, 78, 84
2, 32832, Note_off_c, 0, 78, 64
2, 32832, Note_on_c, 0, 76, 84
2, 33016, Note_off_c, 0, 76, 64
2, 33024, Note_on_c, 0, 78, 84
2, 33216, Note_off_c, 0, 78, 64
2, 33216, Note_on_c, 0, 76, 84
2, 33400, Note_off_c, 0, 76, 64
2, 33408, Note_on_c, 0, 75, 84
2, 33600, Note_off_c, 0, 75, 64
2, 33600, Note_on_c, 0, 73, 84
2, 33784, Note_off_c, 0, 73, 64
2, 33792, Note_on_c, 0, 75, 81
2, 33984, Note_off_c, 0, 75, 64
2, 33984, Note_on_c, 0, 73, 77
2, 34168, Note_off_c, 0, 73, 64
2, 34176, Note_on_c, 0, 71, 73
2, 34368, Note_off_c, 0, 71, 64
2, 34368, Note_on_c, 0, 69, 69
2, 34552, Note_off_c, 0, 69, 64
2, 34560, Note_on_c, 0, 68, 65
2, 34944, Note_off_c, 0, 68, 64
2, 34944, Note_on_c, 0, 66, 61
2, 35320, Note_off_c, 0, 66, 64
2, 36096, Control_c, 0, 1, 45
2, 36480, Note_on_c, 0, 80, 84
2, 36672, Note_off_c, 0, 80, 64
2, 36672, Note_on_c, 0, 81, 84
2, 36856, Note_off_c, 0, 81, 64
2, 36864, Note_on_c, 0, 85, 94
2, 36920, Note_off_c, 0, 85, 64
2, 36924, Note_on_c, 0, 83, 84
2, 37048, Note_off_c, 0, 83, 64
2, 37056, Note_on_c, 0, 83, 84
2, 37100, Note_off_c, 0, 83, 64
2, 37152, Note_on_c, 0, 80, 84
2, 37196, Note_off_c, 0, 80, 64
2, 37248, Note_on_c, 0, 85, 94
2, 37824, Note_off_c, 0, 85, 64
2, 37824, Note_on_c, 0, 83, 84
2, 38008, Note_off_c, 0, 83, 64
2, 38016, Note_on_c, 0, 83, 96
2, 38072, Note_off_c, 0, 83, 64
2, 38076, Note_on_c, 0, 81, 86
2, 38200, Note_off_c, 0, 81, 64
2, 38208, Note_on_c, 0, 81, 86
2, 38252, Note_off_c, 0, 81, 64
2, 38304, Note_on_c, 0, 78, 84
2, 38348, Note_off_c, 0, 78, 64
2, 38400, Note_on_c, 0, 83, 97
2, 38976, Note_off_c, 0, 83, 64
2, 38976, Note_on_c, 0, 81, 87
2, 39160, Note_off_c, 0, 81, 64
2, 39168, Note_on_c, 0, 80, 85
2, 39260, Note_off_c, 0, 80, 64
2, 39360, Note_on_c, 0, 80, 85
2, 39404, Note_off_c, 0, 80, 64
2, 39456, Note_on_c, 0, 78, 80
2, 39500, Note_off_c, 0, 78, 64
2, 39552, Note_on_c, 0, 83, 96
2, 39608, Note_off_c, 0, 83, 64
2, 39612, Note_on_c, 0, 81, 86
2, 39736, Note_off_c, 0, 81, 64
2, 39744, Note_on_c, 0, 81, 86
2, 39788, Note_off_c, 0, 81, 64
2, 39840, Note_on_c, 0, 80, 85
2, 39884, Note_off_c, 0, 80, 64
2, 39936, Note_on_c, 0, 80, 94
2, 39992, Note_off_c, 0, 80, 64
2, 39996, Note_on_c, 0, 78, 84
2, 40120, Note_off_c, 0, 78, 64
2, 40128, Note_on_c, 0, 78, 84
2, 40172, Note_off_c, 0, 78, 64
2, 40224, Note_on_c, 0, 76, 84
2, 40268, Note_off_c, 0, 76, 64
2, 40320, Note_on_c, 0, 75, 84
2, 40416, Note_off_c, 0, 75, 64
2, 40416, Note_on_c, 0, 76, 84
2, 40496, Note_off_c, 0, 76, 64
2, 40512, Note_on_c, 0, 78, 84
2, 40556, Note_off_c, 0, 78, 64
2, 40608, Note_on_c, 0, 75, 84
2, 40652, Note_off_c, 0, 75, 64
2, 40704, Note_on_c, 0, 71, 84
2, 41084, Note_off_c, 0, 71, 64
2, 41088, Note_on_c, 0, 80, 62
2, 41184, Note_off_c, 0, 80, 64
2, 41184, Note_on_c, 0, 76, 62
2, 41264, Note_off_c, 0, 76, 64
2, 41280, Note_on_c, 0, 81, 62
2, 41376, Note_off_c, 0, 81, 64
2, 41376, Note_on_c, 0, 78, 62
2, 41456, Note_off_c, 0, 78, 64
2, 41472, Note_on_c, 0, 83, 64
2, 41560, Note_off_c, 0, 83, 64
2, 41568, Note_on_c, 0, 82, 63
2, 41656, Note_off_c, 0, 82, 64
2, 41664, Note_on_c, 0, 83, 64
2, 41752, Note_off_c, 0, 83, 64
2, 41760, Note_on_c, 0, 80, 63
2, 41848, Note_off_c, 0, 80, 64
2, 41856, Note_on_c, 0, 85, 64
2, 42424, Note_off_c, 0, 85, 64
2, 42432, Note_on_c, 0, 83, 63
2, 42616, Note_off_c, 0, 83, 64
2, 42624, Note_on_c, 0, 81, 62
2, 42716, Note_off_c, 0, 81, 64
2, 42720, Note_on_c, 0, 80, 62
2, 42812, Note_off_c, 0, 80, 64
2, 42816, Note_on_c, 0, 81, 62
2, 42908, Note_off_c, 0, 81, 64
2, 42912, Note_on_c, 0, 78, 62
2, 43004, Note_off_c, 0, 78, 64
2, 43008, Note_on_c, 0, 83, 63
2, 43584, Note_off_c, 0, 83, 64
2, 43584, Note_on_c, 0, 81, 62
2, 43768, Note_off_c, 0, 81, 64
2, 43776, Note_on_c, 0, 80, 62
2, 43872, Note_off_c, 0, 80, 64
2, 43872, Note_on_c, 0, 81, 62
2, 43952, Note_off_c, 0, 81, 64
2, 43968, Note_on_c, 0, 80, 62
2, 44012, Note_off_c, 0, 80, 64
2, 44064, Note_on_c, 0, 78, 62
2, 44108, Note_off_c, 0, 78, 64
2, 44160, Note_on_c, 0, 76, 62
2, 44256, Note_off_c, 0, 76, 64
2, 44256, Note_on_c, 0, 75, 62
2, 44336, Note_off_c, 0, 75, 64
2, 44352, Note_on_c, 0, 76, 62
2, 44396, Note_off_c, 0, 76, 64
2, 44448, Note_on_c, 0, 78, 62
2, 44492, Note_off_c, 0, 78, 64
2, 44544, Note_on_c, 0, 80, 62
2, 44640, Note_off_c, 0, 80, 64
2, 44640, Note_on_c, 0, 78, 62
2, 44720, Note_off_c, 0, 78, 64
2, 44736, Note_on_c, 0, 80, 62
2, 44780, Note_off_c, 0, 80, 64
2, 44832, Note_on_c, 0, 82, 62
2, 44876, Note_off_c, 0, 82, 64
2, 44928, Note_on_c, 0, 82, 62
2, 45312, Note_off_c, 0, 82, 64
2, 45312, Note_on_c, 0, 83, 62
2, 45688, Note_off_c, 0, 83, 64
2, 45696, Note_on_c, 0, 71, 84
2, 45788, Note_off_c, 0, 71, 64
2, 45888, Note_on_c, 0, 71, 84
2, 45980, Note_off_c, 0, 71, 64
2, 46080, Note_on_c, 0, 83, 87
2, 46176, Note_off_c, 0, 83, 64
2, 46176, Note_on_c, 0, 80, 86
2, 46272, Note_off_c, 0, 80, 64
2, 46272, Note_on_c, 0, 76, 85
2, 46368, Note_off_c, 0, 76, 64
2, 46368, Note_on_c, 0, 71, 84
2, 46464, Note_off_c, 0, 71, 64
2, 46464, Note_on_c, 0, 68, 84
2, 46560, Note_off_c, 0, 68, 64
2, 46560, Note_on_c, 0, 71, 84
2, 46656, Note_off_c, 0, 71, 64
2, 46656, Note_on_c, 0, 64, 84
2, 46752, Note_off_c, 0, 64, 64
2, 46752, Note_on_c, 0, 71, 84
2, 46848, Note_off_c, 0, 71, 64
2, 46848, Note_on_c, 0, 68, 84
2, 46944, Note_off_c, 0, 68, 64
2, 46944, Note_on_c, 0, 71, 84
2, 47040, Note_off_c, 0, 71, 64
2, 47040, Note_on_c, 0, 64, 84
2, 47136, Note_off_c, 0, 64, 64
2, 47136, Note_on_c, 0, 71, 84
2, 47232, Note_off_c, 0, 71, 64
2, 47232, Note_on_c, 0, 66, 84
2, 47328, Note_off_c, 0, 66, 64
2, 47328, Note_on_c, 0, 71, 84
2, 47424, Note_off_c, 0, 71, 64
2, 47424, Note_on_c, 0, 75, 84
2, 47520, Note_off_c, 0, 75, 64
2, 47520, Note_on_c, 0, 78, 84
2, 47616, Note_off_c, 0, 78, 64
2, 47616, Note_on_c, 0, 81, 94
2, 47712, Note_off_c, 0, 81, 64
2, 47712, Note_on_c, 0, 80, 85
2, 47792, Note_off_c, 0, 80, 64
2, 47808, Note_on_c, 0, 78, 84
2, 47904, Note_off_c, 0, 78, 64
2, 47904, Note_on_c, 0, 76, 84
2, 48000, Note_off_c, 0, 76, 64
2, 48000, Note_on_c, 0, 75, 94
2, 48096, Note_off_c, 0, 75, 64
2, 48096, Note_on_c, 0, 73, 84
2, 48176, Note_off_c, 0, 73, 64
2, 48192, Note_on_c, 0, 71, 84
2, 48288, Note_off_c, 0, 71, 64
2, 48288, Note_on_c, 0, 69, 84
2, 48384, Note_off_c, 0, 69, 64
2, 48384, Note_on_c, 0, 83, 65
2, 48428, Note_off_c, 0, 83, 64
2, 48480, Note_on_c, 0, 80, 63
2, 48524, Note_off_c, 0, 80, 64
2, 48576, Note_on_c, 0, 76, 62
2, 48620, Note_off_c, 0, 76, 64
2, 48672, Note_on_c, 0, 71, 62
2, 48716, Note_off_c, 0, 71, 64
2, 48768, Note_on_c, 0, 68, 62
2, 48812, Note_off_c, 0, 68, 64
2, 48864, Note_on_c, 0, 71, 62
2, 48908, Note_off_c, 0, 71, 64
2, 48960, Note_on_c, 0, 64, 62
2, 49004, Note_off_c, 0, 64, 64
2, 49056, Note_on_c, 0, 71, 62
2, 49100, Note_off_c, 0, 71, 64
2, 49152, Note_on_c, 0, 68, 62
2, 49196, Note_off_c, 0, 68, 64
2, 49248, Note_on_c, 0, 71, 62
2, 49292, Note_off_c, 0, 71, 64
2, 49344, Note_on_c, 0, 64, 62
2, 49388, Note_off_c, 0, 64, 64
2, 49440, Note_on_c, 0, 71, 62
2, 49484, Note_off_c, 0, 71, 64
2, 49536, Note_on_c, 0, 66, 62
2, 49632, Note_off_c, 0, 66, 64
2, 49632, Note_on_c, 0, 71, 62
2, 49712, Note_off_c, 0, 71, 64
2, 49728, Note_on_c, 0, 75, 62
2, 49772, Note_off_c, 0, 75, 64
2, 49824, Note_on_c, 0, 78, 63
2, 49868, Note_off_c, 0, 78, 64
2, 49920, Note_on_c, 0, 81, 64
2, 50016, Note_off_c, 0, 81, 64
2, 50016, Note_on_c, 0, 80, 63
2, 50096, Note_off_c, 0, 80, 64
2, 50112, Note_on_c, 0, 78, 62
2, 50156, Note_off_c, 0, 78, 64
2, 50192, Note_on_c, 0, 76, 62
2, 50236, Note_off_c, 0, 76, 64
2, 50304, Note_on_c, 0, 75, 62
2, 50400, Note_off_c, 0, 75, 64
2, 50400, Note_on_c, 0, 73, 62
2, 50480, Note_off_c, 0, 73, 64
2, 50496, Note_on_c, 0, 71, 62
2, 50540, Note_off_c, 0, 71, 64
2, 50592, Note_on_c, 0, 69, 62
2, 50636, Note_off_c, 0, 69, 64
2, 50688, Note_on_c, 0, 68, 81
2, 50728, Note_off_c, 0, 68, 64
2, 50736, Note_on_c, 0, 71, 79
2, 50776, Note_off_c, 0, 71, 64
2, 50784, Note_on_c, 0, 76, 69
2, 51064, Note_off_c, 0, 76, 64
2, 51072, Note_on_c, 0, 78, 74
2, 51452, Note_off_c, 0, 78, 64
2, 51456, Note_on_c, 0, 80, 79
2, 51836, Note_off_c, 0, 80, 64
2, 51840, Note_on_c, 0, 81, 84
2, 52124, Note_off_c, 0, 81, 64
2, 52128, Note_on_c, 0, 83, 75
2, 52172, Note_off_c, 0, 83, 64
2, 52176, Note_on_c, 0, 85, 74
2, 52220, Note_off_c, 0, 85, 64
2, 52224, Note_on_c, 0, 83, 73
2, 52316, Note_off_c, 0, 83, 64
2, 52416, Note_on_c, 0, 81, 67
2, 52508, Note_off_c, 0, 81, 64
2, 52608, Note_on_c, 0, 80, 61
2, 52796, Note_off_c, 0, 80, 64
2, 52992, Note_on_c, 0, 80, 71
2, 53048, Note_off_c, 0, 80, 64
2, 53052, Note_on_c, 0, 78, 62
2, 53368, Note_off_c, 0, 78, 64
2, 53376, Note_on_c, 0, 76, 62
2, 53760, Note_off_c, 0, 76, 64
2, 53760, Note_on_c, 0, 75, 62
2, 54136, Note_off_c, 0, 75, 64
2, 54144, Note_on_c, 0, 76, 62
2, 54236, Note_off_c, 0, 76, 64
2, 54240, Note_on_c, 0, 78, 62
2, 54332, Note_off_c, 0, 78, 64
2, 54336, Note_on_c, 0, 80, 63
2, 54428, Note_off_c, 0, 80, 64
2, 54432, Note_on_c, 0, 76, 62
2, 54524, Note_off_c, 0, 76, 64
2, 54528, Note_on_c, 0, 78, 62
2, 54620, Note_off_c, 0, 78, 64
2, 54624, Note_on_c, 0, 80, 63
2, 54716, Note_off_c, 0, 80, 64
2, 54720, Note_on_c, 0, 81, 65
2, 54812, Note_off_c, 0, 81, 64
2, 54816, Note_on_c, 0, 78, 68
2, 54908, Note_off_c, 0, 78, 64
2, 54912, Note_on_c, 0, 80, 65
2, 55004, Note_off_c, 0, 80, 64
2, 55008, Note_on_c, 0, 81, 67
2, 55100, Note_off_c, 0, 81, 64
2, 55104, Note_on_c, 0, 83, 70
2, 55196, Note_off_c, 0, 83, 64
2, 55200, Note_on_c, 0, 80, 69
2, 55292, Note_off_c, 0, 80, 64
2, 55296, Note_on_c, 0, 81, 72
2, 55388, Note_off_c, 0, 81, 64
2, 55392, Note_on_c, 0, 83, 73
2, 55484, Note_off_c, 0, 83, 64
2, 55488, Note_on_c, 0, 85, 74
2, 55580, Note_off_c, 0, 85, 64
2, 55584, Note_on_c, 0, 83, 73
2, 55676, Note_off_c, 0, 83, 64
2, 55680, Note_on_c, 0, 85, 74
2, 55772, Note_off_c, 0, 85, 64
2, 55776, Note_on_c, 0, 83, 73
2, 55868, Note_off_c, 0, 83, 64
2, 55872, Note_on_c, 0, 85, 74
2, 55964, Note_off_c, 0, 85, 64
2, 55968, Note_on_c, 0, 81, 72
2, 56060, Note_off_c, 0, 81, 64
2, 56064, Note_on_c, 0, 80, 71
2, 56252, Note_off_c, 0, 80, 64
2, 56448, Note_on_c, 0, 81, 56
2, 56540, Note_off_c, 0, 81, 64
2, 56544, Note_on_c, 0, 83, 57
2, 56636, Note_off_c, 0, 83, 64
2, 56656, Note_on_c, 0, 85, 58
2, 56736, Note_on_c, 0, 83, 57
2, 56748, Note_off_c, 0, 85, 64
2, 56828, Note_off_c, 0, 83, 64
2, 56832, Note_on_c, 0, 85, 58
2, 56924, Note_off_c, 0, 85, 64
2, 56928, Note_on_c, 0, 83, 57
2, 57020, Note_off_c, 0, 83, 64
2, 57024, Note_on_c, 0, 85, 58
2, 57116, Note_off_c, 0, 85, 64
2, 57120, Note_on_c, 0, 81, 56
2, 57212, Note_off_c, 0, 81, 64
2, 57216, Note_on_c, 0, 80, 55
2, 57404, Note_off_c, 0, 80, 64
2, 57600, Note_on_c, 0, 80, 85
2, 57696, Note_off_c, 0, 80, 64
2, 57696, Note_on_c, 0, 78, 84
2, 57776, Note_off_c, 0, 78, 64
2, 57792, Note_on_c, 0, 81, 86
2, 57888, Note_off_c, 0, 81, 64
2, 57888, Note_on_c, 0, 78, 84
2, 57984, Note_off_c, 0, 78, 64
2, 57984, Note_on_c, 0, 76, 84
2, 58364, Note_off_c, 0, 76, 64
2, 58368, Note_on_c, 0, 75, 84
2, 58412, Note_off_c, 0, 75, 64
2, 58416, Note_on_c, 0, 76, 84
2, 58460, Note_off_c, 0, 76, 64
2, 58464, Note_on_c, 0, 75, 84
2, 58508, Note_off_c, 0, 75, 64
2, 58512, Note_on_c, 0, 76, 84
2, 58556, Note_off_c, 0, 76, 64
2, 58560, Note_on_c, 0, 75, 84
2, 58604, Note_off_c, 0, 75, 64
2, 58608, Note_on_c, 0, 76, 84
2, 58652, Note_off_c, 0, 76, 64
2, 58656, Note_on_c, 0, 73, 84
2, 58700, Note_off_c, 0, 73, 64
2, 58704, Note_on_c, 0, 75, 84
2, 58748, Note_off_c, 0, 75, 64
2, 58752, Note_on_c, 0, 76, 74
2, 59136, Control_c, 0, 1, 45
2, 59328, Note_off_c, 0, 76, 64
2, 59328, Note_on_c, 0, 80, 61
2, 59512, Note_off_c, 0, 80, 64
2, 59520, Note_on_c, 0, 83, 63
2, 59804, Note_off_c, 0, 83, 64
2, 59808, Note_on_c, 0, 80, 61
2, 59900, Note_off_c, 0, 80, 64
2, 59904, Note_on_c, 0, 85, 64
2, 60288, Note_off_c, 0, 85, 64
2, 60672, Note_on_c, 0, 81, 62
2, 60956, Note_off_c, 0, 81, 64
2, 60960, Note_on_c, 0, 78, 60
2, 61052, Note_off_c, 0, 78, 64
2, 61056, Note_on_c, 0, 81, 62
2, 61440, Note_off_c, 0, 81, 64
2, 61824, Note_on_c, 0, 78, 62
2, 62104, Note_off_c, 0, 78, 64
2, 62112, Note_on_c, 0, 75, 62
2, 62200, Note_off_c, 0, 75, 64
2, 62208, Note_on_c, 0, 76, 70
2, 62784, Note_off_c, 0, 76, 64
2, 62784, Note_on_c, 0, 80, 80
2, 62968, Note_off_c, 0, 80, 64
2, 62976, Note_on_c, 0, 83, 87
2, 63068, Note_off_c, 0, 83, 64
2, 63072, Note_on_c, 0, 80, 85
2, 63164, Note_off_c, 0, 80, 64
2, 63168, Note_on_c, 0, 83, 87
2, 63260, Note_off_c, 0, 83, 64
2, 63264, Note_on_c, 0, 80, 85
2, 63356, Note_off_c, 0, 80, 64
2, 63360, Note_on_c, 0, 85, 88
2, 64124, Note_off_c, 0, 85, 64
2, 64128, Note_on_c, 0, 81, 86
2, 64220, Note_off_c, 0, 81, 64
2, 64224, Note_on_c, 0, 78, 84
2, 64316, Note_off_c, 0, 78, 64
2, 64320, Note_on_c, 0, 81, 86
2, 64412, Note_off_c, 0, 81, 64
2, 64416, Note_on_c, 0, 78, 84
2, 64508, Note_off_c, 0, 78, 64
2, 64512, Note_on_c, 0, 81, 86
2, 65276, Note_off_c, 0, 81, 64
2, 65280, Note_on_c, 0, 78, 84
2, 65372, Note_off_c, 0, 78, 64
2, 65376, Note_on_c, 0, 75, 84
2, 65468, Note_off_c, 0, 75, 64
2, 65472, Note_on_c, 0, 78, 84
2, 65564, Note_off_c, 0, 78, 64
2, 65568, Note_on_c, 0, 75, 84
2, 65660, Note_off_c, 0, 75, 64
2, 65664, Note_on_c, 0, 78, 94
2, 65720, Note_off_c, 0, 78, 64
2, 65724, Note_on_c, 0, 76, 84
2, 66040, Note_off_c, 0, 76, 64
2, 66048, Note_on_c, 0, 76, 77
2, 66428, Note_off_c, 0, 76, 64
2, 66432, Note_on_c, 0, 76, 70
2, 66804, Control_c, 0, 64, 127
2, 66808, Control_c, 0, 1, 46
2, 66812, Note_off_c, 0, 76, 64
2, 66816, Note_on_c, 0, 76, 68
2, 67968, Note_on_c, 0, 76, 73
2, 68024, Note_off_c, 0, 76, 64
2, 68024, Note_off_c, 0, 76, 64
2, 68024, Control_c, 0, 64, 0
2, 68028, Control_c, 0, 1, 45
2, 68032, Note_on_c, 0, 74, 72
2, 68088, Note_off_c, 0, 74, 64
2, 68096, Note_on_c, 0, 71, 71
2, 68152, Note_off_c, 0, 71, 64
2, 68160, Note_on_c, 0, 68, 70
2, 68216, Note_off_c, 0, 68, 64
2, 68224, Note_on_c, 0, 64, 69
2, 68280, Note_off_c, 0, 64, 64
2, 68288, Note_on_c, 0, 59, 68
2, 68344, Note_off_c, 0, 59, 64
2, 68352, Note_on_c, 0, 80, 74
2, 68408, Note_off_c, 0, 80, 64
2, 68416, Note_on_c, 0, 76, 73
2, 68472, Note_off_c, 0, 76, 64
2, 68480, Note_on_c, 0, 74, 72
2, 68536, Note_off_c, 0, 74, 64
2, 68544, Note_on_c, 0, 71, 71
2, 68600, Note_off_c, 0, 71, 64
2, 68608, Note_on_c, 0, 68, 70
2, 68664, Note_off_c, 0, 68, 64
2, 68672, Note_on_c, 0, 64, 69
2, 68728, Note_off_c, 0, 64, 64
2, 68736, Note_on_c, 0, 83, 76
2, 68792, Note_off_c, 0, 83, 64
2, 68800, Note_on_c, 0, 80, 75
2, 68856, Note_off_c, 0, 80, 64
2, 68864, Note_on_c, 0, 76, 74
2, 68920, Note_off_c, 0, 76, 64
2, 68928, Note_on_c, 0, 74, 73
2, 68984, Note_off_c, 0, 74, 64
2, 68992, Note_on_c, 0, 71, 72
2, 69048, Note_off_c, 0, 71, 64
2, 69056, Note_on_c, 0, 68, 71
2, 69112, Note_off_c, 0, 68, 64
2, 69120, Note_on_c, 0, 86, 73
2, 69884, Note_off_c, 0, 86, 64
2, 69888, Note_on_c, 0, 64, 62
2, 69888, Note_on_c, 0, 56, 65
2, 70176, Note_off_c, 0, 64, 64
2, 70176, Note_off_c, 0, 56, 64
2, 70176, Note_on_c, 0, 66, 60
2, 70176, Note_on_c, 0, 57, 64
2, 70268, Note_off_c, 0, 66, 64
2, 70268, Note_off_c, 0, 57, 64
2, 70272, Note_on_c, 0, 69, 62
2, 70272, Note_on_c, 0, 61, 62
2, 70656, Note_off_c, 0, 69, 64
2, 70656, Note_off_c, 0, 61, 64
2, 70656, Note_on_c, 0, 68, 62
2, 70656, Note_on_c, 0, 59, 63
2, 71032, Note_off_c, 0, 68, 64
2, 71032, Note_off_c, 0, 59, 64
2, 71040, Note_on_c, 0, 68, 62
2, 71040, Note_on_c, 0, 71, 62
2, 71328, Note_off_c, 0, 68, 64
2, 71328, Note_off_c, 0, 71, 64
2, 71328, Note_on_c, 0, 73, 62
2, 71328, Note_on_c, 0, 69, 62
2, 71420, Note_off_c, 0, 73, 64
2, 71420, Note_off_c, 0, 69, 64
2, 71424, Note_on_c, 0, 76, 62
2, 71424, Note_on_c, 0, 73, 62
2, 71808, Note_off_c, 0, 76, 64
2, 71808, Note_off_c, 0, 73, 64
2, 71808, Note_on_c, 0, 74, 62
2, 71808, Note_on_c, 0, 71, 62
2, 72184, Note_off_c, 0, 74, 64
2, 72184, Note_off_c, 0, 71, 64
2, 72192, Note_on_c, 0, 74, 78
2, 72212, Note_off_c, 0, 74, 64
2, 72216, Note_on_c, 0, 76, 76
2, 72236, Note_off_c, 0, 76, 64
2, 72240, Note_on_c, 0, 74, 66
2, 72284, Note_off_c, 0, 74, 64
2, 72288, Note_on_c, 0, 73, 71
2, 72380, Note_off_c, 0, 73, 64
2, 72384, Note_on_c, 0, 74, 76
2, 72476, Note_off_c, 0, 74, 64
2, 72480, Note_on_c, 0, 83, 81
2, 72572, Note_off_c, 0, 83, 64
2, 72576, Note_on_c, 0, 81, 84
2, 72576, Note_on_c, 0, 74, 84
2, 72576, Note_on_c, 0, 65, 84
2, 72960, Control_c, 0, 1, 45
2, 73628, Note_off_c, 0, 81, 64
2, 73628, Note_off_c, 0, 74, 64
2, 73628, Note_off_c, 0, 65, 64
2, 73632, Note_on_c, 0, 64, 88
2, 73676, Note_off_c, 0, 64, 64
2, 73680, Note_on_c, 0, 74, 86
2, 73724, Note_off_c, 0, 74, 64
2, 73728, Note_on_c, 0, 80, 85
2, 73916, Note_off_c, 0, 80, 64
2, 73920, Note_on_c, 0, 78, 82
2, 74108, Note_off_c, 0, 78, 64
2, 74112, Note_on_c, 0, 76, 72
2, 74300, Note_off_c, 0, 76, 64
2, 74304, Note_on_c, 0, 74, 69
2, 74492, Note_off_c, 0, 74, 64
2, 74496, Note_on_c, 0, 73, 66
2, 74784, Note_off_c, 0, 73, 64
2, 74784, Note_on_c, 0, 74, 63
2, 74872, Note_off_c, 0, 74, 64
2, 74880, Note_on_c, 0, 76, 62
2, 75264, Note_off_c, 0, 76, 64
2, 75264, Note_on_c, 0, 73, 62
2, 75640, Note_off_c, 0, 73, 64
2, 75648, Note_on_c, 0, 78, 62
2, 75836, Note_off_c, 0, 78, 64
2, 76032, Note_on_c, 0, 69, 62
2, 76416, Note_off_c, 0, 69, 64
2, 76416, Note_on_c, 0, 68, 62
2, 76792, Note_off_c, 0, 68, 64
2, 76800, Note_on_c, 0, 71, 62
2, 77088, Note_off_c, 0, 71, 64
2, 77088, Note_on_c, 0, 73, 62
2, 77176, Note_off_c, 0, 73, 64
2, 77184, Note_on_c, 0, 76, 72
2, 77240, Note_off_c, 0, 76, 64
2, 77244, Note_on_c, 0, 74, 62
2, 77560, Note_off_c, 0, 74, 64
2, 77568, Note_on_c, 0, 73, 62
2, 77760, Note_off_c, 0, 73, 64
2, 77760, Note_on_c, 0, 71, 62
2, 77944, Note_off_c, 0, 71, 64
2, 77952, Note_on_c, 0, 69, 62
2, 78144, Note_off_c, 0, 69, 64
2, 78144, Note_on_c, 0, 68, 62
2, 78328, Note_off_c, 0, 68, 64
2, 78336, Note_on_c, 0, 69, 62
2, 78624, Note_off_c, 0, 69, 64
2, 78624, Note_on_c, 0, 73, 62
2, 78712, Note_off_c, 0, 73, 64
2, 78720, Note_on_c, 0, 64, 62
2, 79100, Note_off_c, 0, 64, 64
2, 79104, Note_on_c, 0, 73, 62
2, 79392, Note_off_c, 0, 73, 64
2, 79392, Note_on_c, 0, 74, 64
2, 79480, Note_off_c, 0, 74, 64
2, 79488, Note_on_c, 0, 76, 66
2, 79580, Note_off_c, 0, 76, 64
2, 79680, Note_on_c, 0, 81, 68
2, 79868, Note_off_c, 0, 81, 64
2, 79872, Note_on_c, 0, 80, 70
2, 80060, Note_off_c, 0, 80, 64
2, 80064, Note_on_c, 0, 81, 72
2, 80252, Note_off_c, 0, 81, 64
2, 80448, Note_on_c, 0, 78, 62
2, 80540, Note_off_c, 0, 78, 64
2, 80640, Note_on_c, 0, 76, 62
2, 80732, Note_off_c, 0, 76, 64
2, 80832, Note_on_c, 0, 81, 62
2, 81020, Note_off_c, 0, 81, 64
2, 81024, Note_on_c, 0, 80, 62
2, 81212, Note_off_c, 0, 80, 64
2, 81216, Note_on_c, 0, 81, 62
2, 81404, Note_off_c, 0, 81, 64
2, 81600, Note_on_c, 0, 74, 62
2, 81692, Note_off_c, 0, 74, 64
2, 81792, Note_on_c, 0, 73, 62
2, 81980, Note_off_c, 0, 73, 64
2, 81984, Note_on_c, 0, 76, 62
2, 82172, Note_off_c, 0, 76, 64
2, 82176, Note_on_c, 0, 74, 62
2, 82364, Note_off_c, 0, 74, 64
2, 82368, Note_on_c, 0, 73, 62
2, 82556, Note_off_c, 0, 73, 64
2, 82560, Note_on_c, 0, 71, 62
2, 82748, Note_off_c, 0, 71, 64
2, 82752, Note_on_c, 0, 69, 62
2, 82940, Note_off_c, 0, 69, 64
2, 82944, Note_on_c, 0, 68, 62
2, 83132, Note_off_c, 0, 68, 64
2, 83136, Note_on_c, 0, 69, 62
2, 83324, Note_off_c, 0, 69, 64
2, 83328, Note_on_c, 0, 70, 62
2, 83516, Note_off_c, 0, 70, 64
2, 83520, Note_on_c, 0, 71, 62
2, 83708, Note_off_c, 0, 71, 64
2, 92160, Control_c, 0, 1, 45
2, 92736, Note_on_c, 0, 69, 84
2, 92832, Note_off_c, 0, 69, 64
2, 92832, Note_on_c, 0, 71, 84
2, 92928, Note_off_c, 0, 71, 64
2, 92928, Note_on_c, 0, 74, 84
2, 93024, Note_off_c, 0, 74, 64
2, 93024, Note_on_c, 0, 73, 84
2, 93104, Note_off_c, 0, 73, 64
2, 93120, Note_on_c, 0, 71, 84
2, 93216, Note_off_c, 0, 71, 64
2, 93216, Note_on_c, 0, 69, 84
2, 93312, Note_off_c, 0, 69, 64
2, 93312, Note_on_c, 0, 76, 84
2, 93792, Note_off_c, 0, 76, 64
2, 93792, Note_on_c, 0, 78, 84
2, 93888, Note_off_c, 0, 78, 64
2, 93888, Note_on_c, 0, 76, 84
2, 93984, Note_off_c, 0, 76, 64
2, 93984, Note_on_c, 0, 78, 84
2, 94080, Note_off_c, 0, 78, 64
2, 94080, Note_on_c, 0, 76, 84
2, 94176, Note_off_c, 0, 76, 64
2, 94176, Note_on_c, 0, 74, 84
2, 94272, Note_off_c, 0, 74, 64
2, 94272, Note_on_c, 0, 73, 84
2, 94368, Note_off_c, 0, 73, 64
2, 94368, Note_on_c, 0, 71, 84
2, 94460, Note_off_c, 0, 71, 64
2, 94464, Note_on_c, 0, 69, 84
2, 94848, Note_off_c, 0, 69, 64
2, 96768, Note_on_c, 0, 66, 84
2, 97536, Note_off_c, 0, 66, 64
2, 97536, Note_on_c, 0, 61, 84
2, 97912, Note_off_c, 0, 61, 64
2, 97920, Note_on_c, 0, 69, 84
2, 98688, Note_off_c, 0, 69, 64
2, 98688, Note_on_c, 0, 68, 84
2, 98876, Note_off_c, 0, 68, 64
2, 98880, Note_on_c, 0, 66, 84
2, 99068, Note_off_c, 0, 66, 64
2, 99072, Note_on_c, 0, 65, 94
2, 99168, Note_off_c, 0, 65, 64
2, 99168, Note_on_c, 0, 66, 84
2, 99248, Note_off_c, 0, 66, 64
2, 99264, Note_on_c, 0, 68, 84
2, 99360, Note_off_c, 0, 68, 64
2, 99360, Note_on_c, 0, 66, 84
2, 99452, Note_off_c, 0, 66, 64
2, 99456, Note_on_c, 0, 65, 94
2, 99552, Note_off_c, 0, 65, 64
2, 99552, Note_on_c, 0, 66, 84
2, 99632, Note_off_c, 0, 66, 64
2, 99648, Note_on_c, 0, 68, 84
2, 99744, Note_off_c, 0, 68, 64
2, 99744, Note_on_c, 0, 66, 84
2, 99836, Note_off_c, 0, 66, 64
2, 99840, Note_on_c, 0, 65, 94
2, 99936, Note_off_c, 0, 65, 64
2, 99936, Note_on_c, 0, 66, 84
2, 100016, Note_off_c, 0, 66, 64
2, 100032, Note_on_c, 0, 68, 84
2, 100128, Note_off_c, 0, 68, 64
2, 100128, Note_on_c, 0, 65, 84
2, 100220, Note_off_c, 0, 65, 64
2, 100224, Note_on_c, 0, 66, 84
2, 100608, Note_off_c, 0, 66, 64
2, 100800, Note_on_c, 0, 85, 64
2, 100892, Note_off_c, 0, 85, 64
2, 100992, Note_on_c, 0, 85, 64
2, 101084, Note_off_c, 0, 85, 64
2, 101184, Note_on_c, 0, 85, 64
2, 101276, Note_off_c, 0, 85, 64
2, 101376, Note_on_c, 0, 85, 64
2, 101664, Note_off_c, 0, 85, 64
2, 101664, Note_on_c, 0, 86, 65
2, 101752, Note_off_c, 0, 86, 64
2, 101760, Note_on_c, 0, 85, 64
2, 101852, Note_off_c, 0, 85, 64
2, 101952, Note_on_c, 0, 85, 64
2, 102044, Note_off_c, 0, 85, 64
2, 102144, Note_on_c, 0, 85, 64
2, 102236, Note_off_c, 0, 85, 64
2, 102336, Note_on_c, 0, 85, 64
2, 102428, Note_off_c, 0, 85, 64
2, 102528, Note_on_c, 0, 85, 64
2, 102904, Note_off_c, 0, 85, 64
2, 102912, Note_on_c, 0, 78, 60
2, 103288, Note_off_c, 0, 78, 64
2, 103488, Note_on_c, 0, 81, 62
2, 103672, Note_off_c, 0, 81, 64
2, 103680, Note_on_c, 0, 80, 62
2, 104064, Note_off_c, 0, 80, 64
2, 104064, Note_on_c, 0, 83, 62
2, 104440, Note_off_c, 0, 83, 64
2, 104640, Note_on_c, 0, 77, 62
2, 104828, Note_off_c, 0, 77, 64
2, 104832, Note_on_c, 0, 78, 62
2, 105216, Note_off_c, 0, 78, 64
2, 105408, Note_on_c, 0, 66, 62
2, 105452, Note_off_c, 0, 66, 64
2, 105504, Note_on_c, 0, 68, 62
2, 105548, Note_off_c, 0, 68, 64
2, 105600, Note_on_c, 0, 71, 62
2, 105696, Note_off_c, 0, 71, 64
2, 105696, Note_on_c, 0, 69, 62
2, 105776, Note_off_c, 0, 69, 64
2, 105792, Note_on_c, 0, 68, 62
2, 105836, Note_off_c, 0, 68, 64
2, 105888, Note_on_c, 0, 66, 62
2, 105932, Note_off_c, 0, 66, 64
2, 105984, Note_on_c, 0, 73, 63
2, 106460, Note_off_c, 0, 73, 64
2, 106464, Note_on_c, 0, 74, 62
2, 106508, Note_off_c, 0, 74, 64
2, 106560, Note_on_c, 0, 73, 62
2, 106604, Note_off_c, 0, 73, 64
2, 106656, Note_on_c, 0, 74, 62
2, 106700, Note_off_c, 0, 74, 64
2, 106752, Note_on_c, 0, 73, 62
2, 106796, Note_off_c, 0, 73, 64
2, 106848, Note_on_c, 0, 71, 62
2, 106892, Note_off_c, 0, 71, 64
2, 106944, Note_on_c, 0, 69, 62
2, 106988, Note_off_c, 0, 69, 64
2, 107040, Note_on_c, 0, 68, 62
2, 107084, Note_off_c, 0, 68, 64
2, 107136, Note_on_c, 0, 66, 62
2, 107516, Note_off_c, 0, 66, 64
2, 109440, Note_on_c, 0, 62, 86
2, 110208, Note_off_c, 0, 62, 64
2, 110208, Note_on_c, 0, 57, 88
2, 110584, Note_off_c, 0, 57, 64
2, 110592, Note_on_c, 0, 66, 84
2, 111360, Note_off_c, 0, 66, 64
2, 111360, Note_on_c, 0, 64, 85
2, 111548, Note_off_c, 0, 64, 64
2, 111552, Note_on_c, 0, 62, 86
2, 111740, Note_off_c, 0, 62, 64
2, 111744, Note_on_c, 0, 61, 92
2, 111840, Note_off_c, 0, 61, 64
2, 111840, Note_on_c, 0, 62, 85
2, 111920, Note_off_c, 0, 62, 64
2, 111936, Note_on_c, 0, 64, 84
2, 112032, Note_off_c, 0, 64, 64
2, 112032, Note_on_c, 0, 62, 85
2, 112124, Note_off_c, 0, 62, 64
2, 112128, Note_on_c, 0, 61, 92
2, 112224, Note_off_c, 0, 61, 64
2, 112224, Note_on_c, 0, 62, 85
2, 112304, Note_off_c, 0, 62, 64
2, 112320, Note_on_c, 0, 64, 84
2, 112416, Note_off_c, 0, 64, 64
2, 112416, Note_on_c, 0, 62, 85
2, 112508, Note_off_c, 0, 62, 64
2, 112512, Note_on_c, 0, 61, 92
2, 112608, Note_off_c, 0, 61, 64
2, 112608, Note_on_c, 0, 62, 86
2, 112688, Note_off_c, 0, 62, 64
2, 112704, Note_on_c, 0, 64, 85
2, 112800, Note_off_c, 0, 64, 64
2, 112800, Note_on_c, 0, 61, 86
2, 112892, Note_off_c, 0, 61, 64
2, 112896, Note_on_c, 0, 62, 85
2, 113276, Note_off_c, 0, 62, 64
2, 113472, Note_on_c, 0, 81, 62
2, 113564, Note_off_c, 0, 81, 64
2, 113664, Note_on_c, 0, 81, 62
2, 113756, Note_off_c, 0, 81, 64
2, 113856, Note_on_c, 0, 81, 62
2, 113948, Note_off_c, 0, 81, 64
2, 114048, Note_on_c, 0, 81, 62
2, 114336, Note_off_c, 0, 81, 72
2, 114336, Note_on_c, 0, 83, 63
2, 114424, Note_off_c, 0, 83, 72
2, 114432, Note_on_c, 0, 81, 62
2, 114524, Note_off_c, 0, 81, 72
2, 114624, Note_on_c, 0, 81, 62
2, 114716, Note_off_c, 0, 81, 72
2, 114816, Note_on_c, 0, 81, 62
2, 114908, Note_off_c, 0, 81, 72
2, 115008, Note_on_c, 0, 81, 62
2, 115100, Note_off_c, 0, 81, 72
2, 115200, Note_on_c, 0, 81, 62
2, 115584, Note_off_c, 0, 81, 72
2, 115584, Note_on_c, 0, 74, 62
2, 115960, Note_off_c, 0, 74, 72
2, 116160, Note_on_c, 0, 78, 62
2, 116348, Note_off_c, 0, 78, 72
2, 116352, Note_on_c, 0, 76, 62
2, 116736, Note_off_c, 0, 76, 72
2, 116736, Note_on_c, 0, 79, 63
2, 117112, Note_off_c, 0, 79, 72
2, 117312, Note_on_c, 0, 73, 62
2, 117500, Note_off_c, 0, 73, 72
2, 117504, Note_on_c, 0, 74, 62
2, 117888, Note_off_c, 0, 74, 72
2, 118080, Note_on_c, 0, 78, 62
2, 118172, Note_off_c, 0, 78, 72
2, 118272, Note_on_c, 0, 78, 62
2, 118364, Note_off_c, 0, 78, 72
2, 118464, Note_on_c, 0, 78, 62
2, 118556, Note_off_c, 0, 78, 72
2, 118656, Note_on_c, 0, 78, 62
2, 118944, Note_off_c, 0, 78, 72
2, 118944, Note_on_c, 0, 79, 62
2, 119032, Note_off_c, 0, 79, 72
2, 119040, Note_on_c, 0, 78, 62
2, 119132, Note_off_c, 0, 78, 72
2, 119232, Note_on_c, 0, 78, 62
2, 119324, Note_off_c, 0, 78, 72
2, 119424, Note_on_c, 0, 78, 62
2, 119516, Note_off_c, 0, 78, 72
2, 119616, Note_on_c, 0, 78, 62
2, 119708, Note_off_c, 0, 78, 72
2, 119808, Note_on_c, 0, 78, 62
2, 120192, Note_off_c, 0, 78, 72
2, 120192, Note_on_c, 0, 71, 62
2, 120568, Note_off_c, 0, 71, 72
2, 120768, Note_on_c, 0, 74, 62
2, 120956, Note_off_c, 0, 74, 72
2, 120960, Note_on_c, 0, 73, 62
2, 121344, Note_off_c, 0, 73, 72
2, 121344, Note_on_c, 0, 76, 62
2, 121720, Note_off_c, 0, 76, 72
2, 121920, Note_on_c, 0, 70, 62
2, 122108, Note_off_c, 0, 70, 72
2, 122112, Note_on_c, 0, 71, 84
2, 122208, Note_off_c, 0, 71, 72
2, 122208, Note_on_c, 0, 74, 84
2, 122288, Note_off_c, 0, 74, 72
2, 122304, Note_on_c, 0, 78, 85
2, 122400, Note_off_c, 0, 78, 72
2, 122400, Note_on_c, 0, 83, 87
2, 122496, Note_off_c, 0, 83, 72
2, 122496, Note_on_c, 0, 86, 89
2, 123260, Note_off_c, 0, 86, 72
2, 123264, Note_on_c, 0, 71, 80
2, 123360, Note_off_c, 0, 71, 72
2, 123360, Note_on_c, 0, 74, 80
2, 123440, Note_off_c, 0, 74, 72
2, 123456, Note_on_c, 0, 79, 85
2, 123552, Note_off_c, 0, 79, 72
2, 123552, Note_on_c, 0, 83, 87
2, 123648, Note_off_c, 0, 83, 72
2, 123648, Note_on_c, 0, 86, 90
2, 124412, Note_off_c, 0, 86, 72
2, 124608, Note_on_c, 0, 88, 66
2, 124700, Note_off_c, 0, 88, 72
2, 124704, Note_on_c, 0, 86, 65
2, 124796, Note_off_c, 0, 86, 72
2, 124992, Note_on_c, 0, 86, 65
2, 125084, Note_off_c, 0, 86, 72
2, 125088, Note_on_c, 0, 85, 64
2, 125180, Note_off_c, 0, 85, 72
2, 125376, Note_on_c, 0, 85, 64
2, 125468, Note_off_c, 0, 85, 72
2, 125472, Note_on_c, 0, 83, 63
2, 125564, Note_off_c, 0, 83, 72
2, 125760, Note_on_c, 0, 83, 63
2, 125852, Note_off_c, 0, 83, 72
2, 125856, Note_on_c, 0, 81, 62
2, 125948, Note_off_c, 0, 81, 72
2, 126144, Note_on_c, 0, 81, 62
2, 126236, Note_off_c, 0, 81, 72
2, 126240, Note_on_c, 0, 80, 61
2, 126332, Note_off_c, 0, 80, 72
2, 126528, Note_on_c, 0, 80, 61
2, 126620, Note_off_c, 0, 80, 72
2, 126624, Note_on_c, 0, 78, 60
2, 126716, Note_off_c, 0, 78, 72
2, 126720, Note_on_c, 0, 77, 84
2, 126816, Note_off_c, 0, 77, 72
2, 126816, Note_on_c, 0, 73, 84
2, 126912, Note_off_c, 0, 73, 72
2, 126912, Note_on_c, 0, 77, 84
2, 127008, Note_off_c, 0, 77, 72
2, 127008, Note_on_c, 0, 80, 85
2, 127100, Note_off_c, 0, 80, 72
2, 127104, Note_on_c, 0, 85, 88
2, 127200, Note_off_c, 0, 85, 72
2, 127200, Note_on_c, 0, 80, 85
2, 127296, Note_off_c, 0, 80, 72
2, 127296, Note_on_c, 0, 77, 84
2, 127392, Note_off_c, 0, 77, 72
2, 127392, Note_on_c, 0, 73, 84
2, 127484, Note_off_c, 0, 73, 72
2, 127488, Note_on_c, 0, 85, 88
2, 127584, Note_off_c, 0, 85, 72
2, 127584, Note_on_c, 0, 80, 86
2, 127680, Note_off_c, 0, 80, 72
2, 127680, Note_on_c, 0, 77, 84
2, 127776, Note_off_c, 0, 77, 72
2, 127776, Note_on_c, 0, 73, 84
2, 127868, Note_off_c, 0, 73, 72
2, 127872, Note_on_c, 0, 78, 84
2, 127968, Note_off_c, 0, 78, 72
2, 127968, Note_on_c, 0, 73, 84
2, 128064, Note_off_c, 0, 73, 72
2, 128064, Note_on_c, 0, 78, 85
2, 128160, Note_off_c, 0, 78, 72
2, 128160, Note_on_c, 0, 81, 86
2, 128252, Note_off_c, 0, 81, 72
2, 128256, Note_on_c, 0, 85, 88
2, 128352, Note_off_c, 0, 85, 72
2, 128352, Note_on_c, 0, 81, 86
2, 128448, Note_off_c, 0, 81, 72
2, 128448, Note_on_c, 0, 78, 85
2, 128544, Note_off_c, 0, 78, 72
2, 128544, Note_on_c, 0, 73, 84
2, 128636, Note_off_c, 0, 73, 72
2, 128640, Note_on_c, 0, 85, 88
2, 128736, Note_off_c, 0, 85, 72
2, 128736, Note_on_c, 0, 81, 86
2, 128832, Note_off_c, 0, 81, 72
2, 128832, Note_on_c, 0, 78, 85
2, 128928, Note_off_c, 0, 78, 72
2, 128928, Note_on_c, 0, 73, 84
2, 129020, Note_off_c, 0, 73, 72
2, 129024, Note_on_c, 0, 77, 84
2, 129120, Note_off_c, 0, 77, 72
2, 129120, Note_on_c, 0, 73, 84
2, 129216, Note_off_c, 0, 73, 72
2, 129216, Note_on_c, 0, 77, 84
2, 129312, Note_off_c, 0, 77, 72
2, 129312, Note_on_c, 0, 80, 85
2, 129408, Note_off_c, 0, 80, 72
2, 129408, Note_on_c, 0, 85, 95
2, 129504, Note_off_c, 0, 85, 72
2, 129504, Note_on_c, 0, 80, 85
2, 129584, Note_off_c, 0, 80, 72
2, 129600, Note_on_c, 0, 77, 84
2, 129696, Note_off_c, 0, 77, 72
2, 129696, Note_on_c, 0, 73, 83
2, 129788, Note_off_c, 0, 73, 72
2, 129792, Note_on_c, 0, 85, 95
2, 129888, Note_off_c, 0, 85, 72
2, 129888, Note_on_c, 0, 80, 85
2, 129968, Note_off_c, 0, 80, 72
2, 129984, Note_on_c, 0, 77, 84
2, 130080, Note_off_c, 0, 77, 72
2, 130080, Note_on_c, 0, 73, 83
2, 130172, Note_off_c, 0, 73, 72
2, 130176, Note_on_c, 0, 78, 84
2, 130272, Note_off_c, 0, 78, 72
2, 130272, Note_on_c, 0, 73, 82
2, 130368, Note_off_c, 0, 73, 72
2, 130368, Note_on_c, 0, 78, 84
2, 130464, Note_off_c, 0, 78, 72
2, 130464, Note_on_c, 0, 81, 86
2, 130560, Note_off_c, 0, 81, 72
2, 130560, Note_on_c, 0, 85, 96
2, 130656, Note_off_c, 0, 85, 72
2, 130656, Note_on_c, 0, 81, 86
2, 130736, Note_off_c, 0, 81, 72
2, 130752, Note_on_c, 0, 78, 84
2, 130848, Note_off_c, 0, 78, 72
2, 130848, Note_on_c, 0, 73, 83
2, 130940, Note_off_c, 0, 73, 72
2, 130944, Note_on_c, 0, 85, 96
2, 131040, Note_off_c, 0, 85, 72
2, 131040, Note_on_c, 0, 81, 86
2, 131120, Note_off_c, 0, 81, 72
2, 131136, Note_on_c, 0, 78, 84
2, 131232, Note_off_c, 0, 78, 72
2, 131232, Note_on_c, 0, 73, 83
2, 131324, Note_off_c, 0, 73, 72
2, 131328, Note_on_c, 0, 61, 87
2, 131704, Note_off_c, 0, 61, 72
2, 131712, Note_on_c, 0, 61, 87
2, 132088, Note_off_c, 0, 61, 72
2, 132096, Note_on_c, 0, 61, 87
2, 132472, Note_off_c, 0, 61, 72
2, 132480, Note_on_c, 0, 61, 87
2, 133248, Note_off_c, 0, 61, 72
2, 133248, Control_c, 0, 1, 45
2, 133632, Note_on_c, 0, 61, 72
2, 134400, Note_off_c, 0, 61, 72
2, 134400, Note_on_c, 0, 56, 75
2, 134780, Note_off_c, 0, 56, 72
2, 134784, Note_on_c, 0, 65, 70
2, 135548, Note_off_c, 0, 65, 72
2, 135552, Note_on_c, 0, 63, 71
2, 135740, Note_off_c, 0, 63, 72
2, 135744, Note_on_c, 0, 61, 72
2, 135932, Note_off_c, 0, 61, 72
2, 135936, Note_on_c, 0, 66, 70
2, 136320, Note_on_c, 0, 62, 71
2, 136704, Note_off_c, 0, 62, 72
2, 136704, Note_on_c, 0, 61, 72
2, 137080, Note_off_c, 0, 61, 72
2, 137084, Note_off_c, 0, 66, 72
2, 137088, Note_on_c, 0, 69, 75
2, 137472, Note_on_c, 0, 56, 76
2, 137856, Note_off_c, 0, 69, 72
2, 137856, Note_off_c, 0, 56, 72
2, 137856, Note_on_c, 0, 60, 73
2, 137856, Note_on_c, 0, 68, 70
2, 138040, Note_off_c, 0, 68, 72
2, 138048, Note_on_c, 0, 66, 74
2, 138232, Note_off_c, 0, 60, 72
2, 138232, Note_off_c, 0, 66, 72
2, 138240, Note_on_c, 0, 65, 80
2, 138240, Note_on_c, 0, 61, 82
2, 138528, Note_off_c, 0, 65, 72
2, 138528, Note_off_c, 0, 61, 72
2, 138528, Note_on_c, 0, 68, 80
2, 138616, Note_off_c, 0, 68, 72
2, 138624, Note_on_c, 0, 73, 62
2, 138716, Note_off_c, 0, 73, 72
2, 138816, Note_on_c, 0, 73, 62
2, 138908, Note_off_c, 0, 73, 72
2, 139008, Note_on_c, 0, 73, 62
2, 139008, Note_on_c, 0, 71, 62
2, 139100, Note_off_c, 0, 73, 72
2, 139100, Note_off_c, 0, 71, 72
2, 139200, Note_on_c, 0, 73, 62
2, 139200, Note_on_c, 0, 71, 62
2, 139292, Note_off_c, 0, 73, 72
2, 139292, Note_off_c, 0, 71, 72
2, 139392, Note_on_c, 0, 73, 62
2, 139392, Note_on_c, 0, 69, 62
2, 139680, Note_off_c, 0, 73, 72
2, 139680, Note_on_c, 0, 74, 62
2, 139768, Note_off_c, 0, 74, 72
2, 139776, Note_off_c, 0, 69, 72
2, 139776, Note_on_c, 0, 73, 62
2, 139776, Note_on_c, 0, 69, 62
2, 139960, Note_off_c, 0, 73, 72
2, 139960, Note_off_c, 0, 69, 72
2, 139968, Note_on_c, 0, 73, 62
2, 139968, Note_on_c, 0, 66, 62
2, 140060, Note_off_c, 0, 73, 72
2, 140060, Note_off_c, 0, 66, 72
2, 140160, Note_on_c, 0, 73, 62
2, 140160, Note_on_c, 0, 69, 62
2, 140252, Note_off_c, 0, 73, 72
2, 140252, Note_off_c, 0, 69, 72
2, 140352, Note_on_c, 0, 78, 62
2, 140444, Note_off_c, 0, 78, 72
2, 140544, Note_on_c, 0, 77, 62
2, 140544, Note_on_c, 0, 68, 62
2, 140832, Note_off_c, 0, 77, 72
2, 140832, Note_off_c, 0, 68, 72
2, 140832, Note_on_c, 0, 74, 62
2, 140920, Note_off_c, 0, 74, 72
2, 140928, Note_on_c, 0, 73, 62
2, 141116, Note_off_c, 0, 73, 72
2, 141120, Note_on_c, 0, 77, 62
2, 141120, Note_on_c, 0, 68, 62
2, 141212, Note_off_c, 0, 77, 72
2, 141212, Note_off_c, 0, 68, 72
2, 141312, Note_on_c, 0, 80, 62
2, 141312, Note_on_c, 0, 73, 62
2, 141404, Note_off_c, 0, 80, 72
2, 141404, Note_off_c, 0, 73, 72
2, 141504, Note_on_c, 0, 83, 63
2, 141504, Note_on_c, 0, 73, 62
2, 141688, Note_off_c, 0, 83, 72
2, 141688, Note_off_c, 0, 73, 72
2, 141696, Note_on_c, 0, 81, 62
2, 141696, Note_on_c, 0, 73, 62
2, 141984, Note_off_c, 0, 81, 72
2, 141984, Note_off_c, 0, 73, 72
2, 141984, Note_on_c, 0, 80, 62
2, 142072, Note_off_c, 0, 80, 72
2, 142080, Note_on_c, 0, 78, 62
2, 142268, Note_off_c, 0, 78, 72
2, 142272, Note_on_c, 0, 81, 62
2, 142272, Note_on_c, 0, 78, 62
2, 142364, Note_off_c, 0, 81, 72
2, 142364, Note_off_c, 0, 78, 72
2, 142464, Note_on_c, 0, 85, 62
2, 142464, Note_on_c, 0, 81, 62
2, 142556, Note_off_c, 0, 85, 72
2, 142556, Note_off_c, 0, 81, 72
2, 142656, Note_on_c, 0, 90, 67
2, 142656, Note_on_c, 0, 78, 62
2, 142748, Note_off_c, 0, 90, 72
2, 142748, Note_off_c, 0, 78, 72
2, 142848, Note_on_c, 0, 86, 65
2, 142848, Note_on_c, 0, 83, 63
2, 143228, Note_off_c, 0, 86, 72
2, 143228, Note_off_c, 0, 83, 72
2, 143232, Note_on_c, 0, 66, 70
2, 143616, Note_off_c, 0, 66, 72
2, 143616, Note_on_c, 0, 71, 70
2, 143992, Note_off_c, 0, 71, 72
2, 144000, Note_on_c, 0, 74, 70
2, 144760, Note_off_c, 0, 74, 72
2, 144768, Note_on_c, 0, 73, 70
2, 144956, Note_off_c, 0, 73, 72
2, 144960, Note_on_c, 0, 71, 71
2, 145144, Note_off_c, 0, 71, 72
2, 145152, Note_on_c, 0, 76, 72
2, 145536, Note_on_c, 0, 73, 73
2, 145920, Note_off_c, 0, 73, 72
2, 145920, Note_on_c, 0, 71, 74
2, 146296, Note_off_c, 0, 71, 72
2, 146300, Note_off_c, 0, 76, 72
2, 146304, Note_on_c, 0, 71, 76
2, 146304, Note_on_c, 0, 79, 76
2, 146680, Note_off_c, 0, 71, 72
2, 146688, Note_on_c, 0, 70, 78
2, 146880, Control_c, 0, 1, 45
2, 147068, Note_off_c, 0, 79, 72
2, 147068, Note_off_c, 0, 70, 72
2, 147072, Note_on_c, 0, 66, 80
2, 147072, Note_on_c, 0, 78, 80
2, 147260, Note_off_c, 0, 78, 72
2, 147264, Note_on_c, 0, 76, 82
2, 147452, Note_off_c, 0, 66, 72
2, 147452, Note_off_c, 0, 76, 72
2, 147456, Note_on_c, 0, 74, 84
2, 147548, Note_off_c, 0, 74, 72
2, 147552, Note_on_c, 0, 71, 84
2, 147644, Note_off_c, 0, 71, 72
2, 147648, Note_on_c, 0, 74, 84
2, 147740, Note_off_c, 0, 74, 72
2, 147744, Note_on_c, 0, 78, 84
2, 147836, Note_off_c, 0, 78, 72
2, 147840, Note_on_c, 0, 83, 87
2, 147932, Note_off_c, 0, 83, 72
2, 147936, Note_on_c, 0, 78, 84
2, 148028, Note_off_c, 0, 78, 72
2, 148032, Note_on_c, 0, 74, 84
2, 148124, Note_off_c, 0, 74, 72
2, 148128, Note_on_c, 0, 71, 84
2, 148220, Note_off_c, 0, 71, 72
2, 148224, Note_on_c, 0, 83, 87
2, 148316, Note_off_c, 0, 83, 72
2, 148320, Note_on_c, 0, 78, 84
2, 148412, Note_off_c, 0, 78, 72
2, 148416, Note_on_c, 0, 74, 84
2, 148508, Note_off_c, 0, 74, 72
2, 148512, Note_on_c, 0, 71, 84
2, 148604, Note_off_c, 0, 71, 72
2, 148608, Note_on_c, 0, 76, 84
2, 148700, Note_off_c, 0, 76, 72
2, 148704, Note_on_c, 0, 71, 84
2, 148796, Note_off_c, 0, 71, 72
2, 148800, Note_on_c, 0, 76, 84
2, 148892, Note_off_c, 0, 76, 72
2, 148896, Note_on_c, 0, 79, 85
2, 148988, Note_off_c, 0, 79, 72
2, 148992, Note_on_c, 0, 83, 87
2, 149084, Note_off_c, 0, 83, 72
2, 149088, Note_on_c, 0, 79, 85
2, 149180, Note_off_c, 0, 79, 72
2, 149184, Note_on_c, 0, 76, 84
2, 149276, Note_off_c, 0, 76, 72
2, 149280, Note_on_c, 0, 71, 84
2, 149372, Note_off_c, 0, 71, 72
2, 149376, Note_on_c, 0, 83, 87
2, 149468, Note_off_c, 0, 83, 72
2, 149472, Note_on_c, 0, 79, 85
2, 149564, Note_off_c, 0, 79, 72
2, 149568, Note_on_c, 0, 76, 84
2, 149660, Note_off_c, 0, 76, 72
2, 149664, Note_on_c, 0, 71, 84
2, 149756, Note_off_c, 0, 71, 72
2, 149760, Note_on_c, 0, 74, 84
2, 149804, Note_off_c, 0, 74, 72
2, 149856, Note_on_c, 0, 71, 84
2, 149900, Note_off_c, 0, 71, 72
2, 149952, Note_on_c, 0, 74, 84
2, 149996, Note_off_c, 0, 74, 72
2, 150048, Note_on_c, 0, 78, 84
2, 150092, Note_off_c, 0, 78, 72
2, 150144, Note_on_c, 0, 83, 82
2, 150188, Note_off_c, 0, 83, 72
2, 150240, Note_on_c, 0, 78, 80
2, 150284, Note_off_c, 0, 78, 72
2, 150336, Note_on_c, 0, 74, 78
2, 150380, Note_off_c, 0, 74, 72
2, 150432, Note_on_c, 0, 71, 76
2, 150476, Note_off_c, 0, 71, 72
2, 150528, Note_on_c, 0, 86, 74
2, 150572, Note_off_c, 0, 86, 72
2, 150624, Note_on_c, 0, 83, 72
2, 150668, Note_off_c, 0, 83, 72
2, 150720, Note_on_c, 0, 78, 70
2, 150764, Note_off_c, 0, 78, 72
2, 150816, Note_on_c, 0, 74, 70
2, 150860, Note_off_c, 0, 74, 72
2, 150912, Note_on_c, 0, 88, 76
2, 151004, Note_off_c, 0, 88, 72
2, 151008, Note_on_c, 0, 76, 70
2, 151100, Note_off_c, 0, 76, 72
2, 151104, Note_on_c, 0, 79, 72
2, 151196, Note_off_c, 0, 79, 72
2, 151200, Note_on_c, 0, 83, 74
2, 151292, Note_off_c, 0, 83, 72
2, 151296, Note_on_c, 0, 88, 79
2, 151388, Note_off_c, 0, 88, 72
2, 151392, Note_on_c, 0, 83, 75
2, 151484, Note_off_c, 0, 83, 72
2, 151488, Note_on_c, 0, 79, 73
2, 151580, Note_off_c, 0, 79, 72
2, 151584, Note_on_c, 0, 76, 71
2, 151676, Note_off_c, 0, 76, 72
2, 151680, Note_on_c, 0, 91, 82
2, 151772, Note_off_c, 0, 91, 72
2, 151776, Note_on_c, 0, 88, 80
2, 151868, Note_off_c, 0, 88, 72
2, 151872, Note_on_c, 0, 83, 78
2, 151964, Note_off_c, 0, 83, 72
2, 151968, Note_on_c, 0, 79, 80
2, 152060, Note_off_c, 0, 79, 72
2, 152064, Note_on_c, 0, 95, 86
2, 152444, Note_off_c, 0, 95, 72
2, 152448, Control_c, 0, 1, 45
2, 152832, Note_on_c, 0, 70, 94
2, 152888, Note_off_c, 0, 70, 72
2, 152892, Note_on_c, 0, 71, 84
2, 152984, Note_off_c, 0, 71, 72
2, 153216, Note_on_c, 0, 72, 94
2, 153272, Note_off_c, 0, 72, 72
2, 153276, Note_on_c, 0, 73, 84
2, 153368, Note_off_c, 0, 73, 72
2, 153600, Note_on_c, 0, 80, 94
2, 153656, Note_off_c, 0, 80, 72
2, 153660, Note_on_c, 0, 81, 84
2, 153752, Note_off_c, 0, 81, 72
2, 153984, Note_on_c, 0, 70, 94
2, 154040, Note_off_c, 0, 70, 72
2, 154044, Note_on_c, 0, 71, 84
2, 154136, Note_off_c, 0, 71, 72
2, 154368, Note_on_c, 0, 79, 86
2, 154424, Note_off_c, 0, 79, 72
2, 154428, Note_on_c, 0, 80, 76
2, 154520, Note_off_c, 0, 80, 72
2, 154752, Note_on_c, 0, 68, 80
2, 154808, Note_off_c, 0, 68, 72
2, 154812, Note_on_c, 0, 69, 70
2, 154904, Note_off_c, 0, 69, 72
2, 155136, Note_on_c, 0, 77, 72
2, 155192, Note_off_c, 0, 77, 72
2, 155196, Note_on_c, 0, 78, 62
2, 155288, Note_off_c, 0, 78, 72
2, 155520, Note_on_c, 0, 67, 72
2, 155576, Note_off_c, 0, 67, 72
2, 155580, Note_on_c, 0, 68, 62
2, 155672, Note_off_c, 0, 68, 72
2, 155904, Note_on_c, 0, 74, 72
2, 155960, Note_off_c, 0, 74, 72
2, 155964, Note_on_c, 0, 76, 62
2, 156056, Note_off_c, 0, 76, 72
2, 156288, Note_on_c, 0, 76, 62
2, 156288, Note_on_c, 0, 64, 62
2, 156668, Note_off_c, 0, 76, 72
2, 156668, Note_off_c, 0, 64, 72
2, 156672, Note_on_c, 0, 76, 70
2, 156672, Note_on_c, 0, 66, 77
2, 157052, Note_off_c, 0, 76, 72
2, 157052, Note_off_c, 0, 66, 72
2, 157056, Note_on_c, 0, 74, 70
2, 157244, Note_off_c, 0, 74, 72
2, 157248, Note_on_c, 0, 72, 70
2, 157436, Note_off_c, 0, 72, 72
2, 157440, Note_on_c, 0, 71, 70
2, 157628, Note_off_c, 0, 71, 72
2, 157632, Note_on_c, 0, 69, 70
2, 157820, Note_off_c, 0, 69, 72
2, 157824, Note_on_c, 0, 68, 70
2, 157916, Note_off_c, 0, 68, 72
2, 157920, Note_on_c, 0, 64, 70
2, 158012, Note_off_c, 0, 64, 72
2, 158016, Note_on_c, 0, 68, 70
2, 158108, Note_off_c, 0, 68, 72
2, 158112, Note_on_c, 0, 71, 70
2, 158204, Note_off_c, 0, 71, 72
2, 158208, Note_on_c, 0, 76, 71
2, 158300, Note_off_c, 0, 76, 72
2, 158304, Note_on_c, 0, 78, 72
2, 158396, Note_off_c, 0, 78, 72
2, 158400, Note_on_c, 0, 79, 73
2, 158492, Note_off_c, 0, 79, 72
2, 158496, Note_on_c, 0, 80, 74
2, 158588, Note_off_c, 0, 80, 72
2, 158592, Note_on_c, 0, 83, 75
2, 158684, Note_off_c, 0, 83, 72
2, 158688, Note_on_c, 0, 85, 76
2, 158780, Note_off_c, 0, 85, 72
2, 158784, Note_on_c, 0, 87, 77
2, 158876, Note_off_c, 0, 87, 72
2, 158880, Note_on_c, 0, 88, 78
2, 158972, Note_off_c, 0, 88, 72
2, 158976, Note_on_c, 0, 77, 94
2, 158976, Note_on_c, 0, 88, 94
2, 159356, Note_off_c, 0, 77, 72
2, 159356, Note_off_c, 0, 88, 72
2, 159360, Note_on_c, 0, 86, 89
2, 159360, Note_on_c, 0, 77, 84
2, 159548, Note_off_c, 0, 86, 72
2, 159548, Note_off_c, 0, 77, 72
2, 159552, Note_on_c, 0, 84, 88
2, 159552, Note_on_c, 0, 69, 84
2, 159740, Note_off_c, 0, 84, 72
2, 159740, Note_off_c, 0, 69, 72
2, 159744, Note_on_c, 0, 83, 87
2, 159744, Note_on_c, 0, 74, 84
2, 159932, Note_off_c, 0, 83, 72
2, 159932, Note_off_c, 0, 74, 72
2, 159936, Note_on_c, 0, 81, 86
2, 159936, Note_on_c, 0, 75, 84
2, 160124, Note_off_c, 0, 81, 72
2, 160124, Note_off_c, 0, 75, 72
2, 160128, Note_on_c, 0, 71, 84
2, 160128, Note_on_c, 0, 80, 89
2, 160172, Note_off_c, 0, 80, 64
2, 160176, Note_on_c, 0, 81, 90
2, 160220, Note_off_c, 0, 71, 72
2, 160220, Note_off_c, 0, 81, 64
2, 160224, Note_on_c, 0, 79, 84
2, 160316, Note_off_c, 0, 79, 72
2, 160320, Note_on_c, 0, 80, 84
2, 160412, Note_off_c, 0, 80, 72
2, 160416, Note_on_c, 0, 83, 84
2, 160508, Note_off_c, 0, 83, 72
2, 160512, Note_on_c, 0, 78, 84
2, 160604, Note_off_c, 0, 78, 72
2, 160608, Note_on_c, 0, 76, 84
2, 160700, Note_off_c, 0, 76, 72
2, 160704, Note_on_c, 0, 78, 84
2, 160796, Note_off_c, 0, 78, 72
2, 160800, Note_on_c, 0, 81, 84
2, 160892, Note_off_c, 0, 81, 72
2, 160896, Note_on_c, 0, 76, 84
2, 160988, Note_off_c, 0, 76, 72
2, 160992, Note_on_c, 0, 75, 84
2, 161084, Note_off_c, 0, 75, 72
2, 161088, Note_on_c, 0, 76, 84
2, 161180, Note_off_c, 0, 76, 72
2, 161184, Note_on_c, 0, 80, 84
2, 161276, Note_off_c, 0, 80, 72
2, 161280, Note_on_c, 0, 74, 84
2, 161372, Note_off_c, 0, 74, 72
2, 161376, Note_on_c, 0, 73, 84
2, 161468, Note_off_c, 0, 73, 72
2, 161472, Note_on_c, 0, 74, 84
2, 161564, Note_off_c, 0, 74, 72
2, 161568, Note_on_c, 0, 78, 84
2, 161660, Note_off_c, 0, 78, 72
2, 161664, Note_on_c, 0, 73, 84
2, 161756, Note_off_c, 0, 73, 72
2, 161760, Note_on_c, 0, 72, 84
2, 161852, Note_off_c, 0, 72, 72
2, 161856, Note_on_c, 0, 73, 84
2, 161948, Note_off_c, 0, 73, 72
2, 161952, Note_on_c, 0, 76, 84
2, 162044, Note_off_c, 0, 76, 72
2, 162048, Note_on_c, 0, 71, 84
2, 162140, Note_off_c, 0, 71, 72
2, 162144, Note_on_c, 0, 70, 84
2, 162236, Note_off_c, 0, 70, 72
2, 162240, Note_on_c, 0, 71, 84
2, 162332, Note_off_c, 0, 71, 72
2, 162336, Note_on_c, 0, 74, 84
2, 162428, Note_off_c, 0, 74, 72
2, 162432, Note_on_c, 0, 69, 84
2, 162524, Note_off_c, 0, 69, 72
2, 162528, Note_on_c, 0, 68, 84
2, 162620, Note_off_c, 0, 68, 72
2, 162624, Note_on_c, 0, 69, 84
2, 162716, Note_off_c, 0, 69, 72
2, 162720, Note_on_c, 0, 71, 84
2, 162812, Note_off_c, 0, 71, 72
2, 162816, Note_on_c, 0, 68, 84
2, 162908, Note_off_c, 0, 68, 72
2, 162912, Note_on_c, 0, 67, 84
2, 163004, Note_off_c, 0, 67, 72
2, 163008, Note_on_c, 0, 68, 84
2, 163100, Note_off_c, 0, 68, 72
2, 163104, Note_on_c, 0, 71, 84
2, 163196, Note_off_c, 0, 71, 72
2, 163200, Note_on_c, 0, 66, 89
2, 163244, Note_off_c, 0, 66, 64
2, 163248, Note_on_c, 0, 68, 89
2, 163292, Note_off_c, 0, 68, 64
2, 163296, Note_on_c, 0, 64, 84
2, 163388, Note_off_c, 0, 64, 72
2, 163392, Note_on_c, 0, 66, 84
2, 163484, Note_off_c, 0, 66, 72
2, 163488, Note_on_c, 0, 74, 84
2, 163580, Note_off_c, 0, 74, 72
2, 163584, Note_on_c, 0, 64, 83
2, 163968, Note_off_c, 0, 64, 72
2, 163968, Note_on_c, 0, 64, 80
2, 164156, Note_off_c, 0, 64, 72
2, 164160, Note_on_c, 0, 56, 78
2, 164348, Note_off_c, 0, 56, 72
2, 164352, Note_on_c, 0, 59, 76
2, 164444, Note_off_c, 0, 59, 72
2, 164448, Note_on_c, 0, 64, 75
2, 164540, Note_off_c, 0, 64, 72
2, 164544, Note_on_c, 0, 68, 74
2, 164636, Note_off_c, 0, 68, 72
2, 164640, Note_on_c, 0, 69, 73
2, 164732, Note_off_c, 0, 69, 72
2, 164736, Note_on_c, 0, 71, 72
2, 164780, Note_off_c, 0, 71, 72
2, 164784, Note_on_c, 0, 73, 72
2, 164828, Note_off_c, 0, 73, 72
2, 164832, Note_on_c, 0, 71, 71
2, 164876, Note_off_c, 0, 71, 72
2, 164880, Note_on_c, 0, 73, 71
2, 164924, Note_off_c, 0, 73, 72
2, 164928, Note_on_c, 0, 71, 70
2, 164972, Note_off_c, 0, 71, 72
2, 164976, Note_on_c, 0, 73, 70
2, 165020, Note_off_c, 0, 73, 72
2, 165024, Note_on_c, 0, 71, 69
2, 165068, Note_off_c, 0, 71, 72
2, 165072, Note_on_c, 0, 73, 69
2, 165116, Note_off_c, 0, 73, 72
2, 165120, Note_on_c, 0, 71, 68
2, 165164, Note_off_c, 0, 71, 72
2, 165168, Note_on_c, 0, 73, 68
2, 165212, Note_off_c, 0, 73, 72
2, 165216, Note_on_c, 0, 71, 67
2, 165260, Note_off_c, 0, 71, 72
2, 165264, Note_on_c, 0, 73, 67
2, 165308, Note_off_c, 0, 73, 72
2, 165312, Note_on_c, 0, 71, 66
2, 165356, Note_off_c, 0, 71, 72
2, 165360, Note_on_c, 0, 73, 66
2, 165404, Note_off_c, 0, 73, 72
2, 165408, Note_on_c, 0, 71, 66
2, 165452, Note_off_c, 0, 71, 72
2, 165456, Note_on_c, 0, 73, 65
2, 165500, Note_off_c, 0, 73, 72
2, 165504, Note_on_c, 0, 71, 65
2, 165548, Note_off_c, 0, 71, 72
2, 165552, Note_on_c, 0, 73, 64
2, 165596, Note_off_c, 0, 73, 72
2, 165600, Note_on_c, 0, 71, 64
2, 165644, Note_off_c, 0, 71, 72
2, 165648, Note_on_c, 0, 73, 63
2, 165692, Note_off_c, 0, 73, 72
2, 165696, Note_on_c, 0, 71, 63
2, 165740, Note_off_c, 0, 71, 72
2, 165744, Note_on_c, 0, 73, 62
2, 165788, Note_off_c, 0, 73, 72
2, 165792, Note_on_c, 0, 71, 62
2, 165836, Note_off_c, 0, 71, 72
2, 165840, Note_on_c, 0, 73, 62
2, 165884, Note_off_c, 0, 73, 64
2, 165888, Note_on_c, 0, 72, 62
2, 165932, Note_off_c, 0, 72, 72
2, 165936, Note_on_c, 0, 73, 62
2, 165980, Note_off_c, 0, 73, 72
2, 165984, Note_on_c, 0, 72, 61
2, 166028, Note_off_c, 0, 72, 72
2, 166032, Note_on_c, 0, 73, 60
2, 166076, Note_off_c, 0, 73, 72
2, 166080, Note_on_c, 0, 72, 59
2, 166124, Note_off_c, 0, 72, 72
2, 166128, Note_on_c, 0, 73, 58
2, 166172, Note_off_c, 0, 73, 72
2, 166176, Note_on_c, 0, 72, 58
2, 166220, Note_off_c, 0, 72, 72
2, 166224, Note_on_c, 0, 73, 57
2, 166268, Note_off_c, 0, 73, 72
2, 166272, Note_on_c, 0, 72, 57
2, 166316, Note_off_c, 0, 72, 72
2, 166320, Note_on_c, 0, 73, 57
2, 166364, Note_off_c, 0, 73, 72
2, 166368, Note_on_c, 0, 72, 56
2, 166412, Note_off_c, 0, 72, 72
2, 166416, Note_on_c, 0, 73, 56
2, 166460, Note_off_c, 0, 73, 72
2, 166464, Note_on_c, 0, 69, 55
2, 166552, Note_off_c, 0, 69, 72
2, 166560, Note_on_c, 0, 72, 54
2, 166648, Note_off_c, 0, 72, 72
2, 166656, Note_on_c, 0, 73, 53
2, 166944, Note_off_c, 0, 73, 72
2, 166944, Note_on_c, 0, 74, 50
2, 167032, Note_off_c, 0, 74, 72
2, 167032, Control_c, 0, 1, 45
2, 167040, Note_on_c, 0, 76, 62
2, 167424, Note_off_c, 0, 76, 64
2, 167424, Note_on_c, 0, 73, 62
2, 167800, Note_off_c, 0, 73, 64
2, 167808, Note_on_c, 0, 76, 72
2, 167864, Note_off_c, 0, 76, 64
2, 167868, Note_on_c, 0, 78, 62
2, 168028, Note_off_c, 0, 78, 64
2, 168192, Note_on_c, 0, 69, 62
2, 168576, Note_off_c, 0, 69, 64
2, 168576, Note_on_c, 0, 68, 62
2, 168768, Control_c, 0, 1, 45
2, 168952, Note_off_c, 0, 68, 64
2, 168960, Note_on_c, 0, 71, 62
2, 169248, Note_off_c, 0, 71, 64
2, 169248, Note_on_c, 0, 73, 62
2, 169336, Note_off_c, 0, 73, 64
2, 169344, Note_on_c, 0, 76, 72
2, 169400, Note_off_c, 0, 76, 64
2, 169404, Note_on_c, 0, 74, 62
2, 169720, Note_off_c, 0, 74, 64
2, 169728, Note_on_c, 0, 73, 62
2, 169920, Note_off_c, 0, 73, 64
2, 169920, Note_on_c, 0, 71, 62
2, 170104, Note_off_c, 0, 71, 64
2, 170112, Note_on_c, 0, 69, 62
2, 170304, Note_off_c, 0, 69, 64
2, 170304, Note_on_c, 0, 68, 62
2, 170488, Note_off_c, 0, 68, 64
2, 170496, Note_on_c, 0, 69, 62
2, 170784, Note_off_c, 0, 69, 64
2, 170784, Note_on_c, 0, 73, 62
2, 170872, Note_off_c, 0, 73, 64
2, 170880, Note_on_c, 0, 64, 62
2, 171260, Note_off_c, 0, 64, 64
2, 171264, Note_on_c, 0, 73, 63
2, 171552, Note_off_c, 0, 73, 64
2, 171552, Note_on_c, 0, 74, 66
2, 171640, Note_off_c, 0, 74, 64
2, 171648, Note_on_c, 0, 76, 69
2, 171836, Note_off_c, 0, 76, 64
2, 171840, Note_on_c, 0, 81, 72
2, 172028, Note_off_c, 0, 81, 64
2, 172032, Note_on_c, 0, 80, 75
2, 172220, Note_off_c, 0, 80, 64
2, 172224, Note_on_c, 0, 81, 78
2, 172412, Note_off_c, 0, 81, 64
2, 172608, Note_on_c, 0, 78, 62
2, 172652, Note_off_c, 0, 78, 64
2, 172656, Note_on_c, 0, 80, 62
2, 172700, Note_off_c, 0, 80, 64
2, 172704, Note_on_c, 0, 78, 62
2, 172748, Note_off_c, 0, 78, 64
2, 172752, Note_on_c, 0, 80, 62
2, 172796, Note_off_c, 0, 80, 64
2, 172800, Note_on_c, 0, 76, 62
2, 172892, Note_off_c, 0, 76, 64
2, 172992, Note_on_c, 0, 81, 62
2, 173180, Note_off_c, 0, 81, 64
2, 173184, Note_on_c, 0, 80, 62
2, 173372, Note_off_c, 0, 80, 64
2, 173376, Note_on_c, 0, 81, 62
2, 173564, Note_off_c, 0, 81, 64
2, 173760, Note_on_c, 0, 74, 62
2, 173804, Note_off_c, 0, 74, 64
2, 173808, Note_on_c, 0, 76, 62
2, 173852, Note_off_c, 0, 76, 64
2, 173856, Note_on_c, 0, 74, 62
2, 173900, Note_off_c, 0, 74, 64
2, 173904, Note_on_c, 0, 76, 62
2, 173948, Note_off_c, 0, 76, 64
2, 173952, Note_on_c, 0, 73, 62
2, 174140, Note_off_c, 0, 73, 64
2, 174144, Note_on_c, 0, 76, 62
2, 174332, Note_off_c, 0, 76, 64
2, 174336, Note_on_c, 0, 74, 62
2, 174524, Note_off_c, 0, 74, 64
2, 174528, Note_on_c, 0, 73, 62
2, 174716, Note_off_c, 0, 73, 64
2, 174720, Note_on_c, 0, 71, 62
2, 174908, Note_off_c, 0, 71, 64
2, 174912, Note_on_c, 0, 69, 62
2, 175100, Note_off_c, 0, 69, 64
2, 175104, Note_on_c, 0, 68, 62
2, 175292, Note_off_c, 0, 68, 64
2, 175296, Note_on_c, 0, 69, 62
2, 175484, Note_off_c, 0, 69, 64
2, 175488, Note_on_c, 0, 70, 62
2, 175676, Note_off_c, 0, 70, 64
2, 175680, Note_on_c, 0, 71, 62
2, 175868, Note_off_c, 0, 71, 64
2, 184704, Control_c, 0, 1, 45
2, 184896, Note_on_c, 0, 69, 84
2, 184992, Note_off_c, 0, 69, 64
2, 184992, Note_on_c, 0, 71, 84
2, 185088, Note_off_c, 0, 71, 64
2, 185088, Note_on_c, 0, 74, 84
2, 185184, Note_off_c, 0, 74, 64
2, 185184, Note_on_c, 0, 73, 84
2, 185264, Note_off_c, 0, 73, 64
2, 185280, Note_on_c, 0, 71, 84
2, 185376, Note_off_c, 0, 71, 64
2, 185376, Note_on_c, 0, 69, 84
2, 185468, Note_off_c, 0, 69, 64
2, 185472, Note_on_c, 0, 76, 84
2, 185948, Note_off_c, 0, 76, 64
2, 185952, Note_on_c, 0, 78, 84
2, 186048, Note_off_c, 0, 78, 64
2, 186048, Note_on_c, 0, 76, 84
2, 186144, Note_off_c, 0, 76, 64
2, 186144, Note_on_c, 0, 78, 84
2, 186240, Note_off_c, 0, 78, 64
2, 186240, Note_on_c, 0, 76, 84
2, 186336, Note_off_c, 0, 76, 64
2, 186336, Note_on_c, 0, 74, 84
2, 186432, Note_off_c, 0, 74, 64
2, 186432, Note_on_c, 0, 73, 84
2, 186528, Note_off_c, 0, 73, 64
2, 186528, Note_on_c, 0, 71, 84
2, 186624, Note_off_c, 0, 71, 64
2, 186624, Note_on_c, 0, 69, 84
2, 187004, Note_off_c, 0, 69, 64
2, 187200, Note_on_c, 0, 69, 62
2, 187244, Note_off_c, 0, 69, 64
2, 187296, Note_on_c, 0, 71, 62
2, 187340, Note_off_c, 0, 71, 64
2, 187392, Note_on_c, 0, 74, 62
2, 187436, Note_off_c, 0, 74, 64
2, 187488, Note_on_c, 0, 73, 62
2, 187532, Note_off_c, 0, 73, 64
2, 187584, Note_on_c, 0, 71, 62
2, 187628, Note_off_c, 0, 71, 64
2, 187680, Note_on_c, 0, 69, 62
2, 187724, Note_off_c, 0, 69, 64
2, 187776, Note_on_c, 0, 76, 62
2, 188252, Note_off_c, 0, 76, 64
2, 188256, Note_on_c, 0, 78, 62
2, 188300, Note_off_c, 0, 78, 64
2, 188352, Note_on_c, 0, 76, 62
2, 188396, Note_off_c, 0, 76, 64
2, 188448, Note_on_c, 0, 78, 62
2, 188492, Note_off_c, 0, 78, 64
2, 188544, Note_on_c, 0, 76, 62
2, 188588, Note_off_c, 0, 76, 64
2, 188640, Note_on_c, 0, 74, 62
2, 188684, Note_off_c, 0, 74, 64
2, 188736, Note_on_c, 0, 73, 62
2, 188780, Note_off_c, 0, 73, 64
2, 188832, Note_on_c, 0, 71, 62
2, 188876, Note_off_c, 0, 71, 64
2, 188928, Note_on_c, 0, 69, 62
2, 189308, Note_off_c, 0, 69, 64
2, 189696, Note_on_c, 0, 63, 65
2, 189752, Note_off_c, 0, 63, 64
2, 189756, Note_on_c, 0, 64, 55
2, 189848, Note_off_c, 0, 64, 64
2, 190080, Note_on_c, 0, 68, 65
2, 190136, Note_off_c, 0, 68, 64
2, 190140, Note_on_c, 0, 69, 55
2, 190232, Note_off_c, 0, 69, 64
2, 190464, Note_on_c, 0, 72, 65
2, 190520, Note_off_c, 0, 72, 64
2, 190524, Note_on_c, 0, 73, 55
2, 190616, Note_off_c, 0, 73, 64
2, 190848, Note_on_c, 0, 75, 65
2, 190904, Note_off_c, 0, 75, 64
2, 190908, Note_on_c, 0, 76, 55
2, 191000, Note_off_c, 0, 76, 64
2, 191232, Note_on_c, 0, 80, 65
2, 191288, Note_off_c, 0, 80, 64
2, 191292, Note_on_c, 0, 81, 55
2, 191384, Note_off_c, 0, 81, 64
2, 192384, Key_signature, 0, "major"
2, 194304, Note_on_c, 0, 76, 84
2, 194400, Note_off_c, 0, 76, 64
2, 194400, Note_on_c, 0, 77, 84
2, 194480, Note_off_c, 0, 77, 64
2, 194496, Note_on_c, 0, 74, 84
2, 194540, Note_off_c, 0, 74, 64
2, 194592, Note_on_c, 0, 76, 84
2, 194636, Note_off_c, 0, 76, 64
2, 194688, Note_on_c, 0, 72, 84
2, 194784, Note_off_c, 0, 72, 64
2, 194784, Note_on_c, 0, 74, 84
2, 194864, Note_off_c, 0, 74, 64
2, 194880, Note_on_c, 0, 71, 84
2, 194924, Note_off_c, 0, 71, 64
2, 194976, Note_on_c, 0, 72, 84
2, 195020, Note_off_c, 0, 72, 64
2, 195072, Note_on_c, 0, 69, 84
2, 195168, Note_off_c, 0, 69, 64
2, 195168, Note_on_c, 0, 71, 84
2, 195248, Note_off_c, 0, 71, 64
2, 195264, Note_on_c, 0, 68, 84
2, 195308, Note_off_c, 0, 68, 64
2, 195360, Note_on_c, 0, 64, 84
2, 195404, Note_off_c, 0, 64, 64
2, 195456, Note_on_c, 0, 69, 84
2, 195552, Note_off_c, 0, 69, 64
2, 195552, Note_on_c, 0, 72, 84
2, 195632, Note_off_c, 0, 72, 64
2, 195648, Note_on_c, 0, 71, 84
2, 195692, Note_off_c, 0, 71, 64
2, 195744, Note_on_c, 0, 76, 84
2, 195788, Note_off_c, 0, 76, 64
2, 195840, Note_on_c, 0, 72, 84
2, 195936, Note_off_c, 0, 72, 64
2, 195936, Note_on_c, 0, 76, 84
2, 196016, Note_off_c, 0, 76, 64
2, 196032, Note_on_c, 0, 74, 84
2, 196076, Note_off_c, 0, 74, 64
2, 196128, Note_on_c, 0, 77, 84
2, 196172, Note_off_c, 0, 77, 64
2, 196224, Note_on_c, 0, 76, 84
2, 196316, Note_off_c, 0, 76, 64
2, 196416, Note_on_c, 0, 80, 94
2, 196472, Note_off_c, 0, 80, 64
2, 196476, Note_on_c, 0, 81, 84
2, 196568, Note_off_c, 0, 81, 64
2, 196608, Note_on_c, 0, 76, 84
2, 196700, Note_off_c, 0, 76, 64
2, 196800, Note_on_c, 0, 80, 94
2, 196856, Note_off_c, 0, 80, 64
2, 196860, Note_on_c, 0, 81, 84
2, 196952, Note_off_c, 0, 81, 64
2, 196992, Note_on_c, 0, 76, 84
2, 197372, Note_off_c, 0, 76, 64
2, 198912, Note_on_c, 0, 76, 84
2, 199008, Note_off_c, 0, 76, 64
2, 199008, Note_on_c, 0, 77, 84
2, 199088, Note_off_c, 0, 77, 64
2, 199104, Note_on_c, 0, 74, 84
2, 199148, Note_off_c, 0, 74, 64
2, 199200, Note_on_c, 0, 76, 84
2, 199244, Note_off_c, 0, 76, 64
2, 199296, Note_on_c, 0, 72, 84
2, 199392, Note_off_c, 0, 72, 64
2, 199392, Note_on_c, 0, 74, 84
2, 199472, Note_off_c, 0, 74, 64
2, 199488, Note_on_c, 0, 71, 84
2, 199532, Note_off_c, 0, 71, 64
2, 199584, Note_on_c, 0, 72, 84
2, 199628, Note_off_c, 0, 72, 64
2, 199680, Note_on_c, 0, 69, 84
2, 199776, Note_off_c, 0, 69, 64
2, 199776, Note_on_c, 0, 71, 84
2, 199856, Note_off_c, 0, 71, 64
2, 199872, Note_on_c, 0, 67, 84
2, 199916, Note_off_c, 0, 67, 64
2, 199968, Note_on_c, 0, 64, 84
2, 200012, Note_off_c, 0, 64, 64
2, 200064, Note_on_c, 0, 69, 84
2, 200160, Note_off_c, 0, 69, 64
2, 200160, Note_on_c, 0, 72, 84
2, 200240, Note_off_c, 0, 72, 64
2, 200256, Note_on_c, 0, 71, 84
2, 200300, Note_off_c, 0, 71, 64
2, 200352, Note_on_c, 0, 74, 84
2, 200396, Note_off_c, 0, 74, 64
2, 200448, Note_on_c, 0, 72, 84
2, 200544, Note_off_c, 0, 72, 64
2, 200544, Note_on_c, 0, 76, 84
2, 200624, Note_off_c, 0, 76, 64
2, 200640, Note_on_c, 0, 74, 84
2, 200684, Note_off_c, 0, 74, 64
2, 200736, Note_on_c, 0, 71, 84
2, 200780, Note_off_c, 0, 71, 64
2, 200832, Note_on_c, 0, 69, 84
2, 200924, Note_off_c, 0, 69, 64
2, 201024, Note_on_c, 0, 75, 94
2, 201080, Note_off_c, 0, 75, 64
2, 201084, Note_on_c, 0, 76, 84
2, 201176, Note_off_c, 0, 76, 64
2, 201216, Note_on_c, 0, 69, 84
2, 201308, Note_off_c, 0, 69, 64
2, 201408, Note_on_c, 0, 75, 94
2, 201464, Note_off_c, 0, 75, 64
2, 201468, Note_on_c, 0, 76, 84
2, 201560, Note_off_c, 0, 76, 64
2, 201600, Note_on_c, 0, 69, 84
2, 201980, Note_off_c, 0, 69, 64
2, 201984, Control_c, 0, 1, 45
2, 202176, Note_on_c, 0, 81, 62
2, 202364, Note_off_c, 0, 81, 64
2, 202560, Note_on_c, 0, 79, 62
2, 202652, Note_off_c, 0, 79, 64
2, 202944, Note_on_c, 0, 77, 62
2, 203036, Note_off_c, 0, 77, 64
2, 203136, Note_on_c, 0, 76, 60
2, 203324, Note_off_c, 0, 76, 64
2, 203328, Note_on_c, 0, 77, 62
2, 203516, Note_off_c, 0, 77, 64
2, 203520, Note_on_c, 0, 76, 62
2, 203708, Note_off_c, 0, 76, 64
2, 203712, Note_on_c, 0, 75, 62
2, 203900, Note_off_c, 0, 75, 64
2, 203904, Note_on_c, 0, 76, 62
2, 204092, Note_off_c, 0, 76, 64
2, 204096, Note_on_c, 0, 77, 62
2, 204284, Note_off_c, 0, 77, 64
2, 204288, Note_on_c, 0, 76, 62
2, 204476, Note_off_c, 0, 76, 64
2, 204480, Note_on_c, 0, 75, 62
2, 204668, Note_off_c, 0, 75, 64
2, 204672, Note_on_c, 0, 76, 62
2, 205052, Note_off_c, 0, 76, 64
2, 205056, Note_on_c, 0, 80, 62
2, 205152, Note_off_c, 0, 80, 64
2, 205152, Note_on_c, 0, 81, 62
2, 205232, Note_off_c, 0, 81, 64
2, 205248, Note_on_c, 0, 83, 63
2, 205292, Note_off_c, 0, 83, 64
2, 205344, Note_on_c, 0, 81, 62
2, 205388, Note_off_c, 0, 81, 64
2, 205440, Note_on_c, 0, 78, 62
2, 205536, Note_off_c, 0, 78, 64
2, 205536, Note_on_c, 0, 79, 63
2, 205616, Note_off_c, 0, 79, 64
2, 205632, Note_on_c, 0, 81, 64
2, 205676, Note_off_c, 0, 81, 64
2, 205728, Note_on_c, 0, 79, 63
2, 205772, Note_off_c, 0, 79, 64
2, 205824, Note_on_c, 0, 76, 62
2, 205920, Note_off_c, 0, 76, 64
2, 205920, Note_on_c, 0, 77, 62
2, 206000, Note_off_c, 0, 77, 64
2, 206016, Note_on_c, 0, 79, 63
2, 206060, Note_off_c, 0, 79, 64
2, 206112, Note_on_c, 0, 77, 62
2, 206156, Note_off_c, 0, 77, 64
2, 206208, Note_on_c, 0, 76, 72
2, 206396, Note_off_c, 0, 76, 64
2, 206400, Note_on_c, 0, 77, 69
2, 206588, Note_off_c, 0, 77, 64
2, 206592, Note_on_c, 0, 76, 68
2, 206780, Note_off_c, 0, 76, 64
2, 206784, Note_on_c, 0, 75, 67
2, 206972, Note_off_c, 0, 75, 64
2, 206976, Note_on_c, 0, 76, 66
2, 207164, Note_off_c, 0, 76, 64
2, 207168, Note_on_c, 0, 77, 65
2, 207356, Note_off_c, 0, 77, 64
2, 207360, Note_on_c, 0, 76, 64
2, 207548, Note_off_c, 0, 76, 64
2, 207552, Note_on_c, 0, 75, 63
2, 207740, Note_off_c, 0, 75, 64
2, 207744, Note_on_c, 0, 76, 62
2, 208124, Note_off_c, 0, 76, 64
2, 209664, Note_on_c, 0, 76, 84
2, 209664, Control_c, 0, 1, 45
2, 209760, Note_off_c, 0, 76, 64
2, 209760, Note_on_c, 0, 77, 84
2, 209840, Note_off_c, 0, 77, 64
2, 209856, Note_on_c, 0, 74, 84
2, 209900, Note_off_c, 0, 74, 64
2, 209952, Note_on_c, 0, 76, 84
2, 209996, Note_off_c, 0, 76, 64
2, 210048, Note_on_c, 0, 72, 84
2, 210144, Note_off_c, 0, 72, 64
2, 210144, Note_on_c, 0, 74, 84
2, 210224, Note_off_c, 0, 74, 64
2, 210240, Note_on_c, 0, 71, 84
2, 210284, Note_off_c, 0, 71, 64
2, 210336, Note_on_c, 0, 72, 84
2, 210380, Note_off_c, 0, 72, 64
2, 210432, Note_on_c, 0, 69, 84
2, 210528, Note_off_c, 0, 69, 64
2, 210528, Note_on_c, 0, 71, 84
2, 210608, Note_off_c, 0, 71, 64
2, 210624, Note_on_c, 0, 68, 84
2, 210668, Note_off_c, 0, 68, 64
2, 210720, Note_on_c, 0, 64, 84
2, 210764, Note_off_c, 0, 64, 64
2, 210816, Note_on_c, 0, 69, 84
2, 210912, Note_off_c, 0, 69, 64
2, 210912, Note_on_c, 0, 72, 84
2, 210992, Note_off_c, 0, 72, 64
2, 211008, Note_on_c, 0, 71, 84
2, 211052, Note_off_c, 0, 71, 64
2, 211104, Note_on_c, 0, 74, 84
2, 211148, Note_off_c, 0, 74, 64
2, 211200, Note_on_c, 0, 72, 84
2, 211296, Note_off_c, 0, 72, 64
2, 211296, Note_on_c, 0, 76, 84
2, 211376, Note_off_c, 0, 76, 64
2, 211392, Note_on_c, 0, 74, 84
2, 211436, Note_off_c, 0, 74, 64
2, 211488, Note_on_c, 0, 77, 84
2, 211532, Note_off_c, 0, 77, 64
2, 211584, Note_on_c, 0, 76, 84
2, 211676, Note_off_c, 0, 76, 64
2, 211776, Note_on_c, 0, 80, 97
2, 211832, Note_off_c, 0, 80, 64
2, 211836, Note_on_c, 0, 81, 87
2, 211928, Note_off_c, 0, 81, 64
2, 211968, Note_on_c, 0, 76, 84
2, 212060, Note_off_c, 0, 76, 64
2, 212160, Note_on_c, 0, 80, 97
2, 212216, Note_off_c, 0, 80, 64
2, 212220, Note_on_c, 0, 81, 87
2, 212312, Note_off_c, 0, 81, 64
2, 212352, Note_on_c, 0, 76, 84
2, 212732, Note_off_c, 0, 76, 64
2, 214272, Note_on_c, 0, 76, 84
2, 214368, Note_off_c, 0, 76, 64
2, 214368, Note_on_c, 0, 77, 84
2, 214448, Note_off_c, 0, 77, 64
2, 214464, Note_on_c, 0, 74, 84
2, 214508, Note_off_c, 0, 74, 64
2, 214560, Note_on_c, 0, 76, 84
2, 214604, Note_off_c, 0, 76, 64
2, 214656, Note_on_c, 0, 72, 84
2, 214752, Note_off_c, 0, 72, 64
2, 214752, Note_on_c, 0, 74, 84
2, 214832, Note_off_c, 0, 74, 64
2, 214848, Note_on_c, 0, 71, 84
2, 214892, Note_off_c, 0, 71, 64
2, 214944, Note_on_c, 0, 72, 84
2, 214988, Note_off_c, 0, 72, 64
2, 215040, Note_on_c, 0, 69, 84
2, 215136, Note_off_c, 0, 69, 64
2, 215136, Note_on_c, 0, 71, 84
2, 215216, Note_off_c, 0, 71, 64
2, 215232, Note_on_c, 0, 68, 84
2, 215276, Note_off_c, 0, 68, 64
2, 215328, Note_on_c, 0, 64, 84
2, 215372, Note_off_c, 0, 64, 64
2, 215424, Note_on_c, 0, 69, 84
2, 215520, Note_off_c, 0, 69, 64
2, 215520, Note_on_c, 0, 72, 84
2, 215600, Note_off_c, 0, 72, 64
2, 215616, Note_on_c, 0, 71, 84
2, 215660, Note_off_c, 0, 71, 64
2, 215712, Note_on_c, 0, 74, 84
2, 215756, Note_off_c, 0, 74, 64
2, 215808, Note_on_c, 0, 72, 84
2, 215904, Note_off_c, 0, 72, 64
2, 215904, Note_on_c, 0, 76, 84
2, 215984, Note_off_c, 0, 76, 64
2, 216000, Note_on_c, 0, 74, 84
2, 216044, Note_off_c, 0, 74, 64
2, 216096, Note_on_c, 0, 71, 84
2, 216140, Note_off_c, 0, 71, 64
2, 216192, Note_on_c, 0, 69, 84
2, 216284, Note_off_c, 0, 69, 64
2, 216384, Note_on_c, 0, 75, 94
2, 216440, Note_off_c, 0, 75, 64
2, 216444, Note_on_c, 0, 76, 84
2, 216536, Note_off_c, 0, 76, 64
2, 216576, Note_on_c, 0, 69, 84
2, 216668, Note_off_c, 0, 69, 64
2, 216768, Note_on_c, 0, 80, 96
2, 216824, Note_off_c, 0, 80, 64
2, 216828, Note_on_c, 0, 81, 86
2, 216920, Note_off_c, 0, 81, 64
2, 216960, Note_on_c, 0, 69, 84
2, 217344, Note_off_c, 0, 69, 64
2, 241536, Control_c, 0, 1, 45
2, 241920, Note_on_c, 0, 81, 64
2, 242012, Note_off_c, 0, 81, 64
2, 242112, Note_on_c, 0, 84, 64
2, 242204, Note_off_c, 0, 84, 64
2, 242304, Note_on_c, 0, 84, 80
2, 242360, Note_off_c, 0, 84, 64
2, 242364, Note_on_c, 0, 83, 70
2, 242492, Note_off_c, 0, 83, 64
2, 242496, Note_on_c, 0, 81, 64
2, 242540, Note_off_c, 0, 81, 64
2, 242592, Note_on_c, 0, 79, 64
2, 242636, Note_off_c, 0, 79, 64
2, 242688, Note_on_c, 0, 83, 79
2, 242744, Note_off_c, 0, 83, 64
2, 242748, Note_on_c, 0, 81, 69
2, 242876, Note_off_c, 0, 81, 64
2, 242880, Note_on_c, 0, 79, 64
2, 242924, Note_off_c, 0, 79, 64
2, 242976, Note_on_c, 0, 78, 64
2, 243020, Note_off_c, 0, 78, 64
2, 243072, Note_on_c, 0, 81, 79
2, 243128, Note_off_c, 0, 81, 64
2, 243132, Note_on_c, 0, 79, 69
2, 243260, Note_off_c, 0, 79, 64
2, 243264, Note_on_c, 0, 78, 64
2, 243308, Note_off_c, 0, 78, 64
2, 243360, Note_on_c, 0, 76, 64
2, 243404, Note_off_c, 0, 76, 64
2, 243456, Note_on_c, 0, 79, 64
2, 243548, Note_off_c, 0, 79, 64
2, 243648, Note_on_c, 0, 83, 65
2, 243740, Note_off_c, 0, 83, 64
2, 243840, Note_on_c, 0, 83, 78
2, 243896, Note_off_c, 0, 83, 64
2, 243900, Note_on_c, 0, 81, 68
2, 244032, Note_off_c, 0, 81, 64
2, 244032, Note_on_c, 0, 79, 64
2, 244076, Note_off_c, 0, 79, 64
2, 244128, Note_on_c, 0, 78, 64
2, 244172, Note_off_c, 0, 78, 64
2, 244224, Note_on_c, 0, 81, 77
2, 244280, Note_off_c, 0, 81, 64
2, 244284, Note_on_c, 0, 79, 67
2, 244412, Note_off_c, 0, 79, 64
2, 244416, Note_on_c, 0, 78, 64
2, 244460, Note_off_c, 0, 78, 64
2, 244512, Note_on_c, 0, 76, 64
2, 244556, Note_off_c, 0, 76, 64
2, 244608, Note_on_c, 0, 76, 72
2, 244664, Note_off_c, 0, 76, 64
2, 244668, Note_on_c, 0, 75, 64
2, 244796, Note_off_c, 0, 75, 64
2, 244800, Note_on_c, 0, 73, 64
2, 244844, Note_off_c, 0, 73, 64
2, 244896, Note_on_c, 0, 71, 64
2, 244940, Note_off_c, 0, 71, 64
2, 244992, Note_on_c, 0, 81, 64
2, 245084, Note_off_c, 0, 81, 64
2, 245184, Note_on_c, 0, 84, 66
2, 245276, Note_off_c, 0, 84, 64
2, 245376, Note_on_c, 0, 84, 80
2, 245432, Note_off_c, 0, 84, 64
2, 245436, Note_on_c, 0, 83, 70
2, 245564, Note_off_c, 0, 83, 64
2, 245568, Note_on_c, 0, 81, 64
2, 245612, Note_off_c, 0, 81, 64
2, 245664, Note_on_c, 0, 79, 64
2, 245708, Note_off_c, 0, 79, 64
2, 245760, Note_on_c, 0, 83, 79
2, 245816, Note_off_c, 0, 83, 64
2, 245820, Note_on_c, 0, 81, 69
2, 245948, Note_off_c, 0, 81, 64
2, 245952, Note_on_c, 0, 79, 64
2, 245996, Note_off_c, 0, 79, 64
2, 246048, Note_on_c, 0, 78, 64
2, 246092, Note_off_c, 0, 78, 64
2, 246144, Note_on_c, 0, 81, 78
2, 246200, Note_off_c, 0, 81, 64
2, 246204, Note_on_c, 0, 79, 68
2, 246332, Note_off_c, 0, 79, 64
2, 246336, Note_on_c, 0, 78, 64
2, 246380, Note_off_c, 0, 78, 64
2, 246432, Note_on_c, 0, 76, 64
2, 246476, Note_off_c, 0, 76, 64
2, 246528, Note_on_c, 0, 67, 64
2, 246620, Note_off_c, 0, 67, 64
2, 246720, Note_on_c, 0, 83, 64
2, 246812, Note_off_c, 0, 83, 64
2, 246912, Note_on_c, 0, 69, 67
2, 247004, Note_off_c, 0, 69, 64
2, 247104, Note_on_c, 0, 84, 72
2, 247196, Note_off_c, 0, 84, 64
2, 247296, Note_on_c, 0, 66, 77
2, 247388, Note_off_c, 0, 66, 64
2, 247488, Note_on_c, 0, 75, 82
2, 247580, Note_off_c, 0, 75, 64
2, 247680, Note_on_c, 0, 76, 86
2, 247680, Note_on_c, 0, 71, 86
2, 247680, Note_on_c, 0, 64, 86
2, 248064, Note_off_c, 0, 76, 64
2, 248064, Note_off_c, 0, 71, 64
2, 248064, Note_off_c, 0, 64, 64
2, 248064, Note_on_c, 0, 81, 64
2, 248252, Note_off_c, 0, 81, 64
2, 248256, Note_on_c, 0, 84, 64
2, 248444, Note_off_c, 0, 84, 64
2, 248448, Note_on_c, 0, 84, 80
2, 248504, Note_off_c, 0, 84, 64
2, 248508, Note_on_c, 0, 83, 70
2, 248636, Note_off_c, 0, 83, 64
2, 248640, Note_on_c, 0, 81, 64
2, 248684, Note_off_c, 0, 81, 64
2, 248736, Note_on_c, 0, 79, 64
2, 248780, Note_off_c, 0, 79, 64
2, 248832, Note_on_c, 0, 83, 79
2, 248888, Note_off_c, 0, 83, 64
2, 248892, Note_on_c, 0, 81, 69
2, 249020, Note_off_c, 0, 81, 64
2, 249024, Note_on_c, 0, 79, 64
2, 249068, Note_off_c, 0, 79, 64
2, 249120, Note_on_c, 0, 78, 64
2, 249164, Note_off_c, 0, 78, 64
2, 249216, Note_on_c, 0, 81, 78
2, 249272, Note_off_c, 0, 81, 64
2, 249276, Note_on_c, 0, 79, 68
2, 249404, Note_off_c, 0, 79, 64
2, 249408, Note_on_c, 0, 78, 64
2, 249452, Note_off_c, 0, 78, 64
2, 249504, Note_on_c, 0, 76, 64
2, 249548, Note_off_c, 0, 76, 64
2, 249600, Note_on_c, 0, 79, 64
2, 249692, Note_off_c, 0, 79, 64
2, 249792, Note_on_c, 0, 83, 65
2, 249884, Note_off_c, 0, 83, 64
2, 249984, Note_on_c, 0, 83, 79
2, 250040, Note_off_c, 0, 83, 64
2, 250044, Note_on_c, 0, 81, 69
2, 250172, Note_off_c, 0, 81, 64
2, 250176, Note_on_c, 0, 79, 64
2, 250220, Note_off_c, 0, 79, 64
2, 250272, Note_on_c, 0, 78, 64
2, 250316, Note_off_c, 0, 78, 64
2, 250368, Note_on_c, 0, 81, 78
2, 250424, Note_off_c, 0, 81, 64
2, 250428, Note_on_c, 0, 79, 68
2, 250556, Note_off_c, 0, 79, 64
2, 250560, Note_on_c, 0, 78, 64
2, 250604, Note_off_c, 0, 78, 64
2, 250656, Note_on_c, 0, 76, 64
2, 250700, Note_off_c, 0, 76, 64
2, 250752, Note_on_c, 0, 76, 72
2, 250808, Note_off_c, 0, 76, 64
2, 250812, Note_on_c, 0, 75, 64
2, 250940, Note_off_c, 0, 75, 64
2, 250944, Note_on_c, 0, 73, 64
2, 250988, Note_off_c, 0, 73, 64
2, 251040, Note_on_c, 0, 71, 64
2, 251084, Note_off_c, 0, 71, 64
2, 251136, Note_on_c, 0, 81, 64
2, 251228, Note_off_c, 0, 81, 64
2, 251328, Note_on_c, 0, 84, 66
2, 251420, Note_off_c, 0, 84, 64
2, 251520, Note_on_c, 0, 84, 80
2, 251576, Note_off_c, 0, 84, 64
2, 251580, Note_on_c, 0, 83, 70
2, 251708, Note_off_c, 0, 83, 64
2, 251712, Note_on_c, 0, 81, 64
2, 251756, Note_off_c, 0, 81, 64
2, 251808, Note_on_c, 0, 79, 64
2, 251852, Note_off_c, 0, 79, 64
2, 251904, Note_on_c, 0, 83, 79
2, 251960, Note_off_c, 0, 83, 64
2, 251964, Note_on_c, 0, 81, 69
2, 252092, Note_off_c, 0, 81, 64
2, 252096, Note_on_c, 0, 79, 64
2, 252140, Note_off_c, 0, 79, 64
2, 252192, Note_on_c, 0, 78, 64
2, 252236, Note_off_c, 0, 78, 64
2, 252288, Note_on_c, 0, 81, 78
2, 252344, Note_off_c, 0, 81, 64
2, 252348, Note_on_c, 0, 79, 68
2, 252476, Note_off_c, 0, 79, 64
2, 252480, Note_on_c, 0, 78, 64
2, 252524, Note_off_c, 0, 78, 64
2, 252576, Note_on_c, 0, 76, 64
2, 252620, Note_off_c, 0, 76, 64
2, 252672, Note_on_c, 0, 67, 64
2, 252764, Note_off_c, 0, 67, 64
2, 252864, Note_on_c, 0, 83, 64
2, 252956, Note_off_c, 0, 83, 64
2, 253056, Note_on_c, 0, 69, 67
2, 253148, Note_off_c, 0, 69, 64
2, 253248, Note_on_c, 0, 84, 72
2, 253340, Note_off_c, 0, 84, 64
2, 253440, Note_on_c, 0, 66, 77
2, 253532, Note_off_c, 0, 66, 64
2, 253632, Note_on_c, 0, 75, 82
2, 253724, Note_off_c, 0, 75, 64
2, 253824, Note_on_c, 0, 76, 86
2, 253824, Note_on_c, 0, 71, 86
2, 253824, Note_on_c, 0, 64, 86
2, 254208, Note_off_c, 0, 76, 64
2, 254208, Note_off_c, 0, 71, 64
2, 254208, Note_off_c, 0, 64, 64
2, 259968, Control_c, 0, 1, 45
2, 260352, Note_on_c, 0, 72, 64
2, 260444, Note_off_c, 0, 72, 64
2, 260544, Note_on_c, 0, 72, 64
2, 260636, Note_off_c, 0, 72, 64
2, 260736, Note_on_c, 0, 74, 84
2, 260784, Note_off_c, 0, 74, 64
2, 260784, Note_on_c, 0, 76, 64
2, 260828, Note_off_c, 0, 76, 64
2, 260832, Note_on_c, 0, 74, 64
2, 260876, Note_off_c, 0, 74, 64
2, 260880, Note_on_c, 0, 76, 64
2, 260924, Note_off_c, 0, 76, 64
2, 260928, Note_on_c, 0, 72, 64
2, 261112, Note_off_c, 0, 72, 64
2, 261120, Note_on_c, 0, 72, 64
2, 261212, Note_off_c, 0, 72, 64
2, 261312, Note_on_c, 0, 72, 64
2, 261404, Note_off_c, 0, 72, 64
2, 261504, Note_on_c, 0, 74, 84
2, 261548, Note_off_c, 0, 74, 64
2, 261552, Note_on_c, 0, 76, 64
2, 261596, Note_off_c, 0, 76, 64
2, 261600, Note_on_c, 0, 74, 64
2, 261644, Note_off_c, 0, 74, 64
2, 261648, Note_on_c, 0, 76, 64
2, 261692, Note_off_c, 0, 76, 64
2, 261696, Note_on_c, 0, 72, 64
2, 261880, Note_off_c, 0, 72, 64
2, 261888, Note_on_c, 0, 74, 64
2, 261980, Note_off_c, 0, 74, 64
2, 262080, Note_on_c, 0, 76, 64
2, 262172, Note_off_c, 0, 76, 64
2, 262272, Note_on_c, 0, 79, 81
2, 262328, Note_off_c, 0, 79, 64
2, 262332, Note_on_c, 0, 77, 71
2, 262456, Note_off_c, 0, 77, 64
2, 262464, Note_on_c, 0, 76, 65
2, 262508, Note_off_c, 0, 76, 64
2, 262560, Note_on_c, 0, 74, 65
2, 262604, Note_off_c, 0, 74, 64
2, 262656, Note_on_c, 0, 77, 81
2, 262712, Note_off_c, 0, 77, 64
2, 262716, Note_on_c, 0, 76, 71
2, 262844, Note_off_c, 0, 76, 64
2, 262848, Note_on_c, 0, 74, 65
2, 262892, Note_off_c, 0, 74, 64
2, 262944, Note_on_c, 0, 72, 65
2, 262988, Note_off_c, 0, 72, 64
2, 263040, Note_on_c, 0, 71, 65
2, 263232, Note_off_c, 0, 71, 64
2, 263232, Note_on_c, 0, 74, 65
2, 263408, Note_on_c, 0, 72, 65
2, 263416, Note_off_c, 0, 74, 64
2, 263500, Note_off_c, 0, 72, 64
2, 263616, Note_on_c, 0, 72, 65
2, 263708, Note_off_c, 0, 72, 64
2, 263808, Note_on_c, 0, 74, 86
2, 263852, Note_off_c, 0, 74, 64
2, 263856, Note_on_c, 0, 76, 64
2, 263900, Note_off_c, 0, 76, 64
2, 263904, Note_on_c, 0, 74, 64
2, 263948, Note_off_c, 0, 74, 64
2, 263952, Note_on_c, 0, 76, 64
2, 263996, Note_off_c, 0, 76, 64
2, 264000, Note_on_c, 0, 72, 64
2, 264184, Note_off_c, 0, 72, 64
2, 264192, Note_on_c, 0, 84, 68
2, 264284, Note_off_c, 0, 84, 64
2, 264384, Note_on_c, 0, 84, 68
2, 264476, Note_off_c, 0, 84, 64
2, 264576, Note_on_c, 0, 86, 91
2, 264620, Note_off_c, 0, 86, 64
2, 264624, Note_on_c, 0, 88, 69
2, 264668, Note_off_c, 0, 88, 64
2, 264668, Note_on_c, 0, 86, 69
2, 264712, Note_off_c, 0, 86, 64
2, 264720, Note_on_c, 0, 88, 69
2, 264764, Note_off_c, 0, 88, 64
2, 264768, Note_on_c, 0, 84, 68
2, 264952, Note_off_c, 0, 84, 64
2, 264960, Note_on_c, 0, 64, 66
2, 265052, Note_off_c, 0, 64, 64
2, 265152, Note_on_c, 0, 79, 67
2, 265244, Note_off_c, 0, 79, 64
2, 265344, Note_on_c, 0, 65, 67
2, 265436, Note_off_c, 0, 65, 64
2, 265536, Note_on_c, 0, 81, 68
2, 265628, Note_off_c, 0, 81, 64
2, 265728, Note_on_c, 0, 62, 68
2, 265820, Note_off_c, 0, 62, 64
2, 265920, Note_on_c, 0, 71, 64
2, 266012, Note_off_c, 0, 71, 64
2, 266112, Note_on_c, 0, 72, 84
2, 266112, Note_on_c, 0, 64, 84
2, 266112, Note_on_c, 0, 55, 84
2, 266492, Note_off_c, 0, 72, 64
2, 266492, Note_off_c, 0, 64, 64
2, 266492, Note_off_c, 0, 55, 64
2, 266496, Note_on_c, 0, 76, 64
2, 266588, Note_off_c, 0, 76, 64
2, 266688, Note_on_c, 0, 76, 64
2, 266780, Note_off_c, 0, 76, 64
2, 266880, Note_on_c, 0, 75, 64
2, 267068, Note_off_c, 0, 75, 64
2, 267072, Note_on_c, 0, 74, 64
2, 267260, Note_off_c, 0, 74, 64
2, 267264, Note_on_c, 0, 73, 64
2, 267452, Note_off_c, 0, 73, 64
2, 267456, Note_on_c, 0, 72, 64
2, 267644, Note_off_c, 0, 72, 64
2, 267648, Note_on_c, 0, 71, 62
2, 267740, Note_off_c, 0, 71, 64
2, 267744, Note_on_c, 0, 69, 62
2, 267836, Note_off_c, 0, 69, 64
2, 267840, Note_on_c, 0, 71, 62
2, 267932, Note_off_c, 0, 71, 64
2, 267936, Note_on_c, 0, 72, 62
2, 268028, Note_off_c, 0, 72, 64
2, 268032, Note_on_c, 0, 71, 63
2, 268220, Note_off_c, 0, 71, 64
2, 268224, Note_on_c, 0, 64, 83
2, 268412, Note_off_c, 0, 64, 64
2, 268416, Note_on_c, 0, 63, 83
2, 268604, Note_off_c, 0, 63, 64
2, 268608, Note_on_c, 0, 62, 83
2, 268796, Note_off_c, 0, 62, 64
2, 268800, Note_on_c, 0, 61, 83
2, 268988, Note_off_c, 0, 61, 64
2, 268992, Note_on_c, 0, 60, 83
2, 269180, Note_off_c, 0, 60, 64
2, 269184, Note_on_c, 0, 59, 83
2, 269564, Note_off_c, 0, 59, 64
2, 269568, Note_on_c, 0, 76, 62
2, 269660, Note_off_c, 0, 76, 64
2, 269760, Note_on_c, 0, 76, 62
2, 269852, Note_off_c, 0, 76, 64
2, 269952, Note_on_c, 0, 75, 62
2, 270140, Note_off_c, 0, 75, 64
2, 270144, Note_on_c, 0, 74, 62
2, 270332, Note_off_c, 0, 74, 64
2, 270336, Note_on_c, 0, 73, 62
2, 270524, Note_off_c, 0, 73, 64
2, 270528, Note_on_c, 0, 72, 62
2, 270716, Note_off_c, 0, 72, 64
2, 270720, Note_on_c, 0, 71, 62
2, 270812, Note_off_c, 0, 71, 64
2, 270816, Note_on_c, 0, 69, 62
2, 270908, Note_off_c, 0, 69, 64
2, 270912, Note_on_c, 0, 71, 62
2, 271004, Note_off_c, 0, 71, 64
2, 271008, Note_on_c, 0, 73, 62
2, 271100, Note_off_c, 0, 73, 64
2, 271104, Note_on_c, 0, 71, 63
2, 271292, Note_off_c, 0, 71, 64
2, 271296, Note_on_c, 0, 64, 84
2, 271484, Note_off_c, 0, 64, 64
2, 271488, Note_on_c, 0, 63, 84
2, 271676, Note_off_c, 0, 63, 64
2, 271680, Note_on_c, 0, 62, 84
2, 271868, Note_off_c, 0, 62, 64
2, 271872, Note_on_c, 0, 61, 84
2, 272060, Note_off_c, 0, 61, 64
2, 272064, Note_on_c, 0, 60, 84
2, 272252, Note_off_c, 0, 60, 64
2, 272256, Note_on_c, 0, 59, 84
2, 272640, Control_c, 0, 1, 45
2, 272824, Note_off_c, 0, 59, 64
2, 272832, Note_on_c, 0, 70, 84
2, 272888, Note_off_c, 0, 70, 64
2, 272892, Note_on_c, 0, 71, 84
2, 273020, Note_off_c, 0, 71, 64
2, 273024, Note_on_c, 0, 64, 84
2, 273116, Note_off_c, 0, 64, 64
2, 273216, Note_on_c, 0, 75, 84
2, 273272, Note_off_c, 0, 75, 64
2, 273276, Note_on_c, 0, 76, 94
2, 273368, Note_off_c, 0, 76, 64
2, 273408, Note_on_c, 0, 71, 84
2, 273500, Note_off_c, 0, 71, 64
2, 273600, Note_on_c, 0, 82, 84
2, 273656, Note_off_c, 0, 82, 64
2, 273660, Note_on_c, 0, 83, 97
2, 273752, Note_off_c, 0, 83, 64
2, 273792, Note_on_c, 0, 76, 95
2, 274176, Note_off_c, 0, 76, 64
2, 275712, Note_on_c, 0, 76, 84
2, 275808, Note_off_c, 0, 76, 64
2, 275808, Note_on_c, 0, 77, 84
2, 275892, Note_off_c, 0, 77, 64
2, 275904, Note_on_c, 0, 74, 84
2, 275948, Note_off_c, 0, 74, 64
2, 276000, Note_on_c, 0, 76, 84
2, 276044, Note_off_c, 0, 76, 64
2, 276096, Note_on_c, 0, 72, 84
2, 276192, Note_off_c, 0, 72, 64
2, 276192, Note_on_c, 0, 74, 84
2, 276272, Note_off_c, 0, 74, 64
2, 276288, Note_on_c, 0, 71, 84
2, 276332, Note_off_c, 0, 71, 64
2, 276384, Note_on_c, 0, 72, 84
2, 276428, Note_off_c, 0, 72, 64
2, 276480, Note_on_c, 0, 69, 84
2, 276576, Note_off_c, 0, 69, 64
2, 276576, Note_on_c, 0, 71, 84
2, 276656, Note_off_c, 0, 71, 64
2, 276672, Note_on_c, 0, 68, 84
2, 276716, Note_off_c, 0, 68, 64
2, 276768, Note_on_c, 0, 64, 84
2, 276812, Note_off_c, 0, 64, 64
2, 276864, Note_on_c, 0, 69, 84
2, 276960, Note_off_c, 0, 69, 64
2, 276960, Note_on_c, 0, 72, 84
2, 277040, Note_off_c, 0, 72, 64
2, 277056, Note_on_c, 0, 71, 84
2, 277100, Note_off_c, 0, 71, 64
2, 277152, Note_on_c, 0, 74, 84
2, 277196, Note_off_c, 0, 74, 64
2, 277248, Note_on_c, 0, 72, 84
2, 277344, Note_off_c, 0, 72, 64
2, 277344, Note_on_c, 0, 76, 84
2, 277424, Note_off_c, 0, 76, 64
2, 277440, Note_on_c, 0, 74, 84
2, 277484, Note_off_c, 0, 74, 64
2, 277536, Note_on_c, 0, 77, 84
2, 277580, Note_off_c, 0, 77, 64
2, 277632, Note_on_c, 0, 76, 84
2, 277820, Note_off_c, 0, 76, 64
2, 277824, Note_on_c, 0, 80, 84
2, 277880, Note_off_c, 0, 80, 64
2, 277884, Note_on_c, 0, 81, 92
2, 278012, Note_off_c, 0, 81, 64
2, 278016, Note_on_c, 0, 76, 84
2, 278204, Note_off_c, 0, 76, 64
2, 278208, Note_on_c, 0, 80, 84
2, 278264, Note_off_c, 0, 80, 64
2, 278268, Note_on_c, 0, 81, 92
2, 278396, Note_off_c, 0, 81, 64
2, 278400, Note_on_c, 0, 76, 84
2, 278780, Note_off_c, 0, 76, 64
2, 280320, Note_on_c, 0, 76, 84
2, 280416, Note_off_c, 0, 76, 64
2, 280416, Note_on_c, 0, 77, 84
2, 280496, Note_off_c, 0, 77, 64
2, 280512, Note_on_c, 0, 74, 84
2, 280556, Note_off_c, 0, 74, 64
2, 280608, Note_on_c, 0, 76, 84
2, 280652, Note_off_c, 0, 76, 64
2, 280704, Note_on_c, 0, 72, 84
2, 280800, Note_off_c, 0, 72, 64
2, 280800, Note_on_c, 0, 74, 84
2, 280880, Note_off_c, 0, 74, 64
2, 280896, Note_on_c, 0, 71, 84
2, 280940, Note_off_c, 0, 71, 64
2, 280992, Note_on_c, 0, 72, 84
2, 281036, Note_off_c, 0, 72, 64
2, 281088, Note_on_c, 0, 69, 84
2, 281184, Note_off_c, 0, 69, 64
2, 281184, Note_on_c, 0, 71, 84
2, 281264, Note_off_c, 0, 71, 64
2, 281280, Note_on_c, 0, 68, 84
2, 281324, Note_off_c, 0, 68, 64
2, 281376, Note_on_c, 0, 64, 84
2, 281420, Note_off_c, 0, 64, 64
2, 281472, Note_on_c, 0, 69, 84
2, 281568, Note_off_c, 0, 69, 64
2, 281568, Note_on_c, 0, 72, 84
2, 281648, Note_off_c, 0, 72, 64
2, 281664, Note_on_c, 0, 71, 84
2, 281708, Note_off_c, 0, 71, 64
2, 281760, Note_on_c, 0, 74, 84
2, 281804, Note_off_c, 0, 74, 64
2, 281856, Note_on_c, 0, 72, 84
2, 281952, Note_off_c, 0, 72, 64
2, 281952, Note_on_c, 0, 76, 84
2, 282032, Note_off_c, 0, 76, 64
2, 282048, Note_on_c, 0, 74, 84
2, 282092, Note_off_c, 0, 74, 64
2, 282144, Note_on_c, 0, 71, 84
2, 282188, Note_off_c, 0, 71, 64
2, 282240, Note_on_c, 0, 69, 84
2, 282332, Note_off_c, 0, 69, 64
2, 282432, Note_on_c, 0, 74, 84
2, 282488, Note_off_c, 0, 74, 64
2, 282492, Note_on_c, 0, 76, 90
2, 282584, Note_off_c, 0, 76, 64
2, 282624, Note_on_c, 0, 69, 84
2, 282716, Note_off_c, 0, 69, 64
2, 282816, Note_on_c, 0, 79, 84
2, 282872, Note_off_c, 0, 79, 64
2, 282876, Note_on_c, 0, 81, 92
2, 282968, Note_off_c, 0, 81, 64
2, 283008, Note_on_c, 0, 69, 84
2, 283392, Note_off_c, 0, 69, 64
2, 289536, Note_on_c, 0, 69, 67
2, 289580, Note_off_c, 0, 69, 64
2, 289632, Note_on_c, 0, 76, 67
2, 289676, Note_off_c, 0, 76, 64
2, 289728, Note_on_c, 0, 74, 67
2, 289772, Note_off_c, 0, 74, 64
2, 289824, Note_on_c, 0, 76, 67
2, 289868, Note_off_c, 0, 76, 64
2, 289920, Note_on_c, 0, 72, 67
2, 289964, Note_off_c, 0, 72, 64
2, 290016, Note_on_c, 0, 81, 67
2, 290060, Note_off_c, 0, 81, 64
2, 290112, Note_on_c, 0, 80, 67
2, 290156, Note_off_c, 0, 80, 64
2, 290208, Note_on_c, 0, 81, 67
2, 290252, Note_off_c, 0, 81, 64
2, 290304, Note_on_c, 0, 76, 67
2, 290348, Note_off_c, 0, 76, 64
2, 290400, Note_on_c, 0, 84, 67
2, 290444, Note_off_c, 0, 84, 64
2, 290496, Note_on_c, 0, 83, 67
2, 290540, Note_off_c, 0, 83, 64
2, 290592, Note_on_c, 0, 84, 67
2, 290636, Note_off_c, 0, 84, 64
2, 290688, Note_on_c, 0, 81, 67
2, 291072, Note_off_c, 0, 81, 64
2, 291072, Note_on_c, 0, 84, 67
2, 291116, Note_off_c, 0, 84, 64
2, 291168, Note_on_c, 0, 83, 67
2, 291212, Note_off_c, 0, 83, 64
2, 291264, Note_on_c, 0, 84, 67
2, 291308, Note_off_c, 0, 84, 64
2, 291360, Note_on_c, 0, 76, 67
2, 291404, Note_off_c, 0, 76, 64
2, 291456, Note_on_c, 0, 81, 69
2, 291500, Note_off_c, 0, 81, 64
2, 291552, Note_on_c, 0, 79, 68
2, 291596, Note_off_c, 0, 79, 64
2, 291648, Note_on_c, 0, 81, 69
2, 291692, Note_off_c, 0, 81, 64
2, 291744, Note_on_c, 0, 72, 67
2, 291788, Note_off_c, 0, 72, 64
2, 291840, Note_on_c, 0, 76, 67
2, 291884, Note_off_c, 0, 76, 64
2, 291936, Note_on_c, 0, 74, 67
2, 291980, Note_off_c, 0, 74, 64
2, 292032, Note_on_c, 0, 76, 67
2, 292076, Note_off_c, 0, 76, 64
2, 292128, Note_on_c, 0, 67, 67
2, 292172, Note_off_c, 0, 67, 64
2, 292224, Note_on_c, 0, 69, 67
2, 292316, Note_off_c, 0, 69, 64
2, 292416, Note_on_c, 0, 64, 67
2, 292508, Note_off_c, 0, 64, 64
2, 292608, Note_on_c, 0, 69, 89
2, 292652, Note_off_c, 0, 69, 64
2, 292704, Note_on_c, 0, 76, 89
2, 292796, Note_off_c, 0, 76, 64
2, 292800, Note_on_c, 0, 74, 89
2, 292892, Note_off_c, 0, 74, 64
2, 292896, Note_on_c, 0, 76, 89
2, 292988, Note_off_c, 0, 76, 64
2, 292992, Note_on_c, 0, 72, 89
2, 293036, Note_off_c, 0, 72, 64
2, 293088, Note_on_c, 0, 81, 89
2, 293180, Note_off_c, 0, 81, 64
2, 293184, Note_on_c, 0, 80, 89
2, 293276, Note_off_c, 0, 80, 64
2, 293280, Note_on_c, 0, 81, 89
2, 293372, Note_off_c, 0, 81, 64
2, 293376, Note_on_c, 0, 76, 89
2, 293420, Note_off_c, 0, 76, 64
2, 293472, Note_on_c, 0, 84, 89
2, 293564, Note_off_c, 0, 84, 64
2, 293568, Note_on_c, 0, 83, 89
2, 293660, Note_off_c, 0, 83, 64
2, 293664, Note_on_c, 0, 84, 89
2, 293756, Note_off_c, 0, 84, 64
2, 293760, Note_on_c, 0, 81, 89
2, 294144, Note_off_c, 0, 81, 64
2, 294144, Note_on_c, 0, 84, 99
2, 294236, Note_off_c, 0, 84, 64
2, 294240, Note_on_c, 0, 83, 89
2, 294332, Note_off_c, 0, 83, 64
2, 294336, Note_on_c, 0, 84, 89
2, 294428, Note_off_c, 0, 84, 64
2, 294432, Note_on_c, 0, 76, 89
2, 294524, Note_off_c, 0, 76, 64
2, 294528, Note_on_c, 0, 81, 97
2, 294620, Note_off_c, 0, 81, 64
2, 294624, Note_on_c, 0, 80, 89
2, 294716, Note_off_c, 0, 80, 64
2, 294720, Note_on_c, 0, 81, 89
2, 294812, Note_off_c, 0, 81, 64
2, 294816, Note_on_c, 0, 72, 89
2, 294908, Note_off_c, 0, 72, 64
2, 294912, Note_on_c, 0, 76, 95
2, 295004, Note_off_c, 0, 76, 64
2, 295008, Note_on_c, 0, 74, 89
2, 295100, Note_off_c, 0, 74, 64
2, 295104, Note_on_c, 0, 76, 89
2, 295196, Note_off_c, 0, 76, 64
2, 295200, Note_on_c, 0, 68, 89
2, 295292, Note_off_c, 0, 68, 64
2, 295296, Note_on_c, 0, 69, 89
2, 295680, Note_off_c, 0, 69, 64
2, 301440, Control_c, 0, 1, 45
2, 301824, Note_on_c, 0, 57, 68
2, 301916, Note_off_c, 0, 57, 64
2, 301920, Note_on_c, 0, 57, 68
2, 302012, Note_off_c, 0, 57, 64
2, 302016, Note_on_c, 0, 57, 68
2, 302108, Note_off_c, 0, 57, 64
2, 302112, Note_on_c, 0, 57, 68
2, 302204, Note_off_c, 0, 57, 64
2, 302208, Note_on_c, 0, 58, 68
2, 302300, Note_off_c, 0, 58, 64
2, 302304, Note_on_c, 0, 58, 71
2, 302396, Note_off_c, 0, 58, 64
2, 302400, Note_on_c, 0, 59, 75
2, 302492, Note_off_c, 0, 59, 64
2, 302496, Note_on_c, 0, 59, 78
2, 302588, Note_off_c, 0, 59, 64
2, 302592, Note_on_c, 0, 60, 82
2, 302684, Note_off_c, 0, 60, 64
2, 302688, Note_on_c, 0, 60, 86
2, 302780, Note_off_c, 0, 60, 64
2, 302784, Note_on_c, 0, 61, 89
2, 302876, Note_off_c, 0, 61, 64
2, 302880, Note_on_c, 0, 61, 93
2, 302972, Note_off_c, 0, 61, 64
2, 302976, Note_on_c, 0, 62, 95
2, 303356, Note_off_c, 0, 62, 64
2, 303360, Note_on_c, 0, 62, 89
2, 303452, Note_off_c, 0, 62, 64
2, 303456, Note_on_c, 0, 62, 88
2, 303548, Note_off_c, 0, 62, 64
2, 303552, Note_on_c, 0, 62, 86
2, 303644, Note_off_c, 0, 62, 64
2, 303648, Note_on_c, 0, 62, 85
2, 303740, Note_off_c, 0, 62, 64
2, 303744, Note_on_c, 0, 61, 83
2, 303836, Note_off_c, 0, 61, 64
2, 303840, Note_on_c, 0, 61, 82
2, 303932, Note_off_c, 0, 61, 64
2, 303936, Note_on_c, 0, 60, 80
2, 304028, Note_off_c, 0, 60, 64
2, 304032, Note_on_c, 0, 60, 79
2, 304124, Note_off_c, 0, 60, 64
2, 304128, Note_on_c, 0, 59, 77
2, 304220, Note_off_c, 0, 59, 64
2, 304224, Note_on_c, 0, 59, 76
2, 304316, Note_off_c, 0, 59, 64
2, 304320, Note_on_c, 0, 58, 74
2, 304412, Note_off_c, 0, 58, 64
2, 304416, Note_on_c, 0, 58, 73
2, 304508, Note_off_c, 0, 58, 64
2, 304512, Note_on_c, 0, 57, 71
2, 304892, Note_off_c, 0, 57, 64
2, 304896, Note_on_c, 0, 57, 67
2, 304988, Note_off_c, 0, 57, 64
2, 304992, Note_on_c, 0, 57, 67
2, 305084, Note_off_c, 0, 57, 64
2, 305088, Note_on_c, 0, 57, 67
2, 305180, Note_off_c, 0, 57, 64
2, 305184, Note_on_c, 0, 57, 67
2, 305276, Note_off_c, 0, 57, 64
2, 305280, Note_on_c, 0, 58, 68
2, 305372, Note_off_c, 0, 58, 64
2, 305376, Note_on_c, 0, 58, 69
2, 305468, Note_off_c, 0, 58, 64
2, 305472, Note_on_c, 0, 59, 70
2, 305564, Note_off_c, 0, 59, 64
2, 305568, Note_on_c, 0, 59, 71
2, 305660, Note_off_c, 0, 59, 64
2, 305664, Note_on_c, 0, 60, 72
2, 305756, Note_off_c, 0, 60, 64
2, 305760, Note_on_c, 0, 60, 74
2, 305852, Note_off_c, 0, 60, 64
2, 305856, Note_on_c, 0, 61, 75
2, 305948, Note_off_c, 0, 61, 64
2, 305952, Note_on_c, 0, 61, 76
2, 306044, Note_off_c, 0, 61, 64
2, 306048, Note_on_c, 0, 62, 77
2, 306140, Note_off_c, 0, 62, 64
2, 306144, Note_on_c, 0, 62, 78
2, 306236, Note_off_c, 0, 62, 64
2, 306240, Note_on_c, 0, 69, 80
2, 306332, Note_off_c, 0, 69, 64
2, 306336, Note_on_c, 0, 69, 81
2, 306428, Note_off_c, 0, 69, 64
2, 306432, Note_on_c, 0, 65, 82
2, 306524, Note_off_c, 0, 65, 64
2, 306528, Note_on_c, 0, 65, 83
2, 306620, Note_off_c, 0, 65, 64
2, 306624, Note_on_c, 0, 64, 84
2, 306716, Note_off_c, 0, 64, 64
2, 306720, Note_on_c, 0, 64, 86
2, 306812, Note_off_c, 0, 64, 64
2, 306816, Note_on_c, 0, 63, 87
2, 306908, Note_off_c, 0, 63, 64
2, 306912, Note_on_c, 0, 63, 88
2, 307004, Note_off_c, 0, 63, 64
2, 307008, Note_on_c, 0, 69, 89
2, 307100, Note_off_c, 0, 69, 64
2, 307104, Note_on_c, 0, 69, 90
2, 307196, Note_off_c, 0, 69, 64
2, 307200, Note_on_c, 0, 66, 92
2, 307292, Note_off_c, 0, 66, 64
2, 307296, Note_on_c, 0, 66, 93
2, 307388, Note_off_c, 0, 66, 64
2, 307392, Note_on_c, 0, 63, 94
2, 307484, Note_off_c, 0, 63, 64
2, 307488, Note_on_c, 0, 63, 95
2, 307576, Control_c, 0, 1, 45
2, 307580, Note_off_c, 0, 63, 64
2, 307584, Note_on_c, 0, 64, 95
2, 307964, Note_off_c, 0, 64, 64
2, 307968, Note_on_c, 0, 68, 62
2, 308348, Note_off_c, 0, 68, 64
2, 308352, Note_on_c, 0, 69, 90
2, 308732, Note_off_c, 0, 69, 64
2, 308736, Note_on_c, 0, 63, 63
2, 309116, Note_off_c, 0, 63, 64
2, 309120, Note_on_c, 0, 64, 90
2, 309500, Note_off_c, 0, 64, 64
2, 309504, Note_on_c, 0, 71, 63
2, 309884, Note_off_c, 0, 71, 64
2, 309888, Note_on_c, 0, 72, 90
2, 310268, Note_off_c, 0, 72, 64
2, 310272, Note_on_c, 0, 63, 63
2, 310652, Note_off_c, 0, 63, 64
2, 310656, Key_signature, 3, "major"
2, 310656, Note_on_c, 0, 64, 63
2, 311040, Control_c, 0, 1, 45
2, 311224, Note_off_c, 0, 64, 64
2, 311232, Note_on_c, 0, 71, 63
2, 311324, Note_off_c, 0, 71, 64
2, 311328, Note_on_c, 0, 71, 63
2, 311424, Note_off_c, 0, 71, 64
2, 311424, Note_on_c, 0, 68, 63
2, 311516, Note_off_c, 0, 68, 64
2, 311520, Note_on_c, 0, 68, 63
2, 311612, Note_off_c, 0, 68, 64
2, 311616, Note_on_c, 0, 66, 63
2, 311708, Note_off_c, 0, 66, 64
2, 311712, Note_on_c, 0, 66, 63
2, 311804, Note_off_c, 0, 66, 64
2, 311808, Note_on_c, 0, 64, 63
2, 312000, Note_off_c, 0, 64, 64
2, 312000, Note_on_c, 0, 74, 70
2, 312092, Note_off_c, 0, 74, 64
2, 312096, Note_on_c, 0, 74, 73
2, 312192, Note_off_c, 0, 74, 64
2, 312192, Note_on_c, 0, 71, 77
2, 312272, Note_off_c, 0, 71, 64
2, 312288, Note_on_c, 0, 71, 80
2, 312384, Note_off_c, 0, 71, 64
2, 312384, Note_on_c, 0, 69, 83
2, 312464, Note_off_c, 0, 69, 64
2, 312480, Note_on_c, 0, 69, 86
2, 312568, Note_off_c, 0, 69, 64
2, 312576, Note_on_c, 0, 68, 62
2, 312768, Note_off_c, 0, 68, 64
2, 312768, Note_on_c, 0, 78, 62
2, 312860, Note_off_c, 0, 78, 64
2, 312864, Note_on_c, 0, 78, 62
2, 312960, Note_off_c, 0, 78, 64
2, 312960, Note_on_c, 0, 74, 62
2, 313052, Note_off_c, 0, 74, 64
2, 313056, Note_on_c, 0, 74, 65
2, 313152, Note_off_c, 0, 74, 64
2, 313152, Note_on_c, 0, 73, 68
2, 313232, Note_off_c, 0, 73, 64
2, 313248, Note_on_c, 0, 73, 71
2, 313340, Note_off_c, 0, 73, 64
2, 313344, Note_on_c, 0, 71, 74
2, 313436, Note_off_c, 0, 71, 64
2, 313440, Note_on_c, 0, 76, 77
2, 313532, Note_off_c, 0, 76, 64
2, 313536, Note_on_c, 0, 80, 81
2, 313628, Note_off_c, 0, 80, 64
2, 313632, Note_on_c, 0, 83, 86
2, 313724, Note_off_c, 0, 83, 64
2, 313728, Note_on_c, 0, 88, 76
2, 313820, Note_off_c, 0, 88, 64
2, 313824, Note_on_c, 0, 88, 76
2, 313916, Note_off_c, 0, 88, 64
2, 313920, Note_on_c, 0, 87, 75
2, 314012, Note_off_c, 0, 87, 64
2, 314016, Note_on_c, 0, 88, 76
2, 314108, Note_off_c, 0, 88, 64
2, 314112, Note_on_c, 0, 86, 75
2, 314204, Note_off_c, 0, 86, 64
2, 314208, Note_on_c, 0, 88, 76
2, 314300, Note_off_c, 0, 88, 64
2, 314304, Note_on_c, 0, 83, 73
2, 314396, Note_off_c, 0, 83, 64
2, 314400, Note_on_c, 0, 88, 76
2, 314492, Note_off_c, 0, 88, 64
2, 314496, Note_on_c, 0, 80, 71
2, 314588, Note_off_c, 0, 80, 64
2, 314592, Note_on_c, 0, 88, 76
2, 314684, Note_off_c, 0, 88, 64
2, 314688, Note_on_c, 0, 77, 70
2, 314780, Note_off_c, 0, 77, 64
2, 314784, Note_on_c, 0, 88, 76
2, 314876, Note_off_c, 0, 88, 64
2, 314880, Note_on_c, 0, 76, 70
2, 314972, Note_off_c, 0, 76, 64
2, 314976, Note_on_c, 0, 76, 70
2, 315068, Note_off_c, 0, 76, 64
2, 315072, Note_on_c, 0, 75, 69
2, 315164, Note_off_c, 0, 75, 64
2, 315168, Note_on_c, 0, 76, 70
2, 315260, Note_off_c, 0, 76, 64
2, 315264, Note_on_c, 0, 74, 69
2, 315356, Note_off_c, 0, 74, 64
2, 315360, Note_on_c, 0, 76, 70
2, 315452, Note_off_c, 0, 76, 64
2, 315456, Note_on_c, 0, 71, 66
2, 315548, Note_off_c, 0, 71, 64
2, 315552, Note_on_c, 0, 76, 70
2, 315644, Note_off_c, 0, 76, 64
2, 315648, Note_on_c, 0, 68, 65
2, 315740, Note_off_c, 0, 68, 64
2, 315744, Note_on_c, 0, 76, 70
2, 315836, Note_off_c, 0, 76, 64
2, 315840, Note_on_c, 0, 65, 64
2, 315932, Note_off_c, 0, 65, 64
2, 315936, Note_on_c, 0, 76, 70
2, 316024, Control_c, 0, 1, 45
2, 316028, Note_off_c, 0, 76, 64
2, 316032, Note_on_c, 0, 64, 77
2, 316796, Note_off_c, 0, 64, 64
2, 316800, Note_on_c, 0, 76, 80
2, 317176, Control_c, 0, 1, 45
2, 317180, Note_off_c, 0, 76, 64
2, 317184, Note_on_c, 0, 75, 84
2, 317228, Note_off_c, 0, 75, 64
2, 317232, Note_on_c, 0, 76, 84
2, 317276, Note_off_c, 0, 76, 64
2, 317280, Note_on_c, 0, 75, 83
2, 317324, Note_off_c, 0, 75, 64
2, 317328, Note_on_c, 0, 76, 82
2, 317372, Note_off_c, 0, 76, 64
2, 317376, Note_on_c, 0, 75, 82
2, 317420, Note_off_c, 0, 75, 64
2, 317424, Note_on_c, 0, 76, 81
2, 317468, Note_off_c, 0, 76, 64
2, 317472, Note_on_c, 0, 75, 80
2, 317516, Note_off_c, 0, 75, 64
2, 317520, Note_on_c, 0, 76, 79
2, 317564, Note_off_c, 0, 76, 64
2, 317568, Note_on_c, 0, 75, 79
2, 317612, Note_off_c, 0, 75, 64
2, 317616, Note_on_c, 0, 76, 78
2, 317660, Note_off_c, 0, 76, 64
2, 317664, Note_on_c, 0, 75, 77
2, 317708, Note_off_c, 0, 75, 64
2, 317712, Note_on_c, 0, 76, 77
2, 317756, Note_off_c, 0, 76, 64
2, 317760, Note_on_c, 0, 75, 76
2, 317804, Note_off_c, 0, 75, 64
2, 317808, Note_on_c, 0, 76, 75
2, 317852, Note_off_c, 0, 76, 64
2, 317856, Note_on_c, 0, 75, 74
2, 317900, Note_off_c, 0, 75, 64
2, 317904, Note_on_c, 0, 76, 74
2, 317948, Note_off_c, 0, 76, 64
2, 317952, Note_on_c, 0, 75, 73
2, 317996, Note_off_c, 0, 75, 64
2, 318000, Note_on_c, 0, 76, 72
2, 318044, Note_off_c, 0, 76, 64
2, 318048, Note_on_c, 0, 75, 72
2, 318092, Note_off_c, 0, 75, 64
2, 318096, Note_on_c, 0, 76, 71
2, 318140, Note_off_c, 0, 76, 64
2, 318144, Note_on_c, 0, 75, 70
2, 318188, Note_off_c, 0, 75, 64
2, 318192, Note_on_c, 0, 76, 69
2, 318236, Note_off_c, 0, 76, 64
2, 318240, Note_on_c, 0, 75, 69
2, 318284, Note_off_c, 0, 75, 64
2, 318288, Note_on_c, 0, 76, 68
2, 318332, Note_off_c, 0, 76, 64
2, 318336, Note_on_c, 0, 74, 67
2, 318380, Note_off_c, 0, 74, 64
2, 318384, Note_on_c, 0, 76, 66
2, 318428, Note_off_c, 0, 76, 64
2, 318432, Note_on_c, 0, 74, 66
2, 318476, Note_off_c, 0, 74, 64
2, 318480, Note_on_c, 0, 76, 65
2, 318524, Note_off_c, 0, 76, 64
2, 318528, Note_on_c, 0, 74, 64
2, 318572, Note_off_c, 0, 74, 64
2, 318576, Note_on_c, 0, 76, 64
2, 318620, Note_off_c, 0, 76, 64
2, 318624, Note_on_c, 0, 74, 63
2, 318668, Note_off_c, 0, 74, 64
2, 318672, Note_on_c, 0, 76, 62
2, 318716, Note_off_c, 0, 76, 64
2, 318720, Note_on_c, 0, 74, 62
2, 318764, Note_off_c, 0, 74, 64
2, 318768, Note_on_c, 0, 76, 62
2, 318812, Note_off_c, 0, 76, 64
2, 318816, Note_on_c, 0, 74, 62
2, 318860, Note_off_c, 0, 74, 64
2, 318864, Note_on_c, 0, 76, 62
2, 318908, Note_off_c, 0, 76, 64
2, 318912, Note_on_c, 0, 74, 62
2, 318956, Note_off_c, 0, 74, 64
2, 318960, Note_on_c, 0, 76, 62
2, 319004, Note_off_c, 0, 76, 64
2, 319008, Note_on_c, 0, 74, 62
2, 319052, Note_off_c, 0, 74, 64
2, 319056, Note_on_c, 0, 76, 62
2, 319100, Note_off_c, 0, 76, 64
2, 319104, Note_on_c, 0, 73, 62
2, 319392, Note_off_c, 0, 73, 64
2, 319392, Note_on_c, 0, 74, 62
2, 319480, Note_off_c, 0, 74, 64
2, 319488, Note_on_c, 0, 76, 62
2, 319868, Note_off_c, 0, 76, 64
2, 319872, Note_on_c, 0, 73, 62
2, 320252, Note_off_c, 0, 73, 64
2, 320256, Note_on_c, 0, 78, 62
2, 320440, Note_off_c, 0, 78, 64
2, 320640, Note_on_c, 0, 69, 62
2, 321020, Note_off_c, 0, 69, 64
2, 321024, Note_on_c, 0, 68, 62
2, 321404, Note_off_c, 0, 68, 64
2, 321408, Note_on_c, 0, 71, 62
2, 321688, Note_off_c, 0, 71, 64
2, 321696, Note_on_c, 0, 73, 62
2, 321784, Note_off_c, 0, 73, 64
2, 321984, Note_on_c, 0, 76, 62
2, 322076, Note_off_c, 0, 76, 64
2, 322080, Note_on_c, 0, 74, 62
2, 322172, Note_off_c, 0, 74, 64
2, 322368, Note_on_c, 0, 73, 62
2, 322460, Note_off_c, 0, 73, 64
2, 322464, Note_on_c, 0, 71, 62
2, 322556, Note_off_c, 0, 71, 64
2, 322752, Note_on_c, 0, 69, 62
2, 322844, Note_off_c, 0, 69, 64
2, 322848, Note_on_c, 0, 68, 62
2, 322940, Note_off_c, 0, 68, 64
2, 322944, Note_on_c, 0, 69, 62
2, 323224, Note_off_c, 0, 69, 64
2, 323232, Note_on_c, 0, 73, 62
2, 323320, Note_off_c, 0, 73, 64
2, 323328, Note_on_c, 0, 64, 62
2, 323708, Note_off_c, 0, 64, 64
2, 323712, Note_on_c, 0, 73, 62
2, 323992, Note_off_c, 0, 73, 64
2, 324000, Note_on_c, 0, 74, 62
2, 324088, Note_off_c, 0, 74, 64
2, 324096, Note_on_c, 0, 76, 62
2, 324188, Note_off_c, 0, 76, 64
2, 324288, Note_on_c, 0, 81, 62
2, 324472, Note_off_c, 0, 81, 64
2, 324480, Note_on_c, 0, 80, 62
2, 324664, Note_off_c, 0, 80, 64
2, 324672, Note_on_c, 0, 81, 62
2, 324856, Note_off_c, 0, 81, 64
2, 325056, Note_on_c, 0, 78, 62
2, 325240, Note_off_c, 0, 78, 64
2, 325248, Note_on_c, 0, 76, 62
2, 325340, Note_off_c, 0, 76, 64
2, 325440, Note_on_c, 0, 81, 62
2, 325624, Note_off_c, 0, 81, 64
2, 325632, Note_on_c, 0, 80, 62
2, 325816, Note_off_c, 0, 80, 64
2, 325824, Note_on_c, 0, 81, 62
2, 326008, Note_off_c, 0, 81, 64
2, 326208, Note_on_c, 0, 74, 62
2, 326392, Note_off_c, 0, 74, 64
2, 326400, Note_on_c, 0, 73, 62
2, 326584, Note_off_c, 0, 73, 64
2, 326592, Note_on_c, 0, 76, 62
2, 326776, Note_off_c, 0, 76, 64
2, 326784, Note_on_c, 0, 74, 62
2, 326968, Note_off_c, 0, 74, 64
2, 326976, Note_on_c, 0, 73, 62
2, 327160, Note_off_c, 0, 73, 64
2, 327168, Note_on_c, 0, 71, 62
2, 327356, Note_off_c, 0, 71, 64
2, 327360, Note_on_c, 0, 69, 62
2, 327548, Note_off_c, 0, 69, 64
2, 327552, Note_on_c, 0, 68, 62
2, 327740, Note_off_c, 0, 68, 64
2, 327744, Note_on_c, 0, 69, 62
2, 327836, Note_off_c, 0, 69, 64
2, 327936, Note_on_c, 0, 70, 62
2, 328028, Note_off_c, 0, 70, 64
2, 328128, Note_on_c, 0, 71, 62
2, 328220, Note_off_c, 0, 71, 64
2, 337152, Control_c, 0, 1, 45
2, 337344, Note_on_c, 0, 69, 84
2, 337440, Note_off_c, 0, 69, 64
2, 337440, Note_on_c, 0, 71, 84
2, 337536, Note_off_c, 0, 71, 64
2, 337536, Note_on_c, 0, 74, 84
2, 337632, Note_off_c, 0, 74, 64
2, 337632, Note_on_c, 0, 73, 84
2, 337712, Note_off_c, 0, 73, 64
2, 337728, Note_on_c, 0, 71, 84
2, 337824, Note_off_c, 0, 71, 64
2, 337824, Note_on_c, 0, 69, 84
2, 337920, Note_off_c, 0, 69, 64
2, 337920, Note_on_c, 0, 76, 84
2, 338400, Note_off_c, 0, 76, 64
2, 338400, Note_on_c, 0, 78, 84
2, 338496, Note_off_c, 0, 78, 64
2, 338496, Note_on_c, 0, 76, 84
2, 338592, Note_off_c, 0, 76, 64
2, 338592, Note_on_c, 0, 78, 84
2, 338688, Note_off_c, 0, 78, 64
2, 338688, Note_on_c, 0, 76, 84
2, 338784, Note_off_c, 0, 76, 64
2, 338784, Note_on_c, 0, 74, 84
2, 338880, Note_off_c, 0, 74, 64
2, 338880, Note_on_c, 0, 73, 84
2, 338972, Note_off_c, 0, 73, 64
2, 338976, Note_on_c, 0, 71, 84
2, 339068, Note_off_c, 0, 71, 64
2, 339072, Note_on_c, 0, 69, 84
2, 339456, Note_off_c, 0, 69, 64
2, 339648, Note_on_c, 0, 69, 62
2, 339692, Note_off_c, 0, 69, 64
2, 339744, Note_on_c, 0, 71, 62
2, 339788, Note_off_c, 0, 71, 64
2, 339840, Note_on_c, 0, 74, 62
2, 339936, Note_off_c, 0, 74, 64
2, 339936, Note_on_c, 0, 73, 62
2, 340016, Note_off_c, 0, 73, 64
2, 340032, Note_on_c, 0, 71, 62
2, 340076, Note_off_c, 0, 71, 64
2, 340128, Note_on_c, 0, 69, 62
2, 340172, Note_off_c, 0, 69, 64
2, 340224, Note_on_c, 0, 76, 62
2, 340700, Note_off_c, 0, 76, 64
2, 340704, Note_on_c, 0, 78, 62
2, 340748, Note_off_c, 0, 78, 64
2, 340800, Note_on_c, 0, 76, 62
2, 340844, Note_off_c, 0, 76, 64
2, 340896, Note_on_c, 0, 78, 62
2, 340940, Note_off_c, 0, 78, 64
2, 340992, Note_on_c, 0, 76, 62
2, 341036, Note_off_c, 0, 76, 64
2, 341088, Note_on_c, 0, 74, 62
2, 341132, Note_off_c, 0, 74, 64
2, 341184, Note_on_c, 0, 73, 62
2, 341228, Note_off_c, 0, 73, 64
2, 341280, Note_on_c, 0, 71, 62
2, 341324, Note_off_c, 0, 71, 64
2, 341376, Note_on_c, 0, 69, 62
2, 341756, Note_off_c, 0, 69, 64
2, 342144, Note_on_c, 0, 63, 67
2, 342200, Note_off_c, 0, 63, 64
2, 342204, Note_on_c, 0, 64, 57
2, 342296, Note_off_c, 0, 64, 64
2, 342528, Note_on_c, 0, 68, 67
2, 342584, Note_off_c, 0, 68, 64
2, 342588, Note_on_c, 0, 69, 57
2, 342680, Note_off_c, 0, 69, 64
2, 342912, Note_on_c, 0, 72, 67
2, 342968, Note_off_c, 0, 72, 64
2, 342972, Note_on_c, 0, 73, 57
2, 343064, Note_off_c, 0, 73, 64
2, 343296, Note_on_c, 0, 75, 67
2, 343352, Note_off_c, 0, 75, 64
2, 343356, Note_on_c, 0, 76, 57
2, 343448, Note_off_c, 0, 76, 64
2, 343680, Note_on_c, 0, 80, 67
2, 343736, Note_off_c, 0, 80, 64
2, 343740, Note_on_c, 0, 81, 57
2, 343832, Note_off_c, 0, 81, 64
2, 344448, Note_on_c, 0, 76, 62
2, 344540, Note_off_c, 0, 76, 64
2, 344544, Note_on_c, 0, 78, 62
2, 344636, Note_off_c, 0, 78, 64
2, 344640, Note_on_c, 0, 76, 62
2, 344732, Note_off_c, 0, 76, 64
2, 344736, Note_on_c, 0, 74, 62
2, 344828, Note_off_c, 0, 74, 64
2, 344832, Note_on_c, 0, 73, 62
2, 345400, Note_off_c, 0, 73, 64
2, 345408, Note_on_c, 0, 76, 62
2, 345592, Note_off_c, 0, 76, 64
2, 345600, Note_on_c, 0, 81, 62
2, 345792, Note_off_c, 0, 81, 64
2, 345792, Note_on_c, 0, 85, 62
2, 345976, Note_off_c, 0, 85, 64
2, 345984, Note_on_c, 0, 85, 75
2, 346040, Note_off_c, 0, 85, 64
2, 346044, Note_on_c, 0, 86, 62
2, 346360, Note_off_c, 0, 86, 64
2, 346368, Note_on_c, 0, 81, 62
2, 346560, Note_off_c, 0, 81, 64
2, 346560, Note_on_c, 0, 78, 62
2, 346744, Note_off_c, 0, 78, 64
2, 346752, Note_on_c, 0, 74, 62
2, 346844, Note_off_c, 0, 74, 64
2, 346848, Note_on_c, 0, 78, 62
2, 346940, Note_off_c, 0, 78, 64
2, 346944, Note_on_c, 0, 76, 62
2, 347036, Note_off_c, 0, 76, 64
2, 347040, Note_on_c, 0, 74, 62
2, 347132, Note_off_c, 0, 74, 64
2, 347136, Note_on_c, 0, 79, 62
2, 347704, Note_off_c, 0, 79, 64
2, 347712, Note_on_c, 0, 76, 62
2, 347896, Note_off_c, 0, 76, 64
2, 347904, Note_on_c, 0, 73, 62
2, 348088, Note_off_c, 0, 73, 64
2, 348096, Note_on_c, 0, 67, 62
2, 348280, Note_off_c, 0, 67, 64
2, 348288, Note_on_c, 0, 68, 72
2, 348344, Note_off_c, 0, 68, 64
2, 348348, Note_on_c, 0, 66, 62
2, 348664, Note_off_c, 0, 66, 64
2, 348672, Note_on_c, 0, 64, 62
2, 348856, Note_off_c, 0, 64, 64
2, 348864, Note_on_c, 0, 62, 62
2, 349048, Note_off_c, 0, 62, 64
2, 349056, Note_on_c, 0, 74, 62
2, 349148, Note_off_c, 0, 74, 64
2, 349152, Note_on_c, 0, 73, 62
2, 349244, Note_off_c, 0, 73, 64
2, 349248, Note_on_c, 0, 74, 62
2, 349340, Note_off_c, 0, 74, 64
2, 349344, Note_on_c, 0, 76, 62
2, 349436, Note_off_c, 0, 76, 64
2, 349440, Note_on_c, 0, 78, 62
2, 350008, Note_off_c, 0, 78, 64
2, 350016, Note_on_c, 0, 80, 70
2, 350112, Note_off_c, 0, 80, 64
2, 350112, Note_on_c, 0, 83, 73
2, 350192, Note_off_c, 0, 83, 64
2, 350208, Note_on_c, 0, 81, 75
2, 350304, Note_off_c, 0, 81, 64
2, 350304, Note_on_c, 0, 85, 75
2, 350384, Note_off_c, 0, 85, 64
2, 350400, Note_on_c, 0, 83, 79
2, 350496, Note_off_c, 0, 83, 64
2, 350496, Note_on_c, 0, 86, 80
2, 350576, Note_off_c, 0, 86, 64
2, 350592, Note_on_c, 0, 86, 83
2, 350784, Note_off_c, 0, 86, 64
2, 350784, Note_on_c, 0, 85, 83
2, 350964, Note_off_c, 0, 85, 64
2, 350976, Note_on_c, 0, 83, 83
2, 351168, Note_off_c, 0, 83, 64
2, 351168, Note_on_c, 0, 81, 83
2, 351348, Note_off_c, 0, 81, 64
2, 351360, Note_on_c, 0, 83, 83
2, 351552, Note_off_c, 0, 83, 64
2, 351552, Note_on_c, 0, 81, 83
2, 351732, Note_off_c, 0, 81, 64
2, 351744, Note_on_c, 0, 80, 83
2, 351936, Note_off_c, 0, 80, 64
2, 351936, Note_on_c, 0, 78, 83
2, 352116, Note_off_c, 0, 78, 64
2, 352128, Note_on_c, 0, 80, 80
2, 352320, Note_off_c, 0, 80, 64
2, 352320, Note_on_c, 0, 78, 79
2, 352508, Note_off_c, 0, 78, 64
2, 352512, Note_on_c, 0, 76, 75
2, 352704, Note_off_c, 0, 76, 64
2, 352704, Note_on_c, 0, 74, 74
2, 352892, Note_off_c, 0, 74, 64
2, 352896, Note_on_c, 0, 73, 69
2, 353280, Note_off_c, 0, 73, 64
2, 353280, Note_on_c, 0, 71, 63
2, 353656, Note_off_c, 0, 71, 64
2, 354816, Note_on_c, 0, 73, 83
2, 355000, Note_off_c, 0, 73, 64
2, 355008, Note_on_c, 0, 74, 83
2, 355192, Note_off_c, 0, 74, 64
2, 355200, Note_on_c, 0, 78, 93
2, 355256, Note_off_c, 0, 78, 64
2, 355260, Note_on_c, 0, 76, 83
2, 355348, Note_off_c, 0, 76, 64
2, 355392, Note_on_c, 0, 76, 83
2, 355436, Note_off_c, 0, 76, 64
2, 355488, Note_on_c, 0, 74, 83
2, 355532, Note_off_c, 0, 74, 64
2, 355584, Note_on_c, 0, 78, 95
2, 356152, Note_off_c, 0, 78, 64
2, 356160, Note_on_c, 0, 76, 83
2, 356344, Note_off_c, 0, 76, 64
2, 356352, Note_on_c, 0, 76, 93
2, 356408, Note_off_c, 0, 76, 64
2, 356412, Note_on_c, 0, 74, 83
2, 356500, Note_off_c, 0, 74, 64
2, 356544, Note_on_c, 0, 74, 83
2, 356588, Note_off_c, 0, 74, 64
2, 356640, Note_on_c, 0, 73, 83
2, 356684, Note_off_c, 0, 73, 64
2, 356736, Note_on_c, 0, 76, 95
2, 357304, Note_off_c, 0, 76, 64
2, 357312, Note_on_c, 0, 74, 83
2, 357496, Note_off_c, 0, 74, 64
2, 357504, Note_on_c, 0, 73, 83
2, 357596, Note_off_c, 0, 73, 64
2, 357696, Note_on_c, 0, 73, 83
2, 357740, Note_off_c, 0, 73, 64
2, 357792, Note_on_c, 0, 69, 83
2, 357836, Note_off_c, 0, 69, 64
2, 357888, Note_on_c, 0, 76, 100
2, 357944, Note_off_c, 0, 76, 64
2, 357948, Note_on_c, 0, 74, 93
2, 358072, Note_off_c, 0, 74, 64
2, 358080, Note_on_c, 0, 74, 83
2, 358124, Note_off_c, 0, 74, 64
2, 358176, Note_on_c, 0, 73, 83
2, 358220, Note_off_c, 0, 73, 64
2, 358272, Note_on_c, 0, 73, 100
2, 358328, Note_off_c, 0, 73, 64
2, 358332, Note_on_c, 0, 71, 93
2, 358456, Note_off_c, 0, 71, 64
2, 358464, Note_on_c, 0, 71, 83
2, 358508, Note_off_c, 0, 71, 64
2, 358560, Note_on_c, 0, 69, 83
2, 358604, Note_off_c, 0, 69, 64
2, 358656, Note_on_c, 0, 68, 83
2, 358748, Note_off_c, 0, 68, 64
2, 358752, Note_on_c, 0, 69, 83
2, 358844, Note_off_c, 0, 69, 64
2, 358848, Note_on_c, 0, 71, 83
2, 358892, Note_off_c, 0, 71, 64
2, 358944, Note_on_c, 0, 68, 83
2, 358988, Note_off_c, 0, 68, 64
2, 359040, Note_on_c, 0, 64, 83
2, 359420, Note_off_c, 0, 64, 64
2, 359424, Note_on_c, 0, 85, 58
2, 359520, Note_off_c, 0, 85, 64
2, 359520, Note_on_c, 0, 81, 58
2, 359600, Note_off_c, 0, 81, 64
2, 359616, Note_on_c, 0, 86, 58
2, 359712, Note_off_c, 0, 86, 64
2, 359712, Note_on_c, 0, 83, 58
2, 359792, Note_off_c, 0, 83, 64
2, 359808, Note_on_c, 0, 88, 58
2, 359900, Note_off_c, 0, 88, 64
2, 359904, Note_on_c, 0, 87, 58
2, 359996, Note_off_c, 0, 87, 64
2, 360000, Note_on_c, 0, 88, 58
2, 360092, Note_off_c, 0, 88, 64
2, 360096, Note_on_c, 0, 85, 58
2, 360188, Note_off_c, 0, 85, 64
2, 360192, Note_on_c, 0, 90, 62
2, 360760, Note_off_c, 0, 90, 64
2, 360768, Note_on_c, 0, 88, 58
2, 360952, Note_off_c, 0, 88, 64
2, 360960, Note_on_c, 0, 86, 58
2, 361052, Note_off_c, 0, 86, 64
2, 361056, Note_on_c, 0, 85, 58
2, 361148, Note_off_c, 0, 85, 64
2, 361152, Note_on_c, 0, 86, 58
2, 361244, Note_off_c, 0, 86, 64
2, 361248, Note_on_c, 0, 83, 58
2, 361340, Note_off_c, 0, 83, 64
2, 361344, Note_on_c, 0, 88, 62
2, 361912, Note_off_c, 0, 88, 64
2, 361920, Note_on_c, 0, 86, 58
2, 362108, Note_off_c, 0, 86, 64
2, 362112, Note_on_c, 0, 85, 58
2, 362208, Note_off_c, 0, 85, 64
2, 362208, Note_on_c, 0, 86, 58
2, 362288, Note_off_c, 0, 86, 64
2, 362304, Note_on_c, 0, 85, 58
2, 362348, Note_off_c, 0, 85, 64
2, 362400, Note_on_c, 0, 83, 58
2, 362444, Note_off_c, 0, 83, 64
2, 362496, Note_on_c, 0, 81, 58
2, 362592, Note_off_c, 0, 81, 64
2, 362592, Note_on_c, 0, 80, 58
2, 362672, Note_off_c, 0, 80, 64
2, 362688, Note_on_c, 0, 81, 58
2, 362732, Note_off_c, 0, 81, 64
2, 362784, Note_on_c, 0, 83, 58
2, 362828, Note_off_c, 0, 83, 64
2, 362880, Note_on_c, 0, 85, 58
2, 362976, Note_off_c, 0, 85, 64
2, 362976, Note_on_c, 0, 83, 58
2, 363056, Note_off_c, 0, 83, 64
2, 363072, Note_on_c, 0, 85, 58
2, 363116, Note_off_c, 0, 85, 64
2, 363168, Note_on_c, 0, 87, 58
2, 363212, Note_off_c, 0, 87, 64
2, 363264, Note_on_c, 0, 87, 58
2, 363648, Note_off_c, 0, 87, 64
2, 363648, Note_on_c, 0, 88, 58
2, 364024, Note_off_c, 0, 88, 64
2, 364032, Note_on_c, 0, 76, 83
2, 364124, Note_off_c, 0, 76, 64
2, 364224, Note_on_c, 0, 76, 83
2, 364316, Note_off_c, 0, 76, 64
2, 364416, Note_on_c, 0, 88, 83
2, 364512, Note_off_c, 0, 88, 64
2, 364512, Note_on_c, 0, 85, 83
2, 364608, Note_off_c, 0, 85, 64
2, 364608, Note_on_c, 0, 81, 83
2, 364704, Note_off_c, 0, 81, 64
2, 364704, Note_on_c, 0, 76, 83
2, 364800, Note_off_c, 0, 76, 64
2, 364800, Note_on_c, 0, 73, 83
2, 364896, Note_off_c, 0, 73, 64
2, 364896, Note_on_c, 0, 76, 83
2, 364976, Note_off_c, 0, 76, 64
2, 364992, Note_on_c, 0, 69, 83
2, 365088, Note_off_c, 0, 69, 64
2, 365088, Note_on_c, 0, 76, 83
2, 365168, Note_off_c, 0, 76, 64
2, 365184, Note_on_c, 0, 73, 83
2, 365280, Note_off_c, 0, 73, 64
2, 365280, Note_on_c, 0, 76, 83
2, 365360, Note_off_c, 0, 76, 64
2, 365376, Note_on_c, 0, 69, 83
2, 365472, Note_off_c, 0, 69, 64
2, 365472, Note_on_c, 0, 76, 83
2, 365552, Note_off_c, 0, 76, 64
2, 365568, Note_on_c, 0, 71, 83
2, 365664, Note_off_c, 0, 71, 64
2, 365664, Note_on_c, 0, 76, 83
2, 365760, Note_off_c, 0, 76, 64
2, 365760, Note_on_c, 0, 80, 83
2, 365856, Note_off_c, 0, 80, 64
2, 365856, Note_on_c, 0, 76, 83
2, 365952, Note_off_c, 0, 76, 64
2, 365952, Note_on_c, 0, 83, 83
2, 366048, Note_off_c, 0, 83, 64
2, 366048, Note_on_c, 0, 81, 83
2, 366128, Note_off_c, 0, 81, 64
2, 366144, Note_on_c, 0, 80, 83
2, 366240, Note_off_c, 0, 80, 64
2, 366240, Note_on_c, 0, 78, 83
2, 366336, Note_off_c, 0, 78, 64
2, 366336, Note_on_c, 0, 76, 83
2, 366432, Note_off_c, 0, 76, 64
2, 366432, Note_on_c, 0, 74, 83
2, 366512, Note_off_c, 0, 74, 64
2, 366528, Note_on_c, 0, 73, 83
2, 366620, Note_off_c, 0, 73, 64
2, 366624, Note_on_c, 0, 71, 83
2, 366716, Note_off_c, 0, 71, 64
2, 366720, Note_on_c, 0, 76, 75
2, 366816, Note_off_c, 0, 76, 64
2, 366816, Note_on_c, 0, 73, 75
2, 366912, Note_off_c, 0, 73, 64
2, 366912, Note_on_c, 0, 69, 75
2, 367008, Note_off_c, 0, 69, 64
2, 367008, Note_on_c, 0, 64, 75
2, 367104, Note_off_c, 0, 64, 64
2, 367104, Note_on_c, 0, 61, 75
2, 367200, Note_off_c, 0, 61, 64
2, 367200, Note_on_c, 0, 64, 75
2, 367280, Note_off_c, 0, 64, 64
2, 367296, Note_on_c, 0, 57, 75
2, 367392, Note_off_c, 0, 57, 64
2, 367392, Note_on_c, 0, 64, 75
2, 367472, Note_off_c, 0, 64, 64
2, 367488, Note_on_c, 0, 61, 75
2, 367584, Note_off_c, 0, 61, 64
2, 367584, Note_on_c, 0, 64, 75
2, 367664, Note_off_c, 0, 64, 64
2, 367680, Note_on_c, 0, 57, 75
2, 367776, Note_off_c, 0, 57, 64
2, 367776, Note_on_c, 0, 64, 75
2, 367856, Note_off_c, 0, 64, 64
2, 367872, Note_on_c, 0, 59, 75
2, 367968, Note_off_c, 0, 59, 64
2, 367968, Note_on_c, 0, 64, 75
2, 368064, Note_off_c, 0, 64, 64
2, 368064, Note_on_c, 0, 68, 75
2, 368160, Note_off_c, 0, 68, 64
2, 368160, Note_on_c, 0, 71, 75
2, 368256, Note_off_c, 0, 71, 64
2, 368256, Note_on_c, 0, 74, 75
2, 368352, Note_off_c, 0, 74, 64
2, 368352, Note_on_c, 0, 73, 75
2, 368432, Note_off_c, 0, 73, 64
2, 368448, Note_on_c, 0, 71, 75
2, 368544, Note_off_c, 0, 71, 64
2, 368544, Note_on_c, 0, 69, 75
2, 368640, Note_off_c, 0, 69, 64
2, 368640, Note_on_c, 0, 68, 75
2, 368736, Note_off_c, 0, 68, 64
2, 368736, Note_on_c, 0, 66, 75
2, 368816, Note_off_c, 0, 66, 64
2, 368832, Note_on_c, 0, 64, 75
2, 368928, Note_off_c, 0, 64, 64
2, 368928, Note_on_c, 0, 62, 75
2, 369024, Note_off_c, 0, 62, 64
2, 369024, Note_on_c, 0, 61, 75
2, 369068, Note_off_c, 0, 61, 64
2, 369072, Note_on_c, 0, 64, 73
2, 369116, Note_off_c, 0, 64, 64
2, 369120, Note_on_c, 0, 69, 63
2, 369400, Note_off_c, 0, 69, 64
2, 369408, Note_on_c, 0, 71, 63
2, 369788, Note_off_c, 0, 71, 64
2, 369792, Note_on_c, 0, 73, 69
2, 370172, Note_off_c, 0, 73, 64
2, 370176, Note_on_c, 0, 74, 75
2, 370360, Note_off_c, 0, 74, 64
2, 370464, Note_on_c, 0, 76, 78
2, 370508, Note_off_c, 0, 76, 64
2, 370512, Note_on_c, 0, 78, 79
2, 370556, Note_off_c, 0, 78, 64
2, 370560, Note_on_c, 0, 76, 69
2, 370652, Note_off_c, 0, 76, 64
2, 370752, Note_on_c, 0, 74, 64
2, 370844, Note_off_c, 0, 74, 64
2, 370944, Note_on_c, 0, 73, 59
2, 371036, Note_off_c, 0, 73, 64
2, 371328, Note_on_c, 0, 73, 68
2, 371384, Note_off_c, 0, 73, 64
2, 371388, Note_on_c, 0, 71, 58
2, 371704, Note_off_c, 0, 71, 64
2, 371712, Note_on_c, 0, 69, 58
2, 372092, Note_off_c, 0, 69, 64
2, 372096, Note_on_c, 0, 68, 58
2, 372476, Note_off_c, 0, 68, 64
2, 372480, Note_on_c, 0, 81, 59
2, 372572, Note_off_c, 0, 81, 64
2, 372576, Note_on_c, 0, 83, 61
2, 372668, Note_off_c, 0, 83, 64
2, 372672, Note_on_c, 0, 85, 63
2, 372764, Note_off_c, 0, 85, 64
2, 372768, Note_on_c, 0, 81, 65
2, 372860, Note_off_c, 0, 81, 64
2, 372864, Note_on_c, 0, 83, 68
2, 372956, Note_off_c, 0, 83, 64
2, 372960, Note_on_c, 0, 85, 70
2, 373052, Note_off_c, 0, 85, 64
2, 373056, Note_on_c, 0, 86, 72
2, 373148, Note_off_c, 0, 86, 64
2, 373152, Note_on_c, 0, 83, 74
2, 373244, Note_off_c, 0, 83, 64
2, 373248, Note_on_c, 0, 85, 77
2, 373340, Note_off_c, 0, 85, 64
2, 373344, Note_on_c, 0, 86, 79
2, 373436, Note_off_c, 0, 86, 64
2, 373440, Note_on_c, 0, 88, 81
2, 373532, Note_off_c, 0, 88, 64
2, 373536, Note_on_c, 0, 85, 83
2, 373628, Note_off_c, 0, 85, 64
2, 373632, Note_on_c, 0, 86, 85
2, 373724, Note_off_c, 0, 86, 64
2, 373728, Note_on_c, 0, 88, 83
2, 373820, Note_off_c, 0, 88, 64
2, 373824, Note_on_c, 0, 90, 81
2, 373916, Note_off_c, 0, 90, 64
2, 373920, Note_on_c, 0, 88, 78
2, 374012, Note_off_c, 0, 88, 64
2, 374016, Note_on_c, 0, 90, 76
2, 374108, Note_off_c, 0, 90, 64
2, 374112, Note_on_c, 0, 88, 73
2, 374204, Note_off_c, 0, 88, 64
2, 374208, Note_on_c, 0, 90, 71
2, 374300, Note_off_c, 0, 90, 64
2, 374304, Note_on_c, 0, 86, 69
2, 374396, Note_off_c, 0, 86, 64
2, 374400, Note_on_c, 0, 85, 66
2, 374588, Note_off_c, 0, 85, 64
2, 374784, Note_on_c, 0, 86, 56
2, 374876, Note_off_c, 0, 86, 64
2, 374880, Note_on_c, 0, 88, 56
2, 374972, Note_off_c, 0, 88, 64
2, 374976, Note_on_c, 0, 90, 56
2, 375068, Note_off_c, 0, 90, 64
2, 375072, Note_on_c, 0, 88, 56
2, 375164, Note_off_c, 0, 88, 64
2, 375168, Note_on_c, 0, 90, 56
2, 375260, Note_off_c, 0, 90, 64
2, 375264, Note_on_c, 0, 88, 56
2, 375356, Note_off_c, 0, 88, 64
2, 375360, Note_on_c, 0, 90, 56
2, 375452, Note_off_c, 0, 90, 64
2, 375456, Note_on_c, 0, 86, 56
2, 375548, Note_off_c, 0, 86, 64
2, 375552, Note_on_c, 0, 85, 56
2, 375740, Note_off_c, 0, 85, 64
2, 375936, Note_on_c, 0, 85, 83
2, 376032, Note_off_c, 0, 85, 64
2, 376032, Note_on_c, 0, 83, 83
2, 376112, Note_off_c, 0, 83, 64
2, 376128, Note_on_c, 0, 86, 83
2, 376224, Note_off_c, 0, 86, 64
2, 376224, Note_on_c, 0, 83, 83
2, 376320, Note_off_c, 0, 83, 64
2, 376320, Note_on_c, 0, 81, 83
2, 376700, Note_off_c, 0, 81, 64
2, 376704, Note_on_c, 0, 80, 83
2, 376748, Note_off_c, 0, 80, 64
2, 376752, Note_on_c, 0, 81, 83
2, 376796, Note_off_c, 0, 81, 64
2, 376800, Note_on_c, 0, 80, 83
2, 376844, Note_off_c, 0, 80, 64
2, 376848, Note_on_c, 0, 81, 83
2, 376892, Note_off_c, 0, 81, 64
2, 376896, Note_on_c, 0, 78, 83
2, 376988, Note_off_c, 0, 78, 64
2, 376992, Note_on_c, 0, 80, 83
2, 377080, Control_c, 0, 1, 45
2, 377084, Note_off_c, 0, 80, 64
2, 377088, Note_on_c, 0, 81, 75
2, 377656, Note_off_c, 0, 81, 64
2, 377664, Note_on_c, 0, 73, 68
2, 377848, Note_off_c, 0, 73, 64
2, 377856, Note_on_c, 0, 76, 62
2, 378136, Note_off_c, 0, 76, 64
2, 378144, Note_on_c, 0, 73, 62
2, 378232, Note_off_c, 0, 73, 64
2, 378240, Note_on_c, 0, 78, 62
2, 378620, Note_off_c, 0, 78, 64
2, 379008, Note_on_c, 0, 74, 62
2, 379288, Note_off_c, 0, 74, 64
2, 379296, Note_on_c, 0, 71, 62
2, 379384, Note_off_c, 0, 71, 64
2, 379392, Note_on_c, 0, 74, 62
2, 379772, Note_off_c, 0, 74, 64
2, 380160, Note_on_c, 0, 71, 62
2, 380440, Note_off_c, 0, 71, 64
2, 380448, Note_on_c, 0, 68, 62
2, 380536, Note_off_c, 0, 68, 64
2, 380544, Note_on_c, 0, 69, 62
2, 381112, Note_off_c, 0, 69, 64
2, 381120, Note_on_c, 0, 81, 83
2, 381208, Note_off_c, 0, 81, 64
2, 381216, Note_on_c, 0, 85, 83
2, 381308, Note_off_c, 0, 85, 64
2, 381312, Note_on_c, 0, 88, 83
2, 381404, Note_off_c, 0, 88, 64
2, 381408, Note_on_c, 0, 85, 83
2, 381500, Note_off_c, 0, 85, 64
2, 381504, Note_on_c, 0, 88, 83
2, 381596, Note_off_c, 0, 88, 64
2, 381600, Note_on_c, 0, 85, 83
2, 381692, Note_off_c, 0, 85, 64
2, 381696, Note_on_c, 0, 90, 83
2, 382460, Note_off_c, 0, 90, 64
2, 382464, Note_on_c, 0, 86, 83
2, 382556, Note_off_c, 0, 86, 64
2, 382560, Note_on_c, 0, 83, 83
2, 382652, Note_off_c, 0, 83, 64
2, 382656, Note_on_c, 0, 86, 83
2, 382748, Note_off_c, 0, 86, 64
2, 382752, Note_on_c, 0, 83, 83
2, 382844, Note_off_c, 0, 83, 64
2, 382848, Note_on_c, 0, 86, 83
2, 383612, Note_off_c, 0, 86, 64
2, 383616, Note_on_c, 0, 83, 83
2, 383708, Note_off_c, 0, 83, 64
2, 383712, Note_on_c, 0, 80, 83
2, 383804, Note_off_c, 0, 80, 64
2, 383808, Note_on_c, 0, 83, 83
2, 383900, Note_off_c, 0, 83, 64
2, 383904, Note_on_c, 0, 80, 83
2, 383996, Note_off_c, 0, 80, 64
2, 384000, Note_on_c, 0, 83, 94
2, 384056, Note_off_c, 0, 83, 64
2, 384060, Note_on_c, 0, 81, 83
2, 384376, Note_off_c, 0, 81, 64
2, 384384, Note_on_c, 0, 81, 83
2, 384568, Note_off_c, 0, 81, 64
2, 384768, Note_on_c, 0, 81, 83
2, 384952, Note_off_c, 0, 81, 64
2, 385152, Note_on_c, 0, 81, 83
2, 385916, Note_off_c, 0, 81, 64
2, 385920, Note_on_c, 0, 73, 63
2, 386208, Note_off_c, 0, 73, 64
2, 386208, Note_on_c, 0, 74, 63
2, 386288, Note_off_c, 0, 74, 64
2, 386304, Note_on_c, 0, 76, 63
2, 386688, Note_off_c, 0, 76, 64
2, 386688, Note_on_c, 0, 73, 63
2, 387064, Note_off_c, 0, 73, 64
2, 387072, Note_on_c, 0, 77, 73
2, 387128, Note_off_c, 0, 77, 64
2, 387132, Note_on_c, 0, 78, 63
2, 387220, Note_off_c, 0, 78, 64
2, 387264, Note_on_c, 0, 77, 73
2, 387320, Note_off_c, 0, 77, 64
2, 387324, Note_on_c, 0, 78, 63
2, 387412, Note_off_c, 0, 78, 64
2, 387456, Note_on_c, 0, 69, 63
2, 387840, Note_off_c, 0, 69, 64
2, 387840, Note_on_c, 0, 68, 63
2, 388216, Note_off_c, 0, 68, 64
2, 388224, Note_on_c, 0, 71, 63
2, 388512, Note_off_c, 0, 71, 64
2, 388512, Note_on_c, 0, 73, 63
2, 388592, Note_off_c, 0, 73, 64
2, 388608, Note_on_c, 0, 76, 63
2, 388700, Note_off_c, 0, 76, 64
2, 388704, Note_on_c, 0, 74, 63
2, 388796, Note_off_c, 0, 74, 64
2, 388800, Note_on_c, 0, 76, 63
2, 388892, Note_off_c, 0, 76, 64
2, 388896, Note_on_c, 0, 74, 63
2, 388988, Note_off_c, 0, 74, 64
2, 388992, Note_on_c, 0, 73, 63
2, 389084, Note_off_c, 0, 73, 64
2, 389088, Note_on_c, 0, 71, 63
2, 389180, Note_off_c, 0, 71, 64
2, 389184, Note_on_c, 0, 73, 63
2, 389276, Note_off_c, 0, 73, 64
2, 389280, Note_on_c, 0, 71, 63
2, 389372, Note_off_c, 0, 71, 64
2, 389376, Note_on_c, 0, 69, 63
2, 389468, Note_off_c, 0, 69, 64
2, 389472, Note_on_c, 0, 68, 63
2, 389564, Note_off_c, 0, 68, 64
2, 389568, Note_on_c, 0, 69, 63
2, 389660, Note_off_c, 0, 69, 64
2, 389664, Note_on_c, 0, 68, 63
2, 389756, Note_off_c, 0, 68, 64
2, 389760, Note_on_c, 0, 69, 63
2, 390048, Note_off_c, 0, 69, 64
2, 390048, Note_on_c, 0, 73, 63
2, 390128, Note_off_c, 0, 73, 64
2, 390144, Note_on_c, 0, 64, 63
2, 390520, Note_off_c, 0, 64, 64
2, 390528, Note_on_c, 0, 73, 68
2, 390572, Note_off_c, 0, 73, 64
2, 390576, Note_on_c, 0, 74, 69
2, 390620, Note_off_c, 0, 74, 64
2, 390624, Note_on_c, 0, 71, 63
2, 390716, Note_off_c, 0, 71, 64
2, 390720, Note_on_c, 0, 73, 63
2, 390812, Note_off_c, 0, 73, 64
2, 390816, Note_on_c, 0, 74, 63
2, 390908, Note_off_c, 0, 74, 64
2, 390912, Note_on_c, 0, 76, 63
2, 390972, Note_off_c, 0, 76, 64
2, 391040, Note_on_c, 0, 81, 63
2, 391160, Note_off_c, 0, 81, 64
2, 391168, Note_on_c, 0, 80, 63
2, 391288, Note_off_c, 0, 80, 64
2, 391296, Note_on_c, 0, 81, 63
2, 391416, Note_off_c, 0, 81, 64
2, 391424, Note_on_c, 0, 80, 63
2, 391544, Note_off_c, 0, 80, 64
2, 391552, Note_on_c, 0, 81, 63
2, 391672, Note_off_c, 0, 81, 64
2, 391872, Note_on_c, 0, 78, 56
2, 392056, Note_off_c, 0, 78, 64
2, 392064, Note_on_c, 0, 76, 56
2, 392184, Note_off_c, 0, 76, 64
2, 392192, Note_on_c, 0, 81, 56
2, 392312, Note_off_c, 0, 81, 64
2, 392320, Note_on_c, 0, 80, 56
2, 392440, Note_off_c, 0, 80, 64
2, 392448, Note_on_c, 0, 81, 56
2, 392568, Note_off_c, 0, 81, 64
2, 392576, Note_on_c, 0, 80, 56
2, 392696, Note_off_c, 0, 80, 64
2, 392704, Note_on_c, 0, 81, 56
2, 392824, Note_off_c, 0, 81, 64
2, 393024, Note_on_c, 0, 74, 56
2, 393208, Note_off_c, 0, 74, 64
2, 393216, Note_on_c, 0, 73, 56
2, 393336, Note_off_c, 0, 73, 64
2, 393344, Note_on_c, 0, 74, 56
2, 393464, Note_off_c, 0, 74, 64
2, 393472, Note_on_c, 0, 76, 56
2, 393592, Note_off_c, 0, 76, 64
2, 393600, Note_on_c, 0, 74, 57
2, 393720, Note_off_c, 0, 74, 64
2, 393728, Note_on_c, 0, 76, 58
2, 393848, Note_off_c, 0, 76, 64
2, 393856, Note_on_c, 0, 73, 59
2, 393976, Note_off_c, 0, 73, 64
2, 393984, Note_on_c, 0, 71, 60
2, 394104, Note_off_c, 0, 71, 64
2, 394112, Note_on_c, 0, 73, 61
2, 394232, Note_off_c, 0, 73, 64
2, 394240, Note_on_c, 0, 69, 62
2, 394360, Note_off_c, 0, 69, 64
2, 394368, Note_on_c, 0, 68, 63
2, 394552, Note_off_c, 0, 68, 64
2, 394560, Note_on_c, 0, 69, 64
2, 394744, Note_off_c, 0, 69, 64
2, 394752, Note_on_c, 0, 70, 65
2, 394936, Note_off_c, 0, 70, 64
2, 394944, Note_on_c, 0, 71, 66
2, 395128, Note_off_c, 0, 71, 64
2, 411648, Control_c, 0, 1, 45
2, 412224, Note_on_c, 0, 69, 83
2, 412320, Note_off_c, 0, 69, 64
2, 412320, Note_on_c, 0, 71, 83
2, 412416, Note_off_c, 0, 71, 64
2, 412416, Note_on_c, 0, 74, 83
2, 412512, Note_off_c, 0, 74, 64
2, 412512, Note_on_c, 0, 73, 83
2, 412592, Note_off_c, 0, 73, 64
2, 412608, Note_on_c, 0, 71, 83
2, 412704, Note_off_c, 0, 71, 64
2, 412704, Note_on_c, 0, 69, 83
2, 412800, Note_off_c, 0, 69, 64
2, 412800, Note_on_c, 0, 76, 83
2, 413280, Note_off_c, 0, 76, 64
2, 413280, Note_on_c, 0, 78, 83
2, 413376, Note_off_c, 0, 78, 64
2, 413376, Note_on_c, 0, 76, 83
2, 413472, Note_off_c, 0, 76, 64
2, 413472, Note_on_c, 0, 78, 83
2, 413568, Note_off_c, 0, 78, 64
2, 413568, Note_on_c, 0, 76, 83
2, 413664, Note_off_c, 0, 76, 64
2, 413664, Note_on_c, 0, 74, 83
2, 413760, Note_off_c, 0, 74, 64
2, 413760, Note_on_c, 0, 73, 83
2, 413856, Note_off_c, 0, 73, 64
2, 413856, Note_on_c, 0, 71, 83
2, 413952, Note_off_c, 0, 71, 64
2, 413952, Note_on_c, 0, 69, 83
2, 414332, Note_off_c, 0, 69, 64
2, 414528, Note_on_c, 0, 69, 83
2, 414572, Note_off_c, 0, 69, 64
2, 414624, Note_on_c, 0, 71, 83
2, 414668, Note_off_c, 0, 71, 64
2, 414720, Note_on_c, 0, 74, 83
2, 414816, Note_off_c, 0, 74, 64
2, 414816, Note_on_c, 0, 73, 83
2, 414896, Note_off_c, 0, 73, 64
2, 414912, Note_on_c, 0, 71, 83
2, 414956, Note_off_c, 0, 71, 64
2, 415008, Note_on_c, 0, 69, 83
2, 415052, Note_off_c, 0, 69, 64
2, 415104, Note_on_c, 0, 76, 83
2, 415584, Note_off_c, 0, 76, 64
2, 415584, Note_on_c, 0, 78, 83
2, 415628, Note_off_c, 0, 78, 64
2, 415680, Note_on_c, 0, 76, 83
2, 415724, Note_off_c, 0, 76, 64
2, 415776, Note_on_c, 0, 78, 83
2, 415820, Note_off_c, 0, 78, 64
2, 415872, Note_on_c, 0, 76, 83
2, 415916, Note_off_c, 0, 76, 64
2, 415968, Note_on_c, 0, 74, 83
2, 416012, Note_off_c, 0, 74, 64
2, 416064, Note_on_c, 0, 73, 83
2, 416108, Note_off_c, 0, 73, 64
2, 416160, Note_on_c, 0, 71, 83
2, 416204, Note_off_c, 0, 71, 64
2, 416256, Note_on_c, 0, 69, 83
2, 416636, Note_off_c, 0, 69, 64
2, 417024, Note_on_c, 0, 63, 73
2, 417080, Note_off_c, 0, 63, 64
2, 417084, Note_on_c, 0, 64, 63
2, 417176, Note_off_c, 0, 64, 64
2, 417408, Note_on_c, 0, 68, 71
2, 417464, Note_off_c, 0, 68, 64
2, 417468, Note_on_c, 0, 69, 61
2, 417560, Note_off_c, 0, 69, 64
2, 417792, Note_on_c, 0, 72, 69
2, 417848, Note_off_c, 0, 72, 64
2, 417852, Note_on_c, 0, 73, 59
2, 417944, Note_off_c, 0, 73, 64
2, 418176, Note_on_c, 0, 75, 67
2, 418232, Note_off_c, 0, 75, 64
2, 418236, Note_on_c, 0, 76, 57
2, 418328, Note_off_c, 0, 76, 64
2, 418560, Note_on_c, 0, 80, 65
2, 418616, Note_off_c, 0, 80, 64
2, 418620, Note_on_c, 0, 81, 55
2, 418808, Note_off_c, 0, 81, 64
2, 418808, End_track
3, 0, Start_track
3, 0, Title_t, "#5 - K219c  Midi by:"
3, 0, Control_c, 1, 0, 0
3, 0, Program_c, 1, 0
3, 0, Control_c, 1, 10, 42
3, 0, Control_c, 1, 91, 63
3, 0, Control_c, 1, 93, 2
3, 0, Key_signature, 3, "major"
3, 0, Control_c, 1, 121, 0
3, 12, Control_c, 1, 10, 53
3, 16, Control_c, 1, 91, 63
3, 24, Program_c, 1, 48
3, 1152, Note_on_c, 1, 61, 62
3, 1532, Note_off_c, 1, 61, 64
3, 1536, Note_on_c, 1, 64, 62
3, 1916, Note_off_c, 1, 64, 64
3, 2304, Note_on_c, 1, 62, 62
3, 3068, Note_off_c, 1, 62, 64
3, 3456, Note_on_c, 1, 59, 62
3, 3456, Note_on_c, 1, 56, 62
3, 3836, Note_off_c, 1, 59, 64
3, 3836, Note_off_c, 1, 56, 64
3, 3840, Note_on_c, 1, 61, 62
3, 3840, Note_on_c, 1, 57, 62
3, 4220, Note_off_c, 1, 61, 64
3, 4220, Note_off_c, 1, 57, 64
3, 4224, Note_on_c, 1, 62, 62
3, 4224, Note_on_c, 1, 59, 62
3, 4604, Note_off_c, 1, 62, 64
3, 4604, Note_off_c, 1, 59, 64
3, 4608, Note_on_c, 1, 61, 62
3, 4988, Note_off_c, 1, 61, 64
3, 5760, Note_on_c, 1, 69, 62
3, 5760, Note_on_c, 1, 64, 62
3, 6140, Note_off_c, 1, 69, 64
3, 6140, Note_off_c, 1, 64, 64
3, 6528, Note_on_c, 1, 69, 62
3, 6528, Note_on_c, 1, 66, 62
3, 6908, Note_off_c, 1, 69, 64
3, 6908, Note_off_c, 1, 66, 64
3, 6912, Note_on_c, 1, 69, 62
3, 6912, Note_on_c, 1, 64, 62
3, 7292, Note_off_c, 1, 69, 64
3, 7292, Note_off_c, 1, 64, 64
3, 7680, Note_on_c, 1, 69, 62
3, 7680, Note_on_c, 1, 62, 62
3, 8060, Note_off_c, 1, 69, 64
3, 8060, Note_off_c, 1, 62, 64
3, 8064, Note_on_c, 1, 61, 62
3, 8444, Note_off_c, 1, 61, 64
3, 8448, Note_on_c, 1, 62, 62
3, 8828, Note_off_c, 1, 62, 64
3, 8832, Note_on_c, 1, 62, 62
3, 9212, Note_off_c, 1, 62, 64
3, 9216, Note_on_c, 1, 68, 62
3, 9216, Note_on_c, 1, 64, 62
3, 9404, Note_off_c, 1, 68, 64
3, 9596, Note_off_c, 1, 64, 64
3, 9984, Note_on_c, 1, 73, 90
3, 10268, Note_off_c, 1, 73, 64
3, 10272, Note_on_c, 1, 74, 90
3, 10364, Note_off_c, 1, 74, 64
3, 10368, Note_on_c, 1, 76, 90
3, 10748, Note_off_c, 1, 76, 64
3, 10752, Note_on_c, 1, 73, 90
3, 11132, Note_off_c, 1, 73, 64
3, 11136, Note_on_c, 1, 78, 90
3, 11328, Note_off_c, 1, 78, 64
3, 11520, Note_on_c, 1, 69, 90
3, 11520, Note_on_c, 1, 64, 90
3, 11900, Note_off_c, 1, 69, 64
3, 11904, Note_on_c, 1, 68, 90
3, 12284, Note_off_c, 1, 64, 64
3, 12284, Note_off_c, 1, 68, 64
3, 12288, Note_on_c, 1, 71, 90
3, 12572, Note_off_c, 1, 71, 64
3, 12576, Note_on_c, 1, 73, 90
3, 12668, Note_off_c, 1, 73, 64
3, 12672, Note_on_c, 1, 76, 100
3, 12728, Note_off_c, 1, 76, 64
3, 12732, Note_on_c, 1, 74, 90
3, 12732, Note_on_c, 1, 71, 90
3, 13052, Note_off_c, 1, 74, 64
3, 13052, Note_off_c, 1, 71, 64
3, 13056, Note_on_c, 1, 64, 90
3, 13056, Note_on_c, 1, 73, 90
3, 13244, Note_off_c, 1, 73, 64
3, 13248, Note_on_c, 1, 71, 90
3, 13436, Note_off_c, 1, 64, 64
3, 13436, Note_off_c, 1, 71, 64
3, 13440, Note_on_c, 1, 64, 90
3, 13440, Note_on_c, 1, 69, 90
3, 13628, Note_off_c, 1, 69, 64
3, 13632, Note_on_c, 1, 68, 90
3, 13820, Note_off_c, 1, 64, 64
3, 13820, Note_off_c, 1, 68, 64
3, 13824, Note_on_c, 1, 69, 90
3, 13824, Note_on_c, 1, 64, 90
3, 14108, Note_off_c, 1, 69, 64
3, 14108, Note_off_c, 1, 64, 64
3, 14112, Note_on_c, 1, 73, 90
3, 14204, Note_off_c, 1, 73, 64
3, 14208, Note_on_c, 1, 64, 90
3, 14588, Note_off_c, 1, 64, 64
3, 14592, Note_on_c, 1, 81, 90
3, 14876, Note_off_c, 1, 81, 64
3, 14880, Note_on_c, 1, 80, 90
3, 14972, Note_off_c, 1, 80, 64
3, 14976, Note_on_c, 1, 80, 90
3, 14976, Note_on_c, 1, 69, 90
3, 15164, Note_off_c, 1, 80, 64
3, 15168, Note_on_c, 1, 78, 90
3, 15356, Note_off_c, 1, 78, 64
3, 15360, Note_on_c, 1, 78, 90
3, 15740, Note_off_c, 1, 69, 64
3, 15740, Note_off_c, 1, 78, 64
3, 15744, Note_on_c, 1, 78, 90
3, 16028, Note_off_c, 1, 78, 64
3, 16032, Note_on_c, 1, 76, 90
3, 16124, Note_off_c, 1, 76, 64
3, 16128, Note_on_c, 1, 76, 90
3, 16128, Note_on_c, 1, 69, 90
3, 16316, Note_off_c, 1, 76, 64
3, 16320, Note_on_c, 1, 74, 90
3, 16508, Note_off_c, 1, 74, 64
3, 16512, Note_on_c, 1, 74, 90
3, 16892, Note_off_c, 1, 69, 64
3, 16892, Note_off_c, 1, 74, 64
3, 16896, Note_on_c, 1, 74, 90
3, 17180, Note_off_c, 1, 74, 64
3, 17184, Note_on_c, 1, 73, 90
3, 17276, Note_off_c, 1, 73, 64
3, 17280, Note_on_c, 1, 78, 90
3, 17280, Note_on_c, 1, 71, 90
3, 17564, Note_off_c, 1, 78, 64
3, 17564, Note_off_c, 1, 71, 64
3, 17568, Note_on_c, 1, 83, 90
3, 17568, Note_on_c, 1, 74, 90
3, 17660, Note_off_c, 1, 83, 64
3, 17660, Note_off_c, 1, 74, 64
3, 17664, Note_on_c, 1, 81, 90
3, 17664, Note_on_c, 1, 73, 90
3, 18044, Note_off_c, 1, 81, 64
3, 18044, Note_off_c, 1, 73, 64
3, 18048, Note_on_c, 1, 80, 90
3, 18048, Note_on_c, 1, 74, 90
3, 18048, Note_on_c, 1, 71, 90
3, 18428, Note_off_c, 1, 80, 64
3, 18428, Note_off_c, 1, 74, 64
3, 18428, Note_off_c, 1, 71, 64
3, 18432, Note_on_c, 1, 81, 90
3, 18432, Note_on_c, 1, 73, 90
3, 18432, Note_on_c, 1, 69, 90
3, 18812, Note_off_c, 1, 81, 64
3, 18812, Note_off_c, 1, 73, 64
3, 18812, Note_off_c, 1, 69, 64
3, 19776, Note_on_c, 1, 68, 73
3, 19776, Note_on_c, 1, 64, 73
3, 19776, Note_on_c, 1, 59, 73
3, 19776, Note_on_c, 1, 62, 73
3, 19964, Note_off_c, 1, 68, 64
3, 19964, Note_off_c, 1, 64, 64
3, 19964, Note_off_c, 1, 59, 64
3, 19964, Note_off_c, 1, 62, 64
3, 19968, Note_on_c, 1, 68, 73
3, 19968, Note_on_c, 1, 64, 73
3, 19968, Note_on_c, 1, 62, 73
3, 19968, Note_on_c, 1, 59, 73
3, 20156, Note_off_c, 1, 68, 64
3, 20156, Note_off_c, 1, 64, 64
3, 20156, Note_off_c, 1, 62, 64
3, 20156, Note_off_c, 1, 59, 64
3, 20160, Note_on_c, 1, 68, 73
3, 20160, Note_on_c, 1, 64, 73
3, 20160, Note_on_c, 1, 62, 73
3, 20160, Note_on_c, 1, 59, 73
3, 20348, Note_off_c, 1, 68, 64
3, 20348, Note_off_c, 1, 64, 64
3, 20348, Note_off_c, 1, 62, 64
3, 20348, Note_off_c, 1, 59, 64
3, 20352, Note_on_c, 1, 68, 73
3, 20352, Note_on_c, 1, 64, 73
3, 20352, Note_on_c, 1, 62, 73
3, 20352, Note_on_c, 1, 59, 73
3, 20540, Note_off_c, 1, 68, 64
3, 20540, Note_off_c, 1, 64, 64
3, 20540, Note_off_c, 1, 62, 64
3, 20540, Note_off_c, 1, 59, 64
3, 20544, Note_on_c, 1, 68, 73
3, 20544, Note_on_c, 1, 64, 73
3, 20544, Note_on_c, 1, 62, 73
3, 20544, Note_on_c, 1, 59, 73
3, 20732, Note_off_c, 1, 68, 64
3, 20732, Note_off_c, 1, 64, 64
3, 20732, Note_off_c, 1, 62, 64
3, 20732, Note_off_c, 1, 59, 64
3, 20928, Note_on_c, 1, 69, 69
3, 20928, Note_on_c, 1, 64, 69
3, 20928, Note_on_c, 1, 61, 69
3, 20928, Note_on_c, 1, 57, 69
3, 21116, Note_off_c, 1, 69, 64
3, 21116, Note_off_c, 1, 64, 64
3, 21116, Note_off_c, 1, 61, 64
3, 21116, Note_off_c, 1, 57, 64
3, 21120, Note_on_c, 1, 69, 68
3, 21120, Note_on_c, 1, 64, 68
3, 21120, Note_on_c, 1, 61, 68
3, 21120, Note_on_c, 1, 57, 68
3, 21308, Note_off_c, 1, 69, 64
3, 21308, Note_off_c, 1, 64, 64
3, 21308, Note_off_c, 1, 61, 64
3, 21308, Note_off_c, 1, 57, 64
3, 21312, Note_on_c, 1, 69, 67
3, 21312, Note_on_c, 1, 64, 67
3, 21312, Note_on_c, 1, 61, 67
3, 21312, Note_on_c, 1, 57, 67
3, 21500, Note_off_c, 1, 69, 64
3, 21500, Note_off_c, 1, 64, 64
3, 21500, Note_off_c, 1, 61, 64
3, 21500, Note_off_c, 1, 57, 64
3, 21504, Note_on_c, 1, 69, 67
3, 21504, Note_on_c, 1, 64, 67
3, 21504, Note_on_c, 1, 61, 67
3, 21504, Note_on_c, 1, 57, 67
3, 21692, Note_off_c, 1, 69, 64
3, 21692, Note_off_c, 1, 64, 64
3, 21692, Note_off_c, 1, 61, 64
3, 21692, Note_off_c, 1, 57, 64
3, 21696, Note_on_c, 1, 69, 62
3, 21696, Note_on_c, 1, 64, 62
3, 21696, Note_on_c, 1, 61, 62
3, 21696, Note_on_c, 1, 57, 62
3, 21884, Note_off_c, 1, 69, 64
3, 21884, Note_off_c, 1, 64, 64
3, 21884, Note_off_c, 1, 61, 64
3, 21884, Note_off_c, 1, 57, 64
3, 22080, Note_on_c, 1, 68, 61
3, 22080, Note_on_c, 1, 64, 61
3, 22080, Note_on_c, 1, 62, 61
3, 22080, Note_on_c, 1, 59, 61
3, 22268, Note_off_c, 1, 68, 64
3, 22268, Note_off_c, 1, 64, 64
3, 22268, Note_off_c, 1, 62, 64
3, 22268, Note_off_c, 1, 59, 64
3, 22272, Note_on_c, 1, 68, 58
3, 22272, Note_on_c, 1, 64, 58
3, 22272, Note_on_c, 1, 62, 58
3, 22272, Note_on_c, 1, 59, 58
3, 22460, Note_off_c, 1, 68, 64
3, 22460, Note_off_c, 1, 64, 64
3, 22460, Note_off_c, 1, 62, 64
3, 22460, Note_off_c, 1, 59, 64
3, 22464, Note_on_c, 1, 68, 57
3, 22464, Note_on_c, 1, 64, 57
3, 22464, Note_on_c, 1, 62, 57
3, 22464, Note_on_c, 1, 59, 57
3, 22652, Note_off_c, 1, 68, 64
3, 22652, Note_off_c, 1, 64, 64
3, 22652, Note_off_c, 1, 62, 64
3, 22652, Note_off_c, 1, 59, 64
3, 22656, Note_on_c, 1, 68, 55
3, 22656, Note_on_c, 1, 64, 55
3, 22656, Note_on_c, 1, 62, 55
3, 22656, Note_on_c, 1, 59, 55
3, 22844, Note_off_c, 1, 68, 64
3, 22844, Note_off_c, 1, 64, 64
3, 22844, Note_off_c, 1, 62, 64
3, 22844, Note_off_c, 1, 59, 64
3, 22848, Note_on_c, 1, 68, 54
3, 22848, Note_on_c, 1, 64, 54
3, 22848, Note_on_c, 1, 62, 54
3, 22848, Note_on_c, 1, 59, 54
3, 23036, Note_off_c, 1, 68, 64
3, 23036, Note_off_c, 1, 64, 64
3, 23036, Note_off_c, 1, 62, 64
3, 23036, Note_off_c, 1, 59, 64
3, 23232, Note_on_c, 1, 69, 54
3, 23232, Note_on_c, 1, 64, 54
3, 23232, Note_on_c, 1, 61, 54
3, 23232, Note_on_c, 1, 57, 54
3, 23420, Note_off_c, 1, 69, 64
3, 23420, Note_off_c, 1, 64, 64
3, 23420, Note_off_c, 1, 61, 64
3, 23420, Note_off_c, 1, 57, 64
3, 23424, Note_on_c, 1, 69, 54
3, 23424, Note_on_c, 1, 64, 54
3, 23424, Note_on_c, 1, 61, 54
3, 23424, Note_on_c, 1, 57, 54
3, 23612, Note_off_c, 1, 69, 64
3, 23612, Note_off_c, 1, 64, 64
3, 23612, Note_off_c, 1, 61, 64
3, 23612, Note_off_c, 1, 57, 64
3, 23616, Note_on_c, 1, 69, 54
3, 23616, Note_on_c, 1, 64, 54
3, 23616, Note_on_c, 1, 61, 54
3, 23616, Note_on_c, 1, 57, 54
3, 23804, Note_off_c, 1, 69, 64
3, 23804, Note_off_c, 1, 64, 64
3, 23804, Note_off_c, 1, 61, 64
3, 23804, Note_off_c, 1, 57, 64
3, 23808, Note_on_c, 1, 69, 54
3, 23808, Note_on_c, 1, 64, 54
3, 23808, Note_on_c, 1, 61, 54
3, 23808, Note_on_c, 1, 57, 54
3, 23996, Note_off_c, 1, 69, 64
3, 23996, Note_off_c, 1, 64, 64
3, 23996, Note_off_c, 1, 61, 64
3, 23996, Note_off_c, 1, 57, 64
3, 24000, Note_on_c, 1, 69, 54
3, 24000, Note_on_c, 1, 64, 54
3, 24000, Note_on_c, 1, 61, 54
3, 24000, Note_on_c, 1, 57, 54
3, 24188, Note_off_c, 1, 69, 64
3, 24188, Note_off_c, 1, 64, 64
3, 24188, Note_off_c, 1, 61, 64
3, 24188, Note_off_c, 1, 57, 64
3, 24192, Note_on_c, 1, 69, 54
3, 24192, Note_on_c, 1, 64, 54
3, 24192, Note_on_c, 1, 61, 54
3, 24192, Note_on_c, 1, 57, 54
3, 24380, Note_off_c, 1, 69, 64
3, 24380, Note_off_c, 1, 64, 64
3, 24380, Note_off_c, 1, 61, 64
3, 24380, Note_off_c, 1, 57, 64
3, 24384, Note_on_c, 1, 69, 54
3, 24384, Note_on_c, 1, 64, 54
3, 24384, Note_on_c, 1, 61, 54
3, 24384, Note_on_c, 1, 57, 54
3, 24572, Note_off_c, 1, 69, 64
3, 24572, Note_off_c, 1, 64, 64
3, 24572, Note_off_c, 1, 61, 64
3, 24572, Note_off_c, 1, 57, 64
3, 24576, Note_on_c, 1, 69, 54
3, 24576, Note_on_c, 1, 64, 54
3, 24576, Note_on_c, 1, 61, 54
3, 24576, Note_on_c, 1, 57, 54
3, 24764, Note_off_c, 1, 69, 64
3, 24764, Note_off_c, 1, 64, 64
3, 24764, Note_off_c, 1, 61, 64
3, 24764, Note_off_c, 1, 57, 64
3, 24768, Note_on_c, 1, 69, 54
3, 24768, Note_on_c, 1, 64, 54
3, 24768, Note_on_c, 1, 61, 54
3, 24768, Note_on_c, 1, 57, 54
3, 24956, Note_off_c, 1, 69, 64
3, 24956, Note_off_c, 1, 64, 64
3, 24956, Note_off_c, 1, 61, 64
3, 24956, Note_off_c, 1, 57, 64
3, 24960, Note_on_c, 1, 69, 54
3, 24960, Note_on_c, 1, 64, 54
3, 24960, Note_on_c, 1, 61, 54
3, 24960, Note_on_c, 1, 57, 54
3, 25148, Note_off_c, 1, 69, 64
3, 25148, Note_off_c, 1, 64, 64
3, 25148, Note_off_c, 1, 61, 64
3, 25148, Note_off_c, 1, 57, 64
3, 25152, Note_on_c, 1, 69, 54
3, 25152, Note_on_c, 1, 64, 54
3, 25152, Note_on_c, 1, 61, 54
3, 25152, Note_on_c, 1, 57, 54
3, 25340, Note_off_c, 1, 69, 64
3, 25340, Note_off_c, 1, 64, 64
3, 25340, Note_off_c, 1, 61, 64
3, 25340, Note_off_c, 1, 57, 64
3, 25344, Note_on_c, 1, 69, 54
3, 25344, Note_on_c, 1, 64, 54
3, 25344, Note_on_c, 1, 61, 54
3, 25344, Note_on_c, 1, 57, 54
3, 25724, Note_off_c, 1, 69, 64
3, 25724, Note_off_c, 1, 64, 64
3, 25724, Note_off_c, 1, 61, 64
3, 25724, Note_off_c, 1, 57, 64
3, 26688, Note_on_c, 1, 73, 62
3, 26688, Note_on_c, 1, 64, 62
3, 26876, Note_off_c, 1, 73, 64
3, 26876, Note_off_c, 1, 64, 64
3, 26880, Note_on_c, 1, 73, 62
3, 26880, Note_on_c, 1, 64, 62
3, 27068, Note_off_c, 1, 73, 64
3, 27068, Note_off_c, 1, 64, 64
3, 27072, Note_on_c, 1, 73, 62
3, 27072, Note_on_c, 1, 64, 62
3, 27260, Note_off_c, 1, 73, 64
3, 27260, Note_off_c, 1, 64, 64
3, 27264, Note_on_c, 1, 73, 62
3, 27264, Note_on_c, 1, 64, 62
3, 27452, Note_off_c, 1, 73, 64
3, 27452, Note_off_c, 1, 64, 64
3, 27456, Note_on_c, 1, 73, 62
3, 27456, Note_on_c, 1, 64, 62
3, 27644, Note_off_c, 1, 73, 64
3, 27644, Note_off_c, 1, 64, 64
3, 27840, Note_on_c, 1, 71, 62
3, 27840, Note_on_c, 1, 64, 62
3, 28028, Note_off_c, 1, 71, 64
3, 28028, Note_off_c, 1, 64, 64
3, 28032, Note_on_c, 1, 71, 62
3, 28032, Note_on_c, 1, 64, 62
3, 28220, Note_off_c, 1, 71, 64
3, 28220, Note_off_c, 1, 64, 64
3, 28224, Note_on_c, 1, 71, 62
3, 28224, Note_on_c, 1, 64, 62
3, 28412, Note_off_c, 1, 71, 64
3, 28412, Note_off_c, 1, 64, 64
3, 28416, Note_on_c, 1, 71, 62
3, 28416, Note_on_c, 1, 64, 62
3, 28604, Note_off_c, 1, 71, 64
3, 28604, Note_off_c, 1, 64, 64
3, 28608, Note_on_c, 1, 71, 62
3, 28608, Note_on_c, 1, 64, 62
3, 28796, Note_off_c, 1, 71, 64
3, 28796, Note_off_c, 1, 64, 64
3, 28992, Note_on_c, 1, 71, 62
3, 28992, Note_on_c, 1, 68, 62
3, 29180, Note_off_c, 1, 71, 64
3, 29180, Note_off_c, 1, 68, 64
3, 29184, Note_on_c, 1, 71, 62
3, 29184, Note_on_c, 1, 68, 62
3, 29372, Note_off_c, 1, 71, 64
3, 29372, Note_off_c, 1, 68, 64
3, 29376, Note_on_c, 1, 71, 62
3, 29376, Note_on_c, 1, 68, 62
3, 29564, Note_off_c, 1, 71, 64
3, 29564, Note_off_c, 1, 68, 64
3, 29568, Note_on_c, 1, 71, 62
3, 29568, Note_on_c, 1, 68, 62
3, 29756, Note_off_c, 1, 71, 64
3, 29756, Note_off_c, 1, 68, 64
3, 29760, Note_on_c, 1, 71, 62
3, 29760, Note_on_c, 1, 68, 62
3, 29948, Note_off_c, 1, 71, 64
3, 29948, Note_off_c, 1, 68, 64
3, 30144, Note_on_c, 1, 69, 62
3, 30144, Note_on_c, 1, 63, 62
3, 30332, Note_off_c, 1, 69, 64
3, 30332, Note_off_c, 1, 63, 64
3, 30336, Note_on_c, 1, 69, 62
3, 30336, Note_on_c, 1, 63, 62
3, 30524, Note_off_c, 1, 69, 64
3, 30524, Note_off_c, 1, 63, 64
3, 30528, Note_on_c, 1, 69, 62
3, 30528, Note_on_c, 1, 63, 62
3, 30716, Note_off_c, 1, 69, 64
3, 30716, Note_off_c, 1, 63, 64
3, 30720, Note_on_c, 1, 69, 62
3, 30720, Note_on_c, 1, 63, 62
3, 30908, Note_off_c, 1, 69, 64
3, 30908, Note_off_c, 1, 63, 64
3, 30912, Note_on_c, 1, 69, 62
3, 30912, Note_on_c, 1, 63, 62
3, 31100, Note_off_c, 1, 69, 64
3, 31100, Note_off_c, 1, 63, 64
3, 31296, Note_on_c, 1, 69, 67
3, 31296, Note_on_c, 1, 63, 67
3, 31484, Note_off_c, 1, 69, 64
3, 31484, Note_off_c, 1, 63, 64
3, 31488, Note_on_c, 1, 63, 68
3, 31488, Note_on_c, 1, 69, 68
3, 31676, Note_off_c, 1, 63, 64
3, 31680, Note_on_c, 1, 66, 73
3, 31868, Note_off_c, 1, 69, 64
3, 31868, Note_off_c, 1, 66, 64
3, 31872, Note_on_c, 1, 75, 74
3, 31872, Note_on_c, 1, 71, 74
3, 32060, Note_off_c, 1, 75, 64
3, 32064, Note_on_c, 1, 78, 78
3, 32252, Note_off_c, 1, 71, 64
3, 32252, Note_off_c, 1, 78, 64
3, 32256, Note_on_c, 1, 78, 81
3, 32256, Note_on_c, 1, 71, 81
3, 32444, Note_off_c, 1, 78, 64
3, 32448, Note_on_c, 1, 76, 81
3, 32636, Note_off_c, 1, 71, 64
3, 32636, Note_off_c, 1, 76, 64
3, 32640, Note_on_c, 1, 75, 81
3, 32828, Note_off_c, 1, 75, 64
3, 32832, Note_on_c, 1, 73, 81
3, 33020, Note_off_c, 1, 73, 64
3, 33024, Note_on_c, 1, 75, 81
3, 33024, Note_on_c, 1, 69, 81
3, 33212, Note_off_c, 1, 75, 64
3, 33216, Note_on_c, 1, 73, 81
3, 33404, Note_off_c, 1, 69, 64
3, 33404, Note_off_c, 1, 73, 64
3, 33408, Note_on_c, 1, 71, 81
3, 33596, Note_off_c, 1, 71, 64
3, 33600, Note_on_c, 1, 69, 81
3, 33788, Note_off_c, 1, 69, 64
3, 33792, Note_on_c, 1, 71, 80
3, 33980, Note_off_c, 1, 71, 64
3, 33984, Note_on_c, 1, 69, 78
3, 34172, Note_off_c, 1, 69, 64
3, 34176, Note_on_c, 1, 68, 75
3, 34364, Note_off_c, 1, 68, 64
3, 34368, Note_on_c, 1, 66, 74
3, 34556, Note_off_c, 1, 66, 64
3, 34560, Note_on_c, 1, 64, 73
3, 34940, Note_off_c, 1, 64, 64
3, 34944, Note_on_c, 1, 63, 67
3, 35324, Note_off_c, 1, 63, 64
3, 35328, Note_on_c, 1, 71, 90
3, 35420, Note_off_c, 1, 71, 64
3, 35424, Note_on_c, 1, 70, 90
3, 35516, Note_off_c, 1, 70, 64
3, 35520, Note_on_c, 1, 71, 90
3, 35612, Note_off_c, 1, 71, 64
3, 35616, Note_on_c, 1, 70, 90
3, 35708, Note_off_c, 1, 70, 64
3, 35712, Note_on_c, 1, 71, 90
3, 36092, Note_off_c, 1, 71, 64
3, 36096, Note_on_c, 1, 59, 90
3, 36476, Note_off_c, 1, 59, 64
3, 37056, Note_on_c, 1, 71, 73
3, 37056, Note_on_c, 1, 68, 73
3, 37436, Note_off_c, 1, 71, 64
3, 37436, Note_off_c, 1, 68, 64
3, 37440, Note_on_c, 1, 69, 73
3, 37440, Note_on_c, 1, 66, 73
3, 37628, Note_off_c, 1, 69, 64
3, 37628, Note_off_c, 1, 66, 64
3, 37632, Note_on_c, 1, 68, 73
3, 37632, Note_on_c, 1, 65, 73
3, 37724, Note_off_c, 1, 68, 64
3, 37724, Note_off_c, 1, 65, 64
3, 37728, Note_on_c, 1, 66, 73
3, 37728, Note_on_c, 1, 63, 73
3, 37820, Note_off_c, 1, 66, 64
3, 37820, Note_off_c, 1, 63, 64
3, 37824, Note_on_c, 1, 68, 73
3, 37824, Note_on_c, 1, 65, 73
3, 37916, Note_off_c, 1, 68, 64
3, 37916, Note_off_c, 1, 65, 64
3, 37920, Note_on_c, 1, 65, 73
3, 37920, Note_on_c, 1, 61, 73
3, 38012, Note_off_c, 1, 65, 64
3, 38012, Note_off_c, 1, 61, 64
3, 38016, Note_on_c, 1, 69, 73
3, 38016, Note_on_c, 1, 66, 73
3, 38112, Note_off_c, 1, 69, 64
3, 38112, Note_off_c, 1, 66, 64
3, 38192, Note_on_c, 1, 69, 73
3, 38192, Note_on_c, 1, 66, 73
3, 38572, Note_off_c, 1, 69, 64
3, 38572, Note_off_c, 1, 66, 64
3, 38592, Note_on_c, 1, 68, 73
3, 38592, Note_on_c, 1, 64, 73
3, 38780, Note_off_c, 1, 68, 64
3, 38780, Note_off_c, 1, 64, 64
3, 38784, Note_on_c, 1, 66, 73
3, 38784, Note_on_c, 1, 63, 73
3, 38876, Note_off_c, 1, 66, 64
3, 38876, Note_off_c, 1, 63, 64
3, 38880, Note_on_c, 1, 64, 73
3, 38880, Note_on_c, 1, 61, 73
3, 38972, Note_off_c, 1, 64, 64
3, 38972, Note_off_c, 1, 61, 64
3, 38976, Note_on_c, 1, 66, 73
3, 38976, Note_on_c, 1, 63, 73
3, 39068, Note_off_c, 1, 66, 64
3, 39068, Note_off_c, 1, 63, 64
3, 39072, Note_on_c, 1, 63, 73
3, 39072, Note_on_c, 1, 59, 73
3, 39164, Note_off_c, 1, 63, 64
3, 39164, Note_off_c, 1, 59, 64
3, 39168, Note_on_c, 1, 68, 73
3, 39168, Note_on_c, 1, 64, 73
3, 39168, Note_on_c, 1, 59, 73
3, 39356, Note_off_c, 1, 68, 64
3, 39356, Note_off_c, 1, 64, 64
3, 39356, Note_off_c, 1, 59, 64
3, 39552, Note_on_c, 1, 69, 73
3, 39552, Note_on_c, 1, 64, 73
3, 39648, Note_off_c, 1, 69, 64
3, 39648, Note_off_c, 1, 64, 64
3, 39936, Note_on_c, 1, 73, 73
3, 39936, Note_on_c, 1, 66, 73
3, 40032, Note_off_c, 1, 73, 64
3, 40032, Note_off_c, 1, 66, 64
3, 40320, Note_on_c, 1, 71, 73
3, 40320, Note_on_c, 1, 66, 73
3, 40700, Note_off_c, 1, 71, 64
3, 40700, Note_off_c, 1, 66, 64
3, 40704, Note_on_c, 1, 66, 73
3, 40704, Note_on_c, 1, 63, 73
3, 41084, Note_off_c, 1, 66, 64
3, 41084, Note_off_c, 1, 63, 64
3, 41472, Note_on_c, 1, 68, 62
3, 41564, Note_off_c, 1, 68, 64
3, 41568, Note_on_c, 1, 66, 62
3, 41660, Note_off_c, 1, 66, 64
3, 41664, Note_on_c, 1, 68, 62
3, 41756, Note_off_c, 1, 68, 64
3, 41760, Note_on_c, 1, 64, 62
3, 41852, Note_off_c, 1, 64, 64
3, 41856, Note_on_c, 1, 69, 62
3, 41948, Note_off_c, 1, 69, 64
3, 41952, Note_on_c, 1, 68, 62
3, 42044, Note_off_c, 1, 68, 64
3, 42048, Note_on_c, 1, 69, 62
3, 42140, Note_off_c, 1, 69, 64
3, 42144, Note_on_c, 1, 64, 62
3, 42236, Note_off_c, 1, 64, 64
3, 42240, Note_on_c, 1, 69, 62
3, 42240, Note_on_c, 1, 76, 62
3, 42332, Note_off_c, 1, 69, 64
3, 42336, Note_on_c, 1, 64, 62
3, 42428, Note_off_c, 1, 64, 64
3, 42432, Note_on_c, 1, 68, 62
3, 42524, Note_off_c, 1, 68, 64
3, 42528, Note_on_c, 1, 64, 62
3, 42620, Note_off_c, 1, 76, 64
3, 42620, Note_off_c, 1, 64, 64
3, 42624, Note_on_c, 1, 66, 62
3, 42624, Note_on_c, 1, 59, 62
3, 42624, Note_on_c, 1, 75, 62
3, 42716, Note_off_c, 1, 66, 64
3, 42716, Note_off_c, 1, 59, 64
3, 42720, Note_on_c, 1, 64, 62
3, 42812, Note_off_c, 1, 64, 64
3, 42816, Note_on_c, 1, 66, 62
3, 42908, Note_off_c, 1, 66, 64
3, 42912, Note_on_c, 1, 63, 62
3, 43004, Note_off_c, 1, 75, 64
3, 43004, Note_off_c, 1, 63, 64
3, 43008, Note_on_c, 1, 68, 62
3, 43100, Note_off_c, 1, 68, 64
3, 43104, Note_on_c, 1, 66, 62
3, 43196, Note_off_c, 1, 66, 64
3, 43200, Note_on_c, 1, 68, 62
3, 43292, Note_off_c, 1, 68, 64
3, 43296, Note_on_c, 1, 59, 62
3, 43388, Note_off_c, 1, 59, 64
3, 43392, Note_on_c, 1, 71, 62
3, 43392, Note_on_c, 1, 63, 62
3, 43484, Note_off_c, 1, 71, 64
3, 43488, Note_on_c, 1, 59, 62
3, 43580, Note_off_c, 1, 59, 64
3, 43584, Note_on_c, 1, 66, 62
3, 43676, Note_off_c, 1, 66, 64
3, 43680, Note_on_c, 1, 59, 62
3, 43772, Note_off_c, 1, 63, 64
3, 43772, Note_off_c, 1, 59, 64
3, 43776, Note_on_c, 1, 64, 62
3, 43776, Note_on_c, 1, 59, 62
3, 44156, Note_off_c, 1, 64, 64
3, 44156, Note_off_c, 1, 59, 64
3, 44160, Note_on_c, 1, 68, 62
3, 44160, Note_on_c, 1, 64, 62
3, 44540, Note_off_c, 1, 68, 64
3, 44544, Note_on_c, 1, 76, 62
3, 44732, Note_off_c, 1, 64, 64
3, 44736, Note_on_c, 1, 73, 62
3, 44924, Note_off_c, 1, 76, 64
3, 44924, Note_off_c, 1, 73, 64
3, 44928, Note_on_c, 1, 76, 62
3, 44928, Note_on_c, 1, 73, 62
3, 45308, Note_off_c, 1, 76, 64
3, 45308, Note_off_c, 1, 73, 64
3, 45312, Note_on_c, 1, 75, 62
3, 45312, Note_on_c, 1, 71, 62
3, 45692, Note_off_c, 1, 75, 64
3, 45692, Note_off_c, 1, 71, 64
3, 46080, Note_on_c, 1, 68, 81
3, 46080, Note_on_c, 1, 64, 81
3, 46080, Note_on_c, 1, 59, 81
3, 46272, Note_off_c, 1, 68, 64
3, 46272, Note_off_c, 1, 64, 64
3, 46272, Note_off_c, 1, 59, 64
3, 46656, Note_on_c, 1, 59, 81
3, 46656, Note_on_c, 1, 56, 81
3, 46752, Note_off_c, 1, 59, 64
3, 46752, Note_off_c, 1, 56, 64
3, 46848, Note_on_c, 1, 64, 81
3, 46848, Note_on_c, 1, 59, 81
3, 46944, Note_off_c, 1, 64, 64
3, 46944, Note_off_c, 1, 59, 64
3, 47040, Note_on_c, 1, 68, 81
3, 47040, Note_on_c, 1, 64, 81
3, 47040, Note_on_c, 1, 59, 81
3, 47136, Note_off_c, 1, 68, 64
3, 47136, Note_off_c, 1, 64, 64
3, 47136, Note_off_c, 1, 59, 64
3, 47232, Note_on_c, 1, 69, 81
3, 47232, Note_on_c, 1, 66, 81
3, 47232, Note_on_c, 1, 59, 81
3, 47328, Note_off_c, 1, 69, 64
3, 47328, Note_off_c, 1, 66, 64
3, 47328, Note_off_c, 1, 59, 64
3, 47616, Note_on_c, 1, 63, 81
3, 47616, Note_on_c, 1, 59, 81
3, 47712, Note_off_c, 1, 63, 64
3, 47712, Note_off_c, 1, 59, 64
3, 48000, Note_on_c, 1, 66, 81
3, 48000, Note_on_c, 1, 63, 81
3, 48000, Note_on_c, 1, 59, 81
3, 48096, Note_off_c, 1, 66, 64
3, 48096, Note_off_c, 1, 63, 64
3, 48096, Note_off_c, 1, 59, 64
3, 48384, Note_on_c, 1, 68, 62
3, 48384, Note_on_c, 1, 64, 62
3, 48384, Note_on_c, 1, 59, 62
3, 48576, Note_off_c, 1, 68, 64
3, 48576, Note_off_c, 1, 64, 64
3, 48576, Note_off_c, 1, 59, 64
3, 48960, Note_on_c, 1, 59, 62
3, 48960, Note_on_c, 1, 56, 62
3, 49056, Note_off_c, 1, 59, 64
3, 49056, Note_off_c, 1, 56, 64
3, 49152, Note_on_c, 1, 64, 62
3, 49152, Note_on_c, 1, 59, 62
3, 49248, Note_off_c, 1, 64, 64
3, 49248, Note_off_c, 1, 59, 64
3, 49344, Note_on_c, 1, 68, 62
3, 49344, Note_on_c, 1, 64, 62
3, 49344, Note_on_c, 1, 59, 62
3, 49440, Note_off_c, 1, 68, 64
3, 49440, Note_off_c, 1, 64, 64
3, 49440, Note_off_c, 1, 59, 64
3, 49536, Note_on_c, 1, 69, 62
3, 49536, Note_on_c, 1, 66, 62
3, 49536, Note_on_c, 1, 59, 62
3, 49632, Note_off_c, 1, 69, 64
3, 49632, Note_off_c, 1, 66, 64
3, 49632, Note_off_c, 1, 59, 64
3, 49920, Note_on_c, 1, 63, 62
3, 49920, Note_on_c, 1, 59, 62
3, 50016, Note_off_c, 1, 63, 64
3, 50016, Note_off_c, 1, 59, 64
3, 50304, Note_on_c, 1, 66, 62
3, 50304, Note_on_c, 1, 63, 62
3, 50400, Note_off_c, 1, 66, 64
3, 50400, Note_off_c, 1, 63, 64
3, 50688, Note_on_c, 1, 68, 63
3, 50688, Note_on_c, 1, 64, 63
3, 51068, Note_off_c, 1, 68, 64
3, 51068, Note_off_c, 1, 64, 64
3, 51072, Note_on_c, 1, 69, 68
3, 51072, Note_on_c, 1, 63, 68
3, 51452, Note_off_c, 1, 69, 64
3, 51452, Note_off_c, 1, 63, 64
3, 51456, Note_on_c, 1, 69, 74
3, 51456, Note_on_c, 1, 62, 74
3, 51836, Note_off_c, 1, 69, 64
3, 51836, Note_off_c, 1, 62, 64
3, 51840, Note_on_c, 1, 64, 81
3, 51840, Note_on_c, 1, 61, 81
3, 52220, Note_off_c, 1, 64, 64
3, 52220, Note_off_c, 1, 61, 64
3, 52224, Note_on_c, 1, 66, 75
3, 52224, Note_on_c, 1, 63, 75
3, 52604, Note_off_c, 1, 66, 64
3, 52604, Note_off_c, 1, 63, 64
3, 52608, Note_on_c, 1, 68, 69
3, 52608, Note_on_c, 1, 64, 69
3, 52988, Note_off_c, 1, 68, 64
3, 52988, Note_off_c, 1, 64, 64
3, 52992, Note_on_c, 1, 69, 62
3, 52992, Note_on_c, 1, 66, 62
3, 53180, Note_off_c, 1, 69, 64
3, 53180, Note_off_c, 1, 66, 64
3, 53184, Note_on_c, 1, 69, 62
3, 53184, Note_on_c, 1, 66, 62
3, 53372, Note_off_c, 1, 69, 64
3, 53372, Note_off_c, 1, 66, 64
3, 53376, Note_on_c, 1, 68, 62
3, 53376, Note_on_c, 1, 64, 62
3, 53564, Note_off_c, 1, 68, 64
3, 53564, Note_off_c, 1, 64, 64
3, 53568, Note_on_c, 1, 71, 62
3, 53568, Note_on_c, 1, 68, 62
3, 53756, Note_off_c, 1, 71, 64
3, 53756, Note_off_c, 1, 68, 64
3, 53760, Note_on_c, 1, 69, 62
3, 53760, Note_on_c, 1, 66, 62
3, 53948, Note_off_c, 1, 69, 64
3, 53948, Note_off_c, 1, 66, 64
3, 53952, Note_on_c, 1, 66, 62
3, 53952, Note_on_c, 1, 63, 62
3, 54140, Note_off_c, 1, 66, 64
3, 54140, Note_off_c, 1, 63, 64
3, 54144, Note_on_c, 1, 76, 62
3, 54144, Note_on_c, 1, 64, 62
3, 54524, Note_off_c, 1, 76, 64
3, 54524, Note_off_c, 1, 64, 64
3, 54528, Note_on_c, 1, 75, 68
3, 54528, Note_on_c, 1, 63, 68
3, 54908, Note_off_c, 1, 75, 64
3, 54908, Note_off_c, 1, 63, 64
3, 54912, Note_on_c, 1, 74, 74
3, 54912, Note_on_c, 1, 62, 74
3, 55292, Note_off_c, 1, 74, 64
3, 55292, Note_off_c, 1, 62, 64
3, 55296, Note_on_c, 1, 73, 80
3, 55296, Note_on_c, 1, 61, 80
3, 55676, Note_off_c, 1, 73, 64
3, 55676, Note_off_c, 1, 61, 64
3, 55680, Note_on_c, 1, 75, 73
3, 55680, Note_on_c, 1, 63, 73
3, 56060, Note_off_c, 1, 75, 64
3, 56060, Note_off_c, 1, 63, 64
3, 56064, Note_on_c, 1, 76, 62
3, 56064, Note_on_c, 1, 64, 62
3, 56252, Note_off_c, 1, 76, 64
3, 56252, Note_off_c, 1, 64, 64
3, 56448, Note_on_c, 1, 76, 54
3, 56448, Note_on_c, 1, 73, 54
3, 56828, Note_off_c, 1, 76, 64
3, 56828, Note_off_c, 1, 73, 64
3, 56832, Note_on_c, 1, 78, 54
3, 56832, Note_on_c, 1, 75, 54
3, 57212, Note_off_c, 1, 78, 64
3, 57212, Note_off_c, 1, 75, 64
3, 57216, Note_on_c, 1, 80, 54
3, 57216, Note_on_c, 1, 76, 54
3, 57404, Note_off_c, 1, 80, 64
3, 57404, Note_off_c, 1, 76, 64
3, 57600, Note_on_c, 1, 73, 90
3, 57600, Note_on_c, 1, 69, 90
3, 57696, Note_off_c, 1, 73, 64
3, 57696, Note_off_c, 1, 69, 64
3, 57792, Note_on_c, 1, 73, 90
3, 57792, Note_on_c, 1, 69, 90
3, 57888, Note_off_c, 1, 73, 64
3, 57888, Note_off_c, 1, 69, 64
3, 57984, Note_on_c, 1, 71, 90
3, 57984, Note_on_c, 1, 68, 90
3, 58080, Note_off_c, 1, 71, 64
3, 58080, Note_off_c, 1, 68, 64
3, 58176, Note_on_c, 1, 71, 90
3, 58176, Note_on_c, 1, 68, 90
3, 58272, Note_off_c, 1, 71, 64
3, 58272, Note_off_c, 1, 68, 64
3, 58368, Note_on_c, 1, 69, 90
3, 58368, Note_on_c, 1, 66, 90
3, 58464, Note_off_c, 1, 69, 64
3, 58464, Note_off_c, 1, 66, 64
3, 58560, Note_on_c, 1, 69, 90
3, 58560, Note_on_c, 1, 66, 90
3, 58656, Note_off_c, 1, 69, 64
3, 58656, Note_off_c, 1, 66, 64
3, 58752, Note_on_c, 1, 68, 90
3, 58752, Note_on_c, 1, 64, 90
3, 59132, Note_off_c, 1, 68, 64
3, 59136, Note_on_c, 1, 71, 90
3, 59516, Note_off_c, 1, 64, 64
3, 59516, Note_off_c, 1, 71, 64
3, 60288, Note_on_c, 1, 78, 62
3, 60288, Note_on_c, 1, 73, 62
3, 60480, Note_off_c, 1, 78, 64
3, 60480, Note_off_c, 1, 73, 64
3, 61440, Note_on_c, 1, 75, 62
3, 61440, Note_on_c, 1, 69, 62
3, 61632, Note_off_c, 1, 75, 64
3, 61632, Note_off_c, 1, 69, 64
3, 62592, Note_on_c, 1, 76, 62
3, 62592, Note_on_c, 1, 71, 62
3, 62592, Note_on_c, 1, 64, 62
3, 62784, Note_off_c, 1, 76, 64
3, 62784, Note_off_c, 1, 71, 64
3, 62784, Note_off_c, 1, 64, 64
3, 63360, Note_on_c, 1, 71, 90
3, 63360, Note_on_c, 1, 68, 90
3, 63740, Note_off_c, 1, 71, 64
3, 63740, Note_off_c, 1, 68, 64
3, 63744, Note_on_c, 1, 69, 90
3, 63744, Note_on_c, 1, 66, 90
3, 64124, Note_off_c, 1, 69, 64
3, 64124, Note_off_c, 1, 66, 64
3, 64512, Note_on_c, 1, 66, 90
3, 64512, Note_on_c, 1, 64, 90
3, 64892, Note_off_c, 1, 64, 64
3, 64896, Note_on_c, 1, 63, 90
3, 65276, Note_off_c, 1, 66, 64
3, 65276, Note_off_c, 1, 63, 64
3, 66048, Note_on_c, 1, 64, 85
3, 66048, Note_on_c, 1, 59, 85
3, 66048, Note_on_c, 1, 56, 85
3, 66428, Note_off_c, 1, 64, 64
3, 66428, Note_off_c, 1, 59, 64
3, 66428, Note_off_c, 1, 56, 64
3, 66432, Note_on_c, 1, 64, 81
3, 66432, Note_on_c, 1, 59, 81
3, 66432, Note_on_c, 1, 56, 81
3, 66812, Note_off_c, 1, 64, 64
3, 66812, Note_off_c, 1, 59, 64
3, 66812, Note_off_c, 1, 56, 64
3, 66816, Note_on_c, 1, 64, 75
3, 66816, Note_on_c, 1, 59, 75
3, 66816, Note_on_c, 1, 56, 75
3, 67964, Note_off_c, 1, 64, 64
3, 67964, Note_off_c, 1, 59, 64
3, 67964, Note_off_c, 1, 56, 64
3, 75264, Note_on_c, 1, 61, 62
3, 75644, Note_off_c, 1, 61, 64
3, 75648, Note_on_c, 1, 64, 62
3, 76028, Note_off_c, 1, 64, 64
3, 76032, Note_on_c, 1, 62, 62
3, 76796, Note_off_c, 1, 62, 64
3, 77184, Note_on_c, 1, 59, 62
3, 77184, Note_on_c, 1, 56, 62
3, 77564, Note_off_c, 1, 59, 64
3, 77564, Note_off_c, 1, 56, 64
3, 77568, Note_on_c, 1, 61, 62
3, 77568, Note_on_c, 1, 57, 62
3, 77948, Note_off_c, 1, 61, 64
3, 77948, Note_off_c, 1, 57, 64
3, 77952, Note_on_c, 1, 62, 62
3, 77952, Note_on_c, 1, 59, 62
3, 78332, Note_off_c, 1, 62, 64
3, 78332, Note_off_c, 1, 59, 64
3, 78336, Note_on_c, 1, 61, 62
3, 78716, Note_off_c, 1, 61, 64
3, 79488, Note_on_c, 1, 69, 62
3, 79488, Note_on_c, 1, 64, 62
3, 79868, Note_off_c, 1, 69, 64
3, 79868, Note_off_c, 1, 64, 64
3, 80256, Note_on_c, 1, 69, 62
3, 80256, Note_on_c, 1, 66, 62
3, 80636, Note_off_c, 1, 69, 64
3, 80636, Note_off_c, 1, 66, 64
3, 80640, Note_on_c, 1, 69, 62
3, 80640, Note_on_c, 1, 64, 62
3, 81020, Note_off_c, 1, 69, 64
3, 81020, Note_off_c, 1, 64, 64
3, 81408, Note_on_c, 1, 69, 62
3, 81408, Note_on_c, 1, 62, 62
3, 81788, Note_off_c, 1, 69, 64
3, 81788, Note_off_c, 1, 62, 64
3, 81792, Note_on_c, 1, 69, 62
3, 81792, Note_on_c, 1, 61, 62
3, 82172, Note_off_c, 1, 61, 64
3, 82176, Note_on_c, 1, 62, 62
3, 82556, Note_off_c, 1, 62, 64
3, 82560, Note_on_c, 1, 63, 62
3, 82940, Note_off_c, 1, 69, 64
3, 82940, Note_off_c, 1, 63, 64
3, 82944, Note_on_c, 1, 68, 62
3, 82944, Note_on_c, 1, 64, 62
3, 83132, Note_off_c, 1, 68, 64
3, 83324, Note_off_c, 1, 64, 64
3, 83712, Note_on_c, 1, 73, 90
3, 83996, Note_off_c, 1, 73, 64
3, 84000, Note_on_c, 1, 74, 90
3, 84092, Note_off_c, 1, 74, 64
3, 84096, Note_on_c, 1, 76, 90
3, 84476, Note_off_c, 1, 76, 64
3, 84480, Note_on_c, 1, 73, 90
3, 84860, Note_off_c, 1, 73, 64
3, 84864, Note_on_c, 1, 78, 90
3, 85056, Note_off_c, 1, 78, 64
3, 85248, Note_on_c, 1, 64, 90
3, 85248, Note_on_c, 1, 69, 90
3, 85628, Note_off_c, 1, 69, 64
3, 85632, Note_on_c, 1, 68, 90
3, 86012, Note_off_c, 1, 64, 64
3, 86012, Note_off_c, 1, 68, 64
3, 86016, Note_on_c, 1, 71, 90
3, 86300, Note_off_c, 1, 71, 64
3, 86304, Note_on_c, 1, 73, 90
3, 86396, Note_off_c, 1, 73, 64
3, 86400, Note_on_c, 1, 76, 100
3, 86456, Note_off_c, 1, 76, 64
3, 86460, Note_on_c, 1, 74, 90
3, 86460, Note_on_c, 1, 71, 90
3, 86772, Note_off_c, 1, 74, 64
3, 86772, Note_off_c, 1, 71, 64
3, 86784, Note_on_c, 1, 73, 90
3, 86784, Note_on_c, 1, 64, 90
3, 86972, Note_off_c, 1, 73, 64
3, 86976, Note_on_c, 1, 71, 90
3, 87164, Note_off_c, 1, 64, 64
3, 87164, Note_off_c, 1, 71, 64
3, 87168, Note_on_c, 1, 69, 90
3, 87168, Note_on_c, 1, 64, 90
3, 87356, Note_off_c, 1, 69, 64
3, 87360, Note_on_c, 1, 68, 90
3, 87548, Note_off_c, 1, 64, 64
3, 87548, Note_off_c, 1, 68, 64
3, 87552, Note_on_c, 1, 69, 90
3, 87552, Note_on_c, 1, 64, 90
3, 87836, Note_off_c, 1, 69, 64
3, 87836, Note_off_c, 1, 64, 64
3, 87840, Note_on_c, 1, 73, 90
3, 87932, Note_off_c, 1, 73, 64
3, 87936, Note_on_c, 1, 64, 90
3, 88316, Note_off_c, 1, 64, 64
3, 88320, Note_on_c, 1, 81, 90
3, 88604, Note_off_c, 1, 81, 64
3, 88608, Note_on_c, 1, 80, 90
3, 88700, Note_off_c, 1, 80, 64
3, 88704, Note_on_c, 1, 80, 90
3, 88892, Note_off_c, 1, 80, 64
3, 88896, Note_on_c, 1, 78, 90
3, 89084, Note_off_c, 1, 78, 64
3, 89088, Note_on_c, 1, 78, 90
3, 89468, Note_off_c, 1, 78, 64
3, 89472, Note_on_c, 1, 78, 90
3, 89756, Note_off_c, 1, 78, 64
3, 89760, Note_on_c, 1, 76, 90
3, 89852, Note_off_c, 1, 76, 64
3, 89856, Note_on_c, 1, 76, 90
3, 90044, Note_off_c, 1, 76, 64
3, 90048, Note_on_c, 1, 74, 90
3, 90236, Note_off_c, 1, 74, 64
3, 90240, Note_on_c, 1, 74, 90
3, 90620, Note_off_c, 1, 74, 64
3, 90624, Note_on_c, 1, 74, 90
3, 90908, Note_off_c, 1, 74, 64
3, 90912, Note_on_c, 1, 73, 90
3, 91004, Note_off_c, 1, 73, 64
3, 91008, Note_on_c, 1, 78, 90
3, 91008, Note_on_c, 1, 71, 90
3, 91292, Note_off_c, 1, 78, 64
3, 91292, Note_off_c, 1, 71, 64
3, 91296, Note_on_c, 1, 83, 90
3, 91296, Note_on_c, 1, 74, 90
3, 91388, Note_off_c, 1, 83, 64
3, 91388, Note_off_c, 1, 74, 64
3, 91392, Note_on_c, 1, 81, 90
3, 91392, Note_on_c, 1, 73, 90
3, 91760, Note_on_c, 1, 71, 90
3, 91772, Note_off_c, 1, 81, 64
3, 91772, Note_off_c, 1, 73, 64
3, 91776, Note_on_c, 1, 80, 90
3, 91776, Note_on_c, 1, 74, 90
3, 92140, Note_off_c, 1, 71, 64
3, 92156, Note_off_c, 1, 80, 64
3, 92156, Note_off_c, 1, 74, 64
3, 92160, Note_on_c, 1, 81, 90
3, 92160, Note_on_c, 1, 73, 90
3, 92160, Note_on_c, 1, 69, 90
3, 92540, Note_off_c, 1, 81, 64
3, 92540, Note_off_c, 1, 73, 64
3, 92540, Note_off_c, 1, 69, 64
3, 93504, Note_on_c, 1, 68, 73
3, 93504, Note_on_c, 1, 64, 73
3, 93504, Note_on_c, 1, 62, 73
3, 93504, Note_on_c, 1, 59, 73
3, 93692, Note_off_c, 1, 68, 64
3, 93692, Note_off_c, 1, 64, 64
3, 93692, Note_off_c, 1, 62, 64
3, 93692, Note_off_c, 1, 59, 64
3, 93696, Note_on_c, 1, 68, 73
3, 93696, Note_on_c, 1, 64, 73
3, 93696, Note_on_c, 1, 62, 73
3, 93696, Note_on_c, 1, 59, 73
3, 93884, Note_off_c, 1, 68, 64
3, 93884, Note_off_c, 1, 64, 64
3, 93884, Note_off_c, 1, 62, 64
3, 93884, Note_off_c, 1, 59, 64
3, 93888, Note_on_c, 1, 68, 73
3, 93888, Note_on_c, 1, 64, 73
3, 93888, Note_on_c, 1, 62, 73
3, 93888, Note_on_c, 1, 59, 73
3, 94064, Note_on_c, 1, 59, 73
3, 94076, Note_off_c, 1, 68, 64
3, 94076, Note_off_c, 1, 64, 64
3, 94076, Note_off_c, 1, 62, 64
3, 94076, Note_off_c, 1, 59, 64
3, 94080, Note_on_c, 1, 68, 73
3, 94080, Note_on_c, 1, 64, 73
3, 94080, Note_on_c, 1, 62, 73
3, 94252, Note_off_c, 1, 59, 64
3, 94268, Note_off_c, 1, 68, 64
3, 94268, Note_off_c, 1, 64, 64
3, 94268, Note_off_c, 1, 62, 64
3, 94272, Note_on_c, 1, 68, 73
3, 94272, Note_on_c, 1, 64, 73
3, 94272, Note_on_c, 1, 62, 73
3, 94272, Note_on_c, 1, 59, 73
3, 94460, Note_off_c, 1, 68, 64
3, 94460, Note_off_c, 1, 64, 64
3, 94460, Note_off_c, 1, 62, 64
3, 94460, Note_off_c, 1, 59, 64
3, 94656, Note_on_c, 1, 64, 73
3, 94656, Note_on_c, 1, 61, 73
3, 94656, Note_on_c, 1, 57, 73
3, 94656, Note_on_c, 1, 69, 73
3, 94844, Note_off_c, 1, 64, 64
3, 94844, Note_off_c, 1, 61, 64
3, 94844, Note_off_c, 1, 57, 64
3, 94844, Note_off_c, 1, 69, 64
3, 94848, Note_on_c, 1, 64, 73
3, 94848, Note_on_c, 1, 61, 73
3, 94848, Note_on_c, 1, 57, 73
3, 94848, Note_on_c, 1, 69, 73
3, 95036, Note_off_c, 1, 64, 64
3, 95036, Note_off_c, 1, 61, 64
3, 95036, Note_off_c, 1, 57, 64
3, 95036, Note_off_c, 1, 69, 64
3, 95040, Note_on_c, 1, 66, 90
3, 95120, Note_on_c, 1, 68, 90
3, 95132, Note_off_c, 1, 66, 64
3, 95212, Note_off_c, 1, 68, 64
3, 95232, Note_on_c, 1, 71, 90
3, 95324, Note_off_c, 1, 71, 64
3, 95328, Note_on_c, 1, 69, 90
3, 95420, Note_off_c, 1, 69, 64
3, 95424, Note_on_c, 1, 68, 90
3, 95516, Note_off_c, 1, 68, 64
3, 95520, Note_on_c, 1, 66, 90
3, 95612, Note_off_c, 1, 66, 64
3, 95616, Note_on_c, 1, 73, 90
3, 96092, Note_off_c, 1, 73, 64
3, 96096, Note_on_c, 1, 74, 90
3, 96188, Note_off_c, 1, 74, 64
3, 96192, Note_on_c, 1, 73, 90
3, 96284, Note_off_c, 1, 73, 64
3, 96288, Note_on_c, 1, 74, 90
3, 96380, Note_off_c, 1, 74, 64
3, 96384, Note_on_c, 1, 73, 90
3, 96476, Note_off_c, 1, 73, 64
3, 96480, Note_on_c, 1, 71, 90
3, 96572, Note_off_c, 1, 71, 64
3, 96576, Note_on_c, 1, 69, 90
3, 96668, Note_off_c, 1, 69, 64
3, 96672, Note_on_c, 1, 68, 90
3, 96764, Note_off_c, 1, 68, 64
3, 96768, Note_on_c, 1, 66, 90
3, 96956, Note_off_c, 1, 66, 64
3, 96960, Note_on_c, 1, 61, 62
3, 96960, Note_on_c, 1, 57, 62
3, 97148, Note_off_c, 1, 61, 64
3, 97148, Note_off_c, 1, 57, 64
3, 97152, Note_on_c, 1, 61, 62
3, 97152, Note_on_c, 1, 57, 62
3, 97340, Note_off_c, 1, 61, 64
3, 97340, Note_off_c, 1, 57, 64
3, 97344, Note_on_c, 1, 61, 62
3, 97344, Note_on_c, 1, 57, 62
3, 97532, Note_off_c, 1, 61, 64
3, 97532, Note_off_c, 1, 57, 64
3, 97536, Note_on_c, 1, 61, 62
3, 97536, Note_on_c, 1, 57, 62
3, 97724, Note_off_c, 1, 61, 64
3, 97724, Note_off_c, 1, 57, 64
3, 97728, Note_on_c, 1, 61, 62
3, 97728, Note_on_c, 1, 57, 62
3, 97916, Note_off_c, 1, 61, 64
3, 97916, Note_off_c, 1, 57, 64
3, 97920, Note_on_c, 1, 61, 62
3, 97920, Note_on_c, 1, 57, 62
3, 98108, Note_off_c, 1, 61, 64
3, 98108, Note_off_c, 1, 57, 64
3, 98112, Note_on_c, 1, 61, 62
3, 98112, Note_on_c, 1, 57, 62
3, 98300, Note_off_c, 1, 61, 64
3, 98300, Note_off_c, 1, 57, 64
3, 98304, Note_on_c, 1, 61, 62
3, 98304, Note_on_c, 1, 57, 62
3, 98492, Note_off_c, 1, 61, 64
3, 98492, Note_off_c, 1, 57, 64
3, 98496, Note_on_c, 1, 61, 62
3, 98496, Note_on_c, 1, 57, 62
3, 98684, Note_off_c, 1, 61, 64
3, 98684, Note_off_c, 1, 57, 64
3, 98688, Note_on_c, 1, 61, 62
3, 98688, Note_on_c, 1, 57, 62
3, 98876, Note_off_c, 1, 61, 64
3, 98876, Note_off_c, 1, 57, 64
3, 98880, Note_on_c, 1, 61, 62
3, 98880, Note_on_c, 1, 57, 62
3, 99068, Note_off_c, 1, 61, 64
3, 99068, Note_off_c, 1, 57, 64
3, 99072, Note_on_c, 1, 61, 62
3, 99072, Note_on_c, 1, 59, 62
3, 99072, Note_on_c, 1, 56, 62
3, 99260, Note_off_c, 1, 61, 64
3, 99260, Note_off_c, 1, 59, 64
3, 99260, Note_off_c, 1, 56, 64
3, 99264, Note_on_c, 1, 61, 62
3, 99264, Note_on_c, 1, 59, 62
3, 99264, Note_on_c, 1, 56, 62
3, 99644, Note_off_c, 1, 61, 64
3, 99644, Note_off_c, 1, 59, 64
3, 99644, Note_off_c, 1, 56, 64
3, 99648, Note_on_c, 1, 61, 62
3, 99648, Note_on_c, 1, 59, 62
3, 99648, Note_on_c, 1, 56, 62
3, 100028, Note_off_c, 1, 61, 64
3, 100028, Note_off_c, 1, 59, 64
3, 100028, Note_off_c, 1, 56, 64
3, 100032, Note_on_c, 1, 61, 62
3, 100032, Note_on_c, 1, 59, 62
3, 100032, Note_on_c, 1, 56, 62
3, 100220, Note_off_c, 1, 61, 64
3, 100220, Note_off_c, 1, 59, 64
3, 100220, Note_off_c, 1, 56, 64
3, 100224, Note_on_c, 1, 61, 62
3, 100320, Note_off_c, 1, 61, 64
3, 100320, Note_on_c, 1, 66, 62
3, 100368, Note_off_c, 1, 66, 64
3, 100416, Note_on_c, 1, 69, 62
3, 100464, Note_off_c, 1, 69, 64
3, 100512, Note_on_c, 1, 68, 62
3, 100560, Note_off_c, 1, 68, 64
3, 100608, Note_on_c, 1, 66, 62
3, 100704, Note_off_c, 1, 66, 64
3, 100704, Note_on_c, 1, 68, 62
3, 100752, Note_off_c, 1, 68, 64
3, 100800, Note_on_c, 1, 69, 62
3, 100848, Note_off_c, 1, 69, 64
3, 100896, Note_on_c, 1, 68, 62
3, 100944, Note_off_c, 1, 68, 64
3, 100992, Note_on_c, 1, 66, 62
3, 101088, Note_off_c, 1, 66, 64
3, 101088, Note_on_c, 1, 68, 62
3, 101136, Note_off_c, 1, 68, 64
3, 101184, Note_on_c, 1, 69, 62
3, 101232, Note_off_c, 1, 69, 64
3, 101280, Note_on_c, 1, 66, 62
3, 101328, Note_off_c, 1, 66, 64
3, 101376, Note_on_c, 1, 65, 62
3, 101472, Note_off_c, 1, 65, 64
3, 101472, Note_on_c, 1, 66, 62
3, 101520, Note_off_c, 1, 66, 64
3, 101568, Note_on_c, 1, 68, 62
3, 101616, Note_off_c, 1, 68, 64
3, 101664, Note_on_c, 1, 66, 62
3, 101712, Note_off_c, 1, 66, 64
3, 101760, Note_on_c, 1, 65, 62
3, 101856, Note_off_c, 1, 65, 64
3, 101856, Note_on_c, 1, 66, 62
3, 101904, Note_off_c, 1, 66, 64
3, 101952, Note_on_c, 1, 68, 62
3, 102000, Note_off_c, 1, 68, 64
3, 102048, Note_on_c, 1, 66, 62
3, 102096, Note_off_c, 1, 66, 64
3, 102144, Note_on_c, 1, 65, 62
3, 102240, Note_off_c, 1, 65, 64
3, 102240, Note_on_c, 1, 66, 62
3, 102288, Note_off_c, 1, 66, 64
3, 102336, Note_on_c, 1, 68, 62
3, 102384, Note_off_c, 1, 68, 64
3, 102432, Note_on_c, 1, 65, 62
3, 102480, Note_off_c, 1, 65, 64
3, 102528, Note_on_c, 1, 66, 62
3, 102624, Note_off_c, 1, 66, 64
3, 102624, Note_on_c, 1, 68, 62
3, 102672, Note_off_c, 1, 68, 64
3, 102720, Note_on_c, 1, 69, 62
3, 102768, Note_off_c, 1, 69, 64
3, 102816, Note_on_c, 1, 68, 62
3, 102864, Note_off_c, 1, 68, 64
3, 102912, Note_on_c, 1, 66, 62
3, 103008, Note_off_c, 1, 66, 64
3, 103008, Note_on_c, 1, 68, 62
3, 103056, Note_off_c, 1, 68, 64
3, 103104, Note_on_c, 1, 69, 62
3, 103152, Note_off_c, 1, 69, 64
3, 103200, Note_on_c, 1, 68, 62
3, 103248, Note_off_c, 1, 68, 64
3, 103296, Note_on_c, 1, 66, 62
3, 103392, Note_off_c, 1, 66, 64
3, 103392, Note_on_c, 1, 68, 62
3, 103440, Note_off_c, 1, 68, 64
3, 103488, Note_on_c, 1, 69, 62
3, 103536, Note_off_c, 1, 69, 64
3, 103584, Note_on_c, 1, 66, 62
3, 103632, Note_off_c, 1, 66, 64
3, 103680, Note_on_c, 1, 68, 62
3, 103776, Note_off_c, 1, 68, 64
3, 103776, Note_on_c, 1, 69, 62
3, 103824, Note_off_c, 1, 69, 64
3, 103872, Note_on_c, 1, 71, 62
3, 103920, Note_off_c, 1, 71, 64
3, 103968, Note_on_c, 1, 69, 62
3, 104016, Note_off_c, 1, 69, 64
3, 104064, Note_on_c, 1, 68, 62
3, 104160, Note_off_c, 1, 68, 64
3, 104160, Note_on_c, 1, 69, 62
3, 104208, Note_off_c, 1, 69, 64
3, 104256, Note_on_c, 1, 71, 62
3, 104304, Note_off_c, 1, 71, 64
3, 104352, Note_on_c, 1, 68, 62
3, 104400, Note_off_c, 1, 68, 64
3, 104448, Note_on_c, 1, 65, 62
3, 104544, Note_off_c, 1, 65, 64
3, 104544, Note_on_c, 1, 66, 62
3, 104592, Note_off_c, 1, 66, 64
3, 104640, Note_on_c, 1, 68, 62
3, 104688, Note_off_c, 1, 68, 64
3, 104736, Note_on_c, 1, 65, 62
3, 104784, Note_off_c, 1, 65, 64
3, 104832, Note_on_c, 1, 66, 62
3, 105212, Note_off_c, 1, 66, 64
3, 106176, Note_on_c, 1, 65, 62
3, 106176, Note_on_c, 1, 59, 62
3, 106176, Note_on_c, 1, 56, 62
3, 106364, Note_off_c, 1, 65, 64
3, 106364, Note_off_c, 1, 59, 64
3, 106364, Note_off_c, 1, 56, 64
3, 106368, Note_on_c, 1, 65, 62
3, 106368, Note_on_c, 1, 59, 62
3, 106368, Note_on_c, 1, 56, 62
3, 106556, Note_off_c, 1, 65, 64
3, 106556, Note_off_c, 1, 59, 64
3, 106556, Note_off_c, 1, 56, 64
3, 106560, Note_on_c, 1, 65, 62
3, 106560, Note_on_c, 1, 59, 62
3, 106560, Note_on_c, 1, 56, 62
3, 106748, Note_off_c, 1, 65, 64
3, 106748, Note_off_c, 1, 59, 64
3, 106748, Note_off_c, 1, 56, 64
3, 106752, Note_on_c, 1, 65, 62
3, 106752, Note_on_c, 1, 59, 62
3, 106752, Note_on_c, 1, 56, 62
3, 106940, Note_off_c, 1, 65, 64
3, 106940, Note_off_c, 1, 59, 64
3, 106940, Note_off_c, 1, 56, 64
3, 106944, Note_on_c, 1, 65, 62
3, 106944, Note_on_c, 1, 59, 62
3, 106944, Note_on_c, 1, 56, 62
3, 107132, Note_off_c, 1, 65, 64
3, 107132, Note_off_c, 1, 59, 64
3, 107132, Note_off_c, 1, 56, 64
3, 107136, Note_on_c, 1, 57, 62
3, 107136, Note_on_c, 1, 54, 62
3, 107136, Note_on_c, 1, 66, 62
3, 107324, Note_off_c, 1, 57, 64
3, 107324, Note_off_c, 1, 54, 64
3, 107324, Note_off_c, 1, 66, 64
3, 107328, Note_on_c, 1, 57, 62
3, 107328, Note_on_c, 1, 54, 62
3, 107328, Note_on_c, 1, 66, 62
3, 107516, Note_off_c, 1, 57, 64
3, 107516, Note_off_c, 1, 54, 64
3, 107516, Note_off_c, 1, 66, 64
3, 107520, Note_on_c, 1, 66, 62
3, 107520, Note_on_c, 1, 57, 62
3, 107520, Note_on_c, 1, 54, 62
3, 107708, Note_off_c, 1, 66, 64
3, 107708, Note_off_c, 1, 57, 64
3, 107708, Note_off_c, 1, 54, 64
3, 107712, Note_on_c, 1, 62, 90
3, 107804, Note_off_c, 1, 62, 64
3, 107808, Note_on_c, 1, 64, 90
3, 107900, Note_off_c, 1, 64, 64
3, 107904, Note_on_c, 1, 67, 90
3, 107996, Note_off_c, 1, 67, 64
3, 108000, Note_on_c, 1, 66, 90
3, 108092, Note_off_c, 1, 66, 64
3, 108096, Note_on_c, 1, 64, 90
3, 108188, Note_off_c, 1, 64, 64
3, 108192, Note_on_c, 1, 62, 90
3, 108284, Note_off_c, 1, 62, 64
3, 108288, Note_on_c, 1, 69, 90
3, 108764, Note_off_c, 1, 69, 64
3, 108768, Note_on_c, 1, 71, 90
3, 108860, Note_off_c, 1, 71, 64
3, 108864, Note_on_c, 1, 69, 90
3, 108956, Note_off_c, 1, 69, 64
3, 108960, Note_on_c, 1, 71, 90
3, 109052, Note_off_c, 1, 71, 64
3, 109056, Note_on_c, 1, 69, 90
3, 109148, Note_off_c, 1, 69, 64
3, 109152, Note_on_c, 1, 67, 90
3, 109244, Note_off_c, 1, 67, 64
3, 109248, Note_on_c, 1, 66, 90
3, 109340, Note_off_c, 1, 66, 64
3, 109344, Note_on_c, 1, 64, 90
3, 109436, Note_off_c, 1, 64, 64
3, 109440, Note_on_c, 1, 62, 90
3, 109628, Note_off_c, 1, 62, 64
3, 112896, Note_on_c, 1, 57, 62
3, 112992, Note_off_c, 1, 57, 64
3, 112992, Note_on_c, 1, 62, 62
3, 113040, Note_off_c, 1, 62, 64
3, 113088, Note_on_c, 1, 66, 62
3, 113136, Note_off_c, 1, 66, 64
3, 113184, Note_on_c, 1, 64, 62
3, 113232, Note_off_c, 1, 64, 64
3, 113280, Note_on_c, 1, 62, 62
3, 113376, Note_off_c, 1, 62, 64
3, 113376, Note_on_c, 1, 64, 62
3, 113424, Note_off_c, 1, 64, 64
3, 113472, Note_on_c, 1, 66, 62
3, 113520, Note_off_c, 1, 66, 64
3, 113568, Note_on_c, 1, 64, 62
3, 113616, Note_off_c, 1, 64, 64
3, 113664, Note_on_c, 1, 62, 62
3, 113760, Note_off_c, 1, 62, 64
3, 113760, Note_on_c, 1, 64, 62
3, 113808, Note_off_c, 1, 64, 64
3, 113856, Note_on_c, 1, 66, 62
3, 113904, Note_off_c, 1, 66, 64
3, 113952, Note_on_c, 1, 62, 62
3, 114000, Note_off_c, 1, 62, 64
3, 114048, Note_on_c, 1, 61, 62
3, 114144, Note_off_c, 1, 61, 72
3, 114144, Note_on_c, 1, 62, 62
3, 114192, Note_off_c, 1, 62, 72
3, 114240, Note_on_c, 1, 64, 62
3, 114288, Note_off_c, 1, 64, 72
3, 114336, Note_on_c, 1, 62, 62
3, 114384, Note_off_c, 1, 62, 72
3, 114432, Note_on_c, 1, 61, 62
3, 114528, Note_off_c, 1, 61, 72
3, 114528, Note_on_c, 1, 62, 62
3, 114576, Note_off_c, 1, 62, 72
3, 114624, Note_on_c, 1, 64, 62
3, 114672, Note_off_c, 1, 64, 72
3, 114720, Note_on_c, 1, 62, 62
3, 114768, Note_off_c, 1, 62, 72
3, 114816, Note_on_c, 1, 61, 62
3, 114912, Note_off_c, 1, 61, 72
3, 114912, Note_on_c, 1, 62, 62
3, 114960, Note_off_c, 1, 62, 72
3, 115008, Note_on_c, 1, 64, 62
3, 115056, Note_off_c, 1, 64, 72
3, 115104, Note_on_c, 1, 61, 62
3, 115152, Note_off_c, 1, 61, 72
3, 115200, Note_on_c, 1, 62, 62
3, 115296, Note_off_c, 1, 62, 72
3, 115296, Note_on_c, 1, 64, 62
3, 115344, Note_off_c, 1, 64, 72
3, 115392, Note_on_c, 1, 66, 62
3, 115440, Note_off_c, 1, 66, 72
3, 115488, Note_on_c, 1, 64, 62
3, 115536, Note_off_c, 1, 64, 72
3, 115584, Note_on_c, 1, 62, 62
3, 115680, Note_off_c, 1, 62, 72
3, 115680, Note_on_c, 1, 64, 62
3, 115728, Note_off_c, 1, 64, 72
3, 115776, Note_on_c, 1, 66, 62
3, 115824, Note_off_c, 1, 66, 72
3, 115872, Note_on_c, 1, 64, 62
3, 115920, Note_off_c, 1, 64, 72
3, 115968, Note_on_c, 1, 62, 62
3, 116064, Note_off_c, 1, 62, 72
3, 116064, Note_on_c, 1, 64, 62
3, 116112, Note_off_c, 1, 64, 72
3, 116160, Note_on_c, 1, 66, 62
3, 116208, Note_off_c, 1, 66, 72
3, 116256, Note_on_c, 1, 62, 62
3, 116304, Note_off_c, 1, 62, 72
3, 116352, Note_on_c, 1, 64, 62
3, 116448, Note_off_c, 1, 64, 72
3, 116448, Note_on_c, 1, 66, 62
3, 116496, Note_off_c, 1, 66, 72
3, 116544, Note_on_c, 1, 67, 62
3, 116592, Note_off_c, 1, 67, 72
3, 116640, Note_on_c, 1, 66, 62
3, 116688, Note_off_c, 1, 66, 72
3, 116736, Note_on_c, 1, 64, 62
3, 116832, Note_off_c, 1, 64, 72
3, 116832, Note_on_c, 1, 66, 62
3, 116880, Note_off_c, 1, 66, 72
3, 116928, Note_on_c, 1, 67, 62
3, 116976, Note_off_c, 1, 67, 72
3, 117024, Note_on_c, 1, 64, 62
3, 117072, Note_off_c, 1, 64, 72
3, 117120, Note_on_c, 1, 61, 62
3, 117216, Note_off_c, 1, 61, 72
3, 117216, Note_on_c, 1, 62, 62
3, 117264, Note_off_c, 1, 62, 72
3, 117312, Note_on_c, 1, 64, 62
3, 117360, Note_off_c, 1, 64, 72
3, 117408, Note_on_c, 1, 61, 62
3, 117456, Note_off_c, 1, 61, 72
3, 117504, Note_on_c, 1, 62, 62
3, 117600, Note_off_c, 1, 62, 72
3, 117600, Note_on_c, 1, 64, 62
3, 117648, Note_off_c, 1, 64, 72
3, 117696, Note_on_c, 1, 66, 62
3, 117744, Note_off_c, 1, 66, 72
3, 117792, Note_on_c, 1, 64, 62
3, 117840, Note_off_c, 1, 64, 72
3, 117888, Note_on_c, 1, 62, 62
3, 117984, Note_off_c, 1, 62, 72
3, 117984, Note_on_c, 1, 64, 62
3, 118032, Note_off_c, 1, 64, 72
3, 118080, Note_on_c, 1, 62, 62
3, 118128, Note_off_c, 1, 62, 72
3, 118176, Note_on_c, 1, 61, 62
3, 118224, Note_off_c, 1, 61, 72
3, 118272, Note_on_c, 1, 59, 62
3, 118368, Note_off_c, 1, 59, 72
3, 118368, Note_on_c, 1, 61, 62
3, 118416, Note_off_c, 1, 61, 72
3, 118464, Note_on_c, 1, 62, 62
3, 118512, Note_off_c, 1, 62, 72
3, 118560, Note_on_c, 1, 59, 62
3, 118608, Note_off_c, 1, 59, 72
3, 118656, Note_on_c, 1, 58, 62
3, 118752, Note_off_c, 1, 58, 72
3, 118752, Note_on_c, 1, 59, 62
3, 118800, Note_off_c, 1, 59, 72
3, 118832, Note_on_c, 1, 61, 62
3, 118880, Note_off_c, 1, 61, 72
3, 118944, Note_on_c, 1, 59, 62
3, 118992, Note_off_c, 1, 59, 72
3, 119040, Note_on_c, 1, 58, 62
3, 119136, Note_off_c, 1, 58, 72
3, 119136, Note_on_c, 1, 59, 62
3, 119184, Note_off_c, 1, 59, 72
3, 119216, Note_on_c, 1, 61, 62
3, 119264, Note_off_c, 1, 61, 72
3, 119328, Note_on_c, 1, 59, 62
3, 119376, Note_off_c, 1, 59, 72
3, 119424, Note_on_c, 1, 58, 62
3, 119520, Note_off_c, 1, 58, 72
3, 119520, Note_on_c, 1, 59, 62
3, 119568, Note_off_c, 1, 59, 72
3, 119616, Note_on_c, 1, 61, 62
3, 119664, Note_off_c, 1, 61, 72
3, 119712, Note_on_c, 1, 58, 62
3, 119760, Note_off_c, 1, 58, 72
3, 119808, Note_on_c, 1, 59, 62
3, 119904, Note_off_c, 1, 59, 72
3, 119904, Note_on_c, 1, 61, 62
3, 119952, Note_off_c, 1, 61, 72
3, 120000, Note_on_c, 1, 62, 62
3, 120048, Note_off_c, 1, 62, 72
3, 120096, Note_on_c, 1, 61, 62
3, 120144, Note_off_c, 1, 61, 72
3, 120192, Note_on_c, 1, 59, 62
3, 120288, Note_off_c, 1, 59, 72
3, 120288, Note_on_c, 1, 61, 62
3, 120336, Note_off_c, 1, 61, 72
3, 120384, Note_on_c, 1, 62, 62
3, 120432, Note_off_c, 1, 62, 72
3, 120480, Note_on_c, 1, 61, 62
3, 120528, Note_off_c, 1, 61, 72
3, 120576, Note_on_c, 1, 59, 62
3, 120672, Note_off_c, 1, 59, 72
3, 120672, Note_on_c, 1, 61, 62
3, 120720, Note_off_c, 1, 61, 72
3, 120768, Note_on_c, 1, 62, 62
3, 120816, Note_off_c, 1, 62, 72
3, 120864, Note_on_c, 1, 59, 62
3, 120912, Note_off_c, 1, 59, 72
3, 120960, Note_on_c, 1, 61, 62
3, 121056, Note_off_c, 1, 61, 72
3, 121056, Note_on_c, 1, 62, 62
3, 121104, Note_off_c, 1, 62, 72
3, 121152, Note_on_c, 1, 64, 62
3, 121200, Note_off_c, 1, 64, 72
3, 121248, Note_on_c, 1, 62, 62
3, 121296, Note_off_c, 1, 62, 72
3, 121344, Note_on_c, 1, 61, 62
3, 121440, Note_off_c, 1, 61, 72
3, 121440, Note_on_c, 1, 62, 62
3, 121488, Note_off_c, 1, 62, 72
3, 121536, Note_on_c, 1, 64, 62
3, 121584, Note_off_c, 1, 64, 72
3, 121632, Note_on_c, 1, 61, 62
3, 121680, Note_off_c, 1, 61, 72
3, 121728, Note_on_c, 1, 57, 62
3, 121824, Note_off_c, 1, 57, 72
3, 121824, Note_on_c, 1, 59, 62
3, 121872, Note_off_c, 1, 59, 72
3, 121920, Note_on_c, 1, 61, 62
3, 121968, Note_off_c, 1, 61, 72
3, 122016, Note_on_c, 1, 57, 62
3, 122064, Note_off_c, 1, 57, 72
3, 122112, Note_on_c, 1, 59, 62
3, 122684, Note_off_c, 1, 59, 72
3, 122688, Note_on_c, 1, 71, 90
3, 122688, Note_on_c, 1, 66, 90
3, 122688, Note_on_c, 1, 62, 90
3, 122876, Note_off_c, 1, 71, 72
3, 122876, Note_off_c, 1, 66, 72
3, 122876, Note_off_c, 1, 62, 72
3, 122880, Note_on_c, 1, 71, 90
3, 122880, Note_on_c, 1, 66, 90
3, 122880, Note_on_c, 1, 62, 90
3, 123068, Note_off_c, 1, 71, 72
3, 123068, Note_off_c, 1, 66, 72
3, 123068, Note_off_c, 1, 62, 72
3, 123072, Note_on_c, 1, 71, 90
3, 123072, Note_on_c, 1, 66, 90
3, 123072, Note_on_c, 1, 62, 90
3, 123260, Note_off_c, 1, 71, 72
3, 123260, Note_off_c, 1, 66, 72
3, 123260, Note_off_c, 1, 62, 72
3, 123264, Note_on_c, 1, 71, 90
3, 123264, Note_on_c, 1, 67, 90
3, 123264, Note_on_c, 1, 62, 90
3, 123836, Note_off_c, 1, 71, 72
3, 123836, Note_off_c, 1, 67, 72
3, 123836, Note_off_c, 1, 62, 72
3, 123840, Note_on_c, 1, 74, 90
3, 123840, Note_on_c, 1, 71, 90
3, 123840, Note_on_c, 1, 62, 90
3, 124028, Note_off_c, 1, 74, 72
3, 124028, Note_off_c, 1, 71, 72
3, 124028, Note_off_c, 1, 62, 72
3, 124032, Note_on_c, 1, 74, 90
3, 124032, Note_on_c, 1, 71, 90
3, 124032, Note_on_c, 1, 66, 90
3, 124220, Note_off_c, 1, 74, 72
3, 124220, Note_off_c, 1, 71, 72
3, 124220, Note_off_c, 1, 66, 72
3, 124224, Note_on_c, 1, 74, 90
3, 124224, Note_on_c, 1, 71, 90
3, 124224, Note_on_c, 1, 66, 90
3, 124412, Note_off_c, 1, 74, 72
3, 124412, Note_off_c, 1, 71, 72
3, 124412, Note_off_c, 1, 66, 72
3, 124416, Note_on_c, 1, 74, 62
3, 124416, Note_on_c, 1, 71, 62
3, 124416, Note_on_c, 1, 68, 62
3, 124604, Note_off_c, 1, 74, 72
3, 124604, Note_off_c, 1, 71, 72
3, 124604, Note_off_c, 1, 68, 72
3, 124800, Note_on_c, 1, 73, 62
3, 124800, Note_on_c, 1, 69, 62
3, 124800, Note_on_c, 1, 61, 62
3, 124988, Note_off_c, 1, 73, 72
3, 124988, Note_off_c, 1, 69, 72
3, 124988, Note_off_c, 1, 61, 72
3, 125184, Note_on_c, 1, 71, 62
3, 125184, Note_on_c, 1, 68, 62
3, 125184, Note_on_c, 1, 65, 62
3, 125372, Note_off_c, 1, 71, 72
3, 125372, Note_off_c, 1, 68, 72
3, 125372, Note_off_c, 1, 65, 72
3, 125568, Note_on_c, 1, 69, 62
3, 125568, Note_on_c, 1, 66, 62
3, 125756, Note_off_c, 1, 69, 72
3, 125756, Note_off_c, 1, 66, 72
3, 125952, Note_on_c, 1, 68, 62
3, 125952, Note_on_c, 1, 62, 62
3, 125952, Note_on_c, 1, 59, 62
3, 126140, Note_off_c, 1, 68, 72
3, 126140, Note_off_c, 1, 62, 72
3, 126140, Note_off_c, 1, 59, 72
3, 126336, Note_on_c, 1, 66, 62
3, 126336, Note_on_c, 1, 63, 62
3, 126336, Note_on_c, 1, 57, 62
3, 126524, Note_off_c, 1, 66, 72
3, 126524, Note_off_c, 1, 63, 72
3, 126524, Note_off_c, 1, 57, 72
3, 126720, Note_on_c, 1, 65, 62
3, 126720, Note_on_c, 1, 61, 62
3, 126720, Note_on_c, 1, 56, 62
3, 127100, Note_off_c, 1, 65, 72
3, 127100, Note_off_c, 1, 61, 72
3, 127100, Note_off_c, 1, 56, 72
3, 127296, Note_on_c, 1, 68, 90
3, 127296, Note_on_c, 1, 65, 90
3, 127296, Note_on_c, 1, 59, 90
3, 127484, Note_off_c, 1, 68, 72
3, 127484, Note_off_c, 1, 65, 72
3, 127484, Note_off_c, 1, 59, 72
3, 127488, Note_on_c, 1, 68, 90
3, 127488, Note_on_c, 1, 65, 90
3, 127488, Note_on_c, 1, 59, 90
3, 127676, Note_off_c, 1, 68, 72
3, 127676, Note_off_c, 1, 65, 72
3, 127676, Note_off_c, 1, 59, 72
3, 127680, Note_on_c, 1, 68, 90
3, 127680, Note_on_c, 1, 65, 90
3, 127680, Note_on_c, 1, 59, 90
3, 127868, Note_off_c, 1, 68, 72
3, 127868, Note_off_c, 1, 65, 72
3, 127868, Note_off_c, 1, 59, 72
3, 127872, Note_on_c, 1, 69, 90
3, 127872, Note_on_c, 1, 66, 90
3, 127872, Note_on_c, 1, 57, 90
3, 127872, Note_on_c, 1, 69, 90
3, 128252, Note_off_c, 1, 69, 72
3, 128252, Note_off_c, 1, 57, 72
3, 128256, Note_on_c, 1, 73, 90
3, 128444, Note_off_c, 1, 66, 72
3, 128444, Note_off_c, 1, 69, 72
3, 128444, Note_off_c, 1, 73, 72
3, 128448, Note_on_c, 1, 66, 90
3, 128448, Note_on_c, 1, 61, 90
3, 128448, Note_on_c, 1, 57, 90
3, 128544, Note_off_c, 1, 66, 72
3, 128544, Note_off_c, 1, 61, 72
3, 128544, Note_off_c, 1, 57, 72
3, 128640, Note_on_c, 1, 66, 90
3, 128640, Note_on_c, 1, 61, 90
3, 128640, Note_on_c, 1, 57, 90
3, 128736, Note_off_c, 1, 66, 72
3, 128736, Note_off_c, 1, 61, 72
3, 128736, Note_off_c, 1, 57, 72
3, 128832, Note_on_c, 1, 66, 90
3, 128832, Note_on_c, 1, 61, 90
3, 128832, Note_on_c, 1, 57, 90
3, 128928, Note_off_c, 1, 66, 72
3, 128928, Note_off_c, 1, 61, 72
3, 128928, Note_off_c, 1, 57, 72
3, 129024, Note_on_c, 1, 65, 90
3, 129024, Note_on_c, 1, 65, 90
3, 129024, Note_on_c, 1, 61, 90
3, 129024, Note_on_c, 1, 56, 90
3, 129404, Note_off_c, 1, 65, 72
3, 129404, Note_off_c, 1, 56, 72
3, 129408, Note_on_c, 1, 68, 90
3, 129596, Note_off_c, 1, 65, 72
3, 129596, Note_off_c, 1, 61, 72
3, 129596, Note_off_c, 1, 68, 72
3, 129600, Note_on_c, 1, 68, 90
3, 129600, Note_on_c, 1, 65, 90
3, 129600, Note_on_c, 1, 61, 90
3, 129696, Note_off_c, 1, 68, 72
3, 129696, Note_off_c, 1, 65, 72
3, 129696, Note_off_c, 1, 61, 72
3, 129792, Note_on_c, 1, 68, 90
3, 129792, Note_on_c, 1, 65, 90
3, 129792, Note_on_c, 1, 59, 90
3, 129888, Note_off_c, 1, 68, 72
3, 129888, Note_off_c, 1, 65, 72
3, 129888, Note_off_c, 1, 59, 72
3, 129984, Note_on_c, 1, 68, 90
3, 129984, Note_on_c, 1, 65, 90
3, 129984, Note_on_c, 1, 59, 90
3, 130080, Note_off_c, 1, 68, 72
3, 130080, Note_off_c, 1, 65, 72
3, 130080, Note_off_c, 1, 59, 72
3, 130176, Note_on_c, 1, 69, 90
3, 130176, Note_on_c, 1, 69, 90
3, 130176, Note_on_c, 1, 66, 90
3, 130176, Note_on_c, 1, 57, 90
3, 130556, Note_off_c, 1, 69, 72
3, 130556, Note_off_c, 1, 57, 72
3, 130560, Note_on_c, 1, 73, 90
3, 130748, Note_off_c, 1, 69, 72
3, 130748, Note_off_c, 1, 66, 72
3, 130748, Note_off_c, 1, 73, 72
3, 130752, Note_on_c, 1, 66, 90
3, 130752, Note_on_c, 1, 61, 90
3, 130752, Note_on_c, 1, 57, 90
3, 130848, Note_off_c, 1, 66, 72
3, 130848, Note_off_c, 1, 61, 72
3, 130848, Note_off_c, 1, 57, 72
3, 130944, Note_on_c, 1, 66, 90
3, 130944, Note_on_c, 1, 61, 90
3, 130944, Note_on_c, 1, 57, 90
3, 131040, Note_off_c, 1, 66, 72
3, 131040, Note_off_c, 1, 61, 72
3, 131040, Note_off_c, 1, 57, 72
3, 131136, Note_on_c, 1, 66, 90
3, 131136, Note_on_c, 1, 61, 90
3, 131136, Note_on_c, 1, 57, 90
3, 131232, Note_off_c, 1, 66, 72
3, 131232, Note_off_c, 1, 61, 72
3, 131232, Note_off_c, 1, 57, 72
3, 131328, Note_on_c, 1, 65, 90
3, 131328, Note_on_c, 1, 61, 90
3, 131328, Note_on_c, 1, 56, 90
3, 131708, Note_off_c, 1, 65, 72
3, 131708, Note_off_c, 1, 61, 72
3, 131708, Note_off_c, 1, 56, 72
3, 131712, Note_on_c, 1, 68, 90
3, 131712, Note_on_c, 1, 65, 90
3, 131712, Note_on_c, 1, 61, 90
3, 132092, Note_off_c, 1, 68, 72
3, 132092, Note_off_c, 1, 65, 72
3, 132092, Note_off_c, 1, 61, 72
3, 132096, Note_on_c, 1, 68, 90
3, 132096, Note_on_c, 1, 65, 90
3, 132096, Note_on_c, 1, 61, 90
3, 132476, Note_off_c, 1, 68, 72
3, 132476, Note_off_c, 1, 65, 72
3, 132476, Note_off_c, 1, 61, 72
3, 132480, Note_on_c, 1, 68, 90
3, 132480, Note_on_c, 1, 65, 90
3, 132480, Note_on_c, 1, 61, 90
3, 133244, Note_off_c, 1, 68, 72
3, 133244, Note_off_c, 1, 65, 72
3, 133244, Note_off_c, 1, 61, 72
3, 167424, Note_on_c, 1, 61, 62
3, 167804, Note_off_c, 1, 61, 64
3, 167808, Note_on_c, 1, 64, 62
3, 168188, Note_off_c, 1, 64, 64
3, 168192, Note_on_c, 1, 64, 62
3, 168192, Note_on_c, 1, 61, 62
3, 168572, Note_off_c, 1, 64, 64
3, 168572, Note_off_c, 1, 61, 64
3, 168576, Note_on_c, 1, 62, 62
3, 168576, Note_on_c, 1, 59, 62
3, 168956, Note_off_c, 1, 62, 64
3, 168956, Note_off_c, 1, 59, 64
3, 169536, Note_on_c, 1, 59, 62
3, 169536, Note_on_c, 1, 56, 62
3, 169724, Note_off_c, 1, 59, 64
3, 169724, Note_off_c, 1, 56, 64
3, 169728, Note_on_c, 1, 61, 62
3, 169728, Note_on_c, 1, 57, 62
3, 169916, Note_off_c, 1, 61, 64
3, 169916, Note_off_c, 1, 57, 64
3, 169920, Note_on_c, 1, 62, 62
3, 169920, Note_on_c, 1, 59, 62
3, 170108, Note_off_c, 1, 62, 64
3, 170108, Note_off_c, 1, 59, 64
3, 170112, Note_on_c, 1, 64, 62
3, 170112, Note_on_c, 1, 61, 62
3, 170300, Note_off_c, 1, 64, 64
3, 170300, Note_off_c, 1, 61, 64
3, 170304, Note_on_c, 1, 62, 62
3, 170304, Note_on_c, 1, 59, 62
3, 170492, Note_off_c, 1, 62, 64
3, 170492, Note_off_c, 1, 59, 64
3, 170496, Note_on_c, 1, 61, 62
3, 170496, Note_on_c, 1, 57, 62
3, 170876, Note_off_c, 1, 61, 64
3, 170876, Note_off_c, 1, 57, 64
3, 171648, Note_on_c, 1, 69, 62
3, 171648, Note_on_c, 1, 64, 62
3, 172028, Note_off_c, 1, 69, 64
3, 172028, Note_off_c, 1, 64, 64
3, 172416, Note_on_c, 1, 69, 62
3, 172416, Note_on_c, 1, 66, 62
3, 172796, Note_off_c, 1, 69, 64
3, 172796, Note_off_c, 1, 66, 64
3, 172800, Note_on_c, 1, 69, 62
3, 172800, Note_on_c, 1, 64, 62
3, 173180, Note_off_c, 1, 69, 64
3, 173180, Note_off_c, 1, 64, 64
3, 173568, Note_on_c, 1, 69, 62
3, 173568, Note_on_c, 1, 62, 62
3, 173948, Note_off_c, 1, 69, 64
3, 173948, Note_off_c, 1, 62, 64
3, 173952, Note_on_c, 1, 64, 62
3, 174332, Note_off_c, 1, 64, 64
3, 174336, Note_on_c, 1, 57, 62
3, 174716, Note_off_c, 1, 57, 64
3, 174720, Note_on_c, 1, 66, 62
3, 174720, Note_on_c, 1, 59, 62
3, 175100, Note_off_c, 1, 66, 64
3, 175100, Note_off_c, 1, 59, 64
3, 175104, Note_on_c, 1, 64, 62
3, 175104, Note_on_c, 1, 59, 62
3, 175484, Note_off_c, 1, 64, 64
3, 175484, Note_off_c, 1, 59, 64
3, 175872, Note_on_c, 1, 73, 90
3, 175872, Note_on_c, 1, 69, 90
3, 176156, Note_off_c, 1, 73, 64
3, 176156, Note_off_c, 1, 69, 64
3, 176160, Note_on_c, 1, 74, 90
3, 176160, Note_on_c, 1, 71, 90
3, 176252, Note_off_c, 1, 74, 64
3, 176252, Note_off_c, 1, 71, 64
3, 176256, Note_on_c, 1, 76, 90
3, 176256, Note_on_c, 1, 73, 90
3, 176636, Note_off_c, 1, 76, 64
3, 176636, Note_off_c, 1, 73, 64
3, 176640, Note_on_c, 1, 73, 90
3, 176640, Note_on_c, 1, 69, 90
3, 177020, Note_off_c, 1, 73, 64
3, 177020, Note_off_c, 1, 69, 64
3, 177024, Note_on_c, 1, 76, 100
3, 177080, Note_off_c, 1, 76, 64
3, 177084, Note_on_c, 1, 78, 90
3, 177396, Note_off_c, 1, 78, 64
3, 177408, Note_on_c, 1, 69, 90
3, 177788, Note_off_c, 1, 69, 64
3, 177792, Note_on_c, 1, 68, 90
3, 178172, Note_off_c, 1, 68, 64
3, 178176, Note_on_c, 1, 71, 90
3, 178176, Note_on_c, 1, 68, 90
3, 178460, Note_off_c, 1, 71, 64
3, 178460, Note_off_c, 1, 68, 64
3, 178464, Note_on_c, 1, 73, 90
3, 178464, Note_on_c, 1, 69, 90
3, 178556, Note_off_c, 1, 73, 64
3, 178556, Note_off_c, 1, 69, 64
3, 178560, Note_on_c, 1, 76, 100
3, 178616, Note_off_c, 1, 76, 64
3, 178620, Note_on_c, 1, 74, 90
3, 178620, Note_on_c, 1, 71, 90
3, 178932, Note_off_c, 1, 74, 64
3, 178932, Note_off_c, 1, 71, 64
3, 178944, Note_on_c, 1, 73, 90
3, 178944, Note_on_c, 1, 64, 90
3, 179132, Note_off_c, 1, 73, 64
3, 179136, Note_on_c, 1, 71, 90
3, 179324, Note_off_c, 1, 64, 64
3, 179324, Note_off_c, 1, 71, 64
3, 179328, Note_on_c, 1, 69, 90
3, 179328, Note_on_c, 1, 64, 90
3, 179516, Note_off_c, 1, 69, 64
3, 179520, Note_on_c, 1, 68, 90
3, 179708, Note_off_c, 1, 64, 64
3, 179708, Note_off_c, 1, 68, 64
3, 179712, Note_on_c, 1, 69, 90
3, 179712, Note_on_c, 1, 64, 90
3, 179996, Note_off_c, 1, 69, 64
3, 179996, Note_off_c, 1, 64, 64
3, 180000, Note_on_c, 1, 73, 90
3, 180092, Note_off_c, 1, 73, 64
3, 180096, Note_on_c, 1, 64, 90
3, 180096, Note_on_c, 1, 61, 90
3, 180464, Note_on_c, 1, 81, 90
3, 180476, Note_off_c, 1, 64, 64
3, 180476, Note_off_c, 1, 61, 64
3, 180480, Note_on_c, 1, 76, 90
3, 180748, Note_off_c, 1, 81, 64
3, 180764, Note_off_c, 1, 76, 64
3, 180768, Note_on_c, 1, 80, 90
3, 180768, Note_on_c, 1, 74, 90
3, 180860, Note_off_c, 1, 80, 64
3, 180860, Note_off_c, 1, 74, 64
3, 180864, Note_on_c, 1, 80, 90
3, 180864, Note_on_c, 1, 73, 90
3, 180960, Note_off_c, 1, 80, 64
3, 180960, Note_off_c, 1, 73, 64
3, 181056, Note_on_c, 1, 78, 90
3, 181056, Note_on_c, 1, 69, 90
3, 181152, Note_off_c, 1, 78, 64
3, 181152, Note_off_c, 1, 69, 64
3, 181248, Note_on_c, 1, 78, 90
3, 181248, Note_on_c, 1, 66, 90
3, 181344, Note_off_c, 1, 66, 64
3, 181440, Note_on_c, 1, 69, 90
3, 181536, Note_off_c, 1, 69, 64
3, 181628, Note_off_c, 1, 78, 64
3, 181632, Note_on_c, 1, 78, 90
3, 181632, Note_on_c, 1, 73, 90
3, 181916, Note_off_c, 1, 78, 64
3, 181916, Note_off_c, 1, 73, 64
3, 181920, Note_on_c, 1, 76, 90
3, 181920, Note_on_c, 1, 71, 90
3, 182012, Note_off_c, 1, 76, 64
3, 182012, Note_off_c, 1, 71, 64
3, 182016, Note_on_c, 1, 76, 90
3, 182016, Note_on_c, 1, 69, 90
3, 182112, Note_off_c, 1, 76, 64
3, 182112, Note_off_c, 1, 69, 64
3, 182208, Note_on_c, 1, 74, 90
3, 182208, Note_on_c, 1, 66, 90
3, 182304, Note_off_c, 1, 74, 64
3, 182304, Note_off_c, 1, 66, 64
3, 182400, Note_on_c, 1, 62, 90
3, 182400, Note_on_c, 1, 74, 90
3, 182496, Note_off_c, 1, 62, 64
3, 182592, Note_on_c, 1, 66, 90
3, 182688, Note_off_c, 1, 66, 64
3, 182780, Note_off_c, 1, 74, 64
3, 182784, Note_on_c, 1, 74, 90
3, 182784, Note_on_c, 1, 69, 90
3, 183068, Note_off_c, 1, 74, 64
3, 183068, Note_off_c, 1, 69, 64
3, 183072, Note_on_c, 1, 73, 90
3, 183072, Note_on_c, 1, 68, 90
3, 183164, Note_off_c, 1, 73, 64
3, 183164, Note_off_c, 1, 68, 64
3, 183168, Note_on_c, 1, 73, 90
3, 183224, Note_off_c, 1, 73, 64
3, 183228, Note_on_c, 1, 71, 90
3, 183228, Note_on_c, 1, 66, 90
3, 183288, Note_off_c, 1, 66, 64
3, 183360, Note_on_c, 1, 62, 90
3, 183456, Note_off_c, 1, 62, 64
3, 183540, Note_off_c, 1, 71, 64
3, 183552, Note_on_c, 1, 61, 90
3, 183552, Note_on_c, 1, 69, 90
3, 183648, Note_off_c, 1, 61, 64
3, 183744, Note_on_c, 1, 64, 90
3, 183840, Note_off_c, 1, 64, 64
3, 183932, Note_off_c, 1, 69, 64
3, 183936, Note_on_c, 1, 59, 90
3, 183936, Note_on_c, 1, 68, 90
3, 184032, Note_off_c, 1, 59, 64
3, 184128, Note_on_c, 1, 62, 90
3, 184224, Note_off_c, 1, 62, 64
3, 184316, Note_off_c, 1, 68, 64
3, 184320, Note_on_c, 1, 69, 90
3, 184320, Note_on_c, 1, 61, 90
3, 184700, Note_off_c, 1, 69, 64
3, 184700, Note_off_c, 1, 61, 64
3, 185664, Note_on_c, 1, 68, 73
3, 185664, Note_on_c, 1, 64, 73
3, 185664, Note_on_c, 1, 62, 73
3, 185664, Note_on_c, 1, 59, 73
3, 185852, Note_off_c, 1, 68, 64
3, 185852, Note_off_c, 1, 64, 64
3, 185852, Note_off_c, 1, 62, 64
3, 185852, Note_off_c, 1, 59, 64
3, 185856, Note_on_c, 1, 68, 73
3, 185856, Note_on_c, 1, 64, 73
3, 185856, Note_on_c, 1, 62, 73
3, 185856, Note_on_c, 1, 59, 73
3, 186044, Note_off_c, 1, 68, 64
3, 186044, Note_off_c, 1, 64, 64
3, 186044, Note_off_c, 1, 62, 64
3, 186044, Note_off_c, 1, 59, 64
3, 186048, Note_on_c, 1, 68, 73
3, 186048, Note_on_c, 1, 64, 73
3, 186048, Note_on_c, 1, 62, 73
3, 186048, Note_on_c, 1, 59, 73
3, 186236, Note_off_c, 1, 68, 64
3, 186236, Note_off_c, 1, 64, 64
3, 186236, Note_off_c, 1, 62, 64
3, 186236, Note_off_c, 1, 59, 64
3, 186240, Note_on_c, 1, 68, 73
3, 186240, Note_on_c, 1, 64, 73
3, 186240, Note_on_c, 1, 62, 73
3, 186240, Note_on_c, 1, 59, 73
3, 186428, Note_off_c, 1, 68, 64
3, 186428, Note_off_c, 1, 64, 64
3, 186428, Note_off_c, 1, 62, 64
3, 186428, Note_off_c, 1, 59, 64
3, 186432, Note_on_c, 1, 68, 73
3, 186432, Note_on_c, 1, 64, 73
3, 186432, Note_on_c, 1, 62, 73
3, 186432, Note_on_c, 1, 59, 73
3, 186620, Note_off_c, 1, 68, 64
3, 186620, Note_off_c, 1, 64, 64
3, 186620, Note_off_c, 1, 62, 64
3, 186620, Note_off_c, 1, 59, 64
3, 186816, Note_on_c, 1, 69, 69
3, 186816, Note_on_c, 1, 64, 69
3, 186816, Note_on_c, 1, 61, 69
3, 186816, Note_on_c, 1, 57, 69
3, 187004, Note_off_c, 1, 69, 64
3, 187004, Note_off_c, 1, 64, 64
3, 187004, Note_off_c, 1, 61, 64
3, 187004, Note_off_c, 1, 57, 64
3, 187008, Note_on_c, 1, 69, 68
3, 187008, Note_on_c, 1, 64, 68
3, 187008, Note_on_c, 1, 61, 68
3, 187008, Note_on_c, 1, 57, 68
3, 187196, Note_off_c, 1, 69, 64
3, 187196, Note_off_c, 1, 64, 64
3, 187196, Note_off_c, 1, 61, 64
3, 187196, Note_off_c, 1, 57, 64
3, 187200, Note_on_c, 1, 69, 67
3, 187200, Note_on_c, 1, 64, 67
3, 187200, Note_on_c, 1, 61, 67
3, 187200, Note_on_c, 1, 57, 67
3, 187388, Note_off_c, 1, 69, 64
3, 187388, Note_off_c, 1, 64, 64
3, 187388, Note_off_c, 1, 61, 64
3, 187388, Note_off_c, 1, 57, 64
3, 187392, Note_on_c, 1, 69, 67
3, 187392, Note_on_c, 1, 64, 67
3, 187392, Note_on_c, 1, 61, 67
3, 187392, Note_on_c, 1, 57, 67
3, 187580, Note_off_c, 1, 69, 64
3, 187580, Note_off_c, 1, 64, 64
3, 187580, Note_off_c, 1, 61, 64
3, 187580, Note_off_c, 1, 57, 64
3, 187584, Note_on_c, 1, 69, 63
3, 187584, Note_on_c, 1, 64, 63
3, 187584, Note_on_c, 1, 61, 63
3, 187584, Note_on_c, 1, 57, 63
3, 187772, Note_off_c, 1, 69, 64
3, 187772, Note_off_c, 1, 64, 64
3, 187772, Note_off_c, 1, 61, 64
3, 187772, Note_off_c, 1, 57, 64
3, 187968, Note_on_c, 1, 68, 61
3, 187968, Note_on_c, 1, 64, 61
3, 187968, Note_on_c, 1, 62, 61
3, 187968, Note_on_c, 1, 59, 61
3, 188156, Note_off_c, 1, 68, 64
3, 188156, Note_off_c, 1, 64, 64
3, 188156, Note_off_c, 1, 62, 64
3, 188156, Note_off_c, 1, 59, 64
3, 188160, Note_on_c, 1, 68, 61
3, 188160, Note_on_c, 1, 64, 61
3, 188160, Note_on_c, 1, 62, 61
3, 188160, Note_on_c, 1, 59, 61
3, 188348, Note_off_c, 1, 68, 64
3, 188348, Note_off_c, 1, 64, 64
3, 188348, Note_off_c, 1, 62, 64
3, 188348, Note_off_c, 1, 59, 64
3, 188352, Note_on_c, 1, 68, 58
3, 188352, Note_on_c, 1, 64, 58
3, 188352, Note_on_c, 1, 62, 58
3, 188352, Note_on_c, 1, 59, 58
3, 188540, Note_off_c, 1, 68, 64
3, 188540, Note_off_c, 1, 64, 64
3, 188540, Note_off_c, 1, 62, 64
3, 188540, Note_off_c, 1, 59, 64
3, 188544, Note_on_c, 1, 68, 57
3, 188544, Note_on_c, 1, 64, 57
3, 188544, Note_on_c, 1, 62, 57
3, 188544, Note_on_c, 1, 59, 57
3, 188732, Note_off_c, 1, 68, 64
3, 188732, Note_off_c, 1, 64, 64
3, 188732, Note_off_c, 1, 62, 64
3, 188732, Note_off_c, 1, 59, 64
3, 188736, Note_on_c, 1, 68, 55
3, 188736, Note_on_c, 1, 64, 55
3, 188736, Note_on_c, 1, 62, 55
3, 188736, Note_on_c, 1, 59, 55
3, 188924, Note_off_c, 1, 68, 64
3, 188924, Note_off_c, 1, 64, 64
3, 188924, Note_off_c, 1, 62, 64
3, 188924, Note_off_c, 1, 59, 64
3, 189120, Note_on_c, 1, 69, 54
3, 189120, Note_on_c, 1, 64, 54
3, 189120, Note_on_c, 1, 61, 54
3, 189120, Note_on_c, 1, 57, 54
3, 189308, Note_off_c, 1, 69, 64
3, 189308, Note_off_c, 1, 64, 64
3, 189308, Note_off_c, 1, 61, 64
3, 189308, Note_off_c, 1, 57, 64
3, 189312, Note_on_c, 1, 69, 54
3, 189312, Note_on_c, 1, 64, 54
3, 189312, Note_on_c, 1, 61, 54
3, 189312, Note_on_c, 1, 57, 54
3, 189500, Note_off_c, 1, 69, 64
3, 189500, Note_off_c, 1, 64, 64
3, 189500, Note_off_c, 1, 61, 64
3, 189500, Note_off_c, 1, 57, 64
3, 189504, Note_on_c, 1, 69, 54
3, 189504, Note_on_c, 1, 64, 54
3, 189504, Note_on_c, 1, 61, 54
3, 189504, Note_on_c, 1, 57, 54
3, 189692, Note_off_c, 1, 69, 64
3, 189692, Note_off_c, 1, 64, 64
3, 189692, Note_off_c, 1, 61, 64
3, 189692, Note_off_c, 1, 57, 64
3, 189696, Note_on_c, 1, 69, 54
3, 189696, Note_on_c, 1, 64, 54
3, 189696, Note_on_c, 1, 61, 54
3, 189696, Note_on_c, 1, 57, 54
3, 189884, Note_off_c, 1, 69, 64
3, 189884, Note_off_c, 1, 64, 64
3, 189884, Note_off_c, 1, 61, 64
3, 189884, Note_off_c, 1, 57, 64
3, 189888, Note_on_c, 1, 69, 54
3, 189888, Note_on_c, 1, 64, 54
3, 189888, Note_on_c, 1, 61, 54
3, 189888, Note_on_c, 1, 57, 54
3, 190076, Note_off_c, 1, 69, 64
3, 190076, Note_off_c, 1, 64, 64
3, 190076, Note_off_c, 1, 61, 64
3, 190076, Note_off_c, 1, 57, 64
3, 190080, Note_on_c, 1, 69, 54
3, 190080, Note_on_c, 1, 64, 54
3, 190080, Note_on_c, 1, 61, 54
3, 190080, Note_on_c, 1, 57, 54
3, 190268, Note_off_c, 1, 69, 64
3, 190268, Note_off_c, 1, 64, 64
3, 190268, Note_off_c, 1, 61, 64
3, 190268, Note_off_c, 1, 57, 64
3, 190272, Note_on_c, 1, 69, 54
3, 190272, Note_on_c, 1, 64, 54
3, 190272, Note_on_c, 1, 61, 54
3, 190272, Note_on_c, 1, 57, 54
3, 190460, Note_off_c, 1, 69, 64
3, 190460, Note_off_c, 1, 64, 64
3, 190460, Note_off_c, 1, 61, 64
3, 190460, Note_off_c, 1, 57, 64
3, 190464, Note_on_c, 1, 69, 54
3, 190464, Note_on_c, 1, 64, 54
3, 190464, Note_on_c, 1, 61, 54
3, 190464, Note_on_c, 1, 57, 54
3, 190652, Note_off_c, 1, 69, 64
3, 190652, Note_off_c, 1, 64, 64
3, 190652, Note_off_c, 1, 61, 64
3, 190652, Note_off_c, 1, 57, 64
3, 190656, Note_on_c, 1, 69, 54
3, 190656, Note_on_c, 1, 64, 54
3, 190656, Note_on_c, 1, 61, 54
3, 190656, Note_on_c, 1, 57, 54
3, 190844, Note_off_c, 1, 69, 64
3, 190844, Note_off_c, 1, 64, 64
3, 190844, Note_off_c, 1, 61, 64
3, 190844, Note_off_c, 1, 57, 64
3, 190848, Note_on_c, 1, 69, 54
3, 190848, Note_on_c, 1, 64, 54
3, 190848, Note_on_c, 1, 61, 54
3, 190848, Note_on_c, 1, 57, 54
3, 191036, Note_off_c, 1, 69, 64
3, 191036, Note_off_c, 1, 64, 64
3, 191036, Note_off_c, 1, 61, 64
3, 191036, Note_off_c, 1, 57, 64
3, 191040, Note_on_c, 1, 69, 54
3, 191040, Note_on_c, 1, 64, 54
3, 191040, Note_on_c, 1, 61, 54
3, 191040, Note_on_c, 1, 57, 54
3, 191228, Note_off_c, 1, 69, 64
3, 191228, Note_off_c, 1, 64, 64
3, 191228, Note_off_c, 1, 61, 64
3, 191228, Note_off_c, 1, 57, 64
3, 191232, Note_on_c, 1, 69, 54
3, 191232, Note_on_c, 1, 64, 54
3, 191232, Note_on_c, 1, 61, 54
3, 191232, Note_on_c, 1, 57, 54
3, 191612, Note_off_c, 1, 69, 64
3, 191612, Note_off_c, 1, 64, 64
3, 191612, Note_off_c, 1, 61, 64
3, 191612, Note_off_c, 1, 57, 64
3, 192376, Program_c, 1, 48
3, 192384, Key_signature, 0, "major"
3, 192384, Note_on_c, 1, 64, 90
3, 192384, Note_on_c, 1, 60, 90
3, 192956, Note_off_c, 1, 64, 64
3, 192956, Note_off_c, 1, 60, 64
3, 192960, Note_on_c, 1, 65, 62
3, 192960, Note_on_c, 1, 62, 62
3, 193148, Note_off_c, 1, 65, 64
3, 193148, Note_off_c, 1, 62, 64
3, 193152, Note_on_c, 1, 64, 62
3, 193152, Note_on_c, 1, 60, 62
3, 193340, Note_off_c, 1, 64, 64
3, 193340, Note_off_c, 1, 60, 64
3, 193344, Note_on_c, 1, 65, 62
3, 193344, Note_on_c, 1, 62, 62
3, 193532, Note_off_c, 1, 65, 64
3, 193532, Note_off_c, 1, 62, 64
3, 193536, Note_on_c, 1, 64, 62
3, 193536, Note_on_c, 1, 60, 62
3, 193724, Note_off_c, 1, 64, 64
3, 193724, Note_off_c, 1, 60, 64
3, 193728, Note_on_c, 1, 65, 62
3, 193728, Note_on_c, 1, 62, 62
3, 193916, Note_off_c, 1, 65, 64
3, 193916, Note_off_c, 1, 62, 64
3, 193920, Note_on_c, 1, 60, 72
3, 193920, Note_on_c, 1, 64, 72
3, 194300, Note_off_c, 1, 60, 64
3, 196988, Note_off_c, 1, 64, 64
3, 196992, Note_on_c, 1, 64, 90
3, 196992, Note_on_c, 1, 60, 90
3, 197564, Note_off_c, 1, 64, 64
3, 197564, Note_off_c, 1, 60, 64
3, 197568, Note_on_c, 1, 65, 62
3, 197568, Note_on_c, 1, 62, 62
3, 197756, Note_off_c, 1, 65, 64
3, 197756, Note_off_c, 1, 62, 64
3, 197760, Note_on_c, 1, 64, 62
3, 197760, Note_on_c, 1, 60, 62
3, 197948, Note_off_c, 1, 64, 64
3, 197948, Note_off_c, 1, 60, 64
3, 197952, Note_on_c, 1, 65, 62
3, 197952, Note_on_c, 1, 62, 62
3, 198140, Note_off_c, 1, 65, 64
3, 198140, Note_off_c, 1, 62, 64
3, 198144, Note_on_c, 1, 64, 62
3, 198144, Note_on_c, 1, 60, 62
3, 198332, Note_off_c, 1, 64, 64
3, 198332, Note_off_c, 1, 60, 64
3, 198336, Note_on_c, 1, 65, 62
3, 198336, Note_on_c, 1, 62, 62
3, 198524, Note_off_c, 1, 65, 64
3, 198524, Note_off_c, 1, 62, 64
3, 198528, Note_on_c, 1, 60, 62
3, 198528, Note_on_c, 1, 64, 62
3, 198908, Note_off_c, 1, 60, 64
3, 201980, Note_off_c, 1, 64, 64
3, 201984, Note_on_c, 1, 76, 62
3, 201984, Note_on_c, 1, 73, 62
3, 202364, Note_off_c, 1, 76, 64
3, 202364, Note_off_c, 1, 73, 64
3, 202368, Note_on_c, 1, 74, 62
3, 202368, Note_on_c, 1, 71, 62
3, 202748, Note_off_c, 1, 74, 64
3, 202748, Note_off_c, 1, 71, 64
3, 202752, Note_on_c, 1, 72, 62
3, 202752, Note_on_c, 1, 69, 62
3, 203132, Note_off_c, 1, 72, 64
3, 203132, Note_off_c, 1, 69, 64
3, 203136, Note_on_c, 1, 71, 62
3, 203136, Note_on_c, 1, 68, 62
3, 203516, Note_off_c, 1, 71, 64
3, 203516, Note_off_c, 1, 68, 64
3, 203520, Note_on_c, 1, 72, 62
3, 203520, Note_on_c, 1, 69, 62
3, 203900, Note_off_c, 1, 72, 64
3, 203900, Note_off_c, 1, 69, 64
3, 203904, Note_on_c, 1, 71, 62
3, 203904, Note_on_c, 1, 68, 62
3, 204284, Note_off_c, 1, 71, 64
3, 204284, Note_off_c, 1, 68, 64
3, 204288, Note_on_c, 1, 72, 62
3, 204288, Note_on_c, 1, 69, 62
3, 204668, Note_off_c, 1, 72, 64
3, 204668, Note_off_c, 1, 69, 64
3, 204672, Note_on_c, 1, 71, 62
3, 204672, Note_on_c, 1, 68, 62
3, 205052, Note_off_c, 1, 71, 64
3, 205052, Note_off_c, 1, 68, 64
3, 205056, Note_on_c, 1, 76, 62
3, 205056, Note_on_c, 1, 72, 62
3, 205436, Note_off_c, 1, 76, 64
3, 205436, Note_off_c, 1, 72, 64
3, 205440, Note_on_c, 1, 74, 62
3, 205440, Note_on_c, 1, 71, 62
3, 205820, Note_off_c, 1, 74, 64
3, 205820, Note_off_c, 1, 71, 64
3, 205824, Note_on_c, 1, 72, 62
3, 205824, Note_on_c, 1, 69, 62
3, 206204, Note_off_c, 1, 72, 64
3, 206204, Note_off_c, 1, 69, 64
3, 206208, Note_on_c, 1, 71, 62
3, 206208, Note_on_c, 1, 68, 62
3, 206588, Note_off_c, 1, 71, 64
3, 206588, Note_off_c, 1, 68, 64
3, 206592, Note_on_c, 1, 72, 62
3, 206592, Note_on_c, 1, 69, 62
3, 206972, Note_off_c, 1, 72, 64
3, 206972, Note_off_c, 1, 69, 64
3, 206976, Note_on_c, 1, 71, 62
3, 206976, Note_on_c, 1, 68, 62
3, 207356, Note_off_c, 1, 71, 64
3, 207356, Note_off_c, 1, 68, 64
3, 207360, Note_on_c, 1, 72, 62
3, 207360, Note_on_c, 1, 69, 62
3, 207740, Note_off_c, 1, 72, 64
3, 207740, Note_off_c, 1, 69, 64
3, 207744, Note_on_c, 1, 71, 90
3, 207744, Note_on_c, 1, 68, 90
3, 208316, Note_off_c, 1, 71, 64
3, 208316, Note_off_c, 1, 68, 64
3, 208320, Note_on_c, 1, 72, 62
3, 208320, Note_on_c, 1, 69, 62
3, 208508, Note_off_c, 1, 72, 64
3, 208508, Note_off_c, 1, 69, 64
3, 208512, Note_on_c, 1, 71, 62
3, 208512, Note_on_c, 1, 68, 62
3, 208700, Note_off_c, 1, 71, 64
3, 208700, Note_off_c, 1, 68, 64
3, 208704, Note_on_c, 1, 72, 62
3, 208704, Note_on_c, 1, 69, 62
3, 208892, Note_off_c, 1, 72, 64
3, 208892, Note_off_c, 1, 69, 64
3, 208896, Note_on_c, 1, 71, 62
3, 208896, Note_on_c, 1, 68, 62
3, 209084, Note_off_c, 1, 71, 64
3, 209084, Note_off_c, 1, 68, 64
3, 209088, Note_on_c, 1, 72, 62
3, 209088, Note_on_c, 1, 69, 62
3, 209276, Note_off_c, 1, 72, 64
3, 209276, Note_off_c, 1, 69, 64
3, 209280, Note_on_c, 1, 71, 62
3, 209280, Note_on_c, 1, 68, 62
3, 209660, Note_off_c, 1, 71, 64
3, 209660, Note_off_c, 1, 68, 64
3, 210048, Note_on_c, 1, 64, 62
3, 212348, Note_off_c, 1, 64, 64
3, 212352, Note_on_c, 1, 64, 90
3, 212352, Note_on_c, 1, 60, 90
3, 212924, Note_off_c, 1, 64, 64
3, 212924, Note_off_c, 1, 60, 64
3, 212928, Note_on_c, 1, 65, 62
3, 212928, Note_on_c, 1, 62, 62
3, 213116, Note_off_c, 1, 65, 64
3, 213116, Note_off_c, 1, 62, 64
3, 213120, Note_on_c, 1, 64, 62
3, 213120, Note_on_c, 1, 60, 62
3, 213308, Note_off_c, 1, 64, 64
3, 213308, Note_off_c, 1, 60, 64
3, 213312, Note_on_c, 1, 65, 62
3, 213312, Note_on_c, 1, 62, 62
3, 213500, Note_off_c, 1, 65, 64
3, 213500, Note_off_c, 1, 62, 64
3, 213504, Note_on_c, 1, 64, 62
3, 213504, Note_on_c, 1, 60, 62
3, 213692, Note_off_c, 1, 64, 64
3, 213692, Note_off_c, 1, 60, 64
3, 213696, Note_on_c, 1, 65, 62
3, 213696, Note_on_c, 1, 62, 62
3, 213884, Note_off_c, 1, 65, 64
3, 213884, Note_off_c, 1, 62, 64
3, 213888, Note_on_c, 1, 64, 62
3, 213888, Note_on_c, 1, 60, 62
3, 214268, Note_off_c, 1, 60, 64
3, 217340, Note_off_c, 1, 64, 64
3, 217344, Note_on_c, 1, 69, 95
3, 217436, Note_off_c, 1, 69, 64
3, 217536, Note_on_c, 1, 76, 95
3, 217628, Note_off_c, 1, 76, 64
3, 217728, Note_on_c, 1, 72, 95
3, 217820, Note_off_c, 1, 72, 64
3, 217920, Note_on_c, 1, 81, 95
3, 218012, Note_off_c, 1, 81, 64
3, 218112, Note_on_c, 1, 76, 95
3, 218204, Note_off_c, 1, 76, 64
3, 218304, Note_on_c, 1, 84, 95
3, 218396, Note_off_c, 1, 84, 64
3, 218496, Note_on_c, 1, 81, 95
3, 218876, Note_off_c, 1, 81, 64
3, 218880, Note_on_c, 1, 84, 95
3, 218972, Note_off_c, 1, 84, 64
3, 219072, Note_on_c, 1, 76, 95
3, 219164, Note_off_c, 1, 76, 64
3, 219264, Note_on_c, 1, 81, 95
3, 219356, Note_off_c, 1, 81, 64
3, 219456, Note_on_c, 1, 72, 95
3, 219548, Note_off_c, 1, 72, 64
3, 219648, Note_on_c, 1, 76, 95
3, 219740, Note_off_c, 1, 76, 64
3, 219840, Note_on_c, 1, 68, 95
3, 219932, Note_off_c, 1, 68, 64
3, 220032, Note_on_c, 1, 69, 95
3, 220124, Note_off_c, 1, 69, 64
3, 220224, Note_on_c, 1, 64, 95
3, 220316, Note_off_c, 1, 64, 64
3, 220416, Note_on_c, 1, 69, 95
3, 220508, Note_off_c, 1, 69, 64
3, 220608, Note_on_c, 1, 76, 95
3, 220700, Note_off_c, 1, 76, 64
3, 220800, Note_on_c, 1, 72, 95
3, 220892, Note_off_c, 1, 72, 64
3, 220992, Note_on_c, 1, 81, 95
3, 221084, Note_off_c, 1, 81, 64
3, 221184, Note_on_c, 1, 76, 95
3, 221276, Note_off_c, 1, 76, 64
3, 221376, Note_on_c, 1, 84, 95
3, 221468, Note_off_c, 1, 84, 64
3, 221568, Note_on_c, 1, 81, 95
3, 221948, Note_off_c, 1, 81, 64
3, 221952, Note_on_c, 1, 84, 95
3, 222044, Note_off_c, 1, 84, 64
3, 222144, Note_on_c, 1, 76, 95
3, 222236, Note_off_c, 1, 76, 64
3, 222336, Note_on_c, 1, 81, 95
3, 222428, Note_off_c, 1, 81, 64
3, 222528, Note_on_c, 1, 72, 95
3, 222620, Note_off_c, 1, 72, 64
3, 222720, Note_on_c, 1, 76, 95
3, 222812, Note_off_c, 1, 76, 64
3, 222912, Note_on_c, 1, 68, 95
3, 223004, Note_off_c, 1, 68, 64
3, 223104, Note_on_c, 1, 69, 100
3, 223484, Note_off_c, 1, 69, 64
3, 223488, Note_on_c, 1, 69, 100
3, 223580, Note_off_c, 1, 69, 64
3, 223680, Note_on_c, 1, 76, 100
3, 223772, Note_off_c, 1, 76, 64
3, 223872, Note_on_c, 1, 72, 95
3, 223964, Note_off_c, 1, 72, 64
3, 224064, Note_on_c, 1, 81, 95
3, 224156, Note_off_c, 1, 81, 64
3, 224256, Note_on_c, 1, 76, 95
3, 224348, Note_off_c, 1, 76, 64
3, 224448, Note_on_c, 1, 84, 95
3, 224540, Note_off_c, 1, 84, 64
3, 224640, Note_on_c, 1, 81, 95
3, 225020, Note_off_c, 1, 81, 64
3, 225024, Note_on_c, 1, 84, 95
3, 225116, Note_off_c, 1, 84, 64
3, 225216, Note_on_c, 1, 76, 95
3, 225308, Note_off_c, 1, 76, 64
3, 225408, Note_on_c, 1, 81, 95
3, 225500, Note_off_c, 1, 81, 64
3, 225600, Note_on_c, 1, 72, 95
3, 225692, Note_off_c, 1, 72, 64
3, 225792, Note_on_c, 1, 76, 95
3, 225884, Note_off_c, 1, 76, 64
3, 225984, Note_on_c, 1, 68, 95
3, 226076, Note_off_c, 1, 68, 64
3, 226176, Note_on_c, 1, 69, 95
3, 226268, Note_off_c, 1, 69, 64
3, 226368, Note_on_c, 1, 64, 95
3, 226460, Note_off_c, 1, 64, 64
3, 226560, Note_on_c, 1, 69, 95
3, 226652, Note_off_c, 1, 69, 64
3, 226752, Note_on_c, 1, 76, 95
3, 226844, Note_off_c, 1, 76, 64
3, 226944, Note_on_c, 1, 72, 95
3, 227036, Note_off_c, 1, 72, 64
3, 227136, Note_on_c, 1, 81, 95
3, 227228, Note_off_c, 1, 81, 64
3, 227328, Note_on_c, 1, 76, 95
3, 227420, Note_off_c, 1, 76, 64
3, 227520, Note_on_c, 1, 84, 95
3, 227612, Note_off_c, 1, 84, 64
3, 227712, Note_on_c, 1, 81, 95
3, 228092, Note_off_c, 1, 81, 64
3, 228096, Note_on_c, 1, 84, 95
3, 228188, Note_off_c, 1, 84, 64
3, 228288, Note_on_c, 1, 76, 95
3, 228380, Note_off_c, 1, 76, 64
3, 228480, Note_on_c, 1, 81, 95
3, 228572, Note_off_c, 1, 81, 64
3, 228672, Note_on_c, 1, 72, 95
3, 228764, Note_off_c, 1, 72, 64
3, 228864, Note_on_c, 1, 76, 95
3, 228956, Note_off_c, 1, 76, 64
3, 229056, Note_on_c, 1, 68, 95
3, 229148, Note_off_c, 1, 68, 64
3, 229248, Note_on_c, 1, 69, 95
3, 229628, Note_off_c, 1, 69, 64
3, 229632, Note_on_c, 1, 57, 60
3, 229816, Note_off_c, 1, 57, 64
3, 229824, Note_on_c, 1, 57, 60
3, 230008, Note_off_c, 1, 57, 64
3, 230016, Note_on_c, 1, 58, 60
3, 230016, Note_on_c, 1, 57, 60
3, 230200, Note_off_c, 1, 58, 64
3, 230208, Note_on_c, 1, 59, 67
3, 230392, Note_off_c, 1, 59, 64
3, 230400, Note_on_c, 1, 60, 75
3, 230584, Note_off_c, 1, 60, 64
3, 230592, Note_on_c, 1, 61, 83
3, 230776, Note_off_c, 1, 61, 64
3, 230780, Note_off_c, 1, 57, 64
3, 230784, Note_on_c, 1, 62, 90
3, 230784, Note_on_c, 1, 57, 90
3, 230968, Note_off_c, 1, 57, 64
3, 230976, Note_on_c, 1, 69, 90
3, 231160, Note_off_c, 1, 69, 64
3, 231164, Note_off_c, 1, 62, 64
3, 231168, Note_on_c, 1, 62, 60
3, 231168, Note_on_c, 1, 57, 60
3, 231352, Note_off_c, 1, 62, 64
3, 231352, Note_off_c, 1, 57, 64
3, 231360, Note_on_c, 1, 62, 60
3, 231360, Note_on_c, 1, 57, 60
3, 231544, Note_off_c, 1, 62, 64
3, 231544, Note_off_c, 1, 57, 64
3, 231552, Note_on_c, 1, 61, 60
3, 231552, Note_on_c, 1, 57, 60
3, 231736, Note_off_c, 1, 61, 64
3, 231744, Note_on_c, 1, 60, 67
3, 231928, Note_off_c, 1, 60, 64
3, 231936, Note_on_c, 1, 59, 75
3, 232120, Note_off_c, 1, 59, 64
3, 232128, Note_on_c, 1, 58, 83
3, 232312, Note_off_c, 1, 58, 64
3, 232316, Note_off_c, 1, 57, 64
3, 232320, Note_on_c, 1, 57, 90
3, 232512, Note_on_c, 1, 69, 90
3, 232604, Note_off_c, 1, 69, 64
3, 232700, Note_off_c, 1, 57, 64
3, 232704, Note_on_c, 1, 69, 60
3, 232704, Note_on_c, 1, 81, 60
3, 232888, Note_off_c, 1, 69, 64
3, 232888, Note_off_c, 1, 81, 64
3, 232896, Note_on_c, 1, 69, 60
3, 232896, Note_on_c, 1, 81, 60
3, 233080, Note_off_c, 1, 69, 64
3, 233080, Note_off_c, 1, 81, 64
3, 233088, Note_on_c, 1, 70, 66
3, 233088, Note_on_c, 1, 82, 66
3, 233272, Note_off_c, 1, 70, 64
3, 233272, Note_off_c, 1, 82, 64
3, 233280, Note_on_c, 1, 83, 74
3, 233280, Note_on_c, 1, 71, 74
3, 233464, Note_off_c, 1, 83, 64
3, 233464, Note_off_c, 1, 71, 64
3, 233472, Note_on_c, 1, 84, 80
3, 233472, Note_on_c, 1, 72, 80
3, 233656, Note_off_c, 1, 84, 64
3, 233656, Note_off_c, 1, 72, 64
3, 233664, Note_on_c, 1, 85, 87
3, 233664, Note_on_c, 1, 73, 87
3, 233848, Note_off_c, 1, 85, 64
3, 233848, Note_off_c, 1, 73, 64
3, 233856, Note_on_c, 1, 86, 95
3, 233856, Note_on_c, 1, 81, 95
3, 233856, Note_on_c, 1, 74, 95
3, 234236, Note_off_c, 1, 86, 64
3, 234236, Note_off_c, 1, 81, 64
3, 234236, Note_off_c, 1, 74, 64
3, 234240, Note_on_c, 1, 89, 95
3, 234240, Note_on_c, 1, 86, 95
3, 234240, Note_on_c, 1, 81, 95
3, 234424, Note_off_c, 1, 89, 64
3, 234424, Note_off_c, 1, 86, 64
3, 234424, Note_off_c, 1, 81, 64
3, 234432, Note_on_c, 1, 89, 95
3, 234432, Note_on_c, 1, 86, 95
3, 234432, Note_on_c, 1, 81, 95
3, 234616, Note_off_c, 1, 89, 64
3, 234616, Note_off_c, 1, 86, 64
3, 234616, Note_off_c, 1, 81, 64
3, 234624, Note_on_c, 1, 88, 95
3, 234624, Note_on_c, 1, 84, 95
3, 234624, Note_on_c, 1, 81, 95
3, 234808, Note_off_c, 1, 88, 64
3, 234808, Note_off_c, 1, 84, 64
3, 234808, Note_off_c, 1, 81, 64
3, 234816, Note_on_c, 1, 86, 95
3, 234816, Note_on_c, 1, 83, 95
3, 234816, Note_on_c, 1, 76, 95
3, 235000, Note_off_c, 1, 86, 64
3, 235000, Note_off_c, 1, 83, 64
3, 235000, Note_off_c, 1, 76, 64
3, 235008, Note_on_c, 1, 84, 95
3, 235008, Note_on_c, 1, 81, 95
3, 235008, Note_on_c, 1, 76, 95
3, 235192, Note_off_c, 1, 84, 64
3, 235192, Note_off_c, 1, 81, 64
3, 235192, Note_off_c, 1, 76, 64
3, 235200, Note_on_c, 1, 83, 95
3, 235200, Note_on_c, 1, 80, 95
3, 235200, Note_on_c, 1, 76, 95
3, 235200, Note_on_c, 1, 74, 95
3, 235384, Note_off_c, 1, 83, 64
3, 235384, Note_off_c, 1, 80, 64
3, 235384, Note_off_c, 1, 76, 64
3, 235384, Note_off_c, 1, 74, 64
3, 235392, Note_on_c, 1, 81, 95
3, 235392, Note_on_c, 1, 76, 95
3, 235392, Note_on_c, 1, 72, 95
3, 235772, Note_off_c, 1, 81, 64
3, 235772, Note_off_c, 1, 76, 64
3, 235772, Note_off_c, 1, 72, 64
3, 235776, Note_on_c, 1, 57, 65
3, 235960, Note_off_c, 1, 57, 64
3, 235968, Note_on_c, 1, 57, 65
3, 236152, Note_off_c, 1, 57, 64
3, 236160, Note_on_c, 1, 58, 60
3, 236160, Note_on_c, 1, 57, 61
3, 236344, Note_off_c, 1, 58, 64
3, 236352, Note_on_c, 1, 59, 67
3, 236536, Note_off_c, 1, 59, 64
3, 236544, Note_on_c, 1, 60, 75
3, 236728, Note_off_c, 1, 60, 64
3, 236736, Note_on_c, 1, 61, 83
3, 236920, Note_off_c, 1, 61, 64
3, 236924, Note_off_c, 1, 57, 64
3, 236928, Note_on_c, 1, 62, 90
3, 236928, Note_on_c, 1, 57, 90
3, 237112, Note_off_c, 1, 57, 64
3, 237120, Note_on_c, 1, 69, 90
3, 237212, Note_off_c, 1, 69, 64
3, 237308, Note_off_c, 1, 62, 64
3, 237312, Note_on_c, 1, 62, 60
3, 237312, Note_on_c, 1, 57, 60
3, 237496, Note_off_c, 1, 62, 64
3, 237496, Note_off_c, 1, 57, 64
3, 237504, Note_on_c, 1, 62, 60
3, 237504, Note_on_c, 1, 57, 60
3, 237688, Note_off_c, 1, 62, 64
3, 237688, Note_off_c, 1, 57, 64
3, 237696, Note_on_c, 1, 61, 60
3, 237696, Note_on_c, 1, 57, 60
3, 237880, Note_off_c, 1, 61, 64
3, 237888, Note_on_c, 1, 60, 67
3, 238072, Note_off_c, 1, 60, 64
3, 238080, Note_on_c, 1, 59, 75
3, 238264, Note_off_c, 1, 59, 64
3, 238272, Note_on_c, 1, 58, 83
3, 238456, Note_off_c, 1, 58, 64
3, 238460, Note_off_c, 1, 57, 64
3, 238464, Note_on_c, 1, 57, 90
3, 238656, Note_on_c, 1, 69, 90
3, 238748, Note_off_c, 1, 69, 64
3, 238844, Note_off_c, 1, 57, 64
3, 238848, Note_on_c, 1, 69, 60
3, 238848, Note_on_c, 1, 81, 60
3, 239032, Note_off_c, 1, 69, 64
3, 239032, Note_off_c, 1, 81, 64
3, 239040, Note_on_c, 1, 69, 60
3, 239040, Note_on_c, 1, 81, 60
3, 239224, Note_off_c, 1, 69, 64
3, 239224, Note_off_c, 1, 81, 64
3, 239232, Note_on_c, 1, 70, 66
3, 239232, Note_on_c, 1, 82, 66
3, 239416, Note_off_c, 1, 70, 64
3, 239416, Note_off_c, 1, 82, 64
3, 239424, Note_on_c, 1, 83, 72
3, 239424, Note_on_c, 1, 71, 72
3, 239608, Note_off_c, 1, 83, 64
3, 239608, Note_off_c, 1, 71, 64
3, 239616, Note_on_c, 1, 84, 78
3, 239616, Note_on_c, 1, 72, 78
3, 239800, Note_off_c, 1, 84, 64
3, 239800, Note_off_c, 1, 72, 64
3, 239808, Note_on_c, 1, 85, 84
3, 239808, Note_on_c, 1, 73, 84
3, 239992, Note_off_c, 1, 85, 64
3, 239992, Note_off_c, 1, 73, 64
3, 240000, Note_on_c, 1, 86, 90
3, 240000, Note_on_c, 1, 81, 90
3, 240000, Note_on_c, 1, 74, 90
3, 240380, Note_off_c, 1, 86, 64
3, 240380, Note_off_c, 1, 81, 64
3, 240380, Note_off_c, 1, 74, 64
3, 240384, Note_on_c, 1, 89, 90
3, 240384, Note_on_c, 1, 86, 90
3, 240384, Note_on_c, 1, 81, 90
3, 240568, Note_off_c, 1, 89, 64
3, 240568, Note_off_c, 1, 86, 64
3, 240568, Note_off_c, 1, 81, 64
3, 240576, Note_on_c, 1, 89, 90
3, 240576, Note_on_c, 1, 86, 90
3, 240576, Note_on_c, 1, 81, 90
3, 240760, Note_off_c, 1, 89, 64
3, 240760, Note_off_c, 1, 86, 64
3, 240760, Note_off_c, 1, 81, 64
3, 240768, Note_on_c, 1, 88, 90
3, 240768, Note_on_c, 1, 84, 90
3, 240768, Note_on_c, 1, 81, 90
3, 240952, Note_off_c, 1, 88, 64
3, 240952, Note_off_c, 1, 84, 64
3, 240952, Note_off_c, 1, 81, 64
3, 240960, Note_on_c, 1, 86, 90
3, 240960, Note_on_c, 1, 83, 90
3, 240960, Note_on_c, 1, 76, 90
3, 241144, Note_off_c, 1, 86, 64
3, 241144, Note_off_c, 1, 83, 64
3, 241144, Note_off_c, 1, 76, 64
3, 241152, Note_on_c, 1, 84, 90
3, 241152, Note_on_c, 1, 81, 90
3, 241152, Note_on_c, 1, 76, 90
3, 241336, Note_off_c, 1, 84, 64
3, 241336, Note_off_c, 1, 81, 64
3, 241336, Note_off_c, 1, 76, 64
3, 241344, Note_on_c, 1, 83, 90
3, 241344, Note_on_c, 1, 80, 90
3, 241344, Note_on_c, 1, 76, 90
3, 241344, Note_on_c, 1, 74, 90
3, 241528, Note_off_c, 1, 83, 64
3, 241528, Note_off_c, 1, 80, 64
3, 241528, Note_off_c, 1, 76, 64
3, 241528, Note_off_c, 1, 74, 64
3, 241536, Note_on_c, 1, 81, 90
3, 241536, Note_on_c, 1, 76, 90
3, 241536, Note_on_c, 1, 72, 90
3, 241916, Note_off_c, 1, 81, 64
3, 241916, Note_off_c, 1, 76, 64
3, 241916, Note_off_c, 1, 72, 64
3, 242112, Note_on_c, 1, 69, 60
3, 242204, Note_off_c, 1, 69, 64
3, 242304, Note_on_c, 1, 67, 60
3, 242396, Note_off_c, 1, 67, 64
3, 242496, Note_on_c, 1, 64, 60
3, 242496, Note_on_c, 1, 76, 60
3, 242588, Note_off_c, 1, 64, 64
3, 242688, Note_on_c, 1, 66, 60
3, 242780, Note_off_c, 1, 66, 64
3, 242876, Note_off_c, 1, 76, 64
3, 242880, Note_on_c, 1, 59, 60
3, 242880, Note_on_c, 1, 75, 60
3, 242972, Note_off_c, 1, 59, 64
3, 243068, Note_off_c, 1, 75, 64
3, 243072, Note_on_c, 1, 76, 60
3, 243072, Note_on_c, 1, 64, 60
3, 243452, Note_off_c, 1, 76, 64
3, 243452, Note_off_c, 1, 64, 64
3, 243648, Note_on_c, 1, 67, 60
3, 243740, Note_off_c, 1, 67, 64
3, 243840, Note_on_c, 1, 66, 60
3, 243932, Note_off_c, 1, 66, 64
3, 244032, Note_on_c, 1, 63, 60
3, 244032, Note_on_c, 1, 71, 60
3, 244124, Note_off_c, 1, 63, 64
3, 244224, Note_on_c, 1, 64, 60
3, 244316, Note_off_c, 1, 64, 64
3, 244412, Note_off_c, 1, 71, 64
3, 244416, Note_on_c, 1, 60, 60
3, 244416, Note_on_c, 1, 70, 62
3, 244508, Note_off_c, 1, 60, 64
3, 244604, Note_off_c, 1, 70, 64
3, 244608, Note_on_c, 1, 71, 60
3, 244608, Note_on_c, 1, 59, 60
3, 244988, Note_off_c, 1, 71, 64
3, 244988, Note_off_c, 1, 59, 64
3, 245184, Note_on_c, 1, 69, 60
3, 245276, Note_off_c, 1, 69, 64
3, 245376, Note_on_c, 1, 67, 60
3, 245468, Note_off_c, 1, 67, 64
3, 245568, Note_on_c, 1, 64, 60
3, 245568, Note_on_c, 1, 76, 60
3, 245660, Note_off_c, 1, 64, 64
3, 245760, Note_on_c, 1, 66, 60
3, 245852, Note_off_c, 1, 66, 64
3, 245948, Note_off_c, 1, 76, 64
3, 245952, Note_on_c, 1, 59, 60
3, 245952, Note_on_c, 1, 75, 60
3, 246044, Note_off_c, 1, 59, 64
3, 246140, Note_off_c, 1, 75, 64
3, 246144, Note_on_c, 1, 76, 60
3, 246144, Note_on_c, 1, 64, 60
3, 246524, Note_off_c, 1, 76, 64
3, 246524, Note_off_c, 1, 64, 64
3, 246528, Note_on_c, 1, 83, 60
3, 246528, Note_on_c, 1, 79, 60
3, 246720, Note_on_c, 1, 76, 60
3, 246720, Note_on_c, 1, 71, 60
3, 246908, Note_off_c, 1, 83, 64
3, 246908, Note_off_c, 1, 79, 64
3, 246908, Note_off_c, 1, 76, 64
3, 246908, Note_off_c, 1, 71, 64
3, 246912, Note_on_c, 1, 81, 66
3, 246912, Note_on_c, 1, 77, 66
3, 247104, Note_on_c, 1, 76, 72
3, 247104, Note_on_c, 1, 72, 72
3, 247196, Note_off_c, 1, 76, 64
3, 247196, Note_off_c, 1, 72, 64
3, 247292, Note_off_c, 1, 81, 64
3, 247292, Note_off_c, 1, 77, 64
3, 247296, Note_on_c, 1, 77, 78
3, 247296, Note_on_c, 1, 75, 78
3, 247488, Note_on_c, 1, 69, 84
3, 247488, Note_on_c, 1, 65, 84
3, 247580, Note_off_c, 1, 69, 64
3, 247580, Note_off_c, 1, 65, 64
3, 247676, Note_off_c, 1, 77, 64
3, 247676, Note_off_c, 1, 75, 64
3, 247680, Note_on_c, 1, 76, 90
3, 247680, Note_on_c, 1, 67, 90
3, 247680, Note_on_c, 1, 64, 90
3, 248060, Note_off_c, 1, 76, 64
3, 248060, Note_off_c, 1, 67, 64
3, 248060, Note_off_c, 1, 64, 64
3, 248256, Note_on_c, 1, 69, 60
3, 248348, Note_off_c, 1, 69, 64
3, 248448, Note_on_c, 1, 67, 60
3, 248540, Note_off_c, 1, 67, 64
3, 248640, Note_on_c, 1, 64, 62
3, 248640, Note_on_c, 1, 76, 62
3, 248732, Note_off_c, 1, 64, 64
3, 248832, Note_on_c, 1, 66, 62
3, 248924, Note_off_c, 1, 66, 64
3, 249020, Note_off_c, 1, 76, 64
3, 249024, Note_on_c, 1, 59, 62
3, 249024, Note_on_c, 1, 75, 62
3, 249116, Note_off_c, 1, 59, 64
3, 249212, Note_off_c, 1, 75, 64
3, 249216, Note_on_c, 1, 76, 62
3, 249216, Note_on_c, 1, 64, 62
3, 249596, Note_off_c, 1, 76, 64
3, 249596, Note_off_c, 1, 64, 64
3, 249792, Note_on_c, 1, 67, 62
3, 249884, Note_off_c, 1, 67, 64
3, 249984, Note_on_c, 1, 66, 62
3, 250076, Note_off_c, 1, 66, 64
3, 250176, Note_on_c, 1, 63, 62
3, 250176, Note_on_c, 1, 71, 62
3, 250268, Note_off_c, 1, 63, 64
3, 250368, Note_on_c, 1, 64, 62
3, 250460, Note_off_c, 1, 64, 64
3, 250556, Note_off_c, 1, 71, 64
3, 250560, Note_on_c, 1, 60, 62
3, 250560, Note_on_c, 1, 70, 62
3, 250652, Note_off_c, 1, 60, 64
3, 250748, Note_off_c, 1, 70, 64
3, 250752, Note_on_c, 1, 71, 62
3, 250752, Note_on_c, 1, 59, 62
3, 251132, Note_off_c, 1, 71, 64
3, 251132, Note_off_c, 1, 59, 64
3, 251328, Note_on_c, 1, 69, 62
3, 251420, Note_off_c, 1, 69, 64
3, 251520, Note_on_c, 1, 67, 62
3, 251612, Note_off_c, 1, 67, 64
3, 251712, Note_on_c, 1, 64, 62
3, 251712, Note_on_c, 1, 76, 62
3, 251804, Note_off_c, 1, 64, 64
3, 251904, Note_on_c, 1, 66, 62
3, 251996, Note_off_c, 1, 66, 64
3, 252092, Note_off_c, 1, 76, 64
3, 252096, Note_on_c, 1, 59, 62
3, 252096, Note_on_c, 1, 75, 62
3, 252188, Note_off_c, 1, 59, 64
3, 252288, Note_on_c, 1, 76, 62
3, 252288, Note_on_c, 1, 64, 62
3, 252292, Note_off_c, 1, 75, 64
3, 252668, Note_off_c, 1, 76, 64
3, 252668, Note_off_c, 1, 64, 64
3, 252672, Note_on_c, 1, 83, 62
3, 252672, Note_on_c, 1, 79, 62
3, 252864, Note_on_c, 1, 76, 62
3, 252864, Note_on_c, 1, 71, 62
3, 253052, Note_off_c, 1, 83, 64
3, 253052, Note_off_c, 1, 79, 64
3, 253052, Note_off_c, 1, 76, 64
3, 253052, Note_off_c, 1, 71, 64
3, 253056, Note_on_c, 1, 81, 66
3, 253056, Note_on_c, 1, 77, 66
3, 253248, Note_on_c, 1, 76, 72
3, 253248, Note_on_c, 1, 72, 72
3, 253340, Note_off_c, 1, 76, 64
3, 253340, Note_off_c, 1, 72, 64
3, 253436, Note_off_c, 1, 81, 64
3, 253436, Note_off_c, 1, 77, 64
3, 253440, Note_on_c, 1, 77, 78
3, 253440, Note_on_c, 1, 75, 78
3, 253632, Note_on_c, 1, 69, 84
3, 253632, Note_on_c, 1, 65, 84
3, 253724, Note_off_c, 1, 69, 64
3, 253724, Note_off_c, 1, 65, 64
3, 253820, Note_off_c, 1, 77, 64
3, 253820, Note_off_c, 1, 75, 64
3, 253824, Note_on_c, 1, 76, 95
3, 253824, Note_on_c, 1, 67, 95
3, 253824, Note_on_c, 1, 64, 95
3, 254204, Note_off_c, 1, 76, 64
3, 254204, Note_off_c, 1, 67, 64
3, 254204, Note_off_c, 1, 64, 64
3, 254208, Note_on_c, 1, 69, 95
3, 254300, Note_off_c, 1, 69, 64
3, 254400, Note_on_c, 1, 76, 95
3, 254492, Note_off_c, 1, 76, 64
3, 254592, Note_on_c, 1, 72, 95
3, 254684, Note_off_c, 1, 72, 64
3, 254784, Note_on_c, 1, 81, 95
3, 254876, Note_off_c, 1, 81, 64
3, 254976, Note_on_c, 1, 76, 95
3, 255068, Note_off_c, 1, 76, 64
3, 255168, Note_on_c, 1, 84, 95
3, 255260, Note_off_c, 1, 84, 64
3, 255360, Note_on_c, 1, 81, 95
3, 255740, Note_off_c, 1, 81, 64
3, 255744, Note_on_c, 1, 84, 95
3, 255836, Note_off_c, 1, 84, 64
3, 255936, Note_on_c, 1, 76, 95
3, 256028, Note_off_c, 1, 76, 64
3, 256128, Note_on_c, 1, 81, 95
3, 256220, Note_off_c, 1, 81, 64
3, 256320, Note_on_c, 1, 72, 95
3, 256412, Note_off_c, 1, 72, 64
3, 256512, Note_on_c, 1, 76, 95
3, 256604, Note_off_c, 1, 76, 64
3, 256704, Note_on_c, 1, 68, 95
3, 256796, Note_off_c, 1, 68, 64
3, 256896, Note_on_c, 1, 69, 95
3, 256988, Note_off_c, 1, 69, 64
3, 257088, Note_on_c, 1, 64, 95
3, 257180, Note_off_c, 1, 64, 64
3, 257280, Note_on_c, 1, 69, 95
3, 257372, Note_off_c, 1, 69, 64
3, 257472, Note_on_c, 1, 76, 95
3, 257564, Note_off_c, 1, 76, 64
3, 257664, Note_on_c, 1, 72, 95
3, 257756, Note_off_c, 1, 72, 64
3, 257856, Note_on_c, 1, 81, 95
3, 257948, Note_off_c, 1, 81, 64
3, 258048, Note_on_c, 1, 76, 95
3, 258140, Note_off_c, 1, 76, 64
3, 258240, Note_on_c, 1, 84, 95
3, 258332, Note_off_c, 1, 84, 64
3, 258432, Note_on_c, 1, 81, 95
3, 258812, Note_off_c, 1, 81, 64
3, 258816, Note_on_c, 1, 84, 95
3, 258908, Note_off_c, 1, 84, 64
3, 259008, Note_on_c, 1, 76, 95
3, 259100, Note_off_c, 1, 76, 64
3, 259200, Note_on_c, 1, 81, 95
3, 259292, Note_off_c, 1, 81, 64
3, 259392, Note_on_c, 1, 72, 95
3, 259484, Note_off_c, 1, 72, 64
3, 259584, Note_on_c, 1, 76, 95
3, 259676, Note_off_c, 1, 76, 64
3, 259776, Note_on_c, 1, 68, 95
3, 259868, Note_off_c, 1, 68, 64
3, 259968, Note_on_c, 1, 69, 95
3, 260348, Note_off_c, 1, 69, 64
3, 260352, Note_on_c, 1, 67, 60
3, 260352, Note_on_c, 1, 64, 60
3, 260444, Note_off_c, 1, 67, 64
3, 260444, Note_off_c, 1, 64, 64
3, 260544, Note_on_c, 1, 67, 60
3, 260544, Note_on_c, 1, 64, 60
3, 260636, Note_off_c, 1, 67, 64
3, 260636, Note_off_c, 1, 64, 64
3, 260736, Note_on_c, 1, 71, 90
3, 260736, Note_on_c, 1, 65, 90
3, 260736, Note_on_c, 1, 67, 90
3, 260924, Note_off_c, 1, 71, 64
3, 260924, Note_off_c, 1, 65, 64
3, 260928, Note_on_c, 1, 72, 60
3, 260928, Note_on_c, 1, 64, 60
3, 261024, Note_off_c, 1, 72, 64
3, 261024, Note_off_c, 1, 64, 64
3, 261116, Note_off_c, 1, 67, 64
3, 261120, Note_on_c, 1, 64, 60
3, 261120, Note_on_c, 1, 67, 60
3, 261308, Note_off_c, 1, 64, 64
3, 261308, Note_off_c, 1, 67, 64
3, 261312, Note_on_c, 1, 64, 60
3, 261312, Note_on_c, 1, 67, 60
3, 261500, Note_off_c, 1, 64, 64
3, 261500, Note_off_c, 1, 67, 64
3, 261504, Note_on_c, 1, 71, 90
3, 261504, Note_on_c, 1, 65, 90
3, 261504, Note_on_c, 1, 67, 90
3, 261692, Note_off_c, 1, 71, 64
3, 261692, Note_off_c, 1, 65, 64
3, 261696, Note_on_c, 1, 74, 62
3, 261696, Note_on_c, 1, 64, 62
3, 261884, Note_off_c, 1, 67, 64
3, 261884, Note_off_c, 1, 74, 64
3, 261884, Note_off_c, 1, 64, 64
3, 261888, Note_on_c, 1, 67, 62
3, 261888, Note_on_c, 1, 71, 62
3, 261888, Note_on_c, 1, 62, 62
3, 261984, Note_off_c, 1, 67, 64
3, 261984, Note_off_c, 1, 71, 64
3, 261984, Note_off_c, 1, 62, 64
3, 262080, Note_on_c, 1, 72, 62
3, 262080, Note_on_c, 1, 67, 62
3, 262080, Note_on_c, 1, 60, 62
3, 262176, Note_off_c, 1, 72, 64
3, 262176, Note_off_c, 1, 67, 64
3, 262176, Note_off_c, 1, 60, 64
3, 262272, Note_on_c, 1, 74, 62
3, 262272, Note_on_c, 1, 59, 62
3, 262272, Note_on_c, 1, 67, 62
3, 262460, Note_off_c, 1, 74, 64
3, 262460, Note_off_c, 1, 67, 64
3, 262464, Note_on_c, 1, 67, 62
3, 262652, Note_off_c, 1, 59, 64
3, 262656, Note_on_c, 1, 60, 62
3, 262844, Note_off_c, 1, 67, 64
3, 262848, Note_on_c, 1, 64, 62
3, 262848, Note_on_c, 1, 67, 62
3, 262944, Note_off_c, 1, 64, 64
3, 262944, Note_off_c, 1, 67, 64
3, 263036, Note_off_c, 1, 60, 64
3, 263040, Note_on_c, 1, 62, 62
3, 263040, Note_on_c, 1, 67, 62
3, 263040, Note_on_c, 1, 55, 62
3, 263040, Note_on_c, 1, 55, 62
3, 263228, Note_off_c, 1, 55, 64
3, 263232, Note_off_c, 1, 62, 64
3, 263232, Note_off_c, 1, 67, 64
3, 263232, Note_on_c, 1, 59, 62
3, 263420, Note_off_c, 1, 55, 64
3, 263420, Note_off_c, 1, 59, 64
3, 263424, Note_on_c, 1, 67, 62
3, 263424, Note_on_c, 1, 64, 62
3, 263520, Note_off_c, 1, 67, 64
3, 263520, Note_off_c, 1, 64, 64
3, 263616, Note_on_c, 1, 64, 62
3, 263616, Note_on_c, 1, 67, 62
3, 263712, Note_off_c, 1, 64, 64
3, 263712, Note_off_c, 1, 67, 64
3, 263808, Note_on_c, 1, 65, 90
3, 263808, Note_on_c, 1, 59, 90
3, 263808, Note_on_c, 1, 67, 90
3, 263996, Note_off_c, 1, 65, 64
3, 263996, Note_off_c, 1, 59, 64
3, 264000, Note_on_c, 1, 64, 62
3, 264000, Note_on_c, 1, 60, 62
3, 264188, Note_off_c, 1, 67, 64
3, 264188, Note_off_c, 1, 64, 64
3, 264188, Note_off_c, 1, 60, 64
3, 264192, Note_on_c, 1, 76, 62
3, 264192, Note_on_c, 1, 67, 62
3, 264288, Note_off_c, 1, 76, 64
3, 264288, Note_off_c, 1, 67, 64
3, 264384, Note_on_c, 1, 76, 62
3, 264384, Note_on_c, 1, 67, 62
3, 264480, Note_off_c, 1, 76, 64
3, 264480, Note_off_c, 1, 67, 64
3, 264576, Note_on_c, 1, 77, 90
3, 264576, Note_on_c, 1, 71, 90
3, 264576, Note_on_c, 1, 67, 90
3, 264764, Note_off_c, 1, 77, 64
3, 264764, Note_off_c, 1, 71, 64
3, 264768, Note_on_c, 1, 76, 62
3, 264768, Note_on_c, 1, 72, 62
3, 264956, Note_off_c, 1, 67, 64
3, 264956, Note_off_c, 1, 76, 64
3, 264956, Note_off_c, 1, 72, 64
3, 265152, Note_on_c, 1, 72, 62
3, 265152, Note_on_c, 1, 67, 62
3, 265248, Note_off_c, 1, 72, 64
3, 265248, Note_off_c, 1, 67, 64
3, 265536, Note_on_c, 1, 72, 62
3, 265536, Note_on_c, 1, 69, 62
3, 265632, Note_off_c, 1, 72, 64
3, 265632, Note_off_c, 1, 69, 64
3, 265920, Note_on_c, 1, 65, 62
3, 265920, Note_on_c, 1, 62, 62
3, 266016, Note_off_c, 1, 65, 64
3, 266016, Note_off_c, 1, 62, 64
3, 266112, Note_on_c, 1, 64, 90
3, 266112, Note_on_c, 1, 60, 90
3, 266492, Note_off_c, 1, 64, 64
3, 266492, Note_off_c, 1, 60, 64
3, 266496, Note_on_c, 1, 64, 62
3, 266592, Note_off_c, 1, 64, 64
3, 266688, Note_on_c, 1, 64, 62
3, 266784, Note_off_c, 1, 64, 64
3, 266880, Note_on_c, 1, 64, 62
3, 268028, Note_off_c, 1, 64, 64
3, 268224, Note_on_c, 1, 72, 90
3, 268320, Note_off_c, 1, 72, 64
3, 268416, Note_on_c, 1, 71, 90
3, 268608, Note_on_c, 1, 76, 90
3, 268796, Note_off_c, 1, 71, 64
3, 268800, Note_on_c, 1, 69, 90
3, 268988, Note_off_c, 1, 76, 64
3, 268992, Note_on_c, 1, 75, 90
3, 269180, Note_off_c, 1, 69, 64
3, 269180, Note_off_c, 1, 75, 64
3, 269184, Note_on_c, 1, 76, 90
3, 269184, Note_on_c, 1, 68, 90
3, 269564, Note_off_c, 1, 76, 64
3, 269564, Note_off_c, 1, 68, 64
3, 269568, Note_on_c, 1, 64, 62
3, 269664, Note_off_c, 1, 64, 64
3, 269760, Note_on_c, 1, 64, 62
3, 269856, Note_off_c, 1, 64, 64
3, 269952, Note_on_c, 1, 64, 62
3, 271100, Note_off_c, 1, 64, 64
3, 271296, Note_on_c, 1, 73, 90
3, 271484, Note_off_c, 1, 73, 64
3, 271488, Note_on_c, 1, 71, 90
3, 271680, Note_on_c, 1, 76, 90
3, 271868, Note_off_c, 1, 71, 64
3, 271872, Note_on_c, 1, 69, 90
3, 272060, Note_off_c, 1, 76, 64
3, 272064, Note_on_c, 1, 75, 90
3, 272252, Note_off_c, 1, 69, 64
3, 272252, Note_off_c, 1, 75, 64
3, 272256, Note_on_c, 1, 76, 90
3, 272256, Note_on_c, 1, 68, 90
3, 272636, Note_off_c, 1, 76, 64
3, 272636, Note_off_c, 1, 68, 64
3, 273792, Note_on_c, 1, 71, 90
3, 273792, Note_on_c, 1, 68, 90
3, 274364, Note_off_c, 1, 71, 64
3, 274364, Note_off_c, 1, 68, 64
3, 274368, Note_on_c, 1, 72, 62
3, 274368, Note_on_c, 1, 69, 62
3, 274556, Note_off_c, 1, 72, 64
3, 274556, Note_off_c, 1, 69, 64
3, 274560, Note_on_c, 1, 71, 62
3, 274560, Note_on_c, 1, 68, 62
3, 274748, Note_off_c, 1, 71, 64
3, 274748, Note_off_c, 1, 68, 64
3, 274752, Note_on_c, 1, 72, 62
3, 274752, Note_on_c, 1, 69, 62
3, 274940, Note_off_c, 1, 72, 64
3, 274940, Note_off_c, 1, 69, 64
3, 274944, Note_on_c, 1, 71, 62
3, 274944, Note_on_c, 1, 68, 62
3, 275132, Note_off_c, 1, 71, 64
3, 275132, Note_off_c, 1, 68, 64
3, 275136, Note_on_c, 1, 72, 62
3, 275136, Note_on_c, 1, 69, 62
3, 275324, Note_off_c, 1, 72, 64
3, 275324, Note_off_c, 1, 69, 64
3, 275328, Note_on_c, 1, 71, 62
3, 275328, Note_on_c, 1, 68, 62
3, 275708, Note_off_c, 1, 71, 64
3, 275708, Note_off_c, 1, 68, 64
3, 276096, Note_on_c, 1, 64, 62
3, 278396, Note_off_c, 1, 64, 64
3, 278400, Note_on_c, 1, 64, 90
3, 278400, Note_on_c, 1, 60, 90
3, 278972, Note_off_c, 1, 64, 64
3, 278972, Note_off_c, 1, 60, 64
3, 278976, Note_on_c, 1, 65, 62
3, 278976, Note_on_c, 1, 62, 62
3, 279164, Note_off_c, 1, 65, 64
3, 279164, Note_off_c, 1, 62, 64
3, 279168, Note_on_c, 1, 64, 62
3, 279168, Note_on_c, 1, 60, 62
3, 279356, Note_off_c, 1, 64, 64
3, 279356, Note_off_c, 1, 60, 64
3, 279360, Note_on_c, 1, 65, 62
3, 279360, Note_on_c, 1, 62, 62
3, 279548, Note_off_c, 1, 65, 64
3, 279548, Note_off_c, 1, 62, 64
3, 279552, Note_on_c, 1, 64, 62
3, 279552, Note_on_c, 1, 60, 62
3, 279740, Note_off_c, 1, 64, 64
3, 279740, Note_off_c, 1, 60, 64
3, 279744, Note_on_c, 1, 65, 62
3, 279744, Note_on_c, 1, 62, 62
3, 279932, Note_off_c, 1, 65, 64
3, 279932, Note_off_c, 1, 62, 64
3, 279936, Note_on_c, 1, 60, 62
3, 279936, Note_on_c, 1, 64, 62
3, 280316, Note_off_c, 1, 60, 64
3, 283388, Note_off_c, 1, 64, 64
3, 283392, Note_on_c, 1, 69, 95
3, 283488, Note_off_c, 1, 69, 64
3, 283584, Note_on_c, 1, 76, 95
3, 283680, Note_off_c, 1, 76, 64
3, 283776, Note_on_c, 1, 72, 95
3, 283872, Note_off_c, 1, 72, 64
3, 283968, Note_on_c, 1, 81, 95
3, 284064, Note_off_c, 1, 81, 64
3, 284160, Note_on_c, 1, 76, 95
3, 284256, Note_off_c, 1, 76, 64
3, 284352, Note_on_c, 1, 84, 95
3, 284448, Note_off_c, 1, 84, 64
3, 284544, Note_on_c, 1, 81, 95
3, 284924, Note_off_c, 1, 81, 64
3, 284928, Note_on_c, 1, 84, 95
3, 285024, Note_off_c, 1, 84, 64
3, 285120, Note_on_c, 1, 76, 95
3, 285216, Note_off_c, 1, 76, 64
3, 285312, Note_on_c, 1, 81, 95
3, 285408, Note_off_c, 1, 81, 64
3, 285504, Note_on_c, 1, 72, 95
3, 285600, Note_off_c, 1, 72, 64
3, 285696, Note_on_c, 1, 76, 95
3, 285792, Note_off_c, 1, 76, 64
3, 285888, Note_on_c, 1, 68, 95
3, 285984, Note_off_c, 1, 68, 64
3, 286080, Note_on_c, 1, 69, 95
3, 286176, Note_off_c, 1, 69, 64
3, 286272, Note_on_c, 1, 64, 95
3, 286368, Note_off_c, 1, 64, 64
3, 286464, Note_on_c, 1, 69, 95
3, 286560, Note_off_c, 1, 69, 64
3, 286656, Note_on_c, 1, 76, 95
3, 286752, Note_off_c, 1, 76, 64
3, 286848, Note_on_c, 1, 72, 95
3, 286944, Note_off_c, 1, 72, 64
3, 287040, Note_on_c, 1, 81, 95
3, 287136, Note_off_c, 1, 81, 64
3, 287232, Note_on_c, 1, 76, 95
3, 287328, Note_off_c, 1, 76, 64
3, 287424, Note_on_c, 1, 84, 95
3, 287520, Note_off_c, 1, 84, 64
3, 287616, Note_on_c, 1, 81, 95
3, 287996, Note_off_c, 1, 81, 64
3, 288000, Note_on_c, 1, 84, 95
3, 288096, Note_off_c, 1, 84, 64
3, 288192, Note_on_c, 1, 76, 95
3, 288288, Note_off_c, 1, 76, 64
3, 288384, Note_on_c, 1, 81, 95
3, 288480, Note_off_c, 1, 81, 64
3, 288576, Note_on_c, 1, 72, 95
3, 288672, Note_off_c, 1, 72, 64
3, 288768, Note_on_c, 1, 76, 95
3, 288864, Note_off_c, 1, 76, 64
3, 288960, Note_on_c, 1, 68, 95
3, 289056, Note_off_c, 1, 68, 64
3, 289152, Note_on_c, 1, 69, 95
3, 289532, Note_off_c, 1, 69, 64
3, 289920, Note_on_c, 1, 64, 62
3, 289920, Note_on_c, 1, 60, 62
3, 289920, Note_on_c, 1, 57, 62
3, 290016, Note_off_c, 1, 64, 64
3, 290016, Note_off_c, 1, 60, 64
3, 290016, Note_off_c, 1, 57, 64
3, 290112, Note_on_c, 1, 64, 62
3, 290112, Note_on_c, 1, 60, 62
3, 290112, Note_on_c, 1, 57, 62
3, 290208, Note_off_c, 1, 64, 64
3, 290208, Note_off_c, 1, 60, 64
3, 290208, Note_off_c, 1, 57, 64
3, 290304, Note_on_c, 1, 64, 62
3, 290304, Note_on_c, 1, 60, 62
3, 290304, Note_on_c, 1, 57, 62
3, 290400, Note_off_c, 1, 64, 64
3, 290400, Note_off_c, 1, 60, 64
3, 290400, Note_off_c, 1, 57, 64
3, 290496, Note_on_c, 1, 64, 62
3, 290496, Note_on_c, 1, 60, 62
3, 290496, Note_on_c, 1, 57, 62
3, 290592, Note_off_c, 1, 64, 64
3, 290592, Note_off_c, 1, 60, 64
3, 290592, Note_off_c, 1, 57, 64
3, 290688, Note_on_c, 1, 64, 62
3, 290688, Note_on_c, 1, 60, 62
3, 290688, Note_on_c, 1, 57, 62
3, 290784, Note_off_c, 1, 64, 64
3, 290784, Note_off_c, 1, 60, 64
3, 290784, Note_off_c, 1, 57, 64
3, 290880, Note_on_c, 1, 64, 62
3, 290880, Note_on_c, 1, 60, 62
3, 290880, Note_on_c, 1, 57, 62
3, 290976, Note_off_c, 1, 64, 64
3, 290976, Note_off_c, 1, 60, 64
3, 290976, Note_off_c, 1, 57, 64
3, 291072, Note_on_c, 1, 64, 62
3, 291072, Note_on_c, 1, 60, 62
3, 291072, Note_on_c, 1, 57, 62
3, 291168, Note_off_c, 1, 64, 64
3, 291168, Note_off_c, 1, 60, 64
3, 291168, Note_off_c, 1, 57, 64
3, 291264, Note_on_c, 1, 64, 62
3, 291264, Note_on_c, 1, 60, 62
3, 291264, Note_on_c, 1, 57, 62
3, 291360, Note_off_c, 1, 64, 64
3, 291360, Note_off_c, 1, 60, 64
3, 291360, Note_off_c, 1, 57, 64
3, 291456, Note_on_c, 1, 64, 62
3, 291456, Note_on_c, 1, 60, 62
3, 291456, Note_on_c, 1, 57, 62
3, 291644, Note_off_c, 1, 64, 64
3, 291644, Note_off_c, 1, 60, 64
3, 291644, Note_off_c, 1, 57, 64
3, 291648, Note_on_c, 1, 64, 62
3, 291648, Note_on_c, 1, 60, 62
3, 291648, Note_on_c, 1, 57, 62
3, 291836, Note_off_c, 1, 64, 64
3, 291836, Note_off_c, 1, 60, 64
3, 291836, Note_off_c, 1, 57, 64
3, 291840, Note_on_c, 1, 64, 62
3, 291840, Note_on_c, 1, 62, 62
3, 291840, Note_on_c, 1, 59, 62
3, 292028, Note_off_c, 1, 64, 64
3, 292028, Note_off_c, 1, 62, 64
3, 292028, Note_off_c, 1, 59, 64
3, 292032, Note_on_c, 1, 64, 62
3, 292032, Note_on_c, 1, 62, 62
3, 292032, Note_on_c, 1, 59, 62
3, 292220, Note_off_c, 1, 64, 64
3, 292220, Note_off_c, 1, 62, 64
3, 292220, Note_off_c, 1, 59, 64
3, 292224, Note_on_c, 1, 64, 62
3, 292224, Note_on_c, 1, 60, 62
3, 292224, Note_on_c, 1, 57, 62
3, 292412, Note_off_c, 1, 64, 64
3, 292412, Note_off_c, 1, 60, 64
3, 292412, Note_off_c, 1, 57, 64
3, 292416, Note_on_c, 1, 64, 62
3, 292416, Note_on_c, 1, 60, 62
3, 292416, Note_on_c, 1, 57, 62
3, 292604, Note_off_c, 1, 64, 64
3, 292604, Note_off_c, 1, 60, 64
3, 292604, Note_off_c, 1, 57, 64
3, 292608, Note_on_c, 1, 64, 62
3, 292608, Note_on_c, 1, 60, 62
3, 292608, Note_on_c, 1, 57, 62
3, 292796, Note_off_c, 1, 64, 64
3, 292796, Note_off_c, 1, 60, 64
3, 292796, Note_off_c, 1, 57, 64
3, 292800, Note_on_c, 1, 64, 62
3, 292800, Note_on_c, 1, 60, 62
3, 292800, Note_on_c, 1, 57, 62
3, 292988, Note_off_c, 1, 64, 64
3, 292988, Note_off_c, 1, 60, 64
3, 292988, Note_off_c, 1, 57, 64
3, 292992, Note_on_c, 1, 64, 62
3, 292992, Note_on_c, 1, 60, 62
3, 292992, Note_on_c, 1, 57, 62
3, 293180, Note_off_c, 1, 64, 64
3, 293180, Note_off_c, 1, 60, 64
3, 293180, Note_off_c, 1, 57, 64
3, 293184, Note_on_c, 1, 64, 62
3, 293184, Note_on_c, 1, 60, 62
3, 293184, Note_on_c, 1, 57, 62
3, 293372, Note_off_c, 1, 64, 64
3, 293372, Note_off_c, 1, 60, 64
3, 293372, Note_off_c, 1, 57, 64
3, 293376, Note_on_c, 1, 64, 62
3, 293376, Note_on_c, 1, 60, 62
3, 293376, Note_on_c, 1, 57, 62
3, 293564, Note_off_c, 1, 64, 64
3, 293564, Note_off_c, 1, 60, 64
3, 293564, Note_off_c, 1, 57, 64
3, 293568, Note_on_c, 1, 64, 62
3, 293568, Note_on_c, 1, 60, 62
3, 293568, Note_on_c, 1, 57, 62
3, 293756, Note_off_c, 1, 64, 64
3, 293756, Note_off_c, 1, 60, 64
3, 293756, Note_off_c, 1, 57, 64
3, 293760, Note_on_c, 1, 64, 62
3, 293760, Note_on_c, 1, 60, 62
3, 293760, Note_on_c, 1, 57, 62
3, 293948, Note_off_c, 1, 64, 64
3, 293948, Note_off_c, 1, 60, 64
3, 293948, Note_off_c, 1, 57, 64
3, 293952, Note_on_c, 1, 64, 62
3, 293952, Note_on_c, 1, 60, 62
3, 293952, Note_on_c, 1, 57, 62
3, 294140, Note_off_c, 1, 64, 64
3, 294140, Note_off_c, 1, 60, 64
3, 294140, Note_off_c, 1, 57, 64
3, 294144, Note_on_c, 1, 64, 62
3, 294144, Note_on_c, 1, 60, 62
3, 294144, Note_on_c, 1, 57, 62
3, 294332, Note_off_c, 1, 64, 64
3, 294332, Note_off_c, 1, 60, 64
3, 294332, Note_off_c, 1, 57, 64
3, 294336, Note_on_c, 1, 64, 62
3, 294336, Note_on_c, 1, 60, 62
3, 294336, Note_on_c, 1, 57, 62
3, 294524, Note_off_c, 1, 64, 64
3, 294524, Note_off_c, 1, 60, 64
3, 294524, Note_off_c, 1, 57, 64
3, 294528, Note_on_c, 1, 64, 62
3, 294528, Note_on_c, 1, 60, 62
3, 294528, Note_on_c, 1, 57, 62
3, 294716, Note_off_c, 1, 64, 64
3, 294716, Note_off_c, 1, 60, 64
3, 294716, Note_off_c, 1, 57, 64
3, 294720, Note_on_c, 1, 64, 62
3, 294720, Note_on_c, 1, 60, 62
3, 294720, Note_on_c, 1, 57, 62
3, 294908, Note_off_c, 1, 64, 64
3, 294908, Note_off_c, 1, 60, 64
3, 294908, Note_off_c, 1, 57, 64
3, 294912, Note_on_c, 1, 64, 62
3, 294912, Note_on_c, 1, 62, 62
3, 294912, Note_on_c, 1, 59, 62
3, 295100, Note_off_c, 1, 64, 64
3, 295100, Note_off_c, 1, 62, 64
3, 295100, Note_off_c, 1, 59, 64
3, 295104, Note_on_c, 1, 64, 62
3, 295104, Note_on_c, 1, 62, 62
3, 295104, Note_on_c, 1, 59, 62
3, 295292, Note_off_c, 1, 64, 64
3, 295292, Note_off_c, 1, 62, 64
3, 295292, Note_off_c, 1, 59, 64
3, 295296, Note_on_c, 1, 64, 62
3, 295296, Note_on_c, 1, 60, 62
3, 295296, Note_on_c, 1, 57, 62
3, 295676, Note_off_c, 1, 64, 64
3, 295676, Note_off_c, 1, 60, 64
3, 295676, Note_off_c, 1, 57, 64
3, 295680, Note_on_c, 1, 57, 62
3, 295868, Note_off_c, 1, 57, 64
3, 295872, Note_on_c, 1, 57, 62
3, 296060, Note_off_c, 1, 57, 64
3, 296064, Note_on_c, 1, 58, 63
3, 296064, Note_on_c, 1, 57, 63
3, 296252, Note_off_c, 1, 58, 64
3, 296256, Note_on_c, 1, 59, 69
3, 296444, Note_off_c, 1, 59, 64
3, 296448, Note_on_c, 1, 60, 75
3, 296636, Note_off_c, 1, 60, 64
3, 296640, Note_on_c, 1, 61, 81
3, 296828, Note_off_c, 1, 57, 64
3, 296828, Note_off_c, 1, 61, 64
3, 296832, Note_on_c, 1, 62, 90
3, 296832, Note_on_c, 1, 57, 90
3, 297020, Note_off_c, 1, 57, 64
3, 297024, Note_on_c, 1, 69, 90
3, 297212, Note_off_c, 1, 62, 64
3, 297212, Note_off_c, 1, 69, 64
3, 297216, Note_on_c, 1, 62, 62
3, 297216, Note_on_c, 1, 57, 62
3, 297404, Note_off_c, 1, 62, 64
3, 297404, Note_off_c, 1, 57, 64
3, 297408, Note_on_c, 1, 62, 62
3, 297408, Note_on_c, 1, 57, 62
3, 297596, Note_off_c, 1, 62, 64
3, 297596, Note_off_c, 1, 57, 64
3, 297600, Note_on_c, 1, 61, 63
3, 297600, Note_on_c, 1, 57, 63
3, 297788, Note_off_c, 1, 61, 64
3, 297792, Note_on_c, 1, 60, 69
3, 297980, Note_off_c, 1, 60, 64
3, 297984, Note_on_c, 1, 59, 75
3, 298172, Note_off_c, 1, 59, 64
3, 298176, Note_on_c, 1, 58, 81
3, 298364, Note_off_c, 1, 57, 64
3, 298364, Note_off_c, 1, 58, 64
3, 298368, Note_on_c, 1, 57, 90
3, 298368, Note_on_c, 1, 57, 90
3, 298556, Note_off_c, 1, 57, 64
3, 298560, Note_on_c, 1, 69, 90
3, 298748, Note_off_c, 1, 57, 64
3, 298748, Note_off_c, 1, 69, 64
3, 298752, Note_on_c, 1, 81, 62
3, 298752, Note_on_c, 1, 69, 62
3, 298940, Note_off_c, 1, 81, 64
3, 298940, Note_off_c, 1, 69, 64
3, 298944, Note_on_c, 1, 81, 62
3, 298944, Note_on_c, 1, 69, 62
3, 299132, Note_off_c, 1, 81, 64
3, 299132, Note_off_c, 1, 69, 64
3, 299136, Note_on_c, 1, 82, 62
3, 299136, Note_on_c, 1, 70, 62
3, 299324, Note_off_c, 1, 82, 64
3, 299324, Note_off_c, 1, 70, 64
3, 299328, Note_on_c, 1, 83, 62
3, 299328, Note_on_c, 1, 71, 62
3, 299516, Note_off_c, 1, 83, 64
3, 299516, Note_off_c, 1, 71, 64
3, 299520, Note_on_c, 1, 84, 62
3, 299520, Note_on_c, 1, 72, 62
3, 299708, Note_off_c, 1, 84, 64
3, 299708, Note_off_c, 1, 72, 64
3, 299712, Note_on_c, 1, 85, 62
3, 299712, Note_on_c, 1, 73, 62
3, 299900, Note_off_c, 1, 85, 64
3, 299900, Note_off_c, 1, 73, 64
3, 299904, Note_on_c, 1, 86, 90
3, 299904, Note_on_c, 1, 81, 90
3, 299904, Note_on_c, 1, 74, 90
3, 300284, Note_off_c, 1, 86, 64
3, 300284, Note_off_c, 1, 81, 64
3, 300284, Note_off_c, 1, 74, 64
3, 300288, Note_on_c, 1, 89, 90
3, 300288, Note_on_c, 1, 86, 90
3, 300288, Note_on_c, 1, 81, 90
3, 300476, Note_off_c, 1, 89, 64
3, 300476, Note_off_c, 1, 86, 64
3, 300476, Note_off_c, 1, 81, 64
3, 300480, Note_on_c, 1, 89, 90
3, 300480, Note_on_c, 1, 86, 90
3, 300480, Note_on_c, 1, 81, 90
3, 300668, Note_off_c, 1, 89, 64
3, 300668, Note_off_c, 1, 86, 64
3, 300668, Note_off_c, 1, 81, 64
3, 300672, Note_on_c, 1, 88, 90
3, 300672, Note_on_c, 1, 84, 90
3, 300672, Note_on_c, 1, 81, 90
3, 300860, Note_off_c, 1, 88, 64
3, 300860, Note_off_c, 1, 84, 64
3, 300860, Note_off_c, 1, 81, 64
3, 300864, Note_on_c, 1, 86, 90
3, 300864, Note_on_c, 1, 83, 90
3, 300864, Note_on_c, 1, 76, 90
3, 301052, Note_off_c, 1, 86, 64
3, 301052, Note_off_c, 1, 83, 64
3, 301052, Note_off_c, 1, 76, 64
3, 301056, Note_on_c, 1, 84, 90
3, 301056, Note_on_c, 1, 81, 90
3, 301056, Note_on_c, 1, 76, 90
3, 301244, Note_off_c, 1, 84, 64
3, 301244, Note_off_c, 1, 81, 64
3, 301244, Note_off_c, 1, 76, 64
3, 301248, Note_on_c, 1, 83, 90
3, 301248, Note_on_c, 1, 79, 90
3, 301248, Note_on_c, 1, 76, 90
3, 301248, Note_on_c, 1, 74, 90
3, 301436, Note_off_c, 1, 83, 64
3, 301436, Note_off_c, 1, 79, 64
3, 301436, Note_off_c, 1, 76, 64
3, 301436, Note_off_c, 1, 74, 64
3, 301440, Note_on_c, 1, 81, 90
3, 301440, Note_on_c, 1, 76, 90
3, 301440, Note_on_c, 1, 72, 90
3, 301820, Note_off_c, 1, 81, 64
3, 301820, Note_off_c, 1, 76, 64
3, 301820, Note_off_c, 1, 72, 64
3, 302400, Note_on_c, 1, 81, 63
3, 302496, Note_off_c, 1, 81, 64
3, 302592, Note_on_c, 1, 81, 73
3, 302688, Note_off_c, 1, 81, 64
3, 302784, Note_on_c, 1, 81, 81
3, 302880, Note_off_c, 1, 81, 64
3, 302976, Note_on_c, 1, 83, 90
3, 303024, Note_off_c, 1, 83, 64
3, 303024, Note_on_c, 1, 81, 90
3, 303072, Note_off_c, 1, 81, 64
3, 303072, Note_on_c, 1, 80, 90
3, 303120, Note_off_c, 1, 80, 64
3, 303120, Note_on_c, 1, 81, 90
3, 303308, Note_off_c, 1, 81, 64
3, 303360, Note_on_c, 1, 69, 62
3, 303360, Note_on_c, 1, 65, 62
3, 303740, Note_off_c, 1, 69, 64
3, 303740, Note_off_c, 1, 65, 64
3, 303744, Note_on_c, 1, 64, 62
3, 303744, Note_on_c, 1, 69, 62
3, 303936, Note_on_c, 1, 81, 63
3, 304032, Note_off_c, 1, 81, 64
3, 304124, Note_off_c, 1, 64, 64
3, 304128, Note_on_c, 1, 62, 73
3, 304128, Note_on_c, 1, 81, 73
3, 304224, Note_off_c, 1, 81, 64
3, 304320, Note_on_c, 1, 81, 81
3, 304416, Note_off_c, 1, 81, 64
3, 304508, Note_off_c, 1, 69, 64
3, 304508, Note_off_c, 1, 62, 64
3, 304512, Note_on_c, 1, 69, 90
3, 304512, Note_on_c, 1, 60, 90
3, 304512, Note_on_c, 1, 83, 100
3, 304556, Note_off_c, 1, 83, 64
3, 304560, Note_on_c, 1, 81, 100
3, 304604, Note_off_c, 1, 81, 64
3, 304608, Note_on_c, 1, 80, 100
3, 304652, Note_off_c, 1, 80, 64
3, 304656, Note_on_c, 1, 81, 110
3, 304844, Note_off_c, 1, 81, 64
3, 304892, Note_off_c, 1, 69, 64
3, 304892, Note_off_c, 1, 60, 64
3, 305472, Note_on_c, 1, 81, 63
3, 305568, Note_off_c, 1, 81, 64
3, 305664, Note_on_c, 1, 81, 73
3, 305760, Note_off_c, 1, 81, 64
3, 305856, Note_on_c, 1, 81, 81
3, 305952, Note_off_c, 1, 81, 64
3, 306048, Note_on_c, 1, 83, 100
3, 306092, Note_off_c, 1, 83, 64
3, 306096, Note_on_c, 1, 81, 100
3, 306140, Note_off_c, 1, 81, 64
3, 306144, Note_on_c, 1, 80, 100
3, 306188, Note_off_c, 1, 80, 64
3, 306192, Note_on_c, 1, 81, 110
3, 306380, Note_off_c, 1, 81, 64
3, 306816, Note_on_c, 1, 83, 100
3, 306860, Note_off_c, 1, 83, 64
3, 306864, Note_on_c, 1, 81, 100
3, 306908, Note_off_c, 1, 81, 64
3, 306912, Note_on_c, 1, 80, 100
3, 306956, Note_off_c, 1, 80, 64
3, 306960, Note_on_c, 1, 81, 110
3, 307148, Note_off_c, 1, 81, 64
3, 307584, Note_on_c, 1, 78, 92
3, 307772, Note_off_c, 1, 78, 64
3, 307776, Note_on_c, 1, 71, 62
3, 307776, Note_on_c, 1, 68, 62
3, 307776, Note_on_c, 1, 64, 62
3, 307964, Note_off_c, 1, 71, 64
3, 307964, Note_off_c, 1, 68, 64
3, 307964, Note_off_c, 1, 64, 64
3, 307968, Note_on_c, 1, 71, 62
3, 307968, Note_on_c, 1, 68, 62
3, 307968, Note_on_c, 1, 64, 62
3, 308156, Note_off_c, 1, 71, 64
3, 308156, Note_off_c, 1, 68, 64
3, 308156, Note_off_c, 1, 64, 64
3, 308160, Note_on_c, 1, 71, 62
3, 308160, Note_on_c, 1, 68, 62
3, 308160, Note_on_c, 1, 64, 62
3, 308348, Note_off_c, 1, 71, 64
3, 308348, Note_off_c, 1, 68, 64
3, 308348, Note_off_c, 1, 64, 64
3, 308352, Note_on_c, 1, 72, 90
3, 308352, Note_on_c, 1, 69, 90
3, 308352, Note_on_c, 1, 63, 90
3, 308540, Note_off_c, 1, 72, 64
3, 308540, Note_off_c, 1, 69, 64
3, 308540, Note_off_c, 1, 63, 64
3, 308544, Note_on_c, 1, 72, 62
3, 308544, Note_on_c, 1, 69, 62
3, 308544, Note_on_c, 1, 63, 62
3, 308732, Note_off_c, 1, 72, 64
3, 308732, Note_off_c, 1, 69, 64
3, 308732, Note_off_c, 1, 63, 64
3, 308736, Note_on_c, 1, 69, 62
3, 308736, Note_on_c, 1, 66, 62
3, 308736, Note_on_c, 1, 60, 62
3, 308924, Note_off_c, 1, 69, 64
3, 308924, Note_off_c, 1, 66, 64
3, 308924, Note_off_c, 1, 60, 64
3, 308928, Note_on_c, 1, 69, 62
3, 308928, Note_on_c, 1, 66, 62
3, 308928, Note_on_c, 1, 60, 62
3, 309116, Note_off_c, 1, 69, 64
3, 309116, Note_off_c, 1, 66, 64
3, 309116, Note_off_c, 1, 60, 64
3, 309120, Note_on_c, 1, 68, 90
3, 309120, Note_on_c, 1, 64, 90
3, 309120, Note_on_c, 1, 59, 90
3, 309308, Note_off_c, 1, 68, 64
3, 309308, Note_off_c, 1, 64, 64
3, 309308, Note_off_c, 1, 59, 64
3, 309312, Note_on_c, 1, 68, 62
3, 309312, Note_on_c, 1, 64, 62
3, 309312, Note_on_c, 1, 59, 62
3, 309500, Note_off_c, 1, 68, 64
3, 309500, Note_off_c, 1, 64, 64
3, 309500, Note_off_c, 1, 59, 64
3, 309504, Note_on_c, 1, 62, 62
3, 309504, Note_on_c, 1, 59, 62
3, 309504, Note_on_c, 1, 56, 62
3, 309692, Note_off_c, 1, 62, 64
3, 309692, Note_off_c, 1, 59, 64
3, 309692, Note_off_c, 1, 56, 64
3, 309696, Note_on_c, 1, 62, 62
3, 309696, Note_on_c, 1, 59, 62
3, 309696, Note_on_c, 1, 56, 62
3, 309884, Note_off_c, 1, 62, 64
3, 309884, Note_off_c, 1, 59, 64
3, 309884, Note_off_c, 1, 56, 64
3, 309888, Note_on_c, 1, 60, 90
3, 309888, Note_on_c, 1, 57, 90
3, 310076, Note_off_c, 1, 60, 64
3, 310076, Note_off_c, 1, 57, 64
3, 310080, Note_on_c, 1, 60, 62
3, 310080, Note_on_c, 1, 57, 62
3, 310268, Note_off_c, 1, 60, 64
3, 310268, Note_off_c, 1, 57, 64
3, 310272, Note_on_c, 1, 60, 62
3, 310272, Note_on_c, 1, 57, 62
3, 310272, Note_on_c, 1, 66, 62
3, 310460, Note_off_c, 1, 60, 64
3, 310460, Note_off_c, 1, 57, 64
3, 310460, Note_off_c, 1, 66, 64
3, 310464, Note_on_c, 1, 60, 62
3, 310464, Note_on_c, 1, 57, 62
3, 310464, Note_on_c, 1, 66, 62
3, 310652, Note_off_c, 1, 60, 64
3, 310652, Note_off_c, 1, 57, 64
3, 310652, Note_off_c, 1, 66, 64
3, 310656, Key_signature, 3, "major"
3, 310656, Note_on_c, 1, 64, 62
3, 310656, Note_on_c, 1, 59, 62
3, 310656, Note_on_c, 1, 56, 62
3, 311224, Note_off_c, 1, 64, 64
3, 311224, Note_off_c, 1, 59, 64
3, 311224, Note_off_c, 1, 56, 64
3, 319680, Note_on_c, 1, 61, 62
3, 319680, Note_on_c, 1, 57, 62
3, 319868, Note_off_c, 1, 61, 64
3, 319868, Note_off_c, 1, 57, 64
3, 319872, Note_on_c, 1, 64, 62
3, 319872, Note_on_c, 1, 61, 62
3, 320060, Note_off_c, 1, 64, 64
3, 320060, Note_off_c, 1, 61, 64
3, 320064, Note_on_c, 1, 69, 62
3, 320064, Note_on_c, 1, 64, 62
3, 320252, Note_off_c, 1, 69, 64
3, 320252, Note_off_c, 1, 64, 64
3, 320256, Note_on_c, 1, 66, 62
3, 320256, Note_on_c, 1, 62, 62
3, 320444, Note_off_c, 1, 66, 64
3, 320444, Note_off_c, 1, 62, 64
3, 320448, Note_on_c, 1, 62, 62
3, 320448, Note_on_c, 1, 59, 62
3, 320636, Note_off_c, 1, 62, 64
3, 320636, Note_off_c, 1, 59, 64
3, 320832, Note_on_c, 1, 61, 62
3, 320832, Note_on_c, 1, 57, 62
3, 321020, Note_off_c, 1, 61, 64
3, 321020, Note_off_c, 1, 57, 64
3, 321024, Note_on_c, 1, 62, 62
3, 321024, Note_on_c, 1, 59, 62
3, 321212, Note_off_c, 1, 62, 64
3, 321212, Note_off_c, 1, 59, 64
3, 321216, Note_on_c, 1, 59, 62
3, 321216, Note_on_c, 1, 56, 62
3, 321392, Note_on_c, 1, 68, 62
3, 321404, Note_off_c, 1, 59, 64
3, 321404, Note_off_c, 1, 56, 64
3, 321408, Note_on_c, 1, 64, 62
3, 321676, Note_off_c, 1, 68, 64
3, 321696, Note_on_c, 1, 69, 62
3, 321788, Note_off_c, 1, 64, 64
3, 321788, Note_off_c, 1, 69, 64
3, 321792, Note_on_c, 1, 71, 62
3, 321792, Note_on_c, 1, 64, 62
3, 321980, Note_off_c, 1, 71, 64
3, 321980, Note_off_c, 1, 64, 64
3, 322176, Note_on_c, 1, 68, 62
3, 322176, Note_on_c, 1, 62, 62
3, 322364, Note_off_c, 1, 68, 64
3, 322364, Note_off_c, 1, 62, 64
3, 322560, Note_on_c, 1, 62, 62
3, 322560, Note_on_c, 1, 59, 62
3, 322748, Note_off_c, 1, 62, 64
3, 322748, Note_off_c, 1, 59, 64
3, 323136, Note_on_c, 1, 61, 62
3, 323136, Note_on_c, 1, 57, 62
3, 323324, Note_off_c, 1, 61, 64
3, 323324, Note_off_c, 1, 57, 64
3, 323328, Note_on_c, 1, 64, 62
3, 323328, Note_on_c, 1, 61, 62
3, 323516, Note_off_c, 1, 64, 64
3, 323516, Note_off_c, 1, 61, 64
3, 323520, Note_on_c, 1, 69, 62
3, 323520, Note_on_c, 1, 64, 62
3, 323708, Note_off_c, 1, 69, 64
3, 323708, Note_off_c, 1, 64, 64
3, 323712, Note_on_c, 1, 64, 62
3, 323712, Note_on_c, 1, 61, 62
3, 323900, Note_off_c, 1, 64, 64
3, 323900, Note_off_c, 1, 61, 64
3, 323904, Note_on_c, 1, 62, 62
3, 323904, Note_on_c, 1, 59, 62
3, 324092, Note_off_c, 1, 62, 64
3, 324092, Note_off_c, 1, 59, 64
3, 324096, Note_on_c, 1, 61, 62
3, 324096, Note_on_c, 1, 57, 62
3, 324284, Note_off_c, 1, 61, 64
3, 324284, Note_off_c, 1, 57, 64
3, 324288, Note_on_c, 1, 73, 62
3, 324288, Note_on_c, 1, 69, 62
3, 324476, Note_off_c, 1, 73, 64
3, 324476, Note_off_c, 1, 69, 64
3, 324480, Note_on_c, 1, 74, 62
3, 324480, Note_on_c, 1, 71, 62
3, 324668, Note_off_c, 1, 74, 64
3, 324668, Note_off_c, 1, 71, 64
3, 324672, Note_on_c, 1, 76, 62
3, 324672, Note_on_c, 1, 73, 62
3, 324860, Note_off_c, 1, 76, 64
3, 324860, Note_off_c, 1, 73, 64
3, 324864, Note_on_c, 1, 78, 62
3, 324864, Note_on_c, 1, 74, 62
3, 325052, Note_off_c, 1, 78, 64
3, 325052, Note_off_c, 1, 74, 64
3, 325056, Note_on_c, 1, 74, 62
3, 325056, Note_on_c, 1, 68, 62
3, 325244, Note_off_c, 1, 74, 64
3, 325244, Note_off_c, 1, 68, 64
3, 325248, Note_on_c, 1, 73, 62
3, 325248, Note_on_c, 1, 69, 62
3, 325436, Note_off_c, 1, 73, 64
3, 325436, Note_off_c, 1, 69, 64
3, 325440, Note_on_c, 1, 69, 62
3, 325440, Note_on_c, 1, 61, 62
3, 325628, Note_off_c, 1, 69, 64
3, 325628, Note_off_c, 1, 61, 64
3, 325632, Note_on_c, 1, 71, 62
3, 325632, Note_on_c, 1, 62, 62
3, 325820, Note_off_c, 1, 71, 64
3, 325820, Note_off_c, 1, 62, 64
3, 325824, Note_on_c, 1, 73, 62
3, 325824, Note_on_c, 1, 64, 62
3, 326012, Note_off_c, 1, 73, 64
3, 326012, Note_off_c, 1, 64, 64
3, 326016, Note_on_c, 1, 74, 62
3, 326016, Note_on_c, 1, 66, 62
3, 326204, Note_off_c, 1, 74, 64
3, 326204, Note_off_c, 1, 66, 64
3, 326208, Note_on_c, 1, 68, 62
3, 326208, Note_on_c, 1, 59, 62
3, 326396, Note_off_c, 1, 68, 64
3, 326396, Note_off_c, 1, 59, 64
3, 326400, Note_on_c, 1, 69, 62
3, 326400, Note_on_c, 1, 57, 62
3, 326588, Note_off_c, 1, 69, 64
3, 326588, Note_off_c, 1, 57, 64
3, 326784, Note_on_c, 1, 69, 62
3, 326784, Note_on_c, 1, 66, 62
3, 326972, Note_off_c, 1, 69, 64
3, 326972, Note_off_c, 1, 66, 64
3, 327168, Note_on_c, 1, 66, 62
3, 327168, Note_on_c, 1, 59, 62
3, 327356, Note_off_c, 1, 66, 64
3, 327356, Note_off_c, 1, 59, 64
3, 327552, Note_on_c, 1, 64, 62
3, 327552, Note_on_c, 1, 59, 62
3, 327648, Note_off_c, 1, 64, 64
3, 327648, Note_off_c, 1, 59, 64
3, 327744, Note_on_c, 1, 66, 62
3, 327840, Note_off_c, 1, 66, 64
3, 327936, Note_on_c, 1, 67, 90
3, 328032, Note_off_c, 1, 67, 64
3, 328128, Note_on_c, 1, 68, 90
3, 328224, Note_off_c, 1, 68, 64
3, 328320, Note_on_c, 1, 73, 90
3, 328604, Note_off_c, 1, 73, 64
3, 328608, Note_on_c, 1, 74, 90
3, 328700, Note_off_c, 1, 74, 64
3, 328704, Note_on_c, 1, 76, 90
3, 329084, Note_off_c, 1, 76, 64
3, 329088, Note_on_c, 1, 73, 90
3, 329468, Note_off_c, 1, 73, 64
3, 329472, Note_on_c, 1, 78, 90
3, 329852, Note_off_c, 1, 78, 64
3, 329856, Note_on_c, 1, 69, 90
3, 329856, Note_on_c, 1, 64, 90
3, 330236, Note_off_c, 1, 69, 64
3, 330236, Note_off_c, 1, 64, 64
3, 330240, Note_on_c, 1, 68, 90
3, 330240, Note_on_c, 1, 62, 90
3, 330620, Note_off_c, 1, 68, 64
3, 330620, Note_off_c, 1, 62, 64
3, 330624, Note_on_c, 1, 71, 90
3, 330908, Note_off_c, 1, 71, 64
3, 330912, Note_on_c, 1, 73, 90
3, 331004, Note_off_c, 1, 73, 64
3, 331008, Note_on_c, 1, 76, 100
3, 331064, Note_off_c, 1, 76, 64
3, 331068, Note_on_c, 1, 74, 90
3, 331068, Note_on_c, 1, 71, 90
3, 331388, Note_off_c, 1, 74, 64
3, 331388, Note_off_c, 1, 71, 64
3, 331392, Note_on_c, 1, 64, 90
3, 331392, Note_on_c, 1, 73, 90
3, 331580, Note_off_c, 1, 73, 64
3, 331584, Note_on_c, 1, 71, 90
3, 331772, Note_off_c, 1, 64, 64
3, 331772, Note_off_c, 1, 71, 64
3, 331776, Note_on_c, 1, 64, 90
3, 331776, Note_on_c, 1, 69, 90
3, 331964, Note_off_c, 1, 69, 64
3, 331968, Note_on_c, 1, 68, 90
3, 332156, Note_off_c, 1, 64, 64
3, 332156, Note_off_c, 1, 68, 64
3, 332160, Note_on_c, 1, 69, 90
3, 332160, Note_on_c, 1, 64, 90
3, 332444, Note_off_c, 1, 69, 64
3, 332444, Note_off_c, 1, 64, 64
3, 332448, Note_on_c, 1, 73, 90
3, 332540, Note_off_c, 1, 73, 64
3, 332544, Note_on_c, 1, 64, 90
3, 332924, Note_off_c, 1, 64, 64
3, 332928, Note_on_c, 1, 81, 90
3, 333212, Note_off_c, 1, 81, 64
3, 333216, Note_on_c, 1, 80, 90
3, 333308, Note_off_c, 1, 80, 64
3, 333312, Note_on_c, 1, 80, 90
3, 333312, Note_on_c, 1, 69, 90
3, 333500, Note_off_c, 1, 80, 64
3, 333504, Note_on_c, 1, 78, 90
3, 333692, Note_off_c, 1, 78, 64
3, 333696, Note_on_c, 1, 78, 90
3, 334076, Note_off_c, 1, 78, 64
3, 334080, Note_on_c, 1, 78, 90
3, 334364, Note_off_c, 1, 78, 64
3, 334368, Note_on_c, 1, 76, 90
3, 334460, Note_off_c, 1, 69, 64
3, 334460, Note_off_c, 1, 76, 64
3, 334464, Note_on_c, 1, 69, 90
3, 334464, Note_on_c, 1, 76, 90
3, 334652, Note_off_c, 1, 76, 64
3, 334656, Note_on_c, 1, 74, 90
3, 334844, Note_off_c, 1, 74, 64
3, 334848, Note_on_c, 1, 74, 90
3, 335228, Note_off_c, 1, 74, 64
3, 335232, Note_on_c, 1, 74, 90
3, 335516, Note_off_c, 1, 74, 64
3, 335520, Note_on_c, 1, 73, 90
3, 335612, Note_off_c, 1, 69, 64
3, 335612, Note_off_c, 1, 73, 64
3, 335616, Note_on_c, 1, 78, 90
3, 335616, Note_on_c, 1, 71, 90
3, 335900, Note_off_c, 1, 78, 64
3, 335900, Note_off_c, 1, 71, 64
3, 335904, Note_on_c, 1, 83, 90
3, 335904, Note_on_c, 1, 74, 90
3, 335996, Note_off_c, 1, 83, 64
3, 335996, Note_off_c, 1, 74, 64
3, 336000, Note_on_c, 1, 81, 90
3, 336000, Note_on_c, 1, 73, 90
3, 336380, Note_off_c, 1, 81, 64
3, 336380, Note_off_c, 1, 73, 64
3, 336384, Note_on_c, 1, 80, 90
3, 336384, Note_on_c, 1, 74, 90
3, 336384, Note_on_c, 1, 71, 90
3, 336764, Note_off_c, 1, 80, 64
3, 336764, Note_off_c, 1, 74, 64
3, 336764, Note_off_c, 1, 71, 64
3, 336768, Note_on_c, 1, 81, 90
3, 336768, Note_on_c, 1, 73, 90
3, 336768, Note_on_c, 1, 69, 90
3, 337148, Note_off_c, 1, 81, 64
3, 337148, Note_off_c, 1, 73, 64
3, 337148, Note_off_c, 1, 69, 64
3, 338112, Note_on_c, 1, 68, 62
3, 338112, Note_on_c, 1, 64, 62
3, 338112, Note_on_c, 1, 62, 62
3, 338112, Note_on_c, 1, 59, 62
3, 338300, Note_off_c, 1, 68, 64
3, 338300, Note_off_c, 1, 64, 64
3, 338300, Note_off_c, 1, 62, 64
3, 338300, Note_off_c, 1, 59, 64
3, 338304, Note_on_c, 1, 68, 62
3, 338304, Note_on_c, 1, 64, 62
3, 338304, Note_on_c, 1, 62, 62
3, 338304, Note_on_c, 1, 59, 62
3, 338492, Note_off_c, 1, 68, 64
3, 338492, Note_off_c, 1, 64, 64
3, 338492, Note_off_c, 1, 62, 64
3, 338492, Note_off_c, 1, 59, 64
3, 338496, Note_on_c, 1, 68, 62
3, 338496, Note_on_c, 1, 64, 62
3, 338496, Note_on_c, 1, 62, 62
3, 338496, Note_on_c, 1, 59, 62
3, 338684, Note_off_c, 1, 68, 64
3, 338684, Note_off_c, 1, 64, 64
3, 338684, Note_off_c, 1, 62, 64
3, 338684, Note_off_c, 1, 59, 64
3, 338688, Note_on_c, 1, 68, 62
3, 338688, Note_on_c, 1, 64, 62
3, 338688, Note_on_c, 1, 62, 62
3, 338688, Note_on_c, 1, 59, 62
3, 338876, Note_off_c, 1, 68, 64
3, 338876, Note_off_c, 1, 64, 64
3, 338876, Note_off_c, 1, 62, 64
3, 338876, Note_off_c, 1, 59, 64
3, 338880, Note_on_c, 1, 68, 62
3, 338880, Note_on_c, 1, 64, 62
3, 338880, Note_on_c, 1, 62, 62
3, 338880, Note_on_c, 1, 59, 62
3, 339068, Note_off_c, 1, 68, 64
3, 339068, Note_off_c, 1, 64, 64
3, 339068, Note_off_c, 1, 62, 64
3, 339068, Note_off_c, 1, 59, 64
3, 339264, Note_on_c, 1, 69, 61
3, 339264, Note_on_c, 1, 64, 61
3, 339264, Note_on_c, 1, 61, 61
3, 339264, Note_on_c, 1, 57, 61
3, 339452, Note_off_c, 1, 69, 64
3, 339452, Note_off_c, 1, 64, 64
3, 339452, Note_off_c, 1, 61, 64
3, 339452, Note_off_c, 1, 57, 64
3, 339456, Note_on_c, 1, 69, 61
3, 339456, Note_on_c, 1, 64, 61
3, 339456, Note_on_c, 1, 61, 61
3, 339456, Note_on_c, 1, 57, 61
3, 339644, Note_off_c, 1, 69, 64
3, 339644, Note_off_c, 1, 64, 64
3, 339644, Note_off_c, 1, 61, 64
3, 339644, Note_off_c, 1, 57, 64
3, 339648, Note_on_c, 1, 69, 61
3, 339648, Note_on_c, 1, 64, 61
3, 339648, Note_on_c, 1, 61, 61
3, 339648, Note_on_c, 1, 57, 61
3, 339836, Note_off_c, 1, 69, 64
3, 339836, Note_off_c, 1, 64, 64
3, 339836, Note_off_c, 1, 61, 64
3, 339836, Note_off_c, 1, 57, 64
3, 339840, Note_on_c, 1, 69, 58
3, 339840, Note_on_c, 1, 64, 58
3, 339840, Note_on_c, 1, 61, 58
3, 339840, Note_on_c, 1, 57, 58
3, 340028, Note_off_c, 1, 69, 64
3, 340028, Note_off_c, 1, 64, 64
3, 340028, Note_off_c, 1, 61, 64
3, 340028, Note_off_c, 1, 57, 64
3, 340032, Note_on_c, 1, 69, 58
3, 340032, Note_on_c, 1, 64, 58
3, 340032, Note_on_c, 1, 61, 58
3, 340032, Note_on_c, 1, 57, 58
3, 340220, Note_off_c, 1, 69, 64
3, 340220, Note_off_c, 1, 64, 64
3, 340220, Note_off_c, 1, 61, 64
3, 340220, Note_off_c, 1, 57, 64
3, 340416, Note_on_c, 1, 68, 57
3, 340416, Note_on_c, 1, 64, 57
3, 340416, Note_on_c, 1, 62, 57
3, 340416, Note_on_c, 1, 59, 57
3, 340604, Note_off_c, 1, 68, 64
3, 340604, Note_off_c, 1, 64, 64
3, 340604, Note_off_c, 1, 62, 64
3, 340604, Note_off_c, 1, 59, 64
3, 340608, Note_on_c, 1, 68, 55
3, 340608, Note_on_c, 1, 64, 55
3, 340608, Note_on_c, 1, 64, 55
3, 340608, Note_on_c, 1, 62, 55
3, 340608, Note_on_c, 1, 59, 55
3, 340796, Note_off_c, 1, 68, 64
3, 340796, Note_off_c, 1, 64, 64
3, 340796, Note_off_c, 1, 64, 64
3, 340796, Note_off_c, 1, 62, 64
3, 340796, Note_off_c, 1, 59, 64
3, 340800, Note_on_c, 1, 68, 55
3, 340800, Note_on_c, 1, 64, 55
3, 340800, Note_on_c, 1, 62, 55
3, 340800, Note_on_c, 1, 59, 55
3, 340988, Note_off_c, 1, 68, 64
3, 340988, Note_off_c, 1, 64, 64
3, 340988, Note_off_c, 1, 62, 64
3, 340988, Note_off_c, 1, 59, 64
3, 340992, Note_on_c, 1, 68, 55
3, 340992, Note_on_c, 1, 64, 55
3, 340992, Note_on_c, 1, 62, 55
3, 340992, Note_on_c, 1, 59, 55
3, 341180, Note_off_c, 1, 68, 64
3, 341180, Note_off_c, 1, 64, 64
3, 341180, Note_off_c, 1, 62, 64
3, 341180, Note_off_c, 1, 59, 64
3, 341184, Note_on_c, 1, 68, 54
3, 341184, Note_on_c, 1, 64, 54
3, 341184, Note_on_c, 1, 62, 54
3, 341184, Note_on_c, 1, 59, 54
3, 341372, Note_off_c, 1, 68, 64
3, 341372, Note_off_c, 1, 64, 64
3, 341372, Note_off_c, 1, 62, 64
3, 341372, Note_off_c, 1, 59, 64
3, 341568, Note_on_c, 1, 69, 54
3, 341568, Note_on_c, 1, 64, 54
3, 341568, Note_on_c, 1, 61, 54
3, 341568, Note_on_c, 1, 57, 54
3, 341756, Note_off_c, 1, 69, 64
3, 341756, Note_off_c, 1, 64, 64
3, 341756, Note_off_c, 1, 61, 64
3, 341756, Note_off_c, 1, 57, 64
3, 341760, Note_on_c, 1, 69, 54
3, 341760, Note_on_c, 1, 64, 54
3, 341760, Note_on_c, 1, 61, 54
3, 341760, Note_on_c, 1, 57, 54
3, 341948, Note_off_c, 1, 69, 64
3, 341948, Note_off_c, 1, 64, 64
3, 341948, Note_off_c, 1, 61, 64
3, 341948, Note_off_c, 1, 57, 64
3, 341952, Note_on_c, 1, 69, 54
3, 341952, Note_on_c, 1, 64, 54
3, 341952, Note_on_c, 1, 61, 54
3, 341952, Note_on_c, 1, 57, 54
3, 342140, Note_off_c, 1, 69, 64
3, 342140, Note_off_c, 1, 64, 64
3, 342140, Note_off_c, 1, 61, 64
3, 342140, Note_off_c, 1, 57, 64
3, 342144, Note_on_c, 1, 69, 54
3, 342144, Note_on_c, 1, 64, 54
3, 342144, Note_on_c, 1, 61, 54
3, 342144, Note_on_c, 1, 57, 54
3, 342332, Note_off_c, 1, 69, 64
3, 342332, Note_off_c, 1, 64, 64
3, 342332, Note_off_c, 1, 61, 64
3, 342332, Note_off_c, 1, 57, 64
3, 342336, Note_on_c, 1, 69, 54
3, 342336, Note_on_c, 1, 64, 54
3, 342336, Note_on_c, 1, 61, 54
3, 342336, Note_on_c, 1, 57, 54
3, 342524, Note_off_c, 1, 69, 64
3, 342524, Note_off_c, 1, 64, 64
3, 342524, Note_off_c, 1, 61, 64
3, 342524, Note_off_c, 1, 57, 64
3, 342720, Note_on_c, 1, 69, 54
3, 342720, Note_on_c, 1, 64, 54
3, 342720, Note_on_c, 1, 61, 54
3, 342720, Note_on_c, 1, 57, 54
3, 342908, Note_off_c, 1, 69, 64
3, 342908, Note_off_c, 1, 64, 64
3, 342908, Note_off_c, 1, 61, 64
3, 342908, Note_off_c, 1, 57, 64
3, 342912, Note_on_c, 1, 69, 54
3, 342912, Note_on_c, 1, 64, 54
3, 342912, Note_on_c, 1, 61, 54
3, 342912, Note_on_c, 1, 57, 54
3, 343100, Note_off_c, 1, 69, 64
3, 343100, Note_off_c, 1, 64, 64
3, 343100, Note_off_c, 1, 61, 64
3, 343100, Note_off_c, 1, 57, 64
3, 343104, Note_on_c, 1, 69, 54
3, 343104, Note_on_c, 1, 64, 54
3, 343104, Note_on_c, 1, 61, 54
3, 343104, Note_on_c, 1, 57, 54
3, 343292, Note_off_c, 1, 69, 64
3, 343292, Note_off_c, 1, 64, 64
3, 343292, Note_off_c, 1, 61, 64
3, 343292, Note_off_c, 1, 57, 64
3, 343296, Note_on_c, 1, 69, 54
3, 343296, Note_on_c, 1, 64, 54
3, 343296, Note_on_c, 1, 61, 54
3, 343296, Note_on_c, 1, 57, 54
3, 343484, Note_off_c, 1, 69, 64
3, 343484, Note_off_c, 1, 64, 64
3, 343484, Note_off_c, 1, 61, 64
3, 343484, Note_off_c, 1, 57, 64
3, 343488, Note_on_c, 1, 69, 54
3, 343488, Note_on_c, 1, 64, 54
3, 343488, Note_on_c, 1, 61, 54
3, 343488, Note_on_c, 1, 57, 54
3, 343676, Note_off_c, 1, 69, 64
3, 343676, Note_off_c, 1, 64, 64
3, 343676, Note_off_c, 1, 61, 64
3, 343676, Note_off_c, 1, 57, 64
3, 343680, Note_on_c, 1, 69, 54
3, 343680, Note_on_c, 1, 64, 54
3, 343680, Note_on_c, 1, 61, 54
3, 343680, Note_on_c, 1, 57, 54
3, 344060, Note_off_c, 1, 69, 64
3, 344060, Note_off_c, 1, 64, 64
3, 344060, Note_off_c, 1, 61, 64
3, 344060, Note_off_c, 1, 57, 64
3, 345024, Note_on_c, 1, 73, 54
3, 345024, Note_on_c, 1, 69, 54
3, 345024, Note_on_c, 1, 64, 54
3, 345212, Note_off_c, 1, 73, 64
3, 345212, Note_off_c, 1, 69, 64
3, 345212, Note_off_c, 1, 64, 64
3, 345216, Note_on_c, 1, 73, 54
3, 345216, Note_on_c, 1, 69, 54
3, 345216, Note_on_c, 1, 64, 54
3, 345404, Note_off_c, 1, 73, 64
3, 345404, Note_off_c, 1, 69, 64
3, 345404, Note_off_c, 1, 64, 64
3, 345408, Note_on_c, 1, 73, 54
3, 345408, Note_on_c, 1, 69, 54
3, 345408, Note_on_c, 1, 64, 54
3, 345596, Note_off_c, 1, 73, 64
3, 345596, Note_off_c, 1, 69, 64
3, 345596, Note_off_c, 1, 64, 64
3, 345600, Note_on_c, 1, 73, 54
3, 345600, Note_on_c, 1, 69, 54
3, 345600, Note_on_c, 1, 64, 54
3, 345788, Note_off_c, 1, 73, 64
3, 345788, Note_off_c, 1, 69, 64
3, 345788, Note_off_c, 1, 64, 64
3, 345792, Note_on_c, 1, 73, 54
3, 345792, Note_on_c, 1, 69, 54
3, 345792, Note_on_c, 1, 64, 54
3, 345980, Note_off_c, 1, 73, 64
3, 345980, Note_off_c, 1, 69, 64
3, 345980, Note_off_c, 1, 64, 64
3, 346176, Note_on_c, 1, 74, 54
3, 346176, Note_on_c, 1, 69, 54
3, 346176, Note_on_c, 1, 62, 54
3, 346364, Note_off_c, 1, 74, 64
3, 346364, Note_off_c, 1, 69, 64
3, 346364, Note_off_c, 1, 62, 64
3, 346368, Note_on_c, 1, 74, 54
3, 346368, Note_on_c, 1, 69, 54
3, 346368, Note_on_c, 1, 62, 54
3, 346556, Note_off_c, 1, 74, 64
3, 346556, Note_off_c, 1, 69, 64
3, 346556, Note_off_c, 1, 62, 64
3, 346560, Note_on_c, 1, 74, 54
3, 346560, Note_on_c, 1, 69, 54
3, 346560, Note_on_c, 1, 62, 54
3, 346748, Note_off_c, 1, 74, 64
3, 346748, Note_off_c, 1, 69, 64
3, 346748, Note_off_c, 1, 62, 64
3, 346752, Note_on_c, 1, 74, 54
3, 346752, Note_on_c, 1, 69, 54
3, 346752, Note_on_c, 1, 62, 54
3, 346940, Note_off_c, 1, 74, 64
3, 346940, Note_off_c, 1, 69, 64
3, 346940, Note_off_c, 1, 62, 64
3, 346944, Note_on_c, 1, 74, 54
3, 346944, Note_on_c, 1, 69, 54
3, 346944, Note_on_c, 1, 62, 54
3, 347132, Note_off_c, 1, 74, 64
3, 347132, Note_off_c, 1, 69, 64
3, 347132, Note_off_c, 1, 62, 64
3, 347328, Note_on_c, 1, 67, 54
3, 347328, Note_on_c, 1, 64, 54
3, 347328, Note_on_c, 1, 57, 54
3, 347516, Note_off_c, 1, 67, 64
3, 347516, Note_off_c, 1, 64, 64
3, 347516, Note_off_c, 1, 57, 64
3, 347520, Note_on_c, 1, 67, 54
3, 347520, Note_on_c, 1, 64, 54
3, 347520, Note_on_c, 1, 57, 54
3, 347708, Note_off_c, 1, 67, 64
3, 347708, Note_off_c, 1, 64, 64
3, 347708, Note_off_c, 1, 57, 64
3, 347712, Note_on_c, 1, 67, 54
3, 347712, Note_on_c, 1, 64, 54
3, 347712, Note_on_c, 1, 57, 54
3, 347900, Note_off_c, 1, 67, 64
3, 347900, Note_off_c, 1, 64, 64
3, 347900, Note_off_c, 1, 57, 64
3, 347904, Note_on_c, 1, 67, 54
3, 347904, Note_on_c, 1, 64, 54
3, 347904, Note_on_c, 1, 57, 54
3, 348092, Note_off_c, 1, 67, 64
3, 348092, Note_off_c, 1, 64, 64
3, 348092, Note_off_c, 1, 57, 64
3, 348096, Note_on_c, 1, 67, 54
3, 348096, Note_on_c, 1, 64, 54
3, 348096, Note_on_c, 1, 57, 54
3, 348284, Note_off_c, 1, 67, 64
3, 348284, Note_off_c, 1, 64, 64
3, 348284, Note_off_c, 1, 57, 64
3, 348480, Note_on_c, 1, 66, 54
3, 348480, Note_on_c, 1, 62, 54
3, 348480, Note_on_c, 1, 57, 54
3, 348668, Note_off_c, 1, 66, 64
3, 348668, Note_off_c, 1, 62, 64
3, 348668, Note_off_c, 1, 57, 64
3, 348672, Note_on_c, 1, 61, 54
3, 348672, Note_on_c, 1, 57, 54
3, 348672, Note_on_c, 1, 55, 54
3, 348860, Note_off_c, 1, 61, 64
3, 348860, Note_off_c, 1, 57, 64
3, 348860, Note_off_c, 1, 55, 64
3, 348864, Note_on_c, 1, 62, 54
3, 348864, Note_on_c, 1, 57, 54
3, 348864, Note_on_c, 1, 54, 54
3, 349052, Note_off_c, 1, 62, 64
3, 349052, Note_off_c, 1, 57, 64
3, 349052, Note_off_c, 1, 54, 64
3, 349056, Note_on_c, 1, 62, 54
3, 349056, Note_on_c, 1, 57, 54
3, 349056, Note_on_c, 1, 54, 54
3, 349244, Note_off_c, 1, 62, 64
3, 349244, Note_off_c, 1, 57, 64
3, 349244, Note_off_c, 1, 54, 64
3, 349248, Note_on_c, 1, 62, 54
3, 349248, Note_on_c, 1, 57, 54
3, 349248, Note_on_c, 1, 54, 54
3, 349436, Note_off_c, 1, 62, 64
3, 349436, Note_off_c, 1, 57, 64
3, 349436, Note_off_c, 1, 54, 64
3, 349632, Note_on_c, 1, 69, 58
3, 349632, Note_on_c, 1, 66, 58
3, 349632, Note_on_c, 1, 62, 58
3, 349820, Note_off_c, 1, 69, 64
3, 349820, Note_off_c, 1, 66, 64
3, 349820, Note_off_c, 1, 62, 64
3, 349824, Note_on_c, 1, 69, 62
3, 349824, Note_on_c, 1, 66, 62
3, 349824, Note_on_c, 1, 74, 62
3, 350012, Note_off_c, 1, 69, 64
3, 350012, Note_off_c, 1, 66, 64
3, 350012, Note_off_c, 1, 74, 64
3, 350016, Note_on_c, 1, 71, 67
3, 350016, Note_on_c, 1, 68, 67
3, 350016, Note_on_c, 1, 64, 67
3, 350204, Note_off_c, 1, 71, 64
3, 350204, Note_off_c, 1, 68, 64
3, 350204, Note_off_c, 1, 64, 64
3, 350208, Note_on_c, 1, 76, 73
3, 350208, Note_on_c, 1, 69, 73
3, 350208, Note_on_c, 1, 64, 73
3, 350396, Note_off_c, 1, 76, 64
3, 350396, Note_off_c, 1, 69, 64
3, 350396, Note_off_c, 1, 64, 64
3, 350400, Note_on_c, 1, 76, 75
3, 350400, Note_on_c, 1, 68, 75
3, 350400, Note_on_c, 1, 64, 75
3, 350588, Note_off_c, 1, 76, 64
3, 350588, Note_off_c, 1, 68, 64
3, 350588, Note_off_c, 1, 64, 64
3, 350592, Note_on_c, 1, 78, 81
3, 350592, Note_on_c, 1, 69, 81
3, 350780, Note_off_c, 1, 78, 64
3, 350784, Note_on_c, 1, 76, 81
3, 350972, Note_off_c, 1, 69, 64
3, 350972, Note_off_c, 1, 76, 64
3, 350976, Note_on_c, 1, 74, 81
3, 351164, Note_off_c, 1, 74, 64
3, 351168, Note_on_c, 1, 73, 81
3, 351356, Note_off_c, 1, 73, 64
3, 351360, Note_on_c, 1, 74, 81
3, 351360, Note_on_c, 1, 69, 81
3, 351548, Note_off_c, 1, 74, 64
3, 351552, Note_on_c, 1, 73, 81
3, 351740, Note_off_c, 1, 69, 64
3, 351740, Note_off_c, 1, 73, 64
3, 351744, Note_on_c, 1, 71, 81
3, 351932, Note_off_c, 1, 71, 64
3, 351936, Note_on_c, 1, 69, 81
3, 352124, Note_off_c, 1, 69, 64
3, 352128, Note_on_c, 1, 76, 81
3, 352316, Note_off_c, 1, 76, 64
3, 352320, Note_on_c, 1, 74, 81
3, 352508, Note_off_c, 1, 74, 64
3, 352512, Note_on_c, 1, 73, 81
3, 352512, Note_on_c, 1, 66, 81
3, 352700, Note_off_c, 1, 73, 64
3, 352704, Note_on_c, 1, 71, 81
3, 352892, Note_off_c, 1, 66, 64
3, 352892, Note_off_c, 1, 71, 64
3, 352896, Note_on_c, 1, 69, 81
3, 352896, Note_on_c, 1, 64, 81
3, 353276, Note_off_c, 1, 69, 64
3, 353280, Note_on_c, 1, 68, 81
3, 353660, Note_off_c, 1, 64, 64
3, 353660, Note_off_c, 1, 68, 64
3, 353664, Note_on_c, 1, 76, 90
3, 353756, Note_off_c, 1, 76, 64
3, 353760, Note_on_c, 1, 75, 90
3, 353852, Note_off_c, 1, 75, 64
3, 353856, Note_on_c, 1, 76, 90
3, 353948, Note_off_c, 1, 76, 64
3, 353952, Note_on_c, 1, 75, 90
3, 354044, Note_off_c, 1, 75, 64
3, 354048, Note_on_c, 1, 76, 90
3, 354240, Note_off_c, 1, 76, 64
3, 354432, Note_on_c, 1, 64, 90
3, 354624, Note_off_c, 1, 64, 64
3, 355392, Note_on_c, 1, 73, 73
3, 355772, Note_off_c, 1, 73, 64
3, 355776, Note_on_c, 1, 71, 73
3, 355964, Note_off_c, 1, 71, 64
3, 355968, Note_on_c, 1, 70, 73
3, 356060, Note_off_c, 1, 70, 64
3, 356064, Note_on_c, 1, 68, 73
3, 356156, Note_off_c, 1, 68, 64
3, 356160, Note_on_c, 1, 70, 73
3, 356252, Note_off_c, 1, 70, 64
3, 356256, Note_on_c, 1, 66, 73
3, 356348, Note_off_c, 1, 66, 64
3, 356352, Note_on_c, 1, 71, 73
3, 356448, Note_off_c, 1, 71, 64
3, 356528, Note_on_c, 1, 71, 73
3, 356908, Note_off_c, 1, 71, 64
3, 356928, Note_on_c, 1, 69, 73
3, 357116, Note_off_c, 1, 69, 64
3, 357120, Note_on_c, 1, 68, 73
3, 357212, Note_off_c, 1, 68, 64
3, 357216, Note_on_c, 1, 66, 73
3, 357308, Note_off_c, 1, 66, 64
3, 357312, Note_on_c, 1, 68, 73
3, 357404, Note_off_c, 1, 68, 64
3, 357408, Note_on_c, 1, 64, 73
3, 357500, Note_off_c, 1, 64, 64
3, 357504, Note_on_c, 1, 69, 73
3, 357600, Note_off_c, 1, 69, 64
3, 357888, Note_on_c, 1, 62, 73
3, 357888, Note_on_c, 1, 57, 73
3, 358076, Note_off_c, 1, 62, 64
3, 358076, Note_off_c, 1, 57, 64
3, 358272, Note_on_c, 1, 66, 73
3, 358272, Note_on_c, 1, 59, 73
3, 358460, Note_off_c, 1, 66, 64
3, 358460, Note_off_c, 1, 59, 64
3, 358656, Note_on_c, 1, 64, 73
3, 358656, Note_on_c, 1, 59, 73
3, 359036, Note_off_c, 1, 64, 64
3, 359036, Note_off_c, 1, 59, 64
3, 359040, Note_on_c, 1, 59, 73
3, 359040, Note_on_c, 1, 56, 73
3, 359420, Note_off_c, 1, 59, 64
3, 359420, Note_off_c, 1, 56, 64
3, 359808, Note_on_c, 1, 73, 73
3, 359900, Note_off_c, 1, 73, 64
3, 359904, Note_on_c, 1, 71, 73
3, 359996, Note_off_c, 1, 71, 64
3, 360000, Note_on_c, 1, 73, 73
3, 360092, Note_off_c, 1, 73, 64
3, 360096, Note_on_c, 1, 69, 73
3, 360188, Note_off_c, 1, 69, 64
3, 360192, Note_on_c, 1, 74, 73
3, 360284, Note_off_c, 1, 74, 64
3, 360288, Note_on_c, 1, 73, 73
3, 360380, Note_off_c, 1, 73, 64
3, 360384, Note_on_c, 1, 74, 73
3, 360476, Note_off_c, 1, 74, 64
3, 360480, Note_on_c, 1, 69, 73
3, 360572, Note_off_c, 1, 69, 64
3, 360576, Note_on_c, 1, 74, 73
3, 360576, Note_on_c, 1, 81, 73
3, 360668, Note_off_c, 1, 74, 64
3, 360672, Note_on_c, 1, 69, 73
3, 360764, Note_off_c, 1, 69, 64
3, 360768, Note_on_c, 1, 73, 73
3, 360860, Note_off_c, 1, 73, 64
3, 360864, Note_on_c, 1, 69, 73
3, 360956, Note_off_c, 1, 81, 64
3, 360956, Note_off_c, 1, 69, 64
3, 360960, Note_on_c, 1, 80, 73
3, 360960, Note_on_c, 1, 71, 73
3, 360960, Note_on_c, 1, 64, 73
3, 361052, Note_off_c, 1, 71, 64
3, 361052, Note_off_c, 1, 64, 64
3, 361056, Note_on_c, 1, 69, 73
3, 361148, Note_off_c, 1, 69, 64
3, 361152, Note_on_c, 1, 71, 73
3, 361244, Note_off_c, 1, 71, 64
3, 361248, Note_on_c, 1, 68, 73
3, 361340, Note_off_c, 1, 80, 64
3, 361340, Note_off_c, 1, 68, 64
3, 361344, Note_on_c, 1, 73, 73
3, 361436, Note_off_c, 1, 73, 64
3, 361440, Note_on_c, 1, 71, 73
3, 361532, Note_off_c, 1, 71, 64
3, 361536, Note_on_c, 1, 73, 73
3, 361628, Note_off_c, 1, 73, 64
3, 361632, Note_on_c, 1, 64, 73
3, 361724, Note_off_c, 1, 64, 64
3, 361728, Note_on_c, 1, 73, 73
3, 361728, Note_on_c, 1, 68, 73
3, 361820, Note_off_c, 1, 73, 64
3, 361820, Note_off_c, 1, 68, 64
3, 361824, Note_on_c, 1, 64, 73
3, 361916, Note_off_c, 1, 64, 64
3, 361920, Note_on_c, 1, 71, 73
3, 361920, Note_on_c, 1, 68, 73
3, 362012, Note_off_c, 1, 71, 64
3, 362012, Note_off_c, 1, 68, 64
3, 362016, Note_on_c, 1, 64, 73
3, 362108, Note_off_c, 1, 64, 64
3, 362112, Note_on_c, 1, 69, 73
3, 362112, Note_on_c, 1, 64, 73
3, 362492, Note_off_c, 1, 69, 64
3, 362492, Note_off_c, 1, 64, 64
3, 362496, Note_on_c, 1, 73, 73
3, 362496, Note_on_c, 1, 69, 73
3, 362876, Note_off_c, 1, 73, 64
3, 362880, Note_on_c, 1, 81, 73
3, 363068, Note_off_c, 1, 69, 64
3, 363072, Note_on_c, 1, 78, 73
3, 363260, Note_off_c, 1, 81, 64
3, 363260, Note_off_c, 1, 78, 64
3, 363264, Note_on_c, 1, 81, 73
3, 363264, Note_on_c, 1, 78, 73
3, 363644, Note_off_c, 1, 81, 64
3, 363644, Note_off_c, 1, 78, 64
3, 363648, Note_on_c, 1, 80, 73
3, 363648, Note_on_c, 1, 76, 73
3, 364028, Note_off_c, 1, 80, 64
3, 364028, Note_off_c, 1, 76, 64
3, 364416, Note_on_c, 1, 73, 81
3, 364416, Note_on_c, 1, 69, 81
3, 364416, Note_on_c, 1, 64, 81
3, 364796, Note_off_c, 1, 73, 64
3, 364796, Note_off_c, 1, 69, 64
3, 364796, Note_off_c, 1, 64, 64
3, 364992, Note_on_c, 1, 64, 81
3, 364992, Note_on_c, 1, 61, 81
3, 365088, Note_off_c, 1, 64, 64
3, 365088, Note_off_c, 1, 61, 64
3, 365184, Note_on_c, 1, 69, 81
3, 365184, Note_on_c, 1, 64, 81
3, 365280, Note_off_c, 1, 69, 64
3, 365280, Note_off_c, 1, 64, 64
3, 365376, Note_on_c, 1, 73, 81
3, 365376, Note_on_c, 1, 69, 81
3, 365376, Note_on_c, 1, 64, 81
3, 365472, Note_off_c, 1, 73, 64
3, 365472, Note_off_c, 1, 69, 64
3, 365472, Note_off_c, 1, 64, 64
3, 365568, Note_on_c, 1, 74, 81
3, 365568, Note_on_c, 1, 71, 81
3, 365568, Note_on_c, 1, 64, 81
3, 365664, Note_off_c, 1, 74, 64
3, 365664, Note_off_c, 1, 71, 64
3, 365664, Note_off_c, 1, 64, 64
3, 365952, Note_on_c, 1, 68, 81
3, 365952, Note_on_c, 1, 64, 81
3, 366048, Note_off_c, 1, 68, 64
3, 366048, Note_off_c, 1, 64, 64
3, 366336, Note_on_c, 1, 71, 81
3, 366336, Note_on_c, 1, 68, 81
3, 366336, Note_on_c, 1, 64, 81
3, 366432, Note_off_c, 1, 71, 64
3, 366432, Note_off_c, 1, 68, 64
3, 366432, Note_off_c, 1, 64, 64
3, 366720, Note_on_c, 1, 73, 81
3, 366720, Note_on_c, 1, 69, 81
3, 366720, Note_on_c, 1, 64, 81
3, 366912, Note_off_c, 1, 73, 64
3, 366912, Note_off_c, 1, 69, 64
3, 366912, Note_off_c, 1, 64, 64
3, 367296, Note_on_c, 1, 64, 81
3, 367296, Note_on_c, 1, 61, 81
3, 367392, Note_off_c, 1, 64, 64
3, 367392, Note_off_c, 1, 61, 64
3, 367488, Note_on_c, 1, 64, 81
3, 367488, Note_on_c, 1, 61, 81
3, 367584, Note_off_c, 1, 64, 64
3, 367584, Note_off_c, 1, 61, 64
3, 367680, Note_on_c, 1, 64, 81
3, 367680, Note_on_c, 1, 61, 81
3, 367776, Note_off_c, 1, 64, 64
3, 367776, Note_off_c, 1, 61, 64
3, 367872, Note_on_c, 1, 64, 81
3, 367872, Note_on_c, 1, 62, 81
3, 367872, Note_on_c, 1, 59, 81
3, 367968, Note_off_c, 1, 64, 64
3, 367968, Note_off_c, 1, 62, 64
3, 367968, Note_off_c, 1, 59, 64
3, 368256, Note_on_c, 1, 59, 81
3, 368256, Note_on_c, 1, 56, 81
3, 368352, Note_off_c, 1, 59, 64
3, 368352, Note_off_c, 1, 56, 64
3, 368640, Note_on_c, 1, 62, 81
3, 368640, Note_on_c, 1, 59, 81
3, 368736, Note_off_c, 1, 62, 64
3, 368736, Note_off_c, 1, 59, 64
3, 369024, Note_on_c, 1, 69, 81
3, 369024, Note_on_c, 1, 61, 81
3, 369404, Note_off_c, 1, 69, 64
3, 369404, Note_off_c, 1, 61, 64
3, 369408, Note_on_c, 1, 68, 81
3, 369408, Note_on_c, 1, 62, 81
3, 369788, Note_off_c, 1, 68, 64
3, 369788, Note_off_c, 1, 62, 64
3, 369792, Note_on_c, 1, 67, 81
3, 369792, Note_on_c, 1, 64, 81
3, 370172, Note_off_c, 1, 67, 64
3, 370172, Note_off_c, 1, 64, 64
3, 370176, Note_on_c, 1, 64, 81
3, 370176, Note_on_c, 1, 57, 81
3, 370556, Note_off_c, 1, 64, 64
3, 370556, Note_off_c, 1, 57, 64
3, 370560, Note_on_c, 1, 68, 81
3, 370560, Note_on_c, 1, 59, 81
3, 370940, Note_off_c, 1, 68, 64
3, 370940, Note_off_c, 1, 59, 64
3, 370944, Note_on_c, 1, 69, 81
3, 370944, Note_on_c, 1, 61, 81
3, 371324, Note_off_c, 1, 69, 64
3, 371324, Note_off_c, 1, 61, 64
3, 371328, Note_on_c, 1, 66, 81
3, 371328, Note_on_c, 1, 62, 81
3, 371424, Note_off_c, 1, 66, 64
3, 371424, Note_off_c, 1, 62, 64
3, 371520, Note_on_c, 1, 66, 81
3, 371520, Note_on_c, 1, 62, 81
3, 371616, Note_off_c, 1, 66, 64
3, 371616, Note_off_c, 1, 62, 64
3, 371712, Note_on_c, 1, 64, 81
3, 371712, Note_on_c, 1, 61, 81
3, 371808, Note_off_c, 1, 64, 64
3, 371808, Note_off_c, 1, 61, 64
3, 371904, Note_on_c, 1, 64, 81
3, 371904, Note_on_c, 1, 61, 81
3, 372000, Note_off_c, 1, 64, 64
3, 372000, Note_off_c, 1, 61, 64
3, 372096, Note_on_c, 1, 62, 81
3, 372096, Note_on_c, 1, 59, 81
3, 372284, Note_off_c, 1, 62, 64
3, 372284, Note_off_c, 1, 59, 64
3, 372288, Note_on_c, 1, 71, 81
3, 372288, Note_on_c, 1, 62, 81
3, 372476, Note_off_c, 1, 71, 64
3, 372476, Note_off_c, 1, 62, 64
3, 372480, Note_on_c, 1, 81, 81
3, 372480, Note_on_c, 1, 69, 81
3, 372860, Note_off_c, 1, 81, 64
3, 372860, Note_off_c, 1, 69, 64
3, 372864, Note_on_c, 1, 80, 81
3, 372864, Note_on_c, 1, 68, 81
3, 373244, Note_off_c, 1, 80, 64
3, 373244, Note_off_c, 1, 68, 64
3, 373248, Note_on_c, 1, 79, 81
3, 373248, Note_on_c, 1, 67, 81
3, 373628, Note_off_c, 1, 79, 64
3, 373628, Note_off_c, 1, 67, 64
3, 373632, Note_on_c, 1, 78, 81
3, 373632, Note_on_c, 1, 66, 81
3, 374012, Note_off_c, 1, 78, 64
3, 374012, Note_off_c, 1, 66, 64
3, 374016, Note_on_c, 1, 80, 81
3, 374016, Note_on_c, 1, 68, 81
3, 374396, Note_off_c, 1, 80, 64
3, 374396, Note_off_c, 1, 68, 64
3, 374400, Note_on_c, 1, 81, 81
3, 374400, Note_on_c, 1, 69, 81
3, 374780, Note_off_c, 1, 81, 64
3, 374780, Note_off_c, 1, 69, 64
3, 374784, Note_on_c, 1, 81, 54
3, 374784, Note_on_c, 1, 78, 54
3, 375164, Note_off_c, 1, 81, 64
3, 375164, Note_off_c, 1, 78, 64
3, 375168, Note_on_c, 1, 83, 54
3, 375168, Note_on_c, 1, 80, 54
3, 375548, Note_off_c, 1, 83, 64
3, 375548, Note_off_c, 1, 80, 64
3, 375552, Note_on_c, 1, 85, 54
3, 375552, Note_on_c, 1, 81, 54
3, 375740, Note_off_c, 1, 85, 64
3, 375740, Note_off_c, 1, 81, 64
3, 375936, Note_on_c, 1, 78, 81
3, 375936, Note_on_c, 1, 74, 81
3, 376032, Note_off_c, 1, 78, 64
3, 376032, Note_off_c, 1, 74, 64
3, 376128, Note_on_c, 1, 78, 81
3, 376128, Note_on_c, 1, 74, 81
3, 376224, Note_off_c, 1, 78, 64
3, 376224, Note_off_c, 1, 74, 64
3, 376320, Note_on_c, 1, 76, 81
3, 376320, Note_on_c, 1, 73, 81
3, 376416, Note_off_c, 1, 76, 64
3, 376416, Note_off_c, 1, 73, 64
3, 376512, Note_on_c, 1, 76, 81
3, 376512, Note_on_c, 1, 73, 81
3, 376608, Note_off_c, 1, 76, 64
3, 376608, Note_off_c, 1, 73, 64
3, 376704, Note_on_c, 1, 74, 81
3, 376704, Note_on_c, 1, 71, 81
3, 376800, Note_off_c, 1, 74, 64
3, 376800, Note_off_c, 1, 71, 64
3, 376896, Note_on_c, 1, 74, 81
3, 376896, Note_on_c, 1, 71, 81
3, 376992, Note_off_c, 1, 74, 64
3, 376992, Note_off_c, 1, 71, 64
3, 377088, Note_on_c, 1, 73, 81
3, 377088, Note_on_c, 1, 69, 81
3, 377468, Note_off_c, 1, 73, 64
3, 377472, Note_on_c, 1, 76, 81
3, 377852, Note_off_c, 1, 69, 64
3, 377852, Note_off_c, 1, 76, 64
3, 378624, Note_on_c, 1, 71, 62
3, 378624, Note_on_c, 1, 66, 62
3, 378624, Note_on_c, 1, 62, 62
3, 378816, Note_off_c, 1, 71, 64
3, 378816, Note_off_c, 1, 66, 64
3, 378816, Note_off_c, 1, 62, 64
3, 379776, Note_on_c, 1, 68, 62
3, 379776, Note_on_c, 1, 62, 62
3, 379776, Note_on_c, 1, 59, 62
3, 379968, Note_off_c, 1, 68, 64
3, 379968, Note_off_c, 1, 62, 64
3, 379968, Note_off_c, 1, 59, 64
3, 380928, Note_on_c, 1, 69, 62
3, 380928, Note_on_c, 1, 61, 62
3, 380928, Note_on_c, 1, 57, 62
3, 381120, Note_off_c, 1, 69, 64
3, 381120, Note_off_c, 1, 61, 64
3, 381120, Note_off_c, 1, 57, 64
3, 381696, Note_on_c, 1, 78, 90
3, 381696, Note_on_c, 1, 76, 90
3, 381696, Note_on_c, 1, 73, 90
3, 382076, Note_off_c, 1, 76, 64
3, 382076, Note_off_c, 1, 73, 64
3, 382080, Note_on_c, 1, 74, 90
3, 382080, Note_on_c, 1, 71, 90
3, 382460, Note_off_c, 1, 78, 64
3, 382460, Note_off_c, 1, 74, 64
3, 382460, Note_off_c, 1, 71, 64
3, 382848, Note_on_c, 1, 74, 90
3, 382848, Note_on_c, 1, 71, 90
3, 382848, Note_on_c, 1, 81, 90
3, 383228, Note_off_c, 1, 81, 64
3, 383232, Note_on_c, 1, 80, 90
3, 383612, Note_off_c, 1, 74, 64
3, 383612, Note_off_c, 1, 71, 64
3, 383612, Note_off_c, 1, 80, 64
3, 384384, Note_on_c, 1, 69, 90
3, 384384, Note_on_c, 1, 64, 90
3, 384384, Note_on_c, 1, 61, 90
3, 384764, Note_off_c, 1, 69, 64
3, 384764, Note_off_c, 1, 64, 64
3, 384764, Note_off_c, 1, 61, 64
3, 384768, Note_on_c, 1, 69, 90
3, 384768, Note_on_c, 1, 64, 90
3, 384768, Note_on_c, 1, 61, 90
3, 385148, Note_off_c, 1, 69, 64
3, 385148, Note_off_c, 1, 64, 64
3, 385148, Note_off_c, 1, 61, 64
3, 385152, Note_on_c, 1, 69, 90
3, 385152, Note_on_c, 1, 64, 90
3, 385152, Note_on_c, 1, 61, 90
3, 385916, Note_off_c, 1, 69, 64
3, 385916, Note_off_c, 1, 64, 64
3, 385916, Note_off_c, 1, 61, 64
3, 386304, Note_on_c, 1, 61, 62
3, 386304, Note_on_c, 1, 57, 62
3, 386492, Note_off_c, 1, 61, 64
3, 386492, Note_off_c, 1, 57, 64
3, 386592, Note_on_c, 1, 62, 62
3, 386592, Note_on_c, 1, 59, 62
3, 386684, Note_off_c, 1, 62, 64
3, 386684, Note_off_c, 1, 59, 64
3, 386688, Note_on_c, 1, 64, 62
3, 386688, Note_on_c, 1, 61, 62
3, 387068, Note_off_c, 1, 64, 64
3, 387068, Note_off_c, 1, 61, 64
3, 387456, Note_on_c, 1, 64, 62
3, 387456, Note_on_c, 1, 61, 62
3, 387740, Note_off_c, 1, 64, 64
3, 387740, Note_off_c, 1, 61, 64
3, 387744, Note_on_c, 1, 61, 62
3, 387744, Note_on_c, 1, 57, 62
3, 387836, Note_off_c, 1, 61, 64
3, 387836, Note_off_c, 1, 57, 64
3, 387840, Note_on_c, 1, 62, 62
3, 387840, Note_on_c, 1, 59, 62
3, 388220, Note_off_c, 1, 62, 64
3, 388220, Note_off_c, 1, 59, 64
3, 388608, Note_on_c, 1, 59, 62
3, 388608, Note_on_c, 1, 56, 62
3, 388988, Note_off_c, 1, 59, 64
3, 388988, Note_off_c, 1, 56, 64
3, 388992, Note_on_c, 1, 61, 62
3, 388992, Note_on_c, 1, 57, 62
3, 389372, Note_off_c, 1, 61, 64
3, 389372, Note_off_c, 1, 57, 64
3, 389376, Note_on_c, 1, 62, 62
3, 389376, Note_on_c, 1, 59, 62
3, 389756, Note_off_c, 1, 62, 64
3, 389756, Note_off_c, 1, 59, 64
3, 389760, Note_on_c, 1, 61, 62
3, 389760, Note_on_c, 1, 57, 62
3, 390140, Note_off_c, 1, 61, 64
3, 390140, Note_off_c, 1, 57, 64
3, 390144, Note_on_c, 1, 61, 62
3, 390144, Note_on_c, 1, 64, 62
3, 390428, Note_off_c, 1, 61, 64
3, 390428, Note_off_c, 1, 64, 64
3, 390432, Note_on_c, 1, 61, 62
3, 390432, Note_on_c, 1, 57, 62
3, 390524, Note_off_c, 1, 61, 64
3, 390524, Note_off_c, 1, 57, 64
3, 390528, Note_on_c, 1, 64, 62
3, 390528, Note_on_c, 1, 61, 62
3, 390908, Note_off_c, 1, 64, 64
3, 390908, Note_off_c, 1, 61, 64
3, 390912, Note_on_c, 1, 69, 62
3, 391292, Note_off_c, 1, 69, 64
3, 391680, Note_on_c, 1, 69, 62
3, 391804, Note_off_c, 1, 69, 64
3, 391808, Note_on_c, 1, 69, 62
3, 391932, Note_off_c, 1, 69, 64
3, 391936, Note_on_c, 1, 69, 62
3, 392060, Note_off_c, 1, 69, 64
3, 392064, Note_on_c, 1, 69, 62
3, 392444, Note_off_c, 1, 69, 64
3, 392832, Note_on_c, 1, 76, 62
3, 392956, Note_off_c, 1, 76, 64
3, 392960, Note_on_c, 1, 76, 62
3, 393084, Note_off_c, 1, 76, 64
3, 393088, Note_on_c, 1, 76, 62
3, 393212, Note_off_c, 1, 76, 64
3, 393216, Note_on_c, 1, 76, 62
3, 393596, Note_off_c, 1, 76, 64
3, 393600, Note_on_c, 1, 69, 62
3, 393980, Note_off_c, 1, 69, 64
3, 393984, Note_on_c, 1, 66, 62
3, 393984, Note_on_c, 1, 63, 62
3, 394364, Note_off_c, 1, 66, 64
3, 394364, Note_off_c, 1, 63, 64
3, 394368, Note_on_c, 1, 64, 62
3, 394368, Note_on_c, 1, 59, 62
3, 394748, Note_off_c, 1, 64, 64
3, 394748, Note_off_c, 1, 59, 64
3, 395136, Note_on_c, 1, 73, 90
3, 395136, Note_on_c, 1, 69, 90
3, 395420, Note_off_c, 1, 73, 64
3, 395420, Note_off_c, 1, 69, 64
3, 395424, Note_on_c, 1, 74, 90
3, 395424, Note_on_c, 1, 71, 90
3, 395516, Note_off_c, 1, 74, 64
3, 395516, Note_off_c, 1, 71, 64
3, 395520, Note_on_c, 1, 76, 90
3, 395520, Note_on_c, 1, 73, 90
3, 395900, Note_off_c, 1, 76, 64
3, 395900, Note_off_c, 1, 73, 64
3, 395904, Note_on_c, 1, 73, 90
3, 395904, Note_on_c, 1, 69, 90
3, 396284, Note_off_c, 1, 73, 64
3, 396284, Note_off_c, 1, 69, 64
3, 396288, Note_on_c, 1, 78, 90
3, 396288, Note_on_c, 1, 69, 90
3, 396668, Note_off_c, 1, 78, 64
3, 396668, Note_off_c, 1, 69, 64
3, 396672, Note_on_c, 1, 69, 90
3, 396672, Note_on_c, 1, 61, 90
3, 397052, Note_off_c, 1, 69, 64
3, 397052, Note_off_c, 1, 61, 64
3, 397056, Note_on_c, 1, 68, 90
3, 397056, Note_on_c, 1, 59, 90
3, 397436, Note_off_c, 1, 68, 64
3, 397436, Note_off_c, 1, 59, 64
3, 397440, Note_on_c, 1, 68, 90
3, 397440, Note_on_c, 1, 71, 90
3, 397724, Note_off_c, 1, 68, 64
3, 397724, Note_off_c, 1, 71, 64
3, 397728, Note_on_c, 1, 73, 90
3, 397728, Note_on_c, 1, 69, 90
3, 397820, Note_off_c, 1, 73, 64
3, 397820, Note_off_c, 1, 69, 64
3, 397824, Note_on_c, 1, 76, 90
3, 397880, Note_off_c, 1, 76, 64
3, 397884, Note_on_c, 1, 74, 90
3, 397884, Note_on_c, 1, 68, 90
3, 398200, Note_off_c, 1, 74, 64
3, 398208, Note_on_c, 1, 73, 90
3, 398396, Note_off_c, 1, 73, 64
3, 398400, Note_on_c, 1, 71, 90
3, 398584, Note_off_c, 1, 68, 64
3, 398588, Note_off_c, 1, 71, 64
3, 398592, Note_on_c, 1, 69, 90
3, 398592, Note_on_c, 1, 62, 90
3, 398780, Note_off_c, 1, 69, 64
3, 398784, Note_on_c, 1, 68, 90
3, 398972, Note_off_c, 1, 62, 64
3, 398972, Note_off_c, 1, 68, 64
3, 398976, Note_on_c, 1, 69, 90
3, 398976, Note_on_c, 1, 61, 90
3, 399260, Note_off_c, 1, 69, 64
3, 399260, Note_off_c, 1, 61, 64
3, 399264, Note_on_c, 1, 73, 90
3, 399356, Note_off_c, 1, 73, 64
3, 399360, Note_on_c, 1, 64, 90
3, 399360, Note_on_c, 1, 61, 90
3, 399740, Note_off_c, 1, 64, 64
3, 399740, Note_off_c, 1, 61, 64
3, 399744, Note_on_c, 1, 81, 90
3, 399744, Note_on_c, 1, 73, 90
3, 400028, Note_off_c, 1, 81, 64
3, 400028, Note_off_c, 1, 73, 64
3, 400032, Note_on_c, 1, 80, 90
3, 400032, Note_on_c, 1, 76, 90
3, 400124, Note_off_c, 1, 80, 64
3, 400124, Note_off_c, 1, 76, 64
3, 400128, Note_on_c, 1, 80, 90
3, 400184, Note_off_c, 1, 80, 64
3, 400188, Note_on_c, 1, 78, 90
3, 400188, Note_on_c, 1, 73, 90
3, 400504, Note_off_c, 1, 78, 64
3, 400504, Note_off_c, 1, 73, 64
3, 400512, Note_on_c, 1, 78, 90
3, 400512, Note_on_c, 1, 73, 90
3, 400892, Note_off_c, 1, 78, 64
3, 400892, Note_off_c, 1, 73, 64
3, 400896, Note_on_c, 1, 66, 90
3, 400896, Note_on_c, 1, 73, 90
3, 400896, Note_on_c, 1, 78, 90
3, 401180, Note_off_c, 1, 78, 64
3, 401184, Note_on_c, 1, 76, 90
3, 401276, Note_off_c, 1, 66, 64
3, 401276, Note_off_c, 1, 73, 64
3, 401276, Note_off_c, 1, 76, 64
3, 401280, Note_on_c, 1, 76, 90
3, 401336, Note_off_c, 1, 76, 64
3, 401340, Note_on_c, 1, 71, 90
3, 401340, Note_on_c, 1, 66, 90
3, 401340, Note_on_c, 1, 74, 90
3, 401656, Note_off_c, 1, 71, 64
3, 401656, Note_off_c, 1, 66, 64
3, 401656, Note_off_c, 1, 74, 64
3, 401664, Note_on_c, 1, 74, 90
3, 401664, Note_on_c, 1, 68, 90
3, 401664, Note_on_c, 1, 62, 90
3, 402044, Note_off_c, 1, 74, 64
3, 402044, Note_off_c, 1, 68, 64
3, 402044, Note_off_c, 1, 62, 64
3, 402048, Note_on_c, 1, 64, 90
3, 402048, Note_on_c, 1, 74, 90
3, 402332, Note_off_c, 1, 74, 64
3, 402336, Note_on_c, 1, 73, 90
3, 402428, Note_off_c, 1, 64, 64
3, 402428, Note_off_c, 1, 73, 64
3, 402432, Note_on_c, 1, 73, 90
3, 402488, Note_off_c, 1, 73, 64
3, 402492, Note_on_c, 1, 71, 90
3, 402492, Note_on_c, 1, 66, 90
3, 402616, Note_off_c, 1, 66, 64
3, 402624, Note_on_c, 1, 62, 90
3, 402808, Note_off_c, 1, 71, 64
3, 402812, Note_off_c, 1, 62, 64
3, 402816, Note_on_c, 1, 69, 90
3, 402816, Note_on_c, 1, 61, 90
3, 403004, Note_off_c, 1, 61, 64
3, 403008, Note_on_c, 1, 64, 90
3, 403196, Note_off_c, 1, 69, 64
3, 403196, Note_off_c, 1, 64, 64
3, 403200, Note_on_c, 1, 68, 90
3, 403200, Note_on_c, 1, 59, 90
3, 403388, Note_off_c, 1, 59, 64
3, 403392, Note_on_c, 1, 62, 90
3, 403580, Note_off_c, 1, 68, 64
3, 403580, Note_off_c, 1, 62, 64
3, 403584, Note_on_c, 1, 69, 90
3, 403584, Note_on_c, 1, 61, 90
3, 404156, Note_off_c, 1, 69, 64
3, 404156, Note_off_c, 1, 61, 64
3, 404160, Note_on_c, 1, 71, 90
3, 404160, Note_on_c, 1, 71, 90
3, 404252, Note_off_c, 1, 71, 64
3, 404256, Note_on_c, 1, 76, 90
3, 404348, Note_off_c, 1, 71, 64
3, 404348, Note_off_c, 1, 76, 64
3, 404352, Note_on_c, 1, 71, 90
3, 404352, Note_on_c, 1, 81, 90
3, 404636, Note_off_c, 1, 81, 64
3, 404640, Note_on_c, 1, 80, 90
3, 404732, Note_off_c, 1, 71, 64
3, 404732, Note_off_c, 1, 80, 64
3, 404736, Note_on_c, 1, 80, 90
3, 404792, Note_off_c, 1, 80, 64
3, 404796, Note_on_c, 1, 78, 90
3, 404796, Note_on_c, 1, 69, 90
3, 404796, Note_on_c, 1, 74, 90
3, 405112, Note_off_c, 1, 78, 64
3, 405112, Note_off_c, 1, 69, 64
3, 405120, Note_on_c, 1, 78, 90
3, 405120, Note_on_c, 1, 69, 90
3, 405496, Note_off_c, 1, 74, 64
3, 405500, Note_off_c, 1, 78, 64
3, 405500, Note_off_c, 1, 69, 64
3, 405504, Note_on_c, 1, 69, 90
3, 405504, Note_on_c, 1, 78, 90
3, 405788, Note_off_c, 1, 78, 64
3, 405792, Note_on_c, 1, 76, 90
3, 405884, Note_off_c, 1, 69, 64
3, 405884, Note_off_c, 1, 76, 64
3, 405888, Note_on_c, 1, 76, 90
3, 405944, Note_off_c, 1, 76, 64
3, 405948, Note_on_c, 1, 74, 90
3, 405948, Note_on_c, 1, 68, 90
3, 406132, Note_off_c, 1, 74, 64
3, 406132, Note_off_c, 1, 68, 64
3, 406272, Note_on_c, 1, 74, 90
3, 406272, Note_on_c, 1, 68, 90
3, 406464, Note_off_c, 1, 74, 64
3, 406464, Note_off_c, 1, 68, 64
3, 407040, Note_on_c, 1, 73, 73
3, 407040, Note_on_c, 1, 61, 73
3, 407228, Note_off_c, 1, 73, 64
3, 407228, Note_off_c, 1, 61, 64
3, 407232, Note_on_c, 1, 74, 73
3, 407232, Note_on_c, 1, 62, 73
3, 407420, Note_off_c, 1, 74, 64
3, 407420, Note_off_c, 1, 62, 64
3, 407424, Note_on_c, 1, 75, 73
3, 407424, Note_on_c, 1, 63, 73
3, 407612, Note_off_c, 1, 75, 64
3, 407612, Note_off_c, 1, 63, 64
3, 407616, Note_on_c, 1, 76, 73
3, 407616, Note_on_c, 1, 64, 73
3, 407804, Note_off_c, 1, 76, 64
3, 407804, Note_off_c, 1, 64, 64
3, 407808, Note_on_c, 1, 77, 73
3, 407808, Note_on_c, 1, 65, 73
3, 407996, Note_off_c, 1, 77, 64
3, 407996, Note_off_c, 1, 65, 64
3, 408000, Note_on_c, 1, 78, 73
3, 408000, Note_on_c, 1, 66, 73
3, 408188, Note_off_c, 1, 78, 64
3, 408188, Note_off_c, 1, 66, 64
3, 408192, Note_on_c, 1, 80, 73
3, 408192, Note_on_c, 1, 68, 73
3, 408380, Note_off_c, 1, 80, 64
3, 408380, Note_off_c, 1, 68, 64
3, 408384, Note_on_c, 1, 81, 73
3, 408384, Note_on_c, 1, 69, 73
3, 408572, Note_off_c, 1, 81, 64
3, 408572, Note_off_c, 1, 69, 64
3, 408576, Note_on_c, 1, 80, 73
3, 408576, Note_on_c, 1, 68, 73
3, 408764, Note_off_c, 1, 80, 64
3, 408764, Note_off_c, 1, 68, 64
3, 408768, Note_on_c, 1, 78, 73
3, 408768, Note_on_c, 1, 66, 73
3, 408956, Note_off_c, 1, 78, 64
3, 408956, Note_off_c, 1, 66, 64
3, 408960, Note_on_c, 1, 76, 73
3, 408960, Note_on_c, 1, 64, 73
3, 409148, Note_off_c, 1, 76, 64
3, 409148, Note_off_c, 1, 64, 64
3, 409152, Note_on_c, 1, 74, 73
3, 409152, Note_on_c, 1, 62, 73
3, 409340, Note_off_c, 1, 74, 64
3, 409340, Note_off_c, 1, 62, 64
3, 409344, Note_on_c, 1, 81, 90
3, 409344, Note_on_c, 1, 76, 90
3, 409344, Note_on_c, 1, 73, 90
3, 409436, Note_off_c, 1, 81, 64
3, 409436, Note_off_c, 1, 76, 64
3, 409436, Note_off_c, 1, 73, 64
3, 409440, Note_on_c, 1, 69, 90
3, 409532, Note_off_c, 1, 69, 64
3, 409536, Note_on_c, 1, 81, 90
3, 409536, Note_on_c, 1, 76, 90
3, 409536, Note_on_c, 1, 73, 90
3, 409628, Note_off_c, 1, 81, 64
3, 409628, Note_off_c, 1, 76, 64
3, 409628, Note_off_c, 1, 73, 64
3, 409632, Note_on_c, 1, 71, 90
3, 409724, Note_off_c, 1, 71, 64
3, 409728, Note_on_c, 1, 81, 90
3, 409728, Note_on_c, 1, 76, 90
3, 409728, Note_on_c, 1, 73, 90
3, 409820, Note_off_c, 1, 81, 64
3, 409820, Note_off_c, 1, 76, 64
3, 409820, Note_off_c, 1, 73, 64
3, 409824, Note_on_c, 1, 71, 90
3, 409916, Note_off_c, 1, 71, 64
3, 409920, Note_on_c, 1, 81, 90
3, 409920, Note_on_c, 1, 76, 90
3, 409920, Note_on_c, 1, 73, 90
3, 410012, Note_off_c, 1, 81, 64
3, 410012, Note_off_c, 1, 76, 64
3, 410012, Note_off_c, 1, 73, 64
3, 410016, Note_on_c, 1, 73, 90
3, 410108, Note_off_c, 1, 73, 64
3, 410112, Note_on_c, 1, 81, 90
3, 410112, Note_on_c, 1, 76, 90
3, 410112, Note_on_c, 1, 73, 90
3, 410204, Note_off_c, 1, 81, 64
3, 410204, Note_off_c, 1, 76, 64
3, 410204, Note_off_c, 1, 73, 64
3, 410208, Note_on_c, 1, 73, 90
3, 410300, Note_off_c, 1, 73, 64
3, 410304, Note_on_c, 1, 81, 90
3, 410304, Note_on_c, 1, 76, 90
3, 410304, Note_on_c, 1, 73, 90
3, 410396, Note_off_c, 1, 81, 64
3, 410396, Note_off_c, 1, 76, 64
3, 410396, Note_off_c, 1, 73, 64
3, 410400, Note_on_c, 1, 73, 90
3, 410492, Note_off_c, 1, 73, 64
3, 410496, Note_on_c, 1, 80, 90
3, 410496, Note_on_c, 1, 76, 90
3, 410496, Note_on_c, 1, 74, 90
3, 410588, Note_off_c, 1, 80, 64
3, 410588, Note_off_c, 1, 76, 64
3, 410588, Note_off_c, 1, 74, 64
3, 410592, Note_on_c, 1, 71, 90
3, 410684, Note_off_c, 1, 71, 64
3, 410688, Note_on_c, 1, 80, 90
3, 410688, Note_on_c, 1, 76, 90
3, 410688, Note_on_c, 1, 74, 90
3, 410780, Note_off_c, 1, 80, 64
3, 410780, Note_off_c, 1, 76, 64
3, 410780, Note_off_c, 1, 74, 64
3, 410784, Note_on_c, 1, 71, 90
3, 410876, Note_off_c, 1, 71, 64
3, 410880, Note_on_c, 1, 80, 90
3, 410880, Note_on_c, 1, 76, 90
3, 410880, Note_on_c, 1, 74, 90
3, 410972, Note_off_c, 1, 80, 64
3, 410972, Note_off_c, 1, 76, 64
3, 410972, Note_off_c, 1, 74, 64
3, 410976, Note_on_c, 1, 71, 90
3, 411068, Note_off_c, 1, 71, 64
3, 411072, Note_on_c, 1, 80, 90
3, 411072, Note_on_c, 1, 76, 90
3, 411072, Note_on_c, 1, 74, 90
3, 411164, Note_off_c, 1, 80, 64
3, 411164, Note_off_c, 1, 76, 64
3, 411164, Note_off_c, 1, 74, 64
3, 411168, Note_on_c, 1, 71, 90
3, 411260, Note_off_c, 1, 71, 64
3, 411264, Note_on_c, 1, 80, 90
3, 411264, Note_on_c, 1, 76, 90
3, 411264, Note_on_c, 1, 74, 90
3, 411356, Note_off_c, 1, 80, 64
3, 411356, Note_off_c, 1, 76, 64
3, 411356, Note_off_c, 1, 74, 64
3, 411360, Note_on_c, 1, 71, 90
3, 411452, Note_off_c, 1, 71, 64
3, 411456, Note_on_c, 1, 80, 90
3, 411456, Note_on_c, 1, 76, 90
3, 411456, Note_on_c, 1, 74, 90
3, 411548, Note_off_c, 1, 80, 64
3, 411548, Note_off_c, 1, 76, 64
3, 411548, Note_off_c, 1, 74, 64
3, 411552, Note_on_c, 1, 71, 90
3, 411644, Note_off_c, 1, 71, 64
3, 411648, Note_on_c, 1, 81, 90
3, 411648, Note_on_c, 1, 76, 90
3, 411648, Note_on_c, 1, 73, 90
3, 411648, Note_on_c, 1, 69, 90
3, 412024, Note_off_c, 1, 81, 64
3, 412024, Note_off_c, 1, 76, 64
3, 412024, Note_off_c, 1, 73, 64
3, 412024, Note_off_c, 1, 69, 64
3, 412992, Note_on_c, 1, 68, 62
3, 412992, Note_on_c, 1, 64, 62
3, 412992, Note_on_c, 1, 59, 62
3, 412992, Note_on_c, 1, 62, 62
3, 413180, Note_off_c, 1, 68, 64
3, 413180, Note_off_c, 1, 64, 64
3, 413180, Note_off_c, 1, 59, 64
3, 413180, Note_off_c, 1, 62, 64
3, 413184, Note_on_c, 1, 68, 62
3, 413184, Note_on_c, 1, 64, 62
3, 413184, Note_on_c, 1, 62, 62
3, 413184, Note_on_c, 1, 59, 62
3, 413372, Note_off_c, 1, 68, 64
3, 413372, Note_off_c, 1, 64, 64
3, 413372, Note_off_c, 1, 62, 64
3, 413372, Note_off_c, 1, 59, 64
3, 413376, Note_on_c, 1, 68, 62
3, 413376, Note_on_c, 1, 64, 62
3, 413376, Note_on_c, 1, 62, 62
3, 413376, Note_on_c, 1, 59, 62
3, 413564, Note_off_c, 1, 68, 64
3, 413564, Note_off_c, 1, 64, 64
3, 413564, Note_off_c, 1, 62, 64
3, 413564, Note_off_c, 1, 59, 64
3, 413568, Note_on_c, 1, 68, 62
3, 413568, Note_on_c, 1, 64, 62
3, 413568, Note_on_c, 1, 62, 62
3, 413568, Note_on_c, 1, 59, 62
3, 413756, Note_off_c, 1, 68, 64
3, 413756, Note_off_c, 1, 64, 64
3, 413756, Note_off_c, 1, 62, 64
3, 413756, Note_off_c, 1, 59, 64
3, 413760, Note_on_c, 1, 68, 62
3, 413760, Note_on_c, 1, 64, 62
3, 413760, Note_on_c, 1, 62, 62
3, 413760, Note_on_c, 1, 59, 62
3, 413948, Note_off_c, 1, 68, 64
3, 413948, Note_off_c, 1, 64, 64
3, 413948, Note_off_c, 1, 62, 64
3, 413948, Note_off_c, 1, 59, 64
3, 414144, Note_on_c, 1, 69, 61
3, 414144, Note_on_c, 1, 64, 61
3, 414144, Note_on_c, 1, 61, 61
3, 414144, Note_on_c, 1, 57, 61
3, 414332, Note_off_c, 1, 69, 64
3, 414332, Note_off_c, 1, 64, 64
3, 414332, Note_off_c, 1, 61, 64
3, 414332, Note_off_c, 1, 57, 64
3, 414336, Note_on_c, 1, 69, 61
3, 414336, Note_on_c, 1, 64, 61
3, 414336, Note_on_c, 1, 61, 61
3, 414336, Note_on_c, 1, 57, 61
3, 414524, Note_off_c, 1, 69, 64
3, 414524, Note_off_c, 1, 64, 64
3, 414524, Note_off_c, 1, 61, 64
3, 414524, Note_off_c, 1, 57, 64
3, 414528, Note_on_c, 1, 69, 61
3, 414528, Note_on_c, 1, 64, 61
3, 414528, Note_on_c, 1, 61, 61
3, 414528, Note_on_c, 1, 57, 61
3, 414716, Note_off_c, 1, 69, 64
3, 414716, Note_off_c, 1, 64, 64
3, 414716, Note_off_c, 1, 61, 64
3, 414716, Note_off_c, 1, 57, 64
3, 414720, Note_on_c, 1, 69, 61
3, 414720, Note_on_c, 1, 64, 61
3, 414720, Note_on_c, 1, 61, 61
3, 414720, Note_on_c, 1, 57, 61
3, 414908, Note_off_c, 1, 69, 64
3, 414908, Note_off_c, 1, 64, 64
3, 414908, Note_off_c, 1, 61, 64
3, 414908, Note_off_c, 1, 57, 64
3, 414912, Note_on_c, 1, 69, 58
3, 414912, Note_on_c, 1, 64, 58
3, 414912, Note_on_c, 1, 61, 58
3, 414912, Note_on_c, 1, 57, 58
3, 415100, Note_off_c, 1, 69, 64
3, 415100, Note_off_c, 1, 64, 64
3, 415100, Note_off_c, 1, 61, 64
3, 415100, Note_off_c, 1, 57, 64
3, 415296, Note_on_c, 1, 68, 58
3, 415296, Note_on_c, 1, 64, 58
3, 415296, Note_on_c, 1, 62, 58
3, 415296, Note_on_c, 1, 59, 58
3, 415484, Note_off_c, 1, 68, 64
3, 415484, Note_off_c, 1, 64, 64
3, 415484, Note_off_c, 1, 62, 64
3, 415484, Note_off_c, 1, 59, 64
3, 415488, Note_on_c, 1, 68, 57
3, 415488, Note_on_c, 1, 64, 57
3, 415488, Note_on_c, 1, 62, 57
3, 415488, Note_on_c, 1, 59, 57
3, 415676, Note_off_c, 1, 68, 64
3, 415676, Note_off_c, 1, 64, 64
3, 415676, Note_off_c, 1, 62, 64
3, 415676, Note_off_c, 1, 59, 64
3, 415680, Note_on_c, 1, 68, 57
3, 415680, Note_on_c, 1, 64, 57
3, 415680, Note_on_c, 1, 62, 57
3, 415680, Note_on_c, 1, 59, 57
3, 415868, Note_off_c, 1, 68, 64
3, 415868, Note_off_c, 1, 64, 64
3, 415868, Note_off_c, 1, 62, 64
3, 415868, Note_off_c, 1, 59, 64
3, 415872, Note_on_c, 1, 68, 55
3, 415872, Note_on_c, 1, 64, 55
3, 415872, Note_on_c, 1, 62, 55
3, 415872, Note_on_c, 1, 59, 55
3, 416060, Note_off_c, 1, 68, 64
3, 416060, Note_off_c, 1, 64, 64
3, 416060, Note_off_c, 1, 62, 64
3, 416060, Note_off_c, 1, 59, 64
3, 416064, Note_on_c, 1, 68, 55
3, 416064, Note_on_c, 1, 64, 55
3, 416064, Note_on_c, 1, 62, 55
3, 416064, Note_on_c, 1, 59, 55
3, 416252, Note_off_c, 1, 68, 64
3, 416252, Note_off_c, 1, 64, 64
3, 416252, Note_off_c, 1, 62, 64
3, 416252, Note_off_c, 1, 59, 64
3, 416448, Note_on_c, 1, 69, 54
3, 416448, Note_on_c, 1, 64, 54
3, 416448, Note_on_c, 1, 61, 54
3, 416448, Note_on_c, 1, 57, 54
3, 416636, Note_off_c, 1, 69, 64
3, 416636, Note_off_c, 1, 64, 64
3, 416636, Note_off_c, 1, 61, 64
3, 416636, Note_off_c, 1, 57, 64
3, 416640, Note_on_c, 1, 69, 54
3, 416640, Note_on_c, 1, 64, 54
3, 416640, Note_on_c, 1, 61, 54
3, 416640, Note_on_c, 1, 57, 54
3, 416828, Note_off_c, 1, 69, 64
3, 416828, Note_off_c, 1, 64, 64
3, 416828, Note_off_c, 1, 61, 64
3, 416828, Note_off_c, 1, 57, 64
3, 416832, Note_on_c, 1, 69, 54
3, 416832, Note_on_c, 1, 64, 54
3, 416832, Note_on_c, 1, 61, 54
3, 416832, Note_on_c, 1, 57, 54
3, 417020, Note_off_c, 1, 69, 64
3, 417020, Note_off_c, 1, 64, 64
3, 417020, Note_off_c, 1, 61, 64
3, 417020, Note_off_c, 1, 57, 64
3, 417024, Note_on_c, 1, 69, 54
3, 417024, Note_on_c, 1, 64, 54
3, 417024, Note_on_c, 1, 61, 54
3, 417024, Note_on_c, 1, 57, 54
3, 417212, Note_off_c, 1, 69, 64
3, 417212, Note_off_c, 1, 64, 64
3, 417212, Note_off_c, 1, 61, 64
3, 417212, Note_off_c, 1, 57, 64
3, 417216, Note_on_c, 1, 69, 54
3, 417216, Note_on_c, 1, 64, 54
3, 417216, Note_on_c, 1, 61, 54
3, 417216, Note_on_c, 1, 57, 54
3, 417404, Note_off_c, 1, 69, 64
3, 417404, Note_off_c, 1, 64, 64
3, 417404, Note_off_c, 1, 61, 64
3, 417404, Note_off_c, 1, 57, 64
3, 417408, Note_on_c, 1, 69, 54
3, 417408, Note_on_c, 1, 64, 54
3, 417408, Note_on_c, 1, 61, 54
3, 417408, Note_on_c, 1, 57, 54
3, 417596, Note_off_c, 1, 69, 64
3, 417596, Note_off_c, 1, 64, 64
3, 417596, Note_off_c, 1, 61, 64
3, 417596, Note_off_c, 1, 57, 64
3, 417600, Note_on_c, 1, 69, 54
3, 417600, Note_on_c, 1, 64, 54
3, 417600, Note_on_c, 1, 61, 54
3, 417600, Note_on_c, 1, 57, 54
3, 417788, Note_off_c, 1, 69, 64
3, 417788, Note_off_c, 1, 64, 64
3, 417788, Note_off_c, 1, 61, 64
3, 417788, Note_off_c, 1, 57, 64
3, 417792, Note_on_c, 1, 69, 54
3, 417792, Note_on_c, 1, 64, 54
3, 417792, Note_on_c, 1, 61, 54
3, 417792, Note_on_c, 1, 57, 54
3, 417980, Note_off_c, 1, 69, 64
3, 417980, Note_off_c, 1, 64, 64
3, 417980, Note_off_c, 1, 61, 64
3, 417980, Note_off_c, 1, 57, 64
3, 417984, Note_on_c, 1, 69, 54
3, 417984, Note_on_c, 1, 64, 54
3, 417984, Note_on_c, 1, 61, 54
3, 417984, Note_on_c, 1, 57, 54
3, 418172, Note_off_c, 1, 69, 64
3, 418172, Note_off_c, 1, 64, 64
3, 418172, Note_off_c, 1, 61, 64
3, 418172, Note_off_c, 1, 57, 64
3, 418176, Note_on_c, 1, 69, 54
3, 418176, Note_on_c, 1, 64, 54
3, 418176, Note_on_c, 1, 61, 54
3, 418176, Note_on_c, 1, 57, 54
3, 418364, Note_off_c, 1, 69, 64
3, 418364, Note_off_c, 1, 64, 64
3, 418364, Note_off_c, 1, 61, 64
3, 418364, Note_off_c, 1, 57, 64
3, 418368, Note_on_c, 1, 69, 54
3, 418368, Note_on_c, 1, 64, 54
3, 418368, Note_on_c, 1, 61, 54
3, 418368, Note_on_c, 1, 57, 54
3, 418556, Note_off_c, 1, 69, 64
3, 418556, Note_off_c, 1, 64, 64
3, 418556, Note_off_c, 1, 61, 64
3, 418556, Note_off_c, 1, 57, 64
3, 418560, Note_on_c, 1, 69, 54
3, 418560, Note_on_c, 1, 64, 54
3, 418560, Note_on_c, 1, 61, 54
3, 418560, Note_on_c, 1, 57, 54
3, 418940, Note_off_c, 1, 69, 64
3, 418940, Note_off_c, 1, 64, 64
3, 418940, Note_off_c, 1, 61, 64
3, 418940, Note_off_c, 1, 57, 64
3, 418940, End_track
4, 0, Start_track
4, 0, Title_t, "Bob Fisher"
4, 0, Control_c, 2, 0, 0
4, 0, Program_c, 2, 0
4, 0, Control_c, 2, 10, 84
4, 0, Control_c, 2, 91, 63
4, 0, Control_c, 2, 93, 2
4, 0, Key_signature, 3, "major"
4, 0, Control_c, 2, 121, 0
4, 12, Control_c, 2, 10, 73
4, 16, Control_c, 2, 91, 63
4, 24, Program_c, 2, 48
4, 1152, Note_on_c, 2, 57, 62
4, 1916, Note_off_c, 2, 57, 64
4, 2304, Note_on_c, 2, 59, 62
4, 2304, Note_on_c, 2, 52, 62
4, 3068, Note_off_c, 2, 59, 64
4, 3068, Note_off_c, 2, 52, 64
4, 3456, Note_on_c, 2, 52, 62
4, 3836, Note_off_c, 2, 52, 64
4, 3840, Note_on_c, 2, 52, 62
4, 4220, Note_off_c, 2, 52, 64
4, 4224, Note_on_c, 2, 52, 62
4, 4604, Note_off_c, 2, 52, 64
4, 4608, Note_on_c, 2, 57, 62
4, 4988, Note_off_c, 2, 57, 64
4, 5760, Note_on_c, 2, 61, 62
4, 6140, Note_off_c, 2, 61, 64
4, 6528, Note_on_c, 2, 62, 62
4, 6908, Note_off_c, 2, 62, 64
4, 6912, Note_on_c, 2, 61, 62
4, 7292, Note_off_c, 2, 61, 64
4, 7680, Note_on_c, 2, 59, 62
4, 8060, Note_off_c, 2, 59, 64
4, 8064, Note_on_c, 2, 57, 62
4, 8444, Note_off_c, 2, 57, 64
4, 8448, Note_on_c, 2, 54, 62
4, 8828, Note_off_c, 2, 54, 64
4, 8832, Note_on_c, 2, 59, 62
4, 8832, Note_on_c, 2, 54, 62
4, 9212, Note_off_c, 2, 59, 64
4, 9212, Note_off_c, 2, 54, 64
4, 9216, Note_on_c, 2, 59, 62
4, 9216, Note_on_c, 2, 52, 62
4, 9596, Note_off_c, 2, 59, 64
4, 9596, Note_off_c, 2, 52, 64
4, 9984, Note_on_c, 2, 64, 90
4, 10268, Note_off_c, 2, 64, 64
4, 10272, Note_on_c, 2, 62, 90
4, 10364, Note_off_c, 2, 62, 64
4, 10368, Note_on_c, 2, 61, 90
4, 10368, Note_on_c, 2, 57, 90
4, 10748, Note_off_c, 2, 61, 64
4, 10752, Note_on_c, 2, 64, 90
4, 11132, Note_off_c, 2, 57, 64
4, 11132, Note_off_c, 2, 64, 64
4, 11136, Note_on_c, 2, 62, 90
4, 11328, Note_off_c, 2, 62, 64
4, 11520, Note_on_c, 2, 52, 90
4, 11520, Note_on_c, 2, 61, 90
4, 11900, Note_off_c, 2, 61, 64
4, 11904, Note_on_c, 2, 59, 90
4, 12284, Note_off_c, 2, 52, 64
4, 12284, Note_off_c, 2, 59, 64
4, 12288, Note_on_c, 2, 59, 90
4, 12572, Note_off_c, 2, 59, 64
4, 12576, Note_on_c, 2, 57, 90
4, 12668, Note_off_c, 2, 57, 64
4, 12672, Note_on_c, 2, 52, 90
4, 12672, Note_on_c, 2, 56, 90
4, 13052, Note_off_c, 2, 52, 64
4, 13052, Note_off_c, 2, 56, 64
4, 13056, Note_on_c, 2, 52, 90
4, 13056, Note_on_c, 2, 57, 90
4, 13244, Note_off_c, 2, 57, 64
4, 13248, Note_on_c, 2, 59, 90
4, 13436, Note_off_c, 2, 52, 64
4, 13436, Note_off_c, 2, 59, 64
4, 13440, Note_on_c, 2, 52, 90
4, 13440, Note_on_c, 2, 61, 90
4, 13628, Note_off_c, 2, 61, 64
4, 13632, Note_on_c, 2, 62, 90
4, 13820, Note_off_c, 2, 52, 64
4, 13820, Note_off_c, 2, 62, 64
4, 13824, Note_on_c, 2, 61, 90
4, 13824, Note_on_c, 2, 57, 90
4, 14108, Note_off_c, 2, 61, 64
4, 14112, Note_on_c, 2, 64, 90
4, 14204, Note_off_c, 2, 64, 64
4, 14208, Note_on_c, 2, 61, 90
4, 14588, Note_off_c, 2, 57, 64
4, 14588, Note_off_c, 2, 61, 64
4, 15168, Note_on_c, 2, 50, 90
4, 15264, Note_off_c, 2, 50, 64
4, 15360, Note_on_c, 2, 54, 90
4, 15456, Note_off_c, 2, 54, 64
4, 15552, Note_on_c, 2, 57, 90
4, 15648, Note_off_c, 2, 57, 64
4, 15744, Note_on_c, 2, 62, 90
4, 15840, Note_off_c, 2, 62, 64
4, 15936, Note_on_c, 2, 61, 90
4, 16032, Note_off_c, 2, 61, 64
4, 16320, Note_on_c, 2, 54, 90
4, 16416, Note_off_c, 2, 54, 64
4, 16512, Note_on_c, 2, 57, 90
4, 16608, Note_off_c, 2, 57, 64
4, 16704, Note_on_c, 2, 62, 90
4, 16800, Note_off_c, 2, 62, 64
4, 16896, Note_on_c, 2, 66, 90
4, 16992, Note_off_c, 2, 66, 64
4, 17088, Note_on_c, 2, 64, 90
4, 17184, Note_off_c, 2, 64, 64
4, 17280, Note_on_c, 2, 62, 90
4, 17660, Note_off_c, 2, 62, 64
4, 17664, Note_on_c, 2, 64, 90
4, 18044, Note_off_c, 2, 64, 64
4, 18048, Note_on_c, 2, 52, 90
4, 18428, Note_off_c, 2, 52, 64
4, 18432, Note_on_c, 2, 57, 90
4, 18812, Note_off_c, 2, 57, 64
4, 19584, Note_on_c, 2, 52, 73
4, 19584, Note_on_c, 2, 40, 73
4, 19964, Note_off_c, 2, 52, 64
4, 19964, Note_off_c, 2, 40, 64
4, 20736, Note_on_c, 2, 45, 73
4, 21116, Note_off_c, 2, 45, 64
4, 21888, Note_on_c, 2, 52, 62
4, 21888, Note_on_c, 2, 40, 62
4, 22268, Note_off_c, 2, 52, 64
4, 22268, Note_off_c, 2, 40, 64
4, 23040, Note_on_c, 2, 45, 54
4, 23040, Note_on_c, 2, 33, 54
4, 25724, Note_off_c, 2, 33, 64
4, 25724, Note_off_c, 2, 45, 64
4, 26496, Note_on_c, 2, 45, 62
4, 26688, Note_on_c, 2, 57, 62
4, 26876, Note_off_c, 2, 45, 64
4, 26876, Note_off_c, 2, 57, 64
4, 26880, Note_on_c, 2, 57, 62
4, 27068, Note_off_c, 2, 57, 64
4, 27072, Note_on_c, 2, 57, 62
4, 27260, Note_off_c, 2, 57, 64
4, 27264, Note_on_c, 2, 57, 62
4, 27452, Note_off_c, 2, 57, 64
4, 27456, Note_on_c, 2, 57, 62
4, 27644, Note_off_c, 2, 57, 64
4, 27648, Note_on_c, 2, 44, 62
4, 27840, Note_on_c, 2, 56, 62
4, 28028, Note_off_c, 2, 44, 64
4, 28028, Note_off_c, 2, 56, 64
4, 28032, Note_on_c, 2, 56, 62
4, 28220, Note_off_c, 2, 56, 64
4, 28224, Note_on_c, 2, 56, 62
4, 28412, Note_off_c, 2, 56, 64
4, 28416, Note_on_c, 2, 56, 62
4, 28604, Note_off_c, 2, 56, 64
4, 28608, Note_on_c, 2, 56, 62
4, 28796, Note_off_c, 2, 56, 64
4, 28800, Note_on_c, 2, 52, 62
4, 29180, Note_off_c, 2, 52, 64
4, 29952, Note_on_c, 2, 54, 62
4, 30332, Note_off_c, 2, 54, 64
4, 31104, Note_on_c, 2, 47, 63
4, 31484, Note_off_c, 2, 47, 64
4, 31488, Note_on_c, 2, 57, 68
4, 31676, Note_off_c, 2, 57, 64
4, 31680, Note_on_c, 2, 54, 73
4, 31868, Note_off_c, 2, 54, 64
4, 31872, Note_on_c, 2, 54, 74
4, 32060, Note_off_c, 2, 54, 64
4, 32064, Note_on_c, 2, 51, 78
4, 32252, Note_off_c, 2, 51, 64
4, 32256, Note_on_c, 2, 54, 81
4, 32636, Note_off_c, 2, 54, 64
4, 33024, Note_on_c, 2, 57, 81
4, 33404, Note_off_c, 2, 57, 64
4, 34176, Note_on_c, 2, 61, 75
4, 34176, Note_on_c, 2, 57, 75
4, 34176, Note_on_c, 2, 54, 75
4, 34556, Note_off_c, 2, 61, 64
4, 34556, Note_off_c, 2, 57, 64
4, 34556, Note_off_c, 2, 54, 64
4, 34560, Note_on_c, 2, 59, 73
4, 35324, Note_off_c, 2, 59, 64
4, 35328, Note_on_c, 2, 59, 90
4, 35420, Note_off_c, 2, 59, 64
4, 35424, Note_on_c, 2, 58, 90
4, 35516, Note_off_c, 2, 58, 64
4, 35520, Note_on_c, 2, 59, 90
4, 35612, Note_off_c, 2, 59, 64
4, 35616, Note_on_c, 2, 58, 90
4, 35708, Note_off_c, 2, 58, 64
4, 35712, Note_on_c, 2, 59, 90
4, 35904, Note_off_c, 2, 59, 64
4, 36096, Note_on_c, 2, 47, 90
4, 36288, Note_off_c, 2, 47, 64
4, 36864, Note_on_c, 2, 59, 73
4, 36864, Note_on_c, 2, 47, 73
4, 38780, Note_off_c, 2, 59, 64
4, 39164, Note_off_c, 2, 47, 64
4, 39168, Note_on_c, 2, 52, 73
4, 39264, Note_off_c, 2, 52, 64
4, 39552, Note_on_c, 2, 61, 73
4, 39648, Note_off_c, 2, 61, 64
4, 39936, Note_on_c, 2, 57, 73
4, 40032, Note_off_c, 2, 57, 64
4, 40320, Note_on_c, 2, 59, 73
4, 40700, Note_off_c, 2, 59, 64
4, 40704, Note_on_c, 2, 47, 73
4, 41084, Note_off_c, 2, 47, 64
4, 41472, Note_on_c, 2, 52, 62
4, 41660, Note_off_c, 2, 52, 64
4, 43776, Note_on_c, 2, 52, 62
4, 44156, Note_off_c, 2, 52, 64
4, 44160, Note_on_c, 2, 49, 62
4, 44540, Note_off_c, 2, 49, 64
4, 44544, Note_on_c, 2, 61, 62
4, 44924, Note_off_c, 2, 61, 64
4, 44928, Note_on_c, 2, 66, 62
4, 44928, Note_on_c, 2, 59, 62
4, 45692, Note_off_c, 2, 66, 64
4, 45692, Note_off_c, 2, 59, 64
4, 46080, Note_on_c, 2, 52, 81
4, 46460, Note_off_c, 2, 52, 64
4, 46848, Note_on_c, 2, 52, 81
4, 47040, Note_off_c, 2, 52, 64
4, 47232, Note_on_c, 2, 51, 81
4, 47328, Note_off_c, 2, 51, 64
4, 48000, Note_on_c, 2, 47, 81
4, 48096, Note_off_c, 2, 47, 64
4, 48384, Note_on_c, 2, 52, 62
4, 48576, Note_off_c, 2, 52, 64
4, 49152, Note_on_c, 2, 52, 62
4, 49344, Note_off_c, 2, 52, 64
4, 49536, Note_on_c, 2, 51, 62
4, 49632, Note_off_c, 2, 51, 64
4, 50304, Note_on_c, 2, 47, 62
4, 50400, Note_off_c, 2, 47, 64
4, 50688, Note_on_c, 2, 52, 63
4, 51836, Note_off_c, 2, 52, 64
4, 51840, Note_on_c, 2, 52, 81
4, 52988, Note_off_c, 2, 52, 64
4, 52992, Note_on_c, 2, 61, 62
4, 52992, Note_on_c, 2, 57, 62
4, 53372, Note_off_c, 2, 61, 64
4, 53372, Note_off_c, 2, 57, 64
4, 53376, Note_on_c, 2, 59, 62
4, 53756, Note_off_c, 2, 59, 64
4, 53760, Note_on_c, 2, 59, 62
4, 53760, Note_on_c, 2, 47, 62
4, 54140, Note_off_c, 2, 59, 64
4, 54140, Note_off_c, 2, 47, 64
4, 54144, Note_on_c, 2, 56, 62
4, 54144, Note_on_c, 2, 52, 62
4, 54524, Note_off_c, 2, 56, 64
4, 54528, Note_on_c, 2, 57, 68
4, 54908, Note_off_c, 2, 57, 64
4, 54912, Note_on_c, 2, 59, 74
4, 55292, Note_off_c, 2, 52, 64
4, 55292, Note_off_c, 2, 59, 64
4, 55296, Note_on_c, 2, 57, 80
4, 55296, Note_on_c, 2, 52, 80
4, 55676, Note_off_c, 2, 57, 64
4, 55680, Note_on_c, 2, 54, 73
4, 56060, Note_off_c, 2, 54, 64
4, 56064, Note_on_c, 2, 56, 62
4, 56252, Note_off_c, 2, 56, 64
4, 56444, Note_off_c, 2, 52, 64
4, 56448, Note_on_c, 2, 64, 54
4, 57596, Note_off_c, 2, 64, 64
4, 57600, Note_on_c, 2, 57, 90
4, 57980, Note_off_c, 2, 57, 64
4, 57984, Note_on_c, 2, 59, 90
4, 58364, Note_off_c, 2, 59, 64
4, 58368, Note_on_c, 2, 59, 90
4, 58368, Note_on_c, 2, 47, 90
4, 58560, Note_off_c, 2, 59, 64
4, 58560, Note_off_c, 2, 47, 64
4, 58752, Note_on_c, 2, 52, 90
4, 58752, Note_on_c, 2, 59, 90
4, 59132, Note_off_c, 2, 59, 64
4, 59136, Note_on_c, 2, 56, 90
4, 59516, Note_off_c, 2, 52, 64
4, 59516, Note_off_c, 2, 56, 64
4, 60288, Note_on_c, 2, 57, 62
4, 60480, Note_off_c, 2, 57, 64
4, 61440, Note_on_c, 2, 59, 62
4, 61632, Note_off_c, 2, 59, 64
4, 62592, Note_on_c, 2, 56, 62
4, 62784, Note_off_c, 2, 56, 64
4, 63360, Note_on_c, 2, 53, 90
4, 63360, Note_on_c, 2, 61, 90
4, 63740, Note_off_c, 2, 53, 64
4, 63744, Note_on_c, 2, 54, 90
4, 64124, Note_off_c, 2, 61, 64
4, 64124, Note_off_c, 2, 54, 64
4, 64512, Note_on_c, 2, 54, 90
4, 64512, Note_on_c, 2, 48, 90
4, 64892, Note_off_c, 2, 48, 64
4, 64896, Note_on_c, 2, 47, 90
4, 65276, Note_off_c, 2, 54, 64
4, 65276, Note_off_c, 2, 47, 64
4, 66048, Note_on_c, 2, 52, 85
4, 66428, Note_off_c, 2, 52, 64
4, 66432, Note_on_c, 2, 52, 81
4, 66812, Note_off_c, 2, 52, 64
4, 66816, Note_on_c, 2, 52, 75
4, 67964, Note_off_c, 2, 52, 64
4, 74880, Note_on_c, 2, 57, 62
4, 75644, Note_off_c, 2, 57, 64
4, 76032, Note_on_c, 2, 59, 62
4, 76032, Note_on_c, 2, 52, 62
4, 76796, Note_off_c, 2, 59, 64
4, 76796, Note_off_c, 2, 52, 64
4, 77184, Note_on_c, 2, 52, 62
4, 77564, Note_off_c, 2, 52, 64
4, 77568, Note_on_c, 2, 52, 62
4, 77948, Note_off_c, 2, 52, 64
4, 77952, Note_on_c, 2, 52, 62
4, 78332, Note_off_c, 2, 52, 64
4, 78336, Note_on_c, 2, 57, 62
4, 78716, Note_off_c, 2, 57, 64
4, 79488, Note_on_c, 2, 61, 62
4, 79868, Note_off_c, 2, 61, 64
4, 80256, Note_on_c, 2, 62, 62
4, 80636, Note_off_c, 2, 62, 64
4, 80640, Note_on_c, 2, 61, 62
4, 81020, Note_off_c, 2, 61, 64
4, 81408, Note_on_c, 2, 59, 62
4, 81788, Note_off_c, 2, 59, 64
4, 81792, Note_on_c, 2, 57, 62
4, 82172, Note_off_c, 2, 57, 64
4, 82176, Note_on_c, 2, 54, 62
4, 82556, Note_off_c, 2, 54, 64
4, 82560, Note_on_c, 2, 59, 62
4, 82560, Note_on_c, 2, 54, 62
4, 82940, Note_off_c, 2, 59, 64
4, 82940, Note_off_c, 2, 54, 64
4, 82944, Note_on_c, 2, 59, 62
4, 82944, Note_on_c, 2, 52, 62
4, 83324, Note_off_c, 2, 59, 64
4, 83324, Note_off_c, 2, 52, 64
4, 83696, Note_on_c, 2, 64, 90
4, 83980, Note_off_c, 2, 64, 64
4, 84000, Note_on_c, 2, 62, 90
4, 84092, Note_off_c, 2, 62, 64
4, 84096, Note_on_c, 2, 61, 90
4, 84096, Note_on_c, 2, 57, 90
4, 84476, Note_off_c, 2, 61, 64
4, 84480, Note_on_c, 2, 64, 90
4, 84860, Note_off_c, 2, 57, 64
4, 84860, Note_off_c, 2, 64, 64
4, 84864, Note_on_c, 2, 62, 90
4, 85056, Note_off_c, 2, 62, 64
4, 85248, Note_on_c, 2, 52, 90
4, 85248, Note_on_c, 2, 61, 90
4, 85628, Note_off_c, 2, 61, 64
4, 85632, Note_on_c, 2, 59, 90
4, 86000, Note_on_c, 2, 59, 90
4, 86012, Note_off_c, 2, 52, 64
4, 86012, Note_off_c, 2, 59, 64
4, 86284, Note_off_c, 2, 59, 64
4, 86304, Note_on_c, 2, 57, 90
4, 86396, Note_off_c, 2, 57, 64
4, 86400, Note_on_c, 2, 56, 90
4, 86400, Note_on_c, 2, 52, 90
4, 86780, Note_off_c, 2, 56, 64
4, 86780, Note_off_c, 2, 52, 64
4, 86784, Note_on_c, 2, 57, 90
4, 86784, Note_on_c, 2, 52, 90
4, 86972, Note_off_c, 2, 57, 64
4, 86976, Note_on_c, 2, 59, 90
4, 87164, Note_off_c, 2, 52, 64
4, 87164, Note_off_c, 2, 59, 64
4, 87168, Note_on_c, 2, 61, 90
4, 87168, Note_on_c, 2, 52, 90
4, 87356, Note_off_c, 2, 61, 64
4, 87360, Note_on_c, 2, 62, 90
4, 87548, Note_off_c, 2, 52, 64
4, 87548, Note_off_c, 2, 62, 64
4, 87552, Note_on_c, 2, 61, 90
4, 87552, Note_on_c, 2, 57, 90
4, 87836, Note_off_c, 2, 61, 64
4, 87840, Note_on_c, 2, 64, 90
4, 87932, Note_off_c, 2, 64, 64
4, 87936, Note_on_c, 2, 61, 90
4, 88316, Note_off_c, 2, 57, 64
4, 88316, Note_off_c, 2, 61, 64
4, 88896, Note_on_c, 2, 50, 90
4, 88992, Note_off_c, 2, 50, 64
4, 89088, Note_on_c, 2, 54, 90
4, 89184, Note_off_c, 2, 54, 64
4, 89280, Note_on_c, 2, 57, 90
4, 89376, Note_off_c, 2, 57, 64
4, 89472, Note_on_c, 2, 62, 90
4, 89568, Note_off_c, 2, 62, 64
4, 89664, Note_on_c, 2, 61, 90
4, 89760, Note_off_c, 2, 61, 64
4, 90048, Note_on_c, 2, 54, 90
4, 90144, Note_off_c, 2, 54, 64
4, 90240, Note_on_c, 2, 57, 90
4, 90336, Note_off_c, 2, 57, 64
4, 90432, Note_on_c, 2, 62, 90
4, 90528, Note_off_c, 2, 62, 64
4, 90624, Note_on_c, 2, 66, 90
4, 90720, Note_off_c, 2, 66, 64
4, 90816, Note_on_c, 2, 64, 90
4, 90912, Note_off_c, 2, 64, 64
4, 91008, Note_on_c, 2, 62, 90
4, 91388, Note_off_c, 2, 62, 64
4, 91392, Note_on_c, 2, 64, 90
4, 91772, Note_off_c, 2, 64, 64
4, 91776, Note_on_c, 2, 52, 90
4, 92156, Note_off_c, 2, 52, 64
4, 92160, Note_on_c, 2, 57, 90
4, 92540, Note_off_c, 2, 57, 64
4, 93312, Note_on_c, 2, 52, 73
4, 93692, Note_off_c, 2, 52, 64
4, 94464, Note_on_c, 2, 45, 73
4, 94844, Note_off_c, 2, 45, 64
4, 95040, Note_on_c, 2, 54, 90
4, 95132, Note_off_c, 2, 54, 64
4, 95136, Note_on_c, 2, 56, 90
4, 95228, Note_off_c, 2, 56, 64
4, 95232, Note_on_c, 2, 59, 90
4, 95324, Note_off_c, 2, 59, 64
4, 95328, Note_on_c, 2, 57, 90
4, 95420, Note_off_c, 2, 57, 64
4, 95424, Note_on_c, 2, 56, 90
4, 95516, Note_off_c, 2, 56, 64
4, 95520, Note_on_c, 2, 54, 90
4, 95612, Note_off_c, 2, 54, 64
4, 95616, Note_on_c, 2, 61, 90
4, 96092, Note_off_c, 2, 61, 64
4, 96096, Note_on_c, 2, 62, 90
4, 96188, Note_off_c, 2, 62, 64
4, 96192, Note_on_c, 2, 61, 90
4, 96284, Note_off_c, 2, 61, 64
4, 96288, Note_on_c, 2, 62, 90
4, 96380, Note_off_c, 2, 62, 64
4, 96384, Note_on_c, 2, 61, 90
4, 96476, Note_off_c, 2, 61, 64
4, 96480, Note_on_c, 2, 59, 90
4, 96572, Note_off_c, 2, 59, 64
4, 96576, Note_on_c, 2, 57, 90
4, 96668, Note_off_c, 2, 57, 64
4, 96672, Note_on_c, 2, 56, 90
4, 96764, Note_off_c, 2, 56, 64
4, 96768, Note_on_c, 2, 54, 90
4, 97148, Note_off_c, 2, 54, 64
4, 97920, Note_on_c, 2, 54, 62
4, 98300, Note_off_c, 2, 54, 64
4, 99072, Note_on_c, 2, 54, 62
4, 99260, Note_off_c, 2, 54, 64
4, 99456, Note_on_c, 2, 54, 62
4, 99644, Note_off_c, 2, 54, 64
4, 99840, Note_on_c, 2, 54, 62
4, 100028, Note_off_c, 2, 54, 64
4, 100224, Note_on_c, 2, 54, 62
4, 100224, Note_on_c, 2, 57, 62
4, 100412, Note_off_c, 2, 54, 64
4, 100412, Note_off_c, 2, 57, 64
4, 100416, Note_on_c, 2, 61, 62
4, 100604, Note_off_c, 2, 61, 64
4, 100608, Note_on_c, 2, 57, 62
4, 100796, Note_off_c, 2, 57, 64
4, 100800, Note_on_c, 2, 61, 62
4, 100988, Note_off_c, 2, 61, 64
4, 100992, Note_on_c, 2, 57, 62
4, 101180, Note_off_c, 2, 57, 64
4, 101184, Note_on_c, 2, 61, 62
4, 101372, Note_off_c, 2, 61, 64
4, 101376, Note_on_c, 2, 59, 62
4, 101376, Note_on_c, 2, 56, 62
4, 101376, Note_on_c, 2, 49, 62
4, 101564, Note_off_c, 2, 59, 64
4, 101564, Note_off_c, 2, 56, 64
4, 101564, Note_off_c, 2, 49, 64
4, 101568, Note_on_c, 2, 61, 62
4, 101756, Note_off_c, 2, 61, 64
4, 101760, Note_on_c, 2, 59, 62
4, 101760, Note_on_c, 2, 56, 62
4, 101948, Note_off_c, 2, 59, 64
4, 101948, Note_off_c, 2, 56, 64
4, 101952, Note_on_c, 2, 61, 62
4, 102140, Note_off_c, 2, 61, 64
4, 102144, Note_on_c, 2, 59, 62
4, 102144, Note_on_c, 2, 56, 62
4, 102332, Note_off_c, 2, 59, 64
4, 102332, Note_off_c, 2, 56, 64
4, 102336, Note_on_c, 2, 61, 62
4, 102524, Note_off_c, 2, 61, 64
4, 102528, Note_on_c, 2, 57, 62
4, 102528, Note_on_c, 2, 54, 62
4, 102716, Note_off_c, 2, 57, 64
4, 102716, Note_off_c, 2, 54, 64
4, 102720, Note_on_c, 2, 61, 62
4, 102908, Note_off_c, 2, 61, 64
4, 102912, Note_on_c, 2, 57, 62
4, 103100, Note_off_c, 2, 57, 64
4, 103104, Note_on_c, 2, 61, 62
4, 103292, Note_off_c, 2, 61, 64
4, 103296, Note_on_c, 2, 57, 62
4, 103484, Note_off_c, 2, 57, 64
4, 103488, Note_on_c, 2, 61, 62
4, 103676, Note_off_c, 2, 61, 64
4, 103680, Note_on_c, 2, 47, 62
4, 103868, Note_off_c, 2, 47, 64
4, 103872, Note_on_c, 2, 62, 62
4, 104060, Note_off_c, 2, 62, 64
4, 104064, Note_on_c, 2, 59, 62
4, 104252, Note_off_c, 2, 59, 64
4, 104256, Note_on_c, 2, 62, 62
4, 104432, Note_on_c, 2, 49, 62
4, 104444, Note_off_c, 2, 62, 64
4, 104448, Note_on_c, 2, 59, 62
4, 104448, Note_on_c, 2, 56, 62
4, 104636, Note_off_c, 2, 59, 64
4, 104640, Note_on_c, 2, 61, 62
4, 104812, Note_off_c, 2, 49, 64
4, 104828, Note_off_c, 2, 56, 64
4, 104828, Note_off_c, 2, 61, 64
4, 104832, Note_on_c, 2, 57, 62
4, 104832, Note_on_c, 2, 54, 62
4, 105212, Note_off_c, 2, 57, 64
4, 105212, Note_off_c, 2, 54, 64
4, 105984, Note_on_c, 2, 49, 62
4, 106364, Note_off_c, 2, 49, 64
4, 107712, Note_on_c, 2, 50, 90
4, 107804, Note_off_c, 2, 50, 64
4, 107808, Note_on_c, 2, 52, 90
4, 107900, Note_off_c, 2, 52, 64
4, 107904, Note_on_c, 2, 55, 90
4, 107996, Note_off_c, 2, 55, 64
4, 108000, Note_on_c, 2, 54, 90
4, 108092, Note_off_c, 2, 54, 64
4, 108096, Note_on_c, 2, 52, 90
4, 108188, Note_off_c, 2, 52, 64
4, 108192, Note_on_c, 2, 50, 90
4, 108284, Note_off_c, 2, 50, 64
4, 108288, Note_on_c, 2, 57, 90
4, 108764, Note_off_c, 2, 57, 64
4, 108768, Note_on_c, 2, 59, 90
4, 108860, Note_off_c, 2, 59, 64
4, 108864, Note_on_c, 2, 57, 90
4, 108956, Note_off_c, 2, 57, 64
4, 108960, Note_on_c, 2, 59, 90
4, 109052, Note_off_c, 2, 59, 64
4, 109056, Note_on_c, 2, 57, 90
4, 109148, Note_off_c, 2, 57, 64
4, 109152, Note_on_c, 2, 55, 90
4, 109244, Note_off_c, 2, 55, 64
4, 109248, Note_on_c, 2, 54, 90
4, 109340, Note_off_c, 2, 54, 64
4, 109344, Note_on_c, 2, 52, 90
4, 109436, Note_off_c, 2, 52, 64
4, 109440, Note_on_c, 2, 50, 90
4, 109632, Note_on_c, 2, 57, 62
4, 109632, Note_on_c, 2, 54, 62
4, 109820, Note_off_c, 2, 50, 64
4, 109820, Note_off_c, 2, 57, 64
4, 109820, Note_off_c, 2, 54, 64
4, 109824, Note_on_c, 2, 57, 62
4, 109824, Note_on_c, 2, 54, 62
4, 110012, Note_off_c, 2, 57, 64
4, 110012, Note_off_c, 2, 54, 64
4, 110016, Note_on_c, 2, 57, 62
4, 110016, Note_on_c, 2, 54, 62
4, 110204, Note_off_c, 2, 57, 64
4, 110204, Note_off_c, 2, 54, 64
4, 110208, Note_on_c, 2, 57, 62
4, 110208, Note_on_c, 2, 54, 62
4, 110396, Note_off_c, 2, 57, 64
4, 110396, Note_off_c, 2, 54, 64
4, 110400, Note_on_c, 2, 57, 62
4, 110400, Note_on_c, 2, 54, 62
4, 110588, Note_off_c, 2, 57, 64
4, 110588, Note_off_c, 2, 54, 64
4, 110592, Note_on_c, 2, 50, 62
4, 110592, Note_on_c, 2, 57, 62
4, 110592, Note_on_c, 2, 54, 62
4, 110780, Note_off_c, 2, 57, 64
4, 110780, Note_off_c, 2, 54, 64
4, 110784, Note_on_c, 2, 57, 62
4, 110784, Note_on_c, 2, 54, 62
4, 110972, Note_off_c, 2, 50, 64
4, 110972, Note_off_c, 2, 57, 64
4, 110972, Note_off_c, 2, 54, 64
4, 110976, Note_on_c, 2, 57, 62
4, 110976, Note_on_c, 2, 54, 62
4, 111164, Note_off_c, 2, 57, 64
4, 111164, Note_off_c, 2, 54, 64
4, 111168, Note_on_c, 2, 57, 62
4, 111168, Note_on_c, 2, 54, 62
4, 111356, Note_off_c, 2, 57, 64
4, 111356, Note_off_c, 2, 54, 64
4, 111360, Note_on_c, 2, 57, 62
4, 111360, Note_on_c, 2, 54, 62
4, 111548, Note_off_c, 2, 57, 64
4, 111548, Note_off_c, 2, 54, 64
4, 111552, Note_on_c, 2, 57, 62
4, 111552, Note_on_c, 2, 54, 62
4, 111740, Note_off_c, 2, 57, 64
4, 111740, Note_off_c, 2, 54, 64
4, 111744, Note_on_c, 2, 50, 62
4, 111744, Note_on_c, 2, 57, 62
4, 111744, Note_on_c, 2, 55, 62
4, 111744, Note_on_c, 2, 52, 62
4, 111920, Note_on_c, 2, 57, 62
4, 111932, Note_off_c, 2, 50, 64
4, 111932, Note_off_c, 2, 57, 64
4, 111932, Note_off_c, 2, 55, 64
4, 111932, Note_off_c, 2, 52, 64
4, 111936, Note_on_c, 2, 55, 62
4, 111936, Note_on_c, 2, 52, 62
4, 112128, Note_on_c, 2, 50, 62
4, 112300, Note_off_c, 2, 57, 64
4, 112316, Note_off_c, 2, 55, 64
4, 112316, Note_off_c, 2, 52, 64
4, 112316, Note_off_c, 2, 50, 64
4, 112320, Note_on_c, 2, 57, 62
4, 112320, Note_on_c, 2, 55, 62
4, 112320, Note_on_c, 2, 52, 62
4, 112512, Note_on_c, 2, 50, 62
4, 112700, Note_off_c, 2, 57, 64
4, 112700, Note_off_c, 2, 55, 64
4, 112700, Note_off_c, 2, 52, 64
4, 112700, Note_off_c, 2, 50, 64
4, 112704, Note_on_c, 2, 57, 62
4, 112704, Note_on_c, 2, 55, 62
4, 112704, Note_on_c, 2, 52, 62
4, 112892, Note_off_c, 2, 57, 64
4, 112892, Note_off_c, 2, 55, 64
4, 112892, Note_off_c, 2, 52, 64
4, 112896, Note_on_c, 2, 54, 62
4, 112896, Note_on_c, 2, 50, 62
4, 113084, Note_off_c, 2, 54, 64
4, 113084, Note_off_c, 2, 50, 64
4, 113088, Note_on_c, 2, 57, 62
4, 113276, Note_off_c, 2, 57, 64
4, 113280, Note_on_c, 2, 54, 62
4, 113468, Note_off_c, 2, 54, 64
4, 113472, Note_on_c, 2, 57, 62
4, 113660, Note_off_c, 2, 57, 64
4, 113664, Note_on_c, 2, 54, 62
4, 113852, Note_off_c, 2, 54, 64
4, 113856, Note_on_c, 2, 57, 62
4, 114044, Note_off_c, 2, 57, 64
4, 114048, Note_on_c, 2, 55, 62
4, 114048, Note_on_c, 2, 52, 62
4, 114048, Note_on_c, 2, 45, 62
4, 114236, Note_off_c, 2, 55, 72
4, 114236, Note_off_c, 2, 52, 72
4, 114236, Note_off_c, 2, 45, 72
4, 114240, Note_on_c, 2, 57, 62
4, 114428, Note_off_c, 2, 57, 72
4, 114432, Note_on_c, 2, 55, 62
4, 114432, Note_on_c, 2, 52, 62
4, 114620, Note_off_c, 2, 55, 72
4, 114620, Note_off_c, 2, 52, 72
4, 114624, Note_on_c, 2, 57, 62
4, 114812, Note_off_c, 2, 57, 72
4, 114816, Note_on_c, 2, 55, 62
4, 114816, Note_on_c, 2, 52, 62
4, 115004, Note_off_c, 2, 55, 72
4, 115004, Note_off_c, 2, 52, 72
4, 115008, Note_on_c, 2, 57, 62
4, 115196, Note_off_c, 2, 57, 72
4, 115200, Note_on_c, 2, 54, 62
4, 115200, Note_on_c, 2, 50, 62
4, 115388, Note_off_c, 2, 54, 72
4, 115388, Note_off_c, 2, 50, 72
4, 115392, Note_on_c, 2, 57, 62
4, 115580, Note_off_c, 2, 57, 72
4, 115584, Note_on_c, 2, 54, 62
4, 115772, Note_off_c, 2, 54, 72
4, 115776, Note_on_c, 2, 57, 62
4, 115964, Note_off_c, 2, 57, 72
4, 115968, Note_on_c, 2, 54, 62
4, 116156, Note_off_c, 2, 54, 72
4, 116160, Note_on_c, 2, 57, 62
4, 116348, Note_off_c, 2, 57, 72
4, 116352, Note_on_c, 2, 43, 62
4, 116540, Note_off_c, 2, 43, 72
4, 116544, Note_on_c, 2, 59, 62
4, 116732, Note_off_c, 2, 59, 72
4, 116736, Note_on_c, 2, 55, 62
4, 116924, Note_off_c, 2, 55, 72
4, 116928, Note_on_c, 2, 59, 62
4, 117116, Note_off_c, 2, 59, 72
4, 117120, Note_on_c, 2, 55, 62
4, 117120, Note_on_c, 2, 52, 62
4, 117120, Note_on_c, 2, 45, 62
4, 117308, Note_off_c, 2, 55, 72
4, 117312, Note_on_c, 2, 57, 62
4, 117500, Note_off_c, 2, 52, 72
4, 117500, Note_off_c, 2, 45, 72
4, 117500, Note_off_c, 2, 57, 72
4, 117504, Note_on_c, 2, 54, 62
4, 117504, Note_on_c, 2, 50, 62
4, 117884, Note_off_c, 2, 54, 72
4, 117884, Note_off_c, 2, 50, 72
4, 118080, Note_on_c, 2, 47, 62
4, 118268, Note_off_c, 2, 47, 72
4, 118272, Note_on_c, 2, 50, 62
4, 118460, Note_off_c, 2, 50, 72
4, 118464, Note_on_c, 2, 54, 62
4, 118652, Note_off_c, 2, 54, 72
4, 118656, Note_on_c, 2, 49, 62
4, 118656, Note_on_c, 2, 42, 62
4, 118844, Note_off_c, 2, 49, 72
4, 118844, Note_off_c, 2, 42, 72
4, 118848, Note_on_c, 2, 54, 62
4, 119036, Note_off_c, 2, 54, 72
4, 119040, Note_on_c, 2, 52, 62
4, 119040, Note_on_c, 2, 49, 62
4, 119228, Note_off_c, 2, 52, 72
4, 119228, Note_off_c, 2, 49, 72
4, 119232, Note_on_c, 2, 54, 62
4, 119420, Note_off_c, 2, 54, 72
4, 119424, Note_on_c, 2, 52, 62
4, 119424, Note_on_c, 2, 49, 62
4, 119612, Note_off_c, 2, 52, 72
4, 119612, Note_off_c, 2, 49, 72
4, 119616, Note_on_c, 2, 54, 62
4, 119804, Note_off_c, 2, 54, 72
4, 119808, Note_on_c, 2, 50, 62
4, 119808, Note_on_c, 2, 47, 62
4, 119996, Note_off_c, 2, 50, 72
4, 119996, Note_off_c, 2, 47, 72
4, 120000, Note_on_c, 2, 54, 62
4, 120188, Note_off_c, 2, 54, 72
4, 120192, Note_on_c, 2, 50, 62
4, 120380, Note_off_c, 2, 50, 72
4, 120384, Note_on_c, 2, 54, 62
4, 120572, Note_off_c, 2, 54, 72
4, 120576, Note_on_c, 2, 50, 62
4, 120764, Note_off_c, 2, 50, 72
4, 120768, Note_on_c, 2, 54, 62
4, 120956, Note_off_c, 2, 54, 72
4, 120960, Note_on_c, 2, 40, 62
4, 121148, Note_off_c, 2, 40, 72
4, 121152, Note_on_c, 2, 56, 62
4, 121340, Note_off_c, 2, 56, 72
4, 121344, Note_on_c, 2, 52, 62
4, 121532, Note_off_c, 2, 52, 72
4, 121536, Note_on_c, 2, 56, 62
4, 121724, Note_off_c, 2, 56, 72
4, 121728, Note_on_c, 2, 52, 62
4, 121728, Note_on_c, 2, 42, 62
4, 121728, Note_on_c, 2, 49, 62
4, 121916, Note_off_c, 2, 52, 72
4, 121920, Note_on_c, 2, 54, 62
4, 122108, Note_off_c, 2, 42, 72
4, 122108, Note_off_c, 2, 49, 72
4, 122108, Note_off_c, 2, 54, 72
4, 122112, Note_on_c, 2, 50, 62
4, 122112, Note_on_c, 2, 47, 62
4, 122684, Note_off_c, 2, 50, 72
4, 122684, Note_off_c, 2, 47, 72
4, 122688, Note_on_c, 2, 59, 90
4, 122876, Note_off_c, 2, 59, 72
4, 122880, Note_on_c, 2, 57, 90
4, 123068, Note_off_c, 2, 57, 72
4, 123072, Note_on_c, 2, 57, 90
4, 123260, Note_off_c, 2, 57, 72
4, 123264, Note_on_c, 2, 55, 90
4, 123836, Note_off_c, 2, 55, 72
4, 123840, Note_on_c, 2, 55, 90
4, 124028, Note_off_c, 2, 55, 72
4, 124032, Note_on_c, 2, 54, 90
4, 124220, Note_off_c, 2, 54, 72
4, 124224, Note_on_c, 2, 54, 90
4, 124412, Note_off_c, 2, 54, 72
4, 124416, Note_on_c, 2, 53, 62
4, 124604, Note_off_c, 2, 53, 72
4, 124800, Note_on_c, 2, 54, 62
4, 124988, Note_off_c, 2, 54, 72
4, 125184, Note_on_c, 2, 49, 62
4, 125372, Note_off_c, 2, 49, 72
4, 125568, Note_on_c, 2, 50, 62
4, 125756, Note_off_c, 2, 50, 72
4, 125952, Note_on_c, 2, 47, 62
4, 126140, Note_off_c, 2, 47, 72
4, 126336, Note_on_c, 2, 48, 62
4, 126524, Note_off_c, 2, 48, 72
4, 126720, Note_on_c, 2, 49, 62
4, 127100, Note_off_c, 2, 49, 72
4, 127104, Note_on_c, 2, 37, 62
4, 127484, Note_off_c, 2, 37, 72
4, 127872, Note_on_c, 2, 49, 90
4, 128252, Note_off_c, 2, 49, 72
4, 128256, Note_on_c, 2, 37, 90
4, 128636, Note_off_c, 2, 37, 72
4, 129024, Note_on_c, 2, 49, 90
4, 129404, Note_off_c, 2, 49, 72
4, 129408, Note_on_c, 2, 37, 90
4, 129788, Note_off_c, 2, 37, 72
4, 130176, Note_on_c, 2, 49, 90
4, 130556, Note_off_c, 2, 49, 72
4, 130560, Note_on_c, 2, 37, 90
4, 130940, Note_off_c, 2, 37, 72
4, 131328, Note_on_c, 2, 49, 90
4, 131708, Note_off_c, 2, 49, 72
4, 131712, Note_on_c, 2, 49, 90
4, 131712, Note_on_c, 2, 37, 90
4, 132092, Note_off_c, 2, 49, 72
4, 132092, Note_off_c, 2, 37, 72
4, 132096, Note_on_c, 2, 49, 90
4, 132096, Note_on_c, 2, 37, 90
4, 132476, Note_off_c, 2, 49, 72
4, 132476, Note_off_c, 2, 37, 72
4, 132480, Note_on_c, 2, 49, 90
4, 132480, Note_on_c, 2, 37, 90
4, 133244, Note_off_c, 2, 49, 72
4, 133244, Note_off_c, 2, 37, 72
4, 167040, Note_on_c, 2, 57, 62
4, 167804, Note_off_c, 2, 57, 64
4, 168192, Note_on_c, 2, 52, 62
4, 168956, Note_off_c, 2, 52, 64
4, 169344, Note_on_c, 2, 52, 62
4, 169724, Note_off_c, 2, 52, 64
4, 169728, Note_on_c, 2, 52, 62
4, 170108, Note_off_c, 2, 52, 64
4, 170112, Note_on_c, 2, 52, 62
4, 170492, Note_off_c, 2, 52, 64
4, 170496, Note_on_c, 2, 45, 62
4, 170876, Note_off_c, 2, 45, 64
4, 171648, Note_on_c, 2, 61, 62
4, 172028, Note_off_c, 2, 61, 64
4, 172416, Note_on_c, 2, 62, 62
4, 172796, Note_off_c, 2, 62, 64
4, 172800, Note_on_c, 2, 61, 62
4, 173180, Note_off_c, 2, 61, 64
4, 173568, Note_on_c, 2, 59, 62
4, 173948, Note_off_c, 2, 59, 64
4, 173952, Note_on_c, 2, 57, 62
4, 174332, Note_off_c, 2, 57, 64
4, 174336, Note_on_c, 2, 54, 62
4, 174716, Note_off_c, 2, 54, 64
4, 174720, Note_on_c, 2, 50, 62
4, 175100, Note_off_c, 2, 50, 64
4, 175104, Note_on_c, 2, 52, 62
4, 175484, Note_off_c, 2, 52, 64
4, 175872, Note_on_c, 2, 64, 90
4, 176156, Note_off_c, 2, 64, 64
4, 176160, Note_on_c, 2, 62, 90
4, 176252, Note_off_c, 2, 62, 64
4, 176256, Note_on_c, 2, 61, 90
4, 176256, Note_on_c, 2, 57, 90
4, 176352, Note_off_c, 2, 61, 64
4, 176448, Note_on_c, 2, 69, 90
4, 176544, Note_off_c, 2, 69, 64
4, 176636, Note_off_c, 2, 57, 64
4, 176640, Note_on_c, 2, 64, 90
4, 176640, Note_on_c, 2, 57, 90
4, 176736, Note_off_c, 2, 64, 64
4, 176832, Note_on_c, 2, 61, 90
4, 176928, Note_off_c, 2, 61, 64
4, 177020, Note_off_c, 2, 57, 64
4, 177024, Note_on_c, 2, 57, 90
4, 177024, Note_on_c, 2, 52, 90
4, 177120, Note_off_c, 2, 57, 64
4, 177216, Note_on_c, 2, 62, 90
4, 177312, Note_off_c, 2, 62, 64
4, 177404, Note_off_c, 2, 52, 64
4, 177408, Note_on_c, 2, 61, 90
4, 177408, Note_on_c, 2, 52, 90
4, 177504, Note_off_c, 2, 61, 64
4, 177584, Note_on_c, 2, 64, 90
4, 177680, Note_off_c, 2, 64, 64
4, 177788, Note_off_c, 2, 52, 64
4, 177792, Note_on_c, 2, 59, 90
4, 177792, Note_on_c, 2, 52, 90
4, 177888, Note_off_c, 2, 59, 64
4, 177984, Note_on_c, 2, 64, 90
4, 178080, Note_off_c, 2, 64, 64
4, 178172, Note_off_c, 2, 52, 64
4, 178176, Note_on_c, 2, 59, 90
4, 178460, Note_off_c, 2, 59, 64
4, 178464, Note_on_c, 2, 57, 90
4, 178556, Note_off_c, 2, 57, 64
4, 178560, Note_on_c, 2, 56, 90
4, 178560, Note_on_c, 2, 52, 90
4, 178940, Note_off_c, 2, 56, 64
4, 178940, Note_off_c, 2, 52, 64
4, 178944, Note_on_c, 2, 52, 90
4, 178944, Note_on_c, 2, 57, 90
4, 179132, Note_off_c, 2, 57, 64
4, 179136, Note_on_c, 2, 59, 90
4, 179324, Note_off_c, 2, 52, 64
4, 179324, Note_off_c, 2, 59, 64
4, 179328, Note_on_c, 2, 52, 90
4, 179328, Note_on_c, 2, 61, 90
4, 179516, Note_off_c, 2, 61, 64
4, 179520, Note_on_c, 2, 62, 90
4, 179708, Note_off_c, 2, 52, 64
4, 179708, Note_off_c, 2, 62, 64
4, 179712, Note_on_c, 2, 61, 90
4, 179712, Note_on_c, 2, 57, 90
4, 180092, Note_off_c, 2, 61, 64
4, 180092, Note_off_c, 2, 57, 64
4, 180096, Note_on_c, 2, 57, 90
4, 180096, Note_on_c, 2, 45, 90
4, 180464, Note_on_c, 2, 61, 90
4, 180476, Note_off_c, 2, 57, 64
4, 180476, Note_off_c, 2, 45, 64
4, 180748, Note_off_c, 2, 61, 64
4, 180768, Note_on_c, 2, 59, 90
4, 180860, Note_off_c, 2, 59, 64
4, 180864, Note_on_c, 2, 57, 90
4, 181244, Note_off_c, 2, 57, 64
4, 181248, Note_on_c, 2, 45, 90
4, 181616, Note_on_c, 2, 57, 90
4, 181628, Note_off_c, 2, 45, 64
4, 181900, Note_off_c, 2, 57, 64
4, 181920, Note_on_c, 2, 56, 90
4, 182012, Note_off_c, 2, 56, 64
4, 182016, Note_on_c, 2, 54, 90
4, 182396, Note_off_c, 2, 54, 64
4, 182400, Note_on_c, 2, 42, 90
4, 182780, Note_off_c, 2, 42, 64
4, 182784, Note_on_c, 2, 54, 90
4, 183068, Note_off_c, 2, 54, 64
4, 183072, Note_on_c, 2, 52, 90
4, 183164, Note_off_c, 2, 52, 64
4, 183168, Note_on_c, 2, 50, 90
4, 183548, Note_off_c, 2, 50, 64
4, 183552, Note_on_c, 2, 52, 90
4, 183932, Note_off_c, 2, 52, 64
4, 183936, Note_on_c, 2, 52, 90
4, 184316, Note_off_c, 2, 52, 64
4, 184320, Note_on_c, 2, 45, 90
4, 184700, Note_off_c, 2, 45, 64
4, 185472, Note_on_c, 2, 52, 73
4, 185472, Note_on_c, 2, 40, 73
4, 185852, Note_off_c, 2, 52, 64
4, 185852, Note_off_c, 2, 40, 64
4, 186624, Note_on_c, 2, 45, 69
4, 187004, Note_off_c, 2, 45, 64
4, 187776, Note_on_c, 2, 52, 62
4, 187776, Note_on_c, 2, 40, 62
4, 188156, Note_off_c, 2, 52, 64
4, 188156, Note_off_c, 2, 40, 64
4, 188928, Note_on_c, 2, 45, 54
4, 188928, Note_on_c, 2, 33, 54
4, 191612, Note_off_c, 2, 33, 64
4, 191612, Note_off_c, 2, 45, 64
4, 192376, Program_c, 2, 48
4, 192384, Key_signature, 0, "major"
4, 192384, Note_on_c, 2, 57, 90
4, 192384, Note_on_c, 2, 45, 90
4, 192956, Note_off_c, 2, 57, 64
4, 192956, Note_off_c, 2, 45, 64
4, 192960, Note_on_c, 2, 56, 62
4, 193148, Note_off_c, 2, 56, 64
4, 193152, Note_on_c, 2, 57, 62
4, 193340, Note_off_c, 2, 57, 64
4, 193344, Note_on_c, 2, 56, 62
4, 193532, Note_off_c, 2, 56, 64
4, 193536, Note_on_c, 2, 57, 62
4, 193724, Note_off_c, 2, 57, 64
4, 193728, Note_on_c, 2, 56, 62
4, 193916, Note_off_c, 2, 56, 64
4, 193920, Note_on_c, 2, 57, 72
4, 196988, Note_off_c, 2, 57, 64
4, 196992, Note_on_c, 2, 57, 90
4, 196992, Note_on_c, 2, 45, 90
4, 197564, Note_off_c, 2, 57, 64
4, 197564, Note_off_c, 2, 45, 64
4, 197568, Note_on_c, 2, 56, 62
4, 197756, Note_off_c, 2, 56, 64
4, 197760, Note_on_c, 2, 57, 62
4, 197948, Note_off_c, 2, 57, 64
4, 197952, Note_on_c, 2, 56, 62
4, 198140, Note_off_c, 2, 56, 64
4, 198144, Note_on_c, 2, 57, 62
4, 198332, Note_off_c, 2, 57, 64
4, 198336, Note_on_c, 2, 56, 62
4, 198524, Note_off_c, 2, 56, 64
4, 198528, Note_on_c, 2, 57, 62
4, 201980, Note_off_c, 2, 57, 64
4, 203136, Note_on_c, 2, 64, 62
4, 204668, Note_off_c, 2, 64, 64
4, 204672, Note_on_c, 2, 52, 62
4, 205052, Note_off_c, 2, 52, 64
4, 206208, Note_on_c, 2, 64, 62
4, 207740, Note_off_c, 2, 64, 64
4, 207744, Note_on_c, 2, 64, 90
4, 207744, Note_on_c, 2, 52, 90
4, 208316, Note_off_c, 2, 64, 64
4, 208316, Note_off_c, 2, 52, 64
4, 208320, Note_on_c, 2, 63, 62
4, 208508, Note_off_c, 2, 63, 64
4, 208512, Note_on_c, 2, 64, 62
4, 208700, Note_off_c, 2, 64, 64
4, 208704, Note_on_c, 2, 63, 62
4, 208892, Note_off_c, 2, 63, 64
4, 208896, Note_on_c, 2, 64, 62
4, 209084, Note_off_c, 2, 64, 64
4, 209088, Note_on_c, 2, 63, 62
4, 209276, Note_off_c, 2, 63, 64
4, 209280, Note_on_c, 2, 64, 62
4, 209660, Note_off_c, 2, 64, 64
4, 210048, Note_on_c, 2, 57, 62
4, 212348, Note_off_c, 2, 57, 64
4, 212352, Note_on_c, 2, 57, 90
4, 212352, Note_on_c, 2, 45, 90
4, 212924, Note_off_c, 2, 57, 64
4, 212924, Note_off_c, 2, 45, 64
4, 212928, Note_on_c, 2, 56, 62
4, 213116, Note_off_c, 2, 56, 64
4, 213120, Note_on_c, 2, 57, 62
4, 213308, Note_off_c, 2, 57, 64
4, 213312, Note_on_c, 2, 56, 62
4, 213500, Note_off_c, 2, 56, 64
4, 213504, Note_on_c, 2, 57, 62
4, 213692, Note_off_c, 2, 57, 64
4, 213696, Note_on_c, 2, 56, 62
4, 213884, Note_off_c, 2, 56, 64
4, 213888, Note_on_c, 2, 57, 62
4, 217340, Note_off_c, 2, 57, 64
4, 217728, Note_on_c, 2, 64, 110
4, 217728, Note_on_c, 2, 60, 110
4, 217728, Note_on_c, 2, 57, 110
4, 217916, Note_off_c, 2, 64, 64
4, 217916, Note_off_c, 2, 60, 64
4, 217916, Note_off_c, 2, 57, 64
4, 217920, Note_on_c, 2, 64, 90
4, 217920, Note_on_c, 2, 60, 90
4, 217920, Note_on_c, 2, 57, 90
4, 218108, Note_off_c, 2, 64, 64
4, 218108, Note_off_c, 2, 60, 64
4, 218108, Note_off_c, 2, 57, 64
4, 218112, Note_on_c, 2, 64, 90
4, 218112, Note_on_c, 2, 60, 90
4, 218112, Note_on_c, 2, 57, 90
4, 218300, Note_off_c, 2, 64, 64
4, 218300, Note_off_c, 2, 60, 64
4, 218300, Note_off_c, 2, 57, 64
4, 218304, Note_on_c, 2, 64, 90
4, 218304, Note_on_c, 2, 60, 90
4, 218304, Note_on_c, 2, 57, 90
4, 218492, Note_off_c, 2, 64, 64
4, 218492, Note_off_c, 2, 60, 64
4, 218492, Note_off_c, 2, 57, 64
4, 218496, Note_on_c, 2, 64, 110
4, 218496, Note_on_c, 2, 60, 110
4, 218496, Note_on_c, 2, 57, 110
4, 218684, Note_off_c, 2, 64, 64
4, 218684, Note_off_c, 2, 60, 64
4, 218684, Note_off_c, 2, 57, 64
4, 218688, Note_on_c, 2, 64, 90
4, 218688, Note_on_c, 2, 60, 90
4, 218688, Note_on_c, 2, 57, 90
4, 218876, Note_off_c, 2, 64, 64
4, 218876, Note_off_c, 2, 60, 64
4, 218876, Note_off_c, 2, 57, 64
4, 218880, Note_on_c, 2, 64, 90
4, 218880, Note_on_c, 2, 60, 90
4, 218880, Note_on_c, 2, 57, 90
4, 219068, Note_off_c, 2, 64, 64
4, 219068, Note_off_c, 2, 60, 64
4, 219068, Note_off_c, 2, 57, 64
4, 219072, Note_on_c, 2, 64, 90
4, 219072, Note_on_c, 2, 60, 90
4, 219072, Note_on_c, 2, 57, 90
4, 219260, Note_off_c, 2, 64, 64
4, 219260, Note_off_c, 2, 60, 64
4, 219260, Note_off_c, 2, 57, 64
4, 219264, Note_on_c, 2, 64, 110
4, 219264, Note_on_c, 2, 60, 110
4, 219264, Note_on_c, 2, 57, 110
4, 219452, Note_off_c, 2, 64, 64
4, 219452, Note_off_c, 2, 60, 64
4, 219452, Note_off_c, 2, 57, 64
4, 219456, Note_on_c, 2, 64, 90
4, 219456, Note_on_c, 2, 60, 90
4, 219456, Note_on_c, 2, 57, 90
4, 219644, Note_off_c, 2, 64, 64
4, 219644, Note_off_c, 2, 60, 64
4, 219644, Note_off_c, 2, 57, 64
4, 219648, Note_on_c, 2, 64, 110
4, 219648, Note_on_c, 2, 62, 110
4, 219648, Note_on_c, 2, 59, 110
4, 219648, Note_on_c, 2, 57, 110
4, 219836, Note_off_c, 2, 64, 64
4, 219836, Note_off_c, 2, 62, 64
4, 219836, Note_off_c, 2, 59, 64
4, 219836, Note_off_c, 2, 57, 64
4, 219840, Note_on_c, 2, 64, 90
4, 219840, Note_on_c, 2, 62, 90
4, 219840, Note_on_c, 2, 59, 90
4, 219840, Note_on_c, 2, 57, 90
4, 220028, Note_off_c, 2, 64, 64
4, 220028, Note_off_c, 2, 62, 64
4, 220028, Note_off_c, 2, 59, 64
4, 220028, Note_off_c, 2, 57, 64
4, 220032, Note_on_c, 2, 64, 110
4, 220032, Note_on_c, 2, 60, 110
4, 220032, Note_on_c, 2, 57, 110
4, 220220, Note_off_c, 2, 64, 64
4, 220220, Note_off_c, 2, 60, 64
4, 220220, Note_off_c, 2, 57, 64
4, 220224, Note_on_c, 2, 64, 90
4, 220224, Note_on_c, 2, 60, 90
4, 220224, Note_on_c, 2, 57, 90
4, 220412, Note_off_c, 2, 64, 64
4, 220412, Note_off_c, 2, 60, 64
4, 220412, Note_off_c, 2, 57, 64
4, 220416, Note_on_c, 2, 64, 90
4, 220416, Note_on_c, 2, 60, 90
4, 220416, Note_on_c, 2, 57, 90
4, 220604, Note_off_c, 2, 64, 64
4, 220604, Note_off_c, 2, 60, 64
4, 220604, Note_off_c, 2, 57, 64
4, 220608, Note_on_c, 2, 64, 90
4, 220608, Note_on_c, 2, 60, 90
4, 220608, Note_on_c, 2, 57, 90
4, 220796, Note_off_c, 2, 64, 64
4, 220796, Note_off_c, 2, 60, 64
4, 220796, Note_off_c, 2, 57, 64
4, 220800, Note_on_c, 2, 64, 110
4, 220800, Note_on_c, 2, 60, 110
4, 220800, Note_on_c, 2, 57, 110
4, 220988, Note_off_c, 2, 64, 64
4, 220988, Note_off_c, 2, 60, 64
4, 220988, Note_off_c, 2, 57, 64
4, 220992, Note_on_c, 2, 64, 90
4, 220992, Note_on_c, 2, 60, 90
4, 220992, Note_on_c, 2, 57, 90
4, 221180, Note_off_c, 2, 64, 64
4, 221180, Note_off_c, 2, 60, 64
4, 221180, Note_off_c, 2, 57, 64
4, 221184, Note_on_c, 2, 64, 90
4, 221184, Note_on_c, 2, 60, 90
4, 221184, Note_on_c, 2, 57, 90
4, 221372, Note_off_c, 2, 64, 64
4, 221372, Note_off_c, 2, 60, 64
4, 221372, Note_off_c, 2, 57, 64
4, 221376, Note_on_c, 2, 64, 90
4, 221376, Note_on_c, 2, 60, 90
4, 221376, Note_on_c, 2, 57, 90
4, 221564, Note_off_c, 2, 64, 64
4, 221564, Note_off_c, 2, 60, 64
4, 221564, Note_off_c, 2, 57, 64
4, 221568, Note_on_c, 2, 64, 110
4, 221568, Note_on_c, 2, 60, 110
4, 221568, Note_on_c, 2, 57, 110
4, 221756, Note_off_c, 2, 64, 64
4, 221756, Note_off_c, 2, 60, 64
4, 221756, Note_off_c, 2, 57, 64
4, 221760, Note_on_c, 2, 64, 90
4, 221760, Note_on_c, 2, 60, 90
4, 221760, Note_on_c, 2, 57, 90
4, 221948, Note_off_c, 2, 64, 64
4, 221948, Note_off_c, 2, 60, 64
4, 221948, Note_off_c, 2, 57, 64
4, 221952, Note_on_c, 2, 64, 90
4, 221952, Note_on_c, 2, 60, 90
4, 221952, Note_on_c, 2, 57, 90
4, 222140, Note_off_c, 2, 64, 64
4, 222140, Note_off_c, 2, 60, 64
4, 222140, Note_off_c, 2, 57, 64
4, 222144, Note_on_c, 2, 64, 90
4, 222144, Note_on_c, 2, 60, 90
4, 222144, Note_on_c, 2, 57, 90
4, 222332, Note_off_c, 2, 64, 64
4, 222332, Note_off_c, 2, 60, 64
4, 222332, Note_off_c, 2, 57, 64
4, 222336, Note_on_c, 2, 64, 110
4, 222336, Note_on_c, 2, 60, 110
4, 222336, Note_on_c, 2, 57, 110
4, 222524, Note_off_c, 2, 64, 64
4, 222524, Note_off_c, 2, 60, 64
4, 222524, Note_off_c, 2, 57, 64
4, 222528, Note_on_c, 2, 64, 90
4, 222528, Note_on_c, 2, 60, 90
4, 222528, Note_on_c, 2, 57, 90
4, 222716, Note_off_c, 2, 64, 64
4, 222716, Note_off_c, 2, 60, 64
4, 222716, Note_off_c, 2, 57, 64
4, 222720, Note_on_c, 2, 64, 110
4, 222720, Note_on_c, 2, 62, 110
4, 222720, Note_on_c, 2, 59, 110
4, 222720, Note_on_c, 2, 57, 110
4, 222908, Note_off_c, 2, 64, 64
4, 222908, Note_off_c, 2, 62, 64
4, 222908, Note_off_c, 2, 59, 64
4, 222908, Note_off_c, 2, 57, 64
4, 222912, Note_on_c, 2, 64, 90
4, 222912, Note_on_c, 2, 62, 90
4, 222912, Note_on_c, 2, 59, 90
4, 222912, Note_on_c, 2, 57, 90
4, 223100, Note_off_c, 2, 64, 64
4, 223100, Note_off_c, 2, 62, 64
4, 223100, Note_off_c, 2, 59, 64
4, 223100, Note_off_c, 2, 57, 64
4, 223104, Note_on_c, 2, 60, 110
4, 223104, Note_on_c, 2, 64, 110
4, 223104, Note_on_c, 2, 57, 110
4, 223484, Note_off_c, 2, 60, 64
4, 223484, Note_off_c, 2, 64, 64
4, 223484, Note_off_c, 2, 57, 64
4, 223872, Note_on_c, 2, 64, 110
4, 223872, Note_on_c, 2, 60, 110
4, 223872, Note_on_c, 2, 57, 110
4, 224060, Note_off_c, 2, 64, 64
4, 224060, Note_off_c, 2, 60, 64
4, 224060, Note_off_c, 2, 57, 64
4, 224064, Note_on_c, 2, 64, 90
4, 224064, Note_on_c, 2, 60, 90
4, 224064, Note_on_c, 2, 57, 90
4, 224252, Note_off_c, 2, 64, 64
4, 224252, Note_off_c, 2, 60, 64
4, 224252, Note_off_c, 2, 57, 64
4, 224256, Note_on_c, 2, 64, 90
4, 224256, Note_on_c, 2, 60, 90
4, 224256, Note_on_c, 2, 57, 90
4, 224444, Note_off_c, 2, 64, 64
4, 224444, Note_off_c, 2, 60, 64
4, 224444, Note_off_c, 2, 57, 64
4, 224448, Note_on_c, 2, 64, 90
4, 224448, Note_on_c, 2, 60, 90
4, 224448, Note_on_c, 2, 57, 90
4, 224636, Note_off_c, 2, 64, 64
4, 224636, Note_off_c, 2, 60, 64
4, 224636, Note_off_c, 2, 57, 64
4, 224640, Note_on_c, 2, 64, 110
4, 224640, Note_on_c, 2, 60, 110
4, 224640, Note_on_c, 2, 57, 110
4, 224828, Note_off_c, 2, 64, 64
4, 224828, Note_off_c, 2, 60, 64
4, 224828, Note_off_c, 2, 57, 64
4, 224832, Note_on_c, 2, 64, 90
4, 224832, Note_on_c, 2, 60, 90
4, 224832, Note_on_c, 2, 57, 90
4, 225020, Note_off_c, 2, 64, 64
4, 225020, Note_off_c, 2, 60, 64
4, 225020, Note_off_c, 2, 57, 64
4, 225024, Note_on_c, 2, 64, 90
4, 225024, Note_on_c, 2, 60, 90
4, 225024, Note_on_c, 2, 57, 90
4, 225212, Note_off_c, 2, 64, 64
4, 225212, Note_off_c, 2, 60, 64
4, 225212, Note_off_c, 2, 57, 64
4, 225216, Note_on_c, 2, 64, 90
4, 225216, Note_on_c, 2, 60, 90
4, 225216, Note_on_c, 2, 57, 90
4, 225404, Note_off_c, 2, 64, 64
4, 225404, Note_off_c, 2, 60, 64
4, 225404, Note_off_c, 2, 57, 64
4, 225408, Note_on_c, 2, 64, 110
4, 225408, Note_on_c, 2, 60, 110
4, 225408, Note_on_c, 2, 57, 110
4, 225596, Note_off_c, 2, 64, 64
4, 225596, Note_off_c, 2, 60, 64
4, 225596, Note_off_c, 2, 57, 64
4, 225600, Note_on_c, 2, 64, 90
4, 225600, Note_on_c, 2, 60, 90
4, 225600, Note_on_c, 2, 57, 90
4, 225788, Note_off_c, 2, 64, 64
4, 225788, Note_off_c, 2, 60, 64
4, 225788, Note_off_c, 2, 57, 64
4, 225792, Note_on_c, 2, 64, 110
4, 225792, Note_on_c, 2, 62, 110
4, 225792, Note_on_c, 2, 59, 110
4, 225792, Note_on_c, 2, 57, 110
4, 225980, Note_off_c, 2, 64, 64
4, 225980, Note_off_c, 2, 62, 64
4, 225980, Note_off_c, 2, 59, 64
4, 225980, Note_off_c, 2, 57, 64
4, 225984, Note_on_c, 2, 64, 90
4, 225984, Note_on_c, 2, 62, 90
4, 225984, Note_on_c, 2, 59, 90
4, 225984, Note_on_c, 2, 57, 90
4, 226172, Note_off_c, 2, 64, 64
4, 226172, Note_off_c, 2, 62, 64
4, 226172, Note_off_c, 2, 59, 64
4, 226172, Note_off_c, 2, 57, 64
4, 226176, Note_on_c, 2, 64, 110
4, 226176, Note_on_c, 2, 60, 110
4, 226176, Note_on_c, 2, 57, 110
4, 226364, Note_off_c, 2, 64, 64
4, 226364, Note_off_c, 2, 60, 64
4, 226364, Note_off_c, 2, 57, 64
4, 226368, Note_on_c, 2, 64, 90
4, 226368, Note_on_c, 2, 60, 90
4, 226368, Note_on_c, 2, 57, 90
4, 226556, Note_off_c, 2, 64, 64
4, 226556, Note_off_c, 2, 60, 64
4, 226556, Note_off_c, 2, 57, 64
4, 226560, Note_on_c, 2, 64, 90
4, 226560, Note_on_c, 2, 60, 90
4, 226560, Note_on_c, 2, 57, 90
4, 226748, Note_off_c, 2, 64, 64
4, 226748, Note_off_c, 2, 60, 64
4, 226748, Note_off_c, 2, 57, 64
4, 226752, Note_on_c, 2, 64, 90
4, 226752, Note_on_c, 2, 60, 90
4, 226752, Note_on_c, 2, 57, 90
4, 226940, Note_off_c, 2, 64, 64
4, 226940, Note_off_c, 2, 60, 64
4, 226940, Note_off_c, 2, 57, 64
4, 226944, Note_on_c, 2, 64, 110
4, 226944, Note_on_c, 2, 60, 110
4, 226944, Note_on_c, 2, 57, 110
4, 227132, Note_off_c, 2, 64, 64
4, 227132, Note_off_c, 2, 60, 64
4, 227132, Note_off_c, 2, 57, 64
4, 227136, Note_on_c, 2, 64, 90
4, 227136, Note_on_c, 2, 60, 90
4, 227136, Note_on_c, 2, 57, 90
4, 227324, Note_off_c, 2, 64, 64
4, 227324, Note_off_c, 2, 60, 64
4, 227324, Note_off_c, 2, 57, 64
4, 227328, Note_on_c, 2, 64, 90
4, 227328, Note_on_c, 2, 60, 90
4, 227328, Note_on_c, 2, 57, 90
4, 227516, Note_off_c, 2, 64, 64
4, 227516, Note_off_c, 2, 60, 64
4, 227516, Note_off_c, 2, 57, 64
4, 227520, Note_on_c, 2, 64, 90
4, 227520, Note_on_c, 2, 60, 90
4, 227520, Note_on_c, 2, 57, 90
4, 227708, Note_off_c, 2, 64, 64
4, 227708, Note_off_c, 2, 60, 64
4, 227708, Note_off_c, 2, 57, 64
4, 227712, Note_on_c, 2, 64, 110
4, 227712, Note_on_c, 2, 60, 110
4, 227712, Note_on_c, 2, 57, 110
4, 227900, Note_off_c, 2, 64, 64
4, 227900, Note_off_c, 2, 60, 64
4, 227900, Note_off_c, 2, 57, 64
4, 227904, Note_on_c, 2, 64, 90
4, 227904, Note_on_c, 2, 60, 90
4, 227904, Note_on_c, 2, 57, 90
4, 228092, Note_off_c, 2, 64, 64
4, 228092, Note_off_c, 2, 60, 64
4, 228092, Note_off_c, 2, 57, 64
4, 228096, Note_on_c, 2, 64, 90
4, 228096, Note_on_c, 2, 60, 90
4, 228096, Note_on_c, 2, 57, 90
4, 228284, Note_off_c, 2, 64, 64
4, 228284, Note_off_c, 2, 60, 64
4, 228284, Note_off_c, 2, 57, 64
4, 228288, Note_on_c, 2, 64, 90
4, 228288, Note_on_c, 2, 60, 90
4, 228288, Note_on_c, 2, 57, 90
4, 228476, Note_off_c, 2, 64, 64
4, 228476, Note_off_c, 2, 60, 64
4, 228476, Note_off_c, 2, 57, 64
4, 228480, Note_on_c, 2, 64, 110
4, 228480, Note_on_c, 2, 60, 110
4, 228480, Note_on_c, 2, 57, 110
4, 228668, Note_off_c, 2, 64, 64
4, 228668, Note_off_c, 2, 60, 64
4, 228668, Note_off_c, 2, 57, 64
4, 228672, Note_on_c, 2, 64, 90
4, 228672, Note_on_c, 2, 60, 90
4, 228672, Note_on_c, 2, 57, 90
4, 228860, Note_off_c, 2, 64, 64
4, 228860, Note_off_c, 2, 60, 64
4, 228860, Note_off_c, 2, 57, 64
4, 228864, Note_on_c, 2, 64, 110
4, 228864, Note_on_c, 2, 62, 110
4, 228864, Note_on_c, 2, 59, 110
4, 228864, Note_on_c, 2, 57, 110
4, 229052, Note_off_c, 2, 64, 64
4, 229052, Note_off_c, 2, 62, 64
4, 229052, Note_off_c, 2, 59, 64
4, 229052, Note_off_c, 2, 57, 64
4, 229056, Note_on_c, 2, 64, 90
4, 229056, Note_on_c, 2, 62, 90
4, 229056, Note_on_c, 2, 59, 90
4, 229056, Note_on_c, 2, 57, 90
4, 229244, Note_off_c, 2, 64, 64
4, 229244, Note_off_c, 2, 62, 64
4, 229244, Note_off_c, 2, 59, 64
4, 229244, Note_off_c, 2, 57, 64
4, 229248, Note_on_c, 2, 60, 110
4, 229248, Note_on_c, 2, 64, 110
4, 229248, Note_on_c, 2, 57, 110
4, 229628, Note_off_c, 2, 60, 64
4, 229628, Note_off_c, 2, 64, 64
4, 229628, Note_off_c, 2, 57, 64
4, 229632, Note_on_c, 2, 52, 60
4, 229632, Note_on_c, 2, 48, 60
4, 230012, Note_off_c, 2, 52, 64
4, 230012, Note_off_c, 2, 48, 64
4, 230016, Note_on_c, 2, 53, 60
4, 230016, Note_on_c, 2, 50, 60
4, 230396, Note_off_c, 2, 53, 64
4, 230396, Note_off_c, 2, 50, 64
4, 230400, Note_on_c, 2, 52, 75
4, 230400, Note_on_c, 2, 55, 75
4, 230780, Note_off_c, 2, 52, 64
4, 230780, Note_off_c, 2, 55, 64
4, 230784, Note_on_c, 2, 53, 90
4, 231164, Note_off_c, 2, 53, 64
4, 231168, Note_on_c, 2, 53, 60
4, 231548, Note_off_c, 2, 53, 64
4, 231552, Note_on_c, 2, 52, 60
4, 231552, Note_on_c, 2, 55, 60
4, 231932, Note_off_c, 2, 52, 64
4, 231932, Note_off_c, 2, 55, 64
4, 231936, Note_on_c, 2, 53, 75
4, 231936, Note_on_c, 2, 50, 75
4, 232316, Note_off_c, 2, 53, 64
4, 232316, Note_off_c, 2, 50, 64
4, 232320, Note_on_c, 2, 52, 90
4, 232320, Note_on_c, 2, 48, 90
4, 232700, Note_off_c, 2, 52, 64
4, 232700, Note_off_c, 2, 48, 64
4, 232704, Note_on_c, 2, 52, 60
4, 232704, Note_on_c, 2, 49, 60
4, 232704, Note_on_c, 2, 57, 60
4, 232892, Note_off_c, 2, 57, 64
4, 232896, Note_on_c, 2, 57, 60
4, 233084, Note_off_c, 2, 52, 64
4, 233084, Note_off_c, 2, 49, 64
4, 233084, Note_off_c, 2, 57, 64
4, 233088, Note_on_c, 2, 57, 66
4, 233088, Note_on_c, 2, 53, 66
4, 233088, Note_on_c, 2, 50, 66
4, 233468, Note_off_c, 2, 53, 64
4, 233468, Note_off_c, 2, 50, 64
4, 233472, Note_on_c, 2, 56, 78
4, 233472, Note_on_c, 2, 52, 78
4, 233852, Note_off_c, 2, 57, 64
4, 233852, Note_off_c, 2, 56, 64
4, 233852, Note_off_c, 2, 52, 64
4, 233856, Note_on_c, 2, 57, 90
4, 233856, Note_on_c, 2, 53, 90
4, 234236, Note_off_c, 2, 57, 64
4, 234236, Note_off_c, 2, 53, 64
4, 234240, Note_on_c, 2, 62, 90
4, 234240, Note_on_c, 2, 57, 90
4, 234240, Note_on_c, 2, 50, 90
4, 234620, Note_off_c, 2, 62, 64
4, 234620, Note_off_c, 2, 57, 64
4, 234620, Note_off_c, 2, 50, 64
4, 234624, Note_on_c, 2, 64, 90
4, 234624, Note_on_c, 2, 52, 90
4, 235004, Note_off_c, 2, 64, 64
4, 235004, Note_off_c, 2, 52, 64
4, 235008, Note_on_c, 2, 64, 90
4, 235008, Note_on_c, 2, 52, 90
4, 235388, Note_off_c, 2, 64, 64
4, 235388, Note_off_c, 2, 52, 64
4, 235392, Note_on_c, 2, 57, 90
4, 235392, Note_on_c, 2, 45, 90
4, 235772, Note_off_c, 2, 57, 64
4, 235772, Note_off_c, 2, 45, 64
4, 235776, Note_on_c, 2, 52, 62
4, 235776, Note_on_c, 2, 48, 62
4, 236156, Note_off_c, 2, 52, 64
4, 236156, Note_off_c, 2, 48, 64
4, 236160, Note_on_c, 2, 53, 63
4, 236160, Note_on_c, 2, 50, 63
4, 236540, Note_off_c, 2, 53, 64
4, 236540, Note_off_c, 2, 50, 64
4, 236544, Note_on_c, 2, 52, 75
4, 236544, Note_on_c, 2, 55, 75
4, 236924, Note_off_c, 2, 52, 64
4, 236924, Note_off_c, 2, 55, 64
4, 236928, Note_on_c, 2, 53, 90
4, 237308, Note_off_c, 2, 53, 64
4, 237312, Note_on_c, 2, 53, 62
4, 237692, Note_off_c, 2, 53, 64
4, 237696, Note_on_c, 2, 52, 63
4, 237696, Note_on_c, 2, 55, 63
4, 238076, Note_off_c, 2, 52, 64
4, 238076, Note_off_c, 2, 55, 64
4, 238080, Note_on_c, 2, 53, 75
4, 238080, Note_on_c, 2, 50, 75
4, 238460, Note_off_c, 2, 53, 64
4, 238460, Note_off_c, 2, 50, 64
4, 238464, Note_on_c, 2, 52, 90
4, 238464, Note_on_c, 2, 48, 90
4, 238844, Note_off_c, 2, 52, 64
4, 238844, Note_off_c, 2, 48, 64
4, 238848, Note_on_c, 2, 52, 62
4, 238848, Note_on_c, 2, 49, 62
4, 238848, Note_on_c, 2, 57, 62
4, 239036, Note_off_c, 2, 57, 64
4, 239040, Note_on_c, 2, 57, 62
4, 239228, Note_off_c, 2, 52, 64
4, 239228, Note_off_c, 2, 49, 64
4, 239228, Note_off_c, 2, 57, 64
4, 239232, Note_on_c, 2, 57, 63
4, 239232, Note_on_c, 2, 53, 63
4, 239232, Note_on_c, 2, 50, 63
4, 239612, Note_off_c, 2, 53, 64
4, 239612, Note_off_c, 2, 50, 64
4, 239616, Note_on_c, 2, 52, 75
4, 239616, Note_on_c, 2, 55, 75
4, 239996, Note_off_c, 2, 57, 64
4, 239996, Note_off_c, 2, 52, 64
4, 239996, Note_off_c, 2, 55, 64
4, 240000, Note_on_c, 2, 57, 90
4, 240000, Note_on_c, 2, 53, 90
4, 240380, Note_off_c, 2, 57, 64
4, 240380, Note_off_c, 2, 53, 64
4, 240384, Note_on_c, 2, 62, 90
4, 240384, Note_on_c, 2, 57, 90
4, 240384, Note_on_c, 2, 50, 90
4, 240764, Note_off_c, 2, 62, 64
4, 240764, Note_off_c, 2, 57, 64
4, 240764, Note_off_c, 2, 50, 64
4, 240768, Note_on_c, 2, 64, 90
4, 240768, Note_on_c, 2, 52, 90
4, 241148, Note_off_c, 2, 64, 64
4, 241148, Note_off_c, 2, 52, 64
4, 241152, Note_on_c, 2, 64, 90
4, 241152, Note_on_c, 2, 52, 90
4, 241532, Note_off_c, 2, 64, 64
4, 241532, Note_off_c, 2, 52, 64
4, 241536, Note_on_c, 2, 57, 90
4, 241536, Note_on_c, 2, 45, 90
4, 241916, Note_off_c, 2, 57, 64
4, 241916, Note_off_c, 2, 45, 64
4, 246528, Note_on_c, 2, 43, 60
4, 246620, Note_off_c, 2, 43, 64
4, 246720, Note_on_c, 2, 55, 60
4, 246812, Note_off_c, 2, 55, 64
4, 246912, Note_on_c, 2, 45, 66
4, 247004, Note_off_c, 2, 45, 64
4, 247104, Note_on_c, 2, 57, 72
4, 247196, Note_off_c, 2, 57, 64
4, 247296, Note_on_c, 2, 47, 78
4, 247388, Note_off_c, 2, 47, 64
4, 247488, Note_on_c, 2, 59, 84
4, 247580, Note_off_c, 2, 59, 64
4, 247680, Note_on_c, 2, 59, 90
4, 247680, Note_on_c, 2, 52, 90
4, 248060, Note_off_c, 2, 59, 64
4, 248060, Note_off_c, 2, 52, 64
4, 252672, Note_on_c, 2, 43, 60
4, 252764, Note_off_c, 2, 43, 64
4, 252864, Note_on_c, 2, 55, 60
4, 252956, Note_off_c, 2, 55, 64
4, 253056, Note_on_c, 2, 45, 66
4, 253148, Note_off_c, 2, 45, 64
4, 253248, Note_on_c, 2, 57, 72
4, 253340, Note_off_c, 2, 57, 64
4, 253440, Note_on_c, 2, 47, 78
4, 253532, Note_off_c, 2, 47, 64
4, 253632, Note_on_c, 2, 59, 84
4, 253724, Note_off_c, 2, 59, 64
4, 253824, Note_on_c, 2, 59, 90
4, 253824, Note_on_c, 2, 52, 90
4, 254204, Note_off_c, 2, 59, 64
4, 254204, Note_off_c, 2, 52, 64
4, 254592, Note_on_c, 2, 64, 110
4, 254592, Note_on_c, 2, 60, 110
4, 254592, Note_on_c, 2, 57, 110
4, 254780, Note_off_c, 2, 64, 64
4, 254780, Note_off_c, 2, 60, 64
4, 254780, Note_off_c, 2, 57, 64
4, 254784, Note_on_c, 2, 64, 90
4, 254784, Note_on_c, 2, 60, 90
4, 254784, Note_on_c, 2, 57, 90
4, 254972, Note_off_c, 2, 64, 64
4, 254972, Note_off_c, 2, 60, 64
4, 254972, Note_off_c, 2, 57, 64
4, 254976, Note_on_c, 2, 64, 90
4, 254976, Note_on_c, 2, 60, 90
4, 254976, Note_on_c, 2, 57, 90
4, 255164, Note_off_c, 2, 64, 64
4, 255164, Note_off_c, 2, 60, 64
4, 255164, Note_off_c, 2, 57, 64
4, 255168, Note_on_c, 2, 64, 90
4, 255168, Note_on_c, 2, 60, 90
4, 255168, Note_on_c, 2, 57, 90
4, 255356, Note_off_c, 2, 64, 64
4, 255356, Note_off_c, 2, 60, 64
4, 255356, Note_off_c, 2, 57, 64
4, 255360, Note_on_c, 2, 64, 110
4, 255360, Note_on_c, 2, 60, 110
4, 255360, Note_on_c, 2, 57, 110
4, 255548, Note_off_c, 2, 64, 64
4, 255548, Note_off_c, 2, 60, 64
4, 255548, Note_off_c, 2, 57, 64
4, 255552, Note_on_c, 2, 64, 90
4, 255552, Note_on_c, 2, 60, 90
4, 255552, Note_on_c, 2, 57, 90
4, 255740, Note_off_c, 2, 64, 64
4, 255740, Note_off_c, 2, 60, 64
4, 255740, Note_off_c, 2, 57, 64
4, 255744, Note_on_c, 2, 64, 90
4, 255744, Note_on_c, 2, 60, 90
4, 255744, Note_on_c, 2, 57, 90
4, 255932, Note_off_c, 2, 64, 64
4, 255932, Note_off_c, 2, 60, 64
4, 255932, Note_off_c, 2, 57, 64
4, 255936, Note_on_c, 2, 64, 90
4, 255936, Note_on_c, 2, 60, 90
4, 255936, Note_on_c, 2, 57, 90
4, 256124, Note_off_c, 2, 64, 64
4, 256124, Note_off_c, 2, 60, 64
4, 256124, Note_off_c, 2, 57, 64
4, 256128, Note_on_c, 2, 64, 110
4, 256128, Note_on_c, 2, 60, 110
4, 256128, Note_on_c, 2, 57, 110
4, 256316, Note_off_c, 2, 64, 64
4, 256316, Note_off_c, 2, 60, 64
4, 256316, Note_off_c, 2, 57, 64
4, 256320, Note_on_c, 2, 64, 90
4, 256320, Note_on_c, 2, 60, 90
4, 256320, Note_on_c, 2, 57, 90
4, 256508, Note_off_c, 2, 64, 64
4, 256508, Note_off_c, 2, 60, 64
4, 256508, Note_off_c, 2, 57, 64
4, 256512, Note_on_c, 2, 64, 110
4, 256512, Note_on_c, 2, 57, 110
4, 256512, Note_on_c, 2, 62, 110
4, 256512, Note_on_c, 2, 59, 110
4, 256700, Note_off_c, 2, 64, 64
4, 256700, Note_off_c, 2, 57, 64
4, 256700, Note_off_c, 2, 62, 64
4, 256700, Note_off_c, 2, 59, 64
4, 256704, Note_on_c, 2, 64, 90
4, 256704, Note_on_c, 2, 62, 90
4, 256704, Note_on_c, 2, 59, 90
4, 256704, Note_on_c, 2, 57, 90
4, 256892, Note_off_c, 2, 64, 64
4, 256892, Note_off_c, 2, 62, 64
4, 256892, Note_off_c, 2, 59, 64
4, 256892, Note_off_c, 2, 57, 64
4, 256896, Note_on_c, 2, 64, 110
4, 256896, Note_on_c, 2, 60, 110
4, 256896, Note_on_c, 2, 57, 110
4, 257084, Note_off_c, 2, 64, 64
4, 257084, Note_off_c, 2, 60, 64
4, 257084, Note_off_c, 2, 57, 64
4, 257088, Note_on_c, 2, 64, 90
4, 257088, Note_on_c, 2, 60, 90
4, 257088, Note_on_c, 2, 57, 90
4, 257276, Note_off_c, 2, 64, 64
4, 257276, Note_off_c, 2, 60, 64
4, 257276, Note_off_c, 2, 57, 64
4, 257280, Note_on_c, 2, 64, 90
4, 257280, Note_on_c, 2, 60, 90
4, 257280, Note_on_c, 2, 57, 90
4, 257468, Note_off_c, 2, 64, 64
4, 257468, Note_off_c, 2, 60, 64
4, 257468, Note_off_c, 2, 57, 64
4, 257472, Note_on_c, 2, 64, 90
4, 257472, Note_on_c, 2, 60, 90
4, 257472, Note_on_c, 2, 57, 90
4, 257660, Note_off_c, 2, 64, 64
4, 257660, Note_off_c, 2, 60, 64
4, 257660, Note_off_c, 2, 57, 64
4, 257664, Note_on_c, 2, 64, 110
4, 257664, Note_on_c, 2, 60, 110
4, 257664, Note_on_c, 2, 57, 110
4, 257852, Note_off_c, 2, 64, 64
4, 257852, Note_off_c, 2, 60, 64
4, 257852, Note_off_c, 2, 57, 64
4, 257856, Note_on_c, 2, 64, 90
4, 257856, Note_on_c, 2, 60, 90
4, 257856, Note_on_c, 2, 57, 90
4, 258044, Note_off_c, 2, 64, 64
4, 258044, Note_off_c, 2, 60, 64
4, 258044, Note_off_c, 2, 57, 64
4, 258048, Note_on_c, 2, 64, 90
4, 258048, Note_on_c, 2, 60, 90
4, 258048, Note_on_c, 2, 57, 90
4, 258236, Note_off_c, 2, 64, 64
4, 258236, Note_off_c, 2, 60, 64
4, 258236, Note_off_c, 2, 57, 64
4, 258240, Note_on_c, 2, 64, 90
4, 258240, Note_on_c, 2, 60, 90
4, 258240, Note_on_c, 2, 57, 90
4, 258428, Note_off_c, 2, 64, 64
4, 258428, Note_off_c, 2, 60, 64
4, 258428, Note_off_c, 2, 57, 64
4, 258432, Note_on_c, 2, 64, 110
4, 258432, Note_on_c, 2, 60, 110
4, 258432, Note_on_c, 2, 57, 110
4, 258620, Note_off_c, 2, 64, 64
4, 258620, Note_off_c, 2, 60, 64
4, 258620, Note_off_c, 2, 57, 64
4, 258624, Note_on_c, 2, 64, 90
4, 258624, Note_on_c, 2, 60, 90
4, 258624, Note_on_c, 2, 57, 90
4, 258812, Note_off_c, 2, 64, 64
4, 258812, Note_off_c, 2, 60, 64
4, 258812, Note_off_c, 2, 57, 64
4, 258816, Note_on_c, 2, 64, 90
4, 258816, Note_on_c, 2, 60, 90
4, 258816, Note_on_c, 2, 57, 90
4, 259004, Note_off_c, 2, 64, 64
4, 259004, Note_off_c, 2, 60, 64
4, 259004, Note_off_c, 2, 57, 64
4, 259008, Note_on_c, 2, 64, 90
4, 259008, Note_on_c, 2, 60, 90
4, 259008, Note_on_c, 2, 57, 90
4, 259196, Note_off_c, 2, 64, 64
4, 259196, Note_off_c, 2, 60, 64
4, 259196, Note_off_c, 2, 57, 64
4, 259200, Note_on_c, 2, 64, 110
4, 259200, Note_on_c, 2, 60, 110
4, 259200, Note_on_c, 2, 57, 110
4, 259388, Note_off_c, 2, 64, 64
4, 259388, Note_off_c, 2, 60, 64
4, 259388, Note_off_c, 2, 57, 64
4, 259392, Note_on_c, 2, 64, 90
4, 259392, Note_on_c, 2, 60, 90
4, 259392, Note_on_c, 2, 57, 90
4, 259580, Note_off_c, 2, 64, 64
4, 259580, Note_off_c, 2, 60, 64
4, 259580, Note_off_c, 2, 57, 64
4, 259584, Note_on_c, 2, 64, 110
4, 259584, Note_on_c, 2, 62, 110
4, 259584, Note_on_c, 2, 59, 110
4, 259584, Note_on_c, 2, 57, 110
4, 259772, Note_off_c, 2, 64, 64
4, 259772, Note_off_c, 2, 62, 64
4, 259772, Note_off_c, 2, 59, 64
4, 259772, Note_off_c, 2, 57, 64
4, 259776, Note_on_c, 2, 64, 90
4, 259776, Note_on_c, 2, 62, 90
4, 259776, Note_on_c, 2, 59, 90
4, 259776, Note_on_c, 2, 57, 90
4, 259964, Note_off_c, 2, 64, 64
4, 259964, Note_off_c, 2, 62, 64
4, 259964, Note_off_c, 2, 59, 64
4, 259964, Note_off_c, 2, 57, 64
4, 259968, Note_on_c, 2, 64, 110
4, 259968, Note_on_c, 2, 60, 110
4, 259968, Note_on_c, 2, 57, 110
4, 260348, Note_off_c, 2, 64, 64
4, 260348, Note_off_c, 2, 60, 64
4, 260348, Note_off_c, 2, 57, 64
4, 264960, Note_on_c, 2, 52, 62
4, 265148, Note_off_c, 2, 52, 64
4, 265344, Note_on_c, 2, 53, 62
4, 265440, Note_off_c, 2, 53, 64
4, 265728, Note_on_c, 2, 55, 62
4, 265824, Note_off_c, 2, 55, 64
4, 266112, Note_on_c, 2, 48, 90
4, 266112, Note_on_c, 2, 55, 90
4, 266492, Note_off_c, 2, 48, 64
4, 266492, Note_off_c, 2, 55, 64
4, 266496, Note_on_c, 2, 60, 62
4, 266876, Note_off_c, 2, 60, 64
4, 266880, Note_on_c, 2, 59, 62
4, 267260, Note_off_c, 2, 59, 64
4, 267264, Note_on_c, 2, 57, 62
4, 267644, Note_off_c, 2, 57, 64
4, 267648, Note_on_c, 2, 56, 62
4, 268028, Note_off_c, 2, 56, 64
4, 268224, Note_on_c, 2, 64, 90
4, 268224, Note_on_c, 2, 52, 90
4, 268320, Note_off_c, 2, 64, 64
4, 268320, Note_off_c, 2, 52, 64
4, 268416, Note_on_c, 2, 64, 90
4, 268416, Note_on_c, 2, 52, 90
4, 269564, Note_off_c, 2, 52, 64
4, 269564, Note_off_c, 2, 64, 64
4, 269568, Note_on_c, 2, 60, 62
4, 269948, Note_off_c, 2, 60, 64
4, 269952, Note_on_c, 2, 59, 62
4, 270332, Note_off_c, 2, 59, 64
4, 270336, Note_on_c, 2, 57, 62
4, 270716, Note_off_c, 2, 57, 64
4, 270720, Note_on_c, 2, 56, 62
4, 271100, Note_off_c, 2, 56, 64
4, 271296, Note_on_c, 2, 64, 90
4, 271296, Note_on_c, 2, 52, 90
4, 271484, Note_off_c, 2, 64, 64
4, 271484, Note_off_c, 2, 52, 64
4, 271488, Note_on_c, 2, 64, 90
4, 271488, Note_on_c, 2, 52, 90
4, 272636, Note_off_c, 2, 52, 64
4, 272636, Note_off_c, 2, 64, 64
4, 273792, Note_on_c, 2, 64, 90
4, 273792, Note_on_c, 2, 52, 90
4, 274364, Note_off_c, 2, 64, 64
4, 274364, Note_off_c, 2, 52, 64
4, 274368, Note_on_c, 2, 62, 62
4, 274556, Note_off_c, 2, 62, 64
4, 274560, Note_on_c, 2, 64, 62
4, 274748, Note_off_c, 2, 64, 64
4, 274752, Note_on_c, 2, 63, 62
4, 274940, Note_off_c, 2, 63, 64
4, 274944, Note_on_c, 2, 64, 62
4, 275132, Note_off_c, 2, 64, 64
4, 275136, Note_on_c, 2, 63, 62
4, 275324, Note_off_c, 2, 63, 64
4, 275328, Note_on_c, 2, 64, 62
4, 275708, Note_off_c, 2, 64, 64
4, 276096, Note_on_c, 2, 57, 62
4, 278396, Note_off_c, 2, 57, 64
4, 278400, Note_on_c, 2, 57, 90
4, 278400, Note_on_c, 2, 45, 90
4, 278972, Note_off_c, 2, 57, 64
4, 278972, Note_off_c, 2, 45, 64
4, 278976, Note_on_c, 2, 56, 62
4, 279164, Note_off_c, 2, 56, 64
4, 279168, Note_on_c, 2, 57, 62
4, 279344, Note_on_c, 2, 56, 62
4, 279356, Note_off_c, 2, 57, 64
4, 279532, Note_off_c, 2, 56, 64
4, 279552, Note_on_c, 2, 57, 62
4, 279740, Note_off_c, 2, 57, 64
4, 279744, Note_on_c, 2, 56, 62
4, 279932, Note_off_c, 2, 56, 64
4, 279936, Note_on_c, 2, 57, 62
4, 283388, Note_off_c, 2, 57, 64
4, 283776, Note_on_c, 2, 64, 104
4, 283776, Note_on_c, 2, 60, 104
4, 283776, Note_on_c, 2, 57, 104
4, 283964, Note_off_c, 2, 64, 64
4, 283964, Note_off_c, 2, 60, 64
4, 283964, Note_off_c, 2, 57, 64
4, 283968, Note_on_c, 2, 64, 90
4, 283968, Note_on_c, 2, 60, 90
4, 283968, Note_on_c, 2, 57, 90
4, 284156, Note_off_c, 2, 64, 64
4, 284156, Note_off_c, 2, 60, 64
4, 284156, Note_off_c, 2, 57, 64
4, 284160, Note_on_c, 2, 64, 90
4, 284160, Note_on_c, 2, 60, 90
4, 284160, Note_on_c, 2, 57, 90
4, 284348, Note_off_c, 2, 64, 64
4, 284348, Note_off_c, 2, 60, 64
4, 284348, Note_off_c, 2, 57, 64
4, 284352, Note_on_c, 2, 64, 90
4, 284352, Note_on_c, 2, 60, 90
4, 284352, Note_on_c, 2, 57, 90
4, 284540, Note_off_c, 2, 64, 64
4, 284540, Note_off_c, 2, 60, 64
4, 284540, Note_off_c, 2, 57, 64
4, 284544, Note_on_c, 2, 64, 104
4, 284544, Note_on_c, 2, 60, 104
4, 284544, Note_on_c, 2, 57, 104
4, 284732, Note_off_c, 2, 64, 64
4, 284732, Note_off_c, 2, 60, 64
4, 284732, Note_off_c, 2, 57, 64
4, 284736, Note_on_c, 2, 64, 90
4, 284736, Note_on_c, 2, 60, 90
4, 284736, Note_on_c, 2, 57, 90
4, 284924, Note_off_c, 2, 64, 64
4, 284924, Note_off_c, 2, 60, 64
4, 284924, Note_off_c, 2, 57, 64
4, 284928, Note_on_c, 2, 64, 90
4, 284928, Note_on_c, 2, 60, 90
4, 284928, Note_on_c, 2, 57, 90
4, 285116, Note_off_c, 2, 64, 64
4, 285116, Note_off_c, 2, 60, 64
4, 285116, Note_off_c, 2, 57, 64
4, 285120, Note_on_c, 2, 64, 90
4, 285120, Note_on_c, 2, 60, 90
4, 285120, Note_on_c, 2, 57, 90
4, 285308, Note_off_c, 2, 64, 64
4, 285308, Note_off_c, 2, 60, 64
4, 285308, Note_off_c, 2, 57, 64
4, 285312, Note_on_c, 2, 64, 104
4, 285312, Note_on_c, 2, 60, 104
4, 285312, Note_on_c, 2, 57, 104
4, 285500, Note_off_c, 2, 64, 64
4, 285500, Note_off_c, 2, 60, 64
4, 285500, Note_off_c, 2, 57, 64
4, 285504, Note_on_c, 2, 64, 90
4, 285504, Note_on_c, 2, 60, 90
4, 285504, Note_on_c, 2, 57, 90
4, 285692, Note_off_c, 2, 64, 64
4, 285692, Note_off_c, 2, 60, 64
4, 285692, Note_off_c, 2, 57, 64
4, 285696, Note_on_c, 2, 64, 104
4, 285696, Note_on_c, 2, 57, 104
4, 285696, Note_on_c, 2, 62, 104
4, 285696, Note_on_c, 2, 59, 104
4, 285884, Note_off_c, 2, 64, 64
4, 285884, Note_off_c, 2, 57, 64
4, 285884, Note_off_c, 2, 62, 64
4, 285884, Note_off_c, 2, 59, 64
4, 285888, Note_on_c, 2, 64, 90
4, 285888, Note_on_c, 2, 57, 90
4, 285888, Note_on_c, 2, 62, 90
4, 285888, Note_on_c, 2, 59, 90
4, 286076, Note_off_c, 2, 64, 64
4, 286076, Note_off_c, 2, 57, 64
4, 286076, Note_off_c, 2, 62, 64
4, 286076, Note_off_c, 2, 59, 64
4, 286080, Note_on_c, 2, 64, 104
4, 286080, Note_on_c, 2, 60, 104
4, 286080, Note_on_c, 2, 57, 104
4, 286268, Note_off_c, 2, 64, 64
4, 286268, Note_off_c, 2, 60, 64
4, 286268, Note_off_c, 2, 57, 64
4, 286272, Note_on_c, 2, 64, 90
4, 286272, Note_on_c, 2, 60, 90
4, 286272, Note_on_c, 2, 57, 90
4, 286460, Note_off_c, 2, 64, 64
4, 286460, Note_off_c, 2, 60, 64
4, 286460, Note_off_c, 2, 57, 64
4, 286464, Note_on_c, 2, 64, 90
4, 286464, Note_on_c, 2, 60, 90
4, 286464, Note_on_c, 2, 57, 90
4, 286652, Note_off_c, 2, 64, 64
4, 286652, Note_off_c, 2, 60, 64
4, 286652, Note_off_c, 2, 57, 64
4, 286656, Note_on_c, 2, 64, 90
4, 286656, Note_on_c, 2, 60, 90
4, 286656, Note_on_c, 2, 57, 90
4, 286844, Note_off_c, 2, 64, 64
4, 286844, Note_off_c, 2, 60, 64
4, 286844, Note_off_c, 2, 57, 64
4, 286848, Note_on_c, 2, 64, 104
4, 286848, Note_on_c, 2, 60, 104
4, 286848, Note_on_c, 2, 57, 104
4, 287036, Note_off_c, 2, 64, 64
4, 287036, Note_off_c, 2, 60, 64
4, 287036, Note_off_c, 2, 57, 64
4, 287040, Note_on_c, 2, 64, 90
4, 287040, Note_on_c, 2, 60, 90
4, 287040, Note_on_c, 2, 57, 90
4, 287228, Note_off_c, 2, 64, 64
4, 287228, Note_off_c, 2, 60, 64
4, 287228, Note_off_c, 2, 57, 64
4, 287232, Note_on_c, 2, 64, 90
4, 287232, Note_on_c, 2, 60, 90
4, 287232, Note_on_c, 2, 57, 90
4, 287420, Note_off_c, 2, 64, 64
4, 287420, Note_off_c, 2, 60, 64
4, 287420, Note_off_c, 2, 57, 64
4, 287424, Note_on_c, 2, 64, 90
4, 287424, Note_on_c, 2, 60, 90
4, 287424, Note_on_c, 2, 57, 90
4, 287612, Note_off_c, 2, 64, 64
4, 287612, Note_off_c, 2, 60, 64
4, 287612, Note_off_c, 2, 57, 64
4, 287616, Note_on_c, 2, 64, 104
4, 287616, Note_on_c, 2, 60, 104
4, 287616, Note_on_c, 2, 57, 104
4, 287804, Note_off_c, 2, 64, 64
4, 287804, Note_off_c, 2, 60, 64
4, 287804, Note_off_c, 2, 57, 64
4, 287808, Note_on_c, 2, 64, 90
4, 287808, Note_on_c, 2, 60, 90
4, 287808, Note_on_c, 2, 57, 90
4, 287996, Note_off_c, 2, 64, 64
4, 287996, Note_off_c, 2, 60, 64
4, 287996, Note_off_c, 2, 57, 64
4, 288000, Note_on_c, 2, 64, 90
4, 288000, Note_on_c, 2, 60, 90
4, 288000, Note_on_c, 2, 57, 90
4, 288188, Note_off_c, 2, 64, 64
4, 288188, Note_off_c, 2, 60, 64
4, 288188, Note_off_c, 2, 57, 64
4, 288192, Note_on_c, 2, 64, 90
4, 288192, Note_on_c, 2, 60, 90
4, 288192, Note_on_c, 2, 57, 90
4, 288380, Note_off_c, 2, 64, 64
4, 288380, Note_off_c, 2, 60, 64
4, 288380, Note_off_c, 2, 57, 64
4, 288384, Note_on_c, 2, 64, 104
4, 288384, Note_on_c, 2, 60, 104
4, 288384, Note_on_c, 2, 57, 104
4, 288572, Note_off_c, 2, 64, 64
4, 288572, Note_off_c, 2, 60, 64
4, 288572, Note_off_c, 2, 57, 64
4, 288576, Note_on_c, 2, 64, 90
4, 288576, Note_on_c, 2, 60, 90
4, 288576, Note_on_c, 2, 57, 90
4, 288764, Note_off_c, 2, 64, 64
4, 288764, Note_off_c, 2, 60, 64
4, 288764, Note_off_c, 2, 57, 64
4, 288768, Note_on_c, 2, 64, 104
4, 288768, Note_on_c, 2, 62, 104
4, 288768, Note_on_c, 2, 59, 104
4, 288768, Note_on_c, 2, 57, 103
4, 288956, Note_off_c, 2, 64, 64
4, 288956, Note_off_c, 2, 62, 64
4, 288956, Note_off_c, 2, 59, 64
4, 288956, Note_off_c, 2, 57, 64
4, 288960, Note_on_c, 2, 64, 90
4, 288960, Note_on_c, 2, 62, 90
4, 288960, Note_on_c, 2, 59, 90
4, 288960, Note_on_c, 2, 57, 90
4, 289148, Note_off_c, 2, 64, 64
4, 289148, Note_off_c, 2, 62, 64
4, 289148, Note_off_c, 2, 59, 64
4, 289148, Note_off_c, 2, 57, 64
4, 289152, Note_on_c, 2, 64, 104
4, 289152, Note_on_c, 2, 60, 104
4, 289152, Note_on_c, 2, 57, 104
4, 289532, Note_off_c, 2, 64, 64
4, 289532, Note_off_c, 2, 60, 64
4, 289532, Note_off_c, 2, 57, 64
4, 289920, Note_on_c, 2, 45, 62
4, 290016, Note_off_c, 2, 45, 64
4, 290688, Note_on_c, 2, 33, 62
4, 290784, Note_off_c, 2, 33, 64
4, 291456, Note_on_c, 2, 45, 62
4, 291552, Note_off_c, 2, 45, 64
4, 291840, Note_on_c, 2, 40, 62
4, 291936, Note_off_c, 2, 40, 64
4, 292224, Note_on_c, 2, 33, 62
4, 292320, Note_off_c, 2, 33, 64
4, 292992, Note_on_c, 2, 45, 62
4, 293180, Note_off_c, 2, 45, 64
4, 293760, Note_on_c, 2, 33, 62
4, 293948, Note_off_c, 2, 33, 64
4, 294528, Note_on_c, 2, 45, 62
4, 294716, Note_off_c, 2, 45, 64
4, 294912, Note_on_c, 2, 40, 62
4, 295100, Note_off_c, 2, 40, 64
4, 295296, Note_on_c, 2, 33, 62
4, 295676, Note_off_c, 2, 33, 64
4, 295680, Note_on_c, 2, 52, 62
4, 295680, Note_on_c, 2, 48, 62
4, 296060, Note_off_c, 2, 52, 64
4, 296060, Note_off_c, 2, 48, 64
4, 296064, Note_on_c, 2, 53, 63
4, 296064, Note_on_c, 2, 50, 63
4, 296444, Note_off_c, 2, 53, 64
4, 296444, Note_off_c, 2, 50, 64
4, 296448, Note_on_c, 2, 55, 75
4, 296448, Note_on_c, 2, 52, 75
4, 296828, Note_off_c, 2, 55, 64
4, 296828, Note_off_c, 2, 52, 64
4, 296832, Note_on_c, 2, 53, 90
4, 297212, Note_off_c, 2, 53, 64
4, 297216, Note_on_c, 2, 53, 62
4, 297596, Note_off_c, 2, 53, 64
4, 297600, Note_on_c, 2, 55, 63
4, 297600, Note_on_c, 2, 52, 63
4, 297980, Note_off_c, 2, 55, 64
4, 297980, Note_off_c, 2, 52, 64
4, 297984, Note_on_c, 2, 53, 75
4, 297984, Note_on_c, 2, 50, 75
4, 298364, Note_off_c, 2, 53, 64
4, 298364, Note_off_c, 2, 50, 64
4, 298368, Note_on_c, 2, 52, 90
4, 298368, Note_on_c, 2, 48, 90
4, 298748, Note_off_c, 2, 52, 64
4, 298748, Note_off_c, 2, 48, 64
4, 298752, Note_on_c, 2, 52, 62
4, 298752, Note_on_c, 2, 49, 62
4, 298752, Note_on_c, 2, 57, 62
4, 298940, Note_off_c, 2, 57, 64
4, 298944, Note_on_c, 2, 57, 62
4, 299132, Note_off_c, 2, 52, 64
4, 299132, Note_off_c, 2, 49, 64
4, 299132, Note_off_c, 2, 57, 64
4, 299136, Note_on_c, 2, 57, 62
4, 299136, Note_on_c, 2, 53, 62
4, 299136, Note_on_c, 2, 50, 62
4, 299516, Note_off_c, 2, 53, 64
4, 299516, Note_off_c, 2, 50, 64
4, 299520, Note_on_c, 2, 55, 62
4, 299520, Note_on_c, 2, 52, 62
4, 299900, Note_off_c, 2, 57, 64
4, 299900, Note_off_c, 2, 55, 64
4, 299900, Note_off_c, 2, 52, 64
4, 299904, Note_on_c, 2, 57, 90
4, 299904, Note_on_c, 2, 53, 90
4, 300284, Note_off_c, 2, 57, 64
4, 300284, Note_off_c, 2, 53, 64
4, 300288, Note_on_c, 2, 62, 90
4, 300288, Note_on_c, 2, 57, 90
4, 300288, Note_on_c, 2, 50, 90
4, 300668, Note_off_c, 2, 62, 64
4, 300668, Note_off_c, 2, 57, 64
4, 300668, Note_off_c, 2, 50, 64
4, 300672, Note_on_c, 2, 64, 90
4, 300672, Note_on_c, 2, 52, 90
4, 301052, Note_off_c, 2, 64, 64
4, 301052, Note_off_c, 2, 52, 64
4, 301056, Note_on_c, 2, 64, 90
4, 301056, Note_on_c, 2, 52, 90
4, 301436, Note_off_c, 2, 64, 64
4, 301436, Note_off_c, 2, 52, 64
4, 301440, Note_on_c, 2, 57, 90
4, 301440, Note_on_c, 2, 45, 90
4, 301820, Note_off_c, 2, 57, 64
4, 301820, Note_off_c, 2, 45, 64
4, 301824, Note_on_c, 2, 55, 62
4, 301824, Note_on_c, 2, 52, 62
4, 301824, Note_on_c, 2, 49, 62
4, 302204, Note_off_c, 2, 55, 64
4, 302204, Note_off_c, 2, 52, 64
4, 302204, Note_off_c, 2, 49, 64
4, 302208, Note_on_c, 2, 53, 62
4, 302208, Note_on_c, 2, 50, 62
4, 302588, Note_off_c, 2, 53, 64
4, 302588, Note_off_c, 2, 50, 64
4, 302592, Note_on_c, 2, 64, 73
4, 302592, Note_on_c, 2, 57, 73
4, 302592, Note_on_c, 2, 55, 73
4, 302592, Note_on_c, 2, 52, 73
4, 302972, Note_off_c, 2, 64, 64
4, 302972, Note_off_c, 2, 57, 64
4, 302972, Note_off_c, 2, 55, 64
4, 302972, Note_off_c, 2, 52, 64
4, 302976, Note_on_c, 2, 62, 62
4, 302976, Note_on_c, 2, 57, 62
4, 302976, Note_on_c, 2, 53, 62
4, 303356, Note_off_c, 2, 62, 64
4, 303356, Note_off_c, 2, 57, 64
4, 303356, Note_off_c, 2, 53, 64
4, 304896, Note_on_c, 2, 55, 62
4, 304896, Note_on_c, 2, 52, 62
4, 304896, Note_on_c, 2, 49, 62
4, 305276, Note_off_c, 2, 55, 64
4, 305276, Note_off_c, 2, 52, 64
4, 305276, Note_off_c, 2, 49, 64
4, 305280, Note_on_c, 2, 53, 62
4, 305280, Note_on_c, 2, 50, 62
4, 305660, Note_off_c, 2, 53, 64
4, 305660, Note_off_c, 2, 50, 64
4, 305664, Note_on_c, 2, 57, 73
4, 305664, Note_on_c, 2, 55, 73
4, 305664, Note_on_c, 2, 52, 73
4, 305664, Note_on_c, 2, 64, 73
4, 306044, Note_off_c, 2, 57, 64
4, 306044, Note_off_c, 2, 55, 64
4, 306044, Note_off_c, 2, 52, 64
4, 306044, Note_off_c, 2, 64, 64
4, 306048, Note_on_c, 2, 62, 73
4, 306048, Note_on_c, 2, 57, 73
4, 306048, Note_on_c, 2, 53, 73
4, 306236, Note_off_c, 2, 62, 64
4, 306236, Note_off_c, 2, 57, 64
4, 306236, Note_off_c, 2, 53, 64
4, 306816, Note_on_c, 2, 63, 73
4, 306816, Note_on_c, 2, 57, 73
4, 306816, Note_on_c, 2, 54, 73
4, 307004, Note_off_c, 2, 63, 64
4, 307004, Note_off_c, 2, 57, 64
4, 307004, Note_off_c, 2, 54, 64
4, 307584, Note_on_c, 2, 40, 92
4, 307584, Note_on_c, 2, 40, 92
4, 307772, Note_off_c, 2, 40, 64
4, 307776, Note_on_c, 2, 52, 62
4, 307964, Note_off_c, 2, 40, 64
4, 307964, Note_off_c, 2, 52, 64
4, 307968, Note_on_c, 2, 52, 62
4, 308156, Note_off_c, 2, 52, 64
4, 308160, Note_on_c, 2, 52, 62
4, 308348, Note_off_c, 2, 52, 64
4, 308352, Note_on_c, 2, 40, 90
4, 308352, Note_on_c, 2, 40, 90
4, 308540, Note_off_c, 2, 40, 64
4, 308544, Note_on_c, 2, 52, 62
4, 308732, Note_off_c, 2, 40, 64
4, 308732, Note_off_c, 2, 52, 64
4, 308736, Note_on_c, 2, 52, 62
4, 308924, Note_off_c, 2, 52, 64
4, 308928, Note_on_c, 2, 52, 62
4, 309116, Note_off_c, 2, 52, 64
4, 309120, Note_on_c, 2, 40, 90
4, 309120, Note_on_c, 2, 40, 90
4, 309308, Note_off_c, 2, 40, 64
4, 309312, Note_on_c, 2, 52, 62
4, 309500, Note_off_c, 2, 40, 64
4, 309500, Note_off_c, 2, 52, 64
4, 309504, Note_on_c, 2, 52, 62
4, 309692, Note_off_c, 2, 52, 64
4, 309696, Note_on_c, 2, 52, 62
4, 309884, Note_off_c, 2, 52, 64
4, 309888, Note_on_c, 2, 40, 90
4, 309888, Note_on_c, 2, 40, 90
4, 310076, Note_off_c, 2, 40, 64
4, 310080, Note_on_c, 2, 52, 62
4, 310268, Note_off_c, 2, 40, 64
4, 310268, Note_off_c, 2, 52, 64
4, 310272, Note_on_c, 2, 52, 62
4, 310460, Note_off_c, 2, 52, 64
4, 310464, Note_on_c, 2, 52, 62
4, 310652, Note_off_c, 2, 52, 64
4, 310656, Key_signature, 3, "major"
4, 310656, Note_on_c, 2, 52, 62
4, 310656, Note_on_c, 2, 40, 62
4, 311224, Note_off_c, 2, 52, 64
4, 311224, Note_off_c, 2, 40, 64
4, 319488, Note_on_c, 2, 45, 62
4, 319868, Note_off_c, 2, 45, 64
4, 320256, Note_on_c, 2, 50, 62
4, 320636, Note_off_c, 2, 50, 64
4, 321408, Note_on_c, 2, 59, 62
4, 321692, Note_off_c, 2, 59, 64
4, 321696, Note_on_c, 2, 57, 62
4, 321788, Note_off_c, 2, 57, 64
4, 321792, Note_on_c, 2, 56, 62
4, 321980, Note_off_c, 2, 56, 64
4, 322176, Note_on_c, 2, 52, 62
4, 322364, Note_off_c, 2, 52, 64
4, 322560, Note_on_c, 2, 52, 62
4, 322748, Note_off_c, 2, 52, 64
4, 322944, Note_on_c, 2, 45, 62
4, 323708, Note_off_c, 2, 45, 64
4, 324096, Note_on_c, 2, 45, 62
4, 324476, Note_off_c, 2, 45, 64
4, 324864, Note_on_c, 2, 57, 62
4, 325244, Note_off_c, 2, 57, 64
4, 325248, Note_on_c, 2, 57, 62
4, 325628, Note_off_c, 2, 57, 64
4, 326016, Note_on_c, 2, 57, 62
4, 326396, Note_off_c, 2, 57, 64
4, 326400, Note_on_c, 2, 57, 62
4, 326588, Note_off_c, 2, 57, 64
4, 326784, Note_on_c, 2, 50, 62
4, 326972, Note_off_c, 2, 50, 64
4, 327168, Note_on_c, 2, 51, 62
4, 327356, Note_off_c, 2, 51, 64
4, 327552, Note_on_c, 2, 52, 62
4, 327740, Note_off_c, 2, 52, 64
4, 328304, Note_on_c, 2, 64, 90
4, 328588, Note_off_c, 2, 64, 64
4, 328608, Note_on_c, 2, 62, 90
4, 328700, Note_off_c, 2, 62, 64
4, 328704, Note_on_c, 2, 57, 90
4, 328704, Note_on_c, 2, 62, 90
4, 329084, Note_off_c, 2, 62, 64
4, 329088, Note_on_c, 2, 64, 90
4, 329468, Note_off_c, 2, 57, 64
4, 329468, Note_off_c, 2, 64, 64
4, 329472, Note_on_c, 2, 62, 90
4, 329852, Note_off_c, 2, 62, 64
4, 329856, Note_on_c, 2, 61, 90
4, 329856, Note_on_c, 2, 52, 90
4, 330236, Note_off_c, 2, 61, 64
4, 330240, Note_on_c, 2, 59, 90
4, 330620, Note_off_c, 2, 52, 64
4, 330620, Note_off_c, 2, 59, 64
4, 330624, Note_on_c, 2, 59, 90
4, 330908, Note_off_c, 2, 59, 64
4, 330912, Note_on_c, 2, 57, 90
4, 331004, Note_off_c, 2, 57, 64
4, 331008, Note_on_c, 2, 56, 90
4, 331008, Note_on_c, 2, 52, 90
4, 331388, Note_off_c, 2, 56, 64
4, 331388, Note_off_c, 2, 52, 64
4, 331392, Note_on_c, 2, 52, 90
4, 331392, Note_on_c, 2, 57, 90
4, 331580, Note_off_c, 2, 57, 64
4, 331584, Note_on_c, 2, 59, 90
4, 331772, Note_off_c, 2, 52, 64
4, 331772, Note_off_c, 2, 59, 64
4, 331776, Note_on_c, 2, 52, 90
4, 331776, Note_on_c, 2, 61, 90
4, 331964, Note_off_c, 2, 61, 64
4, 331968, Note_on_c, 2, 62, 90
4, 332156, Note_off_c, 2, 52, 64
4, 332156, Note_off_c, 2, 62, 64
4, 332160, Note_on_c, 2, 61, 90
4, 332160, Note_on_c, 2, 57, 90
4, 332444, Note_off_c, 2, 61, 64
4, 332448, Note_on_c, 2, 64, 90
4, 332540, Note_off_c, 2, 64, 64
4, 332544, Note_on_c, 2, 61, 90
4, 332924, Note_off_c, 2, 57, 64
4, 332924, Note_off_c, 2, 61, 64
4, 333504, Note_on_c, 2, 50, 90
4, 333600, Note_off_c, 2, 50, 64
4, 333696, Note_on_c, 2, 54, 90
4, 333792, Note_off_c, 2, 54, 64
4, 333888, Note_on_c, 2, 57, 90
4, 333984, Note_off_c, 2, 57, 64
4, 334080, Note_on_c, 2, 62, 90
4, 334176, Note_off_c, 2, 62, 64
4, 334272, Note_on_c, 2, 61, 90
4, 334368, Note_off_c, 2, 61, 64
4, 334656, Note_on_c, 2, 54, 90
4, 334752, Note_off_c, 2, 54, 64
4, 334848, Note_on_c, 2, 57, 90
4, 334944, Note_off_c, 2, 57, 64
4, 335040, Note_on_c, 2, 62, 90
4, 335136, Note_off_c, 2, 62, 64
4, 335232, Note_on_c, 2, 66, 90
4, 335328, Note_off_c, 2, 66, 64
4, 335424, Note_on_c, 2, 64, 90
4, 335520, Note_off_c, 2, 64, 64
4, 335616, Note_on_c, 2, 62, 90
4, 335996, Note_off_c, 2, 62, 64
4, 336000, Note_on_c, 2, 64, 90
4, 336380, Note_off_c, 2, 64, 64
4, 336384, Note_on_c, 2, 52, 90
4, 336764, Note_off_c, 2, 52, 64
4, 336768, Note_on_c, 2, 57, 90
4, 337148, Note_off_c, 2, 57, 64
4, 337920, Note_on_c, 2, 52, 62
4, 337920, Note_on_c, 2, 40, 62
4, 338300, Note_off_c, 2, 52, 64
4, 338300, Note_off_c, 2, 40, 64
4, 339072, Note_on_c, 2, 45, 61
4, 339452, Note_off_c, 2, 45, 64
4, 340224, Note_on_c, 2, 52, 57
4, 340224, Note_on_c, 2, 40, 57
4, 340604, Note_off_c, 2, 52, 64
4, 340604, Note_off_c, 2, 40, 64
4, 341376, Note_on_c, 2, 45, 62
4, 341376, Note_on_c, 2, 33, 62
4, 344060, Note_off_c, 2, 33, 64
4, 344060, Note_off_c, 2, 45, 64
4, 344832, Note_on_c, 2, 55, 62
4, 344832, Note_on_c, 2, 43, 62
4, 345212, Note_off_c, 2, 55, 64
4, 345212, Note_off_c, 2, 43, 64
4, 345984, Note_on_c, 2, 54, 62
4, 345984, Note_on_c, 2, 42, 62
4, 346364, Note_off_c, 2, 54, 64
4, 346364, Note_off_c, 2, 42, 64
4, 347136, Note_on_c, 2, 49, 62
4, 347516, Note_off_c, 2, 49, 64
4, 348288, Note_on_c, 2, 50, 62
4, 348668, Note_off_c, 2, 50, 64
4, 349440, Note_on_c, 2, 50, 55
4, 350012, Note_off_c, 2, 50, 64
4, 350016, Note_on_c, 2, 62, 67
4, 350204, Note_off_c, 2, 62, 64
4, 350208, Note_on_c, 2, 61, 73
4, 350396, Note_off_c, 2, 61, 64
4, 350400, Note_on_c, 2, 59, 75
4, 350588, Note_off_c, 2, 59, 64
4, 350592, Note_on_c, 2, 57, 81
4, 350972, Note_off_c, 2, 57, 64
4, 351360, Note_on_c, 2, 54, 81
4, 351740, Note_off_c, 2, 54, 64
4, 352512, Note_on_c, 2, 62, 81
4, 352512, Note_on_c, 2, 50, 81
4, 352892, Note_off_c, 2, 62, 64
4, 352892, Note_off_c, 2, 50, 64
4, 352896, Note_on_c, 2, 61, 81
4, 352896, Note_on_c, 2, 52, 81
4, 353276, Note_off_c, 2, 61, 64
4, 353280, Note_on_c, 2, 59, 81
4, 353660, Note_off_c, 2, 52, 64
4, 353660, Note_off_c, 2, 59, 64
4, 353664, Note_on_c, 2, 64, 90
4, 353756, Note_off_c, 2, 64, 64
4, 353760, Note_on_c, 2, 63, 90
4, 353852, Note_off_c, 2, 63, 64
4, 353856, Note_on_c, 2, 64, 90
4, 353948, Note_off_c, 2, 64, 64
4, 353952, Note_on_c, 2, 63, 90
4, 354044, Note_off_c, 2, 63, 64
4, 354048, Note_on_c, 2, 64, 90
4, 354240, Note_off_c, 2, 64, 64
4, 354432, Note_on_c, 2, 52, 90
4, 354624, Note_off_c, 2, 52, 64
4, 355200, Note_on_c, 2, 52, 73
4, 355392, Note_on_c, 2, 64, 73
4, 355772, Note_off_c, 2, 64, 64
4, 355776, Note_on_c, 2, 62, 73
4, 355964, Note_off_c, 2, 62, 64
4, 355968, Note_on_c, 2, 61, 73
4, 356060, Note_off_c, 2, 61, 64
4, 356064, Note_on_c, 2, 59, 73
4, 356156, Note_off_c, 2, 59, 64
4, 356160, Note_on_c, 2, 61, 73
4, 356252, Note_off_c, 2, 61, 64
4, 356256, Note_on_c, 2, 58, 73
4, 356348, Note_off_c, 2, 58, 64
4, 356352, Note_on_c, 2, 62, 73
4, 356528, Note_on_c, 2, 62, 73
4, 356540, Note_off_c, 2, 62, 64
4, 356908, Note_off_c, 2, 62, 64
4, 356928, Note_on_c, 2, 61, 73
4, 357116, Note_off_c, 2, 61, 64
4, 357120, Note_on_c, 2, 59, 73
4, 357212, Note_off_c, 2, 59, 64
4, 357216, Note_on_c, 2, 57, 73
4, 357308, Note_off_c, 2, 57, 64
4, 357312, Note_on_c, 2, 59, 73
4, 357404, Note_off_c, 2, 59, 64
4, 357408, Note_on_c, 2, 57, 73
4, 357500, Note_off_c, 2, 52, 64
4, 357500, Note_off_c, 2, 57, 64
4, 357504, Note_on_c, 2, 57, 73
4, 357692, Note_off_c, 2, 57, 64
4, 357888, Note_on_c, 2, 54, 73
4, 358076, Note_off_c, 2, 54, 64
4, 358272, Note_on_c, 2, 50, 73
4, 358460, Note_off_c, 2, 50, 64
4, 358656, Note_on_c, 2, 52, 73
4, 359420, Note_off_c, 2, 52, 64
4, 359808, Note_on_c, 2, 57, 73
4, 360188, Note_off_c, 2, 57, 64
4, 362112, Note_on_c, 2, 57, 73
4, 362492, Note_off_c, 2, 57, 64
4, 362496, Note_on_c, 2, 54, 73
4, 362876, Note_off_c, 2, 54, 64
4, 362880, Note_on_c, 2, 54, 73
4, 363260, Note_off_c, 2, 54, 64
4, 363264, Note_on_c, 2, 59, 73
4, 363264, Note_on_c, 2, 52, 73
4, 364028, Note_off_c, 2, 59, 64
4, 364028, Note_off_c, 2, 52, 64
4, 364416, Note_on_c, 2, 57, 81
4, 364416, Note_on_c, 2, 45, 81
4, 364796, Note_off_c, 2, 57, 64
4, 364796, Note_off_c, 2, 45, 64
4, 365184, Note_on_c, 2, 57, 81
4, 365376, Note_off_c, 2, 57, 64
4, 365568, Note_on_c, 2, 56, 81
4, 365664, Note_off_c, 2, 56, 64
4, 366336, Note_on_c, 2, 52, 81
4, 366432, Note_off_c, 2, 52, 64
4, 366720, Note_on_c, 2, 57, 81
4, 366912, Note_off_c, 2, 57, 64
4, 367488, Note_on_c, 2, 57, 81
4, 367680, Note_off_c, 2, 57, 64
4, 367872, Note_on_c, 2, 56, 81
4, 367968, Note_off_c, 2, 56, 64
4, 368640, Note_on_c, 2, 52, 81
4, 368736, Note_off_c, 2, 52, 64
4, 369024, Note_on_c, 2, 57, 81
4, 369024, Note_on_c, 2, 45, 81
4, 370172, Note_off_c, 2, 57, 64
4, 370172, Note_off_c, 2, 45, 64
4, 370176, Note_on_c, 2, 45, 81
4, 371324, Note_off_c, 2, 45, 64
4, 371328, Note_on_c, 2, 50, 81
4, 371520, Note_off_c, 2, 50, 64
4, 371712, Note_on_c, 2, 52, 81
4, 371904, Note_off_c, 2, 52, 64
4, 372096, Note_on_c, 2, 52, 81
4, 372288, Note_off_c, 2, 52, 64
4, 372480, Note_on_c, 2, 61, 81
4, 372480, Note_on_c, 2, 57, 81
4, 372860, Note_off_c, 2, 61, 64
4, 372864, Note_on_c, 2, 62, 81
4, 373244, Note_off_c, 2, 62, 64
4, 373248, Note_on_c, 2, 64, 81
4, 373628, Note_off_c, 2, 57, 64
4, 373628, Note_off_c, 2, 64, 64
4, 373632, Note_on_c, 2, 62, 81
4, 373632, Note_on_c, 2, 57, 81
4, 374012, Note_off_c, 2, 62, 64
4, 374016, Note_on_c, 2, 59, 81
4, 374396, Note_off_c, 2, 59, 64
4, 374400, Note_on_c, 2, 61, 81
4, 374780, Note_off_c, 2, 57, 64
4, 374780, Note_off_c, 2, 61, 64
4, 374784, Note_on_c, 2, 69, 54
4, 375932, Note_off_c, 2, 69, 64
4, 375936, Note_on_c, 2, 62, 81
4, 376316, Note_off_c, 2, 62, 64
4, 376320, Note_on_c, 2, 64, 81
4, 376700, Note_off_c, 2, 64, 64
4, 376704, Note_on_c, 2, 64, 81
4, 376704, Note_on_c, 2, 52, 81
4, 377084, Note_off_c, 2, 64, 64
4, 377084, Note_off_c, 2, 52, 64
4, 377088, Note_on_c, 2, 64, 81
4, 377088, Note_on_c, 2, 57, 81
4, 377468, Note_off_c, 2, 64, 64
4, 377472, Note_on_c, 2, 61, 81
4, 377852, Note_off_c, 2, 57, 64
4, 377852, Note_off_c, 2, 61, 64
4, 378624, Note_on_c, 2, 50, 62
4, 378816, Note_off_c, 2, 50, 64
4, 379776, Note_on_c, 2, 52, 62
4, 379968, Note_off_c, 2, 52, 64
4, 380928, Note_on_c, 2, 52, 62
4, 380928, Note_on_c, 2, 45, 62
4, 381120, Note_off_c, 2, 52, 64
4, 381120, Note_off_c, 2, 45, 64
4, 381696, Note_on_c, 2, 58, 90
4, 381696, Note_on_c, 2, 46, 90
4, 382076, Note_off_c, 2, 58, 64
4, 382076, Note_off_c, 2, 46, 64
4, 382080, Note_on_c, 2, 59, 90
4, 382080, Note_on_c, 2, 47, 90
4, 382460, Note_off_c, 2, 59, 64
4, 382460, Note_off_c, 2, 47, 64
4, 382848, Note_on_c, 2, 53, 90
4, 382848, Note_on_c, 2, 41, 90
4, 383228, Note_off_c, 2, 53, 64
4, 383228, Note_off_c, 2, 41, 64
4, 383232, Note_on_c, 2, 52, 90
4, 383232, Note_on_c, 2, 40, 90
4, 383612, Note_off_c, 2, 52, 64
4, 383612, Note_off_c, 2, 40, 64
4, 384384, Note_on_c, 2, 57, 90
4, 384764, Note_off_c, 2, 57, 64
4, 384768, Note_on_c, 2, 57, 90
4, 385148, Note_off_c, 2, 57, 64
4, 385152, Note_on_c, 2, 57, 90
4, 385916, Note_off_c, 2, 57, 64
4, 386304, Note_on_c, 2, 45, 62
4, 387068, Note_off_c, 2, 45, 64
4, 387456, Note_on_c, 2, 52, 62
4, 388220, Note_off_c, 2, 52, 64
4, 388608, Note_on_c, 2, 52, 62
4, 388988, Note_off_c, 2, 52, 64
4, 388992, Note_on_c, 2, 52, 62
4, 389372, Note_off_c, 2, 52, 64
4, 389376, Note_on_c, 2, 52, 62
4, 389756, Note_off_c, 2, 52, 64
4, 389760, Note_on_c, 2, 45, 62
4, 390140, Note_off_c, 2, 45, 64
4, 390912, Note_on_c, 2, 64, 62
4, 390912, Note_on_c, 2, 61, 62
4, 391292, Note_off_c, 2, 64, 64
4, 391292, Note_off_c, 2, 61, 64
4, 391296, Note_on_c, 2, 61, 62
4, 391296, Note_on_c, 2, 57, 62
4, 391664, Note_on_c, 2, 62, 62
4, 391676, Note_off_c, 2, 61, 64
4, 391676, Note_off_c, 2, 57, 64
4, 391680, Note_on_c, 2, 66, 62
4, 392044, Note_off_c, 2, 62, 64
4, 392060, Note_off_c, 2, 66, 64
4, 392064, Note_on_c, 2, 64, 62
4, 392064, Note_on_c, 2, 61, 62
4, 392444, Note_off_c, 2, 64, 64
4, 392444, Note_off_c, 2, 61, 64
4, 392448, Note_on_c, 2, 61, 62
4, 392448, Note_on_c, 2, 57, 62
4, 392828, Note_off_c, 2, 61, 64
4, 392828, Note_off_c, 2, 57, 64
4, 392832, Note_on_c, 2, 66, 62
4, 392832, Note_on_c, 2, 62, 62
4, 393212, Note_off_c, 2, 66, 64
4, 393212, Note_off_c, 2, 62, 64
4, 393216, Note_on_c, 2, 61, 62
4, 393216, Note_on_c, 2, 57, 62
4, 393596, Note_off_c, 2, 61, 64
4, 393596, Note_off_c, 2, 57, 64
4, 393600, Note_on_c, 2, 62, 62
4, 393600, Note_on_c, 2, 54, 62
4, 393980, Note_off_c, 2, 62, 64
4, 393980, Note_off_c, 2, 54, 64
4, 393984, Note_on_c, 2, 54, 62
4, 394364, Note_off_c, 2, 54, 64
4, 394368, Note_on_c, 2, 52, 62
4, 394748, Note_off_c, 2, 52, 64
4, 395520, Note_on_c, 2, 45, 90
4, 395804, Note_off_c, 2, 45, 64
4, 395808, Note_on_c, 2, 49, 100
4, 395852, Note_off_c, 2, 49, 64
4, 395856, Note_on_c, 2, 52, 99
4, 395900, Note_off_c, 2, 52, 64
4, 395904, Note_on_c, 2, 57, 90
4, 396092, Note_off_c, 2, 57, 64
4, 396096, Note_on_c, 2, 57, 90
4, 396192, Note_off_c, 2, 57, 64
4, 396288, Note_on_c, 2, 57, 90
4, 396384, Note_off_c, 2, 57, 64
4, 396480, Note_on_c, 2, 57, 90
4, 396576, Note_off_c, 2, 57, 64
4, 396672, Note_on_c, 2, 40, 90
4, 396956, Note_off_c, 2, 40, 64
4, 396960, Note_on_c, 2, 45, 100
4, 397004, Note_off_c, 2, 45, 64
4, 397008, Note_on_c, 2, 49, 99
4, 397052, Note_off_c, 2, 49, 64
4, 397056, Note_on_c, 2, 52, 90
4, 397244, Note_off_c, 2, 52, 64
4, 397248, Note_on_c, 2, 52, 90
4, 397344, Note_off_c, 2, 52, 64
4, 397440, Note_on_c, 2, 52, 90
4, 397536, Note_off_c, 2, 52, 64
4, 397632, Note_on_c, 2, 52, 90
4, 397728, Note_off_c, 2, 52, 64
4, 397824, Note_on_c, 2, 40, 90
4, 398108, Note_off_c, 2, 40, 64
4, 398112, Note_on_c, 2, 44, 100
4, 398156, Note_off_c, 2, 44, 64
4, 398160, Note_on_c, 2, 47, 99
4, 398204, Note_off_c, 2, 47, 64
4, 398208, Note_on_c, 2, 52, 90
4, 398396, Note_off_c, 2, 52, 64
4, 398400, Note_on_c, 2, 52, 90
4, 398496, Note_off_c, 2, 52, 64
4, 398592, Note_on_c, 2, 52, 90
4, 398688, Note_off_c, 2, 52, 64
4, 398784, Note_on_c, 2, 52, 90
4, 398880, Note_off_c, 2, 52, 64
4, 398976, Note_on_c, 2, 45, 90
4, 399260, Note_off_c, 2, 45, 64
4, 399264, Note_on_c, 2, 49, 100
4, 399308, Note_off_c, 2, 49, 64
4, 399312, Note_on_c, 2, 52, 99
4, 399356, Note_off_c, 2, 52, 64
4, 399360, Note_on_c, 2, 57, 90
4, 399548, Note_off_c, 2, 57, 64
4, 399552, Note_on_c, 2, 57, 90
4, 399648, Note_off_c, 2, 57, 64
4, 399744, Note_on_c, 2, 57, 90
4, 399840, Note_off_c, 2, 57, 64
4, 399936, Note_on_c, 2, 57, 90
4, 400032, Note_off_c, 2, 57, 64
4, 400128, Note_on_c, 2, 46, 90
4, 400412, Note_off_c, 2, 46, 64
4, 400416, Note_on_c, 2, 49, 100
4, 400460, Note_off_c, 2, 49, 64
4, 400464, Note_on_c, 2, 52, 99
4, 400508, Note_off_c, 2, 52, 64
4, 400512, Note_on_c, 2, 58, 90
4, 400700, Note_off_c, 2, 58, 64
4, 400704, Note_on_c, 2, 58, 90
4, 400800, Note_off_c, 2, 58, 64
4, 400896, Note_on_c, 2, 58, 90
4, 400992, Note_off_c, 2, 58, 64
4, 401088, Note_on_c, 2, 58, 90
4, 401184, Note_off_c, 2, 58, 64
4, 401280, Note_on_c, 2, 47, 90
4, 401564, Note_off_c, 2, 47, 64
4, 401568, Note_on_c, 2, 50, 100
4, 401612, Note_off_c, 2, 50, 64
4, 401616, Note_on_c, 2, 54, 99
4, 401660, Note_off_c, 2, 54, 64
4, 401664, Note_on_c, 2, 59, 90
4, 401852, Note_off_c, 2, 59, 64
4, 401856, Note_on_c, 2, 47, 90
4, 401952, Note_off_c, 2, 47, 64
4, 402048, Note_on_c, 2, 47, 90
4, 402144, Note_off_c, 2, 47, 64
4, 402240, Note_on_c, 2, 49, 90
4, 402336, Note_off_c, 2, 49, 64
4, 402432, Note_on_c, 2, 50, 90
4, 402608, Note_on_c, 2, 47, 90
4, 402620, Note_off_c, 2, 50, 64
4, 402796, Note_off_c, 2, 47, 64
4, 402816, Note_on_c, 2, 52, 90
4, 403196, Note_off_c, 2, 52, 64
4, 403200, Note_on_c, 2, 52, 90
4, 403580, Note_off_c, 2, 52, 64
4, 403584, Note_on_c, 2, 45, 90
4, 403868, Note_off_c, 2, 45, 64
4, 403872, Note_on_c, 2, 49, 100
4, 403916, Note_off_c, 2, 49, 64
4, 403920, Note_on_c, 2, 50, 99
4, 403964, Note_off_c, 2, 50, 64
4, 403968, Note_on_c, 2, 57, 90
4, 404156, Note_off_c, 2, 57, 64
4, 404160, Note_on_c, 2, 57, 90
4, 404256, Note_off_c, 2, 57, 64
4, 404352, Note_on_c, 2, 57, 90
4, 404448, Note_off_c, 2, 57, 64
4, 404544, Note_on_c, 2, 57, 90
4, 404640, Note_off_c, 2, 57, 64
4, 404736, Note_on_c, 2, 50, 90
4, 405020, Note_off_c, 2, 50, 64
4, 405024, Note_on_c, 2, 54, 100
4, 405068, Note_off_c, 2, 54, 64
4, 405072, Note_on_c, 2, 57, 99
4, 405116, Note_off_c, 2, 57, 64
4, 405120, Note_on_c, 2, 62, 90
4, 405308, Note_off_c, 2, 62, 64
4, 405312, Note_on_c, 2, 62, 90
4, 405408, Note_off_c, 2, 62, 64
4, 405504, Note_on_c, 2, 62, 90
4, 405600, Note_off_c, 2, 62, 64
4, 405696, Note_on_c, 2, 64, 90
4, 405696, Note_on_c, 2, 61, 90
4, 405792, Note_off_c, 2, 64, 64
4, 405792, Note_off_c, 2, 61, 64
4, 405888, Note_on_c, 2, 64, 90
4, 405888, Note_on_c, 2, 59, 90
4, 406268, Note_off_c, 2, 64, 64
4, 406268, Note_off_c, 2, 59, 64
4, 406272, Note_on_c, 2, 64, 90
4, 406272, Note_on_c, 2, 59, 90
4, 406272, Note_on_c, 2, 52, 90
4, 406652, Note_off_c, 2, 64, 64
4, 406652, Note_off_c, 2, 59, 64
4, 406652, Note_off_c, 2, 52, 64
4, 409344, Note_on_c, 2, 64, 90
4, 409344, Note_on_c, 2, 52, 90
4, 409532, Note_off_c, 2, 64, 64
4, 409532, Note_off_c, 2, 52, 64
4, 409536, Note_on_c, 2, 64, 90
4, 409536, Note_on_c, 2, 52, 90
4, 409724, Note_off_c, 2, 64, 64
4, 409724, Note_off_c, 2, 52, 64
4, 409728, Note_on_c, 2, 64, 90
4, 409728, Note_on_c, 2, 52, 90
4, 409916, Note_off_c, 2, 64, 64
4, 409916, Note_off_c, 2, 52, 64
4, 409920, Note_on_c, 2, 64, 90
4, 409920, Note_on_c, 2, 52, 90
4, 410108, Note_off_c, 2, 64, 64
4, 410108, Note_off_c, 2, 52, 64
4, 410112, Note_on_c, 2, 64, 90
4, 410112, Note_on_c, 2, 52, 90
4, 410300, Note_off_c, 2, 64, 64
4, 410300, Note_off_c, 2, 52, 64
4, 410304, Note_on_c, 2, 64, 90
4, 410304, Note_on_c, 2, 52, 90
4, 410492, Note_off_c, 2, 64, 64
4, 410492, Note_off_c, 2, 52, 64
4, 410496, Note_on_c, 2, 52, 90
4, 410496, Note_on_c, 2, 40, 90
4, 410684, Note_off_c, 2, 52, 64
4, 410684, Note_off_c, 2, 40, 64
4, 410688, Note_on_c, 2, 52, 90
4, 410688, Note_on_c, 2, 40, 90
4, 410876, Note_off_c, 2, 52, 64
4, 410876, Note_off_c, 2, 40, 64
4, 410880, Note_on_c, 2, 52, 90
4, 410880, Note_on_c, 2, 40, 90
4, 411068, Note_off_c, 2, 52, 64
4, 411068, Note_off_c, 2, 40, 64
4, 411072, Note_on_c, 2, 52, 90
4, 411072, Note_on_c, 2, 40, 90
4, 411260, Note_off_c, 2, 52, 64
4, 411260, Note_off_c, 2, 40, 64
4, 411264, Note_on_c, 2, 52, 90
4, 411264, Note_on_c, 2, 40, 90
4, 411452, Note_off_c, 2, 52, 64
4, 411452, Note_off_c, 2, 40, 64
4, 411456, Note_on_c, 2, 52, 90
4, 411456, Note_on_c, 2, 40, 90
4, 411644, Note_off_c, 2, 52, 64
4, 411644, Note_off_c, 2, 40, 64
4, 411648, Note_on_c, 2, 57, 90
4, 411648, Note_on_c, 2, 45, 90
4, 412028, Note_off_c, 2, 57, 64
4, 412028, Note_off_c, 2, 45, 64
4, 412800, Note_on_c, 2, 52, 62
4, 412800, Note_on_c, 2, 40, 62
4, 413180, Note_off_c, 2, 52, 64
4, 413180, Note_off_c, 2, 40, 64
4, 413952, Note_on_c, 2, 45, 61
4, 414332, Note_off_c, 2, 45, 64
4, 415104, Note_on_c, 2, 52, 58
4, 415104, Note_on_c, 2, 40, 58
4, 415484, Note_off_c, 2, 52, 64
4, 415484, Note_off_c, 2, 40, 64
4, 416256, Note_on_c, 2, 45, 54
4, 416256, Note_on_c, 2, 33, 54
4, 418940, Note_off_c, 2, 33, 64
4, 418940, Note_off_c, 2, 45, 64
4, 418940, End_track
5, 0, Start_track
5, 0, Key_signature, 0, "major"
5, 0, End_track
6, 0, Start_track
6, 0, Key_signature, 0, "major"
6, 0, End_track
7, 0, Start_track
7, 0, Key_signature, 0, "major"
7, 0, End_track
8, 0, Start_track
8, 0, Key_signature, 0, "major"
8, 0, End_track
0, 0, End_of_file
