0, 0, Header, 1, 5, 384
1, 0, Start_track
1, 0, Time_signature, 4, 2, 96, 8
1, 0, Sequencer_specific, 3, 0, 0, 65
1, 0, Sequencer_specific, 5, 0, 0, 119, 14, 0
1, 0, Tempo, 272727
1, 256512, Tempo, 389610
1, 265728, Tempo, 272727
1, 520704, Tempo, 267857
1, 523776, Tempo, 272727
1, 536064, Tempo, 300000
1, 537600, Tempo, 333333
1, 539136, Tempo, 375000
1, 540672, Tempo, 265486
1, 568320, Tempo, 285714
1, 582144, Tempo, 272727
1, 615936, Tempo, 500000
1, 617472, Tempo, 272727
1, 637440, Tempo, 500000
1, 638976, Tempo, 428571
1, 642048, Tempo, 535714
1, 645120, Tempo, 340909
1, 652800, Tempo, 250000
1, 654336, Tempo, 750000
1, 654908, Tempo, 272727
1, 777216, Tempo, 291262
1, 778752, Tempo, 309278
1, 780288, Tempo, 329670
1, 780288, End_track
2, 0, Start_track
2, 0, Title_t, "Mozart Piano Concerto"
2, 0, Control_c, 0, 0, 0
2, 0, Program_c, 0, 0
2, 0, Control_c, 0, 7, 90
2, 0, Control_c, 0, 10, 63
2, 0, Control_c, 0, 91, 63
2, 0, Control_c, 0, 93, 54
2, 0, Key_signature, -1, "minor"
2, 0, Control_c, 0, 121, 0
2, 144, Control_c, 0, 10, 63
2, 192, Control_c, 0, 91, 63
2, 240, Control_c, 0, 93, 35
2, 288, Program_c, 0, 0
2, 2112, Note_on_c, 0, 62, 77
2, 2300, Note_off_c, 0, 62, 64
2, 2304, Note_on_c, 0, 65, 77
2, 2492, Note_off_c, 0, 65, 64
2, 2496, Note_on_c, 0, 69, 77
2, 2684, Note_off_c, 0, 69, 64
2, 2688, Note_on_c, 0, 74, 77
2, 2876, Note_off_c, 0, 74, 64
2, 2880, Note_on_c, 0, 77, 77
2, 3068, Note_off_c, 0, 77, 64
2, 3072, Note_on_c, 0, 81, 79
2, 3452, Note_off_c, 0, 81, 64
2, 3456, Note_on_c, 0, 74, 77
2, 3456, Note_on_c, 0, 69, 77
2, 3456, Note_on_c, 0, 65, 77
2, 3836, Note_off_c, 0, 74, 64
2, 3836, Note_off_c, 0, 69, 64
2, 3836, Note_off_c, 0, 65, 64
2, 3840, Note_on_c, 0, 73, 77
2, 3840, Note_on_c, 0, 67, 77
2, 3840, Note_on_c, 0, 64, 77
2, 4220, Note_off_c, 0, 73, 64
2, 4220, Note_off_c, 0, 67, 64
2, 4220, Note_off_c, 0, 64, 64
2, 4224, Note_on_c, 0, 74, 77
2, 4224, Note_on_c, 0, 65, 77
2, 4224, Note_on_c, 0, 62, 77
2, 4604, Note_off_c, 0, 74, 64
2, 4604, Note_off_c, 0, 65, 64
2, 4604, Note_off_c, 0, 62, 64
2, 4608, Note_on_c, 0, 82, 77
2, 4608, Note_on_c, 0, 79, 78
2, 4608, Note_on_c, 0, 76, 80
2, 5756, Note_off_c, 0, 82, 64
2, 5756, Note_off_c, 0, 79, 64
2, 5756, Note_off_c, 0, 76, 64
2, 5760, Note_on_c, 0, 81, 79
2, 5948, Note_off_c, 0, 81, 64
2, 5952, Note_on_c, 0, 79, 78
2, 6140, Note_off_c, 0, 79, 64
2, 6144, Note_on_c, 0, 79, 78
2, 6144, Note_on_c, 0, 62, 77
2, 6332, Note_off_c, 0, 79, 64
2, 6336, Note_on_c, 0, 77, 77
2, 6524, Note_off_c, 0, 77, 64
2, 6528, Note_on_c, 0, 76, 77
2, 6716, Note_off_c, 0, 76, 64
2, 6720, Note_on_c, 0, 74, 77
2, 6908, Note_off_c, 0, 62, 64
2, 6908, Note_off_c, 0, 74, 64
2, 6912, Note_on_c, 0, 73, 77
2, 6912, Note_on_c, 0, 68, 77
2, 6912, Note_on_c, 0, 58, 77
2, 7100, Note_off_c, 0, 73, 64
2, 7104, Note_on_c, 0, 74, 77
2, 7292, Note_off_c, 0, 74, 64
2, 7296, Note_on_c, 0, 73, 77
2, 7484, Note_off_c, 0, 73, 64
2, 7488, Note_on_c, 0, 74, 77
2, 7676, Note_off_c, 0, 68, 64
2, 7676, Note_off_c, 0, 58, 64
2, 7676, Note_off_c, 0, 74, 64
2, 7680, Note_on_c, 0, 76, 77
2, 7680, Note_on_c, 0, 73, 77
2, 7680, Note_on_c, 0, 69, 77
2, 7680, Note_on_c, 0, 57, 77
2, 8060, Note_off_c, 0, 76, 64
2, 8060, Note_off_c, 0, 73, 64
2, 8060, Note_off_c, 0, 69, 64
2, 8060, Note_off_c, 0, 57, 64
2, 8256, Note_on_c, 0, 62, 77
2, 8444, Note_off_c, 0, 62, 64
2, 8448, Note_on_c, 0, 65, 77
2, 8636, Note_off_c, 0, 65, 64
2, 8640, Note_on_c, 0, 69, 77
2, 8828, Note_off_c, 0, 69, 64
2, 8832, Note_on_c, 0, 74, 77
2, 9020, Note_off_c, 0, 74, 64
2, 9024, Note_on_c, 0, 77, 77
2, 9212, Note_off_c, 0, 77, 64
2, 9216, Note_on_c, 0, 81, 79
2, 9596, Note_off_c, 0, 81, 64
2, 9600, Note_on_c, 0, 74, 77
2, 9600, Note_on_c, 0, 69, 77
2, 9600, Note_on_c, 0, 65, 77
2, 9980, Note_off_c, 0, 74, 64
2, 9980, Note_off_c, 0, 69, 64
2, 9980, Note_off_c, 0, 65, 64
2, 9984, Note_on_c, 0, 73, 77
2, 9984, Note_on_c, 0, 67, 77
2, 9984, Note_on_c, 0, 64, 77
2, 10364, Note_off_c, 0, 73, 64
2, 10364, Note_off_c, 0, 67, 64
2, 10364, Note_off_c, 0, 64, 64
2, 10368, Note_on_c, 0, 74, 77
2, 10368, Note_on_c, 0, 65, 77
2, 10368, Note_on_c, 0, 62, 77
2, 10748, Note_off_c, 0, 74, 64
2, 10748, Note_off_c, 0, 65, 64
2, 10748, Note_off_c, 0, 62, 64
2, 10752, Note_on_c, 0, 82, 80
2, 10752, Note_on_c, 0, 79, 78
2, 10752, Note_on_c, 0, 76, 77
2, 11900, Note_off_c, 0, 82, 64
2, 11900, Note_off_c, 0, 79, 64
2, 11900, Note_off_c, 0, 76, 64
2, 11904, Note_on_c, 0, 81, 79
2, 12092, Note_off_c, 0, 81, 64
2, 12096, Note_on_c, 0, 79, 78
2, 12284, Note_off_c, 0, 79, 64
2, 12288, Note_on_c, 0, 79, 78
2, 12288, Note_on_c, 0, 62, 77
2, 12476, Note_off_c, 0, 79, 64
2, 12480, Note_on_c, 0, 77, 77
2, 12668, Note_off_c, 0, 77, 64
2, 12672, Note_on_c, 0, 76, 77
2, 12860, Note_off_c, 0, 76, 64
2, 12864, Note_on_c, 0, 74, 77
2, 13052, Note_off_c, 0, 62, 64
2, 13052, Note_off_c, 0, 74, 64
2, 13056, Note_on_c, 0, 74, 77
2, 13056, Note_on_c, 0, 66, 77
2, 13056, Note_on_c, 0, 60, 77
2, 13436, Note_off_c, 0, 74, 64
2, 13440, Note_on_c, 0, 74, 77
2, 13820, Note_off_c, 0, 66, 64
2, 13820, Note_off_c, 0, 60, 64
2, 13820, Note_off_c, 0, 74, 64
2, 13824, Note_on_c, 0, 74, 77
2, 14204, Note_off_c, 0, 74, 64
2, 14208, Note_on_c, 0, 86, 82
2, 14972, Note_off_c, 0, 86, 64
2, 14976, Note_on_c, 0, 84, 81
2, 15164, Note_off_c, 0, 84, 64
2, 15168, Note_on_c, 0, 82, 80
2, 15356, Note_off_c, 0, 82, 64
2, 15360, Note_on_c, 0, 82, 80
2, 15360, Note_on_c, 0, 65, 77
2, 15548, Note_off_c, 0, 82, 64
2, 15552, Note_on_c, 0, 81, 79
2, 15740, Note_off_c, 0, 81, 64
2, 15744, Note_on_c, 0, 79, 77
2, 15932, Note_off_c, 0, 79, 64
2, 15936, Note_on_c, 0, 77, 78
2, 16124, Note_off_c, 0, 65, 64
2, 16124, Note_off_c, 0, 77, 64
2, 16128, Note_on_c, 0, 77, 77
2, 16128, Note_on_c, 0, 67, 77
2, 16316, Note_off_c, 0, 77, 64
2, 16320, Note_on_c, 0, 76, 77
2, 16508, Note_off_c, 0, 76, 64
2, 16512, Note_on_c, 0, 74, 77
2, 16700, Note_off_c, 0, 74, 64
2, 16704, Note_on_c, 0, 73, 77
2, 16892, Note_off_c, 0, 67, 64
2, 16892, Note_off_c, 0, 73, 64
2, 16896, Note_on_c, 0, 76, 77
2, 16896, Note_on_c, 0, 65, 77
2, 17084, Note_off_c, 0, 76, 64
2, 17088, Note_on_c, 0, 74, 77
2, 17276, Note_off_c, 0, 74, 64
2, 17280, Note_on_c, 0, 73, 77
2, 17468, Note_off_c, 0, 73, 64
2, 17472, Note_on_c, 0, 74, 77
2, 17660, Note_off_c, 0, 65, 64
2, 17660, Note_off_c, 0, 74, 64
2, 17664, Note_on_c, 0, 74, 77
2, 17664, Note_on_c, 0, 66, 77
2, 18044, Note_off_c, 0, 74, 64
2, 18048, Note_on_c, 0, 74, 77
2, 18428, Note_off_c, 0, 66, 64
2, 18428, Note_off_c, 0, 74, 64
2, 18432, Note_on_c, 0, 67, 77
2, 18432, Note_on_c, 0, 74, 77
2, 18812, Note_off_c, 0, 74, 64
2, 18816, Note_on_c, 0, 86, 82
2, 19196, Note_off_c, 0, 67, 64
2, 19200, Note_on_c, 0, 62, 77
2, 19200, Note_on_c, 0, 64, 77
2, 19580, Note_off_c, 0, 86, 64
2, 19584, Note_on_c, 0, 84, 81
2, 19676, Note_off_c, 0, 84, 64
2, 19776, Note_on_c, 0, 82, 80
2, 19868, Note_off_c, 0, 82, 64
2, 19964, Note_off_c, 0, 62, 64
2, 19964, Note_off_c, 0, 64, 64
2, 19968, Note_on_c, 0, 65, 80
2, 19968, Note_on_c, 0, 62, 77
2, 19968, Note_on_c, 0, 82, 77
2, 20156, Note_off_c, 0, 82, 64
2, 20160, Note_on_c, 0, 81, 79
2, 20348, Note_off_c, 0, 81, 64
2, 20352, Note_on_c, 0, 79, 78
2, 20540, Note_off_c, 0, 79, 64
2, 20544, Note_on_c, 0, 77, 77
2, 20732, Note_off_c, 0, 65, 64
2, 20732, Note_off_c, 0, 62, 64
2, 20732, Note_off_c, 0, 77, 64
2, 20736, Note_on_c, 0, 67, 77
2, 20736, Note_on_c, 0, 61, 77
2, 20736, Note_on_c, 0, 76, 77
2, 21116, Note_off_c, 0, 76, 64
2, 21120, Note_on_c, 0, 81, 79
2, 21500, Note_off_c, 0, 67, 64
2, 21500, Note_off_c, 0, 61, 64
2, 21500, Note_off_c, 0, 81, 64
2, 21504, Note_on_c, 0, 74, 77
2, 21884, Note_off_c, 0, 74, 64
2, 22080, Note_on_c, 0, 62, 100
2, 22268, Note_off_c, 0, 62, 64
2, 22272, Note_on_c, 0, 65, 100
2, 22460, Note_off_c, 0, 65, 64
2, 22464, Note_on_c, 0, 69, 100
2, 22652, Note_off_c, 0, 69, 64
2, 22656, Note_on_c, 0, 74, 100
2, 22844, Note_off_c, 0, 74, 64
2, 22848, Note_on_c, 0, 77, 100
2, 23036, Note_off_c, 0, 77, 64
2, 23040, Note_on_c, 0, 81, 102
2, 23420, Note_off_c, 0, 81, 64
2, 23424, Note_on_c, 0, 74, 100
2, 23804, Note_off_c, 0, 74, 64
2, 23808, Note_on_c, 0, 73, 100
2, 24188, Note_off_c, 0, 73, 64
2, 24192, Note_on_c, 0, 74, 100
2, 24572, Note_off_c, 0, 74, 64
2, 24576, Note_on_c, 0, 82, 103
2, 24576, Note_on_c, 0, 79, 101
2, 24576, Note_on_c, 0, 76, 99
2, 25724, Note_off_c, 0, 82, 64
2, 25724, Note_off_c, 0, 79, 64
2, 25724, Note_off_c, 0, 76, 64
2, 25728, Note_on_c, 0, 81, 100
2, 25916, Note_off_c, 0, 81, 64
2, 25920, Note_on_c, 0, 79, 100
2, 26108, Note_off_c, 0, 79, 64
2, 26112, Note_on_c, 0, 79, 100
2, 26300, Note_off_c, 0, 79, 64
2, 26304, Note_on_c, 0, 78, 100
2, 26492, Note_off_c, 0, 78, 64
2, 26496, Note_on_c, 0, 76, 100
2, 26684, Note_off_c, 0, 76, 64
2, 26688, Note_on_c, 0, 74, 100
2, 26876, Note_off_c, 0, 74, 64
2, 26880, Note_on_c, 0, 79, 100
2, 27260, Note_off_c, 0, 79, 64
2, 27264, Note_on_c, 0, 79, 100
2, 27644, Note_off_c, 0, 79, 64
2, 27648, Note_on_c, 0, 87, 105
2, 27648, Note_on_c, 0, 84, 104
2, 27648, Note_on_c, 0, 81, 102
2, 28796, Note_off_c, 0, 87, 64
2, 28796, Note_off_c, 0, 84, 64
2, 28796, Note_off_c, 0, 81, 64
2, 28800, Note_on_c, 0, 86, 105
2, 28988, Note_off_c, 0, 86, 64
2, 28992, Note_on_c, 0, 84, 104
2, 29180, Note_off_c, 0, 84, 64
2, 29184, Note_on_c, 0, 84, 104
2, 29372, Note_off_c, 0, 84, 64
2, 29376, Note_on_c, 0, 82, 103
2, 29564, Note_off_c, 0, 82, 64
2, 29568, Note_on_c, 0, 81, 102
2, 29756, Note_off_c, 0, 81, 64
2, 29760, Note_on_c, 0, 79, 101
2, 29948, Note_off_c, 0, 79, 64
2, 29952, Note_on_c, 0, 86, 105
2, 29952, Note_on_c, 0, 82, 103
2, 29952, Note_on_c, 0, 76, 100
2, 30332, Note_off_c, 0, 86, 64
2, 30332, Note_off_c, 0, 82, 64
2, 30332, Note_off_c, 0, 76, 64
2, 30336, Note_on_c, 0, 86, 105
2, 30336, Note_on_c, 0, 82, 103
2, 30336, Note_on_c, 0, 77, 100
2, 30716, Note_off_c, 0, 86, 64
2, 30716, Note_off_c, 0, 82, 64
2, 30716, Note_off_c, 0, 77, 64
2, 30720, Note_on_c, 0, 79, 101
2, 30720, Note_on_c, 0, 82, 103
2, 30720, Note_on_c, 0, 86, 105
2, 31100, Note_off_c, 0, 82, 64
2, 31100, Note_off_c, 0, 86, 64
2, 31104, Note_on_c, 0, 84, 104
2, 31868, Note_off_c, 0, 84, 64
2, 31872, Note_on_c, 0, 82, 103
2, 32252, Note_off_c, 0, 79, 64
2, 32252, Note_off_c, 0, 82, 64
2, 32256, Note_on_c, 0, 81, 102
2, 32636, Note_off_c, 0, 81, 64
2, 32832, Note_on_c, 0, 65, 97
2, 33020, Note_off_c, 0, 65, 64
2, 33024, Note_on_c, 0, 69, 99
2, 33212, Note_off_c, 0, 69, 64
2, 33216, Note_on_c, 0, 72, 100
2, 33404, Note_off_c, 0, 72, 64
2, 33408, Note_on_c, 0, 77, 101
2, 33596, Note_off_c, 0, 77, 64
2, 33600, Note_on_c, 0, 81, 102
2, 33788, Note_off_c, 0, 81, 64
2, 33792, Note_on_c, 0, 77, 104
2, 33792, Note_on_c, 0, 84, 99
2, 34172, Note_off_c, 0, 84, 64
2, 34176, Note_on_c, 0, 82, 103
2, 34556, Note_off_c, 0, 77, 64
2, 34940, Note_off_c, 0, 82, 64
2, 34944, Note_on_c, 0, 81, 102
2, 35324, Note_off_c, 0, 81, 64
2, 35328, Note_on_c, 0, 79, 101
2, 35328, Note_on_c, 0, 74, 100
2, 35328, Note_on_c, 0, 70, 100
2, 35708, Note_off_c, 0, 79, 64
2, 35708, Note_off_c, 0, 74, 64
2, 35708, Note_off_c, 0, 70, 64
2, 35712, Note_on_c, 0, 73, 99
2, 35900, Note_off_c, 0, 73, 64
2, 35904, Note_on_c, 0, 64, 99
2, 36092, Note_off_c, 0, 64, 64
2, 36096, Note_on_c, 0, 67, 100
2, 36284, Note_off_c, 0, 67, 64
2, 36288, Note_on_c, 0, 70, 100
2, 36476, Note_off_c, 0, 70, 64
2, 36480, Note_on_c, 0, 76, 100
2, 36668, Note_off_c, 0, 76, 64
2, 36672, Note_on_c, 0, 79, 101
2, 36860, Note_off_c, 0, 79, 64
2, 36864, Note_on_c, 0, 82, 102
2, 36864, Note_on_c, 0, 76, 100
2, 37244, Note_off_c, 0, 82, 64
2, 37248, Note_on_c, 0, 81, 100
2, 38012, Note_off_c, 0, 76, 64
2, 38012, Note_off_c, 0, 81, 64
2, 38016, Note_on_c, 0, 79, 101
2, 38016, Note_on_c, 0, 76, 100
2, 38016, Note_on_c, 0, 69, 99
2, 38396, Note_off_c, 0, 79, 64
2, 38396, Note_off_c, 0, 76, 64
2, 38396, Note_off_c, 0, 69, 64
2, 38400, Note_on_c, 0, 77, 100
2, 38400, Note_on_c, 0, 74, 100
2, 38780, Note_off_c, 0, 77, 64
2, 38780, Note_off_c, 0, 74, 64
2, 38976, Note_on_c, 0, 62, 99
2, 39164, Note_off_c, 0, 62, 64
2, 39168, Note_on_c, 0, 66, 99
2, 39356, Note_off_c, 0, 66, 64
2, 39360, Note_on_c, 0, 69, 100
2, 39548, Note_off_c, 0, 69, 64
2, 39552, Note_on_c, 0, 74, 100
2, 39740, Note_off_c, 0, 74, 64
2, 39744, Note_on_c, 0, 78, 101
2, 39932, Note_off_c, 0, 78, 64
2, 39936, Note_on_c, 0, 79, 101
2, 39936, Note_on_c, 0, 74, 100
2, 40316, Note_off_c, 0, 79, 64
2, 40316, Note_off_c, 0, 74, 64
2, 40512, Note_on_c, 0, 62, 99
2, 40700, Note_off_c, 0, 62, 64
2, 40704, Note_on_c, 0, 67, 99
2, 40892, Note_off_c, 0, 67, 64
2, 40896, Note_on_c, 0, 71, 100
2, 41084, Note_off_c, 0, 71, 64
2, 41088, Note_on_c, 0, 74, 100
2, 41276, Note_off_c, 0, 74, 64
2, 41280, Note_on_c, 0, 79, 101
2, 41468, Note_off_c, 0, 79, 64
2, 41472, Note_on_c, 0, 80, 101
2, 41472, Note_on_c, 0, 76, 100
2, 41472, Note_on_c, 0, 71, 100
2, 41852, Note_off_c, 0, 80, 64
2, 41852, Note_off_c, 0, 76, 64
2, 41852, Note_off_c, 0, 71, 64
2, 42048, Note_on_c, 0, 64, 99
2, 42236, Note_off_c, 0, 64, 64
2, 42240, Note_on_c, 0, 67, 99
2, 42428, Note_off_c, 0, 67, 64
2, 42432, Note_on_c, 0, 71, 100
2, 42620, Note_off_c, 0, 71, 64
2, 42624, Note_on_c, 0, 76, 100
2, 42812, Note_off_c, 0, 76, 64
2, 42816, Note_on_c, 0, 80, 101
2, 43004, Note_off_c, 0, 80, 64
2, 43008, Note_on_c, 0, 81, 102
2, 43008, Note_on_c, 0, 76, 100
2, 43196, Note_off_c, 0, 81, 64
2, 43196, Note_off_c, 0, 76, 64
2, 43200, Note_on_c, 0, 69, 100
2, 43388, Note_off_c, 0, 69, 64
2, 43392, Note_on_c, 0, 81, 102
2, 43580, Note_off_c, 0, 81, 64
2, 43584, Note_on_c, 0, 81, 102
2, 43772, Note_off_c, 0, 81, 64
2, 43776, Note_on_c, 0, 79, 101
2, 43964, Note_off_c, 0, 79, 64
2, 43968, Note_on_c, 0, 77, 100
2, 44156, Note_off_c, 0, 77, 64
2, 44160, Note_on_c, 0, 76, 100
2, 44348, Note_off_c, 0, 76, 64
2, 44352, Note_on_c, 0, 74, 100
2, 44540, Note_off_c, 0, 74, 64
2, 44544, Note_on_c, 0, 73, 100
2, 44732, Note_off_c, 0, 73, 64
2, 44736, Note_on_c, 0, 81, 102
2, 44924, Note_off_c, 0, 81, 64
2, 44928, Note_on_c, 0, 81, 102
2, 45116, Note_off_c, 0, 81, 64
2, 45120, Note_on_c, 0, 81, 102
2, 45308, Note_off_c, 0, 81, 64
2, 45312, Note_on_c, 0, 79, 101
2, 45500, Note_off_c, 0, 79, 64
2, 45504, Note_on_c, 0, 77, 100
2, 45692, Note_off_c, 0, 77, 64
2, 45696, Note_on_c, 0, 76, 100
2, 45884, Note_off_c, 0, 76, 64
2, 45888, Note_on_c, 0, 74, 100
2, 46076, Note_off_c, 0, 74, 64
2, 46080, Note_on_c, 0, 73, 100
2, 46268, Note_off_c, 0, 73, 64
2, 46272, Note_on_c, 0, 69, 100
2, 46460, Note_off_c, 0, 69, 64
2, 46464, Note_on_c, 0, 69, 100
2, 46652, Note_off_c, 0, 69, 64
2, 46656, Note_on_c, 0, 69, 100
2, 46844, Note_off_c, 0, 69, 64
2, 46848, Note_on_c, 0, 67, 100
2, 47036, Note_off_c, 0, 67, 64
2, 47040, Note_on_c, 0, 65, 100
2, 47228, Note_off_c, 0, 65, 64
2, 47232, Note_on_c, 0, 64, 100
2, 47420, Note_off_c, 0, 64, 64
2, 47424, Note_on_c, 0, 62, 100
2, 47612, Note_off_c, 0, 62, 64
2, 47616, Note_on_c, 0, 69, 99
2, 47804, Note_off_c, 0, 69, 64
2, 47808, Note_on_c, 0, 57, 92
2, 47996, Note_off_c, 0, 57, 64
2, 48000, Note_on_c, 0, 57, 92
2, 48188, Note_off_c, 0, 57, 64
2, 48192, Note_on_c, 0, 57, 92
2, 48380, Note_off_c, 0, 57, 64
2, 48384, Note_on_c, 0, 57, 92
2, 48572, Note_off_c, 0, 57, 64
2, 48576, Note_on_c, 0, 57, 92
2, 48764, Note_off_c, 0, 57, 64
2, 48768, Note_on_c, 0, 57, 92
2, 48956, Note_off_c, 0, 57, 64
2, 48960, Note_on_c, 0, 57, 92
2, 49148, Note_off_c, 0, 57, 64
2, 50688, Note_on_c, 0, 81, 102
2, 50876, Note_off_c, 0, 81, 64
2, 50880, Note_on_c, 0, 69, 100
2, 51068, Note_off_c, 0, 69, 64
2, 51072, Note_on_c, 0, 81, 102
2, 51260, Note_off_c, 0, 81, 64
2, 51264, Note_on_c, 0, 69, 100
2, 51452, Note_off_c, 0, 69, 64
2, 51456, Note_on_c, 0, 81, 102
2, 51644, Note_off_c, 0, 81, 64
2, 51648, Note_on_c, 0, 69, 100
2, 51836, Note_off_c, 0, 69, 64
2, 51840, Note_on_c, 0, 81, 102
2, 52028, Note_off_c, 0, 81, 64
2, 52032, Note_on_c, 0, 69, 100
2, 52220, Note_off_c, 0, 69, 64
2, 52224, Note_on_c, 0, 70, 100
2, 52412, Note_off_c, 0, 70, 64
2, 52416, Note_on_c, 0, 69, 100
2, 52604, Note_off_c, 0, 69, 64
2, 52608, Note_on_c, 0, 70, 100
2, 52796, Note_off_c, 0, 70, 64
2, 52800, Note_on_c, 0, 69, 100
2, 52988, Note_off_c, 0, 69, 64
2, 52992, Note_on_c, 0, 70, 100
2, 53180, Note_off_c, 0, 70, 64
2, 53184, Note_on_c, 0, 69, 100
2, 53372, Note_off_c, 0, 69, 64
2, 53376, Note_on_c, 0, 70, 100
2, 53564, Note_off_c, 0, 70, 64
2, 53568, Note_on_c, 0, 69, 100
2, 53756, Note_off_c, 0, 69, 64
2, 53760, Note_on_c, 0, 71, 100
2, 53948, Note_off_c, 0, 71, 64
2, 53952, Note_on_c, 0, 69, 100
2, 54140, Note_off_c, 0, 69, 64
2, 54144, Note_on_c, 0, 71, 100
2, 54332, Note_off_c, 0, 71, 64
2, 54336, Note_on_c, 0, 69, 100
2, 54524, Note_off_c, 0, 69, 64
2, 54528, Note_on_c, 0, 72, 100
2, 54716, Note_off_c, 0, 72, 64
2, 54720, Note_on_c, 0, 69, 100
2, 54908, Note_off_c, 0, 69, 64
2, 54912, Note_on_c, 0, 72, 100
2, 55100, Note_off_c, 0, 72, 64
2, 55104, Note_on_c, 0, 69, 100
2, 55292, Note_off_c, 0, 69, 64
2, 55296, Note_on_c, 0, 73, 100
2, 55484, Note_off_c, 0, 73, 64
2, 55488, Note_on_c, 0, 69, 100
2, 55676, Note_off_c, 0, 69, 64
2, 55680, Note_on_c, 0, 73, 100
2, 55868, Note_off_c, 0, 73, 64
2, 55872, Note_on_c, 0, 69, 100
2, 56060, Note_off_c, 0, 69, 64
2, 56064, Note_on_c, 0, 73, 100
2, 56252, Note_off_c, 0, 73, 64
2, 56256, Note_on_c, 0, 69, 100
2, 56444, Note_off_c, 0, 69, 64
2, 56448, Note_on_c, 0, 73, 100
2, 56636, Note_off_c, 0, 73, 64
2, 56640, Note_on_c, 0, 69, 100
2, 56828, Note_off_c, 0, 69, 64
2, 56832, Note_on_c, 0, 74, 100
2, 57020, Note_off_c, 0, 74, 64
2, 57024, Note_on_c, 0, 69, 100
2, 57212, Note_off_c, 0, 69, 64
2, 57216, Note_on_c, 0, 74, 100
2, 57404, Note_off_c, 0, 74, 64
2, 57408, Note_on_c, 0, 69, 100
2, 57596, Note_off_c, 0, 69, 64
2, 57600, Note_on_c, 0, 75, 100
2, 57788, Note_off_c, 0, 75, 64
2, 57792, Note_on_c, 0, 69, 100
2, 57980, Note_off_c, 0, 69, 64
2, 57984, Note_on_c, 0, 75, 100
2, 58172, Note_off_c, 0, 75, 64
2, 58176, Note_on_c, 0, 69, 100
2, 58364, Note_off_c, 0, 69, 64
2, 58368, Note_on_c, 0, 76, 100
2, 58556, Note_off_c, 0, 76, 64
2, 58560, Note_on_c, 0, 69, 100
2, 58748, Note_off_c, 0, 69, 64
2, 58752, Note_on_c, 0, 76, 100
2, 58940, Note_off_c, 0, 76, 64
2, 58944, Note_on_c, 0, 69, 100
2, 59132, Note_off_c, 0, 69, 64
2, 59136, Note_on_c, 0, 78, 100
2, 59324, Note_off_c, 0, 78, 64
2, 59328, Note_on_c, 0, 69, 100
2, 59516, Note_off_c, 0, 69, 64
2, 59520, Note_on_c, 0, 78, 100
2, 59708, Note_off_c, 0, 78, 64
2, 59712, Note_on_c, 0, 69, 100
2, 59900, Note_off_c, 0, 69, 64
2, 59904, Note_on_c, 0, 79, 101
2, 60092, Note_off_c, 0, 79, 64
2, 60096, Note_on_c, 0, 69, 100
2, 60284, Note_off_c, 0, 69, 64
2, 60288, Note_on_c, 0, 79, 101
2, 60476, Note_off_c, 0, 79, 64
2, 60480, Note_on_c, 0, 69, 100
2, 60668, Note_off_c, 0, 69, 64
2, 60672, Note_on_c, 0, 80, 101
2, 60672, Note_on_c, 0, 77, 100
2, 60860, Note_off_c, 0, 80, 64
2, 60860, Note_off_c, 0, 77, 64
2, 60864, Note_on_c, 0, 69, 100
2, 61052, Note_off_c, 0, 69, 64
2, 61056, Note_on_c, 0, 80, 101
2, 61056, Note_on_c, 0, 77, 100
2, 61244, Note_off_c, 0, 80, 64
2, 61244, Note_off_c, 0, 77, 64
2, 61248, Note_on_c, 0, 69, 100
2, 61436, Note_off_c, 0, 69, 64
2, 61440, Note_on_c, 0, 81, 102
2, 61440, Note_on_c, 0, 76, 100
2, 61628, Note_off_c, 0, 81, 64
2, 61628, Note_off_c, 0, 76, 64
2, 61632, Note_on_c, 0, 69, 100
2, 61820, Note_off_c, 0, 69, 64
2, 61824, Note_on_c, 0, 81, 102
2, 61824, Note_on_c, 0, 76, 100
2, 62012, Note_off_c, 0, 81, 64
2, 62012, Note_off_c, 0, 76, 64
2, 62016, Note_on_c, 0, 69, 100
2, 62204, Note_off_c, 0, 69, 64
2, 62208, Note_on_c, 0, 79, 101
2, 62208, Note_on_c, 0, 73, 100
2, 62396, Note_off_c, 0, 79, 64
2, 62396, Note_off_c, 0, 73, 64
2, 62400, Note_on_c, 0, 69, 100
2, 62588, Note_off_c, 0, 69, 64
2, 62592, Note_on_c, 0, 79, 101
2, 62592, Note_on_c, 0, 73, 100
2, 62780, Note_off_c, 0, 79, 64
2, 62780, Note_off_c, 0, 73, 64
2, 62784, Note_on_c, 0, 69, 99
2, 62972, Note_off_c, 0, 69, 64
2, 62976, Note_on_c, 0, 77, 100
2, 63164, Note_off_c, 0, 77, 64
2, 63168, Note_on_c, 0, 74, 100
2, 63356, Note_off_c, 0, 74, 64
2, 66048, Note_on_c, 0, 74, 100
2, 66812, Note_off_c, 0, 74, 64
2, 69120, Note_on_c, 0, 74, 100
2, 69308, Note_off_c, 0, 74, 64
2, 69312, Note_on_c, 0, 86, 105
2, 69500, Note_off_c, 0, 86, 64
2, 69504, Note_on_c, 0, 74, 100
2, 69692, Note_off_c, 0, 74, 64
2, 69696, Note_on_c, 0, 86, 105
2, 69884, Note_off_c, 0, 86, 64
2, 69888, Note_on_c, 0, 74, 100
2, 70076, Note_off_c, 0, 74, 64
2, 70080, Note_on_c, 0, 86, 105
2, 70268, Note_off_c, 0, 86, 64
2, 70272, Note_on_c, 0, 74, 100
2, 70460, Note_off_c, 0, 74, 64
2, 70464, Note_on_c, 0, 86, 105
2, 70652, Note_off_c, 0, 86, 64
2, 70656, Note_on_c, 0, 85, 104
2, 70656, Note_on_c, 0, 74, 100
2, 70844, Note_off_c, 0, 85, 64
2, 70844, Note_off_c, 0, 74, 64
2, 70848, Note_on_c, 0, 86, 105
2, 71036, Note_off_c, 0, 86, 64
2, 71040, Note_on_c, 0, 74, 100
2, 71040, Note_on_c, 0, 85, 104
2, 71228, Note_off_c, 0, 74, 64
2, 71228, Note_off_c, 0, 85, 64
2, 71232, Note_on_c, 0, 86, 105
2, 71420, Note_off_c, 0, 86, 64
2, 71424, Note_on_c, 0, 84, 104
2, 71424, Note_on_c, 0, 74, 100
2, 71612, Note_off_c, 0, 84, 64
2, 71612, Note_off_c, 0, 74, 64
2, 71616, Note_on_c, 0, 86, 105
2, 71804, Note_off_c, 0, 86, 64
2, 71808, Note_on_c, 0, 84, 104
2, 71808, Note_on_c, 0, 74, 100
2, 71996, Note_off_c, 0, 84, 64
2, 71996, Note_off_c, 0, 74, 64
2, 72000, Note_on_c, 0, 86, 105
2, 72188, Note_off_c, 0, 86, 64
2, 72192, Note_on_c, 0, 83, 103
2, 72192, Note_on_c, 0, 74, 100
2, 72380, Note_off_c, 0, 83, 64
2, 72380, Note_off_c, 0, 74, 64
2, 72384, Note_on_c, 0, 86, 105
2, 72572, Note_off_c, 0, 86, 64
2, 72576, Note_on_c, 0, 83, 103
2, 72576, Note_on_c, 0, 74, 100
2, 72764, Note_off_c, 0, 83, 64
2, 72764, Note_off_c, 0, 74, 64
2, 72768, Note_on_c, 0, 86, 105
2, 72956, Note_off_c, 0, 86, 64
2, 72960, Note_on_c, 0, 82, 103
2, 72960, Note_on_c, 0, 74, 100
2, 73148, Note_off_c, 0, 82, 64
2, 73148, Note_off_c, 0, 74, 64
2, 73152, Note_on_c, 0, 86, 105
2, 73340, Note_off_c, 0, 86, 64
2, 73344, Note_on_c, 0, 82, 103
2, 73344, Note_on_c, 0, 74, 100
2, 73532, Note_off_c, 0, 82, 64
2, 73532, Note_off_c, 0, 74, 64
2, 73536, Note_on_c, 0, 86, 105
2, 73724, Note_off_c, 0, 86, 64
2, 73728, Note_on_c, 0, 81, 102
2, 73728, Note_on_c, 0, 70, 100
2, 73916, Note_off_c, 0, 81, 64
2, 73916, Note_off_c, 0, 70, 64
2, 73920, Note_on_c, 0, 86, 105
2, 74108, Note_off_c, 0, 86, 64
2, 74112, Note_on_c, 0, 70, 102
2, 74112, Note_on_c, 0, 81, 100
2, 74300, Note_off_c, 0, 70, 64
2, 74300, Note_off_c, 0, 81, 64
2, 74304, Note_on_c, 0, 86, 105
2, 74492, Note_off_c, 0, 86, 64
2, 74496, Note_on_c, 0, 81, 102
2, 74496, Note_on_c, 0, 70, 100
2, 74684, Note_off_c, 0, 81, 64
2, 74684, Note_off_c, 0, 70, 64
2, 74688, Note_on_c, 0, 86, 105
2, 74876, Note_off_c, 0, 86, 64
2, 74880, Note_on_c, 0, 81, 102
2, 74880, Note_on_c, 0, 70, 100
2, 75068, Note_off_c, 0, 81, 64
2, 75068, Note_off_c, 0, 70, 64
2, 75072, Note_on_c, 0, 86, 105
2, 75260, Note_off_c, 0, 86, 64
2, 75264, Note_on_c, 0, 79, 101
2, 75264, Note_on_c, 0, 76, 99
2, 75452, Note_off_c, 0, 79, 64
2, 75452, Note_off_c, 0, 76, 64
2, 75456, Note_on_c, 0, 88, 106
2, 75644, Note_off_c, 0, 88, 64
2, 75648, Note_on_c, 0, 79, 101
2, 75836, Note_off_c, 0, 79, 64
2, 75840, Note_on_c, 0, 88, 106
2, 76028, Note_off_c, 0, 88, 64
2, 76032, Note_on_c, 0, 79, 101
2, 76220, Note_off_c, 0, 79, 64
2, 76224, Note_on_c, 0, 88, 106
2, 76412, Note_off_c, 0, 88, 64
2, 76416, Note_on_c, 0, 79, 101
2, 76604, Note_off_c, 0, 79, 64
2, 76608, Note_on_c, 0, 88, 106
2, 76796, Note_off_c, 0, 88, 64
2, 76800, Note_on_c, 0, 77, 99
2, 76988, Note_off_c, 0, 77, 64
2, 76992, Note_on_c, 0, 86, 105
2, 77180, Note_off_c, 0, 86, 64
2, 77184, Note_on_c, 0, 77, 99
2, 77372, Note_off_c, 0, 77, 64
2, 77376, Note_on_c, 0, 86, 105
2, 77564, Note_off_c, 0, 86, 64
2, 77568, Note_on_c, 0, 77, 99
2, 77756, Note_off_c, 0, 77, 64
2, 77760, Note_on_c, 0, 86, 105
2, 77948, Note_off_c, 0, 86, 64
2, 77952, Note_on_c, 0, 77, 99
2, 78140, Note_off_c, 0, 77, 64
2, 78144, Note_on_c, 0, 86, 105
2, 78332, Note_off_c, 0, 86, 64
2, 78336, Note_on_c, 0, 82, 103
2, 78336, Note_on_c, 0, 76, 97
2, 78524, Note_off_c, 0, 82, 64
2, 78524, Note_off_c, 0, 76, 64
2, 78528, Note_on_c, 0, 86, 105
2, 78716, Note_off_c, 0, 86, 64
2, 78720, Note_on_c, 0, 82, 103
2, 78720, Note_on_c, 0, 76, 97
2, 78908, Note_off_c, 0, 82, 64
2, 78908, Note_off_c, 0, 76, 64
2, 78912, Note_on_c, 0, 86, 105
2, 79100, Note_off_c, 0, 86, 64
2, 79104, Note_on_c, 0, 81, 102
2, 79104, Note_on_c, 0, 76, 97
2, 79292, Note_off_c, 0, 81, 64
2, 79292, Note_off_c, 0, 76, 64
2, 79296, Note_on_c, 0, 85, 104
2, 79484, Note_off_c, 0, 85, 64
2, 79488, Note_on_c, 0, 81, 102
2, 79488, Note_on_c, 0, 76, 97
2, 79676, Note_off_c, 0, 81, 64
2, 79676, Note_off_c, 0, 76, 64
2, 79680, Note_on_c, 0, 85, 104
2, 79868, Note_off_c, 0, 85, 64
2, 79872, Note_on_c, 0, 86, 105
2, 79872, Note_on_c, 0, 77, 100
2, 79872, Note_on_c, 0, 74, 97
2, 81404, Note_off_c, 0, 86, 64
2, 81404, Note_off_c, 0, 77, 64
2, 81404, Note_off_c, 0, 74, 64
2, 81408, Note_on_c, 0, 87, 104
2, 81408, Note_on_c, 0, 84, 105
2, 81408, Note_on_c, 0, 77, 100
2, 82172, Note_off_c, 0, 87, 64
2, 82172, Note_off_c, 0, 84, 64
2, 82172, Note_off_c, 0, 77, 64
2, 82176, Note_on_c, 0, 75, 100
2, 82176, Note_on_c, 0, 72, 100
2, 82176, Note_on_c, 0, 65, 100
2, 82748, Note_off_c, 0, 75, 64
2, 82748, Note_off_c, 0, 72, 64
2, 82748, Note_off_c, 0, 65, 64
2, 82752, Note_on_c, 0, 75, 100
2, 82752, Note_on_c, 0, 72, 100
2, 82752, Note_on_c, 0, 65, 100
2, 82940, Note_off_c, 0, 75, 64
2, 82940, Note_off_c, 0, 72, 64
2, 82940, Note_off_c, 0, 65, 64
2, 82944, Note_on_c, 0, 74, 100
2, 82944, Note_on_c, 0, 70, 100
2, 82944, Note_on_c, 0, 65, 100
2, 84476, Note_off_c, 0, 74, 64
2, 84476, Note_off_c, 0, 70, 64
2, 84476, Note_off_c, 0, 65, 64
2, 84480, Note_on_c, 0, 87, 105
2, 84480, Note_on_c, 0, 84, 104
2, 84480, Note_on_c, 0, 78, 100
2, 85244, Note_off_c, 0, 87, 64
2, 85244, Note_off_c, 0, 84, 64
2, 85244, Note_off_c, 0, 78, 64
2, 85248, Note_on_c, 0, 75, 100
2, 85248, Note_on_c, 0, 72, 100
2, 85248, Note_on_c, 0, 66, 100
2, 85820, Note_off_c, 0, 75, 64
2, 85820, Note_off_c, 0, 72, 64
2, 85820, Note_off_c, 0, 66, 64
2, 85824, Note_on_c, 0, 75, 100
2, 85824, Note_on_c, 0, 72, 100
2, 85824, Note_on_c, 0, 66, 100
2, 86012, Note_off_c, 0, 75, 64
2, 86012, Note_off_c, 0, 72, 64
2, 86012, Note_off_c, 0, 66, 64
2, 86016, Note_on_c, 0, 74, 100
2, 86016, Note_on_c, 0, 70, 100
2, 86016, Note_on_c, 0, 67, 100
2, 87548, Note_off_c, 0, 74, 64
2, 87548, Note_off_c, 0, 70, 64
2, 87548, Note_off_c, 0, 67, 64
2, 87552, Note_on_c, 0, 89, 107
2, 87552, Note_on_c, 0, 86, 105
2, 87552, Note_on_c, 0, 80, 101
2, 88316, Note_off_c, 0, 89, 64
2, 88316, Note_off_c, 0, 86, 64
2, 88316, Note_off_c, 0, 80, 64
2, 88320, Note_on_c, 0, 80, 100
2, 88320, Note_on_c, 0, 77, 100
2, 88320, Note_on_c, 0, 74, 100
2, 88892, Note_off_c, 0, 80, 64
2, 88892, Note_off_c, 0, 77, 64
2, 88892, Note_off_c, 0, 74, 64
2, 88896, Note_on_c, 0, 80, 100
2, 88896, Note_on_c, 0, 77, 100
2, 88896, Note_on_c, 0, 74, 100
2, 89084, Note_off_c, 0, 80, 64
2, 89084, Note_off_c, 0, 77, 64
2, 89088, Note_on_c, 0, 81, 100
2, 89088, Note_on_c, 0, 76, 100
2, 89092, Note_off_c, 0, 74, 64
2, 89468, Note_off_c, 0, 81, 64
2, 89468, Note_off_c, 0, 76, 64
2, 89472, Note_on_c, 0, 79, 100
2, 89472, Note_on_c, 0, 69, 100
2, 89472, Note_on_c, 0, 76, 100
2, 89852, Note_off_c, 0, 79, 64
2, 89852, Note_off_c, 0, 69, 64
2, 89852, Note_off_c, 0, 76, 64
2, 90240, Note_on_c, 0, 77, 100
2, 90240, Note_on_c, 0, 74, 100
2, 90240, Note_on_c, 0, 69, 100
2, 90620, Note_off_c, 0, 77, 64
2, 90620, Note_off_c, 0, 74, 64
2, 90620, Note_off_c, 0, 69, 64
2, 91008, Note_on_c, 0, 76, 100
2, 91008, Note_on_c, 0, 70, 100
2, 91008, Note_on_c, 0, 67, 100
2, 91388, Note_off_c, 0, 76, 64
2, 91388, Note_off_c, 0, 70, 64
2, 91388, Note_off_c, 0, 67, 64
2, 91776, Note_on_c, 0, 73, 100
2, 91776, Note_on_c, 0, 67, 100
2, 92156, Note_off_c, 0, 73, 64
2, 92156, Note_off_c, 0, 67, 64
2, 92160, Note_on_c, 0, 74, 100
2, 92160, Note_on_c, 0, 69, 100
2, 92160, Note_on_c, 0, 65, 100
2, 92540, Note_off_c, 0, 74, 64
2, 92540, Note_off_c, 0, 69, 64
2, 92540, Note_off_c, 0, 65, 64
2, 92544, Note_on_c, 0, 77, 100
2, 92732, Note_off_c, 0, 77, 64
2, 92736, Note_on_c, 0, 76, 100
2, 92924, Note_off_c, 0, 76, 64
2, 92928, Note_on_c, 0, 74, 100
2, 93116, Note_off_c, 0, 74, 64
2, 93120, Note_on_c, 0, 72, 100
2, 93308, Note_off_c, 0, 72, 64
2, 93312, Note_on_c, 0, 70, 100
2, 93500, Note_off_c, 0, 70, 64
2, 93504, Note_on_c, 0, 69, 100
2, 93692, Note_off_c, 0, 69, 64
2, 93696, Note_on_c, 0, 70, 100
2, 93884, Note_off_c, 0, 70, 64
2, 93888, Note_on_c, 0, 69, 100
2, 94076, Note_off_c, 0, 69, 64
2, 94080, Note_on_c, 0, 67, 100
2, 94268, Note_off_c, 0, 67, 64
2, 94272, Note_on_c, 0, 65, 100
2, 94460, Note_off_c, 0, 65, 64
2, 94464, Note_on_c, 0, 64, 100
2, 94652, Note_off_c, 0, 64, 64
2, 94656, Note_on_c, 0, 62, 100
2, 94844, Note_off_c, 0, 62, 64
2, 94848, Note_on_c, 0, 60, 100
2, 95036, Note_off_c, 0, 60, 64
2, 95040, Note_on_c, 0, 58, 100
2, 95228, Note_off_c, 0, 58, 64
2, 95232, Note_on_c, 0, 57, 100
2, 95612, Note_off_c, 0, 57, 64
2, 96000, Note_on_c, 0, 85, 104
2, 96000, Note_on_c, 0, 81, 102
2, 96000, Note_on_c, 0, 76, 100
2, 96380, Note_off_c, 0, 85, 64
2, 96380, Note_off_c, 0, 81, 64
2, 96380, Note_off_c, 0, 76, 64
2, 96768, Note_on_c, 0, 86, 105
2, 96768, Note_on_c, 0, 81, 102
2, 96768, Note_on_c, 0, 77, 100
2, 97532, Note_off_c, 0, 86, 64
2, 97532, Note_off_c, 0, 81, 64
2, 97532, Note_off_c, 0, 77, 64
2, 98304, Note_on_c, 0, 81, 79
2, 98304, Note_on_c, 0, 65, 77
2, 98304, Note_on_c, 0, 62, 77
2, 99068, Note_off_c, 0, 81, 64
2, 99068, Note_off_c, 0, 65, 64
2, 99068, Note_off_c, 0, 62, 64
2, 99072, Note_on_c, 0, 73, 77
2, 99072, Note_on_c, 0, 67, 77
2, 99072, Note_on_c, 0, 64, 77
2, 99836, Note_off_c, 0, 73, 64
2, 99836, Note_off_c, 0, 67, 64
2, 99836, Note_off_c, 0, 64, 64
2, 99840, Note_on_c, 0, 74, 77
2, 99840, Note_on_c, 0, 69, 77
2, 99840, Note_on_c, 0, 65, 77
2, 100220, Note_off_c, 0, 74, 64
2, 100220, Note_off_c, 0, 69, 64
2, 100220, Note_off_c, 0, 65, 64
2, 101280, Note_on_c, 0, 74, 96
2, 101360, Note_off_c, 0, 74, 64
2, 101376, Note_on_c, 0, 86, 85
2, 101376, Note_on_c, 0, 70, 79
2, 101376, Note_on_c, 0, 67, 79
2, 102140, Note_off_c, 0, 70, 64
2, 102140, Note_off_c, 0, 67, 64
2, 102144, Note_on_c, 0, 69, 77
2, 102144, Note_on_c, 0, 72, 77
2, 102620, Note_off_c, 0, 86, 64
2, 102624, Note_on_c, 0, 84, 84
2, 102704, Note_off_c, 0, 84, 64
2, 102720, Note_on_c, 0, 82, 83
2, 102800, Note_off_c, 0, 82, 64
2, 102816, Note_on_c, 0, 81, 82
2, 102896, Note_off_c, 0, 81, 64
2, 102908, Note_off_c, 0, 69, 64
2, 102908, Note_off_c, 0, 72, 64
2, 102912, Note_on_c, 0, 79, 78
2, 102912, Note_on_c, 0, 74, 77
2, 102912, Note_on_c, 0, 70, 77
2, 103292, Note_off_c, 0, 79, 64
2, 103292, Note_off_c, 0, 74, 64
2, 103292, Note_off_c, 0, 70, 64
2, 104448, Note_on_c, 0, 64, 78
2, 104448, Note_on_c, 0, 57, 77
2, 104448, Note_on_c, 0, 79, 77
2, 105212, Note_off_c, 0, 64, 64
2, 105212, Note_off_c, 0, 79, 64
2, 105216, Note_on_c, 0, 62, 78
2, 105216, Note_on_c, 0, 80, 77
2, 105216, Note_on_c, 0, 77, 77
2, 105980, Note_off_c, 0, 57, 64
2, 105980, Note_off_c, 0, 62, 64
2, 105980, Note_off_c, 0, 80, 64
2, 105980, Note_off_c, 0, 77, 64
2, 105984, Note_on_c, 0, 81, 77
2, 105984, Note_on_c, 0, 76, 77
2, 105984, Note_on_c, 0, 61, 77
2, 105984, Note_on_c, 0, 57, 77
2, 106364, Note_off_c, 0, 81, 64
2, 106364, Note_off_c, 0, 76, 64
2, 106364, Note_off_c, 0, 61, 64
2, 106364, Note_off_c, 0, 57, 64
2, 107328, Note_on_c, 0, 76, 77
2, 107420, Note_off_c, 0, 76, 64
2, 107520, Note_on_c, 0, 77, 77
2, 107520, Note_on_c, 0, 65, 77
2, 107520, Note_on_c, 0, 62, 77
2, 107612, Note_off_c, 0, 77, 64
2, 107712, Note_on_c, 0, 73, 77
2, 107804, Note_off_c, 0, 73, 64
2, 107900, Note_off_c, 0, 65, 64
2, 107900, Note_off_c, 0, 62, 64
2, 107904, Note_on_c, 0, 74, 77
2, 107996, Note_off_c, 0, 74, 64
2, 108096, Note_on_c, 0, 77, 77
2, 108188, Note_off_c, 0, 77, 64
2, 108288, Note_on_c, 0, 79, 78
2, 108288, Note_on_c, 0, 67, 77
2, 108288, Note_on_c, 0, 64, 77
2, 108380, Note_off_c, 0, 79, 64
2, 108480, Note_on_c, 0, 75, 77
2, 108572, Note_off_c, 0, 75, 64
2, 108668, Note_off_c, 0, 67, 64
2, 108668, Note_off_c, 0, 64, 64
2, 108672, Note_on_c, 0, 76, 77
2, 108764, Note_off_c, 0, 76, 64
2, 108864, Note_on_c, 0, 77, 77
2, 108956, Note_off_c, 0, 77, 64
2, 109056, Note_on_c, 0, 81, 79
2, 109056, Note_on_c, 0, 69, 77
2, 109056, Note_on_c, 0, 65, 77
2, 109436, Note_off_c, 0, 81, 64
2, 109436, Note_off_c, 0, 69, 64
2, 109436, Note_off_c, 0, 65, 64
2, 109728, Note_on_c, 0, 74, 93
2, 109808, Note_off_c, 0, 74, 64
2, 109824, Note_on_c, 0, 86, 82
2, 110588, Note_off_c, 0, 86, 64
2, 110784, Note_on_c, 0, 75, 77
2, 110972, Note_off_c, 0, 75, 64
2, 110976, Note_on_c, 0, 76, 77
2, 111164, Note_off_c, 0, 76, 64
2, 111168, Note_on_c, 0, 77, 77
2, 111356, Note_off_c, 0, 77, 64
2, 111360, Note_on_c, 0, 78, 77
2, 111548, Note_off_c, 0, 78, 64
2, 111552, Note_on_c, 0, 79, 78
2, 111740, Note_off_c, 0, 79, 64
2, 111744, Note_on_c, 0, 81, 79
2, 111932, Note_off_c, 0, 81, 64
2, 111936, Note_on_c, 0, 82, 80
2, 112124, Note_off_c, 0, 82, 64
2, 112128, Note_on_c, 0, 65, 80
2, 112128, Note_on_c, 0, 57, 77
2, 112128, Note_on_c, 0, 82, 77
2, 112316, Note_off_c, 0, 82, 64
2, 112320, Note_on_c, 0, 81, 79
2, 112508, Note_off_c, 0, 81, 64
2, 112512, Note_on_c, 0, 79, 78
2, 112700, Note_off_c, 0, 79, 64
2, 112704, Note_on_c, 0, 77, 77
2, 112892, Note_off_c, 0, 65, 64
2, 112892, Note_off_c, 0, 77, 64
2, 112896, Note_on_c, 0, 67, 77
2, 112896, Note_on_c, 0, 77, 77
2, 113084, Note_off_c, 0, 77, 64
2, 113088, Note_on_c, 0, 76, 77
2, 113276, Note_off_c, 0, 76, 64
2, 113280, Note_on_c, 0, 74, 77
2, 113468, Note_off_c, 0, 74, 64
2, 113472, Note_on_c, 0, 73, 77
2, 113660, Note_off_c, 0, 57, 64
2, 113660, Note_off_c, 0, 67, 64
2, 113660, Note_off_c, 0, 73, 64
2, 113664, Note_on_c, 0, 74, 77
2, 113664, Note_on_c, 0, 65, 77
2, 113664, Note_on_c, 0, 62, 77
2, 114044, Note_off_c, 0, 74, 64
2, 114044, Note_off_c, 0, 65, 64
2, 114044, Note_off_c, 0, 62, 64
2, 114240, Note_on_c, 0, 62, 77
2, 114428, Note_off_c, 0, 62, 64
2, 114432, Note_on_c, 0, 65, 77
2, 114620, Note_off_c, 0, 65, 64
2, 114624, Note_on_c, 0, 69, 77
2, 114812, Note_off_c, 0, 69, 64
2, 114816, Note_on_c, 0, 74, 77
2, 115004, Note_off_c, 0, 74, 64
2, 115008, Note_on_c, 0, 77, 77
2, 115196, Note_off_c, 0, 77, 64
2, 115200, Note_on_c, 0, 81, 79
2, 115580, Note_off_c, 0, 81, 64
2, 115584, Note_on_c, 0, 74, 77
2, 115584, Note_on_c, 0, 69, 77
2, 115584, Note_on_c, 0, 65, 77
2, 115964, Note_off_c, 0, 74, 64
2, 115964, Note_off_c, 0, 69, 64
2, 115964, Note_off_c, 0, 65, 64
2, 115968, Note_on_c, 0, 73, 77
2, 115968, Note_on_c, 0, 67, 77
2, 115968, Note_on_c, 0, 64, 77
2, 116348, Note_off_c, 0, 73, 64
2, 116348, Note_off_c, 0, 67, 64
2, 116348, Note_off_c, 0, 64, 64
2, 116352, Note_on_c, 0, 74, 77
2, 116352, Note_on_c, 0, 65, 77
2, 116352, Note_on_c, 0, 62, 77
2, 116732, Note_off_c, 0, 74, 64
2, 116732, Note_off_c, 0, 65, 64
2, 116732, Note_off_c, 0, 62, 64
2, 116736, Note_on_c, 0, 82, 80
2, 116736, Note_on_c, 0, 79, 78
2, 116736, Note_on_c, 0, 76, 77
2, 117884, Note_off_c, 0, 82, 64
2, 117884, Note_off_c, 0, 79, 64
2, 117884, Note_off_c, 0, 76, 64
2, 117888, Note_on_c, 0, 81, 79
2, 118076, Note_off_c, 0, 81, 64
2, 118080, Note_on_c, 0, 79, 78
2, 118268, Note_off_c, 0, 79, 64
2, 118272, Note_on_c, 0, 79, 78
2, 118460, Note_off_c, 0, 79, 64
2, 118464, Note_on_c, 0, 77, 77
2, 118652, Note_off_c, 0, 77, 64
2, 118656, Note_on_c, 0, 76, 77
2, 118844, Note_off_c, 0, 76, 64
2, 118848, Note_on_c, 0, 74, 77
2, 119036, Note_off_c, 0, 74, 64
2, 119040, Note_on_c, 0, 68, 77
2, 119040, Note_on_c, 0, 58, 77
2, 119040, Note_on_c, 0, 73, 77
2, 119228, Note_off_c, 0, 73, 64
2, 119232, Note_on_c, 0, 74, 77
2, 119420, Note_off_c, 0, 74, 64
2, 119424, Note_on_c, 0, 73, 77
2, 119612, Note_off_c, 0, 73, 64
2, 119616, Note_on_c, 0, 74, 77
2, 119804, Note_off_c, 0, 68, 64
2, 119804, Note_off_c, 0, 58, 64
2, 119804, Note_off_c, 0, 74, 64
2, 119808, Note_on_c, 0, 76, 77
2, 119808, Note_on_c, 0, 73, 77
2, 119808, Note_on_c, 0, 69, 77
2, 119808, Note_on_c, 0, 57, 77
2, 120188, Note_off_c, 0, 76, 64
2, 120188, Note_off_c, 0, 73, 64
2, 120188, Note_off_c, 0, 69, 64
2, 120188, Note_off_c, 0, 57, 64
2, 120384, Note_on_c, 0, 62, 77
2, 120572, Note_off_c, 0, 62, 64
2, 120576, Note_on_c, 0, 65, 77
2, 120764, Note_off_c, 0, 65, 64
2, 120768, Note_on_c, 0, 69, 77
2, 120956, Note_off_c, 0, 69, 64
2, 120960, Note_on_c, 0, 74, 77
2, 121148, Note_off_c, 0, 74, 64
2, 121152, Note_on_c, 0, 77, 77
2, 121340, Note_off_c, 0, 77, 64
2, 121344, Note_on_c, 0, 81, 79
2, 121724, Note_off_c, 0, 81, 64
2, 121728, Note_on_c, 0, 74, 77
2, 121728, Note_on_c, 0, 69, 77
2, 121728, Note_on_c, 0, 65, 77
2, 122108, Note_off_c, 0, 74, 64
2, 122108, Note_off_c, 0, 69, 64
2, 122108, Note_off_c, 0, 65, 64
2, 122112, Note_on_c, 0, 73, 77
2, 122112, Note_on_c, 0, 67, 77
2, 122112, Note_on_c, 0, 64, 77
2, 122492, Note_off_c, 0, 73, 64
2, 122492, Note_off_c, 0, 67, 64
2, 122492, Note_off_c, 0, 64, 64
2, 122496, Note_on_c, 0, 74, 77
2, 122496, Note_on_c, 0, 65, 77
2, 122496, Note_on_c, 0, 62, 77
2, 122876, Note_off_c, 0, 74, 64
2, 122876, Note_off_c, 0, 65, 64
2, 122876, Note_off_c, 0, 62, 64
2, 122880, Note_on_c, 0, 82, 80
2, 122880, Note_on_c, 0, 79, 78
2, 122880, Note_on_c, 0, 76, 77
2, 124028, Note_off_c, 0, 82, 64
2, 124028, Note_off_c, 0, 79, 64
2, 124028, Note_off_c, 0, 76, 64
2, 124032, Note_on_c, 0, 82, 79
2, 124220, Note_off_c, 0, 82, 64
2, 124224, Note_on_c, 0, 79, 78
2, 124412, Note_off_c, 0, 79, 64
2, 124416, Note_on_c, 0, 76, 77
2, 124604, Note_off_c, 0, 76, 64
2, 124608, Note_on_c, 0, 72, 77
2, 124796, Note_off_c, 0, 72, 64
2, 124800, Note_on_c, 0, 70, 77
2, 124988, Note_off_c, 0, 70, 64
2, 124992, Note_on_c, 0, 67, 77
2, 125180, Note_off_c, 0, 67, 64
2, 125184, Note_on_c, 0, 64, 77
2, 125564, Note_off_c, 0, 64, 64
2, 125568, Note_on_c, 0, 84, 81
2, 125568, Note_on_c, 0, 79, 78
2, 125568, Note_on_c, 0, 76, 77
2, 125568, Note_on_c, 0, 72, 74
2, 125948, Note_off_c, 0, 84, 64
2, 125948, Note_off_c, 0, 79, 64
2, 125948, Note_off_c, 0, 76, 64
2, 125948, Note_off_c, 0, 72, 64
2, 125952, Note_on_c, 0, 84, 81
2, 125952, Note_on_c, 0, 81, 79
2, 125952, Note_on_c, 0, 77, 77
2, 125952, Note_on_c, 0, 72, 73
2, 127100, Note_off_c, 0, 84, 64
2, 127100, Note_off_c, 0, 81, 64
2, 127100, Note_off_c, 0, 77, 64
2, 127100, Note_off_c, 0, 72, 64
2, 127104, Note_on_c, 0, 84, 81
2, 127292, Note_off_c, 0, 84, 64
2, 127296, Note_on_c, 0, 81, 79
2, 127484, Note_off_c, 0, 81, 64
2, 127488, Note_on_c, 0, 77, 77
2, 127676, Note_off_c, 0, 77, 64
2, 127680, Note_on_c, 0, 72, 74
2, 127868, Note_off_c, 0, 72, 64
2, 127872, Note_on_c, 0, 69, 72
2, 128060, Note_off_c, 0, 69, 64
2, 128064, Note_on_c, 0, 65, 71
2, 128252, Note_off_c, 0, 65, 64
2, 128256, Note_on_c, 0, 60, 70
2, 128636, Note_off_c, 0, 60, 64
2, 128640, Note_on_c, 0, 86, 82
2, 128640, Note_on_c, 0, 81, 79
2, 128640, Note_on_c, 0, 78, 77
2, 128640, Note_on_c, 0, 74, 74
2, 129020, Note_off_c, 0, 86, 64
2, 129020, Note_off_c, 0, 81, 64
2, 129020, Note_off_c, 0, 78, 64
2, 129020, Note_off_c, 0, 74, 64
2, 129024, Note_on_c, 0, 86, 82
2, 129024, Note_on_c, 0, 82, 80
2, 129024, Note_on_c, 0, 79, 78
2, 129024, Note_on_c, 0, 74, 74
2, 129788, Note_off_c, 0, 86, 64
2, 129788, Note_off_c, 0, 82, 64
2, 129788, Note_off_c, 0, 79, 64
2, 129788, Note_off_c, 0, 74, 64
2, 129984, Note_on_c, 0, 74, 77
2, 130172, Note_off_c, 0, 74, 64
2, 130176, Note_on_c, 0, 86, 82
2, 130364, Note_off_c, 0, 86, 64
2, 130368, Note_on_c, 0, 84, 81
2, 130556, Note_off_c, 0, 84, 64
2, 130560, Note_on_c, 0, 82, 80
2, 130748, Note_off_c, 0, 82, 64
2, 130752, Note_on_c, 0, 86, 82
2, 130940, Note_off_c, 0, 86, 64
2, 130944, Note_on_c, 0, 82, 80
2, 131132, Note_off_c, 0, 82, 64
2, 131136, Note_on_c, 0, 81, 79
2, 131324, Note_off_c, 0, 81, 64
2, 131328, Note_on_c, 0, 79, 78
2, 131516, Note_off_c, 0, 79, 64
2, 131520, Note_on_c, 0, 86, 82
2, 131708, Note_off_c, 0, 86, 64
2, 131712, Note_on_c, 0, 79, 78
2, 131900, Note_off_c, 0, 79, 64
2, 131904, Note_on_c, 0, 77, 77
2, 132092, Note_off_c, 0, 77, 64
2, 132096, Note_on_c, 0, 76, 75
2, 132284, Note_off_c, 0, 76, 64
2, 132288, Note_on_c, 0, 79, 78
2, 132476, Note_off_c, 0, 79, 64
2, 132480, Note_on_c, 0, 76, 75
2, 132668, Note_off_c, 0, 76, 64
2, 132672, Note_on_c, 0, 74, 74
2, 132860, Note_off_c, 0, 74, 64
2, 132864, Note_on_c, 0, 72, 73
2, 133052, Note_off_c, 0, 72, 64
2, 133056, Note_on_c, 0, 79, 78
2, 133244, Note_off_c, 0, 79, 64
2, 133248, Note_on_c, 0, 72, 73
2, 133436, Note_off_c, 0, 72, 64
2, 133440, Note_on_c, 0, 70, 72
2, 133628, Note_off_c, 0, 70, 64
2, 133632, Note_on_c, 0, 69, 72
2, 133820, Note_off_c, 0, 69, 64
2, 133824, Note_on_c, 0, 72, 74
2, 134012, Note_off_c, 0, 72, 64
2, 134016, Note_on_c, 0, 77, 77
2, 134204, Note_off_c, 0, 77, 64
2, 134208, Note_on_c, 0, 72, 75
2, 134396, Note_off_c, 0, 72, 64
2, 134400, Note_on_c, 0, 69, 75
2, 134588, Note_off_c, 0, 69, 64
2, 134592, Note_on_c, 0, 72, 74
2, 134780, Note_off_c, 0, 72, 64
2, 134784, Note_on_c, 0, 69, 72
2, 134972, Note_off_c, 0, 69, 64
2, 134976, Note_on_c, 0, 65, 72
2, 135164, Note_off_c, 0, 65, 64
2, 135168, Note_on_c, 0, 64, 72
2, 135356, Note_off_c, 0, 64, 64
2, 135360, Note_on_c, 0, 67, 73
2, 135548, Note_off_c, 0, 67, 64
2, 135552, Note_on_c, 0, 64, 72
2, 135740, Note_off_c, 0, 64, 64
2, 135744, Note_on_c, 0, 62, 71
2, 135932, Note_off_c, 0, 62, 64
2, 135936, Note_on_c, 0, 60, 73
2, 136124, Note_off_c, 0, 60, 64
2, 136128, Note_on_c, 0, 67, 77
2, 136316, Note_off_c, 0, 67, 64
2, 136320, Note_on_c, 0, 60, 77
2, 136508, Note_off_c, 0, 60, 64
2, 136512, Note_on_c, 0, 58, 75
2, 136700, Note_off_c, 0, 58, 64
2, 136704, Note_on_c, 0, 57, 77
2, 136892, Note_off_c, 0, 57, 64
2, 136896, Note_on_c, 0, 60, 77
2, 137084, Note_off_c, 0, 60, 64
2, 137088, Note_on_c, 0, 65, 77
2, 137276, Note_off_c, 0, 65, 64
2, 137280, Note_on_c, 0, 60, 77
2, 137468, Note_off_c, 0, 60, 64
2, 137472, Note_on_c, 0, 57, 77
2, 137660, Note_off_c, 0, 57, 64
2, 137664, Note_on_c, 0, 60, 77
2, 137852, Note_off_c, 0, 60, 64
2, 137856, Note_on_c, 0, 57, 77
2, 138044, Note_off_c, 0, 57, 64
2, 138048, Note_on_c, 0, 53, 77
2, 138236, Note_off_c, 0, 53, 64
2, 138240, Note_on_c, 0, 60, 77
2, 138620, Note_off_c, 0, 60, 64
2, 139008, Note_on_c, 0, 55, 77
2, 139196, Note_off_c, 0, 55, 64
2, 139200, Note_on_c, 0, 60, 77
2, 139388, Note_off_c, 0, 60, 64
2, 139392, Note_on_c, 0, 64, 77
2, 139580, Note_off_c, 0, 64, 64
2, 139584, Note_on_c, 0, 67, 77
2, 139772, Note_off_c, 0, 67, 64
2, 139776, Note_on_c, 0, 72, 77
2, 140156, Note_off_c, 0, 72, 64
2, 140352, Note_on_c, 0, 64, 77
2, 140540, Note_off_c, 0, 64, 64
2, 140544, Note_on_c, 0, 67, 77
2, 140732, Note_off_c, 0, 67, 64
2, 140736, Note_on_c, 0, 72, 77
2, 140924, Note_off_c, 0, 72, 64
2, 140928, Note_on_c, 0, 76, 75
2, 141116, Note_off_c, 0, 76, 64
2, 141120, Note_on_c, 0, 79, 78
2, 141308, Note_off_c, 0, 79, 64
2, 141312, Note_on_c, 0, 84, 81
2, 141312, Note_on_c, 0, 72, 77
2, 141692, Note_off_c, 0, 84, 64
2, 141692, Note_off_c, 0, 72, 64
2, 142848, Note_on_c, 0, 84, 81
2, 142848, Note_on_c, 0, 72, 77
2, 144380, Note_off_c, 0, 84, 64
2, 144380, Note_off_c, 0, 72, 64
2, 144384, Note_on_c, 0, 73, 81
2, 144384, Note_on_c, 0, 85, 77
2, 145916, Note_off_c, 0, 73, 64
2, 145916, Note_off_c, 0, 85, 64
2, 145920, Note_on_c, 0, 84, 81
2, 145920, Note_on_c, 0, 72, 77
2, 146300, Note_off_c, 0, 84, 64
2, 146300, Note_off_c, 0, 72, 64
2, 146304, Note_on_c, 0, 80, 78
2, 146492, Note_off_c, 0, 80, 64
2, 146688, Note_on_c, 0, 82, 80
2, 146688, Note_on_c, 0, 70, 77
2, 147068, Note_off_c, 0, 82, 64
2, 147068, Note_off_c, 0, 70, 64
2, 147072, Note_on_c, 0, 79, 78
2, 147260, Note_off_c, 0, 79, 64
2, 147456, Note_on_c, 0, 80, 78
2, 147456, Note_on_c, 0, 68, 77
2, 147836, Note_off_c, 0, 80, 64
2, 147836, Note_off_c, 0, 68, 64
2, 147840, Note_on_c, 0, 77, 77
2, 148028, Note_off_c, 0, 77, 64
2, 148224, Note_on_c, 0, 79, 78
2, 148224, Note_on_c, 0, 67, 77
2, 148604, Note_off_c, 0, 79, 64
2, 148604, Note_off_c, 0, 67, 64
2, 148608, Note_on_c, 0, 76, 77
2, 148796, Note_off_c, 0, 76, 64
2, 148992, Note_on_c, 0, 77, 77
2, 149376, Note_on_c, 0, 68, 77
2, 149376, Note_on_c, 0, 65, 77
2, 149376, Note_on_c, 0, 60, 77
2, 149756, Note_off_c, 0, 68, 64
2, 149756, Note_off_c, 0, 65, 64
2, 149756, Note_off_c, 0, 60, 64
2, 149760, Note_on_c, 0, 68, 77
2, 149760, Note_on_c, 0, 65, 77
2, 149760, Note_on_c, 0, 60, 77
2, 150140, Note_off_c, 0, 77, 64
2, 150140, Note_off_c, 0, 68, 64
2, 150140, Note_off_c, 0, 65, 64
2, 150140, Note_off_c, 0, 60, 64
2, 150144, Note_on_c, 0, 79, 78
2, 150144, Note_on_c, 0, 60, 77
2, 150144, Note_on_c, 0, 68, 77
2, 150144, Note_on_c, 0, 65, 77
2, 150332, Note_off_c, 0, 79, 64
2, 150336, Note_on_c, 0, 80, 78
2, 150524, Note_off_c, 0, 60, 64
2, 150524, Note_off_c, 0, 68, 64
2, 150524, Note_off_c, 0, 65, 64
2, 150524, Note_off_c, 0, 80, 64
2, 150528, Note_on_c, 0, 67, 78
2, 150528, Note_on_c, 0, 64, 77
2, 150528, Note_on_c, 0, 60, 77
2, 150528, Note_on_c, 0, 79, 77
2, 150716, Note_off_c, 0, 79, 64
2, 150720, Note_on_c, 0, 72, 77
2, 150908, Note_off_c, 0, 67, 64
2, 150908, Note_off_c, 0, 64, 64
2, 150908, Note_off_c, 0, 60, 64
2, 150908, Note_off_c, 0, 72, 64
2, 150912, Note_on_c, 0, 74, 77
2, 151100, Note_off_c, 0, 74, 64
2, 151104, Note_on_c, 0, 76, 77
2, 151292, Note_off_c, 0, 76, 64
2, 151296, Note_on_c, 0, 77, 77
2, 151484, Note_off_c, 0, 77, 64
2, 151488, Note_on_c, 0, 79, 78
2, 151676, Note_off_c, 0, 79, 64
2, 151680, Note_on_c, 0, 80, 78
2, 151868, Note_off_c, 0, 80, 64
2, 151872, Note_on_c, 0, 82, 80
2, 152060, Note_off_c, 0, 82, 64
2, 152064, Note_on_c, 0, 84, 81
2, 152064, Note_on_c, 0, 65, 77
2, 152064, Note_on_c, 0, 68, 77
2, 152252, Note_off_c, 0, 84, 64
2, 152256, Note_on_c, 0, 80, 78
2, 152444, Note_off_c, 0, 65, 64
2, 152444, Note_off_c, 0, 68, 64
2, 152444, Note_off_c, 0, 80, 64
2, 152448, Note_on_c, 0, 77, 77
2, 152448, Note_on_c, 0, 65, 77
2, 152448, Note_on_c, 0, 68, 77
2, 152636, Note_off_c, 0, 77, 64
2, 152640, Note_on_c, 0, 80, 78
2, 152828, Note_off_c, 0, 65, 64
2, 152828, Note_off_c, 0, 68, 64
2, 152828, Note_off_c, 0, 80, 64
2, 152832, Note_on_c, 0, 84, 81
2, 152832, Note_on_c, 0, 65, 77
2, 152832, Note_on_c, 0, 68, 77
2, 153020, Note_off_c, 0, 84, 64
2, 153024, Note_on_c, 0, 80, 78
2, 153212, Note_off_c, 0, 65, 64
2, 153212, Note_off_c, 0, 68, 64
2, 153212, Note_off_c, 0, 80, 64
2, 153216, Note_on_c, 0, 84, 81
2, 153404, Note_off_c, 0, 84, 64
2, 153408, Note_on_c, 0, 80, 78
2, 153596, Note_off_c, 0, 80, 64
2, 153600, Note_on_c, 0, 85, 81
2, 153600, Note_on_c, 0, 64, 77
2, 153600, Note_on_c, 0, 67, 77
2, 153600, Note_on_c, 0, 70, 77
2, 153788, Note_off_c, 0, 85, 64
2, 153792, Note_on_c, 0, 82, 80
2, 153980, Note_off_c, 0, 64, 64
2, 153980, Note_off_c, 0, 67, 64
2, 153980, Note_off_c, 0, 70, 64
2, 153980, Note_off_c, 0, 82, 64
2, 153984, Note_on_c, 0, 79, 78
2, 153984, Note_on_c, 0, 64, 77
2, 153984, Note_on_c, 0, 70, 77
2, 153984, Note_on_c, 0, 67, 77
2, 154172, Note_off_c, 0, 79, 64
2, 154176, Note_on_c, 0, 82, 80
2, 154364, Note_off_c, 0, 64, 64
2, 154364, Note_off_c, 0, 70, 64
2, 154364, Note_off_c, 0, 67, 64
2, 154364, Note_off_c, 0, 82, 64
2, 154368, Note_on_c, 0, 85, 81
2, 154368, Note_on_c, 0, 64, 77
2, 154368, Note_on_c, 0, 67, 77
2, 154368, Note_on_c, 0, 70, 77
2, 154556, Note_off_c, 0, 85, 64
2, 154560, Note_on_c, 0, 82, 80
2, 154748, Note_off_c, 0, 64, 64
2, 154748, Note_off_c, 0, 67, 64
2, 154748, Note_off_c, 0, 70, 64
2, 154748, Note_off_c, 0, 82, 64
2, 154752, Note_on_c, 0, 85, 81
2, 154940, Note_off_c, 0, 85, 64
2, 154944, Note_on_c, 0, 82, 80
2, 155132, Note_off_c, 0, 82, 64
2, 155136, Note_on_c, 0, 84, 81
2, 155136, Note_on_c, 0, 65, 77
2, 155136, Note_on_c, 0, 68, 77
2, 155324, Note_off_c, 0, 84, 64
2, 155328, Note_on_c, 0, 80, 78
2, 155516, Note_off_c, 0, 65, 64
2, 155516, Note_off_c, 0, 68, 64
2, 155516, Note_off_c, 0, 80, 64
2, 155520, Note_on_c, 0, 84, 81
2, 155708, Note_off_c, 0, 84, 64
2, 155712, Note_on_c, 0, 80, 78
2, 155900, Note_off_c, 0, 80, 64
2, 155904, Note_on_c, 0, 82, 80
2, 155904, Note_on_c, 0, 58, 77
2, 155904, Note_on_c, 0, 67, 77
2, 156092, Note_off_c, 0, 82, 64
2, 156096, Note_on_c, 0, 79, 78
2, 156284, Note_off_c, 0, 58, 64
2, 156284, Note_off_c, 0, 67, 64
2, 156284, Note_off_c, 0, 79, 64
2, 156288, Note_on_c, 0, 82, 80
2, 156476, Note_off_c, 0, 82, 64
2, 156480, Note_on_c, 0, 79, 78
2, 156668, Note_off_c, 0, 79, 64
2, 156672, Note_on_c, 0, 80, 78
2, 156672, Note_on_c, 0, 68, 77
2, 156672, Note_on_c, 0, 60, 77
2, 156860, Note_off_c, 0, 80, 64
2, 156864, Note_on_c, 0, 77, 77
2, 157052, Note_off_c, 0, 68, 64
2, 157052, Note_off_c, 0, 60, 64
2, 157052, Note_off_c, 0, 77, 64
2, 157056, Note_on_c, 0, 80, 78
2, 157244, Note_off_c, 0, 80, 64
2, 157248, Note_on_c, 0, 77, 77
2, 157436, Note_off_c, 0, 77, 64
2, 157440, Note_on_c, 0, 79, 78
2, 157440, Note_on_c, 0, 70, 77
2, 157440, Note_on_c, 0, 60, 77
2, 157628, Note_off_c, 0, 79, 64
2, 157632, Note_on_c, 0, 76, 77
2, 157820, Note_off_c, 0, 70, 64
2, 157820, Note_off_c, 0, 60, 64
2, 157820, Note_off_c, 0, 76, 64
2, 157824, Note_on_c, 0, 79, 78
2, 158012, Note_off_c, 0, 79, 64
2, 158016, Note_on_c, 0, 76, 77
2, 158204, Note_off_c, 0, 76, 64
2, 158208, Note_on_c, 0, 77, 77
2, 158208, Note_on_c, 0, 71, 77
2, 158208, Note_on_c, 0, 61, 77
2, 158208, Note_on_c, 0, 65, 77
2, 158396, Note_off_c, 0, 77, 64
2, 158400, Note_on_c, 0, 79, 78
2, 158588, Note_off_c, 0, 79, 64
2, 158592, Note_on_c, 0, 77, 77
2, 158780, Note_off_c, 0, 77, 64
2, 158784, Note_on_c, 0, 76, 77
2, 158972, Note_off_c, 0, 76, 64
2, 158976, Note_on_c, 0, 77, 77
2, 159164, Note_off_c, 0, 77, 64
2, 159168, Note_on_c, 0, 79, 78
2, 159356, Note_off_c, 0, 79, 64
2, 159360, Note_on_c, 0, 77, 77
2, 159548, Note_off_c, 0, 77, 64
2, 159552, Note_on_c, 0, 79, 78
2, 159740, Note_off_c, 0, 71, 64
2, 159740, Note_off_c, 0, 61, 64
2, 159740, Note_off_c, 0, 79, 64
2, 159744, Note_on_c, 0, 80, 78
2, 159744, Note_on_c, 0, 72, 77
2, 159744, Note_on_c, 0, 60, 77
2, 159932, Note_off_c, 0, 80, 64
2, 159936, Note_on_c, 0, 82, 80
2, 160124, Note_off_c, 0, 82, 64
2, 160128, Note_on_c, 0, 80, 78
2, 160316, Note_off_c, 0, 80, 64
2, 160320, Note_on_c, 0, 79, 78
2, 160508, Note_off_c, 0, 79, 64
2, 160512, Note_on_c, 0, 80, 79
2, 160700, Note_off_c, 0, 80, 64
2, 160704, Note_on_c, 0, 82, 80
2, 160892, Note_off_c, 0, 65, 64
2, 160892, Note_off_c, 0, 82, 64
2, 160896, Note_on_c, 0, 79, 78
2, 160896, Note_on_c, 0, 64, 77
2, 161084, Note_off_c, 0, 79, 64
2, 161088, Note_on_c, 0, 80, 78
2, 161276, Note_off_c, 0, 72, 64
2, 161276, Note_off_c, 0, 60, 64
2, 161276, Note_off_c, 0, 64, 64
2, 161276, Note_off_c, 0, 80, 64
2, 161280, Note_on_c, 0, 77, 77
2, 161280, Note_on_c, 0, 71, 77
2, 161280, Note_on_c, 0, 61, 77
2, 161280, Note_on_c, 0, 65, 77
2, 161468, Note_off_c, 0, 77, 64
2, 161472, Note_on_c, 0, 79, 78
2, 161660, Note_off_c, 0, 79, 64
2, 161664, Note_on_c, 0, 77, 77
2, 161852, Note_off_c, 0, 77, 64
2, 161856, Note_on_c, 0, 76, 77
2, 162044, Note_off_c, 0, 76, 64
2, 162048, Note_on_c, 0, 77, 77
2, 162236, Note_off_c, 0, 77, 64
2, 162240, Note_on_c, 0, 79, 78
2, 162428, Note_off_c, 0, 79, 64
2, 162432, Note_on_c, 0, 77, 77
2, 162620, Note_off_c, 0, 77, 64
2, 162624, Note_on_c, 0, 79, 78
2, 162812, Note_off_c, 0, 71, 64
2, 162812, Note_off_c, 0, 61, 64
2, 162812, Note_off_c, 0, 79, 64
2, 162816, Note_on_c, 0, 80, 78
2, 162816, Note_on_c, 0, 72, 77
2, 162816, Note_on_c, 0, 60, 77
2, 163004, Note_off_c, 0, 80, 64
2, 163008, Note_on_c, 0, 82, 80
2, 163196, Note_off_c, 0, 82, 64
2, 163200, Note_on_c, 0, 80, 78
2, 163388, Note_off_c, 0, 80, 64
2, 163392, Note_on_c, 0, 79, 78
2, 163580, Note_off_c, 0, 79, 64
2, 163584, Note_on_c, 0, 80, 79
2, 163772, Note_off_c, 0, 80, 64
2, 163776, Note_on_c, 0, 82, 80
2, 163964, Note_off_c, 0, 65, 64
2, 163964, Note_off_c, 0, 82, 64
2, 163968, Note_on_c, 0, 79, 78
2, 163968, Note_on_c, 0, 64, 77
2, 164156, Note_off_c, 0, 79, 64
2, 164160, Note_on_c, 0, 80, 78
2, 164348, Note_off_c, 0, 72, 64
2, 164348, Note_off_c, 0, 60, 64
2, 164348, Note_off_c, 0, 64, 64
2, 164348, Note_off_c, 0, 80, 64
2, 164352, Note_on_c, 0, 77, 77
2, 164352, Note_on_c, 0, 71, 77
2, 164352, Note_on_c, 0, 65, 77
2, 164352, Note_on_c, 0, 61, 77
2, 164540, Note_off_c, 0, 77, 64
2, 164544, Note_on_c, 0, 79, 78
2, 164732, Note_off_c, 0, 79, 64
2, 164736, Note_on_c, 0, 77, 77
2, 164924, Note_off_c, 0, 77, 64
2, 164928, Note_on_c, 0, 76, 77
2, 165116, Note_off_c, 0, 76, 64
2, 165120, Note_on_c, 0, 77, 77
2, 165308, Note_off_c, 0, 77, 64
2, 165312, Note_on_c, 0, 79, 78
2, 165500, Note_off_c, 0, 79, 64
2, 165504, Note_on_c, 0, 77, 77
2, 165692, Note_off_c, 0, 77, 64
2, 165696, Note_on_c, 0, 76, 77
2, 165884, Note_off_c, 0, 71, 64
2, 165884, Note_off_c, 0, 65, 64
2, 165884, Note_off_c, 0, 61, 64
2, 165884, Note_off_c, 0, 76, 64
2, 165888, Note_on_c, 0, 77, 77
2, 165888, Note_on_c, 0, 71, 77
2, 165888, Note_on_c, 0, 65, 77
2, 165888, Note_on_c, 0, 62, 77
2, 166076, Note_off_c, 0, 77, 64
2, 166080, Note_on_c, 0, 79, 78
2, 166268, Note_off_c, 0, 79, 64
2, 166272, Note_on_c, 0, 77, 77
2, 166460, Note_off_c, 0, 77, 64
2, 166464, Note_on_c, 0, 76, 77
2, 166652, Note_off_c, 0, 76, 64
2, 166656, Note_on_c, 0, 77, 77
2, 166844, Note_off_c, 0, 77, 64
2, 166848, Note_on_c, 0, 79, 78
2, 167036, Note_off_c, 0, 79, 64
2, 167040, Note_on_c, 0, 77, 77
2, 167228, Note_off_c, 0, 77, 64
2, 167232, Note_on_c, 0, 79, 78
2, 167420, Note_off_c, 0, 71, 64
2, 167420, Note_off_c, 0, 65, 64
2, 167420, Note_off_c, 0, 62, 64
2, 167420, Note_off_c, 0, 79, 64
2, 167424, Note_on_c, 0, 81, 79
2, 167424, Note_on_c, 0, 72, 77
2, 167424, Note_on_c, 0, 60, 77
2, 167424, Note_on_c, 0, 65, 77
2, 167612, Note_off_c, 0, 81, 64
2, 167616, Note_on_c, 0, 82, 80
2, 167804, Note_off_c, 0, 82, 64
2, 167808, Note_on_c, 0, 81, 79
2, 167996, Note_off_c, 0, 81, 64
2, 168000, Note_on_c, 0, 79, 78
2, 168188, Note_off_c, 0, 79, 64
2, 168192, Note_on_c, 0, 81, 79
2, 168380, Note_off_c, 0, 81, 64
2, 168384, Note_on_c, 0, 82, 80
2, 168572, Note_off_c, 0, 82, 64
2, 168576, Note_on_c, 0, 81, 79
2, 168764, Note_off_c, 0, 81, 64
2, 168768, Note_on_c, 0, 79, 78
2, 168956, Note_off_c, 0, 79, 64
2, 168960, Note_on_c, 0, 81, 79
2, 169148, Note_off_c, 0, 81, 64
2, 169152, Note_on_c, 0, 82, 80
2, 169340, Note_off_c, 0, 82, 64
2, 169344, Note_on_c, 0, 84, 81
2, 169532, Note_off_c, 0, 84, 64
2, 169536, Note_on_c, 0, 81, 79
2, 169724, Note_off_c, 0, 81, 64
2, 169728, Note_on_c, 0, 79, 78
2, 169728, Note_on_c, 0, 70, 77
2, 169728, Note_on_c, 0, 64, 77
2, 169916, Note_off_c, 0, 79, 64
2, 169920, Note_on_c, 0, 81, 79
2, 170108, Note_off_c, 0, 81, 64
2, 170112, Note_on_c, 0, 82, 80
2, 170300, Note_off_c, 0, 82, 64
2, 170304, Note_on_c, 0, 79, 78
2, 170492, Note_off_c, 0, 60, 64
2, 170492, Note_off_c, 0, 65, 64
2, 170492, Note_off_c, 0, 72, 64
2, 170492, Note_off_c, 0, 70, 64
2, 170492, Note_off_c, 0, 64, 64
2, 170492, Note_off_c, 0, 79, 64
2, 170496, Note_on_c, 0, 77, 77
2, 170496, Note_on_c, 0, 69, 77
2, 170496, Note_on_c, 0, 65, 77
2, 170876, Note_off_c, 0, 77, 64
2, 170876, Note_off_c, 0, 69, 64
2, 170876, Note_off_c, 0, 65, 64
2, 170880, Note_on_c, 0, 77, 77
2, 171068, Note_off_c, 0, 77, 64
2, 171072, Note_on_c, 0, 79, 78
2, 171260, Note_off_c, 0, 79, 64
2, 171264, Note_on_c, 0, 81, 79
2, 171452, Note_off_c, 0, 81, 64
2, 171456, Note_on_c, 0, 82, 80
2, 171644, Note_off_c, 0, 82, 64
2, 171648, Note_on_c, 0, 84, 81
2, 171836, Note_off_c, 0, 84, 64
2, 171840, Note_on_c, 0, 81, 79
2, 172028, Note_off_c, 0, 81, 64
2, 172032, Note_on_c, 0, 86, 82
2, 172032, Note_on_c, 0, 70, 77
2, 172220, Note_off_c, 0, 86, 64
2, 172220, Note_off_c, 0, 70, 64
2, 172224, Note_on_c, 0, 87, 82
2, 172224, Note_on_c, 0, 72, 77
2, 172412, Note_off_c, 0, 87, 64
2, 172412, Note_off_c, 0, 72, 64
2, 172416, Note_on_c, 0, 84, 81
2, 172416, Note_on_c, 0, 69, 77
2, 172604, Note_off_c, 0, 84, 64
2, 172604, Note_off_c, 0, 69, 64
2, 172608, Note_on_c, 0, 86, 82
2, 172608, Note_on_c, 0, 70, 77
2, 172796, Note_off_c, 0, 86, 64
2, 172796, Note_off_c, 0, 70, 64
2, 172800, Note_on_c, 0, 82, 80
2, 172800, Note_on_c, 0, 67, 77
2, 172988, Note_off_c, 0, 82, 64
2, 172988, Note_off_c, 0, 67, 64
2, 172992, Note_on_c, 0, 84, 81
2, 172992, Note_on_c, 0, 69, 77
2, 173180, Note_off_c, 0, 84, 64
2, 173180, Note_off_c, 0, 69, 64
2, 173184, Note_on_c, 0, 81, 79
2, 173184, Note_on_c, 0, 65, 77
2, 173372, Note_off_c, 0, 81, 64
2, 173372, Note_off_c, 0, 65, 64
2, 173376, Note_on_c, 0, 82, 80
2, 173376, Note_on_c, 0, 67, 77
2, 173564, Note_off_c, 0, 82, 64
2, 173564, Note_off_c, 0, 67, 64
2, 173568, Note_on_c, 0, 64, 78
2, 173568, Note_on_c, 0, 79, 77
2, 173756, Note_off_c, 0, 79, 64
2, 173760, Note_on_c, 0, 81, 79
2, 173948, Note_off_c, 0, 81, 64
2, 173952, Note_on_c, 0, 79, 78
2, 174140, Note_off_c, 0, 79, 64
2, 174144, Note_on_c, 0, 78, 77
2, 174332, Note_off_c, 0, 64, 64
2, 174332, Note_off_c, 0, 78, 64
2, 174336, Note_on_c, 0, 79, 78
2, 174524, Note_off_c, 0, 79, 64
2, 174528, Note_on_c, 0, 81, 79
2, 174716, Note_off_c, 0, 81, 64
2, 174720, Note_on_c, 0, 82, 80
2, 174908, Note_off_c, 0, 82, 64
2, 174912, Note_on_c, 0, 79, 78
2, 175100, Note_off_c, 0, 79, 64
2, 175104, Note_on_c, 0, 84, 81
2, 175104, Note_on_c, 0, 69, 77
2, 175292, Note_off_c, 0, 84, 64
2, 175292, Note_off_c, 0, 69, 64
2, 175296, Note_on_c, 0, 86, 82
2, 175296, Note_on_c, 0, 70, 77
2, 175484, Note_off_c, 0, 86, 64
2, 175484, Note_off_c, 0, 70, 64
2, 175488, Note_on_c, 0, 82, 80
2, 175488, Note_on_c, 0, 67, 77
2, 175676, Note_off_c, 0, 82, 64
2, 175676, Note_off_c, 0, 67, 64
2, 175680, Note_on_c, 0, 84, 81
2, 175680, Note_on_c, 0, 69, 77
2, 175868, Note_off_c, 0, 84, 64
2, 175868, Note_off_c, 0, 69, 64
2, 175872, Note_on_c, 0, 81, 79
2, 175872, Note_on_c, 0, 65, 77
2, 176060, Note_off_c, 0, 81, 64
2, 176060, Note_off_c, 0, 65, 64
2, 176064, Note_on_c, 0, 82, 80
2, 176064, Note_on_c, 0, 67, 77
2, 176252, Note_off_c, 0, 82, 64
2, 176252, Note_off_c, 0, 67, 64
2, 176256, Note_on_c, 0, 79, 78
2, 176256, Note_on_c, 0, 64, 77
2, 176444, Note_off_c, 0, 79, 64
2, 176444, Note_off_c, 0, 64, 64
2, 176448, Note_on_c, 0, 81, 79
2, 176448, Note_on_c, 0, 65, 77
2, 176636, Note_off_c, 0, 81, 64
2, 176636, Note_off_c, 0, 65, 64
2, 176640, Note_on_c, 0, 62, 77
2, 176640, Note_on_c, 0, 77, 77
2, 176828, Note_off_c, 0, 77, 64
2, 176832, Note_on_c, 0, 79, 78
2, 177020, Note_off_c, 0, 79, 64
2, 177024, Note_on_c, 0, 77, 77
2, 177212, Note_off_c, 0, 77, 64
2, 177216, Note_on_c, 0, 76, 77
2, 177404, Note_off_c, 0, 62, 64
2, 177404, Note_off_c, 0, 76, 64
2, 177408, Note_on_c, 0, 77, 77
2, 177596, Note_off_c, 0, 77, 64
2, 177600, Note_on_c, 0, 79, 78
2, 177788, Note_off_c, 0, 79, 64
2, 177792, Note_on_c, 0, 81, 79
2, 177980, Note_off_c, 0, 81, 64
2, 177984, Note_on_c, 0, 77, 77
2, 178172, Note_off_c, 0, 77, 64
2, 178176, Note_on_c, 0, 82, 80
2, 178176, Note_on_c, 0, 67, 77
2, 178364, Note_off_c, 0, 82, 64
2, 178364, Note_off_c, 0, 67, 64
2, 178368, Note_on_c, 0, 86, 82
2, 178368, Note_on_c, 0, 70, 77
2, 178556, Note_off_c, 0, 86, 64
2, 178556, Note_off_c, 0, 70, 64
2, 178560, Note_on_c, 0, 84, 81
2, 178560, Note_on_c, 0, 69, 77
2, 178748, Note_off_c, 0, 84, 64
2, 178748, Note_off_c, 0, 69, 64
2, 178752, Note_on_c, 0, 86, 82
2, 178752, Note_on_c, 0, 70, 77
2, 178940, Note_off_c, 0, 86, 64
2, 178940, Note_off_c, 0, 70, 64
2, 178944, Note_on_c, 0, 82, 80
2, 178944, Note_on_c, 0, 67, 77
2, 179132, Note_off_c, 0, 82, 64
2, 179132, Note_off_c, 0, 67, 64
2, 179136, Note_on_c, 0, 84, 81
2, 179136, Note_on_c, 0, 69, 77
2, 179324, Note_off_c, 0, 84, 64
2, 179324, Note_off_c, 0, 69, 64
2, 179328, Note_on_c, 0, 81, 79
2, 179328, Note_on_c, 0, 65, 77
2, 179516, Note_off_c, 0, 81, 64
2, 179516, Note_off_c, 0, 65, 64
2, 179520, Note_on_c, 0, 82, 80
2, 179520, Note_on_c, 0, 67, 77
2, 179708, Note_off_c, 0, 82, 64
2, 179708, Note_off_c, 0, 67, 64
2, 179712, Note_on_c, 0, 79, 78
2, 179712, Note_on_c, 0, 64, 77
2, 179900, Note_off_c, 0, 79, 64
2, 179900, Note_off_c, 0, 64, 64
2, 179904, Note_on_c, 0, 82, 80
2, 179904, Note_on_c, 0, 67, 77
2, 180092, Note_off_c, 0, 82, 64
2, 180092, Note_off_c, 0, 67, 64
2, 180096, Note_on_c, 0, 81, 79
2, 180096, Note_on_c, 0, 65, 77
2, 180284, Note_off_c, 0, 81, 64
2, 180284, Note_off_c, 0, 65, 64
2, 180288, Note_on_c, 0, 82, 80
2, 180288, Note_on_c, 0, 67, 77
2, 180476, Note_off_c, 0, 82, 64
2, 180476, Note_off_c, 0, 67, 64
2, 180480, Note_on_c, 0, 79, 78
2, 180480, Note_on_c, 0, 64, 77
2, 180668, Note_off_c, 0, 79, 64
2, 180668, Note_off_c, 0, 64, 64
2, 180672, Note_on_c, 0, 81, 79
2, 180672, Note_on_c, 0, 65, 77
2, 180860, Note_off_c, 0, 81, 64
2, 180860, Note_off_c, 0, 65, 64
2, 180864, Note_on_c, 0, 77, 77
2, 180864, Note_on_c, 0, 62, 77
2, 181052, Note_off_c, 0, 77, 64
2, 181052, Note_off_c, 0, 62, 64
2, 181056, Note_on_c, 0, 79, 78
2, 181056, Note_on_c, 0, 64, 77
2, 181244, Note_off_c, 0, 79, 64
2, 181244, Note_off_c, 0, 64, 64
2, 181248, Note_on_c, 0, 76, 77
2, 181248, Note_on_c, 0, 60, 77
2, 181436, Note_off_c, 0, 76, 64
2, 181436, Note_off_c, 0, 60, 64
2, 181440, Note_on_c, 0, 77, 77
2, 181440, Note_on_c, 0, 62, 77
2, 181628, Note_off_c, 0, 77, 64
2, 181628, Note_off_c, 0, 62, 64
2, 181632, Note_on_c, 0, 74, 77
2, 181632, Note_on_c, 0, 58, 77
2, 181820, Note_off_c, 0, 74, 64
2, 181820, Note_off_c, 0, 58, 64
2, 181824, Note_on_c, 0, 76, 77
2, 181824, Note_on_c, 0, 60, 77
2, 182012, Note_off_c, 0, 76, 64
2, 182012, Note_off_c, 0, 60, 64
2, 182016, Note_on_c, 0, 72, 77
2, 182204, Note_off_c, 0, 72, 64
2, 182208, Note_on_c, 0, 74, 77
2, 182396, Note_off_c, 0, 74, 64
2, 182400, Note_on_c, 0, 70, 77
2, 182588, Note_off_c, 0, 70, 64
2, 182592, Note_on_c, 0, 72, 77
2, 182780, Note_off_c, 0, 72, 64
2, 182784, Note_on_c, 0, 69, 72
2, 182972, Note_off_c, 0, 69, 64
2, 182976, Note_on_c, 0, 72, 74
2, 183164, Note_off_c, 0, 72, 64
2, 183168, Note_on_c, 0, 77, 77
2, 183356, Note_off_c, 0, 77, 64
2, 183360, Note_on_c, 0, 81, 79
2, 183548, Note_off_c, 0, 81, 64
2, 183552, Note_on_c, 0, 84, 81
2, 183932, Note_off_c, 0, 84, 64
2, 183936, Note_on_c, 0, 69, 77
2, 184316, Note_off_c, 0, 69, 64
2, 184320, Note_on_c, 0, 70, 72
2, 184508, Note_off_c, 0, 70, 64
2, 184512, Note_on_c, 0, 74, 74
2, 184700, Note_off_c, 0, 74, 64
2, 184704, Note_on_c, 0, 77, 77
2, 184892, Note_off_c, 0, 77, 64
2, 184896, Note_on_c, 0, 82, 79
2, 185084, Note_off_c, 0, 82, 64
2, 185088, Note_on_c, 0, 86, 81
2, 185468, Note_off_c, 0, 86, 64
2, 185472, Note_on_c, 0, 71, 77
2, 185852, Note_off_c, 0, 71, 64
2, 185856, Note_on_c, 0, 72, 73
2, 186044, Note_off_c, 0, 72, 64
2, 186048, Note_on_c, 0, 77, 77
2, 186236, Note_off_c, 0, 77, 64
2, 186240, Note_on_c, 0, 81, 79
2, 186428, Note_off_c, 0, 81, 64
2, 186432, Note_on_c, 0, 84, 81
2, 186620, Note_off_c, 0, 84, 64
2, 186624, Note_on_c, 0, 89, 84
2, 187004, Note_off_c, 0, 89, 64
2, 187008, Note_on_c, 0, 77, 77
2, 187388, Note_off_c, 0, 77, 64
2, 187392, Note_on_c, 0, 79, 77
2, 187392, Note_on_c, 0, 60, 77
2, 187484, Note_off_c, 0, 79, 64
2, 187488, Note_on_c, 0, 81, 77
2, 187580, Note_off_c, 0, 60, 64
2, 187580, Note_off_c, 0, 81, 64
2, 187584, Note_on_c, 0, 79, 77
2, 187584, Note_on_c, 0, 70, 77
2, 187676, Note_off_c, 0, 79, 64
2, 187680, Note_on_c, 0, 81, 77
2, 187772, Note_off_c, 0, 70, 64
2, 187772, Note_off_c, 0, 81, 64
2, 187776, Note_on_c, 0, 79, 77
2, 187776, Note_on_c, 0, 64, 77
2, 187868, Note_off_c, 0, 79, 64
2, 187872, Note_on_c, 0, 81, 77
2, 187964, Note_off_c, 0, 64, 64
2, 187964, Note_off_c, 0, 81, 64
2, 187968, Note_on_c, 0, 79, 77
2, 187968, Note_on_c, 0, 70, 77
2, 188060, Note_off_c, 0, 79, 64
2, 188064, Note_on_c, 0, 81, 77
2, 188156, Note_off_c, 0, 70, 64
2, 188156, Note_off_c, 0, 81, 64
2, 188160, Note_on_c, 0, 79, 77
2, 188160, Note_on_c, 0, 60, 77
2, 188252, Note_off_c, 0, 79, 64
2, 188256, Note_on_c, 0, 81, 77
2, 188348, Note_off_c, 0, 60, 64
2, 188348, Note_off_c, 0, 81, 64
2, 188352, Note_on_c, 0, 79, 77
2, 188352, Note_on_c, 0, 70, 77
2, 188444, Note_off_c, 0, 79, 64
2, 188448, Note_on_c, 0, 81, 77
2, 188540, Note_off_c, 0, 70, 64
2, 188540, Note_off_c, 0, 81, 64
2, 188544, Note_on_c, 0, 79, 77
2, 188544, Note_on_c, 0, 64, 77
2, 188636, Note_off_c, 0, 79, 64
2, 188640, Note_on_c, 0, 81, 77
2, 188732, Note_off_c, 0, 64, 64
2, 188732, Note_off_c, 0, 81, 64
2, 188736, Note_on_c, 0, 77, 77
2, 188736, Note_on_c, 0, 70, 77
2, 188828, Note_off_c, 0, 77, 64
2, 188832, Note_on_c, 0, 79, 77
2, 188924, Note_off_c, 0, 70, 64
2, 188924, Note_off_c, 0, 79, 64
2, 188928, Note_on_c, 0, 77, 77
2, 188928, Note_on_c, 0, 65, 77
2, 189116, Note_off_c, 0, 65, 64
2, 189120, Note_on_c, 0, 64, 77
2, 189308, Note_off_c, 0, 77, 64
2, 189308, Note_off_c, 0, 64, 64
2, 189312, Note_on_c, 0, 65, 77
2, 189500, Note_off_c, 0, 65, 64
2, 189504, Note_on_c, 0, 67, 77
2, 189692, Note_off_c, 0, 67, 64
2, 189696, Note_on_c, 0, 69, 77
2, 189884, Note_off_c, 0, 69, 64
2, 189888, Note_on_c, 0, 67, 77
2, 190076, Note_off_c, 0, 67, 64
2, 190080, Note_on_c, 0, 69, 77
2, 190080, Note_on_c, 0, 84, 81
2, 190268, Note_off_c, 0, 69, 64
2, 190268, Note_off_c, 0, 84, 64
2, 190272, Note_on_c, 0, 65, 77
2, 190272, Note_on_c, 0, 81, 79
2, 190460, Note_off_c, 0, 65, 64
2, 190460, Note_off_c, 0, 81, 64
2, 190464, Note_on_c, 0, 86, 82
2, 190656, Note_on_c, 0, 70, 77
2, 190844, Note_off_c, 0, 86, 64
2, 190844, Note_off_c, 0, 70, 64
2, 190848, Note_on_c, 0, 84, 81
2, 191040, Note_on_c, 0, 69, 77
2, 191228, Note_off_c, 0, 84, 64
2, 191228, Note_off_c, 0, 69, 64
2, 191232, Note_on_c, 0, 82, 80
2, 191424, Note_on_c, 0, 67, 77
2, 191612, Note_off_c, 0, 82, 64
2, 191612, Note_off_c, 0, 67, 64
2, 191616, Note_on_c, 0, 81, 79
2, 191808, Note_on_c, 0, 65, 77
2, 191996, Note_off_c, 0, 81, 64
2, 191996, Note_off_c, 0, 65, 64
2, 192000, Note_on_c, 0, 79, 78
2, 192000, Note_on_c, 0, 64, 77
2, 192188, Note_off_c, 0, 79, 64
2, 192188, Note_off_c, 0, 64, 64
2, 192192, Note_on_c, 0, 78, 77
2, 192192, Note_on_c, 0, 63, 77
2, 192380, Note_off_c, 0, 78, 64
2, 192380, Note_off_c, 0, 63, 64
2, 192384, Note_on_c, 0, 79, 78
2, 192384, Note_on_c, 0, 64, 77
2, 192572, Note_off_c, 0, 79, 64
2, 192572, Note_off_c, 0, 64, 64
2, 192576, Note_on_c, 0, 81, 79
2, 192576, Note_on_c, 0, 66, 77
2, 192764, Note_off_c, 0, 81, 64
2, 192764, Note_off_c, 0, 66, 64
2, 192768, Note_on_c, 0, 82, 80
2, 192768, Note_on_c, 0, 67, 77
2, 192956, Note_off_c, 0, 82, 64
2, 192956, Note_off_c, 0, 67, 64
2, 192960, Note_on_c, 0, 81, 79
2, 192960, Note_on_c, 0, 66, 77
2, 193148, Note_off_c, 0, 81, 64
2, 193148, Note_off_c, 0, 66, 64
2, 193152, Note_on_c, 0, 82, 80
2, 193152, Note_on_c, 0, 67, 77
2, 193340, Note_off_c, 0, 82, 64
2, 193340, Note_off_c, 0, 67, 64
2, 193344, Note_on_c, 0, 79, 78
2, 193344, Note_on_c, 0, 64, 77
2, 193532, Note_off_c, 0, 79, 64
2, 193532, Note_off_c, 0, 64, 64
2, 193536, Note_on_c, 0, 84, 81
2, 193728, Note_on_c, 0, 69, 74
2, 193916, Note_off_c, 0, 84, 64
2, 193916, Note_off_c, 0, 69, 64
2, 193920, Note_on_c, 0, 82, 80
2, 194112, Note_on_c, 0, 67, 73
2, 194300, Note_off_c, 0, 82, 64
2, 194300, Note_off_c, 0, 67, 64
2, 194304, Note_on_c, 0, 81, 79
2, 194496, Note_on_c, 0, 65, 72
2, 194684, Note_off_c, 0, 81, 64
2, 194684, Note_off_c, 0, 65, 64
2, 194688, Note_on_c, 0, 79, 78
2, 194880, Note_on_c, 0, 64, 70
2, 195068, Note_off_c, 0, 79, 64
2, 195068, Note_off_c, 0, 64, 64
2, 195072, Note_on_c, 0, 77, 77
2, 195072, Note_on_c, 0, 62, 77
2, 195260, Note_off_c, 0, 77, 64
2, 195260, Note_off_c, 0, 62, 64
2, 195264, Note_on_c, 0, 76, 77
2, 195264, Note_on_c, 0, 61, 77
2, 195452, Note_off_c, 0, 76, 64
2, 195452, Note_off_c, 0, 61, 64
2, 195456, Note_on_c, 0, 77, 77
2, 195456, Note_on_c, 0, 62, 77
2, 195644, Note_off_c, 0, 77, 64
2, 195644, Note_off_c, 0, 62, 64
2, 195648, Note_on_c, 0, 79, 78
2, 195648, Note_on_c, 0, 64, 77
2, 195836, Note_off_c, 0, 79, 64
2, 195836, Note_off_c, 0, 64, 64
2, 195840, Note_on_c, 0, 81, 79
2, 195840, Note_on_c, 0, 65, 77
2, 196028, Note_off_c, 0, 81, 64
2, 196028, Note_off_c, 0, 65, 64
2, 196032, Note_on_c, 0, 79, 78
2, 196032, Note_on_c, 0, 64, 77
2, 196220, Note_off_c, 0, 79, 64
2, 196220, Note_off_c, 0, 64, 64
2, 196224, Note_on_c, 0, 81, 79
2, 196224, Note_on_c, 0, 65, 77
2, 196412, Note_off_c, 0, 81, 64
2, 196412, Note_off_c, 0, 65, 64
2, 196416, Note_on_c, 0, 77, 77
2, 196416, Note_on_c, 0, 62, 77
2, 196604, Note_off_c, 0, 77, 64
2, 196604, Note_off_c, 0, 62, 64
2, 196608, Note_on_c, 0, 82, 80
2, 196800, Note_on_c, 0, 67, 72
2, 196988, Note_off_c, 0, 82, 64
2, 196988, Note_off_c, 0, 67, 64
2, 196992, Note_on_c, 0, 81, 79
2, 197184, Note_on_c, 0, 65, 70
2, 197372, Note_off_c, 0, 81, 64
2, 197372, Note_off_c, 0, 65, 64
2, 197376, Note_on_c, 0, 79, 78
2, 197756, Note_off_c, 0, 79, 64
2, 197760, Note_on_c, 0, 77, 77
2, 198140, Note_off_c, 0, 77, 64
2, 198144, Note_on_c, 0, 76, 77
2, 198332, Note_off_c, 0, 76, 64
2, 198336, Note_on_c, 0, 88, 83
2, 198524, Note_off_c, 0, 88, 64
2, 198528, Note_on_c, 0, 74, 77
2, 198716, Note_off_c, 0, 74, 64
2, 198720, Note_on_c, 0, 86, 82
2, 198908, Note_off_c, 0, 86, 64
2, 198912, Note_on_c, 0, 72, 77
2, 199100, Note_off_c, 0, 72, 64
2, 199104, Note_on_c, 0, 84, 81
2, 199292, Note_off_c, 0, 84, 64
2, 199296, Note_on_c, 0, 70, 77
2, 199484, Note_off_c, 0, 70, 64
2, 199488, Note_on_c, 0, 82, 80
2, 199676, Note_off_c, 0, 82, 64
2, 199680, Note_on_c, 0, 69, 77
2, 199868, Note_off_c, 0, 69, 64
2, 199872, Note_on_c, 0, 81, 79
2, 200060, Note_off_c, 0, 81, 64
2, 200064, Note_on_c, 0, 67, 77
2, 200252, Note_off_c, 0, 67, 64
2, 200256, Note_on_c, 0, 79, 78
2, 200444, Note_off_c, 0, 79, 64
2, 200448, Note_on_c, 0, 65, 77
2, 200636, Note_off_c, 0, 65, 64
2, 200640, Note_on_c, 0, 77, 77
2, 200828, Note_off_c, 0, 77, 64
2, 200832, Note_on_c, 0, 64, 77
2, 201020, Note_off_c, 0, 64, 64
2, 201024, Note_on_c, 0, 76, 77
2, 201212, Note_off_c, 0, 76, 64
2, 201408, Note_on_c, 0, 56, 77
2, 201596, Note_off_c, 0, 56, 64
2, 201600, Note_on_c, 0, 59, 77
2, 201788, Note_off_c, 0, 59, 64
2, 201792, Note_on_c, 0, 62, 77
2, 201980, Note_off_c, 0, 62, 64
2, 201984, Note_on_c, 0, 65, 77
2, 202172, Note_off_c, 0, 65, 64
2, 202176, Note_on_c, 0, 68, 77
2, 202364, Note_off_c, 0, 68, 64
2, 202368, Note_on_c, 0, 71, 77
2, 202556, Note_off_c, 0, 71, 64
2, 202560, Note_on_c, 0, 74, 77
2, 202748, Note_off_c, 0, 74, 64
2, 202752, Note_on_c, 0, 77, 77
2, 202940, Note_off_c, 0, 77, 64
2, 202944, Note_on_c, 0, 80, 78
2, 203132, Note_off_c, 0, 80, 64
2, 203136, Note_on_c, 0, 83, 80
2, 203324, Note_off_c, 0, 83, 64
2, 203328, Note_on_c, 0, 86, 82
2, 203516, Note_off_c, 0, 86, 64
2, 203520, Note_on_c, 0, 89, 84
2, 203708, Note_off_c, 0, 89, 64
2, 203712, Note_on_c, 0, 86, 82
2, 203900, Note_off_c, 0, 86, 64
2, 203904, Note_on_c, 0, 83, 80
2, 204092, Note_off_c, 0, 83, 64
2, 204096, Note_on_c, 0, 80, 78
2, 204284, Note_off_c, 0, 80, 64
2, 204288, Note_on_c, 0, 77, 77
2, 204476, Note_off_c, 0, 77, 64
2, 204480, Note_on_c, 0, 74, 77
2, 204668, Note_off_c, 0, 74, 64
2, 204672, Note_on_c, 0, 71, 77
2, 204860, Note_off_c, 0, 71, 64
2, 204864, Note_on_c, 0, 68, 77
2, 205052, Note_off_c, 0, 68, 64
2, 205056, Note_on_c, 0, 65, 77
2, 205244, Note_off_c, 0, 65, 64
2, 205248, Note_on_c, 0, 62, 77
2, 205436, Note_off_c, 0, 62, 64
2, 205440, Note_on_c, 0, 59, 77
2, 205628, Note_off_c, 0, 59, 64
2, 205632, Note_on_c, 0, 56, 77
2, 205820, Note_off_c, 0, 56, 64
2, 205824, Note_on_c, 0, 53, 77
2, 206204, Note_off_c, 0, 53, 64
2, 206592, Note_on_c, 0, 86, 82
2, 206592, Note_on_c, 0, 80, 78
2, 206592, Note_on_c, 0, 77, 77
2, 206592, Note_on_c, 0, 74, 77
2, 206972, Note_off_c, 0, 86, 64
2, 206972, Note_off_c, 0, 80, 64
2, 206972, Note_off_c, 0, 77, 64
2, 206972, Note_off_c, 0, 74, 64
2, 207360, Note_on_c, 0, 84, 81
2, 207360, Note_on_c, 0, 69, 77
2, 207360, Note_on_c, 0, 60, 77
2, 207548, Note_off_c, 0, 84, 64
2, 207552, Note_on_c, 0, 77, 77
2, 207740, Note_off_c, 0, 77, 64
2, 207744, Note_on_c, 0, 72, 77
2, 207932, Note_off_c, 0, 72, 64
2, 207936, Note_on_c, 0, 77, 77
2, 208124, Note_off_c, 0, 77, 64
2, 208128, Note_on_c, 0, 84, 81
2, 208316, Note_off_c, 0, 84, 64
2, 208320, Note_on_c, 0, 77, 77
2, 208508, Note_off_c, 0, 69, 64
2, 208508, Note_off_c, 0, 77, 64
2, 208512, Note_on_c, 0, 83, 80
2, 208512, Note_on_c, 0, 68, 77
2, 208700, Note_off_c, 0, 83, 64
2, 208704, Note_on_c, 0, 77, 77
2, 208892, Note_off_c, 0, 60, 64
2, 208892, Note_off_c, 0, 68, 64
2, 208892, Note_off_c, 0, 77, 64
2, 208896, Note_on_c, 0, 69, 81
2, 208896, Note_on_c, 0, 60, 77
2, 208896, Note_on_c, 0, 84, 77
2, 209084, Note_off_c, 0, 84, 64
2, 209088, Note_on_c, 0, 77, 77
2, 209276, Note_off_c, 0, 77, 64
2, 209280, Note_on_c, 0, 72, 77
2, 209468, Note_off_c, 0, 72, 64
2, 209472, Note_on_c, 0, 77, 77
2, 209660, Note_off_c, 0, 77, 64
2, 209664, Note_on_c, 0, 84, 81
2, 209852, Note_off_c, 0, 84, 64
2, 209856, Note_on_c, 0, 77, 77
2, 210044, Note_off_c, 0, 69, 64
2, 210044, Note_off_c, 0, 77, 64
2, 210048, Note_on_c, 0, 68, 77
2, 210048, Note_on_c, 0, 83, 77
2, 210236, Note_off_c, 0, 83, 64
2, 210240, Note_on_c, 0, 77, 77
2, 210428, Note_off_c, 0, 60, 64
2, 210428, Note_off_c, 0, 68, 64
2, 210428, Note_off_c, 0, 77, 64
2, 210432, Note_on_c, 0, 84, 81
2, 210432, Note_on_c, 0, 69, 77
2, 210432, Note_on_c, 0, 60, 77
2, 210620, Note_off_c, 0, 84, 64
2, 210624, Note_on_c, 0, 77, 77
2, 210812, Note_off_c, 0, 69, 64
2, 210812, Note_off_c, 0, 60, 64
2, 210812, Note_off_c, 0, 77, 64
2, 210816, Note_on_c, 0, 86, 82
2, 211004, Note_off_c, 0, 86, 64
2, 211008, Note_on_c, 0, 77, 77
2, 211196, Note_off_c, 0, 77, 64
2, 211200, Note_on_c, 0, 88, 83
2, 211388, Note_off_c, 0, 88, 64
2, 211392, Note_on_c, 0, 77, 77
2, 211580, Note_off_c, 0, 77, 64
2, 211584, Note_on_c, 0, 89, 84
2, 211772, Note_off_c, 0, 89, 64
2, 211776, Note_on_c, 0, 77, 77
2, 211964, Note_off_c, 0, 77, 64
2, 211968, Note_on_c, 0, 79, 77
2, 211968, Note_on_c, 0, 60, 77
2, 212060, Note_off_c, 0, 79, 64
2, 212064, Note_on_c, 0, 81, 77
2, 212156, Note_off_c, 0, 60, 64
2, 212156, Note_off_c, 0, 81, 64
2, 212160, Note_on_c, 0, 79, 77
2, 212160, Note_on_c, 0, 70, 77
2, 212252, Note_off_c, 0, 79, 64
2, 212256, Note_on_c, 0, 81, 77
2, 212348, Note_off_c, 0, 70, 64
2, 212348, Note_off_c, 0, 81, 64
2, 212352, Note_on_c, 0, 79, 77
2, 212352, Note_on_c, 0, 64, 77
2, 212444, Note_off_c, 0, 79, 64
2, 212448, Note_on_c, 0, 81, 77
2, 212528, Note_on_c, 0, 70, 77
2, 212540, Note_off_c, 0, 64, 64
2, 212540, Note_off_c, 0, 81, 64
2, 212544, Note_on_c, 0, 79, 77
2, 212636, Note_off_c, 0, 79, 64
2, 212640, Note_on_c, 0, 81, 77
2, 212716, Note_off_c, 0, 70, 64
2, 212732, Note_off_c, 0, 81, 64
2, 212736, Note_on_c, 0, 79, 77
2, 212736, Note_on_c, 0, 60, 77
2, 212828, Note_off_c, 0, 79, 64
2, 212832, Note_on_c, 0, 81, 77
2, 212924, Note_off_c, 0, 60, 64
2, 212924, Note_off_c, 0, 81, 64
2, 212928, Note_on_c, 0, 79, 77
2, 212928, Note_on_c, 0, 70, 77
2, 213020, Note_off_c, 0, 79, 64
2, 213024, Note_on_c, 0, 81, 77
2, 213116, Note_off_c, 0, 70, 64
2, 213116, Note_off_c, 0, 81, 64
2, 213120, Note_on_c, 0, 79, 77
2, 213120, Note_on_c, 0, 64, 77
2, 213212, Note_off_c, 0, 79, 64
2, 213216, Note_on_c, 0, 82, 77
2, 213308, Note_off_c, 0, 64, 64
2, 213308, Note_off_c, 0, 82, 64
2, 213312, Note_on_c, 0, 77, 77
2, 213312, Note_on_c, 0, 70, 77
2, 213404, Note_off_c, 0, 77, 64
2, 213408, Note_on_c, 0, 79, 77
2, 213500, Note_off_c, 0, 70, 64
2, 213500, Note_off_c, 0, 79, 64
2, 213504, Note_on_c, 0, 77, 77
2, 213504, Note_on_c, 0, 69, 77
2, 213504, Note_on_c, 0, 65, 77
2, 213884, Note_off_c, 0, 77, 64
2, 213884, Note_off_c, 0, 69, 64
2, 213884, Note_off_c, 0, 65, 64
2, 215040, Note_on_c, 0, 84, 81
2, 215040, Note_on_c, 0, 72, 77
2, 216188, Note_off_c, 0, 84, 64
2, 216188, Note_off_c, 0, 72, 64
2, 216192, Note_on_c, 0, 79, 78
2, 216572, Note_off_c, 0, 79, 64
2, 216576, Note_on_c, 0, 79, 78
2, 216956, Note_off_c, 0, 79, 64
2, 216960, Note_on_c, 0, 81, 79
2, 217148, Note_off_c, 0, 81, 64
2, 217344, Note_on_c, 0, 77, 77
2, 218108, Note_off_c, 0, 77, 64
2, 218112, Note_on_c, 0, 81, 79
2, 218492, Note_off_c, 0, 81, 64
2, 218496, Note_on_c, 0, 82, 80
2, 218684, Note_off_c, 0, 82, 64
2, 218880, Note_on_c, 0, 79, 78
2, 219644, Note_off_c, 0, 79, 64
2, 219648, Note_on_c, 0, 84, 81
2, 219836, Note_off_c, 0, 84, 64
2, 219840, Note_on_c, 0, 83, 80
2, 220028, Note_off_c, 0, 83, 64
2, 220032, Note_on_c, 0, 84, 81
2, 220220, Note_off_c, 0, 84, 64
2, 220224, Note_on_c, 0, 86, 82
2, 220412, Note_off_c, 0, 86, 64
2, 220416, Note_on_c, 0, 84, 81
2, 220796, Note_off_c, 0, 84, 64
2, 221184, Note_on_c, 0, 84, 81
2, 221184, Note_on_c, 0, 72, 77
2, 222332, Note_off_c, 0, 84, 64
2, 222332, Note_off_c, 0, 72, 64
2, 222336, Note_on_c, 0, 79, 78
2, 222716, Note_off_c, 0, 79, 64
2, 222720, Note_on_c, 0, 79, 78
2, 223100, Note_off_c, 0, 79, 64
2, 223104, Note_on_c, 0, 81, 79
2, 223292, Note_off_c, 0, 81, 64
2, 223488, Note_on_c, 0, 77, 78
2, 224636, Note_off_c, 0, 77, 64
2, 224640, Note_on_c, 0, 81, 79
2, 225020, Note_off_c, 0, 81, 64
2, 225024, Note_on_c, 0, 82, 80
2, 225404, Note_off_c, 0, 82, 64
2, 225408, Note_on_c, 0, 79, 78
2, 225788, Note_off_c, 0, 79, 64
2, 225792, Note_on_c, 0, 79, 78
2, 226172, Note_off_c, 0, 79, 64
2, 226176, Note_on_c, 0, 77, 77
2, 226556, Note_off_c, 0, 77, 64
2, 226560, Note_on_c, 0, 77, 77
2, 226748, Note_off_c, 0, 77, 64
2, 227328, Note_on_c, 0, 84, 81
2, 227328, Note_on_c, 0, 58, 77
2, 227516, Note_off_c, 0, 58, 64
2, 227520, Note_on_c, 0, 67, 77
2, 227708, Note_off_c, 0, 67, 64
2, 227712, Note_on_c, 0, 60, 77
2, 227900, Note_off_c, 0, 60, 64
2, 227904, Note_on_c, 0, 67, 77
2, 228092, Note_off_c, 0, 67, 64
2, 228096, Note_on_c, 0, 58, 78
2, 228284, Note_off_c, 0, 58, 64
2, 228288, Note_on_c, 0, 67, 77
2, 228476, Note_off_c, 0, 84, 64
2, 228476, Note_off_c, 0, 67, 64
2, 228480, Note_on_c, 0, 79, 77
2, 228480, Note_on_c, 0, 60, 77
2, 228668, Note_off_c, 0, 60, 64
2, 228672, Note_on_c, 0, 67, 77
2, 228860, Note_off_c, 0, 79, 64
2, 228860, Note_off_c, 0, 67, 64
2, 228864, Note_on_c, 0, 57, 78
2, 228864, Note_on_c, 0, 79, 77
2, 229052, Note_off_c, 0, 57, 64
2, 229056, Note_on_c, 0, 65, 77
2, 229244, Note_off_c, 0, 79, 64
2, 229244, Note_off_c, 0, 65, 64
2, 229248, Note_on_c, 0, 60, 79
2, 229248, Note_on_c, 0, 81, 77
2, 229436, Note_off_c, 0, 60, 64
2, 229436, Note_off_c, 0, 81, 64
2, 229440, Note_on_c, 0, 65, 77
2, 229628, Note_off_c, 0, 65, 64
2, 229632, Note_on_c, 0, 57, 77
2, 229632, Note_on_c, 0, 77, 77
2, 229820, Note_off_c, 0, 57, 64
2, 229824, Note_on_c, 0, 65, 77
2, 230012, Note_off_c, 0, 65, 64
2, 230016, Note_on_c, 0, 60, 77
2, 230204, Note_off_c, 0, 60, 64
2, 230208, Note_on_c, 0, 65, 77
2, 230396, Note_off_c, 0, 77, 64
2, 230396, Note_off_c, 0, 65, 64
2, 230400, Note_on_c, 0, 81, 79
2, 230400, Note_on_c, 0, 58, 77
2, 230588, Note_off_c, 0, 58, 64
2, 230592, Note_on_c, 0, 65, 80
2, 230780, Note_off_c, 0, 81, 64
2, 230780, Note_off_c, 0, 65, 64
2, 230784, Note_on_c, 0, 82, 77
2, 230784, Note_on_c, 0, 62, 77
2, 230972, Note_off_c, 0, 82, 64
2, 230972, Note_off_c, 0, 62, 64
2, 230976, Note_on_c, 0, 65, 77
2, 231164, Note_off_c, 0, 65, 64
2, 231168, Note_on_c, 0, 79, 78
2, 231168, Note_on_c, 0, 59, 77
2, 231356, Note_off_c, 0, 59, 64
2, 231360, Note_on_c, 0, 65, 77
2, 231548, Note_off_c, 0, 65, 64
2, 231552, Note_on_c, 0, 62, 77
2, 231740, Note_off_c, 0, 62, 64
2, 231744, Note_on_c, 0, 65, 77
2, 231932, Note_off_c, 0, 79, 64
2, 231932, Note_off_c, 0, 65, 64
2, 231936, Note_on_c, 0, 84, 77
2, 231936, Note_on_c, 0, 60, 77
2, 232124, Note_off_c, 0, 84, 64
2, 232124, Note_off_c, 0, 60, 64
2, 232128, Note_on_c, 0, 83, 77
2, 232128, Note_on_c, 0, 67, 77
2, 232316, Note_off_c, 0, 83, 64
2, 232316, Note_off_c, 0, 67, 64
2, 232320, Note_on_c, 0, 84, 77
2, 232320, Note_on_c, 0, 64, 77
2, 232508, Note_off_c, 0, 84, 64
2, 232508, Note_off_c, 0, 64, 64
2, 232512, Note_on_c, 0, 86, 77
2, 232512, Note_on_c, 0, 67, 77
2, 232700, Note_off_c, 0, 86, 64
2, 232700, Note_off_c, 0, 67, 64
2, 232704, Note_on_c, 0, 84, 77
2, 232704, Note_on_c, 0, 60, 77
2, 232892, Note_off_c, 0, 84, 64
2, 232892, Note_off_c, 0, 60, 64
2, 232896, Note_on_c, 0, 67, 77
2, 233084, Note_off_c, 0, 67, 64
2, 233088, Note_on_c, 0, 64, 77
2, 233276, Note_off_c, 0, 64, 64
2, 233280, Note_on_c, 0, 67, 77
2, 233468, Note_off_c, 0, 67, 64
2, 233472, Note_on_c, 0, 60, 81
2, 233472, Note_on_c, 0, 84, 77
2, 233660, Note_off_c, 0, 60, 64
2, 233664, Note_on_c, 0, 67, 77
2, 233852, Note_off_c, 0, 67, 64
2, 233856, Note_on_c, 0, 64, 77
2, 234044, Note_off_c, 0, 64, 64
2, 234048, Note_on_c, 0, 67, 77
2, 234236, Note_off_c, 0, 67, 64
2, 234240, Note_on_c, 0, 60, 77
2, 234428, Note_off_c, 0, 60, 64
2, 234432, Note_on_c, 0, 67, 77
2, 234620, Note_off_c, 0, 84, 64
2, 234620, Note_off_c, 0, 67, 64
2, 234624, Note_on_c, 0, 79, 78
2, 234624, Note_on_c, 0, 64, 77
2, 234812, Note_off_c, 0, 64, 64
2, 234816, Note_on_c, 0, 67, 77
2, 235004, Note_off_c, 0, 79, 64
2, 235004, Note_off_c, 0, 67, 64
2, 235008, Note_on_c, 0, 79, 78
2, 235008, Note_on_c, 0, 60, 77
2, 235196, Note_off_c, 0, 60, 64
2, 235200, Note_on_c, 0, 69, 77
2, 235388, Note_off_c, 0, 79, 64
2, 235388, Note_off_c, 0, 69, 64
2, 235392, Note_on_c, 0, 81, 79
2, 235392, Note_on_c, 0, 65, 77
2, 235580, Note_off_c, 0, 81, 64
2, 235580, Note_off_c, 0, 65, 64
2, 235584, Note_on_c, 0, 69, 77
2, 235772, Note_off_c, 0, 69, 64
2, 235776, Note_on_c, 0, 65, 77
2, 235776, Note_on_c, 0, 77, 78
2, 235964, Note_off_c, 0, 65, 64
2, 235968, Note_on_c, 0, 71, 77
2, 236156, Note_off_c, 0, 71, 64
2, 236160, Note_on_c, 0, 68, 77
2, 236348, Note_off_c, 0, 68, 64
2, 236352, Note_on_c, 0, 71, 77
2, 236540, Note_off_c, 0, 71, 64
2, 236544, Note_on_c, 0, 65, 77
2, 236732, Note_off_c, 0, 65, 64
2, 236736, Note_on_c, 0, 72, 77
2, 236924, Note_off_c, 0, 77, 64
2, 236924, Note_off_c, 0, 72, 64
2, 236928, Note_on_c, 0, 81, 79
2, 236928, Note_on_c, 0, 69, 77
2, 237116, Note_off_c, 0, 69, 64
2, 237120, Note_on_c, 0, 72, 77
2, 237308, Note_off_c, 0, 81, 64
2, 237308, Note_off_c, 0, 72, 64
2, 237312, Note_on_c, 0, 82, 80
2, 237312, Note_on_c, 0, 64, 77
2, 237500, Note_off_c, 0, 64, 64
2, 237504, Note_on_c, 0, 72, 77
2, 237692, Note_off_c, 0, 82, 64
2, 237692, Note_off_c, 0, 72, 64
2, 237696, Note_on_c, 0, 69, 78
2, 237696, Note_on_c, 0, 79, 77
2, 237884, Note_off_c, 0, 69, 64
2, 237888, Note_on_c, 0, 72, 77
2, 238076, Note_off_c, 0, 79, 64
2, 238076, Note_off_c, 0, 72, 64
2, 238080, Note_on_c, 0, 69, 77
2, 238080, Note_on_c, 0, 65, 77
2, 238080, Note_on_c, 0, 77, 77
2, 238268, Note_off_c, 0, 77, 64
2, 238272, Note_on_c, 0, 79, 78
2, 238460, Note_off_c, 0, 69, 64
2, 238460, Note_off_c, 0, 65, 64
2, 238460, Note_off_c, 0, 79, 64
2, 238464, Note_on_c, 0, 77, 77
2, 238652, Note_off_c, 0, 77, 64
2, 238656, Note_on_c, 0, 76, 77
2, 238844, Note_off_c, 0, 76, 64
2, 238848, Note_on_c, 0, 77, 77
2, 239036, Note_off_c, 0, 77, 64
2, 239040, Note_on_c, 0, 79, 78
2, 239228, Note_off_c, 0, 79, 64
2, 239232, Note_on_c, 0, 81, 79
2, 239420, Note_off_c, 0, 81, 64
2, 239424, Note_on_c, 0, 82, 80
2, 239612, Note_off_c, 0, 82, 64
2, 239616, Note_on_c, 0, 84, 81
2, 239804, Note_off_c, 0, 84, 64
2, 239808, Note_on_c, 0, 86, 82
2, 239996, Note_off_c, 0, 86, 64
2, 240000, Note_on_c, 0, 84, 81
2, 240188, Note_off_c, 0, 84, 64
2, 240192, Note_on_c, 0, 83, 80
2, 240380, Note_off_c, 0, 83, 64
2, 240384, Note_on_c, 0, 84, 81
2, 240572, Note_off_c, 0, 84, 64
2, 240576, Note_on_c, 0, 83, 81
2, 240764, Note_off_c, 0, 83, 64
2, 240768, Note_on_c, 0, 82, 80
2, 240956, Note_off_c, 0, 82, 64
2, 240960, Note_on_c, 0, 79, 78
2, 241148, Note_off_c, 0, 79, 64
2, 241152, Note_on_c, 0, 77, 77
2, 241340, Note_off_c, 0, 77, 64
2, 241344, Note_on_c, 0, 79, 78
2, 241532, Note_off_c, 0, 79, 64
2, 241536, Note_on_c, 0, 77, 77
2, 241724, Note_off_c, 0, 77, 64
2, 241728, Note_on_c, 0, 76, 77
2, 241916, Note_off_c, 0, 76, 64
2, 241920, Note_on_c, 0, 77, 77
2, 242108, Note_off_c, 0, 77, 64
2, 242112, Note_on_c, 0, 79, 78
2, 242300, Note_off_c, 0, 79, 64
2, 242304, Note_on_c, 0, 81, 79
2, 242492, Note_off_c, 0, 81, 64
2, 242496, Note_on_c, 0, 82, 80
2, 242684, Note_off_c, 0, 82, 64
2, 242688, Note_on_c, 0, 84, 81
2, 242876, Note_off_c, 0, 84, 64
2, 242880, Note_on_c, 0, 86, 82
2, 243068, Note_off_c, 0, 86, 64
2, 243072, Note_on_c, 0, 84, 81
2, 243260, Note_off_c, 0, 84, 64
2, 243264, Note_on_c, 0, 83, 80
2, 243452, Note_off_c, 0, 83, 64
2, 243456, Note_on_c, 0, 84, 81
2, 243644, Note_off_c, 0, 84, 64
2, 243648, Note_on_c, 0, 83, 81
2, 243836, Note_off_c, 0, 83, 64
2, 243840, Note_on_c, 0, 82, 80
2, 244028, Note_off_c, 0, 82, 64
2, 244032, Note_on_c, 0, 79, 78
2, 244220, Note_off_c, 0, 79, 64
2, 244224, Note_on_c, 0, 77, 77
2, 244412, Note_off_c, 0, 77, 64
2, 244416, Note_on_c, 0, 79, 78
2, 244604, Note_off_c, 0, 79, 64
2, 244608, Note_on_c, 0, 77, 77
2, 244796, Note_off_c, 0, 77, 64
2, 244800, Note_on_c, 0, 76, 77
2, 244988, Note_off_c, 0, 76, 64
2, 244992, Note_on_c, 0, 77, 77
2, 245180, Note_off_c, 0, 77, 64
2, 245184, Note_on_c, 0, 79, 78
2, 245372, Note_off_c, 0, 79, 64
2, 245376, Note_on_c, 0, 81, 79
2, 245564, Note_off_c, 0, 81, 64
2, 245568, Note_on_c, 0, 82, 79
2, 245756, Note_off_c, 0, 82, 64
2, 245760, Note_on_c, 0, 84, 81
2, 245948, Note_off_c, 0, 84, 64
2, 245952, Note_on_c, 0, 86, 82
2, 246140, Note_off_c, 0, 86, 64
2, 246144, Note_on_c, 0, 84, 81
2, 246332, Note_off_c, 0, 84, 64
2, 246336, Note_on_c, 0, 83, 80
2, 246524, Note_off_c, 0, 83, 64
2, 246528, Note_on_c, 0, 84, 81
2, 246716, Note_off_c, 0, 84, 64
2, 246720, Note_on_c, 0, 83, 81
2, 246908, Note_off_c, 0, 83, 64
2, 246912, Note_on_c, 0, 82, 78
2, 247100, Note_off_c, 0, 82, 64
2, 247104, Note_on_c, 0, 79, 77
2, 247292, Note_off_c, 0, 79, 64
2, 247296, Note_on_c, 0, 77, 77
2, 247676, Note_off_c, 0, 77, 64
2, 248256, Note_on_c, 0, 65, 77
2, 248444, Note_off_c, 0, 65, 64
2, 248448, Note_on_c, 0, 69, 77
2, 248636, Note_off_c, 0, 69, 64
2, 248640, Note_on_c, 0, 72, 77
2, 248828, Note_off_c, 0, 72, 64
2, 248832, Note_on_c, 0, 77, 77
2, 249020, Note_off_c, 0, 77, 64
2, 249024, Note_on_c, 0, 69, 77
2, 249212, Note_off_c, 0, 69, 64
2, 249216, Note_on_c, 0, 72, 77
2, 249404, Note_off_c, 0, 72, 64
2, 249408, Note_on_c, 0, 77, 77
2, 249596, Note_off_c, 0, 77, 64
2, 249600, Note_on_c, 0, 81, 79
2, 249788, Note_off_c, 0, 81, 64
2, 249792, Note_on_c, 0, 72, 77
2, 249980, Note_off_c, 0, 72, 64
2, 249984, Note_on_c, 0, 77, 79
2, 250172, Note_off_c, 0, 77, 64
2, 250176, Note_on_c, 0, 81, 77
2, 250364, Note_off_c, 0, 81, 64
2, 250368, Note_on_c, 0, 85, 81
2, 250368, Note_on_c, 0, 79, 78
2, 250368, Note_on_c, 0, 76, 77
2, 250748, Note_off_c, 0, 85, 64
2, 250748, Note_off_c, 0, 79, 64
2, 250748, Note_off_c, 0, 76, 64
2, 251328, Note_on_c, 0, 67, 77
2, 251516, Note_off_c, 0, 67, 64
2, 251520, Note_on_c, 0, 73, 77
2, 251708, Note_off_c, 0, 73, 64
2, 251712, Note_on_c, 0, 76, 77
2, 251900, Note_off_c, 0, 76, 64
2, 251904, Note_on_c, 0, 79, 78
2, 252092, Note_off_c, 0, 79, 64
2, 252096, Note_on_c, 0, 73, 77
2, 252284, Note_off_c, 0, 73, 64
2, 252288, Note_on_c, 0, 76, 77
2, 252476, Note_off_c, 0, 76, 64
2, 252480, Note_on_c, 0, 79, 78
2, 252668, Note_off_c, 0, 79, 64
2, 252672, Note_on_c, 0, 82, 80
2, 252860, Note_off_c, 0, 82, 64
2, 252864, Note_on_c, 0, 76, 77
2, 253052, Note_off_c, 0, 76, 64
2, 253056, Note_on_c, 0, 79, 78
2, 253244, Note_off_c, 0, 79, 64
2, 253248, Note_on_c, 0, 82, 80
2, 253436, Note_off_c, 0, 82, 64
2, 253440, Note_on_c, 0, 86, 82
2, 253440, Note_on_c, 0, 82, 80
2, 253440, Note_on_c, 0, 79, 78
2, 253820, Note_off_c, 0, 86, 64
2, 253820, Note_off_c, 0, 82, 64
2, 253820, Note_off_c, 0, 79, 64
2, 254400, Note_on_c, 0, 70, 77
2, 254588, Note_off_c, 0, 70, 64
2, 254592, Note_on_c, 0, 74, 77
2, 254780, Note_off_c, 0, 74, 64
2, 254784, Note_on_c, 0, 79, 77
2, 254972, Note_off_c, 0, 79, 64
2, 254976, Note_on_c, 0, 82, 80
2, 255164, Note_off_c, 0, 82, 64
2, 255168, Note_on_c, 0, 74, 77
2, 255356, Note_off_c, 0, 74, 64
2, 255360, Note_on_c, 0, 79, 78
2, 255548, Note_off_c, 0, 79, 64
2, 255552, Note_on_c, 0, 82, 80
2, 255740, Note_off_c, 0, 82, 64
2, 255744, Note_on_c, 0, 86, 82
2, 255932, Note_off_c, 0, 86, 64
2, 255936, Note_on_c, 0, 79, 78
2, 256124, Note_off_c, 0, 79, 64
2, 256128, Note_on_c, 0, 82, 80
2, 256316, Note_off_c, 0, 82, 64
2, 256320, Note_on_c, 0, 86, 82
2, 256508, Note_off_c, 0, 86, 64
2, 256512, Note_on_c, 0, 88, 94
2, 256512, Note_on_c, 0, 81, 90
2, 256512, Note_on_c, 0, 79, 89
2, 256892, Note_off_c, 0, 88, 64
2, 256892, Note_off_c, 0, 81, 64
2, 256892, Note_off_c, 0, 79, 64
2, 257280, Note_on_c, 0, 91, 96
2, 257372, Note_off_c, 0, 91, 64
2, 257376, Note_on_c, 0, 88, 95
2, 257468, Note_off_c, 0, 88, 64
2, 257472, Note_on_c, 0, 85, 94
2, 257564, Note_off_c, 0, 85, 64
2, 257568, Note_on_c, 0, 82, 93
2, 257660, Note_off_c, 0, 82, 64
2, 257664, Note_on_c, 0, 79, 92
2, 257756, Note_off_c, 0, 79, 64
2, 257760, Note_on_c, 0, 76, 91
2, 257852, Note_off_c, 0, 76, 64
2, 257856, Note_on_c, 0, 73, 90
2, 257948, Note_off_c, 0, 73, 64
2, 257952, Note_on_c, 0, 70, 89
2, 258044, Note_off_c, 0, 70, 64
2, 258048, Note_on_c, 0, 69, 86
2, 258140, Note_off_c, 0, 69, 64
2, 258144, Note_on_c, 0, 64, 84
2, 258236, Note_off_c, 0, 64, 64
2, 260352, Note_on_c, 0, 67, 86
2, 260444, Note_off_c, 0, 67, 64
2, 260448, Note_on_c, 0, 69, 88
2, 260540, Note_off_c, 0, 69, 64
2, 260544, Note_on_c, 0, 73, 89
2, 260636, Note_off_c, 0, 73, 64
2, 260640, Note_on_c, 0, 76, 90
2, 260732, Note_off_c, 0, 76, 64
2, 260736, Note_on_c, 0, 79, 91
2, 260828, Note_off_c, 0, 79, 64
2, 260832, Note_on_c, 0, 81, 92
2, 260924, Note_off_c, 0, 81, 64
2, 260928, Note_on_c, 0, 85, 93
2, 261020, Note_off_c, 0, 85, 64
2, 261024, Note_on_c, 0, 88, 94
2, 261116, Note_off_c, 0, 88, 64
2, 261120, Note_on_c, 0, 91, 96
2, 261212, Note_off_c, 0, 91, 64
2, 261216, Note_on_c, 0, 88, 94
2, 261308, Note_off_c, 0, 88, 64
2, 261312, Note_on_c, 0, 94, 99
2, 261404, Note_off_c, 0, 94, 64
2, 261408, Note_on_c, 0, 93, 97
2, 261500, Note_off_c, 0, 93, 64
2, 261504, Note_on_c, 0, 91, 96
2, 261596, Note_off_c, 0, 91, 64
2, 261600, Note_on_c, 0, 89, 95
2, 261692, Note_off_c, 0, 89, 64
2, 261696, Note_on_c, 0, 88, 94
2, 261788, Note_off_c, 0, 88, 64
2, 261792, Note_on_c, 0, 91, 96
2, 261884, Note_off_c, 0, 91, 64
2, 261888, Note_on_c, 0, 89, 95
2, 261980, Note_off_c, 0, 89, 64
2, 261984, Note_on_c, 0, 88, 94
2, 262064, Note_on_c, 0, 86, 92
2, 262076, Note_off_c, 0, 88, 64
2, 262156, Note_off_c, 0, 86, 64
2, 262176, Note_on_c, 0, 85, 91
2, 262268, Note_off_c, 0, 85, 64
2, 262272, Note_on_c, 0, 88, 94
2, 262364, Note_off_c, 0, 88, 64
2, 262368, Note_on_c, 0, 86, 93
2, 262460, Note_off_c, 0, 86, 64
2, 262464, Note_on_c, 0, 85, 92
2, 262556, Note_off_c, 0, 85, 64
2, 262560, Note_on_c, 0, 82, 92
2, 262652, Note_off_c, 0, 82, 64
2, 262656, Note_on_c, 0, 81, 90
2, 262748, Note_off_c, 0, 81, 64
2, 262752, Note_on_c, 0, 79, 89
2, 262844, Note_off_c, 0, 79, 64
2, 262848, Note_on_c, 0, 82, 91
2, 262940, Note_off_c, 0, 82, 64
2, 262944, Note_on_c, 0, 81, 90
2, 263036, Note_off_c, 0, 81, 64
2, 263040, Note_on_c, 0, 79, 89
2, 263132, Note_off_c, 0, 79, 64
2, 263136, Note_on_c, 0, 77, 88
2, 263228, Note_off_c, 0, 77, 64
2, 263232, Note_on_c, 0, 76, 86
2, 263324, Note_off_c, 0, 76, 64
2, 263328, Note_on_c, 0, 79, 86
2, 263420, Note_off_c, 0, 79, 64
2, 263424, Note_on_c, 0, 77, 85
2, 263516, Note_off_c, 0, 77, 64
2, 263520, Note_on_c, 0, 76, 85
2, 263612, Note_off_c, 0, 76, 64
2, 263616, Note_on_c, 0, 74, 84
2, 263708, Note_off_c, 0, 74, 64
2, 263712, Note_on_c, 0, 73, 84
2, 263804, Note_off_c, 0, 73, 64
2, 263808, Note_on_c, 0, 76, 83
2, 263900, Note_off_c, 0, 76, 64
2, 263904, Note_on_c, 0, 74, 83
2, 263996, Note_off_c, 0, 74, 64
2, 264000, Note_on_c, 0, 73, 83
2, 264092, Note_off_c, 0, 73, 64
2, 264096, Note_on_c, 0, 70, 83
2, 264188, Note_off_c, 0, 70, 64
2, 264192, Note_on_c, 0, 69, 82
2, 264284, Note_off_c, 0, 69, 64
2, 264288, Note_on_c, 0, 67, 82
2, 264380, Note_off_c, 0, 67, 64
2, 264384, Note_on_c, 0, 65, 82
2, 264476, Note_off_c, 0, 65, 64
2, 264480, Note_on_c, 0, 64, 81
2, 264572, Note_off_c, 0, 64, 64
2, 264576, Note_on_c, 0, 70, 83
2, 264668, Note_off_c, 0, 70, 64
2, 264768, Note_on_c, 0, 69, 82
2, 264860, Note_off_c, 0, 69, 64
2, 264960, Note_on_c, 0, 67, 81
2, 265052, Note_off_c, 0, 67, 64
2, 265152, Note_on_c, 0, 65, 80
2, 265244, Note_off_c, 0, 65, 64
2, 265344, Note_on_c, 0, 64, 79
2, 265436, Note_off_c, 0, 64, 64
2, 265536, Note_on_c, 0, 62, 78
2, 265628, Note_off_c, 0, 62, 64
2, 265728, Note_on_c, 0, 61, 74
2, 266304, Note_on_c, 0, 62, 77
2, 266492, Note_off_c, 0, 61, 64
2, 266492, Note_off_c, 0, 62, 64
2, 266496, Note_on_c, 0, 65, 77
2, 266684, Note_off_c, 0, 65, 64
2, 266688, Note_on_c, 0, 69, 77
2, 266876, Note_off_c, 0, 69, 64
2, 266880, Note_on_c, 0, 74, 77
2, 267068, Note_off_c, 0, 74, 64
2, 267072, Note_on_c, 0, 77, 77
2, 267260, Note_off_c, 0, 77, 64
2, 267264, Note_on_c, 0, 81, 79
2, 267644, Note_off_c, 0, 81, 64
2, 267648, Note_on_c, 0, 74, 77
2, 267648, Note_on_c, 0, 69, 77
2, 267648, Note_on_c, 0, 65, 77
2, 268028, Note_off_c, 0, 74, 64
2, 268028, Note_off_c, 0, 69, 64
2, 268028, Note_off_c, 0, 65, 64
2, 268032, Note_on_c, 0, 67, 77
2, 268032, Note_on_c, 0, 64, 77
2, 268032, Note_on_c, 0, 73, 77
2, 268412, Note_off_c, 0, 67, 64
2, 268412, Note_off_c, 0, 64, 64
2, 268412, Note_off_c, 0, 73, 64
2, 268416, Note_on_c, 0, 74, 77
2, 268416, Note_on_c, 0, 65, 77
2, 268416, Note_on_c, 0, 62, 77
2, 268796, Note_off_c, 0, 74, 64
2, 268796, Note_off_c, 0, 65, 64
2, 268796, Note_off_c, 0, 62, 64
2, 268800, Note_on_c, 0, 82, 81
2, 268800, Note_on_c, 0, 79, 79
2, 268800, Note_on_c, 0, 76, 77
2, 269948, Note_off_c, 0, 82, 64
2, 269948, Note_off_c, 0, 79, 64
2, 269948, Note_off_c, 0, 76, 64
2, 269952, Note_on_c, 0, 81, 79
2, 270140, Note_off_c, 0, 81, 64
2, 270144, Note_on_c, 0, 79, 78
2, 270332, Note_off_c, 0, 79, 64
2, 270336, Note_on_c, 0, 79, 78
2, 270524, Note_off_c, 0, 79, 64
2, 270528, Note_on_c, 0, 77, 77
2, 270716, Note_off_c, 0, 77, 64
2, 270720, Note_on_c, 0, 76, 77
2, 270908, Note_off_c, 0, 76, 64
2, 270912, Note_on_c, 0, 74, 77
2, 271100, Note_off_c, 0, 74, 64
2, 271104, Note_on_c, 0, 73, 77
2, 271104, Note_on_c, 0, 68, 77
2, 271292, Note_off_c, 0, 73, 64
2, 271296, Note_on_c, 0, 74, 77
2, 271484, Note_off_c, 0, 74, 64
2, 271488, Note_on_c, 0, 73, 77
2, 271676, Note_off_c, 0, 73, 64
2, 271680, Note_on_c, 0, 74, 77
2, 271868, Note_off_c, 0, 68, 64
2, 271868, Note_off_c, 0, 74, 64
2, 271872, Note_on_c, 0, 76, 77
2, 271872, Note_on_c, 0, 73, 77
2, 271872, Note_on_c, 0, 69, 77
2, 272252, Note_off_c, 0, 76, 64
2, 272252, Note_off_c, 0, 73, 64
2, 272252, Note_off_c, 0, 69, 64
2, 272448, Note_on_c, 0, 62, 77
2, 272636, Note_off_c, 0, 62, 64
2, 272640, Note_on_c, 0, 65, 77
2, 272828, Note_off_c, 0, 65, 64
2, 272832, Note_on_c, 0, 69, 77
2, 273020, Note_off_c, 0, 69, 64
2, 273024, Note_on_c, 0, 74, 77
2, 273212, Note_off_c, 0, 74, 64
2, 273216, Note_on_c, 0, 77, 77
2, 273404, Note_off_c, 0, 77, 64
2, 273408, Note_on_c, 0, 81, 79
2, 273788, Note_off_c, 0, 81, 64
2, 273792, Note_on_c, 0, 74, 77
2, 273792, Note_on_c, 0, 69, 77
2, 273792, Note_on_c, 0, 65, 77
2, 274172, Note_off_c, 0, 74, 64
2, 274172, Note_off_c, 0, 69, 64
2, 274172, Note_off_c, 0, 65, 64
2, 274176, Note_on_c, 0, 73, 77
2, 274176, Note_on_c, 0, 67, 77
2, 274176, Note_on_c, 0, 64, 77
2, 274556, Note_off_c, 0, 73, 64
2, 274556, Note_off_c, 0, 67, 64
2, 274556, Note_off_c, 0, 64, 64
2, 274560, Note_on_c, 0, 74, 77
2, 274560, Note_on_c, 0, 65, 77
2, 274560, Note_on_c, 0, 62, 77
2, 274940, Note_off_c, 0, 74, 64
2, 274940, Note_off_c, 0, 65, 64
2, 274940, Note_off_c, 0, 62, 64
2, 274944, Note_on_c, 0, 82, 81
2, 274944, Note_on_c, 0, 79, 79
2, 274944, Note_on_c, 0, 76, 77
2, 276092, Note_off_c, 0, 82, 64
2, 276092, Note_off_c, 0, 79, 64
2, 276092, Note_off_c, 0, 76, 64
2, 276096, Note_on_c, 0, 81, 79
2, 276284, Note_off_c, 0, 81, 64
2, 276288, Note_on_c, 0, 79, 78
2, 276476, Note_off_c, 0, 79, 64
2, 276480, Note_on_c, 0, 79, 77
2, 276668, Note_off_c, 0, 79, 64
2, 276672, Note_on_c, 0, 77, 77
2, 276860, Note_off_c, 0, 77, 64
2, 276864, Note_on_c, 0, 76, 77
2, 277052, Note_off_c, 0, 76, 64
2, 277056, Note_on_c, 0, 74, 77
2, 277244, Note_off_c, 0, 74, 64
2, 277248, Note_on_c, 0, 74, 77
2, 277628, Note_off_c, 0, 74, 64
2, 277632, Note_on_c, 0, 74, 77
2, 278012, Note_off_c, 0, 74, 64
2, 278016, Note_on_c, 0, 74, 77
2, 278396, Note_off_c, 0, 74, 64
2, 278400, Note_on_c, 0, 86, 82
2, 279164, Note_off_c, 0, 86, 64
2, 279168, Note_on_c, 0, 84, 81
2, 279356, Note_off_c, 0, 84, 64
2, 279360, Note_on_c, 0, 82, 80
2, 279548, Note_off_c, 0, 82, 64
2, 279552, Note_on_c, 0, 65, 80
2, 279552, Note_on_c, 0, 82, 77
2, 279740, Note_off_c, 0, 82, 64
2, 279744, Note_on_c, 0, 81, 79
2, 279932, Note_off_c, 0, 81, 64
2, 279936, Note_on_c, 0, 79, 78
2, 280124, Note_off_c, 0, 79, 64
2, 280128, Note_on_c, 0, 77, 77
2, 280316, Note_off_c, 0, 65, 64
2, 280316, Note_off_c, 0, 77, 64
2, 280320, Note_on_c, 0, 67, 77
2, 280320, Note_on_c, 0, 77, 77
2, 280508, Note_off_c, 0, 77, 64
2, 280512, Note_on_c, 0, 76, 77
2, 280700, Note_off_c, 0, 76, 64
2, 280704, Note_on_c, 0, 74, 77
2, 280892, Note_off_c, 0, 74, 64
2, 280896, Note_on_c, 0, 73, 77
2, 281084, Note_off_c, 0, 67, 64
2, 281084, Note_off_c, 0, 73, 64
2, 281088, Note_on_c, 0, 76, 77
2, 281088, Note_on_c, 0, 65, 77
2, 281276, Note_off_c, 0, 76, 64
2, 281280, Note_on_c, 0, 74, 77
2, 281468, Note_off_c, 0, 74, 64
2, 281472, Note_on_c, 0, 73, 77
2, 281660, Note_off_c, 0, 73, 64
2, 281664, Note_on_c, 0, 74, 77
2, 281852, Note_off_c, 0, 65, 64
2, 281852, Note_off_c, 0, 74, 64
2, 281856, Note_on_c, 0, 74, 77
2, 281856, Note_on_c, 0, 66, 77
2, 282236, Note_off_c, 0, 74, 64
2, 282240, Note_on_c, 0, 74, 77
2, 282620, Note_off_c, 0, 66, 64
2, 282620, Note_off_c, 0, 74, 64
2, 282624, Note_on_c, 0, 74, 77
2, 282624, Note_on_c, 0, 67, 77
2, 283004, Note_off_c, 0, 74, 64
2, 283008, Note_on_c, 0, 86, 82
2, 283388, Note_off_c, 0, 67, 64
2, 283392, Note_on_c, 0, 64, 77
2, 283392, Note_on_c, 0, 62, 77
2, 283772, Note_off_c, 0, 86, 64
2, 283776, Note_on_c, 0, 84, 81
2, 283964, Note_off_c, 0, 84, 64
2, 283968, Note_on_c, 0, 82, 80
2, 284156, Note_off_c, 0, 64, 64
2, 284156, Note_off_c, 0, 62, 64
2, 284156, Note_off_c, 0, 82, 64
2, 284160, Note_on_c, 0, 82, 80
2, 284160, Note_on_c, 0, 65, 77
2, 284160, Note_on_c, 0, 62, 77
2, 284348, Note_off_c, 0, 82, 64
2, 284352, Note_on_c, 0, 81, 79
2, 284540, Note_off_c, 0, 81, 64
2, 284544, Note_on_c, 0, 79, 78
2, 284732, Note_off_c, 0, 79, 64
2, 284736, Note_on_c, 0, 77, 77
2, 284924, Note_off_c, 0, 65, 64
2, 284924, Note_off_c, 0, 62, 64
2, 284924, Note_off_c, 0, 77, 64
2, 284928, Note_on_c, 0, 76, 77
2, 284928, Note_on_c, 0, 67, 77
2, 284928, Note_on_c, 0, 61, 77
2, 285308, Note_off_c, 0, 76, 64
2, 285312, Note_on_c, 0, 81, 79
2, 285692, Note_off_c, 0, 67, 64
2, 285692, Note_off_c, 0, 61, 64
2, 285692, Note_off_c, 0, 81, 64
2, 285696, Note_on_c, 0, 74, 77
2, 286076, Note_off_c, 0, 74, 64
2, 286272, Note_on_c, 0, 62, 92
2, 286460, Note_off_c, 0, 62, 64
2, 286464, Note_on_c, 0, 65, 94
2, 286652, Note_off_c, 0, 65, 64
2, 286656, Note_on_c, 0, 69, 96
2, 286844, Note_off_c, 0, 69, 64
2, 286848, Note_on_c, 0, 74, 99
2, 287036, Note_off_c, 0, 74, 64
2, 287040, Note_on_c, 0, 77, 100
2, 287228, Note_off_c, 0, 77, 64
2, 287232, Note_on_c, 0, 81, 102
2, 287612, Note_off_c, 0, 81, 64
2, 287616, Note_on_c, 0, 74, 100
2, 287996, Note_off_c, 0, 74, 64
2, 288000, Note_on_c, 0, 73, 100
2, 288380, Note_off_c, 0, 73, 64
2, 288384, Note_on_c, 0, 74, 100
2, 288764, Note_off_c, 0, 74, 64
2, 288768, Note_on_c, 0, 83, 103
2, 288768, Note_on_c, 0, 74, 100
2, 289148, Note_off_c, 0, 83, 64
2, 289148, Note_off_c, 0, 74, 64
2, 289152, Note_on_c, 0, 83, 103
2, 289152, Note_on_c, 0, 74, 100
2, 289916, Note_off_c, 0, 83, 64
2, 289916, Note_off_c, 0, 74, 64
2, 289920, Note_on_c, 0, 83, 103
2, 289920, Note_on_c, 0, 74, 100
2, 290684, Note_off_c, 0, 74, 64
2, 290684, Note_off_c, 0, 83, 64
2, 290688, Note_on_c, 0, 74, 100
2, 290688, Note_on_c, 0, 71, 100
2, 291452, Note_off_c, 0, 74, 64
2, 291452, Note_off_c, 0, 71, 64
2, 291456, Note_on_c, 0, 74, 100
2, 291456, Note_on_c, 0, 71, 100
2, 292220, Note_off_c, 0, 71, 64
2, 292220, Note_off_c, 0, 74, 64
2, 292224, Note_on_c, 0, 72, 100
2, 292224, Note_on_c, 0, 69, 100
2, 292988, Note_off_c, 0, 72, 64
2, 292988, Note_off_c, 0, 69, 64
2, 292992, Note_on_c, 0, 72, 100
2, 292992, Note_on_c, 0, 69, 100
2, 293756, Note_off_c, 0, 69, 64
2, 293756, Note_off_c, 0, 72, 64
2, 293760, Note_on_c, 0, 81, 102
2, 293760, Note_on_c, 0, 77, 100
2, 293760, Note_on_c, 0, 72, 100
2, 294524, Note_off_c, 0, 81, 64
2, 294524, Note_off_c, 0, 77, 64
2, 294524, Note_off_c, 0, 72, 64
2, 294528, Note_on_c, 0, 81, 104
2, 294528, Note_on_c, 0, 77, 102
2, 294528, Note_on_c, 0, 84, 100
2, 294908, Note_off_c, 0, 81, 64
2, 294908, Note_off_c, 0, 77, 64
2, 294912, Note_on_c, 0, 77, 99
2, 295292, Note_off_c, 0, 84, 64
2, 295296, Note_on_c, 0, 82, 102
2, 296060, Note_off_c, 0, 82, 64
2, 296064, Note_on_c, 0, 82, 103
2, 296828, Note_off_c, 0, 77, 64
2, 296832, Note_on_c, 0, 82, 103
2, 296832, Note_on_c, 0, 74, 100
2, 297596, Note_off_c, 0, 82, 64
2, 297596, Note_off_c, 0, 82, 64
2, 297596, Note_off_c, 0, 74, 64
2, 297600, Note_on_c, 0, 81, 102
2, 297600, Note_on_c, 0, 72, 100
2, 297980, Note_off_c, 0, 81, 64
2, 297980, Note_off_c, 0, 72, 64
2, 297984, Note_on_c, 0, 80, 100
2, 297984, Note_on_c, 0, 71, 100
2, 298364, Note_off_c, 0, 80, 64
2, 298364, Note_off_c, 0, 71, 64
2, 298560, Note_on_c, 0, 64, 92
2, 298652, Note_off_c, 0, 64, 64
2, 298752, Note_on_c, 0, 68, 94
2, 298844, Note_off_c, 0, 68, 64
2, 298944, Note_on_c, 0, 71, 96
2, 299036, Note_off_c, 0, 71, 64
2, 299136, Note_on_c, 0, 76, 99
2, 299228, Note_off_c, 0, 76, 64
2, 299328, Note_on_c, 0, 80, 100
2, 299420, Note_off_c, 0, 80, 64
2, 299520, Note_on_c, 0, 81, 102
2, 299520, Note_on_c, 0, 72, 100
2, 299900, Note_off_c, 0, 81, 64
2, 299900, Note_off_c, 0, 72, 64
2, 300096, Note_on_c, 0, 64, 92
2, 300284, Note_off_c, 0, 64, 64
2, 300288, Note_on_c, 0, 69, 94
2, 300476, Note_off_c, 0, 69, 64
2, 300480, Note_on_c, 0, 72, 96
2, 300668, Note_off_c, 0, 72, 64
2, 300672, Note_on_c, 0, 76, 99
2, 300860, Note_off_c, 0, 76, 64
2, 300864, Note_on_c, 0, 81, 100
2, 301052, Note_off_c, 0, 81, 64
2, 301056, Note_on_c, 0, 83, 102
2, 301056, Note_on_c, 0, 80, 101
2, 301436, Note_off_c, 0, 83, 64
2, 301436, Note_off_c, 0, 80, 64
2, 301632, Note_on_c, 0, 68, 94
2, 301820, Note_off_c, 0, 68, 64
2, 301824, Note_on_c, 0, 71, 96
2, 302012, Note_off_c, 0, 71, 64
2, 302016, Note_on_c, 0, 76, 99
2, 302204, Note_off_c, 0, 76, 64
2, 302208, Note_on_c, 0, 80, 101
2, 302396, Note_off_c, 0, 80, 64
2, 302400, Note_on_c, 0, 83, 103
2, 302588, Note_off_c, 0, 83, 64
2, 302592, Note_on_c, 0, 84, 104
2, 302592, Note_on_c, 0, 81, 102
2, 302972, Note_off_c, 0, 84, 64
2, 302972, Note_off_c, 0, 81, 64
2, 302976, Note_on_c, 0, 84, 104
2, 302976, Note_on_c, 0, 81, 102
2, 303356, Note_off_c, 0, 84, 64
2, 303356, Note_off_c, 0, 81, 64
2, 303360, Note_on_c, 0, 87, 105
2, 303360, Note_on_c, 0, 81, 102
2, 303740, Note_off_c, 0, 87, 64
2, 303740, Note_off_c, 0, 81, 64
2, 303744, Note_on_c, 0, 87, 105
2, 303744, Note_on_c, 0, 81, 102
2, 304124, Note_off_c, 0, 87, 64
2, 304124, Note_off_c, 0, 81, 64
2, 304128, Note_on_c, 0, 88, 106
2, 304128, Note_on_c, 0, 83, 103
2, 304128, Note_on_c, 0, 80, 101
2, 304316, Note_off_c, 0, 88, 64
2, 304316, Note_off_c, 0, 83, 64
2, 304316, Note_off_c, 0, 80, 64
2, 304320, Note_on_c, 0, 76, 99
2, 304508, Note_off_c, 0, 76, 64
2, 304512, Note_on_c, 0, 88, 106
2, 304512, Note_on_c, 0, 83, 103
2, 304512, Note_on_c, 0, 80, 102
2, 304700, Note_off_c, 0, 88, 64
2, 304700, Note_off_c, 0, 83, 64
2, 304700, Note_off_c, 0, 80, 64
2, 304704, Note_on_c, 0, 76, 99
2, 304892, Note_off_c, 0, 76, 64
2, 304896, Note_on_c, 0, 88, 106
2, 304896, Note_on_c, 0, 84, 104
2, 304896, Note_on_c, 0, 81, 102
2, 305084, Note_off_c, 0, 88, 64
2, 305084, Note_off_c, 0, 84, 64
2, 305084, Note_off_c, 0, 81, 64
2, 305088, Note_on_c, 0, 76, 99
2, 305276, Note_off_c, 0, 76, 64
2, 305280, Note_on_c, 0, 88, 106
2, 305280, Note_on_c, 0, 84, 104
2, 305280, Note_on_c, 0, 81, 102
2, 305468, Note_off_c, 0, 88, 64
2, 305468, Note_off_c, 0, 84, 64
2, 305468, Note_off_c, 0, 81, 64
2, 305472, Note_on_c, 0, 76, 99
2, 305660, Note_off_c, 0, 76, 64
2, 305664, Note_on_c, 0, 88, 106
2, 305664, Note_on_c, 0, 83, 103
2, 305664, Note_on_c, 0, 80, 101
2, 305852, Note_off_c, 0, 88, 64
2, 305852, Note_off_c, 0, 83, 64
2, 305852, Note_off_c, 0, 80, 64
2, 305856, Note_on_c, 0, 76, 99
2, 306044, Note_off_c, 0, 76, 64
2, 306048, Note_on_c, 0, 88, 106
2, 306048, Note_on_c, 0, 83, 103
2, 306048, Note_on_c, 0, 80, 101
2, 306236, Note_off_c, 0, 88, 64
2, 306236, Note_off_c, 0, 83, 64
2, 306236, Note_off_c, 0, 80, 64
2, 306240, Note_on_c, 0, 76, 99
2, 306428, Note_off_c, 0, 76, 64
2, 306432, Note_on_c, 0, 88, 106
2, 306432, Note_on_c, 0, 84, 104
2, 306432, Note_on_c, 0, 81, 102
2, 306620, Note_off_c, 0, 88, 64
2, 306620, Note_off_c, 0, 84, 64
2, 306620, Note_off_c, 0, 81, 64
2, 306624, Note_on_c, 0, 76, 99
2, 306812, Note_off_c, 0, 76, 64
2, 306816, Note_on_c, 0, 88, 106
2, 306816, Note_on_c, 0, 84, 104
2, 306816, Note_on_c, 0, 81, 102
2, 307004, Note_off_c, 0, 88, 64
2, 307004, Note_off_c, 0, 84, 64
2, 307004, Note_off_c, 0, 81, 64
2, 307008, Note_on_c, 0, 76, 99
2, 307196, Note_off_c, 0, 76, 64
2, 307200, Note_on_c, 0, 88, 106
2, 307200, Note_on_c, 0, 83, 103
2, 307200, Note_on_c, 0, 80, 101
2, 307580, Note_off_c, 0, 88, 64
2, 307580, Note_off_c, 0, 83, 64
2, 307580, Note_off_c, 0, 80, 64
2, 307584, Note_on_c, 0, 76, 99
2, 307964, Note_off_c, 0, 76, 64
2, 307968, Note_on_c, 0, 76, 99
2, 308348, Note_off_c, 0, 76, 64
2, 308352, Note_on_c, 0, 76, 99
2, 308732, Note_off_c, 0, 76, 64
2, 308736, Note_on_c, 0, 76, 99
2, 309500, Note_off_c, 0, 76, 64
2, 310272, Note_on_c, 0, 76, 77
2, 311036, Note_off_c, 0, 76, 64
2, 311040, Note_on_c, 0, 68, 77
2, 311804, Note_off_c, 0, 68, 64
2, 311808, Note_on_c, 0, 69, 77
2, 312188, Note_off_c, 0, 69, 64
2, 313152, Note_on_c, 0, 69, 77
2, 313340, Note_off_c, 0, 69, 64
2, 313344, Note_on_c, 0, 81, 79
2, 313344, Note_on_c, 0, 65, 77
2, 313344, Note_on_c, 0, 62, 77
2, 314108, Note_off_c, 0, 65, 64
2, 314108, Note_off_c, 0, 62, 64
2, 314112, Note_on_c, 0, 67, 77
2, 314112, Note_on_c, 0, 64, 77
2, 314492, Note_off_c, 0, 81, 64
2, 314592, Note_on_c, 0, 79, 78
2, 314672, Note_off_c, 0, 79, 64
2, 314688, Note_on_c, 0, 77, 77
2, 314768, Note_off_c, 0, 77, 64
2, 314784, Note_on_c, 0, 76, 75
2, 314864, Note_off_c, 0, 76, 64
2, 314876, Note_off_c, 0, 67, 64
2, 314876, Note_off_c, 0, 64, 64
2, 314880, Note_on_c, 0, 74, 74
2, 314880, Note_on_c, 0, 69, 71
2, 314880, Note_on_c, 0, 65, 71
2, 315260, Note_off_c, 0, 74, 64
2, 315260, Note_off_c, 0, 69, 64
2, 315260, Note_off_c, 0, 65, 64
2, 316416, Note_on_c, 0, 74, 77
2, 317180, Note_off_c, 0, 74, 64
2, 317184, Note_on_c, 0, 75, 77
2, 317184, Note_on_c, 0, 72, 77
2, 317948, Note_off_c, 0, 75, 64
2, 317948, Note_off_c, 0, 72, 64
2, 317952, Note_on_c, 0, 76, 77
2, 317952, Note_on_c, 0, 71, 77
2, 318332, Note_off_c, 0, 76, 64
2, 318332, Note_off_c, 0, 71, 64
2, 319296, Note_on_c, 0, 71, 77
2, 319484, Note_off_c, 0, 71, 64
2, 319488, Note_on_c, 0, 72, 77
2, 319676, Note_off_c, 0, 72, 64
2, 319680, Note_on_c, 0, 68, 77
2, 319868, Note_off_c, 0, 68, 64
2, 319872, Note_on_c, 0, 69, 77
2, 320060, Note_off_c, 0, 69, 64
2, 320064, Note_on_c, 0, 72, 77
2, 320252, Note_off_c, 0, 72, 64
2, 320256, Note_on_c, 0, 74, 77
2, 320444, Note_off_c, 0, 74, 64
2, 320448, Note_on_c, 0, 70, 77
2, 320636, Note_off_c, 0, 70, 64
2, 320640, Note_on_c, 0, 71, 77
2, 320828, Note_off_c, 0, 71, 64
2, 320832, Note_on_c, 0, 74, 77
2, 321020, Note_off_c, 0, 74, 64
2, 321024, Note_on_c, 0, 76, 77
2, 321404, Note_off_c, 0, 76, 64
2, 321696, Note_on_c, 0, 69, 90
2, 321776, Note_off_c, 0, 69, 64
2, 321792, Note_on_c, 0, 81, 79
2, 322556, Note_off_c, 0, 81, 64
2, 322752, Note_on_c, 0, 70, 77
2, 322940, Note_off_c, 0, 70, 64
2, 322944, Note_on_c, 0, 71, 77
2, 323132, Note_off_c, 0, 71, 64
2, 323136, Note_on_c, 0, 72, 77
2, 323324, Note_off_c, 0, 72, 64
2, 323328, Note_on_c, 0, 73, 77
2, 323516, Note_off_c, 0, 73, 64
2, 323520, Note_on_c, 0, 74, 77
2, 323708, Note_off_c, 0, 74, 64
2, 323712, Note_on_c, 0, 76, 77
2, 323900, Note_off_c, 0, 76, 64
2, 323904, Note_on_c, 0, 77, 77
2, 324092, Note_off_c, 0, 77, 64
2, 324096, Note_on_c, 0, 77, 77
2, 324284, Note_off_c, 0, 77, 64
2, 324288, Note_on_c, 0, 76, 77
2, 324476, Note_off_c, 0, 76, 64
2, 324480, Note_on_c, 0, 74, 77
2, 324668, Note_off_c, 0, 74, 64
2, 324672, Note_on_c, 0, 72, 77
2, 324860, Note_off_c, 0, 72, 64
2, 324864, Note_on_c, 0, 72, 77
2, 325052, Note_off_c, 0, 72, 64
2, 325056, Note_on_c, 0, 71, 77
2, 325244, Note_off_c, 0, 71, 64
2, 325248, Note_on_c, 0, 69, 77
2, 325436, Note_off_c, 0, 69, 64
2, 325440, Note_on_c, 0, 68, 77
2, 325628, Note_off_c, 0, 68, 64
2, 325632, Note_on_c, 0, 69, 77
2, 326012, Note_off_c, 0, 69, 64
2, 326208, Note_on_c, 0, 57, 77
2, 326396, Note_off_c, 0, 57, 64
2, 326400, Note_on_c, 0, 60, 77
2, 326588, Note_off_c, 0, 60, 64
2, 326592, Note_on_c, 0, 64, 77
2, 326780, Note_off_c, 0, 64, 64
2, 326784, Note_on_c, 0, 69, 77
2, 326972, Note_off_c, 0, 69, 64
2, 326976, Note_on_c, 0, 72, 77
2, 327164, Note_off_c, 0, 72, 64
2, 327168, Note_on_c, 0, 76, 77
2, 327548, Note_off_c, 0, 76, 64
2, 327552, Note_on_c, 0, 69, 77
2, 327932, Note_off_c, 0, 69, 64
2, 327936, Note_on_c, 0, 68, 77
2, 328316, Note_off_c, 0, 68, 64
2, 328320, Note_on_c, 0, 69, 77
2, 328700, Note_off_c, 0, 69, 64
2, 328704, Note_on_c, 0, 77, 77
2, 328704, Note_on_c, 0, 74, 77
2, 328704, Note_on_c, 0, 71, 77
2, 329852, Note_off_c, 0, 77, 64
2, 329852, Note_off_c, 0, 74, 64
2, 329852, Note_off_c, 0, 71, 64
2, 329856, Note_on_c, 0, 76, 77
2, 330044, Note_off_c, 0, 76, 64
2, 330048, Note_on_c, 0, 74, 77
2, 330236, Note_off_c, 0, 74, 64
2, 330240, Note_on_c, 0, 74, 77
2, 330428, Note_off_c, 0, 74, 64
2, 330432, Note_on_c, 0, 72, 77
2, 330620, Note_off_c, 0, 72, 64
2, 330624, Note_on_c, 0, 71, 77
2, 330812, Note_off_c, 0, 71, 64
2, 330816, Note_on_c, 0, 69, 77
2, 331004, Note_off_c, 0, 69, 64
2, 331008, Note_on_c, 0, 68, 77
2, 331196, Note_off_c, 0, 68, 64
2, 331200, Note_on_c, 0, 69, 77
2, 331388, Note_off_c, 0, 69, 64
2, 331392, Note_on_c, 0, 68, 77
2, 331580, Note_off_c, 0, 68, 64
2, 331584, Note_on_c, 0, 69, 77
2, 331772, Note_off_c, 0, 69, 64
2, 331776, Note_on_c, 0, 71, 77
2, 331776, Note_on_c, 0, 68, 77
2, 332156, Note_off_c, 0, 71, 64
2, 332156, Note_off_c, 0, 68, 64
2, 332352, Note_on_c, 0, 69, 77
2, 332540, Note_off_c, 0, 69, 64
2, 332544, Note_on_c, 0, 72, 77
2, 332732, Note_off_c, 0, 72, 64
2, 332736, Note_on_c, 0, 76, 77
2, 332924, Note_off_c, 0, 76, 64
2, 332928, Note_on_c, 0, 81, 79
2, 333116, Note_off_c, 0, 81, 64
2, 333120, Note_on_c, 0, 84, 81
2, 333308, Note_off_c, 0, 84, 64
2, 333312, Note_on_c, 0, 88, 83
2, 333692, Note_off_c, 0, 88, 64
2, 333696, Note_on_c, 0, 81, 79
2, 334076, Note_off_c, 0, 81, 64
2, 334080, Note_on_c, 0, 80, 78
2, 334460, Note_off_c, 0, 80, 64
2, 334464, Note_on_c, 0, 81, 79
2, 334844, Note_off_c, 0, 81, 64
2, 334848, Note_on_c, 0, 89, 84
2, 334848, Note_on_c, 0, 86, 82
2, 334848, Note_on_c, 0, 83, 80
2, 334848, Note_on_c, 0, 77, 77
2, 335612, Note_off_c, 0, 89, 64
2, 335612, Note_off_c, 0, 86, 64
2, 335612, Note_off_c, 0, 83, 64
2, 335612, Note_off_c, 0, 77, 64
2, 335808, Note_on_c, 0, 89, 84
2, 335996, Note_off_c, 0, 89, 64
2, 336000, Note_on_c, 0, 86, 82
2, 336188, Note_off_c, 0, 86, 64
2, 336192, Note_on_c, 0, 89, 84
2, 336380, Note_off_c, 0, 89, 64
2, 336384, Note_on_c, 0, 83, 80
2, 336572, Note_off_c, 0, 83, 64
2, 336576, Note_on_c, 0, 86, 82
2, 336764, Note_off_c, 0, 86, 64
2, 336768, Note_on_c, 0, 77, 77
2, 336956, Note_off_c, 0, 77, 64
2, 336960, Note_on_c, 0, 83, 80
2, 337148, Note_off_c, 0, 83, 64
2, 337152, Note_on_c, 0, 74, 77
2, 337340, Note_off_c, 0, 74, 64
2, 337344, Note_on_c, 0, 77, 77
2, 337532, Note_off_c, 0, 77, 64
2, 337536, Note_on_c, 0, 72, 77
2, 337724, Note_off_c, 0, 72, 64
2, 337728, Note_on_c, 0, 77, 77
2, 337916, Note_off_c, 0, 77, 64
2, 337920, Note_on_c, 0, 71, 77
2, 338684, Note_off_c, 0, 71, 64
2, 338880, Note_on_c, 0, 65, 77
2, 339068, Note_off_c, 0, 65, 64
2, 339072, Note_on_c, 0, 71, 77
2, 339260, Note_off_c, 0, 71, 64
2, 339264, Note_on_c, 0, 65, 77
2, 339452, Note_off_c, 0, 65, 64
2, 339456, Note_on_c, 0, 74, 77
2, 339644, Note_off_c, 0, 74, 64
2, 339648, Note_on_c, 0, 71, 77
2, 339836, Note_off_c, 0, 71, 64
2, 339840, Note_on_c, 0, 77, 77
2, 340028, Note_off_c, 0, 77, 64
2, 340032, Note_on_c, 0, 74, 77
2, 340220, Note_off_c, 0, 74, 64
2, 340224, Note_on_c, 0, 83, 80
2, 340412, Note_off_c, 0, 83, 64
2, 340416, Note_on_c, 0, 77, 77
2, 340604, Note_off_c, 0, 77, 64
2, 340608, Note_on_c, 0, 86, 82
2, 340796, Note_off_c, 0, 86, 64
2, 340800, Note_on_c, 0, 83, 80
2, 340988, Note_off_c, 0, 83, 64
2, 340992, Note_on_c, 0, 87, 82
2, 341756, Note_off_c, 0, 87, 64
2, 341952, Note_on_c, 0, 87, 82
2, 342140, Note_off_c, 0, 87, 64
2, 342144, Note_on_c, 0, 84, 81
2, 342332, Note_off_c, 0, 84, 64
2, 342336, Note_on_c, 0, 87, 82
2, 342524, Note_off_c, 0, 87, 64
2, 342528, Note_on_c, 0, 81, 79
2, 342716, Note_off_c, 0, 81, 64
2, 342720, Note_on_c, 0, 84, 81
2, 342908, Note_off_c, 0, 84, 64
2, 342912, Note_on_c, 0, 75, 74
2, 343100, Note_off_c, 0, 75, 64
2, 343104, Note_on_c, 0, 81, 79
2, 343292, Note_off_c, 0, 81, 64
2, 343296, Note_on_c, 0, 72, 77
2, 343484, Note_off_c, 0, 72, 64
2, 343488, Note_on_c, 0, 75, 77
2, 343676, Note_off_c, 0, 75, 64
2, 343680, Note_on_c, 0, 70, 77
2, 343868, Note_off_c, 0, 70, 64
2, 343872, Note_on_c, 0, 75, 77
2, 344060, Note_off_c, 0, 75, 64
2, 344064, Note_on_c, 0, 69, 77
2, 344828, Note_off_c, 0, 69, 64
2, 345024, Note_on_c, 0, 63, 77
2, 345212, Note_off_c, 0, 63, 64
2, 345216, Note_on_c, 0, 69, 77
2, 345404, Note_off_c, 0, 69, 64
2, 345408, Note_on_c, 0, 63, 77
2, 345596, Note_off_c, 0, 63, 64
2, 345600, Note_on_c, 0, 72, 77
2, 345788, Note_off_c, 0, 72, 64
2, 345792, Note_on_c, 0, 69, 77
2, 345980, Note_off_c, 0, 69, 64
2, 345984, Note_on_c, 0, 75, 77
2, 346172, Note_off_c, 0, 75, 64
2, 346176, Note_on_c, 0, 72, 77
2, 346364, Note_off_c, 0, 72, 64
2, 346368, Note_on_c, 0, 81, 79
2, 346556, Note_off_c, 0, 81, 64
2, 346560, Note_on_c, 0, 75, 74
2, 346748, Note_off_c, 0, 75, 64
2, 346752, Note_on_c, 0, 84, 81
2, 346940, Note_off_c, 0, 84, 64
2, 346944, Note_on_c, 0, 81, 79
2, 347132, Note_off_c, 0, 81, 64
2, 347136, Note_on_c, 0, 85, 81
2, 347900, Note_off_c, 0, 85, 64
2, 348096, Note_on_c, 0, 85, 81
2, 348284, Note_off_c, 0, 85, 64
2, 348288, Note_on_c, 0, 82, 80
2, 348476, Note_off_c, 0, 82, 64
2, 348480, Note_on_c, 0, 85, 81
2, 348668, Note_off_c, 0, 85, 64
2, 348672, Note_on_c, 0, 79, 78
2, 348860, Note_off_c, 0, 79, 64
2, 348864, Note_on_c, 0, 82, 80
2, 349052, Note_off_c, 0, 82, 64
2, 349056, Note_on_c, 0, 73, 73
2, 349244, Note_off_c, 0, 73, 64
2, 349248, Note_on_c, 0, 79, 78
2, 349436, Note_off_c, 0, 79, 64
2, 349440, Note_on_c, 0, 70, 74
2, 349628, Note_off_c, 0, 70, 64
2, 349632, Note_on_c, 0, 73, 74
2, 349820, Note_off_c, 0, 73, 64
2, 349824, Note_on_c, 0, 69, 74
2, 350012, Note_off_c, 0, 69, 64
2, 350016, Note_on_c, 0, 73, 74
2, 350204, Note_off_c, 0, 73, 64
2, 350208, Note_on_c, 0, 67, 77
2, 350396, Note_off_c, 0, 67, 64
2, 350400, Note_on_c, 0, 69, 77
2, 350588, Note_off_c, 0, 69, 64
2, 350592, Note_on_c, 0, 70, 77
2, 350780, Note_off_c, 0, 70, 64
2, 350784, Note_on_c, 0, 66, 77
2, 350972, Note_off_c, 0, 66, 64
2, 350976, Note_on_c, 0, 67, 77
2, 351164, Note_off_c, 0, 67, 64
2, 351168, Note_on_c, 0, 69, 77
2, 351356, Note_off_c, 0, 69, 64
2, 351360, Note_on_c, 0, 70, 77
2, 351548, Note_off_c, 0, 70, 64
2, 351552, Note_on_c, 0, 66, 77
2, 351740, Note_off_c, 0, 66, 64
2, 351744, Note_on_c, 0, 67, 77
2, 351932, Note_off_c, 0, 67, 64
2, 351936, Note_on_c, 0, 69, 77
2, 352124, Note_off_c, 0, 69, 64
2, 352128, Note_on_c, 0, 70, 77
2, 352316, Note_off_c, 0, 70, 64
2, 352320, Note_on_c, 0, 69, 77
2, 352508, Note_off_c, 0, 69, 64
2, 352512, Note_on_c, 0, 72, 77
2, 352700, Note_off_c, 0, 72, 64
2, 352704, Note_on_c, 0, 70, 77
2, 352892, Note_off_c, 0, 70, 64
2, 352896, Note_on_c, 0, 69, 77
2, 353084, Note_off_c, 0, 69, 64
2, 353088, Note_on_c, 0, 67, 77
2, 353276, Note_off_c, 0, 67, 64
2, 353280, Note_on_c, 0, 74, 77
2, 353280, Note_on_c, 0, 69, 77
2, 353280, Note_on_c, 0, 66, 77
2, 354044, Note_off_c, 0, 74, 64
2, 354044, Note_off_c, 0, 69, 64
2, 354044, Note_off_c, 0, 66, 64
2, 354432, Note_on_c, 0, 78, 77
2, 354432, Note_on_c, 0, 74, 77
2, 354432, Note_on_c, 0, 69, 77
2, 354812, Note_off_c, 0, 78, 64
2, 354812, Note_off_c, 0, 74, 64
2, 354812, Note_off_c, 0, 69, 64
2, 354816, Note_on_c, 0, 79, 78
2, 354816, Note_on_c, 0, 74, 77
2, 354816, Note_on_c, 0, 70, 77
2, 355580, Note_off_c, 0, 79, 64
2, 355580, Note_off_c, 0, 74, 64
2, 355580, Note_off_c, 0, 70, 64
2, 355968, Note_on_c, 0, 82, 80
2, 355968, Note_on_c, 0, 79, 78
2, 355968, Note_on_c, 0, 74, 77
2, 356348, Note_off_c, 0, 82, 64
2, 356348, Note_off_c, 0, 79, 64
2, 356348, Note_off_c, 0, 74, 64
2, 356352, Note_on_c, 0, 86, 82
2, 356352, Note_on_c, 0, 81, 79
2, 356352, Note_on_c, 0, 78, 77
2, 357116, Note_off_c, 0, 86, 64
2, 357116, Note_off_c, 0, 81, 64
2, 357116, Note_off_c, 0, 78, 64
2, 357504, Note_on_c, 0, 78, 77
2, 357504, Note_on_c, 0, 74, 77
2, 357504, Note_on_c, 0, 69, 77
2, 357884, Note_off_c, 0, 78, 64
2, 357884, Note_off_c, 0, 74, 64
2, 357884, Note_off_c, 0, 69, 64
2, 357888, Note_on_c, 0, 79, 78
2, 357888, Note_on_c, 0, 74, 77
2, 357888, Note_on_c, 0, 70, 77
2, 358652, Note_off_c, 0, 79, 64
2, 358652, Note_off_c, 0, 74, 64
2, 358652, Note_off_c, 0, 70, 64
2, 359424, Note_on_c, 0, 86, 82
2, 359424, Note_on_c, 0, 81, 79
2, 359424, Note_on_c, 0, 78, 77
2, 359424, Note_on_c, 0, 74, 77
2, 359804, Note_off_c, 0, 86, 64
2, 359804, Note_off_c, 0, 81, 64
2, 359804, Note_off_c, 0, 78, 64
2, 359804, Note_off_c, 0, 74, 64
2, 359808, Note_on_c, 0, 62, 77
2, 360188, Note_off_c, 0, 62, 64
2, 360192, Note_on_c, 0, 62, 77
2, 360572, Note_off_c, 0, 62, 64
2, 360576, Note_on_c, 0, 62, 77
2, 360956, Note_off_c, 0, 62, 64
2, 360960, Note_on_c, 0, 62, 77
2, 361340, Note_off_c, 0, 62, 64
2, 362496, Note_on_c, 0, 74, 77
2, 363260, Note_off_c, 0, 74, 64
2, 363264, Note_on_c, 0, 66, 77
2, 364028, Note_off_c, 0, 66, 64
2, 364032, Note_on_c, 0, 67, 77
2, 364412, Note_off_c, 0, 67, 64
2, 365472, Note_on_c, 0, 67, 88
2, 365552, Note_off_c, 0, 67, 64
2, 365568, Note_on_c, 0, 79, 78
2, 365568, Note_on_c, 0, 63, 77
2, 365568, Note_on_c, 0, 60, 77
2, 366332, Note_off_c, 0, 63, 64
2, 366332, Note_off_c, 0, 60, 64
2, 366336, Note_on_c, 0, 65, 77
2, 366336, Note_on_c, 0, 62, 77
2, 366716, Note_off_c, 0, 79, 64
2, 366816, Note_on_c, 0, 77, 80
2, 366896, Note_off_c, 0, 77, 64
2, 366912, Note_on_c, 0, 75, 79
2, 366992, Note_off_c, 0, 75, 64
2, 367008, Note_on_c, 0, 74, 78
2, 367088, Note_off_c, 0, 74, 64
2, 367100, Note_off_c, 0, 65, 64
2, 367100, Note_off_c, 0, 62, 64
2, 367104, Note_on_c, 0, 72, 73
2, 367104, Note_on_c, 0, 67, 72
2, 367104, Note_on_c, 0, 63, 71
2, 367484, Note_off_c, 0, 72, 64
2, 367484, Note_off_c, 0, 67, 64
2, 367484, Note_off_c, 0, 63, 64
2, 368640, Note_on_c, 0, 72, 77
2, 369404, Note_off_c, 0, 72, 64
2, 369408, Note_on_c, 0, 73, 77
2, 369408, Note_on_c, 0, 70, 77
2, 370172, Note_off_c, 0, 73, 64
2, 370172, Note_off_c, 0, 70, 64
2, 370176, Note_on_c, 0, 74, 77
2, 370176, Note_on_c, 0, 69, 77
2, 370556, Note_off_c, 0, 74, 64
2, 370556, Note_off_c, 0, 69, 64
2, 371520, Note_on_c, 0, 69, 77
2, 371708, Note_off_c, 0, 69, 64
2, 371712, Note_on_c, 0, 70, 77
2, 371900, Note_off_c, 0, 70, 64
2, 371904, Note_on_c, 0, 66, 77
2, 372092, Note_off_c, 0, 66, 64
2, 372096, Note_on_c, 0, 67, 77
2, 372284, Note_off_c, 0, 67, 64
2, 372288, Note_on_c, 0, 70, 77
2, 372476, Note_off_c, 0, 70, 64
2, 372480, Note_on_c, 0, 72, 77
2, 372668, Note_off_c, 0, 72, 64
2, 372672, Note_on_c, 0, 68, 77
2, 372860, Note_off_c, 0, 68, 64
2, 372864, Note_on_c, 0, 69, 77
2, 373052, Note_off_c, 0, 69, 64
2, 373056, Note_on_c, 0, 72, 77
2, 373244, Note_off_c, 0, 72, 64
2, 373248, Note_on_c, 0, 74, 77
2, 373628, Note_off_c, 0, 74, 64
2, 374592, Note_on_c, 0, 74, 77
2, 374780, Note_off_c, 0, 74, 64
2, 374784, Note_on_c, 0, 73, 77
2, 374972, Note_off_c, 0, 73, 64
2, 374976, Note_on_c, 0, 68, 77
2, 375164, Note_off_c, 0, 68, 64
2, 375168, Note_on_c, 0, 69, 77
2, 375356, Note_off_c, 0, 69, 64
2, 375360, Note_on_c, 0, 73, 77
2, 375548, Note_off_c, 0, 73, 64
2, 375552, Note_on_c, 0, 74, 77
2, 375740, Note_off_c, 0, 74, 64
2, 375744, Note_on_c, 0, 70, 77
2, 375932, Note_off_c, 0, 70, 64
2, 375936, Note_on_c, 0, 71, 77
2, 376124, Note_off_c, 0, 71, 64
2, 376128, Note_on_c, 0, 74, 77
2, 376316, Note_off_c, 0, 74, 64
2, 376320, Note_on_c, 0, 76, 77
2, 376508, Note_off_c, 0, 76, 64
2, 376512, Note_on_c, 0, 69, 77
2, 376700, Note_off_c, 0, 69, 64
2, 376704, Note_on_c, 0, 73, 77
2, 376892, Note_off_c, 0, 73, 64
2, 376896, Note_on_c, 0, 76, 77
2, 377084, Note_off_c, 0, 76, 64
2, 377088, Note_on_c, 0, 81, 79
2, 377276, Note_off_c, 0, 81, 64
2, 377280, Note_on_c, 0, 79, 78
2, 377468, Note_off_c, 0, 79, 64
2, 377472, Note_on_c, 0, 77, 77
2, 377660, Note_off_c, 0, 77, 64
2, 377664, Note_on_c, 0, 76, 77
2, 377852, Note_off_c, 0, 76, 64
2, 377856, Note_on_c, 0, 74, 77
2, 378236, Note_off_c, 0, 74, 64
2, 379392, Note_on_c, 0, 86, 82
2, 379392, Note_on_c, 0, 74, 77
2, 380156, Note_off_c, 0, 86, 64
2, 380156, Note_off_c, 0, 74, 64
2, 380160, Note_on_c, 0, 84, 81
2, 380160, Note_on_c, 0, 72, 77
2, 380924, Note_off_c, 0, 84, 64
2, 380924, Note_off_c, 0, 72, 64
2, 380928, Note_on_c, 0, 82, 80
2, 380928, Note_on_c, 0, 70, 77
2, 381308, Note_off_c, 0, 82, 64
2, 381308, Note_off_c, 0, 70, 64
2, 382464, Note_on_c, 0, 79, 78
2, 383612, Note_off_c, 0, 79, 64
2, 383712, Note_on_c, 0, 77, 79
2, 383792, Note_off_c, 0, 77, 64
2, 383808, Note_on_c, 0, 76, 78
2, 383888, Note_off_c, 0, 76, 64
2, 383904, Note_on_c, 0, 74, 77
2, 383984, Note_off_c, 0, 74, 64
2, 384000, Note_on_c, 0, 73, 73
2, 384380, Note_off_c, 0, 73, 64
2, 385536, Note_on_c, 0, 81, 79
2, 385536, Note_on_c, 0, 69, 77
2, 386300, Note_off_c, 0, 81, 64
2, 386300, Note_off_c, 0, 69, 64
2, 386304, Note_on_c, 0, 79, 78
2, 386304, Note_on_c, 0, 67, 77
2, 387068, Note_off_c, 0, 79, 64
2, 387068, Note_off_c, 0, 67, 64
2, 387072, Note_on_c, 0, 77, 77
2, 387072, Note_on_c, 0, 65, 77
2, 387452, Note_off_c, 0, 77, 64
2, 387452, Note_off_c, 0, 65, 64
2, 388416, Note_on_c, 0, 76, 77
2, 388604, Note_off_c, 0, 76, 64
2, 388608, Note_on_c, 0, 77, 77
2, 388608, Note_on_c, 0, 65, 77
2, 388608, Note_on_c, 0, 62, 77
2, 388796, Note_off_c, 0, 77, 64
2, 388800, Note_on_c, 0, 76, 77
2, 388988, Note_off_c, 0, 65, 64
2, 388988, Note_off_c, 0, 62, 64
2, 388988, Note_off_c, 0, 76, 64
2, 388992, Note_on_c, 0, 77, 77
2, 388992, Note_on_c, 0, 62, 77
2, 388992, Note_on_c, 0, 65, 77
2, 389180, Note_off_c, 0, 77, 64
2, 389184, Note_on_c, 0, 74, 77
2, 389372, Note_off_c, 0, 62, 64
2, 389372, Note_off_c, 0, 65, 64
2, 389372, Note_off_c, 0, 74, 64
2, 389376, Note_on_c, 0, 79, 77
2, 389376, Note_on_c, 0, 64, 77
2, 389376, Note_on_c, 0, 67, 77
2, 389564, Note_off_c, 0, 79, 64
2, 389568, Note_on_c, 0, 77, 77
2, 389756, Note_off_c, 0, 64, 64
2, 389756, Note_off_c, 0, 67, 64
2, 389756, Note_off_c, 0, 77, 64
2, 389760, Note_on_c, 0, 79, 77
2, 389760, Note_on_c, 0, 67, 77
2, 389760, Note_on_c, 0, 64, 77
2, 389948, Note_off_c, 0, 79, 64
2, 389952, Note_on_c, 0, 76, 77
2, 390140, Note_off_c, 0, 67, 64
2, 390140, Note_off_c, 0, 64, 64
2, 390140, Note_off_c, 0, 76, 64
2, 390144, Note_on_c, 0, 81, 79
2, 390144, Note_on_c, 0, 69, 77
2, 390144, Note_on_c, 0, 62, 77
2, 390524, Note_off_c, 0, 81, 64
2, 390524, Note_off_c, 0, 69, 64
2, 390524, Note_off_c, 0, 62, 64
2, 391488, Note_on_c, 0, 79, 78
2, 391676, Note_off_c, 0, 79, 64
2, 391680, Note_on_c, 0, 81, 79
2, 391680, Note_on_c, 0, 66, 77
2, 391680, Note_on_c, 0, 62, 77
2, 391868, Note_off_c, 0, 81, 64
2, 391872, Note_on_c, 0, 74, 77
2, 392060, Note_off_c, 0, 66, 64
2, 392060, Note_off_c, 0, 62, 64
2, 392060, Note_off_c, 0, 74, 64
2, 392064, Note_on_c, 0, 78, 77
2, 392064, Note_on_c, 0, 66, 77
2, 392064, Note_on_c, 0, 62, 77
2, 392252, Note_off_c, 0, 78, 64
2, 392256, Note_on_c, 0, 81, 79
2, 392444, Note_off_c, 0, 66, 64
2, 392444, Note_off_c, 0, 62, 64
2, 392444, Note_off_c, 0, 81, 64
2, 392448, Note_on_c, 0, 86, 82
2, 392448, Note_on_c, 0, 66, 77
2, 392448, Note_on_c, 0, 74, 77
2, 392636, Note_off_c, 0, 86, 64
2, 392640, Note_on_c, 0, 84, 81
2, 392828, Note_off_c, 0, 66, 64
2, 392828, Note_off_c, 0, 74, 64
2, 392828, Note_off_c, 0, 84, 64
2, 392832, Note_on_c, 0, 82, 80
2, 392832, Note_on_c, 0, 74, 77
2, 392832, Note_on_c, 0, 66, 77
2, 393020, Note_off_c, 0, 82, 64
2, 393024, Note_on_c, 0, 81, 79
2, 393212, Note_off_c, 0, 74, 64
2, 393212, Note_off_c, 0, 66, 64
2, 393212, Note_off_c, 0, 81, 64
2, 393216, Note_on_c, 0, 81, 79
2, 393216, Note_on_c, 0, 74, 77
2, 393216, Note_on_c, 0, 67, 77
2, 393596, Note_off_c, 0, 81, 64
2, 393596, Note_off_c, 0, 74, 64
2, 393596, Note_off_c, 0, 67, 64
2, 394560, Note_on_c, 0, 72, 77
2, 394748, Note_off_c, 0, 72, 64
2, 394752, Note_on_c, 0, 74, 77
2, 394752, Note_on_c, 0, 62, 77
2, 394752, Note_on_c, 0, 58, 77
2, 394940, Note_off_c, 0, 74, 64
2, 394944, Note_on_c, 0, 67, 77
2, 395132, Note_off_c, 0, 62, 64
2, 395132, Note_off_c, 0, 58, 64
2, 395132, Note_off_c, 0, 67, 64
2, 395136, Note_on_c, 0, 70, 77
2, 395136, Note_on_c, 0, 62, 77
2, 395136, Note_on_c, 0, 58, 77
2, 395324, Note_off_c, 0, 70, 64
2, 395328, Note_on_c, 0, 74, 77
2, 395516, Note_off_c, 0, 62, 64
2, 395516, Note_off_c, 0, 58, 64
2, 395516, Note_off_c, 0, 74, 64
2, 395520, Note_on_c, 0, 79, 78
2, 395520, Note_on_c, 0, 67, 77
2, 395520, Note_on_c, 0, 59, 77
2, 395708, Note_off_c, 0, 79, 64
2, 395712, Note_on_c, 0, 77, 77
2, 395900, Note_off_c, 0, 67, 64
2, 395900, Note_off_c, 0, 59, 64
2, 395900, Note_off_c, 0, 77, 64
2, 395904, Note_on_c, 0, 76, 77
2, 395904, Note_on_c, 0, 67, 77
2, 395904, Note_on_c, 0, 59, 77
2, 396092, Note_off_c, 0, 76, 64
2, 396096, Note_on_c, 0, 74, 77
2, 396284, Note_off_c, 0, 67, 64
2, 396284, Note_off_c, 0, 59, 64
2, 396284, Note_off_c, 0, 74, 64
2, 396288, Note_on_c, 0, 76, 77
2, 396288, Note_on_c, 0, 67, 77
2, 396288, Note_on_c, 0, 60, 77
2, 396668, Note_off_c, 0, 76, 64
2, 396668, Note_off_c, 0, 67, 64
2, 396668, Note_off_c, 0, 60, 64
2, 397632, Note_on_c, 0, 77, 77
2, 397820, Note_off_c, 0, 77, 64
2, 397824, Note_on_c, 0, 79, 77
2, 397824, Note_on_c, 0, 64, 77
2, 397824, Note_on_c, 0, 60, 77
2, 398012, Note_off_c, 0, 79, 64
2, 398016, Note_on_c, 0, 72, 77
2, 398204, Note_off_c, 0, 64, 64
2, 398204, Note_off_c, 0, 60, 64
2, 398204, Note_off_c, 0, 72, 64
2, 398208, Note_on_c, 0, 76, 77
2, 398208, Note_on_c, 0, 64, 77
2, 398208, Note_on_c, 0, 60, 77
2, 398396, Note_off_c, 0, 76, 64
2, 398400, Note_on_c, 0, 79, 77
2, 398588, Note_off_c, 0, 64, 64
2, 398588, Note_off_c, 0, 60, 64
2, 398588, Note_off_c, 0, 79, 64
2, 398592, Note_on_c, 0, 84, 81
2, 398592, Note_on_c, 0, 72, 77
2, 398592, Note_on_c, 0, 64, 77
2, 398780, Note_off_c, 0, 84, 64
2, 398784, Note_on_c, 0, 82, 80
2, 398972, Note_off_c, 0, 72, 64
2, 398972, Note_off_c, 0, 64, 64
2, 398972, Note_off_c, 0, 82, 64
2, 398976, Note_on_c, 0, 81, 79
2, 398976, Note_on_c, 0, 72, 77
2, 398976, Note_on_c, 0, 64, 77
2, 399164, Note_off_c, 0, 81, 64
2, 399168, Note_on_c, 0, 79, 78
2, 399356, Note_off_c, 0, 72, 64
2, 399356, Note_off_c, 0, 64, 64
2, 399356, Note_off_c, 0, 79, 64
2, 399360, Note_on_c, 0, 81, 77
2, 399360, Note_on_c, 0, 72, 77
2, 399360, Note_on_c, 0, 65, 77
2, 399740, Note_off_c, 0, 81, 64
2, 399740, Note_off_c, 0, 72, 64
2, 399740, Note_off_c, 0, 65, 64
2, 400704, Note_on_c, 0, 70, 77
2, 400892, Note_off_c, 0, 70, 64
2, 400896, Note_on_c, 0, 72, 77
2, 401084, Note_off_c, 0, 72, 64
2, 401088, Note_on_c, 0, 65, 77
2, 401276, Note_off_c, 0, 65, 64
2, 401280, Note_on_c, 0, 69, 77
2, 401468, Note_off_c, 0, 69, 64
2, 401472, Note_on_c, 0, 72, 77
2, 401660, Note_off_c, 0, 72, 64
2, 401664, Note_on_c, 0, 77, 77
2, 401852, Note_off_c, 0, 77, 64
2, 401856, Note_on_c, 0, 75, 77
2, 402044, Note_off_c, 0, 75, 64
2, 402048, Note_on_c, 0, 74, 77
2, 402236, Note_off_c, 0, 74, 64
2, 402240, Note_on_c, 0, 72, 77
2, 402428, Note_off_c, 0, 72, 64
2, 402432, Note_on_c, 0, 74, 77
2, 402812, Note_off_c, 0, 74, 64
2, 403776, Note_on_c, 0, 75, 77
2, 403964, Note_off_c, 0, 75, 64
2, 403968, Note_on_c, 0, 77, 77
2, 403968, Note_on_c, 0, 62, 77
2, 403968, Note_on_c, 0, 58, 77
2, 404156, Note_off_c, 0, 77, 64
2, 404160, Note_on_c, 0, 70, 77
2, 404348, Note_off_c, 0, 62, 64
2, 404348, Note_off_c, 0, 58, 64
2, 404348, Note_off_c, 0, 70, 64
2, 404352, Note_on_c, 0, 74, 77
2, 404352, Note_on_c, 0, 62, 77
2, 404352, Note_on_c, 0, 58, 77
2, 404540, Note_off_c, 0, 74, 64
2, 404544, Note_on_c, 0, 77, 77
2, 404732, Note_off_c, 0, 62, 64
2, 404732, Note_off_c, 0, 58, 64
2, 404732, Note_off_c, 0, 77, 64
2, 404736, Note_on_c, 0, 82, 80
2, 404736, Note_on_c, 0, 70, 77
2, 404736, Note_on_c, 0, 62, 77
2, 404924, Note_off_c, 0, 82, 64
2, 404928, Note_on_c, 0, 81, 79
2, 405116, Note_off_c, 0, 70, 64
2, 405116, Note_off_c, 0, 62, 64
2, 405116, Note_off_c, 0, 81, 64
2, 405120, Note_on_c, 0, 79, 78
2, 405120, Note_on_c, 0, 70, 77
2, 405120, Note_on_c, 0, 62, 77
2, 405308, Note_off_c, 0, 79, 64
2, 405312, Note_on_c, 0, 77, 77
2, 405500, Note_off_c, 0, 70, 64
2, 405500, Note_off_c, 0, 62, 64
2, 405500, Note_off_c, 0, 77, 64
2, 405504, Note_on_c, 0, 79, 78
2, 405504, Note_on_c, 0, 70, 77
2, 405504, Note_on_c, 0, 64, 77
2, 405884, Note_off_c, 0, 79, 64
2, 405884, Note_off_c, 0, 70, 64
2, 405884, Note_off_c, 0, 64, 64
2, 406848, Note_on_c, 0, 81, 79
2, 407036, Note_off_c, 0, 81, 64
2, 407040, Note_on_c, 0, 82, 80
2, 407040, Note_on_c, 0, 67, 77
2, 407040, Note_on_c, 0, 64, 77
2, 407228, Note_off_c, 0, 82, 64
2, 407232, Note_on_c, 0, 76, 77
2, 407420, Note_off_c, 0, 67, 64
2, 407420, Note_off_c, 0, 64, 64
2, 407420, Note_off_c, 0, 76, 64
2, 407424, Note_on_c, 0, 79, 77
2, 407424, Note_on_c, 0, 67, 77
2, 407424, Note_on_c, 0, 64, 77
2, 407612, Note_off_c, 0, 79, 64
2, 407616, Note_on_c, 0, 82, 77
2, 407804, Note_off_c, 0, 67, 64
2, 407804, Note_off_c, 0, 64, 64
2, 407804, Note_off_c, 0, 82, 64
2, 407808, Note_on_c, 0, 88, 83
2, 407808, Note_on_c, 0, 76, 77
2, 407808, Note_on_c, 0, 68, 77
2, 407996, Note_off_c, 0, 88, 64
2, 408000, Note_on_c, 0, 86, 82
2, 408188, Note_off_c, 0, 76, 64
2, 408188, Note_off_c, 0, 68, 64
2, 408188, Note_off_c, 0, 86, 64
2, 408192, Note_on_c, 0, 85, 81
2, 408192, Note_on_c, 0, 76, 77
2, 408192, Note_on_c, 0, 68, 77
2, 408380, Note_off_c, 0, 85, 64
2, 408384, Note_on_c, 0, 83, 80
2, 408572, Note_off_c, 0, 76, 64
2, 408572, Note_off_c, 0, 68, 64
2, 408572, Note_off_c, 0, 83, 64
2, 408576, Note_on_c, 0, 85, 81
2, 408576, Note_on_c, 0, 76, 77
2, 408576, Note_on_c, 0, 69, 77
2, 408956, Note_off_c, 0, 85, 64
2, 408956, Note_off_c, 0, 76, 64
2, 408956, Note_off_c, 0, 69, 64
2, 409920, Note_on_c, 0, 74, 77
2, 410108, Note_off_c, 0, 74, 64
2, 410112, Note_on_c, 0, 76, 77
2, 410112, Note_on_c, 0, 61, 77
2, 410112, Note_on_c, 0, 57, 77
2, 410300, Note_off_c, 0, 76, 64
2, 410304, Note_on_c, 0, 69, 77
2, 410492, Note_off_c, 0, 61, 64
2, 410492, Note_off_c, 0, 57, 64
2, 410492, Note_off_c, 0, 69, 64
2, 410496, Note_on_c, 0, 73, 77
2, 410496, Note_on_c, 0, 57, 77
2, 410496, Note_on_c, 0, 61, 77
2, 410684, Note_off_c, 0, 73, 64
2, 410688, Note_on_c, 0, 76, 77
2, 410876, Note_off_c, 0, 57, 64
2, 410876, Note_off_c, 0, 61, 64
2, 410876, Note_off_c, 0, 76, 64
2, 410880, Note_on_c, 0, 81, 79
2, 410880, Note_on_c, 0, 61, 77
2, 410880, Note_on_c, 0, 69, 77
2, 411068, Note_off_c, 0, 81, 64
2, 411072, Note_on_c, 0, 79, 78
2, 411260, Note_off_c, 0, 61, 64
2, 411260, Note_off_c, 0, 69, 64
2, 411260, Note_off_c, 0, 79, 64
2, 411264, Note_on_c, 0, 77, 77
2, 411264, Note_on_c, 0, 69, 77
2, 411264, Note_on_c, 0, 61, 77
2, 411452, Note_off_c, 0, 77, 64
2, 411456, Note_on_c, 0, 76, 77
2, 411644, Note_off_c, 0, 69, 64
2, 411644, Note_off_c, 0, 61, 64
2, 411644, Note_off_c, 0, 76, 64
2, 411648, Note_on_c, 0, 77, 77
2, 411648, Note_on_c, 0, 69, 77
2, 411648, Note_on_c, 0, 62, 77
2, 411836, Note_off_c, 0, 77, 64
2, 411840, Note_on_c, 0, 74, 77
2, 412028, Note_off_c, 0, 74, 64
2, 412032, Note_on_c, 0, 77, 77
2, 412220, Note_off_c, 0, 77, 64
2, 412224, Note_on_c, 0, 81, 79
2, 412412, Note_off_c, 0, 69, 64
2, 412412, Note_off_c, 0, 62, 64
2, 412412, Note_off_c, 0, 81, 64
2, 412416, Note_on_c, 0, 86, 82
2, 412416, Note_on_c, 0, 65, 77
2, 412416, Note_on_c, 0, 74, 77
2, 412604, Note_off_c, 0, 86, 64
2, 412608, Note_on_c, 0, 84, 81
2, 412796, Note_off_c, 0, 84, 64
2, 412800, Note_on_c, 0, 82, 80
2, 412988, Note_off_c, 0, 82, 64
2, 412992, Note_on_c, 0, 81, 79
2, 413180, Note_off_c, 0, 65, 64
2, 413180, Note_off_c, 0, 81, 64
2, 413184, Note_on_c, 0, 82, 80
2, 413184, Note_on_c, 0, 67, 77
2, 413372, Note_off_c, 0, 82, 64
2, 413376, Note_on_c, 0, 84, 81
2, 413564, Note_off_c, 0, 84, 64
2, 413568, Note_on_c, 0, 82, 80
2, 413756, Note_off_c, 0, 82, 64
2, 413760, Note_on_c, 0, 81, 79
2, 413948, Note_off_c, 0, 74, 64
2, 413948, Note_off_c, 0, 67, 64
2, 413948, Note_off_c, 0, 81, 64
2, 413952, Note_on_c, 0, 79, 78
2, 413952, Note_on_c, 0, 62, 77
2, 413952, Note_on_c, 0, 58, 77
2, 414140, Note_off_c, 0, 79, 64
2, 414144, Note_on_c, 0, 77, 77
2, 414332, Note_off_c, 0, 77, 64
2, 414336, Note_on_c, 0, 76, 77
2, 414524, Note_off_c, 0, 76, 64
2, 414528, Note_on_c, 0, 74, 77
2, 414716, Note_off_c, 0, 62, 64
2, 414716, Note_off_c, 0, 58, 64
2, 414716, Note_off_c, 0, 74, 64
2, 414720, Note_on_c, 0, 64, 77
2, 414720, Note_on_c, 0, 57, 77
2, 414720, Note_on_c, 0, 73, 77
2, 414908, Note_off_c, 0, 73, 64
2, 414912, Note_on_c, 0, 76, 77
2, 415100, Note_off_c, 0, 76, 64
2, 415104, Note_on_c, 0, 73, 77
2, 415292, Note_off_c, 0, 73, 64
2, 415296, Note_on_c, 0, 70, 77
2, 415484, Note_off_c, 0, 64, 64
2, 415484, Note_off_c, 0, 57, 64
2, 415484, Note_off_c, 0, 70, 64
2, 415488, Note_on_c, 0, 69, 77
2, 415676, Note_off_c, 0, 69, 64
2, 415680, Note_on_c, 0, 76, 77
2, 415868, Note_off_c, 0, 76, 64
2, 415872, Note_on_c, 0, 69, 77
2, 416060, Note_off_c, 0, 69, 64
2, 416064, Note_on_c, 0, 67, 77
2, 416252, Note_off_c, 0, 67, 64
2, 416256, Note_on_c, 0, 65, 77
2, 416444, Note_off_c, 0, 65, 64
2, 416448, Note_on_c, 0, 69, 77
2, 416636, Note_off_c, 0, 69, 64
2, 416640, Note_on_c, 0, 74, 77
2, 416828, Note_off_c, 0, 74, 64
2, 416832, Note_on_c, 0, 69, 77
2, 417020, Note_off_c, 0, 69, 64
2, 417024, Note_on_c, 0, 65, 77
2, 417212, Note_off_c, 0, 65, 64
2, 417216, Note_on_c, 0, 69, 77
2, 417404, Note_off_c, 0, 69, 64
2, 417408, Note_on_c, 0, 65, 77
2, 417596, Note_off_c, 0, 65, 64
2, 417600, Note_on_c, 0, 62, 77
2, 417788, Note_off_c, 0, 62, 64
2, 422400, Note_on_c, 0, 69, 77
2, 422780, Note_off_c, 0, 69, 64
2, 422976, Note_on_c, 0, 61, 70
2, 423164, Note_off_c, 0, 61, 64
2, 423168, Note_on_c, 0, 64, 72
2, 423356, Note_off_c, 0, 64, 64
2, 423360, Note_on_c, 0, 69, 74
2, 423548, Note_off_c, 0, 69, 64
2, 423552, Note_on_c, 0, 73, 75
2, 423740, Note_off_c, 0, 73, 64
2, 423744, Note_on_c, 0, 76, 77
2, 423932, Note_off_c, 0, 76, 64
2, 423936, Note_on_c, 0, 81, 79
2, 423936, Note_on_c, 0, 69, 77
2, 424316, Note_off_c, 0, 81, 64
2, 424316, Note_off_c, 0, 69, 64
2, 425472, Note_on_c, 0, 81, 79
2, 425472, Note_on_c, 0, 69, 77
2, 427004, Note_off_c, 0, 81, 64
2, 427004, Note_off_c, 0, 69, 64
2, 427008, Note_on_c, 0, 82, 79
2, 427008, Note_on_c, 0, 70, 77
2, 428540, Note_off_c, 0, 82, 64
2, 428540, Note_off_c, 0, 70, 64
2, 428544, Note_on_c, 0, 81, 79
2, 428544, Note_on_c, 0, 69, 77
2, 428924, Note_off_c, 0, 81, 64
2, 428924, Note_off_c, 0, 69, 64
2, 428928, Note_on_c, 0, 77, 77
2, 429116, Note_off_c, 0, 77, 64
2, 429312, Note_on_c, 0, 79, 78
2, 429312, Note_on_c, 0, 67, 77
2, 429692, Note_off_c, 0, 79, 64
2, 429692, Note_off_c, 0, 67, 64
2, 429696, Note_on_c, 0, 76, 77
2, 429884, Note_off_c, 0, 76, 64
2, 430080, Note_on_c, 0, 77, 77
2, 430080, Note_on_c, 0, 65, 77
2, 430460, Note_off_c, 0, 77, 64
2, 430460, Note_off_c, 0, 65, 64
2, 430464, Note_on_c, 0, 74, 77
2, 430652, Note_off_c, 0, 74, 64
2, 430848, Note_on_c, 0, 76, 77
2, 430848, Note_on_c, 0, 64, 77
2, 431228, Note_off_c, 0, 76, 64
2, 431228, Note_off_c, 0, 64, 64
2, 431232, Note_on_c, 0, 73, 77
2, 431420, Note_off_c, 0, 73, 64
2, 431616, Note_on_c, 0, 74, 77
2, 432764, Note_off_c, 0, 74, 64
2, 432768, Note_on_c, 0, 76, 77
2, 432956, Note_off_c, 0, 76, 64
2, 432960, Note_on_c, 0, 77, 77
2, 433148, Note_off_c, 0, 77, 64
2, 433152, Note_on_c, 0, 76, 77
2, 433340, Note_off_c, 0, 76, 64
2, 433344, Note_on_c, 0, 69, 77
2, 433532, Note_off_c, 0, 69, 64
2, 433536, Note_on_c, 0, 71, 77
2, 433724, Note_off_c, 0, 71, 64
2, 433728, Note_on_c, 0, 73, 77
2, 433916, Note_off_c, 0, 73, 64
2, 433920, Note_on_c, 0, 74, 77
2, 434108, Note_off_c, 0, 74, 64
2, 434112, Note_on_c, 0, 76, 77
2, 434300, Note_off_c, 0, 76, 64
2, 434304, Note_on_c, 0, 77, 77
2, 434492, Note_off_c, 0, 77, 64
2, 434496, Note_on_c, 0, 79, 77
2, 434684, Note_off_c, 0, 79, 64
2, 434688, Note_on_c, 0, 81, 79
2, 434688, Note_on_c, 0, 65, 77
2, 434688, Note_on_c, 0, 62, 77
2, 434876, Note_off_c, 0, 81, 64
2, 434880, Note_on_c, 0, 86, 82
2, 435068, Note_off_c, 0, 65, 64
2, 435068, Note_off_c, 0, 62, 64
2, 435068, Note_off_c, 0, 86, 64
2, 435072, Note_on_c, 0, 85, 81
2, 435072, Note_on_c, 0, 65, 77
2, 435072, Note_on_c, 0, 62, 77
2, 435260, Note_off_c, 0, 85, 64
2, 435264, Note_on_c, 0, 86, 82
2, 435452, Note_off_c, 0, 65, 64
2, 435452, Note_off_c, 0, 62, 64
2, 435452, Note_off_c, 0, 86, 64
2, 435456, Note_on_c, 0, 85, 81
2, 435456, Note_on_c, 0, 65, 77
2, 435456, Note_on_c, 0, 62, 77
2, 435644, Note_off_c, 0, 85, 64
2, 435648, Note_on_c, 0, 86, 82
2, 435836, Note_off_c, 0, 65, 64
2, 435836, Note_off_c, 0, 62, 64
2, 435836, Note_off_c, 0, 86, 64
2, 435840, Note_on_c, 0, 85, 81
2, 436028, Note_off_c, 0, 85, 64
2, 436032, Note_on_c, 0, 86, 82
2, 436220, Note_off_c, 0, 86, 64
2, 436224, Note_on_c, 0, 84, 81
2, 436224, Note_on_c, 0, 67, 77
2, 436224, Note_on_c, 0, 64, 77
2, 436224, Note_on_c, 0, 61, 77
2, 436412, Note_off_c, 0, 84, 64
2, 436416, Note_on_c, 0, 82, 80
2, 436604, Note_off_c, 0, 67, 64
2, 436604, Note_off_c, 0, 64, 64
2, 436604, Note_off_c, 0, 61, 64
2, 436604, Note_off_c, 0, 82, 64
2, 436608, Note_on_c, 0, 88, 83
2, 436608, Note_on_c, 0, 67, 77
2, 436608, Note_on_c, 0, 64, 77
2, 436608, Note_on_c, 0, 61, 77
2, 436796, Note_off_c, 0, 88, 64
2, 436800, Note_on_c, 0, 82, 80
2, 436988, Note_off_c, 0, 67, 64
2, 436988, Note_off_c, 0, 64, 64
2, 436988, Note_off_c, 0, 61, 64
2, 436988, Note_off_c, 0, 82, 64
2, 436992, Note_on_c, 0, 88, 83
2, 436992, Note_on_c, 0, 67, 77
2, 436992, Note_on_c, 0, 64, 77
2, 436992, Note_on_c, 0, 61, 77
2, 437180, Note_off_c, 0, 88, 64
2, 437184, Note_on_c, 0, 82, 80
2, 437372, Note_off_c, 0, 67, 64
2, 437372, Note_off_c, 0, 64, 64
2, 437372, Note_off_c, 0, 61, 64
2, 437372, Note_off_c, 0, 82, 64
2, 437376, Note_on_c, 0, 88, 83
2, 437564, Note_off_c, 0, 88, 64
2, 437568, Note_on_c, 0, 82, 80
2, 437756, Note_off_c, 0, 82, 64
2, 437760, Note_on_c, 0, 81, 79
2, 437760, Note_on_c, 0, 65, 77
2, 437760, Note_on_c, 0, 62, 77
2, 437948, Note_off_c, 0, 81, 64
2, 437952, Note_on_c, 0, 89, 84
2, 438140, Note_off_c, 0, 65, 64
2, 438140, Note_off_c, 0, 62, 64
2, 438140, Note_off_c, 0, 89, 64
2, 438144, Note_on_c, 0, 86, 82
2, 438332, Note_off_c, 0, 86, 64
2, 438336, Note_on_c, 0, 81, 79
2, 438524, Note_off_c, 0, 81, 64
2, 438528, Note_on_c, 0, 79, 78
2, 438716, Note_off_c, 0, 79, 64
2, 438720, Note_on_c, 0, 88, 77
2, 438908, Note_off_c, 0, 88, 64
2, 438912, Note_on_c, 0, 82, 83
2, 439100, Note_off_c, 0, 82, 64
2, 439104, Note_on_c, 0, 79, 80
2, 439292, Note_off_c, 0, 79, 64
2, 439296, Note_on_c, 0, 77, 77
2, 439484, Note_off_c, 0, 77, 64
2, 439488, Note_on_c, 0, 86, 82
2, 439676, Note_off_c, 0, 86, 64
2, 439680, Note_on_c, 0, 81, 79
2, 439868, Note_off_c, 0, 81, 64
2, 439872, Note_on_c, 0, 77, 77
2, 440060, Note_off_c, 0, 77, 64
2, 440064, Note_on_c, 0, 76, 77
2, 440252, Note_off_c, 0, 76, 64
2, 440256, Note_on_c, 0, 85, 81
2, 440444, Note_off_c, 0, 85, 64
2, 440448, Note_on_c, 0, 79, 78
2, 440636, Note_off_c, 0, 79, 64
2, 440640, Note_on_c, 0, 76, 77
2, 440828, Note_off_c, 0, 76, 64
2, 440832, Note_on_c, 0, 74, 77
2, 440832, Note_on_c, 0, 68, 77
2, 440832, Note_on_c, 0, 62, 77
2, 441020, Note_off_c, 0, 74, 64
2, 441024, Note_on_c, 0, 76, 77
2, 441212, Note_off_c, 0, 76, 64
2, 441216, Note_on_c, 0, 74, 77
2, 441404, Note_off_c, 0, 74, 64
2, 441408, Note_on_c, 0, 73, 77
2, 441596, Note_off_c, 0, 73, 64
2, 441600, Note_on_c, 0, 74, 77
2, 441788, Note_off_c, 0, 74, 64
2, 441792, Note_on_c, 0, 76, 77
2, 441980, Note_off_c, 0, 76, 64
2, 441984, Note_on_c, 0, 74, 77
2, 442172, Note_off_c, 0, 74, 64
2, 442176, Note_on_c, 0, 76, 77
2, 442364, Note_off_c, 0, 68, 64
2, 442364, Note_off_c, 0, 62, 64
2, 442364, Note_off_c, 0, 76, 64
2, 442368, Note_on_c, 0, 69, 77
2, 442368, Note_on_c, 0, 62, 77
2, 442368, Note_on_c, 0, 77, 77
2, 442556, Note_off_c, 0, 77, 64
2, 442560, Note_on_c, 0, 79, 78
2, 442748, Note_off_c, 0, 79, 64
2, 442752, Note_on_c, 0, 77, 77
2, 442940, Note_off_c, 0, 77, 64
2, 442944, Note_on_c, 0, 76, 77
2, 443132, Note_off_c, 0, 76, 64
2, 443136, Note_on_c, 0, 77, 77
2, 443324, Note_off_c, 0, 77, 64
2, 443328, Note_on_c, 0, 79, 78
2, 443516, Note_off_c, 0, 62, 64
2, 443516, Note_off_c, 0, 79, 64
2, 443520, Note_on_c, 0, 61, 77
2, 443520, Note_on_c, 0, 76, 77
2, 443708, Note_off_c, 0, 76, 64
2, 443712, Note_on_c, 0, 77, 77
2, 443900, Note_off_c, 0, 69, 64
2, 443900, Note_off_c, 0, 61, 64
2, 443900, Note_off_c, 0, 77, 64
2, 443904, Note_on_c, 0, 74, 77
2, 443904, Note_on_c, 0, 68, 77
2, 443904, Note_on_c, 0, 62, 77
2, 444092, Note_off_c, 0, 74, 64
2, 444096, Note_on_c, 0, 76, 77
2, 444284, Note_off_c, 0, 76, 64
2, 444288, Note_on_c, 0, 74, 77
2, 444476, Note_off_c, 0, 74, 64
2, 444480, Note_on_c, 0, 73, 77
2, 444668, Note_off_c, 0, 73, 64
2, 444672, Note_on_c, 0, 74, 77
2, 444860, Note_off_c, 0, 74, 64
2, 444864, Note_on_c, 0, 76, 77
2, 445052, Note_off_c, 0, 76, 64
2, 445056, Note_on_c, 0, 74, 77
2, 445244, Note_off_c, 0, 74, 64
2, 445248, Note_on_c, 0, 76, 77
2, 445436, Note_off_c, 0, 68, 64
2, 445436, Note_off_c, 0, 62, 64
2, 445436, Note_off_c, 0, 76, 64
2, 445440, Note_on_c, 0, 69, 77
2, 445440, Note_on_c, 0, 62, 77
2, 445440, Note_on_c, 0, 77, 77
2, 445628, Note_off_c, 0, 77, 64
2, 445632, Note_on_c, 0, 79, 78
2, 445820, Note_off_c, 0, 79, 64
2, 445824, Note_on_c, 0, 77, 77
2, 446012, Note_off_c, 0, 77, 64
2, 446016, Note_on_c, 0, 76, 77
2, 446204, Note_off_c, 0, 76, 64
2, 446208, Note_on_c, 0, 77, 77
2, 446396, Note_off_c, 0, 77, 64
2, 446400, Note_on_c, 0, 79, 78
2, 446588, Note_off_c, 0, 62, 64
2, 446588, Note_off_c, 0, 79, 64
2, 446592, Note_on_c, 0, 61, 77
2, 446592, Note_on_c, 0, 76, 77
2, 446780, Note_off_c, 0, 76, 64
2, 446784, Note_on_c, 0, 77, 77
2, 446972, Note_off_c, 0, 69, 64
2, 446972, Note_off_c, 0, 61, 64
2, 446972, Note_off_c, 0, 77, 64
2, 446976, Note_on_c, 0, 74, 77
2, 447164, Note_off_c, 0, 74, 64
2, 447168, Note_on_c, 0, 86, 82
2, 447356, Note_off_c, 0, 86, 64
2, 447360, Note_on_c, 0, 73, 77
2, 447548, Note_off_c, 0, 73, 64
2, 447552, Note_on_c, 0, 86, 82
2, 447740, Note_off_c, 0, 86, 64
2, 447744, Note_on_c, 0, 74, 77
2, 447932, Note_off_c, 0, 74, 64
2, 447936, Note_on_c, 0, 86, 82
2, 448124, Note_off_c, 0, 86, 64
2, 448128, Note_on_c, 0, 76, 77
2, 448316, Note_off_c, 0, 76, 64
2, 448320, Note_on_c, 0, 86, 82
2, 448508, Note_off_c, 0, 86, 64
2, 448512, Note_on_c, 0, 77, 77
2, 448700, Note_off_c, 0, 77, 64
2, 448704, Note_on_c, 0, 86, 82
2, 448892, Note_off_c, 0, 86, 64
2, 448896, Note_on_c, 0, 78, 77
2, 449084, Note_off_c, 0, 78, 64
2, 449088, Note_on_c, 0, 86, 82
2, 449276, Note_off_c, 0, 86, 64
2, 449280, Note_on_c, 0, 79, 77
2, 449468, Note_off_c, 0, 79, 64
2, 449472, Note_on_c, 0, 86, 82
2, 449660, Note_off_c, 0, 86, 64
2, 449664, Note_on_c, 0, 80, 77
2, 449852, Note_off_c, 0, 80, 64
2, 449856, Note_on_c, 0, 86, 83
2, 450044, Note_off_c, 0, 86, 64
2, 450048, Note_on_c, 0, 81, 79
2, 450236, Note_off_c, 0, 81, 64
2, 450240, Note_on_c, 0, 86, 82
2, 450428, Note_off_c, 0, 86, 64
2, 450432, Note_on_c, 0, 77, 77
2, 450620, Note_off_c, 0, 77, 64
2, 450624, Note_on_c, 0, 81, 79
2, 450812, Note_off_c, 0, 81, 64
2, 450816, Note_on_c, 0, 79, 78
2, 451004, Note_off_c, 0, 79, 64
2, 451008, Note_on_c, 0, 82, 80
2, 451196, Note_off_c, 0, 82, 64
2, 451200, Note_on_c, 0, 76, 75
2, 451388, Note_off_c, 0, 76, 64
2, 451392, Note_on_c, 0, 79, 78
2, 451580, Note_off_c, 0, 79, 64
2, 451584, Note_on_c, 0, 77, 77
2, 451772, Note_off_c, 0, 77, 64
2, 451776, Note_on_c, 0, 81, 79
2, 451964, Note_off_c, 0, 81, 64
2, 451968, Note_on_c, 0, 74, 77
2, 452156, Note_off_c, 0, 74, 64
2, 452160, Note_on_c, 0, 77, 77
2, 452348, Note_off_c, 0, 77, 64
2, 452352, Note_on_c, 0, 76, 77
2, 452540, Note_off_c, 0, 76, 64
2, 452544, Note_on_c, 0, 79, 78
2, 452732, Note_off_c, 0, 79, 64
2, 452736, Note_on_c, 0, 73, 77
2, 452924, Note_off_c, 0, 73, 64
2, 452928, Note_on_c, 0, 76, 77
2, 453116, Note_off_c, 0, 76, 64
2, 453120, Note_on_c, 0, 74, 77
2, 453308, Note_off_c, 0, 74, 64
2, 453312, Note_on_c, 0, 73, 77
2, 453500, Note_off_c, 0, 73, 64
2, 453504, Note_on_c, 0, 74, 77
2, 453692, Note_off_c, 0, 74, 64
2, 453696, Note_on_c, 0, 76, 77
2, 453884, Note_off_c, 0, 76, 64
2, 453888, Note_on_c, 0, 77, 77
2, 454076, Note_off_c, 0, 77, 64
2, 454080, Note_on_c, 0, 79, 78
2, 454268, Note_off_c, 0, 79, 64
2, 454272, Note_on_c, 0, 81, 79
2, 454460, Note_off_c, 0, 81, 64
2, 454464, Note_on_c, 0, 77, 77
2, 454652, Note_off_c, 0, 77, 64
2, 454656, Note_on_c, 0, 82, 80
2, 454656, Note_on_c, 0, 67, 77
2, 454844, Note_off_c, 0, 82, 64
2, 454844, Note_off_c, 0, 67, 64
2, 454848, Note_on_c, 0, 84, 81
2, 454848, Note_on_c, 0, 69, 77
2, 455036, Note_off_c, 0, 84, 64
2, 455036, Note_off_c, 0, 69, 64
2, 455040, Note_on_c, 0, 81, 79
2, 455040, Note_on_c, 0, 65, 77
2, 455228, Note_off_c, 0, 81, 64
2, 455228, Note_off_c, 0, 65, 64
2, 455232, Note_on_c, 0, 82, 80
2, 455232, Note_on_c, 0, 67, 77
2, 455420, Note_off_c, 0, 82, 64
2, 455420, Note_off_c, 0, 67, 64
2, 455424, Note_on_c, 0, 79, 78
2, 455424, Note_on_c, 0, 64, 77
2, 455612, Note_off_c, 0, 79, 64
2, 455612, Note_off_c, 0, 64, 64
2, 455616, Note_on_c, 0, 81, 79
2, 455616, Note_on_c, 0, 65, 77
2, 455804, Note_off_c, 0, 81, 64
2, 455804, Note_off_c, 0, 65, 64
2, 455808, Note_on_c, 0, 77, 77
2, 455808, Note_on_c, 0, 62, 77
2, 455996, Note_off_c, 0, 77, 64
2, 455996, Note_off_c, 0, 62, 64
2, 456000, Note_on_c, 0, 79, 78
2, 456000, Note_on_c, 0, 64, 77
2, 456188, Note_off_c, 0, 79, 64
2, 456188, Note_off_c, 0, 64, 64
2, 456192, Note_on_c, 0, 76, 77
2, 456192, Note_on_c, 0, 60, 77
2, 456380, Note_off_c, 0, 76, 64
2, 456380, Note_off_c, 0, 60, 64
2, 456384, Note_on_c, 0, 87, 77
2, 456384, Note_on_c, 0, 71, 77
2, 456572, Note_off_c, 0, 87, 64
2, 456572, Note_off_c, 0, 71, 64
2, 456576, Note_on_c, 0, 88, 82
2, 456576, Note_on_c, 0, 72, 77
2, 456764, Note_off_c, 0, 88, 64
2, 456764, Note_off_c, 0, 72, 64
2, 456768, Note_on_c, 0, 87, 83
2, 456768, Note_on_c, 0, 71, 77
2, 456956, Note_off_c, 0, 87, 64
2, 456956, Note_off_c, 0, 71, 64
2, 456960, Note_on_c, 0, 89, 84
2, 456960, Note_on_c, 0, 72, 77
2, 457148, Note_off_c, 0, 89, 64
2, 457148, Note_off_c, 0, 72, 64
2, 457152, Note_on_c, 0, 86, 82
2, 457152, Note_on_c, 0, 70, 77
2, 457340, Note_off_c, 0, 86, 64
2, 457340, Note_off_c, 0, 70, 64
2, 457344, Note_on_c, 0, 84, 81
2, 457344, Note_on_c, 0, 69, 77
2, 457532, Note_off_c, 0, 84, 64
2, 457532, Note_off_c, 0, 69, 64
2, 457536, Note_on_c, 0, 82, 80
2, 457536, Note_on_c, 0, 67, 77
2, 457724, Note_off_c, 0, 82, 64
2, 457724, Note_off_c, 0, 67, 64
2, 457728, Note_on_c, 0, 81, 79
2, 457728, Note_on_c, 0, 65, 77
2, 457916, Note_off_c, 0, 81, 64
2, 457916, Note_off_c, 0, 65, 64
2, 457920, Note_on_c, 0, 82, 80
2, 457920, Note_on_c, 0, 67, 77
2, 458108, Note_off_c, 0, 82, 64
2, 458108, Note_off_c, 0, 67, 64
2, 458112, Note_on_c, 0, 79, 78
2, 458112, Note_on_c, 0, 64, 77
2, 458300, Note_off_c, 0, 79, 64
2, 458300, Note_off_c, 0, 64, 64
2, 458304, Note_on_c, 0, 81, 79
2, 458304, Note_on_c, 0, 65, 77
2, 458492, Note_off_c, 0, 81, 64
2, 458492, Note_off_c, 0, 65, 64
2, 458496, Note_on_c, 0, 77, 77
2, 458496, Note_on_c, 0, 62, 77
2, 458684, Note_off_c, 0, 77, 64
2, 458684, Note_off_c, 0, 62, 64
2, 458688, Note_on_c, 0, 79, 78
2, 458688, Note_on_c, 0, 64, 77
2, 458876, Note_off_c, 0, 79, 64
2, 458876, Note_off_c, 0, 64, 64
2, 458880, Note_on_c, 0, 76, 77
2, 458880, Note_on_c, 0, 60, 77
2, 459068, Note_off_c, 0, 76, 64
2, 459068, Note_off_c, 0, 60, 64
2, 459072, Note_on_c, 0, 77, 77
2, 459072, Note_on_c, 0, 62, 77
2, 459260, Note_off_c, 0, 77, 64
2, 459260, Note_off_c, 0, 62, 64
2, 459264, Note_on_c, 0, 70, 72
2, 459264, Note_on_c, 0, 58, 67
2, 459452, Note_off_c, 0, 70, 64
2, 459452, Note_off_c, 0, 58, 64
2, 459456, Note_on_c, 0, 69, 81
2, 459456, Note_on_c, 0, 85, 77
2, 459644, Note_off_c, 0, 69, 64
2, 459644, Note_off_c, 0, 85, 64
2, 459648, Note_on_c, 0, 86, 82
2, 459648, Note_on_c, 0, 70, 77
2, 459836, Note_off_c, 0, 86, 64
2, 459836, Note_off_c, 0, 70, 64
2, 459840, Note_on_c, 0, 85, 81
2, 459840, Note_on_c, 0, 69, 77
2, 460028, Note_off_c, 0, 85, 64
2, 460028, Note_off_c, 0, 69, 64
2, 460032, Note_on_c, 0, 86, 82
2, 460032, Note_on_c, 0, 70, 77
2, 460220, Note_off_c, 0, 86, 64
2, 460220, Note_off_c, 0, 70, 64
2, 460224, Note_on_c, 0, 84, 77
2, 460224, Note_on_c, 0, 69, 77
2, 460412, Note_off_c, 0, 84, 64
2, 460412, Note_off_c, 0, 69, 64
2, 460416, Note_on_c, 0, 82, 77
2, 460416, Note_on_c, 0, 67, 77
2, 460604, Note_off_c, 0, 82, 64
2, 460604, Note_off_c, 0, 67, 64
2, 460608, Note_on_c, 0, 81, 77
2, 460608, Note_on_c, 0, 65, 77
2, 460796, Note_off_c, 0, 81, 64
2, 460796, Note_off_c, 0, 65, 64
2, 460800, Note_on_c, 0, 79, 78
2, 460800, Note_on_c, 0, 64, 77
2, 460988, Note_off_c, 0, 79, 64
2, 460988, Note_off_c, 0, 64, 64
2, 460992, Note_on_c, 0, 82, 80
2, 460992, Note_on_c, 0, 67, 77
2, 461180, Note_off_c, 0, 82, 64
2, 461180, Note_off_c, 0, 67, 64
2, 461184, Note_on_c, 0, 81, 79
2, 461184, Note_on_c, 0, 65, 77
2, 461372, Note_off_c, 0, 81, 64
2, 461372, Note_off_c, 0, 65, 64
2, 461376, Note_on_c, 0, 82, 80
2, 461376, Note_on_c, 0, 67, 77
2, 461564, Note_off_c, 0, 82, 64
2, 461564, Note_off_c, 0, 67, 64
2, 461568, Note_on_c, 0, 79, 78
2, 461756, Note_off_c, 0, 79, 64
2, 461760, Note_on_c, 0, 81, 79
2, 461948, Note_off_c, 0, 81, 64
2, 461952, Note_on_c, 0, 77, 77
2, 462140, Note_off_c, 0, 77, 64
2, 462144, Note_on_c, 0, 79, 78
2, 462332, Note_off_c, 0, 79, 64
2, 462336, Note_on_c, 0, 76, 75
2, 462524, Note_off_c, 0, 76, 64
2, 462528, Note_on_c, 0, 79, 78
2, 462716, Note_off_c, 0, 79, 64
2, 462720, Note_on_c, 0, 77, 77
2, 462908, Note_off_c, 0, 77, 64
2, 462912, Note_on_c, 0, 79, 78
2, 463100, Note_off_c, 0, 79, 64
2, 463104, Note_on_c, 0, 76, 77
2, 463292, Note_off_c, 0, 76, 64
2, 463296, Note_on_c, 0, 79, 78
2, 463484, Note_off_c, 0, 79, 64
2, 463488, Note_on_c, 0, 74, 74
2, 463676, Note_off_c, 0, 74, 64
2, 463680, Note_on_c, 0, 76, 75
2, 463868, Note_off_c, 0, 76, 64
2, 463872, Note_on_c, 0, 73, 77
2, 464060, Note_off_c, 0, 73, 64
2, 464064, Note_on_c, 0, 76, 77
2, 464252, Note_off_c, 0, 76, 64
2, 464256, Note_on_c, 0, 70, 77
2, 464444, Note_off_c, 0, 70, 64
2, 464448, Note_on_c, 0, 79, 78
2, 464636, Note_off_c, 0, 79, 64
2, 464640, Note_on_c, 0, 69, 77
2, 464828, Note_off_c, 0, 69, 64
2, 464832, Note_on_c, 0, 79, 78
2, 465020, Note_off_c, 0, 79, 64
2, 465024, Note_on_c, 0, 67, 77
2, 465212, Note_off_c, 0, 67, 64
2, 465216, Note_on_c, 0, 76, 77
2, 465404, Note_off_c, 0, 76, 64
2, 465408, Note_on_c, 0, 65, 70
2, 465596, Note_off_c, 0, 65, 64
2, 465600, Note_on_c, 0, 69, 72
2, 465788, Note_off_c, 0, 69, 64
2, 465792, Note_on_c, 0, 74, 74
2, 465980, Note_off_c, 0, 74, 64
2, 465984, Note_on_c, 0, 77, 77
2, 466172, Note_off_c, 0, 77, 64
2, 466176, Note_on_c, 0, 81, 79
2, 466556, Note_off_c, 0, 81, 64
2, 466560, Note_on_c, 0, 66, 70
2, 466940, Note_off_c, 0, 66, 64
2, 466944, Note_on_c, 0, 67, 72
2, 467132, Note_off_c, 0, 67, 64
2, 467136, Note_on_c, 0, 70, 73
2, 467324, Note_off_c, 0, 70, 64
2, 467328, Note_on_c, 0, 74, 75
2, 467516, Note_off_c, 0, 74, 64
2, 467520, Note_on_c, 0, 79, 79
2, 467708, Note_off_c, 0, 79, 64
2, 467712, Note_on_c, 0, 82, 82
2, 468092, Note_off_c, 0, 82, 64
2, 468096, Note_on_c, 0, 68, 74
2, 468476, Note_off_c, 0, 68, 64
2, 468480, Note_on_c, 0, 69, 77
2, 468668, Note_off_c, 0, 69, 64
2, 468672, Note_on_c, 0, 74, 77
2, 468860, Note_off_c, 0, 74, 64
2, 468864, Note_on_c, 0, 77, 77
2, 469052, Note_off_c, 0, 77, 64
2, 469056, Note_on_c, 0, 81, 77
2, 469244, Note_off_c, 0, 81, 64
2, 469248, Note_on_c, 0, 86, 77
2, 469628, Note_off_c, 0, 86, 64
2, 469632, Note_on_c, 0, 74, 77
2, 470012, Note_off_c, 0, 74, 64
2, 470016, Note_on_c, 0, 57, 77
2, 470016, Note_on_c, 0, 76, 77
2, 470108, Note_off_c, 0, 76, 64
2, 470112, Note_on_c, 0, 77, 77
2, 470204, Note_off_c, 0, 57, 64
2, 470204, Note_off_c, 0, 77, 64
2, 470208, Note_on_c, 0, 67, 77
2, 470208, Note_on_c, 0, 76, 77
2, 470300, Note_off_c, 0, 76, 64
2, 470304, Note_on_c, 0, 77, 77
2, 470396, Note_off_c, 0, 67, 64
2, 470396, Note_off_c, 0, 77, 64
2, 470400, Note_on_c, 0, 61, 77
2, 470400, Note_on_c, 0, 76, 77
2, 470492, Note_off_c, 0, 76, 64
2, 470496, Note_on_c, 0, 77, 77
2, 470588, Note_off_c, 0, 61, 64
2, 470588, Note_off_c, 0, 77, 64
2, 470592, Note_on_c, 0, 67, 77
2, 470592, Note_on_c, 0, 76, 77
2, 470684, Note_off_c, 0, 76, 64
2, 470688, Note_on_c, 0, 77, 77
2, 470780, Note_off_c, 0, 67, 64
2, 470780, Note_off_c, 0, 77, 64
2, 470784, Note_on_c, 0, 57, 77
2, 470784, Note_on_c, 0, 76, 77
2, 470876, Note_off_c, 0, 76, 64
2, 470880, Note_on_c, 0, 77, 77
2, 470972, Note_off_c, 0, 57, 64
2, 470972, Note_off_c, 0, 77, 64
2, 470976, Note_on_c, 0, 67, 77
2, 470976, Note_on_c, 0, 76, 77
2, 471068, Note_off_c, 0, 76, 64
2, 471072, Note_on_c, 0, 77, 77
2, 471164, Note_off_c, 0, 67, 64
2, 471164, Note_off_c, 0, 77, 64
2, 471168, Note_on_c, 0, 61, 77
2, 471168, Note_on_c, 0, 76, 77
2, 471260, Note_off_c, 0, 76, 64
2, 471264, Note_on_c, 0, 77, 77
2, 471356, Note_off_c, 0, 61, 64
2, 471356, Note_off_c, 0, 77, 64
2, 471360, Note_on_c, 0, 67, 77
2, 471360, Note_on_c, 0, 76, 77
2, 471452, Note_off_c, 0, 76, 64
2, 471456, Note_on_c, 0, 77, 77
2, 471548, Note_off_c, 0, 67, 64
2, 471548, Note_off_c, 0, 77, 64
2, 471552, Note_on_c, 0, 74, 77
2, 471552, Note_on_c, 0, 65, 77
2, 471552, Note_on_c, 0, 62, 77
2, 471932, Note_off_c, 0, 74, 64
2, 471932, Note_off_c, 0, 65, 64
2, 471932, Note_off_c, 0, 62, 64
2, 473088, Note_on_c, 0, 81, 79
2, 473088, Note_on_c, 0, 69, 77
2, 474236, Note_off_c, 0, 81, 64
2, 474236, Note_off_c, 0, 69, 64
2, 474240, Note_on_c, 0, 76, 77
2, 474620, Note_off_c, 0, 76, 64
2, 474624, Note_on_c, 0, 76, 77
2, 475004, Note_off_c, 0, 76, 64
2, 475008, Note_on_c, 0, 77, 77
2, 475196, Note_off_c, 0, 77, 64
2, 475392, Note_on_c, 0, 74, 77
2, 476156, Note_off_c, 0, 74, 64
2, 476160, Note_on_c, 0, 78, 77
2, 476540, Note_off_c, 0, 78, 64
2, 476544, Note_on_c, 0, 79, 78
2, 476732, Note_off_c, 0, 79, 64
2, 476928, Note_on_c, 0, 76, 77
2, 477692, Note_off_c, 0, 76, 64
2, 477696, Note_on_c, 0, 81, 79
2, 477884, Note_off_c, 0, 81, 64
2, 477888, Note_on_c, 0, 80, 78
2, 478076, Note_off_c, 0, 80, 64
2, 478080, Note_on_c, 0, 81, 79
2, 478268, Note_off_c, 0, 81, 64
2, 478272, Note_on_c, 0, 83, 80
2, 478460, Note_off_c, 0, 83, 64
2, 478464, Note_on_c, 0, 81, 79
2, 478844, Note_off_c, 0, 81, 64
2, 479232, Note_on_c, 0, 81, 79
2, 479232, Note_on_c, 0, 69, 77
2, 480380, Note_off_c, 0, 81, 64
2, 480380, Note_off_c, 0, 69, 64
2, 480384, Note_on_c, 0, 76, 77
2, 480764, Note_off_c, 0, 76, 64
2, 480768, Note_on_c, 0, 76, 77
2, 481148, Note_off_c, 0, 76, 64
2, 481152, Note_on_c, 0, 77, 77
2, 481340, Note_off_c, 0, 77, 64
2, 481536, Note_on_c, 0, 74, 77
2, 482684, Note_off_c, 0, 74, 64
2, 482688, Note_on_c, 0, 77, 77
2, 483068, Note_off_c, 0, 77, 64
2, 483072, Note_on_c, 0, 79, 78
2, 483452, Note_off_c, 0, 79, 64
2, 483456, Note_on_c, 0, 76, 77
2, 483836, Note_off_c, 0, 76, 64
2, 483840, Note_on_c, 0, 76, 77
2, 484220, Note_off_c, 0, 76, 64
2, 484224, Note_on_c, 0, 74, 77
2, 484604, Note_off_c, 0, 74, 64
2, 484608, Note_on_c, 0, 74, 77
2, 484796, Note_off_c, 0, 74, 64
2, 485376, Note_on_c, 0, 81, 79
2, 485376, Note_on_c, 0, 64, 77
2, 485564, Note_off_c, 0, 64, 64
2, 485568, Note_on_c, 0, 69, 77
2, 485756, Note_off_c, 0, 69, 64
2, 485760, Note_on_c, 0, 67, 77
2, 485948, Note_off_c, 0, 67, 64
2, 485952, Note_on_c, 0, 69, 77
2, 486140, Note_off_c, 0, 69, 64
2, 486144, Note_on_c, 0, 61, 77
2, 486332, Note_off_c, 0, 61, 64
2, 486336, Note_on_c, 0, 69, 77
2, 486524, Note_off_c, 0, 81, 64
2, 486524, Note_off_c, 0, 69, 64
2, 486528, Note_on_c, 0, 76, 77
2, 486528, Note_on_c, 0, 67, 77
2, 486716, Note_off_c, 0, 67, 64
2, 486720, Note_on_c, 0, 69, 77
2, 486908, Note_off_c, 0, 76, 64
2, 486908, Note_off_c, 0, 69, 64
2, 486912, Note_on_c, 0, 76, 77
2, 486912, Note_on_c, 0, 62, 77
2, 487100, Note_off_c, 0, 62, 64
2, 487104, Note_on_c, 0, 69, 77
2, 487292, Note_off_c, 0, 76, 64
2, 487292, Note_off_c, 0, 69, 64
2, 487296, Note_on_c, 0, 77, 77
2, 487296, Note_on_c, 0, 65, 77
2, 487484, Note_off_c, 0, 77, 64
2, 487484, Note_off_c, 0, 65, 64
2, 487488, Note_on_c, 0, 69, 77
2, 487676, Note_off_c, 0, 69, 64
2, 487680, Note_on_c, 0, 74, 77
2, 487680, Note_on_c, 0, 62, 77
2, 487868, Note_off_c, 0, 62, 64
2, 487872, Note_on_c, 0, 69, 77
2, 488060, Note_off_c, 0, 69, 64
2, 488064, Note_on_c, 0, 66, 77
2, 488252, Note_off_c, 0, 66, 64
2, 488256, Note_on_c, 0, 69, 77
2, 488444, Note_off_c, 0, 74, 64
2, 488444, Note_off_c, 0, 69, 64
2, 488448, Note_on_c, 0, 62, 77
2, 488448, Note_on_c, 0, 78, 77
2, 488636, Note_off_c, 0, 62, 64
2, 488640, Note_on_c, 0, 71, 77
2, 488828, Note_off_c, 0, 78, 64
2, 488828, Note_off_c, 0, 71, 64
2, 488832, Note_on_c, 0, 67, 77
2, 488832, Note_on_c, 0, 79, 78
2, 489020, Note_off_c, 0, 67, 64
2, 489020, Note_off_c, 0, 79, 64
2, 489024, Note_on_c, 0, 71, 77
2, 489212, Note_off_c, 0, 71, 64
2, 489216, Note_on_c, 0, 64, 77
2, 489216, Note_on_c, 0, 76, 77
2, 489404, Note_off_c, 0, 64, 64
2, 489408, Note_on_c, 0, 71, 77
2, 489596, Note_off_c, 0, 71, 64
2, 489600, Note_on_c, 0, 68, 77
2, 489788, Note_off_c, 0, 68, 64
2, 489792, Note_on_c, 0, 71, 77
2, 489980, Note_off_c, 0, 76, 64
2, 489980, Note_off_c, 0, 71, 64
2, 489984, Note_on_c, 0, 81, 79
2, 489984, Note_on_c, 0, 64, 77
2, 490172, Note_off_c, 0, 81, 64
2, 490172, Note_off_c, 0, 64, 64
2, 490176, Note_on_c, 0, 80, 78
2, 490176, Note_on_c, 0, 73, 77
2, 490364, Note_off_c, 0, 80, 64
2, 490364, Note_off_c, 0, 73, 64
2, 490368, Note_on_c, 0, 81, 79
2, 490368, Note_on_c, 0, 69, 77
2, 490556, Note_off_c, 0, 81, 64
2, 490556, Note_off_c, 0, 69, 64
2, 490560, Note_on_c, 0, 83, 80
2, 490560, Note_on_c, 0, 73, 77
2, 490748, Note_off_c, 0, 83, 64
2, 490748, Note_off_c, 0, 73, 64
2, 490752, Note_on_c, 0, 81, 79
2, 490752, Note_on_c, 0, 64, 77
2, 490940, Note_off_c, 0, 81, 64
2, 490940, Note_off_c, 0, 64, 64
2, 490944, Note_on_c, 0, 73, 77
2, 491132, Note_off_c, 0, 73, 64
2, 491136, Note_on_c, 0, 69, 77
2, 491324, Note_off_c, 0, 69, 64
2, 491328, Note_on_c, 0, 73, 77
2, 491516, Note_off_c, 0, 73, 64
2, 491520, Note_on_c, 0, 81, 79
2, 491520, Note_on_c, 0, 61, 77
2, 491708, Note_off_c, 0, 61, 64
2, 491712, Note_on_c, 0, 69, 77
2, 491900, Note_off_c, 0, 69, 64
2, 491904, Note_on_c, 0, 67, 77
2, 492092, Note_off_c, 0, 67, 64
2, 492096, Note_on_c, 0, 69, 77
2, 492284, Note_off_c, 0, 69, 64
2, 492288, Note_on_c, 0, 64, 77
2, 492476, Note_off_c, 0, 64, 64
2, 492480, Note_on_c, 0, 69, 77
2, 492668, Note_off_c, 0, 81, 64
2, 492668, Note_off_c, 0, 69, 64
2, 492672, Note_on_c, 0, 76, 77
2, 492672, Note_on_c, 0, 67, 77
2, 492860, Note_off_c, 0, 67, 64
2, 492864, Note_on_c, 0, 69, 77
2, 493052, Note_off_c, 0, 76, 64
2, 493052, Note_off_c, 0, 69, 64
2, 493056, Note_on_c, 0, 76, 77
2, 493056, Note_on_c, 0, 62, 77
2, 493244, Note_off_c, 0, 62, 64
2, 493248, Note_on_c, 0, 69, 77
2, 493436, Note_off_c, 0, 76, 64
2, 493436, Note_off_c, 0, 69, 64
2, 493440, Note_on_c, 0, 77, 77
2, 493440, Note_on_c, 0, 65, 77
2, 493628, Note_off_c, 0, 77, 64
2, 493628, Note_off_c, 0, 65, 64
2, 493632, Note_on_c, 0, 69, 77
2, 493820, Note_off_c, 0, 69, 64
2, 493824, Note_on_c, 0, 74, 77
2, 493824, Note_on_c, 0, 62, 77
2, 494012, Note_off_c, 0, 62, 64
2, 494016, Note_on_c, 0, 68, 77
2, 494204, Note_off_c, 0, 68, 64
2, 494208, Note_on_c, 0, 65, 77
2, 494396, Note_off_c, 0, 65, 64
2, 494400, Note_on_c, 0, 68, 77
2, 494588, Note_off_c, 0, 68, 64
2, 494592, Note_on_c, 0, 62, 77
2, 494780, Note_off_c, 0, 62, 64
2, 494784, Note_on_c, 0, 69, 77
2, 494972, Note_off_c, 0, 74, 64
2, 494972, Note_off_c, 0, 69, 64
2, 494976, Note_on_c, 0, 77, 77
2, 494976, Note_on_c, 0, 65, 77
2, 495164, Note_off_c, 0, 65, 64
2, 495168, Note_on_c, 0, 69, 77
2, 495356, Note_off_c, 0, 77, 64
2, 495356, Note_off_c, 0, 69, 64
2, 495360, Note_on_c, 0, 79, 79
2, 495360, Note_on_c, 0, 60, 77
2, 495548, Note_off_c, 0, 60, 64
2, 495552, Note_on_c, 0, 69, 77
2, 495740, Note_off_c, 0, 79, 64
2, 495740, Note_off_c, 0, 69, 64
2, 495744, Note_on_c, 0, 76, 77
2, 495744, Note_on_c, 0, 67, 77
2, 495932, Note_off_c, 0, 67, 64
2, 495936, Note_on_c, 0, 70, 77
2, 496124, Note_off_c, 0, 76, 64
2, 496124, Note_off_c, 0, 70, 64
2, 496128, Note_on_c, 0, 65, 77
2, 496128, Note_on_c, 0, 62, 77
2, 496128, Note_on_c, 0, 74, 77
2, 496316, Note_off_c, 0, 74, 64
2, 496320, Note_on_c, 0, 73, 77
2, 496508, Note_off_c, 0, 65, 64
2, 496508, Note_off_c, 0, 62, 64
2, 496508, Note_off_c, 0, 73, 64
2, 496512, Note_on_c, 0, 74, 77
2, 496700, Note_off_c, 0, 74, 64
2, 496704, Note_on_c, 0, 76, 77
2, 496892, Note_off_c, 0, 76, 64
2, 496896, Note_on_c, 0, 77, 77
2, 497084, Note_off_c, 0, 77, 64
2, 497088, Note_on_c, 0, 79, 78
2, 497276, Note_off_c, 0, 79, 64
2, 497280, Note_on_c, 0, 81, 79
2, 497468, Note_off_c, 0, 81, 64
2, 497472, Note_on_c, 0, 77, 77
2, 497660, Note_off_c, 0, 77, 64
2, 497664, Note_on_c, 0, 82, 80
2, 498044, Note_off_c, 0, 82, 64
2, 498048, Note_on_c, 0, 81, 79
2, 498428, Note_off_c, 0, 81, 64
2, 498432, Note_on_c, 0, 79, 78
2, 498812, Note_off_c, 0, 79, 64
2, 498816, Note_on_c, 0, 77, 77
2, 499196, Note_off_c, 0, 77, 64
2, 499200, Note_on_c, 0, 76, 77
2, 499388, Note_off_c, 0, 76, 64
2, 499392, Note_on_c, 0, 88, 83
2, 499580, Note_off_c, 0, 88, 64
2, 499584, Note_on_c, 0, 74, 77
2, 499772, Note_off_c, 0, 74, 64
2, 499776, Note_on_c, 0, 86, 82
2, 499964, Note_off_c, 0, 86, 64
2, 499968, Note_on_c, 0, 72, 77
2, 500156, Note_off_c, 0, 72, 64
2, 500160, Note_on_c, 0, 84, 81
2, 500348, Note_off_c, 0, 84, 64
2, 500352, Note_on_c, 0, 70, 77
2, 500540, Note_off_c, 0, 70, 64
2, 500544, Note_on_c, 0, 82, 80
2, 500732, Note_off_c, 0, 82, 64
2, 500736, Note_on_c, 0, 81, 79
2, 501116, Note_off_c, 0, 81, 64
2, 501120, Note_on_c, 0, 79, 78
2, 501500, Note_off_c, 0, 79, 64
2, 501504, Note_on_c, 0, 77, 77
2, 501884, Note_off_c, 0, 77, 64
2, 501888, Note_on_c, 0, 76, 75
2, 502268, Note_off_c, 0, 76, 64
2, 502272, Note_on_c, 0, 74, 74
2, 502460, Note_off_c, 0, 74, 64
2, 502464, Note_on_c, 0, 86, 82
2, 502652, Note_off_c, 0, 86, 64
2, 502656, Note_on_c, 0, 72, 77
2, 502844, Note_off_c, 0, 72, 64
2, 502848, Note_on_c, 0, 84, 81
2, 503036, Note_off_c, 0, 84, 64
2, 503040, Note_on_c, 0, 70, 77
2, 503228, Note_off_c, 0, 70, 64
2, 503232, Note_on_c, 0, 82, 80
2, 503420, Note_off_c, 0, 82, 64
2, 503424, Note_on_c, 0, 69, 77
2, 503612, Note_off_c, 0, 69, 64
2, 503616, Note_on_c, 0, 81, 79
2, 503804, Note_off_c, 0, 81, 64
2, 503808, Note_on_c, 0, 79, 78
2, 504188, Note_off_c, 0, 79, 64
2, 504192, Note_on_c, 0, 77, 77
2, 504572, Note_off_c, 0, 77, 64
2, 504576, Note_on_c, 0, 76, 75
2, 504956, Note_off_c, 0, 76, 64
2, 504960, Note_on_c, 0, 74, 74
2, 505340, Note_off_c, 0, 74, 64
2, 505344, Note_on_c, 0, 72, 74
2, 505532, Note_off_c, 0, 72, 64
2, 505536, Note_on_c, 0, 85, 81
2, 505724, Note_off_c, 0, 85, 64
2, 505728, Note_on_c, 0, 70, 80
2, 505916, Note_off_c, 0, 70, 64
2, 505920, Note_on_c, 0, 82, 77
2, 506108, Note_off_c, 0, 82, 64
2, 506112, Note_on_c, 0, 69, 79
2, 506300, Note_off_c, 0, 69, 64
2, 506304, Note_on_c, 0, 81, 77
2, 506492, Note_off_c, 0, 81, 64
2, 506496, Note_on_c, 0, 67, 78
2, 506684, Note_off_c, 0, 67, 64
2, 506688, Note_on_c, 0, 79, 77
2, 506876, Note_off_c, 0, 79, 64
2, 506880, Note_on_c, 0, 65, 77
2, 507068, Note_off_c, 0, 65, 64
2, 507072, Note_on_c, 0, 77, 77
2, 507260, Note_off_c, 0, 77, 64
2, 507264, Note_on_c, 0, 64, 77
2, 507452, Note_off_c, 0, 64, 64
2, 507456, Note_on_c, 0, 76, 77
2, 507644, Note_off_c, 0, 76, 64
2, 507648, Note_on_c, 0, 62, 77
2, 507836, Note_off_c, 0, 62, 64
2, 507840, Note_on_c, 0, 74, 77
2, 508028, Note_off_c, 0, 74, 64
2, 508032, Note_on_c, 0, 60, 77
2, 508220, Note_off_c, 0, 60, 64
2, 508224, Note_on_c, 0, 72, 77
2, 508412, Note_off_c, 0, 72, 64
2, 509184, Note_on_c, 0, 59, 77
2, 509372, Note_off_c, 0, 59, 64
2, 509376, Note_on_c, 0, 64, 77
2, 509564, Note_off_c, 0, 64, 64
2, 509568, Note_on_c, 0, 65, 77
2, 509756, Note_off_c, 0, 65, 64
2, 509760, Note_on_c, 0, 68, 77
2, 509948, Note_off_c, 0, 68, 64
2, 509952, Note_on_c, 0, 71, 77
2, 510140, Note_off_c, 0, 71, 64
2, 510144, Note_on_c, 0, 74, 77
2, 510332, Note_off_c, 0, 74, 64
2, 510336, Note_on_c, 0, 77, 77
2, 510524, Note_off_c, 0, 77, 64
2, 510528, Note_on_c, 0, 80, 77
2, 510716, Note_off_c, 0, 80, 64
2, 510720, Note_on_c, 0, 83, 80
2, 510908, Note_off_c, 0, 83, 64
2, 510912, Note_on_c, 0, 86, 82
2, 511100, Note_off_c, 0, 86, 64
2, 511104, Note_on_c, 0, 89, 84
2, 511292, Note_off_c, 0, 89, 64
2, 511296, Note_on_c, 0, 86, 82
2, 511484, Note_off_c, 0, 86, 64
2, 511488, Note_on_c, 0, 83, 80
2, 511676, Note_off_c, 0, 83, 64
2, 511680, Note_on_c, 0, 80, 78
2, 511868, Note_off_c, 0, 80, 64
2, 511872, Note_on_c, 0, 77, 77
2, 512060, Note_off_c, 0, 77, 64
2, 512064, Note_on_c, 0, 74, 77
2, 512252, Note_off_c, 0, 74, 64
2, 512256, Note_on_c, 0, 71, 77
2, 512444, Note_off_c, 0, 71, 64
2, 512448, Note_on_c, 0, 68, 77
2, 512636, Note_off_c, 0, 68, 64
2, 512640, Note_on_c, 0, 65, 77
2, 512828, Note_off_c, 0, 65, 64
2, 512832, Note_on_c, 0, 62, 77
2, 513020, Note_off_c, 0, 62, 64
2, 513024, Note_on_c, 0, 59, 77
2, 513404, Note_off_c, 0, 59, 64
2, 513792, Note_on_c, 0, 86, 82
2, 513792, Note_on_c, 0, 83, 80
2, 513792, Note_on_c, 0, 77, 77
2, 513792, Note_on_c, 0, 74, 74
2, 514172, Note_off_c, 0, 86, 64
2, 514172, Note_off_c, 0, 83, 64
2, 514172, Note_off_c, 0, 77, 64
2, 514172, Note_off_c, 0, 74, 64
2, 514752, Note_on_c, 0, 69, 77
2, 514940, Note_off_c, 0, 69, 64
2, 514944, Note_on_c, 0, 70, 77
2, 515132, Note_off_c, 0, 70, 64
2, 515136, Note_on_c, 0, 69, 77
2, 515324, Note_off_c, 0, 69, 64
2, 515328, Note_on_c, 0, 71, 77
2, 515516, Note_off_c, 0, 71, 64
2, 515520, Note_on_c, 0, 69, 77
2, 515708, Note_off_c, 0, 69, 64
2, 515712, Note_on_c, 0, 72, 77
2, 515900, Note_off_c, 0, 72, 64
2, 515904, Note_on_c, 0, 69, 77
2, 516092, Note_off_c, 0, 69, 64
2, 516096, Note_on_c, 0, 73, 77
2, 516284, Note_off_c, 0, 73, 64
2, 516288, Note_on_c, 0, 69, 77
2, 516476, Note_off_c, 0, 69, 64
2, 516480, Note_on_c, 0, 74, 77
2, 516668, Note_off_c, 0, 74, 64
2, 516672, Note_on_c, 0, 69, 77
2, 516860, Note_off_c, 0, 69, 64
2, 516864, Note_on_c, 0, 75, 77
2, 517052, Note_off_c, 0, 75, 64
2, 517056, Note_on_c, 0, 69, 77
2, 517244, Note_off_c, 0, 69, 64
2, 517248, Note_on_c, 0, 76, 77
2, 517436, Note_off_c, 0, 76, 64
2, 517440, Note_on_c, 0, 69, 77
2, 517628, Note_off_c, 0, 69, 64
2, 517632, Note_on_c, 0, 77, 77
2, 517820, Note_off_c, 0, 77, 64
2, 517824, Note_on_c, 0, 69, 77
2, 518012, Note_off_c, 0, 69, 64
2, 518016, Note_on_c, 0, 78, 77
2, 518204, Note_off_c, 0, 78, 64
2, 518208, Note_on_c, 0, 69, 77
2, 518396, Note_off_c, 0, 69, 64
2, 518400, Note_on_c, 0, 79, 78
2, 518588, Note_off_c, 0, 79, 64
2, 518592, Note_on_c, 0, 69, 77
2, 518780, Note_off_c, 0, 69, 64
2, 518784, Note_on_c, 0, 80, 78
2, 518972, Note_off_c, 0, 80, 64
2, 518976, Note_on_c, 0, 69, 77
2, 519164, Note_off_c, 0, 69, 64
2, 519168, Note_on_c, 0, 81, 79
2, 519356, Note_off_c, 0, 81, 64
2, 519360, Note_on_c, 0, 69, 77
2, 519548, Note_off_c, 0, 69, 64
2, 519552, Note_on_c, 0, 82, 80
2, 519740, Note_off_c, 0, 82, 64
2, 519744, Note_on_c, 0, 69, 77
2, 519932, Note_off_c, 0, 69, 64
2, 519936, Note_on_c, 0, 83, 80
2, 520124, Note_off_c, 0, 83, 64
2, 520128, Note_on_c, 0, 69, 77
2, 520316, Note_off_c, 0, 69, 64
2, 520320, Note_on_c, 0, 84, 81
2, 520508, Note_off_c, 0, 84, 64
2, 520512, Note_on_c, 0, 69, 77
2, 520700, Note_off_c, 0, 69, 64
2, 520704, Note_on_c, 0, 85, 81
2, 521084, Note_off_c, 0, 85, 64
2, 521088, Note_on_c, 0, 69, 77
2, 521468, Note_off_c, 0, 69, 64
2, 521472, Note_on_c, 0, 86, 82
2, 521852, Note_off_c, 0, 86, 64
2, 521856, Note_on_c, 0, 69, 77
2, 522236, Note_off_c, 0, 69, 64
2, 522240, Note_on_c, 0, 88, 83
2, 522620, Note_off_c, 0, 88, 64
2, 522624, Note_on_c, 0, 69, 77
2, 523004, Note_off_c, 0, 69, 64
2, 523008, Note_on_c, 0, 89, 84
2, 523388, Note_off_c, 0, 89, 64
2, 523392, Note_on_c, 0, 74, 77
2, 523772, Note_off_c, 0, 74, 64
2, 523776, Note_on_c, 0, 76, 77
2, 523776, Note_on_c, 0, 57, 77
2, 523868, Note_off_c, 0, 76, 64
2, 523872, Note_on_c, 0, 77, 77
2, 523964, Note_off_c, 0, 57, 64
2, 523964, Note_off_c, 0, 77, 64
2, 523968, Note_on_c, 0, 76, 77
2, 523968, Note_on_c, 0, 67, 77
2, 524060, Note_off_c, 0, 76, 64
2, 524064, Note_on_c, 0, 77, 77
2, 524156, Note_off_c, 0, 67, 64
2, 524156, Note_off_c, 0, 77, 64
2, 524160, Note_on_c, 0, 76, 77
2, 524160, Note_on_c, 0, 61, 77
2, 524252, Note_off_c, 0, 76, 64
2, 524256, Note_on_c, 0, 77, 77
2, 524348, Note_off_c, 0, 61, 64
2, 524348, Note_off_c, 0, 77, 64
2, 524352, Note_on_c, 0, 76, 77
2, 524352, Note_on_c, 0, 67, 77
2, 524444, Note_off_c, 0, 76, 64
2, 524448, Note_on_c, 0, 77, 77
2, 524540, Note_off_c, 0, 67, 64
2, 524540, Note_off_c, 0, 77, 64
2, 524544, Note_on_c, 0, 76, 77
2, 524544, Note_on_c, 0, 57, 77
2, 524636, Note_off_c, 0, 76, 64
2, 524640, Note_on_c, 0, 77, 77
2, 524732, Note_off_c, 0, 57, 64
2, 524732, Note_off_c, 0, 77, 64
2, 524736, Note_on_c, 0, 76, 77
2, 524736, Note_on_c, 0, 67, 77
2, 524828, Note_off_c, 0, 76, 64
2, 524832, Note_on_c, 0, 77, 77
2, 524924, Note_off_c, 0, 67, 64
2, 524924, Note_off_c, 0, 77, 64
2, 524928, Note_on_c, 0, 76, 77
2, 524928, Note_on_c, 0, 61, 77
2, 525020, Note_off_c, 0, 76, 64
2, 525024, Note_on_c, 0, 77, 77
2, 525116, Note_off_c, 0, 61, 64
2, 525116, Note_off_c, 0, 77, 64
2, 525120, Note_on_c, 0, 76, 77
2, 525120, Note_on_c, 0, 67, 77
2, 525212, Note_off_c, 0, 76, 64
2, 525216, Note_on_c, 0, 77, 77
2, 525308, Note_off_c, 0, 67, 64
2, 525308, Note_off_c, 0, 77, 64
2, 525312, Note_on_c, 0, 76, 77
2, 525312, Note_on_c, 0, 57, 77
2, 525404, Note_off_c, 0, 76, 64
2, 525408, Note_on_c, 0, 77, 77
2, 525500, Note_off_c, 0, 57, 64
2, 525500, Note_off_c, 0, 77, 64
2, 525504, Note_on_c, 0, 76, 77
2, 525504, Note_on_c, 0, 67, 77
2, 525596, Note_off_c, 0, 76, 64
2, 525600, Note_on_c, 0, 77, 77
2, 525692, Note_off_c, 0, 67, 64
2, 525692, Note_off_c, 0, 77, 64
2, 525696, Note_on_c, 0, 76, 77
2, 525696, Note_on_c, 0, 61, 77
2, 525788, Note_off_c, 0, 76, 64
2, 525792, Note_on_c, 0, 77, 77
2, 525884, Note_off_c, 0, 61, 64
2, 525884, Note_off_c, 0, 77, 64
2, 525888, Note_on_c, 0, 76, 77
2, 525888, Note_on_c, 0, 67, 77
2, 525980, Note_off_c, 0, 76, 64
2, 525984, Note_on_c, 0, 77, 77
2, 526076, Note_off_c, 0, 67, 64
2, 526076, Note_off_c, 0, 77, 64
2, 526080, Note_on_c, 0, 76, 77
2, 526080, Note_on_c, 0, 57, 77
2, 526172, Note_off_c, 0, 76, 64
2, 526176, Note_on_c, 0, 77, 77
2, 526268, Note_off_c, 0, 57, 64
2, 526268, Note_off_c, 0, 77, 64
2, 526272, Note_on_c, 0, 76, 77
2, 526272, Note_on_c, 0, 67, 77
2, 526364, Note_off_c, 0, 76, 64
2, 526368, Note_on_c, 0, 77, 77
2, 526460, Note_off_c, 0, 67, 64
2, 526460, Note_off_c, 0, 77, 64
2, 526464, Note_on_c, 0, 76, 77
2, 526464, Note_on_c, 0, 61, 77
2, 526556, Note_off_c, 0, 76, 64
2, 526560, Note_on_c, 0, 77, 77
2, 526640, Note_on_c, 0, 67, 77
2, 526652, Note_off_c, 0, 61, 64
2, 526652, Note_off_c, 0, 77, 64
2, 526656, Note_on_c, 0, 74, 77
2, 526748, Note_off_c, 0, 74, 64
2, 526752, Note_on_c, 0, 76, 77
2, 526828, Note_off_c, 0, 67, 64
2, 526844, Note_off_c, 0, 76, 64
2, 526848, Note_on_c, 0, 74, 77
2, 526848, Note_on_c, 0, 65, 77
2, 526848, Note_on_c, 0, 62, 77
2, 526848, Note_on_c, 0, 58, 77
2, 527228, Note_off_c, 0, 74, 64
2, 527228, Note_off_c, 0, 65, 64
2, 527228, Note_off_c, 0, 62, 64
2, 527228, Note_off_c, 0, 58, 64
2, 528384, Note_on_c, 0, 87, 105
2, 528384, Note_on_c, 0, 84, 104
2, 528384, Note_on_c, 0, 77, 100
2, 529148, Note_off_c, 0, 87, 64
2, 529148, Note_off_c, 0, 84, 64
2, 529148, Note_off_c, 0, 77, 64
2, 529152, Note_on_c, 0, 75, 100
2, 529152, Note_on_c, 0, 72, 100
2, 529152, Note_on_c, 0, 65, 100
2, 529724, Note_off_c, 0, 75, 64
2, 529724, Note_off_c, 0, 72, 64
2, 529724, Note_off_c, 0, 65, 64
2, 529728, Note_on_c, 0, 75, 100
2, 529728, Note_on_c, 0, 72, 100
2, 529728, Note_on_c, 0, 65, 100
2, 529916, Note_off_c, 0, 75, 64
2, 529916, Note_off_c, 0, 72, 64
2, 529916, Note_off_c, 0, 65, 64
2, 529920, Note_on_c, 0, 74, 100
2, 529920, Note_on_c, 0, 70, 100
2, 529920, Note_on_c, 0, 65, 100
2, 531452, Note_off_c, 0, 74, 64
2, 531452, Note_off_c, 0, 70, 64
2, 531452, Note_off_c, 0, 65, 64
2, 531456, Note_on_c, 0, 87, 105
2, 531456, Note_on_c, 0, 84, 104
2, 531456, Note_on_c, 0, 78, 100
2, 532220, Note_off_c, 0, 87, 64
2, 532220, Note_off_c, 0, 84, 64
2, 532220, Note_off_c, 0, 78, 64
2, 532224, Note_on_c, 0, 75, 100
2, 532224, Note_on_c, 0, 72, 100
2, 532224, Note_on_c, 0, 66, 100
2, 532796, Note_off_c, 0, 75, 64
2, 532796, Note_off_c, 0, 72, 64
2, 532796, Note_off_c, 0, 66, 64
2, 532800, Note_on_c, 0, 75, 100
2, 532800, Note_on_c, 0, 72, 100
2, 532800, Note_on_c, 0, 66, 100
2, 532988, Note_off_c, 0, 75, 64
2, 532988, Note_off_c, 0, 72, 64
2, 532988, Note_off_c, 0, 66, 64
2, 532992, Note_on_c, 0, 74, 100
2, 532992, Note_on_c, 0, 70, 100
2, 532992, Note_on_c, 0, 67, 100
2, 534524, Note_off_c, 0, 74, 64
2, 534524, Note_off_c, 0, 70, 64
2, 534524, Note_off_c, 0, 67, 64
2, 534528, Note_on_c, 0, 89, 107
2, 534528, Note_on_c, 0, 83, 103
2, 534528, Note_on_c, 0, 80, 101
2, 535292, Note_off_c, 0, 89, 64
2, 535292, Note_off_c, 0, 83, 64
2, 535292, Note_off_c, 0, 80, 64
2, 535296, Note_on_c, 0, 80, 101
2, 535296, Note_on_c, 0, 77, 100
2, 535296, Note_on_c, 0, 74, 100
2, 535868, Note_off_c, 0, 80, 64
2, 535868, Note_off_c, 0, 77, 64
2, 535868, Note_off_c, 0, 74, 64
2, 535872, Note_on_c, 0, 80, 101
2, 535872, Note_on_c, 0, 77, 100
2, 535872, Note_on_c, 0, 71, 100
2, 536060, Note_off_c, 0, 80, 64
2, 536060, Note_off_c, 0, 77, 64
2, 536060, Note_off_c, 0, 71, 64
2, 536064, Note_on_c, 0, 81, 102
2, 536064, Note_on_c, 0, 76, 100
2, 536064, Note_on_c, 0, 69, 100
2, 536444, Note_off_c, 0, 81, 64
2, 536444, Note_off_c, 0, 76, 64
2, 536444, Note_off_c, 0, 69, 64
2, 536448, Note_on_c, 0, 79, 101
2, 536448, Note_on_c, 0, 76, 100
2, 536448, Note_on_c, 0, 69, 100
2, 536828, Note_off_c, 0, 79, 64
2, 536828, Note_off_c, 0, 76, 64
2, 536828, Note_off_c, 0, 69, 64
2, 537216, Note_on_c, 0, 77, 100
2, 537216, Note_on_c, 0, 74, 100
2, 537216, Note_on_c, 0, 69, 100
2, 537596, Note_off_c, 0, 77, 64
2, 537596, Note_off_c, 0, 74, 64
2, 537596, Note_off_c, 0, 69, 64
2, 537984, Note_on_c, 0, 82, 102
2, 537984, Note_on_c, 0, 79, 101
2, 537984, Note_on_c, 0, 74, 100
2, 538364, Note_off_c, 0, 82, 64
2, 538364, Note_off_c, 0, 79, 64
2, 538364, Note_off_c, 0, 74, 64
2, 538752, Note_on_c, 0, 86, 105
2, 538752, Note_on_c, 0, 82, 103
2, 538752, Note_on_c, 0, 77, 100
2, 539132, Note_off_c, 0, 86, 64
2, 539132, Note_off_c, 0, 82, 64
2, 539132, Note_off_c, 0, 77, 64
2, 539136, Note_on_c, 0, 69, 100
2, 540284, Note_off_c, 0, 69, 64
2, 541824, Note_on_c, 0, 62, 84
2, 542012, Note_off_c, 0, 62, 64
2, 542016, Note_on_c, 0, 65, 84
2, 542204, Note_off_c, 0, 65, 64
2, 542208, Note_on_c, 0, 69, 84
2, 542588, Note_off_c, 0, 69, 64
2, 543168, Note_on_c, 0, 62, 84
2, 543356, Note_off_c, 0, 62, 64
2, 543360, Note_on_c, 0, 65, 84
2, 543548, Note_off_c, 0, 65, 64
2, 543552, Note_on_c, 0, 67, 84
2, 543740, Note_off_c, 0, 67, 64
2, 543744, Note_on_c, 0, 74, 84
2, 544124, Note_off_c, 0, 74, 64
2, 544320, Note_on_c, 0, 57, 84
2, 544508, Note_off_c, 0, 57, 64
2, 544512, Note_on_c, 0, 62, 84
2, 544700, Note_off_c, 0, 62, 64
2, 544704, Note_on_c, 0, 65, 84
2, 544892, Note_off_c, 0, 65, 64
2, 544896, Note_on_c, 0, 69, 84
2, 545084, Note_off_c, 0, 69, 64
2, 545088, Note_on_c, 0, 74, 84
2, 545276, Note_off_c, 0, 74, 64
2, 545280, Note_on_c, 0, 77, 84
2, 545468, Note_off_c, 0, 77, 64
2, 545664, Note_on_c, 0, 62, 84
2, 545852, Note_off_c, 0, 62, 64
2, 545856, Note_on_c, 0, 65, 84
2, 546044, Note_off_c, 0, 65, 64
2, 546048, Note_on_c, 0, 69, 84
2, 546236, Note_off_c, 0, 69, 64
2, 546240, Note_on_c, 0, 74, 84
2, 546428, Note_off_c, 0, 74, 64
2, 546432, Note_on_c, 0, 77, 84
2, 546620, Note_off_c, 0, 77, 64
2, 546624, Note_on_c, 0, 81, 86
2, 546816, Note_on_c, 0, 74, 88
2, 546816, Note_on_c, 0, 82, 84
2, 546816, Note_on_c, 0, 77, 81
2, 546820, Note_off_c, 0, 81, 64
2, 548732, Note_off_c, 0, 74, 64
2, 548732, Note_off_c, 0, 77, 64
2, 548732, Note_off_c, 0, 82, 64
2, 548736, Note_on_c, 0, 82, 88
2, 548736, Note_on_c, 0, 77, 84
2, 548736, Note_on_c, 0, 74, 81
2, 549116, Note_off_c, 0, 82, 64
2, 549116, Note_off_c, 0, 77, 64
2, 549116, Note_off_c, 0, 74, 64
2, 549120, Note_on_c, 0, 82, 88
2, 549120, Note_on_c, 0, 77, 84
2, 549120, Note_on_c, 0, 74, 81
2, 549500, Note_off_c, 0, 82, 64
2, 549500, Note_off_c, 0, 77, 64
2, 549500, Note_off_c, 0, 74, 64
2, 549504, Note_on_c, 0, 82, 88
2, 549504, Note_on_c, 0, 77, 84
2, 549504, Note_on_c, 0, 74, 81
2, 549884, Note_off_c, 0, 82, 64
2, 549884, Note_off_c, 0, 77, 64
2, 549884, Note_off_c, 0, 74, 64
2, 549888, Note_on_c, 0, 82, 88
2, 549888, Note_on_c, 0, 79, 85
2, 549888, Note_on_c, 0, 76, 82
2, 549888, Note_on_c, 0, 72, 80
2, 550272, Note_on_c, 0, 60, 73
2, 550460, Note_off_c, 0, 60, 64
2, 550464, Note_on_c, 0, 64, 75
2, 550652, Note_off_c, 0, 82, 64
2, 550652, Note_off_c, 0, 79, 64
2, 550652, Note_off_c, 0, 76, 64
2, 550652, Note_off_c, 0, 72, 64
2, 550652, Note_off_c, 0, 64, 64
2, 550656, Note_on_c, 0, 67, 78
2, 550844, Note_off_c, 0, 67, 64
2, 550848, Note_on_c, 0, 72, 80
2, 551036, Note_off_c, 0, 72, 64
2, 551040, Note_on_c, 0, 76, 82
2, 551228, Note_off_c, 0, 76, 64
2, 551232, Note_on_c, 0, 79, 85
2, 551420, Note_off_c, 0, 79, 64
2, 551424, Note_on_c, 0, 84, 89
2, 551804, Note_off_c, 0, 84, 64
2, 551808, Note_on_c, 0, 82, 88
2, 551808, Note_on_c, 0, 79, 85
2, 551808, Note_on_c, 0, 76, 82
2, 551808, Note_on_c, 0, 72, 80
2, 552188, Note_off_c, 0, 82, 64
2, 552188, Note_off_c, 0, 79, 64
2, 552188, Note_off_c, 0, 76, 64
2, 552188, Note_off_c, 0, 72, 64
2, 552192, Note_on_c, 0, 82, 88
2, 552192, Note_on_c, 0, 79, 85
2, 552192, Note_on_c, 0, 76, 82
2, 552192, Note_on_c, 0, 72, 80
2, 552572, Note_off_c, 0, 82, 64
2, 552572, Note_off_c, 0, 79, 64
2, 552572, Note_off_c, 0, 76, 64
2, 552572, Note_off_c, 0, 72, 64
2, 552576, Note_on_c, 0, 82, 88
2, 552576, Note_on_c, 0, 79, 85
2, 552576, Note_on_c, 0, 76, 82
2, 552576, Note_on_c, 0, 72, 80
2, 552956, Note_off_c, 0, 82, 64
2, 552956, Note_off_c, 0, 79, 64
2, 552956, Note_off_c, 0, 76, 64
2, 552956, Note_off_c, 0, 72, 64
2, 552960, Note_on_c, 0, 81, 85
2, 552960, Note_on_c, 0, 77, 84
2, 552960, Note_on_c, 0, 76, 82
2, 552960, Note_on_c, 0, 72, 80
2, 554876, Note_off_c, 0, 72, 64
2, 554876, Note_off_c, 0, 76, 64
2, 554876, Note_off_c, 0, 77, 64
2, 554876, Note_off_c, 0, 81, 64
2, 554880, Note_on_c, 0, 81, 86
2, 554880, Note_on_c, 0, 77, 84
2, 554880, Note_on_c, 0, 76, 82
2, 554880, Note_on_c, 0, 72, 80
2, 555260, Note_off_c, 0, 81, 64
2, 555260, Note_off_c, 0, 77, 64
2, 555260, Note_off_c, 0, 76, 64
2, 555260, Note_off_c, 0, 72, 64
2, 555264, Note_on_c, 0, 81, 86
2, 555264, Note_on_c, 0, 77, 84
2, 555264, Note_on_c, 0, 76, 82
2, 555264, Note_on_c, 0, 72, 80
2, 555644, Note_off_c, 0, 81, 64
2, 555644, Note_off_c, 0, 77, 64
2, 555644, Note_off_c, 0, 76, 64
2, 555644, Note_off_c, 0, 72, 64
2, 555648, Note_on_c, 0, 81, 86
2, 555648, Note_on_c, 0, 72, 84
2, 555648, Note_on_c, 0, 77, 82
2, 555648, Note_on_c, 0, 76, 80
2, 556028, Note_off_c, 0, 81, 64
2, 556028, Note_off_c, 0, 72, 64
2, 556028, Note_off_c, 0, 77, 64
2, 556028, Note_off_c, 0, 76, 64
2, 556032, Note_on_c, 0, 81, 86
2, 556032, Note_on_c, 0, 77, 84
2, 556032, Note_on_c, 0, 74, 81
2, 556032, Note_on_c, 0, 70, 79
2, 556416, Note_on_c, 0, 58, 72
2, 556604, Note_off_c, 0, 58, 64
2, 556608, Note_on_c, 0, 62, 74
2, 556796, Note_off_c, 0, 81, 64
2, 556796, Note_off_c, 0, 77, 64
2, 556796, Note_off_c, 0, 74, 64
2, 556796, Note_off_c, 0, 70, 64
2, 556796, Note_off_c, 0, 62, 64
2, 556800, Note_on_c, 0, 65, 77
2, 556988, Note_off_c, 0, 65, 64
2, 556992, Note_on_c, 0, 70, 79
2, 557180, Note_off_c, 0, 70, 64
2, 557184, Note_on_c, 0, 74, 81
2, 557372, Note_off_c, 0, 74, 64
2, 557376, Note_on_c, 0, 77, 84
2, 557564, Note_off_c, 0, 77, 64
2, 557568, Note_on_c, 0, 82, 86
2, 557948, Note_off_c, 0, 82, 64
2, 557952, Note_on_c, 0, 81, 86
2, 557952, Note_on_c, 0, 77, 84
2, 557952, Note_on_c, 0, 74, 81
2, 557952, Note_on_c, 0, 70, 79
2, 558332, Note_off_c, 0, 81, 64
2, 558332, Note_off_c, 0, 77, 64
2, 558332, Note_off_c, 0, 74, 64
2, 558332, Note_off_c, 0, 70, 64
2, 558336, Note_on_c, 0, 81, 86
2, 558336, Note_on_c, 0, 77, 84
2, 558336, Note_on_c, 0, 74, 81
2, 558336, Note_on_c, 0, 70, 79
2, 558716, Note_off_c, 0, 81, 64
2, 558716, Note_off_c, 0, 77, 64
2, 558716, Note_off_c, 0, 74, 64
2, 558716, Note_off_c, 0, 70, 64
2, 558720, Note_on_c, 0, 81, 86
2, 558720, Note_on_c, 0, 77, 84
2, 558720, Note_on_c, 0, 74, 81
2, 558720, Note_on_c, 0, 70, 79
2, 559100, Note_off_c, 0, 81, 64
2, 559100, Note_off_c, 0, 77, 64
2, 559100, Note_off_c, 0, 74, 64
2, 559100, Note_off_c, 0, 70, 64
2, 559104, Note_on_c, 0, 79, 85
2, 559104, Note_on_c, 0, 76, 82
2, 559104, Note_on_c, 0, 74, 81
2, 559104, Note_on_c, 0, 70, 79
2, 561020, Note_off_c, 0, 70, 64
2, 561020, Note_off_c, 0, 74, 64
2, 561020, Note_off_c, 0, 76, 64
2, 561020, Note_off_c, 0, 79, 64
2, 561024, Note_on_c, 0, 79, 85
2, 561024, Note_on_c, 0, 74, 82
2, 561024, Note_on_c, 0, 70, 81
2, 561024, Note_on_c, 0, 76, 79
2, 561404, Note_off_c, 0, 79, 64
2, 561404, Note_off_c, 0, 74, 64
2, 561404, Note_off_c, 0, 70, 64
2, 561404, Note_off_c, 0, 76, 64
2, 561408, Note_on_c, 0, 79, 85
2, 561408, Note_on_c, 0, 76, 82
2, 561408, Note_on_c, 0, 74, 81
2, 561408, Note_on_c, 0, 70, 79
2, 561788, Note_off_c, 0, 79, 64
2, 561788, Note_off_c, 0, 76, 64
2, 561788, Note_off_c, 0, 74, 64
2, 561788, Note_off_c, 0, 70, 64
2, 561792, Note_on_c, 0, 79, 85
2, 561792, Note_on_c, 0, 76, 82
2, 561792, Note_on_c, 0, 74, 81
2, 561792, Note_on_c, 0, 70, 79
2, 562172, Note_off_c, 0, 79, 64
2, 562172, Note_off_c, 0, 76, 64
2, 562172, Note_off_c, 0, 74, 64
2, 562172, Note_off_c, 0, 70, 64
2, 562176, Note_on_c, 0, 79, 85
2, 562176, Note_on_c, 0, 76, 82
2, 562176, Note_on_c, 0, 73, 80
2, 562176, Note_on_c, 0, 69, 78
2, 562560, Note_on_c, 0, 57, 72
2, 562748, Note_off_c, 0, 57, 64
2, 562752, Note_on_c, 0, 61, 74
2, 562940, Note_off_c, 0, 79, 64
2, 562940, Note_off_c, 0, 76, 64
2, 562940, Note_off_c, 0, 73, 64
2, 562940, Note_off_c, 0, 69, 64
2, 562940, Note_off_c, 0, 61, 64
2, 562944, Note_on_c, 0, 64, 77
2, 563132, Note_off_c, 0, 64, 64
2, 563136, Note_on_c, 0, 69, 79
2, 563324, Note_off_c, 0, 69, 64
2, 563328, Note_on_c, 0, 73, 81
2, 563516, Note_off_c, 0, 73, 64
2, 563520, Note_on_c, 0, 76, 84
2, 563708, Note_off_c, 0, 76, 64
2, 563712, Note_on_c, 0, 81, 86
2, 564092, Note_off_c, 0, 81, 64
2, 564096, Note_on_c, 0, 79, 85
2, 564096, Note_on_c, 0, 76, 82
2, 564096, Note_on_c, 0, 73, 80
2, 564096, Note_on_c, 0, 69, 78
2, 564476, Note_off_c, 0, 79, 64
2, 564476, Note_off_c, 0, 76, 64
2, 564476, Note_off_c, 0, 73, 64
2, 564476, Note_off_c, 0, 69, 64
2, 564480, Note_on_c, 0, 79, 85
2, 564480, Note_on_c, 0, 76, 82
2, 564480, Note_on_c, 0, 73, 80
2, 564480, Note_on_c, 0, 69, 78
2, 564860, Note_off_c, 0, 79, 64
2, 564860, Note_off_c, 0, 76, 64
2, 564860, Note_off_c, 0, 73, 64
2, 564860, Note_off_c, 0, 69, 64
2, 564864, Note_on_c, 0, 79, 85
2, 564864, Note_on_c, 0, 76, 82
2, 564864, Note_on_c, 0, 73, 80
2, 564864, Note_on_c, 0, 69, 78
2, 565244, Note_off_c, 0, 79, 64
2, 565244, Note_off_c, 0, 76, 64
2, 565244, Note_off_c, 0, 73, 64
2, 565244, Note_off_c, 0, 69, 64
2, 565248, Note_on_c, 0, 77, 84
2, 565436, Note_off_c, 0, 77, 64
2, 565440, Note_on_c, 0, 69, 84
2, 565628, Note_off_c, 0, 69, 64
2, 565632, Note_on_c, 0, 68, 84
2, 565820, Note_off_c, 0, 68, 64
2, 565824, Note_on_c, 0, 69, 84
2, 566012, Note_off_c, 0, 69, 64
2, 566016, Note_on_c, 0, 71, 84
2, 566204, Note_off_c, 0, 71, 64
2, 566208, Note_on_c, 0, 69, 84
2, 566396, Note_off_c, 0, 69, 64
2, 566400, Note_on_c, 0, 73, 84
2, 566588, Note_off_c, 0, 73, 64
2, 566592, Note_on_c, 0, 69, 84
2, 566780, Note_off_c, 0, 69, 64
2, 566784, Note_on_c, 0, 74, 84
2, 566972, Note_off_c, 0, 74, 64
2, 566976, Note_on_c, 0, 69, 84
2, 567164, Note_off_c, 0, 69, 64
2, 567168, Note_on_c, 0, 76, 84
2, 567356, Note_off_c, 0, 76, 64
2, 567360, Note_on_c, 0, 69, 84
2, 567548, Note_off_c, 0, 69, 64
2, 567552, Note_on_c, 0, 77, 84
2, 567740, Note_off_c, 0, 77, 64
2, 567744, Note_on_c, 0, 69, 84
2, 567932, Note_off_c, 0, 69, 64
2, 567936, Note_on_c, 0, 79, 85
2, 568124, Note_off_c, 0, 79, 64
2, 568128, Note_on_c, 0, 69, 84
2, 568316, Note_off_c, 0, 69, 64
2, 568320, Note_on_c, 0, 81, 112
2, 568320, Note_on_c, 0, 65, 110
2, 568320, Note_on_c, 0, 62, 110
2, 569084, Note_off_c, 0, 81, 64
2, 569084, Note_off_c, 0, 65, 64
2, 569084, Note_off_c, 0, 62, 64
2, 569088, Note_on_c, 0, 67, 110
2, 569088, Note_on_c, 0, 64, 110
2, 569088, Note_on_c, 0, 73, 110
2, 569180, Note_off_c, 0, 73, 64
2, 569184, Note_on_c, 0, 74, 110
2, 569276, Note_off_c, 0, 74, 64
2, 569280, Note_on_c, 0, 73, 110
2, 569372, Note_off_c, 0, 73, 64
2, 569376, Note_on_c, 0, 74, 110
2, 569468, Note_off_c, 0, 74, 64
2, 569472, Note_on_c, 0, 73, 110
2, 569564, Note_off_c, 0, 73, 64
2, 569568, Note_on_c, 0, 74, 110
2, 569660, Note_off_c, 0, 74, 64
2, 569664, Note_on_c, 0, 71, 110
2, 569756, Note_off_c, 0, 71, 64
2, 569760, Note_on_c, 0, 73, 110
2, 569852, Note_off_c, 0, 67, 64
2, 569852, Note_off_c, 0, 64, 64
2, 569852, Note_off_c, 0, 73, 64
2, 569856, Note_on_c, 0, 74, 110
2, 569856, Note_on_c, 0, 69, 110
2, 569856, Note_on_c, 0, 65, 110
2, 570620, Note_off_c, 0, 69, 64
2, 570620, Note_off_c, 0, 65, 64
2, 570624, Note_on_c, 0, 72, 110
2, 570624, Note_on_c, 0, 69, 110
2, 571388, Note_off_c, 0, 74, 64
2, 571388, Note_off_c, 0, 72, 64
2, 571388, Note_off_c, 0, 69, 64
2, 571392, Note_on_c, 0, 70, 108
2, 571432, Note_off_c, 0, 70, 64
2, 571440, Note_on_c, 0, 77, 114
2, 571480, Note_off_c, 0, 77, 64
2, 571488, Note_on_c, 0, 84, 121
2, 571528, Note_off_c, 0, 84, 64
2, 571536, Note_on_c, 0, 86, 114
2, 572160, Note_off_c, 0, 86, 64
2, 572160, Note_on_c, 0, 78, 110
2, 572252, Note_off_c, 0, 78, 64
2, 572256, Note_on_c, 0, 79, 110
2, 572348, Note_off_c, 0, 79, 64
2, 572352, Note_on_c, 0, 78, 110
2, 572444, Note_off_c, 0, 78, 64
2, 572448, Note_on_c, 0, 79, 110
2, 572540, Note_off_c, 0, 79, 64
2, 572544, Note_on_c, 0, 78, 110
2, 572636, Note_off_c, 0, 78, 64
2, 572640, Note_on_c, 0, 79, 110
2, 572732, Note_off_c, 0, 79, 64
2, 572736, Note_on_c, 0, 76, 110
2, 572828, Note_off_c, 0, 76, 64
2, 572832, Note_on_c, 0, 78, 110
2, 572924, Note_off_c, 0, 78, 64
2, 572928, Note_on_c, 0, 79, 111
2, 572928, Note_on_c, 0, 74, 110
2, 572928, Note_on_c, 0, 71, 110
2, 573692, Note_off_c, 0, 74, 64
2, 573692, Note_off_c, 0, 71, 64
2, 573696, Note_on_c, 0, 77, 110
2, 573696, Note_on_c, 0, 74, 110
2, 574460, Note_off_c, 0, 79, 64
2, 574460, Note_off_c, 0, 77, 64
2, 574460, Note_off_c, 0, 74, 64
2, 574464, Note_on_c, 0, 67, 111
2, 574504, Note_off_c, 0, 67, 64
2, 574512, Note_on_c, 0, 72, 113
2, 574552, Note_off_c, 0, 72, 64
2, 574560, Note_on_c, 0, 76, 115
2, 574600, Note_off_c, 0, 76, 64
2, 574608, Note_on_c, 0, 79, 110
2, 575232, Note_off_c, 0, 79, 64
2, 575232, Note_on_c, 0, 71, 110
2, 575324, Note_off_c, 0, 71, 64
2, 575328, Note_on_c, 0, 72, 110
2, 575420, Note_off_c, 0, 72, 64
2, 575424, Note_on_c, 0, 71, 110
2, 575516, Note_off_c, 0, 71, 64
2, 575520, Note_on_c, 0, 72, 110
2, 575612, Note_off_c, 0, 72, 64
2, 575616, Note_on_c, 0, 71, 110
2, 575708, Note_off_c, 0, 71, 64
2, 575712, Note_on_c, 0, 72, 110
2, 575804, Note_off_c, 0, 72, 64
2, 575808, Note_on_c, 0, 69, 110
2, 575900, Note_off_c, 0, 69, 64
2, 575904, Note_on_c, 0, 71, 110
2, 575996, Note_off_c, 0, 71, 64
2, 576000, Note_on_c, 0, 72, 110
2, 576000, Note_on_c, 0, 67, 110
2, 576000, Note_on_c, 0, 64, 110
2, 576764, Note_off_c, 0, 72, 64
2, 576764, Note_off_c, 0, 67, 64
2, 576764, Note_off_c, 0, 64, 64
2, 576768, Note_on_c, 0, 70, 110
2, 576768, Note_on_c, 0, 67, 110
2, 577532, Note_off_c, 0, 70, 64
2, 577532, Note_off_c, 0, 67, 64
2, 577536, Note_on_c, 0, 72, 113
2, 577576, Note_off_c, 0, 72, 64
2, 577584, Note_on_c, 0, 77, 115
2, 577624, Note_off_c, 0, 77, 64
2, 577632, Note_on_c, 0, 81, 117
2, 577672, Note_off_c, 0, 81, 64
2, 577680, Note_on_c, 0, 84, 114
2, 578304, Note_off_c, 0, 84, 64
2, 578304, Note_on_c, 0, 70, 110
2, 578304, Note_on_c, 0, 67, 110
2, 578304, Note_on_c, 0, 76, 110
2, 578396, Note_off_c, 0, 76, 64
2, 578400, Note_on_c, 0, 77, 110
2, 578492, Note_off_c, 0, 77, 64
2, 578496, Note_on_c, 0, 76, 110
2, 578588, Note_off_c, 0, 76, 64
2, 578592, Note_on_c, 0, 77, 110
2, 578684, Note_off_c, 0, 77, 64
2, 578688, Note_on_c, 0, 76, 110
2, 578780, Note_off_c, 0, 76, 64
2, 578784, Note_on_c, 0, 77, 110
2, 578876, Note_off_c, 0, 77, 64
2, 578880, Note_on_c, 0, 74, 110
2, 578972, Note_off_c, 0, 74, 64
2, 578976, Note_on_c, 0, 76, 110
2, 579068, Note_off_c, 0, 70, 64
2, 579068, Note_off_c, 0, 67, 64
2, 579068, Note_off_c, 0, 76, 64
2, 579072, Note_on_c, 0, 77, 110
2, 579072, Note_on_c, 0, 72, 110
2, 579072, Note_on_c, 0, 69, 110
2, 579836, Note_off_c, 0, 77, 64
2, 579836, Note_off_c, 0, 72, 64
2, 579836, Note_off_c, 0, 69, 64
2, 579840, Note_on_c, 0, 75, 110
2, 579840, Note_on_c, 0, 72, 110
2, 580604, Note_off_c, 0, 75, 64
2, 580604, Note_off_c, 0, 72, 64
2, 580800, Note_on_c, 0, 74, 99
2, 580988, Note_off_c, 0, 74, 64
2, 580992, Note_on_c, 0, 79, 100
2, 580992, Note_on_c, 0, 70, 99
2, 581180, Note_off_c, 0, 79, 64
2, 581184, Note_on_c, 0, 76, 99
2, 581372, Note_off_c, 0, 70, 64
2, 581372, Note_off_c, 0, 76, 64
2, 581376, Note_on_c, 0, 74, 99
2, 581376, Note_on_c, 0, 69, 99
2, 581564, Note_off_c, 0, 74, 64
2, 581568, Note_on_c, 0, 73, 99
2, 581756, Note_off_c, 0, 69, 64
2, 581756, Note_off_c, 0, 73, 64
2, 581760, Note_on_c, 0, 79, 100
2, 581760, Note_on_c, 0, 70, 99
2, 581948, Note_off_c, 0, 79, 64
2, 581952, Note_on_c, 0, 76, 99
2, 582140, Note_off_c, 0, 70, 64
2, 582140, Note_off_c, 0, 76, 64
2, 582144, Note_on_c, 0, 74, 99
2, 582144, Note_on_c, 0, 69, 99
2, 582332, Note_off_c, 0, 74, 64
2, 582336, Note_on_c, 0, 73, 99
2, 582524, Note_off_c, 0, 69, 64
2, 582524, Note_off_c, 0, 73, 64
2, 582528, Note_on_c, 0, 79, 100
2, 582528, Note_on_c, 0, 70, 99
2, 582716, Note_off_c, 0, 79, 64
2, 582720, Note_on_c, 0, 76, 99
2, 582908, Note_off_c, 0, 70, 64
2, 582908, Note_off_c, 0, 76, 64
2, 582912, Note_on_c, 0, 74, 99
2, 582912, Note_on_c, 0, 69, 99
2, 583100, Note_off_c, 0, 74, 64
2, 583104, Note_on_c, 0, 73, 99
2, 583292, Note_off_c, 0, 69, 64
2, 583292, Note_off_c, 0, 73, 64
2, 583296, Note_on_c, 0, 79, 100
2, 583296, Note_on_c, 0, 70, 99
2, 583484, Note_off_c, 0, 79, 64
2, 583488, Note_on_c, 0, 76, 99
2, 583676, Note_off_c, 0, 70, 64
2, 583676, Note_off_c, 0, 76, 64
2, 583680, Note_on_c, 0, 74, 99
2, 583680, Note_on_c, 0, 69, 99
2, 583868, Note_off_c, 0, 74, 64
2, 583868, Note_off_c, 0, 69, 64
2, 583872, Note_on_c, 0, 73, 99
2, 584060, Note_off_c, 0, 73, 64
2, 584064, Note_on_c, 0, 82, 102
2, 584064, Note_on_c, 0, 74, 99
2, 584252, Note_off_c, 0, 82, 64
2, 584252, Note_off_c, 0, 74, 64
2, 584256, Note_on_c, 0, 79, 99
2, 584444, Note_off_c, 0, 79, 64
2, 584448, Note_on_c, 0, 77, 99
2, 584448, Note_on_c, 0, 73, 99
2, 584636, Note_off_c, 0, 77, 64
2, 584636, Note_off_c, 0, 73, 64
2, 584640, Note_on_c, 0, 76, 99
2, 584828, Note_off_c, 0, 76, 64
2, 584832, Note_on_c, 0, 82, 102
2, 584832, Note_on_c, 0, 74, 99
2, 585020, Note_off_c, 0, 82, 64
2, 585020, Note_off_c, 0, 74, 64
2, 585024, Note_on_c, 0, 79, 99
2, 585212, Note_off_c, 0, 79, 64
2, 585216, Note_on_c, 0, 77, 99
2, 585216, Note_on_c, 0, 73, 99
2, 585404, Note_off_c, 0, 77, 64
2, 585404, Note_off_c, 0, 73, 64
2, 585408, Note_on_c, 0, 77, 99
2, 585596, Note_off_c, 0, 77, 64
2, 585600, Note_on_c, 0, 82, 102
2, 585600, Note_on_c, 0, 74, 99
2, 585788, Note_off_c, 0, 82, 64
2, 585788, Note_off_c, 0, 74, 64
2, 585792, Note_on_c, 0, 79, 99
2, 585980, Note_off_c, 0, 79, 64
2, 585984, Note_on_c, 0, 77, 99
2, 585984, Note_on_c, 0, 73, 99
2, 586172, Note_off_c, 0, 77, 64
2, 586172, Note_off_c, 0, 73, 64
2, 586176, Note_on_c, 0, 76, 99
2, 586364, Note_off_c, 0, 76, 64
2, 586368, Note_on_c, 0, 82, 102
2, 586368, Note_on_c, 0, 74, 99
2, 586556, Note_off_c, 0, 82, 64
2, 586556, Note_off_c, 0, 74, 64
2, 586560, Note_on_c, 0, 79, 99
2, 586748, Note_off_c, 0, 79, 64
2, 586752, Note_on_c, 0, 79, 100
2, 586752, Note_on_c, 0, 73, 99
2, 586940, Note_off_c, 0, 79, 64
2, 586940, Note_off_c, 0, 73, 64
2, 586944, Note_on_c, 0, 76, 97
2, 587132, Note_off_c, 0, 76, 64
2, 587136, Note_on_c, 0, 88, 105
2, 587136, Note_on_c, 0, 79, 100
2, 587324, Note_off_c, 0, 88, 64
2, 587324, Note_off_c, 0, 79, 64
2, 587328, Note_on_c, 0, 82, 102
2, 587516, Note_off_c, 0, 82, 64
2, 587520, Note_on_c, 0, 79, 100
2, 587520, Note_on_c, 0, 73, 99
2, 587708, Note_off_c, 0, 79, 64
2, 587708, Note_off_c, 0, 73, 64
2, 587712, Note_on_c, 0, 76, 97
2, 587900, Note_off_c, 0, 76, 64
2, 587904, Note_on_c, 0, 88, 105
2, 587904, Note_on_c, 0, 79, 100
2, 588092, Note_off_c, 0, 88, 64
2, 588092, Note_off_c, 0, 79, 64
2, 588096, Note_on_c, 0, 82, 102
2, 588284, Note_off_c, 0, 82, 64
2, 588288, Note_on_c, 0, 73, 100
2, 588288, Note_on_c, 0, 79, 99
2, 588476, Note_off_c, 0, 73, 64
2, 588476, Note_off_c, 0, 79, 64
2, 588480, Note_on_c, 0, 76, 97
2, 588668, Note_off_c, 0, 76, 64
2, 588672, Note_on_c, 0, 88, 105
2, 588672, Note_on_c, 0, 79, 100
2, 588860, Note_off_c, 0, 88, 64
2, 588860, Note_off_c, 0, 79, 64
2, 588864, Note_on_c, 0, 82, 99
2, 589052, Note_off_c, 0, 82, 64
2, 589056, Note_on_c, 0, 79, 100
2, 589056, Note_on_c, 0, 73, 99
2, 589244, Note_off_c, 0, 79, 64
2, 589244, Note_off_c, 0, 73, 64
2, 589248, Note_on_c, 0, 76, 97
2, 589436, Note_off_c, 0, 76, 64
2, 589440, Note_on_c, 0, 79, 105
2, 589440, Note_on_c, 0, 88, 100
2, 589628, Note_off_c, 0, 79, 64
2, 589628, Note_off_c, 0, 88, 64
2, 589632, Note_on_c, 0, 82, 99
2, 589820, Note_off_c, 0, 82, 64
2, 589824, Note_on_c, 0, 79, 99
2, 589824, Note_on_c, 0, 73, 99
2, 590012, Note_off_c, 0, 79, 64
2, 590012, Note_off_c, 0, 73, 64
2, 590016, Note_on_c, 0, 76, 99
2, 590204, Note_off_c, 0, 76, 64
2, 590208, Note_on_c, 0, 88, 99
2, 590396, Note_off_c, 0, 88, 64
2, 590400, Note_on_c, 0, 86, 99
2, 590588, Note_off_c, 0, 86, 64
2, 590592, Note_on_c, 0, 85, 99
2, 590780, Note_off_c, 0, 85, 64
2, 590784, Note_on_c, 0, 82, 99
2, 590972, Note_off_c, 0, 82, 64
2, 590976, Note_on_c, 0, 81, 99
2, 591164, Note_off_c, 0, 81, 64
2, 591168, Note_on_c, 0, 80, 99
2, 591356, Note_off_c, 0, 80, 64
2, 591360, Note_on_c, 0, 81, 99
2, 591548, Note_off_c, 0, 81, 64
2, 591552, Note_on_c, 0, 80, 99
2, 591740, Note_off_c, 0, 80, 64
2, 591744, Note_on_c, 0, 81, 99
2, 591932, Note_off_c, 0, 81, 64
2, 591936, Note_on_c, 0, 82, 99
2, 592124, Note_off_c, 0, 82, 64
2, 592128, Note_on_c, 0, 81, 99
2, 592316, Note_off_c, 0, 81, 64
2, 592320, Note_on_c, 0, 79, 99
2, 592508, Note_off_c, 0, 79, 64
2, 592512, Note_on_c, 0, 77, 99
2, 592700, Note_off_c, 0, 77, 64
2, 592704, Note_on_c, 0, 76, 99
2, 592892, Note_off_c, 0, 76, 64
2, 592896, Note_on_c, 0, 77, 99
2, 593084, Note_off_c, 0, 77, 64
2, 593088, Note_on_c, 0, 79, 100
2, 593276, Note_off_c, 0, 79, 64
2, 593280, Note_on_c, 0, 77, 99
2, 593468, Note_off_c, 0, 77, 64
2, 593472, Note_on_c, 0, 76, 99
2, 593660, Note_off_c, 0, 76, 64
2, 593664, Note_on_c, 0, 74, 99
2, 593852, Note_off_c, 0, 74, 64
2, 593856, Note_on_c, 0, 77, 99
2, 594044, Note_off_c, 0, 77, 64
2, 594048, Note_on_c, 0, 79, 100
2, 594236, Note_off_c, 0, 79, 64
2, 594240, Note_on_c, 0, 81, 101
2, 594428, Note_off_c, 0, 81, 64
2, 594432, Note_on_c, 0, 82, 102
2, 594432, Note_on_c, 0, 67, 99
2, 594620, Note_off_c, 0, 82, 64
2, 594620, Note_off_c, 0, 67, 64
2, 594624, Note_on_c, 0, 69, 103
2, 594624, Note_on_c, 0, 84, 99
2, 594812, Note_off_c, 0, 69, 64
2, 594812, Note_off_c, 0, 84, 64
2, 594816, Note_on_c, 0, 65, 101
2, 594816, Note_on_c, 0, 81, 99
2, 595004, Note_off_c, 0, 65, 64
2, 595004, Note_off_c, 0, 81, 64
2, 595008, Note_on_c, 0, 67, 102
2, 595008, Note_on_c, 0, 82, 99
2, 595196, Note_off_c, 0, 67, 64
2, 595196, Note_off_c, 0, 82, 64
2, 595200, Note_on_c, 0, 79, 100
2, 595200, Note_on_c, 0, 64, 99
2, 595388, Note_off_c, 0, 79, 64
2, 595388, Note_off_c, 0, 64, 64
2, 595392, Note_on_c, 0, 65, 102
2, 595392, Note_on_c, 0, 82, 99
2, 595580, Note_off_c, 0, 65, 64
2, 595580, Note_off_c, 0, 82, 64
2, 595584, Note_on_c, 0, 77, 99
2, 595584, Note_on_c, 0, 62, 99
2, 595772, Note_off_c, 0, 77, 64
2, 595772, Note_off_c, 0, 62, 64
2, 595776, Note_on_c, 0, 79, 100
2, 595776, Note_on_c, 0, 64, 99
2, 595964, Note_off_c, 0, 79, 64
2, 595964, Note_off_c, 0, 64, 64
2, 595968, Note_on_c, 0, 76, 99
2, 596156, Note_off_c, 0, 76, 64
2, 596160, Note_on_c, 0, 77, 99
2, 596348, Note_off_c, 0, 77, 64
2, 596352, Note_on_c, 0, 78, 99
2, 596540, Note_off_c, 0, 78, 64
2, 596544, Note_on_c, 0, 79, 100
2, 596732, Note_off_c, 0, 79, 64
2, 596736, Note_on_c, 0, 80, 100
2, 596924, Note_off_c, 0, 80, 64
2, 596928, Note_on_c, 0, 81, 101
2, 597116, Note_off_c, 0, 81, 64
2, 597120, Note_on_c, 0, 84, 103
2, 597308, Note_off_c, 0, 84, 64
2, 597312, Note_on_c, 0, 79, 100
2, 597500, Note_off_c, 0, 79, 64
2, 597504, Note_on_c, 0, 81, 101
2, 597692, Note_off_c, 0, 81, 64
2, 597696, Note_on_c, 0, 82, 102
2, 597884, Note_off_c, 0, 82, 64
2, 597888, Note_on_c, 0, 79, 100
2, 598076, Note_off_c, 0, 79, 64
2, 598080, Note_on_c, 0, 81, 101
2, 598268, Note_off_c, 0, 81, 64
2, 598272, Note_on_c, 0, 77, 99
2, 598460, Note_off_c, 0, 77, 64
2, 598464, Note_on_c, 0, 79, 100
2, 598652, Note_off_c, 0, 79, 64
2, 598656, Note_on_c, 0, 76, 99
2, 598844, Note_off_c, 0, 76, 64
2, 598848, Note_on_c, 0, 77, 99
2, 599036, Note_off_c, 0, 77, 64
2, 599040, Note_on_c, 0, 74, 99
2, 599228, Note_off_c, 0, 74, 64
2, 599232, Note_on_c, 0, 76, 99
2, 599420, Note_off_c, 0, 76, 64
2, 599424, Note_on_c, 0, 77, 99
2, 599612, Note_off_c, 0, 77, 64
2, 599616, Note_on_c, 0, 78, 99
2, 599804, Note_off_c, 0, 78, 64
2, 599808, Note_on_c, 0, 79, 100
2, 599996, Note_off_c, 0, 79, 64
2, 600000, Note_on_c, 0, 80, 100
2, 600188, Note_off_c, 0, 80, 64
2, 600192, Note_on_c, 0, 81, 101
2, 600380, Note_off_c, 0, 81, 64
2, 600384, Note_on_c, 0, 77, 99
2, 600572, Note_off_c, 0, 77, 64
2, 600576, Note_on_c, 0, 79, 100
2, 600764, Note_off_c, 0, 79, 64
2, 600768, Note_on_c, 0, 81, 101
2, 600956, Note_off_c, 0, 81, 64
2, 600960, Note_on_c, 0, 77, 99
2, 601148, Note_off_c, 0, 77, 64
2, 601152, Note_on_c, 0, 79, 100
2, 601340, Note_off_c, 0, 79, 64
2, 601344, Note_on_c, 0, 76, 99
2, 601532, Note_off_c, 0, 76, 64
2, 601536, Note_on_c, 0, 77, 99
2, 601724, Note_off_c, 0, 77, 64
2, 601728, Note_on_c, 0, 74, 99
2, 601916, Note_off_c, 0, 74, 64
2, 601920, Note_on_c, 0, 76, 99
2, 602108, Note_off_c, 0, 76, 64
2, 602112, Note_on_c, 0, 73, 99
2, 602300, Note_off_c, 0, 73, 64
2, 602304, Note_on_c, 0, 74, 99
2, 602492, Note_off_c, 0, 74, 64
2, 602496, Note_on_c, 0, 76, 99
2, 602684, Note_off_c, 0, 76, 64
2, 602688, Note_on_c, 0, 77, 99
2, 602876, Note_off_c, 0, 77, 64
2, 602880, Note_on_c, 0, 79, 100
2, 603068, Note_off_c, 0, 79, 64
2, 603072, Note_on_c, 0, 81, 102
2, 603260, Note_off_c, 0, 81, 64
2, 603264, Note_on_c, 0, 83, 103
2, 603264, Note_on_c, 0, 67, 99
2, 603452, Note_off_c, 0, 83, 64
2, 603456, Note_on_c, 0, 85, 103
2, 603644, Note_off_c, 0, 67, 64
2, 603644, Note_off_c, 0, 85, 64
2, 603648, Note_on_c, 0, 69, 104
2, 603648, Note_on_c, 0, 65, 99
2, 603648, Note_on_c, 0, 86, 99
2, 603836, Note_off_c, 0, 86, 64
2, 603840, Note_on_c, 0, 74, 99
2, 604028, Note_off_c, 0, 69, 64
2, 604028, Note_off_c, 0, 65, 64
2, 604028, Note_off_c, 0, 74, 64
2, 604032, Note_on_c, 0, 67, 103
2, 604032, Note_on_c, 0, 64, 99
2, 604032, Note_on_c, 0, 84, 99
2, 604220, Note_off_c, 0, 84, 64
2, 604224, Note_on_c, 0, 72, 99
2, 604412, Note_off_c, 0, 67, 64
2, 604412, Note_off_c, 0, 64, 64
2, 604412, Note_off_c, 0, 72, 64
2, 604416, Note_on_c, 0, 65, 102
2, 604416, Note_on_c, 0, 62, 99
2, 604416, Note_on_c, 0, 82, 99
2, 604604, Note_off_c, 0, 82, 64
2, 604608, Note_on_c, 0, 70, 99
2, 604796, Note_off_c, 0, 65, 64
2, 604796, Note_off_c, 0, 62, 64
2, 604796, Note_off_c, 0, 70, 64
2, 604800, Note_on_c, 0, 64, 101
2, 604800, Note_on_c, 0, 60, 99
2, 604800, Note_on_c, 0, 81, 99
2, 604988, Note_off_c, 0, 81, 64
2, 604992, Note_on_c, 0, 69, 99
2, 605180, Note_off_c, 0, 64, 64
2, 605180, Note_off_c, 0, 60, 64
2, 605180, Note_off_c, 0, 69, 64
2, 605184, Note_on_c, 0, 79, 100
2, 605372, Note_off_c, 0, 79, 64
2, 605376, Note_on_c, 0, 67, 99
2, 605564, Note_off_c, 0, 67, 64
2, 605568, Note_on_c, 0, 77, 99
2, 605756, Note_off_c, 0, 77, 64
2, 605760, Note_on_c, 0, 65, 99
2, 605948, Note_off_c, 0, 65, 64
2, 605952, Note_on_c, 0, 76, 99
2, 606140, Note_off_c, 0, 76, 64
2, 606144, Note_on_c, 0, 64, 99
2, 606332, Note_off_c, 0, 64, 64
2, 606336, Note_on_c, 0, 74, 99
2, 606524, Note_off_c, 0, 74, 64
2, 606528, Note_on_c, 0, 62, 99
2, 606716, Note_off_c, 0, 62, 64
2, 606720, Note_on_c, 0, 73, 99
2, 606908, Note_off_c, 0, 73, 64
2, 606912, Note_on_c, 0, 61, 99
2, 607100, Note_off_c, 0, 61, 64
2, 607104, Note_on_c, 0, 70, 99
2, 607292, Note_off_c, 0, 70, 64
2, 607296, Note_on_c, 0, 58, 99
2, 607484, Note_off_c, 0, 58, 64
2, 607488, Note_on_c, 0, 69, 99
2, 607676, Note_off_c, 0, 69, 64
2, 607680, Note_on_c, 0, 57, 99
2, 607868, Note_off_c, 0, 57, 64
2, 607872, Note_on_c, 0, 68, 99
2, 608060, Note_off_c, 0, 68, 64
2, 608064, Note_on_c, 0, 56, 99
2, 608252, Note_off_c, 0, 56, 64
2, 608256, Note_on_c, 0, 69, 99
2, 608444, Note_off_c, 0, 69, 64
2, 608448, Note_on_c, 0, 57, 99
2, 608636, Note_off_c, 0, 57, 64
2, 608640, Note_on_c, 0, 67, 99
2, 608828, Note_off_c, 0, 67, 64
2, 608832, Note_on_c, 0, 55, 99
2, 609020, Note_off_c, 0, 55, 64
2, 609024, Note_on_c, 0, 65, 99
2, 609212, Note_off_c, 0, 65, 64
2, 609216, Note_on_c, 0, 53, 99
2, 609404, Note_off_c, 0, 53, 64
2, 609408, Note_on_c, 0, 64, 99
2, 609596, Note_off_c, 0, 64, 64
2, 609600, Note_on_c, 0, 52, 99
2, 609788, Note_off_c, 0, 52, 64
2, 609984, Note_on_c, 0, 53, 84
2, 610172, Note_off_c, 0, 53, 64
2, 610176, Note_on_c, 0, 57, 86
2, 610364, Note_off_c, 0, 57, 64
2, 610368, Note_on_c, 0, 62, 89
2, 610556, Note_off_c, 0, 62, 64
2, 610560, Note_on_c, 0, 65, 91
2, 610748, Note_off_c, 0, 65, 64
2, 610752, Note_on_c, 0, 69, 93
2, 610940, Note_off_c, 0, 69, 64
2, 610944, Note_on_c, 0, 74, 96
2, 611132, Note_off_c, 0, 74, 64
2, 611136, Note_on_c, 0, 77, 99
2, 611324, Note_off_c, 0, 77, 64
2, 611520, Note_on_c, 0, 54, 84
2, 611708, Note_off_c, 0, 54, 64
2, 611712, Note_on_c, 0, 57, 86
2, 611900, Note_off_c, 0, 57, 64
2, 611904, Note_on_c, 0, 62, 89
2, 612092, Note_off_c, 0, 62, 64
2, 612096, Note_on_c, 0, 66, 91
2, 612284, Note_off_c, 0, 66, 64
2, 612288, Note_on_c, 0, 69, 93
2, 612476, Note_off_c, 0, 69, 64
2, 612480, Note_on_c, 0, 74, 96
2, 612668, Note_off_c, 0, 74, 64
2, 612672, Note_on_c, 0, 78, 99
2, 612860, Note_off_c, 0, 78, 64
2, 613056, Note_on_c, 0, 55, 85
2, 613244, Note_off_c, 0, 55, 64
2, 613248, Note_on_c, 0, 59, 88
2, 613436, Note_off_c, 0, 59, 64
2, 613440, Note_on_c, 0, 62, 90
2, 613628, Note_off_c, 0, 62, 64
2, 613632, Note_on_c, 0, 67, 92
2, 613820, Note_off_c, 0, 67, 64
2, 613824, Note_on_c, 0, 71, 94
2, 614012, Note_off_c, 0, 71, 64
2, 614016, Note_on_c, 0, 76, 97
2, 614204, Note_off_c, 0, 76, 64
2, 614208, Note_on_c, 0, 79, 100
2, 614396, Note_off_c, 0, 79, 64
2, 614592, Note_on_c, 0, 56, 85
2, 614780, Note_off_c, 0, 56, 64
2, 614784, Note_on_c, 0, 62, 88
2, 614972, Note_off_c, 0, 62, 64
2, 614976, Note_on_c, 0, 65, 90
2, 615164, Note_off_c, 0, 65, 64
2, 615168, Note_on_c, 0, 68, 92
2, 615356, Note_off_c, 0, 68, 64
2, 615360, Note_on_c, 0, 74, 94
2, 615548, Note_off_c, 0, 74, 64
2, 615552, Note_on_c, 0, 77, 97
2, 615740, Note_off_c, 0, 77, 64
2, 615744, Note_on_c, 0, 80, 100
2, 615932, Note_off_c, 0, 80, 64
2, 615936, Note_on_c, 0, 81, 112
2, 615936, Note_on_c, 0, 77, 110
2, 615936, Note_on_c, 0, 74, 106
2, 615936, Note_on_c, 0, 69, 103
2, 617468, Note_off_c, 0, 81, 64
2, 617468, Note_off_c, 0, 77, 64
2, 617468, Note_off_c, 0, 74, 64
2, 617468, Note_off_c, 0, 69, 64
2, 619200, Note_on_c, 0, 61, 110
2, 619388, Note_off_c, 0, 61, 64
2, 619392, Note_on_c, 0, 62, 110
2, 619580, Note_off_c, 0, 62, 64
2, 619584, Note_on_c, 0, 65, 110
2, 619772, Note_off_c, 0, 65, 64
2, 619776, Note_on_c, 0, 62, 110
2, 619964, Note_off_c, 0, 62, 64
2, 619968, Note_on_c, 0, 65, 110
2, 620156, Note_off_c, 0, 65, 64
2, 620160, Note_on_c, 0, 68, 110
2, 620348, Note_off_c, 0, 68, 64
2, 620352, Note_on_c, 0, 71, 110
2, 620540, Note_off_c, 0, 71, 64
2, 620544, Note_on_c, 0, 69, 110
2, 620544, Note_on_c, 0, 57, 110
2, 620732, Note_off_c, 0, 69, 64
2, 620732, Note_off_c, 0, 57, 64
2, 620736, Note_on_c, 0, 73, 110
2, 620736, Note_on_c, 0, 61, 110
2, 620924, Note_off_c, 0, 73, 64
2, 620924, Note_off_c, 0, 61, 64
2, 620928, Note_on_c, 0, 74, 110
2, 620928, Note_on_c, 0, 62, 110
2, 621116, Note_off_c, 0, 74, 64
2, 621116, Note_off_c, 0, 62, 64
2, 621120, Note_on_c, 0, 77, 110
2, 621120, Note_on_c, 0, 65, 110
2, 621308, Note_off_c, 0, 77, 64
2, 621308, Note_off_c, 0, 65, 64
2, 621312, Note_on_c, 0, 74, 110
2, 621312, Note_on_c, 0, 62, 110
2, 621500, Note_off_c, 0, 74, 64
2, 621500, Note_off_c, 0, 62, 64
2, 621504, Note_on_c, 0, 77, 110
2, 621504, Note_on_c, 0, 65, 110
2, 621692, Note_off_c, 0, 77, 64
2, 621692, Note_off_c, 0, 65, 64
2, 621696, Note_on_c, 0, 80, 111
2, 621696, Note_on_c, 0, 68, 110
2, 621884, Note_off_c, 0, 80, 64
2, 621884, Note_off_c, 0, 68, 64
2, 621888, Note_on_c, 0, 83, 113
2, 621888, Note_on_c, 0, 71, 110
2, 622076, Note_off_c, 0, 83, 64
2, 622076, Note_off_c, 0, 71, 64
2, 622080, Note_on_c, 0, 81, 112
2, 622080, Note_on_c, 0, 69, 110
2, 622268, Note_off_c, 0, 81, 64
2, 622268, Note_off_c, 0, 69, 64
2, 622272, Note_on_c, 0, 85, 114
2, 622272, Note_on_c, 0, 73, 110
2, 622460, Note_off_c, 0, 85, 64
2, 622460, Note_off_c, 0, 73, 64
2, 622464, Note_on_c, 0, 86, 115
2, 622464, Note_on_c, 0, 74, 110
2, 622652, Note_off_c, 0, 86, 64
2, 622652, Note_off_c, 0, 74, 64
2, 622656, Note_on_c, 0, 89, 117
2, 622656, Note_on_c, 0, 77, 110
2, 622844, Note_off_c, 0, 89, 64
2, 622844, Note_off_c, 0, 77, 64
2, 622848, Note_on_c, 0, 88, 116
2, 622848, Note_on_c, 0, 76, 110
2, 623036, Note_off_c, 0, 88, 64
2, 623036, Note_off_c, 0, 76, 64
2, 623040, Note_on_c, 0, 86, 115
2, 623040, Note_on_c, 0, 74, 110
2, 623228, Note_off_c, 0, 86, 64
2, 623228, Note_off_c, 0, 74, 64
2, 623232, Note_on_c, 0, 85, 114
2, 623232, Note_on_c, 0, 73, 110
2, 623420, Note_off_c, 0, 85, 64
2, 623420, Note_off_c, 0, 73, 64
2, 623424, Note_on_c, 0, 86, 115
2, 623424, Note_on_c, 0, 74, 110
2, 623612, Note_off_c, 0, 86, 64
2, 623612, Note_off_c, 0, 74, 64
2, 623616, Note_on_c, 0, 77, 110
2, 623616, Note_on_c, 0, 65, 110
2, 623804, Note_off_c, 0, 77, 64
2, 623804, Note_off_c, 0, 65, 64
2, 623808, Note_on_c, 0, 86, 115
2, 623808, Note_on_c, 0, 74, 110
2, 623996, Note_off_c, 0, 86, 64
2, 623996, Note_off_c, 0, 74, 64
2, 624000, Note_on_c, 0, 85, 114
2, 624000, Note_on_c, 0, 73, 110
2, 624188, Note_off_c, 0, 85, 64
2, 624188, Note_off_c, 0, 73, 64
2, 624192, Note_on_c, 0, 86, 115
2, 624192, Note_on_c, 0, 74, 110
2, 624380, Note_off_c, 0, 86, 64
2, 624380, Note_off_c, 0, 74, 64
2, 624384, Note_on_c, 0, 67, 111
2, 624384, Note_on_c, 0, 79, 110
2, 624572, Note_off_c, 0, 67, 64
2, 624572, Note_off_c, 0, 79, 64
2, 624576, Note_on_c, 0, 86, 115
2, 624576, Note_on_c, 0, 74, 110
2, 624764, Note_off_c, 0, 86, 64
2, 624764, Note_off_c, 0, 74, 64
2, 624768, Note_on_c, 0, 85, 114
2, 624768, Note_on_c, 0, 73, 110
2, 624956, Note_off_c, 0, 85, 64
2, 624956, Note_off_c, 0, 73, 64
2, 624960, Note_on_c, 0, 86, 115
2, 624960, Note_on_c, 0, 74, 110
2, 625148, Note_off_c, 0, 86, 64
2, 625148, Note_off_c, 0, 74, 64
2, 625152, Note_on_c, 0, 81, 112
2, 625152, Note_on_c, 0, 69, 110
2, 625340, Note_off_c, 0, 81, 64
2, 625340, Note_off_c, 0, 69, 64
2, 625344, Note_on_c, 0, 85, 114
2, 625344, Note_on_c, 0, 73, 110
2, 625532, Note_off_c, 0, 85, 64
2, 625532, Note_off_c, 0, 73, 64
2, 625536, Note_on_c, 0, 86, 115
2, 625536, Note_on_c, 0, 74, 110
2, 625724, Note_off_c, 0, 86, 64
2, 625724, Note_off_c, 0, 74, 64
2, 625728, Note_on_c, 0, 89, 117
2, 625728, Note_on_c, 0, 77, 110
2, 625916, Note_off_c, 0, 89, 64
2, 625916, Note_off_c, 0, 77, 64
2, 625920, Note_on_c, 0, 88, 116
2, 625920, Note_on_c, 0, 76, 110
2, 626108, Note_off_c, 0, 88, 64
2, 626108, Note_off_c, 0, 76, 64
2, 626112, Note_on_c, 0, 86, 115
2, 626112, Note_on_c, 0, 74, 110
2, 626300, Note_off_c, 0, 86, 64
2, 626300, Note_off_c, 0, 74, 64
2, 626304, Note_on_c, 0, 85, 114
2, 626304, Note_on_c, 0, 73, 110
2, 626492, Note_off_c, 0, 85, 64
2, 626492, Note_off_c, 0, 73, 64
2, 626496, Note_on_c, 0, 86, 115
2, 626496, Note_on_c, 0, 74, 110
2, 626684, Note_off_c, 0, 86, 64
2, 626684, Note_off_c, 0, 74, 64
2, 626688, Note_on_c, 0, 82, 113
2, 626688, Note_on_c, 0, 70, 110
2, 626876, Note_off_c, 0, 82, 64
2, 626876, Note_off_c, 0, 70, 64
2, 626880, Note_on_c, 0, 86, 115
2, 626880, Note_on_c, 0, 74, 110
2, 627068, Note_off_c, 0, 86, 64
2, 627068, Note_off_c, 0, 74, 64
2, 627072, Note_on_c, 0, 85, 114
2, 627072, Note_on_c, 0, 73, 110
2, 627260, Note_off_c, 0, 85, 64
2, 627260, Note_off_c, 0, 73, 64
2, 627264, Note_on_c, 0, 86, 115
2, 627264, Note_on_c, 0, 74, 110
2, 627452, Note_off_c, 0, 86, 64
2, 627452, Note_off_c, 0, 74, 64
2, 627456, Note_on_c, 0, 80, 111
2, 627456, Note_on_c, 0, 68, 110
2, 627644, Note_off_c, 0, 80, 64
2, 627644, Note_off_c, 0, 68, 64
2, 627648, Note_on_c, 0, 86, 115
2, 627648, Note_on_c, 0, 74, 110
2, 627836, Note_off_c, 0, 86, 64
2, 627836, Note_off_c, 0, 74, 64
2, 627840, Note_on_c, 0, 85, 114
2, 627840, Note_on_c, 0, 73, 110
2, 628028, Note_off_c, 0, 85, 64
2, 628028, Note_off_c, 0, 73, 64
2, 628032, Note_on_c, 0, 86, 115
2, 628032, Note_on_c, 0, 74, 110
2, 628220, Note_off_c, 0, 86, 64
2, 628220, Note_off_c, 0, 74, 64
2, 628224, Note_on_c, 0, 81, 112
2, 628224, Note_on_c, 0, 69, 110
2, 628412, Note_off_c, 0, 81, 64
2, 628412, Note_off_c, 0, 69, 64
2, 628416, Note_on_c, 0, 85, 114
2, 628416, Note_on_c, 0, 73, 110
2, 628604, Note_off_c, 0, 85, 64
2, 628604, Note_off_c, 0, 73, 64
2, 628608, Note_on_c, 0, 86, 115
2, 628608, Note_on_c, 0, 74, 110
2, 628796, Note_off_c, 0, 86, 64
2, 628796, Note_off_c, 0, 74, 64
2, 628800, Note_on_c, 0, 89, 117
2, 628800, Note_on_c, 0, 77, 110
2, 628988, Note_off_c, 0, 89, 64
2, 628988, Note_off_c, 0, 77, 64
2, 628992, Note_on_c, 0, 88, 116
2, 628992, Note_on_c, 0, 76, 110
2, 629180, Note_off_c, 0, 88, 64
2, 629180, Note_off_c, 0, 76, 64
2, 629184, Note_on_c, 0, 86, 115
2, 629184, Note_on_c, 0, 74, 110
2, 629372, Note_off_c, 0, 86, 64
2, 629372, Note_off_c, 0, 74, 64
2, 629376, Note_on_c, 0, 85, 114
2, 629376, Note_on_c, 0, 73, 110
2, 629564, Note_off_c, 0, 85, 64
2, 629564, Note_off_c, 0, 73, 64
2, 629568, Note_on_c, 0, 86, 115
2, 629568, Note_on_c, 0, 74, 110
2, 629756, Note_off_c, 0, 86, 64
2, 629756, Note_off_c, 0, 74, 64
2, 629760, Note_on_c, 0, 77, 110
2, 629760, Note_on_c, 0, 65, 110
2, 629948, Note_off_c, 0, 77, 64
2, 629948, Note_off_c, 0, 65, 64
2, 629952, Note_on_c, 0, 86, 115
2, 629952, Note_on_c, 0, 74, 110
2, 630140, Note_off_c, 0, 86, 64
2, 630140, Note_off_c, 0, 74, 64
2, 630144, Note_on_c, 0, 85, 114
2, 630144, Note_on_c, 0, 73, 110
2, 630332, Note_off_c, 0, 85, 64
2, 630332, Note_off_c, 0, 73, 64
2, 630336, Note_on_c, 0, 86, 115
2, 630336, Note_on_c, 0, 74, 110
2, 630524, Note_off_c, 0, 86, 64
2, 630524, Note_off_c, 0, 74, 64
2, 630528, Note_on_c, 0, 79, 111
2, 630528, Note_on_c, 0, 67, 110
2, 630716, Note_off_c, 0, 79, 64
2, 630716, Note_off_c, 0, 67, 64
2, 630720, Note_on_c, 0, 86, 115
2, 630720, Note_on_c, 0, 74, 110
2, 630908, Note_off_c, 0, 86, 64
2, 630908, Note_off_c, 0, 74, 64
2, 630912, Note_on_c, 0, 85, 114
2, 630912, Note_on_c, 0, 73, 110
2, 631100, Note_off_c, 0, 85, 64
2, 631100, Note_off_c, 0, 73, 64
2, 631104, Note_on_c, 0, 86, 115
2, 631104, Note_on_c, 0, 74, 110
2, 631292, Note_off_c, 0, 86, 64
2, 631292, Note_off_c, 0, 74, 64
2, 631296, Note_on_c, 0, 81, 112
2, 631296, Note_on_c, 0, 69, 110
2, 631484, Note_off_c, 0, 81, 64
2, 631484, Note_off_c, 0, 69, 64
2, 631488, Note_on_c, 0, 85, 114
2, 631488, Note_on_c, 0, 73, 110
2, 631676, Note_off_c, 0, 85, 64
2, 631676, Note_off_c, 0, 73, 64
2, 631680, Note_on_c, 0, 86, 115
2, 631680, Note_on_c, 0, 74, 110
2, 631868, Note_off_c, 0, 86, 64
2, 631868, Note_off_c, 0, 74, 64
2, 631872, Note_on_c, 0, 89, 117
2, 631872, Note_on_c, 0, 77, 110
2, 632060, Note_off_c, 0, 89, 64
2, 632060, Note_off_c, 0, 77, 64
2, 632064, Note_on_c, 0, 88, 116
2, 632064, Note_on_c, 0, 76, 110
2, 632252, Note_off_c, 0, 88, 64
2, 632252, Note_off_c, 0, 76, 64
2, 632256, Note_on_c, 0, 86, 115
2, 632256, Note_on_c, 0, 74, 110
2, 632444, Note_off_c, 0, 86, 64
2, 632444, Note_off_c, 0, 74, 64
2, 632448, Note_on_c, 0, 85, 114
2, 632448, Note_on_c, 0, 73, 110
2, 632636, Note_off_c, 0, 85, 64
2, 632636, Note_off_c, 0, 73, 64
2, 632640, Note_on_c, 0, 86, 115
2, 632640, Note_on_c, 0, 74, 110
2, 632828, Note_off_c, 0, 86, 64
2, 632828, Note_off_c, 0, 74, 64
2, 632832, Note_on_c, 0, 82, 113
2, 632832, Note_on_c, 0, 70, 110
2, 633020, Note_off_c, 0, 82, 64
2, 633020, Note_off_c, 0, 70, 64
2, 633024, Note_on_c, 0, 86, 115
2, 633024, Note_on_c, 0, 74, 110
2, 633212, Note_off_c, 0, 86, 64
2, 633212, Note_off_c, 0, 74, 64
2, 633216, Note_on_c, 0, 85, 114
2, 633216, Note_on_c, 0, 73, 110
2, 633404, Note_off_c, 0, 85, 64
2, 633404, Note_off_c, 0, 73, 64
2, 633408, Note_on_c, 0, 86, 115
2, 633408, Note_on_c, 0, 74, 110
2, 633596, Note_off_c, 0, 86, 64
2, 633596, Note_off_c, 0, 74, 64
2, 633600, Note_on_c, 0, 80, 111
2, 633600, Note_on_c, 0, 68, 110
2, 633788, Note_off_c, 0, 80, 64
2, 633788, Note_off_c, 0, 68, 64
2, 633792, Note_on_c, 0, 86, 115
2, 633792, Note_on_c, 0, 74, 110
2, 633980, Note_off_c, 0, 86, 64
2, 633980, Note_off_c, 0, 74, 64
2, 633984, Note_on_c, 0, 85, 114
2, 633984, Note_on_c, 0, 73, 110
2, 634172, Note_off_c, 0, 85, 64
2, 634172, Note_off_c, 0, 73, 64
2, 634176, Note_on_c, 0, 86, 115
2, 634176, Note_on_c, 0, 74, 110
2, 634364, Note_off_c, 0, 86, 64
2, 634364, Note_off_c, 0, 74, 64
2, 634368, Note_on_c, 0, 81, 112
2, 634368, Note_on_c, 0, 69, 110
2, 634556, Note_off_c, 0, 81, 64
2, 634556, Note_off_c, 0, 69, 64
2, 634560, Note_on_c, 0, 85, 114
2, 634560, Note_on_c, 0, 73, 110
2, 634748, Note_off_c, 0, 85, 64
2, 634748, Note_off_c, 0, 73, 64
2, 634752, Note_on_c, 0, 86, 115
2, 634752, Note_on_c, 0, 74, 110
2, 634940, Note_off_c, 0, 86, 64
2, 634940, Note_off_c, 0, 74, 64
2, 634944, Note_on_c, 0, 89, 117
2, 634944, Note_on_c, 0, 77, 110
2, 635132, Note_off_c, 0, 89, 64
2, 635132, Note_off_c, 0, 77, 64
2, 635136, Note_on_c, 0, 88, 116
2, 635136, Note_on_c, 0, 76, 110
2, 635324, Note_off_c, 0, 88, 64
2, 635324, Note_off_c, 0, 76, 64
2, 635328, Note_on_c, 0, 86, 115
2, 635328, Note_on_c, 0, 74, 110
2, 635516, Note_off_c, 0, 86, 64
2, 635516, Note_off_c, 0, 74, 64
2, 635520, Note_on_c, 0, 85, 114
2, 635520, Note_on_c, 0, 73, 110
2, 635708, Note_off_c, 0, 85, 64
2, 635708, Note_off_c, 0, 73, 64
2, 635712, Note_on_c, 0, 86, 115
2, 635712, Note_on_c, 0, 74, 110
2, 635900, Note_off_c, 0, 86, 64
2, 635900, Note_off_c, 0, 74, 64
2, 635904, Note_on_c, 0, 82, 113
2, 635904, Note_on_c, 0, 70, 110
2, 636092, Note_off_c, 0, 82, 64
2, 636092, Note_off_c, 0, 70, 64
2, 636096, Note_on_c, 0, 86, 115
2, 636096, Note_on_c, 0, 74, 110
2, 636284, Note_off_c, 0, 86, 64
2, 636284, Note_off_c, 0, 74, 64
2, 636288, Note_on_c, 0, 73, 114
2, 636288, Note_on_c, 0, 85, 110
2, 636476, Note_off_c, 0, 73, 64
2, 636476, Note_off_c, 0, 85, 64
2, 636480, Note_on_c, 0, 86, 115
2, 636480, Note_on_c, 0, 74, 110
2, 636668, Note_off_c, 0, 86, 64
2, 636668, Note_off_c, 0, 74, 64
2, 636672, Note_on_c, 0, 80, 111
2, 636672, Note_on_c, 0, 68, 110
2, 636860, Note_off_c, 0, 80, 64
2, 636860, Note_off_c, 0, 68, 64
2, 636864, Note_on_c, 0, 86, 115
2, 636864, Note_on_c, 0, 74, 110
2, 637052, Note_off_c, 0, 86, 64
2, 637052, Note_off_c, 0, 74, 64
2, 637056, Note_on_c, 0, 85, 114
2, 637056, Note_on_c, 0, 73, 110
2, 637244, Note_off_c, 0, 85, 64
2, 637244, Note_off_c, 0, 73, 64
2, 637248, Note_on_c, 0, 86, 115
2, 637248, Note_on_c, 0, 74, 110
2, 637432, Control_c, 0, 64, 127
2, 637436, Note_off_c, 0, 86, 64
2, 637436, Note_off_c, 0, 74, 64
2, 637440, Note_on_c, 0, 81, 114
2, 637440, Note_on_c, 0, 77, 112
2, 637440, Note_on_c, 0, 74, 110
2, 637440, Note_on_c, 0, 69, 107
2, 638968, Control_c, 0, 64, 0
2, 638972, Note_off_c, 0, 81, 64
2, 638972, Note_off_c, 0, 77, 64
2, 638972, Note_off_c, 0, 74, 64
2, 638972, Note_off_c, 0, 69, 64
2, 638976, Note_on_c, 0, 69, 105
2, 639068, Note_off_c, 0, 69, 64
2, 639072, Note_on_c, 0, 71, 106
2, 639164, Note_off_c, 0, 71, 64
2, 639168, Note_on_c, 0, 73, 107
2, 639260, Note_off_c, 0, 73, 64
2, 639264, Note_on_c, 0, 74, 110
2, 639356, Note_off_c, 0, 74, 64
2, 639360, Note_on_c, 0, 76, 111
2, 639452, Note_off_c, 0, 76, 64
2, 639456, Note_on_c, 0, 77, 112
2, 639548, Note_off_c, 0, 77, 64
2, 639552, Note_on_c, 0, 79, 114
2, 639644, Note_off_c, 0, 79, 64
2, 639648, Note_on_c, 0, 81, 115
2, 639740, Note_off_c, 0, 81, 64
2, 639744, Note_on_c, 0, 83, 116
2, 639836, Note_off_c, 0, 83, 64
2, 639840, Note_on_c, 0, 85, 118
2, 639932, Note_off_c, 0, 85, 64
2, 639936, Note_on_c, 0, 86, 119
2, 640028, Note_off_c, 0, 86, 64
2, 640032, Note_on_c, 0, 88, 121
2, 640124, Note_off_c, 0, 88, 64
2, 640128, Note_on_c, 0, 89, 121
2, 640220, Note_off_c, 0, 89, 64
2, 640224, Note_on_c, 0, 88, 121
2, 640316, Note_off_c, 0, 88, 64
2, 640320, Note_on_c, 0, 87, 119
2, 640412, Note_off_c, 0, 87, 64
2, 640416, Note_on_c, 0, 86, 118
2, 640508, Note_off_c, 0, 86, 64
2, 640512, Note_on_c, 0, 85, 118
2, 640604, Note_off_c, 0, 85, 64
2, 640608, Note_on_c, 0, 84, 117
2, 640700, Note_off_c, 0, 84, 64
2, 640704, Note_on_c, 0, 83, 116
2, 640796, Note_off_c, 0, 83, 64
2, 640800, Note_on_c, 0, 82, 116
2, 640892, Note_off_c, 0, 82, 64
2, 640896, Note_on_c, 0, 81, 115
2, 640988, Note_off_c, 0, 81, 64
2, 640992, Note_on_c, 0, 80, 114
2, 641084, Note_off_c, 0, 80, 64
2, 641088, Note_on_c, 0, 79, 113
2, 641180, Note_off_c, 0, 79, 64
2, 641184, Note_on_c, 0, 78, 113
2, 641276, Note_off_c, 0, 78, 64
2, 641280, Note_on_c, 0, 77, 112
2, 641372, Note_off_c, 0, 77, 64
2, 641376, Note_on_c, 0, 76, 111
2, 641468, Note_off_c, 0, 76, 64
2, 641472, Note_on_c, 0, 75, 111
2, 641564, Note_off_c, 0, 75, 64
2, 641568, Note_on_c, 0, 74, 110
2, 641660, Note_off_c, 0, 74, 64
2, 641664, Note_on_c, 0, 72, 108
2, 641756, Note_off_c, 0, 72, 64
2, 641760, Note_on_c, 0, 71, 108
2, 641852, Note_off_c, 0, 71, 64
2, 641856, Note_on_c, 0, 79, 110
2, 641948, Note_off_c, 0, 79, 64
2, 641952, Note_on_c, 0, 76, 106
2, 642044, Note_off_c, 0, 76, 64
2, 642048, Note_on_c, 0, 76, 106
2, 642048, Note_on_c, 0, 74, 106
2, 642088, Note_off_c, 0, 76, 64
2, 642096, Note_on_c, 0, 77, 106
2, 642136, Note_off_c, 0, 77, 64
2, 642144, Note_on_c, 0, 76, 107
2, 642184, Note_off_c, 0, 76, 64
2, 642192, Note_off_c, 0, 74, 64
2, 642192, Note_on_c, 0, 77, 107
2, 642232, Note_off_c, 0, 77, 64
2, 642240, Note_on_c, 0, 76, 107
2, 642240, Note_on_c, 0, 74, 107
2, 642280, Note_off_c, 0, 76, 64
2, 642288, Note_on_c, 0, 77, 107
2, 642328, Note_off_c, 0, 77, 64
2, 642336, Note_on_c, 0, 76, 107
2, 642376, Note_off_c, 0, 76, 64
2, 642384, Note_off_c, 0, 74, 64
2, 642384, Note_on_c, 0, 77, 107
2, 642424, Note_off_c, 0, 77, 0
2, 642432, Note_on_c, 0, 76, 107
2, 642432, Note_on_c, 0, 74, 107
2, 642472, Note_off_c, 0, 76, 64
2, 642480, Note_on_c, 0, 77, 107
2, 642520, Note_off_c, 0, 77, 64
2, 642528, Note_on_c, 0, 76, 107
2, 642568, Note_off_c, 0, 76, 64
2, 642576, Note_off_c, 0, 74, 64
2, 642576, Note_on_c, 0, 77, 107
2, 642616, Note_off_c, 0, 77, 64
2, 642624, Note_on_c, 0, 76, 107
2, 642624, Note_on_c, 0, 74, 107
2, 642664, Note_off_c, 0, 76, 64
2, 642672, Note_on_c, 0, 77, 107
2, 642712, Note_off_c, 0, 77, 64
2, 642720, Note_on_c, 0, 76, 107
2, 642760, Note_off_c, 0, 76, 64
2, 642768, Note_off_c, 0, 74, 64
2, 642768, Note_on_c, 0, 77, 107
2, 642808, Note_off_c, 0, 77, 64
2, 642816, Note_on_c, 0, 76, 107
2, 642816, Note_on_c, 0, 74, 107
2, 642856, Note_off_c, 0, 76, 64
2, 642864, Note_on_c, 0, 77, 107
2, 642904, Note_off_c, 0, 77, 64
2, 642912, Note_on_c, 0, 76, 108
2, 642952, Note_off_c, 0, 76, 64
2, 642960, Note_off_c, 0, 74, 64
2, 642960, Note_on_c, 0, 77, 108
2, 643000, Note_off_c, 0, 77, 64
2, 643008, Note_on_c, 0, 74, 108
2, 643008, Note_on_c, 0, 76, 108
2, 643048, Note_off_c, 0, 76, 64
2, 643056, Note_on_c, 0, 77, 108
2, 643096, Note_off_c, 0, 77, 64
2, 643104, Note_on_c, 0, 76, 108
2, 643144, Note_off_c, 0, 76, 64
2, 643152, Note_off_c, 0, 74, 64
2, 643152, Note_on_c, 0, 77, 108
2, 643192, Note_off_c, 0, 77, 64
2, 643200, Note_on_c, 0, 76, 108
2, 643200, Note_on_c, 0, 74, 108
2, 643240, Note_off_c, 0, 76, 64
2, 643248, Note_on_c, 0, 77, 108
2, 643288, Note_off_c, 0, 77, 64
2, 643296, Note_on_c, 0, 76, 108
2, 643336, Note_off_c, 0, 76, 64
2, 643344, Note_off_c, 0, 74, 64
2, 643344, Note_on_c, 0, 77, 108
2, 643384, Note_off_c, 0, 77, 64
2, 643392, Note_on_c, 0, 74, 108
2, 643392, Note_on_c, 0, 76, 108
2, 643432, Note_off_c, 0, 76, 64
2, 643440, Note_on_c, 0, 77, 108
2, 643480, Note_off_c, 0, 77, 64
2, 643488, Note_on_c, 0, 76, 108
2, 643528, Note_off_c, 0, 76, 64
2, 643536, Note_off_c, 0, 74, 64
2, 643536, Note_on_c, 0, 77, 108
2, 643576, Note_off_c, 0, 77, 64
2, 643584, Note_on_c, 0, 76, 108
2, 643584, Note_on_c, 0, 73, 108
2, 643624, Note_off_c, 0, 76, 64
2, 643632, Note_on_c, 0, 77, 108
2, 643672, Note_off_c, 0, 77, 64
2, 643680, Note_on_c, 0, 76, 108
2, 643720, Note_off_c, 0, 76, 64
2, 643728, Note_on_c, 0, 77, 110
2, 643768, Note_off_c, 0, 77, 64
2, 643776, Note_on_c, 0, 76, 110
2, 643816, Note_off_c, 0, 76, 64
2, 643824, Note_on_c, 0, 77, 110
2, 643864, Note_off_c, 0, 77, 64
2, 643872, Note_on_c, 0, 76, 110
2, 643912, Note_off_c, 0, 76, 64
2, 643920, Note_on_c, 0, 77, 110
2, 643960, Note_off_c, 0, 77, 64
2, 643968, Note_on_c, 0, 76, 110
2, 644008, Note_off_c, 0, 76, 64
2, 644016, Note_on_c, 0, 77, 110
2, 644056, Note_off_c, 0, 77, 64
2, 644064, Note_on_c, 0, 76, 110
2, 644104, Note_off_c, 0, 76, 64
2, 644112, Note_on_c, 0, 77, 110
2, 644152, Note_off_c, 0, 77, 64
2, 644160, Note_on_c, 0, 76, 110
2, 644200, Note_off_c, 0, 76, 64
2, 644208, Note_on_c, 0, 77, 110
2, 644248, Note_off_c, 0, 77, 64
2, 644256, Note_on_c, 0, 76, 110
2, 644296, Note_off_c, 0, 76, 64
2, 644304, Note_on_c, 0, 77, 110
2, 644344, Note_off_c, 0, 77, 64
2, 644352, Note_on_c, 0, 76, 110
2, 644392, Note_off_c, 0, 76, 64
2, 644400, Note_on_c, 0, 77, 110
2, 644440, Note_off_c, 0, 77, 64
2, 644448, Note_on_c, 0, 76, 110
2, 644488, Note_off_c, 0, 76, 64
2, 644496, Note_on_c, 0, 77, 111
2, 644536, Note_off_c, 0, 77, 64
2, 644544, Note_on_c, 0, 76, 111
2, 644584, Note_off_c, 0, 76, 64
2, 644592, Note_on_c, 0, 77, 111
2, 644632, Note_off_c, 0, 77, 64
2, 644640, Note_on_c, 0, 76, 111
2, 644680, Note_off_c, 0, 76, 64
2, 644688, Note_on_c, 0, 77, 111
2, 644728, Note_off_c, 0, 77, 64
2, 644736, Note_on_c, 0, 76, 111
2, 644776, Note_off_c, 0, 76, 64
2, 644784, Note_on_c, 0, 77, 111
2, 644824, Note_off_c, 0, 77, 64
2, 644832, Note_on_c, 0, 76, 111
2, 644872, Note_off_c, 0, 76, 64
2, 644880, Note_on_c, 0, 77, 111
2, 644920, Note_off_c, 0, 77, 64
2, 644928, Note_on_c, 0, 76, 111
2, 644968, Note_off_c, 0, 76, 64
2, 644976, Note_on_c, 0, 77, 111
2, 645016, Note_off_c, 0, 77, 64
2, 645024, Note_on_c, 0, 76, 111
2, 645064, Note_off_c, 0, 76, 64
2, 645072, Note_on_c, 0, 77, 111
2, 645112, Note_off_c, 0, 77, 64
2, 645120, Note_on_c, 0, 76, 111
2, 645120, Note_on_c, 0, 73, 111
2, 645160, Note_off_c, 0, 76, 64
2, 645168, Note_on_c, 0, 77, 111
2, 645208, Note_off_c, 0, 77, 64
2, 645216, Note_on_c, 0, 76, 111
2, 645256, Note_off_c, 0, 76, 64
2, 645264, Note_on_c, 0, 77, 111
2, 645304, Note_off_c, 0, 77, 64
2, 645312, Note_on_c, 0, 76, 112
2, 645352, Note_off_c, 0, 76, 64
2, 645360, Note_on_c, 0, 77, 112
2, 645400, Note_off_c, 0, 77, 64
2, 645408, Note_on_c, 0, 76, 112
2, 645448, Note_off_c, 0, 76, 64
2, 645456, Note_on_c, 0, 77, 112
2, 645496, Note_off_c, 0, 77, 64
2, 645504, Note_on_c, 0, 76, 112
2, 645544, Note_off_c, 0, 76, 64
2, 645552, Note_on_c, 0, 77, 112
2, 645592, Note_off_c, 0, 77, 64
2, 645600, Note_on_c, 0, 76, 112
2, 645640, Note_off_c, 0, 76, 64
2, 645648, Note_on_c, 0, 77, 112
2, 645688, Note_off_c, 0, 77, 64
2, 645696, Note_on_c, 0, 76, 112
2, 645736, Note_off_c, 0, 76, 64
2, 645744, Note_on_c, 0, 77, 112
2, 645784, Note_off_c, 0, 77, 64
2, 645792, Note_on_c, 0, 76, 112
2, 645832, Note_off_c, 0, 76, 64
2, 645840, Note_on_c, 0, 77, 112
2, 645880, Note_off_c, 0, 77, 64
2, 645888, Note_on_c, 0, 76, 112
2, 645928, Note_off_c, 0, 76, 64
2, 645936, Note_on_c, 0, 77, 112
2, 645976, Note_off_c, 0, 77, 64
2, 645984, Note_on_c, 0, 76, 112
2, 646024, Note_off_c, 0, 76, 64
2, 646032, Note_on_c, 0, 77, 112
2, 646072, Note_off_c, 0, 77, 64
2, 646080, Note_on_c, 0, 76, 113
2, 646120, Note_off_c, 0, 76, 64
2, 646128, Note_on_c, 0, 77, 113
2, 646168, Note_off_c, 0, 77, 64
2, 646176, Note_on_c, 0, 76, 113
2, 646216, Note_off_c, 0, 76, 64
2, 646224, Note_on_c, 0, 77, 113
2, 646264, Note_off_c, 0, 77, 64
2, 646272, Note_on_c, 0, 76, 113
2, 646312, Note_off_c, 0, 76, 64
2, 646320, Note_on_c, 0, 77, 113
2, 646360, Note_off_c, 0, 77, 64
2, 646368, Note_on_c, 0, 76, 113
2, 646408, Note_off_c, 0, 76, 64
2, 646416, Note_on_c, 0, 77, 113
2, 646456, Note_off_c, 0, 77, 64
2, 646464, Note_on_c, 0, 76, 113
2, 646504, Note_off_c, 0, 76, 64
2, 646512, Note_on_c, 0, 77, 113
2, 646552, Note_off_c, 0, 77, 64
2, 646560, Note_on_c, 0, 76, 113
2, 646600, Note_off_c, 0, 76, 64
2, 646608, Note_on_c, 0, 77, 113
2, 646648, Note_off_c, 0, 77, 64
2, 646652, Note_off_c, 0, 73, 64
2, 646656, Note_on_c, 0, 76, 113
2, 646656, Note_on_c, 0, 73, 113
2, 646696, Note_off_c, 0, 76, 64
2, 646704, Note_on_c, 0, 77, 113
2, 646744, Note_off_c, 0, 77, 64
2, 646752, Note_on_c, 0, 76, 113
2, 646792, Note_off_c, 0, 76, 64
2, 646800, Note_on_c, 0, 77, 113
2, 646840, Note_off_c, 0, 77, 64
2, 646848, Note_on_c, 0, 76, 114
2, 646888, Note_off_c, 0, 76, 64
2, 646896, Note_on_c, 0, 77, 114
2, 646936, Note_off_c, 0, 77, 64
2, 646944, Note_on_c, 0, 76, 114
2, 646984, Note_off_c, 0, 76, 64
2, 646992, Note_on_c, 0, 77, 114
2, 647032, Note_off_c, 0, 77, 64
2, 647040, Note_on_c, 0, 76, 114
2, 647080, Note_off_c, 0, 76, 64
2, 647088, Note_on_c, 0, 77, 114
2, 647128, Note_off_c, 0, 77, 64
2, 647136, Note_on_c, 0, 76, 114
2, 647176, Note_off_c, 0, 76, 64
2, 647184, Note_on_c, 0, 77, 114
2, 647224, Note_off_c, 0, 77, 64
2, 647232, Note_on_c, 0, 76, 114
2, 647272, Note_off_c, 0, 76, 64
2, 647280, Note_on_c, 0, 77, 114
2, 647320, Note_off_c, 0, 77, 64
2, 647328, Note_on_c, 0, 76, 114
2, 647368, Note_off_c, 0, 76, 64
2, 647376, Note_on_c, 0, 77, 114
2, 647416, Note_off_c, 0, 77, 64
2, 647424, Note_on_c, 0, 76, 114
2, 647464, Note_off_c, 0, 76, 64
2, 647472, Note_on_c, 0, 77, 114
2, 647512, Note_off_c, 0, 77, 64
2, 647520, Note_on_c, 0, 76, 114
2, 647560, Note_off_c, 0, 76, 64
2, 647568, Note_on_c, 0, 77, 114
2, 647608, Note_off_c, 0, 77, 64
2, 647616, Note_on_c, 0, 76, 114
2, 647656, Note_off_c, 0, 76, 64
2, 647664, Note_on_c, 0, 77, 115
2, 647704, Note_off_c, 0, 77, 64
2, 647712, Note_on_c, 0, 76, 115
2, 647752, Note_off_c, 0, 76, 64
2, 647760, Note_on_c, 0, 77, 115
2, 647800, Note_off_c, 0, 77, 64
2, 647808, Note_on_c, 0, 76, 115
2, 647848, Note_off_c, 0, 76, 64
2, 647856, Note_on_c, 0, 77, 115
2, 647896, Note_off_c, 0, 77, 64
2, 647904, Note_on_c, 0, 76, 115
2, 647944, Note_off_c, 0, 76, 64
2, 647952, Note_on_c, 0, 77, 115
2, 647992, Note_off_c, 0, 77, 64
2, 648000, Note_on_c, 0, 76, 115
2, 648040, Note_off_c, 0, 76, 64
2, 648048, Note_on_c, 0, 77, 115
2, 648088, Note_off_c, 0, 77, 64
2, 648096, Note_on_c, 0, 76, 115
2, 648136, Note_off_c, 0, 76, 64
2, 648144, Note_on_c, 0, 77, 115
2, 648184, Note_off_c, 0, 77, 64
2, 648188, Note_off_c, 0, 73, 64
2, 648192, Note_on_c, 0, 76, 115
2, 648192, Note_on_c, 0, 73, 115
2, 648232, Note_off_c, 0, 76, 64
2, 648240, Note_on_c, 0, 77, 115
2, 648280, Note_off_c, 0, 77, 64
2, 648288, Note_on_c, 0, 76, 115
2, 648328, Note_off_c, 0, 76, 64
2, 648336, Note_on_c, 0, 77, 115
2, 648376, Note_off_c, 0, 77, 64
2, 648384, Note_on_c, 0, 76, 115
2, 648424, Note_off_c, 0, 76, 64
2, 648432, Note_on_c, 0, 77, 116
2, 648472, Note_off_c, 0, 77, 64
2, 648480, Note_on_c, 0, 76, 116
2, 648520, Note_off_c, 0, 76, 64
2, 648528, Note_on_c, 0, 77, 116
2, 648568, Note_off_c, 0, 77, 64
2, 648576, Note_on_c, 0, 76, 116
2, 648616, Note_off_c, 0, 76, 64
2, 648624, Note_on_c, 0, 77, 116
2, 648664, Note_off_c, 0, 77, 64
2, 648672, Note_on_c, 0, 76, 116
2, 648712, Note_off_c, 0, 76, 64
2, 648720, Note_on_c, 0, 77, 116
2, 648760, Note_off_c, 0, 77, 64
2, 648768, Note_on_c, 0, 76, 116
2, 648808, Note_off_c, 0, 76, 64
2, 648816, Note_on_c, 0, 77, 116
2, 648856, Note_off_c, 0, 77, 64
2, 648864, Note_on_c, 0, 76, 116
2, 648904, Note_off_c, 0, 76, 64
2, 648912, Note_on_c, 0, 77, 116
2, 648952, Note_off_c, 0, 77, 64
2, 648960, Note_on_c, 0, 76, 116
2, 649000, Note_off_c, 0, 76, 64
2, 649008, Note_on_c, 0, 77, 116
2, 649048, Note_off_c, 0, 77, 64
2, 649056, Note_on_c, 0, 76, 116
2, 649096, Note_off_c, 0, 76, 64
2, 649104, Note_on_c, 0, 77, 116
2, 649144, Note_off_c, 0, 77, 64
2, 649152, Note_on_c, 0, 76, 116
2, 649192, Note_off_c, 0, 76, 64
2, 649200, Note_on_c, 0, 77, 116
2, 649240, Note_off_c, 0, 77, 64
2, 649248, Note_on_c, 0, 76, 117
2, 649288, Note_off_c, 0, 76, 64
2, 649296, Note_on_c, 0, 77, 117
2, 649336, Note_off_c, 0, 77, 64
2, 649344, Note_on_c, 0, 76, 117
2, 649384, Note_off_c, 0, 76, 64
2, 649392, Note_on_c, 0, 77, 117
2, 649432, Note_off_c, 0, 77, 64
2, 649440, Note_on_c, 0, 76, 117
2, 649480, Note_off_c, 0, 76, 64
2, 649488, Note_on_c, 0, 77, 117
2, 649528, Note_off_c, 0, 77, 64
2, 649536, Note_on_c, 0, 76, 117
2, 649576, Note_off_c, 0, 76, 64
2, 649584, Note_on_c, 0, 77, 117
2, 649624, Note_off_c, 0, 77, 64
2, 649632, Note_on_c, 0, 76, 117
2, 649672, Note_off_c, 0, 76, 64
2, 649680, Note_on_c, 0, 77, 117
2, 649720, Note_off_c, 0, 77, 64
2, 649724, Note_off_c, 0, 73, 64
2, 649728, Note_on_c, 0, 76, 117
2, 649728, Note_on_c, 0, 73, 117
2, 649768, Note_off_c, 0, 76, 64
2, 649776, Note_on_c, 0, 77, 117
2, 649816, Note_off_c, 0, 77, 64
2, 649824, Note_on_c, 0, 76, 117
2, 649864, Note_off_c, 0, 76, 64
2, 649872, Note_on_c, 0, 77, 117
2, 649912, Note_off_c, 0, 77, 64
2, 649920, Note_on_c, 0, 76, 117
2, 649960, Note_off_c, 0, 76, 64
2, 649968, Note_on_c, 0, 77, 117
2, 650008, Note_off_c, 0, 77, 64
2, 650016, Note_on_c, 0, 76, 118
2, 650056, Note_off_c, 0, 76, 64
2, 650064, Note_on_c, 0, 77, 118
2, 650104, Note_off_c, 0, 77, 64
2, 650112, Note_on_c, 0, 76, 118
2, 650152, Note_off_c, 0, 76, 64
2, 650160, Note_on_c, 0, 77, 118
2, 650200, Note_off_c, 0, 77, 64
2, 650208, Note_on_c, 0, 76, 118
2, 650248, Note_off_c, 0, 76, 64
2, 650256, Note_on_c, 0, 77, 118
2, 650296, Note_off_c, 0, 77, 64
2, 650304, Note_on_c, 0, 76, 118
2, 650344, Note_off_c, 0, 76, 64
2, 650352, Note_on_c, 0, 77, 118
2, 650392, Note_off_c, 0, 77, 64
2, 650400, Note_on_c, 0, 76, 118
2, 650440, Note_off_c, 0, 76, 64
2, 650448, Note_on_c, 0, 77, 118
2, 650488, Note_off_c, 0, 77, 64
2, 650496, Note_on_c, 0, 76, 118
2, 650536, Note_off_c, 0, 76, 64
2, 650544, Note_on_c, 0, 77, 118
2, 650584, Note_off_c, 0, 77, 64
2, 650592, Note_on_c, 0, 76, 118
2, 650632, Note_off_c, 0, 76, 64
2, 650640, Note_on_c, 0, 77, 118
2, 650680, Note_off_c, 0, 77, 64
2, 650688, Note_on_c, 0, 76, 118
2, 650728, Note_off_c, 0, 76, 64
2, 650736, Note_on_c, 0, 77, 118
2, 650776, Note_off_c, 0, 77, 64
2, 650784, Note_on_c, 0, 76, 119
2, 650824, Note_off_c, 0, 76, 64
2, 650832, Note_on_c, 0, 77, 119
2, 650872, Note_off_c, 0, 77, 64
2, 650880, Note_on_c, 0, 76, 119
2, 650920, Note_off_c, 0, 76, 64
2, 650928, Note_on_c, 0, 77, 119
2, 650968, Note_off_c, 0, 77, 64
2, 650976, Note_on_c, 0, 76, 119
2, 651016, Note_off_c, 0, 76, 64
2, 651024, Note_on_c, 0, 77, 119
2, 651064, Note_off_c, 0, 77, 64
2, 651072, Note_on_c, 0, 76, 119
2, 651112, Note_off_c, 0, 76, 64
2, 651120, Note_on_c, 0, 77, 119
2, 651160, Note_off_c, 0, 77, 64
2, 651168, Note_on_c, 0, 76, 119
2, 651208, Note_off_c, 0, 76, 64
2, 651216, Note_on_c, 0, 77, 119
2, 651256, Note_off_c, 0, 77, 64
2, 651260, Note_off_c, 0, 73, 64
2, 651264, Note_on_c, 0, 73, 119
2, 651264, Note_on_c, 0, 76, 119
2, 651304, Note_off_c, 0, 76, 64
2, 651312, Note_on_c, 0, 77, 119
2, 651352, Note_off_c, 0, 77, 64
2, 651360, Note_on_c, 0, 76, 119
2, 651400, Note_off_c, 0, 76, 64
2, 651408, Note_on_c, 0, 77, 119
2, 651448, Note_off_c, 0, 77, 64
2, 651456, Note_on_c, 0, 76, 119
2, 651496, Note_off_c, 0, 76, 64
2, 651504, Note_on_c, 0, 77, 119
2, 651544, Note_off_c, 0, 77, 64
2, 651552, Note_on_c, 0, 76, 119
2, 651592, Note_off_c, 0, 76, 64
2, 651600, Note_on_c, 0, 77, 121
2, 651640, Note_off_c, 0, 77, 64
2, 651648, Note_on_c, 0, 76, 121
2, 651688, Note_off_c, 0, 76, 64
2, 651696, Note_on_c, 0, 77, 121
2, 651736, Note_off_c, 0, 77, 64
2, 651744, Note_on_c, 0, 76, 121
2, 651784, Note_off_c, 0, 76, 64
2, 651792, Note_on_c, 0, 77, 121
2, 651832, Note_off_c, 0, 77, 64
2, 651840, Note_on_c, 0, 76, 121
2, 651880, Note_off_c, 0, 76, 64
2, 651888, Note_on_c, 0, 77, 121
2, 651928, Note_off_c, 0, 77, 64
2, 651936, Note_on_c, 0, 76, 121
2, 651976, Note_off_c, 0, 76, 64
2, 651984, Note_on_c, 0, 77, 121
2, 652024, Note_off_c, 0, 77, 64
2, 652032, Note_on_c, 0, 76, 121
2, 652072, Note_off_c, 0, 76, 64
2, 652080, Note_on_c, 0, 77, 121
2, 652120, Note_off_c, 0, 77, 64
2, 652128, Note_on_c, 0, 76, 121
2, 652168, Note_off_c, 0, 76, 64
2, 652176, Note_on_c, 0, 77, 121
2, 652216, Note_off_c, 0, 77, 64
2, 652224, Note_on_c, 0, 76, 121
2, 652264, Note_off_c, 0, 76, 64
2, 652272, Note_on_c, 0, 77, 121
2, 652312, Note_off_c, 0, 77, 64
2, 652320, Note_on_c, 0, 76, 121
2, 652360, Note_off_c, 0, 76, 64
2, 652368, Note_on_c, 0, 77, 122
2, 652408, Note_off_c, 0, 77, 64
2, 652416, Note_on_c, 0, 76, 122
2, 652456, Note_off_c, 0, 76, 64
2, 652464, Note_on_c, 0, 77, 122
2, 652504, Note_off_c, 0, 77, 64
2, 652512, Note_on_c, 0, 76, 122
2, 652552, Note_off_c, 0, 76, 64
2, 652560, Note_on_c, 0, 77, 122
2, 652600, Note_off_c, 0, 77, 64
2, 652608, Note_on_c, 0, 76, 122
2, 652648, Note_off_c, 0, 76, 64
2, 652656, Note_on_c, 0, 77, 122
2, 652696, Note_off_c, 0, 77, 64
2, 652704, Note_on_c, 0, 76, 122
2, 652744, Note_off_c, 0, 76, 64
2, 652752, Note_on_c, 0, 77, 122
2, 652792, Note_off_c, 0, 77, 64
2, 652796, Note_off_c, 0, 73, 64
2, 652796, Note_off_c, 0, 73, 64
2, 652800, Note_on_c, 0, 74, 122
2, 653180, Note_off_c, 0, 74, 64
2, 653184, Note_on_c, 0, 77, 123
2, 653564, Note_off_c, 0, 77, 64
2, 653568, Note_on_c, 0, 76, 123
2, 653948, Note_off_c, 0, 76, 64
2, 653952, Note_on_c, 0, 74, 124
2, 654716, Note_off_c, 0, 74, 64
2, 654912, Note_on_c, 0, 62, 82
2, 655100, Note_off_c, 0, 62, 64
2, 655104, Note_on_c, 0, 65, 84
2, 655292, Note_off_c, 0, 65, 64
2, 655296, Note_on_c, 0, 69, 85
2, 655484, Note_off_c, 0, 69, 64
2, 655488, Note_on_c, 0, 74, 86
2, 655676, Note_off_c, 0, 74, 64
2, 655680, Note_on_c, 0, 77, 88
2, 655868, Note_off_c, 0, 77, 64
2, 655872, Note_on_c, 0, 81, 90
2, 656252, Note_off_c, 0, 81, 64
2, 656256, Note_on_c, 0, 74, 84
2, 656256, Note_on_c, 0, 69, 84
2, 656256, Note_on_c, 0, 65, 84
2, 656636, Note_off_c, 0, 74, 64
2, 656636, Note_off_c, 0, 69, 64
2, 656636, Note_off_c, 0, 65, 64
2, 656640, Note_on_c, 0, 73, 84
2, 656640, Note_on_c, 0, 67, 84
2, 656640, Note_on_c, 0, 64, 84
2, 657020, Note_off_c, 0, 73, 64
2, 657020, Note_off_c, 0, 67, 64
2, 657020, Note_off_c, 0, 64, 64
2, 657024, Note_on_c, 0, 74, 84
2, 657024, Note_on_c, 0, 65, 84
2, 657024, Note_on_c, 0, 62, 84
2, 657404, Note_off_c, 0, 74, 64
2, 657404, Note_off_c, 0, 65, 64
2, 657404, Note_off_c, 0, 62, 64
2, 657408, Note_on_c, 0, 82, 86
2, 657408, Note_on_c, 0, 79, 85
2, 657408, Note_on_c, 0, 76, 82
2, 658556, Note_off_c, 0, 82, 64
2, 658556, Note_off_c, 0, 79, 64
2, 658556, Note_off_c, 0, 76, 64
2, 658560, Note_on_c, 0, 81, 86
2, 658748, Note_off_c, 0, 81, 64
2, 658752, Note_on_c, 0, 79, 85
2, 658940, Note_off_c, 0, 79, 64
2, 658944, Note_on_c, 0, 79, 85
2, 659132, Note_off_c, 0, 79, 64
2, 659136, Note_on_c, 0, 77, 84
2, 659324, Note_off_c, 0, 77, 64
2, 659328, Note_on_c, 0, 76, 84
2, 659516, Note_off_c, 0, 76, 64
2, 659520, Note_on_c, 0, 74, 84
2, 659708, Note_off_c, 0, 74, 64
2, 659712, Note_on_c, 0, 73, 84
2, 659900, Note_off_c, 0, 73, 64
2, 659904, Note_on_c, 0, 74, 84
2, 660092, Note_off_c, 0, 74, 64
2, 660096, Note_on_c, 0, 73, 84
2, 660284, Note_off_c, 0, 73, 64
2, 660288, Note_on_c, 0, 74, 84
2, 660476, Note_off_c, 0, 74, 64
2, 660480, Note_on_c, 0, 76, 84
2, 660480, Note_on_c, 0, 73, 84
2, 660480, Note_on_c, 0, 69, 84
2, 660860, Note_off_c, 0, 76, 64
2, 660860, Note_off_c, 0, 73, 64
2, 660860, Note_off_c, 0, 69, 64
2, 661056, Note_on_c, 0, 62, 84
2, 661244, Note_off_c, 0, 62, 64
2, 661248, Note_on_c, 0, 65, 84
2, 661436, Note_off_c, 0, 65, 64
2, 661440, Note_on_c, 0, 69, 84
2, 661628, Note_off_c, 0, 69, 64
2, 661632, Note_on_c, 0, 74, 84
2, 661820, Note_off_c, 0, 74, 64
2, 661824, Note_on_c, 0, 77, 84
2, 662012, Note_off_c, 0, 77, 64
2, 662016, Note_on_c, 0, 81, 86
2, 662396, Note_off_c, 0, 81, 64
2, 662400, Note_on_c, 0, 69, 84
2, 662400, Note_on_c, 0, 65, 84
2, 662400, Note_on_c, 0, 74, 84
2, 662780, Note_off_c, 0, 69, 64
2, 662780, Note_off_c, 0, 65, 64
2, 662780, Note_off_c, 0, 74, 64
2, 662784, Note_on_c, 0, 73, 84
2, 662784, Note_on_c, 0, 67, 84
2, 662784, Note_on_c, 0, 64, 84
2, 663164, Note_off_c, 0, 73, 64
2, 663164, Note_off_c, 0, 67, 64
2, 663164, Note_off_c, 0, 64, 64
2, 663168, Note_on_c, 0, 74, 84
2, 663168, Note_on_c, 0, 65, 84
2, 663168, Note_on_c, 0, 62, 84
2, 663548, Note_off_c, 0, 74, 64
2, 663548, Note_off_c, 0, 65, 64
2, 663548, Note_off_c, 0, 62, 64
2, 663552, Note_on_c, 0, 83, 90
2, 663552, Note_on_c, 0, 77, 90
2, 663552, Note_on_c, 0, 74, 90
2, 663932, Note_off_c, 0, 83, 64
2, 663932, Note_off_c, 0, 77, 64
2, 663932, Note_off_c, 0, 74, 64
2, 664224, Note_on_c, 0, 86, 115
2, 664224, Note_on_c, 0, 83, 115
2, 664224, Note_on_c, 0, 77, 115
2, 664312, Note_off_c, 0, 86, 64
2, 664312, Note_off_c, 0, 83, 64
2, 664312, Note_off_c, 0, 77, 64
2, 664320, Note_on_c, 0, 86, 104
2, 664320, Note_on_c, 0, 83, 104
2, 664320, Note_on_c, 0, 77, 104
2, 664700, Note_off_c, 0, 86, 64
2, 664700, Note_off_c, 0, 83, 64
2, 664700, Note_off_c, 0, 77, 64
2, 664992, Note_on_c, 0, 89, 124
2, 664992, Note_on_c, 0, 86, 124
2, 664992, Note_on_c, 0, 83, 124
2, 665084, Note_off_c, 0, 89, 64
2, 665084, Note_off_c, 0, 86, 64
2, 665084, Note_off_c, 0, 83, 64
2, 665088, Note_on_c, 0, 89, 117
2, 665088, Note_on_c, 0, 86, 117
2, 665088, Note_on_c, 0, 83, 117
2, 665468, Note_off_c, 0, 89, 64
2, 665468, Note_off_c, 0, 86, 64
2, 665468, Note_off_c, 0, 83, 64
2, 666624, Key_signature, 2, "major"
2, 668160, Note_on_c, 0, 81, 86
2, 668924, Note_off_c, 0, 81, 64
2, 668928, Note_on_c, 0, 67, 84
2, 669312, Note_on_c, 0, 76, 84
2, 669692, Note_off_c, 0, 67, 64
2, 669692, Note_off_c, 0, 76, 64
2, 669696, Note_on_c, 0, 76, 84
2, 669696, Note_on_c, 0, 66, 84
2, 670076, Note_off_c, 0, 76, 64
2, 670080, Note_on_c, 0, 78, 84
2, 670268, Note_off_c, 0, 78, 64
2, 670460, Note_off_c, 0, 66, 64
2, 670464, Note_on_c, 0, 69, 84
2, 670464, Note_on_c, 0, 74, 84
2, 671228, Note_off_c, 0, 69, 64
2, 671228, Note_off_c, 0, 74, 64
2, 671232, Note_on_c, 0, 78, 84
2, 671232, Note_on_c, 0, 73, 84
2, 671612, Note_off_c, 0, 78, 64
2, 671616, Note_on_c, 0, 79, 85
2, 671804, Note_off_c, 0, 79, 64
2, 671996, Note_off_c, 0, 73, 64
2, 672000, Note_on_c, 0, 68, 84
2, 672000, Note_on_c, 0, 76, 84
2, 672764, Note_off_c, 0, 68, 64
2, 672764, Note_off_c, 0, 76, 64
2, 672768, Note_on_c, 0, 69, 84
2, 672856, Note_off_c, 0, 69, 64
2, 672864, Note_on_c, 0, 81, 95
2, 672952, Note_off_c, 0, 81, 64
2, 672960, Note_on_c, 0, 80, 85
2, 673144, Note_off_c, 0, 80, 64
2, 673152, Note_on_c, 0, 81, 86
2, 673340, Note_off_c, 0, 81, 64
2, 673344, Note_on_c, 0, 83, 88
2, 673532, Note_off_c, 0, 83, 64
2, 673536, Note_on_c, 0, 81, 86
2, 673916, Note_off_c, 0, 81, 64
2, 673920, Note_on_c, 0, 81, 86
2, 674300, Note_off_c, 0, 81, 64
2, 674304, Note_on_c, 0, 81, 86
2, 675072, Note_on_c, 0, 67, 84
2, 675452, Note_off_c, 0, 81, 64
2, 675456, Note_on_c, 0, 76, 84
2, 675836, Note_off_c, 0, 67, 64
2, 675836, Note_off_c, 0, 76, 64
2, 675840, Note_on_c, 0, 66, 84
2, 675840, Note_on_c, 0, 76, 84
2, 676220, Note_off_c, 0, 76, 64
2, 676224, Note_on_c, 0, 78, 84
2, 676412, Note_off_c, 0, 78, 64
2, 676604, Note_off_c, 0, 66, 64
2, 676608, Note_on_c, 0, 74, 84
2, 676608, Note_on_c, 0, 68, 84
2, 676608, Note_on_c, 0, 65, 84
2, 677372, Note_off_c, 0, 68, 64
2, 677372, Note_off_c, 0, 65, 64
2, 677376, Note_on_c, 0, 69, 90
2, 677376, Note_on_c, 0, 65, 90
2, 677756, Note_off_c, 0, 74, 64
2, 677760, Note_on_c, 0, 78, 90
2, 678140, Note_off_c, 0, 69, 64
2, 678140, Note_off_c, 0, 65, 64
2, 678140, Note_off_c, 0, 78, 64
2, 678144, Note_on_c, 0, 79, 91
2, 678144, Note_on_c, 0, 73, 90
2, 678524, Note_off_c, 0, 79, 64
2, 678524, Note_off_c, 0, 73, 64
2, 678528, Note_on_c, 0, 76, 90
2, 678528, Note_on_c, 0, 67, 90
2, 678908, Note_off_c, 0, 76, 64
2, 678908, Note_off_c, 0, 67, 64
2, 678912, Note_on_c, 0, 74, 77
2, 679100, Note_off_c, 0, 74, 64
2, 679104, Note_on_c, 0, 73, 77
2, 679292, Note_off_c, 0, 73, 64
2, 679296, Note_on_c, 0, 74, 77
2, 679484, Note_off_c, 0, 74, 64
2, 679488, Note_on_c, 0, 76, 77
2, 679676, Note_off_c, 0, 76, 64
2, 679680, Note_on_c, 0, 78, 77
2, 679868, Note_off_c, 0, 78, 64
2, 679872, Note_on_c, 0, 76, 77
2, 680060, Note_off_c, 0, 76, 64
2, 680064, Note_on_c, 0, 78, 77
2, 680252, Note_off_c, 0, 78, 64
2, 680256, Note_on_c, 0, 79, 78
2, 680444, Note_off_c, 0, 79, 64
2, 680448, Note_on_c, 0, 81, 79
2, 680448, Note_on_c, 0, 57, 77
2, 680636, Note_off_c, 0, 57, 64
2, 680640, Note_on_c, 0, 67, 77
2, 680828, Note_off_c, 0, 67, 64
2, 680832, Note_on_c, 0, 64, 77
2, 681020, Note_off_c, 0, 64, 64
2, 681024, Note_on_c, 0, 67, 77
2, 681212, Note_off_c, 0, 67, 64
2, 681216, Note_on_c, 0, 57, 77
2, 681404, Note_off_c, 0, 57, 64
2, 681408, Note_on_c, 0, 67, 77
2, 681596, Note_off_c, 0, 81, 64
2, 681596, Note_off_c, 0, 67, 64
2, 681600, Note_on_c, 0, 76, 77
2, 681600, Note_on_c, 0, 61, 77
2, 681788, Note_off_c, 0, 61, 64
2, 681792, Note_on_c, 0, 67, 77
2, 681980, Note_off_c, 0, 76, 64
2, 681980, Note_off_c, 0, 67, 64
2, 681984, Note_on_c, 0, 76, 77
2, 681984, Note_on_c, 0, 57, 77
2, 682172, Note_off_c, 0, 57, 64
2, 682176, Note_on_c, 0, 66, 77
2, 682364, Note_off_c, 0, 76, 64
2, 682364, Note_off_c, 0, 66, 64
2, 682368, Note_on_c, 0, 78, 77
2, 682368, Note_on_c, 0, 62, 77
2, 682556, Note_off_c, 0, 78, 64
2, 682556, Note_off_c, 0, 62, 64
2, 682560, Note_on_c, 0, 66, 77
2, 682748, Note_off_c, 0, 66, 64
2, 682752, Note_on_c, 0, 74, 77
2, 682752, Note_on_c, 0, 57, 77
2, 682940, Note_off_c, 0, 57, 64
2, 682944, Note_on_c, 0, 66, 77
2, 683132, Note_off_c, 0, 66, 64
2, 683136, Note_on_c, 0, 62, 77
2, 683324, Note_off_c, 0, 62, 64
2, 683328, Note_on_c, 0, 66, 77
2, 683516, Note_off_c, 0, 74, 64
2, 683516, Note_off_c, 0, 66, 64
2, 683520, Note_on_c, 0, 78, 77
2, 683520, Note_on_c, 0, 59, 77
2, 683708, Note_off_c, 0, 59, 64
2, 683712, Note_on_c, 0, 67, 77
2, 683900, Note_off_c, 0, 78, 64
2, 683900, Note_off_c, 0, 67, 64
2, 683904, Note_on_c, 0, 79, 78
2, 683904, Note_on_c, 0, 62, 77
2, 684092, Note_off_c, 0, 79, 64
2, 684092, Note_off_c, 0, 62, 64
2, 684096, Note_on_c, 0, 67, 77
2, 684284, Note_off_c, 0, 67, 64
2, 684288, Note_on_c, 0, 76, 77
2, 684288, Note_on_c, 0, 59, 77
2, 684476, Note_off_c, 0, 59, 64
2, 684480, Note_on_c, 0, 68, 77
2, 684668, Note_off_c, 0, 68, 64
2, 684672, Note_on_c, 0, 62, 77
2, 684860, Note_off_c, 0, 62, 64
2, 684864, Note_on_c, 0, 68, 77
2, 685052, Note_off_c, 0, 76, 64
2, 685052, Note_off_c, 0, 68, 64
2, 685056, Note_on_c, 0, 81, 79
2, 685056, Note_on_c, 0, 61, 77
2, 685244, Note_off_c, 0, 81, 64
2, 685244, Note_off_c, 0, 61, 64
2, 685248, Note_on_c, 0, 80, 78
2, 685248, Note_on_c, 0, 69, 77
2, 685436, Note_off_c, 0, 80, 64
2, 685436, Note_off_c, 0, 69, 64
2, 685440, Note_on_c, 0, 81, 79
2, 685440, Note_on_c, 0, 64, 77
2, 685628, Note_off_c, 0, 81, 64
2, 685628, Note_off_c, 0, 64, 64
2, 685632, Note_on_c, 0, 83, 80
2, 685632, Note_on_c, 0, 69, 77
2, 685820, Note_off_c, 0, 83, 64
2, 685820, Note_off_c, 0, 69, 64
2, 685824, Note_on_c, 0, 81, 79
2, 685824, Note_on_c, 0, 61, 77
2, 686012, Note_off_c, 0, 61, 64
2, 686016, Note_on_c, 0, 69, 77
2, 686204, Note_off_c, 0, 81, 64
2, 686204, Note_off_c, 0, 69, 64
2, 686208, Note_on_c, 0, 81, 79
2, 686208, Note_on_c, 0, 64, 77
2, 686396, Note_off_c, 0, 64, 64
2, 686400, Note_on_c, 0, 69, 77
2, 686588, Note_off_c, 0, 81, 64
2, 686588, Note_off_c, 0, 69, 64
2, 686592, Note_on_c, 0, 81, 79
2, 686592, Note_on_c, 0, 57, 77
2, 686780, Note_off_c, 0, 57, 64
2, 686784, Note_on_c, 0, 64, 77
2, 686972, Note_off_c, 0, 64, 64
2, 686976, Note_on_c, 0, 61, 77
2, 687164, Note_off_c, 0, 61, 64
2, 687168, Note_on_c, 0, 64, 77
2, 687356, Note_off_c, 0, 64, 64
2, 687360, Note_on_c, 0, 57, 77
2, 687548, Note_off_c, 0, 57, 64
2, 687552, Note_on_c, 0, 67, 77
2, 687740, Note_off_c, 0, 81, 64
2, 687740, Note_off_c, 0, 67, 64
2, 687744, Note_on_c, 0, 76, 77
2, 687744, Note_on_c, 0, 64, 77
2, 687932, Note_off_c, 0, 64, 64
2, 687936, Note_on_c, 0, 67, 77
2, 688124, Note_off_c, 0, 76, 64
2, 688124, Note_off_c, 0, 67, 64
2, 688128, Note_on_c, 0, 76, 77
2, 688128, Note_on_c, 0, 57, 77
2, 688316, Note_off_c, 0, 57, 64
2, 688320, Note_on_c, 0, 66, 77
2, 688508, Note_off_c, 0, 76, 64
2, 688508, Note_off_c, 0, 66, 64
2, 688512, Note_on_c, 0, 78, 77
2, 688512, Note_on_c, 0, 62, 77
2, 688700, Note_off_c, 0, 78, 64
2, 688700, Note_off_c, 0, 62, 64
2, 688704, Note_on_c, 0, 66, 77
2, 688892, Note_off_c, 0, 66, 64
2, 688896, Note_on_c, 0, 74, 77
2, 688896, Note_on_c, 0, 62, 77
2, 689084, Note_off_c, 0, 62, 64
2, 689088, Note_on_c, 0, 68, 77
2, 689276, Note_off_c, 0, 68, 64
2, 689280, Note_on_c, 0, 65, 77
2, 689468, Note_off_c, 0, 65, 64
2, 689472, Note_on_c, 0, 68, 77
2, 689660, Note_off_c, 0, 68, 64
2, 689664, Note_on_c, 0, 62, 77
2, 689852, Note_off_c, 0, 62, 64
2, 689856, Note_on_c, 0, 69, 77
2, 690044, Note_off_c, 0, 74, 64
2, 690044, Note_off_c, 0, 69, 64
2, 690048, Note_on_c, 0, 78, 77
2, 690048, Note_on_c, 0, 66, 77
2, 690236, Note_off_c, 0, 66, 64
2, 690240, Note_on_c, 0, 69, 77
2, 690428, Note_off_c, 0, 78, 64
2, 690428, Note_off_c, 0, 69, 64
2, 690432, Note_on_c, 0, 79, 78
2, 690432, Note_on_c, 0, 61, 77
2, 690620, Note_off_c, 0, 61, 64
2, 690624, Note_on_c, 0, 69, 77
2, 690812, Note_off_c, 0, 79, 64
2, 690812, Note_off_c, 0, 69, 64
2, 690816, Note_on_c, 0, 76, 77
2, 690816, Note_on_c, 0, 67, 77
2, 691004, Note_off_c, 0, 67, 64
2, 691008, Note_on_c, 0, 69, 77
2, 691196, Note_off_c, 0, 76, 64
2, 691196, Note_off_c, 0, 69, 64
2, 691200, Note_on_c, 0, 74, 77
2, 691200, Note_on_c, 0, 66, 77
2, 691200, Note_on_c, 0, 62, 77
2, 691580, Note_off_c, 0, 74, 64
2, 691580, Note_off_c, 0, 66, 64
2, 691580, Note_off_c, 0, 62, 64
2, 691776, Note_on_c, 0, 74, 100
2, 691964, Note_off_c, 0, 74, 64
2, 692160, Note_on_c, 0, 74, 100
2, 692348, Note_off_c, 0, 74, 64
2, 692544, Note_on_c, 0, 74, 100
2, 692732, Note_off_c, 0, 74, 64
2, 692736, Note_on_c, 0, 79, 101
2, 692924, Note_off_c, 0, 79, 64
2, 692928, Note_on_c, 0, 74, 100
2, 693116, Note_off_c, 0, 74, 64
2, 693120, Note_on_c, 0, 73, 100
2, 693308, Note_off_c, 0, 73, 64
2, 693312, Note_on_c, 0, 74, 100
2, 693500, Note_off_c, 0, 74, 64
2, 693504, Note_on_c, 0, 83, 103
2, 693692, Note_off_c, 0, 83, 64
2, 693696, Note_on_c, 0, 74, 100
2, 693884, Note_off_c, 0, 74, 64
2, 693888, Note_on_c, 0, 73, 100
2, 694076, Note_off_c, 0, 73, 64
2, 694080, Note_on_c, 0, 74, 100
2, 694268, Note_off_c, 0, 74, 64
2, 694272, Note_on_c, 0, 81, 102
2, 694460, Note_off_c, 0, 81, 64
2, 694464, Note_on_c, 0, 74, 100
2, 694652, Note_off_c, 0, 74, 64
2, 694656, Note_on_c, 0, 73, 100
2, 694844, Note_off_c, 0, 73, 64
2, 694848, Note_on_c, 0, 74, 100
2, 695036, Note_off_c, 0, 74, 64
2, 695040, Note_on_c, 0, 86, 105
2, 695228, Note_off_c, 0, 86, 64
2, 695232, Note_on_c, 0, 74, 100
2, 695420, Note_off_c, 0, 74, 64
2, 695424, Note_on_c, 0, 73, 100
2, 695612, Note_off_c, 0, 73, 64
2, 695616, Note_on_c, 0, 74, 100
2, 695804, Note_off_c, 0, 74, 64
2, 695808, Note_on_c, 0, 79, 102
2, 695996, Note_off_c, 0, 79, 64
2, 696000, Note_on_c, 0, 74, 100
2, 696188, Note_off_c, 0, 74, 64
2, 696192, Note_on_c, 0, 73, 100
2, 696380, Note_off_c, 0, 73, 64
2, 696384, Note_on_c, 0, 74, 100
2, 696572, Note_off_c, 0, 74, 64
2, 696576, Note_on_c, 0, 83, 103
2, 696764, Note_off_c, 0, 83, 64
2, 696768, Note_on_c, 0, 74, 100
2, 696956, Note_off_c, 0, 74, 64
2, 696960, Note_on_c, 0, 73, 100
2, 697148, Note_off_c, 0, 73, 64
2, 697152, Note_on_c, 0, 74, 100
2, 697340, Note_off_c, 0, 74, 64
2, 697344, Note_on_c, 0, 81, 101
2, 697532, Note_off_c, 0, 81, 64
2, 697536, Note_on_c, 0, 74, 100
2, 697724, Note_off_c, 0, 74, 64
2, 697728, Note_on_c, 0, 73, 100
2, 697916, Note_off_c, 0, 73, 64
2, 697920, Note_on_c, 0, 74, 100
2, 698108, Note_off_c, 0, 74, 64
2, 698112, Note_on_c, 0, 86, 103
2, 698300, Note_off_c, 0, 86, 64
2, 698304, Note_on_c, 0, 74, 100
2, 698492, Note_off_c, 0, 74, 64
2, 698496, Note_on_c, 0, 73, 100
2, 698684, Note_off_c, 0, 73, 64
2, 698688, Note_on_c, 0, 74, 100
2, 698876, Note_off_c, 0, 74, 64
2, 698880, Note_on_c, 0, 79, 101
2, 699068, Note_off_c, 0, 79, 64
2, 699072, Note_on_c, 0, 74, 100
2, 699260, Note_off_c, 0, 74, 64
2, 699264, Note_on_c, 0, 73, 100
2, 699452, Note_off_c, 0, 73, 64
2, 699456, Note_on_c, 0, 74, 100
2, 699644, Note_off_c, 0, 74, 64
2, 699648, Note_on_c, 0, 83, 103
2, 699836, Note_off_c, 0, 83, 64
2, 699840, Note_on_c, 0, 74, 100
2, 700028, Note_off_c, 0, 74, 64
2, 700032, Note_on_c, 0, 73, 100
2, 700220, Note_off_c, 0, 73, 64
2, 700224, Note_on_c, 0, 74, 100
2, 700412, Note_off_c, 0, 74, 64
2, 700608, Note_on_c, 0, 69, 77
2, 700796, Note_off_c, 0, 69, 64
2, 700800, Note_on_c, 0, 74, 78
2, 700988, Note_off_c, 0, 74, 64
2, 700992, Note_on_c, 0, 78, 79
2, 701180, Note_off_c, 0, 78, 64
2, 701184, Note_on_c, 0, 81, 82
2, 701372, Note_off_c, 0, 81, 64
2, 701376, Note_on_c, 0, 78, 79
2, 701564, Note_off_c, 0, 78, 64
2, 701568, Note_on_c, 0, 74, 78
2, 701756, Note_off_c, 0, 74, 64
2, 701760, Note_on_c, 0, 69, 77
2, 701948, Note_off_c, 0, 69, 64
2, 702144, Note_on_c, 0, 67, 77
2, 702332, Note_off_c, 0, 67, 64
2, 702336, Note_on_c, 0, 73, 78
2, 702524, Note_off_c, 0, 73, 64
2, 702528, Note_on_c, 0, 76, 79
2, 702716, Note_off_c, 0, 76, 64
2, 702720, Note_on_c, 0, 79, 82
2, 702908, Note_off_c, 0, 79, 64
2, 702912, Note_on_c, 0, 76, 79
2, 703100, Note_off_c, 0, 76, 64
2, 703104, Note_on_c, 0, 73, 78
2, 703292, Note_off_c, 0, 73, 64
2, 703296, Note_on_c, 0, 67, 77
2, 703484, Note_off_c, 0, 67, 64
2, 703680, Note_on_c, 0, 66, 77
2, 703868, Note_off_c, 0, 66, 64
2, 703872, Note_on_c, 0, 71, 78
2, 704060, Note_off_c, 0, 71, 64
2, 704064, Note_on_c, 0, 74, 79
2, 704252, Note_off_c, 0, 74, 64
2, 704256, Note_on_c, 0, 78, 82
2, 704444, Note_off_c, 0, 78, 64
2, 704448, Note_on_c, 0, 74, 79
2, 704636, Note_off_c, 0, 74, 64
2, 704640, Note_on_c, 0, 71, 78
2, 704828, Note_off_c, 0, 71, 64
2, 704832, Note_on_c, 0, 66, 77
2, 705020, Note_off_c, 0, 66, 64
2, 705216, Note_on_c, 0, 64, 77
2, 705404, Note_off_c, 0, 64, 64
2, 705408, Note_on_c, 0, 67, 78
2, 705596, Note_off_c, 0, 67, 64
2, 705600, Note_on_c, 0, 71, 79
2, 705788, Note_off_c, 0, 71, 64
2, 705792, Note_on_c, 0, 76, 82
2, 705980, Note_off_c, 0, 76, 64
2, 705984, Note_on_c, 0, 71, 79
2, 706172, Note_off_c, 0, 71, 64
2, 706176, Note_on_c, 0, 67, 78
2, 706364, Note_off_c, 0, 67, 64
2, 706368, Note_on_c, 0, 64, 77
2, 706556, Note_off_c, 0, 64, 64
2, 706752, Note_on_c, 0, 62, 77
2, 706940, Note_off_c, 0, 62, 64
2, 706944, Note_on_c, 0, 66, 78
2, 707132, Note_off_c, 0, 66, 64
2, 707136, Note_on_c, 0, 69, 79
2, 707324, Note_off_c, 0, 69, 64
2, 707328, Note_on_c, 0, 74, 82
2, 707516, Note_off_c, 0, 74, 64
2, 707520, Note_on_c, 0, 69, 79
2, 707708, Note_off_c, 0, 69, 64
2, 707712, Note_on_c, 0, 66, 78
2, 707900, Note_off_c, 0, 66, 64
2, 707904, Note_on_c, 0, 62, 77
2, 708092, Note_off_c, 0, 62, 64
2, 708288, Note_on_c, 0, 61, 77
2, 708476, Note_off_c, 0, 61, 64
2, 708480, Note_on_c, 0, 64, 78
2, 708668, Note_off_c, 0, 64, 64
2, 708672, Note_on_c, 0, 67, 79
2, 708860, Note_off_c, 0, 67, 64
2, 708864, Note_on_c, 0, 73, 81
2, 709052, Note_off_c, 0, 73, 64
2, 709056, Note_on_c, 0, 67, 79
2, 709244, Note_off_c, 0, 67, 64
2, 709248, Note_on_c, 0, 64, 78
2, 709436, Note_off_c, 0, 64, 64
2, 709440, Note_on_c, 0, 61, 77
2, 709628, Note_off_c, 0, 61, 64
2, 709632, Note_on_c, 0, 62, 100
2, 710012, Note_off_c, 0, 62, 64
2, 710208, Note_on_c, 0, 74, 100
2, 710396, Note_off_c, 0, 74, 64
2, 710592, Note_on_c, 0, 74, 100
2, 710780, Note_off_c, 0, 74, 64
2, 710976, Note_on_c, 0, 74, 100
2, 711164, Note_off_c, 0, 74, 64
2, 711168, Note_on_c, 0, 79, 101
2, 711356, Note_off_c, 0, 79, 64
2, 711360, Note_on_c, 0, 74, 100
2, 711548, Note_off_c, 0, 74, 64
2, 711552, Note_on_c, 0, 73, 100
2, 711740, Note_off_c, 0, 73, 64
2, 711744, Note_on_c, 0, 74, 100
2, 711932, Note_off_c, 0, 74, 64
2, 711936, Note_on_c, 0, 83, 103
2, 712124, Note_off_c, 0, 83, 64
2, 712128, Note_on_c, 0, 74, 100
2, 712316, Note_off_c, 0, 74, 64
2, 712320, Note_on_c, 0, 73, 100
2, 712508, Note_off_c, 0, 73, 64
2, 712512, Note_on_c, 0, 74, 100
2, 712700, Note_off_c, 0, 74, 64
2, 712704, Note_on_c, 0, 81, 102
2, 712892, Note_off_c, 0, 81, 64
2, 712896, Note_on_c, 0, 74, 100
2, 713084, Note_off_c, 0, 74, 64
2, 713088, Note_on_c, 0, 73, 100
2, 713276, Note_off_c, 0, 73, 64
2, 713280, Note_on_c, 0, 74, 100
2, 713468, Note_off_c, 0, 74, 64
2, 713472, Note_on_c, 0, 86, 105
2, 713660, Note_off_c, 0, 86, 64
2, 713664, Note_on_c, 0, 74, 100
2, 713852, Note_off_c, 0, 74, 64
2, 713856, Note_on_c, 0, 73, 100
2, 714044, Note_off_c, 0, 73, 64
2, 714048, Note_on_c, 0, 74, 100
2, 714236, Note_off_c, 0, 74, 64
2, 714240, Note_on_c, 0, 79, 101
2, 714428, Note_off_c, 0, 79, 64
2, 714432, Note_on_c, 0, 74, 100
2, 714620, Note_off_c, 0, 74, 64
2, 714624, Note_on_c, 0, 73, 100
2, 714812, Note_off_c, 0, 73, 64
2, 714816, Note_on_c, 0, 74, 100
2, 715004, Note_off_c, 0, 74, 64
2, 715008, Note_on_c, 0, 83, 103
2, 715196, Note_off_c, 0, 83, 64
2, 715200, Note_on_c, 0, 74, 100
2, 715388, Note_off_c, 0, 74, 64
2, 715392, Note_on_c, 0, 73, 100
2, 715580, Note_off_c, 0, 73, 64
2, 715584, Note_on_c, 0, 74, 100
2, 715772, Note_off_c, 0, 74, 64
2, 715776, Note_on_c, 0, 81, 102
2, 715964, Note_off_c, 0, 81, 64
2, 715968, Note_on_c, 0, 74, 100
2, 716156, Note_off_c, 0, 74, 64
2, 716160, Note_on_c, 0, 73, 100
2, 716348, Note_off_c, 0, 73, 64
2, 716352, Note_on_c, 0, 74, 100
2, 716540, Note_off_c, 0, 74, 64
2, 716544, Note_on_c, 0, 86, 105
2, 716732, Note_off_c, 0, 86, 64
2, 716736, Note_on_c, 0, 74, 100
2, 716924, Note_off_c, 0, 74, 64
2, 716928, Note_on_c, 0, 73, 100
2, 717116, Note_off_c, 0, 73, 64
2, 717120, Note_on_c, 0, 74, 100
2, 717308, Note_off_c, 0, 74, 64
2, 717312, Note_on_c, 0, 79, 101
2, 717500, Note_off_c, 0, 79, 64
2, 717504, Note_on_c, 0, 74, 100
2, 717692, Note_off_c, 0, 74, 64
2, 717696, Note_on_c, 0, 73, 100
2, 717884, Note_off_c, 0, 73, 64
2, 717888, Note_on_c, 0, 74, 100
2, 718076, Note_off_c, 0, 74, 64
2, 718080, Note_on_c, 0, 83, 103
2, 718268, Note_off_c, 0, 83, 64
2, 718272, Note_on_c, 0, 74, 100
2, 718460, Note_off_c, 0, 74, 64
2, 718464, Note_on_c, 0, 73, 100
2, 718652, Note_off_c, 0, 73, 64
2, 718656, Note_on_c, 0, 74, 100
2, 718844, Note_off_c, 0, 74, 64
2, 719040, Note_on_c, 0, 69, 77
2, 719228, Note_off_c, 0, 69, 64
2, 719232, Note_on_c, 0, 74, 78
2, 719420, Note_off_c, 0, 74, 64
2, 719424, Note_on_c, 0, 78, 79
2, 719612, Note_off_c, 0, 78, 64
2, 719616, Note_on_c, 0, 81, 82
2, 719804, Note_off_c, 0, 81, 64
2, 719808, Note_on_c, 0, 78, 79
2, 719996, Note_off_c, 0, 78, 64
2, 720000, Note_on_c, 0, 74, 78
2, 720188, Note_off_c, 0, 74, 64
2, 720192, Note_on_c, 0, 69, 77
2, 720380, Note_off_c, 0, 69, 64
2, 720576, Note_on_c, 0, 67, 77
2, 720764, Note_off_c, 0, 67, 64
2, 720768, Note_on_c, 0, 73, 78
2, 720956, Note_off_c, 0, 73, 64
2, 720960, Note_on_c, 0, 76, 79
2, 721148, Note_off_c, 0, 76, 64
2, 721152, Note_on_c, 0, 79, 82
2, 721340, Note_off_c, 0, 79, 64
2, 721344, Note_on_c, 0, 76, 79
2, 721532, Note_off_c, 0, 76, 64
2, 721536, Note_on_c, 0, 73, 78
2, 721724, Note_off_c, 0, 73, 64
2, 721728, Note_on_c, 0, 67, 77
2, 721916, Note_off_c, 0, 67, 64
2, 722112, Note_on_c, 0, 66, 77
2, 722300, Note_off_c, 0, 66, 64
2, 722304, Note_on_c, 0, 71, 78
2, 722492, Note_off_c, 0, 71, 64
2, 722496, Note_on_c, 0, 74, 79
2, 722684, Note_off_c, 0, 74, 64
2, 722688, Note_on_c, 0, 78, 82
2, 722876, Note_off_c, 0, 78, 64
2, 722880, Note_on_c, 0, 74, 79
2, 723068, Note_off_c, 0, 74, 64
2, 723072, Note_on_c, 0, 71, 78
2, 723260, Note_off_c, 0, 71, 64
2, 723264, Note_on_c, 0, 66, 77
2, 723452, Note_off_c, 0, 66, 64
2, 723648, Note_on_c, 0, 64, 77
2, 723836, Note_off_c, 0, 64, 64
2, 723840, Note_on_c, 0, 67, 78
2, 724028, Note_off_c, 0, 67, 64
2, 724032, Note_on_c, 0, 71, 79
2, 724220, Note_off_c, 0, 71, 64
2, 724224, Note_on_c, 0, 76, 81
2, 724412, Note_off_c, 0, 76, 64
2, 724416, Note_on_c, 0, 71, 79
2, 724604, Note_off_c, 0, 71, 64
2, 724608, Note_on_c, 0, 67, 78
2, 724796, Note_off_c, 0, 67, 64
2, 724800, Note_on_c, 0, 64, 77
2, 724988, Note_off_c, 0, 64, 64
2, 725184, Note_on_c, 0, 62, 77
2, 725372, Note_off_c, 0, 62, 64
2, 725376, Note_on_c, 0, 66, 78
2, 725564, Note_off_c, 0, 66, 64
2, 725568, Note_on_c, 0, 69, 79
2, 725756, Note_off_c, 0, 69, 64
2, 725760, Note_on_c, 0, 74, 81
2, 725948, Note_off_c, 0, 74, 64
2, 725952, Note_on_c, 0, 69, 79
2, 726140, Note_off_c, 0, 69, 64
2, 726144, Note_on_c, 0, 66, 78
2, 726332, Note_off_c, 0, 66, 64
2, 726336, Note_on_c, 0, 62, 77
2, 726524, Note_off_c, 0, 62, 64
2, 726720, Note_on_c, 0, 61, 77
2, 726908, Note_off_c, 0, 61, 64
2, 726912, Note_on_c, 0, 64, 78
2, 727100, Note_off_c, 0, 64, 64
2, 727104, Note_on_c, 0, 67, 79
2, 727292, Note_off_c, 0, 67, 64
2, 727296, Note_on_c, 0, 73, 81
2, 727484, Note_off_c, 0, 73, 64
2, 727488, Note_on_c, 0, 67, 79
2, 727676, Note_off_c, 0, 67, 64
2, 727680, Note_on_c, 0, 64, 78
2, 727868, Note_off_c, 0, 64, 64
2, 727872, Note_on_c, 0, 61, 77
2, 728060, Note_off_c, 0, 61, 64
2, 728064, Note_on_c, 0, 57, 77
2, 728252, Note_off_c, 0, 57, 64
2, 728256, Note_on_c, 0, 66, 77
2, 728444, Note_off_c, 0, 66, 64
2, 728448, Note_on_c, 0, 62, 77
2, 728636, Note_off_c, 0, 62, 64
2, 728640, Note_on_c, 0, 66, 77
2, 728828, Note_off_c, 0, 66, 64
2, 728832, Note_on_c, 0, 69, 77
2, 729020, Note_off_c, 0, 69, 64
2, 729024, Note_on_c, 0, 66, 77
2, 729212, Note_off_c, 0, 66, 64
2, 729216, Note_on_c, 0, 62, 77
2, 729404, Note_off_c, 0, 62, 64
2, 729408, Note_on_c, 0, 66, 77
2, 729596, Note_off_c, 0, 66, 64
2, 729600, Note_on_c, 0, 57, 77
2, 729788, Note_off_c, 0, 57, 64
2, 729792, Note_on_c, 0, 67, 77
2, 729980, Note_off_c, 0, 67, 64
2, 729984, Note_on_c, 0, 64, 77
2, 730172, Note_off_c, 0, 64, 64
2, 730176, Note_on_c, 0, 67, 77
2, 730364, Note_off_c, 0, 67, 64
2, 730368, Note_on_c, 0, 69, 77
2, 730556, Note_off_c, 0, 69, 64
2, 730560, Note_on_c, 0, 67, 77
2, 730748, Note_off_c, 0, 67, 64
2, 730752, Note_on_c, 0, 64, 77
2, 730940, Note_off_c, 0, 64, 64
2, 730944, Note_on_c, 0, 67, 77
2, 731132, Note_off_c, 0, 67, 64
2, 731136, Note_on_c, 0, 57, 77
2, 731324, Note_off_c, 0, 57, 64
2, 731328, Note_on_c, 0, 66, 77
2, 731516, Note_off_c, 0, 66, 64
2, 731520, Note_on_c, 0, 62, 77
2, 731708, Note_off_c, 0, 62, 64
2, 731712, Note_on_c, 0, 66, 77
2, 731900, Note_off_c, 0, 66, 64
2, 731904, Note_on_c, 0, 69, 77
2, 732092, Note_off_c, 0, 69, 64
2, 732096, Note_on_c, 0, 66, 77
2, 732284, Note_off_c, 0, 66, 64
2, 732288, Note_on_c, 0, 62, 77
2, 732476, Note_off_c, 0, 62, 64
2, 732480, Note_on_c, 0, 66, 77
2, 732668, Note_off_c, 0, 66, 64
2, 732672, Note_on_c, 0, 57, 77
2, 732860, Note_off_c, 0, 57, 64
2, 732864, Note_on_c, 0, 64, 77
2, 733052, Note_off_c, 0, 64, 64
2, 733056, Note_on_c, 0, 61, 77
2, 733244, Note_off_c, 0, 61, 64
2, 733248, Note_on_c, 0, 64, 77
2, 733436, Note_off_c, 0, 64, 64
2, 733440, Note_on_c, 0, 69, 77
2, 733628, Note_off_c, 0, 69, 64
2, 733632, Note_on_c, 0, 64, 77
2, 733820, Note_off_c, 0, 64, 64
2, 733824, Note_on_c, 0, 61, 77
2, 734012, Note_off_c, 0, 61, 64
2, 734016, Note_on_c, 0, 64, 77
2, 734204, Note_off_c, 0, 64, 64
2, 734208, Note_on_c, 0, 57, 77
2, 734396, Note_off_c, 0, 57, 64
2, 734400, Note_on_c, 0, 66, 77
2, 734588, Note_off_c, 0, 66, 64
2, 734592, Note_on_c, 0, 62, 77
2, 734780, Note_off_c, 0, 62, 64
2, 734784, Note_on_c, 0, 66, 77
2, 734972, Note_off_c, 0, 66, 64
2, 734976, Note_on_c, 0, 69, 77
2, 735164, Note_off_c, 0, 69, 64
2, 735168, Note_on_c, 0, 66, 77
2, 735356, Note_off_c, 0, 66, 64
2, 735360, Note_on_c, 0, 62, 77
2, 735548, Note_off_c, 0, 62, 64
2, 735552, Note_on_c, 0, 66, 77
2, 735740, Note_off_c, 0, 66, 64
2, 735744, Note_on_c, 0, 57, 77
2, 735932, Note_off_c, 0, 57, 64
2, 735936, Note_on_c, 0, 67, 77
2, 736124, Note_off_c, 0, 67, 64
2, 736128, Note_on_c, 0, 64, 77
2, 736316, Note_off_c, 0, 64, 64
2, 736320, Note_on_c, 0, 67, 77
2, 736508, Note_off_c, 0, 67, 64
2, 736512, Note_on_c, 0, 69, 77
2, 736700, Note_off_c, 0, 69, 64
2, 736704, Note_on_c, 0, 67, 77
2, 736892, Note_off_c, 0, 67, 64
2, 736896, Note_on_c, 0, 64, 77
2, 737084, Note_off_c, 0, 64, 64
2, 737088, Note_on_c, 0, 67, 77
2, 737276, Note_off_c, 0, 67, 64
2, 737280, Note_on_c, 0, 57, 77
2, 737468, Note_off_c, 0, 57, 64
2, 737472, Note_on_c, 0, 66, 77
2, 737660, Note_off_c, 0, 66, 64
2, 737664, Note_on_c, 0, 62, 77
2, 737852, Note_off_c, 0, 62, 64
2, 737856, Note_on_c, 0, 66, 77
2, 738044, Note_off_c, 0, 66, 64
2, 738048, Note_on_c, 0, 69, 77
2, 738236, Note_off_c, 0, 69, 64
2, 738240, Note_on_c, 0, 66, 77
2, 738428, Note_off_c, 0, 66, 64
2, 738432, Note_on_c, 0, 62, 77
2, 738620, Note_off_c, 0, 62, 64
2, 738624, Note_on_c, 0, 66, 77
2, 738812, Note_off_c, 0, 66, 64
2, 741888, Note_on_c, 0, 57, 77
2, 742076, Note_off_c, 0, 57, 64
2, 742080, Note_on_c, 0, 67, 77
2, 742268, Note_off_c, 0, 67, 64
2, 742272, Note_on_c, 0, 64, 77
2, 742460, Note_off_c, 0, 64, 64
2, 742464, Note_on_c, 0, 67, 77
2, 742652, Note_off_c, 0, 67, 64
2, 742656, Note_on_c, 0, 69, 77
2, 742844, Note_off_c, 0, 69, 64
2, 742848, Note_on_c, 0, 67, 77
2, 743036, Note_off_c, 0, 67, 64
2, 743040, Note_on_c, 0, 64, 77
2, 743228, Note_off_c, 0, 64, 64
2, 743232, Note_on_c, 0, 67, 77
2, 743420, Note_off_c, 0, 67, 64
2, 743424, Note_on_c, 0, 57, 77
2, 743612, Note_off_c, 0, 57, 64
2, 743616, Note_on_c, 0, 66, 77
2, 743804, Note_off_c, 0, 66, 64
2, 743808, Note_on_c, 0, 62, 77
2, 743996, Note_off_c, 0, 62, 64
2, 744000, Note_on_c, 0, 66, 77
2, 744188, Note_off_c, 0, 66, 64
2, 744192, Note_on_c, 0, 69, 77
2, 744380, Note_off_c, 0, 69, 64
2, 744384, Note_on_c, 0, 66, 77
2, 744572, Note_off_c, 0, 66, 64
2, 744576, Note_on_c, 0, 62, 77
2, 744764, Note_off_c, 0, 62, 64
2, 744768, Note_on_c, 0, 66, 77
2, 744956, Note_off_c, 0, 66, 64
2, 744960, Note_on_c, 0, 57, 77
2, 745148, Note_off_c, 0, 57, 64
2, 745152, Note_on_c, 0, 64, 77
2, 745340, Note_off_c, 0, 64, 64
2, 745344, Note_on_c, 0, 61, 77
2, 745532, Note_off_c, 0, 61, 64
2, 745536, Note_on_c, 0, 64, 77
2, 745724, Note_off_c, 0, 64, 64
2, 745728, Note_on_c, 0, 69, 77
2, 745916, Note_off_c, 0, 69, 64
2, 745920, Note_on_c, 0, 64, 77
2, 746108, Note_off_c, 0, 64, 64
2, 746112, Note_on_c, 0, 61, 77
2, 746300, Note_off_c, 0, 61, 64
2, 746304, Note_on_c, 0, 64, 77
2, 746492, Note_off_c, 0, 64, 64
2, 746496, Note_on_c, 0, 57, 77
2, 746684, Note_off_c, 0, 57, 64
2, 746688, Note_on_c, 0, 66, 77
2, 746876, Note_off_c, 0, 66, 64
2, 746880, Note_on_c, 0, 62, 77
2, 747068, Note_off_c, 0, 62, 64
2, 747072, Note_on_c, 0, 66, 77
2, 747260, Note_off_c, 0, 66, 64
2, 747264, Note_on_c, 0, 69, 77
2, 747452, Note_off_c, 0, 69, 64
2, 747456, Note_on_c, 0, 66, 77
2, 747644, Note_off_c, 0, 66, 64
2, 747648, Note_on_c, 0, 62, 77
2, 747836, Note_off_c, 0, 62, 64
2, 747840, Note_on_c, 0, 66, 77
2, 748028, Note_off_c, 0, 66, 64
2, 748032, Note_on_c, 0, 57, 77
2, 748220, Note_off_c, 0, 57, 64
2, 748224, Note_on_c, 0, 67, 77
2, 748412, Note_off_c, 0, 67, 64
2, 748416, Note_on_c, 0, 64, 77
2, 748604, Note_off_c, 0, 64, 64
2, 748608, Note_on_c, 0, 67, 77
2, 748796, Note_off_c, 0, 67, 64
2, 748800, Note_on_c, 0, 69, 77
2, 748988, Note_off_c, 0, 69, 64
2, 748992, Note_on_c, 0, 67, 77
2, 749180, Note_off_c, 0, 67, 64
2, 749184, Note_on_c, 0, 64, 77
2, 749372, Note_off_c, 0, 64, 64
2, 749376, Note_on_c, 0, 67, 77
2, 749564, Note_off_c, 0, 67, 64
2, 749568, Note_on_c, 0, 57, 77
2, 749756, Note_off_c, 0, 57, 64
2, 749760, Note_on_c, 0, 66, 77
2, 749948, Note_off_c, 0, 66, 64
2, 749952, Note_on_c, 0, 62, 77
2, 750140, Note_off_c, 0, 62, 64
2, 750144, Note_on_c, 0, 66, 77
2, 750332, Note_off_c, 0, 66, 64
2, 750336, Note_on_c, 0, 69, 77
2, 750524, Note_off_c, 0, 69, 64
2, 750528, Note_on_c, 0, 66, 77
2, 750716, Note_off_c, 0, 66, 64
2, 750720, Note_on_c, 0, 62, 77
2, 750908, Note_off_c, 0, 62, 64
2, 750912, Note_on_c, 0, 66, 77
2, 751100, Note_off_c, 0, 66, 64
2, 753408, Note_on_c, 0, 61, 77
2, 753596, Note_off_c, 0, 61, 64
2, 753600, Note_on_c, 0, 62, 77
2, 753788, Note_off_c, 0, 62, 64
2, 753792, Note_on_c, 0, 64, 77
2, 753980, Note_off_c, 0, 64, 64
2, 753984, Note_on_c, 0, 66, 77
2, 754172, Note_off_c, 0, 66, 64
2, 754176, Note_on_c, 0, 67, 77
2, 754364, Note_off_c, 0, 67, 64
2, 754368, Note_on_c, 0, 69, 77
2, 754556, Note_off_c, 0, 69, 64
2, 754560, Note_on_c, 0, 71, 77
2, 754748, Note_off_c, 0, 71, 64
2, 754752, Note_on_c, 0, 73, 77
2, 754940, Note_off_c, 0, 73, 64
2, 754944, Note_on_c, 0, 74, 77
2, 755132, Note_off_c, 0, 74, 64
2, 755136, Note_on_c, 0, 76, 77
2, 755324, Note_off_c, 0, 76, 64
2, 755328, Note_on_c, 0, 78, 77
2, 755516, Note_off_c, 0, 78, 64
2, 755520, Note_on_c, 0, 79, 79
2, 755708, Note_off_c, 0, 79, 64
2, 755712, Note_on_c, 0, 81, 81
2, 756092, Note_off_c, 0, 81, 64
2, 756480, Note_on_c, 0, 86, 105
2, 756480, Note_on_c, 0, 81, 102
2, 756480, Note_on_c, 0, 78, 100
2, 756480, Note_on_c, 0, 74, 100
2, 757244, Note_off_c, 0, 86, 64
2, 757244, Note_off_c, 0, 81, 64
2, 757244, Note_off_c, 0, 78, 64
2, 757244, Note_off_c, 0, 74, 64
2, 758016, Note_on_c, 0, 85, 104
2, 758016, Note_on_c, 0, 81, 102
2, 758016, Note_on_c, 0, 76, 100
2, 758016, Note_on_c, 0, 73, 100
2, 758780, Note_off_c, 0, 85, 64
2, 758780, Note_off_c, 0, 81, 64
2, 758780, Note_off_c, 0, 76, 64
2, 758780, Note_off_c, 0, 73, 64
2, 759552, Note_on_c, 0, 61, 77
2, 759740, Note_off_c, 0, 61, 64
2, 759744, Note_on_c, 0, 62, 77
2, 759932, Note_off_c, 0, 62, 64
2, 759936, Note_on_c, 0, 64, 77
2, 760124, Note_off_c, 0, 64, 64
2, 760128, Note_on_c, 0, 66, 77
2, 760316, Note_off_c, 0, 66, 64
2, 760320, Note_on_c, 0, 67, 77
2, 760508, Note_off_c, 0, 67, 64
2, 760512, Note_on_c, 0, 69, 77
2, 760700, Note_off_c, 0, 69, 64
2, 760704, Note_on_c, 0, 71, 77
2, 760892, Note_off_c, 0, 71, 64
2, 760896, Note_on_c, 0, 73, 77
2, 761084, Note_off_c, 0, 73, 64
2, 761088, Note_on_c, 0, 74, 77
2, 761276, Note_off_c, 0, 74, 64
2, 761280, Note_on_c, 0, 76, 77
2, 761468, Note_off_c, 0, 76, 64
2, 761472, Note_on_c, 0, 78, 77
2, 761660, Note_off_c, 0, 78, 64
2, 761664, Note_on_c, 0, 79, 77
2, 761852, Note_off_c, 0, 79, 64
2, 761856, Note_on_c, 0, 81, 79
2, 762236, Note_off_c, 0, 81, 64
2, 762624, Note_on_c, 0, 78, 100
2, 762624, Note_on_c, 0, 74, 100
2, 762624, Note_on_c, 0, 86, 105
2, 762624, Note_on_c, 0, 81, 102
2, 763388, Note_off_c, 0, 78, 64
2, 763388, Note_off_c, 0, 74, 64
2, 763388, Note_off_c, 0, 86, 64
2, 763388, Note_off_c, 0, 81, 64
2, 764160, Note_on_c, 0, 85, 104
2, 764160, Note_on_c, 0, 81, 102
2, 764160, Note_on_c, 0, 76, 100
2, 764160, Note_on_c, 0, 73, 100
2, 764924, Note_off_c, 0, 85, 64
2, 764924, Note_off_c, 0, 81, 64
2, 764924, Note_off_c, 0, 76, 64
2, 764924, Note_off_c, 0, 73, 64
2, 764928, Note_on_c, 0, 57, 77
2, 765116, Note_off_c, 0, 57, 64
2, 765120, Note_on_c, 0, 66, 77
2, 765308, Note_off_c, 0, 66, 64
2, 765312, Note_on_c, 0, 61, 77
2, 765500, Note_off_c, 0, 61, 64
2, 765504, Note_on_c, 0, 66, 77
2, 765692, Note_off_c, 0, 66, 64
2, 765696, Note_on_c, 0, 69, 77
2, 765884, Note_off_c, 0, 69, 64
2, 765888, Note_on_c, 0, 66, 77
2, 766076, Note_off_c, 0, 66, 64
2, 766080, Note_on_c, 0, 61, 77
2, 766268, Note_off_c, 0, 61, 64
2, 766272, Note_on_c, 0, 66, 77
2, 766460, Note_off_c, 0, 66, 64
2, 766464, Note_on_c, 0, 59, 77
2, 766652, Note_off_c, 0, 59, 64
2, 766656, Note_on_c, 0, 67, 77
2, 766844, Note_off_c, 0, 67, 64
2, 766848, Note_on_c, 0, 62, 77
2, 767036, Note_off_c, 0, 62, 64
2, 767040, Note_on_c, 0, 67, 77
2, 767228, Note_off_c, 0, 67, 64
2, 767232, Note_on_c, 0, 71, 77
2, 767420, Note_off_c, 0, 71, 64
2, 767424, Note_on_c, 0, 67, 77
2, 767612, Note_off_c, 0, 67, 64
2, 767616, Note_on_c, 0, 62, 77
2, 767804, Note_off_c, 0, 62, 64
2, 767808, Note_on_c, 0, 67, 77
2, 767996, Note_off_c, 0, 67, 64
2, 768000, Note_on_c, 0, 66, 77
2, 768188, Note_off_c, 0, 66, 64
2, 768192, Note_on_c, 0, 72, 77
2, 768380, Note_off_c, 0, 72, 64
2, 768384, Note_on_c, 0, 69, 77
2, 768572, Note_off_c, 0, 69, 64
2, 768576, Note_on_c, 0, 72, 77
2, 768764, Note_off_c, 0, 72, 64
2, 768768, Note_on_c, 0, 78, 77
2, 768956, Note_off_c, 0, 78, 64
2, 768960, Note_on_c, 0, 72, 77
2, 769148, Note_off_c, 0, 72, 64
2, 769152, Note_on_c, 0, 69, 77
2, 769340, Note_off_c, 0, 69, 64
2, 769344, Note_on_c, 0, 72, 77
2, 769532, Note_off_c, 0, 72, 64
2, 769536, Note_on_c, 0, 67, 77
2, 769724, Note_off_c, 0, 67, 64
2, 769728, Note_on_c, 0, 74, 77
2, 769916, Note_off_c, 0, 74, 64
2, 769920, Note_on_c, 0, 71, 77
2, 770108, Note_off_c, 0, 71, 64
2, 770112, Note_on_c, 0, 74, 77
2, 770300, Note_off_c, 0, 74, 64
2, 770304, Note_on_c, 0, 79, 78
2, 770492, Note_off_c, 0, 79, 64
2, 770496, Note_on_c, 0, 74, 77
2, 770684, Note_off_c, 0, 74, 64
2, 770688, Note_on_c, 0, 71, 77
2, 770876, Note_off_c, 0, 71, 64
2, 770880, Note_on_c, 0, 74, 77
2, 771068, Note_off_c, 0, 74, 64
2, 771072, Note_on_c, 0, 73, 77
2, 771260, Note_off_c, 0, 73, 64
2, 771264, Note_on_c, 0, 78, 77
2, 771452, Note_off_c, 0, 78, 64
2, 771456, Note_on_c, 0, 72, 77
2, 771644, Note_off_c, 0, 72, 64
2, 771648, Note_on_c, 0, 78, 77
2, 771836, Note_off_c, 0, 78, 64
2, 771840, Note_on_c, 0, 81, 79
2, 772028, Note_off_c, 0, 81, 64
2, 772032, Note_on_c, 0, 78, 77
2, 772220, Note_off_c, 0, 78, 64
2, 772224, Note_on_c, 0, 72, 77
2, 772412, Note_off_c, 0, 72, 64
2, 772416, Note_on_c, 0, 78, 77
2, 772604, Note_off_c, 0, 78, 64
2, 772608, Note_on_c, 0, 71, 77
2, 772796, Note_off_c, 0, 71, 64
2, 772800, Note_on_c, 0, 79, 78
2, 772988, Note_off_c, 0, 79, 64
2, 772992, Note_on_c, 0, 74, 77
2, 773180, Note_off_c, 0, 74, 64
2, 773184, Note_on_c, 0, 79, 78
2, 773372, Note_off_c, 0, 79, 64
2, 773376, Note_on_c, 0, 83, 80
2, 773564, Note_off_c, 0, 83, 64
2, 773568, Note_on_c, 0, 79, 78
2, 773756, Note_off_c, 0, 79, 64
2, 773760, Note_on_c, 0, 74, 77
2, 773948, Note_off_c, 0, 74, 64
2, 773952, Note_on_c, 0, 79, 78
2, 774140, Note_off_c, 0, 79, 64
2, 774144, Note_on_c, 0, 85, 81
2, 774144, Note_on_c, 0, 79, 78
2, 774144, Note_on_c, 0, 76, 77
2, 774908, Note_off_c, 0, 85, 64
2, 774908, Note_off_c, 0, 79, 64
2, 774908, Note_off_c, 0, 76, 64
2, 774912, Note_on_c, 0, 73, 100
2, 775100, Note_off_c, 0, 73, 64
2, 775104, Note_on_c, 0, 74, 100
2, 775292, Note_off_c, 0, 74, 64
2, 775296, Note_on_c, 0, 76, 100
2, 775484, Note_off_c, 0, 76, 64
2, 775488, Note_on_c, 0, 78, 100
2, 775676, Note_off_c, 0, 78, 64
2, 775680, Note_on_c, 0, 79, 101
2, 775868, Note_off_c, 0, 79, 64
2, 775872, Note_on_c, 0, 78, 100
2, 776060, Note_off_c, 0, 78, 64
2, 776064, Note_on_c, 0, 76, 100
2, 776252, Note_off_c, 0, 76, 64
2, 776256, Note_on_c, 0, 78, 100
2, 776444, Note_off_c, 0, 78, 64
2, 776448, Note_on_c, 0, 79, 101
2, 776636, Note_off_c, 0, 79, 64
2, 776640, Note_on_c, 0, 81, 102
2, 776828, Note_off_c, 0, 81, 64
2, 776832, Note_on_c, 0, 83, 103
2, 777020, Note_off_c, 0, 83, 64
2, 777024, Note_on_c, 0, 85, 104
2, 777212, Note_off_c, 0, 85, 64
2, 777216, Note_on_c, 0, 86, 105
2, 777216, Note_on_c, 0, 74, 100
2, 777596, Note_off_c, 0, 86, 64
2, 777596, Note_off_c, 0, 74, 64
2, 778752, Note_on_c, 0, 81, 102
2, 778752, Note_on_c, 0, 76, 100
2, 778752, Note_on_c, 0, 73, 100
2, 778752, Note_on_c, 0, 69, 100
2, 779132, Note_off_c, 0, 81, 64
2, 779132, Note_off_c, 0, 76, 64
2, 779132, Note_off_c, 0, 73, 64
2, 779132, Note_off_c, 0, 69, 64
2, 780384, Note_on_c, 0, 78, 100
2, 780384, Note_on_c, 0, 74, 100
2, 780384, Note_on_c, 0, 69, 100
2, 780384, Note_on_c, 0, 66, 100
2, 780764, Note_off_c, 0, 78, 64
2, 780764, Note_off_c, 0, 74, 64
2, 780764, Note_off_c, 0, 69, 64
2, 780764, Note_off_c, 0, 66, 64
2, 780764, End_track
3, 0, Start_track
3, 0, Title_t, "K466c - #20"
3, 0, Control_c, 1, 0, 0
3, 0, Program_c, 1, 0
3, 0, Control_c, 1, 7, 90
3, 0, Control_c, 1, 10, 63
3, 0, Control_c, 1, 91, 63
3, 0, Control_c, 1, 93, 55
3, 0, Key_signature, -1, "minor"
3, 0, Control_c, 1, 121, 0
3, 144, Control_c, 1, 10, 63
3, 192, Control_c, 1, 91, 63
3, 240, Control_c, 1, 93, 35
3, 288, Program_c, 1, 0
3, 4608, Note_on_c, 1, 61, 77
3, 4608, Note_on_c, 1, 49, 77
3, 6140, Note_off_c, 1, 61, 64
3, 6140, Note_off_c, 1, 49, 64
3, 10752, Note_on_c, 1, 61, 77
3, 10752, Note_on_c, 1, 49, 77
3, 12284, Note_off_c, 1, 61, 64
3, 12284, Note_off_c, 1, 49, 64
3, 13824, Note_on_c, 1, 67, 77
3, 13824, Note_on_c, 1, 58, 77
3, 14588, Note_off_c, 1, 67, 64
3, 14588, Note_off_c, 1, 58, 64
3, 14592, Note_on_c, 1, 64, 77
3, 14592, Note_on_c, 1, 55, 77
3, 15356, Note_off_c, 1, 64, 64
3, 15356, Note_off_c, 1, 55, 64
3, 15360, Note_on_c, 1, 57, 77
3, 16892, Note_off_c, 1, 57, 64
3, 16896, Note_on_c, 1, 58, 77
3, 17660, Note_off_c, 1, 58, 64
3, 17664, Note_on_c, 1, 57, 77
3, 17664, Note_on_c, 1, 60, 77
3, 18428, Note_off_c, 1, 57, 64
3, 18428, Note_off_c, 1, 60, 64
3, 18432, Note_on_c, 1, 58, 77
3, 18432, Note_on_c, 1, 55, 77
3, 19196, Note_off_c, 1, 58, 64
3, 19196, Note_off_c, 1, 55, 64
3, 19200, Note_on_c, 1, 55, 77
3, 19964, Note_off_c, 1, 55, 64
3, 19968, Note_on_c, 1, 57, 77
3, 21500, Note_off_c, 1, 57, 64
3, 21504, Note_on_c, 1, 65, 77
3, 21504, Note_on_c, 1, 62, 77
3, 21884, Note_off_c, 1, 65, 64
3, 21884, Note_off_c, 1, 62, 64
3, 23424, Note_on_c, 1, 69, 100
3, 23424, Note_on_c, 1, 65, 100
3, 23804, Note_off_c, 1, 69, 64
3, 23804, Note_off_c, 1, 65, 64
3, 23808, Note_on_c, 1, 67, 100
3, 23808, Note_on_c, 1, 64, 100
3, 24188, Note_off_c, 1, 67, 64
3, 24188, Note_off_c, 1, 64, 64
3, 24192, Note_on_c, 1, 65, 100
3, 24192, Note_on_c, 1, 62, 100
3, 24572, Note_off_c, 1, 65, 64
3, 24572, Note_off_c, 1, 62, 64
3, 24576, Note_on_c, 1, 61, 100
3, 24576, Note_on_c, 1, 49, 100
3, 26108, Note_off_c, 1, 61, 64
3, 26108, Note_off_c, 1, 49, 64
3, 26112, Note_on_c, 1, 62, 100
3, 26112, Note_on_c, 1, 50, 100
3, 26492, Note_off_c, 1, 62, 64
3, 26492, Note_off_c, 1, 50, 64
3, 26496, Note_on_c, 1, 60, 100
3, 26496, Note_on_c, 1, 48, 100
3, 26876, Note_off_c, 1, 60, 64
3, 26876, Note_off_c, 1, 48, 64
3, 26880, Note_on_c, 1, 58, 100
3, 26880, Note_on_c, 1, 46, 100
3, 27260, Note_off_c, 1, 58, 64
3, 27260, Note_off_c, 1, 46, 64
3, 27264, Note_on_c, 1, 55, 100
3, 27264, Note_on_c, 1, 43, 100
3, 27644, Note_off_c, 1, 55, 64
3, 27644, Note_off_c, 1, 43, 64
3, 27648, Note_on_c, 1, 54, 100
3, 27648, Note_on_c, 1, 42, 101
3, 29180, Note_off_c, 1, 54, 64
3, 29180, Note_off_c, 1, 42, 64
3, 29184, Note_on_c, 1, 55, 100
3, 29184, Note_on_c, 1, 43, 100
3, 29564, Note_off_c, 1, 55, 64
3, 29564, Note_off_c, 1, 43, 64
3, 29568, Note_on_c, 1, 58, 100
3, 29568, Note_on_c, 1, 46, 100
3, 29948, Note_off_c, 1, 58, 64
3, 29948, Note_off_c, 1, 46, 64
3, 29952, Note_on_c, 1, 55, 100
3, 29952, Note_on_c, 1, 43, 100
3, 30332, Note_off_c, 1, 55, 64
3, 30332, Note_off_c, 1, 43, 64
3, 30336, Note_on_c, 1, 53, 100
3, 30336, Note_on_c, 1, 41, 101
3, 30716, Note_off_c, 1, 53, 64
3, 30716, Note_off_c, 1, 41, 64
3, 30720, Note_on_c, 1, 52, 100
3, 30720, Note_on_c, 1, 40, 102
3, 31100, Note_off_c, 1, 52, 64
3, 31100, Note_off_c, 1, 40, 64
3, 31296, Note_on_c, 1, 48, 100
3, 31484, Note_off_c, 1, 48, 64
3, 31488, Note_on_c, 1, 52, 100
3, 31676, Note_off_c, 1, 52, 64
3, 31680, Note_on_c, 1, 55, 100
3, 31868, Note_off_c, 1, 55, 64
3, 31872, Note_on_c, 1, 60, 100
3, 32060, Note_off_c, 1, 60, 64
3, 32064, Note_on_c, 1, 64, 100
3, 32252, Note_off_c, 1, 64, 64
3, 32256, Note_on_c, 1, 65, 100
3, 32636, Note_off_c, 1, 65, 64
3, 32640, Note_on_c, 1, 53, 100
3, 33404, Note_off_c, 1, 53, 64
3, 33408, Note_on_c, 1, 52, 100
3, 33788, Note_off_c, 1, 52, 64
3, 33792, Note_on_c, 1, 50, 100
3, 34172, Note_off_c, 1, 50, 64
3, 34368, Note_on_c, 1, 46, 100
3, 34556, Note_off_c, 1, 46, 64
3, 34560, Note_on_c, 1, 50, 100
3, 34748, Note_off_c, 1, 50, 64
3, 34752, Note_on_c, 1, 53, 100
3, 34940, Note_off_c, 1, 53, 64
3, 34944, Note_on_c, 1, 58, 100
3, 35132, Note_off_c, 1, 58, 64
3, 35136, Note_on_c, 1, 62, 100
3, 35324, Note_off_c, 1, 62, 64
3, 35328, Note_on_c, 1, 65, 100
3, 35708, Note_off_c, 1, 65, 64
3, 35712, Note_on_c, 1, 64, 100
3, 36092, Note_off_c, 1, 64, 64
3, 36480, Note_on_c, 1, 62, 100
3, 36860, Note_off_c, 1, 62, 64
3, 36864, Note_on_c, 1, 61, 100
3, 37244, Note_off_c, 1, 61, 64
3, 37440, Note_on_c, 1, 45, 100
3, 37628, Note_off_c, 1, 45, 64
3, 37632, Note_on_c, 1, 49, 100
3, 37820, Note_off_c, 1, 49, 64
3, 37824, Note_on_c, 1, 52, 100
3, 38012, Note_off_c, 1, 52, 64
3, 38016, Note_on_c, 1, 57, 100
3, 38204, Note_off_c, 1, 57, 64
3, 38208, Note_on_c, 1, 61, 100
3, 38396, Note_off_c, 1, 61, 64
3, 38400, Note_on_c, 1, 62, 100
3, 38780, Note_off_c, 1, 62, 64
3, 38784, Note_on_c, 1, 50, 100
3, 39548, Note_off_c, 1, 50, 64
3, 39552, Note_on_c, 1, 48, 100
3, 39932, Note_off_c, 1, 48, 64
3, 39936, Note_on_c, 1, 47, 100
3, 40316, Note_off_c, 1, 47, 64
3, 40320, Note_on_c, 1, 55, 100
3, 41084, Note_off_c, 1, 55, 64
3, 41088, Note_on_c, 1, 53, 100
3, 41468, Note_off_c, 1, 53, 64
3, 41472, Note_on_c, 1, 52, 100
3, 41852, Note_off_c, 1, 52, 64
3, 41856, Note_on_c, 1, 64, 100
3, 42620, Note_off_c, 1, 64, 64
3, 42624, Note_on_c, 1, 62, 100
3, 43004, Note_off_c, 1, 62, 64
3, 43008, Note_on_c, 1, 61, 100
3, 43388, Note_off_c, 1, 61, 64
3, 43392, Note_on_c, 1, 57, 100
3, 43772, Note_off_c, 1, 57, 64
3, 43776, Note_on_c, 1, 62, 100
3, 44156, Note_off_c, 1, 62, 64
3, 44160, Note_on_c, 1, 58, 100
3, 44540, Note_off_c, 1, 58, 64
3, 44544, Note_on_c, 1, 57, 100
3, 44924, Note_off_c, 1, 57, 64
3, 44928, Note_on_c, 1, 49, 100
3, 45308, Note_off_c, 1, 49, 64
3, 45312, Note_on_c, 1, 50, 100
3, 45692, Note_off_c, 1, 50, 64
3, 45696, Note_on_c, 1, 46, 100
3, 46076, Note_off_c, 1, 46, 64
3, 46080, Note_on_c, 1, 45, 100
3, 46460, Note_off_c, 1, 45, 64
3, 46464, Note_on_c, 1, 57, 100
3, 46844, Note_off_c, 1, 57, 64
3, 46848, Note_on_c, 1, 55, 100
3, 47036, Note_off_c, 1, 55, 64
3, 47040, Note_on_c, 1, 53, 100
3, 47228, Note_off_c, 1, 53, 64
3, 47232, Note_on_c, 1, 52, 100
3, 47420, Note_off_c, 1, 52, 64
3, 47424, Note_on_c, 1, 50, 100
3, 47612, Note_off_c, 1, 50, 64
3, 47616, Note_on_c, 1, 45, 100
3, 47996, Note_off_c, 1, 45, 64
3, 49152, Note_on_c, 1, 58, 100
3, 49340, Note_off_c, 1, 58, 64
3, 49344, Note_on_c, 1, 57, 100
3, 49532, Note_off_c, 1, 57, 64
3, 49536, Note_on_c, 1, 58, 100
3, 49724, Note_off_c, 1, 58, 64
3, 49728, Note_on_c, 1, 57, 100
3, 49916, Note_off_c, 1, 57, 64
3, 49920, Note_on_c, 1, 58, 100
3, 50108, Note_off_c, 1, 58, 64
3, 50112, Note_on_c, 1, 57, 100
3, 50300, Note_off_c, 1, 57, 64
3, 50304, Note_on_c, 1, 58, 100
3, 50492, Note_off_c, 1, 58, 64
3, 50496, Note_on_c, 1, 57, 100
3, 50684, Note_off_c, 1, 57, 64
3, 50688, Note_on_c, 1, 59, 100
3, 50876, Note_off_c, 1, 59, 64
3, 50880, Note_on_c, 1, 57, 100
3, 51068, Note_off_c, 1, 57, 64
3, 51072, Note_on_c, 1, 59, 100
3, 51260, Note_off_c, 1, 59, 64
3, 51264, Note_on_c, 1, 57, 100
3, 51452, Note_off_c, 1, 57, 64
3, 51456, Note_on_c, 1, 60, 100
3, 51644, Note_off_c, 1, 60, 64
3, 51648, Note_on_c, 1, 57, 100
3, 51836, Note_off_c, 1, 57, 64
3, 51840, Note_on_c, 1, 60, 100
3, 52028, Note_off_c, 1, 60, 64
3, 52032, Note_on_c, 1, 57, 100
3, 52220, Note_off_c, 1, 57, 64
3, 52224, Note_on_c, 1, 61, 100
3, 52412, Note_off_c, 1, 61, 64
3, 52416, Note_on_c, 1, 57, 100
3, 52604, Note_off_c, 1, 57, 64
3, 52608, Note_on_c, 1, 61, 100
3, 52796, Note_off_c, 1, 61, 64
3, 52800, Note_on_c, 1, 57, 100
3, 52988, Note_off_c, 1, 57, 64
3, 52992, Note_on_c, 1, 61, 100
3, 53180, Note_off_c, 1, 61, 64
3, 53184, Note_on_c, 1, 57, 100
3, 53372, Note_off_c, 1, 57, 64
3, 53376, Note_on_c, 1, 61, 100
3, 53564, Note_off_c, 1, 61, 64
3, 53568, Note_on_c, 1, 57, 100
3, 53756, Note_off_c, 1, 57, 64
3, 53760, Note_on_c, 1, 62, 100
3, 53948, Note_off_c, 1, 62, 64
3, 53952, Note_on_c, 1, 57, 100
3, 54140, Note_off_c, 1, 57, 64
3, 54144, Note_on_c, 1, 62, 100
3, 54332, Note_off_c, 1, 62, 64
3, 54336, Note_on_c, 1, 57, 100
3, 54524, Note_off_c, 1, 57, 64
3, 54528, Note_on_c, 1, 63, 100
3, 54716, Note_off_c, 1, 63, 64
3, 54720, Note_on_c, 1, 57, 100
3, 54908, Note_off_c, 1, 57, 64
3, 54912, Note_on_c, 1, 63, 100
3, 55100, Note_off_c, 1, 63, 64
3, 55104, Note_on_c, 1, 57, 100
3, 55292, Note_off_c, 1, 57, 64
3, 55296, Note_on_c, 1, 64, 100
3, 55484, Note_off_c, 1, 64, 64
3, 55488, Note_on_c, 1, 57, 100
3, 55676, Note_off_c, 1, 57, 64
3, 55680, Note_on_c, 1, 64, 100
3, 55868, Note_off_c, 1, 64, 64
3, 55872, Note_on_c, 1, 57, 100
3, 56060, Note_off_c, 1, 57, 64
3, 56064, Note_on_c, 1, 64, 100
3, 56252, Note_off_c, 1, 64, 64
3, 56256, Note_on_c, 1, 57, 100
3, 56444, Note_off_c, 1, 57, 64
3, 56448, Note_on_c, 1, 64, 100
3, 56636, Note_off_c, 1, 64, 64
3, 56640, Note_on_c, 1, 57, 100
3, 56828, Note_off_c, 1, 57, 64
3, 56832, Note_on_c, 1, 65, 100
3, 57020, Note_off_c, 1, 65, 64
3, 57024, Note_on_c, 1, 57, 100
3, 57212, Note_off_c, 1, 57, 64
3, 57216, Note_on_c, 1, 65, 100
3, 57404, Note_off_c, 1, 65, 64
3, 57408, Note_on_c, 1, 57, 100
3, 57596, Note_off_c, 1, 57, 64
3, 57600, Note_on_c, 1, 66, 100
3, 57788, Note_off_c, 1, 66, 64
3, 57792, Note_on_c, 1, 57, 100
3, 57980, Note_off_c, 1, 57, 64
3, 57984, Note_on_c, 1, 66, 100
3, 58172, Note_off_c, 1, 66, 64
3, 58176, Note_on_c, 1, 57, 100
3, 58364, Note_off_c, 1, 57, 64
3, 58368, Note_on_c, 1, 67, 100
3, 58556, Note_off_c, 1, 67, 64
3, 58560, Note_on_c, 1, 57, 100
3, 58748, Note_off_c, 1, 57, 64
3, 58752, Note_on_c, 1, 67, 100
3, 58940, Note_off_c, 1, 67, 64
3, 58944, Note_on_c, 1, 57, 100
3, 59132, Note_off_c, 1, 57, 64
3, 59136, Note_on_c, 1, 63, 100
3, 59324, Note_off_c, 1, 63, 64
3, 59328, Note_on_c, 1, 57, 100
3, 59516, Note_off_c, 1, 57, 64
3, 59520, Note_on_c, 1, 63, 100
3, 59708, Note_off_c, 1, 63, 64
3, 59712, Note_on_c, 1, 57, 100
3, 59900, Note_off_c, 1, 57, 64
3, 59904, Note_on_c, 1, 64, 100
3, 60092, Note_off_c, 1, 64, 64
3, 60096, Note_on_c, 1, 57, 100
3, 60284, Note_off_c, 1, 57, 64
3, 60288, Note_on_c, 1, 64, 100
3, 60476, Note_off_c, 1, 64, 64
3, 60480, Note_on_c, 1, 57, 100
3, 60668, Note_off_c, 1, 57, 64
3, 60672, Note_on_c, 1, 62, 100
3, 60860, Note_off_c, 1, 62, 64
3, 60864, Note_on_c, 1, 57, 100
3, 61052, Note_off_c, 1, 57, 64
3, 61056, Note_on_c, 1, 62, 100
3, 61244, Note_off_c, 1, 62, 64
3, 61248, Note_on_c, 1, 57, 100
3, 61436, Note_off_c, 1, 57, 64
3, 61440, Note_on_c, 1, 61, 100
3, 61628, Note_off_c, 1, 61, 64
3, 61632, Note_on_c, 1, 57, 100
3, 61820, Note_off_c, 1, 57, 64
3, 61824, Note_on_c, 1, 61, 100
3, 62012, Note_off_c, 1, 61, 64
3, 62016, Note_on_c, 1, 57, 100
3, 62204, Note_off_c, 1, 57, 64
3, 62208, Note_on_c, 1, 64, 100
3, 62396, Note_off_c, 1, 64, 64
3, 62400, Note_on_c, 1, 57, 100
3, 62588, Note_off_c, 1, 57, 64
3, 62592, Note_on_c, 1, 64, 100
3, 62780, Note_off_c, 1, 64, 64
3, 62784, Note_on_c, 1, 57, 100
3, 62972, Note_off_c, 1, 57, 64
3, 62976, Note_on_c, 1, 50, 100
3, 63164, Note_off_c, 1, 50, 64
3, 63360, Note_on_c, 1, 62, 100
3, 63548, Note_off_c, 1, 62, 64
3, 63552, Note_on_c, 1, 62, 100
3, 63740, Note_off_c, 1, 62, 64
3, 63744, Note_on_c, 1, 62, 100
3, 63932, Note_off_c, 1, 62, 64
3, 63936, Note_on_c, 1, 62, 100
3, 64124, Note_off_c, 1, 62, 64
3, 64128, Note_on_c, 1, 62, 100
3, 64316, Note_off_c, 1, 62, 64
3, 64320, Note_on_c, 1, 62, 100
3, 64508, Note_off_c, 1, 62, 64
3, 64512, Note_on_c, 1, 61, 100
3, 64700, Note_off_c, 1, 61, 64
3, 64704, Note_on_c, 1, 62, 100
3, 64892, Note_off_c, 1, 62, 64
3, 64896, Note_on_c, 1, 61, 100
3, 65084, Note_off_c, 1, 61, 64
3, 65088, Note_on_c, 1, 62, 100
3, 65276, Note_off_c, 1, 62, 64
3, 65280, Note_on_c, 1, 60, 100
3, 65468, Note_off_c, 1, 60, 64
3, 65472, Note_on_c, 1, 62, 100
3, 65660, Note_off_c, 1, 62, 64
3, 65664, Note_on_c, 1, 60, 100
3, 65852, Note_off_c, 1, 60, 64
3, 65856, Note_on_c, 1, 62, 100
3, 66044, Note_off_c, 1, 62, 64
3, 66048, Note_on_c, 1, 59, 100
3, 66236, Note_off_c, 1, 59, 64
3, 66240, Note_on_c, 1, 62, 100
3, 66428, Note_off_c, 1, 62, 64
3, 66432, Note_on_c, 1, 59, 100
3, 66620, Note_off_c, 1, 59, 64
3, 66624, Note_on_c, 1, 62, 100
3, 66812, Note_off_c, 1, 62, 64
3, 66816, Note_on_c, 1, 58, 100
3, 67004, Note_off_c, 1, 58, 64
3, 67008, Note_on_c, 1, 62, 100
3, 67196, Note_off_c, 1, 62, 64
3, 67200, Note_on_c, 1, 58, 100
3, 67388, Note_off_c, 1, 58, 64
3, 67392, Note_on_c, 1, 62, 100
3, 67580, Note_off_c, 1, 62, 64
3, 67584, Note_on_c, 1, 61, 100
3, 67584, Note_on_c, 1, 57, 100
3, 67772, Note_off_c, 1, 61, 64
3, 67772, Note_off_c, 1, 57, 64
3, 67776, Note_on_c, 1, 62, 100
3, 67964, Note_off_c, 1, 62, 64
3, 67968, Note_on_c, 1, 61, 100
3, 67968, Note_on_c, 1, 57, 100
3, 68156, Note_off_c, 1, 61, 64
3, 68156, Note_off_c, 1, 57, 64
3, 68160, Note_on_c, 1, 62, 100
3, 68348, Note_off_c, 1, 62, 64
3, 68352, Note_on_c, 1, 60, 100
3, 68352, Note_on_c, 1, 57, 100
3, 68540, Note_off_c, 1, 60, 64
3, 68540, Note_off_c, 1, 57, 64
3, 68544, Note_on_c, 1, 62, 100
3, 68732, Note_off_c, 1, 62, 64
3, 68736, Note_on_c, 1, 60, 100
3, 68736, Note_on_c, 1, 57, 100
3, 68924, Note_off_c, 1, 60, 64
3, 68924, Note_off_c, 1, 57, 64
3, 68928, Note_on_c, 1, 62, 100
3, 69116, Note_off_c, 1, 62, 64
3, 69120, Note_on_c, 1, 59, 100
3, 69120, Note_on_c, 1, 55, 100
3, 69308, Note_off_c, 1, 59, 64
3, 69308, Note_off_c, 1, 55, 64
3, 69312, Note_on_c, 1, 62, 100
3, 69500, Note_off_c, 1, 62, 64
3, 69504, Note_on_c, 1, 59, 100
3, 69504, Note_on_c, 1, 55, 100
3, 69692, Note_off_c, 1, 59, 64
3, 69692, Note_off_c, 1, 55, 64
3, 69696, Note_on_c, 1, 62, 100
3, 69884, Note_off_c, 1, 62, 64
3, 69888, Note_on_c, 1, 58, 100
3, 69888, Note_on_c, 1, 55, 100
3, 70076, Note_off_c, 1, 58, 64
3, 70076, Note_off_c, 1, 55, 64
3, 70080, Note_on_c, 1, 62, 100
3, 70268, Note_off_c, 1, 62, 64
3, 70272, Note_on_c, 1, 58, 100
3, 70272, Note_on_c, 1, 55, 100
3, 70460, Note_off_c, 1, 58, 64
3, 70460, Note_off_c, 1, 55, 64
3, 70464, Note_on_c, 1, 62, 100
3, 70652, Note_off_c, 1, 62, 64
3, 70656, Note_on_c, 1, 57, 100
3, 70656, Note_on_c, 1, 54, 100
3, 70844, Note_off_c, 1, 57, 64
3, 70844, Note_off_c, 1, 54, 64
3, 70848, Note_on_c, 1, 62, 100
3, 71036, Note_off_c, 1, 62, 64
3, 71040, Note_on_c, 1, 57, 100
3, 71040, Note_on_c, 1, 54, 100
3, 71228, Note_off_c, 1, 57, 64
3, 71228, Note_off_c, 1, 54, 64
3, 71232, Note_on_c, 1, 62, 100
3, 71420, Note_off_c, 1, 62, 64
3, 71424, Note_on_c, 1, 54, 100
3, 71424, Note_on_c, 1, 50, 100
3, 71612, Note_off_c, 1, 54, 64
3, 71612, Note_off_c, 1, 50, 64
3, 71616, Note_on_c, 1, 62, 100
3, 71804, Note_off_c, 1, 62, 64
3, 71808, Note_on_c, 1, 54, 100
3, 71808, Note_on_c, 1, 50, 100
3, 71996, Note_off_c, 1, 54, 64
3, 71996, Note_off_c, 1, 50, 64
3, 72000, Note_on_c, 1, 62, 100
3, 72188, Note_off_c, 1, 62, 64
3, 72192, Note_on_c, 1, 59, 100
3, 72192, Note_on_c, 1, 55, 100
3, 72380, Note_off_c, 1, 59, 64
3, 72380, Note_off_c, 1, 55, 64
3, 72384, Note_on_c, 1, 62, 100
3, 72572, Note_off_c, 1, 62, 64
3, 72576, Note_on_c, 1, 59, 100
3, 72576, Note_on_c, 1, 55, 100
3, 72764, Note_off_c, 1, 59, 64
3, 72764, Note_off_c, 1, 55, 64
3, 72768, Note_on_c, 1, 62, 100
3, 72956, Note_off_c, 1, 62, 64
3, 72960, Note_on_c, 1, 58, 100
3, 72960, Note_on_c, 1, 55, 100
3, 73148, Note_off_c, 1, 58, 64
3, 73148, Note_off_c, 1, 55, 64
3, 73152, Note_on_c, 1, 62, 100
3, 73340, Note_off_c, 1, 62, 64
3, 73344, Note_on_c, 1, 58, 100
3, 73344, Note_on_c, 1, 55, 100
3, 73532, Note_off_c, 1, 58, 64
3, 73532, Note_off_c, 1, 55, 64
3, 73536, Note_on_c, 1, 62, 100
3, 73724, Note_off_c, 1, 62, 64
3, 73728, Note_on_c, 1, 57, 100
3, 73728, Note_on_c, 1, 54, 100
3, 73916, Note_off_c, 1, 57, 64
3, 73916, Note_off_c, 1, 54, 64
3, 73920, Note_on_c, 1, 62, 100
3, 74108, Note_off_c, 1, 62, 64
3, 74112, Note_on_c, 1, 57, 100
3, 74112, Note_on_c, 1, 54, 100
3, 74300, Note_off_c, 1, 57, 64
3, 74300, Note_off_c, 1, 54, 64
3, 74304, Note_on_c, 1, 62, 100
3, 74492, Note_off_c, 1, 62, 64
3, 74496, Note_on_c, 1, 57, 100
3, 74496, Note_on_c, 1, 53, 100
3, 74684, Note_off_c, 1, 57, 64
3, 74684, Note_off_c, 1, 53, 64
3, 74688, Note_on_c, 1, 62, 100
3, 74876, Note_off_c, 1, 62, 64
3, 74880, Note_on_c, 1, 57, 100
3, 74880, Note_on_c, 1, 53, 100
3, 75068, Note_off_c, 1, 57, 64
3, 75068, Note_off_c, 1, 53, 64
3, 75072, Note_on_c, 1, 62, 100
3, 75260, Note_off_c, 1, 62, 64
3, 75264, Note_on_c, 1, 64, 100
3, 75264, Note_on_c, 1, 52, 100
3, 75644, Note_off_c, 1, 64, 64
3, 75644, Note_off_c, 1, 52, 64
3, 75648, Note_on_c, 1, 62, 100
3, 75648, Note_on_c, 1, 50, 100
3, 76028, Note_off_c, 1, 62, 64
3, 76028, Note_off_c, 1, 50, 64
3, 76032, Note_on_c, 1, 61, 100
3, 76032, Note_on_c, 1, 49, 100
3, 76412, Note_off_c, 1, 61, 64
3, 76412, Note_off_c, 1, 49, 64
3, 76416, Note_on_c, 1, 57, 100
3, 76416, Note_on_c, 1, 45, 100
3, 76796, Note_off_c, 1, 57, 64
3, 76796, Note_off_c, 1, 45, 64
3, 77184, Note_on_c, 1, 50, 100
3, 77184, Note_on_c, 1, 62, 100
3, 77372, Note_off_c, 1, 50, 64
3, 77372, Note_off_c, 1, 62, 64
3, 77568, Note_on_c, 1, 58, 100
3, 77568, Note_on_c, 1, 46, 100
3, 77756, Note_off_c, 1, 58, 64
3, 77756, Note_off_c, 1, 46, 64
3, 77952, Note_on_c, 1, 53, 100
3, 77952, Note_on_c, 1, 41, 101
3, 78332, Note_off_c, 1, 53, 64
3, 78332, Note_off_c, 1, 41, 64
3, 78336, Note_on_c, 1, 55, 100
3, 78336, Note_on_c, 1, 43, 100
3, 79100, Note_off_c, 1, 55, 64
3, 79100, Note_off_c, 1, 43, 64
3, 79104, Note_on_c, 1, 57, 100
3, 79104, Note_on_c, 1, 45, 100
3, 79868, Note_off_c, 1, 57, 64
3, 79868, Note_off_c, 1, 45, 64
3, 79872, Note_on_c, 1, 57, 100
3, 79872, Note_on_c, 1, 46, 100
3, 80252, Note_off_c, 1, 57, 64
3, 80252, Note_off_c, 1, 46, 64
3, 80256, Note_on_c, 1, 53, 100
3, 80444, Note_off_c, 1, 53, 64
3, 80640, Note_on_c, 1, 50, 100
3, 80828, Note_off_c, 1, 50, 64
3, 81024, Note_on_c, 1, 46, 100
3, 81404, Note_off_c, 1, 46, 64
3, 81408, Note_on_c, 1, 45, 100
3, 81788, Note_off_c, 1, 45, 64
3, 81792, Note_on_c, 1, 48, 100
3, 82172, Note_off_c, 1, 48, 64
3, 82176, Note_on_c, 1, 53, 100
3, 82556, Note_off_c, 1, 53, 64
3, 82560, Note_on_c, 1, 57, 100
3, 82940, Note_off_c, 1, 57, 64
3, 82944, Note_on_c, 1, 58, 100
3, 83324, Note_off_c, 1, 58, 64
3, 83328, Note_on_c, 1, 53, 100
3, 83708, Note_off_c, 1, 53, 64
3, 83712, Note_on_c, 1, 50, 100
3, 84092, Note_off_c, 1, 50, 64
3, 84096, Note_on_c, 1, 46, 100
3, 84476, Note_off_c, 1, 46, 64
3, 84480, Note_on_c, 1, 45, 100
3, 84860, Note_off_c, 1, 45, 64
3, 84864, Note_on_c, 1, 48, 100
3, 85244, Note_off_c, 1, 48, 64
3, 85248, Note_on_c, 1, 54, 100
3, 85628, Note_off_c, 1, 54, 64
3, 85632, Note_on_c, 1, 57, 100
3, 86012, Note_off_c, 1, 57, 64
3, 86016, Note_on_c, 1, 58, 100
3, 86396, Note_off_c, 1, 58, 64
3, 86400, Note_on_c, 1, 55, 100
3, 86780, Note_off_c, 1, 55, 64
3, 86784, Note_on_c, 1, 50, 100
3, 87164, Note_off_c, 1, 50, 64
3, 87168, Note_on_c, 1, 46, 100
3, 87548, Note_off_c, 1, 46, 64
3, 87552, Note_on_c, 1, 50, 100
3, 87932, Note_off_c, 1, 50, 64
3, 87936, Note_on_c, 1, 56, 100
3, 88316, Note_off_c, 1, 56, 64
3, 88320, Note_on_c, 1, 59, 100
3, 88700, Note_off_c, 1, 59, 64
3, 88704, Note_on_c, 1, 62, 100
3, 89084, Note_off_c, 1, 62, 64
3, 89088, Note_on_c, 1, 61, 100
3, 89468, Note_off_c, 1, 61, 64
3, 89856, Note_on_c, 1, 62, 100
3, 90236, Note_off_c, 1, 62, 64
3, 90624, Note_on_c, 1, 55, 100
3, 90624, Note_on_c, 1, 43, 100
3, 91004, Note_off_c, 1, 55, 64
3, 91004, Note_off_c, 1, 43, 64
3, 91392, Note_on_c, 1, 57, 100
3, 91392, Note_on_c, 1, 45, 100
3, 91772, Note_off_c, 1, 57, 64
3, 91772, Note_off_c, 1, 45, 64
3, 92160, Note_on_c, 1, 62, 100
3, 92160, Note_on_c, 1, 50, 100
3, 92540, Note_off_c, 1, 62, 64
3, 92540, Note_off_c, 1, 50, 64
3, 92928, Note_on_c, 1, 62, 100
3, 93116, Note_off_c, 1, 62, 64
3, 93120, Note_on_c, 1, 60, 100
3, 93308, Note_off_c, 1, 60, 64
3, 93312, Note_on_c, 1, 58, 100
3, 93500, Note_off_c, 1, 58, 64
3, 93504, Note_on_c, 1, 57, 100
3, 93692, Note_off_c, 1, 57, 64
3, 93696, Note_on_c, 1, 58, 100
3, 93884, Note_off_c, 1, 58, 64
3, 93888, Note_on_c, 1, 57, 100
3, 94076, Note_off_c, 1, 57, 64
3, 94080, Note_on_c, 1, 55, 100
3, 94268, Note_off_c, 1, 55, 64
3, 94272, Note_on_c, 1, 53, 100
3, 94460, Note_off_c, 1, 53, 64
3, 94464, Note_on_c, 1, 52, 100
3, 94652, Note_off_c, 1, 52, 64
3, 94656, Note_on_c, 1, 50, 100
3, 94844, Note_off_c, 1, 50, 64
3, 94848, Note_on_c, 1, 48, 100
3, 95036, Note_off_c, 1, 48, 64
3, 95040, Note_on_c, 1, 46, 100
3, 95228, Note_off_c, 1, 46, 64
3, 95232, Note_on_c, 1, 45, 100
3, 95612, Note_off_c, 1, 45, 64
3, 96000, Note_on_c, 1, 57, 100
3, 96000, Note_on_c, 1, 45, 100
3, 96380, Note_off_c, 1, 57, 64
3, 96380, Note_off_c, 1, 45, 64
3, 96768, Note_on_c, 1, 50, 100
3, 96768, Note_on_c, 1, 38, 103
3, 97532, Note_off_c, 1, 50, 64
3, 97532, Note_off_c, 1, 38, 64
3, 110496, Note_on_c, 1, 54, 77
3, 110588, Note_off_c, 1, 54, 64
3, 110592, Note_on_c, 1, 55, 77
3, 111356, Note_off_c, 1, 55, 64
3, 116736, Note_on_c, 1, 61, 77
3, 116736, Note_on_c, 1, 49, 77
3, 118268, Note_off_c, 1, 61, 64
3, 118268, Note_off_c, 1, 49, 64
3, 118272, Note_on_c, 1, 62, 77
3, 119036, Note_off_c, 1, 62, 64
3, 122880, Note_on_c, 1, 60, 77
3, 122880, Note_on_c, 1, 48, 77
3, 124412, Note_off_c, 1, 60, 64
3, 124412, Note_off_c, 1, 48, 64
3, 125568, Note_on_c, 1, 58, 77
3, 125568, Note_on_c, 1, 46, 77
3, 125948, Note_off_c, 1, 58, 64
3, 125948, Note_off_c, 1, 46, 64
3, 125952, Note_on_c, 1, 57, 77
3, 125952, Note_on_c, 1, 45, 77
3, 127484, Note_off_c, 1, 57, 64
3, 127484, Note_off_c, 1, 45, 64
3, 128640, Note_on_c, 1, 60, 77
3, 128640, Note_on_c, 1, 48, 77
3, 129020, Note_off_c, 1, 60, 64
3, 129020, Note_off_c, 1, 48, 64
3, 129024, Note_on_c, 1, 58, 77
3, 129024, Note_on_c, 1, 46, 77
3, 129788, Note_off_c, 1, 58, 64
3, 129788, Note_off_c, 1, 46, 64
3, 130560, Note_on_c, 1, 58, 77
3, 130560, Note_on_c, 1, 46, 77
3, 131324, Note_off_c, 1, 58, 64
3, 131324, Note_off_c, 1, 46, 64
3, 131328, Note_on_c, 1, 47, 77
3, 131328, Note_on_c, 1, 59, 77
3, 132092, Note_off_c, 1, 47, 64
3, 132092, Note_off_c, 1, 59, 64
3, 132096, Note_on_c, 1, 60, 77
3, 132096, Note_on_c, 1, 48, 77
3, 132860, Note_off_c, 1, 60, 64
3, 132860, Note_off_c, 1, 48, 64
3, 135168, Note_on_c, 1, 52, 77
3, 135356, Note_off_c, 1, 52, 64
3, 135360, Note_on_c, 1, 55, 77
3, 135548, Note_off_c, 1, 55, 64
3, 135552, Note_on_c, 1, 52, 77
3, 135740, Note_off_c, 1, 52, 64
3, 135744, Note_on_c, 1, 50, 77
3, 135932, Note_off_c, 1, 50, 64
3, 135936, Note_on_c, 1, 48, 77
3, 136124, Note_off_c, 1, 48, 64
3, 136128, Note_on_c, 1, 55, 77
3, 136316, Note_off_c, 1, 55, 64
3, 136320, Note_on_c, 1, 48, 77
3, 136508, Note_off_c, 1, 48, 64
3, 136512, Note_on_c, 1, 46, 77
3, 136700, Note_off_c, 1, 46, 64
3, 136704, Note_on_c, 1, 45, 77
3, 136892, Note_off_c, 1, 45, 64
3, 136896, Note_on_c, 1, 48, 77
3, 137084, Note_off_c, 1, 48, 64
3, 137088, Note_on_c, 1, 53, 77
3, 137276, Note_off_c, 1, 53, 64
3, 137280, Note_on_c, 1, 48, 77
3, 137468, Note_off_c, 1, 48, 64
3, 137472, Note_on_c, 1, 45, 77
3, 137660, Note_off_c, 1, 45, 64
3, 137664, Note_on_c, 1, 48, 77
3, 137852, Note_off_c, 1, 48, 64
3, 137856, Note_on_c, 1, 45, 77
3, 138044, Note_off_c, 1, 45, 64
3, 138048, Note_on_c, 1, 41, 77
3, 138236, Note_off_c, 1, 41, 64
3, 138240, Note_on_c, 1, 48, 77
3, 138240, Note_on_c, 1, 36, 81
3, 138620, Note_off_c, 1, 48, 64
3, 138620, Note_off_c, 1, 36, 64
3, 138816, Note_on_c, 1, 52, 77
3, 138816, Note_on_c, 1, 40, 79
3, 139004, Note_off_c, 1, 52, 64
3, 139004, Note_off_c, 1, 40, 64
3, 139008, Note_on_c, 1, 43, 77
3, 139196, Note_off_c, 1, 43, 64
3, 139200, Note_on_c, 1, 48, 77
3, 139388, Note_off_c, 1, 48, 64
3, 139392, Note_on_c, 1, 52, 77
3, 139580, Note_off_c, 1, 52, 64
3, 139584, Note_on_c, 1, 55, 77
3, 139772, Note_off_c, 1, 55, 64
3, 139776, Note_on_c, 1, 60, 77
3, 140156, Note_off_c, 1, 60, 64
3, 140352, Note_on_c, 1, 52, 77
3, 140540, Note_off_c, 1, 52, 64
3, 140544, Note_on_c, 1, 55, 77
3, 140732, Note_off_c, 1, 55, 64
3, 140736, Note_on_c, 1, 60, 77
3, 140924, Note_off_c, 1, 60, 64
3, 140928, Note_on_c, 1, 64, 77
3, 141116, Note_off_c, 1, 64, 64
3, 141120, Note_on_c, 1, 67, 77
3, 141308, Note_off_c, 1, 67, 64
3, 142848, Note_on_c, 1, 56, 77
3, 142848, Note_on_c, 1, 53, 77
3, 143228, Note_off_c, 1, 56, 64
3, 143228, Note_off_c, 1, 53, 64
3, 143232, Note_on_c, 1, 56, 77
3, 143232, Note_on_c, 1, 53, 77
3, 143612, Note_off_c, 1, 56, 64
3, 143612, Note_off_c, 1, 53, 64
3, 143616, Note_on_c, 1, 56, 77
3, 143616, Note_on_c, 1, 53, 77
3, 143996, Note_off_c, 1, 56, 64
3, 143996, Note_off_c, 1, 53, 64
3, 144384, Note_on_c, 1, 58, 77
3, 144384, Note_on_c, 1, 55, 77
3, 144384, Note_on_c, 1, 52, 77
3, 144764, Note_off_c, 1, 58, 64
3, 144764, Note_off_c, 1, 55, 64
3, 144764, Note_off_c, 1, 52, 64
3, 144768, Note_on_c, 1, 58, 77
3, 144768, Note_on_c, 1, 55, 77
3, 144768, Note_on_c, 1, 52, 77
3, 145148, Note_off_c, 1, 58, 64
3, 145148, Note_off_c, 1, 55, 64
3, 145148, Note_off_c, 1, 52, 64
3, 145152, Note_on_c, 1, 58, 77
3, 145152, Note_on_c, 1, 55, 77
3, 145152, Note_on_c, 1, 52, 77
3, 145532, Note_off_c, 1, 58, 64
3, 145532, Note_off_c, 1, 55, 64
3, 145532, Note_off_c, 1, 52, 64
3, 145920, Note_on_c, 1, 56, 77
3, 145920, Note_on_c, 1, 53, 77
3, 146300, Note_off_c, 1, 56, 64
3, 146300, Note_off_c, 1, 53, 64
3, 146688, Note_on_c, 1, 55, 77
3, 146688, Note_on_c, 1, 46, 77
3, 147068, Note_off_c, 1, 55, 64
3, 147068, Note_off_c, 1, 46, 64
3, 147456, Note_on_c, 1, 53, 77
3, 147456, Note_on_c, 1, 48, 77
3, 147836, Note_off_c, 1, 53, 64
3, 147836, Note_off_c, 1, 48, 64
3, 148224, Note_on_c, 1, 52, 77
3, 148224, Note_on_c, 1, 48, 77
3, 148604, Note_off_c, 1, 52, 64
3, 148604, Note_off_c, 1, 48, 64
3, 182016, Note_on_c, 1, 57, 77
3, 182204, Note_off_c, 1, 57, 64
3, 182208, Note_on_c, 1, 58, 77
3, 182396, Note_off_c, 1, 58, 64
3, 182400, Note_on_c, 1, 55, 77
3, 182588, Note_off_c, 1, 55, 64
3, 182592, Note_on_c, 1, 57, 77
3, 182780, Note_off_c, 1, 57, 64
3, 182784, Note_on_c, 1, 53, 77
3, 183548, Note_off_c, 1, 53, 64
3, 183936, Note_on_c, 1, 63, 77
3, 183936, Note_on_c, 1, 51, 77
3, 184316, Note_off_c, 1, 63, 64
3, 184316, Note_off_c, 1, 51, 64
3, 184320, Note_on_c, 1, 62, 77
3, 184320, Note_on_c, 1, 50, 77
3, 185084, Note_off_c, 1, 62, 64
3, 185084, Note_off_c, 1, 50, 64
3, 185472, Note_on_c, 1, 61, 77
3, 185472, Note_on_c, 1, 49, 77
3, 185852, Note_off_c, 1, 61, 64
3, 185852, Note_off_c, 1, 49, 64
3, 185856, Note_on_c, 1, 60, 77
3, 185856, Note_on_c, 1, 48, 77
3, 186620, Note_off_c, 1, 60, 64
3, 186620, Note_off_c, 1, 48, 64
3, 190464, Note_on_c, 1, 58, 77
3, 190652, Note_off_c, 1, 58, 64
3, 190848, Note_on_c, 1, 57, 77
3, 191036, Note_off_c, 1, 57, 64
3, 191232, Note_on_c, 1, 55, 77
3, 191420, Note_off_c, 1, 55, 64
3, 191616, Note_on_c, 1, 53, 77
3, 191804, Note_off_c, 1, 53, 64
3, 193536, Note_on_c, 1, 57, 77
3, 193724, Note_off_c, 1, 57, 64
3, 193920, Note_on_c, 1, 55, 77
3, 194108, Note_off_c, 1, 55, 64
3, 194304, Note_on_c, 1, 53, 77
3, 194492, Note_off_c, 1, 53, 64
3, 194688, Note_on_c, 1, 52, 77
3, 194876, Note_off_c, 1, 52, 64
3, 196608, Note_on_c, 1, 55, 77
3, 196796, Note_off_c, 1, 55, 64
3, 196992, Note_on_c, 1, 53, 77
3, 197180, Note_off_c, 1, 53, 64
3, 197376, Note_on_c, 1, 52, 77
3, 197564, Note_off_c, 1, 52, 64
3, 197568, Note_on_c, 1, 64, 77
3, 197756, Note_off_c, 1, 64, 64
3, 197760, Note_on_c, 1, 50, 77
3, 197948, Note_off_c, 1, 50, 64
3, 197952, Note_on_c, 1, 62, 77
3, 198140, Note_off_c, 1, 62, 64
3, 198144, Note_on_c, 1, 48, 77
3, 198332, Note_off_c, 1, 48, 64
3, 198336, Note_on_c, 1, 60, 77
3, 198524, Note_off_c, 1, 60, 64
3, 198528, Note_on_c, 1, 46, 77
3, 198716, Note_off_c, 1, 46, 64
3, 198720, Note_on_c, 1, 58, 77
3, 198908, Note_off_c, 1, 58, 64
3, 198912, Note_on_c, 1, 45, 77
3, 199100, Note_off_c, 1, 45, 64
3, 199104, Note_on_c, 1, 57, 77
3, 199292, Note_off_c, 1, 57, 64
3, 199296, Note_on_c, 1, 43, 77
3, 199484, Note_off_c, 1, 43, 64
3, 199488, Note_on_c, 1, 55, 77
3, 199676, Note_off_c, 1, 55, 64
3, 199680, Note_on_c, 1, 41, 78
3, 199868, Note_off_c, 1, 41, 64
3, 199872, Note_on_c, 1, 53, 77
3, 200060, Note_off_c, 1, 53, 64
3, 200064, Note_on_c, 1, 40, 79
3, 200252, Note_off_c, 1, 40, 64
3, 200256, Note_on_c, 1, 52, 77
3, 200444, Note_off_c, 1, 52, 64
3, 200448, Note_on_c, 1, 38, 80
3, 200636, Note_off_c, 1, 38, 64
3, 200640, Note_on_c, 1, 50, 77
3, 200828, Note_off_c, 1, 50, 64
3, 200832, Note_on_c, 1, 36, 81
3, 201020, Note_off_c, 1, 36, 64
3, 201024, Note_on_c, 1, 48, 77
3, 201212, Note_off_c, 1, 48, 64
3, 201216, Note_on_c, 1, 47, 77
3, 201216, Note_on_c, 1, 44, 77
3, 201216, Note_on_c, 1, 41, 78
3, 201216, Note_on_c, 1, 38, 80
3, 201216, Note_on_c, 1, 35, 82
3, 202748, Note_off_c, 1, 47, 64
3, 202748, Note_off_c, 1, 44, 64
3, 202748, Note_off_c, 1, 41, 64
3, 202748, Note_off_c, 1, 38, 64
3, 202748, Note_off_c, 1, 35, 64
3, 206592, Note_on_c, 1, 59, 77
3, 206592, Note_on_c, 1, 47, 77
3, 206972, Note_off_c, 1, 59, 64
3, 206972, Note_off_c, 1, 47, 64
3, 213888, Note_on_c, 1, 60, 77
3, 213888, Note_on_c, 1, 53, 77
3, 213888, Note_on_c, 1, 57, 77
3, 214268, Note_off_c, 1, 60, 64
3, 214268, Note_off_c, 1, 53, 64
3, 214268, Note_off_c, 1, 57, 64
3, 214272, Note_on_c, 1, 60, 77
3, 214272, Note_on_c, 1, 57, 77
3, 214272, Note_on_c, 1, 53, 77
3, 214652, Note_off_c, 1, 60, 64
3, 214652, Note_off_c, 1, 57, 64
3, 214652, Note_off_c, 1, 53, 64
3, 214656, Note_on_c, 1, 60, 77
3, 214656, Note_on_c, 1, 57, 77
3, 214656, Note_on_c, 1, 53, 77
3, 215036, Note_off_c, 1, 60, 64
3, 215036, Note_off_c, 1, 57, 64
3, 215036, Note_off_c, 1, 53, 64
3, 215040, Note_on_c, 1, 52, 77
3, 215420, Note_off_c, 1, 52, 64
3, 215424, Note_on_c, 1, 55, 77
3, 215424, Note_on_c, 1, 60, 77
3, 215804, Note_off_c, 1, 55, 64
3, 215804, Note_off_c, 1, 60, 64
3, 215808, Note_on_c, 1, 48, 77
3, 216188, Note_off_c, 1, 48, 64
3, 216192, Note_on_c, 1, 60, 77
3, 216192, Note_on_c, 1, 55, 77
3, 216572, Note_off_c, 1, 60, 64
3, 216572, Note_off_c, 1, 55, 64
3, 216576, Note_on_c, 1, 53, 77
3, 216956, Note_off_c, 1, 53, 64
3, 216960, Note_on_c, 1, 57, 77
3, 216960, Note_on_c, 1, 60, 77
3, 217340, Note_off_c, 1, 57, 64
3, 217340, Note_off_c, 1, 60, 64
3, 217344, Note_on_c, 1, 50, 77
3, 217724, Note_off_c, 1, 50, 64
3, 217728, Note_on_c, 1, 57, 77
3, 217728, Note_on_c, 1, 60, 77
3, 218108, Note_off_c, 1, 57, 64
3, 218108, Note_off_c, 1, 60, 64
3, 218112, Note_on_c, 1, 55, 77
3, 218492, Note_off_c, 1, 55, 64
3, 218496, Note_on_c, 1, 58, 77
3, 218496, Note_on_c, 1, 62, 77
3, 218876, Note_off_c, 1, 58, 64
3, 218876, Note_off_c, 1, 62, 64
3, 218880, Note_on_c, 1, 53, 77
3, 219260, Note_off_c, 1, 53, 64
3, 219264, Note_on_c, 1, 59, 77
3, 219264, Note_on_c, 1, 62, 77
3, 219644, Note_off_c, 1, 59, 64
3, 219644, Note_off_c, 1, 62, 64
3, 219648, Note_on_c, 1, 52, 77
3, 220028, Note_off_c, 1, 52, 64
3, 220032, Note_on_c, 1, 55, 77
3, 220032, Note_on_c, 1, 60, 77
3, 220412, Note_off_c, 1, 55, 64
3, 220412, Note_off_c, 1, 60, 64
3, 220416, Note_on_c, 1, 48, 77
3, 220796, Note_off_c, 1, 48, 64
3, 220800, Note_on_c, 1, 55, 77
3, 220800, Note_on_c, 1, 60, 77
3, 221180, Note_off_c, 1, 55, 64
3, 221180, Note_off_c, 1, 60, 64
3, 221184, Note_on_c, 1, 52, 77
3, 221564, Note_off_c, 1, 52, 64
3, 221568, Note_on_c, 1, 55, 77
3, 221568, Note_on_c, 1, 60, 77
3, 221948, Note_off_c, 1, 55, 64
3, 221948, Note_off_c, 1, 60, 64
3, 221952, Note_on_c, 1, 48, 77
3, 222332, Note_off_c, 1, 48, 64
3, 222336, Note_on_c, 1, 55, 77
3, 222336, Note_on_c, 1, 60, 77
3, 222716, Note_off_c, 1, 55, 64
3, 222716, Note_off_c, 1, 60, 64
3, 222720, Note_on_c, 1, 53, 77
3, 223100, Note_off_c, 1, 53, 64
3, 223104, Note_on_c, 1, 57, 77
3, 223104, Note_on_c, 1, 60, 77
3, 223484, Note_off_c, 1, 57, 64
3, 223484, Note_off_c, 1, 60, 64
3, 223488, Note_on_c, 1, 50, 77
3, 223868, Note_off_c, 1, 50, 64
3, 223872, Note_on_c, 1, 59, 77
3, 223872, Note_on_c, 1, 56, 77
3, 224252, Note_off_c, 1, 59, 64
3, 224252, Note_off_c, 1, 56, 64
3, 224256, Note_on_c, 1, 48, 77
3, 224636, Note_off_c, 1, 48, 64
3, 224640, Note_on_c, 1, 60, 77
3, 224640, Note_on_c, 1, 57, 77
3, 224640, Note_on_c, 1, 53, 77
3, 225020, Note_off_c, 1, 60, 64
3, 225020, Note_off_c, 1, 57, 64
3, 225020, Note_off_c, 1, 53, 64
3, 225024, Note_on_c, 1, 48, 77
3, 225404, Note_off_c, 1, 48, 64
3, 225408, Note_on_c, 1, 60, 77
3, 225408, Note_on_c, 1, 58, 77
3, 225408, Note_on_c, 1, 52, 77
3, 225788, Note_off_c, 1, 60, 64
3, 225788, Note_off_c, 1, 58, 64
3, 225788, Note_off_c, 1, 52, 64
3, 225792, Note_on_c, 1, 53, 77
3, 226172, Note_off_c, 1, 53, 64
3, 226176, Note_on_c, 1, 57, 77
3, 226176, Note_on_c, 1, 60, 77
3, 226556, Note_off_c, 1, 57, 64
3, 226556, Note_off_c, 1, 60, 64
3, 226560, Note_on_c, 1, 41, 78
3, 226940, Note_off_c, 1, 41, 64
3, 239616, Note_on_c, 1, 48, 77
3, 239996, Note_off_c, 1, 48, 64
3, 241152, Note_on_c, 1, 53, 77
3, 241532, Note_off_c, 1, 53, 64
3, 242688, Note_on_c, 1, 48, 77
3, 243068, Note_off_c, 1, 48, 64
3, 244224, Note_on_c, 1, 53, 77
3, 244604, Note_off_c, 1, 53, 64
3, 245760, Note_on_c, 1, 48, 77
3, 246140, Note_off_c, 1, 48, 64
3, 247296, Note_on_c, 1, 53, 77
3, 247296, Note_on_c, 1, 48, 77
3, 247296, Note_on_c, 1, 45, 77
3, 247296, Note_on_c, 1, 41, 78
3, 247676, Note_off_c, 1, 53, 64
3, 247676, Note_off_c, 1, 48, 64
3, 247676, Note_off_c, 1, 45, 64
3, 247676, Note_off_c, 1, 41, 64
3, 250368, Note_on_c, 1, 52, 77
3, 250368, Note_on_c, 1, 40, 79
3, 250748, Note_off_c, 1, 52, 64
3, 250748, Note_off_c, 1, 40, 64
3, 253440, Note_on_c, 1, 50, 77
3, 253440, Note_on_c, 1, 38, 79
3, 253820, Note_off_c, 1, 50, 64
3, 253820, Note_off_c, 1, 38, 64
3, 256512, Note_on_c, 1, 49, 90
3, 256512, Note_on_c, 1, 37, 94
3, 256892, Note_off_c, 1, 49, 64
3, 256892, Note_off_c, 1, 37, 64
3, 258240, Note_on_c, 1, 61, 83
3, 258332, Note_off_c, 1, 61, 64
3, 258336, Note_on_c, 1, 58, 82
3, 258428, Note_off_c, 1, 58, 64
3, 258432, Note_on_c, 1, 55, 81
3, 258524, Note_off_c, 1, 55, 64
3, 258528, Note_on_c, 1, 52, 82
3, 258620, Note_off_c, 1, 52, 64
3, 258624, Note_on_c, 1, 49, 79
3, 258716, Note_off_c, 1, 49, 64
3, 258720, Note_on_c, 1, 46, 78
3, 258812, Note_off_c, 1, 46, 64
3, 258816, Note_on_c, 1, 43, 77
3, 258908, Note_off_c, 1, 43, 64
3, 258912, Note_on_c, 1, 40, 79
3, 259004, Note_off_c, 1, 40, 64
3, 259008, Note_on_c, 1, 37, 81
3, 259100, Note_off_c, 1, 37, 64
3, 259104, Note_on_c, 1, 34, 82
3, 259196, Note_off_c, 1, 34, 64
3, 259200, Note_on_c, 1, 31, 84
3, 259388, Note_off_c, 1, 31, 64
3, 259392, Note_on_c, 1, 37, 82
3, 259484, Note_off_c, 1, 37, 64
3, 259488, Note_on_c, 1, 40, 79
3, 259580, Note_off_c, 1, 40, 64
3, 259584, Note_on_c, 1, 43, 77
3, 259676, Note_off_c, 1, 43, 64
3, 259680, Note_on_c, 1, 45, 78
3, 259772, Note_off_c, 1, 45, 64
3, 259776, Note_on_c, 1, 49, 80
3, 259868, Note_off_c, 1, 49, 64
3, 259872, Note_on_c, 1, 52, 82
3, 259964, Note_off_c, 1, 52, 64
3, 259968, Note_on_c, 1, 55, 84
3, 260060, Note_off_c, 1, 55, 64
3, 260064, Note_on_c, 1, 57, 86
3, 260156, Note_off_c, 1, 57, 64
3, 260160, Note_on_c, 1, 61, 89
3, 260252, Note_off_c, 1, 61, 64
3, 260256, Note_on_c, 1, 64, 91
3, 260348, Note_off_c, 1, 64, 64
3, 265728, Note_on_c, 1, 55, 78
3, 265728, Note_on_c, 1, 52, 78
3, 265728, Note_on_c, 1, 45, 78
3, 266492, Note_off_c, 1, 55, 64
3, 266492, Note_off_c, 1, 52, 64
3, 266492, Note_off_c, 1, 45, 64
3, 268800, Note_on_c, 1, 61, 77
3, 268800, Note_on_c, 1, 49, 77
3, 270332, Note_off_c, 1, 61, 64
3, 270332, Note_off_c, 1, 49, 64
3, 270336, Note_on_c, 1, 62, 77
3, 271100, Note_off_c, 1, 62, 64
3, 271104, Note_on_c, 1, 58, 77
3, 271868, Note_off_c, 1, 58, 64
3, 271872, Note_on_c, 1, 57, 77
3, 272252, Note_off_c, 1, 57, 64
3, 274944, Note_on_c, 1, 61, 77
3, 274944, Note_on_c, 1, 49, 77
3, 276476, Note_off_c, 1, 61, 64
3, 276476, Note_off_c, 1, 49, 64
3, 276480, Note_on_c, 1, 62, 77
3, 277244, Note_off_c, 1, 62, 64
3, 277248, Note_on_c, 1, 60, 77
3, 277248, Note_on_c, 1, 66, 77
3, 278012, Note_off_c, 1, 60, 64
3, 278012, Note_off_c, 1, 66, 64
3, 278016, Note_on_c, 1, 67, 77
3, 278016, Note_on_c, 1, 58, 77
3, 278780, Note_off_c, 1, 67, 64
3, 278780, Note_off_c, 1, 58, 64
3, 278784, Note_on_c, 1, 64, 77
3, 278784, Note_on_c, 1, 55, 77
3, 279548, Note_off_c, 1, 64, 64
3, 279548, Note_off_c, 1, 55, 64
3, 279552, Note_on_c, 1, 57, 77
3, 281084, Note_off_c, 1, 57, 64
3, 281088, Note_on_c, 1, 58, 77
3, 281852, Note_off_c, 1, 58, 64
3, 281856, Note_on_c, 1, 60, 77
3, 281856, Note_on_c, 1, 57, 77
3, 282620, Note_off_c, 1, 60, 64
3, 282620, Note_off_c, 1, 57, 64
3, 282624, Note_on_c, 1, 58, 77
3, 282624, Note_on_c, 1, 55, 77
3, 283388, Note_off_c, 1, 58, 64
3, 283388, Note_off_c, 1, 55, 64
3, 283392, Note_on_c, 1, 55, 77
3, 284156, Note_off_c, 1, 55, 64
3, 284160, Note_on_c, 1, 57, 77
3, 285692, Note_off_c, 1, 57, 64
3, 285696, Note_on_c, 1, 65, 77
3, 285696, Note_on_c, 1, 62, 77
3, 286076, Note_off_c, 1, 65, 64
3, 286076, Note_off_c, 1, 62, 64
3, 287616, Note_on_c, 1, 62, 100
3, 287616, Note_on_c, 1, 65, 100
3, 287996, Note_off_c, 1, 62, 64
3, 287996, Note_off_c, 1, 65, 64
3, 288000, Note_on_c, 1, 64, 100
3, 288000, Note_on_c, 1, 67, 100
3, 288380, Note_off_c, 1, 64, 64
3, 288380, Note_off_c, 1, 67, 64
3, 288384, Note_on_c, 1, 65, 100
3, 288384, Note_on_c, 1, 69, 100
3, 288764, Note_off_c, 1, 65, 64
3, 288764, Note_off_c, 1, 69, 64
3, 288768, Note_on_c, 1, 64, 100
3, 288768, Note_on_c, 1, 56, 100
3, 289148, Note_off_c, 1, 64, 64
3, 289148, Note_off_c, 1, 56, 64
3, 289344, Note_on_c, 1, 52, 100
3, 289532, Note_off_c, 1, 52, 64
3, 289536, Note_on_c, 1, 56, 100
3, 289724, Note_off_c, 1, 56, 64
3, 289728, Note_on_c, 1, 59, 100
3, 289916, Note_off_c, 1, 59, 64
3, 289920, Note_on_c, 1, 64, 100
3, 290108, Note_off_c, 1, 64, 64
3, 290112, Note_on_c, 1, 68, 100
3, 290300, Note_off_c, 1, 68, 64
3, 290304, Note_on_c, 1, 71, 100
3, 290684, Note_off_c, 1, 71, 64
3, 290688, Note_on_c, 1, 64, 100
3, 291068, Note_off_c, 1, 64, 64
3, 291072, Note_on_c, 1, 63, 100
3, 291452, Note_off_c, 1, 63, 64
3, 291456, Note_on_c, 1, 64, 100
3, 291836, Note_off_c, 1, 64, 64
3, 291840, Note_on_c, 1, 65, 100
3, 292220, Note_off_c, 1, 65, 64
3, 292416, Note_on_c, 1, 41, 101
3, 292604, Note_off_c, 1, 41, 64
3, 292608, Note_on_c, 1, 45, 100
3, 292796, Note_off_c, 1, 45, 64
3, 292800, Note_on_c, 1, 48, 100
3, 292988, Note_off_c, 1, 48, 64
3, 292992, Note_on_c, 1, 53, 100
3, 293180, Note_off_c, 1, 53, 64
3, 293184, Note_on_c, 1, 57, 100
3, 293372, Note_off_c, 1, 57, 64
3, 293376, Note_on_c, 1, 60, 100
3, 293756, Note_off_c, 1, 60, 64
3, 293760, Note_on_c, 1, 53, 100
3, 294140, Note_off_c, 1, 53, 64
3, 294144, Note_on_c, 1, 52, 100
3, 294524, Note_off_c, 1, 52, 64
3, 294528, Note_on_c, 1, 53, 100
3, 294908, Note_off_c, 1, 53, 64
3, 294912, Note_on_c, 1, 50, 100
3, 295292, Note_off_c, 1, 50, 64
3, 295488, Note_on_c, 1, 50, 100
3, 295676, Note_off_c, 1, 50, 64
3, 295680, Note_on_c, 1, 53, 100
3, 295868, Note_off_c, 1, 53, 64
3, 295872, Note_on_c, 1, 58, 100
3, 296060, Note_off_c, 1, 58, 64
3, 296064, Note_on_c, 1, 62, 100
3, 296252, Note_off_c, 1, 62, 64
3, 296256, Note_on_c, 1, 58, 100
3, 296444, Note_off_c, 1, 58, 64
3, 296448, Note_on_c, 1, 65, 100
3, 296828, Note_off_c, 1, 65, 64
3, 296832, Note_on_c, 1, 64, 100
3, 296832, Note_on_c, 1, 61, 100
3, 297212, Note_off_c, 1, 64, 64
3, 297212, Note_off_c, 1, 61, 64
3, 297216, Note_on_c, 1, 65, 100
3, 297216, Note_on_c, 1, 62, 100
3, 297596, Note_off_c, 1, 65, 64
3, 297596, Note_off_c, 1, 62, 64
3, 297600, Note_on_c, 1, 66, 100
3, 297600, Note_on_c, 1, 63, 100
3, 297980, Note_off_c, 1, 66, 64
3, 297980, Note_off_c, 1, 63, 64
3, 297984, Note_on_c, 1, 64, 100
3, 298364, Note_off_c, 1, 64, 64
3, 298368, Note_on_c, 1, 52, 100
3, 298748, Note_off_c, 1, 52, 64
3, 299136, Note_on_c, 1, 62, 100
3, 299136, Note_on_c, 1, 52, 100
3, 299516, Note_off_c, 1, 62, 64
3, 299516, Note_off_c, 1, 52, 64
3, 299520, Note_on_c, 1, 60, 100
3, 299520, Note_on_c, 1, 57, 100
3, 299520, Note_on_c, 1, 52, 100
3, 299900, Note_off_c, 1, 60, 64
3, 299900, Note_off_c, 1, 57, 64
3, 299900, Note_off_c, 1, 52, 64
3, 299904, Note_on_c, 1, 52, 100
3, 300284, Note_off_c, 1, 52, 64
3, 300672, Note_on_c, 1, 60, 100
3, 300672, Note_on_c, 1, 57, 100
3, 300672, Note_on_c, 1, 52, 100
3, 301052, Note_off_c, 1, 60, 64
3, 301052, Note_off_c, 1, 57, 64
3, 301052, Note_off_c, 1, 52, 64
3, 301056, Note_on_c, 1, 59, 100
3, 301056, Note_on_c, 1, 56, 100
3, 301056, Note_on_c, 1, 52, 100
3, 301436, Note_off_c, 1, 59, 64
3, 301436, Note_off_c, 1, 56, 64
3, 301436, Note_off_c, 1, 52, 64
3, 301440, Note_on_c, 1, 52, 100
3, 301820, Note_off_c, 1, 52, 64
3, 302208, Note_on_c, 1, 52, 100
3, 302208, Note_on_c, 1, 64, 100
3, 302588, Note_off_c, 1, 52, 64
3, 302588, Note_off_c, 1, 64, 64
3, 302592, Note_on_c, 1, 64, 100
3, 302592, Note_on_c, 1, 60, 100
3, 302592, Note_on_c, 1, 57, 100
3, 302592, Note_on_c, 1, 52, 100
3, 302972, Note_off_c, 1, 64, 64
3, 302972, Note_off_c, 1, 60, 64
3, 302972, Note_off_c, 1, 57, 64
3, 302972, Note_off_c, 1, 52, 64
3, 302976, Note_on_c, 1, 64, 100
3, 302976, Note_on_c, 1, 60, 100
3, 302976, Note_on_c, 1, 57, 100
3, 302976, Note_on_c, 1, 52, 100
3, 303356, Note_off_c, 1, 64, 64
3, 303356, Note_off_c, 1, 60, 64
3, 303356, Note_off_c, 1, 57, 64
3, 303356, Note_off_c, 1, 52, 64
3, 303360, Note_on_c, 1, 64, 100
3, 303360, Note_on_c, 1, 60, 100
3, 303360, Note_on_c, 1, 57, 100
3, 303360, Note_on_c, 1, 53, 100
3, 303360, Note_on_c, 1, 53, 100
3, 303740, Note_off_c, 1, 64, 64
3, 303740, Note_off_c, 1, 60, 64
3, 303740, Note_off_c, 1, 57, 64
3, 303740, Note_off_c, 1, 53, 64
3, 303740, Note_off_c, 1, 53, 64
3, 303744, Note_on_c, 1, 64, 100
3, 303744, Note_on_c, 1, 60, 100
3, 303744, Note_on_c, 1, 57, 100
3, 303744, Note_on_c, 1, 53, 100
3, 303744, Note_on_c, 1, 53, 100
3, 304124, Note_off_c, 1, 64, 64
3, 304124, Note_off_c, 1, 60, 64
3, 304124, Note_off_c, 1, 57, 64
3, 304124, Note_off_c, 1, 53, 64
3, 304124, Note_off_c, 1, 53, 64
3, 304128, Note_on_c, 1, 64, 100
3, 304128, Note_on_c, 1, 59, 100
3, 304128, Note_on_c, 1, 56, 100
3, 304128, Note_on_c, 1, 52, 100
3, 304508, Note_off_c, 1, 64, 64
3, 304508, Note_off_c, 1, 59, 64
3, 304508, Note_off_c, 1, 56, 64
3, 304508, Note_off_c, 1, 52, 64
3, 304512, Note_on_c, 1, 52, 100
3, 304512, Note_on_c, 1, 40, 102
3, 304892, Note_off_c, 1, 52, 64
3, 304892, Note_off_c, 1, 40, 64
3, 304896, Note_on_c, 1, 57, 100
3, 304896, Note_on_c, 1, 45, 100
3, 305276, Note_off_c, 1, 57, 64
3, 305276, Note_off_c, 1, 45, 64
3, 305280, Note_on_c, 1, 60, 100
3, 305280, Note_on_c, 1, 48, 100
3, 305660, Note_off_c, 1, 60, 64
3, 305660, Note_off_c, 1, 48, 64
3, 305664, Note_on_c, 1, 64, 100
3, 305664, Note_on_c, 1, 59, 100
3, 305664, Note_on_c, 1, 56, 100
3, 305664, Note_on_c, 1, 52, 100
3, 306044, Note_off_c, 1, 64, 64
3, 306044, Note_off_c, 1, 59, 64
3, 306044, Note_off_c, 1, 56, 64
3, 306044, Note_off_c, 1, 52, 64
3, 306048, Note_on_c, 1, 52, 100
3, 306048, Note_on_c, 1, 40, 102
3, 306428, Note_off_c, 1, 52, 64
3, 306428, Note_off_c, 1, 40, 64
3, 306432, Note_on_c, 1, 57, 100
3, 306432, Note_on_c, 1, 45, 100
3, 306812, Note_off_c, 1, 57, 64
3, 306812, Note_off_c, 1, 45, 64
3, 306816, Note_on_c, 1, 60, 100
3, 306816, Note_on_c, 1, 48, 100
3, 307196, Note_off_c, 1, 60, 64
3, 307196, Note_off_c, 1, 48, 64
3, 307200, Note_on_c, 1, 64, 100
3, 307200, Note_on_c, 1, 59, 100
3, 307200, Note_on_c, 1, 56, 100
3, 307200, Note_on_c, 1, 52, 100
3, 307580, Note_off_c, 1, 64, 64
3, 307580, Note_off_c, 1, 59, 64
3, 307580, Note_off_c, 1, 56, 64
3, 307580, Note_off_c, 1, 52, 64
3, 307584, Note_on_c, 1, 52, 100
3, 307584, Note_on_c, 1, 40, 101
3, 307964, Note_off_c, 1, 52, 64
3, 307964, Note_off_c, 1, 40, 64
3, 307968, Note_on_c, 1, 52, 100
3, 307968, Note_on_c, 1, 40, 102
3, 308348, Note_off_c, 1, 52, 64
3, 308348, Note_off_c, 1, 40, 64
3, 308352, Note_on_c, 1, 52, 100
3, 308352, Note_on_c, 1, 40, 102
3, 308732, Note_off_c, 1, 52, 64
3, 308732, Note_off_c, 1, 40, 64
3, 308736, Note_on_c, 1, 52, 100
3, 308736, Note_on_c, 1, 40, 102
3, 309500, Note_off_c, 1, 52, 64
3, 309500, Note_off_c, 1, 40, 64
3, 310272, Note_on_c, 1, 60, 77
3, 310272, Note_on_c, 1, 57, 77
3, 311036, Note_off_c, 1, 60, 64
3, 311036, Note_off_c, 1, 57, 64
3, 311040, Note_on_c, 1, 59, 77
3, 311040, Note_on_c, 1, 62, 77
3, 311804, Note_off_c, 1, 59, 64
3, 311804, Note_off_c, 1, 62, 64
3, 311808, Note_on_c, 1, 64, 77
3, 311808, Note_on_c, 1, 60, 77
3, 312188, Note_off_c, 1, 64, 64
3, 312188, Note_off_c, 1, 60, 64
3, 316416, Note_on_c, 1, 59, 77
3, 316416, Note_on_c, 1, 52, 77
3, 317180, Note_off_c, 1, 59, 64
3, 317184, Note_on_c, 1, 57, 77
3, 317948, Note_off_c, 1, 52, 64
3, 317948, Note_off_c, 1, 57, 64
3, 317952, Note_on_c, 1, 56, 77
3, 317952, Note_on_c, 1, 52, 77
3, 318332, Note_off_c, 1, 56, 64
3, 318332, Note_off_c, 1, 52, 64
3, 319488, Note_on_c, 1, 57, 77
3, 319488, Note_on_c, 1, 60, 77
3, 319868, Note_off_c, 1, 57, 64
3, 319868, Note_off_c, 1, 60, 64
3, 320256, Note_on_c, 1, 59, 77
3, 320256, Note_on_c, 1, 62, 77
3, 320636, Note_off_c, 1, 59, 64
3, 320636, Note_off_c, 1, 62, 64
3, 321024, Note_on_c, 1, 60, 77
3, 321024, Note_on_c, 1, 64, 77
3, 321404, Note_off_c, 1, 60, 64
3, 321404, Note_off_c, 1, 64, 64
3, 322464, Note_on_c, 1, 49, 87
3, 322548, Note_off_c, 1, 49, 64
3, 322560, Note_on_c, 1, 50, 77
3, 323324, Note_off_c, 1, 50, 64
3, 324096, Note_on_c, 1, 60, 77
3, 324096, Note_on_c, 1, 52, 77
3, 324860, Note_off_c, 1, 60, 64
3, 324864, Note_on_c, 1, 62, 77
3, 325628, Note_off_c, 1, 52, 64
3, 325628, Note_off_c, 1, 62, 64
3, 325632, Note_on_c, 1, 60, 77
3, 325632, Note_on_c, 1, 57, 77
3, 326012, Note_off_c, 1, 60, 64
3, 326012, Note_off_c, 1, 57, 64
3, 327552, Note_on_c, 1, 64, 77
3, 327552, Note_on_c, 1, 60, 77
3, 327932, Note_off_c, 1, 64, 64
3, 327932, Note_off_c, 1, 60, 64
3, 327936, Note_on_c, 1, 62, 77
3, 327936, Note_on_c, 1, 59, 77
3, 328316, Note_off_c, 1, 62, 64
3, 328316, Note_off_c, 1, 59, 64
3, 328320, Note_on_c, 1, 60, 77
3, 328320, Note_on_c, 1, 57, 77
3, 328700, Note_off_c, 1, 60, 64
3, 328700, Note_off_c, 1, 57, 64
3, 328704, Note_on_c, 1, 56, 77
3, 328704, Note_on_c, 1, 44, 77
3, 330236, Note_off_c, 1, 56, 64
3, 330236, Note_off_c, 1, 44, 64
3, 330240, Note_on_c, 1, 57, 77
3, 331004, Note_off_c, 1, 57, 64
3, 331008, Note_on_c, 1, 63, 77
3, 331008, Note_on_c, 1, 53, 77
3, 331772, Note_off_c, 1, 63, 64
3, 331772, Note_off_c, 1, 53, 64
3, 331776, Note_on_c, 1, 64, 77
3, 331776, Note_on_c, 1, 52, 77
3, 332156, Note_off_c, 1, 64, 64
3, 332156, Note_off_c, 1, 52, 64
3, 333696, Note_on_c, 1, 64, 77
3, 333696, Note_on_c, 1, 60, 77
3, 334076, Note_off_c, 1, 64, 64
3, 334076, Note_off_c, 1, 60, 64
3, 334080, Note_on_c, 1, 59, 77
3, 334080, Note_on_c, 1, 62, 77
3, 334460, Note_off_c, 1, 59, 64
3, 334460, Note_off_c, 1, 62, 64
3, 334464, Note_on_c, 1, 60, 77
3, 334464, Note_on_c, 1, 57, 77
3, 334844, Note_off_c, 1, 60, 64
3, 334844, Note_off_c, 1, 57, 64
3, 334848, Note_on_c, 1, 56, 77
3, 334848, Note_on_c, 1, 44, 77
3, 335612, Note_off_c, 1, 56, 64
3, 335612, Note_off_c, 1, 44, 64
3, 337920, Note_on_c, 1, 50, 77
3, 337920, Note_on_c, 1, 47, 77
3, 337920, Note_on_c, 1, 43, 77
3, 337920, Note_on_c, 1, 55, 77
3, 338684, Note_off_c, 1, 50, 64
3, 338684, Note_off_c, 1, 47, 64
3, 338684, Note_off_c, 1, 43, 64
3, 338684, Note_off_c, 1, 55, 64
3, 340992, Note_on_c, 1, 54, 77
3, 340992, Note_on_c, 1, 48, 77
3, 340992, Note_on_c, 1, 45, 77
3, 340992, Note_on_c, 1, 42, 78
3, 341756, Note_off_c, 1, 54, 64
3, 341756, Note_off_c, 1, 48, 64
3, 341756, Note_off_c, 1, 45, 64
3, 341756, Note_off_c, 1, 42, 64
3, 344064, Note_on_c, 1, 51, 77
3, 344064, Note_on_c, 1, 48, 77
3, 344064, Note_on_c, 1, 45, 77
3, 344064, Note_on_c, 1, 41, 78
3, 344828, Note_off_c, 1, 51, 64
3, 344828, Note_off_c, 1, 48, 64
3, 344828, Note_off_c, 1, 45, 64
3, 344828, Note_off_c, 1, 41, 64
3, 347136, Note_on_c, 1, 52, 77
3, 347136, Note_on_c, 1, 46, 77
3, 347136, Note_on_c, 1, 43, 77
3, 347136, Note_on_c, 1, 40, 79
3, 347900, Note_off_c, 1, 52, 64
3, 347900, Note_off_c, 1, 46, 64
3, 347900, Note_off_c, 1, 43, 64
3, 347900, Note_off_c, 1, 40, 64
3, 350208, Note_on_c, 1, 55, 77
3, 350208, Note_on_c, 1, 51, 77
3, 350208, Note_on_c, 1, 61, 77
3, 350972, Note_off_c, 1, 55, 64
3, 350972, Note_off_c, 1, 51, 64
3, 350972, Note_off_c, 1, 61, 64
3, 350976, Note_on_c, 1, 55, 77
3, 350976, Note_on_c, 1, 51, 77
3, 350976, Note_on_c, 1, 61, 77
3, 351740, Note_off_c, 1, 55, 64
3, 351740, Note_off_c, 1, 51, 64
3, 351740, Note_off_c, 1, 61, 64
3, 351744, Note_on_c, 1, 61, 77
3, 351744, Note_on_c, 1, 55, 77
3, 351744, Note_on_c, 1, 51, 77
3, 353276, Note_off_c, 1, 61, 64
3, 353276, Note_off_c, 1, 55, 64
3, 353276, Note_off_c, 1, 51, 64
3, 353280, Note_on_c, 1, 50, 77
3, 353468, Note_off_c, 1, 50, 64
3, 353472, Note_on_c, 1, 62, 77
3, 353660, Note_off_c, 1, 62, 64
3, 353664, Note_on_c, 1, 61, 77
3, 353852, Note_off_c, 1, 61, 64
3, 353856, Note_on_c, 1, 62, 77
3, 354044, Note_off_c, 1, 62, 64
3, 354048, Note_on_c, 1, 60, 77
3, 354236, Note_off_c, 1, 60, 64
3, 354240, Note_on_c, 1, 62, 77
3, 354428, Note_off_c, 1, 62, 64
3, 354432, Note_on_c, 1, 57, 77
3, 354620, Note_off_c, 1, 57, 64
3, 354624, Note_on_c, 1, 62, 77
3, 354812, Note_off_c, 1, 62, 64
3, 354816, Note_on_c, 1, 50, 77
3, 355004, Note_off_c, 1, 50, 64
3, 355008, Note_on_c, 1, 62, 77
3, 355196, Note_off_c, 1, 62, 64
3, 355200, Note_on_c, 1, 61, 77
3, 355388, Note_off_c, 1, 61, 64
3, 355392, Note_on_c, 1, 62, 77
3, 355580, Note_off_c, 1, 62, 64
3, 355584, Note_on_c, 1, 58, 77
3, 355772, Note_off_c, 1, 58, 64
3, 355776, Note_on_c, 1, 62, 77
3, 355964, Note_off_c, 1, 62, 64
3, 355968, Note_on_c, 1, 55, 77
3, 356156, Note_off_c, 1, 55, 64
3, 356160, Note_on_c, 1, 62, 77
3, 356348, Note_off_c, 1, 62, 64
3, 356352, Note_on_c, 1, 50, 77
3, 356540, Note_off_c, 1, 50, 64
3, 356544, Note_on_c, 1, 62, 77
3, 356732, Note_off_c, 1, 62, 64
3, 356736, Note_on_c, 1, 61, 77
3, 356924, Note_off_c, 1, 61, 64
3, 356928, Note_on_c, 1, 62, 77
3, 357116, Note_off_c, 1, 62, 64
3, 357120, Note_on_c, 1, 60, 77
3, 357308, Note_off_c, 1, 60, 64
3, 357312, Note_on_c, 1, 62, 77
3, 357500, Note_off_c, 1, 62, 64
3, 357504, Note_on_c, 1, 57, 77
3, 357692, Note_off_c, 1, 57, 64
3, 357696, Note_on_c, 1, 62, 77
3, 357884, Note_off_c, 1, 62, 64
3, 357888, Note_on_c, 1, 50, 77
3, 358076, Note_off_c, 1, 50, 64
3, 358080, Note_on_c, 1, 62, 77
3, 358268, Note_off_c, 1, 62, 64
3, 358272, Note_on_c, 1, 60, 77
3, 358460, Note_off_c, 1, 60, 64
3, 358464, Note_on_c, 1, 62, 77
3, 358652, Note_off_c, 1, 62, 64
3, 358656, Note_on_c, 1, 58, 77
3, 358844, Note_off_c, 1, 58, 64
3, 358848, Note_on_c, 1, 62, 77
3, 359036, Note_off_c, 1, 62, 64
3, 359040, Note_on_c, 1, 55, 77
3, 359228, Note_off_c, 1, 55, 64
3, 359232, Note_on_c, 1, 62, 77
3, 359420, Note_off_c, 1, 62, 64
3, 359424, Note_on_c, 1, 50, 77
3, 359804, Note_off_c, 1, 50, 64
3, 359808, Note_on_c, 1, 50, 77
3, 359808, Note_on_c, 1, 38, 80
3, 360188, Note_off_c, 1, 50, 64
3, 360188, Note_off_c, 1, 38, 64
3, 360192, Note_on_c, 1, 50, 77
3, 360192, Note_on_c, 1, 38, 80
3, 360572, Note_off_c, 1, 50, 64
3, 360572, Note_off_c, 1, 38, 64
3, 360576, Note_on_c, 1, 50, 77
3, 360576, Note_on_c, 1, 38, 80
3, 360956, Note_off_c, 1, 50, 64
3, 360956, Note_off_c, 1, 38, 64
3, 360960, Note_on_c, 1, 50, 77
3, 360960, Note_on_c, 1, 38, 80
3, 361340, Note_off_c, 1, 50, 64
3, 361340, Note_off_c, 1, 38, 64
3, 362496, Note_on_c, 1, 58, 77
3, 362496, Note_on_c, 1, 55, 77
3, 363260, Note_off_c, 1, 58, 64
3, 363260, Note_off_c, 1, 55, 64
3, 363264, Note_on_c, 1, 60, 77
3, 363264, Note_on_c, 1, 57, 77
3, 364028, Note_off_c, 1, 60, 64
3, 364028, Note_off_c, 1, 57, 64
3, 364032, Note_on_c, 1, 58, 77
3, 364032, Note_on_c, 1, 62, 77
3, 364412, Note_off_c, 1, 58, 64
3, 364412, Note_off_c, 1, 62, 64
3, 368640, Note_on_c, 1, 57, 77
3, 368640, Note_on_c, 1, 50, 77
3, 369404, Note_off_c, 1, 57, 64
3, 369408, Note_on_c, 1, 55, 77
3, 370172, Note_off_c, 1, 50, 64
3, 370172, Note_off_c, 1, 55, 64
3, 370176, Note_on_c, 1, 54, 77
3, 370176, Note_on_c, 1, 50, 77
3, 370556, Note_off_c, 1, 54, 64
3, 370556, Note_off_c, 1, 50, 64
3, 371712, Note_on_c, 1, 58, 77
3, 371712, Note_on_c, 1, 55, 77
3, 372092, Note_off_c, 1, 58, 64
3, 372092, Note_off_c, 1, 55, 64
3, 372480, Note_on_c, 1, 60, 77
3, 372480, Note_on_c, 1, 57, 77
3, 372860, Note_off_c, 1, 60, 64
3, 372860, Note_off_c, 1, 57, 64
3, 373248, Note_on_c, 1, 58, 77
3, 373248, Note_on_c, 1, 62, 77
3, 373628, Note_off_c, 1, 58, 64
3, 373628, Note_off_c, 1, 62, 64
3, 374784, Note_on_c, 1, 61, 77
3, 374784, Note_on_c, 1, 57, 77
3, 375164, Note_off_c, 1, 61, 64
3, 375164, Note_off_c, 1, 57, 64
3, 375552, Note_on_c, 1, 62, 77
3, 375552, Note_on_c, 1, 59, 77
3, 375932, Note_off_c, 1, 62, 64
3, 375932, Note_off_c, 1, 59, 64
3, 376320, Note_on_c, 1, 64, 77
3, 376320, Note_on_c, 1, 61, 77
3, 376700, Note_off_c, 1, 64, 64
3, 376700, Note_off_c, 1, 61, 64
3, 379392, Note_on_c, 1, 57, 77
3, 379392, Note_on_c, 1, 53, 77
3, 380156, Note_off_c, 1, 57, 64
3, 380156, Note_off_c, 1, 53, 64
3, 380160, Note_on_c, 1, 62, 77
3, 380160, Note_on_c, 1, 54, 77
3, 380924, Note_off_c, 1, 62, 64
3, 380924, Note_off_c, 1, 54, 64
3, 380928, Note_on_c, 1, 62, 77
3, 380928, Note_on_c, 1, 55, 77
3, 381308, Note_off_c, 1, 62, 64
3, 381308, Note_off_c, 1, 55, 64
3, 382464, Note_on_c, 1, 58, 77
3, 382464, Note_on_c, 1, 62, 77
3, 383228, Note_off_c, 1, 62, 64
3, 383232, Note_on_c, 1, 67, 77
3, 383996, Note_off_c, 1, 58, 64
3, 383996, Note_off_c, 1, 67, 64
3, 384000, Note_on_c, 1, 64, 77
3, 384000, Note_on_c, 1, 57, 77
3, 384380, Note_off_c, 1, 64, 64
3, 384380, Note_off_c, 1, 57, 64
3, 385536, Note_on_c, 1, 49, 77
3, 385536, Note_on_c, 1, 45, 77
3, 386300, Note_off_c, 1, 49, 64
3, 386300, Note_off_c, 1, 45, 64
3, 386304, Note_on_c, 1, 57, 77
3, 386304, Note_on_c, 1, 49, 77
3, 387068, Note_off_c, 1, 57, 64
3, 387068, Note_off_c, 1, 49, 64
3, 387072, Note_on_c, 1, 57, 77
3, 387072, Note_on_c, 1, 50, 77
3, 387452, Note_off_c, 1, 57, 64
3, 387452, Note_off_c, 1, 50, 64
3, 400896, Note_on_c, 1, 57, 77
3, 400896, Note_on_c, 1, 53, 77
3, 401276, Note_off_c, 1, 57, 64
3, 401276, Note_off_c, 1, 53, 64
3, 401280, Note_on_c, 1, 57, 77
3, 401280, Note_on_c, 1, 53, 77
3, 401660, Note_off_c, 1, 57, 64
3, 401660, Note_off_c, 1, 53, 64
3, 401664, Note_on_c, 1, 57, 77
3, 401664, Note_on_c, 1, 65, 77
3, 402044, Note_off_c, 1, 57, 64
3, 402044, Note_off_c, 1, 65, 64
3, 402048, Note_on_c, 1, 57, 77
3, 402048, Note_on_c, 1, 65, 77
3, 402428, Note_off_c, 1, 57, 64
3, 402428, Note_off_c, 1, 65, 64
3, 402432, Note_on_c, 1, 65, 77
3, 402432, Note_on_c, 1, 58, 77
3, 402812, Note_off_c, 1, 65, 64
3, 402812, Note_off_c, 1, 58, 64
3, 417792, Note_on_c, 1, 61, 77
3, 417792, Note_on_c, 1, 49, 77
3, 417980, Note_off_c, 1, 61, 64
3, 417980, Note_off_c, 1, 49, 64
3, 417984, Note_on_c, 1, 64, 77
3, 417984, Note_on_c, 1, 52, 77
3, 418172, Note_off_c, 1, 64, 64
3, 418172, Note_off_c, 1, 52, 64
3, 418176, Note_on_c, 1, 61, 77
3, 418176, Note_on_c, 1, 49, 77
3, 418364, Note_off_c, 1, 61, 64
3, 418364, Note_off_c, 1, 49, 64
3, 418368, Note_on_c, 1, 58, 77
3, 418368, Note_on_c, 1, 46, 77
3, 418556, Note_off_c, 1, 58, 64
3, 418556, Note_off_c, 1, 46, 64
3, 418560, Note_on_c, 1, 57, 77
3, 418560, Note_on_c, 1, 45, 77
3, 418748, Note_off_c, 1, 57, 64
3, 418748, Note_off_c, 1, 45, 64
3, 418752, Note_on_c, 1, 64, 77
3, 418752, Note_on_c, 1, 52, 77
3, 418940, Note_off_c, 1, 64, 64
3, 418940, Note_off_c, 1, 52, 64
3, 418944, Note_on_c, 1, 57, 77
3, 418944, Note_on_c, 1, 45, 77
3, 419132, Note_off_c, 1, 57, 64
3, 419132, Note_off_c, 1, 45, 64
3, 419136, Note_on_c, 1, 55, 77
3, 419136, Note_on_c, 1, 43, 77
3, 419324, Note_off_c, 1, 55, 64
3, 419324, Note_off_c, 1, 43, 64
3, 419328, Note_on_c, 1, 53, 77
3, 419328, Note_on_c, 1, 41, 78
3, 419516, Note_off_c, 1, 53, 64
3, 419516, Note_off_c, 1, 41, 64
3, 419520, Note_on_c, 1, 57, 77
3, 419520, Note_on_c, 1, 45, 77
3, 419708, Note_off_c, 1, 57, 64
3, 419708, Note_off_c, 1, 45, 64
3, 419712, Note_on_c, 1, 62, 77
3, 419712, Note_on_c, 1, 50, 77
3, 419900, Note_off_c, 1, 62, 64
3, 419900, Note_off_c, 1, 50, 64
3, 419904, Note_on_c, 1, 57, 77
3, 419904, Note_on_c, 1, 45, 77
3, 420092, Note_off_c, 1, 57, 64
3, 420092, Note_off_c, 1, 45, 64
3, 420096, Note_on_c, 1, 53, 77
3, 420096, Note_on_c, 1, 41, 78
3, 420284, Note_off_c, 1, 53, 64
3, 420284, Note_off_c, 1, 41, 64
3, 420288, Note_on_c, 1, 57, 77
3, 420288, Note_on_c, 1, 45, 77
3, 420476, Note_off_c, 1, 57, 64
3, 420476, Note_off_c, 1, 45, 64
3, 420480, Note_on_c, 1, 53, 77
3, 420480, Note_on_c, 1, 41, 77
3, 420656, Note_on_c, 1, 38, 80
3, 420668, Note_off_c, 1, 53, 64
3, 420668, Note_off_c, 1, 41, 64
3, 420672, Note_on_c, 1, 50, 77
3, 420844, Note_off_c, 1, 38, 64
3, 420860, Note_off_c, 1, 50, 64
3, 420864, Note_on_c, 1, 57, 77
3, 420864, Note_on_c, 1, 45, 77
3, 421244, Note_off_c, 1, 57, 64
3, 421244, Note_off_c, 1, 45, 64
3, 421440, Note_on_c, 1, 49, 77
3, 421440, Note_on_c, 1, 37, 81
3, 421628, Note_off_c, 1, 49, 64
3, 421628, Note_off_c, 1, 37, 64
3, 421632, Note_on_c, 1, 52, 77
3, 421632, Note_on_c, 1, 40, 77
3, 421820, Note_off_c, 1, 52, 64
3, 421820, Note_off_c, 1, 40, 64
3, 421824, Note_on_c, 1, 57, 77
3, 421824, Note_on_c, 1, 45, 77
3, 422012, Note_off_c, 1, 57, 64
3, 422012, Note_off_c, 1, 45, 64
3, 422016, Note_on_c, 1, 61, 77
3, 422016, Note_on_c, 1, 49, 77
3, 422204, Note_off_c, 1, 61, 64
3, 422204, Note_off_c, 1, 49, 64
3, 422208, Note_on_c, 1, 64, 77
3, 422208, Note_on_c, 1, 52, 77
3, 422396, Note_off_c, 1, 64, 64
3, 422396, Note_off_c, 1, 52, 64
3, 422400, Note_on_c, 1, 57, 77
3, 422780, Note_off_c, 1, 57, 64
3, 422976, Note_on_c, 1, 49, 77
3, 423164, Note_off_c, 1, 49, 64
3, 423168, Note_on_c, 1, 52, 77
3, 423356, Note_off_c, 1, 52, 64
3, 423360, Note_on_c, 1, 57, 77
3, 423548, Note_off_c, 1, 57, 64
3, 423552, Note_on_c, 1, 61, 77
3, 423740, Note_off_c, 1, 61, 64
3, 423744, Note_on_c, 1, 64, 77
3, 423932, Note_off_c, 1, 64, 64
3, 425472, Note_on_c, 1, 53, 77
3, 425472, Note_on_c, 1, 50, 77
3, 425852, Note_off_c, 1, 53, 64
3, 425852, Note_off_c, 1, 50, 64
3, 425856, Note_on_c, 1, 53, 77
3, 425856, Note_on_c, 1, 50, 77
3, 426236, Note_off_c, 1, 53, 64
3, 426236, Note_off_c, 1, 50, 64
3, 426240, Note_on_c, 1, 53, 77
3, 426240, Note_on_c, 1, 50, 77
3, 426620, Note_off_c, 1, 53, 64
3, 426620, Note_off_c, 1, 50, 64
3, 427008, Note_on_c, 1, 55, 77
3, 427008, Note_on_c, 1, 52, 77
3, 427008, Note_on_c, 1, 49, 77
3, 427388, Note_off_c, 1, 55, 64
3, 427388, Note_off_c, 1, 52, 64
3, 427388, Note_off_c, 1, 49, 64
3, 427392, Note_on_c, 1, 55, 77
3, 427392, Note_on_c, 1, 52, 77
3, 427392, Note_on_c, 1, 49, 77
3, 427772, Note_off_c, 1, 55, 64
3, 427772, Note_off_c, 1, 52, 64
3, 427772, Note_off_c, 1, 49, 64
3, 427776, Note_on_c, 1, 55, 77
3, 427776, Note_on_c, 1, 52, 77
3, 427776, Note_on_c, 1, 49, 77
3, 428156, Note_off_c, 1, 55, 64
3, 428156, Note_off_c, 1, 52, 64
3, 428156, Note_off_c, 1, 49, 64
3, 428544, Note_on_c, 1, 53, 77
3, 428544, Note_on_c, 1, 50, 77
3, 428924, Note_off_c, 1, 53, 64
3, 428924, Note_off_c, 1, 50, 64
3, 429312, Note_on_c, 1, 64, 77
3, 429312, Note_on_c, 1, 55, 77
3, 429692, Note_off_c, 1, 64, 64
3, 429692, Note_off_c, 1, 55, 64
3, 430080, Note_on_c, 1, 62, 77
3, 430080, Note_on_c, 1, 57, 77
3, 430460, Note_off_c, 1, 62, 64
3, 430460, Note_off_c, 1, 57, 64
3, 430848, Note_on_c, 1, 61, 77
3, 430848, Note_on_c, 1, 57, 77
3, 431228, Note_off_c, 1, 61, 64
3, 431228, Note_off_c, 1, 57, 64
3, 432000, Note_on_c, 1, 65, 77
3, 432000, Note_on_c, 1, 62, 77
3, 432000, Note_on_c, 1, 57, 77
3, 432380, Note_off_c, 1, 65, 64
3, 432380, Note_off_c, 1, 62, 64
3, 432380, Note_off_c, 1, 57, 64
3, 432384, Note_on_c, 1, 65, 77
3, 432384, Note_on_c, 1, 62, 77
3, 432384, Note_on_c, 1, 57, 77
3, 432764, Note_off_c, 1, 65, 64
3, 432764, Note_off_c, 1, 62, 64
3, 432764, Note_off_c, 1, 57, 64
3, 432768, Note_on_c, 1, 65, 77
3, 432768, Note_on_c, 1, 62, 77
3, 432768, Note_on_c, 1, 57, 77
3, 433148, Note_off_c, 1, 65, 64
3, 433148, Note_off_c, 1, 62, 64
3, 433148, Note_off_c, 1, 57, 64
3, 433152, Note_on_c, 1, 64, 77
3, 433152, Note_on_c, 1, 61, 77
3, 433152, Note_on_c, 1, 57, 77
3, 433532, Note_off_c, 1, 64, 64
3, 433532, Note_off_c, 1, 61, 64
3, 433532, Note_off_c, 1, 57, 64
3, 438528, Note_on_c, 1, 55, 77
3, 438528, Note_on_c, 1, 64, 77
3, 438908, Note_off_c, 1, 55, 64
3, 438908, Note_off_c, 1, 64, 64
3, 439296, Note_on_c, 1, 62, 77
3, 439296, Note_on_c, 1, 57, 77
3, 439676, Note_off_c, 1, 62, 64
3, 439676, Note_off_c, 1, 57, 64
3, 440064, Note_on_c, 1, 61, 77
3, 440064, Note_on_c, 1, 57, 77
3, 440444, Note_off_c, 1, 61, 64
3, 440444, Note_off_c, 1, 57, 64
3, 440832, Note_on_c, 1, 58, 77
3, 442364, Note_off_c, 1, 58, 64
3, 442368, Note_on_c, 1, 57, 77
3, 443900, Note_off_c, 1, 57, 64
3, 443904, Note_on_c, 1, 58, 77
3, 445436, Note_off_c, 1, 58, 64
3, 445440, Note_on_c, 1, 57, 77
3, 446972, Note_off_c, 1, 57, 64
3, 446976, Note_on_c, 1, 58, 77
3, 448508, Note_off_c, 1, 58, 64
3, 448512, Note_on_c, 1, 59, 77
3, 450044, Note_off_c, 1, 59, 64
3, 450048, Note_on_c, 1, 57, 77
3, 450428, Note_off_c, 1, 57, 64
3, 451584, Note_on_c, 1, 45, 77
3, 451964, Note_off_c, 1, 45, 64
3, 453120, Note_on_c, 1, 50, 77
3, 453500, Note_off_c, 1, 50, 64
3, 461568, Note_on_c, 1, 64, 77
3, 461756, Note_off_c, 1, 64, 64
3, 461760, Note_on_c, 1, 65, 77
3, 461948, Note_off_c, 1, 65, 64
3, 461952, Note_on_c, 1, 62, 77
3, 462140, Note_off_c, 1, 62, 64
3, 462144, Note_on_c, 1, 64, 77
3, 462332, Note_off_c, 1, 64, 64
3, 462336, Note_on_c, 1, 61, 77
3, 462524, Note_off_c, 1, 61, 64
3, 462528, Note_on_c, 1, 64, 77
3, 462716, Note_off_c, 1, 64, 64
3, 462720, Note_on_c, 1, 62, 77
3, 462908, Note_off_c, 1, 62, 64
3, 462912, Note_on_c, 1, 64, 77
3, 463100, Note_off_c, 1, 64, 64
3, 463104, Note_on_c, 1, 61, 77
3, 463292, Note_off_c, 1, 61, 64
3, 463296, Note_on_c, 1, 62, 77
3, 463484, Note_off_c, 1, 62, 64
3, 463488, Note_on_c, 1, 59, 77
3, 463676, Note_off_c, 1, 59, 64
3, 463680, Note_on_c, 1, 61, 77
3, 463868, Note_off_c, 1, 61, 64
3, 463872, Note_on_c, 1, 57, 77
3, 464060, Note_off_c, 1, 57, 64
3, 464064, Note_on_c, 1, 61, 77
3, 464252, Note_off_c, 1, 61, 64
3, 464256, Note_on_c, 1, 55, 77
3, 464444, Note_off_c, 1, 55, 64
3, 464448, Note_on_c, 1, 64, 77
3, 464636, Note_off_c, 1, 64, 64
3, 464640, Note_on_c, 1, 53, 77
3, 464828, Note_off_c, 1, 53, 64
3, 464832, Note_on_c, 1, 62, 77
3, 465020, Note_off_c, 1, 62, 64
3, 465024, Note_on_c, 1, 52, 77
3, 465212, Note_off_c, 1, 52, 64
3, 465216, Note_on_c, 1, 61, 77
3, 465404, Note_off_c, 1, 61, 64
3, 465408, Note_on_c, 1, 52, 77
3, 466172, Note_off_c, 1, 52, 64
3, 466560, Note_on_c, 1, 48, 77
3, 466940, Note_off_c, 1, 48, 64
3, 466944, Note_on_c, 1, 46, 77
3, 467708, Note_off_c, 1, 46, 64
3, 468096, Note_on_c, 1, 47, 77
3, 468476, Note_off_c, 1, 47, 64
3, 468480, Note_on_c, 1, 45, 77
3, 469244, Note_off_c, 1, 45, 64
3, 471936, Note_on_c, 1, 62, 77
3, 471936, Note_on_c, 1, 57, 77
3, 471936, Note_on_c, 1, 53, 77
3, 472316, Note_off_c, 1, 62, 64
3, 472316, Note_off_c, 1, 57, 64
3, 472316, Note_off_c, 1, 53, 64
3, 472320, Note_on_c, 1, 62, 77
3, 472320, Note_on_c, 1, 57, 77
3, 472320, Note_on_c, 1, 53, 77
3, 472700, Note_off_c, 1, 62, 64
3, 472700, Note_off_c, 1, 57, 64
3, 472700, Note_off_c, 1, 53, 64
3, 472704, Note_on_c, 1, 62, 77
3, 472704, Note_on_c, 1, 57, 77
3, 472704, Note_on_c, 1, 53, 77
3, 473084, Note_off_c, 1, 62, 64
3, 473084, Note_off_c, 1, 57, 64
3, 473084, Note_off_c, 1, 53, 64
3, 473088, Note_on_c, 1, 45, 77
3, 473468, Note_off_c, 1, 45, 64
3, 473472, Note_on_c, 1, 61, 77
3, 473472, Note_on_c, 1, 57, 77
3, 473472, Note_on_c, 1, 55, 77
3, 473852, Note_off_c, 1, 61, 64
3, 473852, Note_off_c, 1, 57, 64
3, 473852, Note_off_c, 1, 55, 64
3, 473856, Note_on_c, 1, 57, 77
3, 473856, Note_on_c, 1, 55, 77
3, 473856, Note_on_c, 1, 61, 77
3, 474236, Note_off_c, 1, 57, 64
3, 474236, Note_off_c, 1, 55, 64
3, 474236, Note_off_c, 1, 61, 64
3, 474240, Note_on_c, 1, 61, 77
3, 474240, Note_on_c, 1, 57, 77
3, 474240, Note_on_c, 1, 55, 77
3, 474620, Note_off_c, 1, 61, 64
3, 474620, Note_off_c, 1, 57, 64
3, 474620, Note_off_c, 1, 55, 64
3, 474624, Note_on_c, 1, 50, 77
3, 475004, Note_off_c, 1, 50, 64
3, 475008, Note_on_c, 1, 62, 77
3, 475008, Note_on_c, 1, 57, 77
3, 475008, Note_on_c, 1, 53, 77
3, 475388, Note_off_c, 1, 62, 64
3, 475388, Note_off_c, 1, 57, 64
3, 475388, Note_off_c, 1, 53, 64
3, 475392, Note_on_c, 1, 48, 77
3, 475772, Note_off_c, 1, 48, 64
3, 475776, Note_on_c, 1, 62, 77
3, 475776, Note_on_c, 1, 57, 77
3, 475776, Note_on_c, 1, 54, 77
3, 476156, Note_off_c, 1, 62, 64
3, 476156, Note_off_c, 1, 57, 64
3, 476156, Note_off_c, 1, 54, 64
3, 476160, Note_on_c, 1, 47, 77
3, 476540, Note_off_c, 1, 47, 64
3, 476544, Note_on_c, 1, 62, 77
3, 476544, Note_on_c, 1, 59, 77
3, 476544, Note_on_c, 1, 55, 77
3, 476924, Note_off_c, 1, 62, 64
3, 476924, Note_off_c, 1, 59, 64
3, 476924, Note_off_c, 1, 55, 64
3, 476928, Note_on_c, 1, 50, 77
3, 477308, Note_off_c, 1, 50, 64
3, 477312, Note_on_c, 1, 64, 77
3, 477312, Note_on_c, 1, 59, 77
3, 477312, Note_on_c, 1, 56, 77
3, 477692, Note_off_c, 1, 64, 64
3, 477692, Note_off_c, 1, 59, 64
3, 477692, Note_off_c, 1, 56, 64
3, 477696, Note_on_c, 1, 49, 77
3, 478076, Note_off_c, 1, 49, 64
3, 478080, Note_on_c, 1, 57, 77
3, 478080, Note_on_c, 1, 64, 77
3, 478460, Note_off_c, 1, 57, 64
3, 478460, Note_off_c, 1, 64, 64
3, 478464, Note_on_c, 1, 45, 77
3, 478844, Note_off_c, 1, 45, 64
3, 478848, Note_on_c, 1, 57, 77
3, 478848, Note_on_c, 1, 61, 77
3, 479228, Note_off_c, 1, 57, 64
3, 479228, Note_off_c, 1, 61, 64
3, 479232, Note_on_c, 1, 49, 77
3, 479612, Note_off_c, 1, 49, 64
3, 479616, Note_on_c, 1, 64, 77
3, 479616, Note_on_c, 1, 57, 77
3, 479616, Note_on_c, 1, 55, 77
3, 479996, Note_off_c, 1, 64, 64
3, 479996, Note_off_c, 1, 57, 64
3, 479996, Note_off_c, 1, 55, 64
3, 480000, Note_on_c, 1, 64, 77
3, 480000, Note_on_c, 1, 57, 77
3, 480000, Note_on_c, 1, 55, 77
3, 480380, Note_off_c, 1, 64, 64
3, 480380, Note_off_c, 1, 57, 64
3, 480380, Note_off_c, 1, 55, 64
3, 480384, Note_on_c, 1, 64, 77
3, 480384, Note_on_c, 1, 57, 77
3, 480384, Note_on_c, 1, 55, 77
3, 480764, Note_off_c, 1, 64, 64
3, 480764, Note_off_c, 1, 57, 64
3, 480764, Note_off_c, 1, 55, 64
3, 480768, Note_on_c, 1, 50, 77
3, 481148, Note_off_c, 1, 50, 64
3, 481152, Note_on_c, 1, 62, 77
3, 481152, Note_on_c, 1, 57, 77
3, 481152, Note_on_c, 1, 53, 77
3, 481532, Note_off_c, 1, 62, 64
3, 481532, Note_off_c, 1, 57, 64
3, 481532, Note_off_c, 1, 53, 64
3, 481536, Note_on_c, 1, 46, 77
3, 481916, Note_off_c, 1, 46, 64
3, 481920, Note_on_c, 1, 62, 77
3, 481920, Note_on_c, 1, 56, 77
3, 481920, Note_on_c, 1, 53, 77
3, 482300, Note_off_c, 1, 62, 64
3, 482300, Note_off_c, 1, 56, 64
3, 482300, Note_off_c, 1, 53, 64
3, 482304, Note_on_c, 1, 45, 77
3, 482684, Note_off_c, 1, 45, 64
3, 482688, Note_on_c, 1, 62, 77
3, 482688, Note_on_c, 1, 57, 77
3, 482688, Note_on_c, 1, 53, 77
3, 483068, Note_off_c, 1, 62, 64
3, 483068, Note_off_c, 1, 57, 64
3, 483068, Note_off_c, 1, 53, 64
3, 483072, Note_on_c, 1, 45, 77
3, 483452, Note_off_c, 1, 45, 64
3, 483456, Note_on_c, 1, 61, 77
3, 483456, Note_on_c, 1, 57, 77
3, 483456, Note_on_c, 1, 55, 77
3, 483836, Note_off_c, 1, 61, 64
3, 483836, Note_off_c, 1, 57, 64
3, 483836, Note_off_c, 1, 55, 64
3, 483840, Note_on_c, 1, 61, 77
3, 483840, Note_on_c, 1, 57, 77
3, 483840, Note_on_c, 1, 55, 77
3, 483840, Note_on_c, 1, 50, 77
3, 484220, Note_off_c, 1, 61, 64
3, 484220, Note_off_c, 1, 57, 64
3, 484220, Note_off_c, 1, 55, 64
3, 484220, Note_off_c, 1, 50, 64
3, 484224, Note_on_c, 1, 62, 77
3, 484224, Note_on_c, 1, 53, 77
3, 484604, Note_off_c, 1, 62, 64
3, 484604, Note_off_c, 1, 53, 64
3, 484608, Note_on_c, 1, 62, 77
3, 484608, Note_on_c, 1, 53, 77
3, 484796, Note_off_c, 1, 62, 64
3, 484796, Note_off_c, 1, 53, 64
3, 497664, Note_on_c, 1, 55, 77
3, 497852, Note_off_c, 1, 55, 64
3, 497856, Note_on_c, 1, 67, 77
3, 498044, Note_off_c, 1, 67, 64
3, 498048, Note_on_c, 1, 53, 77
3, 498236, Note_off_c, 1, 53, 64
3, 498240, Note_on_c, 1, 65, 77
3, 498428, Note_off_c, 1, 65, 64
3, 498432, Note_on_c, 1, 52, 77
3, 498620, Note_off_c, 1, 52, 64
3, 498624, Note_on_c, 1, 64, 77
3, 498812, Note_off_c, 1, 64, 64
3, 498816, Note_on_c, 1, 50, 77
3, 499004, Note_off_c, 1, 50, 64
3, 499008, Note_on_c, 1, 62, 77
3, 499196, Note_off_c, 1, 62, 64
3, 499200, Note_on_c, 1, 60, 77
3, 499580, Note_off_c, 1, 60, 64
3, 499584, Note_on_c, 1, 58, 77
3, 499964, Note_off_c, 1, 58, 64
3, 499968, Note_on_c, 1, 57, 77
3, 500348, Note_off_c, 1, 57, 64
3, 500352, Note_on_c, 1, 55, 77
3, 500732, Note_off_c, 1, 55, 64
3, 500736, Note_on_c, 1, 53, 77
3, 500924, Note_off_c, 1, 53, 64
3, 500928, Note_on_c, 1, 65, 77
3, 501116, Note_off_c, 1, 65, 64
3, 501120, Note_on_c, 1, 52, 77
3, 501308, Note_off_c, 1, 52, 64
3, 501312, Note_on_c, 1, 64, 77
3, 501500, Note_off_c, 1, 64, 64
3, 501504, Note_on_c, 1, 50, 77
3, 501692, Note_off_c, 1, 50, 64
3, 501696, Note_on_c, 1, 62, 77
3, 501884, Note_off_c, 1, 62, 64
3, 501888, Note_on_c, 1, 48, 77
3, 502076, Note_off_c, 1, 48, 64
3, 502080, Note_on_c, 1, 60, 77
3, 502268, Note_off_c, 1, 60, 64
3, 502272, Note_on_c, 1, 58, 77
3, 502652, Note_off_c, 1, 58, 64
3, 502656, Note_on_c, 1, 57, 77
3, 503036, Note_off_c, 1, 57, 64
3, 503040, Note_on_c, 1, 55, 77
3, 503420, Note_off_c, 1, 55, 64
3, 503424, Note_on_c, 1, 53, 77
3, 503804, Note_off_c, 1, 53, 64
3, 503808, Note_on_c, 1, 52, 77
3, 503996, Note_off_c, 1, 52, 64
3, 504000, Note_on_c, 1, 64, 77
3, 504188, Note_off_c, 1, 64, 64
3, 504192, Note_on_c, 1, 50, 77
3, 504380, Note_off_c, 1, 50, 64
3, 504384, Note_on_c, 1, 62, 77
3, 504572, Note_off_c, 1, 62, 64
3, 504576, Note_on_c, 1, 49, 77
3, 504764, Note_off_c, 1, 49, 64
3, 504768, Note_on_c, 1, 61, 77
3, 504956, Note_off_c, 1, 61, 64
3, 504960, Note_on_c, 1, 47, 77
3, 505148, Note_off_c, 1, 47, 64
3, 505152, Note_on_c, 1, 59, 77
3, 505340, Note_off_c, 1, 59, 64
3, 505344, Note_on_c, 1, 45, 77
3, 505532, Note_off_c, 1, 45, 64
3, 505536, Note_on_c, 1, 57, 77
3, 505724, Note_off_c, 1, 57, 64
3, 505728, Note_on_c, 1, 43, 77
3, 505916, Note_off_c, 1, 43, 64
3, 505920, Note_on_c, 1, 55, 77
3, 506108, Note_off_c, 1, 55, 64
3, 506112, Note_on_c, 1, 41, 77
3, 506300, Note_off_c, 1, 41, 64
3, 506304, Note_on_c, 1, 53, 77
3, 506492, Note_off_c, 1, 53, 64
3, 506496, Note_on_c, 1, 40, 77
3, 506684, Note_off_c, 1, 40, 64
3, 506688, Note_on_c, 1, 52, 77
3, 506876, Note_off_c, 1, 52, 64
3, 506880, Note_on_c, 1, 38, 77
3, 507068, Note_off_c, 1, 38, 64
3, 507072, Note_on_c, 1, 50, 77
3, 507260, Note_off_c, 1, 50, 64
3, 507264, Note_on_c, 1, 36, 77
3, 507452, Note_off_c, 1, 36, 64
3, 507456, Note_on_c, 1, 48, 77
3, 507644, Note_off_c, 1, 48, 64
3, 507648, Note_on_c, 1, 34, 77
3, 507836, Note_off_c, 1, 34, 64
3, 507840, Note_on_c, 1, 46, 77
3, 508028, Note_off_c, 1, 46, 64
3, 508032, Note_on_c, 1, 33, 77
3, 508220, Note_off_c, 1, 33, 64
3, 508224, Note_on_c, 1, 45, 77
3, 508412, Note_off_c, 1, 45, 64
3, 508416, Note_on_c, 1, 44, 78
3, 508416, Note_on_c, 1, 32, 85
3, 508608, Note_on_c, 1, 50, 77
3, 508796, Note_off_c, 1, 50, 64
3, 508800, Note_on_c, 1, 53, 77
3, 508988, Note_off_c, 1, 53, 64
3, 508992, Note_on_c, 1, 56, 77
3, 509180, Note_off_c, 1, 56, 64
3, 509948, Note_off_c, 1, 44, 64
3, 509948, Note_off_c, 1, 32, 64
3, 513792, Note_on_c, 1, 56, 77
3, 513792, Note_on_c, 1, 44, 77
3, 514172, Note_off_c, 1, 56, 64
3, 514172, Note_off_c, 1, 44, 64
3, 514560, Note_on_c, 1, 57, 77
3, 514560, Note_on_c, 1, 45, 77
3, 515324, Note_off_c, 1, 57, 64
3, 515324, Note_off_c, 1, 45, 64
3, 526848, Note_on_c, 1, 58, 100
3, 527228, Note_off_c, 1, 58, 64
3, 527232, Note_on_c, 1, 53, 100
3, 527420, Note_off_c, 1, 53, 64
3, 527616, Note_on_c, 1, 50, 100
3, 527804, Note_off_c, 1, 50, 64
3, 528000, Note_on_c, 1, 46, 100
3, 528188, Note_off_c, 1, 46, 64
3, 528384, Note_on_c, 1, 45, 100
3, 528572, Note_off_c, 1, 45, 64
3, 528768, Note_on_c, 1, 48, 100
3, 528956, Note_off_c, 1, 48, 64
3, 529152, Note_on_c, 1, 53, 100
3, 529340, Note_off_c, 1, 53, 64
3, 529536, Note_on_c, 1, 57, 100
3, 529724, Note_off_c, 1, 57, 64
3, 529920, Note_on_c, 1, 58, 100
3, 530108, Note_off_c, 1, 58, 64
3, 530304, Note_on_c, 1, 53, 100
3, 530492, Note_off_c, 1, 53, 64
3, 530688, Note_on_c, 1, 50, 100
3, 530876, Note_off_c, 1, 50, 64
3, 531072, Note_on_c, 1, 46, 100
3, 531260, Note_off_c, 1, 46, 64
3, 531456, Note_on_c, 1, 45, 100
3, 531644, Note_off_c, 1, 45, 64
3, 531840, Note_on_c, 1, 48, 100
3, 532028, Note_off_c, 1, 48, 64
3, 532224, Note_on_c, 1, 54, 100
3, 532412, Note_off_c, 1, 54, 64
3, 532608, Note_on_c, 1, 57, 100
3, 532796, Note_off_c, 1, 57, 64
3, 532992, Note_on_c, 1, 58, 100
3, 533180, Note_off_c, 1, 58, 64
3, 533376, Note_on_c, 1, 55, 100
3, 533564, Note_off_c, 1, 55, 64
3, 533760, Note_on_c, 1, 50, 100
3, 533948, Note_off_c, 1, 50, 64
3, 534144, Note_on_c, 1, 46, 100
3, 534332, Note_off_c, 1, 46, 64
3, 534528, Note_on_c, 1, 50, 100
3, 534716, Note_off_c, 1, 50, 64
3, 534912, Note_on_c, 1, 56, 100
3, 535100, Note_off_c, 1, 56, 64
3, 535296, Note_on_c, 1, 59, 100
3, 535484, Note_off_c, 1, 59, 64
3, 535680, Note_on_c, 1, 62, 100
3, 535868, Note_off_c, 1, 62, 64
3, 536064, Note_on_c, 1, 61, 100
3, 536252, Note_off_c, 1, 61, 64
3, 536832, Note_on_c, 1, 62, 100
3, 537020, Note_off_c, 1, 62, 64
3, 537600, Note_on_c, 1, 55, 100
3, 537600, Note_on_c, 1, 43, 100
3, 537980, Note_off_c, 1, 55, 64
3, 537980, Note_off_c, 1, 43, 64
3, 538368, Note_on_c, 1, 56, 100
3, 538368, Note_on_c, 1, 44, 100
3, 538748, Note_off_c, 1, 56, 64
3, 538748, Note_off_c, 1, 44, 64
3, 539136, Note_on_c, 1, 57, 100
3, 539136, Note_on_c, 1, 45, 100
3, 540284, Note_off_c, 1, 57, 64
3, 540284, Note_off_c, 1, 45, 64
3, 541248, Note_on_c, 1, 50, 84
3, 541436, Note_off_c, 1, 50, 64
3, 541440, Note_on_c, 1, 53, 84
3, 541628, Note_off_c, 1, 53, 64
3, 541632, Note_on_c, 1, 57, 84
3, 541820, Note_off_c, 1, 57, 64
3, 542784, Note_on_c, 1, 53, 84
3, 542972, Note_off_c, 1, 53, 64
3, 542976, Note_on_c, 1, 57, 84
3, 543164, Note_off_c, 1, 57, 64
3, 547200, Note_on_c, 1, 43, 84
3, 547388, Note_off_c, 1, 43, 64
3, 547392, Note_on_c, 1, 46, 84
3, 547580, Note_off_c, 1, 46, 64
3, 547584, Note_on_c, 1, 50, 84
3, 547772, Note_off_c, 1, 50, 64
3, 547776, Note_on_c, 1, 55, 84
3, 547964, Note_off_c, 1, 55, 64
3, 547968, Note_on_c, 1, 58, 84
3, 548156, Note_off_c, 1, 58, 64
3, 548160, Note_on_c, 1, 62, 84
3, 548348, Note_off_c, 1, 62, 64
3, 548352, Note_on_c, 1, 67, 84
3, 548732, Note_off_c, 1, 67, 64
3, 553344, Note_on_c, 1, 41, 85
3, 553532, Note_off_c, 1, 41, 64
3, 553536, Note_on_c, 1, 45, 84
3, 553724, Note_off_c, 1, 45, 64
3, 553728, Note_on_c, 1, 48, 84
3, 553916, Note_off_c, 1, 48, 64
3, 553920, Note_on_c, 1, 53, 84
3, 554108, Note_off_c, 1, 53, 64
3, 554112, Note_on_c, 1, 57, 86
3, 554300, Note_off_c, 1, 57, 64
3, 554304, Note_on_c, 1, 60, 90
3, 554492, Note_off_c, 1, 60, 64
3, 554496, Note_on_c, 1, 65, 84
3, 554876, Note_off_c, 1, 65, 64
3, 559488, Note_on_c, 1, 40, 86
3, 559676, Note_off_c, 1, 40, 64
3, 559680, Note_on_c, 1, 43, 84
3, 559868, Note_off_c, 1, 43, 64
3, 559872, Note_on_c, 1, 46, 84
3, 560060, Note_off_c, 1, 46, 64
3, 560064, Note_on_c, 1, 52, 84
3, 560252, Note_off_c, 1, 52, 64
3, 560256, Note_on_c, 1, 55, 85
3, 560444, Note_off_c, 1, 55, 64
3, 560448, Note_on_c, 1, 58, 89
3, 560636, Note_off_c, 1, 58, 64
3, 560640, Note_on_c, 1, 64, 84
3, 561020, Note_off_c, 1, 64, 64
3, 565248, Note_on_c, 1, 50, 84
3, 565248, Note_on_c, 1, 38, 88
3, 565628, Note_off_c, 1, 50, 64
3, 565628, Note_off_c, 1, 38, 64
3, 569856, Note_on_c, 1, 50, 110
3, 569856, Note_on_c, 1, 38, 113
3, 570620, Note_off_c, 1, 50, 64
3, 570620, Note_off_c, 1, 38, 64
3, 570624, Note_on_c, 1, 42, 111
3, 570716, Note_off_c, 1, 42, 64
3, 570720, Note_on_c, 1, 43, 110
3, 570812, Note_off_c, 1, 43, 64
3, 570816, Note_on_c, 1, 42, 111
3, 570908, Note_off_c, 1, 42, 64
3, 570912, Note_on_c, 1, 43, 110
3, 571004, Note_off_c, 1, 43, 64
3, 571008, Note_on_c, 1, 42, 111
3, 571100, Note_off_c, 1, 42, 64
3, 571104, Note_on_c, 1, 43, 110
3, 571184, Note_on_c, 1, 40, 112
3, 571196, Note_off_c, 1, 43, 64
3, 571276, Note_off_c, 1, 40, 64
3, 571296, Note_on_c, 1, 42, 111
3, 571388, Note_off_c, 1, 42, 64
3, 571536, Note_on_c, 1, 43, 110
3, 571916, Note_off_c, 1, 43, 64
3, 572160, Note_on_c, 1, 60, 110
3, 572160, Note_on_c, 1, 57, 110
3, 572924, Note_off_c, 1, 60, 64
3, 572924, Note_off_c, 1, 57, 64
3, 572928, Note_on_c, 1, 55, 110
3, 572928, Note_on_c, 1, 43, 110
3, 573692, Note_off_c, 1, 55, 64
3, 573692, Note_off_c, 1, 43, 64
3, 573696, Note_on_c, 1, 46, 110
3, 573788, Note_off_c, 1, 46, 64
3, 573792, Note_on_c, 1, 48, 110
3, 573884, Note_off_c, 1, 48, 64
3, 573888, Note_on_c, 1, 46, 110
3, 573980, Note_off_c, 1, 46, 64
3, 573984, Note_on_c, 1, 48, 110
3, 574076, Note_off_c, 1, 48, 64
3, 574080, Note_on_c, 1, 46, 110
3, 574172, Note_off_c, 1, 46, 64
3, 574176, Note_on_c, 1, 48, 110
3, 574268, Note_off_c, 1, 48, 64
3, 574272, Note_on_c, 1, 45, 110
3, 574364, Note_off_c, 1, 45, 64
3, 574368, Note_on_c, 1, 46, 110
3, 574460, Note_off_c, 1, 46, 64
3, 574608, Note_on_c, 1, 48, 110
3, 574988, Note_off_c, 1, 48, 64
3, 575232, Note_on_c, 1, 62, 110
3, 575232, Note_on_c, 1, 65, 110
3, 575996, Note_off_c, 1, 62, 64
3, 575996, Note_off_c, 1, 65, 64
3, 576000, Note_on_c, 1, 60, 110
3, 576000, Note_on_c, 1, 48, 110
3, 576764, Note_off_c, 1, 60, 64
3, 576764, Note_off_c, 1, 48, 64
3, 576768, Note_on_c, 1, 45, 110
3, 576768, Note_on_c, 1, 52, 110
3, 576860, Note_off_c, 1, 52, 64
3, 576864, Note_on_c, 1, 53, 110
3, 576956, Note_off_c, 1, 53, 64
3, 576960, Note_on_c, 1, 52, 110
3, 577052, Note_off_c, 1, 52, 64
3, 577056, Note_on_c, 1, 53, 110
3, 577148, Note_off_c, 1, 53, 64
3, 577152, Note_on_c, 1, 52, 110
3, 577244, Note_off_c, 1, 52, 64
3, 577248, Note_on_c, 1, 53, 110
3, 577340, Note_off_c, 1, 53, 64
3, 577344, Note_on_c, 1, 50, 110
3, 577436, Note_off_c, 1, 50, 64
3, 577440, Note_on_c, 1, 52, 110
3, 577532, Note_off_c, 1, 45, 64
3, 577532, Note_off_c, 1, 52, 64
3, 577680, Note_on_c, 1, 53, 110
3, 578060, Note_off_c, 1, 53, 64
3, 579072, Note_on_c, 1, 53, 110
3, 579072, Note_on_c, 1, 41, 111
3, 579836, Note_off_c, 1, 53, 64
3, 579836, Note_off_c, 1, 41, 64
3, 579840, Note_on_c, 1, 45, 110
3, 579932, Note_off_c, 1, 45, 64
3, 579936, Note_on_c, 1, 46, 110
3, 580028, Note_off_c, 1, 46, 64
3, 580032, Note_on_c, 1, 45, 110
3, 580124, Note_off_c, 1, 45, 64
3, 580128, Note_on_c, 1, 46, 110
3, 580220, Note_off_c, 1, 46, 64
3, 580224, Note_on_c, 1, 45, 110
3, 580316, Note_off_c, 1, 45, 64
3, 580320, Note_on_c, 1, 46, 110
3, 580412, Note_off_c, 1, 46, 64
3, 580416, Note_on_c, 1, 43, 110
3, 580508, Note_off_c, 1, 43, 64
3, 580512, Note_on_c, 1, 45, 110
3, 580604, Note_off_c, 1, 45, 64
3, 580608, Note_on_c, 1, 46, 110
3, 580988, Note_off_c, 1, 46, 64
3, 595968, Note_on_c, 1, 62, 99
3, 596156, Note_off_c, 1, 62, 64
3, 596160, Note_on_c, 1, 62, 99
3, 596348, Note_off_c, 1, 62, 64
3, 596352, Note_on_c, 1, 58, 99
3, 596540, Note_off_c, 1, 58, 64
3, 596544, Note_on_c, 1, 60, 99
3, 596732, Note_off_c, 1, 60, 64
3, 596736, Note_on_c, 1, 57, 99
3, 596924, Note_off_c, 1, 57, 64
3, 596928, Note_on_c, 1, 58, 99
3, 597116, Note_off_c, 1, 58, 64
3, 597120, Note_on_c, 1, 55, 99
3, 597308, Note_off_c, 1, 55, 64
3, 597312, Note_on_c, 1, 57, 99
3, 597500, Note_off_c, 1, 57, 64
3, 597504, Note_on_c, 1, 53, 99
3, 597692, Note_off_c, 1, 53, 64
3, 597696, Note_on_c, 1, 55, 99
3, 597884, Note_off_c, 1, 55, 64
3, 597888, Note_on_c, 1, 52, 99
3, 598076, Note_off_c, 1, 52, 64
3, 598080, Note_on_c, 1, 53, 99
3, 598268, Note_off_c, 1, 53, 64
3, 598272, Note_on_c, 1, 50, 99
3, 598460, Note_off_c, 1, 50, 64
3, 598464, Note_on_c, 1, 52, 99
3, 598652, Note_off_c, 1, 52, 64
3, 598656, Note_on_c, 1, 48, 99
3, 598844, Note_off_c, 1, 48, 64
3, 598848, Note_on_c, 1, 50, 99
3, 599036, Note_off_c, 1, 50, 64
3, 599040, Note_on_c, 1, 46, 99
3, 599228, Note_off_c, 1, 46, 64
3, 599232, Note_on_c, 1, 48, 99
3, 599420, Note_off_c, 1, 48, 64
3, 599424, Note_on_c, 1, 45, 99
3, 599612, Note_off_c, 1, 45, 64
3, 599616, Note_on_c, 1, 46, 99
3, 599804, Note_off_c, 1, 46, 64
3, 599808, Note_on_c, 1, 43, 99
3, 599996, Note_off_c, 1, 43, 64
3, 600000, Note_on_c, 1, 45, 99
3, 600188, Note_off_c, 1, 45, 64
3, 600192, Note_on_c, 1, 41, 100
3, 600380, Note_off_c, 1, 41, 64
3, 600384, Note_on_c, 1, 43, 99
3, 600572, Note_off_c, 1, 43, 64
3, 600576, Note_on_c, 1, 40, 101
3, 600764, Note_off_c, 1, 40, 64
3, 600768, Note_on_c, 1, 41, 100
3, 600956, Note_off_c, 1, 41, 64
3, 600960, Note_on_c, 1, 38, 102
3, 601148, Note_off_c, 1, 38, 64
3, 601152, Note_on_c, 1, 40, 101
3, 601340, Note_off_c, 1, 40, 64
3, 601344, Note_on_c, 1, 37, 103
3, 601532, Note_off_c, 1, 37, 64
3, 601536, Note_on_c, 1, 38, 102
3, 601724, Note_off_c, 1, 38, 64
3, 601728, Note_on_c, 1, 35, 104
3, 601916, Note_off_c, 1, 35, 64
3, 601920, Note_on_c, 1, 37, 103
3, 602108, Note_off_c, 1, 37, 64
3, 602112, Note_on_c, 1, 33, 99
3, 602112, Note_on_c, 1, 45, 105
3, 602492, Note_off_c, 1, 33, 64
3, 602492, Note_off_c, 1, 45, 64
3, 605184, Note_on_c, 1, 62, 99
3, 605184, Note_on_c, 1, 58, 99
3, 605564, Note_off_c, 1, 62, 64
3, 605564, Note_off_c, 1, 58, 64
3, 605568, Note_on_c, 1, 60, 99
3, 605568, Note_on_c, 1, 57, 99
3, 605948, Note_off_c, 1, 60, 64
3, 605948, Note_off_c, 1, 57, 64
3, 605952, Note_on_c, 1, 58, 99
3, 605952, Note_on_c, 1, 55, 99
3, 606332, Note_off_c, 1, 58, 64
3, 606332, Note_off_c, 1, 55, 64
3, 606336, Note_on_c, 1, 57, 99
3, 606336, Note_on_c, 1, 53, 99
3, 606716, Note_off_c, 1, 57, 64
3, 606716, Note_off_c, 1, 53, 64
3, 606720, Note_on_c, 1, 55, 99
3, 606720, Note_on_c, 1, 52, 99
3, 607100, Note_off_c, 1, 55, 64
3, 607100, Note_off_c, 1, 52, 64
3, 607104, Note_on_c, 1, 53, 99
3, 607104, Note_on_c, 1, 50, 99
3, 607484, Note_off_c, 1, 53, 64
3, 607484, Note_off_c, 1, 50, 64
3, 607488, Note_on_c, 1, 52, 99
3, 607488, Note_on_c, 1, 49, 99
3, 607868, Note_off_c, 1, 52, 64
3, 607868, Note_off_c, 1, 49, 64
3, 607872, Note_on_c, 1, 50, 99
3, 607872, Note_on_c, 1, 47, 99
3, 608252, Note_off_c, 1, 50, 64
3, 608252, Note_off_c, 1, 47, 64
3, 608256, Note_on_c, 1, 52, 99
3, 608256, Note_on_c, 1, 49, 99
3, 608444, Note_off_c, 1, 52, 64
3, 608444, Note_off_c, 1, 49, 64
3, 608640, Note_on_c, 1, 45, 99
3, 608640, Note_on_c, 1, 33, 105
3, 609020, Note_off_c, 1, 45, 64
3, 609020, Note_off_c, 1, 33, 64
3, 609024, Note_on_c, 1, 47, 99
3, 609024, Note_on_c, 1, 35, 104
3, 609404, Note_off_c, 1, 47, 64
3, 609404, Note_off_c, 1, 35, 64
3, 609408, Note_on_c, 1, 49, 99
3, 609408, Note_on_c, 1, 37, 103
3, 609788, Note_off_c, 1, 49, 64
3, 609788, Note_off_c, 1, 37, 64
3, 609792, Note_on_c, 1, 50, 99
3, 609792, Note_on_c, 1, 38, 102
3, 610172, Note_off_c, 1, 50, 64
3, 610172, Note_off_c, 1, 38, 64
3, 611328, Note_on_c, 1, 48, 99
3, 611328, Note_on_c, 1, 36, 103
3, 612092, Note_off_c, 1, 48, 64
3, 612092, Note_off_c, 1, 36, 64
3, 612864, Note_on_c, 1, 47, 99
3, 612864, Note_on_c, 1, 35, 104
3, 613628, Note_off_c, 1, 47, 64
3, 613628, Note_off_c, 1, 35, 64
3, 614400, Note_on_c, 1, 46, 99
3, 614400, Note_on_c, 1, 34, 104
3, 615164, Note_off_c, 1, 46, 64
3, 615164, Note_off_c, 1, 34, 64
3, 615936, Note_on_c, 1, 45, 110
3, 615936, Note_on_c, 1, 33, 116
3, 617468, Note_off_c, 1, 45, 64
3, 617468, Note_off_c, 1, 33, 64
3, 617472, Note_on_c, 1, 45, 110
3, 617472, Note_on_c, 1, 33, 116
3, 617660, Note_off_c, 1, 45, 64
3, 617660, Note_off_c, 1, 33, 64
3, 617664, Note_on_c, 1, 49, 110
3, 617664, Note_on_c, 1, 37, 114
3, 617852, Note_off_c, 1, 49, 64
3, 617852, Note_off_c, 1, 37, 64
3, 617856, Note_on_c, 1, 50, 110
3, 617856, Note_on_c, 1, 38, 113
3, 618044, Note_off_c, 1, 50, 64
3, 618044, Note_off_c, 1, 38, 64
3, 618048, Note_on_c, 1, 53, 110
3, 618048, Note_on_c, 1, 41, 111
3, 618236, Note_off_c, 1, 53, 64
3, 618236, Note_off_c, 1, 41, 64
3, 618240, Note_on_c, 1, 50, 110
3, 618240, Note_on_c, 1, 38, 113
3, 618428, Note_off_c, 1, 50, 64
3, 618428, Note_off_c, 1, 38, 64
3, 618432, Note_on_c, 1, 53, 110
3, 618432, Note_on_c, 1, 41, 111
3, 618620, Note_off_c, 1, 53, 64
3, 618620, Note_off_c, 1, 41, 64
3, 618624, Note_on_c, 1, 56, 110
3, 618624, Note_on_c, 1, 44, 110
3, 618812, Note_off_c, 1, 56, 64
3, 618812, Note_off_c, 1, 44, 64
3, 618816, Note_on_c, 1, 59, 110
3, 618816, Note_on_c, 1, 47, 110
3, 619004, Note_off_c, 1, 59, 64
3, 619004, Note_off_c, 1, 47, 64
3, 619008, Note_on_c, 1, 57, 110
3, 619008, Note_on_c, 1, 45, 110
3, 619196, Note_off_c, 1, 57, 64
3, 619196, Note_off_c, 1, 45, 64
3, 619200, Note_on_c, 1, 49, 110
3, 619388, Note_off_c, 1, 49, 64
3, 619392, Note_on_c, 1, 50, 110
3, 619580, Note_off_c, 1, 50, 64
3, 619584, Note_on_c, 1, 53, 110
3, 619772, Note_off_c, 1, 53, 64
3, 619776, Note_on_c, 1, 50, 110
3, 619964, Note_off_c, 1, 50, 64
3, 619968, Note_on_c, 1, 53, 110
3, 620156, Note_off_c, 1, 53, 64
3, 620160, Note_on_c, 1, 56, 110
3, 620348, Note_off_c, 1, 56, 64
3, 620352, Note_on_c, 1, 59, 110
3, 620540, Note_off_c, 1, 59, 64
3, 645696, Note_on_c, 1, 33, 96
3, 645884, Note_off_c, 1, 33, 64
3, 645888, Note_on_c, 1, 37, 97
3, 646076, Note_off_c, 1, 37, 64
3, 646080, Note_on_c, 1, 40, 97
3, 646268, Note_off_c, 1, 40, 64
3, 646272, Note_on_c, 1, 45, 97
3, 646460, Note_off_c, 1, 45, 64
3, 646464, Note_on_c, 1, 49, 99
3, 646652, Note_off_c, 1, 49, 64
3, 646656, Note_on_c, 1, 52, 99
3, 647036, Note_off_c, 1, 52, 64
3, 647232, Note_on_c, 1, 45, 100
3, 647420, Note_off_c, 1, 45, 64
3, 647424, Note_on_c, 1, 49, 101
3, 647612, Note_off_c, 1, 49, 64
3, 647616, Note_on_c, 1, 52, 101
3, 647804, Note_off_c, 1, 52, 64
3, 647808, Note_on_c, 1, 57, 101
3, 647996, Note_off_c, 1, 57, 64
3, 648000, Note_on_c, 1, 61, 102
3, 648188, Note_off_c, 1, 61, 64
3, 648192, Note_on_c, 1, 64, 102
3, 648572, Note_off_c, 1, 64, 64
3, 648768, Note_on_c, 1, 49, 103
3, 648956, Note_off_c, 1, 49, 64
3, 648960, Note_on_c, 1, 52, 103
3, 649148, Note_off_c, 1, 52, 64
3, 649152, Note_on_c, 1, 57, 104
3, 649340, Note_off_c, 1, 57, 64
3, 649344, Note_on_c, 1, 61, 104
3, 649532, Note_off_c, 1, 61, 64
3, 649536, Note_on_c, 1, 64, 104
3, 649724, Note_off_c, 1, 64, 64
3, 649728, Note_on_c, 1, 67, 103
3, 649728, Note_on_c, 1, 61, 108
3, 649768, Note_off_c, 1, 67, 64
3, 649776, Note_on_c, 1, 69, 103
3, 649816, Note_off_c, 1, 69, 64
3, 649824, Note_on_c, 1, 67, 103
3, 649864, Note_off_c, 1, 67, 64
3, 649872, Note_on_c, 1, 69, 103
3, 649912, Note_off_c, 1, 69, 64
3, 649920, Note_on_c, 1, 67, 103
3, 649960, Note_off_c, 1, 67, 64
3, 649968, Note_on_c, 1, 69, 103
3, 650008, Note_off_c, 1, 69, 64
3, 650016, Note_on_c, 1, 67, 103
3, 650056, Note_off_c, 1, 67, 64
3, 650064, Note_on_c, 1, 69, 103
3, 650104, Note_off_c, 1, 69, 64
3, 650112, Note_on_c, 1, 67, 104
3, 650152, Note_off_c, 1, 67, 64
3, 650160, Note_on_c, 1, 69, 104
3, 650200, Note_off_c, 1, 69, 64
3, 650208, Note_on_c, 1, 67, 104
3, 650248, Note_off_c, 1, 67, 64
3, 650256, Note_on_c, 1, 69, 104
3, 650296, Note_off_c, 1, 69, 64
3, 650304, Note_on_c, 1, 67, 104
3, 650344, Note_off_c, 1, 67, 64
3, 650352, Note_on_c, 1, 69, 104
3, 650392, Note_off_c, 1, 69, 64
3, 650400, Note_on_c, 1, 67, 104
3, 650440, Note_off_c, 1, 67, 64
3, 650448, Note_on_c, 1, 69, 104
3, 650488, Note_off_c, 1, 69, 64
3, 650496, Note_on_c, 1, 67, 104
3, 650536, Note_off_c, 1, 67, 64
3, 650544, Note_on_c, 1, 69, 104
3, 650584, Note_off_c, 1, 69, 64
3, 650592, Note_on_c, 1, 67, 104
3, 650632, Note_off_c, 1, 67, 64
3, 650640, Note_on_c, 1, 69, 104
3, 650680, Note_off_c, 1, 69, 64
3, 650688, Note_on_c, 1, 67, 105
3, 650728, Note_off_c, 1, 67, 64
3, 650736, Note_on_c, 1, 69, 105
3, 650776, Note_off_c, 1, 69, 64
3, 650784, Note_on_c, 1, 67, 105
3, 650824, Note_off_c, 1, 67, 64
3, 650832, Note_on_c, 1, 69, 105
3, 650872, Note_off_c, 1, 69, 64
3, 650880, Note_on_c, 1, 67, 105
3, 650920, Note_off_c, 1, 67, 64
3, 650928, Note_on_c, 1, 69, 105
3, 650968, Note_off_c, 1, 69, 64
3, 650976, Note_on_c, 1, 67, 105
3, 651016, Note_off_c, 1, 67, 64
3, 651024, Note_on_c, 1, 69, 105
3, 651064, Note_off_c, 1, 69, 64
3, 651072, Note_on_c, 1, 67, 105
3, 651112, Note_off_c, 1, 67, 64
3, 651120, Note_on_c, 1, 69, 105
3, 651160, Note_off_c, 1, 69, 64
3, 651168, Note_on_c, 1, 67, 105
3, 651208, Note_off_c, 1, 67, 64
3, 651216, Note_on_c, 1, 69, 106
3, 651256, Note_off_c, 1, 69, 64
3, 651264, Note_on_c, 1, 67, 106
3, 651264, Note_on_c, 1, 61, 113
3, 651304, Note_off_c, 1, 67, 64
3, 651312, Note_on_c, 1, 69, 106
3, 651352, Note_off_c, 1, 69, 64
3, 651360, Note_on_c, 1, 67, 106
3, 651400, Note_off_c, 1, 67, 64
3, 651408, Note_on_c, 1, 69, 106
3, 651448, Note_off_c, 1, 69, 64
3, 651456, Note_on_c, 1, 67, 106
3, 651496, Note_off_c, 1, 67, 64
3, 651504, Note_on_c, 1, 69, 106
3, 651544, Note_off_c, 1, 69, 64
3, 651552, Note_on_c, 1, 67, 106
3, 651592, Note_off_c, 1, 67, 64
3, 651600, Note_on_c, 1, 69, 106
3, 651640, Note_off_c, 1, 69, 64
3, 651648, Note_on_c, 1, 67, 106
3, 651688, Note_off_c, 1, 67, 64
3, 651696, Note_on_c, 1, 69, 106
3, 651736, Note_off_c, 1, 69, 64
3, 651744, Note_on_c, 1, 67, 108
3, 651784, Note_off_c, 1, 67, 64
3, 651792, Note_on_c, 1, 69, 108
3, 651832, Note_off_c, 1, 69, 64
3, 651840, Note_on_c, 1, 67, 108
3, 651880, Note_off_c, 1, 67, 64
3, 651888, Note_on_c, 1, 69, 108
3, 651928, Note_off_c, 1, 69, 64
3, 651936, Note_on_c, 1, 67, 108
3, 651976, Note_off_c, 1, 67, 64
3, 651984, Note_on_c, 1, 69, 108
3, 652024, Note_off_c, 1, 69, 64
3, 652032, Note_on_c, 1, 67, 108
3, 652072, Note_off_c, 1, 67, 64
3, 652080, Note_on_c, 1, 69, 108
3, 652120, Note_off_c, 1, 69, 64
3, 652128, Note_on_c, 1, 67, 108
3, 652168, Note_off_c, 1, 67, 64
3, 652176, Note_on_c, 1, 69, 108
3, 652216, Note_off_c, 1, 69, 64
3, 652224, Note_on_c, 1, 67, 108
3, 652264, Note_off_c, 1, 67, 64
3, 652272, Note_on_c, 1, 69, 110
3, 652312, Note_off_c, 1, 69, 64
3, 652320, Note_on_c, 1, 67, 110
3, 652360, Note_off_c, 1, 67, 64
3, 652368, Note_on_c, 1, 69, 110
3, 652408, Note_off_c, 1, 69, 64
3, 652416, Note_on_c, 1, 67, 110
3, 652456, Note_off_c, 1, 67, 64
3, 652464, Note_on_c, 1, 69, 110
3, 652504, Note_off_c, 1, 69, 64
3, 652512, Note_on_c, 1, 67, 110
3, 652552, Note_off_c, 1, 67, 64
3, 652560, Note_on_c, 1, 69, 110
3, 652600, Note_off_c, 1, 69, 64
3, 652608, Note_on_c, 1, 67, 110
3, 652648, Note_off_c, 1, 67, 64
3, 652656, Note_on_c, 1, 69, 110
3, 652696, Note_off_c, 1, 69, 64
3, 652704, Note_on_c, 1, 67, 110
3, 652744, Note_off_c, 1, 67, 64
3, 652752, Note_on_c, 1, 69, 110
3, 652792, Note_off_c, 1, 69, 64
3, 652796, Note_off_c, 1, 61, 64
3, 652796, Note_off_c, 1, 61, 64
3, 652800, Note_on_c, 1, 65, 111
3, 653180, Note_off_c, 1, 65, 64
3, 653184, Note_on_c, 1, 69, 115
3, 653564, Note_off_c, 1, 69, 64
3, 653568, Note_on_c, 1, 67, 113
3, 653948, Note_off_c, 1, 67, 64
3, 653952, Note_on_c, 1, 62, 111
3, 653952, Note_on_c, 1, 65, 108
3, 654716, Note_off_c, 1, 62, 64
3, 654716, Note_off_c, 1, 65, 64
3, 657408, Note_on_c, 1, 61, 84
3, 657408, Note_on_c, 1, 49, 84
3, 658940, Note_off_c, 1, 61, 64
3, 658940, Note_off_c, 1, 49, 64
3, 658944, Note_on_c, 1, 62, 84
3, 659708, Note_off_c, 1, 62, 64
3, 659712, Note_on_c, 1, 68, 84
3, 659712, Note_on_c, 1, 58, 84
3, 660476, Note_off_c, 1, 68, 64
3, 660476, Note_off_c, 1, 58, 64
3, 660480, Note_on_c, 1, 57, 84
3, 660860, Note_off_c, 1, 57, 64
3, 663552, Note_on_c, 1, 56, 91
3, 663552, Note_on_c, 1, 44, 91
3, 663932, Note_off_c, 1, 56, 64
3, 663932, Note_off_c, 1, 44, 64
3, 664320, Note_on_c, 1, 56, 105
3, 664320, Note_on_c, 1, 44, 105
3, 664700, Note_off_c, 1, 56, 64
3, 664700, Note_off_c, 1, 44, 64
3, 665088, Note_on_c, 1, 56, 117
3, 665088, Note_on_c, 1, 44, 117
3, 665468, Note_off_c, 1, 56, 64
3, 665468, Note_off_c, 1, 44, 64
3, 666624, Key_signature, 2, "major"
3, 666624, Note_on_c, 1, 45, 84
3, 667004, Note_off_c, 1, 45, 64
3, 667008, Note_on_c, 1, 57, 84
3, 667388, Note_off_c, 1, 57, 64
3, 667392, Note_on_c, 1, 56, 84
3, 667772, Note_off_c, 1, 56, 64
3, 667776, Note_on_c, 1, 57, 84
3, 668156, Note_off_c, 1, 57, 64
3, 668160, Note_on_c, 1, 61, 84
3, 668540, Note_off_c, 1, 61, 64
3, 668544, Note_on_c, 1, 57, 84
3, 668924, Note_off_c, 1, 57, 64
3, 668928, Note_on_c, 1, 61, 84
3, 669308, Note_off_c, 1, 61, 64
3, 669312, Note_on_c, 1, 57, 84
3, 669692, Note_off_c, 1, 57, 64
3, 669696, Note_on_c, 1, 62, 84
3, 670076, Note_off_c, 1, 62, 64
3, 670080, Note_on_c, 1, 57, 84
3, 670460, Note_off_c, 1, 57, 64
3, 670464, Note_on_c, 1, 66, 84
3, 670844, Note_off_c, 1, 66, 64
3, 670848, Note_on_c, 1, 57, 84
3, 671228, Note_off_c, 1, 57, 64
3, 671232, Note_on_c, 1, 64, 84
3, 671612, Note_off_c, 1, 64, 64
3, 671616, Note_on_c, 1, 57, 84
3, 671996, Note_off_c, 1, 57, 64
3, 672000, Note_on_c, 1, 62, 84
3, 672380, Note_off_c, 1, 62, 64
3, 672384, Note_on_c, 1, 57, 84
3, 672764, Note_off_c, 1, 57, 64
3, 672768, Note_on_c, 1, 61, 84
3, 673148, Note_off_c, 1, 61, 64
3, 673152, Note_on_c, 1, 57, 84
3, 673532, Note_off_c, 1, 57, 64
3, 673536, Note_on_c, 1, 52, 84
3, 673916, Note_off_c, 1, 52, 64
3, 673920, Note_on_c, 1, 49, 84
3, 674300, Note_off_c, 1, 49, 64
3, 674304, Note_on_c, 1, 45, 84
3, 674684, Note_off_c, 1, 45, 64
3, 674688, Note_on_c, 1, 57, 84
3, 675068, Note_off_c, 1, 57, 64
3, 675072, Note_on_c, 1, 61, 84
3, 675452, Note_off_c, 1, 61, 64
3, 675456, Note_on_c, 1, 57, 84
3, 675836, Note_off_c, 1, 57, 64
3, 675840, Note_on_c, 1, 62, 84
3, 676220, Note_off_c, 1, 62, 64
3, 676224, Note_on_c, 1, 50, 84
3, 676604, Note_off_c, 1, 50, 64
3, 676608, Note_on_c, 1, 47, 84
3, 676988, Note_off_c, 1, 47, 64
3, 676992, Note_on_c, 1, 59, 84
3, 677372, Note_off_c, 1, 59, 64
3, 677376, Note_on_c, 1, 45, 90
3, 677756, Note_off_c, 1, 45, 64
3, 677760, Note_on_c, 1, 57, 90
3, 678140, Note_off_c, 1, 57, 64
3, 678144, Note_on_c, 1, 45, 90
3, 678524, Note_off_c, 1, 45, 64
3, 678528, Note_on_c, 1, 57, 90
3, 678908, Note_off_c, 1, 57, 64
3, 678912, Note_on_c, 1, 62, 90
3, 678912, Note_on_c, 1, 50, 90
3, 679292, Note_off_c, 1, 62, 64
3, 679292, Note_off_c, 1, 50, 64
3, 691584, Note_on_c, 1, 62, 100
3, 691584, Note_on_c, 1, 50, 100
3, 691772, Note_off_c, 1, 62, 64
3, 691772, Note_off_c, 1, 50, 64
3, 691968, Note_on_c, 1, 62, 100
3, 691968, Note_on_c, 1, 50, 100
3, 692156, Note_off_c, 1, 62, 64
3, 692156, Note_off_c, 1, 50, 64
3, 692352, Note_on_c, 1, 62, 100
3, 692352, Note_on_c, 1, 50, 100
3, 692540, Note_off_c, 1, 62, 64
3, 692540, Note_off_c, 1, 50, 64
3, 692736, Note_on_c, 1, 47, 100
3, 692924, Note_off_c, 1, 47, 64
3, 692928, Note_on_c, 1, 50, 100
3, 693116, Note_off_c, 1, 50, 64
3, 693120, Note_on_c, 1, 49, 100
3, 693308, Note_off_c, 1, 49, 64
3, 693312, Note_on_c, 1, 50, 100
3, 693500, Note_off_c, 1, 50, 64
3, 693504, Note_on_c, 1, 43, 100
3, 693692, Note_off_c, 1, 43, 64
3, 693696, Note_on_c, 1, 50, 100
3, 693884, Note_off_c, 1, 50, 64
3, 693888, Note_on_c, 1, 49, 100
3, 694076, Note_off_c, 1, 49, 64
3, 694080, Note_on_c, 1, 50, 100
3, 694268, Note_off_c, 1, 50, 64
3, 694272, Note_on_c, 1, 42, 101
3, 694460, Note_off_c, 1, 42, 64
3, 694464, Note_on_c, 1, 50, 100
3, 694652, Note_off_c, 1, 50, 64
3, 694656, Note_on_c, 1, 49, 100
3, 694844, Note_off_c, 1, 49, 64
3, 694848, Note_on_c, 1, 50, 100
3, 695036, Note_off_c, 1, 50, 64
3, 695040, Note_on_c, 1, 38, 103
3, 695228, Note_off_c, 1, 38, 64
3, 695232, Note_on_c, 1, 50, 100
3, 695420, Note_off_c, 1, 50, 64
3, 695424, Note_on_c, 1, 49, 100
3, 695612, Note_off_c, 1, 49, 64
3, 695616, Note_on_c, 1, 50, 100
3, 695804, Note_off_c, 1, 50, 64
3, 695808, Note_on_c, 1, 47, 100
3, 695996, Note_off_c, 1, 47, 64
3, 696000, Note_on_c, 1, 50, 100
3, 696188, Note_off_c, 1, 50, 64
3, 696192, Note_on_c, 1, 49, 100
3, 696380, Note_off_c, 1, 49, 64
3, 696384, Note_on_c, 1, 50, 100
3, 696572, Note_off_c, 1, 50, 64
3, 696576, Note_on_c, 1, 43, 100
3, 696764, Note_off_c, 1, 43, 64
3, 696768, Note_on_c, 1, 50, 100
3, 696956, Note_off_c, 1, 50, 64
3, 696960, Note_on_c, 1, 49, 100
3, 697148, Note_off_c, 1, 49, 64
3, 697152, Note_on_c, 1, 50, 100
3, 697340, Note_off_c, 1, 50, 64
3, 697344, Note_on_c, 1, 42, 101
3, 697532, Note_off_c, 1, 42, 64
3, 697536, Note_on_c, 1, 50, 100
3, 697724, Note_off_c, 1, 50, 64
3, 697728, Note_on_c, 1, 49, 100
3, 697916, Note_off_c, 1, 49, 64
3, 697920, Note_on_c, 1, 50, 100
3, 698108, Note_off_c, 1, 50, 64
3, 698112, Note_on_c, 1, 38, 103
3, 698300, Note_off_c, 1, 38, 64
3, 698304, Note_on_c, 1, 50, 100
3, 698492, Note_off_c, 1, 50, 64
3, 698496, Note_on_c, 1, 49, 100
3, 698684, Note_off_c, 1, 49, 64
3, 698688, Note_on_c, 1, 50, 100
3, 698876, Note_off_c, 1, 50, 64
3, 698880, Note_on_c, 1, 47, 100
3, 699068, Note_off_c, 1, 47, 64
3, 699072, Note_on_c, 1, 50, 100
3, 699260, Note_off_c, 1, 50, 64
3, 699264, Note_on_c, 1, 49, 100
3, 699452, Note_off_c, 1, 49, 64
3, 699456, Note_on_c, 1, 50, 100
3, 699644, Note_off_c, 1, 50, 64
3, 699648, Note_on_c, 1, 43, 100
3, 699836, Note_off_c, 1, 43, 64
3, 699840, Note_on_c, 1, 52, 100
3, 700028, Note_off_c, 1, 52, 64
3, 700032, Note_on_c, 1, 49, 100
3, 700220, Note_off_c, 1, 49, 64
3, 700224, Note_on_c, 1, 52, 100
3, 700412, Note_off_c, 1, 52, 64
3, 700416, Note_on_c, 1, 62, 77
3, 700416, Note_on_c, 1, 57, 77
3, 700416, Note_on_c, 1, 54, 77
3, 700416, Note_on_c, 1, 50, 77
3, 700796, Note_off_c, 1, 62, 64
3, 700796, Note_off_c, 1, 57, 64
3, 700796, Note_off_c, 1, 54, 64
3, 700796, Note_off_c, 1, 50, 64
3, 701952, Note_on_c, 1, 58, 77
3, 701952, Note_on_c, 1, 52, 77
3, 701952, Note_on_c, 1, 49, 77
3, 701952, Note_on_c, 1, 46, 77
3, 702332, Note_off_c, 1, 58, 64
3, 702332, Note_off_c, 1, 52, 64
3, 702332, Note_off_c, 1, 49, 64
3, 702332, Note_off_c, 1, 46, 64
3, 703488, Note_on_c, 1, 59, 77
3, 703488, Note_on_c, 1, 54, 77
3, 703488, Note_on_c, 1, 50, 77
3, 703488, Note_on_c, 1, 47, 77
3, 703868, Note_off_c, 1, 59, 64
3, 703868, Note_off_c, 1, 54, 64
3, 703868, Note_off_c, 1, 50, 64
3, 703868, Note_off_c, 1, 47, 64
3, 705024, Note_on_c, 1, 55, 77
3, 705024, Note_on_c, 1, 52, 77
3, 705024, Note_on_c, 1, 47, 77
3, 705024, Note_on_c, 1, 43, 77
3, 705404, Note_off_c, 1, 55, 64
3, 705404, Note_off_c, 1, 52, 64
3, 705404, Note_off_c, 1, 47, 64
3, 705404, Note_off_c, 1, 43, 64
3, 706560, Note_on_c, 1, 57, 77
3, 706560, Note_on_c, 1, 54, 77
3, 706560, Note_on_c, 1, 50, 77
3, 706560, Note_on_c, 1, 45, 77
3, 706940, Note_off_c, 1, 57, 64
3, 706940, Note_off_c, 1, 54, 64
3, 706940, Note_off_c, 1, 50, 64
3, 706940, Note_off_c, 1, 45, 64
3, 708096, Note_on_c, 1, 55, 77
3, 708096, Note_on_c, 1, 52, 77
3, 708096, Note_on_c, 1, 49, 77
3, 708096, Note_on_c, 1, 45, 77
3, 708476, Note_off_c, 1, 55, 64
3, 708476, Note_off_c, 1, 52, 64
3, 708476, Note_off_c, 1, 49, 64
3, 708476, Note_off_c, 1, 45, 64
3, 709632, Note_on_c, 1, 50, 100
3, 710012, Note_off_c, 1, 50, 64
3, 710016, Note_on_c, 1, 62, 100
3, 710016, Note_on_c, 1, 50, 100
3, 710204, Note_off_c, 1, 62, 64
3, 710204, Note_off_c, 1, 50, 64
3, 710400, Note_on_c, 1, 62, 100
3, 710400, Note_on_c, 1, 50, 100
3, 710588, Note_off_c, 1, 62, 64
3, 710588, Note_off_c, 1, 50, 64
3, 710784, Note_on_c, 1, 62, 100
3, 710784, Note_on_c, 1, 50, 100
3, 710972, Note_off_c, 1, 62, 64
3, 710972, Note_off_c, 1, 50, 64
3, 711168, Note_on_c, 1, 47, 100
3, 711356, Note_off_c, 1, 47, 64
3, 711360, Note_on_c, 1, 50, 100
3, 711548, Note_off_c, 1, 50, 64
3, 711552, Note_on_c, 1, 49, 100
3, 711740, Note_off_c, 1, 49, 64
3, 711744, Note_on_c, 1, 50, 100
3, 711932, Note_off_c, 1, 50, 64
3, 711936, Note_on_c, 1, 43, 100
3, 712124, Note_off_c, 1, 43, 64
3, 712128, Note_on_c, 1, 50, 100
3, 712316, Note_off_c, 1, 50, 64
3, 712320, Note_on_c, 1, 49, 100
3, 712508, Note_off_c, 1, 49, 64
3, 712512, Note_on_c, 1, 50, 100
3, 712700, Note_off_c, 1, 50, 64
3, 712704, Note_on_c, 1, 42, 101
3, 712892, Note_off_c, 1, 42, 64
3, 712896, Note_on_c, 1, 50, 100
3, 713084, Note_off_c, 1, 50, 64
3, 713088, Note_on_c, 1, 49, 100
3, 713276, Note_off_c, 1, 49, 64
3, 713280, Note_on_c, 1, 50, 100
3, 713468, Note_off_c, 1, 50, 64
3, 713472, Note_on_c, 1, 38, 103
3, 713660, Note_off_c, 1, 38, 64
3, 713664, Note_on_c, 1, 50, 100
3, 713852, Note_off_c, 1, 50, 64
3, 713856, Note_on_c, 1, 49, 100
3, 714044, Note_off_c, 1, 49, 64
3, 714048, Note_on_c, 1, 50, 100
3, 714236, Note_off_c, 1, 50, 64
3, 714240, Note_on_c, 1, 47, 100
3, 714428, Note_off_c, 1, 47, 64
3, 714432, Note_on_c, 1, 50, 100
3, 714620, Note_off_c, 1, 50, 64
3, 714624, Note_on_c, 1, 49, 100
3, 714812, Note_off_c, 1, 49, 64
3, 714816, Note_on_c, 1, 50, 100
3, 715004, Note_off_c, 1, 50, 64
3, 715008, Note_on_c, 1, 43, 100
3, 715196, Note_off_c, 1, 43, 64
3, 715200, Note_on_c, 1, 50, 100
3, 715388, Note_off_c, 1, 50, 64
3, 715392, Note_on_c, 1, 49, 100
3, 715580, Note_off_c, 1, 49, 64
3, 715584, Note_on_c, 1, 50, 100
3, 715772, Note_off_c, 1, 50, 64
3, 715776, Note_on_c, 1, 42, 101
3, 715964, Note_off_c, 1, 42, 64
3, 715968, Note_on_c, 1, 50, 100
3, 716156, Note_off_c, 1, 50, 64
3, 716160, Note_on_c, 1, 49, 100
3, 716348, Note_off_c, 1, 49, 64
3, 716352, Note_on_c, 1, 50, 100
3, 716540, Note_off_c, 1, 50, 64
3, 716544, Note_on_c, 1, 38, 103
3, 716732, Note_off_c, 1, 38, 64
3, 716736, Note_on_c, 1, 50, 100
3, 716924, Note_off_c, 1, 50, 64
3, 716928, Note_on_c, 1, 49, 100
3, 717116, Note_off_c, 1, 49, 64
3, 717120, Note_on_c, 1, 50, 100
3, 717308, Note_off_c, 1, 50, 64
3, 717312, Note_on_c, 1, 47, 100
3, 717500, Note_off_c, 1, 47, 64
3, 717504, Note_on_c, 1, 50, 100
3, 717692, Note_off_c, 1, 50, 64
3, 717696, Note_on_c, 1, 49, 100
3, 717884, Note_off_c, 1, 49, 64
3, 717888, Note_on_c, 1, 50, 100
3, 718076, Note_off_c, 1, 50, 64
3, 718080, Note_on_c, 1, 43, 100
3, 718268, Note_off_c, 1, 43, 64
3, 718272, Note_on_c, 1, 50, 100
3, 718460, Note_off_c, 1, 50, 64
3, 718464, Note_on_c, 1, 49, 100
3, 718652, Note_off_c, 1, 49, 64
3, 718656, Note_on_c, 1, 50, 100
3, 718844, Note_off_c, 1, 50, 64
3, 718848, Note_on_c, 1, 62, 77
3, 718848, Note_on_c, 1, 57, 77
3, 718848, Note_on_c, 1, 54, 77
3, 718848, Note_on_c, 1, 50, 77
3, 719228, Note_off_c, 1, 62, 64
3, 719228, Note_off_c, 1, 57, 64
3, 719228, Note_off_c, 1, 54, 64
3, 719228, Note_off_c, 1, 50, 64
3, 720384, Note_on_c, 1, 52, 77
3, 720384, Note_on_c, 1, 49, 77
3, 720384, Note_on_c, 1, 58, 77
3, 720384, Note_on_c, 1, 46, 77
3, 720764, Note_off_c, 1, 52, 64
3, 720764, Note_off_c, 1, 49, 64
3, 720764, Note_off_c, 1, 58, 64
3, 720764, Note_off_c, 1, 46, 64
3, 721920, Note_on_c, 1, 59, 77
3, 721920, Note_on_c, 1, 54, 77
3, 721920, Note_on_c, 1, 50, 77
3, 721920, Note_on_c, 1, 47, 77
3, 722300, Note_off_c, 1, 59, 64
3, 722300, Note_off_c, 1, 54, 64
3, 722300, Note_off_c, 1, 50, 64
3, 722300, Note_off_c, 1, 47, 64
3, 723456, Note_on_c, 1, 55, 77
3, 723456, Note_on_c, 1, 52, 77
3, 723456, Note_on_c, 1, 47, 77
3, 723456, Note_on_c, 1, 43, 77
3, 723836, Note_off_c, 1, 55, 64
3, 723836, Note_off_c, 1, 52, 64
3, 723836, Note_off_c, 1, 47, 64
3, 723836, Note_off_c, 1, 43, 64
3, 724992, Note_on_c, 1, 57, 77
3, 724992, Note_on_c, 1, 54, 77
3, 724992, Note_on_c, 1, 50, 77
3, 724992, Note_on_c, 1, 45, 77
3, 725372, Note_off_c, 1, 57, 64
3, 725372, Note_off_c, 1, 54, 64
3, 725372, Note_off_c, 1, 50, 64
3, 725372, Note_off_c, 1, 45, 64
3, 726528, Note_on_c, 1, 55, 77
3, 726528, Note_on_c, 1, 52, 77
3, 726528, Note_on_c, 1, 49, 77
3, 726528, Note_on_c, 1, 45, 77
3, 726908, Note_off_c, 1, 55, 64
3, 726908, Note_off_c, 1, 52, 64
3, 726908, Note_off_c, 1, 49, 64
3, 726908, Note_off_c, 1, 45, 64
3, 728064, Note_on_c, 1, 50, 77
3, 729596, Note_off_c, 1, 50, 64
3, 729600, Note_on_c, 1, 49, 77
3, 731132, Note_off_c, 1, 49, 64
3, 731136, Note_on_c, 1, 50, 77
3, 732668, Note_off_c, 1, 50, 64
3, 732672, Note_on_c, 1, 55, 77
3, 734204, Note_off_c, 1, 55, 64
3, 734208, Note_on_c, 1, 54, 77
3, 735740, Note_off_c, 1, 54, 64
3, 735744, Note_on_c, 1, 49, 77
3, 737276, Note_off_c, 1, 49, 64
3, 737280, Note_on_c, 1, 50, 77
3, 738812, Note_off_c, 1, 50, 64
3, 738816, Note_on_c, 1, 45, 77
3, 738816, Note_on_c, 1, 52, 77
3, 739004, Note_off_c, 1, 52, 64
3, 739008, Note_on_c, 1, 61, 79
3, 739196, Note_off_c, 1, 61, 64
3, 739200, Note_on_c, 1, 55, 78
3, 739388, Note_off_c, 1, 55, 64
3, 739392, Note_on_c, 1, 61, 79
3, 739580, Note_off_c, 1, 61, 64
3, 739584, Note_on_c, 1, 64, 81
3, 739772, Note_off_c, 1, 64, 64
3, 739776, Note_on_c, 1, 61, 79
3, 739964, Note_off_c, 1, 61, 64
3, 739968, Note_on_c, 1, 55, 78
3, 740156, Note_off_c, 1, 55, 64
3, 740160, Note_on_c, 1, 61, 79
3, 740348, Note_off_c, 1, 45, 64
3, 740348, Note_off_c, 1, 61, 64
3, 740352, Note_on_c, 1, 38, 80
3, 740352, Note_on_c, 1, 50, 77
3, 740540, Note_off_c, 1, 50, 64
3, 740544, Note_on_c, 1, 57, 79
3, 740732, Note_off_c, 1, 57, 64
3, 740736, Note_on_c, 1, 54, 81
3, 740924, Note_off_c, 1, 54, 64
3, 740928, Note_on_c, 1, 57, 79
3, 741116, Note_off_c, 1, 57, 64
3, 741120, Note_on_c, 1, 62, 78
3, 741308, Note_off_c, 1, 62, 64
3, 741312, Note_on_c, 1, 57, 79
3, 741500, Note_off_c, 1, 57, 64
3, 741504, Note_on_c, 1, 54, 77
3, 741692, Note_off_c, 1, 54, 64
3, 741696, Note_on_c, 1, 57, 78
3, 741884, Note_off_c, 1, 38, 64
3, 741884, Note_off_c, 1, 57, 64
3, 741888, Note_on_c, 1, 49, 77
3, 743420, Note_off_c, 1, 49, 64
3, 743424, Note_on_c, 1, 50, 77
3, 744956, Note_off_c, 1, 50, 64
3, 744960, Note_on_c, 1, 55, 77
3, 746492, Note_off_c, 1, 55, 64
3, 746496, Note_on_c, 1, 54, 77
3, 748028, Note_off_c, 1, 54, 64
3, 748032, Note_on_c, 1, 49, 77
3, 749564, Note_off_c, 1, 49, 64
3, 749568, Note_on_c, 1, 50, 77
3, 751100, Note_off_c, 1, 50, 64
3, 751104, Note_on_c, 1, 45, 77
3, 751104, Note_on_c, 1, 52, 77
3, 751292, Note_off_c, 1, 52, 64
3, 751296, Note_on_c, 1, 61, 79
3, 751484, Note_off_c, 1, 61, 64
3, 751488, Note_on_c, 1, 55, 77
3, 751676, Note_off_c, 1, 55, 64
3, 751680, Note_on_c, 1, 61, 79
3, 751868, Note_off_c, 1, 61, 64
3, 751872, Note_on_c, 1, 64, 81
3, 752060, Note_off_c, 1, 64, 64
3, 752064, Note_on_c, 1, 61, 79
3, 752252, Note_off_c, 1, 61, 64
3, 752256, Note_on_c, 1, 55, 78
3, 752444, Note_off_c, 1, 55, 64
3, 752448, Note_on_c, 1, 61, 79
3, 752636, Note_off_c, 1, 45, 64
3, 752636, Note_off_c, 1, 61, 64
3, 752640, Note_on_c, 1, 54, 77
3, 752640, Note_on_c, 1, 38, 80
3, 752828, Note_off_c, 1, 54, 64
3, 752828, Note_off_c, 1, 38, 64
3, 752832, Note_on_c, 1, 55, 77
3, 752832, Note_on_c, 1, 40, 79
3, 753020, Note_off_c, 1, 55, 64
3, 753020, Note_off_c, 1, 40, 64
3, 753024, Note_on_c, 1, 57, 77
3, 753024, Note_on_c, 1, 42, 78
3, 753212, Note_off_c, 1, 57, 64
3, 753212, Note_off_c, 1, 42, 64
3, 753216, Note_on_c, 1, 59, 77
3, 753216, Note_on_c, 1, 43, 77
3, 753404, Note_off_c, 1, 59, 64
3, 753404, Note_off_c, 1, 43, 64
3, 753408, Note_on_c, 1, 45, 77
3, 753596, Note_off_c, 1, 45, 64
3, 753600, Note_on_c, 1, 47, 77
3, 753788, Note_off_c, 1, 47, 64
3, 753792, Note_on_c, 1, 49, 77
3, 753980, Note_off_c, 1, 49, 64
3, 753984, Note_on_c, 1, 50, 77
3, 754172, Note_off_c, 1, 50, 64
3, 754176, Note_on_c, 1, 52, 77
3, 754364, Note_off_c, 1, 52, 64
3, 754368, Note_on_c, 1, 54, 77
3, 754556, Note_off_c, 1, 54, 64
3, 754560, Note_on_c, 1, 55, 77
3, 754748, Note_off_c, 1, 55, 64
3, 754752, Note_on_c, 1, 57, 77
3, 754940, Note_off_c, 1, 57, 64
3, 754944, Note_on_c, 1, 59, 77
3, 755132, Note_off_c, 1, 59, 64
3, 755136, Note_on_c, 1, 61, 77
3, 755324, Note_off_c, 1, 61, 64
3, 755328, Note_on_c, 1, 62, 77
3, 755516, Note_off_c, 1, 62, 64
3, 755520, Note_on_c, 1, 64, 78
3, 755708, Note_off_c, 1, 64, 64
3, 755712, Note_on_c, 1, 66, 80
3, 756092, Note_off_c, 1, 66, 64
3, 757248, Note_on_c, 1, 57, 100
3, 757248, Note_on_c, 1, 45, 100
3, 758012, Note_off_c, 1, 57, 64
3, 758012, Note_off_c, 1, 45, 64
3, 758784, Note_on_c, 1, 54, 77
3, 758784, Note_on_c, 1, 38, 80
3, 758972, Note_off_c, 1, 54, 64
3, 758972, Note_off_c, 1, 38, 64
3, 758976, Note_on_c, 1, 55, 77
3, 758976, Note_on_c, 1, 40, 79
3, 759164, Note_off_c, 1, 55, 64
3, 759164, Note_off_c, 1, 40, 64
3, 759168, Note_on_c, 1, 57, 77
3, 759168, Note_on_c, 1, 42, 78
3, 759356, Note_off_c, 1, 57, 64
3, 759356, Note_off_c, 1, 42, 64
3, 759360, Note_on_c, 1, 59, 77
3, 759360, Note_on_c, 1, 43, 77
3, 759548, Note_off_c, 1, 59, 64
3, 759548, Note_off_c, 1, 43, 64
3, 759552, Note_on_c, 1, 45, 77
3, 759740, Note_off_c, 1, 45, 64
3, 759744, Note_on_c, 1, 47, 77
3, 759932, Note_off_c, 1, 47, 64
3, 759936, Note_on_c, 1, 49, 77
3, 760124, Note_off_c, 1, 49, 64
3, 760128, Note_on_c, 1, 50, 77
3, 760316, Note_off_c, 1, 50, 64
3, 760320, Note_on_c, 1, 52, 77
3, 760508, Note_off_c, 1, 52, 64
3, 760512, Note_on_c, 1, 54, 77
3, 760700, Note_off_c, 1, 54, 64
3, 760704, Note_on_c, 1, 55, 77
3, 760892, Note_off_c, 1, 55, 64
3, 760896, Note_on_c, 1, 57, 77
3, 761084, Note_off_c, 1, 57, 64
3, 761088, Note_on_c, 1, 59, 77
3, 761276, Note_off_c, 1, 59, 64
3, 761280, Note_on_c, 1, 61, 77
3, 761468, Note_off_c, 1, 61, 64
3, 761472, Note_on_c, 1, 62, 77
3, 761660, Note_off_c, 1, 62, 64
3, 761664, Note_on_c, 1, 66, 77
3, 761852, Note_off_c, 1, 66, 64
3, 761856, Note_on_c, 1, 66, 77
3, 762236, Note_off_c, 1, 66, 64
3, 763392, Note_on_c, 1, 57, 100
3, 763392, Note_on_c, 1, 45, 100
3, 764156, Note_off_c, 1, 57, 64
3, 764156, Note_off_c, 1, 45, 64
3, 764928, Note_on_c, 1, 40, 79
3, 765116, Note_off_c, 1, 40, 64
3, 765120, Note_on_c, 1, 50, 77
3, 765308, Note_off_c, 1, 50, 64
3, 765312, Note_on_c, 1, 49, 77
3, 765500, Note_off_c, 1, 49, 64
3, 765504, Note_on_c, 1, 50, 77
3, 765692, Note_off_c, 1, 50, 64
3, 765696, Note_on_c, 1, 52, 77
3, 765884, Note_off_c, 1, 52, 64
3, 765888, Note_on_c, 1, 50, 77
3, 766076, Note_off_c, 1, 50, 64
3, 766080, Note_on_c, 1, 49, 77
3, 766268, Note_off_c, 1, 49, 64
3, 766272, Note_on_c, 1, 50, 77
3, 766460, Note_off_c, 1, 50, 64
3, 766464, Note_on_c, 1, 38, 79
3, 766652, Note_off_c, 1, 38, 64
3, 766656, Note_on_c, 1, 50, 77
3, 766844, Note_off_c, 1, 50, 64
3, 766848, Note_on_c, 1, 49, 77
3, 767036, Note_off_c, 1, 49, 64
3, 767040, Note_on_c, 1, 50, 77
3, 767228, Note_off_c, 1, 50, 64
3, 767232, Note_on_c, 1, 52, 77
3, 767420, Note_off_c, 1, 52, 64
3, 767424, Note_on_c, 1, 50, 77
3, 767612, Note_off_c, 1, 50, 64
3, 767616, Note_on_c, 1, 49, 77
3, 767804, Note_off_c, 1, 49, 64
3, 767808, Note_on_c, 1, 50, 77
3, 767996, Note_off_c, 1, 50, 64
3, 768000, Note_on_c, 1, 38, 79
3, 768188, Note_off_c, 1, 38, 64
3, 768192, Note_on_c, 1, 50, 77
3, 768380, Note_off_c, 1, 50, 64
3, 768384, Note_on_c, 1, 49, 77
3, 768572, Note_off_c, 1, 49, 64
3, 768576, Note_on_c, 1, 50, 77
3, 768764, Note_off_c, 1, 50, 64
3, 768768, Note_on_c, 1, 52, 77
3, 768956, Note_off_c, 1, 52, 64
3, 768960, Note_on_c, 1, 50, 77
3, 769148, Note_off_c, 1, 50, 64
3, 769152, Note_on_c, 1, 49, 77
3, 769340, Note_off_c, 1, 49, 64
3, 769344, Note_on_c, 1, 50, 77
3, 769532, Note_off_c, 1, 50, 64
3, 769536, Note_on_c, 1, 38, 80
3, 769724, Note_off_c, 1, 38, 64
3, 769728, Note_on_c, 1, 50, 77
3, 769916, Note_off_c, 1, 50, 64
3, 769920, Note_on_c, 1, 49, 77
3, 770108, Note_off_c, 1, 49, 64
3, 770112, Note_on_c, 1, 50, 77
3, 770300, Note_off_c, 1, 50, 64
3, 770304, Note_on_c, 1, 52, 77
3, 770492, Note_off_c, 1, 52, 64
3, 770496, Note_on_c, 1, 50, 77
3, 770684, Note_off_c, 1, 50, 64
3, 770688, Note_on_c, 1, 49, 77
3, 770876, Note_off_c, 1, 49, 64
3, 770880, Note_on_c, 1, 50, 77
3, 771068, Note_off_c, 1, 50, 64
3, 771072, Note_on_c, 1, 38, 80
3, 771260, Note_off_c, 1, 38, 64
3, 771264, Note_on_c, 1, 50, 77
3, 771452, Note_off_c, 1, 50, 64
3, 771456, Note_on_c, 1, 49, 77
3, 771644, Note_off_c, 1, 49, 64
3, 771648, Note_on_c, 1, 50, 77
3, 771836, Note_off_c, 1, 50, 64
3, 771840, Note_on_c, 1, 52, 77
3, 772028, Note_off_c, 1, 52, 64
3, 772032, Note_on_c, 1, 50, 77
3, 772220, Note_off_c, 1, 50, 64
3, 772224, Note_on_c, 1, 49, 77
3, 772412, Note_off_c, 1, 49, 64
3, 772416, Note_on_c, 1, 50, 77
3, 772604, Note_off_c, 1, 50, 64
3, 772608, Note_on_c, 1, 38, 80
3, 772796, Note_off_c, 1, 38, 64
3, 772800, Note_on_c, 1, 50, 77
3, 772988, Note_off_c, 1, 50, 64
3, 772992, Note_on_c, 1, 49, 77
3, 773180, Note_off_c, 1, 49, 64
3, 773184, Note_on_c, 1, 50, 77
3, 773372, Note_off_c, 1, 50, 64
3, 773376, Note_on_c, 1, 52, 77
3, 773564, Note_off_c, 1, 52, 64
3, 773568, Note_on_c, 1, 50, 77
3, 773756, Note_off_c, 1, 50, 64
3, 773760, Note_on_c, 1, 49, 77
3, 773948, Note_off_c, 1, 49, 64
3, 773952, Note_on_c, 1, 50, 77
3, 774140, Note_off_c, 1, 50, 64
3, 774144, Note_on_c, 1, 38, 80
3, 774908, Note_off_c, 1, 38, 64
3, 775680, Note_on_c, 1, 45, 100
3, 775680, Note_on_c, 1, 43, 100
3, 775680, Note_on_c, 1, 38, 103
3, 775868, Note_off_c, 1, 45, 64
3, 775868, Note_off_c, 1, 43, 64
3, 775868, Note_off_c, 1, 38, 64
3, 775872, Note_on_c, 1, 49, 100
3, 776060, Note_off_c, 1, 49, 64
3, 776064, Note_on_c, 1, 45, 100
3, 776064, Note_on_c, 1, 38, 103
3, 776064, Note_on_c, 1, 43, 100
3, 776252, Note_off_c, 1, 45, 64
3, 776252, Note_off_c, 1, 38, 64
3, 776252, Note_off_c, 1, 43, 64
3, 776256, Note_on_c, 1, 49, 100
3, 776444, Note_off_c, 1, 49, 64
3, 776448, Note_on_c, 1, 45, 100
3, 776448, Note_on_c, 1, 43, 100
3, 776448, Note_on_c, 1, 38, 103
3, 776636, Note_off_c, 1, 45, 64
3, 776636, Note_off_c, 1, 43, 64
3, 776636, Note_off_c, 1, 38, 64
3, 776640, Note_on_c, 1, 49, 100
3, 776828, Note_off_c, 1, 49, 64
3, 776832, Note_on_c, 1, 45, 100
3, 776832, Note_on_c, 1, 43, 100
3, 776832, Note_on_c, 1, 38, 103
3, 777020, Note_off_c, 1, 45, 64
3, 777020, Note_off_c, 1, 43, 64
3, 777020, Note_off_c, 1, 38, 64
3, 777024, Note_on_c, 1, 49, 100
3, 777212, Note_off_c, 1, 49, 64
3, 777216, Note_on_c, 1, 50, 100
3, 777216, Note_on_c, 1, 45, 100
3, 777216, Note_on_c, 1, 42, 101
3, 777216, Note_on_c, 1, 38, 103
3, 777596, Note_off_c, 1, 50, 64
3, 777596, Note_off_c, 1, 45, 64
3, 777596, Note_off_c, 1, 42, 64
3, 777596, Note_off_c, 1, 38, 64
3, 778752, Note_on_c, 1, 45, 100
3, 778752, Note_on_c, 1, 52, 100
3, 778752, Note_on_c, 1, 61, 100
3, 779132, Note_off_c, 1, 45, 64
3, 779132, Note_off_c, 1, 52, 64
3, 779132, Note_off_c, 1, 61, 64
3, 780384, Note_on_c, 1, 62, 100
3, 780384, Note_on_c, 1, 54, 100
3, 780384, Note_on_c, 1, 50, 100
3, 780764, Note_off_c, 1, 62, 64
3, 780764, Note_off_c, 1, 54, 64
3, 780764, Note_off_c, 1, 50, 64
3, 780764, End_track
4, 0, Start_track
4, 0, Title_t, "Midi by:"
4, 0, Control_c, 2, 0, 0
4, 0, Program_c, 2, 48
4, 0, Control_c, 2, 7, 90
4, 0, Control_c, 2, 10, 31
4, 0, Control_c, 2, 91, 63
4, 0, Control_c, 2, 93, 59
4, 0, Key_signature, -1, "minor"
4, 0, Control_c, 2, 121, 0
4, 144, Control_c, 2, 10, 53
4, 192, Control_c, 2, 91, 63
4, 288, Program_c, 2, 48
4, 22080, Note_on_c, 2, 62, 88
4, 22268, Note_off_c, 2, 62, 64
4, 22272, Note_on_c, 2, 65, 88
4, 22460, Note_off_c, 2, 65, 64
4, 22464, Note_on_c, 2, 69, 88
4, 22652, Note_off_c, 2, 69, 64
4, 22656, Note_on_c, 2, 74, 88
4, 22844, Note_off_c, 2, 74, 64
4, 22848, Note_on_c, 2, 77, 88
4, 23036, Note_off_c, 2, 77, 64
4, 23040, Note_on_c, 2, 81, 88
4, 23420, Note_off_c, 2, 81, 64
4, 23424, Note_on_c, 2, 74, 88
4, 23424, Note_on_c, 2, 69, 88
4, 23804, Note_off_c, 2, 74, 64
4, 23804, Note_off_c, 2, 69, 64
4, 23808, Note_on_c, 2, 73, 88
4, 23808, Note_on_c, 2, 67, 88
4, 24188, Note_off_c, 2, 73, 64
4, 24188, Note_off_c, 2, 67, 64
4, 24192, Note_on_c, 2, 74, 88
4, 24192, Note_on_c, 2, 65, 88
4, 24572, Note_off_c, 2, 74, 64
4, 24572, Note_off_c, 2, 65, 64
4, 24576, Note_on_c, 2, 82, 88
4, 24576, Note_on_c, 2, 79, 88
4, 24576, Note_on_c, 2, 76, 88
4, 25724, Note_off_c, 2, 82, 64
4, 25724, Note_off_c, 2, 79, 64
4, 25724, Note_off_c, 2, 76, 64
4, 25728, Note_on_c, 2, 81, 88
4, 25916, Note_off_c, 2, 81, 64
4, 25920, Note_on_c, 2, 79, 88
4, 26108, Note_off_c, 2, 79, 64
4, 26112, Note_on_c, 2, 79, 88
4, 26300, Note_off_c, 2, 79, 64
4, 26304, Note_on_c, 2, 78, 88
4, 26492, Note_off_c, 2, 78, 64
4, 26496, Note_on_c, 2, 76, 88
4, 26684, Note_off_c, 2, 76, 64
4, 26688, Note_on_c, 2, 74, 88
4, 26876, Note_off_c, 2, 74, 64
4, 26880, Note_on_c, 2, 79, 88
4, 27260, Note_off_c, 2, 79, 64
4, 27264, Note_on_c, 2, 79, 88
4, 27264, Note_on_c, 2, 74, 88
4, 27264, Note_on_c, 2, 70, 88
4, 27644, Note_off_c, 2, 79, 64
4, 27644, Note_off_c, 2, 74, 64
4, 27644, Note_off_c, 2, 70, 64
4, 27648, Note_on_c, 2, 84, 88
4, 27648, Note_on_c, 2, 81, 88
4, 27648, Note_on_c, 2, 87, 88
4, 28796, Note_off_c, 2, 84, 64
4, 28796, Note_off_c, 2, 81, 64
4, 28796, Note_off_c, 2, 87, 64
4, 28800, Note_on_c, 2, 86, 88
4, 28988, Note_off_c, 2, 86, 64
4, 28992, Note_on_c, 2, 84, 88
4, 29180, Note_off_c, 2, 84, 64
4, 29184, Note_on_c, 2, 84, 88
4, 29372, Note_off_c, 2, 84, 64
4, 29376, Note_on_c, 2, 82, 88
4, 29564, Note_off_c, 2, 82, 64
4, 29568, Note_on_c, 2, 81, 88
4, 29756, Note_off_c, 2, 81, 64
4, 29760, Note_on_c, 2, 79, 88
4, 29948, Note_off_c, 2, 79, 64
4, 29952, Note_on_c, 2, 86, 88
4, 29952, Note_on_c, 2, 82, 88
4, 29952, Note_on_c, 2, 76, 88
4, 30332, Note_off_c, 2, 86, 64
4, 30332, Note_off_c, 2, 82, 64
4, 30332, Note_off_c, 2, 76, 64
4, 30336, Note_on_c, 2, 82, 88
4, 30336, Note_on_c, 2, 77, 88
4, 30336, Note_on_c, 2, 86, 88
4, 30716, Note_off_c, 2, 82, 64
4, 30716, Note_off_c, 2, 77, 64
4, 30716, Note_off_c, 2, 86, 64
4, 30720, Note_on_c, 2, 79, 88
4, 30720, Note_on_c, 2, 82, 88
4, 30720, Note_on_c, 2, 86, 88
4, 31100, Note_off_c, 2, 82, 64
4, 31100, Note_off_c, 2, 86, 64
4, 31104, Note_on_c, 2, 84, 88
4, 31868, Note_off_c, 2, 84, 64
4, 31872, Note_on_c, 2, 82, 88
4, 32252, Note_off_c, 2, 79, 64
4, 32252, Note_off_c, 2, 82, 64
4, 32256, Note_on_c, 2, 81, 88
4, 32636, Note_off_c, 2, 81, 64
4, 32832, Note_on_c, 2, 65, 88
4, 33020, Note_off_c, 2, 65, 64
4, 33024, Note_on_c, 2, 69, 88
4, 33212, Note_off_c, 2, 69, 64
4, 33216, Note_on_c, 2, 72, 88
4, 33404, Note_off_c, 2, 72, 64
4, 33408, Note_on_c, 2, 77, 88
4, 33408, Note_on_c, 2, 77, 88
4, 33596, Note_off_c, 2, 77, 64
4, 33600, Note_on_c, 2, 81, 88
4, 33788, Note_off_c, 2, 81, 64
4, 33792, Note_on_c, 2, 84, 88
4, 34172, Note_off_c, 2, 84, 64
4, 34176, Note_on_c, 2, 82, 88
4, 34556, Note_off_c, 2, 77, 64
4, 34940, Note_off_c, 2, 82, 64
4, 34944, Note_on_c, 2, 81, 88
4, 34944, Note_on_c, 2, 74, 88
4, 34944, Note_on_c, 2, 70, 88
4, 35324, Note_off_c, 2, 81, 64
4, 35328, Note_on_c, 2, 79, 88
4, 35708, Note_off_c, 2, 70, 64
4, 35708, Note_off_c, 2, 74, 64
4, 35708, Note_off_c, 2, 79, 64
4, 35712, Note_on_c, 2, 73, 88
4, 35900, Note_off_c, 2, 73, 64
4, 35904, Note_on_c, 2, 64, 88
4, 36092, Note_off_c, 2, 64, 64
4, 36096, Note_on_c, 2, 67, 88
4, 36284, Note_off_c, 2, 67, 64
4, 36288, Note_on_c, 2, 70, 88
4, 36476, Note_off_c, 2, 70, 64
4, 36480, Note_on_c, 2, 76, 88
4, 36668, Note_off_c, 2, 76, 64
4, 36672, Note_on_c, 2, 79, 88
4, 36860, Note_off_c, 2, 79, 64
4, 36864, Note_on_c, 2, 82, 88
4, 36864, Note_on_c, 2, 76, 88
4, 37244, Note_off_c, 2, 82, 64
4, 37248, Note_on_c, 2, 81, 88
4, 38012, Note_off_c, 2, 76, 64
4, 38012, Note_off_c, 2, 81, 64
4, 38016, Note_on_c, 2, 79, 88
4, 38016, Note_on_c, 2, 76, 88
4, 38016, Note_on_c, 2, 69, 88
4, 38396, Note_off_c, 2, 79, 64
4, 38396, Note_off_c, 2, 76, 64
4, 38396, Note_off_c, 2, 69, 64
4, 38400, Note_on_c, 2, 77, 88
4, 38400, Note_on_c, 2, 74, 88
4, 38780, Note_off_c, 2, 77, 64
4, 38780, Note_off_c, 2, 74, 64
4, 38976, Note_on_c, 2, 62, 88
4, 39164, Note_off_c, 2, 62, 64
4, 39168, Note_on_c, 2, 66, 88
4, 39356, Note_off_c, 2, 66, 64
4, 39360, Note_on_c, 2, 69, 88
4, 39548, Note_off_c, 2, 69, 64
4, 39552, Note_on_c, 2, 74, 88
4, 39740, Note_off_c, 2, 74, 64
4, 39744, Note_on_c, 2, 78, 88
4, 39932, Note_off_c, 2, 78, 64
4, 39936, Note_on_c, 2, 79, 88
4, 39936, Note_on_c, 2, 74, 88
4, 40316, Note_off_c, 2, 79, 64
4, 40316, Note_off_c, 2, 74, 64
4, 40512, Note_on_c, 2, 62, 88
4, 40700, Note_off_c, 2, 62, 64
4, 40704, Note_on_c, 2, 67, 88
4, 40892, Note_off_c, 2, 67, 64
4, 40896, Note_on_c, 2, 71, 88
4, 41084, Note_off_c, 2, 71, 64
4, 41088, Note_on_c, 2, 74, 88
4, 41276, Note_off_c, 2, 74, 64
4, 41280, Note_on_c, 2, 79, 88
4, 41468, Note_off_c, 2, 79, 64
4, 41472, Note_on_c, 2, 80, 88
4, 41472, Note_on_c, 2, 76, 88
4, 41472, Note_on_c, 2, 71, 88
4, 41852, Note_off_c, 2, 80, 64
4, 41852, Note_off_c, 2, 76, 64
4, 41852, Note_off_c, 2, 71, 64
4, 42048, Note_on_c, 2, 64, 88
4, 42236, Note_off_c, 2, 64, 64
4, 42240, Note_on_c, 2, 67, 88
4, 42428, Note_off_c, 2, 67, 64
4, 42432, Note_on_c, 2, 71, 88
4, 42620, Note_off_c, 2, 71, 64
4, 42624, Note_on_c, 2, 76, 88
4, 42812, Note_off_c, 2, 76, 64
4, 42816, Note_on_c, 2, 80, 88
4, 43004, Note_off_c, 2, 80, 64
4, 43008, Note_on_c, 2, 81, 88
4, 43008, Note_on_c, 2, 76, 88
4, 43196, Note_off_c, 2, 81, 64
4, 43196, Note_off_c, 2, 76, 64
4, 43200, Note_on_c, 2, 69, 88
4, 43388, Note_off_c, 2, 69, 64
4, 43392, Note_on_c, 2, 81, 88
4, 43580, Note_off_c, 2, 81, 64
4, 43584, Note_on_c, 2, 81, 88
4, 43772, Note_off_c, 2, 81, 64
4, 43776, Note_on_c, 2, 79, 88
4, 43964, Note_off_c, 2, 79, 64
4, 43968, Note_on_c, 2, 77, 88
4, 44156, Note_off_c, 2, 77, 64
4, 44160, Note_on_c, 2, 76, 88
4, 44348, Note_off_c, 2, 76, 64
4, 44352, Note_on_c, 2, 74, 88
4, 44540, Note_off_c, 2, 74, 64
4, 44544, Note_on_c, 2, 73, 88
4, 44732, Note_off_c, 2, 73, 64
4, 44736, Note_on_c, 2, 81, 88
4, 44924, Note_off_c, 2, 81, 64
4, 44928, Note_on_c, 2, 81, 88
4, 45116, Note_off_c, 2, 81, 64
4, 45120, Note_on_c, 2, 81, 88
4, 45308, Note_off_c, 2, 81, 64
4, 45312, Note_on_c, 2, 79, 88
4, 45500, Note_off_c, 2, 79, 64
4, 45504, Note_on_c, 2, 77, 88
4, 45692, Note_off_c, 2, 77, 64
4, 45696, Note_on_c, 2, 76, 88
4, 45884, Note_off_c, 2, 76, 64
4, 45888, Note_on_c, 2, 74, 88
4, 46076, Note_off_c, 2, 74, 64
4, 46080, Note_on_c, 2, 73, 88
4, 46268, Note_off_c, 2, 73, 64
4, 46272, Note_on_c, 2, 69, 88
4, 46460, Note_off_c, 2, 69, 64
4, 46464, Note_on_c, 2, 69, 88
4, 46652, Note_off_c, 2, 69, 64
4, 46656, Note_on_c, 2, 69, 88
4, 46844, Note_off_c, 2, 69, 64
4, 46848, Note_on_c, 2, 67, 88
4, 47036, Note_off_c, 2, 67, 64
4, 47040, Note_on_c, 2, 65, 88
4, 47228, Note_off_c, 2, 65, 64
4, 47232, Note_on_c, 2, 64, 88
4, 47420, Note_off_c, 2, 64, 64
4, 47424, Note_on_c, 2, 62, 88
4, 47612, Note_off_c, 2, 62, 64
4, 47616, Note_on_c, 2, 69, 88
4, 47804, Note_off_c, 2, 69, 64
4, 47808, Note_on_c, 2, 57, 88
4, 47996, Note_off_c, 2, 57, 64
4, 48000, Note_on_c, 2, 57, 88
4, 48188, Note_off_c, 2, 57, 64
4, 48192, Note_on_c, 2, 57, 88
4, 48380, Note_off_c, 2, 57, 64
4, 48384, Note_on_c, 2, 57, 88
4, 48572, Note_off_c, 2, 57, 64
4, 48576, Note_on_c, 2, 57, 88
4, 48764, Note_off_c, 2, 57, 64
4, 48768, Note_on_c, 2, 57, 88
4, 48956, Note_off_c, 2, 57, 64
4, 48960, Note_on_c, 2, 57, 88
4, 49148, Note_off_c, 2, 57, 64
4, 49152, Note_on_c, 2, 58, 88
4, 49340, Note_off_c, 2, 58, 64
4, 49344, Note_on_c, 2, 57, 88
4, 49532, Note_off_c, 2, 57, 64
4, 49536, Note_on_c, 2, 57, 88
4, 49724, Note_off_c, 2, 57, 64
4, 49728, Note_on_c, 2, 57, 88
4, 49916, Note_off_c, 2, 57, 64
4, 49920, Note_on_c, 2, 57, 88
4, 50108, Note_off_c, 2, 57, 64
4, 50112, Note_on_c, 2, 57, 88
4, 50300, Note_off_c, 2, 57, 64
4, 50304, Note_on_c, 2, 57, 88
4, 50492, Note_off_c, 2, 57, 64
4, 50496, Note_on_c, 2, 57, 88
4, 50684, Note_off_c, 2, 57, 64
4, 50688, Note_on_c, 2, 81, 88
4, 50876, Note_off_c, 2, 81, 64
4, 50880, Note_on_c, 2, 69, 88
4, 51068, Note_off_c, 2, 69, 64
4, 51072, Note_on_c, 2, 69, 88
4, 51260, Note_off_c, 2, 69, 64
4, 51264, Note_on_c, 2, 69, 88
4, 51452, Note_off_c, 2, 69, 64
4, 51456, Note_on_c, 2, 69, 88
4, 51644, Note_off_c, 2, 69, 64
4, 51648, Note_on_c, 2, 69, 88
4, 51836, Note_off_c, 2, 69, 64
4, 51840, Note_on_c, 2, 69, 88
4, 52028, Note_off_c, 2, 69, 64
4, 52032, Note_on_c, 2, 69, 88
4, 52220, Note_off_c, 2, 69, 64
4, 52224, Note_on_c, 2, 70, 88
4, 52412, Note_off_c, 2, 70, 64
4, 52416, Note_on_c, 2, 69, 88
4, 52604, Note_off_c, 2, 69, 64
4, 52608, Note_on_c, 2, 69, 88
4, 52796, Note_off_c, 2, 69, 64
4, 52800, Note_on_c, 2, 69, 88
4, 52988, Note_off_c, 2, 69, 64
4, 52992, Note_on_c, 2, 69, 88
4, 53180, Note_off_c, 2, 69, 64
4, 53184, Note_on_c, 2, 69, 88
4, 53372, Note_off_c, 2, 69, 64
4, 53376, Note_on_c, 2, 69, 88
4, 53564, Note_off_c, 2, 69, 64
4, 53568, Note_on_c, 2, 69, 88
4, 53756, Note_off_c, 2, 69, 64
4, 53760, Note_on_c, 2, 71, 88
4, 53948, Note_off_c, 2, 71, 64
4, 53952, Note_on_c, 2, 69, 88
4, 54140, Note_off_c, 2, 69, 64
4, 54144, Note_on_c, 2, 71, 88
4, 54332, Note_off_c, 2, 71, 64
4, 54336, Note_on_c, 2, 69, 88
4, 54524, Note_off_c, 2, 69, 64
4, 54528, Note_on_c, 2, 71, 88
4, 54716, Note_off_c, 2, 71, 64
4, 54720, Note_on_c, 2, 69, 88
4, 54908, Note_off_c, 2, 69, 64
4, 54912, Note_on_c, 2, 71, 88
4, 55100, Note_off_c, 2, 71, 64
4, 55104, Note_on_c, 2, 69, 88
4, 55292, Note_off_c, 2, 69, 64
4, 55296, Note_on_c, 2, 73, 88
4, 55484, Note_off_c, 2, 73, 64
4, 55488, Note_on_c, 2, 69, 88
4, 55676, Note_off_c, 2, 69, 64
4, 55680, Note_on_c, 2, 69, 88
4, 55868, Note_off_c, 2, 69, 64
4, 55872, Note_on_c, 2, 69, 88
4, 56060, Note_off_c, 2, 69, 64
4, 56064, Note_on_c, 2, 69, 88
4, 56252, Note_off_c, 2, 69, 64
4, 56256, Note_on_c, 2, 69, 88
4, 56444, Note_off_c, 2, 69, 64
4, 56448, Note_on_c, 2, 69, 88
4, 56636, Note_off_c, 2, 69, 64
4, 56640, Note_on_c, 2, 69, 88
4, 56828, Note_off_c, 2, 69, 64
4, 56832, Note_on_c, 2, 74, 88
4, 57020, Note_off_c, 2, 74, 64
4, 57024, Note_on_c, 2, 69, 88
4, 57212, Note_off_c, 2, 69, 64
4, 57216, Note_on_c, 2, 74, 88
4, 57404, Note_off_c, 2, 74, 64
4, 57408, Note_on_c, 2, 69, 88
4, 57596, Note_off_c, 2, 69, 64
4, 57600, Note_on_c, 2, 75, 88
4, 57788, Note_off_c, 2, 75, 64
4, 57792, Note_on_c, 2, 69, 88
4, 57980, Note_off_c, 2, 69, 64
4, 57984, Note_on_c, 2, 75, 88
4, 58172, Note_off_c, 2, 75, 64
4, 58176, Note_on_c, 2, 69, 88
4, 58364, Note_off_c, 2, 69, 64
4, 58368, Note_on_c, 2, 76, 88
4, 58556, Note_off_c, 2, 76, 64
4, 58560, Note_on_c, 2, 69, 88
4, 58748, Note_off_c, 2, 69, 64
4, 58752, Note_on_c, 2, 76, 88
4, 58940, Note_off_c, 2, 76, 64
4, 58944, Note_on_c, 2, 69, 88
4, 59132, Note_off_c, 2, 69, 64
4, 59136, Note_on_c, 2, 78, 88
4, 59324, Note_off_c, 2, 78, 64
4, 59328, Note_on_c, 2, 69, 88
4, 59516, Note_off_c, 2, 69, 64
4, 59520, Note_on_c, 2, 78, 88
4, 59708, Note_off_c, 2, 78, 64
4, 59712, Note_on_c, 2, 69, 88
4, 59900, Note_off_c, 2, 69, 64
4, 59904, Note_on_c, 2, 79, 88
4, 60092, Note_off_c, 2, 79, 64
4, 60096, Note_on_c, 2, 69, 88
4, 60284, Note_off_c, 2, 69, 64
4, 60288, Note_on_c, 2, 79, 88
4, 60476, Note_off_c, 2, 79, 64
4, 60480, Note_on_c, 2, 69, 88
4, 60668, Note_off_c, 2, 69, 64
4, 60672, Note_on_c, 2, 80, 88
4, 60672, Note_on_c, 2, 77, 88
4, 60860, Note_off_c, 2, 80, 64
4, 60860, Note_off_c, 2, 77, 64
4, 60864, Note_on_c, 2, 69, 88
4, 61052, Note_off_c, 2, 69, 64
4, 61056, Note_on_c, 2, 80, 88
4, 61056, Note_on_c, 2, 77, 88
4, 61244, Note_off_c, 2, 80, 64
4, 61244, Note_off_c, 2, 77, 64
4, 61248, Note_on_c, 2, 69, 88
4, 61436, Note_off_c, 2, 69, 64
4, 61440, Note_on_c, 2, 81, 88
4, 61440, Note_on_c, 2, 76, 88
4, 61628, Note_off_c, 2, 81, 64
4, 61628, Note_off_c, 2, 76, 64
4, 61632, Note_on_c, 2, 69, 88
4, 61820, Note_off_c, 2, 69, 64
4, 61824, Note_on_c, 2, 81, 88
4, 61824, Note_on_c, 2, 76, 88
4, 62012, Note_off_c, 2, 81, 64
4, 62012, Note_off_c, 2, 76, 64
4, 62016, Note_on_c, 2, 69, 88
4, 62204, Note_off_c, 2, 69, 64
4, 62208, Note_on_c, 2, 79, 88
4, 62208, Note_on_c, 2, 73, 88
4, 62396, Note_off_c, 2, 79, 64
4, 62396, Note_off_c, 2, 73, 64
4, 62400, Note_on_c, 2, 69, 88
4, 62588, Note_off_c, 2, 69, 64
4, 62592, Note_on_c, 2, 79, 88
4, 62592, Note_on_c, 2, 73, 88
4, 62780, Note_off_c, 2, 79, 64
4, 62780, Note_off_c, 2, 73, 64
4, 62784, Note_on_c, 2, 69, 88
4, 62972, Note_off_c, 2, 69, 64
4, 62976, Note_on_c, 2, 77, 88
4, 63164, Note_off_c, 2, 77, 64
4, 63168, Note_on_c, 2, 74, 88
4, 63356, Note_off_c, 2, 74, 64
4, 66048, Note_on_c, 2, 74, 88
4, 66048, Note_on_c, 2, 74, 88
4, 66236, Note_off_c, 2, 74, 64
4, 66240, Note_on_c, 2, 62, 88
4, 66428, Note_off_c, 2, 62, 64
4, 66624, Note_on_c, 2, 62, 88
4, 66812, Note_off_c, 2, 74, 64
4, 66812, Note_off_c, 2, 62, 64
4, 67008, Note_on_c, 2, 62, 88
4, 67196, Note_off_c, 2, 62, 64
4, 67392, Note_on_c, 2, 62, 88
4, 67580, Note_off_c, 2, 62, 64
4, 67584, Note_on_c, 2, 61, 88
4, 67772, Note_off_c, 2, 61, 64
4, 67776, Note_on_c, 2, 62, 88
4, 67964, Note_off_c, 2, 62, 64
4, 68160, Note_on_c, 2, 62, 88
4, 68348, Note_off_c, 2, 62, 64
4, 68544, Note_on_c, 2, 62, 88
4, 68732, Note_off_c, 2, 62, 64
4, 68928, Note_on_c, 2, 62, 88
4, 69116, Note_off_c, 2, 62, 64
4, 69120, Note_on_c, 2, 59, 88
4, 69308, Note_off_c, 2, 59, 64
4, 69312, Note_on_c, 2, 62, 88
4, 69500, Note_off_c, 2, 62, 64
4, 69504, Note_on_c, 2, 86, 88
4, 69692, Note_off_c, 2, 86, 64
4, 69696, Note_on_c, 2, 74, 88
4, 69884, Note_off_c, 2, 74, 64
4, 69888, Note_on_c, 2, 86, 88
4, 70076, Note_off_c, 2, 86, 64
4, 70080, Note_on_c, 2, 74, 88
4, 70268, Note_off_c, 2, 74, 64
4, 70272, Note_on_c, 2, 86, 88
4, 70460, Note_off_c, 2, 86, 64
4, 70464, Note_on_c, 2, 74, 88
4, 70652, Note_off_c, 2, 74, 64
4, 70656, Note_on_c, 2, 85, 88
4, 70656, Note_on_c, 2, 81, 88
4, 70656, Note_on_c, 2, 74, 88
4, 70844, Note_off_c, 2, 85, 64
4, 70844, Note_off_c, 2, 81, 64
4, 70844, Note_off_c, 2, 74, 64
4, 70848, Note_on_c, 2, 86, 88
4, 71036, Note_off_c, 2, 86, 64
4, 71040, Note_on_c, 2, 85, 88
4, 71040, Note_on_c, 2, 81, 88
4, 71040, Note_on_c, 2, 74, 88
4, 71228, Note_off_c, 2, 85, 64
4, 71228, Note_off_c, 2, 81, 64
4, 71228, Note_off_c, 2, 74, 64
4, 71232, Note_on_c, 2, 86, 88
4, 71420, Note_off_c, 2, 86, 64
4, 71424, Note_on_c, 2, 84, 88
4, 71424, Note_on_c, 2, 78, 88
4, 71424, Note_on_c, 2, 74, 88
4, 71612, Note_off_c, 2, 84, 64
4, 71612, Note_off_c, 2, 78, 64
4, 71612, Note_off_c, 2, 74, 64
4, 71616, Note_on_c, 2, 86, 88
4, 71804, Note_off_c, 2, 86, 64
4, 71808, Note_on_c, 2, 84, 88
4, 71808, Note_on_c, 2, 78, 88
4, 71808, Note_on_c, 2, 74, 88
4, 71996, Note_off_c, 2, 84, 64
4, 71996, Note_off_c, 2, 78, 64
4, 71996, Note_off_c, 2, 74, 64
4, 72000, Note_on_c, 2, 86, 88
4, 72188, Note_off_c, 2, 86, 64
4, 72192, Note_on_c, 2, 83, 88
4, 72192, Note_on_c, 2, 79, 88
4, 72192, Note_on_c, 2, 74, 88
4, 72380, Note_off_c, 2, 83, 64
4, 72380, Note_off_c, 2, 79, 64
4, 72380, Note_off_c, 2, 74, 64
4, 72384, Note_on_c, 2, 86, 88
4, 72572, Note_off_c, 2, 86, 64
4, 72576, Note_on_c, 2, 83, 88
4, 72576, Note_on_c, 2, 79, 88
4, 72576, Note_on_c, 2, 74, 88
4, 72764, Note_off_c, 2, 83, 64
4, 72764, Note_off_c, 2, 79, 64
4, 72764, Note_off_c, 2, 74, 64
4, 72768, Note_on_c, 2, 86, 88
4, 72956, Note_off_c, 2, 86, 64
4, 72960, Note_on_c, 2, 82, 88
4, 72960, Note_on_c, 2, 79, 88
4, 72960, Note_on_c, 2, 74, 88
4, 73148, Note_off_c, 2, 82, 64
4, 73148, Note_off_c, 2, 79, 64
4, 73148, Note_off_c, 2, 74, 64
4, 73152, Note_on_c, 2, 86, 88
4, 73340, Note_off_c, 2, 86, 64
4, 73344, Note_on_c, 2, 82, 88
4, 73344, Note_on_c, 2, 79, 88
4, 73532, Note_off_c, 2, 82, 64
4, 73532, Note_off_c, 2, 79, 64
4, 73536, Note_on_c, 2, 86, 88
4, 73724, Note_off_c, 2, 86, 64
4, 73728, Note_on_c, 2, 81, 88
4, 73728, Note_on_c, 2, 74, 88
4, 73916, Note_off_c, 2, 81, 64
4, 73916, Note_off_c, 2, 74, 64
4, 73920, Note_on_c, 2, 86, 88
4, 74108, Note_off_c, 2, 86, 64
4, 74112, Note_on_c, 2, 81, 88
4, 74112, Note_on_c, 2, 74, 88
4, 74300, Note_off_c, 2, 81, 64
4, 74300, Note_off_c, 2, 74, 64
4, 74304, Note_on_c, 2, 86, 88
4, 74492, Note_off_c, 2, 86, 64
4, 74496, Note_on_c, 2, 81, 88
4, 74496, Note_on_c, 2, 74, 88
4, 74684, Note_off_c, 2, 81, 64
4, 74684, Note_off_c, 2, 74, 64
4, 74688, Note_on_c, 2, 86, 88
4, 74876, Note_off_c, 2, 86, 64
4, 74880, Note_on_c, 2, 81, 88
4, 74880, Note_on_c, 2, 74, 88
4, 75068, Note_off_c, 2, 81, 64
4, 75068, Note_off_c, 2, 74, 64
4, 75072, Note_on_c, 2, 86, 88
4, 75260, Note_off_c, 2, 86, 64
4, 75264, Note_on_c, 2, 79, 88
4, 75264, Note_on_c, 2, 76, 88
4, 75452, Note_off_c, 2, 79, 64
4, 75452, Note_off_c, 2, 76, 64
4, 75456, Note_on_c, 2, 88, 88
4, 75644, Note_off_c, 2, 88, 64
4, 75648, Note_on_c, 2, 79, 88
4, 75648, Note_on_c, 2, 76, 88
4, 75836, Note_off_c, 2, 79, 64
4, 75836, Note_off_c, 2, 76, 64
4, 75840, Note_on_c, 2, 88, 88
4, 76028, Note_off_c, 2, 88, 64
4, 76032, Note_on_c, 2, 79, 88
4, 76032, Note_on_c, 2, 76, 88
4, 76220, Note_off_c, 2, 79, 64
4, 76220, Note_off_c, 2, 76, 64
4, 76224, Note_on_c, 2, 88, 88
4, 76412, Note_off_c, 2, 88, 64
4, 76416, Note_on_c, 2, 79, 88
4, 76416, Note_on_c, 2, 76, 88
4, 76604, Note_off_c, 2, 79, 64
4, 76604, Note_off_c, 2, 76, 64
4, 76608, Note_on_c, 2, 88, 88
4, 76796, Note_off_c, 2, 88, 64
4, 76800, Note_on_c, 2, 76, 88
4, 76800, Note_on_c, 2, 77, 88
4, 76988, Note_off_c, 2, 76, 64
4, 76988, Note_off_c, 2, 77, 64
4, 76992, Note_on_c, 2, 86, 88
4, 77180, Note_off_c, 2, 86, 64
4, 77184, Note_on_c, 2, 76, 88
4, 77184, Note_on_c, 2, 77, 88
4, 77372, Note_off_c, 2, 76, 64
4, 77372, Note_off_c, 2, 77, 64
4, 77376, Note_on_c, 2, 86, 88
4, 77564, Note_off_c, 2, 86, 64
4, 77568, Note_on_c, 2, 77, 88
4, 77568, Note_on_c, 2, 74, 88
4, 77756, Note_off_c, 2, 77, 64
4, 77756, Note_off_c, 2, 74, 64
4, 77760, Note_on_c, 2, 86, 88
4, 77948, Note_off_c, 2, 86, 64
4, 77952, Note_on_c, 2, 77, 88
4, 77952, Note_on_c, 2, 74, 88
4, 78140, Note_off_c, 2, 77, 64
4, 78140, Note_off_c, 2, 74, 64
4, 78144, Note_on_c, 2, 86, 88
4, 78332, Note_off_c, 2, 86, 64
4, 78336, Note_on_c, 2, 82, 88
4, 78336, Note_on_c, 2, 76, 88
4, 78524, Note_off_c, 2, 82, 64
4, 78524, Note_off_c, 2, 76, 64
4, 78528, Note_on_c, 2, 86, 88
4, 78716, Note_off_c, 2, 86, 64
4, 78720, Note_on_c, 2, 82, 88
4, 78720, Note_on_c, 2, 76, 88
4, 78908, Note_off_c, 2, 82, 64
4, 78908, Note_off_c, 2, 76, 64
4, 78912, Note_on_c, 2, 86, 88
4, 79100, Note_off_c, 2, 86, 64
4, 79104, Note_on_c, 2, 81, 88
4, 79104, Note_on_c, 2, 76, 88
4, 79292, Note_off_c, 2, 81, 64
4, 79292, Note_off_c, 2, 76, 64
4, 79296, Note_on_c, 2, 85, 88
4, 79484, Note_off_c, 2, 85, 64
4, 79488, Note_on_c, 2, 81, 88
4, 79488, Note_on_c, 2, 76, 88
4, 79676, Note_off_c, 2, 81, 64
4, 79676, Note_off_c, 2, 76, 64
4, 79680, Note_on_c, 2, 85, 88
4, 79868, Note_off_c, 2, 85, 64
4, 79872, Note_on_c, 2, 86, 88
4, 79872, Note_on_c, 2, 77, 88
4, 79872, Note_on_c, 2, 74, 88
4, 81404, Note_off_c, 2, 86, 64
4, 81404, Note_off_c, 2, 77, 64
4, 81404, Note_off_c, 2, 74, 64
4, 81408, Note_on_c, 2, 87, 88
4, 81408, Note_on_c, 2, 84, 88
4, 81408, Note_on_c, 2, 77, 88
4, 82172, Note_off_c, 2, 87, 64
4, 82172, Note_off_c, 2, 84, 64
4, 82172, Note_off_c, 2, 77, 64
4, 82176, Note_on_c, 2, 65, 88
4, 82176, Note_on_c, 2, 75, 88
4, 82176, Note_on_c, 2, 72, 88
4, 82748, Note_off_c, 2, 65, 64
4, 82748, Note_off_c, 2, 75, 64
4, 82748, Note_off_c, 2, 72, 64
4, 82752, Note_on_c, 2, 75, 88
4, 82752, Note_on_c, 2, 72, 88
4, 82752, Note_on_c, 2, 65, 88
4, 82940, Note_off_c, 2, 75, 64
4, 82940, Note_off_c, 2, 72, 64
4, 82940, Note_off_c, 2, 65, 64
4, 82944, Note_on_c, 2, 74, 88
4, 82944, Note_on_c, 2, 70, 88
4, 82944, Note_on_c, 2, 65, 88
4, 84476, Note_off_c, 2, 74, 64
4, 84476, Note_off_c, 2, 70, 64
4, 84476, Note_off_c, 2, 65, 64
4, 84480, Note_on_c, 2, 87, 88
4, 84480, Note_on_c, 2, 84, 88
4, 84480, Note_on_c, 2, 78, 88
4, 85244, Note_off_c, 2, 87, 64
4, 85244, Note_off_c, 2, 84, 64
4, 85244, Note_off_c, 2, 78, 64
4, 85248, Note_on_c, 2, 75, 88
4, 85248, Note_on_c, 2, 72, 88
4, 85248, Note_on_c, 2, 66, 88
4, 85820, Note_off_c, 2, 75, 64
4, 85820, Note_off_c, 2, 72, 64
4, 85820, Note_off_c, 2, 66, 64
4, 85824, Note_on_c, 2, 75, 88
4, 85824, Note_on_c, 2, 72, 88
4, 85824, Note_on_c, 2, 66, 88
4, 86012, Note_off_c, 2, 75, 64
4, 86012, Note_off_c, 2, 72, 64
4, 86012, Note_off_c, 2, 66, 64
4, 86016, Note_on_c, 2, 74, 88
4, 86016, Note_on_c, 2, 70, 88
4, 86016, Note_on_c, 2, 67, 88
4, 87548, Note_off_c, 2, 74, 64
4, 87548, Note_off_c, 2, 70, 64
4, 87548, Note_off_c, 2, 67, 64
4, 87552, Note_on_c, 2, 89, 88
4, 87552, Note_on_c, 2, 86, 88
4, 87552, Note_on_c, 2, 80, 88
4, 88316, Note_off_c, 2, 89, 64
4, 88316, Note_off_c, 2, 86, 64
4, 88316, Note_off_c, 2, 80, 64
4, 88320, Note_on_c, 2, 80, 88
4, 88320, Note_on_c, 2, 77, 88
4, 88320, Note_on_c, 2, 74, 88
4, 88892, Note_off_c, 2, 80, 64
4, 88892, Note_off_c, 2, 77, 64
4, 88892, Note_off_c, 2, 74, 64
4, 88896, Note_on_c, 2, 80, 88
4, 88896, Note_on_c, 2, 77, 88
4, 88896, Note_on_c, 2, 74, 88
4, 89084, Note_off_c, 2, 80, 64
4, 89084, Note_off_c, 2, 77, 64
4, 89084, Note_off_c, 2, 74, 64
4, 89088, Note_on_c, 2, 81, 88
4, 89088, Note_on_c, 2, 76, 88
4, 89088, Note_on_c, 2, 69, 88
4, 89468, Note_off_c, 2, 81, 64
4, 89468, Note_off_c, 2, 76, 64
4, 89468, Note_off_c, 2, 69, 64
4, 89472, Note_on_c, 2, 79, 88
4, 89472, Note_on_c, 2, 69, 88
4, 89472, Note_on_c, 2, 76, 88
4, 89852, Note_off_c, 2, 79, 64
4, 89852, Note_off_c, 2, 69, 64
4, 89852, Note_off_c, 2, 76, 64
4, 90240, Note_on_c, 2, 77, 88
4, 90240, Note_on_c, 2, 74, 88
4, 90240, Note_on_c, 2, 69, 88
4, 90620, Note_off_c, 2, 77, 64
4, 90620, Note_off_c, 2, 74, 64
4, 90620, Note_off_c, 2, 69, 64
4, 91008, Note_on_c, 2, 76, 88
4, 91008, Note_on_c, 2, 70, 88
4, 91008, Note_on_c, 2, 67, 88
4, 91388, Note_off_c, 2, 76, 64
4, 91388, Note_off_c, 2, 70, 64
4, 91388, Note_off_c, 2, 67, 64
4, 91776, Note_on_c, 2, 73, 88
4, 91776, Note_on_c, 2, 69, 88
4, 91776, Note_on_c, 2, 67, 88
4, 92156, Note_off_c, 2, 73, 64
4, 92156, Note_off_c, 2, 69, 64
4, 92156, Note_off_c, 2, 67, 64
4, 92160, Note_on_c, 2, 74, 88
4, 92160, Note_on_c, 2, 69, 88
4, 92160, Note_on_c, 2, 65, 88
4, 92540, Note_off_c, 2, 74, 64
4, 92540, Note_off_c, 2, 69, 64
4, 92540, Note_off_c, 2, 65, 64
4, 92544, Note_on_c, 2, 77, 88
4, 92732, Note_off_c, 2, 77, 64
4, 92736, Note_on_c, 2, 76, 88
4, 92924, Note_off_c, 2, 76, 64
4, 92928, Note_on_c, 2, 74, 88
4, 93116, Note_off_c, 2, 74, 64
4, 93120, Note_on_c, 2, 72, 88
4, 93308, Note_off_c, 2, 72, 64
4, 93312, Note_on_c, 2, 70, 88
4, 93500, Note_off_c, 2, 70, 64
4, 93504, Note_on_c, 2, 69, 88
4, 93692, Note_off_c, 2, 69, 64
4, 93696, Note_on_c, 2, 70, 88
4, 93884, Note_off_c, 2, 70, 64
4, 93888, Note_on_c, 2, 69, 88
4, 94076, Note_off_c, 2, 69, 64
4, 94080, Note_on_c, 2, 67, 88
4, 94268, Note_off_c, 2, 67, 64
4, 94272, Note_on_c, 2, 65, 88
4, 94460, Note_off_c, 2, 65, 64
4, 94464, Note_on_c, 2, 64, 88
4, 94652, Note_off_c, 2, 64, 64
4, 94656, Note_on_c, 2, 62, 88
4, 94844, Note_off_c, 2, 62, 64
4, 94848, Note_on_c, 2, 60, 88
4, 95036, Note_off_c, 2, 60, 64
4, 95040, Note_on_c, 2, 58, 88
4, 95228, Note_off_c, 2, 58, 64
4, 95232, Note_on_c, 2, 57, 88
4, 95612, Note_off_c, 2, 57, 64
4, 96000, Note_on_c, 2, 85, 84
4, 96000, Note_on_c, 2, 76, 88
4, 96000, Note_on_c, 2, 73, 88
4, 96380, Note_off_c, 2, 85, 64
4, 96380, Note_off_c, 2, 76, 64
4, 96380, Note_off_c, 2, 73, 64
4, 96768, Note_on_c, 2, 86, 84
4, 96768, Note_on_c, 2, 77, 88
4, 96768, Note_on_c, 2, 74, 88
4, 97532, Note_off_c, 2, 86, 64
4, 97532, Note_off_c, 2, 77, 64
4, 97532, Note_off_c, 2, 74, 64
4, 122880, Note_on_c, 2, 70, 71
4, 122880, Note_on_c, 2, 67, 71
4, 122880, Note_on_c, 2, 64, 71
4, 125564, Note_off_c, 2, 64, 64
4, 125564, Note_off_c, 2, 67, 64
4, 125564, Note_off_c, 2, 70, 64
4, 125568, Note_on_c, 2, 67, 71
4, 125568, Note_on_c, 2, 64, 71
4, 125948, Note_off_c, 2, 67, 64
4, 125948, Note_off_c, 2, 64, 64
4, 125952, Note_on_c, 2, 72, 71
4, 125952, Note_on_c, 2, 69, 71
4, 125952, Note_on_c, 2, 65, 71
4, 128636, Note_off_c, 2, 65, 64
4, 128636, Note_off_c, 2, 69, 64
4, 128636, Note_off_c, 2, 72, 64
4, 128640, Note_on_c, 2, 69, 71
4, 128640, Note_on_c, 2, 66, 71
4, 128640, Note_on_c, 2, 62, 71
4, 129020, Note_off_c, 2, 69, 64
4, 129020, Note_off_c, 2, 66, 64
4, 129020, Note_off_c, 2, 62, 64
4, 129024, Note_on_c, 2, 74, 71
4, 129024, Note_on_c, 2, 67, 71
4, 129024, Note_on_c, 2, 62, 71
4, 131324, Note_off_c, 2, 67, 64
4, 131324, Note_off_c, 2, 74, 64
4, 131328, Note_on_c, 2, 67, 71
4, 131328, Note_on_c, 2, 65, 71
4, 132092, Note_off_c, 2, 62, 64
4, 132092, Note_off_c, 2, 67, 64
4, 132092, Note_off_c, 2, 65, 64
4, 132096, Note_on_c, 2, 67, 71
4, 132096, Note_on_c, 2, 64, 71
4, 132096, Note_on_c, 2, 60, 71
4, 132476, Note_off_c, 2, 67, 64
4, 132476, Note_off_c, 2, 64, 64
4, 132476, Note_off_c, 2, 60, 64
4, 132864, Note_on_c, 2, 76, 71
4, 132864, Note_on_c, 2, 64, 71
4, 133244, Note_off_c, 2, 76, 64
4, 133244, Note_off_c, 2, 64, 64
4, 133632, Note_on_c, 2, 77, 71
4, 133632, Note_on_c, 2, 65, 71
4, 134012, Note_off_c, 2, 77, 64
4, 134012, Note_off_c, 2, 65, 64
4, 134400, Note_on_c, 2, 81, 71
4, 134400, Note_on_c, 2, 69, 71
4, 134780, Note_off_c, 2, 81, 64
4, 134780, Note_off_c, 2, 69, 64
4, 135168, Note_on_c, 2, 84, 71
4, 135168, Note_on_c, 2, 72, 71
4, 135548, Note_off_c, 2, 84, 64
4, 135548, Note_off_c, 2, 72, 64
4, 135936, Note_on_c, 2, 64, 71
4, 136316, Note_off_c, 2, 64, 64
4, 136704, Note_on_c, 2, 65, 71
4, 137084, Note_off_c, 2, 65, 64
4, 137472, Note_on_c, 2, 69, 71
4, 137852, Note_off_c, 2, 69, 64
4, 138240, Note_on_c, 2, 72, 71
4, 138620, Note_off_c, 2, 72, 64
4, 141312, Note_on_c, 2, 72, 71
4, 141312, Note_on_c, 2, 67, 71
4, 141312, Note_on_c, 2, 64, 71
4, 141692, Note_off_c, 2, 72, 64
4, 141692, Note_off_c, 2, 67, 64
4, 141692, Note_off_c, 2, 64, 64
4, 152064, Note_on_c, 2, 84, 71
4, 152064, Note_on_c, 2, 72, 71
4, 153596, Note_off_c, 2, 84, 64
4, 153596, Note_off_c, 2, 72, 64
4, 153600, Note_on_c, 2, 85, 71
4, 153600, Note_on_c, 2, 73, 71
4, 155132, Note_off_c, 2, 85, 64
4, 155132, Note_off_c, 2, 73, 64
4, 155136, Note_on_c, 2, 84, 71
4, 155136, Note_on_c, 2, 72, 71
4, 155516, Note_off_c, 2, 84, 64
4, 155516, Note_off_c, 2, 72, 64
4, 155520, Note_on_c, 2, 80, 71
4, 155708, Note_off_c, 2, 80, 64
4, 155904, Note_on_c, 2, 82, 71
4, 155904, Note_on_c, 2, 70, 71
4, 156284, Note_off_c, 2, 82, 64
4, 156284, Note_off_c, 2, 70, 64
4, 156288, Note_on_c, 2, 79, 71
4, 156476, Note_off_c, 2, 79, 64
4, 156672, Note_on_c, 2, 80, 71
4, 156672, Note_on_c, 2, 68, 71
4, 157052, Note_off_c, 2, 80, 64
4, 157052, Note_off_c, 2, 68, 64
4, 157056, Note_on_c, 2, 77, 71
4, 157244, Note_off_c, 2, 77, 64
4, 157440, Note_on_c, 2, 79, 71
4, 157440, Note_on_c, 2, 67, 71
4, 157820, Note_off_c, 2, 79, 64
4, 157820, Note_off_c, 2, 67, 64
4, 157824, Note_on_c, 2, 76, 71
4, 158012, Note_off_c, 2, 76, 64
4, 158208, Note_on_c, 2, 77, 71
4, 158208, Note_on_c, 2, 71, 71
4, 159740, Note_off_c, 2, 71, 64
4, 159744, Note_on_c, 2, 72, 71
4, 159744, Note_on_c, 2, 84, 71
4, 160124, Note_off_c, 2, 77, 64
4, 160892, Note_off_c, 2, 84, 64
4, 160896, Note_on_c, 2, 76, 71
4, 161276, Note_off_c, 2, 72, 64
4, 161276, Note_off_c, 2, 76, 64
4, 161280, Note_on_c, 2, 77, 71
4, 161280, Note_on_c, 2, 71, 71
4, 161280, Note_on_c, 2, 77, 71
4, 161660, Note_off_c, 2, 77, 64
4, 162812, Note_off_c, 2, 71, 64
4, 162816, Note_on_c, 2, 72, 71
4, 162816, Note_on_c, 2, 84, 71
4, 163196, Note_off_c, 2, 77, 64
4, 163964, Note_off_c, 2, 84, 64
4, 163968, Note_on_c, 2, 76, 71
4, 164348, Note_off_c, 2, 72, 64
4, 164348, Note_off_c, 2, 76, 64
4, 164352, Note_on_c, 2, 77, 71
4, 164352, Note_on_c, 2, 71, 71
4, 165884, Note_off_c, 2, 77, 64
4, 165884, Note_off_c, 2, 71, 64
4, 165888, Note_on_c, 2, 83, 71
4, 165888, Note_on_c, 2, 80, 71
4, 165888, Note_on_c, 2, 89, 71
4, 167420, Note_off_c, 2, 83, 64
4, 167420, Note_off_c, 2, 80, 64
4, 167424, Note_on_c, 2, 84, 71
4, 167424, Note_on_c, 2, 81, 71
4, 167424, Note_on_c, 2, 88, 73
4, 168188, Note_off_c, 2, 84, 64
4, 168188, Note_off_c, 2, 81, 64
4, 168188, Note_off_c, 2, 89, 64
4, 168188, Note_off_c, 2, 88, 64
4, 168192, Note_on_c, 2, 81, 71
4, 168192, Note_on_c, 2, 77, 71
4, 168192, Note_on_c, 2, 72, 71
4, 168956, Note_off_c, 2, 81, 64
4, 168956, Note_off_c, 2, 77, 64
4, 168956, Note_off_c, 2, 72, 64
4, 168960, Note_on_c, 2, 81, 71
4, 168960, Note_on_c, 2, 77, 71
4, 168960, Note_on_c, 2, 69, 71
4, 169724, Note_off_c, 2, 81, 64
4, 169724, Note_off_c, 2, 77, 64
4, 169724, Note_off_c, 2, 69, 64
4, 169728, Note_on_c, 2, 70, 71
4, 169728, Note_on_c, 2, 64, 71
4, 170492, Note_off_c, 2, 70, 64
4, 170492, Note_off_c, 2, 64, 64
4, 170496, Note_on_c, 2, 77, 71
4, 170496, Note_on_c, 2, 69, 71
4, 170496, Note_on_c, 2, 65, 71
4, 170876, Note_off_c, 2, 77, 64
4, 170876, Note_off_c, 2, 69, 64
4, 170876, Note_off_c, 2, 65, 64
4, 172032, Note_on_c, 2, 86, 71
4, 172032, Note_on_c, 2, 70, 71
4, 172220, Note_off_c, 2, 86, 64
4, 172220, Note_off_c, 2, 70, 64
4, 172416, Note_on_c, 2, 84, 71
4, 172416, Note_on_c, 2, 69, 71
4, 172604, Note_off_c, 2, 84, 64
4, 172604, Note_off_c, 2, 69, 64
4, 172800, Note_on_c, 2, 82, 71
4, 172800, Note_on_c, 2, 67, 71
4, 172988, Note_off_c, 2, 82, 64
4, 172988, Note_off_c, 2, 67, 64
4, 173184, Note_on_c, 2, 81, 71
4, 173184, Note_on_c, 2, 65, 71
4, 173372, Note_off_c, 2, 81, 64
4, 173372, Note_off_c, 2, 65, 64
4, 173568, Note_on_c, 2, 79, 71
4, 173568, Note_on_c, 2, 64, 71
4, 173948, Note_off_c, 2, 79, 64
4, 173948, Note_off_c, 2, 64, 64
4, 173952, Note_on_c, 2, 67, 71
4, 174332, Note_off_c, 2, 67, 64
4, 174336, Note_on_c, 2, 70, 71
4, 174716, Note_off_c, 2, 70, 64
4, 174720, Note_on_c, 2, 67, 71
4, 175100, Note_off_c, 2, 67, 64
4, 175104, Note_on_c, 2, 84, 71
4, 175104, Note_on_c, 2, 69, 71
4, 175292, Note_off_c, 2, 84, 64
4, 175292, Note_off_c, 2, 69, 64
4, 175488, Note_on_c, 2, 82, 71
4, 175488, Note_on_c, 2, 67, 71
4, 175676, Note_off_c, 2, 82, 64
4, 175676, Note_off_c, 2, 67, 64
4, 175872, Note_on_c, 2, 81, 71
4, 175872, Note_on_c, 2, 65, 71
4, 176060, Note_off_c, 2, 81, 64
4, 176060, Note_off_c, 2, 65, 64
4, 176256, Note_on_c, 2, 79, 71
4, 176256, Note_on_c, 2, 64, 71
4, 176444, Note_off_c, 2, 79, 64
4, 176444, Note_off_c, 2, 64, 64
4, 176640, Note_on_c, 2, 77, 71
4, 176640, Note_on_c, 2, 62, 71
4, 177020, Note_off_c, 2, 77, 64
4, 177020, Note_off_c, 2, 62, 64
4, 177024, Note_on_c, 2, 65, 71
4, 177404, Note_off_c, 2, 65, 64
4, 177408, Note_on_c, 2, 69, 71
4, 177788, Note_off_c, 2, 69, 64
4, 177792, Note_on_c, 2, 65, 71
4, 178172, Note_off_c, 2, 65, 64
4, 178176, Note_on_c, 2, 82, 71
4, 178944, Note_on_c, 2, 67, 71
4, 179324, Note_off_c, 2, 82, 64
4, 179328, Note_on_c, 2, 81, 71
4, 179708, Note_off_c, 2, 81, 64
4, 179712, Note_on_c, 2, 79, 71
4, 180092, Note_off_c, 2, 67, 64
4, 180096, Note_on_c, 2, 69, 71
4, 180476, Note_off_c, 2, 69, 64
4, 180480, Note_on_c, 2, 70, 71
4, 180860, Note_off_c, 2, 79, 64
4, 180860, Note_off_c, 2, 70, 64
4, 180864, Note_on_c, 2, 79, 71
4, 180864, Note_on_c, 2, 71, 71
4, 181244, Note_off_c, 2, 79, 64
4, 181244, Note_off_c, 2, 71, 64
4, 181248, Note_on_c, 2, 76, 71
4, 181248, Note_on_c, 2, 72, 71
4, 181628, Note_off_c, 2, 76, 64
4, 181628, Note_off_c, 2, 72, 64
4, 181632, Note_on_c, 2, 74, 71
4, 181632, Note_on_c, 2, 64, 71
4, 182012, Note_off_c, 2, 74, 64
4, 182012, Note_off_c, 2, 64, 64
4, 182016, Note_on_c, 2, 72, 71
4, 182016, Note_on_c, 2, 65, 71
4, 182396, Note_off_c, 2, 72, 64
4, 182396, Note_off_c, 2, 65, 64
4, 182400, Note_on_c, 2, 70, 71
4, 182400, Note_on_c, 2, 64, 71
4, 182780, Note_off_c, 2, 70, 64
4, 182780, Note_off_c, 2, 64, 64
4, 182784, Note_on_c, 2, 69, 71
4, 182784, Note_on_c, 2, 65, 71
4, 183548, Note_off_c, 2, 69, 64
4, 183548, Note_off_c, 2, 65, 64
4, 183936, Note_on_c, 2, 72, 71
4, 183936, Note_on_c, 2, 69, 71
4, 183936, Note_on_c, 2, 65, 71
4, 184316, Note_off_c, 2, 72, 64
4, 184316, Note_off_c, 2, 69, 64
4, 184316, Note_off_c, 2, 65, 64
4, 184320, Note_on_c, 2, 77, 71
4, 184320, Note_on_c, 2, 70, 71
4, 184320, Note_on_c, 2, 65, 71
4, 185084, Note_off_c, 2, 77, 64
4, 185084, Note_off_c, 2, 70, 64
4, 185084, Note_off_c, 2, 65, 64
4, 185472, Note_on_c, 2, 80, 71
4, 185472, Note_on_c, 2, 77, 71
4, 185472, Note_on_c, 2, 71, 71
4, 185852, Note_off_c, 2, 80, 64
4, 185852, Note_off_c, 2, 77, 64
4, 185852, Note_off_c, 2, 71, 64
4, 185856, Note_on_c, 2, 81, 71
4, 185856, Note_on_c, 2, 77, 71
4, 185856, Note_on_c, 2, 72, 71
4, 186620, Note_off_c, 2, 81, 64
4, 186620, Note_off_c, 2, 77, 64
4, 186620, Note_off_c, 2, 72, 64
4, 190464, Note_on_c, 2, 74, 71
4, 190652, Note_off_c, 2, 74, 64
4, 190848, Note_on_c, 2, 72, 71
4, 191036, Note_off_c, 2, 72, 64
4, 191232, Note_on_c, 2, 70, 71
4, 191420, Note_off_c, 2, 70, 64
4, 191616, Note_on_c, 2, 69, 71
4, 191804, Note_off_c, 2, 69, 64
4, 192000, Note_on_c, 2, 70, 80
4, 192080, Note_off_c, 2, 70, 64
4, 192096, Note_on_c, 2, 86, 71
4, 192768, Note_off_c, 2, 86, 64
4, 192768, Note_on_c, 2, 82, 71
4, 193148, Note_off_c, 2, 82, 64
4, 193152, Note_on_c, 2, 79, 71
4, 193532, Note_off_c, 2, 79, 64
4, 193536, Note_on_c, 2, 74, 71
4, 193916, Note_off_c, 2, 74, 64
4, 193920, Note_on_c, 2, 70, 71
4, 194300, Note_off_c, 2, 70, 64
4, 194304, Note_on_c, 2, 69, 71
4, 194684, Note_off_c, 2, 69, 64
4, 194688, Note_on_c, 2, 67, 71
4, 195068, Note_off_c, 2, 67, 64
4, 195072, Note_on_c, 2, 69, 80
4, 195152, Note_off_c, 2, 69, 64
4, 195168, Note_on_c, 2, 84, 71
4, 195840, Note_off_c, 2, 84, 64
4, 195840, Note_on_c, 2, 81, 71
4, 196220, Note_off_c, 2, 81, 64
4, 196224, Note_on_c, 2, 77, 71
4, 196604, Note_off_c, 2, 77, 64
4, 196608, Note_on_c, 2, 82, 71
4, 196608, Note_on_c, 2, 70, 71
4, 196796, Note_off_c, 2, 82, 64
4, 196796, Note_off_c, 2, 70, 64
4, 196992, Note_on_c, 2, 81, 71
4, 196992, Note_on_c, 2, 69, 71
4, 197180, Note_off_c, 2, 81, 64
4, 197180, Note_off_c, 2, 69, 64
4, 197376, Note_on_c, 2, 79, 71
4, 197376, Note_on_c, 2, 67, 71
4, 197564, Note_off_c, 2, 79, 64
4, 197564, Note_off_c, 2, 67, 64
4, 197760, Note_on_c, 2, 77, 71
4, 197760, Note_on_c, 2, 65, 71
4, 197948, Note_off_c, 2, 77, 64
4, 197948, Note_off_c, 2, 65, 64
4, 198144, Note_on_c, 2, 76, 71
4, 198144, Note_on_c, 2, 64, 71
4, 198332, Note_off_c, 2, 76, 64
4, 198332, Note_off_c, 2, 64, 64
4, 198528, Note_on_c, 2, 86, 71
4, 198528, Note_on_c, 2, 74, 71
4, 198716, Note_off_c, 2, 86, 64
4, 198716, Note_off_c, 2, 74, 64
4, 198912, Note_on_c, 2, 84, 71
4, 198912, Note_on_c, 2, 72, 71
4, 199100, Note_off_c, 2, 84, 64
4, 199100, Note_off_c, 2, 72, 64
4, 199296, Note_on_c, 2, 82, 71
4, 199296, Note_on_c, 2, 70, 71
4, 199484, Note_off_c, 2, 82, 64
4, 199484, Note_off_c, 2, 70, 64
4, 199680, Note_on_c, 2, 81, 71
4, 199680, Note_on_c, 2, 69, 71
4, 199868, Note_off_c, 2, 81, 64
4, 199868, Note_off_c, 2, 69, 64
4, 200064, Note_on_c, 2, 79, 71
4, 200064, Note_on_c, 2, 67, 71
4, 200252, Note_off_c, 2, 79, 64
4, 200252, Note_off_c, 2, 67, 64
4, 200448, Note_on_c, 2, 77, 71
4, 200448, Note_on_c, 2, 65, 71
4, 200636, Note_off_c, 2, 77, 64
4, 200636, Note_off_c, 2, 65, 64
4, 200832, Note_on_c, 2, 76, 71
4, 200832, Note_on_c, 2, 64, 71
4, 201020, Note_off_c, 2, 76, 64
4, 201020, Note_off_c, 2, 64, 64
4, 201216, Note_on_c, 2, 74, 71
4, 201216, Note_on_c, 2, 68, 71
4, 201216, Note_on_c, 2, 65, 71
4, 201216, Note_on_c, 2, 62, 71
4, 201980, Note_off_c, 2, 74, 64
4, 201984, Note_on_c, 2, 71, 71
4, 202748, Note_off_c, 2, 68, 64
4, 202748, Note_off_c, 2, 65, 64
4, 202748, Note_off_c, 2, 62, 64
4, 202748, Note_off_c, 2, 71, 64
4, 202752, Note_on_c, 2, 68, 71
4, 202752, Note_on_c, 2, 65, 71
4, 202752, Note_on_c, 2, 62, 71
4, 202752, Note_on_c, 2, 59, 71
4, 202752, Note_on_c, 2, 74, 75
4, 203516, Note_off_c, 2, 74, 64
4, 203520, Note_on_c, 2, 77, 75
4, 204284, Note_off_c, 2, 77, 64
4, 204288, Note_on_c, 2, 80, 75
4, 205052, Note_off_c, 2, 80, 64
4, 205056, Note_on_c, 2, 83, 75
4, 205820, Note_off_c, 2, 83, 64
4, 205824, Note_on_c, 2, 86, 75
4, 206204, Note_off_c, 2, 59, 64
4, 206204, Note_off_c, 2, 62, 64
4, 206204, Note_off_c, 2, 65, 64
4, 206204, Note_off_c, 2, 68, 64
4, 206588, Note_off_c, 2, 86, 64
4, 206592, Note_on_c, 2, 89, 75
4, 207356, Note_off_c, 2, 89, 64
4, 207360, Note_on_c, 2, 69, 71
4, 207360, Note_on_c, 2, 65, 71
4, 207740, Note_off_c, 2, 69, 64
4, 207740, Note_off_c, 2, 65, 64
4, 207744, Note_on_c, 2, 65, 71
4, 207744, Note_on_c, 2, 57, 71
4, 208124, Note_off_c, 2, 65, 64
4, 208124, Note_off_c, 2, 57, 64
4, 208896, Note_on_c, 2, 69, 71
4, 208896, Note_on_c, 2, 65, 71
4, 209276, Note_off_c, 2, 69, 64
4, 209276, Note_off_c, 2, 65, 64
4, 209280, Note_on_c, 2, 65, 71
4, 209280, Note_on_c, 2, 57, 71
4, 209660, Note_off_c, 2, 65, 64
4, 209660, Note_off_c, 2, 57, 64
4, 210432, Note_on_c, 2, 69, 71
4, 210432, Note_on_c, 2, 65, 71
4, 210432, Note_on_c, 2, 60, 71
4, 210812, Note_off_c, 2, 69, 64
4, 210812, Note_off_c, 2, 65, 64
4, 210812, Note_off_c, 2, 60, 64
4, 210816, Note_on_c, 2, 69, 71
4, 210816, Note_on_c, 2, 60, 71
4, 210816, Note_on_c, 2, 65, 71
4, 211196, Note_off_c, 2, 69, 64
4, 211196, Note_off_c, 2, 60, 64
4, 211196, Note_off_c, 2, 65, 64
4, 211200, Note_on_c, 2, 69, 71
4, 211200, Note_on_c, 2, 65, 71
4, 211200, Note_on_c, 2, 60, 71
4, 211580, Note_off_c, 2, 69, 64
4, 211580, Note_off_c, 2, 65, 64
4, 211580, Note_off_c, 2, 60, 64
4, 211584, Note_on_c, 2, 69, 71
4, 211584, Note_on_c, 2, 65, 71
4, 211584, Note_on_c, 2, 60, 71
4, 211964, Note_off_c, 2, 69, 64
4, 211964, Note_off_c, 2, 65, 64
4, 211964, Note_off_c, 2, 60, 64
4, 211968, Note_on_c, 2, 67, 71
4, 211968, Note_on_c, 2, 64, 71
4, 211968, Note_on_c, 2, 58, 71
4, 212348, Note_off_c, 2, 67, 64
4, 212348, Note_off_c, 2, 64, 64
4, 212348, Note_off_c, 2, 58, 64
4, 212352, Note_on_c, 2, 67, 71
4, 212352, Note_on_c, 2, 64, 71
4, 212352, Note_on_c, 2, 58, 71
4, 212732, Note_off_c, 2, 67, 64
4, 212732, Note_off_c, 2, 64, 64
4, 212732, Note_off_c, 2, 58, 64
4, 212736, Note_on_c, 2, 67, 71
4, 212736, Note_on_c, 2, 64, 71
4, 212736, Note_on_c, 2, 58, 71
4, 213116, Note_off_c, 2, 67, 64
4, 213116, Note_off_c, 2, 64, 64
4, 213116, Note_off_c, 2, 58, 64
4, 213120, Note_on_c, 2, 67, 71
4, 213120, Note_on_c, 2, 64, 71
4, 213120, Note_on_c, 2, 58, 71
4, 213500, Note_off_c, 2, 67, 64
4, 213500, Note_off_c, 2, 64, 64
4, 213500, Note_off_c, 2, 58, 64
4, 213504, Note_on_c, 2, 65, 71
4, 213504, Note_on_c, 2, 60, 71
4, 213504, Note_on_c, 2, 57, 71
4, 213884, Note_off_c, 2, 65, 64
4, 213884, Note_off_c, 2, 60, 64
4, 213884, Note_off_c, 2, 57, 64
4, 215040, Note_on_c, 2, 84, 71
4, 215040, Note_on_c, 2, 72, 71
4, 216188, Note_off_c, 2, 84, 64
4, 216188, Note_off_c, 2, 72, 64
4, 216192, Note_on_c, 2, 79, 71
4, 216192, Note_on_c, 2, 67, 71
4, 216572, Note_off_c, 2, 79, 64
4, 216572, Note_off_c, 2, 67, 64
4, 216576, Note_on_c, 2, 79, 71
4, 216576, Note_on_c, 2, 67, 71
4, 216956, Note_off_c, 2, 79, 64
4, 216956, Note_off_c, 2, 67, 64
4, 216960, Note_on_c, 2, 81, 71
4, 216960, Note_on_c, 2, 69, 71
4, 217148, Note_off_c, 2, 81, 64
4, 217148, Note_off_c, 2, 69, 64
4, 217344, Note_on_c, 2, 77, 71
4, 217344, Note_on_c, 2, 65, 71
4, 218108, Note_off_c, 2, 77, 64
4, 218108, Note_off_c, 2, 65, 64
4, 218112, Note_on_c, 2, 81, 71
4, 218112, Note_on_c, 2, 69, 71
4, 218492, Note_off_c, 2, 81, 64
4, 218492, Note_off_c, 2, 69, 64
4, 218496, Note_on_c, 2, 70, 71
4, 218496, Note_on_c, 2, 82, 71
4, 218684, Note_off_c, 2, 70, 64
4, 218684, Note_off_c, 2, 82, 64
4, 218880, Note_on_c, 2, 79, 71
4, 218880, Note_on_c, 2, 67, 71
4, 219644, Note_off_c, 2, 79, 64
4, 219644, Note_off_c, 2, 67, 64
4, 219648, Note_on_c, 2, 84, 71
4, 219648, Note_on_c, 2, 72, 71
4, 219836, Note_off_c, 2, 84, 64
4, 219840, Note_on_c, 2, 83, 71
4, 220028, Note_off_c, 2, 72, 64
4, 220028, Note_off_c, 2, 83, 64
4, 220032, Note_on_c, 2, 84, 71
4, 220220, Note_off_c, 2, 84, 64
4, 220224, Note_on_c, 2, 86, 71
4, 220412, Note_off_c, 2, 86, 64
4, 220416, Note_on_c, 2, 84, 71
4, 220796, Note_off_c, 2, 84, 64
4, 221184, Note_on_c, 2, 84, 71
4, 221184, Note_on_c, 2, 72, 71
4, 222332, Note_off_c, 2, 84, 64
4, 222332, Note_off_c, 2, 72, 64
4, 222336, Note_on_c, 2, 79, 71
4, 222336, Note_on_c, 2, 67, 71
4, 222716, Note_off_c, 2, 79, 64
4, 222716, Note_off_c, 2, 67, 64
4, 222720, Note_on_c, 2, 79, 71
4, 222720, Note_on_c, 2, 67, 71
4, 223100, Note_off_c, 2, 79, 64
4, 223100, Note_off_c, 2, 67, 64
4, 223104, Note_on_c, 2, 81, 71
4, 223104, Note_on_c, 2, 69, 71
4, 223292, Note_off_c, 2, 81, 64
4, 223292, Note_off_c, 2, 69, 64
4, 223488, Note_on_c, 2, 77, 71
4, 223488, Note_on_c, 2, 65, 71
4, 224636, Note_off_c, 2, 65, 64
4, 224636, Note_off_c, 2, 77, 64
4, 224640, Note_on_c, 2, 81, 71
4, 225020, Note_off_c, 2, 81, 64
4, 225024, Note_on_c, 2, 82, 71
4, 225404, Note_off_c, 2, 82, 64
4, 225408, Note_on_c, 2, 79, 71
4, 225788, Note_off_c, 2, 79, 64
4, 225792, Note_on_c, 2, 79, 71
4, 225792, Note_on_c, 2, 67, 71
4, 226172, Note_off_c, 2, 79, 64
4, 226172, Note_off_c, 2, 67, 64
4, 226176, Note_on_c, 2, 77, 71
4, 226176, Note_on_c, 2, 65, 71
4, 226556, Note_off_c, 2, 77, 64
4, 226556, Note_off_c, 2, 65, 64
4, 226560, Note_on_c, 2, 77, 71
4, 226560, Note_on_c, 2, 65, 71
4, 226748, Note_off_c, 2, 77, 64
4, 226748, Note_off_c, 2, 65, 64
4, 238464, Note_on_c, 2, 69, 71
4, 238464, Note_on_c, 2, 65, 71
4, 238464, Note_on_c, 2, 60, 71
4, 238844, Note_off_c, 2, 69, 64
4, 238844, Note_off_c, 2, 65, 64
4, 238844, Note_off_c, 2, 60, 64
4, 238848, Note_on_c, 2, 69, 71
4, 238848, Note_on_c, 2, 65, 71
4, 238848, Note_on_c, 2, 60, 71
4, 239228, Note_off_c, 2, 69, 64
4, 239228, Note_off_c, 2, 65, 64
4, 239228, Note_off_c, 2, 60, 64
4, 239232, Note_on_c, 2, 69, 71
4, 239232, Note_on_c, 2, 65, 71
4, 239232, Note_on_c, 2, 60, 71
4, 239612, Note_off_c, 2, 69, 64
4, 239612, Note_off_c, 2, 65, 64
4, 239612, Note_off_c, 2, 60, 64
4, 240000, Note_on_c, 2, 70, 71
4, 240000, Note_on_c, 2, 64, 71
4, 240000, Note_on_c, 2, 60, 71
4, 240380, Note_off_c, 2, 70, 64
4, 240380, Note_off_c, 2, 64, 64
4, 240380, Note_off_c, 2, 60, 64
4, 240384, Note_on_c, 2, 70, 71
4, 240384, Note_on_c, 2, 64, 71
4, 240384, Note_on_c, 2, 60, 71
4, 240764, Note_off_c, 2, 70, 64
4, 240764, Note_off_c, 2, 64, 64
4, 240764, Note_off_c, 2, 60, 64
4, 240768, Note_on_c, 2, 70, 71
4, 240768, Note_on_c, 2, 64, 71
4, 240768, Note_on_c, 2, 60, 71
4, 241148, Note_off_c, 2, 70, 64
4, 241148, Note_off_c, 2, 64, 64
4, 241148, Note_off_c, 2, 60, 64
4, 241152, Note_on_c, 2, 72, 71
4, 241536, Note_on_c, 2, 69, 71
4, 241536, Note_on_c, 2, 65, 71
4, 241536, Note_on_c, 2, 60, 71
4, 241916, Note_off_c, 2, 69, 64
4, 241916, Note_off_c, 2, 65, 64
4, 241916, Note_off_c, 2, 60, 64
4, 241920, Note_on_c, 2, 69, 71
4, 241920, Note_on_c, 2, 65, 71
4, 241920, Note_on_c, 2, 60, 71
4, 242300, Note_off_c, 2, 69, 64
4, 242300, Note_off_c, 2, 65, 64
4, 242300, Note_off_c, 2, 60, 64
4, 242304, Note_on_c, 2, 69, 71
4, 242304, Note_on_c, 2, 65, 71
4, 242304, Note_on_c, 2, 60, 71
4, 242684, Note_off_c, 2, 69, 64
4, 242684, Note_off_c, 2, 65, 64
4, 242684, Note_off_c, 2, 60, 64
4, 243072, Note_on_c, 2, 70, 71
4, 243072, Note_on_c, 2, 64, 71
4, 243072, Note_on_c, 2, 60, 71
4, 243452, Note_off_c, 2, 70, 64
4, 243452, Note_off_c, 2, 64, 64
4, 243452, Note_off_c, 2, 60, 64
4, 243456, Note_on_c, 2, 70, 71
4, 243456, Note_on_c, 2, 64, 71
4, 243456, Note_on_c, 2, 60, 71
4, 243836, Note_off_c, 2, 70, 64
4, 243836, Note_off_c, 2, 64, 64
4, 243836, Note_off_c, 2, 60, 64
4, 243840, Note_on_c, 2, 70, 71
4, 243840, Note_on_c, 2, 64, 71
4, 243840, Note_on_c, 2, 60, 71
4, 244220, Note_off_c, 2, 70, 64
4, 244220, Note_off_c, 2, 64, 64
4, 244220, Note_off_c, 2, 60, 64
4, 244608, Note_on_c, 2, 69, 71
4, 244608, Note_on_c, 2, 65, 71
4, 244608, Note_on_c, 2, 60, 71
4, 244988, Note_off_c, 2, 69, 64
4, 244988, Note_off_c, 2, 65, 64
4, 244988, Note_off_c, 2, 60, 64
4, 244992, Note_on_c, 2, 69, 71
4, 244992, Note_on_c, 2, 65, 71
4, 244992, Note_on_c, 2, 60, 71
4, 245372, Note_off_c, 2, 69, 64
4, 245372, Note_off_c, 2, 65, 64
4, 245372, Note_off_c, 2, 60, 64
4, 245376, Note_on_c, 2, 69, 71
4, 245376, Note_on_c, 2, 65, 71
4, 245376, Note_on_c, 2, 60, 71
4, 245756, Note_off_c, 2, 69, 64
4, 245756, Note_off_c, 2, 65, 64
4, 245756, Note_off_c, 2, 60, 64
4, 246144, Note_on_c, 2, 70, 71
4, 246144, Note_on_c, 2, 64, 71
4, 246144, Note_on_c, 2, 60, 71
4, 246524, Note_off_c, 2, 70, 64
4, 246524, Note_off_c, 2, 64, 64
4, 246524, Note_off_c, 2, 60, 64
4, 246528, Note_on_c, 2, 70, 71
4, 246528, Note_on_c, 2, 64, 71
4, 246528, Note_on_c, 2, 60, 71
4, 246908, Note_off_c, 2, 70, 64
4, 246908, Note_off_c, 2, 64, 64
4, 246908, Note_off_c, 2, 60, 64
4, 246912, Note_on_c, 2, 70, 71
4, 246912, Note_on_c, 2, 64, 71
4, 246912, Note_on_c, 2, 60, 71
4, 247292, Note_off_c, 2, 72, 64
4, 247292, Note_off_c, 2, 70, 64
4, 247292, Note_off_c, 2, 64, 64
4, 247292, Note_off_c, 2, 60, 64
4, 247296, Note_on_c, 2, 69, 71
4, 247296, Note_on_c, 2, 65, 71
4, 247296, Note_on_c, 2, 60, 71
4, 247676, Note_off_c, 2, 69, 64
4, 247676, Note_off_c, 2, 65, 64
4, 247676, Note_off_c, 2, 60, 64
4, 286272, Note_on_c, 2, 62, 92
4, 286460, Note_off_c, 2, 62, 64
4, 286464, Note_on_c, 2, 65, 92
4, 286652, Note_off_c, 2, 65, 64
4, 286656, Note_on_c, 2, 69, 92
4, 286844, Note_off_c, 2, 69, 64
4, 286848, Note_on_c, 2, 74, 92
4, 287036, Note_off_c, 2, 74, 64
4, 287040, Note_on_c, 2, 77, 92
4, 287228, Note_off_c, 2, 77, 64
4, 287232, Note_on_c, 2, 81, 92
4, 287612, Note_off_c, 2, 81, 64
4, 287616, Note_on_c, 2, 74, 92
4, 287616, Note_on_c, 2, 65, 92
4, 287996, Note_off_c, 2, 74, 64
4, 287996, Note_off_c, 2, 65, 64
4, 288000, Note_on_c, 2, 73, 92
4, 288000, Note_on_c, 2, 67, 92
4, 288380, Note_off_c, 2, 73, 64
4, 288380, Note_off_c, 2, 67, 64
4, 288384, Note_on_c, 2, 74, 92
4, 288384, Note_on_c, 2, 69, 92
4, 288764, Note_off_c, 2, 74, 64
4, 288764, Note_off_c, 2, 69, 64
4, 288768, Note_on_c, 2, 83, 92
4, 288768, Note_on_c, 2, 74, 92
4, 289148, Note_off_c, 2, 83, 64
4, 289148, Note_off_c, 2, 74, 64
4, 289152, Note_on_c, 2, 83, 92
4, 289152, Note_on_c, 2, 74, 92
4, 289916, Note_off_c, 2, 83, 64
4, 289916, Note_off_c, 2, 74, 64
4, 289920, Note_on_c, 2, 83, 92
4, 289920, Note_on_c, 2, 74, 92
4, 290304, Note_on_c, 2, 71, 92
4, 290684, Note_off_c, 2, 74, 64
4, 290684, Note_off_c, 2, 83, 64
4, 290684, Note_off_c, 2, 71, 64
4, 290688, Note_on_c, 2, 74, 92
4, 290688, Note_on_c, 2, 64, 92
4, 290688, Note_on_c, 2, 68, 92
4, 290688, Note_on_c, 2, 71, 92
4, 291072, Note_on_c, 2, 63, 92
4, 291452, Note_off_c, 2, 74, 64
4, 291452, Note_off_c, 2, 64, 64
4, 291452, Note_off_c, 2, 68, 64
4, 291452, Note_off_c, 2, 71, 64
4, 291452, Note_off_c, 2, 63, 64
4, 291456, Note_on_c, 2, 74, 92
4, 291456, Note_on_c, 2, 71, 92
4, 291456, Note_on_c, 2, 68, 92
4, 291840, Note_on_c, 2, 65, 92
4, 292220, Note_off_c, 2, 68, 64
4, 292220, Note_off_c, 2, 71, 64
4, 292220, Note_off_c, 2, 74, 64
4, 292224, Note_on_c, 2, 72, 92
4, 292224, Note_on_c, 2, 69, 92
4, 292988, Note_off_c, 2, 72, 64
4, 292988, Note_off_c, 2, 69, 64
4, 292992, Note_on_c, 2, 72, 92
4, 292992, Note_on_c, 2, 69, 92
4, 293372, Note_off_c, 2, 65, 64
4, 293756, Note_off_c, 2, 69, 64
4, 293756, Note_off_c, 2, 72, 64
4, 293760, Note_on_c, 2, 81, 92
4, 293760, Note_on_c, 2, 72, 92
4, 293760, Note_on_c, 2, 77, 92
4, 294524, Note_off_c, 2, 81, 64
4, 294524, Note_off_c, 2, 72, 64
4, 294524, Note_off_c, 2, 77, 64
4, 294528, Note_on_c, 2, 81, 92
4, 294528, Note_on_c, 2, 77, 92
4, 294528, Note_on_c, 2, 84, 92
4, 294908, Note_off_c, 2, 81, 64
4, 294908, Note_off_c, 2, 77, 64
4, 294912, Note_on_c, 2, 77, 92
4, 294912, Note_on_c, 2, 74, 92
4, 295292, Note_off_c, 2, 84, 64
4, 295292, Note_off_c, 2, 77, 64
4, 295296, Note_on_c, 2, 77, 92
4, 295296, Note_on_c, 2, 82, 92
4, 296060, Note_off_c, 2, 74, 64
4, 296060, Note_off_c, 2, 77, 64
4, 296060, Note_off_c, 2, 82, 64
4, 296064, Note_on_c, 2, 77, 92
4, 296064, Note_on_c, 2, 74, 92
4, 296064, Note_on_c, 2, 82, 92
4, 296828, Note_off_c, 2, 74, 64
4, 296828, Note_off_c, 2, 77, 64
4, 296828, Note_off_c, 2, 82, 64
4, 296832, Note_on_c, 2, 82, 92
4, 296832, Note_on_c, 2, 74, 92
4, 297596, Note_off_c, 2, 82, 64
4, 297596, Note_off_c, 2, 74, 64
4, 297600, Note_on_c, 2, 81, 92
4, 297600, Note_on_c, 2, 72, 92
4, 297980, Note_off_c, 2, 81, 64
4, 297980, Note_off_c, 2, 72, 64
4, 297984, Note_on_c, 2, 80, 92
4, 297984, Note_on_c, 2, 71, 92
4, 298364, Note_off_c, 2, 80, 64
4, 298364, Note_off_c, 2, 71, 64
4, 298560, Note_on_c, 2, 64, 92
4, 298748, Note_off_c, 2, 64, 64
4, 298752, Note_on_c, 2, 68, 92
4, 298940, Note_off_c, 2, 68, 64
4, 298944, Note_on_c, 2, 71, 92
4, 299132, Note_off_c, 2, 71, 64
4, 299136, Note_on_c, 2, 76, 92
4, 299324, Note_off_c, 2, 76, 64
4, 299328, Note_on_c, 2, 80, 92
4, 299516, Note_off_c, 2, 80, 64
4, 299520, Note_on_c, 2, 81, 92
4, 299520, Note_on_c, 2, 72, 92
4, 299900, Note_off_c, 2, 81, 64
4, 299900, Note_off_c, 2, 72, 64
4, 300096, Note_on_c, 2, 64, 92
4, 300284, Note_off_c, 2, 64, 64
4, 300288, Note_on_c, 2, 69, 92
4, 300476, Note_off_c, 2, 69, 64
4, 300480, Note_on_c, 2, 72, 92
4, 300668, Note_off_c, 2, 72, 64
4, 300672, Note_on_c, 2, 76, 92
4, 300860, Note_off_c, 2, 76, 64
4, 300864, Note_on_c, 2, 81, 92
4, 301052, Note_off_c, 2, 81, 64
4, 301056, Note_on_c, 2, 83, 92
4, 301056, Note_on_c, 2, 80, 92
4, 301436, Note_off_c, 2, 83, 64
4, 301436, Note_off_c, 2, 80, 64
4, 301632, Note_on_c, 2, 68, 92
4, 301820, Note_off_c, 2, 68, 64
4, 301824, Note_on_c, 2, 71, 92
4, 302012, Note_off_c, 2, 71, 64
4, 302016, Note_on_c, 2, 76, 92
4, 302204, Note_off_c, 2, 76, 64
4, 302208, Note_on_c, 2, 80, 92
4, 302396, Note_off_c, 2, 80, 64
4, 302400, Note_on_c, 2, 83, 92
4, 302588, Note_off_c, 2, 83, 64
4, 302592, Note_on_c, 2, 81, 92
4, 302592, Note_on_c, 2, 84, 92
4, 302972, Note_off_c, 2, 81, 64
4, 302972, Note_off_c, 2, 84, 64
4, 302976, Note_on_c, 2, 84, 92
4, 302976, Note_on_c, 2, 81, 92
4, 303356, Note_off_c, 2, 84, 64
4, 303356, Note_off_c, 2, 81, 64
4, 303360, Note_on_c, 2, 81, 92
4, 303360, Note_on_c, 2, 87, 92
4, 303740, Note_off_c, 2, 81, 64
4, 303740, Note_off_c, 2, 87, 64
4, 303744, Note_on_c, 2, 87, 92
4, 303744, Note_on_c, 2, 81, 92
4, 304112, Note_off_c, 2, 81, 64
4, 304124, Note_off_c, 2, 87, 64
4, 304128, Note_on_c, 2, 81, 92
4, 304128, Note_on_c, 2, 88, 92
4, 304128, Note_on_c, 2, 83, 92
4, 304128, Note_on_c, 2, 80, 92
4, 304140, Note_off_c, 2, 81, 64
4, 304316, Note_off_c, 2, 88, 64
4, 304316, Note_off_c, 2, 83, 64
4, 304316, Note_off_c, 2, 80, 64
4, 304320, Note_on_c, 2, 76, 92
4, 304508, Note_off_c, 2, 76, 64
4, 304512, Note_on_c, 2, 88, 92
4, 304512, Note_on_c, 2, 83, 92
4, 304512, Note_on_c, 2, 80, 92
4, 304700, Note_off_c, 2, 88, 64
4, 304700, Note_off_c, 2, 83, 64
4, 304700, Note_off_c, 2, 80, 64
4, 304704, Note_on_c, 2, 76, 92
4, 304892, Note_off_c, 2, 76, 64
4, 304896, Note_on_c, 2, 88, 92
4, 304896, Note_on_c, 2, 84, 92
4, 304896, Note_on_c, 2, 81, 92
4, 305084, Note_off_c, 2, 88, 64
4, 305084, Note_off_c, 2, 84, 64
4, 305084, Note_off_c, 2, 81, 64
4, 305088, Note_on_c, 2, 76, 92
4, 305276, Note_off_c, 2, 76, 64
4, 305280, Note_on_c, 2, 88, 92
4, 305280, Note_on_c, 2, 84, 92
4, 305280, Note_on_c, 2, 81, 92
4, 305468, Note_off_c, 2, 88, 64
4, 305468, Note_off_c, 2, 84, 64
4, 305468, Note_off_c, 2, 81, 64
4, 305472, Note_on_c, 2, 76, 92
4, 305660, Note_off_c, 2, 76, 64
4, 305664, Note_on_c, 2, 81, 92
4, 305664, Note_on_c, 2, 88, 92
4, 305664, Note_on_c, 2, 83, 92
4, 305664, Note_on_c, 2, 80, 92
4, 305676, Note_off_c, 2, 81, 64
4, 305852, Note_off_c, 2, 88, 64
4, 305852, Note_off_c, 2, 83, 64
4, 305852, Note_off_c, 2, 80, 64
4, 305856, Note_on_c, 2, 76, 92
4, 306044, Note_off_c, 2, 76, 64
4, 306048, Note_on_c, 2, 88, 92
4, 306048, Note_on_c, 2, 83, 92
4, 306048, Note_on_c, 2, 80, 92
4, 306236, Note_off_c, 2, 88, 64
4, 306236, Note_off_c, 2, 83, 64
4, 306236, Note_off_c, 2, 80, 64
4, 306240, Note_on_c, 2, 76, 92
4, 306428, Note_off_c, 2, 76, 64
4, 306432, Note_on_c, 2, 88, 92
4, 306432, Note_on_c, 2, 84, 92
4, 306432, Note_on_c, 2, 81, 92
4, 306620, Note_off_c, 2, 88, 64
4, 306620, Note_off_c, 2, 84, 64
4, 306620, Note_off_c, 2, 81, 64
4, 306624, Note_on_c, 2, 76, 92
4, 306812, Note_off_c, 2, 76, 64
4, 306816, Note_on_c, 2, 88, 92
4, 306816, Note_on_c, 2, 84, 92
4, 306816, Note_on_c, 2, 81, 92
4, 307004, Note_off_c, 2, 88, 64
4, 307004, Note_off_c, 2, 84, 64
4, 307004, Note_off_c, 2, 81, 64
4, 307008, Note_on_c, 2, 76, 92
4, 307196, Note_off_c, 2, 76, 64
4, 307200, Note_on_c, 2, 88, 92
4, 307200, Note_on_c, 2, 83, 92
4, 307200, Note_on_c, 2, 80, 92
4, 307580, Note_off_c, 2, 88, 64
4, 307580, Note_off_c, 2, 83, 64
4, 307580, Note_off_c, 2, 80, 64
4, 307584, Note_on_c, 2, 76, 92
4, 307964, Note_off_c, 2, 76, 64
4, 307968, Note_on_c, 2, 76, 92
4, 308348, Note_off_c, 2, 76, 64
4, 308352, Note_on_c, 2, 76, 92
4, 308732, Note_off_c, 2, 76, 64
4, 308736, Note_on_c, 2, 64, 92
4, 309500, Note_off_c, 2, 64, 64
4, 335424, Note_on_c, 2, 71, 71
4, 335612, Note_off_c, 2, 71, 64
4, 335616, Note_on_c, 2, 74, 71
4, 335804, Note_off_c, 2, 74, 64
4, 335808, Note_on_c, 2, 77, 71
4, 335996, Note_off_c, 2, 77, 64
4, 336000, Note_on_c, 2, 83, 71
4, 336188, Note_off_c, 2, 83, 64
4, 336192, Note_on_c, 2, 86, 71
4, 336380, Note_off_c, 2, 86, 64
4, 336384, Note_on_c, 2, 89, 71
4, 336764, Note_off_c, 2, 89, 64
4, 336768, Note_on_c, 2, 77, 71
4, 337148, Note_off_c, 2, 77, 64
4, 337152, Note_on_c, 2, 74, 71
4, 337532, Note_off_c, 2, 74, 64
4, 337536, Note_on_c, 2, 77, 71
4, 337916, Note_off_c, 2, 77, 64
4, 337920, Note_on_c, 2, 89, 71
4, 338300, Note_off_c, 2, 89, 64
4, 341568, Note_on_c, 2, 69, 71
4, 341756, Note_off_c, 2, 69, 64
4, 341760, Note_on_c, 2, 72, 71
4, 341948, Note_off_c, 2, 72, 64
4, 341952, Note_on_c, 2, 75, 71
4, 342140, Note_off_c, 2, 75, 64
4, 342144, Note_on_c, 2, 81, 71
4, 342332, Note_off_c, 2, 81, 64
4, 342336, Note_on_c, 2, 84, 71
4, 342524, Note_off_c, 2, 84, 64
4, 342528, Note_on_c, 2, 87, 71
4, 342908, Note_off_c, 2, 87, 64
4, 342912, Note_on_c, 2, 75, 71
4, 343292, Note_off_c, 2, 75, 64
4, 343296, Note_on_c, 2, 72, 71
4, 343676, Note_off_c, 2, 72, 64
4, 343680, Note_on_c, 2, 75, 71
4, 344060, Note_off_c, 2, 75, 64
4, 344064, Note_on_c, 2, 87, 71
4, 344444, Note_off_c, 2, 87, 64
4, 347712, Note_on_c, 2, 67, 71
4, 347900, Note_off_c, 2, 67, 64
4, 347904, Note_on_c, 2, 70, 71
4, 348092, Note_off_c, 2, 70, 64
4, 348096, Note_on_c, 2, 73, 71
4, 348284, Note_off_c, 2, 73, 64
4, 348288, Note_on_c, 2, 79, 71
4, 348476, Note_off_c, 2, 79, 64
4, 348480, Note_on_c, 2, 82, 71
4, 348668, Note_off_c, 2, 82, 64
4, 348672, Note_on_c, 2, 85, 71
4, 349052, Note_off_c, 2, 85, 64
4, 349056, Note_on_c, 2, 73, 71
4, 349436, Note_off_c, 2, 73, 64
4, 349440, Note_on_c, 2, 70, 71
4, 349820, Note_off_c, 2, 70, 64
4, 349824, Note_on_c, 2, 73, 71
4, 350204, Note_off_c, 2, 73, 64
4, 350208, Note_on_c, 2, 85, 71
4, 350588, Note_off_c, 2, 85, 64
4, 350976, Note_on_c, 2, 79, 71
4, 351740, Note_off_c, 2, 79, 64
4, 351744, Note_on_c, 2, 82, 71
4, 352508, Note_off_c, 2, 82, 64
4, 352512, Note_on_c, 2, 73, 71
4, 352512, Note_on_c, 2, 67, 71
4, 353276, Note_off_c, 2, 73, 64
4, 353276, Note_off_c, 2, 67, 64
4, 353280, Note_on_c, 2, 74, 71
4, 353280, Note_on_c, 2, 69, 71
4, 353280, Note_on_c, 2, 66, 71
4, 353660, Note_off_c, 2, 74, 64
4, 353660, Note_off_c, 2, 69, 64
4, 353660, Note_off_c, 2, 66, 64
4, 353856, Note_on_c, 2, 65, 71
4, 354044, Note_off_c, 2, 65, 64
4, 354048, Note_on_c, 2, 69, 71
4, 354236, Note_off_c, 2, 69, 64
4, 354240, Note_on_c, 2, 74, 71
4, 354428, Note_off_c, 2, 74, 64
4, 354432, Note_on_c, 2, 78, 71
4, 354620, Note_off_c, 2, 78, 64
4, 354624, Note_on_c, 2, 81, 71
4, 354812, Note_off_c, 2, 81, 64
4, 354816, Note_on_c, 2, 86, 71
4, 354816, Note_on_c, 2, 82, 71
4, 354816, Note_on_c, 2, 79, 71
4, 355580, Note_off_c, 2, 86, 64
4, 355580, Note_off_c, 2, 82, 64
4, 355580, Note_off_c, 2, 79, 64
4, 355584, Note_on_c, 2, 82, 71
4, 355964, Note_off_c, 2, 82, 64
4, 355968, Note_on_c, 2, 79, 71
4, 356348, Note_off_c, 2, 79, 64
4, 356352, Note_on_c, 2, 78, 71
4, 356352, Note_on_c, 2, 74, 71
4, 356352, Note_on_c, 2, 69, 71
4, 356732, Note_off_c, 2, 78, 64
4, 356732, Note_off_c, 2, 74, 64
4, 356732, Note_off_c, 2, 69, 64
4, 356928, Note_on_c, 2, 65, 71
4, 357116, Note_off_c, 2, 65, 64
4, 357120, Note_on_c, 2, 69, 71
4, 357308, Note_off_c, 2, 69, 64
4, 357312, Note_on_c, 2, 74, 71
4, 357500, Note_off_c, 2, 74, 64
4, 357504, Note_on_c, 2, 78, 71
4, 357692, Note_off_c, 2, 78, 64
4, 357696, Note_on_c, 2, 81, 71
4, 357884, Note_off_c, 2, 81, 64
4, 357888, Note_on_c, 2, 86, 71
4, 357888, Note_on_c, 2, 79, 71
4, 358652, Note_off_c, 2, 86, 64
4, 358656, Note_on_c, 2, 82, 71
4, 359036, Note_off_c, 2, 82, 64
4, 359040, Note_on_c, 2, 79, 71
4, 359420, Note_off_c, 2, 79, 64
4, 359420, Note_off_c, 2, 79, 64
4, 359424, Note_on_c, 2, 78, 71
4, 359424, Note_on_c, 2, 74, 71
4, 359424, Note_on_c, 2, 69, 71
4, 359804, Note_off_c, 2, 78, 64
4, 359804, Note_off_c, 2, 74, 64
4, 359804, Note_off_c, 2, 69, 64
4, 359808, Note_on_c, 2, 74, 71
4, 359808, Note_on_c, 2, 66, 71
4, 359808, Note_on_c, 2, 69, 71
4, 360188, Note_off_c, 2, 74, 64
4, 360188, Note_off_c, 2, 66, 64
4, 360188, Note_off_c, 2, 69, 64
4, 360192, Note_on_c, 2, 74, 71
4, 360192, Note_on_c, 2, 69, 71
4, 360192, Note_on_c, 2, 66, 71
4, 360572, Note_off_c, 2, 74, 64
4, 360572, Note_off_c, 2, 69, 64
4, 360572, Note_off_c, 2, 66, 64
4, 360576, Note_on_c, 2, 74, 71
4, 360576, Note_on_c, 2, 69, 71
4, 360576, Note_on_c, 2, 66, 71
4, 360956, Note_off_c, 2, 74, 64
4, 360956, Note_off_c, 2, 69, 64
4, 360956, Note_off_c, 2, 66, 64
4, 360960, Note_on_c, 2, 74, 71
4, 360960, Note_on_c, 2, 69, 71
4, 360960, Note_on_c, 2, 66, 71
4, 361724, Note_off_c, 2, 74, 64
4, 361724, Note_off_c, 2, 69, 64
4, 361724, Note_off_c, 2, 66, 64
4, 377856, Note_on_c, 2, 81, 71
4, 377856, Note_on_c, 2, 65, 71
4, 377856, Note_on_c, 2, 62, 71
4, 378620, Note_off_c, 2, 81, 64
4, 378620, Note_off_c, 2, 65, 64
4, 378620, Note_off_c, 2, 62, 64
4, 378624, Note_on_c, 2, 73, 71
4, 378624, Note_on_c, 2, 67, 71
4, 378624, Note_on_c, 2, 64, 71
4, 379388, Note_off_c, 2, 73, 64
4, 379388, Note_off_c, 2, 67, 64
4, 379388, Note_off_c, 2, 64, 64
4, 379392, Note_on_c, 2, 74, 71
4, 379392, Note_on_c, 2, 69, 71
4, 379392, Note_on_c, 2, 65, 71
4, 379772, Note_off_c, 2, 74, 64
4, 379772, Note_off_c, 2, 69, 64
4, 379772, Note_off_c, 2, 65, 64
4, 380736, Note_on_c, 2, 74, 77
4, 380916, Note_off_c, 2, 74, 64
4, 380928, Note_on_c, 2, 86, 71
4, 380928, Note_on_c, 2, 70, 71
4, 380928, Note_on_c, 2, 67, 71
4, 381692, Note_off_c, 2, 70, 64
4, 381692, Note_off_c, 2, 67, 64
4, 381696, Note_on_c, 2, 72, 71
4, 381696, Note_on_c, 2, 69, 71
4, 382076, Note_off_c, 2, 86, 64
4, 382176, Note_on_c, 2, 84, 73
4, 382256, Note_off_c, 2, 84, 64
4, 382272, Note_on_c, 2, 82, 73
4, 382352, Note_off_c, 2, 82, 64
4, 382368, Note_on_c, 2, 81, 73
4, 382448, Note_off_c, 2, 81, 64
4, 382460, Note_off_c, 2, 72, 64
4, 382460, Note_off_c, 2, 69, 64
4, 382464, Note_on_c, 2, 79, 71
4, 382464, Note_on_c, 2, 74, 71
4, 382464, Note_on_c, 2, 70, 71
4, 382844, Note_off_c, 2, 79, 64
4, 382844, Note_off_c, 2, 74, 64
4, 382844, Note_off_c, 2, 70, 64
4, 384000, Note_on_c, 2, 79, 71
4, 384000, Note_on_c, 2, 73, 71
4, 384764, Note_off_c, 2, 79, 64
4, 384764, Note_off_c, 2, 73, 64
4, 384768, Note_on_c, 2, 80, 71
4, 384768, Note_on_c, 2, 71, 71
4, 385532, Note_off_c, 2, 80, 64
4, 385532, Note_off_c, 2, 71, 64
4, 385536, Note_on_c, 2, 81, 71
4, 385536, Note_on_c, 2, 69, 71
4, 385916, Note_off_c, 2, 81, 64
4, 385916, Note_off_c, 2, 69, 64
4, 386880, Note_on_c, 2, 76, 71
4, 387068, Note_off_c, 2, 76, 64
4, 387072, Note_on_c, 2, 77, 71
4, 387072, Note_on_c, 2, 65, 71
4, 387072, Note_on_c, 2, 62, 71
4, 387260, Note_off_c, 2, 77, 64
4, 387264, Note_on_c, 2, 76, 71
4, 387452, Note_off_c, 2, 65, 64
4, 387452, Note_off_c, 2, 62, 64
4, 387452, Note_off_c, 2, 76, 64
4, 387456, Note_on_c, 2, 77, 71
4, 387456, Note_on_c, 2, 65, 71
4, 387456, Note_on_c, 2, 62, 71
4, 387644, Note_off_c, 2, 77, 64
4, 387648, Note_on_c, 2, 74, 71
4, 387836, Note_off_c, 2, 65, 64
4, 387836, Note_off_c, 2, 62, 64
4, 387836, Note_off_c, 2, 74, 64
4, 387840, Note_on_c, 2, 79, 71
4, 387840, Note_on_c, 2, 67, 71
4, 387840, Note_on_c, 2, 64, 71
4, 388028, Note_off_c, 2, 79, 64
4, 388032, Note_on_c, 2, 77, 71
4, 388220, Note_off_c, 2, 67, 64
4, 388220, Note_off_c, 2, 64, 64
4, 388220, Note_off_c, 2, 77, 64
4, 388224, Note_on_c, 2, 79, 71
4, 388224, Note_on_c, 2, 67, 71
4, 388224, Note_on_c, 2, 64, 71
4, 388412, Note_off_c, 2, 79, 64
4, 388416, Note_on_c, 2, 76, 71
4, 388604, Note_off_c, 2, 67, 64
4, 388604, Note_off_c, 2, 64, 64
4, 388604, Note_off_c, 2, 76, 64
4, 388608, Note_on_c, 2, 81, 71
4, 388608, Note_on_c, 2, 69, 71
4, 388608, Note_on_c, 2, 65, 71
4, 388988, Note_off_c, 2, 81, 64
4, 388988, Note_off_c, 2, 69, 64
4, 388988, Note_off_c, 2, 65, 64
4, 389952, Note_on_c, 2, 76, 71
4, 390140, Note_off_c, 2, 76, 64
4, 390144, Note_on_c, 2, 78, 71
4, 390144, Note_on_c, 2, 66, 71
4, 390144, Note_on_c, 2, 62, 71
4, 390332, Note_off_c, 2, 78, 64
4, 390336, Note_on_c, 2, 76, 71
4, 390524, Note_off_c, 2, 66, 64
4, 390524, Note_off_c, 2, 62, 64
4, 390524, Note_off_c, 2, 76, 64
4, 390528, Note_on_c, 2, 78, 71
4, 390528, Note_on_c, 2, 66, 71
4, 390528, Note_on_c, 2, 62, 71
4, 390716, Note_off_c, 2, 78, 64
4, 390720, Note_on_c, 2, 74, 71
4, 390908, Note_off_c, 2, 66, 64
4, 390908, Note_off_c, 2, 62, 64
4, 390908, Note_off_c, 2, 74, 64
4, 390912, Note_on_c, 2, 79, 71
4, 390912, Note_on_c, 2, 67, 71
4, 390912, Note_on_c, 2, 64, 71
4, 391100, Note_off_c, 2, 79, 64
4, 391104, Note_on_c, 2, 78, 71
4, 391292, Note_off_c, 2, 67, 64
4, 391292, Note_off_c, 2, 64, 64
4, 391292, Note_off_c, 2, 78, 64
4, 391296, Note_on_c, 2, 79, 71
4, 391296, Note_on_c, 2, 67, 71
4, 391296, Note_on_c, 2, 64, 71
4, 391484, Note_off_c, 2, 79, 64
4, 391488, Note_on_c, 2, 76, 71
4, 391676, Note_off_c, 2, 67, 64
4, 391676, Note_off_c, 2, 64, 64
4, 391676, Note_off_c, 2, 76, 64
4, 391680, Note_on_c, 2, 69, 71
4, 391680, Note_on_c, 2, 66, 71
4, 391680, Note_on_c, 2, 81, 71
4, 392060, Note_off_c, 2, 69, 64
4, 392060, Note_off_c, 2, 66, 64
4, 392060, Note_off_c, 2, 81, 64
4, 393024, Note_on_c, 2, 81, 71
4, 393212, Note_off_c, 2, 81, 64
4, 393216, Note_on_c, 2, 82, 71
4, 393216, Note_on_c, 2, 70, 71
4, 393216, Note_on_c, 2, 67, 71
4, 393404, Note_off_c, 2, 82, 64
4, 393408, Note_on_c, 2, 81, 71
4, 393596, Note_off_c, 2, 70, 64
4, 393596, Note_off_c, 2, 67, 64
4, 393596, Note_off_c, 2, 81, 64
4, 393600, Note_on_c, 2, 82, 71
4, 393600, Note_on_c, 2, 70, 71
4, 393600, Note_on_c, 2, 67, 71
4, 393788, Note_off_c, 2, 82, 64
4, 393792, Note_on_c, 2, 79, 71
4, 393980, Note_off_c, 2, 70, 64
4, 393980, Note_off_c, 2, 67, 64
4, 393980, Note_off_c, 2, 79, 64
4, 393984, Note_on_c, 2, 84, 71
4, 393984, Note_on_c, 2, 72, 71
4, 393984, Note_on_c, 2, 69, 71
4, 394172, Note_off_c, 2, 84, 64
4, 394176, Note_on_c, 2, 82, 71
4, 394364, Note_off_c, 2, 72, 64
4, 394364, Note_off_c, 2, 69, 64
4, 394364, Note_off_c, 2, 82, 64
4, 394368, Note_on_c, 2, 84, 71
4, 394368, Note_on_c, 2, 72, 71
4, 394368, Note_on_c, 2, 69, 71
4, 394556, Note_off_c, 2, 84, 64
4, 394560, Note_on_c, 2, 81, 71
4, 394748, Note_off_c, 2, 72, 64
4, 394748, Note_off_c, 2, 69, 64
4, 394748, Note_off_c, 2, 81, 64
4, 394752, Note_on_c, 2, 86, 71
4, 394752, Note_on_c, 2, 74, 71
4, 394752, Note_on_c, 2, 70, 71
4, 395132, Note_off_c, 2, 86, 64
4, 395132, Note_off_c, 2, 74, 64
4, 395132, Note_off_c, 2, 70, 64
4, 396096, Note_on_c, 2, 74, 71
4, 396284, Note_off_c, 2, 74, 64
4, 396288, Note_on_c, 2, 76, 71
4, 396288, Note_on_c, 2, 64, 71
4, 396288, Note_on_c, 2, 60, 71
4, 396476, Note_off_c, 2, 76, 64
4, 396480, Note_on_c, 2, 74, 71
4, 396668, Note_off_c, 2, 64, 64
4, 396668, Note_off_c, 2, 60, 64
4, 396668, Note_off_c, 2, 74, 64
4, 396672, Note_on_c, 2, 76, 71
4, 396672, Note_on_c, 2, 60, 71
4, 396672, Note_on_c, 2, 64, 71
4, 396860, Note_off_c, 2, 76, 64
4, 396864, Note_on_c, 2, 72, 71
4, 397052, Note_off_c, 2, 60, 64
4, 397052, Note_off_c, 2, 64, 64
4, 397052, Note_off_c, 2, 72, 64
4, 397056, Note_on_c, 2, 77, 71
4, 397056, Note_on_c, 2, 65, 71
4, 397056, Note_on_c, 2, 62, 71
4, 397244, Note_off_c, 2, 77, 64
4, 397248, Note_on_c, 2, 76, 71
4, 397436, Note_off_c, 2, 65, 64
4, 397436, Note_off_c, 2, 62, 64
4, 397436, Note_off_c, 2, 76, 64
4, 397440, Note_on_c, 2, 77, 71
4, 397440, Note_on_c, 2, 65, 71
4, 397440, Note_on_c, 2, 62, 71
4, 397628, Note_off_c, 2, 77, 64
4, 397632, Note_on_c, 2, 74, 71
4, 397820, Note_off_c, 2, 65, 64
4, 397820, Note_off_c, 2, 62, 64
4, 397820, Note_off_c, 2, 74, 64
4, 397824, Note_on_c, 2, 77, 71
4, 397824, Note_on_c, 2, 67, 71
4, 397824, Note_on_c, 2, 64, 71
4, 398204, Note_off_c, 2, 77, 64
4, 398204, Note_off_c, 2, 67, 64
4, 398204, Note_off_c, 2, 64, 64
4, 399168, Note_on_c, 2, 79, 71
4, 399356, Note_off_c, 2, 79, 64
4, 399360, Note_on_c, 2, 81, 71
4, 399360, Note_on_c, 2, 69, 71
4, 399360, Note_on_c, 2, 65, 71
4, 399548, Note_off_c, 2, 81, 64
4, 399552, Note_on_c, 2, 79, 71
4, 399740, Note_off_c, 2, 69, 64
4, 399740, Note_off_c, 2, 65, 64
4, 399740, Note_off_c, 2, 79, 64
4, 399744, Note_on_c, 2, 81, 71
4, 399744, Note_on_c, 2, 69, 71
4, 399744, Note_on_c, 2, 65, 71
4, 399932, Note_off_c, 2, 81, 64
4, 399936, Note_on_c, 2, 77, 71
4, 400124, Note_off_c, 2, 69, 64
4, 400124, Note_off_c, 2, 65, 64
4, 400124, Note_off_c, 2, 77, 64
4, 400128, Note_on_c, 2, 82, 71
4, 400128, Note_on_c, 2, 70, 71
4, 400128, Note_on_c, 2, 67, 71
4, 400316, Note_off_c, 2, 82, 64
4, 400320, Note_on_c, 2, 81, 71
4, 400508, Note_off_c, 2, 70, 64
4, 400508, Note_off_c, 2, 67, 64
4, 400508, Note_off_c, 2, 81, 64
4, 400512, Note_on_c, 2, 82, 71
4, 400512, Note_on_c, 2, 70, 71
4, 400512, Note_on_c, 2, 67, 71
4, 400700, Note_off_c, 2, 82, 64
4, 400704, Note_on_c, 2, 79, 71
4, 400892, Note_off_c, 2, 70, 64
4, 400892, Note_off_c, 2, 67, 64
4, 400892, Note_off_c, 2, 79, 64
4, 400896, Note_on_c, 2, 84, 71
4, 400896, Note_on_c, 2, 72, 71
4, 400896, Note_on_c, 2, 69, 71
4, 401276, Note_off_c, 2, 84, 64
4, 401276, Note_off_c, 2, 72, 64
4, 401276, Note_off_c, 2, 69, 64
4, 402240, Note_on_c, 2, 72, 71
4, 402428, Note_off_c, 2, 72, 64
4, 402432, Note_on_c, 2, 74, 71
4, 402432, Note_on_c, 2, 62, 71
4, 402432, Note_on_c, 2, 58, 71
4, 402620, Note_off_c, 2, 74, 64
4, 402624, Note_on_c, 2, 72, 71
4, 402812, Note_off_c, 2, 62, 64
4, 402812, Note_off_c, 2, 58, 64
4, 402812, Note_off_c, 2, 72, 64
4, 402816, Note_on_c, 2, 74, 71
4, 402816, Note_on_c, 2, 58, 71
4, 402816, Note_on_c, 2, 62, 71
4, 403004, Note_off_c, 2, 74, 64
4, 403008, Note_on_c, 2, 70, 71
4, 403196, Note_off_c, 2, 58, 64
4, 403196, Note_off_c, 2, 62, 64
4, 403196, Note_off_c, 2, 70, 64
4, 403200, Note_on_c, 2, 75, 71
4, 403200, Note_on_c, 2, 60, 71
4, 403200, Note_on_c, 2, 63, 71
4, 403388, Note_off_c, 2, 75, 64
4, 403392, Note_on_c, 2, 74, 71
4, 403580, Note_off_c, 2, 60, 64
4, 403580, Note_off_c, 2, 63, 64
4, 403580, Note_off_c, 2, 74, 64
4, 403584, Note_on_c, 2, 75, 71
4, 403584, Note_on_c, 2, 63, 71
4, 403584, Note_on_c, 2, 60, 71
4, 403772, Note_off_c, 2, 75, 64
4, 403776, Note_on_c, 2, 72, 71
4, 403964, Note_off_c, 2, 63, 64
4, 403964, Note_off_c, 2, 60, 64
4, 403964, Note_off_c, 2, 72, 64
4, 403968, Note_on_c, 2, 77, 71
4, 403968, Note_on_c, 2, 65, 71
4, 403968, Note_on_c, 2, 62, 71
4, 404348, Note_off_c, 2, 77, 64
4, 404348, Note_off_c, 2, 65, 64
4, 404348, Note_off_c, 2, 62, 64
4, 405312, Note_on_c, 2, 77, 71
4, 405500, Note_off_c, 2, 77, 64
4, 405504, Note_on_c, 2, 79, 71
4, 405504, Note_on_c, 2, 67, 71
4, 405504, Note_on_c, 2, 64, 71
4, 405692, Note_off_c, 2, 79, 64
4, 405696, Note_on_c, 2, 77, 71
4, 405884, Note_off_c, 2, 67, 64
4, 405884, Note_off_c, 2, 64, 64
4, 405884, Note_off_c, 2, 77, 64
4, 405888, Note_on_c, 2, 79, 71
4, 405888, Note_on_c, 2, 67, 71
4, 405888, Note_on_c, 2, 64, 71
4, 406076, Note_off_c, 2, 79, 64
4, 406080, Note_on_c, 2, 76, 71
4, 406268, Note_off_c, 2, 67, 64
4, 406268, Note_off_c, 2, 64, 64
4, 406268, Note_off_c, 2, 76, 64
4, 406272, Note_on_c, 2, 81, 71
4, 406272, Note_on_c, 2, 69, 71
4, 406272, Note_on_c, 2, 65, 71
4, 406460, Note_off_c, 2, 81, 64
4, 406464, Note_on_c, 2, 79, 71
4, 406652, Note_off_c, 2, 69, 64
4, 406652, Note_off_c, 2, 65, 64
4, 406652, Note_off_c, 2, 79, 64
4, 406656, Note_on_c, 2, 81, 71
4, 406656, Note_on_c, 2, 69, 71
4, 406656, Note_on_c, 2, 65, 71
4, 406844, Note_off_c, 2, 81, 64
4, 406848, Note_on_c, 2, 77, 71
4, 407036, Note_off_c, 2, 69, 64
4, 407036, Note_off_c, 2, 65, 64
4, 407036, Note_off_c, 2, 77, 64
4, 407040, Note_on_c, 2, 82, 71
4, 407040, Note_on_c, 2, 70, 71
4, 407040, Note_on_c, 2, 67, 71
4, 407420, Note_off_c, 2, 82, 64
4, 407420, Note_off_c, 2, 70, 64
4, 407420, Note_off_c, 2, 67, 64
4, 408384, Note_on_c, 2, 82, 71
4, 408572, Note_off_c, 2, 82, 64
4, 408576, Note_on_c, 2, 85, 71
4, 408764, Note_off_c, 2, 85, 64
4, 408768, Note_on_c, 2, 83, 71
4, 408956, Note_off_c, 2, 83, 64
4, 408960, Note_on_c, 2, 85, 71
4, 409148, Note_off_c, 2, 85, 64
4, 409152, Note_on_c, 2, 81, 71
4, 409340, Note_off_c, 2, 81, 64
4, 409344, Note_on_c, 2, 86, 71
4, 409532, Note_off_c, 2, 86, 64
4, 409536, Note_on_c, 2, 85, 71
4, 409724, Note_off_c, 2, 85, 64
4, 409728, Note_on_c, 2, 86, 71
4, 409916, Note_off_c, 2, 86, 64
4, 409920, Note_on_c, 2, 83, 71
4, 410108, Note_off_c, 2, 83, 64
4, 410112, Note_on_c, 2, 88, 71
4, 410492, Note_off_c, 2, 88, 64
4, 414720, Note_on_c, 2, 69, 71
4, 414720, Note_on_c, 2, 57, 71
4, 415100, Note_off_c, 2, 69, 64
4, 415100, Note_off_c, 2, 57, 64
4, 415488, Note_on_c, 2, 73, 71
4, 415488, Note_on_c, 2, 61, 71
4, 415868, Note_off_c, 2, 73, 64
4, 415868, Note_off_c, 2, 61, 64
4, 416256, Note_on_c, 2, 74, 71
4, 416256, Note_on_c, 2, 62, 71
4, 416636, Note_off_c, 2, 74, 64
4, 416636, Note_off_c, 2, 62, 64
4, 417024, Note_on_c, 2, 77, 71
4, 417024, Note_on_c, 2, 65, 71
4, 417404, Note_off_c, 2, 77, 64
4, 417404, Note_off_c, 2, 65, 64
4, 417792, Note_on_c, 2, 81, 71
4, 417792, Note_on_c, 2, 69, 71
4, 418172, Note_off_c, 2, 81, 64
4, 418172, Note_off_c, 2, 69, 64
4, 418560, Note_on_c, 2, 61, 71
4, 418940, Note_off_c, 2, 61, 64
4, 419328, Note_on_c, 2, 62, 71
4, 419708, Note_off_c, 2, 62, 64
4, 420096, Note_on_c, 2, 65, 71
4, 420476, Note_off_c, 2, 65, 64
4, 420864, Note_on_c, 2, 69, 71
4, 421244, Note_off_c, 2, 69, 64
4, 423936, Note_on_c, 2, 73, 71
4, 423936, Note_on_c, 2, 69, 71
4, 423936, Note_on_c, 2, 64, 71
4, 424316, Note_off_c, 2, 73, 64
4, 424316, Note_off_c, 2, 69, 64
4, 424316, Note_off_c, 2, 64, 64
4, 437760, Note_on_c, 2, 81, 71
4, 437760, Note_on_c, 2, 69, 71
4, 438140, Note_off_c, 2, 81, 64
4, 438140, Note_off_c, 2, 69, 64
4, 438144, Note_on_c, 2, 77, 71
4, 438332, Note_off_c, 2, 77, 64
4, 438528, Note_on_c, 2, 79, 71
4, 438528, Note_on_c, 2, 67, 71
4, 438908, Note_off_c, 2, 79, 64
4, 438908, Note_off_c, 2, 67, 64
4, 438912, Note_on_c, 2, 76, 71
4, 439100, Note_off_c, 2, 76, 64
4, 439296, Note_on_c, 2, 77, 71
4, 439296, Note_on_c, 2, 65, 71
4, 439676, Note_off_c, 2, 77, 64
4, 439676, Note_off_c, 2, 65, 64
4, 439680, Note_on_c, 2, 74, 71
4, 439868, Note_off_c, 2, 74, 64
4, 440064, Note_on_c, 2, 76, 71
4, 440064, Note_on_c, 2, 64, 71
4, 440444, Note_off_c, 2, 76, 64
4, 440444, Note_off_c, 2, 64, 64
4, 440448, Note_on_c, 2, 73, 71
4, 440636, Note_off_c, 2, 73, 64
4, 440832, Note_on_c, 2, 68, 71
4, 440832, Note_on_c, 2, 74, 71
4, 442364, Note_off_c, 2, 68, 64
4, 442368, Note_on_c, 2, 69, 71
4, 442368, Note_on_c, 2, 81, 71
4, 442748, Note_off_c, 2, 74, 64
4, 443516, Note_off_c, 2, 81, 64
4, 443520, Note_on_c, 2, 73, 71
4, 443900, Note_off_c, 2, 69, 64
4, 443900, Note_off_c, 2, 73, 64
4, 443904, Note_on_c, 2, 74, 71
4, 443904, Note_on_c, 2, 68, 71
4, 443904, Note_on_c, 2, 74, 71
4, 444284, Note_off_c, 2, 74, 64
4, 445436, Note_off_c, 2, 68, 64
4, 445440, Note_on_c, 2, 69, 71
4, 445440, Note_on_c, 2, 81, 71
4, 445820, Note_off_c, 2, 74, 64
4, 446588, Note_off_c, 2, 81, 64
4, 446592, Note_on_c, 2, 73, 71
4, 446972, Note_off_c, 2, 69, 64
4, 446972, Note_off_c, 2, 73, 64
4, 446976, Note_on_c, 2, 74, 71
4, 448508, Note_off_c, 2, 74, 64
4, 448512, Note_on_c, 2, 74, 71
4, 448512, Note_on_c, 2, 86, 71
4, 449660, Note_off_c, 2, 74, 64
4, 449664, Note_on_c, 2, 76, 71
4, 450044, Note_off_c, 2, 76, 64
4, 450048, Note_on_c, 2, 77, 71
4, 450428, Note_off_c, 2, 86, 64
4, 450428, Note_off_c, 2, 77, 64
4, 450816, Note_on_c, 2, 88, 71
4, 450816, Note_on_c, 2, 79, 71
4, 451196, Note_off_c, 2, 88, 64
4, 451196, Note_off_c, 2, 79, 64
4, 451584, Note_on_c, 2, 86, 71
4, 451584, Note_on_c, 2, 77, 71
4, 451964, Note_off_c, 2, 86, 64
4, 451964, Note_off_c, 2, 77, 64
4, 452352, Note_on_c, 2, 85, 71
4, 452352, Note_on_c, 2, 76, 71
4, 452732, Note_off_c, 2, 85, 64
4, 452732, Note_off_c, 2, 76, 64
4, 453120, Note_on_c, 2, 86, 71
4, 453120, Note_on_c, 2, 74, 71
4, 453500, Note_off_c, 2, 86, 64
4, 453500, Note_off_c, 2, 74, 64
4, 454656, Note_on_c, 2, 82, 71
4, 454656, Note_on_c, 2, 67, 71
4, 454844, Note_off_c, 2, 82, 64
4, 454844, Note_off_c, 2, 67, 64
4, 455040, Note_on_c, 2, 81, 71
4, 455040, Note_on_c, 2, 65, 71
4, 455228, Note_off_c, 2, 81, 64
4, 455228, Note_off_c, 2, 65, 64
4, 455424, Note_on_c, 2, 79, 71
4, 455424, Note_on_c, 2, 64, 71
4, 455612, Note_off_c, 2, 79, 64
4, 455612, Note_off_c, 2, 64, 64
4, 455808, Note_on_c, 2, 77, 71
4, 455808, Note_on_c, 2, 62, 71
4, 455996, Note_off_c, 2, 77, 64
4, 455996, Note_off_c, 2, 62, 64
4, 456192, Note_on_c, 2, 76, 71
4, 456192, Note_on_c, 2, 60, 71
4, 456572, Note_off_c, 2, 76, 64
4, 456572, Note_off_c, 2, 60, 64
4, 456576, Note_on_c, 2, 64, 71
4, 456956, Note_off_c, 2, 64, 64
4, 456960, Note_on_c, 2, 67, 71
4, 457340, Note_off_c, 2, 67, 64
4, 457344, Note_on_c, 2, 64, 71
4, 457724, Note_off_c, 2, 64, 64
4, 457728, Note_on_c, 2, 82, 71
4, 457728, Note_on_c, 2, 65, 71
4, 457916, Note_off_c, 2, 82, 64
4, 457916, Note_off_c, 2, 65, 64
4, 458112, Note_on_c, 2, 81, 71
4, 458112, Note_on_c, 2, 64, 71
4, 458300, Note_off_c, 2, 81, 64
4, 458300, Note_off_c, 2, 64, 64
4, 458496, Note_on_c, 2, 77, 71
4, 458496, Note_on_c, 2, 62, 71
4, 458684, Note_off_c, 2, 77, 64
4, 458684, Note_off_c, 2, 62, 64
4, 458880, Note_on_c, 2, 76, 71
4, 458880, Note_on_c, 2, 60, 71
4, 459068, Note_off_c, 2, 76, 64
4, 459068, Note_off_c, 2, 60, 64
4, 459264, Note_on_c, 2, 74, 71
4, 459264, Note_on_c, 2, 58, 71
4, 459644, Note_off_c, 2, 74, 64
4, 459644, Note_off_c, 2, 58, 64
4, 459648, Note_on_c, 2, 62, 71
4, 460028, Note_off_c, 2, 62, 64
4, 460032, Note_on_c, 2, 65, 71
4, 460412, Note_off_c, 2, 65, 64
4, 460416, Note_on_c, 2, 62, 71
4, 460796, Note_off_c, 2, 62, 64
4, 460800, Note_on_c, 2, 79, 71
4, 461568, Note_on_c, 2, 64, 71
4, 461948, Note_off_c, 2, 79, 64
4, 461952, Note_on_c, 2, 77, 71
4, 462332, Note_off_c, 2, 77, 64
4, 462336, Note_on_c, 2, 76, 71
4, 462716, Note_off_c, 2, 64, 64
4, 462720, Note_on_c, 2, 65, 71
4, 463100, Note_off_c, 2, 65, 64
4, 463104, Note_on_c, 2, 67, 71
4, 463484, Note_off_c, 2, 76, 64
4, 463484, Note_off_c, 2, 67, 64
4, 463488, Note_on_c, 2, 68, 71
4, 463488, Note_on_c, 2, 74, 71
4, 463868, Note_off_c, 2, 68, 64
4, 463868, Note_off_c, 2, 74, 64
4, 463872, Note_on_c, 2, 73, 71
4, 463872, Note_on_c, 2, 69, 71
4, 464252, Note_off_c, 2, 73, 64
4, 464252, Note_off_c, 2, 69, 64
4, 464256, Note_on_c, 2, 70, 71
4, 464256, Note_on_c, 2, 61, 71
4, 464636, Note_off_c, 2, 70, 64
4, 464636, Note_off_c, 2, 61, 64
4, 464640, Note_on_c, 2, 69, 71
4, 464640, Note_on_c, 2, 62, 71
4, 465020, Note_off_c, 2, 69, 64
4, 465020, Note_off_c, 2, 62, 64
4, 465024, Note_on_c, 2, 67, 71
4, 465024, Note_on_c, 2, 61, 71
4, 465404, Note_off_c, 2, 67, 64
4, 465404, Note_off_c, 2, 61, 64
4, 465408, Note_on_c, 2, 65, 71
4, 465408, Note_on_c, 2, 62, 71
4, 466172, Note_off_c, 2, 65, 64
4, 466172, Note_off_c, 2, 62, 64
4, 466560, Note_on_c, 2, 69, 71
4, 466560, Note_on_c, 2, 66, 71
4, 466560, Note_on_c, 2, 62, 71
4, 466940, Note_off_c, 2, 69, 64
4, 466940, Note_off_c, 2, 66, 64
4, 466940, Note_off_c, 2, 62, 64
4, 466944, Note_on_c, 2, 74, 71
4, 466944, Note_on_c, 2, 67, 71
4, 466944, Note_on_c, 2, 62, 71
4, 467708, Note_off_c, 2, 74, 64
4, 467708, Note_off_c, 2, 67, 64
4, 467708, Note_off_c, 2, 62, 64
4, 468096, Note_on_c, 2, 77, 71
4, 468096, Note_on_c, 2, 74, 71
4, 468096, Note_on_c, 2, 68, 71
4, 468476, Note_off_c, 2, 77, 64
4, 468476, Note_off_c, 2, 74, 64
4, 468476, Note_off_c, 2, 68, 64
4, 468480, Note_on_c, 2, 77, 71
4, 468480, Note_on_c, 2, 74, 71
4, 468480, Note_on_c, 2, 69, 71
4, 469244, Note_off_c, 2, 77, 64
4, 469244, Note_off_c, 2, 74, 64
4, 469244, Note_off_c, 2, 69, 64
4, 473088, Note_on_c, 2, 81, 71
4, 473088, Note_on_c, 2, 69, 71
4, 474236, Note_off_c, 2, 81, 64
4, 474236, Note_off_c, 2, 69, 64
4, 474240, Note_on_c, 2, 76, 71
4, 474620, Note_off_c, 2, 76, 64
4, 474624, Note_on_c, 2, 76, 71
4, 475004, Note_off_c, 2, 76, 64
4, 475008, Note_on_c, 2, 77, 71
4, 475196, Note_off_c, 2, 77, 64
4, 475392, Note_on_c, 2, 74, 71
4, 476156, Note_off_c, 2, 74, 64
4, 476160, Note_on_c, 2, 78, 71
4, 476540, Note_off_c, 2, 78, 64
4, 476544, Note_on_c, 2, 79, 71
4, 476732, Note_off_c, 2, 79, 64
4, 476928, Note_on_c, 2, 76, 71
4, 477692, Note_off_c, 2, 76, 64
4, 477696, Note_on_c, 2, 81, 71
4, 477696, Note_on_c, 2, 69, 71
4, 477884, Note_off_c, 2, 81, 64
4, 477884, Note_off_c, 2, 69, 64
4, 477888, Note_on_c, 2, 80, 71
4, 478076, Note_off_c, 2, 80, 64
4, 478080, Note_on_c, 2, 81, 71
4, 478268, Note_off_c, 2, 81, 64
4, 478272, Note_on_c, 2, 83, 71
4, 478460, Note_off_c, 2, 83, 64
4, 478464, Note_on_c, 2, 81, 71
4, 478844, Note_off_c, 2, 81, 64
4, 479232, Note_on_c, 2, 81, 71
4, 479232, Note_on_c, 2, 69, 71
4, 480380, Note_off_c, 2, 81, 64
4, 480380, Note_off_c, 2, 69, 64
4, 480384, Note_on_c, 2, 76, 71
4, 480764, Note_off_c, 2, 76, 64
4, 480768, Note_on_c, 2, 76, 71
4, 481148, Note_off_c, 2, 76, 64
4, 481152, Note_on_c, 2, 77, 71
4, 481340, Note_off_c, 2, 77, 64
4, 481536, Note_on_c, 2, 74, 71
4, 482304, Note_on_c, 2, 69, 71
4, 482684, Note_off_c, 2, 74, 64
4, 482684, Note_off_c, 2, 69, 64
4, 482688, Note_on_c, 2, 77, 71
4, 482688, Note_on_c, 2, 65, 71
4, 483068, Note_off_c, 2, 77, 64
4, 483068, Note_off_c, 2, 65, 64
4, 483072, Note_on_c, 2, 79, 71
4, 483072, Note_on_c, 2, 67, 71
4, 483452, Note_off_c, 2, 79, 64
4, 483452, Note_off_c, 2, 67, 64
4, 483456, Note_on_c, 2, 67, 71
4, 483456, Note_on_c, 2, 76, 71
4, 483836, Note_off_c, 2, 67, 64
4, 483836, Note_off_c, 2, 76, 64
4, 483840, Note_on_c, 2, 76, 71
4, 483840, Note_on_c, 2, 67, 71
4, 484220, Note_off_c, 2, 76, 64
4, 484220, Note_off_c, 2, 67, 64
4, 484224, Note_on_c, 2, 74, 71
4, 484224, Note_on_c, 2, 65, 71
4, 484604, Note_off_c, 2, 74, 64
4, 484604, Note_off_c, 2, 65, 64
4, 484608, Note_on_c, 2, 74, 71
4, 484608, Note_on_c, 2, 65, 71
4, 484988, Note_off_c, 2, 74, 64
4, 484988, Note_off_c, 2, 65, 64
4, 484992, Note_on_c, 2, 65, 71
4, 484992, Note_on_c, 2, 62, 71
4, 485372, Note_off_c, 2, 65, 64
4, 485372, Note_off_c, 2, 62, 64
4, 499200, Note_on_c, 2, 76, 71
4, 499200, Note_on_c, 2, 64, 71
4, 499580, Note_off_c, 2, 64, 64
4, 499964, Note_off_c, 2, 76, 64
4, 499968, Note_on_c, 2, 77, 71
4, 500348, Note_off_c, 2, 77, 64
4, 500352, Note_on_c, 2, 79, 71
4, 500732, Note_off_c, 2, 79, 64
4, 500736, Note_on_c, 2, 81, 71
4, 500736, Note_on_c, 2, 69, 71
4, 501116, Note_off_c, 2, 81, 64
4, 501116, Note_off_c, 2, 69, 64
4, 502272, Note_on_c, 2, 74, 71
4, 502272, Note_on_c, 2, 62, 71
4, 502652, Note_off_c, 2, 62, 64
4, 503036, Note_off_c, 2, 74, 64
4, 503040, Note_on_c, 2, 76, 71
4, 503420, Note_off_c, 2, 76, 64
4, 503424, Note_on_c, 2, 77, 71
4, 503804, Note_off_c, 2, 77, 64
4, 503808, Note_on_c, 2, 79, 71
4, 503808, Note_on_c, 2, 67, 71
4, 504188, Note_off_c, 2, 79, 64
4, 504188, Note_off_c, 2, 67, 64
4, 505344, Note_on_c, 2, 73, 71
4, 505344, Note_on_c, 2, 61, 71
4, 505724, Note_off_c, 2, 61, 64
4, 506108, Note_off_c, 2, 73, 64
4, 506112, Note_on_c, 2, 74, 71
4, 506492, Note_off_c, 2, 74, 64
4, 506496, Note_on_c, 2, 76, 71
4, 506876, Note_off_c, 2, 76, 64
4, 506880, Note_on_c, 2, 77, 71
4, 506880, Note_on_c, 2, 65, 71
4, 507260, Note_off_c, 2, 77, 64
4, 507260, Note_off_c, 2, 65, 64
4, 507264, Note_on_c, 2, 64, 71
4, 507644, Note_off_c, 2, 64, 64
4, 507648, Note_on_c, 2, 62, 71
4, 508028, Note_off_c, 2, 62, 64
4, 508032, Note_on_c, 2, 60, 71
4, 508412, Note_off_c, 2, 60, 64
4, 508416, Note_on_c, 2, 65, 71
4, 508416, Note_on_c, 2, 62, 71
4, 508416, Note_on_c, 2, 59, 71
4, 509184, Note_on_c, 2, 68, 71
4, 509948, Note_off_c, 2, 65, 64
4, 509948, Note_off_c, 2, 62, 64
4, 509948, Note_off_c, 2, 59, 64
4, 509948, Note_off_c, 2, 68, 64
4, 509952, Note_on_c, 2, 71, 71
4, 510716, Note_off_c, 2, 71, 64
4, 510720, Note_on_c, 2, 74, 71
4, 511484, Note_off_c, 2, 74, 64
4, 511488, Note_on_c, 2, 77, 71
4, 512252, Note_off_c, 2, 77, 64
4, 512256, Note_on_c, 2, 83, 71
4, 513020, Note_off_c, 2, 83, 64
4, 513024, Note_on_c, 2, 86, 71
4, 513788, Note_off_c, 2, 86, 64
4, 513792, Note_on_c, 2, 89, 71
4, 514556, Note_off_c, 2, 89, 64
4, 514560, Note_on_c, 2, 57, 92
4, 515324, Note_off_c, 2, 57, 64
4, 526848, Note_on_c, 2, 74, 92
4, 526848, Note_on_c, 2, 70, 92
4, 526848, Note_on_c, 2, 65, 92
4, 526848, Note_on_c, 2, 62, 92
4, 527612, Note_off_c, 2, 74, 64
4, 528380, Note_off_c, 2, 70, 64
4, 528380, Note_off_c, 2, 65, 64
4, 528380, Note_off_c, 2, 62, 64
4, 528384, Note_on_c, 2, 87, 92
4, 528384, Note_on_c, 2, 84, 92
4, 528384, Note_on_c, 2, 77, 92
4, 529148, Note_off_c, 2, 87, 64
4, 529148, Note_off_c, 2, 84, 64
4, 529148, Note_off_c, 2, 77, 64
4, 529152, Note_on_c, 2, 76, 92
4, 529152, Note_on_c, 2, 72, 92
4, 529152, Note_on_c, 2, 65, 92
4, 529724, Note_off_c, 2, 76, 64
4, 529724, Note_off_c, 2, 72, 64
4, 529724, Note_off_c, 2, 65, 64
4, 529728, Note_on_c, 2, 76, 92
4, 529728, Note_on_c, 2, 72, 92
4, 529728, Note_on_c, 2, 65, 92
4, 529916, Note_off_c, 2, 76, 64
4, 529916, Note_off_c, 2, 72, 64
4, 529916, Note_off_c, 2, 65, 64
4, 529920, Note_on_c, 2, 74, 92
4, 529920, Note_on_c, 2, 70, 92
4, 529920, Note_on_c, 2, 65, 92
4, 531452, Note_off_c, 2, 74, 64
4, 531452, Note_off_c, 2, 70, 64
4, 531452, Note_off_c, 2, 65, 64
4, 531456, Note_on_c, 2, 87, 92
4, 531456, Note_on_c, 2, 84, 92
4, 531456, Note_on_c, 2, 78, 92
4, 532220, Note_off_c, 2, 87, 64
4, 532220, Note_off_c, 2, 84, 64
4, 532220, Note_off_c, 2, 78, 64
4, 532224, Note_on_c, 2, 75, 92
4, 532224, Note_on_c, 2, 72, 92
4, 532224, Note_on_c, 2, 66, 92
4, 532796, Note_off_c, 2, 75, 64
4, 532796, Note_off_c, 2, 72, 64
4, 532796, Note_off_c, 2, 66, 64
4, 532800, Note_on_c, 2, 75, 92
4, 532800, Note_on_c, 2, 72, 92
4, 532800, Note_on_c, 2, 66, 92
4, 532988, Note_off_c, 2, 75, 64
4, 532988, Note_off_c, 2, 72, 64
4, 532988, Note_off_c, 2, 66, 64
4, 532992, Note_on_c, 2, 74, 92
4, 532992, Note_on_c, 2, 70, 92
4, 532992, Note_on_c, 2, 67, 92
4, 534524, Note_off_c, 2, 74, 64
4, 534524, Note_off_c, 2, 70, 64
4, 534524, Note_off_c, 2, 67, 64
4, 534528, Note_on_c, 2, 89, 92
4, 534528, Note_on_c, 2, 83, 92
4, 534528, Note_on_c, 2, 80, 92
4, 535292, Note_off_c, 2, 89, 64
4, 535292, Note_off_c, 2, 83, 64
4, 535292, Note_off_c, 2, 80, 64
4, 535296, Note_on_c, 2, 80, 92
4, 535296, Note_on_c, 2, 77, 92
4, 535296, Note_on_c, 2, 74, 92
4, 535868, Note_off_c, 2, 80, 64
4, 535868, Note_off_c, 2, 77, 64
4, 535868, Note_off_c, 2, 74, 64
4, 535872, Note_on_c, 2, 80, 92
4, 535872, Note_on_c, 2, 77, 92
4, 535872, Note_on_c, 2, 71, 92
4, 536060, Note_off_c, 2, 80, 64
4, 536060, Note_off_c, 2, 77, 64
4, 536060, Note_off_c, 2, 71, 64
4, 536064, Note_on_c, 2, 81, 92
4, 536064, Note_on_c, 2, 76, 92
4, 536064, Note_on_c, 2, 69, 92
4, 536444, Note_off_c, 2, 81, 64
4, 536444, Note_off_c, 2, 76, 64
4, 536444, Note_off_c, 2, 69, 64
4, 536448, Note_on_c, 2, 79, 92
4, 536448, Note_on_c, 2, 76, 92
4, 536448, Note_on_c, 2, 69, 92
4, 536828, Note_off_c, 2, 79, 64
4, 536828, Note_off_c, 2, 76, 64
4, 536828, Note_off_c, 2, 69, 64
4, 537216, Note_on_c, 2, 77, 92
4, 537216, Note_on_c, 2, 74, 92
4, 537216, Note_on_c, 2, 69, 92
4, 537596, Note_off_c, 2, 77, 64
4, 537596, Note_off_c, 2, 74, 64
4, 537596, Note_off_c, 2, 69, 64
4, 537984, Note_on_c, 2, 82, 92
4, 537984, Note_on_c, 2, 79, 92
4, 537984, Note_on_c, 2, 74, 92
4, 538364, Note_off_c, 2, 82, 64
4, 538364, Note_off_c, 2, 79, 64
4, 538364, Note_off_c, 2, 74, 64
4, 538752, Note_on_c, 2, 86, 92
4, 538752, Note_on_c, 2, 82, 92
4, 538752, Note_on_c, 2, 77, 92
4, 538752, Note_on_c, 2, 74, 92
4, 539132, Note_off_c, 2, 86, 64
4, 539132, Note_off_c, 2, 82, 64
4, 539132, Note_off_c, 2, 74, 64
4, 539136, Note_on_c, 2, 57, 92
4, 539140, Note_off_c, 2, 77, 64
4, 540284, Note_off_c, 2, 57, 64
4, 666624, Key_signature, 2, "major"
4, 668160, Note_on_c, 2, 81, 80
4, 668924, Note_off_c, 2, 81, 64
4, 669312, Note_on_c, 2, 76, 80
4, 669692, Note_off_c, 2, 76, 64
4, 669696, Note_on_c, 2, 76, 80
4, 669696, Note_on_c, 2, 66, 80
4, 670076, Note_off_c, 2, 76, 64
4, 670080, Note_on_c, 2, 78, 80
4, 670268, Note_off_c, 2, 78, 64
4, 670460, Note_off_c, 2, 66, 64
4, 670464, Note_on_c, 2, 74, 80
4, 670464, Note_on_c, 2, 69, 80
4, 671228, Note_off_c, 2, 74, 64
4, 671228, Note_off_c, 2, 69, 64
4, 671232, Note_on_c, 2, 78, 80
4, 671232, Note_on_c, 2, 73, 80
4, 671612, Note_off_c, 2, 78, 64
4, 671616, Note_on_c, 2, 79, 80
4, 671804, Note_off_c, 2, 79, 64
4, 671996, Note_off_c, 2, 73, 64
4, 672000, Note_on_c, 2, 76, 80
4, 672000, Note_on_c, 2, 68, 80
4, 672764, Note_off_c, 2, 76, 64
4, 672764, Note_off_c, 2, 68, 64
4, 672768, Note_on_c, 2, 69, 80
4, 672860, Note_off_c, 2, 69, 64
4, 672864, Note_on_c, 2, 81, 80
4, 672956, Note_off_c, 2, 81, 64
4, 672960, Note_on_c, 2, 80, 80
4, 673148, Note_off_c, 2, 80, 64
4, 673152, Note_on_c, 2, 81, 80
4, 673328, Note_on_c, 2, 83, 80
4, 673340, Note_off_c, 2, 81, 64
4, 673516, Note_off_c, 2, 83, 64
4, 673536, Note_on_c, 2, 81, 80
4, 673916, Note_off_c, 2, 81, 64
4, 673920, Note_on_c, 2, 81, 80
4, 674300, Note_off_c, 2, 81, 64
4, 674304, Note_on_c, 2, 81, 80
4, 675072, Note_on_c, 2, 67, 80
4, 675452, Note_off_c, 2, 81, 64
4, 675456, Note_on_c, 2, 76, 80
4, 675836, Note_off_c, 2, 67, 64
4, 675836, Note_off_c, 2, 76, 64
4, 675840, Note_on_c, 2, 66, 80
4, 675840, Note_on_c, 2, 76, 80
4, 676220, Note_off_c, 2, 76, 64
4, 676224, Note_on_c, 2, 78, 80
4, 676412, Note_off_c, 2, 78, 64
4, 676604, Note_off_c, 2, 66, 64
4, 676608, Note_on_c, 2, 65, 80
4, 676608, Note_on_c, 2, 74, 80
4, 676608, Note_on_c, 2, 68, 80
4, 677372, Note_off_c, 2, 65, 64
4, 677372, Note_off_c, 2, 68, 64
4, 677756, Note_off_c, 2, 74, 64
4, 677760, Note_on_c, 2, 78, 80
4, 678140, Note_off_c, 2, 78, 64
4, 678144, Note_on_c, 2, 79, 80
4, 678524, Note_off_c, 2, 79, 64
4, 678528, Note_on_c, 2, 76, 80
4, 678908, Note_off_c, 2, 76, 64
4, 678912, Note_on_c, 2, 74, 80
4, 678912, Note_on_c, 2, 66, 80
4, 679292, Note_off_c, 2, 74, 64
4, 679292, Note_off_c, 2, 66, 64
4, 691200, Note_on_c, 2, 86, 92
4, 691388, Note_off_c, 2, 86, 64
4, 691392, Note_on_c, 2, 74, 92
4, 691580, Note_off_c, 2, 74, 64
4, 691776, Note_on_c, 2, 74, 92
4, 691776, Note_on_c, 2, 62, 92
4, 691964, Note_off_c, 2, 74, 64
4, 691964, Note_off_c, 2, 62, 64
4, 692160, Note_on_c, 2, 74, 92
4, 692160, Note_on_c, 2, 62, 92
4, 692348, Note_off_c, 2, 74, 64
4, 692348, Note_off_c, 2, 62, 64
4, 692544, Note_on_c, 2, 74, 92
4, 692544, Note_on_c, 2, 62, 92
4, 692732, Note_off_c, 2, 74, 64
4, 692732, Note_off_c, 2, 62, 64
4, 692928, Note_on_c, 2, 79, 92
4, 692928, Note_on_c, 2, 67, 92
4, 693116, Note_off_c, 2, 79, 64
4, 693116, Note_off_c, 2, 67, 64
4, 693312, Note_on_c, 2, 74, 92
4, 693500, Note_off_c, 2, 74, 64
4, 693696, Note_on_c, 2, 83, 92
4, 693696, Note_on_c, 2, 71, 92
4, 693884, Note_off_c, 2, 83, 64
4, 693884, Note_off_c, 2, 71, 64
4, 694080, Note_on_c, 2, 74, 92
4, 694268, Note_off_c, 2, 74, 64
4, 694464, Note_on_c, 2, 79, 92
4, 694464, Note_on_c, 2, 67, 92
4, 694652, Note_off_c, 2, 79, 64
4, 694652, Note_off_c, 2, 67, 64
4, 694848, Note_on_c, 2, 74, 92
4, 695036, Note_off_c, 2, 74, 64
4, 695232, Note_on_c, 2, 71, 92
4, 695232, Note_on_c, 2, 86, 92
4, 695420, Note_off_c, 2, 71, 64
4, 695420, Note_off_c, 2, 86, 64
4, 695616, Note_on_c, 2, 74, 92
4, 695804, Note_off_c, 2, 74, 64
4, 696000, Note_on_c, 2, 81, 92
4, 696000, Note_on_c, 2, 69, 92
4, 696188, Note_off_c, 2, 81, 64
4, 696188, Note_off_c, 2, 69, 64
4, 696384, Note_on_c, 2, 74, 92
4, 696572, Note_off_c, 2, 74, 64
4, 696768, Note_on_c, 2, 74, 92
4, 696768, Note_on_c, 2, 83, 92
4, 696956, Note_off_c, 2, 74, 64
4, 696956, Note_off_c, 2, 83, 64
4, 697152, Note_on_c, 2, 74, 92
4, 697340, Note_off_c, 2, 74, 64
4, 697536, Note_on_c, 2, 79, 92
4, 697536, Note_on_c, 2, 67, 92
4, 697724, Note_off_c, 2, 79, 64
4, 697724, Note_off_c, 2, 67, 64
4, 697920, Note_on_c, 2, 74, 92
4, 698108, Note_off_c, 2, 74, 64
4, 698304, Note_on_c, 2, 71, 92
4, 698304, Note_on_c, 2, 86, 92
4, 698492, Note_off_c, 2, 71, 64
4, 698492, Note_off_c, 2, 86, 64
4, 698688, Note_on_c, 2, 74, 92
4, 698876, Note_off_c, 2, 74, 64
4, 699072, Note_on_c, 2, 79, 92
4, 699072, Note_on_c, 2, 67, 92
4, 699260, Note_off_c, 2, 79, 64
4, 699260, Note_off_c, 2, 67, 64
4, 699456, Note_on_c, 2, 74, 92
4, 699644, Note_off_c, 2, 74, 64
4, 699840, Note_on_c, 2, 83, 92
4, 700028, Note_off_c, 2, 83, 64
4, 700224, Note_on_c, 2, 74, 92
4, 700412, Note_off_c, 2, 74, 64
4, 700416, Note_on_c, 2, 81, 71
4, 700416, Note_on_c, 2, 78, 71
4, 700416, Note_on_c, 2, 69, 71
4, 701948, Note_off_c, 2, 81, 64
4, 701948, Note_off_c, 2, 78, 64
4, 701948, Note_off_c, 2, 69, 64
4, 701952, Note_on_c, 2, 79, 71
4, 701952, Note_on_c, 2, 76, 71
4, 703484, Note_off_c, 2, 79, 64
4, 703484, Note_off_c, 2, 76, 64
4, 703488, Note_on_c, 2, 78, 71
4, 703488, Note_on_c, 2, 74, 71
4, 705020, Note_off_c, 2, 78, 64
4, 705020, Note_off_c, 2, 74, 64
4, 705024, Note_on_c, 2, 83, 71
4, 705024, Note_on_c, 2, 76, 71
4, 706556, Note_off_c, 2, 83, 64
4, 706556, Note_off_c, 2, 76, 64
4, 706560, Note_on_c, 2, 74, 71
4, 706560, Note_on_c, 2, 69, 71
4, 706560, Note_on_c, 2, 66, 71
4, 706560, Note_on_c, 2, 62, 71
4, 708092, Note_off_c, 2, 74, 64
4, 708092, Note_off_c, 2, 69, 64
4, 708092, Note_off_c, 2, 66, 64
4, 708092, Note_off_c, 2, 62, 64
4, 708096, Note_on_c, 2, 73, 71
4, 708096, Note_on_c, 2, 67, 71
4, 708096, Note_on_c, 2, 64, 71
4, 708096, Note_on_c, 2, 61, 71
4, 709628, Note_off_c, 2, 73, 64
4, 709628, Note_off_c, 2, 67, 64
4, 709628, Note_off_c, 2, 64, 64
4, 709628, Note_off_c, 2, 61, 64
4, 709632, Note_on_c, 2, 86, 92
4, 709820, Note_off_c, 2, 86, 64
4, 709824, Note_on_c, 2, 74, 92
4, 710012, Note_off_c, 2, 74, 64
4, 710208, Note_on_c, 2, 74, 92
4, 710208, Note_on_c, 2, 62, 92
4, 710396, Note_off_c, 2, 74, 64
4, 710396, Note_off_c, 2, 62, 64
4, 710592, Note_on_c, 2, 74, 92
4, 710592, Note_on_c, 2, 62, 92
4, 710780, Note_off_c, 2, 74, 64
4, 710780, Note_off_c, 2, 62, 64
4, 710976, Note_on_c, 2, 74, 92
4, 710976, Note_on_c, 2, 62, 92
4, 711164, Note_off_c, 2, 74, 64
4, 711164, Note_off_c, 2, 62, 64
4, 711360, Note_on_c, 2, 79, 92
4, 711360, Note_on_c, 2, 67, 92
4, 711548, Note_off_c, 2, 79, 64
4, 711548, Note_off_c, 2, 67, 64
4, 711744, Note_on_c, 2, 74, 92
4, 711932, Note_off_c, 2, 74, 64
4, 712128, Note_on_c, 2, 83, 92
4, 712128, Note_on_c, 2, 71, 92
4, 712316, Note_off_c, 2, 83, 64
4, 712316, Note_off_c, 2, 71, 64
4, 712512, Note_on_c, 2, 74, 92
4, 712700, Note_off_c, 2, 74, 64
4, 712896, Note_on_c, 2, 81, 92
4, 712896, Note_on_c, 2, 69, 92
4, 713084, Note_off_c, 2, 81, 64
4, 713084, Note_off_c, 2, 69, 64
4, 713280, Note_on_c, 2, 74, 92
4, 713468, Note_off_c, 2, 74, 64
4, 713664, Note_on_c, 2, 86, 92
4, 713664, Note_on_c, 2, 74, 92
4, 713852, Note_off_c, 2, 86, 64
4, 713852, Note_off_c, 2, 74, 64
4, 714048, Note_on_c, 2, 74, 92
4, 714236, Note_off_c, 2, 74, 64
4, 714432, Note_on_c, 2, 79, 92
4, 714432, Note_on_c, 2, 67, 92
4, 714620, Note_off_c, 2, 79, 64
4, 714620, Note_off_c, 2, 67, 64
4, 714816, Note_on_c, 2, 74, 92
4, 715004, Note_off_c, 2, 74, 64
4, 715200, Note_on_c, 2, 83, 92
4, 715200, Note_on_c, 2, 71, 92
4, 715388, Note_off_c, 2, 83, 64
4, 715388, Note_off_c, 2, 71, 64
4, 715584, Note_on_c, 2, 74, 92
4, 715772, Note_off_c, 2, 74, 64
4, 715968, Note_on_c, 2, 81, 92
4, 715968, Note_on_c, 2, 69, 92
4, 716156, Note_off_c, 2, 81, 64
4, 716156, Note_off_c, 2, 69, 64
4, 716352, Note_on_c, 2, 74, 92
4, 716540, Note_off_c, 2, 74, 64
4, 716736, Note_on_c, 2, 86, 92
4, 716736, Note_on_c, 2, 74, 92
4, 716924, Note_off_c, 2, 86, 64
4, 716924, Note_off_c, 2, 74, 64
4, 717120, Note_on_c, 2, 74, 92
4, 717308, Note_off_c, 2, 74, 64
4, 717504, Note_on_c, 2, 79, 92
4, 717504, Note_on_c, 2, 67, 92
4, 717692, Note_off_c, 2, 79, 64
4, 717692, Note_off_c, 2, 67, 64
4, 717888, Note_on_c, 2, 74, 92
4, 718076, Note_off_c, 2, 74, 64
4, 718272, Note_on_c, 2, 83, 92
4, 718272, Note_on_c, 2, 71, 92
4, 718460, Note_off_c, 2, 83, 64
4, 718460, Note_off_c, 2, 71, 64
4, 718656, Note_on_c, 2, 74, 92
4, 718844, Note_off_c, 2, 74, 64
4, 718848, Note_on_c, 2, 81, 71
4, 718848, Note_on_c, 2, 78, 71
4, 718848, Note_on_c, 2, 69, 71
4, 720380, Note_off_c, 2, 81, 64
4, 720380, Note_off_c, 2, 78, 64
4, 720380, Note_off_c, 2, 69, 64
4, 720384, Note_on_c, 2, 79, 71
4, 720384, Note_on_c, 2, 76, 71
4, 721916, Note_off_c, 2, 79, 64
4, 721916, Note_off_c, 2, 76, 64
4, 721920, Note_on_c, 2, 78, 71
4, 721920, Note_on_c, 2, 74, 71
4, 723452, Note_off_c, 2, 78, 64
4, 723452, Note_off_c, 2, 74, 64
4, 723456, Note_on_c, 2, 83, 71
4, 723456, Note_on_c, 2, 76, 71
4, 724988, Note_off_c, 2, 83, 64
4, 724988, Note_off_c, 2, 76, 64
4, 724992, Note_on_c, 2, 74, 71
4, 724992, Note_on_c, 2, 69, 71
4, 724992, Note_on_c, 2, 66, 71
4, 724992, Note_on_c, 2, 62, 71
4, 726524, Note_off_c, 2, 74, 64
4, 726524, Note_off_c, 2, 69, 64
4, 726524, Note_off_c, 2, 66, 64
4, 726524, Note_off_c, 2, 62, 64
4, 726528, Note_on_c, 2, 73, 71
4, 726528, Note_on_c, 2, 67, 71
4, 726528, Note_on_c, 2, 64, 71
4, 726528, Note_on_c, 2, 61, 71
4, 728060, Note_off_c, 2, 73, 64
4, 728060, Note_off_c, 2, 67, 64
4, 728060, Note_off_c, 2, 64, 64
4, 728060, Note_off_c, 2, 61, 64
4, 728064, Note_on_c, 2, 74, 71
4, 728064, Note_on_c, 2, 66, 71
4, 728064, Note_on_c, 2, 62, 71
4, 728444, Note_off_c, 2, 74, 64
4, 728444, Note_off_c, 2, 66, 64
4, 728444, Note_off_c, 2, 62, 64
4, 729600, Note_on_c, 2, 81, 71
4, 729600, Note_on_c, 2, 69, 71
4, 730748, Note_off_c, 2, 81, 64
4, 730748, Note_off_c, 2, 69, 64
4, 730752, Note_on_c, 2, 76, 71
4, 731132, Note_off_c, 2, 76, 64
4, 731136, Note_on_c, 2, 76, 71
4, 731516, Note_off_c, 2, 76, 64
4, 731520, Note_on_c, 2, 78, 71
4, 731708, Note_off_c, 2, 78, 64
4, 731904, Note_on_c, 2, 74, 71
4, 732668, Note_off_c, 2, 74, 64
4, 732672, Note_on_c, 2, 81, 71
4, 732672, Note_on_c, 2, 69, 71
4, 733820, Note_off_c, 2, 81, 64
4, 733820, Note_off_c, 2, 69, 64
4, 734208, Note_on_c, 2, 86, 71
4, 734396, Note_off_c, 2, 86, 64
4, 734400, Note_on_c, 2, 85, 71
4, 734588, Note_off_c, 2, 85, 64
4, 734592, Note_on_c, 2, 86, 71
4, 734780, Note_off_c, 2, 86, 64
4, 734784, Note_on_c, 2, 88, 71
4, 734972, Note_off_c, 2, 88, 64
4, 734976, Note_on_c, 2, 90, 71
4, 734976, Note_on_c, 2, 78, 71
4, 735356, Note_off_c, 2, 90, 64
4, 735356, Note_off_c, 2, 78, 64
4, 735744, Note_on_c, 2, 81, 71
4, 735744, Note_on_c, 2, 69, 71
4, 736892, Note_off_c, 2, 81, 64
4, 736892, Note_off_c, 2, 69, 64
4, 736896, Note_on_c, 2, 76, 71
4, 737276, Note_off_c, 2, 76, 64
4, 737280, Note_on_c, 2, 76, 71
4, 737660, Note_off_c, 2, 76, 64
4, 737664, Note_on_c, 2, 78, 71
4, 737852, Note_off_c, 2, 78, 64
4, 738048, Note_on_c, 2, 74, 71
4, 738812, Note_off_c, 2, 74, 64
4, 738816, Note_on_c, 2, 69, 71
4, 738816, Note_on_c, 2, 57, 71
4, 739196, Note_off_c, 2, 69, 64
4, 739196, Note_off_c, 2, 57, 64
4, 739200, Note_on_c, 2, 69, 71
4, 739200, Note_on_c, 2, 57, 71
4, 739580, Note_off_c, 2, 69, 64
4, 739580, Note_off_c, 2, 57, 64
4, 739584, Note_on_c, 2, 69, 71
4, 739584, Note_on_c, 2, 57, 71
4, 739964, Note_off_c, 2, 69, 64
4, 739964, Note_off_c, 2, 57, 64
4, 739968, Note_on_c, 2, 69, 71
4, 739968, Note_on_c, 2, 57, 71
4, 740348, Note_off_c, 2, 69, 64
4, 740348, Note_off_c, 2, 57, 64
4, 740352, Note_on_c, 2, 66, 71
4, 741116, Note_off_c, 2, 66, 64
4, 741120, Note_on_c, 2, 62, 71
4, 741884, Note_off_c, 2, 62, 64
4, 741888, Note_on_c, 2, 81, 71
4, 741888, Note_on_c, 2, 69, 71
4, 743036, Note_off_c, 2, 81, 64
4, 743036, Note_off_c, 2, 69, 64
4, 743040, Note_on_c, 2, 76, 71
4, 743420, Note_off_c, 2, 76, 64
4, 743424, Note_on_c, 2, 76, 71
4, 743424, Note_on_c, 2, 69, 71
4, 743804, Note_off_c, 2, 76, 64
4, 743804, Note_off_c, 2, 69, 64
4, 743808, Note_on_c, 2, 78, 71
4, 743996, Note_off_c, 2, 78, 64
4, 744192, Note_on_c, 2, 74, 71
4, 744956, Note_off_c, 2, 74, 64
4, 744960, Note_on_c, 2, 81, 71
4, 744960, Note_on_c, 2, 69, 71
4, 746108, Note_off_c, 2, 81, 64
4, 746108, Note_off_c, 2, 69, 64
4, 746112, Note_on_c, 2, 85, 71
4, 746492, Note_off_c, 2, 85, 64
4, 746496, Note_on_c, 2, 81, 71
4, 746496, Note_on_c, 2, 86, 71
4, 746684, Note_off_c, 2, 81, 64
4, 746684, Note_off_c, 2, 86, 64
4, 746688, Note_on_c, 2, 85, 71
4, 746876, Note_off_c, 2, 85, 64
4, 746880, Note_on_c, 2, 86, 71
4, 747068, Note_off_c, 2, 86, 64
4, 747072, Note_on_c, 2, 88, 71
4, 747260, Note_off_c, 2, 88, 64
4, 747264, Note_on_c, 2, 90, 71
4, 747264, Note_on_c, 2, 78, 71
4, 747644, Note_off_c, 2, 90, 64
4, 747644, Note_off_c, 2, 78, 64
4, 748032, Note_on_c, 2, 81, 71
4, 748032, Note_on_c, 2, 69, 71
4, 749180, Note_off_c, 2, 81, 64
4, 749180, Note_off_c, 2, 69, 64
4, 749184, Note_on_c, 2, 76, 71
4, 749564, Note_off_c, 2, 76, 64
4, 749568, Note_on_c, 2, 76, 71
4, 749568, Note_on_c, 2, 69, 71
4, 749948, Note_off_c, 2, 76, 64
4, 749948, Note_off_c, 2, 69, 64
4, 749952, Note_on_c, 2, 78, 71
4, 750140, Note_off_c, 2, 78, 64
4, 750336, Note_on_c, 2, 74, 71
4, 751100, Note_off_c, 2, 74, 64
4, 751104, Note_on_c, 2, 69, 71
4, 751484, Note_off_c, 2, 69, 64
4, 751488, Note_on_c, 2, 69, 71
4, 751868, Note_off_c, 2, 69, 64
4, 751872, Note_on_c, 2, 69, 71
4, 752252, Note_off_c, 2, 69, 64
4, 752256, Note_on_c, 2, 69, 71
4, 752636, Note_off_c, 2, 69, 64
4, 752640, Note_on_c, 2, 66, 71
4, 753404, Note_off_c, 2, 66, 64
4, 753408, Note_on_c, 2, 62, 71
4, 754172, Note_off_c, 2, 62, 64
4, 754176, Note_on_c, 2, 81, 71
4, 754176, Note_on_c, 2, 69, 71
4, 754556, Note_off_c, 2, 81, 64
4, 754556, Note_off_c, 2, 69, 64
4, 754560, Note_on_c, 2, 81, 71
4, 754560, Note_on_c, 2, 69, 71
4, 754940, Note_off_c, 2, 81, 64
4, 754940, Note_off_c, 2, 69, 64
4, 754944, Note_on_c, 2, 81, 71
4, 754944, Note_on_c, 2, 69, 71
4, 755324, Note_off_c, 2, 81, 64
4, 755324, Note_off_c, 2, 69, 64
4, 755328, Note_on_c, 2, 81, 71
4, 755328, Note_on_c, 2, 69, 71
4, 755708, Note_off_c, 2, 81, 64
4, 755708, Note_off_c, 2, 69, 64
4, 755712, Note_on_c, 2, 78, 73
4, 755712, Note_on_c, 2, 66, 73
4, 756476, Note_off_c, 2, 78, 64
4, 756476, Note_off_c, 2, 66, 64
4, 756480, Note_on_c, 2, 86, 92
4, 756480, Note_on_c, 2, 81, 90
4, 756480, Note_on_c, 2, 78, 88
4, 756480, Note_on_c, 2, 74, 85
4, 757244, Note_off_c, 2, 86, 64
4, 757244, Note_off_c, 2, 81, 64
4, 757244, Note_off_c, 2, 78, 64
4, 757244, Note_off_c, 2, 74, 64
4, 758016, Note_on_c, 2, 85, 92
4, 758016, Note_on_c, 2, 81, 90
4, 758016, Note_on_c, 2, 76, 88
4, 758016, Note_on_c, 2, 73, 85
4, 758780, Note_off_c, 2, 85, 64
4, 758780, Note_off_c, 2, 81, 64
4, 758780, Note_off_c, 2, 76, 64
4, 758780, Note_off_c, 2, 73, 64
4, 760320, Note_on_c, 2, 81, 71
4, 760320, Note_on_c, 2, 69, 71
4, 760700, Note_off_c, 2, 81, 64
4, 760700, Note_off_c, 2, 69, 64
4, 760704, Note_on_c, 2, 81, 71
4, 760704, Note_on_c, 2, 69, 71
4, 761084, Note_off_c, 2, 81, 64
4, 761084, Note_off_c, 2, 69, 64
4, 761088, Note_on_c, 2, 81, 71
4, 761088, Note_on_c, 2, 69, 71
4, 761468, Note_off_c, 2, 81, 64
4, 761468, Note_off_c, 2, 69, 64
4, 761472, Note_on_c, 2, 81, 71
4, 761472, Note_on_c, 2, 69, 71
4, 761852, Note_off_c, 2, 81, 64
4, 761852, Note_off_c, 2, 69, 64
4, 761856, Note_on_c, 2, 78, 71
4, 761856, Note_on_c, 2, 66, 71
4, 762620, Note_off_c, 2, 78, 64
4, 762620, Note_off_c, 2, 66, 64
4, 762624, Note_on_c, 2, 81, 96
4, 762624, Note_on_c, 2, 78, 96
4, 762624, Note_on_c, 2, 74, 96
4, 762624, Note_on_c, 2, 86, 96
4, 763388, Note_off_c, 2, 81, 64
4, 763388, Note_off_c, 2, 78, 64
4, 763388, Note_off_c, 2, 74, 64
4, 763388, Note_off_c, 2, 86, 64
4, 764160, Note_on_c, 2, 85, 96
4, 764160, Note_on_c, 2, 81, 96
4, 764160, Note_on_c, 2, 76, 96
4, 764160, Note_on_c, 2, 73, 96
4, 764924, Note_off_c, 2, 85, 64
4, 764924, Note_off_c, 2, 81, 64
4, 764924, Note_off_c, 2, 76, 64
4, 764924, Note_off_c, 2, 73, 64
4, 764928, Note_on_c, 2, 66, 71
4, 764928, Note_on_c, 2, 62, 71
4, 765692, Note_off_c, 2, 66, 64
4, 765692, Note_off_c, 2, 62, 64
4, 765696, Note_on_c, 2, 62, 71
4, 766460, Note_off_c, 2, 62, 64
4, 766464, Note_on_c, 2, 67, 71
4, 766844, Note_off_c, 2, 67, 64
4, 766848, Note_on_c, 2, 67, 71
4, 767228, Note_off_c, 2, 67, 64
4, 767232, Note_on_c, 2, 67, 71
4, 767612, Note_off_c, 2, 67, 64
4, 767616, Note_on_c, 2, 67, 71
4, 767996, Note_off_c, 2, 67, 64
4, 768000, Note_on_c, 2, 74, 71
4, 768000, Note_on_c, 2, 66, 71
4, 768380, Note_off_c, 2, 74, 64
4, 768384, Note_on_c, 2, 74, 71
4, 768764, Note_off_c, 2, 66, 64
4, 768764, Note_off_c, 2, 74, 64
4, 768768, Note_on_c, 2, 74, 71
4, 768768, Note_on_c, 2, 62, 71
4, 769148, Note_off_c, 2, 74, 64
4, 769152, Note_on_c, 2, 74, 71
4, 769532, Note_off_c, 2, 62, 64
4, 769532, Note_off_c, 2, 74, 64
4, 769536, Note_on_c, 2, 79, 71
4, 769536, Note_on_c, 2, 71, 71
4, 769916, Note_off_c, 2, 79, 64
4, 769920, Note_on_c, 2, 79, 71
4, 770300, Note_off_c, 2, 71, 64
4, 770300, Note_off_c, 2, 79, 64
4, 770304, Note_on_c, 2, 79, 71
4, 770304, Note_on_c, 2, 67, 71
4, 770684, Note_off_c, 2, 79, 64
4, 770688, Note_on_c, 2, 79, 71
4, 771068, Note_off_c, 2, 67, 64
4, 771068, Note_off_c, 2, 79, 64
4, 771072, Note_on_c, 2, 78, 71
4, 771072, Note_on_c, 2, 86, 71
4, 771452, Note_off_c, 2, 86, 64
4, 771456, Note_on_c, 2, 86, 71
4, 771836, Note_off_c, 2, 78, 64
4, 771836, Note_off_c, 2, 86, 64
4, 771840, Note_on_c, 2, 86, 71
4, 771840, Note_on_c, 2, 74, 71
4, 772220, Note_off_c, 2, 86, 64
4, 772224, Note_on_c, 2, 86, 71
4, 772604, Note_off_c, 2, 86, 64
4, 772608, Note_on_c, 2, 83, 71
4, 773372, Note_off_c, 2, 83, 64
4, 773376, Note_on_c, 2, 79, 67
4, 773376, Note_on_c, 2, 67, 67
4, 774140, Note_off_c, 2, 74, 64
4, 774140, Note_off_c, 2, 79, 64
4, 774140, Note_off_c, 2, 67, 64
4, 774144, Note_on_c, 2, 73, 92
4, 774332, Note_off_c, 2, 73, 64
4, 774336, Note_on_c, 2, 71, 92
4, 774524, Note_off_c, 2, 71, 64
4, 774528, Note_on_c, 2, 69, 92
4, 774716, Note_off_c, 2, 69, 64
4, 774720, Note_on_c, 2, 71, 92
4, 774908, Note_off_c, 2, 71, 64
4, 774912, Note_on_c, 2, 73, 92
4, 775100, Note_off_c, 2, 73, 64
4, 775104, Note_on_c, 2, 74, 92
4, 775292, Note_off_c, 2, 74, 64
4, 775296, Note_on_c, 2, 76, 92
4, 775484, Note_off_c, 2, 76, 64
4, 775488, Note_on_c, 2, 78, 92
4, 775676, Note_off_c, 2, 78, 64
4, 775680, Note_on_c, 2, 79, 92
4, 775868, Note_off_c, 2, 79, 64
4, 775872, Note_on_c, 2, 78, 92
4, 776060, Note_off_c, 2, 78, 64
4, 776064, Note_on_c, 2, 76, 92
4, 776252, Note_off_c, 2, 76, 64
4, 776256, Note_on_c, 2, 78, 92
4, 776444, Note_off_c, 2, 78, 64
4, 776448, Note_on_c, 2, 79, 92
4, 776636, Note_off_c, 2, 79, 64
4, 776640, Note_on_c, 2, 81, 92
4, 776828, Note_off_c, 2, 81, 64
4, 776832, Note_on_c, 2, 83, 92
4, 777020, Note_off_c, 2, 83, 64
4, 777024, Note_on_c, 2, 85, 92
4, 777212, Note_off_c, 2, 85, 64
4, 777216, Note_on_c, 2, 86, 92
4, 777216, Note_on_c, 2, 74, 92
4, 777596, Note_off_c, 2, 86, 64
4, 777596, Note_off_c, 2, 74, 64
4, 778752, Note_on_c, 2, 81, 92
4, 778752, Note_on_c, 2, 76, 92
4, 778752, Note_on_c, 2, 73, 92
4, 778752, Note_on_c, 2, 69, 92
4, 779132, Note_off_c, 2, 81, 64
4, 779132, Note_off_c, 2, 76, 64
4, 779132, Note_off_c, 2, 73, 64
4, 779132, Note_off_c, 2, 69, 64
4, 780384, Note_on_c, 2, 78, 90
4, 780384, Note_on_c, 2, 74, 90
4, 780384, Note_on_c, 2, 69, 90
4, 780384, Note_on_c, 2, 66, 90
4, 780764, Note_off_c, 2, 78, 64
4, 780764, Note_off_c, 2, 74, 64
4, 780764, Note_off_c, 2, 69, 64
4, 780764, Note_off_c, 2, 66, 64
4, 780764, End_track
5, 0, Start_track
5, 0, Title_t, "B.Fisher"
5, 0, Control_c, 3, 0, 0
5, 0, Program_c, 3, 48
5, 0, Control_c, 3, 7, 90
5, 0, Control_c, 3, 10, 102
5, 0, Control_c, 3, 91, 63
5, 0, Control_c, 3, 93, 53
5, 0, Key_signature, -1, "minor"
5, 0, Control_c, 3, 121, 0
5, 144, Control_c, 3, 10, 73
5, 192, Control_c, 3, 91, 63
5, 288, Program_c, 3, 48
5, 23424, Note_on_c, 3, 65, 88
5, 23424, Note_on_c, 3, 53, 88
5, 23804, Note_off_c, 3, 65, 64
5, 23804, Note_off_c, 3, 53, 64
5, 23808, Note_on_c, 3, 64, 88
5, 23808, Note_on_c, 3, 52, 88
5, 24188, Note_off_c, 3, 64, 64
5, 24188, Note_off_c, 3, 52, 64
5, 24192, Note_on_c, 3, 62, 88
5, 24192, Note_on_c, 3, 50, 88
5, 24572, Note_off_c, 3, 62, 64
5, 24572, Note_off_c, 3, 50, 64
5, 24576, Note_on_c, 3, 61, 88
5, 24576, Note_on_c, 3, 49, 88
5, 26108, Note_off_c, 3, 61, 64
5, 26108, Note_off_c, 3, 49, 64
5, 26112, Note_on_c, 3, 62, 88
5, 26112, Note_on_c, 3, 50, 88
5, 26492, Note_off_c, 3, 62, 64
5, 26492, Note_off_c, 3, 50, 64
5, 26496, Note_on_c, 3, 60, 88
5, 26496, Note_on_c, 3, 48, 88
5, 26876, Note_off_c, 3, 60, 64
5, 26876, Note_off_c, 3, 48, 64
5, 26880, Note_on_c, 3, 58, 88
5, 26880, Note_on_c, 3, 46, 88
5, 27260, Note_off_c, 3, 58, 64
5, 27260, Note_off_c, 3, 46, 64
5, 27264, Note_on_c, 3, 55, 88
5, 27264, Note_on_c, 3, 43, 88
5, 27644, Note_off_c, 3, 55, 64
5, 27644, Note_off_c, 3, 43, 64
5, 27648, Note_on_c, 3, 54, 88
5, 27648, Note_on_c, 3, 42, 89
5, 29180, Note_off_c, 3, 54, 64
5, 29180, Note_off_c, 3, 42, 64
5, 29184, Note_on_c, 3, 55, 88
5, 29184, Note_on_c, 3, 43, 88
5, 29564, Note_off_c, 3, 55, 64
5, 29564, Note_off_c, 3, 43, 64
5, 29568, Note_on_c, 3, 58, 88
5, 29568, Note_on_c, 3, 46, 88
5, 29948, Note_off_c, 3, 58, 64
5, 29948, Note_off_c, 3, 46, 64
5, 29952, Note_on_c, 3, 55, 88
5, 29952, Note_on_c, 3, 43, 88
5, 30332, Note_off_c, 3, 55, 64
5, 30332, Note_off_c, 3, 43, 64
5, 30336, Note_on_c, 3, 53, 88
5, 30336, Note_on_c, 3, 41, 89
5, 30716, Note_off_c, 3, 53, 64
5, 30716, Note_off_c, 3, 41, 64
5, 30720, Note_on_c, 3, 52, 88
5, 30720, Note_on_c, 3, 40, 90
5, 31100, Note_off_c, 3, 52, 64
5, 31100, Note_off_c, 3, 40, 64
5, 31296, Note_on_c, 3, 48, 88
5, 31484, Note_off_c, 3, 48, 64
5, 31488, Note_on_c, 3, 52, 88
5, 31676, Note_off_c, 3, 52, 64
5, 31680, Note_on_c, 3, 55, 88
5, 31868, Note_off_c, 3, 55, 64
5, 31872, Note_on_c, 3, 60, 88
5, 32060, Note_off_c, 3, 60, 64
5, 32064, Note_on_c, 3, 64, 88
5, 32252, Note_off_c, 3, 64, 64
5, 32256, Note_on_c, 3, 65, 88
5, 32636, Note_off_c, 3, 65, 64
5, 32640, Note_on_c, 3, 41, 89
5, 32640, Note_on_c, 3, 53, 88
5, 33404, Note_off_c, 3, 41, 64
5, 33404, Note_off_c, 3, 53, 64
5, 33408, Note_on_c, 3, 52, 88
5, 33408, Note_on_c, 3, 40, 90
5, 33788, Note_off_c, 3, 52, 64
5, 33788, Note_off_c, 3, 40, 64
5, 33792, Note_on_c, 3, 50, 88
5, 33792, Note_on_c, 3, 38, 91
5, 34172, Note_off_c, 3, 50, 64
5, 34172, Note_off_c, 3, 38, 64
5, 34368, Note_on_c, 3, 46, 88
5, 34556, Note_off_c, 3, 46, 64
5, 34560, Note_on_c, 3, 50, 88
5, 34748, Note_off_c, 3, 50, 64
5, 34752, Note_on_c, 3, 53, 88
5, 34940, Note_off_c, 3, 53, 64
5, 34944, Note_on_c, 3, 58, 88
5, 35132, Note_off_c, 3, 58, 64
5, 35136, Note_on_c, 3, 62, 88
5, 35324, Note_off_c, 3, 62, 64
5, 35328, Note_on_c, 3, 65, 88
5, 35328, Note_on_c, 3, 53, 88
5, 35708, Note_off_c, 3, 65, 64
5, 35708, Note_off_c, 3, 53, 64
5, 35712, Note_on_c, 3, 64, 88
5, 35712, Note_on_c, 3, 52, 88
5, 36476, Note_off_c, 3, 64, 64
5, 36476, Note_off_c, 3, 52, 64
5, 36480, Note_on_c, 3, 62, 88
5, 36480, Note_on_c, 3, 50, 88
5, 36860, Note_off_c, 3, 62, 64
5, 36860, Note_off_c, 3, 50, 64
5, 36864, Note_on_c, 3, 61, 88
5, 36864, Note_on_c, 3, 49, 88
5, 37244, Note_off_c, 3, 61, 64
5, 37244, Note_off_c, 3, 49, 64
5, 37440, Note_on_c, 3, 45, 88
5, 37628, Note_off_c, 3, 45, 64
5, 37632, Note_on_c, 3, 49, 88
5, 37820, Note_off_c, 3, 49, 64
5, 37824, Note_on_c, 3, 52, 88
5, 38012, Note_off_c, 3, 52, 64
5, 38016, Note_on_c, 3, 57, 88
5, 38204, Note_off_c, 3, 57, 64
5, 38208, Note_on_c, 3, 61, 88
5, 38396, Note_off_c, 3, 61, 64
5, 38400, Note_on_c, 3, 62, 88
5, 38400, Note_on_c, 3, 50, 88
5, 38780, Note_off_c, 3, 62, 64
5, 38780, Note_off_c, 3, 50, 64
5, 38784, Note_on_c, 3, 50, 88
5, 38784, Note_on_c, 3, 38, 91
5, 39548, Note_off_c, 3, 50, 64
5, 39548, Note_off_c, 3, 38, 64
5, 39552, Note_on_c, 3, 48, 88
5, 39552, Note_on_c, 3, 36, 92
5, 39932, Note_off_c, 3, 48, 64
5, 39932, Note_off_c, 3, 36, 64
5, 39936, Note_on_c, 3, 47, 88
5, 39936, Note_on_c, 3, 34, 93
5, 40316, Note_off_c, 3, 47, 64
5, 40316, Note_off_c, 3, 34, 64
5, 40320, Note_on_c, 3, 43, 88
5, 40320, Note_on_c, 3, 55, 88
5, 41084, Note_off_c, 3, 43, 64
5, 41084, Note_off_c, 3, 55, 64
5, 41088, Note_on_c, 3, 53, 88
5, 41088, Note_on_c, 3, 41, 89
5, 41468, Note_off_c, 3, 53, 64
5, 41468, Note_off_c, 3, 41, 64
5, 41472, Note_on_c, 3, 52, 88
5, 41472, Note_on_c, 3, 40, 90
5, 41852, Note_off_c, 3, 52, 64
5, 41852, Note_off_c, 3, 40, 64
5, 41856, Note_on_c, 3, 64, 88
5, 41856, Note_on_c, 3, 52, 88
5, 42620, Note_off_c, 3, 64, 64
5, 42620, Note_off_c, 3, 52, 64
5, 42624, Note_on_c, 3, 62, 88
5, 42624, Note_on_c, 3, 50, 88
5, 43004, Note_off_c, 3, 62, 64
5, 43004, Note_off_c, 3, 50, 64
5, 43008, Note_on_c, 3, 49, 88
5, 43008, Note_on_c, 3, 61, 88
5, 43388, Note_off_c, 3, 49, 64
5, 43392, Note_on_c, 3, 57, 88
5, 43772, Note_off_c, 3, 61, 64
5, 43776, Note_on_c, 3, 62, 88
5, 43776, Note_on_c, 3, 50, 88
5, 44156, Note_off_c, 3, 57, 64
5, 44156, Note_off_c, 3, 62, 64
5, 44156, Note_off_c, 3, 50, 64
5, 44160, Note_on_c, 3, 58, 88
5, 44160, Note_on_c, 3, 46, 88
5, 44540, Note_off_c, 3, 58, 64
5, 44540, Note_off_c, 3, 46, 64
5, 44544, Note_on_c, 3, 57, 88
5, 44544, Note_on_c, 3, 45, 88
5, 44924, Note_off_c, 3, 57, 64
5, 44924, Note_off_c, 3, 45, 64
5, 44928, Note_on_c, 3, 49, 88
5, 44928, Note_on_c, 3, 61, 88
5, 45308, Note_off_c, 3, 49, 64
5, 45308, Note_off_c, 3, 61, 64
5, 45312, Note_on_c, 3, 50, 88
5, 45312, Note_on_c, 3, 62, 88
5, 45692, Note_off_c, 3, 50, 64
5, 45692, Note_off_c, 3, 62, 64
5, 45696, Note_on_c, 3, 46, 88
5, 45696, Note_on_c, 3, 56, 88
5, 46076, Note_off_c, 3, 46, 64
5, 46076, Note_off_c, 3, 56, 64
5, 46080, Note_on_c, 3, 45, 88
5, 46080, Note_on_c, 3, 57, 88
5, 46460, Note_off_c, 3, 45, 64
5, 46460, Note_off_c, 3, 57, 64
5, 46464, Note_on_c, 3, 57, 88
5, 46652, Note_off_c, 3, 57, 64
5, 46656, Note_on_c, 3, 57, 88
5, 46844, Note_off_c, 3, 57, 64
5, 46848, Note_on_c, 3, 55, 88
5, 47036, Note_off_c, 3, 55, 64
5, 47040, Note_on_c, 3, 53, 88
5, 47228, Note_off_c, 3, 53, 64
5, 47232, Note_on_c, 3, 52, 88
5, 47420, Note_off_c, 3, 52, 64
5, 47424, Note_on_c, 3, 50, 88
5, 47612, Note_off_c, 3, 50, 64
5, 47616, Note_on_c, 3, 45, 88
5, 47616, Note_on_c, 3, 57, 88
5, 47996, Note_off_c, 3, 45, 64
5, 47996, Note_off_c, 3, 57, 64
5, 50688, Note_on_c, 3, 59, 88
5, 50876, Note_off_c, 3, 59, 64
5, 50880, Note_on_c, 3, 57, 88
5, 51068, Note_off_c, 3, 57, 64
5, 51072, Note_on_c, 3, 59, 88
5, 51260, Note_off_c, 3, 59, 64
5, 51264, Note_on_c, 3, 57, 88
5, 51452, Note_off_c, 3, 57, 64
5, 51456, Note_on_c, 3, 60, 88
5, 51644, Note_off_c, 3, 60, 64
5, 51648, Note_on_c, 3, 57, 88
5, 51836, Note_off_c, 3, 57, 64
5, 51840, Note_on_c, 3, 60, 88
5, 52028, Note_off_c, 3, 60, 64
5, 52032, Note_on_c, 3, 57, 88
5, 52220, Note_off_c, 3, 57, 64
5, 52224, Note_on_c, 3, 61, 88
5, 52412, Note_off_c, 3, 61, 64
5, 52416, Note_on_c, 3, 57, 88
5, 52604, Note_off_c, 3, 57, 64
5, 52608, Note_on_c, 3, 61, 88
5, 52796, Note_off_c, 3, 61, 64
5, 52800, Note_on_c, 3, 57, 88
5, 52988, Note_off_c, 3, 57, 64
5, 52992, Note_on_c, 3, 61, 88
5, 53180, Note_off_c, 3, 61, 64
5, 53184, Note_on_c, 3, 57, 88
5, 53372, Note_off_c, 3, 57, 64
5, 53376, Note_on_c, 3, 61, 88
5, 53564, Note_off_c, 3, 61, 64
5, 53568, Note_on_c, 3, 57, 88
5, 53756, Note_off_c, 3, 57, 64
5, 53760, Note_on_c, 3, 62, 88
5, 53948, Note_off_c, 3, 62, 64
5, 53952, Note_on_c, 3, 57, 88
5, 54140, Note_off_c, 3, 57, 64
5, 54144, Note_on_c, 3, 62, 88
5, 54332, Note_off_c, 3, 62, 64
5, 54336, Note_on_c, 3, 57, 88
5, 54524, Note_off_c, 3, 57, 64
5, 54528, Note_on_c, 3, 63, 88
5, 54716, Note_off_c, 3, 63, 64
5, 54720, Note_on_c, 3, 57, 88
5, 54908, Note_off_c, 3, 57, 64
5, 54912, Note_on_c, 3, 63, 88
5, 55100, Note_off_c, 3, 63, 64
5, 55104, Note_on_c, 3, 57, 88
5, 55292, Note_off_c, 3, 57, 64
5, 55296, Note_on_c, 3, 64, 88
5, 55484, Note_off_c, 3, 64, 64
5, 55488, Note_on_c, 3, 57, 88
5, 55676, Note_off_c, 3, 57, 64
5, 55680, Note_on_c, 3, 64, 88
5, 55868, Note_off_c, 3, 64, 64
5, 55872, Note_on_c, 3, 57, 88
5, 56060, Note_off_c, 3, 57, 64
5, 56064, Note_on_c, 3, 64, 88
5, 56252, Note_off_c, 3, 64, 64
5, 56256, Note_on_c, 3, 57, 88
5, 56444, Note_off_c, 3, 57, 64
5, 56448, Note_on_c, 3, 64, 88
5, 56636, Note_off_c, 3, 64, 64
5, 56640, Note_on_c, 3, 57, 88
5, 56828, Note_off_c, 3, 57, 64
5, 56832, Note_on_c, 3, 65, 88
5, 57020, Note_off_c, 3, 65, 64
5, 57024, Note_on_c, 3, 57, 88
5, 57212, Note_off_c, 3, 57, 64
5, 57216, Note_on_c, 3, 65, 88
5, 57404, Note_off_c, 3, 65, 64
5, 57408, Note_on_c, 3, 57, 88
5, 57596, Note_off_c, 3, 57, 64
5, 57600, Note_on_c, 3, 66, 88
5, 57788, Note_off_c, 3, 66, 64
5, 57792, Note_on_c, 3, 57, 88
5, 57980, Note_off_c, 3, 57, 64
5, 57984, Note_on_c, 3, 66, 88
5, 58172, Note_off_c, 3, 66, 64
5, 58176, Note_on_c, 3, 57, 88
5, 58364, Note_off_c, 3, 57, 64
5, 58368, Note_on_c, 3, 67, 88
5, 58556, Note_off_c, 3, 67, 64
5, 58560, Note_on_c, 3, 57, 88
5, 58748, Note_off_c, 3, 57, 64
5, 58752, Note_on_c, 3, 67, 88
5, 58940, Note_off_c, 3, 67, 64
5, 58944, Note_on_c, 3, 57, 88
5, 59132, Note_off_c, 3, 57, 64
5, 59136, Note_on_c, 3, 63, 88
5, 59324, Note_off_c, 3, 63, 64
5, 59328, Note_on_c, 3, 57, 88
5, 59516, Note_off_c, 3, 57, 64
5, 59520, Note_on_c, 3, 63, 88
5, 59708, Note_off_c, 3, 63, 64
5, 59712, Note_on_c, 3, 57, 88
5, 59900, Note_off_c, 3, 57, 64
5, 59904, Note_on_c, 3, 64, 88
5, 60092, Note_off_c, 3, 64, 64
5, 60096, Note_on_c, 3, 57, 88
5, 60284, Note_off_c, 3, 57, 64
5, 60288, Note_on_c, 3, 64, 88
5, 60476, Note_off_c, 3, 64, 64
5, 60480, Note_on_c, 3, 57, 88
5, 60668, Note_off_c, 3, 57, 64
5, 60672, Note_on_c, 3, 62, 88
5, 60860, Note_off_c, 3, 62, 64
5, 60864, Note_on_c, 3, 57, 88
5, 61052, Note_off_c, 3, 57, 64
5, 61056, Note_on_c, 3, 62, 88
5, 61244, Note_off_c, 3, 62, 64
5, 61248, Note_on_c, 3, 57, 88
5, 61436, Note_off_c, 3, 57, 64
5, 61440, Note_on_c, 3, 61, 88
5, 61628, Note_off_c, 3, 61, 64
5, 61632, Note_on_c, 3, 57, 88
5, 61820, Note_off_c, 3, 57, 64
5, 61824, Note_on_c, 3, 61, 88
5, 62012, Note_off_c, 3, 61, 64
5, 62016, Note_on_c, 3, 57, 88
5, 62204, Note_off_c, 3, 57, 64
5, 62208, Note_on_c, 3, 64, 88
5, 62396, Note_off_c, 3, 64, 64
5, 62400, Note_on_c, 3, 57, 88
5, 62588, Note_off_c, 3, 57, 64
5, 62592, Note_on_c, 3, 64, 88
5, 62780, Note_off_c, 3, 64, 64
5, 62784, Note_on_c, 3, 57, 88
5, 62972, Note_off_c, 3, 57, 64
5, 62976, Note_on_c, 3, 50, 88
5, 62976, Note_on_c, 3, 38, 91
5, 63164, Note_off_c, 3, 50, 64
5, 63164, Note_off_c, 3, 38, 64
5, 63360, Note_on_c, 3, 62, 88
5, 63360, Note_on_c, 3, 50, 88
5, 63548, Note_off_c, 3, 62, 64
5, 63548, Note_off_c, 3, 50, 64
5, 63552, Note_on_c, 3, 62, 88
5, 63740, Note_off_c, 3, 62, 64
5, 63744, Note_on_c, 3, 62, 88
5, 63744, Note_on_c, 3, 50, 88
5, 63932, Note_off_c, 3, 62, 64
5, 63932, Note_off_c, 3, 50, 64
5, 63936, Note_on_c, 3, 62, 88
5, 64124, Note_off_c, 3, 62, 64
5, 64128, Note_on_c, 3, 62, 88
5, 64128, Note_on_c, 3, 50, 88
5, 64316, Note_off_c, 3, 62, 64
5, 64316, Note_off_c, 3, 50, 64
5, 64320, Note_on_c, 3, 62, 88
5, 64508, Note_off_c, 3, 62, 64
5, 64512, Note_on_c, 3, 61, 88
5, 64512, Note_on_c, 3, 49, 88
5, 64700, Note_off_c, 3, 61, 64
5, 64700, Note_off_c, 3, 49, 64
5, 64704, Note_on_c, 3, 62, 88
5, 64892, Note_off_c, 3, 62, 64
5, 64896, Note_on_c, 3, 61, 88
5, 64896, Note_on_c, 3, 50, 88
5, 65084, Note_off_c, 3, 61, 64
5, 65084, Note_off_c, 3, 50, 64
5, 65088, Note_on_c, 3, 62, 88
5, 65276, Note_off_c, 3, 62, 64
5, 65280, Note_on_c, 3, 60, 88
5, 65280, Note_on_c, 3, 48, 88
5, 65468, Note_off_c, 3, 60, 64
5, 65468, Note_off_c, 3, 48, 64
5, 65472, Note_on_c, 3, 62, 88
5, 65660, Note_off_c, 3, 62, 64
5, 65664, Note_on_c, 3, 60, 88
5, 65664, Note_on_c, 3, 50, 88
5, 65852, Note_off_c, 3, 60, 64
5, 65852, Note_off_c, 3, 50, 64
5, 65856, Note_on_c, 3, 62, 88
5, 66044, Note_off_c, 3, 62, 64
5, 66048, Note_on_c, 3, 59, 88
5, 66048, Note_on_c, 3, 47, 88
5, 66236, Note_off_c, 3, 59, 64
5, 66236, Note_off_c, 3, 47, 64
5, 66432, Note_on_c, 3, 62, 88
5, 66432, Note_on_c, 3, 50, 88
5, 66620, Note_off_c, 3, 62, 64
5, 66620, Note_off_c, 3, 50, 64
5, 66816, Note_on_c, 3, 58, 88
5, 66816, Note_on_c, 3, 46, 88
5, 67004, Note_off_c, 3, 58, 64
5, 67004, Note_off_c, 3, 46, 64
5, 67200, Note_on_c, 3, 62, 88
5, 67200, Note_on_c, 3, 50, 88
5, 67388, Note_off_c, 3, 62, 64
5, 67388, Note_off_c, 3, 50, 64
5, 67584, Note_on_c, 3, 57, 88
5, 67584, Note_on_c, 3, 45, 88
5, 67772, Note_off_c, 3, 57, 64
5, 67772, Note_off_c, 3, 45, 64
5, 67968, Note_on_c, 3, 62, 88
5, 67968, Note_on_c, 3, 50, 88
5, 68156, Note_off_c, 3, 62, 64
5, 68156, Note_off_c, 3, 50, 64
5, 68352, Note_on_c, 3, 60, 88
5, 68352, Note_on_c, 3, 50, 88
5, 68540, Note_off_c, 3, 60, 64
5, 68540, Note_off_c, 3, 50, 64
5, 68736, Note_on_c, 3, 62, 88
5, 68736, Note_on_c, 3, 50, 88
5, 68924, Note_off_c, 3, 62, 64
5, 68924, Note_off_c, 3, 50, 64
5, 69120, Note_on_c, 3, 55, 88
5, 69120, Note_on_c, 3, 43, 88
5, 69500, Note_off_c, 3, 55, 64
5, 69500, Note_off_c, 3, 43, 64
5, 69504, Note_on_c, 3, 62, 88
5, 69504, Note_on_c, 3, 59, 88
5, 69504, Note_on_c, 3, 50, 88
5, 69692, Note_off_c, 3, 62, 64
5, 69692, Note_off_c, 3, 59, 64
5, 69692, Note_off_c, 3, 50, 64
5, 69888, Note_on_c, 3, 62, 88
5, 69888, Note_on_c, 3, 58, 88
5, 69888, Note_on_c, 3, 50, 88
5, 70076, Note_off_c, 3, 62, 64
5, 70076, Note_off_c, 3, 58, 64
5, 70076, Note_off_c, 3, 50, 64
5, 70272, Note_on_c, 3, 62, 88
5, 70272, Note_on_c, 3, 58, 88
5, 70272, Note_on_c, 3, 50, 88
5, 70460, Note_off_c, 3, 62, 64
5, 70460, Note_off_c, 3, 58, 64
5, 70460, Note_off_c, 3, 50, 64
5, 70656, Note_on_c, 3, 54, 88
5, 70656, Note_on_c, 3, 42, 89
5, 71036, Note_off_c, 3, 54, 64
5, 71036, Note_off_c, 3, 42, 64
5, 71040, Note_on_c, 3, 62, 88
5, 71040, Note_on_c, 3, 50, 88
5, 71420, Note_off_c, 3, 62, 64
5, 71420, Note_off_c, 3, 50, 64
5, 71424, Note_on_c, 3, 54, 88
5, 71424, Note_on_c, 3, 38, 91
5, 71804, Note_off_c, 3, 54, 64
5, 71804, Note_off_c, 3, 38, 64
5, 71808, Note_on_c, 3, 62, 88
5, 71808, Note_on_c, 3, 50, 88
5, 72188, Note_off_c, 3, 62, 64
5, 72188, Note_off_c, 3, 50, 64
5, 72192, Note_on_c, 3, 55, 88
5, 72192, Note_on_c, 3, 43, 88
5, 72572, Note_off_c, 3, 55, 64
5, 72572, Note_off_c, 3, 43, 64
5, 72576, Note_on_c, 3, 50, 88
5, 72576, Note_on_c, 3, 62, 88
5, 72956, Note_off_c, 3, 50, 64
5, 72956, Note_off_c, 3, 62, 64
5, 72960, Note_on_c, 3, 62, 88
5, 72960, Note_on_c, 3, 50, 88
5, 73340, Note_off_c, 3, 62, 64
5, 73340, Note_off_c, 3, 50, 64
5, 73344, Note_on_c, 3, 62, 88
5, 73344, Note_on_c, 3, 50, 88
5, 73724, Note_off_c, 3, 62, 64
5, 73724, Note_off_c, 3, 50, 64
5, 73728, Note_on_c, 3, 54, 88
5, 73728, Note_on_c, 3, 42, 89
5, 74108, Note_off_c, 3, 54, 64
5, 74108, Note_off_c, 3, 42, 64
5, 74112, Note_on_c, 3, 62, 88
5, 74112, Note_on_c, 3, 50, 88
5, 74492, Note_off_c, 3, 62, 64
5, 74492, Note_off_c, 3, 50, 64
5, 74496, Note_on_c, 3, 53, 88
5, 74496, Note_on_c, 3, 41, 89
5, 74876, Note_off_c, 3, 53, 64
5, 74876, Note_off_c, 3, 41, 64
5, 74880, Note_on_c, 3, 62, 88
5, 74880, Note_on_c, 3, 50, 88
5, 75260, Note_off_c, 3, 62, 64
5, 75260, Note_off_c, 3, 50, 64
5, 75264, Note_on_c, 3, 52, 88
5, 75264, Note_on_c, 3, 40, 90
5, 75644, Note_off_c, 3, 52, 64
5, 75644, Note_off_c, 3, 40, 64
5, 75648, Note_on_c, 3, 62, 88
5, 75648, Note_on_c, 3, 50, 88
5, 76028, Note_off_c, 3, 62, 64
5, 76028, Note_off_c, 3, 50, 64
5, 76032, Note_on_c, 3, 61, 88
5, 76032, Note_on_c, 3, 49, 88
5, 76412, Note_off_c, 3, 61, 64
5, 76412, Note_off_c, 3, 49, 64
5, 76416, Note_on_c, 3, 57, 88
5, 76416, Note_on_c, 3, 45, 88
5, 76796, Note_off_c, 3, 57, 64
5, 76796, Note_off_c, 3, 45, 64
5, 77184, Note_on_c, 3, 62, 88
5, 77184, Note_on_c, 3, 50, 88
5, 77372, Note_off_c, 3, 62, 64
5, 77372, Note_off_c, 3, 50, 64
5, 77568, Note_on_c, 3, 58, 88
5, 77568, Note_on_c, 3, 46, 88
5, 77756, Note_off_c, 3, 58, 64
5, 77756, Note_off_c, 3, 46, 64
5, 77952, Note_on_c, 3, 53, 88
5, 77952, Note_on_c, 3, 41, 88
5, 78332, Note_off_c, 3, 53, 64
5, 78332, Note_off_c, 3, 41, 64
5, 78336, Note_on_c, 3, 55, 88
5, 78336, Note_on_c, 3, 43, 88
5, 79100, Note_off_c, 3, 55, 64
5, 79100, Note_off_c, 3, 43, 64
5, 79104, Note_on_c, 3, 57, 88
5, 79104, Note_on_c, 3, 45, 88
5, 79868, Note_off_c, 3, 57, 64
5, 79868, Note_off_c, 3, 45, 64
5, 79872, Note_on_c, 3, 57, 88
5, 79872, Note_on_c, 3, 46, 88
5, 80252, Note_off_c, 3, 57, 64
5, 80252, Note_off_c, 3, 46, 64
5, 80256, Note_on_c, 3, 53, 88
5, 80256, Note_on_c, 3, 41, 89
5, 80636, Note_off_c, 3, 53, 64
5, 80636, Note_off_c, 3, 41, 64
5, 80640, Note_on_c, 3, 50, 88
5, 80640, Note_on_c, 3, 38, 91
5, 81020, Note_off_c, 3, 50, 64
5, 81020, Note_off_c, 3, 38, 64
5, 81024, Note_on_c, 3, 46, 88
5, 81024, Note_on_c, 3, 34, 93
5, 81404, Note_off_c, 3, 46, 64
5, 81404, Note_off_c, 3, 34, 64
5, 81408, Note_on_c, 3, 45, 88
5, 81408, Note_on_c, 3, 33, 94
5, 81788, Note_off_c, 3, 45, 64
5, 81788, Note_off_c, 3, 33, 64
5, 81792, Note_on_c, 3, 48, 88
5, 81792, Note_on_c, 3, 36, 92
5, 82172, Note_off_c, 3, 48, 64
5, 82172, Note_off_c, 3, 36, 64
5, 82176, Note_on_c, 3, 41, 88
5, 82176, Note_on_c, 3, 53, 89
5, 82556, Note_off_c, 3, 41, 64
5, 82556, Note_off_c, 3, 53, 64
5, 82560, Note_on_c, 3, 57, 88
5, 82560, Note_on_c, 3, 45, 88
5, 82940, Note_off_c, 3, 57, 64
5, 82940, Note_off_c, 3, 45, 64
5, 82944, Note_on_c, 3, 58, 88
5, 82944, Note_on_c, 3, 46, 88
5, 83324, Note_off_c, 3, 58, 64
5, 83324, Note_off_c, 3, 46, 64
5, 83328, Note_on_c, 3, 53, 88
5, 83328, Note_on_c, 3, 41, 89
5, 83708, Note_off_c, 3, 53, 64
5, 83708, Note_off_c, 3, 41, 64
5, 83712, Note_on_c, 3, 50, 88
5, 83712, Note_on_c, 3, 38, 91
5, 84092, Note_off_c, 3, 50, 64
5, 84092, Note_off_c, 3, 38, 64
5, 84096, Note_on_c, 3, 46, 88
5, 84096, Note_on_c, 3, 34, 93
5, 84476, Note_off_c, 3, 46, 64
5, 84476, Note_off_c, 3, 34, 64
5, 84480, Note_on_c, 3, 45, 88
5, 84480, Note_on_c, 3, 33, 94
5, 84860, Note_off_c, 3, 45, 64
5, 84860, Note_off_c, 3, 33, 64
5, 84864, Note_on_c, 3, 48, 88
5, 84864, Note_on_c, 3, 36, 93
5, 85244, Note_off_c, 3, 48, 64
5, 85244, Note_off_c, 3, 36, 64
5, 85248, Note_on_c, 3, 54, 88
5, 85248, Note_on_c, 3, 42, 89
5, 85628, Note_off_c, 3, 54, 64
5, 85628, Note_off_c, 3, 42, 64
5, 85632, Note_on_c, 3, 57, 88
5, 85632, Note_on_c, 3, 45, 88
5, 86012, Note_off_c, 3, 57, 64
5, 86012, Note_off_c, 3, 45, 64
5, 86016, Note_on_c, 3, 58, 88
5, 86016, Note_on_c, 3, 46, 88
5, 86396, Note_off_c, 3, 58, 64
5, 86396, Note_off_c, 3, 46, 64
5, 86400, Note_on_c, 3, 55, 88
5, 86400, Note_on_c, 3, 43, 88
5, 86780, Note_off_c, 3, 55, 64
5, 86780, Note_off_c, 3, 43, 64
5, 86784, Note_on_c, 3, 50, 88
5, 86784, Note_on_c, 3, 38, 91
5, 87164, Note_off_c, 3, 50, 64
5, 87164, Note_off_c, 3, 38, 64
5, 87168, Note_on_c, 3, 46, 88
5, 87168, Note_on_c, 3, 34, 93
5, 87548, Note_off_c, 3, 46, 64
5, 87548, Note_off_c, 3, 34, 64
5, 87552, Note_on_c, 3, 50, 88
5, 87552, Note_on_c, 3, 38, 91
5, 87932, Note_off_c, 3, 50, 64
5, 87932, Note_off_c, 3, 38, 64
5, 87936, Note_on_c, 3, 56, 88
5, 87936, Note_on_c, 3, 44, 88
5, 88316, Note_off_c, 3, 56, 64
5, 88316, Note_off_c, 3, 44, 64
5, 88320, Note_on_c, 3, 59, 88
5, 88320, Note_on_c, 3, 47, 88
5, 88700, Note_off_c, 3, 59, 64
5, 88700, Note_off_c, 3, 47, 64
5, 88704, Note_on_c, 3, 62, 88
5, 88704, Note_on_c, 3, 50, 88
5, 89084, Note_off_c, 3, 62, 64
5, 89084, Note_off_c, 3, 50, 64
5, 89088, Note_on_c, 3, 61, 88
5, 89088, Note_on_c, 3, 49, 88
5, 89468, Note_off_c, 3, 61, 64
5, 89468, Note_off_c, 3, 49, 64
5, 89856, Note_on_c, 3, 62, 88
5, 89856, Note_on_c, 3, 50, 88
5, 90236, Note_off_c, 3, 62, 64
5, 90236, Note_off_c, 3, 50, 64
5, 90624, Note_on_c, 3, 55, 88
5, 90624, Note_on_c, 3, 43, 88
5, 91004, Note_off_c, 3, 55, 64
5, 91004, Note_off_c, 3, 43, 64
5, 91392, Note_on_c, 3, 57, 88
5, 91392, Note_on_c, 3, 45, 88
5, 91772, Note_off_c, 3, 57, 64
5, 91772, Note_off_c, 3, 45, 64
5, 92160, Note_on_c, 3, 62, 88
5, 92160, Note_on_c, 3, 50, 88
5, 92540, Note_off_c, 3, 62, 64
5, 92540, Note_off_c, 3, 50, 64
5, 92544, Note_on_c, 3, 53, 88
5, 92732, Note_off_c, 3, 53, 64
5, 92736, Note_on_c, 3, 52, 88
5, 92924, Note_off_c, 3, 52, 64
5, 92928, Note_on_c, 3, 50, 88
5, 93116, Note_off_c, 3, 50, 64
5, 93120, Note_on_c, 3, 48, 88
5, 93308, Note_off_c, 3, 48, 64
5, 93312, Note_on_c, 3, 46, 88
5, 93500, Note_off_c, 3, 46, 64
5, 93504, Note_on_c, 3, 45, 88
5, 93692, Note_off_c, 3, 45, 64
5, 93696, Note_on_c, 3, 46, 88
5, 93884, Note_off_c, 3, 46, 64
5, 93888, Note_on_c, 3, 45, 88
5, 94076, Note_off_c, 3, 45, 64
5, 94080, Note_on_c, 3, 43, 88
5, 94268, Note_off_c, 3, 43, 64
5, 94272, Note_on_c, 3, 41, 89
5, 94460, Note_off_c, 3, 41, 64
5, 94464, Note_on_c, 3, 40, 90
5, 94652, Note_off_c, 3, 40, 64
5, 94656, Note_on_c, 3, 38, 91
5, 94844, Note_off_c, 3, 38, 64
5, 94848, Note_on_c, 3, 36, 92
5, 95036, Note_off_c, 3, 36, 64
5, 95040, Note_on_c, 3, 34, 93
5, 95228, Note_off_c, 3, 34, 64
5, 95232, Note_on_c, 3, 33, 94
5, 95612, Note_off_c, 3, 33, 64
5, 96000, Note_on_c, 3, 57, 88
5, 96000, Note_on_c, 3, 45, 88
5, 96380, Note_off_c, 3, 57, 64
5, 96380, Note_off_c, 3, 45, 64
5, 96768, Note_on_c, 3, 50, 88
5, 96768, Note_on_c, 3, 38, 92
5, 97532, Note_off_c, 3, 50, 64
5, 97532, Note_off_c, 3, 38, 64
5, 122880, Note_on_c, 3, 48, 71
5, 122880, Note_on_c, 3, 36, 77
5, 125564, Note_off_c, 3, 36, 64
5, 125564, Note_off_c, 3, 48, 64
5, 125568, Note_on_c, 3, 46, 71
5, 125568, Note_on_c, 3, 34, 78
5, 125948, Note_off_c, 3, 46, 64
5, 125948, Note_off_c, 3, 34, 64
5, 125952, Note_on_c, 3, 45, 71
5, 125952, Note_on_c, 3, 33, 79
5, 128636, Note_off_c, 3, 33, 64
5, 128636, Note_off_c, 3, 45, 64
5, 128640, Note_on_c, 3, 48, 71
5, 128640, Note_on_c, 3, 36, 78
5, 129020, Note_off_c, 3, 48, 64
5, 129020, Note_off_c, 3, 36, 64
5, 129024, Note_on_c, 3, 46, 71
5, 129024, Note_on_c, 3, 34, 71
5, 131324, Note_off_c, 3, 34, 64
5, 131324, Note_off_c, 3, 46, 64
5, 131328, Note_on_c, 3, 47, 71
5, 131328, Note_on_c, 3, 35, 78
5, 132092, Note_off_c, 3, 47, 64
5, 132092, Note_off_c, 3, 35, 64
5, 132096, Note_on_c, 3, 48, 71
5, 132096, Note_on_c, 3, 36, 77
5, 132476, Note_off_c, 3, 48, 64
5, 132476, Note_off_c, 3, 36, 64
5, 135168, Note_on_c, 3, 48, 71
5, 135168, Note_on_c, 3, 36, 79
5, 135548, Note_off_c, 3, 48, 64
5, 135548, Note_off_c, 3, 36, 64
5, 135936, Note_on_c, 3, 52, 71
5, 135936, Note_on_c, 3, 40, 77
5, 136316, Note_off_c, 3, 52, 64
5, 136316, Note_off_c, 3, 40, 64
5, 136704, Note_on_c, 3, 55, 71
5, 136704, Note_on_c, 3, 41, 75
5, 137084, Note_off_c, 3, 55, 64
5, 137084, Note_off_c, 3, 41, 64
5, 137472, Note_on_c, 3, 57, 71
5, 137472, Note_on_c, 3, 45, 71
5, 137852, Note_off_c, 3, 57, 64
5, 137852, Note_off_c, 3, 45, 64
5, 138240, Note_on_c, 3, 60, 71
5, 138240, Note_on_c, 3, 48, 71
5, 138620, Note_off_c, 3, 60, 64
5, 138620, Note_off_c, 3, 48, 64
5, 139776, Note_on_c, 3, 60, 71
5, 139776, Note_on_c, 3, 55, 71
5, 139776, Note_on_c, 3, 52, 71
5, 139776, Note_on_c, 3, 48, 71
5, 139776, Note_on_c, 3, 36, 79
5, 140156, Note_off_c, 3, 60, 64
5, 140156, Note_off_c, 3, 55, 64
5, 140156, Note_off_c, 3, 52, 64
5, 140156, Note_off_c, 3, 48, 64
5, 140156, Note_off_c, 3, 36, 64
5, 141312, Note_on_c, 3, 48, 71
5, 141312, Note_on_c, 3, 36, 79
5, 141692, Note_off_c, 3, 48, 64
5, 141692, Note_off_c, 3, 36, 64
5, 152832, Note_on_c, 3, 60, 71
5, 152832, Note_on_c, 3, 56, 71
5, 152832, Note_on_c, 3, 53, 71
5, 153020, Note_off_c, 3, 60, 64
5, 153020, Note_off_c, 3, 56, 64
5, 153020, Note_off_c, 3, 53, 64
5, 153216, Note_on_c, 3, 60, 71
5, 153216, Note_on_c, 3, 56, 71
5, 153216, Note_on_c, 3, 53, 71
5, 153404, Note_off_c, 3, 60, 64
5, 153404, Note_off_c, 3, 56, 64
5, 153404, Note_off_c, 3, 53, 64
5, 153600, Note_on_c, 3, 61, 71
5, 153600, Note_on_c, 3, 58, 71
5, 153600, Note_on_c, 3, 55, 71
5, 153600, Note_on_c, 3, 52, 71
5, 153788, Note_off_c, 3, 61, 64
5, 153788, Note_off_c, 3, 58, 64
5, 153788, Note_off_c, 3, 55, 64
5, 153788, Note_off_c, 3, 52, 64
5, 154368, Note_on_c, 3, 61, 71
5, 154368, Note_on_c, 3, 58, 71
5, 154368, Note_on_c, 3, 55, 71
5, 154368, Note_on_c, 3, 52, 71
5, 154556, Note_off_c, 3, 61, 64
5, 154556, Note_off_c, 3, 58, 64
5, 154556, Note_off_c, 3, 55, 64
5, 154556, Note_off_c, 3, 52, 64
5, 154752, Note_on_c, 3, 61, 71
5, 154752, Note_on_c, 3, 58, 71
5, 154752, Note_on_c, 3, 55, 71
5, 154752, Note_on_c, 3, 52, 71
5, 154940, Note_off_c, 3, 61, 64
5, 154940, Note_off_c, 3, 58, 64
5, 154940, Note_off_c, 3, 55, 64
5, 154940, Note_off_c, 3, 52, 64
5, 155136, Note_on_c, 3, 60, 71
5, 155136, Note_on_c, 3, 56, 71
5, 155136, Note_on_c, 3, 53, 71
5, 155324, Note_off_c, 3, 60, 64
5, 155324, Note_off_c, 3, 56, 64
5, 155324, Note_off_c, 3, 53, 64
5, 155904, Note_on_c, 3, 61, 71
5, 155904, Note_on_c, 3, 55, 71
5, 155904, Note_on_c, 3, 46, 71
5, 156284, Note_off_c, 3, 61, 64
5, 156284, Note_off_c, 3, 55, 64
5, 156284, Note_off_c, 3, 46, 64
5, 156672, Note_on_c, 3, 60, 71
5, 156672, Note_on_c, 3, 56, 71
5, 156672, Note_on_c, 3, 53, 71
5, 156672, Note_on_c, 3, 48, 71
5, 157052, Note_off_c, 3, 60, 64
5, 157052, Note_off_c, 3, 56, 64
5, 157052, Note_off_c, 3, 53, 64
5, 157052, Note_off_c, 3, 48, 64
5, 157440, Note_on_c, 3, 60, 71
5, 157440, Note_on_c, 3, 48, 71
5, 157440, Note_on_c, 3, 55, 71
5, 157440, Note_on_c, 3, 52, 71
5, 157820, Note_off_c, 3, 60, 64
5, 157820, Note_off_c, 3, 48, 64
5, 157820, Note_off_c, 3, 55, 64
5, 157820, Note_off_c, 3, 52, 64
5, 158208, Note_on_c, 3, 61, 71
5, 159740, Note_off_c, 3, 61, 64
5, 159744, Note_on_c, 3, 60, 71
5, 161276, Note_off_c, 3, 60, 64
5, 161280, Note_on_c, 3, 61, 71
5, 162812, Note_off_c, 3, 61, 64
5, 162816, Note_on_c, 3, 60, 71
5, 164348, Note_off_c, 3, 60, 64
5, 164352, Note_on_c, 3, 68, 71
5, 164352, Note_on_c, 3, 61, 71
5, 165884, Note_off_c, 3, 68, 64
5, 165884, Note_off_c, 3, 61, 64
5, 165888, Note_on_c, 3, 62, 71
5, 167420, Note_off_c, 3, 62, 64
5, 167424, Note_on_c, 3, 60, 71
5, 168956, Note_off_c, 3, 60, 64
5, 168960, Note_on_c, 3, 48, 71
5, 170492, Note_off_c, 3, 48, 64
5, 170496, Note_on_c, 3, 53, 71
5, 170876, Note_off_c, 3, 53, 64
5, 173952, Note_on_c, 3, 52, 71
5, 174332, Note_off_c, 3, 52, 64
5, 174336, Note_on_c, 3, 55, 71
5, 174716, Note_off_c, 3, 55, 64
5, 174720, Note_on_c, 3, 52, 71
5, 175100, Note_off_c, 3, 52, 64
5, 177024, Note_on_c, 3, 50, 71
5, 177404, Note_off_c, 3, 50, 64
5, 177408, Note_on_c, 3, 53, 71
5, 177788, Note_off_c, 3, 53, 64
5, 177792, Note_on_c, 3, 50, 71
5, 178172, Note_off_c, 3, 50, 64
5, 178176, Note_on_c, 3, 67, 71
5, 178176, Note_on_c, 3, 55, 71
5, 179324, Note_off_c, 3, 67, 64
5, 179328, Note_on_c, 3, 65, 71
5, 179708, Note_off_c, 3, 55, 64
5, 179708, Note_off_c, 3, 65, 64
5, 179712, Note_on_c, 3, 64, 71
5, 179712, Note_on_c, 3, 60, 71
5, 180860, Note_off_c, 3, 64, 64
5, 180864, Note_on_c, 3, 62, 71
5, 181244, Note_off_c, 3, 60, 64
5, 181244, Note_off_c, 3, 62, 64
5, 181248, Note_on_c, 3, 60, 71
5, 181248, Note_on_c, 3, 48, 71
5, 181628, Note_off_c, 3, 60, 64
5, 181632, Note_on_c, 3, 58, 71
5, 182012, Note_off_c, 3, 58, 64
5, 182016, Note_on_c, 3, 57, 71
5, 182396, Note_off_c, 3, 57, 64
5, 182400, Note_on_c, 3, 55, 71
5, 182780, Note_off_c, 3, 48, 64
5, 182780, Note_off_c, 3, 55, 64
5, 182784, Note_on_c, 3, 53, 71
5, 183548, Note_off_c, 3, 53, 64
5, 183936, Note_on_c, 3, 51, 71
5, 183936, Note_on_c, 3, 39, 78
5, 184316, Note_off_c, 3, 51, 64
5, 184316, Note_off_c, 3, 39, 64
5, 184320, Note_on_c, 3, 50, 71
5, 184320, Note_on_c, 3, 38, 78
5, 185084, Note_off_c, 3, 50, 64
5, 185084, Note_off_c, 3, 38, 64
5, 185472, Note_on_c, 3, 49, 71
5, 185472, Note_on_c, 3, 37, 79
5, 185852, Note_off_c, 3, 49, 64
5, 185852, Note_off_c, 3, 37, 64
5, 185856, Note_on_c, 3, 48, 71
5, 185856, Note_on_c, 3, 36, 79
5, 186620, Note_off_c, 3, 48, 64
5, 186620, Note_off_c, 3, 36, 64
5, 190464, Note_on_c, 3, 58, 71
5, 190652, Note_off_c, 3, 58, 64
5, 190848, Note_on_c, 3, 57, 71
5, 191036, Note_off_c, 3, 57, 64
5, 191232, Note_on_c, 3, 55, 71
5, 191420, Note_off_c, 3, 55, 64
5, 191616, Note_on_c, 3, 53, 71
5, 191804, Note_off_c, 3, 53, 64
5, 192000, Note_on_c, 3, 67, 71
5, 192000, Note_on_c, 3, 52, 71
5, 192380, Note_off_c, 3, 67, 64
5, 192380, Note_off_c, 3, 52, 64
5, 192768, Note_on_c, 3, 67, 71
5, 193148, Note_off_c, 3, 67, 64
5, 193152, Note_on_c, 3, 64, 71
5, 193532, Note_off_c, 3, 64, 64
5, 193536, Note_on_c, 3, 57, 71
5, 193916, Note_off_c, 3, 57, 64
5, 193920, Note_on_c, 3, 55, 71
5, 194300, Note_off_c, 3, 55, 64
5, 194304, Note_on_c, 3, 53, 71
5, 194684, Note_off_c, 3, 53, 64
5, 194688, Note_on_c, 3, 52, 71
5, 195068, Note_off_c, 3, 52, 64
5, 195072, Note_on_c, 3, 65, 71
5, 195072, Note_on_c, 3, 50, 71
5, 195452, Note_off_c, 3, 65, 64
5, 195452, Note_off_c, 3, 50, 64
5, 195840, Note_on_c, 3, 65, 71
5, 196220, Note_off_c, 3, 65, 64
5, 196224, Note_on_c, 3, 62, 71
5, 196604, Note_off_c, 3, 62, 64
5, 196608, Note_on_c, 3, 67, 71
5, 196608, Note_on_c, 3, 55, 71
5, 196796, Note_off_c, 3, 67, 64
5, 196796, Note_off_c, 3, 55, 64
5, 196992, Note_on_c, 3, 65, 71
5, 196992, Note_on_c, 3, 53, 71
5, 197180, Note_off_c, 3, 65, 64
5, 197180, Note_off_c, 3, 53, 64
5, 197376, Note_on_c, 3, 64, 71
5, 197376, Note_on_c, 3, 52, 71
5, 197564, Note_off_c, 3, 64, 64
5, 197564, Note_off_c, 3, 52, 64
5, 197760, Note_on_c, 3, 62, 71
5, 197760, Note_on_c, 3, 50, 71
5, 197948, Note_off_c, 3, 62, 64
5, 197948, Note_off_c, 3, 50, 64
5, 198144, Note_on_c, 3, 60, 71
5, 198144, Note_on_c, 3, 48, 71
5, 198332, Note_off_c, 3, 60, 64
5, 198332, Note_off_c, 3, 48, 64
5, 198528, Note_on_c, 3, 58, 71
5, 198528, Note_on_c, 3, 46, 71
5, 198716, Note_off_c, 3, 58, 64
5, 198716, Note_off_c, 3, 46, 64
5, 198912, Note_on_c, 3, 57, 71
5, 198912, Note_on_c, 3, 45, 71
5, 199100, Note_off_c, 3, 57, 64
5, 199100, Note_off_c, 3, 45, 64
5, 199296, Note_on_c, 3, 55, 71
5, 199296, Note_on_c, 3, 43, 71
5, 199484, Note_off_c, 3, 55, 64
5, 199484, Note_off_c, 3, 43, 64
5, 199680, Note_on_c, 3, 53, 71
5, 199680, Note_on_c, 3, 41, 75
5, 199868, Note_off_c, 3, 53, 64
5, 199868, Note_off_c, 3, 41, 64
5, 200064, Note_on_c, 3, 40, 71
5, 200064, Note_on_c, 3, 52, 77
5, 200252, Note_off_c, 3, 40, 64
5, 200252, Note_off_c, 3, 52, 64
5, 200448, Note_on_c, 3, 50, 71
5, 200448, Note_on_c, 3, 38, 78
5, 200636, Note_off_c, 3, 50, 64
5, 200636, Note_off_c, 3, 38, 64
5, 200832, Note_on_c, 3, 36, 71
5, 200832, Note_on_c, 3, 48, 79
5, 201020, Note_off_c, 3, 36, 64
5, 201020, Note_off_c, 3, 48, 64
5, 201216, Note_on_c, 3, 47, 71
5, 201216, Note_on_c, 3, 35, 80
5, 201980, Note_off_c, 3, 47, 64
5, 201980, Note_off_c, 3, 35, 64
5, 207360, Note_on_c, 3, 60, 71
5, 207360, Note_on_c, 3, 48, 71
5, 208124, Note_off_c, 3, 60, 64
5, 208124, Note_off_c, 3, 48, 64
5, 208896, Note_on_c, 3, 60, 71
5, 208896, Note_on_c, 3, 48, 71
5, 209660, Note_off_c, 3, 60, 64
5, 209660, Note_off_c, 3, 48, 64
5, 210432, Note_on_c, 3, 48, 71
5, 211964, Note_off_c, 3, 48, 64
5, 211968, Note_on_c, 3, 48, 71
5, 211968, Note_on_c, 3, 36, 71
5, 213500, Note_off_c, 3, 48, 64
5, 213500, Note_off_c, 3, 36, 64
5, 213504, Note_on_c, 3, 53, 71
5, 213504, Note_on_c, 3, 41, 75
5, 213884, Note_off_c, 3, 53, 64
5, 213884, Note_off_c, 3, 41, 64
5, 213888, Note_on_c, 3, 60, 71
5, 213888, Note_on_c, 3, 57, 71
5, 213888, Note_on_c, 3, 53, 71
5, 214268, Note_off_c, 3, 60, 64
5, 214268, Note_off_c, 3, 57, 64
5, 214268, Note_off_c, 3, 53, 64
5, 214272, Note_on_c, 3, 60, 71
5, 214272, Note_on_c, 3, 57, 71
5, 214272, Note_on_c, 3, 53, 71
5, 214652, Note_off_c, 3, 60, 64
5, 214652, Note_off_c, 3, 57, 64
5, 214652, Note_off_c, 3, 53, 64
5, 214656, Note_on_c, 3, 60, 71
5, 214656, Note_on_c, 3, 57, 71
5, 214656, Note_on_c, 3, 53, 71
5, 215036, Note_off_c, 3, 60, 64
5, 215036, Note_off_c, 3, 57, 64
5, 215036, Note_off_c, 3, 53, 64
5, 215040, Note_on_c, 3, 52, 71
5, 215420, Note_off_c, 3, 52, 64
5, 215424, Note_on_c, 3, 52, 71
5, 215424, Note_on_c, 3, 58, 71
5, 215424, Note_on_c, 3, 60, 71
5, 215804, Note_off_c, 3, 52, 64
5, 215804, Note_off_c, 3, 58, 64
5, 215804, Note_off_c, 3, 60, 64
5, 215808, Note_on_c, 3, 60, 71
5, 215808, Note_on_c, 3, 58, 71
5, 215808, Note_on_c, 3, 52, 71
5, 216188, Note_off_c, 3, 60, 64
5, 216188, Note_off_c, 3, 58, 64
5, 216188, Note_off_c, 3, 52, 64
5, 216192, Note_on_c, 3, 60, 71
5, 216192, Note_on_c, 3, 52, 71
5, 216192, Note_on_c, 3, 58, 71
5, 216572, Note_off_c, 3, 60, 64
5, 216572, Note_off_c, 3, 52, 64
5, 216572, Note_off_c, 3, 58, 64
5, 216576, Note_on_c, 3, 53, 71
5, 216956, Note_off_c, 3, 53, 64
5, 216960, Note_on_c, 3, 57, 71
5, 216960, Note_on_c, 3, 60, 71
5, 217340, Note_off_c, 3, 57, 64
5, 217340, Note_off_c, 3, 60, 64
5, 217344, Note_on_c, 3, 50, 71
5, 217724, Note_off_c, 3, 50, 64
5, 217728, Note_on_c, 3, 57, 71
5, 217728, Note_on_c, 3, 60, 71
5, 218108, Note_off_c, 3, 57, 64
5, 218108, Note_off_c, 3, 60, 64
5, 218112, Note_on_c, 3, 55, 71
5, 218492, Note_off_c, 3, 55, 64
5, 218496, Note_on_c, 3, 58, 71
5, 218496, Note_on_c, 3, 62, 71
5, 218876, Note_off_c, 3, 58, 64
5, 218876, Note_off_c, 3, 62, 64
5, 218880, Note_on_c, 3, 53, 71
5, 219260, Note_off_c, 3, 53, 64
5, 219264, Note_on_c, 3, 59, 71
5, 219264, Note_on_c, 3, 62, 71
5, 219644, Note_off_c, 3, 59, 64
5, 219644, Note_off_c, 3, 62, 64
5, 219648, Note_on_c, 3, 52, 71
5, 220028, Note_off_c, 3, 52, 64
5, 220032, Note_on_c, 3, 55, 71
5, 220032, Note_on_c, 3, 60, 71
5, 220412, Note_off_c, 3, 55, 64
5, 220412, Note_off_c, 3, 60, 64
5, 220416, Note_on_c, 3, 48, 71
5, 220796, Note_off_c, 3, 48, 64
5, 220800, Note_on_c, 3, 60, 71
5, 220800, Note_on_c, 3, 55, 71
5, 221180, Note_off_c, 3, 60, 64
5, 221180, Note_off_c, 3, 55, 64
5, 221184, Note_on_c, 3, 52, 71
5, 221564, Note_off_c, 3, 52, 64
5, 221568, Note_on_c, 3, 55, 71
5, 221568, Note_on_c, 3, 60, 71
5, 221948, Note_off_c, 3, 55, 64
5, 221948, Note_off_c, 3, 60, 64
5, 221952, Note_on_c, 3, 52, 71
5, 222332, Note_off_c, 3, 52, 64
5, 222336, Note_on_c, 3, 60, 71
5, 222336, Note_on_c, 3, 58, 71
5, 222716, Note_off_c, 3, 60, 64
5, 222716, Note_off_c, 3, 58, 64
5, 222720, Note_on_c, 3, 53, 71
5, 223100, Note_off_c, 3, 53, 64
5, 223104, Note_on_c, 3, 57, 71
5, 223104, Note_on_c, 3, 60, 71
5, 223484, Note_off_c, 3, 57, 64
5, 223484, Note_off_c, 3, 60, 64
5, 223488, Note_on_c, 3, 56, 71
5, 223488, Note_on_c, 3, 59, 71
5, 223488, Note_on_c, 3, 50, 71
5, 223868, Note_off_c, 3, 56, 64
5, 223868, Note_off_c, 3, 59, 64
5, 223868, Note_off_c, 3, 50, 64
5, 223872, Note_on_c, 3, 59, 71
5, 223872, Note_on_c, 3, 56, 71
5, 224252, Note_off_c, 3, 59, 64
5, 224252, Note_off_c, 3, 56, 64
5, 224256, Note_on_c, 3, 48, 71
5, 224256, Note_on_c, 3, 60, 71
5, 224256, Note_on_c, 3, 57, 71
5, 224636, Note_off_c, 3, 48, 64
5, 224636, Note_off_c, 3, 57, 64
5, 224640, Note_on_c, 3, 53, 71
5, 225020, Note_off_c, 3, 53, 64
5, 225024, Note_on_c, 3, 48, 71
5, 225404, Note_off_c, 3, 60, 64
5, 225404, Note_off_c, 3, 48, 64
5, 225408, Note_on_c, 3, 60, 71
5, 225408, Note_on_c, 3, 58, 71
5, 225408, Note_on_c, 3, 52, 71
5, 225788, Note_off_c, 3, 60, 64
5, 225788, Note_off_c, 3, 58, 64
5, 225788, Note_off_c, 3, 52, 64
5, 225792, Note_on_c, 3, 53, 71
5, 226172, Note_off_c, 3, 53, 64
5, 226176, Note_on_c, 3, 57, 71
5, 226176, Note_on_c, 3, 60, 71
5, 226556, Note_off_c, 3, 57, 64
5, 226556, Note_off_c, 3, 60, 64
5, 226560, Note_on_c, 3, 41, 71
5, 226940, Note_off_c, 3, 41, 64
5, 226944, Note_on_c, 3, 57, 71
5, 226944, Note_on_c, 3, 53, 71
5, 227324, Note_off_c, 3, 57, 64
5, 227324, Note_off_c, 3, 53, 64
5, 227328, Note_on_c, 3, 52, 71
5, 227328, Note_on_c, 3, 40, 77
5, 227708, Note_off_c, 3, 52, 64
5, 227708, Note_off_c, 3, 40, 64
5, 228096, Note_on_c, 3, 48, 71
5, 228096, Note_on_c, 3, 36, 79
5, 228476, Note_off_c, 3, 48, 64
5, 228476, Note_off_c, 3, 36, 64
5, 228864, Note_on_c, 3, 53, 71
5, 228864, Note_on_c, 3, 41, 75
5, 229244, Note_off_c, 3, 53, 64
5, 229244, Note_off_c, 3, 41, 64
5, 229632, Note_on_c, 3, 51, 71
5, 229632, Note_on_c, 3, 39, 78
5, 230012, Note_off_c, 3, 51, 64
5, 230012, Note_off_c, 3, 39, 64
5, 230400, Note_on_c, 3, 50, 71
5, 230400, Note_on_c, 3, 38, 78
5, 230780, Note_off_c, 3, 50, 64
5, 230780, Note_off_c, 3, 38, 64
5, 231168, Note_on_c, 3, 53, 71
5, 231168, Note_on_c, 3, 41, 75
5, 231548, Note_off_c, 3, 53, 64
5, 231548, Note_off_c, 3, 41, 64
5, 231936, Note_on_c, 3, 52, 71
5, 231936, Note_on_c, 3, 40, 77
5, 232316, Note_off_c, 3, 52, 64
5, 232316, Note_off_c, 3, 40, 64
5, 232704, Note_on_c, 3, 48, 71
5, 232704, Note_on_c, 3, 36, 79
5, 233084, Note_off_c, 3, 48, 64
5, 233084, Note_off_c, 3, 36, 64
5, 234240, Note_on_c, 3, 52, 71
5, 234240, Note_on_c, 3, 40, 77
5, 234620, Note_off_c, 3, 52, 64
5, 234620, Note_off_c, 3, 40, 64
5, 235008, Note_on_c, 3, 53, 71
5, 235008, Note_on_c, 3, 41, 75
5, 235388, Note_off_c, 3, 53, 64
5, 235388, Note_off_c, 3, 41, 64
5, 235776, Note_on_c, 3, 50, 71
5, 235776, Note_on_c, 3, 38, 77
5, 236156, Note_off_c, 3, 50, 64
5, 236156, Note_off_c, 3, 38, 64
5, 236544, Note_on_c, 3, 48, 71
5, 236544, Note_on_c, 3, 36, 79
5, 236924, Note_off_c, 3, 48, 64
5, 236924, Note_off_c, 3, 36, 64
5, 237312, Note_on_c, 3, 48, 71
5, 237312, Note_on_c, 3, 36, 79
5, 237692, Note_off_c, 3, 48, 64
5, 237692, Note_off_c, 3, 36, 64
5, 238080, Note_on_c, 3, 53, 71
5, 238080, Note_on_c, 3, 41, 69
5, 238460, Note_off_c, 3, 53, 64
5, 238460, Note_off_c, 3, 41, 64
5, 239616, Note_on_c, 3, 48, 71
5, 239616, Note_on_c, 3, 36, 79
5, 239996, Note_off_c, 3, 48, 64
5, 239996, Note_off_c, 3, 36, 64
5, 241152, Note_on_c, 3, 53, 71
5, 241152, Note_on_c, 3, 41, 75
5, 241532, Note_off_c, 3, 53, 64
5, 241532, Note_off_c, 3, 41, 64
5, 242688, Note_on_c, 3, 48, 71
5, 242688, Note_on_c, 3, 36, 79
5, 243068, Note_off_c, 3, 48, 64
5, 243068, Note_off_c, 3, 36, 64
5, 244224, Note_on_c, 3, 53, 71
5, 244224, Note_on_c, 3, 41, 75
5, 244604, Note_off_c, 3, 53, 64
5, 244604, Note_off_c, 3, 41, 64
5, 245760, Note_on_c, 3, 48, 71
5, 245760, Note_on_c, 3, 36, 79
5, 246140, Note_off_c, 3, 48, 64
5, 246140, Note_off_c, 3, 36, 64
5, 247296, Note_on_c, 3, 53, 71
5, 247296, Note_on_c, 3, 41, 75
5, 247676, Note_off_c, 3, 53, 64
5, 247676, Note_off_c, 3, 41, 64
5, 287616, Note_on_c, 3, 62, 92
5, 287616, Note_on_c, 3, 50, 92
5, 287996, Note_off_c, 3, 62, 64
5, 287996, Note_off_c, 3, 50, 64
5, 288000, Note_on_c, 3, 64, 92
5, 288000, Note_on_c, 3, 52, 92
5, 288380, Note_off_c, 3, 64, 64
5, 288380, Note_off_c, 3, 52, 64
5, 288384, Note_on_c, 3, 65, 92
5, 288384, Note_on_c, 3, 53, 92
5, 288764, Note_off_c, 3, 65, 64
5, 288764, Note_off_c, 3, 53, 64
5, 288768, Note_on_c, 3, 56, 92
5, 288768, Note_on_c, 3, 52, 92
5, 288768, Note_on_c, 3, 44, 92
5, 289148, Note_off_c, 3, 56, 64
5, 289148, Note_off_c, 3, 52, 64
5, 289148, Note_off_c, 3, 44, 64
5, 289344, Note_on_c, 3, 52, 92
5, 289532, Note_off_c, 3, 52, 64
5, 289536, Note_on_c, 3, 56, 92
5, 289724, Note_off_c, 3, 56, 64
5, 289728, Note_on_c, 3, 59, 92
5, 289916, Note_off_c, 3, 59, 64
5, 289920, Note_on_c, 3, 64, 92
5, 290108, Note_off_c, 3, 64, 64
5, 290112, Note_on_c, 3, 68, 92
5, 290300, Note_off_c, 3, 68, 64
5, 292416, Note_on_c, 3, 41, 93
5, 292604, Note_off_c, 3, 41, 64
5, 292608, Note_on_c, 3, 45, 92
5, 292796, Note_off_c, 3, 45, 64
5, 292800, Note_on_c, 3, 48, 92
5, 292988, Note_off_c, 3, 48, 64
5, 292992, Note_on_c, 3, 53, 92
5, 293180, Note_off_c, 3, 53, 64
5, 293184, Note_on_c, 3, 57, 92
5, 293372, Note_off_c, 3, 57, 64
5, 293376, Note_on_c, 3, 60, 92
5, 293756, Note_off_c, 3, 60, 64
5, 293760, Note_on_c, 3, 53, 92
5, 294140, Note_off_c, 3, 53, 64
5, 294144, Note_on_c, 3, 52, 92
5, 294524, Note_off_c, 3, 52, 64
5, 294528, Note_on_c, 3, 53, 92
5, 294908, Note_off_c, 3, 53, 64
5, 294912, Note_on_c, 3, 50, 92
5, 295292, Note_off_c, 3, 50, 64
5, 295488, Note_on_c, 3, 50, 92
5, 295676, Note_off_c, 3, 50, 64
5, 295680, Note_on_c, 3, 53, 92
5, 295868, Note_off_c, 3, 53, 64
5, 295872, Note_on_c, 3, 58, 92
5, 296060, Note_off_c, 3, 58, 64
5, 296064, Note_on_c, 3, 62, 92
5, 296252, Note_off_c, 3, 62, 64
5, 296256, Note_on_c, 3, 58, 92
5, 296444, Note_off_c, 3, 58, 64
5, 296448, Note_on_c, 3, 65, 92
5, 296828, Note_off_c, 3, 65, 64
5, 296832, Note_on_c, 3, 61, 92
5, 296832, Note_on_c, 3, 64, 92
5, 297212, Note_off_c, 3, 61, 64
5, 297212, Note_off_c, 3, 64, 64
5, 297216, Note_on_c, 3, 62, 92
5, 297216, Note_on_c, 3, 65, 92
5, 297596, Note_off_c, 3, 62, 64
5, 297596, Note_off_c, 3, 65, 64
5, 297600, Note_on_c, 3, 63, 92
5, 297600, Note_on_c, 3, 66, 92
5, 297980, Note_off_c, 3, 63, 64
5, 297980, Note_off_c, 3, 66, 64
5, 297984, Note_on_c, 3, 64, 92
5, 298364, Note_off_c, 3, 64, 64
5, 298368, Note_on_c, 3, 52, 92
5, 298748, Note_off_c, 3, 52, 64
5, 299136, Note_on_c, 3, 64, 92
5, 299136, Note_on_c, 3, 62, 92
5, 299136, Note_on_c, 3, 52, 92
5, 299516, Note_off_c, 3, 64, 64
5, 299516, Note_off_c, 3, 62, 64
5, 299516, Note_off_c, 3, 52, 64
5, 299520, Note_on_c, 3, 60, 92
5, 299520, Note_on_c, 3, 57, 92
5, 299520, Note_on_c, 3, 52, 92
5, 299520, Note_on_c, 3, 64, 92
5, 299900, Note_off_c, 3, 60, 64
5, 299900, Note_off_c, 3, 57, 64
5, 299900, Note_off_c, 3, 52, 64
5, 299900, Note_off_c, 3, 64, 64
5, 299904, Note_on_c, 3, 52, 92
5, 300284, Note_off_c, 3, 52, 64
5, 300672, Note_on_c, 3, 60, 92
5, 300672, Note_on_c, 3, 57, 92
5, 300672, Note_on_c, 3, 52, 92
5, 300672, Note_on_c, 3, 64, 92
5, 301052, Note_off_c, 3, 60, 64
5, 301052, Note_off_c, 3, 57, 64
5, 301052, Note_off_c, 3, 52, 64
5, 301052, Note_off_c, 3, 64, 64
5, 301056, Note_on_c, 3, 64, 92
5, 301056, Note_on_c, 3, 59, 92
5, 301056, Note_on_c, 3, 56, 92
5, 301056, Note_on_c, 3, 52, 92
5, 301436, Note_off_c, 3, 64, 64
5, 301436, Note_off_c, 3, 59, 64
5, 301436, Note_off_c, 3, 56, 64
5, 301436, Note_off_c, 3, 52, 64
5, 301440, Note_on_c, 3, 52, 92
5, 301820, Note_off_c, 3, 52, 64
5, 302208, Note_on_c, 3, 52, 92
5, 302208, Note_on_c, 3, 64, 92
5, 302588, Note_off_c, 3, 52, 64
5, 302588, Note_off_c, 3, 64, 64
5, 302592, Note_on_c, 3, 64, 92
5, 302592, Note_on_c, 3, 60, 92
5, 302592, Note_on_c, 3, 57, 92
5, 302592, Note_on_c, 3, 52, 92
5, 302972, Note_off_c, 3, 64, 64
5, 302972, Note_off_c, 3, 60, 64
5, 302972, Note_off_c, 3, 57, 64
5, 302972, Note_off_c, 3, 52, 64
5, 302976, Note_on_c, 3, 64, 92
5, 302976, Note_on_c, 3, 60, 92
5, 302976, Note_on_c, 3, 57, 92
5, 302976, Note_on_c, 3, 52, 92
5, 303356, Note_off_c, 3, 64, 64
5, 303356, Note_off_c, 3, 60, 64
5, 303356, Note_off_c, 3, 57, 64
5, 303356, Note_off_c, 3, 52, 64
5, 303360, Note_on_c, 3, 64, 92
5, 303360, Note_on_c, 3, 60, 92
5, 303360, Note_on_c, 3, 57, 92
5, 303360, Note_on_c, 3, 53, 92
5, 303360, Note_on_c, 3, 53, 92
5, 303740, Note_off_c, 3, 64, 64
5, 303740, Note_off_c, 3, 60, 64
5, 303740, Note_off_c, 3, 57, 64
5, 303740, Note_off_c, 3, 53, 64
5, 303740, Note_off_c, 3, 53, 64
5, 303744, Note_on_c, 3, 64, 92
5, 303744, Note_on_c, 3, 60, 92
5, 303744, Note_on_c, 3, 57, 92
5, 303744, Note_on_c, 3, 53, 92
5, 303744, Note_on_c, 3, 53, 92
5, 304124, Note_off_c, 3, 64, 64
5, 304124, Note_off_c, 3, 60, 64
5, 304124, Note_off_c, 3, 57, 64
5, 304124, Note_off_c, 3, 53, 64
5, 304124, Note_off_c, 3, 53, 64
5, 304128, Note_on_c, 3, 64, 92
5, 304128, Note_on_c, 3, 59, 92
5, 304128, Note_on_c, 3, 56, 92
5, 304128, Note_on_c, 3, 52, 92
5, 304508, Note_off_c, 3, 64, 64
5, 304508, Note_off_c, 3, 59, 64
5, 304508, Note_off_c, 3, 56, 64
5, 304508, Note_off_c, 3, 52, 64
5, 304512, Note_on_c, 3, 52, 92
5, 304512, Note_on_c, 3, 40, 94
5, 304892, Note_off_c, 3, 52, 64
5, 304892, Note_off_c, 3, 40, 64
5, 304896, Note_on_c, 3, 57, 92
5, 304896, Note_on_c, 3, 45, 92
5, 305276, Note_off_c, 3, 57, 64
5, 305276, Note_off_c, 3, 45, 64
5, 305280, Note_on_c, 3, 60, 92
5, 305280, Note_on_c, 3, 48, 92
5, 305660, Note_off_c, 3, 60, 64
5, 305660, Note_off_c, 3, 48, 64
5, 305664, Note_on_c, 3, 64, 92
5, 305664, Note_on_c, 3, 59, 92
5, 305664, Note_on_c, 3, 56, 92
5, 305664, Note_on_c, 3, 52, 92
5, 306044, Note_off_c, 3, 64, 64
5, 306044, Note_off_c, 3, 59, 64
5, 306044, Note_off_c, 3, 56, 64
5, 306044, Note_off_c, 3, 52, 64
5, 306048, Note_on_c, 3, 52, 92
5, 306048, Note_on_c, 3, 40, 94
5, 306428, Note_off_c, 3, 52, 64
5, 306428, Note_off_c, 3, 40, 64
5, 306432, Note_on_c, 3, 57, 92
5, 306432, Note_on_c, 3, 45, 92
5, 306812, Note_off_c, 3, 57, 64
5, 306812, Note_off_c, 3, 45, 64
5, 306816, Note_on_c, 3, 60, 92
5, 306816, Note_on_c, 3, 48, 92
5, 307196, Note_off_c, 3, 60, 64
5, 307196, Note_off_c, 3, 48, 64
5, 307200, Note_on_c, 3, 64, 92
5, 307200, Note_on_c, 3, 59, 92
5, 307200, Note_on_c, 3, 56, 92
5, 307200, Note_on_c, 3, 52, 92
5, 307580, Note_off_c, 3, 64, 64
5, 307580, Note_off_c, 3, 59, 64
5, 307580, Note_off_c, 3, 56, 64
5, 307580, Note_off_c, 3, 52, 64
5, 307584, Note_on_c, 3, 52, 92
5, 307584, Note_on_c, 3, 40, 94
5, 307964, Note_off_c, 3, 52, 64
5, 307964, Note_off_c, 3, 40, 64
5, 307968, Note_on_c, 3, 52, 92
5, 307968, Note_on_c, 3, 40, 94
5, 308348, Note_off_c, 3, 52, 64
5, 308348, Note_off_c, 3, 40, 64
5, 308352, Note_on_c, 3, 52, 92
5, 308352, Note_on_c, 3, 40, 94
5, 308732, Note_off_c, 3, 52, 64
5, 308732, Note_off_c, 3, 40, 64
5, 308736, Note_on_c, 3, 52, 92
5, 308736, Note_on_c, 3, 40, 94
5, 309500, Note_off_c, 3, 52, 64
5, 309500, Note_off_c, 3, 40, 64
5, 334848, Note_on_c, 3, 59, 67
5, 334848, Note_on_c, 3, 56, 67
5, 334848, Note_on_c, 3, 65, 67
5, 334848, Note_on_c, 3, 62, 67
5, 337916, Note_off_c, 3, 56, 64
5, 337920, Note_on_c, 3, 55, 71
5, 338300, Note_off_c, 3, 55, 64
5, 338496, Note_on_c, 3, 43, 71
5, 338684, Note_off_c, 3, 43, 64
5, 338688, Note_on_c, 3, 47, 71
5, 338876, Note_off_c, 3, 47, 64
5, 338880, Note_on_c, 3, 50, 71
5, 339068, Note_off_c, 3, 50, 64
5, 339072, Note_on_c, 3, 55, 71
5, 339260, Note_off_c, 3, 55, 64
5, 339264, Note_on_c, 3, 59, 71
5, 339452, Note_off_c, 3, 59, 64
5, 339452, Note_off_c, 3, 62, 64
5, 339452, Note_off_c, 3, 65, 64
5, 339452, Note_off_c, 3, 59, 64
5, 339456, Note_on_c, 3, 62, 71
5, 339836, Note_off_c, 3, 62, 64
5, 339840, Note_on_c, 3, 55, 71
5, 340220, Note_off_c, 3, 55, 64
5, 340224, Note_on_c, 3, 54, 71
5, 340604, Note_off_c, 3, 54, 64
5, 340608, Note_on_c, 3, 55, 71
5, 340988, Note_off_c, 3, 55, 64
5, 340992, Note_on_c, 3, 54, 71
5, 340992, Note_on_c, 3, 63, 71
5, 340992, Note_on_c, 3, 60, 71
5, 340992, Note_on_c, 3, 57, 71
5, 344060, Note_off_c, 3, 54, 64
5, 344064, Note_on_c, 3, 53, 71
5, 344444, Note_off_c, 3, 53, 64
5, 344640, Note_on_c, 3, 41, 71
5, 344828, Note_off_c, 3, 41, 64
5, 344832, Note_on_c, 3, 45, 71
5, 345020, Note_off_c, 3, 45, 64
5, 345024, Note_on_c, 3, 48, 71
5, 345212, Note_off_c, 3, 48, 64
5, 345216, Note_on_c, 3, 53, 71
5, 345404, Note_off_c, 3, 53, 64
5, 345408, Note_on_c, 3, 57, 71
5, 345596, Note_off_c, 3, 57, 64
5, 345596, Note_off_c, 3, 60, 64
5, 345596, Note_off_c, 3, 63, 64
5, 345596, Note_off_c, 3, 57, 64
5, 345600, Note_on_c, 3, 60, 71
5, 345980, Note_off_c, 3, 60, 64
5, 345984, Note_on_c, 3, 53, 71
5, 346364, Note_off_c, 3, 53, 64
5, 346368, Note_on_c, 3, 52, 71
5, 346748, Note_off_c, 3, 52, 64
5, 346752, Note_on_c, 3, 53, 71
5, 347132, Note_off_c, 3, 53, 64
5, 347136, Note_on_c, 3, 52, 71
5, 347136, Note_on_c, 3, 58, 71
5, 347136, Note_on_c, 3, 61, 71
5, 347136, Note_on_c, 3, 55, 71
5, 350204, Note_off_c, 3, 52, 64
5, 350208, Note_on_c, 3, 51, 71
5, 350588, Note_off_c, 3, 51, 64
5, 350784, Note_on_c, 3, 39, 78
5, 350972, Note_off_c, 3, 39, 64
5, 350976, Note_on_c, 3, 43, 71
5, 351164, Note_off_c, 3, 43, 64
5, 351168, Note_on_c, 3, 46, 71
5, 351356, Note_off_c, 3, 46, 64
5, 351360, Note_on_c, 3, 51, 71
5, 351548, Note_off_c, 3, 51, 64
5, 351552, Note_on_c, 3, 55, 71
5, 351740, Note_off_c, 3, 55, 64
5, 351740, Note_off_c, 3, 58, 64
5, 351740, Note_off_c, 3, 61, 64
5, 351740, Note_off_c, 3, 55, 64
5, 351744, Note_on_c, 3, 58, 71
5, 352124, Note_off_c, 3, 58, 64
5, 352128, Note_on_c, 3, 51, 71
5, 352508, Note_off_c, 3, 51, 64
5, 352512, Note_on_c, 3, 50, 71
5, 352892, Note_off_c, 3, 50, 64
5, 352896, Note_on_c, 3, 51, 71
5, 353276, Note_off_c, 3, 51, 64
5, 353280, Note_on_c, 3, 50, 71
5, 353280, Note_on_c, 3, 38, 78
5, 355196, Note_off_c, 3, 38, 64
5, 355196, Note_off_c, 3, 50, 64
5, 355392, Note_on_c, 3, 43, 71
5, 355580, Note_off_c, 3, 43, 64
5, 355584, Note_on_c, 3, 46, 71
5, 355772, Note_off_c, 3, 46, 64
5, 355776, Note_on_c, 3, 50, 71
5, 355964, Note_off_c, 3, 50, 64
5, 355968, Note_on_c, 3, 55, 71
5, 356156, Note_off_c, 3, 55, 64
5, 356160, Note_on_c, 3, 58, 71
5, 356348, Note_off_c, 3, 58, 64
5, 356352, Note_on_c, 3, 50, 71
5, 356352, Note_on_c, 3, 62, 71
5, 357116, Note_off_c, 3, 62, 64
5, 357120, Note_on_c, 3, 60, 71
5, 357500, Note_off_c, 3, 60, 64
5, 357504, Note_on_c, 3, 57, 71
5, 357884, Note_off_c, 3, 50, 64
5, 357884, Note_off_c, 3, 57, 64
5, 357888, Note_on_c, 3, 58, 71
5, 357888, Note_on_c, 3, 55, 71
5, 357888, Note_on_c, 3, 50, 71
5, 358268, Note_off_c, 3, 58, 64
5, 358268, Note_off_c, 3, 55, 64
5, 358268, Note_off_c, 3, 50, 64
5, 358464, Note_on_c, 3, 43, 71
5, 358652, Note_off_c, 3, 43, 64
5, 358656, Note_on_c, 3, 46, 71
5, 358844, Note_off_c, 3, 46, 64
5, 358848, Note_on_c, 3, 50, 71
5, 359036, Note_off_c, 3, 50, 64
5, 359040, Note_on_c, 3, 55, 71
5, 359228, Note_off_c, 3, 55, 64
5, 359232, Note_on_c, 3, 58, 71
5, 359420, Note_off_c, 3, 58, 64
5, 359424, Note_on_c, 3, 62, 71
5, 359424, Note_on_c, 3, 50, 71
5, 359804, Note_off_c, 3, 62, 64
5, 359804, Note_off_c, 3, 50, 64
5, 359808, Note_on_c, 3, 62, 71
5, 359808, Note_on_c, 3, 50, 71
5, 360188, Note_off_c, 3, 62, 64
5, 360188, Note_off_c, 3, 50, 64
5, 360192, Note_on_c, 3, 62, 71
5, 360192, Note_on_c, 3, 50, 71
5, 360572, Note_off_c, 3, 62, 64
5, 360572, Note_off_c, 3, 50, 64
5, 360576, Note_on_c, 3, 62, 71
5, 360576, Note_on_c, 3, 50, 71
5, 360956, Note_off_c, 3, 62, 64
5, 360956, Note_off_c, 3, 50, 64
5, 360960, Note_on_c, 3, 62, 71
5, 360960, Note_on_c, 3, 50, 71
5, 361724, Note_off_c, 3, 62, 64
5, 361724, Note_off_c, 3, 50, 64
5, 384000, Note_on_c, 3, 67, 71
5, 384000, Note_on_c, 3, 64, 71
5, 384000, Note_on_c, 3, 57, 71
5, 384764, Note_off_c, 3, 67, 64
5, 384764, Note_off_c, 3, 64, 64
5, 384768, Note_on_c, 3, 62, 71
5, 384768, Note_on_c, 3, 65, 71
5, 385532, Note_off_c, 3, 62, 64
5, 385532, Note_off_c, 3, 65, 64
5, 385536, Note_on_c, 3, 61, 71
5, 385536, Note_on_c, 3, 64, 71
5, 385916, Note_off_c, 3, 57, 64
5, 385916, Note_off_c, 3, 61, 64
5, 385916, Note_off_c, 3, 64, 64
5, 408576, Note_on_c, 3, 61, 71
5, 408576, Note_on_c, 3, 57, 71
5, 408956, Note_off_c, 3, 61, 64
5, 408956, Note_off_c, 3, 57, 64
5, 408960, Note_on_c, 3, 61, 71
5, 408960, Note_on_c, 3, 57, 71
5, 409340, Note_off_c, 3, 61, 64
5, 409340, Note_off_c, 3, 57, 64
5, 409344, Note_on_c, 3, 62, 71
5, 409344, Note_on_c, 3, 59, 71
5, 409724, Note_off_c, 3, 62, 64
5, 409724, Note_off_c, 3, 59, 64
5, 409728, Note_on_c, 3, 62, 71
5, 409728, Note_on_c, 3, 59, 71
5, 410108, Note_off_c, 3, 62, 64
5, 410108, Note_off_c, 3, 59, 64
5, 410112, Note_on_c, 3, 64, 71
5, 410112, Note_on_c, 3, 61, 71
5, 410492, Note_off_c, 3, 64, 64
5, 410492, Note_off_c, 3, 61, 64
5, 417792, Note_on_c, 3, 45, 71
5, 417792, Note_on_c, 3, 33, 71
5, 418172, Note_off_c, 3, 45, 64
5, 418172, Note_off_c, 3, 33, 64
5, 418560, Note_on_c, 3, 49, 71
5, 418560, Note_on_c, 3, 37, 71
5, 418940, Note_off_c, 3, 49, 64
5, 418940, Note_off_c, 3, 37, 64
5, 419328, Note_on_c, 3, 50, 71
5, 419328, Note_on_c, 3, 38, 71
5, 419708, Note_off_c, 3, 50, 64
5, 419708, Note_off_c, 3, 38, 64
5, 420096, Note_on_c, 3, 53, 71
5, 420096, Note_on_c, 3, 41, 71
5, 420476, Note_off_c, 3, 53, 64
5, 420476, Note_off_c, 3, 41, 64
5, 420864, Note_on_c, 3, 57, 71
5, 420864, Note_on_c, 3, 45, 71
5, 421244, Note_off_c, 3, 57, 64
5, 421244, Note_off_c, 3, 45, 64
5, 422400, Note_on_c, 3, 61, 71
5, 422400, Note_on_c, 3, 57, 71
5, 422400, Note_on_c, 3, 52, 71
5, 422400, Note_on_c, 3, 45, 71
5, 422400, Note_on_c, 3, 33, 71
5, 422780, Note_off_c, 3, 61, 64
5, 422780, Note_off_c, 3, 57, 64
5, 422780, Note_off_c, 3, 52, 64
5, 422780, Note_off_c, 3, 45, 64
5, 422780, Note_off_c, 3, 33, 64
5, 423936, Note_on_c, 3, 57, 71
5, 423936, Note_on_c, 3, 45, 71
5, 424316, Note_off_c, 3, 57, 64
5, 424316, Note_off_c, 3, 45, 64
5, 435456, Note_on_c, 3, 57, 71
5, 435456, Note_on_c, 3, 53, 71
5, 435456, Note_on_c, 3, 50, 71
5, 435644, Note_off_c, 3, 57, 64
5, 435644, Note_off_c, 3, 53, 64
5, 435644, Note_off_c, 3, 50, 64
5, 435840, Note_on_c, 3, 57, 71
5, 435840, Note_on_c, 3, 53, 71
5, 435840, Note_on_c, 3, 50, 71
5, 436028, Note_off_c, 3, 57, 64
5, 436028, Note_off_c, 3, 53, 64
5, 436028, Note_off_c, 3, 50, 64
5, 436224, Note_on_c, 3, 58, 71
5, 436224, Note_on_c, 3, 55, 71
5, 436224, Note_on_c, 3, 52, 71
5, 436224, Note_on_c, 3, 49, 71
5, 436604, Note_off_c, 3, 58, 64
5, 436604, Note_off_c, 3, 55, 64
5, 436604, Note_off_c, 3, 52, 64
5, 436604, Note_off_c, 3, 49, 64
5, 436992, Note_on_c, 3, 58, 71
5, 436992, Note_on_c, 3, 55, 71
5, 436992, Note_on_c, 3, 52, 71
5, 436992, Note_on_c, 3, 49, 71
5, 437180, Note_off_c, 3, 58, 64
5, 437180, Note_off_c, 3, 55, 64
5, 437180, Note_off_c, 3, 52, 64
5, 437180, Note_off_c, 3, 49, 64
5, 437376, Note_on_c, 3, 55, 71
5, 437376, Note_on_c, 3, 52, 71
5, 437376, Note_on_c, 3, 49, 71
5, 437376, Note_on_c, 3, 58, 71
5, 437564, Note_off_c, 3, 55, 64
5, 437564, Note_off_c, 3, 52, 64
5, 437564, Note_off_c, 3, 49, 64
5, 437564, Note_off_c, 3, 58, 64
5, 437760, Note_on_c, 3, 57, 71
5, 437760, Note_on_c, 3, 53, 71
5, 437760, Note_on_c, 3, 50, 71
5, 437948, Note_off_c, 3, 57, 64
5, 437948, Note_off_c, 3, 53, 64
5, 437948, Note_off_c, 3, 50, 64
5, 439296, Note_on_c, 3, 62, 71
5, 439296, Note_on_c, 3, 57, 71
5, 439676, Note_off_c, 3, 62, 64
5, 439676, Note_off_c, 3, 57, 64
5, 440064, Note_on_c, 3, 61, 71
5, 440064, Note_on_c, 3, 52, 71
5, 440064, Note_on_c, 3, 45, 71
5, 440444, Note_off_c, 3, 61, 64
5, 440444, Note_off_c, 3, 52, 64
5, 440444, Note_off_c, 3, 45, 64
5, 440832, Note_on_c, 3, 58, 71
5, 442364, Note_off_c, 3, 58, 64
5, 442368, Note_on_c, 3, 57, 71
5, 443900, Note_off_c, 3, 57, 64
5, 443904, Note_on_c, 3, 58, 71
5, 445436, Note_off_c, 3, 58, 64
5, 445440, Note_on_c, 3, 57, 71
5, 446972, Note_off_c, 3, 57, 64
5, 446976, Note_on_c, 3, 58, 71
5, 446976, Note_on_c, 3, 62, 71
5, 448508, Note_off_c, 3, 58, 64
5, 448512, Note_on_c, 3, 59, 71
5, 450044, Note_off_c, 3, 59, 64
5, 450048, Note_on_c, 3, 57, 71
5, 450428, Note_off_c, 3, 62, 64
5, 450816, Note_on_c, 3, 70, 71
5, 451196, Note_off_c, 3, 70, 64
5, 451580, Note_off_c, 3, 57, 64
5, 451584, Note_on_c, 3, 69, 71
5, 451964, Note_off_c, 3, 69, 64
5, 452352, Note_on_c, 3, 67, 71
5, 452732, Note_off_c, 3, 67, 64
5, 453120, Note_on_c, 3, 65, 71
5, 453120, Note_on_c, 3, 50, 71
5, 453500, Note_off_c, 3, 65, 64
5, 453500, Note_off_c, 3, 50, 64
5, 456576, Note_on_c, 3, 48, 71
5, 456956, Note_off_c, 3, 48, 64
5, 456960, Note_on_c, 3, 52, 71
5, 457340, Note_off_c, 3, 52, 64
5, 457344, Note_on_c, 3, 48, 71
5, 457724, Note_off_c, 3, 48, 64
5, 459648, Note_on_c, 3, 46, 71
5, 460028, Note_off_c, 3, 46, 64
5, 460032, Note_on_c, 3, 50, 71
5, 460412, Note_off_c, 3, 50, 64
5, 460416, Note_on_c, 3, 46, 71
5, 460796, Note_off_c, 3, 46, 64
5, 460800, Note_on_c, 3, 64, 71
5, 460800, Note_on_c, 3, 52, 71
5, 461948, Note_off_c, 3, 64, 64
5, 461952, Note_on_c, 3, 62, 71
5, 462332, Note_off_c, 3, 52, 64
5, 462332, Note_off_c, 3, 62, 64
5, 462336, Note_on_c, 3, 61, 71
5, 462336, Note_on_c, 3, 57, 71
5, 463484, Note_off_c, 3, 61, 64
5, 463488, Note_on_c, 3, 59, 71
5, 463868, Note_off_c, 3, 57, 64
5, 463868, Note_off_c, 3, 59, 64
5, 463872, Note_on_c, 3, 57, 71
5, 463872, Note_on_c, 3, 45, 71
5, 464252, Note_off_c, 3, 57, 64
5, 464256, Note_on_c, 3, 55, 71
5, 464636, Note_off_c, 3, 55, 64
5, 464640, Note_on_c, 3, 53, 71
5, 465020, Note_off_c, 3, 53, 64
5, 465024, Note_on_c, 3, 52, 71
5, 465404, Note_off_c, 3, 45, 64
5, 465404, Note_off_c, 3, 52, 64
5, 465408, Note_on_c, 3, 50, 71
5, 465408, Note_on_c, 3, 38, 78
5, 466172, Note_off_c, 3, 50, 64
5, 466172, Note_off_c, 3, 38, 64
5, 466560, Note_on_c, 3, 48, 71
5, 466560, Note_on_c, 3, 36, 79
5, 466940, Note_off_c, 3, 48, 64
5, 466940, Note_off_c, 3, 36, 64
5, 466944, Note_on_c, 3, 46, 71
5, 466944, Note_on_c, 3, 34, 80
5, 467708, Note_off_c, 3, 46, 64
5, 467708, Note_off_c, 3, 34, 64
5, 468096, Note_on_c, 3, 47, 71
5, 468096, Note_on_c, 3, 35, 81
5, 468476, Note_off_c, 3, 47, 64
5, 468476, Note_off_c, 3, 35, 64
5, 468480, Note_on_c, 3, 45, 71
5, 468480, Note_on_c, 3, 34, 81
5, 469244, Note_off_c, 3, 45, 64
5, 469244, Note_off_c, 3, 34, 64
5, 471936, Note_on_c, 3, 62, 71
5, 471936, Note_on_c, 3, 57, 71
5, 471936, Note_on_c, 3, 53, 71
5, 472316, Note_off_c, 3, 62, 64
5, 472316, Note_off_c, 3, 57, 64
5, 472316, Note_off_c, 3, 53, 64
5, 472320, Note_on_c, 3, 62, 71
5, 472320, Note_on_c, 3, 57, 71
5, 472320, Note_on_c, 3, 53, 71
5, 472700, Note_off_c, 3, 62, 64
5, 472700, Note_off_c, 3, 57, 64
5, 472700, Note_off_c, 3, 53, 64
5, 472704, Note_on_c, 3, 62, 71
5, 472704, Note_on_c, 3, 57, 71
5, 472704, Note_on_c, 3, 53, 71
5, 473084, Note_off_c, 3, 62, 64
5, 473084, Note_off_c, 3, 57, 64
5, 473084, Note_off_c, 3, 53, 64
5, 473088, Note_on_c, 3, 45, 71
5, 473468, Note_off_c, 3, 45, 64
5, 473472, Note_on_c, 3, 61, 71
5, 473472, Note_on_c, 3, 57, 71
5, 473472, Note_on_c, 3, 55, 71
5, 473852, Note_off_c, 3, 61, 64
5, 473852, Note_off_c, 3, 57, 64
5, 473852, Note_off_c, 3, 55, 64
5, 473856, Note_on_c, 3, 61, 71
5, 473856, Note_on_c, 3, 57, 71
5, 473856, Note_on_c, 3, 55, 71
5, 474236, Note_off_c, 3, 61, 64
5, 474236, Note_off_c, 3, 57, 64
5, 474236, Note_off_c, 3, 55, 64
5, 474240, Note_on_c, 3, 61, 71
5, 474240, Note_on_c, 3, 57, 71
5, 474240, Note_on_c, 3, 55, 71
5, 474620, Note_off_c, 3, 61, 64
5, 474620, Note_off_c, 3, 57, 64
5, 474620, Note_off_c, 3, 55, 64
5, 474624, Note_on_c, 3, 50, 71
5, 475004, Note_off_c, 3, 50, 64
5, 475008, Note_on_c, 3, 62, 71
5, 475008, Note_on_c, 3, 57, 71
5, 475008, Note_on_c, 3, 53, 71
5, 475388, Note_off_c, 3, 62, 64
5, 475388, Note_off_c, 3, 57, 64
5, 475388, Note_off_c, 3, 53, 64
5, 475392, Note_on_c, 3, 48, 71
5, 475772, Note_off_c, 3, 48, 64
5, 475776, Note_on_c, 3, 62, 71
5, 475776, Note_on_c, 3, 57, 71
5, 475776, Note_on_c, 3, 54, 71
5, 476156, Note_off_c, 3, 62, 64
5, 476156, Note_off_c, 3, 57, 64
5, 476156, Note_off_c, 3, 54, 64
5, 476160, Note_on_c, 3, 47, 71
5, 476540, Note_off_c, 3, 47, 64
5, 476544, Note_on_c, 3, 62, 71
5, 476544, Note_on_c, 3, 59, 71
5, 476544, Note_on_c, 3, 55, 71
5, 476924, Note_off_c, 3, 62, 64
5, 476924, Note_off_c, 3, 59, 64
5, 476924, Note_off_c, 3, 55, 64
5, 476928, Note_on_c, 3, 50, 71
5, 477308, Note_off_c, 3, 50, 64
5, 477312, Note_on_c, 3, 64, 71
5, 477312, Note_on_c, 3, 59, 71
5, 477312, Note_on_c, 3, 56, 71
5, 477692, Note_off_c, 3, 64, 64
5, 477692, Note_off_c, 3, 59, 64
5, 477692, Note_off_c, 3, 56, 64
5, 477696, Note_on_c, 3, 49, 71
5, 478076, Note_off_c, 3, 49, 64
5, 478080, Note_on_c, 3, 57, 71
5, 478080, Note_on_c, 3, 64, 71
5, 478460, Note_off_c, 3, 57, 64
5, 478460, Note_off_c, 3, 64, 64
5, 478464, Note_on_c, 3, 45, 71
5, 478844, Note_off_c, 3, 45, 64
5, 478848, Note_on_c, 3, 57, 71
5, 478848, Note_on_c, 3, 61, 71
5, 479228, Note_off_c, 3, 57, 64
5, 479228, Note_off_c, 3, 61, 64
5, 479232, Note_on_c, 3, 49, 71
5, 479612, Note_off_c, 3, 49, 64
5, 479616, Note_on_c, 3, 64, 71
5, 479616, Note_on_c, 3, 57, 71
5, 479616, Note_on_c, 3, 55, 71
5, 479996, Note_off_c, 3, 64, 64
5, 479996, Note_off_c, 3, 57, 64
5, 479996, Note_off_c, 3, 55, 64
5, 480000, Note_on_c, 3, 64, 71
5, 480000, Note_on_c, 3, 57, 71
5, 480000, Note_on_c, 3, 55, 71
5, 480380, Note_off_c, 3, 64, 64
5, 480380, Note_off_c, 3, 57, 64
5, 480380, Note_off_c, 3, 55, 64
5, 480384, Note_on_c, 3, 64, 71
5, 480384, Note_on_c, 3, 57, 71
5, 480384, Note_on_c, 3, 55, 71
5, 480764, Note_off_c, 3, 64, 64
5, 480764, Note_off_c, 3, 57, 64
5, 480764, Note_off_c, 3, 55, 64
5, 480768, Note_on_c, 3, 50, 71
5, 481148, Note_off_c, 3, 50, 64
5, 481152, Note_on_c, 3, 62, 71
5, 481152, Note_on_c, 3, 57, 71
5, 481152, Note_on_c, 3, 53, 71
5, 481532, Note_off_c, 3, 62, 64
5, 481532, Note_off_c, 3, 57, 64
5, 481532, Note_off_c, 3, 53, 64
5, 481536, Note_on_c, 3, 46, 71
5, 481916, Note_off_c, 3, 46, 64
5, 481920, Note_on_c, 3, 62, 71
5, 481920, Note_on_c, 3, 56, 71
5, 481920, Note_on_c, 3, 53, 71
5, 482300, Note_off_c, 3, 62, 64
5, 482300, Note_off_c, 3, 56, 64
5, 482300, Note_off_c, 3, 53, 64
5, 482304, Note_on_c, 3, 45, 71
5, 482684, Note_off_c, 3, 45, 64
5, 482688, Note_on_c, 3, 62, 71
5, 482688, Note_on_c, 3, 57, 71
5, 483068, Note_off_c, 3, 62, 64
5, 483068, Note_off_c, 3, 57, 64
5, 483072, Note_on_c, 3, 45, 71
5, 483452, Note_off_c, 3, 45, 64
5, 483456, Note_on_c, 3, 61, 71
5, 483456, Note_on_c, 3, 57, 71
5, 483836, Note_off_c, 3, 61, 64
5, 483836, Note_off_c, 3, 57, 64
5, 483840, Note_on_c, 3, 61, 71
5, 483840, Note_on_c, 3, 57, 71
5, 483840, Note_on_c, 3, 50, 71
5, 484220, Note_off_c, 3, 61, 64
5, 484220, Note_off_c, 3, 50, 64
5, 484224, Note_on_c, 3, 62, 71
5, 484604, Note_off_c, 3, 57, 64
5, 484604, Note_off_c, 3, 62, 64
5, 484608, Note_on_c, 3, 62, 71
5, 484796, Note_off_c, 3, 62, 64
5, 485376, Note_on_c, 3, 49, 71
5, 485376, Note_on_c, 3, 37, 79
5, 485756, Note_off_c, 3, 49, 64
5, 485756, Note_off_c, 3, 37, 64
5, 486144, Note_on_c, 3, 45, 71
5, 486144, Note_on_c, 3, 33, 81
5, 486524, Note_off_c, 3, 45, 64
5, 486524, Note_off_c, 3, 33, 64
5, 486912, Note_on_c, 3, 50, 71
5, 486912, Note_on_c, 3, 38, 78
5, 487292, Note_off_c, 3, 50, 64
5, 487292, Note_off_c, 3, 38, 64
5, 487680, Note_on_c, 3, 48, 71
5, 487680, Note_on_c, 3, 36, 79
5, 488060, Note_off_c, 3, 48, 64
5, 488060, Note_off_c, 3, 36, 64
5, 488448, Note_on_c, 3, 46, 71
5, 488448, Note_on_c, 3, 34, 80
5, 488828, Note_off_c, 3, 46, 64
5, 488828, Note_off_c, 3, 34, 64
5, 489216, Note_on_c, 3, 50, 71
5, 489216, Note_on_c, 3, 38, 78
5, 489596, Note_off_c, 3, 50, 64
5, 489596, Note_off_c, 3, 38, 64
5, 489984, Note_on_c, 3, 49, 71
5, 489984, Note_on_c, 3, 37, 79
5, 490364, Note_off_c, 3, 49, 64
5, 490364, Note_off_c, 3, 37, 64
5, 490752, Note_on_c, 3, 45, 71
5, 490752, Note_on_c, 3, 33, 81
5, 491132, Note_off_c, 3, 45, 64
5, 491132, Note_off_c, 3, 33, 64
5, 492288, Note_on_c, 3, 61, 71
5, 492288, Note_on_c, 3, 49, 71
5, 492668, Note_off_c, 3, 61, 64
5, 492668, Note_off_c, 3, 49, 64
5, 493056, Note_on_c, 3, 62, 71
5, 493056, Note_on_c, 3, 50, 71
5, 493436, Note_off_c, 3, 62, 64
5, 493436, Note_off_c, 3, 50, 64
5, 493824, Note_on_c, 3, 58, 71
5, 493824, Note_on_c, 3, 46, 71
5, 494204, Note_off_c, 3, 58, 64
5, 494204, Note_off_c, 3, 46, 64
5, 494592, Note_on_c, 3, 57, 71
5, 494592, Note_on_c, 3, 45, 71
5, 494972, Note_off_c, 3, 57, 64
5, 494972, Note_off_c, 3, 45, 64
5, 495360, Note_on_c, 3, 45, 71
5, 495360, Note_on_c, 3, 33, 81
5, 495740, Note_off_c, 3, 45, 64
5, 495740, Note_off_c, 3, 33, 64
5, 496128, Note_on_c, 3, 50, 71
5, 496128, Note_on_c, 3, 38, 78
5, 496508, Note_off_c, 3, 50, 64
5, 496508, Note_off_c, 3, 38, 64
5, 497664, Note_on_c, 3, 58, 71
5, 497664, Note_on_c, 3, 45, 71
5, 498428, Note_off_c, 3, 58, 64
5, 498428, Note_off_c, 3, 45, 64
5, 498432, Note_on_c, 3, 60, 71
5, 498432, Note_on_c, 3, 45, 71
5, 498812, Note_off_c, 3, 60, 64
5, 498812, Note_off_c, 3, 45, 64
5, 498816, Note_on_c, 3, 62, 71
5, 498816, Note_on_c, 3, 46, 71
5, 499196, Note_off_c, 3, 62, 64
5, 499196, Note_off_c, 3, 46, 64
5, 499200, Note_on_c, 3, 60, 71
5, 499200, Note_on_c, 3, 48, 71
5, 499580, Note_off_c, 3, 48, 64
5, 499964, Note_off_c, 3, 60, 64
5, 499968, Note_on_c, 3, 62, 71
5, 500348, Note_off_c, 3, 62, 64
5, 500352, Note_on_c, 3, 64, 71
5, 500732, Note_off_c, 3, 64, 64
5, 500736, Note_on_c, 3, 53, 71
5, 500736, Note_on_c, 3, 41, 75
5, 501116, Note_off_c, 3, 53, 64
5, 501500, Note_off_c, 3, 41, 64
5, 501504, Note_on_c, 3, 58, 71
5, 501504, Note_on_c, 3, 43, 71
5, 501884, Note_off_c, 3, 58, 64
5, 501884, Note_off_c, 3, 43, 64
5, 501888, Note_on_c, 3, 60, 71
5, 501888, Note_on_c, 3, 45, 71
5, 502268, Note_off_c, 3, 60, 64
5, 502268, Note_off_c, 3, 45, 64
5, 502272, Note_on_c, 3, 58, 71
5, 502272, Note_on_c, 3, 46, 71
5, 502652, Note_off_c, 3, 46, 64
5, 503036, Note_off_c, 3, 58, 64
5, 503040, Note_on_c, 3, 60, 71
5, 503420, Note_off_c, 3, 60, 64
5, 503424, Note_on_c, 3, 62, 71
5, 503804, Note_off_c, 3, 62, 64
5, 503808, Note_on_c, 3, 52, 71
5, 503808, Note_on_c, 3, 40, 77
5, 504188, Note_off_c, 3, 52, 64
5, 504572, Note_off_c, 3, 40, 64
5, 504576, Note_on_c, 3, 57, 71
5, 504576, Note_on_c, 3, 41, 75
5, 504956, Note_off_c, 3, 57, 64
5, 504956, Note_off_c, 3, 41, 64
5, 504960, Note_on_c, 3, 59, 71
5, 504960, Note_on_c, 3, 43, 71
5, 505340, Note_off_c, 3, 59, 64
5, 505340, Note_off_c, 3, 43, 64
5, 505344, Note_on_c, 3, 57, 71
5, 505344, Note_on_c, 3, 45, 71
5, 505724, Note_off_c, 3, 45, 64
5, 506108, Note_off_c, 3, 57, 64
5, 506112, Note_on_c, 3, 59, 71
5, 506492, Note_off_c, 3, 59, 64
5, 506496, Note_on_c, 3, 61, 71
5, 506876, Note_off_c, 3, 61, 64
5, 506880, Note_on_c, 3, 62, 71
5, 506880, Note_on_c, 3, 50, 71
5, 507260, Note_off_c, 3, 62, 64
5, 507260, Note_off_c, 3, 50, 64
5, 507264, Note_on_c, 3, 48, 71
5, 507644, Note_off_c, 3, 48, 64
5, 507648, Note_on_c, 3, 46, 71
5, 508028, Note_off_c, 3, 46, 64
5, 508032, Note_on_c, 3, 45, 71
5, 508412, Note_off_c, 3, 45, 64
5, 508416, Note_on_c, 3, 44, 71
5, 508416, Note_on_c, 3, 56, 71
5, 508796, Note_off_c, 3, 44, 64
5, 509952, Note_on_c, 3, 59, 71
5, 509952, Note_on_c, 3, 62, 71
5, 509952, Note_on_c, 3, 65, 71
5, 513404, Note_off_c, 3, 56, 64
5, 513404, Note_off_c, 3, 59, 64
5, 513404, Note_off_c, 3, 62, 64
5, 513404, Note_off_c, 3, 65, 64
5, 514560, Note_on_c, 3, 45, 92
5, 514560, Note_on_c, 3, 33, 99
5, 515324, Note_off_c, 3, 45, 64
5, 515324, Note_off_c, 3, 33, 64
5, 526848, Note_on_c, 3, 58, 92
5, 526848, Note_on_c, 3, 46, 92
5, 527228, Note_off_c, 3, 58, 64
5, 527228, Note_off_c, 3, 46, 64
5, 527232, Note_on_c, 3, 53, 92
5, 527232, Note_on_c, 3, 41, 92
5, 527612, Note_off_c, 3, 53, 64
5, 527612, Note_off_c, 3, 41, 64
5, 527616, Note_on_c, 3, 50, 92
5, 527616, Note_on_c, 3, 38, 95
5, 527996, Note_off_c, 3, 50, 64
5, 527996, Note_off_c, 3, 38, 64
5, 528000, Note_on_c, 3, 46, 92
5, 528000, Note_on_c, 3, 34, 97
5, 528380, Note_off_c, 3, 46, 64
5, 528380, Note_off_c, 3, 34, 64
5, 528384, Note_on_c, 3, 45, 92
5, 528384, Note_on_c, 3, 33, 99
5, 528764, Note_off_c, 3, 45, 64
5, 528764, Note_off_c, 3, 33, 64
5, 528768, Note_on_c, 3, 48, 92
5, 528768, Note_on_c, 3, 36, 97
5, 529148, Note_off_c, 3, 48, 64
5, 529148, Note_off_c, 3, 36, 64
5, 529152, Note_on_c, 3, 53, 92
5, 529152, Note_on_c, 3, 41, 93
5, 529532, Note_off_c, 3, 53, 64
5, 529532, Note_off_c, 3, 41, 64
5, 529536, Note_on_c, 3, 57, 92
5, 529536, Note_on_c, 3, 45, 92
5, 529916, Note_off_c, 3, 57, 64
5, 529916, Note_off_c, 3, 45, 64
5, 529920, Note_on_c, 3, 58, 92
5, 529920, Note_on_c, 3, 46, 92
5, 530300, Note_off_c, 3, 58, 64
5, 530300, Note_off_c, 3, 46, 64
5, 530304, Note_on_c, 3, 53, 92
5, 530304, Note_on_c, 3, 41, 92
5, 530684, Note_off_c, 3, 53, 64
5, 530684, Note_off_c, 3, 41, 64
5, 530688, Note_on_c, 3, 50, 92
5, 530688, Note_on_c, 3, 38, 95
5, 531068, Note_off_c, 3, 50, 64
5, 531068, Note_off_c, 3, 38, 64
5, 531072, Note_on_c, 3, 46, 92
5, 531072, Note_on_c, 3, 34, 97
5, 531452, Note_off_c, 3, 46, 64
5, 531452, Note_off_c, 3, 34, 64
5, 531456, Note_on_c, 3, 45, 92
5, 531456, Note_on_c, 3, 33, 99
5, 531836, Note_off_c, 3, 45, 64
5, 531836, Note_off_c, 3, 33, 64
5, 531840, Note_on_c, 3, 48, 92
5, 531840, Note_on_c, 3, 36, 96
5, 532220, Note_off_c, 3, 48, 64
5, 532220, Note_off_c, 3, 36, 64
5, 532224, Note_on_c, 3, 54, 92
5, 532224, Note_on_c, 3, 42, 93
5, 532604, Note_off_c, 3, 54, 64
5, 532604, Note_off_c, 3, 42, 64
5, 532608, Note_on_c, 3, 57, 92
5, 532608, Note_on_c, 3, 45, 92
5, 532988, Note_off_c, 3, 57, 64
5, 532988, Note_off_c, 3, 45, 64
5, 532992, Note_on_c, 3, 58, 92
5, 532992, Note_on_c, 3, 46, 92
5, 533372, Note_off_c, 3, 58, 64
5, 533372, Note_off_c, 3, 46, 64
5, 533376, Note_on_c, 3, 43, 92
5, 533376, Note_on_c, 3, 55, 92
5, 533756, Note_off_c, 3, 43, 64
5, 533756, Note_off_c, 3, 55, 64
5, 533760, Note_on_c, 3, 50, 92
5, 533760, Note_on_c, 3, 38, 95
5, 534140, Note_off_c, 3, 50, 64
5, 534140, Note_off_c, 3, 38, 64
5, 534144, Note_on_c, 3, 46, 92
5, 534144, Note_on_c, 3, 34, 97
5, 534524, Note_off_c, 3, 46, 64
5, 534524, Note_off_c, 3, 34, 64
5, 534528, Note_on_c, 3, 50, 92
5, 534528, Note_on_c, 3, 38, 95
5, 534908, Note_off_c, 3, 50, 64
5, 534908, Note_off_c, 3, 38, 64
5, 534912, Note_on_c, 3, 56, 92
5, 534912, Note_on_c, 3, 44, 92
5, 535292, Note_off_c, 3, 56, 64
5, 535292, Note_off_c, 3, 44, 64
5, 535296, Note_on_c, 3, 59, 92
5, 535296, Note_on_c, 3, 47, 92
5, 535676, Note_off_c, 3, 59, 64
5, 535676, Note_off_c, 3, 47, 64
5, 535680, Note_on_c, 3, 62, 92
5, 535680, Note_on_c, 3, 50, 92
5, 536060, Note_off_c, 3, 62, 64
5, 536060, Note_off_c, 3, 50, 64
5, 536064, Note_on_c, 3, 61, 92
5, 536064, Note_on_c, 3, 49, 92
5, 536444, Note_off_c, 3, 61, 64
5, 536444, Note_off_c, 3, 49, 64
5, 536832, Note_on_c, 3, 62, 92
5, 536832, Note_on_c, 3, 50, 92
5, 537212, Note_off_c, 3, 62, 64
5, 537212, Note_off_c, 3, 50, 64
5, 537600, Note_on_c, 3, 55, 92
5, 537600, Note_on_c, 3, 43, 92
5, 537980, Note_off_c, 3, 55, 64
5, 537980, Note_off_c, 3, 43, 64
5, 538368, Note_on_c, 3, 56, 92
5, 538368, Note_on_c, 3, 44, 92
5, 538748, Note_off_c, 3, 56, 64
5, 538748, Note_off_c, 3, 44, 64
5, 539136, Note_on_c, 3, 45, 92
5, 539136, Note_on_c, 3, 33, 99
5, 540284, Note_off_c, 3, 45, 64
5, 540284, Note_off_c, 3, 33, 64
5, 666624, Key_signature, 2, "major"
5, 666624, Note_on_c, 3, 45, 80
5, 666624, Note_on_c, 3, 45, 80
5, 667004, Note_off_c, 3, 45, 64
5, 667008, Note_on_c, 3, 57, 80
5, 667388, Note_off_c, 3, 57, 64
5, 667392, Note_on_c, 3, 56, 80
5, 667772, Note_off_c, 3, 56, 64
5, 667776, Note_on_c, 3, 57, 80
5, 668156, Note_off_c, 3, 45, 64
5, 668156, Note_off_c, 3, 57, 64
5, 668160, Note_on_c, 3, 61, 80
5, 668540, Note_off_c, 3, 61, 64
5, 668544, Note_on_c, 3, 57, 80
5, 668544, Note_on_c, 3, 57, 80
5, 668924, Note_off_c, 3, 57, 64
5, 668928, Note_on_c, 3, 61, 80
5, 669308, Note_off_c, 3, 57, 64
5, 669308, Note_off_c, 3, 61, 64
5, 669312, Note_on_c, 3, 57, 80
5, 669312, Note_on_c, 3, 57, 80
5, 669692, Note_off_c, 3, 57, 64
5, 669692, Note_off_c, 3, 57, 64
5, 669696, Note_on_c, 3, 62, 80
5, 670076, Note_off_c, 3, 62, 64
5, 670080, Note_on_c, 3, 57, 80
5, 670080, Note_on_c, 3, 57, 80
5, 670460, Note_off_c, 3, 57, 64
5, 670464, Note_on_c, 3, 66, 80
5, 670844, Note_off_c, 3, 57, 64
5, 670844, Note_off_c, 3, 66, 64
5, 670848, Note_on_c, 3, 57, 80
5, 670848, Note_on_c, 3, 57, 80
5, 671228, Note_off_c, 3, 57, 64
5, 671232, Note_on_c, 3, 64, 80
5, 671236, Note_off_c, 3, 57, 64
5, 671612, Note_off_c, 3, 64, 64
5, 671616, Note_on_c, 3, 57, 80
5, 671616, Note_on_c, 3, 57, 80
5, 671996, Note_off_c, 3, 57, 64
5, 672000, Note_on_c, 3, 62, 80
5, 672380, Note_off_c, 3, 57, 64
5, 672380, Note_off_c, 3, 62, 64
5, 672384, Note_on_c, 3, 57, 80
5, 672384, Note_on_c, 3, 57, 80
5, 672764, Note_off_c, 3, 57, 64
5, 672764, Note_off_c, 3, 57, 64
5, 672768, Note_on_c, 3, 61, 80
5, 673148, Note_off_c, 3, 61, 64
5, 673152, Note_on_c, 3, 57, 80
5, 673532, Note_off_c, 3, 57, 64
5, 673536, Note_on_c, 3, 52, 80
5, 673916, Note_off_c, 3, 52, 64
5, 673920, Note_on_c, 3, 49, 80
5, 674300, Note_off_c, 3, 49, 64
5, 674304, Note_on_c, 3, 45, 80
5, 674304, Note_on_c, 3, 45, 80
5, 674684, Note_off_c, 3, 45, 64
5, 674688, Note_on_c, 3, 57, 80
5, 675068, Note_off_c, 3, 45, 64
5, 675068, Note_off_c, 3, 57, 64
5, 675072, Note_on_c, 3, 61, 80
5, 675452, Note_off_c, 3, 61, 64
5, 675456, Note_on_c, 3, 57, 80
5, 675836, Note_off_c, 3, 57, 64
5, 675840, Note_on_c, 3, 62, 80
5, 676220, Note_off_c, 3, 62, 64
5, 676224, Note_on_c, 3, 57, 80
5, 676224, Note_on_c, 3, 50, 80
5, 676604, Note_off_c, 3, 57, 64
5, 676604, Note_off_c, 3, 50, 64
5, 676608, Note_on_c, 3, 47, 80
5, 676988, Note_off_c, 3, 47, 64
5, 676992, Note_on_c, 3, 59, 80
5, 677372, Note_off_c, 3, 59, 64
5, 677376, Note_on_c, 3, 45, 80
5, 677756, Note_off_c, 3, 45, 64
5, 677760, Note_on_c, 3, 62, 80
5, 677760, Note_on_c, 3, 62, 80
5, 678140, Note_off_c, 3, 62, 64
5, 678140, Note_off_c, 3, 62, 64
5, 678144, Note_on_c, 3, 61, 80
5, 678144, Note_on_c, 3, 57, 80
5, 678524, Note_off_c, 3, 61, 64
5, 678528, Note_on_c, 3, 67, 80
5, 678908, Note_off_c, 3, 57, 64
5, 678908, Note_off_c, 3, 67, 64
5, 678912, Note_on_c, 3, 62, 80
5, 678912, Note_on_c, 3, 54, 80
5, 678912, Note_on_c, 3, 50, 80
5, 679292, Note_off_c, 3, 62, 64
5, 679292, Note_off_c, 3, 54, 64
5, 679292, Note_off_c, 3, 50, 64
5, 680448, Note_on_c, 3, 49, 80
5, 680448, Note_on_c, 3, 37, 84
5, 680828, Note_off_c, 3, 49, 64
5, 680828, Note_off_c, 3, 37, 64
5, 681216, Note_on_c, 3, 45, 80
5, 681216, Note_on_c, 3, 33, 86
5, 681596, Note_off_c, 3, 45, 64
5, 681596, Note_off_c, 3, 33, 64
5, 681984, Note_on_c, 3, 50, 80
5, 681984, Note_on_c, 3, 38, 83
5, 682364, Note_off_c, 3, 50, 64
5, 682364, Note_off_c, 3, 38, 64
5, 682752, Note_on_c, 3, 48, 80
5, 682752, Note_on_c, 3, 36, 84
5, 683132, Note_off_c, 3, 48, 64
5, 683132, Note_off_c, 3, 36, 64
5, 683520, Note_on_c, 3, 47, 80
5, 683520, Note_on_c, 3, 35, 85
5, 683900, Note_off_c, 3, 47, 64
5, 683900, Note_off_c, 3, 35, 64
5, 684288, Note_on_c, 3, 50, 80
5, 684288, Note_on_c, 3, 38, 83
5, 684668, Note_off_c, 3, 50, 64
5, 684668, Note_off_c, 3, 38, 64
5, 685056, Note_on_c, 3, 49, 80
5, 685056, Note_on_c, 3, 37, 84
5, 685436, Note_off_c, 3, 49, 64
5, 685436, Note_off_c, 3, 37, 64
5, 685824, Note_on_c, 3, 45, 80
5, 685824, Note_on_c, 3, 33, 80
5, 686204, Note_off_c, 3, 45, 64
5, 686204, Note_off_c, 3, 33, 64
5, 687360, Note_on_c, 3, 61, 80
5, 687360, Note_on_c, 3, 49, 80
5, 687740, Note_off_c, 3, 61, 64
5, 687740, Note_off_c, 3, 49, 64
5, 688128, Note_on_c, 3, 62, 80
5, 688128, Note_on_c, 3, 50, 80
5, 688508, Note_off_c, 3, 62, 64
5, 688508, Note_off_c, 3, 50, 64
5, 688896, Note_on_c, 3, 59, 80
5, 688896, Note_on_c, 3, 47, 80
5, 689276, Note_off_c, 3, 59, 64
5, 689276, Note_off_c, 3, 47, 64
5, 689664, Note_on_c, 3, 57, 80
5, 689664, Note_on_c, 3, 45, 80
5, 690044, Note_off_c, 3, 57, 64
5, 690044, Note_off_c, 3, 45, 64
5, 690432, Note_on_c, 3, 45, 80
5, 690432, Note_on_c, 3, 33, 86
5, 690812, Note_off_c, 3, 45, 64
5, 690812, Note_off_c, 3, 33, 64
5, 691200, Note_on_c, 3, 50, 92
5, 691200, Note_on_c, 3, 38, 95
5, 691388, Note_off_c, 3, 50, 64
5, 691388, Note_off_c, 3, 38, 64
5, 691584, Note_on_c, 3, 62, 92
5, 691584, Note_on_c, 3, 50, 92
5, 691772, Note_off_c, 3, 62, 64
5, 691772, Note_off_c, 3, 50, 64
5, 691968, Note_on_c, 3, 62, 92
5, 691968, Note_on_c, 3, 50, 92
5, 692156, Note_off_c, 3, 62, 64
5, 692156, Note_off_c, 3, 50, 64
5, 692352, Note_on_c, 3, 62, 92
5, 692352, Note_on_c, 3, 50, 92
5, 692540, Note_off_c, 3, 62, 64
5, 692540, Note_off_c, 3, 50, 64
5, 692736, Note_on_c, 3, 59, 92
5, 692736, Note_on_c, 3, 47, 92
5, 692924, Note_off_c, 3, 59, 64
5, 692924, Note_off_c, 3, 47, 64
5, 693120, Note_on_c, 3, 62, 92
5, 693120, Note_on_c, 3, 50, 92
5, 693308, Note_off_c, 3, 62, 64
5, 693308, Note_off_c, 3, 50, 64
5, 693504, Note_on_c, 3, 55, 92
5, 693504, Note_on_c, 3, 43, 92
5, 693692, Note_off_c, 3, 55, 64
5, 693692, Note_off_c, 3, 43, 64
5, 693888, Note_on_c, 3, 62, 92
5, 693888, Note_on_c, 3, 50, 92
5, 694076, Note_off_c, 3, 62, 64
5, 694076, Note_off_c, 3, 50, 64
5, 694272, Note_on_c, 3, 54, 92
5, 694272, Note_on_c, 3, 42, 92
5, 694460, Note_off_c, 3, 54, 64
5, 694460, Note_off_c, 3, 42, 64
5, 694656, Note_on_c, 3, 62, 92
5, 694656, Note_on_c, 3, 50, 95
5, 694844, Note_off_c, 3, 62, 64
5, 694844, Note_off_c, 3, 50, 64
5, 695040, Note_on_c, 3, 50, 92
5, 695040, Note_on_c, 3, 38, 92
5, 695228, Note_off_c, 3, 50, 64
5, 695228, Note_off_c, 3, 38, 64
5, 695424, Note_on_c, 3, 62, 92
5, 695424, Note_on_c, 3, 50, 92
5, 695612, Note_off_c, 3, 62, 64
5, 695612, Note_off_c, 3, 50, 64
5, 695808, Note_on_c, 3, 59, 92
5, 695808, Note_on_c, 3, 47, 92
5, 695996, Note_off_c, 3, 59, 64
5, 695996, Note_off_c, 3, 47, 64
5, 696192, Note_on_c, 3, 62, 92
5, 696192, Note_on_c, 3, 50, 92
5, 696380, Note_off_c, 3, 62, 64
5, 696380, Note_off_c, 3, 50, 64
5, 696576, Note_on_c, 3, 55, 92
5, 696576, Note_on_c, 3, 43, 92
5, 696764, Note_off_c, 3, 55, 64
5, 696764, Note_off_c, 3, 43, 64
5, 696960, Note_on_c, 3, 62, 92
5, 696960, Note_on_c, 3, 50, 92
5, 697148, Note_off_c, 3, 62, 64
5, 697148, Note_off_c, 3, 50, 64
5, 697344, Note_on_c, 3, 54, 92
5, 697344, Note_on_c, 3, 42, 93
5, 697532, Note_off_c, 3, 54, 64
5, 697532, Note_off_c, 3, 42, 64
5, 697728, Note_on_c, 3, 62, 92
5, 697728, Note_on_c, 3, 50, 92
5, 697916, Note_off_c, 3, 62, 64
5, 697916, Note_off_c, 3, 50, 64
5, 698112, Note_on_c, 3, 50, 92
5, 698112, Note_on_c, 3, 38, 95
5, 698300, Note_off_c, 3, 50, 64
5, 698300, Note_off_c, 3, 38, 64
5, 698496, Note_on_c, 3, 62, 92
5, 698496, Note_on_c, 3, 50, 92
5, 698684, Note_off_c, 3, 62, 64
5, 698684, Note_off_c, 3, 50, 64
5, 698880, Note_on_c, 3, 59, 92
5, 698880, Note_on_c, 3, 47, 92
5, 699068, Note_off_c, 3, 59, 64
5, 699068, Note_off_c, 3, 47, 64
5, 699264, Note_on_c, 3, 62, 92
5, 699264, Note_on_c, 3, 50, 92
5, 699452, Note_off_c, 3, 62, 64
5, 699452, Note_off_c, 3, 50, 64
5, 699648, Note_on_c, 3, 55, 92
5, 699648, Note_on_c, 3, 43, 92
5, 699836, Note_off_c, 3, 55, 64
5, 699836, Note_off_c, 3, 43, 64
5, 700032, Note_on_c, 3, 62, 92
5, 700032, Note_on_c, 3, 50, 92
5, 700220, Note_off_c, 3, 62, 64
5, 700220, Note_off_c, 3, 50, 64
5, 700416, Note_on_c, 3, 50, 71
5, 700416, Note_on_c, 3, 38, 78
5, 700796, Note_off_c, 3, 50, 64
5, 700796, Note_off_c, 3, 38, 64
5, 701952, Note_on_c, 3, 67, 71
5, 701952, Note_on_c, 3, 64, 71
5, 703484, Note_off_c, 3, 67, 64
5, 703484, Note_off_c, 3, 64, 64
5, 703488, Note_on_c, 3, 66, 71
5, 703488, Note_on_c, 3, 62, 71
5, 705020, Note_off_c, 3, 66, 64
5, 705020, Note_off_c, 3, 62, 64
5, 705024, Note_on_c, 3, 67, 71
5, 705024, Note_on_c, 3, 64, 71
5, 705024, Note_on_c, 3, 55, 71
5, 706556, Note_off_c, 3, 67, 64
5, 706556, Note_off_c, 3, 64, 64
5, 706556, Note_off_c, 3, 55, 64
5, 706560, Note_on_c, 3, 54, 71
5, 706560, Note_on_c, 3, 57, 71
5, 706560, Note_on_c, 3, 45, 71
5, 708092, Note_off_c, 3, 54, 64
5, 708096, Note_on_c, 3, 52, 71
5, 709628, Note_off_c, 3, 45, 64
5, 709628, Note_off_c, 3, 57, 64
5, 709628, Note_off_c, 3, 52, 64
5, 709632, Note_on_c, 3, 50, 92
5, 709632, Note_on_c, 3, 38, 95
5, 709820, Note_off_c, 3, 50, 64
5, 709820, Note_off_c, 3, 38, 64
5, 710016, Note_on_c, 3, 62, 92
5, 710016, Note_on_c, 3, 50, 92
5, 710204, Note_off_c, 3, 62, 64
5, 710204, Note_off_c, 3, 50, 64
5, 710400, Note_on_c, 3, 62, 92
5, 710400, Note_on_c, 3, 50, 92
5, 710588, Note_off_c, 3, 62, 64
5, 710588, Note_off_c, 3, 50, 64
5, 710784, Note_on_c, 3, 62, 92
5, 710784, Note_on_c, 3, 50, 92
5, 710972, Note_off_c, 3, 62, 64
5, 710972, Note_off_c, 3, 50, 64
5, 711168, Note_on_c, 3, 59, 92
5, 711168, Note_on_c, 3, 47, 92
5, 711356, Note_off_c, 3, 59, 64
5, 711356, Note_off_c, 3, 47, 64
5, 711552, Note_on_c, 3, 62, 92
5, 711552, Note_on_c, 3, 50, 92
5, 711740, Note_off_c, 3, 62, 64
5, 711740, Note_off_c, 3, 50, 64
5, 711936, Note_on_c, 3, 55, 92
5, 711936, Note_on_c, 3, 43, 92
5, 712124, Note_off_c, 3, 55, 64
5, 712124, Note_off_c, 3, 43, 64
5, 712320, Note_on_c, 3, 62, 92
5, 712320, Note_on_c, 3, 50, 92
5, 712508, Note_off_c, 3, 62, 64
5, 712508, Note_off_c, 3, 50, 64
5, 712704, Note_on_c, 3, 54, 92
5, 712704, Note_on_c, 3, 43, 92
5, 712892, Note_off_c, 3, 54, 64
5, 712892, Note_off_c, 3, 43, 64
5, 713088, Note_on_c, 3, 62, 92
5, 713088, Note_on_c, 3, 50, 92
5, 713276, Note_off_c, 3, 62, 64
5, 713276, Note_off_c, 3, 50, 64
5, 713472, Note_on_c, 3, 50, 92
5, 713472, Note_on_c, 3, 38, 95
5, 713660, Note_off_c, 3, 50, 64
5, 713660, Note_off_c, 3, 38, 64
5, 713856, Note_on_c, 3, 50, 92
5, 713856, Note_on_c, 3, 62, 92
5, 714044, Note_off_c, 3, 50, 64
5, 714044, Note_off_c, 3, 62, 64
5, 714240, Note_on_c, 3, 59, 92
5, 714240, Note_on_c, 3, 47, 92
5, 714428, Note_off_c, 3, 59, 64
5, 714428, Note_off_c, 3, 47, 64
5, 714624, Note_on_c, 3, 62, 92
5, 714624, Note_on_c, 3, 50, 92
5, 714812, Note_off_c, 3, 62, 64
5, 714812, Note_off_c, 3, 50, 64
5, 715008, Note_on_c, 3, 55, 92
5, 715008, Note_on_c, 3, 43, 92
5, 715196, Note_off_c, 3, 55, 64
5, 715196, Note_off_c, 3, 43, 64
5, 715392, Note_on_c, 3, 62, 92
5, 715392, Note_on_c, 3, 50, 92
5, 715580, Note_off_c, 3, 62, 64
5, 715580, Note_off_c, 3, 50, 64
5, 715776, Note_on_c, 3, 54, 92
5, 715776, Note_on_c, 3, 42, 93
5, 715964, Note_off_c, 3, 54, 64
5, 715964, Note_off_c, 3, 42, 64
5, 716160, Note_on_c, 3, 62, 92
5, 716160, Note_on_c, 3, 50, 92
5, 716348, Note_off_c, 3, 62, 64
5, 716348, Note_off_c, 3, 50, 64
5, 716544, Note_on_c, 3, 50, 92
5, 716544, Note_on_c, 3, 38, 95
5, 716732, Note_off_c, 3, 50, 64
5, 716732, Note_off_c, 3, 38, 64
5, 716928, Note_on_c, 3, 50, 92
5, 716928, Note_on_c, 3, 62, 92
5, 717116, Note_off_c, 3, 50, 64
5, 717116, Note_off_c, 3, 62, 64
5, 717312, Note_on_c, 3, 59, 92
5, 717312, Note_on_c, 3, 47, 92
5, 717500, Note_off_c, 3, 59, 64
5, 717500, Note_off_c, 3, 47, 64
5, 717696, Note_on_c, 3, 62, 92
5, 717696, Note_on_c, 3, 50, 92
5, 717884, Note_off_c, 3, 62, 64
5, 717884, Note_off_c, 3, 50, 64
5, 718080, Note_on_c, 3, 55, 92
5, 718080, Note_on_c, 3, 43, 92
5, 718268, Note_off_c, 3, 55, 64
5, 718268, Note_off_c, 3, 43, 64
5, 718464, Note_on_c, 3, 62, 92
5, 718464, Note_on_c, 3, 50, 92
5, 718652, Note_off_c, 3, 62, 64
5, 718652, Note_off_c, 3, 50, 64
5, 718848, Note_on_c, 3, 50, 71
5, 718848, Note_on_c, 3, 38, 71
5, 719228, Note_off_c, 3, 50, 64
5, 719228, Note_off_c, 3, 38, 64
5, 720384, Note_on_c, 3, 67, 71
5, 720384, Note_on_c, 3, 64, 71
5, 721916, Note_off_c, 3, 67, 64
5, 721916, Note_off_c, 3, 64, 64
5, 721920, Note_on_c, 3, 66, 71
5, 721920, Note_on_c, 3, 62, 71
5, 723452, Note_off_c, 3, 66, 64
5, 723452, Note_off_c, 3, 62, 64
5, 723456, Note_on_c, 3, 67, 71
5, 723456, Note_on_c, 3, 64, 71
5, 723456, Note_on_c, 3, 55, 71
5, 724988, Note_off_c, 3, 67, 64
5, 724988, Note_off_c, 3, 64, 64
5, 724988, Note_off_c, 3, 55, 64
5, 724992, Note_on_c, 3, 54, 71
5, 724992, Note_on_c, 3, 57, 71
5, 724992, Note_on_c, 3, 45, 71
5, 726524, Note_off_c, 3, 54, 64
5, 726528, Note_on_c, 3, 52, 71
5, 728060, Note_off_c, 3, 45, 64
5, 728060, Note_off_c, 3, 57, 64
5, 728060, Note_off_c, 3, 52, 64
5, 728064, Note_on_c, 3, 50, 71
5, 728064, Note_on_c, 3, 38, 78
5, 729596, Note_off_c, 3, 50, 64
5, 729596, Note_off_c, 3, 38, 64
5, 729600, Note_on_c, 3, 49, 71
5, 729600, Note_on_c, 3, 37, 79
5, 731132, Note_off_c, 3, 49, 64
5, 731132, Note_off_c, 3, 37, 64
5, 731136, Note_on_c, 3, 50, 71
5, 731136, Note_on_c, 3, 38, 78
5, 732668, Note_off_c, 3, 50, 64
5, 732668, Note_off_c, 3, 38, 64
5, 732672, Note_on_c, 3, 55, 71
5, 732672, Note_on_c, 3, 43, 74
5, 734204, Note_off_c, 3, 55, 64
5, 734204, Note_off_c, 3, 43, 64
5, 734208, Note_on_c, 3, 54, 71
5, 734208, Note_on_c, 3, 42, 75
5, 735740, Note_off_c, 3, 54, 64
5, 735740, Note_off_c, 3, 42, 64
5, 735744, Note_on_c, 3, 49, 71
5, 735744, Note_on_c, 3, 37, 79
5, 737276, Note_off_c, 3, 49, 64
5, 737276, Note_off_c, 3, 37, 64
5, 737280, Note_on_c, 3, 50, 71
5, 737280, Note_on_c, 3, 38, 78
5, 738812, Note_off_c, 3, 50, 64
5, 738812, Note_off_c, 3, 38, 64
5, 738816, Note_on_c, 3, 45, 74
5, 738816, Note_on_c, 3, 33, 81
5, 740348, Note_off_c, 3, 45, 64
5, 740348, Note_off_c, 3, 33, 64
5, 740352, Note_on_c, 3, 54, 71
5, 741116, Note_off_c, 3, 54, 64
5, 741120, Note_on_c, 3, 50, 71
5, 741884, Note_off_c, 3, 50, 64
5, 741888, Note_on_c, 3, 49, 71
5, 741888, Note_on_c, 3, 37, 79
5, 742268, Note_off_c, 3, 49, 64
5, 742268, Note_off_c, 3, 37, 64
5, 742272, Note_on_c, 3, 57, 71
5, 742652, Note_off_c, 3, 57, 64
5, 742656, Note_on_c, 3, 69, 71
5, 743036, Note_off_c, 3, 69, 64
5, 743040, Note_on_c, 3, 57, 71
5, 743420, Note_off_c, 3, 57, 64
5, 743424, Note_on_c, 3, 50, 71
5, 743424, Note_on_c, 3, 38, 78
5, 743804, Note_off_c, 3, 50, 64
5, 743804, Note_off_c, 3, 38, 64
5, 743808, Note_on_c, 3, 57, 71
5, 744188, Note_off_c, 3, 57, 64
5, 744192, Note_on_c, 3, 69, 71
5, 744572, Note_off_c, 3, 69, 64
5, 744576, Note_on_c, 3, 57, 71
5, 744956, Note_off_c, 3, 57, 64
5, 744960, Note_on_c, 3, 55, 71
5, 744960, Note_on_c, 3, 43, 77
5, 745340, Note_off_c, 3, 55, 64
5, 745340, Note_off_c, 3, 43, 64
5, 745344, Note_on_c, 3, 57, 71
5, 745724, Note_off_c, 3, 57, 64
5, 745728, Note_on_c, 3, 69, 71
5, 746108, Note_off_c, 3, 69, 64
5, 746112, Note_on_c, 3, 57, 71
5, 746492, Note_off_c, 3, 57, 64
5, 746496, Note_on_c, 3, 54, 71
5, 746496, Note_on_c, 3, 42, 75
5, 746876, Note_off_c, 3, 54, 64
5, 746876, Note_off_c, 3, 42, 64
5, 746880, Note_on_c, 3, 57, 71
5, 747260, Note_off_c, 3, 57, 64
5, 747264, Note_on_c, 3, 69, 71
5, 747644, Note_off_c, 3, 69, 64
5, 747648, Note_on_c, 3, 57, 71
5, 748028, Note_off_c, 3, 57, 64
5, 748032, Note_on_c, 3, 49, 71
5, 748032, Note_on_c, 3, 37, 79
5, 748412, Note_off_c, 3, 49, 64
5, 748412, Note_off_c, 3, 37, 64
5, 748416, Note_on_c, 3, 57, 71
5, 748796, Note_off_c, 3, 57, 64
5, 748800, Note_on_c, 3, 69, 71
5, 749180, Note_off_c, 3, 69, 64
5, 749184, Note_on_c, 3, 57, 71
5, 749564, Note_off_c, 3, 57, 64
5, 749568, Note_on_c, 3, 50, 71
5, 749568, Note_on_c, 3, 38, 78
5, 749948, Note_off_c, 3, 50, 64
5, 749948, Note_off_c, 3, 38, 64
5, 749952, Note_on_c, 3, 57, 71
5, 750332, Note_off_c, 3, 57, 64
5, 750336, Note_on_c, 3, 69, 71
5, 750716, Note_off_c, 3, 69, 64
5, 750720, Note_on_c, 3, 57, 71
5, 751100, Note_off_c, 3, 57, 64
5, 751104, Note_on_c, 3, 45, 71
5, 751104, Note_on_c, 3, 33, 81
5, 751484, Note_off_c, 3, 45, 64
5, 751484, Note_off_c, 3, 33, 64
5, 751488, Note_on_c, 3, 57, 71
5, 751868, Note_off_c, 3, 57, 64
5, 751872, Note_on_c, 3, 57, 71
5, 752252, Note_off_c, 3, 57, 64
5, 752256, Note_on_c, 3, 57, 71
5, 752636, Note_off_c, 3, 57, 64
5, 752640, Note_on_c, 3, 54, 71
5, 753404, Note_off_c, 3, 54, 64
5, 753408, Note_on_c, 3, 50, 71
5, 754172, Note_off_c, 3, 50, 64
5, 754176, Note_on_c, 3, 57, 71
5, 754176, Note_on_c, 3, 45, 74
5, 754556, Note_off_c, 3, 57, 64
5, 754556, Note_off_c, 3, 45, 64
5, 754560, Note_on_c, 3, 57, 71
5, 754560, Note_on_c, 3, 45, 74
5, 754940, Note_off_c, 3, 57, 64
5, 754940, Note_off_c, 3, 45, 64
5, 754944, Note_on_c, 3, 57, 71
5, 754944, Note_on_c, 3, 45, 74
5, 755324, Note_off_c, 3, 57, 64
5, 755324, Note_off_c, 3, 45, 64
5, 755328, Note_on_c, 3, 57, 71
5, 755328, Note_on_c, 3, 45, 74
5, 755708, Note_off_c, 3, 57, 64
5, 755708, Note_off_c, 3, 45, 64
5, 755712, Note_on_c, 3, 54, 73
5, 755712, Note_on_c, 3, 42, 78
5, 756476, Note_off_c, 3, 54, 64
5, 756476, Note_off_c, 3, 42, 64
5, 756480, Note_on_c, 3, 50, 70
5, 756480, Note_on_c, 3, 38, 78
5, 757244, Note_off_c, 3, 50, 64
5, 757244, Note_off_c, 3, 38, 64
5, 757248, Note_on_c, 3, 69, 71
5, 757248, Note_on_c, 3, 57, 71
5, 757628, Note_off_c, 3, 69, 64
5, 757628, Note_off_c, 3, 57, 64
5, 757632, Note_on_c, 3, 69, 71
5, 757632, Note_on_c, 3, 57, 71
5, 758012, Note_off_c, 3, 69, 64
5, 758012, Note_off_c, 3, 57, 64
5, 758016, Note_on_c, 3, 69, 71
5, 758016, Note_on_c, 3, 57, 71
5, 758396, Note_off_c, 3, 69, 64
5, 758396, Note_off_c, 3, 57, 64
5, 758400, Note_on_c, 3, 69, 71
5, 758400, Note_on_c, 3, 57, 71
5, 758780, Note_off_c, 3, 69, 64
5, 758780, Note_off_c, 3, 57, 64
5, 758784, Note_on_c, 3, 66, 71
5, 758784, Note_on_c, 3, 54, 71
5, 759548, Note_off_c, 3, 66, 64
5, 759548, Note_off_c, 3, 54, 64
5, 759552, Note_on_c, 3, 62, 71
5, 759552, Note_on_c, 3, 50, 71
5, 760316, Note_off_c, 3, 62, 64
5, 760316, Note_off_c, 3, 50, 64
5, 760320, Note_on_c, 3, 57, 71
5, 760320, Note_on_c, 3, 45, 71
5, 760700, Note_off_c, 3, 57, 64
5, 760700, Note_off_c, 3, 45, 64
5, 760704, Note_on_c, 3, 57, 71
5, 760704, Note_on_c, 3, 45, 71
5, 761084, Note_off_c, 3, 57, 64
5, 761084, Note_off_c, 3, 45, 64
5, 761088, Note_on_c, 3, 57, 71
5, 761088, Note_on_c, 3, 45, 71
5, 761468, Note_off_c, 3, 57, 64
5, 761468, Note_off_c, 3, 45, 64
5, 761472, Note_on_c, 3, 57, 71
5, 761472, Note_on_c, 3, 45, 71
5, 761852, Note_off_c, 3, 57, 64
5, 761852, Note_off_c, 3, 45, 64
5, 761856, Note_on_c, 3, 54, 71
5, 761856, Note_on_c, 3, 42, 71
5, 762620, Note_off_c, 3, 54, 64
5, 762620, Note_off_c, 3, 42, 64
5, 762624, Note_on_c, 3, 50, 71
5, 762624, Note_on_c, 3, 38, 71
5, 763388, Note_off_c, 3, 50, 64
5, 763388, Note_off_c, 3, 38, 64
5, 763392, Note_on_c, 3, 57, 71
5, 763392, Note_on_c, 3, 69, 71
5, 763772, Note_off_c, 3, 57, 64
5, 763772, Note_off_c, 3, 69, 64
5, 763776, Note_on_c, 3, 57, 71
5, 763776, Note_on_c, 3, 69, 71
5, 764156, Note_off_c, 3, 57, 64
5, 764156, Note_off_c, 3, 69, 64
5, 764160, Note_on_c, 3, 69, 71
5, 764160, Note_on_c, 3, 57, 71
5, 764540, Note_off_c, 3, 69, 64
5, 764540, Note_off_c, 3, 57, 64
5, 764544, Note_on_c, 3, 69, 71
5, 764544, Note_on_c, 3, 57, 71
5, 764924, Note_off_c, 3, 69, 64
5, 764924, Note_off_c, 3, 57, 64
5, 764928, Note_on_c, 3, 50, 71
5, 764928, Note_on_c, 3, 38, 71
5, 765308, Note_off_c, 3, 50, 64
5, 765312, Note_on_c, 3, 50, 71
5, 765692, Note_off_c, 3, 50, 64
5, 765696, Note_on_c, 3, 50, 71
5, 766076, Note_off_c, 3, 50, 64
5, 766080, Note_on_c, 3, 50, 71
5, 766460, Note_off_c, 3, 50, 64
5, 766464, Note_on_c, 3, 47, 71
5, 767228, Note_off_c, 3, 47, 64
5, 767232, Note_on_c, 3, 43, 71
5, 767996, Note_off_c, 3, 43, 64
5, 768000, Note_on_c, 3, 50, 71
5, 768768, Note_on_c, 3, 54, 71
5, 769532, Note_off_c, 3, 38, 64
5, 769532, Note_off_c, 3, 54, 64
5, 769536, Note_on_c, 3, 55, 71
5, 770300, Note_off_c, 3, 55, 64
5, 770304, Note_on_c, 3, 59, 71
5, 771068, Note_off_c, 3, 59, 64
5, 771072, Note_on_c, 3, 60, 71
5, 771836, Note_off_c, 3, 60, 64
5, 771840, Note_on_c, 3, 57, 71
5, 772604, Note_off_c, 3, 57, 64
5, 772608, Note_on_c, 3, 55, 71
5, 773372, Note_off_c, 3, 55, 64
5, 773376, Note_on_c, 3, 59, 71
5, 774140, Note_off_c, 3, 50, 64
5, 774140, Note_off_c, 3, 59, 64
5, 774144, Note_on_c, 3, 45, 92
5, 774144, Note_on_c, 3, 43, 92
5, 774144, Note_on_c, 3, 38, 92
5, 774332, Note_off_c, 3, 45, 64
5, 774332, Note_off_c, 3, 43, 64
5, 774332, Note_off_c, 3, 38, 64
5, 774336, Note_on_c, 3, 49, 92
5, 774524, Note_off_c, 3, 49, 64
5, 774528, Note_on_c, 3, 45, 92
5, 774528, Note_on_c, 3, 43, 92
5, 774528, Note_on_c, 3, 38, 92
5, 774716, Note_off_c, 3, 45, 64
5, 774716, Note_off_c, 3, 43, 64
5, 774716, Note_off_c, 3, 38, 64
5, 774720, Note_on_c, 3, 49, 92
5, 774908, Note_off_c, 3, 49, 64
5, 774912, Note_on_c, 3, 45, 92
5, 774912, Note_on_c, 3, 43, 92
5, 774912, Note_on_c, 3, 38, 92
5, 775100, Note_off_c, 3, 45, 64
5, 775100, Note_off_c, 3, 43, 64
5, 775100, Note_off_c, 3, 38, 64
5, 775104, Note_on_c, 3, 49, 92
5, 775292, Note_off_c, 3, 49, 64
5, 775296, Note_on_c, 3, 45, 92
5, 775296, Note_on_c, 3, 43, 92
5, 775296, Note_on_c, 3, 38, 92
5, 775484, Note_off_c, 3, 45, 64
5, 775484, Note_off_c, 3, 43, 64
5, 775484, Note_off_c, 3, 38, 64
5, 775488, Note_on_c, 3, 49, 92
5, 775676, Note_off_c, 3, 49, 64
5, 775680, Note_on_c, 3, 45, 92
5, 775680, Note_on_c, 3, 43, 92
5, 775680, Note_on_c, 3, 38, 92
5, 775868, Note_off_c, 3, 45, 64
5, 775868, Note_off_c, 3, 43, 64
5, 775868, Note_off_c, 3, 38, 64
5, 775872, Note_on_c, 3, 49, 92
5, 776060, Note_off_c, 3, 49, 64
5, 776064, Note_on_c, 3, 45, 92
5, 776064, Note_on_c, 3, 43, 92
5, 776064, Note_on_c, 3, 38, 92
5, 776252, Note_off_c, 3, 45, 64
5, 776252, Note_off_c, 3, 43, 64
5, 776252, Note_off_c, 3, 38, 64
5, 776256, Note_on_c, 3, 49, 92
5, 776444, Note_off_c, 3, 49, 64
5, 776448, Note_on_c, 3, 45, 92
5, 776448, Note_on_c, 3, 43, 92
5, 776448, Note_on_c, 3, 38, 92
5, 776636, Note_off_c, 3, 45, 64
5, 776636, Note_off_c, 3, 43, 64
5, 776636, Note_off_c, 3, 38, 64
5, 776640, Note_on_c, 3, 49, 92
5, 776828, Note_off_c, 3, 49, 64
5, 776832, Note_on_c, 3, 45, 92
5, 776832, Note_on_c, 3, 43, 92
5, 776832, Note_on_c, 3, 38, 92
5, 777020, Note_off_c, 3, 45, 64
5, 777020, Note_off_c, 3, 43, 64
5, 777020, Note_off_c, 3, 38, 64
5, 777024, Note_on_c, 3, 49, 92
5, 777212, Note_off_c, 3, 49, 64
5, 777216, Note_on_c, 3, 50, 92
5, 777216, Note_on_c, 3, 45, 92
5, 777216, Note_on_c, 3, 42, 92
5, 777216, Note_on_c, 3, 38, 92
5, 777596, Note_off_c, 3, 50, 64
5, 777596, Note_off_c, 3, 45, 64
5, 777596, Note_off_c, 3, 42, 64
5, 777596, Note_off_c, 3, 38, 64
5, 778752, Note_on_c, 3, 45, 96
5, 778776, Note_on_c, 3, 52, 94
5, 778804, Note_on_c, 3, 61, 92
5, 779132, Note_off_c, 3, 45, 64
5, 779156, Note_off_c, 3, 52, 64
5, 779184, Note_off_c, 3, 61, 64
5, 780288, Note_on_c, 3, 38, 99
5, 780332, Note_off_c, 3, 38, 64
5, 780336, Note_on_c, 3, 50, 99
5, 780380, Note_off_c, 3, 50, 64
5, 780384, Note_on_c, 3, 62, 94
5, 780384, Note_on_c, 3, 54, 94
5, 780764, Note_off_c, 3, 62, 64
5, 780764, Note_off_c, 3, 54, 64
5, 780764, End_track
0, 0, End_of_file
