0, 0, Header, 1, 6, 384
1, 0, Start_track
1, 0, Time_signature, 4, 2, 96, 8
1, 0, Sequencer_specific, 3, 0, 0, 65
1, 0, Sequencer_specific, 5, 0, 0, 119, 14, 0
1, 0, Tempo, 500000
1, 499200, Tempo, 517241
1, 500736, Tempo, 600000
1, 502272, Tempo, 750000
1, 503808, Tempo, 500000
1, 519168, Tempo, 638297
1, 521088, Tempo, 500000
1, 524160, Tempo, 468750
1, 526848, Tempo, 769230
1, 528384, Tempo, 500000
1, 529920, Tempo, 508474
1, 554496, Tempo, 1500000
1, 554876, Tempo, 500000
1, 557276, Tempo, 3000000
1, 557468, Tempo, 468750
1, 559104, Tempo, 508474
1, 562176, Tempo, 500000
1, 592896, Tempo, 526315
1, 594432, Tempo, 545454
1, 594432, End_track
2, 0, Start_track
2, 0, Title_t, "Mozart - Piano"
2, 0, Control_c, 0, 0, 0
2, 0, Program_c, 0, 0
2, 0, Control_c, 0, 7, 127
2, 0, Control_c, 0, 10, 63
2, 0, Control_c, 0, 91, 67
2, 0, Control_c, 0, 93, 31
2, 0, Key_signature, 1, "major"
2, 0, Control_c, 0, 121, 0
2, 384, Control_c, 0, 10, 63
2, 480, Control_c, 0, 91, 63
2, 576, Control_c, 0, 93, 35
2, 672, Program_c, 0, 0
2, 114144, Note_on_c, 0, 62, 66
2, 114236, Note_off_c, 0, 62, 0
2, 114240, Note_on_c, 0, 64, 66
2, 114332, Note_off_c, 0, 64, 0
2, 114336, Note_on_c, 0, 66, 66
2, 114428, Note_off_c, 0, 66, 0
2, 114432, Note_on_c, 0, 67, 66
2, 114524, Note_off_c, 0, 67, 0
2, 114528, Note_on_c, 0, 66, 66
2, 114620, Note_off_c, 0, 66, 0
2, 114624, Note_on_c, 0, 69, 66
2, 114716, Note_off_c, 0, 69, 0
2, 114720, Note_on_c, 0, 67, 66
2, 114812, Note_off_c, 0, 67, 0
2, 114816, Note_on_c, 0, 71, 66
2, 114908, Note_off_c, 0, 71, 0
2, 114912, Note_on_c, 0, 69, 66
2, 115004, Note_off_c, 0, 69, 0
2, 115008, Note_on_c, 0, 72, 66
2, 115100, Note_off_c, 0, 72, 0
2, 115104, Note_on_c, 0, 71, 66
2, 115196, Note_off_c, 0, 71, 0
2, 115200, Note_on_c, 0, 74, 66
2, 115580, Note_off_c, 0, 74, 0
2, 115584, Note_on_c, 0, 71, 70
2, 115624, Note_off_c, 0, 71, 0
2, 115632, Note_on_c, 0, 72, 70
2, 115672, Note_off_c, 0, 72, 0
2, 115680, Note_on_c, 0, 71, 70
2, 115720, Note_off_c, 0, 71, 0
2, 115728, Note_on_c, 0, 72, 70
2, 115768, Note_off_c, 0, 72, 0
2, 115776, Note_on_c, 0, 71, 70
2, 115864, Note_off_c, 0, 71, 0
2, 115872, Note_on_c, 0, 72, 70
2, 115960, Note_off_c, 0, 72, 0
2, 115968, Note_on_c, 0, 74, 66
2, 116348, Note_off_c, 0, 74, 0
2, 116352, Note_on_c, 0, 74, 66
2, 116540, Note_off_c, 0, 74, 0
2, 116736, Note_on_c, 0, 74, 66
2, 117884, Note_off_c, 0, 74, 0
2, 117888, Note_on_c, 0, 78, 66
2, 118172, Note_off_c, 0, 78, 0
2, 118176, Note_on_c, 0, 79, 66
2, 118268, Note_off_c, 0, 79, 0
2, 118272, Note_on_c, 0, 79, 66
2, 118460, Note_off_c, 0, 79, 0
2, 118656, Note_on_c, 0, 82, 66
2, 118940, Note_off_c, 0, 82, 0
2, 118944, Note_on_c, 0, 83, 66
2, 119036, Note_off_c, 0, 83, 0
2, 119040, Note_on_c, 0, 83, 66
2, 119228, Note_off_c, 0, 83, 0
2, 119424, Note_on_c, 0, 79, 66
2, 119612, Note_off_c, 0, 79, 0
2, 119808, Note_on_c, 0, 77, 66
2, 120188, Note_off_c, 0, 77, 0
2, 120192, Note_on_c, 0, 76, 66
2, 120572, Note_off_c, 0, 76, 0
2, 121344, Note_on_c, 0, 76, 66
2, 121724, Note_off_c, 0, 76, 0
2, 121728, Note_on_c, 0, 72, 70
2, 121768, Note_off_c, 0, 72, 0
2, 121776, Note_on_c, 0, 74, 70
2, 121816, Note_off_c, 0, 74, 0
2, 121824, Note_on_c, 0, 72, 70
2, 121864, Note_off_c, 0, 72, 0
2, 121872, Note_on_c, 0, 74, 70
2, 121912, Note_off_c, 0, 74, 0
2, 121920, Note_on_c, 0, 72, 70
2, 122008, Note_off_c, 0, 72, 0
2, 122016, Note_on_c, 0, 74, 70
2, 122104, Note_off_c, 0, 74, 0
2, 122112, Note_on_c, 0, 76, 66
2, 122492, Note_off_c, 0, 76, 0
2, 122496, Note_on_c, 0, 76, 66
2, 122684, Note_off_c, 0, 76, 0
2, 122880, Note_on_c, 0, 76, 66
2, 124028, Note_off_c, 0, 76, 0
2, 124032, Note_on_c, 0, 78, 66
2, 124124, Note_off_c, 0, 78, 0
2, 124128, Note_on_c, 0, 79, 66
2, 124220, Note_off_c, 0, 79, 0
2, 124224, Note_on_c, 0, 81, 66
2, 124316, Note_off_c, 0, 81, 0
2, 124320, Note_on_c, 0, 79, 66
2, 124412, Note_off_c, 0, 79, 0
2, 124416, Note_on_c, 0, 79, 66
2, 124508, Note_off_c, 0, 79, 0
2, 124800, Note_on_c, 0, 83, 66
2, 124892, Note_off_c, 0, 83, 0
2, 124896, Note_on_c, 0, 84, 66
2, 124988, Note_off_c, 0, 84, 0
2, 124992, Note_on_c, 0, 86, 66
2, 125084, Note_off_c, 0, 86, 0
2, 125088, Note_on_c, 0, 84, 66
2, 125180, Note_off_c, 0, 84, 0
2, 125184, Note_on_c, 0, 84, 66
2, 125276, Note_off_c, 0, 84, 0
2, 125568, Note_on_c, 0, 76, 66
2, 125660, Note_off_c, 0, 76, 0
2, 125952, Note_on_c, 0, 79, 66
2, 126236, Note_off_c, 0, 79, 0
2, 126240, Note_on_c, 0, 76, 66
2, 126332, Note_off_c, 0, 76, 0
2, 126336, Note_on_c, 0, 74, 66
2, 126716, Note_off_c, 0, 74, 0
2, 127488, Note_on_c, 0, 74, 66
2, 127676, Note_off_c, 0, 74, 0
2, 127872, Note_on_c, 0, 74, 66
2, 127872, Note_on_c, 0, 83, 66
2, 128252, Note_off_c, 0, 83, 0
2, 128256, Note_on_c, 0, 81, 66
2, 128636, Note_off_c, 0, 81, 0
2, 128640, Note_on_c, 0, 79, 66
2, 129020, Note_off_c, 0, 74, 0
2, 129020, Note_off_c, 0, 79, 0
2, 129024, Note_on_c, 0, 84, 70
2, 129024, Note_on_c, 0, 81, 70
2, 129024, Note_on_c, 0, 78, 70
2, 129024, Note_on_c, 0, 74, 70
2, 129404, Note_off_c, 0, 81, 0
2, 129404, Note_off_c, 0, 78, 0
2, 129404, Note_off_c, 0, 74, 0
2, 129596, Note_off_c, 0, 84, 0
2, 129600, Note_on_c, 0, 83, 70
2, 129648, Note_off_c, 0, 83, 0
2, 129664, Note_on_c, 0, 81, 70
2, 129712, Note_off_c, 0, 81, 0
2, 129728, Note_on_c, 0, 79, 70
2, 129776, Note_off_c, 0, 79, 0
2, 129792, Note_on_c, 0, 78, 70
2, 130172, Note_off_c, 0, 78, 0
2, 130560, Note_on_c, 0, 74, 66
2, 130652, Note_off_c, 0, 74, 0
2, 130656, Note_on_c, 0, 76, 66
2, 130748, Note_off_c, 0, 76, 0
2, 130752, Note_on_c, 0, 74, 66
2, 130844, Note_off_c, 0, 74, 0
2, 130848, Note_on_c, 0, 72, 66
2, 130940, Note_off_c, 0, 72, 0
2, 130944, Note_on_c, 0, 74, 66
2, 131036, Note_off_c, 0, 74, 0
2, 131040, Note_on_c, 0, 75, 66
2, 131132, Note_off_c, 0, 75, 0
2, 131136, Note_on_c, 0, 76, 66
2, 131228, Note_off_c, 0, 76, 0
2, 131232, Note_on_c, 0, 77, 66
2, 131324, Note_off_c, 0, 77, 0
2, 131328, Note_on_c, 0, 78, 66
2, 131388, Note_off_c, 0, 78, 0
2, 131456, Note_on_c, 0, 79, 66
2, 131516, Note_off_c, 0, 79, 0
2, 131584, Note_on_c, 0, 80, 66
2, 131644, Note_off_c, 0, 80, 0
2, 131712, Note_on_c, 0, 81, 66
2, 131772, Note_off_c, 0, 81, 0
2, 131840, Note_on_c, 0, 82, 66
2, 131900, Note_off_c, 0, 82, 0
2, 131968, Note_on_c, 0, 83, 66
2, 132028, Note_off_c, 0, 83, 0
2, 132096, Note_on_c, 0, 84, 70
2, 132096, Note_on_c, 0, 81, 70
2, 132096, Note_on_c, 0, 78, 70
2, 132096, Note_on_c, 0, 74, 70
2, 132476, Note_off_c, 0, 81, 0
2, 132476, Note_off_c, 0, 78, 0
2, 132476, Note_off_c, 0, 74, 0
2, 132668, Note_off_c, 0, 84, 0
2, 132672, Note_on_c, 0, 83, 70
2, 132720, Note_off_c, 0, 83, 0
2, 132736, Note_on_c, 0, 81, 70
2, 132784, Note_off_c, 0, 81, 0
2, 132800, Note_on_c, 0, 79, 70
2, 132848, Note_off_c, 0, 79, 0
2, 132864, Note_on_c, 0, 78, 70
2, 133244, Note_off_c, 0, 78, 0
2, 133632, Note_on_c, 0, 76, 66
2, 133820, Note_off_c, 0, 76, 0
2, 134016, Note_on_c, 0, 88, 66
2, 134396, Note_off_c, 0, 88, 0
2, 134400, Note_on_c, 0, 84, 66
2, 134780, Note_off_c, 0, 84, 0
2, 134784, Note_on_c, 0, 81, 66
2, 134976, Note_on_c, 0, 76, 66
2, 135164, Note_off_c, 0, 81, 0
2, 135164, Note_off_c, 0, 76, 0
2, 135168, Note_on_c, 0, 74, 66
2, 135356, Note_off_c, 0, 74, 0
2, 135552, Note_on_c, 0, 86, 66
2, 135932, Note_off_c, 0, 86, 0
2, 135936, Note_on_c, 0, 83, 66
2, 136316, Note_off_c, 0, 83, 0
2, 136320, Note_on_c, 0, 79, 66
2, 136512, Note_on_c, 0, 74, 66
2, 136700, Note_off_c, 0, 79, 0
2, 136700, Note_off_c, 0, 74, 0
2, 136704, Note_on_c, 0, 74, 66
2, 136704, Note_on_c, 0, 71, 66
2, 136892, Note_off_c, 0, 74, 0
2, 136892, Note_off_c, 0, 71, 0
2, 136896, Note_on_c, 0, 72, 66
2, 136896, Note_on_c, 0, 69, 66
2, 137084, Note_off_c, 0, 72, 0
2, 137084, Note_off_c, 0, 69, 0
2, 137088, Note_on_c, 0, 67, 66
2, 137088, Note_on_c, 0, 71, 66
2, 137852, Note_off_c, 0, 67, 0
2, 137852, Note_off_c, 0, 71, 0
2, 137856, Note_on_c, 0, 66, 66
2, 137856, Note_on_c, 0, 69, 66
2, 138236, Note_off_c, 0, 66, 0
2, 138236, Note_off_c, 0, 69, 0
2, 138240, Note_on_c, 0, 72, 66
2, 138240, Note_on_c, 0, 69, 66
2, 138428, Note_off_c, 0, 72, 0
2, 138428, Note_off_c, 0, 69, 0
2, 138432, Note_on_c, 0, 71, 66
2, 138432, Note_on_c, 0, 67, 66
2, 138620, Note_off_c, 0, 71, 0
2, 138620, Note_off_c, 0, 67, 0
2, 138624, Note_on_c, 0, 76, 66
2, 138624, Note_on_c, 0, 72, 66
2, 138812, Note_off_c, 0, 76, 0
2, 138812, Note_off_c, 0, 72, 0
2, 138816, Note_on_c, 0, 74, 66
2, 138816, Note_on_c, 0, 71, 66
2, 139004, Note_off_c, 0, 74, 0
2, 139004, Note_off_c, 0, 71, 0
2, 139008, Note_on_c, 0, 74, 66
2, 139008, Note_on_c, 0, 71, 66
2, 139388, Note_off_c, 0, 74, 0
2, 139388, Note_off_c, 0, 71, 0
2, 139776, Note_on_c, 0, 76, 70
2, 139964, Note_off_c, 0, 76, 0
2, 139968, Note_on_c, 0, 88, 70
2, 140060, Note_off_c, 0, 88, 0
2, 140064, Note_on_c, 0, 87, 70
2, 140156, Note_off_c, 0, 87, 0
2, 140160, Note_on_c, 0, 88, 70
2, 140252, Note_off_c, 0, 88, 0
2, 140256, Note_on_c, 0, 87, 70
2, 140348, Note_off_c, 0, 87, 0
2, 140352, Note_on_c, 0, 88, 70
2, 140444, Note_off_c, 0, 88, 0
2, 140448, Note_on_c, 0, 87, 70
2, 140540, Note_off_c, 0, 87, 0
2, 140544, Note_on_c, 0, 88, 70
2, 140636, Note_off_c, 0, 88, 0
2, 140640, Note_on_c, 0, 86, 70
2, 140732, Note_off_c, 0, 86, 0
2, 140736, Note_on_c, 0, 84, 70
2, 140828, Note_off_c, 0, 84, 0
2, 140832, Note_on_c, 0, 83, 70
2, 140924, Note_off_c, 0, 83, 0
2, 140928, Note_on_c, 0, 81, 70
2, 141020, Note_off_c, 0, 81, 0
2, 141024, Note_on_c, 0, 79, 70
2, 141116, Note_off_c, 0, 79, 0
2, 141120, Note_on_c, 0, 78, 70
2, 141212, Note_off_c, 0, 78, 0
2, 141216, Note_on_c, 0, 76, 70
2, 141308, Note_off_c, 0, 76, 0
2, 141312, Note_on_c, 0, 74, 66
2, 141500, Note_off_c, 0, 74, 0
2, 141504, Note_on_c, 0, 86, 66
2, 141596, Note_off_c, 0, 86, 0
2, 141600, Note_on_c, 0, 85, 66
2, 141692, Note_off_c, 0, 85, 0
2, 141696, Note_on_c, 0, 86, 66
2, 141788, Note_off_c, 0, 86, 0
2, 141792, Note_on_c, 0, 85, 66
2, 141884, Note_off_c, 0, 85, 0
2, 141888, Note_on_c, 0, 86, 66
2, 141980, Note_off_c, 0, 86, 0
2, 141984, Note_on_c, 0, 85, 66
2, 142076, Note_off_c, 0, 85, 0
2, 142080, Note_on_c, 0, 86, 66
2, 142172, Note_off_c, 0, 86, 0
2, 142176, Note_on_c, 0, 84, 66
2, 142268, Note_off_c, 0, 84, 0
2, 142272, Note_on_c, 0, 83, 66
2, 142364, Note_off_c, 0, 83, 0
2, 142368, Note_on_c, 0, 81, 66
2, 142460, Note_off_c, 0, 81, 0
2, 142464, Note_on_c, 0, 79, 66
2, 142556, Note_off_c, 0, 79, 0
2, 142560, Note_on_c, 0, 78, 66
2, 142652, Note_off_c, 0, 78, 0
2, 142656, Note_on_c, 0, 76, 66
2, 142748, Note_off_c, 0, 76, 0
2, 142752, Note_on_c, 0, 74, 66
2, 142844, Note_off_c, 0, 74, 0
2, 142848, Note_on_c, 0, 76, 66
2, 142940, Note_off_c, 0, 76, 0
2, 142944, Note_on_c, 0, 78, 66
2, 143036, Note_off_c, 0, 78, 0
2, 143040, Note_on_c, 0, 79, 66
2, 143132, Note_off_c, 0, 79, 0
2, 143136, Note_on_c, 0, 78, 66
2, 143228, Note_off_c, 0, 78, 0
2, 143232, Note_on_c, 0, 81, 66
2, 143324, Note_off_c, 0, 81, 0
2, 143328, Note_on_c, 0, 79, 66
2, 143420, Note_off_c, 0, 79, 0
2, 143424, Note_on_c, 0, 78, 66
2, 143516, Note_off_c, 0, 78, 0
2, 143520, Note_on_c, 0, 76, 66
2, 143612, Note_off_c, 0, 76, 0
2, 143616, Note_on_c, 0, 76, 66
2, 143708, Note_off_c, 0, 76, 0
2, 143712, Note_on_c, 0, 74, 66
2, 143804, Note_off_c, 0, 74, 0
2, 143808, Note_on_c, 0, 72, 66
2, 143900, Note_off_c, 0, 72, 0
2, 143904, Note_on_c, 0, 71, 66
2, 143996, Note_off_c, 0, 71, 0
2, 144000, Note_on_c, 0, 74, 66
2, 144092, Note_off_c, 0, 74, 0
2, 144096, Note_on_c, 0, 72, 66
2, 144188, Note_off_c, 0, 72, 0
2, 144192, Note_on_c, 0, 71, 66
2, 144284, Note_off_c, 0, 71, 0
2, 144288, Note_on_c, 0, 69, 66
2, 144380, Note_off_c, 0, 69, 0
2, 144384, Note_on_c, 0, 67, 66
2, 144764, Note_off_c, 0, 67, 0
2, 148992, Note_on_c, 0, 67, 66
2, 149180, Note_off_c, 0, 67, 0
2, 149184, Note_on_c, 0, 69, 66
2, 149276, Note_off_c, 0, 69, 0
2, 149280, Note_on_c, 0, 71, 66
2, 149372, Note_off_c, 0, 71, 0
2, 149376, Note_on_c, 0, 72, 66
2, 149468, Note_off_c, 0, 72, 0
2, 149472, Note_on_c, 0, 74, 66
2, 149564, Note_off_c, 0, 74, 0
2, 149568, Note_on_c, 0, 76, 66
2, 149660, Note_off_c, 0, 76, 0
2, 149664, Note_on_c, 0, 78, 66
2, 149756, Note_off_c, 0, 78, 0
2, 149760, Note_on_c, 0, 79, 66
2, 149948, Note_off_c, 0, 79, 0
2, 149952, Note_on_c, 0, 79, 66
2, 150044, Note_off_c, 0, 79, 0
2, 150144, Note_on_c, 0, 79, 66
2, 150236, Note_off_c, 0, 79, 0
2, 150336, Note_on_c, 0, 79, 66
2, 150428, Note_off_c, 0, 79, 0
2, 150528, Note_on_c, 0, 80, 66
2, 150620, Note_off_c, 0, 80, 0
2, 150624, Note_on_c, 0, 81, 66
2, 150908, Note_off_c, 0, 81, 0
2, 150912, Note_on_c, 0, 81, 66
2, 151676, Note_off_c, 0, 81, 0
2, 151680, Note_on_c, 0, 83, 70
2, 151720, Note_off_c, 0, 83, 0
2, 151728, Note_on_c, 0, 84, 70
2, 151768, Note_off_c, 0, 84, 0
2, 151776, Note_on_c, 0, 83, 70
2, 151816, Note_off_c, 0, 83, 0
2, 151824, Note_on_c, 0, 84, 70
2, 151864, Note_off_c, 0, 84, 0
2, 151872, Note_on_c, 0, 83, 70
2, 151912, Note_off_c, 0, 83, 0
2, 151920, Note_on_c, 0, 81, 70
2, 151984, Note_off_c, 0, 81, 0
2, 151992, Note_on_c, 0, 83, 70
2, 152056, Note_off_c, 0, 83, 0
2, 152064, Note_on_c, 0, 84, 66
2, 152156, Note_off_c, 0, 84, 0
2, 152160, Note_on_c, 0, 86, 66
2, 152252, Note_off_c, 0, 86, 0
2, 152256, Note_on_c, 0, 88, 66
2, 152348, Note_off_c, 0, 88, 0
2, 152352, Note_on_c, 0, 84, 66
2, 152444, Note_off_c, 0, 84, 0
2, 152448, Note_on_c, 0, 81, 66
2, 152540, Note_off_c, 0, 81, 0
2, 152544, Note_on_c, 0, 83, 66
2, 152636, Note_off_c, 0, 83, 0
2, 152640, Note_on_c, 0, 84, 66
2, 152732, Note_off_c, 0, 84, 0
2, 152736, Note_on_c, 0, 81, 66
2, 152828, Note_off_c, 0, 81, 0
2, 152832, Note_on_c, 0, 76, 66
2, 152924, Note_off_c, 0, 76, 0
2, 152928, Note_on_c, 0, 78, 66
2, 153020, Note_off_c, 0, 78, 0
2, 153024, Note_on_c, 0, 79, 66
2, 153116, Note_off_c, 0, 79, 0
2, 153120, Note_on_c, 0, 76, 66
2, 153212, Note_off_c, 0, 76, 0
2, 153216, Note_on_c, 0, 78, 66
2, 153308, Note_off_c, 0, 78, 0
2, 153312, Note_on_c, 0, 79, 66
2, 153404, Note_off_c, 0, 79, 0
2, 153408, Note_on_c, 0, 81, 66
2, 153500, Note_off_c, 0, 81, 0
2, 153504, Note_on_c, 0, 78, 66
2, 153596, Note_off_c, 0, 78, 0
2, 153696, Note_on_c, 0, 79, 66
2, 153788, Note_off_c, 0, 79, 0
2, 153792, Note_on_c, 0, 83, 66
2, 153884, Note_off_c, 0, 83, 0
2, 153888, Note_on_c, 0, 81, 66
2, 153980, Note_off_c, 0, 81, 0
2, 153984, Note_on_c, 0, 79, 66
2, 154076, Note_off_c, 0, 79, 0
2, 154080, Note_on_c, 0, 78, 66
2, 154172, Note_off_c, 0, 78, 0
2, 154176, Note_on_c, 0, 76, 66
2, 154268, Note_off_c, 0, 76, 0
2, 154272, Note_on_c, 0, 74, 66
2, 154364, Note_off_c, 0, 74, 0
2, 154368, Note_on_c, 0, 73, 66
2, 154460, Note_off_c, 0, 73, 0
2, 154464, Note_on_c, 0, 74, 66
2, 154556, Note_off_c, 0, 74, 0
2, 154560, Note_on_c, 0, 76, 66
2, 154652, Note_off_c, 0, 76, 0
2, 154656, Note_on_c, 0, 74, 66
2, 154748, Note_off_c, 0, 74, 0
2, 154752, Note_on_c, 0, 72, 66
2, 154844, Note_off_c, 0, 72, 0
2, 154848, Note_on_c, 0, 71, 66
2, 154940, Note_off_c, 0, 71, 0
2, 154944, Note_on_c, 0, 69, 66
2, 155036, Note_off_c, 0, 69, 0
2, 155040, Note_on_c, 0, 67, 66
2, 155132, Note_off_c, 0, 67, 0
2, 155232, Note_on_c, 0, 81, 66
2, 155324, Note_off_c, 0, 81, 0
2, 155328, Note_on_c, 0, 84, 66
2, 155420, Note_off_c, 0, 84, 0
2, 155424, Note_on_c, 0, 83, 66
2, 155516, Note_off_c, 0, 83, 0
2, 155520, Note_on_c, 0, 81, 66
2, 155612, Note_off_c, 0, 81, 0
2, 155616, Note_on_c, 0, 79, 66
2, 155708, Note_off_c, 0, 79, 0
2, 155712, Note_on_c, 0, 78, 66
2, 155804, Note_off_c, 0, 78, 0
2, 155808, Note_on_c, 0, 76, 66
2, 155900, Note_off_c, 0, 76, 0
2, 155904, Note_on_c, 0, 75, 66
2, 155996, Note_off_c, 0, 75, 0
2, 156000, Note_on_c, 0, 76, 66
2, 156092, Note_off_c, 0, 76, 0
2, 156096, Note_on_c, 0, 78, 66
2, 156188, Note_off_c, 0, 78, 0
2, 156192, Note_on_c, 0, 76, 66
2, 156284, Note_off_c, 0, 76, 0
2, 156288, Note_on_c, 0, 75, 66
2, 156380, Note_off_c, 0, 75, 0
2, 156384, Note_on_c, 0, 72, 66
2, 156476, Note_off_c, 0, 72, 0
2, 156480, Note_on_c, 0, 71, 66
2, 156572, Note_off_c, 0, 71, 0
2, 156576, Note_on_c, 0, 69, 66
2, 156668, Note_off_c, 0, 69, 0
2, 156768, Note_on_c, 0, 67, 66
2, 156860, Note_off_c, 0, 67, 0
2, 156864, Note_on_c, 0, 71, 66
2, 156956, Note_off_c, 0, 71, 0
2, 156960, Note_on_c, 0, 76, 66
2, 157052, Note_off_c, 0, 76, 0
2, 157056, Note_on_c, 0, 79, 66
2, 157148, Note_off_c, 0, 79, 0
2, 157152, Note_on_c, 0, 76, 66
2, 157244, Note_off_c, 0, 76, 0
2, 157248, Note_on_c, 0, 81, 66
2, 157340, Note_off_c, 0, 81, 0
2, 157344, Note_on_c, 0, 78, 66
2, 157436, Note_off_c, 0, 78, 0
2, 157440, Note_on_c, 0, 83, 66
2, 157532, Note_off_c, 0, 83, 0
2, 157536, Note_on_c, 0, 81, 66
2, 157628, Note_off_c, 0, 81, 0
2, 157632, Note_on_c, 0, 79, 66
2, 157724, Note_off_c, 0, 79, 0
2, 157728, Note_on_c, 0, 78, 66
2, 157820, Note_off_c, 0, 78, 0
2, 157824, Note_on_c, 0, 76, 66
2, 157916, Note_off_c, 0, 76, 0
2, 157920, Note_on_c, 0, 74, 66
2, 158012, Note_off_c, 0, 74, 0
2, 158016, Note_on_c, 0, 73, 66
2, 158108, Note_off_c, 0, 73, 0
2, 158112, Note_on_c, 0, 74, 66
2, 158204, Note_off_c, 0, 74, 0
2, 158304, Note_on_c, 0, 73, 66
2, 158396, Note_off_c, 0, 73, 0
2, 158400, Note_on_c, 0, 76, 66
2, 158492, Note_off_c, 0, 76, 0
2, 158496, Note_on_c, 0, 81, 66
2, 158588, Note_off_c, 0, 81, 0
2, 158592, Note_on_c, 0, 85, 66
2, 158684, Note_off_c, 0, 85, 0
2, 158688, Note_on_c, 0, 81, 66
2, 158780, Note_off_c, 0, 81, 0
2, 158784, Note_on_c, 0, 86, 66
2, 158876, Note_off_c, 0, 86, 0
2, 158880, Note_on_c, 0, 83, 66
2, 158972, Note_off_c, 0, 83, 0
2, 158976, Note_on_c, 0, 88, 66
2, 159068, Note_off_c, 0, 88, 0
2, 159072, Note_on_c, 0, 86, 66
2, 159164, Note_off_c, 0, 86, 0
2, 159168, Note_on_c, 0, 85, 66
2, 159260, Note_off_c, 0, 85, 0
2, 159264, Note_on_c, 0, 83, 66
2, 159356, Note_off_c, 0, 83, 0
2, 159360, Note_on_c, 0, 81, 66
2, 159452, Note_off_c, 0, 81, 0
2, 159456, Note_on_c, 0, 79, 66
2, 159548, Note_off_c, 0, 79, 0
2, 159552, Note_on_c, 0, 78, 66
2, 159644, Note_off_c, 0, 78, 0
2, 159648, Note_on_c, 0, 79, 66
2, 159740, Note_off_c, 0, 79, 0
2, 159840, Note_on_c, 0, 66, 66
2, 159932, Note_off_c, 0, 66, 0
2, 159936, Note_on_c, 0, 69, 66
2, 160028, Note_off_c, 0, 69, 0
2, 160032, Note_on_c, 0, 74, 66
2, 160124, Note_off_c, 0, 74, 0
2, 160128, Note_on_c, 0, 78, 66
2, 160220, Note_off_c, 0, 78, 0
2, 160224, Note_on_c, 0, 74, 66
2, 160316, Note_off_c, 0, 74, 0
2, 160320, Note_on_c, 0, 79, 66
2, 160412, Note_off_c, 0, 79, 0
2, 160416, Note_on_c, 0, 76, 66
2, 160508, Note_off_c, 0, 76, 0
2, 160512, Note_on_c, 0, 81, 66
2, 160604, Note_off_c, 0, 81, 0
2, 160608, Note_on_c, 0, 79, 66
2, 160700, Note_off_c, 0, 79, 0
2, 160704, Note_on_c, 0, 78, 66
2, 160796, Note_off_c, 0, 78, 0
2, 160800, Note_on_c, 0, 76, 66
2, 160892, Note_off_c, 0, 76, 0
2, 160896, Note_on_c, 0, 74, 66
2, 160988, Note_off_c, 0, 74, 0
2, 160992, Note_on_c, 0, 72, 66
2, 161084, Note_off_c, 0, 72, 0
2, 161088, Note_on_c, 0, 71, 66
2, 161180, Note_off_c, 0, 71, 0
2, 161184, Note_on_c, 0, 72, 66
2, 161276, Note_off_c, 0, 72, 0
2, 161376, Note_on_c, 0, 71, 66
2, 161468, Note_off_c, 0, 71, 0
2, 161472, Note_on_c, 0, 73, 66
2, 161564, Note_off_c, 0, 73, 0
2, 161568, Note_on_c, 0, 75, 66
2, 161660, Note_off_c, 0, 75, 0
2, 161664, Note_on_c, 0, 76, 66
2, 161756, Note_off_c, 0, 76, 0
2, 161760, Note_on_c, 0, 78, 66
2, 161852, Note_off_c, 0, 78, 0
2, 161856, Note_on_c, 0, 79, 66
2, 161948, Note_off_c, 0, 79, 0
2, 161952, Note_on_c, 0, 81, 66
2, 162044, Note_off_c, 0, 81, 0
2, 162048, Note_on_c, 0, 83, 66
2, 162140, Note_off_c, 0, 83, 0
2, 162144, Note_on_c, 0, 84, 66
2, 162236, Note_off_c, 0, 84, 0
2, 162240, Note_on_c, 0, 83, 66
2, 162332, Note_off_c, 0, 83, 0
2, 162336, Note_on_c, 0, 81, 66
2, 162428, Note_off_c, 0, 81, 0
2, 162432, Note_on_c, 0, 79, 66
2, 162524, Note_off_c, 0, 79, 0
2, 162528, Note_on_c, 0, 78, 66
2, 162620, Note_off_c, 0, 78, 0
2, 162624, Note_on_c, 0, 76, 66
2, 162716, Note_off_c, 0, 76, 0
2, 162720, Note_on_c, 0, 74, 66
2, 162812, Note_off_c, 0, 74, 0
2, 162912, Note_on_c, 0, 69, 66
2, 163004, Note_off_c, 0, 69, 0
2, 163008, Note_on_c, 0, 73, 66
2, 163100, Note_off_c, 0, 73, 0
2, 163104, Note_on_c, 0, 76, 66
2, 163196, Note_off_c, 0, 76, 0
2, 163200, Note_on_c, 0, 81, 66
2, 163292, Note_off_c, 0, 81, 0
2, 163296, Note_on_c, 0, 76, 66
2, 163388, Note_off_c, 0, 76, 0
2, 163392, Note_on_c, 0, 73, 66
2, 163484, Note_off_c, 0, 73, 0
2, 163488, Note_on_c, 0, 69, 66
2, 163580, Note_off_c, 0, 69, 0
2, 163680, Note_on_c, 0, 68, 66
2, 163772, Note_off_c, 0, 68, 0
2, 163776, Note_on_c, 0, 71, 66
2, 163868, Note_off_c, 0, 71, 0
2, 163872, Note_on_c, 0, 74, 66
2, 163964, Note_off_c, 0, 74, 0
2, 163968, Note_on_c, 0, 80, 66
2, 164060, Note_off_c, 0, 80, 0
2, 164064, Note_on_c, 0, 74, 66
2, 164156, Note_off_c, 0, 74, 0
2, 164160, Note_on_c, 0, 71, 66
2, 164252, Note_off_c, 0, 71, 0
2, 164256, Note_on_c, 0, 68, 66
2, 164348, Note_off_c, 0, 68, 0
2, 164448, Note_on_c, 0, 69, 66
2, 164540, Note_off_c, 0, 69, 0
2, 164544, Note_on_c, 0, 73, 66
2, 164636, Note_off_c, 0, 73, 0
2, 164640, Note_on_c, 0, 76, 66
2, 164732, Note_off_c, 0, 76, 0
2, 164736, Note_on_c, 0, 81, 66
2, 164828, Note_off_c, 0, 81, 0
2, 164832, Note_on_c, 0, 76, 66
2, 164924, Note_off_c, 0, 76, 0
2, 164928, Note_on_c, 0, 73, 66
2, 165020, Note_off_c, 0, 73, 0
2, 165024, Note_on_c, 0, 69, 66
2, 165116, Note_off_c, 0, 69, 0
2, 165216, Note_on_c, 0, 68, 66
2, 165308, Note_off_c, 0, 68, 0
2, 165312, Note_on_c, 0, 71, 66
2, 165404, Note_off_c, 0, 71, 0
2, 165408, Note_on_c, 0, 74, 66
2, 165500, Note_off_c, 0, 74, 0
2, 165504, Note_on_c, 0, 80, 66
2, 165596, Note_off_c, 0, 80, 0
2, 165600, Note_on_c, 0, 74, 66
2, 165692, Note_off_c, 0, 74, 0
2, 165696, Note_on_c, 0, 71, 66
2, 165788, Note_off_c, 0, 71, 0
2, 165792, Note_on_c, 0, 68, 66
2, 165884, Note_off_c, 0, 68, 0
2, 165984, Note_on_c, 0, 69, 66
2, 166076, Note_off_c, 0, 69, 0
2, 166080, Note_on_c, 0, 73, 66
2, 166172, Note_off_c, 0, 73, 0
2, 166176, Note_on_c, 0, 76, 66
2, 166268, Note_off_c, 0, 76, 0
2, 166272, Note_on_c, 0, 81, 66
2, 166364, Note_off_c, 0, 81, 0
2, 166368, Note_on_c, 0, 73, 66
2, 166460, Note_off_c, 0, 73, 0
2, 166464, Note_on_c, 0, 76, 66
2, 166556, Note_off_c, 0, 76, 0
2, 166560, Note_on_c, 0, 81, 66
2, 166652, Note_off_c, 0, 81, 0
2, 166656, Note_on_c, 0, 85, 66
2, 166748, Note_off_c, 0, 85, 0
2, 166752, Note_on_c, 0, 76, 66
2, 166844, Note_off_c, 0, 76, 0
2, 166848, Note_on_c, 0, 81, 66
2, 166940, Note_off_c, 0, 81, 0
2, 166944, Note_on_c, 0, 85, 66
2, 167036, Note_off_c, 0, 85, 0
2, 167040, Note_on_c, 0, 88, 66
2, 167132, Note_off_c, 0, 88, 0
2, 167136, Note_on_c, 0, 85, 66
2, 167228, Note_off_c, 0, 85, 0
2, 167232, Note_on_c, 0, 88, 66
2, 167324, Note_off_c, 0, 88, 0
2, 167328, Note_on_c, 0, 85, 66
2, 167420, Note_off_c, 0, 85, 0
2, 167424, Note_on_c, 0, 81, 66
2, 167804, Note_off_c, 0, 81, 0
2, 168960, Note_on_c, 0, 81, 66
2, 169152, Note_on_c, 0, 62, 66
2, 169340, Note_off_c, 0, 62, 0
2, 169344, Note_on_c, 0, 66, 66
2, 169532, Note_off_c, 0, 81, 0
2, 169532, Note_off_c, 0, 66, 0
2, 169536, Note_on_c, 0, 78, 66
2, 169536, Note_on_c, 0, 69, 66
2, 169724, Note_off_c, 0, 78, 0
2, 169724, Note_off_c, 0, 69, 0
2, 169728, Note_on_c, 0, 83, 66
2, 169920, Note_on_c, 0, 63, 66
2, 170108, Note_off_c, 0, 63, 0
2, 170112, Note_on_c, 0, 66, 66
2, 170300, Note_off_c, 0, 83, 0
2, 170300, Note_off_c, 0, 66, 0
2, 170304, Note_on_c, 0, 78, 66
2, 170304, Note_on_c, 0, 71, 66
2, 170492, Note_off_c, 0, 78, 0
2, 170492, Note_off_c, 0, 71, 0
2, 170496, Note_on_c, 0, 79, 66
2, 170496, Note_on_c, 0, 64, 66
2, 170588, Note_off_c, 0, 79, 0
2, 170588, Note_off_c, 0, 64, 0
2, 170688, Note_on_c, 0, 76, 66
2, 170688, Note_on_c, 0, 67, 66
2, 170780, Note_off_c, 0, 76, 0
2, 170780, Note_off_c, 0, 67, 0
2, 170880, Note_on_c, 0, 81, 66
2, 170880, Note_on_c, 0, 61, 66
2, 171260, Note_off_c, 0, 81, 0
2, 171260, Note_off_c, 0, 61, 0
2, 171456, Note_on_c, 0, 76, 70
2, 171496, Note_off_c, 0, 76, 0
2, 171504, Note_on_c, 0, 78, 70
2, 171544, Note_off_c, 0, 78, 0
2, 171552, Note_on_c, 0, 76, 70
2, 171592, Note_off_c, 0, 76, 0
2, 171600, Note_on_c, 0, 74, 70
2, 171640, Note_off_c, 0, 74, 0
2, 171648, Note_on_c, 0, 76, 70
2, 171688, Note_off_c, 0, 76, 64
2, 171696, Note_on_c, 0, 78, 68
2, 171860, Note_off_c, 0, 78, 0
2, 171864, Note_on_c, 0, 74, 68
2, 172028, Note_off_c, 0, 74, 0
2, 172032, Note_on_c, 0, 79, 66
2, 172124, Note_off_c, 0, 79, 0
2, 172224, Note_on_c, 0, 81, 70
2, 172256, Note_off_c, 0, 81, 0
2, 172260, Note_on_c, 0, 79, 66
2, 172332, Note_off_c, 0, 79, 0
2, 172340, Note_on_c, 0, 78, 66
2, 172412, Note_off_c, 0, 78, 0
2, 172416, Note_on_c, 0, 79, 66
2, 172604, Note_off_c, 0, 79, 0
2, 172608, Note_on_c, 0, 81, 66
2, 172700, Note_off_c, 0, 81, 0
2, 172800, Note_on_c, 0, 83, 66
2, 172892, Note_off_c, 0, 83, 0
2, 172992, Note_on_c, 0, 71, 66
2, 173180, Note_off_c, 0, 71, 0
2, 173184, Note_on_c, 0, 78, 66
2, 173372, Note_off_c, 0, 78, 0
2, 173376, Note_on_c, 0, 76, 66
2, 173564, Note_off_c, 0, 76, 0
2, 173568, Note_on_c, 0, 74, 66
2, 173948, Note_off_c, 0, 74, 0
2, 173952, Note_on_c, 0, 73, 70
2, 173992, Note_off_c, 0, 73, 0
2, 174000, Note_on_c, 0, 74, 70
2, 174040, Note_off_c, 0, 74, 0
2, 174048, Note_on_c, 0, 73, 70
2, 174088, Note_off_c, 0, 73, 0
2, 174096, Note_on_c, 0, 74, 70
2, 174136, Note_off_c, 0, 74, 0
2, 174144, Note_on_c, 0, 71, 70
2, 174232, Note_off_c, 0, 71, 0
2, 174240, Note_on_c, 0, 73, 70
2, 174328, Note_off_c, 0, 73, 0
2, 174336, Note_on_c, 0, 74, 66
2, 174716, Note_off_c, 0, 74, 0
2, 174720, Note_on_c, 0, 76, 66
2, 175100, Note_off_c, 0, 76, 0
2, 175104, Note_on_c, 0, 78, 66
2, 175292, Note_off_c, 0, 78, 0
2, 175296, Note_on_c, 0, 81, 66
2, 175484, Note_off_c, 0, 81, 0
2, 175488, Note_on_c, 0, 79, 66
2, 175676, Note_off_c, 0, 79, 0
2, 175680, Note_on_c, 0, 76, 66
2, 175868, Note_off_c, 0, 76, 0
2, 175872, Note_on_c, 0, 74, 66
2, 176252, Note_off_c, 0, 74, 0
2, 176256, Note_on_c, 0, 76, 44
2, 176636, Note_off_c, 0, 76, 0
2, 176640, Note_on_c, 0, 78, 44
2, 176828, Note_off_c, 0, 78, 0
2, 176832, Note_on_c, 0, 81, 44
2, 177020, Note_off_c, 0, 81, 0
2, 177024, Note_on_c, 0, 79, 44
2, 177212, Note_off_c, 0, 79, 0
2, 177216, Note_on_c, 0, 76, 44
2, 177404, Note_off_c, 0, 76, 0
2, 177408, Note_on_c, 0, 74, 44
2, 177788, Note_off_c, 0, 74, 0
2, 177792, Note_on_c, 0, 76, 66
2, 178172, Note_off_c, 0, 76, 0
2, 178176, Note_on_c, 0, 78, 66
2, 178236, Note_off_c, 0, 78, 0
2, 178304, Note_on_c, 0, 79, 66
2, 178364, Note_off_c, 0, 79, 0
2, 178432, Note_on_c, 0, 81, 66
2, 178492, Note_off_c, 0, 81, 0
2, 178560, Note_on_c, 0, 83, 66
2, 178620, Note_off_c, 0, 83, 0
2, 178688, Note_on_c, 0, 84, 66
2, 178748, Note_off_c, 0, 84, 0
2, 178816, Note_on_c, 0, 86, 66
2, 178876, Note_off_c, 0, 86, 0
2, 178944, Note_on_c, 0, 74, 66
2, 179004, Note_off_c, 0, 74, 0
2, 179072, Note_on_c, 0, 76, 66
2, 179132, Note_off_c, 0, 76, 0
2, 179200, Note_on_c, 0, 78, 66
2, 179260, Note_off_c, 0, 78, 0
2, 179328, Note_on_c, 0, 79, 66
2, 179388, Note_off_c, 0, 79, 0
2, 179456, Note_on_c, 0, 81, 66
2, 179516, Note_off_c, 0, 81, 0
2, 179584, Note_on_c, 0, 83, 66
2, 179644, Note_off_c, 0, 83, 0
2, 179712, Note_on_c, 0, 78, 66
2, 180284, Note_off_c, 0, 78, 0
2, 180288, Note_on_c, 0, 79, 66
2, 180380, Note_off_c, 0, 79, 0
2, 180384, Note_on_c, 0, 78, 66
2, 180476, Note_off_c, 0, 78, 0
2, 180480, Note_on_c, 0, 76, 66
2, 180668, Note_off_c, 0, 76, 0
2, 180672, Note_on_c, 0, 78, 66
2, 180764, Note_off_c, 0, 78, 0
2, 180864, Note_on_c, 0, 79, 66
2, 180956, Note_off_c, 0, 79, 0
2, 181056, Note_on_c, 0, 80, 66
2, 181148, Note_off_c, 0, 80, 0
2, 181248, Note_on_c, 0, 81, 66
2, 181340, Note_off_c, 0, 81, 0
2, 181440, Note_on_c, 0, 62, 66
2, 181440, Note_on_c, 0, 81, 66
2, 181628, Note_off_c, 0, 62, 0
2, 181632, Note_on_c, 0, 66, 66
2, 181820, Note_off_c, 0, 81, 0
2, 181820, Note_off_c, 0, 66, 0
2, 181824, Note_on_c, 0, 78, 66
2, 181824, Note_on_c, 0, 69, 66
2, 182012, Note_off_c, 0, 78, 0
2, 182012, Note_off_c, 0, 69, 0
2, 182016, Note_on_c, 0, 83, 66
2, 182108, Note_off_c, 0, 83, 0
2, 182208, Note_on_c, 0, 62, 66
2, 182208, Note_on_c, 0, 83, 66
2, 182396, Note_off_c, 0, 62, 0
2, 182400, Note_on_c, 0, 66, 66
2, 182588, Note_off_c, 0, 83, 0
2, 182588, Note_off_c, 0, 66, 0
2, 182592, Note_on_c, 0, 71, 66
2, 182592, Note_on_c, 0, 78, 66
2, 182780, Note_off_c, 0, 71, 0
2, 182780, Note_off_c, 0, 78, 0
2, 182784, Note_on_c, 0, 79, 66
2, 182784, Note_on_c, 0, 64, 66
2, 182876, Note_off_c, 0, 79, 0
2, 182876, Note_off_c, 0, 64, 0
2, 182976, Note_on_c, 0, 76, 66
2, 182976, Note_on_c, 0, 67, 66
2, 183164, Note_off_c, 0, 76, 0
2, 183164, Note_off_c, 0, 67, 0
2, 183168, Note_on_c, 0, 81, 66
2, 183168, Note_on_c, 0, 61, 66
2, 183356, Note_off_c, 0, 61, 0
2, 183548, Note_off_c, 0, 81, 0
2, 183744, Note_on_c, 0, 76, 70
2, 183784, Note_off_c, 0, 76, 0
2, 183792, Note_on_c, 0, 78, 70
2, 183832, Note_off_c, 0, 78, 0
2, 183840, Note_on_c, 0, 76, 70
2, 183880, Note_off_c, 0, 76, 0
2, 183888, Note_on_c, 0, 74, 70
2, 183928, Note_off_c, 0, 74, 0
2, 183936, Note_on_c, 0, 76, 70
2, 183976, Note_off_c, 0, 76, 0
2, 183984, Note_on_c, 0, 78, 70
2, 184024, Note_off_c, 0, 78, 0
2, 184128, Note_on_c, 0, 74, 70
2, 184316, Note_off_c, 0, 74, 0
2, 184320, Note_on_c, 0, 79, 66
2, 184412, Note_off_c, 0, 79, 0
2, 184512, Note_on_c, 0, 81, 70
2, 184552, Note_off_c, 0, 81, 0
2, 184560, Note_on_c, 0, 79, 70
2, 184600, Note_off_c, 0, 79, 0
2, 184608, Note_on_c, 0, 78, 68
2, 184700, Note_off_c, 0, 78, 0
2, 184704, Note_on_c, 0, 79, 66
2, 184892, Note_off_c, 0, 79, 0
2, 184896, Note_on_c, 0, 81, 66
2, 184988, Note_off_c, 0, 81, 0
2, 185088, Note_on_c, 0, 83, 66
2, 185180, Note_off_c, 0, 83, 0
2, 185280, Note_on_c, 0, 71, 66
2, 185468, Note_off_c, 0, 71, 0
2, 185472, Note_on_c, 0, 78, 66
2, 185660, Note_off_c, 0, 78, 0
2, 185664, Note_on_c, 0, 76, 66
2, 185852, Note_off_c, 0, 76, 0
2, 185856, Note_on_c, 0, 74, 66
2, 186236, Note_off_c, 0, 74, 0
2, 186240, Note_on_c, 0, 73, 70
2, 186280, Note_off_c, 0, 73, 0
2, 186288, Note_on_c, 0, 74, 70
2, 186328, Note_off_c, 0, 74, 0
2, 186336, Note_on_c, 0, 73, 70
2, 186376, Note_off_c, 0, 73, 0
2, 186384, Note_on_c, 0, 74, 70
2, 186424, Note_off_c, 0, 74, 0
2, 186432, Note_on_c, 0, 71, 70
2, 186520, Note_off_c, 0, 71, 0
2, 186528, Note_on_c, 0, 73, 70
2, 186616, Note_off_c, 0, 73, 0
2, 186624, Note_on_c, 0, 74, 66
2, 187004, Note_off_c, 0, 74, 0
2, 187584, Note_on_c, 0, 81, 66
2, 187676, Note_off_c, 0, 81, 0
2, 187776, Note_on_c, 0, 81, 66
2, 187868, Note_off_c, 0, 81, 0
2, 187968, Note_on_c, 0, 81, 66
2, 188060, Note_off_c, 0, 81, 0
2, 188160, Note_on_c, 0, 83, 70
2, 188200, Note_off_c, 0, 83, 0
2, 188208, Note_on_c, 0, 81, 70
2, 188248, Note_off_c, 0, 81, 0
2, 188256, Note_on_c, 0, 80, 70
2, 188296, Note_off_c, 0, 80, 0
2, 188304, Note_on_c, 0, 81, 66
2, 188684, Note_off_c, 0, 81, 0
2, 189120, Note_on_c, 0, 81, 48
2, 189208, Note_off_c, 0, 81, 0
2, 189312, Note_on_c, 0, 81, 48
2, 189400, Note_off_c, 0, 81, 0
2, 189504, Note_on_c, 0, 81, 48
2, 189592, Note_off_c, 0, 81, 0
2, 189696, Note_on_c, 0, 83, 52
2, 189736, Note_off_c, 0, 83, 0
2, 189744, Note_on_c, 0, 81, 52
2, 189784, Note_off_c, 0, 81, 0
2, 189792, Note_on_c, 0, 80, 52
2, 189832, Note_off_c, 0, 80, 0
2, 189840, Note_on_c, 0, 81, 48
2, 190220, Note_off_c, 0, 81, 0
2, 190560, Note_on_c, 0, 86, 78
2, 190652, Note_off_c, 0, 86, 0
2, 190656, Note_on_c, 0, 81, 78
2, 190748, Note_off_c, 0, 81, 0
2, 190752, Note_on_c, 0, 78, 78
2, 190844, Note_off_c, 0, 78, 0
2, 190848, Note_on_c, 0, 81, 78
2, 190940, Note_off_c, 0, 81, 0
2, 190944, Note_on_c, 0, 79, 78
2, 191036, Note_off_c, 0, 79, 0
2, 191040, Note_on_c, 0, 76, 78
2, 191132, Note_off_c, 0, 76, 0
2, 191136, Note_on_c, 0, 73, 78
2, 191228, Note_off_c, 0, 73, 0
2, 191232, Note_on_c, 0, 74, 78
2, 191324, Note_off_c, 0, 74, 0
2, 191328, Note_on_c, 0, 76, 78
2, 191420, Note_off_c, 0, 76, 0
2, 191424, Note_on_c, 0, 78, 78
2, 191516, Note_off_c, 0, 78, 0
2, 191520, Note_on_c, 0, 74, 78
2, 191612, Note_off_c, 0, 74, 0
2, 191616, Note_on_c, 0, 76, 78
2, 191708, Note_off_c, 0, 76, 0
2, 191712, Note_on_c, 0, 78, 78
2, 191804, Note_off_c, 0, 78, 0
2, 191808, Note_on_c, 0, 79, 78
2, 191900, Note_off_c, 0, 79, 0
2, 191904, Note_on_c, 0, 76, 78
2, 191996, Note_off_c, 0, 76, 0
2, 192000, Note_on_c, 0, 78, 66
2, 192092, Note_off_c, 0, 78, 0
2, 192096, Note_on_c, 0, 86, 66
2, 192188, Note_off_c, 0, 86, 0
2, 192192, Note_on_c, 0, 81, 66
2, 192284, Note_off_c, 0, 81, 0
2, 192288, Note_on_c, 0, 78, 66
2, 192380, Note_off_c, 0, 78, 0
2, 192384, Note_on_c, 0, 81, 66
2, 192476, Note_off_c, 0, 81, 0
2, 192480, Note_on_c, 0, 79, 66
2, 192572, Note_off_c, 0, 79, 0
2, 192576, Note_on_c, 0, 76, 66
2, 192668, Note_off_c, 0, 76, 0
2, 192672, Note_on_c, 0, 73, 66
2, 192764, Note_off_c, 0, 73, 0
2, 192768, Note_on_c, 0, 74, 66
2, 192860, Note_off_c, 0, 74, 0
2, 192864, Note_on_c, 0, 76, 66
2, 192956, Note_off_c, 0, 76, 0
2, 192960, Note_on_c, 0, 78, 66
2, 193052, Note_off_c, 0, 78, 0
2, 193056, Note_on_c, 0, 74, 66
2, 193148, Note_off_c, 0, 74, 0
2, 193152, Note_on_c, 0, 76, 66
2, 193244, Note_off_c, 0, 76, 0
2, 193248, Note_on_c, 0, 78, 66
2, 193340, Note_off_c, 0, 78, 0
2, 193344, Note_on_c, 0, 79, 66
2, 193436, Note_off_c, 0, 79, 0
2, 193440, Note_on_c, 0, 76, 66
2, 193532, Note_off_c, 0, 76, 0
2, 193536, Note_on_c, 0, 77, 78
2, 193628, Note_off_c, 0, 77, 0
2, 193632, Note_on_c, 0, 86, 78
2, 193724, Note_off_c, 0, 86, 0
2, 193728, Note_on_c, 0, 81, 78
2, 193820, Note_off_c, 0, 81, 0
2, 193824, Note_on_c, 0, 77, 78
2, 193916, Note_off_c, 0, 77, 0
2, 193920, Note_on_c, 0, 74, 78
2, 194012, Note_off_c, 0, 74, 0
2, 194016, Note_on_c, 0, 81, 78
2, 194108, Note_off_c, 0, 81, 0
2, 194112, Note_on_c, 0, 77, 78
2, 194204, Note_off_c, 0, 77, 0
2, 194208, Note_on_c, 0, 74, 78
2, 194300, Note_off_c, 0, 74, 0
2, 194304, Note_on_c, 0, 69, 78
2, 194396, Note_off_c, 0, 69, 0
2, 194400, Note_on_c, 0, 77, 78
2, 194492, Note_off_c, 0, 77, 0
2, 194496, Note_on_c, 0, 74, 78
2, 194588, Note_off_c, 0, 74, 0
2, 194592, Note_on_c, 0, 69, 78
2, 194684, Note_off_c, 0, 69, 0
2, 194688, Note_on_c, 0, 65, 78
2, 194780, Note_off_c, 0, 65, 0
2, 194784, Note_on_c, 0, 74, 78
2, 194876, Note_off_c, 0, 74, 0
2, 194880, Note_on_c, 0, 69, 78
2, 194972, Note_off_c, 0, 69, 0
2, 194976, Note_on_c, 0, 65, 78
2, 195068, Note_off_c, 0, 65, 0
2, 195168, Note_on_c, 0, 82, 78
2, 195260, Note_off_c, 0, 82, 0
2, 195264, Note_on_c, 0, 77, 78
2, 195356, Note_off_c, 0, 77, 0
2, 195360, Note_on_c, 0, 74, 78
2, 195452, Note_off_c, 0, 74, 0
2, 195456, Note_on_c, 0, 70, 78
2, 195548, Note_off_c, 0, 70, 0
2, 195552, Note_on_c, 0, 77, 78
2, 195644, Note_off_c, 0, 77, 0
2, 195648, Note_on_c, 0, 74, 78
2, 195740, Note_off_c, 0, 74, 0
2, 195744, Note_on_c, 0, 70, 78
2, 195836, Note_off_c, 0, 70, 0
2, 195840, Note_on_c, 0, 65, 78
2, 195932, Note_off_c, 0, 65, 0
2, 195936, Note_on_c, 0, 74, 78
2, 196028, Note_off_c, 0, 74, 0
2, 196032, Note_on_c, 0, 70, 78
2, 196124, Note_off_c, 0, 70, 0
2, 196128, Note_on_c, 0, 65, 78
2, 196220, Note_off_c, 0, 65, 0
2, 196224, Note_on_c, 0, 62, 78
2, 196316, Note_off_c, 0, 62, 0
2, 196320, Note_on_c, 0, 70, 78
2, 196412, Note_off_c, 0, 70, 0
2, 196416, Note_on_c, 0, 65, 78
2, 196508, Note_off_c, 0, 65, 0
2, 196512, Note_on_c, 0, 62, 78
2, 196604, Note_off_c, 0, 62, 0
2, 196704, Note_on_c, 0, 79, 78
2, 196796, Note_off_c, 0, 79, 0
2, 196800, Note_on_c, 0, 76, 78
2, 196892, Note_off_c, 0, 76, 0
2, 196896, Note_on_c, 0, 70, 78
2, 196988, Note_off_c, 0, 70, 0
2, 196992, Note_on_c, 0, 67, 78
2, 197084, Note_off_c, 0, 67, 0
2, 197088, Note_on_c, 0, 76, 78
2, 197180, Note_off_c, 0, 76, 0
2, 197184, Note_on_c, 0, 70, 78
2, 197276, Note_off_c, 0, 70, 0
2, 197280, Note_on_c, 0, 67, 78
2, 197372, Note_off_c, 0, 67, 0
2, 197376, Note_on_c, 0, 64, 78
2, 197468, Note_off_c, 0, 64, 0
2, 197472, Note_on_c, 0, 70, 78
2, 197564, Note_off_c, 0, 70, 0
2, 197568, Note_on_c, 0, 67, 78
2, 197660, Note_off_c, 0, 67, 0
2, 197664, Note_on_c, 0, 64, 78
2, 197756, Note_off_c, 0, 64, 0
2, 197760, Note_on_c, 0, 58, 78
2, 197852, Note_off_c, 0, 58, 0
2, 197856, Note_on_c, 0, 67, 78
2, 197948, Note_off_c, 0, 67, 0
2, 197952, Note_on_c, 0, 64, 78
2, 198044, Note_off_c, 0, 64, 0
2, 198048, Note_on_c, 0, 58, 78
2, 198140, Note_off_c, 0, 58, 0
2, 198240, Note_on_c, 0, 84, 78
2, 198332, Note_off_c, 0, 84, 0
2, 198336, Note_on_c, 0, 81, 78
2, 198428, Note_off_c, 0, 81, 0
2, 198432, Note_on_c, 0, 76, 78
2, 198524, Note_off_c, 0, 76, 0
2, 198528, Note_on_c, 0, 72, 78
2, 198620, Note_off_c, 0, 72, 0
2, 198624, Note_on_c, 0, 81, 78
2, 198716, Note_off_c, 0, 81, 0
2, 198720, Note_on_c, 0, 76, 78
2, 198812, Note_off_c, 0, 76, 0
2, 198816, Note_on_c, 0, 72, 78
2, 198908, Note_off_c, 0, 72, 0
2, 198912, Note_on_c, 0, 69, 78
2, 199004, Note_off_c, 0, 69, 0
2, 199008, Note_on_c, 0, 76, 78
2, 199100, Note_off_c, 0, 76, 0
2, 199104, Note_on_c, 0, 72, 78
2, 199196, Note_off_c, 0, 72, 0
2, 199200, Note_on_c, 0, 69, 78
2, 199292, Note_off_c, 0, 69, 0
2, 199296, Note_on_c, 0, 64, 78
2, 199388, Note_off_c, 0, 64, 0
2, 199392, Note_on_c, 0, 72, 78
2, 199484, Note_off_c, 0, 72, 0
2, 199488, Note_on_c, 0, 69, 78
2, 199580, Note_off_c, 0, 69, 0
2, 199584, Note_on_c, 0, 64, 78
2, 199676, Note_off_c, 0, 64, 0
2, 199776, Note_on_c, 0, 81, 78
2, 199868, Note_off_c, 0, 81, 0
2, 199872, Note_on_c, 0, 77, 78
2, 199964, Note_off_c, 0, 77, 0
2, 199968, Note_on_c, 0, 74, 78
2, 200060, Note_off_c, 0, 74, 0
2, 200064, Note_on_c, 0, 69, 78
2, 200156, Note_off_c, 0, 69, 0
2, 200160, Note_on_c, 0, 77, 78
2, 200252, Note_off_c, 0, 77, 0
2, 200256, Note_on_c, 0, 74, 78
2, 200348, Note_off_c, 0, 74, 0
2, 200352, Note_on_c, 0, 69, 78
2, 200444, Note_off_c, 0, 69, 0
2, 200544, Note_on_c, 0, 77, 78
2, 200636, Note_off_c, 0, 77, 0
2, 200640, Note_on_c, 0, 74, 78
2, 200732, Note_off_c, 0, 74, 0
2, 200736, Note_on_c, 0, 70, 78
2, 200828, Note_off_c, 0, 70, 0
2, 200832, Note_on_c, 0, 67, 78
2, 200924, Note_off_c, 0, 67, 0
2, 200928, Note_on_c, 0, 74, 78
2, 201020, Note_off_c, 0, 74, 0
2, 201024, Note_on_c, 0, 70, 78
2, 201116, Note_off_c, 0, 70, 0
2, 201120, Note_on_c, 0, 67, 78
2, 201212, Note_off_c, 0, 67, 0
2, 201312, Note_on_c, 0, 79, 78
2, 201404, Note_off_c, 0, 79, 0
2, 201408, Note_on_c, 0, 76, 78
2, 201500, Note_off_c, 0, 76, 0
2, 201504, Note_on_c, 0, 73, 78
2, 201596, Note_off_c, 0, 73, 0
2, 201600, Note_on_c, 0, 67, 78
2, 201692, Note_off_c, 0, 67, 0
2, 201696, Note_on_c, 0, 76, 78
2, 201788, Note_off_c, 0, 76, 0
2, 201792, Note_on_c, 0, 73, 78
2, 201884, Note_off_c, 0, 73, 0
2, 201888, Note_on_c, 0, 67, 78
2, 201980, Note_off_c, 0, 67, 0
2, 202080, Note_on_c, 0, 77, 78
2, 202172, Note_off_c, 0, 77, 0
2, 202176, Note_on_c, 0, 74, 78
2, 202268, Note_off_c, 0, 74, 0
2, 202272, Note_on_c, 0, 69, 78
2, 202364, Note_off_c, 0, 69, 0
2, 202368, Note_on_c, 0, 65, 78
2, 202460, Note_off_c, 0, 65, 0
2, 202464, Note_on_c, 0, 74, 78
2, 202556, Note_off_c, 0, 74, 0
2, 202560, Note_on_c, 0, 69, 78
2, 202652, Note_off_c, 0, 69, 0
2, 202656, Note_on_c, 0, 65, 78
2, 202748, Note_off_c, 0, 65, 0
2, 202848, Note_on_c, 0, 75, 78
2, 202940, Note_off_c, 0, 75, 0
2, 202944, Note_on_c, 0, 70, 78
2, 203036, Note_off_c, 0, 70, 0
2, 203040, Note_on_c, 0, 67, 78
2, 203132, Note_off_c, 0, 67, 0
2, 203136, Note_on_c, 0, 63, 78
2, 203228, Note_off_c, 0, 63, 0
2, 203232, Note_on_c, 0, 71, 78
2, 203324, Note_off_c, 0, 71, 0
2, 203328, Note_on_c, 0, 67, 78
2, 203420, Note_off_c, 0, 67, 0
2, 203424, Note_on_c, 0, 63, 78
2, 203516, Note_off_c, 0, 63, 0
2, 203616, Note_on_c, 0, 74, 78
2, 203708, Note_off_c, 0, 74, 0
2, 203712, Note_on_c, 0, 71, 78
2, 203804, Note_off_c, 0, 71, 0
2, 203808, Note_on_c, 0, 65, 78
2, 203900, Note_off_c, 0, 65, 0
2, 203904, Note_on_c, 0, 62, 78
2, 203996, Note_off_c, 0, 62, 0
2, 204000, Note_on_c, 0, 71, 78
2, 204092, Note_off_c, 0, 71, 0
2, 204096, Note_on_c, 0, 65, 78
2, 204188, Note_off_c, 0, 65, 0
2, 204192, Note_on_c, 0, 62, 78
2, 204284, Note_off_c, 0, 62, 0
2, 204288, Note_on_c, 0, 61, 78
2, 204380, Note_off_c, 0, 61, 0
2, 204480, Note_on_c, 0, 69, 78
2, 204572, Note_off_c, 0, 69, 0
2, 204672, Note_on_c, 0, 73, 78
2, 204764, Note_off_c, 0, 73, 0
2, 204864, Note_on_c, 0, 76, 78
2, 204956, Note_off_c, 0, 76, 0
2, 205056, Note_on_c, 0, 80, 78
2, 205056, Note_on_c, 0, 68, 78
2, 205244, Note_off_c, 0, 80, 0
2, 205244, Note_off_c, 0, 68, 0
2, 205248, Note_on_c, 0, 81, 78
2, 205248, Note_on_c, 0, 69, 78
2, 205436, Note_off_c, 0, 81, 0
2, 205436, Note_off_c, 0, 69, 0
2, 205440, Note_on_c, 0, 69, 78
2, 205440, Note_on_c, 0, 57, 78
2, 205532, Note_off_c, 0, 69, 0
2, 205532, Note_off_c, 0, 57, 0
2, 205632, Note_on_c, 0, 81, 78
2, 205632, Note_on_c, 0, 69, 78
2, 205724, Note_off_c, 0, 81, 0
2, 205724, Note_off_c, 0, 69, 0
2, 206016, Note_on_c, 0, 69, 78
2, 206016, Note_on_c, 0, 57, 78
2, 206108, Note_off_c, 0, 69, 0
2, 206108, Note_off_c, 0, 57, 0
2, 206208, Note_on_c, 0, 73, 78
2, 206208, Note_on_c, 0, 61, 78
2, 206300, Note_off_c, 0, 73, 0
2, 206300, Note_off_c, 0, 61, 0
2, 206400, Note_on_c, 0, 76, 78
2, 206400, Note_on_c, 0, 64, 78
2, 206492, Note_off_c, 0, 76, 0
2, 206492, Note_off_c, 0, 64, 0
2, 206592, Note_on_c, 0, 80, 78
2, 206592, Note_on_c, 0, 68, 78
2, 206780, Note_off_c, 0, 80, 0
2, 206780, Note_off_c, 0, 68, 0
2, 206784, Note_on_c, 0, 81, 78
2, 206784, Note_on_c, 0, 69, 78
2, 206972, Note_off_c, 0, 81, 0
2, 206972, Note_off_c, 0, 69, 0
2, 206976, Note_on_c, 0, 69, 78
2, 206976, Note_on_c, 0, 57, 78
2, 207068, Note_off_c, 0, 69, 0
2, 207068, Note_off_c, 0, 57, 0
2, 207168, Note_on_c, 0, 81, 77
2, 207168, Note_on_c, 0, 69, 78
2, 207260, Note_off_c, 0, 81, 0
2, 207260, Note_off_c, 0, 69, 0
2, 207360, Note_on_c, 0, 69, 78
2, 207360, Note_on_c, 0, 57, 78
2, 207740, Note_off_c, 0, 69, 0
2, 207740, Note_off_c, 0, 57, 0
2, 213504, Note_on_c, 0, 78, 66
2, 213504, Note_on_c, 0, 62, 66
2, 213692, Note_off_c, 0, 62, 0
2, 213696, Note_on_c, 0, 69, 66
2, 213884, Note_off_c, 0, 78, 0
2, 213884, Note_off_c, 0, 69, 0
2, 213888, Note_on_c, 0, 78, 66
2, 213888, Note_on_c, 0, 66, 66
2, 214076, Note_off_c, 0, 66, 0
2, 214080, Note_on_c, 0, 69, 66
2, 214268, Note_off_c, 0, 69, 0
2, 214272, Note_on_c, 0, 61, 66
2, 214460, Note_off_c, 0, 61, 0
2, 214464, Note_on_c, 0, 70, 66
2, 214652, Note_off_c, 0, 78, 0
2, 214652, Note_off_c, 0, 70, 0
2, 214656, Note_on_c, 0, 78, 66
2, 214656, Note_on_c, 0, 64, 66
2, 214844, Note_off_c, 0, 64, 0
2, 214848, Note_on_c, 0, 70, 66
2, 215036, Note_off_c, 0, 78, 0
2, 215036, Note_off_c, 0, 70, 0
2, 215040, Note_on_c, 0, 79, 66
2, 215040, Note_on_c, 0, 59, 66
2, 215228, Note_off_c, 0, 79, 0
2, 215228, Note_off_c, 0, 59, 0
2, 215232, Note_on_c, 0, 78, 66
2, 215232, Note_on_c, 0, 71, 66
2, 215420, Note_off_c, 0, 78, 0
2, 215420, Note_off_c, 0, 71, 0
2, 215424, Note_on_c, 0, 78, 66
2, 215424, Note_on_c, 0, 62, 66
2, 215612, Note_off_c, 0, 62, 0
2, 215616, Note_on_c, 0, 71, 66
2, 215804, Note_off_c, 0, 78, 0
2, 215804, Note_off_c, 0, 71, 0
2, 216576, Note_on_c, 0, 83, 66
2, 216956, Note_off_c, 0, 83, 0
2, 216960, Note_on_c, 0, 83, 66
2, 217724, Note_off_c, 0, 83, 0
2, 217728, Note_on_c, 0, 83, 66
2, 218108, Note_off_c, 0, 83, 0
2, 218112, Note_on_c, 0, 84, 66
2, 218300, Note_off_c, 0, 84, 0
2, 218304, Note_on_c, 0, 83, 66
2, 218492, Note_off_c, 0, 83, 0
2, 218496, Note_on_c, 0, 83, 66
2, 218876, Note_off_c, 0, 83, 0
2, 219648, Note_on_c, 0, 76, 66
2, 220796, Note_off_c, 0, 76, 0
2, 220800, Note_on_c, 0, 78, 66
2, 220988, Note_off_c, 0, 78, 0
2, 220992, Note_on_c, 0, 74, 66
2, 221180, Note_off_c, 0, 74, 0
2, 221184, Note_on_c, 0, 74, 66
2, 221372, Note_off_c, 0, 74, 0
2, 221376, Note_on_c, 0, 73, 66
2, 221564, Note_off_c, 0, 73, 0
2, 221568, Note_on_c, 0, 74, 66
2, 221660, Note_off_c, 0, 74, 0
2, 221760, Note_on_c, 0, 71, 66
2, 221852, Note_off_c, 0, 71, 0
2, 221952, Note_on_c, 0, 71, 66
2, 222140, Note_off_c, 0, 71, 0
2, 222144, Note_on_c, 0, 69, 66
2, 222332, Note_off_c, 0, 69, 0
2, 222336, Note_on_c, 0, 71, 66
2, 222428, Note_off_c, 0, 71, 0
2, 222528, Note_on_c, 0, 67, 66
2, 222620, Note_off_c, 0, 67, 0
2, 222720, Note_on_c, 0, 67, 66
2, 222908, Note_off_c, 0, 67, 0
2, 222912, Note_on_c, 0, 66, 66
2, 223100, Note_off_c, 0, 66, 0
2, 223104, Note_on_c, 0, 67, 66
2, 223104, Note_on_c, 0, 59, 66
2, 223196, Note_off_c, 0, 67, 0
2, 223296, Note_on_c, 0, 64, 66
2, 223388, Note_off_c, 0, 64, 0
2, 223484, Note_off_c, 0, 59, 0
2, 223488, Note_on_c, 0, 64, 66
2, 223488, Note_on_c, 0, 57, 66
2, 223676, Note_off_c, 0, 64, 0
2, 223680, Note_on_c, 0, 62, 66
2, 223868, Note_off_c, 0, 57, 0
2, 223868, Note_off_c, 0, 62, 0
2, 223872, Note_on_c, 0, 62, 66
2, 223872, Note_on_c, 0, 55, 66
2, 224060, Note_off_c, 0, 62, 0
2, 224064, Note_on_c, 0, 61, 66
2, 224252, Note_off_c, 0, 55, 0
2, 224252, Note_off_c, 0, 61, 0
2, 224256, Note_on_c, 0, 62, 66
2, 224256, Note_on_c, 0, 54, 66
2, 224636, Note_off_c, 0, 62, 0
2, 224636, Note_off_c, 0, 54, 0
2, 226560, Note_on_c, 0, 79, 66
2, 226560, Note_on_c, 0, 67, 66
2, 226748, Note_off_c, 0, 79, 0
2, 226748, Note_off_c, 0, 67, 0
2, 226752, Note_on_c, 0, 78, 66
2, 226752, Note_on_c, 0, 66, 66
2, 226940, Note_off_c, 0, 78, 0
2, 226940, Note_off_c, 0, 66, 0
2, 226944, Note_on_c, 0, 78, 66
2, 226944, Note_on_c, 0, 66, 66
2, 227324, Note_off_c, 0, 78, 0
2, 227324, Note_off_c, 0, 66, 0
2, 229632, Note_on_c, 0, 84, 66
2, 229632, Note_on_c, 0, 72, 66
2, 229820, Note_off_c, 0, 84, 0
2, 229820, Note_off_c, 0, 72, 0
2, 229824, Note_on_c, 0, 83, 66
2, 229824, Note_on_c, 0, 71, 66
2, 230012, Note_off_c, 0, 83, 0
2, 230012, Note_off_c, 0, 71, 0
2, 230016, Note_on_c, 0, 83, 66
2, 230016, Note_on_c, 0, 71, 66
2, 230396, Note_off_c, 0, 83, 0
2, 230396, Note_off_c, 0, 71, 0
2, 232512, Note_on_c, 0, 83, 66
2, 232604, Note_off_c, 0, 83, 0
2, 232704, Note_on_c, 0, 83, 66
2, 232892, Note_off_c, 0, 83, 0
2, 232896, Note_on_c, 0, 81, 66
2, 233084, Note_off_c, 0, 81, 0
2, 233088, Note_on_c, 0, 83, 66
2, 233180, Note_off_c, 0, 83, 0
2, 233280, Note_on_c, 0, 79, 66
2, 233372, Note_off_c, 0, 79, 0
2, 233472, Note_on_c, 0, 79, 66
2, 233660, Note_off_c, 0, 79, 0
2, 233664, Note_on_c, 0, 78, 66
2, 233852, Note_off_c, 0, 78, 0
2, 233856, Note_on_c, 0, 79, 66
2, 233856, Note_on_c, 0, 71, 66
2, 233948, Note_off_c, 0, 79, 0
2, 233948, Note_off_c, 0, 71, 0
2, 234048, Note_on_c, 0, 76, 66
2, 234140, Note_off_c, 0, 76, 0
2, 234240, Note_on_c, 0, 76, 66
2, 234240, Note_on_c, 0, 69, 66
2, 234428, Note_off_c, 0, 76, 0
2, 234428, Note_off_c, 0, 69, 0
2, 234432, Note_on_c, 0, 74, 66
2, 234620, Note_off_c, 0, 74, 0
2, 234624, Note_on_c, 0, 74, 66
2, 234624, Note_on_c, 0, 67, 66
2, 234812, Note_off_c, 0, 74, 0
2, 234812, Note_off_c, 0, 67, 0
2, 234816, Note_on_c, 0, 73, 66
2, 235004, Note_off_c, 0, 73, 0
2, 235008, Note_on_c, 0, 74, 78
2, 235100, Note_off_c, 0, 74, 0
2, 235104, Note_on_c, 0, 73, 78
2, 235196, Note_off_c, 0, 73, 0
2, 235200, Note_on_c, 0, 76, 78
2, 235292, Note_off_c, 0, 76, 0
2, 235296, Note_on_c, 0, 74, 78
2, 235388, Note_off_c, 0, 74, 0
2, 235392, Note_on_c, 0, 78, 78
2, 235484, Note_off_c, 0, 78, 0
2, 235488, Note_on_c, 0, 76, 78
2, 235580, Note_off_c, 0, 76, 0
2, 235584, Note_on_c, 0, 79, 78
2, 235676, Note_off_c, 0, 79, 0
2, 235680, Note_on_c, 0, 78, 78
2, 235772, Note_off_c, 0, 78, 0
2, 235776, Note_on_c, 0, 81, 78
2, 235868, Note_off_c, 0, 81, 0
2, 235872, Note_on_c, 0, 80, 78
2, 235964, Note_off_c, 0, 80, 0
2, 235968, Note_on_c, 0, 81, 78
2, 236060, Note_off_c, 0, 81, 0
2, 236064, Note_on_c, 0, 80, 78
2, 236156, Note_off_c, 0, 80, 0
2, 236160, Note_on_c, 0, 81, 78
2, 236252, Note_off_c, 0, 81, 0
2, 236256, Note_on_c, 0, 78, 78
2, 236348, Note_off_c, 0, 78, 0
2, 236352, Note_on_c, 0, 76, 78
2, 236444, Note_off_c, 0, 76, 0
2, 236448, Note_on_c, 0, 74, 78
2, 236540, Note_off_c, 0, 74, 0
2, 236544, Note_on_c, 0, 73, 78
2, 236636, Note_off_c, 0, 73, 0
2, 236640, Note_on_c, 0, 76, 78
2, 236732, Note_off_c, 0, 76, 0
2, 236736, Note_on_c, 0, 74, 78
2, 236828, Note_off_c, 0, 74, 0
2, 236832, Note_on_c, 0, 78, 78
2, 236924, Note_off_c, 0, 78, 0
2, 236928, Note_on_c, 0, 76, 78
2, 237020, Note_off_c, 0, 76, 0
2, 237024, Note_on_c, 0, 79, 78
2, 237116, Note_off_c, 0, 79, 0
2, 237120, Note_on_c, 0, 78, 78
2, 237212, Note_off_c, 0, 78, 0
2, 237216, Note_on_c, 0, 81, 78
2, 237308, Note_off_c, 0, 81, 0
2, 237312, Note_on_c, 0, 79, 78
2, 237404, Note_off_c, 0, 79, 0
2, 237408, Note_on_c, 0, 78, 78
2, 237500, Note_off_c, 0, 78, 0
2, 237504, Note_on_c, 0, 79, 78
2, 237596, Note_off_c, 0, 79, 0
2, 237600, Note_on_c, 0, 78, 78
2, 237692, Note_off_c, 0, 78, 0
2, 237696, Note_on_c, 0, 79, 78
2, 237788, Note_off_c, 0, 79, 0
2, 237792, Note_on_c, 0, 76, 78
2, 237884, Note_off_c, 0, 76, 0
2, 237888, Note_on_c, 0, 74, 78
2, 237980, Note_off_c, 0, 74, 0
2, 237984, Note_on_c, 0, 73, 78
2, 238076, Note_off_c, 0, 73, 0
2, 238080, Note_on_c, 0, 74, 66
2, 238172, Note_off_c, 0, 74, 0
2, 238176, Note_on_c, 0, 78, 66
2, 238268, Note_off_c, 0, 78, 0
2, 238272, Note_on_c, 0, 76, 66
2, 238364, Note_off_c, 0, 76, 0
2, 238368, Note_on_c, 0, 79, 66
2, 238460, Note_off_c, 0, 79, 0
2, 238464, Note_on_c, 0, 78, 66
2, 238556, Note_off_c, 0, 78, 0
2, 238560, Note_on_c, 0, 81, 66
2, 238652, Note_off_c, 0, 81, 0
2, 238656, Note_on_c, 0, 79, 66
2, 238748, Note_off_c, 0, 79, 0
2, 238752, Note_on_c, 0, 83, 66
2, 238844, Note_off_c, 0, 83, 0
2, 238848, Note_on_c, 0, 81, 66
2, 238940, Note_off_c, 0, 81, 0
2, 238944, Note_on_c, 0, 80, 66
2, 239036, Note_off_c, 0, 80, 0
2, 239040, Note_on_c, 0, 81, 66
2, 239132, Note_off_c, 0, 81, 0
2, 239136, Note_on_c, 0, 80, 66
2, 239228, Note_off_c, 0, 80, 0
2, 239232, Note_on_c, 0, 81, 66
2, 239324, Note_off_c, 0, 81, 0
2, 239328, Note_on_c, 0, 78, 66
2, 239420, Note_off_c, 0, 78, 0
2, 239424, Note_on_c, 0, 76, 66
2, 239516, Note_off_c, 0, 76, 0
2, 239520, Note_on_c, 0, 74, 66
2, 239612, Note_off_c, 0, 74, 0
2, 239616, Note_on_c, 0, 73, 66
2, 239708, Note_off_c, 0, 73, 0
2, 239712, Note_on_c, 0, 76, 66
2, 239804, Note_off_c, 0, 76, 0
2, 239808, Note_on_c, 0, 74, 66
2, 239900, Note_off_c, 0, 74, 0
2, 239904, Note_on_c, 0, 78, 66
2, 239996, Note_off_c, 0, 78, 0
2, 240000, Note_on_c, 0, 76, 66
2, 240092, Note_off_c, 0, 76, 0
2, 240096, Note_on_c, 0, 79, 66
2, 240188, Note_off_c, 0, 79, 0
2, 240192, Note_on_c, 0, 78, 66
2, 240284, Note_off_c, 0, 78, 0
2, 240288, Note_on_c, 0, 81, 66
2, 240380, Note_off_c, 0, 81, 0
2, 240384, Note_on_c, 0, 79, 66
2, 240476, Note_off_c, 0, 79, 0
2, 240480, Note_on_c, 0, 78, 66
2, 240572, Note_off_c, 0, 78, 0
2, 240576, Note_on_c, 0, 79, 66
2, 240668, Note_off_c, 0, 79, 0
2, 240672, Note_on_c, 0, 78, 66
2, 240764, Note_off_c, 0, 78, 0
2, 240768, Note_on_c, 0, 79, 66
2, 240860, Note_off_c, 0, 79, 0
2, 240864, Note_on_c, 0, 76, 66
2, 240956, Note_off_c, 0, 76, 0
2, 240960, Note_on_c, 0, 74, 66
2, 241052, Note_off_c, 0, 74, 0
2, 241056, Note_on_c, 0, 73, 66
2, 241148, Note_off_c, 0, 73, 0
2, 241152, Note_on_c, 0, 74, 66
2, 241532, Note_off_c, 0, 74, 0
2, 241536, Note_on_c, 0, 81, 66
2, 241628, Note_off_c, 0, 81, 0
2, 241632, Note_on_c, 0, 78, 66
2, 241724, Note_off_c, 0, 78, 0
2, 241728, Note_on_c, 0, 76, 66
2, 241820, Note_off_c, 0, 76, 0
2, 241824, Note_on_c, 0, 74, 66
2, 241916, Note_off_c, 0, 74, 0
2, 241920, Note_on_c, 0, 73, 66
2, 242012, Note_off_c, 0, 73, 0
2, 242016, Note_on_c, 0, 74, 66
2, 242108, Note_off_c, 0, 74, 0
2, 242112, Note_on_c, 0, 76, 66
2, 242204, Note_off_c, 0, 76, 0
2, 242208, Note_on_c, 0, 74, 66
2, 242300, Note_off_c, 0, 74, 0
2, 242304, Note_on_c, 0, 72, 66
2, 242396, Note_off_c, 0, 72, 0
2, 242400, Note_on_c, 0, 74, 66
2, 242492, Note_off_c, 0, 74, 0
2, 242496, Note_on_c, 0, 76, 66
2, 242588, Note_off_c, 0, 76, 0
2, 242592, Note_on_c, 0, 74, 66
2, 242684, Note_off_c, 0, 74, 0
2, 242688, Note_on_c, 0, 71, 66
2, 243068, Note_off_c, 0, 71, 0
2, 243072, Note_on_c, 0, 83, 66
2, 243164, Note_off_c, 0, 83, 0
2, 243168, Note_on_c, 0, 79, 66
2, 243260, Note_off_c, 0, 79, 0
2, 243264, Note_on_c, 0, 78, 66
2, 243356, Note_off_c, 0, 78, 0
2, 243360, Note_on_c, 0, 76, 66
2, 243452, Note_off_c, 0, 76, 0
2, 243456, Note_on_c, 0, 75, 66
2, 243548, Note_off_c, 0, 75, 0
2, 243552, Note_on_c, 0, 76, 66
2, 243644, Note_off_c, 0, 76, 0
2, 243648, Note_on_c, 0, 78, 66
2, 243740, Note_off_c, 0, 78, 0
2, 243744, Note_on_c, 0, 76, 66
2, 243836, Note_off_c, 0, 76, 0
2, 243840, Note_on_c, 0, 75, 66
2, 243932, Note_off_c, 0, 75, 0
2, 243936, Note_on_c, 0, 76, 66
2, 244028, Note_off_c, 0, 76, 0
2, 244032, Note_on_c, 0, 79, 66
2, 244124, Note_off_c, 0, 79, 0
2, 244128, Note_on_c, 0, 76, 66
2, 244220, Note_off_c, 0, 76, 0
2, 244224, Note_on_c, 0, 69, 66
2, 244316, Note_off_c, 0, 69, 0
2, 244320, Note_on_c, 0, 74, 67
2, 244412, Note_off_c, 0, 74, 0
2, 244416, Note_on_c, 0, 78, 69
2, 244508, Note_off_c, 0, 78, 0
2, 244512, Note_on_c, 0, 81, 70
2, 244604, Note_off_c, 0, 81, 0
2, 244608, Note_on_c, 0, 79, 72
2, 244700, Note_off_c, 0, 79, 0
2, 244704, Note_on_c, 0, 78, 74
2, 244796, Note_off_c, 0, 78, 0
2, 244800, Note_on_c, 0, 76, 76
2, 244892, Note_off_c, 0, 76, 0
2, 244896, Note_on_c, 0, 74, 80
2, 244988, Note_off_c, 0, 74, 0
2, 244992, Note_on_c, 0, 76, 80
2, 245032, Note_off_c, 0, 76, 0
2, 245040, Note_on_c, 0, 78, 78
2, 245080, Note_off_c, 0, 78, 0
2, 245088, Note_on_c, 0, 76, 76
2, 245128, Note_off_c, 0, 76, 0
2, 245136, Note_on_c, 0, 78, 74
2, 245176, Note_off_c, 0, 78, 0
2, 245184, Note_on_c, 0, 76, 72
2, 245224, Note_off_c, 0, 76, 0
2, 245232, Note_on_c, 0, 78, 70
2, 245272, Note_off_c, 0, 78, 0
2, 245280, Note_on_c, 0, 76, 68
2, 245320, Note_off_c, 0, 76, 0
2, 245328, Note_on_c, 0, 78, 66
2, 245368, Note_off_c, 0, 78, 0
2, 245376, Note_on_c, 0, 76, 64
2, 245416, Note_off_c, 0, 76, 0
2, 245424, Note_on_c, 0, 78, 62
2, 245464, Note_off_c, 0, 78, 0
2, 245472, Note_on_c, 0, 76, 60
2, 245512, Note_off_c, 0, 76, 0
2, 245520, Note_on_c, 0, 78, 58
2, 245560, Note_off_c, 0, 78, 0
2, 245568, Note_on_c, 0, 74, 56
2, 245660, Note_off_c, 0, 74, 0
2, 245664, Note_on_c, 0, 76, 55
2, 245756, Note_off_c, 0, 76, 0
2, 245760, Note_on_c, 0, 74, 55
2, 246140, Note_off_c, 0, 74, 0
2, 246240, Note_on_c, 0, 69, 55
2, 246332, Note_off_c, 0, 69, 0
2, 246336, Note_on_c, 0, 74, 55
2, 246428, Note_off_c, 0, 74, 0
2, 246432, Note_on_c, 0, 78, 55
2, 246524, Note_off_c, 0, 78, 0
2, 246528, Note_on_c, 0, 81, 55
2, 246624, Note_on_c, 0, 62, 55
2, 246716, Note_off_c, 0, 62, 0
2, 246720, Note_on_c, 0, 66, 55
2, 246812, Note_off_c, 0, 66, 0
2, 246816, Note_on_c, 0, 69, 55
2, 246908, Note_off_c, 0, 81, 0
2, 246908, Note_off_c, 0, 69, 0
2, 246912, Note_on_c, 0, 74, 55
2, 247008, Note_on_c, 0, 86, 55
2, 247100, Note_off_c, 0, 86, 0
2, 247104, Note_on_c, 0, 81, 55
2, 247196, Note_off_c, 0, 81, 0
2, 247200, Note_on_c, 0, 78, 55
2, 247292, Note_off_c, 0, 74, 0
2, 247292, Note_off_c, 0, 78, 0
2, 247296, Note_on_c, 0, 79, 55
2, 247392, Note_on_c, 0, 67, 55
2, 247484, Note_off_c, 0, 67, 0
2, 247488, Note_on_c, 0, 64, 55
2, 247580, Note_off_c, 0, 64, 0
2, 247584, Note_on_c, 0, 61, 55
2, 247676, Note_off_c, 0, 79, 0
2, 247676, Note_off_c, 0, 61, 0
2, 247680, Note_on_c, 0, 57, 55
2, 247776, Note_on_c, 0, 76, 55
2, 247868, Note_off_c, 0, 76, 0
2, 247872, Note_on_c, 0, 73, 55
2, 247964, Note_off_c, 0, 73, 0
2, 247968, Note_on_c, 0, 69, 55
2, 248060, Note_off_c, 0, 57, 0
2, 248060, Note_off_c, 0, 69, 0
2, 248064, Note_on_c, 0, 67, 55
2, 248444, Note_off_c, 0, 67, 0
2, 248544, Note_on_c, 0, 64, 55
2, 248636, Note_off_c, 0, 64, 0
2, 248640, Note_on_c, 0, 61, 55
2, 248732, Note_off_c, 0, 61, 0
2, 248736, Note_on_c, 0, 57, 55
2, 248828, Note_off_c, 0, 57, 0
2, 248832, Note_on_c, 0, 62, 55
2, 249212, Note_off_c, 0, 62, 0
2, 249312, Note_on_c, 0, 69, 55
2, 249404, Note_off_c, 0, 69, 0
2, 249408, Note_on_c, 0, 74, 55
2, 249500, Note_off_c, 0, 74, 0
2, 249504, Note_on_c, 0, 78, 55
2, 249596, Note_off_c, 0, 78, 0
2, 249600, Note_on_c, 0, 81, 55
2, 249696, Note_on_c, 0, 62, 55
2, 249788, Note_off_c, 0, 62, 0
2, 249792, Note_on_c, 0, 66, 55
2, 249884, Note_off_c, 0, 66, 0
2, 249888, Note_on_c, 0, 69, 55
2, 249980, Note_off_c, 0, 81, 0
2, 249980, Note_off_c, 0, 69, 0
2, 249984, Note_on_c, 0, 74, 55
2, 250080, Note_on_c, 0, 86, 55
2, 250172, Note_off_c, 0, 86, 0
2, 250176, Note_on_c, 0, 81, 55
2, 250268, Note_off_c, 0, 81, 0
2, 250272, Note_on_c, 0, 78, 55
2, 250364, Note_off_c, 0, 74, 0
2, 250364, Note_off_c, 0, 78, 0
2, 250368, Note_on_c, 0, 79, 55
2, 250464, Note_on_c, 0, 67, 55
2, 250556, Note_off_c, 0, 67, 0
2, 250560, Note_on_c, 0, 64, 55
2, 250652, Note_off_c, 0, 64, 0
2, 250656, Note_on_c, 0, 61, 55
2, 250748, Note_off_c, 0, 79, 0
2, 250748, Note_off_c, 0, 61, 0
2, 250752, Note_on_c, 0, 57, 55
2, 250848, Note_on_c, 0, 76, 55
2, 250940, Note_off_c, 0, 76, 0
2, 250944, Note_on_c, 0, 73, 55
2, 251036, Note_off_c, 0, 73, 0
2, 251040, Note_on_c, 0, 69, 55
2, 251132, Note_off_c, 0, 57, 0
2, 251132, Note_off_c, 0, 69, 0
2, 251136, Note_on_c, 0, 67, 55
2, 251516, Note_off_c, 0, 67, 0
2, 251616, Note_on_c, 0, 64, 55
2, 251708, Note_off_c, 0, 64, 0
2, 251712, Note_on_c, 0, 61, 55
2, 251804, Note_off_c, 0, 61, 0
2, 251808, Note_on_c, 0, 57, 55
2, 251900, Note_off_c, 0, 57, 0
2, 252000, Note_on_c, 0, 62, 58
2, 252092, Note_off_c, 0, 62, 0
2, 252096, Note_on_c, 0, 64, 60
2, 252188, Note_off_c, 0, 64, 0
2, 252192, Note_on_c, 0, 66, 62
2, 252284, Note_off_c, 0, 66, 0
2, 252288, Note_on_c, 0, 67, 65
2, 252380, Note_off_c, 0, 67, 0
2, 252384, Note_on_c, 0, 69, 67
2, 252476, Note_off_c, 0, 69, 0
2, 252480, Note_on_c, 0, 71, 69
2, 252572, Note_off_c, 0, 71, 0
2, 252576, Note_on_c, 0, 73, 71
2, 252668, Note_off_c, 0, 73, 0
2, 252672, Note_on_c, 0, 74, 74
2, 252764, Note_off_c, 0, 74, 0
2, 252768, Note_on_c, 0, 76, 76
2, 252860, Note_off_c, 0, 76, 0
2, 252864, Note_on_c, 0, 78, 78
2, 252956, Note_off_c, 0, 78, 0
2, 252960, Note_on_c, 0, 79, 80
2, 253052, Note_off_c, 0, 79, 0
2, 253056, Note_on_c, 0, 81, 83
2, 253244, Note_off_c, 0, 81, 0
2, 253520, Note_on_c, 0, 67, 57
2, 253612, Note_off_c, 0, 67, 0
2, 253632, Note_on_c, 0, 69, 60
2, 253724, Note_off_c, 0, 69, 0
2, 253728, Note_on_c, 0, 70, 62
2, 253820, Note_off_c, 0, 70, 0
2, 253824, Note_on_c, 0, 72, 65
2, 253916, Note_off_c, 0, 72, 0
2, 253920, Note_on_c, 0, 74, 67
2, 254012, Note_off_c, 0, 74, 0
2, 254016, Note_on_c, 0, 76, 69
2, 254108, Note_off_c, 0, 76, 0
2, 254112, Note_on_c, 0, 78, 71
2, 254204, Note_off_c, 0, 78, 0
2, 254208, Note_on_c, 0, 79, 74
2, 254300, Note_off_c, 0, 79, 0
2, 254304, Note_on_c, 0, 81, 76
2, 254396, Note_off_c, 0, 81, 0
2, 254400, Note_on_c, 0, 82, 78
2, 254492, Note_off_c, 0, 82, 0
2, 254496, Note_on_c, 0, 84, 80
2, 254588, Note_off_c, 0, 84, 0
2, 254592, Note_on_c, 0, 86, 83
2, 254780, Note_off_c, 0, 86, 0
2, 255072, Note_on_c, 0, 69, 58
2, 255164, Note_off_c, 0, 69, 0
2, 255168, Note_on_c, 0, 71, 60
2, 255260, Note_off_c, 0, 71, 0
2, 255264, Note_on_c, 0, 73, 62
2, 255356, Note_off_c, 0, 73, 0
2, 255360, Note_on_c, 0, 74, 65
2, 255452, Note_off_c, 0, 74, 0
2, 255456, Note_on_c, 0, 76, 67
2, 255548, Note_off_c, 0, 76, 0
2, 255552, Note_on_c, 0, 77, 69
2, 255644, Note_off_c, 0, 77, 0
2, 255648, Note_on_c, 0, 79, 71
2, 255740, Note_off_c, 0, 79, 0
2, 255744, Note_on_c, 0, 81, 74
2, 255836, Note_off_c, 0, 81, 0
2, 255840, Note_on_c, 0, 77, 76
2, 255932, Note_off_c, 0, 77, 0
2, 255936, Note_on_c, 0, 81, 78
2, 256028, Note_off_c, 0, 81, 0
2, 256032, Note_on_c, 0, 77, 80
2, 256124, Note_off_c, 0, 77, 0
2, 256128, Note_on_c, 0, 86, 83
2, 256316, Note_off_c, 0, 86, 0
2, 256608, Note_on_c, 0, 70, 58
2, 256700, Note_off_c, 0, 70, 0
2, 256704, Note_on_c, 0, 72, 60
2, 256796, Note_off_c, 0, 72, 0
2, 256800, Note_on_c, 0, 74, 62
2, 256892, Note_off_c, 0, 74, 0
2, 256896, Note_on_c, 0, 75, 65
2, 256988, Note_off_c, 0, 75, 0
2, 256992, Note_on_c, 0, 77, 67
2, 257084, Note_off_c, 0, 77, 0
2, 257088, Note_on_c, 0, 79, 69
2, 257180, Note_off_c, 0, 79, 0
2, 257184, Note_on_c, 0, 81, 71
2, 257276, Note_off_c, 0, 81, 0
2, 257280, Note_on_c, 0, 82, 74
2, 257372, Note_off_c, 0, 82, 0
2, 257376, Note_on_c, 0, 77, 76
2, 257468, Note_off_c, 0, 77, 0
2, 257472, Note_on_c, 0, 86, 78
2, 257564, Note_off_c, 0, 86, 0
2, 257568, Note_on_c, 0, 82, 80
2, 257660, Note_off_c, 0, 82, 0
2, 257664, Note_on_c, 0, 89, 83
2, 257852, Note_off_c, 0, 89, 0
2, 258144, Note_on_c, 0, 68, 58
2, 258236, Note_off_c, 0, 68, 0
2, 258240, Note_on_c, 0, 71, 60
2, 258332, Note_off_c, 0, 71, 0
2, 258336, Note_on_c, 0, 74, 62
2, 258428, Note_off_c, 0, 74, 0
2, 258432, Note_on_c, 0, 77, 65
2, 258524, Note_off_c, 0, 77, 0
2, 258528, Note_on_c, 0, 74, 67
2, 258620, Note_off_c, 0, 74, 0
2, 258624, Note_on_c, 0, 80, 69
2, 258716, Note_off_c, 0, 80, 0
2, 258720, Note_on_c, 0, 77, 71
2, 258812, Note_off_c, 0, 77, 0
2, 258816, Note_on_c, 0, 83, 74
2, 258908, Note_off_c, 0, 83, 0
2, 258912, Note_on_c, 0, 80, 76
2, 259004, Note_off_c, 0, 80, 0
2, 259008, Note_on_c, 0, 86, 78
2, 259100, Note_off_c, 0, 86, 0
2, 259104, Note_on_c, 0, 83, 80
2, 259196, Note_off_c, 0, 83, 0
2, 259200, Note_on_c, 0, 89, 83
2, 259388, Note_off_c, 0, 89, 0
2, 259680, Note_on_c, 0, 69, 57
2, 259772, Note_off_c, 0, 69, 0
2, 259776, Note_on_c, 0, 71, 58
2, 259868, Note_off_c, 0, 71, 0
2, 259872, Note_on_c, 0, 73, 59
2, 259964, Note_off_c, 0, 73, 0
2, 259968, Note_on_c, 0, 74, 60
2, 260060, Note_off_c, 0, 74, 0
2, 260064, Note_on_c, 0, 76, 61
2, 260156, Note_off_c, 0, 76, 0
2, 260160, Note_on_c, 0, 78, 62
2, 260252, Note_off_c, 0, 78, 0
2, 260256, Note_on_c, 0, 79, 63
2, 260348, Note_off_c, 0, 79, 0
2, 260352, Note_on_c, 0, 81, 64
2, 260444, Note_off_c, 0, 81, 0
2, 260448, Note_on_c, 0, 83, 66
2, 260540, Note_off_c, 0, 83, 0
2, 260544, Note_on_c, 0, 85, 67
2, 260636, Note_off_c, 0, 85, 0
2, 260640, Note_on_c, 0, 86, 68
2, 260732, Note_off_c, 0, 86, 0
2, 260736, Note_on_c, 0, 80, 69
2, 260828, Note_off_c, 0, 80, 0
2, 260832, Note_on_c, 0, 81, 70
2, 260924, Note_off_c, 0, 81, 0
2, 260928, Note_on_c, 0, 78, 71
2, 261020, Note_off_c, 0, 78, 0
2, 261024, Note_on_c, 0, 74, 72
2, 261116, Note_off_c, 0, 74, 0
2, 261120, Note_on_c, 0, 76, 73
2, 261160, Note_off_c, 0, 76, 0
2, 261168, Note_on_c, 0, 78, 74
2, 261208, Note_off_c, 0, 78, 0
2, 261216, Note_on_c, 0, 76, 74
2, 261256, Note_off_c, 0, 76, 0
2, 261264, Note_on_c, 0, 78, 75
2, 261304, Note_off_c, 0, 78, 0
2, 261312, Note_on_c, 0, 76, 76
2, 261352, Note_off_c, 0, 76, 0
2, 261360, Note_on_c, 0, 78, 76
2, 261400, Note_off_c, 0, 78, 0
2, 261408, Note_on_c, 0, 76, 77
2, 261448, Note_off_c, 0, 76, 0
2, 261456, Note_on_c, 0, 78, 77
2, 261496, Note_off_c, 0, 78, 0
2, 261504, Note_on_c, 0, 76, 78
2, 261544, Note_off_c, 0, 76, 0
2, 261552, Note_on_c, 0, 78, 78
2, 261592, Note_off_c, 0, 78, 0
2, 261600, Note_on_c, 0, 76, 79
2, 261640, Note_off_c, 0, 76, 0
2, 261648, Note_on_c, 0, 78, 79
2, 261688, Note_off_c, 0, 78, 0
2, 261696, Note_on_c, 0, 76, 80
2, 261736, Note_off_c, 0, 76, 0
2, 261744, Note_on_c, 0, 78, 81
2, 261784, Note_off_c, 0, 78, 0
2, 261792, Note_on_c, 0, 76, 81
2, 261832, Note_off_c, 0, 76, 0
2, 261840, Note_on_c, 0, 78, 82
2, 261880, Note_off_c, 0, 78, 0
2, 261888, Note_on_c, 0, 76, 82
2, 261928, Note_off_c, 0, 76, 0
2, 261936, Note_on_c, 0, 78, 83
2, 261976, Note_off_c, 0, 78, 0
2, 261984, Note_on_c, 0, 76, 83
2, 262024, Note_off_c, 0, 76, 0
2, 262032, Note_on_c, 0, 78, 84
2, 262072, Note_off_c, 0, 78, 0
2, 262080, Note_on_c, 0, 76, 84
2, 262120, Note_off_c, 0, 76, 0
2, 262128, Note_on_c, 0, 78, 85
2, 262168, Note_off_c, 0, 78, 0
2, 262176, Note_on_c, 0, 76, 86
2, 262216, Note_off_c, 0, 76, 0
2, 262224, Note_on_c, 0, 78, 86
2, 262264, Note_off_c, 0, 78, 0
2, 262272, Note_on_c, 0, 76, 87
2, 262312, Note_off_c, 0, 76, 0
2, 262320, Note_on_c, 0, 78, 87
2, 262360, Note_off_c, 0, 78, 0
2, 262368, Note_on_c, 0, 76, 88
2, 262408, Note_off_c, 0, 76, 0
2, 262416, Note_on_c, 0, 78, 88
2, 262456, Note_off_c, 0, 78, 0
2, 262464, Note_on_c, 0, 74, 89
2, 262552, Note_off_c, 0, 74, 0
2, 262560, Note_on_c, 0, 76, 90
2, 262648, Note_off_c, 0, 76, 0
2, 262656, Note_on_c, 0, 74, 91
2, 263036, Note_off_c, 0, 74, 0
2, 282752, Note_on_c, 0, 58, 66
2, 282876, Note_off_c, 0, 58, 0
2, 282880, Note_on_c, 0, 62, 69
2, 283004, Note_off_c, 0, 62, 0
2, 283008, Note_on_c, 0, 65, 72
2, 283132, Note_off_c, 0, 65, 0
2, 283136, Note_on_c, 0, 70, 75
2, 283260, Note_off_c, 0, 70, 0
2, 283264, Note_on_c, 0, 74, 77
2, 283388, Note_off_c, 0, 74, 0
2, 283392, Note_on_c, 0, 77, 80
2, 283516, Note_off_c, 0, 77, 0
2, 283520, Note_on_c, 0, 82, 82
2, 283644, Note_off_c, 0, 82, 0
2, 283648, Note_on_c, 0, 86, 84
2, 283772, Note_off_c, 0, 86, 0
2, 283776, Note_on_c, 0, 89, 87
2, 283840, Note_off_c, 0, 89, 0
2, 283904, Note_on_c, 0, 89, 89
2, 283968, Note_off_c, 0, 89, 0
2, 284032, Note_on_c, 0, 89, 91
2, 284096, Note_off_c, 0, 89, 0
2, 284160, Note_on_c, 0, 89, 92
2, 284284, Note_off_c, 0, 89, 0
2, 284288, Note_on_c, 0, 87, 90
2, 284412, Note_off_c, 0, 87, 0
2, 284416, Note_on_c, 0, 84, 87
2, 284540, Note_off_c, 0, 84, 0
2, 284544, Note_on_c, 0, 81, 84
2, 284668, Note_off_c, 0, 81, 0
2, 284672, Note_on_c, 0, 77, 82
2, 284796, Note_off_c, 0, 77, 0
2, 284800, Note_on_c, 0, 75, 79
2, 284924, Note_off_c, 0, 75, 0
2, 284928, Note_on_c, 0, 72, 76
2, 285052, Note_off_c, 0, 72, 0
2, 285056, Note_on_c, 0, 69, 74
2, 285180, Note_off_c, 0, 69, 0
2, 285184, Note_on_c, 0, 65, 71
2, 285308, Note_off_c, 0, 65, 0
2, 285312, Note_on_c, 0, 63, 68
2, 285436, Note_off_c, 0, 63, 0
2, 285440, Note_on_c, 0, 62, 66
2, 285564, Note_off_c, 0, 62, 0
2, 285568, Note_on_c, 0, 60, 63
2, 285692, Note_off_c, 0, 60, 0
2, 285824, Note_on_c, 0, 58, 66
2, 285948, Note_off_c, 0, 58, 0
2, 285952, Note_on_c, 0, 62, 69
2, 286076, Note_off_c, 0, 62, 0
2, 286080, Note_on_c, 0, 65, 72
2, 286204, Note_off_c, 0, 65, 0
2, 286208, Note_on_c, 0, 70, 75
2, 286332, Note_off_c, 0, 70, 0
2, 286336, Note_on_c, 0, 74, 77
2, 286460, Note_off_c, 0, 74, 0
2, 286464, Note_on_c, 0, 77, 80
2, 286588, Note_off_c, 0, 77, 0
2, 286592, Note_on_c, 0, 82, 82
2, 286716, Note_off_c, 0, 82, 0
2, 286720, Note_on_c, 0, 86, 84
2, 286844, Note_off_c, 0, 86, 0
2, 286848, Note_on_c, 0, 89, 87
2, 286904, Note_off_c, 0, 89, 0
2, 286976, Note_on_c, 0, 89, 89
2, 287032, Note_off_c, 0, 89, 0
2, 287104, Note_on_c, 0, 89, 91
2, 287160, Note_off_c, 0, 89, 0
2, 287232, Note_on_c, 0, 89, 92
2, 287356, Note_off_c, 0, 89, 0
2, 287360, Note_on_c, 0, 87, 90
2, 287484, Note_off_c, 0, 87, 0
2, 287488, Note_on_c, 0, 84, 87
2, 287612, Note_off_c, 0, 84, 0
2, 287616, Note_on_c, 0, 81, 84
2, 287740, Note_off_c, 0, 81, 0
2, 287744, Note_on_c, 0, 77, 82
2, 287868, Note_off_c, 0, 77, 0
2, 287872, Note_on_c, 0, 75, 79
2, 287996, Note_off_c, 0, 75, 0
2, 288000, Note_on_c, 0, 72, 76
2, 288124, Note_off_c, 0, 72, 0
2, 288128, Note_on_c, 0, 69, 74
2, 288252, Note_off_c, 0, 69, 0
2, 288256, Note_on_c, 0, 65, 71
2, 288380, Note_off_c, 0, 65, 0
2, 288384, Note_on_c, 0, 63, 68
2, 288508, Note_off_c, 0, 63, 0
2, 288512, Note_on_c, 0, 62, 66
2, 288636, Note_off_c, 0, 62, 0
2, 288640, Note_on_c, 0, 60, 63
2, 288764, Note_off_c, 0, 60, 0
2, 288896, Note_on_c, 0, 58, 66
2, 289020, Note_off_c, 0, 58, 0
2, 289024, Note_on_c, 0, 62, 69
2, 289148, Note_off_c, 0, 62, 0
2, 289152, Note_on_c, 0, 65, 72
2, 289276, Note_off_c, 0, 65, 0
2, 289280, Note_on_c, 0, 70, 75
2, 289404, Note_off_c, 0, 70, 0
2, 289408, Note_on_c, 0, 74, 77
2, 289532, Note_off_c, 0, 74, 0
2, 289536, Note_on_c, 0, 77, 80
2, 289660, Note_off_c, 0, 77, 0
2, 289664, Note_on_c, 0, 82, 82
2, 289788, Note_off_c, 0, 82, 0
2, 289792, Note_on_c, 0, 86, 84
2, 289916, Note_off_c, 0, 86, 0
2, 289920, Note_on_c, 0, 89, 87
2, 289976, Note_off_c, 0, 89, 0
2, 290048, Note_on_c, 0, 89, 89
2, 290104, Note_off_c, 0, 89, 0
2, 290176, Note_on_c, 0, 89, 91
2, 290232, Note_off_c, 0, 89, 0
2, 290304, Note_on_c, 0, 89, 92
2, 290428, Note_off_c, 0, 89, 0
2, 290432, Note_on_c, 0, 86, 90
2, 290556, Note_off_c, 0, 86, 0
2, 290560, Note_on_c, 0, 83, 87
2, 290684, Note_off_c, 0, 83, 0
2, 290688, Note_on_c, 0, 86, 84
2, 290812, Note_off_c, 0, 86, 0
2, 290816, Note_on_c, 0, 83, 82
2, 290940, Note_off_c, 0, 83, 0
2, 290944, Note_on_c, 0, 77, 79
2, 291068, Note_off_c, 0, 77, 0
2, 291072, Note_on_c, 0, 83, 76
2, 291196, Note_off_c, 0, 83, 0
2, 291200, Note_on_c, 0, 77, 74
2, 291324, Note_off_c, 0, 77, 0
2, 291328, Note_on_c, 0, 74, 71
2, 291452, Note_off_c, 0, 74, 0
2, 291456, Note_on_c, 0, 77, 68
2, 291580, Note_off_c, 0, 77, 0
2, 291584, Note_on_c, 0, 74, 66
2, 291708, Note_off_c, 0, 74, 0
2, 291712, Note_on_c, 0, 71, 63
2, 291836, Note_off_c, 0, 71, 0
2, 291840, Note_on_c, 0, 86, 92
2, 291964, Note_off_c, 0, 86, 0
2, 291968, Note_on_c, 0, 83, 90
2, 292092, Note_off_c, 0, 83, 0
2, 292096, Note_on_c, 0, 78, 87
2, 292220, Note_off_c, 0, 78, 0
2, 292224, Note_on_c, 0, 83, 84
2, 292348, Note_off_c, 0, 83, 0
2, 292352, Note_on_c, 0, 78, 82
2, 292476, Note_off_c, 0, 78, 0
2, 292480, Note_on_c, 0, 74, 79
2, 292604, Note_off_c, 0, 74, 0
2, 292608, Note_on_c, 0, 78, 76
2, 292732, Note_off_c, 0, 78, 0
2, 292736, Note_on_c, 0, 74, 74
2, 292860, Note_off_c, 0, 74, 0
2, 292864, Note_on_c, 0, 71, 71
2, 292988, Note_off_c, 0, 71, 0
2, 292992, Note_on_c, 0, 74, 68
2, 293116, Note_off_c, 0, 74, 0
2, 293120, Note_on_c, 0, 71, 66
2, 293244, Note_off_c, 0, 71, 0
2, 293248, Note_on_c, 0, 66, 63
2, 293372, Note_off_c, 0, 66, 0
2, 293376, Note_on_c, 0, 83, 92
2, 293500, Note_off_c, 0, 83, 0
2, 293504, Note_on_c, 0, 80, 90
2, 293628, Note_off_c, 0, 80, 0
2, 293632, Note_on_c, 0, 74, 87
2, 293756, Note_off_c, 0, 74, 0
2, 293760, Note_on_c, 0, 80, 84
2, 293884, Note_off_c, 0, 80, 0
2, 293888, Note_on_c, 0, 74, 82
2, 294012, Note_off_c, 0, 74, 0
2, 294016, Note_on_c, 0, 71, 79
2, 294140, Note_off_c, 0, 71, 0
2, 294144, Note_on_c, 0, 74, 76
2, 294268, Note_off_c, 0, 74, 0
2, 294272, Note_on_c, 0, 71, 74
2, 294396, Note_off_c, 0, 71, 0
2, 294400, Note_on_c, 0, 68, 71
2, 294524, Note_off_c, 0, 68, 0
2, 294528, Note_on_c, 0, 71, 68
2, 294652, Note_off_c, 0, 71, 0
2, 294656, Note_on_c, 0, 68, 66
2, 294780, Note_off_c, 0, 68, 0
2, 294784, Note_on_c, 0, 62, 63
2, 294908, Note_off_c, 0, 62, 0
2, 294912, Note_on_c, 0, 60, 66
2, 295036, Note_off_c, 0, 60, 0
2, 295040, Note_on_c, 0, 57, 68
2, 295164, Note_off_c, 0, 57, 0
2, 295168, Note_on_c, 0, 60, 70
2, 295292, Note_off_c, 0, 60, 0
2, 295296, Note_on_c, 0, 64, 73
2, 295420, Note_off_c, 0, 64, 0
2, 295424, Note_on_c, 0, 69, 75
2, 295548, Note_off_c, 0, 69, 0
2, 295552, Note_on_c, 0, 72, 77
2, 295676, Note_off_c, 0, 72, 0
2, 295680, Note_on_c, 0, 76, 80
2, 295804, Note_off_c, 0, 76, 0
2, 295808, Note_on_c, 0, 81, 82
2, 295932, Note_off_c, 0, 81, 0
2, 295936, Note_on_c, 0, 84, 84
2, 296060, Note_off_c, 0, 84, 0
2, 296064, Note_on_c, 0, 88, 87
2, 296120, Note_off_c, 0, 88, 0
2, 296192, Note_on_c, 0, 88, 89
2, 296248, Note_off_c, 0, 88, 0
2, 296320, Note_on_c, 0, 88, 91
2, 296376, Note_off_c, 0, 88, 0
2, 296448, Note_on_c, 0, 88, 92
2, 296572, Note_off_c, 0, 88, 0
2, 296576, Note_on_c, 0, 86, 90
2, 296700, Note_off_c, 0, 86, 0
2, 296704, Note_on_c, 0, 83, 87
2, 296828, Note_off_c, 0, 83, 0
2, 296832, Note_on_c, 0, 80, 84
2, 296956, Note_off_c, 0, 80, 0
2, 296960, Note_on_c, 0, 76, 82
2, 297084, Note_off_c, 0, 76, 0
2, 297088, Note_on_c, 0, 74, 79
2, 297212, Note_off_c, 0, 74, 0
2, 297216, Note_on_c, 0, 71, 76
2, 297340, Note_off_c, 0, 71, 0
2, 297344, Note_on_c, 0, 68, 74
2, 297468, Note_off_c, 0, 68, 0
2, 297472, Note_on_c, 0, 64, 71
2, 297596, Note_off_c, 0, 64, 0
2, 297600, Note_on_c, 0, 62, 68
2, 297724, Note_off_c, 0, 62, 0
2, 297728, Note_on_c, 0, 60, 66
2, 297852, Note_off_c, 0, 60, 0
2, 297856, Note_on_c, 0, 59, 63
2, 297980, Note_off_c, 0, 59, 0
2, 298112, Note_on_c, 0, 57, 68
2, 298236, Note_off_c, 0, 57, 0
2, 298240, Note_on_c, 0, 60, 70
2, 298364, Note_off_c, 0, 60, 0
2, 298368, Note_on_c, 0, 64, 73
2, 298492, Note_off_c, 0, 64, 0
2, 298496, Note_on_c, 0, 69, 75
2, 298620, Note_off_c, 0, 69, 0
2, 298624, Note_on_c, 0, 72, 77
2, 298748, Note_off_c, 0, 72, 0
2, 298752, Note_on_c, 0, 76, 80
2, 298876, Note_off_c, 0, 76, 0
2, 298880, Note_on_c, 0, 81, 82
2, 299004, Note_off_c, 0, 81, 0
2, 299008, Note_on_c, 0, 84, 84
2, 299132, Note_off_c, 0, 84, 0
2, 299136, Note_on_c, 0, 88, 87
2, 299192, Note_off_c, 0, 88, 0
2, 299264, Note_on_c, 0, 88, 89
2, 299320, Note_off_c, 0, 88, 0
2, 299392, Note_on_c, 0, 88, 91
2, 299448, Note_off_c, 0, 88, 0
2, 299520, Note_on_c, 0, 88, 78
2, 299644, Note_off_c, 0, 88, 0
2, 299648, Note_on_c, 0, 86, 77
2, 299772, Note_off_c, 0, 86, 0
2, 299776, Note_on_c, 0, 83, 75
2, 299900, Note_off_c, 0, 83, 0
2, 299904, Note_on_c, 0, 80, 74
2, 300028, Note_off_c, 0, 80, 0
2, 300032, Note_on_c, 0, 76, 74
2, 300156, Note_off_c, 0, 76, 0
2, 300160, Note_on_c, 0, 74, 71
2, 300284, Note_off_c, 0, 74, 0
2, 300288, Note_on_c, 0, 71, 70
2, 300412, Note_off_c, 0, 71, 0
2, 300416, Note_on_c, 0, 68, 70
2, 300540, Note_off_c, 0, 68, 0
2, 300544, Note_on_c, 0, 64, 69
2, 300668, Note_off_c, 0, 64, 0
2, 300672, Note_on_c, 0, 62, 68
2, 300796, Note_off_c, 0, 62, 0
2, 300800, Note_on_c, 0, 60, 66
2, 300924, Note_off_c, 0, 60, 0
2, 300928, Note_on_c, 0, 59, 66
2, 301052, Note_off_c, 0, 59, 0
2, 301184, Note_on_c, 0, 57, 68
2, 301308, Note_off_c, 0, 57, 0
2, 301312, Note_on_c, 0, 60, 70
2, 301436, Note_off_c, 0, 60, 0
2, 301440, Note_on_c, 0, 64, 73
2, 301564, Note_off_c, 0, 64, 0
2, 301568, Note_on_c, 0, 69, 75
2, 301692, Note_off_c, 0, 69, 0
2, 301696, Note_on_c, 0, 72, 77
2, 301820, Note_off_c, 0, 72, 0
2, 301824, Note_on_c, 0, 76, 80
2, 301948, Note_off_c, 0, 76, 0
2, 301952, Note_on_c, 0, 81, 82
2, 302076, Note_off_c, 0, 81, 0
2, 302080, Note_on_c, 0, 85, 84
2, 302204, Note_off_c, 0, 85, 0
2, 302208, Note_on_c, 0, 88, 87
2, 302264, Note_off_c, 0, 88, 0
2, 302336, Note_on_c, 0, 88, 89
2, 302392, Note_off_c, 0, 88, 0
2, 302464, Note_on_c, 0, 88, 91
2, 302520, Note_off_c, 0, 88, 0
2, 302592, Note_on_c, 0, 88, 92
2, 302716, Note_off_c, 0, 88, 0
2, 302720, Note_on_c, 0, 85, 90
2, 302844, Note_off_c, 0, 85, 0
2, 302848, Note_on_c, 0, 82, 87
2, 302972, Note_off_c, 0, 82, 0
2, 302976, Note_on_c, 0, 85, 84
2, 303100, Note_off_c, 0, 85, 0
2, 303104, Note_on_c, 0, 82, 82
2, 303228, Note_off_c, 0, 82, 0
2, 303232, Note_on_c, 0, 76, 79
2, 303356, Note_off_c, 0, 76, 0
2, 303360, Note_on_c, 0, 82, 76
2, 303484, Note_off_c, 0, 82, 0
2, 303488, Note_on_c, 0, 76, 74
2, 303612, Note_off_c, 0, 76, 0
2, 303616, Note_on_c, 0, 73, 71
2, 303740, Note_off_c, 0, 73, 0
2, 303744, Note_on_c, 0, 76, 68
2, 303868, Note_off_c, 0, 76, 0
2, 303872, Note_on_c, 0, 73, 66
2, 303996, Note_off_c, 0, 73, 0
2, 304000, Note_on_c, 0, 70, 63
2, 304124, Note_off_c, 0, 70, 0
2, 304128, Note_on_c, 0, 85, 92
2, 304252, Note_off_c, 0, 85, 0
2, 304256, Note_on_c, 0, 82, 90
2, 304380, Note_off_c, 0, 82, 0
2, 304384, Note_on_c, 0, 77, 87
2, 304508, Note_off_c, 0, 77, 0
2, 304512, Note_on_c, 0, 82, 84
2, 304636, Note_off_c, 0, 82, 0
2, 304640, Note_on_c, 0, 77, 82
2, 304764, Note_off_c, 0, 77, 0
2, 304768, Note_on_c, 0, 73, 79
2, 304892, Note_off_c, 0, 73, 0
2, 304896, Note_on_c, 0, 77, 76
2, 305020, Note_off_c, 0, 77, 0
2, 305024, Note_on_c, 0, 73, 74
2, 305148, Note_off_c, 0, 73, 0
2, 305152, Note_on_c, 0, 70, 71
2, 305276, Note_off_c, 0, 70, 0
2, 305280, Note_on_c, 0, 73, 68
2, 305404, Note_off_c, 0, 73, 0
2, 305408, Note_on_c, 0, 70, 66
2, 305532, Note_off_c, 0, 70, 0
2, 305536, Note_on_c, 0, 65, 63
2, 305660, Note_off_c, 0, 65, 0
2, 305664, Note_on_c, 0, 79, 92
2, 305788, Note_off_c, 0, 79, 0
2, 305792, Note_on_c, 0, 73, 90
2, 305916, Note_off_c, 0, 73, 0
2, 305920, Note_on_c, 0, 70, 87
2, 306044, Note_off_c, 0, 70, 0
2, 306048, Note_on_c, 0, 73, 84
2, 306172, Note_off_c, 0, 73, 0
2, 306176, Note_on_c, 0, 70, 82
2, 306300, Note_off_c, 0, 70, 0
2, 306304, Note_on_c, 0, 67, 79
2, 306428, Note_off_c, 0, 67, 0
2, 306432, Note_on_c, 0, 73, 76
2, 306556, Note_off_c, 0, 73, 0
2, 306560, Note_on_c, 0, 70, 74
2, 306684, Note_off_c, 0, 70, 0
2, 306688, Note_on_c, 0, 61, 71
2, 306812, Note_off_c, 0, 61, 0
2, 306816, Note_on_c, 0, 67, 68
2, 306940, Note_off_c, 0, 67, 0
2, 306944, Note_on_c, 0, 61, 66
2, 307068, Note_off_c, 0, 61, 0
2, 307072, Note_on_c, 0, 58, 63
2, 307196, Note_off_c, 0, 58, 0
2, 307200, Note_on_c, 0, 86, 92
2, 307324, Note_off_c, 0, 86, 0
2, 307328, Note_on_c, 0, 82, 90
2, 307452, Note_off_c, 0, 82, 0
2, 307456, Note_on_c, 0, 79, 87
2, 307580, Note_off_c, 0, 79, 0
2, 307584, Note_on_c, 0, 82, 84
2, 307708, Note_off_c, 0, 82, 0
2, 307712, Note_on_c, 0, 79, 82
2, 307836, Note_off_c, 0, 79, 0
2, 307840, Note_on_c, 0, 74, 79
2, 307964, Note_off_c, 0, 74, 0
2, 307968, Note_on_c, 0, 79, 76
2, 308092, Note_off_c, 0, 79, 0
2, 308096, Note_on_c, 0, 74, 74
2, 308220, Note_off_c, 0, 74, 0
2, 308224, Note_on_c, 0, 70, 71
2, 308348, Note_off_c, 0, 70, 0
2, 308352, Note_on_c, 0, 74, 68
2, 308476, Note_off_c, 0, 74, 0
2, 308480, Note_on_c, 0, 70, 66
2, 308604, Note_off_c, 0, 70, 0
2, 308608, Note_on_c, 0, 67, 63
2, 308732, Note_off_c, 0, 67, 0
2, 308736, Note_on_c, 0, 82, 92
2, 308860, Note_off_c, 0, 82, 0
2, 308864, Note_on_c, 0, 79, 90
2, 308988, Note_off_c, 0, 79, 0
2, 308992, Note_on_c, 0, 76, 87
2, 309116, Note_off_c, 0, 76, 0
2, 309120, Note_on_c, 0, 79, 84
2, 309244, Note_off_c, 0, 79, 0
2, 309248, Note_on_c, 0, 76, 82
2, 309372, Note_off_c, 0, 76, 0
2, 309376, Note_on_c, 0, 70, 79
2, 309500, Note_off_c, 0, 70, 0
2, 309504, Note_on_c, 0, 76, 76
2, 309628, Note_off_c, 0, 76, 0
2, 309632, Note_on_c, 0, 70, 74
2, 309756, Note_off_c, 0, 70, 0
2, 309760, Note_on_c, 0, 67, 71
2, 309884, Note_off_c, 0, 67, 0
2, 309888, Note_on_c, 0, 70, 68
2, 310012, Note_off_c, 0, 70, 0
2, 310016, Note_on_c, 0, 67, 66
2, 310140, Note_off_c, 0, 67, 0
2, 310144, Note_on_c, 0, 64, 63
2, 310268, Note_off_c, 0, 64, 0
2, 310272, Note_on_c, 0, 79, 92
2, 310396, Note_off_c, 0, 79, 0
2, 310400, Note_on_c, 0, 76, 90
2, 310524, Note_off_c, 0, 76, 0
2, 310528, Note_on_c, 0, 70, 87
2, 310652, Note_off_c, 0, 70, 0
2, 310656, Note_on_c, 0, 76, 84
2, 310780, Note_off_c, 0, 76, 0
2, 310784, Note_on_c, 0, 70, 82
2, 310908, Note_off_c, 0, 70, 0
2, 310912, Note_on_c, 0, 67, 79
2, 311036, Note_off_c, 0, 67, 0
2, 311040, Note_on_c, 0, 70, 76
2, 311164, Note_off_c, 0, 70, 0
2, 311168, Note_on_c, 0, 67, 74
2, 311292, Note_off_c, 0, 67, 0
2, 311296, Note_on_c, 0, 64, 71
2, 311420, Note_off_c, 0, 64, 0
2, 311424, Note_on_c, 0, 67, 68
2, 311548, Note_off_c, 0, 67, 0
2, 311552, Note_on_c, 0, 64, 66
2, 311676, Note_off_c, 0, 64, 0
2, 311680, Note_on_c, 0, 58, 63
2, 311804, Note_off_c, 0, 58, 0
2, 311808, Note_on_c, 0, 59, 90
2, 311900, Note_off_c, 0, 59, 0
2, 311904, Note_on_c, 0, 63, 90
2, 311996, Note_off_c, 0, 63, 0
2, 312000, Note_on_c, 0, 66, 90
2, 312092, Note_off_c, 0, 66, 0
2, 312096, Note_on_c, 0, 70, 90
2, 312188, Note_off_c, 0, 70, 0
2, 312192, Note_on_c, 0, 71, 90
2, 312192, Note_on_c, 0, 63, 90
2, 312192, Note_on_c, 0, 59, 90
2, 312284, Note_off_c, 0, 71, 0
2, 312288, Note_on_c, 0, 83, 90
2, 312380, Note_off_c, 0, 83, 0
2, 312384, Note_on_c, 0, 71, 90
2, 312476, Note_off_c, 0, 71, 0
2, 312480, Note_on_c, 0, 83, 90
2, 312572, Note_off_c, 0, 63, 0
2, 312572, Note_off_c, 0, 83, 0
2, 312576, Note_on_c, 0, 73, 90
2, 312576, Note_on_c, 0, 64, 90
2, 312668, Note_off_c, 0, 73, 0
2, 312672, Note_on_c, 0, 83, 90
2, 312764, Note_off_c, 0, 83, 0
2, 312768, Note_on_c, 0, 73, 90
2, 312860, Note_off_c, 0, 73, 0
2, 312864, Note_on_c, 0, 83, 90
2, 312956, Note_off_c, 0, 64, 0
2, 312956, Note_off_c, 0, 83, 0
2, 312960, Note_on_c, 0, 75, 90
2, 312960, Note_on_c, 0, 66, 90
2, 313052, Note_off_c, 0, 75, 0
2, 313056, Note_on_c, 0, 83, 90
2, 313148, Note_off_c, 0, 83, 0
2, 313152, Note_on_c, 0, 75, 90
2, 313244, Note_off_c, 0, 75, 0
2, 313248, Note_on_c, 0, 83, 90
2, 313340, Note_off_c, 0, 59, 0
2, 313340, Note_off_c, 0, 66, 0
2, 313340, Note_off_c, 0, 83, 0
2, 313344, Note_on_c, 0, 76, 90
2, 313344, Note_on_c, 0, 67, 90
2, 313344, Note_on_c, 0, 59, 90
2, 313436, Note_off_c, 0, 76, 0
2, 313440, Note_on_c, 0, 83, 90
2, 313532, Note_off_c, 0, 83, 0
2, 313536, Note_on_c, 0, 76, 90
2, 313628, Note_off_c, 0, 76, 0
2, 313632, Note_on_c, 0, 83, 90
2, 313724, Note_off_c, 0, 67, 0
2, 313724, Note_off_c, 0, 83, 0
2, 313728, Note_on_c, 0, 75, 90
2, 313728, Note_on_c, 0, 66, 90
2, 313820, Note_off_c, 0, 75, 0
2, 313824, Note_on_c, 0, 83, 90
2, 313916, Note_off_c, 0, 83, 0
2, 313920, Note_on_c, 0, 75, 90
2, 314012, Note_off_c, 0, 75, 0
2, 314016, Note_on_c, 0, 83, 90
2, 314108, Note_off_c, 0, 66, 0
2, 314108, Note_off_c, 0, 83, 0
2, 314112, Note_on_c, 0, 76, 90
2, 314112, Note_on_c, 0, 67, 90
2, 314204, Note_off_c, 0, 76, 0
2, 314208, Note_on_c, 0, 83, 90
2, 314300, Note_off_c, 0, 83, 0
2, 314304, Note_on_c, 0, 76, 90
2, 314396, Note_off_c, 0, 76, 0
2, 314400, Note_on_c, 0, 83, 90
2, 314492, Note_off_c, 0, 67, 0
2, 314492, Note_off_c, 0, 83, 0
2, 314496, Note_on_c, 0, 73, 90
2, 314496, Note_on_c, 0, 64, 90
2, 314588, Note_off_c, 0, 73, 0
2, 314592, Note_on_c, 0, 83, 90
2, 314684, Note_off_c, 0, 83, 0
2, 314688, Note_on_c, 0, 73, 90
2, 314780, Note_off_c, 0, 73, 0
2, 314784, Note_on_c, 0, 83, 90
2, 314876, Note_off_c, 0, 59, 0
2, 314876, Note_off_c, 0, 64, 0
2, 314876, Note_off_c, 0, 83, 0
2, 314880, Note_on_c, 0, 71, 66
2, 314880, Note_on_c, 0, 63, 66
2, 314880, Note_on_c, 0, 59, 66
2, 314972, Note_off_c, 0, 71, 0
2, 314976, Note_on_c, 0, 75, 66
2, 315068, Note_off_c, 0, 75, 0
2, 315072, Note_on_c, 0, 78, 66
2, 315164, Note_off_c, 0, 78, 0
2, 315168, Note_on_c, 0, 83, 66
2, 315260, Note_off_c, 0, 83, 0
2, 315264, Note_on_c, 0, 71, 66
2, 315356, Note_off_c, 0, 71, 0
2, 315360, Note_on_c, 0, 83, 66
2, 315452, Note_off_c, 0, 83, 0
2, 315456, Note_on_c, 0, 71, 66
2, 315548, Note_off_c, 0, 71, 0
2, 315552, Note_on_c, 0, 83, 66
2, 315644, Note_off_c, 0, 63, 0
2, 315644, Note_off_c, 0, 83, 0
2, 315648, Note_on_c, 0, 73, 66
2, 315648, Note_on_c, 0, 64, 66
2, 315740, Note_off_c, 0, 73, 0
2, 315744, Note_on_c, 0, 83, 66
2, 315836, Note_off_c, 0, 83, 0
2, 315840, Note_on_c, 0, 73, 66
2, 315932, Note_off_c, 0, 73, 0
2, 315936, Note_on_c, 0, 83, 66
2, 316028, Note_off_c, 0, 64, 0
2, 316028, Note_off_c, 0, 83, 0
2, 316032, Note_on_c, 0, 75, 66
2, 316032, Note_on_c, 0, 66, 66
2, 316124, Note_off_c, 0, 75, 0
2, 316128, Note_on_c, 0, 83, 66
2, 316220, Note_off_c, 0, 83, 0
2, 316224, Note_on_c, 0, 75, 66
2, 316316, Note_off_c, 0, 75, 0
2, 316320, Note_on_c, 0, 83, 66
2, 316412, Note_off_c, 0, 59, 0
2, 316412, Note_off_c, 0, 66, 0
2, 316412, Note_off_c, 0, 83, 0
2, 316416, Note_on_c, 0, 76, 66
2, 316416, Note_on_c, 0, 67, 66
2, 316416, Note_on_c, 0, 59, 66
2, 316508, Note_off_c, 0, 76, 0
2, 316512, Note_on_c, 0, 83, 66
2, 316604, Note_off_c, 0, 83, 0
2, 316608, Note_on_c, 0, 76, 66
2, 316700, Note_off_c, 0, 76, 0
2, 316704, Note_on_c, 0, 83, 66
2, 316796, Note_off_c, 0, 67, 0
2, 316796, Note_off_c, 0, 83, 0
2, 316800, Note_on_c, 0, 75, 66
2, 316800, Note_on_c, 0, 66, 66
2, 316892, Note_off_c, 0, 75, 0
2, 316896, Note_on_c, 0, 83, 66
2, 316988, Note_off_c, 0, 83, 0
2, 316992, Note_on_c, 0, 75, 66
2, 317084, Note_off_c, 0, 75, 0
2, 317088, Note_on_c, 0, 83, 66
2, 317180, Note_off_c, 0, 66, 0
2, 317180, Note_off_c, 0, 83, 0
2, 317184, Note_on_c, 0, 76, 66
2, 317184, Note_on_c, 0, 67, 66
2, 317276, Note_off_c, 0, 76, 0
2, 317280, Note_on_c, 0, 83, 66
2, 317372, Note_off_c, 0, 83, 0
2, 317376, Note_on_c, 0, 76, 66
2, 317468, Note_off_c, 0, 76, 0
2, 317472, Note_on_c, 0, 83, 66
2, 317564, Note_off_c, 0, 67, 0
2, 317564, Note_off_c, 0, 83, 0
2, 317568, Note_on_c, 0, 73, 66
2, 317568, Note_on_c, 0, 64, 66
2, 317660, Note_off_c, 0, 73, 0
2, 317664, Note_on_c, 0, 83, 66
2, 317756, Note_off_c, 0, 83, 0
2, 317760, Note_on_c, 0, 73, 66
2, 317852, Note_off_c, 0, 73, 0
2, 317856, Note_on_c, 0, 83, 66
2, 317948, Note_off_c, 0, 59, 0
2, 317948, Note_off_c, 0, 64, 0
2, 317948, Note_off_c, 0, 83, 0
2, 317952, Note_on_c, 0, 71, 66
2, 317952, Note_on_c, 0, 63, 66
2, 317952, Note_on_c, 0, 59, 66
2, 318332, Note_off_c, 0, 71, 0
2, 318332, Note_off_c, 0, 63, 0
2, 318332, Note_off_c, 0, 59, 0
2, 324096, Note_on_c, 0, 72, 66
2, 324096, Note_on_c, 0, 60, 66
2, 324188, Note_off_c, 0, 72, 0
2, 324188, Note_off_c, 0, 60, 0
2, 324288, Note_on_c, 0, 74, 66
2, 324288, Note_on_c, 0, 67, 66
2, 324332, Note_off_c, 0, 74, 0
2, 324336, Note_on_c, 0, 72, 70
2, 324376, Note_off_c, 0, 72, 0
2, 324384, Note_on_c, 0, 71, 66
2, 324476, Note_off_c, 0, 67, 0
2, 324476, Note_off_c, 0, 71, 0
2, 324480, Note_on_c, 0, 72, 66
2, 324480, Note_on_c, 0, 63, 66
2, 324668, Note_off_c, 0, 72, 0
2, 324668, Note_off_c, 0, 63, 0
2, 324672, Note_on_c, 0, 74, 66
2, 324672, Note_on_c, 0, 67, 66
2, 324764, Note_off_c, 0, 74, 0
2, 324764, Note_off_c, 0, 67, 0
2, 324864, Note_on_c, 0, 75, 66
2, 324864, Note_on_c, 0, 60, 66
2, 325052, Note_off_c, 0, 60, 0
2, 325056, Note_on_c, 0, 67, 66
2, 325244, Note_off_c, 0, 75, 0
2, 325244, Note_off_c, 0, 67, 0
2, 325248, Note_on_c, 0, 63, 66
2, 325436, Note_off_c, 0, 63, 0
2, 325440, Note_on_c, 0, 67, 66
2, 325628, Note_off_c, 0, 67, 0
2, 325632, Note_on_c, 0, 84, 48
2, 325632, Note_on_c, 0, 60, 48
2, 325724, Note_off_c, 0, 84, 0
2, 325724, Note_off_c, 0, 60, 0
2, 325824, Note_on_c, 0, 86, 52
2, 325824, Note_on_c, 0, 67, 48
2, 325864, Note_off_c, 0, 86, 0
2, 325872, Note_on_c, 0, 84, 52
2, 325912, Note_off_c, 0, 84, 0
2, 325920, Note_on_c, 0, 83, 48
2, 326012, Note_off_c, 0, 67, 0
2, 326012, Note_off_c, 0, 83, 0
2, 326016, Note_on_c, 0, 84, 48
2, 326016, Note_on_c, 0, 63, 48
2, 326204, Note_off_c, 0, 84, 0
2, 326204, Note_off_c, 0, 63, 0
2, 326208, Note_on_c, 0, 86, 48
2, 326208, Note_on_c, 0, 67, 48
2, 326300, Note_off_c, 0, 86, 0
2, 326300, Note_off_c, 0, 67, 0
2, 326400, Note_on_c, 0, 60, 48
2, 326400, Note_on_c, 0, 87, 48
2, 326588, Note_off_c, 0, 60, 0
2, 326592, Note_on_c, 0, 67, 48
2, 326780, Note_off_c, 0, 87, 0
2, 326780, Note_off_c, 0, 67, 0
2, 326784, Note_on_c, 0, 63, 48
2, 326972, Note_off_c, 0, 63, 0
2, 326976, Note_on_c, 0, 67, 48
2, 327164, Note_off_c, 0, 67, 0
2, 327168, Note_on_c, 0, 74, 66
2, 327260, Note_off_c, 0, 74, 0
2, 327360, Note_on_c, 0, 76, 70
2, 327400, Note_off_c, 0, 76, 0
2, 327408, Note_on_c, 0, 74, 70
2, 327448, Note_off_c, 0, 74, 0
2, 327456, Note_on_c, 0, 73, 66
2, 327548, Note_off_c, 0, 73, 0
2, 327552, Note_on_c, 0, 74, 66
2, 327740, Note_off_c, 0, 74, 0
2, 327744, Note_on_c, 0, 76, 66
2, 327836, Note_off_c, 0, 76, 0
2, 327936, Note_on_c, 0, 78, 66
2, 328316, Note_off_c, 0, 78, 0
2, 328704, Note_on_c, 0, 81, 48
2, 328796, Note_off_c, 0, 81, 0
2, 328896, Note_on_c, 0, 82, 52
2, 328936, Note_off_c, 0, 82, 0
2, 328944, Note_on_c, 0, 81, 52
2, 328984, Note_off_c, 0, 81, 0
2, 328992, Note_on_c, 0, 79, 48
2, 329084, Note_off_c, 0, 79, 0
2, 329088, Note_on_c, 0, 81, 48
2, 329276, Note_off_c, 0, 81, 0
2, 329280, Note_on_c, 0, 82, 48
2, 329372, Note_off_c, 0, 82, 0
2, 329472, Note_on_c, 0, 84, 48
2, 329852, Note_off_c, 0, 84, 0
2, 330240, Note_on_c, 0, 70, 66
2, 330332, Note_off_c, 0, 70, 0
2, 330432, Note_on_c, 0, 72, 70
2, 330472, Note_off_c, 0, 72, 0
2, 330480, Note_on_c, 0, 70, 70
2, 330520, Note_off_c, 0, 70, 0
2, 330528, Note_on_c, 0, 69, 66
2, 330620, Note_off_c, 0, 69, 0
2, 330624, Note_on_c, 0, 70, 66
2, 330812, Note_off_c, 0, 70, 0
2, 330816, Note_on_c, 0, 72, 66
2, 330908, Note_off_c, 0, 72, 0
2, 331008, Note_on_c, 0, 73, 66
2, 331196, Note_off_c, 0, 73, 0
2, 331200, Note_on_c, 0, 74, 66
2, 331388, Note_off_c, 0, 74, 0
2, 331776, Note_on_c, 0, 82, 48
2, 331868, Note_off_c, 0, 82, 0
2, 331968, Note_on_c, 0, 84, 52
2, 332008, Note_off_c, 0, 84, 0
2, 332016, Note_on_c, 0, 82, 52
2, 332056, Note_off_c, 0, 82, 0
2, 332064, Note_on_c, 0, 81, 48
2, 332156, Note_off_c, 0, 81, 0
2, 332160, Note_on_c, 0, 82, 48
2, 332348, Note_off_c, 0, 82, 0
2, 332352, Note_on_c, 0, 84, 48
2, 332444, Note_off_c, 0, 84, 0
2, 332544, Note_on_c, 0, 85, 48
2, 332732, Note_off_c, 0, 85, 0
2, 332736, Note_on_c, 0, 86, 48
2, 332924, Note_off_c, 0, 86, 0
2, 333312, Note_on_c, 0, 79, 66
2, 333404, Note_off_c, 0, 79, 0
2, 333504, Note_on_c, 0, 81, 70
2, 333544, Note_off_c, 0, 81, 0
2, 333552, Note_on_c, 0, 79, 70
2, 333592, Note_off_c, 0, 79, 0
2, 333600, Note_on_c, 0, 78, 66
2, 333692, Note_off_c, 0, 78, 0
2, 333696, Note_on_c, 0, 79, 66
2, 333884, Note_off_c, 0, 79, 0
2, 333888, Note_on_c, 0, 82, 66
2, 333980, Note_off_c, 0, 82, 0
2, 334080, Note_on_c, 0, 81, 66
2, 334268, Note_off_c, 0, 81, 0
2, 334272, Note_on_c, 0, 79, 66
2, 334460, Note_off_c, 0, 79, 0
2, 334848, Note_on_c, 0, 81, 66
2, 335036, Note_off_c, 0, 81, 0
2, 335040, Note_on_c, 0, 79, 66
2, 335228, Note_off_c, 0, 79, 0
2, 335232, Note_on_c, 0, 77, 66
2, 335420, Note_off_c, 0, 77, 0
2, 335424, Note_on_c, 0, 75, 66
2, 335612, Note_off_c, 0, 75, 0
2, 335616, Note_on_c, 0, 74, 66
2, 335804, Note_off_c, 0, 74, 0
2, 335808, Note_on_c, 0, 73, 66
2, 335996, Note_off_c, 0, 73, 0
2, 336384, Note_on_c, 0, 73, 66
2, 336572, Note_off_c, 0, 73, 0
2, 336576, Note_on_c, 0, 74, 66
2, 336764, Note_off_c, 0, 74, 0
2, 336768, Note_on_c, 0, 78, 66
2, 336860, Note_off_c, 0, 78, 0
2, 336960, Note_on_c, 0, 81, 66
2, 337052, Note_off_c, 0, 81, 0
2, 337152, Note_on_c, 0, 86, 66
2, 337340, Note_off_c, 0, 86, 0
2, 337344, Note_on_c, 0, 84, 66
2, 337532, Note_off_c, 0, 84, 0
2, 337536, Note_on_c, 0, 66, 66
2, 337536, Note_on_c, 0, 62, 66
2, 337724, Note_off_c, 0, 66, 0
2, 337724, Note_off_c, 0, 62, 0
2, 337920, Note_on_c, 0, 81, 66
2, 337920, Note_on_c, 0, 67, 66
2, 337920, Note_on_c, 0, 62, 66
2, 338108, Note_off_c, 0, 81, 0
2, 338108, Note_off_c, 0, 67, 0
2, 338108, Note_off_c, 0, 62, 0
2, 338112, Note_on_c, 0, 82, 66
2, 338300, Note_off_c, 0, 82, 0
2, 338304, Note_on_c, 0, 79, 66
2, 338396, Note_off_c, 0, 79, 0
2, 338496, Note_on_c, 0, 75, 66
2, 338588, Note_off_c, 0, 75, 0
2, 338688, Note_on_c, 0, 74, 66
2, 338876, Note_off_c, 0, 74, 0
2, 338880, Note_on_c, 0, 73, 66
2, 339068, Note_off_c, 0, 73, 0
2, 339072, Note_on_c, 0, 67, 66
2, 339072, Note_on_c, 0, 62, 66
2, 339260, Note_off_c, 0, 67, 0
2, 339260, Note_off_c, 0, 62, 0
2, 339456, Note_on_c, 0, 74, 66
2, 339456, Note_on_c, 0, 66, 66
2, 339456, Note_on_c, 0, 62, 66
2, 339644, Note_off_c, 0, 74, 0
2, 339644, Note_off_c, 0, 66, 0
2, 339644, Note_off_c, 0, 62, 0
2, 339648, Note_on_c, 0, 78, 66
2, 339836, Note_off_c, 0, 78, 0
2, 339840, Note_on_c, 0, 81, 66
2, 339932, Note_off_c, 0, 81, 0
2, 340032, Note_on_c, 0, 84, 66
2, 340124, Note_off_c, 0, 84, 0
2, 340224, Note_on_c, 0, 87, 66
2, 340412, Note_off_c, 0, 87, 0
2, 340416, Note_on_c, 0, 86, 66
2, 340604, Note_off_c, 0, 86, 0
2, 340608, Note_on_c, 0, 66, 66
2, 340608, Note_on_c, 0, 62, 66
2, 340796, Note_off_c, 0, 66, 0
2, 340796, Note_off_c, 0, 62, 0
2, 340992, Note_on_c, 0, 84, 66
2, 340992, Note_on_c, 0, 67, 66
2, 340992, Note_on_c, 0, 63, 66
2, 341180, Note_off_c, 0, 84, 0
2, 341180, Note_off_c, 0, 67, 0
2, 341180, Note_off_c, 0, 63, 0
2, 341184, Note_on_c, 0, 82, 66
2, 341372, Note_off_c, 0, 82, 0
2, 341376, Note_on_c, 0, 79, 66
2, 341468, Note_off_c, 0, 79, 0
2, 341568, Note_on_c, 0, 75, 66
2, 341660, Note_off_c, 0, 75, 0
2, 341760, Note_on_c, 0, 74, 66
2, 341948, Note_off_c, 0, 74, 0
2, 341952, Note_on_c, 0, 73, 66
2, 342140, Note_off_c, 0, 73, 0
2, 342144, Note_on_c, 0, 67, 66
2, 342144, Note_on_c, 0, 63, 66
2, 342524, Note_off_c, 0, 67, 0
2, 342524, Note_off_c, 0, 63, 0
2, 342528, Note_on_c, 0, 75, 66
2, 342528, Note_on_c, 0, 69, 66
2, 342528, Note_on_c, 0, 66, 66
2, 342528, Note_on_c, 0, 62, 66
2, 342716, Note_off_c, 0, 75, 0
2, 342720, Note_on_c, 0, 74, 66
2, 342908, Note_off_c, 0, 69, 0
2, 342908, Note_off_c, 0, 66, 0
2, 342908, Note_off_c, 0, 74, 0
2, 342912, Note_on_c, 0, 67, 66
2, 342912, Note_on_c, 0, 70, 66
2, 343292, Note_off_c, 0, 62, 0
2, 343292, Note_off_c, 0, 67, 0
2, 343292, Note_off_c, 0, 70, 0
2, 343296, Note_on_c, 0, 75, 66
2, 343296, Note_on_c, 0, 69, 66
2, 343296, Note_on_c, 0, 66, 66
2, 343296, Note_on_c, 0, 62, 66
2, 343484, Note_off_c, 0, 75, 0
2, 343488, Note_on_c, 0, 74, 66
2, 343676, Note_off_c, 0, 69, 0
2, 343676, Note_off_c, 0, 66, 0
2, 343676, Note_off_c, 0, 74, 0
2, 343680, Note_on_c, 0, 70, 66
2, 343680, Note_on_c, 0, 67, 66
2, 344060, Note_off_c, 0, 62, 0
2, 344060, Note_off_c, 0, 70, 0
2, 344060, Note_off_c, 0, 67, 0
2, 344064, Note_on_c, 0, 75, 66
2, 344064, Note_on_c, 0, 69, 66
2, 344064, Note_on_c, 0, 66, 66
2, 344064, Note_on_c, 0, 62, 66
2, 344252, Note_off_c, 0, 75, 0
2, 344256, Note_on_c, 0, 74, 66
2, 344444, Note_off_c, 0, 69, 0
2, 344444, Note_off_c, 0, 66, 0
2, 344444, Note_off_c, 0, 62, 0
2, 344444, Note_off_c, 0, 74, 0
2, 344544, Note_on_c, 0, 73, 67
2, 344636, Note_off_c, 0, 73, 0
2, 344640, Note_on_c, 0, 74, 69
2, 344732, Note_off_c, 0, 74, 0
2, 344736, Note_on_c, 0, 76, 71
2, 344828, Note_off_c, 0, 76, 0
2, 344832, Note_on_c, 0, 78, 73
2, 344924, Note_off_c, 0, 78, 0
2, 344928, Note_on_c, 0, 76, 75
2, 345020, Note_off_c, 0, 76, 0
2, 345024, Note_on_c, 0, 79, 77
2, 345116, Note_off_c, 0, 79, 0
2, 345120, Note_on_c, 0, 78, 79
2, 345212, Note_off_c, 0, 78, 0
2, 345216, Note_on_c, 0, 81, 81
2, 345308, Note_off_c, 0, 81, 0
2, 345312, Note_on_c, 0, 79, 83
2, 345404, Note_off_c, 0, 79, 0
2, 345408, Note_on_c, 0, 83, 85
2, 345500, Note_off_c, 0, 83, 0
2, 345504, Note_on_c, 0, 81, 87
2, 345596, Note_off_c, 0, 81, 0
2, 345600, Note_on_c, 0, 84, 90
2, 345980, Note_off_c, 0, 84, 0
2, 364032, Note_on_c, 0, 74, 66
2, 364124, Note_off_c, 0, 74, 0
2, 364128, Note_on_c, 0, 76, 67
2, 364220, Note_off_c, 0, 76, 0
2, 364224, Note_on_c, 0, 74, 69
2, 364316, Note_off_c, 0, 74, 0
2, 364320, Note_on_c, 0, 73, 70
2, 364412, Note_off_c, 0, 73, 0
2, 364416, Note_on_c, 0, 74, 72
2, 364508, Note_off_c, 0, 74, 0
2, 364512, Note_on_c, 0, 75, 74
2, 364604, Note_off_c, 0, 75, 0
2, 364608, Note_on_c, 0, 76, 75
2, 364700, Note_off_c, 0, 76, 0
2, 364704, Note_on_c, 0, 77, 77
2, 364796, Note_off_c, 0, 77, 0
2, 364800, Note_on_c, 0, 78, 78
2, 364924, Note_off_c, 0, 78, 0
2, 364928, Note_on_c, 0, 79, 80
2, 364984, Note_off_c, 0, 79, 0
2, 365056, Note_on_c, 0, 80, 83
2, 365112, Note_off_c, 0, 80, 0
2, 365184, Note_on_c, 0, 81, 85
2, 365240, Note_off_c, 0, 81, 0
2, 365312, Note_on_c, 0, 82, 87
2, 365368, Note_off_c, 0, 82, 0
2, 365440, Note_on_c, 0, 83, 89
2, 365496, Note_off_c, 0, 83, 0
2, 365568, Note_on_c, 0, 84, 91
2, 366140, Note_off_c, 0, 84, 0
2, 366144, Note_on_c, 0, 83, 66
2, 366200, Note_off_c, 0, 83, 0
2, 366208, Note_on_c, 0, 81, 66
2, 366264, Note_off_c, 0, 81, 0
2, 366272, Note_on_c, 0, 79, 66
2, 366328, Note_off_c, 0, 79, 0
2, 366336, Note_on_c, 0, 78, 66
2, 366716, Note_off_c, 0, 78, 0
2, 367104, Note_on_c, 0, 76, 65
2, 367292, Note_off_c, 0, 76, 0
2, 367296, Note_on_c, 0, 78, 73
2, 367388, Note_off_c, 0, 78, 0
2, 367392, Note_on_c, 0, 79, 76
2, 367484, Note_off_c, 0, 79, 0
2, 367488, Note_on_c, 0, 81, 80
2, 367580, Note_off_c, 0, 81, 0
2, 367584, Note_on_c, 0, 83, 83
2, 367676, Note_off_c, 0, 83, 0
2, 367680, Note_on_c, 0, 84, 87
2, 367772, Note_off_c, 0, 84, 0
2, 367776, Note_on_c, 0, 86, 90
2, 367868, Note_off_c, 0, 86, 0
2, 367872, Note_on_c, 0, 88, 91
2, 367996, Note_off_c, 0, 88, 0
2, 368000, Note_on_c, 0, 84, 86
2, 368124, Note_off_c, 0, 84, 0
2, 368128, Note_on_c, 0, 81, 81
2, 368252, Note_off_c, 0, 81, 0
2, 368256, Note_on_c, 0, 84, 76
2, 368380, Note_off_c, 0, 84, 0
2, 368384, Note_on_c, 0, 81, 71
2, 368508, Note_off_c, 0, 81, 0
2, 368512, Note_on_c, 0, 76, 66
2, 368636, Note_off_c, 0, 76, 0
2, 368640, Note_on_c, 0, 74, 65
2, 368828, Note_off_c, 0, 74, 0
2, 368832, Note_on_c, 0, 76, 73
2, 368924, Note_off_c, 0, 76, 0
2, 368928, Note_on_c, 0, 78, 76
2, 369020, Note_off_c, 0, 78, 0
2, 369024, Note_on_c, 0, 79, 80
2, 369116, Note_off_c, 0, 79, 0
2, 369120, Note_on_c, 0, 81, 83
2, 369212, Note_off_c, 0, 81, 0
2, 369216, Note_on_c, 0, 83, 87
2, 369308, Note_off_c, 0, 83, 0
2, 369312, Note_on_c, 0, 84, 90
2, 369404, Note_off_c, 0, 84, 0
2, 369408, Note_on_c, 0, 86, 91
2, 369532, Note_off_c, 0, 86, 0
2, 369536, Note_on_c, 0, 83, 86
2, 369660, Note_off_c, 0, 83, 0
2, 369664, Note_on_c, 0, 79, 81
2, 369788, Note_off_c, 0, 79, 0
2, 369792, Note_on_c, 0, 83, 76
2, 369916, Note_off_c, 0, 83, 0
2, 369920, Note_on_c, 0, 79, 71
2, 370044, Note_off_c, 0, 79, 0
2, 370048, Note_on_c, 0, 74, 66
2, 370172, Note_off_c, 0, 74, 0
2, 370176, Note_on_c, 0, 69, 65
2, 370176, Note_on_c, 0, 74, 65
2, 370268, Note_off_c, 0, 74, 0
2, 370272, Note_on_c, 0, 72, 68
2, 370364, Note_off_c, 0, 72, 0
2, 370368, Note_on_c, 0, 76, 73
2, 370460, Note_off_c, 0, 76, 0
2, 370464, Note_on_c, 0, 72, 76
2, 370556, Note_off_c, 0, 69, 0
2, 370556, Note_off_c, 0, 72, 0
2, 370560, Note_on_c, 0, 71, 80
2, 370560, Note_on_c, 0, 67, 80
2, 371324, Note_off_c, 0, 71, 0
2, 371324, Note_off_c, 0, 67, 0
2, 371328, Note_on_c, 0, 69, 85
2, 371328, Note_on_c, 0, 66, 85
2, 371708, Note_off_c, 0, 69, 0
2, 371708, Note_off_c, 0, 66, 0
2, 371712, Note_on_c, 0, 67, 90
2, 372092, Note_off_c, 0, 67, 0
2, 394944, Note_on_c, 0, 62, 66
2, 395036, Note_off_c, 0, 62, 0
2, 395136, Note_on_c, 0, 66, 66
2, 395228, Note_off_c, 0, 66, 0
2, 395328, Note_on_c, 0, 69, 66
2, 395420, Note_off_c, 0, 69, 0
2, 395520, Note_on_c, 0, 73, 66
2, 395708, Note_off_c, 0, 73, 0
2, 395712, Note_on_c, 0, 74, 66
2, 395900, Note_off_c, 0, 74, 0
2, 395904, Note_on_c, 0, 62, 66
2, 395996, Note_off_c, 0, 62, 0
2, 396096, Note_on_c, 0, 78, 66
2, 396188, Note_off_c, 0, 78, 0
2, 396288, Note_on_c, 0, 77, 66
2, 396476, Note_off_c, 0, 77, 0
2, 396480, Note_on_c, 0, 78, 66
2, 396668, Note_off_c, 0, 78, 0
2, 396672, Note_on_c, 0, 66, 66
2, 396764, Note_off_c, 0, 66, 0
2, 396864, Note_on_c, 0, 81, 66
2, 396956, Note_off_c, 0, 81, 0
2, 397056, Note_on_c, 0, 80, 66
2, 397244, Note_off_c, 0, 80, 0
2, 397248, Note_on_c, 0, 81, 66
2, 397436, Note_off_c, 0, 81, 0
2, 397440, Note_on_c, 0, 69, 66
2, 397532, Note_off_c, 0, 69, 0
2, 397632, Note_on_c, 0, 86, 66
2, 397724, Note_off_c, 0, 86, 0
2, 397824, Note_on_c, 0, 85, 66
2, 398012, Note_off_c, 0, 85, 0
2, 398016, Note_on_c, 0, 86, 66
2, 398204, Note_off_c, 0, 86, 0
2, 398208, Note_on_c, 0, 74, 66
2, 398300, Note_off_c, 0, 74, 0
2, 398400, Note_on_c, 0, 76, 66
2, 398492, Note_off_c, 0, 76, 0
2, 398592, Note_on_c, 0, 78, 66
2, 398684, Note_off_c, 0, 78, 0
2, 398784, Note_on_c, 0, 79, 66
2, 398876, Note_off_c, 0, 79, 0
2, 398976, Note_on_c, 0, 81, 66
2, 399068, Note_off_c, 0, 81, 0
2, 399168, Note_on_c, 0, 83, 66
2, 399260, Note_off_c, 0, 83, 0
2, 399360, Note_on_c, 0, 84, 66
2, 399452, Note_off_c, 0, 84, 0
2, 399552, Note_on_c, 0, 84, 66
2, 399644, Note_off_c, 0, 84, 0
2, 399744, Note_on_c, 0, 83, 66
2, 399836, Note_off_c, 0, 83, 0
2, 399936, Note_on_c, 0, 83, 66
2, 400028, Note_off_c, 0, 83, 0
2, 400128, Note_on_c, 0, 84, 66
2, 400220, Note_off_c, 0, 84, 0
2, 400320, Note_on_c, 0, 84, 66
2, 400412, Note_off_c, 0, 84, 0
2, 400512, Note_on_c, 0, 85, 66
2, 400604, Note_off_c, 0, 85, 0
2, 400704, Note_on_c, 0, 85, 66
2, 400796, Note_off_c, 0, 85, 0
2, 400896, Note_on_c, 0, 86, 66
2, 401088, Note_on_c, 0, 67, 66
2, 401276, Note_off_c, 0, 67, 0
2, 401280, Note_on_c, 0, 71, 66
2, 401468, Note_off_c, 0, 86, 0
2, 401468, Note_off_c, 0, 71, 0
2, 401472, Note_on_c, 0, 83, 66
2, 401472, Note_on_c, 0, 74, 66
2, 401660, Note_off_c, 0, 83, 0
2, 401660, Note_off_c, 0, 74, 0
2, 401664, Note_on_c, 0, 88, 66
2, 401856, Note_on_c, 0, 68, 66
2, 402044, Note_off_c, 0, 68, 0
2, 402048, Note_on_c, 0, 71, 66
2, 402236, Note_off_c, 0, 88, 0
2, 402236, Note_off_c, 0, 71, 0
2, 402240, Note_on_c, 0, 83, 66
2, 402240, Note_on_c, 0, 76, 66
2, 402428, Note_off_c, 0, 83, 0
2, 402428, Note_off_c, 0, 76, 0
2, 402432, Note_on_c, 0, 84, 66
2, 402432, Note_on_c, 0, 69, 66
2, 402524, Note_off_c, 0, 84, 0
2, 402524, Note_off_c, 0, 69, 0
2, 402624, Note_on_c, 0, 81, 66
2, 402624, Note_on_c, 0, 72, 66
2, 402716, Note_off_c, 0, 81, 0
2, 402716, Note_off_c, 0, 72, 0
2, 402816, Note_on_c, 0, 86, 66
2, 402816, Note_on_c, 0, 66, 66
2, 403196, Note_off_c, 0, 86, 0
2, 403196, Note_off_c, 0, 66, 0
2, 403392, Note_on_c, 0, 81, 70
2, 403432, Note_off_c, 0, 81, 0
2, 403440, Note_on_c, 0, 83, 70
2, 403480, Note_off_c, 0, 83, 0
2, 403488, Note_on_c, 0, 81, 70
2, 403528, Note_off_c, 0, 81, 0
2, 403536, Note_on_c, 0, 79, 70
2, 403576, Note_off_c, 0, 79, 0
2, 403584, Note_on_c, 0, 81, 70
2, 403584, Note_on_c, 0, 65, 66
2, 403584, Note_on_c, 0, 67, 66
2, 403624, Note_off_c, 0, 81, 64
2, 403628, Note_on_c, 0, 83, 66
2, 403764, Note_off_c, 0, 83, 0
2, 403768, Note_on_c, 0, 79, 66
2, 403920, Note_off_c, 0, 65, 0
2, 403920, Note_off_c, 0, 67, 0
2, 403956, Note_off_c, 0, 79, 0
2, 403968, Note_on_c, 0, 84, 66
2, 403968, Note_on_c, 0, 67, 66
2, 403968, Note_on_c, 0, 64, 66
2, 404060, Note_off_c, 0, 84, 0
2, 404160, Note_on_c, 0, 86, 70
2, 404200, Note_off_c, 0, 86, 0
2, 404208, Note_on_c, 0, 84, 70
2, 404248, Note_off_c, 0, 84, 0
2, 404256, Note_on_c, 0, 83, 66
2, 404348, Note_off_c, 0, 67, 0
2, 404348, Note_off_c, 0, 64, 0
2, 404348, Note_off_c, 0, 83, 0
2, 404352, Note_on_c, 0, 84, 66
2, 404540, Note_off_c, 0, 84, 0
2, 404544, Note_on_c, 0, 86, 66
2, 404636, Note_off_c, 0, 86, 0
2, 404736, Note_on_c, 0, 88, 66
2, 404828, Note_off_c, 0, 88, 0
2, 404928, Note_on_c, 0, 76, 66
2, 405116, Note_off_c, 0, 76, 0
2, 405120, Note_on_c, 0, 83, 66
2, 405120, Note_on_c, 0, 64, 66
2, 405120, Note_on_c, 0, 61, 66
2, 405308, Note_off_c, 0, 83, 0
2, 405312, Note_on_c, 0, 81, 66
2, 405500, Note_off_c, 0, 64, 0
2, 405500, Note_off_c, 0, 61, 0
2, 405500, Note_off_c, 0, 81, 0
2, 405504, Note_on_c, 0, 79, 66
2, 405504, Note_on_c, 0, 69, 66
2, 405504, Note_on_c, 0, 62, 66
2, 405884, Note_off_c, 0, 79, 0
2, 405884, Note_off_c, 0, 62, 0
2, 405888, Note_on_c, 0, 60, 66
2, 405888, Note_on_c, 0, 78, 70
2, 405928, Note_off_c, 0, 78, 0
2, 405936, Note_on_c, 0, 79, 70
2, 405976, Note_off_c, 0, 79, 0
2, 405984, Note_on_c, 0, 78, 70
2, 406024, Note_off_c, 0, 78, 0
2, 406032, Note_on_c, 0, 79, 70
2, 406072, Note_off_c, 0, 79, 0
2, 406080, Note_on_c, 0, 76, 68
2, 406168, Note_off_c, 0, 76, 0
2, 406176, Note_on_c, 0, 78, 68
2, 406264, Note_off_c, 0, 78, 0
2, 406268, Note_off_c, 0, 69, 0
2, 406268, Note_off_c, 0, 60, 0
2, 406272, Note_on_c, 0, 79, 66
2, 406272, Note_on_c, 0, 62, 66
2, 406272, Note_on_c, 0, 59, 66
2, 406652, Note_off_c, 0, 79, 0
2, 406652, Note_off_c, 0, 62, 0
2, 406652, Note_off_c, 0, 59, 0
2, 406656, Note_on_c, 0, 81, 66
2, 406656, Note_on_c, 0, 69, 66
2, 406656, Note_on_c, 0, 62, 66
2, 407036, Note_off_c, 0, 81, 0
2, 407036, Note_off_c, 0, 69, 0
2, 407036, Note_off_c, 0, 62, 0
2, 407040, Note_on_c, 0, 83, 68
2, 407040, Note_on_c, 0, 71, 68
2, 407040, Note_on_c, 0, 67, 68
2, 407228, Note_off_c, 0, 83, 0
2, 407232, Note_on_c, 0, 86, 68
2, 407420, Note_off_c, 0, 71, 0
2, 407420, Note_off_c, 0, 67, 0
2, 407420, Note_off_c, 0, 86, 0
2, 407424, Note_on_c, 0, 84, 68
2, 407424, Note_on_c, 0, 69, 68
2, 407424, Note_on_c, 0, 62, 68
2, 407612, Note_off_c, 0, 84, 0
2, 407616, Note_on_c, 0, 81, 68
2, 407804, Note_off_c, 0, 69, 0
2, 407804, Note_off_c, 0, 62, 0
2, 407804, Note_off_c, 0, 81, 0
2, 407808, Note_on_c, 0, 79, 68
2, 407808, Note_on_c, 0, 67, 68
2, 407808, Note_on_c, 0, 59, 68
2, 408188, Note_off_c, 0, 79, 0
2, 408188, Note_off_c, 0, 67, 0
2, 408188, Note_off_c, 0, 59, 0
2, 408192, Note_on_c, 0, 81, 44
2, 408192, Note_on_c, 0, 69, 44
2, 408192, Note_on_c, 0, 62, 44
2, 408572, Note_off_c, 0, 81, 0
2, 408572, Note_off_c, 0, 69, 0
2, 408572, Note_off_c, 0, 62, 0
2, 408576, Note_on_c, 0, 83, 44
2, 408576, Note_on_c, 0, 71, 44
2, 408576, Note_on_c, 0, 67, 44
2, 408764, Note_off_c, 0, 83, 0
2, 408768, Note_on_c, 0, 86, 44
2, 408956, Note_off_c, 0, 71, 0
2, 408956, Note_off_c, 0, 67, 0
2, 408956, Note_off_c, 0, 86, 0
2, 408960, Note_on_c, 0, 84, 44
2, 408960, Note_on_c, 0, 69, 44
2, 408960, Note_on_c, 0, 62, 44
2, 409148, Note_off_c, 0, 84, 0
2, 409152, Note_on_c, 0, 81, 44
2, 409340, Note_off_c, 0, 69, 0
2, 409340, Note_off_c, 0, 62, 0
2, 409340, Note_off_c, 0, 81, 0
2, 409344, Note_on_c, 0, 79, 44
2, 409344, Note_on_c, 0, 67, 44
2, 409344, Note_on_c, 0, 59, 44
2, 409724, Note_off_c, 0, 79, 0
2, 409724, Note_off_c, 0, 67, 0
2, 409724, Note_off_c, 0, 59, 0
2, 409728, Note_on_c, 0, 81, 44
2, 409728, Note_on_c, 0, 69, 44
2, 409728, Note_on_c, 0, 62, 44
2, 410108, Note_off_c, 0, 81, 0
2, 410108, Note_off_c, 0, 69, 0
2, 410108, Note_off_c, 0, 62, 0
2, 410112, Note_on_c, 0, 83, 68
2, 410112, Note_on_c, 0, 71, 68
2, 410112, Note_on_c, 0, 67, 68
2, 410300, Note_off_c, 0, 83, 0
2, 410304, Note_on_c, 0, 84, 67
2, 410396, Note_off_c, 0, 84, 0
2, 410496, Note_on_c, 0, 85, 66
2, 410588, Note_off_c, 0, 85, 0
2, 410688, Note_on_c, 0, 86, 66
2, 410780, Note_off_c, 0, 86, 0
2, 410876, Note_off_c, 0, 71, 0
2, 410876, Note_off_c, 0, 67, 0
2, 410880, Note_on_c, 0, 69, 66
2, 410880, Note_on_c, 0, 60, 66
2, 410880, Note_on_c, 0, 87, 66
2, 411068, Note_off_c, 0, 87, 0
2, 411072, Note_on_c, 0, 88, 66
2, 411260, Note_off_c, 0, 88, 0
2, 411264, Note_on_c, 0, 76, 66
2, 411452, Note_off_c, 0, 76, 0
2, 411456, Note_on_c, 0, 84, 66
2, 411644, Note_off_c, 0, 69, 0
2, 411644, Note_off_c, 0, 60, 0
2, 411644, Note_off_c, 0, 84, 0
2, 411648, Note_on_c, 0, 83, 66
2, 411648, Note_on_c, 0, 67, 66
2, 411648, Note_on_c, 0, 62, 66
2, 412220, Note_off_c, 0, 83, 0
2, 412224, Note_on_c, 0, 84, 66
2, 412316, Note_off_c, 0, 84, 0
2, 412320, Note_on_c, 0, 83, 66
2, 412412, Note_off_c, 0, 67, 0
2, 412412, Note_off_c, 0, 62, 0
2, 412412, Note_off_c, 0, 83, 0
2, 412416, Note_on_c, 0, 81, 66
2, 412416, Note_on_c, 0, 66, 66
2, 412416, Note_on_c, 0, 62, 66
2, 412604, Note_off_c, 0, 81, 0
2, 412604, Note_off_c, 0, 66, 0
2, 412604, Note_off_c, 0, 62, 0
2, 412608, Note_on_c, 0, 69, 66
2, 412700, Note_off_c, 0, 69, 0
2, 412800, Note_on_c, 0, 71, 66
2, 412892, Note_off_c, 0, 71, 0
2, 412992, Note_on_c, 0, 72, 66
2, 413084, Note_off_c, 0, 72, 0
2, 413184, Note_on_c, 0, 74, 66
2, 413276, Note_off_c, 0, 74, 0
2, 413376, Note_on_c, 0, 74, 66
2, 413756, Note_off_c, 0, 74, 0
2, 413760, Note_on_c, 0, 71, 66
2, 413948, Note_off_c, 0, 71, 0
2, 413952, Note_on_c, 0, 76, 66
2, 414044, Note_off_c, 0, 76, 0
2, 414144, Note_on_c, 0, 76, 66
2, 414524, Note_off_c, 0, 76, 0
2, 414528, Note_on_c, 0, 71, 66
2, 414716, Note_off_c, 0, 71, 0
2, 414720, Note_on_c, 0, 72, 66
2, 414812, Note_off_c, 0, 72, 0
2, 414912, Note_on_c, 0, 69, 66
2, 415004, Note_off_c, 0, 69, 0
2, 415104, Note_on_c, 0, 74, 66
2, 415484, Note_off_c, 0, 74, 0
2, 415680, Note_on_c, 0, 69, 70
2, 415720, Note_off_c, 0, 69, 0
2, 415728, Note_on_c, 0, 71, 70
2, 415768, Note_off_c, 0, 71, 0
2, 415776, Note_on_c, 0, 69, 70
2, 415816, Note_off_c, 0, 69, 0
2, 415824, Note_on_c, 0, 71, 70
2, 415864, Note_off_c, 0, 71, 0
2, 415872, Note_on_c, 0, 71, 67
2, 416060, Note_off_c, 0, 71, 0
2, 416064, Note_on_c, 0, 67, 67
2, 416252, Note_off_c, 0, 67, 0
2, 416256, Note_on_c, 0, 72, 66
2, 416348, Note_off_c, 0, 72, 0
2, 416448, Note_on_c, 0, 74, 70
2, 416488, Note_off_c, 0, 74, 0
2, 416496, Note_on_c, 0, 72, 70
2, 416536, Note_off_c, 0, 72, 0
2, 416544, Note_on_c, 0, 71, 66
2, 416636, Note_off_c, 0, 71, 0
2, 416640, Note_on_c, 0, 72, 66
2, 416828, Note_off_c, 0, 72, 0
2, 416832, Note_on_c, 0, 74, 66
2, 416924, Note_off_c, 0, 74, 0
2, 417024, Note_on_c, 0, 76, 66
2, 417116, Note_off_c, 0, 76, 0
2, 417216, Note_on_c, 0, 64, 66
2, 417404, Note_off_c, 0, 64, 0
2, 417408, Note_on_c, 0, 71, 66
2, 417596, Note_off_c, 0, 71, 0
2, 417600, Note_on_c, 0, 69, 66
2, 417788, Note_off_c, 0, 69, 0
2, 417792, Note_on_c, 0, 67, 66
2, 418172, Note_off_c, 0, 67, 0
2, 418176, Note_on_c, 0, 66, 70
2, 418216, Note_off_c, 0, 66, 0
2, 418224, Note_on_c, 0, 67, 70
2, 418264, Note_off_c, 0, 67, 0
2, 418272, Note_on_c, 0, 66, 70
2, 418312, Note_off_c, 0, 66, 0
2, 418320, Note_on_c, 0, 67, 70
2, 418360, Note_off_c, 0, 67, 0
2, 418368, Note_on_c, 0, 64, 68
2, 418460, Note_off_c, 0, 64, 0
2, 418464, Note_on_c, 0, 66, 67
2, 418556, Note_off_c, 0, 66, 0
2, 418560, Note_on_c, 0, 67, 66
2, 418940, Note_off_c, 0, 67, 0
2, 419520, Note_on_c, 0, 74, 68
2, 419708, Note_off_c, 0, 74, 0
2, 419712, Note_on_c, 0, 74, 68
2, 419900, Note_off_c, 0, 74, 0
2, 419904, Note_on_c, 0, 74, 68
2, 420092, Note_off_c, 0, 74, 0
2, 420096, Note_on_c, 0, 76, 72
2, 420136, Note_off_c, 0, 76, 0
2, 420144, Note_on_c, 0, 74, 72
2, 420184, Note_off_c, 0, 74, 0
2, 420192, Note_on_c, 0, 72, 72
2, 420232, Note_off_c, 0, 72, 0
2, 420240, Note_on_c, 0, 74, 68
2, 420620, Note_off_c, 0, 74, 0
2, 421056, Note_on_c, 0, 86, 44
2, 421148, Note_off_c, 0, 86, 0
2, 421248, Note_on_c, 0, 86, 44
2, 421340, Note_off_c, 0, 86, 0
2, 421440, Note_on_c, 0, 86, 44
2, 421532, Note_off_c, 0, 86, 0
2, 421632, Note_on_c, 0, 88, 48
2, 421672, Note_off_c, 0, 88, 0
2, 421680, Note_on_c, 0, 86, 48
2, 421720, Note_off_c, 0, 86, 0
2, 421728, Note_on_c, 0, 84, 48
2, 421768, Note_off_c, 0, 84, 0
2, 421776, Note_on_c, 0, 86, 44
2, 422156, Note_off_c, 0, 86, 0
2, 422480, Note_on_c, 0, 71, 72
2, 422496, Note_on_c, 0, 86, 72
2, 422496, Note_on_c, 0, 67, 72
2, 422588, Note_off_c, 0, 86, 0
2, 422592, Note_on_c, 0, 83, 72
2, 422668, Note_off_c, 0, 71, 0
2, 422684, Note_off_c, 0, 67, 0
2, 422684, Note_off_c, 0, 83, 0
2, 422688, Note_on_c, 0, 79, 72
2, 422780, Note_off_c, 0, 79, 0
2, 422784, Note_on_c, 0, 78, 72
2, 422784, Note_on_c, 0, 69, 72
2, 422784, Note_on_c, 0, 62, 72
2, 422876, Note_off_c, 0, 78, 0
2, 422880, Note_on_c, 0, 84, 72
2, 422972, Note_off_c, 0, 69, 0
2, 422972, Note_off_c, 0, 62, 0
2, 422972, Note_off_c, 0, 84, 0
2, 422976, Note_on_c, 0, 81, 72
2, 423068, Note_off_c, 0, 81, 0
2, 423072, Note_on_c, 0, 78, 72
2, 423164, Note_off_c, 0, 78, 0
2, 423168, Note_on_c, 0, 79, 72
2, 423168, Note_on_c, 0, 67, 72
2, 423168, Note_on_c, 0, 59, 72
2, 423260, Note_off_c, 0, 79, 0
2, 423264, Note_on_c, 0, 74, 72
2, 423356, Note_off_c, 0, 67, 0
2, 423356, Note_off_c, 0, 59, 0
2, 423356, Note_off_c, 0, 74, 0
2, 423360, Note_on_c, 0, 79, 72
2, 423452, Note_off_c, 0, 79, 0
2, 423456, Note_on_c, 0, 83, 72
2, 423548, Note_off_c, 0, 83, 0
2, 423552, Note_on_c, 0, 81, 72
2, 423552, Note_on_c, 0, 69, 72
2, 423552, Note_on_c, 0, 62, 72
2, 423644, Note_off_c, 0, 81, 0
2, 423648, Note_on_c, 0, 78, 72
2, 423740, Note_off_c, 0, 69, 0
2, 423740, Note_off_c, 0, 62, 0
2, 423740, Note_off_c, 0, 78, 0
2, 423744, Note_on_c, 0, 81, 72
2, 423836, Note_off_c, 0, 81, 0
2, 423840, Note_on_c, 0, 84, 72
2, 423932, Note_off_c, 0, 84, 0
2, 423936, Note_on_c, 0, 83, 66
2, 423936, Note_on_c, 0, 71, 66
2, 423936, Note_on_c, 0, 67, 66
2, 424028, Note_off_c, 0, 83, 0
2, 424032, Note_on_c, 0, 86, 66
2, 424124, Note_off_c, 0, 71, 0
2, 424124, Note_off_c, 0, 67, 0
2, 424124, Note_off_c, 0, 86, 0
2, 424128, Note_on_c, 0, 83, 66
2, 424220, Note_off_c, 0, 83, 0
2, 424224, Note_on_c, 0, 79, 66
2, 424316, Note_off_c, 0, 79, 0
2, 424320, Note_on_c, 0, 78, 66
2, 424320, Note_on_c, 0, 69, 66
2, 424320, Note_on_c, 0, 62, 66
2, 424412, Note_off_c, 0, 78, 0
2, 424416, Note_on_c, 0, 84, 66
2, 424508, Note_off_c, 0, 69, 0
2, 424508, Note_off_c, 0, 62, 0
2, 424508, Note_off_c, 0, 84, 0
2, 424512, Note_on_c, 0, 81, 66
2, 424604, Note_off_c, 0, 81, 0
2, 424608, Note_on_c, 0, 78, 66
2, 424700, Note_off_c, 0, 78, 0
2, 424704, Note_on_c, 0, 79, 66
2, 424704, Note_on_c, 0, 67, 66
2, 424704, Note_on_c, 0, 59, 66
2, 424796, Note_off_c, 0, 79, 0
2, 424800, Note_on_c, 0, 74, 66
2, 424892, Note_off_c, 0, 67, 0
2, 424892, Note_off_c, 0, 59, 0
2, 424892, Note_off_c, 0, 74, 0
2, 424896, Note_on_c, 0, 79, 66
2, 424988, Note_off_c, 0, 79, 0
2, 424992, Note_on_c, 0, 83, 66
2, 425084, Note_off_c, 0, 83, 0
2, 425088, Note_on_c, 0, 81, 66
2, 425088, Note_on_c, 0, 69, 66
2, 425088, Note_on_c, 0, 62, 66
2, 425180, Note_off_c, 0, 81, 0
2, 425184, Note_on_c, 0, 78, 66
2, 425276, Note_off_c, 0, 69, 0
2, 425276, Note_off_c, 0, 62, 0
2, 425276, Note_off_c, 0, 78, 0
2, 425280, Note_on_c, 0, 81, 66
2, 425372, Note_off_c, 0, 81, 0
2, 425376, Note_on_c, 0, 84, 66
2, 425468, Note_off_c, 0, 84, 0
2, 425568, Note_on_c, 0, 86, 72
2, 425660, Note_off_c, 0, 86, 0
2, 425664, Note_on_c, 0, 82, 72
2, 425756, Note_off_c, 0, 82, 0
2, 425760, Note_on_c, 0, 79, 72
2, 425852, Note_off_c, 0, 79, 0
2, 425856, Note_on_c, 0, 74, 72
2, 425948, Note_off_c, 0, 74, 0
2, 425952, Note_on_c, 0, 82, 72
2, 426044, Note_off_c, 0, 82, 0
2, 426048, Note_on_c, 0, 79, 72
2, 426140, Note_off_c, 0, 79, 0
2, 426144, Note_on_c, 0, 74, 72
2, 426236, Note_off_c, 0, 74, 0
2, 426240, Note_on_c, 0, 70, 72
2, 426332, Note_off_c, 0, 70, 0
2, 426336, Note_on_c, 0, 79, 72
2, 426428, Note_off_c, 0, 79, 0
2, 426432, Note_on_c, 0, 74, 72
2, 426524, Note_off_c, 0, 74, 0
2, 426528, Note_on_c, 0, 70, 72
2, 426620, Note_off_c, 0, 70, 0
2, 426624, Note_on_c, 0, 67, 72
2, 426716, Note_off_c, 0, 67, 0
2, 426720, Note_on_c, 0, 74, 72
2, 426812, Note_off_c, 0, 74, 0
2, 426816, Note_on_c, 0, 70, 72
2, 426908, Note_off_c, 0, 70, 0
2, 426912, Note_on_c, 0, 67, 72
2, 427004, Note_off_c, 0, 67, 0
2, 427104, Note_on_c, 0, 87, 72
2, 427196, Note_off_c, 0, 87, 0
2, 427200, Note_on_c, 0, 82, 72
2, 427292, Note_off_c, 0, 82, 0
2, 427296, Note_on_c, 0, 79, 72
2, 427388, Note_off_c, 0, 79, 0
2, 427392, Note_on_c, 0, 75, 72
2, 427484, Note_off_c, 0, 75, 0
2, 427488, Note_on_c, 0, 82, 72
2, 427580, Note_off_c, 0, 82, 0
2, 427584, Note_on_c, 0, 79, 72
2, 427676, Note_off_c, 0, 79, 0
2, 427680, Note_on_c, 0, 75, 72
2, 427772, Note_off_c, 0, 75, 0
2, 427776, Note_on_c, 0, 70, 72
2, 427868, Note_off_c, 0, 70, 0
2, 427872, Note_on_c, 0, 79, 72
2, 427964, Note_off_c, 0, 79, 0
2, 427968, Note_on_c, 0, 75, 72
2, 428060, Note_off_c, 0, 75, 0
2, 428064, Note_on_c, 0, 70, 72
2, 428156, Note_off_c, 0, 70, 0
2, 428160, Note_on_c, 0, 67, 72
2, 428252, Note_off_c, 0, 67, 0
2, 428256, Note_on_c, 0, 75, 72
2, 428348, Note_off_c, 0, 75, 0
2, 428352, Note_on_c, 0, 70, 72
2, 428444, Note_off_c, 0, 70, 0
2, 428448, Note_on_c, 0, 67, 72
2, 428540, Note_off_c, 0, 67, 0
2, 428640, Note_on_c, 0, 84, 72
2, 428732, Note_off_c, 0, 84, 0
2, 428736, Note_on_c, 0, 81, 72
2, 428828, Note_off_c, 0, 81, 0
2, 428832, Note_on_c, 0, 75, 72
2, 428924, Note_off_c, 0, 75, 0
2, 428928, Note_on_c, 0, 72, 72
2, 429020, Note_off_c, 0, 72, 0
2, 429024, Note_on_c, 0, 81, 72
2, 429116, Note_off_c, 0, 81, 0
2, 429120, Note_on_c, 0, 75, 72
2, 429212, Note_off_c, 0, 75, 0
2, 429216, Note_on_c, 0, 72, 72
2, 429308, Note_off_c, 0, 72, 0
2, 429312, Note_on_c, 0, 69, 72
2, 429404, Note_off_c, 0, 69, 0
2, 429408, Note_on_c, 0, 75, 72
2, 429500, Note_off_c, 0, 75, 0
2, 429504, Note_on_c, 0, 72, 72
2, 429596, Note_off_c, 0, 72, 0
2, 429600, Note_on_c, 0, 69, 72
2, 429692, Note_off_c, 0, 69, 0
2, 429696, Note_on_c, 0, 63, 72
2, 429788, Note_off_c, 0, 63, 0
2, 429792, Note_on_c, 0, 72, 72
2, 429884, Note_off_c, 0, 72, 0
2, 429888, Note_on_c, 0, 69, 72
2, 429980, Note_off_c, 0, 69, 0
2, 429984, Note_on_c, 0, 63, 72
2, 430076, Note_off_c, 0, 63, 0
2, 430176, Note_on_c, 0, 90, 72
2, 430268, Note_off_c, 0, 90, 0
2, 430272, Note_on_c, 0, 86, 72
2, 430364, Note_off_c, 0, 86, 0
2, 430368, Note_on_c, 0, 81, 72
2, 430460, Note_off_c, 0, 81, 0
2, 430464, Note_on_c, 0, 77, 72
2, 430556, Note_off_c, 0, 77, 0
2, 430560, Note_on_c, 0, 86, 72
2, 430652, Note_off_c, 0, 86, 0
2, 430656, Note_on_c, 0, 81, 72
2, 430748, Note_off_c, 0, 81, 0
2, 430752, Note_on_c, 0, 77, 72
2, 430844, Note_off_c, 0, 77, 0
2, 430848, Note_on_c, 0, 74, 72
2, 430940, Note_off_c, 0, 74, 0
2, 430944, Note_on_c, 0, 81, 72
2, 431036, Note_off_c, 0, 81, 0
2, 431040, Note_on_c, 0, 77, 72
2, 431132, Note_off_c, 0, 77, 0
2, 431136, Note_on_c, 0, 74, 72
2, 431228, Note_off_c, 0, 74, 0
2, 431232, Note_on_c, 0, 69, 72
2, 431324, Note_off_c, 0, 69, 0
2, 431328, Note_on_c, 0, 77, 72
2, 431420, Note_off_c, 0, 77, 0
2, 431424, Note_on_c, 0, 74, 72
2, 431516, Note_off_c, 0, 74, 0
2, 431520, Note_on_c, 0, 69, 72
2, 431612, Note_off_c, 0, 69, 0
2, 431712, Note_on_c, 0, 86, 72
2, 431804, Note_off_c, 0, 86, 0
2, 431808, Note_on_c, 0, 82, 72
2, 431900, Note_off_c, 0, 82, 0
2, 431904, Note_on_c, 0, 79, 72
2, 431996, Note_off_c, 0, 79, 0
2, 432000, Note_on_c, 0, 74, 72
2, 432092, Note_off_c, 0, 74, 0
2, 432096, Note_on_c, 0, 82, 72
2, 432188, Note_off_c, 0, 82, 0
2, 432192, Note_on_c, 0, 79, 72
2, 432284, Note_off_c, 0, 79, 0
2, 432288, Note_on_c, 0, 74, 72
2, 432380, Note_off_c, 0, 74, 0
2, 432480, Note_on_c, 0, 84, 72
2, 432572, Note_off_c, 0, 84, 0
2, 432576, Note_on_c, 0, 79, 72
2, 432668, Note_off_c, 0, 79, 0
2, 432672, Note_on_c, 0, 75, 72
2, 432764, Note_off_c, 0, 75, 0
2, 432768, Note_on_c, 0, 72, 72
2, 432860, Note_off_c, 0, 72, 0
2, 432864, Note_on_c, 0, 79, 72
2, 432956, Note_off_c, 0, 79, 0
2, 432960, Note_on_c, 0, 75, 72
2, 433052, Note_off_c, 0, 75, 0
2, 433056, Note_on_c, 0, 72, 72
2, 433148, Note_off_c, 0, 72, 0
2, 433248, Note_on_c, 0, 84, 72
2, 433340, Note_off_c, 0, 84, 0
2, 433344, Note_on_c, 0, 81, 72
2, 433436, Note_off_c, 0, 81, 0
2, 433440, Note_on_c, 0, 78, 72
2, 433532, Note_off_c, 0, 78, 0
2, 433536, Note_on_c, 0, 72, 72
2, 433628, Note_off_c, 0, 72, 0
2, 433632, Note_on_c, 0, 81, 72
2, 433724, Note_off_c, 0, 81, 0
2, 433728, Note_on_c, 0, 78, 72
2, 433820, Note_off_c, 0, 78, 0
2, 433824, Note_on_c, 0, 72, 72
2, 433916, Note_off_c, 0, 72, 0
2, 434016, Note_on_c, 0, 82, 72
2, 434108, Note_off_c, 0, 82, 0
2, 434112, Note_on_c, 0, 79, 72
2, 434204, Note_off_c, 0, 79, 0
2, 434208, Note_on_c, 0, 74, 72
2, 434300, Note_off_c, 0, 74, 0
2, 434304, Note_on_c, 0, 70, 72
2, 434396, Note_off_c, 0, 70, 0
2, 434400, Note_on_c, 0, 79, 72
2, 434492, Note_off_c, 0, 79, 0
2, 434496, Note_on_c, 0, 74, 72
2, 434588, Note_off_c, 0, 74, 0
2, 434592, Note_on_c, 0, 70, 72
2, 434684, Note_off_c, 0, 70, 0
2, 434784, Note_on_c, 0, 80, 72
2, 434876, Note_off_c, 0, 80, 0
2, 434880, Note_on_c, 0, 75, 72
2, 434972, Note_off_c, 0, 75, 0
2, 434976, Note_on_c, 0, 72, 72
2, 435068, Note_off_c, 0, 72, 0
2, 435072, Note_on_c, 0, 68, 72
2, 435164, Note_off_c, 0, 68, 0
2, 435168, Note_on_c, 0, 75, 72
2, 435260, Note_off_c, 0, 75, 0
2, 435264, Note_on_c, 0, 72, 72
2, 435356, Note_off_c, 0, 72, 0
2, 435360, Note_on_c, 0, 68, 72
2, 435452, Note_off_c, 0, 68, 0
2, 435552, Note_on_c, 0, 79, 72
2, 435644, Note_off_c, 0, 79, 0
2, 435648, Note_on_c, 0, 76, 72
2, 435740, Note_off_c, 0, 76, 0
2, 435744, Note_on_c, 0, 70, 72
2, 435836, Note_off_c, 0, 70, 0
2, 435840, Note_on_c, 0, 67, 72
2, 435932, Note_off_c, 0, 67, 0
2, 435936, Note_on_c, 0, 76, 72
2, 436028, Note_off_c, 0, 76, 0
2, 436032, Note_on_c, 0, 70, 72
2, 436124, Note_off_c, 0, 70, 0
2, 436128, Note_on_c, 0, 67, 72
2, 436220, Note_off_c, 0, 67, 0
2, 436224, Note_on_c, 0, 66, 72
2, 436412, Note_off_c, 0, 66, 0
2, 436416, Note_on_c, 0, 74, 72
2, 436416, Note_on_c, 0, 62, 72
2, 436508, Note_off_c, 0, 74, 0
2, 436508, Note_off_c, 0, 62, 0
2, 436608, Note_on_c, 0, 78, 72
2, 436608, Note_on_c, 0, 66, 72
2, 436700, Note_off_c, 0, 78, 0
2, 436700, Note_off_c, 0, 66, 0
2, 436800, Note_on_c, 0, 81, 72
2, 436800, Note_on_c, 0, 69, 72
2, 436892, Note_off_c, 0, 81, 0
2, 436892, Note_off_c, 0, 69, 0
2, 436992, Note_on_c, 0, 85, 72
2, 436992, Note_on_c, 0, 73, 72
2, 437180, Note_off_c, 0, 85, 0
2, 437180, Note_off_c, 0, 73, 0
2, 437184, Note_on_c, 0, 86, 72
2, 437184, Note_on_c, 0, 74, 72
2, 437372, Note_off_c, 0, 86, 0
2, 437372, Note_off_c, 0, 74, 0
2, 437376, Note_on_c, 0, 74, 72
2, 437376, Note_on_c, 0, 62, 72
2, 437468, Note_off_c, 0, 74, 0
2, 437468, Note_off_c, 0, 62, 0
2, 437568, Note_on_c, 0, 86, 72
2, 437568, Note_on_c, 0, 74, 72
2, 437660, Note_off_c, 0, 86, 0
2, 437660, Note_off_c, 0, 74, 0
2, 437952, Note_on_c, 0, 74, 72
2, 437952, Note_on_c, 0, 62, 72
2, 438044, Note_off_c, 0, 74, 0
2, 438044, Note_off_c, 0, 62, 0
2, 438144, Note_on_c, 0, 78, 72
2, 438144, Note_on_c, 0, 66, 72
2, 438236, Note_off_c, 0, 78, 0
2, 438236, Note_off_c, 0, 66, 0
2, 438336, Note_on_c, 0, 81, 72
2, 438336, Note_on_c, 0, 69, 72
2, 438428, Note_off_c, 0, 81, 0
2, 438428, Note_off_c, 0, 69, 0
2, 438528, Note_on_c, 0, 85, 72
2, 438528, Note_on_c, 0, 73, 72
2, 438716, Note_off_c, 0, 85, 0
2, 438716, Note_off_c, 0, 73, 0
2, 438720, Note_on_c, 0, 86, 72
2, 438720, Note_on_c, 0, 74, 72
2, 438908, Note_off_c, 0, 86, 0
2, 438908, Note_off_c, 0, 74, 0
2, 438912, Note_on_c, 0, 74, 72
2, 438912, Note_on_c, 0, 62, 72
2, 439004, Note_off_c, 0, 74, 0
2, 439004, Note_off_c, 0, 62, 0
2, 439104, Note_on_c, 0, 86, 72
2, 439104, Note_on_c, 0, 74, 72
2, 439196, Note_off_c, 0, 86, 0
2, 439196, Note_off_c, 0, 74, 0
2, 439296, Note_on_c, 0, 74, 72
2, 439296, Note_on_c, 0, 62, 72
2, 439676, Note_off_c, 0, 74, 0
2, 439676, Note_off_c, 0, 62, 0
2, 440256, Note_on_c, 0, 62, 52
2, 440348, Note_off_c, 0, 62, 0
2, 440448, Note_on_c, 0, 66, 52
2, 440540, Note_off_c, 0, 66, 0
2, 440640, Note_on_c, 0, 69, 52
2, 440732, Note_off_c, 0, 69, 0
2, 440832, Note_on_c, 0, 73, 52
2, 441020, Note_off_c, 0, 73, 0
2, 441024, Note_on_c, 0, 74, 52
2, 441212, Note_off_c, 0, 74, 0
2, 441216, Note_on_c, 0, 62, 52
2, 441308, Note_off_c, 0, 62, 0
2, 441408, Note_on_c, 0, 74, 52
2, 441500, Note_off_c, 0, 74, 0
2, 441792, Note_on_c, 0, 62, 52
2, 441884, Note_off_c, 0, 62, 0
2, 441984, Note_on_c, 0, 66, 52
2, 442076, Note_off_c, 0, 66, 0
2, 442176, Note_on_c, 0, 69, 52
2, 442268, Note_off_c, 0, 69, 0
2, 442368, Note_on_c, 0, 73, 52
2, 442556, Note_off_c, 0, 73, 0
2, 442560, Note_on_c, 0, 74, 52
2, 442748, Note_off_c, 0, 74, 0
2, 442752, Note_on_c, 0, 62, 52
2, 442844, Note_off_c, 0, 62, 0
2, 442944, Note_on_c, 0, 74, 52
2, 443036, Note_off_c, 0, 74, 0
2, 443328, Note_on_c, 0, 74, 52
2, 443420, Note_off_c, 0, 74, 0
2, 443520, Note_on_c, 0, 79, 52
2, 443612, Note_off_c, 0, 79, 0
2, 443712, Note_on_c, 0, 83, 52
2, 443804, Note_off_c, 0, 83, 0
2, 443904, Note_on_c, 0, 83, 52
2, 444092, Note_off_c, 0, 83, 0
2, 444096, Note_on_c, 0, 84, 52
2, 444284, Note_off_c, 0, 84, 0
2, 444288, Note_on_c, 0, 72, 52
2, 444380, Note_off_c, 0, 72, 0
2, 444480, Note_on_c, 0, 84, 52
2, 444572, Note_off_c, 0, 84, 0
2, 444864, Note_on_c, 0, 72, 52
2, 444956, Note_off_c, 0, 72, 0
2, 445056, Note_on_c, 0, 78, 52
2, 445148, Note_off_c, 0, 78, 0
2, 445248, Note_on_c, 0, 81, 52
2, 445340, Note_off_c, 0, 81, 0
2, 445440, Note_on_c, 0, 83, 70
2, 445820, Note_off_c, 0, 83, 0
2, 445824, Note_on_c, 0, 83, 70
2, 445824, Note_on_c, 0, 71, 70
2, 446588, Note_off_c, 0, 83, 0
2, 446588, Note_off_c, 0, 71, 0
2, 446592, Note_on_c, 0, 83, 70
2, 446592, Note_on_c, 0, 71, 70
2, 446972, Note_off_c, 0, 83, 0
2, 446972, Note_off_c, 0, 71, 0
2, 446976, Note_on_c, 0, 84, 70
2, 446976, Note_on_c, 0, 72, 70
2, 447164, Note_off_c, 0, 84, 0
2, 447164, Note_off_c, 0, 72, 0
2, 447168, Note_on_c, 0, 83, 70
2, 447168, Note_on_c, 0, 71, 70
2, 447356, Note_off_c, 0, 83, 0
2, 447356, Note_off_c, 0, 71, 0
2, 447360, Note_on_c, 0, 83, 70
2, 447360, Note_on_c, 0, 71, 70
2, 447740, Note_off_c, 0, 83, 0
2, 447740, Note_off_c, 0, 71, 0
2, 448512, Note_on_c, 0, 88, 70
2, 448512, Note_on_c, 0, 76, 70
2, 448892, Note_off_c, 0, 88, 0
2, 448892, Note_off_c, 0, 76, 0
2, 448896, Note_on_c, 0, 88, 70
2, 448896, Note_on_c, 0, 76, 70
2, 449660, Note_off_c, 0, 88, 0
2, 449660, Note_off_c, 0, 76, 0
2, 449664, Note_on_c, 0, 88, 70
2, 449664, Note_on_c, 0, 76, 70
2, 450044, Note_off_c, 0, 88, 0
2, 450044, Note_off_c, 0, 76, 0
2, 450048, Note_on_c, 0, 89, 70
2, 450048, Note_on_c, 0, 77, 70
2, 450236, Note_off_c, 0, 89, 0
2, 450236, Note_off_c, 0, 77, 0
2, 450240, Note_on_c, 0, 88, 70
2, 450240, Note_on_c, 0, 76, 70
2, 450428, Note_off_c, 0, 88, 0
2, 450428, Note_off_c, 0, 76, 0
2, 450432, Note_on_c, 0, 88, 70
2, 450432, Note_on_c, 0, 76, 70
2, 450812, Note_off_c, 0, 88, 0
2, 450812, Note_off_c, 0, 76, 0
2, 451584, Note_on_c, 0, 81, 70
2, 452348, Note_off_c, 0, 81, 0
2, 452352, Note_on_c, 0, 81, 70
2, 452540, Note_off_c, 0, 81, 0
2, 452544, Note_on_c, 0, 81, 74
2, 452584, Note_off_c, 0, 81, 0
2, 452592, Note_on_c, 0, 83, 74
2, 452632, Note_off_c, 0, 83, 0
2, 452640, Note_on_c, 0, 81, 74
2, 452680, Note_off_c, 0, 81, 0
2, 452688, Note_on_c, 0, 83, 74
2, 452728, Note_off_c, 0, 83, 0
2, 452736, Note_on_c, 0, 83, 72
2, 452924, Note_off_c, 0, 83, 0
2, 452928, Note_on_c, 0, 79, 72
2, 453116, Note_off_c, 0, 79, 0
2, 453120, Note_on_c, 0, 79, 70
2, 453308, Note_off_c, 0, 79, 0
2, 453312, Note_on_c, 0, 78, 70
2, 453500, Note_off_c, 0, 78, 0
2, 453504, Note_on_c, 0, 79, 70
2, 453596, Note_off_c, 0, 79, 0
2, 453696, Note_on_c, 0, 76, 70
2, 453788, Note_off_c, 0, 76, 0
2, 453888, Note_on_c, 0, 76, 70
2, 454076, Note_off_c, 0, 76, 0
2, 454080, Note_on_c, 0, 74, 70
2, 454268, Note_off_c, 0, 74, 0
2, 454272, Note_on_c, 0, 76, 70
2, 454364, Note_off_c, 0, 76, 0
2, 454464, Note_on_c, 0, 72, 70
2, 454556, Note_off_c, 0, 72, 0
2, 454656, Note_on_c, 0, 72, 70
2, 454844, Note_off_c, 0, 72, 0
2, 454848, Note_on_c, 0, 71, 70
2, 455036, Note_off_c, 0, 71, 0
2, 455040, Note_on_c, 0, 72, 70
2, 455040, Note_on_c, 0, 64, 70
2, 455132, Note_off_c, 0, 72, 0
2, 455232, Note_on_c, 0, 69, 70
2, 455324, Note_off_c, 0, 69, 0
2, 455420, Note_off_c, 0, 64, 0
2, 455424, Note_on_c, 0, 62, 70
2, 455424, Note_on_c, 0, 69, 70
2, 455612, Note_off_c, 0, 69, 0
2, 455616, Note_on_c, 0, 67, 70
2, 455804, Note_off_c, 0, 62, 0
2, 455804, Note_off_c, 0, 67, 0
2, 455808, Note_on_c, 0, 60, 70
2, 455808, Note_on_c, 0, 67, 70
2, 455996, Note_off_c, 0, 67, 0
2, 456000, Note_on_c, 0, 66, 70
2, 456188, Note_off_c, 0, 60, 0
2, 456188, Note_off_c, 0, 66, 0
2, 456192, Note_on_c, 0, 67, 70
2, 456192, Note_on_c, 0, 59, 70
2, 456572, Note_off_c, 0, 67, 0
2, 456572, Note_off_c, 0, 59, 0
2, 458496, Note_on_c, 0, 84, 66
2, 458496, Note_on_c, 0, 72, 66
2, 458684, Note_off_c, 0, 84, 0
2, 458684, Note_off_c, 0, 72, 0
2, 458688, Note_on_c, 0, 83, 66
2, 458688, Note_on_c, 0, 71, 66
2, 458876, Note_off_c, 0, 83, 0
2, 458876, Note_off_c, 0, 71, 0
2, 458880, Note_on_c, 0, 83, 66
2, 458880, Note_on_c, 0, 71, 66
2, 459260, Note_off_c, 0, 83, 0
2, 459260, Note_off_c, 0, 71, 0
2, 461568, Note_on_c, 0, 89, 66
2, 461568, Note_on_c, 0, 77, 66
2, 461756, Note_off_c, 0, 89, 0
2, 461756, Note_off_c, 0, 77, 0
2, 461760, Note_on_c, 0, 88, 66
2, 461760, Note_on_c, 0, 76, 66
2, 461948, Note_off_c, 0, 88, 0
2, 461948, Note_off_c, 0, 76, 0
2, 461952, Note_on_c, 0, 88, 66
2, 461952, Note_on_c, 0, 76, 66
2, 462332, Note_off_c, 0, 88, 0
2, 462332, Note_off_c, 0, 76, 0
2, 464448, Note_on_c, 0, 88, 66
2, 464636, Note_off_c, 0, 88, 0
2, 464640, Note_on_c, 0, 88, 66
2, 464828, Note_off_c, 0, 88, 0
2, 464832, Note_on_c, 0, 86, 66
2, 465020, Note_off_c, 0, 86, 0
2, 465024, Note_on_c, 0, 88, 66
2, 465024, Note_on_c, 0, 66, 66
2, 465024, Note_on_c, 0, 69, 66
2, 465212, Note_off_c, 0, 88, 0
2, 465216, Note_on_c, 0, 84, 66
2, 465404, Note_off_c, 0, 66, 0
2, 465404, Note_off_c, 0, 69, 0
2, 465404, Note_off_c, 0, 84, 0
2, 465408, Note_on_c, 0, 84, 66
2, 465408, Note_on_c, 0, 74, 66
2, 465408, Note_on_c, 0, 67, 66
2, 465596, Note_off_c, 0, 84, 0
2, 465600, Note_on_c, 0, 83, 66
2, 465788, Note_off_c, 0, 74, 0
2, 465788, Note_off_c, 0, 67, 0
2, 465788, Note_off_c, 0, 83, 0
2, 465792, Note_on_c, 0, 84, 66
2, 465792, Note_on_c, 0, 72, 66
2, 465792, Note_on_c, 0, 60, 66
2, 465792, Note_on_c, 0, 76, 66
2, 465980, Note_off_c, 0, 84, 0
2, 465984, Note_on_c, 0, 81, 66
2, 466172, Note_off_c, 0, 72, 0
2, 466172, Note_off_c, 0, 60, 0
2, 466172, Note_off_c, 0, 76, 0
2, 466172, Note_off_c, 0, 81, 0
2, 466176, Note_on_c, 0, 81, 66
2, 466176, Note_on_c, 0, 71, 66
2, 466176, Note_on_c, 0, 74, 66
2, 466176, Note_on_c, 0, 62, 66
2, 466364, Note_off_c, 0, 81, 0
2, 466368, Note_on_c, 0, 79, 66
2, 466556, Note_off_c, 0, 71, 0
2, 466556, Note_off_c, 0, 74, 0
2, 466556, Note_off_c, 0, 79, 0
2, 466560, Note_on_c, 0, 79, 66
2, 466560, Note_on_c, 0, 69, 66
2, 466560, Note_on_c, 0, 72, 66
2, 466748, Note_off_c, 0, 79, 0
2, 466752, Note_on_c, 0, 78, 66
2, 466940, Note_off_c, 0, 62, 0
2, 466940, Note_off_c, 0, 69, 0
2, 466940, Note_off_c, 0, 72, 0
2, 466940, Note_off_c, 0, 78, 0
2, 466944, Note_on_c, 0, 79, 72
2, 466944, Note_on_c, 0, 67, 72
2, 466944, Note_on_c, 0, 71, 72
2, 467036, Note_off_c, 0, 79, 0
2, 467040, Note_on_c, 0, 78, 72
2, 467132, Note_off_c, 0, 78, 0
2, 467136, Note_on_c, 0, 81, 72
2, 467228, Note_off_c, 0, 81, 0
2, 467232, Note_on_c, 0, 79, 72
2, 467324, Note_off_c, 0, 67, 0
2, 467324, Note_off_c, 0, 71, 0
2, 467324, Note_off_c, 0, 79, 0
2, 467328, Note_on_c, 0, 83, 72
2, 467420, Note_off_c, 0, 83, 0
2, 467424, Note_on_c, 0, 81, 72
2, 467516, Note_off_c, 0, 81, 0
2, 467520, Note_on_c, 0, 84, 72
2, 467612, Note_off_c, 0, 84, 0
2, 467616, Note_on_c, 0, 83, 72
2, 467708, Note_off_c, 0, 83, 0
2, 467712, Note_on_c, 0, 86, 72
2, 467804, Note_off_c, 0, 86, 0
2, 467808, Note_on_c, 0, 85, 72
2, 467900, Note_off_c, 0, 85, 0
2, 467904, Note_on_c, 0, 86, 72
2, 467996, Note_off_c, 0, 86, 0
2, 468000, Note_on_c, 0, 85, 72
2, 468092, Note_off_c, 0, 85, 0
2, 468096, Note_on_c, 0, 86, 72
2, 468096, Note_on_c, 0, 67, 72
2, 468096, Note_on_c, 0, 71, 72
2, 468188, Note_off_c, 0, 86, 0
2, 468192, Note_on_c, 0, 83, 72
2, 468284, Note_off_c, 0, 83, 0
2, 468288, Note_on_c, 0, 81, 72
2, 468380, Note_off_c, 0, 81, 0
2, 468384, Note_on_c, 0, 79, 72
2, 468476, Note_off_c, 0, 67, 0
2, 468476, Note_off_c, 0, 71, 0
2, 468476, Note_off_c, 0, 79, 0
2, 468480, Note_on_c, 0, 78, 72
2, 468480, Note_on_c, 0, 72, 72
2, 468480, Note_on_c, 0, 62, 72
2, 468572, Note_off_c, 0, 78, 0
2, 468576, Note_on_c, 0, 81, 72
2, 468668, Note_off_c, 0, 81, 0
2, 468672, Note_on_c, 0, 79, 72
2, 468764, Note_off_c, 0, 79, 0
2, 468768, Note_on_c, 0, 83, 72
2, 468860, Note_off_c, 0, 72, 0
2, 468860, Note_off_c, 0, 62, 0
2, 468860, Note_off_c, 0, 83, 0
2, 468864, Note_on_c, 0, 81, 72
2, 468956, Note_off_c, 0, 81, 0
2, 468960, Note_on_c, 0, 84, 72
2, 469052, Note_off_c, 0, 84, 0
2, 469056, Note_on_c, 0, 83, 72
2, 469148, Note_off_c, 0, 83, 0
2, 469152, Note_on_c, 0, 86, 72
2, 469244, Note_off_c, 0, 86, 0
2, 469248, Note_on_c, 0, 84, 72
2, 469340, Note_off_c, 0, 84, 0
2, 469344, Note_on_c, 0, 83, 72
2, 469436, Note_off_c, 0, 83, 0
2, 469440, Note_on_c, 0, 84, 72
2, 469532, Note_off_c, 0, 84, 0
2, 469536, Note_on_c, 0, 83, 72
2, 469628, Note_off_c, 0, 83, 0
2, 469632, Note_on_c, 0, 84, 72
2, 469632, Note_on_c, 0, 72, 72
2, 469632, Note_on_c, 0, 62, 72
2, 469724, Note_off_c, 0, 84, 0
2, 469728, Note_on_c, 0, 81, 72
2, 469820, Note_off_c, 0, 81, 0
2, 469824, Note_on_c, 0, 79, 72
2, 469916, Note_off_c, 0, 79, 0
2, 469920, Note_on_c, 0, 78, 72
2, 470012, Note_off_c, 0, 72, 0
2, 470012, Note_off_c, 0, 62, 0
2, 470012, Note_off_c, 0, 78, 0
2, 470016, Note_on_c, 0, 79, 66
2, 470016, Note_on_c, 0, 67, 66
2, 470016, Note_on_c, 0, 71, 66
2, 470108, Note_off_c, 0, 79, 0
2, 470112, Note_on_c, 0, 74, 66
2, 470204, Note_off_c, 0, 74, 0
2, 470208, Note_on_c, 0, 76, 66
2, 470300, Note_off_c, 0, 76, 0
2, 470304, Note_on_c, 0, 78, 66
2, 470396, Note_off_c, 0, 67, 0
2, 470396, Note_off_c, 0, 71, 0
2, 470396, Note_off_c, 0, 78, 0
2, 470400, Note_on_c, 0, 79, 66
2, 470492, Note_off_c, 0, 79, 0
2, 470496, Note_on_c, 0, 81, 66
2, 470588, Note_off_c, 0, 81, 0
2, 470592, Note_on_c, 0, 83, 66
2, 470684, Note_off_c, 0, 83, 0
2, 470688, Note_on_c, 0, 84, 66
2, 470780, Note_off_c, 0, 84, 0
2, 470784, Note_on_c, 0, 85, 66
2, 470876, Note_off_c, 0, 85, 0
2, 470880, Note_on_c, 0, 86, 66
2, 470972, Note_off_c, 0, 86, 0
2, 470976, Note_on_c, 0, 88, 66
2, 471068, Note_off_c, 0, 88, 0
2, 471072, Note_on_c, 0, 86, 66
2, 471164, Note_off_c, 0, 86, 0
2, 471168, Note_on_c, 0, 84, 66
2, 471168, Note_on_c, 0, 67, 66
2, 471168, Note_on_c, 0, 71, 66
2, 471260, Note_off_c, 0, 84, 0
2, 471264, Note_on_c, 0, 83, 66
2, 471356, Note_off_c, 0, 83, 0
2, 471360, Note_on_c, 0, 81, 66
2, 471452, Note_off_c, 0, 81, 0
2, 471456, Note_on_c, 0, 79, 66
2, 471548, Note_off_c, 0, 67, 0
2, 471548, Note_off_c, 0, 71, 0
2, 471548, Note_off_c, 0, 79, 0
2, 471552, Note_on_c, 0, 78, 66
2, 471552, Note_on_c, 0, 72, 66
2, 471552, Note_on_c, 0, 62, 66
2, 471644, Note_off_c, 0, 78, 0
2, 471648, Note_on_c, 0, 76, 66
2, 471740, Note_off_c, 0, 76, 0
2, 471744, Note_on_c, 0, 74, 66
2, 471836, Note_off_c, 0, 74, 0
2, 471840, Note_on_c, 0, 76, 66
2, 471932, Note_off_c, 0, 72, 0
2, 471932, Note_off_c, 0, 62, 0
2, 471932, Note_off_c, 0, 76, 0
2, 471936, Note_on_c, 0, 78, 66
2, 472028, Note_off_c, 0, 78, 0
2, 472032, Note_on_c, 0, 79, 66
2, 472124, Note_off_c, 0, 79, 0
2, 472128, Note_on_c, 0, 81, 66
2, 472220, Note_off_c, 0, 81, 0
2, 472224, Note_on_c, 0, 83, 66
2, 472316, Note_off_c, 0, 83, 0
2, 472320, Note_on_c, 0, 84, 66
2, 472412, Note_off_c, 0, 84, 0
2, 472416, Note_on_c, 0, 86, 66
2, 472508, Note_off_c, 0, 86, 0
2, 472512, Note_on_c, 0, 84, 66
2, 472604, Note_off_c, 0, 84, 0
2, 472608, Note_on_c, 0, 83, 66
2, 472700, Note_off_c, 0, 83, 0
2, 472704, Note_on_c, 0, 84, 66
2, 472704, Note_on_c, 0, 72, 66
2, 472704, Note_on_c, 0, 62, 66
2, 472796, Note_off_c, 0, 84, 0
2, 472800, Note_on_c, 0, 81, 66
2, 472892, Note_off_c, 0, 81, 0
2, 472896, Note_on_c, 0, 79, 66
2, 472988, Note_off_c, 0, 79, 0
2, 472992, Note_on_c, 0, 78, 66
2, 473084, Note_off_c, 0, 72, 0
2, 473084, Note_off_c, 0, 62, 0
2, 473084, Note_off_c, 0, 78, 0
2, 473088, Note_on_c, 0, 79, 66
2, 473088, Note_on_c, 0, 67, 66
2, 473088, Note_on_c, 0, 71, 66
2, 473468, Note_off_c, 0, 79, 0
2, 473468, Note_off_c, 0, 67, 0
2, 473468, Note_off_c, 0, 71, 0
2, 473472, Note_on_c, 0, 86, 66
2, 473564, Note_off_c, 0, 86, 0
2, 473568, Note_on_c, 0, 83, 66
2, 473660, Note_off_c, 0, 83, 0
2, 473664, Note_on_c, 0, 81, 66
2, 473756, Note_off_c, 0, 81, 0
2, 473760, Note_on_c, 0, 79, 66
2, 473852, Note_off_c, 0, 79, 0
2, 473856, Note_on_c, 0, 78, 66
2, 473948, Note_off_c, 0, 78, 0
2, 473952, Note_on_c, 0, 79, 66
2, 474044, Note_off_c, 0, 79, 0
2, 474048, Note_on_c, 0, 81, 66
2, 474140, Note_off_c, 0, 81, 0
2, 474144, Note_on_c, 0, 79, 66
2, 474236, Note_off_c, 0, 79, 0
2, 474240, Note_on_c, 0, 78, 66
2, 474240, Note_on_c, 0, 67, 66
2, 474240, Note_on_c, 0, 59, 66
2, 474332, Note_off_c, 0, 78, 0
2, 474336, Note_on_c, 0, 79, 66
2, 474428, Note_off_c, 0, 79, 0
2, 474432, Note_on_c, 0, 81, 66
2, 474524, Note_off_c, 0, 81, 0
2, 474528, Note_on_c, 0, 79, 66
2, 474620, Note_off_c, 0, 67, 0
2, 474620, Note_off_c, 0, 59, 0
2, 474620, Note_off_c, 0, 79, 0
2, 474624, Note_on_c, 0, 76, 66
2, 474624, Note_on_c, 0, 67, 66
2, 474624, Note_on_c, 0, 60, 66
2, 475004, Note_off_c, 0, 76, 0
2, 475004, Note_off_c, 0, 67, 0
2, 475004, Note_off_c, 0, 60, 0
2, 475008, Note_on_c, 0, 88, 66
2, 475100, Note_off_c, 0, 88, 0
2, 475104, Note_on_c, 0, 84, 66
2, 475196, Note_off_c, 0, 84, 0
2, 475200, Note_on_c, 0, 83, 66
2, 475292, Note_off_c, 0, 83, 0
2, 475296, Note_on_c, 0, 81, 66
2, 475388, Note_off_c, 0, 81, 0
2, 475392, Note_on_c, 0, 79, 66
2, 475484, Note_off_c, 0, 79, 0
2, 475488, Note_on_c, 0, 81, 66
2, 475580, Note_off_c, 0, 81, 0
2, 475584, Note_on_c, 0, 83, 66
2, 475676, Note_off_c, 0, 83, 0
2, 475680, Note_on_c, 0, 81, 66
2, 475772, Note_off_c, 0, 81, 0
2, 475776, Note_on_c, 0, 79, 66
2, 475776, Note_on_c, 0, 64, 66
2, 475776, Note_on_c, 0, 60, 66
2, 475868, Note_off_c, 0, 79, 0
2, 475872, Note_on_c, 0, 81, 66
2, 475964, Note_off_c, 0, 81, 0
2, 475968, Note_on_c, 0, 84, 66
2, 476060, Note_off_c, 0, 84, 0
2, 476064, Note_on_c, 0, 81, 66
2, 476156, Note_off_c, 0, 64, 0
2, 476156, Note_off_c, 0, 60, 0
2, 476156, Note_off_c, 0, 81, 0
2, 476160, Note_on_c, 0, 84, 66
2, 476160, Note_on_c, 0, 67, 66
2, 476160, Note_on_c, 0, 59, 66
2, 476252, Note_off_c, 0, 84, 0
2, 476256, Note_on_c, 0, 86, 66
2, 476348, Note_off_c, 0, 86, 0
2, 476352, Note_on_c, 0, 88, 66
2, 476444, Note_off_c, 0, 88, 0
2, 476448, Note_on_c, 0, 86, 66
2, 476540, Note_off_c, 0, 59, 0
2, 476540, Note_off_c, 0, 86, 0
2, 476544, Note_on_c, 0, 84, 66
2, 476544, Note_on_c, 0, 64, 66
2, 476636, Note_off_c, 0, 84, 0
2, 476640, Note_on_c, 0, 83, 66
2, 476732, Note_off_c, 0, 83, 0
2, 476736, Note_on_c, 0, 81, 66
2, 476828, Note_off_c, 0, 81, 0
2, 476832, Note_on_c, 0, 79, 66
2, 476924, Note_off_c, 0, 64, 0
2, 476924, Note_off_c, 0, 79, 0
2, 476928, Note_on_c, 0, 60, 66
2, 476928, Note_on_c, 0, 81, 70
2, 476968, Note_off_c, 0, 81, 0
2, 476976, Note_on_c, 0, 83, 70
2, 477016, Note_off_c, 0, 83, 0
2, 477024, Note_on_c, 0, 81, 70
2, 477064, Note_off_c, 0, 81, 0
2, 477072, Note_on_c, 0, 83, 70
2, 477112, Note_off_c, 0, 83, 0
2, 477120, Note_on_c, 0, 81, 70
2, 477160, Note_off_c, 0, 81, 0
2, 477168, Note_on_c, 0, 83, 70
2, 477208, Note_off_c, 0, 83, 0
2, 477216, Note_on_c, 0, 81, 70
2, 477256, Note_off_c, 0, 81, 0
2, 477264, Note_on_c, 0, 83, 70
2, 477304, Note_off_c, 0, 83, 0
2, 477308, Note_off_c, 0, 67, 0
2, 477308, Note_off_c, 0, 60, 0
2, 477312, Note_on_c, 0, 81, 70
2, 477312, Note_on_c, 0, 66, 66
2, 477312, Note_on_c, 0, 62, 66
2, 477352, Note_off_c, 0, 81, 0
2, 477360, Note_on_c, 0, 83, 70
2, 477400, Note_off_c, 0, 83, 0
2, 477408, Note_on_c, 0, 81, 70
2, 477448, Note_off_c, 0, 81, 0
2, 477456, Note_on_c, 0, 83, 70
2, 477496, Note_off_c, 0, 83, 0
2, 477504, Note_on_c, 0, 79, 68
2, 477592, Note_off_c, 0, 79, 0
2, 477600, Note_on_c, 0, 81, 68
2, 477688, Note_off_c, 0, 81, 0
2, 477692, Note_off_c, 0, 66, 0
2, 477692, Note_off_c, 0, 62, 0
2, 477696, Note_on_c, 0, 79, 55
2, 478076, Note_off_c, 0, 79, 0
2, 478176, Note_on_c, 0, 67, 55
2, 478268, Note_off_c, 0, 67, 0
2, 478272, Note_on_c, 0, 71, 55
2, 478364, Note_off_c, 0, 71, 0
2, 478368, Note_on_c, 0, 74, 55
2, 478460, Note_off_c, 0, 74, 0
2, 478464, Note_on_c, 0, 79, 55
2, 478844, Note_off_c, 0, 79, 0
2, 478848, Note_on_c, 0, 67, 55
2, 478944, Note_on_c, 0, 79, 55
2, 479036, Note_off_c, 0, 79, 0
2, 479040, Note_on_c, 0, 83, 55
2, 479132, Note_off_c, 0, 83, 0
2, 479136, Note_on_c, 0, 86, 55
2, 479228, Note_off_c, 0, 67, 0
2, 479228, Note_off_c, 0, 86, 0
2, 479232, Note_on_c, 0, 84, 55
2, 479328, Note_on_c, 0, 72, 55
2, 479420, Note_off_c, 0, 72, 0
2, 479424, Note_on_c, 0, 69, 55
2, 479516, Note_off_c, 0, 69, 0
2, 479520, Note_on_c, 0, 66, 55
2, 479612, Note_off_c, 0, 84, 0
2, 479612, Note_off_c, 0, 66, 0
2, 479616, Note_on_c, 0, 62, 55
2, 479712, Note_on_c, 0, 81, 55
2, 479804, Note_off_c, 0, 81, 0
2, 479808, Note_on_c, 0, 78, 55
2, 479900, Note_off_c, 0, 78, 0
2, 479904, Note_on_c, 0, 74, 55
2, 479996, Note_off_c, 0, 62, 0
2, 479996, Note_off_c, 0, 74, 0
2, 480000, Note_on_c, 0, 72, 55
2, 480380, Note_off_c, 0, 72, 0
2, 480480, Note_on_c, 0, 69, 55
2, 480572, Note_off_c, 0, 69, 0
2, 480576, Note_on_c, 0, 66, 55
2, 480668, Note_off_c, 0, 66, 0
2, 480672, Note_on_c, 0, 62, 55
2, 480764, Note_off_c, 0, 62, 0
2, 480768, Note_on_c, 0, 67, 55
2, 481148, Note_off_c, 0, 67, 0
2, 481248, Note_on_c, 0, 67, 55
2, 481340, Note_off_c, 0, 67, 0
2, 481344, Note_on_c, 0, 71, 55
2, 481436, Note_off_c, 0, 71, 0
2, 481440, Note_on_c, 0, 74, 55
2, 481532, Note_off_c, 0, 74, 0
2, 481536, Note_on_c, 0, 79, 55
2, 481916, Note_off_c, 0, 79, 0
2, 481920, Note_on_c, 0, 67, 55
2, 482016, Note_on_c, 0, 79, 55
2, 482108, Note_off_c, 0, 79, 0
2, 482112, Note_on_c, 0, 83, 55
2, 482204, Note_off_c, 0, 83, 0
2, 482208, Note_on_c, 0, 86, 55
2, 482300, Note_off_c, 0, 67, 0
2, 482300, Note_off_c, 0, 86, 0
2, 482304, Note_on_c, 0, 84, 55
2, 482400, Note_on_c, 0, 72, 55
2, 482492, Note_off_c, 0, 72, 0
2, 482496, Note_on_c, 0, 69, 55
2, 482588, Note_off_c, 0, 69, 0
2, 482592, Note_on_c, 0, 66, 55
2, 482684, Note_off_c, 0, 84, 0
2, 482684, Note_off_c, 0, 66, 0
2, 482688, Note_on_c, 0, 62, 55
2, 482784, Note_on_c, 0, 81, 55
2, 482876, Note_off_c, 0, 81, 0
2, 482880, Note_on_c, 0, 78, 55
2, 482972, Note_off_c, 0, 78, 0
2, 482976, Note_on_c, 0, 74, 55
2, 483068, Note_off_c, 0, 62, 0
2, 483068, Note_off_c, 0, 74, 0
2, 483072, Note_on_c, 0, 72, 55
2, 483452, Note_off_c, 0, 72, 0
2, 483552, Note_on_c, 0, 69, 55
2, 483644, Note_off_c, 0, 69, 0
2, 483648, Note_on_c, 0, 66, 55
2, 483740, Note_off_c, 0, 66, 0
2, 483744, Note_on_c, 0, 62, 55
2, 483836, Note_off_c, 0, 62, 0
2, 483840, Note_on_c, 0, 67, 55
2, 484220, Note_off_c, 0, 67, 0
2, 484320, Note_on_c, 0, 71, 55
2, 484412, Note_off_c, 0, 71, 0
2, 484416, Note_on_c, 0, 74, 55
2, 484508, Note_off_c, 0, 74, 0
2, 484512, Note_on_c, 0, 79, 55
2, 484604, Note_off_c, 0, 79, 0
2, 484608, Note_on_c, 0, 83, 55
2, 484988, Note_off_c, 0, 83, 0
2, 485088, Note_on_c, 0, 86, 55
2, 485180, Note_off_c, 0, 86, 0
2, 485184, Note_on_c, 0, 83, 55
2, 485276, Note_off_c, 0, 83, 0
2, 485280, Note_on_c, 0, 79, 55
2, 485372, Note_off_c, 0, 79, 0
2, 485376, Note_on_c, 0, 76, 55
2, 485756, Note_off_c, 0, 76, 0
2, 485856, Note_on_c, 0, 64, 55
2, 485948, Note_off_c, 0, 64, 0
2, 485952, Note_on_c, 0, 67, 55
2, 486044, Note_off_c, 0, 67, 0
2, 486048, Note_on_c, 0, 72, 55
2, 486140, Note_off_c, 0, 72, 0
2, 486144, Note_on_c, 0, 76, 55
2, 486240, Note_on_c, 0, 60, 55
2, 486332, Note_off_c, 0, 60, 0
2, 486336, Note_on_c, 0, 64, 55
2, 486428, Note_off_c, 0, 64, 0
2, 486432, Note_on_c, 0, 69, 55
2, 486524, Note_off_c, 0, 76, 0
2, 486524, Note_off_c, 0, 69, 0
2, 486528, Note_on_c, 0, 72, 55
2, 486624, Note_on_c, 0, 88, 55
2, 486716, Note_off_c, 0, 88, 0
2, 486720, Note_on_c, 0, 84, 55
2, 486812, Note_off_c, 0, 84, 0
2, 486816, Note_on_c, 0, 81, 55
2, 486908, Note_off_c, 0, 72, 0
2, 486908, Note_off_c, 0, 81, 0
2, 486912, Note_on_c, 0, 74, 59
2, 486912, Note_on_c, 0, 62, 59
2, 487004, Note_off_c, 0, 62, 0
2, 487008, Note_on_c, 0, 71, 60
2, 487100, Note_off_c, 0, 74, 0
2, 487100, Note_off_c, 0, 71, 0
2, 487104, Note_on_c, 0, 67, 61
2, 487104, Note_on_c, 0, 67, 61
2, 487104, Note_on_c, 0, 76, 61
2, 487196, Note_off_c, 0, 67, 0
2, 487196, Note_off_c, 0, 67, 0
2, 487196, Note_off_c, 0, 76, 0
2, 487200, Note_on_c, 0, 78, 61
2, 487200, Note_on_c, 0, 71, 61
2, 487292, Note_off_c, 0, 78, 0
2, 487292, Note_off_c, 0, 71, 0
2, 487296, Note_on_c, 0, 79, 63
2, 487296, Note_on_c, 0, 62, 63
2, 487388, Note_off_c, 0, 79, 0
2, 487388, Note_off_c, 0, 62, 0
2, 487392, Note_on_c, 0, 81, 66
2, 487392, Note_on_c, 0, 71, 66
2, 487484, Note_off_c, 0, 81, 0
2, 487484, Note_off_c, 0, 71, 0
2, 487488, Note_on_c, 0, 83, 66
2, 487488, Note_on_c, 0, 67, 66
2, 487580, Note_off_c, 0, 83, 0
2, 487580, Note_off_c, 0, 67, 0
2, 487584, Note_on_c, 0, 84, 67
2, 487584, Note_on_c, 0, 71, 67
2, 487676, Note_off_c, 0, 84, 0
2, 487676, Note_off_c, 0, 71, 0
2, 487680, Note_on_c, 0, 86, 69
2, 487680, Note_on_c, 0, 62, 69
2, 487772, Note_off_c, 0, 86, 0
2, 487772, Note_off_c, 0, 62, 0
2, 487776, Note_on_c, 0, 85, 70
2, 487776, Note_on_c, 0, 71, 70
2, 487868, Note_off_c, 0, 85, 0
2, 487868, Note_off_c, 0, 71, 0
2, 487872, Note_on_c, 0, 86, 70
2, 487872, Note_on_c, 0, 67, 70
2, 487964, Note_off_c, 0, 86, 0
2, 487964, Note_off_c, 0, 67, 0
2, 487968, Note_on_c, 0, 85, 73
2, 487968, Note_on_c, 0, 71, 73
2, 488060, Note_off_c, 0, 85, 0
2, 488060, Note_off_c, 0, 71, 0
2, 488064, Note_on_c, 0, 86, 74
2, 488064, Note_on_c, 0, 62, 74
2, 488156, Note_off_c, 0, 86, 0
2, 488156, Note_off_c, 0, 62, 0
2, 488160, Note_on_c, 0, 83, 75
2, 488160, Note_on_c, 0, 71, 75
2, 488252, Note_off_c, 0, 83, 0
2, 488252, Note_off_c, 0, 71, 0
2, 488256, Note_on_c, 0, 81, 75
2, 488256, Note_on_c, 0, 67, 75
2, 488348, Note_off_c, 0, 81, 0
2, 488348, Note_off_c, 0, 67, 0
2, 488352, Note_on_c, 0, 79, 78
2, 488352, Note_on_c, 0, 71, 78
2, 488444, Note_off_c, 0, 79, 0
2, 488444, Note_off_c, 0, 71, 0
2, 488448, Note_on_c, 0, 62, 78
2, 488448, Note_on_c, 0, 81, 82
2, 488488, Note_off_c, 0, 81, 0
2, 488496, Note_on_c, 0, 83, 82
2, 488536, Note_off_c, 0, 62, 0
2, 488536, Note_off_c, 0, 83, 0
2, 488544, Note_on_c, 0, 81, 82
2, 488544, Note_on_c, 0, 72, 78
2, 488584, Note_off_c, 0, 81, 0
2, 488592, Note_on_c, 0, 83, 82
2, 488632, Note_off_c, 0, 72, 0
2, 488632, Note_off_c, 0, 83, 0
2, 488640, Note_on_c, 0, 81, 82
2, 488640, Note_on_c, 0, 66, 78
2, 488680, Note_off_c, 0, 81, 0
2, 488688, Note_on_c, 0, 83, 82
2, 488728, Note_off_c, 0, 66, 0
2, 488728, Note_off_c, 0, 83, 0
2, 488736, Note_on_c, 0, 81, 78
2, 488736, Note_on_c, 0, 72, 78
2, 488776, Note_off_c, 0, 81, 0
2, 488784, Note_on_c, 0, 83, 82
2, 488824, Note_off_c, 0, 83, 0
2, 488828, Note_off_c, 0, 72, 0
2, 488832, Note_on_c, 0, 81, 82
2, 488832, Note_on_c, 0, 62, 78
2, 488872, Note_off_c, 0, 81, 0
2, 488880, Note_on_c, 0, 83, 82
2, 488920, Note_off_c, 0, 62, 0
2, 488920, Note_off_c, 0, 83, 0
2, 488928, Note_on_c, 0, 81, 82
2, 488928, Note_on_c, 0, 72, 78
2, 488968, Note_off_c, 0, 81, 0
2, 488976, Note_on_c, 0, 83, 82
2, 489016, Note_off_c, 0, 72, 0
2, 489016, Note_off_c, 0, 83, 0
2, 489024, Note_on_c, 0, 81, 82
2, 489024, Note_on_c, 0, 66, 78
2, 489064, Note_off_c, 0, 81, 0
2, 489072, Note_on_c, 0, 83, 82
2, 489112, Note_off_c, 0, 66, 0
2, 489112, Note_off_c, 0, 83, 0
2, 489120, Note_on_c, 0, 81, 82
2, 489120, Note_on_c, 0, 72, 78
2, 489160, Note_off_c, 0, 81, 0
2, 489168, Note_on_c, 0, 83, 82
2, 489208, Note_off_c, 0, 72, 0
2, 489208, Note_off_c, 0, 83, 0
2, 489216, Note_on_c, 0, 81, 82
2, 489216, Note_on_c, 0, 62, 78
2, 489256, Note_off_c, 0, 81, 0
2, 489264, Note_on_c, 0, 83, 82
2, 489304, Note_off_c, 0, 62, 0
2, 489304, Note_off_c, 0, 83, 0
2, 489312, Note_on_c, 0, 81, 82
2, 489312, Note_on_c, 0, 72, 78
2, 489352, Note_off_c, 0, 81, 0
2, 489360, Note_on_c, 0, 83, 82
2, 489400, Note_off_c, 0, 72, 0
2, 489400, Note_off_c, 0, 83, 0
2, 489408, Note_on_c, 0, 81, 82
2, 489408, Note_on_c, 0, 66, 78
2, 489448, Note_off_c, 0, 81, 0
2, 489456, Note_on_c, 0, 83, 82
2, 489496, Note_off_c, 0, 66, 0
2, 489496, Note_off_c, 0, 83, 0
2, 489504, Note_on_c, 0, 81, 82
2, 489504, Note_on_c, 0, 72, 78
2, 489544, Note_off_c, 0, 81, 0
2, 489552, Note_on_c, 0, 83, 82
2, 489592, Note_off_c, 0, 72, 0
2, 489592, Note_off_c, 0, 83, 0
2, 489600, Note_on_c, 0, 81, 82
2, 489600, Note_on_c, 0, 62, 78
2, 489640, Note_off_c, 0, 81, 0
2, 489648, Note_on_c, 0, 83, 82
2, 489688, Note_off_c, 0, 62, 0
2, 489688, Note_off_c, 0, 83, 0
2, 489696, Note_on_c, 0, 81, 82
2, 489696, Note_on_c, 0, 72, 78
2, 489736, Note_off_c, 0, 81, 0
2, 489744, Note_on_c, 0, 83, 82
2, 489784, Note_off_c, 0, 72, 0
2, 489784, Note_off_c, 0, 83, 0
2, 489792, Note_on_c, 0, 79, 80
2, 489792, Note_on_c, 0, 66, 80
2, 489880, Note_off_c, 0, 79, 0
2, 489880, Note_off_c, 0, 66, 0
2, 489888, Note_on_c, 0, 81, 80
2, 489976, Note_off_c, 0, 81, 0
2, 489984, Note_on_c, 0, 79, 51
2, 489984, Note_on_c, 0, 70, 51
2, 489984, Note_on_c, 0, 63, 51
2, 490364, Note_off_c, 0, 79, 0
2, 490364, Note_off_c, 0, 70, 0
2, 490364, Note_off_c, 0, 63, 0
2, 503808, Note_on_c, 0, 74, 62
2, 504188, Note_off_c, 0, 74, 0
2, 504192, Note_on_c, 0, 71, 62
2, 504232, Note_off_c, 0, 71, 0
2, 504240, Note_on_c, 0, 72, 62
2, 504280, Note_off_c, 0, 72, 0
2, 504288, Note_on_c, 0, 71, 62
2, 504328, Note_off_c, 0, 71, 0
2, 504336, Note_on_c, 0, 72, 62
2, 504376, Note_off_c, 0, 72, 0
2, 504384, Note_on_c, 0, 69, 62
2, 504424, Note_off_c, 0, 69, 0
2, 504432, Note_on_c, 0, 71, 62
2, 504472, Note_off_c, 0, 71, 0
2, 504480, Note_on_c, 0, 72, 62
2, 504568, Note_off_c, 0, 72, 64
2, 504576, Note_on_c, 0, 74, 62
2, 504764, Note_off_c, 0, 74, 0
2, 504960, Note_on_c, 0, 74, 62
2, 505148, Note_off_c, 0, 74, 0
2, 505344, Note_on_c, 0, 74, 62
2, 505724, Note_off_c, 0, 74, 0
2, 505728, Note_on_c, 0, 74, 62
2, 505768, Note_off_c, 0, 74, 0
2, 505776, Note_on_c, 0, 76, 62
2, 505816, Note_off_c, 0, 76, 0
2, 505824, Note_on_c, 0, 74, 62
2, 505864, Note_off_c, 0, 74, 0
2, 505872, Note_on_c, 0, 76, 62
2, 505912, Note_off_c, 0, 76, 0
2, 505920, Note_on_c, 0, 74, 62
2, 505960, Note_off_c, 0, 74, 0
2, 505968, Note_on_c, 0, 76, 62
2, 506008, Note_off_c, 0, 76, 64
2, 506016, Note_on_c, 0, 78, 62
2, 506104, Note_off_c, 0, 78, 0
2, 506112, Note_on_c, 0, 79, 62
2, 506300, Note_off_c, 0, 79, 0
2, 506496, Note_on_c, 0, 79, 62
2, 506684, Note_off_c, 0, 79, 0
2, 506880, Note_on_c, 0, 79, 62
2, 506880, Note_on_c, 0, 62, 62
2, 507068, Note_off_c, 0, 62, 0
2, 507072, Note_on_c, 0, 71, 62
2, 507260, Note_off_c, 0, 71, 0
2, 507264, Note_on_c, 0, 67, 62
2, 507452, Note_off_c, 0, 67, 0
2, 507456, Note_on_c, 0, 71, 62
2, 507644, Note_off_c, 0, 71, 0
2, 507648, Note_on_c, 0, 62, 62
2, 507836, Note_off_c, 0, 62, 0
2, 507840, Note_on_c, 0, 71, 62
2, 508028, Note_off_c, 0, 79, 0
2, 508028, Note_off_c, 0, 71, 0
2, 508032, Note_on_c, 0, 83, 62
2, 508032, Note_on_c, 0, 67, 62
2, 508220, Note_off_c, 0, 67, 0
2, 508224, Note_on_c, 0, 71, 62
2, 508316, Note_off_c, 0, 83, 0
2, 508320, Note_on_c, 0, 79, 62
2, 508412, Note_off_c, 0, 71, 0
2, 508412, Note_off_c, 0, 79, 0
2, 508416, Note_on_c, 0, 78, 62
2, 508416, Note_on_c, 0, 62, 62
2, 508508, Note_off_c, 0, 78, 0
2, 508604, Note_off_c, 0, 62, 0
2, 508608, Note_on_c, 0, 81, 62
2, 508608, Note_on_c, 0, 72, 62
2, 508700, Note_off_c, 0, 81, 0
2, 508796, Note_off_c, 0, 72, 0
2, 508800, Note_on_c, 0, 84, 76
2, 508800, Note_on_c, 0, 69, 62
2, 508988, Note_off_c, 0, 69, 0
2, 508992, Note_on_c, 0, 72, 62
2, 509180, Note_off_c, 0, 72, 0
2, 509184, Note_on_c, 0, 62, 62
2, 509372, Note_off_c, 0, 62, 0
2, 509376, Note_on_c, 0, 72, 62
2, 509564, Note_off_c, 0, 84, 0
2, 509564, Note_off_c, 0, 72, 0
2, 509568, Note_on_c, 0, 81, 62
2, 509568, Note_on_c, 0, 69, 62
2, 509756, Note_off_c, 0, 69, 0
2, 509760, Note_on_c, 0, 72, 62
2, 509852, Note_off_c, 0, 81, 0
2, 509856, Note_on_c, 0, 79, 62
2, 509948, Note_off_c, 0, 72, 0
2, 509948, Note_off_c, 0, 79, 0
2, 509952, Note_on_c, 0, 79, 62
2, 509952, Note_on_c, 0, 62, 62
2, 510044, Note_off_c, 0, 79, 0
2, 510140, Note_off_c, 0, 62, 0
2, 510144, Note_on_c, 0, 83, 62
2, 510144, Note_on_c, 0, 71, 62
2, 510236, Note_off_c, 0, 83, 0
2, 510332, Note_off_c, 0, 71, 0
2, 510336, Note_on_c, 0, 86, 76
2, 510336, Note_on_c, 0, 67, 62
2, 510524, Note_off_c, 0, 67, 0
2, 510528, Note_on_c, 0, 71, 62
2, 510716, Note_off_c, 0, 86, 0
2, 510716, Note_off_c, 0, 71, 0
2, 510720, Note_on_c, 0, 84, 62
2, 510720, Note_on_c, 0, 62, 62
2, 510908, Note_off_c, 0, 84, 0
2, 510908, Note_off_c, 0, 62, 0
2, 510912, Note_on_c, 0, 85, 62
2, 510912, Note_on_c, 0, 71, 62
2, 511004, Note_off_c, 0, 85, 0
2, 511008, Note_on_c, 0, 86, 62
2, 511100, Note_off_c, 0, 71, 0
2, 511100, Note_off_c, 0, 86, 0
2, 511104, Note_on_c, 0, 67, 62
2, 511104, Note_on_c, 0, 84, 62
2, 511196, Note_off_c, 0, 84, 0
2, 511200, Note_on_c, 0, 83, 62
2, 511292, Note_off_c, 0, 67, 0
2, 511292, Note_off_c, 0, 83, 0
2, 511296, Note_on_c, 0, 81, 62
2, 511296, Note_on_c, 0, 71, 62
2, 511388, Note_off_c, 0, 81, 0
2, 511392, Note_on_c, 0, 79, 62
2, 511484, Note_off_c, 0, 71, 0
2, 511484, Note_off_c, 0, 79, 0
2, 511488, Note_on_c, 0, 78, 62
2, 511488, Note_on_c, 0, 62, 62
2, 511580, Note_off_c, 0, 78, 0
2, 511584, Note_on_c, 0, 81, 62
2, 511676, Note_off_c, 0, 62, 0
2, 511676, Note_off_c, 0, 81, 0
2, 511680, Note_on_c, 0, 84, 62
2, 511680, Note_on_c, 0, 72, 62
2, 511772, Note_off_c, 0, 84, 0
2, 511776, Note_on_c, 0, 81, 62
2, 511868, Note_off_c, 0, 72, 0
2, 511868, Note_off_c, 0, 81, 0
2, 511872, Note_on_c, 0, 88, 76
2, 511872, Note_on_c, 0, 69, 62
2, 512060, Note_off_c, 0, 69, 0
2, 512064, Note_on_c, 0, 72, 62
2, 512252, Note_off_c, 0, 88, 0
2, 512252, Note_off_c, 0, 72, 0
2, 512256, Note_on_c, 0, 88, 62
2, 512256, Note_on_c, 0, 62, 62
2, 512444, Note_off_c, 0, 88, 0
2, 512444, Note_off_c, 0, 62, 0
2, 512448, Note_on_c, 0, 86, 62
2, 512448, Note_on_c, 0, 72, 62
2, 512540, Note_off_c, 0, 86, 0
2, 512544, Note_on_c, 0, 84, 62
2, 512636, Note_off_c, 0, 72, 0
2, 512636, Note_off_c, 0, 84, 0
2, 512640, Note_on_c, 0, 83, 62
2, 512640, Note_on_c, 0, 69, 62
2, 512732, Note_off_c, 0, 83, 0
2, 512736, Note_on_c, 0, 81, 62
2, 512828, Note_off_c, 0, 69, 0
2, 512828, Note_off_c, 0, 81, 0
2, 512832, Note_on_c, 0, 79, 62
2, 512832, Note_on_c, 0, 72, 62
2, 512924, Note_off_c, 0, 79, 0
2, 512928, Note_on_c, 0, 78, 62
2, 513020, Note_off_c, 0, 72, 0
2, 513020, Note_off_c, 0, 78, 0
2, 513024, Note_on_c, 0, 81, 62
2, 513024, Note_on_c, 0, 64, 62
2, 513212, Note_off_c, 0, 64, 0
2, 513216, Note_on_c, 0, 71, 62
2, 513404, Note_off_c, 0, 81, 0
2, 513404, Note_off_c, 0, 71, 0
2, 513408, Note_on_c, 0, 79, 62
2, 513408, Note_on_c, 0, 67, 62
2, 513596, Note_off_c, 0, 67, 0
2, 513600, Note_on_c, 0, 71, 62
2, 513788, Note_off_c, 0, 79, 0
2, 513788, Note_off_c, 0, 71, 0
2, 513792, Note_on_c, 0, 79, 62
2, 513792, Note_on_c, 0, 64, 62
2, 513980, Note_off_c, 0, 79, 0
2, 513980, Note_off_c, 0, 64, 0
2, 513984, Note_on_c, 0, 81, 62
2, 514076, Note_off_c, 0, 81, 0
2, 514080, Note_on_c, 0, 83, 62
2, 514172, Note_off_c, 0, 83, 0
2, 514176, Note_on_c, 0, 81, 62
2, 514268, Note_off_c, 0, 81, 0
2, 514272, Note_on_c, 0, 79, 62
2, 514364, Note_off_c, 0, 79, 0
2, 514368, Note_on_c, 0, 78, 62
2, 514460, Note_off_c, 0, 78, 0
2, 514464, Note_on_c, 0, 76, 62
2, 514556, Note_off_c, 0, 76, 0
2, 514560, Note_on_c, 0, 74, 62
2, 514560, Note_on_c, 0, 67, 62
2, 514560, Note_on_c, 0, 57, 62
2, 514940, Note_off_c, 0, 74, 0
2, 514944, Note_on_c, 0, 72, 62
2, 514984, Note_off_c, 0, 72, 0
2, 514992, Note_on_c, 0, 74, 62
2, 515032, Note_off_c, 0, 74, 0
2, 515040, Note_on_c, 0, 72, 62
2, 515080, Note_off_c, 0, 72, 0
2, 515088, Note_on_c, 0, 74, 62
2, 515128, Note_off_c, 0, 74, 0
2, 515136, Note_on_c, 0, 71, 62
2, 515176, Note_off_c, 0, 71, 0
2, 515184, Note_on_c, 0, 72, 62
2, 515224, Note_off_c, 0, 72, 64
2, 515232, Note_on_c, 0, 74, 62
2, 515320, Note_off_c, 0, 74, 0
2, 515328, Note_on_c, 0, 76, 62
2, 515516, Note_off_c, 0, 76, 0
2, 515712, Note_on_c, 0, 76, 62
2, 515900, Note_off_c, 0, 76, 0
2, 516092, Note_off_c, 0, 67, 0
2, 516092, Note_off_c, 0, 57, 0
2, 516096, Note_on_c, 0, 76, 62
2, 516096, Note_on_c, 0, 67, 62
2, 516096, Note_on_c, 0, 57, 62
2, 516136, Note_off_c, 0, 67, 0
2, 516476, Note_off_c, 0, 76, 0
2, 516480, Note_on_c, 0, 76, 62
2, 516480, Note_on_c, 0, 60, 62
2, 516520, Note_off_c, 0, 76, 0
2, 516528, Note_on_c, 0, 78, 62
2, 516568, Note_off_c, 0, 78, 0
2, 516576, Note_on_c, 0, 76, 62
2, 516616, Note_off_c, 0, 76, 0
2, 516624, Note_on_c, 0, 78, 62
2, 516664, Note_off_c, 0, 78, 0
2, 516672, Note_on_c, 0, 75, 62
2, 516712, Note_off_c, 0, 75, 0
2, 516720, Note_on_c, 0, 76, 62
2, 516760, Note_off_c, 0, 76, 64
2, 516768, Note_on_c, 0, 78, 62
2, 516768, Note_on_c, 0, 64, 62
2, 516808, Note_off_c, 0, 78, 0
2, 516856, Note_off_c, 0, 64, 0
2, 516864, Note_on_c, 0, 79, 62
2, 516864, Note_on_c, 0, 64, 62
2, 517052, Note_off_c, 0, 60, 0
2, 517052, Note_off_c, 0, 79, 0
2, 517052, Note_off_c, 0, 64, 0
2, 517248, Note_on_c, 0, 79, 62
2, 517248, Note_on_c, 0, 64, 62
2, 517436, Note_off_c, 0, 79, 0
2, 517436, Note_off_c, 0, 64, 0
2, 517628, Note_off_c, 0, 57, 0
2, 517632, Note_on_c, 0, 79, 63
2, 517632, Note_on_c, 0, 64, 63
2, 517632, Note_on_c, 0, 57, 63
2, 518012, Note_off_c, 0, 79, 0
2, 518012, Note_off_c, 0, 64, 0
2, 518016, Note_on_c, 0, 79, 66
2, 518016, Note_on_c, 0, 64, 66
2, 518056, Note_off_c, 0, 79, 0
2, 518064, Note_on_c, 0, 81, 66
2, 518104, Note_off_c, 0, 81, 0
2, 518112, Note_on_c, 0, 79, 66
2, 518152, Note_off_c, 0, 79, 0
2, 518160, Note_on_c, 0, 81, 67
2, 518200, Note_off_c, 0, 81, 0
2, 518208, Note_on_c, 0, 78, 67
2, 518248, Note_off_c, 0, 78, 0
2, 518256, Note_on_c, 0, 79, 68
2, 518296, Note_off_c, 0, 64, 0
2, 518296, Note_off_c, 0, 79, 64
2, 518304, Note_on_c, 0, 81, 68
2, 518304, Note_on_c, 0, 66, 68
2, 518392, Note_off_c, 0, 81, 0
2, 518392, Note_off_c, 0, 66, 0
2, 518400, Note_on_c, 0, 73, 69
2, 518400, Note_on_c, 0, 67, 69
2, 518400, Note_on_c, 0, 83, 69
2, 518492, Note_off_c, 0, 67, 0
2, 518588, Note_off_c, 0, 73, 0
2, 518588, Note_off_c, 0, 83, 0
2, 518780, Note_off_c, 0, 57, 0
2, 518784, Note_on_c, 0, 83, 72
2, 518784, Note_on_c, 0, 73, 72
2, 518784, Note_on_c, 0, 67, 72
2, 518784, Note_on_c, 0, 57, 72
2, 518876, Note_off_c, 0, 67, 0
2, 518972, Note_off_c, 0, 83, 0
2, 518972, Note_off_c, 0, 73, 0
2, 518972, Note_off_c, 0, 57, 0
2, 519168, Note_on_c, 0, 83, 75
2, 519168, Note_on_c, 0, 73, 75
2, 519168, Note_on_c, 0, 67, 75
2, 519168, Note_on_c, 0, 57, 75
2, 519932, Note_off_c, 0, 83, 0
2, 519932, Note_off_c, 0, 67, 0
2, 519936, Note_on_c, 0, 81, 81
2, 519936, Note_on_c, 0, 66, 81
2, 520316, Note_off_c, 0, 81, 0
2, 520316, Note_off_c, 0, 66, 0
2, 520320, Note_on_c, 0, 79, 84
2, 520320, Note_on_c, 0, 64, 84
2, 520700, Note_off_c, 0, 73, 0
2, 520700, Note_off_c, 0, 57, 0
2, 520700, Note_off_c, 0, 79, 0
2, 520700, Note_off_c, 0, 64, 0
2, 520704, Note_on_c, 0, 79, 96
2, 520704, Note_on_c, 0, 72, 96
2, 520704, Note_on_c, 0, 62, 96
2, 520704, Note_on_c, 0, 57, 96
2, 521468, Note_off_c, 0, 79, 0
2, 521468, Note_off_c, 0, 72, 0
2, 521468, Note_off_c, 0, 62, 0
2, 521468, Note_off_c, 0, 57, 0
2, 521472, Note_on_c, 0, 72, 93
2, 521472, Note_on_c, 0, 62, 93
2, 521472, Note_on_c, 0, 57, 93
2, 521472, Note_on_c, 0, 78, 93
2, 521564, Note_off_c, 0, 78, 0
2, 521568, Note_on_c, 0, 81, 94
2, 521660, Note_off_c, 0, 72, 0
2, 521660, Note_off_c, 0, 62, 0
2, 521660, Note_off_c, 0, 57, 0
2, 521660, Note_off_c, 0, 81, 0
2, 521664, Note_on_c, 0, 79, 95
2, 521756, Note_off_c, 0, 79, 0
2, 521760, Note_on_c, 0, 83, 96
2, 521852, Note_off_c, 0, 83, 0
2, 521856, Note_on_c, 0, 81, 96
2, 521948, Note_off_c, 0, 81, 0
2, 521952, Note_on_c, 0, 84, 97
2, 522044, Note_off_c, 0, 84, 0
2, 522048, Note_on_c, 0, 83, 98
2, 522140, Note_off_c, 0, 83, 0
2, 522144, Note_on_c, 0, 86, 99
2, 522236, Note_off_c, 0, 86, 0
2, 522240, Note_on_c, 0, 84, 100
2, 522332, Note_off_c, 0, 84, 0
2, 522336, Note_on_c, 0, 86, 100
2, 522428, Note_off_c, 0, 86, 0
2, 522432, Note_on_c, 0, 83, 100
2, 522524, Note_off_c, 0, 83, 0
2, 522528, Note_on_c, 0, 84, 100
2, 522620, Note_off_c, 0, 84, 0
2, 522624, Note_on_c, 0, 81, 100
2, 522716, Note_off_c, 0, 81, 0
2, 522720, Note_on_c, 0, 83, 100
2, 522812, Note_off_c, 0, 83, 0
2, 522816, Note_on_c, 0, 79, 100
2, 522908, Note_off_c, 0, 79, 0
2, 522912, Note_on_c, 0, 81, 100
2, 523004, Note_off_c, 0, 81, 0
2, 523008, Note_on_c, 0, 78, 100
2, 523100, Note_off_c, 0, 78, 0
2, 523104, Note_on_c, 0, 79, 100
2, 523196, Note_off_c, 0, 79, 0
2, 523200, Note_on_c, 0, 76, 100
2, 523292, Note_off_c, 0, 76, 0
2, 523296, Note_on_c, 0, 78, 100
2, 523388, Note_off_c, 0, 78, 0
2, 523392, Note_on_c, 0, 74, 100
2, 523484, Note_off_c, 0, 74, 0
2, 523488, Note_on_c, 0, 76, 100
2, 523580, Note_off_c, 0, 76, 0
2, 523584, Note_on_c, 0, 73, 100
2, 523676, Note_off_c, 0, 73, 0
2, 523680, Note_on_c, 0, 74, 100
2, 523772, Note_off_c, 0, 74, 0
2, 523776, Note_on_c, 0, 72, 100
2, 523868, Note_off_c, 0, 72, 0
2, 523872, Note_on_c, 0, 74, 100
2, 523964, Note_off_c, 0, 74, 0
2, 523968, Note_on_c, 0, 71, 100
2, 524060, Note_off_c, 0, 71, 0
2, 524064, Note_on_c, 0, 72, 100
2, 524156, Note_off_c, 0, 72, 0
2, 524160, Note_on_c, 0, 69, 100
2, 524252, Note_off_c, 0, 69, 0
2, 524256, Note_on_c, 0, 71, 100
2, 524348, Note_off_c, 0, 71, 0
2, 524352, Note_on_c, 0, 67, 100
2, 524444, Note_off_c, 0, 67, 0
2, 524448, Note_on_c, 0, 69, 100
2, 524540, Note_off_c, 0, 69, 0
2, 524544, Note_on_c, 0, 66, 100
2, 524636, Note_off_c, 0, 66, 0
2, 524640, Note_on_c, 0, 67, 100
2, 524732, Note_off_c, 0, 67, 0
2, 524736, Note_on_c, 0, 64, 100
2, 524828, Note_off_c, 0, 64, 0
2, 524832, Note_on_c, 0, 66, 100
2, 524924, Note_off_c, 0, 66, 0
2, 524928, Note_on_c, 0, 62, 100
2, 525020, Note_off_c, 0, 62, 0
2, 525024, Note_on_c, 0, 64, 100
2, 525116, Note_off_c, 0, 64, 0
2, 525120, Note_on_c, 0, 61, 100
2, 525212, Note_off_c, 0, 61, 0
2, 525216, Note_on_c, 0, 62, 100
2, 525308, Note_off_c, 0, 62, 0
2, 525312, Note_on_c, 0, 60, 60
2, 525436, Note_off_c, 0, 60, 0
2, 525440, Note_on_c, 0, 57, 62
2, 525564, Note_off_c, 0, 57, 0
2, 525568, Note_on_c, 0, 60, 65
2, 525692, Note_off_c, 0, 60, 0
2, 525696, Note_on_c, 0, 64, 67
2, 525820, Note_off_c, 0, 64, 0
2, 525824, Note_on_c, 0, 69, 70
2, 525948, Note_off_c, 0, 69, 0
2, 525952, Note_on_c, 0, 76, 72
2, 526076, Note_off_c, 0, 76, 0
2, 526080, Note_on_c, 0, 81, 75
2, 526204, Note_off_c, 0, 81, 0
2, 526208, Note_on_c, 0, 84, 77
2, 526332, Note_off_c, 0, 84, 0
2, 526336, Note_on_c, 0, 88, 80
2, 526460, Note_off_c, 0, 88, 0
2, 526464, Note_on_c, 0, 88, 82
2, 526520, Note_off_c, 0, 88, 0
2, 526592, Note_on_c, 0, 88, 85
2, 526648, Note_off_c, 0, 88, 0
2, 526720, Note_on_c, 0, 88, 87
2, 526776, Note_off_c, 0, 88, 0
2, 526848, Note_on_c, 0, 88, 90
2, 527228, Note_off_c, 0, 88, 0
2, 527232, Note_on_c, 0, 86, 90
2, 527612, Note_off_c, 0, 86, 0
2, 527616, Note_on_c, 0, 85, 90
2, 527996, Note_off_c, 0, 85, 0
2, 528000, Note_on_c, 0, 84, 90
2, 528380, Note_off_c, 0, 84, 0
2, 528384, Note_on_c, 0, 84, 90
2, 528572, Note_off_c, 0, 84, 0
2, 528576, Note_on_c, 0, 83, 90
2, 528668, Note_off_c, 0, 83, 0
2, 528672, Note_on_c, 0, 84, 90
2, 528764, Note_off_c, 0, 84, 0
2, 528768, Note_on_c, 0, 81, 90
2, 528860, Note_off_c, 0, 81, 0
2, 528864, Note_on_c, 0, 84, 90
2, 528956, Note_off_c, 0, 84, 0
2, 528960, Note_on_c, 0, 79, 90
2, 529052, Note_off_c, 0, 79, 0
2, 529056, Note_on_c, 0, 84, 90
2, 529148, Note_off_c, 0, 84, 0
2, 529152, Note_on_c, 0, 78, 88
2, 529244, Note_off_c, 0, 78, 0
2, 529248, Note_on_c, 0, 81, 85
2, 529340, Note_off_c, 0, 81, 0
2, 529344, Note_on_c, 0, 76, 81
2, 529436, Note_off_c, 0, 76, 0
2, 529440, Note_on_c, 0, 81, 77
2, 529532, Note_off_c, 0, 81, 0
2, 529536, Note_on_c, 0, 74, 73
2, 529628, Note_off_c, 0, 74, 0
2, 529632, Note_on_c, 0, 81, 70
2, 529724, Note_off_c, 0, 81, 0
2, 529728, Note_on_c, 0, 72, 66
2, 529820, Note_off_c, 0, 72, 0
2, 529824, Note_on_c, 0, 81, 62
2, 529916, Note_off_c, 0, 81, 0
2, 529920, Note_on_c, 0, 71, 62
2, 530300, Note_off_c, 0, 71, 0
2, 530304, Note_on_c, 0, 71, 62
2, 531068, Note_off_c, 0, 71, 0
2, 531072, Note_on_c, 0, 71, 62
2, 531452, Note_off_c, 0, 71, 0
2, 531456, Note_on_c, 0, 72, 62
2, 531644, Note_off_c, 0, 72, 0
2, 531648, Note_on_c, 0, 71, 62
2, 531836, Note_off_c, 0, 71, 0
2, 531840, Note_on_c, 0, 71, 62
2, 532220, Note_off_c, 0, 71, 0
2, 532992, Note_on_c, 0, 84, 50
2, 533180, Note_off_c, 0, 84, 0
2, 533184, Note_on_c, 0, 83, 50
2, 533372, Note_off_c, 0, 83, 0
2, 533376, Note_on_c, 0, 83, 50
2, 533756, Note_off_c, 0, 83, 0
2, 534528, Note_on_c, 0, 60, 62
2, 534716, Note_off_c, 0, 60, 0
2, 534720, Note_on_c, 0, 59, 62
2, 534908, Note_off_c, 0, 59, 0
2, 534912, Note_on_c, 0, 59, 62
2, 535292, Note_off_c, 0, 59, 0
2, 535296, Note_on_c, 0, 65, 80
2, 535296, Note_on_c, 0, 77, 80
2, 535484, Note_off_c, 0, 77, 0
2, 535488, Note_on_c, 0, 76, 80
2, 535488, Note_on_c, 0, 64, 80
2, 535676, Note_off_c, 0, 65, 0
2, 535676, Note_off_c, 0, 76, 0
2, 535680, Note_on_c, 0, 76, 80
2, 535680, Note_on_c, 0, 64, 80
2, 535868, Note_off_c, 0, 64, 0
2, 536060, Note_off_c, 0, 76, 0
2, 536060, Note_off_c, 0, 64, 0
2, 536064, Note_on_c, 0, 70, 62
2, 536252, Note_off_c, 0, 70, 0
2, 536256, Note_on_c, 0, 69, 62
2, 536444, Note_off_c, 0, 69, 0
2, 536448, Note_on_c, 0, 69, 62
2, 536828, Note_off_c, 0, 69, 0
2, 536832, Note_on_c, 0, 87, 80
2, 536832, Note_on_c, 0, 75, 80
2, 537020, Note_off_c, 0, 87, 0
2, 537020, Note_off_c, 0, 75, 0
2, 537024, Note_on_c, 0, 74, 80
2, 537024, Note_on_c, 0, 86, 80
2, 537212, Note_off_c, 0, 74, 0
2, 537212, Note_off_c, 0, 86, 0
2, 537216, Note_on_c, 0, 86, 80
2, 537216, Note_on_c, 0, 74, 80
2, 537596, Note_off_c, 0, 86, 0
2, 537596, Note_off_c, 0, 74, 0
2, 537600, Note_on_c, 0, 69, 62
2, 537788, Note_off_c, 0, 69, 0
2, 537792, Note_on_c, 0, 67, 62
2, 537980, Note_off_c, 0, 67, 0
2, 537984, Note_on_c, 0, 67, 62
2, 538364, Note_off_c, 0, 67, 0
2, 538368, Note_on_c, 0, 86, 80
2, 538368, Note_on_c, 0, 74, 80
2, 538556, Note_off_c, 0, 86, 0
2, 538556, Note_off_c, 0, 74, 0
2, 538560, Note_on_c, 0, 84, 80
2, 538560, Note_on_c, 0, 72, 80
2, 538748, Note_off_c, 0, 84, 0
2, 538748, Note_off_c, 0, 72, 0
2, 538752, Note_on_c, 0, 84, 80
2, 538752, Note_on_c, 0, 72, 80
2, 539132, Note_off_c, 0, 84, 0
2, 539132, Note_off_c, 0, 72, 0
2, 539520, Note_on_c, 0, 84, 67
2, 539520, Note_on_c, 0, 78, 67
2, 539520, Note_on_c, 0, 75, 67
2, 539520, Note_on_c, 0, 72, 67
2, 539900, Note_off_c, 0, 84, 0
2, 539900, Note_off_c, 0, 78, 0
2, 539900, Note_off_c, 0, 75, 0
2, 539900, Note_off_c, 0, 72, 0
2, 540288, Note_on_c, 0, 84, 74
2, 540288, Note_on_c, 0, 75, 74
2, 540288, Note_on_c, 0, 72, 74
2, 540288, Note_on_c, 0, 79, 74
2, 540668, Note_off_c, 0, 84, 0
2, 540668, Note_off_c, 0, 75, 0
2, 540668, Note_off_c, 0, 72, 0
2, 540668, Note_off_c, 0, 79, 0
2, 540864, Note_on_c, 0, 69, 80
2, 541052, Note_off_c, 0, 69, 0
2, 541056, Note_on_c, 0, 84, 90
2, 541436, Note_off_c, 0, 84, 0
2, 541440, Note_on_c, 0, 84, 80
2, 541532, Note_off_c, 0, 84, 0
2, 541536, Note_on_c, 0, 86, 80
2, 541628, Note_off_c, 0, 86, 0
2, 541632, Note_on_c, 0, 88, 80
2, 541724, Note_off_c, 0, 88, 0
2, 541728, Note_on_c, 0, 80, 80
2, 541820, Note_off_c, 0, 80, 0
2, 541824, Note_on_c, 0, 81, 80
2, 541916, Note_off_c, 0, 81, 0
2, 541920, Note_on_c, 0, 83, 80
2, 542012, Note_off_c, 0, 83, 0
2, 542016, Note_on_c, 0, 84, 80
2, 542108, Note_off_c, 0, 84, 0
2, 542112, Note_on_c, 0, 76, 80
2, 542204, Note_off_c, 0, 76, 0
2, 542208, Note_on_c, 0, 78, 80
2, 542300, Note_off_c, 0, 78, 0
2, 542304, Note_on_c, 0, 79, 80
2, 542396, Note_off_c, 0, 79, 0
2, 542400, Note_on_c, 0, 81, 80
2, 542492, Note_off_c, 0, 81, 0
2, 542496, Note_on_c, 0, 73, 80
2, 542588, Note_off_c, 0, 73, 0
2, 542592, Note_on_c, 0, 74, 80
2, 542684, Note_off_c, 0, 74, 0
2, 542688, Note_on_c, 0, 75, 80
2, 542780, Note_off_c, 0, 75, 0
2, 542784, Note_on_c, 0, 76, 80
2, 542876, Note_off_c, 0, 76, 0
2, 542880, Note_on_c, 0, 74, 80
2, 542972, Note_off_c, 0, 74, 0
2, 542976, Note_on_c, 0, 72, 80
2, 543068, Note_off_c, 0, 72, 0
2, 543072, Note_on_c, 0, 71, 80
2, 543164, Note_off_c, 0, 71, 0
2, 543168, Note_on_c, 0, 69, 80
2, 543260, Note_off_c, 0, 69, 0
2, 543264, Note_on_c, 0, 67, 80
2, 543356, Note_off_c, 0, 67, 0
2, 543360, Note_on_c, 0, 66, 80
2, 543452, Note_off_c, 0, 66, 0
2, 543456, Note_on_c, 0, 64, 80
2, 543548, Note_off_c, 0, 64, 0
2, 543552, Note_on_c, 0, 62, 80
2, 543644, Note_off_c, 0, 62, 0
2, 543648, Note_on_c, 0, 60, 80
2, 543740, Note_off_c, 0, 60, 0
2, 543744, Note_on_c, 0, 59, 80
2, 543836, Note_off_c, 0, 59, 0
2, 543936, Note_on_c, 0, 55, 80
2, 544028, Note_off_c, 0, 55, 0
2, 544032, Note_on_c, 0, 59, 80
2, 544124, Note_off_c, 0, 59, 0
2, 544128, Note_on_c, 0, 57, 80
2, 544220, Note_off_c, 0, 57, 0
2, 544224, Note_on_c, 0, 60, 80
2, 544316, Note_off_c, 0, 60, 0
2, 544320, Note_on_c, 0, 59, 80
2, 544412, Note_off_c, 0, 59, 0
2, 544416, Note_on_c, 0, 62, 80
2, 544508, Note_off_c, 0, 62, 0
2, 544512, Note_on_c, 0, 60, 80
2, 544604, Note_off_c, 0, 60, 0
2, 544704, Note_on_c, 0, 57, 80
2, 544796, Note_off_c, 0, 57, 0
2, 544800, Note_on_c, 0, 60, 80
2, 544892, Note_off_c, 0, 60, 0
2, 544896, Note_on_c, 0, 59, 80
2, 544988, Note_off_c, 0, 59, 0
2, 544992, Note_on_c, 0, 62, 80
2, 545084, Note_off_c, 0, 62, 0
2, 545088, Note_on_c, 0, 60, 80
2, 545180, Note_off_c, 0, 60, 0
2, 545184, Note_on_c, 0, 64, 80
2, 545276, Note_off_c, 0, 64, 0
2, 545280, Note_on_c, 0, 62, 80
2, 545372, Note_off_c, 0, 62, 0
2, 545472, Note_on_c, 0, 59, 80
2, 545564, Note_off_c, 0, 59, 0
2, 545568, Note_on_c, 0, 62, 80
2, 545660, Note_off_c, 0, 62, 0
2, 545664, Note_on_c, 0, 60, 80
2, 545756, Note_off_c, 0, 60, 0
2, 545760, Note_on_c, 0, 64, 80
2, 545852, Note_off_c, 0, 64, 0
2, 545856, Note_on_c, 0, 62, 80
2, 545948, Note_off_c, 0, 62, 0
2, 545952, Note_on_c, 0, 65, 80
2, 546044, Note_off_c, 0, 65, 0
2, 546048, Note_on_c, 0, 64, 80
2, 546140, Note_off_c, 0, 64, 0
2, 546144, Note_on_c, 0, 67, 80
2, 546236, Note_off_c, 0, 67, 0
2, 546240, Note_on_c, 0, 66, 80
2, 546332, Note_off_c, 0, 66, 0
2, 546336, Note_on_c, 0, 69, 80
2, 546428, Note_off_c, 0, 69, 0
2, 546432, Note_on_c, 0, 67, 80
2, 546524, Note_off_c, 0, 67, 0
2, 546528, Note_on_c, 0, 71, 80
2, 546620, Note_off_c, 0, 71, 0
2, 546624, Note_on_c, 0, 69, 80
2, 546716, Note_off_c, 0, 69, 0
2, 546720, Note_on_c, 0, 72, 80
2, 546812, Note_off_c, 0, 72, 0
2, 546816, Note_on_c, 0, 71, 70
2, 546908, Note_off_c, 0, 71, 0
2, 546912, Note_on_c, 0, 67, 72
2, 547004, Note_off_c, 0, 67, 0
2, 547008, Note_on_c, 0, 74, 74
2, 547100, Note_off_c, 0, 74, 0
2, 547104, Note_on_c, 0, 71, 76
2, 547196, Note_off_c, 0, 71, 0
2, 547200, Note_on_c, 0, 79, 78
2, 547292, Note_off_c, 0, 79, 0
2, 547296, Note_on_c, 0, 74, 80
2, 547388, Note_off_c, 0, 74, 0
2, 547392, Note_on_c, 0, 83, 82
2, 547484, Note_off_c, 0, 83, 0
2, 547488, Note_on_c, 0, 79, 84
2, 547580, Note_off_c, 0, 79, 0
2, 547584, Note_on_c, 0, 86, 81
2, 547676, Note_off_c, 0, 86, 0
2, 547776, Note_on_c, 0, 86, 78
2, 547868, Note_off_c, 0, 86, 0
2, 547968, Note_on_c, 0, 69, 75
2, 547968, Note_on_c, 0, 62, 75
2, 547968, Note_on_c, 0, 86, 75
2, 548060, Note_off_c, 0, 86, 0
2, 548160, Note_on_c, 0, 86, 72
2, 548252, Note_off_c, 0, 86, 0
2, 548348, Note_off_c, 0, 69, 0
2, 548348, Note_off_c, 0, 62, 0
2, 548352, Note_on_c, 0, 67, 64
2, 548352, Note_on_c, 0, 71, 64
2, 548352, Note_on_c, 0, 86, 64
2, 548392, Note_off_c, 0, 86, 0
2, 548400, Note_on_c, 0, 88, 64
2, 548440, Note_off_c, 0, 88, 0
2, 548444, Note_off_c, 0, 67, 0
2, 548444, Note_off_c, 0, 71, 0
2, 548448, Note_on_c, 0, 86, 64
2, 548488, Note_off_c, 0, 86, 0
2, 548496, Note_on_c, 0, 88, 64
2, 548536, Note_off_c, 0, 88, 0
2, 548544, Note_on_c, 0, 86, 64
2, 548544, Note_on_c, 0, 74, 64
2, 548544, Note_on_c, 0, 71, 64
2, 548584, Note_off_c, 0, 86, 0
2, 548592, Note_on_c, 0, 88, 64
2, 548632, Note_off_c, 0, 74, 0
2, 548632, Note_off_c, 0, 71, 0
2, 548632, Note_off_c, 0, 88, 0
2, 548640, Note_on_c, 0, 86, 64
2, 548680, Note_off_c, 0, 86, 0
2, 548688, Note_on_c, 0, 88, 64
2, 548728, Note_off_c, 0, 88, 0
2, 548736, Note_on_c, 0, 72, 64
2, 548736, Note_on_c, 0, 69, 64
2, 548736, Note_on_c, 0, 86, 64
2, 548776, Note_off_c, 0, 86, 0
2, 548784, Note_on_c, 0, 88, 64
2, 548824, Note_off_c, 0, 72, 0
2, 548824, Note_off_c, 0, 69, 0
2, 548824, Note_off_c, 0, 88, 0
2, 548832, Note_on_c, 0, 86, 64
2, 548872, Note_off_c, 0, 86, 0
2, 548880, Note_on_c, 0, 88, 64
2, 548920, Note_off_c, 0, 88, 0
2, 548928, Note_on_c, 0, 86, 64
2, 548928, Note_on_c, 0, 69, 64
2, 548928, Note_on_c, 0, 62, 64
2, 548968, Note_off_c, 0, 86, 0
2, 548976, Note_on_c, 0, 88, 64
2, 549016, Note_off_c, 0, 69, 0
2, 549016, Note_off_c, 0, 62, 0
2, 549016, Note_off_c, 0, 88, 0
2, 549024, Note_on_c, 0, 86, 64
2, 549064, Note_off_c, 0, 86, 0
2, 549072, Note_on_c, 0, 88, 64
2, 549112, Note_off_c, 0, 88, 0
2, 549120, Note_on_c, 0, 67, 64
2, 549120, Note_on_c, 0, 59, 64
2, 549120, Note_on_c, 0, 86, 64
2, 549160, Note_off_c, 0, 86, 0
2, 549168, Note_on_c, 0, 88, 64
2, 549208, Note_off_c, 0, 88, 0
2, 549216, Note_on_c, 0, 86, 64
2, 549256, Note_off_c, 0, 86, 0
2, 549264, Note_on_c, 0, 88, 64
2, 549304, Note_off_c, 0, 88, 0
2, 549312, Note_on_c, 0, 86, 64
2, 549352, Note_off_c, 0, 86, 0
2, 549360, Note_on_c, 0, 88, 64
2, 549400, Note_off_c, 0, 88, 0
2, 549408, Note_on_c, 0, 86, 64
2, 549448, Note_off_c, 0, 86, 0
2, 549456, Note_on_c, 0, 88, 64
2, 549496, Note_off_c, 0, 67, 0
2, 549496, Note_off_c, 0, 59, 0
2, 549496, Note_off_c, 0, 88, 0
2, 549504, Note_on_c, 0, 69, 64
2, 549504, Note_on_c, 0, 62, 64
2, 549504, Note_on_c, 0, 86, 64
2, 549544, Note_off_c, 0, 86, 0
2, 549552, Note_on_c, 0, 88, 64
2, 549592, Note_off_c, 0, 88, 0
2, 549600, Note_on_c, 0, 86, 64
2, 549640, Note_off_c, 0, 86, 0
2, 549648, Note_on_c, 0, 88, 64
2, 549688, Note_off_c, 0, 88, 0
2, 549696, Note_on_c, 0, 86, 64
2, 549736, Note_off_c, 0, 86, 0
2, 549744, Note_on_c, 0, 88, 64
2, 549784, Note_off_c, 0, 88, 0
2, 549792, Note_on_c, 0, 86, 64
2, 549832, Note_off_c, 0, 86, 0
2, 549840, Note_on_c, 0, 88, 64
2, 549880, Note_off_c, 0, 69, 0
2, 549880, Note_off_c, 0, 62, 0
2, 549880, Note_off_c, 0, 88, 0
2, 549888, Note_on_c, 0, 71, 54
2, 549888, Note_on_c, 0, 67, 54
2, 549888, Note_on_c, 0, 86, 54
2, 549928, Note_off_c, 0, 86, 0
2, 549936, Note_on_c, 0, 88, 54
2, 549976, Note_off_c, 0, 71, 0
2, 549976, Note_off_c, 0, 67, 0
2, 549976, Note_off_c, 0, 88, 0
2, 549984, Note_on_c, 0, 86, 54
2, 550024, Note_off_c, 0, 86, 0
2, 550032, Note_on_c, 0, 88, 54
2, 550072, Note_off_c, 0, 88, 0
2, 550080, Note_on_c, 0, 86, 54
2, 550080, Note_on_c, 0, 74, 54
2, 550080, Note_on_c, 0, 71, 54
2, 550120, Note_off_c, 0, 86, 0
2, 550128, Note_on_c, 0, 88, 54
2, 550168, Note_off_c, 0, 74, 0
2, 550168, Note_off_c, 0, 71, 0
2, 550168, Note_off_c, 0, 88, 0
2, 550176, Note_on_c, 0, 86, 54
2, 550216, Note_off_c, 0, 86, 0
2, 550224, Note_on_c, 0, 88, 54
2, 550264, Note_off_c, 0, 88, 0
2, 550272, Note_on_c, 0, 72, 54
2, 550272, Note_on_c, 0, 69, 54
2, 550272, Note_on_c, 0, 86, 54
2, 550312, Note_off_c, 0, 86, 0
2, 550320, Note_on_c, 0, 88, 54
2, 550360, Note_off_c, 0, 72, 0
2, 550360, Note_off_c, 0, 69, 0
2, 550360, Note_off_c, 0, 88, 0
2, 550368, Note_on_c, 0, 86, 54
2, 550408, Note_off_c, 0, 86, 0
2, 550416, Note_on_c, 0, 88, 54
2, 550456, Note_off_c, 0, 88, 0
2, 550464, Note_on_c, 0, 86, 54
2, 550464, Note_on_c, 0, 69, 54
2, 550464, Note_on_c, 0, 62, 54
2, 550504, Note_off_c, 0, 86, 0
2, 550512, Note_on_c, 0, 88, 54
2, 550552, Note_off_c, 0, 69, 0
2, 550552, Note_off_c, 0, 62, 0
2, 550552, Note_off_c, 0, 88, 0
2, 550560, Note_on_c, 0, 86, 54
2, 550600, Note_off_c, 0, 86, 0
2, 550608, Note_on_c, 0, 88, 54
2, 550648, Note_off_c, 0, 88, 0
2, 550656, Note_on_c, 0, 59, 54
2, 550656, Note_on_c, 0, 67, 54
2, 550656, Note_on_c, 0, 86, 54
2, 550696, Note_off_c, 0, 86, 0
2, 550704, Note_on_c, 0, 88, 54
2, 550744, Note_off_c, 0, 88, 0
2, 550752, Note_on_c, 0, 86, 54
2, 550792, Note_off_c, 0, 86, 0
2, 550800, Note_on_c, 0, 88, 54
2, 550840, Note_off_c, 0, 88, 0
2, 550848, Note_on_c, 0, 86, 54
2, 550888, Note_off_c, 0, 86, 0
2, 550896, Note_on_c, 0, 88, 54
2, 550936, Note_off_c, 0, 88, 0
2, 550944, Note_on_c, 0, 86, 54
2, 550984, Note_off_c, 0, 86, 0
2, 550992, Note_on_c, 0, 88, 54
2, 551032, Note_off_c, 0, 59, 0
2, 551032, Note_off_c, 0, 67, 0
2, 551032, Note_off_c, 0, 88, 0
2, 551040, Note_on_c, 0, 62, 54
2, 551040, Note_on_c, 0, 69, 54
2, 551040, Note_on_c, 0, 86, 54
2, 551080, Note_off_c, 0, 86, 0
2, 551088, Note_on_c, 0, 88, 54
2, 551128, Note_off_c, 0, 88, 0
2, 551136, Note_on_c, 0, 86, 54
2, 551176, Note_off_c, 0, 86, 0
2, 551184, Note_on_c, 0, 88, 54
2, 551224, Note_off_c, 0, 88, 0
2, 551232, Note_on_c, 0, 85, 54
2, 551320, Note_off_c, 0, 85, 0
2, 551328, Note_on_c, 0, 86, 54
2, 551416, Note_off_c, 0, 62, 0
2, 551416, Note_off_c, 0, 69, 0
2, 551416, Note_off_c, 0, 86, 0
2, 551424, Note_on_c, 0, 71, 54
2, 551424, Note_on_c, 0, 67, 54
2, 551424, Note_on_c, 0, 86, 54
2, 551516, Note_off_c, 0, 86, 0
2, 551520, Note_on_c, 0, 83, 54
2, 551612, Note_off_c, 0, 83, 0
2, 551616, Note_on_c, 0, 78, 54
2, 551708, Note_off_c, 0, 78, 0
2, 551712, Note_on_c, 0, 79, 54
2, 551804, Note_off_c, 0, 71, 0
2, 551804, Note_off_c, 0, 67, 0
2, 551804, Note_off_c, 0, 79, 0
2, 551808, Note_on_c, 0, 83, 54
2, 551900, Note_off_c, 0, 83, 0
2, 551904, Note_on_c, 0, 79, 54
2, 551996, Note_off_c, 0, 79, 0
2, 552000, Note_on_c, 0, 73, 54
2, 552092, Note_off_c, 0, 73, 0
2, 552096, Note_on_c, 0, 74, 54
2, 552188, Note_off_c, 0, 74, 0
2, 552192, Note_on_c, 0, 79, 54
2, 552284, Note_off_c, 0, 79, 0
2, 552288, Note_on_c, 0, 74, 54
2, 552380, Note_off_c, 0, 74, 0
2, 552384, Note_on_c, 0, 70, 54
2, 552476, Note_off_c, 0, 70, 0
2, 552480, Note_on_c, 0, 71, 54
2, 552572, Note_off_c, 0, 71, 0
2, 552576, Note_on_c, 0, 74, 54
2, 552668, Note_off_c, 0, 74, 0
2, 552672, Note_on_c, 0, 71, 54
2, 552764, Note_off_c, 0, 71, 0
2, 552768, Note_on_c, 0, 66, 54
2, 552860, Note_off_c, 0, 66, 0
2, 552864, Note_on_c, 0, 67, 54
2, 552956, Note_off_c, 0, 67, 0
2, 552960, Note_on_c, 0, 71, 54
2, 553052, Note_off_c, 0, 71, 0
2, 553056, Note_on_c, 0, 67, 54
2, 553148, Note_off_c, 0, 67, 0
2, 553152, Note_on_c, 0, 61, 54
2, 553244, Note_off_c, 0, 61, 0
2, 553248, Note_on_c, 0, 62, 54
2, 553340, Note_off_c, 0, 62, 0
2, 553344, Note_on_c, 0, 67, 54
2, 553436, Note_off_c, 0, 67, 0
2, 553440, Note_on_c, 0, 62, 54
2, 553532, Note_off_c, 0, 62, 0
2, 553536, Note_on_c, 0, 58, 54
2, 553628, Note_off_c, 0, 58, 0
2, 553632, Note_on_c, 0, 59, 54
2, 553724, Note_off_c, 0, 59, 0
2, 553728, Note_on_c, 0, 62, 54
2, 553820, Note_off_c, 0, 62, 0
2, 553824, Note_on_c, 0, 59, 54
2, 553916, Note_off_c, 0, 59, 0
2, 553920, Note_on_c, 0, 54, 54
2, 554012, Note_off_c, 0, 54, 0
2, 554016, Note_on_c, 0, 55, 54
2, 554108, Note_off_c, 0, 55, 0
2, 555936, Note_on_c, 0, 60, 82
2, 556028, Note_off_c, 0, 60, 0
2, 556032, Note_on_c, 0, 62, 83
2, 556124, Note_off_c, 0, 62, 0
2, 556128, Note_on_c, 0, 64, 84
2, 556220, Note_off_c, 0, 64, 0
2, 556224, Note_on_c, 0, 66, 85
2, 556316, Note_off_c, 0, 66, 0
2, 556320, Note_on_c, 0, 67, 86
2, 556412, Note_off_c, 0, 67, 0
2, 556416, Note_on_c, 0, 62, 87
2, 556508, Note_off_c, 0, 62, 0
2, 556512, Note_on_c, 0, 71, 88
2, 556604, Note_off_c, 0, 71, 0
2, 556608, Note_on_c, 0, 67, 89
2, 556700, Note_off_c, 0, 67, 0
2, 556704, Note_on_c, 0, 74, 90
2, 556796, Note_off_c, 0, 74, 0
2, 556800, Note_on_c, 0, 71, 91
2, 556892, Note_off_c, 0, 71, 0
2, 556896, Note_on_c, 0, 79, 92
2, 556988, Note_off_c, 0, 79, 0
2, 556992, Note_on_c, 0, 74, 93
2, 557084, Note_off_c, 0, 74, 0
2, 557088, Note_on_c, 0, 83, 94
2, 557180, Note_off_c, 0, 83, 0
2, 557184, Note_on_c, 0, 79, 76
2, 557276, Note_off_c, 0, 79, 0
2, 557280, Note_on_c, 0, 86, 77
2, 557468, Note_off_c, 0, 86, 0
2, 557472, Note_on_c, 0, 79, 66
2, 557564, Note_off_c, 0, 79, 0
2, 557568, Note_on_c, 0, 80, 66
2, 557660, Note_off_c, 0, 80, 0
2, 557664, Note_on_c, 0, 81, 66
2, 557756, Note_off_c, 0, 81, 0
2, 557760, Note_on_c, 0, 83, 66
2, 557852, Note_off_c, 0, 83, 0
2, 557856, Note_on_c, 0, 81, 66
2, 557948, Note_off_c, 0, 81, 0
2, 557952, Note_on_c, 0, 80, 66
2, 558044, Note_off_c, 0, 80, 0
2, 558048, Note_on_c, 0, 81, 66
2, 558140, Note_off_c, 0, 81, 0
2, 558144, Note_on_c, 0, 84, 66
2, 558236, Note_off_c, 0, 84, 0
2, 558240, Note_on_c, 0, 81, 66
2, 558332, Note_off_c, 0, 81, 0
2, 558336, Note_on_c, 0, 80, 66
2, 558428, Note_off_c, 0, 80, 0
2, 558432, Note_on_c, 0, 81, 66
2, 558524, Note_off_c, 0, 81, 0
2, 558528, Note_on_c, 0, 83, 66
2, 558620, Note_off_c, 0, 83, 0
2, 558624, Note_on_c, 0, 81, 66
2, 558716, Note_off_c, 0, 81, 0
2, 558720, Note_on_c, 0, 80, 66
2, 558812, Note_off_c, 0, 80, 0
2, 558816, Note_on_c, 0, 81, 66
2, 558908, Note_off_c, 0, 81, 0
2, 558912, Note_on_c, 0, 84, 66
2, 559004, Note_off_c, 0, 84, 0
2, 559008, Note_on_c, 0, 81, 66
2, 559100, Note_off_c, 0, 81, 0
2, 559104, Note_on_c, 0, 79, 66
2, 559196, Note_off_c, 0, 79, 0
2, 559200, Note_on_c, 0, 81, 66
2, 559292, Note_off_c, 0, 81, 0
2, 559296, Note_on_c, 0, 83, 66
2, 559344, Note_on_c, 0, 81, 70
2, 559384, Note_off_c, 0, 81, 0
2, 559388, Note_off_c, 0, 83, 0
2, 559392, Note_on_c, 0, 83, 70
2, 559432, Note_off_c, 0, 83, 0
2, 559440, Note_on_c, 0, 81, 70
2, 559480, Note_off_c, 0, 81, 0
2, 559488, Note_on_c, 0, 83, 70
2, 559528, Note_off_c, 0, 83, 0
2, 559536, Note_on_c, 0, 81, 70
2, 559576, Note_off_c, 0, 81, 0
2, 559584, Note_on_c, 0, 83, 70
2, 559624, Note_off_c, 0, 83, 0
2, 559632, Note_on_c, 0, 81, 70
2, 559672, Note_off_c, 0, 81, 0
2, 559680, Note_on_c, 0, 83, 70
2, 559720, Note_off_c, 0, 83, 0
2, 559728, Note_on_c, 0, 81, 70
2, 559768, Note_off_c, 0, 81, 0
2, 559776, Note_on_c, 0, 83, 70
2, 559816, Note_off_c, 0, 83, 0
2, 559824, Note_on_c, 0, 81, 70
2, 559864, Note_off_c, 0, 81, 0
2, 559872, Note_on_c, 0, 83, 70
2, 559912, Note_off_c, 0, 83, 0
2, 559920, Note_on_c, 0, 81, 70
2, 559960, Note_off_c, 0, 81, 0
2, 559968, Note_on_c, 0, 83, 70
2, 560008, Note_off_c, 0, 83, 0
2, 560016, Note_on_c, 0, 81, 70
2, 560056, Note_off_c, 0, 81, 0
2, 560064, Note_on_c, 0, 83, 70
2, 560104, Note_off_c, 0, 83, 0
2, 560112, Note_on_c, 0, 81, 70
2, 560152, Note_off_c, 0, 81, 0
2, 560160, Note_on_c, 0, 83, 70
2, 560200, Note_off_c, 0, 83, 0
2, 560208, Note_on_c, 0, 81, 70
2, 560248, Note_off_c, 0, 81, 0
2, 560256, Note_on_c, 0, 83, 70
2, 560296, Note_off_c, 0, 83, 0
2, 560304, Note_on_c, 0, 81, 70
2, 560344, Note_off_c, 0, 81, 0
2, 560352, Note_on_c, 0, 83, 70
2, 560392, Note_off_c, 0, 83, 0
2, 560400, Note_on_c, 0, 81, 70
2, 560440, Note_off_c, 0, 81, 0
2, 560448, Note_on_c, 0, 83, 70
2, 560488, Note_off_c, 0, 83, 0
2, 560496, Note_on_c, 0, 81, 70
2, 560536, Note_off_c, 0, 81, 0
2, 560544, Note_on_c, 0, 83, 70
2, 560584, Note_off_c, 0, 83, 0
2, 560592, Note_on_c, 0, 81, 70
2, 560632, Note_off_c, 0, 81, 0
2, 560640, Note_on_c, 0, 83, 70
2, 560640, Note_on_c, 0, 72, 66
2, 560640, Note_on_c, 0, 66, 66
2, 560640, Note_on_c, 0, 62, 66
2, 560680, Note_off_c, 0, 83, 0
2, 560688, Note_on_c, 0, 81, 70
2, 560728, Note_off_c, 0, 81, 0
2, 560736, Note_on_c, 0, 83, 70
2, 560776, Note_off_c, 0, 83, 0
2, 560784, Note_on_c, 0, 81, 70
2, 560824, Note_off_c, 0, 81, 0
2, 560832, Note_on_c, 0, 83, 70
2, 560872, Note_off_c, 0, 83, 0
2, 560880, Note_on_c, 0, 81, 70
2, 560920, Note_off_c, 0, 81, 0
2, 560928, Note_on_c, 0, 83, 70
2, 560968, Note_off_c, 0, 83, 0
2, 560976, Note_on_c, 0, 81, 70
2, 561016, Note_off_c, 0, 81, 0
2, 561024, Note_on_c, 0, 83, 70
2, 561064, Note_off_c, 0, 83, 0
2, 561072, Note_on_c, 0, 81, 70
2, 561112, Note_off_c, 0, 81, 0
2, 561120, Note_on_c, 0, 83, 70
2, 561160, Note_off_c, 0, 83, 0
2, 561168, Note_on_c, 0, 81, 70
2, 561208, Note_off_c, 0, 81, 0
2, 561216, Note_on_c, 0, 83, 70
2, 561256, Note_off_c, 0, 83, 0
2, 561264, Note_on_c, 0, 81, 70
2, 561304, Note_off_c, 0, 81, 0
2, 561312, Note_on_c, 0, 83, 70
2, 561352, Note_off_c, 0, 83, 0
2, 561360, Note_on_c, 0, 81, 70
2, 561400, Note_off_c, 0, 81, 0
2, 561408, Note_on_c, 0, 83, 70
2, 561448, Note_off_c, 0, 83, 0
2, 561456, Note_on_c, 0, 81, 70
2, 561496, Note_off_c, 0, 81, 0
2, 561504, Note_on_c, 0, 83, 70
2, 561544, Note_off_c, 0, 83, 0
2, 561552, Note_on_c, 0, 81, 70
2, 561592, Note_off_c, 0, 81, 0
2, 561600, Note_on_c, 0, 83, 70
2, 561640, Note_off_c, 0, 83, 0
2, 561648, Note_on_c, 0, 81, 70
2, 561688, Note_off_c, 0, 81, 0
2, 561696, Note_on_c, 0, 83, 70
2, 561736, Note_off_c, 0, 83, 0
2, 561744, Note_on_c, 0, 81, 70
2, 561784, Note_off_c, 0, 81, 0
2, 561792, Note_on_c, 0, 83, 70
2, 561832, Note_off_c, 0, 83, 0
2, 561840, Note_on_c, 0, 81, 70
2, 561880, Note_off_c, 0, 81, 0
2, 561888, Note_on_c, 0, 83, 70
2, 561928, Note_off_c, 0, 83, 0
2, 561936, Note_on_c, 0, 81, 70
2, 561976, Note_off_c, 0, 81, 0
2, 561984, Note_on_c, 0, 79, 70
2, 562072, Note_off_c, 0, 79, 0
2, 562080, Note_on_c, 0, 81, 70
2, 562168, Note_off_c, 0, 72, 0
2, 562168, Note_off_c, 0, 66, 0
2, 562168, Note_off_c, 0, 62, 0
2, 562168, Note_off_c, 0, 81, 0
2, 562176, Note_on_c, 0, 79, 70
2, 562176, Note_on_c, 0, 71, 70
2, 562176, Note_on_c, 0, 67, 70
2, 562556, Note_off_c, 0, 79, 0
2, 562556, Note_off_c, 0, 71, 0
2, 562556, Note_off_c, 0, 67, 0
2, 562556, End_track
3, 0, Start_track
3, 0, Title_t, "Concerto  #17"
3, 0, Control_c, 1, 0, 0
3, 0, Program_c, 1, 0
3, 0, Control_c, 1, 7, 127
3, 0, Control_c, 1, 10, 63
3, 0, Control_c, 1, 91, 66
3, 0, Control_c, 1, 93, 34
3, 0, Key_signature, 1, "major"
3, 0, Control_c, 1, 121, 0
3, 384, Control_c, 1, 10, 63
3, 480, Control_c, 1, 91, 63
3, 576, Control_c, 1, 93, 35
3, 672, Program_c, 1, 0
3, 116736, Note_on_c, 1, 55, 66
3, 116924, Note_off_c, 1, 55, 0
3, 116928, Note_on_c, 1, 62, 66
3, 117116, Note_off_c, 1, 62, 0
3, 117120, Note_on_c, 1, 59, 66
3, 117308, Note_off_c, 1, 59, 0
3, 117312, Note_on_c, 1, 62, 66
3, 117500, Note_off_c, 1, 62, 0
3, 117504, Note_on_c, 1, 55, 66
3, 117692, Note_off_c, 1, 55, 0
3, 117696, Note_on_c, 1, 62, 66
3, 117884, Note_off_c, 1, 62, 0
3, 117888, Note_on_c, 1, 59, 66
3, 118076, Note_off_c, 1, 59, 0
3, 118080, Note_on_c, 1, 62, 66
3, 118268, Note_off_c, 1, 62, 0
3, 118272, Note_on_c, 1, 55, 66
3, 118460, Note_off_c, 1, 55, 0
3, 118464, Note_on_c, 1, 62, 66
3, 118652, Note_off_c, 1, 62, 0
3, 118656, Note_on_c, 1, 59, 66
3, 118844, Note_off_c, 1, 59, 0
3, 118848, Note_on_c, 1, 62, 66
3, 119036, Note_off_c, 1, 62, 0
3, 119040, Note_on_c, 1, 55, 66
3, 119228, Note_off_c, 1, 55, 0
3, 119232, Note_on_c, 1, 62, 66
3, 119420, Note_off_c, 1, 62, 0
3, 119424, Note_on_c, 1, 59, 66
3, 119612, Note_off_c, 1, 59, 0
3, 119616, Note_on_c, 1, 62, 66
3, 119804, Note_off_c, 1, 62, 0
3, 119808, Note_on_c, 1, 55, 66
3, 119996, Note_off_c, 1, 55, 0
3, 120000, Note_on_c, 1, 64, 66
3, 120188, Note_off_c, 1, 64, 0
3, 120192, Note_on_c, 1, 60, 66
3, 120380, Note_off_c, 1, 60, 0
3, 120384, Note_on_c, 1, 64, 66
3, 120572, Note_off_c, 1, 64, 0
3, 120576, Note_on_c, 1, 55, 66
3, 120764, Note_off_c, 1, 55, 0
3, 120768, Note_on_c, 1, 64, 66
3, 120956, Note_off_c, 1, 64, 0
3, 120960, Note_on_c, 1, 60, 66
3, 121148, Note_off_c, 1, 60, 0
3, 121152, Note_on_c, 1, 64, 66
3, 121340, Note_off_c, 1, 64, 0
3, 121344, Note_on_c, 1, 55, 66
3, 121532, Note_off_c, 1, 55, 0
3, 121536, Note_on_c, 1, 64, 66
3, 121724, Note_off_c, 1, 64, 0
3, 121728, Note_on_c, 1, 60, 66
3, 121916, Note_off_c, 1, 60, 0
3, 121920, Note_on_c, 1, 64, 66
3, 122108, Note_off_c, 1, 64, 0
3, 122112, Note_on_c, 1, 55, 66
3, 122300, Note_off_c, 1, 55, 0
3, 122304, Note_on_c, 1, 64, 66
3, 122492, Note_off_c, 1, 64, 0
3, 122496, Note_on_c, 1, 60, 66
3, 122684, Note_off_c, 1, 60, 0
3, 122688, Note_on_c, 1, 64, 66
3, 122876, Note_off_c, 1, 64, 0
3, 122880, Note_on_c, 1, 55, 66
3, 123068, Note_off_c, 1, 55, 0
3, 123072, Note_on_c, 1, 64, 66
3, 123260, Note_off_c, 1, 64, 0
3, 123264, Note_on_c, 1, 60, 66
3, 123452, Note_off_c, 1, 60, 0
3, 123456, Note_on_c, 1, 64, 66
3, 123644, Note_off_c, 1, 64, 0
3, 123648, Note_on_c, 1, 55, 66
3, 123836, Note_off_c, 1, 55, 0
3, 123840, Note_on_c, 1, 64, 66
3, 124028, Note_off_c, 1, 64, 0
3, 124032, Note_on_c, 1, 60, 66
3, 124220, Note_off_c, 1, 60, 0
3, 124224, Note_on_c, 1, 64, 66
3, 124412, Note_off_c, 1, 64, 0
3, 124416, Note_on_c, 1, 55, 66
3, 124604, Note_off_c, 1, 55, 0
3, 124608, Note_on_c, 1, 64, 66
3, 124796, Note_off_c, 1, 64, 0
3, 124800, Note_on_c, 1, 60, 66
3, 124988, Note_off_c, 1, 60, 0
3, 124992, Note_on_c, 1, 64, 66
3, 125180, Note_off_c, 1, 64, 0
3, 125184, Note_on_c, 1, 55, 66
3, 125372, Note_off_c, 1, 55, 0
3, 125376, Note_on_c, 1, 64, 66
3, 125564, Note_off_c, 1, 64, 0
3, 125568, Note_on_c, 1, 60, 66
3, 125756, Note_off_c, 1, 60, 0
3, 125760, Note_on_c, 1, 64, 66
3, 125948, Note_off_c, 1, 64, 0
3, 125952, Note_on_c, 1, 55, 66
3, 126140, Note_off_c, 1, 55, 0
3, 126144, Note_on_c, 1, 62, 66
3, 126332, Note_off_c, 1, 62, 0
3, 126336, Note_on_c, 1, 59, 66
3, 126524, Note_off_c, 1, 59, 0
3, 126528, Note_on_c, 1, 62, 66
3, 126716, Note_off_c, 1, 62, 0
3, 126720, Note_on_c, 1, 55, 66
3, 126908, Note_off_c, 1, 55, 0
3, 126912, Note_on_c, 1, 62, 66
3, 127100, Note_off_c, 1, 62, 0
3, 127104, Note_on_c, 1, 59, 66
3, 127292, Note_off_c, 1, 59, 0
3, 127296, Note_on_c, 1, 62, 66
3, 127484, Note_off_c, 1, 62, 0
3, 127488, Note_on_c, 1, 55, 66
3, 127676, Note_off_c, 1, 55, 0
3, 127872, Note_on_c, 1, 50, 66
3, 127872, Note_on_c, 1, 47, 66
3, 128252, Note_off_c, 1, 50, 0
3, 128252, Note_off_c, 1, 47, 0
3, 128256, Note_on_c, 1, 52, 66
3, 128256, Note_on_c, 1, 48, 66
3, 128636, Note_off_c, 1, 52, 0
3, 128636, Note_off_c, 1, 48, 0
3, 128640, Note_on_c, 1, 54, 66
3, 128640, Note_on_c, 1, 50, 66
3, 129020, Note_off_c, 1, 54, 0
3, 129020, Note_off_c, 1, 50, 0
3, 129024, Note_on_c, 1, 60, 71
3, 129024, Note_on_c, 1, 57, 71
3, 129024, Note_on_c, 1, 54, 71
3, 129024, Note_on_c, 1, 50, 71
3, 129788, Note_off_c, 1, 60, 0
3, 129788, Note_off_c, 1, 57, 0
3, 129788, Note_off_c, 1, 54, 0
3, 129788, Note_off_c, 1, 50, 0
3, 129792, Note_on_c, 1, 60, 52
3, 129792, Note_on_c, 1, 57, 52
3, 129792, Note_on_c, 1, 54, 52
3, 129792, Note_on_c, 1, 50, 52
3, 130172, Note_off_c, 1, 60, 0
3, 130172, Note_off_c, 1, 57, 0
3, 130172, Note_off_c, 1, 54, 0
3, 130172, Note_off_c, 1, 50, 0
3, 132096, Note_on_c, 1, 60, 71
3, 132096, Note_on_c, 1, 57, 71
3, 132096, Note_on_c, 1, 54, 71
3, 132096, Note_on_c, 1, 50, 71
3, 132860, Note_off_c, 1, 60, 0
3, 132860, Note_off_c, 1, 57, 0
3, 132860, Note_off_c, 1, 54, 0
3, 132860, Note_off_c, 1, 50, 0
3, 132864, Note_on_c, 1, 60, 52
3, 132864, Note_on_c, 1, 57, 52
3, 132864, Note_on_c, 1, 54, 52
3, 132864, Note_on_c, 1, 50, 52
3, 133244, Note_off_c, 1, 60, 0
3, 133244, Note_off_c, 1, 57, 0
3, 133244, Note_off_c, 1, 54, 0
3, 133244, Note_off_c, 1, 50, 0
3, 134016, Note_on_c, 1, 57, 52
3, 134016, Note_on_c, 1, 54, 52
3, 134396, Note_off_c, 1, 57, 0
3, 134396, Note_off_c, 1, 54, 0
3, 134400, Note_on_c, 1, 57, 52
3, 134400, Note_on_c, 1, 54, 52
3, 134780, Note_off_c, 1, 57, 0
3, 134780, Note_off_c, 1, 54, 0
3, 134784, Note_on_c, 1, 57, 52
3, 134784, Note_on_c, 1, 54, 52
3, 135164, Note_off_c, 1, 57, 0
3, 135164, Note_off_c, 1, 54, 0
3, 135552, Note_on_c, 1, 59, 66
3, 135552, Note_on_c, 1, 55, 66
3, 135932, Note_off_c, 1, 59, 0
3, 135932, Note_off_c, 1, 55, 0
3, 135936, Note_on_c, 1, 59, 66
3, 135936, Note_on_c, 1, 55, 66
3, 136316, Note_off_c, 1, 59, 0
3, 136316, Note_off_c, 1, 55, 0
3, 136320, Note_on_c, 1, 59, 66
3, 136320, Note_on_c, 1, 55, 66
3, 136700, Note_off_c, 1, 59, 0
3, 136700, Note_off_c, 1, 55, 0
3, 136704, Note_on_c, 1, 48, 66
3, 137468, Note_off_c, 1, 48, 0
3, 137472, Note_on_c, 1, 50, 66
3, 138236, Note_off_c, 1, 50, 0
3, 138240, Note_on_c, 1, 43, 66
3, 138620, Note_off_c, 1, 43, 0
3, 139776, Note_on_c, 1, 60, 66
3, 139776, Note_on_c, 1, 57, 66
3, 139776, Note_on_c, 1, 54, 66
3, 141308, Note_off_c, 1, 60, 0
3, 141308, Note_off_c, 1, 57, 0
3, 141308, Note_off_c, 1, 54, 0
3, 141312, Note_on_c, 1, 59, 66
3, 141312, Note_on_c, 1, 55, 66
3, 142844, Note_off_c, 1, 59, 0
3, 142844, Note_off_c, 1, 55, 0
3, 142848, Note_on_c, 1, 48, 66
3, 143612, Note_off_c, 1, 48, 0
3, 143616, Note_on_c, 1, 50, 66
3, 144380, Note_off_c, 1, 50, 0
3, 144384, Note_on_c, 1, 43, 52
3, 144764, Note_off_c, 1, 43, 0
3, 148992, Note_on_c, 1, 55, 52
3, 149084, Note_off_c, 1, 55, 0
3, 149088, Note_on_c, 1, 62, 52
3, 149180, Note_off_c, 1, 62, 0
3, 149184, Note_on_c, 1, 59, 52
3, 149276, Note_off_c, 1, 59, 0
3, 149280, Note_on_c, 1, 62, 52
3, 149372, Note_off_c, 1, 62, 0
3, 149376, Note_on_c, 1, 55, 52
3, 149468, Note_off_c, 1, 55, 0
3, 149472, Note_on_c, 1, 62, 52
3, 149564, Note_off_c, 1, 62, 0
3, 149568, Note_on_c, 1, 59, 52
3, 149660, Note_off_c, 1, 59, 0
3, 149664, Note_on_c, 1, 62, 52
3, 149756, Note_off_c, 1, 62, 0
3, 149760, Note_on_c, 1, 55, 52
3, 149852, Note_off_c, 1, 55, 0
3, 149856, Note_on_c, 1, 62, 52
3, 149948, Note_off_c, 1, 62, 0
3, 149952, Note_on_c, 1, 59, 52
3, 150044, Note_off_c, 1, 59, 0
3, 150048, Note_on_c, 1, 62, 52
3, 150140, Note_off_c, 1, 62, 0
3, 150144, Note_on_c, 1, 55, 52
3, 150236, Note_off_c, 1, 55, 0
3, 150240, Note_on_c, 1, 67, 52
3, 150332, Note_off_c, 1, 67, 0
3, 150336, Note_on_c, 1, 59, 52
3, 150428, Note_off_c, 1, 59, 0
3, 150432, Note_on_c, 1, 67, 52
3, 150524, Note_off_c, 1, 67, 0
3, 150528, Note_on_c, 1, 55, 66
3, 150620, Note_off_c, 1, 55, 0
3, 150624, Note_on_c, 1, 66, 66
3, 150716, Note_off_c, 1, 66, 0
3, 150720, Note_on_c, 1, 60, 66
3, 150812, Note_off_c, 1, 60, 0
3, 150816, Note_on_c, 1, 66, 66
3, 150908, Note_off_c, 1, 66, 0
3, 150912, Note_on_c, 1, 55, 66
3, 151004, Note_off_c, 1, 55, 0
3, 151008, Note_on_c, 1, 66, 66
3, 151100, Note_off_c, 1, 66, 0
3, 151104, Note_on_c, 1, 60, 66
3, 151196, Note_off_c, 1, 60, 0
3, 151200, Note_on_c, 1, 66, 66
3, 151292, Note_off_c, 1, 66, 0
3, 151296, Note_on_c, 1, 55, 66
3, 151388, Note_off_c, 1, 55, 0
3, 151392, Note_on_c, 1, 66, 66
3, 151484, Note_off_c, 1, 66, 0
3, 151488, Note_on_c, 1, 60, 66
3, 151580, Note_off_c, 1, 60, 0
3, 151584, Note_on_c, 1, 66, 66
3, 151676, Note_off_c, 1, 66, 0
3, 151680, Note_on_c, 1, 55, 66
3, 151772, Note_off_c, 1, 55, 0
3, 151776, Note_on_c, 1, 65, 66
3, 151868, Note_off_c, 1, 65, 0
3, 151872, Note_on_c, 1, 62, 66
3, 151964, Note_off_c, 1, 62, 0
3, 151968, Note_on_c, 1, 65, 66
3, 152060, Note_off_c, 1, 65, 0
3, 152064, Note_on_c, 1, 55, 66
3, 152156, Note_off_c, 1, 55, 0
3, 152160, Note_on_c, 1, 64, 66
3, 152252, Note_off_c, 1, 64, 0
3, 152256, Note_on_c, 1, 60, 66
3, 152348, Note_off_c, 1, 60, 0
3, 152352, Note_on_c, 1, 64, 66
3, 152444, Note_off_c, 1, 64, 0
3, 152448, Note_on_c, 1, 55, 66
3, 152540, Note_off_c, 1, 55, 0
3, 152544, Note_on_c, 1, 64, 66
3, 152636, Note_off_c, 1, 64, 0
3, 152640, Note_on_c, 1, 60, 66
3, 152732, Note_off_c, 1, 60, 0
3, 152736, Note_on_c, 1, 64, 66
3, 152828, Note_off_c, 1, 64, 0
3, 152832, Note_on_c, 1, 55, 66
3, 152924, Note_off_c, 1, 55, 0
3, 152928, Note_on_c, 1, 60, 66
3, 153020, Note_off_c, 1, 60, 0
3, 153024, Note_on_c, 1, 57, 66
3, 153116, Note_off_c, 1, 57, 0
3, 153152, Note_on_c, 1, 60, 66
3, 153216, Note_on_c, 1, 55, 66
3, 153244, Note_off_c, 1, 60, 0
3, 153308, Note_off_c, 1, 55, 0
3, 153312, Note_on_c, 1, 60, 66
3, 153404, Note_off_c, 1, 60, 0
3, 153408, Note_on_c, 1, 57, 66
3, 153500, Note_off_c, 1, 57, 0
3, 153504, Note_on_c, 1, 60, 66
3, 153596, Note_off_c, 1, 60, 0
3, 153600, Note_on_c, 1, 59, 66
3, 153600, Note_on_c, 1, 55, 66
3, 155132, Note_off_c, 1, 59, 0
3, 155132, Note_off_c, 1, 55, 0
3, 155136, Note_on_c, 1, 62, 66
3, 155136, Note_on_c, 1, 61, 66
3, 155136, Note_on_c, 1, 57, 66
3, 155136, Note_on_c, 1, 54, 66
3, 156668, Note_off_c, 1, 62, 0
3, 156668, Note_off_c, 1, 61, 0
3, 156668, Note_off_c, 1, 57, 0
3, 156668, Note_off_c, 1, 54, 0
3, 156672, Note_on_c, 1, 64, 66
3, 156672, Note_on_c, 1, 59, 66
3, 156672, Note_on_c, 1, 55, 66
3, 156672, Note_on_c, 1, 52, 66
3, 158204, Note_off_c, 1, 64, 0
3, 158204, Note_off_c, 1, 59, 0
3, 158204, Note_off_c, 1, 55, 0
3, 158204, Note_off_c, 1, 52, 0
3, 158208, Note_on_c, 1, 67, 66
3, 158208, Note_on_c, 1, 64, 66
3, 158208, Note_on_c, 1, 61, 66
3, 158208, Note_on_c, 1, 57, 66
3, 159740, Note_off_c, 1, 67, 0
3, 159740, Note_off_c, 1, 64, 0
3, 159740, Note_off_c, 1, 61, 0
3, 159740, Note_off_c, 1, 57, 0
3, 159744, Note_on_c, 1, 62, 66
3, 159744, Note_on_c, 1, 57, 66
3, 159744, Note_on_c, 1, 54, 66
3, 159744, Note_on_c, 1, 50, 66
3, 161276, Note_off_c, 1, 62, 0
3, 161276, Note_off_c, 1, 57, 0
3, 161276, Note_off_c, 1, 54, 0
3, 161276, Note_off_c, 1, 50, 0
3, 161280, Note_on_c, 1, 64, 66
3, 161280, Note_on_c, 1, 59, 66
3, 161280, Note_on_c, 1, 55, 66
3, 162812, Note_off_c, 1, 64, 0
3, 162812, Note_off_c, 1, 59, 0
3, 162812, Note_off_c, 1, 55, 0
3, 162816, Note_on_c, 1, 64, 66
3, 162816, Note_on_c, 1, 61, 66
3, 162816, Note_on_c, 1, 57, 66
3, 163580, Note_off_c, 1, 64, 0
3, 163580, Note_off_c, 1, 61, 0
3, 163580, Note_off_c, 1, 57, 0
3, 163584, Note_on_c, 1, 64, 66
3, 163584, Note_on_c, 1, 62, 66
3, 163584, Note_on_c, 1, 59, 66
3, 164348, Note_off_c, 1, 64, 0
3, 164348, Note_off_c, 1, 62, 0
3, 164348, Note_off_c, 1, 59, 0
3, 164352, Note_on_c, 1, 64, 66
3, 164352, Note_on_c, 1, 61, 66
3, 164352, Note_on_c, 1, 57, 66
3, 165116, Note_off_c, 1, 64, 0
3, 165116, Note_off_c, 1, 61, 0
3, 165116, Note_off_c, 1, 57, 0
3, 165120, Note_on_c, 1, 64, 66
3, 165120, Note_on_c, 1, 62, 66
3, 165120, Note_on_c, 1, 59, 66
3, 165884, Note_off_c, 1, 64, 0
3, 165884, Note_off_c, 1, 62, 0
3, 165884, Note_off_c, 1, 59, 0
3, 165888, Note_on_c, 1, 64, 66
3, 165888, Note_on_c, 1, 61, 66
3, 165888, Note_on_c, 1, 57, 66
3, 166268, Note_off_c, 1, 64, 0
3, 166268, Note_off_c, 1, 61, 0
3, 166268, Note_off_c, 1, 57, 0
3, 171648, Note_on_c, 1, 62, 66
3, 171648, Note_on_c, 1, 60, 66
3, 172028, Note_off_c, 1, 62, 0
3, 172028, Note_off_c, 1, 60, 0
3, 172032, Note_on_c, 1, 59, 66
3, 172032, Note_on_c, 1, 62, 66
3, 172412, Note_off_c, 1, 59, 0
3, 172412, Note_off_c, 1, 62, 0
3, 173184, Note_on_c, 1, 59, 66
3, 173184, Note_on_c, 1, 56, 66
3, 173564, Note_off_c, 1, 59, 0
3, 173564, Note_off_c, 1, 56, 0
3, 173568, Note_on_c, 1, 57, 66
3, 173568, Note_on_c, 1, 64, 66
3, 173948, Note_off_c, 1, 57, 0
3, 173952, Note_on_c, 1, 55, 66
3, 174332, Note_off_c, 1, 64, 0
3, 174332, Note_off_c, 1, 55, 0
3, 174336, Note_on_c, 1, 57, 66
3, 174336, Note_on_c, 1, 54, 66
3, 174716, Note_off_c, 1, 57, 0
3, 174716, Note_off_c, 1, 54, 0
3, 174720, Note_on_c, 1, 57, 66
3, 174720, Note_on_c, 1, 64, 66
3, 175100, Note_off_c, 1, 57, 0
3, 175100, Note_off_c, 1, 64, 0
3, 175104, Note_on_c, 1, 66, 66
3, 175104, Note_on_c, 1, 62, 66
3, 175484, Note_off_c, 1, 66, 0
3, 175484, Note_off_c, 1, 62, 0
3, 175488, Note_on_c, 1, 64, 66
3, 175488, Note_on_c, 1, 57, 66
3, 175868, Note_off_c, 1, 64, 0
3, 175868, Note_off_c, 1, 57, 0
3, 175872, Note_on_c, 1, 62, 66
3, 175872, Note_on_c, 1, 54, 66
3, 176252, Note_off_c, 1, 62, 0
3, 176252, Note_off_c, 1, 54, 0
3, 176256, Note_on_c, 1, 64, 44
3, 176256, Note_on_c, 1, 57, 44
3, 176636, Note_off_c, 1, 64, 0
3, 176636, Note_off_c, 1, 57, 0
3, 176640, Note_on_c, 1, 62, 44
3, 176640, Note_on_c, 1, 66, 44
3, 177020, Note_off_c, 1, 62, 0
3, 177020, Note_off_c, 1, 66, 0
3, 177024, Note_on_c, 1, 64, 44
3, 177024, Note_on_c, 1, 57, 44
3, 177404, Note_off_c, 1, 64, 0
3, 177404, Note_off_c, 1, 57, 0
3, 177408, Note_on_c, 1, 62, 44
3, 177408, Note_on_c, 1, 54, 44
3, 177788, Note_off_c, 1, 62, 0
3, 177788, Note_off_c, 1, 54, 0
3, 177792, Note_on_c, 1, 64, 66
3, 177792, Note_on_c, 1, 57, 66
3, 178172, Note_off_c, 1, 64, 0
3, 178172, Note_off_c, 1, 57, 0
3, 178176, Note_on_c, 1, 66, 66
3, 178176, Note_on_c, 1, 62, 66
3, 178556, Note_off_c, 1, 66, 0
3, 178556, Note_off_c, 1, 62, 0
3, 178944, Note_on_c, 1, 67, 66
3, 178944, Note_on_c, 1, 62, 66
3, 178944, Note_on_c, 1, 59, 66
3, 179324, Note_off_c, 1, 67, 0
3, 179324, Note_off_c, 1, 62, 0
3, 179324, Note_off_c, 1, 59, 0
3, 179712, Note_on_c, 1, 62, 66
3, 179712, Note_on_c, 1, 57, 66
3, 180476, Note_off_c, 1, 62, 0
3, 180476, Note_off_c, 1, 57, 0
3, 180480, Note_on_c, 1, 61, 66
3, 180480, Note_on_c, 1, 57, 66
3, 180860, Note_off_c, 1, 61, 0
3, 180860, Note_off_c, 1, 57, 0
3, 183936, Note_on_c, 1, 62, 66
3, 183936, Note_on_c, 1, 60, 66
3, 184316, Note_off_c, 1, 62, 0
3, 184316, Note_off_c, 1, 60, 0
3, 184320, Note_on_c, 1, 62, 66
3, 184320, Note_on_c, 1, 59, 66
3, 184700, Note_off_c, 1, 62, 0
3, 184700, Note_off_c, 1, 59, 0
3, 185472, Note_on_c, 1, 59, 66
3, 185472, Note_on_c, 1, 56, 66
3, 185852, Note_off_c, 1, 59, 0
3, 185852, Note_off_c, 1, 56, 0
3, 185856, Note_on_c, 1, 64, 66
3, 185856, Note_on_c, 1, 57, 66
3, 186236, Note_off_c, 1, 57, 0
3, 186240, Note_on_c, 1, 55, 66
3, 186620, Note_off_c, 1, 64, 0
3, 186620, Note_off_c, 1, 55, 0
3, 186624, Note_on_c, 1, 57, 66
3, 186624, Note_on_c, 1, 54, 66
3, 187004, Note_off_c, 1, 57, 0
3, 187004, Note_off_c, 1, 54, 0
3, 190464, Note_on_c, 1, 62, 79
3, 190652, Note_off_c, 1, 62, 0
3, 190848, Note_on_c, 1, 57, 79
3, 191036, Note_off_c, 1, 57, 0
3, 191232, Note_on_c, 1, 54, 79
3, 191420, Note_off_c, 1, 54, 0
3, 191616, Note_on_c, 1, 57, 79
3, 191804, Note_off_c, 1, 57, 0
3, 192000, Note_on_c, 1, 62, 66
3, 192188, Note_off_c, 1, 62, 0
3, 192384, Note_on_c, 1, 57, 66
3, 192572, Note_off_c, 1, 57, 0
3, 192768, Note_on_c, 1, 54, 66
3, 192956, Note_off_c, 1, 54, 0
3, 193152, Note_on_c, 1, 57, 66
3, 193340, Note_off_c, 1, 57, 0
3, 193536, Note_on_c, 1, 62, 79
3, 193536, Note_on_c, 1, 50, 79
3, 195068, Note_off_c, 1, 62, 0
3, 195068, Note_off_c, 1, 50, 0
3, 195072, Note_on_c, 1, 55, 79
3, 195072, Note_on_c, 1, 43, 79
3, 196604, Note_off_c, 1, 55, 0
3, 196604, Note_off_c, 1, 43, 0
3, 196608, Note_on_c, 1, 48, 79
3, 198140, Note_off_c, 1, 48, 0
3, 198144, Note_on_c, 1, 41, 79
3, 198144, Note_on_c, 1, 29, 79
3, 199676, Note_off_c, 1, 41, 0
3, 199676, Note_off_c, 1, 29, 0
3, 199680, Note_on_c, 1, 46, 79
3, 199680, Note_on_c, 1, 34, 79
3, 200060, Note_off_c, 1, 46, 0
3, 200060, Note_off_c, 1, 34, 0
3, 200448, Note_on_c, 1, 52, 79
3, 200448, Note_on_c, 1, 40, 79
3, 200828, Note_off_c, 1, 52, 0
3, 200828, Note_off_c, 1, 40, 0
3, 201216, Note_on_c, 1, 45, 79
3, 201216, Note_on_c, 1, 33, 79
3, 201596, Note_off_c, 1, 45, 0
3, 201596, Note_off_c, 1, 33, 0
3, 201984, Note_on_c, 1, 50, 79
3, 201984, Note_on_c, 1, 38, 79
3, 202364, Note_off_c, 1, 50, 0
3, 202364, Note_off_c, 1, 38, 0
3, 202752, Note_on_c, 1, 55, 79
3, 202752, Note_on_c, 1, 43, 79
3, 203132, Note_off_c, 1, 55, 0
3, 203132, Note_off_c, 1, 43, 0
3, 203520, Note_on_c, 1, 56, 79
3, 203520, Note_on_c, 1, 44, 79
3, 203900, Note_off_c, 1, 56, 0
3, 203900, Note_off_c, 1, 44, 0
3, 204288, Note_on_c, 1, 45, 79
3, 204380, Note_off_c, 1, 45, 0
3, 204480, Note_on_c, 1, 57, 79
3, 204572, Note_off_c, 1, 57, 0
3, 204672, Note_on_c, 1, 61, 79
3, 204764, Note_off_c, 1, 61, 0
3, 204864, Note_on_c, 1, 64, 79
3, 204956, Note_off_c, 1, 64, 0
3, 215808, Note_on_c, 1, 57, 66
3, 215996, Note_off_c, 1, 57, 0
3, 216000, Note_on_c, 1, 63, 66
3, 216188, Note_off_c, 1, 63, 0
3, 216192, Note_on_c, 1, 59, 66
3, 216380, Note_off_c, 1, 59, 0
3, 216384, Note_on_c, 1, 63, 66
3, 216572, Note_off_c, 1, 63, 0
3, 216576, Note_on_c, 1, 55, 66
3, 216764, Note_off_c, 1, 55, 0
3, 216768, Note_on_c, 1, 64, 66
3, 216956, Note_off_c, 1, 64, 0
3, 216960, Note_on_c, 1, 59, 66
3, 217148, Note_off_c, 1, 59, 0
3, 217152, Note_on_c, 1, 64, 66
3, 217340, Note_off_c, 1, 64, 0
3, 217344, Note_on_c, 1, 54, 66
3, 217532, Note_off_c, 1, 54, 0
3, 217536, Note_on_c, 1, 63, 66
3, 217724, Note_off_c, 1, 63, 0
3, 217728, Note_on_c, 1, 57, 66
3, 217916, Note_off_c, 1, 57, 0
3, 217920, Note_on_c, 1, 63, 66
3, 218108, Note_off_c, 1, 63, 0
3, 218112, Note_on_c, 1, 52, 66
3, 218300, Note_off_c, 1, 52, 0
3, 218304, Note_on_c, 1, 64, 66
3, 218492, Note_off_c, 1, 64, 0
3, 218496, Note_on_c, 1, 55, 66
3, 218684, Note_off_c, 1, 55, 0
3, 218688, Note_on_c, 1, 64, 66
3, 218876, Note_off_c, 1, 64, 0
3, 218880, Note_on_c, 1, 50, 66
3, 219068, Note_off_c, 1, 50, 0
3, 219072, Note_on_c, 1, 56, 66
3, 219260, Note_off_c, 1, 56, 0
3, 219264, Note_on_c, 1, 52, 66
3, 219452, Note_off_c, 1, 52, 0
3, 219456, Note_on_c, 1, 56, 66
3, 219644, Note_off_c, 1, 56, 0
3, 219648, Note_on_c, 1, 49, 66
3, 219836, Note_off_c, 1, 49, 0
3, 219840, Note_on_c, 1, 57, 66
3, 220028, Note_off_c, 1, 57, 0
3, 220032, Note_on_c, 1, 52, 66
3, 220220, Note_off_c, 1, 52, 0
3, 220224, Note_on_c, 1, 57, 66
3, 220412, Note_off_c, 1, 57, 0
3, 220416, Note_on_c, 1, 47, 66
3, 220604, Note_off_c, 1, 47, 0
3, 220608, Note_on_c, 1, 56, 66
3, 220796, Note_off_c, 1, 56, 0
3, 220800, Note_on_c, 1, 52, 66
3, 220988, Note_off_c, 1, 52, 0
3, 220992, Note_on_c, 1, 56, 66
3, 221180, Note_off_c, 1, 56, 0
3, 221184, Note_on_c, 1, 57, 66
3, 221184, Note_on_c, 1, 45, 66
3, 221564, Note_off_c, 1, 57, 0
3, 221564, Note_off_c, 1, 45, 0
3, 222336, Note_on_c, 1, 52, 66
3, 222336, Note_on_c, 1, 49, 66
3, 222716, Note_off_c, 1, 52, 0
3, 222716, Note_off_c, 1, 49, 0
3, 222720, Note_on_c, 1, 57, 66
3, 222720, Note_on_c, 1, 50, 66
3, 223100, Note_off_c, 1, 57, 0
3, 223100, Note_off_c, 1, 50, 0
3, 223104, Note_on_c, 1, 55, 66
3, 223104, Note_on_c, 1, 43, 66
3, 223484, Note_off_c, 1, 55, 0
3, 223484, Note_off_c, 1, 43, 0
3, 223488, Note_on_c, 1, 54, 66
3, 223488, Note_on_c, 1, 45, 66
3, 223868, Note_off_c, 1, 54, 0
3, 223872, Note_on_c, 1, 52, 66
3, 224252, Note_off_c, 1, 45, 0
3, 224252, Note_off_c, 1, 52, 0
3, 224256, Note_on_c, 1, 50, 66
3, 225020, Note_off_c, 1, 50, 0
3, 226560, Note_on_c, 1, 63, 66
3, 226560, Note_on_c, 1, 59, 66
3, 226560, Note_on_c, 1, 57, 66
3, 227324, Note_off_c, 1, 63, 0
3, 227324, Note_off_c, 1, 59, 0
3, 227324, Note_off_c, 1, 57, 0
3, 229632, Note_on_c, 1, 56, 66
3, 229632, Note_on_c, 1, 52, 66
3, 229632, Note_on_c, 1, 50, 66
3, 230396, Note_off_c, 1, 56, 0
3, 230396, Note_off_c, 1, 52, 0
3, 230396, Note_off_c, 1, 50, 0
3, 233088, Note_on_c, 1, 64, 66
3, 233088, Note_on_c, 1, 61, 66
3, 233468, Note_off_c, 1, 64, 0
3, 233468, Note_off_c, 1, 61, 0
3, 233472, Note_on_c, 1, 66, 66
3, 233472, Note_on_c, 1, 62, 66
3, 233852, Note_off_c, 1, 66, 0
3, 233852, Note_off_c, 1, 62, 0
3, 233856, Note_on_c, 1, 67, 66
3, 233856, Note_on_c, 1, 55, 66
3, 234236, Note_off_c, 1, 67, 0
3, 234236, Note_off_c, 1, 55, 0
3, 234240, Note_on_c, 1, 66, 66
3, 234240, Note_on_c, 1, 57, 66
3, 234620, Note_off_c, 1, 66, 0
3, 234624, Note_on_c, 1, 64, 66
3, 235004, Note_off_c, 1, 57, 0
3, 235004, Note_off_c, 1, 64, 0
3, 235008, Note_on_c, 1, 66, 79
3, 235008, Note_on_c, 1, 62, 79
3, 235388, Note_off_c, 1, 66, 0
3, 235388, Note_off_c, 1, 62, 0
3, 236160, Note_on_c, 1, 62, 79
3, 236160, Note_on_c, 1, 66, 79
3, 236540, Note_off_c, 1, 62, 0
3, 236540, Note_off_c, 1, 66, 0
3, 236544, Note_on_c, 1, 67, 79
3, 236544, Note_on_c, 1, 57, 79
3, 236924, Note_off_c, 1, 67, 0
3, 236924, Note_off_c, 1, 57, 0
3, 237696, Note_on_c, 1, 67, 79
3, 237696, Note_on_c, 1, 57, 79
3, 238076, Note_off_c, 1, 67, 0
3, 238076, Note_off_c, 1, 57, 0
3, 238080, Note_on_c, 1, 66, 66
3, 238080, Note_on_c, 1, 62, 66
3, 238460, Note_off_c, 1, 66, 0
3, 238460, Note_off_c, 1, 62, 0
3, 239232, Note_on_c, 1, 62, 66
3, 239232, Note_on_c, 1, 66, 66
3, 239612, Note_off_c, 1, 62, 0
3, 239612, Note_off_c, 1, 66, 0
3, 239616, Note_on_c, 1, 67, 66
3, 239616, Note_on_c, 1, 57, 66
3, 239996, Note_off_c, 1, 67, 0
3, 239996, Note_off_c, 1, 57, 0
3, 240768, Note_on_c, 1, 67, 66
3, 240768, Note_on_c, 1, 57, 66
3, 241148, Note_off_c, 1, 67, 0
3, 241148, Note_off_c, 1, 57, 0
3, 241152, Note_on_c, 1, 66, 66
3, 241152, Note_on_c, 1, 62, 66
3, 241532, Note_off_c, 1, 66, 0
3, 241532, Note_off_c, 1, 62, 0
3, 242304, Note_on_c, 1, 62, 66
3, 242304, Note_on_c, 1, 57, 66
3, 242304, Note_on_c, 1, 54, 66
3, 242684, Note_off_c, 1, 62, 0
3, 242684, Note_off_c, 1, 57, 0
3, 242684, Note_off_c, 1, 54, 0
3, 242688, Note_on_c, 1, 62, 66
3, 242688, Note_on_c, 1, 59, 66
3, 242688, Note_on_c, 1, 55, 66
3, 243068, Note_off_c, 1, 62, 0
3, 243068, Note_off_c, 1, 59, 0
3, 243068, Note_off_c, 1, 55, 0
3, 243840, Note_on_c, 1, 64, 66
3, 243840, Note_on_c, 1, 59, 66
3, 243840, Note_on_c, 1, 55, 66
3, 244220, Note_off_c, 1, 64, 0
3, 244220, Note_off_c, 1, 59, 0
3, 244220, Note_off_c, 1, 55, 0
3, 244224, Note_on_c, 1, 66, 66
3, 244224, Note_on_c, 1, 62, 66
3, 244224, Note_on_c, 1, 57, 66
3, 244604, Note_off_c, 1, 66, 0
3, 244604, Note_off_c, 1, 62, 0
3, 244604, Note_off_c, 1, 57, 0
3, 244608, Note_on_c, 1, 59, 70
3, 244608, Note_on_c, 1, 62, 70
3, 244988, Note_off_c, 1, 59, 0
3, 244992, Note_on_c, 1, 55, 74
3, 245372, Note_off_c, 1, 62, 0
3, 245372, Note_off_c, 1, 55, 0
3, 245376, Note_on_c, 1, 57, 63
3, 245376, Note_on_c, 1, 61, 63
3, 245756, Note_off_c, 1, 57, 0
3, 245756, Note_off_c, 1, 61, 0
3, 245856, Note_on_c, 1, 50, 58
3, 245948, Note_off_c, 1, 50, 0
3, 245952, Note_on_c, 1, 54, 55
3, 246044, Note_off_c, 1, 54, 0
3, 246048, Note_on_c, 1, 57, 55
3, 246140, Note_off_c, 1, 57, 0
3, 246144, Note_on_c, 1, 62, 55
3, 246524, Note_off_c, 1, 62, 0
3, 248160, Note_on_c, 1, 55, 55
3, 248252, Note_off_c, 1, 55, 0
3, 248256, Note_on_c, 1, 52, 55
3, 248348, Note_off_c, 1, 52, 0
3, 248352, Note_on_c, 1, 49, 55
3, 248444, Note_off_c, 1, 49, 0
3, 248448, Note_on_c, 1, 45, 55
3, 248828, Note_off_c, 1, 45, 0
3, 248928, Note_on_c, 1, 50, 55
3, 249020, Note_off_c, 1, 50, 0
3, 249024, Note_on_c, 1, 54, 55
3, 249116, Note_off_c, 1, 54, 0
3, 249120, Note_on_c, 1, 57, 55
3, 249212, Note_off_c, 1, 57, 0
3, 249216, Note_on_c, 1, 62, 55
3, 249596, Note_off_c, 1, 62, 0
3, 251232, Note_on_c, 1, 55, 55
3, 251324, Note_off_c, 1, 55, 0
3, 251328, Note_on_c, 1, 52, 55
3, 251420, Note_off_c, 1, 52, 0
3, 251424, Note_on_c, 1, 49, 55
3, 251516, Note_off_c, 1, 49, 0
3, 251520, Note_on_c, 1, 45, 55
3, 251900, Note_off_c, 1, 45, 0
3, 251904, Note_on_c, 1, 50, 71
3, 251904, Note_on_c, 1, 38, 71
3, 252284, Note_off_c, 1, 50, 0
3, 252284, Note_off_c, 1, 38, 0
3, 253248, Note_on_c, 1, 54, 73
3, 253436, Note_off_c, 1, 54, 0
3, 253440, Note_on_c, 1, 55, 73
3, 253820, Note_off_c, 1, 55, 0
3, 254784, Note_on_c, 1, 55, 74
3, 254972, Note_off_c, 1, 55, 0
3, 254976, Note_on_c, 1, 57, 74
3, 255356, Note_off_c, 1, 57, 0
3, 256320, Note_on_c, 1, 57, 77
3, 256508, Note_off_c, 1, 57, 0
3, 256512, Note_on_c, 1, 58, 77
3, 256892, Note_off_c, 1, 58, 0
3, 257856, Note_on_c, 1, 58, 79
3, 258044, Note_off_c, 1, 58, 0
3, 258048, Note_on_c, 1, 59, 79
3, 258428, Note_off_c, 1, 59, 0
3, 259392, Note_on_c, 1, 59, 81
3, 259580, Note_off_c, 1, 59, 0
3, 259584, Note_on_c, 1, 57, 81
3, 259676, Note_off_c, 1, 57, 0
3, 259680, Note_on_c, 1, 66, 81
3, 259772, Note_off_c, 1, 66, 0
3, 259776, Note_on_c, 1, 62, 81
3, 259868, Note_off_c, 1, 62, 0
3, 259872, Note_on_c, 1, 66, 81
3, 259964, Note_off_c, 1, 66, 0
3, 259968, Note_on_c, 1, 57, 82
3, 260060, Note_off_c, 1, 57, 0
3, 260064, Note_on_c, 1, 66, 82
3, 260156, Note_off_c, 1, 66, 0
3, 260160, Note_on_c, 1, 62, 82
3, 260252, Note_off_c, 1, 62, 0
3, 260256, Note_on_c, 1, 66, 82
3, 260348, Note_off_c, 1, 66, 0
3, 260352, Note_on_c, 1, 57, 82
3, 260444, Note_off_c, 1, 57, 0
3, 260448, Note_on_c, 1, 66, 82
3, 260540, Note_off_c, 1, 66, 0
3, 260544, Note_on_c, 1, 62, 82
3, 260636, Note_off_c, 1, 62, 0
3, 260640, Note_on_c, 1, 66, 82
3, 260732, Note_off_c, 1, 66, 0
3, 260736, Note_on_c, 1, 57, 82
3, 260828, Note_off_c, 1, 57, 0
3, 260832, Note_on_c, 1, 66, 82
3, 260924, Note_off_c, 1, 66, 0
3, 260928, Note_on_c, 1, 62, 82
3, 261020, Note_off_c, 1, 62, 0
3, 261024, Note_on_c, 1, 66, 82
3, 261116, Note_off_c, 1, 66, 0
3, 261120, Note_on_c, 1, 57, 82
3, 261212, Note_off_c, 1, 57, 0
3, 261216, Note_on_c, 1, 67, 82
3, 261308, Note_off_c, 1, 67, 0
3, 261312, Note_on_c, 1, 61, 83
3, 261404, Note_off_c, 1, 61, 0
3, 261408, Note_on_c, 1, 67, 83
3, 261500, Note_off_c, 1, 67, 0
3, 261504, Note_on_c, 1, 57, 83
3, 261596, Note_off_c, 1, 57, 0
3, 261600, Note_on_c, 1, 67, 83
3, 261692, Note_off_c, 1, 67, 0
3, 261696, Note_on_c, 1, 61, 83
3, 261788, Note_off_c, 1, 61, 0
3, 261792, Note_on_c, 1, 67, 83
3, 261884, Note_off_c, 1, 67, 0
3, 261888, Note_on_c, 1, 57, 83
3, 261980, Note_off_c, 1, 57, 0
3, 261984, Note_on_c, 1, 67, 83
3, 262076, Note_off_c, 1, 67, 0
3, 262080, Note_on_c, 1, 61, 83
3, 262172, Note_off_c, 1, 61, 0
3, 262176, Note_on_c, 1, 67, 83
3, 262268, Note_off_c, 1, 67, 0
3, 262272, Note_on_c, 1, 57, 83
3, 262364, Note_off_c, 1, 57, 0
3, 262368, Note_on_c, 1, 67, 83
3, 262460, Note_off_c, 1, 67, 0
3, 262464, Note_on_c, 1, 61, 83
3, 262556, Note_off_c, 1, 61, 0
3, 262560, Note_on_c, 1, 67, 83
3, 262652, Note_off_c, 1, 67, 0
3, 262656, Note_on_c, 1, 66, 79
3, 262656, Note_on_c, 1, 62, 79
3, 263036, Note_off_c, 1, 66, 0
3, 263036, Note_off_c, 1, 62, 0
3, 282624, Note_on_c, 1, 46, 66
3, 282624, Note_on_c, 1, 34, 66
3, 284156, Note_off_c, 1, 46, 0
3, 284156, Note_off_c, 1, 34, 0
3, 284160, Note_on_c, 1, 45, 80
3, 285692, Note_off_c, 1, 45, 0
3, 285696, Note_on_c, 1, 46, 66
3, 285696, Note_on_c, 1, 34, 66
3, 287228, Note_off_c, 1, 46, 0
3, 287228, Note_off_c, 1, 34, 0
3, 287232, Note_on_c, 1, 45, 80
3, 287232, Note_on_c, 1, 33, 80
3, 288764, Note_off_c, 1, 45, 0
3, 288764, Note_off_c, 1, 33, 0
3, 288768, Note_on_c, 1, 46, 66
3, 288768, Note_on_c, 1, 34, 66
3, 289532, Note_off_c, 1, 46, 0
3, 289532, Note_off_c, 1, 34, 0
3, 289536, Note_on_c, 1, 56, 73
3, 289536, Note_on_c, 1, 44, 73
3, 290300, Note_off_c, 1, 56, 0
3, 290300, Note_off_c, 1, 44, 0
3, 290304, Note_on_c, 1, 55, 80
3, 290304, Note_on_c, 1, 43, 80
3, 291836, Note_off_c, 1, 55, 0
3, 291836, Note_off_c, 1, 43, 0
3, 291840, Note_on_c, 1, 54, 80
3, 291840, Note_on_c, 1, 42, 80
3, 293372, Note_off_c, 1, 54, 0
3, 293372, Note_off_c, 1, 42, 0
3, 293376, Note_on_c, 1, 52, 80
3, 293376, Note_on_c, 1, 40, 80
3, 294908, Note_off_c, 1, 52, 0
3, 294908, Note_off_c, 1, 40, 0
3, 294912, Note_on_c, 1, 45, 66
3, 294912, Note_on_c, 1, 33, 66
3, 296444, Note_off_c, 1, 45, 0
3, 296444, Note_off_c, 1, 33, 0
3, 296448, Note_on_c, 1, 44, 80
3, 296448, Note_on_c, 1, 32, 80
3, 297980, Note_off_c, 1, 44, 0
3, 297980, Note_off_c, 1, 32, 0
3, 297984, Note_on_c, 1, 45, 66
3, 297984, Note_on_c, 1, 33, 66
3, 299516, Note_off_c, 1, 45, 0
3, 299516, Note_off_c, 1, 33, 0
3, 299520, Note_on_c, 1, 44, 66
3, 299520, Note_on_c, 1, 32, 66
3, 301052, Note_off_c, 1, 44, 0
3, 301052, Note_off_c, 1, 32, 0
3, 301056, Note_on_c, 1, 45, 66
3, 301056, Note_on_c, 1, 33, 66
3, 301820, Note_off_c, 1, 45, 0
3, 301820, Note_off_c, 1, 33, 0
3, 301824, Note_on_c, 1, 55, 73
3, 301824, Note_on_c, 1, 43, 73
3, 302588, Note_off_c, 1, 55, 0
3, 302588, Note_off_c, 1, 43, 0
3, 302592, Note_on_c, 1, 54, 80
3, 302592, Note_on_c, 1, 42, 80
3, 304124, Note_off_c, 1, 54, 0
3, 304124, Note_off_c, 1, 42, 0
3, 304128, Note_on_c, 1, 53, 80
3, 304128, Note_on_c, 1, 41, 80
3, 305660, Note_off_c, 1, 53, 0
3, 305660, Note_off_c, 1, 41, 0
3, 305664, Note_on_c, 1, 51, 80
3, 305664, Note_on_c, 1, 39, 80
3, 307196, Note_off_c, 1, 51, 0
3, 307196, Note_off_c, 1, 39, 0
3, 307200, Note_on_c, 1, 50, 80
3, 307200, Note_on_c, 1, 38, 80
3, 308732, Note_off_c, 1, 50, 0
3, 308732, Note_off_c, 1, 38, 0
3, 308736, Note_on_c, 1, 49, 80
3, 308736, Note_on_c, 1, 37, 80
3, 310268, Note_off_c, 1, 49, 0
3, 310268, Note_off_c, 1, 37, 0
3, 310272, Note_on_c, 1, 48, 80
3, 310272, Note_on_c, 1, 36, 80
3, 311804, Note_off_c, 1, 48, 0
3, 311804, Note_off_c, 1, 36, 0
3, 311808, Note_on_c, 1, 47, 80
3, 311808, Note_on_c, 1, 35, 80
3, 312188, Note_off_c, 1, 47, 0
3, 312188, Note_off_c, 1, 35, 0
3, 327168, Note_on_c, 1, 54, 66
3, 327356, Note_off_c, 1, 54, 0
3, 327360, Note_on_c, 1, 62, 66
3, 327548, Note_off_c, 1, 62, 0
3, 327552, Note_on_c, 1, 57, 66
3, 327740, Note_off_c, 1, 57, 0
3, 327744, Note_on_c, 1, 62, 66
3, 327932, Note_off_c, 1, 62, 0
3, 327936, Note_on_c, 1, 54, 66
3, 328124, Note_off_c, 1, 54, 0
3, 328128, Note_on_c, 1, 62, 66
3, 328316, Note_off_c, 1, 62, 0
3, 328320, Note_on_c, 1, 57, 66
3, 328508, Note_off_c, 1, 57, 0
3, 328512, Note_on_c, 1, 62, 66
3, 328700, Note_off_c, 1, 62, 0
3, 328704, Note_on_c, 1, 54, 52
3, 328892, Note_off_c, 1, 54, 0
3, 328896, Note_on_c, 1, 62, 52
3, 329084, Note_off_c, 1, 62, 0
3, 329088, Note_on_c, 1, 57, 52
3, 329276, Note_off_c, 1, 57, 0
3, 329280, Note_on_c, 1, 62, 52
3, 329468, Note_off_c, 1, 62, 0
3, 329472, Note_on_c, 1, 54, 52
3, 329660, Note_off_c, 1, 54, 0
3, 329664, Note_on_c, 1, 62, 52
3, 329852, Note_off_c, 1, 62, 0
3, 329856, Note_on_c, 1, 57, 52
3, 330044, Note_off_c, 1, 57, 0
3, 330048, Note_on_c, 1, 62, 52
3, 330236, Note_off_c, 1, 62, 0
3, 330240, Note_on_c, 1, 55, 66
3, 330428, Note_off_c, 1, 55, 0
3, 330432, Note_on_c, 1, 62, 66
3, 330620, Note_off_c, 1, 62, 0
3, 330624, Note_on_c, 1, 58, 66
3, 330812, Note_off_c, 1, 58, 0
3, 330816, Note_on_c, 1, 62, 66
3, 331004, Note_off_c, 1, 62, 0
3, 331008, Note_on_c, 1, 55, 66
3, 331196, Note_off_c, 1, 55, 0
3, 331200, Note_on_c, 1, 62, 66
3, 331388, Note_off_c, 1, 62, 0
3, 331392, Note_on_c, 1, 58, 66
3, 331580, Note_off_c, 1, 58, 0
3, 331584, Note_on_c, 1, 62, 66
3, 331772, Note_off_c, 1, 62, 0
3, 331776, Note_on_c, 1, 55, 52
3, 331964, Note_off_c, 1, 55, 0
3, 331968, Note_on_c, 1, 62, 52
3, 332156, Note_off_c, 1, 62, 0
3, 332160, Note_on_c, 1, 58, 52
3, 332348, Note_off_c, 1, 58, 0
3, 332352, Note_on_c, 1, 62, 52
3, 332540, Note_off_c, 1, 62, 0
3, 332544, Note_on_c, 1, 55, 52
3, 332732, Note_off_c, 1, 55, 0
3, 332736, Note_on_c, 1, 62, 52
3, 332924, Note_off_c, 1, 62, 0
3, 332928, Note_on_c, 1, 58, 52
3, 333116, Note_off_c, 1, 58, 0
3, 333120, Note_on_c, 1, 62, 52
3, 333308, Note_off_c, 1, 62, 0
3, 333312, Note_on_c, 1, 51, 66
3, 333500, Note_off_c, 1, 51, 0
3, 333504, Note_on_c, 1, 61, 66
3, 333692, Note_off_c, 1, 61, 0
3, 333696, Note_on_c, 1, 55, 66
3, 333884, Note_off_c, 1, 55, 0
3, 333888, Note_on_c, 1, 61, 66
3, 334076, Note_off_c, 1, 61, 0
3, 334080, Note_on_c, 1, 51, 66
3, 334268, Note_off_c, 1, 51, 0
3, 334272, Note_on_c, 1, 61, 66
3, 334460, Note_off_c, 1, 61, 0
3, 334464, Note_on_c, 1, 55, 66
3, 334652, Note_off_c, 1, 55, 0
3, 334656, Note_on_c, 1, 61, 66
3, 334844, Note_off_c, 1, 61, 0
3, 334848, Note_on_c, 1, 51, 66
3, 335036, Note_off_c, 1, 51, 0
3, 335040, Note_on_c, 1, 58, 66
3, 335228, Note_off_c, 1, 58, 0
3, 335232, Note_on_c, 1, 55, 66
3, 335420, Note_off_c, 1, 55, 0
3, 335424, Note_on_c, 1, 58, 66
3, 335612, Note_off_c, 1, 58, 0
3, 335616, Note_on_c, 1, 51, 66
3, 335804, Note_off_c, 1, 51, 0
3, 335808, Note_on_c, 1, 57, 66
3, 335996, Note_off_c, 1, 57, 0
3, 336000, Note_on_c, 1, 55, 66
3, 336188, Note_off_c, 1, 55, 0
3, 336192, Note_on_c, 1, 57, 66
3, 336380, Note_off_c, 1, 57, 0
3, 336384, Note_on_c, 1, 54, 66
3, 336384, Note_on_c, 1, 50, 66
3, 336764, Note_off_c, 1, 54, 0
3, 336764, Note_off_c, 1, 50, 0
3, 365568, Note_on_c, 1, 60, 74
3, 365568, Note_on_c, 1, 57, 74
3, 365568, Note_on_c, 1, 54, 74
3, 365568, Note_on_c, 1, 50, 74
3, 366332, Note_off_c, 1, 60, 0
3, 366332, Note_off_c, 1, 57, 0
3, 366332, Note_off_c, 1, 54, 0
3, 366332, Note_off_c, 1, 50, 0
3, 366336, Note_on_c, 1, 60, 66
3, 366336, Note_on_c, 1, 57, 66
3, 366336, Note_on_c, 1, 54, 66
3, 366336, Note_on_c, 1, 50, 66
3, 366716, Note_off_c, 1, 60, 0
3, 366716, Note_off_c, 1, 57, 0
3, 366716, Note_off_c, 1, 54, 0
3, 366716, Note_off_c, 1, 50, 0
3, 367104, Note_on_c, 1, 60, 66
3, 367104, Note_on_c, 1, 57, 66
3, 367104, Note_on_c, 1, 54, 66
3, 368636, Note_off_c, 1, 60, 0
3, 368636, Note_off_c, 1, 57, 0
3, 368636, Note_off_c, 1, 54, 0
3, 368640, Note_on_c, 1, 59, 66
3, 368640, Note_on_c, 1, 55, 66
3, 370172, Note_off_c, 1, 59, 0
3, 370172, Note_off_c, 1, 55, 0
3, 370176, Note_on_c, 1, 48, 66
3, 370940, Note_off_c, 1, 48, 0
3, 370944, Note_on_c, 1, 50, 66
3, 371708, Note_off_c, 1, 50, 0
3, 371712, Note_on_c, 1, 55, 79
3, 371712, Note_on_c, 1, 43, 79
3, 372092, Note_off_c, 1, 55, 0
3, 372092, Note_off_c, 1, 43, 0
3, 413376, Note_on_c, 1, 55, 66
3, 413564, Note_off_c, 1, 55, 0
3, 413568, Note_on_c, 1, 59, 66
3, 413756, Note_off_c, 1, 59, 0
3, 413760, Note_on_c, 1, 62, 66
3, 413948, Note_off_c, 1, 62, 0
3, 414144, Note_on_c, 1, 56, 66
3, 414332, Note_off_c, 1, 56, 0
3, 414336, Note_on_c, 1, 59, 66
3, 414524, Note_off_c, 1, 59, 0
3, 414528, Note_on_c, 1, 64, 66
3, 414716, Note_off_c, 1, 64, 0
3, 414720, Note_on_c, 1, 57, 66
3, 414908, Note_off_c, 1, 57, 0
3, 414912, Note_on_c, 1, 60, 66
3, 415100, Note_off_c, 1, 60, 0
3, 415104, Note_on_c, 1, 54, 66
3, 415484, Note_off_c, 1, 54, 0
3, 415872, Note_on_c, 1, 55, 66
3, 415872, Note_on_c, 1, 53, 66
3, 416252, Note_off_c, 1, 55, 0
3, 416252, Note_off_c, 1, 53, 0
3, 416256, Note_on_c, 1, 55, 66
3, 416256, Note_on_c, 1, 52, 66
3, 417020, Note_off_c, 1, 55, 0
3, 417020, Note_off_c, 1, 52, 0
3, 417408, Note_on_c, 1, 52, 66
3, 417408, Note_on_c, 1, 49, 66
3, 417788, Note_off_c, 1, 52, 0
3, 417788, Note_off_c, 1, 49, 0
3, 417792, Note_on_c, 1, 57, 66
3, 417792, Note_on_c, 1, 50, 66
3, 418172, Note_off_c, 1, 50, 0
3, 418176, Note_on_c, 1, 48, 66
3, 418556, Note_off_c, 1, 57, 0
3, 418556, Note_off_c, 1, 48, 0
3, 418560, Note_on_c, 1, 50, 66
3, 418560, Note_on_c, 1, 47, 66
3, 418940, Note_off_c, 1, 50, 0
3, 418940, Note_off_c, 1, 47, 0
3, 425472, Note_on_c, 1, 55, 71
3, 425472, Note_on_c, 1, 43, 71
3, 427004, Note_off_c, 1, 55, 0
3, 427004, Note_off_c, 1, 43, 0
3, 427008, Note_on_c, 1, 48, 71
3, 427008, Note_on_c, 1, 36, 71
3, 428540, Note_off_c, 1, 48, 0
3, 428540, Note_off_c, 1, 36, 0
3, 428544, Note_on_c, 1, 41, 71
3, 428544, Note_on_c, 1, 29, 71
3, 430076, Note_off_c, 1, 41, 0
3, 430076, Note_off_c, 1, 29, 0
3, 430080, Note_on_c, 1, 46, 71
3, 430080, Note_on_c, 1, 34, 71
3, 431612, Note_off_c, 1, 46, 0
3, 431612, Note_off_c, 1, 34, 0
3, 431616, Note_on_c, 1, 51, 71
3, 431616, Note_on_c, 1, 39, 71
3, 432380, Note_off_c, 1, 51, 0
3, 432380, Note_off_c, 1, 39, 0
3, 432384, Note_on_c, 1, 57, 71
3, 432384, Note_on_c, 1, 45, 71
3, 433148, Note_off_c, 1, 57, 0
3, 433148, Note_off_c, 1, 45, 0
3, 433152, Note_on_c, 1, 50, 71
3, 433152, Note_on_c, 1, 38, 71
3, 433916, Note_off_c, 1, 50, 0
3, 433916, Note_off_c, 1, 38, 0
3, 433920, Note_on_c, 1, 55, 71
3, 433920, Note_on_c, 1, 43, 71
3, 434684, Note_off_c, 1, 55, 0
3, 434684, Note_off_c, 1, 43, 0
3, 434688, Note_on_c, 1, 48, 71
3, 434688, Note_on_c, 1, 36, 71
3, 435452, Note_off_c, 1, 48, 0
3, 435452, Note_off_c, 1, 36, 0
3, 435456, Note_on_c, 1, 49, 71
3, 435456, Note_on_c, 1, 37, 71
3, 436220, Note_off_c, 1, 49, 0
3, 436220, Note_off_c, 1, 37, 0
3, 436224, Note_on_c, 1, 50, 71
3, 436224, Note_on_c, 1, 38, 71
3, 436412, Note_off_c, 1, 50, 0
3, 436412, Note_off_c, 1, 38, 0
3, 445440, Note_on_c, 1, 55, 71
3, 445628, Note_off_c, 1, 55, 0
3, 445632, Note_on_c, 1, 62, 71
3, 445820, Note_off_c, 1, 62, 0
3, 445824, Note_on_c, 1, 59, 71
3, 446012, Note_off_c, 1, 59, 0
3, 446016, Note_on_c, 1, 62, 71
3, 446204, Note_off_c, 1, 62, 0
3, 446208, Note_on_c, 1, 54, 71
3, 446396, Note_off_c, 1, 54, 0
3, 446400, Note_on_c, 1, 63, 71
3, 446588, Note_off_c, 1, 63, 0
3, 446592, Note_on_c, 1, 57, 71
3, 446780, Note_off_c, 1, 57, 0
3, 446784, Note_on_c, 1, 63, 71
3, 446972, Note_off_c, 1, 63, 0
3, 446976, Note_on_c, 1, 52, 71
3, 447164, Note_off_c, 1, 52, 0
3, 447168, Note_on_c, 1, 64, 71
3, 447356, Note_off_c, 1, 64, 0
3, 447360, Note_on_c, 1, 55, 71
3, 447548, Note_off_c, 1, 55, 0
3, 447552, Note_on_c, 1, 64, 71
3, 447740, Note_off_c, 1, 64, 0
3, 447744, Note_on_c, 1, 50, 71
3, 447932, Note_off_c, 1, 50, 0
3, 447936, Note_on_c, 1, 56, 71
3, 448124, Note_off_c, 1, 56, 0
3, 448128, Note_on_c, 1, 52, 71
3, 448316, Note_off_c, 1, 52, 0
3, 448320, Note_on_c, 1, 56, 71
3, 448508, Note_off_c, 1, 56, 0
3, 448512, Note_on_c, 1, 48, 71
3, 448700, Note_off_c, 1, 48, 0
3, 448704, Note_on_c, 1, 57, 71
3, 448892, Note_off_c, 1, 57, 0
3, 448896, Note_on_c, 1, 52, 71
3, 449084, Note_off_c, 1, 52, 0
3, 449088, Note_on_c, 1, 57, 71
3, 449276, Note_off_c, 1, 57, 0
3, 449280, Note_on_c, 1, 47, 71
3, 449468, Note_off_c, 1, 47, 0
3, 449472, Note_on_c, 1, 56, 71
3, 449660, Note_off_c, 1, 56, 0
3, 449664, Note_on_c, 1, 50, 71
3, 449852, Note_off_c, 1, 50, 0
3, 449856, Note_on_c, 1, 56, 71
3, 450044, Note_off_c, 1, 56, 0
3, 450048, Note_on_c, 1, 45, 71
3, 450236, Note_off_c, 1, 45, 0
3, 450240, Note_on_c, 1, 57, 71
3, 450428, Note_off_c, 1, 57, 0
3, 450432, Note_on_c, 1, 48, 71
3, 450620, Note_off_c, 1, 48, 0
3, 450624, Note_on_c, 1, 57, 71
3, 450812, Note_off_c, 1, 57, 0
3, 450816, Note_on_c, 1, 55, 71
3, 451004, Note_off_c, 1, 55, 0
3, 451008, Note_on_c, 1, 61, 71
3, 451196, Note_off_c, 1, 61, 0
3, 451200, Note_on_c, 1, 57, 71
3, 451388, Note_off_c, 1, 57, 0
3, 451392, Note_on_c, 1, 61, 71
3, 451580, Note_off_c, 1, 61, 0
3, 451584, Note_on_c, 1, 54, 71
3, 451772, Note_off_c, 1, 54, 0
3, 451776, Note_on_c, 1, 62, 71
3, 451964, Note_off_c, 1, 62, 0
3, 451968, Note_on_c, 1, 57, 71
3, 452156, Note_off_c, 1, 57, 0
3, 452160, Note_on_c, 1, 62, 71
3, 452348, Note_off_c, 1, 62, 0
3, 452352, Note_on_c, 1, 52, 71
3, 452540, Note_off_c, 1, 52, 0
3, 452544, Note_on_c, 1, 61, 71
3, 452732, Note_off_c, 1, 61, 0
3, 452736, Note_on_c, 1, 57, 71
3, 452924, Note_off_c, 1, 57, 0
3, 452928, Note_on_c, 1, 61, 71
3, 453116, Note_off_c, 1, 61, 0
3, 453120, Note_on_c, 1, 62, 71
3, 453120, Note_on_c, 1, 50, 71
3, 453884, Note_off_c, 1, 62, 0
3, 453884, Note_off_c, 1, 50, 0
3, 454272, Note_on_c, 1, 54, 71
3, 454272, Note_on_c, 1, 57, 71
3, 454652, Note_off_c, 1, 54, 0
3, 454652, Note_off_c, 1, 57, 0
3, 454656, Note_on_c, 1, 62, 71
3, 454656, Note_on_c, 1, 55, 71
3, 455036, Note_off_c, 1, 62, 0
3, 455036, Note_off_c, 1, 55, 0
3, 455040, Note_on_c, 1, 60, 71
3, 455040, Note_on_c, 1, 48, 71
3, 455420, Note_off_c, 1, 60, 0
3, 455420, Note_off_c, 1, 48, 0
3, 455424, Note_on_c, 1, 50, 71
3, 455424, Note_on_c, 1, 59, 71
3, 455804, Note_off_c, 1, 59, 0
3, 455808, Note_on_c, 1, 57, 71
3, 456188, Note_off_c, 1, 50, 0
3, 456188, Note_off_c, 1, 57, 0
3, 456192, Note_on_c, 1, 55, 71
3, 456192, Note_on_c, 1, 43, 71
3, 456572, Note_off_c, 1, 55, 0
3, 456572, Note_off_c, 1, 43, 0
3, 458496, Note_on_c, 1, 56, 66
3, 458496, Note_on_c, 1, 50, 66
3, 458496, Note_on_c, 1, 52, 66
3, 459260, Note_off_c, 1, 56, 0
3, 459260, Note_off_c, 1, 50, 0
3, 459260, Note_off_c, 1, 52, 0
3, 461568, Note_on_c, 1, 61, 66
3, 461568, Note_on_c, 1, 57, 66
3, 461568, Note_on_c, 1, 55, 66
3, 462332, Note_off_c, 1, 61, 0
3, 462332, Note_off_c, 1, 57, 0
3, 462332, Note_off_c, 1, 55, 0
3, 477792, Note_on_c, 1, 43, 55
3, 477884, Note_off_c, 1, 43, 0
3, 477888, Note_on_c, 1, 47, 55
3, 477980, Note_off_c, 1, 47, 0
3, 477984, Note_on_c, 1, 50, 55
3, 478076, Note_off_c, 1, 50, 0
3, 478080, Note_on_c, 1, 55, 55
3, 478460, Note_off_c, 1, 55, 0
3, 478560, Note_on_c, 1, 55, 55
3, 478652, Note_off_c, 1, 55, 0
3, 478656, Note_on_c, 1, 59, 55
3, 478748, Note_off_c, 1, 59, 0
3, 478752, Note_on_c, 1, 62, 55
3, 478844, Note_off_c, 1, 62, 0
3, 480096, Note_on_c, 1, 60, 55
3, 480188, Note_off_c, 1, 60, 0
3, 480192, Note_on_c, 1, 57, 55
3, 480284, Note_off_c, 1, 57, 0
3, 480288, Note_on_c, 1, 54, 55
3, 480380, Note_off_c, 1, 54, 0
3, 480384, Note_on_c, 1, 50, 55
3, 480764, Note_off_c, 1, 50, 0
3, 480864, Note_on_c, 1, 43, 55
3, 480956, Note_off_c, 1, 43, 0
3, 480960, Note_on_c, 1, 47, 55
3, 481052, Note_off_c, 1, 47, 0
3, 481056, Note_on_c, 1, 50, 55
3, 481148, Note_off_c, 1, 50, 0
3, 481152, Note_on_c, 1, 55, 55
3, 481532, Note_off_c, 1, 55, 0
3, 481632, Note_on_c, 1, 55, 55
3, 481724, Note_off_c, 1, 55, 0
3, 481728, Note_on_c, 1, 59, 55
3, 481820, Note_off_c, 1, 59, 0
3, 481824, Note_on_c, 1, 62, 55
3, 481916, Note_off_c, 1, 62, 0
3, 483168, Note_on_c, 1, 60, 55
3, 483260, Note_off_c, 1, 60, 0
3, 483264, Note_on_c, 1, 57, 55
3, 483356, Note_off_c, 1, 57, 0
3, 483360, Note_on_c, 1, 54, 55
3, 483452, Note_off_c, 1, 54, 0
3, 483456, Note_on_c, 1, 50, 55
3, 483836, Note_off_c, 1, 50, 0
3, 483936, Note_on_c, 1, 43, 55
3, 484028, Note_off_c, 1, 43, 0
3, 484032, Note_on_c, 1, 47, 55
3, 484124, Note_off_c, 1, 47, 0
3, 484128, Note_on_c, 1, 50, 55
3, 484220, Note_off_c, 1, 50, 0
3, 484224, Note_on_c, 1, 55, 55
3, 484604, Note_off_c, 1, 55, 0
3, 484704, Note_on_c, 1, 55, 55
3, 484796, Note_off_c, 1, 55, 0
3, 484800, Note_on_c, 1, 59, 55
3, 484892, Note_off_c, 1, 59, 0
3, 484896, Note_on_c, 1, 62, 55
3, 484988, Note_off_c, 1, 62, 0
3, 484992, Note_on_c, 1, 67, 55
3, 485372, Note_off_c, 1, 67, 0
3, 485472, Note_on_c, 1, 48, 55
3, 485564, Note_off_c, 1, 48, 0
3, 485568, Note_on_c, 1, 52, 55
3, 485660, Note_off_c, 1, 52, 0
3, 485664, Note_on_c, 1, 55, 55
3, 485756, Note_off_c, 1, 55, 0
3, 485760, Note_on_c, 1, 60, 55
3, 486140, Note_off_c, 1, 60, 0
3, 523776, Note_on_c, 1, 60, 100
3, 523868, Note_off_c, 1, 60, 0
3, 523968, Note_on_c, 1, 59, 100
3, 524060, Note_off_c, 1, 59, 0
3, 524160, Note_on_c, 1, 57, 100
3, 524252, Note_off_c, 1, 57, 0
3, 524352, Note_on_c, 1, 55, 100
3, 524444, Note_off_c, 1, 55, 0
3, 524544, Note_on_c, 1, 54, 100
3, 524636, Note_off_c, 1, 54, 0
3, 524736, Note_on_c, 1, 52, 100
3, 524828, Note_off_c, 1, 52, 0
3, 524928, Note_on_c, 1, 50, 100
3, 525020, Note_off_c, 1, 50, 0
3, 525120, Note_on_c, 1, 49, 100
3, 525212, Note_off_c, 1, 49, 0
3, 525312, Note_on_c, 1, 48, 64
3, 525692, Note_off_c, 1, 48, 0
3, 525696, Note_on_c, 1, 47, 71
3, 526076, Note_off_c, 1, 47, 0
3, 526080, Note_on_c, 1, 45, 79
3, 526460, Note_off_c, 1, 45, 0
3, 526464, Note_on_c, 1, 43, 86
3, 526844, Note_off_c, 1, 43, 0
3, 526848, Note_on_c, 1, 42, 92
3, 528380, Note_off_c, 1, 42, 0
3, 528384, Note_on_c, 1, 54, 92
3, 529916, Note_off_c, 1, 54, 0
3, 529920, Note_on_c, 1, 55, 62
3, 530108, Note_off_c, 1, 55, 0
3, 530112, Note_on_c, 1, 62, 62
3, 530300, Note_off_c, 1, 62, 0
3, 530304, Note_on_c, 1, 59, 62
3, 530492, Note_off_c, 1, 59, 0
3, 530496, Note_on_c, 1, 62, 62
3, 530684, Note_off_c, 1, 62, 0
3, 530688, Note_on_c, 1, 54, 62
3, 530876, Note_off_c, 1, 54, 0
3, 530880, Note_on_c, 1, 63, 62
3, 531068, Note_off_c, 1, 63, 0
3, 531072, Note_on_c, 1, 57, 62
3, 531260, Note_off_c, 1, 57, 0
3, 531264, Note_on_c, 1, 63, 62
3, 531452, Note_off_c, 1, 63, 0
3, 531456, Note_on_c, 1, 52, 62
3, 531644, Note_off_c, 1, 52, 0
3, 531648, Note_on_c, 1, 64, 62
3, 531836, Note_off_c, 1, 64, 0
3, 531840, Note_on_c, 1, 55, 62
3, 532028, Note_off_c, 1, 55, 0
3, 532032, Note_on_c, 1, 64, 62
3, 532220, Note_off_c, 1, 64, 0
3, 532224, Note_on_c, 1, 51, 62
3, 532412, Note_off_c, 1, 51, 0
3, 532416, Note_on_c, 1, 57, 62
3, 532604, Note_off_c, 1, 57, 0
3, 532608, Note_on_c, 1, 54, 62
3, 532796, Note_off_c, 1, 54, 0
3, 532800, Note_on_c, 1, 57, 62
3, 532988, Note_off_c, 1, 57, 0
3, 532992, Note_on_c, 1, 52, 52
3, 533180, Note_off_c, 1, 52, 0
3, 533184, Note_on_c, 1, 59, 52
3, 533372, Note_off_c, 1, 59, 0
3, 533376, Note_on_c, 1, 55, 52
3, 533564, Note_off_c, 1, 55, 0
3, 533568, Note_on_c, 1, 59, 52
3, 533756, Note_off_c, 1, 59, 0
3, 533760, Note_on_c, 1, 51, 52
3, 533948, Note_off_c, 1, 51, 0
3, 533952, Note_on_c, 1, 57, 52
3, 534140, Note_off_c, 1, 57, 0
3, 534144, Note_on_c, 1, 54, 52
3, 534332, Note_off_c, 1, 54, 0
3, 534336, Note_on_c, 1, 57, 52
3, 534524, Note_off_c, 1, 57, 0
3, 534528, Note_on_c, 1, 52, 60
3, 534716, Note_off_c, 1, 52, 0
3, 534720, Note_on_c, 1, 55, 60
3, 534908, Note_off_c, 1, 55, 0
3, 534912, Note_on_c, 1, 54, 60
3, 535100, Note_off_c, 1, 54, 0
3, 535104, Note_on_c, 1, 55, 60
3, 535292, Note_off_c, 1, 55, 0
3, 535296, Note_on_c, 1, 50, 80
3, 535484, Note_off_c, 1, 50, 0
3, 535488, Note_on_c, 1, 56, 80
3, 535676, Note_off_c, 1, 56, 0
3, 535680, Note_on_c, 1, 52, 80
3, 535868, Note_off_c, 1, 52, 0
3, 535872, Note_on_c, 1, 55, 80
3, 536060, Note_off_c, 1, 55, 0
3, 536064, Note_on_c, 1, 49, 60
3, 536252, Note_off_c, 1, 49, 0
3, 536256, Note_on_c, 1, 55, 60
3, 536444, Note_off_c, 1, 55, 0
3, 536448, Note_on_c, 1, 52, 60
3, 536636, Note_off_c, 1, 52, 0
3, 536640, Note_on_c, 1, 55, 60
3, 536828, Note_off_c, 1, 55, 0
3, 536832, Note_on_c, 1, 48, 80
3, 537020, Note_off_c, 1, 48, 0
3, 537024, Note_on_c, 1, 54, 80
3, 537212, Note_off_c, 1, 54, 0
3, 537216, Note_on_c, 1, 50, 80
3, 537404, Note_off_c, 1, 50, 0
3, 537408, Note_on_c, 1, 54, 80
3, 537596, Note_off_c, 1, 54, 0
3, 537600, Note_on_c, 1, 47, 60
3, 537788, Note_off_c, 1, 47, 0
3, 537792, Note_on_c, 1, 53, 60
3, 537980, Note_off_c, 1, 53, 0
3, 537984, Note_on_c, 1, 50, 60
3, 538172, Note_off_c, 1, 50, 0
3, 538176, Note_on_c, 1, 53, 60
3, 538364, Note_off_c, 1, 53, 0
3, 538368, Note_on_c, 1, 46, 80
3, 538556, Note_off_c, 1, 46, 0
3, 538560, Note_on_c, 1, 52, 80
3, 538748, Note_off_c, 1, 52, 0
3, 538752, Note_on_c, 1, 48, 80
3, 538940, Note_off_c, 1, 48, 0
3, 538944, Note_on_c, 1, 52, 80
3, 539132, Note_off_c, 1, 52, 0
3, 539136, Note_on_c, 1, 45, 62
3, 539324, Note_off_c, 1, 45, 0
3, 539328, Note_on_c, 1, 51, 64
3, 539516, Note_off_c, 1, 51, 0
3, 539520, Note_on_c, 1, 48, 66
3, 539708, Note_off_c, 1, 48, 0
3, 539712, Note_on_c, 1, 51, 68
3, 539900, Note_off_c, 1, 51, 0
3, 539904, Note_on_c, 1, 43, 70
3, 540092, Note_off_c, 1, 43, 0
3, 540096, Note_on_c, 1, 51, 72
3, 540284, Note_off_c, 1, 51, 0
3, 540288, Note_on_c, 1, 48, 74
3, 540476, Note_off_c, 1, 48, 0
3, 540480, Note_on_c, 1, 51, 76
3, 540668, Note_off_c, 1, 51, 0
3, 540672, Note_on_c, 1, 50, 80
3, 540672, Note_on_c, 1, 45, 80
3, 540672, Note_on_c, 1, 42, 80
3, 542204, Note_off_c, 1, 50, 0
3, 542204, Note_off_c, 1, 45, 0
3, 542204, Note_off_c, 1, 42, 0
3, 542784, Note_on_c, 1, 64, 80
3, 542876, Note_off_c, 1, 64, 0
3, 542880, Note_on_c, 1, 62, 80
3, 542972, Note_off_c, 1, 62, 0
3, 542976, Note_on_c, 1, 60, 80
3, 543068, Note_off_c, 1, 60, 0
3, 543072, Note_on_c, 1, 59, 80
3, 543164, Note_off_c, 1, 59, 0
3, 543168, Note_on_c, 1, 57, 80
3, 543260, Note_off_c, 1, 57, 0
3, 543264, Note_on_c, 1, 55, 80
3, 543356, Note_off_c, 1, 55, 0
3, 543360, Note_on_c, 1, 54, 80
3, 543452, Note_off_c, 1, 54, 0
3, 543456, Note_on_c, 1, 52, 80
3, 543548, Note_off_c, 1, 52, 0
3, 543552, Note_on_c, 1, 50, 80
3, 543644, Note_off_c, 1, 50, 0
3, 543648, Note_on_c, 1, 48, 80
3, 543740, Note_off_c, 1, 48, 0
3, 543744, Note_on_c, 1, 47, 80
3, 543836, Note_off_c, 1, 47, 0
3, 543936, Note_on_c, 1, 43, 80
3, 543936, Note_on_c, 1, 31, 80
3, 544028, Note_off_c, 1, 43, 0
3, 544028, Note_off_c, 1, 31, 0
3, 544128, Note_on_c, 1, 45, 80
3, 544128, Note_on_c, 1, 33, 80
3, 544220, Note_off_c, 1, 45, 0
3, 544220, Note_off_c, 1, 33, 0
3, 544320, Note_on_c, 1, 47, 80
3, 544320, Note_on_c, 1, 35, 80
3, 544412, Note_off_c, 1, 47, 0
3, 544412, Note_off_c, 1, 35, 0
3, 544512, Note_on_c, 1, 48, 80
3, 544512, Note_on_c, 1, 36, 80
3, 544604, Note_off_c, 1, 48, 0
3, 544604, Note_off_c, 1, 36, 0
3, 544704, Note_on_c, 1, 45, 80
3, 544704, Note_on_c, 1, 33, 80
3, 544796, Note_off_c, 1, 45, 0
3, 544796, Note_off_c, 1, 33, 0
3, 544896, Note_on_c, 1, 47, 80
3, 544896, Note_on_c, 1, 35, 80
3, 544988, Note_off_c, 1, 47, 0
3, 544988, Note_off_c, 1, 35, 0
3, 545088, Note_on_c, 1, 48, 80
3, 545088, Note_on_c, 1, 36, 80
3, 545180, Note_off_c, 1, 48, 0
3, 545180, Note_off_c, 1, 36, 0
3, 545280, Note_on_c, 1, 50, 80
3, 545280, Note_on_c, 1, 38, 80
3, 545372, Note_off_c, 1, 50, 0
3, 545372, Note_off_c, 1, 38, 0
3, 545472, Note_on_c, 1, 47, 80
3, 545472, Note_on_c, 1, 35, 80
3, 545564, Note_off_c, 1, 47, 0
3, 545564, Note_off_c, 1, 35, 0
3, 545664, Note_on_c, 1, 48, 80
3, 545664, Note_on_c, 1, 36, 80
3, 545756, Note_off_c, 1, 48, 0
3, 545756, Note_off_c, 1, 36, 0
3, 545856, Note_on_c, 1, 50, 80
3, 545856, Note_on_c, 1, 38, 80
3, 545948, Note_off_c, 1, 50, 0
3, 545948, Note_off_c, 1, 38, 0
3, 546048, Note_on_c, 1, 52, 80
3, 546048, Note_on_c, 1, 40, 80
3, 546140, Note_off_c, 1, 52, 0
3, 546140, Note_off_c, 1, 40, 0
3, 546240, Note_on_c, 1, 54, 80
3, 546240, Note_on_c, 1, 42, 80
3, 546332, Note_off_c, 1, 54, 0
3, 546332, Note_off_c, 1, 42, 0
3, 546432, Note_on_c, 1, 55, 80
3, 546432, Note_on_c, 1, 43, 80
3, 546524, Note_off_c, 1, 55, 0
3, 546524, Note_off_c, 1, 43, 0
3, 546624, Note_on_c, 1, 57, 80
3, 546624, Note_on_c, 1, 45, 80
3, 546716, Note_off_c, 1, 57, 0
3, 546716, Note_off_c, 1, 45, 0
3, 546816, Note_on_c, 1, 59, 79
3, 546816, Note_on_c, 1, 47, 79
3, 547196, Note_off_c, 1, 59, 0
3, 547196, Note_off_c, 1, 47, 0
3, 552576, Note_on_c, 1, 62, 52
3, 552668, Note_off_c, 1, 62, 0
3, 552672, Note_on_c, 1, 59, 52
3, 552764, Note_off_c, 1, 59, 0
3, 552768, Note_on_c, 1, 54, 52
3, 552860, Note_off_c, 1, 54, 0
3, 552864, Note_on_c, 1, 55, 52
3, 552956, Note_off_c, 1, 55, 0
3, 552960, Note_on_c, 1, 59, 52
3, 553052, Note_off_c, 1, 59, 0
3, 553056, Note_on_c, 1, 55, 52
3, 553148, Note_off_c, 1, 55, 0
3, 553152, Note_on_c, 1, 49, 52
3, 553244, Note_off_c, 1, 49, 0
3, 553248, Note_on_c, 1, 50, 52
3, 553340, Note_off_c, 1, 50, 0
3, 553344, Note_on_c, 1, 55, 52
3, 553436, Note_off_c, 1, 55, 0
3, 553440, Note_on_c, 1, 50, 52
3, 553532, Note_off_c, 1, 50, 0
3, 553536, Note_on_c, 1, 46, 52
3, 553628, Note_off_c, 1, 46, 0
3, 553632, Note_on_c, 1, 47, 52
3, 553724, Note_off_c, 1, 47, 0
3, 553728, Note_on_c, 1, 50, 52
3, 553820, Note_off_c, 1, 50, 0
3, 553824, Note_on_c, 1, 47, 52
3, 553916, Note_off_c, 1, 47, 0
3, 553920, Note_on_c, 1, 42, 52
3, 554012, Note_off_c, 1, 42, 0
3, 554016, Note_on_c, 1, 43, 52
3, 554108, Note_off_c, 1, 43, 0
3, 554112, Note_on_c, 1, 47, 52
3, 554112, Note_on_c, 1, 59, 52
3, 554204, Note_off_c, 1, 47, 0
3, 554204, Note_off_c, 1, 59, 0
3, 554304, Note_on_c, 1, 37, 52
3, 554304, Note_on_c, 1, 49, 52
3, 554396, Note_off_c, 1, 37, 0
3, 554396, Note_off_c, 1, 49, 0
3, 554496, Note_on_c, 1, 50, 90
3, 554496, Note_on_c, 1, 38, 90
3, 555260, Note_off_c, 1, 50, 0
3, 555260, Note_off_c, 1, 38, 0
3, 555264, Note_on_c, 1, 50, 75
3, 555452, Note_off_c, 1, 50, 0
3, 555456, Note_on_c, 1, 52, 77
3, 555548, Note_off_c, 1, 52, 0
3, 555552, Note_on_c, 1, 54, 78
3, 555644, Note_off_c, 1, 54, 0
3, 555648, Note_on_c, 1, 55, 79
3, 555740, Note_off_c, 1, 55, 0
3, 555744, Note_on_c, 1, 57, 80
3, 555836, Note_off_c, 1, 57, 0
3, 555840, Note_on_c, 1, 59, 81
3, 555932, Note_off_c, 1, 59, 0
3, 555932, End_track
4, 0, Start_track
4, 0, Title_t, "K453 -a-Allegro"
4, 0, Control_c, 2, 0, 0
4, 0, Program_c, 2, 48
4, 0, Control_c, 2, 7, 127
4, 0, Control_c, 2, 10, 39
4, 0, Control_c, 2, 91, 63
4, 0, Control_c, 2, 93, 6
4, 0, Key_signature, 1, "major"
4, 0, Control_c, 2, 121, 0
4, 384, Control_c, 2, 10, 53
4, 480, Control_c, 2, 91, 63
4, 672, Program_c, 2, 48
4, 1536, Note_on_c, 2, 74, 60
4, 1916, Note_off_c, 2, 74, 0
4, 1920, Note_on_c, 2, 71, 65
4, 1960, Note_off_c, 2, 71, 0
4, 1968, Note_on_c, 2, 72, 65
4, 2008, Note_off_c, 2, 72, 0
4, 2016, Note_on_c, 2, 71, 65
4, 2056, Note_off_c, 2, 71, 0
4, 2064, Note_on_c, 2, 72, 65
4, 2104, Note_off_c, 2, 72, 0
4, 2112, Note_on_c, 2, 71, 64
4, 2200, Note_off_c, 2, 71, 0
4, 2208, Note_on_c, 2, 72, 64
4, 2296, Note_off_c, 2, 72, 0
4, 2304, Note_on_c, 2, 74, 60
4, 2684, Note_off_c, 2, 74, 0
4, 2688, Note_on_c, 2, 74, 60
4, 2876, Note_off_c, 2, 74, 0
4, 3072, Note_on_c, 2, 74, 60
4, 3072, Note_on_c, 2, 67, 60
4, 4220, Note_off_c, 2, 74, 0
4, 4224, Note_on_c, 2, 78, 60
4, 4508, Note_off_c, 2, 78, 0
4, 4512, Note_on_c, 2, 79, 60
4, 4604, Note_off_c, 2, 67, 0
4, 4604, Note_off_c, 2, 79, 0
4, 4608, Note_on_c, 2, 79, 60
4, 4796, Note_off_c, 2, 79, 0
4, 4992, Note_on_c, 2, 82, 60
4, 5276, Note_off_c, 2, 82, 0
4, 5280, Note_on_c, 2, 83, 60
4, 5372, Note_off_c, 2, 83, 0
4, 5376, Note_on_c, 2, 83, 60
4, 5564, Note_off_c, 2, 83, 0
4, 5760, Note_on_c, 2, 79, 60
4, 5948, Note_off_c, 2, 79, 0
4, 6144, Note_on_c, 2, 77, 60
4, 6524, Note_off_c, 2, 77, 0
4, 6528, Note_on_c, 2, 76, 60
4, 6528, Note_on_c, 2, 72, 60
4, 6620, Note_off_c, 2, 76, 0
4, 6620, Note_off_c, 2, 72, 0
4, 6624, Note_on_c, 2, 77, 60
4, 6624, Note_on_c, 2, 74, 60
4, 6716, Note_off_c, 2, 77, 0
4, 6716, Note_off_c, 2, 74, 0
4, 6720, Note_on_c, 2, 76, 60
4, 6720, Note_on_c, 2, 72, 60
4, 6812, Note_off_c, 2, 76, 0
4, 6812, Note_off_c, 2, 72, 0
4, 6816, Note_on_c, 2, 77, 60
4, 6816, Note_on_c, 2, 74, 60
4, 6908, Note_off_c, 2, 77, 0
4, 6908, Note_off_c, 2, 74, 0
4, 6912, Note_on_c, 2, 79, 60
4, 6912, Note_on_c, 2, 76, 60
4, 7292, Note_off_c, 2, 79, 0
4, 7292, Note_off_c, 2, 76, 0
4, 7296, Note_on_c, 2, 76, 60
4, 7296, Note_on_c, 2, 84, 60
4, 7388, Note_off_c, 2, 76, 0
4, 7388, Note_off_c, 2, 84, 0
4, 7392, Note_on_c, 2, 86, 60
4, 7392, Note_on_c, 2, 77, 60
4, 7484, Note_off_c, 2, 86, 0
4, 7484, Note_off_c, 2, 77, 0
4, 7488, Note_on_c, 2, 84, 60
4, 7488, Note_on_c, 2, 76, 60
4, 7580, Note_off_c, 2, 84, 0
4, 7580, Note_off_c, 2, 76, 0
4, 7584, Note_on_c, 2, 86, 60
4, 7584, Note_on_c, 2, 77, 60
4, 7676, Note_off_c, 2, 86, 0
4, 7676, Note_off_c, 2, 77, 0
4, 7680, Note_on_c, 2, 88, 60
4, 7680, Note_on_c, 2, 79, 60
4, 7680, Note_on_c, 2, 76, 60
4, 8060, Note_off_c, 2, 88, 0
4, 8060, Note_off_c, 2, 79, 0
4, 8060, Note_off_c, 2, 76, 0
4, 8064, Note_on_c, 2, 72, 66
4, 8104, Note_off_c, 2, 72, 0
4, 8112, Note_on_c, 2, 74, 66
4, 8152, Note_off_c, 2, 74, 0
4, 8160, Note_on_c, 2, 72, 66
4, 8200, Note_off_c, 2, 72, 0
4, 8208, Note_on_c, 2, 74, 66
4, 8248, Note_off_c, 2, 74, 0
4, 8256, Note_on_c, 2, 72, 66
4, 8344, Note_off_c, 2, 72, 0
4, 8352, Note_on_c, 2, 74, 66
4, 8440, Note_off_c, 2, 74, 0
4, 8448, Note_on_c, 2, 76, 60
4, 8828, Note_off_c, 2, 76, 0
4, 8832, Note_on_c, 2, 76, 60
4, 9020, Note_off_c, 2, 76, 0
4, 9216, Note_on_c, 2, 76, 60
4, 9216, Note_on_c, 2, 67, 60
4, 10364, Note_off_c, 2, 76, 0
4, 10368, Note_on_c, 2, 78, 60
4, 10648, Note_off_c, 2, 78, 0
4, 10656, Note_on_c, 2, 79, 60
4, 10748, Note_off_c, 2, 67, 0
4, 10748, Note_off_c, 2, 79, 0
4, 10752, Note_on_c, 2, 79, 60
4, 10940, Note_off_c, 2, 79, 0
4, 11136, Note_on_c, 2, 83, 60
4, 11416, Note_off_c, 2, 83, 0
4, 11424, Note_on_c, 2, 84, 60
4, 11516, Note_off_c, 2, 84, 0
4, 11520, Note_on_c, 2, 84, 60
4, 11708, Note_off_c, 2, 84, 0
4, 11904, Note_on_c, 2, 76, 60
4, 12092, Note_off_c, 2, 76, 0
4, 12288, Note_on_c, 2, 73, 60
4, 12668, Note_off_c, 2, 73, 0
4, 12672, Note_on_c, 2, 74, 60
4, 12672, Note_on_c, 2, 71, 60
4, 12672, Note_on_c, 2, 67, 60
4, 12764, Note_off_c, 2, 71, 0
4, 12764, Note_off_c, 2, 67, 0
4, 12768, Note_on_c, 2, 72, 60
4, 12768, Note_on_c, 2, 69, 60
4, 12860, Note_off_c, 2, 72, 0
4, 12860, Note_off_c, 2, 69, 0
4, 12864, Note_on_c, 2, 71, 60
4, 12864, Note_on_c, 2, 67, 60
4, 12956, Note_off_c, 2, 71, 0
4, 12956, Note_off_c, 2, 67, 0
4, 12960, Note_on_c, 2, 72, 60
4, 12960, Note_on_c, 2, 69, 60
4, 13052, Note_off_c, 2, 74, 0
4, 13052, Note_off_c, 2, 72, 0
4, 13052, Note_off_c, 2, 69, 0
4, 13056, Note_on_c, 2, 74, 60
4, 13056, Note_on_c, 2, 71, 60
4, 13436, Note_off_c, 2, 74, 0
4, 13436, Note_off_c, 2, 71, 0
4, 13440, Note_on_c, 2, 79, 60
4, 13440, Note_on_c, 2, 83, 60
4, 13532, Note_off_c, 2, 79, 0
4, 13532, Note_off_c, 2, 83, 0
4, 13536, Note_on_c, 2, 81, 60
4, 13536, Note_on_c, 2, 84, 60
4, 13628, Note_off_c, 2, 81, 0
4, 13628, Note_off_c, 2, 84, 0
4, 13632, Note_on_c, 2, 79, 60
4, 13632, Note_on_c, 2, 83, 60
4, 13724, Note_off_c, 2, 79, 0
4, 13724, Note_off_c, 2, 83, 0
4, 13728, Note_on_c, 2, 84, 60
4, 13728, Note_on_c, 2, 81, 60
4, 13820, Note_off_c, 2, 84, 0
4, 13820, Note_off_c, 2, 81, 0
4, 13824, Note_on_c, 2, 83, 60
4, 13824, Note_on_c, 2, 86, 60
4, 14204, Note_off_c, 2, 83, 0
4, 14204, Note_off_c, 2, 86, 0
4, 14208, Note_on_c, 2, 83, 60
4, 14208, Note_on_c, 2, 71, 60
4, 14208, Note_on_c, 2, 67, 60
4, 14588, Note_off_c, 2, 83, 0
4, 14588, Note_off_c, 2, 71, 0
4, 14588, Note_off_c, 2, 67, 0
4, 14592, Note_on_c, 2, 81, 60
4, 14592, Note_on_c, 2, 72, 60
4, 14592, Note_on_c, 2, 69, 60
4, 14972, Note_off_c, 2, 81, 0
4, 14972, Note_off_c, 2, 72, 0
4, 14972, Note_off_c, 2, 69, 0
4, 14976, Note_on_c, 2, 79, 60
4, 14976, Note_on_c, 2, 74, 60
4, 14976, Note_on_c, 2, 71, 60
4, 15356, Note_off_c, 2, 79, 0
4, 15356, Note_off_c, 2, 74, 0
4, 15356, Note_off_c, 2, 71, 0
4, 15360, Note_on_c, 2, 84, 82
4, 15360, Note_on_c, 2, 74, 82
4, 15932, Note_off_c, 2, 84, 0
4, 15936, Note_on_c, 2, 83, 64
4, 15988, Note_off_c, 2, 83, 0
4, 16000, Note_on_c, 2, 81, 64
4, 16052, Note_off_c, 2, 81, 0
4, 16064, Note_on_c, 2, 79, 64
4, 16116, Note_off_c, 2, 79, 0
4, 16128, Note_on_c, 2, 74, 60
4, 16128, Note_on_c, 2, 78, 60
4, 16508, Note_off_c, 2, 74, 0
4, 16508, Note_off_c, 2, 74, 0
4, 16508, Note_off_c, 2, 78, 0
4, 16896, Note_on_c, 2, 74, 60
4, 17084, Note_off_c, 2, 74, 0
4, 17280, Note_on_c, 2, 83, 60
4, 17280, Note_on_c, 2, 71, 60
4, 17280, Note_on_c, 2, 67, 60
4, 17660, Note_off_c, 2, 83, 0
4, 17660, Note_off_c, 2, 71, 0
4, 17660, Note_off_c, 2, 67, 0
4, 17664, Note_on_c, 2, 81, 60
4, 17664, Note_on_c, 2, 72, 60
4, 17664, Note_on_c, 2, 69, 60
4, 18044, Note_off_c, 2, 81, 0
4, 18044, Note_off_c, 2, 72, 0
4, 18044, Note_off_c, 2, 69, 0
4, 18048, Note_on_c, 2, 79, 60
4, 18048, Note_on_c, 2, 74, 60
4, 18048, Note_on_c, 2, 71, 60
4, 18428, Note_off_c, 2, 79, 0
4, 18428, Note_off_c, 2, 74, 0
4, 18428, Note_off_c, 2, 71, 0
4, 18432, Note_on_c, 2, 84, 78
4, 18432, Note_on_c, 2, 74, 78
4, 19004, Note_off_c, 2, 84, 0
4, 19008, Note_on_c, 2, 83, 64
4, 19060, Note_off_c, 2, 83, 0
4, 19072, Note_on_c, 2, 81, 64
4, 19124, Note_off_c, 2, 81, 0
4, 19136, Note_on_c, 2, 79, 64
4, 19188, Note_off_c, 2, 79, 0
4, 19196, Note_off_c, 2, 74, 0
4, 19200, Note_on_c, 2, 74, 60
4, 19200, Note_on_c, 2, 78, 60
4, 19580, Note_off_c, 2, 74, 0
4, 19580, Note_off_c, 2, 78, 0
4, 19968, Note_on_c, 2, 76, 60
4, 19968, Note_on_c, 2, 72, 60
4, 21500, Note_off_c, 2, 76, 0
4, 21500, Note_off_c, 2, 72, 0
4, 21504, Note_on_c, 2, 74, 60
4, 21504, Note_on_c, 2, 71, 60
4, 23036, Note_off_c, 2, 74, 0
4, 23036, Note_off_c, 2, 71, 0
4, 23040, Note_on_c, 2, 74, 60
4, 23040, Note_on_c, 2, 71, 60
4, 23040, Note_on_c, 2, 64, 60
4, 23228, Note_off_c, 2, 74, 0
4, 23228, Note_off_c, 2, 71, 0
4, 23232, Note_on_c, 2, 72, 60
4, 23232, Note_on_c, 2, 69, 60
4, 23420, Note_off_c, 2, 72, 0
4, 23420, Note_off_c, 2, 69, 0
4, 23424, Note_on_c, 2, 71, 60
4, 23424, Note_on_c, 2, 67, 60
4, 23804, Note_off_c, 2, 64, 0
4, 23808, Note_on_c, 2, 62, 60
4, 24188, Note_off_c, 2, 71, 0
4, 24188, Note_off_c, 2, 67, 0
4, 24188, Note_off_c, 2, 62, 0
4, 24192, Note_on_c, 2, 69, 60
4, 24192, Note_on_c, 2, 66, 60
4, 24192, Note_on_c, 2, 60, 60
4, 24572, Note_off_c, 2, 69, 0
4, 24572, Note_off_c, 2, 66, 0
4, 24572, Note_off_c, 2, 60, 0
4, 24576, Note_on_c, 2, 79, 72
4, 24576, Note_on_c, 2, 74, 72
4, 24576, Note_on_c, 2, 71, 72
4, 24576, Note_on_c, 2, 67, 72
4, 26108, Note_off_c, 2, 79, 0
4, 26108, Note_off_c, 2, 74, 0
4, 26108, Note_off_c, 2, 71, 0
4, 26108, Note_off_c, 2, 67, 0
4, 26112, Note_on_c, 2, 81, 72
4, 26112, Note_on_c, 2, 79, 72
4, 26112, Note_on_c, 2, 76, 72
4, 26112, Note_on_c, 2, 72, 72
4, 26876, Note_off_c, 2, 79, 0
4, 26876, Note_off_c, 2, 76, 0
4, 26876, Note_off_c, 2, 72, 0
4, 26880, Note_on_c, 2, 77, 77
4, 26880, Note_on_c, 2, 74, 77
4, 27260, Note_off_c, 2, 81, 0
4, 27264, Note_on_c, 2, 83, 84
4, 27304, Note_off_c, 2, 83, 0
4, 27312, Note_on_c, 2, 84, 84
4, 27352, Note_off_c, 2, 84, 0
4, 27360, Note_on_c, 2, 83, 84
4, 27400, Note_off_c, 2, 83, 0
4, 27408, Note_on_c, 2, 84, 84
4, 27448, Note_off_c, 2, 84, 64
4, 27456, Note_on_c, 2, 81, 84
4, 27544, Note_off_c, 2, 81, 0
4, 27552, Note_on_c, 2, 83, 84
4, 27640, Note_off_c, 2, 83, 64
4, 27644, Note_off_c, 2, 77, 0
4, 27644, Note_off_c, 2, 74, 0
4, 27648, Note_on_c, 2, 84, 73
4, 27648, Note_on_c, 2, 76, 73
4, 27648, Note_on_c, 2, 72, 73
4, 27740, Note_off_c, 2, 84, 0
4, 27840, Note_on_c, 2, 81, 77
4, 27932, Note_off_c, 2, 81, 0
4, 28032, Note_on_c, 2, 76, 77
4, 28412, Note_off_c, 2, 76, 0
4, 28412, Note_off_c, 2, 72, 0
4, 28412, Note_off_c, 2, 76, 0
4, 28416, Note_on_c, 2, 72, 77
4, 28416, Note_on_c, 2, 69, 77
4, 28416, Note_on_c, 2, 76, 77
4, 28604, Note_off_c, 2, 76, 0
4, 28608, Note_on_c, 2, 79, 77
4, 28796, Note_off_c, 2, 79, 0
4, 28800, Note_on_c, 2, 78, 77
4, 28988, Note_off_c, 2, 78, 0
4, 28992, Note_on_c, 2, 81, 77
4, 29180, Note_off_c, 2, 72, 0
4, 29180, Note_off_c, 2, 69, 0
4, 29180, Note_off_c, 2, 81, 0
4, 29184, Note_on_c, 2, 79, 77
4, 29184, Note_on_c, 2, 71, 77
4, 29184, Note_on_c, 2, 67, 77
4, 29948, Note_off_c, 2, 71, 0
4, 29948, Note_off_c, 2, 67, 0
4, 29952, Note_on_c, 2, 74, 77
4, 29952, Note_on_c, 2, 71, 77
4, 30716, Note_off_c, 2, 79, 0
4, 30716, Note_off_c, 2, 74, 0
4, 30716, Note_off_c, 2, 71, 0
4, 30720, Note_on_c, 2, 80, 82
4, 30720, Note_on_c, 2, 76, 79
4, 30720, Note_on_c, 2, 72, 79
4, 30808, Note_off_c, 2, 80, 0
4, 30816, Note_on_c, 2, 81, 77
4, 31100, Note_off_c, 2, 81, 0
4, 31104, Note_on_c, 2, 81, 77
4, 31484, Note_off_c, 2, 76, 0
4, 31484, Note_off_c, 2, 72, 0
4, 31488, Note_on_c, 2, 77, 77
4, 31488, Note_on_c, 2, 74, 77
4, 31868, Note_off_c, 2, 81, 0
4, 31872, Note_on_c, 2, 83, 81
4, 31912, Note_off_c, 2, 83, 0
4, 31920, Note_on_c, 2, 84, 81
4, 31960, Note_off_c, 2, 84, 0
4, 31968, Note_on_c, 2, 83, 81
4, 32008, Note_off_c, 2, 83, 0
4, 32016, Note_on_c, 2, 84, 81
4, 32056, Note_off_c, 2, 84, 0
4, 32064, Note_on_c, 2, 81, 81
4, 32152, Note_off_c, 2, 81, 0
4, 32160, Note_on_c, 2, 83, 81
4, 32248, Note_off_c, 2, 83, 0
4, 32252, Note_off_c, 2, 77, 0
4, 32252, Note_off_c, 2, 74, 0
4, 32256, Note_on_c, 2, 84, 73
4, 32256, Note_on_c, 2, 76, 73
4, 32256, Note_on_c, 2, 72, 73
4, 32348, Note_off_c, 2, 84, 0
4, 32448, Note_on_c, 2, 81, 77
4, 32540, Note_off_c, 2, 81, 0
4, 32640, Note_on_c, 2, 76, 77
4, 33020, Note_off_c, 2, 76, 0
4, 33020, Note_off_c, 2, 72, 0
4, 33020, Note_off_c, 2, 76, 0
4, 33024, Note_on_c, 2, 72, 77
4, 33024, Note_on_c, 2, 69, 77
4, 33024, Note_on_c, 2, 76, 77
4, 33212, Note_off_c, 2, 76, 0
4, 33216, Note_on_c, 2, 79, 77
4, 33404, Note_off_c, 2, 79, 0
4, 33408, Note_on_c, 2, 78, 77
4, 33596, Note_off_c, 2, 78, 0
4, 33600, Note_on_c, 2, 81, 77
4, 33788, Note_off_c, 2, 72, 0
4, 33788, Note_off_c, 2, 69, 0
4, 33788, Note_off_c, 2, 81, 0
4, 33792, Note_on_c, 2, 71, 77
4, 33792, Note_on_c, 2, 79, 77
4, 33884, Note_off_c, 2, 79, 0
4, 33888, Note_on_c, 2, 81, 77
4, 33980, Note_off_c, 2, 81, 0
4, 33984, Note_on_c, 2, 83, 77
4, 34076, Note_off_c, 2, 83, 0
4, 34080, Note_on_c, 2, 81, 77
4, 34172, Note_off_c, 2, 71, 0
4, 34172, Note_off_c, 2, 81, 0
4, 34176, Note_on_c, 2, 79, 77
4, 34268, Note_off_c, 2, 79, 0
4, 34272, Note_on_c, 2, 78, 77
4, 34364, Note_off_c, 2, 78, 0
4, 34368, Note_on_c, 2, 76, 77
4, 34460, Note_off_c, 2, 76, 0
4, 34464, Note_on_c, 2, 74, 77
4, 34556, Note_off_c, 2, 74, 0
4, 34560, Note_on_c, 2, 72, 77
4, 34652, Note_off_c, 2, 72, 0
4, 34656, Note_on_c, 2, 71, 77
4, 34748, Note_off_c, 2, 71, 0
4, 34752, Note_on_c, 2, 69, 77
4, 34844, Note_off_c, 2, 69, 0
4, 34848, Note_on_c, 2, 71, 77
4, 34940, Note_off_c, 2, 71, 0
4, 34944, Note_on_c, 2, 72, 77
4, 35036, Note_off_c, 2, 72, 0
4, 35040, Note_on_c, 2, 74, 77
4, 35132, Note_off_c, 2, 74, 0
4, 35136, Note_on_c, 2, 76, 77
4, 35228, Note_off_c, 2, 76, 0
4, 35232, Note_on_c, 2, 78, 77
4, 35324, Note_off_c, 2, 78, 0
4, 35328, Note_on_c, 2, 79, 77
4, 35420, Note_off_c, 2, 79, 0
4, 35424, Note_on_c, 2, 81, 77
4, 35516, Note_off_c, 2, 81, 0
4, 35520, Note_on_c, 2, 83, 77
4, 35612, Note_off_c, 2, 83, 0
4, 35616, Note_on_c, 2, 81, 77
4, 35708, Note_off_c, 2, 81, 0
4, 35712, Note_on_c, 2, 79, 77
4, 35804, Note_off_c, 2, 79, 0
4, 35808, Note_on_c, 2, 78, 77
4, 35900, Note_off_c, 2, 78, 0
4, 35904, Note_on_c, 2, 76, 77
4, 35996, Note_off_c, 2, 76, 0
4, 36000, Note_on_c, 2, 74, 77
4, 36092, Note_off_c, 2, 74, 0
4, 36096, Note_on_c, 2, 72, 77
4, 36188, Note_off_c, 2, 72, 0
4, 36192, Note_on_c, 2, 71, 77
4, 36284, Note_off_c, 2, 71, 0
4, 36288, Note_on_c, 2, 69, 77
4, 36380, Note_off_c, 2, 69, 0
4, 36384, Note_on_c, 2, 71, 77
4, 36476, Note_off_c, 2, 71, 0
4, 36480, Note_on_c, 2, 72, 77
4, 36572, Note_off_c, 2, 72, 0
4, 36576, Note_on_c, 2, 74, 77
4, 36668, Note_off_c, 2, 74, 0
4, 36672, Note_on_c, 2, 76, 77
4, 36764, Note_off_c, 2, 76, 0
4, 36768, Note_on_c, 2, 78, 77
4, 36860, Note_off_c, 2, 78, 0
4, 36864, Note_on_c, 2, 79, 77
4, 36956, Note_off_c, 2, 79, 0
4, 36960, Note_on_c, 2, 81, 77
4, 37052, Note_off_c, 2, 81, 0
4, 37056, Note_on_c, 2, 83, 77
4, 37148, Note_off_c, 2, 83, 0
4, 37152, Note_on_c, 2, 81, 77
4, 37244, Note_off_c, 2, 81, 0
4, 37248, Note_on_c, 2, 79, 77
4, 37340, Note_off_c, 2, 79, 0
4, 37344, Note_on_c, 2, 78, 77
4, 37436, Note_off_c, 2, 78, 0
4, 37440, Note_on_c, 2, 76, 77
4, 37532, Note_off_c, 2, 76, 0
4, 37536, Note_on_c, 2, 74, 77
4, 37628, Note_off_c, 2, 74, 0
4, 37632, Note_on_c, 2, 88, 81
4, 37724, Note_off_c, 2, 88, 0
4, 37728, Note_on_c, 2, 86, 80
4, 37820, Note_off_c, 2, 86, 0
4, 37824, Note_on_c, 2, 84, 79
4, 37916, Note_off_c, 2, 84, 0
4, 37920, Note_on_c, 2, 83, 79
4, 38012, Note_off_c, 2, 83, 0
4, 38016, Note_on_c, 2, 81, 78
4, 38108, Note_off_c, 2, 81, 0
4, 38112, Note_on_c, 2, 79, 78
4, 38204, Note_off_c, 2, 79, 0
4, 38208, Note_on_c, 2, 78, 77
4, 38300, Note_off_c, 2, 78, 0
4, 38304, Note_on_c, 2, 76, 77
4, 38396, Note_off_c, 2, 76, 0
4, 38400, Note_on_c, 2, 74, 77
4, 38780, Note_off_c, 2, 74, 0
4, 38976, Note_on_c, 2, 74, 77
4, 39164, Note_off_c, 2, 74, 0
4, 39168, Note_on_c, 2, 84, 77
4, 39552, Note_on_c, 2, 72, 77
4, 39740, Note_off_c, 2, 84, 0
4, 39744, Note_on_c, 2, 83, 77
4, 39836, Note_off_c, 2, 83, 0
4, 39936, Note_on_c, 2, 81, 77
4, 40124, Note_off_c, 2, 72, 0
4, 40124, Note_off_c, 2, 81, 0
4, 40320, Note_on_c, 2, 79, 77
4, 40320, Note_on_c, 2, 71, 77
4, 40508, Note_off_c, 2, 79, 0
4, 40508, Note_off_c, 2, 71, 0
4, 40704, Note_on_c, 2, 78, 77
4, 40704, Note_on_c, 2, 72, 77
4, 40892, Note_off_c, 2, 78, 0
4, 40892, Note_off_c, 2, 72, 0
4, 41088, Note_on_c, 2, 71, 77
4, 41088, Note_on_c, 2, 79, 81
4, 41128, Note_off_c, 2, 79, 0
4, 41136, Note_on_c, 2, 81, 81
4, 41176, Note_off_c, 2, 81, 0
4, 41184, Note_on_c, 2, 79, 81
4, 41224, Note_off_c, 2, 79, 0
4, 41232, Note_on_c, 2, 81, 81
4, 41272, Note_off_c, 2, 81, 0
4, 41280, Note_on_c, 2, 78, 81
4, 41368, Note_off_c, 2, 78, 0
4, 41376, Note_on_c, 2, 79, 81
4, 41464, Note_off_c, 2, 79, 0
4, 41468, Note_off_c, 2, 71, 0
4, 41472, Note_on_c, 2, 81, 77
4, 41472, Note_on_c, 2, 78, 77
4, 41472, Note_on_c, 2, 69, 77
4, 41564, Note_off_c, 2, 81, 0
4, 41564, Note_off_c, 2, 78, 0
4, 41664, Note_on_c, 2, 74, 77
4, 41756, Note_off_c, 2, 74, 0
4, 41852, Note_off_c, 2, 69, 0
4, 41856, Note_on_c, 2, 84, 81
4, 42428, Note_off_c, 2, 84, 0
4, 42432, Note_on_c, 2, 83, 77
4, 42524, Note_off_c, 2, 83, 0
4, 42624, Note_on_c, 2, 81, 77
4, 42624, Note_on_c, 2, 74, 77
4, 42624, Note_on_c, 2, 72, 77
4, 42716, Note_off_c, 2, 81, 0
4, 42816, Note_on_c, 2, 79, 77
4, 42908, Note_off_c, 2, 79, 0
4, 43008, Note_on_c, 2, 78, 77
4, 43196, Note_off_c, 2, 78, 0
4, 43388, Note_off_c, 2, 72, 64
4, 43388, Note_off_c, 2, 74, 64
4, 43392, Note_on_c, 2, 79, 77
4, 43392, Note_on_c, 2, 74, 77
4, 43392, Note_on_c, 2, 71, 77
4, 43580, Note_off_c, 2, 79, 0
4, 43580, Note_off_c, 2, 74, 0
4, 43580, Note_off_c, 2, 71, 0
4, 43776, Note_on_c, 2, 81, 77
4, 43776, Note_on_c, 2, 74, 77
4, 43776, Note_on_c, 2, 69, 77
4, 43964, Note_off_c, 2, 81, 0
4, 43964, Note_off_c, 2, 74, 0
4, 43964, Note_off_c, 2, 69, 0
4, 44160, Note_on_c, 2, 83, 77
4, 44160, Note_on_c, 2, 74, 77
4, 44160, Note_on_c, 2, 71, 77
4, 44348, Note_off_c, 2, 83, 0
4, 44348, Note_off_c, 2, 74, 0
4, 44348, Note_off_c, 2, 71, 0
4, 44544, Note_on_c, 2, 81, 77
4, 44544, Note_on_c, 2, 74, 77
4, 44544, Note_on_c, 2, 69, 77
4, 44732, Note_off_c, 2, 81, 0
4, 44732, Note_off_c, 2, 74, 0
4, 44732, Note_off_c, 2, 69, 0
4, 44736, Note_on_c, 2, 74, 77
4, 44828, Note_off_c, 2, 74, 0
4, 44928, Note_on_c, 2, 78, 77
4, 45020, Note_off_c, 2, 78, 0
4, 45120, Note_on_c, 2, 81, 77
4, 45212, Note_off_c, 2, 81, 0
4, 45312, Note_on_c, 2, 85, 77
4, 45500, Note_off_c, 2, 85, 0
4, 45504, Note_on_c, 2, 86, 77
4, 45692, Note_off_c, 2, 86, 0
4, 45696, Note_on_c, 2, 74, 77
4, 45788, Note_off_c, 2, 74, 0
4, 45888, Note_on_c, 2, 86, 77
4, 45980, Note_off_c, 2, 86, 0
4, 46080, Note_on_c, 2, 74, 77
4, 46268, Note_off_c, 2, 74, 0
4, 46272, Note_on_c, 2, 74, 77
4, 46364, Note_off_c, 2, 74, 0
4, 46464, Note_on_c, 2, 78, 77
4, 46556, Note_off_c, 2, 78, 0
4, 46656, Note_on_c, 2, 81, 77
4, 46748, Note_off_c, 2, 81, 0
4, 46848, Note_on_c, 2, 85, 77
4, 47036, Note_off_c, 2, 85, 0
4, 47040, Note_on_c, 2, 86, 77
4, 47228, Note_off_c, 2, 86, 0
4, 47232, Note_on_c, 2, 74, 77
4, 47324, Note_off_c, 2, 74, 0
4, 47424, Note_on_c, 2, 86, 77
4, 47516, Note_off_c, 2, 86, 0
4, 47616, Note_on_c, 2, 74, 60
4, 47996, Note_off_c, 2, 74, 0
4, 49152, Note_on_c, 2, 62, 60
4, 50684, Note_off_c, 2, 62, 0
4, 50688, Note_on_c, 2, 74, 60
4, 50688, Note_on_c, 2, 67, 60
4, 50688, Note_on_c, 2, 62, 60
4, 50876, Note_off_c, 2, 74, 0
4, 50876, Note_off_c, 2, 67, 0
4, 50876, Note_off_c, 2, 62, 0
4, 50880, Note_on_c, 2, 74, 60
4, 50972, Note_off_c, 2, 74, 0
4, 51072, Note_on_c, 2, 79, 60
4, 51164, Note_off_c, 2, 79, 0
4, 51264, Note_on_c, 2, 83, 60
4, 51356, Note_off_c, 2, 83, 0
4, 51456, Note_on_c, 2, 85, 60
4, 51644, Note_off_c, 2, 85, 0
4, 51648, Note_on_c, 2, 86, 60
4, 51836, Note_off_c, 2, 86, 0
4, 51840, Note_on_c, 2, 74, 60
4, 51932, Note_off_c, 2, 74, 0
4, 52032, Note_on_c, 2, 86, 60
4, 52124, Note_off_c, 2, 86, 0
4, 52224, Note_on_c, 2, 78, 60
4, 52224, Note_on_c, 2, 72, 60
4, 52224, Note_on_c, 2, 66, 60
4, 52412, Note_off_c, 2, 78, 0
4, 52412, Note_off_c, 2, 72, 0
4, 52412, Note_off_c, 2, 66, 0
4, 52416, Note_on_c, 2, 72, 60
4, 52508, Note_off_c, 2, 72, 0
4, 52608, Note_on_c, 2, 78, 60
4, 52700, Note_off_c, 2, 78, 0
4, 52800, Note_on_c, 2, 81, 60
4, 52892, Note_off_c, 2, 81, 0
4, 52992, Note_on_c, 2, 83, 60
4, 53180, Note_off_c, 2, 83, 0
4, 53184, Note_on_c, 2, 84, 60
4, 53372, Note_off_c, 2, 84, 0
4, 53376, Note_on_c, 2, 72, 60
4, 53468, Note_off_c, 2, 72, 0
4, 53568, Note_on_c, 2, 84, 60
4, 53660, Note_off_c, 2, 84, 0
4, 53760, Note_on_c, 2, 83, 60
4, 53760, Note_on_c, 2, 79, 60
4, 53760, Note_on_c, 2, 74, 60
4, 53760, Note_on_c, 2, 71, 60
4, 54140, Note_off_c, 2, 83, 0
4, 54140, Note_off_c, 2, 79, 0
4, 54140, Note_off_c, 2, 74, 0
4, 54140, Note_off_c, 2, 71, 0
4, 54144, Note_on_c, 2, 71, 60
4, 54528, Note_on_c, 2, 69, 60
4, 54528, Note_on_c, 2, 63, 60
4, 54908, Note_off_c, 2, 71, 0
4, 54912, Note_on_c, 2, 71, 60
4, 55292, Note_off_c, 2, 69, 0
4, 55292, Note_off_c, 2, 63, 0
4, 55292, Note_off_c, 2, 71, 0
4, 55296, Note_on_c, 2, 72, 60
4, 55296, Note_on_c, 2, 67, 60
4, 55296, Note_on_c, 2, 64, 60
4, 55484, Note_off_c, 2, 72, 0
4, 55488, Note_on_c, 2, 71, 60
4, 55676, Note_off_c, 2, 71, 0
4, 55680, Note_on_c, 2, 71, 60
4, 56060, Note_off_c, 2, 67, 0
4, 56060, Note_off_c, 2, 64, 0
4, 56060, Note_off_c, 2, 71, 0
4, 56064, Note_on_c, 2, 68, 60
4, 56064, Note_on_c, 2, 64, 60
4, 56448, Note_on_c, 2, 71, 60
4, 56828, Note_off_c, 2, 68, 0
4, 56828, Note_off_c, 2, 64, 0
4, 56828, Note_off_c, 2, 71, 0
4, 56832, Note_on_c, 2, 76, 60
4, 56832, Note_on_c, 2, 69, 60
4, 56832, Note_on_c, 2, 64, 60
4, 57212, Note_off_c, 2, 76, 0
4, 57216, Note_on_c, 2, 76, 60
4, 57596, Note_off_c, 2, 69, 0
4, 57596, Note_off_c, 2, 64, 0
4, 57600, Note_on_c, 2, 68, 60
4, 57600, Note_on_c, 2, 62, 60
4, 57980, Note_off_c, 2, 76, 0
4, 57984, Note_on_c, 2, 76, 60
4, 58364, Note_off_c, 2, 68, 0
4, 58364, Note_off_c, 2, 62, 0
4, 58364, Note_off_c, 2, 76, 0
4, 58368, Note_on_c, 2, 77, 60
4, 58368, Note_on_c, 2, 72, 60
4, 58368, Note_on_c, 2, 69, 60
4, 58556, Note_off_c, 2, 77, 0
4, 58560, Note_on_c, 2, 76, 60
4, 58748, Note_off_c, 2, 76, 0
4, 58752, Note_on_c, 2, 76, 60
4, 59132, Note_off_c, 2, 72, 0
4, 59132, Note_off_c, 2, 69, 0
4, 59132, Note_off_c, 2, 76, 0
4, 59136, Note_on_c, 2, 73, 60
4, 59136, Note_on_c, 2, 69, 60
4, 59900, Note_off_c, 2, 73, 0
4, 59900, Note_off_c, 2, 69, 0
4, 59904, Note_on_c, 2, 81, 60
4, 59904, Note_on_c, 2, 74, 60
4, 59904, Note_on_c, 2, 69, 60
4, 60668, Note_off_c, 2, 74, 0
4, 60668, Note_off_c, 2, 69, 0
4, 60672, Note_on_c, 2, 73, 60
4, 60672, Note_on_c, 2, 69, 60
4, 61052, Note_off_c, 2, 81, 0
4, 61056, Note_on_c, 2, 83, 60
4, 61244, Note_off_c, 2, 83, 0
4, 61248, Note_on_c, 2, 79, 60
4, 61436, Note_off_c, 2, 73, 0
4, 61436, Note_off_c, 2, 69, 0
4, 61436, Note_off_c, 2, 79, 0
4, 61440, Note_on_c, 2, 79, 60
4, 61440, Note_on_c, 2, 73, 60
4, 61440, Note_on_c, 2, 69, 60
4, 61628, Note_off_c, 2, 79, 0
4, 61628, Note_off_c, 2, 73, 0
4, 61632, Note_on_c, 2, 78, 60
4, 61632, Note_on_c, 2, 74, 60
4, 61820, Note_off_c, 2, 69, 0
4, 61820, Note_off_c, 2, 78, 0
4, 61820, Note_off_c, 2, 74, 0
4, 61824, Note_on_c, 2, 79, 60
4, 61824, Note_on_c, 2, 76, 60
4, 61916, Note_off_c, 2, 79, 0
4, 61916, Note_off_c, 2, 76, 0
4, 62016, Note_on_c, 2, 76, 60
4, 62016, Note_on_c, 2, 72, 60
4, 62108, Note_off_c, 2, 76, 0
4, 62108, Note_off_c, 2, 72, 0
4, 62208, Note_on_c, 2, 76, 60
4, 62208, Note_on_c, 2, 72, 60
4, 62396, Note_off_c, 2, 76, 0
4, 62396, Note_off_c, 2, 72, 0
4, 62400, Note_on_c, 2, 74, 60
4, 62400, Note_on_c, 2, 71, 60
4, 62588, Note_off_c, 2, 74, 0
4, 62588, Note_off_c, 2, 71, 0
4, 62592, Note_on_c, 2, 76, 60
4, 62592, Note_on_c, 2, 72, 60
4, 62592, Note_on_c, 2, 69, 60
4, 62684, Note_off_c, 2, 76, 0
4, 62684, Note_off_c, 2, 72, 0
4, 62784, Note_on_c, 2, 72, 60
4, 62784, Note_on_c, 2, 64, 60
4, 62876, Note_off_c, 2, 72, 0
4, 62876, Note_off_c, 2, 64, 0
4, 62972, Note_off_c, 2, 69, 0
4, 62976, Note_on_c, 2, 72, 60
4, 62976, Note_on_c, 2, 64, 60
4, 63164, Note_off_c, 2, 72, 0
4, 63164, Note_off_c, 2, 64, 0
4, 63168, Note_on_c, 2, 71, 60
4, 63168, Note_on_c, 2, 62, 60
4, 63356, Note_off_c, 2, 71, 0
4, 63356, Note_off_c, 2, 62, 0
4, 63360, Note_on_c, 2, 72, 60
4, 63360, Note_on_c, 2, 64, 60
4, 63452, Note_off_c, 2, 72, 0
4, 63452, Note_off_c, 2, 64, 0
4, 63552, Note_on_c, 2, 69, 60
4, 63552, Note_on_c, 2, 60, 60
4, 63644, Note_off_c, 2, 69, 0
4, 63644, Note_off_c, 2, 60, 0
4, 63744, Note_on_c, 2, 69, 60
4, 63744, Note_on_c, 2, 60, 60
4, 63932, Note_off_c, 2, 69, 0
4, 63932, Note_off_c, 2, 60, 0
4, 63936, Note_on_c, 2, 67, 60
4, 63936, Note_on_c, 2, 59, 60
4, 64124, Note_off_c, 2, 67, 0
4, 64124, Note_off_c, 2, 59, 0
4, 64128, Note_on_c, 2, 67, 60
4, 64128, Note_on_c, 2, 59, 60
4, 64316, Note_off_c, 2, 67, 0
4, 64316, Note_off_c, 2, 59, 0
4, 64320, Note_on_c, 2, 66, 60
4, 64320, Note_on_c, 2, 57, 60
4, 64508, Note_off_c, 2, 66, 0
4, 64508, Note_off_c, 2, 57, 0
4, 64512, Note_on_c, 2, 83, 60
4, 64512, Note_on_c, 2, 71, 60
4, 65660, Note_off_c, 2, 83, 0
4, 65660, Note_off_c, 2, 71, 0
4, 65664, Note_on_c, 2, 83, 60
4, 65664, Note_on_c, 2, 71, 60
4, 66044, Note_off_c, 2, 83, 0
4, 66044, Note_off_c, 2, 71, 0
4, 66048, Note_on_c, 2, 84, 60
4, 66048, Note_on_c, 2, 72, 60
4, 66236, Note_off_c, 2, 84, 0
4, 66236, Note_off_c, 2, 72, 0
4, 66240, Note_on_c, 2, 83, 60
4, 66240, Note_on_c, 2, 71, 60
4, 66428, Note_off_c, 2, 83, 0
4, 66428, Note_off_c, 2, 71, 0
4, 66432, Note_on_c, 2, 83, 60
4, 66432, Note_on_c, 2, 71, 60
4, 66812, Note_off_c, 2, 83, 0
4, 66812, Note_off_c, 2, 71, 0
4, 66816, Note_on_c, 2, 72, 60
4, 67004, Note_off_c, 2, 72, 0
4, 67008, Note_on_c, 2, 71, 60
4, 67196, Note_off_c, 2, 71, 0
4, 67200, Note_on_c, 2, 71, 60
4, 67580, Note_off_c, 2, 71, 0
4, 67584, Note_on_c, 2, 88, 60
4, 67584, Note_on_c, 2, 76, 60
4, 68732, Note_off_c, 2, 88, 0
4, 68732, Note_off_c, 2, 76, 0
4, 68736, Note_on_c, 2, 88, 60
4, 68736, Note_on_c, 2, 76, 60
4, 69116, Note_off_c, 2, 88, 0
4, 69116, Note_off_c, 2, 76, 0
4, 69120, Note_on_c, 2, 89, 60
4, 69120, Note_on_c, 2, 77, 60
4, 69308, Note_off_c, 2, 89, 0
4, 69308, Note_off_c, 2, 77, 0
4, 69312, Note_on_c, 2, 88, 60
4, 69312, Note_on_c, 2, 76, 60
4, 69500, Note_off_c, 2, 88, 0
4, 69500, Note_off_c, 2, 76, 0
4, 69504, Note_on_c, 2, 88, 60
4, 69504, Note_on_c, 2, 76, 60
4, 69884, Note_off_c, 2, 88, 0
4, 69884, Note_off_c, 2, 76, 0
4, 69888, Note_on_c, 2, 77, 60
4, 70076, Note_off_c, 2, 77, 0
4, 70080, Note_on_c, 2, 76, 60
4, 70268, Note_off_c, 2, 76, 0
4, 70272, Note_on_c, 2, 76, 60
4, 70652, Note_off_c, 2, 76, 0
4, 70656, Note_on_c, 2, 81, 60
4, 70656, Note_on_c, 2, 69, 60
4, 71804, Note_off_c, 2, 81, 0
4, 71804, Note_off_c, 2, 69, 0
4, 71808, Note_on_c, 2, 83, 60
4, 71996, Note_off_c, 2, 83, 0
4, 72000, Note_on_c, 2, 79, 60
4, 72188, Note_off_c, 2, 79, 0
4, 72192, Note_on_c, 2, 79, 60
4, 72192, Note_on_c, 2, 73, 60
4, 72192, Note_on_c, 2, 69, 60
4, 72380, Note_off_c, 2, 79, 0
4, 72380, Note_off_c, 2, 73, 0
4, 72380, Note_off_c, 2, 69, 0
4, 72384, Note_on_c, 2, 78, 60
4, 72384, Note_on_c, 2, 74, 60
4, 72572, Note_off_c, 2, 78, 0
4, 72572, Note_off_c, 2, 74, 0
4, 72576, Note_on_c, 2, 79, 60
4, 72576, Note_on_c, 2, 76, 60
4, 72668, Note_off_c, 2, 79, 0
4, 72668, Note_off_c, 2, 76, 0
4, 72768, Note_on_c, 2, 76, 60
4, 72768, Note_on_c, 2, 72, 60
4, 72860, Note_off_c, 2, 76, 0
4, 72860, Note_off_c, 2, 72, 0
4, 72960, Note_on_c, 2, 76, 60
4, 72960, Note_on_c, 2, 72, 60
4, 73148, Note_off_c, 2, 76, 0
4, 73148, Note_off_c, 2, 72, 0
4, 73152, Note_on_c, 2, 74, 60
4, 73152, Note_on_c, 2, 71, 60
4, 73340, Note_off_c, 2, 74, 0
4, 73340, Note_off_c, 2, 71, 0
4, 73344, Note_on_c, 2, 76, 60
4, 73344, Note_on_c, 2, 72, 60
4, 73436, Note_off_c, 2, 76, 0
4, 73436, Note_off_c, 2, 72, 0
4, 73536, Note_on_c, 2, 72, 60
4, 73536, Note_on_c, 2, 69, 60
4, 73628, Note_off_c, 2, 72, 0
4, 73628, Note_off_c, 2, 69, 0
4, 73728, Note_on_c, 2, 72, 60
4, 73728, Note_on_c, 2, 69, 60
4, 73916, Note_off_c, 2, 72, 0
4, 73916, Note_off_c, 2, 69, 0
4, 73920, Note_on_c, 2, 71, 60
4, 73920, Note_on_c, 2, 67, 60
4, 74108, Note_off_c, 2, 71, 0
4, 74108, Note_off_c, 2, 67, 0
4, 74112, Note_on_c, 2, 76, 60
4, 74112, Note_on_c, 2, 72, 60
4, 74204, Note_off_c, 2, 76, 0
4, 74204, Note_off_c, 2, 72, 0
4, 74304, Note_on_c, 2, 72, 60
4, 74304, Note_on_c, 2, 69, 60
4, 74396, Note_off_c, 2, 72, 0
4, 74396, Note_off_c, 2, 69, 0
4, 74496, Note_on_c, 2, 72, 60
4, 74496, Note_on_c, 2, 69, 60
4, 74684, Note_off_c, 2, 72, 0
4, 74684, Note_off_c, 2, 69, 0
4, 74688, Note_on_c, 2, 71, 60
4, 74688, Note_on_c, 2, 67, 60
4, 74876, Note_off_c, 2, 71, 0
4, 74876, Note_off_c, 2, 67, 0
4, 74880, Note_on_c, 2, 72, 60
4, 74880, Note_on_c, 2, 69, 60
4, 74972, Note_off_c, 2, 72, 0
4, 74972, Note_off_c, 2, 69, 0
4, 75072, Note_on_c, 2, 69, 60
4, 75072, Note_on_c, 2, 66, 60
4, 75164, Note_off_c, 2, 69, 0
4, 75164, Note_off_c, 2, 66, 0
4, 75264, Note_on_c, 2, 67, 62
4, 75452, Note_off_c, 2, 67, 0
4, 75648, Note_on_c, 2, 70, 64
4, 75836, Note_off_c, 2, 70, 0
4, 76032, Note_on_c, 2, 75, 66
4, 76220, Note_off_c, 2, 75, 0
4, 76416, Note_on_c, 2, 79, 68
4, 76604, Note_off_c, 2, 79, 0
4, 76800, Note_on_c, 2, 82, 73
4, 76800, Note_on_c, 2, 80, 73
4, 76800, Note_on_c, 2, 77, 73
4, 76800, Note_on_c, 2, 70, 73
4, 77180, Note_off_c, 2, 82, 0
4, 77180, Note_off_c, 2, 80, 0
4, 77180, Note_off_c, 2, 77, 0
4, 77180, Note_off_c, 2, 70, 0
4, 77184, Note_on_c, 2, 68, 86
4, 77224, Note_off_c, 2, 68, 0
4, 77232, Note_on_c, 2, 70, 86
4, 77272, Note_off_c, 2, 70, 0
4, 77280, Note_on_c, 2, 68, 86
4, 77320, Note_off_c, 2, 68, 0
4, 77328, Note_on_c, 2, 70, 86
4, 77368, Note_off_c, 2, 70, 0
4, 77376, Note_on_c, 2, 68, 86
4, 77416, Note_off_c, 2, 68, 0
4, 77424, Note_on_c, 2, 70, 86
4, 77464, Note_off_c, 2, 70, 0
4, 77472, Note_on_c, 2, 68, 86
4, 77512, Note_off_c, 2, 68, 0
4, 77520, Note_on_c, 2, 70, 86
4, 77560, Note_off_c, 2, 70, 0
4, 77568, Note_on_c, 2, 68, 86
4, 77608, Note_off_c, 2, 68, 0
4, 77616, Note_on_c, 2, 70, 86
4, 77656, Note_off_c, 2, 70, 0
4, 77664, Note_on_c, 2, 68, 86
4, 77704, Note_off_c, 2, 68, 0
4, 77712, Note_on_c, 2, 70, 86
4, 77752, Note_off_c, 2, 70, 0
4, 77760, Note_on_c, 2, 68, 86
4, 77800, Note_off_c, 2, 68, 0
4, 77808, Note_on_c, 2, 70, 86
4, 77848, Note_off_c, 2, 70, 0
4, 77856, Note_on_c, 2, 68, 86
4, 77896, Note_off_c, 2, 68, 0
4, 77904, Note_on_c, 2, 70, 86
4, 77944, Note_off_c, 2, 70, 0
4, 77952, Note_on_c, 2, 68, 86
4, 77992, Note_off_c, 2, 68, 0
4, 78000, Note_on_c, 2, 70, 86
4, 78040, Note_off_c, 2, 70, 0
4, 78048, Note_on_c, 2, 68, 86
4, 78088, Note_off_c, 2, 68, 0
4, 78096, Note_on_c, 2, 70, 86
4, 78136, Note_off_c, 2, 70, 0
4, 78144, Note_on_c, 2, 67, 86
4, 78232, Note_off_c, 2, 67, 0
4, 78240, Note_on_c, 2, 68, 86
4, 78328, Note_off_c, 2, 68, 0
4, 78336, Note_on_c, 2, 67, 62
4, 78524, Note_off_c, 2, 67, 0
4, 78720, Note_on_c, 2, 70, 64
4, 78908, Note_off_c, 2, 70, 0
4, 79104, Note_on_c, 2, 75, 66
4, 79292, Note_off_c, 2, 75, 0
4, 79488, Note_on_c, 2, 79, 68
4, 79676, Note_off_c, 2, 79, 0
4, 79872, Note_on_c, 2, 82, 73
4, 79872, Note_on_c, 2, 80, 73
4, 79872, Note_on_c, 2, 77, 73
4, 79872, Note_on_c, 2, 70, 73
4, 80252, Note_off_c, 2, 82, 0
4, 80252, Note_off_c, 2, 80, 0
4, 80252, Note_off_c, 2, 77, 0
4, 80252, Note_off_c, 2, 70, 0
4, 80256, Note_on_c, 2, 68, 86
4, 80296, Note_off_c, 2, 68, 0
4, 80304, Note_on_c, 2, 70, 86
4, 80344, Note_off_c, 2, 70, 0
4, 80352, Note_on_c, 2, 68, 86
4, 80392, Note_off_c, 2, 68, 0
4, 80400, Note_on_c, 2, 70, 86
4, 80440, Note_off_c, 2, 70, 0
4, 80448, Note_on_c, 2, 68, 86
4, 80488, Note_off_c, 2, 68, 0
4, 80496, Note_on_c, 2, 70, 86
4, 80536, Note_off_c, 2, 70, 0
4, 80544, Note_on_c, 2, 68, 86
4, 80584, Note_off_c, 2, 68, 0
4, 80592, Note_on_c, 2, 70, 86
4, 80632, Note_off_c, 2, 70, 0
4, 80640, Note_on_c, 2, 68, 86
4, 80680, Note_off_c, 2, 68, 0
4, 80688, Note_on_c, 2, 70, 86
4, 80728, Note_off_c, 2, 70, 0
4, 80736, Note_on_c, 2, 68, 86
4, 80776, Note_off_c, 2, 68, 0
4, 80784, Note_on_c, 2, 70, 86
4, 80824, Note_off_c, 2, 70, 0
4, 80832, Note_on_c, 2, 68, 86
4, 80872, Note_off_c, 2, 68, 0
4, 80880, Note_on_c, 2, 70, 86
4, 80920, Note_off_c, 2, 70, 0
4, 80928, Note_on_c, 2, 68, 86
4, 80968, Note_off_c, 2, 68, 0
4, 80976, Note_on_c, 2, 70, 86
4, 81016, Note_off_c, 2, 70, 0
4, 81024, Note_on_c, 2, 68, 86
4, 81064, Note_off_c, 2, 68, 0
4, 81072, Note_on_c, 2, 70, 86
4, 81112, Note_off_c, 2, 70, 0
4, 81120, Note_on_c, 2, 68, 86
4, 81160, Note_off_c, 2, 68, 0
4, 81168, Note_on_c, 2, 70, 86
4, 81208, Note_off_c, 2, 70, 0
4, 81216, Note_on_c, 2, 67, 86
4, 81304, Note_off_c, 2, 67, 0
4, 81312, Note_on_c, 2, 68, 86
4, 81400, Note_off_c, 2, 68, 0
4, 81408, Note_on_c, 2, 67, 82
4, 81408, Note_on_c, 2, 67, 82
4, 81788, Note_off_c, 2, 67, 0
4, 81792, Note_on_c, 2, 70, 82
4, 82076, Note_off_c, 2, 70, 0
4, 82080, Note_on_c, 2, 70, 82
4, 82172, Note_off_c, 2, 67, 0
4, 82172, Note_off_c, 2, 70, 0
4, 82176, Note_on_c, 2, 70, 82
4, 82176, Note_on_c, 2, 75, 82
4, 82460, Note_off_c, 2, 75, 0
4, 82464, Note_on_c, 2, 75, 82
4, 82556, Note_off_c, 2, 75, 0
4, 82560, Note_on_c, 2, 79, 82
4, 82844, Note_off_c, 2, 79, 0
4, 82848, Note_on_c, 2, 79, 82
4, 82940, Note_off_c, 2, 70, 0
4, 82940, Note_off_c, 2, 79, 0
4, 82944, Note_on_c, 2, 82, 82
4, 82944, Note_on_c, 2, 76, 82
4, 82944, Note_on_c, 2, 73, 82
4, 83324, Note_off_c, 2, 82, 0
4, 83324, Note_off_c, 2, 76, 0
4, 83324, Note_off_c, 2, 73, 0
4, 83328, Note_on_c, 2, 61, 82
4, 83328, Note_on_c, 2, 73, 82
4, 83328, Note_on_c, 2, 70, 82
4, 83328, Note_on_c, 2, 67, 82
4, 83612, Note_off_c, 2, 61, 0
4, 83612, Note_off_c, 2, 67, 0
4, 83616, Note_on_c, 2, 61, 82
4, 83616, Note_on_c, 2, 67, 82
4, 83708, Note_off_c, 2, 61, 0
4, 83708, Note_off_c, 2, 67, 0
4, 83712, Note_on_c, 2, 67, 82
4, 83712, Note_on_c, 2, 61, 82
4, 83996, Note_off_c, 2, 67, 0
4, 83996, Note_off_c, 2, 61, 0
4, 84000, Note_on_c, 2, 67, 82
4, 84000, Note_on_c, 2, 61, 82
4, 84092, Note_off_c, 2, 67, 0
4, 84092, Note_off_c, 2, 61, 0
4, 84096, Note_on_c, 2, 67, 82
4, 84096, Note_on_c, 2, 61, 82
4, 84380, Note_off_c, 2, 67, 0
4, 84380, Note_off_c, 2, 61, 0
4, 84384, Note_on_c, 2, 67, 82
4, 84384, Note_on_c, 2, 61, 82
4, 84476, Note_off_c, 2, 73, 0
4, 84476, Note_off_c, 2, 70, 0
4, 84476, Note_off_c, 2, 67, 0
4, 84476, Note_off_c, 2, 61, 0
4, 84480, Note_on_c, 2, 74, 82
4, 84480, Note_on_c, 2, 71, 82
4, 84480, Note_on_c, 2, 67, 82
4, 84480, Note_on_c, 2, 62, 82
4, 84860, Note_off_c, 2, 74, 0
4, 84860, Note_off_c, 2, 71, 0
4, 84860, Note_off_c, 2, 67, 0
4, 84860, Note_off_c, 2, 62, 0
4, 84864, Note_on_c, 2, 79, 82
4, 84864, Note_on_c, 2, 83, 82
4, 84864, Note_on_c, 2, 74, 82
4, 84864, Note_on_c, 2, 71, 82
4, 85244, Note_off_c, 2, 79, 0
4, 85244, Note_off_c, 2, 83, 0
4, 85244, Note_off_c, 2, 74, 0
4, 85244, Note_off_c, 2, 71, 0
4, 85632, Note_on_c, 2, 79, 82
4, 85632, Note_on_c, 2, 76, 82
4, 85632, Note_on_c, 2, 71, 82
4, 85632, Note_on_c, 2, 67, 82
4, 86012, Note_off_c, 2, 79, 0
4, 86012, Note_off_c, 2, 76, 0
4, 86012, Note_off_c, 2, 71, 0
4, 86012, Note_off_c, 2, 67, 0
4, 86400, Note_on_c, 2, 84, 82
4, 86400, Note_on_c, 2, 81, 82
4, 86400, Note_on_c, 2, 76, 82
4, 86400, Note_on_c, 2, 72, 82
4, 86780, Note_off_c, 2, 84, 0
4, 86780, Note_off_c, 2, 81, 0
4, 86780, Note_off_c, 2, 76, 0
4, 86780, Note_off_c, 2, 72, 0
4, 87168, Note_on_c, 2, 78, 82
4, 87168, Note_on_c, 2, 74, 82
4, 87168, Note_on_c, 2, 72, 82
4, 87168, Note_on_c, 2, 69, 82
4, 87548, Note_off_c, 2, 78, 0
4, 87548, Note_off_c, 2, 74, 0
4, 87548, Note_off_c, 2, 72, 0
4, 87548, Note_off_c, 2, 69, 0
4, 87552, Note_on_c, 2, 79, 82
4, 87552, Note_on_c, 2, 74, 82
4, 87552, Note_on_c, 2, 71, 82
4, 87552, Note_on_c, 2, 67, 82
4, 87932, Note_off_c, 2, 79, 0
4, 87932, Note_off_c, 2, 74, 0
4, 87932, Note_off_c, 2, 71, 0
4, 87932, Note_off_c, 2, 67, 0
4, 89088, Note_on_c, 2, 68, 60
4, 89088, Note_on_c, 2, 65, 60
4, 89088, Note_on_c, 2, 62, 60
4, 89088, Note_on_c, 2, 59, 60
4, 90620, Note_off_c, 2, 68, 0
4, 90620, Note_off_c, 2, 65, 0
4, 90620, Note_off_c, 2, 62, 0
4, 90620, Note_off_c, 2, 59, 0
4, 90624, Note_on_c, 2, 69, 60
4, 90624, Note_on_c, 2, 66, 60
4, 90624, Note_on_c, 2, 62, 60
4, 90624, Note_on_c, 2, 60, 60
4, 91388, Note_off_c, 2, 69, 0
4, 91388, Note_off_c, 2, 66, 0
4, 91388, Note_off_c, 2, 62, 0
4, 91388, Note_off_c, 2, 60, 0
4, 91776, Note_on_c, 2, 71, 60
4, 91776, Note_on_c, 2, 67, 60
4, 91776, Note_on_c, 2, 62, 60
4, 91776, Note_on_c, 2, 59, 60
4, 92156, Note_off_c, 2, 71, 0
4, 92156, Note_off_c, 2, 67, 0
4, 92156, Note_off_c, 2, 62, 0
4, 92156, Note_off_c, 2, 59, 0
4, 92160, Note_on_c, 2, 72, 60
4, 92160, Note_on_c, 2, 64, 60
4, 92348, Note_off_c, 2, 72, 0
4, 92348, Note_off_c, 2, 64, 0
4, 92352, Note_on_c, 2, 74, 60
4, 92444, Note_off_c, 2, 74, 0
4, 92448, Note_on_c, 2, 76, 60
4, 92540, Note_off_c, 2, 76, 0
4, 92544, Note_on_c, 2, 74, 60
4, 92636, Note_off_c, 2, 74, 0
4, 92640, Note_on_c, 2, 72, 60
4, 92732, Note_off_c, 2, 72, 0
4, 92736, Note_on_c, 2, 71, 60
4, 92828, Note_off_c, 2, 71, 0
4, 92832, Note_on_c, 2, 69, 60
4, 92924, Note_off_c, 2, 69, 0
4, 92928, Note_on_c, 2, 67, 60
4, 92928, Note_on_c, 2, 62, 60
4, 93308, Note_off_c, 2, 67, 0
4, 93308, Note_off_c, 2, 62, 0
4, 93312, Note_on_c, 2, 66, 60
4, 93312, Note_on_c, 2, 62, 60
4, 93692, Note_off_c, 2, 66, 0
4, 93692, Note_off_c, 2, 62, 0
4, 93696, Note_on_c, 2, 67, 60
4, 93696, Note_on_c, 2, 62, 60
4, 93696, Note_on_c, 2, 59, 60
4, 94076, Note_off_c, 2, 62, 0
4, 94076, Note_off_c, 2, 59, 0
4, 95228, Note_off_c, 2, 67, 0
4, 95232, Note_on_c, 2, 78, 60
4, 95232, Note_on_c, 2, 65, 60
4, 95232, Note_on_c, 2, 71, 60
4, 95232, Note_on_c, 2, 68, 60
4, 95996, Note_off_c, 2, 78, 0
4, 95996, Note_off_c, 2, 65, 0
4, 96000, Note_on_c, 2, 76, 60
4, 96000, Note_on_c, 2, 64, 60
4, 96380, Note_off_c, 2, 76, 0
4, 96380, Note_off_c, 2, 64, 0
4, 96384, Note_on_c, 2, 74, 60
4, 96384, Note_on_c, 2, 62, 60
4, 96764, Note_off_c, 2, 71, 0
4, 96764, Note_off_c, 2, 68, 0
4, 96764, Note_off_c, 2, 74, 0
4, 96764, Note_off_c, 2, 62, 0
4, 96768, Note_on_c, 2, 72, 60
4, 96768, Note_on_c, 2, 66, 60
4, 96768, Note_on_c, 2, 62, 60
4, 96768, Note_on_c, 2, 60, 60
4, 96956, Note_off_c, 2, 72, 0
4, 96960, Note_on_c, 2, 71, 60
4, 97148, Note_off_c, 2, 71, 0
4, 97152, Note_on_c, 2, 69, 60
4, 97340, Note_off_c, 2, 69, 0
4, 97344, Note_on_c, 2, 67, 60
4, 97532, Note_off_c, 2, 66, 0
4, 97532, Note_off_c, 2, 62, 0
4, 97532, Note_off_c, 2, 60, 0
4, 97532, Note_off_c, 2, 67, 0
4, 97536, Note_on_c, 2, 69, 60
4, 97536, Note_on_c, 2, 66, 60
4, 97536, Note_on_c, 2, 60, 60
4, 97536, Note_on_c, 2, 62, 60
4, 97916, Note_off_c, 2, 69, 0
4, 97916, Note_off_c, 2, 66, 0
4, 97916, Note_off_c, 2, 60, 0
4, 97916, Note_off_c, 2, 62, 0
4, 97920, Note_on_c, 2, 71, 60
4, 97920, Note_on_c, 2, 67, 60
4, 97920, Note_on_c, 2, 65, 60
4, 97920, Note_on_c, 2, 62, 60
4, 98300, Note_off_c, 2, 71, 0
4, 98300, Note_off_c, 2, 67, 0
4, 98300, Note_off_c, 2, 65, 0
4, 98300, Note_off_c, 2, 62, 0
4, 98304, Note_on_c, 2, 72, 60
4, 98304, Note_on_c, 2, 67, 60
4, 98304, Note_on_c, 2, 64, 60
4, 98492, Note_off_c, 2, 72, 0
4, 98492, Note_off_c, 2, 67, 0
4, 98492, Note_off_c, 2, 64, 0
4, 98496, Note_on_c, 2, 74, 60
4, 98588, Note_off_c, 2, 74, 0
4, 98592, Note_on_c, 2, 76, 60
4, 98684, Note_off_c, 2, 76, 0
4, 98688, Note_on_c, 2, 74, 60
4, 98780, Note_off_c, 2, 74, 0
4, 98784, Note_on_c, 2, 72, 60
4, 98876, Note_off_c, 2, 72, 0
4, 98880, Note_on_c, 2, 71, 60
4, 98972, Note_off_c, 2, 71, 0
4, 98976, Note_on_c, 2, 69, 60
4, 99068, Note_off_c, 2, 69, 0
4, 99072, Note_on_c, 2, 67, 60
4, 99072, Note_on_c, 2, 62, 60
4, 99452, Note_off_c, 2, 67, 0
4, 99452, Note_off_c, 2, 62, 0
4, 99456, Note_on_c, 2, 66, 60
4, 99456, Note_on_c, 2, 62, 60
4, 99836, Note_off_c, 2, 66, 0
4, 99836, Note_off_c, 2, 62, 0
4, 99840, Note_on_c, 2, 74, 60
4, 100412, Note_off_c, 2, 74, 0
4, 100416, Note_on_c, 2, 71, 60
4, 100508, Note_off_c, 2, 71, 0
4, 100512, Note_on_c, 2, 67, 60
4, 100604, Note_off_c, 2, 67, 0
4, 100608, Note_on_c, 2, 79, 60
4, 101180, Note_off_c, 2, 79, 0
4, 101184, Note_on_c, 2, 76, 60
4, 101276, Note_off_c, 2, 76, 0
4, 101280, Note_on_c, 2, 73, 60
4, 101372, Note_off_c, 2, 73, 0
4, 101376, Note_on_c, 2, 74, 60
4, 101948, Note_off_c, 2, 74, 0
4, 101952, Note_on_c, 2, 71, 60
4, 102044, Note_off_c, 2, 71, 0
4, 102048, Note_on_c, 2, 67, 60
4, 102140, Note_off_c, 2, 67, 0
4, 102144, Note_on_c, 2, 69, 60
4, 102716, Note_off_c, 2, 69, 0
4, 102720, Note_on_c, 2, 66, 60
4, 102812, Note_off_c, 2, 66, 0
4, 102816, Note_on_c, 2, 62, 60
4, 102908, Note_off_c, 2, 62, 0
4, 102912, Note_on_c, 2, 74, 60
4, 102912, Note_on_c, 2, 67, 60
4, 102912, Note_on_c, 2, 62, 60
4, 103004, Note_off_c, 2, 74, 0
4, 103004, Note_off_c, 2, 67, 0
4, 103004, Note_off_c, 2, 62, 0
4, 103104, Note_on_c, 2, 74, 60
4, 103484, Note_off_c, 2, 74, 0
4, 103488, Note_on_c, 2, 71, 60
4, 103580, Note_off_c, 2, 71, 0
4, 103584, Note_on_c, 2, 67, 60
4, 103676, Note_off_c, 2, 67, 0
4, 103680, Note_on_c, 2, 79, 60
4, 103680, Note_on_c, 2, 73, 60
4, 103680, Note_on_c, 2, 70, 60
4, 103680, Note_on_c, 2, 67, 60
4, 103772, Note_off_c, 2, 79, 0
4, 103772, Note_off_c, 2, 73, 0
4, 103772, Note_off_c, 2, 70, 0
4, 103772, Note_off_c, 2, 67, 0
4, 103872, Note_on_c, 2, 79, 60
4, 104252, Note_off_c, 2, 79, 0
4, 104256, Note_on_c, 2, 76, 60
4, 104348, Note_off_c, 2, 76, 0
4, 104352, Note_on_c, 2, 72, 60
4, 104444, Note_off_c, 2, 72, 0
4, 104448, Note_on_c, 2, 74, 60
4, 104448, Note_on_c, 2, 71, 60
4, 104448, Note_on_c, 2, 67, 60
4, 104540, Note_off_c, 2, 74, 0
4, 104540, Note_off_c, 2, 71, 0
4, 104540, Note_off_c, 2, 67, 0
4, 104640, Note_on_c, 2, 74, 60
4, 105020, Note_off_c, 2, 74, 0
4, 105024, Note_on_c, 2, 71, 60
4, 105116, Note_off_c, 2, 71, 0
4, 105120, Note_on_c, 2, 67, 60
4, 105212, Note_off_c, 2, 67, 0
4, 105216, Note_on_c, 2, 72, 60
4, 105216, Note_on_c, 2, 69, 60
4, 105216, Note_on_c, 2, 66, 60
4, 105308, Note_off_c, 2, 72, 0
4, 105308, Note_off_c, 2, 69, 0
4, 105308, Note_off_c, 2, 66, 0
4, 105408, Note_on_c, 2, 72, 60
4, 105788, Note_off_c, 2, 72, 0
4, 105792, Note_on_c, 2, 69, 60
4, 105884, Note_off_c, 2, 69, 0
4, 105888, Note_on_c, 2, 66, 60
4, 105980, Note_off_c, 2, 66, 0
4, 105984, Note_on_c, 2, 67, 60
4, 106172, Note_off_c, 2, 67, 0
4, 106272, Note_on_c, 2, 74, 89
4, 106360, Note_off_c, 2, 74, 0
4, 106368, Note_on_c, 2, 83, 82
4, 106368, Note_on_c, 2, 86, 82
4, 106368, Note_on_c, 2, 74, 82
4, 107132, Note_off_c, 2, 83, 0
4, 107132, Note_off_c, 2, 86, 0
4, 107132, Note_off_c, 2, 74, 0
4, 107136, Note_on_c, 2, 84, 82
4, 107136, Note_on_c, 2, 81, 82
4, 107136, Note_on_c, 2, 78, 82
4, 107136, Note_on_c, 2, 72, 82
4, 107324, Note_off_c, 2, 84, 0
4, 107324, Note_off_c, 2, 81, 0
4, 107324, Note_off_c, 2, 78, 0
4, 107324, Note_off_c, 2, 72, 0
4, 107520, Note_on_c, 2, 83, 82
4, 107520, Note_on_c, 2, 79, 82
4, 107520, Note_on_c, 2, 71, 82
4, 107708, Note_off_c, 2, 83, 0
4, 107708, Note_off_c, 2, 79, 0
4, 107708, Note_off_c, 2, 71, 0
4, 107904, Note_on_c, 2, 84, 82
4, 107904, Note_on_c, 2, 81, 82
4, 107904, Note_on_c, 2, 76, 82
4, 107904, Note_on_c, 2, 72, 82
4, 108092, Note_off_c, 2, 84, 0
4, 108092, Note_off_c, 2, 81, 0
4, 108092, Note_off_c, 2, 76, 0
4, 108092, Note_off_c, 2, 72, 0
4, 108672, Note_on_c, 2, 81, 82
4, 108672, Note_on_c, 2, 78, 82
4, 108672, Note_on_c, 2, 74, 82
4, 108672, Note_on_c, 2, 72, 82
4, 108860, Note_off_c, 2, 81, 0
4, 108860, Note_off_c, 2, 78, 0
4, 108860, Note_off_c, 2, 74, 0
4, 108860, Note_off_c, 2, 72, 0
4, 109056, Note_on_c, 2, 79, 82
4, 109056, Note_on_c, 2, 71, 82
4, 109244, Note_off_c, 2, 79, 0
4, 109244, Note_off_c, 2, 71, 0
4, 109344, Note_on_c, 2, 74, 85
4, 109432, Note_off_c, 2, 74, 0
4, 109440, Note_on_c, 2, 83, 82
4, 109440, Note_on_c, 2, 86, 82
4, 109440, Note_on_c, 2, 74, 82
4, 110204, Note_off_c, 2, 83, 0
4, 110204, Note_off_c, 2, 86, 0
4, 110204, Note_off_c, 2, 74, 0
4, 110208, Note_on_c, 2, 84, 82
4, 110208, Note_on_c, 2, 81, 82
4, 110208, Note_on_c, 2, 78, 82
4, 110208, Note_on_c, 2, 72, 82
4, 110396, Note_off_c, 2, 84, 0
4, 110396, Note_off_c, 2, 81, 0
4, 110396, Note_off_c, 2, 78, 0
4, 110396, Note_off_c, 2, 72, 0
4, 110592, Note_on_c, 2, 79, 82
4, 110592, Note_on_c, 2, 83, 82
4, 110592, Note_on_c, 2, 71, 82
4, 110780, Note_off_c, 2, 79, 0
4, 110780, Note_off_c, 2, 83, 0
4, 110780, Note_off_c, 2, 71, 0
4, 110976, Note_on_c, 2, 84, 82
4, 110976, Note_on_c, 2, 81, 82
4, 110976, Note_on_c, 2, 76, 82
4, 110976, Note_on_c, 2, 72, 82
4, 111164, Note_off_c, 2, 84, 0
4, 111164, Note_off_c, 2, 81, 0
4, 111164, Note_off_c, 2, 76, 0
4, 111164, Note_off_c, 2, 72, 0
4, 111744, Note_on_c, 2, 81, 82
4, 111744, Note_on_c, 2, 78, 82
4, 111744, Note_on_c, 2, 74, 82
4, 111744, Note_on_c, 2, 72, 82
4, 111932, Note_off_c, 2, 81, 0
4, 111932, Note_off_c, 2, 78, 0
4, 111932, Note_off_c, 2, 74, 0
4, 111932, Note_off_c, 2, 72, 0
4, 112128, Note_on_c, 2, 79, 82
4, 112128, Note_on_c, 2, 74, 82
4, 112128, Note_on_c, 2, 71, 82
4, 112508, Note_off_c, 2, 79, 0
4, 112508, Note_off_c, 2, 74, 0
4, 112508, Note_off_c, 2, 71, 0
4, 112896, Note_on_c, 2, 79, 82
4, 112896, Note_on_c, 2, 67, 82
4, 112896, Note_on_c, 2, 74, 82
4, 112896, Note_on_c, 2, 71, 82
4, 113276, Note_off_c, 2, 79, 0
4, 113276, Note_off_c, 2, 67, 0
4, 113276, Note_off_c, 2, 74, 0
4, 113276, Note_off_c, 2, 71, 0
4, 113664, Note_on_c, 2, 79, 82
4, 113664, Note_on_c, 2, 74, 82
4, 113664, Note_on_c, 2, 71, 82
4, 113664, Note_on_c, 2, 67, 82
4, 114428, Note_off_c, 2, 79, 0
4, 114428, Note_off_c, 2, 74, 0
4, 114428, Note_off_c, 2, 71, 0
4, 114428, Note_off_c, 2, 67, 0
4, 115200, Key_signature, 0, "major"
4, 120192, Note_on_c, 2, 76, 60
4, 120192, Note_on_c, 2, 72, 60
4, 120284, Note_off_c, 2, 76, 0
4, 120284, Note_off_c, 2, 72, 0
4, 120288, Note_on_c, 2, 77, 60
4, 120288, Note_on_c, 2, 74, 60
4, 120380, Note_off_c, 2, 77, 0
4, 120380, Note_off_c, 2, 74, 0
4, 120384, Note_on_c, 2, 76, 60
4, 120384, Note_on_c, 2, 72, 60
4, 120476, Note_off_c, 2, 76, 0
4, 120476, Note_off_c, 2, 72, 0
4, 120480, Note_on_c, 2, 77, 60
4, 120480, Note_on_c, 2, 74, 60
4, 120572, Note_off_c, 2, 77, 0
4, 120572, Note_off_c, 2, 74, 0
4, 120576, Note_on_c, 2, 79, 60
4, 120576, Note_on_c, 2, 76, 60
4, 120764, Note_off_c, 2, 79, 0
4, 120764, Note_off_c, 2, 76, 0
4, 120960, Note_on_c, 2, 84, 60
4, 120960, Note_on_c, 2, 76, 60
4, 121052, Note_off_c, 2, 84, 0
4, 121052, Note_off_c, 2, 76, 0
4, 121056, Note_on_c, 2, 86, 60
4, 121056, Note_on_c, 2, 77, 60
4, 121148, Note_off_c, 2, 86, 0
4, 121148, Note_off_c, 2, 77, 0
4, 121152, Note_on_c, 2, 84, 60
4, 121152, Note_on_c, 2, 76, 60
4, 121244, Note_off_c, 2, 84, 0
4, 121244, Note_off_c, 2, 76, 0
4, 121248, Note_on_c, 2, 86, 60
4, 121248, Note_on_c, 2, 77, 60
4, 121340, Note_off_c, 2, 86, 0
4, 121340, Note_off_c, 2, 77, 0
4, 121344, Note_on_c, 2, 79, 60
4, 121344, Note_on_c, 2, 88, 60
4, 121724, Note_off_c, 2, 79, 0
4, 121724, Note_off_c, 2, 88, 0
4, 125952, Key_signature, 1, "major"
4, 126336, Note_on_c, 2, 71, 60
4, 126336, Note_on_c, 2, 67, 60
4, 126428, Note_off_c, 2, 71, 0
4, 126428, Note_off_c, 2, 67, 0
4, 126432, Note_on_c, 2, 72, 60
4, 126432, Note_on_c, 2, 69, 60
4, 126524, Note_off_c, 2, 72, 0
4, 126524, Note_off_c, 2, 69, 0
4, 126528, Note_on_c, 2, 71, 60
4, 126528, Note_on_c, 2, 67, 60
4, 126620, Note_off_c, 2, 71, 0
4, 126620, Note_off_c, 2, 67, 0
4, 126624, Note_on_c, 2, 72, 60
4, 126624, Note_on_c, 2, 69, 60
4, 126716, Note_off_c, 2, 72, 0
4, 126716, Note_off_c, 2, 69, 0
4, 126720, Note_on_c, 2, 74, 60
4, 126720, Note_on_c, 2, 71, 60
4, 126908, Note_off_c, 2, 74, 0
4, 126908, Note_off_c, 2, 71, 0
4, 127104, Note_on_c, 2, 79, 60
4, 127104, Note_on_c, 2, 83, 60
4, 127196, Note_off_c, 2, 79, 0
4, 127196, Note_off_c, 2, 83, 0
4, 127200, Note_on_c, 2, 81, 60
4, 127200, Note_on_c, 2, 84, 60
4, 127292, Note_off_c, 2, 81, 0
4, 127292, Note_off_c, 2, 84, 0
4, 127296, Note_on_c, 2, 83, 60
4, 127296, Note_on_c, 2, 79, 60
4, 127388, Note_off_c, 2, 83, 0
4, 127388, Note_off_c, 2, 79, 0
4, 127392, Note_on_c, 2, 84, 60
4, 127392, Note_on_c, 2, 81, 60
4, 127484, Note_off_c, 2, 84, 0
4, 127484, Note_off_c, 2, 81, 0
4, 127488, Note_on_c, 2, 86, 60
4, 127488, Note_on_c, 2, 83, 60
4, 127868, Note_off_c, 2, 86, 0
4, 127868, Note_off_c, 2, 83, 0
4, 129024, Note_on_c, 2, 81, 78
4, 129024, Note_on_c, 2, 78, 78
4, 129024, Note_on_c, 2, 74, 78
4, 129024, Note_on_c, 2, 86, 78
4, 129788, Note_off_c, 2, 81, 0
4, 129788, Note_off_c, 2, 78, 0
4, 129788, Note_off_c, 2, 74, 0
4, 129788, Note_off_c, 2, 86, 0
4, 129792, Note_on_c, 2, 86, 60
4, 129792, Note_on_c, 2, 81, 60
4, 129792, Note_on_c, 2, 78, 60
4, 129792, Note_on_c, 2, 74, 60
4, 130172, Note_off_c, 2, 86, 0
4, 130172, Note_off_c, 2, 81, 0
4, 130172, Note_off_c, 2, 78, 0
4, 130172, Note_off_c, 2, 74, 0
4, 130560, Note_on_c, 2, 74, 60
4, 130748, Note_off_c, 2, 74, 0
4, 130944, Note_on_c, 2, 83, 60
4, 130944, Note_on_c, 2, 71, 60
4, 130944, Note_on_c, 2, 67, 60
4, 131324, Note_off_c, 2, 83, 0
4, 131324, Note_off_c, 2, 71, 0
4, 131324, Note_off_c, 2, 67, 0
4, 131328, Note_on_c, 2, 81, 60
4, 131328, Note_on_c, 2, 72, 60
4, 131328, Note_on_c, 2, 69, 60
4, 131708, Note_off_c, 2, 81, 0
4, 131708, Note_off_c, 2, 72, 0
4, 131708, Note_off_c, 2, 69, 0
4, 131712, Note_on_c, 2, 79, 60
4, 131712, Note_on_c, 2, 74, 60
4, 131712, Note_on_c, 2, 71, 60
4, 132092, Note_off_c, 2, 79, 0
4, 132092, Note_off_c, 2, 74, 0
4, 132092, Note_off_c, 2, 71, 0
4, 132096, Note_on_c, 2, 86, 78
4, 132096, Note_on_c, 2, 81, 78
4, 132096, Note_on_c, 2, 78, 78
4, 132096, Note_on_c, 2, 74, 78
4, 132860, Note_off_c, 2, 86, 0
4, 132860, Note_off_c, 2, 81, 0
4, 132860, Note_off_c, 2, 78, 0
4, 132860, Note_off_c, 2, 74, 0
4, 132864, Note_on_c, 2, 86, 60
4, 132864, Note_on_c, 2, 78, 60
4, 132864, Note_on_c, 2, 74, 60
4, 132864, Note_on_c, 2, 81, 60
4, 133244, Note_off_c, 2, 86, 0
4, 133244, Note_off_c, 2, 78, 0
4, 133244, Note_off_c, 2, 74, 0
4, 133244, Note_off_c, 2, 81, 0
4, 133632, Note_on_c, 2, 76, 60
4, 133632, Note_on_c, 2, 72, 60
4, 133632, Note_on_c, 2, 69, 60
4, 135164, Note_off_c, 2, 76, 0
4, 135164, Note_off_c, 2, 72, 0
4, 135164, Note_off_c, 2, 69, 0
4, 135168, Note_on_c, 2, 74, 60
4, 135168, Note_on_c, 2, 71, 60
4, 135168, Note_on_c, 2, 71, 60
4, 136316, Note_off_c, 2, 71, 0
4, 136320, Note_on_c, 2, 62, 60
4, 136700, Note_off_c, 2, 74, 0
4, 136700, Note_off_c, 2, 71, 0
4, 136700, Note_off_c, 2, 62, 0
4, 136704, Note_on_c, 2, 74, 60
4, 136704, Note_on_c, 2, 71, 60
4, 136704, Note_on_c, 2, 64, 60
4, 136892, Note_off_c, 2, 74, 0
4, 136892, Note_off_c, 2, 71, 0
4, 136896, Note_on_c, 2, 69, 60
4, 136896, Note_on_c, 2, 72, 60
4, 137084, Note_off_c, 2, 69, 0
4, 137084, Note_off_c, 2, 72, 0
4, 137088, Note_on_c, 2, 67, 60
4, 137088, Note_on_c, 2, 71, 60
4, 137468, Note_off_c, 2, 64, 0
4, 137472, Note_on_c, 2, 62, 60
4, 137852, Note_off_c, 2, 67, 0
4, 137852, Note_off_c, 2, 71, 0
4, 137856, Note_on_c, 2, 69, 60
4, 137856, Note_on_c, 2, 66, 60
4, 138236, Note_off_c, 2, 62, 0
4, 138236, Note_off_c, 2, 69, 0
4, 138236, Note_off_c, 2, 66, 0
4, 138240, Note_on_c, 2, 74, 60
4, 138240, Note_on_c, 2, 71, 60
4, 138428, Note_off_c, 2, 74, 0
4, 138428, Note_off_c, 2, 71, 0
4, 138432, Note_on_c, 2, 71, 60
4, 138432, Note_on_c, 2, 67, 60
4, 138620, Note_off_c, 2, 71, 0
4, 138620, Note_off_c, 2, 67, 0
4, 138624, Note_on_c, 2, 76, 60
4, 138624, Note_on_c, 2, 72, 60
4, 138812, Note_off_c, 2, 76, 0
4, 138812, Note_off_c, 2, 72, 0
4, 138816, Note_on_c, 2, 74, 60
4, 138816, Note_on_c, 2, 71, 60
4, 139004, Note_off_c, 2, 74, 0
4, 139004, Note_off_c, 2, 71, 0
4, 139008, Note_on_c, 2, 74, 60
4, 139008, Note_on_c, 2, 71, 60
4, 139196, Note_off_c, 2, 74, 0
4, 139196, Note_off_c, 2, 71, 0
4, 139200, Note_on_c, 2, 67, 60
4, 139200, Note_on_c, 2, 71, 60
4, 139388, Note_off_c, 2, 67, 0
4, 139388, Note_off_c, 2, 71, 0
4, 139392, Note_on_c, 2, 69, 60
4, 139392, Note_on_c, 2, 72, 60
4, 139580, Note_off_c, 2, 69, 0
4, 139580, Note_off_c, 2, 72, 0
4, 139584, Note_on_c, 2, 74, 60
4, 139584, Note_on_c, 2, 71, 60
4, 139772, Note_off_c, 2, 74, 0
4, 139772, Note_off_c, 2, 71, 0
4, 139776, Note_on_c, 2, 88, 60
4, 139776, Note_on_c, 2, 84, 60
4, 139776, Note_on_c, 2, 76, 60
4, 141308, Note_off_c, 2, 88, 0
4, 141308, Note_off_c, 2, 84, 0
4, 141308, Note_off_c, 2, 76, 0
4, 141312, Note_on_c, 2, 86, 60
4, 141312, Note_on_c, 2, 83, 60
4, 141312, Note_on_c, 2, 74, 60
4, 142844, Note_off_c, 2, 86, 0
4, 142844, Note_off_c, 2, 83, 0
4, 142844, Note_off_c, 2, 74, 0
4, 142848, Note_on_c, 2, 86, 60
4, 142848, Note_on_c, 2, 83, 60
4, 142848, Note_on_c, 2, 74, 60
4, 143036, Note_off_c, 2, 86, 0
4, 143036, Note_off_c, 2, 83, 0
4, 143036, Note_off_c, 2, 74, 0
4, 143040, Note_on_c, 2, 84, 60
4, 143040, Note_on_c, 2, 81, 60
4, 143040, Note_on_c, 2, 72, 60
4, 143228, Note_off_c, 2, 84, 0
4, 143228, Note_off_c, 2, 81, 0
4, 143228, Note_off_c, 2, 72, 0
4, 143232, Note_on_c, 2, 79, 60
4, 143232, Note_on_c, 2, 83, 60
4, 143232, Note_on_c, 2, 71, 60
4, 143996, Note_off_c, 2, 79, 0
4, 143996, Note_off_c, 2, 83, 0
4, 143996, Note_off_c, 2, 71, 0
4, 144000, Note_on_c, 2, 81, 60
4, 144000, Note_on_c, 2, 78, 60
4, 144000, Note_on_c, 2, 69, 60
4, 144380, Note_off_c, 2, 81, 0
4, 144380, Note_off_c, 2, 78, 0
4, 144380, Note_off_c, 2, 69, 0
4, 144384, Note_on_c, 2, 79, 65
4, 144384, Note_on_c, 2, 67, 65
4, 145916, Note_off_c, 2, 79, 0
4, 145916, Note_off_c, 2, 67, 0
4, 145920, Note_on_c, 2, 69, 65
4, 145920, Note_on_c, 2, 67, 65
4, 147068, Note_off_c, 2, 69, 0
4, 147072, Note_on_c, 2, 72, 65
4, 147164, Note_off_c, 2, 72, 0
4, 147168, Note_on_c, 2, 71, 65
4, 147260, Note_off_c, 2, 71, 0
4, 147264, Note_on_c, 2, 69, 65
4, 147356, Note_off_c, 2, 69, 0
4, 147360, Note_on_c, 2, 71, 65
4, 147452, Note_off_c, 2, 67, 0
4, 147452, Note_off_c, 2, 71, 0
4, 147456, Note_on_c, 2, 72, 65
4, 147548, Note_off_c, 2, 72, 0
4, 147648, Note_on_c, 2, 69, 65
4, 147740, Note_off_c, 2, 69, 0
4, 147840, Note_on_c, 2, 64, 65
4, 148220, Note_off_c, 2, 64, 0
4, 148224, Note_on_c, 2, 64, 65
4, 148412, Note_off_c, 2, 64, 0
4, 148416, Note_on_c, 2, 67, 65
4, 148604, Note_off_c, 2, 67, 0
4, 148608, Note_on_c, 2, 66, 65
4, 148796, Note_off_c, 2, 66, 0
4, 148800, Note_on_c, 2, 69, 65
4, 148988, Note_off_c, 2, 69, 0
4, 148992, Note_on_c, 2, 67, 65
4, 148992, Note_on_c, 2, 59, 65
4, 150524, Note_off_c, 2, 67, 0
4, 150524, Note_off_c, 2, 59, 0
4, 150528, Note_on_c, 2, 66, 60
4, 150528, Note_on_c, 2, 60, 60
4, 150528, Note_on_c, 2, 68, 60
4, 150620, Note_off_c, 2, 68, 0
4, 150640, Note_on_c, 2, 69, 60
4, 150912, Note_on_c, 2, 69, 60
4, 150924, Note_off_c, 2, 69, 0
4, 151676, Note_off_c, 2, 66, 0
4, 151676, Note_off_c, 2, 60, 0
4, 151676, Note_off_c, 2, 69, 0
4, 151680, Note_on_c, 2, 66, 60
4, 151680, Note_on_c, 2, 62, 60
4, 151680, Note_on_c, 2, 72, 60
4, 151772, Note_off_c, 2, 72, 0
4, 151776, Note_on_c, 2, 71, 60
4, 151868, Note_off_c, 2, 71, 0
4, 151872, Note_on_c, 2, 69, 60
4, 151964, Note_off_c, 2, 69, 0
4, 151968, Note_on_c, 2, 71, 60
4, 152060, Note_off_c, 2, 66, 0
4, 152060, Note_off_c, 2, 62, 0
4, 152060, Note_off_c, 2, 71, 0
4, 152064, Note_on_c, 2, 64, 60
4, 152064, Note_on_c, 2, 60, 60
4, 152064, Note_on_c, 2, 72, 60
4, 152156, Note_off_c, 2, 72, 0
4, 152256, Note_on_c, 2, 69, 60
4, 152348, Note_off_c, 2, 69, 0
4, 152448, Note_on_c, 2, 64, 60
4, 152828, Note_off_c, 2, 64, 0
4, 152828, Note_off_c, 2, 60, 0
4, 152828, Note_off_c, 2, 64, 0
4, 152832, Note_on_c, 2, 60, 60
4, 152832, Note_on_c, 2, 57, 60
4, 152832, Note_on_c, 2, 64, 60
4, 153020, Note_off_c, 2, 64, 0
4, 153024, Note_on_c, 2, 67, 60
4, 153212, Note_off_c, 2, 67, 0
4, 153216, Note_on_c, 2, 66, 60
4, 153404, Note_off_c, 2, 66, 0
4, 153408, Note_on_c, 2, 69, 60
4, 153596, Note_off_c, 2, 60, 0
4, 153596, Note_off_c, 2, 57, 0
4, 153596, Note_off_c, 2, 69, 0
4, 153600, Note_on_c, 2, 67, 60
4, 153600, Note_on_c, 2, 62, 60
4, 153600, Note_on_c, 2, 59, 60
4, 153980, Note_off_c, 2, 67, 0
4, 153980, Note_off_c, 2, 62, 0
4, 153980, Note_off_c, 2, 59, 0
4, 153984, Note_on_c, 2, 74, 60
4, 153984, Note_on_c, 2, 71, 60
4, 154076, Note_off_c, 2, 74, 0
4, 154076, Note_off_c, 2, 71, 0
4, 154368, Note_on_c, 2, 83, 82
4, 154368, Note_on_c, 2, 74, 82
4, 154748, Note_off_c, 2, 83, 0
4, 154748, Note_off_c, 2, 74, 0
4, 154752, Note_on_c, 2, 79, 60
4, 154752, Note_on_c, 2, 71, 60
4, 154940, Note_off_c, 2, 79, 0
4, 154940, Note_off_c, 2, 71, 0
4, 155136, Note_on_c, 2, 69, 60
4, 155136, Note_on_c, 2, 62, 60
4, 155136, Note_on_c, 2, 57, 60
4, 155516, Note_off_c, 2, 69, 0
4, 155516, Note_off_c, 2, 62, 0
4, 155516, Note_off_c, 2, 57, 0
4, 155520, Note_on_c, 2, 74, 60
4, 155520, Note_on_c, 2, 69, 60
4, 155612, Note_off_c, 2, 74, 0
4, 155612, Note_off_c, 2, 69, 0
4, 155904, Note_on_c, 2, 84, 82
4, 155904, Note_on_c, 2, 81, 82
4, 156284, Note_off_c, 2, 84, 0
4, 156284, Note_off_c, 2, 81, 0
4, 156288, Note_on_c, 2, 78, 60
4, 156288, Note_on_c, 2, 81, 60
4, 156476, Note_off_c, 2, 78, 0
4, 156476, Note_off_c, 2, 81, 0
4, 156672, Note_on_c, 2, 67, 60
4, 156672, Note_on_c, 2, 64, 60
4, 156672, Note_on_c, 2, 59, 60
4, 157052, Note_off_c, 2, 67, 0
4, 157052, Note_off_c, 2, 64, 0
4, 157052, Note_off_c, 2, 59, 0
4, 157056, Note_on_c, 2, 71, 60
4, 157056, Note_on_c, 2, 67, 60
4, 157148, Note_off_c, 2, 71, 0
4, 157148, Note_off_c, 2, 67, 0
4, 157440, Note_on_c, 2, 79, 82
4, 157440, Note_on_c, 2, 83, 82
4, 157820, Note_off_c, 2, 79, 0
4, 157820, Note_off_c, 2, 83, 0
4, 157824, Note_on_c, 2, 79, 60
4, 157824, Note_on_c, 2, 76, 60
4, 158012, Note_off_c, 2, 79, 0
4, 158012, Note_off_c, 2, 76, 0
4, 158208, Note_on_c, 2, 72, 60
4, 158208, Note_on_c, 2, 67, 60
4, 158208, Note_on_c, 2, 64, 60
4, 158588, Note_off_c, 2, 72, 0
4, 158588, Note_off_c, 2, 67, 0
4, 158588, Note_off_c, 2, 64, 0
4, 158592, Note_on_c, 2, 72, 60
4, 158592, Note_on_c, 2, 69, 60
4, 158684, Note_off_c, 2, 72, 0
4, 158684, Note_off_c, 2, 69, 0
4, 158976, Note_on_c, 2, 88, 82
4, 158976, Note_on_c, 2, 79, 82
4, 159356, Note_off_c, 2, 88, 0
4, 159356, Note_off_c, 2, 79, 0
4, 159360, Note_on_c, 2, 79, 60
4, 159360, Note_on_c, 2, 76, 60
4, 159548, Note_off_c, 2, 79, 0
4, 159548, Note_off_c, 2, 76, 0
4, 159744, Note_on_c, 2, 74, 60
4, 159744, Note_on_c, 2, 66, 60
4, 159744, Note_on_c, 2, 62, 60
4, 160124, Note_off_c, 2, 74, 0
4, 160124, Note_off_c, 2, 66, 0
4, 160124, Note_off_c, 2, 62, 0
4, 160128, Note_on_c, 2, 78, 60
4, 160128, Note_on_c, 2, 74, 60
4, 160220, Note_off_c, 2, 78, 0
4, 160220, Note_off_c, 2, 74, 0
4, 160512, Note_on_c, 2, 81, 82
4, 160512, Note_on_c, 2, 84, 82
4, 160892, Note_off_c, 2, 81, 0
4, 160892, Note_off_c, 2, 84, 0
4, 160896, Note_on_c, 2, 72, 60
4, 160896, Note_on_c, 2, 69, 60
4, 161084, Note_off_c, 2, 72, 0
4, 161084, Note_off_c, 2, 69, 0
4, 161280, Note_on_c, 2, 71, 60
4, 161280, Note_on_c, 2, 67, 60
4, 161280, Note_on_c, 2, 64, 60
4, 161660, Note_off_c, 2, 71, 0
4, 161660, Note_off_c, 2, 67, 0
4, 161660, Note_off_c, 2, 64, 0
4, 161664, Note_on_c, 2, 71, 60
4, 161664, Note_on_c, 2, 67, 60
4, 161756, Note_off_c, 2, 71, 0
4, 161756, Note_off_c, 2, 67, 0
4, 162048, Note_on_c, 2, 76, 82
4, 162048, Note_on_c, 2, 83, 82
4, 162428, Note_off_c, 2, 76, 0
4, 162428, Note_off_c, 2, 83, 0
4, 162432, Note_on_c, 2, 76, 60
4, 162432, Note_on_c, 2, 71, 60
4, 162620, Note_off_c, 2, 76, 0
4, 162620, Note_off_c, 2, 71, 0
4, 162816, Note_on_c, 2, 64, 60
4, 163200, Note_on_c, 2, 73, 60
4, 163580, Note_off_c, 2, 73, 0
4, 163584, Note_on_c, 2, 74, 60
4, 163964, Note_off_c, 2, 74, 0
4, 163968, Note_on_c, 2, 68, 60
4, 164348, Note_off_c, 2, 68, 0
4, 164352, Note_on_c, 2, 64, 60
4, 164352, Note_on_c, 2, 69, 60
4, 164732, Note_off_c, 2, 69, 0
4, 164736, Note_on_c, 2, 73, 60
4, 165116, Note_off_c, 2, 64, 0
4, 165116, Note_off_c, 2, 73, 0
4, 165120, Note_on_c, 2, 74, 60
4, 165500, Note_off_c, 2, 74, 0
4, 165504, Note_on_c, 2, 68, 60
4, 165884, Note_off_c, 2, 64, 0
4, 165884, Note_off_c, 2, 68, 0
4, 165888, Note_on_c, 2, 69, 60
4, 165888, Note_on_c, 2, 64, 60
4, 165888, Note_on_c, 2, 61, 60
4, 166268, Note_off_c, 2, 69, 0
4, 166268, Note_off_c, 2, 64, 0
4, 166268, Note_off_c, 2, 61, 0
4, 167424, Note_on_c, 2, 57, 60
4, 167616, Note_on_c, 2, 57, 60
4, 167788, Note_off_c, 2, 57, 0
4, 167808, Note_on_c, 2, 59, 60
4, 167996, Note_off_c, 2, 59, 0
4, 168000, Note_on_c, 2, 61, 60
4, 168188, Note_off_c, 2, 57, 0
4, 168188, Note_off_c, 2, 61, 0
4, 168192, Note_on_c, 2, 62, 60
4, 168192, Note_on_c, 2, 59, 60
4, 168192, Note_on_c, 2, 57, 60
4, 168380, Note_off_c, 2, 62, 0
4, 168380, Note_off_c, 2, 59, 0
4, 168384, Note_on_c, 2, 64, 60
4, 168384, Note_on_c, 2, 61, 60
4, 168572, Note_off_c, 2, 64, 0
4, 168572, Note_off_c, 2, 61, 0
4, 168576, Note_on_c, 2, 66, 60
4, 168576, Note_on_c, 2, 62, 60
4, 168764, Note_off_c, 2, 57, 0
4, 168764, Note_off_c, 2, 66, 0
4, 168764, Note_off_c, 2, 62, 0
4, 168768, Note_on_c, 2, 67, 60
4, 168768, Note_on_c, 2, 64, 60
4, 168768, Note_on_c, 2, 55, 60
4, 168956, Note_off_c, 2, 67, 0
4, 168956, Note_off_c, 2, 64, 0
4, 168956, Note_off_c, 2, 55, 0
4, 168960, Note_on_c, 2, 69, 60
4, 168960, Note_on_c, 2, 66, 60
4, 169340, Note_off_c, 2, 69, 0
4, 169340, Note_off_c, 2, 66, 0
4, 181248, Note_on_c, 2, 69, 60
4, 181248, Note_on_c, 2, 66, 60
4, 181248, Note_on_c, 2, 62, 60
4, 181628, Note_off_c, 2, 69, 0
4, 181628, Note_off_c, 2, 66, 0
4, 181628, Note_off_c, 2, 62, 0
4, 182016, Note_on_c, 2, 71, 60
4, 182016, Note_on_c, 2, 66, 60
4, 182016, Note_on_c, 2, 63, 60
4, 182396, Note_off_c, 2, 71, 0
4, 182396, Note_off_c, 2, 66, 0
4, 182396, Note_off_c, 2, 63, 0
4, 182784, Note_on_c, 2, 67, 60
4, 182784, Note_on_c, 2, 64, 60
4, 182784, Note_on_c, 2, 59, 60
4, 183164, Note_off_c, 2, 67, 0
4, 183164, Note_off_c, 2, 64, 0
4, 183164, Note_off_c, 2, 59, 0
4, 183168, Note_on_c, 2, 69, 60
4, 183168, Note_on_c, 2, 64, 60
4, 183168, Note_on_c, 2, 57, 60
4, 183548, Note_off_c, 2, 69, 0
4, 183548, Note_off_c, 2, 64, 0
4, 183548, Note_off_c, 2, 57, 0
4, 183936, Note_on_c, 2, 66, 60
4, 183936, Note_on_c, 2, 62, 60
4, 183936, Note_on_c, 2, 57, 60
4, 184316, Note_off_c, 2, 66, 0
4, 184316, Note_off_c, 2, 62, 0
4, 184316, Note_off_c, 2, 57, 0
4, 184320, Note_on_c, 2, 67, 60
4, 184320, Note_on_c, 2, 62, 60
4, 184320, Note_on_c, 2, 59, 60
4, 184700, Note_off_c, 2, 67, 0
4, 184700, Note_off_c, 2, 62, 0
4, 184700, Note_off_c, 2, 59, 0
4, 185472, Note_on_c, 2, 71, 60
4, 185852, Note_off_c, 2, 71, 0
4, 185856, Note_on_c, 2, 74, 60
4, 185856, Note_on_c, 2, 69, 60
4, 186236, Note_off_c, 2, 74, 0
4, 186240, Note_on_c, 2, 73, 60
4, 186620, Note_off_c, 2, 69, 0
4, 186620, Note_off_c, 2, 73, 0
4, 186624, Note_on_c, 2, 74, 60
4, 186624, Note_on_c, 2, 69, 60
4, 187004, Note_off_c, 2, 74, 0
4, 187004, Note_off_c, 2, 69, 0
4, 187008, Note_on_c, 2, 76, 60
4, 187008, Note_on_c, 2, 73, 60
4, 187388, Note_off_c, 2, 76, 0
4, 187388, Note_off_c, 2, 73, 0
4, 187392, Note_on_c, 2, 78, 60
4, 187392, Note_on_c, 2, 74, 60
4, 187580, Note_off_c, 2, 78, 0
4, 187580, Note_off_c, 2, 74, 0
4, 187584, Note_on_c, 2, 81, 60
4, 187584, Note_on_c, 2, 78, 60
4, 187772, Note_off_c, 2, 81, 0
4, 187772, Note_off_c, 2, 78, 0
4, 187776, Note_on_c, 2, 79, 60
4, 187776, Note_on_c, 2, 76, 60
4, 187964, Note_off_c, 2, 79, 0
4, 187964, Note_off_c, 2, 76, 0
4, 187968, Note_on_c, 2, 76, 60
4, 187968, Note_on_c, 2, 72, 60
4, 188156, Note_off_c, 2, 76, 0
4, 188156, Note_off_c, 2, 72, 0
4, 188160, Note_on_c, 2, 74, 60
4, 188540, Note_off_c, 2, 74, 0
4, 188544, Note_on_c, 2, 76, 60
4, 188544, Note_on_c, 2, 73, 60
4, 188924, Note_off_c, 2, 76, 0
4, 188924, Note_off_c, 2, 73, 0
4, 188928, Note_on_c, 2, 78, 60
4, 188928, Note_on_c, 2, 74, 60
4, 189116, Note_off_c, 2, 78, 0
4, 189116, Note_off_c, 2, 74, 0
4, 189120, Note_on_c, 2, 78, 60
4, 189120, Note_on_c, 2, 81, 60
4, 189308, Note_off_c, 2, 78, 0
4, 189308, Note_off_c, 2, 81, 0
4, 189312, Note_on_c, 2, 79, 60
4, 189312, Note_on_c, 2, 76, 60
4, 189500, Note_off_c, 2, 79, 0
4, 189500, Note_off_c, 2, 76, 0
4, 189504, Note_on_c, 2, 76, 60
4, 189504, Note_on_c, 2, 72, 60
4, 189692, Note_off_c, 2, 76, 0
4, 189692, Note_off_c, 2, 72, 0
4, 189696, Note_on_c, 2, 74, 60
4, 190076, Note_off_c, 2, 74, 0
4, 190080, Note_on_c, 2, 76, 60
4, 190080, Note_on_c, 2, 73, 60
4, 190460, Note_off_c, 2, 76, 0
4, 190460, Note_off_c, 2, 73, 0
4, 190464, Note_on_c, 2, 74, 60
4, 190464, Note_on_c, 2, 81, 60
4, 190652, Note_off_c, 2, 74, 0
4, 190656, Note_on_c, 2, 78, 60
4, 190844, Note_off_c, 2, 78, 0
4, 190848, Note_on_c, 2, 79, 60
4, 190848, Note_on_c, 2, 76, 60
4, 191036, Note_off_c, 2, 79, 0
4, 191036, Note_off_c, 2, 76, 0
4, 191040, Note_on_c, 2, 76, 60
4, 191040, Note_on_c, 2, 73, 60
4, 191228, Note_off_c, 2, 76, 0
4, 191228, Note_off_c, 2, 73, 0
4, 191232, Note_on_c, 2, 74, 60
4, 191612, Note_off_c, 2, 74, 0
4, 191616, Note_on_c, 2, 76, 60
4, 191616, Note_on_c, 2, 73, 60
4, 191996, Note_off_c, 2, 81, 0
4, 191996, Note_off_c, 2, 76, 0
4, 191996, Note_off_c, 2, 73, 0
4, 192000, Note_on_c, 2, 74, 60
4, 192000, Note_on_c, 2, 81, 60
4, 192188, Note_off_c, 2, 74, 0
4, 192192, Note_on_c, 2, 78, 60
4, 192380, Note_off_c, 2, 78, 0
4, 192384, Note_on_c, 2, 79, 60
4, 192384, Note_on_c, 2, 76, 60
4, 192572, Note_off_c, 2, 79, 0
4, 192572, Note_off_c, 2, 76, 0
4, 192576, Note_on_c, 2, 76, 60
4, 192576, Note_on_c, 2, 73, 60
4, 192764, Note_off_c, 2, 76, 0
4, 192764, Note_off_c, 2, 73, 0
4, 192768, Note_on_c, 2, 74, 60
4, 193148, Note_off_c, 2, 74, 0
4, 193152, Note_on_c, 2, 76, 60
4, 193152, Note_on_c, 2, 73, 60
4, 193532, Note_off_c, 2, 81, 0
4, 193532, Note_off_c, 2, 76, 0
4, 193532, Note_off_c, 2, 73, 0
4, 193728, Note_on_c, 2, 77, 60
4, 193916, Note_off_c, 2, 77, 0
4, 193920, Note_on_c, 2, 81, 60
4, 194108, Note_off_c, 2, 81, 0
4, 194112, Note_on_c, 2, 79, 60
4, 194300, Note_off_c, 2, 79, 0
4, 194304, Note_on_c, 2, 77, 60
4, 194492, Note_off_c, 2, 77, 0
4, 194496, Note_on_c, 2, 76, 60
4, 194684, Note_off_c, 2, 76, 0
4, 194688, Note_on_c, 2, 74, 60
4, 194876, Note_off_c, 2, 74, 0
4, 194880, Note_on_c, 2, 72, 60
4, 195068, Note_off_c, 2, 72, 0
4, 195072, Note_on_c, 2, 70, 60
4, 195264, Note_on_c, 2, 82, 60
4, 195452, Note_off_c, 2, 82, 0
4, 195456, Note_on_c, 2, 86, 60
4, 195644, Note_off_c, 2, 86, 0
4, 195648, Note_on_c, 2, 84, 60
4, 195836, Note_off_c, 2, 84, 0
4, 195840, Note_on_c, 2, 82, 60
4, 196028, Note_off_c, 2, 82, 0
4, 196032, Note_on_c, 2, 81, 60
4, 196220, Note_off_c, 2, 81, 0
4, 196224, Note_on_c, 2, 79, 60
4, 196412, Note_off_c, 2, 79, 0
4, 196416, Note_on_c, 2, 77, 60
4, 196604, Note_off_c, 2, 70, 0
4, 196604, Note_off_c, 2, 77, 0
4, 196608, Note_on_c, 2, 76, 60
4, 196608, Note_on_c, 2, 76, 60
4, 196608, Note_on_c, 2, 71, 60
4, 196796, Note_off_c, 2, 76, 0
4, 196796, Note_off_c, 2, 71, 0
4, 196800, Note_on_c, 2, 76, 60
4, 196988, Note_off_c, 2, 76, 0
4, 196992, Note_on_c, 2, 79, 60
4, 197180, Note_off_c, 2, 79, 0
4, 197184, Note_on_c, 2, 77, 60
4, 197372, Note_off_c, 2, 77, 0
4, 197376, Note_on_c, 2, 76, 60
4, 197564, Note_off_c, 2, 76, 0
4, 197568, Note_on_c, 2, 74, 60
4, 197756, Note_off_c, 2, 74, 0
4, 197760, Note_on_c, 2, 72, 60
4, 197948, Note_off_c, 2, 72, 0
4, 197952, Note_on_c, 2, 70, 60
4, 198140, Note_off_c, 2, 76, 0
4, 198140, Note_off_c, 2, 70, 0
4, 198144, Note_on_c, 2, 76, 60
4, 198332, Note_off_c, 2, 76, 0
4, 198336, Note_on_c, 2, 81, 60
4, 198524, Note_off_c, 2, 81, 0
4, 198528, Note_on_c, 2, 84, 60
4, 198716, Note_off_c, 2, 84, 0
4, 198720, Note_on_c, 2, 82, 60
4, 198908, Note_off_c, 2, 82, 0
4, 198912, Note_on_c, 2, 81, 60
4, 199100, Note_off_c, 2, 81, 0
4, 199104, Note_on_c, 2, 79, 60
4, 199292, Note_off_c, 2, 79, 0
4, 199296, Note_on_c, 2, 77, 60
4, 199484, Note_off_c, 2, 77, 0
4, 199488, Note_on_c, 2, 76, 60
4, 199676, Note_off_c, 2, 76, 0
4, 199680, Note_on_c, 2, 74, 60
4, 200444, Note_off_c, 2, 74, 0
4, 200448, Note_on_c, 2, 74, 60
4, 200448, Note_on_c, 2, 79, 60
4, 201212, Note_off_c, 2, 74, 0
4, 201212, Note_off_c, 2, 79, 0
4, 201216, Note_on_c, 2, 81, 60
4, 201216, Note_on_c, 2, 79, 60
4, 201216, Note_on_c, 2, 73, 60
4, 201596, Note_off_c, 2, 73, 0
4, 201600, Note_on_c, 2, 76, 60
4, 201980, Note_off_c, 2, 81, 0
4, 201980, Note_off_c, 2, 79, 0
4, 201980, Note_off_c, 2, 76, 0
4, 201984, Note_on_c, 2, 77, 60
4, 201984, Note_on_c, 2, 74, 60
4, 202364, Note_off_c, 2, 74, 0
4, 202368, Note_on_c, 2, 69, 60
4, 202748, Note_off_c, 2, 77, 0
4, 202748, Note_off_c, 2, 69, 0
4, 202752, Note_on_c, 2, 75, 60
4, 202752, Note_on_c, 2, 70, 60
4, 203516, Note_off_c, 2, 75, 0
4, 203516, Note_off_c, 2, 70, 0
4, 203520, Note_on_c, 2, 74, 60
4, 203520, Note_on_c, 2, 65, 60
4, 204284, Note_off_c, 2, 74, 0
4, 204284, Note_off_c, 2, 65, 0
4, 204288, Note_on_c, 2, 73, 60
4, 204288, Note_on_c, 2, 64, 60
4, 204288, Note_on_c, 2, 69, 60
4, 204668, Note_off_c, 2, 73, 0
4, 204668, Note_off_c, 2, 64, 0
4, 205440, Note_on_c, 2, 77, 60
4, 205440, Note_on_c, 2, 74, 60
4, 205820, Note_off_c, 2, 69, 0
4, 205820, Note_off_c, 2, 77, 0
4, 205820, Note_off_c, 2, 74, 0
4, 205824, Note_on_c, 2, 76, 60
4, 205824, Note_on_c, 2, 73, 60
4, 205824, Note_on_c, 2, 69, 60
4, 206204, Note_off_c, 2, 76, 0
4, 206204, Note_off_c, 2, 73, 0
4, 206976, Note_on_c, 2, 77, 60
4, 206976, Note_on_c, 2, 74, 60
4, 207356, Note_off_c, 2, 69, 0
4, 207356, Note_off_c, 2, 77, 0
4, 207356, Note_off_c, 2, 74, 0
4, 207360, Note_on_c, 2, 76, 60
4, 207360, Note_on_c, 2, 73, 60
4, 207360, Note_on_c, 2, 69, 60
4, 207740, Note_off_c, 2, 76, 0
4, 207740, Note_off_c, 2, 73, 0
4, 207740, Note_off_c, 2, 69, 0
4, 210432, Note_on_c, 2, 81, 60
4, 210624, Note_on_c, 2, 69, 60
4, 210716, Note_off_c, 2, 69, 0
4, 210816, Note_on_c, 2, 74, 60
4, 210908, Note_off_c, 2, 74, 0
4, 211008, Note_on_c, 2, 78, 60
4, 211100, Note_off_c, 2, 78, 0
4, 211200, Note_on_c, 2, 80, 60
4, 211388, Note_off_c, 2, 80, 0
4, 211392, Note_on_c, 2, 81, 60
4, 211580, Note_off_c, 2, 81, 0
4, 211584, Note_on_c, 2, 69, 60
4, 211676, Note_off_c, 2, 69, 0
4, 211776, Note_on_c, 2, 81, 60
4, 211868, Note_off_c, 2, 81, 0
4, 212160, Note_on_c, 2, 67, 60
4, 212252, Note_off_c, 2, 67, 0
4, 212352, Note_on_c, 2, 73, 60
4, 212444, Note_off_c, 2, 73, 0
4, 212544, Note_on_c, 2, 76, 60
4, 212636, Note_off_c, 2, 76, 0
4, 212736, Note_on_c, 2, 78, 60
4, 212924, Note_off_c, 2, 78, 0
4, 212928, Note_on_c, 2, 79, 60
4, 213116, Note_off_c, 2, 79, 0
4, 213120, Note_on_c, 2, 67, 60
4, 213212, Note_off_c, 2, 67, 0
4, 213312, Note_on_c, 2, 79, 60
4, 213404, Note_off_c, 2, 79, 0
4, 213504, Note_on_c, 2, 78, 60
4, 213504, Note_on_c, 2, 81, 60
4, 213884, Note_off_c, 2, 81, 64
4, 213884, Note_off_c, 2, 78, 0
4, 214268, Note_off_c, 2, 81, 0
4, 214272, Note_on_c, 2, 64, 60
4, 214272, Note_on_c, 2, 61, 60
4, 214272, Note_on_c, 2, 70, 60
4, 214652, Note_off_c, 2, 64, 0
4, 214652, Note_off_c, 2, 61, 0
4, 214652, Note_off_c, 2, 70, 0
4, 215040, Note_on_c, 2, 71, 60
4, 215040, Note_on_c, 2, 62, 60
4, 215420, Note_off_c, 2, 71, 0
4, 215420, Note_off_c, 2, 62, 0
4, 215808, Note_on_c, 2, 71, 60
4, 215808, Note_on_c, 2, 63, 60
4, 216188, Note_off_c, 2, 71, 0
4, 216188, Note_off_c, 2, 63, 0
4, 216576, Note_on_c, 2, 71, 60
4, 216576, Note_on_c, 2, 64, 60
4, 216956, Note_off_c, 2, 71, 0
4, 216956, Note_off_c, 2, 64, 0
4, 217344, Note_on_c, 2, 75, 60
4, 217344, Note_on_c, 2, 69, 60
4, 217724, Note_off_c, 2, 75, 0
4, 217724, Note_off_c, 2, 69, 0
4, 218112, Note_on_c, 2, 76, 60
4, 218112, Note_on_c, 2, 67, 60
4, 218492, Note_off_c, 2, 76, 0
4, 218492, Note_off_c, 2, 67, 0
4, 218880, Note_on_c, 2, 68, 60
4, 218880, Note_on_c, 2, 64, 60
4, 219260, Note_off_c, 2, 68, 0
4, 219260, Note_off_c, 2, 64, 0
4, 219648, Note_on_c, 2, 69, 60
4, 219648, Note_on_c, 2, 64, 60
4, 220028, Note_off_c, 2, 69, 0
4, 220028, Note_off_c, 2, 64, 0
4, 220416, Note_on_c, 2, 71, 60
4, 220416, Note_on_c, 2, 68, 60
4, 220796, Note_off_c, 2, 71, 0
4, 220796, Note_off_c, 2, 68, 0
4, 221184, Note_on_c, 2, 73, 60
4, 221184, Note_on_c, 2, 69, 60
4, 221564, Note_off_c, 2, 73, 0
4, 221564, Note_off_c, 2, 69, 0
4, 224256, Note_on_c, 2, 78, 60
4, 224256, Note_on_c, 2, 66, 60
4, 225404, Note_off_c, 2, 78, 0
4, 225404, Note_off_c, 2, 66, 0
4, 225408, Note_on_c, 2, 78, 60
4, 225408, Note_on_c, 2, 66, 60
4, 225788, Note_off_c, 2, 78, 0
4, 225788, Note_off_c, 2, 66, 0
4, 225792, Note_on_c, 2, 79, 60
4, 225792, Note_on_c, 2, 67, 60
4, 225980, Note_off_c, 2, 79, 0
4, 225980, Note_off_c, 2, 67, 0
4, 225984, Note_on_c, 2, 78, 60
4, 225984, Note_on_c, 2, 66, 60
4, 226172, Note_off_c, 2, 78, 0
4, 226172, Note_off_c, 2, 66, 0
4, 226176, Note_on_c, 2, 78, 60
4, 226176, Note_on_c, 2, 66, 60
4, 226556, Note_off_c, 2, 78, 0
4, 226556, Note_off_c, 2, 66, 0
4, 227328, Note_on_c, 2, 83, 60
4, 227328, Note_on_c, 2, 71, 60
4, 228476, Note_off_c, 2, 83, 0
4, 228476, Note_off_c, 2, 71, 0
4, 228480, Note_on_c, 2, 83, 60
4, 228480, Note_on_c, 2, 71, 60
4, 228860, Note_off_c, 2, 83, 0
4, 228860, Note_off_c, 2, 71, 0
4, 228864, Note_on_c, 2, 84, 60
4, 228864, Note_on_c, 2, 72, 60
4, 229052, Note_off_c, 2, 84, 0
4, 229052, Note_off_c, 2, 72, 0
4, 229056, Note_on_c, 2, 83, 60
4, 229056, Note_on_c, 2, 71, 60
4, 229244, Note_off_c, 2, 83, 0
4, 229244, Note_off_c, 2, 71, 0
4, 229248, Note_on_c, 2, 83, 60
4, 229248, Note_on_c, 2, 71, 60
4, 229628, Note_off_c, 2, 83, 0
4, 229628, Note_off_c, 2, 71, 0
4, 230400, Note_on_c, 2, 88, 60
4, 230400, Note_on_c, 2, 76, 60
4, 231548, Note_off_c, 2, 88, 0
4, 231548, Note_off_c, 2, 76, 0
4, 231552, Note_on_c, 2, 90, 60
4, 231552, Note_on_c, 2, 78, 60
4, 231740, Note_off_c, 2, 90, 0
4, 231740, Note_off_c, 2, 78, 0
4, 231744, Note_on_c, 2, 86, 60
4, 231744, Note_on_c, 2, 74, 60
4, 231932, Note_off_c, 2, 86, 0
4, 231932, Note_off_c, 2, 74, 0
4, 231936, Note_on_c, 2, 86, 60
4, 231936, Note_on_c, 2, 74, 60
4, 232124, Note_off_c, 2, 86, 0
4, 232124, Note_off_c, 2, 74, 0
4, 232128, Note_on_c, 2, 85, 60
4, 232128, Note_on_c, 2, 73, 60
4, 232316, Note_off_c, 2, 85, 0
4, 232316, Note_off_c, 2, 73, 0
4, 232320, Note_on_c, 2, 86, 60
4, 232320, Note_on_c, 2, 74, 60
4, 232412, Note_off_c, 2, 86, 0
4, 232412, Note_off_c, 2, 74, 0
4, 232512, Note_on_c, 2, 83, 60
4, 232512, Note_on_c, 2, 71, 60
4, 232604, Note_off_c, 2, 83, 0
4, 232604, Note_off_c, 2, 71, 0
4, 232704, Note_on_c, 2, 83, 60
4, 232704, Note_on_c, 2, 71, 60
4, 232892, Note_off_c, 2, 83, 0
4, 232892, Note_off_c, 2, 71, 0
4, 232896, Note_on_c, 2, 81, 60
4, 232896, Note_on_c, 2, 69, 60
4, 233084, Note_off_c, 2, 81, 0
4, 233084, Note_off_c, 2, 69, 0
4, 233856, Note_on_c, 2, 88, 60
4, 233856, Note_on_c, 2, 79, 60
4, 233856, Note_on_c, 2, 76, 60
4, 234044, Note_off_c, 2, 88, 0
4, 234044, Note_off_c, 2, 79, 0
4, 234044, Note_off_c, 2, 76, 0
4, 234240, Note_on_c, 2, 86, 60
4, 234240, Note_on_c, 2, 78, 60
4, 234240, Note_on_c, 2, 74, 60
4, 234428, Note_off_c, 2, 86, 0
4, 234428, Note_off_c, 2, 78, 0
4, 234428, Note_off_c, 2, 74, 0
4, 234624, Note_on_c, 2, 85, 60
4, 234624, Note_on_c, 2, 76, 60
4, 234624, Note_on_c, 2, 73, 60
4, 234812, Note_off_c, 2, 85, 0
4, 234812, Note_off_c, 2, 76, 0
4, 234812, Note_off_c, 2, 73, 0
4, 235008, Note_on_c, 2, 86, 60
4, 235008, Note_on_c, 2, 78, 60
4, 235008, Note_on_c, 2, 74, 60
4, 235388, Note_off_c, 2, 86, 0
4, 235388, Note_off_c, 2, 78, 0
4, 235388, Note_off_c, 2, 74, 0
4, 236160, Note_on_c, 2, 74, 60
4, 236160, Note_on_c, 2, 66, 60
4, 236160, Note_on_c, 2, 62, 60
4, 236540, Note_off_c, 2, 74, 0
4, 236540, Note_off_c, 2, 66, 0
4, 236540, Note_off_c, 2, 62, 0
4, 236544, Note_on_c, 2, 73, 60
4, 236544, Note_on_c, 2, 67, 60
4, 236544, Note_on_c, 2, 64, 60
4, 236924, Note_off_c, 2, 73, 0
4, 236924, Note_off_c, 2, 67, 0
4, 236924, Note_off_c, 2, 64, 0
4, 237696, Note_on_c, 2, 73, 60
4, 237696, Note_on_c, 2, 67, 60
4, 237696, Note_on_c, 2, 64, 60
4, 238076, Note_off_c, 2, 73, 0
4, 238076, Note_off_c, 2, 67, 0
4, 238076, Note_off_c, 2, 64, 0
4, 238080, Note_on_c, 2, 74, 60
4, 238080, Note_on_c, 2, 66, 60
4, 238268, Note_off_c, 2, 74, 0
4, 238268, Note_off_c, 2, 66, 0
4, 238464, Note_on_c, 2, 78, 60
4, 238464, Note_on_c, 2, 74, 60
4, 238844, Note_off_c, 2, 78, 0
4, 238844, Note_off_c, 2, 74, 0
4, 238848, Note_on_c, 2, 81, 60
4, 238848, Note_on_c, 2, 78, 60
4, 239036, Note_off_c, 2, 81, 0
4, 239036, Note_off_c, 2, 78, 0
4, 239232, Note_on_c, 2, 74, 60
4, 239232, Note_on_c, 2, 66, 60
4, 239232, Note_on_c, 2, 62, 60
4, 239612, Note_off_c, 2, 74, 0
4, 239612, Note_off_c, 2, 66, 0
4, 239612, Note_off_c, 2, 62, 0
4, 239616, Note_on_c, 2, 73, 60
4, 239616, Note_on_c, 2, 67, 60
4, 239616, Note_on_c, 2, 64, 60
4, 239804, Note_off_c, 2, 73, 0
4, 239804, Note_off_c, 2, 67, 0
4, 239804, Note_off_c, 2, 64, 0
4, 240000, Note_on_c, 2, 76, 60
4, 240000, Note_on_c, 2, 73, 60
4, 240380, Note_off_c, 2, 76, 0
4, 240380, Note_off_c, 2, 73, 0
4, 240384, Note_on_c, 2, 76, 60
4, 240384, Note_on_c, 2, 79, 60
4, 240572, Note_off_c, 2, 76, 0
4, 240572, Note_off_c, 2, 79, 0
4, 240768, Note_on_c, 2, 73, 60
4, 240768, Note_on_c, 2, 67, 60
4, 240768, Note_on_c, 2, 64, 60
4, 241148, Note_off_c, 2, 73, 0
4, 241148, Note_off_c, 2, 67, 0
4, 241148, Note_off_c, 2, 64, 0
4, 241152, Note_on_c, 2, 74, 60
4, 241152, Note_on_c, 2, 66, 60
4, 241532, Note_off_c, 2, 74, 0
4, 241532, Note_off_c, 2, 66, 0
4, 242304, Note_on_c, 2, 72, 60
4, 242304, Note_on_c, 2, 69, 60
4, 242304, Note_on_c, 2, 62, 60
4, 242684, Note_off_c, 2, 72, 0
4, 242684, Note_off_c, 2, 69, 0
4, 242684, Note_off_c, 2, 62, 0
4, 242688, Note_on_c, 2, 71, 60
4, 242688, Note_on_c, 2, 67, 60
4, 242688, Note_on_c, 2, 62, 60
4, 243068, Note_off_c, 2, 71, 0
4, 243068, Note_off_c, 2, 67, 0
4, 243068, Note_off_c, 2, 62, 0
4, 243840, Note_on_c, 2, 79, 60
4, 243840, Note_on_c, 2, 76, 60
4, 243840, Note_on_c, 2, 71, 60
4, 244220, Note_off_c, 2, 79, 0
4, 244220, Note_off_c, 2, 76, 0
4, 244220, Note_off_c, 2, 71, 0
4, 244224, Note_on_c, 2, 78, 60
4, 244224, Note_on_c, 2, 74, 60
4, 244224, Note_on_c, 2, 69, 60
4, 244604, Note_off_c, 2, 69, 0
4, 244608, Note_on_c, 2, 66, 60
4, 244988, Note_off_c, 2, 78, 0
4, 244988, Note_off_c, 2, 74, 0
4, 244988, Note_off_c, 2, 66, 0
4, 244992, Note_on_c, 2, 76, 60
4, 244992, Note_on_c, 2, 74, 60
4, 244992, Note_on_c, 2, 67, 60
4, 245372, Note_off_c, 2, 76, 0
4, 245372, Note_off_c, 2, 74, 0
4, 245372, Note_off_c, 2, 67, 0
4, 245376, Note_on_c, 2, 76, 60
4, 245376, Note_on_c, 2, 73, 60
4, 245376, Note_on_c, 2, 69, 60
4, 245564, Note_off_c, 2, 69, 0
4, 245568, Note_on_c, 2, 67, 60
4, 245756, Note_off_c, 2, 76, 0
4, 245756, Note_off_c, 2, 73, 0
4, 245756, Note_off_c, 2, 67, 0
4, 245760, Note_on_c, 2, 69, 60
4, 245760, Note_on_c, 2, 66, 60
4, 245760, Note_on_c, 2, 74, 60
4, 246044, Note_off_c, 2, 74, 0
4, 246048, Note_on_c, 2, 78, 60
4, 246140, Note_off_c, 2, 78, 0
4, 246144, Note_on_c, 2, 81, 60
4, 246908, Note_off_c, 2, 81, 0
4, 246912, Note_on_c, 2, 86, 60
4, 247292, Note_off_c, 2, 69, 0
4, 247292, Note_off_c, 2, 66, 0
4, 247292, Note_off_c, 2, 86, 0
4, 247296, Note_on_c, 2, 85, 60
4, 247296, Note_on_c, 2, 67, 60
4, 247296, Note_on_c, 2, 64, 60
4, 247580, Note_off_c, 2, 85, 0
4, 247584, Note_on_c, 2, 81, 60
4, 247676, Note_off_c, 2, 81, 0
4, 247680, Note_on_c, 2, 79, 60
4, 248444, Note_off_c, 2, 79, 0
4, 248448, Note_on_c, 2, 76, 60
4, 248636, Note_off_c, 2, 76, 0
4, 248640, Note_on_c, 2, 73, 60
4, 248828, Note_off_c, 2, 67, 0
4, 248828, Note_off_c, 2, 64, 0
4, 248828, Note_off_c, 2, 73, 0
4, 248832, Note_on_c, 2, 69, 60
4, 248832, Note_on_c, 2, 66, 60
4, 248832, Note_on_c, 2, 74, 60
4, 249120, Note_on_c, 2, 78, 60
4, 249212, Note_off_c, 2, 78, 0
4, 249216, Note_on_c, 2, 81, 60
4, 249404, Note_off_c, 2, 74, 0
4, 249980, Note_off_c, 2, 81, 0
4, 249984, Note_on_c, 2, 86, 60
4, 250364, Note_off_c, 2, 69, 0
4, 250364, Note_off_c, 2, 66, 0
4, 250364, Note_off_c, 2, 86, 0
4, 250368, Note_on_c, 2, 85, 60
4, 250368, Note_on_c, 2, 67, 60
4, 250368, Note_on_c, 2, 64, 60
4, 250652, Note_off_c, 2, 85, 0
4, 250656, Note_on_c, 2, 81, 60
4, 250748, Note_off_c, 2, 81, 0
4, 250752, Note_on_c, 2, 79, 60
4, 251516, Note_off_c, 2, 79, 0
4, 251520, Note_on_c, 2, 76, 60
4, 251708, Note_off_c, 2, 76, 0
4, 251712, Note_on_c, 2, 73, 60
4, 251900, Note_off_c, 2, 67, 0
4, 251900, Note_off_c, 2, 64, 0
4, 251900, Note_off_c, 2, 73, 0
4, 251904, Note_on_c, 2, 69, 60
4, 251904, Note_on_c, 2, 66, 60
4, 251904, Note_on_c, 2, 74, 60
4, 252284, Note_off_c, 2, 69, 0
4, 252284, Note_off_c, 2, 66, 0
4, 253436, Note_off_c, 2, 74, 0
4, 253440, Note_on_c, 2, 82, 60
4, 253440, Note_on_c, 2, 74, 60
4, 254972, Note_off_c, 2, 82, 0
4, 254972, Note_off_c, 2, 74, 0
4, 254976, Note_on_c, 2, 77, 60
4, 254976, Note_on_c, 2, 74, 60
4, 256508, Note_off_c, 2, 77, 0
4, 256508, Note_off_c, 2, 74, 0
4, 256512, Note_on_c, 2, 86, 60
4, 256512, Note_on_c, 2, 77, 60
4, 256512, Note_on_c, 2, 74, 60
4, 258044, Note_off_c, 2, 86, 0
4, 258044, Note_off_c, 2, 77, 0
4, 258044, Note_off_c, 2, 74, 0
4, 258048, Note_on_c, 2, 86, 60
4, 258048, Note_on_c, 2, 80, 60
4, 258048, Note_on_c, 2, 77, 60
4, 259580, Note_off_c, 2, 86, 0
4, 259580, Note_off_c, 2, 80, 0
4, 259580, Note_off_c, 2, 77, 0
4, 259584, Note_on_c, 2, 74, 60
4, 259584, Note_on_c, 2, 69, 60
4, 259584, Note_on_c, 2, 66, 60
4, 259772, Note_off_c, 2, 74, 0
4, 259772, Note_off_c, 2, 69, 0
4, 259772, Note_off_c, 2, 66, 0
4, 259776, Note_on_c, 2, 66, 60
4, 259776, Note_on_c, 2, 62, 60
4, 259964, Note_off_c, 2, 66, 0
4, 259964, Note_off_c, 2, 62, 0
4, 259968, Note_on_c, 2, 66, 60
4, 259968, Note_on_c, 2, 62, 60
4, 260156, Note_off_c, 2, 66, 0
4, 260156, Note_off_c, 2, 62, 0
4, 260160, Note_on_c, 2, 66, 60
4, 260160, Note_on_c, 2, 62, 60
4, 260348, Note_off_c, 2, 66, 0
4, 260348, Note_off_c, 2, 62, 0
4, 260352, Note_on_c, 2, 66, 63
4, 260352, Note_on_c, 2, 62, 63
4, 260540, Note_off_c, 2, 66, 0
4, 260540, Note_off_c, 2, 62, 0
4, 260544, Note_on_c, 2, 66, 63
4, 260544, Note_on_c, 2, 62, 63
4, 260732, Note_off_c, 2, 66, 0
4, 260732, Note_off_c, 2, 62, 0
4, 260736, Note_on_c, 2, 66, 65
4, 260736, Note_on_c, 2, 62, 65
4, 260924, Note_off_c, 2, 66, 0
4, 260924, Note_off_c, 2, 62, 0
4, 260928, Note_on_c, 2, 66, 67
4, 260928, Note_on_c, 2, 62, 67
4, 261116, Note_off_c, 2, 66, 0
4, 261116, Note_off_c, 2, 62, 0
4, 261120, Note_on_c, 2, 64, 69
4, 261120, Note_on_c, 2, 60, 69
4, 261212, Note_off_c, 2, 64, 0
4, 261212, Note_off_c, 2, 60, 0
4, 261216, Note_on_c, 2, 57, 70
4, 261308, Note_off_c, 2, 57, 0
4, 261312, Note_on_c, 2, 64, 71
4, 261312, Note_on_c, 2, 60, 71
4, 261404, Note_off_c, 2, 64, 0
4, 261404, Note_off_c, 2, 60, 0
4, 261408, Note_on_c, 2, 57, 71
4, 261500, Note_off_c, 2, 57, 0
4, 261504, Note_on_c, 2, 64, 72
4, 261504, Note_on_c, 2, 60, 72
4, 261596, Note_off_c, 2, 64, 0
4, 261596, Note_off_c, 2, 60, 0
4, 261600, Note_on_c, 2, 57, 73
4, 261692, Note_off_c, 2, 57, 0
4, 261696, Note_on_c, 2, 64, 75
4, 261696, Note_on_c, 2, 60, 75
4, 261788, Note_off_c, 2, 64, 0
4, 261788, Note_off_c, 2, 60, 0
4, 261792, Note_on_c, 2, 57, 75
4, 261884, Note_off_c, 2, 57, 0
4, 261888, Note_on_c, 2, 73, 76
4, 261980, Note_off_c, 2, 73, 0
4, 261984, Note_on_c, 2, 67, 78
4, 262076, Note_off_c, 2, 67, 0
4, 262080, Note_on_c, 2, 73, 78
4, 262172, Note_off_c, 2, 73, 0
4, 262176, Note_on_c, 2, 67, 79
4, 262268, Note_off_c, 2, 67, 0
4, 262272, Note_on_c, 2, 73, 79
4, 262364, Note_off_c, 2, 73, 0
4, 262368, Note_on_c, 2, 67, 79
4, 262460, Note_off_c, 2, 67, 0
4, 262464, Note_on_c, 2, 73, 80
4, 262556, Note_off_c, 2, 73, 0
4, 262560, Note_on_c, 2, 67, 81
4, 262652, Note_off_c, 2, 67, 0
4, 262656, Note_on_c, 2, 74, 82
4, 262656, Note_on_c, 2, 69, 82
4, 262656, Note_on_c, 2, 66, 82
4, 264188, Note_off_c, 2, 74, 0
4, 264188, Note_off_c, 2, 69, 0
4, 264188, Note_off_c, 2, 66, 0
4, 264192, Note_on_c, 2, 76, 82
4, 264192, Note_on_c, 2, 74, 82
4, 264192, Note_on_c, 2, 71, 82
4, 264192, Note_on_c, 2, 67, 82
4, 264956, Note_off_c, 2, 74, 0
4, 264956, Note_off_c, 2, 71, 0
4, 264956, Note_off_c, 2, 67, 0
4, 264960, Note_on_c, 2, 72, 82
4, 264960, Note_on_c, 2, 69, 82
4, 265340, Note_off_c, 2, 76, 0
4, 265344, Note_on_c, 2, 78, 86
4, 265384, Note_off_c, 2, 78, 0
4, 265392, Note_on_c, 2, 79, 86
4, 265432, Note_off_c, 2, 79, 0
4, 265440, Note_on_c, 2, 78, 86
4, 265480, Note_off_c, 2, 78, 0
4, 265488, Note_on_c, 2, 79, 86
4, 265528, Note_off_c, 2, 79, 0
4, 265536, Note_on_c, 2, 76, 84
4, 265624, Note_off_c, 2, 76, 0
4, 265632, Note_on_c, 2, 78, 84
4, 265720, Note_off_c, 2, 78, 0
4, 265724, Note_off_c, 2, 72, 0
4, 265724, Note_off_c, 2, 69, 0
4, 265728, Note_on_c, 2, 79, 82
4, 265728, Note_on_c, 2, 71, 82
4, 265728, Note_on_c, 2, 67, 82
4, 265916, Note_off_c, 2, 79, 0
4, 265920, Note_on_c, 2, 76, 82
4, 266108, Note_off_c, 2, 76, 0
4, 266112, Note_on_c, 2, 71, 82
4, 266492, Note_off_c, 2, 71, 0
4, 266492, Note_off_c, 2, 67, 0
4, 266492, Note_off_c, 2, 71, 0
4, 266496, Note_on_c, 2, 67, 82
4, 266496, Note_on_c, 2, 71, 82
4, 266684, Note_off_c, 2, 71, 0
4, 266688, Note_on_c, 2, 74, 82
4, 266876, Note_off_c, 2, 74, 0
4, 266880, Note_on_c, 2, 73, 82
4, 267068, Note_off_c, 2, 73, 0
4, 267072, Note_on_c, 2, 76, 82
4, 267260, Note_off_c, 2, 67, 0
4, 267260, Note_off_c, 2, 76, 0
4, 267264, Note_on_c, 2, 74, 82
4, 267264, Note_on_c, 2, 69, 82
4, 267264, Note_on_c, 2, 66, 82
4, 267644, Note_off_c, 2, 74, 0
4, 267644, Note_off_c, 2, 69, 0
4, 267644, Note_off_c, 2, 66, 0
4, 267648, Note_on_c, 2, 76, 82
4, 267648, Note_on_c, 2, 73, 82
4, 267648, Note_on_c, 2, 69, 82
4, 268028, Note_off_c, 2, 76, 0
4, 268028, Note_off_c, 2, 73, 0
4, 268028, Note_off_c, 2, 69, 0
4, 268032, Note_on_c, 2, 78, 82
4, 268032, Note_on_c, 2, 74, 82
4, 268032, Note_on_c, 2, 69, 82
4, 268412, Note_off_c, 2, 78, 0
4, 268412, Note_off_c, 2, 74, 0
4, 268412, Note_off_c, 2, 69, 0
4, 268416, Note_on_c, 2, 79, 82
4, 268416, Note_on_c, 2, 76, 82
4, 268416, Note_on_c, 2, 69, 82
4, 268796, Note_off_c, 2, 79, 0
4, 268796, Note_off_c, 2, 76, 0
4, 268796, Note_off_c, 2, 69, 0
4, 268800, Note_on_c, 2, 81, 82
4, 268800, Note_on_c, 2, 78, 82
4, 268800, Note_on_c, 2, 74, 82
4, 268800, Note_on_c, 2, 69, 82
4, 269564, Note_off_c, 2, 81, 0
4, 269564, Note_off_c, 2, 78, 0
4, 269564, Note_off_c, 2, 74, 0
4, 269564, Note_off_c, 2, 69, 0
4, 269568, Note_on_c, 2, 79, 82
4, 269568, Note_on_c, 2, 84, 82
4, 269660, Note_off_c, 2, 84, 0
4, 269664, Note_on_c, 2, 83, 82
4, 269756, Note_off_c, 2, 83, 0
4, 269760, Note_on_c, 2, 81, 82
4, 269852, Note_off_c, 2, 81, 0
4, 269856, Note_on_c, 2, 83, 82
4, 269948, Note_off_c, 2, 79, 0
4, 269948, Note_off_c, 2, 83, 0
4, 269952, Note_on_c, 2, 79, 82
4, 269952, Note_on_c, 2, 86, 82
4, 270044, Note_off_c, 2, 86, 0
4, 270048, Note_on_c, 2, 85, 82
4, 270140, Note_off_c, 2, 85, 0
4, 270144, Note_on_c, 2, 83, 82
4, 270236, Note_off_c, 2, 83, 0
4, 270240, Note_on_c, 2, 85, 82
4, 270332, Note_off_c, 2, 79, 0
4, 270332, Note_off_c, 2, 85, 0
4, 270336, Note_on_c, 2, 86, 82
4, 270336, Note_on_c, 2, 78, 82
4, 270716, Note_off_c, 2, 86, 0
4, 270716, Note_off_c, 2, 78, 0
4, 270720, Note_on_c, 2, 86, 82
4, 270720, Note_on_c, 2, 81, 82
4, 270720, Note_on_c, 2, 78, 82
4, 270720, Note_on_c, 2, 74, 82
4, 271100, Note_off_c, 2, 86, 0
4, 271100, Note_off_c, 2, 81, 0
4, 271100, Note_off_c, 2, 78, 0
4, 271100, Note_off_c, 2, 74, 0
4, 271488, Note_on_c, 2, 78, 82
4, 271488, Note_on_c, 2, 74, 82
4, 271488, Note_on_c, 2, 71, 82
4, 271488, Note_on_c, 2, 66, 82
4, 271868, Note_off_c, 2, 78, 0
4, 271868, Note_off_c, 2, 74, 0
4, 271868, Note_off_c, 2, 71, 0
4, 271868, Note_off_c, 2, 66, 0
4, 272256, Note_on_c, 2, 79, 82
4, 272256, Note_on_c, 2, 83, 82
4, 272256, Note_on_c, 2, 74, 82
4, 272256, Note_on_c, 2, 71, 82
4, 272636, Note_off_c, 2, 79, 0
4, 272636, Note_off_c, 2, 83, 0
4, 272636, Note_off_c, 2, 74, 0
4, 272636, Note_off_c, 2, 71, 0
4, 273024, Note_on_c, 2, 73, 82
4, 273024, Note_on_c, 2, 69, 82
4, 273024, Note_on_c, 2, 67, 82
4, 273024, Note_on_c, 2, 64, 82
4, 273404, Note_off_c, 2, 73, 0
4, 273404, Note_off_c, 2, 69, 0
4, 273404, Note_off_c, 2, 67, 0
4, 273404, Note_off_c, 2, 64, 0
4, 273408, Note_on_c, 2, 74, 82
4, 273408, Note_on_c, 2, 66, 82
4, 273596, Note_off_c, 2, 74, 0
4, 273596, Note_off_c, 2, 66, 0
4, 273696, Note_on_c, 2, 69, 85
4, 273784, Note_off_c, 2, 69, 0
4, 273792, Note_on_c, 2, 78, 82
4, 273792, Note_on_c, 2, 81, 82
4, 274556, Note_off_c, 2, 78, 0
4, 274556, Note_off_c, 2, 81, 0
4, 274560, Note_on_c, 2, 79, 82
4, 274560, Note_on_c, 2, 76, 82
4, 274560, Note_on_c, 2, 73, 82
4, 274748, Note_off_c, 2, 79, 0
4, 274748, Note_off_c, 2, 76, 0
4, 274748, Note_off_c, 2, 73, 0
4, 274944, Note_on_c, 2, 78, 82
4, 274944, Note_on_c, 2, 74, 82
4, 275132, Note_off_c, 2, 78, 0
4, 275132, Note_off_c, 2, 74, 0
4, 275328, Note_on_c, 2, 79, 82
4, 275328, Note_on_c, 2, 76, 82
4, 275328, Note_on_c, 2, 71, 82
4, 275516, Note_off_c, 2, 79, 0
4, 275516, Note_off_c, 2, 76, 0
4, 275516, Note_off_c, 2, 71, 0
4, 276096, Note_on_c, 2, 76, 82
4, 276096, Note_on_c, 2, 73, 82
4, 276096, Note_on_c, 2, 67, 82
4, 276284, Note_off_c, 2, 76, 0
4, 276284, Note_off_c, 2, 73, 0
4, 276284, Note_off_c, 2, 67, 0
4, 276480, Note_on_c, 2, 74, 82
4, 276480, Note_on_c, 2, 66, 82
4, 276668, Note_off_c, 2, 74, 0
4, 276668, Note_off_c, 2, 66, 0
4, 276768, Note_on_c, 2, 69, 85
4, 276856, Note_off_c, 2, 69, 0
4, 276864, Note_on_c, 2, 81, 82
4, 276864, Note_on_c, 2, 78, 82
4, 277628, Note_off_c, 2, 81, 0
4, 277628, Note_off_c, 2, 78, 0
4, 277632, Note_on_c, 2, 79, 82
4, 277632, Note_on_c, 2, 76, 82
4, 277632, Note_on_c, 2, 73, 82
4, 277820, Note_off_c, 2, 79, 0
4, 277820, Note_off_c, 2, 76, 0
4, 277820, Note_off_c, 2, 73, 0
4, 278016, Note_on_c, 2, 78, 82
4, 278016, Note_on_c, 2, 74, 82
4, 278204, Note_off_c, 2, 78, 0
4, 278204, Note_off_c, 2, 74, 0
4, 278400, Note_on_c, 2, 83, 82
4, 278400, Note_on_c, 2, 74, 82
4, 278400, Note_on_c, 2, 71, 82
4, 278588, Note_off_c, 2, 83, 0
4, 278588, Note_off_c, 2, 74, 0
4, 278588, Note_off_c, 2, 71, 0
4, 279552, Note_on_c, 2, 71, 60
4, 280700, Note_off_c, 2, 71, 0
4, 280704, Note_on_c, 2, 76, 60
4, 281084, Note_off_c, 2, 76, 0
4, 281088, Note_on_c, 2, 74, 60
4, 281276, Note_off_c, 2, 74, 0
4, 281280, Note_on_c, 2, 73, 60
4, 281280, Note_on_c, 2, 67, 60
4, 281468, Note_off_c, 2, 73, 0
4, 281468, Note_off_c, 2, 67, 0
4, 281472, Note_on_c, 2, 66, 60
4, 281472, Note_on_c, 2, 73, 60
4, 281660, Note_off_c, 2, 66, 0
4, 281664, Note_on_c, 2, 67, 60
4, 281852, Note_off_c, 2, 67, 0
4, 281856, Note_on_c, 2, 66, 60
4, 282044, Note_off_c, 2, 66, 0
4, 282048, Note_on_c, 2, 67, 60
4, 282236, Note_off_c, 2, 73, 0
4, 282236, Note_off_c, 2, 67, 0
4, 282240, Note_on_c, 2, 73, 60
4, 282240, Note_on_c, 2, 69, 60
4, 282428, Note_off_c, 2, 69, 0
4, 282432, Note_on_c, 2, 67, 60
4, 282620, Note_off_c, 2, 73, 0
4, 282620, Note_off_c, 2, 67, 0
4, 282624, Note_on_c, 2, 77, 60
4, 282624, Note_on_c, 2, 74, 60
4, 283004, Note_off_c, 2, 77, 0
4, 283004, Note_off_c, 2, 74, 0
4, 283008, Note_on_c, 2, 82, 60
4, 283388, Note_off_c, 2, 82, 0
4, 283392, Note_on_c, 2, 86, 60
4, 283772, Note_off_c, 2, 86, 0
4, 283776, Note_on_c, 2, 89, 60
4, 284156, Note_off_c, 2, 89, 0
4, 284160, Note_on_c, 2, 89, 60
4, 285692, Note_off_c, 2, 89, 0
4, 285696, Note_on_c, 2, 65, 60
4, 286076, Note_off_c, 2, 65, 0
4, 286080, Note_on_c, 2, 70, 60
4, 286460, Note_off_c, 2, 70, 0
4, 286464, Note_on_c, 2, 74, 60
4, 286844, Note_off_c, 2, 74, 0
4, 286848, Note_on_c, 2, 77, 60
4, 287228, Note_off_c, 2, 77, 0
4, 287232, Note_on_c, 2, 84, 60
4, 287232, Note_on_c, 2, 87, 60
4, 287612, Note_off_c, 2, 84, 0
4, 287612, Note_off_c, 2, 87, 0
4, 287616, Note_on_c, 2, 81, 60
4, 287616, Note_on_c, 2, 84, 60
4, 287996, Note_off_c, 2, 81, 0
4, 287996, Note_off_c, 2, 84, 0
4, 288000, Note_on_c, 2, 75, 60
4, 288000, Note_on_c, 2, 81, 60
4, 288380, Note_off_c, 2, 75, 0
4, 288380, Note_off_c, 2, 81, 0
4, 288384, Note_on_c, 2, 75, 60
4, 288384, Note_on_c, 2, 72, 60
4, 288764, Note_off_c, 2, 75, 0
4, 288764, Note_off_c, 2, 72, 0
4, 288768, Note_on_c, 2, 74, 60
4, 288768, Note_on_c, 2, 70, 60
4, 288768, Note_on_c, 2, 65, 60
4, 289532, Note_off_c, 2, 65, 0
4, 289536, Note_on_c, 2, 62, 60
4, 289916, Note_off_c, 2, 62, 0
4, 289920, Note_on_c, 2, 65, 60
4, 290300, Note_off_c, 2, 74, 0
4, 290300, Note_off_c, 2, 70, 0
4, 290300, Note_off_c, 2, 65, 0
4, 290304, Note_on_c, 2, 74, 60
4, 290304, Note_on_c, 2, 71, 60
4, 290304, Note_on_c, 2, 65, 60
4, 291068, Note_off_c, 2, 65, 0
4, 291072, Note_on_c, 2, 62, 60
4, 291452, Note_off_c, 2, 62, 0
4, 291456, Note_on_c, 2, 65, 60
4, 291836, Note_off_c, 2, 74, 0
4, 291836, Note_off_c, 2, 71, 0
4, 291836, Note_off_c, 2, 65, 0
4, 291840, Note_on_c, 2, 66, 60
4, 292220, Note_off_c, 2, 66, 0
4, 292224, Note_on_c, 2, 71, 60
4, 292604, Note_off_c, 2, 71, 0
4, 292608, Note_on_c, 2, 74, 60
4, 292988, Note_off_c, 2, 74, 0
4, 292992, Note_on_c, 2, 78, 60
4, 293372, Note_off_c, 2, 78, 0
4, 293376, Note_on_c, 2, 68, 60
4, 293756, Note_off_c, 2, 68, 0
4, 293760, Note_on_c, 2, 71, 60
4, 294140, Note_off_c, 2, 71, 0
4, 294144, Note_on_c, 2, 74, 60
4, 294524, Note_off_c, 2, 74, 0
4, 294528, Note_on_c, 2, 80, 60
4, 294908, Note_off_c, 2, 80, 0
4, 294912, Note_on_c, 2, 81, 60
4, 294912, Note_on_c, 2, 76, 60
4, 294912, Note_on_c, 2, 72, 60
4, 295292, Note_off_c, 2, 81, 0
4, 295292, Note_off_c, 2, 76, 0
4, 295292, Note_off_c, 2, 72, 0
4, 295296, Note_on_c, 2, 81, 60
4, 295676, Note_off_c, 2, 81, 0
4, 295680, Note_on_c, 2, 84, 60
4, 296060, Note_off_c, 2, 84, 0
4, 296064, Note_on_c, 2, 88, 60
4, 296444, Note_off_c, 2, 88, 0
4, 296448, Note_on_c, 2, 88, 60
4, 296448, Note_on_c, 2, 86, 60
4, 296448, Note_on_c, 2, 83, 60
4, 297980, Note_off_c, 2, 88, 0
4, 297980, Note_off_c, 2, 86, 0
4, 297980, Note_off_c, 2, 83, 0
4, 297984, Note_on_c, 2, 64, 60
4, 298364, Note_off_c, 2, 64, 0
4, 298368, Note_on_c, 2, 69, 60
4, 298748, Note_off_c, 2, 69, 0
4, 298752, Note_on_c, 2, 72, 60
4, 299132, Note_off_c, 2, 72, 0
4, 299136, Note_on_c, 2, 76, 60
4, 299516, Note_off_c, 2, 76, 0
4, 299520, Note_on_c, 2, 86, 60
4, 299520, Note_on_c, 2, 83, 60
4, 299520, Note_on_c, 2, 76, 60
4, 299900, Note_off_c, 2, 86, 0
4, 299900, Note_off_c, 2, 83, 0
4, 299904, Note_on_c, 2, 83, 60
4, 299904, Note_on_c, 2, 80, 60
4, 300284, Note_off_c, 2, 83, 0
4, 300284, Note_off_c, 2, 80, 0
4, 300288, Note_on_c, 2, 80, 60
4, 300288, Note_on_c, 2, 74, 60
4, 300668, Note_off_c, 2, 80, 0
4, 300668, Note_off_c, 2, 74, 0
4, 300672, Note_on_c, 2, 74, 60
4, 300672, Note_on_c, 2, 71, 60
4, 301052, Note_off_c, 2, 76, 0
4, 301052, Note_off_c, 2, 74, 0
4, 301052, Note_off_c, 2, 71, 0
4, 301056, Note_on_c, 2, 72, 60
4, 301056, Note_on_c, 2, 69, 60
4, 301056, Note_on_c, 2, 64, 60
4, 301820, Note_off_c, 2, 72, 0
4, 301820, Note_off_c, 2, 69, 0
4, 301820, Note_off_c, 2, 64, 0
4, 301824, Note_on_c, 2, 73, 60
4, 301824, Note_on_c, 2, 61, 60
4, 302204, Note_off_c, 2, 61, 0
4, 302208, Note_on_c, 2, 64, 60
4, 302588, Note_off_c, 2, 73, 0
4, 302588, Note_off_c, 2, 64, 0
4, 302592, Note_on_c, 2, 73, 60
4, 302592, Note_on_c, 2, 70, 60
4, 302592, Note_on_c, 2, 64, 60
4, 303356, Note_off_c, 2, 64, 0
4, 303360, Note_on_c, 2, 61, 60
4, 303740, Note_off_c, 2, 61, 0
4, 303744, Note_on_c, 2, 64, 60
4, 304124, Note_off_c, 2, 73, 0
4, 304124, Note_off_c, 2, 70, 0
4, 304124, Note_off_c, 2, 64, 0
4, 304128, Note_on_c, 2, 65, 60
4, 304508, Note_off_c, 2, 65, 0
4, 304512, Note_on_c, 2, 70, 60
4, 304892, Note_off_c, 2, 70, 0
4, 304896, Note_on_c, 2, 73, 60
4, 305276, Note_off_c, 2, 73, 0
4, 305280, Note_on_c, 2, 77, 60
4, 305660, Note_off_c, 2, 77, 0
4, 305664, Note_on_c, 2, 67, 60
4, 306044, Note_off_c, 2, 67, 0
4, 306048, Note_on_c, 2, 70, 60
4, 306428, Note_off_c, 2, 70, 0
4, 306432, Note_on_c, 2, 73, 60
4, 306812, Note_off_c, 2, 73, 0
4, 306816, Note_on_c, 2, 79, 60
4, 307196, Note_off_c, 2, 79, 0
4, 307200, Note_on_c, 2, 70, 60
4, 307580, Note_off_c, 2, 70, 0
4, 307584, Note_on_c, 2, 74, 60
4, 307964, Note_off_c, 2, 74, 0
4, 307968, Note_on_c, 2, 79, 60
4, 308348, Note_off_c, 2, 79, 0
4, 308352, Note_on_c, 2, 82, 60
4, 308732, Note_off_c, 2, 82, 0
4, 308736, Note_on_c, 2, 82, 60
4, 308736, Note_on_c, 2, 79, 60
4, 308736, Note_on_c, 2, 76, 60
4, 310272, Note_on_c, 2, 79, 60
4, 310272, Note_on_c, 2, 76, 60
4, 311036, Note_off_c, 2, 76, 0
4, 311036, Note_off_c, 2, 79, 0
4, 311036, Note_off_c, 2, 82, 0
4, 311420, Note_off_c, 2, 79, 0
4, 311420, Note_off_c, 2, 76, 0
4, 311424, Note_on_c, 2, 76, 60
4, 311804, Note_off_c, 2, 76, 0
4, 311808, Note_on_c, 2, 83, 60
4, 311808, Note_on_c, 2, 75, 60
4, 311808, Note_on_c, 2, 71, 60
4, 312188, Note_off_c, 2, 83, 0
4, 312188, Note_off_c, 2, 75, 0
4, 313340, Note_off_c, 2, 71, 0
4, 313344, Note_on_c, 2, 71, 60
4, 313728, Note_on_c, 2, 83, 60
4, 314108, Note_off_c, 2, 83, 0
4, 314112, Note_on_c, 2, 83, 60
4, 314492, Note_off_c, 2, 83, 0
4, 314496, Note_on_c, 2, 83, 60
4, 314876, Note_off_c, 2, 71, 0
4, 314876, Note_off_c, 2, 83, 0
4, 314880, Note_on_c, 2, 83, 60
4, 314880, Note_on_c, 2, 71, 60
4, 315260, Note_off_c, 2, 83, 0
4, 316412, Note_off_c, 2, 71, 0
4, 316416, Note_on_c, 2, 71, 60
4, 316800, Note_on_c, 2, 83, 60
4, 317180, Note_off_c, 2, 83, 0
4, 317184, Note_on_c, 2, 83, 60
4, 317564, Note_off_c, 2, 83, 0
4, 317568, Note_on_c, 2, 83, 60
4, 317948, Note_off_c, 2, 71, 0
4, 317948, Note_off_c, 2, 83, 0
4, 317952, Note_on_c, 2, 83, 63
4, 317952, Note_on_c, 2, 71, 63
4, 318040, Note_off_c, 2, 83, 0
4, 318040, Note_off_c, 2, 71, 0
4, 318144, Note_on_c, 2, 71, 60
4, 318144, Note_on_c, 2, 66, 60
4, 318332, Note_off_c, 2, 66, 0
4, 318336, Note_on_c, 2, 66, 60
4, 318524, Note_off_c, 2, 71, 0
4, 318528, Note_on_c, 2, 71, 60
4, 318908, Note_off_c, 2, 71, 0
4, 318912, Note_on_c, 2, 71, 60
4, 319292, Note_off_c, 2, 71, 0
4, 319296, Note_on_c, 2, 71, 60
4, 319484, Note_off_c, 2, 66, 0
4, 319488, Note_on_c, 2, 66, 60
4, 319676, Note_off_c, 2, 71, 0
4, 319680, Note_on_c, 2, 72, 60
4, 320060, Note_off_c, 2, 72, 0
4, 320064, Note_on_c, 2, 72, 60
4, 320444, Note_off_c, 2, 72, 0
4, 320448, Note_on_c, 2, 74, 60
4, 320828, Note_off_c, 2, 74, 0
4, 320832, Note_on_c, 2, 74, 60
4, 321020, Note_off_c, 2, 66, 0
4, 321024, Note_on_c, 2, 67, 60
4, 321212, Note_off_c, 2, 74, 0
4, 321216, Note_on_c, 2, 76, 60
4, 321596, Note_off_c, 2, 76, 0
4, 321600, Note_on_c, 2, 76, 60
4, 321980, Note_off_c, 2, 76, 0
4, 321984, Note_on_c, 2, 79, 60
4, 322364, Note_off_c, 2, 79, 0
4, 322368, Note_on_c, 2, 79, 60
4, 322556, Note_off_c, 2, 67, 0
4, 322560, Note_on_c, 2, 67, 60
4, 322748, Note_off_c, 2, 79, 0
4, 322752, Note_on_c, 2, 77, 60
4, 323132, Note_off_c, 2, 77, 0
4, 323136, Note_on_c, 2, 77, 60
4, 323516, Note_off_c, 2, 77, 0
4, 323520, Note_on_c, 2, 71, 60
4, 323900, Note_off_c, 2, 71, 0
4, 323904, Note_on_c, 2, 71, 60
4, 324092, Note_off_c, 2, 67, 0
4, 324092, Note_off_c, 2, 71, 0
4, 324096, Note_on_c, 2, 72, 60
4, 324284, Note_off_c, 2, 72, 0
4, 325248, Note_on_c, 2, 72, 60
4, 325436, Note_off_c, 2, 72, 0
4, 325632, Note_on_c, 2, 75, 60
4, 325632, Note_on_c, 2, 67, 60
4, 325820, Note_off_c, 2, 75, 0
4, 325820, Note_off_c, 2, 67, 0
4, 326784, Note_on_c, 2, 72, 60
4, 326972, Note_off_c, 2, 72, 0
4, 327168, Note_on_c, 2, 81, 60
4, 327168, Note_on_c, 2, 72, 60
4, 327356, Note_off_c, 2, 81, 0
4, 327356, Note_off_c, 2, 72, 0
4, 328320, Note_on_c, 2, 74, 60
4, 328320, Note_on_c, 2, 69, 60
4, 328508, Note_off_c, 2, 74, 0
4, 328508, Note_off_c, 2, 69, 0
4, 328704, Note_on_c, 2, 81, 60
4, 328704, Note_on_c, 2, 84, 60
4, 328704, Note_on_c, 2, 74, 60
4, 328892, Note_off_c, 2, 81, 0
4, 328892, Note_off_c, 2, 84, 0
4, 328892, Note_off_c, 2, 74, 0
4, 329856, Note_on_c, 2, 62, 60
4, 330044, Note_off_c, 2, 62, 0
4, 330240, Note_on_c, 2, 74, 60
4, 330240, Note_on_c, 2, 70, 60
4, 330240, Note_on_c, 2, 67, 60
4, 330428, Note_off_c, 2, 74, 0
4, 330428, Note_off_c, 2, 70, 0
4, 330428, Note_off_c, 2, 67, 0
4, 331392, Note_on_c, 2, 74, 60
4, 331392, Note_on_c, 2, 70, 60
4, 331392, Note_on_c, 2, 67, 60
4, 331580, Note_off_c, 2, 74, 0
4, 331580, Note_off_c, 2, 70, 0
4, 331580, Note_off_c, 2, 67, 0
4, 331776, Note_on_c, 2, 82, 60
4, 331776, Note_on_c, 2, 79, 60
4, 331776, Note_on_c, 2, 74, 60
4, 331964, Note_off_c, 2, 82, 0
4, 331964, Note_off_c, 2, 79, 0
4, 331964, Note_off_c, 2, 74, 0
4, 332928, Note_on_c, 2, 70, 60
4, 332928, Note_on_c, 2, 67, 60
4, 332928, Note_on_c, 2, 62, 60
4, 333116, Note_off_c, 2, 70, 0
4, 333116, Note_off_c, 2, 67, 0
4, 333116, Note_off_c, 2, 62, 0
4, 333312, Note_on_c, 2, 79, 60
4, 333312, Note_on_c, 2, 73, 60
4, 333312, Note_on_c, 2, 70, 60
4, 333500, Note_off_c, 2, 79, 0
4, 333500, Note_off_c, 2, 73, 0
4, 333500, Note_off_c, 2, 70, 0
4, 334464, Note_on_c, 2, 79, 60
4, 334464, Note_on_c, 2, 73, 60
4, 334464, Note_on_c, 2, 70, 60
4, 334652, Note_off_c, 2, 79, 0
4, 334652, Note_off_c, 2, 73, 0
4, 334652, Note_off_c, 2, 70, 64
4, 334848, Note_on_c, 2, 79, 60
4, 334848, Note_on_c, 2, 85, 60
4, 335036, Note_off_c, 2, 79, 0
4, 335036, Note_off_c, 2, 85, 0
4, 336000, Note_on_c, 2, 73, 60
4, 336000, Note_on_c, 2, 69, 60
4, 336000, Note_on_c, 2, 67, 60
4, 336188, Note_off_c, 2, 73, 0
4, 336188, Note_off_c, 2, 69, 0
4, 336188, Note_off_c, 2, 67, 0
4, 336384, Note_on_c, 2, 74, 60
4, 336384, Note_on_c, 2, 66, 60
4, 336572, Note_off_c, 2, 74, 0
4, 336572, Note_off_c, 2, 66, 0
4, 339456, Note_on_c, 2, 86, 59
4, 339456, Note_on_c, 2, 74, 59
4, 344444, Note_off_c, 2, 74, 64
4, 344444, Note_off_c, 2, 86, 64
4, 345984, Note_on_c, 2, 84, 60
4, 345984, Note_on_c, 2, 78, 60
4, 345984, Note_on_c, 2, 72, 60
4, 346172, Note_off_c, 2, 84, 0
4, 346172, Note_off_c, 2, 78, 0
4, 346172, Note_off_c, 2, 72, 0
4, 346368, Note_on_c, 2, 84, 60
4, 346368, Note_on_c, 2, 78, 60
4, 346368, Note_on_c, 2, 72, 60
4, 346556, Note_off_c, 2, 84, 0
4, 346556, Note_off_c, 2, 78, 0
4, 346556, Note_off_c, 2, 72, 0
4, 346752, Note_on_c, 2, 78, 60
4, 346752, Note_on_c, 2, 72, 60
4, 346752, Note_on_c, 2, 84, 60
4, 346940, Note_off_c, 2, 78, 0
4, 346940, Note_off_c, 2, 72, 0
4, 346940, Note_off_c, 2, 84, 0
4, 347136, Note_on_c, 2, 84, 60
4, 347136, Note_on_c, 2, 78, 60
4, 347136, Note_on_c, 2, 72, 60
4, 347516, Note_off_c, 2, 84, 0
4, 347516, Note_off_c, 2, 78, 0
4, 347516, Note_off_c, 2, 72, 0
4, 347712, Note_on_c, 2, 69, 60
4, 347900, Note_off_c, 2, 69, 0
4, 347904, Note_on_c, 2, 70, 60
4, 348092, Note_off_c, 2, 70, 0
4, 348096, Note_on_c, 2, 71, 60
4, 348284, Note_off_c, 2, 71, 0
4, 348288, Note_on_c, 2, 72, 60
4, 348476, Note_off_c, 2, 72, 0
4, 348480, Note_on_c, 2, 73, 60
4, 348668, Note_off_c, 2, 73, 0
4, 348672, Note_on_c, 2, 74, 60
4, 349052, Note_off_c, 2, 74, 0
4, 349056, Note_on_c, 2, 71, 64
4, 349096, Note_off_c, 2, 71, 0
4, 349104, Note_on_c, 2, 72, 64
4, 349144, Note_off_c, 2, 72, 0
4, 349152, Note_on_c, 2, 71, 64
4, 349192, Note_off_c, 2, 71, 0
4, 349200, Note_on_c, 2, 72, 64
4, 349240, Note_off_c, 2, 72, 0
4, 349248, Note_on_c, 2, 71, 64
4, 349336, Note_off_c, 2, 71, 0
4, 349344, Note_on_c, 2, 72, 64
4, 349432, Note_off_c, 2, 72, 0
4, 349440, Note_on_c, 2, 74, 60
4, 349820, Note_off_c, 2, 74, 0
4, 349824, Note_on_c, 2, 74, 60
4, 350012, Note_off_c, 2, 74, 0
4, 350208, Note_on_c, 2, 74, 60
4, 350208, Note_on_c, 2, 67, 60
4, 351356, Note_off_c, 2, 74, 0
4, 351360, Note_on_c, 2, 78, 60
4, 351644, Note_off_c, 2, 78, 0
4, 351648, Note_on_c, 2, 79, 60
4, 351740, Note_off_c, 2, 67, 0
4, 351740, Note_off_c, 2, 79, 0
4, 351744, Note_on_c, 2, 79, 60
4, 351932, Note_off_c, 2, 79, 0
4, 352128, Note_on_c, 2, 82, 60
4, 352412, Note_off_c, 2, 82, 0
4, 352416, Note_on_c, 2, 83, 60
4, 352508, Note_off_c, 2, 83, 0
4, 352512, Note_on_c, 2, 83, 60
4, 352700, Note_off_c, 2, 83, 0
4, 352896, Note_on_c, 2, 79, 60
4, 353084, Note_off_c, 2, 79, 0
4, 353280, Note_on_c, 2, 77, 60
4, 353660, Note_off_c, 2, 77, 0
4, 353664, Note_on_c, 2, 76, 60
4, 353664, Note_on_c, 2, 72, 60
4, 353756, Note_off_c, 2, 76, 0
4, 353756, Note_off_c, 2, 72, 0
4, 353760, Note_on_c, 2, 78, 60
4, 353760, Note_on_c, 2, 74, 60
4, 353852, Note_off_c, 2, 78, 0
4, 353852, Note_off_c, 2, 74, 0
4, 353856, Note_on_c, 2, 76, 60
4, 353856, Note_on_c, 2, 72, 60
4, 353948, Note_off_c, 2, 76, 0
4, 353948, Note_off_c, 2, 72, 0
4, 353952, Note_on_c, 2, 77, 60
4, 353952, Note_on_c, 2, 74, 60
4, 354044, Note_off_c, 2, 77, 0
4, 354044, Note_off_c, 2, 74, 0
4, 354048, Note_on_c, 2, 79, 60
4, 354048, Note_on_c, 2, 76, 60
4, 354428, Note_off_c, 2, 79, 0
4, 354428, Note_off_c, 2, 76, 0
4, 354432, Note_on_c, 2, 76, 60
4, 354432, Note_on_c, 2, 84, 60
4, 354524, Note_off_c, 2, 76, 0
4, 354524, Note_off_c, 2, 84, 0
4, 354528, Note_on_c, 2, 77, 60
4, 354528, Note_on_c, 2, 86, 60
4, 354620, Note_off_c, 2, 77, 0
4, 354620, Note_off_c, 2, 86, 0
4, 354624, Note_on_c, 2, 76, 60
4, 354624, Note_on_c, 2, 84, 60
4, 354716, Note_off_c, 2, 76, 0
4, 354716, Note_off_c, 2, 84, 0
4, 354720, Note_on_c, 2, 77, 60
4, 354720, Note_on_c, 2, 86, 60
4, 354812, Note_off_c, 2, 77, 0
4, 354812, Note_off_c, 2, 86, 0
4, 354816, Note_on_c, 2, 88, 60
4, 354816, Note_on_c, 2, 79, 60
4, 354816, Note_on_c, 2, 76, 60
4, 355196, Note_off_c, 2, 88, 0
4, 355196, Note_off_c, 2, 79, 0
4, 355196, Note_off_c, 2, 76, 0
4, 355200, Note_on_c, 2, 72, 64
4, 355240, Note_off_c, 2, 72, 0
4, 355248, Note_on_c, 2, 74, 64
4, 355288, Note_off_c, 2, 74, 0
4, 355296, Note_on_c, 2, 72, 64
4, 355336, Note_off_c, 2, 72, 0
4, 355344, Note_on_c, 2, 74, 64
4, 355384, Note_off_c, 2, 74, 0
4, 355392, Note_on_c, 2, 72, 64
4, 355480, Note_off_c, 2, 72, 0
4, 355488, Note_on_c, 2, 74, 64
4, 355576, Note_off_c, 2, 74, 0
4, 355584, Note_on_c, 2, 76, 60
4, 355964, Note_off_c, 2, 76, 0
4, 355968, Note_on_c, 2, 76, 60
4, 356348, Note_off_c, 2, 76, 0
4, 356352, Note_on_c, 2, 76, 60
4, 356352, Note_on_c, 2, 67, 60
4, 357500, Note_off_c, 2, 76, 0
4, 357504, Note_on_c, 2, 78, 60
4, 357788, Note_off_c, 2, 78, 0
4, 357792, Note_on_c, 2, 79, 60
4, 357884, Note_off_c, 2, 67, 0
4, 357884, Note_off_c, 2, 79, 0
4, 357888, Note_on_c, 2, 79, 60
4, 358076, Note_off_c, 2, 79, 0
4, 358272, Note_on_c, 2, 83, 60
4, 358556, Note_off_c, 2, 83, 0
4, 358560, Note_on_c, 2, 84, 60
4, 358652, Note_off_c, 2, 84, 0
4, 358656, Note_on_c, 2, 84, 60
4, 358844, Note_off_c, 2, 84, 0
4, 359040, Note_on_c, 2, 76, 60
4, 359228, Note_off_c, 2, 76, 0
4, 359424, Note_on_c, 2, 73, 60
4, 359804, Note_off_c, 2, 73, 0
4, 359808, Note_on_c, 2, 74, 60
4, 359808, Note_on_c, 2, 71, 60
4, 359808, Note_on_c, 2, 67, 60
4, 359900, Note_off_c, 2, 71, 0
4, 359900, Note_off_c, 2, 67, 0
4, 359904, Note_on_c, 2, 72, 60
4, 359904, Note_on_c, 2, 69, 60
4, 359996, Note_off_c, 2, 72, 0
4, 359996, Note_off_c, 2, 69, 0
4, 360000, Note_on_c, 2, 71, 60
4, 360000, Note_on_c, 2, 67, 60
4, 360092, Note_off_c, 2, 71, 0
4, 360092, Note_off_c, 2, 67, 0
4, 360096, Note_on_c, 2, 72, 60
4, 360096, Note_on_c, 2, 69, 60
4, 360188, Note_off_c, 2, 74, 0
4, 360188, Note_off_c, 2, 72, 0
4, 360188, Note_off_c, 2, 69, 0
4, 360192, Note_on_c, 2, 74, 60
4, 360192, Note_on_c, 2, 71, 60
4, 360572, Note_off_c, 2, 74, 0
4, 360572, Note_off_c, 2, 71, 0
4, 360576, Note_on_c, 2, 79, 60
4, 360576, Note_on_c, 2, 83, 60
4, 360668, Note_off_c, 2, 79, 0
4, 360668, Note_off_c, 2, 83, 0
4, 360672, Note_on_c, 2, 81, 60
4, 360672, Note_on_c, 2, 84, 60
4, 360764, Note_off_c, 2, 81, 0
4, 360764, Note_off_c, 2, 84, 0
4, 360768, Note_on_c, 2, 83, 60
4, 360768, Note_on_c, 2, 79, 60
4, 360860, Note_off_c, 2, 83, 0
4, 360860, Note_off_c, 2, 79, 0
4, 360864, Note_on_c, 2, 84, 60
4, 360864, Note_on_c, 2, 81, 60
4, 360956, Note_off_c, 2, 84, 0
4, 360956, Note_off_c, 2, 81, 0
4, 360960, Note_on_c, 2, 86, 60
4, 360960, Note_on_c, 2, 83, 60
4, 361340, Note_off_c, 2, 86, 0
4, 361340, Note_off_c, 2, 83, 0
4, 361344, Note_on_c, 2, 83, 60
4, 361344, Note_on_c, 2, 67, 60
4, 361344, Note_on_c, 2, 71, 60
4, 361724, Note_off_c, 2, 83, 0
4, 361724, Note_off_c, 2, 67, 0
4, 361724, Note_off_c, 2, 71, 0
4, 361728, Note_on_c, 2, 72, 60
4, 361728, Note_on_c, 2, 69, 60
4, 361728, Note_on_c, 2, 81, 60
4, 362108, Note_off_c, 2, 72, 0
4, 362108, Note_off_c, 2, 69, 0
4, 362108, Note_off_c, 2, 81, 0
4, 362112, Note_on_c, 2, 74, 60
4, 362112, Note_on_c, 2, 71, 60
4, 362112, Note_on_c, 2, 79, 60
4, 362492, Note_off_c, 2, 74, 0
4, 362492, Note_off_c, 2, 71, 0
4, 362492, Note_off_c, 2, 79, 0
4, 362496, Note_on_c, 2, 84, 82
4, 362496, Note_on_c, 2, 74, 82
4, 363068, Note_off_c, 2, 84, 0
4, 363072, Note_on_c, 2, 83, 60
4, 363132, Note_off_c, 2, 83, 0
4, 363136, Note_on_c, 2, 81, 60
4, 363196, Note_off_c, 2, 81, 0
4, 363200, Note_on_c, 2, 79, 60
4, 363260, Note_off_c, 2, 74, 0
4, 363260, Note_off_c, 2, 79, 0
4, 363264, Note_on_c, 2, 78, 60
4, 363264, Note_on_c, 2, 74, 60
4, 363644, Note_off_c, 2, 78, 0
4, 363644, Note_off_c, 2, 74, 0
4, 364032, Note_on_c, 2, 74, 60
4, 364220, Note_off_c, 2, 74, 0
4, 364416, Note_on_c, 2, 83, 60
4, 364416, Note_on_c, 2, 67, 60
4, 364416, Note_on_c, 2, 71, 60
4, 364796, Note_off_c, 2, 83, 0
4, 364796, Note_off_c, 2, 67, 0
4, 364796, Note_off_c, 2, 71, 0
4, 364800, Note_on_c, 2, 81, 60
4, 364800, Note_on_c, 2, 69, 60
4, 364800, Note_on_c, 2, 72, 60
4, 365180, Note_off_c, 2, 81, 0
4, 365180, Note_off_c, 2, 69, 0
4, 365180, Note_off_c, 2, 72, 0
4, 365184, Note_on_c, 2, 79, 60
4, 365184, Note_on_c, 2, 71, 60
4, 365184, Note_on_c, 2, 74, 60
4, 365564, Note_off_c, 2, 79, 0
4, 365564, Note_off_c, 2, 71, 0
4, 365564, Note_off_c, 2, 74, 0
4, 365568, Note_on_c, 2, 86, 79
4, 365568, Note_on_c, 2, 74, 79
4, 366332, Note_off_c, 2, 86, 0
4, 366332, Note_off_c, 2, 74, 0
4, 366336, Note_on_c, 2, 86, 60
4, 366336, Note_on_c, 2, 74, 60
4, 366716, Note_off_c, 2, 86, 0
4, 366716, Note_off_c, 2, 74, 0
4, 367488, Note_on_c, 2, 76, 60
4, 367488, Note_on_c, 2, 81, 60
4, 367868, Note_off_c, 2, 76, 0
4, 367868, Note_off_c, 2, 81, 0
4, 367872, Note_on_c, 2, 81, 60
4, 367872, Note_on_c, 2, 84, 60
4, 368252, Note_off_c, 2, 81, 0
4, 368252, Note_off_c, 2, 84, 0
4, 368256, Note_on_c, 2, 84, 60
4, 368256, Note_on_c, 2, 88, 60
4, 368636, Note_off_c, 2, 84, 0
4, 368636, Note_off_c, 2, 88, 64
4, 369024, Note_on_c, 2, 79, 60
4, 369024, Note_on_c, 2, 74, 60
4, 369404, Note_off_c, 2, 79, 0
4, 369404, Note_off_c, 2, 74, 0
4, 369408, Note_on_c, 2, 83, 60
4, 369408, Note_on_c, 2, 79, 60
4, 369788, Note_off_c, 2, 83, 0
4, 369788, Note_off_c, 2, 79, 0
4, 369792, Note_on_c, 2, 86, 60
4, 369792, Note_on_c, 2, 83, 60
4, 370172, Note_off_c, 2, 86, 0
4, 370172, Note_off_c, 2, 83, 0
4, 370176, Note_on_c, 2, 86, 60
4, 370176, Note_on_c, 2, 83, 60
4, 370364, Note_off_c, 2, 86, 0
4, 370364, Note_off_c, 2, 83, 0
4, 370368, Note_on_c, 2, 84, 60
4, 370368, Note_on_c, 2, 81, 60
4, 370556, Note_off_c, 2, 84, 0
4, 370556, Note_off_c, 2, 81, 0
4, 370560, Note_on_c, 2, 83, 60
4, 370560, Note_on_c, 2, 79, 60
4, 371324, Note_off_c, 2, 83, 0
4, 371324, Note_off_c, 2, 79, 0
4, 371328, Note_on_c, 2, 81, 60
4, 371328, Note_on_c, 2, 78, 60
4, 371708, Note_off_c, 2, 81, 0
4, 371708, Note_off_c, 2, 78, 0
4, 371712, Note_on_c, 2, 79, 82
4, 371712, Note_on_c, 2, 74, 82
4, 371712, Note_on_c, 2, 71, 82
4, 373244, Note_off_c, 2, 79, 0
4, 373244, Note_off_c, 2, 74, 0
4, 373244, Note_off_c, 2, 71, 0
4, 373248, Note_on_c, 2, 81, 82
4, 373248, Note_on_c, 2, 76, 82
4, 373248, Note_on_c, 2, 72, 82
4, 374012, Note_off_c, 2, 76, 0
4, 374012, Note_off_c, 2, 72, 0
4, 374016, Note_on_c, 2, 77, 82
4, 374016, Note_on_c, 2, 74, 82
4, 374396, Note_off_c, 2, 81, 0
4, 374400, Note_on_c, 2, 83, 86
4, 374440, Note_off_c, 2, 83, 0
4, 374448, Note_on_c, 2, 84, 86
4, 374488, Note_off_c, 2, 84, 0
4, 374496, Note_on_c, 2, 83, 86
4, 374536, Note_off_c, 2, 83, 0
4, 374544, Note_on_c, 2, 84, 86
4, 374584, Note_off_c, 2, 84, 0
4, 374592, Note_on_c, 2, 81, 86
4, 374680, Note_off_c, 2, 81, 0
4, 374688, Note_on_c, 2, 83, 86
4, 374776, Note_off_c, 2, 83, 0
4, 374780, Note_off_c, 2, 77, 0
4, 374780, Note_off_c, 2, 74, 0
4, 374784, Note_on_c, 2, 84, 82
4, 374784, Note_on_c, 2, 76, 82
4, 374784, Note_on_c, 2, 72, 82
4, 374876, Note_off_c, 2, 84, 0
4, 374976, Note_on_c, 2, 81, 82
4, 375068, Note_off_c, 2, 81, 0
4, 375168, Note_on_c, 2, 76, 82
4, 375548, Note_off_c, 2, 76, 0
4, 375548, Note_off_c, 2, 72, 0
4, 375548, Note_off_c, 2, 76, 0
4, 375552, Note_on_c, 2, 72, 82
4, 375552, Note_on_c, 2, 76, 82
4, 375552, Note_on_c, 2, 69, 82
4, 375740, Note_off_c, 2, 76, 0
4, 375744, Note_on_c, 2, 79, 82
4, 375932, Note_off_c, 2, 79, 0
4, 375936, Note_on_c, 2, 78, 82
4, 376124, Note_off_c, 2, 78, 0
4, 376128, Note_on_c, 2, 81, 82
4, 376316, Note_off_c, 2, 72, 0
4, 376316, Note_off_c, 2, 69, 0
4, 376316, Note_off_c, 2, 81, 0
4, 376320, Note_on_c, 2, 79, 82
4, 376320, Note_on_c, 2, 71, 82
4, 376320, Note_on_c, 2, 67, 82
4, 377084, Note_off_c, 2, 71, 0
4, 377084, Note_off_c, 2, 67, 0
4, 377088, Note_on_c, 2, 74, 82
4, 377088, Note_on_c, 2, 71, 82
4, 377852, Note_off_c, 2, 79, 0
4, 377852, Note_off_c, 2, 74, 0
4, 377852, Note_off_c, 2, 71, 0
4, 377856, Note_on_c, 2, 76, 82
4, 377856, Note_on_c, 2, 72, 82
4, 377856, Note_on_c, 2, 80, 82
4, 377948, Note_off_c, 2, 80, 0
4, 377952, Note_on_c, 2, 81, 82
4, 378236, Note_off_c, 2, 81, 0
4, 378240, Note_on_c, 2, 81, 82
4, 378620, Note_off_c, 2, 76, 0
4, 378620, Note_off_c, 2, 72, 0
4, 378624, Note_on_c, 2, 77, 82
4, 378624, Note_on_c, 2, 74, 82
4, 379004, Note_off_c, 2, 81, 0
4, 379008, Note_on_c, 2, 83, 86
4, 379048, Note_off_c, 2, 83, 0
4, 379056, Note_on_c, 2, 84, 86
4, 379096, Note_off_c, 2, 84, 0
4, 379104, Note_on_c, 2, 83, 86
4, 379144, Note_off_c, 2, 83, 0
4, 379152, Note_on_c, 2, 84, 86
4, 379192, Note_off_c, 2, 84, 0
4, 379200, Note_on_c, 2, 81, 85
4, 379288, Note_off_c, 2, 81, 0
4, 379296, Note_on_c, 2, 83, 85
4, 379384, Note_off_c, 2, 83, 0
4, 379388, Note_off_c, 2, 77, 0
4, 379388, Note_off_c, 2, 74, 0
4, 379392, Note_on_c, 2, 84, 82
4, 379392, Note_on_c, 2, 76, 82
4, 379392, Note_on_c, 2, 72, 82
4, 379484, Note_off_c, 2, 84, 0
4, 379584, Note_on_c, 2, 81, 82
4, 379676, Note_off_c, 2, 81, 0
4, 379776, Note_on_c, 2, 76, 82
4, 380156, Note_off_c, 2, 76, 0
4, 380156, Note_off_c, 2, 72, 0
4, 380156, Note_off_c, 2, 76, 0
4, 380160, Note_on_c, 2, 76, 82
4, 380160, Note_on_c, 2, 72, 82
4, 380160, Note_on_c, 2, 69, 82
4, 380348, Note_off_c, 2, 76, 0
4, 380352, Note_on_c, 2, 79, 82
4, 380540, Note_off_c, 2, 79, 0
4, 380544, Note_on_c, 2, 78, 82
4, 380732, Note_off_c, 2, 78, 0
4, 380736, Note_on_c, 2, 81, 82
4, 380924, Note_off_c, 2, 72, 0
4, 380924, Note_off_c, 2, 69, 0
4, 380924, Note_off_c, 2, 81, 0
4, 380928, Note_on_c, 2, 79, 82
4, 380928, Note_on_c, 2, 71, 82
4, 381020, Note_off_c, 2, 79, 0
4, 381024, Note_on_c, 2, 81, 82
4, 381116, Note_off_c, 2, 81, 0
4, 381120, Note_on_c, 2, 83, 82
4, 381212, Note_off_c, 2, 83, 0
4, 381216, Note_on_c, 2, 81, 82
4, 381308, Note_off_c, 2, 71, 0
4, 381308, Note_off_c, 2, 81, 0
4, 381312, Note_on_c, 2, 79, 82
4, 381404, Note_off_c, 2, 79, 0
4, 381408, Note_on_c, 2, 78, 82
4, 381500, Note_off_c, 2, 78, 0
4, 381504, Note_on_c, 2, 76, 82
4, 381596, Note_off_c, 2, 76, 0
4, 381600, Note_on_c, 2, 74, 82
4, 381692, Note_off_c, 2, 74, 0
4, 381696, Note_on_c, 2, 72, 82
4, 381788, Note_off_c, 2, 72, 0
4, 381792, Note_on_c, 2, 71, 82
4, 381884, Note_off_c, 2, 71, 0
4, 381888, Note_on_c, 2, 69, 82
4, 381980, Note_off_c, 2, 69, 0
4, 381984, Note_on_c, 2, 71, 82
4, 382076, Note_off_c, 2, 71, 0
4, 382080, Note_on_c, 2, 72, 82
4, 382172, Note_off_c, 2, 72, 0
4, 382176, Note_on_c, 2, 74, 82
4, 382268, Note_off_c, 2, 74, 0
4, 382272, Note_on_c, 2, 76, 82
4, 382364, Note_off_c, 2, 76, 0
4, 382368, Note_on_c, 2, 78, 82
4, 382460, Note_off_c, 2, 78, 0
4, 382464, Note_on_c, 2, 79, 82
4, 382556, Note_off_c, 2, 79, 0
4, 382560, Note_on_c, 2, 81, 82
4, 382652, Note_off_c, 2, 81, 0
4, 382656, Note_on_c, 2, 83, 82
4, 382748, Note_off_c, 2, 83, 0
4, 382752, Note_on_c, 2, 81, 82
4, 382844, Note_off_c, 2, 81, 0
4, 382848, Note_on_c, 2, 79, 82
4, 382940, Note_off_c, 2, 79, 0
4, 382944, Note_on_c, 2, 78, 82
4, 383036, Note_off_c, 2, 78, 0
4, 383040, Note_on_c, 2, 76, 82
4, 383132, Note_off_c, 2, 76, 0
4, 383136, Note_on_c, 2, 74, 82
4, 383228, Note_off_c, 2, 74, 0
4, 383232, Note_on_c, 2, 72, 82
4, 383324, Note_off_c, 2, 72, 0
4, 383328, Note_on_c, 2, 71, 82
4, 383420, Note_off_c, 2, 71, 0
4, 383424, Note_on_c, 2, 69, 82
4, 383516, Note_off_c, 2, 69, 0
4, 383520, Note_on_c, 2, 71, 82
4, 383612, Note_off_c, 2, 71, 0
4, 383616, Note_on_c, 2, 72, 82
4, 383708, Note_off_c, 2, 72, 0
4, 383712, Note_on_c, 2, 74, 82
4, 383804, Note_off_c, 2, 74, 0
4, 383808, Note_on_c, 2, 76, 82
4, 383900, Note_off_c, 2, 76, 0
4, 383904, Note_on_c, 2, 78, 82
4, 383996, Note_off_c, 2, 78, 0
4, 384000, Note_on_c, 2, 79, 82
4, 384092, Note_off_c, 2, 79, 0
4, 384096, Note_on_c, 2, 81, 82
4, 384188, Note_off_c, 2, 81, 0
4, 384192, Note_on_c, 2, 83, 82
4, 384284, Note_off_c, 2, 83, 0
4, 384288, Note_on_c, 2, 81, 82
4, 384380, Note_off_c, 2, 81, 0
4, 384384, Note_on_c, 2, 79, 82
4, 384476, Note_off_c, 2, 79, 0
4, 384480, Note_on_c, 2, 78, 82
4, 384572, Note_off_c, 2, 78, 0
4, 384576, Note_on_c, 2, 76, 82
4, 384668, Note_off_c, 2, 76, 0
4, 384672, Note_on_c, 2, 74, 82
4, 384764, Note_off_c, 2, 74, 0
4, 384768, Note_on_c, 2, 88, 82
4, 384860, Note_off_c, 2, 88, 0
4, 384864, Note_on_c, 2, 86, 82
4, 384956, Note_off_c, 2, 86, 0
4, 384960, Note_on_c, 2, 84, 82
4, 385052, Note_off_c, 2, 84, 0
4, 385056, Note_on_c, 2, 83, 82
4, 385148, Note_off_c, 2, 83, 0
4, 385152, Note_on_c, 2, 81, 82
4, 385244, Note_off_c, 2, 81, 0
4, 385248, Note_on_c, 2, 79, 82
4, 385340, Note_off_c, 2, 79, 0
4, 385344, Note_on_c, 2, 78, 82
4, 385436, Note_off_c, 2, 78, 0
4, 385440, Note_on_c, 2, 76, 82
4, 385532, Note_off_c, 2, 76, 0
4, 385536, Note_on_c, 2, 74, 82
4, 385916, Note_off_c, 2, 74, 0
4, 386112, Note_on_c, 2, 74, 82
4, 386300, Note_off_c, 2, 74, 0
4, 386304, Note_on_c, 2, 84, 82
4, 386688, Note_on_c, 2, 72, 82
4, 386876, Note_off_c, 2, 84, 0
4, 386880, Note_on_c, 2, 83, 82
4, 387068, Note_off_c, 2, 83, 0
4, 387072, Note_on_c, 2, 81, 82
4, 387260, Note_off_c, 2, 72, 0
4, 387260, Note_off_c, 2, 81, 0
4, 387456, Note_on_c, 2, 79, 82
4, 387456, Note_on_c, 2, 71, 82
4, 387644, Note_off_c, 2, 79, 0
4, 387644, Note_off_c, 2, 71, 0
4, 387840, Note_on_c, 2, 78, 82
4, 387840, Note_on_c, 2, 72, 82
4, 388028, Note_off_c, 2, 78, 0
4, 388028, Note_off_c, 2, 72, 0
4, 388224, Note_on_c, 2, 71, 82
4, 388224, Note_on_c, 2, 79, 86
4, 388264, Note_off_c, 2, 79, 0
4, 388272, Note_on_c, 2, 81, 86
4, 388312, Note_off_c, 2, 81, 0
4, 388320, Note_on_c, 2, 79, 86
4, 388360, Note_off_c, 2, 79, 0
4, 388368, Note_on_c, 2, 81, 86
4, 388408, Note_off_c, 2, 81, 0
4, 388416, Note_on_c, 2, 78, 85
4, 388504, Note_off_c, 2, 78, 0
4, 388512, Note_on_c, 2, 79, 85
4, 388600, Note_off_c, 2, 79, 0
4, 388604, Note_off_c, 2, 71, 0
4, 388608, Note_on_c, 2, 81, 82
4, 388608, Note_on_c, 2, 78, 82
4, 388608, Note_on_c, 2, 69, 82
4, 388700, Note_off_c, 2, 81, 0
4, 388700, Note_off_c, 2, 78, 0
4, 388800, Note_on_c, 2, 74, 82
4, 388892, Note_off_c, 2, 74, 0
4, 388988, Note_off_c, 2, 69, 0
4, 388992, Note_on_c, 2, 84, 82
4, 389372, Note_off_c, 2, 84, 0
4, 389376, Note_on_c, 2, 84, 82
4, 389468, Note_off_c, 2, 84, 0
4, 389568, Note_on_c, 2, 83, 82
4, 389660, Note_off_c, 2, 83, 0
4, 389760, Note_on_c, 2, 81, 82
4, 389760, Note_on_c, 2, 74, 82
4, 389760, Note_on_c, 2, 72, 82
4, 389852, Note_off_c, 2, 81, 0
4, 389952, Note_on_c, 2, 79, 82
4, 390044, Note_off_c, 2, 79, 0
4, 390144, Note_on_c, 2, 78, 82
4, 390332, Note_off_c, 2, 72, 0
4, 390332, Note_off_c, 2, 74, 0
4, 390332, Note_off_c, 2, 78, 0
4, 390528, Note_on_c, 2, 79, 82
4, 390528, Note_on_c, 2, 74, 82
4, 390528, Note_on_c, 2, 71, 82
4, 390716, Note_off_c, 2, 79, 0
4, 390716, Note_off_c, 2, 74, 0
4, 390716, Note_off_c, 2, 71, 0
4, 390912, Note_on_c, 2, 81, 82
4, 390912, Note_on_c, 2, 74, 82
4, 390912, Note_on_c, 2, 69, 82
4, 391100, Note_off_c, 2, 81, 0
4, 391100, Note_off_c, 2, 74, 0
4, 391100, Note_off_c, 2, 69, 0
4, 391296, Note_on_c, 2, 83, 82
4, 391296, Note_on_c, 2, 74, 82
4, 391296, Note_on_c, 2, 71, 82
4, 391484, Note_off_c, 2, 83, 0
4, 391484, Note_off_c, 2, 74, 0
4, 391484, Note_off_c, 2, 71, 0
4, 391680, Note_on_c, 2, 81, 82
4, 391680, Note_on_c, 2, 74, 82
4, 391680, Note_on_c, 2, 69, 82
4, 391868, Note_off_c, 2, 81, 0
4, 391868, Note_off_c, 2, 74, 0
4, 391868, Note_off_c, 2, 69, 0
4, 391872, Note_on_c, 2, 74, 82
4, 391964, Note_off_c, 2, 74, 0
4, 392064, Note_on_c, 2, 78, 82
4, 392156, Note_off_c, 2, 78, 0
4, 392256, Note_on_c, 2, 81, 82
4, 392348, Note_off_c, 2, 81, 0
4, 392448, Note_on_c, 2, 85, 82
4, 392636, Note_off_c, 2, 85, 0
4, 392640, Note_on_c, 2, 86, 82
4, 392828, Note_off_c, 2, 86, 0
4, 392832, Note_on_c, 2, 74, 82
4, 392924, Note_off_c, 2, 74, 0
4, 393024, Note_on_c, 2, 86, 82
4, 393116, Note_off_c, 2, 86, 0
4, 393216, Note_on_c, 2, 74, 82
4, 393404, Note_off_c, 2, 74, 0
4, 393408, Note_on_c, 2, 74, 82
4, 393500, Note_off_c, 2, 74, 0
4, 393600, Note_on_c, 2, 78, 82
4, 393692, Note_off_c, 2, 78, 0
4, 393792, Note_on_c, 2, 81, 82
4, 393884, Note_off_c, 2, 81, 0
4, 393984, Note_on_c, 2, 85, 82
4, 394172, Note_off_c, 2, 85, 0
4, 394176, Note_on_c, 2, 86, 82
4, 394364, Note_off_c, 2, 86, 0
4, 394368, Note_on_c, 2, 74, 82
4, 394460, Note_off_c, 2, 74, 0
4, 394560, Note_on_c, 2, 86, 82
4, 394652, Note_off_c, 2, 86, 0
4, 394752, Note_on_c, 2, 74, 82
4, 395132, Note_off_c, 2, 74, 0
4, 413184, Note_on_c, 2, 74, 60
4, 413184, Note_on_c, 2, 71, 60
4, 413184, Note_on_c, 2, 67, 60
4, 413564, Note_off_c, 2, 74, 0
4, 413564, Note_off_c, 2, 71, 0
4, 413564, Note_off_c, 2, 67, 0
4, 413952, Note_on_c, 2, 76, 60
4, 413952, Note_on_c, 2, 71, 60
4, 413952, Note_on_c, 2, 68, 60
4, 414332, Note_off_c, 2, 76, 0
4, 414332, Note_off_c, 2, 71, 0
4, 414332, Note_off_c, 2, 68, 0
4, 414720, Note_on_c, 2, 72, 60
4, 414720, Note_on_c, 2, 69, 60
4, 414720, Note_on_c, 2, 64, 60
4, 415100, Note_off_c, 2, 72, 0
4, 415100, Note_off_c, 2, 69, 0
4, 415100, Note_off_c, 2, 64, 0
4, 415104, Note_on_c, 2, 74, 60
4, 415104, Note_on_c, 2, 69, 60
4, 415104, Note_on_c, 2, 62, 60
4, 415484, Note_off_c, 2, 74, 0
4, 415484, Note_off_c, 2, 69, 0
4, 415484, Note_off_c, 2, 62, 0
4, 415872, Note_on_c, 2, 71, 60
4, 415872, Note_on_c, 2, 67, 60
4, 415872, Note_on_c, 2, 62, 60
4, 416252, Note_off_c, 2, 71, 0
4, 416252, Note_off_c, 2, 67, 0
4, 416252, Note_off_c, 2, 62, 0
4, 416256, Note_on_c, 2, 72, 60
4, 416256, Note_on_c, 2, 67, 60
4, 416256, Note_on_c, 2, 60, 60
4, 416636, Note_off_c, 2, 72, 0
4, 416636, Note_off_c, 2, 67, 0
4, 416636, Note_off_c, 2, 60, 0
4, 417408, Note_on_c, 2, 64, 60
4, 417788, Note_off_c, 2, 64, 0
4, 417792, Note_on_c, 2, 67, 60
4, 417792, Note_on_c, 2, 62, 60
4, 417792, Note_on_c, 2, 57, 60
4, 418172, Note_off_c, 2, 67, 0
4, 418176, Note_on_c, 2, 66, 60
4, 418556, Note_off_c, 2, 62, 0
4, 418556, Note_off_c, 2, 57, 0
4, 418556, Note_off_c, 2, 66, 0
4, 418560, Note_on_c, 2, 67, 60
4, 418560, Note_on_c, 2, 62, 60
4, 418560, Note_on_c, 2, 55, 60
4, 418940, Note_off_c, 2, 67, 0
4, 418940, Note_off_c, 2, 62, 0
4, 418940, Note_off_c, 2, 55, 0
4, 418944, Note_on_c, 2, 69, 60
4, 418944, Note_on_c, 2, 66, 60
4, 418944, Note_on_c, 2, 62, 60
4, 419324, Note_off_c, 2, 69, 0
4, 419324, Note_off_c, 2, 66, 0
4, 419324, Note_off_c, 2, 62, 0
4, 419328, Note_on_c, 2, 67, 60
4, 419328, Note_on_c, 2, 71, 60
4, 419328, Note_on_c, 2, 62, 60
4, 419516, Note_off_c, 2, 67, 0
4, 419516, Note_off_c, 2, 71, 0
4, 419520, Note_on_c, 2, 71, 60
4, 419520, Note_on_c, 2, 74, 60
4, 419708, Note_off_c, 2, 71, 0
4, 419708, Note_off_c, 2, 74, 0
4, 419712, Note_on_c, 2, 72, 60
4, 419712, Note_on_c, 2, 69, 60
4, 419900, Note_off_c, 2, 72, 0
4, 419900, Note_off_c, 2, 69, 0
4, 419904, Note_on_c, 2, 69, 60
4, 419904, Note_on_c, 2, 66, 60
4, 420092, Note_off_c, 2, 69, 0
4, 420092, Note_off_c, 2, 66, 0
4, 420096, Note_on_c, 2, 67, 60
4, 420476, Note_off_c, 2, 67, 0
4, 420480, Note_on_c, 2, 69, 60
4, 420480, Note_on_c, 2, 66, 60
4, 420860, Note_off_c, 2, 62, 0
4, 420860, Note_off_c, 2, 69, 0
4, 420860, Note_off_c, 2, 66, 0
4, 420864, Note_on_c, 2, 67, 60
4, 420864, Note_on_c, 2, 71, 60
4, 421052, Note_off_c, 2, 67, 0
4, 421052, Note_off_c, 2, 71, 0
4, 421056, Note_on_c, 2, 71, 60
4, 421056, Note_on_c, 2, 74, 60
4, 421244, Note_off_c, 2, 71, 0
4, 421244, Note_off_c, 2, 74, 0
4, 421248, Note_on_c, 2, 72, 60
4, 421248, Note_on_c, 2, 69, 60
4, 421436, Note_off_c, 2, 72, 0
4, 421436, Note_off_c, 2, 69, 0
4, 421440, Note_on_c, 2, 69, 60
4, 421440, Note_on_c, 2, 66, 60
4, 421628, Note_off_c, 2, 69, 0
4, 421628, Note_off_c, 2, 66, 0
4, 421632, Note_on_c, 2, 67, 60
4, 422012, Note_off_c, 2, 67, 0
4, 422016, Note_on_c, 2, 81, 60
4, 422016, Note_on_c, 2, 78, 60
4, 422016, Note_on_c, 2, 74, 60
4, 422396, Note_off_c, 2, 81, 0
4, 422396, Note_off_c, 2, 78, 0
4, 422396, Note_off_c, 2, 74, 0
4, 422400, Note_on_c, 2, 79, 60
4, 422400, Note_on_c, 2, 83, 60
4, 422400, Note_on_c, 2, 74, 60
4, 422588, Note_off_c, 2, 79, 0
4, 422588, Note_off_c, 2, 83, 0
4, 422592, Note_on_c, 2, 83, 60
4, 422592, Note_on_c, 2, 86, 60
4, 422780, Note_off_c, 2, 83, 0
4, 422780, Note_off_c, 2, 86, 0
4, 422784, Note_on_c, 2, 81, 60
4, 422784, Note_on_c, 2, 84, 60
4, 422972, Note_off_c, 2, 81, 0
4, 422972, Note_off_c, 2, 84, 0
4, 422976, Note_on_c, 2, 78, 60
4, 422976, Note_on_c, 2, 81, 60
4, 423164, Note_off_c, 2, 74, 0
4, 423164, Note_off_c, 2, 78, 0
4, 423164, Note_off_c, 2, 81, 0
4, 423168, Note_on_c, 2, 79, 60
4, 423168, Note_on_c, 2, 74, 60
4, 423548, Note_off_c, 2, 79, 0
4, 423552, Note_on_c, 2, 78, 60
4, 423552, Note_on_c, 2, 81, 60
4, 423932, Note_off_c, 2, 74, 0
4, 423932, Note_off_c, 2, 78, 0
4, 423932, Note_off_c, 2, 81, 0
4, 423936, Note_on_c, 2, 79, 60
4, 423936, Note_on_c, 2, 83, 60
4, 423936, Note_on_c, 2, 74, 60
4, 424124, Note_off_c, 2, 79, 0
4, 424124, Note_off_c, 2, 83, 0
4, 424128, Note_on_c, 2, 83, 60
4, 424128, Note_on_c, 2, 86, 60
4, 424316, Note_off_c, 2, 83, 0
4, 424316, Note_off_c, 2, 86, 0
4, 424320, Note_on_c, 2, 81, 60
4, 424320, Note_on_c, 2, 84, 60
4, 424508, Note_off_c, 2, 81, 0
4, 424508, Note_off_c, 2, 84, 0
4, 424512, Note_on_c, 2, 78, 60
4, 424512, Note_on_c, 2, 81, 60
4, 424700, Note_off_c, 2, 74, 0
4, 424700, Note_off_c, 2, 78, 0
4, 424700, Note_off_c, 2, 81, 0
4, 424704, Note_on_c, 2, 79, 60
4, 424704, Note_on_c, 2, 74, 60
4, 425084, Note_off_c, 2, 79, 0
4, 425088, Note_on_c, 2, 78, 60
4, 425088, Note_on_c, 2, 81, 60
4, 425468, Note_off_c, 2, 74, 0
4, 425468, Note_off_c, 2, 78, 0
4, 425468, Note_off_c, 2, 81, 0
4, 425472, Note_on_c, 2, 82, 60
4, 425472, Note_on_c, 2, 79, 60
4, 425472, Note_on_c, 2, 74, 60
4, 425660, Note_off_c, 2, 82, 0
4, 425660, Note_off_c, 2, 79, 0
4, 425660, Note_off_c, 2, 74, 0
4, 425664, Note_on_c, 2, 70, 60
4, 425852, Note_off_c, 2, 70, 0
4, 425856, Note_on_c, 2, 74, 60
4, 425856, Note_on_c, 2, 62, 60
4, 426044, Note_off_c, 2, 74, 0
4, 426048, Note_on_c, 2, 72, 60
4, 426236, Note_off_c, 2, 72, 0
4, 426240, Note_on_c, 2, 70, 60
4, 426428, Note_off_c, 2, 70, 0
4, 426432, Note_on_c, 2, 69, 60
4, 426620, Note_off_c, 2, 62, 0
4, 426620, Note_off_c, 2, 69, 0
4, 426624, Note_on_c, 2, 67, 60
4, 426624, Note_on_c, 2, 62, 60
4, 426812, Note_off_c, 2, 67, 0
4, 426816, Note_on_c, 2, 65, 60
4, 427004, Note_off_c, 2, 62, 0
4, 427004, Note_off_c, 2, 65, 0
4, 427008, Note_on_c, 2, 63, 60
4, 427196, Note_off_c, 2, 63, 0
4, 427200, Note_on_c, 2, 75, 60
4, 427388, Note_off_c, 2, 75, 0
4, 427392, Note_on_c, 2, 79, 60
4, 427580, Note_off_c, 2, 79, 0
4, 427584, Note_on_c, 2, 77, 60
4, 427772, Note_off_c, 2, 77, 0
4, 427776, Note_on_c, 2, 75, 60
4, 427964, Note_off_c, 2, 75, 0
4, 427968, Note_on_c, 2, 74, 60
4, 428156, Note_off_c, 2, 74, 0
4, 428160, Note_on_c, 2, 72, 60
4, 428348, Note_off_c, 2, 72, 0
4, 428352, Note_on_c, 2, 70, 60
4, 428540, Note_off_c, 2, 70, 0
4, 428544, Note_on_c, 2, 69, 60
4, 428732, Note_off_c, 2, 69, 0
4, 428736, Note_on_c, 2, 81, 60
4, 428924, Note_off_c, 2, 81, 0
4, 428928, Note_on_c, 2, 84, 60
4, 429116, Note_off_c, 2, 84, 0
4, 429120, Note_on_c, 2, 82, 60
4, 429308, Note_off_c, 2, 82, 0
4, 429312, Note_on_c, 2, 81, 60
4, 429500, Note_off_c, 2, 81, 0
4, 429504, Note_on_c, 2, 79, 60
4, 429692, Note_off_c, 2, 79, 0
4, 429696, Note_on_c, 2, 77, 60
4, 429884, Note_off_c, 2, 77, 0
4, 429888, Note_on_c, 2, 75, 60
4, 430076, Note_off_c, 2, 75, 0
4, 430080, Note_on_c, 2, 74, 60
4, 430268, Note_off_c, 2, 74, 0
4, 430272, Note_on_c, 2, 86, 60
4, 430460, Note_off_c, 2, 86, 0
4, 430464, Note_on_c, 2, 89, 60
4, 430652, Note_off_c, 2, 89, 0
4, 430656, Note_on_c, 2, 87, 60
4, 430844, Note_off_c, 2, 87, 0
4, 430848, Note_on_c, 2, 86, 60
4, 431036, Note_off_c, 2, 86, 0
4, 431040, Note_on_c, 2, 84, 60
4, 431228, Note_off_c, 2, 84, 0
4, 431232, Note_on_c, 2, 82, 60
4, 431420, Note_off_c, 2, 82, 0
4, 431424, Note_on_c, 2, 81, 60
4, 431612, Note_off_c, 2, 81, 0
4, 431616, Note_on_c, 2, 79, 60
4, 431616, Note_on_c, 2, 79, 60
4, 431996, Note_off_c, 2, 79, 0
4, 432384, Note_on_c, 2, 84, 60
4, 433148, Note_off_c, 2, 79, 0
4, 433148, Note_off_c, 2, 84, 0
4, 433152, Note_on_c, 2, 78, 60
4, 433152, Note_on_c, 2, 84, 60
4, 433152, Note_on_c, 2, 74, 60
4, 433532, Note_off_c, 2, 78, 0
4, 433536, Note_on_c, 2, 81, 60
4, 433916, Note_off_c, 2, 84, 0
4, 433916, Note_off_c, 2, 74, 0
4, 433916, Note_off_c, 2, 81, 0
4, 433920, Note_on_c, 2, 79, 60
4, 433920, Note_on_c, 2, 82, 60
4, 433920, Note_on_c, 2, 74, 60
4, 434300, Note_off_c, 2, 79, 0
4, 434304, Note_on_c, 2, 74, 60
4, 434684, Note_off_c, 2, 82, 0
4, 434684, Note_off_c, 2, 74, 0
4, 434684, Note_off_c, 2, 74, 0
4, 434688, Note_on_c, 2, 80, 60
4, 434688, Note_on_c, 2, 76, 60
4, 434688, Note_on_c, 2, 72, 60
4, 435452, Note_off_c, 2, 80, 0
4, 435452, Note_off_c, 2, 76, 0
4, 435452, Note_off_c, 2, 72, 0
4, 435456, Note_on_c, 2, 79, 60
4, 435456, Note_on_c, 2, 76, 60
4, 435456, Note_on_c, 2, 70, 60
4, 436220, Note_off_c, 2, 79, 0
4, 436220, Note_off_c, 2, 76, 0
4, 436220, Note_off_c, 2, 70, 0
4, 436224, Note_on_c, 2, 78, 60
4, 436224, Note_on_c, 2, 74, 60
4, 436224, Note_on_c, 2, 69, 60
4, 436604, Note_off_c, 2, 78, 0
4, 436604, Note_off_c, 2, 74, 0
4, 436604, Note_off_c, 2, 69, 0
4, 437376, Note_on_c, 2, 82, 60
4, 437376, Note_on_c, 2, 79, 60
4, 437376, Note_on_c, 2, 70, 60
4, 437756, Note_off_c, 2, 82, 0
4, 437756, Note_off_c, 2, 79, 0
4, 437756, Note_off_c, 2, 70, 0
4, 437760, Note_on_c, 2, 81, 60
4, 437760, Note_on_c, 2, 78, 60
4, 437760, Note_on_c, 2, 69, 60
4, 438140, Note_off_c, 2, 81, 0
4, 438140, Note_off_c, 2, 78, 0
4, 438140, Note_off_c, 2, 69, 0
4, 438912, Note_on_c, 2, 79, 54
4, 438912, Note_on_c, 2, 82, 54
4, 438912, Note_on_c, 2, 70, 54
4, 439292, Note_off_c, 2, 79, 0
4, 439292, Note_off_c, 2, 82, 0
4, 439292, Note_off_c, 2, 70, 0
4, 439296, Note_on_c, 2, 81, 54
4, 439296, Note_on_c, 2, 78, 54
4, 439296, Note_on_c, 2, 69, 54
4, 439676, Note_off_c, 2, 81, 0
4, 439676, Note_off_c, 2, 78, 0
4, 439676, Note_off_c, 2, 69, 0
4, 442368, Note_on_c, 2, 74, 49
4, 442560, Note_on_c, 2, 74, 49
4, 442652, Note_off_c, 2, 74, 0
4, 442752, Note_on_c, 2, 79, 49
4, 442844, Note_off_c, 2, 79, 0
4, 442944, Note_on_c, 2, 83, 49
4, 443036, Note_off_c, 2, 83, 0
4, 443136, Note_on_c, 2, 85, 49
4, 443324, Note_off_c, 2, 85, 0
4, 443328, Note_on_c, 2, 86, 49
4, 443516, Note_off_c, 2, 86, 0
4, 443520, Note_on_c, 2, 74, 49
4, 443612, Note_off_c, 2, 74, 0
4, 443712, Note_on_c, 2, 86, 49
4, 443804, Note_off_c, 2, 86, 0
4, 443900, Note_off_c, 2, 74, 0
4, 443904, Note_on_c, 2, 78, 49
4, 443904, Note_on_c, 2, 74, 49
4, 444096, Note_on_c, 2, 72, 49
4, 444188, Note_off_c, 2, 72, 0
4, 444288, Note_on_c, 2, 78, 49
4, 444380, Note_off_c, 2, 78, 0
4, 444480, Note_on_c, 2, 81, 49
4, 444572, Note_off_c, 2, 81, 0
4, 444672, Note_on_c, 2, 84, 49
4, 444860, Note_off_c, 2, 84, 0
4, 444864, Note_on_c, 2, 84, 49
4, 445052, Note_off_c, 2, 84, 0
4, 445056, Note_on_c, 2, 72, 49
4, 445244, Note_off_c, 2, 72, 0
4, 445248, Note_on_c, 2, 84, 49
4, 445436, Note_off_c, 2, 74, 0
4, 445436, Note_off_c, 2, 78, 0
4, 445436, Note_off_c, 2, 84, 0
4, 445440, Note_on_c, 2, 83, 49
4, 445440, Note_on_c, 2, 79, 49
4, 445440, Note_on_c, 2, 71, 49
4, 445820, Note_off_c, 2, 83, 0
4, 445820, Note_off_c, 2, 79, 0
4, 445820, Note_off_c, 2, 71, 0
4, 446208, Note_on_c, 2, 69, 49
4, 446208, Note_on_c, 2, 63, 49
4, 446588, Note_off_c, 2, 69, 0
4, 446588, Note_off_c, 2, 63, 0
4, 446976, Note_on_c, 2, 67, 49
4, 446976, Note_on_c, 2, 64, 49
4, 447356, Note_off_c, 2, 67, 0
4, 447356, Note_off_c, 2, 64, 0
4, 447744, Note_on_c, 2, 68, 49
4, 447744, Note_on_c, 2, 64, 49
4, 448124, Note_off_c, 2, 68, 0
4, 448124, Note_off_c, 2, 64, 0
4, 448512, Note_on_c, 2, 69, 49
4, 448512, Note_on_c, 2, 64, 49
4, 448892, Note_off_c, 2, 69, 0
4, 448892, Note_off_c, 2, 64, 0
4, 449280, Note_on_c, 2, 74, 49
4, 449280, Note_on_c, 2, 68, 49
4, 449660, Note_off_c, 2, 74, 0
4, 449660, Note_off_c, 2, 68, 0
4, 450048, Note_on_c, 2, 72, 49
4, 450048, Note_on_c, 2, 69, 49
4, 450428, Note_off_c, 2, 72, 0
4, 450428, Note_off_c, 2, 69, 0
4, 450816, Note_on_c, 2, 73, 49
4, 450816, Note_on_c, 2, 69, 49
4, 451196, Note_off_c, 2, 73, 0
4, 451196, Note_off_c, 2, 69, 0
4, 451584, Note_on_c, 2, 74, 49
4, 451584, Note_on_c, 2, 69, 49
4, 451964, Note_off_c, 2, 74, 0
4, 451964, Note_off_c, 2, 69, 0
4, 452352, Note_on_c, 2, 73, 49
4, 452352, Note_on_c, 2, 67, 49
4, 452732, Note_off_c, 2, 73, 0
4, 452732, Note_off_c, 2, 67, 0
4, 453120, Note_on_c, 2, 74, 49
4, 453120, Note_on_c, 2, 66, 49
4, 453500, Note_off_c, 2, 74, 0
4, 453500, Note_off_c, 2, 66, 0
4, 456192, Note_on_c, 2, 83, 60
4, 456192, Note_on_c, 2, 71, 60
4, 457340, Note_off_c, 2, 83, 0
4, 457340, Note_off_c, 2, 71, 0
4, 457344, Note_on_c, 2, 83, 60
4, 457344, Note_on_c, 2, 71, 60
4, 457724, Note_off_c, 2, 83, 0
4, 457724, Note_off_c, 2, 71, 0
4, 457728, Note_on_c, 2, 84, 60
4, 457728, Note_on_c, 2, 72, 60
4, 457916, Note_off_c, 2, 84, 0
4, 457916, Note_off_c, 2, 72, 0
4, 457920, Note_on_c, 2, 83, 60
4, 457920, Note_on_c, 2, 71, 60
4, 458108, Note_off_c, 2, 83, 0
4, 458108, Note_off_c, 2, 71, 0
4, 458112, Note_on_c, 2, 83, 60
4, 458112, Note_on_c, 2, 71, 60
4, 458492, Note_off_c, 2, 83, 0
4, 458492, Note_off_c, 2, 71, 0
4, 459264, Note_on_c, 2, 88, 60
4, 459264, Note_on_c, 2, 76, 60
4, 460412, Note_off_c, 2, 88, 0
4, 460412, Note_off_c, 2, 76, 0
4, 460416, Note_on_c, 2, 88, 60
4, 460416, Note_on_c, 2, 76, 60
4, 460796, Note_off_c, 2, 88, 0
4, 460796, Note_off_c, 2, 76, 0
4, 460800, Note_on_c, 2, 89, 60
4, 460800, Note_on_c, 2, 77, 60
4, 460988, Note_off_c, 2, 89, 0
4, 460988, Note_off_c, 2, 77, 0
4, 460992, Note_on_c, 2, 88, 60
4, 460992, Note_on_c, 2, 76, 60
4, 461180, Note_off_c, 2, 88, 0
4, 461180, Note_off_c, 2, 76, 0
4, 461184, Note_on_c, 2, 88, 60
4, 461184, Note_on_c, 2, 76, 60
4, 461564, Note_off_c, 2, 88, 0
4, 461564, Note_off_c, 2, 76, 0
4, 462336, Note_on_c, 2, 81, 60
4, 462336, Note_on_c, 2, 69, 60
4, 463484, Note_off_c, 2, 81, 0
4, 463484, Note_off_c, 2, 69, 0
4, 463488, Note_on_c, 2, 83, 60
4, 463488, Note_on_c, 2, 71, 60
4, 463676, Note_off_c, 2, 83, 0
4, 463676, Note_off_c, 2, 71, 0
4, 463680, Note_on_c, 2, 79, 60
4, 463868, Note_off_c, 2, 79, 0
4, 463872, Note_on_c, 2, 79, 60
4, 464060, Note_off_c, 2, 79, 0
4, 464064, Note_on_c, 2, 78, 60
4, 464252, Note_off_c, 2, 78, 0
4, 464256, Note_on_c, 2, 79, 60
4, 464348, Note_off_c, 2, 79, 0
4, 464448, Note_on_c, 2, 76, 60
4, 464540, Note_off_c, 2, 76, 0
4, 464640, Note_on_c, 2, 76, 60
4, 464828, Note_off_c, 2, 76, 0
4, 464832, Note_on_c, 2, 74, 60
4, 465020, Note_off_c, 2, 74, 0
4, 465792, Note_on_c, 2, 84, 60
4, 465792, Note_on_c, 2, 81, 60
4, 465792, Note_on_c, 2, 72, 60
4, 465980, Note_off_c, 2, 84, 0
4, 465980, Note_off_c, 2, 81, 0
4, 465980, Note_off_c, 2, 72, 0
4, 466176, Note_on_c, 2, 83, 60
4, 466176, Note_on_c, 2, 79, 60
4, 466176, Note_on_c, 2, 71, 60
4, 466364, Note_off_c, 2, 83, 0
4, 466364, Note_off_c, 2, 79, 0
4, 466364, Note_off_c, 2, 71, 0
4, 466560, Note_on_c, 2, 81, 60
4, 466560, Note_on_c, 2, 69, 60
4, 466560, Note_on_c, 2, 78, 60
4, 466748, Note_off_c, 2, 81, 0
4, 466748, Note_off_c, 2, 69, 0
4, 466748, Note_off_c, 2, 78, 0
4, 466944, Note_on_c, 2, 79, 60
4, 466944, Note_on_c, 2, 74, 60
4, 466944, Note_on_c, 2, 71, 60
4, 466944, Note_on_c, 2, 67, 60
4, 467324, Note_off_c, 2, 79, 0
4, 467324, Note_off_c, 2, 74, 0
4, 467324, Note_off_c, 2, 71, 0
4, 467324, Note_off_c, 2, 67, 0
4, 468096, Note_on_c, 2, 79, 60
4, 468096, Note_on_c, 2, 74, 60
4, 468096, Note_on_c, 2, 71, 60
4, 468476, Note_off_c, 2, 79, 0
4, 468476, Note_off_c, 2, 74, 0
4, 468476, Note_off_c, 2, 71, 0
4, 468480, Note_on_c, 2, 78, 60
4, 468480, Note_on_c, 2, 74, 60
4, 468480, Note_on_c, 2, 72, 60
4, 468860, Note_off_c, 2, 78, 0
4, 468860, Note_off_c, 2, 74, 0
4, 468860, Note_off_c, 2, 72, 0
4, 469632, Note_on_c, 2, 78, 60
4, 469632, Note_on_c, 2, 74, 60
4, 469632, Note_on_c, 2, 72, 60
4, 470012, Note_off_c, 2, 78, 0
4, 470012, Note_off_c, 2, 74, 0
4, 470012, Note_off_c, 2, 72, 0
4, 470016, Note_on_c, 2, 79, 60
4, 470016, Note_on_c, 2, 74, 60
4, 470016, Note_on_c, 2, 71, 60
4, 470204, Note_off_c, 2, 79, 0
4, 470204, Note_off_c, 2, 74, 0
4, 470204, Note_off_c, 2, 71, 0
4, 470400, Note_on_c, 2, 79, 60
4, 470400, Note_on_c, 2, 83, 60
4, 470780, Note_off_c, 2, 79, 0
4, 470780, Note_off_c, 2, 83, 0
4, 470784, Note_on_c, 2, 83, 60
4, 470784, Note_on_c, 2, 86, 60
4, 470972, Note_off_c, 2, 83, 0
4, 470972, Note_off_c, 2, 86, 0
4, 471168, Note_on_c, 2, 79, 60
4, 471168, Note_on_c, 2, 74, 60
4, 471168, Note_on_c, 2, 71, 60
4, 471548, Note_off_c, 2, 79, 0
4, 471548, Note_off_c, 2, 74, 0
4, 471548, Note_off_c, 2, 71, 0
4, 471552, Note_on_c, 2, 78, 60
4, 471552, Note_on_c, 2, 74, 60
4, 471552, Note_on_c, 2, 72, 60
4, 471932, Note_off_c, 2, 78, 0
4, 471932, Note_off_c, 2, 74, 0
4, 471932, Note_off_c, 2, 72, 0
4, 471936, Note_on_c, 2, 81, 60
4, 471936, Note_on_c, 2, 78, 60
4, 472316, Note_off_c, 2, 81, 0
4, 472316, Note_off_c, 2, 78, 0
4, 472320, Note_on_c, 2, 84, 60
4, 472320, Note_on_c, 2, 81, 60
4, 472700, Note_off_c, 2, 84, 0
4, 472700, Note_off_c, 2, 81, 0
4, 472704, Note_on_c, 2, 78, 60
4, 472704, Note_on_c, 2, 74, 60
4, 472704, Note_on_c, 2, 72, 60
4, 473084, Note_off_c, 2, 78, 0
4, 473084, Note_off_c, 2, 74, 0
4, 473084, Note_off_c, 2, 72, 0
4, 473088, Note_on_c, 2, 79, 60
4, 473088, Note_on_c, 2, 74, 60
4, 473088, Note_on_c, 2, 71, 60
4, 473468, Note_off_c, 2, 79, 0
4, 473468, Note_off_c, 2, 74, 0
4, 473468, Note_off_c, 2, 71, 0
4, 474240, Note_on_c, 2, 77, 60
4, 474240, Note_on_c, 2, 74, 60
4, 474240, Note_on_c, 2, 67, 60
4, 474620, Note_off_c, 2, 77, 0
4, 474620, Note_off_c, 2, 74, 0
4, 474620, Note_off_c, 2, 67, 0
4, 474624, Note_on_c, 2, 76, 60
4, 474624, Note_on_c, 2, 72, 60
4, 474624, Note_on_c, 2, 67, 60
4, 475004, Note_off_c, 2, 76, 0
4, 475004, Note_off_c, 2, 72, 0
4, 475004, Note_off_c, 2, 67, 0
4, 475776, Note_on_c, 2, 81, 60
4, 475776, Note_on_c, 2, 76, 60
4, 475776, Note_on_c, 2, 72, 60
4, 476156, Note_off_c, 2, 81, 0
4, 476156, Note_off_c, 2, 76, 0
4, 476156, Note_off_c, 2, 72, 0
4, 476160, Note_on_c, 2, 74, 60
4, 476160, Note_on_c, 2, 79, 60
4, 476160, Note_on_c, 2, 71, 60
4, 476540, Note_off_c, 2, 74, 0
4, 476924, Note_off_c, 2, 71, 0
4, 476928, Note_on_c, 2, 76, 60
4, 476928, Note_on_c, 2, 69, 60
4, 477308, Note_off_c, 2, 79, 0
4, 477308, Note_off_c, 2, 69, 0
4, 477312, Note_on_c, 2, 78, 60
4, 477312, Note_on_c, 2, 74, 60
4, 477312, Note_on_c, 2, 72, 60
4, 477692, Note_off_c, 2, 76, 0
4, 477692, Note_off_c, 2, 78, 0
4, 477692, Note_off_c, 2, 74, 0
4, 477692, Note_off_c, 2, 72, 0
4, 477696, Note_on_c, 2, 71, 60
4, 477696, Note_on_c, 2, 79, 60
4, 477980, Note_off_c, 2, 79, 0
4, 477984, Note_on_c, 2, 83, 60
4, 478080, Note_on_c, 2, 86, 60
4, 478124, Note_off_c, 2, 83, 0
4, 478844, Note_off_c, 2, 86, 0
4, 478848, Note_on_c, 2, 83, 60
4, 479036, Note_off_c, 2, 83, 0
4, 479040, Note_on_c, 2, 79, 60
4, 479228, Note_off_c, 2, 71, 0
4, 479228, Note_off_c, 2, 79, 0
4, 479232, Note_on_c, 2, 72, 60
4, 479232, Note_on_c, 2, 69, 60
4, 479232, Note_on_c, 2, 78, 60
4, 479516, Note_off_c, 2, 78, 0
4, 479520, Note_on_c, 2, 81, 60
4, 479616, Note_on_c, 2, 84, 60
4, 479660, Note_off_c, 2, 81, 0
4, 480380, Note_off_c, 2, 84, 0
4, 480384, Note_on_c, 2, 81, 60
4, 480572, Note_off_c, 2, 81, 0
4, 480576, Note_on_c, 2, 78, 60
4, 480764, Note_off_c, 2, 72, 0
4, 480764, Note_off_c, 2, 69, 0
4, 480764, Note_off_c, 2, 78, 0
4, 480768, Note_on_c, 2, 71, 60
4, 480768, Note_on_c, 2, 79, 60
4, 481052, Note_off_c, 2, 79, 0
4, 481056, Note_on_c, 2, 83, 60
4, 481148, Note_off_c, 2, 83, 0
4, 481152, Note_on_c, 2, 86, 60
4, 481916, Note_off_c, 2, 86, 0
4, 481920, Note_on_c, 2, 83, 60
4, 482108, Note_off_c, 2, 83, 0
4, 482112, Note_on_c, 2, 79, 60
4, 482300, Note_off_c, 2, 71, 0
4, 482300, Note_off_c, 2, 79, 0
4, 482304, Note_on_c, 2, 72, 60
4, 482304, Note_on_c, 2, 69, 60
4, 482304, Note_on_c, 2, 78, 60
4, 482588, Note_off_c, 2, 78, 0
4, 482592, Note_on_c, 2, 81, 60
4, 482684, Note_off_c, 2, 81, 0
4, 482688, Note_on_c, 2, 84, 60
4, 483452, Note_off_c, 2, 84, 0
4, 483456, Note_on_c, 2, 81, 60
4, 483644, Note_off_c, 2, 81, 0
4, 483648, Note_on_c, 2, 78, 60
4, 483836, Note_off_c, 2, 72, 0
4, 483836, Note_off_c, 2, 69, 0
4, 483836, Note_off_c, 2, 78, 0
4, 483840, Note_on_c, 2, 79, 60
4, 483840, Note_on_c, 2, 74, 60
4, 484124, Note_off_c, 2, 79, 0
4, 484128, Note_on_c, 2, 83, 60
4, 484220, Note_off_c, 2, 83, 0
4, 484224, Note_on_c, 2, 86, 60
4, 484604, Note_off_c, 2, 74, 0
4, 484608, Note_on_c, 2, 71, 60
4, 484892, Note_off_c, 2, 71, 0
4, 484896, Note_on_c, 2, 74, 60
4, 484988, Note_off_c, 2, 86, 0
4, 484988, Note_off_c, 2, 74, 0
4, 484992, Note_on_c, 2, 83, 60
4, 484992, Note_on_c, 2, 79, 60
4, 485372, Note_off_c, 2, 83, 0
4, 485372, Note_off_c, 2, 79, 0
4, 485376, Note_on_c, 2, 81, 60
4, 485376, Note_on_c, 2, 76, 60
4, 485660, Note_off_c, 2, 81, 0
4, 485664, Note_on_c, 2, 84, 60
4, 485756, Note_off_c, 2, 84, 0
4, 485760, Note_on_c, 2, 88, 60
4, 486140, Note_off_c, 2, 76, 0
4, 486144, Note_on_c, 2, 72, 60
4, 486428, Note_off_c, 2, 72, 0
4, 486432, Note_on_c, 2, 76, 60
4, 486524, Note_off_c, 2, 88, 0
4, 486524, Note_off_c, 2, 76, 0
4, 486528, Note_on_c, 2, 81, 60
4, 486528, Note_on_c, 2, 84, 60
4, 486908, Note_off_c, 2, 81, 0
4, 486908, Note_off_c, 2, 84, 0
4, 486912, Note_on_c, 2, 83, 60
4, 486912, Note_on_c, 2, 79, 60
4, 487100, Note_off_c, 2, 83, 0
4, 487100, Note_off_c, 2, 79, 0
4, 487104, Note_on_c, 2, 71, 60
4, 487104, Note_on_c, 2, 67, 60
4, 487104, Note_on_c, 2, 62, 60
4, 487292, Note_off_c, 2, 71, 0
4, 487292, Note_off_c, 2, 67, 0
4, 487292, Note_off_c, 2, 62, 0
4, 487296, Note_on_c, 2, 71, 60
4, 487296, Note_on_c, 2, 67, 60
4, 487296, Note_on_c, 2, 62, 60
4, 487484, Note_off_c, 2, 71, 0
4, 487484, Note_off_c, 2, 67, 0
4, 487484, Note_off_c, 2, 62, 0
4, 487488, Note_on_c, 2, 71, 60
4, 487488, Note_on_c, 2, 67, 60
4, 487488, Note_on_c, 2, 62, 60
4, 487676, Note_off_c, 2, 71, 0
4, 487676, Note_off_c, 2, 67, 0
4, 487676, Note_off_c, 2, 62, 0
4, 487680, Note_on_c, 2, 71, 60
4, 487680, Note_on_c, 2, 67, 60
4, 487680, Note_on_c, 2, 62, 60
4, 487868, Note_off_c, 2, 71, 0
4, 487868, Note_off_c, 2, 67, 0
4, 487868, Note_off_c, 2, 62, 0
4, 487872, Note_on_c, 2, 71, 60
4, 487872, Note_on_c, 2, 67, 60
4, 487872, Note_on_c, 2, 62, 60
4, 488060, Note_off_c, 2, 71, 0
4, 488060, Note_off_c, 2, 67, 0
4, 488060, Note_off_c, 2, 62, 0
4, 488064, Note_on_c, 2, 71, 60
4, 488064, Note_on_c, 2, 67, 60
4, 488064, Note_on_c, 2, 62, 60
4, 488252, Note_off_c, 2, 71, 0
4, 488252, Note_off_c, 2, 67, 0
4, 488252, Note_off_c, 2, 62, 0
4, 488256, Note_on_c, 2, 71, 60
4, 488256, Note_on_c, 2, 67, 60
4, 488256, Note_on_c, 2, 62, 60
4, 488444, Note_off_c, 2, 71, 0
4, 488444, Note_off_c, 2, 67, 0
4, 488444, Note_off_c, 2, 62, 0
4, 488448, Note_on_c, 2, 69, 63
4, 488448, Note_on_c, 2, 66, 63
4, 488540, Note_off_c, 2, 69, 0
4, 488540, Note_off_c, 2, 66, 0
4, 488544, Note_on_c, 2, 62, 65
4, 488636, Note_off_c, 2, 62, 0
4, 488640, Note_on_c, 2, 69, 68
4, 488640, Note_on_c, 2, 66, 68
4, 488732, Note_off_c, 2, 69, 0
4, 488732, Note_off_c, 2, 66, 0
4, 488736, Note_on_c, 2, 62, 71
4, 488828, Note_off_c, 2, 62, 0
4, 488832, Note_on_c, 2, 69, 73
4, 488832, Note_on_c, 2, 66, 73
4, 488924, Note_off_c, 2, 69, 0
4, 488924, Note_off_c, 2, 66, 0
4, 488928, Note_on_c, 2, 62, 76
4, 489020, Note_off_c, 2, 62, 0
4, 489024, Note_on_c, 2, 69, 79
4, 489024, Note_on_c, 2, 66, 79
4, 489116, Note_off_c, 2, 69, 0
4, 489116, Note_off_c, 2, 66, 0
4, 489120, Note_on_c, 2, 62, 80
4, 489212, Note_off_c, 2, 62, 0
4, 489216, Note_on_c, 2, 69, 82
4, 489216, Note_on_c, 2, 66, 82
4, 489308, Note_off_c, 2, 69, 0
4, 489308, Note_off_c, 2, 66, 0
4, 489312, Note_on_c, 2, 62, 79
4, 489404, Note_off_c, 2, 62, 0
4, 489408, Note_on_c, 2, 69, 78
4, 489408, Note_on_c, 2, 66, 78
4, 489500, Note_off_c, 2, 69, 0
4, 489500, Note_off_c, 2, 66, 0
4, 489504, Note_on_c, 2, 62, 75
4, 489596, Note_off_c, 2, 62, 0
4, 489600, Note_on_c, 2, 66, 71
4, 489600, Note_on_c, 2, 69, 71
4, 489692, Note_off_c, 2, 66, 0
4, 489692, Note_off_c, 2, 69, 0
4, 489696, Note_on_c, 2, 62, 69
4, 489788, Note_off_c, 2, 62, 0
4, 489792, Note_on_c, 2, 69, 67
4, 489792, Note_on_c, 2, 66, 67
4, 489884, Note_off_c, 2, 69, 0
4, 489884, Note_off_c, 2, 66, 0
4, 489888, Note_on_c, 2, 62, 63
4, 489980, Note_off_c, 2, 62, 0
4, 489984, Note_on_c, 2, 67, 62
4, 490172, Note_off_c, 2, 67, 0
4, 490368, Note_on_c, 2, 70, 64
4, 490556, Note_off_c, 2, 70, 0
4, 490752, Note_on_c, 2, 75, 66
4, 490940, Note_off_c, 2, 75, 0
4, 491136, Note_on_c, 2, 79, 68
4, 491324, Note_off_c, 2, 79, 0
4, 491520, Note_on_c, 2, 82, 73
4, 491520, Note_on_c, 2, 80, 73
4, 491520, Note_on_c, 2, 77, 73
4, 491520, Note_on_c, 2, 70, 73
4, 491900, Note_off_c, 2, 82, 0
4, 491900, Note_off_c, 2, 80, 0
4, 491900, Note_off_c, 2, 77, 0
4, 491900, Note_off_c, 2, 70, 0
4, 491904, Note_on_c, 2, 68, 86
4, 491944, Note_off_c, 2, 68, 0
4, 491952, Note_on_c, 2, 70, 86
4, 491992, Note_off_c, 2, 70, 0
4, 492000, Note_on_c, 2, 68, 86
4, 492040, Note_off_c, 2, 68, 0
4, 492048, Note_on_c, 2, 70, 86
4, 492088, Note_off_c, 2, 70, 0
4, 492096, Note_on_c, 2, 68, 86
4, 492136, Note_off_c, 2, 68, 0
4, 492144, Note_on_c, 2, 70, 86
4, 492184, Note_off_c, 2, 70, 0
4, 492192, Note_on_c, 2, 68, 86
4, 492232, Note_off_c, 2, 68, 0
4, 492240, Note_on_c, 2, 70, 86
4, 492280, Note_off_c, 2, 70, 0
4, 492288, Note_on_c, 2, 68, 86
4, 492328, Note_off_c, 2, 68, 0
4, 492336, Note_on_c, 2, 70, 86
4, 492376, Note_off_c, 2, 70, 0
4, 492384, Note_on_c, 2, 68, 86
4, 492424, Note_off_c, 2, 68, 0
4, 492432, Note_on_c, 2, 70, 86
4, 492472, Note_off_c, 2, 70, 0
4, 492480, Note_on_c, 2, 68, 86
4, 492520, Note_off_c, 2, 68, 0
4, 492528, Note_on_c, 2, 70, 86
4, 492568, Note_off_c, 2, 70, 0
4, 492576, Note_on_c, 2, 68, 86
4, 492616, Note_off_c, 2, 68, 0
4, 492624, Note_on_c, 2, 70, 86
4, 492664, Note_off_c, 2, 70, 0
4, 492672, Note_on_c, 2, 68, 86
4, 492712, Note_off_c, 2, 68, 0
4, 492720, Note_on_c, 2, 70, 86
4, 492760, Note_off_c, 2, 70, 0
4, 492768, Note_on_c, 2, 68, 86
4, 492808, Note_off_c, 2, 68, 0
4, 492816, Note_on_c, 2, 70, 86
4, 492856, Note_off_c, 2, 70, 0
4, 492864, Note_on_c, 2, 67, 86
4, 492952, Note_off_c, 2, 67, 0
4, 492960, Note_on_c, 2, 68, 86
4, 493048, Note_off_c, 2, 68, 0
4, 493056, Note_on_c, 2, 67, 62
4, 493244, Note_off_c, 2, 67, 0
4, 493440, Note_on_c, 2, 70, 64
4, 493628, Note_off_c, 2, 70, 0
4, 493824, Note_on_c, 2, 75, 66
4, 494012, Note_off_c, 2, 75, 0
4, 494208, Note_on_c, 2, 79, 68
4, 494396, Note_off_c, 2, 79, 0
4, 494592, Note_on_c, 2, 80, 73
4, 494592, Note_on_c, 2, 77, 73
4, 494592, Note_on_c, 2, 70, 73
4, 494592, Note_on_c, 2, 82, 73
4, 494972, Note_off_c, 2, 80, 0
4, 494972, Note_off_c, 2, 77, 0
4, 494972, Note_off_c, 2, 70, 0
4, 494972, Note_off_c, 2, 82, 0
4, 494976, Note_on_c, 2, 68, 86
4, 495016, Note_off_c, 2, 68, 0
4, 495024, Note_on_c, 2, 70, 86
4, 495064, Note_off_c, 2, 70, 0
4, 495072, Note_on_c, 2, 68, 86
4, 495112, Note_off_c, 2, 68, 0
4, 495120, Note_on_c, 2, 70, 86
4, 495160, Note_off_c, 2, 70, 0
4, 495168, Note_on_c, 2, 68, 86
4, 495208, Note_off_c, 2, 68, 0
4, 495216, Note_on_c, 2, 70, 86
4, 495256, Note_off_c, 2, 70, 0
4, 495264, Note_on_c, 2, 68, 86
4, 495304, Note_off_c, 2, 68, 0
4, 495312, Note_on_c, 2, 70, 86
4, 495352, Note_off_c, 2, 70, 0
4, 495360, Note_on_c, 2, 68, 86
4, 495400, Note_off_c, 2, 68, 0
4, 495408, Note_on_c, 2, 70, 86
4, 495448, Note_off_c, 2, 70, 0
4, 495456, Note_on_c, 2, 68, 86
4, 495496, Note_off_c, 2, 68, 0
4, 495504, Note_on_c, 2, 70, 86
4, 495544, Note_off_c, 2, 70, 0
4, 495552, Note_on_c, 2, 68, 86
4, 495592, Note_off_c, 2, 68, 0
4, 495600, Note_on_c, 2, 70, 86
4, 495640, Note_off_c, 2, 70, 0
4, 495648, Note_on_c, 2, 68, 86
4, 495688, Note_off_c, 2, 68, 0
4, 495696, Note_on_c, 2, 70, 86
4, 495736, Note_off_c, 2, 70, 0
4, 495744, Note_on_c, 2, 68, 86
4, 495784, Note_off_c, 2, 68, 0
4, 495792, Note_on_c, 2, 70, 86
4, 495832, Note_off_c, 2, 70, 0
4, 495840, Note_on_c, 2, 68, 86
4, 495880, Note_off_c, 2, 68, 0
4, 495888, Note_on_c, 2, 70, 86
4, 495928, Note_off_c, 2, 70, 0
4, 495936, Note_on_c, 2, 67, 86
4, 496024, Note_off_c, 2, 67, 0
4, 496032, Note_on_c, 2, 68, 86
4, 496120, Note_off_c, 2, 68, 0
4, 496128, Note_on_c, 2, 67, 82
4, 496128, Note_on_c, 2, 67, 82
4, 496508, Note_off_c, 2, 67, 0
4, 496512, Note_on_c, 2, 70, 82
4, 496796, Note_off_c, 2, 70, 0
4, 496800, Note_on_c, 2, 70, 82
4, 496892, Note_off_c, 2, 67, 0
4, 496892, Note_off_c, 2, 70, 0
4, 496896, Note_on_c, 2, 70, 82
4, 496896, Note_on_c, 2, 75, 82
4, 497180, Note_off_c, 2, 75, 0
4, 497184, Note_on_c, 2, 75, 82
4, 497276, Note_off_c, 2, 75, 0
4, 497280, Note_on_c, 2, 79, 82
4, 497564, Note_off_c, 2, 79, 0
4, 497568, Note_on_c, 2, 79, 82
4, 497660, Note_off_c, 2, 70, 0
4, 497660, Note_off_c, 2, 79, 0
4, 497664, Note_on_c, 2, 85, 82
4, 497664, Note_on_c, 2, 73, 82
4, 497664, Note_on_c, 2, 82, 82
4, 498428, Note_off_c, 2, 82, 0
4, 498432, Note_on_c, 2, 79, 82
4, 499196, Note_off_c, 2, 85, 0
4, 499196, Note_off_c, 2, 73, 0
4, 499196, Note_off_c, 2, 79, 0
4, 499200, Note_on_c, 2, 86, 82
4, 499200, Note_on_c, 2, 81, 82
4, 499200, Note_on_c, 2, 78, 82
4, 499200, Note_on_c, 2, 74, 82
4, 499580, Note_off_c, 2, 86, 0
4, 499580, Note_off_c, 2, 81, 0
4, 499580, Note_off_c, 2, 78, 0
4, 499580, Note_off_c, 2, 74, 0
4, 499584, Note_on_c, 2, 84, 82
4, 499584, Note_on_c, 2, 81, 82
4, 499584, Note_on_c, 2, 78, 82
4, 499584, Note_on_c, 2, 74, 82
4, 499964, Note_off_c, 2, 84, 0
4, 499964, Note_off_c, 2, 81, 0
4, 499964, Note_off_c, 2, 78, 0
4, 499964, Note_off_c, 2, 74, 0
4, 500352, Note_on_c, 2, 83, 82
4, 500352, Note_on_c, 2, 79, 82
4, 500352, Note_on_c, 2, 71, 82
4, 500732, Note_off_c, 2, 83, 0
4, 500732, Note_off_c, 2, 79, 0
4, 500732, Note_off_c, 2, 71, 0
4, 501120, Note_on_c, 2, 79, 82
4, 501120, Note_on_c, 2, 76, 82
4, 501120, Note_on_c, 2, 69, 82
4, 501120, Note_on_c, 2, 81, 82
4, 501500, Note_off_c, 2, 79, 0
4, 501500, Note_off_c, 2, 76, 0
4, 501500, Note_off_c, 2, 69, 0
4, 501500, Note_off_c, 2, 81, 0
4, 501888, Note_on_c, 2, 82, 82
4, 501888, Note_on_c, 2, 79, 82
4, 501888, Note_on_c, 2, 76, 82
4, 501888, Note_on_c, 2, 70, 82
4, 502268, Note_off_c, 2, 82, 0
4, 502268, Note_off_c, 2, 79, 0
4, 502268, Note_off_c, 2, 76, 0
4, 502268, Note_off_c, 2, 70, 0
4, 502272, Note_on_c, 2, 83, 82
4, 502272, Note_on_c, 2, 79, 82
4, 502272, Note_on_c, 2, 74, 82
4, 502272, Note_on_c, 2, 71, 82
4, 503420, Note_off_c, 2, 83, 0
4, 503420, Note_off_c, 2, 79, 0
4, 503420, Note_off_c, 2, 74, 0
4, 503420, Note_off_c, 2, 71, 0
4, 563712, Note_on_c, 2, 65, 60
4, 563712, Note_on_c, 2, 62, 60
4, 563712, Note_on_c, 2, 59, 60
4, 563712, Note_on_c, 2, 68, 60
4, 565244, Note_off_c, 2, 65, 0
4, 565244, Note_off_c, 2, 62, 0
4, 565244, Note_off_c, 2, 59, 0
4, 565244, Note_off_c, 2, 68, 0
4, 565248, Note_on_c, 2, 69, 60
4, 565248, Note_on_c, 2, 66, 60
4, 565248, Note_on_c, 2, 62, 60
4, 565248, Note_on_c, 2, 60, 60
4, 566396, Note_off_c, 2, 69, 0
4, 566396, Note_off_c, 2, 66, 0
4, 566396, Note_off_c, 2, 62, 0
4, 566396, Note_off_c, 2, 60, 0
4, 566400, Note_on_c, 2, 71, 60
4, 566400, Note_on_c, 2, 67, 60
4, 566400, Note_on_c, 2, 62, 60
4, 566400, Note_on_c, 2, 59, 60
4, 566780, Note_off_c, 2, 71, 0
4, 566780, Note_off_c, 2, 67, 0
4, 566780, Note_off_c, 2, 62, 0
4, 566780, Note_off_c, 2, 59, 0
4, 566784, Note_on_c, 2, 72, 60
4, 566784, Note_on_c, 2, 64, 60
4, 566972, Note_off_c, 2, 72, 0
4, 566972, Note_off_c, 2, 64, 0
4, 566976, Note_on_c, 2, 74, 60
4, 567068, Note_off_c, 2, 74, 0
4, 567072, Note_on_c, 2, 76, 60
4, 567164, Note_off_c, 2, 76, 0
4, 567168, Note_on_c, 2, 74, 60
4, 567260, Note_off_c, 2, 74, 0
4, 567264, Note_on_c, 2, 72, 60
4, 567356, Note_off_c, 2, 72, 0
4, 567360, Note_on_c, 2, 71, 60
4, 567452, Note_off_c, 2, 71, 0
4, 567456, Note_on_c, 2, 69, 60
4, 567548, Note_off_c, 2, 69, 0
4, 567552, Note_on_c, 2, 67, 60
4, 567552, Note_on_c, 2, 62, 60
4, 567932, Note_off_c, 2, 67, 0
4, 567932, Note_off_c, 2, 62, 0
4, 567936, Note_on_c, 2, 66, 60
4, 567936, Note_on_c, 2, 62, 60
4, 568316, Note_off_c, 2, 66, 0
4, 568316, Note_off_c, 2, 62, 0
4, 568320, Note_on_c, 2, 67, 60
4, 568320, Note_on_c, 2, 62, 60
4, 568320, Note_on_c, 2, 59, 60
4, 568700, Note_off_c, 2, 62, 0
4, 568700, Note_off_c, 2, 59, 0
4, 569852, Note_off_c, 2, 67, 0
4, 569856, Note_on_c, 2, 77, 60
4, 569856, Note_on_c, 2, 65, 60
4, 569856, Note_on_c, 2, 71, 60
4, 569856, Note_on_c, 2, 68, 60
4, 570620, Note_off_c, 2, 77, 0
4, 570620, Note_off_c, 2, 65, 0
4, 570624, Note_on_c, 2, 76, 60
4, 570624, Note_on_c, 2, 64, 60
4, 571004, Note_off_c, 2, 76, 0
4, 571004, Note_off_c, 2, 64, 0
4, 571008, Note_on_c, 2, 74, 60
4, 571008, Note_on_c, 2, 62, 60
4, 571388, Note_off_c, 2, 71, 0
4, 571388, Note_off_c, 2, 68, 0
4, 571388, Note_off_c, 2, 74, 0
4, 571388, Note_off_c, 2, 62, 0
4, 571392, Note_on_c, 2, 66, 60
4, 571392, Note_on_c, 2, 62, 60
4, 571392, Note_on_c, 2, 60, 60
4, 571392, Note_on_c, 2, 72, 60
4, 571580, Note_off_c, 2, 72, 0
4, 571584, Note_on_c, 2, 71, 60
4, 571772, Note_off_c, 2, 71, 0
4, 571776, Note_on_c, 2, 69, 60
4, 571964, Note_off_c, 2, 69, 0
4, 571968, Note_on_c, 2, 67, 60
4, 572156, Note_off_c, 2, 66, 0
4, 572156, Note_off_c, 2, 62, 0
4, 572156, Note_off_c, 2, 60, 0
4, 572156, Note_off_c, 2, 67, 0
4, 572160, Note_on_c, 2, 69, 60
4, 572160, Note_on_c, 2, 66, 60
4, 572160, Note_on_c, 2, 62, 60
4, 572160, Note_on_c, 2, 60, 60
4, 572540, Note_off_c, 2, 69, 0
4, 572540, Note_off_c, 2, 66, 0
4, 572540, Note_off_c, 2, 62, 0
4, 572540, Note_off_c, 2, 60, 0
4, 572544, Note_on_c, 2, 71, 60
4, 572544, Note_on_c, 2, 67, 60
4, 572544, Note_on_c, 2, 65, 60
4, 572544, Note_on_c, 2, 62, 60
4, 572924, Note_off_c, 2, 71, 0
4, 572924, Note_off_c, 2, 67, 0
4, 572924, Note_off_c, 2, 65, 0
4, 572924, Note_off_c, 2, 62, 0
4, 572928, Note_on_c, 2, 72, 60
4, 572928, Note_on_c, 2, 67, 60
4, 572928, Note_on_c, 2, 64, 60
4, 573116, Note_off_c, 2, 72, 0
4, 573116, Note_off_c, 2, 67, 0
4, 573116, Note_off_c, 2, 64, 0
4, 573120, Note_on_c, 2, 74, 60
4, 573212, Note_off_c, 2, 74, 0
4, 573216, Note_on_c, 2, 76, 60
4, 573308, Note_off_c, 2, 76, 0
4, 573312, Note_on_c, 2, 74, 60
4, 573404, Note_off_c, 2, 74, 0
4, 573408, Note_on_c, 2, 72, 60
4, 573500, Note_off_c, 2, 72, 0
4, 573504, Note_on_c, 2, 71, 60
4, 573596, Note_off_c, 2, 71, 0
4, 573600, Note_on_c, 2, 69, 60
4, 573692, Note_off_c, 2, 69, 0
4, 573696, Note_on_c, 2, 67, 60
4, 573696, Note_on_c, 2, 62, 60
4, 574076, Note_off_c, 2, 67, 0
4, 574076, Note_off_c, 2, 62, 0
4, 574080, Note_on_c, 2, 66, 60
4, 574080, Note_on_c, 2, 62, 60
4, 574460, Note_off_c, 2, 66, 0
4, 574460, Note_off_c, 2, 62, 0
4, 574464, Note_on_c, 2, 74, 60
4, 575036, Note_off_c, 2, 74, 0
4, 575040, Note_on_c, 2, 71, 60
4, 575132, Note_off_c, 2, 71, 0
4, 575136, Note_on_c, 2, 67, 60
4, 575228, Note_off_c, 2, 67, 0
4, 575232, Note_on_c, 2, 79, 60
4, 575804, Note_off_c, 2, 79, 0
4, 575808, Note_on_c, 2, 76, 60
4, 575900, Note_off_c, 2, 76, 0
4, 575904, Note_on_c, 2, 73, 60
4, 575996, Note_off_c, 2, 73, 0
4, 576000, Note_on_c, 2, 74, 60
4, 576572, Note_off_c, 2, 74, 0
4, 576576, Note_on_c, 2, 71, 60
4, 576668, Note_off_c, 2, 71, 0
4, 576672, Note_on_c, 2, 67, 60
4, 576764, Note_off_c, 2, 67, 0
4, 576768, Note_on_c, 2, 69, 60
4, 577340, Note_off_c, 2, 69, 0
4, 577344, Note_on_c, 2, 66, 60
4, 577436, Note_off_c, 2, 66, 0
4, 577440, Note_on_c, 2, 62, 60
4, 577532, Note_off_c, 2, 62, 0
4, 577536, Note_on_c, 2, 74, 60
4, 577536, Note_on_c, 2, 67, 60
4, 577536, Note_on_c, 2, 62, 60
4, 577628, Note_off_c, 2, 74, 0
4, 577628, Note_off_c, 2, 67, 0
4, 577628, Note_off_c, 2, 62, 0
4, 577728, Note_on_c, 2, 74, 60
4, 578108, Note_off_c, 2, 74, 0
4, 578112, Note_on_c, 2, 71, 60
4, 578204, Note_off_c, 2, 71, 0
4, 578208, Note_on_c, 2, 67, 60
4, 578300, Note_off_c, 2, 67, 0
4, 578304, Note_on_c, 2, 79, 60
4, 578304, Note_on_c, 2, 73, 60
4, 578304, Note_on_c, 2, 70, 60
4, 578396, Note_off_c, 2, 79, 0
4, 578396, Note_off_c, 2, 73, 0
4, 578396, Note_off_c, 2, 70, 0
4, 578496, Note_on_c, 2, 79, 60
4, 578876, Note_off_c, 2, 79, 0
4, 578880, Note_on_c, 2, 76, 60
4, 578972, Note_off_c, 2, 76, 0
4, 578976, Note_on_c, 2, 72, 60
4, 579068, Note_off_c, 2, 72, 0
4, 579072, Note_on_c, 2, 74, 60
4, 579072, Note_on_c, 2, 71, 60
4, 579072, Note_on_c, 2, 67, 60
4, 579164, Note_off_c, 2, 74, 0
4, 579164, Note_off_c, 2, 71, 0
4, 579164, Note_off_c, 2, 67, 0
4, 579264, Note_on_c, 2, 74, 60
4, 579644, Note_off_c, 2, 74, 0
4, 579648, Note_on_c, 2, 71, 60
4, 579740, Note_off_c, 2, 71, 0
4, 579744, Note_on_c, 2, 67, 60
4, 579836, Note_off_c, 2, 67, 0
4, 579840, Note_on_c, 2, 72, 60
4, 579840, Note_on_c, 2, 69, 60
4, 579840, Note_on_c, 2, 66, 60
4, 579932, Note_off_c, 2, 72, 0
4, 579932, Note_off_c, 2, 69, 0
4, 579932, Note_off_c, 2, 66, 0
4, 580032, Note_on_c, 2, 72, 60
4, 580412, Note_off_c, 2, 72, 0
4, 580416, Note_on_c, 2, 69, 60
4, 580508, Note_off_c, 2, 69, 0
4, 580512, Note_on_c, 2, 66, 60
4, 580604, Note_off_c, 2, 66, 0
4, 580608, Note_on_c, 2, 67, 60
4, 580796, Note_off_c, 2, 67, 0
4, 580896, Note_on_c, 2, 74, 82
4, 580988, Note_off_c, 2, 74, 0
4, 580992, Note_on_c, 2, 86, 82
4, 580992, Note_on_c, 2, 74, 82
4, 580992, Note_on_c, 2, 83, 82
4, 581756, Note_off_c, 2, 86, 0
4, 581756, Note_off_c, 2, 74, 0
4, 581756, Note_off_c, 2, 83, 0
4, 581760, Note_on_c, 2, 84, 82
4, 581760, Note_on_c, 2, 81, 82
4, 581760, Note_on_c, 2, 78, 82
4, 581760, Note_on_c, 2, 72, 82
4, 581948, Note_off_c, 2, 84, 0
4, 581948, Note_off_c, 2, 81, 0
4, 581948, Note_off_c, 2, 78, 0
4, 581948, Note_off_c, 2, 72, 0
4, 582144, Note_on_c, 2, 83, 82
4, 582144, Note_on_c, 2, 79, 82
4, 582144, Note_on_c, 2, 71, 82
4, 582332, Note_off_c, 2, 83, 0
4, 582332, Note_off_c, 2, 79, 0
4, 582332, Note_off_c, 2, 71, 0
4, 582528, Note_on_c, 2, 84, 82
4, 582528, Note_on_c, 2, 81, 82
4, 582528, Note_on_c, 2, 76, 82
4, 582528, Note_on_c, 2, 72, 82
4, 582716, Note_off_c, 2, 84, 0
4, 582716, Note_off_c, 2, 81, 0
4, 582716, Note_off_c, 2, 76, 0
4, 582716, Note_off_c, 2, 72, 0
4, 583296, Note_on_c, 2, 81, 82
4, 583296, Note_on_c, 2, 78, 82
4, 583296, Note_on_c, 2, 74, 82
4, 583296, Note_on_c, 2, 72, 82
4, 583484, Note_off_c, 2, 81, 0
4, 583484, Note_off_c, 2, 78, 0
4, 583484, Note_off_c, 2, 74, 0
4, 583484, Note_off_c, 2, 72, 0
4, 583680, Note_on_c, 2, 79, 82
4, 583680, Note_on_c, 2, 71, 82
4, 583864, Note_off_c, 2, 71, 0
4, 583868, Note_off_c, 2, 79, 0
4, 583968, Note_on_c, 2, 74, 85
4, 584056, Note_off_c, 2, 74, 0
4, 584064, Note_on_c, 2, 86, 82
4, 584064, Note_on_c, 2, 83, 82
4, 584064, Note_on_c, 2, 74, 82
4, 584828, Note_off_c, 2, 86, 0
4, 584828, Note_off_c, 2, 83, 0
4, 584828, Note_off_c, 2, 74, 0
4, 584832, Note_on_c, 2, 84, 82
4, 584832, Note_on_c, 2, 81, 82
4, 584832, Note_on_c, 2, 78, 82
4, 584832, Note_on_c, 2, 72, 82
4, 585020, Note_off_c, 2, 84, 0
4, 585020, Note_off_c, 2, 81, 0
4, 585020, Note_off_c, 2, 78, 0
4, 585020, Note_off_c, 2, 72, 64
4, 585216, Note_on_c, 2, 83, 82
4, 585216, Note_on_c, 2, 79, 82
4, 585216, Note_on_c, 2, 71, 82
4, 585404, Note_off_c, 2, 83, 0
4, 585404, Note_off_c, 2, 79, 0
4, 585404, Note_off_c, 2, 71, 0
4, 585600, Note_on_c, 2, 84, 82
4, 585600, Note_on_c, 2, 81, 82
4, 585600, Note_on_c, 2, 76, 82
4, 585600, Note_on_c, 2, 72, 82
4, 585788, Note_off_c, 2, 84, 0
4, 585788, Note_off_c, 2, 81, 0
4, 585788, Note_off_c, 2, 76, 0
4, 585788, Note_off_c, 2, 72, 0
4, 586368, Note_on_c, 2, 78, 82
4, 586368, Note_on_c, 2, 74, 82
4, 586368, Note_on_c, 2, 69, 82
4, 586368, Note_on_c, 2, 72, 82
4, 586556, Note_off_c, 2, 78, 0
4, 586556, Note_off_c, 2, 74, 0
4, 586556, Note_off_c, 2, 69, 0
4, 586556, Note_off_c, 2, 72, 0
4, 586752, Note_on_c, 2, 79, 82
4, 586752, Note_on_c, 2, 74, 82
4, 586752, Note_on_c, 2, 71, 82
4, 586844, Note_off_c, 2, 79, 0
4, 586844, Note_off_c, 2, 74, 0
4, 586844, Note_off_c, 2, 71, 0
4, 586944, Note_on_c, 2, 74, 82
4, 587036, Note_off_c, 2, 74, 0
4, 587136, Note_on_c, 2, 79, 82
4, 587228, Note_off_c, 2, 79, 0
4, 587328, Note_on_c, 2, 83, 82
4, 587420, Note_off_c, 2, 83, 0
4, 587520, Note_on_c, 2, 85, 82
4, 587708, Note_off_c, 2, 85, 0
4, 587712, Note_on_c, 2, 86, 82
4, 587900, Note_off_c, 2, 86, 0
4, 587904, Note_on_c, 2, 81, 82
4, 587904, Note_on_c, 2, 74, 82
4, 587904, Note_on_c, 2, 78, 82
4, 587996, Note_off_c, 2, 81, 0
4, 587996, Note_off_c, 2, 74, 0
4, 587996, Note_off_c, 2, 78, 0
4, 588096, Note_on_c, 2, 86, 82
4, 588188, Note_off_c, 2, 86, 0
4, 588288, Note_on_c, 2, 83, 82
4, 588288, Note_on_c, 2, 79, 82
4, 588288, Note_on_c, 2, 74, 82
4, 588380, Note_off_c, 2, 83, 0
4, 588380, Note_off_c, 2, 79, 0
4, 588380, Note_off_c, 2, 74, 0
4, 588480, Note_on_c, 2, 74, 82
4, 588572, Note_off_c, 2, 74, 0
4, 588672, Note_on_c, 2, 79, 82
4, 588764, Note_off_c, 2, 79, 0
4, 588864, Note_on_c, 2, 83, 82
4, 588956, Note_off_c, 2, 83, 0
4, 589056, Note_on_c, 2, 85, 82
4, 589244, Note_off_c, 2, 85, 0
4, 589248, Note_on_c, 2, 86, 82
4, 589436, Note_off_c, 2, 86, 0
4, 589440, Note_on_c, 2, 81, 82
4, 589440, Note_on_c, 2, 78, 82
4, 589440, Note_on_c, 2, 74, 82
4, 589532, Note_off_c, 2, 81, 0
4, 589532, Note_off_c, 2, 78, 0
4, 589532, Note_off_c, 2, 74, 0
4, 589632, Note_on_c, 2, 86, 82
4, 589724, Note_off_c, 2, 86, 0
4, 589824, Note_on_c, 2, 79, 82
4, 589824, Note_on_c, 2, 74, 82
4, 589824, Note_on_c, 2, 71, 82
4, 590204, Note_off_c, 2, 79, 0
4, 590204, Note_off_c, 2, 74, 0
4, 590204, Note_off_c, 2, 71, 0
4, 590400, Note_on_c, 2, 83, 82
4, 590400, Note_on_c, 2, 74, 82
4, 590492, Note_off_c, 2, 83, 0
4, 590492, Note_off_c, 2, 74, 0
4, 590496, Note_on_c, 2, 81, 82
4, 590496, Note_on_c, 2, 72, 82
4, 590588, Note_off_c, 2, 81, 0
4, 590588, Note_off_c, 2, 72, 0
4, 590592, Note_on_c, 2, 79, 82
4, 590592, Note_on_c, 2, 71, 82
4, 590784, Note_on_c, 2, 67, 82
4, 590876, Note_off_c, 2, 67, 0
4, 590972, Note_off_c, 2, 79, 0
4, 590972, Note_off_c, 2, 71, 0
4, 590976, Note_on_c, 2, 79, 82
4, 590976, Note_on_c, 2, 71, 82
4, 591068, Note_off_c, 2, 71, 0
4, 591168, Note_on_c, 2, 74, 82
4, 591260, Note_off_c, 2, 74, 0
4, 591356, Note_off_c, 2, 79, 0
4, 591360, Note_on_c, 2, 74, 82
4, 591360, Note_on_c, 2, 71, 82
4, 591360, Note_on_c, 2, 78, 82
4, 591548, Note_off_c, 2, 78, 0
4, 591552, Note_on_c, 2, 79, 82
4, 591740, Note_off_c, 2, 74, 0
4, 591740, Note_off_c, 2, 71, 0
4, 591740, Note_off_c, 2, 79, 0
4, 591936, Note_on_c, 2, 83, 82
4, 591936, Note_on_c, 2, 74, 82
4, 592028, Note_off_c, 2, 83, 0
4, 592028, Note_off_c, 2, 74, 0
4, 592032, Note_on_c, 2, 81, 82
4, 592032, Note_on_c, 2, 72, 82
4, 592124, Note_off_c, 2, 81, 0
4, 592124, Note_off_c, 2, 72, 0
4, 592128, Note_on_c, 2, 79, 82
4, 592128, Note_on_c, 2, 71, 82
4, 592320, Note_on_c, 2, 67, 82
4, 592412, Note_off_c, 2, 67, 0
4, 592508, Note_off_c, 2, 79, 0
4, 592508, Note_off_c, 2, 71, 0
4, 592512, Note_on_c, 2, 79, 82
4, 592512, Note_on_c, 2, 71, 82
4, 592604, Note_off_c, 2, 71, 0
4, 592704, Note_on_c, 2, 74, 82
4, 592796, Note_off_c, 2, 74, 0
4, 592892, Note_off_c, 2, 79, 0
4, 592896, Note_on_c, 2, 79, 82
4, 592896, Note_on_c, 2, 71, 82
4, 593276, Note_off_c, 2, 79, 0
4, 593276, Note_off_c, 2, 71, 0
4, 593280, Note_on_c, 2, 79, 82
4, 593280, Note_on_c, 2, 74, 82
4, 593280, Note_on_c, 2, 71, 82
4, 593280, Note_on_c, 2, 67, 82
4, 593660, Note_off_c, 2, 79, 0
4, 593660, Note_off_c, 2, 74, 0
4, 593660, Note_off_c, 2, 71, 0
4, 593660, Note_off_c, 2, 67, 0
4, 593664, Note_on_c, 2, 79, 82
4, 593664, Note_on_c, 2, 74, 82
4, 593664, Note_on_c, 2, 71, 82
4, 593664, Note_on_c, 2, 67, 82
4, 594044, Note_off_c, 2, 79, 0
4, 594044, Note_off_c, 2, 74, 0
4, 594044, Note_off_c, 2, 71, 0
4, 594044, Note_off_c, 2, 67, 0
4, 594048, Note_on_c, 2, 79, 82
4, 594048, Note_on_c, 2, 74, 82
4, 594048, Note_on_c, 2, 67, 82
4, 594048, Note_on_c, 2, 71, 82
4, 594428, Note_off_c, 2, 79, 0
4, 594428, Note_off_c, 2, 74, 0
4, 594428, Note_off_c, 2, 67, 0
4, 594428, Note_off_c, 2, 71, 0
4, 594432, Note_on_c, 2, 79, 82
4, 594432, Note_on_c, 2, 74, 82
4, 594432, Note_on_c, 2, 71, 82
4, 594432, Note_on_c, 2, 67, 82
4, 595196, Note_off_c, 2, 79, 0
4, 595196, Note_off_c, 2, 74, 0
4, 595196, Note_off_c, 2, 71, 0
4, 595196, Note_off_c, 2, 67, 0
4, 595196, End_track
5, 0, Start_track
5, 0, Title_t, "Midi by:"
5, 0, Control_c, 3, 0, 0
5, 0, Program_c, 3, 48
5, 0, Control_c, 3, 7, 127
5, 0, Control_c, 3, 10, 93
5, 0, Control_c, 3, 91, 67
5, 0, Control_c, 3, 93, 2
5, 0, Key_signature, 1, "major"
5, 0, Control_c, 3, 121, 0
5, 384, Control_c, 3, 10, 73
5, 480, Control_c, 3, 91, 63
5, 672, Program_c, 3, 48
5, 3072, Note_on_c, 3, 43, 61
5, 3164, Note_off_c, 3, 43, 0
5, 3264, Note_on_c, 3, 55, 61
5, 3264, Note_on_c, 3, 59, 61
5, 3356, Note_off_c, 3, 55, 0
5, 3356, Note_off_c, 3, 59, 0
5, 3456, Note_on_c, 3, 59, 61
5, 3456, Note_on_c, 3, 62, 61
5, 3548, Note_off_c, 3, 59, 0
5, 3548, Note_off_c, 3, 62, 0
5, 3648, Note_on_c, 3, 59, 61
5, 3648, Note_on_c, 3, 55, 61
5, 3740, Note_off_c, 3, 59, 0
5, 3740, Note_off_c, 3, 55, 0
5, 3840, Note_on_c, 3, 59, 61
5, 3840, Note_on_c, 3, 62, 61
5, 3932, Note_off_c, 3, 59, 0
5, 3932, Note_off_c, 3, 62, 0
5, 4032, Note_on_c, 3, 59, 61
5, 4032, Note_on_c, 3, 55, 61
5, 4124, Note_off_c, 3, 59, 0
5, 4124, Note_off_c, 3, 55, 0
5, 4224, Note_on_c, 3, 59, 61
5, 4224, Note_on_c, 3, 62, 61
5, 4316, Note_off_c, 3, 59, 0
5, 4316, Note_off_c, 3, 62, 0
5, 4416, Note_on_c, 3, 59, 61
5, 4416, Note_on_c, 3, 55, 61
5, 4508, Note_off_c, 3, 59, 0
5, 4508, Note_off_c, 3, 55, 0
5, 4608, Note_on_c, 3, 59, 61
5, 4608, Note_on_c, 3, 62, 61
5, 4700, Note_off_c, 3, 59, 0
5, 4700, Note_off_c, 3, 62, 0
5, 4800, Note_on_c, 3, 59, 61
5, 4800, Note_on_c, 3, 55, 61
5, 4892, Note_off_c, 3, 59, 0
5, 4892, Note_off_c, 3, 55, 0
5, 4992, Note_on_c, 3, 59, 61
5, 4992, Note_on_c, 3, 62, 61
5, 5084, Note_off_c, 3, 59, 0
5, 5084, Note_off_c, 3, 62, 0
5, 5184, Note_on_c, 3, 59, 61
5, 5184, Note_on_c, 3, 55, 61
5, 5276, Note_off_c, 3, 59, 0
5, 5276, Note_off_c, 3, 55, 0
5, 5376, Note_on_c, 3, 59, 61
5, 5376, Note_on_c, 3, 62, 61
5, 5468, Note_off_c, 3, 59, 0
5, 5468, Note_off_c, 3, 62, 0
5, 5568, Note_on_c, 3, 59, 61
5, 5568, Note_on_c, 3, 55, 61
5, 5660, Note_off_c, 3, 59, 0
5, 5660, Note_off_c, 3, 55, 0
5, 5760, Note_on_c, 3, 59, 61
5, 5760, Note_on_c, 3, 62, 61
5, 5852, Note_off_c, 3, 59, 0
5, 5852, Note_off_c, 3, 62, 0
5, 5952, Note_on_c, 3, 59, 61
5, 5952, Note_on_c, 3, 55, 61
5, 6044, Note_off_c, 3, 59, 0
5, 6044, Note_off_c, 3, 55, 0
5, 6144, Note_on_c, 3, 43, 61
5, 6236, Note_off_c, 3, 43, 0
5, 6336, Note_on_c, 3, 55, 61
5, 6336, Note_on_c, 3, 60, 61
5, 6428, Note_off_c, 3, 55, 0
5, 6428, Note_off_c, 3, 60, 0
5, 6528, Note_on_c, 3, 60, 61
5, 6528, Note_on_c, 3, 64, 61
5, 6620, Note_off_c, 3, 60, 0
5, 6620, Note_off_c, 3, 64, 0
5, 6720, Note_on_c, 3, 55, 61
5, 6720, Note_on_c, 3, 60, 61
5, 6812, Note_off_c, 3, 55, 0
5, 6812, Note_off_c, 3, 60, 0
5, 6912, Note_on_c, 3, 64, 61
5, 6912, Note_on_c, 3, 60, 61
5, 7004, Note_off_c, 3, 64, 0
5, 7004, Note_off_c, 3, 60, 0
5, 7104, Note_on_c, 3, 60, 61
5, 7104, Note_on_c, 3, 55, 61
5, 7196, Note_off_c, 3, 60, 0
5, 7196, Note_off_c, 3, 55, 0
5, 7296, Note_on_c, 3, 60, 61
5, 7296, Note_on_c, 3, 64, 61
5, 7388, Note_off_c, 3, 60, 0
5, 7388, Note_off_c, 3, 64, 0
5, 7488, Note_on_c, 3, 55, 61
5, 7488, Note_on_c, 3, 60, 61
5, 7580, Note_off_c, 3, 55, 0
5, 7580, Note_off_c, 3, 60, 0
5, 7680, Note_on_c, 3, 60, 61
5, 7680, Note_on_c, 3, 64, 61
5, 7772, Note_off_c, 3, 60, 0
5, 7772, Note_off_c, 3, 64, 0
5, 7872, Note_on_c, 3, 60, 61
5, 7872, Note_on_c, 3, 55, 61
5, 7964, Note_off_c, 3, 60, 0
5, 7964, Note_off_c, 3, 55, 0
5, 8064, Note_on_c, 3, 60, 61
5, 8064, Note_on_c, 3, 64, 61
5, 8156, Note_off_c, 3, 60, 0
5, 8156, Note_off_c, 3, 64, 0
5, 8256, Note_on_c, 3, 60, 61
5, 8256, Note_on_c, 3, 55, 61
5, 8348, Note_off_c, 3, 60, 0
5, 8348, Note_off_c, 3, 55, 0
5, 8448, Note_on_c, 3, 60, 61
5, 8448, Note_on_c, 3, 64, 61
5, 8540, Note_off_c, 3, 60, 0
5, 8540, Note_off_c, 3, 64, 0
5, 8640, Note_on_c, 3, 60, 61
5, 8640, Note_on_c, 3, 55, 61
5, 8732, Note_off_c, 3, 60, 0
5, 8732, Note_off_c, 3, 55, 0
5, 8832, Note_on_c, 3, 60, 61
5, 8832, Note_on_c, 3, 64, 61
5, 8924, Note_off_c, 3, 60, 0
5, 8924, Note_off_c, 3, 64, 0
5, 9024, Note_on_c, 3, 60, 61
5, 9024, Note_on_c, 3, 55, 61
5, 9116, Note_off_c, 3, 60, 0
5, 9116, Note_off_c, 3, 55, 0
5, 9216, Note_on_c, 3, 43, 61
5, 9308, Note_off_c, 3, 43, 0
5, 9408, Note_on_c, 3, 55, 61
5, 9408, Note_on_c, 3, 60, 61
5, 9500, Note_off_c, 3, 55, 0
5, 9500, Note_off_c, 3, 60, 0
5, 9600, Note_on_c, 3, 60, 61
5, 9600, Note_on_c, 3, 64, 61
5, 9692, Note_off_c, 3, 60, 0
5, 9692, Note_off_c, 3, 64, 0
5, 9792, Note_on_c, 3, 60, 61
5, 9792, Note_on_c, 3, 55, 61
5, 9884, Note_off_c, 3, 60, 0
5, 9884, Note_off_c, 3, 55, 0
5, 9984, Note_on_c, 3, 60, 61
5, 9984, Note_on_c, 3, 64, 61
5, 10076, Note_off_c, 3, 60, 0
5, 10076, Note_off_c, 3, 64, 0
5, 10176, Note_on_c, 3, 55, 61
5, 10176, Note_on_c, 3, 60, 61
5, 10268, Note_off_c, 3, 55, 0
5, 10268, Note_off_c, 3, 60, 0
5, 10368, Note_on_c, 3, 60, 61
5, 10368, Note_on_c, 3, 64, 61
5, 10460, Note_off_c, 3, 60, 0
5, 10460, Note_off_c, 3, 64, 0
5, 10560, Note_on_c, 3, 60, 61
5, 10560, Note_on_c, 3, 55, 61
5, 10652, Note_off_c, 3, 60, 0
5, 10652, Note_off_c, 3, 55, 0
5, 10752, Note_on_c, 3, 60, 61
5, 10752, Note_on_c, 3, 64, 61
5, 10844, Note_off_c, 3, 60, 0
5, 10844, Note_off_c, 3, 64, 0
5, 10944, Note_on_c, 3, 55, 61
5, 10944, Note_on_c, 3, 60, 61
5, 11036, Note_off_c, 3, 55, 0
5, 11036, Note_off_c, 3, 60, 0
5, 11136, Note_on_c, 3, 60, 61
5, 11136, Note_on_c, 3, 64, 61
5, 11228, Note_off_c, 3, 60, 0
5, 11228, Note_off_c, 3, 64, 0
5, 11328, Note_on_c, 3, 60, 61
5, 11328, Note_on_c, 3, 55, 61
5, 11420, Note_off_c, 3, 60, 0
5, 11420, Note_off_c, 3, 55, 0
5, 11520, Note_on_c, 3, 60, 61
5, 11520, Note_on_c, 3, 64, 61
5, 11612, Note_off_c, 3, 60, 0
5, 11612, Note_off_c, 3, 64, 0
5, 11712, Note_on_c, 3, 60, 61
5, 11712, Note_on_c, 3, 55, 61
5, 11804, Note_off_c, 3, 60, 0
5, 11804, Note_off_c, 3, 55, 0
5, 11904, Note_on_c, 3, 60, 61
5, 11904, Note_on_c, 3, 64, 61
5, 11996, Note_off_c, 3, 60, 0
5, 11996, Note_off_c, 3, 64, 0
5, 12096, Note_on_c, 3, 60, 61
5, 12096, Note_on_c, 3, 55, 61
5, 12188, Note_off_c, 3, 60, 0
5, 12188, Note_off_c, 3, 55, 0
5, 12288, Note_on_c, 3, 43, 61
5, 12380, Note_off_c, 3, 43, 0
5, 12480, Note_on_c, 3, 59, 61
5, 12480, Note_on_c, 3, 55, 61
5, 12572, Note_off_c, 3, 59, 0
5, 12572, Note_off_c, 3, 55, 0
5, 12672, Note_on_c, 3, 59, 61
5, 12672, Note_on_c, 3, 62, 61
5, 12764, Note_off_c, 3, 59, 0
5, 12764, Note_off_c, 3, 62, 0
5, 12864, Note_on_c, 3, 59, 61
5, 12864, Note_on_c, 3, 55, 61
5, 12956, Note_off_c, 3, 59, 0
5, 12956, Note_off_c, 3, 55, 0
5, 13056, Note_on_c, 3, 59, 61
5, 13056, Note_on_c, 3, 62, 61
5, 13148, Note_off_c, 3, 59, 0
5, 13148, Note_off_c, 3, 62, 0
5, 13248, Note_on_c, 3, 59, 61
5, 13248, Note_on_c, 3, 55, 61
5, 13340, Note_off_c, 3, 59, 0
5, 13340, Note_off_c, 3, 55, 0
5, 13440, Note_on_c, 3, 59, 61
5, 13440, Note_on_c, 3, 62, 61
5, 13532, Note_off_c, 3, 59, 0
5, 13532, Note_off_c, 3, 62, 0
5, 13632, Note_on_c, 3, 55, 61
5, 13632, Note_on_c, 3, 59, 61
5, 13724, Note_off_c, 3, 55, 0
5, 13724, Note_off_c, 3, 59, 0
5, 13824, Note_on_c, 3, 62, 61
5, 13824, Note_on_c, 3, 55, 61
5, 14012, Note_off_c, 3, 62, 0
5, 14204, Note_off_c, 3, 55, 0
5, 15360, Note_on_c, 3, 54, 82
5, 15360, Note_on_c, 3, 50, 82
5, 15932, Note_off_c, 3, 54, 0
5, 15936, Note_on_c, 3, 55, 62
5, 15988, Note_off_c, 3, 55, 0
5, 16000, Note_on_c, 3, 57, 62
5, 16052, Note_off_c, 3, 57, 0
5, 16064, Note_on_c, 3, 59, 62
5, 16116, Note_off_c, 3, 59, 0
5, 16124, Note_off_c, 3, 50, 0
5, 16128, Note_on_c, 3, 50, 61
5, 16128, Note_on_c, 3, 57, 61
5, 16128, Note_on_c, 3, 60, 61
5, 16508, Note_off_c, 3, 50, 0
5, 16508, Note_off_c, 3, 57, 0
5, 16508, Note_off_c, 3, 60, 0
5, 16896, Note_on_c, 3, 62, 61
5, 17084, Note_off_c, 3, 62, 0
5, 18432, Note_on_c, 3, 54, 82
5, 18432, Note_on_c, 3, 50, 82
5, 19004, Note_off_c, 3, 54, 0
5, 19008, Note_on_c, 3, 55, 61
5, 19060, Note_off_c, 3, 55, 0
5, 19072, Note_on_c, 3, 57, 61
5, 19124, Note_off_c, 3, 57, 0
5, 19136, Note_on_c, 3, 59, 61
5, 19188, Note_off_c, 3, 59, 0
5, 19196, Note_off_c, 3, 50, 0
5, 19200, Note_on_c, 3, 60, 61
5, 19200, Note_on_c, 3, 57, 61
5, 19200, Note_on_c, 3, 50, 61
5, 19580, Note_off_c, 3, 60, 0
5, 19580, Note_off_c, 3, 57, 0
5, 19580, Note_off_c, 3, 50, 0
5, 20352, Note_on_c, 3, 57, 61
5, 20352, Note_on_c, 3, 54, 61
5, 20732, Note_off_c, 3, 57, 0
5, 20732, Note_off_c, 3, 54, 0
5, 20736, Note_on_c, 3, 57, 61
5, 20736, Note_on_c, 3, 54, 61
5, 21116, Note_off_c, 3, 57, 0
5, 21116, Note_off_c, 3, 54, 0
5, 21120, Note_on_c, 3, 57, 61
5, 21120, Note_on_c, 3, 54, 61
5, 21500, Note_off_c, 3, 57, 0
5, 21500, Note_off_c, 3, 54, 0
5, 21888, Note_on_c, 3, 59, 61
5, 21888, Note_on_c, 3, 55, 61
5, 22268, Note_off_c, 3, 59, 0
5, 22268, Note_off_c, 3, 55, 0
5, 22272, Note_on_c, 3, 59, 61
5, 22272, Note_on_c, 3, 55, 61
5, 22652, Note_off_c, 3, 59, 0
5, 22652, Note_off_c, 3, 55, 0
5, 22656, Note_on_c, 3, 62, 61
5, 22656, Note_on_c, 3, 55, 61
5, 23036, Note_off_c, 3, 62, 0
5, 23036, Note_off_c, 3, 55, 0
5, 23040, Note_on_c, 3, 48, 61
5, 23804, Note_off_c, 3, 48, 0
5, 23808, Note_on_c, 3, 50, 61
5, 24572, Note_off_c, 3, 50, 0
5, 24576, Note_on_c, 3, 43, 74
5, 24668, Note_off_c, 3, 43, 0
5, 24672, Note_on_c, 3, 62, 74
5, 24764, Note_off_c, 3, 62, 0
5, 24768, Note_on_c, 3, 59, 74
5, 24768, Note_on_c, 3, 55, 74
5, 24860, Note_off_c, 3, 59, 0
5, 24860, Note_off_c, 3, 55, 0
5, 24864, Note_on_c, 3, 62, 74
5, 24956, Note_off_c, 3, 62, 0
5, 24960, Note_on_c, 3, 59, 74
5, 24960, Note_on_c, 3, 55, 74
5, 25052, Note_off_c, 3, 59, 0
5, 25052, Note_off_c, 3, 55, 0
5, 25056, Note_on_c, 3, 62, 74
5, 25148, Note_off_c, 3, 62, 0
5, 25152, Note_on_c, 3, 59, 74
5, 25152, Note_on_c, 3, 55, 74
5, 25244, Note_off_c, 3, 59, 0
5, 25244, Note_off_c, 3, 55, 0
5, 25248, Note_on_c, 3, 62, 74
5, 25340, Note_off_c, 3, 62, 0
5, 25344, Note_on_c, 3, 59, 74
5, 25344, Note_on_c, 3, 55, 74
5, 25436, Note_off_c, 3, 59, 0
5, 25436, Note_off_c, 3, 55, 0
5, 25440, Note_on_c, 3, 62, 74
5, 25532, Note_off_c, 3, 62, 0
5, 25536, Note_on_c, 3, 59, 74
5, 25536, Note_on_c, 3, 55, 74
5, 25628, Note_off_c, 3, 59, 0
5, 25628, Note_off_c, 3, 55, 0
5, 25632, Note_on_c, 3, 62, 74
5, 25724, Note_off_c, 3, 62, 0
5, 25728, Note_on_c, 3, 59, 74
5, 25728, Note_on_c, 3, 55, 74
5, 25820, Note_off_c, 3, 59, 0
5, 25820, Note_off_c, 3, 55, 0
5, 25824, Note_on_c, 3, 62, 74
5, 25916, Note_off_c, 3, 62, 0
5, 25920, Note_on_c, 3, 59, 74
5, 25920, Note_on_c, 3, 55, 74
5, 26012, Note_off_c, 3, 59, 0
5, 26012, Note_off_c, 3, 55, 0
5, 26016, Note_on_c, 3, 62, 74
5, 26108, Note_off_c, 3, 62, 0
5, 26112, Note_on_c, 3, 55, 74
5, 26112, Note_on_c, 3, 60, 74
5, 26204, Note_off_c, 3, 55, 0
5, 26204, Note_off_c, 3, 60, 0
5, 26208, Note_on_c, 3, 64, 74
5, 26300, Note_off_c, 3, 64, 0
5, 26304, Note_on_c, 3, 60, 74
5, 26304, Note_on_c, 3, 55, 74
5, 26396, Note_off_c, 3, 60, 0
5, 26396, Note_off_c, 3, 55, 0
5, 26400, Note_on_c, 3, 64, 74
5, 26492, Note_off_c, 3, 64, 0
5, 26496, Note_on_c, 3, 60, 74
5, 26496, Note_on_c, 3, 55, 74
5, 26588, Note_off_c, 3, 60, 0
5, 26588, Note_off_c, 3, 55, 0
5, 26592, Note_on_c, 3, 64, 74
5, 26684, Note_off_c, 3, 64, 0
5, 26688, Note_on_c, 3, 60, 74
5, 26688, Note_on_c, 3, 55, 74
5, 26780, Note_off_c, 3, 60, 0
5, 26780, Note_off_c, 3, 55, 0
5, 26784, Note_on_c, 3, 64, 74
5, 26876, Note_off_c, 3, 64, 0
5, 26880, Note_on_c, 3, 55, 74
5, 26880, Note_on_c, 3, 62, 74
5, 26972, Note_off_c, 3, 55, 0
5, 26972, Note_off_c, 3, 62, 0
5, 26976, Note_on_c, 3, 65, 74
5, 27068, Note_off_c, 3, 65, 0
5, 27072, Note_on_c, 3, 62, 74
5, 27072, Note_on_c, 3, 55, 74
5, 27164, Note_off_c, 3, 62, 0
5, 27164, Note_off_c, 3, 55, 0
5, 27168, Note_on_c, 3, 65, 74
5, 27260, Note_off_c, 3, 65, 0
5, 27264, Note_on_c, 3, 62, 74
5, 27264, Note_on_c, 3, 55, 74
5, 27356, Note_off_c, 3, 62, 0
5, 27356, Note_off_c, 3, 55, 0
5, 27360, Note_on_c, 3, 65, 74
5, 27452, Note_off_c, 3, 65, 0
5, 27456, Note_on_c, 3, 62, 74
5, 27456, Note_on_c, 3, 55, 74
5, 27548, Note_off_c, 3, 62, 0
5, 27548, Note_off_c, 3, 55, 0
5, 27552, Note_on_c, 3, 65, 74
5, 27644, Note_off_c, 3, 65, 0
5, 27648, Note_on_c, 3, 55, 74
5, 27648, Note_on_c, 3, 60, 74
5, 27740, Note_off_c, 3, 55, 0
5, 27740, Note_off_c, 3, 60, 0
5, 27744, Note_on_c, 3, 64, 74
5, 27836, Note_off_c, 3, 64, 0
5, 27840, Note_on_c, 3, 55, 74
5, 27840, Note_on_c, 3, 60, 74
5, 27932, Note_off_c, 3, 55, 0
5, 27932, Note_off_c, 3, 60, 0
5, 27936, Note_on_c, 3, 64, 74
5, 28028, Note_off_c, 3, 64, 0
5, 28032, Note_on_c, 3, 55, 74
5, 28032, Note_on_c, 3, 60, 74
5, 28124, Note_off_c, 3, 55, 0
5, 28124, Note_off_c, 3, 60, 0
5, 28128, Note_on_c, 3, 64, 74
5, 28220, Note_off_c, 3, 64, 0
5, 28224, Note_on_c, 3, 55, 74
5, 28224, Note_on_c, 3, 60, 74
5, 28316, Note_off_c, 3, 55, 0
5, 28316, Note_off_c, 3, 60, 0
5, 28320, Note_on_c, 3, 64, 74
5, 28412, Note_off_c, 3, 64, 0
5, 28416, Note_on_c, 3, 57, 74
5, 28416, Note_on_c, 3, 55, 74
5, 28508, Note_off_c, 3, 57, 0
5, 28508, Note_off_c, 3, 55, 0
5, 28512, Note_on_c, 3, 60, 74
5, 28604, Note_off_c, 3, 60, 0
5, 28608, Note_on_c, 3, 57, 74
5, 28608, Note_on_c, 3, 55, 74
5, 28700, Note_off_c, 3, 57, 0
5, 28700, Note_off_c, 3, 55, 0
5, 28704, Note_on_c, 3, 60, 74
5, 28796, Note_off_c, 3, 60, 0
5, 28800, Note_on_c, 3, 57, 74
5, 28800, Note_on_c, 3, 55, 74
5, 28892, Note_off_c, 3, 57, 0
5, 28892, Note_off_c, 3, 55, 0
5, 28896, Note_on_c, 3, 60, 74
5, 28988, Note_off_c, 3, 60, 0
5, 28992, Note_on_c, 3, 57, 74
5, 28992, Note_on_c, 3, 55, 74
5, 29084, Note_off_c, 3, 57, 0
5, 29084, Note_off_c, 3, 55, 0
5, 29088, Note_on_c, 3, 60, 74
5, 29180, Note_off_c, 3, 60, 0
5, 29184, Note_on_c, 3, 55, 74
5, 29184, Note_on_c, 3, 59, 74
5, 29276, Note_off_c, 3, 55, 0
5, 29276, Note_off_c, 3, 59, 0
5, 29280, Note_on_c, 3, 62, 74
5, 29372, Note_off_c, 3, 62, 0
5, 29376, Note_on_c, 3, 59, 74
5, 29376, Note_on_c, 3, 55, 74
5, 29468, Note_off_c, 3, 59, 0
5, 29468, Note_off_c, 3, 55, 0
5, 29472, Note_on_c, 3, 62, 74
5, 29564, Note_off_c, 3, 62, 0
5, 29568, Note_on_c, 3, 59, 74
5, 29568, Note_on_c, 3, 55, 74
5, 29660, Note_off_c, 3, 59, 0
5, 29660, Note_off_c, 3, 55, 0
5, 29664, Note_on_c, 3, 62, 74
5, 29756, Note_off_c, 3, 62, 0
5, 29760, Note_on_c, 3, 59, 74
5, 29760, Note_on_c, 3, 55, 74
5, 29852, Note_off_c, 3, 59, 0
5, 29852, Note_off_c, 3, 55, 0
5, 29856, Note_on_c, 3, 62, 74
5, 29948, Note_off_c, 3, 62, 0
5, 29952, Note_on_c, 3, 59, 74
5, 29952, Note_on_c, 3, 55, 74
5, 30044, Note_off_c, 3, 59, 0
5, 30044, Note_off_c, 3, 55, 0
5, 30048, Note_on_c, 3, 62, 74
5, 30140, Note_off_c, 3, 62, 0
5, 30144, Note_on_c, 3, 59, 74
5, 30144, Note_on_c, 3, 55, 74
5, 30236, Note_off_c, 3, 59, 0
5, 30236, Note_off_c, 3, 55, 0
5, 30256, Note_on_c, 3, 62, 74
5, 30336, Note_on_c, 3, 59, 74
5, 30336, Note_on_c, 3, 55, 74
5, 30348, Note_off_c, 3, 62, 0
5, 30428, Note_off_c, 3, 59, 0
5, 30428, Note_off_c, 3, 55, 0
5, 30432, Note_on_c, 3, 62, 74
5, 30524, Note_off_c, 3, 62, 0
5, 30528, Note_on_c, 3, 59, 74
5, 30528, Note_on_c, 3, 55, 74
5, 30620, Note_off_c, 3, 59, 0
5, 30620, Note_off_c, 3, 55, 0
5, 30624, Note_on_c, 3, 62, 74
5, 30716, Note_off_c, 3, 62, 0
5, 30720, Note_on_c, 3, 60, 74
5, 30720, Note_on_c, 3, 55, 74
5, 30812, Note_off_c, 3, 60, 0
5, 30812, Note_off_c, 3, 55, 0
5, 30816, Note_on_c, 3, 64, 74
5, 30908, Note_off_c, 3, 64, 0
5, 30912, Note_on_c, 3, 55, 74
5, 30912, Note_on_c, 3, 60, 74
5, 31004, Note_off_c, 3, 55, 0
5, 31004, Note_off_c, 3, 60, 0
5, 31008, Note_on_c, 3, 64, 74
5, 31100, Note_off_c, 3, 64, 0
5, 31104, Note_on_c, 3, 60, 74
5, 31104, Note_on_c, 3, 55, 74
5, 31196, Note_off_c, 3, 60, 0
5, 31196, Note_off_c, 3, 55, 0
5, 31200, Note_on_c, 3, 64, 74
5, 31292, Note_off_c, 3, 64, 0
5, 31296, Note_on_c, 3, 60, 74
5, 31296, Note_on_c, 3, 55, 74
5, 31388, Note_off_c, 3, 60, 0
5, 31388, Note_off_c, 3, 55, 0
5, 31392, Note_on_c, 3, 64, 74
5, 31484, Note_off_c, 3, 64, 0
5, 31488, Note_on_c, 3, 62, 74
5, 31488, Note_on_c, 3, 55, 74
5, 31580, Note_off_c, 3, 62, 0
5, 31580, Note_off_c, 3, 55, 0
5, 31584, Note_on_c, 3, 65, 74
5, 31676, Note_off_c, 3, 65, 0
5, 31680, Note_on_c, 3, 62, 74
5, 31680, Note_on_c, 3, 55, 74
5, 31772, Note_off_c, 3, 62, 0
5, 31772, Note_off_c, 3, 55, 0
5, 31776, Note_on_c, 3, 65, 74
5, 31868, Note_off_c, 3, 65, 0
5, 31872, Note_on_c, 3, 62, 74
5, 31872, Note_on_c, 3, 55, 74
5, 31964, Note_off_c, 3, 62, 0
5, 31964, Note_off_c, 3, 55, 0
5, 31968, Note_on_c, 3, 65, 74
5, 32060, Note_off_c, 3, 65, 0
5, 32064, Note_on_c, 3, 62, 74
5, 32064, Note_on_c, 3, 55, 74
5, 32156, Note_off_c, 3, 62, 0
5, 32156, Note_off_c, 3, 55, 0
5, 32160, Note_on_c, 3, 65, 74
5, 32252, Note_off_c, 3, 65, 0
5, 32256, Note_on_c, 3, 55, 74
5, 32256, Note_on_c, 3, 60, 74
5, 32348, Note_off_c, 3, 55, 0
5, 32348, Note_off_c, 3, 60, 0
5, 32352, Note_on_c, 3, 64, 74
5, 32444, Note_off_c, 3, 64, 0
5, 32448, Note_on_c, 3, 55, 74
5, 32448, Note_on_c, 3, 60, 74
5, 32540, Note_off_c, 3, 55, 0
5, 32540, Note_off_c, 3, 60, 0
5, 32544, Note_on_c, 3, 64, 74
5, 32636, Note_off_c, 3, 64, 0
5, 32640, Note_on_c, 3, 55, 74
5, 32640, Note_on_c, 3, 60, 74
5, 32732, Note_off_c, 3, 55, 0
5, 32732, Note_off_c, 3, 60, 0
5, 32736, Note_on_c, 3, 64, 74
5, 32828, Note_off_c, 3, 64, 0
5, 32832, Note_on_c, 3, 55, 74
5, 32832, Note_on_c, 3, 60, 74
5, 32924, Note_off_c, 3, 55, 0
5, 32924, Note_off_c, 3, 60, 0
5, 32928, Note_on_c, 3, 64, 74
5, 33020, Note_off_c, 3, 64, 0
5, 33024, Note_on_c, 3, 57, 74
5, 33024, Note_on_c, 3, 55, 74
5, 33116, Note_off_c, 3, 57, 0
5, 33116, Note_off_c, 3, 55, 0
5, 33120, Note_on_c, 3, 60, 74
5, 33212, Note_off_c, 3, 60, 0
5, 33216, Note_on_c, 3, 57, 74
5, 33216, Note_on_c, 3, 55, 74
5, 33308, Note_off_c, 3, 57, 0
5, 33308, Note_off_c, 3, 55, 0
5, 33312, Note_on_c, 3, 60, 74
5, 33404, Note_off_c, 3, 60, 0
5, 33408, Note_on_c, 3, 57, 74
5, 33408, Note_on_c, 3, 55, 74
5, 33500, Note_off_c, 3, 57, 0
5, 33500, Note_off_c, 3, 55, 0
5, 33504, Note_on_c, 3, 60, 74
5, 33596, Note_off_c, 3, 60, 0
5, 33600, Note_on_c, 3, 57, 74
5, 33600, Note_on_c, 3, 55, 74
5, 33692, Note_off_c, 3, 57, 0
5, 33692, Note_off_c, 3, 55, 0
5, 33696, Note_on_c, 3, 60, 74
5, 33788, Note_off_c, 3, 60, 0
5, 33792, Note_on_c, 3, 55, 82
5, 33792, Note_on_c, 3, 59, 82
5, 34172, Note_off_c, 3, 55, 0
5, 34172, Note_off_c, 3, 59, 0
5, 34176, Note_on_c, 3, 59, 82
5, 34460, Note_off_c, 3, 59, 0
5, 34464, Note_on_c, 3, 55, 82
5, 34556, Note_off_c, 3, 55, 0
5, 34560, Note_on_c, 3, 60, 82
5, 34560, Note_on_c, 3, 57, 82
5, 34560, Note_on_c, 3, 54, 82
5, 34560, Note_on_c, 3, 50, 82
5, 34940, Note_off_c, 3, 60, 0
5, 34940, Note_off_c, 3, 57, 0
5, 34940, Note_off_c, 3, 54, 0
5, 34940, Note_off_c, 3, 50, 0
5, 34944, Note_on_c, 3, 60, 82
5, 34944, Note_on_c, 3, 57, 82
5, 34944, Note_on_c, 3, 54, 82
5, 34944, Note_on_c, 3, 50, 82
5, 35228, Note_off_c, 3, 60, 0
5, 35228, Note_off_c, 3, 57, 0
5, 35228, Note_off_c, 3, 54, 0
5, 35228, Note_off_c, 3, 50, 0
5, 35232, Note_on_c, 3, 60, 82
5, 35232, Note_on_c, 3, 57, 82
5, 35232, Note_on_c, 3, 54, 82
5, 35232, Note_on_c, 3, 50, 82
5, 35324, Note_off_c, 3, 60, 0
5, 35324, Note_off_c, 3, 57, 0
5, 35324, Note_off_c, 3, 54, 0
5, 35324, Note_off_c, 3, 50, 0
5, 35328, Note_on_c, 3, 59, 82
5, 35328, Note_on_c, 3, 55, 82
5, 35708, Note_off_c, 3, 59, 0
5, 35708, Note_off_c, 3, 55, 0
5, 35712, Note_on_c, 3, 59, 82
5, 35996, Note_off_c, 3, 59, 0
5, 36000, Note_on_c, 3, 55, 82
5, 36092, Note_off_c, 3, 55, 0
5, 36096, Note_on_c, 3, 60, 82
5, 36096, Note_on_c, 3, 57, 82
5, 36096, Note_on_c, 3, 54, 82
5, 36096, Note_on_c, 3, 50, 82
5, 36476, Note_off_c, 3, 60, 0
5, 36476, Note_off_c, 3, 57, 0
5, 36476, Note_off_c, 3, 54, 0
5, 36476, Note_off_c, 3, 50, 0
5, 36480, Note_on_c, 3, 60, 82
5, 36480, Note_on_c, 3, 57, 82
5, 36480, Note_on_c, 3, 54, 82
5, 36480, Note_on_c, 3, 50, 82
5, 36764, Note_off_c, 3, 60, 0
5, 36764, Note_off_c, 3, 57, 0
5, 36764, Note_off_c, 3, 54, 0
5, 36764, Note_off_c, 3, 50, 0
5, 36768, Note_on_c, 3, 60, 82
5, 36768, Note_on_c, 3, 57, 82
5, 36768, Note_on_c, 3, 54, 82
5, 36768, Note_on_c, 3, 50, 82
5, 36860, Note_off_c, 3, 60, 0
5, 36860, Note_off_c, 3, 57, 0
5, 36860, Note_off_c, 3, 54, 0
5, 36860, Note_off_c, 3, 50, 0
5, 36864, Note_on_c, 3, 59, 82
5, 36864, Note_on_c, 3, 55, 82
5, 37052, Note_off_c, 3, 59, 0
5, 37052, Note_off_c, 3, 55, 0
5, 37248, Note_on_c, 3, 67, 82
5, 37248, Note_on_c, 3, 55, 82
5, 37532, Note_off_c, 3, 67, 0
5, 37532, Note_off_c, 3, 55, 0
5, 37536, Note_on_c, 3, 55, 82
5, 37536, Note_on_c, 3, 67, 82
5, 37628, Note_off_c, 3, 55, 0
5, 37628, Note_off_c, 3, 67, 0
5, 37632, Note_on_c, 3, 64, 82
5, 37724, Note_off_c, 3, 64, 0
5, 37728, Note_on_c, 3, 62, 82
5, 37820, Note_off_c, 3, 62, 0
5, 37824, Note_on_c, 3, 60, 82
5, 37916, Note_off_c, 3, 60, 0
5, 37920, Note_on_c, 3, 59, 82
5, 38012, Note_off_c, 3, 59, 0
5, 38016, Note_on_c, 3, 57, 82
5, 38108, Note_off_c, 3, 57, 0
5, 38112, Note_on_c, 3, 55, 82
5, 38204, Note_off_c, 3, 55, 0
5, 38208, Note_on_c, 3, 54, 82
5, 38300, Note_off_c, 3, 54, 0
5, 38304, Note_on_c, 3, 52, 82
5, 38396, Note_off_c, 3, 52, 0
5, 38400, Note_on_c, 3, 50, 82
5, 38400, Note_on_c, 3, 50, 82
5, 38492, Note_off_c, 3, 50, 0
5, 38496, Note_on_c, 3, 62, 82
5, 38588, Note_off_c, 3, 50, 0
5, 38588, Note_off_c, 3, 62, 0
5, 38592, Note_on_c, 3, 50, 82
5, 38592, Note_on_c, 3, 50, 82
5, 38684, Note_off_c, 3, 50, 0
5, 38688, Note_on_c, 3, 62, 82
5, 38780, Note_off_c, 3, 50, 0
5, 38780, Note_off_c, 3, 62, 0
5, 38784, Note_on_c, 3, 60, 82
5, 38784, Note_on_c, 3, 60, 82
5, 38876, Note_off_c, 3, 60, 0
5, 38880, Note_on_c, 3, 62, 82
5, 38972, Note_off_c, 3, 62, 0
5, 38976, Note_on_c, 3, 62, 82
5, 39068, Note_off_c, 3, 62, 0
5, 39072, Note_on_c, 3, 62, 82
5, 39164, Note_off_c, 3, 62, 0
5, 39168, Note_on_c, 3, 62, 82
5, 39260, Note_off_c, 3, 62, 0
5, 39264, Note_on_c, 3, 62, 82
5, 39356, Note_off_c, 3, 60, 0
5, 39356, Note_off_c, 3, 62, 0
5, 39360, Note_on_c, 3, 59, 82
5, 39360, Note_on_c, 3, 59, 82
5, 39452, Note_off_c, 3, 59, 0
5, 39456, Note_on_c, 3, 62, 82
5, 39548, Note_off_c, 3, 59, 0
5, 39548, Note_off_c, 3, 62, 0
5, 39552, Note_on_c, 3, 57, 82
5, 39552, Note_on_c, 3, 57, 82
5, 39644, Note_off_c, 3, 57, 0
5, 39648, Note_on_c, 3, 62, 82
5, 39740, Note_off_c, 3, 57, 0
5, 39740, Note_off_c, 3, 62, 0
5, 39744, Note_on_c, 3, 55, 82
5, 39744, Note_on_c, 3, 55, 82
5, 39836, Note_off_c, 3, 55, 0
5, 39840, Note_on_c, 3, 62, 82
5, 39932, Note_off_c, 3, 55, 0
5, 39932, Note_off_c, 3, 62, 0
5, 39936, Note_on_c, 3, 54, 82
5, 39936, Note_on_c, 3, 54, 82
5, 40028, Note_off_c, 3, 54, 0
5, 40032, Note_on_c, 3, 62, 82
5, 40124, Note_off_c, 3, 54, 0
5, 40124, Note_off_c, 3, 62, 0
5, 40128, Note_on_c, 3, 62, 82
5, 40220, Note_off_c, 3, 62, 0
5, 40224, Note_on_c, 3, 62, 82
5, 40316, Note_off_c, 3, 62, 0
5, 40320, Note_on_c, 3, 55, 82
5, 40320, Note_on_c, 3, 55, 82
5, 40412, Note_off_c, 3, 55, 0
5, 40416, Note_on_c, 3, 62, 82
5, 40508, Note_off_c, 3, 55, 0
5, 40508, Note_off_c, 3, 62, 0
5, 40512, Note_on_c, 3, 62, 82
5, 40604, Note_off_c, 3, 62, 0
5, 40608, Note_on_c, 3, 62, 82
5, 40700, Note_off_c, 3, 62, 0
5, 40704, Note_on_c, 3, 57, 82
5, 40704, Note_on_c, 3, 57, 82
5, 40796, Note_off_c, 3, 57, 0
5, 40800, Note_on_c, 3, 62, 82
5, 40892, Note_off_c, 3, 57, 0
5, 40892, Note_off_c, 3, 62, 0
5, 40896, Note_on_c, 3, 62, 82
5, 40988, Note_off_c, 3, 62, 0
5, 40992, Note_on_c, 3, 62, 82
5, 41084, Note_off_c, 3, 62, 0
5, 41088, Note_on_c, 3, 55, 82
5, 41088, Note_on_c, 3, 55, 82
5, 41180, Note_off_c, 3, 55, 0
5, 41184, Note_on_c, 3, 62, 82
5, 41276, Note_off_c, 3, 55, 0
5, 41276, Note_off_c, 3, 62, 0
5, 41280, Note_on_c, 3, 62, 82
5, 41372, Note_off_c, 3, 62, 0
5, 41376, Note_on_c, 3, 62, 82
5, 41468, Note_off_c, 3, 62, 0
5, 41472, Note_on_c, 3, 50, 82
5, 41472, Note_on_c, 3, 50, 82
5, 41564, Note_off_c, 3, 50, 0
5, 41568, Note_on_c, 3, 62, 82
5, 41660, Note_off_c, 3, 50, 0
5, 41660, Note_off_c, 3, 62, 0
5, 41664, Note_on_c, 3, 62, 82
5, 41756, Note_off_c, 3, 62, 0
5, 41760, Note_on_c, 3, 62, 82
5, 41852, Note_off_c, 3, 62, 0
5, 41856, Note_on_c, 3, 62, 82
5, 41948, Note_off_c, 3, 62, 0
5, 41952, Note_on_c, 3, 62, 82
5, 42044, Note_off_c, 3, 62, 0
5, 42048, Note_on_c, 3, 50, 82
5, 42048, Note_on_c, 3, 50, 82
5, 42140, Note_off_c, 3, 50, 0
5, 42144, Note_on_c, 3, 62, 82
5, 42236, Note_off_c, 3, 50, 0
5, 42236, Note_off_c, 3, 62, 0
5, 42240, Note_on_c, 3, 62, 82
5, 42240, Note_on_c, 3, 62, 82
5, 42332, Note_off_c, 3, 62, 0
5, 42336, Note_on_c, 3, 62, 82
5, 42428, Note_off_c, 3, 62, 0
5, 42432, Note_on_c, 3, 62, 82
5, 42524, Note_off_c, 3, 62, 0
5, 42528, Note_on_c, 3, 62, 82
5, 42620, Note_off_c, 3, 62, 0
5, 42624, Note_on_c, 3, 62, 82
5, 42716, Note_off_c, 3, 62, 0
5, 42720, Note_on_c, 3, 62, 82
5, 42812, Note_off_c, 3, 62, 0
5, 42812, Note_off_c, 3, 62, 0
5, 42816, Note_on_c, 3, 59, 82
5, 42816, Note_on_c, 3, 59, 82
5, 42908, Note_off_c, 3, 59, 0
5, 42912, Note_on_c, 3, 62, 82
5, 43004, Note_off_c, 3, 59, 0
5, 43004, Note_off_c, 3, 62, 0
5, 43008, Note_on_c, 3, 57, 82
5, 43104, Note_on_c, 3, 62, 82
5, 43196, Note_off_c, 3, 57, 0
5, 43196, Note_off_c, 3, 62, 0
5, 43200, Note_on_c, 3, 62, 82
5, 43292, Note_off_c, 3, 62, 0
5, 43296, Note_on_c, 3, 62, 82
5, 43388, Note_off_c, 3, 62, 0
5, 43392, Note_on_c, 3, 55, 82
5, 43488, Note_on_c, 3, 62, 82
5, 43580, Note_off_c, 3, 55, 0
5, 43580, Note_off_c, 3, 62, 0
5, 43584, Note_on_c, 3, 62, 82
5, 43676, Note_off_c, 3, 62, 0
5, 43680, Note_on_c, 3, 62, 82
5, 43772, Note_off_c, 3, 62, 0
5, 43776, Note_on_c, 3, 54, 82
5, 43872, Note_on_c, 3, 62, 82
5, 43964, Note_off_c, 3, 54, 0
5, 43964, Note_off_c, 3, 62, 0
5, 43968, Note_on_c, 3, 62, 82
5, 44060, Note_off_c, 3, 62, 0
5, 44064, Note_on_c, 3, 62, 82
5, 44156, Note_off_c, 3, 62, 0
5, 44160, Note_on_c, 3, 55, 82
5, 44256, Note_on_c, 3, 62, 82
5, 44348, Note_off_c, 3, 55, 0
5, 44348, Note_off_c, 3, 62, 0
5, 44352, Note_on_c, 3, 62, 82
5, 44444, Note_off_c, 3, 62, 0
5, 44448, Note_on_c, 3, 62, 82
5, 44540, Note_off_c, 3, 62, 0
5, 44544, Note_on_c, 3, 57, 82
5, 44544, Note_on_c, 3, 54, 82
5, 44544, Note_on_c, 3, 50, 82
5, 44732, Note_off_c, 3, 57, 0
5, 44732, Note_off_c, 3, 54, 0
5, 44732, Note_off_c, 3, 50, 0
5, 44736, Note_on_c, 3, 50, 82
5, 44828, Note_off_c, 3, 50, 0
5, 44928, Note_on_c, 3, 54, 82
5, 45020, Note_off_c, 3, 54, 0
5, 45120, Note_on_c, 3, 57, 82
5, 45212, Note_off_c, 3, 57, 0
5, 45312, Note_on_c, 3, 61, 82
5, 45500, Note_off_c, 3, 61, 0
5, 45504, Note_on_c, 3, 62, 82
5, 45692, Note_off_c, 3, 62, 0
5, 45696, Note_on_c, 3, 57, 82
5, 45696, Note_on_c, 3, 54, 82
5, 45696, Note_on_c, 3, 50, 82
5, 45788, Note_off_c, 3, 57, 0
5, 45888, Note_on_c, 3, 62, 82
5, 45980, Note_off_c, 3, 62, 0
5, 46076, Note_off_c, 3, 54, 0
5, 46076, Note_off_c, 3, 50, 0
5, 46080, Note_on_c, 3, 50, 82
5, 46268, Note_off_c, 3, 50, 0
5, 46272, Note_on_c, 3, 50, 82
5, 46364, Note_off_c, 3, 50, 0
5, 46464, Note_on_c, 3, 54, 82
5, 46556, Note_off_c, 3, 54, 0
5, 46656, Note_on_c, 3, 57, 82
5, 46748, Note_off_c, 3, 57, 0
5, 46848, Note_on_c, 3, 61, 82
5, 47036, Note_off_c, 3, 61, 0
5, 47040, Note_on_c, 3, 62, 82
5, 47228, Note_off_c, 3, 62, 0
5, 47232, Note_on_c, 3, 57, 82
5, 47232, Note_on_c, 3, 54, 82
5, 47232, Note_on_c, 3, 50, 82
5, 47324, Note_off_c, 3, 57, 0
5, 47424, Note_on_c, 3, 62, 82
5, 47516, Note_off_c, 3, 62, 0
5, 47612, Note_off_c, 3, 54, 0
5, 47612, Note_off_c, 3, 50, 0
5, 47616, Note_on_c, 3, 50, 61
5, 47616, Note_on_c, 3, 38, 64
5, 47808, Note_on_c, 3, 50, 61
5, 47900, Note_off_c, 3, 50, 0
5, 47996, Note_off_c, 3, 50, 0
5, 48000, Note_on_c, 3, 54, 61
5, 48092, Note_off_c, 3, 54, 0
5, 48192, Note_on_c, 3, 57, 61
5, 48284, Note_off_c, 3, 57, 0
5, 48384, Note_on_c, 3, 61, 61
5, 48572, Note_off_c, 3, 61, 0
5, 48576, Note_on_c, 3, 62, 61
5, 48764, Note_off_c, 3, 62, 0
5, 48768, Note_on_c, 3, 50, 61
5, 48860, Note_off_c, 3, 50, 0
5, 48960, Note_on_c, 3, 62, 61
5, 49052, Note_off_c, 3, 62, 0
5, 49148, Note_off_c, 3, 38, 0
5, 49152, Note_on_c, 3, 38, 64
5, 49152, Note_on_c, 3, 36, 64
5, 49344, Note_on_c, 3, 48, 61
5, 49436, Note_off_c, 3, 48, 0
5, 49536, Note_on_c, 3, 54, 61
5, 49628, Note_off_c, 3, 54, 0
5, 49728, Note_on_c, 3, 57, 61
5, 49820, Note_off_c, 3, 57, 0
5, 49920, Note_on_c, 3, 59, 61
5, 50108, Note_off_c, 3, 59, 0
5, 50112, Note_on_c, 3, 60, 61
5, 50300, Note_off_c, 3, 60, 0
5, 50304, Note_on_c, 3, 48, 61
5, 50396, Note_off_c, 3, 48, 0
5, 50496, Note_on_c, 3, 60, 61
5, 50588, Note_off_c, 3, 60, 0
5, 50684, Note_off_c, 3, 38, 0
5, 50684, Note_off_c, 3, 36, 64
5, 50688, Note_on_c, 3, 38, 65
5, 50688, Note_on_c, 3, 35, 65
5, 50880, Note_on_c, 3, 47, 61
5, 50972, Note_off_c, 3, 47, 0
5, 51072, Note_on_c, 3, 50, 61
5, 51164, Note_off_c, 3, 50, 0
5, 51264, Note_on_c, 3, 55, 61
5, 51356, Note_off_c, 3, 55, 0
5, 51456, Note_on_c, 3, 58, 61
5, 51644, Note_off_c, 3, 58, 0
5, 51648, Note_on_c, 3, 59, 61
5, 51836, Note_off_c, 3, 59, 0
5, 51840, Note_on_c, 3, 47, 61
5, 51932, Note_off_c, 3, 47, 0
5, 52032, Note_on_c, 3, 59, 61
5, 52124, Note_off_c, 3, 59, 0
5, 52220, Note_off_c, 3, 38, 0
5, 52220, Note_off_c, 3, 35, 0
5, 52224, Note_on_c, 3, 38, 66
5, 52224, Note_on_c, 3, 33, 66
5, 52416, Note_on_c, 3, 45, 61
5, 52508, Note_off_c, 3, 45, 0
5, 52608, Note_on_c, 3, 50, 61
5, 52700, Note_off_c, 3, 50, 0
5, 52800, Note_on_c, 3, 54, 61
5, 52892, Note_off_c, 3, 54, 0
5, 52992, Note_on_c, 3, 56, 61
5, 53180, Note_off_c, 3, 56, 0
5, 53184, Note_on_c, 3, 57, 61
5, 53372, Note_off_c, 3, 57, 0
5, 53376, Note_on_c, 3, 45, 61
5, 53468, Note_off_c, 3, 45, 0
5, 53568, Note_on_c, 3, 57, 61
5, 53660, Note_off_c, 3, 57, 0
5, 53756, Note_off_c, 3, 38, 0
5, 53756, Note_off_c, 3, 33, 0
5, 53760, Note_on_c, 3, 55, 61
5, 53760, Note_on_c, 3, 43, 61
5, 54140, Note_off_c, 3, 55, 0
5, 54140, Note_off_c, 3, 43, 0
5, 54528, Note_on_c, 3, 54, 61
5, 54528, Note_on_c, 3, 42, 63
5, 54908, Note_off_c, 3, 54, 0
5, 54908, Note_off_c, 3, 42, 0
5, 55296, Note_on_c, 3, 52, 61
5, 55296, Note_on_c, 3, 40, 63
5, 55676, Note_off_c, 3, 52, 0
5, 55676, Note_off_c, 3, 40, 0
5, 56048, Note_on_c, 3, 38, 64
5, 56064, Note_on_c, 3, 50, 61
5, 56428, Note_off_c, 3, 38, 0
5, 56444, Note_off_c, 3, 50, 0
5, 56832, Note_on_c, 3, 48, 61
5, 56832, Note_on_c, 3, 36, 65
5, 57212, Note_off_c, 3, 48, 0
5, 57212, Note_off_c, 3, 36, 0
5, 57600, Note_on_c, 3, 47, 61
5, 57600, Note_on_c, 3, 35, 65
5, 57980, Note_off_c, 3, 47, 0
5, 57980, Note_off_c, 3, 35, 0
5, 58368, Note_on_c, 3, 45, 61
5, 58368, Note_on_c, 3, 33, 66
5, 58748, Note_off_c, 3, 45, 0
5, 58748, Note_off_c, 3, 33, 0
5, 59136, Note_on_c, 3, 55, 61
5, 59136, Note_on_c, 3, 43, 63
5, 59516, Note_off_c, 3, 55, 0
5, 59516, Note_off_c, 3, 43, 0
5, 59904, Note_on_c, 3, 54, 61
5, 59904, Note_on_c, 3, 42, 63
5, 60284, Note_off_c, 3, 54, 0
5, 60284, Note_off_c, 3, 42, 0
5, 60672, Note_on_c, 3, 52, 61
5, 60672, Note_on_c, 3, 40, 63
5, 61052, Note_off_c, 3, 52, 0
5, 61052, Note_off_c, 3, 40, 0
5, 61440, Note_on_c, 3, 50, 61
5, 61440, Note_on_c, 3, 38, 63
5, 61820, Note_off_c, 3, 50, 0
5, 61820, Note_off_c, 3, 38, 0
5, 62592, Note_on_c, 3, 54, 61
5, 62592, Note_on_c, 3, 42, 62
5, 62972, Note_off_c, 3, 54, 0
5, 62972, Note_off_c, 3, 42, 0
5, 62976, Note_on_c, 3, 55, 61
5, 62976, Note_on_c, 3, 43, 61
5, 63356, Note_off_c, 3, 55, 0
5, 63356, Note_off_c, 3, 43, 0
5, 63360, Note_on_c, 3, 48, 61
5, 63360, Note_on_c, 3, 36, 64
5, 63740, Note_off_c, 3, 48, 0
5, 63740, Note_off_c, 3, 36, 0
5, 63744, Note_on_c, 3, 50, 61
5, 63744, Note_on_c, 3, 38, 63
5, 64124, Note_off_c, 3, 50, 0
5, 64124, Note_off_c, 3, 38, 0
5, 64128, Note_on_c, 3, 50, 61
5, 64128, Note_on_c, 3, 38, 63
5, 64508, Note_off_c, 3, 50, 0
5, 64508, Note_off_c, 3, 38, 0
5, 64512, Note_on_c, 3, 55, 61
5, 64704, Note_on_c, 3, 67, 61
5, 64796, Note_off_c, 3, 67, 0
5, 64896, Note_on_c, 3, 62, 61
5, 64988, Note_off_c, 3, 62, 0
5, 65088, Note_on_c, 3, 67, 61
5, 65180, Note_off_c, 3, 67, 0
5, 65276, Note_off_c, 3, 55, 0
5, 65280, Note_on_c, 3, 54, 61
5, 65472, Note_on_c, 3, 63, 61
5, 65564, Note_off_c, 3, 63, 0
5, 65664, Note_on_c, 3, 57, 61
5, 65756, Note_off_c, 3, 57, 0
5, 65856, Note_on_c, 3, 63, 61
5, 65948, Note_off_c, 3, 63, 0
5, 66044, Note_off_c, 3, 54, 0
5, 66048, Note_on_c, 3, 52, 61
5, 66240, Note_on_c, 3, 64, 61
5, 66332, Note_off_c, 3, 64, 0
5, 66432, Note_on_c, 3, 55, 61
5, 66524, Note_off_c, 3, 55, 0
5, 66624, Note_on_c, 3, 64, 61
5, 66716, Note_off_c, 3, 64, 0
5, 66812, Note_off_c, 3, 52, 0
5, 66816, Note_on_c, 3, 50, 61
5, 67008, Note_on_c, 3, 56, 61
5, 67100, Note_off_c, 3, 56, 0
5, 67200, Note_on_c, 3, 52, 61
5, 67292, Note_off_c, 3, 52, 0
5, 67392, Note_on_c, 3, 56, 61
5, 67484, Note_off_c, 3, 56, 0
5, 67580, Note_off_c, 3, 50, 0
5, 67584, Note_on_c, 3, 48, 61
5, 67776, Note_on_c, 3, 57, 61
5, 67868, Note_off_c, 3, 57, 0
5, 67968, Note_on_c, 3, 52, 61
5, 68060, Note_off_c, 3, 52, 0
5, 68160, Note_on_c, 3, 57, 61
5, 68252, Note_off_c, 3, 57, 0
5, 68348, Note_off_c, 3, 48, 0
5, 68352, Note_on_c, 3, 47, 61
5, 68544, Note_on_c, 3, 56, 61
5, 68636, Note_off_c, 3, 56, 0
5, 68736, Note_on_c, 3, 50, 61
5, 68828, Note_off_c, 3, 50, 0
5, 68928, Note_on_c, 3, 56, 61
5, 69020, Note_off_c, 3, 56, 0
5, 69116, Note_off_c, 3, 47, 0
5, 69120, Note_on_c, 3, 45, 61
5, 69312, Note_on_c, 3, 57, 61
5, 69404, Note_off_c, 3, 57, 0
5, 69504, Note_on_c, 3, 48, 61
5, 69596, Note_off_c, 3, 48, 0
5, 69696, Note_on_c, 3, 57, 61
5, 69788, Note_off_c, 3, 57, 0
5, 69884, Note_off_c, 3, 45, 0
5, 69888, Note_on_c, 3, 55, 61
5, 70080, Note_on_c, 3, 64, 61
5, 70172, Note_off_c, 3, 64, 0
5, 70272, Note_on_c, 3, 61, 61
5, 70364, Note_off_c, 3, 61, 0
5, 70464, Note_on_c, 3, 64, 61
5, 70556, Note_off_c, 3, 64, 0
5, 70652, Note_off_c, 3, 55, 0
5, 70656, Note_on_c, 3, 57, 61
5, 70656, Note_on_c, 3, 54, 61
5, 70844, Note_off_c, 3, 57, 0
5, 70848, Note_on_c, 3, 62, 61
5, 71036, Note_off_c, 3, 62, 0
5, 71040, Note_on_c, 3, 57, 61
5, 71228, Note_off_c, 3, 57, 0
5, 71232, Note_on_c, 3, 62, 61
5, 71420, Note_off_c, 3, 54, 0
5, 71420, Note_off_c, 3, 62, 0
5, 71424, Note_on_c, 3, 57, 61
5, 71424, Note_on_c, 3, 52, 61
5, 71612, Note_off_c, 3, 57, 0
5, 71616, Note_on_c, 3, 61, 61
5, 71804, Note_off_c, 3, 61, 0
5, 71808, Note_on_c, 3, 57, 61
5, 71996, Note_off_c, 3, 57, 0
5, 72000, Note_on_c, 3, 61, 61
5, 72188, Note_off_c, 3, 52, 0
5, 72188, Note_off_c, 3, 61, 0
5, 72192, Note_on_c, 3, 62, 61
5, 72192, Note_on_c, 3, 50, 61
5, 72572, Note_off_c, 3, 62, 0
5, 72572, Note_off_c, 3, 50, 0
5, 73344, Note_on_c, 3, 54, 61
5, 73344, Note_on_c, 3, 42, 61
5, 73724, Note_off_c, 3, 54, 0
5, 73724, Note_off_c, 3, 42, 0
5, 73728, Note_on_c, 3, 55, 61
5, 73728, Note_on_c, 3, 43, 61
5, 74108, Note_off_c, 3, 55, 0
5, 74108, Note_off_c, 3, 43, 0
5, 74112, Note_on_c, 3, 60, 61
5, 74112, Note_on_c, 3, 57, 61
5, 74112, Note_on_c, 3, 48, 61
5, 74492, Note_off_c, 3, 60, 0
5, 74492, Note_off_c, 3, 57, 0
5, 74492, Note_off_c, 3, 48, 0
5, 74496, Note_on_c, 3, 59, 61
5, 74496, Note_on_c, 3, 55, 61
5, 74496, Note_on_c, 3, 50, 61
5, 74876, Note_off_c, 3, 59, 0
5, 74876, Note_off_c, 3, 55, 0
5, 74876, Note_off_c, 3, 50, 0
5, 74880, Note_on_c, 3, 57, 61
5, 74880, Note_on_c, 3, 54, 61
5, 74880, Note_on_c, 3, 50, 61
5, 75260, Note_off_c, 3, 57, 0
5, 75260, Note_off_c, 3, 54, 0
5, 75260, Note_off_c, 3, 50, 0
5, 75264, Note_on_c, 3, 55, 61
5, 75264, Note_on_c, 3, 51, 61
5, 75356, Note_off_c, 3, 55, 0
5, 75356, Note_off_c, 3, 51, 0
5, 75360, Note_on_c, 3, 58, 61
5, 75452, Note_off_c, 3, 58, 0
5, 75456, Note_on_c, 3, 55, 61
5, 75456, Note_on_c, 3, 51, 61
5, 75548, Note_off_c, 3, 55, 0
5, 75548, Note_off_c, 3, 51, 0
5, 75552, Note_on_c, 3, 58, 61
5, 75644, Note_off_c, 3, 58, 0
5, 75648, Note_on_c, 3, 55, 61
5, 75648, Note_on_c, 3, 51, 61
5, 75740, Note_off_c, 3, 55, 0
5, 75740, Note_off_c, 3, 51, 0
5, 75744, Note_on_c, 3, 58, 61
5, 75836, Note_off_c, 3, 58, 0
5, 75840, Note_on_c, 3, 55, 61
5, 75840, Note_on_c, 3, 51, 61
5, 75932, Note_off_c, 3, 55, 0
5, 75932, Note_off_c, 3, 51, 0
5, 75936, Note_on_c, 3, 58, 61
5, 76028, Note_off_c, 3, 58, 0
5, 76032, Note_on_c, 3, 55, 61
5, 76032, Note_on_c, 3, 51, 61
5, 76124, Note_off_c, 3, 55, 0
5, 76124, Note_off_c, 3, 51, 0
5, 76128, Note_on_c, 3, 58, 61
5, 76220, Note_off_c, 3, 58, 0
5, 76224, Note_on_c, 3, 55, 61
5, 76224, Note_on_c, 3, 51, 61
5, 76316, Note_off_c, 3, 55, 0
5, 76316, Note_off_c, 3, 51, 0
5, 76320, Note_on_c, 3, 58, 61
5, 76412, Note_off_c, 3, 58, 0
5, 76416, Note_on_c, 3, 55, 61
5, 76416, Note_on_c, 3, 51, 61
5, 76508, Note_off_c, 3, 55, 0
5, 76508, Note_off_c, 3, 51, 0
5, 76512, Note_on_c, 3, 58, 61
5, 76604, Note_off_c, 3, 58, 0
5, 76608, Note_on_c, 3, 55, 61
5, 76608, Note_on_c, 3, 51, 61
5, 76700, Note_off_c, 3, 55, 0
5, 76700, Note_off_c, 3, 51, 0
5, 76704, Note_on_c, 3, 58, 61
5, 76796, Note_off_c, 3, 58, 0
5, 76800, Note_on_c, 3, 53, 82
5, 76800, Note_on_c, 3, 50, 82
5, 76892, Note_off_c, 3, 53, 0
5, 76892, Note_off_c, 3, 50, 0
5, 76896, Note_on_c, 3, 58, 82
5, 76988, Note_off_c, 3, 58, 0
5, 76992, Note_on_c, 3, 53, 82
5, 76992, Note_on_c, 3, 50, 82
5, 77084, Note_off_c, 3, 53, 0
5, 77084, Note_off_c, 3, 50, 0
5, 77088, Note_on_c, 3, 58, 82
5, 77180, Note_off_c, 3, 58, 0
5, 77184, Note_on_c, 3, 53, 82
5, 77184, Note_on_c, 3, 50, 82
5, 77276, Note_off_c, 3, 53, 0
5, 77276, Note_off_c, 3, 50, 0
5, 77280, Note_on_c, 3, 58, 82
5, 77372, Note_off_c, 3, 58, 0
5, 77376, Note_on_c, 3, 53, 82
5, 77376, Note_on_c, 3, 50, 82
5, 77468, Note_off_c, 3, 53, 0
5, 77468, Note_off_c, 3, 50, 0
5, 77472, Note_on_c, 3, 58, 82
5, 77564, Note_off_c, 3, 58, 0
5, 77568, Note_on_c, 3, 53, 82
5, 77568, Note_on_c, 3, 50, 82
5, 77660, Note_off_c, 3, 53, 0
5, 77660, Note_off_c, 3, 50, 0
5, 77664, Note_on_c, 3, 58, 82
5, 77756, Note_off_c, 3, 58, 0
5, 77760, Note_on_c, 3, 53, 82
5, 77760, Note_on_c, 3, 50, 82
5, 77852, Note_off_c, 3, 53, 0
5, 77852, Note_off_c, 3, 50, 0
5, 77856, Note_on_c, 3, 58, 82
5, 77948, Note_off_c, 3, 58, 0
5, 77952, Note_on_c, 3, 53, 82
5, 77952, Note_on_c, 3, 50, 82
5, 78044, Note_off_c, 3, 53, 0
5, 78044, Note_off_c, 3, 50, 0
5, 78048, Note_on_c, 3, 58, 82
5, 78140, Note_off_c, 3, 58, 0
5, 78144, Note_on_c, 3, 53, 82
5, 78144, Note_on_c, 3, 50, 82
5, 78236, Note_off_c, 3, 53, 0
5, 78236, Note_off_c, 3, 50, 0
5, 78240, Note_on_c, 3, 58, 82
5, 78332, Note_off_c, 3, 58, 0
5, 78336, Note_on_c, 3, 55, 61
5, 78336, Note_on_c, 3, 51, 61
5, 78428, Note_off_c, 3, 55, 0
5, 78428, Note_off_c, 3, 51, 0
5, 78432, Note_on_c, 3, 58, 61
5, 78524, Note_off_c, 3, 58, 0
5, 78528, Note_on_c, 3, 55, 61
5, 78528, Note_on_c, 3, 51, 61
5, 78620, Note_off_c, 3, 55, 0
5, 78620, Note_off_c, 3, 51, 0
5, 78624, Note_on_c, 3, 58, 61
5, 78716, Note_off_c, 3, 58, 0
5, 78720, Note_on_c, 3, 55, 61
5, 78720, Note_on_c, 3, 51, 61
5, 78812, Note_off_c, 3, 55, 0
5, 78812, Note_off_c, 3, 51, 0
5, 78816, Note_on_c, 3, 58, 61
5, 78908, Note_off_c, 3, 58, 0
5, 78912, Note_on_c, 3, 55, 61
5, 78912, Note_on_c, 3, 51, 61
5, 79004, Note_off_c, 3, 55, 0
5, 79004, Note_off_c, 3, 51, 0
5, 79008, Note_on_c, 3, 58, 61
5, 79100, Note_off_c, 3, 58, 0
5, 79104, Note_on_c, 3, 55, 61
5, 79104, Note_on_c, 3, 51, 61
5, 79196, Note_off_c, 3, 55, 0
5, 79196, Note_off_c, 3, 51, 0
5, 79200, Note_on_c, 3, 58, 61
5, 79292, Note_off_c, 3, 58, 0
5, 79296, Note_on_c, 3, 55, 61
5, 79296, Note_on_c, 3, 51, 61
5, 79388, Note_off_c, 3, 55, 0
5, 79388, Note_off_c, 3, 51, 0
5, 79392, Note_on_c, 3, 58, 61
5, 79484, Note_off_c, 3, 58, 0
5, 79488, Note_on_c, 3, 55, 61
5, 79488, Note_on_c, 3, 51, 61
5, 79580, Note_off_c, 3, 55, 0
5, 79580, Note_off_c, 3, 51, 0
5, 79584, Note_on_c, 3, 58, 61
5, 79676, Note_off_c, 3, 58, 0
5, 79680, Note_on_c, 3, 55, 61
5, 79680, Note_on_c, 3, 51, 61
5, 79772, Note_off_c, 3, 55, 0
5, 79772, Note_off_c, 3, 51, 0
5, 79776, Note_on_c, 3, 58, 61
5, 79868, Note_off_c, 3, 58, 0
5, 79872, Note_on_c, 3, 53, 82
5, 79872, Note_on_c, 3, 50, 82
5, 79964, Note_off_c, 3, 53, 0
5, 79964, Note_off_c, 3, 50, 0
5, 79968, Note_on_c, 3, 58, 82
5, 80060, Note_off_c, 3, 58, 0
5, 80064, Note_on_c, 3, 53, 82
5, 80064, Note_on_c, 3, 50, 82
5, 80156, Note_off_c, 3, 53, 0
5, 80156, Note_off_c, 3, 50, 0
5, 80160, Note_on_c, 3, 58, 82
5, 80252, Note_off_c, 3, 58, 0
5, 80256, Note_on_c, 3, 53, 82
5, 80256, Note_on_c, 3, 50, 82
5, 80348, Note_off_c, 3, 53, 0
5, 80348, Note_off_c, 3, 50, 0
5, 80352, Note_on_c, 3, 58, 82
5, 80444, Note_off_c, 3, 58, 0
5, 80448, Note_on_c, 3, 53, 82
5, 80448, Note_on_c, 3, 50, 82
5, 80540, Note_off_c, 3, 53, 0
5, 80540, Note_off_c, 3, 50, 0
5, 80544, Note_on_c, 3, 58, 82
5, 80636, Note_off_c, 3, 58, 0
5, 80640, Note_on_c, 3, 53, 82
5, 80640, Note_on_c, 3, 50, 82
5, 80732, Note_off_c, 3, 53, 0
5, 80732, Note_off_c, 3, 50, 0
5, 80736, Note_on_c, 3, 58, 82
5, 80828, Note_off_c, 3, 58, 0
5, 80832, Note_on_c, 3, 53, 82
5, 80832, Note_on_c, 3, 50, 82
5, 80924, Note_off_c, 3, 53, 0
5, 80924, Note_off_c, 3, 50, 0
5, 80928, Note_on_c, 3, 58, 82
5, 81020, Note_off_c, 3, 58, 0
5, 81024, Note_on_c, 3, 53, 82
5, 81024, Note_on_c, 3, 50, 82
5, 81116, Note_off_c, 3, 53, 0
5, 81116, Note_off_c, 3, 50, 0
5, 81120, Note_on_c, 3, 58, 82
5, 81212, Note_off_c, 3, 58, 0
5, 81216, Note_on_c, 3, 53, 82
5, 81216, Note_on_c, 3, 50, 82
5, 81308, Note_off_c, 3, 53, 0
5, 81308, Note_off_c, 3, 50, 0
5, 81312, Note_on_c, 3, 58, 82
5, 81404, Note_off_c, 3, 58, 0
5, 81408, Note_on_c, 3, 55, 82
5, 81408, Note_on_c, 3, 51, 82
5, 81500, Note_off_c, 3, 55, 0
5, 81500, Note_off_c, 3, 51, 0
5, 81504, Note_on_c, 3, 58, 82
5, 81596, Note_off_c, 3, 58, 0
5, 81600, Note_on_c, 3, 55, 82
5, 81600, Note_on_c, 3, 51, 82
5, 81692, Note_off_c, 3, 55, 0
5, 81692, Note_off_c, 3, 51, 0
5, 81696, Note_on_c, 3, 58, 82
5, 81788, Note_off_c, 3, 58, 0
5, 81792, Note_on_c, 3, 55, 82
5, 81792, Note_on_c, 3, 51, 82
5, 81884, Note_off_c, 3, 55, 0
5, 81884, Note_off_c, 3, 51, 0
5, 81888, Note_on_c, 3, 58, 82
5, 81980, Note_off_c, 3, 58, 0
5, 81984, Note_on_c, 3, 55, 82
5, 81984, Note_on_c, 3, 51, 82
5, 82076, Note_off_c, 3, 55, 0
5, 82076, Note_off_c, 3, 51, 0
5, 82080, Note_on_c, 3, 58, 82
5, 82172, Note_off_c, 3, 58, 0
5, 82176, Note_on_c, 3, 55, 82
5, 82176, Note_on_c, 3, 51, 82
5, 82268, Note_off_c, 3, 55, 0
5, 82268, Note_off_c, 3, 51, 0
5, 82272, Note_on_c, 3, 58, 82
5, 82364, Note_off_c, 3, 58, 0
5, 82368, Note_on_c, 3, 55, 82
5, 82368, Note_on_c, 3, 51, 82
5, 82460, Note_off_c, 3, 55, 0
5, 82460, Note_off_c, 3, 51, 0
5, 82464, Note_on_c, 3, 58, 82
5, 82556, Note_off_c, 3, 58, 0
5, 82560, Note_on_c, 3, 55, 82
5, 82560, Note_on_c, 3, 51, 82
5, 82652, Note_off_c, 3, 55, 0
5, 82652, Note_off_c, 3, 51, 0
5, 82656, Note_on_c, 3, 58, 82
5, 82748, Note_off_c, 3, 58, 0
5, 82752, Note_on_c, 3, 55, 82
5, 82752, Note_on_c, 3, 51, 82
5, 82844, Note_off_c, 3, 55, 0
5, 82844, Note_off_c, 3, 51, 0
5, 82848, Note_on_c, 3, 58, 82
5, 82940, Note_off_c, 3, 58, 0
5, 82944, Note_on_c, 3, 55, 82
5, 82944, Note_on_c, 3, 52, 82
5, 83036, Note_off_c, 3, 55, 0
5, 83036, Note_off_c, 3, 52, 0
5, 83040, Note_on_c, 3, 58, 82
5, 83132, Note_off_c, 3, 58, 0
5, 83136, Note_on_c, 3, 55, 82
5, 83136, Note_on_c, 3, 52, 82
5, 83228, Note_off_c, 3, 55, 0
5, 83228, Note_off_c, 3, 52, 0
5, 83232, Note_on_c, 3, 58, 82
5, 83324, Note_off_c, 3, 58, 0
5, 83328, Note_on_c, 3, 55, 82
5, 83328, Note_on_c, 3, 52, 82
5, 83420, Note_off_c, 3, 55, 0
5, 83420, Note_off_c, 3, 52, 0
5, 83424, Note_on_c, 3, 58, 82
5, 83516, Note_off_c, 3, 58, 0
5, 83520, Note_on_c, 3, 55, 82
5, 83520, Note_on_c, 3, 52, 82
5, 83612, Note_off_c, 3, 55, 0
5, 83612, Note_off_c, 3, 52, 0
5, 83616, Note_on_c, 3, 58, 82
5, 83708, Note_off_c, 3, 58, 0
5, 83712, Note_on_c, 3, 55, 82
5, 83712, Note_on_c, 3, 52, 82
5, 83804, Note_off_c, 3, 55, 0
5, 83804, Note_off_c, 3, 52, 0
5, 83808, Note_on_c, 3, 58, 82
5, 83900, Note_off_c, 3, 58, 0
5, 83904, Note_on_c, 3, 55, 82
5, 83904, Note_on_c, 3, 52, 82
5, 83996, Note_off_c, 3, 55, 0
5, 83996, Note_off_c, 3, 52, 0
5, 84000, Note_on_c, 3, 58, 82
5, 84092, Note_off_c, 3, 58, 0
5, 84096, Note_on_c, 3, 55, 82
5, 84096, Note_on_c, 3, 52, 82
5, 84188, Note_off_c, 3, 55, 0
5, 84188, Note_off_c, 3, 52, 0
5, 84192, Note_on_c, 3, 58, 82
5, 84284, Note_off_c, 3, 58, 0
5, 84288, Note_on_c, 3, 55, 82
5, 84288, Note_on_c, 3, 52, 82
5, 84380, Note_off_c, 3, 55, 0
5, 84380, Note_off_c, 3, 52, 0
5, 84384, Note_on_c, 3, 58, 82
5, 84476, Note_off_c, 3, 58, 0
5, 84480, Note_on_c, 3, 59, 82
5, 84480, Note_on_c, 3, 55, 82
5, 84480, Note_on_c, 3, 50, 82
5, 84860, Note_off_c, 3, 59, 0
5, 84860, Note_off_c, 3, 55, 0
5, 84860, Note_off_c, 3, 50, 0
5, 85248, Note_on_c, 3, 64, 82
5, 85248, Note_on_c, 3, 59, 82
5, 85248, Note_on_c, 3, 55, 82
5, 85248, Note_on_c, 3, 52, 82
5, 85628, Note_off_c, 3, 64, 0
5, 85628, Note_off_c, 3, 59, 0
5, 85628, Note_off_c, 3, 55, 0
5, 85628, Note_off_c, 3, 52, 0
5, 86016, Note_on_c, 3, 57, 82
5, 86016, Note_on_c, 3, 52, 82
5, 86016, Note_on_c, 3, 48, 82
5, 86016, Note_on_c, 3, 45, 82
5, 86396, Note_off_c, 3, 57, 0
5, 86396, Note_off_c, 3, 52, 0
5, 86396, Note_off_c, 3, 48, 0
5, 86396, Note_off_c, 3, 45, 0
5, 86784, Note_on_c, 3, 62, 82
5, 86784, Note_on_c, 3, 57, 82
5, 86784, Note_on_c, 3, 54, 82
5, 86784, Note_on_c, 3, 50, 82
5, 87164, Note_off_c, 3, 62, 0
5, 87164, Note_off_c, 3, 57, 0
5, 87164, Note_off_c, 3, 54, 0
5, 87164, Note_off_c, 3, 50, 0
5, 87552, Note_on_c, 3, 43, 84
5, 87552, Note_on_c, 3, 31, 85
5, 87740, Note_off_c, 3, 43, 0
5, 87740, Note_off_c, 3, 31, 0
5, 87744, Note_on_c, 3, 55, 61
5, 87744, Note_on_c, 3, 43, 61
5, 87932, Note_off_c, 3, 55, 0
5, 87932, Note_off_c, 3, 43, 0
5, 87936, Note_on_c, 3, 55, 61
5, 87936, Note_on_c, 3, 43, 61
5, 88124, Note_off_c, 3, 55, 0
5, 88124, Note_off_c, 3, 43, 0
5, 88128, Note_on_c, 3, 55, 61
5, 88128, Note_on_c, 3, 43, 61
5, 88316, Note_off_c, 3, 55, 0
5, 88316, Note_off_c, 3, 43, 0
5, 88320, Note_on_c, 3, 55, 61
5, 88320, Note_on_c, 3, 43, 61
5, 88508, Note_off_c, 3, 55, 0
5, 88508, Note_off_c, 3, 43, 0
5, 88512, Note_on_c, 3, 55, 61
5, 88512, Note_on_c, 3, 43, 61
5, 88700, Note_off_c, 3, 55, 0
5, 88700, Note_off_c, 3, 43, 0
5, 88704, Note_on_c, 3, 55, 61
5, 88704, Note_on_c, 3, 43, 61
5, 88892, Note_off_c, 3, 55, 0
5, 88892, Note_off_c, 3, 43, 0
5, 88896, Note_on_c, 3, 55, 61
5, 88896, Note_on_c, 3, 43, 61
5, 89084, Note_off_c, 3, 55, 0
5, 89084, Note_off_c, 3, 43, 0
5, 89088, Note_on_c, 3, 55, 61
5, 89088, Note_on_c, 3, 43, 61
5, 89276, Note_off_c, 3, 55, 0
5, 89276, Note_off_c, 3, 43, 0
5, 89280, Note_on_c, 3, 55, 61
5, 89280, Note_on_c, 3, 43, 61
5, 89468, Note_off_c, 3, 55, 0
5, 89468, Note_off_c, 3, 43, 0
5, 89472, Note_on_c, 3, 43, 61
5, 89472, Note_on_c, 3, 55, 61
5, 89660, Note_off_c, 3, 43, 0
5, 89660, Note_off_c, 3, 55, 0
5, 89664, Note_on_c, 3, 55, 61
5, 89664, Note_on_c, 3, 43, 61
5, 89852, Note_off_c, 3, 55, 0
5, 89852, Note_off_c, 3, 43, 0
5, 89856, Note_on_c, 3, 55, 61
5, 89856, Note_on_c, 3, 43, 61
5, 90044, Note_off_c, 3, 55, 0
5, 90044, Note_off_c, 3, 43, 0
5, 90048, Note_on_c, 3, 55, 61
5, 90048, Note_on_c, 3, 43, 61
5, 90236, Note_off_c, 3, 55, 0
5, 90236, Note_off_c, 3, 43, 0
5, 90240, Note_on_c, 3, 55, 61
5, 90240, Note_on_c, 3, 43, 61
5, 90428, Note_off_c, 3, 55, 0
5, 90428, Note_off_c, 3, 43, 0
5, 90432, Note_on_c, 3, 55, 61
5, 90432, Note_on_c, 3, 43, 61
5, 90620, Note_off_c, 3, 55, 0
5, 90620, Note_off_c, 3, 43, 0
5, 90624, Note_on_c, 3, 55, 61
5, 90624, Note_on_c, 3, 43, 61
5, 90812, Note_off_c, 3, 55, 0
5, 90812, Note_off_c, 3, 43, 0
5, 90816, Note_on_c, 3, 55, 61
5, 90816, Note_on_c, 3, 43, 61
5, 91004, Note_off_c, 3, 55, 0
5, 91004, Note_off_c, 3, 43, 0
5, 91008, Note_on_c, 3, 55, 61
5, 91008, Note_on_c, 3, 43, 61
5, 91196, Note_off_c, 3, 55, 0
5, 91196, Note_off_c, 3, 43, 0
5, 91200, Note_on_c, 3, 55, 61
5, 91200, Note_on_c, 3, 43, 61
5, 91388, Note_off_c, 3, 55, 0
5, 91388, Note_off_c, 3, 43, 0
5, 91392, Note_on_c, 3, 55, 61
5, 91392, Note_on_c, 3, 43, 61
5, 91580, Note_off_c, 3, 55, 0
5, 91580, Note_off_c, 3, 43, 0
5, 91584, Note_on_c, 3, 55, 61
5, 91584, Note_on_c, 3, 43, 61
5, 91772, Note_off_c, 3, 55, 0
5, 91772, Note_off_c, 3, 43, 0
5, 91776, Note_on_c, 3, 55, 61
5, 91776, Note_on_c, 3, 43, 61
5, 91964, Note_off_c, 3, 55, 0
5, 91964, Note_off_c, 3, 43, 0
5, 91968, Note_on_c, 3, 55, 61
5, 91968, Note_on_c, 3, 43, 61
5, 92156, Note_off_c, 3, 55, 0
5, 92156, Note_off_c, 3, 43, 0
5, 92160, Note_on_c, 3, 55, 61
5, 92160, Note_on_c, 3, 48, 61
5, 92540, Note_off_c, 3, 55, 0
5, 92540, Note_off_c, 3, 48, 0
5, 92544, Note_on_c, 3, 48, 61
5, 92736, Note_on_c, 3, 57, 61
5, 92736, Note_on_c, 3, 52, 61
5, 92924, Note_off_c, 3, 48, 0
5, 92924, Note_off_c, 3, 57, 0
5, 92924, Note_off_c, 3, 52, 0
5, 92928, Note_on_c, 3, 59, 61
5, 92928, Note_on_c, 3, 50, 61
5, 93308, Note_off_c, 3, 59, 0
5, 93308, Note_off_c, 3, 50, 0
5, 93312, Note_on_c, 3, 57, 61
5, 93312, Note_on_c, 3, 50, 61
5, 93692, Note_off_c, 3, 57, 0
5, 93692, Note_off_c, 3, 50, 0
5, 93696, Note_on_c, 3, 55, 61
5, 93884, Note_off_c, 3, 55, 0
5, 93888, Note_on_c, 3, 43, 61
5, 94076, Note_off_c, 3, 43, 0
5, 94080, Note_on_c, 3, 43, 61
5, 94268, Note_off_c, 3, 43, 0
5, 94272, Note_on_c, 3, 43, 61
5, 94460, Note_off_c, 3, 43, 0
5, 94464, Note_on_c, 3, 43, 61
5, 94464, Note_on_c, 3, 31, 64
5, 94652, Note_off_c, 3, 43, 0
5, 94652, Note_off_c, 3, 31, 0
5, 94656, Note_on_c, 3, 43, 61
5, 94656, Note_on_c, 3, 31, 64
5, 94844, Note_off_c, 3, 43, 0
5, 94844, Note_off_c, 3, 31, 0
5, 94848, Note_on_c, 3, 43, 61
5, 94848, Note_on_c, 3, 31, 64
5, 95036, Note_off_c, 3, 43, 0
5, 95036, Note_off_c, 3, 31, 0
5, 95040, Note_on_c, 3, 43, 61
5, 95040, Note_on_c, 3, 31, 64
5, 95228, Note_off_c, 3, 43, 0
5, 95228, Note_off_c, 3, 31, 0
5, 95232, Note_on_c, 3, 43, 61
5, 95232, Note_on_c, 3, 31, 64
5, 95420, Note_off_c, 3, 43, 0
5, 95420, Note_off_c, 3, 31, 0
5, 95424, Note_on_c, 3, 43, 61
5, 95424, Note_on_c, 3, 31, 64
5, 95612, Note_off_c, 3, 43, 0
5, 95612, Note_off_c, 3, 31, 0
5, 95616, Note_on_c, 3, 43, 61
5, 95616, Note_on_c, 3, 31, 64
5, 95804, Note_off_c, 3, 43, 0
5, 95804, Note_off_c, 3, 31, 0
5, 95808, Note_on_c, 3, 43, 61
5, 95808, Note_on_c, 3, 31, 64
5, 95996, Note_off_c, 3, 43, 0
5, 95996, Note_off_c, 3, 31, 0
5, 96000, Note_on_c, 3, 43, 61
5, 96000, Note_on_c, 3, 31, 64
5, 96188, Note_off_c, 3, 43, 0
5, 96188, Note_off_c, 3, 31, 0
5, 96192, Note_on_c, 3, 43, 61
5, 96192, Note_on_c, 3, 31, 64
5, 96380, Note_off_c, 3, 43, 0
5, 96380, Note_off_c, 3, 31, 0
5, 96384, Note_on_c, 3, 43, 61
5, 96384, Note_on_c, 3, 31, 64
5, 96572, Note_off_c, 3, 43, 0
5, 96572, Note_off_c, 3, 31, 0
5, 96576, Note_on_c, 3, 43, 61
5, 96576, Note_on_c, 3, 31, 64
5, 96764, Note_off_c, 3, 43, 0
5, 96764, Note_off_c, 3, 31, 0
5, 96768, Note_on_c, 3, 43, 61
5, 96768, Note_on_c, 3, 31, 64
5, 96956, Note_off_c, 3, 43, 0
5, 96956, Note_off_c, 3, 31, 0
5, 96960, Note_on_c, 3, 43, 61
5, 96960, Note_on_c, 3, 31, 64
5, 97148, Note_off_c, 3, 43, 0
5, 97148, Note_off_c, 3, 31, 0
5, 97152, Note_on_c, 3, 43, 61
5, 97152, Note_on_c, 3, 31, 64
5, 97340, Note_off_c, 3, 43, 0
5, 97340, Note_off_c, 3, 31, 0
5, 97344, Note_on_c, 3, 43, 61
5, 97344, Note_on_c, 3, 31, 64
5, 97532, Note_off_c, 3, 43, 0
5, 97532, Note_off_c, 3, 31, 0
5, 97536, Note_on_c, 3, 43, 61
5, 97536, Note_on_c, 3, 31, 64
5, 97724, Note_off_c, 3, 43, 0
5, 97724, Note_off_c, 3, 31, 0
5, 97728, Note_on_c, 3, 43, 61
5, 97728, Note_on_c, 3, 31, 64
5, 97916, Note_off_c, 3, 43, 0
5, 97916, Note_off_c, 3, 31, 0
5, 97920, Note_on_c, 3, 43, 61
5, 97920, Note_on_c, 3, 31, 64
5, 98108, Note_off_c, 3, 43, 0
5, 98108, Note_off_c, 3, 31, 0
5, 98112, Note_on_c, 3, 43, 61
5, 98112, Note_on_c, 3, 31, 64
5, 98300, Note_off_c, 3, 43, 0
5, 98300, Note_off_c, 3, 31, 0
5, 98304, Note_on_c, 3, 48, 61
5, 98304, Note_on_c, 3, 36, 61
5, 98684, Note_off_c, 3, 48, 0
5, 98684, Note_off_c, 3, 36, 0
5, 98688, Note_on_c, 3, 48, 61
5, 98880, Note_on_c, 3, 57, 61
5, 98880, Note_on_c, 3, 52, 61
5, 99068, Note_off_c, 3, 48, 0
5, 99068, Note_off_c, 3, 57, 0
5, 99068, Note_off_c, 3, 52, 0
5, 99072, Note_on_c, 3, 59, 61
5, 99072, Note_on_c, 3, 55, 61
5, 99072, Note_on_c, 3, 50, 61
5, 99452, Note_off_c, 3, 59, 0
5, 99452, Note_off_c, 3, 55, 0
5, 99452, Note_off_c, 3, 50, 0
5, 99456, Note_on_c, 3, 57, 61
5, 99456, Note_on_c, 3, 54, 61
5, 99456, Note_on_c, 3, 48, 61
5, 99836, Note_off_c, 3, 57, 0
5, 99836, Note_off_c, 3, 54, 0
5, 99836, Note_off_c, 3, 48, 0
5, 99840, Note_on_c, 3, 47, 61
5, 100032, Note_on_c, 3, 50, 61
5, 100124, Note_off_c, 3, 50, 0
5, 100224, Note_on_c, 3, 55, 61
5, 100412, Note_off_c, 3, 55, 0
5, 100416, Note_on_c, 3, 59, 61
5, 100604, Note_off_c, 3, 47, 0
5, 100604, Note_off_c, 3, 59, 0
5, 100608, Note_on_c, 3, 52, 61
5, 100800, Note_on_c, 3, 55, 61
5, 100892, Note_off_c, 3, 55, 0
5, 100992, Note_on_c, 3, 61, 61
5, 101180, Note_off_c, 3, 61, 0
5, 101184, Note_on_c, 3, 64, 61
5, 101372, Note_off_c, 3, 52, 0
5, 101372, Note_off_c, 3, 64, 0
5, 101376, Note_on_c, 3, 50, 61
5, 101568, Note_on_c, 3, 55, 61
5, 101660, Note_off_c, 3, 55, 0
5, 101760, Note_on_c, 3, 59, 61
5, 101948, Note_off_c, 3, 59, 0
5, 101952, Note_on_c, 3, 55, 61
5, 102140, Note_off_c, 3, 50, 0
5, 102140, Note_off_c, 3, 55, 0
5, 102144, Note_on_c, 3, 48, 61
5, 102336, Note_on_c, 3, 54, 61
5, 102428, Note_off_c, 3, 54, 0
5, 102528, Note_on_c, 3, 57, 61
5, 102716, Note_off_c, 3, 57, 0
5, 102720, Note_on_c, 3, 54, 61
5, 102908, Note_off_c, 3, 48, 0
5, 102908, Note_off_c, 3, 54, 0
5, 102912, Note_on_c, 3, 47, 61
5, 102912, Note_on_c, 3, 47, 61
5, 103004, Note_off_c, 3, 47, 0
5, 103104, Note_on_c, 3, 50, 61
5, 103196, Note_off_c, 3, 50, 0
5, 103292, Note_off_c, 3, 47, 0
5, 103296, Note_on_c, 3, 55, 61
5, 103388, Note_off_c, 3, 55, 0
5, 103488, Note_on_c, 3, 59, 61
5, 103580, Note_off_c, 3, 59, 0
5, 103680, Note_on_c, 3, 52, 61
5, 103680, Note_on_c, 3, 52, 61
5, 103772, Note_off_c, 3, 52, 0
5, 103872, Note_on_c, 3, 55, 61
5, 103964, Note_off_c, 3, 55, 0
5, 104060, Note_off_c, 3, 52, 0
5, 104064, Note_on_c, 3, 61, 61
5, 104156, Note_off_c, 3, 61, 0
5, 104256, Note_on_c, 3, 64, 61
5, 104348, Note_off_c, 3, 64, 0
5, 104448, Note_on_c, 3, 50, 61
5, 104448, Note_on_c, 3, 50, 61
5, 104540, Note_off_c, 3, 50, 0
5, 104640, Note_on_c, 3, 55, 61
5, 104732, Note_off_c, 3, 55, 0
5, 104828, Note_off_c, 3, 50, 0
5, 104832, Note_on_c, 3, 59, 61
5, 104924, Note_off_c, 3, 59, 0
5, 105024, Note_on_c, 3, 62, 61
5, 105116, Note_off_c, 3, 62, 0
5, 105216, Note_on_c, 3, 50, 61
5, 105216, Note_on_c, 3, 50, 61
5, 105308, Note_off_c, 3, 50, 0
5, 105408, Note_on_c, 3, 54, 61
5, 105500, Note_off_c, 3, 54, 0
5, 105596, Note_off_c, 3, 50, 0
5, 105600, Note_on_c, 3, 57, 61
5, 105692, Note_off_c, 3, 57, 0
5, 105792, Note_on_c, 3, 62, 61
5, 105884, Note_off_c, 3, 62, 0
5, 105984, Note_on_c, 3, 59, 61
5, 105984, Note_on_c, 3, 55, 61
5, 106364, Note_off_c, 3, 59, 0
5, 106364, Note_off_c, 3, 55, 0
5, 106656, Note_on_c, 3, 50, 82
5, 106744, Note_off_c, 3, 50, 0
5, 106752, Note_on_c, 3, 62, 82
5, 106752, Note_on_c, 3, 50, 82
5, 106940, Note_off_c, 3, 62, 0
5, 106940, Note_off_c, 3, 50, 0
5, 107136, Note_on_c, 3, 63, 82
5, 107136, Note_on_c, 3, 51, 82
5, 107324, Note_off_c, 3, 63, 0
5, 107324, Note_off_c, 3, 51, 0
5, 107520, Note_on_c, 3, 64, 82
5, 107520, Note_on_c, 3, 52, 82
5, 107708, Note_off_c, 3, 64, 0
5, 107708, Note_off_c, 3, 52, 0
5, 107904, Note_on_c, 3, 60, 82
5, 107904, Note_on_c, 3, 48, 82
5, 108092, Note_off_c, 3, 60, 0
5, 108092, Note_off_c, 3, 48, 0
5, 108672, Note_on_c, 3, 62, 82
5, 108672, Note_on_c, 3, 50, 82
5, 108860, Note_off_c, 3, 62, 0
5, 108860, Note_off_c, 3, 50, 0
5, 109056, Note_on_c, 3, 55, 82
5, 109056, Note_on_c, 3, 43, 82
5, 109436, Note_off_c, 3, 55, 0
5, 109436, Note_off_c, 3, 43, 0
5, 109728, Note_on_c, 3, 50, 82
5, 109820, Note_off_c, 3, 50, 0
5, 109824, Note_on_c, 3, 62, 82
5, 109824, Note_on_c, 3, 50, 82
5, 110012, Note_off_c, 3, 62, 0
5, 110012, Note_off_c, 3, 50, 0
5, 110208, Note_on_c, 3, 63, 82
5, 110208, Note_on_c, 3, 51, 82
5, 110396, Note_off_c, 3, 63, 0
5, 110396, Note_off_c, 3, 51, 0
5, 110592, Note_on_c, 3, 64, 82
5, 110592, Note_on_c, 3, 52, 82
5, 110780, Note_off_c, 3, 64, 0
5, 110780, Note_off_c, 3, 52, 0
5, 110976, Note_on_c, 3, 60, 82
5, 110976, Note_on_c, 3, 48, 82
5, 111164, Note_off_c, 3, 60, 0
5, 111164, Note_off_c, 3, 48, 0
5, 111744, Note_on_c, 3, 62, 82
5, 111744, Note_on_c, 3, 50, 82
5, 111932, Note_off_c, 3, 62, 0
5, 111932, Note_off_c, 3, 50, 0
5, 112128, Note_on_c, 3, 55, 82
5, 112128, Note_on_c, 3, 43, 82
5, 112508, Note_off_c, 3, 55, 0
5, 112508, Note_off_c, 3, 43, 0
5, 112512, Note_on_c, 3, 55, 82
5, 112512, Note_on_c, 3, 43, 83
5, 112892, Note_off_c, 3, 55, 0
5, 112892, Note_off_c, 3, 43, 0
5, 112896, Note_on_c, 3, 50, 82
5, 112896, Note_on_c, 3, 38, 83
5, 113276, Note_off_c, 3, 50, 0
5, 113276, Note_off_c, 3, 38, 0
5, 113280, Note_on_c, 3, 47, 82
5, 113280, Note_on_c, 3, 35, 85
5, 113660, Note_off_c, 3, 47, 0
5, 113660, Note_off_c, 3, 35, 0
5, 113664, Note_on_c, 3, 43, 82
5, 113664, Note_on_c, 3, 31, 85
5, 114428, Note_off_c, 3, 43, 0
5, 114428, Note_off_c, 3, 31, 0
5, 115200, Key_signature, 0, "major"
5, 120192, Note_on_c, 3, 67, 61
5, 120192, Note_on_c, 3, 55, 61
5, 120572, Note_off_c, 3, 67, 0
5, 120572, Note_off_c, 3, 55, 0
5, 120576, Note_on_c, 3, 64, 61
5, 120576, Note_on_c, 3, 52, 61
5, 120956, Note_off_c, 3, 64, 0
5, 120956, Note_off_c, 3, 52, 0
5, 120960, Note_on_c, 3, 60, 61
5, 120960, Note_on_c, 3, 48, 61
5, 121340, Note_off_c, 3, 60, 0
5, 121340, Note_off_c, 3, 48, 0
5, 121344, Note_on_c, 3, 55, 61
5, 121344, Note_on_c, 3, 43, 61
5, 121724, Note_off_c, 3, 55, 0
5, 121724, Note_off_c, 3, 43, 0
5, 125952, Key_signature, 1, "major"
5, 126336, Note_on_c, 3, 67, 61
5, 126336, Note_on_c, 3, 55, 61
5, 126716, Note_off_c, 3, 67, 0
5, 126716, Note_off_c, 3, 55, 0
5, 126720, Note_on_c, 3, 62, 61
5, 126720, Note_on_c, 3, 50, 61
5, 127100, Note_off_c, 3, 62, 0
5, 127100, Note_off_c, 3, 50, 0
5, 127104, Note_on_c, 3, 59, 61
5, 127104, Note_on_c, 3, 47, 61
5, 127484, Note_off_c, 3, 59, 0
5, 127484, Note_off_c, 3, 47, 0
5, 127488, Note_on_c, 3, 55, 61
5, 127488, Note_on_c, 3, 43, 61
5, 127868, Note_off_c, 3, 55, 0
5, 127868, Note_off_c, 3, 43, 0
5, 129024, Note_on_c, 3, 60, 78
5, 129024, Note_on_c, 3, 57, 78
5, 129024, Note_on_c, 3, 50, 78
5, 129788, Note_off_c, 3, 60, 0
5, 129788, Note_off_c, 3, 57, 0
5, 129788, Note_off_c, 3, 50, 0
5, 129792, Note_on_c, 3, 60, 61
5, 129792, Note_on_c, 3, 50, 61
5, 129792, Note_on_c, 3, 57, 61
5, 130172, Note_off_c, 3, 60, 0
5, 130172, Note_off_c, 3, 50, 0
5, 130172, Note_off_c, 3, 57, 0
5, 130560, Note_on_c, 3, 62, 61
5, 130748, Note_off_c, 3, 62, 0
5, 132096, Note_on_c, 3, 60, 78
5, 132096, Note_on_c, 3, 57, 78
5, 132096, Note_on_c, 3, 50, 78
5, 132860, Note_off_c, 3, 60, 0
5, 132860, Note_off_c, 3, 57, 0
5, 132860, Note_off_c, 3, 50, 0
5, 132864, Note_on_c, 3, 60, 61
5, 132864, Note_on_c, 3, 57, 61
5, 132864, Note_on_c, 3, 50, 61
5, 133244, Note_off_c, 3, 60, 0
5, 133244, Note_off_c, 3, 57, 0
5, 133244, Note_off_c, 3, 50, 0
5, 133632, Note_on_c, 3, 54, 61
5, 133632, Note_on_c, 3, 42, 61
5, 135164, Note_off_c, 3, 54, 0
5, 135164, Note_off_c, 3, 42, 0
5, 135168, Note_on_c, 3, 55, 61
5, 135168, Note_on_c, 3, 43, 61
5, 136700, Note_off_c, 3, 55, 0
5, 136700, Note_off_c, 3, 43, 0
5, 136704, Note_on_c, 3, 48, 61
5, 136704, Note_on_c, 3, 36, 61
5, 137468, Note_off_c, 3, 48, 0
5, 137468, Note_off_c, 3, 36, 0
5, 137472, Note_on_c, 3, 50, 61
5, 137472, Note_on_c, 3, 38, 61
5, 138236, Note_off_c, 3, 50, 0
5, 138236, Note_off_c, 3, 38, 0
5, 138240, Note_on_c, 3, 43, 61
5, 138240, Note_on_c, 3, 31, 61
5, 138620, Note_off_c, 3, 43, 0
5, 138620, Note_off_c, 3, 31, 0
5, 140160, Note_on_c, 3, 54, 61
5, 140160, Note_on_c, 3, 42, 61
5, 140540, Note_off_c, 3, 54, 0
5, 140540, Note_off_c, 3, 42, 0
5, 140544, Note_on_c, 3, 54, 61
5, 140544, Note_on_c, 3, 42, 61
5, 140924, Note_off_c, 3, 54, 0
5, 140924, Note_off_c, 3, 42, 0
5, 140928, Note_on_c, 3, 54, 61
5, 140928, Note_on_c, 3, 42, 61
5, 141308, Note_off_c, 3, 54, 0
5, 141308, Note_off_c, 3, 42, 0
5, 141696, Note_on_c, 3, 55, 61
5, 141696, Note_on_c, 3, 43, 61
5, 142076, Note_off_c, 3, 55, 0
5, 142076, Note_off_c, 3, 43, 0
5, 142080, Note_on_c, 3, 55, 61
5, 142080, Note_on_c, 3, 43, 61
5, 142460, Note_off_c, 3, 55, 0
5, 142460, Note_off_c, 3, 43, 0
5, 142464, Note_on_c, 3, 55, 61
5, 142464, Note_on_c, 3, 43, 61
5, 142844, Note_off_c, 3, 55, 0
5, 142844, Note_off_c, 3, 43, 0
5, 142848, Note_on_c, 3, 48, 61
5, 142848, Note_on_c, 3, 36, 61
5, 143612, Note_off_c, 3, 48, 0
5, 143612, Note_off_c, 3, 36, 0
5, 143616, Note_on_c, 3, 50, 61
5, 143616, Note_on_c, 3, 38, 61
5, 144380, Note_off_c, 3, 50, 0
5, 144380, Note_off_c, 3, 38, 0
5, 144384, Note_on_c, 3, 43, 61
5, 144384, Note_on_c, 3, 31, 61
5, 144572, Note_off_c, 3, 43, 0
5, 144572, Note_off_c, 3, 31, 0
5, 144576, Note_on_c, 3, 55, 61
5, 144576, Note_on_c, 3, 59, 61
5, 144668, Note_off_c, 3, 55, 0
5, 144668, Note_off_c, 3, 59, 0
5, 144672, Note_on_c, 3, 62, 61
5, 144764, Note_off_c, 3, 62, 0
5, 144768, Note_on_c, 3, 59, 61
5, 144768, Note_on_c, 3, 55, 61
5, 144860, Note_off_c, 3, 59, 0
5, 144860, Note_off_c, 3, 55, 0
5, 144864, Note_on_c, 3, 62, 61
5, 144956, Note_off_c, 3, 62, 0
5, 144960, Note_on_c, 3, 59, 61
5, 144960, Note_on_c, 3, 55, 61
5, 145052, Note_off_c, 3, 59, 0
5, 145052, Note_off_c, 3, 55, 0
5, 145056, Note_on_c, 3, 62, 61
5, 145148, Note_off_c, 3, 62, 0
5, 145152, Note_on_c, 3, 59, 61
5, 145152, Note_on_c, 3, 55, 61
5, 145244, Note_off_c, 3, 59, 0
5, 145244, Note_off_c, 3, 55, 0
5, 145248, Note_on_c, 3, 62, 61
5, 145340, Note_off_c, 3, 62, 0
5, 145344, Note_on_c, 3, 59, 61
5, 145344, Note_on_c, 3, 55, 61
5, 145436, Note_off_c, 3, 59, 0
5, 145436, Note_off_c, 3, 55, 0
5, 145440, Note_on_c, 3, 62, 61
5, 145532, Note_off_c, 3, 62, 0
5, 145536, Note_on_c, 3, 59, 61
5, 145536, Note_on_c, 3, 55, 61
5, 145628, Note_off_c, 3, 59, 0
5, 145628, Note_off_c, 3, 55, 0
5, 145632, Note_on_c, 3, 62, 61
5, 145724, Note_off_c, 3, 62, 0
5, 145728, Note_on_c, 3, 59, 61
5, 145728, Note_on_c, 3, 55, 61
5, 145820, Note_off_c, 3, 59, 0
5, 145820, Note_off_c, 3, 55, 0
5, 145824, Note_on_c, 3, 62, 61
5, 145916, Note_off_c, 3, 62, 0
5, 145920, Note_on_c, 3, 60, 61
5, 145920, Note_on_c, 3, 55, 61
5, 146012, Note_off_c, 3, 60, 0
5, 146012, Note_off_c, 3, 55, 0
5, 146016, Note_on_c, 3, 64, 61
5, 146108, Note_off_c, 3, 64, 0
5, 146112, Note_on_c, 3, 60, 61
5, 146112, Note_on_c, 3, 55, 61
5, 146204, Note_off_c, 3, 60, 0
5, 146204, Note_off_c, 3, 55, 0
5, 146208, Note_on_c, 3, 64, 61
5, 146300, Note_off_c, 3, 64, 0
5, 146304, Note_on_c, 3, 60, 61
5, 146304, Note_on_c, 3, 55, 61
5, 146396, Note_off_c, 3, 60, 0
5, 146396, Note_off_c, 3, 55, 0
5, 146400, Note_on_c, 3, 64, 61
5, 146492, Note_off_c, 3, 64, 0
5, 146496, Note_on_c, 3, 60, 61
5, 146496, Note_on_c, 3, 55, 61
5, 146588, Note_off_c, 3, 60, 0
5, 146588, Note_off_c, 3, 55, 0
5, 146592, Note_on_c, 3, 64, 61
5, 146684, Note_off_c, 3, 64, 0
5, 146688, Note_on_c, 3, 55, 61
5, 146688, Note_on_c, 3, 62, 61
5, 146780, Note_off_c, 3, 55, 0
5, 146780, Note_off_c, 3, 62, 0
5, 146784, Note_on_c, 3, 65, 61
5, 146876, Note_off_c, 3, 65, 0
5, 146880, Note_on_c, 3, 55, 61
5, 146880, Note_on_c, 3, 62, 61
5, 146972, Note_off_c, 3, 55, 0
5, 146972, Note_off_c, 3, 62, 0
5, 146976, Note_on_c, 3, 65, 61
5, 147068, Note_off_c, 3, 65, 0
5, 147072, Note_on_c, 3, 62, 61
5, 147072, Note_on_c, 3, 55, 61
5, 147164, Note_off_c, 3, 62, 0
5, 147164, Note_off_c, 3, 55, 0
5, 147168, Note_on_c, 3, 65, 61
5, 147260, Note_off_c, 3, 65, 0
5, 147264, Note_on_c, 3, 62, 61
5, 147264, Note_on_c, 3, 55, 61
5, 147356, Note_off_c, 3, 62, 0
5, 147356, Note_off_c, 3, 55, 0
5, 147360, Note_on_c, 3, 65, 61
5, 147452, Note_off_c, 3, 65, 0
5, 147456, Note_on_c, 3, 60, 61
5, 147456, Note_on_c, 3, 55, 61
5, 147548, Note_off_c, 3, 60, 0
5, 147548, Note_off_c, 3, 55, 0
5, 147552, Note_on_c, 3, 64, 61
5, 147644, Note_off_c, 3, 64, 0
5, 147648, Note_on_c, 3, 60, 61
5, 147648, Note_on_c, 3, 55, 61
5, 147740, Note_off_c, 3, 60, 0
5, 147740, Note_off_c, 3, 55, 0
5, 147744, Note_on_c, 3, 64, 61
5, 147836, Note_off_c, 3, 64, 0
5, 147840, Note_on_c, 3, 55, 61
5, 147932, Note_off_c, 3, 55, 0
5, 147936, Note_on_c, 3, 60, 61
5, 148028, Note_off_c, 3, 60, 0
5, 148032, Note_on_c, 3, 55, 61
5, 148124, Note_off_c, 3, 55, 0
5, 148128, Note_on_c, 3, 60, 61
5, 148220, Note_off_c, 3, 60, 0
5, 148224, Note_on_c, 3, 57, 61
5, 148224, Note_on_c, 3, 55, 61
5, 148316, Note_off_c, 3, 57, 0
5, 148316, Note_off_c, 3, 55, 0
5, 148320, Note_on_c, 3, 60, 61
5, 148412, Note_off_c, 3, 60, 0
5, 148416, Note_on_c, 3, 57, 61
5, 148416, Note_on_c, 3, 55, 61
5, 148508, Note_off_c, 3, 57, 0
5, 148508, Note_off_c, 3, 55, 0
5, 148512, Note_on_c, 3, 60, 61
5, 148604, Note_off_c, 3, 60, 0
5, 148608, Note_on_c, 3, 57, 61
5, 148608, Note_on_c, 3, 55, 61
5, 148700, Note_off_c, 3, 57, 0
5, 148700, Note_off_c, 3, 55, 0
5, 148704, Note_on_c, 3, 60, 61
5, 148796, Note_off_c, 3, 60, 0
5, 148800, Note_on_c, 3, 57, 61
5, 148816, Note_on_c, 3, 55, 61
5, 148892, Note_off_c, 3, 57, 0
5, 148896, Note_on_c, 3, 60, 61
5, 148908, Note_off_c, 3, 55, 0
5, 148988, Note_off_c, 3, 60, 0
5, 148992, Note_on_c, 3, 43, 61
5, 150528, Note_on_c, 3, 43, 61
5, 151292, Note_off_c, 3, 43, 0
5, 152064, Note_on_c, 3, 43, 61
5, 152828, Note_off_c, 3, 43, 0
5, 153596, Note_off_c, 3, 43, 0
5, 153600, Note_on_c, 3, 43, 61
5, 153980, Note_off_c, 3, 43, 0
5, 153984, Note_on_c, 3, 43, 61
5, 154076, Note_off_c, 3, 43, 0
5, 154368, Note_on_c, 3, 55, 82
5, 155132, Note_off_c, 3, 55, 0
5, 155136, Note_on_c, 3, 43, 61
5, 155516, Note_off_c, 3, 43, 0
5, 155520, Note_on_c, 3, 42, 61
5, 155612, Note_off_c, 3, 42, 0
5, 155904, Note_on_c, 3, 54, 82
5, 156668, Note_off_c, 3, 54, 0
5, 156672, Note_on_c, 3, 40, 61
5, 157052, Note_off_c, 3, 40, 0
5, 157056, Note_on_c, 3, 40, 61
5, 157148, Note_off_c, 3, 40, 0
5, 157440, Note_on_c, 3, 52, 82
5, 158204, Note_off_c, 3, 52, 0
5, 158208, Note_on_c, 3, 45, 61
5, 158588, Note_off_c, 3, 45, 0
5, 158592, Note_on_c, 3, 45, 61
5, 158684, Note_off_c, 3, 45, 0
5, 158976, Note_on_c, 3, 57, 82
5, 159740, Note_off_c, 3, 57, 0
5, 159744, Note_on_c, 3, 38, 61
5, 160124, Note_off_c, 3, 38, 0
5, 160128, Note_on_c, 3, 38, 61
5, 160220, Note_off_c, 3, 38, 0
5, 160512, Note_on_c, 3, 50, 82
5, 161276, Note_off_c, 3, 50, 0
5, 161280, Note_on_c, 3, 43, 61
5, 161660, Note_off_c, 3, 43, 0
5, 161664, Note_on_c, 3, 43, 61
5, 161756, Note_off_c, 3, 43, 0
5, 162048, Note_on_c, 3, 55, 82
5, 162812, Note_off_c, 3, 55, 0
5, 162816, Note_on_c, 3, 45, 61
5, 163200, Note_on_c, 3, 57, 61
5, 163580, Note_off_c, 3, 45, 0
5, 163580, Note_off_c, 3, 57, 0
5, 163584, Note_on_c, 3, 47, 61
5, 163584, Note_on_c, 3, 56, 61
5, 163964, Note_off_c, 3, 56, 0
5, 163968, Note_on_c, 3, 62, 61
5, 164348, Note_off_c, 3, 47, 0
5, 164348, Note_off_c, 3, 62, 0
5, 164352, Note_on_c, 3, 61, 61
5, 164352, Note_on_c, 3, 45, 61
5, 164732, Note_off_c, 3, 61, 0
5, 164736, Note_on_c, 3, 57, 61
5, 165116, Note_off_c, 3, 45, 0
5, 165116, Note_off_c, 3, 57, 0
5, 165120, Note_on_c, 3, 56, 61
5, 165120, Note_on_c, 3, 47, 61
5, 165500, Note_off_c, 3, 56, 0
5, 165504, Note_on_c, 3, 62, 61
5, 165884, Note_off_c, 3, 47, 0
5, 165884, Note_off_c, 3, 62, 0
5, 165888, Note_on_c, 3, 45, 61
5, 166268, Note_off_c, 3, 45, 0
5, 167424, Note_on_c, 3, 57, 61
5, 167996, Note_off_c, 3, 57, 0
5, 168000, Note_on_c, 3, 55, 61
5, 168188, Note_off_c, 3, 55, 0
5, 168192, Note_on_c, 3, 54, 61
5, 168380, Note_off_c, 3, 54, 0
5, 168384, Note_on_c, 3, 55, 61
5, 168572, Note_off_c, 3, 55, 0
5, 168576, Note_on_c, 3, 54, 61
5, 168764, Note_off_c, 3, 54, 0
5, 168768, Note_on_c, 3, 52, 61
5, 168956, Note_off_c, 3, 52, 0
5, 168960, Note_on_c, 3, 54, 61
5, 168960, Note_on_c, 3, 50, 61
5, 169340, Note_off_c, 3, 54, 0
5, 169340, Note_off_c, 3, 50, 0
5, 181248, Note_on_c, 3, 50, 61
5, 181628, Note_off_c, 3, 50, 0
5, 182016, Note_on_c, 3, 47, 61
5, 182396, Note_off_c, 3, 47, 0
5, 182784, Note_on_c, 3, 52, 61
5, 183164, Note_off_c, 3, 52, 0
5, 183168, Note_on_c, 3, 49, 61
5, 183548, Note_off_c, 3, 49, 0
5, 183936, Note_on_c, 3, 48, 61
5, 184316, Note_off_c, 3, 48, 0
5, 184320, Note_on_c, 3, 47, 61
5, 184700, Note_off_c, 3, 47, 0
5, 185472, Note_on_c, 3, 59, 61
5, 185472, Note_on_c, 3, 56, 61
5, 185852, Note_off_c, 3, 59, 0
5, 185852, Note_off_c, 3, 56, 0
5, 185856, Note_on_c, 3, 64, 61
5, 185856, Note_on_c, 3, 57, 61
5, 186236, Note_off_c, 3, 57, 0
5, 186240, Note_on_c, 3, 55, 61
5, 186620, Note_off_c, 3, 64, 0
5, 186620, Note_off_c, 3, 55, 0
5, 186624, Note_on_c, 3, 54, 61
5, 186624, Note_on_c, 3, 62, 61
5, 187004, Note_off_c, 3, 54, 0
5, 187004, Note_off_c, 3, 62, 0
5, 187008, Note_on_c, 3, 64, 61
5, 187008, Note_on_c, 3, 57, 61
5, 187388, Note_off_c, 3, 64, 0
5, 187388, Note_off_c, 3, 57, 0
5, 187392, Note_on_c, 3, 66, 61
5, 187392, Note_on_c, 3, 62, 61
5, 187772, Note_off_c, 3, 66, 0
5, 187772, Note_off_c, 3, 62, 0
5, 187776, Note_on_c, 3, 64, 61
5, 187776, Note_on_c, 3, 57, 61
5, 188156, Note_off_c, 3, 64, 0
5, 188156, Note_off_c, 3, 57, 0
5, 188160, Note_on_c, 3, 62, 61
5, 188160, Note_on_c, 3, 54, 61
5, 188540, Note_off_c, 3, 62, 0
5, 188540, Note_off_c, 3, 54, 0
5, 188544, Note_on_c, 3, 64, 61
5, 188544, Note_on_c, 3, 57, 61
5, 188924, Note_off_c, 3, 64, 0
5, 188924, Note_off_c, 3, 57, 0
5, 188928, Note_on_c, 3, 62, 61
5, 188928, Note_on_c, 3, 66, 61
5, 189308, Note_off_c, 3, 62, 0
5, 189308, Note_off_c, 3, 66, 0
5, 189312, Note_on_c, 3, 57, 61
5, 189312, Note_on_c, 3, 64, 61
5, 189692, Note_off_c, 3, 57, 0
5, 189692, Note_off_c, 3, 64, 0
5, 189696, Note_on_c, 3, 54, 61
5, 189696, Note_on_c, 3, 62, 61
5, 190076, Note_off_c, 3, 54, 0
5, 190076, Note_off_c, 3, 62, 0
5, 190080, Note_on_c, 3, 57, 61
5, 190080, Note_on_c, 3, 64, 61
5, 190460, Note_off_c, 3, 57, 0
5, 190460, Note_off_c, 3, 64, 0
5, 190464, Note_on_c, 3, 62, 61
5, 190464, Note_on_c, 3, 66, 61
5, 190844, Note_off_c, 3, 62, 0
5, 190844, Note_off_c, 3, 66, 0
5, 190848, Note_on_c, 3, 57, 61
5, 190848, Note_on_c, 3, 64, 61
5, 191228, Note_off_c, 3, 57, 0
5, 191228, Note_off_c, 3, 64, 0
5, 191232, Note_on_c, 3, 54, 61
5, 191232, Note_on_c, 3, 62, 61
5, 191612, Note_off_c, 3, 54, 0
5, 191612, Note_off_c, 3, 62, 0
5, 191616, Note_on_c, 3, 57, 61
5, 191616, Note_on_c, 3, 64, 61
5, 191996, Note_off_c, 3, 57, 0
5, 191996, Note_off_c, 3, 64, 0
5, 192000, Note_on_c, 3, 62, 61
5, 192000, Note_on_c, 3, 66, 61
5, 192380, Note_off_c, 3, 62, 0
5, 192380, Note_off_c, 3, 66, 0
5, 192384, Note_on_c, 3, 57, 61
5, 192384, Note_on_c, 3, 64, 61
5, 192764, Note_off_c, 3, 57, 0
5, 192764, Note_off_c, 3, 64, 0
5, 192768, Note_on_c, 3, 54, 61
5, 192768, Note_on_c, 3, 62, 61
5, 193148, Note_off_c, 3, 54, 0
5, 193148, Note_off_c, 3, 62, 0
5, 193152, Note_on_c, 3, 57, 61
5, 193152, Note_on_c, 3, 64, 61
5, 193532, Note_off_c, 3, 57, 0
5, 193532, Note_off_c, 3, 64, 0
5, 193536, Note_on_c, 3, 50, 61
5, 193920, Note_on_c, 3, 53, 61
5, 193920, Note_on_c, 3, 62, 61
5, 193920, Note_on_c, 3, 57, 61
5, 194300, Note_off_c, 3, 50, 0
5, 194496, Note_on_c, 3, 50, 61
5, 194684, Note_off_c, 3, 53, 0
5, 194684, Note_off_c, 3, 62, 0
5, 194684, Note_off_c, 3, 57, 0
5, 194684, Note_off_c, 3, 50, 0
5, 194688, Note_on_c, 3, 57, 61
5, 194688, Note_on_c, 3, 62, 61
5, 194688, Note_on_c, 3, 52, 61
5, 194876, Note_off_c, 3, 52, 0
5, 194880, Note_on_c, 3, 54, 61
5, 195068, Note_off_c, 3, 57, 0
5, 195068, Note_off_c, 3, 62, 0
5, 195068, Note_off_c, 3, 54, 0
5, 195072, Note_on_c, 3, 55, 61
5, 195456, Note_on_c, 3, 58, 61
5, 195456, Note_on_c, 3, 62, 61
5, 195456, Note_on_c, 3, 65, 61
5, 195456, Note_on_c, 3, 67, 61
5, 195836, Note_off_c, 3, 55, 0
5, 196032, Note_on_c, 3, 55, 61
5, 196220, Note_off_c, 3, 58, 0
5, 196220, Note_off_c, 3, 62, 0
5, 196220, Note_off_c, 3, 65, 0
5, 196220, Note_off_c, 3, 67, 0
5, 196220, Note_off_c, 3, 55, 0
5, 196224, Note_on_c, 3, 67, 61
5, 196224, Note_on_c, 3, 65, 61
5, 196224, Note_on_c, 3, 62, 61
5, 196224, Note_on_c, 3, 57, 61
5, 196412, Note_off_c, 3, 57, 0
5, 196416, Note_on_c, 3, 58, 61
5, 196604, Note_off_c, 3, 67, 0
5, 196604, Note_off_c, 3, 65, 0
5, 196604, Note_off_c, 3, 62, 0
5, 196604, Note_off_c, 3, 58, 0
5, 196608, Note_on_c, 3, 60, 61
5, 196608, Note_on_c, 3, 48, 61
5, 196988, Note_off_c, 3, 60, 0
5, 196992, Note_on_c, 3, 58, 61
5, 196992, Note_on_c, 3, 55, 61
5, 196992, Note_on_c, 3, 52, 61
5, 197372, Note_off_c, 3, 48, 0
5, 197372, Note_off_c, 3, 58, 0
5, 197372, Note_off_c, 3, 55, 0
5, 197372, Note_off_c, 3, 52, 0
5, 197376, Note_on_c, 3, 58, 61
5, 197376, Note_on_c, 3, 55, 61
5, 197376, Note_on_c, 3, 52, 61
5, 197564, Note_off_c, 3, 58, 0
5, 197564, Note_off_c, 3, 55, 0
5, 197564, Note_off_c, 3, 52, 0
5, 197568, Note_on_c, 3, 48, 61
5, 197660, Note_off_c, 3, 48, 0
5, 197664, Note_on_c, 3, 52, 61
5, 197756, Note_off_c, 3, 52, 0
5, 197760, Note_on_c, 3, 50, 61
5, 197852, Note_off_c, 3, 50, 0
5, 197856, Note_on_c, 3, 53, 61
5, 197948, Note_off_c, 3, 53, 0
5, 197952, Note_on_c, 3, 52, 61
5, 198044, Note_off_c, 3, 52, 0
5, 198048, Note_on_c, 3, 55, 61
5, 198140, Note_off_c, 3, 55, 0
5, 198144, Note_on_c, 3, 53, 61
5, 198144, Note_on_c, 3, 53, 61
5, 198524, Note_off_c, 3, 53, 0
5, 198528, Note_on_c, 3, 65, 61
5, 198528, Note_on_c, 3, 64, 61
5, 198528, Note_on_c, 3, 60, 61
5, 198528, Note_on_c, 3, 57, 61
5, 198908, Note_off_c, 3, 53, 0
5, 198908, Note_off_c, 3, 65, 0
5, 198908, Note_off_c, 3, 64, 0
5, 198908, Note_off_c, 3, 60, 0
5, 198908, Note_off_c, 3, 57, 0
5, 199104, Note_on_c, 3, 53, 61
5, 199196, Note_off_c, 3, 53, 0
5, 199200, Note_on_c, 3, 55, 61
5, 199292, Note_off_c, 3, 55, 0
5, 199296, Note_on_c, 3, 57, 61
5, 199388, Note_off_c, 3, 57, 0
5, 199392, Note_on_c, 3, 53, 61
5, 199484, Note_off_c, 3, 53, 0
5, 199488, Note_on_c, 3, 55, 61
5, 199580, Note_off_c, 3, 55, 0
5, 199584, Note_on_c, 3, 57, 61
5, 199676, Note_off_c, 3, 57, 0
5, 199680, Note_on_c, 3, 58, 61
5, 199868, Note_off_c, 3, 58, 0
5, 199872, Note_on_c, 3, 46, 61
5, 200060, Note_off_c, 3, 46, 0
5, 200064, Note_on_c, 3, 50, 61
5, 200252, Note_off_c, 3, 50, 0
5, 200256, Note_on_c, 3, 46, 61
5, 200444, Note_off_c, 3, 46, 0
5, 200448, Note_on_c, 3, 52, 61
5, 200636, Note_off_c, 3, 52, 0
5, 200640, Note_on_c, 3, 52, 61
5, 200828, Note_off_c, 3, 52, 0
5, 200832, Note_on_c, 3, 55, 61
5, 201020, Note_off_c, 3, 55, 0
5, 201024, Note_on_c, 3, 52, 61
5, 201212, Note_off_c, 3, 52, 0
5, 201216, Note_on_c, 3, 57, 61
5, 201404, Note_off_c, 3, 57, 0
5, 201408, Note_on_c, 3, 45, 61
5, 201596, Note_off_c, 3, 45, 0
5, 201600, Note_on_c, 3, 49, 61
5, 201788, Note_off_c, 3, 49, 0
5, 201792, Note_on_c, 3, 45, 61
5, 201980, Note_off_c, 3, 45, 0
5, 201984, Note_on_c, 3, 50, 61
5, 202172, Note_off_c, 3, 50, 0
5, 202176, Note_on_c, 3, 50, 61
5, 202364, Note_off_c, 3, 50, 0
5, 202368, Note_on_c, 3, 53, 61
5, 202556, Note_off_c, 3, 53, 0
5, 202560, Note_on_c, 3, 50, 61
5, 202748, Note_off_c, 3, 50, 0
5, 202752, Note_on_c, 3, 43, 61
5, 202940, Note_off_c, 3, 43, 0
5, 202944, Note_on_c, 3, 55, 61
5, 203132, Note_off_c, 3, 55, 0
5, 203136, Note_on_c, 3, 55, 65
5, 203176, Note_off_c, 3, 55, 0
5, 203184, Note_on_c, 3, 57, 65
5, 203224, Note_off_c, 3, 57, 0
5, 203232, Note_on_c, 3, 55, 65
5, 203272, Note_off_c, 3, 55, 0
5, 203280, Note_on_c, 3, 54, 65
5, 203320, Note_off_c, 3, 54, 0
5, 203328, Note_on_c, 3, 54, 65
5, 203416, Note_off_c, 3, 54, 0
5, 203424, Note_on_c, 3, 55, 65
5, 203512, Note_off_c, 3, 55, 0
5, 203520, Note_on_c, 3, 44, 61
5, 203708, Note_off_c, 3, 44, 0
5, 203712, Note_on_c, 3, 56, 61
5, 203900, Note_off_c, 3, 56, 0
5, 203904, Note_on_c, 3, 56, 65
5, 203944, Note_off_c, 3, 56, 0
5, 203952, Note_on_c, 3, 57, 65
5, 203992, Note_off_c, 3, 57, 0
5, 204000, Note_on_c, 3, 56, 65
5, 204040, Note_off_c, 3, 56, 0
5, 204048, Note_on_c, 3, 54, 65
5, 204088, Note_off_c, 3, 54, 0
5, 204096, Note_on_c, 3, 54, 65
5, 204184, Note_off_c, 3, 54, 0
5, 204192, Note_on_c, 3, 56, 65
5, 204280, Note_off_c, 3, 56, 0
5, 204288, Note_on_c, 3, 57, 61
5, 204668, Note_off_c, 3, 57, 0
5, 205440, Note_on_c, 3, 62, 61
5, 205440, Note_on_c, 3, 65, 61
5, 205820, Note_off_c, 3, 62, 0
5, 205820, Note_off_c, 3, 65, 0
5, 205824, Note_on_c, 3, 64, 61
5, 205824, Note_on_c, 3, 61, 61
5, 205824, Note_on_c, 3, 57, 61
5, 206204, Note_off_c, 3, 64, 0
5, 206204, Note_off_c, 3, 61, 0
5, 206204, Note_off_c, 3, 57, 0
5, 206976, Note_on_c, 3, 65, 61
5, 206976, Note_on_c, 3, 62, 61
5, 207356, Note_off_c, 3, 65, 0
5, 207356, Note_off_c, 3, 62, 0
5, 207360, Note_on_c, 3, 64, 61
5, 207360, Note_on_c, 3, 61, 61
5, 207360, Note_on_c, 3, 57, 61
5, 207548, Note_off_c, 3, 64, 0
5, 207548, Note_off_c, 3, 61, 0
5, 207548, Note_off_c, 3, 57, 0
5, 207552, Note_on_c, 3, 45, 61
5, 207644, Note_off_c, 3, 45, 0
5, 207744, Note_on_c, 3, 49, 61
5, 207836, Note_off_c, 3, 49, 0
5, 207936, Note_on_c, 3, 52, 61
5, 208028, Note_off_c, 3, 52, 0
5, 208128, Note_on_c, 3, 56, 61
5, 208316, Note_off_c, 3, 56, 0
5, 208320, Note_on_c, 3, 57, 61
5, 208508, Note_off_c, 3, 57, 0
5, 208512, Note_on_c, 3, 45, 61
5, 208604, Note_off_c, 3, 45, 0
5, 208704, Note_on_c, 3, 57, 61
5, 208796, Note_off_c, 3, 57, 0
5, 208896, Note_on_c, 3, 55, 61
5, 208988, Note_off_c, 3, 55, 0
5, 209088, Note_on_c, 3, 43, 61
5, 209180, Note_off_c, 3, 43, 0
5, 209280, Note_on_c, 3, 49, 61
5, 209372, Note_off_c, 3, 49, 0
5, 209472, Note_on_c, 3, 52, 61
5, 209564, Note_off_c, 3, 52, 0
5, 209664, Note_on_c, 3, 54, 61
5, 209852, Note_off_c, 3, 54, 0
5, 209856, Note_on_c, 3, 55, 61
5, 210044, Note_off_c, 3, 55, 0
5, 210048, Note_on_c, 3, 43, 61
5, 210140, Note_off_c, 3, 43, 0
5, 210240, Note_on_c, 3, 55, 61
5, 210332, Note_off_c, 3, 55, 0
5, 210432, Note_on_c, 3, 42, 61
5, 210524, Note_off_c, 3, 42, 0
5, 210624, Note_on_c, 3, 54, 61
5, 210716, Note_off_c, 3, 54, 0
5, 210816, Note_on_c, 3, 57, 61
5, 210908, Note_off_c, 3, 57, 0
5, 211008, Note_on_c, 3, 62, 61
5, 211100, Note_off_c, 3, 62, 0
5, 211168, Note_on_c, 3, 65, 61
5, 211356, Note_off_c, 3, 65, 0
5, 211392, Note_on_c, 3, 66, 61
5, 211580, Note_off_c, 3, 66, 0
5, 211584, Note_on_c, 3, 54, 61
5, 211676, Note_off_c, 3, 54, 0
5, 211776, Note_on_c, 3, 66, 61
5, 211868, Note_off_c, 3, 66, 0
5, 211968, Note_on_c, 3, 40, 61
5, 212060, Note_off_c, 3, 40, 0
5, 212160, Note_on_c, 3, 52, 61
5, 212252, Note_off_c, 3, 52, 0
5, 212352, Note_on_c, 3, 56, 61
5, 212444, Note_off_c, 3, 56, 0
5, 212544, Note_on_c, 3, 61, 61
5, 212636, Note_off_c, 3, 61, 0
5, 212736, Note_on_c, 3, 62, 61
5, 212924, Note_off_c, 3, 62, 0
5, 212928, Note_on_c, 3, 64, 61
5, 213116, Note_off_c, 3, 64, 0
5, 213120, Note_on_c, 3, 52, 61
5, 213212, Note_off_c, 3, 52, 0
5, 213312, Note_on_c, 3, 64, 61
5, 213404, Note_off_c, 3, 64, 0
5, 213504, Note_on_c, 3, 62, 61
5, 213504, Note_on_c, 3, 50, 61
5, 213884, Note_off_c, 3, 62, 0
5, 213884, Note_off_c, 3, 50, 0
5, 215040, Note_on_c, 3, 59, 61
5, 215420, Note_off_c, 3, 59, 0
5, 215808, Note_on_c, 3, 57, 61
5, 216188, Note_off_c, 3, 57, 0
5, 216576, Note_on_c, 3, 55, 61
5, 216956, Note_off_c, 3, 55, 0
5, 217344, Note_on_c, 3, 54, 61
5, 217724, Note_off_c, 3, 54, 0
5, 218112, Note_on_c, 3, 52, 61
5, 218492, Note_off_c, 3, 52, 0
5, 218880, Note_on_c, 3, 62, 61
5, 219260, Note_off_c, 3, 62, 0
5, 219648, Note_on_c, 3, 61, 61
5, 220028, Note_off_c, 3, 61, 0
5, 220416, Note_on_c, 3, 59, 61
5, 220796, Note_off_c, 3, 59, 0
5, 221184, Note_on_c, 3, 57, 61
5, 221564, Note_off_c, 3, 57, 0
5, 224256, Note_on_c, 3, 50, 61
5, 224256, Note_on_c, 3, 50, 61
5, 224444, Note_off_c, 3, 50, 0
5, 224448, Note_on_c, 3, 54, 61
5, 224540, Note_off_c, 3, 54, 0
5, 224640, Note_on_c, 3, 57, 61
5, 224732, Note_off_c, 3, 57, 0
5, 224832, Note_on_c, 3, 54, 61
5, 224924, Note_off_c, 3, 54, 0
5, 225020, Note_off_c, 3, 50, 0
5, 225024, Note_on_c, 3, 49, 61
5, 225024, Note_on_c, 3, 49, 61
5, 225212, Note_off_c, 3, 49, 0
5, 225216, Note_on_c, 3, 52, 61
5, 225308, Note_off_c, 3, 52, 0
5, 225408, Note_on_c, 3, 58, 61
5, 225500, Note_off_c, 3, 58, 0
5, 225600, Note_on_c, 3, 52, 61
5, 225692, Note_off_c, 3, 52, 0
5, 225788, Note_off_c, 3, 49, 0
5, 225792, Note_on_c, 3, 47, 61
5, 225792, Note_on_c, 3, 47, 61
5, 225980, Note_off_c, 3, 47, 0
5, 225984, Note_on_c, 3, 54, 61
5, 226076, Note_off_c, 3, 54, 0
5, 226176, Note_on_c, 3, 50, 61
5, 226268, Note_off_c, 3, 50, 0
5, 226368, Note_on_c, 3, 54, 61
5, 226460, Note_off_c, 3, 54, 0
5, 226556, Note_off_c, 3, 47, 0
5, 226560, Note_on_c, 3, 45, 61
5, 226560, Note_on_c, 3, 45, 61
5, 226748, Note_off_c, 3, 45, 0
5, 226752, Note_on_c, 3, 51, 61
5, 226844, Note_off_c, 3, 51, 0
5, 226944, Note_on_c, 3, 54, 61
5, 227036, Note_off_c, 3, 54, 0
5, 227136, Note_on_c, 3, 59, 61
5, 227228, Note_off_c, 3, 59, 0
5, 227324, Note_off_c, 3, 45, 0
5, 227328, Note_on_c, 3, 55, 61
5, 227328, Note_on_c, 3, 55, 61
5, 227516, Note_off_c, 3, 55, 0
5, 227520, Note_on_c, 3, 59, 61
5, 227612, Note_off_c, 3, 59, 0
5, 227712, Note_on_c, 3, 64, 61
5, 227804, Note_off_c, 3, 64, 0
5, 227904, Note_on_c, 3, 59, 61
5, 227996, Note_off_c, 3, 59, 0
5, 228092, Note_off_c, 3, 55, 0
5, 228096, Note_on_c, 3, 54, 61
5, 228096, Note_on_c, 3, 54, 61
5, 228284, Note_off_c, 3, 54, 0
5, 228288, Note_on_c, 3, 57, 61
5, 228380, Note_off_c, 3, 57, 0
5, 228480, Note_on_c, 3, 63, 61
5, 228572, Note_off_c, 3, 63, 0
5, 228672, Note_on_c, 3, 57, 61
5, 228764, Note_off_c, 3, 57, 0
5, 228860, Note_off_c, 3, 54, 0
5, 228864, Note_on_c, 3, 52, 61
5, 228864, Note_on_c, 3, 52, 61
5, 229052, Note_off_c, 3, 52, 0
5, 229056, Note_on_c, 3, 55, 61
5, 229148, Note_off_c, 3, 55, 0
5, 229248, Note_on_c, 3, 59, 61
5, 229340, Note_off_c, 3, 59, 0
5, 229440, Note_on_c, 3, 55, 61
5, 229532, Note_off_c, 3, 55, 0
5, 229628, Note_off_c, 3, 52, 0
5, 229632, Note_on_c, 3, 50, 61
5, 229632, Note_on_c, 3, 50, 61
5, 229820, Note_off_c, 3, 50, 0
5, 229824, Note_on_c, 3, 52, 61
5, 229916, Note_off_c, 3, 52, 0
5, 230016, Note_on_c, 3, 56, 61
5, 230108, Note_off_c, 3, 56, 0
5, 230208, Note_on_c, 3, 59, 61
5, 230300, Note_off_c, 3, 59, 0
5, 230396, Note_off_c, 3, 50, 0
5, 230400, Note_on_c, 3, 49, 61
5, 230400, Note_on_c, 3, 49, 61
5, 230588, Note_off_c, 3, 49, 0
5, 230592, Note_on_c, 3, 57, 61
5, 230684, Note_off_c, 3, 57, 0
5, 230784, Note_on_c, 3, 52, 61
5, 230876, Note_off_c, 3, 52, 0
5, 230976, Note_on_c, 3, 57, 61
5, 231068, Note_off_c, 3, 57, 0
5, 231164, Note_off_c, 3, 49, 0
5, 231168, Note_on_c, 3, 47, 61
5, 231168, Note_on_c, 3, 47, 61
5, 231356, Note_off_c, 3, 47, 0
5, 231360, Note_on_c, 3, 50, 61
5, 231452, Note_off_c, 3, 50, 0
5, 231552, Note_on_c, 3, 52, 61
5, 231644, Note_off_c, 3, 52, 0
5, 231744, Note_on_c, 3, 56, 61
5, 231836, Note_off_c, 3, 56, 0
5, 231932, Note_off_c, 3, 47, 0
5, 231936, Note_on_c, 3, 57, 61
5, 231936, Note_on_c, 3, 52, 61
5, 231936, Note_on_c, 3, 49, 61
5, 231936, Note_on_c, 3, 45, 61
5, 232316, Note_off_c, 3, 57, 0
5, 232316, Note_off_c, 3, 52, 0
5, 232316, Note_off_c, 3, 49, 0
5, 232316, Note_off_c, 3, 45, 0
5, 235008, Note_on_c, 3, 62, 61
5, 235008, Note_on_c, 3, 57, 61
5, 235008, Note_on_c, 3, 54, 61
5, 235008, Note_on_c, 3, 50, 61
5, 235388, Note_off_c, 3, 62, 0
5, 235388, Note_off_c, 3, 57, 0
5, 235388, Note_off_c, 3, 54, 0
5, 235388, Note_off_c, 3, 50, 0
5, 236160, Note_on_c, 3, 50, 61
5, 236540, Note_off_c, 3, 50, 0
5, 236544, Note_on_c, 3, 45, 61
5, 236924, Note_off_c, 3, 45, 0
5, 237696, Note_on_c, 3, 45, 61
5, 238076, Note_off_c, 3, 45, 0
5, 238080, Note_on_c, 3, 50, 61
5, 238460, Note_off_c, 3, 50, 0
5, 239232, Note_on_c, 3, 50, 61
5, 239612, Note_off_c, 3, 50, 0
5, 239616, Note_on_c, 3, 45, 61
5, 239996, Note_off_c, 3, 45, 0
5, 240768, Note_on_c, 3, 45, 61
5, 241148, Note_off_c, 3, 45, 0
5, 241152, Note_on_c, 3, 50, 61
5, 241532, Note_off_c, 3, 50, 0
5, 242304, Note_on_c, 3, 54, 61
5, 242684, Note_off_c, 3, 54, 0
5, 242688, Note_on_c, 3, 55, 61
5, 243068, Note_off_c, 3, 55, 0
5, 243840, Note_on_c, 3, 55, 61
5, 244220, Note_off_c, 3, 55, 0
5, 244224, Note_on_c, 3, 57, 61
5, 244604, Note_off_c, 3, 57, 0
5, 244608, Note_on_c, 3, 59, 61
5, 244988, Note_off_c, 3, 59, 0
5, 244992, Note_on_c, 3, 55, 61
5, 245372, Note_off_c, 3, 55, 0
5, 245376, Note_on_c, 3, 57, 61
5, 245756, Note_off_c, 3, 57, 0
5, 245760, Note_on_c, 3, 50, 61
5, 246140, Note_off_c, 3, 50, 0
5, 246144, Note_on_c, 3, 54, 61
5, 246428, Note_off_c, 3, 54, 0
5, 246432, Note_on_c, 3, 57, 61
5, 246524, Note_off_c, 3, 57, 0
5, 246528, Note_on_c, 3, 62, 61
5, 246908, Note_off_c, 3, 62, 0
5, 246912, Note_on_c, 3, 54, 61
5, 247292, Note_off_c, 3, 54, 0
5, 247296, Note_on_c, 3, 57, 61
5, 247676, Note_off_c, 3, 57, 0
5, 247680, Note_on_c, 3, 52, 61
5, 247964, Note_off_c, 3, 52, 0
5, 247968, Note_on_c, 3, 49, 61
5, 248060, Note_off_c, 3, 49, 0
5, 248064, Note_on_c, 3, 45, 61
5, 248444, Note_off_c, 3, 45, 0
5, 248448, Note_on_c, 3, 57, 61
5, 248828, Note_off_c, 3, 57, 0
5, 248832, Note_on_c, 3, 50, 61
5, 249212, Note_off_c, 3, 50, 0
5, 249216, Note_on_c, 3, 54, 61
5, 249500, Note_off_c, 3, 54, 0
5, 249504, Note_on_c, 3, 57, 61
5, 249596, Note_off_c, 3, 57, 0
5, 249600, Note_on_c, 3, 62, 61
5, 249980, Note_off_c, 3, 62, 0
5, 249984, Note_on_c, 3, 54, 61
5, 250364, Note_off_c, 3, 54, 0
5, 250368, Note_on_c, 3, 57, 61
5, 250748, Note_off_c, 3, 57, 0
5, 250752, Note_on_c, 3, 52, 61
5, 251036, Note_off_c, 3, 52, 0
5, 251040, Note_on_c, 3, 48, 61
5, 251132, Note_off_c, 3, 48, 0
5, 251136, Note_on_c, 3, 45, 61
5, 251516, Note_off_c, 3, 45, 0
5, 251520, Note_on_c, 3, 57, 61
5, 251900, Note_off_c, 3, 57, 0
5, 251904, Note_on_c, 3, 62, 61
5, 251904, Note_on_c, 3, 50, 61
5, 252284, Note_off_c, 3, 62, 0
5, 252284, Note_off_c, 3, 50, 0
5, 253248, Note_on_c, 3, 62, 61
5, 253248, Note_on_c, 3, 57, 61
5, 253248, Note_on_c, 3, 54, 61
5, 253436, Note_off_c, 3, 62, 0
5, 253436, Note_off_c, 3, 57, 0
5, 253436, Note_off_c, 3, 54, 0
5, 253440, Note_on_c, 3, 62, 61
5, 253440, Note_on_c, 3, 58, 61
5, 253440, Note_on_c, 3, 55, 61
5, 253820, Note_off_c, 3, 62, 0
5, 253820, Note_off_c, 3, 58, 0
5, 253820, Note_off_c, 3, 55, 0
5, 254784, Note_on_c, 3, 62, 61
5, 254784, Note_on_c, 3, 58, 61
5, 254784, Note_on_c, 3, 55, 61
5, 254972, Note_off_c, 3, 62, 0
5, 254972, Note_off_c, 3, 58, 0
5, 254972, Note_off_c, 3, 55, 0
5, 254976, Note_on_c, 3, 65, 61
5, 254976, Note_on_c, 3, 62, 61
5, 254976, Note_on_c, 3, 57, 61
5, 255356, Note_off_c, 3, 65, 0
5, 255356, Note_off_c, 3, 62, 0
5, 255356, Note_off_c, 3, 57, 0
5, 256320, Note_on_c, 3, 57, 61
5, 256320, Note_on_c, 3, 62, 61
5, 256320, Note_on_c, 3, 65, 61
5, 256508, Note_off_c, 3, 57, 0
5, 256508, Note_off_c, 3, 62, 0
5, 256508, Note_off_c, 3, 65, 0
5, 256512, Note_on_c, 3, 65, 61
5, 256512, Note_on_c, 3, 62, 61
5, 256512, Note_on_c, 3, 58, 61
5, 256892, Note_off_c, 3, 65, 0
5, 256892, Note_off_c, 3, 62, 0
5, 256892, Note_off_c, 3, 58, 0
5, 257856, Note_on_c, 3, 58, 61
5, 257856, Note_on_c, 3, 62, 61
5, 257856, Note_on_c, 3, 65, 61
5, 258044, Note_off_c, 3, 58, 0
5, 258044, Note_off_c, 3, 62, 0
5, 258044, Note_off_c, 3, 65, 0
5, 258048, Note_on_c, 3, 68, 61
5, 258048, Note_on_c, 3, 65, 61
5, 258048, Note_on_c, 3, 59, 61
5, 258428, Note_off_c, 3, 68, 0
5, 258428, Note_off_c, 3, 65, 0
5, 258428, Note_off_c, 3, 59, 0
5, 259392, Note_on_c, 3, 68, 61
5, 259392, Note_on_c, 3, 59, 61
5, 259392, Note_on_c, 3, 65, 61
5, 259580, Note_off_c, 3, 68, 0
5, 259580, Note_off_c, 3, 59, 0
5, 259580, Note_off_c, 3, 65, 0
5, 259584, Note_on_c, 3, 57, 61
5, 259772, Note_off_c, 3, 57, 0
5, 259776, Note_on_c, 3, 57, 61
5, 259964, Note_off_c, 3, 57, 0
5, 259968, Note_on_c, 3, 57, 61
5, 260156, Note_off_c, 3, 57, 0
5, 260160, Note_on_c, 3, 57, 61
5, 260348, Note_off_c, 3, 57, 0
5, 260352, Note_on_c, 3, 57, 62
5, 260540, Note_off_c, 3, 57, 0
5, 260544, Note_on_c, 3, 57, 63
5, 260732, Note_off_c, 3, 57, 0
5, 260736, Note_on_c, 3, 57, 65
5, 260924, Note_off_c, 3, 57, 0
5, 260928, Note_on_c, 3, 57, 67
5, 261116, Note_off_c, 3, 57, 0
5, 261120, Note_on_c, 3, 45, 70
5, 261308, Note_off_c, 3, 45, 0
5, 261312, Note_on_c, 3, 45, 71
5, 261500, Note_off_c, 3, 45, 0
5, 261504, Note_on_c, 3, 45, 73
5, 261692, Note_off_c, 3, 45, 0
5, 261696, Note_on_c, 3, 45, 75
5, 261884, Note_off_c, 3, 45, 0
5, 261888, Note_on_c, 3, 45, 77
5, 262076, Note_off_c, 3, 45, 0
5, 262080, Note_on_c, 3, 45, 78
5, 262268, Note_off_c, 3, 45, 0
5, 262272, Note_on_c, 3, 45, 79
5, 262460, Note_off_c, 3, 45, 0
5, 262464, Note_on_c, 3, 45, 80
5, 262652, Note_off_c, 3, 45, 0
5, 262656, Note_on_c, 3, 54, 82
5, 262656, Note_on_c, 3, 50, 82
5, 262748, Note_off_c, 3, 54, 0
5, 262748, Note_off_c, 3, 50, 0
5, 262752, Note_on_c, 3, 57, 82
5, 262844, Note_off_c, 3, 57, 0
5, 262848, Note_on_c, 3, 54, 82
5, 262848, Note_on_c, 3, 50, 82
5, 262940, Note_off_c, 3, 54, 0
5, 262940, Note_off_c, 3, 50, 0
5, 262944, Note_on_c, 3, 57, 82
5, 263036, Note_off_c, 3, 57, 0
5, 263040, Note_on_c, 3, 54, 82
5, 263040, Note_on_c, 3, 50, 82
5, 263132, Note_off_c, 3, 54, 0
5, 263132, Note_off_c, 3, 50, 0
5, 263136, Note_on_c, 3, 57, 82
5, 263228, Note_off_c, 3, 57, 0
5, 263232, Note_on_c, 3, 54, 82
5, 263232, Note_on_c, 3, 50, 82
5, 263324, Note_off_c, 3, 54, 0
5, 263324, Note_off_c, 3, 50, 0
5, 263328, Note_on_c, 3, 57, 82
5, 263420, Note_off_c, 3, 57, 0
5, 263424, Note_on_c, 3, 54, 82
5, 263424, Note_on_c, 3, 50, 82
5, 263516, Note_off_c, 3, 54, 0
5, 263516, Note_off_c, 3, 50, 0
5, 263520, Note_on_c, 3, 57, 82
5, 263612, Note_off_c, 3, 57, 0
5, 263616, Note_on_c, 3, 54, 82
5, 263616, Note_on_c, 3, 50, 82
5, 263708, Note_off_c, 3, 54, 0
5, 263708, Note_off_c, 3, 50, 0
5, 263712, Note_on_c, 3, 57, 82
5, 263792, Note_on_c, 3, 54, 82
5, 263804, Note_off_c, 3, 57, 0
5, 263808, Note_on_c, 3, 50, 82
5, 263884, Note_off_c, 3, 54, 0
5, 263900, Note_off_c, 3, 50, 0
5, 263904, Note_on_c, 3, 57, 82
5, 263996, Note_off_c, 3, 57, 0
5, 264000, Note_on_c, 3, 54, 82
5, 264000, Note_on_c, 3, 50, 82
5, 264092, Note_off_c, 3, 54, 0
5, 264092, Note_off_c, 3, 50, 0
5, 264096, Note_on_c, 3, 57, 82
5, 264188, Note_off_c, 3, 57, 0
5, 264192, Note_on_c, 3, 55, 82
5, 264192, Note_on_c, 3, 50, 82
5, 264284, Note_off_c, 3, 55, 0
5, 264284, Note_off_c, 3, 50, 0
5, 264288, Note_on_c, 3, 59, 82
5, 264380, Note_off_c, 3, 59, 0
5, 264384, Note_on_c, 3, 55, 82
5, 264384, Note_on_c, 3, 50, 82
5, 264476, Note_off_c, 3, 55, 0
5, 264476, Note_off_c, 3, 50, 0
5, 264480, Note_on_c, 3, 59, 82
5, 264572, Note_off_c, 3, 59, 0
5, 264576, Note_on_c, 3, 55, 82
5, 264576, Note_on_c, 3, 50, 82
5, 264668, Note_off_c, 3, 55, 0
5, 264668, Note_off_c, 3, 50, 0
5, 264672, Note_on_c, 3, 59, 82
5, 264764, Note_off_c, 3, 59, 0
5, 264768, Note_on_c, 3, 55, 82
5, 264768, Note_on_c, 3, 50, 82
5, 264860, Note_off_c, 3, 55, 0
5, 264860, Note_off_c, 3, 50, 0
5, 264864, Note_on_c, 3, 59, 82
5, 264956, Note_off_c, 3, 59, 0
5, 264960, Note_on_c, 3, 57, 82
5, 264960, Note_on_c, 3, 50, 82
5, 265052, Note_off_c, 3, 57, 0
5, 265052, Note_off_c, 3, 50, 0
5, 265056, Note_on_c, 3, 60, 82
5, 265148, Note_off_c, 3, 60, 0
5, 265152, Note_on_c, 3, 57, 82
5, 265152, Note_on_c, 3, 50, 82
5, 265244, Note_off_c, 3, 57, 0
5, 265244, Note_off_c, 3, 50, 0
5, 265248, Note_on_c, 3, 60, 82
5, 265340, Note_off_c, 3, 60, 0
5, 265344, Note_on_c, 3, 57, 82
5, 265344, Note_on_c, 3, 50, 82
5, 265436, Note_off_c, 3, 57, 0
5, 265436, Note_off_c, 3, 50, 0
5, 265440, Note_on_c, 3, 60, 82
5, 265532, Note_off_c, 3, 60, 0
5, 265536, Note_on_c, 3, 57, 82
5, 265536, Note_on_c, 3, 50, 82
5, 265628, Note_off_c, 3, 57, 0
5, 265628, Note_off_c, 3, 50, 0
5, 265632, Note_on_c, 3, 60, 82
5, 265724, Note_off_c, 3, 60, 0
5, 265728, Note_on_c, 3, 55, 82
5, 265728, Note_on_c, 3, 50, 82
5, 265820, Note_off_c, 3, 55, 0
5, 265820, Note_off_c, 3, 50, 0
5, 265824, Note_on_c, 3, 59, 82
5, 265916, Note_off_c, 3, 59, 0
5, 265920, Note_on_c, 3, 55, 82
5, 265920, Note_on_c, 3, 50, 82
5, 266012, Note_off_c, 3, 55, 0
5, 266012, Note_off_c, 3, 50, 0
5, 266016, Note_on_c, 3, 59, 82
5, 266108, Note_off_c, 3, 59, 0
5, 266112, Note_on_c, 3, 55, 82
5, 266112, Note_on_c, 3, 50, 82
5, 266204, Note_off_c, 3, 55, 0
5, 266204, Note_off_c, 3, 50, 0
5, 266208, Note_on_c, 3, 59, 82
5, 266300, Note_off_c, 3, 59, 0
5, 266304, Note_on_c, 3, 55, 82
5, 266304, Note_on_c, 3, 50, 82
5, 266396, Note_off_c, 3, 55, 0
5, 266396, Note_off_c, 3, 50, 0
5, 266400, Note_on_c, 3, 59, 82
5, 266492, Note_off_c, 3, 59, 0
5, 266496, Note_on_c, 3, 52, 82
5, 266496, Note_on_c, 3, 50, 82
5, 266588, Note_off_c, 3, 52, 0
5, 266588, Note_off_c, 3, 50, 0
5, 266592, Note_on_c, 3, 55, 82
5, 266684, Note_off_c, 3, 55, 0
5, 266688, Note_on_c, 3, 52, 82
5, 266688, Note_on_c, 3, 50, 82
5, 266780, Note_off_c, 3, 52, 0
5, 266780, Note_off_c, 3, 50, 0
5, 266784, Note_on_c, 3, 55, 82
5, 266876, Note_off_c, 3, 55, 0
5, 266880, Note_on_c, 3, 52, 82
5, 266880, Note_on_c, 3, 50, 82
5, 266972, Note_off_c, 3, 52, 0
5, 266972, Note_off_c, 3, 50, 0
5, 266976, Note_on_c, 3, 55, 82
5, 267068, Note_off_c, 3, 55, 0
5, 267072, Note_on_c, 3, 52, 82
5, 267072, Note_on_c, 3, 50, 82
5, 267164, Note_off_c, 3, 52, 0
5, 267164, Note_off_c, 3, 50, 0
5, 267168, Note_on_c, 3, 55, 82
5, 267260, Note_off_c, 3, 55, 0
5, 267264, Note_on_c, 3, 54, 82
5, 267264, Note_on_c, 3, 50, 82
5, 267356, Note_off_c, 3, 54, 0
5, 267356, Note_off_c, 3, 50, 0
5, 267360, Note_on_c, 3, 57, 82
5, 267452, Note_off_c, 3, 57, 0
5, 267456, Note_on_c, 3, 54, 82
5, 267456, Note_on_c, 3, 50, 82
5, 267548, Note_off_c, 3, 54, 0
5, 267548, Note_off_c, 3, 50, 0
5, 267552, Note_on_c, 3, 57, 82
5, 267644, Note_off_c, 3, 57, 0
5, 267648, Note_on_c, 3, 52, 82
5, 267648, Note_on_c, 3, 50, 82
5, 267740, Note_off_c, 3, 52, 0
5, 267740, Note_off_c, 3, 50, 0
5, 267744, Note_on_c, 3, 55, 82
5, 267836, Note_off_c, 3, 55, 0
5, 267840, Note_on_c, 3, 52, 82
5, 267840, Note_on_c, 3, 50, 82
5, 267932, Note_off_c, 3, 52, 0
5, 267932, Note_off_c, 3, 50, 0
5, 267936, Note_on_c, 3, 55, 82
5, 268028, Note_off_c, 3, 55, 0
5, 268032, Note_on_c, 3, 54, 82
5, 268032, Note_on_c, 3, 50, 82
5, 268124, Note_off_c, 3, 54, 0
5, 268124, Note_off_c, 3, 50, 0
5, 268128, Note_on_c, 3, 57, 82
5, 268220, Note_off_c, 3, 57, 0
5, 268224, Note_on_c, 3, 54, 82
5, 268224, Note_on_c, 3, 50, 82
5, 268316, Note_off_c, 3, 54, 0
5, 268316, Note_off_c, 3, 50, 0
5, 268320, Note_on_c, 3, 57, 82
5, 268412, Note_off_c, 3, 57, 0
5, 268416, Note_on_c, 3, 52, 82
5, 268416, Note_on_c, 3, 50, 82
5, 268508, Note_off_c, 3, 52, 0
5, 268508, Note_off_c, 3, 50, 0
5, 268512, Note_on_c, 3, 55, 82
5, 268604, Note_off_c, 3, 55, 0
5, 268608, Note_on_c, 3, 52, 82
5, 268608, Note_on_c, 3, 50, 82
5, 268700, Note_off_c, 3, 52, 0
5, 268700, Note_off_c, 3, 50, 0
5, 268704, Note_on_c, 3, 55, 82
5, 268796, Note_off_c, 3, 55, 0
5, 268800, Note_on_c, 3, 54, 82
5, 268800, Note_on_c, 3, 50, 82
5, 268892, Note_off_c, 3, 54, 0
5, 268892, Note_off_c, 3, 50, 0
5, 268896, Note_on_c, 3, 57, 82
5, 268988, Note_off_c, 3, 57, 0
5, 268992, Note_on_c, 3, 54, 82
5, 268992, Note_on_c, 3, 50, 82
5, 269084, Note_off_c, 3, 54, 0
5, 269084, Note_off_c, 3, 50, 0
5, 269088, Note_on_c, 3, 57, 82
5, 269180, Note_off_c, 3, 57, 0
5, 269184, Note_on_c, 3, 54, 82
5, 269184, Note_on_c, 3, 50, 82
5, 269276, Note_off_c, 3, 54, 0
5, 269276, Note_off_c, 3, 50, 0
5, 269280, Note_on_c, 3, 57, 82
5, 269372, Note_off_c, 3, 57, 0
5, 269376, Note_on_c, 3, 54, 82
5, 269376, Note_on_c, 3, 50, 82
5, 269468, Note_off_c, 3, 54, 0
5, 269468, Note_off_c, 3, 50, 0
5, 269472, Note_on_c, 3, 57, 82
5, 269564, Note_off_c, 3, 57, 0
5, 269568, Note_on_c, 3, 55, 82
5, 269568, Note_on_c, 3, 50, 82
5, 269660, Note_off_c, 3, 55, 0
5, 269660, Note_off_c, 3, 50, 0
5, 269664, Note_on_c, 3, 59, 82
5, 269756, Note_off_c, 3, 59, 0
5, 269760, Note_on_c, 3, 55, 82
5, 269760, Note_on_c, 3, 50, 82
5, 269852, Note_off_c, 3, 55, 0
5, 269852, Note_off_c, 3, 50, 0
5, 269856, Note_on_c, 3, 59, 82
5, 269948, Note_off_c, 3, 59, 0
5, 269952, Note_on_c, 3, 52, 82
5, 269952, Note_on_c, 3, 50, 82
5, 270044, Note_off_c, 3, 52, 0
5, 270044, Note_off_c, 3, 50, 0
5, 270048, Note_on_c, 3, 55, 82
5, 270140, Note_off_c, 3, 55, 0
5, 270144, Note_on_c, 3, 52, 82
5, 270144, Note_on_c, 3, 50, 82
5, 270236, Note_off_c, 3, 52, 0
5, 270236, Note_off_c, 3, 50, 0
5, 270240, Note_on_c, 3, 55, 82
5, 270332, Note_off_c, 3, 55, 0
5, 270336, Note_on_c, 3, 57, 82
5, 270336, Note_on_c, 3, 54, 82
5, 270336, Note_on_c, 3, 50, 82
5, 270716, Note_off_c, 3, 57, 0
5, 270716, Note_off_c, 3, 54, 0
5, 270716, Note_off_c, 3, 50, 0
5, 271104, Note_on_c, 3, 59, 82
5, 271104, Note_on_c, 3, 47, 82
5, 271484, Note_off_c, 3, 59, 0
5, 271484, Note_off_c, 3, 47, 0
5, 271872, Note_on_c, 3, 55, 82
5, 271872, Note_on_c, 3, 43, 82
5, 272252, Note_off_c, 3, 55, 0
5, 272252, Note_off_c, 3, 43, 0
5, 272640, Note_on_c, 3, 57, 82
5, 272640, Note_on_c, 3, 45, 82
5, 273020, Note_off_c, 3, 57, 0
5, 273020, Note_off_c, 3, 45, 0
5, 273408, Note_on_c, 3, 50, 82
5, 273408, Note_on_c, 3, 38, 82
5, 273788, Note_off_c, 3, 50, 0
5, 273788, Note_off_c, 3, 38, 0
5, 274080, Note_on_c, 3, 45, 82
5, 274172, Note_off_c, 3, 45, 0
5, 274176, Note_on_c, 3, 57, 82
5, 274176, Note_on_c, 3, 45, 82
5, 274364, Note_off_c, 3, 57, 0
5, 274364, Note_off_c, 3, 45, 0
5, 274560, Note_on_c, 3, 58, 82
5, 274560, Note_on_c, 3, 46, 82
5, 274748, Note_off_c, 3, 58, 0
5, 274748, Note_off_c, 3, 46, 0
5, 274944, Note_on_c, 3, 59, 82
5, 274944, Note_on_c, 3, 47, 82
5, 275132, Note_off_c, 3, 59, 0
5, 275132, Note_off_c, 3, 47, 0
5, 275328, Note_on_c, 3, 55, 82
5, 275328, Note_on_c, 3, 43, 82
5, 275516, Note_off_c, 3, 55, 0
5, 275516, Note_off_c, 3, 43, 0
5, 276096, Note_on_c, 3, 57, 82
5, 276096, Note_on_c, 3, 45, 82
5, 276284, Note_off_c, 3, 57, 0
5, 276284, Note_off_c, 3, 45, 0
5, 276480, Note_on_c, 3, 50, 82
5, 276480, Note_on_c, 3, 38, 82
5, 276860, Note_off_c, 3, 50, 0
5, 276860, Note_off_c, 3, 38, 0
5, 277152, Note_on_c, 3, 45, 82
5, 277244, Note_off_c, 3, 45, 0
5, 277248, Note_on_c, 3, 57, 82
5, 277248, Note_on_c, 3, 45, 82
5, 277436, Note_off_c, 3, 57, 0
5, 277436, Note_off_c, 3, 45, 0
5, 277632, Note_on_c, 3, 58, 82
5, 277632, Note_on_c, 3, 46, 82
5, 277820, Note_off_c, 3, 58, 0
5, 277820, Note_off_c, 3, 46, 0
5, 278016, Note_on_c, 3, 59, 82
5, 278016, Note_on_c, 3, 47, 82
5, 278204, Note_off_c, 3, 59, 0
5, 278204, Note_off_c, 3, 47, 0
5, 278400, Note_on_c, 3, 55, 82
5, 278400, Note_on_c, 3, 43, 82
5, 278588, Note_off_c, 3, 55, 0
5, 278588, Note_off_c, 3, 43, 0
5, 281088, Note_on_c, 3, 57, 61
5, 281280, Note_on_c, 3, 64, 61
5, 281468, Note_off_c, 3, 57, 0
5, 281468, Note_off_c, 3, 64, 0
5, 281472, Note_on_c, 3, 57, 61
5, 281472, Note_on_c, 3, 63, 61
5, 281660, Note_off_c, 3, 63, 0
5, 281664, Note_on_c, 3, 64, 61
5, 281852, Note_off_c, 3, 57, 0
5, 281852, Note_off_c, 3, 64, 0
5, 281856, Note_on_c, 3, 57, 61
5, 281856, Note_on_c, 3, 63, 61
5, 282044, Note_off_c, 3, 63, 0
5, 282048, Note_on_c, 3, 64, 61
5, 282236, Note_off_c, 3, 57, 0
5, 282236, Note_off_c, 3, 64, 0
5, 282240, Note_on_c, 3, 57, 61
5, 282240, Note_on_c, 3, 66, 61
5, 282428, Note_off_c, 3, 66, 0
5, 282432, Note_on_c, 3, 64, 61
5, 282620, Note_off_c, 3, 57, 0
5, 282620, Note_off_c, 3, 64, 0
5, 282624, Note_on_c, 3, 65, 61
5, 282624, Note_on_c, 3, 62, 61
5, 282624, Note_on_c, 3, 58, 61
5, 284156, Note_off_c, 3, 65, 0
5, 284156, Note_off_c, 3, 62, 0
5, 284156, Note_off_c, 3, 58, 0
5, 284160, Note_on_c, 3, 63, 61
5, 284160, Note_on_c, 3, 60, 61
5, 284540, Note_off_c, 3, 63, 0
5, 284540, Note_off_c, 3, 60, 0
5, 284544, Note_on_c, 3, 60, 61
5, 284544, Note_on_c, 3, 57, 61
5, 284924, Note_off_c, 3, 60, 0
5, 284924, Note_off_c, 3, 57, 0
5, 284928, Note_on_c, 3, 57, 61
5, 284928, Note_on_c, 3, 51, 61
5, 285308, Note_off_c, 3, 57, 0
5, 285308, Note_off_c, 3, 51, 0
5, 285312, Note_on_c, 3, 51, 61
5, 285312, Note_on_c, 3, 48, 61
5, 285692, Note_off_c, 3, 51, 0
5, 285692, Note_off_c, 3, 48, 0
5, 285696, Note_on_c, 3, 53, 61
5, 285696, Note_on_c, 3, 50, 61
5, 285696, Note_on_c, 3, 46, 61
5, 287228, Note_off_c, 3, 53, 0
5, 287228, Note_off_c, 3, 50, 0
5, 287228, Note_off_c, 3, 46, 0
5, 287232, Note_on_c, 3, 53, 61
5, 287232, Note_on_c, 3, 51, 61
5, 287232, Note_on_c, 3, 48, 61
5, 287232, Note_on_c, 3, 45, 61
5, 288764, Note_off_c, 3, 53, 0
5, 288764, Note_off_c, 3, 51, 0
5, 288764, Note_off_c, 3, 48, 0
5, 288764, Note_off_c, 3, 45, 0
5, 288768, Note_on_c, 3, 53, 61
5, 288768, Note_on_c, 3, 46, 61
5, 289148, Note_off_c, 3, 53, 0
5, 289152, Note_on_c, 3, 58, 61
5, 289532, Note_off_c, 3, 46, 0
5, 289532, Note_off_c, 3, 58, 0
5, 289536, Note_on_c, 3, 44, 61
5, 290300, Note_off_c, 3, 44, 0
5, 290304, Note_on_c, 3, 53, 61
5, 290304, Note_on_c, 3, 43, 61
5, 290684, Note_off_c, 3, 53, 0
5, 290688, Note_on_c, 3, 59, 61
5, 291068, Note_off_c, 3, 59, 0
5, 291836, Note_off_c, 3, 43, 0
5, 291840, Note_on_c, 3, 62, 61
5, 291840, Note_on_c, 3, 59, 61
5, 291840, Note_on_c, 3, 54, 61
5, 293372, Note_off_c, 3, 62, 0
5, 293372, Note_off_c, 3, 59, 0
5, 293372, Note_off_c, 3, 54, 0
5, 293376, Note_on_c, 3, 62, 61
5, 293376, Note_on_c, 3, 59, 61
5, 293376, Note_on_c, 3, 52, 61
5, 294908, Note_off_c, 3, 62, 0
5, 294908, Note_off_c, 3, 59, 0
5, 294908, Note_off_c, 3, 52, 0
5, 294912, Note_on_c, 3, 60, 61
5, 294912, Note_on_c, 3, 57, 61
5, 296444, Note_off_c, 3, 60, 0
5, 296444, Note_off_c, 3, 57, 0
5, 296448, Note_on_c, 3, 62, 61
5, 296448, Note_on_c, 3, 59, 61
5, 296448, Note_on_c, 3, 56, 61
5, 296828, Note_off_c, 3, 62, 0
5, 296828, Note_off_c, 3, 59, 0
5, 296828, Note_off_c, 3, 56, 0
5, 296832, Note_on_c, 3, 59, 61
5, 296832, Note_on_c, 3, 56, 61
5, 297212, Note_off_c, 3, 59, 0
5, 297212, Note_off_c, 3, 56, 0
5, 297216, Note_on_c, 3, 56, 61
5, 297216, Note_on_c, 3, 50, 61
5, 297596, Note_off_c, 3, 56, 0
5, 297596, Note_off_c, 3, 50, 0
5, 297600, Note_on_c, 3, 50, 61
5, 297600, Note_on_c, 3, 47, 61
5, 297980, Note_off_c, 3, 50, 0
5, 297980, Note_off_c, 3, 47, 0
5, 297984, Note_on_c, 3, 48, 61
5, 297984, Note_on_c, 3, 45, 61
5, 299516, Note_off_c, 3, 48, 0
5, 299516, Note_off_c, 3, 45, 0
5, 299520, Note_on_c, 3, 64, 61
5, 299520, Note_on_c, 3, 59, 61
5, 299520, Note_on_c, 3, 56, 61
5, 301052, Note_off_c, 3, 64, 0
5, 301052, Note_off_c, 3, 59, 0
5, 301052, Note_off_c, 3, 56, 0
5, 301056, Note_on_c, 3, 52, 61
5, 301056, Note_on_c, 3, 45, 61
5, 301436, Note_off_c, 3, 52, 0
5, 301440, Note_on_c, 3, 57, 61
5, 301820, Note_off_c, 3, 45, 0
5, 301820, Note_off_c, 3, 57, 0
5, 301824, Note_on_c, 3, 43, 61
5, 302588, Note_off_c, 3, 43, 0
5, 302592, Note_on_c, 3, 52, 61
5, 302592, Note_on_c, 3, 42, 61
5, 302972, Note_off_c, 3, 52, 0
5, 302976, Note_on_c, 3, 58, 61
5, 303356, Note_off_c, 3, 58, 0
5, 304124, Note_off_c, 3, 42, 0
5, 304128, Note_on_c, 3, 53, 61
5, 304128, Note_on_c, 3, 58, 61
5, 304128, Note_on_c, 3, 61, 61
5, 305660, Note_off_c, 3, 53, 0
5, 305660, Note_off_c, 3, 58, 0
5, 305660, Note_off_c, 3, 61, 0
5, 305664, Note_on_c, 3, 51, 61
5, 305664, Note_on_c, 3, 58, 61
5, 305664, Note_on_c, 3, 61, 61
5, 307196, Note_off_c, 3, 51, 0
5, 307196, Note_off_c, 3, 58, 0
5, 307196, Note_off_c, 3, 61, 0
5, 307200, Note_on_c, 3, 62, 61
5, 307200, Note_on_c, 3, 58, 61
5, 307200, Note_on_c, 3, 50, 61
5, 308732, Note_off_c, 3, 62, 0
5, 308732, Note_off_c, 3, 58, 0
5, 308732, Note_off_c, 3, 50, 0
5, 308736, Note_on_c, 3, 49, 61
5, 308736, Note_on_c, 3, 37, 61
5, 309116, Note_off_c, 3, 49, 0
5, 309116, Note_off_c, 3, 37, 0
5, 309120, Note_on_c, 3, 52, 61
5, 309500, Note_off_c, 3, 52, 0
5, 309504, Note_on_c, 3, 55, 61
5, 309884, Note_off_c, 3, 55, 0
5, 309888, Note_on_c, 3, 61, 61
5, 310268, Note_off_c, 3, 61, 0
5, 310272, Note_on_c, 3, 48, 61
5, 310272, Note_on_c, 3, 36, 61
5, 310652, Note_off_c, 3, 48, 0
5, 310652, Note_off_c, 3, 36, 0
5, 310656, Note_on_c, 3, 52, 61
5, 311036, Note_off_c, 3, 52, 0
5, 311040, Note_on_c, 3, 55, 61
5, 311420, Note_off_c, 3, 55, 0
5, 311424, Note_on_c, 3, 60, 61
5, 311804, Note_off_c, 3, 60, 0
5, 311808, Note_on_c, 3, 59, 61
5, 311808, Note_on_c, 3, 47, 61
5, 312188, Note_off_c, 3, 59, 0
5, 312188, Note_off_c, 3, 47, 0
5, 317952, Note_on_c, 3, 59, 61
5, 317952, Note_on_c, 3, 63, 61
5, 318332, Note_off_c, 3, 59, 0
5, 318332, Note_off_c, 3, 63, 0
5, 318336, Note_on_c, 3, 59, 61
5, 318336, Note_on_c, 3, 63, 61
5, 318716, Note_off_c, 3, 59, 0
5, 318716, Note_off_c, 3, 63, 0
5, 318720, Note_on_c, 3, 59, 61
5, 318720, Note_on_c, 3, 62, 61
5, 319100, Note_off_c, 3, 59, 0
5, 319100, Note_off_c, 3, 62, 0
5, 319104, Note_on_c, 3, 59, 61
5, 319104, Note_on_c, 3, 62, 61
5, 319484, Note_off_c, 3, 59, 0
5, 319484, Note_off_c, 3, 62, 0
5, 319488, Note_on_c, 3, 57, 61
5, 319488, Note_on_c, 3, 62, 61
5, 319868, Note_off_c, 3, 57, 0
5, 319868, Note_off_c, 3, 62, 0
5, 319872, Note_on_c, 3, 57, 61
5, 319872, Note_on_c, 3, 62, 61
5, 320252, Note_off_c, 3, 57, 0
5, 320252, Note_off_c, 3, 62, 0
5, 320256, Note_on_c, 3, 57, 61
5, 320256, Note_on_c, 3, 60, 61
5, 320636, Note_off_c, 3, 57, 0
5, 320636, Note_off_c, 3, 60, 0
5, 320640, Note_on_c, 3, 57, 61
5, 320640, Note_on_c, 3, 60, 61
5, 321020, Note_off_c, 3, 57, 0
5, 321020, Note_off_c, 3, 60, 0
5, 321024, Note_on_c, 3, 60, 61
5, 321024, Note_on_c, 3, 55, 61
5, 321404, Note_off_c, 3, 60, 0
5, 321404, Note_off_c, 3, 55, 0
5, 321408, Note_on_c, 3, 60, 61
5, 321408, Note_on_c, 3, 55, 61
5, 321788, Note_off_c, 3, 60, 0
5, 321788, Note_off_c, 3, 55, 0
5, 321792, Note_on_c, 3, 61, 61
5, 321792, Note_on_c, 3, 55, 61
5, 322172, Note_off_c, 3, 61, 0
5, 322172, Note_off_c, 3, 55, 0
5, 322176, Note_on_c, 3, 61, 61
5, 322176, Note_on_c, 3, 55, 61
5, 322556, Note_off_c, 3, 61, 0
5, 322556, Note_off_c, 3, 55, 0
5, 322560, Note_on_c, 3, 61, 61
5, 322560, Note_on_c, 3, 55, 61
5, 322940, Note_off_c, 3, 61, 0
5, 322940, Note_off_c, 3, 55, 0
5, 322944, Note_on_c, 3, 62, 61
5, 322944, Note_on_c, 3, 55, 61
5, 323324, Note_off_c, 3, 62, 0
5, 323324, Note_off_c, 3, 55, 0
5, 323328, Note_on_c, 3, 65, 61
5, 323328, Note_on_c, 3, 55, 61
5, 323708, Note_off_c, 3, 65, 0
5, 323708, Note_off_c, 3, 55, 0
5, 323712, Note_on_c, 3, 65, 61
5, 323712, Note_on_c, 3, 55, 61
5, 324092, Note_off_c, 3, 65, 0
5, 324092, Note_off_c, 3, 55, 0
5, 324096, Note_on_c, 3, 63, 61
5, 324096, Note_on_c, 3, 60, 61
5, 325628, Note_off_c, 3, 63, 0
5, 325628, Note_off_c, 3, 60, 0
5, 325632, Note_on_c, 3, 63, 61
5, 325632, Note_on_c, 3, 60, 61
5, 327164, Note_off_c, 3, 63, 0
5, 327164, Note_off_c, 3, 60, 0
5, 327168, Note_on_c, 3, 60, 61
5, 327168, Note_on_c, 3, 62, 61
5, 327168, Note_on_c, 3, 54, 61
5, 327548, Note_off_c, 3, 54, 0
5, 328700, Note_off_c, 3, 60, 0
5, 328700, Note_off_c, 3, 62, 0
5, 328704, Note_on_c, 3, 54, 61
5, 328704, Note_on_c, 3, 60, 61
5, 328704, Note_on_c, 3, 62, 61
5, 329084, Note_off_c, 3, 54, 0
5, 330236, Note_off_c, 3, 60, 0
5, 330236, Note_off_c, 3, 62, 0
5, 330240, Note_on_c, 3, 55, 61
5, 330240, Note_on_c, 3, 62, 61
5, 330240, Note_on_c, 3, 58, 61
5, 330620, Note_off_c, 3, 55, 0
5, 331772, Note_off_c, 3, 62, 0
5, 331772, Note_off_c, 3, 58, 0
5, 331776, Note_on_c, 3, 62, 61
5, 331776, Note_on_c, 3, 58, 61
5, 331776, Note_on_c, 3, 55, 61
5, 332156, Note_off_c, 3, 55, 0
5, 333308, Note_off_c, 3, 62, 0
5, 333308, Note_off_c, 3, 58, 0
5, 333312, Note_on_c, 3, 61, 61
5, 333312, Note_on_c, 3, 58, 61
5, 333312, Note_on_c, 3, 51, 61
5, 333692, Note_off_c, 3, 51, 0
5, 334844, Note_off_c, 3, 61, 0
5, 334844, Note_off_c, 3, 58, 0
5, 334848, Note_on_c, 3, 60, 61
5, 334848, Note_on_c, 3, 55, 61
5, 334848, Note_on_c, 3, 51, 61
5, 335228, Note_off_c, 3, 51, 0
5, 336380, Note_off_c, 3, 60, 0
5, 336380, Note_off_c, 3, 55, 0
5, 336384, Note_on_c, 3, 62, 61
5, 336384, Note_on_c, 3, 50, 61
5, 344444, Note_off_c, 3, 50, 0
5, 344444, Note_off_c, 3, 62, 0
5, 345984, Note_on_c, 3, 62, 61
5, 345984, Note_on_c, 3, 57, 61
5, 345984, Note_on_c, 3, 50, 61
5, 346172, Note_off_c, 3, 62, 0
5, 346172, Note_off_c, 3, 57, 0
5, 346172, Note_off_c, 3, 50, 0
5, 346368, Note_on_c, 3, 62, 61
5, 346368, Note_on_c, 3, 57, 61
5, 346368, Note_on_c, 3, 50, 61
5, 346556, Note_off_c, 3, 62, 0
5, 346556, Note_off_c, 3, 57, 0
5, 346556, Note_off_c, 3, 50, 0
5, 346752, Note_on_c, 3, 62, 61
5, 346752, Note_on_c, 3, 57, 61
5, 346752, Note_on_c, 3, 50, 61
5, 346940, Note_off_c, 3, 62, 0
5, 346940, Note_off_c, 3, 57, 0
5, 346940, Note_off_c, 3, 50, 0
5, 347136, Note_on_c, 3, 62, 61
5, 347136, Note_on_c, 3, 57, 61
5, 347136, Note_on_c, 3, 50, 61
5, 347516, Note_off_c, 3, 62, 0
5, 347516, Note_off_c, 3, 57, 0
5, 347516, Note_off_c, 3, 50, 0
5, 350208, Note_on_c, 3, 43, 61
5, 350300, Note_off_c, 3, 43, 0
5, 350400, Note_on_c, 3, 59, 61
5, 350400, Note_on_c, 3, 55, 61
5, 350492, Note_off_c, 3, 59, 0
5, 350492, Note_off_c, 3, 55, 0
5, 350592, Note_on_c, 3, 59, 61
5, 350592, Note_on_c, 3, 62, 61
5, 350684, Note_off_c, 3, 59, 0
5, 350684, Note_off_c, 3, 62, 0
5, 350784, Note_on_c, 3, 55, 61
5, 350784, Note_on_c, 3, 59, 61
5, 350876, Note_off_c, 3, 55, 0
5, 350876, Note_off_c, 3, 59, 0
5, 350976, Note_on_c, 3, 59, 61
5, 350976, Note_on_c, 3, 62, 61
5, 351068, Note_off_c, 3, 59, 0
5, 351068, Note_off_c, 3, 62, 0
5, 351168, Note_on_c, 3, 55, 61
5, 351168, Note_on_c, 3, 59, 61
5, 351260, Note_off_c, 3, 55, 0
5, 351260, Note_off_c, 3, 59, 0
5, 351360, Note_on_c, 3, 59, 61
5, 351360, Note_on_c, 3, 62, 61
5, 351452, Note_off_c, 3, 59, 0
5, 351452, Note_off_c, 3, 62, 0
5, 351552, Note_on_c, 3, 55, 61
5, 351552, Note_on_c, 3, 59, 61
5, 351644, Note_off_c, 3, 55, 0
5, 351644, Note_off_c, 3, 59, 0
5, 351744, Note_on_c, 3, 59, 61
5, 351744, Note_on_c, 3, 62, 61
5, 351836, Note_off_c, 3, 59, 0
5, 351836, Note_off_c, 3, 62, 0
5, 351936, Note_on_c, 3, 59, 61
5, 351936, Note_on_c, 3, 55, 61
5, 352028, Note_off_c, 3, 59, 0
5, 352028, Note_off_c, 3, 55, 0
5, 352128, Note_on_c, 3, 59, 61
5, 352128, Note_on_c, 3, 62, 61
5, 352220, Note_off_c, 3, 59, 0
5, 352220, Note_off_c, 3, 62, 0
5, 352320, Note_on_c, 3, 55, 61
5, 352320, Note_on_c, 3, 59, 61
5, 352412, Note_off_c, 3, 55, 0
5, 352412, Note_off_c, 3, 59, 0
5, 352512, Note_on_c, 3, 59, 61
5, 352512, Note_on_c, 3, 62, 61
5, 352604, Note_off_c, 3, 59, 0
5, 352604, Note_off_c, 3, 62, 0
5, 352704, Note_on_c, 3, 59, 61
5, 352704, Note_on_c, 3, 55, 61
5, 352796, Note_off_c, 3, 59, 0
5, 352796, Note_off_c, 3, 55, 0
5, 352896, Note_on_c, 3, 59, 61
5, 352896, Note_on_c, 3, 62, 61
5, 352988, Note_off_c, 3, 59, 0
5, 352988, Note_off_c, 3, 62, 0
5, 353088, Note_on_c, 3, 59, 61
5, 353088, Note_on_c, 3, 55, 61
5, 353180, Note_off_c, 3, 59, 0
5, 353180, Note_off_c, 3, 55, 0
5, 353280, Note_on_c, 3, 43, 61
5, 353372, Note_off_c, 3, 43, 0
5, 353472, Note_on_c, 3, 55, 61
5, 353472, Note_on_c, 3, 60, 61
5, 353564, Note_off_c, 3, 55, 0
5, 353564, Note_off_c, 3, 60, 0
5, 353664, Note_on_c, 3, 60, 61
5, 353664, Note_on_c, 3, 64, 61
5, 353756, Note_off_c, 3, 60, 0
5, 353756, Note_off_c, 3, 64, 0
5, 353856, Note_on_c, 3, 55, 61
5, 353856, Note_on_c, 3, 60, 61
5, 353948, Note_off_c, 3, 55, 0
5, 353948, Note_off_c, 3, 60, 0
5, 354048, Note_on_c, 3, 60, 61
5, 354048, Note_on_c, 3, 64, 61
5, 354140, Note_off_c, 3, 60, 0
5, 354140, Note_off_c, 3, 64, 0
5, 354240, Note_on_c, 3, 55, 61
5, 354240, Note_on_c, 3, 60, 61
5, 354332, Note_off_c, 3, 55, 0
5, 354332, Note_off_c, 3, 60, 0
5, 354432, Note_on_c, 3, 60, 61
5, 354432, Note_on_c, 3, 64, 61
5, 354524, Note_off_c, 3, 60, 0
5, 354524, Note_off_c, 3, 64, 0
5, 354624, Note_on_c, 3, 60, 61
5, 354624, Note_on_c, 3, 55, 61
5, 354716, Note_off_c, 3, 60, 0
5, 354716, Note_off_c, 3, 55, 0
5, 354816, Note_on_c, 3, 60, 61
5, 354816, Note_on_c, 3, 64, 61
5, 354908, Note_off_c, 3, 60, 0
5, 354908, Note_off_c, 3, 64, 0
5, 355008, Note_on_c, 3, 60, 61
5, 355008, Note_on_c, 3, 55, 61
5, 355100, Note_off_c, 3, 60, 0
5, 355100, Note_off_c, 3, 55, 0
5, 355200, Note_on_c, 3, 60, 61
5, 355200, Note_on_c, 3, 64, 61
5, 355292, Note_off_c, 3, 60, 0
5, 355292, Note_off_c, 3, 64, 0
5, 355392, Note_on_c, 3, 55, 61
5, 355392, Note_on_c, 3, 60, 61
5, 355484, Note_off_c, 3, 55, 0
5, 355484, Note_off_c, 3, 60, 0
5, 355584, Note_on_c, 3, 64, 61
5, 355584, Note_on_c, 3, 60, 61
5, 355676, Note_off_c, 3, 64, 0
5, 355676, Note_off_c, 3, 60, 0
5, 355776, Note_on_c, 3, 60, 61
5, 355776, Note_on_c, 3, 55, 61
5, 355868, Note_off_c, 3, 60, 0
5, 355868, Note_off_c, 3, 55, 0
5, 355968, Note_on_c, 3, 60, 61
5, 355968, Note_on_c, 3, 64, 61
5, 356060, Note_off_c, 3, 60, 0
5, 356060, Note_off_c, 3, 64, 0
5, 356160, Note_on_c, 3, 60, 61
5, 356160, Note_on_c, 3, 55, 61
5, 356252, Note_off_c, 3, 60, 0
5, 356252, Note_off_c, 3, 55, 0
5, 356352, Note_on_c, 3, 43, 61
5, 356444, Note_off_c, 3, 43, 0
5, 356544, Note_on_c, 3, 55, 61
5, 356544, Note_on_c, 3, 60, 61
5, 356636, Note_off_c, 3, 55, 0
5, 356636, Note_off_c, 3, 60, 0
5, 356736, Note_on_c, 3, 60, 61
5, 356736, Note_on_c, 3, 64, 61
5, 356828, Note_off_c, 3, 60, 0
5, 356828, Note_off_c, 3, 64, 0
5, 356928, Note_on_c, 3, 55, 61
5, 356928, Note_on_c, 3, 60, 61
5, 357020, Note_off_c, 3, 55, 0
5, 357020, Note_off_c, 3, 60, 0
5, 357120, Note_on_c, 3, 60, 61
5, 357120, Note_on_c, 3, 64, 61
5, 357212, Note_off_c, 3, 60, 0
5, 357212, Note_off_c, 3, 64, 0
5, 357312, Note_on_c, 3, 60, 61
5, 357312, Note_on_c, 3, 55, 61
5, 357404, Note_off_c, 3, 60, 0
5, 357404, Note_off_c, 3, 55, 0
5, 357504, Note_on_c, 3, 60, 61
5, 357504, Note_on_c, 3, 64, 61
5, 357596, Note_off_c, 3, 60, 0
5, 357596, Note_off_c, 3, 64, 0
5, 357696, Note_on_c, 3, 60, 61
5, 357696, Note_on_c, 3, 55, 61
5, 357788, Note_off_c, 3, 60, 0
5, 357788, Note_off_c, 3, 55, 0
5, 357888, Note_on_c, 3, 60, 61
5, 357888, Note_on_c, 3, 64, 61
5, 357980, Note_off_c, 3, 60, 0
5, 357980, Note_off_c, 3, 64, 0
5, 358080, Note_on_c, 3, 60, 61
5, 358080, Note_on_c, 3, 55, 61
5, 358172, Note_off_c, 3, 60, 0
5, 358172, Note_off_c, 3, 55, 0
5, 358272, Note_on_c, 3, 60, 61
5, 358272, Note_on_c, 3, 64, 61
5, 358364, Note_off_c, 3, 60, 0
5, 358364, Note_off_c, 3, 64, 0
5, 358464, Note_on_c, 3, 60, 61
5, 358464, Note_on_c, 3, 55, 61
5, 358556, Note_off_c, 3, 60, 0
5, 358556, Note_off_c, 3, 55, 0
5, 358656, Note_on_c, 3, 60, 61
5, 358656, Note_on_c, 3, 64, 61
5, 358748, Note_off_c, 3, 60, 0
5, 358748, Note_off_c, 3, 64, 0
5, 358848, Note_on_c, 3, 60, 61
5, 358848, Note_on_c, 3, 55, 61
5, 358940, Note_off_c, 3, 60, 0
5, 358940, Note_off_c, 3, 55, 0
5, 359040, Note_on_c, 3, 60, 61
5, 359040, Note_on_c, 3, 64, 61
5, 359132, Note_off_c, 3, 60, 0
5, 359132, Note_off_c, 3, 64, 0
5, 359232, Note_on_c, 3, 60, 61
5, 359232, Note_on_c, 3, 55, 61
5, 359324, Note_off_c, 3, 60, 0
5, 359324, Note_off_c, 3, 55, 0
5, 359424, Note_on_c, 3, 43, 61
5, 359516, Note_off_c, 3, 43, 0
5, 359616, Note_on_c, 3, 59, 61
5, 359616, Note_on_c, 3, 55, 61
5, 359708, Note_off_c, 3, 59, 0
5, 359708, Note_off_c, 3, 55, 0
5, 359808, Note_on_c, 3, 59, 61
5, 359808, Note_on_c, 3, 62, 61
5, 359900, Note_off_c, 3, 59, 0
5, 359900, Note_off_c, 3, 62, 0
5, 360000, Note_on_c, 3, 59, 61
5, 360000, Note_on_c, 3, 55, 61
5, 360092, Note_off_c, 3, 59, 0
5, 360092, Note_off_c, 3, 55, 0
5, 360192, Note_on_c, 3, 59, 61
5, 360192, Note_on_c, 3, 62, 61
5, 360284, Note_off_c, 3, 59, 0
5, 360284, Note_off_c, 3, 62, 0
5, 360384, Note_on_c, 3, 59, 61
5, 360384, Note_on_c, 3, 55, 61
5, 360476, Note_off_c, 3, 59, 0
5, 360476, Note_off_c, 3, 55, 0
5, 360576, Note_on_c, 3, 59, 61
5, 360576, Note_on_c, 3, 62, 61
5, 360668, Note_off_c, 3, 59, 0
5, 360668, Note_off_c, 3, 62, 0
5, 360768, Note_on_c, 3, 59, 61
5, 360768, Note_on_c, 3, 55, 61
5, 360860, Note_off_c, 3, 59, 0
5, 360860, Note_off_c, 3, 55, 0
5, 360960, Note_on_c, 3, 62, 61
5, 360960, Note_on_c, 3, 55, 61
5, 361340, Note_off_c, 3, 62, 0
5, 361340, Note_off_c, 3, 55, 0
5, 362496, Note_on_c, 3, 54, 82
5, 362496, Note_on_c, 3, 50, 82
5, 363068, Note_off_c, 3, 54, 0
5, 363072, Note_on_c, 3, 55, 61
5, 363124, Note_off_c, 3, 55, 0
5, 363136, Note_on_c, 3, 57, 61
5, 363188, Note_off_c, 3, 57, 0
5, 363200, Note_on_c, 3, 59, 61
5, 363252, Note_off_c, 3, 59, 0
5, 363260, Note_off_c, 3, 50, 0
5, 363264, Note_on_c, 3, 60, 61
5, 363264, Note_on_c, 3, 57, 61
5, 363264, Note_on_c, 3, 50, 61
5, 363644, Note_off_c, 3, 60, 0
5, 363644, Note_off_c, 3, 57, 0
5, 363644, Note_off_c, 3, 50, 0
5, 364032, Note_on_c, 3, 62, 61
5, 364220, Note_off_c, 3, 62, 0
5, 365568, Note_on_c, 3, 60, 79
5, 365568, Note_on_c, 3, 57, 79
5, 365568, Note_on_c, 3, 54, 79
5, 365568, Note_on_c, 3, 50, 79
5, 366332, Note_off_c, 3, 60, 0
5, 366332, Note_off_c, 3, 57, 0
5, 366332, Note_off_c, 3, 54, 0
5, 366332, Note_off_c, 3, 50, 0
5, 366336, Note_on_c, 3, 60, 61
5, 366336, Note_on_c, 3, 57, 61
5, 366336, Note_on_c, 3, 54, 61
5, 366336, Note_on_c, 3, 50, 61
5, 366716, Note_off_c, 3, 60, 0
5, 366716, Note_off_c, 3, 57, 0
5, 366716, Note_off_c, 3, 54, 0
5, 366716, Note_off_c, 3, 50, 0
5, 367104, Note_on_c, 3, 64, 61
5, 367104, Note_on_c, 3, 60, 61
5, 367104, Note_on_c, 3, 57, 61
5, 367104, Note_on_c, 3, 54, 61
5, 368636, Note_off_c, 3, 64, 0
5, 368636, Note_off_c, 3, 60, 0
5, 368636, Note_off_c, 3, 57, 0
5, 368636, Note_off_c, 3, 54, 0
5, 368640, Note_on_c, 3, 62, 61
5, 368640, Note_on_c, 3, 59, 61
5, 368640, Note_on_c, 3, 55, 61
5, 370172, Note_off_c, 3, 62, 0
5, 370172, Note_off_c, 3, 59, 0
5, 370172, Note_off_c, 3, 55, 0
5, 370176, Note_on_c, 3, 64, 61
5, 370176, Note_on_c, 3, 48, 61
5, 370940, Note_off_c, 3, 64, 0
5, 370940, Note_off_c, 3, 48, 0
5, 370944, Note_on_c, 3, 50, 61
5, 370944, Note_on_c, 3, 62, 61
5, 371324, Note_off_c, 3, 62, 0
5, 371328, Note_on_c, 3, 60, 61
5, 371708, Note_off_c, 3, 50, 0
5, 371708, Note_off_c, 3, 60, 0
5, 371712, Note_on_c, 3, 59, 74
5, 371712, Note_on_c, 3, 55, 74
5, 371804, Note_off_c, 3, 59, 0
5, 371804, Note_off_c, 3, 55, 0
5, 371808, Note_on_c, 3, 62, 74
5, 371900, Note_off_c, 3, 62, 0
5, 371904, Note_on_c, 3, 59, 74
5, 371904, Note_on_c, 3, 55, 74
5, 371996, Note_off_c, 3, 59, 0
5, 371996, Note_off_c, 3, 55, 0
5, 372000, Note_on_c, 3, 62, 74
5, 372092, Note_off_c, 3, 62, 0
5, 372096, Note_on_c, 3, 55, 74
5, 372096, Note_on_c, 3, 59, 74
5, 372188, Note_off_c, 3, 55, 0
5, 372188, Note_off_c, 3, 59, 0
5, 372192, Note_on_c, 3, 62, 74
5, 372284, Note_off_c, 3, 62, 0
5, 372288, Note_on_c, 3, 59, 74
5, 372288, Note_on_c, 3, 55, 74
5, 372380, Note_off_c, 3, 59, 0
5, 372380, Note_off_c, 3, 55, 0
5, 372384, Note_on_c, 3, 62, 74
5, 372476, Note_off_c, 3, 62, 0
5, 372480, Note_on_c, 3, 59, 74
5, 372480, Note_on_c, 3, 55, 74
5, 372572, Note_off_c, 3, 59, 0
5, 372572, Note_off_c, 3, 55, 0
5, 372576, Note_on_c, 3, 62, 74
5, 372668, Note_off_c, 3, 62, 0
5, 372672, Note_on_c, 3, 59, 74
5, 372672, Note_on_c, 3, 55, 74
5, 372764, Note_off_c, 3, 59, 0
5, 372764, Note_off_c, 3, 55, 0
5, 372768, Note_on_c, 3, 62, 74
5, 372860, Note_off_c, 3, 62, 0
5, 372864, Note_on_c, 3, 59, 74
5, 372864, Note_on_c, 3, 55, 74
5, 372956, Note_off_c, 3, 59, 0
5, 372956, Note_off_c, 3, 55, 0
5, 372960, Note_on_c, 3, 62, 74
5, 373052, Note_off_c, 3, 62, 0
5, 373056, Note_on_c, 3, 59, 74
5, 373056, Note_on_c, 3, 55, 74
5, 373148, Note_off_c, 3, 59, 0
5, 373148, Note_off_c, 3, 55, 0
5, 373152, Note_on_c, 3, 62, 74
5, 373244, Note_off_c, 3, 62, 0
5, 373248, Note_on_c, 3, 60, 74
5, 373248, Note_on_c, 3, 55, 74
5, 373340, Note_off_c, 3, 60, 0
5, 373340, Note_off_c, 3, 55, 0
5, 373344, Note_on_c, 3, 64, 74
5, 373436, Note_off_c, 3, 64, 0
5, 373440, Note_on_c, 3, 60, 74
5, 373440, Note_on_c, 3, 55, 74
5, 373532, Note_off_c, 3, 60, 0
5, 373532, Note_off_c, 3, 55, 0
5, 373536, Note_on_c, 3, 64, 74
5, 373628, Note_off_c, 3, 64, 0
5, 373632, Note_on_c, 3, 60, 74
5, 373632, Note_on_c, 3, 55, 74
5, 373724, Note_off_c, 3, 60, 0
5, 373724, Note_off_c, 3, 55, 0
5, 373728, Note_on_c, 3, 64, 74
5, 373820, Note_off_c, 3, 64, 0
5, 373824, Note_on_c, 3, 60, 74
5, 373824, Note_on_c, 3, 55, 74
5, 373916, Note_off_c, 3, 60, 0
5, 373916, Note_off_c, 3, 55, 0
5, 373920, Note_on_c, 3, 64, 74
5, 374012, Note_off_c, 3, 64, 0
5, 374016, Note_on_c, 3, 60, 74
5, 374016, Note_on_c, 3, 55, 74
5, 374108, Note_off_c, 3, 60, 0
5, 374108, Note_off_c, 3, 55, 0
5, 374112, Note_on_c, 3, 65, 74
5, 374204, Note_off_c, 3, 65, 0
5, 374208, Note_on_c, 3, 60, 74
5, 374208, Note_on_c, 3, 55, 74
5, 374300, Note_off_c, 3, 60, 0
5, 374300, Note_off_c, 3, 55, 0
5, 374304, Note_on_c, 3, 65, 74
5, 374396, Note_off_c, 3, 65, 0
5, 374400, Note_on_c, 3, 60, 74
5, 374400, Note_on_c, 3, 55, 74
5, 374492, Note_off_c, 3, 60, 0
5, 374492, Note_off_c, 3, 55, 0
5, 374496, Note_on_c, 3, 65, 74
5, 374588, Note_off_c, 3, 65, 0
5, 374592, Note_on_c, 3, 60, 74
5, 374592, Note_on_c, 3, 55, 74
5, 374684, Note_off_c, 3, 60, 0
5, 374684, Note_off_c, 3, 55, 0
5, 374688, Note_on_c, 3, 65, 74
5, 374780, Note_off_c, 3, 65, 0
5, 374784, Note_on_c, 3, 60, 74
5, 374784, Note_on_c, 3, 55, 74
5, 374876, Note_off_c, 3, 60, 0
5, 374876, Note_off_c, 3, 55, 0
5, 374880, Note_on_c, 3, 64, 74
5, 374972, Note_off_c, 3, 64, 0
5, 374976, Note_on_c, 3, 60, 74
5, 374976, Note_on_c, 3, 55, 74
5, 375068, Note_off_c, 3, 60, 0
5, 375068, Note_off_c, 3, 55, 0
5, 375072, Note_on_c, 3, 64, 74
5, 375164, Note_off_c, 3, 64, 0
5, 375168, Note_on_c, 3, 60, 74
5, 375168, Note_on_c, 3, 55, 74
5, 375260, Note_off_c, 3, 60, 0
5, 375260, Note_off_c, 3, 55, 0
5, 375264, Note_on_c, 3, 64, 74
5, 375356, Note_off_c, 3, 64, 0
5, 375360, Note_on_c, 3, 60, 74
5, 375360, Note_on_c, 3, 55, 74
5, 375452, Note_off_c, 3, 60, 0
5, 375452, Note_off_c, 3, 55, 0
5, 375456, Note_on_c, 3, 64, 74
5, 375548, Note_off_c, 3, 64, 0
5, 375552, Note_on_c, 3, 57, 74
5, 375552, Note_on_c, 3, 55, 74
5, 375644, Note_off_c, 3, 57, 0
5, 375644, Note_off_c, 3, 55, 0
5, 375648, Note_on_c, 3, 60, 74
5, 375740, Note_off_c, 3, 60, 0
5, 375744, Note_on_c, 3, 57, 74
5, 375744, Note_on_c, 3, 55, 74
5, 375836, Note_off_c, 3, 57, 0
5, 375836, Note_off_c, 3, 55, 0
5, 375840, Note_on_c, 3, 60, 74
5, 375932, Note_off_c, 3, 60, 0
5, 375936, Note_on_c, 3, 57, 74
5, 375936, Note_on_c, 3, 55, 74
5, 376028, Note_off_c, 3, 57, 0
5, 376028, Note_off_c, 3, 55, 0
5, 376032, Note_on_c, 3, 60, 74
5, 376124, Note_off_c, 3, 60, 0
5, 376128, Note_on_c, 3, 57, 74
5, 376128, Note_on_c, 3, 55, 74
5, 376220, Note_off_c, 3, 57, 0
5, 376220, Note_off_c, 3, 55, 0
5, 376224, Note_on_c, 3, 60, 74
5, 376316, Note_off_c, 3, 60, 0
5, 376320, Note_on_c, 3, 55, 74
5, 376320, Note_on_c, 3, 59, 74
5, 376412, Note_off_c, 3, 55, 0
5, 376412, Note_off_c, 3, 59, 0
5, 376416, Note_on_c, 3, 62, 74
5, 376508, Note_off_c, 3, 62, 0
5, 376512, Note_on_c, 3, 55, 74
5, 376512, Note_on_c, 3, 59, 74
5, 376604, Note_off_c, 3, 55, 0
5, 376604, Note_off_c, 3, 59, 0
5, 376608, Note_on_c, 3, 62, 74
5, 376700, Note_off_c, 3, 62, 0
5, 376704, Note_on_c, 3, 55, 74
5, 376704, Note_on_c, 3, 59, 74
5, 376796, Note_off_c, 3, 55, 0
5, 376796, Note_off_c, 3, 59, 0
5, 376800, Note_on_c, 3, 62, 74
5, 376892, Note_off_c, 3, 62, 0
5, 376896, Note_on_c, 3, 55, 74
5, 376896, Note_on_c, 3, 59, 74
5, 376988, Note_off_c, 3, 55, 0
5, 376988, Note_off_c, 3, 59, 0
5, 376992, Note_on_c, 3, 62, 74
5, 377084, Note_off_c, 3, 62, 0
5, 377088, Note_on_c, 3, 55, 74
5, 377088, Note_on_c, 3, 59, 74
5, 377180, Note_off_c, 3, 55, 0
5, 377180, Note_off_c, 3, 59, 0
5, 377184, Note_on_c, 3, 62, 74
5, 377276, Note_off_c, 3, 62, 0
5, 377280, Note_on_c, 3, 55, 74
5, 377280, Note_on_c, 3, 59, 74
5, 377372, Note_off_c, 3, 55, 0
5, 377372, Note_off_c, 3, 59, 0
5, 377376, Note_on_c, 3, 62, 74
5, 377468, Note_off_c, 3, 62, 0
5, 377472, Note_on_c, 3, 55, 74
5, 377472, Note_on_c, 3, 59, 74
5, 377564, Note_off_c, 3, 55, 0
5, 377564, Note_off_c, 3, 59, 0
5, 377568, Note_on_c, 3, 62, 74
5, 377660, Note_off_c, 3, 62, 0
5, 377664, Note_on_c, 3, 55, 74
5, 377664, Note_on_c, 3, 59, 74
5, 377756, Note_off_c, 3, 55, 0
5, 377756, Note_off_c, 3, 59, 0
5, 377760, Note_on_c, 3, 62, 74
5, 377852, Note_off_c, 3, 62, 0
5, 377856, Note_on_c, 3, 55, 74
5, 377856, Note_on_c, 3, 60, 74
5, 377948, Note_off_c, 3, 55, 0
5, 377948, Note_off_c, 3, 60, 0
5, 377952, Note_on_c, 3, 64, 74
5, 378044, Note_off_c, 3, 64, 0
5, 378048, Note_on_c, 3, 60, 74
5, 378048, Note_on_c, 3, 55, 74
5, 378140, Note_off_c, 3, 60, 0
5, 378140, Note_off_c, 3, 55, 0
5, 378144, Note_on_c, 3, 64, 74
5, 378236, Note_off_c, 3, 64, 0
5, 378240, Note_on_c, 3, 60, 74
5, 378240, Note_on_c, 3, 55, 74
5, 378332, Note_off_c, 3, 60, 0
5, 378332, Note_off_c, 3, 55, 0
5, 378336, Note_on_c, 3, 64, 74
5, 378428, Note_off_c, 3, 64, 0
5, 378432, Note_on_c, 3, 60, 74
5, 378432, Note_on_c, 3, 55, 74
5, 378524, Note_off_c, 3, 60, 0
5, 378524, Note_off_c, 3, 55, 0
5, 378528, Note_on_c, 3, 64, 74
5, 378620, Note_off_c, 3, 64, 0
5, 378624, Note_on_c, 3, 62, 74
5, 378624, Note_on_c, 3, 55, 74
5, 378716, Note_off_c, 3, 62, 0
5, 378716, Note_off_c, 3, 55, 0
5, 378720, Note_on_c, 3, 65, 74
5, 378812, Note_off_c, 3, 65, 0
5, 378816, Note_on_c, 3, 62, 74
5, 378816, Note_on_c, 3, 55, 74
5, 378908, Note_off_c, 3, 62, 0
5, 378908, Note_off_c, 3, 55, 0
5, 378912, Note_on_c, 3, 65, 74
5, 379004, Note_off_c, 3, 65, 0
5, 379008, Note_on_c, 3, 62, 74
5, 379008, Note_on_c, 3, 55, 74
5, 379100, Note_off_c, 3, 62, 0
5, 379100, Note_off_c, 3, 55, 0
5, 379104, Note_on_c, 3, 65, 74
5, 379196, Note_off_c, 3, 65, 0
5, 379200, Note_on_c, 3, 62, 74
5, 379200, Note_on_c, 3, 55, 74
5, 379292, Note_off_c, 3, 62, 0
5, 379292, Note_off_c, 3, 55, 0
5, 379296, Note_on_c, 3, 65, 74
5, 379388, Note_off_c, 3, 65, 0
5, 379392, Note_on_c, 3, 60, 74
5, 379392, Note_on_c, 3, 55, 74
5, 379484, Note_off_c, 3, 60, 0
5, 379484, Note_off_c, 3, 55, 0
5, 379488, Note_on_c, 3, 64, 74
5, 379580, Note_off_c, 3, 64, 0
5, 379584, Note_on_c, 3, 60, 74
5, 379584, Note_on_c, 3, 55, 74
5, 379676, Note_off_c, 3, 60, 0
5, 379676, Note_off_c, 3, 55, 0
5, 379680, Note_on_c, 3, 64, 74
5, 379772, Note_off_c, 3, 64, 0
5, 379776, Note_on_c, 3, 60, 74
5, 379776, Note_on_c, 3, 55, 74
5, 379868, Note_off_c, 3, 60, 0
5, 379868, Note_off_c, 3, 55, 0
5, 379872, Note_on_c, 3, 64, 74
5, 379964, Note_off_c, 3, 64, 0
5, 379968, Note_on_c, 3, 60, 74
5, 379968, Note_on_c, 3, 55, 74
5, 380060, Note_off_c, 3, 60, 0
5, 380060, Note_off_c, 3, 55, 0
5, 380064, Note_on_c, 3, 64, 74
5, 380156, Note_off_c, 3, 64, 0
5, 380160, Note_on_c, 3, 57, 74
5, 380160, Note_on_c, 3, 55, 74
5, 380252, Note_off_c, 3, 57, 0
5, 380252, Note_off_c, 3, 55, 0
5, 380256, Note_on_c, 3, 60, 74
5, 380348, Note_off_c, 3, 60, 0
5, 380352, Note_on_c, 3, 57, 74
5, 380352, Note_on_c, 3, 55, 74
5, 380444, Note_off_c, 3, 57, 0
5, 380444, Note_off_c, 3, 55, 0
5, 380448, Note_on_c, 3, 60, 74
5, 380540, Note_off_c, 3, 60, 0
5, 380544, Note_on_c, 3, 57, 74
5, 380544, Note_on_c, 3, 55, 74
5, 380636, Note_off_c, 3, 57, 0
5, 380636, Note_off_c, 3, 55, 0
5, 380640, Note_on_c, 3, 60, 74
5, 380732, Note_off_c, 3, 60, 0
5, 380736, Note_on_c, 3, 57, 74
5, 380736, Note_on_c, 3, 55, 74
5, 380828, Note_off_c, 3, 57, 0
5, 380828, Note_off_c, 3, 55, 0
5, 380832, Note_on_c, 3, 60, 74
5, 380924, Note_off_c, 3, 60, 0
5, 380928, Note_on_c, 3, 59, 82
5, 380928, Note_on_c, 3, 55, 82
5, 381308, Note_off_c, 3, 59, 0
5, 381308, Note_off_c, 3, 55, 0
5, 381312, Note_on_c, 3, 59, 82
5, 381596, Note_off_c, 3, 59, 0
5, 381600, Note_on_c, 3, 55, 82
5, 381692, Note_off_c, 3, 55, 0
5, 381696, Note_on_c, 3, 60, 82
5, 381696, Note_on_c, 3, 57, 82
5, 381696, Note_on_c, 3, 54, 82
5, 381696, Note_on_c, 3, 50, 82
5, 382076, Note_off_c, 3, 60, 0
5, 382076, Note_off_c, 3, 57, 0
5, 382076, Note_off_c, 3, 54, 0
5, 382076, Note_off_c, 3, 50, 0
5, 382080, Note_on_c, 3, 60, 82
5, 382080, Note_on_c, 3, 57, 82
5, 382080, Note_on_c, 3, 54, 82
5, 382080, Note_on_c, 3, 50, 82
5, 382364, Note_off_c, 3, 60, 0
5, 382364, Note_off_c, 3, 57, 0
5, 382364, Note_off_c, 3, 54, 0
5, 382364, Note_off_c, 3, 50, 0
5, 382368, Note_on_c, 3, 57, 82
5, 382368, Note_on_c, 3, 60, 82
5, 382368, Note_on_c, 3, 54, 82
5, 382368, Note_on_c, 3, 50, 82
5, 382460, Note_off_c, 3, 57, 0
5, 382460, Note_off_c, 3, 60, 0
5, 382460, Note_off_c, 3, 54, 0
5, 382460, Note_off_c, 3, 50, 0
5, 382464, Note_on_c, 3, 59, 82
5, 382464, Note_on_c, 3, 55, 82
5, 382844, Note_off_c, 3, 59, 0
5, 382844, Note_off_c, 3, 55, 0
5, 382848, Note_on_c, 3, 59, 82
5, 383132, Note_off_c, 3, 59, 0
5, 383136, Note_on_c, 3, 55, 82
5, 383228, Note_off_c, 3, 55, 0
5, 383232, Note_on_c, 3, 60, 82
5, 383232, Note_on_c, 3, 57, 82
5, 383232, Note_on_c, 3, 54, 82
5, 383232, Note_on_c, 3, 50, 82
5, 383612, Note_off_c, 3, 60, 0
5, 383612, Note_off_c, 3, 57, 0
5, 383612, Note_off_c, 3, 54, 0
5, 383612, Note_off_c, 3, 50, 0
5, 383616, Note_on_c, 3, 60, 82
5, 383616, Note_on_c, 3, 57, 82
5, 383616, Note_on_c, 3, 54, 82
5, 383616, Note_on_c, 3, 50, 82
5, 383900, Note_off_c, 3, 60, 0
5, 383900, Note_off_c, 3, 57, 0
5, 383900, Note_off_c, 3, 54, 0
5, 383900, Note_off_c, 3, 50, 0
5, 383904, Note_on_c, 3, 60, 82
5, 383904, Note_on_c, 3, 57, 82
5, 383904, Note_on_c, 3, 54, 82
5, 383920, Note_on_c, 3, 50, 82
5, 383996, Note_off_c, 3, 60, 0
5, 383996, Note_off_c, 3, 57, 0
5, 383996, Note_off_c, 3, 54, 0
5, 384000, Note_on_c, 3, 59, 82
5, 384000, Note_on_c, 3, 55, 82
5, 384012, Note_off_c, 3, 50, 0
5, 384380, Note_off_c, 3, 59, 0
5, 384380, Note_off_c, 3, 55, 0
5, 384384, Note_on_c, 3, 67, 82
5, 384384, Note_on_c, 3, 55, 82
5, 384668, Note_off_c, 3, 67, 0
5, 384668, Note_off_c, 3, 55, 0
5, 384672, Note_on_c, 3, 67, 82
5, 384672, Note_on_c, 3, 55, 82
5, 384764, Note_off_c, 3, 67, 0
5, 384764, Note_off_c, 3, 55, 0
5, 384768, Note_on_c, 3, 64, 82
5, 384860, Note_off_c, 3, 64, 0
5, 384864, Note_on_c, 3, 62, 82
5, 384956, Note_off_c, 3, 62, 0
5, 384960, Note_on_c, 3, 60, 82
5, 385052, Note_off_c, 3, 60, 0
5, 385056, Note_on_c, 3, 59, 82
5, 385148, Note_off_c, 3, 59, 0
5, 385152, Note_on_c, 3, 57, 82
5, 385244, Note_off_c, 3, 57, 0
5, 385248, Note_on_c, 3, 55, 82
5, 385340, Note_off_c, 3, 55, 0
5, 385344, Note_on_c, 3, 54, 82
5, 385436, Note_off_c, 3, 54, 0
5, 385440, Note_on_c, 3, 52, 82
5, 385532, Note_off_c, 3, 52, 0
5, 385536, Note_on_c, 3, 50, 82
5, 385536, Note_on_c, 3, 50, 82
5, 385628, Note_off_c, 3, 50, 0
5, 385632, Note_on_c, 3, 62, 82
5, 385724, Note_off_c, 3, 50, 0
5, 385724, Note_off_c, 3, 62, 0
5, 385728, Note_on_c, 3, 50, 82
5, 385728, Note_on_c, 3, 50, 82
5, 385728, Note_on_c, 3, 50, 82
5, 385820, Note_off_c, 3, 50, 0
5, 385820, Note_off_c, 3, 50, 0
5, 385824, Note_on_c, 3, 62, 82
5, 385916, Note_off_c, 3, 50, 0
5, 385916, Note_off_c, 3, 62, 0
5, 385920, Note_on_c, 3, 60, 82
5, 385920, Note_on_c, 3, 60, 82
5, 386012, Note_off_c, 3, 60, 0
5, 386016, Note_on_c, 3, 62, 82
5, 386108, Note_off_c, 3, 62, 0
5, 386112, Note_on_c, 3, 62, 82
5, 386204, Note_off_c, 3, 62, 0
5, 386208, Note_on_c, 3, 62, 82
5, 386300, Note_off_c, 3, 62, 0
5, 386304, Note_on_c, 3, 62, 82
5, 386396, Note_off_c, 3, 62, 0
5, 386400, Note_on_c, 3, 62, 82
5, 386492, Note_off_c, 3, 60, 0
5, 386492, Note_off_c, 3, 62, 0
5, 386496, Note_on_c, 3, 59, 82
5, 386496, Note_on_c, 3, 59, 82
5, 386588, Note_off_c, 3, 59, 0
5, 386592, Note_on_c, 3, 62, 82
5, 386684, Note_off_c, 3, 59, 0
5, 386684, Note_off_c, 3, 62, 0
5, 386688, Note_on_c, 3, 57, 82
5, 386688, Note_on_c, 3, 57, 82
5, 386780, Note_off_c, 3, 57, 0
5, 386784, Note_on_c, 3, 62, 82
5, 386876, Note_off_c, 3, 57, 0
5, 386876, Note_off_c, 3, 62, 0
5, 386880, Note_on_c, 3, 55, 82
5, 386880, Note_on_c, 3, 55, 82
5, 386972, Note_off_c, 3, 55, 0
5, 386976, Note_on_c, 3, 62, 82
5, 387068, Note_off_c, 3, 55, 0
5, 387068, Note_off_c, 3, 62, 0
5, 387072, Note_on_c, 3, 54, 82
5, 387072, Note_on_c, 3, 54, 82
5, 387164, Note_off_c, 3, 54, 0
5, 387168, Note_on_c, 3, 62, 82
5, 387260, Note_off_c, 3, 54, 0
5, 387260, Note_off_c, 3, 62, 0
5, 387264, Note_on_c, 3, 62, 82
5, 387356, Note_off_c, 3, 62, 0
5, 387360, Note_on_c, 3, 62, 82
5, 387452, Note_off_c, 3, 62, 0
5, 387456, Note_on_c, 3, 55, 82
5, 387456, Note_on_c, 3, 55, 82
5, 387548, Note_off_c, 3, 55, 0
5, 387552, Note_on_c, 3, 62, 82
5, 387644, Note_off_c, 3, 55, 0
5, 387644, Note_off_c, 3, 62, 0
5, 387648, Note_on_c, 3, 62, 82
5, 387740, Note_off_c, 3, 62, 0
5, 387744, Note_on_c, 3, 62, 82
5, 387836, Note_off_c, 3, 62, 0
5, 387840, Note_on_c, 3, 57, 82
5, 387840, Note_on_c, 3, 57, 82
5, 387932, Note_off_c, 3, 57, 0
5, 387936, Note_on_c, 3, 62, 82
5, 388028, Note_off_c, 3, 57, 0
5, 388028, Note_off_c, 3, 62, 0
5, 388032, Note_on_c, 3, 62, 82
5, 388124, Note_off_c, 3, 62, 0
5, 388128, Note_on_c, 3, 62, 82
5, 388220, Note_off_c, 3, 62, 0
5, 388224, Note_on_c, 3, 55, 82
5, 388224, Note_on_c, 3, 55, 82
5, 388316, Note_off_c, 3, 55, 0
5, 388320, Note_on_c, 3, 62, 82
5, 388412, Note_off_c, 3, 55, 0
5, 388412, Note_off_c, 3, 62, 0
5, 388416, Note_on_c, 3, 62, 82
5, 388508, Note_off_c, 3, 62, 0
5, 388512, Note_on_c, 3, 62, 82
5, 388604, Note_off_c, 3, 62, 0
5, 388608, Note_on_c, 3, 50, 82
5, 388608, Note_on_c, 3, 50, 82
5, 388700, Note_off_c, 3, 50, 0
5, 388704, Note_on_c, 3, 62, 82
5, 388796, Note_off_c, 3, 62, 0
5, 388800, Note_on_c, 3, 62, 82
5, 388892, Note_off_c, 3, 62, 0
5, 388896, Note_on_c, 3, 62, 82
5, 388900, Note_off_c, 3, 50, 0
5, 388988, Note_off_c, 3, 62, 0
5, 388992, Note_on_c, 3, 62, 82
5, 389084, Note_off_c, 3, 62, 0
5, 389088, Note_on_c, 3, 62, 82
5, 389180, Note_off_c, 3, 62, 0
5, 389184, Note_on_c, 3, 50, 82
5, 389184, Note_on_c, 3, 50, 82
5, 389276, Note_off_c, 3, 50, 0
5, 389280, Note_on_c, 3, 62, 82
5, 389292, Note_off_c, 3, 50, 0
5, 389372, Note_off_c, 3, 62, 0
5, 389376, Note_on_c, 3, 60, 82
5, 389424, Note_on_c, 3, 62, 82
5, 389472, Note_on_c, 3, 62, 82
5, 389516, Note_off_c, 3, 62, 0
5, 389564, Note_off_c, 3, 62, 0
5, 389568, Note_on_c, 3, 62, 82
5, 389660, Note_off_c, 3, 62, 0
5, 389664, Note_on_c, 3, 62, 82
5, 389756, Note_off_c, 3, 62, 0
5, 389760, Note_on_c, 3, 62, 82
5, 389852, Note_off_c, 3, 62, 0
5, 389856, Note_on_c, 3, 62, 82
5, 389948, Note_off_c, 3, 62, 0
5, 389952, Note_on_c, 3, 59, 82
5, 389952, Note_on_c, 3, 59, 82
5, 390044, Note_off_c, 3, 59, 0
5, 390044, Note_off_c, 3, 59, 0
5, 390048, Note_on_c, 3, 62, 82
5, 390052, Note_off_c, 3, 60, 0
5, 390140, Note_off_c, 3, 62, 0
5, 390144, Note_on_c, 3, 57, 82
5, 390144, Note_on_c, 3, 57, 82
5, 390236, Note_off_c, 3, 57, 0
5, 390240, Note_on_c, 3, 62, 82
5, 390332, Note_off_c, 3, 57, 0
5, 390332, Note_off_c, 3, 62, 0
5, 390336, Note_on_c, 3, 62, 82
5, 390428, Note_off_c, 3, 62, 0
5, 390432, Note_on_c, 3, 62, 82
5, 390524, Note_off_c, 3, 62, 0
5, 390528, Note_on_c, 3, 55, 82
5, 390528, Note_on_c, 3, 55, 82
5, 390620, Note_off_c, 3, 55, 0
5, 390624, Note_on_c, 3, 62, 82
5, 390716, Note_off_c, 3, 55, 0
5, 390716, Note_off_c, 3, 62, 0
5, 390720, Note_on_c, 3, 62, 82
5, 390812, Note_off_c, 3, 62, 0
5, 390816, Note_on_c, 3, 62, 82
5, 390908, Note_off_c, 3, 62, 0
5, 390912, Note_on_c, 3, 54, 82
5, 390912, Note_on_c, 3, 54, 82
5, 391004, Note_off_c, 3, 54, 0
5, 391008, Note_on_c, 3, 62, 82
5, 391100, Note_off_c, 3, 54, 0
5, 391100, Note_off_c, 3, 62, 0
5, 391104, Note_on_c, 3, 62, 82
5, 391196, Note_off_c, 3, 62, 0
5, 391200, Note_on_c, 3, 62, 82
5, 391292, Note_off_c, 3, 62, 0
5, 391296, Note_on_c, 3, 55, 82
5, 391296, Note_on_c, 3, 55, 82
5, 391388, Note_off_c, 3, 55, 0
5, 391392, Note_on_c, 3, 62, 82
5, 391484, Note_off_c, 3, 55, 0
5, 391484, Note_off_c, 3, 62, 0
5, 391488, Note_on_c, 3, 62, 82
5, 391580, Note_off_c, 3, 62, 0
5, 391584, Note_on_c, 3, 62, 82
5, 391676, Note_off_c, 3, 62, 0
5, 391680, Note_on_c, 3, 57, 82
5, 391680, Note_on_c, 3, 54, 82
5, 391680, Note_on_c, 3, 50, 82
5, 391868, Note_off_c, 3, 57, 0
5, 391868, Note_off_c, 3, 54, 0
5, 391868, Note_off_c, 3, 50, 0
5, 391872, Note_on_c, 3, 50, 82
5, 391964, Note_off_c, 3, 50, 0
5, 392064, Note_on_c, 3, 54, 82
5, 392156, Note_off_c, 3, 54, 0
5, 392256, Note_on_c, 3, 57, 82
5, 392348, Note_off_c, 3, 57, 0
5, 392448, Note_on_c, 3, 61, 82
5, 392636, Note_off_c, 3, 61, 0
5, 392640, Note_on_c, 3, 62, 82
5, 392828, Note_off_c, 3, 62, 0
5, 392832, Note_on_c, 3, 54, 82
5, 392832, Note_on_c, 3, 50, 82
5, 392832, Note_on_c, 3, 57, 82
5, 392924, Note_off_c, 3, 57, 0
5, 393024, Note_on_c, 3, 62, 82
5, 393116, Note_off_c, 3, 62, 0
5, 393212, Note_off_c, 3, 54, 0
5, 393212, Note_off_c, 3, 50, 0
5, 393216, Note_on_c, 3, 50, 82
5, 393404, Note_off_c, 3, 50, 0
5, 393408, Note_on_c, 3, 50, 82
5, 393500, Note_off_c, 3, 50, 0
5, 393600, Note_on_c, 3, 54, 82
5, 393692, Note_off_c, 3, 54, 0
5, 393792, Note_on_c, 3, 57, 82
5, 393884, Note_off_c, 3, 57, 0
5, 393984, Note_on_c, 3, 61, 82
5, 394172, Note_off_c, 3, 61, 0
5, 394176, Note_on_c, 3, 62, 82
5, 394364, Note_off_c, 3, 62, 0
5, 394368, Note_on_c, 3, 54, 82
5, 394368, Note_on_c, 3, 50, 82
5, 394368, Note_on_c, 3, 57, 82
5, 394460, Note_off_c, 3, 57, 0
5, 394560, Note_on_c, 3, 62, 82
5, 394652, Note_off_c, 3, 62, 0
5, 394748, Note_off_c, 3, 54, 0
5, 394748, Note_off_c, 3, 50, 0
5, 394752, Note_on_c, 3, 50, 82
5, 395132, Note_off_c, 3, 50, 0
5, 413184, Note_on_c, 3, 55, 61
5, 413184, Note_on_c, 3, 43, 61
5, 413564, Note_off_c, 3, 55, 0
5, 413564, Note_off_c, 3, 43, 0
5, 413952, Note_on_c, 3, 52, 61
5, 413952, Note_on_c, 3, 40, 61
5, 414332, Note_off_c, 3, 52, 0
5, 414332, Note_off_c, 3, 40, 0
5, 414720, Note_on_c, 3, 57, 61
5, 414720, Note_on_c, 3, 45, 61
5, 415100, Note_off_c, 3, 57, 0
5, 415100, Note_off_c, 3, 45, 0
5, 415104, Note_on_c, 3, 54, 61
5, 415104, Note_on_c, 3, 42, 61
5, 415484, Note_off_c, 3, 54, 0
5, 415484, Note_off_c, 3, 42, 0
5, 415872, Note_on_c, 3, 53, 61
5, 415872, Note_on_c, 3, 41, 61
5, 416252, Note_off_c, 3, 53, 0
5, 416252, Note_off_c, 3, 41, 0
5, 416256, Note_on_c, 3, 52, 61
5, 416256, Note_on_c, 3, 40, 61
5, 416636, Note_off_c, 3, 52, 0
5, 416636, Note_off_c, 3, 40, 0
5, 417408, Note_on_c, 3, 49, 61
5, 417408, Note_on_c, 3, 37, 61
5, 417788, Note_off_c, 3, 49, 0
5, 417788, Note_off_c, 3, 37, 0
5, 417792, Note_on_c, 3, 50, 61
5, 417792, Note_on_c, 3, 38, 61
5, 418172, Note_off_c, 3, 50, 0
5, 418172, Note_off_c, 3, 38, 0
5, 418176, Note_on_c, 3, 48, 61
5, 418176, Note_on_c, 3, 36, 61
5, 418556, Note_off_c, 3, 48, 0
5, 418556, Note_off_c, 3, 36, 0
5, 418560, Note_on_c, 3, 47, 61
5, 418560, Note_on_c, 3, 35, 61
5, 418940, Note_off_c, 3, 47, 0
5, 418940, Note_off_c, 3, 35, 0
5, 418944, Note_on_c, 3, 57, 61
5, 418944, Note_on_c, 3, 50, 61
5, 419324, Note_off_c, 3, 57, 0
5, 419324, Note_off_c, 3, 50, 0
5, 419328, Note_on_c, 3, 59, 61
5, 419328, Note_on_c, 3, 55, 61
5, 419708, Note_off_c, 3, 59, 0
5, 419708, Note_off_c, 3, 55, 0
5, 419712, Note_on_c, 3, 57, 61
5, 419712, Note_on_c, 3, 50, 61
5, 420092, Note_off_c, 3, 57, 0
5, 420092, Note_off_c, 3, 50, 0
5, 420096, Note_on_c, 3, 55, 61
5, 420096, Note_on_c, 3, 47, 61
5, 420476, Note_off_c, 3, 55, 0
5, 420476, Note_off_c, 3, 47, 0
5, 420480, Note_on_c, 3, 57, 61
5, 420480, Note_on_c, 3, 50, 61
5, 420860, Note_off_c, 3, 57, 0
5, 420860, Note_off_c, 3, 50, 0
5, 420864, Note_on_c, 3, 59, 61
5, 420864, Note_on_c, 3, 55, 61
5, 421244, Note_off_c, 3, 59, 0
5, 421244, Note_off_c, 3, 55, 0
5, 421248, Note_on_c, 3, 57, 61
5, 421248, Note_on_c, 3, 50, 61
5, 421628, Note_off_c, 3, 57, 0
5, 421628, Note_off_c, 3, 50, 0
5, 421632, Note_on_c, 3, 55, 61
5, 421632, Note_on_c, 3, 47, 61
5, 422012, Note_off_c, 3, 55, 0
5, 422012, Note_off_c, 3, 47, 0
5, 422016, Note_on_c, 3, 57, 61
5, 422016, Note_on_c, 3, 50, 61
5, 422396, Note_off_c, 3, 57, 0
5, 422396, Note_off_c, 3, 50, 0
5, 422400, Note_on_c, 3, 59, 61
5, 422400, Note_on_c, 3, 55, 61
5, 422780, Note_off_c, 3, 59, 0
5, 422780, Note_off_c, 3, 55, 0
5, 422784, Note_on_c, 3, 57, 61
5, 422784, Note_on_c, 3, 50, 61
5, 423164, Note_off_c, 3, 57, 0
5, 423164, Note_off_c, 3, 50, 0
5, 423168, Note_on_c, 3, 55, 61
5, 423168, Note_on_c, 3, 47, 61
5, 423548, Note_off_c, 3, 55, 0
5, 423548, Note_off_c, 3, 47, 0
5, 423552, Note_on_c, 3, 57, 61
5, 423552, Note_on_c, 3, 50, 61
5, 423932, Note_off_c, 3, 57, 0
5, 423932, Note_off_c, 3, 50, 0
5, 423936, Note_on_c, 3, 59, 61
5, 423936, Note_on_c, 3, 55, 61
5, 424316, Note_off_c, 3, 59, 0
5, 424316, Note_off_c, 3, 55, 0
5, 424320, Note_on_c, 3, 57, 61
5, 424320, Note_on_c, 3, 50, 61
5, 424700, Note_off_c, 3, 57, 0
5, 424700, Note_off_c, 3, 50, 0
5, 424704, Note_on_c, 3, 55, 61
5, 424704, Note_on_c, 3, 47, 61
5, 425084, Note_off_c, 3, 55, 0
5, 425084, Note_off_c, 3, 47, 0
5, 425088, Note_on_c, 3, 57, 61
5, 425088, Note_on_c, 3, 50, 61
5, 425468, Note_off_c, 3, 57, 0
5, 425468, Note_off_c, 3, 50, 0
5, 425472, Note_on_c, 3, 55, 61
5, 425856, Note_on_c, 3, 58, 61
5, 426236, Note_off_c, 3, 55, 0
5, 426236, Note_off_c, 3, 58, 0
5, 426432, Note_on_c, 3, 55, 61
5, 426524, Note_off_c, 3, 55, 0
5, 426624, Note_on_c, 3, 57, 61
5, 426716, Note_off_c, 3, 57, 0
5, 426816, Note_on_c, 3, 58, 61
5, 426908, Note_off_c, 3, 58, 0
5, 427008, Note_on_c, 3, 60, 61
5, 427008, Note_on_c, 3, 48, 61
5, 427388, Note_off_c, 3, 60, 0
5, 427392, Note_on_c, 3, 58, 61
5, 427392, Note_on_c, 3, 55, 61
5, 427392, Note_on_c, 3, 51, 61
5, 427772, Note_off_c, 3, 48, 0
5, 427772, Note_off_c, 3, 58, 0
5, 427772, Note_off_c, 3, 55, 0
5, 427772, Note_off_c, 3, 51, 0
5, 427968, Note_on_c, 3, 48, 61
5, 428060, Note_off_c, 3, 48, 0
5, 428160, Note_on_c, 3, 50, 61
5, 428252, Note_off_c, 3, 50, 0
5, 428352, Note_on_c, 3, 51, 61
5, 428444, Note_off_c, 3, 51, 0
5, 428544, Note_on_c, 3, 53, 61
5, 428928, Note_on_c, 3, 63, 61
5, 428928, Note_on_c, 3, 57, 61
5, 428928, Note_on_c, 3, 60, 61
5, 429308, Note_off_c, 3, 53, 0
5, 429308, Note_off_c, 3, 63, 0
5, 429308, Note_off_c, 3, 57, 0
5, 429308, Note_off_c, 3, 60, 0
5, 429504, Note_on_c, 3, 54, 61
5, 429596, Note_off_c, 3, 54, 0
5, 429600, Note_on_c, 3, 57, 61
5, 429692, Note_off_c, 3, 57, 0
5, 429696, Note_on_c, 3, 55, 61
5, 429788, Note_off_c, 3, 55, 0
5, 429792, Note_on_c, 3, 58, 61
5, 429884, Note_off_c, 3, 58, 0
5, 429888, Note_on_c, 3, 57, 61
5, 429980, Note_off_c, 3, 57, 0
5, 429984, Note_on_c, 3, 60, 61
5, 430076, Note_off_c, 3, 60, 0
5, 430080, Note_on_c, 3, 58, 61
5, 430460, Note_off_c, 3, 58, 0
5, 430464, Note_on_c, 3, 46, 61
5, 430844, Note_off_c, 3, 46, 0
5, 431040, Note_on_c, 3, 46, 61
5, 431132, Note_off_c, 3, 46, 0
5, 431136, Note_on_c, 3, 48, 61
5, 431228, Note_off_c, 3, 48, 0
5, 431232, Note_on_c, 3, 50, 61
5, 431324, Note_off_c, 3, 50, 0
5, 431328, Note_on_c, 3, 46, 61
5, 431420, Note_off_c, 3, 46, 0
5, 431424, Note_on_c, 3, 48, 61
5, 431516, Note_off_c, 3, 48, 0
5, 431520, Note_on_c, 3, 50, 61
5, 431612, Note_off_c, 3, 50, 0
5, 431616, Note_on_c, 3, 51, 61
5, 431804, Note_off_c, 3, 51, 0
5, 431808, Note_on_c, 3, 39, 61
5, 431996, Note_off_c, 3, 39, 0
5, 432000, Note_on_c, 3, 51, 61
5, 432188, Note_off_c, 3, 51, 0
5, 432192, Note_on_c, 3, 55, 61
5, 432380, Note_off_c, 3, 55, 0
5, 432384, Note_on_c, 3, 57, 61
5, 432572, Note_off_c, 3, 57, 0
5, 432576, Note_on_c, 3, 45, 61
5, 432764, Note_off_c, 3, 45, 0
5, 432768, Note_on_c, 3, 57, 61
5, 432956, Note_off_c, 3, 57, 0
5, 432960, Note_on_c, 3, 60, 61
5, 433148, Note_off_c, 3, 60, 0
5, 433152, Note_on_c, 3, 50, 61
5, 433340, Note_off_c, 3, 50, 0
5, 433344, Note_on_c, 3, 38, 61
5, 433532, Note_off_c, 3, 38, 0
5, 433536, Note_on_c, 3, 50, 61
5, 433724, Note_off_c, 3, 50, 0
5, 433728, Note_on_c, 3, 54, 61
5, 433916, Note_off_c, 3, 54, 0
5, 433920, Note_on_c, 3, 55, 61
5, 434108, Note_off_c, 3, 55, 0
5, 434112, Note_on_c, 3, 43, 61
5, 434300, Note_off_c, 3, 43, 0
5, 434304, Note_on_c, 3, 55, 61
5, 434492, Note_off_c, 3, 55, 0
5, 434496, Note_on_c, 3, 58, 61
5, 434684, Note_off_c, 3, 58, 0
5, 434688, Note_on_c, 3, 48, 61
5, 434780, Note_off_c, 3, 48, 0
5, 434880, Note_on_c, 3, 60, 61
5, 434972, Note_off_c, 3, 60, 0
5, 435072, Note_on_c, 3, 60, 65
5, 435112, Note_off_c, 3, 60, 0
5, 435120, Note_on_c, 3, 62, 65
5, 435160, Note_off_c, 3, 62, 0
5, 435168, Note_on_c, 3, 60, 65
5, 435208, Note_off_c, 3, 60, 0
5, 435216, Note_on_c, 3, 62, 65
5, 435256, Note_off_c, 3, 62, 0
5, 435264, Note_on_c, 3, 59, 63
5, 435352, Note_off_c, 3, 59, 0
5, 435360, Note_on_c, 3, 60, 63
5, 435448, Note_off_c, 3, 60, 0
5, 435456, Note_on_c, 3, 49, 61
5, 435544, Note_off_c, 3, 49, 0
5, 435648, Note_on_c, 3, 61, 61
5, 435736, Note_off_c, 3, 61, 0
5, 435840, Note_on_c, 3, 61, 65
5, 435880, Note_off_c, 3, 61, 0
5, 435888, Note_on_c, 3, 62, 65
5, 435928, Note_off_c, 3, 62, 0
5, 435936, Note_on_c, 3, 61, 65
5, 435976, Note_off_c, 3, 61, 0
5, 435984, Note_on_c, 3, 62, 65
5, 436024, Note_off_c, 3, 62, 0
5, 436032, Note_on_c, 3, 59, 63
5, 436120, Note_off_c, 3, 59, 0
5, 436128, Note_on_c, 3, 61, 63
5, 436216, Note_off_c, 3, 61, 0
5, 436224, Note_on_c, 3, 60, 61
5, 436224, Note_on_c, 3, 60, 61
5, 436224, Note_on_c, 3, 50, 61
5, 436604, Note_off_c, 3, 60, 0
5, 437376, Note_on_c, 3, 58, 61
5, 437376, Note_on_c, 3, 55, 61
5, 437756, Note_off_c, 3, 60, 0
5, 437756, Note_off_c, 3, 58, 0
5, 437756, Note_off_c, 3, 55, 0
5, 437760, Note_on_c, 3, 57, 61
5, 437760, Note_on_c, 3, 54, 61
5, 437760, Note_on_c, 3, 62, 61
5, 438140, Note_off_c, 3, 57, 0
5, 438140, Note_off_c, 3, 54, 0
5, 438912, Note_on_c, 3, 58, 61
5, 438912, Note_on_c, 3, 55, 61
5, 439292, Note_off_c, 3, 62, 0
5, 439292, Note_off_c, 3, 58, 0
5, 439292, Note_off_c, 3, 55, 0
5, 439296, Note_on_c, 3, 57, 61
5, 439296, Note_on_c, 3, 54, 61
5, 439296, Note_on_c, 3, 62, 61
5, 439484, Note_off_c, 3, 57, 0
5, 439484, Note_off_c, 3, 54, 0
5, 439488, Note_on_c, 3, 50, 50
5, 439580, Note_off_c, 3, 50, 0
5, 439680, Note_on_c, 3, 54, 50
5, 439772, Note_off_c, 3, 54, 0
5, 439872, Note_on_c, 3, 57, 50
5, 439964, Note_off_c, 3, 57, 0
5, 440064, Note_on_c, 3, 61, 50
5, 440252, Note_off_c, 3, 61, 0
5, 440256, Note_on_c, 3, 62, 50
5, 440444, Note_off_c, 3, 62, 0
5, 440448, Note_on_c, 3, 50, 50
5, 440540, Note_off_c, 3, 50, 0
5, 440640, Note_on_c, 3, 62, 50
5, 440732, Note_off_c, 3, 62, 0
5, 440828, Note_off_c, 3, 50, 0
5, 440828, Note_off_c, 3, 62, 0
5, 440832, Note_on_c, 3, 48, 50
5, 441024, Note_on_c, 3, 48, 50
5, 441116, Note_off_c, 3, 48, 64
5, 441216, Note_on_c, 3, 54, 50
5, 441308, Note_off_c, 3, 54, 0
5, 441408, Note_on_c, 3, 57, 50
5, 441500, Note_off_c, 3, 57, 0
5, 441600, Note_on_c, 3, 59, 50
5, 441788, Note_off_c, 3, 59, 0
5, 441792, Note_on_c, 3, 60, 50
5, 441980, Note_off_c, 3, 60, 0
5, 441984, Note_on_c, 3, 48, 50
5, 442076, Note_off_c, 3, 48, 0
5, 442176, Note_on_c, 3, 60, 50
5, 442268, Note_off_c, 3, 60, 0
5, 442364, Note_off_c, 3, 48, 0
5, 442368, Note_on_c, 3, 47, 50
5, 442560, Note_on_c, 3, 47, 50
5, 442652, Note_off_c, 3, 47, 0
5, 442752, Note_on_c, 3, 50, 50
5, 442844, Note_off_c, 3, 50, 0
5, 442944, Note_on_c, 3, 55, 50
5, 443036, Note_off_c, 3, 55, 0
5, 443136, Note_on_c, 3, 58, 50
5, 443324, Note_off_c, 3, 58, 0
5, 443328, Note_on_c, 3, 59, 50
5, 443516, Note_off_c, 3, 59, 0
5, 443520, Note_on_c, 3, 47, 50
5, 443708, Note_off_c, 3, 47, 0
5, 443712, Note_on_c, 3, 59, 50
5, 443900, Note_off_c, 3, 47, 0
5, 443900, Note_off_c, 3, 59, 0
5, 443904, Note_on_c, 3, 45, 50
5, 444096, Note_on_c, 3, 45, 50
5, 444188, Note_off_c, 3, 45, 0
5, 444288, Note_on_c, 3, 50, 50
5, 444380, Note_off_c, 3, 50, 0
5, 444480, Note_on_c, 3, 54, 50
5, 444572, Note_off_c, 3, 54, 0
5, 444672, Note_on_c, 3, 56, 50
5, 444860, Note_off_c, 3, 56, 0
5, 444864, Note_on_c, 3, 57, 50
5, 445052, Note_off_c, 3, 57, 0
5, 445056, Note_on_c, 3, 45, 50
5, 445244, Note_off_c, 3, 45, 0
5, 445248, Note_on_c, 3, 57, 50
5, 445436, Note_off_c, 3, 45, 0
5, 445436, Note_off_c, 3, 57, 0
5, 445440, Note_on_c, 3, 55, 50
5, 445440, Note_on_c, 3, 43, 50
5, 445820, Note_off_c, 3, 55, 0
5, 445820, Note_off_c, 3, 43, 0
5, 446208, Note_on_c, 3, 54, 50
5, 446588, Note_off_c, 3, 54, 0
5, 446976, Note_on_c, 3, 52, 50
5, 447356, Note_off_c, 3, 52, 0
5, 447744, Note_on_c, 3, 62, 50
5, 448124, Note_off_c, 3, 62, 0
5, 448512, Note_on_c, 3, 60, 50
5, 448892, Note_off_c, 3, 60, 0
5, 449280, Note_on_c, 3, 59, 50
5, 449660, Note_off_c, 3, 59, 0
5, 450048, Note_on_c, 3, 57, 50
5, 450428, Note_off_c, 3, 57, 0
5, 450816, Note_on_c, 3, 55, 50
5, 451196, Note_off_c, 3, 55, 0
5, 451584, Note_on_c, 3, 54, 50
5, 451964, Note_off_c, 3, 54, 0
5, 452352, Note_on_c, 3, 52, 50
5, 452732, Note_off_c, 3, 52, 0
5, 453120, Note_on_c, 3, 50, 50
5, 453500, Note_off_c, 3, 50, 0
5, 456192, Note_on_c, 3, 55, 61
5, 456192, Note_on_c, 3, 55, 61
5, 456380, Note_off_c, 3, 55, 0
5, 456384, Note_on_c, 3, 62, 61
5, 456476, Note_off_c, 3, 62, 0
5, 456576, Note_on_c, 3, 59, 61
5, 456668, Note_off_c, 3, 59, 0
5, 456768, Note_on_c, 3, 62, 61
5, 456860, Note_off_c, 3, 62, 0
5, 456956, Note_off_c, 3, 55, 0
5, 456960, Note_on_c, 3, 54, 61
5, 456960, Note_on_c, 3, 54, 61
5, 457148, Note_off_c, 3, 54, 0
5, 457152, Note_on_c, 3, 63, 61
5, 457244, Note_off_c, 3, 63, 0
5, 457344, Note_on_c, 3, 57, 61
5, 457436, Note_off_c, 3, 57, 0
5, 457536, Note_on_c, 3, 63, 61
5, 457628, Note_off_c, 3, 63, 0
5, 457724, Note_off_c, 3, 54, 0
5, 457728, Note_on_c, 3, 52, 61
5, 457728, Note_on_c, 3, 52, 61
5, 457916, Note_off_c, 3, 52, 0
5, 457920, Note_on_c, 3, 64, 61
5, 458012, Note_off_c, 3, 64, 0
5, 458112, Note_on_c, 3, 55, 61
5, 458204, Note_off_c, 3, 55, 0
5, 458304, Note_on_c, 3, 64, 61
5, 458396, Note_off_c, 3, 64, 0
5, 458492, Note_off_c, 3, 52, 0
5, 458496, Note_on_c, 3, 50, 61
5, 458496, Note_on_c, 3, 52, 61
5, 458684, Note_off_c, 3, 52, 0
5, 458688, Note_on_c, 3, 59, 61
5, 458780, Note_off_c, 3, 59, 0
5, 458880, Note_on_c, 3, 56, 61
5, 458972, Note_off_c, 3, 56, 0
5, 459072, Note_on_c, 3, 59, 61
5, 459164, Note_off_c, 3, 59, 0
5, 459260, Note_off_c, 3, 50, 0
5, 459264, Note_on_c, 3, 48, 61
5, 459264, Note_on_c, 3, 48, 61
5, 459452, Note_off_c, 3, 48, 0
5, 459456, Note_on_c, 3, 57, 61
5, 459548, Note_off_c, 3, 57, 0
5, 459648, Note_on_c, 3, 52, 61
5, 459740, Note_off_c, 3, 52, 0
5, 459840, Note_on_c, 3, 57, 61
5, 459932, Note_off_c, 3, 57, 0
5, 460028, Note_off_c, 3, 48, 0
5, 460032, Note_on_c, 3, 47, 61
5, 460032, Note_on_c, 3, 47, 61
5, 460220, Note_off_c, 3, 47, 0
5, 460224, Note_on_c, 3, 56, 61
5, 460316, Note_off_c, 3, 56, 0
5, 460416, Note_on_c, 3, 50, 61
5, 460508, Note_off_c, 3, 50, 0
5, 460608, Note_on_c, 3, 56, 61
5, 460700, Note_off_c, 3, 56, 0
5, 460796, Note_off_c, 3, 47, 0
5, 460800, Note_on_c, 3, 45, 61
5, 460800, Note_on_c, 3, 48, 61
5, 460988, Note_off_c, 3, 48, 0
5, 460992, Note_on_c, 3, 57, 61
5, 461084, Note_off_c, 3, 57, 0
5, 461184, Note_on_c, 3, 52, 61
5, 461276, Note_off_c, 3, 52, 0
5, 461376, Note_on_c, 3, 57, 61
5, 461468, Note_off_c, 3, 57, 0
5, 461564, Note_off_c, 3, 45, 0
5, 461568, Note_on_c, 3, 55, 61
5, 461568, Note_on_c, 3, 57, 61
5, 461756, Note_off_c, 3, 57, 0
5, 461760, Note_on_c, 3, 64, 61
5, 461852, Note_off_c, 3, 64, 0
5, 461952, Note_on_c, 3, 61, 61
5, 462044, Note_off_c, 3, 61, 0
5, 462144, Note_on_c, 3, 64, 61
5, 462236, Note_off_c, 3, 64, 0
5, 462332, Note_off_c, 3, 55, 0
5, 462336, Note_on_c, 3, 54, 61
5, 462336, Note_on_c, 3, 54, 61
5, 462524, Note_off_c, 3, 54, 0
5, 462528, Note_on_c, 3, 62, 61
5, 462620, Note_off_c, 3, 62, 0
5, 462720, Note_on_c, 3, 57, 61
5, 462812, Note_off_c, 3, 57, 0
5, 462912, Note_on_c, 3, 62, 61
5, 463004, Note_off_c, 3, 62, 0
5, 463100, Note_off_c, 3, 54, 0
5, 463104, Note_on_c, 3, 52, 61
5, 463104, Note_on_c, 3, 55, 61
5, 463292, Note_off_c, 3, 55, 0
5, 463296, Note_on_c, 3, 61, 61
5, 463388, Note_off_c, 3, 61, 0
5, 463488, Note_on_c, 3, 57, 61
5, 463580, Note_off_c, 3, 57, 0
5, 463680, Note_on_c, 3, 61, 61
5, 463772, Note_off_c, 3, 61, 0
5, 463868, Note_off_c, 3, 52, 0
5, 463872, Note_on_c, 3, 62, 61
5, 463872, Note_on_c, 3, 55, 61
5, 463872, Note_on_c, 3, 50, 61
5, 464060, Note_off_c, 3, 62, 0
5, 464060, Note_off_c, 3, 55, 0
5, 464060, Note_off_c, 3, 50, 0
5, 464064, Note_on_c, 3, 54, 61
5, 464252, Note_off_c, 3, 54, 0
5, 464256, Note_on_c, 3, 55, 61
5, 464348, Note_off_c, 3, 55, 0
5, 464448, Note_on_c, 3, 52, 61
5, 464540, Note_off_c, 3, 52, 0
5, 464640, Note_on_c, 3, 52, 61
5, 464828, Note_off_c, 3, 52, 0
5, 464832, Note_on_c, 3, 50, 61
5, 465020, Note_off_c, 3, 50, 0
5, 466944, Note_on_c, 3, 62, 61
5, 466944, Note_on_c, 3, 59, 61
5, 466944, Note_on_c, 3, 55, 61
5, 467324, Note_off_c, 3, 62, 0
5, 467324, Note_off_c, 3, 59, 0
5, 467324, Note_off_c, 3, 55, 0
5, 468096, Note_on_c, 3, 55, 61
5, 468476, Note_off_c, 3, 55, 0
5, 468480, Note_on_c, 3, 50, 61
5, 468860, Note_off_c, 3, 50, 0
5, 469632, Note_on_c, 3, 50, 61
5, 470012, Note_off_c, 3, 50, 0
5, 470016, Note_on_c, 3, 55, 61
5, 470204, Note_off_c, 3, 55, 0
5, 471168, Note_on_c, 3, 55, 61
5, 471548, Note_off_c, 3, 55, 0
5, 471552, Note_on_c, 3, 50, 61
5, 471932, Note_off_c, 3, 50, 0
5, 472704, Note_on_c, 3, 50, 61
5, 473084, Note_off_c, 3, 50, 0
5, 473088, Note_on_c, 3, 43, 61
5, 473468, Note_off_c, 3, 43, 0
5, 474240, Note_on_c, 3, 59, 61
5, 474620, Note_off_c, 3, 59, 0
5, 474624, Note_on_c, 3, 60, 61
5, 475004, Note_off_c, 3, 60, 0
5, 475776, Note_on_c, 3, 60, 61
5, 476156, Note_off_c, 3, 60, 0
5, 476160, Note_on_c, 3, 59, 61
5, 476540, Note_off_c, 3, 59, 0
5, 476544, Note_on_c, 3, 64, 61
5, 476924, Note_off_c, 3, 64, 0
5, 476928, Note_on_c, 3, 60, 61
5, 477308, Note_off_c, 3, 60, 0
5, 477312, Note_on_c, 3, 62, 61
5, 477696, Note_on_c, 3, 55, 61
5, 477696, Note_on_c, 3, 43, 61
5, 477700, Note_off_c, 3, 62, 64
5, 478076, Note_off_c, 3, 55, 0
5, 478076, Note_off_c, 3, 43, 0
5, 478080, Note_on_c, 3, 47, 61
5, 478364, Note_off_c, 3, 47, 0
5, 478368, Note_on_c, 3, 50, 61
5, 478460, Note_off_c, 3, 50, 0
5, 478464, Note_on_c, 3, 55, 61
5, 478844, Note_off_c, 3, 55, 0
5, 478848, Note_on_c, 3, 59, 61
5, 479228, Note_off_c, 3, 59, 0
5, 479232, Note_on_c, 3, 62, 61
5, 479612, Note_off_c, 3, 62, 0
5, 479616, Note_on_c, 3, 57, 61
5, 479900, Note_off_c, 3, 57, 0
5, 479904, Note_on_c, 3, 54, 61
5, 479996, Note_off_c, 3, 54, 0
5, 480000, Note_on_c, 3, 50, 61
5, 480380, Note_off_c, 3, 50, 0
5, 480384, Note_on_c, 3, 62, 61
5, 480764, Note_off_c, 3, 62, 0
5, 480768, Note_on_c, 3, 43, 61
5, 481148, Note_off_c, 3, 43, 0
5, 481168, Note_on_c, 3, 47, 61
5, 481440, Note_on_c, 3, 50, 61
5, 481452, Note_off_c, 3, 47, 0
5, 481532, Note_off_c, 3, 50, 0
5, 481536, Note_on_c, 3, 55, 61
5, 481916, Note_off_c, 3, 55, 0
5, 481920, Note_on_c, 3, 59, 61
5, 482300, Note_off_c, 3, 59, 0
5, 482304, Note_on_c, 3, 62, 61
5, 482684, Note_off_c, 3, 62, 0
5, 482688, Note_on_c, 3, 57, 61
5, 482972, Note_off_c, 3, 57, 0
5, 482992, Note_on_c, 3, 54, 61
5, 483072, Note_on_c, 3, 50, 61
5, 483084, Note_off_c, 3, 54, 0
5, 483452, Note_off_c, 3, 50, 0
5, 483456, Note_on_c, 3, 62, 61
5, 483836, Note_off_c, 3, 62, 0
5, 483840, Note_on_c, 3, 55, 61
5, 483840, Note_on_c, 3, 50, 61
5, 483840, Note_on_c, 3, 47, 61
5, 485372, Note_off_c, 3, 55, 0
5, 485372, Note_off_c, 3, 50, 0
5, 485372, Note_off_c, 3, 47, 0
5, 485376, Note_on_c, 3, 52, 61
5, 485376, Note_on_c, 3, 48, 61
5, 485376, Note_on_c, 3, 55, 61
5, 486140, Note_off_c, 3, 55, 0
5, 486144, Note_on_c, 3, 57, 61
5, 486908, Note_off_c, 3, 52, 0
5, 486908, Note_off_c, 3, 48, 0
5, 486908, Note_off_c, 3, 57, 0
5, 486912, Note_on_c, 3, 59, 61
5, 486912, Note_on_c, 3, 55, 61
5, 486912, Note_on_c, 3, 50, 61
5, 487100, Note_off_c, 3, 59, 0
5, 487100, Note_off_c, 3, 55, 0
5, 487100, Note_off_c, 3, 50, 0
5, 487104, Note_on_c, 3, 50, 61
5, 487292, Note_off_c, 3, 50, 0
5, 487296, Note_on_c, 3, 50, 61
5, 487484, Note_off_c, 3, 50, 0
5, 487488, Note_on_c, 3, 50, 61
5, 487676, Note_off_c, 3, 50, 0
5, 487680, Note_on_c, 3, 50, 61
5, 487868, Note_off_c, 3, 50, 0
5, 487872, Note_on_c, 3, 50, 61
5, 488060, Note_off_c, 3, 50, 0
5, 488064, Note_on_c, 3, 50, 61
5, 488252, Note_off_c, 3, 50, 0
5, 488256, Note_on_c, 3, 50, 61
5, 488444, Note_off_c, 3, 50, 0
5, 488448, Note_on_c, 3, 50, 62
5, 488636, Note_off_c, 3, 50, 0
5, 488640, Note_on_c, 3, 50, 65
5, 488828, Note_off_c, 3, 50, 0
5, 488832, Note_on_c, 3, 50, 68
5, 489020, Note_off_c, 3, 50, 0
5, 489024, Note_on_c, 3, 50, 71
5, 489212, Note_off_c, 3, 50, 0
5, 489216, Note_on_c, 3, 50, 82
5, 489404, Note_off_c, 3, 50, 0
5, 489408, Note_on_c, 3, 50, 78
5, 489596, Note_off_c, 3, 50, 0
5, 489600, Note_on_c, 3, 50, 72
5, 489788, Note_off_c, 3, 50, 0
5, 489792, Note_on_c, 3, 50, 67
5, 489980, Note_off_c, 3, 50, 0
5, 489984, Note_on_c, 3, 55, 61
5, 489984, Note_on_c, 3, 51, 61
5, 490076, Note_off_c, 3, 55, 0
5, 490076, Note_off_c, 3, 51, 0
5, 490080, Note_on_c, 3, 58, 61
5, 490172, Note_off_c, 3, 58, 0
5, 490176, Note_on_c, 3, 55, 61
5, 490176, Note_on_c, 3, 51, 61
5, 490268, Note_off_c, 3, 55, 0
5, 490268, Note_off_c, 3, 51, 0
5, 490272, Note_on_c, 3, 58, 61
5, 490364, Note_off_c, 3, 58, 0
5, 490368, Note_on_c, 3, 55, 61
5, 490368, Note_on_c, 3, 51, 61
5, 490460, Note_off_c, 3, 55, 0
5, 490460, Note_off_c, 3, 51, 0
5, 490464, Note_on_c, 3, 58, 61
5, 490556, Note_off_c, 3, 58, 0
5, 490560, Note_on_c, 3, 55, 61
5, 490560, Note_on_c, 3, 51, 61
5, 490652, Note_off_c, 3, 55, 0
5, 490652, Note_off_c, 3, 51, 0
5, 490656, Note_on_c, 3, 58, 61
5, 490748, Note_off_c, 3, 58, 0
5, 490752, Note_on_c, 3, 55, 61
5, 490752, Note_on_c, 3, 51, 61
5, 490844, Note_off_c, 3, 55, 0
5, 490844, Note_off_c, 3, 51, 0
5, 490848, Note_on_c, 3, 58, 61
5, 490940, Note_off_c, 3, 58, 0
5, 490944, Note_on_c, 3, 55, 61
5, 490944, Note_on_c, 3, 51, 61
5, 491036, Note_off_c, 3, 55, 0
5, 491036, Note_off_c, 3, 51, 0
5, 491040, Note_on_c, 3, 58, 61
5, 491132, Note_off_c, 3, 58, 0
5, 491136, Note_on_c, 3, 55, 61
5, 491136, Note_on_c, 3, 51, 61
5, 491228, Note_off_c, 3, 55, 0
5, 491228, Note_off_c, 3, 51, 0
5, 491232, Note_on_c, 3, 58, 61
5, 491324, Note_off_c, 3, 58, 0
5, 491328, Note_on_c, 3, 55, 61
5, 491328, Note_on_c, 3, 51, 61
5, 491420, Note_off_c, 3, 55, 0
5, 491420, Note_off_c, 3, 51, 0
5, 491424, Note_on_c, 3, 58, 61
5, 491516, Note_off_c, 3, 58, 0
5, 491520, Note_on_c, 3, 53, 82
5, 491520, Note_on_c, 3, 50, 82
5, 491612, Note_off_c, 3, 53, 0
5, 491612, Note_off_c, 3, 50, 0
5, 491616, Note_on_c, 3, 58, 82
5, 491708, Note_off_c, 3, 58, 0
5, 491712, Note_on_c, 3, 53, 82
5, 491712, Note_on_c, 3, 50, 82
5, 491804, Note_off_c, 3, 53, 0
5, 491804, Note_off_c, 3, 50, 0
5, 491808, Note_on_c, 3, 58, 82
5, 491900, Note_off_c, 3, 58, 0
5, 491904, Note_on_c, 3, 53, 82
5, 491904, Note_on_c, 3, 50, 82
5, 491996, Note_off_c, 3, 53, 0
5, 491996, Note_off_c, 3, 50, 0
5, 492000, Note_on_c, 3, 58, 82
5, 492092, Note_off_c, 3, 58, 0
5, 492096, Note_on_c, 3, 53, 82
5, 492096, Note_on_c, 3, 50, 82
5, 492188, Note_off_c, 3, 53, 0
5, 492188, Note_off_c, 3, 50, 0
5, 492192, Note_on_c, 3, 58, 82
5, 492284, Note_off_c, 3, 58, 0
5, 492288, Note_on_c, 3, 53, 82
5, 492288, Note_on_c, 3, 50, 82
5, 492380, Note_off_c, 3, 53, 0
5, 492380, Note_off_c, 3, 50, 0
5, 492384, Note_on_c, 3, 58, 82
5, 492476, Note_off_c, 3, 58, 0
5, 492480, Note_on_c, 3, 53, 82
5, 492480, Note_on_c, 3, 50, 82
5, 492572, Note_off_c, 3, 53, 0
5, 492572, Note_off_c, 3, 50, 0
5, 492576, Note_on_c, 3, 58, 82
5, 492668, Note_off_c, 3, 58, 0
5, 492672, Note_on_c, 3, 53, 82
5, 492672, Note_on_c, 3, 50, 82
5, 492764, Note_off_c, 3, 53, 0
5, 492764, Note_off_c, 3, 50, 0
5, 492768, Note_on_c, 3, 58, 82
5, 492860, Note_off_c, 3, 58, 0
5, 492864, Note_on_c, 3, 53, 82
5, 492864, Note_on_c, 3, 50, 82
5, 492956, Note_off_c, 3, 53, 0
5, 492956, Note_off_c, 3, 50, 0
5, 492960, Note_on_c, 3, 58, 82
5, 493052, Note_off_c, 3, 58, 0
5, 493056, Note_on_c, 3, 55, 61
5, 493056, Note_on_c, 3, 51, 61
5, 493148, Note_off_c, 3, 55, 0
5, 493148, Note_off_c, 3, 51, 0
5, 493152, Note_on_c, 3, 58, 61
5, 493244, Note_off_c, 3, 58, 0
5, 493248, Note_on_c, 3, 55, 61
5, 493248, Note_on_c, 3, 51, 61
5, 493340, Note_off_c, 3, 55, 0
5, 493340, Note_off_c, 3, 51, 0
5, 493344, Note_on_c, 3, 58, 61
5, 493436, Note_off_c, 3, 58, 0
5, 493440, Note_on_c, 3, 55, 61
5, 493440, Note_on_c, 3, 51, 61
5, 493532, Note_off_c, 3, 55, 0
5, 493532, Note_off_c, 3, 51, 0
5, 493536, Note_on_c, 3, 58, 61
5, 493628, Note_off_c, 3, 58, 0
5, 493632, Note_on_c, 3, 55, 61
5, 493632, Note_on_c, 3, 51, 61
5, 493724, Note_off_c, 3, 55, 0
5, 493724, Note_off_c, 3, 51, 0
5, 493728, Note_on_c, 3, 58, 61
5, 493820, Note_off_c, 3, 58, 0
5, 493824, Note_on_c, 3, 55, 61
5, 493824, Note_on_c, 3, 51, 61
5, 493916, Note_off_c, 3, 55, 0
5, 493916, Note_off_c, 3, 51, 0
5, 493920, Note_on_c, 3, 58, 61
5, 494012, Note_off_c, 3, 58, 0
5, 494016, Note_on_c, 3, 55, 61
5, 494016, Note_on_c, 3, 51, 61
5, 494108, Note_off_c, 3, 55, 0
5, 494108, Note_off_c, 3, 51, 0
5, 494112, Note_on_c, 3, 58, 61
5, 494204, Note_off_c, 3, 58, 0
5, 494208, Note_on_c, 3, 55, 61
5, 494208, Note_on_c, 3, 51, 61
5, 494300, Note_off_c, 3, 55, 0
5, 494300, Note_off_c, 3, 51, 0
5, 494304, Note_on_c, 3, 58, 61
5, 494396, Note_off_c, 3, 58, 0
5, 494400, Note_on_c, 3, 55, 61
5, 494400, Note_on_c, 3, 51, 61
5, 494492, Note_off_c, 3, 55, 0
5, 494492, Note_off_c, 3, 51, 0
5, 494496, Note_on_c, 3, 58, 61
5, 494588, Note_off_c, 3, 58, 0
5, 494592, Note_on_c, 3, 53, 82
5, 494592, Note_on_c, 3, 50, 82
5, 494684, Note_off_c, 3, 53, 0
5, 494684, Note_off_c, 3, 50, 0
5, 494688, Note_on_c, 3, 58, 82
5, 494780, Note_off_c, 3, 58, 0
5, 494784, Note_on_c, 3, 53, 82
5, 494784, Note_on_c, 3, 50, 82
5, 494876, Note_off_c, 3, 53, 0
5, 494876, Note_off_c, 3, 50, 0
5, 494880, Note_on_c, 3, 58, 82
5, 494972, Note_off_c, 3, 58, 0
5, 494976, Note_on_c, 3, 53, 82
5, 494976, Note_on_c, 3, 50, 82
5, 495068, Note_off_c, 3, 53, 0
5, 495068, Note_off_c, 3, 50, 0
5, 495072, Note_on_c, 3, 58, 82
5, 495164, Note_off_c, 3, 58, 0
5, 495168, Note_on_c, 3, 53, 82
5, 495168, Note_on_c, 3, 50, 82
5, 495260, Note_off_c, 3, 53, 0
5, 495260, Note_off_c, 3, 50, 0
5, 495264, Note_on_c, 3, 58, 82
5, 495356, Note_off_c, 3, 58, 0
5, 495360, Note_on_c, 3, 53, 82
5, 495360, Note_on_c, 3, 50, 82
5, 495452, Note_off_c, 3, 53, 0
5, 495452, Note_off_c, 3, 50, 0
5, 495456, Note_on_c, 3, 58, 82
5, 495548, Note_off_c, 3, 58, 0
5, 495552, Note_on_c, 3, 53, 82
5, 495552, Note_on_c, 3, 50, 82
5, 495644, Note_off_c, 3, 53, 0
5, 495644, Note_off_c, 3, 50, 0
5, 495648, Note_on_c, 3, 58, 82
5, 495740, Note_off_c, 3, 58, 0
5, 495744, Note_on_c, 3, 53, 82
5, 495744, Note_on_c, 3, 50, 82
5, 495836, Note_off_c, 3, 53, 0
5, 495836, Note_off_c, 3, 50, 0
5, 495840, Note_on_c, 3, 58, 82
5, 495932, Note_off_c, 3, 58, 0
5, 495936, Note_on_c, 3, 53, 82
5, 495936, Note_on_c, 3, 50, 82
5, 496028, Note_off_c, 3, 53, 0
5, 496028, Note_off_c, 3, 50, 0
5, 496032, Note_on_c, 3, 58, 82
5, 496124, Note_off_c, 3, 58, 0
5, 496128, Note_on_c, 3, 55, 82
5, 496128, Note_on_c, 3, 51, 82
5, 496220, Note_off_c, 3, 55, 0
5, 496220, Note_off_c, 3, 51, 0
5, 496224, Note_on_c, 3, 58, 82
5, 496316, Note_off_c, 3, 58, 0
5, 496320, Note_on_c, 3, 55, 82
5, 496320, Note_on_c, 3, 51, 82
5, 496412, Note_off_c, 3, 55, 0
5, 496412, Note_off_c, 3, 51, 0
5, 496416, Note_on_c, 3, 58, 82
5, 496508, Note_off_c, 3, 58, 0
5, 496512, Note_on_c, 3, 55, 82
5, 496512, Note_on_c, 3, 51, 82
5, 496604, Note_off_c, 3, 55, 0
5, 496604, Note_off_c, 3, 51, 0
5, 496608, Note_on_c, 3, 58, 82
5, 496700, Note_off_c, 3, 58, 0
5, 496704, Note_on_c, 3, 55, 82
5, 496704, Note_on_c, 3, 51, 82
5, 496796, Note_off_c, 3, 55, 0
5, 496796, Note_off_c, 3, 51, 0
5, 496800, Note_on_c, 3, 58, 82
5, 496892, Note_off_c, 3, 58, 0
5, 496896, Note_on_c, 3, 55, 82
5, 496896, Note_on_c, 3, 51, 82
5, 496988, Note_off_c, 3, 55, 0
5, 496988, Note_off_c, 3, 51, 0
5, 496992, Note_on_c, 3, 58, 82
5, 497084, Note_off_c, 3, 58, 0
5, 497088, Note_on_c, 3, 55, 82
5, 497088, Note_on_c, 3, 51, 82
5, 497180, Note_off_c, 3, 55, 0
5, 497180, Note_off_c, 3, 51, 0
5, 497184, Note_on_c, 3, 58, 82
5, 497276, Note_off_c, 3, 58, 0
5, 497280, Note_on_c, 3, 55, 82
5, 497280, Note_on_c, 3, 51, 82
5, 497372, Note_off_c, 3, 55, 0
5, 497372, Note_off_c, 3, 51, 0
5, 497376, Note_on_c, 3, 58, 82
5, 497468, Note_off_c, 3, 58, 0
5, 497472, Note_on_c, 3, 55, 82
5, 497472, Note_on_c, 3, 51, 82
5, 497564, Note_off_c, 3, 55, 0
5, 497564, Note_off_c, 3, 51, 0
5, 497568, Note_on_c, 3, 58, 82
5, 497660, Note_off_c, 3, 58, 0
5, 497664, Note_on_c, 3, 55, 82
5, 497664, Note_on_c, 3, 51, 82
5, 498044, Note_off_c, 3, 55, 0
5, 498044, Note_off_c, 3, 51, 0
5, 498048, Note_on_c, 3, 55, 82
5, 498048, Note_on_c, 3, 61, 82
5, 498048, Note_on_c, 3, 51, 82
5, 498332, Note_off_c, 3, 55, 0
5, 498332, Note_off_c, 3, 61, 0
5, 498332, Note_off_c, 3, 51, 0
5, 498336, Note_on_c, 3, 61, 82
5, 498336, Note_on_c, 3, 55, 82
5, 498336, Note_on_c, 3, 51, 82
5, 498428, Note_off_c, 3, 61, 0
5, 498428, Note_off_c, 3, 55, 0
5, 498428, Note_off_c, 3, 51, 0
5, 498432, Note_on_c, 3, 61, 82
5, 498432, Note_on_c, 3, 55, 82
5, 498432, Note_on_c, 3, 51, 82
5, 498716, Note_off_c, 3, 61, 0
5, 498716, Note_off_c, 3, 55, 0
5, 498716, Note_off_c, 3, 51, 0
5, 498720, Note_on_c, 3, 61, 82
5, 498720, Note_on_c, 3, 55, 82
5, 498720, Note_on_c, 3, 51, 82
5, 498812, Note_off_c, 3, 61, 0
5, 498812, Note_off_c, 3, 55, 0
5, 498812, Note_off_c, 3, 51, 0
5, 498816, Note_on_c, 3, 55, 82
5, 498816, Note_on_c, 3, 61, 82
5, 498816, Note_on_c, 3, 51, 82
5, 499100, Note_off_c, 3, 55, 0
5, 499100, Note_off_c, 3, 61, 0
5, 499100, Note_off_c, 3, 51, 0
5, 499104, Note_on_c, 3, 61, 82
5, 499104, Note_on_c, 3, 55, 82
5, 499104, Note_on_c, 3, 51, 82
5, 499196, Note_off_c, 3, 61, 0
5, 499196, Note_off_c, 3, 55, 0
5, 499196, Note_off_c, 3, 51, 0
5, 499200, Note_on_c, 3, 62, 82
5, 499200, Note_on_c, 3, 57, 82
5, 499200, Note_on_c, 3, 54, 82
5, 499200, Note_on_c, 3, 50, 82
5, 499580, Note_off_c, 3, 62, 0
5, 499580, Note_off_c, 3, 57, 0
5, 499580, Note_off_c, 3, 54, 0
5, 499580, Note_off_c, 3, 50, 0
5, 499968, Note_on_c, 3, 55, 82
5, 499968, Note_on_c, 3, 52, 82
5, 500348, Note_off_c, 3, 55, 0
5, 500348, Note_off_c, 3, 52, 0
5, 500736, Note_on_c, 3, 60, 82
5, 500736, Note_on_c, 3, 48, 82
5, 501116, Note_off_c, 3, 60, 0
5, 501116, Note_off_c, 3, 48, 0
5, 501504, Note_on_c, 3, 61, 82
5, 501504, Note_on_c, 3, 49, 82
5, 501884, Note_off_c, 3, 61, 0
5, 501884, Note_off_c, 3, 49, 0
5, 502272, Note_on_c, 3, 62, 82
5, 502272, Note_on_c, 3, 50, 82
5, 503420, Note_off_c, 3, 62, 0
5, 503420, Note_off_c, 3, 50, 0
5, 562176, Note_on_c, 3, 55, 61
5, 562176, Note_on_c, 3, 43, 61
5, 562364, Note_off_c, 3, 55, 0
5, 562364, Note_off_c, 3, 43, 0
5, 562368, Note_on_c, 3, 55, 61
5, 562368, Note_on_c, 3, 43, 61
5, 562556, Note_off_c, 3, 55, 0
5, 562556, Note_off_c, 3, 43, 0
5, 562560, Note_on_c, 3, 55, 61
5, 562560, Note_on_c, 3, 43, 61
5, 562748, Note_off_c, 3, 55, 0
5, 562748, Note_off_c, 3, 43, 0
5, 562752, Note_on_c, 3, 55, 61
5, 562752, Note_on_c, 3, 43, 61
5, 562940, Note_off_c, 3, 55, 0
5, 562940, Note_off_c, 3, 43, 0
5, 562944, Note_on_c, 3, 55, 61
5, 562944, Note_on_c, 3, 43, 61
5, 563132, Note_off_c, 3, 55, 0
5, 563132, Note_off_c, 3, 43, 0
5, 563136, Note_on_c, 3, 55, 61
5, 563136, Note_on_c, 3, 43, 61
5, 563324, Note_off_c, 3, 55, 0
5, 563324, Note_off_c, 3, 43, 0
5, 563328, Note_on_c, 3, 55, 61
5, 563328, Note_on_c, 3, 43, 61
5, 563516, Note_off_c, 3, 55, 0
5, 563516, Note_off_c, 3, 43, 0
5, 563520, Note_on_c, 3, 55, 61
5, 563520, Note_on_c, 3, 43, 61
5, 563708, Note_off_c, 3, 55, 0
5, 563708, Note_off_c, 3, 43, 0
5, 563712, Note_on_c, 3, 55, 61
5, 563712, Note_on_c, 3, 43, 61
5, 563900, Note_off_c, 3, 55, 0
5, 563900, Note_off_c, 3, 43, 0
5, 563904, Note_on_c, 3, 55, 61
5, 563904, Note_on_c, 3, 43, 61
5, 564092, Note_off_c, 3, 55, 0
5, 564092, Note_off_c, 3, 43, 0
5, 564096, Note_on_c, 3, 55, 61
5, 564096, Note_on_c, 3, 43, 61
5, 564284, Note_off_c, 3, 55, 0
5, 564284, Note_off_c, 3, 43, 0
5, 564288, Note_on_c, 3, 55, 61
5, 564288, Note_on_c, 3, 43, 61
5, 564476, Note_off_c, 3, 55, 0
5, 564476, Note_off_c, 3, 43, 0
5, 564480, Note_on_c, 3, 55, 61
5, 564480, Note_on_c, 3, 43, 61
5, 564668, Note_off_c, 3, 55, 0
5, 564668, Note_off_c, 3, 43, 0
5, 564672, Note_on_c, 3, 55, 61
5, 564672, Note_on_c, 3, 43, 61
5, 564860, Note_off_c, 3, 55, 0
5, 564860, Note_off_c, 3, 43, 0
5, 564864, Note_on_c, 3, 55, 61
5, 564864, Note_on_c, 3, 43, 61
5, 565052, Note_off_c, 3, 55, 0
5, 565052, Note_off_c, 3, 43, 0
5, 565056, Note_on_c, 3, 55, 61
5, 565056, Note_on_c, 3, 43, 61
5, 565244, Note_off_c, 3, 55, 0
5, 565244, Note_off_c, 3, 43, 0
5, 565248, Note_on_c, 3, 55, 61
5, 565248, Note_on_c, 3, 43, 61
5, 565436, Note_off_c, 3, 55, 0
5, 565436, Note_off_c, 3, 43, 0
5, 565440, Note_on_c, 3, 55, 61
5, 565440, Note_on_c, 3, 43, 61
5, 565628, Note_off_c, 3, 55, 0
5, 565628, Note_off_c, 3, 43, 0
5, 565632, Note_on_c, 3, 55, 61
5, 565632, Note_on_c, 3, 43, 61
5, 565820, Note_off_c, 3, 55, 0
5, 565820, Note_off_c, 3, 43, 0
5, 565824, Note_on_c, 3, 55, 61
5, 565824, Note_on_c, 3, 43, 61
5, 566012, Note_off_c, 3, 55, 0
5, 566012, Note_off_c, 3, 43, 0
5, 566016, Note_on_c, 3, 55, 61
5, 566016, Note_on_c, 3, 43, 61
5, 566204, Note_off_c, 3, 55, 0
5, 566204, Note_off_c, 3, 43, 0
5, 566208, Note_on_c, 3, 55, 61
5, 566208, Note_on_c, 3, 43, 61
5, 566396, Note_off_c, 3, 55, 0
5, 566396, Note_off_c, 3, 43, 0
5, 566400, Note_on_c, 3, 55, 61
5, 566400, Note_on_c, 3, 43, 61
5, 566588, Note_off_c, 3, 55, 0
5, 566588, Note_off_c, 3, 43, 0
5, 566592, Note_on_c, 3, 55, 61
5, 566592, Note_on_c, 3, 43, 61
5, 566780, Note_off_c, 3, 55, 0
5, 566780, Note_off_c, 3, 43, 0
5, 566784, Note_on_c, 3, 55, 61
5, 566784, Note_on_c, 3, 48, 61
5, 567164, Note_off_c, 3, 55, 0
5, 567164, Note_off_c, 3, 48, 0
5, 567168, Note_on_c, 3, 48, 61
5, 567360, Note_on_c, 3, 57, 61
5, 567360, Note_on_c, 3, 52, 61
5, 567548, Note_off_c, 3, 48, 0
5, 567548, Note_off_c, 3, 57, 0
5, 567548, Note_off_c, 3, 52, 0
5, 567552, Note_on_c, 3, 59, 61
5, 567552, Note_on_c, 3, 50, 61
5, 567932, Note_off_c, 3, 59, 0
5, 567932, Note_off_c, 3, 50, 0
5, 567936, Note_on_c, 3, 57, 61
5, 567936, Note_on_c, 3, 50, 61
5, 568316, Note_off_c, 3, 57, 0
5, 568316, Note_off_c, 3, 50, 0
5, 568320, Note_on_c, 3, 55, 61
5, 568508, Note_off_c, 3, 55, 0
5, 568512, Note_on_c, 3, 43, 61
5, 568700, Note_off_c, 3, 43, 0
5, 568704, Note_on_c, 3, 43, 61
5, 568892, Note_off_c, 3, 43, 0
5, 568896, Note_on_c, 3, 43, 61
5, 569084, Note_off_c, 3, 43, 0
5, 569088, Note_on_c, 3, 43, 61
5, 569088, Note_on_c, 3, 31, 61
5, 569276, Note_off_c, 3, 43, 0
5, 569276, Note_off_c, 3, 31, 0
5, 569280, Note_on_c, 3, 43, 61
5, 569280, Note_on_c, 3, 31, 61
5, 569468, Note_off_c, 3, 43, 0
5, 569468, Note_off_c, 3, 31, 0
5, 569472, Note_on_c, 3, 43, 61
5, 569472, Note_on_c, 3, 31, 61
5, 569660, Note_off_c, 3, 43, 0
5, 569660, Note_off_c, 3, 31, 0
5, 569664, Note_on_c, 3, 43, 61
5, 569664, Note_on_c, 3, 31, 61
5, 569852, Note_off_c, 3, 43, 0
5, 569852, Note_off_c, 3, 31, 0
5, 569856, Note_on_c, 3, 43, 61
5, 569856, Note_on_c, 3, 31, 61
5, 570044, Note_off_c, 3, 43, 0
5, 570044, Note_off_c, 3, 31, 0
5, 570048, Note_on_c, 3, 43, 61
5, 570048, Note_on_c, 3, 31, 61
5, 570236, Note_off_c, 3, 43, 0
5, 570236, Note_off_c, 3, 31, 0
5, 570240, Note_on_c, 3, 43, 61
5, 570240, Note_on_c, 3, 31, 61
5, 570428, Note_off_c, 3, 43, 0
5, 570428, Note_off_c, 3, 31, 0
5, 570432, Note_on_c, 3, 43, 61
5, 570432, Note_on_c, 3, 31, 61
5, 570620, Note_off_c, 3, 43, 0
5, 570620, Note_off_c, 3, 31, 0
5, 570624, Note_on_c, 3, 43, 61
5, 570624, Note_on_c, 3, 31, 61
5, 570812, Note_off_c, 3, 43, 0
5, 570812, Note_off_c, 3, 31, 0
5, 570816, Note_on_c, 3, 43, 61
5, 570816, Note_on_c, 3, 31, 61
5, 571004, Note_off_c, 3, 43, 0
5, 571004, Note_off_c, 3, 31, 0
5, 571008, Note_on_c, 3, 43, 61
5, 571008, Note_on_c, 3, 31, 61
5, 571196, Note_off_c, 3, 43, 0
5, 571196, Note_off_c, 3, 31, 0
5, 571200, Note_on_c, 3, 43, 61
5, 571200, Note_on_c, 3, 31, 61
5, 571388, Note_off_c, 3, 43, 0
5, 571388, Note_off_c, 3, 31, 0
5, 571392, Note_on_c, 3, 43, 61
5, 571392, Note_on_c, 3, 31, 61
5, 571580, Note_off_c, 3, 43, 0
5, 571580, Note_off_c, 3, 31, 0
5, 571584, Note_on_c, 3, 43, 61
5, 571584, Note_on_c, 3, 31, 61
5, 571772, Note_off_c, 3, 43, 0
5, 571772, Note_off_c, 3, 31, 0
5, 571776, Note_on_c, 3, 43, 61
5, 571776, Note_on_c, 3, 31, 61
5, 571964, Note_off_c, 3, 43, 0
5, 571964, Note_off_c, 3, 31, 0
5, 571968, Note_on_c, 3, 43, 61
5, 571968, Note_on_c, 3, 31, 61
5, 572156, Note_off_c, 3, 43, 0
5, 572156, Note_off_c, 3, 31, 0
5, 572160, Note_on_c, 3, 43, 61
5, 572160, Note_on_c, 3, 31, 61
5, 572348, Note_off_c, 3, 43, 0
5, 572348, Note_off_c, 3, 31, 0
5, 572352, Note_on_c, 3, 43, 61
5, 572352, Note_on_c, 3, 31, 61
5, 572540, Note_off_c, 3, 43, 0
5, 572540, Note_off_c, 3, 31, 0
5, 572544, Note_on_c, 3, 43, 61
5, 572544, Note_on_c, 3, 31, 61
5, 572732, Note_off_c, 3, 43, 0
5, 572732, Note_off_c, 3, 31, 0
5, 572736, Note_on_c, 3, 43, 61
5, 572736, Note_on_c, 3, 31, 61
5, 572924, Note_off_c, 3, 43, 0
5, 572924, Note_off_c, 3, 31, 0
5, 572928, Note_on_c, 3, 48, 61
5, 572928, Note_on_c, 3, 36, 61
5, 573308, Note_off_c, 3, 48, 0
5, 573308, Note_off_c, 3, 36, 0
5, 573312, Note_on_c, 3, 48, 61
5, 573504, Note_on_c, 3, 57, 61
5, 573504, Note_on_c, 3, 52, 61
5, 573692, Note_off_c, 3, 48, 0
5, 573692, Note_off_c, 3, 57, 0
5, 573692, Note_off_c, 3, 52, 0
5, 573696, Note_on_c, 3, 59, 61
5, 573696, Note_on_c, 3, 55, 61
5, 573696, Note_on_c, 3, 50, 61
5, 574076, Note_off_c, 3, 59, 0
5, 574076, Note_off_c, 3, 55, 0
5, 574076, Note_off_c, 3, 50, 0
5, 574080, Note_on_c, 3, 57, 61
5, 574080, Note_on_c, 3, 54, 61
5, 574080, Note_on_c, 3, 48, 61
5, 574460, Note_off_c, 3, 57, 0
5, 574460, Note_off_c, 3, 54, 0
5, 574460, Note_off_c, 3, 48, 0
5, 574464, Note_on_c, 3, 47, 61
5, 574656, Note_on_c, 3, 50, 61
5, 574748, Note_off_c, 3, 50, 0
5, 574848, Note_on_c, 3, 55, 61
5, 575036, Note_off_c, 3, 55, 0
5, 575040, Note_on_c, 3, 59, 61
5, 575228, Note_off_c, 3, 47, 0
5, 575228, Note_off_c, 3, 59, 0
5, 575232, Note_on_c, 3, 52, 61
5, 575424, Note_on_c, 3, 55, 61
5, 575516, Note_off_c, 3, 55, 0
5, 575616, Note_on_c, 3, 61, 61
5, 575804, Note_off_c, 3, 61, 0
5, 575808, Note_on_c, 3, 64, 61
5, 575996, Note_off_c, 3, 52, 0
5, 575996, Note_off_c, 3, 64, 0
5, 576000, Note_on_c, 3, 50, 61
5, 576192, Note_on_c, 3, 55, 61
5, 576380, Note_off_c, 3, 55, 0
5, 576384, Note_on_c, 3, 59, 61
5, 576572, Note_off_c, 3, 59, 0
5, 576576, Note_on_c, 3, 55, 61
5, 576764, Note_off_c, 3, 50, 0
5, 576764, Note_off_c, 3, 55, 0
5, 576768, Note_on_c, 3, 48, 61
5, 576960, Note_on_c, 3, 54, 61
5, 577148, Note_off_c, 3, 54, 0
5, 577152, Note_on_c, 3, 57, 61
5, 577340, Note_off_c, 3, 57, 0
5, 577344, Note_on_c, 3, 54, 61
5, 577532, Note_off_c, 3, 48, 0
5, 577532, Note_off_c, 3, 54, 0
5, 577536, Note_on_c, 3, 47, 61
5, 577536, Note_on_c, 3, 47, 61
5, 577628, Note_off_c, 3, 47, 0
5, 577728, Note_on_c, 3, 50, 61
5, 577820, Note_off_c, 3, 50, 0
5, 577916, Note_off_c, 3, 47, 0
5, 577920, Note_on_c, 3, 55, 61
5, 578012, Note_off_c, 3, 55, 0
5, 578112, Note_on_c, 3, 59, 61
5, 578204, Note_off_c, 3, 59, 0
5, 578304, Note_on_c, 3, 52, 61
5, 578304, Note_on_c, 3, 52, 61
5, 578396, Note_off_c, 3, 52, 0
5, 578496, Note_on_c, 3, 55, 61
5, 578588, Note_off_c, 3, 55, 0
5, 578684, Note_off_c, 3, 52, 0
5, 578688, Note_on_c, 3, 61, 61
5, 578780, Note_off_c, 3, 61, 0
5, 578880, Note_on_c, 3, 64, 61
5, 578972, Note_off_c, 3, 64, 0
5, 579072, Note_on_c, 3, 50, 61
5, 579072, Note_on_c, 3, 50, 61
5, 579164, Note_off_c, 3, 50, 0
5, 579264, Note_on_c, 3, 55, 61
5, 579356, Note_off_c, 3, 55, 0
5, 579452, Note_off_c, 3, 50, 0
5, 579456, Note_on_c, 3, 59, 61
5, 579548, Note_off_c, 3, 59, 0
5, 579648, Note_on_c, 3, 62, 61
5, 579740, Note_off_c, 3, 62, 0
5, 579840, Note_on_c, 3, 50, 61
5, 579840, Note_on_c, 3, 50, 61
5, 579932, Note_off_c, 3, 50, 0
5, 580032, Note_on_c, 3, 54, 61
5, 580124, Note_off_c, 3, 54, 0
5, 580220, Note_off_c, 3, 50, 0
5, 580224, Note_on_c, 3, 57, 61
5, 580316, Note_off_c, 3, 57, 0
5, 580416, Note_on_c, 3, 62, 61
5, 580508, Note_off_c, 3, 62, 0
5, 580608, Note_on_c, 3, 59, 61
5, 580608, Note_on_c, 3, 55, 61
5, 580988, Note_off_c, 3, 59, 0
5, 580988, Note_off_c, 3, 55, 0
5, 581280, Note_on_c, 3, 50, 82
5, 581372, Note_off_c, 3, 50, 0
5, 581376, Note_on_c, 3, 62, 82
5, 581376, Note_on_c, 3, 50, 82
5, 581564, Note_off_c, 3, 62, 0
5, 581564, Note_off_c, 3, 50, 0
5, 581760, Note_on_c, 3, 63, 82
5, 581760, Note_on_c, 3, 51, 82
5, 581948, Note_off_c, 3, 63, 0
5, 581948, Note_off_c, 3, 51, 0
5, 582144, Note_on_c, 3, 64, 82
5, 582144, Note_on_c, 3, 52, 82
5, 582332, Note_off_c, 3, 64, 0
5, 582332, Note_off_c, 3, 52, 0
5, 582528, Note_on_c, 3, 60, 82
5, 582528, Note_on_c, 3, 48, 82
5, 582716, Note_off_c, 3, 60, 0
5, 582716, Note_off_c, 3, 48, 0
5, 583296, Note_on_c, 3, 62, 82
5, 583296, Note_on_c, 3, 50, 82
5, 583484, Note_off_c, 3, 62, 0
5, 583484, Note_off_c, 3, 50, 0
5, 583680, Note_on_c, 3, 55, 82
5, 583680, Note_on_c, 3, 43, 82
5, 584060, Note_off_c, 3, 55, 0
5, 584060, Note_off_c, 3, 43, 0
5, 584352, Note_on_c, 3, 50, 82
5, 584444, Note_off_c, 3, 50, 0
5, 584448, Note_on_c, 3, 62, 82
5, 584448, Note_on_c, 3, 50, 82
5, 584636, Note_off_c, 3, 62, 0
5, 584636, Note_off_c, 3, 50, 0
5, 584832, Note_on_c, 3, 63, 82
5, 584832, Note_on_c, 3, 51, 82
5, 585020, Note_off_c, 3, 63, 0
5, 585020, Note_off_c, 3, 51, 0
5, 585216, Note_on_c, 3, 64, 82
5, 585216, Note_on_c, 3, 52, 82
5, 585404, Note_off_c, 3, 64, 0
5, 585404, Note_off_c, 3, 52, 0
5, 585600, Note_on_c, 3, 60, 82
5, 585600, Note_on_c, 3, 48, 82
5, 585788, Note_off_c, 3, 60, 0
5, 585788, Note_off_c, 3, 48, 0
5, 586368, Note_on_c, 3, 62, 82
5, 586368, Note_on_c, 3, 50, 82
5, 586556, Note_off_c, 3, 62, 0
5, 586556, Note_off_c, 3, 50, 0
5, 586752, Note_on_c, 3, 55, 82
5, 586752, Note_on_c, 3, 43, 82
5, 586844, Note_off_c, 3, 55, 0
5, 586844, Note_off_c, 3, 43, 0
5, 586944, Note_on_c, 3, 50, 82
5, 587036, Note_off_c, 3, 50, 0
5, 587136, Note_on_c, 3, 55, 82
5, 587228, Note_off_c, 3, 55, 0
5, 587328, Note_on_c, 3, 59, 82
5, 587420, Note_off_c, 3, 59, 0
5, 587520, Note_on_c, 3, 61, 82
5, 587708, Note_off_c, 3, 61, 0
5, 587712, Note_on_c, 3, 62, 82
5, 587900, Note_off_c, 3, 62, 0
5, 587904, Note_on_c, 3, 50, 82
5, 587996, Note_off_c, 3, 50, 0
5, 588096, Note_on_c, 3, 62, 82
5, 588188, Note_off_c, 3, 62, 0
5, 588288, Note_on_c, 3, 55, 82
5, 588288, Note_on_c, 3, 43, 82
5, 588380, Note_off_c, 3, 55, 0
5, 588380, Note_off_c, 3, 43, 0
5, 588480, Note_on_c, 3, 50, 82
5, 588572, Note_off_c, 3, 50, 0
5, 588672, Note_on_c, 3, 55, 82
5, 588764, Note_off_c, 3, 55, 0
5, 588864, Note_on_c, 3, 59, 82
5, 588956, Note_off_c, 3, 59, 0
5, 589056, Note_on_c, 3, 61, 82
5, 589244, Note_off_c, 3, 61, 0
5, 589248, Note_on_c, 3, 62, 82
5, 589436, Note_off_c, 3, 62, 0
5, 589440, Note_on_c, 3, 50, 82
5, 589532, Note_off_c, 3, 50, 0
5, 589632, Note_on_c, 3, 62, 82
5, 589724, Note_off_c, 3, 62, 0
5, 589824, Note_on_c, 3, 55, 82
5, 590012, Note_off_c, 3, 55, 0
5, 590016, Note_on_c, 3, 43, 82
5, 590108, Note_off_c, 3, 43, 0
5, 590208, Note_on_c, 3, 47, 82
5, 590300, Note_off_c, 3, 47, 0
5, 590400, Note_on_c, 3, 50, 82
5, 590492, Note_off_c, 3, 50, 0
5, 590592, Note_on_c, 3, 54, 82
5, 590780, Note_off_c, 3, 54, 0
5, 590784, Note_on_c, 3, 55, 82
5, 590972, Note_off_c, 3, 55, 0
5, 590976, Note_on_c, 3, 43, 82
5, 591068, Note_off_c, 3, 43, 0
5, 591168, Note_on_c, 3, 55, 82
5, 591260, Note_off_c, 3, 55, 0
5, 591360, Note_on_c, 3, 55, 82
5, 591360, Note_on_c, 3, 43, 82
5, 591548, Note_off_c, 3, 55, 0
5, 591548, Note_off_c, 3, 43, 0
5, 591552, Note_on_c, 3, 43, 82
5, 591644, Note_off_c, 3, 43, 0
5, 591744, Note_on_c, 3, 47, 82
5, 591836, Note_off_c, 3, 47, 0
5, 591936, Note_on_c, 3, 50, 82
5, 592028, Note_off_c, 3, 50, 0
5, 592128, Note_on_c, 3, 54, 82
5, 592316, Note_off_c, 3, 54, 0
5, 592320, Note_on_c, 3, 55, 82
5, 592508, Note_off_c, 3, 55, 0
5, 592512, Note_on_c, 3, 43, 82
5, 592604, Note_off_c, 3, 43, 0
5, 592704, Note_on_c, 3, 55, 82
5, 592796, Note_off_c, 3, 55, 0
5, 592896, Note_on_c, 3, 55, 85
5, 592896, Note_on_c, 3, 43, 85
5, 593276, Note_off_c, 3, 55, 0
5, 593276, Note_off_c, 3, 43, 0
5, 593280, Note_on_c, 3, 55, 85
5, 593280, Note_on_c, 3, 43, 85
5, 593660, Note_off_c, 3, 55, 0
5, 593660, Note_off_c, 3, 43, 0
5, 593664, Note_on_c, 3, 50, 85
5, 593664, Note_on_c, 3, 38, 85
5, 594044, Note_off_c, 3, 50, 0
5, 594044, Note_off_c, 3, 38, 0
5, 594048, Note_on_c, 3, 47, 85
5, 594048, Note_on_c, 3, 35, 85
5, 594428, Note_off_c, 3, 47, 0
5, 594428, Note_off_c, 3, 35, 0
5, 594432, Note_on_c, 3, 43, 85
5, 594432, Note_on_c, 3, 31, 85
5, 595196, Note_off_c, 3, 43, 0
5, 595196, Note_off_c, 3, 31, 0
5, 595196, End_track
6, 0, Start_track
6, 0, Title_t, "B.Fisher"
6, 0, Control_c, 4, 7, 127
6, 0, Control_c, 4, 10, 67
6, 0, Control_c, 4, 91, 0
6, 0, Control_c, 4, 93, 0
6, 0, Key_signature, 1, "major"
6, 18432, Key_signature, 0, "major"
6, 125952, Key_signature, 1, "major"
6, 125952, End_track
0, 0, End_of_file
