0, 0, Header, 1, 6, 384
1, 0, Start_track
1, 0, Time_signature, 3, 3, 96, 8
1, 0, Sequencer_specific, 3, 0, 0, 65
1, 0, Sequencer_specific, 5, 0, 0, 119, 14, 0
1, 0, Tempo, 909090
1, 63360, Tempo, 1071428
1, 63936, Tempo, 1333333
1, 64512, Tempo, 2000000
1, 65088, Tempo, 1714285
1, 65950, Tempo, 1200000
1, 66624, Tempo, 2000000
1, 67102, Tempo, 909090
1, 68160, Tempo, 2000000
1, 68544, Tempo, 1500000
1, 69120, Tempo, 909090
1, 176256, Tempo, 1000000
1, 176832, Tempo, 1052631
1, 177408, Tempo, 1333333
1, 177888, Tempo, 909090
1, 194688, Tempo, 2000000
1, 195072, Tempo, 1714285
1, 195454, Tempo, 909090
1, 198480, Tempo, 2000000
1, 198720, Tempo, 952380
1, 199296, Tempo, 909090
1, 216576, Tempo, 952380
1, 217152, Tempo, 967741
1, 217152, End_track
2, 0, Start_track
2, 0, Title_t, "Mozart - Piano"
2, 0, Control_c, 0, 0, 0
2, 0, Program_c, 0, 0
2, 0, Control_c, 0, 7, 127
2, 0, Control_c, 0, 10, 67
2, 0, Control_c, 0, 91, 64
2, 0, Control_c, 0, 93, 51
2, 0, Key_signature, -2, "minor"
2, 0, Control_c, 0, 121, 0
2, 48, Control_c, 0, 10, 63
2, 96, Control_c, 0, 91, 63
2, 120, Control_c, 0, 93, 35
2, 144, Program_c, 0, 0
2, 480, Note_on_c, 0, 77, 66
2, 574, Note_off_c, 0, 77, 0
2, 576, Note_on_c, 0, 82, 66
2, 766, Note_off_c, 0, 82, 0
2, 768, Note_on_c, 0, 82, 66
2, 814, Note_off_c, 0, 82, 0
2, 864, Note_on_c, 0, 82, 66
2, 910, Note_off_c, 0, 82, 0
2, 960, Note_on_c, 0, 84, 66
2, 1006, Note_off_c, 0, 84, 0
2, 1056, Note_on_c, 0, 86, 66
2, 1102, Note_off_c, 0, 86, 0
2, 1152, Note_on_c, 0, 86, 66
2, 1246, Note_off_c, 0, 86, 0
2, 1248, Note_on_c, 0, 77, 66
2, 1342, Note_off_c, 0, 77, 0
2, 1344, Note_on_c, 0, 77, 66
2, 1390, Note_off_c, 0, 77, 0
2, 1440, Note_on_c, 0, 77, 66
2, 1630, Note_off_c, 0, 77, 0
2, 1632, Note_on_c, 0, 77, 66
2, 1726, Note_off_c, 0, 77, 0
2, 1728, Note_on_c, 0, 79, 66
2, 1918, Note_off_c, 0, 79, 0
2, 1920, Note_on_c, 0, 79, 66
2, 2014, Note_off_c, 0, 79, 0
2, 2016, Note_on_c, 0, 79, 66
2, 2062, Note_off_c, 0, 79, 0
2, 2112, Note_on_c, 0, 81, 66
2, 2158, Note_off_c, 0, 81, 0
2, 2208, Note_on_c, 0, 82, 66
2, 2254, Note_off_c, 0, 82, 0
2, 2304, Note_on_c, 0, 82, 66
2, 2398, Note_off_c, 0, 82, 0
2, 2400, Note_on_c, 0, 74, 66
2, 2494, Note_off_c, 0, 74, 0
2, 2496, Note_on_c, 0, 74, 66
2, 2542, Note_off_c, 0, 74, 0
2, 2592, Note_on_c, 0, 74, 66
2, 2782, Note_off_c, 0, 74, 0
2, 2784, Note_on_c, 0, 74, 66
2, 2878, Note_off_c, 0, 74, 0
2, 2880, Note_on_c, 0, 75, 66
2, 3070, Note_off_c, 0, 75, 0
2, 3072, Note_on_c, 0, 75, 66
2, 3166, Note_off_c, 0, 75, 0
2, 3168, Note_on_c, 0, 75, 66
2, 3214, Note_off_c, 0, 75, 0
2, 3264, Note_on_c, 0, 77, 66
2, 3310, Note_off_c, 0, 77, 0
2, 3360, Note_on_c, 0, 79, 66
2, 3406, Note_off_c, 0, 79, 0
2, 3456, Note_on_c, 0, 79, 66
2, 3550, Note_off_c, 0, 79, 0
2, 3552, Note_on_c, 0, 72, 66
2, 3646, Note_off_c, 0, 72, 0
2, 3648, Note_on_c, 0, 72, 66
2, 3694, Note_off_c, 0, 72, 0
2, 3744, Note_on_c, 0, 72, 66
2, 3934, Note_off_c, 0, 72, 0
2, 3936, Note_on_c, 0, 75, 66
2, 4030, Note_off_c, 0, 75, 0
2, 4032, Note_on_c, 0, 74, 66
2, 4126, Note_off_c, 0, 74, 0
2, 4128, Note_on_c, 0, 77, 66
2, 4174, Note_off_c, 0, 77, 0
2, 4224, Note_on_c, 0, 70, 66
2, 4270, Note_off_c, 0, 70, 0
2, 4320, Note_on_c, 0, 67, 66
2, 4366, Note_off_c, 0, 67, 0
2, 4416, Note_on_c, 0, 72, 66
2, 4462, Note_off_c, 0, 72, 0
2, 4512, Note_on_c, 0, 77, 66
2, 4534, Note_off_c, 0, 77, 0
2, 4536, Note_on_c, 0, 75, 66
2, 4582, Note_off_c, 0, 75, 0
2, 4608, Note_on_c, 0, 74, 66
2, 4894, Note_off_c, 0, 74, 0
2, 4896, Note_on_c, 0, 72, 66
2, 4990, Note_off_c, 0, 72, 0
2, 24768, Note_on_c, 0, 77, 66
2, 24768, Note_on_c, 0, 62, 66
2, 24862, Note_off_c, 0, 62, 0
2, 24864, Note_on_c, 0, 65, 66
2, 24958, Note_off_c, 0, 65, 0
2, 24960, Note_on_c, 0, 58, 66
2, 25054, Note_off_c, 0, 77, 0
2, 25054, Note_off_c, 0, 58, 0
2, 25056, Note_on_c, 0, 77, 66
2, 25056, Note_on_c, 0, 62, 66
2, 25150, Note_off_c, 0, 77, 0
2, 25150, Note_off_c, 0, 62, 0
2, 25152, Note_on_c, 0, 74, 66
2, 25152, Note_on_c, 0, 65, 66
2, 25198, Note_off_c, 0, 74, 0
2, 25198, Note_off_c, 0, 65, 0
2, 25248, Note_on_c, 0, 86, 66
2, 25248, Note_on_c, 0, 58, 66
2, 25294, Note_off_c, 0, 86, 0
2, 25294, Note_off_c, 0, 58, 0
2, 25344, Note_on_c, 0, 84, 66
2, 25344, Note_on_c, 0, 62, 66
2, 25390, Note_off_c, 0, 84, 0
2, 25392, Note_on_c, 0, 82, 66
2, 25438, Note_off_c, 0, 62, 0
2, 25440, Note_on_c, 0, 65, 66
2, 25534, Note_off_c, 0, 65, 0
2, 25536, Note_on_c, 0, 58, 66
2, 25630, Note_off_c, 0, 82, 0
2, 25630, Note_off_c, 0, 58, 0
2, 25632, Note_on_c, 0, 82, 66
2, 25632, Note_on_c, 0, 62, 66
2, 25726, Note_off_c, 0, 82, 0
2, 25726, Note_off_c, 0, 62, 0
2, 25728, Note_on_c, 0, 81, 66
2, 25728, Note_on_c, 0, 65, 66
2, 25774, Note_off_c, 0, 81, 0
2, 25774, Note_off_c, 0, 65, 0
2, 25824, Note_on_c, 0, 82, 66
2, 25824, Note_on_c, 0, 58, 66
2, 25870, Note_off_c, 0, 82, 0
2, 25870, Note_off_c, 0, 58, 0
2, 25920, Note_on_c, 0, 81, 66
2, 25920, Note_on_c, 0, 63, 66
2, 26014, Note_off_c, 0, 81, 0
2, 26014, Note_off_c, 0, 63, 0
2, 26016, Note_on_c, 0, 79, 66
2, 26016, Note_on_c, 0, 67, 66
2, 26110, Note_off_c, 0, 79, 0
2, 26110, Note_off_c, 0, 67, 0
2, 26112, Note_on_c, 0, 79, 66
2, 26112, Note_on_c, 0, 58, 66
2, 26158, Note_off_c, 0, 79, 0
2, 26158, Note_off_c, 0, 58, 0
2, 26208, Note_on_c, 0, 79, 66
2, 26208, Note_on_c, 0, 63, 66
2, 26254, Note_off_c, 0, 79, 0
2, 26254, Note_off_c, 0, 63, 0
2, 26304, Note_on_c, 0, 81, 66
2, 26304, Note_on_c, 0, 67, 66
2, 26350, Note_off_c, 0, 81, 0
2, 26350, Note_off_c, 0, 67, 0
2, 26400, Note_on_c, 0, 82, 66
2, 26400, Note_on_c, 0, 58, 66
2, 26446, Note_off_c, 0, 82, 0
2, 26446, Note_off_c, 0, 58, 0
2, 26496, Note_on_c, 0, 82, 66
2, 26496, Note_on_c, 0, 62, 66
2, 26590, Note_off_c, 0, 62, 0
2, 26592, Note_on_c, 0, 65, 66
2, 26686, Note_off_c, 0, 65, 0
2, 26688, Note_on_c, 0, 58, 66
2, 26782, Note_off_c, 0, 82, 0
2, 26782, Note_off_c, 0, 58, 0
2, 26784, Note_on_c, 0, 77, 66
2, 26784, Note_on_c, 0, 62, 66
2, 26878, Note_off_c, 0, 77, 0
2, 26878, Note_off_c, 0, 62, 0
2, 26880, Note_on_c, 0, 65, 66
2, 26974, Note_off_c, 0, 65, 0
2, 26976, Note_on_c, 0, 58, 66
2, 27070, Note_off_c, 0, 58, 0
2, 27072, Note_on_c, 0, 75, 66
2, 27118, Note_off_c, 0, 75, 0
2, 27168, Note_on_c, 0, 72, 66
2, 27214, Note_off_c, 0, 72, 0
2, 27264, Note_on_c, 0, 69, 66
2, 27310, Note_off_c, 0, 69, 0
2, 27360, Note_on_c, 0, 87, 66
2, 27646, Note_off_c, 0, 87, 0
2, 27648, Note_on_c, 0, 77, 66
2, 27694, Note_off_c, 0, 77, 0
2, 27744, Note_on_c, 0, 74, 66
2, 27790, Note_off_c, 0, 74, 0
2, 27840, Note_on_c, 0, 70, 66
2, 27886, Note_off_c, 0, 70, 0
2, 27936, Note_on_c, 0, 89, 66
2, 28222, Note_off_c, 0, 89, 0
2, 28224, Note_on_c, 0, 67, 66
2, 28270, Note_off_c, 0, 67, 0
2, 28320, Note_on_c, 0, 72, 66
2, 28366, Note_off_c, 0, 72, 0
2, 28416, Note_on_c, 0, 75, 66
2, 28462, Note_off_c, 0, 75, 0
2, 28512, Note_on_c, 0, 79, 66
2, 28512, Note_on_c, 0, 72, 66
2, 28512, Note_on_c, 0, 63, 66
2, 28558, Note_off_c, 0, 79, 0
2, 28608, Note_on_c, 0, 84, 66
2, 28654, Note_off_c, 0, 84, 0
2, 28704, Note_on_c, 0, 87, 66
2, 28750, Note_off_c, 0, 87, 0
2, 28798, Note_off_c, 0, 72, 0
2, 28798, Note_off_c, 0, 63, 0
2, 28800, Note_on_c, 0, 86, 66
2, 28800, Note_on_c, 0, 70, 66
2, 28800, Note_on_c, 0, 65, 66
2, 28990, Note_off_c, 0, 86, 0
2, 28992, Note_on_c, 0, 87, 66
2, 29038, Note_off_c, 0, 87, 0
2, 29040, Note_on_c, 0, 86, 66
2, 29086, Note_off_c, 0, 70, 0
2, 29086, Note_off_c, 0, 65, 0
2, 29086, Note_off_c, 0, 86, 0
2, 29088, Note_on_c, 0, 84, 66
2, 29088, Note_on_c, 0, 69, 66
2, 29088, Note_on_c, 0, 65, 66
2, 29182, Note_off_c, 0, 69, 0
2, 29182, Note_off_c, 0, 65, 0
2, 29278, Note_off_c, 0, 84, 0
2, 29376, Note_on_c, 0, 77, 66
2, 29376, Note_on_c, 0, 62, 66
2, 29470, Note_off_c, 0, 62, 0
2, 29472, Note_on_c, 0, 65, 66
2, 29566, Note_off_c, 0, 65, 0
2, 29568, Note_on_c, 0, 58, 66
2, 29662, Note_off_c, 0, 77, 0
2, 29662, Note_off_c, 0, 58, 0
2, 29664, Note_on_c, 0, 77, 66
2, 29664, Note_on_c, 0, 62, 66
2, 29758, Note_off_c, 0, 77, 0
2, 29758, Note_off_c, 0, 62, 0
2, 29760, Note_on_c, 0, 74, 66
2, 29760, Note_on_c, 0, 65, 66
2, 29806, Note_off_c, 0, 74, 0
2, 29806, Note_off_c, 0, 65, 0
2, 29856, Note_on_c, 0, 86, 66
2, 29856, Note_on_c, 0, 58, 66
2, 29902, Note_off_c, 0, 86, 0
2, 29902, Note_off_c, 0, 58, 0
2, 29952, Note_on_c, 0, 84, 66
2, 29952, Note_on_c, 0, 62, 66
2, 30046, Note_off_c, 0, 84, 0
2, 30046, Note_off_c, 0, 62, 0
2, 30048, Note_on_c, 0, 82, 66
2, 30048, Note_on_c, 0, 65, 66
2, 30142, Note_off_c, 0, 82, 0
2, 30142, Note_off_c, 0, 65, 0
2, 30144, Note_on_c, 0, 82, 66
2, 30144, Note_on_c, 0, 58, 66
2, 30190, Note_off_c, 0, 82, 0
2, 30190, Note_off_c, 0, 58, 0
2, 30240, Note_on_c, 0, 82, 66
2, 30240, Note_on_c, 0, 62, 66
2, 30334, Note_off_c, 0, 82, 0
2, 30334, Note_off_c, 0, 62, 0
2, 30336, Note_on_c, 0, 81, 66
2, 30336, Note_on_c, 0, 65, 66
2, 30430, Note_off_c, 0, 81, 0
2, 30430, Note_off_c, 0, 65, 0
2, 30432, Note_on_c, 0, 80, 66
2, 30432, Note_on_c, 0, 58, 66
2, 30526, Note_off_c, 0, 80, 0
2, 30526, Note_off_c, 0, 58, 0
2, 30528, Note_on_c, 0, 78, 66
2, 30528, Note_on_c, 0, 63, 66
2, 30622, Note_off_c, 0, 78, 0
2, 30622, Note_off_c, 0, 63, 0
2, 30624, Note_on_c, 0, 79, 66
2, 30624, Note_on_c, 0, 67, 66
2, 30718, Note_off_c, 0, 79, 0
2, 30718, Note_off_c, 0, 67, 0
2, 30720, Note_on_c, 0, 79, 66
2, 30720, Note_on_c, 0, 58, 66
2, 30814, Note_off_c, 0, 79, 0
2, 30814, Note_off_c, 0, 58, 0
2, 30816, Note_on_c, 0, 79, 66
2, 30816, Note_on_c, 0, 63, 66
2, 30910, Note_off_c, 0, 79, 0
2, 30910, Note_off_c, 0, 63, 0
2, 30912, Note_on_c, 0, 80, 66
2, 30912, Note_on_c, 0, 67, 66
2, 31006, Note_off_c, 0, 80, 0
2, 31006, Note_off_c, 0, 67, 0
2, 31008, Note_on_c, 0, 81, 66
2, 31008, Note_on_c, 0, 58, 66
2, 31102, Note_off_c, 0, 81, 0
2, 31102, Note_off_c, 0, 58, 0
2, 31104, Note_on_c, 0, 82, 66
2, 31104, Note_on_c, 0, 62, 66
2, 31150, Note_off_c, 0, 82, 0
2, 31152, Note_on_c, 0, 81, 66
2, 31198, Note_off_c, 0, 62, 0
2, 31198, Note_off_c, 0, 81, 0
2, 31200, Note_on_c, 0, 82, 66
2, 31200, Note_on_c, 0, 65, 66
2, 31246, Note_off_c, 0, 82, 0
2, 31248, Note_on_c, 0, 81, 66
2, 31294, Note_off_c, 0, 65, 0
2, 31294, Note_off_c, 0, 81, 0
2, 31296, Note_on_c, 0, 82, 66
2, 31296, Note_on_c, 0, 58, 66
2, 31342, Note_off_c, 0, 82, 0
2, 31344, Note_on_c, 0, 79, 66
2, 31390, Note_off_c, 0, 58, 0
2, 31390, Note_off_c, 0, 79, 0
2, 31392, Note_on_c, 0, 77, 66
2, 31392, Note_on_c, 0, 62, 66
2, 31486, Note_off_c, 0, 62, 0
2, 31488, Note_on_c, 0, 65, 66
2, 31582, Note_off_c, 0, 77, 0
2, 31582, Note_off_c, 0, 65, 0
2, 31584, Note_on_c, 0, 58, 66
2, 31678, Note_off_c, 0, 58, 0
2, 31680, Note_on_c, 0, 75, 66
2, 31726, Note_off_c, 0, 75, 0
2, 31728, Note_on_c, 0, 74, 66
2, 31774, Note_off_c, 0, 74, 0
2, 31776, Note_on_c, 0, 75, 66
2, 31822, Note_off_c, 0, 75, 0
2, 31824, Note_on_c, 0, 72, 66
2, 31870, Note_off_c, 0, 72, 0
2, 31872, Note_on_c, 0, 69, 66
2, 31966, Note_off_c, 0, 69, 0
2, 31968, Note_on_c, 0, 87, 66
2, 32014, Note_off_c, 0, 87, 0
2, 32064, Note_on_c, 0, 87, 66
2, 32110, Note_off_c, 0, 87, 0
2, 32160, Note_on_c, 0, 87, 66
2, 32206, Note_off_c, 0, 87, 0
2, 32256, Note_on_c, 0, 77, 66
2, 32302, Note_off_c, 0, 77, 0
2, 32304, Note_on_c, 0, 76, 66
2, 32350, Note_off_c, 0, 76, 0
2, 32352, Note_on_c, 0, 77, 66
2, 32398, Note_off_c, 0, 77, 0
2, 32400, Note_on_c, 0, 74, 66
2, 32446, Note_off_c, 0, 74, 0
2, 32448, Note_on_c, 0, 70, 66
2, 32542, Note_off_c, 0, 70, 0
2, 32544, Note_on_c, 0, 89, 66
2, 32638, Note_off_c, 0, 89, 0
2, 32640, Note_on_c, 0, 89, 66
2, 32734, Note_off_c, 0, 89, 0
2, 32736, Note_on_c, 0, 89, 66
2, 32830, Note_off_c, 0, 89, 0
2, 32928, Note_on_c, 0, 79, 66
2, 32974, Note_off_c, 0, 79, 0
2, 32976, Note_on_c, 0, 87, 66
2, 33022, Note_off_c, 0, 87, 0
2, 33024, Note_on_c, 0, 77, 66
2, 33070, Note_off_c, 0, 77, 0
2, 33072, Note_on_c, 0, 86, 66
2, 33118, Note_off_c, 0, 86, 0
2, 33120, Note_on_c, 0, 75, 66
2, 33166, Note_off_c, 0, 75, 0
2, 33168, Note_on_c, 0, 84, 66
2, 33214, Note_off_c, 0, 84, 0
2, 33216, Note_on_c, 0, 74, 66
2, 33262, Note_off_c, 0, 74, 0
2, 33264, Note_on_c, 0, 82, 66
2, 33310, Note_off_c, 0, 82, 0
2, 33312, Note_on_c, 0, 72, 66
2, 33358, Note_off_c, 0, 72, 0
2, 33360, Note_on_c, 0, 81, 66
2, 33406, Note_off_c, 0, 81, 0
2, 33408, Note_on_c, 0, 82, 66
2, 33454, Note_off_c, 0, 82, 0
2, 33456, Note_on_c, 0, 86, 66
2, 33502, Note_off_c, 0, 86, 0
2, 33504, Note_on_c, 0, 84, 66
2, 33550, Note_off_c, 0, 84, 0
2, 33552, Note_on_c, 0, 82, 66
2, 33598, Note_off_c, 0, 82, 0
2, 33600, Note_on_c, 0, 81, 66
2, 33646, Note_off_c, 0, 81, 0
2, 33648, Note_on_c, 0, 79, 66
2, 33694, Note_off_c, 0, 79, 0
2, 33696, Note_on_c, 0, 77, 66
2, 33742, Note_off_c, 0, 77, 0
2, 33744, Note_on_c, 0, 79, 66
2, 33790, Note_off_c, 0, 79, 0
2, 33792, Note_on_c, 0, 77, 66
2, 33838, Note_off_c, 0, 77, 0
2, 33840, Note_on_c, 0, 75, 66
2, 33886, Note_off_c, 0, 75, 0
2, 33888, Note_on_c, 0, 74, 66
2, 33934, Note_off_c, 0, 74, 0
2, 33936, Note_on_c, 0, 72, 66
2, 33982, Note_off_c, 0, 72, 0
2, 33984, Note_on_c, 0, 74, 66
2, 34030, Note_off_c, 0, 74, 0
2, 34032, Note_on_c, 0, 70, 66
2, 34078, Note_off_c, 0, 70, 0
2, 34080, Note_on_c, 0, 67, 66
2, 34126, Note_off_c, 0, 67, 0
2, 34128, Note_on_c, 0, 75, 66
2, 34174, Note_off_c, 0, 75, 0
2, 34176, Note_on_c, 0, 65, 66
2, 34222, Note_off_c, 0, 65, 0
2, 34224, Note_on_c, 0, 74, 66
2, 34270, Note_off_c, 0, 74, 0
2, 34272, Note_on_c, 0, 63, 66
2, 34318, Note_off_c, 0, 63, 0
2, 34320, Note_on_c, 0, 72, 66
2, 34366, Note_off_c, 0, 72, 0
2, 34368, Note_on_c, 0, 62, 66
2, 34414, Note_off_c, 0, 62, 0
2, 34416, Note_on_c, 0, 70, 66
2, 34462, Note_off_c, 0, 70, 0
2, 34464, Note_on_c, 0, 60, 66
2, 34510, Note_off_c, 0, 60, 0
2, 34512, Note_on_c, 0, 69, 66
2, 34558, Note_off_c, 0, 69, 0
2, 34560, Note_on_c, 0, 70, 66
2, 34606, Note_off_c, 0, 70, 0
2, 34608, Note_on_c, 0, 74, 66
2, 34654, Note_off_c, 0, 74, 0
2, 34656, Note_on_c, 0, 72, 66
2, 34702, Note_off_c, 0, 72, 0
2, 34704, Note_on_c, 0, 70, 66
2, 34750, Note_off_c, 0, 70, 0
2, 34752, Note_on_c, 0, 69, 66
2, 34798, Note_off_c, 0, 69, 0
2, 34800, Note_on_c, 0, 67, 66
2, 34846, Note_off_c, 0, 67, 0
2, 34848, Note_on_c, 0, 65, 66
2, 34894, Note_off_c, 0, 65, 0
2, 34896, Note_on_c, 0, 67, 66
2, 34942, Note_off_c, 0, 67, 0
2, 34944, Note_on_c, 0, 65, 66
2, 34990, Note_off_c, 0, 65, 0
2, 34992, Note_on_c, 0, 63, 66
2, 35038, Note_off_c, 0, 63, 0
2, 35040, Note_on_c, 0, 62, 66
2, 35086, Note_off_c, 0, 62, 0
2, 35088, Note_on_c, 0, 60, 66
2, 35134, Note_off_c, 0, 60, 0
2, 35136, Note_on_c, 0, 62, 66
2, 35182, Note_off_c, 0, 62, 0
2, 35184, Note_on_c, 0, 65, 66
2, 35230, Note_off_c, 0, 65, 0
2, 35232, Note_on_c, 0, 63, 66
2, 35278, Note_off_c, 0, 63, 0
2, 35280, Note_on_c, 0, 67, 66
2, 35326, Note_off_c, 0, 67, 0
2, 35328, Note_on_c, 0, 62, 66
2, 35374, Note_off_c, 0, 62, 0
2, 35376, Note_on_c, 0, 65, 66
2, 35422, Note_off_c, 0, 65, 0
2, 35424, Note_on_c, 0, 60, 66
2, 35470, Note_off_c, 0, 60, 0
2, 35472, Note_on_c, 0, 63, 66
2, 35518, Note_off_c, 0, 63, 0
2, 35520, Note_on_c, 0, 58, 66
2, 35566, Note_off_c, 0, 58, 0
2, 35568, Note_on_c, 0, 62, 66
2, 35614, Note_off_c, 0, 62, 0
2, 35616, Note_on_c, 0, 57, 66
2, 35662, Note_off_c, 0, 57, 0
2, 35664, Note_on_c, 0, 60, 66
2, 35710, Note_off_c, 0, 60, 0
2, 35712, Note_on_c, 0, 58, 66
2, 35902, Note_off_c, 0, 58, 0
2, 36288, Note_on_c, 0, 69, 67
2, 36334, Note_off_c, 0, 69, 0
2, 36336, Note_on_c, 0, 72, 69
2, 36382, Note_off_c, 0, 72, 0
2, 36384, Note_on_c, 0, 75, 72
2, 36430, Note_off_c, 0, 75, 0
2, 36432, Note_on_c, 0, 77, 75
2, 36478, Note_off_c, 0, 77, 0
2, 36480, Note_on_c, 0, 81, 77
2, 36526, Note_off_c, 0, 81, 0
2, 36528, Note_on_c, 0, 84, 80
2, 36574, Note_off_c, 0, 84, 0
2, 36576, Note_on_c, 0, 87, 81
2, 36622, Note_off_c, 0, 87, 0
2, 36624, Note_on_c, 0, 84, 80
2, 36670, Note_off_c, 0, 84, 0
2, 36672, Note_on_c, 0, 81, 78
2, 36718, Note_off_c, 0, 81, 0
2, 36720, Note_on_c, 0, 77, 76
2, 36766, Note_off_c, 0, 77, 0
2, 36768, Note_on_c, 0, 75, 75
2, 36814, Note_off_c, 0, 75, 0
2, 36816, Note_on_c, 0, 72, 73
2, 36862, Note_off_c, 0, 72, 0
2, 36864, Note_on_c, 0, 70, 71
2, 37054, Note_off_c, 0, 70, 0
2, 37440, Note_on_c, 0, 69, 67
2, 37486, Note_off_c, 0, 69, 0
2, 37488, Note_on_c, 0, 72, 69
2, 37534, Note_off_c, 0, 72, 0
2, 37536, Note_on_c, 0, 75, 72
2, 37582, Note_off_c, 0, 75, 0
2, 37584, Note_on_c, 0, 77, 75
2, 37630, Note_off_c, 0, 77, 0
2, 37632, Note_on_c, 0, 81, 77
2, 37678, Note_off_c, 0, 81, 0
2, 37680, Note_on_c, 0, 84, 80
2, 37726, Note_off_c, 0, 84, 0
2, 37728, Note_on_c, 0, 87, 81
2, 37774, Note_off_c, 0, 87, 0
2, 37776, Note_on_c, 0, 84, 80
2, 37822, Note_off_c, 0, 84, 0
2, 37824, Note_on_c, 0, 81, 78
2, 37870, Note_off_c, 0, 81, 0
2, 37872, Note_on_c, 0, 77, 76
2, 37918, Note_off_c, 0, 77, 0
2, 37920, Note_on_c, 0, 75, 75
2, 37966, Note_off_c, 0, 75, 0
2, 37968, Note_on_c, 0, 72, 73
2, 38014, Note_off_c, 0, 72, 0
2, 38016, Note_on_c, 0, 70, 71
2, 38062, Note_off_c, 0, 70, 0
2, 38064, Note_on_c, 0, 65, 70
2, 38110, Note_off_c, 0, 65, 0
2, 38112, Note_on_c, 0, 70, 68
2, 38112, Note_on_c, 0, 74, 68
2, 38158, Note_off_c, 0, 70, 0
2, 38158, Note_off_c, 0, 74, 0
2, 38160, Note_on_c, 0, 65, 66
2, 38206, Note_off_c, 0, 65, 0
2, 38208, Note_on_c, 0, 77, 66
2, 38208, Note_on_c, 0, 74, 66
2, 38254, Note_off_c, 0, 77, 0
2, 38254, Note_off_c, 0, 74, 0
2, 38256, Note_on_c, 0, 65, 66
2, 38302, Note_off_c, 0, 65, 0
2, 38304, Note_on_c, 0, 75, 66
2, 38304, Note_on_c, 0, 72, 66
2, 38350, Note_off_c, 0, 75, 0
2, 38350, Note_off_c, 0, 72, 0
2, 38352, Note_on_c, 0, 65, 66
2, 38398, Note_off_c, 0, 65, 0
2, 38400, Note_on_c, 0, 74, 66
2, 38400, Note_on_c, 0, 70, 66
2, 38446, Note_off_c, 0, 74, 0
2, 38446, Note_off_c, 0, 70, 0
2, 38448, Note_on_c, 0, 65, 66
2, 38494, Note_off_c, 0, 65, 0
2, 38496, Note_on_c, 0, 72, 66
2, 38496, Note_on_c, 0, 69, 66
2, 38542, Note_off_c, 0, 72, 0
2, 38542, Note_off_c, 0, 69, 0
2, 38544, Note_on_c, 0, 63, 66
2, 38590, Note_off_c, 0, 63, 0
2, 38592, Note_on_c, 0, 74, 66
2, 38592, Note_on_c, 0, 70, 66
2, 38638, Note_off_c, 0, 74, 0
2, 38638, Note_off_c, 0, 70, 0
2, 38640, Note_on_c, 0, 65, 66
2, 38686, Note_off_c, 0, 65, 0
2, 38688, Note_on_c, 0, 75, 66
2, 38688, Note_on_c, 0, 72, 66
2, 38734, Note_off_c, 0, 75, 0
2, 38734, Note_off_c, 0, 72, 0
2, 38736, Note_on_c, 0, 65, 66
2, 38782, Note_off_c, 0, 65, 0
2, 38784, Note_on_c, 0, 77, 66
2, 38784, Note_on_c, 0, 74, 66
2, 38830, Note_off_c, 0, 77, 0
2, 38830, Note_off_c, 0, 74, 0
2, 38832, Note_on_c, 0, 65, 66
2, 38878, Note_off_c, 0, 65, 0
2, 38880, Note_on_c, 0, 75, 66
2, 38880, Note_on_c, 0, 72, 66
2, 38926, Note_off_c, 0, 75, 0
2, 38926, Note_off_c, 0, 72, 0
2, 38928, Note_on_c, 0, 65, 66
2, 38974, Note_off_c, 0, 65, 0
2, 38976, Note_on_c, 0, 74, 66
2, 38976, Note_on_c, 0, 70, 66
2, 39022, Note_off_c, 0, 74, 0
2, 39022, Note_off_c, 0, 70, 0
2, 39024, Note_on_c, 0, 65, 66
2, 39070, Note_off_c, 0, 65, 0
2, 39072, Note_on_c, 0, 72, 66
2, 39072, Note_on_c, 0, 69, 66
2, 39118, Note_off_c, 0, 72, 0
2, 39118, Note_off_c, 0, 69, 0
2, 39120, Note_on_c, 0, 65, 66
2, 39166, Note_off_c, 0, 65, 0
2, 39168, Note_on_c, 0, 74, 67
2, 39214, Note_off_c, 0, 74, 0
2, 39216, Note_on_c, 0, 70, 67
2, 39262, Note_off_c, 0, 70, 0
2, 39264, Note_on_c, 0, 69, 68
2, 39310, Note_off_c, 0, 69, 0
2, 39312, Note_on_c, 0, 70, 68
2, 39358, Note_off_c, 0, 70, 0
2, 39360, Note_on_c, 0, 72, 69
2, 39406, Note_off_c, 0, 72, 0
2, 39408, Note_on_c, 0, 74, 69
2, 39454, Note_off_c, 0, 74, 0
2, 39456, Note_on_c, 0, 75, 70
2, 39502, Note_off_c, 0, 75, 0
2, 39504, Note_on_c, 0, 72, 71
2, 39550, Note_off_c, 0, 72, 0
2, 39552, Note_on_c, 0, 70, 71
2, 39598, Note_off_c, 0, 70, 0
2, 39600, Note_on_c, 0, 72, 72
2, 39646, Note_off_c, 0, 72, 0
2, 39648, Note_on_c, 0, 74, 72
2, 39694, Note_off_c, 0, 74, 0
2, 39696, Note_on_c, 0, 75, 73
2, 39742, Note_off_c, 0, 75, 0
2, 39744, Note_on_c, 0, 77, 73
2, 39790, Note_off_c, 0, 77, 0
2, 39792, Note_on_c, 0, 74, 74
2, 39838, Note_off_c, 0, 74, 0
2, 39840, Note_on_c, 0, 72, 75
2, 39886, Note_off_c, 0, 72, 0
2, 39888, Note_on_c, 0, 74, 75
2, 39934, Note_off_c, 0, 74, 0
2, 39936, Note_on_c, 0, 75, 76
2, 39982, Note_off_c, 0, 75, 0
2, 39984, Note_on_c, 0, 77, 76
2, 40030, Note_off_c, 0, 77, 0
2, 40032, Note_on_c, 0, 79, 77
2, 40078, Note_off_c, 0, 79, 0
2, 40080, Note_on_c, 0, 77, 77
2, 40126, Note_off_c, 0, 77, 0
2, 40128, Note_on_c, 0, 75, 78
2, 40174, Note_off_c, 0, 75, 0
2, 40176, Note_on_c, 0, 77, 79
2, 40222, Note_off_c, 0, 77, 0
2, 40224, Note_on_c, 0, 79, 79
2, 40270, Note_off_c, 0, 79, 0
2, 40272, Note_on_c, 0, 81, 80
2, 40318, Note_off_c, 0, 81, 0
2, 40320, Note_on_c, 0, 82, 80
2, 40366, Note_off_c, 0, 82, 0
2, 40368, Note_on_c, 0, 84, 81
2, 40414, Note_off_c, 0, 84, 0
2, 40416, Note_on_c, 0, 86, 81
2, 40462, Note_off_c, 0, 86, 0
2, 40464, Note_on_c, 0, 84, 82
2, 40510, Note_off_c, 0, 84, 0
2, 40512, Note_on_c, 0, 82, 81
2, 40558, Note_off_c, 0, 82, 0
2, 40560, Note_on_c, 0, 81, 81
2, 40606, Note_off_c, 0, 81, 0
2, 40608, Note_on_c, 0, 79, 80
2, 40654, Note_off_c, 0, 79, 0
2, 40656, Note_on_c, 0, 81, 79
2, 40702, Note_off_c, 0, 81, 0
2, 40704, Note_on_c, 0, 82, 79
2, 40750, Note_off_c, 0, 82, 0
2, 40752, Note_on_c, 0, 81, 78
2, 40798, Note_off_c, 0, 81, 0
2, 40800, Note_on_c, 0, 79, 77
2, 40846, Note_off_c, 0, 79, 0
2, 40848, Note_on_c, 0, 77, 77
2, 40894, Note_off_c, 0, 77, 0
2, 40896, Note_on_c, 0, 75, 76
2, 40942, Note_off_c, 0, 75, 0
2, 40944, Note_on_c, 0, 77, 75
2, 40990, Note_off_c, 0, 77, 0
2, 40992, Note_on_c, 0, 79, 75
2, 41038, Note_off_c, 0, 79, 0
2, 41040, Note_on_c, 0, 77, 74
2, 41086, Note_off_c, 0, 77, 0
2, 41088, Note_on_c, 0, 75, 73
2, 41134, Note_off_c, 0, 75, 0
2, 41136, Note_on_c, 0, 74, 73
2, 41182, Note_off_c, 0, 74, 0
2, 41184, Note_on_c, 0, 72, 72
2, 41230, Note_off_c, 0, 72, 0
2, 41232, Note_on_c, 0, 74, 71
2, 41278, Note_off_c, 0, 74, 0
2, 41280, Note_on_c, 0, 75, 71
2, 41326, Note_off_c, 0, 75, 0
2, 41328, Note_on_c, 0, 74, 70
2, 41374, Note_off_c, 0, 74, 0
2, 41376, Note_on_c, 0, 72, 69
2, 41422, Note_off_c, 0, 72, 0
2, 41424, Note_on_c, 0, 70, 69
2, 41470, Note_off_c, 0, 70, 0
2, 41472, Note_on_c, 0, 77, 68
2, 41662, Note_off_c, 0, 77, 0
2, 43776, Note_on_c, 0, 64, 66
2, 43822, Note_off_c, 0, 64, 0
2, 43824, Note_on_c, 0, 67, 66
2, 43870, Note_off_c, 0, 67, 0
2, 43872, Note_on_c, 0, 72, 66
2, 43918, Note_off_c, 0, 72, 0
2, 43920, Note_on_c, 0, 67, 66
2, 43966, Note_off_c, 0, 67, 0
2, 43968, Note_on_c, 0, 72, 66
2, 44014, Note_off_c, 0, 72, 0
2, 44016, Note_on_c, 0, 67, 66
2, 44062, Note_off_c, 0, 67, 0
2, 44064, Note_on_c, 0, 64, 66
2, 44064, Note_on_c, 0, 71, 66
2, 44110, Note_off_c, 0, 64, 0
2, 44110, Note_off_c, 0, 71, 0
2, 44112, Note_on_c, 0, 67, 66
2, 44158, Note_off_c, 0, 67, 0
2, 44160, Note_on_c, 0, 72, 66
2, 44206, Note_off_c, 0, 72, 0
2, 44208, Note_on_c, 0, 67, 66
2, 44254, Note_off_c, 0, 67, 0
2, 44256, Note_on_c, 0, 64, 66
2, 44256, Note_on_c, 0, 73, 66
2, 44302, Note_off_c, 0, 64, 0
2, 44302, Note_off_c, 0, 73, 0
2, 44304, Note_on_c, 0, 67, 66
2, 44350, Note_off_c, 0, 67, 0
2, 44352, Note_on_c, 0, 72, 66
2, 44398, Note_off_c, 0, 72, 0
2, 44400, Note_on_c, 0, 67, 66
2, 44446, Note_off_c, 0, 67, 0
2, 44448, Note_on_c, 0, 64, 66
2, 44448, Note_on_c, 0, 71, 66
2, 44494, Note_off_c, 0, 64, 0
2, 44494, Note_off_c, 0, 71, 0
2, 44496, Note_on_c, 0, 67, 66
2, 44542, Note_off_c, 0, 67, 0
2, 44544, Note_on_c, 0, 72, 67
2, 44590, Note_off_c, 0, 72, 0
2, 44592, Note_on_c, 0, 67, 68
2, 44638, Note_off_c, 0, 67, 0
2, 44640, Note_on_c, 0, 64, 69
2, 44686, Note_off_c, 0, 64, 0
2, 44688, Note_on_c, 0, 72, 70
2, 44734, Note_off_c, 0, 72, 0
2, 44736, Note_on_c, 0, 65, 71
2, 44782, Note_off_c, 0, 65, 0
2, 44784, Note_on_c, 0, 74, 73
2, 44830, Note_off_c, 0, 74, 0
2, 44832, Note_on_c, 0, 67, 74
2, 44878, Note_off_c, 0, 67, 0
2, 44880, Note_on_c, 0, 76, 75
2, 44926, Note_off_c, 0, 76, 0
2, 44928, Note_on_c, 0, 69, 76
2, 44974, Note_off_c, 0, 69, 0
2, 44976, Note_on_c, 0, 77, 77
2, 45022, Note_off_c, 0, 77, 0
2, 45024, Note_on_c, 0, 70, 78
2, 45070, Note_off_c, 0, 70, 0
2, 45072, Note_on_c, 0, 79, 79
2, 45118, Note_off_c, 0, 79, 0
2, 45120, Note_on_c, 0, 72, 80
2, 45166, Note_off_c, 0, 72, 0
2, 45168, Note_on_c, 0, 81, 81
2, 45214, Note_off_c, 0, 81, 0
2, 45216, Note_on_c, 0, 64, 66
2, 45216, Note_on_c, 0, 71, 66
2, 45262, Note_off_c, 0, 64, 0
2, 45262, Note_off_c, 0, 71, 0
2, 45264, Note_on_c, 0, 67, 66
2, 45310, Note_off_c, 0, 67, 0
2, 45312, Note_on_c, 0, 72, 66
2, 45358, Note_off_c, 0, 72, 0
2, 45360, Note_on_c, 0, 67, 66
2, 45406, Note_off_c, 0, 67, 0
2, 45408, Note_on_c, 0, 64, 66
2, 45408, Note_on_c, 0, 73, 66
2, 45454, Note_off_c, 0, 64, 0
2, 45454, Note_off_c, 0, 73, 0
2, 45456, Note_on_c, 0, 67, 66
2, 45502, Note_off_c, 0, 67, 0
2, 45504, Note_on_c, 0, 72, 66
2, 45550, Note_off_c, 0, 72, 0
2, 45552, Note_on_c, 0, 67, 66
2, 45598, Note_off_c, 0, 67, 0
2, 45600, Note_on_c, 0, 64, 66
2, 45600, Note_on_c, 0, 71, 66
2, 45646, Note_off_c, 0, 64, 0
2, 45646, Note_off_c, 0, 71, 0
2, 45648, Note_on_c, 0, 67, 66
2, 45694, Note_off_c, 0, 67, 0
2, 45696, Note_on_c, 0, 72, 67
2, 45742, Note_off_c, 0, 72, 0
2, 45744, Note_on_c, 0, 67, 68
2, 45790, Note_off_c, 0, 67, 0
2, 45792, Note_on_c, 0, 72, 69
2, 45838, Note_off_c, 0, 72, 0
2, 45840, Note_on_c, 0, 76, 70
2, 45886, Note_off_c, 0, 76, 0
2, 45888, Note_on_c, 0, 74, 71
2, 45934, Note_off_c, 0, 74, 0
2, 45936, Note_on_c, 0, 77, 73
2, 45982, Note_off_c, 0, 77, 0
2, 45984, Note_on_c, 0, 76, 74
2, 46030, Note_off_c, 0, 76, 0
2, 46032, Note_on_c, 0, 79, 75
2, 46078, Note_off_c, 0, 79, 0
2, 46080, Note_on_c, 0, 77, 76
2, 46126, Note_off_c, 0, 77, 0
2, 46128, Note_on_c, 0, 81, 77
2, 46174, Note_off_c, 0, 81, 0
2, 46176, Note_on_c, 0, 79, 78
2, 46222, Note_off_c, 0, 79, 0
2, 46224, Note_on_c, 0, 82, 79
2, 46270, Note_off_c, 0, 82, 0
2, 46272, Note_on_c, 0, 81, 80
2, 46318, Note_off_c, 0, 81, 0
2, 46320, Note_on_c, 0, 84, 81
2, 46366, Note_off_c, 0, 84, 0
2, 46368, Note_on_c, 0, 64, 66
2, 46368, Note_on_c, 0, 71, 66
2, 46414, Note_off_c, 0, 64, 0
2, 46414, Note_off_c, 0, 71, 0
2, 46416, Note_on_c, 0, 67, 66
2, 46462, Note_off_c, 0, 67, 0
2, 46464, Note_on_c, 0, 72, 66
2, 46510, Note_off_c, 0, 72, 0
2, 46512, Note_on_c, 0, 67, 66
2, 46558, Note_off_c, 0, 67, 0
2, 46560, Note_on_c, 0, 64, 66
2, 46560, Note_on_c, 0, 73, 66
2, 46606, Note_off_c, 0, 64, 0
2, 46606, Note_off_c, 0, 73, 0
2, 46608, Note_on_c, 0, 67, 66
2, 46654, Note_off_c, 0, 67, 0
2, 46656, Note_on_c, 0, 72, 66
2, 46702, Note_off_c, 0, 72, 0
2, 46704, Note_on_c, 0, 67, 66
2, 46750, Note_off_c, 0, 67, 0
2, 46752, Note_on_c, 0, 64, 66
2, 46752, Note_on_c, 0, 71, 66
2, 46798, Note_off_c, 0, 64, 0
2, 46798, Note_off_c, 0, 71, 0
2, 46800, Note_on_c, 0, 67, 66
2, 46846, Note_off_c, 0, 67, 0
2, 46848, Note_on_c, 0, 72, 66
2, 46894, Note_off_c, 0, 72, 0
2, 46896, Note_on_c, 0, 67, 66
2, 46942, Note_off_c, 0, 67, 0
2, 46944, Note_on_c, 0, 79, 66
2, 46944, Note_on_c, 0, 82, 66
2, 46944, Note_on_c, 0, 72, 66
2, 47086, Note_off_c, 0, 79, 0
2, 47086, Note_off_c, 0, 82, 0
2, 47086, Note_off_c, 0, 72, 0
2, 47232, Note_on_c, 0, 81, 66
2, 47232, Note_on_c, 0, 77, 66
2, 47232, Note_on_c, 0, 72, 66
2, 47326, Note_off_c, 0, 81, 0
2, 47326, Note_off_c, 0, 77, 0
2, 47326, Note_off_c, 0, 72, 0
2, 47520, Note_on_c, 0, 69, 66
2, 47520, Note_on_c, 0, 76, 66
2, 47566, Note_off_c, 0, 69, 0
2, 47566, Note_off_c, 0, 76, 0
2, 47568, Note_on_c, 0, 72, 66
2, 47614, Note_off_c, 0, 72, 0
2, 47616, Note_on_c, 0, 77, 66
2, 47662, Note_off_c, 0, 77, 0
2, 47664, Note_on_c, 0, 72, 66
2, 47710, Note_off_c, 0, 72, 0
2, 47712, Note_on_c, 0, 69, 66
2, 47712, Note_on_c, 0, 78, 66
2, 47758, Note_off_c, 0, 69, 0
2, 47758, Note_off_c, 0, 78, 0
2, 47760, Note_on_c, 0, 72, 66
2, 47806, Note_off_c, 0, 72, 0
2, 47808, Note_on_c, 0, 77, 66
2, 47854, Note_off_c, 0, 77, 0
2, 47856, Note_on_c, 0, 74, 66
2, 47902, Note_off_c, 0, 74, 0
2, 47904, Note_on_c, 0, 70, 66
2, 47904, Note_on_c, 0, 76, 66
2, 47950, Note_off_c, 0, 70, 0
2, 47950, Note_off_c, 0, 76, 0
2, 47952, Note_on_c, 0, 74, 66
2, 47998, Note_off_c, 0, 74, 0
2, 48000, Note_on_c, 0, 77, 66
2, 48046, Note_off_c, 0, 77, 0
2, 48048, Note_on_c, 0, 74, 66
2, 48094, Note_off_c, 0, 74, 0
2, 48096, Note_on_c, 0, 71, 66
2, 48096, Note_on_c, 0, 78, 66
2, 48142, Note_off_c, 0, 71, 0
2, 48142, Note_off_c, 0, 78, 0
2, 48144, Note_on_c, 0, 74, 66
2, 48190, Note_off_c, 0, 74, 0
2, 48192, Note_on_c, 0, 79, 66
2, 48238, Note_off_c, 0, 79, 0
2, 48240, Note_on_c, 0, 74, 66
2, 48286, Note_off_c, 0, 74, 0
2, 48288, Note_on_c, 0, 71, 66
2, 48288, Note_on_c, 0, 81, 66
2, 48334, Note_off_c, 0, 71, 0
2, 48334, Note_off_c, 0, 81, 0
2, 48336, Note_on_c, 0, 74, 66
2, 48382, Note_off_c, 0, 74, 0
2, 48384, Note_on_c, 0, 79, 66
2, 48430, Note_off_c, 0, 79, 0
2, 48432, Note_on_c, 0, 76, 66
2, 48478, Note_off_c, 0, 76, 0
2, 48480, Note_on_c, 0, 72, 66
2, 48480, Note_on_c, 0, 78, 66
2, 48526, Note_off_c, 0, 72, 0
2, 48526, Note_off_c, 0, 78, 0
2, 48528, Note_on_c, 0, 76, 66
2, 48574, Note_off_c, 0, 76, 0
2, 48576, Note_on_c, 0, 79, 66
2, 48622, Note_off_c, 0, 79, 0
2, 48624, Note_on_c, 0, 76, 66
2, 48670, Note_off_c, 0, 76, 0
2, 48672, Note_on_c, 0, 73, 66
2, 48672, Note_on_c, 0, 80, 66
2, 48718, Note_off_c, 0, 73, 0
2, 48718, Note_off_c, 0, 80, 0
2, 48720, Note_on_c, 0, 76, 66
2, 48766, Note_off_c, 0, 76, 0
2, 48768, Note_on_c, 0, 81, 66
2, 48814, Note_off_c, 0, 81, 0
2, 48816, Note_on_c, 0, 76, 66
2, 48862, Note_off_c, 0, 76, 0
2, 48864, Note_on_c, 0, 73, 66
2, 48864, Note_on_c, 0, 82, 66
2, 48910, Note_off_c, 0, 73, 0
2, 48910, Note_off_c, 0, 82, 0
2, 48912, Note_on_c, 0, 76, 66
2, 48958, Note_off_c, 0, 76, 0
2, 48960, Note_on_c, 0, 81, 66
2, 49006, Note_off_c, 0, 81, 0
2, 49008, Note_on_c, 0, 77, 66
2, 49054, Note_off_c, 0, 77, 0
2, 49056, Note_on_c, 0, 74, 66
2, 49056, Note_on_c, 0, 80, 66
2, 49102, Note_off_c, 0, 74, 0
2, 49102, Note_off_c, 0, 80, 0
2, 49104, Note_on_c, 0, 77, 66
2, 49150, Note_off_c, 0, 77, 0
2, 49152, Note_on_c, 0, 81, 66
2, 49198, Note_off_c, 0, 81, 0
2, 49200, Note_on_c, 0, 77, 66
2, 49246, Note_off_c, 0, 77, 0
2, 49248, Note_on_c, 0, 76, 66
2, 49248, Note_on_c, 0, 83, 66
2, 49294, Note_off_c, 0, 76, 0
2, 49294, Note_off_c, 0, 83, 0
2, 49296, Note_on_c, 0, 79, 66
2, 49342, Note_off_c, 0, 79, 0
2, 49344, Note_on_c, 0, 84, 66
2, 49390, Note_off_c, 0, 84, 0
2, 49392, Note_on_c, 0, 79, 66
2, 49438, Note_off_c, 0, 79, 0
2, 49440, Note_on_c, 0, 76, 66
2, 49440, Note_on_c, 0, 86, 66
2, 49486, Note_off_c, 0, 76, 0
2, 49486, Note_off_c, 0, 86, 0
2, 49488, Note_on_c, 0, 79, 66
2, 49534, Note_off_c, 0, 79, 0
2, 49536, Note_on_c, 0, 84, 66
2, 49582, Note_off_c, 0, 84, 0
2, 49584, Note_on_c, 0, 81, 66
2, 49630, Note_off_c, 0, 81, 0
2, 49632, Note_on_c, 0, 77, 66
2, 49632, Note_on_c, 0, 83, 66
2, 49678, Note_off_c, 0, 77, 0
2, 49678, Note_off_c, 0, 83, 0
2, 49680, Note_on_c, 0, 81, 66
2, 49726, Note_off_c, 0, 81, 0
2, 49728, Note_on_c, 0, 84, 66
2, 49774, Note_off_c, 0, 84, 0
2, 49776, Note_on_c, 0, 81, 66
2, 49822, Note_off_c, 0, 81, 0
2, 49824, Note_on_c, 0, 74, 66
2, 49870, Note_off_c, 0, 74, 0
2, 49872, Note_on_c, 0, 86, 66
2, 49918, Note_off_c, 0, 86, 0
2, 49920, Note_on_c, 0, 73, 66
2, 49966, Note_off_c, 0, 73, 0
2, 49968, Note_on_c, 0, 85, 66
2, 50014, Note_off_c, 0, 85, 0
2, 50016, Note_on_c, 0, 74, 66
2, 50062, Note_off_c, 0, 74, 0
2, 50064, Note_on_c, 0, 86, 66
2, 50110, Note_off_c, 0, 86, 0
2, 50112, Note_on_c, 0, 67, 66
2, 50158, Note_off_c, 0, 67, 0
2, 50160, Note_on_c, 0, 79, 66
2, 50206, Note_off_c, 0, 79, 0
2, 50208, Note_on_c, 0, 69, 66
2, 50254, Note_off_c, 0, 69, 0
2, 50256, Note_on_c, 0, 81, 66
2, 50302, Note_off_c, 0, 81, 0
2, 50304, Note_on_c, 0, 70, 66
2, 50350, Note_off_c, 0, 70, 0
2, 50352, Note_on_c, 0, 82, 66
2, 50398, Note_off_c, 0, 82, 0
2, 50400, Note_on_c, 0, 72, 66
2, 50446, Note_off_c, 0, 72, 0
2, 50448, Note_on_c, 0, 84, 66
2, 50494, Note_off_c, 0, 84, 0
2, 50496, Note_on_c, 0, 71, 66
2, 50542, Note_off_c, 0, 71, 0
2, 50544, Note_on_c, 0, 83, 66
2, 50590, Note_off_c, 0, 83, 0
2, 50592, Note_on_c, 0, 72, 66
2, 50638, Note_off_c, 0, 72, 0
2, 50640, Note_on_c, 0, 84, 66
2, 50686, Note_off_c, 0, 84, 0
2, 50688, Note_on_c, 0, 65, 66
2, 50734, Note_off_c, 0, 65, 0
2, 50736, Note_on_c, 0, 77, 66
2, 50782, Note_off_c, 0, 77, 0
2, 50784, Note_on_c, 0, 67, 66
2, 50830, Note_off_c, 0, 67, 0
2, 50832, Note_on_c, 0, 79, 66
2, 50878, Note_off_c, 0, 79, 0
2, 50880, Note_on_c, 0, 69, 66
2, 50926, Note_off_c, 0, 69, 0
2, 50928, Note_on_c, 0, 81, 66
2, 50974, Note_off_c, 0, 81, 0
2, 50976, Note_on_c, 0, 70, 66
2, 51022, Note_off_c, 0, 70, 0
2, 51024, Note_on_c, 0, 82, 66
2, 51070, Note_off_c, 0, 82, 0
2, 51072, Note_on_c, 0, 69, 66
2, 51118, Note_off_c, 0, 69, 0
2, 51120, Note_on_c, 0, 81, 66
2, 51166, Note_off_c, 0, 81, 0
2, 51168, Note_on_c, 0, 70, 66
2, 51214, Note_off_c, 0, 70, 0
2, 51216, Note_on_c, 0, 82, 66
2, 51262, Note_off_c, 0, 82, 0
2, 51264, Note_on_c, 0, 71, 66
2, 51310, Note_off_c, 0, 71, 0
2, 51312, Note_on_c, 0, 83, 66
2, 51358, Note_off_c, 0, 83, 0
2, 51360, Note_on_c, 0, 72, 66
2, 51406, Note_off_c, 0, 72, 0
2, 51408, Note_on_c, 0, 84, 66
2, 51454, Note_off_c, 0, 84, 0
2, 51456, Note_on_c, 0, 73, 66
2, 51502, Note_off_c, 0, 73, 0
2, 51504, Note_on_c, 0, 85, 66
2, 51550, Note_off_c, 0, 85, 0
2, 51552, Note_on_c, 0, 74, 66
2, 51598, Note_off_c, 0, 74, 0
2, 51600, Note_on_c, 0, 86, 66
2, 51646, Note_off_c, 0, 86, 0
2, 51648, Note_on_c, 0, 75, 66
2, 51694, Note_off_c, 0, 75, 0
2, 51696, Note_on_c, 0, 87, 66
2, 51742, Note_off_c, 0, 87, 0
2, 51744, Note_on_c, 0, 76, 66
2, 51790, Note_off_c, 0, 76, 0
2, 51792, Note_on_c, 0, 88, 66
2, 51838, Note_off_c, 0, 88, 0
2, 51840, Note_on_c, 0, 77, 66
2, 51886, Note_off_c, 0, 77, 0
2, 51888, Note_on_c, 0, 89, 66
2, 51934, Note_off_c, 0, 89, 0
2, 52128, Note_on_c, 0, 77, 66
2, 52128, Note_on_c, 0, 74, 66
2, 52128, Note_on_c, 0, 80, 66
2, 52128, Note_on_c, 0, 86, 66
2, 52128, Note_on_c, 0, 68, 66
2, 52128, Note_on_c, 0, 65, 66
2, 52128, Note_on_c, 0, 62, 66
2, 52128, Note_on_c, 0, 59, 66
2, 52222, Note_off_c, 0, 77, 0
2, 52222, Note_off_c, 0, 74, 0
2, 52222, Note_off_c, 0, 80, 0
2, 52222, Note_off_c, 0, 86, 0
2, 52222, Note_off_c, 0, 68, 0
2, 52222, Note_off_c, 0, 65, 0
2, 52222, Note_off_c, 0, 62, 0
2, 52222, Note_off_c, 0, 59, 0
2, 52416, Note_on_c, 0, 72, 66
2, 52416, Note_on_c, 0, 77, 66
2, 52416, Note_on_c, 0, 81, 66
2, 52416, Note_on_c, 0, 84, 66
2, 52416, Note_on_c, 0, 69, 66
2, 52416, Note_on_c, 0, 65, 66
2, 52416, Note_on_c, 0, 60, 66
2, 52510, Note_off_c, 0, 72, 0
2, 52510, Note_off_c, 0, 77, 0
2, 52510, Note_off_c, 0, 81, 0
2, 52510, Note_off_c, 0, 84, 0
2, 52510, Note_off_c, 0, 69, 0
2, 52510, Note_off_c, 0, 65, 0
2, 52510, Note_off_c, 0, 60, 0
2, 52704, Note_on_c, 0, 76, 66
2, 52704, Note_on_c, 0, 72, 66
2, 52704, Note_on_c, 0, 70, 66
2, 52704, Note_on_c, 0, 67, 66
2, 52704, Note_on_c, 0, 64, 66
2, 52704, Note_on_c, 0, 60, 66
2, 52798, Note_off_c, 0, 76, 0
2, 52798, Note_off_c, 0, 72, 0
2, 52798, Note_off_c, 0, 70, 0
2, 52798, Note_off_c, 0, 67, 0
2, 52798, Note_off_c, 0, 64, 0
2, 52798, Note_off_c, 0, 60, 0
2, 52992, Note_on_c, 0, 72, 66
2, 52992, Note_on_c, 0, 77, 66
2, 52992, Note_on_c, 0, 69, 66
2, 53086, Note_off_c, 0, 72, 0
2, 53086, Note_off_c, 0, 77, 0
2, 53086, Note_off_c, 0, 69, 0
2, 53566, Control_c, 0, 64, 127
2, 53568, Note_on_c, 0, 75, 66
2, 53854, Note_off_c, 0, 75, 64
2, 53854, Control_c, 0, 64, 0
2, 53856, Note_on_c, 0, 77, 66
2, 53878, Note_off_c, 0, 77, 64
2, 53880, Note_on_c, 0, 75, 66
2, 53902, Note_off_c, 0, 75, 64
2, 53904, Note_on_c, 0, 72, 66
2, 53926, Note_off_c, 0, 72, 64
2, 53928, Note_on_c, 0, 74, 66
2, 53950, Note_off_c, 0, 74, 64
2, 53952, Note_on_c, 0, 77, 66
2, 53998, Note_off_c, 0, 77, 0
2, 54048, Note_on_c, 0, 75, 66
2, 54094, Note_off_c, 0, 75, 0
2, 54144, Note_on_c, 0, 75, 66
2, 54238, Note_off_c, 0, 75, 0
2, 54240, Note_on_c, 0, 74, 66
2, 54334, Note_off_c, 0, 74, 0
2, 54336, Note_on_c, 0, 74, 66
2, 54382, Note_off_c, 0, 74, 0
2, 54432, Note_on_c, 0, 74, 66
2, 54526, Note_off_c, 0, 74, 0
2, 54528, Note_on_c, 0, 82, 66
2, 54622, Note_off_c, 0, 82, 0
2, 54624, Note_on_c, 0, 82, 66
2, 54670, Note_off_c, 0, 82, 0
2, 54720, Note_on_c, 0, 82, 66
2, 55006, Note_off_c, 0, 82, 0
2, 55008, Note_on_c, 0, 82, 66
2, 55102, Note_off_c, 0, 82, 0
2, 55104, Note_on_c, 0, 81, 66
2, 55126, Note_off_c, 0, 81, 0
2, 55128, Note_on_c, 0, 79, 66
2, 55198, Note_off_c, 0, 79, 0
2, 55200, Note_on_c, 0, 77, 66
2, 55222, Note_off_c, 0, 77, 0
2, 55224, Note_on_c, 0, 75, 66
2, 55294, Note_off_c, 0, 75, 0
2, 55296, Note_on_c, 0, 84, 66
2, 55486, Note_off_c, 0, 84, 0
2, 55488, Note_on_c, 0, 84, 66
2, 55534, Note_off_c, 0, 84, 0
2, 55536, Note_on_c, 0, 81, 66
2, 55582, Note_off_c, 0, 81, 0
2, 55584, Note_on_c, 0, 77, 66
2, 55678, Note_off_c, 0, 77, 0
2, 55872, Note_on_c, 0, 77, 66
2, 55894, Note_off_c, 0, 77, 0
2, 55896, Note_on_c, 0, 87, 66
2, 56160, Note_on_c, 0, 87, 66
2, 56182, Note_off_c, 0, 87, 0
2, 56254, Note_off_c, 0, 87, 0
2, 56256, Note_on_c, 0, 87, 66
2, 56350, Note_off_c, 0, 87, 0
2, 56352, Note_on_c, 0, 87, 66
2, 56446, Note_off_c, 0, 87, 0
2, 56448, Note_on_c, 0, 85, 66
2, 56542, Note_off_c, 0, 85, 0
2, 56544, Note_on_c, 0, 86, 66
2, 56638, Note_off_c, 0, 86, 0
2, 56736, Note_on_c, 0, 84, 66
2, 56782, Note_off_c, 0, 84, 0
2, 56832, Note_on_c, 0, 82, 66
2, 56878, Note_off_c, 0, 82, 0
2, 57024, Note_on_c, 0, 81, 66
2, 57070, Note_off_c, 0, 81, 0
2, 57072, Note_on_c, 0, 79, 66
2, 57118, Note_off_c, 0, 79, 0
2, 57216, Note_on_c, 0, 77, 66
2, 57262, Note_off_c, 0, 77, 0
2, 57264, Note_on_c, 0, 76, 66
2, 57310, Note_off_c, 0, 76, 0
2, 57408, Note_on_c, 0, 82, 66
2, 57454, Note_off_c, 0, 82, 0
2, 57456, Note_on_c, 0, 76, 66
2, 57502, Note_off_c, 0, 76, 0
2, 57600, Note_on_c, 0, 65, 66
2, 57646, Note_off_c, 0, 65, 0
2, 57648, Note_on_c, 0, 69, 68
2, 57694, Note_off_c, 0, 69, 0
2, 57696, Note_on_c, 0, 72, 71
2, 57742, Note_off_c, 0, 72, 0
2, 57744, Note_on_c, 0, 77, 74
2, 57790, Note_off_c, 0, 77, 0
2, 57792, Note_on_c, 0, 81, 77
2, 57838, Note_off_c, 0, 81, 0
2, 57840, Note_on_c, 0, 84, 80
2, 57886, Note_off_c, 0, 84, 0
2, 57888, Note_on_c, 0, 89, 81
2, 57934, Note_off_c, 0, 89, 0
2, 57936, Note_on_c, 0, 84, 79
2, 57982, Note_off_c, 0, 84, 0
2, 57984, Note_on_c, 0, 81, 76
2, 58030, Note_off_c, 0, 81, 0
2, 58032, Note_on_c, 0, 77, 73
2, 58078, Note_off_c, 0, 77, 0
2, 58080, Note_on_c, 0, 72, 70
2, 58126, Note_off_c, 0, 72, 0
2, 58128, Note_on_c, 0, 69, 67
2, 58174, Note_off_c, 0, 69, 0
2, 58176, Note_on_c, 0, 65, 66
2, 58222, Note_off_c, 0, 65, 0
2, 58224, Note_on_c, 0, 69, 68
2, 58270, Note_off_c, 0, 69, 0
2, 58272, Note_on_c, 0, 72, 71
2, 58318, Note_off_c, 0, 72, 0
2, 58320, Note_on_c, 0, 77, 74
2, 58366, Note_off_c, 0, 77, 0
2, 58368, Note_on_c, 0, 81, 77
2, 58414, Note_off_c, 0, 81, 0
2, 58416, Note_on_c, 0, 84, 80
2, 58462, Note_off_c, 0, 84, 0
2, 58464, Note_on_c, 0, 89, 81
2, 58510, Note_off_c, 0, 89, 0
2, 58512, Note_on_c, 0, 84, 79
2, 58558, Note_off_c, 0, 84, 0
2, 58560, Note_on_c, 0, 81, 76
2, 58606, Note_off_c, 0, 81, 0
2, 58608, Note_on_c, 0, 77, 73
2, 58654, Note_off_c, 0, 77, 0
2, 58656, Note_on_c, 0, 72, 70
2, 58702, Note_off_c, 0, 72, 0
2, 58704, Note_on_c, 0, 69, 67
2, 58750, Note_off_c, 0, 69, 0
2, 58752, Note_on_c, 0, 65, 66
2, 58798, Note_off_c, 0, 65, 0
2, 58800, Note_on_c, 0, 70, 68
2, 58846, Note_off_c, 0, 70, 0
2, 58848, Note_on_c, 0, 74, 71
2, 58894, Note_off_c, 0, 74, 0
2, 58896, Note_on_c, 0, 77, 74
2, 58942, Note_off_c, 0, 77, 0
2, 58944, Note_on_c, 0, 82, 77
2, 58990, Note_off_c, 0, 82, 0
2, 58992, Note_on_c, 0, 86, 80
2, 59038, Note_off_c, 0, 86, 0
2, 59040, Note_on_c, 0, 89, 81
2, 59086, Note_off_c, 0, 89, 0
2, 59088, Note_on_c, 0, 86, 79
2, 59134, Note_off_c, 0, 86, 0
2, 59136, Note_on_c, 0, 82, 76
2, 59182, Note_off_c, 0, 82, 0
2, 59184, Note_on_c, 0, 77, 73
2, 59230, Note_off_c, 0, 77, 0
2, 59232, Note_on_c, 0, 74, 70
2, 59278, Note_off_c, 0, 74, 0
2, 59280, Note_on_c, 0, 70, 67
2, 59326, Note_off_c, 0, 70, 0
2, 59328, Note_on_c, 0, 64, 66
2, 59374, Note_off_c, 0, 64, 0
2, 59376, Note_on_c, 0, 67, 68
2, 59422, Note_off_c, 0, 67, 0
2, 59424, Note_on_c, 0, 70, 71
2, 59470, Note_off_c, 0, 70, 0
2, 59472, Note_on_c, 0, 72, 74
2, 59518, Note_off_c, 0, 72, 0
2, 59520, Note_on_c, 0, 76, 77
2, 59566, Note_off_c, 0, 76, 0
2, 59568, Note_on_c, 0, 79, 80
2, 59614, Note_off_c, 0, 79, 0
2, 59616, Note_on_c, 0, 82, 81
2, 59662, Note_off_c, 0, 82, 0
2, 59664, Note_on_c, 0, 79, 79
2, 59710, Note_off_c, 0, 79, 0
2, 59712, Note_on_c, 0, 76, 76
2, 59758, Note_off_c, 0, 76, 0
2, 59760, Note_on_c, 0, 72, 73
2, 59806, Note_off_c, 0, 72, 0
2, 59808, Note_on_c, 0, 70, 70
2, 59854, Note_off_c, 0, 70, 0
2, 59856, Note_on_c, 0, 67, 67
2, 59902, Note_off_c, 0, 67, 0
2, 59904, Note_on_c, 0, 65, 66
2, 59950, Note_off_c, 0, 65, 0
2, 59952, Note_on_c, 0, 69, 68
2, 59998, Note_off_c, 0, 69, 0
2, 60000, Note_on_c, 0, 72, 71
2, 60046, Note_off_c, 0, 72, 0
2, 60048, Note_on_c, 0, 77, 74
2, 60094, Note_off_c, 0, 77, 0
2, 60096, Note_on_c, 0, 81, 77
2, 60142, Note_off_c, 0, 81, 0
2, 60144, Note_on_c, 0, 84, 80
2, 60190, Note_off_c, 0, 84, 0
2, 60192, Note_on_c, 0, 89, 81
2, 60238, Note_off_c, 0, 89, 0
2, 60240, Note_on_c, 0, 84, 79
2, 60286, Note_off_c, 0, 84, 0
2, 60288, Note_on_c, 0, 81, 76
2, 60334, Note_off_c, 0, 81, 0
2, 60336, Note_on_c, 0, 77, 73
2, 60382, Note_off_c, 0, 77, 0
2, 60384, Note_on_c, 0, 72, 70
2, 60430, Note_off_c, 0, 72, 0
2, 60432, Note_on_c, 0, 69, 67
2, 60478, Note_off_c, 0, 69, 0
2, 60480, Note_on_c, 0, 65, 66
2, 60526, Note_off_c, 0, 65, 0
2, 60528, Note_on_c, 0, 69, 68
2, 60574, Note_off_c, 0, 69, 0
2, 60576, Note_on_c, 0, 72, 71
2, 60622, Note_off_c, 0, 72, 0
2, 60624, Note_on_c, 0, 77, 74
2, 60670, Note_off_c, 0, 77, 0
2, 60672, Note_on_c, 0, 81, 77
2, 60718, Note_off_c, 0, 81, 0
2, 60720, Note_on_c, 0, 84, 80
2, 60766, Note_off_c, 0, 84, 0
2, 60768, Note_on_c, 0, 89, 81
2, 60814, Note_off_c, 0, 89, 0
2, 60816, Note_on_c, 0, 84, 79
2, 60862, Note_off_c, 0, 84, 0
2, 60864, Note_on_c, 0, 81, 76
2, 60910, Note_off_c, 0, 81, 0
2, 60912, Note_on_c, 0, 77, 73
2, 60958, Note_off_c, 0, 77, 0
2, 60960, Note_on_c, 0, 72, 70
2, 61006, Note_off_c, 0, 72, 0
2, 61008, Note_on_c, 0, 69, 67
2, 61054, Note_off_c, 0, 69, 0
2, 61056, Note_on_c, 0, 65, 66
2, 61102, Note_off_c, 0, 65, 0
2, 61104, Note_on_c, 0, 70, 68
2, 61150, Note_off_c, 0, 70, 0
2, 61152, Note_on_c, 0, 74, 71
2, 61198, Note_off_c, 0, 74, 0
2, 61200, Note_on_c, 0, 77, 74
2, 61246, Note_off_c, 0, 77, 0
2, 61248, Note_on_c, 0, 82, 77
2, 61294, Note_off_c, 0, 82, 0
2, 61296, Note_on_c, 0, 86, 80
2, 61342, Note_off_c, 0, 86, 0
2, 61344, Note_on_c, 0, 89, 81
2, 61390, Note_off_c, 0, 89, 0
2, 61392, Note_on_c, 0, 86, 79
2, 61438, Note_off_c, 0, 86, 0
2, 61440, Note_on_c, 0, 82, 76
2, 61486, Note_off_c, 0, 82, 0
2, 61488, Note_on_c, 0, 77, 73
2, 61534, Note_off_c, 0, 77, 0
2, 61536, Note_on_c, 0, 74, 70
2, 61582, Note_off_c, 0, 74, 0
2, 61584, Note_on_c, 0, 70, 67
2, 61630, Note_off_c, 0, 70, 0
2, 61632, Note_on_c, 0, 64, 66
2, 61678, Note_off_c, 0, 64, 0
2, 61680, Note_on_c, 0, 67, 68
2, 61726, Note_off_c, 0, 67, 0
2, 61728, Note_on_c, 0, 70, 71
2, 61774, Note_off_c, 0, 70, 0
2, 61776, Note_on_c, 0, 72, 74
2, 61822, Note_off_c, 0, 72, 0
2, 61824, Note_on_c, 0, 76, 77
2, 61870, Note_off_c, 0, 76, 0
2, 61872, Note_on_c, 0, 79, 80
2, 61918, Note_off_c, 0, 79, 0
2, 61920, Note_on_c, 0, 82, 81
2, 61966, Note_off_c, 0, 82, 0
2, 61968, Note_on_c, 0, 79, 79
2, 62014, Note_off_c, 0, 79, 0
2, 62016, Note_on_c, 0, 76, 76
2, 62062, Note_off_c, 0, 76, 0
2, 62064, Note_on_c, 0, 72, 73
2, 62110, Note_off_c, 0, 72, 0
2, 62112, Note_on_c, 0, 70, 70
2, 62158, Note_off_c, 0, 70, 0
2, 62160, Note_on_c, 0, 67, 67
2, 62206, Note_off_c, 0, 67, 0
2, 62208, Note_on_c, 0, 65, 66
2, 62254, Note_off_c, 0, 65, 0
2, 62256, Note_on_c, 0, 60, 66
2, 62302, Note_off_c, 0, 60, 0
2, 62304, Note_on_c, 0, 65, 66
2, 62350, Note_off_c, 0, 65, 0
2, 62352, Note_on_c, 0, 64, 66
2, 62398, Note_off_c, 0, 64, 0
2, 62400, Note_on_c, 0, 65, 67
2, 62446, Note_off_c, 0, 65, 0
2, 62448, Note_on_c, 0, 64, 67
2, 62494, Note_off_c, 0, 64, 0
2, 62496, Note_on_c, 0, 65, 67
2, 62542, Note_off_c, 0, 65, 0
2, 62544, Note_on_c, 0, 60, 68
2, 62590, Note_off_c, 0, 60, 0
2, 62592, Note_on_c, 0, 69, 68
2, 62638, Note_off_c, 0, 69, 0
2, 62640, Note_on_c, 0, 68, 68
2, 62686, Note_off_c, 0, 68, 0
2, 62688, Note_on_c, 0, 69, 69
2, 62734, Note_off_c, 0, 69, 0
2, 62736, Note_on_c, 0, 68, 69
2, 62782, Note_off_c, 0, 68, 0
2, 62784, Note_on_c, 0, 69, 69
2, 62830, Note_off_c, 0, 69, 0
2, 62832, Note_on_c, 0, 65, 70
2, 62878, Note_off_c, 0, 65, 0
2, 62880, Note_on_c, 0, 72, 70
2, 62926, Note_off_c, 0, 72, 0
2, 62928, Note_on_c, 0, 71, 70
2, 62974, Note_off_c, 0, 71, 0
2, 62976, Note_on_c, 0, 72, 71
2, 63022, Note_off_c, 0, 72, 0
2, 63024, Note_on_c, 0, 71, 71
2, 63070, Note_off_c, 0, 71, 0
2, 63072, Note_on_c, 0, 72, 71
2, 63118, Note_off_c, 0, 72, 0
2, 63120, Note_on_c, 0, 71, 72
2, 63166, Note_off_c, 0, 71, 0
2, 63168, Note_on_c, 0, 75, 72
2, 63214, Note_off_c, 0, 75, 0
2, 63216, Note_on_c, 0, 74, 72
2, 63262, Note_off_c, 0, 74, 0
2, 63264, Note_on_c, 0, 75, 72
2, 63310, Note_off_c, 0, 75, 0
2, 63312, Note_on_c, 0, 74, 73
2, 63358, Note_off_c, 0, 74, 0
2, 63360, Note_on_c, 0, 75, 73
2, 63406, Note_off_c, 0, 75, 0
2, 63408, Note_on_c, 0, 72, 73
2, 63454, Note_off_c, 0, 72, 0
2, 63456, Note_on_c, 0, 81, 74
2, 63502, Note_off_c, 0, 81, 0
2, 63504, Note_on_c, 0, 79, 74
2, 63550, Note_off_c, 0, 79, 0
2, 63552, Note_on_c, 0, 81, 74
2, 63598, Note_off_c, 0, 81, 0
2, 63600, Note_on_c, 0, 80, 75
2, 63646, Note_off_c, 0, 80, 0
2, 63648, Note_on_c, 0, 81, 75
2, 63694, Note_off_c, 0, 81, 0
2, 63696, Note_on_c, 0, 77, 75
2, 63742, Note_off_c, 0, 77, 0
2, 63744, Note_on_c, 0, 84, 76
2, 63790, Note_off_c, 0, 84, 0
2, 63792, Note_on_c, 0, 83, 76
2, 63838, Note_off_c, 0, 83, 0
2, 63840, Note_on_c, 0, 84, 76
2, 63886, Note_off_c, 0, 84, 0
2, 63888, Note_on_c, 0, 83, 77
2, 63934, Note_off_c, 0, 83, 0
2, 63936, Note_on_c, 0, 84, 77
2, 63982, Note_off_c, 0, 84, 0
2, 63984, Note_on_c, 0, 81, 77
2, 64030, Note_off_c, 0, 81, 0
2, 64032, Note_on_c, 0, 87, 78
2, 64078, Note_off_c, 0, 87, 0
2, 64080, Note_on_c, 0, 86, 78
2, 64126, Note_off_c, 0, 86, 0
2, 64128, Note_on_c, 0, 87, 78
2, 64174, Note_off_c, 0, 87, 0
2, 64176, Note_on_c, 0, 86, 78
2, 64222, Note_off_c, 0, 86, 0
2, 64224, Note_on_c, 0, 87, 79
2, 64270, Note_off_c, 0, 87, 0
2, 64272, Note_on_c, 0, 86, 79
2, 64318, Note_off_c, 0, 86, 0
2, 64320, Note_on_c, 0, 87, 79
2, 64366, Note_off_c, 0, 87, 0
2, 64368, Note_on_c, 0, 86, 80
2, 64414, Note_off_c, 0, 86, 0
2, 64416, Note_on_c, 0, 87, 80
2, 64462, Note_off_c, 0, 87, 0
2, 64464, Note_on_c, 0, 86, 80
2, 64510, Note_off_c, 0, 86, 0
2, 64510, Control_c, 0, 64, 127
2, 64512, Note_on_c, 0, 87, 81
2, 65086, Note_off_c, 0, 87, 0
2, 65086, Control_c, 0, 64, 0
2, 65088, Note_on_c, 0, 87, 66
2, 65110, Note_off_c, 0, 87, 0
2, 65112, Note_on_c, 0, 86, 66
2, 65134, Note_off_c, 0, 86, 0
2, 65136, Note_on_c, 0, 84, 66
2, 65158, Note_off_c, 0, 84, 0
2, 65160, Note_on_c, 0, 82, 66
2, 65182, Note_off_c, 0, 82, 0
2, 65184, Note_on_c, 0, 81, 66
2, 65206, Note_off_c, 0, 81, 0
2, 65208, Note_on_c, 0, 79, 66
2, 65230, Note_off_c, 0, 79, 0
2, 65232, Note_on_c, 0, 77, 66
2, 65254, Note_off_c, 0, 77, 0
2, 65256, Note_on_c, 0, 76, 66
2, 65278, Note_off_c, 0, 76, 0
2, 65280, Note_on_c, 0, 75, 66
2, 65302, Note_off_c, 0, 75, 0
2, 65304, Note_on_c, 0, 74, 66
2, 65326, Note_off_c, 0, 74, 0
2, 65328, Note_on_c, 0, 72, 66
2, 65350, Note_off_c, 0, 72, 0
2, 65352, Note_on_c, 0, 70, 66
2, 65374, Note_off_c, 0, 70, 0
2, 65376, Note_on_c, 0, 69, 66
2, 65398, Note_off_c, 0, 69, 0
2, 65400, Note_on_c, 0, 67, 66
2, 65422, Note_off_c, 0, 67, 0
2, 65424, Note_on_c, 0, 65, 66
2, 65446, Note_off_c, 0, 65, 0
2, 65448, Note_on_c, 0, 64, 66
2, 65470, Note_off_c, 0, 64, 0
2, 65472, Note_on_c, 0, 63, 66
2, 65494, Note_off_c, 0, 63, 0
2, 65496, Note_on_c, 0, 62, 66
2, 65518, Note_off_c, 0, 62, 0
2, 65520, Note_on_c, 0, 60, 66
2, 65542, Note_off_c, 0, 60, 0
2, 67296, Note_on_c, 0, 65, 66
2, 67342, Note_off_c, 0, 65, 0
2, 67344, Note_on_c, 0, 69, 66
2, 67390, Note_off_c, 0, 69, 0
2, 67392, Note_on_c, 0, 72, 66
2, 67438, Note_off_c, 0, 72, 0
2, 67440, Note_on_c, 0, 75, 66
2, 67486, Note_off_c, 0, 75, 0
2, 67488, Note_on_c, 0, 77, 66
2, 67534, Note_off_c, 0, 77, 0
2, 67536, Note_on_c, 0, 81, 66
2, 67582, Note_off_c, 0, 81, 0
2, 67584, Note_on_c, 0, 84, 66
2, 67630, Note_off_c, 0, 84, 0
2, 67632, Note_on_c, 0, 87, 66
2, 67678, Note_off_c, 0, 87, 0
2, 67680, Note_on_c, 0, 84, 66
2, 67726, Note_off_c, 0, 84, 0
2, 67728, Note_on_c, 0, 81, 66
2, 67774, Note_off_c, 0, 81, 0
2, 67776, Note_on_c, 0, 77, 66
2, 67822, Note_off_c, 0, 77, 0
2, 67824, Note_on_c, 0, 75, 66
2, 67870, Note_off_c, 0, 75, 0
2, 67872, Note_on_c, 0, 72, 66
2, 67918, Note_off_c, 0, 72, 0
2, 67920, Note_on_c, 0, 69, 66
2, 67966, Note_off_c, 0, 69, 0
2, 67968, Note_on_c, 0, 65, 66
2, 68014, Note_off_c, 0, 65, 0
2, 68016, Note_on_c, 0, 63, 66
2, 68062, Note_off_c, 0, 63, 0
2, 68064, Note_on_c, 0, 60, 66
2, 68110, Note_off_c, 0, 60, 0
2, 68112, Note_on_c, 0, 57, 66
2, 68158, Note_off_c, 0, 57, 0
2, 68784, Note_on_c, 0, 60, 66
2, 68806, Note_off_c, 0, 60, 0
2, 68808, Note_on_c, 0, 62, 66
2, 68830, Note_off_c, 0, 62, 0
2, 68832, Note_on_c, 0, 63, 66
2, 68854, Note_off_c, 0, 63, 0
2, 68856, Note_on_c, 0, 65, 66
2, 68878, Note_off_c, 0, 65, 0
2, 68880, Note_on_c, 0, 67, 66
2, 68902, Note_off_c, 0, 67, 0
2, 68904, Note_on_c, 0, 69, 66
2, 68926, Note_off_c, 0, 69, 0
2, 68928, Note_on_c, 0, 70, 66
2, 68950, Note_off_c, 0, 70, 0
2, 68952, Note_on_c, 0, 72, 66
2, 68974, Note_off_c, 0, 72, 0
2, 68976, Note_on_c, 0, 74, 66
2, 68998, Note_off_c, 0, 74, 0
2, 69000, Note_on_c, 0, 75, 66
2, 69022, Note_off_c, 0, 75, 0
2, 69024, Note_on_c, 0, 77, 66
2, 69046, Note_off_c, 0, 77, 0
2, 69048, Note_on_c, 0, 79, 66
2, 69070, Note_off_c, 0, 79, 0
2, 69072, Note_on_c, 0, 81, 66
2, 69094, Note_off_c, 0, 81, 0
2, 69096, Note_on_c, 0, 82, 66
2, 69118, Note_off_c, 0, 82, 0
2, 69120, Note_on_c, 0, 84, 66
2, 69310, Note_off_c, 0, 84, 0
2, 69312, Note_on_c, 0, 84, 66
2, 69406, Note_off_c, 0, 84, 0
2, 69408, Note_on_c, 0, 84, 66
2, 69502, Note_off_c, 0, 84, 0
2, 69504, Note_on_c, 0, 86, 66
2, 69598, Note_off_c, 0, 86, 0
2, 69600, Note_on_c, 0, 87, 66
2, 69694, Note_off_c, 0, 87, 0
2, 69696, Note_on_c, 0, 87, 66
2, 69790, Note_off_c, 0, 87, 0
2, 69792, Note_on_c, 0, 81, 66
2, 69886, Note_off_c, 0, 81, 0
2, 69888, Note_on_c, 0, 81, 66
2, 69982, Note_off_c, 0, 81, 0
2, 69984, Note_on_c, 0, 81, 66
2, 70006, Note_off_c, 0, 81, 0
2, 70008, Note_on_c, 0, 82, 66
2, 70030, Note_off_c, 0, 82, 0
2, 70032, Note_on_c, 0, 79, 66
2, 70054, Note_off_c, 0, 79, 0
2, 70056, Note_on_c, 0, 81, 66
2, 70078, Note_off_c, 0, 81, 0
2, 70080, Note_on_c, 0, 82, 66
2, 70174, Note_off_c, 0, 82, 0
2, 70176, Note_on_c, 0, 84, 66
2, 70270, Note_off_c, 0, 84, 0
2, 70272, Note_on_c, 0, 84, 66
2, 70366, Note_off_c, 0, 84, 0
2, 70368, Note_on_c, 0, 75, 66
2, 70462, Note_off_c, 0, 75, 0
2, 70464, Note_on_c, 0, 75, 66
2, 70558, Note_off_c, 0, 75, 0
2, 70560, Note_on_c, 0, 75, 66
2, 70582, Note_off_c, 0, 75, 0
2, 70584, Note_on_c, 0, 77, 66
2, 70606, Note_off_c, 0, 77, 0
2, 70608, Note_on_c, 0, 74, 66
2, 70630, Note_off_c, 0, 74, 0
2, 70632, Note_on_c, 0, 75, 66
2, 70654, Note_off_c, 0, 75, 0
2, 70656, Note_on_c, 0, 77, 66
2, 70750, Note_off_c, 0, 77, 0
2, 70752, Note_on_c, 0, 79, 66
2, 70846, Note_off_c, 0, 79, 0
2, 70848, Note_on_c, 0, 79, 66
2, 70942, Note_off_c, 0, 79, 0
2, 70944, Note_on_c, 0, 72, 66
2, 71038, Note_off_c, 0, 72, 0
2, 71040, Note_on_c, 0, 72, 66
2, 71134, Note_off_c, 0, 72, 0
2, 71136, Note_on_c, 0, 72, 66
2, 71158, Note_off_c, 0, 72, 0
2, 71160, Note_on_c, 0, 74, 66
2, 71182, Note_off_c, 0, 74, 0
2, 71184, Note_on_c, 0, 70, 66
2, 71206, Note_off_c, 0, 70, 0
2, 71208, Note_on_c, 0, 72, 66
2, 71230, Note_off_c, 0, 72, 0
2, 71232, Note_on_c, 0, 74, 66
2, 71326, Note_off_c, 0, 74, 0
2, 71328, Note_on_c, 0, 75, 66
2, 71422, Note_off_c, 0, 75, 0
2, 71424, Note_on_c, 0, 75, 66
2, 71518, Note_off_c, 0, 75, 0
2, 71520, Note_on_c, 0, 72, 66
2, 71614, Note_off_c, 0, 72, 0
2, 71616, Note_on_c, 0, 75, 66
2, 71710, Note_off_c, 0, 75, 0
2, 71712, Note_on_c, 0, 75, 66
2, 71806, Note_off_c, 0, 75, 0
2, 71808, Note_on_c, 0, 67, 66
2, 71902, Note_off_c, 0, 67, 0
2, 71904, Note_on_c, 0, 75, 66
2, 71998, Note_off_c, 0, 75, 0
2, 72000, Note_on_c, 0, 75, 66
2, 72000, Note_on_c, 0, 65, 66
2, 72094, Note_off_c, 0, 65, 0
2, 72096, Note_on_c, 0, 70, 66
2, 72190, Note_off_c, 0, 70, 0
2, 72192, Note_on_c, 0, 69, 66
2, 72286, Note_off_c, 0, 69, 0
2, 72288, Note_on_c, 0, 68, 66
2, 72382, Note_off_c, 0, 68, 0
2, 72384, Note_on_c, 0, 67, 66
2, 72478, Note_off_c, 0, 67, 0
2, 72480, Note_on_c, 0, 66, 66
2, 72574, Note_off_c, 0, 75, 0
2, 72574, Note_off_c, 0, 66, 0
2, 72576, Note_on_c, 0, 75, 66
2, 72576, Note_on_c, 0, 65, 66
2, 72670, Note_off_c, 0, 65, 0
2, 72672, Note_on_c, 0, 70, 66
2, 72766, Note_off_c, 0, 70, 0
2, 72768, Note_on_c, 0, 69, 66
2, 72862, Note_off_c, 0, 69, 0
2, 72864, Note_on_c, 0, 68, 66
2, 72958, Note_off_c, 0, 68, 0
2, 72960, Note_on_c, 0, 67, 66
2, 73054, Note_off_c, 0, 67, 0
2, 73056, Note_on_c, 0, 66, 66
2, 73150, Note_off_c, 0, 75, 0
2, 73150, Note_off_c, 0, 66, 0
2, 73248, Note_on_c, 0, 60, 66
2, 73342, Note_off_c, 0, 60, 0
2, 73344, Note_on_c, 0, 69, 66
2, 73438, Note_off_c, 0, 69, 0
2, 73440, Note_on_c, 0, 63, 66
2, 73534, Note_off_c, 0, 63, 0
2, 73536, Note_on_c, 0, 72, 66
2, 73630, Note_off_c, 0, 72, 0
2, 73632, Note_on_c, 0, 69, 66
2, 73726, Note_off_c, 0, 69, 0
2, 73728, Note_on_c, 0, 75, 66
2, 73822, Note_off_c, 0, 75, 0
2, 73824, Note_on_c, 0, 72, 66
2, 73918, Note_off_c, 0, 72, 0
2, 73920, Note_on_c, 0, 81, 66
2, 74014, Note_off_c, 0, 81, 0
2, 74016, Note_on_c, 0, 75, 66
2, 74110, Note_off_c, 0, 75, 0
2, 74112, Note_on_c, 0, 84, 66
2, 74206, Note_off_c, 0, 84, 0
2, 74208, Note_on_c, 0, 81, 66
2, 74302, Note_off_c, 0, 81, 0
2, 74304, Note_on_c, 0, 87, 66
2, 74304, Note_on_c, 0, 84, 66
2, 74304, Note_on_c, 0, 81, 66
2, 74304, Note_on_c, 0, 75, 66
2, 74878, Note_off_c, 0, 87, 0
2, 74878, Note_off_c, 0, 84, 0
2, 74878, Note_off_c, 0, 81, 0
2, 74878, Note_off_c, 0, 75, 0
2, 74880, Note_on_c, 0, 87, 66
2, 74880, Note_on_c, 0, 84, 66
2, 74880, Note_on_c, 0, 81, 66
2, 74880, Note_on_c, 0, 75, 66
2, 75264, Note_on_c, 0, 65, 66
2, 75358, Note_off_c, 0, 65, 0
2, 75360, Note_on_c, 0, 60, 66
2, 75454, Note_off_c, 0, 87, 0
2, 75454, Note_off_c, 0, 84, 0
2, 75454, Note_off_c, 0, 81, 0
2, 75454, Note_off_c, 0, 75, 0
2, 75454, Note_off_c, 0, 60, 0
2, 75456, Note_on_c, 0, 87, 66
2, 75456, Note_on_c, 0, 65, 66
2, 75456, Note_on_c, 0, 69, 66
2, 75502, Note_off_c, 0, 87, 0
2, 75504, Note_on_c, 0, 86, 66
2, 75550, Note_off_c, 0, 86, 0
2, 75552, Note_on_c, 0, 84, 66
2, 75598, Note_off_c, 0, 84, 0
2, 75600, Note_on_c, 0, 82, 66
2, 75646, Note_off_c, 0, 82, 0
2, 75648, Note_on_c, 0, 81, 66
2, 75694, Note_off_c, 0, 81, 0
2, 75696, Note_on_c, 0, 79, 66
2, 75742, Note_off_c, 0, 79, 0
2, 75744, Note_on_c, 0, 77, 66
2, 75790, Note_off_c, 0, 77, 0
2, 75792, Note_on_c, 0, 79, 66
2, 75838, Note_off_c, 0, 79, 0
2, 75840, Note_on_c, 0, 81, 66
2, 75886, Note_off_c, 0, 81, 0
2, 75888, Note_on_c, 0, 82, 66
2, 75934, Note_off_c, 0, 82, 0
2, 75936, Note_on_c, 0, 84, 66
2, 75982, Note_off_c, 0, 84, 0
2, 75984, Note_on_c, 0, 86, 66
2, 76030, Note_off_c, 0, 65, 0
2, 76030, Note_off_c, 0, 69, 0
2, 76030, Note_off_c, 0, 86, 0
2, 76032, Note_on_c, 0, 87, 66
2, 76032, Note_on_c, 0, 65, 66
2, 76032, Note_on_c, 0, 69, 66
2, 76078, Note_off_c, 0, 87, 0
2, 76080, Note_on_c, 0, 86, 66
2, 76126, Note_off_c, 0, 86, 0
2, 76128, Note_on_c, 0, 84, 66
2, 76174, Note_off_c, 0, 84, 0
2, 76176, Note_on_c, 0, 82, 66
2, 76222, Note_off_c, 0, 82, 0
2, 76224, Note_on_c, 0, 81, 66
2, 76270, Note_off_c, 0, 81, 0
2, 76272, Note_on_c, 0, 79, 66
2, 76318, Note_off_c, 0, 79, 0
2, 76320, Note_on_c, 0, 77, 66
2, 76366, Note_off_c, 0, 77, 0
2, 76368, Note_on_c, 0, 79, 66
2, 76414, Note_off_c, 0, 79, 0
2, 76416, Note_on_c, 0, 81, 66
2, 76462, Note_off_c, 0, 81, 0
2, 76464, Note_on_c, 0, 82, 66
2, 76510, Note_off_c, 0, 82, 0
2, 76512, Note_on_c, 0, 84, 66
2, 76558, Note_off_c, 0, 84, 0
2, 76560, Note_on_c, 0, 86, 66
2, 76606, Note_off_c, 0, 65, 0
2, 76606, Note_off_c, 0, 69, 0
2, 76606, Note_off_c, 0, 86, 0
2, 76608, Note_on_c, 0, 87, 66
2, 76608, Note_on_c, 0, 65, 66
2, 76608, Note_on_c, 0, 69, 66
2, 76654, Note_off_c, 0, 87, 0
2, 76656, Note_on_c, 0, 86, 66
2, 76702, Note_off_c, 0, 86, 0
2, 76704, Note_on_c, 0, 84, 66
2, 76750, Note_off_c, 0, 84, 0
2, 76752, Note_on_c, 0, 82, 66
2, 76798, Note_off_c, 0, 65, 0
2, 76798, Note_off_c, 0, 69, 0
2, 76798, Note_off_c, 0, 82, 0
2, 76800, Note_on_c, 0, 81, 66
2, 76846, Note_off_c, 0, 81, 0
2, 76848, Note_on_c, 0, 79, 66
2, 76894, Note_off_c, 0, 79, 0
2, 76896, Note_on_c, 0, 77, 66
2, 76942, Note_off_c, 0, 77, 0
2, 76944, Note_on_c, 0, 76, 66
2, 76990, Note_off_c, 0, 76, 0
2, 76992, Note_on_c, 0, 75, 66
2, 77038, Note_off_c, 0, 75, 0
2, 77040, Note_on_c, 0, 74, 66
2, 77086, Note_off_c, 0, 74, 0
2, 77088, Note_on_c, 0, 72, 66
2, 77134, Note_off_c, 0, 72, 0
2, 77136, Note_on_c, 0, 70, 66
2, 77182, Note_off_c, 0, 70, 0
2, 77184, Note_on_c, 0, 69, 66
2, 77230, Note_off_c, 0, 69, 0
2, 77232, Note_on_c, 0, 70, 66
2, 77278, Note_off_c, 0, 70, 0
2, 77280, Note_on_c, 0, 71, 66
2, 77326, Note_off_c, 0, 71, 0
2, 77328, Note_on_c, 0, 72, 66
2, 77374, Note_off_c, 0, 72, 0
2, 77376, Note_on_c, 0, 73, 66
2, 77422, Note_off_c, 0, 73, 0
2, 77424, Note_on_c, 0, 74, 66
2, 77470, Note_off_c, 0, 74, 0
2, 77472, Note_on_c, 0, 75, 66
2, 77518, Note_off_c, 0, 75, 0
2, 77520, Note_on_c, 0, 76, 66
2, 77566, Note_off_c, 0, 76, 0
2, 77568, Note_on_c, 0, 77, 66
2, 77662, Note_off_c, 0, 77, 0
2, 77664, Note_on_c, 0, 78, 66
2, 77758, Note_off_c, 0, 78, 0
2, 77760, Note_on_c, 0, 79, 66
2, 77854, Note_off_c, 0, 79, 0
2, 77952, Note_on_c, 0, 80, 66
2, 78142, Note_off_c, 0, 80, 0
2, 78142, Control_c, 0, 64, 127
2, 78144, Note_on_c, 0, 81, 66
2, 78574, Control_c, 0, 64, 0
2, 78576, Note_on_c, 0, 77, 66
2, 78622, Note_off_c, 0, 77, 0
2, 78624, Note_on_c, 0, 76, 66
2, 78670, Note_off_c, 0, 76, 0
2, 78672, Note_on_c, 0, 77, 66
2, 78718, Note_off_c, 0, 81, 64
2, 78718, Note_off_c, 0, 77, 0
2, 78720, Note_on_c, 0, 78, 66
2, 78766, Note_off_c, 0, 78, 0
2, 78768, Note_on_c, 0, 79, 66
2, 78814, Note_off_c, 0, 79, 0
2, 78816, Note_on_c, 0, 80, 66
2, 78862, Note_off_c, 0, 80, 0
2, 78864, Note_on_c, 0, 81, 66
2, 78910, Note_off_c, 0, 81, 0
2, 78912, Note_on_c, 0, 82, 66
2, 79102, Note_off_c, 0, 82, 0
2, 79104, Note_on_c, 0, 82, 66
2, 79198, Note_off_c, 0, 82, 0
2, 79200, Note_on_c, 0, 82, 66
2, 79222, Note_off_c, 0, 82, 0
2, 79224, Note_on_c, 0, 84, 66
2, 79246, Note_off_c, 0, 84, 0
2, 79248, Note_on_c, 0, 81, 66
2, 79270, Note_off_c, 0, 81, 0
2, 79272, Note_on_c, 0, 82, 66
2, 79294, Note_off_c, 0, 82, 0
2, 79296, Note_on_c, 0, 84, 66
2, 79390, Note_off_c, 0, 84, 0
2, 79392, Note_on_c, 0, 86, 66
2, 79486, Note_off_c, 0, 86, 0
2, 79488, Note_on_c, 0, 86, 66
2, 79582, Note_off_c, 0, 86, 0
2, 79584, Note_on_c, 0, 77, 66
2, 79678, Note_off_c, 0, 77, 0
2, 79680, Note_on_c, 0, 77, 66
2, 79774, Note_off_c, 0, 77, 0
2, 79776, Note_on_c, 0, 77, 66
2, 79870, Note_off_c, 0, 77, 0
2, 79968, Note_on_c, 0, 78, 66
2, 80062, Note_off_c, 0, 78, 0
2, 80064, Note_on_c, 0, 79, 66
2, 80254, Note_off_c, 0, 79, 0
2, 80256, Note_on_c, 0, 79, 66
2, 80350, Note_off_c, 0, 79, 0
2, 80352, Note_on_c, 0, 79, 66
2, 80374, Note_off_c, 0, 79, 0
2, 80376, Note_on_c, 0, 81, 66
2, 80398, Note_off_c, 0, 81, 0
2, 80400, Note_on_c, 0, 77, 66
2, 80422, Note_off_c, 0, 77, 0
2, 80424, Note_on_c, 0, 79, 66
2, 80446, Note_off_c, 0, 79, 0
2, 80448, Note_on_c, 0, 81, 66
2, 80542, Note_off_c, 0, 81, 0
2, 80544, Note_on_c, 0, 82, 66
2, 80638, Note_off_c, 0, 82, 0
2, 80640, Note_on_c, 0, 82, 66
2, 80734, Note_off_c, 0, 82, 0
2, 80736, Note_on_c, 0, 74, 66
2, 80830, Note_off_c, 0, 74, 0
2, 80832, Note_on_c, 0, 74, 66
2, 80926, Note_off_c, 0, 74, 0
2, 80928, Note_on_c, 0, 74, 66
2, 81118, Note_off_c, 0, 74, 0
2, 81120, Note_on_c, 0, 74, 66
2, 81214, Note_off_c, 0, 74, 0
2, 81216, Note_on_c, 0, 77, 66
2, 81310, Note_off_c, 0, 77, 0
2, 81312, Note_on_c, 0, 75, 66
2, 81406, Note_off_c, 0, 75, 0
2, 81408, Note_on_c, 0, 75, 66
2, 81502, Note_off_c, 0, 75, 0
2, 81504, Note_on_c, 0, 75, 66
2, 81526, Note_off_c, 0, 75, 0
2, 81528, Note_on_c, 0, 77, 66
2, 81550, Note_off_c, 0, 77, 0
2, 81552, Note_on_c, 0, 74, 66
2, 81574, Note_off_c, 0, 74, 0
2, 81576, Note_on_c, 0, 75, 66
2, 81598, Note_off_c, 0, 75, 0
2, 81600, Note_on_c, 0, 77, 66
2, 81694, Note_off_c, 0, 77, 0
2, 81696, Note_on_c, 0, 79, 66
2, 81790, Note_off_c, 0, 79, 0
2, 81792, Note_on_c, 0, 79, 66
2, 81886, Note_off_c, 0, 79, 0
2, 81888, Note_on_c, 0, 72, 66
2, 81982, Note_off_c, 0, 72, 0
2, 81984, Note_on_c, 0, 72, 66
2, 82078, Note_off_c, 0, 72, 0
2, 82080, Note_on_c, 0, 72, 66
2, 82270, Note_off_c, 0, 72, 0
2, 82272, Note_on_c, 0, 75, 66
2, 82366, Note_off_c, 0, 75, 0
2, 82368, Note_on_c, 0, 74, 66
2, 82462, Note_off_c, 0, 74, 0
2, 82464, Note_on_c, 0, 77, 66
2, 82558, Note_off_c, 0, 77, 0
2, 82560, Note_on_c, 0, 70, 66
2, 82654, Note_off_c, 0, 70, 0
2, 82656, Note_on_c, 0, 67, 66
2, 82750, Note_off_c, 0, 67, 0
2, 82752, Note_on_c, 0, 72, 66
2, 82846, Note_off_c, 0, 72, 0
2, 82848, Note_on_c, 0, 77, 66
2, 82870, Note_off_c, 0, 77, 0
2, 82872, Note_on_c, 0, 75, 66
2, 82944, Note_on_c, 0, 74, 66
2, 82946, Note_off_c, 0, 75, 0
2, 83230, Note_off_c, 0, 74, 0
2, 83232, Note_on_c, 0, 72, 66
2, 83326, Note_off_c, 0, 72, 0
2, 95040, Note_on_c, 0, 63, 66
2, 95086, Note_off_c, 0, 63, 0
2, 95088, Note_on_c, 0, 58, 66
2, 95134, Note_off_c, 0, 58, 0
2, 95136, Note_on_c, 0, 55, 66
2, 95182, Note_off_c, 0, 55, 0
2, 95184, Note_on_c, 0, 58, 66
2, 95230, Note_off_c, 0, 58, 0
2, 95232, Note_on_c, 0, 63, 66
2, 95278, Note_off_c, 0, 63, 0
2, 95280, Note_on_c, 0, 58, 66
2, 95326, Note_off_c, 0, 58, 0
2, 95328, Note_on_c, 0, 63, 66
2, 95328, Note_on_c, 0, 75, 66
2, 95374, Note_off_c, 0, 63, 0
2, 95376, Note_on_c, 0, 58, 66
2, 95422, Note_off_c, 0, 75, 0
2, 95422, Note_off_c, 0, 58, 0
2, 95424, Note_on_c, 0, 55, 66
2, 95424, Note_on_c, 0, 79, 66
2, 95470, Note_off_c, 0, 55, 0
2, 95472, Note_on_c, 0, 58, 66
2, 95518, Note_off_c, 0, 79, 0
2, 95518, Note_off_c, 0, 58, 0
2, 95520, Note_on_c, 0, 63, 66
2, 95520, Note_on_c, 0, 75, 66
2, 95566, Note_off_c, 0, 63, 0
2, 95568, Note_on_c, 0, 58, 66
2, 95614, Note_off_c, 0, 75, 0
2, 95614, Note_off_c, 0, 58, 0
2, 95616, Note_on_c, 0, 63, 66
2, 95616, Note_on_c, 0, 82, 66
2, 95662, Note_off_c, 0, 63, 0
2, 95664, Note_on_c, 0, 58, 66
2, 95710, Note_off_c, 0, 58, 0
2, 95712, Note_on_c, 0, 55, 66
2, 95758, Note_off_c, 0, 55, 0
2, 95760, Note_on_c, 0, 58, 66
2, 95806, Note_off_c, 0, 82, 0
2, 95806, Note_off_c, 0, 58, 0
2, 95808, Note_on_c, 0, 63, 66
2, 95854, Note_off_c, 0, 63, 0
2, 95856, Note_on_c, 0, 58, 66
2, 95902, Note_off_c, 0, 58, 0
2, 95904, Note_on_c, 0, 63, 66
2, 95950, Note_off_c, 0, 63, 0
2, 95952, Note_on_c, 0, 58, 66
2, 95998, Note_off_c, 0, 58, 0
2, 96000, Note_on_c, 0, 62, 66
2, 96046, Note_off_c, 0, 62, 0
2, 96048, Note_on_c, 0, 58, 66
2, 96094, Note_off_c, 0, 58, 0
2, 96096, Note_on_c, 0, 63, 66
2, 96142, Note_off_c, 0, 63, 0
2, 96144, Note_on_c, 0, 58, 66
2, 96190, Note_off_c, 0, 58, 0
2, 96192, Note_on_c, 0, 65, 66
2, 96238, Note_off_c, 0, 65, 0
2, 96240, Note_on_c, 0, 62, 66
2, 96286, Note_off_c, 0, 62, 0
2, 96288, Note_on_c, 0, 58, 66
2, 96334, Note_off_c, 0, 58, 0
2, 96336, Note_on_c, 0, 62, 66
2, 96382, Note_off_c, 0, 62, 0
2, 96384, Note_on_c, 0, 65, 66
2, 96430, Note_off_c, 0, 65, 0
2, 96432, Note_on_c, 0, 62, 66
2, 96478, Note_off_c, 0, 62, 0
2, 96480, Note_on_c, 0, 65, 66
2, 96480, Note_on_c, 0, 74, 66
2, 96526, Note_off_c, 0, 65, 0
2, 96528, Note_on_c, 0, 62, 66
2, 96574, Note_off_c, 0, 74, 0
2, 96574, Note_off_c, 0, 62, 0
2, 96576, Note_on_c, 0, 58, 66
2, 96576, Note_on_c, 0, 77, 66
2, 96622, Note_off_c, 0, 58, 0
2, 96624, Note_on_c, 0, 62, 66
2, 96670, Note_off_c, 0, 77, 0
2, 96670, Note_off_c, 0, 62, 0
2, 96672, Note_on_c, 0, 65, 66
2, 96672, Note_on_c, 0, 74, 66
2, 96718, Note_off_c, 0, 65, 0
2, 96720, Note_on_c, 0, 62, 66
2, 96766, Note_off_c, 0, 74, 0
2, 96766, Note_off_c, 0, 62, 0
2, 96768, Note_on_c, 0, 65, 66
2, 96768, Note_on_c, 0, 82, 66
2, 96814, Note_off_c, 0, 65, 0
2, 96816, Note_on_c, 0, 62, 66
2, 96862, Note_off_c, 0, 62, 0
2, 96864, Note_on_c, 0, 58, 66
2, 96910, Note_off_c, 0, 58, 0
2, 96912, Note_on_c, 0, 62, 66
2, 96958, Note_off_c, 0, 82, 0
2, 96958, Note_off_c, 0, 62, 0
2, 96960, Note_on_c, 0, 65, 66
2, 97006, Note_off_c, 0, 65, 0
2, 97008, Note_on_c, 0, 62, 66
2, 97054, Note_off_c, 0, 62, 0
2, 97056, Note_on_c, 0, 65, 66
2, 97102, Note_off_c, 0, 65, 0
2, 97104, Note_on_c, 0, 58, 66
2, 97150, Note_off_c, 0, 58, 0
2, 97152, Note_on_c, 0, 63, 66
2, 97198, Note_off_c, 0, 63, 0
2, 97200, Note_on_c, 0, 58, 66
2, 97246, Note_off_c, 0, 58, 0
2, 97248, Note_on_c, 0, 65, 66
2, 97294, Note_off_c, 0, 65, 0
2, 97296, Note_on_c, 0, 58, 66
2, 97342, Note_off_c, 0, 58, 0
2, 97344, Note_on_c, 0, 67, 66
2, 97390, Note_off_c, 0, 67, 0
2, 97392, Note_on_c, 0, 63, 66
2, 97438, Note_off_c, 0, 63, 0
2, 97440, Note_on_c, 0, 58, 66
2, 97486, Note_off_c, 0, 58, 0
2, 97488, Note_on_c, 0, 63, 66
2, 97534, Note_off_c, 0, 63, 0
2, 97536, Note_on_c, 0, 67, 66
2, 97582, Note_off_c, 0, 67, 0
2, 97584, Note_on_c, 0, 63, 66
2, 97630, Note_off_c, 0, 63, 0
2, 97632, Note_on_c, 0, 63, 66
2, 97632, Note_on_c, 0, 79, 66
2, 97678, Note_off_c, 0, 63, 0
2, 97680, Note_on_c, 0, 75, 66
2, 97726, Note_off_c, 0, 79, 0
2, 97726, Note_off_c, 0, 75, 0
2, 97728, Note_on_c, 0, 65, 66
2, 97728, Note_on_c, 0, 80, 66
2, 97774, Note_off_c, 0, 65, 0
2, 97776, Note_on_c, 0, 75, 66
2, 97822, Note_off_c, 0, 80, 0
2, 97822, Note_off_c, 0, 75, 0
2, 97824, Note_on_c, 0, 67, 66
2, 97824, Note_on_c, 0, 82, 66
2, 97870, Note_off_c, 0, 67, 0
2, 97872, Note_on_c, 0, 75, 66
2, 97918, Note_off_c, 0, 82, 0
2, 97918, Note_off_c, 0, 75, 0
2, 97920, Note_on_c, 0, 68, 66
2, 97920, Note_on_c, 0, 84, 66
2, 97966, Note_off_c, 0, 68, 0
2, 97968, Note_on_c, 0, 75, 66
2, 98014, Note_off_c, 0, 84, 0
2, 98014, Note_off_c, 0, 75, 0
2, 98016, Note_on_c, 0, 67, 66
2, 98016, Note_on_c, 0, 83, 66
2, 98062, Note_off_c, 0, 67, 0
2, 98064, Note_on_c, 0, 75, 66
2, 98110, Note_off_c, 0, 83, 0
2, 98110, Note_off_c, 0, 75, 0
2, 98112, Note_on_c, 0, 67, 66
2, 98112, Note_on_c, 0, 84, 66
2, 98158, Note_off_c, 0, 67, 0
2, 98160, Note_on_c, 0, 75, 66
2, 98206, Note_off_c, 0, 84, 0
2, 98206, Note_off_c, 0, 75, 0
2, 98208, Note_on_c, 0, 65, 66
2, 98254, Note_off_c, 0, 65, 0
2, 98256, Note_on_c, 0, 62, 66
2, 98302, Note_off_c, 0, 62, 0
2, 98304, Note_on_c, 0, 67, 66
2, 98350, Note_off_c, 0, 67, 0
2, 98352, Note_on_c, 0, 62, 66
2, 98398, Note_off_c, 0, 62, 0
2, 98400, Note_on_c, 0, 68, 66
2, 98446, Note_off_c, 0, 68, 0
2, 98448, Note_on_c, 0, 62, 66
2, 98494, Note_off_c, 0, 62, 0
2, 98496, Note_on_c, 0, 70, 66
2, 98542, Note_off_c, 0, 70, 0
2, 98544, Note_on_c, 0, 62, 66
2, 98590, Note_off_c, 0, 62, 0
2, 98592, Note_on_c, 0, 69, 66
2, 98638, Note_off_c, 0, 69, 0
2, 98640, Note_on_c, 0, 62, 66
2, 98686, Note_off_c, 0, 62, 0
2, 98688, Note_on_c, 0, 70, 66
2, 98734, Note_off_c, 0, 70, 0
2, 98736, Note_on_c, 0, 62, 66
2, 98782, Note_off_c, 0, 62, 0
2, 98784, Note_on_c, 0, 60, 66
2, 98784, Note_on_c, 0, 75, 66
2, 98830, Note_off_c, 0, 60, 0
2, 98832, Note_on_c, 0, 72, 66
2, 98878, Note_off_c, 0, 75, 0
2, 98878, Note_off_c, 0, 72, 0
2, 98880, Note_on_c, 0, 62, 66
2, 98880, Note_on_c, 0, 77, 66
2, 98926, Note_off_c, 0, 62, 0
2, 98928, Note_on_c, 0, 72, 66
2, 98974, Note_off_c, 0, 77, 0
2, 98974, Note_off_c, 0, 72, 0
2, 98976, Note_on_c, 0, 63, 66
2, 98976, Note_on_c, 0, 79, 66
2, 99022, Note_off_c, 0, 63, 0
2, 99024, Note_on_c, 0, 72, 66
2, 99070, Note_off_c, 0, 79, 0
2, 99070, Note_off_c, 0, 72, 0
2, 99072, Note_on_c, 0, 65, 66
2, 99072, Note_on_c, 0, 80, 66
2, 99118, Note_off_c, 0, 65, 0
2, 99120, Note_on_c, 0, 72, 66
2, 99166, Note_off_c, 0, 80, 0
2, 99166, Note_off_c, 0, 72, 0
2, 99168, Note_on_c, 0, 64, 66
2, 99168, Note_on_c, 0, 79, 66
2, 99214, Note_off_c, 0, 64, 0
2, 99216, Note_on_c, 0, 72, 66
2, 99262, Note_off_c, 0, 79, 0
2, 99262, Note_off_c, 0, 72, 0
2, 99264, Note_on_c, 0, 65, 66
2, 99264, Note_on_c, 0, 80, 66
2, 99310, Note_off_c, 0, 65, 0
2, 99312, Note_on_c, 0, 72, 66
2, 99358, Note_off_c, 0, 80, 0
2, 99358, Note_off_c, 0, 72, 0
2, 99360, Note_on_c, 0, 60, 66
2, 99406, Note_off_c, 0, 60, 0
2, 99408, Note_on_c, 0, 58, 66
2, 99454, Note_off_c, 0, 58, 0
2, 99456, Note_on_c, 0, 63, 66
2, 99502, Note_off_c, 0, 63, 0
2, 99504, Note_on_c, 0, 58, 66
2, 99550, Note_off_c, 0, 58, 0
2, 99552, Note_on_c, 0, 65, 66
2, 99598, Note_off_c, 0, 65, 0
2, 99600, Note_on_c, 0, 58, 66
2, 99646, Note_off_c, 0, 58, 0
2, 99648, Note_on_c, 0, 67, 66
2, 99694, Note_off_c, 0, 67, 0
2, 99696, Note_on_c, 0, 58, 66
2, 99742, Note_off_c, 0, 58, 0
2, 99744, Note_on_c, 0, 66, 66
2, 99790, Note_off_c, 0, 66, 0
2, 99792, Note_on_c, 0, 58, 66
2, 99838, Note_off_c, 0, 58, 0
2, 99840, Note_on_c, 0, 67, 66
2, 99886, Note_off_c, 0, 67, 0
2, 99888, Note_on_c, 0, 58, 66
2, 99934, Note_off_c, 0, 58, 0
2, 99936, Note_on_c, 0, 70, 66
2, 99982, Note_off_c, 0, 70, 0
2, 99984, Note_on_c, 0, 75, 66
2, 100030, Note_off_c, 0, 75, 0
2, 100032, Note_on_c, 0, 79, 66
2, 100078, Note_off_c, 0, 79, 0
2, 100080, Note_on_c, 0, 77, 66
2, 100126, Note_off_c, 0, 77, 0
2, 100128, Note_on_c, 0, 75, 66
2, 100174, Note_off_c, 0, 75, 0
2, 100176, Note_on_c, 0, 74, 66
2, 100222, Note_off_c, 0, 74, 0
2, 100224, Note_on_c, 0, 72, 66
2, 100270, Note_off_c, 0, 72, 0
2, 100272, Note_on_c, 0, 74, 66
2, 100318, Note_off_c, 0, 74, 0
2, 100320, Note_on_c, 0, 75, 66
2, 100366, Note_off_c, 0, 75, 0
2, 100368, Note_on_c, 0, 74, 66
2, 100414, Note_off_c, 0, 74, 0
2, 100416, Note_on_c, 0, 72, 66
2, 100462, Note_off_c, 0, 72, 0
2, 100464, Note_on_c, 0, 70, 66
2, 100510, Note_off_c, 0, 70, 0
2, 100512, Note_on_c, 0, 68, 66
2, 100558, Note_off_c, 0, 68, 0
2, 100560, Note_on_c, 0, 70, 66
2, 100606, Note_off_c, 0, 70, 0
2, 100608, Note_on_c, 0, 68, 66
2, 100654, Note_off_c, 0, 68, 0
2, 100656, Note_on_c, 0, 67, 66
2, 100702, Note_off_c, 0, 67, 0
2, 100704, Note_on_c, 0, 65, 66
2, 100750, Note_off_c, 0, 65, 0
2, 100752, Note_on_c, 0, 63, 66
2, 100798, Note_off_c, 0, 63, 0
2, 100800, Note_on_c, 0, 62, 66
2, 100846, Note_off_c, 0, 62, 0
2, 100848, Note_on_c, 0, 63, 66
2, 100894, Note_off_c, 0, 63, 0
2, 100896, Note_on_c, 0, 65, 66
2, 100942, Note_off_c, 0, 65, 0
2, 100944, Note_on_c, 0, 63, 66
2, 100990, Note_off_c, 0, 63, 0
2, 100992, Note_on_c, 0, 62, 66
2, 101038, Note_off_c, 0, 62, 0
2, 101040, Note_on_c, 0, 60, 66
2, 101086, Note_off_c, 0, 60, 0
2, 101088, Note_on_c, 0, 58, 66
2, 101134, Note_off_c, 0, 58, 0
2, 101376, Note_on_c, 0, 63, 66
2, 101422, Note_off_c, 0, 63, 0
2, 101424, Note_on_c, 0, 67, 66
2, 101470, Note_off_c, 0, 67, 0
2, 101472, Note_on_c, 0, 70, 66
2, 101518, Note_off_c, 0, 70, 0
2, 101520, Note_on_c, 0, 67, 66
2, 101566, Note_off_c, 0, 67, 0
2, 101568, Note_on_c, 0, 70, 66
2, 101614, Note_off_c, 0, 70, 0
2, 101616, Note_on_c, 0, 67, 66
2, 101662, Note_off_c, 0, 67, 0
2, 101664, Note_on_c, 0, 63, 66
2, 101710, Note_off_c, 0, 63, 0
2, 101712, Note_on_c, 0, 67, 66
2, 101758, Note_off_c, 0, 67, 0
2, 101760, Note_on_c, 0, 70, 66
2, 101806, Note_off_c, 0, 70, 0
2, 101808, Note_on_c, 0, 67, 66
2, 101854, Note_off_c, 0, 67, 0
2, 101856, Note_on_c, 0, 70, 66
2, 101902, Note_off_c, 0, 70, 0
2, 101904, Note_on_c, 0, 67, 66
2, 101950, Note_off_c, 0, 67, 0
2, 101952, Note_on_c, 0, 63, 66
2, 101998, Note_off_c, 0, 63, 0
2, 102000, Note_on_c, 0, 67, 66
2, 102046, Note_off_c, 0, 67, 0
2, 102048, Note_on_c, 0, 70, 66
2, 102094, Note_off_c, 0, 70, 0
2, 102096, Note_on_c, 0, 67, 66
2, 102142, Note_off_c, 0, 67, 0
2, 102144, Note_on_c, 0, 70, 66
2, 102190, Note_off_c, 0, 70, 0
2, 102192, Note_on_c, 0, 67, 66
2, 102238, Note_off_c, 0, 67, 0
2, 102240, Note_on_c, 0, 63, 66
2, 102240, Note_on_c, 0, 82, 66
2, 102286, Note_off_c, 0, 63, 0
2, 102288, Note_on_c, 0, 67, 66
2, 102334, Note_off_c, 0, 82, 0
2, 102334, Note_off_c, 0, 67, 0
2, 102336, Note_on_c, 0, 70, 66
2, 102336, Note_on_c, 0, 82, 66
2, 102382, Note_off_c, 0, 70, 0
2, 102384, Note_on_c, 0, 67, 66
2, 102430, Note_off_c, 0, 82, 0
2, 102430, Note_off_c, 0, 67, 0
2, 102432, Note_on_c, 0, 70, 66
2, 102432, Note_on_c, 0, 82, 66
2, 102478, Note_off_c, 0, 70, 0
2, 102480, Note_on_c, 0, 67, 66
2, 102526, Note_off_c, 0, 82, 0
2, 102526, Note_off_c, 0, 67, 0
2, 102528, Note_on_c, 0, 65, 66
2, 102528, Note_on_c, 0, 82, 66
2, 102574, Note_off_c, 0, 65, 0
2, 102576, Note_on_c, 0, 68, 66
2, 102622, Note_off_c, 0, 68, 0
2, 102624, Note_on_c, 0, 70, 66
2, 102670, Note_off_c, 0, 70, 0
2, 102672, Note_on_c, 0, 68, 66
2, 102718, Note_off_c, 0, 82, 0
2, 102718, Note_off_c, 0, 68, 0
2, 102720, Note_on_c, 0, 70, 66
2, 102766, Note_off_c, 0, 70, 0
2, 102768, Note_on_c, 0, 68, 66
2, 102814, Note_off_c, 0, 68, 0
2, 102816, Note_on_c, 0, 65, 66
2, 102862, Note_off_c, 0, 65, 0
2, 102864, Note_on_c, 0, 68, 66
2, 102910, Note_off_c, 0, 68, 0
2, 102912, Note_on_c, 0, 70, 66
2, 102958, Note_off_c, 0, 70, 0
2, 102960, Note_on_c, 0, 68, 66
2, 103006, Note_off_c, 0, 68, 0
2, 103008, Note_on_c, 0, 70, 66
2, 103054, Note_off_c, 0, 70, 0
2, 103056, Note_on_c, 0, 68, 66
2, 103102, Note_off_c, 0, 68, 0
2, 103104, Note_on_c, 0, 65, 66
2, 103150, Note_off_c, 0, 65, 0
2, 103152, Note_on_c, 0, 68, 66
2, 103198, Note_off_c, 0, 68, 0
2, 103200, Note_on_c, 0, 70, 66
2, 103246, Note_off_c, 0, 70, 0
2, 103248, Note_on_c, 0, 68, 66
2, 103294, Note_off_c, 0, 68, 0
2, 103296, Note_on_c, 0, 70, 66
2, 103342, Note_off_c, 0, 70, 0
2, 103344, Note_on_c, 0, 68, 66
2, 103390, Note_off_c, 0, 68, 0
2, 103392, Note_on_c, 0, 65, 66
2, 103392, Note_on_c, 0, 82, 66
2, 103438, Note_off_c, 0, 65, 0
2, 103440, Note_on_c, 0, 68, 66
2, 103486, Note_off_c, 0, 82, 0
2, 103486, Note_off_c, 0, 68, 0
2, 103488, Note_on_c, 0, 70, 66
2, 103488, Note_on_c, 0, 82, 66
2, 103534, Note_off_c, 0, 70, 0
2, 103536, Note_on_c, 0, 68, 66
2, 103582, Note_off_c, 0, 82, 0
2, 103582, Note_off_c, 0, 68, 0
2, 103584, Note_on_c, 0, 70, 66
2, 103584, Note_on_c, 0, 82, 66
2, 103630, Note_off_c, 0, 70, 0
2, 103632, Note_on_c, 0, 68, 66
2, 103678, Note_off_c, 0, 82, 0
2, 103678, Note_off_c, 0, 68, 0
2, 103680, Note_on_c, 0, 65, 66
2, 103680, Note_on_c, 0, 82, 66
2, 103726, Note_off_c, 0, 65, 0
2, 103728, Note_on_c, 0, 67, 66
2, 103774, Note_off_c, 0, 67, 0
2, 103776, Note_on_c, 0, 70, 66
2, 103822, Note_off_c, 0, 70, 0
2, 103824, Note_on_c, 0, 67, 66
2, 103870, Note_off_c, 0, 82, 0
2, 103870, Note_off_c, 0, 67, 0
2, 103872, Note_on_c, 0, 70, 66
2, 103918, Note_off_c, 0, 70, 0
2, 103920, Note_on_c, 0, 67, 66
2, 103966, Note_off_c, 0, 67, 0
2, 103968, Note_on_c, 0, 67, 66
2, 104014, Note_off_c, 0, 67, 0
2, 104016, Note_on_c, 0, 75, 66
2, 104062, Note_off_c, 0, 75, 0
2, 104064, Note_on_c, 0, 68, 66
2, 104110, Note_off_c, 0, 68, 0
2, 104112, Note_on_c, 0, 75, 66
2, 104158, Note_off_c, 0, 75, 0
2, 104160, Note_on_c, 0, 70, 66
2, 104206, Note_off_c, 0, 70, 0
2, 104208, Note_on_c, 0, 75, 66
2, 104254, Note_off_c, 0, 75, 0
2, 104256, Note_on_c, 0, 72, 66
2, 104302, Note_off_c, 0, 72, 0
2, 104304, Note_on_c, 0, 75, 66
2, 104350, Note_off_c, 0, 75, 0
2, 104352, Note_on_c, 0, 70, 66
2, 104398, Note_off_c, 0, 70, 0
2, 104400, Note_on_c, 0, 75, 66
2, 104446, Note_off_c, 0, 75, 0
2, 104448, Note_on_c, 0, 72, 66
2, 104494, Note_off_c, 0, 72, 0
2, 104496, Note_on_c, 0, 75, 66
2, 104542, Note_off_c, 0, 75, 0
2, 104544, Note_on_c, 0, 62, 66
2, 104544, Note_on_c, 0, 77, 66
2, 104590, Note_off_c, 0, 62, 0
2, 104592, Note_on_c, 0, 74, 66
2, 104638, Note_off_c, 0, 77, 0
2, 104638, Note_off_c, 0, 74, 0
2, 104640, Note_on_c, 0, 63, 66
2, 104640, Note_on_c, 0, 79, 66
2, 104686, Note_off_c, 0, 63, 0
2, 104688, Note_on_c, 0, 74, 66
2, 104734, Note_off_c, 0, 79, 0
2, 104734, Note_off_c, 0, 74, 0
2, 104736, Note_on_c, 0, 65, 66
2, 104736, Note_on_c, 0, 80, 66
2, 104782, Note_off_c, 0, 65, 0
2, 104784, Note_on_c, 0, 74, 66
2, 104830, Note_off_c, 0, 80, 0
2, 104830, Note_off_c, 0, 74, 0
2, 104832, Note_on_c, 0, 67, 66
2, 104832, Note_on_c, 0, 82, 66
2, 104878, Note_off_c, 0, 67, 0
2, 104880, Note_on_c, 0, 74, 66
2, 104926, Note_off_c, 0, 82, 0
2, 104926, Note_off_c, 0, 74, 0
2, 104928, Note_on_c, 0, 65, 66
2, 104928, Note_on_c, 0, 81, 66
2, 104974, Note_off_c, 0, 65, 0
2, 104976, Note_on_c, 0, 74, 66
2, 105022, Note_off_c, 0, 81, 0
2, 105022, Note_off_c, 0, 74, 0
2, 105024, Note_on_c, 0, 67, 66
2, 105024, Note_on_c, 0, 82, 66
2, 105070, Note_off_c, 0, 67, 0
2, 105072, Note_on_c, 0, 74, 66
2, 105118, Note_off_c, 0, 82, 0
2, 105118, Note_off_c, 0, 74, 0
2, 105120, Note_on_c, 0, 63, 66
2, 105166, Note_off_c, 0, 63, 0
2, 105168, Note_on_c, 0, 72, 66
2, 105214, Note_off_c, 0, 72, 0
2, 105216, Note_on_c, 0, 65, 66
2, 105262, Note_off_c, 0, 65, 0
2, 105264, Note_on_c, 0, 72, 66
2, 105310, Note_off_c, 0, 72, 0
2, 105312, Note_on_c, 0, 67, 66
2, 105358, Note_off_c, 0, 67, 0
2, 105360, Note_on_c, 0, 72, 66
2, 105406, Note_off_c, 0, 72, 0
2, 105408, Note_on_c, 0, 68, 66
2, 105454, Note_off_c, 0, 68, 0
2, 105456, Note_on_c, 0, 72, 66
2, 105502, Note_off_c, 0, 72, 0
2, 105504, Note_on_c, 0, 67, 66
2, 105550, Note_off_c, 0, 67, 0
2, 105552, Note_on_c, 0, 72, 66
2, 105598, Note_off_c, 0, 72, 0
2, 105600, Note_on_c, 0, 68, 66
2, 105646, Note_off_c, 0, 68, 0
2, 105648, Note_on_c, 0, 72, 66
2, 105694, Note_off_c, 0, 72, 0
2, 105696, Note_on_c, 0, 58, 66
2, 105696, Note_on_c, 0, 74, 66
2, 105742, Note_off_c, 0, 58, 0
2, 105744, Note_on_c, 0, 70, 66
2, 105790, Note_off_c, 0, 74, 0
2, 105790, Note_off_c, 0, 70, 0
2, 105792, Note_on_c, 0, 60, 66
2, 105792, Note_on_c, 0, 75, 66
2, 105838, Note_off_c, 0, 60, 0
2, 105840, Note_on_c, 0, 70, 66
2, 105886, Note_off_c, 0, 75, 0
2, 105886, Note_off_c, 0, 70, 0
2, 105888, Note_on_c, 0, 62, 66
2, 105888, Note_on_c, 0, 77, 66
2, 105934, Note_off_c, 0, 62, 0
2, 105936, Note_on_c, 0, 70, 66
2, 105982, Note_off_c, 0, 77, 0
2, 105982, Note_off_c, 0, 70, 0
2, 105984, Note_on_c, 0, 63, 66
2, 105984, Note_on_c, 0, 79, 66
2, 106030, Note_off_c, 0, 63, 0
2, 106032, Note_on_c, 0, 70, 66
2, 106078, Note_off_c, 0, 79, 0
2, 106078, Note_off_c, 0, 70, 0
2, 106080, Note_on_c, 0, 62, 66
2, 106080, Note_on_c, 0, 78, 66
2, 106126, Note_off_c, 0, 62, 0
2, 106128, Note_on_c, 0, 70, 66
2, 106174, Note_off_c, 0, 78, 0
2, 106174, Note_off_c, 0, 70, 0
2, 106176, Note_on_c, 0, 63, 66
2, 106176, Note_on_c, 0, 79, 66
2, 106222, Note_off_c, 0, 63, 0
2, 106224, Note_on_c, 0, 70, 66
2, 106270, Note_off_c, 0, 79, 0
2, 106270, Note_off_c, 0, 70, 0
2, 106272, Note_on_c, 0, 82, 66
2, 106318, Note_off_c, 0, 82, 0
2, 106320, Note_on_c, 0, 80, 66
2, 106366, Note_off_c, 0, 80, 0
2, 106368, Note_on_c, 0, 79, 66
2, 106414, Note_off_c, 0, 79, 0
2, 106416, Note_on_c, 0, 77, 66
2, 106462, Note_off_c, 0, 77, 0
2, 106464, Note_on_c, 0, 75, 66
2, 106510, Note_off_c, 0, 75, 0
2, 106512, Note_on_c, 0, 74, 66
2, 106558, Note_off_c, 0, 74, 0
2, 106560, Note_on_c, 0, 72, 66
2, 106606, Note_off_c, 0, 72, 0
2, 106608, Note_on_c, 0, 74, 66
2, 106654, Note_off_c, 0, 74, 0
2, 106656, Note_on_c, 0, 75, 66
2, 106702, Note_off_c, 0, 75, 0
2, 106704, Note_on_c, 0, 76, 66
2, 106750, Note_off_c, 0, 76, 0
2, 106752, Note_on_c, 0, 77, 66
2, 106798, Note_off_c, 0, 77, 0
2, 106800, Note_on_c, 0, 79, 66
2, 106846, Note_off_c, 0, 79, 0
2, 106848, Note_on_c, 0, 80, 66
2, 106894, Note_off_c, 0, 80, 0
2, 106896, Note_on_c, 0, 79, 66
2, 106942, Note_off_c, 0, 79, 0
2, 106944, Note_on_c, 0, 77, 66
2, 106990, Note_off_c, 0, 77, 0
2, 106992, Note_on_c, 0, 75, 66
2, 107038, Note_off_c, 0, 75, 0
2, 107040, Note_on_c, 0, 74, 66
2, 107086, Note_off_c, 0, 74, 0
2, 107088, Note_on_c, 0, 72, 66
2, 107134, Note_off_c, 0, 72, 0
2, 107136, Note_on_c, 0, 70, 66
2, 107182, Note_off_c, 0, 70, 0
2, 107184, Note_on_c, 0, 72, 66
2, 107230, Note_off_c, 0, 72, 0
2, 107232, Note_on_c, 0, 73, 66
2, 107278, Note_off_c, 0, 73, 0
2, 107280, Note_on_c, 0, 74, 66
2, 107326, Note_off_c, 0, 74, 0
2, 107328, Note_on_c, 0, 75, 66
2, 107374, Note_off_c, 0, 75, 0
2, 107376, Note_on_c, 0, 77, 66
2, 107422, Note_off_c, 0, 77, 0
2, 107424, Note_on_c, 0, 79, 66
2, 107470, Note_off_c, 0, 79, 0
2, 107472, Note_on_c, 0, 77, 66
2, 107518, Note_off_c, 0, 77, 0
2, 107520, Note_on_c, 0, 75, 66
2, 107566, Note_off_c, 0, 75, 0
2, 107568, Note_on_c, 0, 74, 66
2, 107614, Note_off_c, 0, 74, 0
2, 107616, Note_on_c, 0, 72, 66
2, 107662, Note_off_c, 0, 72, 0
2, 107664, Note_on_c, 0, 70, 66
2, 107710, Note_off_c, 0, 70, 0
2, 107712, Note_on_c, 0, 68, 66
2, 107758, Note_off_c, 0, 68, 0
2, 107760, Note_on_c, 0, 70, 66
2, 107806, Note_off_c, 0, 70, 0
2, 107808, Note_on_c, 0, 71, 66
2, 107854, Note_off_c, 0, 71, 0
2, 107856, Note_on_c, 0, 72, 66
2, 107902, Note_off_c, 0, 72, 0
2, 107904, Note_on_c, 0, 74, 66
2, 107950, Note_off_c, 0, 74, 0
2, 107952, Note_on_c, 0, 75, 66
2, 107998, Note_off_c, 0, 75, 0
2, 108000, Note_on_c, 0, 77, 66
2, 108046, Note_off_c, 0, 77, 0
2, 108048, Note_on_c, 0, 75, 66
2, 108094, Note_off_c, 0, 75, 0
2, 108096, Note_on_c, 0, 74, 66
2, 108142, Note_off_c, 0, 74, 0
2, 108144, Note_on_c, 0, 72, 66
2, 108190, Note_off_c, 0, 72, 0
2, 108192, Note_on_c, 0, 70, 66
2, 108238, Note_off_c, 0, 70, 0
2, 108240, Note_on_c, 0, 68, 66
2, 108286, Note_off_c, 0, 68, 0
2, 108288, Note_on_c, 0, 67, 66
2, 108382, Note_off_c, 0, 67, 0
2, 108384, Note_on_c, 0, 87, 66
2, 108478, Note_off_c, 0, 87, 0
2, 108480, Note_on_c, 0, 87, 66
2, 108574, Note_off_c, 0, 87, 0
2, 108576, Note_on_c, 0, 65, 66
2, 108670, Note_off_c, 0, 65, 0
2, 108672, Note_on_c, 0, 84, 66
2, 108766, Note_off_c, 0, 84, 0
2, 108768, Note_on_c, 0, 84, 66
2, 108862, Note_off_c, 0, 84, 0
2, 108864, Note_on_c, 0, 75, 66
2, 108960, Note_on_c, 0, 67, 66
2, 108960, Note_on_c, 0, 58, 66
2, 109054, Note_off_c, 0, 67, 0
2, 109054, Note_off_c, 0, 58, 0
2, 109056, Note_on_c, 0, 67, 66
2, 109056, Note_on_c, 0, 58, 66
2, 109150, Note_off_c, 0, 75, 0
2, 109150, Note_off_c, 0, 67, 0
2, 109150, Note_off_c, 0, 58, 0
2, 109152, Note_on_c, 0, 79, 66
2, 109152, Note_on_c, 0, 68, 66
2, 109152, Note_on_c, 0, 58, 66
2, 109174, Note_off_c, 0, 79, 0
2, 109176, Note_on_c, 0, 77, 66
2, 109176, Note_on_c, 0, 74, 66
2, 109246, Note_off_c, 0, 68, 0
2, 109246, Note_off_c, 0, 58, 0
2, 109248, Note_on_c, 0, 68, 66
2, 109248, Note_on_c, 0, 58, 66
2, 109342, Note_off_c, 0, 68, 0
2, 109342, Note_off_c, 0, 58, 0
2, 109344, Note_on_c, 0, 68, 66
2, 109344, Note_on_c, 0, 58, 66
2, 109438, Note_off_c, 0, 68, 0
2, 109438, Note_off_c, 0, 58, 0
2, 109440, Note_on_c, 0, 67, 66
2, 109446, Note_off_c, 0, 74, 0
2, 109446, Note_off_c, 0, 77, 0
2, 109486, Note_off_c, 0, 67, 0
2, 109488, Note_on_c, 0, 70, 66
2, 109534, Note_off_c, 0, 70, 0
2, 109536, Note_on_c, 0, 75, 66
2, 109582, Note_off_c, 0, 75, 0
2, 109584, Note_on_c, 0, 79, 66
2, 109630, Note_off_c, 0, 79, 0
2, 109632, Note_on_c, 0, 82, 66
2, 109678, Note_off_c, 0, 82, 0
2, 109680, Note_on_c, 0, 87, 66
2, 109726, Note_off_c, 0, 87, 0
2, 109728, Note_on_c, 0, 65, 66
2, 109774, Note_off_c, 0, 65, 0
2, 109776, Note_on_c, 0, 68, 66
2, 109822, Note_off_c, 0, 68, 0
2, 109824, Note_on_c, 0, 72, 66
2, 109870, Note_off_c, 0, 72, 0
2, 109872, Note_on_c, 0, 77, 66
2, 109918, Note_off_c, 0, 77, 0
2, 109920, Note_on_c, 0, 80, 66
2, 109966, Note_off_c, 0, 80, 0
2, 109968, Note_on_c, 0, 84, 66
2, 110014, Note_off_c, 0, 84, 0
2, 110016, Note_on_c, 0, 63, 66
2, 110302, Note_off_c, 0, 63, 0
2, 110304, Note_on_c, 0, 63, 66
2, 110398, Note_off_c, 0, 63, 64
2, 110400, Note_on_c, 0, 65, 66
2, 110420, Note_off_c, 0, 65, 64
2, 110424, Note_on_c, 0, 63, 66
2, 110444, Note_off_c, 0, 63, 64
2, 110448, Note_on_c, 0, 62, 66
2, 110468, Note_off_c, 0, 62, 64
2, 110472, Note_on_c, 0, 63, 66
2, 110492, Note_off_c, 0, 63, 64
2, 110496, Note_on_c, 0, 67, 66
2, 110540, Note_off_c, 0, 67, 64
2, 110544, Note_on_c, 0, 65, 66
2, 110588, Note_off_c, 0, 65, 64
2, 110592, Note_on_c, 0, 63, 66
2, 110782, Note_off_c, 0, 63, 0
2, 112800, Note_on_c, 0, 70, 66
2, 112894, Note_off_c, 0, 70, 0
2, 112896, Note_on_c, 0, 79, 66
2, 113086, Note_off_c, 0, 79, 0
2, 113088, Note_on_c, 0, 79, 66
2, 113182, Note_off_c, 0, 79, 0
2, 113184, Note_on_c, 0, 79, 66
2, 113204, Note_off_c, 0, 79, 0
2, 113208, Note_on_c, 0, 81, 66
2, 113228, Note_off_c, 0, 81, 0
2, 113232, Note_on_c, 0, 77, 66
2, 113252, Note_off_c, 0, 77, 0
2, 113256, Note_on_c, 0, 79, 66
2, 113276, Note_off_c, 0, 79, 0
2, 113280, Note_on_c, 0, 80, 66
2, 113374, Note_off_c, 0, 80, 0
2, 113376, Note_on_c, 0, 82, 66
2, 113470, Note_off_c, 0, 82, 0
2, 113472, Note_on_c, 0, 82, 66
2, 113566, Note_off_c, 0, 82, 0
2, 113568, Note_on_c, 0, 76, 66
2, 113662, Note_off_c, 0, 76, 0
2, 113664, Note_on_c, 0, 76, 66
2, 113710, Note_off_c, 0, 76, 0
2, 113760, Note_on_c, 0, 76, 66
2, 113854, Note_off_c, 0, 76, 0
2, 113856, Note_on_c, 0, 84, 66
2, 113950, Note_off_c, 0, 84, 0
2, 113952, Note_on_c, 0, 84, 66
2, 114046, Note_off_c, 0, 84, 0
2, 114048, Note_on_c, 0, 84, 66
2, 114142, Note_off_c, 0, 84, 0
2, 114144, Note_on_c, 0, 77, 66
2, 114238, Note_off_c, 0, 77, 0
2, 114240, Note_on_c, 0, 77, 66
2, 114286, Note_off_c, 0, 77, 0
2, 116256, Note_on_c, 0, 72, 66
2, 116350, Note_off_c, 0, 72, 0
2, 116352, Note_on_c, 0, 81, 66
2, 116542, Note_off_c, 0, 81, 0
2, 116544, Note_on_c, 0, 81, 66
2, 116638, Note_off_c, 0, 81, 0
2, 116640, Note_on_c, 0, 81, 66
2, 116660, Note_off_c, 0, 81, 0
2, 116664, Note_on_c, 0, 82, 66
2, 116684, Note_off_c, 0, 82, 0
2, 116688, Note_on_c, 0, 79, 66
2, 116708, Note_off_c, 0, 79, 0
2, 116712, Note_on_c, 0, 81, 66
2, 116732, Note_off_c, 0, 81, 0
2, 116736, Note_on_c, 0, 82, 66
2, 116830, Note_off_c, 0, 82, 0
2, 116832, Note_on_c, 0, 84, 66
2, 116926, Note_off_c, 0, 84, 0
2, 116928, Note_on_c, 0, 84, 66
2, 117022, Note_off_c, 0, 84, 0
2, 117024, Note_on_c, 0, 78, 66
2, 117118, Note_off_c, 0, 78, 0
2, 117120, Note_on_c, 0, 78, 66
2, 117214, Note_off_c, 0, 78, 0
2, 117216, Note_on_c, 0, 78, 66
2, 117310, Note_off_c, 0, 78, 0
2, 117312, Note_on_c, 0, 86, 66
2, 117406, Note_off_c, 0, 86, 0
2, 117408, Note_on_c, 0, 86, 66
2, 117502, Note_off_c, 0, 86, 0
2, 117504, Note_on_c, 0, 82, 66
2, 117550, Note_off_c, 0, 82, 0
2, 117552, Note_on_c, 0, 84, 66
2, 117598, Note_off_c, 0, 84, 0
2, 117600, Note_on_c, 0, 86, 66
2, 117646, Note_off_c, 0, 86, 0
2, 117648, Note_on_c, 0, 84, 66
2, 117694, Note_off_c, 0, 84, 0
2, 117696, Note_on_c, 0, 82, 66
2, 117742, Note_off_c, 0, 82, 0
2, 117744, Note_on_c, 0, 81, 66
2, 117790, Note_off_c, 0, 81, 0
2, 117792, Note_on_c, 0, 79, 66
2, 117838, Note_off_c, 0, 79, 0
2, 117840, Note_on_c, 0, 81, 66
2, 117886, Note_off_c, 0, 81, 0
2, 117888, Note_on_c, 0, 82, 66
2, 117934, Note_off_c, 0, 82, 0
2, 117936, Note_on_c, 0, 81, 66
2, 117982, Note_off_c, 0, 81, 0
2, 117984, Note_on_c, 0, 79, 66
2, 118030, Note_off_c, 0, 79, 0
2, 118032, Note_on_c, 0, 77, 66
2, 118078, Note_off_c, 0, 77, 0
2, 118080, Note_on_c, 0, 76, 66
2, 118126, Note_off_c, 0, 76, 0
2, 118128, Note_on_c, 0, 77, 66
2, 118174, Note_off_c, 0, 77, 0
2, 118176, Note_on_c, 0, 79, 66
2, 118222, Note_off_c, 0, 79, 0
2, 118224, Note_on_c, 0, 77, 66
2, 118270, Note_off_c, 0, 77, 0
2, 118272, Note_on_c, 0, 76, 66
2, 118318, Note_off_c, 0, 76, 0
2, 118320, Note_on_c, 0, 74, 66
2, 118366, Note_off_c, 0, 74, 0
2, 118368, Note_on_c, 0, 76, 66
2, 118414, Note_off_c, 0, 76, 0
2, 118416, Note_on_c, 0, 79, 66
2, 118462, Note_off_c, 0, 79, 0
2, 118464, Note_on_c, 0, 84, 66
2, 118510, Note_off_c, 0, 84, 0
2, 118512, Note_on_c, 0, 82, 66
2, 118558, Note_off_c, 0, 82, 0
2, 118560, Note_on_c, 0, 80, 66
2, 118606, Note_off_c, 0, 80, 0
2, 118608, Note_on_c, 0, 79, 66
2, 118654, Note_off_c, 0, 79, 0
2, 118656, Note_on_c, 0, 80, 66
2, 118702, Note_off_c, 0, 80, 0
2, 118704, Note_on_c, 0, 82, 66
2, 118750, Note_off_c, 0, 82, 0
2, 118752, Note_on_c, 0, 84, 66
2, 118798, Note_off_c, 0, 84, 0
2, 118800, Note_on_c, 0, 82, 66
2, 118846, Note_off_c, 0, 82, 0
2, 118848, Note_on_c, 0, 80, 66
2, 118894, Note_off_c, 0, 80, 0
2, 118896, Note_on_c, 0, 79, 66
2, 118942, Note_off_c, 0, 79, 0
2, 118944, Note_on_c, 0, 77, 66
2, 118990, Note_off_c, 0, 77, 0
2, 118992, Note_on_c, 0, 79, 66
2, 119038, Note_off_c, 0, 79, 0
2, 119040, Note_on_c, 0, 80, 66
2, 119086, Note_off_c, 0, 80, 0
2, 119088, Note_on_c, 0, 79, 66
2, 119134, Note_off_c, 0, 79, 0
2, 119136, Note_on_c, 0, 77, 66
2, 119182, Note_off_c, 0, 77, 0
2, 119184, Note_on_c, 0, 75, 66
2, 119230, Note_off_c, 0, 75, 0
2, 119232, Note_on_c, 0, 74, 66
2, 119232, Note_on_c, 0, 74, 66
2, 119278, Note_off_c, 0, 74, 0
2, 119278, Note_off_c, 0, 74, 0
2, 119280, Note_on_c, 0, 75, 66
2, 119326, Note_off_c, 0, 75, 0
2, 119328, Note_on_c, 0, 77, 66
2, 119374, Note_off_c, 0, 77, 0
2, 119376, Note_on_c, 0, 75, 66
2, 119422, Note_off_c, 0, 75, 0
2, 119424, Note_on_c, 0, 74, 66
2, 119470, Note_off_c, 0, 74, 0
2, 119472, Note_on_c, 0, 72, 66
2, 119518, Note_off_c, 0, 72, 0
2, 119520, Note_on_c, 0, 74, 66
2, 119566, Note_off_c, 0, 74, 0
2, 119568, Note_on_c, 0, 77, 66
2, 119614, Note_off_c, 0, 77, 0
2, 119616, Note_on_c, 0, 82, 66
2, 119662, Note_off_c, 0, 82, 0
2, 119664, Note_on_c, 0, 80, 66
2, 119710, Note_off_c, 0, 80, 0
2, 119712, Note_on_c, 0, 79, 66
2, 119758, Note_off_c, 0, 79, 0
2, 119760, Note_on_c, 0, 77, 66
2, 119806, Note_off_c, 0, 77, 0
2, 119808, Note_on_c, 0, 79, 66
2, 119808, Note_on_c, 0, 63, 66
2, 119854, Note_off_c, 0, 79, 0
2, 119854, Note_off_c, 0, 63, 0
2, 119856, Note_on_c, 0, 82, 66
2, 119856, Note_on_c, 0, 67, 66
2, 119902, Note_off_c, 0, 82, 0
2, 119902, Note_off_c, 0, 67, 0
2, 119904, Note_on_c, 0, 80, 66
2, 119904, Note_on_c, 0, 65, 66
2, 119950, Note_off_c, 0, 80, 0
2, 119950, Note_off_c, 0, 65, 0
2, 119952, Note_on_c, 0, 82, 66
2, 119952, Note_on_c, 0, 67, 66
2, 119998, Note_off_c, 0, 82, 0
2, 119998, Note_off_c, 0, 67, 0
2, 120000, Note_on_c, 0, 79, 66
2, 120000, Note_on_c, 0, 63, 66
2, 120046, Note_off_c, 0, 79, 0
2, 120046, Note_off_c, 0, 63, 0
2, 120048, Note_on_c, 0, 82, 66
2, 120048, Note_on_c, 0, 67, 66
2, 120094, Note_off_c, 0, 82, 0
2, 120094, Note_off_c, 0, 67, 0
2, 120096, Note_on_c, 0, 75, 66
2, 120096, Note_on_c, 0, 60, 66
2, 120142, Note_off_c, 0, 75, 0
2, 120142, Note_off_c, 0, 60, 0
2, 120144, Note_on_c, 0, 84, 66
2, 120144, Note_on_c, 0, 68, 66
2, 120190, Note_off_c, 0, 84, 0
2, 120190, Note_off_c, 0, 68, 0
2, 120192, Note_on_c, 0, 82, 66
2, 120192, Note_on_c, 0, 67, 66
2, 120238, Note_off_c, 0, 82, 0
2, 120238, Note_off_c, 0, 67, 0
2, 120240, Note_on_c, 0, 84, 66
2, 120240, Note_on_c, 0, 68, 66
2, 120286, Note_off_c, 0, 84, 0
2, 120286, Note_off_c, 0, 68, 0
2, 120288, Note_on_c, 0, 75, 66
2, 120288, Note_on_c, 0, 60, 66
2, 120334, Note_off_c, 0, 75, 0
2, 120334, Note_off_c, 0, 60, 0
2, 120336, Note_on_c, 0, 84, 66
2, 120336, Note_on_c, 0, 68, 66
2, 120382, Note_off_c, 0, 84, 0
2, 120382, Note_off_c, 0, 68, 0
2, 120384, Note_on_c, 0, 77, 66
2, 120384, Note_on_c, 0, 62, 66
2, 120430, Note_off_c, 0, 77, 0
2, 120430, Note_off_c, 0, 62, 0
2, 120432, Note_on_c, 0, 80, 66
2, 120432, Note_on_c, 0, 65, 66
2, 120478, Note_off_c, 0, 80, 0
2, 120478, Note_off_c, 0, 65, 0
2, 120480, Note_on_c, 0, 79, 66
2, 120480, Note_on_c, 0, 63, 66
2, 120526, Note_off_c, 0, 79, 0
2, 120526, Note_off_c, 0, 63, 0
2, 120528, Note_on_c, 0, 80, 66
2, 120528, Note_on_c, 0, 65, 66
2, 120574, Note_off_c, 0, 80, 0
2, 120574, Note_off_c, 0, 65, 0
2, 120576, Note_on_c, 0, 77, 66
2, 120576, Note_on_c, 0, 62, 66
2, 120622, Note_off_c, 0, 77, 0
2, 120622, Note_off_c, 0, 62, 0
2, 120624, Note_on_c, 0, 80, 66
2, 120624, Note_on_c, 0, 65, 66
2, 120670, Note_off_c, 0, 80, 0
2, 120670, Note_off_c, 0, 65, 0
2, 120672, Note_on_c, 0, 59, 66
2, 120672, Note_on_c, 0, 74, 66
2, 120718, Note_off_c, 0, 59, 0
2, 120718, Note_off_c, 0, 74, 0
2, 120720, Note_on_c, 0, 83, 66
2, 120720, Note_on_c, 0, 67, 66
2, 120766, Note_off_c, 0, 83, 0
2, 120766, Note_off_c, 0, 67, 0
2, 120768, Note_on_c, 0, 81, 66
2, 120768, Note_on_c, 0, 65, 66
2, 120814, Note_off_c, 0, 81, 0
2, 120814, Note_off_c, 0, 65, 0
2, 120816, Note_on_c, 0, 83, 66
2, 120816, Note_on_c, 0, 67, 66
2, 120862, Note_off_c, 0, 83, 0
2, 120862, Note_off_c, 0, 67, 0
2, 120864, Note_on_c, 0, 59, 66
2, 120864, Note_on_c, 0, 74, 66
2, 120910, Note_off_c, 0, 59, 0
2, 120910, Note_off_c, 0, 74, 0
2, 120912, Note_on_c, 0, 83, 66
2, 120912, Note_on_c, 0, 67, 66
2, 120956, Note_off_c, 0, 67, 0
2, 120958, Note_off_c, 0, 83, 0
2, 120960, Note_on_c, 0, 84, 67
2, 120960, Note_on_c, 0, 75, 67
2, 121006, Note_off_c, 0, 75, 0
2, 121008, Note_on_c, 0, 77, 68
2, 121054, Note_off_c, 0, 77, 0
2, 121056, Note_on_c, 0, 79, 69
2, 121102, Note_off_c, 0, 79, 0
2, 121104, Note_on_c, 0, 77, 70
2, 121150, Note_off_c, 0, 84, 0
2, 121150, Note_off_c, 0, 77, 0
2, 121152, Note_on_c, 0, 84, 71
2, 121152, Note_on_c, 0, 75, 71
2, 121198, Note_off_c, 0, 75, 0
2, 121200, Note_on_c, 0, 74, 73
2, 121246, Note_off_c, 0, 84, 0
2, 121246, Note_off_c, 0, 74, 0
2, 121248, Note_on_c, 0, 84, 74
2, 121248, Note_on_c, 0, 72, 74
2, 121294, Note_off_c, 0, 72, 0
2, 121296, Note_on_c, 0, 74, 75
2, 121342, Note_off_c, 0, 84, 0
2, 121342, Note_off_c, 0, 74, 0
2, 121344, Note_on_c, 0, 86, 76
2, 121344, Note_on_c, 0, 75, 76
2, 121390, Note_off_c, 0, 75, 0
2, 121392, Note_on_c, 0, 74, 78
2, 121436, Note_off_c, 0, 86, 0
2, 121438, Note_off_c, 0, 74, 0
2, 121440, Note_on_c, 0, 86, 79
2, 121440, Note_on_c, 0, 72, 79
2, 121486, Note_off_c, 0, 72, 0
2, 121488, Note_on_c, 0, 70, 80
2, 121534, Note_off_c, 0, 86, 0
2, 121534, Note_off_c, 0, 70, 0
2, 121536, Note_on_c, 0, 87, 81
2, 121536, Note_on_c, 0, 69, 81
2, 121582, Note_off_c, 0, 69, 0
2, 121584, Note_on_c, 0, 70, 66
2, 121630, Note_off_c, 0, 87, 0
2, 121630, Note_off_c, 0, 70, 0
2, 121632, Note_on_c, 0, 77, 66
2, 121632, Note_on_c, 0, 72, 66
2, 121678, Note_off_c, 0, 72, 0
2, 121680, Note_on_c, 0, 70, 66
2, 121726, Note_off_c, 0, 77, 0
2, 121726, Note_off_c, 0, 70, 0
2, 121728, Note_on_c, 0, 77, 66
2, 121728, Note_on_c, 0, 69, 66
2, 121774, Note_off_c, 0, 69, 0
2, 121776, Note_on_c, 0, 67, 66
2, 121822, Note_off_c, 0, 77, 0
2, 121822, Note_off_c, 0, 67, 0
2, 121824, Note_on_c, 0, 77, 66
2, 121832, Note_on_c, 0, 65, 66
2, 121872, Note_on_c, 0, 67, 66
2, 121878, Note_off_c, 0, 65, 0
2, 121918, Note_off_c, 0, 67, 0
2, 121920, Note_on_c, 0, 69, 66
2, 121966, Note_off_c, 0, 69, 0
2, 121968, Note_on_c, 0, 67, 66
2, 122014, Note_off_c, 0, 77, 0
2, 122014, Note_off_c, 0, 67, 0
2, 122016, Note_on_c, 0, 77, 66
2, 122016, Note_on_c, 0, 65, 66
2, 122062, Note_off_c, 0, 65, 0
2, 122064, Note_on_c, 0, 63, 66
2, 122110, Note_off_c, 0, 77, 0
2, 122110, Note_off_c, 0, 63, 0
2, 122112, Note_on_c, 0, 82, 71
2, 122112, Note_on_c, 0, 62, 66
2, 122158, Note_off_c, 0, 62, 0
2, 122160, Note_on_c, 0, 63, 66
2, 122206, Note_off_c, 0, 63, 0
2, 122208, Note_on_c, 0, 65, 66
2, 122254, Note_off_c, 0, 65, 0
2, 122256, Note_on_c, 0, 63, 66
2, 122302, Note_off_c, 0, 82, 0
2, 122302, Note_off_c, 0, 63, 0
2, 122304, Note_on_c, 0, 82, 71
2, 122304, Note_on_c, 0, 62, 66
2, 122350, Note_off_c, 0, 62, 0
2, 122352, Note_on_c, 0, 60, 66
2, 122398, Note_off_c, 0, 82, 0
2, 122398, Note_off_c, 0, 60, 0
2, 122400, Note_on_c, 0, 82, 71
2, 122494, Note_off_c, 0, 82, 0
2, 122496, Note_on_c, 0, 84, 71
2, 122590, Note_off_c, 0, 84, 0
2, 122592, Note_on_c, 0, 86, 71
2, 122686, Note_off_c, 0, 86, 0
2, 122688, Note_on_c, 0, 86, 71
2, 122782, Note_off_c, 0, 86, 0
2, 122784, Note_on_c, 0, 75, 66
2, 122878, Note_off_c, 0, 75, 0
2, 122880, Note_on_c, 0, 75, 66
2, 122974, Note_off_c, 0, 75, 0
2, 122976, Note_on_c, 0, 75, 66
2, 123166, Note_off_c, 0, 75, 0
2, 123168, Note_on_c, 0, 75, 66
2, 123262, Note_off_c, 0, 75, 0
2, 123264, Note_on_c, 0, 81, 71
2, 123454, Note_off_c, 0, 81, 0
2, 123456, Note_on_c, 0, 81, 71
2, 123550, Note_off_c, 0, 81, 0
2, 123552, Note_on_c, 0, 81, 71
2, 123646, Note_off_c, 0, 81, 0
2, 123648, Note_on_c, 0, 82, 71
2, 123742, Note_off_c, 0, 82, 0
2, 123744, Note_on_c, 0, 84, 71
2, 123840, Note_off_c, 0, 84, 0
2, 123840, Note_on_c, 0, 84, 71
2, 123934, Note_off_c, 0, 84, 0
2, 123936, Note_on_c, 0, 74, 66
2, 124030, Note_off_c, 0, 74, 0
2, 124032, Note_on_c, 0, 74, 66
2, 124126, Note_off_c, 0, 74, 0
2, 124128, Note_on_c, 0, 74, 66
2, 124318, Note_off_c, 0, 74, 0
2, 124320, Note_on_c, 0, 74, 66
2, 124414, Note_off_c, 0, 74, 0
2, 124416, Note_on_c, 0, 79, 66
2, 124462, Note_off_c, 0, 79, 0
2, 124464, Note_on_c, 0, 74, 66
2, 124510, Note_off_c, 0, 74, 0
2, 124512, Note_on_c, 0, 67, 66
2, 124558, Note_off_c, 0, 67, 0
2, 124560, Note_on_c, 0, 74, 66
2, 124606, Note_off_c, 0, 74, 0
2, 124608, Note_on_c, 0, 79, 66
2, 124654, Note_off_c, 0, 79, 0
2, 124656, Note_on_c, 0, 74, 66
2, 124702, Note_off_c, 0, 74, 0
2, 124704, Note_on_c, 0, 79, 66
2, 124750, Note_off_c, 0, 79, 0
2, 124752, Note_on_c, 0, 74, 66
2, 124798, Note_off_c, 0, 74, 0
2, 124800, Note_on_c, 0, 79, 66
2, 124846, Note_off_c, 0, 79, 0
2, 124848, Note_on_c, 0, 74, 66
2, 124894, Note_off_c, 0, 74, 0
2, 124896, Note_on_c, 0, 79, 66
2, 124942, Note_off_c, 0, 79, 0
2, 124944, Note_on_c, 0, 74, 66
2, 124990, Note_off_c, 0, 74, 0
2, 124992, Note_on_c, 0, 80, 66
2, 125038, Note_off_c, 0, 80, 0
2, 125040, Note_on_c, 0, 74, 66
2, 125086, Note_off_c, 0, 74, 0
2, 125088, Note_on_c, 0, 68, 66
2, 125134, Note_off_c, 0, 68, 0
2, 125136, Note_on_c, 0, 74, 66
2, 125182, Note_off_c, 0, 74, 0
2, 125184, Note_on_c, 0, 80, 66
2, 125230, Note_off_c, 0, 80, 0
2, 125232, Note_on_c, 0, 74, 66
2, 125278, Note_off_c, 0, 74, 0
2, 125280, Note_on_c, 0, 80, 66
2, 125326, Note_off_c, 0, 80, 0
2, 125328, Note_on_c, 0, 74, 66
2, 125374, Note_off_c, 0, 74, 0
2, 125376, Note_on_c, 0, 80, 66
2, 125422, Note_off_c, 0, 80, 0
2, 125424, Note_on_c, 0, 74, 66
2, 125470, Note_off_c, 0, 74, 0
2, 125472, Note_on_c, 0, 80, 66
2, 125518, Note_off_c, 0, 80, 0
2, 125520, Note_on_c, 0, 74, 66
2, 125566, Note_off_c, 0, 74, 0
2, 125568, Note_on_c, 0, 81, 66
2, 125614, Note_off_c, 0, 81, 0
2, 125616, Note_on_c, 0, 76, 66
2, 125662, Note_off_c, 0, 76, 0
2, 125664, Note_on_c, 0, 73, 66
2, 125710, Note_off_c, 0, 73, 0
2, 125712, Note_on_c, 0, 69, 66
2, 125758, Note_off_c, 0, 69, 0
2, 125760, Note_on_c, 0, 73, 66
2, 125806, Note_off_c, 0, 73, 0
2, 125808, Note_on_c, 0, 76, 66
2, 125854, Note_off_c, 0, 76, 0
2, 125856, Note_on_c, 0, 81, 66
2, 125902, Note_off_c, 0, 81, 0
2, 125904, Note_on_c, 0, 69, 66
2, 125950, Note_off_c, 0, 69, 0
2, 125952, Note_on_c, 0, 80, 66
2, 125998, Note_off_c, 0, 80, 0
2, 126000, Note_on_c, 0, 69, 66
2, 126046, Note_off_c, 0, 69, 0
2, 126048, Note_on_c, 0, 79, 66
2, 126094, Note_off_c, 0, 79, 0
2, 126096, Note_on_c, 0, 69, 66
2, 126142, Note_off_c, 0, 69, 0
2, 126144, Note_on_c, 0, 77, 66
2, 126190, Note_off_c, 0, 77, 0
2, 126192, Note_on_c, 0, 69, 66
2, 126238, Note_off_c, 0, 69, 0
2, 126240, Note_on_c, 0, 76, 66
2, 126286, Note_off_c, 0, 76, 0
2, 126288, Note_on_c, 0, 69, 66
2, 126334, Note_off_c, 0, 69, 0
2, 126336, Note_on_c, 0, 77, 66
2, 126382, Note_off_c, 0, 77, 0
2, 126384, Note_on_c, 0, 69, 66
2, 126430, Note_off_c, 0, 69, 0
2, 126432, Note_on_c, 0, 78, 66
2, 126478, Note_off_c, 0, 78, 0
2, 126480, Note_on_c, 0, 69, 66
2, 126526, Note_off_c, 0, 69, 0
2, 126528, Note_on_c, 0, 79, 66
2, 126574, Note_off_c, 0, 79, 0
2, 126576, Note_on_c, 0, 69, 66
2, 126622, Note_off_c, 0, 69, 0
2, 126624, Note_on_c, 0, 80, 66
2, 126670, Note_off_c, 0, 80, 0
2, 126672, Note_on_c, 0, 69, 66
2, 126718, Note_off_c, 0, 69, 0
2, 126720, Note_on_c, 0, 81, 66
2, 126766, Note_off_c, 0, 81, 0
2, 126768, Note_on_c, 0, 76, 66
2, 126814, Note_off_c, 0, 76, 0
2, 126816, Note_on_c, 0, 73, 66
2, 126862, Note_off_c, 0, 73, 0
2, 126864, Note_on_c, 0, 69, 66
2, 126910, Note_off_c, 0, 69, 0
2, 126912, Note_on_c, 0, 73, 66
2, 126958, Note_off_c, 0, 73, 0
2, 126960, Note_on_c, 0, 76, 66
2, 127006, Note_off_c, 0, 76, 0
2, 127008, Note_on_c, 0, 81, 66
2, 127054, Note_off_c, 0, 81, 0
2, 127056, Note_on_c, 0, 69, 66
2, 127102, Note_off_c, 0, 69, 0
2, 127104, Note_on_c, 0, 80, 66
2, 127150, Note_off_c, 0, 80, 0
2, 127152, Note_on_c, 0, 69, 66
2, 127198, Note_off_c, 0, 69, 0
2, 127200, Note_on_c, 0, 79, 66
2, 127246, Note_off_c, 0, 79, 0
2, 127248, Note_on_c, 0, 69, 66
2, 127294, Note_off_c, 0, 69, 0
2, 127296, Note_on_c, 0, 77, 66
2, 127342, Note_off_c, 0, 77, 0
2, 127344, Note_on_c, 0, 69, 66
2, 127390, Note_off_c, 0, 69, 0
2, 127392, Note_on_c, 0, 76, 66
2, 127438, Note_off_c, 0, 76, 0
2, 127440, Note_on_c, 0, 69, 66
2, 127486, Note_off_c, 0, 69, 0
2, 127488, Note_on_c, 0, 77, 66
2, 127534, Note_off_c, 0, 77, 0
2, 127536, Note_on_c, 0, 68, 66
2, 127582, Note_off_c, 0, 68, 0
2, 127584, Note_on_c, 0, 78, 66
2, 127630, Note_off_c, 0, 78, 0
2, 127632, Note_on_c, 0, 69, 66
2, 127678, Note_off_c, 0, 69, 0
2, 127680, Note_on_c, 0, 79, 66
2, 127726, Note_off_c, 0, 79, 0
2, 127728, Note_on_c, 0, 69, 66
2, 127774, Note_off_c, 0, 69, 0
2, 127776, Note_on_c, 0, 80, 66
2, 127822, Note_off_c, 0, 80, 0
2, 127824, Note_on_c, 0, 69, 66
2, 127870, Note_off_c, 0, 69, 0
2, 127872, Note_on_c, 0, 81, 66
2, 128062, Note_off_c, 0, 81, 0
2, 128064, Note_on_c, 0, 81, 67
2, 128158, Note_off_c, 0, 81, 0
2, 128160, Note_on_c, 0, 82, 71
2, 128180, Note_off_c, 0, 82, 0
2, 128184, Note_on_c, 0, 83, 71
2, 128204, Note_off_c, 0, 83, 0
2, 128208, Note_on_c, 0, 79, 71
2, 128228, Note_off_c, 0, 79, 0
2, 128232, Note_on_c, 0, 82, 71
2, 128252, Note_off_c, 0, 82, 0
2, 128256, Note_on_c, 0, 83, 68
2, 128350, Note_off_c, 0, 83, 0
2, 128352, Note_on_c, 0, 85, 68
2, 128448, Note_off_c, 0, 85, 0
2, 128448, Note_on_c, 0, 85, 68
2, 128542, Note_off_c, 0, 85, 0
2, 128544, Note_on_c, 0, 76, 66
2, 128638, Note_off_c, 0, 76, 0
2, 128640, Note_on_c, 0, 76, 66
2, 128734, Note_off_c, 0, 76, 0
2, 128736, Note_on_c, 0, 76, 66
2, 128926, Note_off_c, 0, 76, 0
2, 130080, Note_on_c, 0, 76, 66
2, 130174, Note_off_c, 0, 76, 0
2, 130176, Note_on_c, 0, 81, 66
2, 130366, Note_off_c, 0, 81, 0
2, 130368, Note_on_c, 0, 81, 68
2, 130462, Note_off_c, 0, 81, 0
2, 130472, Note_on_c, 0, 81, 71
2, 130488, Note_on_c, 0, 82, 71
2, 130492, Note_off_c, 0, 81, 0
2, 130508, Note_off_c, 0, 82, 0
2, 130512, Note_on_c, 0, 79, 71
2, 130532, Note_off_c, 0, 79, 0
2, 130536, Note_on_c, 0, 81, 71
2, 130556, Note_off_c, 0, 81, 0
2, 130560, Note_on_c, 0, 82, 68
2, 130654, Note_off_c, 0, 82, 0
2, 130656, Note_on_c, 0, 84, 68
2, 130750, Note_off_c, 0, 84, 0
2, 130752, Note_on_c, 0, 84, 68
2, 130846, Note_off_c, 0, 84, 0
2, 130848, Note_on_c, 0, 78, 67
2, 130942, Note_off_c, 0, 78, 0
2, 130944, Note_on_c, 0, 78, 67
2, 131038, Note_off_c, 0, 78, 0
2, 131040, Note_on_c, 0, 78, 67
2, 131230, Note_off_c, 0, 78, 0
2, 132480, Note_on_c, 0, 79, 71
2, 132574, Note_off_c, 0, 79, 0
2, 132576, Note_on_c, 0, 72, 66
2, 132670, Note_off_c, 0, 72, 0
2, 132672, Note_on_c, 0, 72, 66
2, 132766, Note_off_c, 0, 72, 0
2, 132768, Note_on_c, 0, 72, 66
2, 132958, Note_off_c, 0, 72, 0
2, 133632, Note_on_c, 0, 87, 74
2, 133726, Note_off_c, 0, 87, 0
2, 133728, Note_on_c, 0, 81, 66
2, 133822, Note_off_c, 0, 81, 0
2, 133824, Note_on_c, 0, 81, 66
2, 133918, Note_off_c, 0, 81, 0
2, 133920, Note_on_c, 0, 81, 66
2, 134110, Note_off_c, 0, 81, 0
2, 134688, Note_on_c, 0, 77, 66
2, 134782, Note_off_c, 0, 77, 0
2, 134784, Note_on_c, 0, 82, 66
2, 134974, Note_off_c, 0, 82, 0
2, 134976, Note_on_c, 0, 82, 68
2, 135070, Note_off_c, 0, 82, 0
2, 135072, Note_on_c, 0, 82, 71
2, 135092, Note_off_c, 0, 82, 0
2, 135096, Note_on_c, 0, 84, 71
2, 135116, Note_off_c, 0, 84, 0
2, 135120, Note_on_c, 0, 81, 71
2, 135140, Note_off_c, 0, 81, 0
2, 135144, Note_on_c, 0, 82, 71
2, 135164, Note_off_c, 0, 82, 0
2, 135168, Note_on_c, 0, 84, 68
2, 135262, Note_off_c, 0, 84, 0
2, 135264, Note_on_c, 0, 86, 68
2, 135358, Note_off_c, 0, 86, 0
2, 135360, Note_on_c, 0, 86, 68
2, 135454, Note_off_c, 0, 86, 0
2, 135456, Note_on_c, 0, 77, 66
2, 135550, Note_off_c, 0, 77, 0
2, 135552, Note_on_c, 0, 77, 66
2, 135646, Note_off_c, 0, 77, 0
2, 135648, Note_on_c, 0, 77, 66
2, 135838, Note_off_c, 0, 77, 0
2, 135840, Note_on_c, 0, 78, 66
2, 135934, Note_off_c, 0, 78, 0
2, 135936, Note_on_c, 0, 79, 66
2, 136126, Note_off_c, 0, 79, 0
2, 136128, Note_on_c, 0, 79, 68
2, 136222, Note_off_c, 0, 79, 0
2, 136224, Note_on_c, 0, 79, 71
2, 136244, Note_off_c, 0, 79, 0
2, 136248, Note_on_c, 0, 82, 71
2, 136268, Note_off_c, 0, 82, 0
2, 136272, Note_on_c, 0, 77, 71
2, 136292, Note_off_c, 0, 77, 0
2, 136296, Note_on_c, 0, 79, 71
2, 136316, Note_off_c, 0, 79, 0
2, 136320, Note_on_c, 0, 81, 68
2, 136414, Note_off_c, 0, 81, 0
2, 136416, Note_on_c, 0, 82, 68
2, 136510, Note_off_c, 0, 82, 0
2, 136512, Note_on_c, 0, 82, 68
2, 136606, Note_off_c, 0, 82, 0
2, 136608, Note_on_c, 0, 74, 66
2, 136702, Note_off_c, 0, 74, 0
2, 136704, Note_on_c, 0, 74, 66
2, 136798, Note_off_c, 0, 74, 0
2, 136800, Note_on_c, 0, 74, 66
2, 136990, Note_off_c, 0, 74, 0
2, 136992, Note_on_c, 0, 74, 66
2, 137086, Note_off_c, 0, 74, 0
2, 137088, Note_on_c, 0, 75, 66
2, 137278, Note_off_c, 0, 75, 0
2, 137280, Note_on_c, 0, 75, 68
2, 137374, Note_off_c, 0, 75, 0
2, 137376, Note_on_c, 0, 75, 71
2, 137396, Note_off_c, 0, 75, 0
2, 137400, Note_on_c, 0, 77, 71
2, 137420, Note_off_c, 0, 77, 0
2, 137424, Note_on_c, 0, 74, 71
2, 137444, Note_off_c, 0, 74, 0
2, 137448, Note_on_c, 0, 75, 71
2, 137468, Note_off_c, 0, 75, 0
2, 137472, Note_on_c, 0, 77, 68
2, 137566, Note_off_c, 0, 77, 0
2, 137568, Note_on_c, 0, 79, 68
2, 137662, Note_off_c, 0, 79, 0
2, 137664, Note_on_c, 0, 79, 68
2, 137758, Note_off_c, 0, 79, 0
2, 137760, Note_on_c, 0, 72, 66
2, 137854, Note_off_c, 0, 72, 0
2, 137856, Note_on_c, 0, 72, 66
2, 137950, Note_off_c, 0, 72, 0
2, 137952, Note_on_c, 0, 72, 66
2, 138142, Note_off_c, 0, 72, 0
2, 138144, Note_on_c, 0, 75, 66
2, 138238, Note_off_c, 0, 75, 0
2, 138240, Note_on_c, 0, 74, 66
2, 138334, Note_off_c, 0, 74, 0
2, 138336, Note_on_c, 0, 77, 66
2, 138430, Note_off_c, 0, 77, 0
2, 138432, Note_on_c, 0, 70, 66
2, 138526, Note_off_c, 0, 70, 0
2, 138528, Note_on_c, 0, 67, 66
2, 138622, Note_off_c, 0, 67, 0
2, 138624, Note_on_c, 0, 72, 66
2, 138718, Note_off_c, 0, 72, 0
2, 138720, Note_on_c, 0, 77, 66
2, 138740, Note_off_c, 0, 77, 0
2, 138744, Note_on_c, 0, 75, 66
2, 138814, Note_off_c, 0, 75, 0
2, 138816, Note_on_c, 0, 74, 66
2, 139102, Note_off_c, 0, 74, 0
2, 139104, Note_on_c, 0, 72, 66
2, 139150, Note_off_c, 0, 72, 0
2, 144000, Note_on_c, 0, 69, 67
2, 144046, Note_off_c, 0, 69, 0
2, 144048, Note_on_c, 0, 72, 69
2, 144094, Note_off_c, 0, 72, 0
2, 144096, Note_on_c, 0, 75, 71
2, 144142, Note_off_c, 0, 75, 0
2, 144144, Note_on_c, 0, 77, 74
2, 144190, Note_off_c, 0, 77, 0
2, 144192, Note_on_c, 0, 81, 76
2, 144238, Note_off_c, 0, 81, 0
2, 144240, Note_on_c, 0, 84, 78
2, 144286, Note_off_c, 0, 84, 0
2, 144288, Note_on_c, 0, 87, 81
2, 144334, Note_off_c, 0, 87, 0
2, 144336, Note_on_c, 0, 84, 79
2, 144382, Note_off_c, 0, 84, 0
2, 144384, Note_on_c, 0, 81, 77
2, 144430, Note_off_c, 0, 81, 0
2, 144432, Note_on_c, 0, 77, 75
2, 144478, Note_off_c, 0, 77, 0
2, 144480, Note_on_c, 0, 75, 73
2, 144526, Note_off_c, 0, 75, 0
2, 144528, Note_on_c, 0, 72, 71
2, 144574, Note_off_c, 0, 72, 0
2, 144576, Note_on_c, 0, 70, 69
2, 144766, Note_off_c, 0, 70, 0
2, 145152, Note_on_c, 0, 66, 67
2, 145198, Note_off_c, 0, 66, 0
2, 145200, Note_on_c, 0, 69, 69
2, 145246, Note_off_c, 0, 69, 0
2, 145248, Note_on_c, 0, 72, 71
2, 145294, Note_off_c, 0, 72, 0
2, 145296, Note_on_c, 0, 74, 74
2, 145342, Note_off_c, 0, 74, 0
2, 145344, Note_on_c, 0, 78, 76
2, 145390, Note_off_c, 0, 78, 0
2, 145392, Note_on_c, 0, 81, 78
2, 145438, Note_off_c, 0, 81, 0
2, 145440, Note_on_c, 0, 84, 81
2, 145486, Note_off_c, 0, 84, 0
2, 145488, Note_on_c, 0, 81, 79
2, 145534, Note_off_c, 0, 81, 0
2, 145536, Note_on_c, 0, 78, 77
2, 145582, Note_off_c, 0, 78, 0
2, 145584, Note_on_c, 0, 74, 75
2, 145630, Note_off_c, 0, 74, 0
2, 145632, Note_on_c, 0, 72, 73
2, 145678, Note_off_c, 0, 72, 0
2, 145680, Note_on_c, 0, 70, 71
2, 145726, Note_off_c, 0, 70, 0
2, 145728, Note_on_c, 0, 67, 69
2, 145918, Note_off_c, 0, 67, 0
2, 146304, Note_on_c, 0, 62, 67
2, 146350, Note_off_c, 0, 62, 0
2, 146352, Note_on_c, 0, 65, 69
2, 146398, Note_off_c, 0, 65, 0
2, 146400, Note_on_c, 0, 68, 71
2, 146446, Note_off_c, 0, 68, 0
2, 146448, Note_on_c, 0, 70, 74
2, 146494, Note_off_c, 0, 70, 0
2, 146496, Note_on_c, 0, 74, 76
2, 146542, Note_off_c, 0, 74, 0
2, 146544, Note_on_c, 0, 77, 78
2, 146590, Note_off_c, 0, 77, 0
2, 146592, Note_on_c, 0, 80, 81
2, 146638, Note_off_c, 0, 80, 0
2, 146640, Note_on_c, 0, 77, 79
2, 146686, Note_off_c, 0, 77, 0
2, 146688, Note_on_c, 0, 74, 77
2, 146734, Note_off_c, 0, 74, 0
2, 146736, Note_on_c, 0, 70, 75
2, 146782, Note_off_c, 0, 70, 0
2, 146784, Note_on_c, 0, 68, 73
2, 146830, Note_off_c, 0, 68, 0
2, 146832, Note_on_c, 0, 65, 71
2, 146878, Note_off_c, 0, 65, 0
2, 146880, Note_on_c, 0, 67, 69
2, 146926, Note_off_c, 0, 67, 0
2, 146928, Note_on_c, 0, 79, 67
2, 146974, Note_off_c, 0, 79, 0
2, 146976, Note_on_c, 0, 77, 65
2, 147022, Note_off_c, 0, 77, 0
2, 147024, Note_on_c, 0, 79, 66
2, 147070, Note_off_c, 0, 79, 0
2, 147072, Note_on_c, 0, 75, 66
2, 147118, Note_off_c, 0, 75, 0
2, 147120, Note_on_c, 0, 79, 66
2, 147166, Note_off_c, 0, 79, 0
2, 147168, Note_on_c, 0, 72, 66
2, 147168, Note_on_c, 0, 63, 66
2, 147214, Note_off_c, 0, 72, 0
2, 147214, Note_off_c, 0, 63, 0
2, 147216, Note_on_c, 0, 75, 66
2, 147216, Note_on_c, 0, 67, 66
2, 147262, Note_off_c, 0, 75, 0
2, 147262, Note_off_c, 0, 67, 0
2, 147264, Note_on_c, 0, 74, 66
2, 147264, Note_on_c, 0, 65, 66
2, 147310, Note_off_c, 0, 74, 0
2, 147310, Note_off_c, 0, 65, 0
2, 147312, Note_on_c, 0, 75, 66
2, 147312, Note_on_c, 0, 67, 66
2, 147358, Note_off_c, 0, 75, 0
2, 147358, Note_off_c, 0, 67, 0
2, 147360, Note_on_c, 0, 72, 66
2, 147360, Note_on_c, 0, 63, 66
2, 147406, Note_off_c, 0, 72, 0
2, 147406, Note_off_c, 0, 63, 0
2, 147408, Note_on_c, 0, 75, 66
2, 147408, Note_on_c, 0, 67, 66
2, 147454, Note_off_c, 0, 75, 0
2, 147454, Note_off_c, 0, 67, 0
2, 147456, Note_on_c, 0, 69, 66
2, 147456, Note_on_c, 0, 60, 66
2, 147502, Note_off_c, 0, 69, 0
2, 147502, Note_off_c, 0, 60, 0
2, 147504, Note_on_c, 0, 81, 66
2, 147504, Note_on_c, 0, 72, 66
2, 147550, Note_off_c, 0, 81, 0
2, 147550, Note_off_c, 0, 72, 0
2, 147552, Note_on_c, 0, 79, 66
2, 147552, Note_on_c, 0, 70, 66
2, 147598, Note_off_c, 0, 79, 0
2, 147598, Note_off_c, 0, 70, 0
2, 147600, Note_on_c, 0, 81, 66
2, 147600, Note_on_c, 0, 72, 66
2, 147646, Note_off_c, 0, 81, 0
2, 147646, Note_off_c, 0, 72, 0
2, 147648, Note_on_c, 0, 77, 66
2, 147648, Note_on_c, 0, 69, 66
2, 147694, Note_off_c, 0, 77, 0
2, 147694, Note_off_c, 0, 69, 0
2, 147696, Note_on_c, 0, 81, 66
2, 147696, Note_on_c, 0, 72, 66
2, 147742, Note_off_c, 0, 81, 0
2, 147742, Note_off_c, 0, 72, 0
2, 147744, Note_on_c, 0, 74, 66
2, 147744, Note_on_c, 0, 65, 66
2, 147790, Note_off_c, 0, 74, 0
2, 147790, Note_off_c, 0, 65, 0
2, 147792, Note_on_c, 0, 77, 66
2, 147792, Note_on_c, 0, 69, 66
2, 147838, Note_off_c, 0, 77, 0
2, 147838, Note_off_c, 0, 69, 0
2, 147840, Note_on_c, 0, 75, 66
2, 147840, Note_on_c, 0, 67, 66
2, 147886, Note_off_c, 0, 75, 0
2, 147886, Note_off_c, 0, 67, 0
2, 147888, Note_on_c, 0, 77, 66
2, 147888, Note_on_c, 0, 69, 66
2, 147934, Note_off_c, 0, 77, 0
2, 147934, Note_off_c, 0, 69, 0
2, 147936, Note_on_c, 0, 74, 66
2, 147936, Note_on_c, 0, 65, 66
2, 147982, Note_off_c, 0, 74, 0
2, 147982, Note_off_c, 0, 65, 0
2, 147984, Note_on_c, 0, 77, 66
2, 147984, Note_on_c, 0, 69, 66
2, 148030, Note_off_c, 0, 77, 0
2, 148030, Note_off_c, 0, 69, 0
2, 148032, Note_on_c, 0, 70, 66
2, 148032, Note_on_c, 0, 62, 66
2, 148078, Note_off_c, 0, 70, 0
2, 148078, Note_off_c, 0, 62, 0
2, 148080, Note_on_c, 0, 82, 66
2, 148080, Note_on_c, 0, 74, 66
2, 148126, Note_off_c, 0, 82, 0
2, 148126, Note_off_c, 0, 74, 0
2, 148128, Note_on_c, 0, 81, 66
2, 148128, Note_on_c, 0, 72, 66
2, 148174, Note_off_c, 0, 81, 0
2, 148174, Note_off_c, 0, 72, 0
2, 148176, Note_on_c, 0, 82, 66
2, 148176, Note_on_c, 0, 74, 66
2, 148222, Note_off_c, 0, 82, 0
2, 148222, Note_off_c, 0, 74, 0
2, 148224, Note_on_c, 0, 79, 66
2, 148224, Note_on_c, 0, 70, 66
2, 148270, Note_off_c, 0, 79, 0
2, 148270, Note_off_c, 0, 70, 0
2, 148272, Note_on_c, 0, 82, 66
2, 148272, Note_on_c, 0, 74, 66
2, 148318, Note_off_c, 0, 82, 0
2, 148318, Note_off_c, 0, 74, 0
2, 148320, Note_on_c, 0, 75, 66
2, 148320, Note_on_c, 0, 67, 66
2, 148366, Note_off_c, 0, 75, 0
2, 148366, Note_off_c, 0, 67, 0
2, 148368, Note_on_c, 0, 79, 66
2, 148368, Note_on_c, 0, 70, 66
2, 148414, Note_off_c, 0, 79, 0
2, 148414, Note_off_c, 0, 70, 0
2, 148416, Note_on_c, 0, 77, 66
2, 148416, Note_on_c, 0, 69, 66
2, 148462, Note_off_c, 0, 77, 0
2, 148462, Note_off_c, 0, 69, 0
2, 148464, Note_on_c, 0, 79, 66
2, 148464, Note_on_c, 0, 70, 66
2, 148510, Note_off_c, 0, 79, 0
2, 148510, Note_off_c, 0, 70, 0
2, 148512, Note_on_c, 0, 75, 66
2, 148512, Note_on_c, 0, 67, 66
2, 148558, Note_off_c, 0, 75, 0
2, 148558, Note_off_c, 0, 67, 0
2, 148560, Note_on_c, 0, 79, 66
2, 148560, Note_on_c, 0, 70, 66
2, 148606, Note_off_c, 0, 79, 0
2, 148606, Note_off_c, 0, 70, 0
2, 148608, Note_on_c, 0, 72, 66
2, 148608, Note_on_c, 0, 63, 66
2, 148654, Note_off_c, 0, 72, 0
2, 148654, Note_off_c, 0, 63, 0
2, 148656, Note_on_c, 0, 84, 66
2, 148656, Note_on_c, 0, 75, 66
2, 148702, Note_off_c, 0, 84, 0
2, 148702, Note_off_c, 0, 75, 0
2, 148704, Note_on_c, 0, 82, 66
2, 148704, Note_on_c, 0, 74, 66
2, 148750, Note_off_c, 0, 82, 0
2, 148750, Note_off_c, 0, 74, 0
2, 148752, Note_on_c, 0, 84, 66
2, 148752, Note_on_c, 0, 75, 66
2, 148798, Note_off_c, 0, 84, 0
2, 148798, Note_off_c, 0, 75, 0
2, 148800, Note_on_c, 0, 81, 66
2, 148800, Note_on_c, 0, 72, 66
2, 148846, Note_off_c, 0, 81, 0
2, 148846, Note_off_c, 0, 72, 0
2, 148848, Note_on_c, 0, 84, 66
2, 148848, Note_on_c, 0, 75, 66
2, 148894, Note_off_c, 0, 84, 0
2, 148894, Note_off_c, 0, 75, 0
2, 148896, Note_on_c, 0, 77, 66
2, 148896, Note_on_c, 0, 69, 66
2, 148942, Note_off_c, 0, 77, 0
2, 148942, Note_off_c, 0, 69, 0
2, 148944, Note_on_c, 0, 81, 66
2, 148944, Note_on_c, 0, 72, 66
2, 148990, Note_off_c, 0, 81, 0
2, 148990, Note_off_c, 0, 72, 0
2, 148992, Note_on_c, 0, 79, 66
2, 148992, Note_on_c, 0, 70, 66
2, 149038, Note_off_c, 0, 79, 0
2, 149038, Note_off_c, 0, 70, 0
2, 149040, Note_on_c, 0, 81, 66
2, 149040, Note_on_c, 0, 72, 66
2, 149086, Note_off_c, 0, 81, 0
2, 149086, Note_off_c, 0, 72, 0
2, 149088, Note_on_c, 0, 77, 66
2, 149088, Note_on_c, 0, 69, 66
2, 149134, Note_off_c, 0, 77, 0
2, 149134, Note_off_c, 0, 69, 0
2, 149136, Note_on_c, 0, 81, 66
2, 149136, Note_on_c, 0, 72, 66
2, 149182, Note_off_c, 0, 81, 0
2, 149182, Note_off_c, 0, 72, 0
2, 149184, Note_on_c, 0, 74, 66
2, 149184, Note_on_c, 0, 70, 66
2, 149230, Note_off_c, 0, 74, 0
2, 149232, Note_on_c, 0, 77, 66
2, 149278, Note_off_c, 0, 70, 0
2, 149278, Note_off_c, 0, 77, 0
2, 149280, Note_on_c, 0, 82, 66
2, 149326, Note_off_c, 0, 82, 0
2, 149328, Note_on_c, 0, 81, 66
2, 149374, Note_off_c, 0, 81, 0
2, 149376, Note_on_c, 0, 79, 66
2, 149422, Note_off_c, 0, 79, 0
2, 149424, Note_on_c, 0, 77, 66
2, 149470, Note_off_c, 0, 77, 0
2, 149472, Note_on_c, 0, 79, 66
2, 149518, Note_off_c, 0, 79, 0
2, 149520, Note_on_c, 0, 77, 66
2, 149566, Note_off_c, 0, 77, 0
2, 149568, Note_on_c, 0, 75, 66
2, 149614, Note_off_c, 0, 75, 0
2, 149616, Note_on_c, 0, 74, 66
2, 149662, Note_off_c, 0, 74, 0
2, 149664, Note_on_c, 0, 72, 66
2, 149710, Note_off_c, 0, 72, 0
2, 149712, Note_on_c, 0, 70, 66
2, 149758, Note_off_c, 0, 70, 0
2, 149760, Note_on_c, 0, 77, 66
2, 149760, Note_on_c, 0, 72, 66
2, 149760, Note_on_c, 0, 69, 66
2, 149950, Note_off_c, 0, 77, 0
2, 149950, Note_off_c, 0, 72, 0
2, 149950, Note_off_c, 0, 69, 0
2, 152064, Note_on_c, 0, 69, 66
2, 152110, Note_off_c, 0, 69, 0
2, 152112, Note_on_c, 0, 72, 66
2, 152158, Note_off_c, 0, 72, 0
2, 152160, Note_on_c, 0, 77, 66
2, 152206, Note_off_c, 0, 77, 0
2, 152208, Note_on_c, 0, 72, 66
2, 152254, Note_off_c, 0, 72, 0
2, 152256, Note_on_c, 0, 77, 66
2, 152302, Note_off_c, 0, 77, 0
2, 152304, Note_on_c, 0, 72, 66
2, 152350, Note_off_c, 0, 72, 0
2, 152352, Note_on_c, 0, 69, 66
2, 152352, Note_on_c, 0, 76, 66
2, 152398, Note_off_c, 0, 69, 0
2, 152398, Note_off_c, 0, 76, 0
2, 152400, Note_on_c, 0, 72, 66
2, 152446, Note_off_c, 0, 72, 0
2, 152448, Note_on_c, 0, 77, 66
2, 152494, Note_off_c, 0, 77, 0
2, 152496, Note_on_c, 0, 72, 66
2, 152542, Note_off_c, 0, 72, 0
2, 152544, Note_on_c, 0, 69, 66
2, 152544, Note_on_c, 0, 78, 66
2, 152590, Note_off_c, 0, 69, 0
2, 152590, Note_off_c, 0, 78, 0
2, 152592, Note_on_c, 0, 72, 66
2, 152638, Note_off_c, 0, 72, 0
2, 152640, Note_on_c, 0, 77, 66
2, 152686, Note_off_c, 0, 77, 0
2, 152688, Note_on_c, 0, 72, 66
2, 152734, Note_off_c, 0, 72, 0
2, 152736, Note_on_c, 0, 69, 66
2, 152736, Note_on_c, 0, 76, 66
2, 152782, Note_off_c, 0, 69, 0
2, 152782, Note_off_c, 0, 76, 0
2, 152784, Note_on_c, 0, 72, 66
2, 152830, Note_off_c, 0, 72, 0
2, 152832, Note_on_c, 0, 77, 67
2, 152878, Note_off_c, 0, 77, 0
2, 152880, Note_on_c, 0, 72, 68
2, 152926, Note_off_c, 0, 72, 0
2, 152928, Note_on_c, 0, 69, 69
2, 152974, Note_off_c, 0, 69, 0
2, 152976, Note_on_c, 0, 77, 70
2, 153022, Note_off_c, 0, 77, 0
2, 153024, Note_on_c, 0, 70, 71
2, 153070, Note_off_c, 0, 70, 0
2, 153072, Note_on_c, 0, 79, 72
2, 153118, Note_off_c, 0, 79, 0
2, 153120, Note_on_c, 0, 72, 73
2, 153166, Note_off_c, 0, 72, 0
2, 153168, Note_on_c, 0, 81, 75
2, 153214, Note_off_c, 0, 81, 0
2, 153216, Note_on_c, 0, 74, 76
2, 153262, Note_off_c, 0, 74, 0
2, 153264, Note_on_c, 0, 82, 77
2, 153310, Note_off_c, 0, 82, 0
2, 153312, Note_on_c, 0, 75, 78
2, 153358, Note_off_c, 0, 75, 0
2, 153360, Note_on_c, 0, 84, 79
2, 153406, Note_off_c, 0, 84, 0
2, 153408, Note_on_c, 0, 77, 80
2, 153454, Note_off_c, 0, 77, 0
2, 153456, Note_on_c, 0, 86, 81
2, 153502, Note_off_c, 0, 86, 0
2, 153504, Note_on_c, 0, 69, 66
2, 153504, Note_on_c, 0, 76, 66
2, 153550, Note_off_c, 0, 69, 0
2, 153550, Note_off_c, 0, 76, 0
2, 153552, Note_on_c, 0, 72, 66
2, 153598, Note_off_c, 0, 72, 0
2, 153600, Note_on_c, 0, 77, 66
2, 153646, Note_off_c, 0, 77, 0
2, 153648, Note_on_c, 0, 72, 66
2, 153694, Note_off_c, 0, 72, 0
2, 153696, Note_on_c, 0, 69, 66
2, 153696, Note_on_c, 0, 78, 66
2, 153742, Note_off_c, 0, 69, 0
2, 153742, Note_off_c, 0, 78, 0
2, 153744, Note_on_c, 0, 72, 66
2, 153790, Note_off_c, 0, 72, 0
2, 153792, Note_on_c, 0, 77, 66
2, 153838, Note_off_c, 0, 77, 0
2, 153840, Note_on_c, 0, 72, 66
2, 153886, Note_off_c, 0, 72, 0
2, 153888, Note_on_c, 0, 69, 66
2, 153888, Note_on_c, 0, 76, 66
2, 153934, Note_off_c, 0, 69, 0
2, 153934, Note_off_c, 0, 76, 0
2, 153936, Note_on_c, 0, 72, 66
2, 153982, Note_off_c, 0, 72, 0
2, 153984, Note_on_c, 0, 77, 67
2, 154030, Note_off_c, 0, 77, 0
2, 154032, Note_on_c, 0, 72, 68
2, 154078, Note_off_c, 0, 72, 0
2, 154080, Note_on_c, 0, 77, 69
2, 154126, Note_off_c, 0, 77, 0
2, 154128, Note_on_c, 0, 81, 70
2, 154174, Note_off_c, 0, 81, 0
2, 154176, Note_on_c, 0, 79, 71
2, 154222, Note_off_c, 0, 79, 0
2, 154224, Note_on_c, 0, 82, 72
2, 154270, Note_off_c, 0, 82, 0
2, 154272, Note_on_c, 0, 81, 73
2, 154318, Note_off_c, 0, 81, 0
2, 154320, Note_on_c, 0, 84, 75
2, 154366, Note_off_c, 0, 84, 0
2, 154368, Note_on_c, 0, 82, 76
2, 154414, Note_off_c, 0, 82, 0
2, 154416, Note_on_c, 0, 86, 77
2, 154462, Note_off_c, 0, 86, 0
2, 154464, Note_on_c, 0, 84, 78
2, 154510, Note_off_c, 0, 84, 0
2, 154512, Note_on_c, 0, 87, 79
2, 154558, Note_off_c, 0, 87, 0
2, 154560, Note_on_c, 0, 86, 80
2, 154606, Note_off_c, 0, 86, 0
2, 154608, Note_on_c, 0, 89, 81
2, 154654, Note_off_c, 0, 89, 0
2, 154656, Note_on_c, 0, 69, 66
2, 154656, Note_on_c, 0, 76, 66
2, 154702, Note_off_c, 0, 69, 0
2, 154702, Note_off_c, 0, 76, 0
2, 154704, Note_on_c, 0, 72, 66
2, 154750, Note_off_c, 0, 72, 0
2, 154752, Note_on_c, 0, 77, 66
2, 154798, Note_off_c, 0, 77, 0
2, 154800, Note_on_c, 0, 72, 66
2, 154846, Note_off_c, 0, 72, 0
2, 154848, Note_on_c, 0, 69, 66
2, 154848, Note_on_c, 0, 78, 66
2, 154894, Note_off_c, 0, 69, 0
2, 154894, Note_off_c, 0, 78, 0
2, 154896, Note_on_c, 0, 72, 66
2, 154942, Note_off_c, 0, 72, 0
2, 154944, Note_on_c, 0, 77, 66
2, 154990, Note_off_c, 0, 77, 0
2, 154992, Note_on_c, 0, 72, 66
2, 155038, Note_off_c, 0, 72, 0
2, 155040, Note_on_c, 0, 69, 66
2, 155040, Note_on_c, 0, 76, 66
2, 155086, Note_off_c, 0, 69, 0
2, 155086, Note_off_c, 0, 76, 0
2, 155088, Note_on_c, 0, 72, 66
2, 155134, Note_off_c, 0, 72, 0
2, 155136, Note_on_c, 0, 77, 66
2, 155182, Note_off_c, 0, 77, 0
2, 155184, Note_on_c, 0, 72, 66
2, 155230, Note_off_c, 0, 72, 0
2, 155232, Note_on_c, 0, 87, 66
2, 155232, Note_on_c, 0, 87, 66
2, 155232, Note_on_c, 0, 84, 66
2, 155232, Note_on_c, 0, 77, 66
2, 155518, Note_off_c, 0, 87, 0
2, 155518, Note_off_c, 0, 87, 0
2, 155518, Note_off_c, 0, 84, 0
2, 155518, Note_off_c, 0, 77, 0
2, 155520, Note_on_c, 0, 86, 66
2, 155520, Note_on_c, 0, 82, 66
2, 155520, Note_on_c, 0, 77, 66
2, 155614, Note_off_c, 0, 86, 0
2, 155614, Note_off_c, 0, 82, 0
2, 155614, Note_off_c, 0, 77, 0
2, 155808, Note_on_c, 0, 62, 66
2, 155808, Note_on_c, 0, 69, 66
2, 155854, Note_off_c, 0, 62, 0
2, 155854, Note_off_c, 0, 69, 0
2, 155856, Note_on_c, 0, 65, 66
2, 155902, Note_off_c, 0, 65, 0
2, 155904, Note_on_c, 0, 70, 66
2, 155950, Note_off_c, 0, 70, 0
2, 155952, Note_on_c, 0, 65, 66
2, 155998, Note_off_c, 0, 65, 0
2, 156000, Note_on_c, 0, 62, 66
2, 156000, Note_on_c, 0, 71, 66
2, 156046, Note_off_c, 0, 62, 0
2, 156046, Note_off_c, 0, 71, 0
2, 156048, Note_on_c, 0, 65, 66
2, 156094, Note_off_c, 0, 65, 0
2, 156096, Note_on_c, 0, 70, 66
2, 156142, Note_off_c, 0, 70, 0
2, 156144, Note_on_c, 0, 67, 66
2, 156190, Note_off_c, 0, 67, 0
2, 156192, Note_on_c, 0, 63, 66
2, 156192, Note_on_c, 0, 69, 66
2, 156238, Note_off_c, 0, 63, 0
2, 156238, Note_off_c, 0, 69, 0
2, 156240, Note_on_c, 0, 67, 66
2, 156286, Note_off_c, 0, 67, 0
2, 156288, Note_on_c, 0, 70, 66
2, 156334, Note_off_c, 0, 70, 0
2, 156336, Note_on_c, 0, 67, 66
2, 156382, Note_off_c, 0, 67, 0
2, 156384, Note_on_c, 0, 64, 66
2, 156384, Note_on_c, 0, 71, 66
2, 156430, Note_off_c, 0, 64, 0
2, 156430, Note_off_c, 0, 71, 0
2, 156432, Note_on_c, 0, 67, 66
2, 156478, Note_off_c, 0, 67, 0
2, 156480, Note_on_c, 0, 72, 66
2, 156526, Note_off_c, 0, 72, 0
2, 156528, Note_on_c, 0, 67, 66
2, 156574, Note_off_c, 0, 67, 0
2, 156576, Note_on_c, 0, 64, 66
2, 156576, Note_on_c, 0, 74, 66
2, 156622, Note_off_c, 0, 64, 0
2, 156622, Note_off_c, 0, 74, 0
2, 156624, Note_on_c, 0, 67, 66
2, 156670, Note_off_c, 0, 67, 0
2, 156672, Note_on_c, 0, 72, 66
2, 156718, Note_off_c, 0, 72, 0
2, 156720, Note_on_c, 0, 69, 66
2, 156766, Note_off_c, 0, 69, 0
2, 156768, Note_on_c, 0, 65, 66
2, 156768, Note_on_c, 0, 71, 66
2, 156814, Note_off_c, 0, 65, 0
2, 156814, Note_off_c, 0, 71, 0
2, 156816, Note_on_c, 0, 69, 66
2, 156862, Note_off_c, 0, 69, 0
2, 156864, Note_on_c, 0, 72, 66
2, 156910, Note_off_c, 0, 72, 0
2, 156912, Note_on_c, 0, 69, 66
2, 156958, Note_off_c, 0, 69, 0
2, 156960, Note_on_c, 0, 66, 66
2, 156960, Note_on_c, 0, 73, 66
2, 157006, Note_off_c, 0, 66, 0
2, 157006, Note_off_c, 0, 73, 0
2, 157008, Note_on_c, 0, 69, 66
2, 157054, Note_off_c, 0, 69, 0
2, 157056, Note_on_c, 0, 74, 66
2, 157102, Note_off_c, 0, 74, 0
2, 157104, Note_on_c, 0, 69, 66
2, 157150, Note_off_c, 0, 69, 0
2, 157152, Note_on_c, 0, 66, 66
2, 157152, Note_on_c, 0, 75, 66
2, 157198, Note_off_c, 0, 66, 0
2, 157198, Note_off_c, 0, 75, 0
2, 157200, Note_on_c, 0, 69, 66
2, 157246, Note_off_c, 0, 69, 0
2, 157248, Note_on_c, 0, 74, 66
2, 157294, Note_off_c, 0, 74, 0
2, 157296, Note_on_c, 0, 70, 66
2, 157342, Note_off_c, 0, 70, 0
2, 157344, Note_on_c, 0, 67, 66
2, 157344, Note_on_c, 0, 73, 66
2, 157390, Note_off_c, 0, 67, 0
2, 157390, Note_off_c, 0, 73, 0
2, 157392, Note_on_c, 0, 70, 66
2, 157438, Note_off_c, 0, 70, 0
2, 157440, Note_on_c, 0, 74, 66
2, 157486, Note_off_c, 0, 74, 0
2, 157488, Note_on_c, 0, 70, 66
2, 157534, Note_off_c, 0, 70, 0
2, 157536, Note_on_c, 0, 69, 66
2, 157536, Note_on_c, 0, 76, 66
2, 157582, Note_off_c, 0, 69, 0
2, 157582, Note_off_c, 0, 76, 0
2, 157584, Note_on_c, 0, 73, 66
2, 157630, Note_off_c, 0, 73, 0
2, 157632, Note_on_c, 0, 77, 66
2, 157678, Note_off_c, 0, 77, 0
2, 157680, Note_on_c, 0, 73, 66
2, 157726, Note_off_c, 0, 73, 0
2, 157728, Note_on_c, 0, 69, 66
2, 157728, Note_on_c, 0, 79, 66
2, 157774, Note_off_c, 0, 69, 0
2, 157774, Note_off_c, 0, 79, 0
2, 157776, Note_on_c, 0, 73, 66
2, 157822, Note_off_c, 0, 73, 0
2, 157824, Note_on_c, 0, 77, 66
2, 157870, Note_off_c, 0, 77, 0
2, 157872, Note_on_c, 0, 74, 66
2, 157918, Note_off_c, 0, 74, 0
2, 157920, Note_on_c, 0, 70, 66
2, 157920, Note_on_c, 0, 76, 66
2, 157966, Note_off_c, 0, 70, 0
2, 157966, Note_off_c, 0, 76, 0
2, 157968, Note_on_c, 0, 74, 66
2, 158014, Note_off_c, 0, 74, 0
2, 158016, Note_on_c, 0, 77, 66
2, 158062, Note_off_c, 0, 77, 0
2, 158064, Note_on_c, 0, 74, 66
2, 158110, Note_off_c, 0, 74, 0
2, 158112, Note_on_c, 0, 67, 66
2, 158158, Note_off_c, 0, 67, 0
2, 158160, Note_on_c, 0, 79, 66
2, 158206, Note_off_c, 0, 79, 0
2, 158208, Note_on_c, 0, 66, 67
2, 158254, Note_off_c, 0, 66, 0
2, 158256, Note_on_c, 0, 78, 67
2, 158302, Note_off_c, 0, 78, 0
2, 158304, Note_on_c, 0, 67, 68
2, 158350, Note_off_c, 0, 67, 0
2, 158352, Note_on_c, 0, 79, 69
2, 158398, Note_off_c, 0, 79, 0
2, 158400, Note_on_c, 0, 72, 70
2, 158446, Note_off_c, 0, 72, 0
2, 158448, Note_on_c, 0, 84, 70
2, 158494, Note_off_c, 0, 84, 0
2, 158496, Note_on_c, 0, 74, 71
2, 158542, Note_off_c, 0, 74, 0
2, 158544, Note_on_c, 0, 86, 72
2, 158590, Note_off_c, 0, 86, 0
2, 158592, Note_on_c, 0, 75, 73
2, 158638, Note_off_c, 0, 75, 0
2, 158640, Note_on_c, 0, 87, 73
2, 158686, Note_off_c, 0, 87, 0
2, 158688, Note_on_c, 0, 65, 74
2, 158734, Note_off_c, 0, 65, 0
2, 158736, Note_on_c, 0, 77, 75
2, 158782, Note_off_c, 0, 77, 0
2, 158784, Note_on_c, 0, 64, 76
2, 158830, Note_off_c, 0, 64, 0
2, 158832, Note_on_c, 0, 76, 76
2, 158878, Note_off_c, 0, 76, 0
2, 158880, Note_on_c, 0, 65, 77
2, 158926, Note_off_c, 0, 65, 0
2, 158928, Note_on_c, 0, 77, 78
2, 158974, Note_off_c, 0, 77, 0
2, 158976, Note_on_c, 0, 70, 79
2, 159022, Note_off_c, 0, 70, 0
2, 159024, Note_on_c, 0, 82, 79
2, 159070, Note_off_c, 0, 82, 0
2, 159072, Note_on_c, 0, 72, 80
2, 159118, Note_off_c, 0, 72, 0
2, 159120, Note_on_c, 0, 84, 81
2, 159166, Note_off_c, 0, 84, 0
2, 159168, Note_on_c, 0, 74, 66
2, 159214, Note_off_c, 0, 74, 0
2, 159216, Note_on_c, 0, 86, 66
2, 159262, Note_off_c, 0, 86, 0
2, 159264, Note_on_c, 0, 79, 66
2, 159310, Note_off_c, 0, 79, 0
2, 159312, Note_on_c, 0, 81, 66
2, 159358, Note_off_c, 0, 81, 0
2, 159360, Note_on_c, 0, 82, 66
2, 159406, Note_off_c, 0, 82, 0
2, 159408, Note_on_c, 0, 81, 66
2, 159454, Note_off_c, 0, 81, 0
2, 159456, Note_on_c, 0, 79, 66
2, 159502, Note_off_c, 0, 79, 0
2, 159504, Note_on_c, 0, 77, 66
2, 159550, Note_off_c, 0, 77, 0
2, 159552, Note_on_c, 0, 75, 66
2, 159598, Note_off_c, 0, 75, 0
2, 159600, Note_on_c, 0, 77, 66
2, 159646, Note_off_c, 0, 77, 0
2, 159648, Note_on_c, 0, 75, 66
2, 159694, Note_off_c, 0, 75, 0
2, 159696, Note_on_c, 0, 74, 66
2, 159742, Note_off_c, 0, 74, 0
2, 159744, Note_on_c, 0, 72, 66
2, 159790, Note_off_c, 0, 72, 0
2, 159792, Note_on_c, 0, 70, 66
2, 159838, Note_off_c, 0, 70, 0
2, 159840, Note_on_c, 0, 69, 66
2, 159886, Note_off_c, 0, 69, 0
2, 159888, Note_on_c, 0, 70, 66
2, 159934, Note_off_c, 0, 70, 0
2, 159936, Note_on_c, 0, 69, 66
2, 159982, Note_off_c, 0, 69, 0
2, 159984, Note_on_c, 0, 67, 66
2, 160030, Note_off_c, 0, 67, 0
2, 160032, Note_on_c, 0, 65, 66
2, 160078, Note_off_c, 0, 65, 0
2, 160080, Note_on_c, 0, 63, 66
2, 160126, Note_off_c, 0, 63, 0
2, 160128, Note_on_c, 0, 62, 67
2, 160174, Note_off_c, 0, 62, 0
2, 160176, Note_on_c, 0, 65, 67
2, 160222, Note_off_c, 0, 65, 0
2, 160224, Note_on_c, 0, 70, 68
2, 160270, Note_off_c, 0, 70, 0
2, 160272, Note_on_c, 0, 74, 69
2, 160318, Note_off_c, 0, 74, 0
2, 160320, Note_on_c, 0, 77, 70
2, 160366, Note_off_c, 0, 77, 0
2, 160368, Note_on_c, 0, 82, 71
2, 160414, Note_off_c, 0, 82, 0
2, 160416, Note_on_c, 0, 60, 72
2, 160462, Note_off_c, 0, 60, 0
2, 160464, Note_on_c, 0, 63, 73
2, 160510, Note_off_c, 0, 63, 0
2, 160512, Note_on_c, 0, 67, 74
2, 160558, Note_off_c, 0, 67, 0
2, 160560, Note_on_c, 0, 72, 75
2, 160606, Note_off_c, 0, 72, 0
2, 160608, Note_on_c, 0, 75, 76
2, 160654, Note_off_c, 0, 75, 0
2, 160656, Note_on_c, 0, 79, 77
2, 160702, Note_off_c, 0, 79, 0
2, 160704, Note_on_c, 0, 70, 78
2, 160988, Note_off_c, 0, 70, 0
2, 160992, Note_on_c, 0, 70, 66
2, 161084, Note_off_c, 0, 70, 64
2, 161088, Note_on_c, 0, 72, 66
2, 161108, Note_off_c, 0, 72, 64
2, 161112, Note_on_c, 0, 70, 66
2, 161132, Note_off_c, 0, 70, 64
2, 161136, Note_on_c, 0, 69, 66
2, 161156, Note_off_c, 0, 69, 64
2, 161160, Note_on_c, 0, 70, 66
2, 161180, Note_off_c, 0, 70, 64
2, 161184, Note_on_c, 0, 74, 66
2, 161230, Note_off_c, 0, 74, 0
2, 161234, Note_on_c, 0, 72, 66
2, 161280, Note_off_c, 0, 72, 0
2, 161280, Note_on_c, 0, 70, 66
2, 161280, Note_on_c, 0, 58, 66
2, 161374, Note_off_c, 0, 58, 0
2, 161376, Note_on_c, 0, 62, 66
2, 161470, Note_off_c, 0, 70, 0
2, 161470, Note_off_c, 0, 62, 0
2, 161472, Note_on_c, 0, 65, 66
2, 161566, Note_off_c, 0, 65, 0
2, 161568, Note_on_c, 0, 58, 66
2, 161662, Note_off_c, 0, 58, 0
2, 161664, Note_on_c, 0, 62, 66
2, 161758, Note_off_c, 0, 62, 0
2, 161760, Note_on_c, 0, 65, 66
2, 161854, Note_off_c, 0, 65, 0
2, 161856, Note_on_c, 0, 58, 66
2, 161856, Note_on_c, 0, 80, 66
2, 161950, Note_off_c, 0, 58, 0
2, 161952, Note_on_c, 0, 62, 66
2, 162046, Note_off_c, 0, 62, 0
2, 162048, Note_on_c, 0, 65, 66
2, 162142, Note_off_c, 0, 80, 64
2, 162142, Note_off_c, 0, 65, 0
2, 162144, Note_on_c, 0, 58, 66
2, 162144, Note_on_c, 0, 82, 66
2, 162164, Note_off_c, 0, 82, 64
2, 162168, Note_on_c, 0, 80, 66
2, 162188, Note_off_c, 0, 80, 64
2, 162192, Note_on_c, 0, 79, 66
2, 162212, Note_off_c, 0, 79, 64
2, 162216, Note_on_c, 0, 80, 66
2, 162236, Note_off_c, 0, 80, 64
2, 162238, Note_off_c, 0, 58, 0
2, 162240, Note_on_c, 0, 82, 66
2, 162240, Note_on_c, 0, 63, 66
2, 162286, Note_off_c, 0, 82, 0
2, 162286, Note_off_c, 0, 63, 0
2, 162336, Note_on_c, 0, 80, 66
2, 162336, Note_on_c, 0, 65, 66
2, 162382, Note_off_c, 0, 80, 0
2, 162382, Note_off_c, 0, 65, 0
2, 162432, Note_on_c, 0, 78, 67
2, 162432, Note_on_c, 0, 58, 67
2, 162526, Note_off_c, 0, 78, 0
2, 162526, Note_off_c, 0, 58, 0
2, 162528, Note_on_c, 0, 79, 68
2, 162528, Note_on_c, 0, 63, 68
2, 162622, Note_off_c, 0, 79, 0
2, 162622, Note_off_c, 0, 63, 0
2, 162624, Note_on_c, 0, 79, 70
2, 162624, Note_on_c, 0, 67, 70
2, 162718, Note_off_c, 0, 79, 0
2, 162718, Note_off_c, 0, 67, 0
2, 162720, Note_on_c, 0, 79, 72
2, 162720, Note_on_c, 0, 58, 72
2, 162814, Note_off_c, 0, 79, 0
2, 162814, Note_off_c, 0, 58, 0
2, 162816, Note_on_c, 0, 87, 74
2, 162816, Note_on_c, 0, 63, 74
2, 162910, Note_off_c, 0, 87, 0
2, 162910, Note_off_c, 0, 63, 0
2, 162912, Note_on_c, 0, 87, 76
2, 162912, Note_on_c, 0, 67, 76
2, 163006, Note_off_c, 0, 87, 0
2, 163008, Note_off_c, 0, 67, 0
2, 163008, Note_on_c, 0, 87, 78
2, 163008, Note_on_c, 0, 58, 78
2, 163102, Note_off_c, 0, 58, 0
2, 163104, Note_on_c, 0, 60, 66
2, 163198, Note_off_c, 0, 60, 0
2, 163200, Note_on_c, 0, 63, 66
2, 163294, Note_off_c, 0, 87, 0
2, 163294, Note_off_c, 0, 63, 0
2, 163296, Note_on_c, 0, 87, 71
2, 163296, Note_on_c, 0, 58, 66
2, 163390, Note_off_c, 0, 87, 0
2, 163390, Note_off_c, 0, 58, 0
2, 163392, Note_on_c, 0, 86, 71
2, 163392, Note_on_c, 0, 60, 71
2, 163412, Note_off_c, 0, 86, 0
2, 163416, Note_on_c, 0, 84, 66
2, 163486, Note_off_c, 0, 60, 0
2, 163488, Note_off_c, 0, 84, 0
2, 163488, Note_on_c, 0, 82, 71
2, 163488, Note_on_c, 0, 63, 66
2, 163508, Note_off_c, 0, 82, 0
2, 163512, Note_on_c, 0, 81, 71
2, 163582, Note_off_c, 0, 63, 0
2, 163584, Note_off_c, 0, 81, 0
2, 163584, Note_on_c, 0, 89, 71
2, 163584, Note_on_c, 0, 58, 66
2, 163678, Note_off_c, 0, 58, 0
2, 163680, Note_on_c, 0, 62, 66
2, 163774, Note_off_c, 0, 62, 0
2, 163776, Note_on_c, 0, 89, 71
2, 163776, Note_on_c, 0, 65, 66
2, 163822, Note_off_c, 0, 89, 0
2, 163824, Note_on_c, 0, 86, 69
2, 163870, Note_off_c, 0, 89, 0
2, 163870, Note_off_c, 0, 65, 0
2, 163870, Note_off_c, 0, 86, 0
2, 163872, Note_on_c, 0, 82, 67
2, 163872, Note_on_c, 0, 58, 66
2, 163966, Note_off_c, 0, 82, 0
2, 163966, Note_off_c, 0, 58, 0
2, 163968, Note_on_c, 0, 62, 66
2, 164062, Note_off_c, 0, 62, 0
2, 164064, Note_on_c, 0, 65, 66
2, 164158, Note_off_c, 0, 65, 0
2, 164160, Note_on_c, 0, 80, 66
2, 164160, Note_on_c, 0, 58, 66
2, 164254, Note_off_c, 0, 58, 0
2, 164256, Note_on_c, 0, 62, 66
2, 164350, Note_off_c, 0, 62, 0
2, 164352, Note_on_c, 0, 65, 66
2, 164446, Note_off_c, 0, 80, 0
2, 164446, Note_off_c, 0, 65, 0
2, 164448, Note_on_c, 0, 80, 66
2, 164448, Note_on_c, 0, 58, 66
2, 164494, Note_off_c, 0, 80, 0
2, 164496, Note_on_c, 0, 82, 66
2, 164542, Note_off_c, 0, 58, 0
2, 164542, Note_off_c, 0, 82, 0
2, 164544, Note_on_c, 0, 84, 66
2, 164544, Note_on_c, 0, 62, 66
2, 164590, Note_off_c, 0, 84, 0
2, 164592, Note_on_c, 0, 82, 66
2, 164638, Note_off_c, 0, 62, 0
2, 164638, Note_off_c, 0, 82, 0
2, 164640, Note_on_c, 0, 80, 66
2, 164640, Note_on_c, 0, 65, 66
2, 164734, Note_off_c, 0, 80, 0
2, 164734, Note_off_c, 0, 65, 0
2, 164736, Note_on_c, 0, 78, 66
2, 164736, Note_on_c, 0, 58, 66
2, 164830, Note_off_c, 0, 78, 0
2, 164830, Note_off_c, 0, 58, 0
2, 164832, Note_on_c, 0, 79, 66
2, 164832, Note_on_c, 0, 63, 66
2, 164926, Note_off_c, 0, 79, 0
2, 164926, Note_off_c, 0, 63, 0
2, 164928, Note_on_c, 0, 67, 66
2, 165022, Note_off_c, 0, 67, 0
2, 165024, Note_on_c, 0, 77, 66
2, 165024, Note_on_c, 0, 58, 66
2, 165118, Note_off_c, 0, 77, 0
2, 165118, Note_off_c, 0, 58, 0
2, 165120, Note_on_c, 0, 75, 66
2, 165120, Note_on_c, 0, 63, 66
2, 165214, Note_off_c, 0, 75, 0
2, 165214, Note_off_c, 0, 63, 0
2, 165216, Note_on_c, 0, 67, 66
2, 165310, Note_off_c, 0, 67, 0
2, 165312, Note_on_c, 0, 74, 66
2, 165312, Note_on_c, 0, 58, 66
2, 165358, Note_off_c, 0, 74, 0
2, 165360, Note_on_c, 0, 72, 66
2, 165406, Note_off_c, 0, 58, 0
2, 165406, Note_off_c, 0, 72, 0
2, 165408, Note_on_c, 0, 60, 66
2, 165502, Note_off_c, 0, 60, 0
2, 165504, Note_on_c, 0, 70, 66
2, 165504, Note_on_c, 0, 63, 66
2, 165550, Note_off_c, 0, 70, 0
2, 165552, Note_on_c, 0, 69, 66
2, 165598, Note_off_c, 0, 63, 0
2, 165598, Note_off_c, 0, 69, 0
2, 165600, Note_on_c, 0, 58, 66
2, 165694, Note_off_c, 0, 58, 0
2, 165696, Note_on_c, 0, 75, 66
2, 165696, Note_on_c, 0, 60, 66
2, 165742, Note_off_c, 0, 75, 0
2, 165744, Note_on_c, 0, 69, 66
2, 165790, Note_off_c, 0, 60, 0
2, 165790, Note_off_c, 0, 69, 0
2, 165792, Note_on_c, 0, 63, 66
2, 165886, Note_off_c, 0, 63, 0
2, 165888, Note_on_c, 0, 58, 67
2, 165934, Note_off_c, 0, 58, 0
2, 165936, Note_on_c, 0, 62, 69
2, 165982, Note_off_c, 0, 62, 0
2, 165984, Note_on_c, 0, 65, 72
2, 166030, Note_off_c, 0, 65, 0
2, 166032, Note_on_c, 0, 70, 74
2, 166078, Note_off_c, 0, 70, 0
2, 166080, Note_on_c, 0, 74, 77
2, 166126, Note_off_c, 0, 74, 0
2, 166128, Note_on_c, 0, 77, 79
2, 166174, Note_off_c, 0, 77, 0
2, 166176, Note_on_c, 0, 82, 81
2, 166222, Note_off_c, 0, 82, 0
2, 166224, Note_on_c, 0, 77, 79
2, 166270, Note_off_c, 0, 77, 0
2, 166272, Note_on_c, 0, 74, 76
2, 166318, Note_off_c, 0, 74, 0
2, 166320, Note_on_c, 0, 70, 73
2, 166366, Note_off_c, 0, 70, 0
2, 166368, Note_on_c, 0, 65, 70
2, 166414, Note_off_c, 0, 65, 0
2, 166416, Note_on_c, 0, 62, 66
2, 166462, Note_off_c, 0, 62, 0
2, 166464, Note_on_c, 0, 58, 67
2, 166510, Note_off_c, 0, 58, 0
2, 166512, Note_on_c, 0, 62, 69
2, 166558, Note_off_c, 0, 62, 0
2, 166560, Note_on_c, 0, 65, 72
2, 166606, Note_off_c, 0, 65, 0
2, 166608, Note_on_c, 0, 70, 74
2, 166654, Note_off_c, 0, 70, 0
2, 166656, Note_on_c, 0, 74, 77
2, 166702, Note_off_c, 0, 74, 0
2, 166704, Note_on_c, 0, 77, 79
2, 166750, Note_off_c, 0, 77, 0
2, 166752, Note_on_c, 0, 82, 81
2, 166798, Note_off_c, 0, 82, 0
2, 166800, Note_on_c, 0, 77, 79
2, 166846, Note_off_c, 0, 77, 0
2, 166848, Note_on_c, 0, 74, 76
2, 166894, Note_off_c, 0, 74, 0
2, 166896, Note_on_c, 0, 70, 73
2, 166942, Note_off_c, 0, 70, 0
2, 166944, Note_on_c, 0, 65, 70
2, 166990, Note_off_c, 0, 65, 0
2, 166992, Note_on_c, 0, 62, 66
2, 167038, Note_off_c, 0, 62, 0
2, 167040, Note_on_c, 0, 58, 67
2, 167086, Note_off_c, 0, 58, 0
2, 167088, Note_on_c, 0, 63, 69
2, 167134, Note_off_c, 0, 63, 0
2, 167136, Note_on_c, 0, 67, 72
2, 167182, Note_off_c, 0, 67, 0
2, 167184, Note_on_c, 0, 70, 74
2, 167230, Note_off_c, 0, 70, 0
2, 167232, Note_on_c, 0, 75, 77
2, 167278, Note_off_c, 0, 75, 0
2, 167280, Note_on_c, 0, 70, 79
2, 167326, Note_off_c, 0, 70, 0
2, 167328, Note_on_c, 0, 79, 81
2, 167374, Note_off_c, 0, 79, 0
2, 167376, Note_on_c, 0, 77, 79
2, 167422, Note_off_c, 0, 77, 0
2, 167424, Note_on_c, 0, 75, 76
2, 167470, Note_off_c, 0, 75, 0
2, 167472, Note_on_c, 0, 74, 73
2, 167518, Note_off_c, 0, 74, 0
2, 167520, Note_on_c, 0, 72, 70
2, 167566, Note_off_c, 0, 72, 0
2, 167568, Note_on_c, 0, 70, 66
2, 167614, Note_off_c, 0, 70, 0
2, 167616, Note_on_c, 0, 69, 66
2, 167662, Note_off_c, 0, 69, 0
2, 167664, Note_on_c, 0, 70, 66
2, 167710, Note_off_c, 0, 70, 0
2, 167712, Note_on_c, 0, 72, 66
2, 167758, Note_off_c, 0, 72, 0
2, 167760, Note_on_c, 0, 70, 66
2, 167806, Note_off_c, 0, 70, 0
2, 167808, Note_on_c, 0, 69, 66
2, 167854, Note_off_c, 0, 69, 0
2, 167856, Note_on_c, 0, 67, 66
2, 167902, Note_off_c, 0, 67, 0
2, 167904, Note_on_c, 0, 65, 66
2, 167950, Note_off_c, 0, 65, 0
2, 167952, Note_on_c, 0, 67, 66
2, 167998, Note_off_c, 0, 67, 0
2, 168000, Note_on_c, 0, 65, 66
2, 168046, Note_off_c, 0, 65, 0
2, 168048, Note_on_c, 0, 63, 66
2, 168094, Note_off_c, 0, 63, 0
2, 168096, Note_on_c, 0, 62, 66
2, 168142, Note_off_c, 0, 62, 0
2, 168144, Note_on_c, 0, 60, 66
2, 168190, Note_off_c, 0, 60, 0
2, 168192, Note_on_c, 0, 58, 66
2, 168238, Note_off_c, 0, 58, 0
2, 168240, Note_on_c, 0, 62, 68
2, 168286, Note_off_c, 0, 62, 0
2, 168288, Note_on_c, 0, 65, 71
2, 168334, Note_off_c, 0, 65, 0
2, 168336, Note_on_c, 0, 70, 74
2, 168382, Note_off_c, 0, 70, 0
2, 168384, Note_on_c, 0, 74, 77
2, 168430, Note_off_c, 0, 74, 0
2, 168432, Note_on_c, 0, 77, 80
2, 168478, Note_off_c, 0, 77, 0
2, 168480, Note_on_c, 0, 82, 81
2, 168526, Note_off_c, 0, 82, 0
2, 168528, Note_on_c, 0, 77, 79
2, 168574, Note_off_c, 0, 77, 0
2, 168576, Note_on_c, 0, 74, 76
2, 168622, Note_off_c, 0, 74, 0
2, 168624, Note_on_c, 0, 70, 73
2, 168670, Note_off_c, 0, 70, 0
2, 168672, Note_on_c, 0, 65, 70
2, 168718, Note_off_c, 0, 65, 0
2, 168720, Note_on_c, 0, 62, 67
2, 168766, Note_off_c, 0, 62, 0
2, 168768, Note_on_c, 0, 58, 66
2, 168814, Note_off_c, 0, 58, 0
2, 168816, Note_on_c, 0, 62, 68
2, 168862, Note_off_c, 0, 62, 0
2, 168864, Note_on_c, 0, 65, 71
2, 168910, Note_off_c, 0, 65, 0
2, 168912, Note_on_c, 0, 70, 74
2, 168958, Note_off_c, 0, 70, 0
2, 168960, Note_on_c, 0, 74, 77
2, 169006, Note_off_c, 0, 74, 0
2, 169008, Note_on_c, 0, 77, 80
2, 169054, Note_off_c, 0, 77, 0
2, 169056, Note_on_c, 0, 82, 81
2, 169102, Note_off_c, 0, 82, 0
2, 169104, Note_on_c, 0, 77, 79
2, 169150, Note_off_c, 0, 77, 0
2, 169152, Note_on_c, 0, 74, 76
2, 169198, Note_off_c, 0, 74, 0
2, 169200, Note_on_c, 0, 70, 73
2, 169246, Note_off_c, 0, 70, 0
2, 169248, Note_on_c, 0, 65, 70
2, 169294, Note_off_c, 0, 65, 0
2, 169296, Note_on_c, 0, 62, 67
2, 169342, Note_off_c, 0, 62, 0
2, 169344, Note_on_c, 0, 58, 66
2, 169390, Note_off_c, 0, 58, 0
2, 169392, Note_on_c, 0, 63, 68
2, 169438, Note_off_c, 0, 63, 0
2, 169440, Note_on_c, 0, 67, 71
2, 169486, Note_off_c, 0, 67, 0
2, 169488, Note_on_c, 0, 70, 74
2, 169534, Note_off_c, 0, 70, 0
2, 169536, Note_on_c, 0, 75, 77
2, 169582, Note_off_c, 0, 75, 0
2, 169584, Note_on_c, 0, 70, 80
2, 169630, Note_off_c, 0, 70, 0
2, 169632, Note_on_c, 0, 79, 81
2, 169678, Note_off_c, 0, 79, 0
2, 169680, Note_on_c, 0, 77, 79
2, 169726, Note_off_c, 0, 77, 0
2, 169728, Note_on_c, 0, 75, 76
2, 169774, Note_off_c, 0, 75, 0
2, 169776, Note_on_c, 0, 74, 73
2, 169822, Note_off_c, 0, 74, 0
2, 169824, Note_on_c, 0, 72, 70
2, 169870, Note_off_c, 0, 72, 0
2, 169872, Note_on_c, 0, 70, 67
2, 169918, Note_off_c, 0, 70, 0
2, 169920, Note_on_c, 0, 69, 66
2, 169966, Note_off_c, 0, 69, 0
2, 169968, Note_on_c, 0, 67, 66
2, 170014, Note_off_c, 0, 67, 0
2, 170016, Note_on_c, 0, 65, 66
2, 170062, Note_off_c, 0, 65, 0
2, 170064, Note_on_c, 0, 67, 66
2, 170110, Note_off_c, 0, 67, 0
2, 170120, Note_on_c, 0, 69, 66
2, 170160, Note_on_c, 0, 70, 66
2, 170166, Note_off_c, 0, 69, 0
2, 170206, Note_off_c, 0, 70, 0
2, 170208, Note_on_c, 0, 72, 66
2, 170254, Note_off_c, 0, 72, 0
2, 170256, Note_on_c, 0, 74, 66
2, 170302, Note_off_c, 0, 74, 0
2, 170304, Note_on_c, 0, 75, 66
2, 170350, Note_off_c, 0, 75, 0
2, 170352, Note_on_c, 0, 77, 66
2, 170398, Note_off_c, 0, 77, 0
2, 170400, Note_on_c, 0, 79, 66
2, 170446, Note_off_c, 0, 79, 0
2, 170448, Note_on_c, 0, 81, 66
2, 170494, Note_off_c, 0, 81, 0
2, 170496, Note_on_c, 0, 82, 66
2, 170542, Note_off_c, 0, 82, 0
2, 170544, Note_on_c, 0, 74, 66
2, 170590, Note_off_c, 0, 74, 0
2, 170592, Note_on_c, 0, 82, 66
2, 170638, Note_off_c, 0, 82, 0
2, 170640, Note_on_c, 0, 74, 66
2, 170686, Note_off_c, 0, 74, 0
2, 170688, Note_on_c, 0, 82, 66
2, 170734, Note_off_c, 0, 82, 0
2, 170736, Note_on_c, 0, 74, 66
2, 170782, Note_off_c, 0, 74, 0
2, 170784, Note_on_c, 0, 70, 66
2, 170830, Note_off_c, 0, 70, 0
2, 170832, Note_on_c, 0, 74, 66
2, 170878, Note_off_c, 0, 74, 0
2, 170880, Note_on_c, 0, 82, 66
2, 170926, Note_off_c, 0, 82, 0
2, 170928, Note_on_c, 0, 74, 66
2, 170974, Note_off_c, 0, 74, 0
2, 170976, Note_on_c, 0, 82, 66
2, 171022, Note_off_c, 0, 82, 0
2, 171024, Note_on_c, 0, 74, 66
2, 171070, Note_off_c, 0, 74, 0
2, 171072, Note_on_c, 0, 70, 66
2, 171118, Note_off_c, 0, 70, 0
2, 171120, Note_on_c, 0, 74, 66
2, 171166, Note_off_c, 0, 74, 0
2, 171168, Note_on_c, 0, 82, 66
2, 171214, Note_off_c, 0, 82, 0
2, 171216, Note_on_c, 0, 74, 66
2, 171262, Note_off_c, 0, 74, 0
2, 171264, Note_on_c, 0, 82, 66
2, 171310, Note_off_c, 0, 82, 0
2, 171312, Note_on_c, 0, 74, 66
2, 171358, Note_off_c, 0, 74, 0
2, 171360, Note_on_c, 0, 70, 66
2, 171406, Note_off_c, 0, 70, 0
2, 171408, Note_on_c, 0, 74, 66
2, 171454, Note_off_c, 0, 74, 0
2, 171456, Note_on_c, 0, 82, 66
2, 171502, Note_off_c, 0, 82, 0
2, 171504, Note_on_c, 0, 74, 66
2, 171550, Note_off_c, 0, 74, 0
2, 171552, Note_on_c, 0, 82, 66
2, 171598, Note_off_c, 0, 82, 0
2, 171600, Note_on_c, 0, 74, 66
2, 171646, Note_off_c, 0, 74, 0
2, 171648, Note_on_c, 0, 70, 66
2, 171694, Note_off_c, 0, 70, 0
2, 171696, Note_on_c, 0, 74, 66
2, 171742, Note_off_c, 0, 74, 0
2, 171744, Note_on_c, 0, 82, 66
2, 171790, Note_off_c, 0, 82, 0
2, 171792, Note_on_c, 0, 74, 66
2, 171838, Note_off_c, 0, 74, 0
2, 171840, Note_on_c, 0, 82, 66
2, 171886, Note_off_c, 0, 82, 0
2, 171888, Note_on_c, 0, 74, 66
2, 171934, Note_off_c, 0, 74, 0
2, 171936, Note_on_c, 0, 70, 66
2, 171982, Note_off_c, 0, 70, 0
2, 171984, Note_on_c, 0, 74, 66
2, 172030, Note_off_c, 0, 74, 0
2, 172032, Note_on_c, 0, 82, 66
2, 172078, Note_off_c, 0, 82, 0
2, 172080, Note_on_c, 0, 74, 66
2, 172126, Note_off_c, 0, 74, 0
2, 172128, Note_on_c, 0, 82, 66
2, 172174, Note_off_c, 0, 82, 0
2, 172176, Note_on_c, 0, 74, 66
2, 172222, Note_off_c, 0, 74, 0
2, 172224, Note_on_c, 0, 70, 66
2, 172270, Note_off_c, 0, 70, 0
2, 172272, Note_on_c, 0, 75, 66
2, 172318, Note_off_c, 0, 75, 0
2, 172320, Note_on_c, 0, 82, 66
2, 172366, Note_off_c, 0, 82, 0
2, 172368, Note_on_c, 0, 75, 66
2, 172414, Note_off_c, 0, 75, 0
2, 172416, Note_on_c, 0, 82, 66
2, 172462, Note_off_c, 0, 82, 0
2, 172464, Note_on_c, 0, 75, 66
2, 172510, Note_off_c, 0, 75, 0
2, 172512, Note_on_c, 0, 70, 66
2, 172558, Note_off_c, 0, 70, 0
2, 172560, Note_on_c, 0, 76, 66
2, 172606, Note_off_c, 0, 76, 0
2, 172608, Note_on_c, 0, 82, 66
2, 172654, Note_off_c, 0, 82, 0
2, 172656, Note_on_c, 0, 76, 66
2, 172702, Note_off_c, 0, 76, 0
2, 172704, Note_on_c, 0, 82, 66
2, 172750, Note_off_c, 0, 82, 0
2, 172752, Note_on_c, 0, 76, 66
2, 172798, Note_off_c, 0, 76, 0
2, 172800, Note_on_c, 0, 70, 66
2, 172846, Note_off_c, 0, 70, 0
2, 172848, Note_on_c, 0, 77, 66
2, 172894, Note_off_c, 0, 77, 0
2, 172896, Note_on_c, 0, 82, 66
2, 172942, Note_off_c, 0, 82, 0
2, 172944, Note_on_c, 0, 77, 66
2, 172990, Note_off_c, 0, 77, 0
2, 172992, Note_on_c, 0, 82, 66
2, 173038, Note_off_c, 0, 82, 0
2, 173040, Note_on_c, 0, 77, 66
2, 173086, Note_off_c, 0, 77, 0
2, 173088, Note_on_c, 0, 70, 66
2, 173134, Note_off_c, 0, 70, 0
2, 173136, Note_on_c, 0, 79, 66
2, 173182, Note_off_c, 0, 79, 0
2, 173184, Note_on_c, 0, 82, 66
2, 173230, Note_off_c, 0, 82, 0
2, 173232, Note_on_c, 0, 79, 66
2, 173278, Note_off_c, 0, 79, 0
2, 173280, Note_on_c, 0, 82, 66
2, 173326, Note_off_c, 0, 82, 0
2, 173328, Note_on_c, 0, 77, 66
2, 173374, Note_off_c, 0, 77, 0
2, 173376, Note_on_c, 0, 74, 66
2, 173422, Note_off_c, 0, 74, 0
2, 173424, Note_on_c, 0, 77, 66
2, 173470, Note_off_c, 0, 77, 0
2, 173472, Note_on_c, 0, 82, 66
2, 173518, Note_off_c, 0, 82, 0
2, 173520, Note_on_c, 0, 77, 66
2, 173566, Note_off_c, 0, 77, 0
2, 173568, Note_on_c, 0, 82, 66
2, 173614, Note_off_c, 0, 82, 0
2, 173616, Note_on_c, 0, 77, 66
2, 173662, Note_off_c, 0, 77, 0
2, 173664, Note_on_c, 0, 72, 66
2, 173710, Note_off_c, 0, 72, 0
2, 173712, Note_on_c, 0, 77, 66
2, 173758, Note_off_c, 0, 77, 0
2, 173760, Note_on_c, 0, 81, 66
2, 173806, Note_off_c, 0, 81, 0
2, 173808, Note_on_c, 0, 77, 66
2, 173854, Note_off_c, 0, 77, 0
2, 173856, Note_on_c, 0, 81, 66
2, 173902, Note_off_c, 0, 81, 0
2, 173904, Note_on_c, 0, 77, 66
2, 173950, Note_off_c, 0, 77, 0
2, 173952, Note_on_c, 0, 82, 66
2, 173952, Note_on_c, 0, 77, 66
2, 173952, Note_on_c, 0, 74, 66
2, 174238, Note_off_c, 0, 82, 0
2, 174238, Note_off_c, 0, 77, 0
2, 174238, Note_off_c, 0, 74, 0
2, 177214, Control_c, 0, 64, 127
2, 177408, Note_on_c, 0, 74, 66
2, 177408, Note_on_c, 0, 70, 66
2, 177408, Note_on_c, 0, 65, 66
2, 177788, Note_off_c, 0, 74, 64
2, 177788, Note_off_c, 0, 70, 64
2, 177788, Note_off_c, 0, 65, 64
2, 177788, Control_c, 0, 64, 0
2, 177888, Note_on_c, 0, 77, 66
2, 177982, Note_off_c, 0, 77, 0
2, 177984, Note_on_c, 0, 82, 68
2, 177984, Note_on_c, 0, 74, 66
2, 178030, Note_off_c, 0, 74, 0
2, 178032, Note_on_c, 0, 75, 66
2, 178078, Note_off_c, 0, 75, 0
2, 178080, Note_on_c, 0, 77, 66
2, 178126, Note_off_c, 0, 77, 0
2, 178128, Note_on_c, 0, 75, 66
2, 178174, Note_off_c, 0, 82, 0
2, 178174, Note_off_c, 0, 75, 0
2, 178176, Note_on_c, 0, 82, 68
2, 178176, Note_on_c, 0, 74, 66
2, 178222, Note_off_c, 0, 74, 0
2, 178224, Note_on_c, 0, 72, 66
2, 178270, Note_off_c, 0, 82, 0
2, 178270, Note_off_c, 0, 72, 0
2, 178272, Note_on_c, 0, 82, 68
2, 178272, Note_on_c, 0, 70, 66
2, 178318, Note_off_c, 0, 70, 0
2, 178320, Note_on_c, 0, 72, 66
2, 178366, Note_off_c, 0, 82, 0
2, 178366, Note_off_c, 0, 72, 0
2, 178368, Note_on_c, 0, 84, 69
2, 178368, Note_on_c, 0, 74, 66
2, 178414, Note_off_c, 0, 74, 0
2, 178416, Note_on_c, 0, 72, 66
2, 178462, Note_off_c, 0, 84, 0
2, 178462, Note_off_c, 0, 72, 0
2, 178464, Note_on_c, 0, 86, 70
2, 178464, Note_on_c, 0, 70, 66
2, 178510, Note_off_c, 0, 70, 0
2, 178512, Note_on_c, 0, 69, 66
2, 178558, Note_off_c, 0, 86, 0
2, 178558, Note_off_c, 0, 69, 0
2, 178560, Note_on_c, 0, 86, 71
2, 178560, Note_on_c, 0, 67, 66
2, 178606, Note_off_c, 0, 67, 0
2, 178608, Note_on_c, 0, 69, 66
2, 178654, Note_off_c, 0, 86, 0
2, 178654, Note_off_c, 0, 69, 0
2, 178656, Note_on_c, 0, 75, 66
2, 178656, Note_on_c, 0, 70, 66
2, 178702, Note_off_c, 0, 75, 0
2, 178702, Note_off_c, 0, 70, 0
2, 178704, Note_on_c, 0, 69, 66
2, 178750, Note_off_c, 0, 69, 0
2, 178752, Note_on_c, 0, 75, 66
2, 178752, Note_on_c, 0, 67, 66
2, 178798, Note_off_c, 0, 75, 0
2, 178798, Note_off_c, 0, 67, 0
2, 178800, Note_on_c, 0, 65, 66
2, 178846, Note_off_c, 0, 65, 0
2, 178848, Note_on_c, 0, 75, 66
2, 178848, Note_on_c, 0, 63, 66
2, 178894, Note_off_c, 0, 63, 0
2, 178896, Note_on_c, 0, 65, 65
2, 178942, Note_off_c, 0, 65, 0
2, 178944, Note_on_c, 0, 67, 66
2, 178990, Note_off_c, 0, 67, 0
2, 178992, Note_on_c, 0, 65, 66
2, 179038, Note_off_c, 0, 75, 0
2, 179038, Note_off_c, 0, 65, 0
2, 179040, Note_on_c, 0, 75, 66
2, 179040, Note_on_c, 0, 63, 66
2, 179086, Note_off_c, 0, 63, 0
2, 179088, Note_on_c, 0, 62, 66
2, 179134, Note_off_c, 0, 75, 0
2, 179134, Note_off_c, 0, 62, 0
2, 179136, Note_on_c, 0, 81, 68
2, 179136, Note_on_c, 0, 60, 66
2, 179182, Note_off_c, 0, 60, 0
2, 179184, Note_on_c, 0, 62, 66
2, 179230, Note_off_c, 0, 62, 0
2, 179232, Note_on_c, 0, 63, 66
2, 179278, Note_off_c, 0, 63, 0
2, 179280, Note_on_c, 0, 62, 66
2, 179326, Note_off_c, 0, 81, 0
2, 179326, Note_off_c, 0, 62, 0
2, 179328, Note_on_c, 0, 81, 68
2, 179328, Note_on_c, 0, 60, 66
2, 179374, Note_off_c, 0, 81, 0
2, 179374, Note_off_c, 0, 60, 0
2, 179376, Note_on_c, 0, 58, 66
2, 179422, Note_off_c, 0, 58, 0
2, 179424, Note_on_c, 0, 81, 68
2, 179518, Note_off_c, 0, 81, 64
2, 179520, Note_on_c, 0, 82, 69
2, 179614, Note_off_c, 0, 82, 0
2, 179616, Note_on_c, 0, 84, 70
2, 179710, Note_off_c, 0, 84, 0
2, 179712, Note_on_c, 0, 84, 71
2, 179806, Note_off_c, 0, 84, 0
2, 179808, Note_on_c, 0, 74, 66
2, 179902, Note_off_c, 0, 74, 0
2, 179904, Note_on_c, 0, 74, 66
2, 179950, Note_off_c, 0, 74, 0
2, 180000, Note_on_c, 0, 74, 66
2, 180190, Note_off_c, 0, 74, 0
2, 180192, Note_on_c, 0, 74, 66
2, 180286, Note_off_c, 0, 74, 0
2, 180288, Note_on_c, 0, 79, 66
2, 180478, Note_off_c, 0, 79, 0
2, 180480, Note_on_c, 0, 79, 66
2, 180526, Note_off_c, 0, 79, 0
2, 180576, Note_on_c, 0, 79, 66
2, 180670, Note_off_c, 0, 79, 0
2, 180672, Note_on_c, 0, 81, 68
2, 180766, Note_off_c, 0, 81, 0
2, 180768, Note_on_c, 0, 82, 70
2, 180862, Note_off_c, 0, 82, 0
2, 180864, Note_on_c, 0, 82, 70
2, 180910, Note_off_c, 0, 82, 0
2, 180912, Note_on_c, 0, 78, 66
2, 180958, Note_off_c, 0, 78, 0
2, 180960, Note_on_c, 0, 79, 66
2, 181006, Note_off_c, 0, 79, 0
2, 181008, Note_on_c, 0, 78, 66
2, 181054, Note_off_c, 0, 78, 0
2, 181056, Note_on_c, 0, 79, 66
2, 181102, Note_off_c, 0, 79, 0
2, 181104, Note_on_c, 0, 78, 66
2, 181150, Note_off_c, 0, 78, 0
2, 181152, Note_on_c, 0, 79, 66
2, 181198, Note_off_c, 0, 79, 0
2, 181200, Note_on_c, 0, 74, 66
2, 181246, Note_off_c, 0, 74, 0
2, 181248, Note_on_c, 0, 75, 66
2, 181294, Note_off_c, 0, 75, 0
2, 181296, Note_on_c, 0, 74, 66
2, 181342, Note_off_c, 0, 74, 0
2, 181344, Note_on_c, 0, 75, 66
2, 181390, Note_off_c, 0, 75, 0
2, 181392, Note_on_c, 0, 74, 66
2, 181438, Note_off_c, 0, 74, 0
2, 181440, Note_on_c, 0, 75, 66
2, 181486, Note_off_c, 0, 75, 0
2, 181488, Note_on_c, 0, 71, 66
2, 181534, Note_off_c, 0, 71, 0
2, 181536, Note_on_c, 0, 72, 66
2, 181582, Note_off_c, 0, 72, 0
2, 181584, Note_on_c, 0, 71, 66
2, 181630, Note_off_c, 0, 71, 0
2, 181632, Note_on_c, 0, 72, 66
2, 181678, Note_off_c, 0, 72, 0
2, 181680, Note_on_c, 0, 70, 66
2, 181726, Note_off_c, 0, 70, 0
2, 181728, Note_on_c, 0, 72, 66
2, 181774, Note_off_c, 0, 72, 0
2, 181776, Note_on_c, 0, 76, 66
2, 181822, Note_off_c, 0, 76, 0
2, 181824, Note_on_c, 0, 79, 66
2, 181870, Note_off_c, 0, 79, 0
2, 181872, Note_on_c, 0, 76, 66
2, 181918, Note_off_c, 0, 76, 0
2, 181920, Note_on_c, 0, 72, 66
2, 181966, Note_off_c, 0, 72, 0
2, 181968, Note_on_c, 0, 70, 66
2, 182014, Note_off_c, 0, 70, 0
2, 182016, Note_on_c, 0, 69, 66
2, 182062, Note_off_c, 0, 69, 0
2, 182064, Note_on_c, 0, 65, 66
2, 182110, Note_off_c, 0, 65, 0
2, 182112, Note_on_c, 0, 60, 66
2, 182158, Note_off_c, 0, 60, 0
2, 182160, Note_on_c, 0, 65, 66
2, 182206, Note_off_c, 0, 65, 0
2, 182208, Note_on_c, 0, 60, 66
2, 182254, Note_off_c, 0, 60, 0
2, 182256, Note_on_c, 0, 65, 66
2, 182302, Note_off_c, 0, 65, 0
2, 182304, Note_on_c, 0, 57, 56
2, 182304, Note_on_c, 0, 77, 58
2, 182350, Note_off_c, 0, 57, 0
2, 182352, Note_on_c, 0, 60, 56
2, 182398, Note_off_c, 0, 77, 0
2, 182398, Note_off_c, 0, 60, 0
2, 182400, Note_on_c, 0, 65, 56
2, 182400, Note_on_c, 0, 81, 59
2, 182446, Note_off_c, 0, 65, 0
2, 182448, Note_on_c, 0, 60, 56
2, 182494, Note_off_c, 0, 81, 0
2, 182494, Note_off_c, 0, 60, 0
2, 182496, Note_on_c, 0, 65, 56
2, 182496, Note_on_c, 0, 77, 58
2, 182542, Note_off_c, 0, 65, 0
2, 182544, Note_on_c, 0, 60, 56
2, 182590, Note_off_c, 0, 77, 0
2, 182590, Note_off_c, 0, 60, 0
2, 182592, Note_on_c, 0, 57, 56
2, 182592, Note_on_c, 0, 84, 61
2, 182638, Note_off_c, 0, 57, 0
2, 182640, Note_on_c, 0, 60, 56
2, 182686, Note_off_c, 0, 84, 0
2, 182686, Note_off_c, 0, 60, 0
2, 182688, Note_on_c, 0, 65, 56
2, 182734, Note_off_c, 0, 65, 0
2, 182736, Note_on_c, 0, 60, 56
2, 182782, Note_off_c, 0, 60, 0
2, 182784, Note_on_c, 0, 65, 56
2, 182830, Note_off_c, 0, 65, 0
2, 182832, Note_on_c, 0, 60, 56
2, 182878, Note_off_c, 0, 60, 0
2, 182880, Note_on_c, 0, 57, 81
2, 182926, Note_off_c, 0, 57, 0
2, 182928, Note_on_c, 0, 60, 81
2, 182974, Note_off_c, 0, 60, 0
2, 182976, Note_on_c, 0, 65, 81
2, 183022, Note_off_c, 0, 65, 0
2, 183024, Note_on_c, 0, 60, 81
2, 183070, Note_off_c, 0, 60, 0
2, 183072, Note_on_c, 0, 65, 81
2, 183118, Note_off_c, 0, 65, 0
2, 183120, Note_on_c, 0, 60, 81
2, 183166, Note_off_c, 0, 60, 0
2, 183168, Note_on_c, 0, 58, 81
2, 183214, Note_off_c, 0, 58, 0
2, 183216, Note_on_c, 0, 60, 81
2, 183262, Note_off_c, 0, 60, 0
2, 183264, Note_on_c, 0, 70, 81
2, 183310, Note_off_c, 0, 70, 0
2, 183312, Note_on_c, 0, 60, 81
2, 183358, Note_off_c, 0, 60, 0
2, 183360, Note_on_c, 0, 70, 81
2, 183406, Note_off_c, 0, 70, 0
2, 183408, Note_on_c, 0, 60, 81
2, 183454, Note_off_c, 0, 60, 0
2, 183456, Note_on_c, 0, 58, 56
2, 183456, Note_on_c, 0, 76, 58
2, 183502, Note_off_c, 0, 58, 0
2, 183504, Note_on_c, 0, 60, 56
2, 183550, Note_off_c, 0, 76, 0
2, 183550, Note_off_c, 0, 60, 0
2, 183552, Note_on_c, 0, 70, 56
2, 183552, Note_on_c, 0, 79, 59
2, 183598, Note_off_c, 0, 70, 0
2, 183600, Note_on_c, 0, 62, 56
2, 183646, Note_off_c, 0, 79, 0
2, 183646, Note_off_c, 0, 62, 0
2, 183648, Note_on_c, 0, 70, 56
2, 183648, Note_on_c, 0, 76, 58
2, 183694, Note_off_c, 0, 70, 0
2, 183696, Note_on_c, 0, 60, 56
2, 183742, Note_off_c, 0, 76, 0
2, 183742, Note_off_c, 0, 60, 0
2, 183744, Note_on_c, 0, 58, 56
2, 183744, Note_on_c, 0, 84, 61
2, 183790, Note_off_c, 0, 58, 0
2, 183792, Note_on_c, 0, 62, 56
2, 183838, Note_off_c, 0, 62, 0
2, 183840, Note_on_c, 0, 70, 56
2, 183886, Note_off_c, 0, 70, 0
2, 183888, Note_on_c, 0, 60, 56
2, 183934, Note_off_c, 0, 84, 0
2, 183934, Note_off_c, 0, 60, 0
2, 183936, Note_on_c, 0, 70, 56
2, 183982, Note_off_c, 0, 70, 0
2, 183984, Note_on_c, 0, 60, 56
2, 184030, Note_off_c, 0, 60, 0
2, 184032, Note_on_c, 0, 58, 81
2, 184078, Note_off_c, 0, 58, 0
2, 184080, Note_on_c, 0, 60, 81
2, 184126, Note_off_c, 0, 60, 0
2, 184128, Note_on_c, 0, 70, 81
2, 184174, Note_off_c, 0, 70, 0
2, 184176, Note_on_c, 0, 60, 81
2, 184222, Note_off_c, 0, 60, 0
2, 184224, Note_on_c, 0, 70, 81
2, 184270, Note_off_c, 0, 70, 0
2, 184272, Note_on_c, 0, 60, 81
2, 184318, Note_off_c, 0, 60, 0
2, 184320, Note_on_c, 0, 60, 81
2, 184366, Note_off_c, 0, 60, 0
2, 184368, Note_on_c, 0, 65, 81
2, 184414, Note_off_c, 0, 65, 0
2, 184416, Note_on_c, 0, 69, 81
2, 184462, Note_off_c, 0, 69, 0
2, 184464, Note_on_c, 0, 65, 81
2, 184510, Note_off_c, 0, 65, 0
2, 184512, Note_on_c, 0, 69, 81
2, 184558, Note_off_c, 0, 69, 0
2, 184560, Note_on_c, 0, 65, 81
2, 184606, Note_off_c, 0, 65, 0
2, 184608, Note_on_c, 0, 60, 56
2, 184608, Note_on_c, 0, 81, 59
2, 184654, Note_off_c, 0, 60, 0
2, 184656, Note_on_c, 0, 65, 56
2, 184702, Note_off_c, 0, 81, 0
2, 184702, Note_off_c, 0, 65, 0
2, 184704, Note_on_c, 0, 69, 56
2, 184704, Note_on_c, 0, 84, 61
2, 184750, Note_off_c, 0, 69, 0
2, 184752, Note_on_c, 0, 65, 56
2, 184798, Note_off_c, 0, 84, 0
2, 184798, Note_off_c, 0, 65, 0
2, 184800, Note_on_c, 0, 69, 56
2, 184800, Note_on_c, 0, 81, 59
2, 184846, Note_off_c, 0, 69, 0
2, 184848, Note_on_c, 0, 65, 56
2, 184894, Note_off_c, 0, 81, 0
2, 184894, Note_off_c, 0, 65, 0
2, 184896, Note_on_c, 0, 60, 56
2, 184896, Note_on_c, 0, 89, 66
2, 184942, Note_off_c, 0, 60, 0
2, 184944, Note_on_c, 0, 65, 56
2, 184990, Note_off_c, 0, 65, 0
2, 184992, Note_on_c, 0, 69, 56
2, 185038, Note_off_c, 0, 69, 0
2, 185040, Note_on_c, 0, 65, 56
2, 185086, Note_off_c, 0, 89, 0
2, 185086, Note_off_c, 0, 65, 0
2, 185088, Note_on_c, 0, 69, 56
2, 185134, Note_off_c, 0, 69, 0
2, 185136, Note_on_c, 0, 65, 56
2, 185182, Note_off_c, 0, 65, 0
2, 185184, Note_on_c, 0, 60, 81
2, 185230, Note_off_c, 0, 60, 0
2, 185232, Note_on_c, 0, 65, 81
2, 185278, Note_off_c, 0, 65, 0
2, 185280, Note_on_c, 0, 69, 81
2, 185326, Note_off_c, 0, 69, 0
2, 185328, Note_on_c, 0, 65, 81
2, 185374, Note_off_c, 0, 65, 0
2, 185376, Note_on_c, 0, 69, 81
2, 185422, Note_off_c, 0, 69, 0
2, 185424, Note_on_c, 0, 65, 81
2, 185470, Note_off_c, 0, 65, 0
2, 185472, Note_on_c, 0, 62, 81
2, 185518, Note_off_c, 0, 62, 0
2, 185520, Note_on_c, 0, 65, 81
2, 185566, Note_off_c, 0, 65, 0
2, 185568, Note_on_c, 0, 70, 81
2, 185614, Note_off_c, 0, 70, 0
2, 185616, Note_on_c, 0, 65, 81
2, 185662, Note_off_c, 0, 65, 0
2, 185664, Note_on_c, 0, 70, 81
2, 185710, Note_off_c, 0, 70, 0
2, 185712, Note_on_c, 0, 65, 81
2, 185758, Note_off_c, 0, 65, 0
2, 185760, Note_on_c, 0, 62, 56
2, 185760, Note_on_c, 0, 82, 60
2, 185806, Note_off_c, 0, 62, 0
2, 185808, Note_on_c, 0, 65, 56
2, 185854, Note_off_c, 0, 82, 0
2, 185854, Note_off_c, 0, 65, 0
2, 185856, Note_on_c, 0, 70, 56
2, 185856, Note_on_c, 0, 86, 56
2, 185902, Note_off_c, 0, 70, 0
2, 185904, Note_on_c, 0, 65, 63
2, 185950, Note_off_c, 0, 86, 0
2, 185950, Note_off_c, 0, 65, 0
2, 185952, Note_on_c, 0, 70, 56
2, 185952, Note_on_c, 0, 82, 60
2, 185998, Note_off_c, 0, 70, 0
2, 186000, Note_on_c, 0, 65, 56
2, 186046, Note_off_c, 0, 82, 0
2, 186046, Note_off_c, 0, 65, 0
2, 186048, Note_on_c, 0, 62, 56
2, 186048, Note_on_c, 0, 89, 66
2, 186094, Note_off_c, 0, 62, 0
2, 186096, Note_on_c, 0, 65, 56
2, 186142, Note_off_c, 0, 65, 0
2, 186144, Note_on_c, 0, 70, 56
2, 186190, Note_off_c, 0, 70, 0
2, 186192, Note_on_c, 0, 65, 56
2, 186238, Note_off_c, 0, 89, 0
2, 186238, Note_off_c, 0, 65, 0
2, 186240, Note_on_c, 0, 70, 56
2, 186286, Note_off_c, 0, 70, 0
2, 186288, Note_on_c, 0, 65, 56
2, 186334, Note_off_c, 0, 65, 0
2, 186336, Note_on_c, 0, 70, 81
2, 186382, Note_off_c, 0, 70, 0
2, 186384, Note_on_c, 0, 65, 81
2, 186430, Note_off_c, 0, 65, 0
2, 186432, Note_on_c, 0, 72, 81
2, 186478, Note_off_c, 0, 72, 0
2, 186480, Note_on_c, 0, 65, 81
2, 186526, Note_off_c, 0, 65, 0
2, 186528, Note_on_c, 0, 74, 81
2, 186574, Note_off_c, 0, 74, 0
2, 186576, Note_on_c, 0, 65, 81
2, 186622, Note_off_c, 0, 65, 0
2, 186624, Note_on_c, 0, 75, 81
2, 186670, Note_off_c, 0, 75, 0
2, 186672, Note_on_c, 0, 72, 81
2, 186718, Note_off_c, 0, 72, 0
2, 186720, Note_on_c, 0, 74, 81
2, 186766, Note_off_c, 0, 74, 0
2, 186768, Note_on_c, 0, 75, 81
2, 186814, Note_off_c, 0, 75, 0
2, 186816, Note_on_c, 0, 77, 81
2, 186862, Note_off_c, 0, 77, 0
2, 186864, Note_on_c, 0, 79, 81
2, 186910, Note_off_c, 0, 79, 0
2, 186912, Note_on_c, 0, 81, 81
2, 186958, Note_off_c, 0, 81, 0
2, 186960, Note_on_c, 0, 79, 81
2, 187006, Note_off_c, 0, 79, 0
2, 187008, Note_on_c, 0, 77, 81
2, 187054, Note_off_c, 0, 77, 0
2, 187056, Note_on_c, 0, 79, 81
2, 187102, Note_off_c, 0, 79, 0
2, 187104, Note_on_c, 0, 81, 81
2, 187150, Note_off_c, 0, 81, 0
2, 187152, Note_on_c, 0, 82, 81
2, 187198, Note_off_c, 0, 82, 0
2, 187200, Note_on_c, 0, 84, 81
2, 187246, Note_off_c, 0, 84, 0
2, 187248, Note_on_c, 0, 86, 81
2, 187294, Note_off_c, 0, 86, 0
2, 187296, Note_on_c, 0, 87, 81
2, 187342, Note_off_c, 0, 87, 0
2, 187344, Note_on_c, 0, 86, 81
2, 187390, Note_off_c, 0, 86, 0
2, 187392, Note_on_c, 0, 84, 81
2, 187438, Note_off_c, 0, 84, 0
2, 187440, Note_on_c, 0, 82, 81
2, 187486, Note_off_c, 0, 82, 0
2, 187488, Note_on_c, 0, 81, 81
2, 187534, Note_off_c, 0, 81, 0
2, 187536, Note_on_c, 0, 82, 81
2, 187582, Note_off_c, 0, 82, 0
2, 187584, Note_on_c, 0, 81, 81
2, 187630, Note_off_c, 0, 81, 0
2, 187632, Note_on_c, 0, 79, 81
2, 187678, Note_off_c, 0, 79, 0
2, 187680, Note_on_c, 0, 77, 81
2, 187726, Note_off_c, 0, 77, 0
2, 187728, Note_on_c, 0, 75, 81
2, 187774, Note_off_c, 0, 75, 0
2, 187776, Note_on_c, 0, 74, 81
2, 187822, Note_off_c, 0, 74, 0
2, 187824, Note_on_c, 0, 72, 81
2, 187870, Note_off_c, 0, 72, 0
2, 187872, Note_on_c, 0, 70, 81
2, 187918, Note_off_c, 0, 70, 0
2, 187920, Note_on_c, 0, 72, 81
2, 187966, Note_off_c, 0, 72, 0
2, 187968, Note_on_c, 0, 74, 81
2, 188014, Note_off_c, 0, 74, 0
2, 188016, Note_on_c, 0, 75, 81
2, 188062, Note_off_c, 0, 75, 0
2, 188064, Note_on_c, 0, 77, 81
2, 188110, Note_off_c, 0, 77, 0
2, 188112, Note_on_c, 0, 75, 81
2, 188158, Note_off_c, 0, 75, 0
2, 188160, Note_on_c, 0, 74, 81
2, 188206, Note_off_c, 0, 74, 0
2, 188208, Note_on_c, 0, 75, 81
2, 188254, Note_off_c, 0, 75, 0
2, 188256, Note_on_c, 0, 77, 81
2, 188302, Note_off_c, 0, 77, 0
2, 188304, Note_on_c, 0, 79, 81
2, 188350, Note_off_c, 0, 79, 0
2, 188352, Note_on_c, 0, 80, 81
2, 188398, Note_off_c, 0, 80, 0
2, 188400, Note_on_c, 0, 82, 81
2, 188446, Note_off_c, 0, 82, 0
2, 188448, Note_on_c, 0, 80, 81
2, 188494, Note_off_c, 0, 80, 0
2, 188496, Note_on_c, 0, 79, 81
2, 188542, Note_off_c, 0, 79, 0
2, 188544, Note_on_c, 0, 77, 81
2, 188590, Note_off_c, 0, 77, 0
2, 188592, Note_on_c, 0, 75, 81
2, 188638, Note_off_c, 0, 75, 0
2, 188640, Note_on_c, 0, 74, 81
2, 188686, Note_off_c, 0, 74, 0
2, 188688, Note_on_c, 0, 75, 81
2, 188734, Note_off_c, 0, 75, 0
2, 188736, Note_on_c, 0, 74, 81
2, 188782, Note_off_c, 0, 74, 0
2, 188784, Note_on_c, 0, 72, 81
2, 188830, Note_off_c, 0, 72, 0
2, 188832, Note_on_c, 0, 70, 81
2, 188878, Note_off_c, 0, 70, 0
2, 188880, Note_on_c, 0, 68, 81
2, 188926, Note_off_c, 0, 68, 0
2, 188928, Note_on_c, 0, 67, 81
2, 188974, Note_off_c, 0, 67, 0
2, 188976, Note_on_c, 0, 70, 81
2, 189022, Note_off_c, 0, 70, 0
2, 189024, Note_on_c, 0, 79, 81
2, 189070, Note_off_c, 0, 79, 0
2, 189072, Note_on_c, 0, 70, 81
2, 189118, Note_off_c, 0, 70, 0
2, 189120, Note_on_c, 0, 79, 81
2, 189166, Note_off_c, 0, 79, 0
2, 189168, Note_on_c, 0, 70, 81
2, 189214, Note_off_c, 0, 70, 0
2, 189216, Note_on_c, 0, 67, 81
2, 189262, Note_off_c, 0, 67, 0
2, 189264, Note_on_c, 0, 70, 81
2, 189310, Note_off_c, 0, 70, 0
2, 189312, Note_on_c, 0, 79, 81
2, 189358, Note_off_c, 0, 79, 0
2, 189360, Note_on_c, 0, 70, 81
2, 189406, Note_off_c, 0, 70, 0
2, 189408, Note_on_c, 0, 79, 81
2, 189454, Note_off_c, 0, 79, 0
2, 189456, Note_on_c, 0, 70, 81
2, 189502, Note_off_c, 0, 70, 0
2, 189504, Note_on_c, 0, 72, 81
2, 189550, Note_off_c, 0, 72, 0
2, 189552, Note_on_c, 0, 75, 81
2, 189598, Note_off_c, 0, 75, 0
2, 189600, Note_on_c, 0, 79, 81
2, 189646, Note_off_c, 0, 79, 0
2, 189648, Note_on_c, 0, 75, 81
2, 189694, Note_off_c, 0, 75, 0
2, 189696, Note_on_c, 0, 84, 81
2, 189742, Note_off_c, 0, 84, 0
2, 189744, Note_on_c, 0, 79, 81
2, 189790, Note_off_c, 0, 79, 0
2, 189792, Note_on_c, 0, 87, 81
2, 189838, Note_off_c, 0, 87, 0
2, 189840, Note_on_c, 0, 86, 81
2, 189886, Note_off_c, 0, 86, 0
2, 189888, Note_on_c, 0, 84, 81
2, 189934, Note_off_c, 0, 84, 0
2, 189936, Note_on_c, 0, 82, 81
2, 189982, Note_off_c, 0, 82, 0
2, 189984, Note_on_c, 0, 81, 81
2, 190030, Note_off_c, 0, 81, 0
2, 190032, Note_on_c, 0, 79, 81
2, 190078, Note_off_c, 0, 79, 0
2, 190080, Note_on_c, 0, 77, 81
2, 190126, Note_off_c, 0, 77, 0
2, 190128, Note_on_c, 0, 74, 81
2, 190174, Note_off_c, 0, 74, 0
2, 190176, Note_on_c, 0, 69, 81
2, 190222, Note_off_c, 0, 69, 0
2, 190224, Note_on_c, 0, 74, 81
2, 190270, Note_off_c, 0, 74, 0
2, 190272, Note_on_c, 0, 77, 81
2, 190318, Note_off_c, 0, 77, 0
2, 190320, Note_on_c, 0, 74, 81
2, 190366, Note_off_c, 0, 74, 0
2, 190368, Note_on_c, 0, 77, 81
2, 190414, Note_off_c, 0, 77, 0
2, 190416, Note_on_c, 0, 74, 81
2, 190462, Note_off_c, 0, 74, 0
2, 190464, Note_on_c, 0, 69, 81
2, 190510, Note_off_c, 0, 69, 0
2, 190512, Note_on_c, 0, 74, 81
2, 190558, Note_off_c, 0, 74, 0
2, 190560, Note_on_c, 0, 77, 81
2, 190606, Note_off_c, 0, 77, 0
2, 190608, Note_on_c, 0, 74, 81
2, 190654, Note_off_c, 0, 74, 0
2, 190656, Note_on_c, 0, 77, 81
2, 190702, Note_off_c, 0, 77, 0
2, 190704, Note_on_c, 0, 74, 81
2, 190750, Note_off_c, 0, 74, 0
2, 190752, Note_on_c, 0, 70, 81
2, 190798, Note_off_c, 0, 70, 0
2, 190800, Note_on_c, 0, 74, 81
2, 190846, Note_off_c, 0, 74, 0
2, 190848, Note_on_c, 0, 77, 81
2, 190894, Note_off_c, 0, 77, 0
2, 190896, Note_on_c, 0, 82, 81
2, 190942, Note_off_c, 0, 82, 0
2, 190944, Note_on_c, 0, 86, 81
2, 190990, Note_off_c, 0, 86, 0
2, 190992, Note_on_c, 0, 84, 81
2, 191038, Note_off_c, 0, 84, 0
2, 191040, Note_on_c, 0, 82, 81
2, 191086, Note_off_c, 0, 82, 0
2, 191088, Note_on_c, 0, 81, 81
2, 191134, Note_off_c, 0, 81, 0
2, 191136, Note_on_c, 0, 79, 81
2, 191182, Note_off_c, 0, 79, 0
2, 191184, Note_on_c, 0, 77, 81
2, 191230, Note_off_c, 0, 77, 0
2, 191232, Note_on_c, 0, 75, 81
2, 191278, Note_off_c, 0, 75, 0
2, 191280, Note_on_c, 0, 72, 81
2, 191326, Note_off_c, 0, 72, 0
2, 191328, Note_on_c, 0, 67, 81
2, 191374, Note_off_c, 0, 67, 0
2, 191376, Note_on_c, 0, 72, 81
2, 191422, Note_off_c, 0, 72, 0
2, 191424, Note_on_c, 0, 75, 81
2, 191470, Note_off_c, 0, 75, 0
2, 191472, Note_on_c, 0, 72, 81
2, 191518, Note_off_c, 0, 72, 0
2, 191520, Note_on_c, 0, 75, 81
2, 191566, Note_off_c, 0, 75, 0
2, 191568, Note_on_c, 0, 72, 81
2, 191614, Note_off_c, 0, 72, 0
2, 191616, Note_on_c, 0, 67, 81
2, 191662, Note_off_c, 0, 67, 0
2, 191664, Note_on_c, 0, 72, 81
2, 191710, Note_off_c, 0, 72, 0
2, 191712, Note_on_c, 0, 75, 81
2, 191758, Note_off_c, 0, 75, 0
2, 191760, Note_on_c, 0, 72, 81
2, 191806, Note_off_c, 0, 72, 0
2, 191808, Note_on_c, 0, 75, 81
2, 191854, Note_off_c, 0, 75, 0
2, 191856, Note_on_c, 0, 72, 81
2, 191902, Note_off_c, 0, 72, 0
2, 191904, Note_on_c, 0, 69, 81
2, 191950, Note_off_c, 0, 69, 0
2, 191952, Note_on_c, 0, 72, 81
2, 191998, Note_off_c, 0, 72, 0
2, 192000, Note_on_c, 0, 75, 81
2, 192046, Note_off_c, 0, 75, 0
2, 192048, Note_on_c, 0, 78, 81
2, 192094, Note_off_c, 0, 78, 0
2, 192096, Note_on_c, 0, 81, 81
2, 192142, Note_off_c, 0, 81, 0
2, 192144, Note_on_c, 0, 79, 81
2, 192190, Note_off_c, 0, 79, 0
2, 192192, Note_on_c, 0, 78, 81
2, 192238, Note_off_c, 0, 78, 0
2, 192240, Note_on_c, 0, 75, 81
2, 192286, Note_off_c, 0, 75, 0
2, 192288, Note_on_c, 0, 74, 81
2, 192334, Note_off_c, 0, 74, 0
2, 192336, Note_on_c, 0, 72, 81
2, 192382, Note_off_c, 0, 72, 0
2, 192384, Note_on_c, 0, 70, 81
2, 192430, Note_off_c, 0, 70, 0
2, 192432, Note_on_c, 0, 74, 81
2, 192478, Note_off_c, 0, 74, 0
2, 192480, Note_on_c, 0, 82, 81
2, 192526, Note_off_c, 0, 82, 0
2, 192528, Note_on_c, 0, 74, 81
2, 192574, Note_off_c, 0, 74, 0
2, 192576, Note_on_c, 0, 82, 81
2, 192622, Note_off_c, 0, 82, 0
2, 192624, Note_on_c, 0, 74, 81
2, 192670, Note_off_c, 0, 74, 0
2, 192672, Note_on_c, 0, 70, 81
2, 192718, Note_off_c, 0, 70, 0
2, 192720, Note_on_c, 0, 74, 81
2, 192766, Note_off_c, 0, 74, 0
2, 192768, Note_on_c, 0, 80, 81
2, 192814, Note_off_c, 0, 80, 0
2, 192816, Note_on_c, 0, 74, 81
2, 192862, Note_off_c, 0, 74, 0
2, 192864, Note_on_c, 0, 80, 81
2, 192910, Note_off_c, 0, 80, 0
2, 192912, Note_on_c, 0, 74, 81
2, 192958, Note_off_c, 0, 74, 0
2, 192960, Note_on_c, 0, 70, 81
2, 193006, Note_off_c, 0, 70, 0
2, 193008, Note_on_c, 0, 75, 81
2, 193054, Note_off_c, 0, 75, 0
2, 193056, Note_on_c, 0, 79, 81
2, 193102, Note_off_c, 0, 79, 0
2, 193104, Note_on_c, 0, 75, 81
2, 193150, Note_off_c, 0, 75, 0
2, 193152, Note_on_c, 0, 79, 81
2, 193198, Note_off_c, 0, 79, 0
2, 193200, Note_on_c, 0, 75, 81
2, 193246, Note_off_c, 0, 75, 0
2, 193248, Note_on_c, 0, 65, 81
2, 193294, Note_off_c, 0, 65, 0
2, 193296, Note_on_c, 0, 70, 81
2, 193342, Note_off_c, 0, 70, 0
2, 193344, Note_on_c, 0, 77, 81
2, 193390, Note_off_c, 0, 77, 0
2, 193392, Note_on_c, 0, 70, 81
2, 193438, Note_off_c, 0, 70, 0
2, 193440, Note_on_c, 0, 77, 81
2, 193486, Note_off_c, 0, 77, 0
2, 193488, Note_on_c, 0, 72, 81
2, 193534, Note_off_c, 0, 72, 0
2, 193536, Note_on_c, 0, 67, 81
2, 193582, Note_off_c, 0, 67, 0
2, 193584, Note_on_c, 0, 70, 81
2, 193630, Note_off_c, 0, 70, 0
2, 193632, Note_on_c, 0, 76, 81
2, 193678, Note_off_c, 0, 76, 0
2, 193680, Note_on_c, 0, 70, 81
2, 193726, Note_off_c, 0, 70, 0
2, 193728, Note_on_c, 0, 76, 81
2, 193774, Note_off_c, 0, 76, 0
2, 193776, Note_on_c, 0, 70, 81
2, 193822, Note_off_c, 0, 70, 0
2, 193824, Note_on_c, 0, 69, 81
2, 193870, Note_off_c, 0, 69, 0
2, 193872, Note_on_c, 0, 72, 81
2, 193918, Note_off_c, 0, 72, 0
2, 193920, Note_on_c, 0, 75, 81
2, 193966, Note_off_c, 0, 75, 0
2, 193968, Note_on_c, 0, 74, 81
2, 194014, Note_off_c, 0, 74, 0
2, 194016, Note_on_c, 0, 75, 81
2, 194062, Note_off_c, 0, 75, 0
2, 194064, Note_on_c, 0, 72, 81
2, 194110, Note_off_c, 0, 72, 0
2, 194112, Note_on_c, 0, 67, 81
2, 194158, Note_off_c, 0, 67, 0
2, 194160, Note_on_c, 0, 70, 81
2, 194206, Note_off_c, 0, 70, 0
2, 194208, Note_on_c, 0, 74, 81
2, 194254, Note_off_c, 0, 74, 0
2, 194256, Note_on_c, 0, 70, 81
2, 194302, Note_off_c, 0, 70, 0
2, 194304, Note_on_c, 0, 74, 81
2, 194350, Note_off_c, 0, 74, 0
2, 194352, Note_on_c, 0, 70, 81
2, 194398, Note_off_c, 0, 70, 0
2, 194400, Note_on_c, 0, 67, 81
2, 194446, Note_off_c, 0, 67, 0
2, 194448, Note_on_c, 0, 70, 81
2, 194494, Note_off_c, 0, 70, 0
2, 194496, Note_on_c, 0, 74, 81
2, 194542, Note_off_c, 0, 74, 0
2, 194544, Note_on_c, 0, 70, 81
2, 194590, Note_off_c, 0, 70, 0
2, 194592, Note_on_c, 0, 74, 81
2, 194638, Note_off_c, 0, 74, 0
2, 194640, Note_on_c, 0, 70, 81
2, 194686, Note_off_c, 0, 70, 0
2, 194686, Control_c, 0, 64, 127
2, 194688, Note_on_c, 0, 74, 91
2, 194688, Note_on_c, 0, 70, 91
2, 194688, Note_on_c, 0, 65, 91
2, 195028, Control_c, 0, 64, 0
2, 195048, Note_on_c, 0, 65, 81
2, 195068, Note_off_c, 0, 65, 0
2, 195072, Note_on_c, 0, 69, 81
2, 195092, Note_off_c, 0, 69, 0
2, 195096, Note_on_c, 0, 67, 81
2, 195116, Note_off_c, 0, 67, 0
2, 195120, Note_on_c, 0, 65, 81
2, 195140, Note_off_c, 0, 65, 0
2, 195144, Note_on_c, 0, 67, 81
2, 195164, Note_off_c, 0, 67, 0
2, 195168, Note_on_c, 0, 69, 81
2, 195188, Note_off_c, 0, 69, 0
2, 195192, Note_on_c, 0, 70, 81
2, 195212, Note_off_c, 0, 70, 0
2, 195216, Note_on_c, 0, 72, 81
2, 195222, Note_off_c, 0, 74, 0
2, 195222, Note_off_c, 0, 65, 0
2, 195222, Note_off_c, 0, 70, 0
2, 195236, Note_off_c, 0, 72, 0
2, 195240, Note_on_c, 0, 74, 81
2, 195260, Note_off_c, 0, 74, 0
2, 195264, Note_on_c, 0, 75, 81
2, 195284, Note_off_c, 0, 75, 0
2, 195288, Note_on_c, 0, 77, 81
2, 195308, Note_off_c, 0, 77, 0
2, 195312, Note_on_c, 0, 79, 81
2, 195332, Note_off_c, 0, 79, 0
2, 195336, Note_on_c, 0, 81, 81
2, 195356, Note_off_c, 0, 81, 0
2, 195360, Note_on_c, 0, 82, 81
2, 195380, Note_off_c, 0, 82, 0
2, 195384, Note_on_c, 0, 84, 81
2, 195404, Note_off_c, 0, 84, 0
2, 195408, Note_on_c, 0, 86, 81
2, 195428, Note_off_c, 0, 86, 0
2, 195432, Note_on_c, 0, 87, 81
2, 195452, Note_off_c, 0, 87, 0
2, 195456, Note_on_c, 0, 89, 81
2, 195550, Note_off_c, 0, 89, 0
2, 195552, Note_on_c, 0, 85, 81
2, 195646, Note_off_c, 0, 85, 0
2, 195648, Note_on_c, 0, 86, 81
2, 195692, Note_off_c, 0, 86, 0
2, 195744, Note_on_c, 0, 81, 81
2, 195836, Note_off_c, 0, 81, 0
2, 195840, Note_on_c, 0, 82, 81
2, 195884, Note_off_c, 0, 82, 0
2, 195936, Note_on_c, 0, 76, 81
2, 196028, Note_off_c, 0, 76, 0
2, 196032, Note_on_c, 0, 77, 81
2, 196076, Note_off_c, 0, 77, 0
2, 196128, Note_on_c, 0, 73, 81
2, 196220, Note_off_c, 0, 73, 0
2, 196224, Note_on_c, 0, 74, 81
2, 196268, Note_off_c, 0, 74, 0
2, 196320, Note_on_c, 0, 69, 81
2, 196412, Note_off_c, 0, 69, 0
2, 196416, Note_on_c, 0, 70, 81
2, 196460, Note_off_c, 0, 70, 0
2, 196512, Note_on_c, 0, 64, 81
2, 196604, Note_off_c, 0, 64, 0
2, 196608, Note_on_c, 0, 65, 81
2, 196652, Note_off_c, 0, 65, 0
2, 196704, Note_on_c, 0, 61, 81
2, 196796, Note_off_c, 0, 61, 0
2, 196800, Note_on_c, 0, 62, 81
2, 196844, Note_off_c, 0, 62, 0
2, 196896, Note_on_c, 0, 58, 81
2, 196940, Note_off_c, 0, 58, 0
2, 197568, Note_on_c, 0, 63, 81
2, 197760, Note_on_c, 0, 60, 81
2, 197852, Note_off_c, 0, 63, 0
2, 197852, Note_off_c, 0, 60, 0
2, 197856, Note_on_c, 0, 69, 81
2, 197952, Note_on_c, 0, 63, 81
2, 197996, Note_off_c, 0, 69, 0
2, 197996, Note_off_c, 0, 63, 0
2, 198000, Note_on_c, 0, 72, 81
2, 198096, Note_on_c, 0, 69, 81
2, 198140, Note_off_c, 0, 72, 0
2, 198140, Note_off_c, 0, 69, 0
2, 198144, Note_on_c, 0, 75, 81
2, 198144, Note_on_c, 0, 63, 81
2, 198240, Note_on_c, 0, 72, 81
2, 198240, Note_on_c, 0, 60, 81
2, 198284, Note_off_c, 0, 75, 0
2, 198284, Note_off_c, 0, 63, 0
2, 198284, Note_off_c, 0, 72, 0
2, 198284, Note_off_c, 0, 60, 0
2, 198288, Note_on_c, 0, 81, 81
2, 198288, Note_on_c, 0, 69, 81
2, 198332, Note_off_c, 0, 81, 0
2, 198332, Note_off_c, 0, 69, 0
2, 198336, Note_on_c, 0, 77, 81
2, 198336, Note_on_c, 0, 65, 81
2, 198380, Note_off_c, 0, 77, 0
2, 198380, Note_off_c, 0, 65, 0
2, 198384, Note_on_c, 0, 84, 81
2, 198384, Note_on_c, 0, 72, 81
2, 198428, Note_off_c, 0, 84, 0
2, 198428, Note_off_c, 0, 72, 0
2, 198432, Note_on_c, 0, 81, 81
2, 198432, Note_on_c, 0, 69, 81
2, 198476, Note_off_c, 0, 81, 0
2, 198476, Note_off_c, 0, 69, 0
2, 198480, Note_on_c, 0, 88, 81
2, 198480, Note_on_c, 0, 75, 81
2, 198572, Note_off_c, 0, 88, 0
2, 198572, Note_off_c, 0, 75, 0
2, 198624, Note_on_c, 0, 86, 81
2, 198624, Note_on_c, 0, 74, 81
2, 198654, Note_off_c, 0, 86, 0
2, 198654, Note_off_c, 0, 74, 0
2, 198656, Note_on_c, 0, 84, 81
2, 198656, Note_on_c, 0, 72, 81
2, 198686, Note_off_c, 0, 84, 0
2, 198686, Note_off_c, 0, 72, 0
2, 198688, Note_on_c, 0, 82, 81
2, 198688, Note_on_c, 0, 70, 81
2, 198718, Note_off_c, 0, 82, 0
2, 198718, Note_off_c, 0, 70, 0
2, 198720, Note_on_c, 0, 84, 81
2, 198720, Note_on_c, 0, 72, 81
2, 198740, Note_off_c, 0, 84, 0
2, 198740, Note_off_c, 0, 72, 0
2, 198744, Note_on_c, 0, 86, 81
2, 198744, Note_on_c, 0, 74, 81
2, 198764, Note_off_c, 0, 86, 0
2, 198764, Note_off_c, 0, 74, 0
2, 198768, Note_on_c, 0, 84, 81
2, 198768, Note_on_c, 0, 72, 81
2, 198788, Note_off_c, 0, 84, 0
2, 198788, Note_off_c, 0, 72, 0
2, 198792, Note_on_c, 0, 86, 81
2, 198792, Note_on_c, 0, 74, 81
2, 198812, Note_off_c, 0, 86, 0
2, 198812, Note_off_c, 0, 74, 0
2, 198816, Note_on_c, 0, 84, 81
2, 198816, Note_on_c, 0, 72, 81
2, 198836, Note_off_c, 0, 84, 0
2, 198836, Note_off_c, 0, 72, 0
2, 198840, Note_on_c, 0, 86, 81
2, 198840, Note_on_c, 0, 74, 81
2, 198860, Note_off_c, 0, 86, 0
2, 198860, Note_off_c, 0, 74, 0
2, 198864, Note_on_c, 0, 84, 81
2, 198864, Note_on_c, 0, 72, 81
2, 198884, Note_off_c, 0, 84, 0
2, 198884, Note_off_c, 0, 72, 0
2, 198888, Note_on_c, 0, 86, 81
2, 198888, Note_on_c, 0, 74, 81
2, 198908, Note_off_c, 0, 86, 0
2, 198908, Note_off_c, 0, 74, 0
2, 198912, Note_on_c, 0, 84, 81
2, 198912, Note_on_c, 0, 72, 81
2, 198932, Note_off_c, 0, 84, 0
2, 198932, Note_off_c, 0, 72, 0
2, 198936, Note_on_c, 0, 86, 81
2, 198936, Note_on_c, 0, 74, 81
2, 198956, Note_off_c, 0, 86, 0
2, 198956, Note_off_c, 0, 74, 0
2, 198960, Note_on_c, 0, 84, 81
2, 198960, Note_on_c, 0, 72, 81
2, 198980, Note_off_c, 0, 84, 0
2, 198980, Note_off_c, 0, 72, 0
2, 198984, Note_on_c, 0, 86, 81
2, 198984, Note_on_c, 0, 74, 81
2, 199004, Note_off_c, 0, 86, 0
2, 199004, Note_off_c, 0, 74, 0
2, 199008, Note_on_c, 0, 84, 81
2, 199008, Note_on_c, 0, 72, 81
2, 199028, Note_off_c, 0, 84, 0
2, 199028, Note_off_c, 0, 72, 0
2, 199032, Note_on_c, 0, 86, 81
2, 199032, Note_on_c, 0, 74, 81
2, 199052, Note_off_c, 0, 86, 0
2, 199052, Note_off_c, 0, 74, 0
2, 199056, Note_on_c, 0, 84, 81
2, 199056, Note_on_c, 0, 72, 81
2, 199076, Note_off_c, 0, 84, 0
2, 199076, Note_off_c, 0, 72, 0
2, 199080, Note_on_c, 0, 86, 81
2, 199080, Note_on_c, 0, 74, 81
2, 199100, Note_off_c, 0, 86, 0
2, 199100, Note_off_c, 0, 74, 0
2, 199104, Note_on_c, 0, 84, 81
2, 199104, Note_on_c, 0, 72, 81
2, 199124, Note_off_c, 0, 84, 0
2, 199124, Note_off_c, 0, 72, 0
2, 199128, Note_on_c, 0, 86, 81
2, 199128, Note_on_c, 0, 74, 81
2, 199148, Note_off_c, 0, 86, 0
2, 199148, Note_off_c, 0, 74, 0
2, 199152, Note_on_c, 0, 84, 81
2, 199152, Note_on_c, 0, 72, 81
2, 199172, Note_off_c, 0, 84, 0
2, 199172, Note_off_c, 0, 72, 0
2, 199176, Note_on_c, 0, 86, 81
2, 199176, Note_on_c, 0, 74, 81
2, 199196, Note_off_c, 0, 86, 0
2, 199196, Note_off_c, 0, 74, 0
2, 199200, Note_on_c, 0, 82, 81
2, 199200, Note_on_c, 0, 70, 81
2, 199244, Note_off_c, 0, 82, 0
2, 199244, Note_off_c, 0, 70, 0
2, 199248, Note_on_c, 0, 84, 81
2, 199248, Note_on_c, 0, 72, 81
2, 199292, Note_off_c, 0, 84, 0
2, 199292, Note_off_c, 0, 72, 0
2, 199296, Note_on_c, 0, 82, 81
2, 199296, Note_on_c, 0, 70, 81
2, 199486, Note_off_c, 0, 82, 0
2, 199486, Note_off_c, 0, 70, 0
2, 199488, Note_on_c, 0, 82, 66
2, 199488, Note_on_c, 0, 70, 66
2, 199582, Note_off_c, 0, 82, 0
2, 199582, Note_off_c, 0, 70, 0
2, 199584, Note_on_c, 0, 82, 66
2, 199584, Note_on_c, 0, 70, 66
2, 199678, Note_off_c, 0, 82, 0
2, 199678, Note_off_c, 0, 70, 0
2, 199680, Note_on_c, 0, 84, 66
2, 199680, Note_on_c, 0, 72, 66
2, 199774, Note_off_c, 0, 84, 0
2, 199774, Note_off_c, 0, 72, 0
2, 199776, Note_on_c, 0, 86, 66
2, 199776, Note_on_c, 0, 74, 66
2, 199870, Note_off_c, 0, 86, 0
2, 199870, Note_off_c, 0, 74, 0
2, 199872, Note_on_c, 0, 86, 66
2, 199872, Note_on_c, 0, 74, 66
2, 199966, Note_off_c, 0, 86, 0
2, 199966, Note_off_c, 0, 74, 0
2, 199968, Note_on_c, 0, 77, 66
2, 199968, Note_on_c, 0, 65, 66
2, 200062, Note_off_c, 0, 77, 0
2, 200062, Note_off_c, 0, 65, 0
2, 200064, Note_on_c, 0, 77, 66
2, 200064, Note_on_c, 0, 65, 66
2, 200158, Note_off_c, 0, 77, 0
2, 200158, Note_off_c, 0, 65, 0
2, 200160, Note_on_c, 0, 77, 66
2, 200160, Note_on_c, 0, 65, 66
2, 200350, Note_off_c, 0, 77, 0
2, 200350, Note_off_c, 0, 65, 0
2, 200352, Note_on_c, 0, 78, 66
2, 200352, Note_on_c, 0, 66, 66
2, 200446, Note_off_c, 0, 78, 0
2, 200446, Note_off_c, 0, 66, 0
2, 200448, Note_on_c, 0, 79, 66
2, 200448, Note_on_c, 0, 67, 66
2, 200638, Note_off_c, 0, 79, 0
2, 200638, Note_off_c, 0, 67, 0
2, 200640, Note_on_c, 0, 79, 66
2, 200640, Note_on_c, 0, 67, 66
2, 200734, Note_off_c, 0, 79, 0
2, 200734, Note_off_c, 0, 67, 0
2, 200736, Note_on_c, 0, 79, 66
2, 200736, Note_on_c, 0, 67, 66
2, 200830, Note_off_c, 0, 79, 0
2, 200830, Note_off_c, 0, 67, 0
2, 200832, Note_on_c, 0, 81, 66
2, 200832, Note_on_c, 0, 69, 66
2, 200926, Note_off_c, 0, 81, 0
2, 200926, Note_off_c, 0, 69, 0
2, 200928, Note_on_c, 0, 82, 66
2, 200928, Note_on_c, 0, 70, 66
2, 201022, Note_off_c, 0, 82, 0
2, 201022, Note_off_c, 0, 70, 0
2, 201024, Note_on_c, 0, 82, 66
2, 201024, Note_on_c, 0, 70, 66
2, 201118, Note_off_c, 0, 82, 0
2, 201118, Note_off_c, 0, 70, 0
2, 201120, Note_on_c, 0, 74, 66
2, 201120, Note_on_c, 0, 62, 66
2, 201214, Note_off_c, 0, 74, 0
2, 201214, Note_off_c, 0, 62, 0
2, 201216, Note_on_c, 0, 74, 66
2, 201216, Note_on_c, 0, 62, 66
2, 201310, Note_off_c, 0, 74, 0
2, 201310, Note_off_c, 0, 62, 0
2, 201312, Note_on_c, 0, 74, 66
2, 201312, Note_on_c, 0, 62, 66
2, 201502, Note_off_c, 0, 74, 0
2, 201502, Note_off_c, 0, 62, 0
2, 201504, Note_on_c, 0, 74, 66
2, 201504, Note_on_c, 0, 62, 66
2, 201598, Note_off_c, 0, 74, 0
2, 201600, Note_off_c, 0, 62, 0
2, 201600, Note_on_c, 0, 75, 66
2, 201600, Note_on_c, 0, 63, 66
2, 201790, Note_off_c, 0, 75, 0
2, 201790, Note_off_c, 0, 63, 0
2, 201792, Note_on_c, 0, 75, 66
2, 201792, Note_on_c, 0, 63, 66
2, 201886, Note_off_c, 0, 75, 0
2, 201886, Note_off_c, 0, 63, 0
2, 201888, Note_on_c, 0, 75, 66
2, 201888, Note_on_c, 0, 63, 66
2, 201982, Note_off_c, 0, 75, 0
2, 201982, Note_off_c, 0, 63, 0
2, 201984, Note_on_c, 0, 65, 66
2, 201984, Note_on_c, 0, 77, 66
2, 202078, Note_off_c, 0, 65, 0
2, 202078, Note_off_c, 0, 77, 0
2, 202080, Note_on_c, 0, 79, 66
2, 202080, Note_on_c, 0, 67, 66
2, 202174, Note_off_c, 0, 79, 0
2, 202174, Note_off_c, 0, 67, 0
2, 202176, Note_on_c, 0, 79, 66
2, 202176, Note_on_c, 0, 67, 66
2, 202270, Note_off_c, 0, 79, 0
2, 202270, Note_off_c, 0, 67, 0
2, 202272, Note_on_c, 0, 72, 66
2, 202272, Note_on_c, 0, 60, 66
2, 202366, Note_off_c, 0, 72, 0
2, 202366, Note_off_c, 0, 60, 0
2, 202368, Note_on_c, 0, 87, 66
2, 202368, Note_on_c, 0, 75, 66
2, 202462, Note_off_c, 0, 87, 0
2, 202462, Note_off_c, 0, 75, 0
2, 202464, Note_on_c, 0, 87, 66
2, 202464, Note_on_c, 0, 75, 66
2, 202654, Note_off_c, 0, 87, 0
2, 202654, Note_off_c, 0, 75, 0
2, 202656, Note_on_c, 0, 81, 66
2, 202656, Note_on_c, 0, 69, 66
2, 202750, Note_off_c, 0, 81, 0
2, 202750, Note_off_c, 0, 69, 0
2, 202752, Note_on_c, 0, 82, 66
2, 202752, Note_on_c, 0, 70, 66
2, 202846, Note_off_c, 0, 82, 0
2, 202846, Note_off_c, 0, 70, 0
2, 202848, Note_on_c, 0, 86, 66
2, 202848, Note_on_c, 0, 74, 66
2, 202942, Note_off_c, 0, 86, 0
2, 202942, Note_off_c, 0, 74, 0
2, 203040, Note_on_c, 0, 79, 66
2, 203040, Note_on_c, 0, 67, 66
2, 203134, Note_off_c, 0, 79, 0
2, 203134, Note_off_c, 0, 67, 0
2, 203136, Note_on_c, 0, 82, 66
2, 203136, Note_on_c, 0, 70, 66
2, 203230, Note_off_c, 0, 82, 0
2, 203230, Note_off_c, 0, 70, 0
2, 203328, Note_on_c, 0, 74, 66
2, 203328, Note_on_c, 0, 62, 66
2, 203422, Note_off_c, 0, 74, 0
2, 203422, Note_off_c, 0, 62, 0
2, 203424, Note_on_c, 0, 77, 66
2, 203424, Note_on_c, 0, 65, 66
2, 203518, Note_off_c, 0, 77, 0
2, 203518, Note_off_c, 0, 65, 0
2, 203616, Note_on_c, 0, 69, 66
2, 203616, Note_on_c, 0, 57, 66
2, 203710, Note_off_c, 0, 69, 0
2, 203710, Note_off_c, 0, 57, 0
2, 203712, Note_on_c, 0, 72, 66
2, 203712, Note_on_c, 0, 60, 66
2, 203806, Note_off_c, 0, 72, 0
2, 203806, Note_off_c, 0, 60, 0
2, 203904, Note_on_c, 0, 82, 66
2, 203950, Note_off_c, 0, 82, 0
2, 203952, Note_on_c, 0, 84, 66
2, 203998, Note_off_c, 0, 84, 0
2, 204000, Note_on_c, 0, 85, 66
2, 204046, Note_off_c, 0, 85, 0
2, 204048, Note_on_c, 0, 86, 66
2, 204094, Note_off_c, 0, 86, 0
2, 204192, Note_on_c, 0, 79, 66
2, 204238, Note_off_c, 0, 79, 0
2, 204240, Note_on_c, 0, 80, 66
2, 204286, Note_off_c, 0, 80, 0
2, 204288, Note_on_c, 0, 81, 66
2, 204334, Note_off_c, 0, 81, 0
2, 204336, Note_on_c, 0, 82, 66
2, 204382, Note_off_c, 0, 82, 0
2, 204480, Note_on_c, 0, 74, 66
2, 204526, Note_off_c, 0, 74, 0
2, 204528, Note_on_c, 0, 75, 66
2, 204574, Note_off_c, 0, 75, 0
2, 204576, Note_on_c, 0, 76, 66
2, 204622, Note_off_c, 0, 76, 0
2, 204624, Note_on_c, 0, 77, 66
2, 204670, Note_off_c, 0, 77, 0
2, 204768, Note_on_c, 0, 69, 66
2, 204814, Note_off_c, 0, 69, 0
2, 204816, Note_on_c, 0, 70, 66
2, 204862, Note_off_c, 0, 70, 0
2, 204864, Note_on_c, 0, 71, 66
2, 204910, Note_off_c, 0, 71, 0
2, 204912, Note_on_c, 0, 72, 66
2, 204958, Note_off_c, 0, 72, 0
2, 205056, Note_on_c, 0, 70, 66
2, 205150, Note_off_c, 0, 70, 0
2, 205248, Note_on_c, 0, 77, 66
2, 205248, Note_on_c, 0, 65, 66
2, 205342, Note_off_c, 0, 77, 0
2, 205342, Note_off_c, 0, 65, 0
2, 205344, Note_on_c, 0, 77, 66
2, 205344, Note_on_c, 0, 65, 66
2, 205438, Note_off_c, 0, 77, 0
2, 205438, Note_off_c, 0, 65, 0
2, 205440, Note_on_c, 0, 77, 66
2, 205440, Note_on_c, 0, 65, 66
2, 205534, Note_off_c, 0, 77, 0
2, 205534, Note_off_c, 0, 65, 0
2, 205536, Note_on_c, 0, 77, 66
2, 205536, Note_on_c, 0, 65, 66
2, 205630, Note_off_c, 0, 77, 0
2, 205630, Note_off_c, 0, 65, 0
2, 205632, Note_on_c, 0, 77, 66
2, 205632, Note_on_c, 0, 65, 66
2, 205726, Note_off_c, 0, 77, 0
2, 205726, Note_off_c, 0, 65, 0
2, 205728, Note_on_c, 0, 74, 66
2, 205728, Note_on_c, 0, 62, 66
2, 205822, Note_off_c, 0, 74, 0
2, 205822, Note_off_c, 0, 62, 0
2, 205824, Note_on_c, 0, 77, 66
2, 205824, Note_on_c, 0, 65, 66
2, 205918, Note_off_c, 0, 77, 0
2, 205918, Note_off_c, 0, 65, 0
2, 205920, Note_on_c, 0, 65, 66
2, 205920, Note_on_c, 0, 77, 66
2, 206014, Note_off_c, 0, 65, 0
2, 206014, Note_off_c, 0, 77, 0
2, 206016, Note_on_c, 0, 82, 66
2, 206016, Note_on_c, 0, 70, 66
2, 206110, Note_off_c, 0, 82, 0
2, 206110, Note_off_c, 0, 70, 0
2, 206112, Note_on_c, 0, 77, 66
2, 206112, Note_on_c, 0, 65, 66
2, 206206, Note_off_c, 0, 77, 0
2, 206206, Note_off_c, 0, 65, 0
2, 206208, Note_on_c, 0, 77, 66
2, 206208, Note_on_c, 0, 65, 66
2, 206398, Note_off_c, 0, 77, 0
2, 206398, Note_off_c, 0, 65, 0
2, 207552, Note_on_c, 0, 77, 66
2, 207552, Note_on_c, 0, 65, 66
2, 207646, Note_off_c, 0, 77, 0
2, 207646, Note_off_c, 0, 65, 0
2, 207648, Note_on_c, 0, 77, 66
2, 207648, Note_on_c, 0, 65, 66
2, 207742, Note_off_c, 0, 77, 0
2, 207742, Note_off_c, 0, 65, 0
2, 207744, Note_on_c, 0, 77, 66
2, 207744, Note_on_c, 0, 65, 66
2, 207838, Note_off_c, 0, 77, 0
2, 207838, Note_off_c, 0, 65, 0
2, 207840, Note_on_c, 0, 77, 66
2, 207840, Note_on_c, 0, 65, 66
2, 207934, Note_off_c, 0, 77, 0
2, 207934, Note_off_c, 0, 65, 0
2, 207936, Note_on_c, 0, 77, 66
2, 207936, Note_on_c, 0, 65, 66
2, 208030, Note_off_c, 0, 77, 0
2, 208030, Note_off_c, 0, 65, 0
2, 208032, Note_on_c, 0, 74, 66
2, 208032, Note_on_c, 0, 62, 66
2, 208126, Note_off_c, 0, 74, 0
2, 208126, Note_off_c, 0, 62, 0
2, 208128, Note_on_c, 0, 77, 66
2, 208128, Note_on_c, 0, 65, 66
2, 208222, Note_off_c, 0, 77, 0
2, 208222, Note_off_c, 0, 65, 0
2, 208224, Note_on_c, 0, 77, 66
2, 208224, Note_on_c, 0, 65, 66
2, 208318, Note_off_c, 0, 77, 0
2, 208318, Note_off_c, 0, 65, 0
2, 208320, Note_on_c, 0, 82, 66
2, 208320, Note_on_c, 0, 70, 66
2, 208414, Note_off_c, 0, 82, 0
2, 208414, Note_off_c, 0, 70, 0
2, 208416, Note_on_c, 0, 77, 66
2, 208416, Note_on_c, 0, 65, 66
2, 208510, Note_off_c, 0, 77, 0
2, 208510, Note_off_c, 0, 65, 0
2, 208512, Note_on_c, 0, 77, 66
2, 208512, Note_on_c, 0, 65, 66
2, 208702, Note_off_c, 0, 77, 0
2, 208702, Note_off_c, 0, 65, 0
2, 210816, Note_on_c, 0, 62, 66
2, 210862, Note_off_c, 0, 62, 0
2, 210864, Note_on_c, 0, 58, 66
2, 210910, Note_off_c, 0, 58, 0
2, 210912, Note_on_c, 0, 53, 66
2, 210958, Note_off_c, 0, 53, 0
2, 210960, Note_on_c, 0, 58, 66
2, 211006, Note_off_c, 0, 58, 0
2, 211008, Note_on_c, 0, 62, 66
2, 211054, Note_off_c, 0, 62, 0
2, 211056, Note_on_c, 0, 58, 66
2, 211102, Note_off_c, 0, 58, 0
2, 211104, Note_on_c, 0, 65, 66
2, 211150, Note_off_c, 0, 65, 0
2, 211152, Note_on_c, 0, 62, 66
2, 211198, Note_off_c, 0, 62, 0
2, 211200, Note_on_c, 0, 74, 66
2, 211246, Note_off_c, 0, 74, 0
2, 211248, Note_on_c, 0, 65, 66
2, 211294, Note_off_c, 0, 65, 0
2, 211296, Note_on_c, 0, 62, 66
2, 211342, Note_off_c, 0, 62, 0
2, 211344, Note_on_c, 0, 58, 66
2, 211390, Note_off_c, 0, 58, 0
2, 211392, Note_on_c, 0, 62, 66
2, 211438, Note_off_c, 0, 62, 0
2, 211440, Note_on_c, 0, 58, 66
2, 211486, Note_off_c, 0, 58, 0
2, 211488, Note_on_c, 0, 53, 66
2, 211534, Note_off_c, 0, 53, 0
2, 211536, Note_on_c, 0, 58, 66
2, 211582, Note_off_c, 0, 58, 0
2, 211584, Note_on_c, 0, 62, 66
2, 211630, Note_off_c, 0, 62, 0
2, 211632, Note_on_c, 0, 58, 66
2, 211678, Note_off_c, 0, 58, 0
2, 211680, Note_on_c, 0, 65, 66
2, 211726, Note_off_c, 0, 65, 0
2, 211728, Note_on_c, 0, 62, 66
2, 211774, Note_off_c, 0, 62, 0
2, 211776, Note_on_c, 0, 70, 66
2, 211822, Note_off_c, 0, 70, 0
2, 211824, Note_on_c, 0, 65, 66
2, 211870, Note_off_c, 0, 65, 0
2, 211872, Note_on_c, 0, 62, 66
2, 211918, Note_off_c, 0, 62, 0
2, 211920, Note_on_c, 0, 58, 66
2, 211966, Note_off_c, 0, 58, 0
2, 211968, Note_on_c, 0, 65, 66
2, 212014, Note_off_c, 0, 65, 0
2, 212016, Note_on_c, 0, 62, 66
2, 212062, Note_off_c, 0, 62, 0
2, 212064, Note_on_c, 0, 58, 66
2, 212110, Note_off_c, 0, 58, 0
2, 212112, Note_on_c, 0, 62, 66
2, 212158, Note_off_c, 0, 62, 0
2, 212160, Note_on_c, 0, 65, 66
2, 212206, Note_off_c, 0, 65, 0
2, 212208, Note_on_c, 0, 62, 66
2, 212254, Note_off_c, 0, 62, 0
2, 212256, Note_on_c, 0, 70, 66
2, 212302, Note_off_c, 0, 70, 0
2, 212304, Note_on_c, 0, 65, 66
2, 212350, Note_off_c, 0, 65, 0
2, 212352, Note_on_c, 0, 74, 66
2, 212398, Note_off_c, 0, 74, 0
2, 212400, Note_on_c, 0, 70, 66
2, 212446, Note_off_c, 0, 70, 0
2, 212448, Note_on_c, 0, 65, 66
2, 212494, Note_off_c, 0, 65, 0
2, 212496, Note_on_c, 0, 62, 66
2, 212542, Note_off_c, 0, 62, 0
2, 212544, Note_on_c, 0, 65, 66
2, 212590, Note_off_c, 0, 65, 0
2, 212592, Note_on_c, 0, 62, 66
2, 212638, Note_off_c, 0, 62, 0
2, 212640, Note_on_c, 0, 58, 66
2, 212686, Note_off_c, 0, 58, 0
2, 212688, Note_on_c, 0, 62, 66
2, 212734, Note_off_c, 0, 62, 0
2, 212736, Note_on_c, 0, 65, 66
2, 212782, Note_off_c, 0, 65, 0
2, 212784, Note_on_c, 0, 62, 66
2, 212830, Note_off_c, 0, 62, 0
2, 212832, Note_on_c, 0, 70, 66
2, 212878, Note_off_c, 0, 70, 0
2, 212880, Note_on_c, 0, 65, 66
2, 212926, Note_off_c, 0, 65, 0
2, 212928, Note_on_c, 0, 74, 66
2, 212974, Note_off_c, 0, 74, 0
2, 212976, Note_on_c, 0, 70, 66
2, 213022, Note_off_c, 0, 70, 0
2, 213024, Note_on_c, 0, 65, 66
2, 213070, Note_off_c, 0, 65, 0
2, 213072, Note_on_c, 0, 62, 66
2, 213118, Note_off_c, 0, 62, 0
2, 213120, Note_on_c, 0, 70, 66
2, 213166, Note_off_c, 0, 70, 0
2, 213168, Note_on_c, 0, 65, 66
2, 213214, Note_off_c, 0, 65, 0
2, 213216, Note_on_c, 0, 62, 66
2, 213262, Note_off_c, 0, 62, 0
2, 213264, Note_on_c, 0, 65, 66
2, 213310, Note_off_c, 0, 65, 0
2, 213312, Note_on_c, 0, 70, 66
2, 213358, Note_off_c, 0, 70, 0
2, 213360, Note_on_c, 0, 65, 66
2, 213406, Note_off_c, 0, 65, 0
2, 213408, Note_on_c, 0, 74, 66
2, 213454, Note_off_c, 0, 74, 0
2, 213456, Note_on_c, 0, 70, 66
2, 213502, Note_off_c, 0, 70, 0
2, 213504, Note_on_c, 0, 77, 66
2, 213550, Note_off_c, 0, 77, 0
2, 213552, Note_on_c, 0, 74, 66
2, 213598, Note_off_c, 0, 74, 0
2, 213600, Note_on_c, 0, 70, 66
2, 213646, Note_off_c, 0, 70, 0
2, 213648, Note_on_c, 0, 65, 66
2, 213694, Note_off_c, 0, 65, 0
2, 213696, Note_on_c, 0, 74, 66
2, 213742, Note_off_c, 0, 74, 0
2, 213744, Note_on_c, 0, 70, 66
2, 213790, Note_off_c, 0, 70, 0
2, 213792, Note_on_c, 0, 65, 66
2, 213838, Note_off_c, 0, 65, 0
2, 213840, Note_on_c, 0, 70, 66
2, 213886, Note_off_c, 0, 70, 0
2, 213888, Note_on_c, 0, 74, 66
2, 213934, Note_off_c, 0, 74, 0
2, 213936, Note_on_c, 0, 70, 66
2, 213982, Note_off_c, 0, 70, 0
2, 213984, Note_on_c, 0, 77, 66
2, 214030, Note_off_c, 0, 77, 0
2, 214032, Note_on_c, 0, 74, 66
2, 214078, Note_off_c, 0, 74, 0
2, 214080, Note_on_c, 0, 82, 66
2, 214126, Note_off_c, 0, 82, 0
2, 214128, Note_on_c, 0, 77, 66
2, 214174, Note_off_c, 0, 77, 0
2, 214176, Note_on_c, 0, 74, 66
2, 214222, Note_off_c, 0, 74, 0
2, 214224, Note_on_c, 0, 70, 66
2, 214270, Note_off_c, 0, 70, 0
2, 214272, Note_on_c, 0, 77, 66
2, 214318, Note_off_c, 0, 77, 0
2, 214320, Note_on_c, 0, 74, 66
2, 214366, Note_off_c, 0, 74, 0
2, 214368, Note_on_c, 0, 70, 66
2, 214414, Note_off_c, 0, 70, 0
2, 214416, Note_on_c, 0, 74, 66
2, 214462, Note_off_c, 0, 74, 0
2, 214464, Note_on_c, 0, 77, 66
2, 214510, Note_off_c, 0, 77, 0
2, 214512, Note_on_c, 0, 74, 66
2, 214558, Note_off_c, 0, 74, 0
2, 214560, Note_on_c, 0, 82, 66
2, 214606, Note_off_c, 0, 82, 0
2, 214608, Note_on_c, 0, 77, 66
2, 214654, Note_off_c, 0, 77, 0
2, 214656, Note_on_c, 0, 86, 66
2, 214702, Note_off_c, 0, 86, 0
2, 214704, Note_on_c, 0, 82, 66
2, 214750, Note_off_c, 0, 82, 0
2, 214752, Note_on_c, 0, 77, 66
2, 214798, Note_off_c, 0, 77, 0
2, 214800, Note_on_c, 0, 74, 66
2, 214846, Note_off_c, 0, 74, 0
2, 214848, Note_on_c, 0, 82, 66
2, 214894, Note_off_c, 0, 82, 0
2, 214896, Note_on_c, 0, 77, 66
2, 214942, Note_off_c, 0, 77, 0
2, 214944, Note_on_c, 0, 74, 66
2, 214990, Note_off_c, 0, 74, 0
2, 214992, Note_on_c, 0, 77, 66
2, 215038, Note_off_c, 0, 77, 0
2, 215040, Note_on_c, 0, 82, 66
2, 215086, Note_off_c, 0, 82, 0
2, 215088, Note_on_c, 0, 77, 66
2, 215134, Note_off_c, 0, 77, 0
2, 215136, Note_on_c, 0, 86, 66
2, 215182, Note_off_c, 0, 86, 0
2, 215184, Note_on_c, 0, 82, 66
2, 215230, Note_off_c, 0, 82, 0
2, 215232, Note_on_c, 0, 89, 66
2, 215278, Note_off_c, 0, 89, 0
2, 215280, Note_on_c, 0, 86, 66
2, 215326, Note_off_c, 0, 86, 0
2, 215328, Note_on_c, 0, 82, 66
2, 215374, Note_off_c, 0, 82, 0
2, 215376, Note_on_c, 0, 77, 66
2, 215422, Note_off_c, 0, 77, 0
2, 215424, Note_on_c, 0, 82, 66
2, 215518, Note_off_c, 0, 82, 0
2, 215520, Note_on_c, 0, 70, 66
2, 215566, Note_off_c, 0, 70, 0
2, 215568, Note_on_c, 0, 82, 66
2, 215614, Note_off_c, 0, 82, 0
2, 215616, Note_on_c, 0, 74, 66
2, 215662, Note_off_c, 0, 74, 0
2, 215664, Note_on_c, 0, 86, 66
2, 215710, Note_off_c, 0, 86, 0
2, 215712, Note_on_c, 0, 77, 66
2, 215758, Note_off_c, 0, 77, 0
2, 215760, Note_on_c, 0, 89, 66
2, 215806, Note_off_c, 0, 89, 0
2, 215808, Note_on_c, 0, 77, 66
2, 215854, Note_off_c, 0, 77, 0
2, 215856, Note_on_c, 0, 89, 66
2, 215902, Note_off_c, 0, 89, 0
2, 215904, Note_on_c, 0, 77, 66
2, 215950, Note_off_c, 0, 77, 0
2, 215952, Note_on_c, 0, 89, 66
2, 215998, Note_off_c, 0, 89, 0
2, 216000, Note_on_c, 0, 74, 66
2, 216046, Note_off_c, 0, 74, 0
2, 216048, Note_on_c, 0, 86, 66
2, 216094, Note_off_c, 0, 86, 0
2, 216096, Note_on_c, 0, 70, 66
2, 216142, Note_off_c, 0, 70, 0
2, 216144, Note_on_c, 0, 82, 66
2, 216190, Note_off_c, 0, 82, 0
2, 216192, Note_on_c, 0, 74, 66
2, 216238, Note_off_c, 0, 74, 0
2, 216240, Note_on_c, 0, 86, 66
2, 216286, Note_off_c, 0, 86, 0
2, 216288, Note_on_c, 0, 77, 66
2, 216334, Note_off_c, 0, 77, 0
2, 216336, Note_on_c, 0, 89, 66
2, 216382, Note_off_c, 0, 89, 0
2, 216384, Note_on_c, 0, 77, 66
2, 216430, Note_off_c, 0, 77, 0
2, 216432, Note_on_c, 0, 89, 66
2, 216478, Note_off_c, 0, 89, 0
2, 216480, Note_on_c, 0, 77, 66
2, 216526, Note_off_c, 0, 77, 0
2, 216528, Note_on_c, 0, 89, 66
2, 216574, Note_off_c, 0, 89, 0
2, 216576, Note_on_c, 0, 82, 71
2, 216766, Note_off_c, 0, 82, 0
2, 216766, End_track
3, 0, Start_track
3, 0, Title_t, "Concerto  #15"
3, 0, Control_c, 1, 0, 0
3, 0, Program_c, 1, 0
3, 0, Control_c, 1, 7, 127
3, 0, Control_c, 1, 10, 63
3, 0, Control_c, 1, 91, 67
3, 0, Control_c, 1, 93, 48
3, 0, Key_signature, -2, "minor"
3, 0, Control_c, 1, 121, 0
3, 48, Control_c, 1, 10, 63
3, 96, Control_c, 1, 91, 63
3, 120, Control_c, 1, 93, 35
3, 144, Program_c, 1, 0
3, 576, Note_on_c, 1, 46, 66
3, 766, Note_off_c, 1, 46, 0
3, 1152, Note_on_c, 1, 58, 66
3, 1342, Note_off_c, 1, 58, 0
3, 1728, Note_on_c, 1, 46, 66
3, 1918, Note_off_c, 1, 46, 0
3, 2304, Note_on_c, 1, 58, 66
3, 2494, Note_off_c, 1, 58, 0
3, 2880, Note_on_c, 1, 46, 66
3, 3070, Note_off_c, 1, 46, 0
3, 3456, Note_on_c, 1, 58, 66
3, 3646, Note_off_c, 1, 58, 0
3, 4032, Note_on_c, 1, 58, 66
3, 4222, Note_off_c, 1, 58, 0
3, 4224, Note_on_c, 1, 55, 66
3, 4318, Note_off_c, 1, 55, 0
3, 4320, Note_on_c, 1, 51, 66
3, 4510, Note_off_c, 1, 51, 0
3, 4512, Note_on_c, 1, 48, 66
3, 4606, Note_off_c, 1, 48, 0
3, 4608, Note_on_c, 1, 53, 66
3, 4894, Note_off_c, 1, 53, 0
3, 4896, Note_on_c, 1, 41, 66
3, 5084, Note_off_c, 1, 41, 64
3, 5184, Note_on_c, 1, 46, 76
3, 5372, Note_off_c, 1, 46, 64
3, 5760, Note_on_c, 1, 58, 76
3, 5948, Note_off_c, 1, 58, 64
3, 6336, Note_on_c, 1, 46, 76
3, 6524, Note_off_c, 1, 46, 64
3, 6912, Note_on_c, 1, 58, 76
3, 7100, Note_off_c, 1, 58, 64
3, 7488, Note_on_c, 1, 46, 76
3, 7676, Note_off_c, 1, 46, 64
3, 8064, Note_on_c, 1, 58, 76
3, 8252, Note_off_c, 1, 58, 64
3, 8640, Note_on_c, 1, 58, 76
3, 8926, Note_off_c, 1, 58, 64
3, 8928, Note_on_c, 1, 53, 76
3, 9214, Note_off_c, 1, 53, 64
3, 9216, Note_on_c, 1, 46, 76
3, 9310, Note_off_c, 1, 46, 64
3, 9408, Note_on_c, 1, 53, 76
3, 9502, Note_off_c, 1, 53, 64
3, 9504, Note_on_c, 1, 53, 76
3, 9598, Note_off_c, 1, 53, 64
3, 9600, Note_on_c, 1, 53, 76
3, 9694, Note_off_c, 1, 53, 64
3, 9696, Note_on_c, 1, 53, 76
3, 9790, Note_off_c, 1, 53, 64
3, 9792, Note_on_c, 1, 53, 76
3, 9884, Note_off_c, 1, 53, 64
3, 9888, Note_on_c, 1, 50, 76
3, 9980, Note_off_c, 1, 50, 64
3, 9984, Note_on_c, 1, 53, 76
3, 10076, Note_off_c, 1, 53, 64
3, 10080, Note_on_c, 1, 53, 76
3, 10172, Note_off_c, 1, 53, 64
3, 10176, Note_on_c, 1, 58, 76
3, 10268, Note_off_c, 1, 58, 64
3, 10272, Note_on_c, 1, 53, 76
3, 10364, Note_off_c, 1, 53, 64
3, 10368, Note_on_c, 1, 53, 76
3, 10556, Note_off_c, 1, 53, 64
3, 10848, Note_on_c, 1, 57, 56
3, 10940, Note_off_c, 1, 57, 64
3, 10944, Note_on_c, 1, 58, 56
3, 11036, Note_off_c, 1, 58, 64
3, 11232, Note_on_c, 1, 53, 56
3, 11324, Note_off_c, 1, 53, 64
3, 11520, Note_on_c, 1, 46, 56
3, 11612, Note_off_c, 1, 46, 64
3, 11712, Note_on_c, 1, 53, 76
3, 11804, Note_off_c, 1, 53, 64
3, 11808, Note_on_c, 1, 53, 76
3, 11900, Note_off_c, 1, 53, 64
3, 11904, Note_on_c, 1, 53, 76
3, 11996, Note_off_c, 1, 53, 64
3, 12000, Note_on_c, 1, 53, 76
3, 12092, Note_off_c, 1, 53, 64
3, 12096, Note_on_c, 1, 53, 76
3, 12188, Note_off_c, 1, 53, 64
3, 12192, Note_on_c, 1, 50, 76
3, 12284, Note_off_c, 1, 50, 64
3, 12288, Note_on_c, 1, 53, 76
3, 12380, Note_off_c, 1, 53, 64
3, 12384, Note_on_c, 1, 53, 76
3, 12476, Note_off_c, 1, 53, 64
3, 12480, Note_on_c, 1, 58, 76
3, 12572, Note_off_c, 1, 58, 64
3, 12576, Note_on_c, 1, 53, 76
3, 12668, Note_off_c, 1, 53, 64
3, 12672, Note_on_c, 1, 53, 76
3, 12860, Note_off_c, 1, 53, 64
3, 12960, Note_on_c, 1, 50, 76
3, 13148, Note_off_c, 1, 50, 64
3, 13152, Note_on_c, 1, 53, 76
3, 13244, Note_off_c, 1, 53, 64
3, 13248, Note_on_c, 1, 53, 76
3, 13532, Note_off_c, 1, 53, 64
3, 13536, Note_on_c, 1, 58, 76
3, 13724, Note_off_c, 1, 58, 64
3, 13728, Note_on_c, 1, 53, 76
3, 13820, Note_off_c, 1, 53, 64
3, 13824, Note_on_c, 1, 53, 76
3, 14396, Note_off_c, 1, 53, 64
3, 14400, Note_on_c, 1, 50, 76
3, 14780, Note_off_c, 1, 50, 64
3, 14976, Note_on_c, 1, 50, 76
3, 15068, Note_off_c, 1, 50, 64
3, 15072, Note_on_c, 1, 50, 76
3, 15164, Note_off_c, 1, 50, 64
3, 15168, Note_on_c, 1, 50, 76
3, 15260, Note_off_c, 1, 50, 64
3, 15264, Note_on_c, 1, 50, 76
3, 15356, Note_off_c, 1, 50, 64
3, 15360, Note_on_c, 1, 50, 76
3, 15452, Note_off_c, 1, 50, 64
3, 15456, Note_on_c, 1, 50, 76
3, 15548, Note_off_c, 1, 50, 64
3, 15552, Note_on_c, 1, 51, 76
3, 15644, Note_off_c, 1, 51, 64
3, 15648, Note_on_c, 1, 51, 76
3, 15740, Note_off_c, 1, 51, 64
3, 15744, Note_on_c, 1, 51, 76
3, 15836, Note_off_c, 1, 51, 64
3, 15840, Note_on_c, 1, 51, 76
3, 15932, Note_off_c, 1, 51, 64
3, 15936, Note_on_c, 1, 51, 76
3, 16028, Note_off_c, 1, 51, 64
3, 16032, Note_on_c, 1, 51, 76
3, 16124, Note_off_c, 1, 51, 64
3, 16128, Note_on_c, 1, 53, 76
3, 16220, Note_off_c, 1, 53, 64
3, 16224, Note_on_c, 1, 53, 76
3, 16316, Note_off_c, 1, 53, 64
3, 16320, Note_on_c, 1, 53, 76
3, 16412, Note_off_c, 1, 53, 64
3, 16416, Note_on_c, 1, 53, 76
3, 16508, Note_off_c, 1, 53, 64
3, 16512, Note_on_c, 1, 53, 76
3, 16604, Note_off_c, 1, 53, 64
3, 16608, Note_on_c, 1, 53, 76
3, 16700, Note_off_c, 1, 53, 64
3, 16704, Note_on_c, 1, 58, 76
3, 16796, Note_off_c, 1, 58, 64
3, 16800, Note_on_c, 1, 58, 76
3, 16892, Note_off_c, 1, 58, 64
3, 16896, Note_on_c, 1, 58, 76
3, 16988, Note_off_c, 1, 58, 64
3, 16992, Note_on_c, 1, 58, 76
3, 17084, Note_off_c, 1, 58, 64
3, 17088, Note_on_c, 1, 58, 76
3, 17180, Note_off_c, 1, 58, 64
3, 17184, Note_on_c, 1, 58, 76
3, 17276, Note_off_c, 1, 58, 64
3, 17280, Note_on_c, 1, 50, 76
3, 17372, Note_off_c, 1, 50, 64
3, 17376, Note_on_c, 1, 50, 76
3, 17468, Note_off_c, 1, 50, 64
3, 17472, Note_on_c, 1, 50, 76
3, 17564, Note_off_c, 1, 50, 64
3, 17568, Note_on_c, 1, 50, 76
3, 17660, Note_off_c, 1, 50, 64
3, 17664, Note_on_c, 1, 50, 76
3, 17756, Note_off_c, 1, 50, 64
3, 17760, Note_on_c, 1, 50, 76
3, 17852, Note_off_c, 1, 50, 64
3, 17856, Note_on_c, 1, 51, 76
3, 17948, Note_off_c, 1, 51, 64
3, 17952, Note_on_c, 1, 51, 76
3, 18044, Note_off_c, 1, 51, 64
3, 18048, Note_on_c, 1, 51, 76
3, 18140, Note_off_c, 1, 51, 64
3, 18144, Note_on_c, 1, 51, 76
3, 18236, Note_off_c, 1, 51, 64
3, 18240, Note_on_c, 1, 51, 76
3, 18332, Note_off_c, 1, 51, 64
3, 18336, Note_on_c, 1, 51, 76
3, 18428, Note_off_c, 1, 51, 64
3, 18432, Note_on_c, 1, 53, 76
3, 18524, Note_off_c, 1, 53, 64
3, 18528, Note_on_c, 1, 53, 76
3, 18620, Note_off_c, 1, 53, 64
3, 18624, Note_on_c, 1, 53, 76
3, 18716, Note_off_c, 1, 53, 64
3, 18720, Note_on_c, 1, 53, 76
3, 18812, Note_off_c, 1, 53, 64
3, 18816, Note_on_c, 1, 53, 76
3, 18908, Note_off_c, 1, 53, 64
3, 18912, Note_on_c, 1, 53, 76
3, 19004, Note_off_c, 1, 53, 64
3, 19008, Note_on_c, 1, 46, 76
3, 19196, Note_off_c, 1, 46, 64
3, 19292, Control_c, 1, 64, 127
3, 19296, Note_on_c, 1, 50, 96
3, 19580, Note_off_c, 1, 50, 64
3, 19582, Control_c, 1, 64, 0
3, 19584, Note_on_c, 1, 51, 76
3, 19772, Note_off_c, 1, 51, 64
3, 19776, Note_on_c, 1, 52, 76
3, 19868, Note_off_c, 1, 52, 64
3, 19872, Note_on_c, 1, 53, 76
3, 20060, Note_off_c, 1, 53, 64
3, 20064, Note_on_c, 1, 54, 76
3, 20156, Note_off_c, 1, 54, 64
3, 20160, Note_on_c, 1, 55, 76
3, 20252, Note_off_c, 1, 55, 64
3, 20256, Note_on_c, 1, 55, 76
3, 20348, Note_off_c, 1, 55, 64
3, 20352, Note_on_c, 1, 55, 76
3, 20444, Note_off_c, 1, 55, 64
3, 20448, Note_on_c, 1, 56, 76
3, 20540, Note_off_c, 1, 56, 64
3, 20544, Note_on_c, 1, 56, 76
3, 20636, Note_off_c, 1, 56, 64
3, 20640, Note_on_c, 1, 56, 76
3, 20732, Note_off_c, 1, 56, 64
3, 20736, Note_on_c, 1, 55, 76
3, 20828, Note_off_c, 1, 55, 64
3, 20832, Note_on_c, 1, 55, 76
3, 20924, Note_off_c, 1, 55, 64
3, 20928, Note_on_c, 1, 55, 76
3, 21020, Note_off_c, 1, 55, 64
3, 21024, Note_on_c, 1, 54, 76
3, 21116, Note_off_c, 1, 54, 64
3, 21120, Note_on_c, 1, 54, 76
3, 21212, Note_off_c, 1, 54, 64
3, 21216, Note_on_c, 1, 54, 76
3, 21308, Note_off_c, 1, 54, 64
3, 21312, Note_on_c, 1, 53, 76
3, 21404, Note_off_c, 1, 53, 64
3, 21408, Note_on_c, 1, 53, 76
3, 21500, Note_off_c, 1, 53, 64
3, 21504, Note_on_c, 1, 53, 76
3, 21596, Note_off_c, 1, 53, 64
3, 21600, Note_on_c, 1, 51, 76
3, 21692, Note_off_c, 1, 51, 64
3, 21696, Note_on_c, 1, 51, 76
3, 21788, Note_off_c, 1, 51, 64
3, 21792, Note_on_c, 1, 51, 76
3, 21884, Note_off_c, 1, 51, 64
3, 21888, Note_on_c, 1, 53, 76
3, 21980, Note_off_c, 1, 53, 64
3, 21984, Note_on_c, 1, 53, 76
3, 22076, Note_off_c, 1, 53, 64
3, 22080, Note_on_c, 1, 53, 76
3, 22172, Note_off_c, 1, 53, 64
3, 22176, Note_on_c, 1, 41, 76
3, 22268, Note_off_c, 1, 41, 64
3, 22272, Note_on_c, 1, 41, 76
3, 22364, Note_off_c, 1, 41, 64
3, 22368, Note_on_c, 1, 41, 76
3, 22460, Note_off_c, 1, 41, 64
3, 22464, Note_on_c, 1, 46, 76
3, 22652, Note_off_c, 1, 46, 64
3, 22944, Note_on_c, 1, 53, 76
3, 23036, Note_off_c, 1, 53, 64
3, 23040, Note_on_c, 1, 46, 76
3, 23228, Note_off_c, 1, 46, 64
3, 23520, Note_on_c, 1, 53, 76
3, 23612, Note_off_c, 1, 53, 64
3, 23616, Note_on_c, 1, 46, 76
3, 23804, Note_off_c, 1, 46, 64
3, 23904, Note_on_c, 1, 58, 76
3, 24092, Note_off_c, 1, 58, 64
3, 24192, Note_on_c, 1, 46, 76
3, 24380, Note_off_c, 1, 46, 64
3, 27360, Note_on_c, 1, 53, 66
3, 27406, Note_off_c, 1, 53, 0
3, 27456, Note_on_c, 1, 57, 66
3, 27502, Note_off_c, 1, 57, 0
3, 27552, Note_on_c, 1, 60, 66
3, 27598, Note_off_c, 1, 60, 0
3, 27936, Note_on_c, 1, 50, 66
3, 27982, Note_off_c, 1, 50, 0
3, 28032, Note_on_c, 1, 53, 66
3, 28078, Note_off_c, 1, 53, 0
3, 28128, Note_on_c, 1, 58, 66
3, 28174, Note_off_c, 1, 58, 0
3, 28224, Note_on_c, 1, 51, 66
3, 28414, Note_off_c, 1, 51, 0
3, 31680, Note_on_c, 1, 60, 66
3, 31680, Note_on_c, 1, 57, 66
3, 31680, Note_on_c, 1, 53, 66
3, 31870, Note_off_c, 1, 60, 0
3, 31870, Note_off_c, 1, 57, 0
3, 31870, Note_off_c, 1, 53, 0
3, 32256, Note_on_c, 1, 58, 66
3, 32256, Note_on_c, 1, 53, 66
3, 32256, Note_on_c, 1, 50, 66
3, 32446, Note_off_c, 1, 58, 0
3, 32446, Note_off_c, 1, 53, 0
3, 32446, Note_off_c, 1, 50, 0
3, 32832, Note_on_c, 1, 63, 66
3, 32832, Note_on_c, 1, 51, 66
3, 33118, Note_off_c, 1, 63, 0
3, 33118, Note_off_c, 1, 51, 0
3, 33120, Note_on_c, 1, 65, 66
3, 33120, Note_on_c, 1, 53, 66
3, 33406, Note_off_c, 1, 65, 0
3, 33406, Note_off_c, 1, 53, 0
3, 33408, Note_on_c, 1, 67, 66
3, 33408, Note_on_c, 1, 55, 66
3, 33694, Note_off_c, 1, 67, 0
3, 33694, Note_off_c, 1, 55, 0
3, 33696, Note_on_c, 1, 57, 66
3, 33982, Note_off_c, 1, 57, 0
3, 33984, Note_on_c, 1, 58, 66
3, 34078, Note_off_c, 1, 58, 0
3, 34080, Note_on_c, 1, 57, 66
3, 34174, Note_off_c, 1, 57, 0
3, 34176, Note_on_c, 1, 58, 66
3, 34270, Note_off_c, 1, 58, 0
3, 34272, Note_on_c, 1, 51, 66
3, 34366, Note_off_c, 1, 51, 0
3, 34368, Note_on_c, 1, 53, 66
3, 34462, Note_off_c, 1, 53, 0
3, 34464, Note_on_c, 1, 41, 66
3, 34558, Note_off_c, 1, 41, 0
3, 34560, Note_on_c, 1, 43, 66
3, 34846, Note_off_c, 1, 43, 0
3, 34848, Note_on_c, 1, 45, 66
3, 35134, Note_off_c, 1, 45, 0
3, 35136, Note_on_c, 1, 46, 66
3, 35230, Note_off_c, 1, 46, 0
3, 35232, Note_on_c, 1, 45, 66
3, 35326, Note_off_c, 1, 45, 0
3, 35328, Note_on_c, 1, 46, 66
3, 35422, Note_off_c, 1, 46, 0
3, 35424, Note_on_c, 1, 39, 66
3, 35518, Note_off_c, 1, 39, 0
3, 35520, Note_on_c, 1, 41, 66
3, 35614, Note_off_c, 1, 41, 0
3, 35616, Note_on_c, 1, 41, 66
3, 35710, Note_off_c, 1, 41, 0
3, 35712, Note_on_c, 1, 34, 56
3, 35758, Note_off_c, 1, 34, 0
3, 35760, Note_on_c, 1, 46, 57
3, 35806, Note_off_c, 1, 46, 0
3, 35808, Note_on_c, 1, 45, 59
3, 35854, Note_off_c, 1, 45, 0
3, 35856, Note_on_c, 1, 46, 61
3, 35902, Note_off_c, 1, 46, 0
3, 35904, Note_on_c, 1, 36, 63
3, 35950, Note_off_c, 1, 36, 0
3, 35952, Note_on_c, 1, 48, 65
3, 35998, Note_off_c, 1, 48, 0
3, 36000, Note_on_c, 1, 38, 67
3, 36046, Note_off_c, 1, 38, 0
3, 36048, Note_on_c, 1, 50, 68
3, 36094, Note_off_c, 1, 50, 0
3, 36096, Note_on_c, 1, 48, 70
3, 36142, Note_off_c, 1, 48, 0
3, 36144, Note_on_c, 1, 50, 72
3, 36190, Note_off_c, 1, 50, 0
3, 36192, Note_on_c, 1, 39, 74
3, 36238, Note_off_c, 1, 39, 0
3, 36240, Note_on_c, 1, 51, 76
3, 36286, Note_off_c, 1, 51, 0
3, 36288, Note_on_c, 1, 53, 66
3, 36288, Note_on_c, 1, 41, 66
3, 36478, Note_off_c, 1, 53, 0
3, 36478, Note_off_c, 1, 41, 0
3, 36864, Note_on_c, 1, 34, 56
3, 36910, Note_off_c, 1, 34, 0
3, 36912, Note_on_c, 1, 46, 57
3, 36958, Note_off_c, 1, 46, 0
3, 36960, Note_on_c, 1, 45, 59
3, 37006, Note_off_c, 1, 45, 0
3, 37008, Note_on_c, 1, 46, 61
3, 37054, Note_off_c, 1, 46, 0
3, 37056, Note_on_c, 1, 36, 63
3, 37102, Note_off_c, 1, 36, 0
3, 37104, Note_on_c, 1, 48, 65
3, 37150, Note_off_c, 1, 48, 0
3, 37152, Note_on_c, 1, 38, 67
3, 37198, Note_off_c, 1, 38, 0
3, 37200, Note_on_c, 1, 50, 68
3, 37246, Note_off_c, 1, 50, 0
3, 37248, Note_on_c, 1, 48, 70
3, 37294, Note_off_c, 1, 48, 0
3, 37296, Note_on_c, 1, 50, 72
3, 37342, Note_off_c, 1, 50, 0
3, 37344, Note_on_c, 1, 39, 74
3, 37390, Note_off_c, 1, 39, 0
3, 37392, Note_on_c, 1, 51, 76
3, 37438, Note_off_c, 1, 51, 0
3, 37440, Note_on_c, 1, 53, 66
3, 37440, Note_on_c, 1, 41, 66
3, 37630, Note_off_c, 1, 53, 0
3, 37630, Note_off_c, 1, 41, 0
3, 38016, Note_on_c, 1, 58, 66
3, 38016, Note_on_c, 1, 46, 66
3, 38206, Note_off_c, 1, 58, 0
3, 38206, Note_off_c, 1, 46, 0
3, 38496, Note_on_c, 1, 53, 66
3, 38496, Note_on_c, 1, 41, 66
3, 38590, Note_off_c, 1, 53, 0
3, 38590, Note_off_c, 1, 41, 0
3, 38592, Note_on_c, 1, 58, 66
3, 38592, Note_on_c, 1, 46, 66
3, 38686, Note_off_c, 1, 58, 0
3, 38686, Note_off_c, 1, 46, 0
3, 39072, Note_on_c, 1, 53, 66
3, 39072, Note_on_c, 1, 41, 66
3, 39166, Note_off_c, 1, 53, 0
3, 39166, Note_off_c, 1, 41, 0
3, 39168, Note_on_c, 1, 46, 67
3, 39262, Note_off_c, 1, 46, 0
3, 39264, Note_on_c, 1, 45, 68
3, 39310, Note_off_c, 1, 45, 0
3, 39312, Note_on_c, 1, 46, 68
3, 39358, Note_off_c, 1, 46, 0
3, 39360, Note_on_c, 1, 48, 69
3, 39406, Note_off_c, 1, 48, 0
3, 39408, Note_on_c, 1, 50, 69
3, 39454, Note_off_c, 1, 50, 0
3, 39456, Note_on_c, 1, 51, 70
3, 39502, Note_off_c, 1, 51, 0
3, 39504, Note_on_c, 1, 48, 71
3, 39550, Note_off_c, 1, 48, 0
3, 39552, Note_on_c, 1, 46, 71
3, 39598, Note_off_c, 1, 46, 0
3, 39600, Note_on_c, 1, 48, 72
3, 39646, Note_off_c, 1, 48, 0
3, 39648, Note_on_c, 1, 50, 72
3, 39694, Note_off_c, 1, 50, 0
3, 39696, Note_on_c, 1, 51, 73
3, 39742, Note_off_c, 1, 51, 0
3, 39744, Note_on_c, 1, 53, 73
3, 39790, Note_off_c, 1, 53, 0
3, 39792, Note_on_c, 1, 50, 74
3, 39838, Note_off_c, 1, 50, 0
3, 39840, Note_on_c, 1, 48, 75
3, 39886, Note_off_c, 1, 48, 0
3, 39888, Note_on_c, 1, 50, 75
3, 39934, Note_off_c, 1, 50, 0
3, 39936, Note_on_c, 1, 51, 76
3, 39982, Note_off_c, 1, 51, 0
3, 39984, Note_on_c, 1, 53, 76
3, 40030, Note_off_c, 1, 53, 0
3, 40032, Note_on_c, 1, 55, 77
3, 40078, Note_off_c, 1, 55, 0
3, 40080, Note_on_c, 1, 53, 77
3, 40126, Note_off_c, 1, 53, 0
3, 40128, Note_on_c, 1, 51, 78
3, 40174, Note_off_c, 1, 51, 0
3, 40176, Note_on_c, 1, 53, 79
3, 40222, Note_off_c, 1, 53, 0
3, 40224, Note_on_c, 1, 55, 79
3, 40270, Note_off_c, 1, 55, 0
3, 40272, Note_on_c, 1, 57, 80
3, 40318, Note_off_c, 1, 57, 0
3, 40320, Note_on_c, 1, 58, 80
3, 40366, Note_off_c, 1, 58, 0
3, 40368, Note_on_c, 1, 60, 81
3, 40414, Note_off_c, 1, 60, 0
3, 40416, Note_on_c, 1, 62, 81
3, 40462, Note_off_c, 1, 62, 0
3, 40464, Note_on_c, 1, 60, 82
3, 40510, Note_off_c, 1, 60, 0
3, 40512, Note_on_c, 1, 58, 81
3, 40558, Note_off_c, 1, 58, 0
3, 40560, Note_on_c, 1, 57, 81
3, 40606, Note_off_c, 1, 57, 0
3, 40608, Note_on_c, 1, 55, 80
3, 40654, Note_off_c, 1, 55, 0
3, 40656, Note_on_c, 1, 57, 79
3, 40702, Note_off_c, 1, 57, 0
3, 40704, Note_on_c, 1, 58, 79
3, 40750, Note_off_c, 1, 58, 0
3, 40752, Note_on_c, 1, 57, 78
3, 40798, Note_off_c, 1, 57, 0
3, 40800, Note_on_c, 1, 55, 77
3, 40846, Note_off_c, 1, 55, 0
3, 40848, Note_on_c, 1, 53, 77
3, 40894, Note_off_c, 1, 53, 0
3, 40896, Note_on_c, 1, 51, 76
3, 40942, Note_off_c, 1, 51, 0
3, 40944, Note_on_c, 1, 53, 75
3, 40990, Note_off_c, 1, 53, 0
3, 40992, Note_on_c, 1, 55, 75
3, 41038, Note_off_c, 1, 55, 0
3, 41040, Note_on_c, 1, 53, 74
3, 41086, Note_off_c, 1, 53, 0
3, 41088, Note_on_c, 1, 51, 73
3, 41134, Note_off_c, 1, 51, 0
3, 41136, Note_on_c, 1, 50, 73
3, 41182, Note_off_c, 1, 50, 0
3, 41184, Note_on_c, 1, 48, 72
3, 41230, Note_off_c, 1, 48, 0
3, 41232, Note_on_c, 1, 50, 71
3, 41278, Note_off_c, 1, 50, 0
3, 41280, Note_on_c, 1, 51, 71
3, 41326, Note_off_c, 1, 51, 0
3, 41328, Note_on_c, 1, 50, 70
3, 41374, Note_off_c, 1, 50, 0
3, 41376, Note_on_c, 1, 48, 69
3, 41422, Note_off_c, 1, 48, 0
3, 41424, Note_on_c, 1, 46, 69
3, 41470, Note_off_c, 1, 46, 0
3, 41472, Note_on_c, 1, 53, 68
3, 41568, Note_on_c, 1, 53, 67
3, 41660, Note_off_c, 1, 53, 64
3, 41662, Note_off_c, 1, 53, 0
3, 41664, Note_on_c, 1, 53, 66
3, 41756, Note_off_c, 1, 53, 64
3, 41760, Note_on_c, 1, 53, 66
3, 41852, Note_off_c, 1, 53, 64
3, 41856, Note_on_c, 1, 53, 66
3, 41948, Note_off_c, 1, 53, 64
3, 41952, Note_on_c, 1, 53, 66
3, 42044, Note_off_c, 1, 53, 64
3, 42048, Note_on_c, 1, 53, 66
3, 42140, Note_off_c, 1, 53, 64
3, 42144, Note_on_c, 1, 53, 66
3, 42236, Note_off_c, 1, 53, 64
3, 42240, Note_on_c, 1, 53, 66
3, 42332, Note_off_c, 1, 53, 64
3, 42336, Note_on_c, 1, 53, 66
3, 42428, Note_off_c, 1, 53, 64
3, 42432, Note_on_c, 1, 53, 66
3, 42524, Note_off_c, 1, 53, 64
3, 42528, Note_on_c, 1, 53, 66
3, 42620, Note_off_c, 1, 53, 64
3, 42624, Note_on_c, 1, 53, 66
3, 42716, Note_off_c, 1, 53, 64
3, 42816, Note_on_c, 1, 53, 66
3, 42860, Note_off_c, 1, 53, 64
3, 42864, Note_on_c, 1, 55, 66
3, 42908, Note_off_c, 1, 55, 64
3, 42912, Note_on_c, 1, 57, 66
3, 43004, Note_off_c, 1, 57, 64
3, 43104, Note_on_c, 1, 55, 66
3, 43148, Note_off_c, 1, 55, 64
3, 43152, Note_on_c, 1, 57, 66
3, 43196, Note_off_c, 1, 57, 64
3, 43200, Note_on_c, 1, 57, 66
3, 43292, Note_off_c, 1, 57, 64
3, 43392, Note_on_c, 1, 55, 66
3, 43436, Note_off_c, 1, 55, 64
3, 43440, Note_on_c, 1, 57, 66
3, 43484, Note_off_c, 1, 57, 64
3, 43488, Note_on_c, 1, 59, 66
3, 43580, Note_off_c, 1, 59, 64
3, 43680, Note_on_c, 1, 57, 66
3, 43724, Note_off_c, 1, 57, 64
3, 43728, Note_on_c, 1, 59, 66
3, 43772, Note_off_c, 1, 59, 64
3, 43776, Note_on_c, 1, 60, 66
3, 43966, Note_off_c, 1, 60, 0
3, 44640, Note_on_c, 1, 58, 66
3, 44640, Note_on_c, 1, 46, 66
3, 44926, Note_off_c, 1, 58, 0
3, 44926, Note_off_c, 1, 46, 0
3, 44928, Note_on_c, 1, 57, 66
3, 44928, Note_on_c, 1, 45, 66
3, 45022, Note_off_c, 1, 57, 0
3, 45022, Note_off_c, 1, 45, 0
3, 45792, Note_on_c, 1, 58, 66
3, 45792, Note_on_c, 1, 46, 66
3, 46078, Note_off_c, 1, 58, 0
3, 46078, Note_off_c, 1, 46, 0
3, 46080, Note_on_c, 1, 57, 66
3, 46080, Note_on_c, 1, 45, 66
3, 46174, Note_off_c, 1, 57, 0
3, 46174, Note_off_c, 1, 45, 0
3, 46944, Note_on_c, 1, 36, 66
3, 46990, Note_off_c, 1, 36, 0
3, 46992, Note_on_c, 1, 48, 66
3, 47038, Note_off_c, 1, 48, 0
3, 47040, Note_on_c, 1, 38, 66
3, 47086, Note_off_c, 1, 38, 0
3, 47088, Note_on_c, 1, 50, 66
3, 47134, Note_off_c, 1, 50, 0
3, 47136, Note_on_c, 1, 40, 66
3, 47182, Note_off_c, 1, 40, 0
3, 47184, Note_on_c, 1, 52, 66
3, 47230, Note_off_c, 1, 52, 0
3, 47232, Note_on_c, 1, 41, 66
3, 47278, Note_off_c, 1, 41, 0
3, 47280, Note_on_c, 1, 53, 66
3, 47326, Note_off_c, 1, 53, 0
3, 47328, Note_on_c, 1, 43, 66
3, 47374, Note_off_c, 1, 43, 0
3, 47376, Note_on_c, 1, 55, 66
3, 47422, Note_off_c, 1, 55, 0
3, 47424, Note_on_c, 1, 45, 66
3, 47470, Note_off_c, 1, 45, 0
3, 47472, Note_on_c, 1, 57, 66
3, 47518, Note_off_c, 1, 57, 0
3, 49824, Note_on_c, 1, 46, 66
3, 49870, Note_off_c, 1, 46, 0
3, 49872, Note_on_c, 1, 58, 66
3, 49918, Note_off_c, 1, 58, 0
3, 49920, Note_on_c, 1, 45, 66
3, 49966, Note_off_c, 1, 45, 0
3, 49968, Note_on_c, 1, 57, 66
3, 50014, Note_off_c, 1, 57, 0
3, 50016, Note_on_c, 1, 46, 66
3, 50062, Note_off_c, 1, 46, 0
3, 50064, Note_on_c, 1, 58, 66
3, 50110, Note_off_c, 1, 58, 0
3, 50112, Note_on_c, 1, 52, 66
3, 50206, Note_off_c, 1, 52, 0
3, 50400, Note_on_c, 1, 45, 66
3, 50446, Note_off_c, 1, 45, 0
3, 50448, Note_on_c, 1, 57, 66
3, 50494, Note_off_c, 1, 57, 0
3, 50496, Note_on_c, 1, 44, 66
3, 50542, Note_off_c, 1, 44, 0
3, 50544, Note_on_c, 1, 56, 66
3, 50590, Note_off_c, 1, 56, 0
3, 50592, Note_on_c, 1, 45, 66
3, 50638, Note_off_c, 1, 45, 0
3, 50640, Note_on_c, 1, 57, 66
3, 50686, Note_off_c, 1, 57, 0
3, 50688, Note_on_c, 1, 50, 66
3, 50782, Note_off_c, 1, 50, 0
3, 52992, Note_on_c, 1, 53, 66
3, 53086, Note_off_c, 1, 53, 0
3, 53088, Note_on_c, 1, 57, 66
3, 53182, Note_off_c, 1, 57, 0
3, 53184, Note_on_c, 1, 60, 66
3, 53278, Note_off_c, 1, 60, 0
3, 53280, Note_on_c, 1, 65, 66
3, 53374, Note_off_c, 1, 65, 0
3, 53376, Note_on_c, 1, 60, 66
3, 53470, Note_off_c, 1, 60, 0
3, 53472, Note_on_c, 1, 57, 66
3, 53566, Note_off_c, 1, 57, 0
3, 53568, Note_on_c, 1, 53, 66
3, 53662, Note_off_c, 1, 53, 0
3, 53664, Note_on_c, 1, 57, 66
3, 53758, Note_off_c, 1, 57, 0
3, 53760, Note_on_c, 1, 60, 66
3, 53854, Note_off_c, 1, 60, 0
3, 53856, Note_on_c, 1, 65, 66
3, 53950, Note_off_c, 1, 65, 0
3, 53952, Note_on_c, 1, 60, 66
3, 54046, Note_off_c, 1, 60, 0
3, 54048, Note_on_c, 1, 57, 66
3, 54142, Note_off_c, 1, 57, 0
3, 54144, Note_on_c, 1, 53, 66
3, 54238, Note_off_c, 1, 53, 0
3, 54240, Note_on_c, 1, 58, 66
3, 54334, Note_off_c, 1, 58, 0
3, 54336, Note_on_c, 1, 62, 66
3, 54430, Note_off_c, 1, 62, 0
3, 54432, Note_on_c, 1, 65, 66
3, 54526, Note_off_c, 1, 65, 0
3, 54528, Note_on_c, 1, 62, 66
3, 54622, Note_off_c, 1, 62, 0
3, 54624, Note_on_c, 1, 58, 66
3, 54718, Note_off_c, 1, 58, 0
3, 54720, Note_on_c, 1, 53, 66
3, 54814, Note_off_c, 1, 53, 0
3, 54816, Note_on_c, 1, 55, 66
3, 54910, Note_off_c, 1, 55, 0
3, 54912, Note_on_c, 1, 58, 66
3, 55006, Note_off_c, 1, 58, 0
3, 55008, Note_on_c, 1, 64, 66
3, 55102, Note_off_c, 1, 64, 0
3, 55104, Note_on_c, 1, 58, 66
3, 55198, Note_off_c, 1, 58, 0
3, 55200, Note_on_c, 1, 55, 66
3, 55294, Note_off_c, 1, 55, 0
3, 55296, Note_on_c, 1, 53, 66
3, 55390, Note_off_c, 1, 53, 0
3, 55392, Note_on_c, 1, 57, 66
3, 55486, Note_off_c, 1, 57, 0
3, 55488, Note_on_c, 1, 60, 66
3, 55582, Note_off_c, 1, 60, 0
3, 55584, Note_on_c, 1, 65, 66
3, 55678, Note_off_c, 1, 65, 0
3, 55680, Note_on_c, 1, 60, 66
3, 55774, Note_off_c, 1, 60, 0
3, 55776, Note_on_c, 1, 57, 66
3, 55776, Note_on_c, 1, 57, 66
3, 55870, Note_off_c, 1, 57, 0
3, 55870, Note_off_c, 1, 57, 0
3, 55872, Note_on_c, 1, 53, 66
3, 55966, Note_off_c, 1, 53, 0
3, 55968, Note_on_c, 1, 57, 66
3, 56062, Note_off_c, 1, 57, 0
3, 56064, Note_on_c, 1, 60, 66
3, 56158, Note_off_c, 1, 60, 0
3, 56160, Note_on_c, 1, 65, 66
3, 56254, Note_off_c, 1, 65, 0
3, 56256, Note_on_c, 1, 60, 66
3, 56350, Note_off_c, 1, 60, 0
3, 56352, Note_on_c, 1, 57, 66
3, 56446, Note_off_c, 1, 57, 0
3, 56448, Note_on_c, 1, 53, 66
3, 56542, Note_off_c, 1, 53, 0
3, 56544, Note_on_c, 1, 58, 66
3, 56638, Note_off_c, 1, 58, 0
3, 56640, Note_on_c, 1, 62, 66
3, 56734, Note_off_c, 1, 62, 0
3, 56736, Note_on_c, 1, 65, 66
3, 56830, Note_off_c, 1, 65, 0
3, 56832, Note_on_c, 1, 62, 66
3, 56926, Note_off_c, 1, 62, 0
3, 56928, Note_on_c, 1, 58, 66
3, 57022, Note_off_c, 1, 58, 0
3, 57024, Note_on_c, 1, 53, 66
3, 57118, Note_off_c, 1, 53, 0
3, 57120, Note_on_c, 1, 55, 66
3, 57214, Note_off_c, 1, 55, 0
3, 57216, Note_on_c, 1, 58, 66
3, 57310, Note_off_c, 1, 58, 0
3, 57312, Note_on_c, 1, 64, 66
3, 57406, Note_off_c, 1, 64, 0
3, 57408, Note_on_c, 1, 58, 66
3, 57502, Note_off_c, 1, 58, 0
3, 57504, Note_on_c, 1, 55, 66
3, 57598, Note_off_c, 1, 55, 0
3, 57600, Note_on_c, 1, 53, 66
3, 57790, Note_off_c, 1, 53, 0
3, 58176, Note_on_c, 1, 53, 66
3, 58366, Note_off_c, 1, 53, 0
3, 58752, Note_on_c, 1, 53, 66
3, 58942, Note_off_c, 1, 53, 0
3, 59328, Note_on_c, 1, 53, 66
3, 59518, Note_off_c, 1, 53, 0
3, 59904, Note_on_c, 1, 53, 66
3, 60094, Note_off_c, 1, 53, 0
3, 60480, Note_on_c, 1, 53, 66
3, 60670, Note_off_c, 1, 53, 0
3, 61056, Note_on_c, 1, 53, 66
3, 61246, Note_off_c, 1, 53, 0
3, 61632, Note_on_c, 1, 53, 66
3, 61822, Note_off_c, 1, 53, 0
3, 62208, Note_on_c, 1, 53, 66
3, 62208, Note_on_c, 1, 57, 66
3, 62398, Note_off_c, 1, 53, 0
3, 62398, Note_off_c, 1, 57, 0
3, 62496, Note_on_c, 1, 53, 67
3, 62496, Note_on_c, 1, 57, 67
3, 62686, Note_off_c, 1, 53, 0
3, 62686, Note_off_c, 1, 57, 0
3, 62784, Note_on_c, 1, 53, 69
3, 62784, Note_on_c, 1, 57, 69
3, 62784, Note_on_c, 1, 60, 69
3, 62974, Note_off_c, 1, 53, 0
3, 62974, Note_off_c, 1, 57, 0
3, 62974, Note_off_c, 1, 60, 0
3, 63072, Note_on_c, 1, 53, 71
3, 63072, Note_on_c, 1, 57, 71
3, 63072, Note_on_c, 1, 60, 71
3, 63262, Note_off_c, 1, 53, 0
3, 63262, Note_off_c, 1, 57, 0
3, 63262, Note_off_c, 1, 60, 0
3, 63360, Note_on_c, 1, 53, 73
3, 63360, Note_on_c, 1, 57, 73
3, 63360, Note_on_c, 1, 60, 73
3, 63550, Note_off_c, 1, 53, 0
3, 63550, Note_off_c, 1, 57, 0
3, 63550, Note_off_c, 1, 60, 0
3, 63648, Note_on_c, 1, 53, 75
3, 63648, Note_on_c, 1, 57, 75
3, 63648, Note_on_c, 1, 60, 75
3, 63838, Note_off_c, 1, 53, 0
3, 63838, Note_off_c, 1, 57, 0
3, 63838, Note_off_c, 1, 60, 0
3, 63936, Note_on_c, 1, 53, 77
3, 63936, Note_on_c, 1, 57, 77
3, 63936, Note_on_c, 1, 60, 77
3, 63936, Note_on_c, 1, 63, 77
3, 64126, Note_off_c, 1, 53, 0
3, 64126, Note_off_c, 1, 57, 0
3, 64126, Note_off_c, 1, 60, 0
3, 64126, Note_off_c, 1, 63, 0
3, 64510, Control_c, 1, 64, 127
3, 64512, Note_on_c, 1, 53, 81
3, 64512, Note_on_c, 1, 57, 81
3, 64512, Note_on_c, 1, 60, 81
3, 65086, Note_off_c, 1, 53, 0
3, 65086, Note_off_c, 1, 57, 0
3, 65086, Note_off_c, 1, 60, 0
3, 65086, Control_c, 1, 64, 0
3, 65544, Note_on_c, 1, 58, 66
3, 65566, Note_off_c, 1, 58, 0
3, 65568, Note_on_c, 1, 57, 66
3, 65590, Note_off_c, 1, 57, 0
3, 65592, Note_on_c, 1, 55, 66
3, 65614, Note_off_c, 1, 55, 0
3, 65616, Note_on_c, 1, 53, 66
3, 65638, Note_off_c, 1, 53, 0
3, 65640, Note_on_c, 1, 52, 66
3, 65662, Note_off_c, 1, 52, 0
3, 65664, Note_on_c, 1, 51, 66
3, 65686, Note_off_c, 1, 51, 0
3, 65688, Note_on_c, 1, 50, 66
3, 65710, Note_off_c, 1, 50, 0
3, 65712, Note_on_c, 1, 48, 66
3, 65734, Note_off_c, 1, 48, 0
3, 65736, Note_on_c, 1, 46, 66
3, 65758, Note_off_c, 1, 46, 0
3, 65760, Note_on_c, 1, 45, 66
3, 65782, Note_off_c, 1, 45, 0
3, 65784, Note_on_c, 1, 43, 66
3, 65806, Note_off_c, 1, 43, 0
3, 65808, Note_on_c, 1, 41, 66
3, 65830, Note_off_c, 1, 41, 0
3, 65832, Note_on_c, 1, 40, 66
3, 65854, Note_off_c, 1, 40, 0
3, 65856, Note_on_c, 1, 39, 66
3, 66046, Note_off_c, 1, 39, 0
3, 66048, Note_on_c, 1, 38, 66
3, 66238, Note_off_c, 1, 38, 0
3, 66240, Note_on_c, 1, 36, 66
3, 66430, Note_off_c, 1, 36, 0
3, 66432, Note_on_c, 1, 34, 66
3, 66622, Note_off_c, 1, 34, 0
3, 66622, Control_c, 1, 64, 127
3, 66624, Note_on_c, 1, 33, 66
3, 66816, Note_on_c, 1, 53, 66
3, 67102, Note_off_c, 1, 33, 64
3, 67102, Note_off_c, 1, 53, 0
3, 67102, Control_c, 1, 64, 0
3, 67104, Note_on_c, 1, 53, 66
3, 67152, Note_on_c, 1, 57, 66
3, 67198, Note_off_c, 1, 53, 0
3, 67198, Note_off_c, 1, 57, 0
3, 67200, Note_on_c, 1, 60, 66
3, 67246, Note_off_c, 1, 60, 0
3, 67248, Note_on_c, 1, 63, 66
3, 67294, Note_off_c, 1, 63, 0
3, 68160, Note_on_c, 1, 51, 66
3, 68160, Note_on_c, 1, 48, 66
3, 68160, Note_on_c, 1, 45, 66
3, 68160, Note_on_c, 1, 41, 66
3, 68160, Note_on_c, 1, 53, 66
3, 68542, Note_off_c, 1, 51, 0
3, 68542, Note_off_c, 1, 48, 0
3, 68542, Note_off_c, 1, 45, 0
3, 68542, Note_off_c, 1, 41, 0
3, 68592, Note_on_c, 1, 53, 66
3, 68614, Note_off_c, 1, 53, 0
3, 68616, Note_on_c, 1, 55, 66
3, 68638, Note_off_c, 1, 55, 0
3, 68640, Note_on_c, 1, 53, 66
3, 68662, Note_off_c, 1, 53, 0
3, 68664, Note_on_c, 1, 52, 66
3, 68686, Note_off_c, 1, 52, 0
3, 68688, Note_on_c, 1, 53, 66
3, 68710, Note_off_c, 1, 53, 0
3, 68712, Note_on_c, 1, 55, 66
3, 68734, Note_off_c, 1, 53, 0
3, 68734, Note_off_c, 1, 55, 0
3, 68736, Note_on_c, 1, 57, 66
3, 68758, Note_off_c, 1, 57, 0
3, 68760, Note_on_c, 1, 58, 66
3, 68782, Note_off_c, 1, 58, 0
3, 69120, Note_on_c, 1, 53, 66
3, 69120, Note_on_c, 1, 57, 66
3, 69120, Note_on_c, 1, 60, 66
3, 69120, Note_on_c, 1, 63, 66
3, 69310, Note_off_c, 1, 53, 0
3, 69310, Note_off_c, 1, 57, 0
3, 69310, Note_off_c, 1, 60, 0
3, 69310, Note_off_c, 1, 63, 0
3, 69696, Note_on_c, 1, 63, 66
3, 69696, Note_on_c, 1, 60, 66
3, 69696, Note_on_c, 1, 57, 66
3, 69696, Note_on_c, 1, 53, 66
3, 69886, Note_off_c, 1, 63, 0
3, 69886, Note_off_c, 1, 60, 0
3, 69886, Note_off_c, 1, 57, 0
3, 69886, Note_off_c, 1, 53, 0
3, 70272, Note_on_c, 1, 53, 66
3, 70272, Note_on_c, 1, 57, 66
3, 70272, Note_on_c, 1, 60, 66
3, 70272, Note_on_c, 1, 63, 66
3, 70462, Note_off_c, 1, 53, 0
3, 70462, Note_off_c, 1, 57, 0
3, 70462, Note_off_c, 1, 60, 0
3, 70462, Note_off_c, 1, 63, 0
3, 71040, Note_on_c, 1, 60, 66
3, 71134, Note_off_c, 1, 60, 0
3, 71136, Note_on_c, 1, 60, 66
3, 71230, Note_off_c, 1, 60, 0
3, 71232, Note_on_c, 1, 62, 66
3, 71326, Note_off_c, 1, 62, 0
3, 71328, Note_on_c, 1, 63, 66
3, 71422, Note_off_c, 1, 63, 0
3, 71424, Note_on_c, 1, 63, 66
3, 71518, Note_off_c, 1, 63, 0
3, 71520, Note_on_c, 1, 57, 66
3, 71614, Note_off_c, 1, 57, 0
3, 71616, Note_on_c, 1, 63, 66
3, 71710, Note_off_c, 1, 63, 0
3, 71712, Note_on_c, 1, 63, 66
3, 71806, Note_off_c, 1, 63, 0
3, 71808, Note_on_c, 1, 55, 66
3, 71902, Note_off_c, 1, 55, 0
3, 71904, Note_on_c, 1, 63, 66
3, 71998, Note_off_c, 1, 63, 0
3, 72000, Note_on_c, 1, 53, 66
3, 72094, Note_off_c, 1, 53, 0
3, 72096, Note_on_c, 1, 58, 66
3, 72190, Note_off_c, 1, 58, 0
3, 72192, Note_on_c, 1, 57, 66
3, 72286, Note_off_c, 1, 57, 0
3, 72288, Note_on_c, 1, 56, 66
3, 72382, Note_off_c, 1, 56, 0
3, 72384, Note_on_c, 1, 55, 66
3, 72478, Note_off_c, 1, 55, 0
3, 72480, Note_on_c, 1, 54, 66
3, 72574, Note_off_c, 1, 54, 0
3, 72576, Note_on_c, 1, 53, 66
3, 72670, Note_off_c, 1, 53, 0
3, 72672, Note_on_c, 1, 58, 66
3, 72766, Note_off_c, 1, 58, 0
3, 72768, Note_on_c, 1, 57, 66
3, 72862, Note_off_c, 1, 57, 0
3, 72864, Note_on_c, 1, 56, 66
3, 72958, Note_off_c, 1, 56, 0
3, 72960, Note_on_c, 1, 55, 66
3, 73054, Note_off_c, 1, 55, 0
3, 73056, Note_on_c, 1, 54, 66
3, 73150, Note_off_c, 1, 54, 0
3, 73152, Note_on_c, 1, 53, 66
3, 73152, Note_on_c, 1, 41, 66
3, 73726, Note_off_c, 1, 53, 0
3, 73726, Note_off_c, 1, 41, 0
3, 73728, Note_on_c, 1, 53, 66
3, 73728, Note_on_c, 1, 41, 66
3, 74302, Note_off_c, 1, 53, 0
3, 74302, Note_off_c, 1, 41, 0
3, 74400, Note_on_c, 1, 41, 66
3, 74494, Note_off_c, 1, 41, 0
3, 74496, Note_on_c, 1, 48, 66
3, 74590, Note_off_c, 1, 48, 0
3, 74592, Note_on_c, 1, 45, 66
3, 74686, Note_off_c, 1, 45, 0
3, 74688, Note_on_c, 1, 53, 66
3, 74782, Note_off_c, 1, 53, 0
3, 74784, Note_on_c, 1, 48, 66
3, 74878, Note_off_c, 1, 48, 0
3, 74880, Note_on_c, 1, 57, 66
3, 74974, Note_off_c, 1, 57, 0
3, 74976, Note_on_c, 1, 53, 66
3, 75070, Note_off_c, 1, 53, 0
3, 75072, Note_on_c, 1, 60, 66
3, 75166, Note_off_c, 1, 60, 0
3, 75168, Note_on_c, 1, 57, 66
3, 75262, Note_off_c, 1, 57, 0
3, 78912, Note_on_c, 1, 46, 66
3, 79102, Note_off_c, 1, 46, 0
3, 79488, Note_on_c, 1, 58, 66
3, 79678, Note_off_c, 1, 58, 0
3, 80064, Note_on_c, 1, 46, 66
3, 80254, Note_off_c, 1, 46, 0
3, 80640, Note_on_c, 1, 58, 66
3, 80830, Note_off_c, 1, 58, 0
3, 81216, Note_on_c, 1, 46, 66
3, 81406, Note_off_c, 1, 46, 0
3, 81792, Note_on_c, 1, 58, 66
3, 81982, Note_off_c, 1, 58, 0
3, 82368, Note_on_c, 1, 58, 66
3, 82558, Note_off_c, 1, 58, 0
3, 82560, Note_on_c, 1, 55, 66
3, 82654, Note_off_c, 1, 55, 0
3, 82656, Note_on_c, 1, 51, 66
3, 82846, Note_off_c, 1, 51, 0
3, 82848, Note_on_c, 1, 48, 66
3, 82942, Note_off_c, 1, 48, 0
3, 82944, Note_on_c, 1, 53, 66
3, 83228, Note_off_c, 1, 53, 64
3, 83232, Note_on_c, 1, 41, 66
3, 83420, Note_off_c, 1, 41, 64
3, 84000, Note_on_c, 1, 46, 66
3, 84092, Note_off_c, 1, 46, 64
3, 84096, Note_on_c, 1, 58, 66
3, 84286, Note_off_c, 1, 58, 64
3, 84288, Note_on_c, 1, 58, 66
3, 84380, Note_off_c, 1, 58, 64
3, 84384, Note_on_c, 1, 58, 66
3, 84476, Note_off_c, 1, 58, 64
3, 84480, Note_on_c, 1, 60, 66
3, 84572, Note_off_c, 1, 60, 64
3, 84576, Note_on_c, 1, 62, 66
3, 84668, Note_off_c, 1, 62, 64
3, 84672, Note_on_c, 1, 63, 66
3, 84764, Note_off_c, 1, 63, 64
3, 84768, Note_on_c, 1, 51, 66
3, 84860, Note_off_c, 1, 51, 64
3, 84864, Note_on_c, 1, 51, 66
3, 84908, Note_off_c, 1, 51, 64
3, 84960, Note_on_c, 1, 51, 66
3, 85148, Note_off_c, 1, 51, 64
3, 85152, Note_on_c, 1, 51, 66
3, 85244, Note_off_c, 1, 51, 64
3, 85248, Note_on_c, 1, 55, 66
3, 85436, Note_off_c, 1, 55, 64
3, 85440, Note_on_c, 1, 55, 66
3, 85532, Note_off_c, 1, 55, 64
3, 85536, Note_on_c, 1, 55, 66
3, 85628, Note_off_c, 1, 55, 64
3, 85632, Note_on_c, 1, 57, 66
3, 85724, Note_off_c, 1, 57, 64
3, 85728, Note_on_c, 1, 59, 66
3, 85820, Note_off_c, 1, 59, 64
3, 85824, Note_on_c, 1, 60, 66
3, 85916, Note_off_c, 1, 60, 64
3, 85920, Note_on_c, 1, 48, 66
3, 86012, Note_off_c, 1, 48, 64
3, 86016, Note_on_c, 1, 48, 66
3, 86060, Note_off_c, 1, 48, 64
3, 86112, Note_on_c, 1, 48, 66
3, 86300, Note_off_c, 1, 48, 64
3, 86304, Note_on_c, 1, 48, 66
3, 86396, Note_off_c, 1, 48, 64
3, 86400, Note_on_c, 1, 53, 66
3, 86588, Note_off_c, 1, 53, 64
3, 86592, Note_on_c, 1, 53, 66
3, 86684, Note_off_c, 1, 53, 64
3, 86688, Note_on_c, 1, 53, 66
3, 86780, Note_off_c, 1, 53, 64
3, 86784, Note_on_c, 1, 55, 66
3, 86876, Note_off_c, 1, 55, 64
3, 86880, Note_on_c, 1, 57, 66
3, 86972, Note_off_c, 1, 57, 64
3, 86976, Note_on_c, 1, 58, 66
3, 87068, Note_off_c, 1, 58, 64
3, 87072, Note_on_c, 1, 57, 66
3, 87164, Note_off_c, 1, 57, 64
3, 87168, Note_on_c, 1, 58, 66
3, 87260, Note_off_c, 1, 58, 64
3, 87264, Note_on_c, 1, 55, 66
3, 87356, Note_off_c, 1, 55, 64
3, 87360, Note_on_c, 1, 54, 66
3, 87452, Note_off_c, 1, 54, 64
3, 87456, Note_on_c, 1, 55, 66
3, 87548, Note_off_c, 1, 55, 64
3, 87552, Note_on_c, 1, 52, 66
3, 87644, Note_off_c, 1, 52, 64
3, 87648, Note_on_c, 1, 50, 66
3, 87740, Note_off_c, 1, 50, 64
3, 87744, Note_on_c, 1, 52, 66
3, 87836, Note_off_c, 1, 52, 64
3, 87840, Note_on_c, 1, 54, 66
3, 87932, Note_off_c, 1, 54, 64
3, 87936, Note_on_c, 1, 52, 66
3, 88028, Note_off_c, 1, 52, 64
3, 88032, Note_on_c, 1, 54, 66
3, 88124, Note_off_c, 1, 54, 64
3, 88128, Note_on_c, 1, 55, 66
3, 88220, Note_off_c, 1, 55, 64
3, 88224, Note_on_c, 1, 55, 66
3, 88316, Note_off_c, 1, 55, 64
3, 88320, Note_on_c, 1, 55, 66
3, 88412, Note_off_c, 1, 55, 64
3, 88416, Note_on_c, 1, 53, 66
3, 88508, Note_off_c, 1, 53, 64
3, 88512, Note_on_c, 1, 53, 66
3, 88604, Note_off_c, 1, 53, 64
3, 88608, Note_on_c, 1, 53, 66
3, 88700, Note_off_c, 1, 53, 64
3, 88704, Note_on_c, 1, 52, 66
3, 88796, Note_off_c, 1, 52, 64
3, 88800, Note_on_c, 1, 52, 66
3, 88892, Note_off_c, 1, 52, 64
3, 88896, Note_on_c, 1, 52, 66
3, 88988, Note_off_c, 1, 52, 64
3, 88992, Note_on_c, 1, 51, 66
3, 89084, Note_off_c, 1, 51, 64
3, 89088, Note_on_c, 1, 51, 66
3, 89180, Note_off_c, 1, 51, 64
3, 89184, Note_on_c, 1, 51, 66
3, 89276, Note_off_c, 1, 51, 64
3, 89280, Note_on_c, 1, 50, 66
3, 89372, Note_off_c, 1, 50, 64
3, 89376, Note_on_c, 1, 50, 66
3, 89468, Note_off_c, 1, 50, 64
3, 89472, Note_on_c, 1, 50, 66
3, 89564, Note_off_c, 1, 50, 64
3, 89568, Note_on_c, 1, 50, 66
3, 89660, Note_off_c, 1, 50, 64
3, 89664, Note_on_c, 1, 50, 66
3, 89756, Note_off_c, 1, 50, 64
3, 89760, Note_on_c, 1, 50, 66
3, 89852, Note_off_c, 1, 50, 64
3, 89856, Note_on_c, 1, 50, 66
3, 89948, Note_off_c, 1, 50, 64
3, 89952, Note_on_c, 1, 50, 66
3, 90044, Note_off_c, 1, 50, 64
3, 90048, Note_on_c, 1, 50, 66
3, 90140, Note_off_c, 1, 50, 64
3, 90144, Note_on_c, 1, 50, 66
3, 90236, Note_off_c, 1, 50, 64
3, 90240, Note_on_c, 1, 50, 66
3, 90332, Note_off_c, 1, 50, 64
3, 90336, Note_on_c, 1, 50, 66
3, 90428, Note_off_c, 1, 50, 64
3, 90432, Note_on_c, 1, 50, 66
3, 90524, Note_off_c, 1, 50, 64
3, 90528, Note_on_c, 1, 50, 66
3, 90620, Note_off_c, 1, 50, 64
3, 90624, Note_on_c, 1, 50, 66
3, 90716, Note_off_c, 1, 50, 64
3, 90720, Note_on_c, 1, 50, 66
3, 90812, Note_off_c, 1, 50, 64
3, 90816, Note_on_c, 1, 50, 66
3, 90908, Note_off_c, 1, 50, 64
3, 90912, Note_on_c, 1, 50, 66
3, 91004, Note_off_c, 1, 50, 64
3, 91008, Note_on_c, 1, 50, 66
3, 91100, Note_off_c, 1, 50, 64
3, 91104, Note_on_c, 1, 50, 66
3, 91196, Note_off_c, 1, 50, 64
3, 91200, Note_on_c, 1, 50, 66
3, 91292, Note_off_c, 1, 50, 64
3, 91296, Note_on_c, 1, 50, 66
3, 91388, Note_off_c, 1, 50, 64
3, 91392, Note_on_c, 1, 50, 66
3, 91484, Note_off_c, 1, 50, 64
3, 91488, Note_on_c, 1, 50, 66
3, 91580, Note_off_c, 1, 50, 64
3, 91584, Note_on_c, 1, 50, 66
3, 91772, Note_off_c, 1, 50, 64
3, 91776, Note_on_c, 1, 50, 66
3, 91820, Note_off_c, 1, 50, 64
3, 91824, Note_on_c, 1, 50, 66
3, 91868, Note_off_c, 1, 50, 64
3, 91872, Note_on_c, 1, 50, 66
3, 92060, Note_off_c, 1, 50, 64
3, 92064, Note_on_c, 1, 50, 66
3, 92108, Note_off_c, 1, 50, 64
3, 92112, Note_on_c, 1, 50, 66
3, 92156, Note_off_c, 1, 50, 64
3, 92160, Note_on_c, 1, 50, 66
3, 92252, Note_off_c, 1, 50, 64
3, 92256, Note_on_c, 1, 50, 66
3, 92348, Note_off_c, 1, 50, 64
3, 92352, Note_on_c, 1, 50, 66
3, 92444, Note_off_c, 1, 50, 64
3, 92448, Note_on_c, 1, 50, 66
3, 92540, Note_off_c, 1, 50, 64
3, 92544, Note_on_c, 1, 50, 66
3, 92636, Note_off_c, 1, 50, 64
3, 92640, Note_on_c, 1, 50, 66
3, 92732, Note_off_c, 1, 50, 64
3, 92736, Note_on_c, 1, 50, 66
3, 92828, Note_off_c, 1, 50, 64
3, 93024, Note_on_c, 1, 50, 66
3, 93116, Note_off_c, 1, 50, 64
3, 93312, Note_on_c, 1, 50, 66
3, 93404, Note_off_c, 1, 50, 64
3, 93600, Note_on_c, 1, 50, 66
3, 93692, Note_off_c, 1, 50, 64
3, 93888, Note_on_c, 1, 50, 66
3, 94172, Note_off_c, 1, 50, 64
3, 94176, Note_on_c, 1, 53, 66
3, 94460, Note_off_c, 1, 53, 64
3, 94464, Note_on_c, 1, 50, 66
3, 94748, Note_off_c, 1, 50, 64
3, 94752, Note_on_c, 1, 46, 66
3, 95036, Note_off_c, 1, 46, 64
3, 95040, Note_on_c, 1, 51, 66
3, 95040, Note_on_c, 1, 39, 66
3, 95230, Note_off_c, 1, 51, 0
3, 95230, Note_off_c, 1, 39, 0
3, 95904, Note_on_c, 1, 55, 66
3, 95904, Note_on_c, 1, 43, 66
3, 95998, Note_off_c, 1, 55, 0
3, 95998, Note_off_c, 1, 43, 0
3, 96000, Note_on_c, 1, 53, 66
3, 96000, Note_on_c, 1, 41, 66
3, 96094, Note_off_c, 1, 53, 0
3, 96094, Note_off_c, 1, 41, 0
3, 96096, Note_on_c, 1, 51, 66
3, 96096, Note_on_c, 1, 39, 66
3, 96190, Note_off_c, 1, 51, 0
3, 96190, Note_off_c, 1, 39, 0
3, 96192, Note_on_c, 1, 46, 66
3, 96192, Note_on_c, 1, 34, 66
3, 96382, Note_off_c, 1, 46, 0
3, 96382, Note_off_c, 1, 34, 0
3, 97056, Note_on_c, 1, 50, 66
3, 97056, Note_on_c, 1, 38, 66
3, 97150, Note_off_c, 1, 50, 0
3, 97150, Note_off_c, 1, 38, 0
3, 97152, Note_on_c, 1, 48, 66
3, 97152, Note_on_c, 1, 36, 66
3, 97246, Note_off_c, 1, 48, 0
3, 97246, Note_off_c, 1, 36, 0
3, 97248, Note_on_c, 1, 46, 66
3, 97248, Note_on_c, 1, 34, 66
3, 97342, Note_off_c, 1, 46, 0
3, 97342, Note_off_c, 1, 34, 0
3, 97344, Note_on_c, 1, 51, 66
3, 97344, Note_on_c, 1, 39, 66
3, 97534, Note_off_c, 1, 51, 0
3, 97534, Note_off_c, 1, 39, 0
3, 98208, Note_on_c, 1, 50, 66
3, 98302, Note_off_c, 1, 50, 0
3, 98304, Note_on_c, 1, 51, 66
3, 98398, Note_off_c, 1, 51, 0
3, 98400, Note_on_c, 1, 53, 66
3, 98494, Note_off_c, 1, 53, 0
3, 98496, Note_on_c, 1, 55, 66
3, 98590, Note_off_c, 1, 55, 0
3, 98592, Note_on_c, 1, 54, 66
3, 98686, Note_off_c, 1, 54, 0
3, 98688, Note_on_c, 1, 55, 66
3, 98782, Note_off_c, 1, 55, 0
3, 99360, Note_on_c, 1, 46, 66
3, 99454, Note_off_c, 1, 46, 0
3, 99456, Note_on_c, 1, 48, 66
3, 99550, Note_off_c, 1, 48, 0
3, 99552, Note_on_c, 1, 50, 66
3, 99646, Note_off_c, 1, 50, 0
3, 99648, Note_on_c, 1, 51, 66
3, 99742, Note_off_c, 1, 51, 0
3, 99744, Note_on_c, 1, 50, 66
3, 99838, Note_off_c, 1, 50, 0
3, 99840, Note_on_c, 1, 51, 66
3, 99934, Note_off_c, 1, 51, 0
3, 99936, Note_on_c, 1, 51, 66
3, 100030, Note_off_c, 1, 51, 0
3, 100032, Note_on_c, 1, 53, 66
3, 100126, Note_off_c, 1, 53, 0
3, 100128, Note_on_c, 1, 55, 66
3, 100222, Note_off_c, 1, 55, 0
3, 100224, Note_on_c, 1, 56, 66
3, 100414, Note_off_c, 1, 56, 0
3, 100512, Note_on_c, 1, 53, 66
3, 100606, Note_off_c, 1, 53, 0
3, 100608, Note_on_c, 1, 55, 66
3, 100702, Note_off_c, 1, 55, 0
3, 100704, Note_on_c, 1, 56, 66
3, 100798, Note_off_c, 1, 56, 0
3, 100800, Note_on_c, 1, 58, 66
3, 100990, Note_off_c, 1, 58, 0
3, 101136, Note_on_c, 1, 60, 66
3, 101182, Note_off_c, 1, 60, 0
3, 101184, Note_on_c, 1, 58, 66
3, 101230, Note_off_c, 1, 58, 0
3, 101232, Note_on_c, 1, 56, 66
3, 101278, Note_off_c, 1, 56, 0
3, 101280, Note_on_c, 1, 55, 66
3, 101326, Note_off_c, 1, 55, 0
3, 101328, Note_on_c, 1, 53, 66
3, 101374, Note_off_c, 1, 53, 0
3, 101376, Note_on_c, 1, 51, 66
3, 101566, Note_off_c, 1, 51, 0
3, 101664, Note_on_c, 1, 51, 66
3, 101664, Note_on_c, 1, 39, 66
3, 101758, Note_off_c, 1, 51, 0
3, 101758, Note_off_c, 1, 39, 0
3, 101760, Note_on_c, 1, 55, 66
3, 101760, Note_on_c, 1, 43, 66
3, 101854, Note_off_c, 1, 55, 0
3, 101854, Note_off_c, 1, 43, 0
3, 101856, Note_on_c, 1, 51, 66
3, 101856, Note_on_c, 1, 39, 66
3, 101950, Note_off_c, 1, 51, 0
3, 101950, Note_off_c, 1, 39, 0
3, 101952, Note_on_c, 1, 58, 66
3, 101952, Note_on_c, 1, 46, 66
3, 102142, Note_off_c, 1, 58, 0
3, 102142, Note_off_c, 1, 46, 0
3, 102816, Note_on_c, 1, 50, 66
3, 102816, Note_on_c, 1, 38, 66
3, 102910, Note_off_c, 1, 50, 0
3, 102910, Note_off_c, 1, 38, 0
3, 102912, Note_on_c, 1, 53, 66
3, 102912, Note_on_c, 1, 41, 66
3, 103006, Note_off_c, 1, 53, 0
3, 103006, Note_off_c, 1, 41, 0
3, 103008, Note_on_c, 1, 50, 66
3, 103008, Note_on_c, 1, 38, 66
3, 103102, Note_off_c, 1, 50, 0
3, 103102, Note_off_c, 1, 38, 0
3, 103104, Note_on_c, 1, 58, 66
3, 103104, Note_on_c, 1, 46, 66
3, 103294, Note_off_c, 1, 58, 0
3, 103294, Note_off_c, 1, 46, 0
3, 103968, Note_on_c, 1, 51, 66
3, 104062, Note_off_c, 1, 51, 0
3, 104064, Note_on_c, 1, 53, 66
3, 104158, Note_off_c, 1, 53, 0
3, 104160, Note_on_c, 1, 55, 66
3, 104254, Note_off_c, 1, 55, 0
3, 104256, Note_on_c, 1, 56, 66
3, 104350, Note_off_c, 1, 56, 0
3, 104352, Note_on_c, 1, 55, 66
3, 104446, Note_off_c, 1, 55, 0
3, 104448, Note_on_c, 1, 56, 66
3, 104542, Note_off_c, 1, 56, 0
3, 105120, Note_on_c, 1, 48, 66
3, 105214, Note_off_c, 1, 48, 0
3, 105216, Note_on_c, 1, 50, 66
3, 105310, Note_off_c, 1, 50, 0
3, 105312, Note_on_c, 1, 51, 66
3, 105406, Note_off_c, 1, 51, 0
3, 105408, Note_on_c, 1, 53, 66
3, 105502, Note_off_c, 1, 53, 0
3, 105504, Note_on_c, 1, 52, 66
3, 105598, Note_off_c, 1, 52, 0
3, 105600, Note_on_c, 1, 53, 66
3, 105694, Note_off_c, 1, 53, 0
3, 106272, Note_on_c, 1, 51, 66
3, 106272, Note_on_c, 1, 39, 66
3, 106366, Note_off_c, 1, 51, 0
3, 106366, Note_off_c, 1, 39, 0
3, 106368, Note_on_c, 1, 53, 66
3, 106368, Note_on_c, 1, 41, 66
3, 106462, Note_off_c, 1, 53, 0
3, 106462, Note_off_c, 1, 41, 0
3, 106464, Note_on_c, 1, 55, 66
3, 106464, Note_on_c, 1, 43, 66
3, 106558, Note_off_c, 1, 55, 0
3, 106558, Note_off_c, 1, 43, 0
3, 106560, Note_on_c, 1, 44, 66
3, 106560, Note_on_c, 1, 56, 66
3, 106654, Note_off_c, 1, 44, 0
3, 106654, Note_off_c, 1, 56, 0
3, 106656, Note_on_c, 1, 55, 66
3, 106656, Note_on_c, 1, 43, 66
3, 106750, Note_off_c, 1, 55, 0
3, 106750, Note_off_c, 1, 43, 0
3, 106752, Note_on_c, 1, 56, 66
3, 106752, Note_on_c, 1, 44, 66
3, 106846, Note_off_c, 1, 56, 0
3, 106846, Note_off_c, 1, 44, 0
3, 106848, Note_on_c, 1, 50, 66
3, 106848, Note_on_c, 1, 38, 66
3, 106942, Note_off_c, 1, 50, 0
3, 106942, Note_off_c, 1, 38, 0
3, 106944, Note_on_c, 1, 51, 66
3, 106944, Note_on_c, 1, 39, 66
3, 107038, Note_off_c, 1, 51, 0
3, 107038, Note_off_c, 1, 39, 0
3, 107040, Note_on_c, 1, 53, 66
3, 107040, Note_on_c, 1, 41, 66
3, 107134, Note_off_c, 1, 53, 0
3, 107134, Note_off_c, 1, 41, 0
3, 107136, Note_on_c, 1, 55, 66
3, 107136, Note_on_c, 1, 43, 66
3, 107230, Note_off_c, 1, 55, 0
3, 107230, Note_off_c, 1, 43, 0
3, 107232, Note_on_c, 1, 54, 66
3, 107232, Note_on_c, 1, 42, 66
3, 107326, Note_off_c, 1, 54, 0
3, 107326, Note_off_c, 1, 42, 0
3, 107328, Note_on_c, 1, 55, 66
3, 107328, Note_on_c, 1, 43, 66
3, 107422, Note_off_c, 1, 55, 0
3, 107422, Note_off_c, 1, 43, 0
3, 107424, Note_on_c, 1, 48, 66
3, 107424, Note_on_c, 1, 36, 66
3, 107518, Note_off_c, 1, 48, 0
3, 107518, Note_off_c, 1, 36, 0
3, 107520, Note_on_c, 1, 50, 66
3, 107520, Note_on_c, 1, 38, 66
3, 107614, Note_off_c, 1, 50, 0
3, 107614, Note_off_c, 1, 38, 0
3, 107616, Note_on_c, 1, 51, 66
3, 107616, Note_on_c, 1, 39, 66
3, 107710, Note_off_c, 1, 51, 0
3, 107710, Note_off_c, 1, 39, 0
3, 107712, Note_on_c, 1, 53, 66
3, 107712, Note_on_c, 1, 41, 66
3, 107806, Note_off_c, 1, 53, 0
3, 107806, Note_off_c, 1, 41, 0
3, 107808, Note_on_c, 1, 52, 66
3, 107808, Note_on_c, 1, 40, 66
3, 107902, Note_off_c, 1, 52, 0
3, 107902, Note_off_c, 1, 40, 0
3, 107904, Note_on_c, 1, 53, 66
3, 107904, Note_on_c, 1, 41, 66
3, 107998, Note_off_c, 1, 53, 0
3, 107998, Note_off_c, 1, 41, 0
3, 108000, Note_on_c, 1, 46, 66
3, 108000, Note_on_c, 1, 34, 66
3, 108094, Note_off_c, 1, 46, 0
3, 108094, Note_off_c, 1, 34, 0
3, 108096, Note_on_c, 1, 48, 66
3, 108096, Note_on_c, 1, 36, 66
3, 108190, Note_off_c, 1, 48, 0
3, 108190, Note_off_c, 1, 36, 0
3, 108192, Note_on_c, 1, 50, 66
3, 108192, Note_on_c, 1, 38, 66
3, 108286, Note_off_c, 1, 50, 0
3, 108286, Note_off_c, 1, 38, 0
3, 108288, Note_on_c, 1, 51, 66
3, 108288, Note_on_c, 1, 39, 66
3, 108478, Note_off_c, 1, 51, 0
3, 108478, Note_off_c, 1, 39, 0
3, 108576, Note_on_c, 1, 57, 66
3, 108576, Note_on_c, 1, 45, 66
3, 108766, Note_off_c, 1, 57, 0
3, 108766, Note_off_c, 1, 45, 0
3, 109440, Note_on_c, 1, 58, 66
3, 109440, Note_on_c, 1, 55, 66
3, 109440, Note_on_c, 1, 63, 66
3, 109630, Note_off_c, 1, 58, 0
3, 109630, Note_off_c, 1, 55, 0
3, 109630, Note_off_c, 1, 63, 0
3, 109728, Note_on_c, 1, 56, 66
3, 109728, Note_on_c, 1, 60, 66
3, 109918, Note_off_c, 1, 56, 0
3, 109918, Note_off_c, 1, 60, 0
3, 110112, Note_on_c, 1, 55, 66
3, 110112, Note_on_c, 1, 46, 66
3, 110206, Note_off_c, 1, 55, 0
3, 110206, Note_off_c, 1, 46, 0
3, 110208, Note_on_c, 1, 55, 66
3, 110208, Note_on_c, 1, 46, 66
3, 110302, Note_off_c, 1, 55, 0
3, 110302, Note_off_c, 1, 46, 0
3, 110304, Note_on_c, 1, 56, 66
3, 110304, Note_on_c, 1, 46, 66
3, 110398, Note_off_c, 1, 56, 0
3, 110398, Note_off_c, 1, 46, 0
3, 110400, Note_on_c, 1, 56, 66
3, 110400, Note_on_c, 1, 46, 66
3, 110494, Note_off_c, 1, 56, 0
3, 110494, Note_off_c, 1, 46, 0
3, 110496, Note_on_c, 1, 56, 66
3, 110496, Note_on_c, 1, 46, 66
3, 110590, Note_off_c, 1, 56, 0
3, 110590, Note_off_c, 1, 46, 0
3, 110592, Note_on_c, 1, 55, 66
3, 110592, Note_on_c, 1, 51, 66
3, 110782, Note_off_c, 1, 55, 0
3, 110782, Note_off_c, 1, 51, 0
3, 117408, Note_on_c, 1, 50, 66
3, 117408, Note_on_c, 1, 38, 66
3, 117502, Note_off_c, 1, 50, 0
3, 117502, Note_off_c, 1, 38, 0
3, 117504, Note_on_c, 1, 55, 66
3, 117504, Note_on_c, 1, 43, 66
3, 117694, Note_off_c, 1, 55, 0
3, 117694, Note_off_c, 1, 43, 0
3, 117696, Note_on_c, 1, 55, 66
3, 117696, Note_on_c, 1, 43, 66
3, 117790, Note_off_c, 1, 55, 0
3, 117790, Note_off_c, 1, 43, 0
3, 117792, Note_on_c, 1, 55, 66
3, 117792, Note_on_c, 1, 43, 66
3, 117886, Note_off_c, 1, 55, 0
3, 117886, Note_off_c, 1, 43, 0
3, 117888, Note_on_c, 1, 57, 66
3, 117888, Note_on_c, 1, 45, 66
3, 117982, Note_off_c, 1, 57, 0
3, 117982, Note_off_c, 1, 45, 0
3, 117984, Note_on_c, 1, 58, 66
3, 117984, Note_on_c, 1, 45, 66
3, 118078, Note_off_c, 1, 58, 0
3, 118078, Note_off_c, 1, 45, 0
3, 118080, Note_on_c, 1, 58, 66
3, 118080, Note_on_c, 1, 46, 66
3, 118174, Note_off_c, 1, 58, 0
3, 118174, Note_off_c, 1, 46, 0
3, 118176, Note_on_c, 1, 48, 66
3, 118176, Note_on_c, 1, 36, 66
3, 118270, Note_off_c, 1, 48, 0
3, 118270, Note_off_c, 1, 36, 0
3, 118272, Note_on_c, 1, 48, 66
3, 118272, Note_on_c, 1, 36, 66
3, 118366, Note_off_c, 1, 48, 0
3, 118366, Note_off_c, 1, 36, 0
3, 118368, Note_on_c, 1, 48, 66
3, 118368, Note_on_c, 1, 36, 66
3, 118558, Note_off_c, 1, 48, 0
3, 118558, Note_off_c, 1, 36, 0
3, 118560, Note_on_c, 1, 48, 66
3, 118560, Note_on_c, 1, 36, 66
3, 118654, Note_off_c, 1, 48, 0
3, 118654, Note_off_c, 1, 36, 0
3, 118656, Note_on_c, 1, 53, 66
3, 118656, Note_on_c, 1, 41, 66
3, 118846, Note_off_c, 1, 53, 0
3, 118846, Note_off_c, 1, 41, 0
3, 118848, Note_on_c, 1, 53, 66
3, 118848, Note_on_c, 1, 41, 66
3, 118942, Note_off_c, 1, 53, 0
3, 118942, Note_off_c, 1, 41, 0
3, 118944, Note_on_c, 1, 53, 66
3, 118944, Note_on_c, 1, 41, 66
3, 119038, Note_off_c, 1, 53, 0
3, 119038, Note_off_c, 1, 41, 0
3, 119040, Note_on_c, 1, 55, 66
3, 119040, Note_on_c, 1, 43, 66
3, 119134, Note_off_c, 1, 55, 0
3, 119134, Note_off_c, 1, 43, 0
3, 119136, Note_on_c, 1, 56, 66
3, 119136, Note_on_c, 1, 44, 66
3, 119230, Note_off_c, 1, 56, 0
3, 119230, Note_off_c, 1, 44, 0
3, 119232, Note_on_c, 1, 56, 66
3, 119232, Note_on_c, 1, 44, 66
3, 119326, Note_off_c, 1, 56, 0
3, 119326, Note_off_c, 1, 44, 0
3, 119328, Note_on_c, 1, 46, 66
3, 119328, Note_on_c, 1, 34, 66
3, 119422, Note_off_c, 1, 46, 0
3, 119422, Note_off_c, 1, 34, 0
3, 119424, Note_on_c, 1, 46, 66
3, 119424, Note_on_c, 1, 34, 66
3, 119518, Note_off_c, 1, 46, 0
3, 119518, Note_off_c, 1, 34, 0
3, 119520, Note_on_c, 1, 34, 66
3, 119520, Note_on_c, 1, 46, 66
3, 119710, Note_off_c, 1, 34, 0
3, 119710, Note_off_c, 1, 46, 0
3, 122400, Note_on_c, 1, 58, 66
3, 122446, Note_off_c, 1, 58, 0
3, 122448, Note_on_c, 1, 60, 66
3, 122494, Note_off_c, 1, 60, 0
3, 122496, Note_on_c, 1, 62, 66
3, 122542, Note_off_c, 1, 62, 0
3, 122544, Note_on_c, 1, 60, 66
3, 122590, Note_off_c, 1, 60, 0
3, 122592, Note_on_c, 1, 58, 66
3, 122638, Note_off_c, 1, 58, 0
3, 122640, Note_on_c, 1, 57, 66
3, 122686, Note_off_c, 1, 57, 0
3, 122688, Note_on_c, 1, 55, 66
3, 122734, Note_off_c, 1, 55, 0
3, 122736, Note_on_c, 1, 57, 66
3, 122782, Note_off_c, 1, 57, 0
3, 122784, Note_on_c, 1, 58, 66
3, 122830, Note_off_c, 1, 58, 0
3, 122832, Note_on_c, 1, 57, 66
3, 122878, Note_off_c, 1, 57, 0
3, 122880, Note_on_c, 1, 55, 66
3, 122926, Note_off_c, 1, 55, 0
3, 122928, Note_on_c, 1, 53, 66
3, 122974, Note_off_c, 1, 53, 0
3, 122976, Note_on_c, 1, 51, 66
3, 123022, Note_off_c, 1, 51, 0
3, 123024, Note_on_c, 1, 53, 66
3, 123070, Note_off_c, 1, 53, 0
3, 123072, Note_on_c, 1, 55, 66
3, 123118, Note_off_c, 1, 55, 0
3, 123120, Note_on_c, 1, 53, 66
3, 123166, Note_off_c, 1, 53, 0
3, 123168, Note_on_c, 1, 51, 66
3, 123214, Note_off_c, 1, 51, 0
3, 123216, Note_on_c, 1, 50, 66
3, 123262, Note_off_c, 1, 50, 0
3, 123264, Note_on_c, 1, 48, 66
3, 123310, Note_off_c, 1, 48, 0
3, 123312, Note_on_c, 1, 50, 66
3, 123358, Note_off_c, 1, 50, 0
3, 123360, Note_on_c, 1, 51, 66
3, 123406, Note_off_c, 1, 51, 0
3, 123408, Note_on_c, 1, 50, 66
3, 123454, Note_off_c, 1, 50, 0
3, 123456, Note_on_c, 1, 48, 66
3, 123502, Note_off_c, 1, 48, 0
3, 123504, Note_on_c, 1, 46, 66
3, 123550, Note_off_c, 1, 46, 0
3, 123552, Note_on_c, 1, 45, 66
3, 123598, Note_off_c, 1, 45, 0
3, 123600, Note_on_c, 1, 46, 66
3, 123646, Note_off_c, 1, 46, 0
3, 123648, Note_on_c, 1, 48, 66
3, 123694, Note_off_c, 1, 48, 0
3, 123696, Note_on_c, 1, 46, 66
3, 123742, Note_off_c, 1, 46, 0
3, 123744, Note_on_c, 1, 45, 66
3, 123790, Note_off_c, 1, 45, 0
3, 123792, Note_on_c, 1, 43, 66
3, 123838, Note_off_c, 1, 43, 0
3, 123840, Note_on_c, 1, 42, 66
3, 123886, Note_off_c, 1, 42, 0
3, 123888, Note_on_c, 1, 43, 66
3, 123934, Note_off_c, 1, 43, 0
3, 123936, Note_on_c, 1, 45, 66
3, 123982, Note_off_c, 1, 45, 0
3, 123984, Note_on_c, 1, 43, 66
3, 124030, Note_off_c, 1, 43, 0
3, 124032, Note_on_c, 1, 42, 66
3, 124078, Note_off_c, 1, 42, 0
3, 124080, Note_on_c, 1, 40, 66
3, 124126, Note_off_c, 1, 40, 0
3, 124128, Note_on_c, 1, 38, 66
3, 124174, Note_off_c, 1, 38, 0
3, 124176, Note_on_c, 1, 40, 66
3, 124222, Note_off_c, 1, 40, 0
3, 124224, Note_on_c, 1, 42, 66
3, 124270, Note_off_c, 1, 42, 0
3, 124272, Note_on_c, 1, 40, 66
3, 124318, Note_off_c, 1, 40, 0
3, 124320, Note_on_c, 1, 38, 66
3, 124366, Note_off_c, 1, 38, 0
3, 124368, Note_on_c, 1, 36, 66
3, 124414, Note_off_c, 1, 36, 0
3, 124416, Note_on_c, 1, 35, 66
3, 124606, Note_off_c, 1, 35, 0
3, 124704, Note_on_c, 1, 59, 66
3, 124894, Note_off_c, 1, 59, 0
3, 124992, Note_on_c, 1, 34, 66
3, 125182, Note_off_c, 1, 34, 0
3, 125280, Note_on_c, 1, 58, 66
3, 125470, Note_off_c, 1, 58, 0
3, 125568, Note_on_c, 1, 57, 66
3, 125568, Note_on_c, 1, 45, 66
3, 125758, Note_off_c, 1, 57, 0
3, 125758, Note_off_c, 1, 45, 0
3, 126720, Note_on_c, 1, 57, 66
3, 126720, Note_on_c, 1, 45, 66
3, 126910, Note_off_c, 1, 57, 0
3, 126910, Note_off_c, 1, 45, 0
3, 127872, Note_on_c, 1, 57, 66
3, 128062, Note_off_c, 1, 57, 0
3, 128448, Note_on_c, 1, 57, 66
3, 128638, Note_off_c, 1, 57, 0
3, 130176, Note_on_c, 1, 57, 66
3, 130366, Note_off_c, 1, 57, 0
3, 130752, Note_on_c, 1, 57, 66
3, 130942, Note_off_c, 1, 57, 0
3, 132480, Note_on_c, 1, 63, 66
3, 132480, Note_on_c, 1, 57, 66
3, 132480, Note_on_c, 1, 53, 66
3, 132670, Note_off_c, 1, 63, 0
3, 132670, Note_off_c, 1, 57, 0
3, 132670, Note_off_c, 1, 53, 0
3, 133632, Note_on_c, 1, 60, 66
3, 133632, Note_on_c, 1, 57, 66
3, 133632, Note_on_c, 1, 53, 66
3, 133822, Note_off_c, 1, 60, 0
3, 133822, Note_off_c, 1, 57, 0
3, 133822, Note_off_c, 1, 53, 0
3, 134784, Note_on_c, 1, 46, 66
3, 134974, Note_off_c, 1, 46, 0
3, 135360, Note_on_c, 1, 58, 66
3, 135550, Note_off_c, 1, 58, 0
3, 135936, Note_on_c, 1, 46, 66
3, 136126, Note_off_c, 1, 46, 0
3, 136512, Note_on_c, 1, 58, 66
3, 136702, Note_off_c, 1, 58, 0
3, 137088, Note_on_c, 1, 46, 66
3, 137278, Note_off_c, 1, 46, 0
3, 137664, Note_on_c, 1, 58, 66
3, 137854, Note_off_c, 1, 58, 0
3, 138240, Note_on_c, 1, 58, 66
3, 138430, Note_off_c, 1, 58, 0
3, 138432, Note_on_c, 1, 55, 66
3, 138526, Note_off_c, 1, 55, 0
3, 138528, Note_on_c, 1, 51, 66
3, 138622, Note_off_c, 1, 51, 0
3, 138720, Note_on_c, 1, 48, 66
3, 138814, Note_off_c, 1, 48, 0
3, 138816, Note_on_c, 1, 53, 66
3, 139102, Note_off_c, 1, 53, 0
3, 139104, Note_on_c, 1, 41, 66
3, 139198, Note_off_c, 1, 41, 0
3, 139392, Note_on_c, 1, 46, 66
3, 139486, Note_off_c, 1, 46, 0
3, 139488, Note_on_c, 1, 58, 66
3, 139582, Note_off_c, 1, 58, 0
3, 139584, Note_on_c, 1, 58, 66
3, 139678, Note_off_c, 1, 58, 0
3, 139680, Note_on_c, 1, 58, 66
3, 139774, Note_off_c, 1, 58, 0
3, 139776, Note_on_c, 1, 58, 66
3, 139870, Note_off_c, 1, 58, 0
3, 139872, Note_on_c, 1, 58, 66
3, 139966, Note_off_c, 1, 58, 0
3, 139968, Note_on_c, 1, 46, 66
3, 140062, Note_off_c, 1, 46, 0
3, 140064, Note_on_c, 1, 58, 66
3, 140158, Note_off_c, 1, 58, 0
3, 140160, Note_on_c, 1, 58, 66
3, 140254, Note_off_c, 1, 58, 0
3, 140256, Note_on_c, 1, 58, 66
3, 140350, Note_off_c, 1, 58, 0
3, 140352, Note_on_c, 1, 58, 66
3, 140446, Note_off_c, 1, 58, 0
3, 140448, Note_on_c, 1, 58, 66
3, 140542, Note_off_c, 1, 58, 0
3, 140544, Note_on_c, 1, 46, 66
3, 140638, Note_off_c, 1, 46, 0
3, 140640, Note_on_c, 1, 58, 66
3, 140734, Note_off_c, 1, 58, 0
3, 140736, Note_on_c, 1, 58, 66
3, 140830, Note_off_c, 1, 58, 0
3, 140832, Note_on_c, 1, 58, 66
3, 140926, Note_off_c, 1, 58, 0
3, 140928, Note_on_c, 1, 58, 66
3, 141022, Note_off_c, 1, 58, 0
3, 141024, Note_on_c, 1, 58, 66
3, 141118, Note_off_c, 1, 58, 0
3, 141120, Note_on_c, 1, 46, 66
3, 141214, Note_off_c, 1, 46, 0
3, 141216, Note_on_c, 1, 58, 66
3, 141310, Note_off_c, 1, 58, 0
3, 141312, Note_on_c, 1, 58, 66
3, 141406, Note_off_c, 1, 58, 0
3, 141408, Note_on_c, 1, 58, 66
3, 141502, Note_off_c, 1, 58, 0
3, 141504, Note_on_c, 1, 58, 66
3, 141598, Note_off_c, 1, 58, 0
3, 141600, Note_on_c, 1, 58, 66
3, 141694, Note_off_c, 1, 58, 0
3, 141696, Note_on_c, 1, 46, 66
3, 141790, Note_off_c, 1, 46, 0
3, 141792, Note_on_c, 1, 58, 66
3, 141886, Note_off_c, 1, 58, 0
3, 141888, Note_on_c, 1, 58, 66
3, 141982, Note_off_c, 1, 58, 0
3, 141984, Note_on_c, 1, 58, 66
3, 142078, Note_off_c, 1, 58, 0
3, 142080, Note_on_c, 1, 58, 66
3, 142174, Note_off_c, 1, 58, 0
3, 142176, Note_on_c, 1, 58, 66
3, 142176, Note_on_c, 1, 58, 66
3, 142270, Note_off_c, 1, 58, 0
3, 142270, Note_off_c, 1, 58, 0
3, 142272, Note_on_c, 1, 46, 66
3, 142366, Note_off_c, 1, 46, 0
3, 142368, Note_on_c, 1, 58, 66
3, 142462, Note_off_c, 1, 58, 0
3, 142464, Note_on_c, 1, 58, 66
3, 142558, Note_off_c, 1, 58, 0
3, 142560, Note_on_c, 1, 58, 66
3, 142654, Note_off_c, 1, 58, 0
3, 142656, Note_on_c, 1, 58, 66
3, 142750, Note_off_c, 1, 58, 0
3, 142752, Note_on_c, 1, 58, 66
3, 142846, Note_off_c, 1, 58, 0
3, 142848, Note_on_c, 1, 58, 66
3, 143038, Note_off_c, 1, 58, 0
3, 143136, Note_on_c, 1, 53, 66
3, 143326, Note_off_c, 1, 53, 0
3, 143424, Note_on_c, 1, 34, 67
3, 143470, Note_off_c, 1, 34, 0
3, 143472, Note_on_c, 1, 46, 68
3, 143518, Note_off_c, 1, 46, 0
3, 143520, Note_on_c, 1, 45, 69
3, 143566, Note_off_c, 1, 45, 0
3, 143568, Note_on_c, 1, 46, 70
3, 143614, Note_off_c, 1, 46, 0
3, 143616, Note_on_c, 1, 36, 71
3, 143662, Note_off_c, 1, 36, 0
3, 143664, Note_on_c, 1, 48, 72
3, 143710, Note_off_c, 1, 48, 0
3, 143712, Note_on_c, 1, 38, 73
3, 143758, Note_off_c, 1, 38, 0
3, 143760, Note_on_c, 1, 50, 74
3, 143806, Note_off_c, 1, 50, 0
3, 143808, Note_on_c, 1, 48, 75
3, 143854, Note_off_c, 1, 48, 0
3, 143856, Note_on_c, 1, 50, 76
3, 143902, Note_off_c, 1, 50, 0
3, 143904, Note_on_c, 1, 39, 77
3, 143950, Note_off_c, 1, 39, 0
3, 143952, Note_on_c, 1, 51, 78
3, 143998, Note_off_c, 1, 51, 0
3, 144000, Note_on_c, 1, 53, 79
3, 144000, Note_on_c, 1, 41, 79
3, 144190, Note_off_c, 1, 53, 0
3, 144190, Note_off_c, 1, 41, 0
3, 144576, Note_on_c, 1, 31, 67
3, 144622, Note_off_c, 1, 31, 0
3, 144624, Note_on_c, 1, 43, 68
3, 144670, Note_off_c, 1, 43, 0
3, 144672, Note_on_c, 1, 42, 69
3, 144718, Note_off_c, 1, 42, 0
3, 144720, Note_on_c, 1, 43, 70
3, 144766, Note_off_c, 1, 43, 0
3, 144768, Note_on_c, 1, 33, 71
3, 144814, Note_off_c, 1, 33, 0
3, 144816, Note_on_c, 1, 45, 72
3, 144862, Note_off_c, 1, 45, 0
3, 144864, Note_on_c, 1, 34, 73
3, 144910, Note_off_c, 1, 34, 0
3, 144912, Note_on_c, 1, 46, 74
3, 144958, Note_off_c, 1, 46, 0
3, 144960, Note_on_c, 1, 45, 75
3, 145006, Note_off_c, 1, 45, 0
3, 145008, Note_on_c, 1, 46, 76
3, 145054, Note_off_c, 1, 46, 0
3, 145056, Note_on_c, 1, 36, 77
3, 145102, Note_off_c, 1, 36, 0
3, 145104, Note_on_c, 1, 48, 78
3, 145150, Note_off_c, 1, 48, 0
3, 145152, Note_on_c, 1, 50, 79
3, 145152, Note_on_c, 1, 38, 79
3, 145342, Note_off_c, 1, 50, 0
3, 145342, Note_off_c, 1, 38, 0
3, 145728, Note_on_c, 1, 39, 67
3, 145774, Note_off_c, 1, 39, 0
3, 145776, Note_on_c, 1, 51, 68
3, 145822, Note_off_c, 1, 51, 0
3, 145824, Note_on_c, 1, 50, 69
3, 145870, Note_off_c, 1, 50, 0
3, 145872, Note_on_c, 1, 51, 70
3, 145918, Note_off_c, 1, 51, 0
3, 145920, Note_on_c, 1, 41, 71
3, 145966, Note_off_c, 1, 41, 0
3, 145968, Note_on_c, 1, 53, 72
3, 146014, Note_off_c, 1, 53, 0
3, 146016, Note_on_c, 1, 43, 73
3, 146062, Note_off_c, 1, 43, 0
3, 146064, Note_on_c, 1, 55, 74
3, 146110, Note_off_c, 1, 55, 0
3, 146112, Note_on_c, 1, 53, 75
3, 146158, Note_off_c, 1, 53, 0
3, 146160, Note_on_c, 1, 55, 76
3, 146206, Note_off_c, 1, 55, 0
3, 146208, Note_on_c, 1, 44, 77
3, 146254, Note_off_c, 1, 44, 0
3, 146256, Note_on_c, 1, 56, 78
3, 146302, Note_off_c, 1, 56, 0
3, 146304, Note_on_c, 1, 58, 79
3, 146304, Note_on_c, 1, 46, 79
3, 146494, Note_off_c, 1, 58, 0
3, 146494, Note_off_c, 1, 46, 0
3, 146880, Note_on_c, 1, 51, 66
3, 146880, Note_on_c, 1, 39, 66
3, 147070, Note_off_c, 1, 51, 0
3, 147070, Note_off_c, 1, 39, 0
3, 149376, Note_on_c, 1, 50, 66
3, 149470, Note_off_c, 1, 50, 0
3, 149472, Note_on_c, 1, 51, 66
3, 149662, Note_off_c, 1, 51, 0
3, 149664, Note_on_c, 1, 52, 66
3, 149758, Note_off_c, 1, 52, 0
3, 149760, Note_on_c, 1, 53, 66
3, 149950, Note_off_c, 1, 53, 0
3, 152064, Note_on_c, 1, 65, 66
3, 152254, Note_off_c, 1, 65, 0
3, 152928, Note_on_c, 1, 51, 66
3, 152928, Note_on_c, 1, 63, 66
3, 153214, Note_off_c, 1, 51, 0
3, 153214, Note_off_c, 1, 63, 0
3, 153216, Note_on_c, 1, 62, 66
3, 153216, Note_on_c, 1, 50, 66
3, 153310, Note_off_c, 1, 62, 0
3, 153310, Note_off_c, 1, 50, 0
3, 154080, Note_on_c, 1, 51, 66
3, 154080, Note_on_c, 1, 63, 66
3, 154366, Note_off_c, 1, 51, 0
3, 154366, Note_off_c, 1, 63, 0
3, 154368, Note_on_c, 1, 62, 66
3, 154368, Note_on_c, 1, 50, 66
3, 154462, Note_off_c, 1, 62, 0
3, 154462, Note_off_c, 1, 50, 0
3, 155232, Note_on_c, 1, 41, 66
3, 155278, Note_off_c, 1, 41, 0
3, 155280, Note_on_c, 1, 53, 66
3, 155326, Note_off_c, 1, 53, 0
3, 155328, Note_on_c, 1, 43, 66
3, 155374, Note_off_c, 1, 43, 0
3, 155376, Note_on_c, 1, 55, 66
3, 155422, Note_off_c, 1, 55, 0
3, 155424, Note_on_c, 1, 45, 66
3, 155470, Note_off_c, 1, 45, 0
3, 155472, Note_on_c, 1, 57, 66
3, 155520, Note_off_c, 1, 57, 0
3, 155520, Note_on_c, 1, 46, 66
3, 155566, Note_off_c, 1, 46, 0
3, 155568, Note_on_c, 1, 58, 66
3, 155614, Note_off_c, 1, 58, 0
3, 155616, Note_on_c, 1, 48, 66
3, 155662, Note_off_c, 1, 48, 0
3, 155664, Note_on_c, 1, 60, 66
3, 155710, Note_off_c, 1, 60, 0
3, 155712, Note_on_c, 1, 50, 66
3, 155758, Note_off_c, 1, 50, 0
3, 155760, Note_on_c, 1, 62, 66
3, 155806, Note_off_c, 1, 62, 0
3, 158400, Note_on_c, 1, 57, 66
3, 158494, Note_off_c, 1, 57, 0
3, 158688, Note_on_c, 1, 50, 66
3, 158734, Note_off_c, 1, 50, 0
3, 158736, Note_on_c, 1, 62, 66
3, 158782, Note_off_c, 1, 62, 0
3, 158784, Note_on_c, 1, 49, 66
3, 158830, Note_off_c, 1, 49, 0
3, 158832, Note_on_c, 1, 61, 66
3, 158878, Note_off_c, 1, 61, 0
3, 158880, Note_on_c, 1, 50, 66
3, 158926, Note_off_c, 1, 50, 0
3, 158928, Note_on_c, 1, 61, 66
3, 158974, Note_off_c, 1, 61, 0
3, 158976, Note_on_c, 1, 55, 66
3, 159070, Note_off_c, 1, 55, 0
3, 159264, Note_on_c, 1, 63, 66
3, 159310, Note_off_c, 1, 63, 0
3, 159312, Note_on_c, 1, 65, 66
3, 159358, Note_off_c, 1, 65, 0
3, 159360, Note_on_c, 1, 67, 66
3, 159406, Note_off_c, 1, 67, 0
3, 159408, Note_on_c, 1, 65, 66
3, 159454, Note_off_c, 1, 65, 0
3, 159456, Note_on_c, 1, 63, 66
3, 159502, Note_off_c, 1, 63, 0
3, 159504, Note_on_c, 1, 62, 66
3, 159550, Note_off_c, 1, 62, 0
3, 159552, Note_on_c, 1, 60, 66
3, 159598, Note_off_c, 1, 60, 0
3, 159600, Note_on_c, 1, 62, 66
3, 159646, Note_off_c, 1, 62, 0
3, 159648, Note_on_c, 1, 60, 66
3, 159694, Note_off_c, 1, 60, 0
3, 159696, Note_on_c, 1, 58, 66
3, 159742, Note_off_c, 1, 58, 0
3, 159744, Note_on_c, 1, 57, 66
3, 159790, Note_off_c, 1, 57, 0
3, 159792, Note_on_c, 1, 55, 66
3, 159838, Note_off_c, 1, 55, 0
3, 159840, Note_on_c, 1, 53, 66
3, 159886, Note_off_c, 1, 53, 0
3, 159888, Note_on_c, 1, 55, 66
3, 159934, Note_off_c, 1, 55, 0
3, 159936, Note_on_c, 1, 53, 66
3, 159982, Note_off_c, 1, 53, 0
3, 159984, Note_on_c, 1, 51, 66
3, 160030, Note_off_c, 1, 51, 0
3, 160032, Note_on_c, 1, 50, 66
3, 160078, Note_off_c, 1, 50, 0
3, 160080, Note_on_c, 1, 48, 66
3, 160126, Note_off_c, 1, 48, 0
3, 160128, Note_on_c, 1, 46, 67
3, 160318, Note_off_c, 1, 46, 0
3, 160416, Note_on_c, 1, 51, 72
3, 160606, Note_off_c, 1, 51, 0
3, 160704, Note_on_c, 1, 53, 78
3, 160798, Note_off_c, 1, 53, 0
3, 160800, Note_on_c, 1, 58, 80
3, 160894, Note_off_c, 1, 58, 0
3, 160896, Note_on_c, 1, 62, 66
3, 160990, Note_off_c, 1, 62, 0
3, 160992, Note_on_c, 1, 53, 66
3, 161086, Note_off_c, 1, 53, 0
3, 161088, Note_on_c, 1, 60, 66
3, 161182, Note_off_c, 1, 60, 0
3, 161184, Note_on_c, 1, 63, 66
3, 161278, Note_off_c, 1, 63, 0
3, 165888, Note_on_c, 1, 46, 66
3, 166078, Note_off_c, 1, 46, 0
3, 166464, Note_on_c, 1, 46, 66
3, 166654, Note_off_c, 1, 46, 0
3, 167040, Note_on_c, 1, 46, 66
3, 167230, Note_off_c, 1, 46, 0
3, 167616, Note_on_c, 1, 46, 66
3, 167806, Note_off_c, 1, 46, 0
3, 168192, Note_on_c, 1, 46, 66
3, 168382, Note_off_c, 1, 46, 0
3, 168768, Note_on_c, 1, 46, 66
3, 168958, Note_off_c, 1, 46, 0
3, 169344, Note_on_c, 1, 46, 66
3, 169534, Note_off_c, 1, 46, 0
3, 169920, Note_on_c, 1, 46, 66
3, 170110, Note_off_c, 1, 46, 0
3, 170784, Note_on_c, 1, 38, 66
3, 170830, Note_off_c, 1, 38, 0
3, 170832, Note_on_c, 1, 50, 66
3, 170878, Note_off_c, 1, 50, 0
3, 170880, Note_on_c, 1, 48, 66
3, 170926, Note_off_c, 1, 48, 0
3, 170928, Note_on_c, 1, 50, 66
3, 170974, Note_off_c, 1, 50, 0
3, 170976, Note_on_c, 1, 38, 66
3, 171022, Note_off_c, 1, 38, 0
3, 171024, Note_on_c, 1, 50, 66
3, 171070, Note_off_c, 1, 50, 0
3, 171072, Note_on_c, 1, 39, 66
3, 171118, Note_off_c, 1, 39, 0
3, 171120, Note_on_c, 1, 51, 66
3, 171166, Note_off_c, 1, 51, 0
3, 171168, Note_on_c, 1, 50, 66
3, 171214, Note_off_c, 1, 50, 0
3, 171216, Note_on_c, 1, 51, 66
3, 171262, Note_off_c, 1, 51, 0
3, 171264, Note_on_c, 1, 40, 66
3, 171310, Note_off_c, 1, 40, 0
3, 171312, Note_on_c, 1, 52, 66
3, 171358, Note_off_c, 1, 52, 0
3, 171360, Note_on_c, 1, 41, 66
3, 171406, Note_off_c, 1, 41, 0
3, 171408, Note_on_c, 1, 53, 66
3, 171454, Note_off_c, 1, 53, 0
3, 171456, Note_on_c, 1, 52, 66
3, 171502, Note_off_c, 1, 52, 0
3, 171504, Note_on_c, 1, 53, 66
3, 171550, Note_off_c, 1, 53, 0
3, 171552, Note_on_c, 1, 42, 66
3, 171598, Note_off_c, 1, 42, 0
3, 171600, Note_on_c, 1, 54, 66
3, 171646, Note_off_c, 1, 54, 0
3, 171648, Note_on_c, 1, 43, 66
3, 171694, Note_off_c, 1, 43, 0
3, 171696, Note_on_c, 1, 55, 66
3, 171742, Note_off_c, 1, 55, 0
3, 171744, Note_on_c, 1, 54, 66
3, 171790, Note_off_c, 1, 54, 0
3, 171792, Note_on_c, 1, 55, 66
3, 171838, Note_off_c, 1, 55, 0
3, 171840, Note_on_c, 1, 43, 66
3, 171886, Note_off_c, 1, 43, 0
3, 171888, Note_on_c, 1, 55, 66
3, 171934, Note_off_c, 1, 55, 0
3, 171936, Note_on_c, 1, 44, 66
3, 171982, Note_off_c, 1, 44, 0
3, 171984, Note_on_c, 1, 56, 66
3, 172030, Note_off_c, 1, 56, 0
3, 172032, Note_on_c, 1, 55, 66
3, 172078, Note_off_c, 1, 55, 0
3, 172080, Note_on_c, 1, 56, 66
3, 172126, Note_off_c, 1, 56, 0
3, 172128, Note_on_c, 1, 44, 66
3, 172174, Note_off_c, 1, 44, 0
3, 172176, Note_on_c, 1, 56, 66
3, 172222, Note_off_c, 1, 56, 0
3, 172224, Note_on_c, 1, 43, 66
3, 172270, Note_off_c, 1, 43, 0
3, 172272, Note_on_c, 1, 55, 66
3, 172318, Note_off_c, 1, 55, 0
3, 172320, Note_on_c, 1, 54, 66
3, 172366, Note_off_c, 1, 54, 0
3, 172368, Note_on_c, 1, 55, 66
3, 172414, Note_off_c, 1, 55, 0
3, 172416, Note_on_c, 1, 43, 66
3, 172462, Note_off_c, 1, 43, 0
3, 172464, Note_on_c, 1, 55, 66
3, 172510, Note_off_c, 1, 55, 0
3, 172512, Note_on_c, 1, 42, 66
3, 172558, Note_off_c, 1, 42, 0
3, 172560, Note_on_c, 1, 54, 66
3, 172606, Note_off_c, 1, 54, 0
3, 172608, Note_on_c, 1, 53, 66
3, 172654, Note_off_c, 1, 53, 0
3, 172656, Note_on_c, 1, 54, 66
3, 172702, Note_off_c, 1, 54, 0
3, 172704, Note_on_c, 1, 42, 66
3, 172750, Note_off_c, 1, 42, 0
3, 172752, Note_on_c, 1, 54, 66
3, 172798, Note_off_c, 1, 54, 0
3, 172800, Note_on_c, 1, 41, 66
3, 172846, Note_off_c, 1, 41, 0
3, 172848, Note_on_c, 1, 53, 66
3, 172894, Note_off_c, 1, 53, 0
3, 172896, Note_on_c, 1, 52, 66
3, 172942, Note_off_c, 1, 52, 0
3, 172944, Note_on_c, 1, 53, 66
3, 172990, Note_off_c, 1, 53, 0
3, 172992, Note_on_c, 1, 41, 66
3, 173038, Note_off_c, 1, 41, 0
3, 173040, Note_on_c, 1, 53, 66
3, 173086, Note_off_c, 1, 53, 0
3, 173088, Note_on_c, 1, 39, 66
3, 173134, Note_off_c, 1, 39, 0
3, 173136, Note_on_c, 1, 51, 66
3, 173182, Note_off_c, 1, 51, 0
3, 173184, Note_on_c, 1, 50, 66
3, 173230, Note_off_c, 1, 50, 0
3, 173232, Note_on_c, 1, 51, 66
3, 173278, Note_off_c, 1, 51, 0
3, 173280, Note_on_c, 1, 39, 66
3, 173326, Note_off_c, 1, 39, 0
3, 173328, Note_on_c, 1, 51, 66
3, 173374, Note_off_c, 1, 51, 0
3, 173376, Note_on_c, 1, 41, 66
3, 173422, Note_off_c, 1, 41, 0
3, 173424, Note_on_c, 1, 53, 66
3, 173470, Note_off_c, 1, 53, 0
3, 173472, Note_on_c, 1, 52, 66
3, 173518, Note_off_c, 1, 52, 0
3, 173520, Note_on_c, 1, 53, 66
3, 173566, Note_off_c, 1, 53, 0
3, 173568, Note_on_c, 1, 41, 66
3, 173614, Note_off_c, 1, 41, 0
3, 173616, Note_on_c, 1, 53, 66
3, 173662, Note_off_c, 1, 53, 0
3, 173664, Note_on_c, 1, 41, 66
3, 173710, Note_off_c, 1, 41, 0
3, 173712, Note_on_c, 1, 53, 66
3, 173758, Note_off_c, 1, 53, 0
3, 173760, Note_on_c, 1, 52, 66
3, 173806, Note_off_c, 1, 52, 0
3, 173808, Note_on_c, 1, 53, 66
3, 173854, Note_off_c, 1, 53, 0
3, 173856, Note_on_c, 1, 41, 66
3, 173902, Note_off_c, 1, 41, 0
3, 173904, Note_on_c, 1, 53, 66
3, 173950, Note_off_c, 1, 53, 0
3, 173952, Note_on_c, 1, 46, 66
3, 174240, Note_on_c, 1, 50, 81
3, 174332, Note_off_c, 1, 46, 64
3, 174526, Note_off_c, 1, 50, 64
3, 174528, Note_on_c, 1, 51, 81
3, 174716, Note_off_c, 1, 51, 64
3, 174720, Note_on_c, 1, 52, 81
3, 174812, Note_off_c, 1, 52, 64
3, 174816, Note_on_c, 1, 53, 81
3, 175004, Note_off_c, 1, 53, 64
3, 175008, Note_on_c, 1, 54, 81
3, 175100, Note_off_c, 1, 54, 64
3, 175104, Note_on_c, 1, 55, 81
3, 175196, Note_off_c, 1, 55, 64
3, 175200, Note_on_c, 1, 55, 81
3, 175292, Note_off_c, 1, 55, 64
3, 175296, Note_on_c, 1, 55, 81
3, 175388, Note_off_c, 1, 55, 64
3, 175392, Note_on_c, 1, 56, 81
3, 175484, Note_off_c, 1, 56, 64
3, 175488, Note_on_c, 1, 56, 81
3, 175568, Note_on_c, 1, 56, 81
3, 175580, Note_off_c, 1, 56, 64
3, 175660, Note_off_c, 1, 56, 64
3, 175680, Note_on_c, 1, 55, 81
3, 175772, Note_off_c, 1, 55, 64
3, 175776, Note_on_c, 1, 55, 81
3, 175868, Note_off_c, 1, 55, 64
3, 175872, Note_on_c, 1, 55, 81
3, 175964, Note_off_c, 1, 55, 64
3, 175968, Note_on_c, 1, 54, 81
3, 176060, Note_off_c, 1, 54, 64
3, 176064, Note_on_c, 1, 54, 81
3, 176156, Note_off_c, 1, 54, 64
3, 176160, Note_on_c, 1, 54, 81
3, 176252, Note_off_c, 1, 54, 64
3, 176256, Note_on_c, 1, 53, 81
3, 176348, Note_off_c, 1, 53, 64
3, 176352, Note_on_c, 1, 53, 81
3, 176444, Note_off_c, 1, 53, 64
3, 176448, Note_on_c, 1, 53, 81
3, 176540, Note_off_c, 1, 53, 64
3, 176544, Note_on_c, 1, 55, 81
3, 176636, Note_off_c, 1, 55, 64
3, 176640, Note_on_c, 1, 55, 81
3, 176732, Note_off_c, 1, 55, 64
3, 176736, Note_on_c, 1, 55, 81
3, 176828, Note_off_c, 1, 55, 64
3, 176832, Note_on_c, 1, 51, 81
3, 176924, Note_off_c, 1, 51, 64
3, 176928, Note_on_c, 1, 51, 81
3, 177020, Note_off_c, 1, 51, 64
3, 177024, Note_on_c, 1, 51, 81
3, 177116, Note_off_c, 1, 51, 64
3, 177120, Note_on_c, 1, 52, 81
3, 177212, Note_off_c, 1, 52, 64
3, 177216, Note_on_c, 1, 52, 81
3, 177308, Note_off_c, 1, 52, 64
3, 177312, Note_on_c, 1, 52, 81
3, 177404, Note_off_c, 1, 52, 64
3, 177406, Control_c, 1, 64, 127
3, 177408, Note_on_c, 1, 53, 81
3, 177408, Note_on_c, 1, 41, 81
3, 177788, Note_off_c, 1, 53, 64
3, 177788, Note_off_c, 1, 41, 64
3, 177788, Control_c, 1, 64, 0
3, 179424, Note_on_c, 1, 57, 66
3, 179470, Note_off_c, 1, 57, 0
3, 179472, Note_on_c, 1, 58, 66
3, 179518, Note_off_c, 1, 58, 0
3, 179520, Note_on_c, 1, 60, 66
3, 179566, Note_off_c, 1, 60, 0
3, 179568, Note_on_c, 1, 58, 66
3, 179614, Note_off_c, 1, 58, 0
3, 179616, Note_on_c, 1, 57, 66
3, 179662, Note_off_c, 1, 57, 0
3, 179664, Note_on_c, 1, 55, 66
3, 179710, Note_off_c, 1, 55, 0
3, 179712, Note_on_c, 1, 53, 66
3, 179758, Note_off_c, 1, 53, 0
3, 179760, Note_on_c, 1, 55, 66
3, 179806, Note_off_c, 1, 55, 0
3, 179808, Note_on_c, 1, 57, 66
3, 179854, Note_off_c, 1, 57, 0
3, 179856, Note_on_c, 1, 55, 66
3, 179902, Note_off_c, 1, 55, 0
3, 179904, Note_on_c, 1, 53, 66
3, 179950, Note_off_c, 1, 53, 0
3, 179952, Note_on_c, 1, 51, 66
3, 179998, Note_off_c, 1, 51, 0
3, 180000, Note_on_c, 1, 50, 66
3, 180046, Note_off_c, 1, 50, 0
3, 180048, Note_on_c, 1, 51, 66
3, 180094, Note_off_c, 1, 51, 0
3, 180096, Note_on_c, 1, 53, 66
3, 180142, Note_off_c, 1, 53, 0
3, 180144, Note_on_c, 1, 51, 66
3, 180190, Note_off_c, 1, 51, 0
3, 180192, Note_on_c, 1, 50, 66
3, 180238, Note_off_c, 1, 50, 0
3, 180240, Note_on_c, 1, 48, 66
3, 180286, Note_off_c, 1, 48, 0
3, 180288, Note_on_c, 1, 46, 66
3, 180334, Note_off_c, 1, 46, 0
3, 180336, Note_on_c, 1, 48, 66
3, 180382, Note_off_c, 1, 48, 0
3, 180384, Note_on_c, 1, 50, 66
3, 180430, Note_off_c, 1, 50, 0
3, 180432, Note_on_c, 1, 48, 66
3, 180478, Note_off_c, 1, 48, 0
3, 180480, Note_on_c, 1, 46, 66
3, 180526, Note_off_c, 1, 46, 0
3, 180528, Note_on_c, 1, 45, 66
3, 180574, Note_off_c, 1, 45, 0
3, 180576, Note_on_c, 1, 43, 66
3, 180622, Note_off_c, 1, 43, 0
3, 180624, Note_on_c, 1, 45, 66
3, 180670, Note_off_c, 1, 45, 0
3, 180672, Note_on_c, 1, 46, 66
3, 180718, Note_off_c, 1, 46, 0
3, 180720, Note_on_c, 1, 45, 66
3, 180766, Note_off_c, 1, 45, 0
3, 180768, Note_on_c, 1, 43, 66
3, 180814, Note_off_c, 1, 43, 0
3, 180816, Note_on_c, 1, 41, 66
3, 180862, Note_off_c, 1, 41, 0
3, 180864, Note_on_c, 1, 41, 66
3, 181438, Note_off_c, 1, 41, 0
3, 181440, Note_on_c, 1, 55, 66
3, 181440, Note_on_c, 1, 51, 66
3, 181726, Note_off_c, 1, 51, 0
3, 181728, Note_on_c, 1, 52, 66
3, 182014, Note_off_c, 1, 55, 0
3, 182014, Note_off_c, 1, 52, 0
3, 182016, Note_on_c, 1, 53, 66
3, 182206, Note_off_c, 1, 53, 0
3, 182880, Note_on_c, 1, 53, 81
3, 182880, Note_on_c, 1, 41, 81
3, 182974, Note_off_c, 1, 53, 0
3, 182974, Note_off_c, 1, 41, 0
3, 182976, Note_on_c, 1, 55, 81
3, 182976, Note_on_c, 1, 43, 81
3, 183070, Note_off_c, 1, 55, 0
3, 183070, Note_off_c, 1, 43, 0
3, 183072, Note_on_c, 1, 53, 81
3, 183072, Note_on_c, 1, 41, 81
3, 183166, Note_off_c, 1, 53, 0
3, 183166, Note_off_c, 1, 41, 0
3, 183168, Note_on_c, 1, 52, 81
3, 183168, Note_on_c, 1, 40, 81
3, 183358, Note_off_c, 1, 52, 0
3, 183358, Note_off_c, 1, 40, 0
3, 184032, Note_on_c, 1, 52, 81
3, 184032, Note_on_c, 1, 40, 81
3, 184126, Note_off_c, 1, 52, 0
3, 184126, Note_off_c, 1, 40, 0
3, 184128, Note_on_c, 1, 53, 81
3, 184128, Note_on_c, 1, 41, 81
3, 184222, Note_off_c, 1, 53, 0
3, 184222, Note_off_c, 1, 41, 0
3, 184224, Note_on_c, 1, 52, 81
3, 184224, Note_on_c, 1, 40, 81
3, 184318, Note_off_c, 1, 52, 0
3, 184318, Note_off_c, 1, 40, 0
3, 184320, Note_on_c, 1, 51, 81
3, 184320, Note_on_c, 1, 39, 81
3, 184510, Note_off_c, 1, 51, 0
3, 184510, Note_off_c, 1, 39, 0
3, 185184, Note_on_c, 1, 51, 81
3, 185184, Note_on_c, 1, 39, 81
3, 185230, Note_off_c, 1, 51, 0
3, 185230, Note_off_c, 1, 39, 0
3, 185280, Note_on_c, 1, 53, 81
3, 185280, Note_on_c, 1, 41, 81
3, 185326, Note_off_c, 1, 53, 0
3, 185326, Note_off_c, 1, 41, 0
3, 185376, Note_on_c, 1, 51, 81
3, 185376, Note_on_c, 1, 39, 81
3, 185422, Note_off_c, 1, 51, 0
3, 185422, Note_off_c, 1, 39, 0
3, 185472, Note_on_c, 1, 50, 81
3, 185472, Note_on_c, 1, 38, 81
3, 185662, Note_off_c, 1, 50, 0
3, 185662, Note_off_c, 1, 38, 0
3, 186336, Note_on_c, 1, 62, 81
3, 186336, Note_on_c, 1, 50, 81
3, 186382, Note_off_c, 1, 62, 0
3, 186382, Note_off_c, 1, 50, 0
3, 186432, Note_on_c, 1, 60, 81
3, 186432, Note_on_c, 1, 48, 81
3, 186478, Note_off_c, 1, 60, 0
3, 186478, Note_off_c, 1, 48, 0
3, 186528, Note_on_c, 1, 58, 81
3, 186528, Note_on_c, 1, 46, 81
3, 186574, Note_off_c, 1, 58, 0
3, 186574, Note_off_c, 1, 46, 0
3, 186624, Note_on_c, 1, 57, 81
3, 186624, Note_on_c, 1, 45, 81
3, 186814, Note_off_c, 1, 57, 0
3, 186814, Note_off_c, 1, 45, 0
3, 187200, Note_on_c, 1, 63, 81
3, 187200, Note_on_c, 1, 60, 81
3, 187200, Note_on_c, 1, 57, 81
3, 187200, Note_on_c, 1, 53, 81
3, 187774, Note_off_c, 1, 63, 0
3, 187774, Note_off_c, 1, 60, 0
3, 187774, Note_off_c, 1, 57, 0
3, 187774, Note_off_c, 1, 53, 0
3, 187776, Note_on_c, 1, 58, 81
3, 187776, Note_on_c, 1, 62, 81
3, 187966, Note_off_c, 1, 58, 0
3, 187966, Note_off_c, 1, 62, 0
3, 188352, Note_on_c, 1, 58, 81
3, 188352, Note_on_c, 1, 62, 81
3, 188352, Note_on_c, 1, 65, 81
3, 188638, Note_off_c, 1, 58, 0
3, 188638, Note_off_c, 1, 62, 0
3, 188638, Note_off_c, 1, 65, 0
3, 188640, Note_on_c, 1, 62, 81
3, 188640, Note_on_c, 1, 65, 81
3, 188640, Note_on_c, 1, 58, 81
3, 188830, Note_off_c, 1, 62, 0
3, 188830, Note_off_c, 1, 65, 0
3, 188830, Note_off_c, 1, 58, 0
3, 188832, Note_on_c, 1, 46, 81
3, 188832, Note_on_c, 1, 34, 81
3, 188926, Note_off_c, 1, 46, 0
3, 188926, Note_off_c, 1, 34, 0
3, 188928, Note_on_c, 1, 51, 91
3, 188928, Note_on_c, 1, 39, 91
3, 189118, Note_off_c, 1, 51, 0
3, 189118, Note_off_c, 1, 39, 0
3, 189120, Note_on_c, 1, 51, 81
3, 189120, Note_on_c, 1, 39, 81
3, 189214, Note_off_c, 1, 51, 0
3, 189214, Note_off_c, 1, 39, 0
3, 189216, Note_on_c, 1, 51, 81
3, 189216, Note_on_c, 1, 39, 81
3, 189310, Note_off_c, 1, 51, 0
3, 189310, Note_off_c, 1, 39, 0
3, 189312, Note_on_c, 1, 53, 81
3, 189312, Note_on_c, 1, 41, 81
3, 189406, Note_off_c, 1, 53, 0
3, 189406, Note_off_c, 1, 41, 0
3, 189408, Note_on_c, 1, 55, 81
3, 189408, Note_on_c, 1, 43, 81
3, 189502, Note_off_c, 1, 55, 0
3, 189502, Note_off_c, 1, 43, 0
3, 189504, Note_on_c, 1, 55, 81
3, 189504, Note_on_c, 1, 43, 81
3, 189598, Note_off_c, 1, 55, 0
3, 189598, Note_off_c, 1, 43, 0
3, 189600, Note_on_c, 1, 45, 81
3, 189600, Note_on_c, 1, 33, 81
3, 189694, Note_off_c, 1, 45, 0
3, 189694, Note_off_c, 1, 33, 0
3, 189696, Note_on_c, 1, 45, 81
3, 189696, Note_on_c, 1, 33, 81
3, 189742, Note_off_c, 1, 45, 0
3, 189742, Note_off_c, 1, 33, 0
3, 189792, Note_on_c, 1, 33, 81
3, 189792, Note_on_c, 1, 45, 81
3, 189982, Note_off_c, 1, 33, 0
3, 189982, Note_off_c, 1, 45, 0
3, 189984, Note_on_c, 1, 45, 81
3, 189984, Note_on_c, 1, 33, 81
3, 190078, Note_off_c, 1, 45, 0
3, 190078, Note_off_c, 1, 33, 0
3, 190080, Note_on_c, 1, 50, 91
3, 190080, Note_on_c, 1, 38, 91
3, 190270, Note_off_c, 1, 50, 0
3, 190270, Note_off_c, 1, 38, 0
3, 190272, Note_on_c, 1, 50, 81
3, 190272, Note_on_c, 1, 38, 81
3, 190366, Note_off_c, 1, 50, 0
3, 190366, Note_off_c, 1, 38, 0
3, 190368, Note_on_c, 1, 50, 81
3, 190368, Note_on_c, 1, 38, 81
3, 190462, Note_off_c, 1, 50, 0
3, 190462, Note_off_c, 1, 38, 0
3, 190464, Note_on_c, 1, 51, 81
3, 190464, Note_on_c, 1, 39, 81
3, 190558, Note_off_c, 1, 51, 0
3, 190558, Note_off_c, 1, 39, 0
3, 190560, Note_on_c, 1, 53, 81
3, 190560, Note_on_c, 1, 41, 81
3, 190654, Note_off_c, 1, 53, 0
3, 190656, Note_off_c, 1, 41, 0
3, 190656, Note_on_c, 1, 53, 81
3, 190656, Note_on_c, 1, 41, 81
3, 190750, Note_off_c, 1, 53, 0
3, 190750, Note_off_c, 1, 41, 0
3, 190752, Note_on_c, 1, 43, 81
3, 190752, Note_on_c, 1, 31, 81
3, 190846, Note_off_c, 1, 43, 0
3, 190846, Note_off_c, 1, 31, 0
3, 190848, Note_on_c, 1, 43, 81
3, 190848, Note_on_c, 1, 31, 81
3, 190894, Note_off_c, 1, 43, 0
3, 190894, Note_off_c, 1, 31, 0
3, 190944, Note_on_c, 1, 43, 81
3, 190944, Note_on_c, 1, 31, 81
3, 191134, Note_off_c, 1, 43, 0
3, 191134, Note_off_c, 1, 31, 0
3, 191136, Note_on_c, 1, 43, 81
3, 191136, Note_on_c, 1, 31, 81
3, 191230, Note_off_c, 1, 43, 0
3, 191230, Note_off_c, 1, 31, 0
3, 191232, Note_on_c, 1, 48, 91
3, 191232, Note_on_c, 1, 36, 91
3, 191422, Note_off_c, 1, 48, 0
3, 191422, Note_off_c, 1, 36, 0
3, 191424, Note_on_c, 1, 48, 81
3, 191424, Note_on_c, 1, 36, 81
3, 191518, Note_off_c, 1, 48, 0
3, 191518, Note_off_c, 1, 36, 0
3, 191520, Note_on_c, 1, 48, 81
3, 191520, Note_on_c, 1, 36, 81
3, 191614, Note_off_c, 1, 48, 0
3, 191614, Note_off_c, 1, 36, 0
3, 191616, Note_on_c, 1, 50, 81
3, 191616, Note_on_c, 1, 38, 81
3, 191710, Note_off_c, 1, 50, 0
3, 191710, Note_off_c, 1, 38, 0
3, 191712, Note_on_c, 1, 51, 81
3, 191712, Note_on_c, 1, 39, 81
3, 191806, Note_off_c, 1, 51, 0
3, 191806, Note_off_c, 1, 39, 0
3, 191808, Note_on_c, 1, 51, 81
3, 191808, Note_on_c, 1, 39, 81
3, 191902, Note_off_c, 1, 51, 0
3, 191902, Note_off_c, 1, 39, 0
3, 191904, Note_on_c, 1, 42, 81
3, 191904, Note_on_c, 1, 30, 81
3, 191998, Note_off_c, 1, 42, 0
3, 191998, Note_off_c, 1, 30, 0
3, 192000, Note_on_c, 1, 42, 81
3, 192000, Note_on_c, 1, 30, 81
3, 192046, Note_off_c, 1, 42, 0
3, 192046, Note_off_c, 1, 30, 0
3, 192096, Note_on_c, 1, 42, 81
3, 192096, Note_on_c, 1, 30, 81
3, 192286, Note_off_c, 1, 42, 0
3, 192286, Note_off_c, 1, 30, 0
3, 192288, Note_on_c, 1, 54, 81
3, 192288, Note_on_c, 1, 42, 81
3, 192382, Note_off_c, 1, 54, 0
3, 192382, Note_off_c, 1, 42, 0
3, 192384, Note_on_c, 1, 43, 81
3, 192430, Note_off_c, 1, 43, 0
3, 192432, Note_on_c, 1, 55, 81
3, 192478, Note_off_c, 1, 55, 0
3, 192480, Note_on_c, 1, 54, 81
3, 192526, Note_off_c, 1, 54, 0
3, 192528, Note_on_c, 1, 55, 81
3, 192574, Note_off_c, 1, 55, 0
3, 192576, Note_on_c, 1, 43, 81
3, 192622, Note_off_c, 1, 43, 0
3, 192624, Note_on_c, 1, 55, 81
3, 192670, Note_off_c, 1, 55, 0
3, 192672, Note_on_c, 1, 41, 81
3, 192718, Note_off_c, 1, 41, 0
3, 192720, Note_on_c, 1, 53, 81
3, 192766, Note_off_c, 1, 53, 0
3, 192768, Note_on_c, 1, 52, 81
3, 192814, Note_off_c, 1, 52, 0
3, 192816, Note_on_c, 1, 53, 81
3, 192862, Note_off_c, 1, 53, 0
3, 192864, Note_on_c, 1, 41, 81
3, 192910, Note_off_c, 1, 41, 0
3, 192912, Note_on_c, 1, 53, 81
3, 192958, Note_off_c, 1, 53, 0
3, 192960, Note_on_c, 1, 39, 81
3, 193006, Note_off_c, 1, 39, 0
3, 193008, Note_on_c, 1, 51, 81
3, 193054, Note_off_c, 1, 51, 0
3, 193056, Note_on_c, 1, 50, 81
3, 193102, Note_off_c, 1, 50, 0
3, 193104, Note_on_c, 1, 51, 81
3, 193150, Note_off_c, 1, 51, 0
3, 193152, Note_on_c, 1, 39, 81
3, 193198, Note_off_c, 1, 39, 0
3, 193200, Note_on_c, 1, 51, 81
3, 193246, Note_off_c, 1, 51, 0
3, 193248, Note_on_c, 1, 37, 81
3, 193294, Note_off_c, 1, 37, 0
3, 193296, Note_on_c, 1, 49, 81
3, 193342, Note_off_c, 1, 49, 0
3, 193344, Note_on_c, 1, 48, 81
3, 193390, Note_off_c, 1, 48, 0
3, 193392, Note_on_c, 1, 49, 81
3, 193438, Note_off_c, 1, 49, 0
3, 193440, Note_on_c, 1, 37, 81
3, 193486, Note_off_c, 1, 37, 0
3, 193488, Note_on_c, 1, 49, 81
3, 193534, Note_off_c, 1, 49, 0
3, 193536, Note_on_c, 1, 36, 81
3, 193582, Note_off_c, 1, 36, 0
3, 193584, Note_on_c, 1, 48, 81
3, 193630, Note_off_c, 1, 48, 0
3, 193632, Note_on_c, 1, 47, 81
3, 193678, Note_off_c, 1, 47, 0
3, 193680, Note_on_c, 1, 48, 81
3, 193726, Note_off_c, 1, 48, 0
3, 193728, Note_on_c, 1, 36, 81
3, 193774, Note_off_c, 1, 36, 0
3, 193776, Note_on_c, 1, 48, 81
3, 193822, Note_off_c, 1, 48, 0
3, 193824, Note_on_c, 1, 42, 81
3, 193870, Note_off_c, 1, 42, 0
3, 193872, Note_on_c, 1, 54, 81
3, 193918, Note_off_c, 1, 54, 0
3, 193920, Note_on_c, 1, 53, 81
3, 193966, Note_off_c, 1, 53, 0
3, 193968, Note_on_c, 1, 54, 81
3, 194014, Note_off_c, 1, 54, 0
3, 194016, Note_on_c, 1, 42, 81
3, 194062, Note_off_c, 1, 42, 0
3, 194064, Note_on_c, 1, 54, 81
3, 194110, Note_off_c, 1, 54, 0
3, 194112, Note_on_c, 1, 43, 81
3, 194158, Note_off_c, 1, 43, 0
3, 194160, Note_on_c, 1, 55, 81
3, 194206, Note_off_c, 1, 55, 0
3, 194208, Note_on_c, 1, 54, 81
3, 194254, Note_off_c, 1, 54, 0
3, 194256, Note_on_c, 1, 55, 81
3, 194302, Note_off_c, 1, 55, 0
3, 194304, Note_on_c, 1, 43, 81
3, 194350, Note_off_c, 1, 43, 0
3, 194352, Note_on_c, 1, 55, 81
3, 194398, Note_off_c, 1, 55, 0
3, 194400, Note_on_c, 1, 40, 81
3, 194446, Note_off_c, 1, 40, 0
3, 194448, Note_on_c, 1, 52, 81
3, 194494, Note_off_c, 1, 52, 0
3, 194496, Note_on_c, 1, 51, 81
3, 194542, Note_off_c, 1, 51, 0
3, 194544, Note_on_c, 1, 52, 81
3, 194590, Note_off_c, 1, 52, 0
3, 194592, Note_on_c, 1, 40, 81
3, 194638, Note_off_c, 1, 40, 0
3, 194640, Note_on_c, 1, 52, 81
3, 194686, Note_off_c, 1, 52, 0
3, 194688, Note_on_c, 1, 53, 91
3, 194688, Note_on_c, 1, 41, 91
3, 195262, Note_off_c, 1, 53, 0
3, 195262, Note_off_c, 1, 41, 0
3, 196128, Note_on_c, 1, 61, 81
3, 196222, Note_off_c, 1, 61, 0
3, 196224, Note_on_c, 1, 62, 81
3, 196270, Note_off_c, 1, 62, 0
3, 196320, Note_on_c, 1, 57, 81
3, 196414, Note_off_c, 1, 57, 0
3, 196416, Note_on_c, 1, 58, 81
3, 196462, Note_off_c, 1, 58, 0
3, 196512, Note_on_c, 1, 52, 81
3, 196606, Note_off_c, 1, 52, 0
3, 196608, Note_on_c, 1, 53, 81
3, 196654, Note_off_c, 1, 53, 0
3, 196704, Note_on_c, 1, 49, 81
3, 196798, Note_off_c, 1, 49, 0
3, 196800, Note_on_c, 1, 50, 81
3, 196846, Note_off_c, 1, 50, 0
3, 196896, Note_on_c, 1, 46, 81
3, 196942, Note_off_c, 1, 46, 0
3, 196992, Note_on_c, 1, 53, 81
3, 196992, Note_on_c, 1, 41, 81
3, 197242, Note_off_c, 1, 53, 0
3, 197242, Note_off_c, 1, 41, 0
3, 197244, Note_on_c, 1, 43, 81
3, 197244, Note_on_c, 1, 55, 81
3, 197302, Note_off_c, 1, 43, 0
3, 197302, Note_off_c, 1, 55, 0
3, 197308, Note_on_c, 1, 57, 81
3, 197308, Note_on_c, 1, 45, 81
3, 197366, Note_off_c, 1, 57, 0
3, 197366, Note_off_c, 1, 45, 0
3, 197376, Note_on_c, 1, 46, 81
3, 197376, Note_on_c, 1, 58, 81
3, 197434, Note_off_c, 1, 46, 0
3, 197434, Note_off_c, 1, 58, 0
3, 197436, Note_on_c, 1, 60, 81
3, 197436, Note_on_c, 1, 48, 81
3, 197494, Note_off_c, 1, 60, 0
3, 197494, Note_off_c, 1, 48, 0
3, 197500, Note_on_c, 1, 50, 81
3, 197500, Note_on_c, 1, 62, 81
3, 197558, Note_off_c, 1, 50, 0
3, 197558, Note_off_c, 1, 62, 0
3, 197568, Note_on_c, 1, 51, 81
3, 197760, Note_on_c, 1, 48, 81
3, 197854, Note_off_c, 1, 51, 0
3, 197854, Note_off_c, 1, 48, 0
3, 197856, Note_on_c, 1, 57, 81
3, 197952, Note_on_c, 1, 51, 81
3, 197998, Note_off_c, 1, 57, 0
3, 197998, Note_off_c, 1, 51, 0
3, 198000, Note_on_c, 1, 60, 81
3, 198096, Note_on_c, 1, 57, 81
3, 198142, Note_off_c, 1, 60, 0
3, 198142, Note_off_c, 1, 57, 0
3, 199296, Note_on_c, 1, 46, 81
3, 199486, Note_off_c, 1, 46, 0
3, 199872, Note_on_c, 1, 58, 66
3, 200062, Note_off_c, 1, 58, 0
3, 200448, Note_on_c, 1, 46, 66
3, 200638, Note_off_c, 1, 46, 0
3, 201024, Note_on_c, 1, 58, 66
3, 201214, Note_off_c, 1, 58, 0
3, 201600, Note_on_c, 1, 46, 66
3, 201790, Note_off_c, 1, 46, 0
3, 202176, Note_on_c, 1, 58, 66
3, 202366, Note_off_c, 1, 58, 0
3, 202752, Note_on_c, 1, 58, 66
3, 202942, Note_off_c, 1, 58, 0
3, 203040, Note_on_c, 1, 51, 66
3, 203230, Note_off_c, 1, 51, 0
3, 203328, Note_on_c, 1, 53, 66
3, 203518, Note_off_c, 1, 53, 0
3, 203616, Note_on_c, 1, 51, 66
3, 203806, Note_off_c, 1, 51, 0
3, 203904, Note_on_c, 1, 50, 66
3, 204094, Note_off_c, 1, 50, 0
3, 204192, Note_on_c, 1, 51, 66
3, 204382, Note_off_c, 1, 51, 0
3, 204480, Note_on_c, 1, 53, 66
3, 204670, Note_off_c, 1, 53, 0
3, 204768, Note_on_c, 1, 41, 66
3, 204958, Note_off_c, 1, 41, 0
3, 205056, Note_on_c, 1, 46, 66
3, 205150, Note_off_c, 1, 46, 0
3, 205248, Note_on_c, 1, 53, 66
3, 205342, Note_off_c, 1, 53, 0
3, 205344, Note_on_c, 1, 53, 66
3, 205438, Note_off_c, 1, 53, 0
3, 205440, Note_on_c, 1, 53, 66
3, 205534, Note_off_c, 1, 53, 0
3, 205536, Note_on_c, 1, 53, 66
3, 205630, Note_off_c, 1, 53, 0
3, 205632, Note_on_c, 1, 53, 66
3, 205726, Note_off_c, 1, 53, 0
3, 205728, Note_on_c, 1, 50, 66
3, 205822, Note_off_c, 1, 50, 0
3, 205824, Note_on_c, 1, 53, 66
3, 205918, Note_off_c, 1, 53, 0
3, 205920, Note_on_c, 1, 53, 66
3, 206014, Note_off_c, 1, 53, 0
3, 206016, Note_on_c, 1, 58, 66
3, 206110, Note_off_c, 1, 58, 0
3, 206112, Note_on_c, 1, 53, 66
3, 206206, Note_off_c, 1, 53, 0
3, 206208, Note_on_c, 1, 53, 66
3, 206398, Note_off_c, 1, 53, 0
3, 209664, Note_on_c, 1, 46, 66
3, 209664, Note_on_c, 1, 34, 66
3, 209664, Note_on_c, 1, 58, 66
3, 209710, Note_off_c, 1, 58, 0
3, 209712, Note_on_c, 1, 53, 66
3, 209758, Note_off_c, 1, 53, 0
3, 209760, Note_on_c, 1, 50, 66
3, 209806, Note_off_c, 1, 50, 0
3, 209808, Note_on_c, 1, 53, 66
3, 209854, Note_off_c, 1, 46, 0
3, 209854, Note_off_c, 1, 34, 0
3, 209854, Note_off_c, 1, 53, 0
3, 209856, Note_on_c, 1, 58, 66
3, 209902, Note_off_c, 1, 58, 0
3, 209904, Note_on_c, 1, 53, 66
3, 209950, Note_off_c, 1, 53, 0
3, 209952, Note_on_c, 1, 62, 66
3, 209998, Note_off_c, 1, 62, 0
3, 210000, Note_on_c, 1, 58, 66
3, 210046, Note_off_c, 1, 58, 0
3, 210048, Note_on_c, 1, 65, 66
3, 210094, Note_off_c, 1, 65, 0
3, 210096, Note_on_c, 1, 62, 66
3, 210142, Note_off_c, 1, 62, 0
3, 210144, Note_on_c, 1, 58, 66
3, 210190, Note_off_c, 1, 58, 0
3, 210192, Note_on_c, 1, 53, 66
3, 210238, Note_off_c, 1, 53, 0
3, 210240, Note_on_c, 1, 46, 66
3, 210240, Note_on_c, 1, 34, 66
3, 210240, Note_on_c, 1, 58, 66
3, 210286, Note_off_c, 1, 58, 0
3, 210288, Note_on_c, 1, 53, 66
3, 210334, Note_off_c, 1, 53, 0
3, 210336, Note_on_c, 1, 50, 66
3, 210382, Note_off_c, 1, 50, 0
3, 210384, Note_on_c, 1, 53, 66
3, 210430, Note_off_c, 1, 46, 0
3, 210430, Note_off_c, 1, 34, 0
3, 210430, Note_off_c, 1, 53, 0
3, 210432, Note_on_c, 1, 58, 66
3, 210478, Note_off_c, 1, 58, 0
3, 210480, Note_on_c, 1, 53, 66
3, 210526, Note_off_c, 1, 53, 0
3, 210528, Note_on_c, 1, 62, 66
3, 210574, Note_off_c, 1, 62, 0
3, 210576, Note_on_c, 1, 58, 66
3, 210622, Note_off_c, 1, 58, 0
3, 210624, Note_on_c, 1, 65, 66
3, 210670, Note_off_c, 1, 65, 0
3, 210672, Note_on_c, 1, 62, 66
3, 210718, Note_off_c, 1, 62, 0
3, 210720, Note_on_c, 1, 58, 66
3, 210766, Note_off_c, 1, 58, 0
3, 210768, Note_on_c, 1, 53, 66
3, 210814, Note_off_c, 1, 53, 0
3, 210816, Note_on_c, 1, 46, 66
3, 210816, Note_on_c, 1, 34, 66
3, 211006, Note_off_c, 1, 46, 0
3, 211006, Note_off_c, 1, 34, 0
3, 211392, Note_on_c, 1, 46, 66
3, 211392, Note_on_c, 1, 34, 66
3, 211582, Note_off_c, 1, 46, 0
3, 211582, Note_off_c, 1, 34, 0
3, 211968, Note_on_c, 1, 46, 66
3, 211968, Note_on_c, 1, 34, 66
3, 212158, Note_off_c, 1, 46, 0
3, 212158, Note_off_c, 1, 34, 0
3, 212544, Note_on_c, 1, 46, 66
3, 212544, Note_on_c, 1, 34, 66
3, 212734, Note_off_c, 1, 46, 0
3, 212734, Note_off_c, 1, 34, 0
3, 213120, Note_on_c, 1, 46, 66
3, 213120, Note_on_c, 1, 34, 66
3, 213310, Note_off_c, 1, 46, 0
3, 213310, Note_off_c, 1, 34, 0
3, 213696, Note_on_c, 1, 46, 66
3, 213696, Note_on_c, 1, 34, 66
3, 213886, Note_off_c, 1, 46, 0
3, 213886, Note_off_c, 1, 34, 0
3, 214272, Note_on_c, 1, 46, 66
3, 214272, Note_on_c, 1, 34, 66
3, 214462, Note_off_c, 1, 46, 0
3, 214462, Note_off_c, 1, 34, 0
3, 214848, Note_on_c, 1, 46, 66
3, 214848, Note_on_c, 1, 34, 66
3, 215038, Note_off_c, 1, 46, 0
3, 215038, Note_off_c, 1, 34, 0
3, 215424, Note_on_c, 1, 46, 66
3, 215424, Note_on_c, 1, 34, 66
3, 215614, Note_off_c, 1, 46, 0
3, 215614, Note_off_c, 1, 34, 0
3, 215904, Note_on_c, 1, 53, 66
3, 215904, Note_on_c, 1, 41, 66
3, 215998, Note_off_c, 1, 53, 0
3, 215998, Note_off_c, 1, 41, 0
3, 216000, Note_on_c, 1, 58, 66
3, 216000, Note_on_c, 1, 46, 66
3, 216190, Note_off_c, 1, 58, 0
3, 216190, Note_off_c, 1, 46, 0
3, 216480, Note_on_c, 1, 53, 66
3, 216480, Note_on_c, 1, 41, 66
3, 216574, Note_off_c, 1, 53, 0
3, 216574, Note_off_c, 1, 41, 0
3, 216576, Note_on_c, 1, 58, 71
3, 216576, Note_on_c, 1, 46, 71
3, 216766, Note_off_c, 1, 58, 0
3, 216766, Note_off_c, 1, 46, 0
3, 216864, Note_on_c, 1, 58, 71
3, 216864, Note_on_c, 1, 46, 71
3, 217054, Note_off_c, 1, 58, 0
3, 217054, Note_off_c, 1, 46, 0
3, 217152, Note_on_c, 1, 46, 71
3, 217152, Note_on_c, 1, 34, 71
3, 217342, Note_off_c, 1, 46, 0
3, 217342, Note_off_c, 1, 34, 0
3, 217342, End_track
4, 0, Start_track
4, 0, Title_t, "K450 -c -Allegro"
4, 0, Control_c, 2, 0, 0
4, 0, Program_c, 2, 48
4, 0, Control_c, 2, 7, 127
4, 0, Control_c, 2, 10, 39
4, 0, Control_c, 2, 91, 61
4, 0, Control_c, 2, 93, 0
4, 0, Key_signature, -2, "minor"
4, 0, Control_c, 2, 121, 0
4, 48, Control_c, 2, 10, 53
4, 96, Control_c, 2, 91, 63
4, 144, Program_c, 2, 48
4, 672, Note_on_c, 2, 65, 60
4, 672, Note_on_c, 2, 62, 60
4, 672, Note_on_c, 2, 58, 60
4, 766, Note_off_c, 2, 65, 0
4, 766, Note_off_c, 2, 62, 0
4, 766, Note_off_c, 2, 58, 0
4, 768, Note_on_c, 2, 65, 60
4, 768, Note_on_c, 2, 62, 60
4, 768, Note_on_c, 2, 58, 60
4, 862, Note_off_c, 2, 65, 0
4, 862, Note_off_c, 2, 62, 0
4, 862, Note_off_c, 2, 58, 0
4, 864, Note_on_c, 2, 65, 60
4, 864, Note_on_c, 2, 62, 60
4, 864, Note_on_c, 2, 58, 60
4, 958, Note_off_c, 2, 65, 0
4, 958, Note_off_c, 2, 62, 0
4, 958, Note_off_c, 2, 58, 0
4, 960, Note_on_c, 2, 65, 60
4, 960, Note_on_c, 2, 62, 60
4, 960, Note_on_c, 2, 58, 60
4, 1054, Note_off_c, 2, 65, 0
4, 1054, Note_off_c, 2, 62, 0
4, 1054, Note_off_c, 2, 58, 0
4, 1056, Note_on_c, 2, 65, 60
4, 1056, Note_on_c, 2, 62, 60
4, 1056, Note_on_c, 2, 58, 60
4, 1150, Note_off_c, 2, 65, 0
4, 1150, Note_off_c, 2, 62, 0
4, 1150, Note_off_c, 2, 58, 0
4, 1248, Note_on_c, 2, 65, 60
4, 1248, Note_on_c, 2, 62, 60
4, 1248, Note_on_c, 2, 58, 60
4, 1342, Note_off_c, 2, 65, 0
4, 1342, Note_off_c, 2, 62, 0
4, 1342, Note_off_c, 2, 58, 0
4, 1344, Note_on_c, 2, 65, 60
4, 1344, Note_on_c, 2, 62, 60
4, 1344, Note_on_c, 2, 58, 60
4, 1438, Note_off_c, 2, 65, 0
4, 1438, Note_off_c, 2, 62, 0
4, 1438, Note_off_c, 2, 58, 0
4, 1440, Note_on_c, 2, 65, 60
4, 1440, Note_on_c, 2, 62, 60
4, 1440, Note_on_c, 2, 58, 60
4, 1534, Note_off_c, 2, 65, 0
4, 1534, Note_off_c, 2, 62, 0
4, 1534, Note_off_c, 2, 58, 0
4, 1536, Note_on_c, 2, 65, 60
4, 1536, Note_on_c, 2, 62, 60
4, 1536, Note_on_c, 2, 58, 60
4, 1630, Note_off_c, 2, 65, 0
4, 1630, Note_off_c, 2, 62, 0
4, 1630, Note_off_c, 2, 58, 0
4, 1632, Note_on_c, 2, 65, 60
4, 1632, Note_on_c, 2, 62, 60
4, 1632, Note_on_c, 2, 58, 60
4, 1726, Note_off_c, 2, 65, 0
4, 1726, Note_off_c, 2, 62, 0
4, 1726, Note_off_c, 2, 58, 0
4, 1824, Note_on_c, 2, 67, 60
4, 1824, Note_on_c, 2, 63, 60
4, 1824, Note_on_c, 2, 58, 60
4, 1918, Note_off_c, 2, 67, 0
4, 1918, Note_off_c, 2, 63, 0
4, 1918, Note_off_c, 2, 58, 0
4, 1920, Note_on_c, 2, 67, 60
4, 1920, Note_on_c, 2, 63, 60
4, 1920, Note_on_c, 2, 58, 60
4, 2014, Note_off_c, 2, 67, 0
4, 2014, Note_off_c, 2, 63, 0
4, 2014, Note_off_c, 2, 58, 0
4, 2016, Note_on_c, 2, 67, 60
4, 2016, Note_on_c, 2, 63, 60
4, 2016, Note_on_c, 2, 58, 60
4, 2110, Note_off_c, 2, 67, 0
4, 2110, Note_off_c, 2, 63, 0
4, 2110, Note_off_c, 2, 58, 0
4, 2112, Note_on_c, 2, 67, 60
4, 2112, Note_on_c, 2, 63, 60
4, 2112, Note_on_c, 2, 58, 60
4, 2206, Note_off_c, 2, 67, 0
4, 2206, Note_off_c, 2, 63, 0
4, 2206, Note_off_c, 2, 58, 0
4, 2208, Note_on_c, 2, 67, 60
4, 2208, Note_on_c, 2, 63, 60
4, 2208, Note_on_c, 2, 58, 60
4, 2302, Note_off_c, 2, 67, 0
4, 2302, Note_off_c, 2, 63, 0
4, 2302, Note_off_c, 2, 58, 0
4, 2400, Note_on_c, 2, 68, 60
4, 2400, Note_on_c, 2, 65, 60
4, 2400, Note_on_c, 2, 58, 60
4, 2494, Note_off_c, 2, 68, 0
4, 2494, Note_off_c, 2, 65, 0
4, 2494, Note_off_c, 2, 58, 0
4, 2496, Note_on_c, 2, 68, 60
4, 2496, Note_on_c, 2, 65, 60
4, 2496, Note_on_c, 2, 58, 60
4, 2590, Note_off_c, 2, 68, 0
4, 2590, Note_off_c, 2, 65, 0
4, 2590, Note_off_c, 2, 58, 0
4, 2592, Note_on_c, 2, 68, 60
4, 2592, Note_on_c, 2, 65, 60
4, 2592, Note_on_c, 2, 58, 60
4, 2686, Note_off_c, 2, 68, 0
4, 2686, Note_off_c, 2, 65, 0
4, 2686, Note_off_c, 2, 58, 0
4, 2688, Note_on_c, 2, 68, 60
4, 2688, Note_on_c, 2, 65, 60
4, 2688, Note_on_c, 2, 58, 60
4, 2782, Note_off_c, 2, 68, 0
4, 2782, Note_off_c, 2, 65, 0
4, 2782, Note_off_c, 2, 58, 0
4, 2784, Note_on_c, 2, 68, 60
4, 2784, Note_on_c, 2, 65, 60
4, 2784, Note_on_c, 2, 58, 60
4, 2878, Note_off_c, 2, 68, 0
4, 2878, Note_off_c, 2, 65, 0
4, 2878, Note_off_c, 2, 58, 0
4, 2976, Note_on_c, 2, 67, 60
4, 2976, Note_on_c, 2, 63, 60
4, 2976, Note_on_c, 2, 60, 60
4, 3070, Note_off_c, 2, 67, 0
4, 3070, Note_off_c, 2, 63, 0
4, 3070, Note_off_c, 2, 60, 0
4, 3072, Note_on_c, 2, 67, 60
4, 3072, Note_on_c, 2, 63, 60
4, 3072, Note_on_c, 2, 60, 60
4, 3166, Note_off_c, 2, 67, 0
4, 3166, Note_off_c, 2, 63, 0
4, 3166, Note_off_c, 2, 60, 0
4, 3168, Note_on_c, 2, 67, 60
4, 3168, Note_on_c, 2, 63, 60
4, 3168, Note_on_c, 2, 60, 60
4, 3262, Note_off_c, 2, 67, 0
4, 3262, Note_off_c, 2, 63, 0
4, 3262, Note_off_c, 2, 60, 0
4, 3264, Note_on_c, 2, 63, 60
4, 3264, Note_on_c, 2, 60, 60
4, 3264, Note_on_c, 2, 67, 60
4, 3358, Note_off_c, 2, 63, 0
4, 3358, Note_off_c, 2, 60, 0
4, 3358, Note_off_c, 2, 67, 0
4, 3360, Note_on_c, 2, 67, 60
4, 3360, Note_on_c, 2, 63, 60
4, 3360, Note_on_c, 2, 60, 60
4, 3454, Note_off_c, 2, 67, 0
4, 3454, Note_off_c, 2, 63, 0
4, 3454, Note_off_c, 2, 60, 0
4, 3552, Note_on_c, 2, 69, 60
4, 3552, Note_on_c, 2, 63, 60
4, 3552, Note_on_c, 2, 60, 60
4, 3552, Note_on_c, 2, 65, 60
4, 3646, Note_off_c, 2, 69, 0
4, 3646, Note_off_c, 2, 63, 0
4, 3646, Note_off_c, 2, 60, 0
4, 3646, Note_off_c, 2, 65, 0
4, 3648, Note_on_c, 2, 69, 60
4, 3648, Note_on_c, 2, 65, 60
4, 3648, Note_on_c, 2, 60, 60
4, 3648, Note_on_c, 2, 63, 60
4, 3742, Note_off_c, 2, 69, 0
4, 3742, Note_off_c, 2, 65, 0
4, 3742, Note_off_c, 2, 60, 0
4, 3742, Note_off_c, 2, 63, 0
4, 3744, Note_on_c, 2, 69, 60
4, 3744, Note_on_c, 2, 65, 60
4, 3744, Note_on_c, 2, 60, 60
4, 3744, Note_on_c, 2, 63, 60
4, 3838, Note_off_c, 2, 69, 0
4, 3838, Note_off_c, 2, 65, 0
4, 3838, Note_off_c, 2, 60, 0
4, 3838, Note_off_c, 2, 63, 0
4, 3840, Note_on_c, 2, 69, 60
4, 3840, Note_on_c, 2, 65, 60
4, 3840, Note_on_c, 2, 63, 60
4, 3840, Note_on_c, 2, 60, 60
4, 3934, Note_off_c, 2, 69, 0
4, 3934, Note_off_c, 2, 65, 0
4, 3934, Note_off_c, 2, 63, 0
4, 3934, Note_off_c, 2, 60, 0
4, 3936, Note_on_c, 2, 69, 60
4, 3936, Note_on_c, 2, 65, 60
4, 3936, Note_on_c, 2, 60, 60
4, 3936, Note_on_c, 2, 63, 60
4, 4030, Note_off_c, 2, 69, 0
4, 4030, Note_off_c, 2, 65, 0
4, 4030, Note_off_c, 2, 60, 0
4, 4030, Note_off_c, 2, 63, 0
4, 4032, Note_on_c, 2, 70, 60
4, 4032, Note_on_c, 2, 65, 60
4, 4032, Note_on_c, 2, 62, 60
4, 4222, Note_off_c, 2, 70, 0
4, 4222, Note_off_c, 2, 65, 0
4, 4222, Note_off_c, 2, 62, 0
4, 4512, Note_on_c, 2, 72, 60
4, 4512, Note_on_c, 2, 67, 60
4, 4606, Note_off_c, 2, 72, 0
4, 4606, Note_off_c, 2, 67, 0
4, 4608, Note_on_c, 2, 70, 60
4, 4894, Note_off_c, 2, 70, 0
4, 4896, Note_on_c, 2, 69, 60
4, 4990, Note_off_c, 2, 69, 0
4, 5088, Note_on_c, 2, 77, 77
4, 5182, Note_off_c, 2, 77, 0
4, 5184, Note_on_c, 2, 82, 77
4, 5184, Note_on_c, 2, 70, 77
4, 5280, Note_on_c, 2, 65, 77
4, 5280, Note_on_c, 2, 62, 77
4, 5280, Note_on_c, 2, 58, 77
4, 5374, Note_off_c, 2, 82, 0
4, 5374, Note_off_c, 2, 70, 0
4, 5374, Note_off_c, 2, 65, 0
4, 5374, Note_off_c, 2, 62, 0
4, 5374, Note_off_c, 2, 58, 0
4, 5376, Note_on_c, 2, 70, 77
4, 5376, Note_on_c, 2, 82, 77
4, 5376, Note_on_c, 2, 65, 77
4, 5376, Note_on_c, 2, 62, 77
4, 5376, Note_on_c, 2, 58, 77
4, 5470, Note_off_c, 2, 70, 0
4, 5470, Note_off_c, 2, 82, 0
4, 5470, Note_off_c, 2, 65, 0
4, 5470, Note_off_c, 2, 62, 0
4, 5470, Note_off_c, 2, 58, 0
4, 5472, Note_on_c, 2, 82, 77
4, 5472, Note_on_c, 2, 70, 77
4, 5472, Note_on_c, 2, 65, 77
4, 5472, Note_on_c, 2, 62, 77
4, 5472, Note_on_c, 2, 58, 77
4, 5518, Note_off_c, 2, 82, 0
4, 5518, Note_off_c, 2, 70, 0
4, 5518, Note_off_c, 2, 65, 0
4, 5518, Note_off_c, 2, 62, 0
4, 5518, Note_off_c, 2, 58, 0
4, 5568, Note_on_c, 2, 84, 77
4, 5568, Note_on_c, 2, 72, 77
4, 5568, Note_on_c, 2, 65, 77
4, 5568, Note_on_c, 2, 62, 77
4, 5568, Note_on_c, 2, 58, 77
4, 5614, Note_off_c, 2, 84, 0
4, 5614, Note_off_c, 2, 72, 0
4, 5614, Note_off_c, 2, 65, 0
4, 5614, Note_off_c, 2, 62, 0
4, 5614, Note_off_c, 2, 58, 0
4, 5664, Note_on_c, 2, 86, 77
4, 5664, Note_on_c, 2, 74, 77
4, 5664, Note_on_c, 2, 65, 77
4, 5664, Note_on_c, 2, 62, 77
4, 5664, Note_on_c, 2, 58, 77
4, 5710, Note_off_c, 2, 86, 0
4, 5710, Note_off_c, 2, 74, 0
4, 5710, Note_off_c, 2, 65, 0
4, 5710, Note_off_c, 2, 62, 0
4, 5710, Note_off_c, 2, 58, 0
4, 5760, Note_on_c, 2, 86, 77
4, 5760, Note_on_c, 2, 74, 77
4, 5760, Note_on_c, 2, 65, 77
4, 5760, Note_on_c, 2, 62, 77
4, 5760, Note_on_c, 2, 58, 77
4, 5854, Note_off_c, 2, 86, 0
4, 5854, Note_off_c, 2, 74, 0
4, 5854, Note_off_c, 2, 65, 0
4, 5854, Note_off_c, 2, 62, 0
4, 5854, Note_off_c, 2, 58, 0
4, 5856, Note_on_c, 2, 77, 77
4, 5856, Note_on_c, 2, 65, 77
4, 5856, Note_on_c, 2, 62, 77
4, 5856, Note_on_c, 2, 58, 77
4, 5950, Note_off_c, 2, 77, 0
4, 5950, Note_off_c, 2, 65, 0
4, 5950, Note_off_c, 2, 62, 0
4, 5950, Note_off_c, 2, 58, 0
4, 5952, Note_on_c, 2, 77, 77
4, 5952, Note_on_c, 2, 74, 77
4, 5952, Note_on_c, 2, 65, 77
4, 5952, Note_on_c, 2, 62, 77
4, 5952, Note_on_c, 2, 58, 77
4, 5998, Note_off_c, 2, 77, 0
4, 5998, Note_off_c, 2, 74, 0
4, 5998, Note_off_c, 2, 65, 0
4, 5998, Note_off_c, 2, 62, 0
4, 5998, Note_off_c, 2, 58, 0
4, 6048, Note_on_c, 2, 77, 77
4, 6048, Note_on_c, 2, 74, 77
4, 6048, Note_on_c, 2, 65, 77
4, 6048, Note_on_c, 2, 62, 77
4, 6048, Note_on_c, 2, 58, 77
4, 6142, Note_off_c, 2, 65, 0
4, 6142, Note_off_c, 2, 62, 0
4, 6142, Note_off_c, 2, 58, 0
4, 6144, Note_on_c, 2, 65, 77
4, 6144, Note_on_c, 2, 58, 77
4, 6144, Note_on_c, 2, 62, 77
4, 6238, Note_off_c, 2, 77, 0
4, 6238, Note_off_c, 2, 74, 0
4, 6238, Note_off_c, 2, 65, 0
4, 6238, Note_off_c, 2, 58, 0
4, 6238, Note_off_c, 2, 62, 0
4, 6240, Note_on_c, 2, 77, 77
4, 6240, Note_on_c, 2, 74, 77
4, 6240, Note_on_c, 2, 65, 77
4, 6240, Note_on_c, 2, 62, 77
4, 6240, Note_on_c, 2, 58, 77
4, 6334, Note_off_c, 2, 77, 0
4, 6334, Note_off_c, 2, 74, 0
4, 6334, Note_off_c, 2, 65, 0
4, 6334, Note_off_c, 2, 62, 0
4, 6334, Note_off_c, 2, 58, 0
4, 6336, Note_on_c, 2, 79, 77
4, 6336, Note_on_c, 2, 75, 77
4, 6430, Note_off_c, 2, 79, 0
4, 6430, Note_off_c, 2, 75, 0
4, 6432, Note_on_c, 2, 67, 77
4, 6432, Note_on_c, 2, 63, 77
4, 6432, Note_on_c, 2, 58, 77
4, 6526, Note_off_c, 2, 67, 0
4, 6526, Note_off_c, 2, 63, 0
4, 6526, Note_off_c, 2, 58, 0
4, 6528, Note_on_c, 2, 79, 77
4, 6528, Note_on_c, 2, 75, 77
4, 6528, Note_on_c, 2, 67, 77
4, 6528, Note_on_c, 2, 63, 77
4, 6528, Note_on_c, 2, 58, 77
4, 6622, Note_off_c, 2, 79, 0
4, 6622, Note_off_c, 2, 75, 0
4, 6622, Note_off_c, 2, 67, 0
4, 6622, Note_off_c, 2, 63, 0
4, 6622, Note_off_c, 2, 58, 0
4, 6624, Note_on_c, 2, 79, 77
4, 6624, Note_on_c, 2, 75, 77
4, 6624, Note_on_c, 2, 67, 77
4, 6624, Note_on_c, 2, 63, 77
4, 6624, Note_on_c, 2, 58, 77
4, 6670, Note_off_c, 2, 79, 0
4, 6670, Note_off_c, 2, 75, 0
4, 6670, Note_off_c, 2, 67, 0
4, 6670, Note_off_c, 2, 63, 0
4, 6670, Note_off_c, 2, 58, 0
4, 6720, Note_on_c, 2, 81, 77
4, 6720, Note_on_c, 2, 69, 77
4, 6720, Note_on_c, 2, 67, 77
4, 6720, Note_on_c, 2, 63, 77
4, 6720, Note_on_c, 2, 58, 77
4, 6766, Note_off_c, 2, 81, 0
4, 6766, Note_off_c, 2, 69, 0
4, 6766, Note_off_c, 2, 67, 0
4, 6766, Note_off_c, 2, 63, 0
4, 6766, Note_off_c, 2, 58, 0
4, 6816, Note_on_c, 2, 82, 77
4, 6816, Note_on_c, 2, 70, 77
4, 6816, Note_on_c, 2, 67, 77
4, 6816, Note_on_c, 2, 63, 77
4, 6816, Note_on_c, 2, 58, 77
4, 6862, Note_off_c, 2, 82, 0
4, 6862, Note_off_c, 2, 70, 0
4, 6862, Note_off_c, 2, 67, 0
4, 6862, Note_off_c, 2, 63, 0
4, 6862, Note_off_c, 2, 58, 0
4, 6912, Note_on_c, 2, 82, 77
4, 6912, Note_on_c, 2, 70, 77
4, 6912, Note_on_c, 2, 68, 77
4, 6912, Note_on_c, 2, 65, 77
4, 6912, Note_on_c, 2, 58, 77
4, 7006, Note_off_c, 2, 82, 0
4, 7006, Note_off_c, 2, 70, 0
4, 7006, Note_off_c, 2, 68, 0
4, 7006, Note_off_c, 2, 65, 0
4, 7006, Note_off_c, 2, 58, 0
4, 7008, Note_on_c, 2, 74, 77
4, 7008, Note_on_c, 2, 68, 77
4, 7008, Note_on_c, 2, 65, 77
4, 7008, Note_on_c, 2, 58, 77
4, 7102, Note_off_c, 2, 74, 0
4, 7102, Note_off_c, 2, 68, 0
4, 7102, Note_off_c, 2, 65, 0
4, 7102, Note_off_c, 2, 58, 0
4, 7104, Note_on_c, 2, 74, 77
4, 7104, Note_on_c, 2, 70, 77
4, 7104, Note_on_c, 2, 68, 77
4, 7104, Note_on_c, 2, 65, 77
4, 7104, Note_on_c, 2, 58, 77
4, 7150, Note_off_c, 2, 74, 0
4, 7150, Note_off_c, 2, 70, 0
4, 7150, Note_off_c, 2, 68, 0
4, 7150, Note_off_c, 2, 65, 0
4, 7150, Note_off_c, 2, 58, 0
4, 7200, Note_on_c, 2, 74, 77
4, 7200, Note_on_c, 2, 70, 77
4, 7200, Note_on_c, 2, 68, 77
4, 7200, Note_on_c, 2, 65, 77
4, 7200, Note_on_c, 2, 58, 77
4, 7294, Note_off_c, 2, 68, 0
4, 7294, Note_off_c, 2, 65, 0
4, 7294, Note_off_c, 2, 58, 0
4, 7296, Note_on_c, 2, 68, 77
4, 7296, Note_on_c, 2, 65, 77
4, 7296, Note_on_c, 2, 58, 77
4, 7390, Note_off_c, 2, 74, 0
4, 7390, Note_off_c, 2, 70, 0
4, 7390, Note_off_c, 2, 68, 0
4, 7390, Note_off_c, 2, 65, 0
4, 7390, Note_off_c, 2, 58, 0
4, 7392, Note_on_c, 2, 74, 77
4, 7392, Note_on_c, 2, 70, 77
4, 7392, Note_on_c, 2, 68, 77
4, 7392, Note_on_c, 2, 65, 77
4, 7392, Note_on_c, 2, 58, 77
4, 7486, Note_off_c, 2, 74, 0
4, 7486, Note_off_c, 2, 70, 0
4, 7486, Note_off_c, 2, 68, 0
4, 7486, Note_off_c, 2, 65, 0
4, 7486, Note_off_c, 2, 58, 0
4, 7488, Note_on_c, 2, 75, 77
4, 7584, Note_on_c, 2, 67, 77
4, 7584, Note_on_c, 2, 63, 77
4, 7584, Note_on_c, 2, 58, 77
4, 7678, Note_off_c, 2, 75, 0
4, 7678, Note_off_c, 2, 67, 0
4, 7678, Note_off_c, 2, 63, 0
4, 7678, Note_off_c, 2, 58, 0
4, 7680, Note_on_c, 2, 75, 77
4, 7680, Note_on_c, 2, 70, 77
4, 7680, Note_on_c, 2, 67, 77
4, 7680, Note_on_c, 2, 58, 77
4, 7680, Note_on_c, 2, 63, 77
4, 7774, Note_off_c, 2, 75, 0
4, 7774, Note_off_c, 2, 70, 0
4, 7774, Note_off_c, 2, 67, 0
4, 7774, Note_off_c, 2, 58, 0
4, 7774, Note_off_c, 2, 63, 0
4, 7776, Note_on_c, 2, 75, 77
4, 7776, Note_on_c, 2, 70, 77
4, 7776, Note_on_c, 2, 67, 77
4, 7776, Note_on_c, 2, 63, 77
4, 7776, Note_on_c, 2, 58, 77
4, 7822, Note_off_c, 2, 75, 0
4, 7822, Note_off_c, 2, 70, 0
4, 7822, Note_off_c, 2, 67, 0
4, 7822, Note_off_c, 2, 63, 0
4, 7822, Note_off_c, 2, 58, 0
4, 7872, Note_on_c, 2, 77, 77
4, 7872, Note_on_c, 2, 70, 77
4, 7872, Note_on_c, 2, 67, 77
4, 7872, Note_on_c, 2, 63, 77
4, 7872, Note_on_c, 2, 58, 77
4, 7918, Note_off_c, 2, 77, 0
4, 7918, Note_off_c, 2, 70, 0
4, 7918, Note_off_c, 2, 67, 0
4, 7918, Note_off_c, 2, 63, 0
4, 7918, Note_off_c, 2, 58, 0
4, 7968, Note_on_c, 2, 79, 77
4, 7968, Note_on_c, 2, 70, 77
4, 7968, Note_on_c, 2, 67, 77
4, 7968, Note_on_c, 2, 63, 77
4, 7968, Note_on_c, 2, 58, 77
4, 8014, Note_off_c, 2, 79, 0
4, 8014, Note_off_c, 2, 70, 0
4, 8014, Note_off_c, 2, 67, 0
4, 8014, Note_off_c, 2, 63, 0
4, 8014, Note_off_c, 2, 58, 0
4, 8064, Note_on_c, 2, 79, 77
4, 8064, Note_on_c, 2, 69, 77
4, 8064, Note_on_c, 2, 63, 77
4, 8064, Note_on_c, 2, 58, 77
4, 8064, Note_on_c, 2, 65, 77
4, 8158, Note_off_c, 2, 79, 0
4, 8158, Note_off_c, 2, 69, 0
4, 8158, Note_off_c, 2, 63, 0
4, 8158, Note_off_c, 2, 58, 0
4, 8158, Note_off_c, 2, 65, 0
4, 8160, Note_on_c, 2, 72, 77
4, 8160, Note_on_c, 2, 69, 77
4, 8160, Note_on_c, 2, 63, 77
4, 8160, Note_on_c, 2, 58, 77
4, 8160, Note_on_c, 2, 65, 77
4, 8254, Note_off_c, 2, 72, 0
4, 8254, Note_off_c, 2, 69, 0
4, 8254, Note_off_c, 2, 63, 0
4, 8254, Note_off_c, 2, 58, 0
4, 8254, Note_off_c, 2, 65, 0
4, 8256, Note_on_c, 2, 72, 77
4, 8256, Note_on_c, 2, 69, 77
4, 8256, Note_on_c, 2, 63, 77
4, 8256, Note_on_c, 2, 58, 77
4, 8256, Note_on_c, 2, 65, 77
4, 8302, Note_off_c, 2, 72, 0
4, 8302, Note_off_c, 2, 69, 0
4, 8302, Note_off_c, 2, 63, 0
4, 8302, Note_off_c, 2, 58, 0
4, 8302, Note_off_c, 2, 65, 0
4, 8352, Note_on_c, 2, 72, 77
4, 8352, Note_on_c, 2, 69, 77
4, 8352, Note_on_c, 2, 63, 77
4, 8352, Note_on_c, 2, 58, 77
4, 8352, Note_on_c, 2, 65, 77
4, 8446, Note_off_c, 2, 63, 0
4, 8446, Note_off_c, 2, 58, 0
4, 8446, Note_off_c, 2, 65, 0
4, 8448, Note_on_c, 2, 63, 77
4, 8448, Note_on_c, 2, 58, 77
4, 8448, Note_on_c, 2, 65, 77
4, 8542, Note_off_c, 2, 72, 0
4, 8542, Note_off_c, 2, 69, 0
4, 8542, Note_off_c, 2, 63, 0
4, 8542, Note_off_c, 2, 58, 0
4, 8542, Note_off_c, 2, 65, 0
4, 8544, Note_on_c, 2, 72, 77
4, 8544, Note_on_c, 2, 75, 77
4, 8544, Note_on_c, 2, 63, 77
4, 8544, Note_on_c, 2, 58, 77
4, 8544, Note_on_c, 2, 65, 77
4, 8638, Note_off_c, 2, 72, 0
4, 8638, Note_off_c, 2, 75, 0
4, 8638, Note_off_c, 2, 63, 0
4, 8638, Note_off_c, 2, 58, 0
4, 8638, Note_off_c, 2, 65, 0
4, 8640, Note_on_c, 2, 74, 77
4, 8640, Note_on_c, 2, 70, 77
4, 8640, Note_on_c, 2, 65, 77
4, 8640, Note_on_c, 2, 62, 77
4, 8640, Note_on_c, 2, 58, 77
4, 8734, Note_off_c, 2, 74, 0
4, 8734, Note_off_c, 2, 70, 0
4, 8736, Note_on_c, 2, 70, 77
4, 8830, Note_off_c, 2, 65, 0
4, 8830, Note_off_c, 2, 62, 0
4, 8830, Note_off_c, 2, 58, 0
4, 8830, Note_off_c, 2, 70, 0
4, 8832, Note_on_c, 2, 74, 77
4, 8832, Note_on_c, 2, 77, 77
4, 8832, Note_on_c, 2, 65, 77
4, 8832, Note_on_c, 2, 62, 77
4, 8926, Note_off_c, 2, 74, 0
4, 8926, Note_off_c, 2, 77, 0
4, 8926, Note_off_c, 2, 65, 0
4, 8926, Note_off_c, 2, 62, 0
4, 8928, Note_on_c, 2, 77, 77
4, 8928, Note_on_c, 2, 74, 77
4, 8950, Note_off_c, 2, 77, 0
4, 8950, Note_off_c, 2, 74, 0
4, 8952, Note_on_c, 2, 75, 77
4, 8952, Note_on_c, 2, 72, 77
4, 8998, Note_off_c, 2, 75, 0
4, 8998, Note_off_c, 2, 72, 0
4, 9024, Note_on_c, 2, 74, 77
4, 9024, Note_on_c, 2, 70, 77
4, 9070, Note_off_c, 2, 74, 0
4, 9070, Note_off_c, 2, 70, 0
4, 9120, Note_on_c, 2, 72, 77
4, 9120, Note_on_c, 2, 69, 77
4, 9166, Note_off_c, 2, 72, 0
4, 9166, Note_off_c, 2, 69, 0
4, 9216, Note_on_c, 2, 70, 77
4, 9216, Note_on_c, 2, 62, 77
4, 9310, Note_off_c, 2, 70, 0
4, 9310, Note_off_c, 2, 62, 0
4, 9408, Note_on_c, 2, 77, 77
4, 9408, Note_on_c, 2, 65, 77
4, 9502, Note_off_c, 2, 77, 0
4, 9502, Note_off_c, 2, 65, 0
4, 9504, Note_on_c, 2, 77, 77
4, 9504, Note_on_c, 2, 65, 77
4, 9598, Note_off_c, 2, 77, 0
4, 9598, Note_off_c, 2, 65, 0
4, 9600, Note_on_c, 2, 65, 77
4, 9600, Note_on_c, 2, 77, 77
4, 9694, Note_off_c, 2, 65, 0
4, 9694, Note_off_c, 2, 77, 0
4, 9696, Note_on_c, 2, 77, 77
4, 9696, Note_on_c, 2, 65, 77
4, 9790, Note_off_c, 2, 77, 0
4, 9790, Note_off_c, 2, 65, 0
4, 9792, Note_on_c, 2, 77, 77
4, 9792, Note_on_c, 2, 65, 77
4, 9886, Note_off_c, 2, 77, 0
4, 9886, Note_off_c, 2, 65, 0
4, 9888, Note_on_c, 2, 74, 77
4, 9982, Note_off_c, 2, 74, 0
4, 9984, Note_on_c, 2, 77, 77
4, 9984, Note_on_c, 2, 65, 77
4, 10078, Note_off_c, 2, 77, 0
4, 10078, Note_off_c, 2, 65, 0
4, 10080, Note_on_c, 2, 77, 77
4, 10080, Note_on_c, 2, 65, 77
4, 10174, Note_off_c, 2, 77, 0
4, 10174, Note_off_c, 2, 65, 0
4, 10176, Note_on_c, 2, 82, 77
4, 10176, Note_on_c, 2, 70, 77
4, 10270, Note_off_c, 2, 82, 0
4, 10270, Note_off_c, 2, 70, 0
4, 10272, Note_on_c, 2, 77, 77
4, 10366, Note_off_c, 2, 77, 0
4, 10368, Note_on_c, 2, 77, 77
4, 10368, Note_on_c, 2, 65, 77
4, 10558, Note_off_c, 2, 77, 0
4, 10558, Note_off_c, 2, 65, 0
4, 10656, Note_on_c, 2, 77, 60
4, 10656, Note_on_c, 2, 72, 60
4, 10942, Note_off_c, 2, 77, 0
4, 10942, Note_off_c, 2, 72, 0
4, 10944, Note_on_c, 2, 77, 60
4, 10944, Note_on_c, 2, 70, 60
4, 11038, Note_off_c, 2, 77, 0
4, 11038, Note_off_c, 2, 70, 0
4, 11040, Note_on_c, 2, 75, 60
4, 11040, Note_on_c, 2, 72, 60
4, 11086, Note_off_c, 2, 75, 0
4, 11086, Note_off_c, 2, 72, 0
4, 11136, Note_on_c, 2, 74, 60
4, 11136, Note_on_c, 2, 70, 60
4, 11182, Note_off_c, 2, 74, 0
4, 11182, Note_off_c, 2, 70, 0
4, 11232, Note_on_c, 2, 74, 60
4, 11252, Note_off_c, 2, 74, 0
4, 11254, Note_on_c, 2, 72, 60
4, 11254, Note_on_c, 2, 69, 60
4, 11284, Note_off_c, 2, 72, 0
4, 11284, Note_off_c, 2, 69, 0
4, 11328, Note_on_c, 2, 70, 60
4, 11328, Note_on_c, 2, 67, 60
4, 11374, Note_off_c, 2, 70, 0
4, 11374, Note_off_c, 2, 67, 0
4, 11424, Note_on_c, 2, 72, 60
4, 11424, Note_on_c, 2, 69, 60
4, 11470, Note_off_c, 2, 72, 0
4, 11470, Note_off_c, 2, 69, 0
4, 11520, Note_on_c, 2, 70, 60
4, 11520, Note_on_c, 2, 62, 60
4, 11614, Note_off_c, 2, 70, 0
4, 11614, Note_off_c, 2, 62, 0
4, 11712, Note_on_c, 2, 77, 77
4, 11712, Note_on_c, 2, 65, 77
4, 11806, Note_off_c, 2, 77, 0
4, 11806, Note_off_c, 2, 65, 0
4, 11808, Note_on_c, 2, 77, 77
4, 11808, Note_on_c, 2, 65, 77
4, 11902, Note_off_c, 2, 77, 0
4, 11902, Note_off_c, 2, 65, 0
4, 11904, Note_on_c, 2, 77, 77
4, 11904, Note_on_c, 2, 65, 77
4, 11998, Note_off_c, 2, 77, 0
4, 11998, Note_off_c, 2, 65, 0
4, 12000, Note_on_c, 2, 77, 77
4, 12000, Note_on_c, 2, 65, 77
4, 12094, Note_off_c, 2, 77, 0
4, 12094, Note_off_c, 2, 65, 0
4, 12096, Note_on_c, 2, 77, 77
4, 12096, Note_on_c, 2, 65, 77
4, 12190, Note_off_c, 2, 77, 0
4, 12190, Note_off_c, 2, 65, 0
4, 12192, Note_on_c, 2, 74, 77
4, 12286, Note_off_c, 2, 74, 0
4, 12288, Note_on_c, 2, 77, 77
4, 12288, Note_on_c, 2, 65, 77
4, 12382, Note_off_c, 2, 77, 0
4, 12382, Note_off_c, 2, 65, 0
4, 12384, Note_on_c, 2, 77, 77
4, 12478, Note_off_c, 2, 77, 0
4, 12480, Note_on_c, 2, 82, 77
4, 12480, Note_on_c, 2, 70, 77
4, 12574, Note_off_c, 2, 82, 0
4, 12574, Note_off_c, 2, 70, 0
4, 12576, Note_on_c, 2, 77, 77
4, 12670, Note_off_c, 2, 77, 0
4, 12672, Note_on_c, 2, 77, 77
4, 12672, Note_on_c, 2, 65, 77
4, 12958, Note_off_c, 2, 77, 0
4, 12958, Note_off_c, 2, 65, 0
4, 12960, Note_on_c, 2, 74, 77
4, 12960, Note_on_c, 2, 62, 77
4, 13150, Note_off_c, 2, 74, 0
4, 13150, Note_off_c, 2, 62, 0
4, 13152, Note_on_c, 2, 77, 77
4, 13152, Note_on_c, 2, 65, 77
4, 13246, Note_off_c, 2, 77, 0
4, 13246, Note_off_c, 2, 65, 0
4, 13248, Note_on_c, 2, 77, 77
4, 13248, Note_on_c, 2, 65, 77
4, 13534, Note_off_c, 2, 77, 0
4, 13534, Note_off_c, 2, 65, 0
4, 13536, Note_on_c, 2, 82, 77
4, 13536, Note_on_c, 2, 70, 77
4, 13726, Note_off_c, 2, 82, 0
4, 13726, Note_off_c, 2, 70, 0
4, 13728, Note_on_c, 2, 77, 77
4, 13728, Note_on_c, 2, 65, 77
4, 13822, Note_off_c, 2, 77, 0
4, 13822, Note_off_c, 2, 65, 0
4, 13824, Note_on_c, 2, 77, 77
4, 13824, Note_on_c, 2, 65, 77
4, 13918, Note_off_c, 2, 65, 0
4, 13920, Note_on_c, 2, 65, 77
4, 14014, Note_off_c, 2, 65, 0
4, 14016, Note_on_c, 2, 65, 77
4, 14110, Note_off_c, 2, 65, 0
4, 14112, Note_on_c, 2, 65, 77
4, 14206, Note_off_c, 2, 65, 0
4, 14208, Note_on_c, 2, 65, 77
4, 14302, Note_off_c, 2, 65, 0
4, 14304, Note_on_c, 2, 65, 77
4, 14398, Note_off_c, 2, 77, 0
4, 14398, Note_off_c, 2, 65, 0
4, 14400, Note_on_c, 2, 74, 77
4, 14400, Note_on_c, 2, 62, 77
4, 14590, Note_off_c, 2, 74, 0
4, 14590, Note_off_c, 2, 62, 0
4, 14904, Note_on_c, 2, 75, 81
4, 14920, Note_off_c, 2, 75, 0
4, 14928, Note_on_c, 2, 77, 81
4, 14944, Note_off_c, 2, 77, 0
4, 14952, Note_on_c, 2, 81, 81
4, 14968, Note_off_c, 2, 81, 0
4, 14976, Note_on_c, 2, 82, 77
4, 14976, Note_on_c, 2, 77, 77
4, 14976, Note_on_c, 2, 70, 77
4, 15166, Note_off_c, 2, 82, 0
4, 15264, Note_on_c, 2, 82, 77
4, 15454, Note_off_c, 2, 82, 0
4, 15550, Note_off_c, 2, 77, 0
4, 15550, Note_off_c, 2, 70, 0
4, 15552, Note_on_c, 2, 79, 77
4, 15552, Note_on_c, 2, 75, 77
4, 15552, Note_on_c, 2, 70, 77
4, 15552, Note_on_c, 2, 67, 77
4, 15838, Note_off_c, 2, 79, 0
4, 15838, Note_off_c, 2, 75, 0
4, 15838, Note_off_c, 2, 70, 0
4, 15838, Note_off_c, 2, 67, 0
4, 15840, Note_on_c, 2, 79, 77
4, 15840, Note_on_c, 2, 75, 77
4, 15840, Note_on_c, 2, 70, 77
4, 15840, Note_on_c, 2, 67, 77
4, 16030, Note_off_c, 2, 79, 0
4, 16030, Note_off_c, 2, 75, 0
4, 16030, Note_off_c, 2, 70, 0
4, 16030, Note_off_c, 2, 67, 0
4, 16056, Note_on_c, 2, 82, 81
4, 16072, Note_off_c, 2, 82, 0
4, 16080, Note_on_c, 2, 81, 81
4, 16096, Note_off_c, 2, 81, 0
4, 16104, Note_on_c, 2, 79, 81
4, 16120, Note_off_c, 2, 79, 0
4, 16128, Note_on_c, 2, 77, 77
4, 16318, Note_off_c, 2, 77, 0
4, 16416, Note_on_c, 2, 77, 77
4, 16416, Note_on_c, 2, 72, 77
4, 16606, Note_off_c, 2, 77, 0
4, 16606, Note_off_c, 2, 72, 0
4, 16704, Note_on_c, 2, 74, 77
4, 16704, Note_on_c, 2, 70, 77
4, 16990, Note_off_c, 2, 74, 0
4, 16990, Note_off_c, 2, 70, 0
4, 16992, Note_on_c, 2, 74, 77
4, 16992, Note_on_c, 2, 70, 77
4, 17182, Note_off_c, 2, 74, 0
4, 17182, Note_off_c, 2, 70, 0
4, 17208, Note_on_c, 2, 77, 81
4, 17224, Note_off_c, 2, 77, 0
4, 17232, Note_on_c, 2, 79, 81
4, 17248, Note_off_c, 2, 79, 0
4, 17256, Note_on_c, 2, 81, 81
4, 17272, Note_off_c, 2, 81, 0
4, 17280, Note_on_c, 2, 82, 77
4, 17280, Note_on_c, 2, 77, 77
4, 17280, Note_on_c, 2, 70, 77
4, 17470, Note_off_c, 2, 82, 0
4, 17568, Note_on_c, 2, 82, 77
4, 17854, Note_off_c, 2, 77, 0
4, 17854, Note_off_c, 2, 70, 0
4, 17854, Note_off_c, 2, 82, 0
4, 17856, Note_on_c, 2, 79, 77
4, 17856, Note_on_c, 2, 75, 77
4, 17856, Note_on_c, 2, 70, 77
4, 17856, Note_on_c, 2, 67, 77
4, 18142, Note_off_c, 2, 79, 0
4, 18142, Note_off_c, 2, 75, 0
4, 18142, Note_off_c, 2, 70, 0
4, 18142, Note_off_c, 2, 67, 0
4, 18144, Note_on_c, 2, 79, 77
4, 18144, Note_on_c, 2, 75, 77
4, 18144, Note_on_c, 2, 70, 77
4, 18144, Note_on_c, 2, 67, 77
4, 18334, Note_off_c, 2, 79, 0
4, 18334, Note_off_c, 2, 75, 0
4, 18334, Note_off_c, 2, 70, 0
4, 18334, Note_off_c, 2, 67, 0
4, 18360, Note_on_c, 2, 82, 81
4, 18376, Note_off_c, 2, 82, 0
4, 18384, Note_on_c, 2, 79, 81
4, 18400, Note_off_c, 2, 79, 0
4, 18408, Note_on_c, 2, 77, 81
4, 18424, Note_off_c, 2, 77, 0
4, 18432, Note_on_c, 2, 77, 77
4, 18622, Note_off_c, 2, 77, 0
4, 18720, Note_on_c, 2, 77, 77
4, 18720, Note_on_c, 2, 72, 77
4, 18910, Note_off_c, 2, 77, 0
4, 18910, Note_off_c, 2, 72, 0
4, 19008, Note_on_c, 2, 82, 77
4, 19008, Note_on_c, 2, 74, 77
4, 19054, Note_off_c, 2, 82, 0
4, 19054, Note_off_c, 2, 74, 0
4, 19056, Note_on_c, 2, 70, 77
4, 19102, Note_off_c, 2, 70, 0
4, 19104, Note_on_c, 2, 82, 77
4, 19104, Note_on_c, 2, 74, 77
4, 19150, Note_off_c, 2, 82, 0
4, 19150, Note_off_c, 2, 74, 0
4, 19152, Note_on_c, 2, 70, 77
4, 19198, Note_off_c, 2, 70, 0
4, 19200, Note_on_c, 2, 82, 77
4, 19200, Note_on_c, 2, 74, 77
4, 19246, Note_off_c, 2, 82, 0
4, 19246, Note_off_c, 2, 74, 0
4, 19248, Note_on_c, 2, 70, 77
4, 19294, Note_off_c, 2, 70, 0
4, 19296, Note_on_c, 2, 82, 77
4, 19296, Note_on_c, 2, 74, 77
4, 19342, Note_off_c, 2, 82, 0
4, 19342, Note_off_c, 2, 74, 0
4, 19344, Note_on_c, 2, 70, 77
4, 19390, Note_off_c, 2, 70, 0
4, 19392, Note_on_c, 2, 82, 77
4, 19392, Note_on_c, 2, 74, 77
4, 19438, Note_off_c, 2, 82, 0
4, 19438, Note_off_c, 2, 74, 0
4, 19440, Note_on_c, 2, 70, 77
4, 19486, Note_off_c, 2, 70, 0
4, 19488, Note_on_c, 2, 82, 77
4, 19488, Note_on_c, 2, 74, 77
4, 19534, Note_off_c, 2, 82, 0
4, 19534, Note_off_c, 2, 74, 0
4, 19536, Note_on_c, 2, 70, 77
4, 19582, Note_off_c, 2, 70, 0
4, 19584, Note_on_c, 2, 82, 77
4, 19584, Note_on_c, 2, 74, 77
4, 19630, Note_off_c, 2, 82, 0
4, 19630, Note_off_c, 2, 74, 0
4, 19632, Note_on_c, 2, 70, 77
4, 19678, Note_off_c, 2, 70, 0
4, 19680, Note_on_c, 2, 82, 77
4, 19680, Note_on_c, 2, 74, 77
4, 19726, Note_off_c, 2, 82, 0
4, 19726, Note_off_c, 2, 74, 0
4, 19728, Note_on_c, 2, 70, 77
4, 19774, Note_off_c, 2, 70, 0
4, 19776, Note_on_c, 2, 82, 77
4, 19776, Note_on_c, 2, 74, 77
4, 19822, Note_off_c, 2, 82, 0
4, 19822, Note_off_c, 2, 74, 0
4, 19824, Note_on_c, 2, 70, 77
4, 19870, Note_off_c, 2, 70, 0
4, 19872, Note_on_c, 2, 82, 77
4, 19872, Note_on_c, 2, 74, 77
4, 19918, Note_off_c, 2, 82, 0
4, 19918, Note_off_c, 2, 74, 0
4, 19920, Note_on_c, 2, 70, 77
4, 19966, Note_off_c, 2, 70, 0
4, 19968, Note_on_c, 2, 82, 77
4, 19968, Note_on_c, 2, 74, 77
4, 20014, Note_off_c, 2, 82, 0
4, 20014, Note_off_c, 2, 74, 0
4, 20016, Note_on_c, 2, 70, 77
4, 20062, Note_off_c, 2, 70, 0
4, 20064, Note_on_c, 2, 82, 77
4, 20064, Note_on_c, 2, 74, 77
4, 20110, Note_off_c, 2, 82, 0
4, 20110, Note_off_c, 2, 74, 0
4, 20112, Note_on_c, 2, 70, 77
4, 20158, Note_off_c, 2, 70, 0
4, 20160, Note_on_c, 2, 82, 77
4, 20160, Note_on_c, 2, 74, 77
4, 20206, Note_off_c, 2, 82, 0
4, 20206, Note_off_c, 2, 74, 0
4, 20208, Note_on_c, 2, 70, 77
4, 20254, Note_off_c, 2, 70, 0
4, 20256, Note_on_c, 2, 82, 77
4, 20256, Note_on_c, 2, 74, 77
4, 20302, Note_off_c, 2, 82, 0
4, 20302, Note_off_c, 2, 74, 0
4, 20304, Note_on_c, 2, 70, 77
4, 20350, Note_off_c, 2, 70, 0
4, 20352, Note_on_c, 2, 82, 77
4, 20352, Note_on_c, 2, 74, 77
4, 20398, Note_off_c, 2, 82, 0
4, 20398, Note_off_c, 2, 74, 0
4, 20400, Note_on_c, 2, 70, 77
4, 20446, Note_off_c, 2, 70, 0
4, 20448, Note_on_c, 2, 82, 77
4, 20448, Note_on_c, 2, 74, 77
4, 20494, Note_off_c, 2, 82, 0
4, 20494, Note_off_c, 2, 74, 0
4, 20496, Note_on_c, 2, 70, 77
4, 20542, Note_off_c, 2, 70, 0
4, 20544, Note_on_c, 2, 82, 77
4, 20544, Note_on_c, 2, 74, 77
4, 20590, Note_off_c, 2, 82, 0
4, 20590, Note_off_c, 2, 74, 0
4, 20592, Note_on_c, 2, 70, 77
4, 20638, Note_off_c, 2, 70, 0
4, 20640, Note_on_c, 2, 82, 77
4, 20640, Note_on_c, 2, 74, 77
4, 20686, Note_off_c, 2, 82, 0
4, 20686, Note_off_c, 2, 74, 0
4, 20688, Note_on_c, 2, 70, 77
4, 20734, Note_off_c, 2, 70, 0
4, 20736, Note_on_c, 2, 82, 77
4, 20736, Note_on_c, 2, 75, 77
4, 20782, Note_off_c, 2, 82, 0
4, 20782, Note_off_c, 2, 75, 0
4, 20784, Note_on_c, 2, 70, 77
4, 20830, Note_off_c, 2, 70, 0
4, 20832, Note_on_c, 2, 75, 77
4, 20832, Note_on_c, 2, 82, 77
4, 20878, Note_off_c, 2, 75, 0
4, 20878, Note_off_c, 2, 82, 0
4, 20880, Note_on_c, 2, 70, 77
4, 20926, Note_off_c, 2, 70, 0
4, 20928, Note_on_c, 2, 82, 77
4, 20928, Note_on_c, 2, 75, 77
4, 20974, Note_off_c, 2, 82, 0
4, 20974, Note_off_c, 2, 75, 0
4, 20976, Note_on_c, 2, 70, 77
4, 21022, Note_off_c, 2, 70, 0
4, 21024, Note_on_c, 2, 82, 77
4, 21024, Note_on_c, 2, 76, 77
4, 21070, Note_off_c, 2, 82, 0
4, 21070, Note_off_c, 2, 76, 0
4, 21072, Note_on_c, 2, 70, 77
4, 21118, Note_off_c, 2, 70, 0
4, 21120, Note_on_c, 2, 82, 77
4, 21120, Note_on_c, 2, 76, 77
4, 21166, Note_off_c, 2, 82, 0
4, 21166, Note_off_c, 2, 76, 0
4, 21168, Note_on_c, 2, 70, 77
4, 21214, Note_off_c, 2, 70, 0
4, 21216, Note_on_c, 2, 82, 77
4, 21216, Note_on_c, 2, 76, 77
4, 21262, Note_off_c, 2, 82, 0
4, 21262, Note_off_c, 2, 76, 0
4, 21264, Note_on_c, 2, 70, 77
4, 21310, Note_off_c, 2, 70, 0
4, 21312, Note_on_c, 2, 82, 77
4, 21312, Note_on_c, 2, 77, 77
4, 21358, Note_off_c, 2, 82, 0
4, 21358, Note_off_c, 2, 77, 0
4, 21360, Note_on_c, 2, 70, 77
4, 21406, Note_off_c, 2, 70, 0
4, 21408, Note_on_c, 2, 82, 77
4, 21408, Note_on_c, 2, 77, 77
4, 21454, Note_off_c, 2, 82, 0
4, 21454, Note_off_c, 2, 77, 0
4, 21456, Note_on_c, 2, 70, 77
4, 21502, Note_off_c, 2, 70, 0
4, 21504, Note_on_c, 2, 82, 77
4, 21504, Note_on_c, 2, 77, 77
4, 21550, Note_off_c, 2, 82, 0
4, 21550, Note_off_c, 2, 77, 0
4, 21552, Note_on_c, 2, 70, 77
4, 21598, Note_off_c, 2, 70, 0
4, 21600, Note_on_c, 2, 82, 77
4, 21600, Note_on_c, 2, 79, 77
4, 21646, Note_off_c, 2, 82, 0
4, 21646, Note_off_c, 2, 79, 0
4, 21648, Note_on_c, 2, 70, 77
4, 21694, Note_off_c, 2, 70, 0
4, 21696, Note_on_c, 2, 82, 77
4, 21696, Note_on_c, 2, 79, 77
4, 21742, Note_off_c, 2, 82, 0
4, 21742, Note_off_c, 2, 79, 0
4, 21744, Note_on_c, 2, 70, 77
4, 21790, Note_off_c, 2, 70, 0
4, 21792, Note_on_c, 2, 82, 77
4, 21792, Note_on_c, 2, 79, 77
4, 21838, Note_off_c, 2, 82, 0
4, 21838, Note_off_c, 2, 79, 0
4, 21840, Note_on_c, 2, 70, 77
4, 21886, Note_off_c, 2, 70, 0
4, 21888, Note_on_c, 2, 82, 77
4, 21888, Note_on_c, 2, 74, 77
4, 21934, Note_off_c, 2, 82, 0
4, 21934, Note_off_c, 2, 74, 0
4, 21936, Note_on_c, 2, 70, 77
4, 21982, Note_off_c, 2, 70, 0
4, 21984, Note_on_c, 2, 82, 77
4, 21984, Note_on_c, 2, 74, 77
4, 22030, Note_off_c, 2, 82, 0
4, 22030, Note_off_c, 2, 74, 0
4, 22032, Note_on_c, 2, 70, 77
4, 22078, Note_off_c, 2, 70, 0
4, 22080, Note_on_c, 2, 82, 77
4, 22080, Note_on_c, 2, 74, 77
4, 22126, Note_off_c, 2, 82, 0
4, 22126, Note_off_c, 2, 74, 0
4, 22128, Note_on_c, 2, 70, 77
4, 22174, Note_off_c, 2, 70, 0
4, 22176, Note_on_c, 2, 72, 77
4, 22176, Note_on_c, 2, 81, 77
4, 22222, Note_off_c, 2, 72, 0
4, 22222, Note_off_c, 2, 81, 0
4, 22224, Note_on_c, 2, 69, 77
4, 22270, Note_off_c, 2, 69, 0
4, 22272, Note_on_c, 2, 72, 77
4, 22272, Note_on_c, 2, 81, 77
4, 22318, Note_off_c, 2, 72, 0
4, 22318, Note_off_c, 2, 81, 0
4, 22320, Note_on_c, 2, 69, 77
4, 22366, Note_off_c, 2, 69, 0
4, 22368, Note_on_c, 2, 72, 77
4, 22368, Note_on_c, 2, 81, 77
4, 22414, Note_off_c, 2, 72, 0
4, 22414, Note_off_c, 2, 81, 0
4, 22416, Note_on_c, 2, 69, 77
4, 22462, Note_off_c, 2, 69, 0
4, 22464, Note_on_c, 2, 82, 77
4, 22464, Note_on_c, 2, 74, 77
4, 22464, Note_on_c, 2, 70, 77
4, 22558, Note_off_c, 2, 82, 0
4, 22558, Note_off_c, 2, 74, 0
4, 22558, Note_off_c, 2, 70, 0
4, 22560, Note_on_c, 2, 70, 77
4, 22654, Note_off_c, 2, 70, 0
4, 22656, Note_on_c, 2, 74, 77
4, 22750, Note_off_c, 2, 74, 0
4, 22752, Note_on_c, 2, 77, 77
4, 22846, Note_off_c, 2, 77, 0
4, 22848, Note_on_c, 2, 77, 77
4, 22942, Note_off_c, 2, 77, 0
4, 22944, Note_on_c, 2, 77, 77
4, 22944, Note_on_c, 2, 81, 77
4, 22944, Note_on_c, 2, 72, 77
4, 23038, Note_off_c, 2, 77, 0
4, 23038, Note_off_c, 2, 81, 0
4, 23038, Note_off_c, 2, 72, 0
4, 23040, Note_on_c, 2, 82, 77
4, 23040, Note_on_c, 2, 77, 77
4, 23040, Note_on_c, 2, 74, 77
4, 23134, Note_off_c, 2, 82, 0
4, 23134, Note_off_c, 2, 77, 0
4, 23134, Note_off_c, 2, 74, 0
4, 23136, Note_on_c, 2, 70, 77
4, 23230, Note_off_c, 2, 70, 0
4, 23232, Note_on_c, 2, 74, 77
4, 23326, Note_off_c, 2, 74, 0
4, 23328, Note_on_c, 2, 77, 77
4, 23422, Note_off_c, 2, 77, 0
4, 23424, Note_on_c, 2, 77, 77
4, 23518, Note_off_c, 2, 77, 0
4, 23520, Note_on_c, 2, 77, 77
4, 23520, Note_on_c, 2, 81, 77
4, 23520, Note_on_c, 2, 72, 77
4, 23614, Note_off_c, 2, 77, 0
4, 23614, Note_off_c, 2, 81, 0
4, 23614, Note_off_c, 2, 72, 0
4, 23616, Note_on_c, 2, 82, 77
4, 23616, Note_on_c, 2, 77, 77
4, 23616, Note_on_c, 2, 74, 77
4, 23806, Note_off_c, 2, 82, 0
4, 23806, Note_off_c, 2, 77, 0
4, 23806, Note_off_c, 2, 74, 0
4, 23904, Note_on_c, 2, 86, 77
4, 23904, Note_on_c, 2, 77, 77
4, 23904, Note_on_c, 2, 74, 77
4, 24094, Note_off_c, 2, 86, 0
4, 24094, Note_off_c, 2, 77, 0
4, 24094, Note_off_c, 2, 74, 0
4, 24192, Note_on_c, 2, 82, 77
4, 24192, Note_on_c, 2, 77, 77
4, 24192, Note_on_c, 2, 74, 77
4, 24192, Note_on_c, 2, 70, 77
4, 24382, Note_off_c, 2, 82, 0
4, 24382, Note_off_c, 2, 77, 0
4, 24382, Note_off_c, 2, 74, 0
4, 24382, Note_off_c, 2, 70, 0
4, 29088, Note_on_c, 2, 65, 60
4, 29182, Note_off_c, 2, 65, 0
4, 29184, Note_on_c, 2, 67, 60
4, 29184, Note_on_c, 2, 64, 60
4, 29278, Note_off_c, 2, 67, 0
4, 29278, Note_off_c, 2, 64, 0
4, 29280, Note_on_c, 2, 69, 60
4, 29280, Note_on_c, 2, 63, 60
4, 29374, Note_off_c, 2, 69, 0
4, 29374, Note_off_c, 2, 63, 0
4, 29376, Note_on_c, 2, 70, 60
4, 29376, Note_on_c, 2, 65, 60
4, 29376, Note_on_c, 2, 62, 60
4, 29950, Note_off_c, 2, 70, 0
4, 29950, Note_off_c, 2, 65, 0
4, 29950, Note_off_c, 2, 62, 0
4, 29952, Note_on_c, 2, 65, 60
4, 29952, Note_on_c, 2, 62, 60
4, 29952, Note_on_c, 2, 58, 60
4, 30526, Note_off_c, 2, 65, 0
4, 30526, Note_off_c, 2, 62, 0
4, 30528, Note_on_c, 2, 67, 60
4, 30528, Note_on_c, 2, 63, 60
4, 31102, Note_off_c, 2, 67, 0
4, 31102, Note_off_c, 2, 63, 0
4, 31104, Note_on_c, 2, 65, 60
4, 31104, Note_on_c, 2, 62, 60
4, 31678, Note_off_c, 2, 58, 0
4, 31678, Note_off_c, 2, 65, 0
4, 31678, Note_off_c, 2, 62, 0
4, 31968, Note_on_c, 2, 75, 60
4, 31968, Note_on_c, 2, 63, 60
4, 32062, Note_off_c, 2, 75, 0
4, 32062, Note_off_c, 2, 63, 0
4, 32064, Note_on_c, 2, 72, 60
4, 32158, Note_off_c, 2, 72, 0
4, 32160, Note_on_c, 2, 69, 60
4, 32254, Note_off_c, 2, 69, 0
4, 32544, Note_on_c, 2, 77, 60
4, 32544, Note_on_c, 2, 65, 60
4, 32638, Note_off_c, 2, 77, 0
4, 32638, Note_off_c, 2, 65, 0
4, 32640, Note_on_c, 2, 74, 60
4, 32734, Note_off_c, 2, 74, 0
4, 32736, Note_on_c, 2, 70, 60
4, 32830, Note_off_c, 2, 70, 0
4, 34560, Note_on_c, 2, 70, 60
4, 34560, Note_on_c, 2, 67, 60
4, 34560, Note_on_c, 2, 62, 60
4, 34846, Note_off_c, 2, 70, 0
4, 34846, Note_off_c, 2, 67, 0
4, 34846, Note_off_c, 2, 62, 0
4, 34848, Note_on_c, 2, 75, 60
4, 34848, Note_on_c, 2, 72, 60
4, 34848, Note_on_c, 2, 65, 60
4, 35134, Note_off_c, 2, 75, 0
4, 35134, Note_off_c, 2, 72, 0
4, 35134, Note_off_c, 2, 65, 0
4, 35136, Note_on_c, 2, 74, 60
4, 35136, Note_on_c, 2, 70, 60
4, 35230, Note_off_c, 2, 74, 0
4, 35230, Note_off_c, 2, 70, 0
4, 35232, Note_on_c, 2, 79, 60
4, 35232, Note_on_c, 2, 75, 60
4, 35326, Note_off_c, 2, 79, 0
4, 35326, Note_off_c, 2, 75, 0
4, 35328, Note_on_c, 2, 74, 60
4, 35328, Note_on_c, 2, 77, 60
4, 35422, Note_off_c, 2, 74, 0
4, 35422, Note_off_c, 2, 77, 0
4, 35424, Note_on_c, 2, 75, 60
4, 35424, Note_on_c, 2, 72, 60
4, 35424, Note_on_c, 2, 67, 60
4, 35518, Note_off_c, 2, 75, 0
4, 35518, Note_off_c, 2, 72, 0
4, 35518, Note_off_c, 2, 67, 0
4, 35520, Note_on_c, 2, 74, 60
4, 35520, Note_on_c, 2, 70, 60
4, 35520, Note_on_c, 2, 65, 60
4, 35614, Note_off_c, 2, 74, 0
4, 35614, Note_off_c, 2, 70, 0
4, 35614, Note_off_c, 2, 65, 0
4, 35616, Note_on_c, 2, 72, 60
4, 35616, Note_on_c, 2, 69, 60
4, 35616, Note_on_c, 2, 63, 60
4, 35710, Note_off_c, 2, 72, 0
4, 35710, Note_off_c, 2, 69, 0
4, 35710, Note_off_c, 2, 63, 0
4, 35712, Note_on_c, 2, 70, 55
4, 35712, Note_on_c, 2, 62, 55
4, 35806, Note_off_c, 2, 70, 0
4, 35806, Note_off_c, 2, 62, 0
4, 35808, Note_on_c, 2, 58, 58
4, 35902, Note_off_c, 2, 58, 0
4, 35904, Note_on_c, 2, 60, 62
4, 35998, Note_off_c, 2, 60, 0
4, 36000, Note_on_c, 2, 62, 67
4, 36094, Note_off_c, 2, 62, 0
4, 36096, Note_on_c, 2, 62, 70
4, 36190, Note_off_c, 2, 62, 0
4, 36192, Note_on_c, 2, 63, 74
4, 36286, Note_off_c, 2, 63, 0
4, 36288, Note_on_c, 2, 75, 55
4, 36288, Note_on_c, 2, 72, 55
4, 36288, Note_on_c, 2, 69, 55
4, 36288, Note_on_c, 2, 65, 55
4, 36862, Note_off_c, 2, 75, 0
4, 36862, Note_off_c, 2, 72, 0
4, 36862, Note_off_c, 2, 69, 0
4, 36862, Note_off_c, 2, 65, 0
4, 36864, Note_on_c, 2, 74, 55
4, 36864, Note_on_c, 2, 70, 55
4, 36864, Note_on_c, 2, 62, 55
4, 36864, Note_on_c, 2, 58, 55
4, 36958, Note_off_c, 2, 74, 0
4, 36958, Note_off_c, 2, 70, 0
4, 36958, Note_off_c, 2, 62, 0
4, 36958, Note_off_c, 2, 58, 0
4, 36960, Note_on_c, 2, 58, 58
4, 37054, Note_off_c, 2, 58, 0
4, 37056, Note_on_c, 2, 60, 62
4, 37150, Note_off_c, 2, 60, 0
4, 37152, Note_on_c, 2, 62, 67
4, 37246, Note_off_c, 2, 62, 0
4, 37248, Note_on_c, 2, 62, 70
4, 37342, Note_off_c, 2, 62, 0
4, 37344, Note_on_c, 2, 63, 74
4, 37438, Note_off_c, 2, 63, 0
4, 37440, Note_on_c, 2, 81, 55
4, 37440, Note_on_c, 2, 77, 55
4, 37440, Note_on_c, 2, 75, 55
4, 37440, Note_on_c, 2, 72, 55
4, 37440, Note_on_c, 2, 65, 55
4, 38014, Note_off_c, 2, 81, 0
4, 38014, Note_off_c, 2, 77, 0
4, 38014, Note_off_c, 2, 75, 0
4, 38014, Note_off_c, 2, 72, 0
4, 38014, Note_off_c, 2, 65, 0
4, 38016, Note_on_c, 2, 82, 55
4, 38016, Note_on_c, 2, 77, 55
4, 38016, Note_on_c, 2, 74, 55
4, 38016, Note_on_c, 2, 70, 55
4, 38110, Note_off_c, 2, 82, 0
4, 38110, Note_off_c, 2, 77, 0
4, 38110, Note_off_c, 2, 74, 0
4, 38110, Note_off_c, 2, 70, 0
4, 38112, Note_on_c, 2, 62, 60
4, 38112, Note_on_c, 2, 58, 60
4, 38206, Note_off_c, 2, 62, 0
4, 38206, Note_off_c, 2, 58, 0
4, 38208, Note_on_c, 2, 65, 60
4, 38208, Note_on_c, 2, 62, 60
4, 38302, Note_off_c, 2, 65, 0
4, 38302, Note_off_c, 2, 62, 0
4, 38304, Note_on_c, 2, 63, 60
4, 38304, Note_on_c, 2, 60, 60
4, 38398, Note_off_c, 2, 63, 0
4, 38398, Note_off_c, 2, 60, 0
4, 38400, Note_on_c, 2, 62, 60
4, 38400, Note_on_c, 2, 58, 60
4, 38494, Note_off_c, 2, 62, 0
4, 38494, Note_off_c, 2, 58, 0
4, 38496, Note_on_c, 2, 60, 60
4, 38496, Note_on_c, 2, 57, 60
4, 38590, Note_off_c, 2, 60, 0
4, 38590, Note_off_c, 2, 57, 0
4, 38592, Note_on_c, 2, 62, 60
4, 38592, Note_on_c, 2, 58, 60
4, 38686, Note_off_c, 2, 62, 0
4, 38686, Note_off_c, 2, 58, 0
4, 38688, Note_on_c, 2, 63, 60
4, 38688, Note_on_c, 2, 60, 60
4, 38782, Note_off_c, 2, 63, 0
4, 38782, Note_off_c, 2, 60, 0
4, 38784, Note_on_c, 2, 65, 60
4, 38784, Note_on_c, 2, 62, 60
4, 38878, Note_off_c, 2, 65, 0
4, 38878, Note_off_c, 2, 62, 0
4, 38880, Note_on_c, 2, 63, 60
4, 38880, Note_on_c, 2, 60, 60
4, 38974, Note_off_c, 2, 63, 0
4, 38974, Note_off_c, 2, 60, 0
4, 38976, Note_on_c, 2, 62, 60
4, 38976, Note_on_c, 2, 58, 60
4, 39070, Note_off_c, 2, 62, 0
4, 39070, Note_off_c, 2, 58, 0
4, 39072, Note_on_c, 2, 60, 60
4, 39072, Note_on_c, 2, 57, 60
4, 39166, Note_off_c, 2, 60, 0
4, 39166, Note_off_c, 2, 57, 0
4, 39168, Note_on_c, 2, 58, 60
4, 39168, Note_on_c, 2, 62, 60
4, 39358, Note_off_c, 2, 58, 0
4, 39358, Note_off_c, 2, 62, 0
4, 41472, Note_on_c, 2, 77, 66
4, 41472, Note_on_c, 2, 72, 66
4, 41472, Note_on_c, 2, 69, 66
4, 41566, Note_off_c, 2, 77, 0
4, 41566, Note_off_c, 2, 72, 0
4, 41566, Note_off_c, 2, 69, 0
4, 41568, Note_on_c, 2, 77, 66
4, 41662, Note_off_c, 2, 77, 0
4, 41664, Note_on_c, 2, 77, 66
4, 41664, Note_on_c, 2, 81, 66
4, 41664, Note_on_c, 2, 75, 66
4, 41758, Note_off_c, 2, 77, 0
4, 41758, Note_off_c, 2, 81, 0
4, 41758, Note_off_c, 2, 75, 0
4, 41760, Note_on_c, 2, 77, 66
4, 41760, Note_on_c, 2, 74, 66
4, 41760, Note_on_c, 2, 82, 66
4, 41854, Note_off_c, 2, 77, 0
4, 41854, Note_off_c, 2, 74, 0
4, 41854, Note_off_c, 2, 82, 0
4, 41856, Note_on_c, 2, 75, 66
4, 41856, Note_on_c, 2, 72, 66
4, 41950, Note_off_c, 2, 75, 0
4, 41950, Note_off_c, 2, 72, 0
4, 41952, Note_on_c, 2, 74, 66
4, 41952, Note_on_c, 2, 70, 66
4, 42046, Note_off_c, 2, 74, 0
4, 42046, Note_off_c, 2, 70, 0
4, 42048, Note_on_c, 2, 72, 66
4, 42048, Note_on_c, 2, 69, 66
4, 42142, Note_off_c, 2, 72, 0
4, 42142, Note_off_c, 2, 69, 0
4, 42144, Note_on_c, 2, 77, 66
4, 42238, Note_off_c, 2, 77, 0
4, 42240, Note_on_c, 2, 77, 66
4, 42240, Note_on_c, 2, 81, 66
4, 42240, Note_on_c, 2, 75, 66
4, 42334, Note_off_c, 2, 77, 0
4, 42334, Note_off_c, 2, 81, 0
4, 42334, Note_off_c, 2, 75, 0
4, 42336, Note_on_c, 2, 77, 66
4, 42336, Note_on_c, 2, 74, 66
4, 42336, Note_on_c, 2, 82, 66
4, 42430, Note_off_c, 2, 77, 0
4, 42430, Note_off_c, 2, 74, 0
4, 42430, Note_off_c, 2, 82, 0
4, 42432, Note_on_c, 2, 75, 66
4, 42432, Note_on_c, 2, 84, 66
4, 42432, Note_on_c, 2, 87, 66
4, 42526, Note_off_c, 2, 75, 0
4, 42526, Note_off_c, 2, 84, 0
4, 42526, Note_off_c, 2, 87, 0
4, 42528, Note_on_c, 2, 86, 66
4, 42528, Note_on_c, 2, 82, 66
4, 42528, Note_on_c, 2, 74, 66
4, 42622, Note_off_c, 2, 86, 0
4, 42622, Note_off_c, 2, 82, 0
4, 42622, Note_off_c, 2, 74, 0
4, 42624, Note_on_c, 2, 81, 66
4, 42624, Note_on_c, 2, 84, 66
4, 42624, Note_on_c, 2, 72, 66
4, 42718, Note_off_c, 2, 81, 0
4, 42718, Note_off_c, 2, 84, 0
4, 42718, Note_off_c, 2, 72, 0
4, 42816, Note_on_c, 2, 65, 77
4, 42862, Note_off_c, 2, 65, 0
4, 42864, Note_on_c, 2, 67, 77
4, 42910, Note_off_c, 2, 67, 0
4, 42912, Note_on_c, 2, 69, 77
4, 43006, Note_off_c, 2, 69, 0
4, 43104, Note_on_c, 2, 67, 77
4, 43150, Note_off_c, 2, 67, 0
4, 43152, Note_on_c, 2, 69, 77
4, 43198, Note_off_c, 2, 69, 0
4, 43200, Note_on_c, 2, 70, 77
4, 43294, Note_off_c, 2, 70, 0
4, 43392, Note_on_c, 2, 67, 77
4, 43438, Note_off_c, 2, 67, 0
4, 43440, Note_on_c, 2, 69, 77
4, 43486, Note_off_c, 2, 69, 0
4, 43488, Note_on_c, 2, 71, 77
4, 43582, Note_off_c, 2, 71, 0
4, 43680, Note_on_c, 2, 69, 77
4, 43726, Note_off_c, 2, 69, 0
4, 43728, Note_on_c, 2, 71, 77
4, 43774, Note_off_c, 2, 71, 0
4, 43776, Note_on_c, 2, 72, 77
4, 43966, Note_off_c, 2, 72, 0
4, 44064, Note_on_c, 2, 59, 66
4, 44158, Note_off_c, 2, 59, 0
4, 44160, Note_on_c, 2, 60, 66
4, 44254, Note_off_c, 2, 60, 0
4, 44256, Note_on_c, 2, 61, 66
4, 44350, Note_off_c, 2, 61, 0
4, 44352, Note_on_c, 2, 60, 66
4, 44446, Note_off_c, 2, 60, 0
4, 44448, Note_on_c, 2, 59, 66
4, 44542, Note_off_c, 2, 59, 0
4, 44544, Note_on_c, 2, 60, 66
4, 44638, Note_off_c, 2, 60, 0
4, 44640, Note_on_c, 2, 60, 66
4, 44734, Note_off_c, 2, 60, 0
4, 44736, Note_on_c, 2, 62, 66
4, 44830, Note_off_c, 2, 62, 0
4, 44832, Note_on_c, 2, 64, 66
4, 44926, Note_off_c, 2, 64, 0
4, 44928, Note_on_c, 2, 65, 66
4, 45022, Note_off_c, 2, 65, 0
4, 45024, Note_on_c, 2, 67, 66
4, 45118, Note_off_c, 2, 67, 0
4, 45120, Note_on_c, 2, 69, 66
4, 45214, Note_off_c, 2, 69, 0
4, 45216, Note_on_c, 2, 59, 66
4, 45310, Note_off_c, 2, 59, 0
4, 45312, Note_on_c, 2, 60, 66
4, 45406, Note_off_c, 2, 60, 0
4, 45408, Note_on_c, 2, 61, 66
4, 45502, Note_off_c, 2, 61, 0
4, 45504, Note_on_c, 2, 60, 66
4, 45598, Note_off_c, 2, 60, 0
4, 45600, Note_on_c, 2, 59, 66
4, 45694, Note_off_c, 2, 59, 0
4, 45696, Note_on_c, 2, 60, 66
4, 45790, Note_off_c, 2, 60, 0
4, 45792, Note_on_c, 2, 60, 66
4, 45792, Note_on_c, 2, 64, 66
4, 45886, Note_off_c, 2, 60, 0
4, 45886, Note_off_c, 2, 64, 0
4, 45888, Note_on_c, 2, 65, 66
4, 45888, Note_on_c, 2, 62, 66
4, 45982, Note_off_c, 2, 65, 0
4, 45982, Note_off_c, 2, 62, 0
4, 45984, Note_on_c, 2, 67, 66
4, 45984, Note_on_c, 2, 64, 66
4, 46078, Note_off_c, 2, 67, 0
4, 46078, Note_off_c, 2, 64, 0
4, 46080, Note_on_c, 2, 65, 66
4, 46080, Note_on_c, 2, 69, 66
4, 46174, Note_off_c, 2, 65, 0
4, 46174, Note_off_c, 2, 69, 0
4, 46176, Note_on_c, 2, 67, 66
4, 46176, Note_on_c, 2, 70, 66
4, 46270, Note_off_c, 2, 67, 0
4, 46270, Note_off_c, 2, 70, 0
4, 46272, Note_on_c, 2, 69, 66
4, 46272, Note_on_c, 2, 72, 66
4, 46366, Note_off_c, 2, 69, 0
4, 46366, Note_off_c, 2, 72, 0
4, 46368, Note_on_c, 2, 59, 66
4, 46462, Note_off_c, 2, 59, 0
4, 46464, Note_on_c, 2, 60, 66
4, 46558, Note_off_c, 2, 60, 0
4, 46560, Note_on_c, 2, 61, 66
4, 46654, Note_off_c, 2, 61, 0
4, 46656, Note_on_c, 2, 60, 66
4, 46750, Note_off_c, 2, 60, 0
4, 46752, Note_on_c, 2, 59, 66
4, 46846, Note_off_c, 2, 59, 0
4, 46848, Note_on_c, 2, 60, 66
4, 46942, Note_off_c, 2, 60, 0
4, 46944, Note_on_c, 2, 70, 66
4, 46944, Note_on_c, 2, 67, 66
4, 46944, Note_on_c, 2, 60, 66
4, 47230, Note_off_c, 2, 70, 0
4, 47230, Note_off_c, 2, 67, 0
4, 47230, Note_off_c, 2, 60, 0
4, 47232, Note_on_c, 2, 69, 66
4, 47232, Note_on_c, 2, 65, 66
4, 47232, Note_on_c, 2, 60, 66
4, 47422, Note_off_c, 2, 69, 0
4, 47422, Note_off_c, 2, 65, 0
4, 47422, Note_off_c, 2, 60, 0
4, 47520, Note_on_c, 2, 64, 66
4, 47614, Note_off_c, 2, 64, 0
4, 47616, Note_on_c, 2, 65, 66
4, 47710, Note_off_c, 2, 65, 0
4, 47712, Note_on_c, 2, 66, 66
4, 47806, Note_off_c, 2, 66, 0
4, 47808, Note_on_c, 2, 65, 66
4, 47902, Note_off_c, 2, 65, 0
4, 47904, Note_on_c, 2, 64, 66
4, 47998, Note_off_c, 2, 64, 0
4, 48000, Note_on_c, 2, 65, 66
4, 48094, Note_off_c, 2, 65, 0
4, 48096, Note_on_c, 2, 66, 66
4, 48190, Note_off_c, 2, 66, 0
4, 48192, Note_on_c, 2, 67, 66
4, 48286, Note_off_c, 2, 67, 0
4, 48288, Note_on_c, 2, 69, 66
4, 48382, Note_off_c, 2, 69, 0
4, 48384, Note_on_c, 2, 67, 66
4, 48478, Note_off_c, 2, 67, 0
4, 48480, Note_on_c, 2, 66, 66
4, 48574, Note_off_c, 2, 66, 0
4, 48576, Note_on_c, 2, 67, 66
4, 48670, Note_off_c, 2, 67, 0
4, 48672, Note_on_c, 2, 68, 66
4, 48766, Note_off_c, 2, 68, 0
4, 48768, Note_on_c, 2, 69, 66
4, 48862, Note_off_c, 2, 69, 0
4, 48864, Note_on_c, 2, 70, 66
4, 48958, Note_off_c, 2, 70, 0
4, 48960, Note_on_c, 2, 69, 66
4, 49054, Note_off_c, 2, 69, 0
4, 49056, Note_on_c, 2, 68, 66
4, 49150, Note_off_c, 2, 68, 0
4, 49152, Note_on_c, 2, 69, 66
4, 49246, Note_off_c, 2, 69, 0
4, 49248, Note_on_c, 2, 71, 66
4, 49342, Note_off_c, 2, 71, 0
4, 49344, Note_on_c, 2, 72, 66
4, 49438, Note_off_c, 2, 72, 0
4, 49440, Note_on_c, 2, 74, 66
4, 49534, Note_off_c, 2, 74, 0
4, 49536, Note_on_c, 2, 72, 66
4, 49630, Note_off_c, 2, 72, 0
4, 49632, Note_on_c, 2, 71, 66
4, 49726, Note_off_c, 2, 71, 0
4, 49728, Note_on_c, 2, 72, 66
4, 49822, Note_off_c, 2, 72, 0
4, 49824, Note_on_c, 2, 74, 66
4, 49918, Note_off_c, 2, 74, 0
4, 49920, Note_on_c, 2, 73, 66
4, 50014, Note_off_c, 2, 73, 0
4, 50016, Note_on_c, 2, 74, 66
4, 50110, Note_off_c, 2, 74, 0
4, 50112, Note_on_c, 2, 79, 66
4, 50112, Note_on_c, 2, 67, 66
4, 50206, Note_off_c, 2, 79, 0
4, 50206, Note_off_c, 2, 67, 0
4, 50400, Note_on_c, 2, 72, 66
4, 50446, Note_off_c, 2, 72, 0
4, 50496, Note_on_c, 2, 71, 66
4, 50542, Note_off_c, 2, 71, 0
4, 50592, Note_on_c, 2, 72, 66
4, 50638, Note_off_c, 2, 72, 0
4, 50688, Note_on_c, 2, 77, 66
4, 50688, Note_on_c, 2, 65, 66
4, 50782, Note_off_c, 2, 77, 0
4, 50782, Note_off_c, 2, 65, 0
4, 50976, Note_on_c, 2, 70, 66
4, 50976, Note_on_c, 2, 58, 66
4, 51022, Note_off_c, 2, 70, 0
4, 51022, Note_off_c, 2, 58, 0
4, 51072, Note_on_c, 2, 69, 66
4, 51072, Note_on_c, 2, 57, 66
4, 51118, Note_off_c, 2, 69, 0
4, 51118, Note_off_c, 2, 57, 0
4, 51168, Note_on_c, 2, 70, 66
4, 51168, Note_on_c, 2, 58, 66
4, 51214, Note_off_c, 2, 70, 0
4, 51214, Note_off_c, 2, 58, 0
4, 51264, Note_on_c, 2, 71, 66
4, 51264, Note_on_c, 2, 59, 66
4, 51310, Note_off_c, 2, 71, 0
4, 51310, Note_off_c, 2, 59, 0
4, 51360, Note_on_c, 2, 72, 66
4, 51360, Note_on_c, 2, 60, 66
4, 51406, Note_off_c, 2, 72, 0
4, 51406, Note_off_c, 2, 60, 0
4, 51456, Note_on_c, 2, 73, 66
4, 51456, Note_on_c, 2, 61, 66
4, 51502, Note_off_c, 2, 73, 0
4, 51502, Note_off_c, 2, 61, 0
4, 51552, Note_on_c, 2, 74, 66
4, 51552, Note_on_c, 2, 62, 66
4, 51598, Note_off_c, 2, 74, 0
4, 51598, Note_off_c, 2, 62, 0
4, 51648, Note_on_c, 2, 75, 66
4, 51648, Note_on_c, 2, 63, 66
4, 51694, Note_off_c, 2, 75, 0
4, 51694, Note_off_c, 2, 63, 0
4, 51744, Note_on_c, 2, 64, 66
4, 51744, Note_on_c, 2, 76, 66
4, 51790, Note_off_c, 2, 64, 0
4, 51810, Note_off_c, 2, 76, 0
4, 51840, Note_on_c, 2, 77, 66
4, 51840, Note_on_c, 2, 65, 66
4, 51934, Note_off_c, 2, 77, 0
4, 51934, Note_off_c, 2, 65, 0
4, 58174, Control_c, 2, 64, 127
4, 58176, Note_on_c, 2, 75, 66
4, 58366, Control_c, 2, 64, 0
4, 58558, Note_off_c, 2, 75, 0
4, 58560, Note_on_c, 2, 77, 66
4, 58654, Note_off_c, 2, 77, 0
4, 58656, Note_on_c, 2, 75, 66
4, 58750, Note_off_c, 2, 75, 0
4, 58752, Note_on_c, 2, 74, 66
4, 58846, Note_off_c, 2, 74, 0
4, 58848, Note_on_c, 2, 82, 66
4, 58894, Note_off_c, 2, 82, 0
4, 58944, Note_on_c, 2, 82, 66
4, 59038, Note_off_c, 2, 82, 0
4, 59040, Note_on_c, 2, 82, 66
4, 59134, Note_off_c, 2, 82, 0
4, 59136, Note_on_c, 2, 82, 66
4, 59230, Note_off_c, 2, 82, 0
4, 59232, Note_on_c, 2, 82, 66
4, 59326, Note_off_c, 2, 82, 0
4, 59326, Control_c, 2, 64, 127
4, 59328, Note_on_c, 2, 82, 66
4, 59518, Control_c, 2, 64, 0
4, 59710, Note_off_c, 2, 82, 0
4, 59712, Note_on_c, 2, 81, 66
4, 59758, Note_off_c, 2, 81, 0
4, 59760, Note_on_c, 2, 79, 66
4, 59806, Note_off_c, 2, 79, 0
4, 59808, Note_on_c, 2, 77, 66
4, 59854, Note_off_c, 2, 77, 0
4, 59856, Note_on_c, 2, 76, 66
4, 59902, Note_off_c, 2, 76, 0
4, 59902, Control_c, 2, 64, 127
4, 59904, Note_on_c, 2, 84, 66
4, 60142, Note_off_c, 2, 84, 0
4, 60142, Control_c, 2, 64, 0
4, 60144, Note_on_c, 2, 81, 66
4, 60190, Note_off_c, 2, 81, 0
4, 60192, Note_on_c, 2, 77, 66
4, 60382, Note_off_c, 2, 77, 0
4, 60478, Control_c, 2, 64, 127
4, 60480, Note_on_c, 2, 87, 66
4, 60958, Note_off_c, 2, 87, 0
4, 60958, Control_c, 2, 64, 0
4, 60960, Note_on_c, 2, 89, 60
4, 61006, Note_off_c, 2, 89, 0
4, 61008, Note_on_c, 2, 87, 60
4, 61054, Note_off_c, 2, 87, 0
4, 61056, Note_on_c, 2, 86, 60
4, 61150, Note_off_c, 2, 86, 0
4, 61152, Note_on_c, 2, 86, 60
4, 61152, Note_on_c, 2, 82, 60
4, 61152, Note_on_c, 2, 77, 60
4, 61246, Note_off_c, 2, 86, 0
4, 61246, Note_off_c, 2, 82, 0
4, 61246, Note_off_c, 2, 77, 0
4, 61248, Note_on_c, 2, 86, 60
4, 61248, Note_on_c, 2, 82, 60
4, 61248, Note_on_c, 2, 77, 60
4, 61342, Note_off_c, 2, 86, 0
4, 61342, Note_off_c, 2, 82, 0
4, 61342, Note_off_c, 2, 77, 0
4, 61440, Note_on_c, 2, 82, 60
4, 61440, Note_on_c, 2, 77, 60
4, 61440, Note_on_c, 2, 74, 60
4, 61534, Note_off_c, 2, 82, 0
4, 61534, Note_off_c, 2, 77, 0
4, 61534, Note_off_c, 2, 74, 0
4, 61536, Note_on_c, 2, 82, 60
4, 61536, Note_on_c, 2, 77, 60
4, 61536, Note_on_c, 2, 74, 60
4, 61630, Note_off_c, 2, 82, 0
4, 61630, Note_off_c, 2, 77, 0
4, 61630, Note_off_c, 2, 74, 0
4, 61728, Note_on_c, 2, 79, 60
4, 61728, Note_on_c, 2, 76, 60
4, 61728, Note_on_c, 2, 72, 60
4, 61822, Note_off_c, 2, 79, 0
4, 61822, Note_off_c, 2, 76, 0
4, 61822, Note_off_c, 2, 72, 0
4, 61824, Note_on_c, 2, 79, 60
4, 61824, Note_on_c, 2, 76, 60
4, 61824, Note_on_c, 2, 72, 60
4, 61918, Note_off_c, 2, 79, 0
4, 61918, Note_off_c, 2, 76, 0
4, 61918, Note_off_c, 2, 72, 0
4, 62016, Note_on_c, 2, 76, 60
4, 62016, Note_on_c, 2, 72, 60
4, 62016, Note_on_c, 2, 70, 60
4, 62110, Note_off_c, 2, 76, 0
4, 62110, Note_off_c, 2, 72, 0
4, 62110, Note_off_c, 2, 70, 0
4, 62112, Note_on_c, 2, 76, 60
4, 62112, Note_on_c, 2, 72, 60
4, 62112, Note_on_c, 2, 70, 60
4, 62206, Note_off_c, 2, 76, 0
4, 62206, Note_off_c, 2, 72, 0
4, 62206, Note_off_c, 2, 70, 0
4, 62208, Note_on_c, 2, 77, 60
4, 62208, Note_on_c, 2, 72, 60
4, 62208, Note_on_c, 2, 69, 60
4, 62398, Note_off_c, 2, 77, 0
4, 62398, Note_off_c, 2, 72, 0
4, 62398, Note_off_c, 2, 69, 0
4, 63360, Note_on_c, 2, 57, 73
4, 63456, Note_on_c, 2, 63, 73
4, 63456, Note_on_c, 2, 60, 73
4, 63550, Note_off_c, 2, 63, 0
4, 63550, Note_off_c, 2, 60, 0
4, 63552, Note_on_c, 2, 63, 74
4, 63552, Note_on_c, 2, 60, 74
4, 63646, Note_off_c, 2, 63, 0
4, 63646, Note_off_c, 2, 60, 0
4, 63648, Note_on_c, 2, 63, 74
4, 63648, Note_on_c, 2, 60, 74
4, 63742, Note_off_c, 2, 63, 0
4, 63742, Note_off_c, 2, 60, 0
4, 63744, Note_on_c, 2, 63, 75
4, 63744, Note_on_c, 2, 60, 75
4, 63838, Note_off_c, 2, 63, 0
4, 63838, Note_off_c, 2, 60, 0
4, 63840, Note_on_c, 2, 63, 75
4, 63840, Note_on_c, 2, 60, 75
4, 63934, Note_off_c, 2, 57, 0
4, 63934, Note_off_c, 2, 63, 0
4, 63934, Note_off_c, 2, 60, 0
4, 63936, Note_on_c, 2, 57, 77
4, 63936, Note_on_c, 2, 63, 77
4, 63936, Note_on_c, 2, 60, 77
4, 64030, Note_off_c, 2, 63, 0
4, 64030, Note_off_c, 2, 60, 0
4, 64032, Note_on_c, 2, 60, 77
4, 64032, Note_on_c, 2, 57, 77
4, 64126, Note_off_c, 2, 57, 0
4, 64126, Note_off_c, 2, 60, 0
4, 64128, Note_on_c, 2, 60, 78
4, 64128, Note_on_c, 2, 63, 78
4, 64222, Note_off_c, 2, 60, 0
4, 64222, Note_off_c, 2, 63, 0
4, 64224, Note_on_c, 2, 63, 78
4, 64224, Note_on_c, 2, 60, 78
4, 64318, Note_off_c, 2, 63, 0
4, 64318, Note_off_c, 2, 60, 0
4, 64320, Note_on_c, 2, 63, 79
4, 64320, Note_on_c, 2, 60, 79
4, 64414, Note_off_c, 2, 63, 0
4, 64414, Note_off_c, 2, 60, 0
4, 64416, Note_on_c, 2, 63, 79
4, 64416, Note_on_c, 2, 60, 79
4, 64510, Note_off_c, 2, 57, 0
4, 64510, Note_off_c, 2, 63, 0
4, 64510, Note_off_c, 2, 60, 0
4, 64510, Control_c, 2, 64, 127
4, 64512, Note_on_c, 2, 63, 80
4, 64512, Note_on_c, 2, 60, 80
4, 64512, Note_on_c, 2, 57, 80
4, 64702, Note_off_c, 2, 63, 0
4, 64702, Note_off_c, 2, 60, 0
4, 64702, Note_off_c, 2, 57, 0
4, 64702, Control_c, 2, 64, 0
4, 79008, Note_on_c, 2, 65, 60
4, 79008, Note_on_c, 2, 62, 60
4, 79008, Note_on_c, 2, 58, 60
4, 79102, Note_off_c, 2, 65, 0
4, 79102, Note_off_c, 2, 62, 0
4, 79102, Note_off_c, 2, 58, 0
4, 79104, Note_on_c, 2, 65, 60
4, 79104, Note_on_c, 2, 62, 60
4, 79104, Note_on_c, 2, 58, 60
4, 79198, Note_off_c, 2, 65, 0
4, 79198, Note_off_c, 2, 62, 0
4, 79198, Note_off_c, 2, 58, 0
4, 79200, Note_on_c, 2, 65, 60
4, 79200, Note_on_c, 2, 62, 60
4, 79200, Note_on_c, 2, 58, 60
4, 79248, Note_on_c, 2, 65, 60
4, 79248, Note_on_c, 2, 62, 60
4, 79248, Note_on_c, 2, 62, 60
4, 79248, Note_on_c, 2, 58, 60
4, 79294, Note_off_c, 2, 65, 0
4, 79294, Note_off_c, 2, 62, 0
4, 79294, Note_off_c, 2, 58, 0
4, 79296, Note_on_c, 2, 65, 60
4, 79296, Note_on_c, 2, 62, 60
4, 79296, Note_on_c, 2, 58, 60
4, 79342, Note_off_c, 2, 65, 0
4, 79342, Note_off_c, 2, 62, 0
4, 79342, Note_off_c, 2, 62, 0
4, 79342, Note_off_c, 2, 58, 0
4, 79390, Note_off_c, 2, 65, 0
4, 79390, Note_off_c, 2, 62, 0
4, 79390, Note_off_c, 2, 58, 0
4, 79392, Note_on_c, 2, 65, 60
4, 79392, Note_on_c, 2, 62, 60
4, 79392, Note_on_c, 2, 58, 60
4, 79486, Note_off_c, 2, 65, 0
4, 79486, Note_off_c, 2, 62, 0
4, 79486, Note_off_c, 2, 58, 0
4, 79584, Note_on_c, 2, 65, 60
4, 79584, Note_on_c, 2, 62, 60
4, 79584, Note_on_c, 2, 58, 60
4, 79678, Note_off_c, 2, 65, 0
4, 79678, Note_off_c, 2, 62, 0
4, 79678, Note_off_c, 2, 58, 0
4, 79680, Note_on_c, 2, 65, 60
4, 79680, Note_on_c, 2, 62, 60
4, 79680, Note_on_c, 2, 58, 60
4, 79774, Note_off_c, 2, 65, 0
4, 79774, Note_off_c, 2, 62, 0
4, 79774, Note_off_c, 2, 58, 0
4, 79776, Note_on_c, 2, 65, 60
4, 79776, Note_on_c, 2, 62, 60
4, 79776, Note_on_c, 2, 58, 60
4, 79870, Note_off_c, 2, 65, 0
4, 79870, Note_off_c, 2, 62, 0
4, 79870, Note_off_c, 2, 58, 0
4, 79872, Note_on_c, 2, 65, 60
4, 79872, Note_on_c, 2, 62, 60
4, 79872, Note_on_c, 2, 58, 60
4, 79966, Note_off_c, 2, 65, 0
4, 79966, Note_off_c, 2, 62, 0
4, 79966, Note_off_c, 2, 58, 0
4, 79968, Note_on_c, 2, 66, 60
4, 79968, Note_on_c, 2, 62, 60
4, 79968, Note_on_c, 2, 58, 60
4, 80062, Note_off_c, 2, 66, 0
4, 80062, Note_off_c, 2, 62, 0
4, 80062, Note_off_c, 2, 58, 0
4, 80160, Note_on_c, 2, 67, 60
4, 80160, Note_on_c, 2, 63, 60
4, 80160, Note_on_c, 2, 58, 60
4, 80254, Note_off_c, 2, 67, 0
4, 80254, Note_off_c, 2, 63, 0
4, 80254, Note_off_c, 2, 58, 0
4, 80256, Note_on_c, 2, 67, 60
4, 80256, Note_on_c, 2, 63, 60
4, 80256, Note_on_c, 2, 58, 60
4, 80350, Note_off_c, 2, 67, 0
4, 80350, Note_off_c, 2, 63, 0
4, 80350, Note_off_c, 2, 58, 0
4, 80352, Note_on_c, 2, 67, 60
4, 80352, Note_on_c, 2, 63, 60
4, 80352, Note_on_c, 2, 58, 60
4, 80400, Note_on_c, 2, 67, 60
4, 80400, Note_on_c, 2, 63, 60
4, 80400, Note_on_c, 2, 58, 60
4, 80446, Note_off_c, 2, 67, 0
4, 80446, Note_off_c, 2, 63, 0
4, 80446, Note_off_c, 2, 58, 0
4, 80448, Note_on_c, 2, 67, 60
4, 80448, Note_on_c, 2, 63, 60
4, 80448, Note_on_c, 2, 58, 60
4, 80494, Note_off_c, 2, 67, 0
4, 80494, Note_off_c, 2, 63, 0
4, 80494, Note_off_c, 2, 58, 0
4, 80542, Note_off_c, 2, 67, 0
4, 80542, Note_off_c, 2, 63, 0
4, 80542, Note_off_c, 2, 58, 0
4, 80544, Note_on_c, 2, 67, 60
4, 80544, Note_on_c, 2, 63, 60
4, 80544, Note_on_c, 2, 58, 60
4, 80638, Note_off_c, 2, 67, 0
4, 80638, Note_off_c, 2, 63, 0
4, 80638, Note_off_c, 2, 58, 0
4, 80736, Note_on_c, 2, 68, 60
4, 80736, Note_on_c, 2, 65, 60
4, 80736, Note_on_c, 2, 58, 60
4, 80830, Note_off_c, 2, 68, 0
4, 80830, Note_off_c, 2, 65, 0
4, 80830, Note_off_c, 2, 58, 0
4, 80832, Note_on_c, 2, 68, 60
4, 80832, Note_on_c, 2, 65, 60
4, 80832, Note_on_c, 2, 58, 60
4, 80926, Note_off_c, 2, 68, 0
4, 80926, Note_off_c, 2, 65, 0
4, 80926, Note_off_c, 2, 58, 0
4, 80928, Note_on_c, 2, 68, 60
4, 80928, Note_on_c, 2, 65, 60
4, 80928, Note_on_c, 2, 58, 60
4, 81022, Note_off_c, 2, 68, 0
4, 81022, Note_off_c, 2, 65, 0
4, 81022, Note_off_c, 2, 58, 0
4, 81024, Note_on_c, 2, 68, 60
4, 81024, Note_on_c, 2, 65, 60
4, 81024, Note_on_c, 2, 58, 60
4, 81118, Note_off_c, 2, 68, 0
4, 81118, Note_off_c, 2, 65, 0
4, 81118, Note_off_c, 2, 58, 0
4, 81120, Note_on_c, 2, 68, 60
4, 81120, Note_on_c, 2, 65, 60
4, 81120, Note_on_c, 2, 58, 60
4, 81214, Note_off_c, 2, 68, 0
4, 81214, Note_off_c, 2, 65, 0
4, 81214, Note_off_c, 2, 58, 0
4, 81312, Note_on_c, 2, 63, 60
4, 81312, Note_on_c, 2, 67, 60
4, 81312, Note_on_c, 2, 58, 60
4, 81406, Note_off_c, 2, 63, 0
4, 81406, Note_off_c, 2, 67, 0
4, 81406, Note_off_c, 2, 58, 0
4, 81408, Note_on_c, 2, 67, 60
4, 81408, Note_on_c, 2, 63, 60
4, 81408, Note_on_c, 2, 58, 60
4, 81502, Note_off_c, 2, 67, 0
4, 81502, Note_off_c, 2, 63, 0
4, 81502, Note_off_c, 2, 58, 0
4, 81504, Note_on_c, 2, 67, 60
4, 81504, Note_on_c, 2, 63, 60
4, 81504, Note_on_c, 2, 58, 60
4, 81552, Note_on_c, 2, 67, 60
4, 81552, Note_on_c, 2, 63, 60
4, 81552, Note_on_c, 2, 58, 60
4, 81598, Note_off_c, 2, 67, 0
4, 81598, Note_off_c, 2, 63, 0
4, 81598, Note_off_c, 2, 58, 0
4, 81600, Note_on_c, 2, 67, 60
4, 81600, Note_on_c, 2, 63, 60
4, 81600, Note_on_c, 2, 58, 60
4, 81646, Note_off_c, 2, 67, 0
4, 81646, Note_off_c, 2, 63, 0
4, 81646, Note_off_c, 2, 58, 0
4, 81694, Note_off_c, 2, 67, 0
4, 81694, Note_off_c, 2, 63, 0
4, 81694, Note_off_c, 2, 58, 0
4, 81696, Note_on_c, 2, 67, 60
4, 81696, Note_on_c, 2, 63, 60
4, 81696, Note_on_c, 2, 58, 60
4, 81790, Note_off_c, 2, 67, 0
4, 81790, Note_off_c, 2, 63, 0
4, 81790, Note_off_c, 2, 58, 0
4, 81888, Note_on_c, 2, 69, 60
4, 81888, Note_on_c, 2, 65, 60
4, 81888, Note_on_c, 2, 63, 60
4, 81888, Note_on_c, 2, 60, 60
4, 81982, Note_off_c, 2, 69, 0
4, 81982, Note_off_c, 2, 65, 0
4, 81982, Note_off_c, 2, 63, 0
4, 81982, Note_off_c, 2, 60, 0
4, 81984, Note_on_c, 2, 69, 60
4, 81984, Note_on_c, 2, 65, 60
4, 81984, Note_on_c, 2, 63, 60
4, 81984, Note_on_c, 2, 60, 60
4, 82078, Note_off_c, 2, 69, 0
4, 82078, Note_off_c, 2, 65, 0
4, 82078, Note_off_c, 2, 63, 0
4, 82078, Note_off_c, 2, 60, 0
4, 82080, Note_on_c, 2, 69, 60
4, 82080, Note_on_c, 2, 65, 60
4, 82080, Note_on_c, 2, 63, 60
4, 82080, Note_on_c, 2, 60, 60
4, 82174, Note_off_c, 2, 69, 0
4, 82174, Note_off_c, 2, 65, 0
4, 82174, Note_off_c, 2, 63, 0
4, 82174, Note_off_c, 2, 60, 0
4, 82176, Note_on_c, 2, 69, 60
4, 82176, Note_on_c, 2, 65, 60
4, 82176, Note_on_c, 2, 63, 60
4, 82176, Note_on_c, 2, 60, 60
4, 82270, Note_off_c, 2, 69, 0
4, 82270, Note_off_c, 2, 65, 0
4, 82270, Note_off_c, 2, 63, 0
4, 82270, Note_off_c, 2, 60, 0
4, 82272, Note_on_c, 2, 69, 60
4, 82272, Note_on_c, 2, 65, 60
4, 82272, Note_on_c, 2, 63, 60
4, 82272, Note_on_c, 2, 60, 60
4, 82366, Note_off_c, 2, 69, 0
4, 82366, Note_off_c, 2, 65, 0
4, 82366, Note_off_c, 2, 63, 0
4, 82366, Note_off_c, 2, 60, 0
4, 82368, Note_on_c, 2, 70, 60
4, 82368, Note_on_c, 2, 65, 60
4, 82368, Note_on_c, 2, 62, 60
4, 82558, Note_off_c, 2, 70, 0
4, 82558, Note_off_c, 2, 65, 0
4, 82558, Note_off_c, 2, 62, 0
4, 82848, Note_on_c, 2, 72, 60
4, 82848, Note_on_c, 2, 67, 60
4, 82942, Note_off_c, 2, 72, 0
4, 82942, Note_off_c, 2, 67, 0
4, 82944, Note_on_c, 2, 70, 60
4, 83230, Note_off_c, 2, 70, 0
4, 83232, Note_on_c, 2, 69, 60
4, 83326, Note_off_c, 2, 69, 0
4, 83424, Note_on_c, 2, 77, 60
4, 83518, Note_off_c, 2, 77, 0
4, 83520, Note_on_c, 2, 82, 60
4, 83520, Note_on_c, 2, 70, 60
4, 83710, Note_off_c, 2, 82, 0
4, 83710, Note_off_c, 2, 70, 0
4, 83712, Note_on_c, 2, 82, 60
4, 83712, Note_on_c, 2, 70, 60
4, 83806, Note_off_c, 2, 82, 0
4, 83806, Note_off_c, 2, 70, 0
4, 83808, Note_on_c, 2, 82, 60
4, 83808, Note_on_c, 2, 70, 60
4, 83902, Note_off_c, 2, 82, 0
4, 83902, Note_off_c, 2, 70, 0
4, 83904, Note_on_c, 2, 84, 60
4, 83904, Note_on_c, 2, 72, 60
4, 83998, Note_off_c, 2, 84, 0
4, 83998, Note_off_c, 2, 72, 0
4, 84000, Note_on_c, 2, 86, 60
4, 84000, Note_on_c, 2, 74, 60
4, 84094, Note_off_c, 2, 86, 0
4, 84094, Note_off_c, 2, 74, 0
4, 84096, Note_on_c, 2, 86, 60
4, 84096, Note_on_c, 2, 74, 60
4, 84190, Note_off_c, 2, 86, 0
4, 84190, Note_off_c, 2, 74, 0
4, 84192, Note_on_c, 2, 77, 60
4, 84286, Note_off_c, 2, 77, 0
4, 84288, Note_on_c, 2, 77, 60
4, 84288, Note_on_c, 2, 65, 60
4, 84382, Note_off_c, 2, 77, 0
4, 84382, Note_off_c, 2, 65, 0
4, 84384, Note_on_c, 2, 77, 60
4, 84384, Note_on_c, 2, 65, 60
4, 84574, Note_off_c, 2, 77, 0
4, 84574, Note_off_c, 2, 65, 0
4, 84576, Note_on_c, 2, 78, 60
4, 84576, Note_on_c, 2, 66, 60
4, 84670, Note_off_c, 2, 78, 0
4, 84670, Note_off_c, 2, 66, 0
4, 84672, Note_on_c, 2, 79, 60
4, 84672, Note_on_c, 2, 67, 60
4, 84862, Note_off_c, 2, 79, 0
4, 84862, Note_off_c, 2, 67, 0
4, 84864, Note_on_c, 2, 79, 60
4, 84864, Note_on_c, 2, 67, 60
4, 84958, Note_off_c, 2, 79, 0
4, 84958, Note_off_c, 2, 67, 0
4, 84960, Note_on_c, 2, 79, 60
4, 84960, Note_on_c, 2, 67, 60
4, 85054, Note_off_c, 2, 79, 0
4, 85054, Note_off_c, 2, 67, 0
4, 85056, Note_on_c, 2, 81, 60
4, 85056, Note_on_c, 2, 69, 60
4, 85150, Note_off_c, 2, 81, 0
4, 85150, Note_off_c, 2, 69, 0
4, 85152, Note_on_c, 2, 82, 60
4, 85152, Note_on_c, 2, 70, 60
4, 85246, Note_off_c, 2, 82, 0
4, 85246, Note_off_c, 2, 70, 0
4, 85248, Note_on_c, 2, 82, 60
4, 85248, Note_on_c, 2, 70, 60
4, 85342, Note_off_c, 2, 82, 0
4, 85342, Note_off_c, 2, 70, 0
4, 85344, Note_on_c, 2, 74, 60
4, 85438, Note_off_c, 2, 74, 0
4, 85440, Note_on_c, 2, 74, 60
4, 85440, Note_on_c, 2, 62, 60
4, 85534, Note_off_c, 2, 74, 0
4, 85534, Note_off_c, 2, 62, 0
4, 85536, Note_on_c, 2, 74, 60
4, 85536, Note_on_c, 2, 62, 60
4, 85726, Note_off_c, 2, 74, 0
4, 85726, Note_off_c, 2, 62, 0
4, 85728, Note_on_c, 2, 74, 60
4, 85728, Note_on_c, 2, 62, 60
4, 85822, Note_off_c, 2, 74, 0
4, 85822, Note_off_c, 2, 62, 0
4, 85824, Note_on_c, 2, 75, 60
4, 85824, Note_on_c, 2, 63, 60
4, 86014, Note_off_c, 2, 75, 0
4, 86014, Note_off_c, 2, 63, 0
4, 86016, Note_on_c, 2, 75, 60
4, 86016, Note_on_c, 2, 67, 60
4, 86110, Note_off_c, 2, 75, 0
4, 86110, Note_off_c, 2, 67, 0
4, 86112, Note_on_c, 2, 75, 60
4, 86112, Note_on_c, 2, 72, 60
4, 86206, Note_off_c, 2, 75, 0
4, 86206, Note_off_c, 2, 72, 0
4, 86208, Note_on_c, 2, 77, 60
4, 86302, Note_off_c, 2, 77, 0
4, 86304, Note_on_c, 2, 79, 60
4, 86304, Note_on_c, 2, 70, 60
4, 86398, Note_off_c, 2, 79, 0
4, 86398, Note_off_c, 2, 70, 0
4, 86400, Note_on_c, 2, 79, 60
4, 86400, Note_on_c, 2, 70, 60
4, 86494, Note_off_c, 2, 79, 0
4, 86494, Note_off_c, 2, 70, 0
4, 86496, Note_on_c, 2, 72, 60
4, 86496, Note_on_c, 2, 69, 60
4, 86590, Note_off_c, 2, 72, 0
4, 86590, Note_off_c, 2, 69, 0
4, 86592, Note_on_c, 2, 69, 60
4, 86592, Note_on_c, 2, 72, 60
4, 86686, Note_off_c, 2, 69, 0
4, 86686, Note_off_c, 2, 72, 0
4, 86688, Note_on_c, 2, 75, 60
4, 86688, Note_on_c, 2, 84, 60
4, 86734, Note_off_c, 2, 75, 0
4, 86734, Note_off_c, 2, 84, 0
4, 86736, Note_on_c, 2, 72, 60
4, 86782, Note_off_c, 2, 72, 0
4, 86784, Note_on_c, 2, 84, 60
4, 86784, Note_on_c, 2, 75, 60
4, 86830, Note_off_c, 2, 84, 0
4, 86830, Note_off_c, 2, 75, 0
4, 86832, Note_on_c, 2, 72, 60
4, 86878, Note_off_c, 2, 72, 0
4, 86880, Note_on_c, 2, 84, 60
4, 86880, Note_on_c, 2, 75, 60
4, 86926, Note_off_c, 2, 84, 0
4, 86926, Note_off_c, 2, 75, 0
4, 86928, Note_on_c, 2, 72, 60
4, 86974, Note_off_c, 2, 72, 0
4, 86976, Note_on_c, 2, 84, 60
4, 87022, Note_off_c, 2, 84, 0
4, 87024, Note_on_c, 2, 74, 60
4, 87070, Note_off_c, 2, 74, 0
4, 87072, Note_on_c, 2, 84, 60
4, 87118, Note_off_c, 2, 84, 0
4, 87120, Note_on_c, 2, 74, 60
4, 87166, Note_off_c, 2, 74, 0
4, 87168, Note_on_c, 2, 84, 60
4, 87214, Note_off_c, 2, 84, 0
4, 87216, Note_on_c, 2, 74, 60
4, 87262, Note_off_c, 2, 74, 0
4, 87264, Note_on_c, 2, 82, 60
4, 87264, Note_on_c, 2, 74, 60
4, 87310, Note_off_c, 2, 82, 0
4, 87310, Note_off_c, 2, 74, 0
4, 87312, Note_on_c, 2, 70, 60
4, 87358, Note_off_c, 2, 70, 0
4, 87360, Note_on_c, 2, 82, 60
4, 87360, Note_on_c, 2, 74, 60
4, 87406, Note_off_c, 2, 82, 0
4, 87406, Note_off_c, 2, 74, 0
4, 87408, Note_on_c, 2, 70, 60
4, 87454, Note_off_c, 2, 70, 0
4, 87456, Note_on_c, 2, 82, 60
4, 87456, Note_on_c, 2, 74, 60
4, 87502, Note_off_c, 2, 82, 0
4, 87502, Note_off_c, 2, 74, 0
4, 87504, Note_on_c, 2, 70, 60
4, 87550, Note_off_c, 2, 70, 0
4, 87552, Note_on_c, 2, 82, 60
4, 87598, Note_off_c, 2, 82, 0
4, 87600, Note_on_c, 2, 72, 60
4, 87646, Note_off_c, 2, 72, 0
4, 87648, Note_on_c, 2, 82, 60
4, 87694, Note_off_c, 2, 82, 0
4, 87696, Note_on_c, 2, 72, 60
4, 87742, Note_off_c, 2, 72, 0
4, 87744, Note_on_c, 2, 82, 60
4, 87790, Note_off_c, 2, 82, 0
4, 87792, Note_on_c, 2, 72, 60
4, 87838, Note_off_c, 2, 72, 0
4, 87840, Note_on_c, 2, 72, 60
4, 87840, Note_on_c, 2, 81, 60
4, 87886, Note_off_c, 2, 72, 0
4, 87886, Note_off_c, 2, 81, 0
4, 87888, Note_on_c, 2, 69, 60
4, 87934, Note_off_c, 2, 69, 0
4, 87936, Note_on_c, 2, 81, 60
4, 87936, Note_on_c, 2, 72, 60
4, 87982, Note_off_c, 2, 81, 0
4, 87982, Note_off_c, 2, 72, 0
4, 87984, Note_on_c, 2, 69, 60
4, 88030, Note_off_c, 2, 69, 0
4, 88032, Note_on_c, 2, 81, 60
4, 88032, Note_on_c, 2, 72, 60
4, 88078, Note_off_c, 2, 81, 0
4, 88078, Note_off_c, 2, 72, 0
4, 88080, Note_on_c, 2, 69, 60
4, 88126, Note_off_c, 2, 69, 0
4, 88128, Note_on_c, 2, 79, 60
4, 88128, Note_on_c, 2, 70, 60
4, 88174, Note_off_c, 2, 79, 0
4, 88174, Note_off_c, 2, 70, 0
4, 88176, Note_on_c, 2, 67, 60
4, 88222, Note_off_c, 2, 67, 0
4, 88224, Note_on_c, 2, 79, 60
4, 88224, Note_on_c, 2, 70, 60
4, 88270, Note_off_c, 2, 79, 0
4, 88270, Note_off_c, 2, 70, 0
4, 88272, Note_on_c, 2, 67, 60
4, 88318, Note_off_c, 2, 67, 0
4, 88320, Note_on_c, 2, 79, 60
4, 88320, Note_on_c, 2, 70, 60
4, 88366, Note_off_c, 2, 79, 0
4, 88366, Note_off_c, 2, 70, 0
4, 88368, Note_on_c, 2, 67, 60
4, 88414, Note_off_c, 2, 67, 0
4, 88416, Note_on_c, 2, 79, 60
4, 88416, Note_on_c, 2, 71, 60
4, 88462, Note_off_c, 2, 79, 0
4, 88462, Note_off_c, 2, 71, 0
4, 88464, Note_on_c, 2, 67, 60
4, 88510, Note_off_c, 2, 67, 0
4, 88512, Note_on_c, 2, 79, 60
4, 88512, Note_on_c, 2, 71, 60
4, 88558, Note_off_c, 2, 79, 0
4, 88558, Note_off_c, 2, 71, 0
4, 88560, Note_on_c, 2, 67, 60
4, 88606, Note_off_c, 2, 67, 0
4, 88608, Note_on_c, 2, 79, 60
4, 88608, Note_on_c, 2, 71, 60
4, 88654, Note_off_c, 2, 79, 0
4, 88654, Note_off_c, 2, 71, 0
4, 88656, Note_on_c, 2, 67, 60
4, 88702, Note_off_c, 2, 67, 0
4, 88704, Note_on_c, 2, 79, 60
4, 88704, Note_on_c, 2, 72, 60
4, 88750, Note_off_c, 2, 79, 0
4, 88750, Note_off_c, 2, 72, 0
4, 88752, Note_on_c, 2, 67, 60
4, 88798, Note_off_c, 2, 67, 0
4, 88800, Note_on_c, 2, 79, 60
4, 88800, Note_on_c, 2, 72, 60
4, 88846, Note_off_c, 2, 79, 0
4, 88846, Note_off_c, 2, 72, 0
4, 88848, Note_on_c, 2, 67, 60
4, 88894, Note_off_c, 2, 67, 0
4, 88896, Note_on_c, 2, 79, 60
4, 88896, Note_on_c, 2, 72, 60
4, 88942, Note_off_c, 2, 79, 0
4, 88942, Note_off_c, 2, 72, 0
4, 88944, Note_on_c, 2, 67, 60
4, 88990, Note_off_c, 2, 67, 0
4, 88992, Note_on_c, 2, 79, 60
4, 88992, Note_on_c, 2, 73, 60
4, 89038, Note_off_c, 2, 79, 0
4, 89038, Note_off_c, 2, 73, 0
4, 89040, Note_on_c, 2, 67, 60
4, 89086, Note_off_c, 2, 67, 0
4, 89088, Note_on_c, 2, 79, 60
4, 89088, Note_on_c, 2, 73, 60
4, 89134, Note_off_c, 2, 79, 0
4, 89134, Note_off_c, 2, 73, 0
4, 89136, Note_on_c, 2, 67, 60
4, 89182, Note_off_c, 2, 67, 0
4, 89184, Note_on_c, 2, 79, 60
4, 89184, Note_on_c, 2, 73, 60
4, 89230, Note_off_c, 2, 79, 0
4, 89230, Note_off_c, 2, 73, 0
4, 89232, Note_on_c, 2, 67, 60
4, 89278, Note_off_c, 2, 67, 0
4, 89280, Note_on_c, 2, 78, 60
4, 89280, Note_on_c, 2, 74, 60
4, 89280, Note_on_c, 2, 66, 60
4, 89470, Note_off_c, 2, 78, 0
4, 89470, Note_off_c, 2, 74, 0
4, 89470, Note_off_c, 2, 66, 0
4, 89568, Note_on_c, 2, 81, 60
4, 89568, Note_on_c, 2, 74, 60
4, 89568, Note_on_c, 2, 69, 60
4, 89758, Note_off_c, 2, 81, 0
4, 89758, Note_off_c, 2, 74, 0
4, 89758, Note_off_c, 2, 69, 0
4, 89856, Note_on_c, 2, 82, 60
4, 89856, Note_on_c, 2, 74, 60
4, 89856, Note_on_c, 2, 70, 60
4, 90046, Note_off_c, 2, 82, 0
4, 90046, Note_off_c, 2, 74, 0
4, 90046, Note_off_c, 2, 70, 0
4, 90144, Note_on_c, 2, 79, 60
4, 90144, Note_on_c, 2, 74, 60
4, 90144, Note_on_c, 2, 67, 60
4, 90334, Note_off_c, 2, 79, 0
4, 90334, Note_off_c, 2, 74, 0
4, 90334, Note_off_c, 2, 67, 0
4, 90432, Note_on_c, 2, 78, 60
4, 90432, Note_on_c, 2, 74, 60
4, 90432, Note_on_c, 2, 66, 60
4, 90622, Note_off_c, 2, 78, 0
4, 90622, Note_off_c, 2, 74, 0
4, 90622, Note_off_c, 2, 66, 0
4, 90720, Note_on_c, 2, 81, 60
4, 90720, Note_on_c, 2, 74, 60
4, 90720, Note_on_c, 2, 69, 60
4, 90910, Note_off_c, 2, 81, 0
4, 90910, Note_off_c, 2, 74, 0
4, 90910, Note_off_c, 2, 69, 0
4, 91008, Note_on_c, 2, 82, 60
4, 91008, Note_on_c, 2, 74, 60
4, 91008, Note_on_c, 2, 70, 60
4, 91198, Note_off_c, 2, 82, 0
4, 91198, Note_off_c, 2, 74, 0
4, 91198, Note_off_c, 2, 70, 0
4, 91296, Note_on_c, 2, 79, 60
4, 91296, Note_on_c, 2, 74, 60
4, 91296, Note_on_c, 2, 67, 60
4, 91486, Note_off_c, 2, 79, 0
4, 91486, Note_off_c, 2, 74, 0
4, 91486, Note_off_c, 2, 67, 0
4, 91584, Note_on_c, 2, 86, 60
4, 91584, Note_on_c, 2, 78, 60
4, 91584, Note_on_c, 2, 74, 60
4, 91678, Note_off_c, 2, 86, 0
4, 91678, Note_off_c, 2, 78, 0
4, 91678, Note_off_c, 2, 74, 0
4, 91776, Note_on_c, 2, 62, 60
4, 91822, Note_off_c, 2, 62, 0
4, 91824, Note_on_c, 2, 62, 60
4, 91870, Note_off_c, 2, 62, 0
4, 91872, Note_on_c, 2, 62, 60
4, 92062, Note_off_c, 2, 62, 0
4, 92064, Note_on_c, 2, 62, 60
4, 92110, Note_off_c, 2, 62, 0
4, 92112, Note_on_c, 2, 62, 60
4, 92158, Note_off_c, 2, 62, 0
4, 92160, Note_on_c, 2, 62, 60
4, 92254, Note_off_c, 2, 62, 0
4, 92256, Note_on_c, 2, 62, 60
4, 92350, Note_off_c, 2, 62, 0
4, 92352, Note_on_c, 2, 62, 60
4, 92446, Note_off_c, 2, 62, 0
4, 92448, Note_on_c, 2, 62, 60
4, 92542, Note_off_c, 2, 62, 0
4, 92544, Note_on_c, 2, 62, 60
4, 92638, Note_off_c, 2, 62, 0
4, 92640, Note_on_c, 2, 62, 60
4, 92734, Note_off_c, 2, 62, 0
4, 92736, Note_on_c, 2, 62, 60
4, 92830, Note_off_c, 2, 62, 0
4, 93024, Note_on_c, 2, 62, 60
4, 93118, Note_off_c, 2, 62, 0
4, 93312, Note_on_c, 2, 62, 60
4, 93406, Note_off_c, 2, 62, 0
4, 93600, Note_on_c, 2, 62, 60
4, 93694, Note_off_c, 2, 62, 0
4, 93888, Note_on_c, 2, 77, 52
4, 93888, Note_on_c, 2, 70, 52
4, 93888, Note_on_c, 2, 80, 52
4, 93888, Note_on_c, 2, 82, 52
4, 94462, Note_off_c, 2, 77, 0
4, 94462, Note_off_c, 2, 70, 0
4, 94462, Note_off_c, 2, 80, 0
4, 94464, Note_on_c, 2, 77, 52
4, 94464, Note_on_c, 2, 74, 52
4, 94464, Note_on_c, 2, 82, 52
4, 94464, Note_on_c, 2, 81, 52
4, 94750, Note_off_c, 2, 82, 0
4, 94942, Note_off_c, 2, 82, 0
4, 94944, Note_on_c, 2, 84, 55
4, 94990, Note_off_c, 2, 84, 0
4, 94992, Note_on_c, 2, 82, 55
4, 95038, Note_off_c, 2, 77, 0
4, 95038, Note_off_c, 2, 74, 0
4, 95038, Note_off_c, 2, 81, 64
4, 95038, Note_off_c, 2, 82, 0
4, 95040, Note_on_c, 2, 87, 55
4, 95040, Note_on_c, 2, 82, 55
4, 95040, Note_on_c, 2, 79, 55
4, 95040, Note_on_c, 2, 75, 55
4, 95230, Note_off_c, 2, 87, 0
4, 95230, Note_off_c, 2, 82, 0
4, 95230, Note_off_c, 2, 79, 0
4, 95230, Note_off_c, 2, 75, 0
4, 95904, Note_on_c, 2, 82, 60
4, 95904, Note_on_c, 2, 70, 60
4, 95998, Note_off_c, 2, 82, 0
4, 95998, Note_off_c, 2, 70, 0
4, 96000, Note_on_c, 2, 82, 60
4, 96000, Note_on_c, 2, 70, 60
4, 96094, Note_off_c, 2, 82, 0
4, 96094, Note_off_c, 2, 70, 0
4, 96096, Note_on_c, 2, 82, 60
4, 96096, Note_on_c, 2, 70, 60
4, 96190, Note_off_c, 2, 82, 0
4, 96190, Note_off_c, 2, 70, 0
4, 96192, Note_on_c, 2, 82, 60
4, 96192, Note_on_c, 2, 70, 60
4, 96382, Note_off_c, 2, 82, 0
4, 96382, Note_off_c, 2, 70, 0
4, 97056, Note_on_c, 2, 82, 60
4, 97056, Note_on_c, 2, 70, 60
4, 97150, Note_off_c, 2, 82, 0
4, 97150, Note_off_c, 2, 70, 0
4, 97152, Note_on_c, 2, 82, 60
4, 97152, Note_on_c, 2, 70, 60
4, 97246, Note_off_c, 2, 82, 0
4, 97246, Note_off_c, 2, 70, 0
4, 97248, Note_on_c, 2, 82, 60
4, 97248, Note_on_c, 2, 70, 60
4, 97342, Note_off_c, 2, 82, 0
4, 97342, Note_off_c, 2, 70, 0
4, 97344, Note_on_c, 2, 82, 60
4, 97344, Note_on_c, 2, 70, 60
4, 97534, Note_off_c, 2, 82, 0
4, 97534, Note_off_c, 2, 70, 0
4, 102240, Note_on_c, 2, 75, 55
4, 102240, Note_on_c, 2, 70, 55
4, 102334, Note_off_c, 2, 75, 0
4, 102334, Note_off_c, 2, 70, 0
4, 102336, Note_on_c, 2, 74, 55
4, 102336, Note_on_c, 2, 68, 55
4, 102430, Note_off_c, 2, 74, 0
4, 102430, Note_off_c, 2, 68, 0
4, 102432, Note_on_c, 2, 75, 55
4, 102432, Note_on_c, 2, 67, 55
4, 102526, Note_off_c, 2, 75, 0
4, 102526, Note_off_c, 2, 67, 0
4, 102528, Note_on_c, 2, 77, 55
4, 102528, Note_on_c, 2, 65, 55
4, 102718, Note_off_c, 2, 77, 0
4, 102718, Note_off_c, 2, 65, 0
4, 103392, Note_on_c, 2, 74, 55
4, 103392, Note_on_c, 2, 70, 55
4, 103486, Note_off_c, 2, 74, 0
4, 103486, Note_off_c, 2, 70, 0
4, 103488, Note_on_c, 2, 75, 55
4, 103488, Note_on_c, 2, 72, 55
4, 103582, Note_off_c, 2, 75, 0
4, 103582, Note_off_c, 2, 72, 0
4, 103584, Note_on_c, 2, 77, 55
4, 103584, Note_on_c, 2, 74, 55
4, 103678, Note_off_c, 2, 77, 0
4, 103678, Note_off_c, 2, 74, 0
4, 103680, Note_on_c, 2, 79, 55
4, 103680, Note_on_c, 2, 75, 55
4, 103870, Note_off_c, 2, 79, 0
4, 103870, Note_off_c, 2, 75, 0
4, 106272, Note_on_c, 2, 79, 55
4, 106272, Note_on_c, 2, 82, 55
4, 106558, Note_off_c, 2, 79, 0
4, 106558, Note_off_c, 2, 82, 0
4, 106560, Note_on_c, 2, 79, 55
4, 106560, Note_on_c, 2, 82, 55
4, 106560, Note_on_c, 2, 72, 55
4, 106846, Note_off_c, 2, 79, 0
4, 106846, Note_off_c, 2, 82, 0
4, 106848, Note_on_c, 2, 80, 55
4, 106848, Note_on_c, 2, 77, 55
4, 107134, Note_off_c, 2, 72, 0
4, 107134, Note_off_c, 2, 80, 0
4, 107134, Note_off_c, 2, 77, 0
4, 107136, Note_on_c, 2, 81, 55
4, 107136, Note_on_c, 2, 77, 55
4, 107136, Note_on_c, 2, 70, 55
4, 107422, Note_off_c, 2, 81, 0
4, 107422, Note_off_c, 2, 77, 0
4, 107424, Note_on_c, 2, 75, 55
4, 107424, Note_on_c, 2, 79, 55
4, 107710, Note_off_c, 2, 70, 0
4, 107710, Note_off_c, 2, 75, 0
4, 107710, Note_off_c, 2, 79, 0
4, 107712, Note_on_c, 2, 79, 55
4, 107712, Note_on_c, 2, 68, 55
4, 107712, Note_on_c, 2, 75, 55
4, 107998, Note_off_c, 2, 79, 0
4, 107998, Note_off_c, 2, 75, 0
4, 108000, Note_on_c, 2, 77, 55
4, 108286, Note_off_c, 2, 68, 0
4, 108286, Note_off_c, 2, 77, 0
4, 108288, Note_on_c, 2, 75, 55
4, 108288, Note_on_c, 2, 70, 55
4, 108288, Note_on_c, 2, 67, 55
4, 108478, Note_off_c, 2, 75, 0
4, 108478, Note_off_c, 2, 70, 0
4, 108478, Note_off_c, 2, 67, 0
4, 110496, Note_on_c, 2, 70, 71
4, 110590, Note_off_c, 2, 70, 0
4, 110592, Note_on_c, 2, 75, 71
4, 110782, Note_off_c, 2, 75, 0
4, 110784, Note_on_c, 2, 75, 71
4, 110878, Note_off_c, 2, 75, 0
4, 110880, Note_on_c, 2, 75, 71
4, 110974, Note_off_c, 2, 75, 0
4, 110976, Note_on_c, 2, 77, 71
4, 111070, Note_off_c, 2, 77, 0
4, 111072, Note_on_c, 2, 79, 71
4, 111166, Note_off_c, 2, 79, 0
4, 111168, Note_on_c, 2, 79, 71
4, 111262, Note_off_c, 2, 79, 0
4, 111264, Note_on_c, 2, 70, 71
4, 111358, Note_off_c, 2, 70, 0
4, 111360, Note_on_c, 2, 70, 71
4, 111454, Note_off_c, 2, 70, 0
4, 111456, Note_on_c, 2, 70, 71
4, 111646, Note_off_c, 2, 70, 0
4, 111648, Note_on_c, 2, 70, 71
4, 111742, Note_off_c, 2, 70, 0
4, 111744, Note_on_c, 2, 77, 71
4, 111934, Note_off_c, 2, 77, 0
4, 111936, Note_on_c, 2, 77, 71
4, 112030, Note_off_c, 2, 77, 0
4, 112032, Note_on_c, 2, 77, 71
4, 112052, Note_off_c, 2, 77, 0
4, 112056, Note_on_c, 2, 79, 71
4, 112076, Note_off_c, 2, 79, 0
4, 112080, Note_on_c, 2, 75, 71
4, 112100, Note_off_c, 2, 75, 0
4, 112104, Note_on_c, 2, 77, 71
4, 112124, Note_off_c, 2, 77, 0
4, 112128, Note_on_c, 2, 79, 71
4, 112174, Note_off_c, 2, 79, 0
4, 112224, Note_on_c, 2, 80, 71
4, 112270, Note_off_c, 2, 80, 0
4, 112320, Note_on_c, 2, 80, 71
4, 112414, Note_off_c, 2, 80, 0
4, 112416, Note_on_c, 2, 70, 71
4, 112510, Note_off_c, 2, 70, 0
4, 112512, Note_on_c, 2, 70, 71
4, 112606, Note_off_c, 2, 70, 0
4, 112608, Note_on_c, 2, 70, 71
4, 112798, Note_off_c, 2, 70, 0
4, 112992, Note_on_c, 2, 63, 71
4, 112992, Note_on_c, 2, 67, 71
4, 112992, Note_on_c, 2, 58, 71
4, 113086, Note_off_c, 2, 63, 0
4, 113086, Note_off_c, 2, 67, 0
4, 113086, Note_off_c, 2, 58, 0
4, 113088, Note_on_c, 2, 63, 71
4, 113088, Note_on_c, 2, 67, 71
4, 113088, Note_on_c, 2, 58, 71
4, 113182, Note_off_c, 2, 63, 0
4, 113182, Note_off_c, 2, 67, 0
4, 113182, Note_off_c, 2, 58, 0
4, 113184, Note_on_c, 2, 63, 71
4, 113184, Note_on_c, 2, 67, 71
4, 113184, Note_on_c, 2, 58, 71
4, 113278, Note_off_c, 2, 63, 0
4, 113278, Note_off_c, 2, 67, 0
4, 113278, Note_off_c, 2, 58, 0
4, 113280, Note_on_c, 2, 67, 71
4, 113280, Note_on_c, 2, 58, 71
4, 113280, Note_on_c, 2, 63, 71
4, 113374, Note_off_c, 2, 67, 0
4, 113374, Note_off_c, 2, 58, 0
4, 113374, Note_off_c, 2, 63, 0
4, 113376, Note_on_c, 2, 63, 71
4, 113376, Note_on_c, 2, 58, 71
4, 113376, Note_on_c, 2, 67, 71
4, 113470, Note_off_c, 2, 63, 0
4, 113470, Note_off_c, 2, 58, 0
4, 113470, Note_off_c, 2, 67, 0
4, 113568, Note_on_c, 2, 64, 71
4, 113568, Note_on_c, 2, 67, 71
4, 113568, Note_on_c, 2, 58, 71
4, 113662, Note_off_c, 2, 64, 0
4, 113662, Note_off_c, 2, 67, 0
4, 113662, Note_off_c, 2, 58, 0
4, 113664, Note_on_c, 2, 64, 71
4, 113664, Note_on_c, 2, 67, 71
4, 113664, Note_on_c, 2, 58, 71
4, 113758, Note_off_c, 2, 64, 0
4, 113758, Note_off_c, 2, 67, 0
4, 113758, Note_off_c, 2, 58, 0
4, 113760, Note_on_c, 2, 64, 71
4, 113760, Note_on_c, 2, 67, 71
4, 113760, Note_on_c, 2, 58, 71
4, 113854, Note_off_c, 2, 64, 0
4, 113854, Note_off_c, 2, 67, 0
4, 113854, Note_off_c, 2, 58, 0
4, 113856, Note_on_c, 2, 64, 71
4, 113856, Note_on_c, 2, 67, 71
4, 113856, Note_on_c, 2, 58, 71
4, 113950, Note_off_c, 2, 64, 0
4, 113950, Note_off_c, 2, 67, 0
4, 113950, Note_off_c, 2, 58, 0
4, 113952, Note_on_c, 2, 72, 71
4, 114046, Note_off_c, 2, 72, 0
4, 114048, Note_on_c, 2, 77, 71
4, 114048, Note_on_c, 2, 65, 71
4, 114238, Note_off_c, 2, 77, 0
4, 114238, Note_off_c, 2, 65, 0
4, 114240, Note_on_c, 2, 77, 71
4, 114334, Note_off_c, 2, 77, 0
4, 114336, Note_on_c, 2, 77, 71
4, 114430, Note_off_c, 2, 77, 0
4, 114432, Note_on_c, 2, 79, 71
4, 114526, Note_off_c, 2, 79, 0
4, 114528, Note_on_c, 2, 80, 71
4, 114622, Note_off_c, 2, 80, 0
4, 114624, Note_on_c, 2, 80, 71
4, 114718, Note_off_c, 2, 80, 0
4, 114720, Note_on_c, 2, 72, 71
4, 114814, Note_off_c, 2, 72, 0
4, 114816, Note_on_c, 2, 72, 71
4, 114910, Note_off_c, 2, 72, 0
4, 114912, Note_on_c, 2, 72, 71
4, 115006, Note_off_c, 2, 72, 0
4, 115104, Note_on_c, 2, 72, 71
4, 115198, Note_off_c, 2, 72, 0
4, 115200, Note_on_c, 2, 79, 71
4, 115390, Note_off_c, 2, 79, 0
4, 115392, Note_on_c, 2, 79, 71
4, 115486, Note_off_c, 2, 79, 0
4, 115488, Note_on_c, 2, 80, 77
4, 115508, Note_off_c, 2, 80, 0
4, 115512, Note_on_c, 2, 79, 77
4, 115532, Note_off_c, 2, 79, 0
4, 115536, Note_on_c, 2, 77, 77
4, 115556, Note_off_c, 2, 77, 0
4, 115560, Note_on_c, 2, 79, 77
4, 115580, Note_off_c, 2, 79, 0
4, 115584, Note_on_c, 2, 80, 71
4, 115678, Note_off_c, 2, 80, 0
4, 115680, Note_on_c, 2, 82, 71
4, 115774, Note_off_c, 2, 82, 0
4, 115776, Note_on_c, 2, 82, 71
4, 115870, Note_off_c, 2, 82, 0
4, 115872, Note_on_c, 2, 72, 71
4, 115966, Note_off_c, 2, 72, 0
4, 115968, Note_on_c, 2, 72, 71
4, 116014, Note_off_c, 2, 72, 0
4, 116064, Note_on_c, 2, 72, 71
4, 116254, Note_off_c, 2, 72, 0
4, 116448, Note_on_c, 2, 65, 71
4, 116448, Note_on_c, 2, 69, 71
4, 116448, Note_on_c, 2, 60, 71
4, 116542, Note_off_c, 2, 65, 0
4, 116542, Note_off_c, 2, 69, 0
4, 116542, Note_off_c, 2, 60, 0
4, 116544, Note_on_c, 2, 65, 71
4, 116544, Note_on_c, 2, 69, 71
4, 116544, Note_on_c, 2, 60, 71
4, 116638, Note_off_c, 2, 65, 0
4, 116638, Note_off_c, 2, 69, 0
4, 116638, Note_off_c, 2, 60, 0
4, 116640, Note_on_c, 2, 65, 71
4, 116640, Note_on_c, 2, 69, 71
4, 116640, Note_on_c, 2, 60, 71
4, 116734, Note_off_c, 2, 65, 0
4, 116734, Note_off_c, 2, 69, 0
4, 116734, Note_off_c, 2, 60, 0
4, 116736, Note_on_c, 2, 65, 71
4, 116736, Note_on_c, 2, 69, 71
4, 116736, Note_on_c, 2, 60, 71
4, 116830, Note_off_c, 2, 65, 0
4, 116830, Note_off_c, 2, 69, 0
4, 116830, Note_off_c, 2, 60, 0
4, 116832, Note_on_c, 2, 65, 71
4, 116832, Note_on_c, 2, 69, 71
4, 116832, Note_on_c, 2, 60, 71
4, 116926, Note_off_c, 2, 65, 0
4, 116926, Note_off_c, 2, 69, 0
4, 116926, Note_off_c, 2, 60, 0
4, 117024, Note_on_c, 2, 66, 71
4, 117024, Note_on_c, 2, 69, 71
4, 117024, Note_on_c, 2, 60, 71
4, 117118, Note_off_c, 2, 66, 0
4, 117118, Note_off_c, 2, 69, 0
4, 117118, Note_off_c, 2, 60, 0
4, 117120, Note_on_c, 2, 66, 71
4, 117120, Note_on_c, 2, 69, 71
4, 117120, Note_on_c, 2, 60, 71
4, 117214, Note_off_c, 2, 66, 0
4, 117214, Note_off_c, 2, 69, 0
4, 117214, Note_off_c, 2, 60, 0
4, 117216, Note_on_c, 2, 66, 71
4, 117216, Note_on_c, 2, 69, 71
4, 117216, Note_on_c, 2, 60, 71
4, 117310, Note_off_c, 2, 66, 0
4, 117310, Note_off_c, 2, 69, 0
4, 117310, Note_off_c, 2, 60, 0
4, 117408, Note_on_c, 2, 62, 71
4, 117502, Note_off_c, 2, 62, 0
4, 117504, Note_on_c, 2, 67, 71
4, 117694, Note_off_c, 2, 67, 0
4, 117696, Note_on_c, 2, 67, 71
4, 117790, Note_off_c, 2, 67, 0
4, 117792, Note_on_c, 2, 67, 71
4, 117886, Note_off_c, 2, 67, 0
4, 117888, Note_on_c, 2, 69, 71
4, 117982, Note_off_c, 2, 69, 0
4, 117984, Note_on_c, 2, 70, 71
4, 118078, Note_off_c, 2, 70, 0
4, 118080, Note_on_c, 2, 70, 71
4, 118174, Note_off_c, 2, 70, 0
4, 118176, Note_on_c, 2, 60, 71
4, 118270, Note_off_c, 2, 60, 0
4, 118272, Note_on_c, 2, 60, 71
4, 118366, Note_off_c, 2, 60, 0
4, 118368, Note_on_c, 2, 60, 71
4, 118558, Note_off_c, 2, 60, 0
4, 118560, Note_on_c, 2, 60, 71
4, 118654, Note_off_c, 2, 60, 0
4, 118656, Note_on_c, 2, 65, 71
4, 118846, Note_off_c, 2, 65, 0
4, 118848, Note_on_c, 2, 65, 71
4, 118942, Note_off_c, 2, 65, 0
4, 118944, Note_on_c, 2, 65, 71
4, 119038, Note_off_c, 2, 65, 0
4, 119040, Note_on_c, 2, 67, 71
4, 119134, Note_off_c, 2, 67, 0
4, 119136, Note_on_c, 2, 68, 71
4, 119230, Note_off_c, 2, 68, 0
4, 119240, Note_on_c, 2, 68, 71
4, 119328, Note_on_c, 2, 58, 71
4, 119334, Note_off_c, 2, 68, 0
4, 119422, Note_off_c, 2, 58, 0
4, 119424, Note_on_c, 2, 58, 71
4, 119518, Note_off_c, 2, 58, 0
4, 119520, Note_on_c, 2, 58, 71
4, 119710, Note_off_c, 2, 58, 0
4, 119712, Note_on_c, 2, 58, 71
4, 119806, Note_off_c, 2, 58, 0
4, 119808, Note_on_c, 2, 63, 71
4, 119902, Note_off_c, 2, 63, 0
4, 119904, Note_on_c, 2, 65, 71
4, 119998, Note_off_c, 2, 65, 0
4, 120000, Note_on_c, 2, 67, 71
4, 120094, Note_off_c, 2, 67, 0
4, 120096, Note_on_c, 2, 56, 71
4, 120286, Note_off_c, 2, 56, 0
4, 120288, Note_on_c, 2, 56, 71
4, 120382, Note_off_c, 2, 56, 0
4, 120384, Note_on_c, 2, 62, 71
4, 120478, Note_off_c, 2, 62, 0
4, 120480, Note_on_c, 2, 63, 71
4, 120574, Note_off_c, 2, 63, 0
4, 120576, Note_on_c, 2, 65, 71
4, 120670, Note_off_c, 2, 65, 0
4, 120672, Note_on_c, 2, 57, 71
4, 120862, Note_off_c, 2, 57, 0
4, 121536, Note_on_c, 2, 87, 55
4, 121536, Note_on_c, 2, 77, 55
4, 121536, Note_on_c, 2, 72, 55
4, 121822, Note_off_c, 2, 87, 0
4, 121824, Note_on_c, 2, 81, 55
4, 122110, Note_off_c, 2, 77, 0
4, 122110, Note_off_c, 2, 72, 0
4, 122110, Note_off_c, 2, 81, 0
4, 122112, Note_on_c, 2, 82, 55
4, 122112, Note_on_c, 2, 77, 55
4, 122112, Note_on_c, 2, 70, 55
4, 122302, Note_off_c, 2, 82, 0
4, 122302, Note_off_c, 2, 77, 0
4, 122302, Note_off_c, 2, 70, 0
4, 122688, Note_on_c, 2, 86, 55
4, 122688, Note_on_c, 2, 75, 55
4, 122688, Note_on_c, 2, 70, 55
4, 122974, Note_off_c, 2, 86, 0
4, 122976, Note_on_c, 2, 79, 55
4, 123262, Note_off_c, 2, 75, 0
4, 123262, Note_off_c, 2, 70, 0
4, 123262, Note_off_c, 2, 79, 0
4, 123264, Note_on_c, 2, 81, 55
4, 123264, Note_on_c, 2, 75, 55
4, 123264, Note_on_c, 2, 69, 55
4, 123454, Note_off_c, 2, 81, 0
4, 123454, Note_off_c, 2, 75, 0
4, 123454, Note_off_c, 2, 69, 0
4, 123840, Note_on_c, 2, 84, 55
4, 123840, Note_on_c, 2, 74, 55
4, 123840, Note_on_c, 2, 69, 55
4, 124126, Note_off_c, 2, 84, 0
4, 124128, Note_on_c, 2, 78, 55
4, 124414, Note_off_c, 2, 74, 0
4, 124414, Note_off_c, 2, 69, 0
4, 124414, Note_off_c, 2, 78, 0
4, 124416, Note_on_c, 2, 79, 55
4, 124416, Note_on_c, 2, 74, 55
4, 124416, Note_on_c, 2, 67, 55
4, 124416, Note_on_c, 2, 59, 55
4, 124512, Note_on_c, 2, 62, 55
4, 124606, Note_off_c, 2, 62, 0
4, 124608, Note_on_c, 2, 61, 55
4, 124702, Note_off_c, 2, 61, 0
4, 124704, Note_on_c, 2, 62, 55
4, 124798, Note_off_c, 2, 62, 0
4, 124800, Note_on_c, 2, 61, 55
4, 124894, Note_off_c, 2, 61, 0
4, 124896, Note_on_c, 2, 62, 55
4, 124990, Note_off_c, 2, 79, 0
4, 124990, Note_off_c, 2, 74, 0
4, 124990, Note_off_c, 2, 67, 0
4, 124990, Note_off_c, 2, 59, 0
4, 124990, Note_off_c, 2, 62, 0
4, 124992, Note_on_c, 2, 80, 55
4, 124992, Note_on_c, 2, 74, 55
4, 124992, Note_on_c, 2, 68, 55
4, 124992, Note_on_c, 2, 58, 55
4, 125088, Note_on_c, 2, 62, 55
4, 125182, Note_off_c, 2, 62, 0
4, 125184, Note_on_c, 2, 64, 55
4, 125278, Note_off_c, 2, 64, 0
4, 125280, Note_on_c, 2, 65, 55
4, 125374, Note_off_c, 2, 65, 0
4, 125376, Note_on_c, 2, 64, 55
4, 125376, Note_on_c, 2, 61, 55
4, 125470, Note_off_c, 2, 64, 0
4, 125470, Note_off_c, 2, 61, 0
4, 125472, Note_on_c, 2, 62, 55
4, 125566, Note_off_c, 2, 80, 0
4, 125566, Note_off_c, 2, 74, 0
4, 125566, Note_off_c, 2, 68, 0
4, 125566, Note_off_c, 2, 58, 0
4, 125566, Note_off_c, 2, 62, 0
4, 125568, Note_on_c, 2, 81, 55
4, 125568, Note_on_c, 2, 73, 55
4, 125568, Note_on_c, 2, 69, 55
4, 125568, Note_on_c, 2, 64, 55
4, 125568, Note_on_c, 2, 57, 55
4, 125758, Note_off_c, 2, 81, 0
4, 125758, Note_off_c, 2, 73, 0
4, 125758, Note_off_c, 2, 69, 0
4, 125758, Note_off_c, 2, 64, 0
4, 125758, Note_off_c, 2, 57, 0
4, 125856, Note_on_c, 2, 81, 55
4, 125856, Note_on_c, 2, 69, 55
4, 125856, Note_on_c, 2, 57, 55
4, 125950, Note_off_c, 2, 81, 0
4, 125950, Note_off_c, 2, 69, 0
4, 125950, Note_off_c, 2, 57, 0
4, 125952, Note_on_c, 2, 80, 55
4, 125952, Note_on_c, 2, 68, 55
4, 125952, Note_on_c, 2, 59, 55
4, 126046, Note_off_c, 2, 80, 0
4, 126046, Note_off_c, 2, 68, 0
4, 126046, Note_off_c, 2, 59, 0
4, 126048, Note_on_c, 2, 79, 55
4, 126048, Note_on_c, 2, 67, 55
4, 126048, Note_on_c, 2, 61, 55
4, 126142, Note_off_c, 2, 79, 0
4, 126142, Note_off_c, 2, 67, 0
4, 126142, Note_off_c, 2, 61, 0
4, 126144, Note_on_c, 2, 77, 55
4, 126144, Note_on_c, 2, 65, 55
4, 126144, Note_on_c, 2, 62, 55
4, 126238, Note_off_c, 2, 77, 0
4, 126238, Note_off_c, 2, 65, 0
4, 126238, Note_off_c, 2, 62, 0
4, 126240, Note_on_c, 2, 76, 55
4, 126240, Note_on_c, 2, 64, 55
4, 126240, Note_on_c, 2, 61, 55
4, 126334, Note_off_c, 2, 76, 0
4, 126334, Note_off_c, 2, 64, 0
4, 126334, Note_off_c, 2, 61, 0
4, 126336, Note_on_c, 2, 77, 55
4, 126336, Note_on_c, 2, 65, 55
4, 126336, Note_on_c, 2, 62, 55
4, 126430, Note_off_c, 2, 77, 0
4, 126430, Note_off_c, 2, 65, 0
4, 126430, Note_off_c, 2, 62, 0
4, 126432, Note_on_c, 2, 78, 55
4, 126432, Note_on_c, 2, 66, 55
4, 126432, Note_on_c, 2, 60, 55
4, 126526, Note_off_c, 2, 78, 0
4, 126526, Note_off_c, 2, 66, 0
4, 126526, Note_off_c, 2, 60, 0
4, 126528, Note_on_c, 2, 79, 55
4, 126528, Note_on_c, 2, 67, 55
4, 126528, Note_on_c, 2, 59, 55
4, 126622, Note_off_c, 2, 79, 0
4, 126622, Note_off_c, 2, 67, 0
4, 126622, Note_off_c, 2, 59, 0
4, 126624, Note_on_c, 2, 80, 55
4, 126624, Note_on_c, 2, 68, 55
4, 126624, Note_on_c, 2, 58, 55
4, 126718, Note_off_c, 2, 80, 0
4, 126718, Note_off_c, 2, 68, 0
4, 126718, Note_off_c, 2, 58, 0
4, 126720, Note_on_c, 2, 81, 55
4, 126720, Note_on_c, 2, 69, 55
4, 126720, Note_on_c, 2, 57, 55
4, 126814, Note_off_c, 2, 81, 0
4, 126814, Note_off_c, 2, 69, 0
4, 126814, Note_off_c, 2, 57, 0
4, 127008, Note_on_c, 2, 81, 55
4, 127008, Note_on_c, 2, 69, 55
4, 127008, Note_on_c, 2, 57, 55
4, 127102, Note_off_c, 2, 81, 0
4, 127102, Note_off_c, 2, 69, 0
4, 127102, Note_off_c, 2, 57, 0
4, 127104, Note_on_c, 2, 80, 55
4, 127104, Note_on_c, 2, 68, 55
4, 127104, Note_on_c, 2, 59, 55
4, 127198, Note_off_c, 2, 80, 0
4, 127198, Note_off_c, 2, 68, 0
4, 127198, Note_off_c, 2, 59, 0
4, 127200, Note_on_c, 2, 79, 55
4, 127200, Note_on_c, 2, 67, 55
4, 127200, Note_on_c, 2, 61, 55
4, 127294, Note_off_c, 2, 79, 0
4, 127294, Note_off_c, 2, 67, 0
4, 127294, Note_off_c, 2, 61, 0
4, 127296, Note_on_c, 2, 77, 55
4, 127296, Note_on_c, 2, 65, 55
4, 127296, Note_on_c, 2, 62, 55
4, 127390, Note_off_c, 2, 77, 0
4, 127390, Note_off_c, 2, 65, 0
4, 127390, Note_off_c, 2, 62, 0
4, 127392, Note_on_c, 2, 76, 55
4, 127392, Note_on_c, 2, 64, 55
4, 127392, Note_on_c, 2, 61, 55
4, 127486, Note_off_c, 2, 76, 0
4, 127486, Note_off_c, 2, 64, 0
4, 127486, Note_off_c, 2, 61, 0
4, 127488, Note_on_c, 2, 77, 55
4, 127488, Note_on_c, 2, 65, 55
4, 127488, Note_on_c, 2, 62, 55
4, 127582, Note_off_c, 2, 77, 0
4, 127582, Note_off_c, 2, 65, 0
4, 127582, Note_off_c, 2, 62, 0
4, 127584, Note_on_c, 2, 78, 55
4, 127584, Note_on_c, 2, 67, 55
4, 127584, Note_on_c, 2, 60, 55
4, 127678, Note_off_c, 2, 78, 0
4, 127678, Note_off_c, 2, 67, 0
4, 127678, Note_off_c, 2, 60, 0
4, 127680, Note_on_c, 2, 79, 55
4, 127680, Note_on_c, 2, 67, 55
4, 127680, Note_on_c, 2, 59, 55
4, 127774, Note_off_c, 2, 79, 0
4, 127774, Note_off_c, 2, 67, 0
4, 127774, Note_off_c, 2, 59, 0
4, 127776, Note_on_c, 2, 80, 55
4, 127776, Note_on_c, 2, 68, 55
4, 127776, Note_on_c, 2, 58, 55
4, 127870, Note_off_c, 2, 80, 0
4, 127870, Note_off_c, 2, 68, 0
4, 127870, Note_off_c, 2, 58, 0
4, 127872, Note_on_c, 2, 81, 55
4, 127872, Note_on_c, 2, 69, 55
4, 127966, Note_off_c, 2, 81, 0
4, 127966, Note_off_c, 2, 69, 0
4, 128928, Note_on_c, 2, 76, 71
4, 129022, Note_off_c, 2, 76, 0
4, 129024, Note_on_c, 2, 81, 71
4, 129214, Note_off_c, 2, 81, 0
4, 129216, Note_on_c, 2, 81, 71
4, 129310, Note_off_c, 2, 81, 0
4, 129312, Note_on_c, 2, 81, 71
4, 129406, Note_off_c, 2, 81, 0
4, 129408, Note_on_c, 2, 83, 71
4, 129502, Note_off_c, 2, 83, 0
4, 129504, Note_on_c, 2, 84, 71
4, 129598, Note_off_c, 2, 84, 0
4, 129600, Note_on_c, 2, 84, 71
4, 129694, Note_off_c, 2, 84, 0
4, 129696, Note_on_c, 2, 76, 71
4, 129790, Note_off_c, 2, 76, 0
4, 129792, Note_on_c, 2, 76, 71
4, 129886, Note_off_c, 2, 76, 0
4, 129888, Note_on_c, 2, 76, 71
4, 130078, Note_off_c, 2, 76, 0
4, 131232, Note_on_c, 2, 72, 71
4, 131326, Note_off_c, 2, 72, 0
4, 131328, Note_on_c, 2, 81, 71
4, 131518, Note_off_c, 2, 81, 0
4, 131520, Note_on_c, 2, 81, 71
4, 131614, Note_off_c, 2, 81, 0
4, 131616, Note_on_c, 2, 81, 71
4, 131710, Note_off_c, 2, 81, 0
4, 131712, Note_on_c, 2, 82, 71
4, 131806, Note_off_c, 2, 82, 0
4, 131808, Note_on_c, 2, 84, 71
4, 131902, Note_off_c, 2, 84, 0
4, 131904, Note_on_c, 2, 84, 71
4, 131998, Note_off_c, 2, 84, 0
4, 132000, Note_on_c, 2, 77, 71
4, 132094, Note_off_c, 2, 77, 0
4, 132096, Note_on_c, 2, 77, 71
4, 132190, Note_off_c, 2, 77, 0
4, 132192, Note_on_c, 2, 77, 71
4, 132382, Note_off_c, 2, 77, 0
4, 132768, Note_on_c, 2, 79, 71
4, 132862, Note_off_c, 2, 79, 0
4, 132864, Note_on_c, 2, 72, 71
4, 132958, Note_off_c, 2, 72, 0
4, 132960, Note_on_c, 2, 72, 71
4, 133054, Note_off_c, 2, 72, 0
4, 133056, Note_on_c, 2, 72, 71
4, 133056, Note_on_c, 2, 75, 71
4, 133150, Note_off_c, 2, 75, 0
4, 133152, Note_on_c, 2, 72, 71
4, 133246, Note_off_c, 2, 72, 0
4, 133246, Note_off_c, 2, 72, 0
4, 133248, Note_on_c, 2, 72, 71
4, 133342, Note_off_c, 2, 72, 0
4, 133344, Note_on_c, 2, 75, 71
4, 133438, Note_off_c, 2, 75, 0
4, 133440, Note_on_c, 2, 69, 71
4, 133534, Note_off_c, 2, 69, 0
4, 133536, Note_on_c, 2, 69, 71
4, 133630, Note_off_c, 2, 69, 0
4, 133632, Note_on_c, 2, 69, 71
4, 133822, Note_off_c, 2, 69, 0
4, 133920, Note_on_c, 2, 87, 71
4, 134014, Note_off_c, 2, 87, 0
4, 134016, Note_on_c, 2, 81, 71
4, 134110, Note_off_c, 2, 81, 0
4, 134112, Note_on_c, 2, 81, 71
4, 134206, Note_off_c, 2, 81, 0
4, 134208, Note_on_c, 2, 84, 71
4, 134302, Note_off_c, 2, 84, 0
4, 134304, Note_on_c, 2, 77, 71
4, 134398, Note_off_c, 2, 77, 0
4, 134400, Note_on_c, 2, 77, 71
4, 134494, Note_off_c, 2, 77, 0
4, 134496, Note_on_c, 2, 84, 71
4, 134590, Note_off_c, 2, 84, 0
4, 134592, Note_on_c, 2, 77, 71
4, 134686, Note_off_c, 2, 77, 0
4, 134688, Note_on_c, 2, 77, 71
4, 134782, Note_off_c, 2, 77, 0
4, 134784, Note_on_c, 2, 82, 71
4, 134784, Note_on_c, 2, 74, 71
4, 134878, Note_off_c, 2, 82, 0
4, 134878, Note_off_c, 2, 74, 0
4, 134880, Note_on_c, 2, 62, 71
4, 134880, Note_on_c, 2, 58, 71
4, 134880, Note_on_c, 2, 65, 71
4, 134974, Note_off_c, 2, 62, 0
4, 134974, Note_off_c, 2, 58, 0
4, 134974, Note_off_c, 2, 65, 0
4, 134976, Note_on_c, 2, 65, 71
4, 134976, Note_on_c, 2, 62, 71
4, 134976, Note_on_c, 2, 58, 71
4, 135070, Note_off_c, 2, 65, 0
4, 135070, Note_off_c, 2, 62, 0
4, 135070, Note_off_c, 2, 58, 0
4, 135072, Note_on_c, 2, 65, 71
4, 135072, Note_on_c, 2, 62, 71
4, 135072, Note_on_c, 2, 58, 71
4, 135166, Note_off_c, 2, 65, 0
4, 135166, Note_off_c, 2, 62, 0
4, 135166, Note_off_c, 2, 58, 0
4, 135168, Note_on_c, 2, 65, 71
4, 135168, Note_on_c, 2, 62, 71
4, 135168, Note_on_c, 2, 58, 71
4, 135262, Note_off_c, 2, 65, 0
4, 135262, Note_off_c, 2, 62, 0
4, 135262, Note_off_c, 2, 58, 0
4, 135264, Note_on_c, 2, 65, 71
4, 135264, Note_on_c, 2, 62, 71
4, 135264, Note_on_c, 2, 58, 71
4, 135358, Note_off_c, 2, 65, 0
4, 135358, Note_off_c, 2, 62, 0
4, 135360, Note_off_c, 2, 58, 0
4, 135456, Note_on_c, 2, 65, 71
4, 135456, Note_on_c, 2, 62, 71
4, 135456, Note_on_c, 2, 58, 71
4, 135550, Note_off_c, 2, 65, 0
4, 135550, Note_off_c, 2, 62, 0
4, 135550, Note_off_c, 2, 58, 0
4, 135552, Note_on_c, 2, 65, 71
4, 135552, Note_on_c, 2, 62, 71
4, 135552, Note_on_c, 2, 58, 71
4, 135646, Note_off_c, 2, 65, 0
4, 135646, Note_off_c, 2, 62, 0
4, 135646, Note_off_c, 2, 58, 0
4, 135648, Note_on_c, 2, 65, 71
4, 135648, Note_on_c, 2, 62, 71
4, 135648, Note_on_c, 2, 58, 71
4, 135742, Note_off_c, 2, 65, 0
4, 135742, Note_off_c, 2, 62, 0
4, 135742, Note_off_c, 2, 58, 0
4, 135744, Note_on_c, 2, 65, 71
4, 135744, Note_on_c, 2, 62, 71
4, 135744, Note_on_c, 2, 58, 71
4, 135838, Note_off_c, 2, 65, 0
4, 135838, Note_off_c, 2, 62, 0
4, 135838, Note_off_c, 2, 58, 0
4, 135840, Note_on_c, 2, 66, 71
4, 135840, Note_on_c, 2, 62, 71
4, 135840, Note_on_c, 2, 58, 71
4, 135934, Note_off_c, 2, 66, 0
4, 135934, Note_off_c, 2, 62, 0
4, 135934, Note_off_c, 2, 58, 0
4, 136032, Note_on_c, 2, 58, 71
4, 136032, Note_on_c, 2, 63, 71
4, 136032, Note_on_c, 2, 67, 71
4, 136126, Note_off_c, 2, 58, 0
4, 136126, Note_off_c, 2, 63, 0
4, 136126, Note_off_c, 2, 67, 0
4, 136128, Note_on_c, 2, 58, 71
4, 136128, Note_on_c, 2, 63, 71
4, 136128, Note_on_c, 2, 67, 71
4, 136222, Note_off_c, 2, 58, 0
4, 136222, Note_off_c, 2, 63, 0
4, 136222, Note_off_c, 2, 67, 0
4, 136224, Note_on_c, 2, 58, 71
4, 136224, Note_on_c, 2, 63, 71
4, 136224, Note_on_c, 2, 67, 71
4, 136318, Note_off_c, 2, 58, 0
4, 136318, Note_off_c, 2, 63, 0
4, 136318, Note_off_c, 2, 67, 0
4, 136320, Note_on_c, 2, 58, 71
4, 136320, Note_on_c, 2, 63, 71
4, 136320, Note_on_c, 2, 67, 71
4, 136414, Note_off_c, 2, 58, 0
4, 136414, Note_off_c, 2, 63, 0
4, 136414, Note_off_c, 2, 67, 0
4, 136416, Note_on_c, 2, 63, 71
4, 136416, Note_on_c, 2, 67, 71
4, 136416, Note_on_c, 2, 58, 71
4, 136510, Note_off_c, 2, 63, 0
4, 136510, Note_off_c, 2, 67, 0
4, 136510, Note_off_c, 2, 58, 0
4, 136608, Note_on_c, 2, 68, 71
4, 136608, Note_on_c, 2, 65, 71
4, 136608, Note_on_c, 2, 58, 71
4, 136702, Note_off_c, 2, 68, 0
4, 136702, Note_off_c, 2, 65, 0
4, 136702, Note_off_c, 2, 58, 0
4, 136704, Note_on_c, 2, 68, 71
4, 136704, Note_on_c, 2, 65, 71
4, 136704, Note_on_c, 2, 58, 71
4, 136798, Note_off_c, 2, 68, 0
4, 136798, Note_off_c, 2, 65, 0
4, 136798, Note_off_c, 2, 58, 0
4, 136800, Note_on_c, 2, 68, 71
4, 136800, Note_on_c, 2, 65, 71
4, 136800, Note_on_c, 2, 58, 71
4, 136894, Note_off_c, 2, 68, 0
4, 136894, Note_off_c, 2, 65, 0
4, 136894, Note_off_c, 2, 58, 0
4, 136896, Note_on_c, 2, 68, 71
4, 136896, Note_on_c, 2, 65, 71
4, 136896, Note_on_c, 2, 58, 71
4, 136990, Note_off_c, 2, 68, 0
4, 136990, Note_off_c, 2, 65, 0
4, 136990, Note_off_c, 2, 58, 0
4, 136992, Note_on_c, 2, 68, 71
4, 136992, Note_on_c, 2, 65, 71
4, 136992, Note_on_c, 2, 58, 71
4, 137086, Note_off_c, 2, 68, 0
4, 137086, Note_off_c, 2, 65, 0
4, 137086, Note_off_c, 2, 58, 0
4, 137184, Note_on_c, 2, 67, 71
4, 137184, Note_on_c, 2, 63, 71
4, 137184, Note_on_c, 2, 58, 71
4, 137278, Note_off_c, 2, 67, 0
4, 137278, Note_off_c, 2, 63, 0
4, 137278, Note_off_c, 2, 58, 0
4, 137280, Note_on_c, 2, 67, 71
4, 137280, Note_on_c, 2, 63, 71
4, 137280, Note_on_c, 2, 58, 71
4, 137374, Note_off_c, 2, 67, 0
4, 137374, Note_off_c, 2, 63, 0
4, 137374, Note_off_c, 2, 58, 0
4, 137376, Note_on_c, 2, 67, 71
4, 137376, Note_on_c, 2, 63, 71
4, 137376, Note_on_c, 2, 58, 71
4, 137470, Note_off_c, 2, 67, 0
4, 137470, Note_off_c, 2, 63, 0
4, 137470, Note_off_c, 2, 58, 0
4, 137472, Note_on_c, 2, 67, 71
4, 137472, Note_on_c, 2, 63, 71
4, 137472, Note_on_c, 2, 58, 71
4, 137472, Note_on_c, 2, 63, 71
4, 137566, Note_off_c, 2, 67, 0
4, 137566, Note_off_c, 2, 63, 0
4, 137566, Note_off_c, 2, 58, 0
4, 137566, Note_off_c, 2, 63, 0
4, 137568, Note_on_c, 2, 67, 71
4, 137568, Note_on_c, 2, 63, 71
4, 137568, Note_on_c, 2, 58, 71
4, 137662, Note_off_c, 2, 67, 0
4, 137662, Note_off_c, 2, 63, 0
4, 137662, Note_off_c, 2, 58, 0
4, 137760, Note_on_c, 2, 69, 71
4, 137760, Note_on_c, 2, 65, 71
4, 137760, Note_on_c, 2, 63, 71
4, 137760, Note_on_c, 2, 60, 71
4, 137854, Note_off_c, 2, 69, 0
4, 137854, Note_off_c, 2, 65, 0
4, 137854, Note_off_c, 2, 63, 0
4, 137854, Note_off_c, 2, 60, 0
4, 137856, Note_on_c, 2, 69, 71
4, 137856, Note_on_c, 2, 65, 71
4, 137856, Note_on_c, 2, 63, 71
4, 137856, Note_on_c, 2, 60, 71
4, 137950, Note_off_c, 2, 69, 0
4, 137950, Note_off_c, 2, 65, 0
4, 137950, Note_off_c, 2, 63, 0
4, 137950, Note_off_c, 2, 60, 0
4, 137952, Note_on_c, 2, 69, 71
4, 137952, Note_on_c, 2, 65, 71
4, 137952, Note_on_c, 2, 63, 71
4, 137952, Note_on_c, 2, 60, 71
4, 138046, Note_off_c, 2, 69, 0
4, 138046, Note_off_c, 2, 65, 0
4, 138046, Note_off_c, 2, 63, 0
4, 138046, Note_off_c, 2, 60, 0
4, 138048, Note_on_c, 2, 69, 71
4, 138048, Note_on_c, 2, 60, 71
4, 138048, Note_on_c, 2, 65, 71
4, 138048, Note_on_c, 2, 63, 71
4, 138142, Note_off_c, 2, 69, 0
4, 138142, Note_off_c, 2, 60, 0
4, 138142, Note_off_c, 2, 65, 0
4, 138142, Note_off_c, 2, 63, 0
4, 138144, Note_on_c, 2, 65, 71
4, 138144, Note_on_c, 2, 63, 71
4, 138144, Note_on_c, 2, 60, 71
4, 138144, Note_on_c, 2, 69, 71
4, 138238, Note_off_c, 2, 65, 0
4, 138238, Note_off_c, 2, 63, 0
4, 138238, Note_off_c, 2, 60, 0
4, 138238, Note_off_c, 2, 69, 0
4, 138240, Note_on_c, 2, 70, 71
4, 138240, Note_on_c, 2, 65, 71
4, 138240, Note_on_c, 2, 62, 71
4, 138430, Note_off_c, 2, 70, 0
4, 138430, Note_off_c, 2, 65, 0
4, 138430, Note_off_c, 2, 62, 0
4, 138720, Note_on_c, 2, 72, 71
4, 138720, Note_on_c, 2, 67, 71
4, 138814, Note_off_c, 2, 72, 0
4, 138814, Note_off_c, 2, 67, 0
4, 138816, Note_on_c, 2, 70, 77
4, 139102, Note_off_c, 2, 70, 0
4, 139104, Note_on_c, 2, 69, 77
4, 139198, Note_off_c, 2, 69, 0
4, 139296, Note_on_c, 2, 77, 77
4, 139390, Note_off_c, 2, 77, 0
4, 139392, Note_on_c, 2, 82, 77
4, 139392, Note_on_c, 2, 70, 77
4, 139488, Note_on_c, 2, 65, 77
4, 139488, Note_on_c, 2, 62, 77
4, 139488, Note_on_c, 2, 58, 77
4, 139582, Note_off_c, 2, 82, 0
4, 139582, Note_off_c, 2, 70, 0
4, 139582, Note_off_c, 2, 65, 0
4, 139582, Note_off_c, 2, 62, 0
4, 139582, Note_off_c, 2, 58, 0
4, 139584, Note_on_c, 2, 82, 77
4, 139584, Note_on_c, 2, 70, 77
4, 139584, Note_on_c, 2, 62, 77
4, 139584, Note_on_c, 2, 58, 77
4, 139584, Note_on_c, 2, 65, 77
4, 139678, Note_off_c, 2, 82, 0
4, 139678, Note_off_c, 2, 70, 0
4, 139678, Note_off_c, 2, 62, 0
4, 139678, Note_off_c, 2, 58, 0
4, 139678, Note_off_c, 2, 65, 0
4, 139680, Note_on_c, 2, 82, 77
4, 139680, Note_on_c, 2, 70, 77
4, 139680, Note_on_c, 2, 62, 77
4, 139680, Note_on_c, 2, 58, 77
4, 139680, Note_on_c, 2, 65, 77
4, 139774, Note_off_c, 2, 82, 0
4, 139774, Note_off_c, 2, 70, 0
4, 139774, Note_off_c, 2, 62, 0
4, 139774, Note_off_c, 2, 58, 0
4, 139774, Note_off_c, 2, 65, 0
4, 139776, Note_on_c, 2, 84, 77
4, 139776, Note_on_c, 2, 72, 77
4, 139776, Note_on_c, 2, 65, 77
4, 139776, Note_on_c, 2, 62, 77
4, 139776, Note_on_c, 2, 58, 77
4, 139870, Note_off_c, 2, 84, 0
4, 139870, Note_off_c, 2, 72, 0
4, 139870, Note_off_c, 2, 65, 0
4, 139870, Note_off_c, 2, 62, 0
4, 139870, Note_off_c, 2, 58, 0
4, 139872, Note_on_c, 2, 86, 77
4, 139872, Note_on_c, 2, 74, 77
4, 139872, Note_on_c, 2, 65, 77
4, 139872, Note_on_c, 2, 58, 77
4, 139872, Note_on_c, 2, 62, 77
4, 139966, Note_off_c, 2, 86, 0
4, 139966, Note_off_c, 2, 74, 0
4, 139966, Note_off_c, 2, 65, 0
4, 139966, Note_off_c, 2, 58, 0
4, 139966, Note_off_c, 2, 62, 0
4, 139968, Note_on_c, 2, 86, 77
4, 139968, Note_on_c, 2, 74, 77
4, 140062, Note_off_c, 2, 86, 0
4, 140062, Note_off_c, 2, 74, 0
4, 140064, Note_on_c, 2, 77, 77
4, 140064, Note_on_c, 2, 65, 77
4, 140064, Note_on_c, 2, 62, 77
4, 140064, Note_on_c, 2, 58, 77
4, 140158, Note_off_c, 2, 77, 0
4, 140158, Note_off_c, 2, 65, 0
4, 140158, Note_off_c, 2, 62, 0
4, 140158, Note_off_c, 2, 58, 0
4, 140160, Note_on_c, 2, 77, 77
4, 140160, Note_on_c, 2, 74, 77
4, 140160, Note_on_c, 2, 65, 77
4, 140160, Note_on_c, 2, 62, 77
4, 140160, Note_on_c, 2, 58, 77
4, 140206, Note_off_c, 2, 77, 0
4, 140206, Note_off_c, 2, 74, 0
4, 140206, Note_off_c, 2, 65, 0
4, 140206, Note_off_c, 2, 62, 0
4, 140206, Note_off_c, 2, 58, 0
4, 140256, Note_on_c, 2, 77, 77
4, 140256, Note_on_c, 2, 74, 77
4, 140256, Note_on_c, 2, 62, 77
4, 140256, Note_on_c, 2, 58, 77
4, 140256, Note_on_c, 2, 65, 77
4, 140350, Note_off_c, 2, 62, 0
4, 140350, Note_off_c, 2, 58, 0
4, 140350, Note_off_c, 2, 65, 0
4, 140352, Note_on_c, 2, 65, 77
4, 140352, Note_on_c, 2, 58, 77
4, 140352, Note_on_c, 2, 62, 77
4, 140446, Note_off_c, 2, 77, 0
4, 140446, Note_off_c, 2, 74, 0
4, 140446, Note_off_c, 2, 65, 0
4, 140446, Note_off_c, 2, 58, 0
4, 140446, Note_off_c, 2, 62, 0
4, 140448, Note_on_c, 2, 78, 77
4, 140448, Note_on_c, 2, 74, 77
4, 140448, Note_on_c, 2, 66, 77
4, 140448, Note_on_c, 2, 62, 77
4, 140448, Note_on_c, 2, 58, 77
4, 140542, Note_off_c, 2, 78, 0
4, 140542, Note_off_c, 2, 74, 0
4, 140542, Note_off_c, 2, 66, 0
4, 140542, Note_off_c, 2, 62, 0
4, 140542, Note_off_c, 2, 58, 0
4, 140544, Note_on_c, 2, 79, 77
4, 140544, Note_on_c, 2, 75, 77
4, 140640, Note_on_c, 2, 58, 77
4, 140640, Note_on_c, 2, 67, 77
4, 140640, Note_on_c, 2, 63, 77
4, 140734, Note_off_c, 2, 79, 0
4, 140734, Note_off_c, 2, 75, 0
4, 140734, Note_off_c, 2, 58, 0
4, 140734, Note_off_c, 2, 67, 0
4, 140734, Note_off_c, 2, 63, 0
4, 140736, Note_on_c, 2, 79, 77
4, 140736, Note_on_c, 2, 75, 77
4, 140736, Note_on_c, 2, 58, 77
4, 140736, Note_on_c, 2, 67, 77
4, 140736, Note_on_c, 2, 63, 77
4, 140830, Note_off_c, 2, 79, 0
4, 140830, Note_off_c, 2, 75, 0
4, 140830, Note_off_c, 2, 58, 0
4, 140830, Note_off_c, 2, 67, 0
4, 140830, Note_off_c, 2, 63, 0
4, 140832, Note_on_c, 2, 79, 77
4, 140832, Note_on_c, 2, 75, 77
4, 140832, Note_on_c, 2, 58, 77
4, 140832, Note_on_c, 2, 63, 77
4, 140832, Note_on_c, 2, 67, 77
4, 140926, Note_off_c, 2, 79, 0
4, 140926, Note_off_c, 2, 75, 0
4, 140926, Note_off_c, 2, 58, 0
4, 140926, Note_off_c, 2, 63, 0
4, 140926, Note_off_c, 2, 67, 0
4, 140928, Note_on_c, 2, 81, 77
4, 140928, Note_on_c, 2, 69, 77
4, 140928, Note_on_c, 2, 67, 77
4, 140928, Note_on_c, 2, 63, 77
4, 140928, Note_on_c, 2, 58, 77
4, 141022, Note_off_c, 2, 81, 0
4, 141022, Note_off_c, 2, 69, 0
4, 141022, Note_off_c, 2, 67, 0
4, 141022, Note_off_c, 2, 63, 0
4, 141022, Note_off_c, 2, 58, 0
4, 141024, Note_on_c, 2, 82, 77
4, 141024, Note_on_c, 2, 70, 77
4, 141024, Note_on_c, 2, 67, 77
4, 141024, Note_on_c, 2, 63, 77
4, 141024, Note_on_c, 2, 58, 77
4, 141118, Note_off_c, 2, 82, 0
4, 141118, Note_off_c, 2, 70, 0
4, 141118, Note_off_c, 2, 67, 0
4, 141118, Note_off_c, 2, 63, 0
4, 141118, Note_off_c, 2, 58, 0
4, 141120, Note_on_c, 2, 82, 77
4, 141120, Note_on_c, 2, 70, 77
4, 141120, Note_on_c, 2, 68, 77
4, 141120, Note_on_c, 2, 65, 77
4, 141120, Note_on_c, 2, 58, 77
4, 141214, Note_off_c, 2, 82, 0
4, 141214, Note_off_c, 2, 70, 0
4, 141214, Note_off_c, 2, 68, 0
4, 141214, Note_off_c, 2, 65, 0
4, 141214, Note_off_c, 2, 58, 0
4, 141216, Note_on_c, 2, 74, 77
4, 141216, Note_on_c, 2, 68, 77
4, 141216, Note_on_c, 2, 65, 77
4, 141216, Note_on_c, 2, 58, 77
4, 141310, Note_off_c, 2, 74, 0
4, 141310, Note_off_c, 2, 68, 0
4, 141310, Note_off_c, 2, 65, 0
4, 141310, Note_off_c, 2, 58, 0
4, 141312, Note_on_c, 2, 74, 77
4, 141312, Note_on_c, 2, 70, 77
4, 141312, Note_on_c, 2, 68, 77
4, 141312, Note_on_c, 2, 65, 77
4, 141312, Note_on_c, 2, 58, 77
4, 141358, Note_off_c, 2, 74, 0
4, 141358, Note_off_c, 2, 70, 0
4, 141358, Note_off_c, 2, 68, 0
4, 141358, Note_off_c, 2, 65, 0
4, 141358, Note_off_c, 2, 58, 0
4, 141408, Note_on_c, 2, 74, 77
4, 141408, Note_on_c, 2, 70, 77
4, 141408, Note_on_c, 2, 68, 77
4, 141408, Note_on_c, 2, 65, 77
4, 141408, Note_on_c, 2, 58, 77
4, 141502, Note_off_c, 2, 68, 0
4, 141502, Note_off_c, 2, 65, 0
4, 141502, Note_off_c, 2, 58, 0
4, 141504, Note_on_c, 2, 68, 77
4, 141504, Note_on_c, 2, 65, 77
4, 141504, Note_on_c, 2, 58, 77
4, 141598, Note_off_c, 2, 74, 0
4, 141598, Note_off_c, 2, 70, 0
4, 141598, Note_off_c, 2, 68, 0
4, 141598, Note_off_c, 2, 65, 0
4, 141598, Note_off_c, 2, 58, 0
4, 141600, Note_on_c, 2, 74, 77
4, 141600, Note_on_c, 2, 70, 77
4, 141600, Note_on_c, 2, 68, 77
4, 141600, Note_on_c, 2, 65, 77
4, 141600, Note_on_c, 2, 58, 77
4, 141694, Note_off_c, 2, 74, 0
4, 141694, Note_off_c, 2, 70, 0
4, 141694, Note_off_c, 2, 68, 0
4, 141694, Note_off_c, 2, 65, 0
4, 141694, Note_off_c, 2, 58, 0
4, 141696, Note_on_c, 2, 75, 77
4, 141792, Note_on_c, 2, 67, 77
4, 141792, Note_on_c, 2, 63, 77
4, 141792, Note_on_c, 2, 58, 77
4, 141886, Note_off_c, 2, 75, 0
4, 141886, Note_off_c, 2, 67, 0
4, 141886, Note_off_c, 2, 63, 0
4, 141886, Note_off_c, 2, 58, 0
4, 141888, Note_on_c, 2, 75, 77
4, 141888, Note_on_c, 2, 70, 77
4, 141888, Note_on_c, 2, 67, 77
4, 141888, Note_on_c, 2, 63, 77
4, 141888, Note_on_c, 2, 58, 77
4, 141982, Note_off_c, 2, 75, 0
4, 141982, Note_off_c, 2, 70, 0
4, 141982, Note_off_c, 2, 67, 0
4, 141982, Note_off_c, 2, 63, 0
4, 141982, Note_off_c, 2, 58, 0
4, 141984, Note_on_c, 2, 75, 77
4, 141984, Note_on_c, 2, 70, 77
4, 141984, Note_on_c, 2, 67, 77
4, 141984, Note_on_c, 2, 63, 77
4, 141984, Note_on_c, 2, 58, 77
4, 142078, Note_off_c, 2, 75, 0
4, 142078, Note_off_c, 2, 70, 0
4, 142078, Note_off_c, 2, 67, 0
4, 142078, Note_off_c, 2, 63, 0
4, 142078, Note_off_c, 2, 58, 0
4, 142080, Note_on_c, 2, 77, 77
4, 142080, Note_on_c, 2, 70, 77
4, 142080, Note_on_c, 2, 67, 77
4, 142080, Note_on_c, 2, 63, 77
4, 142080, Note_on_c, 2, 58, 77
4, 142174, Note_off_c, 2, 77, 0
4, 142174, Note_off_c, 2, 70, 0
4, 142174, Note_off_c, 2, 67, 0
4, 142174, Note_off_c, 2, 63, 0
4, 142174, Note_off_c, 2, 58, 0
4, 142176, Note_on_c, 2, 79, 77
4, 142176, Note_on_c, 2, 70, 77
4, 142176, Note_on_c, 2, 67, 77
4, 142176, Note_on_c, 2, 63, 77
4, 142176, Note_on_c, 2, 58, 77
4, 142270, Note_off_c, 2, 79, 0
4, 142270, Note_off_c, 2, 70, 0
4, 142270, Note_off_c, 2, 67, 0
4, 142270, Note_off_c, 2, 63, 0
4, 142270, Note_off_c, 2, 58, 0
4, 142272, Note_on_c, 2, 79, 77
4, 142272, Note_on_c, 2, 69, 77
4, 142272, Note_on_c, 2, 63, 77
4, 142272, Note_on_c, 2, 58, 77
4, 142272, Note_on_c, 2, 65, 77
4, 142366, Note_off_c, 2, 79, 0
4, 142366, Note_off_c, 2, 69, 0
4, 142366, Note_off_c, 2, 63, 0
4, 142366, Note_off_c, 2, 58, 0
4, 142366, Note_off_c, 2, 65, 0
4, 142368, Note_on_c, 2, 69, 77
4, 142368, Note_on_c, 2, 72, 77
4, 142368, Note_on_c, 2, 63, 77
4, 142368, Note_on_c, 2, 58, 77
4, 142368, Note_on_c, 2, 65, 77
4, 142462, Note_off_c, 2, 69, 0
4, 142462, Note_off_c, 2, 72, 0
4, 142462, Note_off_c, 2, 63, 0
4, 142462, Note_off_c, 2, 58, 0
4, 142462, Note_off_c, 2, 65, 0
4, 142464, Note_on_c, 2, 69, 77
4, 142464, Note_on_c, 2, 72, 77
4, 142464, Note_on_c, 2, 63, 77
4, 142464, Note_on_c, 2, 58, 77
4, 142464, Note_on_c, 2, 65, 77
4, 142510, Note_off_c, 2, 69, 0
4, 142510, Note_off_c, 2, 72, 0
4, 142510, Note_off_c, 2, 63, 0
4, 142510, Note_off_c, 2, 58, 0
4, 142510, Note_off_c, 2, 65, 0
4, 142560, Note_on_c, 2, 72, 77
4, 142560, Note_on_c, 2, 69, 77
4, 142560, Note_on_c, 2, 63, 77
4, 142560, Note_on_c, 2, 58, 77
4, 142560, Note_on_c, 2, 65, 77
4, 142654, Note_off_c, 2, 63, 0
4, 142654, Note_off_c, 2, 58, 0
4, 142654, Note_off_c, 2, 65, 0
4, 142656, Note_on_c, 2, 63, 77
4, 142656, Note_on_c, 2, 65, 77
4, 142656, Note_on_c, 2, 58, 77
4, 142750, Note_off_c, 2, 72, 0
4, 142750, Note_off_c, 2, 69, 0
4, 142750, Note_off_c, 2, 63, 0
4, 142750, Note_off_c, 2, 65, 0
4, 142750, Note_off_c, 2, 58, 0
4, 142752, Note_on_c, 2, 75, 77
4, 142752, Note_on_c, 2, 72, 77
4, 142752, Note_on_c, 2, 63, 77
4, 142752, Note_on_c, 2, 58, 77
4, 142752, Note_on_c, 2, 65, 77
4, 142846, Note_off_c, 2, 75, 0
4, 142846, Note_off_c, 2, 72, 0
4, 142846, Note_off_c, 2, 63, 0
4, 142846, Note_off_c, 2, 58, 0
4, 142848, Note_off_c, 2, 65, 0
4, 142848, Note_on_c, 2, 74, 77
4, 142848, Note_on_c, 2, 70, 77
4, 142848, Note_on_c, 2, 65, 77
4, 142848, Note_on_c, 2, 62, 77
4, 142848, Note_on_c, 2, 58, 77
4, 142942, Note_off_c, 2, 74, 0
4, 142942, Note_off_c, 2, 70, 0
4, 142944, Note_on_c, 2, 70, 77
4, 142990, Note_off_c, 2, 70, 0
4, 143038, Note_off_c, 2, 65, 0
4, 143038, Note_off_c, 2, 62, 0
4, 143038, Note_off_c, 2, 58, 0
4, 143040, Note_on_c, 2, 77, 77
4, 143040, Note_on_c, 2, 74, 77
4, 143040, Note_on_c, 2, 65, 77
4, 143040, Note_on_c, 2, 62, 77
4, 143086, Note_off_c, 2, 77, 0
4, 143086, Note_off_c, 2, 74, 0
4, 143086, Note_off_c, 2, 65, 0
4, 143086, Note_off_c, 2, 62, 0
4, 143136, Note_on_c, 2, 77, 77
4, 143136, Note_on_c, 2, 74, 77
4, 143152, Note_off_c, 2, 77, 0
4, 143152, Note_off_c, 2, 74, 0
4, 143154, Note_on_c, 2, 75, 77
4, 143154, Note_on_c, 2, 72, 77
4, 143184, Note_off_c, 2, 75, 0
4, 143184, Note_off_c, 2, 72, 0
4, 143232, Note_on_c, 2, 74, 77
4, 143232, Note_on_c, 2, 70, 77
4, 143278, Note_off_c, 2, 74, 0
4, 143278, Note_off_c, 2, 70, 0
4, 143328, Note_on_c, 2, 72, 77
4, 143328, Note_on_c, 2, 69, 77
4, 143374, Note_off_c, 2, 72, 0
4, 143374, Note_off_c, 2, 69, 0
4, 143424, Note_on_c, 2, 70, 77
4, 143424, Note_on_c, 2, 62, 77
4, 143518, Note_off_c, 2, 70, 0
4, 143518, Note_off_c, 2, 62, 0
4, 143520, Note_on_c, 2, 58, 77
4, 143614, Note_off_c, 2, 58, 0
4, 143616, Note_on_c, 2, 60, 77
4, 143710, Note_off_c, 2, 60, 0
4, 143712, Note_on_c, 2, 62, 77
4, 143806, Note_off_c, 2, 62, 0
4, 143808, Note_on_c, 2, 62, 77
4, 143902, Note_off_c, 2, 62, 0
4, 143904, Note_on_c, 2, 63, 77
4, 143998, Note_off_c, 2, 63, 0
4, 144000, Note_on_c, 2, 75, 60
4, 144000, Note_on_c, 2, 72, 60
4, 144000, Note_on_c, 2, 69, 60
4, 144000, Note_on_c, 2, 65, 60
4, 144574, Note_off_c, 2, 75, 0
4, 144574, Note_off_c, 2, 72, 0
4, 144574, Note_off_c, 2, 69, 0
4, 144574, Note_off_c, 2, 65, 0
4, 144576, Note_on_c, 2, 74, 60
4, 144576, Note_on_c, 2, 70, 60
4, 144670, Note_off_c, 2, 74, 0
4, 144670, Note_off_c, 2, 70, 0
4, 145152, Note_on_c, 2, 78, 60
4, 145152, Note_on_c, 2, 72, 60
4, 145152, Note_on_c, 2, 69, 60
4, 145726, Note_off_c, 2, 78, 0
4, 145726, Note_off_c, 2, 72, 0
4, 145726, Note_off_c, 2, 69, 0
4, 145728, Note_on_c, 2, 79, 60
4, 145728, Note_on_c, 2, 70, 60
4, 145728, Note_on_c, 2, 67, 60
4, 145822, Note_off_c, 2, 79, 0
4, 145822, Note_off_c, 2, 70, 0
4, 145822, Note_off_c, 2, 67, 0
4, 146304, Note_on_c, 2, 77, 60
4, 146304, Note_on_c, 2, 81, 60
4, 146304, Note_on_c, 2, 86, 60
4, 146878, Note_off_c, 2, 77, 0
4, 146878, Note_off_c, 2, 81, 0
4, 146878, Note_off_c, 2, 86, 0
4, 146880, Note_on_c, 2, 87, 60
4, 146880, Note_on_c, 2, 79, 60
4, 146880, Note_on_c, 2, 75, 60
4, 146974, Note_off_c, 2, 87, 0
4, 146974, Note_off_c, 2, 79, 0
4, 146974, Note_off_c, 2, 75, 0
4, 146976, Note_on_c, 2, 70, 60
4, 147070, Note_off_c, 2, 70, 0
4, 147072, Note_on_c, 2, 70, 60
4, 147166, Note_off_c, 2, 70, 0
4, 147168, Note_on_c, 2, 72, 60
4, 147264, Note_on_c, 2, 67, 60
4, 147358, Note_off_c, 2, 67, 0
4, 147360, Note_on_c, 2, 67, 60
4, 147360, Note_on_c, 2, 63, 60
4, 147454, Note_off_c, 2, 72, 0
4, 147454, Note_off_c, 2, 67, 0
4, 147454, Note_off_c, 2, 63, 0
4, 147456, Note_on_c, 2, 72, 60
4, 147456, Note_on_c, 2, 69, 60
4, 147550, Note_off_c, 2, 72, 0
4, 147552, Note_on_c, 2, 72, 60
4, 147646, Note_off_c, 2, 72, 0
4, 147648, Note_on_c, 2, 72, 60
4, 147742, Note_off_c, 2, 69, 0
4, 147742, Note_off_c, 2, 72, 0
4, 147744, Note_on_c, 2, 69, 60
4, 147744, Note_on_c, 2, 74, 60
4, 147838, Note_off_c, 2, 69, 0
4, 147840, Note_on_c, 2, 69, 60
4, 147934, Note_off_c, 2, 69, 0
4, 147936, Note_on_c, 2, 69, 60
4, 147936, Note_on_c, 2, 65, 60
4, 148030, Note_off_c, 2, 74, 0
4, 148030, Note_off_c, 2, 69, 0
4, 148030, Note_off_c, 2, 65, 0
4, 148032, Note_on_c, 2, 74, 60
4, 148032, Note_on_c, 2, 70, 60
4, 148126, Note_off_c, 2, 74, 0
4, 148128, Note_on_c, 2, 74, 60
4, 148222, Note_off_c, 2, 74, 0
4, 148224, Note_on_c, 2, 74, 60
4, 148318, Note_off_c, 2, 70, 0
4, 148318, Note_off_c, 2, 74, 0
4, 148320, Note_on_c, 2, 75, 60
4, 148320, Note_on_c, 2, 70, 60
4, 148414, Note_off_c, 2, 70, 0
4, 148416, Note_on_c, 2, 70, 60
4, 148462, Note_off_c, 2, 75, 0
4, 148510, Note_off_c, 2, 70, 0
4, 148512, Note_on_c, 2, 70, 60
4, 148512, Note_on_c, 2, 67, 60
4, 148606, Note_off_c, 2, 70, 0
4, 148606, Note_off_c, 2, 67, 0
4, 148608, Note_on_c, 2, 75, 60
4, 148608, Note_on_c, 2, 72, 60
4, 148702, Note_off_c, 2, 75, 0
4, 148704, Note_on_c, 2, 75, 60
4, 148798, Note_off_c, 2, 75, 0
4, 148800, Note_on_c, 2, 75, 60
4, 148894, Note_off_c, 2, 72, 0
4, 148894, Note_off_c, 2, 75, 0
4, 148896, Note_on_c, 2, 72, 60
4, 148896, Note_on_c, 2, 75, 60
4, 148990, Note_off_c, 2, 72, 0
4, 148992, Note_on_c, 2, 72, 60
4, 149086, Note_off_c, 2, 72, 0
4, 149088, Note_on_c, 2, 72, 60
4, 149088, Note_on_c, 2, 69, 60
4, 149182, Note_off_c, 2, 75, 0
4, 149182, Note_off_c, 2, 72, 0
4, 149182, Note_off_c, 2, 69, 0
4, 149184, Note_on_c, 2, 77, 60
4, 149184, Note_on_c, 2, 74, 60
4, 149184, Note_on_c, 2, 65, 60
4, 149278, Note_off_c, 2, 77, 0
4, 149278, Note_off_c, 2, 74, 0
4, 149278, Note_off_c, 2, 65, 0
4, 149376, Note_on_c, 2, 77, 60
4, 149376, Note_on_c, 2, 70, 60
4, 149470, Note_off_c, 2, 77, 0
4, 149470, Note_off_c, 2, 70, 0
4, 149472, Note_on_c, 2, 79, 60
4, 149472, Note_on_c, 2, 70, 60
4, 149566, Note_off_c, 2, 79, 0
4, 149566, Note_off_c, 2, 70, 0
4, 149664, Note_on_c, 2, 70, 60
4, 149664, Note_on_c, 2, 67, 60
4, 149758, Note_off_c, 2, 70, 0
4, 149758, Note_off_c, 2, 67, 0
4, 149760, Note_on_c, 2, 77, 60
4, 149760, Note_on_c, 2, 72, 60
4, 149760, Note_on_c, 2, 69, 60
4, 149854, Note_off_c, 2, 77, 0
4, 149854, Note_off_c, 2, 72, 0
4, 149854, Note_off_c, 2, 69, 0
4, 149856, Note_on_c, 2, 77, 60
4, 149950, Note_off_c, 2, 77, 0
4, 149952, Note_on_c, 2, 77, 60
4, 149952, Note_on_c, 2, 81, 60
4, 149952, Note_on_c, 2, 75, 60
4, 150046, Note_off_c, 2, 77, 0
4, 150046, Note_off_c, 2, 81, 0
4, 150046, Note_off_c, 2, 75, 0
4, 150048, Note_on_c, 2, 77, 60
4, 150048, Note_on_c, 2, 74, 60
4, 150048, Note_on_c, 2, 82, 60
4, 150142, Note_off_c, 2, 77, 0
4, 150142, Note_off_c, 2, 74, 0
4, 150142, Note_off_c, 2, 82, 0
4, 150144, Note_on_c, 2, 75, 60
4, 150144, Note_on_c, 2, 72, 60
4, 150238, Note_off_c, 2, 75, 0
4, 150238, Note_off_c, 2, 72, 0
4, 150240, Note_on_c, 2, 74, 60
4, 150240, Note_on_c, 2, 70, 60
4, 150334, Note_off_c, 2, 74, 0
4, 150334, Note_off_c, 2, 70, 0
4, 150336, Note_on_c, 2, 72, 60
4, 150336, Note_on_c, 2, 69, 60
4, 150430, Note_off_c, 2, 72, 0
4, 150430, Note_off_c, 2, 69, 0
4, 150432, Note_on_c, 2, 77, 60
4, 150526, Note_off_c, 2, 77, 0
4, 150528, Note_on_c, 2, 77, 60
4, 150528, Note_on_c, 2, 81, 60
4, 150528, Note_on_c, 2, 75, 60
4, 150622, Note_off_c, 2, 77, 0
4, 150622, Note_off_c, 2, 81, 0
4, 150622, Note_off_c, 2, 75, 0
4, 150624, Note_on_c, 2, 82, 60
4, 150624, Note_on_c, 2, 77, 60
4, 150624, Note_on_c, 2, 74, 60
4, 150718, Note_off_c, 2, 82, 0
4, 150718, Note_off_c, 2, 77, 0
4, 150718, Note_off_c, 2, 74, 0
4, 150720, Note_on_c, 2, 84, 60
4, 150720, Note_on_c, 2, 87, 60
4, 150720, Note_on_c, 2, 75, 60
4, 150814, Note_off_c, 2, 84, 0
4, 150814, Note_off_c, 2, 87, 0
4, 150814, Note_off_c, 2, 75, 0
4, 150816, Note_on_c, 2, 86, 60
4, 150816, Note_on_c, 2, 82, 60
4, 150816, Note_on_c, 2, 74, 60
4, 150910, Note_off_c, 2, 86, 0
4, 150910, Note_off_c, 2, 82, 0
4, 150910, Note_off_c, 2, 74, 0
4, 150912, Note_on_c, 2, 81, 60
4, 150912, Note_on_c, 2, 84, 60
4, 150912, Note_on_c, 2, 72, 60
4, 151006, Note_off_c, 2, 81, 0
4, 151006, Note_off_c, 2, 84, 0
4, 151006, Note_off_c, 2, 72, 0
4, 151104, Note_on_c, 2, 65, 60
4, 151150, Note_off_c, 2, 65, 0
4, 151152, Note_on_c, 2, 67, 60
4, 151198, Note_off_c, 2, 67, 0
4, 151200, Note_on_c, 2, 69, 60
4, 151294, Note_off_c, 2, 69, 64
4, 151392, Note_on_c, 2, 69, 60
4, 151438, Note_off_c, 2, 69, 0
4, 151440, Note_on_c, 2, 70, 60
4, 151486, Note_off_c, 2, 70, 0
4, 151488, Note_on_c, 2, 72, 60
4, 151582, Note_off_c, 2, 72, 0
4, 151680, Note_on_c, 2, 69, 60
4, 151726, Note_off_c, 2, 69, 0
4, 151728, Note_on_c, 2, 70, 60
4, 151774, Note_off_c, 2, 70, 0
4, 151776, Note_on_c, 2, 72, 60
4, 151870, Note_off_c, 2, 72, 0
4, 151968, Note_on_c, 2, 74, 60
4, 152014, Note_off_c, 2, 74, 0
4, 152016, Note_on_c, 2, 76, 60
4, 152062, Note_off_c, 2, 76, 0
4, 152064, Note_on_c, 2, 77, 60
4, 152254, Note_off_c, 2, 77, 0
4, 152352, Note_on_c, 2, 64, 60
4, 152446, Note_off_c, 2, 64, 0
4, 152448, Note_on_c, 2, 65, 60
4, 152542, Note_off_c, 2, 65, 0
4, 152544, Note_on_c, 2, 66, 60
4, 152638, Note_off_c, 2, 66, 0
4, 152640, Note_on_c, 2, 65, 60
4, 152734, Note_off_c, 2, 65, 0
4, 152736, Note_on_c, 2, 64, 60
4, 152830, Note_off_c, 2, 64, 0
4, 152832, Note_on_c, 2, 65, 60
4, 152926, Note_off_c, 2, 65, 0
4, 152928, Note_on_c, 2, 65, 60
4, 153022, Note_off_c, 2, 65, 0
4, 153024, Note_on_c, 2, 67, 60
4, 153118, Note_off_c, 2, 67, 0
4, 153120, Note_on_c, 2, 69, 60
4, 153214, Note_off_c, 2, 69, 0
4, 153216, Note_on_c, 2, 70, 60
4, 153310, Note_off_c, 2, 70, 0
4, 153312, Note_on_c, 2, 72, 60
4, 153406, Note_off_c, 2, 72, 0
4, 153408, Note_on_c, 2, 74, 60
4, 153502, Note_off_c, 2, 74, 0
4, 153504, Note_on_c, 2, 64, 60
4, 153598, Note_off_c, 2, 64, 0
4, 153600, Note_on_c, 2, 65, 60
4, 153694, Note_off_c, 2, 65, 0
4, 153696, Note_on_c, 2, 66, 60
4, 153790, Note_off_c, 2, 66, 0
4, 153792, Note_on_c, 2, 65, 60
4, 153886, Note_off_c, 2, 65, 0
4, 153888, Note_on_c, 2, 64, 60
4, 153982, Note_off_c, 2, 64, 0
4, 153984, Note_on_c, 2, 65, 60
4, 154078, Note_off_c, 2, 65, 0
4, 154080, Note_on_c, 2, 65, 60
4, 154080, Note_on_c, 2, 69, 60
4, 154174, Note_off_c, 2, 65, 0
4, 154174, Note_off_c, 2, 69, 0
4, 154176, Note_on_c, 2, 67, 60
4, 154176, Note_on_c, 2, 70, 60
4, 154270, Note_off_c, 2, 67, 0
4, 154270, Note_off_c, 2, 70, 0
4, 154272, Note_on_c, 2, 69, 60
4, 154272, Note_on_c, 2, 72, 60
4, 154366, Note_off_c, 2, 69, 0
4, 154366, Note_off_c, 2, 72, 0
4, 154368, Note_on_c, 2, 74, 60
4, 154368, Note_on_c, 2, 70, 60
4, 154462, Note_off_c, 2, 74, 0
4, 154462, Note_off_c, 2, 70, 0
4, 154464, Note_on_c, 2, 75, 60
4, 154464, Note_on_c, 2, 72, 60
4, 154558, Note_off_c, 2, 75, 0
4, 154558, Note_off_c, 2, 72, 0
4, 154560, Note_on_c, 2, 74, 60
4, 154560, Note_on_c, 2, 77, 60
4, 154654, Note_off_c, 2, 74, 0
4, 154654, Note_off_c, 2, 77, 0
4, 154656, Note_on_c, 2, 64, 60
4, 154750, Note_off_c, 2, 64, 0
4, 154752, Note_on_c, 2, 65, 60
4, 154846, Note_off_c, 2, 65, 0
4, 154848, Note_on_c, 2, 66, 60
4, 154942, Note_off_c, 2, 66, 0
4, 154944, Note_on_c, 2, 65, 66
4, 155038, Note_off_c, 2, 65, 0
4, 155040, Note_on_c, 2, 64, 66
4, 155134, Note_off_c, 2, 64, 0
4, 155136, Note_on_c, 2, 65, 66
4, 155230, Note_off_c, 2, 65, 0
4, 155232, Note_on_c, 2, 75, 66
4, 155232, Note_on_c, 2, 72, 66
4, 155232, Note_on_c, 2, 65, 66
4, 155518, Note_off_c, 2, 75, 0
4, 155518, Note_off_c, 2, 72, 0
4, 155518, Note_off_c, 2, 65, 0
4, 155520, Note_on_c, 2, 74, 66
4, 155520, Note_on_c, 2, 70, 66
4, 155520, Note_on_c, 2, 65, 66
4, 155710, Note_off_c, 2, 74, 0
4, 155710, Note_off_c, 2, 70, 0
4, 155710, Note_off_c, 2, 65, 0
4, 155808, Note_on_c, 2, 81, 66
4, 155902, Note_off_c, 2, 81, 0
4, 155904, Note_on_c, 2, 82, 66
4, 155904, Note_on_c, 2, 68, 66
4, 155904, Note_on_c, 2, 65, 66
4, 155998, Note_off_c, 2, 82, 0
4, 155998, Note_off_c, 2, 68, 0
4, 155998, Note_off_c, 2, 65, 0
4, 156000, Note_on_c, 2, 83, 66
4, 156000, Note_on_c, 2, 68, 66
4, 156000, Note_on_c, 2, 65, 66
4, 156094, Note_off_c, 2, 83, 0
4, 156094, Note_off_c, 2, 68, 0
4, 156094, Note_off_c, 2, 65, 0
4, 156096, Note_on_c, 2, 82, 66
4, 156096, Note_on_c, 2, 63, 66
4, 156096, Note_on_c, 2, 51, 66
4, 156190, Note_off_c, 2, 82, 0
4, 156190, Note_off_c, 2, 63, 0
4, 156190, Note_off_c, 2, 51, 0
4, 156192, Note_on_c, 2, 81, 66
4, 156192, Note_on_c, 2, 67, 66
4, 156192, Note_on_c, 2, 63, 66
4, 156286, Note_off_c, 2, 81, 0
4, 156286, Note_off_c, 2, 67, 0
4, 156286, Note_off_c, 2, 63, 0
4, 156288, Note_on_c, 2, 82, 66
4, 156288, Note_on_c, 2, 67, 66
4, 156288, Note_on_c, 2, 63, 66
4, 156382, Note_off_c, 2, 82, 0
4, 156382, Note_off_c, 2, 67, 0
4, 156382, Note_off_c, 2, 63, 0
4, 156384, Note_on_c, 2, 83, 66
4, 156384, Note_on_c, 2, 64, 66
4, 156384, Note_on_c, 2, 52, 66
4, 156478, Note_off_c, 2, 83, 0
4, 156478, Note_off_c, 2, 64, 0
4, 156478, Note_off_c, 2, 52, 0
4, 156480, Note_on_c, 2, 84, 66
4, 156480, Note_on_c, 2, 70, 66
4, 156480, Note_on_c, 2, 67, 66
4, 156574, Note_off_c, 2, 84, 0
4, 156574, Note_off_c, 2, 70, 0
4, 156574, Note_off_c, 2, 67, 0
4, 156576, Note_on_c, 2, 86, 66
4, 156576, Note_on_c, 2, 70, 66
4, 156576, Note_on_c, 2, 67, 66
4, 156670, Note_off_c, 2, 86, 0
4, 156670, Note_off_c, 2, 70, 0
4, 156670, Note_off_c, 2, 67, 0
4, 156672, Note_on_c, 2, 84, 66
4, 156672, Note_on_c, 2, 65, 66
4, 156672, Note_on_c, 2, 53, 66
4, 156766, Note_off_c, 2, 84, 0
4, 156766, Note_off_c, 2, 65, 0
4, 156766, Note_off_c, 2, 53, 0
4, 156768, Note_on_c, 2, 83, 66
4, 156768, Note_on_c, 2, 65, 66
4, 156768, Note_on_c, 2, 69, 66
4, 156862, Note_off_c, 2, 83, 0
4, 156862, Note_off_c, 2, 65, 0
4, 156862, Note_off_c, 2, 69, 0
4, 156864, Note_on_c, 2, 84, 66
4, 156864, Note_on_c, 2, 65, 66
4, 156864, Note_on_c, 2, 69, 66
4, 156958, Note_off_c, 2, 84, 0
4, 156958, Note_off_c, 2, 65, 0
4, 156958, Note_off_c, 2, 69, 0
4, 156960, Note_on_c, 2, 85, 66
4, 156960, Note_on_c, 2, 66, 66
4, 156960, Note_on_c, 2, 54, 66
4, 157054, Note_off_c, 2, 85, 0
4, 157054, Note_off_c, 2, 66, 0
4, 157054, Note_off_c, 2, 54, 0
4, 157056, Note_on_c, 2, 86, 66
4, 157056, Note_on_c, 2, 69, 66
4, 157056, Note_on_c, 2, 72, 66
4, 157150, Note_off_c, 2, 86, 0
4, 157150, Note_off_c, 2, 69, 0
4, 157150, Note_off_c, 2, 72, 0
4, 157152, Note_on_c, 2, 88, 66
4, 157152, Note_on_c, 2, 69, 66
4, 157152, Note_on_c, 2, 72, 66
4, 157246, Note_off_c, 2, 88, 0
4, 157246, Note_off_c, 2, 69, 0
4, 157246, Note_off_c, 2, 72, 0
4, 157248, Note_on_c, 2, 86, 66
4, 157248, Note_on_c, 2, 67, 66
4, 157248, Note_on_c, 2, 55, 66
4, 157342, Note_off_c, 2, 86, 0
4, 157342, Note_off_c, 2, 67, 0
4, 157342, Note_off_c, 2, 55, 0
4, 157344, Note_on_c, 2, 85, 66
4, 157344, Note_on_c, 2, 70, 66
4, 157344, Note_on_c, 2, 67, 66
4, 157438, Note_off_c, 2, 85, 0
4, 157438, Note_off_c, 2, 70, 0
4, 157438, Note_off_c, 2, 67, 0
4, 157440, Note_on_c, 2, 86, 66
4, 157440, Note_on_c, 2, 70, 66
4, 157440, Note_on_c, 2, 67, 66
4, 157534, Note_off_c, 2, 86, 0
4, 157534, Note_off_c, 2, 70, 0
4, 157534, Note_off_c, 2, 67, 0
4, 157536, Note_on_c, 2, 88, 66
4, 157536, Note_on_c, 2, 69, 66
4, 157536, Note_on_c, 2, 57, 66
4, 157630, Note_off_c, 2, 88, 0
4, 157630, Note_off_c, 2, 69, 0
4, 157630, Note_off_c, 2, 57, 0
4, 157632, Note_on_c, 2, 89, 66
4, 157632, Note_on_c, 2, 75, 66
4, 157632, Note_on_c, 2, 72, 66
4, 157726, Note_off_c, 2, 89, 0
4, 157726, Note_off_c, 2, 75, 0
4, 157726, Note_off_c, 2, 72, 0
4, 157728, Note_on_c, 2, 91, 66
4, 157728, Note_on_c, 2, 75, 66
4, 157728, Note_on_c, 2, 72, 66
4, 157822, Note_off_c, 2, 91, 0
4, 157822, Note_off_c, 2, 75, 0
4, 157822, Note_off_c, 2, 72, 0
4, 157824, Note_on_c, 2, 89, 66
4, 157824, Note_on_c, 2, 58, 66
4, 157918, Note_off_c, 2, 89, 0
4, 157918, Note_off_c, 2, 58, 0
4, 157920, Note_on_c, 2, 88, 66
4, 157920, Note_on_c, 2, 74, 66
4, 157920, Note_on_c, 2, 70, 66
4, 158014, Note_off_c, 2, 88, 0
4, 158014, Note_off_c, 2, 74, 0
4, 158014, Note_off_c, 2, 70, 0
4, 158016, Note_on_c, 2, 89, 66
4, 158016, Note_on_c, 2, 74, 66
4, 158016, Note_on_c, 2, 70, 66
4, 158110, Note_off_c, 2, 89, 0
4, 158110, Note_off_c, 2, 74, 0
4, 158110, Note_off_c, 2, 70, 0
4, 158112, Note_on_c, 2, 79, 66
4, 158112, Note_on_c, 2, 67, 66
4, 158158, Note_off_c, 2, 79, 0
4, 158158, Note_off_c, 2, 67, 0
4, 158208, Note_on_c, 2, 78, 66
4, 158208, Note_on_c, 2, 66, 66
4, 158254, Note_off_c, 2, 78, 0
4, 158254, Note_off_c, 2, 66, 0
4, 158304, Note_on_c, 2, 79, 66
4, 158304, Note_on_c, 2, 67, 66
4, 158350, Note_off_c, 2, 79, 0
4, 158350, Note_off_c, 2, 67, 0
4, 158688, Note_on_c, 2, 77, 66
4, 158688, Note_on_c, 2, 65, 66
4, 158734, Note_off_c, 2, 77, 0
4, 158734, Note_off_c, 2, 65, 0
4, 158784, Note_on_c, 2, 76, 66
4, 158784, Note_on_c, 2, 64, 66
4, 158830, Note_off_c, 2, 76, 0
4, 158830, Note_off_c, 2, 64, 0
4, 158880, Note_on_c, 2, 77, 66
4, 158880, Note_on_c, 2, 65, 66
4, 158926, Note_off_c, 2, 77, 0
4, 158926, Note_off_c, 2, 65, 0
4, 158976, Note_on_c, 2, 70, 66
4, 159070, Note_off_c, 2, 70, 0
4, 159552, Note_on_c, 2, 75, 66
4, 159552, Note_on_c, 2, 72, 66
4, 159552, Note_on_c, 2, 67, 66
4, 159838, Note_off_c, 2, 75, 0
4, 159838, Note_off_c, 2, 72, 0
4, 159838, Note_off_c, 2, 67, 0
4, 159840, Note_on_c, 2, 75, 66
4, 159840, Note_on_c, 2, 72, 66
4, 159840, Note_on_c, 2, 81, 66
4, 160126, Note_off_c, 2, 75, 0
4, 160126, Note_off_c, 2, 72, 0
4, 160126, Note_off_c, 2, 81, 0
4, 160128, Note_on_c, 2, 82, 66
4, 160128, Note_on_c, 2, 74, 66
4, 160128, Note_on_c, 2, 70, 66
4, 160222, Note_off_c, 2, 82, 0
4, 160222, Note_off_c, 2, 74, 0
4, 160222, Note_off_c, 2, 70, 0
4, 160416, Note_on_c, 2, 79, 66
4, 160416, Note_on_c, 2, 72, 66
4, 160510, Note_off_c, 2, 79, 0
4, 160510, Note_off_c, 2, 72, 0
4, 165888, Note_on_c, 2, 77, 66
4, 165888, Note_on_c, 2, 74, 66
4, 165888, Note_on_c, 2, 70, 66
4, 165888, Note_on_c, 2, 65, 66
4, 166462, Note_off_c, 2, 77, 0
4, 166462, Note_off_c, 2, 74, 0
4, 166462, Note_off_c, 2, 70, 0
4, 166462, Note_off_c, 2, 65, 0
4, 166464, Note_on_c, 2, 80, 66
4, 166750, Note_off_c, 2, 80, 0
4, 166752, Note_on_c, 2, 80, 66
4, 166846, Note_off_c, 2, 80, 0
4, 166848, Note_on_c, 2, 82, 66
4, 166942, Note_off_c, 2, 82, 0
4, 166944, Note_on_c, 2, 80, 66
4, 167038, Note_off_c, 2, 80, 0
4, 167040, Note_on_c, 2, 77, 66
4, 167134, Note_off_c, 2, 77, 0
4, 167136, Note_on_c, 2, 79, 66
4, 167230, Note_off_c, 2, 79, 0
4, 167232, Note_on_c, 2, 79, 66
4, 167278, Note_off_c, 2, 79, 0
4, 167328, Note_on_c, 2, 79, 66
4, 167422, Note_off_c, 2, 79, 0
4, 167424, Note_on_c, 2, 87, 66
4, 167518, Note_off_c, 2, 87, 0
4, 167520, Note_on_c, 2, 87, 66
4, 167614, Note_off_c, 2, 87, 0
4, 167616, Note_on_c, 2, 87, 66
4, 167902, Note_off_c, 2, 87, 0
4, 167904, Note_on_c, 2, 87, 66
4, 167998, Note_off_c, 2, 87, 0
4, 168000, Note_on_c, 2, 86, 66
4, 168046, Note_off_c, 2, 86, 0
4, 168048, Note_on_c, 2, 84, 66
4, 168094, Note_off_c, 2, 84, 0
4, 168096, Note_on_c, 2, 82, 66
4, 168142, Note_off_c, 2, 82, 0
4, 168144, Note_on_c, 2, 81, 66
4, 168190, Note_off_c, 2, 81, 0
4, 168192, Note_on_c, 2, 89, 66
4, 168382, Note_off_c, 2, 89, 0
4, 168384, Note_on_c, 2, 89, 66
4, 168430, Note_off_c, 2, 89, 0
4, 168432, Note_on_c, 2, 86, 66
4, 168478, Note_off_c, 2, 86, 0
4, 168480, Note_on_c, 2, 82, 66
4, 168574, Note_off_c, 2, 82, 0
4, 168768, Note_on_c, 2, 80, 66
4, 169054, Note_off_c, 2, 80, 0
4, 169056, Note_on_c, 2, 80, 66
4, 169150, Note_off_c, 2, 80, 0
4, 169152, Note_on_c, 2, 82, 66
4, 169246, Note_off_c, 2, 82, 0
4, 169248, Note_on_c, 2, 80, 66
4, 169342, Note_off_c, 2, 80, 0
4, 169344, Note_on_c, 2, 79, 66
4, 169438, Note_off_c, 2, 79, 0
4, 169440, Note_on_c, 2, 91, 66
4, 169440, Note_on_c, 2, 87, 66
4, 169440, Note_on_c, 2, 82, 66
4, 169534, Note_off_c, 2, 91, 0
4, 169534, Note_off_c, 2, 87, 0
4, 169534, Note_off_c, 2, 82, 0
4, 169536, Note_on_c, 2, 91, 66
4, 169536, Note_on_c, 2, 82, 66
4, 169536, Note_on_c, 2, 87, 66
4, 169630, Note_off_c, 2, 91, 0
4, 169630, Note_off_c, 2, 82, 0
4, 169630, Note_off_c, 2, 87, 0
4, 169728, Note_on_c, 2, 79, 66
4, 169728, Note_on_c, 2, 82, 66
4, 169728, Note_on_c, 2, 87, 66
4, 169822, Note_off_c, 2, 79, 0
4, 169822, Note_off_c, 2, 82, 0
4, 169822, Note_off_c, 2, 87, 0
4, 169824, Note_on_c, 2, 79, 66
4, 169824, Note_on_c, 2, 82, 66
4, 169824, Note_on_c, 2, 87, 66
4, 169918, Note_off_c, 2, 79, 0
4, 169918, Note_off_c, 2, 82, 0
4, 169918, Note_off_c, 2, 87, 0
4, 170016, Note_on_c, 2, 75, 66
4, 170016, Note_on_c, 2, 81, 66
4, 170016, Note_on_c, 2, 84, 66
4, 170110, Note_off_c, 2, 75, 0
4, 170110, Note_off_c, 2, 81, 0
4, 170110, Note_off_c, 2, 84, 0
4, 170112, Note_on_c, 2, 75, 66
4, 170112, Note_on_c, 2, 81, 66
4, 170112, Note_on_c, 2, 84, 66
4, 170206, Note_off_c, 2, 75, 0
4, 170206, Note_off_c, 2, 81, 0
4, 170206, Note_off_c, 2, 84, 0
4, 170304, Note_on_c, 2, 72, 66
4, 170304, Note_on_c, 2, 75, 66
4, 170304, Note_on_c, 2, 81, 66
4, 170398, Note_off_c, 2, 72, 0
4, 170398, Note_off_c, 2, 75, 0
4, 170398, Note_off_c, 2, 81, 0
4, 170400, Note_on_c, 2, 72, 66
4, 170400, Note_on_c, 2, 75, 66
4, 170400, Note_on_c, 2, 81, 66
4, 170494, Note_off_c, 2, 72, 0
4, 170494, Note_off_c, 2, 75, 0
4, 170494, Note_off_c, 2, 81, 0
4, 170496, Note_on_c, 2, 70, 66
4, 170496, Note_on_c, 2, 74, 66
4, 170496, Note_on_c, 2, 82, 66
4, 170686, Note_off_c, 2, 70, 0
4, 170686, Note_off_c, 2, 74, 0
4, 170686, Note_off_c, 2, 82, 0
4, 170784, Note_on_c, 2, 62, 66
4, 171070, Note_off_c, 2, 62, 0
4, 171072, Note_on_c, 2, 63, 66
4, 171262, Note_off_c, 2, 63, 0
4, 171264, Note_on_c, 2, 64, 66
4, 171358, Note_off_c, 2, 64, 0
4, 171360, Note_on_c, 2, 65, 66
4, 171550, Note_off_c, 2, 65, 0
4, 171552, Note_on_c, 2, 66, 66
4, 171646, Note_off_c, 2, 66, 0
4, 171648, Note_on_c, 2, 67, 66
4, 171934, Note_off_c, 2, 67, 0
4, 171936, Note_on_c, 2, 68, 66
4, 172222, Note_off_c, 2, 68, 0
4, 172224, Note_on_c, 2, 67, 66
4, 172510, Note_off_c, 2, 67, 0
4, 172512, Note_on_c, 2, 66, 66
4, 172798, Note_off_c, 2, 66, 0
4, 172800, Note_on_c, 2, 65, 66
4, 172894, Note_off_c, 2, 65, 0
4, 172896, Note_on_c, 2, 65, 66
4, 172990, Note_off_c, 2, 65, 0
4, 172992, Note_on_c, 2, 65, 66
4, 173086, Note_off_c, 2, 65, 0
4, 173088, Note_on_c, 2, 63, 66
4, 173182, Note_off_c, 2, 63, 0
4, 173184, Note_on_c, 2, 63, 66
4, 173278, Note_off_c, 2, 63, 0
4, 173280, Note_on_c, 2, 63, 66
4, 173374, Note_off_c, 2, 63, 0
4, 173376, Note_on_c, 2, 65, 66
4, 173470, Note_off_c, 2, 65, 0
4, 173472, Note_on_c, 2, 65, 66
4, 173566, Note_off_c, 2, 65, 0
4, 173568, Note_on_c, 2, 65, 66
4, 173662, Note_off_c, 2, 65, 0
4, 173664, Note_on_c, 2, 65, 66
4, 173758, Note_off_c, 2, 65, 0
4, 173760, Note_on_c, 2, 65, 66
4, 173854, Note_off_c, 2, 65, 0
4, 173856, Note_on_c, 2, 65, 66
4, 173950, Note_off_c, 2, 65, 0
4, 173952, Note_on_c, 2, 82, 77
4, 173952, Note_on_c, 2, 86, 77
4, 173998, Note_off_c, 2, 82, 0
4, 173998, Note_off_c, 2, 86, 0
4, 174000, Note_on_c, 2, 74, 77
4, 174046, Note_off_c, 2, 74, 0
4, 174048, Note_on_c, 2, 86, 77
4, 174048, Note_on_c, 2, 82, 77
4, 174094, Note_off_c, 2, 86, 0
4, 174094, Note_off_c, 2, 82, 0
4, 174096, Note_on_c, 2, 74, 77
4, 174142, Note_off_c, 2, 74, 0
4, 174144, Note_on_c, 2, 86, 77
4, 174144, Note_on_c, 2, 82, 77
4, 174190, Note_off_c, 2, 86, 0
4, 174190, Note_off_c, 2, 82, 0
4, 174192, Note_on_c, 2, 74, 77
4, 174238, Note_off_c, 2, 74, 0
4, 174240, Note_on_c, 2, 86, 77
4, 174240, Note_on_c, 2, 82, 77
4, 174286, Note_off_c, 2, 86, 0
4, 174286, Note_off_c, 2, 82, 0
4, 174288, Note_on_c, 2, 74, 77
4, 174334, Note_off_c, 2, 74, 0
4, 174336, Note_on_c, 2, 86, 77
4, 174336, Note_on_c, 2, 82, 77
4, 174382, Note_off_c, 2, 86, 0
4, 174382, Note_off_c, 2, 82, 0
4, 174384, Note_on_c, 2, 74, 77
4, 174430, Note_off_c, 2, 74, 0
4, 174432, Note_on_c, 2, 86, 77
4, 174432, Note_on_c, 2, 82, 77
4, 174478, Note_off_c, 2, 86, 0
4, 174478, Note_off_c, 2, 82, 0
4, 174480, Note_on_c, 2, 74, 77
4, 174526, Note_off_c, 2, 74, 0
4, 174528, Note_on_c, 2, 86, 77
4, 174528, Note_on_c, 2, 82, 77
4, 174574, Note_off_c, 2, 86, 0
4, 174574, Note_off_c, 2, 82, 0
4, 174576, Note_on_c, 2, 74, 77
4, 174622, Note_off_c, 2, 74, 0
4, 174624, Note_on_c, 2, 86, 77
4, 174624, Note_on_c, 2, 82, 77
4, 174670, Note_off_c, 2, 86, 0
4, 174670, Note_off_c, 2, 82, 0
4, 174672, Note_on_c, 2, 74, 77
4, 174718, Note_off_c, 2, 74, 0
4, 174720, Note_on_c, 2, 86, 77
4, 174720, Note_on_c, 2, 82, 77
4, 174766, Note_off_c, 2, 86, 0
4, 174766, Note_off_c, 2, 82, 0
4, 174768, Note_on_c, 2, 74, 77
4, 174814, Note_off_c, 2, 74, 0
4, 174816, Note_on_c, 2, 86, 77
4, 174816, Note_on_c, 2, 82, 77
4, 174862, Note_off_c, 2, 86, 0
4, 174862, Note_off_c, 2, 82, 0
4, 174864, Note_on_c, 2, 74, 77
4, 174910, Note_off_c, 2, 74, 0
4, 174912, Note_on_c, 2, 86, 77
4, 174912, Note_on_c, 2, 82, 77
4, 174958, Note_off_c, 2, 86, 0
4, 174958, Note_off_c, 2, 82, 0
4, 174960, Note_on_c, 2, 74, 77
4, 175006, Note_off_c, 2, 74, 0
4, 175008, Note_on_c, 2, 86, 77
4, 175008, Note_on_c, 2, 82, 77
4, 175054, Note_off_c, 2, 86, 0
4, 175054, Note_off_c, 2, 82, 0
4, 175056, Note_on_c, 2, 74, 77
4, 175102, Note_off_c, 2, 74, 0
4, 175104, Note_on_c, 2, 86, 77
4, 175104, Note_on_c, 2, 82, 77
4, 175150, Note_off_c, 2, 86, 0
4, 175150, Note_off_c, 2, 82, 0
4, 175152, Note_on_c, 2, 74, 77
4, 175198, Note_off_c, 2, 74, 0
4, 175200, Note_on_c, 2, 86, 77
4, 175200, Note_on_c, 2, 82, 77
4, 175246, Note_off_c, 2, 86, 0
4, 175246, Note_off_c, 2, 82, 0
4, 175248, Note_on_c, 2, 74, 77
4, 175294, Note_off_c, 2, 74, 0
4, 175296, Note_on_c, 2, 86, 77
4, 175296, Note_on_c, 2, 82, 77
4, 175342, Note_off_c, 2, 86, 0
4, 175342, Note_off_c, 2, 82, 0
4, 175344, Note_on_c, 2, 74, 77
4, 175390, Note_off_c, 2, 74, 0
4, 175392, Note_on_c, 2, 86, 77
4, 175392, Note_on_c, 2, 82, 77
4, 175438, Note_off_c, 2, 86, 0
4, 175438, Note_off_c, 2, 82, 0
4, 175440, Note_on_c, 2, 74, 77
4, 175486, Note_off_c, 2, 74, 0
4, 175488, Note_on_c, 2, 86, 77
4, 175488, Note_on_c, 2, 82, 77
4, 175534, Note_off_c, 2, 86, 0
4, 175534, Note_off_c, 2, 82, 0
4, 175536, Note_on_c, 2, 74, 77
4, 175582, Note_off_c, 2, 74, 0
4, 175584, Note_on_c, 2, 86, 77
4, 175584, Note_on_c, 2, 82, 77
4, 175630, Note_off_c, 2, 86, 0
4, 175630, Note_off_c, 2, 82, 0
4, 175632, Note_on_c, 2, 74, 77
4, 175678, Note_off_c, 2, 74, 0
4, 175680, Note_on_c, 2, 87, 77
4, 175680, Note_on_c, 2, 82, 77
4, 175726, Note_off_c, 2, 87, 0
4, 175726, Note_off_c, 2, 82, 0
4, 175728, Note_on_c, 2, 75, 77
4, 175774, Note_off_c, 2, 75, 0
4, 175776, Note_on_c, 2, 87, 77
4, 175776, Note_on_c, 2, 82, 77
4, 175822, Note_off_c, 2, 87, 0
4, 175822, Note_off_c, 2, 82, 0
4, 175824, Note_on_c, 2, 75, 77
4, 175870, Note_off_c, 2, 75, 0
4, 175872, Note_on_c, 2, 87, 77
4, 175872, Note_on_c, 2, 82, 77
4, 175918, Note_off_c, 2, 87, 0
4, 175918, Note_off_c, 2, 82, 0
4, 175920, Note_on_c, 2, 75, 77
4, 175966, Note_off_c, 2, 75, 0
4, 175968, Note_on_c, 2, 87, 77
4, 175968, Note_on_c, 2, 82, 77
4, 176014, Note_off_c, 2, 87, 0
4, 176014, Note_off_c, 2, 82, 0
4, 176016, Note_on_c, 2, 75, 77
4, 176062, Note_off_c, 2, 75, 0
4, 176064, Note_on_c, 2, 87, 77
4, 176064, Note_on_c, 2, 82, 77
4, 176110, Note_off_c, 2, 87, 0
4, 176110, Note_off_c, 2, 82, 0
4, 176112, Note_on_c, 2, 75, 77
4, 176158, Note_off_c, 2, 75, 0
4, 176160, Note_on_c, 2, 87, 77
4, 176160, Note_on_c, 2, 82, 77
4, 176206, Note_off_c, 2, 87, 0
4, 176206, Note_off_c, 2, 82, 0
4, 176208, Note_on_c, 2, 75, 77
4, 176254, Note_off_c, 2, 75, 0
4, 176256, Note_on_c, 2, 87, 77
4, 176256, Note_on_c, 2, 81, 77
4, 176302, Note_off_c, 2, 87, 0
4, 176302, Note_off_c, 2, 81, 0
4, 176304, Note_on_c, 2, 75, 77
4, 176350, Note_off_c, 2, 75, 0
4, 176352, Note_on_c, 2, 87, 77
4, 176352, Note_on_c, 2, 81, 77
4, 176398, Note_off_c, 2, 87, 0
4, 176398, Note_off_c, 2, 81, 0
4, 176400, Note_on_c, 2, 75, 77
4, 176446, Note_off_c, 2, 75, 0
4, 176448, Note_on_c, 2, 87, 77
4, 176448, Note_on_c, 2, 81, 77
4, 176494, Note_off_c, 2, 87, 0
4, 176494, Note_off_c, 2, 81, 0
4, 176496, Note_on_c, 2, 75, 77
4, 176542, Note_off_c, 2, 75, 0
4, 176544, Note_on_c, 2, 82, 77
4, 176544, Note_on_c, 2, 86, 77
4, 176590, Note_off_c, 2, 82, 0
4, 176590, Note_off_c, 2, 86, 0
4, 176592, Note_on_c, 2, 74, 77
4, 176638, Note_off_c, 2, 74, 0
4, 176640, Note_on_c, 2, 86, 77
4, 176640, Note_on_c, 2, 82, 77
4, 176686, Note_off_c, 2, 86, 0
4, 176686, Note_off_c, 2, 82, 0
4, 176688, Note_on_c, 2, 74, 77
4, 176734, Note_off_c, 2, 74, 0
4, 176736, Note_on_c, 2, 86, 77
4, 176736, Note_on_c, 2, 82, 77
4, 176782, Note_off_c, 2, 86, 0
4, 176782, Note_off_c, 2, 82, 0
4, 176784, Note_on_c, 2, 74, 77
4, 176830, Note_off_c, 2, 74, 0
4, 176832, Note_on_c, 2, 84, 77
4, 176832, Note_on_c, 2, 82, 77
4, 176832, Note_on_c, 2, 79, 77
4, 176878, Note_off_c, 2, 84, 0
4, 176878, Note_off_c, 2, 82, 0
4, 176878, Note_off_c, 2, 79, 0
4, 176880, Note_on_c, 2, 72, 77
4, 176926, Note_off_c, 2, 72, 0
4, 176928, Note_on_c, 2, 84, 77
4, 176928, Note_on_c, 2, 82, 77
4, 176928, Note_on_c, 2, 79, 77
4, 176974, Note_off_c, 2, 84, 0
4, 176974, Note_off_c, 2, 82, 0
4, 176974, Note_off_c, 2, 79, 0
4, 176976, Note_on_c, 2, 72, 77
4, 177022, Note_off_c, 2, 72, 0
4, 177024, Note_on_c, 2, 84, 77
4, 177024, Note_on_c, 2, 82, 77
4, 177024, Note_on_c, 2, 79, 77
4, 177070, Note_off_c, 2, 84, 0
4, 177070, Note_off_c, 2, 82, 0
4, 177070, Note_off_c, 2, 79, 0
4, 177072, Note_on_c, 2, 72, 77
4, 177118, Note_off_c, 2, 72, 0
4, 177120, Note_on_c, 2, 85, 77
4, 177120, Note_on_c, 2, 82, 77
4, 177120, Note_on_c, 2, 79, 77
4, 177166, Note_off_c, 2, 85, 0
4, 177166, Note_off_c, 2, 82, 0
4, 177166, Note_off_c, 2, 79, 0
4, 177168, Note_on_c, 2, 73, 77
4, 177214, Note_off_c, 2, 73, 0
4, 177216, Note_on_c, 2, 82, 77
4, 177216, Note_on_c, 2, 79, 77
4, 177216, Note_on_c, 2, 85, 77
4, 177262, Note_off_c, 2, 82, 0
4, 177262, Note_off_c, 2, 79, 0
4, 177262, Note_off_c, 2, 85, 0
4, 177264, Note_on_c, 2, 73, 77
4, 177310, Note_off_c, 2, 73, 0
4, 177312, Note_on_c, 2, 85, 77
4, 177312, Note_on_c, 2, 82, 77
4, 177312, Note_on_c, 2, 79, 77
4, 177358, Note_off_c, 2, 85, 0
4, 177358, Note_off_c, 2, 82, 0
4, 177358, Note_off_c, 2, 79, 0
4, 177360, Note_on_c, 2, 73, 77
4, 177406, Note_off_c, 2, 73, 0
4, 177408, Note_on_c, 2, 86, 77
4, 177408, Note_on_c, 2, 82, 77
4, 177408, Note_on_c, 2, 77, 77
4, 177408, Note_on_c, 2, 74, 77
4, 177598, Note_off_c, 2, 86, 0
4, 177598, Note_off_c, 2, 82, 0
4, 177598, Note_off_c, 2, 77, 0
4, 177598, Note_off_c, 2, 74, 0
4, 199296, Note_on_c, 2, 82, 66
4, 199296, Note_on_c, 2, 70, 66
4, 199392, Note_on_c, 2, 65, 60
4, 199392, Note_on_c, 2, 62, 60
4, 199392, Note_on_c, 2, 58, 60
4, 199486, Note_off_c, 2, 65, 0
4, 199486, Note_off_c, 2, 62, 0
4, 199486, Note_off_c, 2, 58, 0
4, 199488, Note_on_c, 2, 65, 60
4, 199488, Note_on_c, 2, 62, 60
4, 199488, Note_on_c, 2, 58, 60
4, 199582, Note_off_c, 2, 65, 0
4, 199582, Note_off_c, 2, 62, 0
4, 199582, Note_off_c, 2, 58, 0
4, 199584, Note_on_c, 2, 65, 60
4, 199584, Note_on_c, 2, 62, 60
4, 199584, Note_on_c, 2, 58, 60
4, 199678, Note_off_c, 2, 65, 0
4, 199678, Note_off_c, 2, 62, 0
4, 199678, Note_off_c, 2, 58, 0
4, 199680, Note_on_c, 2, 65, 60
4, 199680, Note_on_c, 2, 62, 60
4, 199680, Note_on_c, 2, 58, 60
4, 199774, Note_off_c, 2, 65, 0
4, 199774, Note_off_c, 2, 62, 0
4, 199774, Note_off_c, 2, 58, 0
4, 199776, Note_on_c, 2, 65, 60
4, 199776, Note_on_c, 2, 62, 60
4, 199776, Note_on_c, 2, 58, 60
4, 199870, Note_off_c, 2, 65, 0
4, 199870, Note_off_c, 2, 62, 0
4, 199870, Note_off_c, 2, 58, 0
4, 199968, Note_on_c, 2, 65, 60
4, 199968, Note_on_c, 2, 62, 60
4, 199968, Note_on_c, 2, 58, 60
4, 200062, Note_off_c, 2, 65, 0
4, 200062, Note_off_c, 2, 62, 0
4, 200062, Note_off_c, 2, 58, 0
4, 200064, Note_on_c, 2, 65, 60
4, 200064, Note_on_c, 2, 62, 60
4, 200064, Note_on_c, 2, 58, 60
4, 200158, Note_off_c, 2, 65, 0
4, 200158, Note_off_c, 2, 62, 0
4, 200158, Note_off_c, 2, 58, 0
4, 200160, Note_on_c, 2, 65, 60
4, 200160, Note_on_c, 2, 62, 60
4, 200160, Note_on_c, 2, 58, 60
4, 200254, Note_off_c, 2, 65, 0
4, 200254, Note_off_c, 2, 62, 0
4, 200254, Note_off_c, 2, 58, 0
4, 200256, Note_on_c, 2, 65, 60
4, 200256, Note_on_c, 2, 62, 60
4, 200256, Note_on_c, 2, 58, 60
4, 200350, Note_off_c, 2, 65, 0
4, 200350, Note_off_c, 2, 62, 0
4, 200350, Note_off_c, 2, 58, 0
4, 200352, Note_on_c, 2, 66, 60
4, 200352, Note_on_c, 2, 62, 60
4, 200352, Note_on_c, 2, 58, 60
4, 200446, Note_off_c, 2, 66, 0
4, 200446, Note_off_c, 2, 62, 0
4, 200446, Note_off_c, 2, 58, 0
4, 200544, Note_on_c, 2, 63, 60
4, 200544, Note_on_c, 2, 67, 60
4, 200544, Note_on_c, 2, 58, 60
4, 200638, Note_off_c, 2, 63, 0
4, 200638, Note_off_c, 2, 67, 0
4, 200638, Note_off_c, 2, 58, 0
4, 200640, Note_on_c, 2, 67, 60
4, 200640, Note_on_c, 2, 63, 60
4, 200640, Note_on_c, 2, 58, 60
4, 200734, Note_off_c, 2, 67, 0
4, 200734, Note_off_c, 2, 63, 0
4, 200734, Note_off_c, 2, 58, 0
4, 200736, Note_on_c, 2, 67, 60
4, 200736, Note_on_c, 2, 63, 60
4, 200736, Note_on_c, 2, 58, 60
4, 200830, Note_off_c, 2, 67, 0
4, 200830, Note_off_c, 2, 63, 0
4, 200830, Note_off_c, 2, 58, 0
4, 200832, Note_on_c, 2, 67, 60
4, 200832, Note_on_c, 2, 63, 60
4, 200832, Note_on_c, 2, 58, 60
4, 200926, Note_off_c, 2, 67, 0
4, 200926, Note_off_c, 2, 63, 0
4, 200926, Note_off_c, 2, 58, 0
4, 200928, Note_on_c, 2, 67, 60
4, 200928, Note_on_c, 2, 63, 60
4, 200928, Note_on_c, 2, 58, 60
4, 201022, Note_off_c, 2, 67, 0
4, 201022, Note_off_c, 2, 63, 0
4, 201022, Note_off_c, 2, 58, 0
4, 201120, Note_on_c, 2, 65, 60
4, 201120, Note_on_c, 2, 68, 60
4, 201120, Note_on_c, 2, 58, 60
4, 201214, Note_off_c, 2, 65, 0
4, 201214, Note_off_c, 2, 68, 0
4, 201214, Note_off_c, 2, 58, 0
4, 201216, Note_on_c, 2, 68, 60
4, 201216, Note_on_c, 2, 65, 60
4, 201216, Note_on_c, 2, 58, 60
4, 201310, Note_off_c, 2, 68, 0
4, 201310, Note_off_c, 2, 65, 0
4, 201310, Note_off_c, 2, 58, 0
4, 201312, Note_on_c, 2, 68, 60
4, 201312, Note_on_c, 2, 65, 60
4, 201312, Note_on_c, 2, 58, 60
4, 201406, Note_off_c, 2, 68, 0
4, 201406, Note_off_c, 2, 65, 0
4, 201406, Note_off_c, 2, 58, 0
4, 201408, Note_on_c, 2, 68, 60
4, 201408, Note_on_c, 2, 65, 60
4, 201408, Note_on_c, 2, 58, 60
4, 201502, Note_off_c, 2, 68, 0
4, 201502, Note_off_c, 2, 65, 0
4, 201502, Note_off_c, 2, 58, 0
4, 201504, Note_on_c, 2, 68, 60
4, 201504, Note_on_c, 2, 65, 60
4, 201504, Note_on_c, 2, 58, 60
4, 201598, Note_off_c, 2, 68, 0
4, 201598, Note_off_c, 2, 65, 0
4, 201598, Note_off_c, 2, 58, 0
4, 201696, Note_on_c, 2, 63, 60
4, 201696, Note_on_c, 2, 67, 60
4, 201696, Note_on_c, 2, 58, 60
4, 201790, Note_off_c, 2, 63, 0
4, 201790, Note_off_c, 2, 67, 0
4, 201790, Note_off_c, 2, 58, 0
4, 201792, Note_on_c, 2, 67, 60
4, 201792, Note_on_c, 2, 63, 60
4, 201792, Note_on_c, 2, 58, 60
4, 201886, Note_off_c, 2, 67, 0
4, 201886, Note_off_c, 2, 63, 0
4, 201886, Note_off_c, 2, 58, 0
4, 201888, Note_on_c, 2, 67, 60
4, 201888, Note_on_c, 2, 63, 60
4, 201888, Note_on_c, 2, 58, 60
4, 201982, Note_off_c, 2, 67, 0
4, 201982, Note_off_c, 2, 63, 0
4, 201982, Note_off_c, 2, 58, 0
4, 201984, Note_on_c, 2, 67, 60
4, 201984, Note_on_c, 2, 63, 60
4, 201984, Note_on_c, 2, 58, 60
4, 202078, Note_off_c, 2, 67, 0
4, 202078, Note_off_c, 2, 63, 0
4, 202078, Note_off_c, 2, 58, 0
4, 202080, Note_on_c, 2, 67, 60
4, 202080, Note_on_c, 2, 63, 60
4, 202080, Note_on_c, 2, 58, 60
4, 202174, Note_off_c, 2, 67, 0
4, 202174, Note_off_c, 2, 63, 0
4, 202174, Note_off_c, 2, 58, 0
4, 202272, Note_on_c, 2, 69, 60
4, 202272, Note_on_c, 2, 63, 60
4, 202272, Note_on_c, 2, 60, 60
4, 202272, Note_on_c, 2, 65, 60
4, 202366, Note_off_c, 2, 69, 0
4, 202366, Note_off_c, 2, 63, 0
4, 202366, Note_off_c, 2, 60, 0
4, 202366, Note_off_c, 2, 65, 0
4, 202368, Note_on_c, 2, 69, 60
4, 202368, Note_on_c, 2, 65, 60
4, 202368, Note_on_c, 2, 63, 60
4, 202368, Note_on_c, 2, 60, 60
4, 202462, Note_off_c, 2, 69, 0
4, 202462, Note_off_c, 2, 65, 0
4, 202462, Note_off_c, 2, 63, 0
4, 202462, Note_off_c, 2, 60, 0
4, 202464, Note_on_c, 2, 69, 60
4, 202464, Note_on_c, 2, 65, 60
4, 202464, Note_on_c, 2, 63, 60
4, 202464, Note_on_c, 2, 60, 60
4, 202558, Note_off_c, 2, 69, 0
4, 202558, Note_off_c, 2, 65, 0
4, 202558, Note_off_c, 2, 63, 0
4, 202558, Note_off_c, 2, 60, 0
4, 202560, Note_on_c, 2, 69, 60
4, 202560, Note_on_c, 2, 65, 60
4, 202560, Note_on_c, 2, 63, 60
4, 202560, Note_on_c, 2, 60, 60
4, 202654, Note_off_c, 2, 69, 0
4, 202654, Note_off_c, 2, 65, 0
4, 202654, Note_off_c, 2, 63, 0
4, 202654, Note_off_c, 2, 60, 0
4, 202656, Note_on_c, 2, 69, 60
4, 202656, Note_on_c, 2, 65, 60
4, 202656, Note_on_c, 2, 63, 60
4, 202656, Note_on_c, 2, 60, 60
4, 202750, Note_off_c, 2, 70, 0
4, 202750, Note_off_c, 2, 82, 0
4, 202750, Note_off_c, 2, 69, 0
4, 202750, Note_off_c, 2, 65, 0
4, 202750, Note_off_c, 2, 63, 0
4, 202750, Note_off_c, 2, 60, 0
4, 202752, Note_on_c, 2, 70, 60
4, 202752, Note_on_c, 2, 65, 60
4, 202752, Note_on_c, 2, 62, 60
4, 202846, Note_off_c, 2, 70, 0
4, 202846, Note_off_c, 2, 65, 0
4, 202846, Note_off_c, 2, 62, 0
4, 202848, Note_on_c, 2, 77, 60
4, 202848, Note_on_c, 2, 74, 60
4, 202848, Note_on_c, 2, 65, 60
4, 202942, Note_off_c, 2, 77, 0
4, 202942, Note_off_c, 2, 74, 0
4, 202942, Note_off_c, 2, 65, 0
4, 202944, Note_on_c, 2, 77, 60
4, 202944, Note_on_c, 2, 74, 60
4, 202944, Note_on_c, 2, 65, 60
4, 203038, Note_off_c, 2, 77, 0
4, 203038, Note_off_c, 2, 74, 0
4, 203038, Note_off_c, 2, 65, 0
4, 203136, Note_on_c, 2, 75, 60
4, 203136, Note_on_c, 2, 72, 60
4, 203136, Note_on_c, 2, 63, 60
4, 203230, Note_off_c, 2, 75, 0
4, 203230, Note_off_c, 2, 72, 0
4, 203230, Note_off_c, 2, 63, 0
4, 203232, Note_on_c, 2, 75, 60
4, 203232, Note_on_c, 2, 72, 60
4, 203232, Note_on_c, 2, 63, 60
4, 203326, Note_off_c, 2, 75, 0
4, 203326, Note_off_c, 2, 72, 0
4, 203326, Note_off_c, 2, 63, 0
4, 203424, Note_on_c, 2, 74, 60
4, 203424, Note_on_c, 2, 70, 60
4, 203424, Note_on_c, 2, 62, 60
4, 203518, Note_off_c, 2, 74, 0
4, 203518, Note_off_c, 2, 70, 0
4, 203518, Note_off_c, 2, 62, 0
4, 203520, Note_on_c, 2, 74, 60
4, 203520, Note_on_c, 2, 70, 60
4, 203520, Note_on_c, 2, 62, 60
4, 203614, Note_off_c, 2, 74, 0
4, 203614, Note_off_c, 2, 70, 0
4, 203614, Note_off_c, 2, 62, 0
4, 203712, Note_on_c, 2, 72, 60
4, 203712, Note_on_c, 2, 69, 60
4, 203712, Note_on_c, 2, 60, 60
4, 203806, Note_off_c, 2, 72, 0
4, 203806, Note_off_c, 2, 69, 0
4, 203806, Note_off_c, 2, 60, 0
4, 203808, Note_on_c, 2, 72, 60
4, 203808, Note_on_c, 2, 69, 60
4, 203808, Note_on_c, 2, 60, 60
4, 203902, Note_off_c, 2, 72, 0
4, 203902, Note_off_c, 2, 69, 0
4, 203902, Note_off_c, 2, 60, 0
4, 204000, Note_on_c, 2, 77, 60
4, 204000, Note_on_c, 2, 74, 60
4, 204000, Note_on_c, 2, 65, 60
4, 204094, Note_off_c, 2, 77, 0
4, 204094, Note_off_c, 2, 74, 0
4, 204094, Note_off_c, 2, 65, 0
4, 204096, Note_on_c, 2, 77, 60
4, 204096, Note_on_c, 2, 74, 60
4, 204096, Note_on_c, 2, 65, 60
4, 204190, Note_off_c, 2, 77, 0
4, 204190, Note_off_c, 2, 74, 0
4, 204190, Note_off_c, 2, 65, 0
4, 204288, Note_on_c, 2, 75, 60
4, 204288, Note_on_c, 2, 72, 60
4, 204288, Note_on_c, 2, 63, 60
4, 204382, Note_off_c, 2, 75, 0
4, 204382, Note_off_c, 2, 72, 0
4, 204382, Note_off_c, 2, 63, 0
4, 204384, Note_on_c, 2, 75, 60
4, 204384, Note_on_c, 2, 72, 60
4, 204384, Note_on_c, 2, 63, 60
4, 204478, Note_off_c, 2, 75, 0
4, 204478, Note_off_c, 2, 72, 0
4, 204478, Note_off_c, 2, 63, 0
4, 204576, Note_on_c, 2, 74, 60
4, 204576, Note_on_c, 2, 70, 60
4, 204576, Note_on_c, 2, 62, 60
4, 204670, Note_off_c, 2, 74, 0
4, 204670, Note_off_c, 2, 70, 0
4, 204670, Note_off_c, 2, 62, 0
4, 204672, Note_on_c, 2, 74, 60
4, 204672, Note_on_c, 2, 70, 60
4, 204672, Note_on_c, 2, 62, 60
4, 204766, Note_off_c, 2, 74, 0
4, 204766, Note_off_c, 2, 70, 0
4, 204766, Note_off_c, 2, 62, 0
4, 204864, Note_on_c, 2, 72, 60
4, 204864, Note_on_c, 2, 60, 60
4, 204864, Note_on_c, 2, 69, 60
4, 204958, Note_off_c, 2, 72, 0
4, 204958, Note_off_c, 2, 60, 0
4, 204958, Note_off_c, 2, 69, 0
4, 204960, Note_on_c, 2, 72, 60
4, 204960, Note_on_c, 2, 69, 60
4, 204960, Note_on_c, 2, 60, 60
4, 205054, Note_off_c, 2, 72, 0
4, 205054, Note_off_c, 2, 69, 0
4, 205054, Note_off_c, 2, 60, 0
4, 206496, Note_on_c, 2, 89, 60
4, 206496, Note_on_c, 2, 77, 60
4, 206782, Note_off_c, 2, 89, 0
4, 206782, Note_off_c, 2, 77, 0
4, 206784, Note_on_c, 2, 77, 60
4, 206784, Note_on_c, 2, 89, 60
4, 206878, Note_off_c, 2, 77, 0
4, 206878, Note_off_c, 2, 89, 0
4, 206880, Note_on_c, 2, 75, 60
4, 206880, Note_on_c, 2, 87, 60
4, 206974, Note_off_c, 2, 75, 0
4, 206974, Note_off_c, 2, 87, 0
4, 206976, Note_on_c, 2, 74, 60
4, 206976, Note_on_c, 2, 86, 60
4, 207070, Note_off_c, 2, 74, 0
4, 207070, Note_off_c, 2, 86, 0
4, 207072, Note_on_c, 2, 84, 60
4, 207072, Note_on_c, 2, 72, 60
4, 207092, Note_off_c, 2, 84, 0
4, 207096, Note_on_c, 2, 86, 60
4, 207116, Note_off_c, 2, 86, 0
4, 207120, Note_on_c, 2, 84, 60
4, 207140, Note_off_c, 2, 84, 0
4, 207144, Note_on_c, 2, 86, 60
4, 207164, Note_off_c, 2, 86, 0
4, 207168, Note_on_c, 2, 82, 60
4, 207188, Note_off_c, 2, 82, 0
4, 207192, Note_on_c, 2, 84, 60
4, 207212, Note_off_c, 2, 84, 0
4, 207214, Note_off_c, 2, 72, 0
4, 207216, Note_on_c, 2, 82, 60
4, 207216, Note_on_c, 2, 70, 60
4, 207262, Note_off_c, 2, 82, 0
4, 207262, Note_off_c, 2, 70, 0
4, 207264, Note_on_c, 2, 84, 60
4, 207264, Note_on_c, 2, 72, 60
4, 207358, Note_off_c, 2, 84, 0
4, 207358, Note_off_c, 2, 72, 0
4, 207360, Note_on_c, 2, 86, 60
4, 207360, Note_on_c, 2, 74, 60
4, 207550, Note_off_c, 2, 86, 0
4, 207550, Note_off_c, 2, 74, 0
4, 208800, Note_on_c, 2, 89, 60
4, 208800, Note_on_c, 2, 77, 60
4, 209086, Note_off_c, 2, 89, 0
4, 209086, Note_off_c, 2, 77, 0
4, 209088, Note_on_c, 2, 89, 60
4, 209088, Note_on_c, 2, 77, 60
4, 209182, Note_off_c, 2, 89, 0
4, 209182, Note_off_c, 2, 77, 0
4, 209184, Note_on_c, 2, 87, 60
4, 209184, Note_on_c, 2, 75, 60
4, 209278, Note_off_c, 2, 87, 0
4, 209278, Note_off_c, 2, 75, 0
4, 209280, Note_on_c, 2, 86, 60
4, 209280, Note_on_c, 2, 74, 60
4, 209374, Note_off_c, 2, 86, 0
4, 209374, Note_off_c, 2, 74, 0
4, 209376, Note_on_c, 2, 84, 60
4, 209376, Note_on_c, 2, 72, 60
4, 209396, Note_off_c, 2, 84, 0
4, 209400, Note_on_c, 2, 86, 60
4, 209420, Note_off_c, 2, 86, 0
4, 209424, Note_on_c, 2, 84, 60
4, 209444, Note_off_c, 2, 84, 0
4, 209448, Note_on_c, 2, 86, 60
4, 209468, Note_off_c, 2, 86, 0
4, 209472, Note_on_c, 2, 82, 60
4, 209492, Note_off_c, 2, 82, 0
4, 209496, Note_on_c, 2, 84, 60
4, 209516, Note_off_c, 2, 84, 0
4, 209518, Note_off_c, 2, 72, 0
4, 209520, Note_on_c, 2, 82, 60
4, 209520, Note_on_c, 2, 70, 60
4, 209566, Note_off_c, 2, 82, 0
4, 209566, Note_off_c, 2, 70, 0
4, 209568, Note_on_c, 2, 84, 60
4, 209568, Note_on_c, 2, 72, 60
4, 209662, Note_off_c, 2, 84, 0
4, 209662, Note_off_c, 2, 72, 0
4, 209664, Note_on_c, 2, 82, 60
4, 209664, Note_on_c, 2, 70, 60
4, 209854, Note_off_c, 2, 82, 0
4, 209854, Note_off_c, 2, 70, 0
4, 212160, Note_on_c, 2, 70, 60
4, 212160, Note_on_c, 2, 65, 60
4, 212160, Note_on_c, 2, 62, 60
4, 212254, Note_off_c, 2, 70, 0
4, 212254, Note_off_c, 2, 65, 0
4, 212254, Note_off_c, 2, 62, 0
4, 212256, Note_on_c, 2, 70, 60
4, 212256, Note_on_c, 2, 65, 60
4, 212256, Note_on_c, 2, 62, 60
4, 212350, Note_off_c, 2, 70, 0
4, 212350, Note_off_c, 2, 65, 0
4, 212350, Note_off_c, 2, 62, 0
4, 212352, Note_on_c, 2, 70, 60
4, 212352, Note_on_c, 2, 65, 60
4, 212352, Note_on_c, 2, 62, 60
4, 212446, Note_off_c, 2, 70, 0
4, 212446, Note_off_c, 2, 65, 0
4, 212446, Note_off_c, 2, 62, 0
4, 212448, Note_on_c, 2, 70, 60
4, 212448, Note_on_c, 2, 65, 60
4, 212448, Note_on_c, 2, 62, 60
4, 212542, Note_off_c, 2, 70, 0
4, 212542, Note_off_c, 2, 65, 0
4, 212542, Note_off_c, 2, 62, 0
4, 212544, Note_on_c, 2, 70, 60
4, 212544, Note_on_c, 2, 65, 60
4, 212544, Note_on_c, 2, 62, 60
4, 212638, Note_off_c, 2, 70, 0
4, 212638, Note_off_c, 2, 65, 0
4, 212638, Note_off_c, 2, 62, 0
4, 212640, Note_on_c, 2, 65, 60
4, 212640, Note_on_c, 2, 62, 60
4, 212640, Note_on_c, 2, 58, 60
4, 212734, Note_off_c, 2, 65, 0
4, 212734, Note_off_c, 2, 62, 0
4, 212734, Note_off_c, 2, 58, 0
4, 212736, Note_on_c, 2, 70, 60
4, 212736, Note_on_c, 2, 65, 60
4, 212736, Note_on_c, 2, 62, 60
4, 212830, Note_off_c, 2, 70, 0
4, 212830, Note_off_c, 2, 65, 0
4, 212830, Note_off_c, 2, 62, 0
4, 212832, Note_on_c, 2, 70, 60
4, 212832, Note_on_c, 2, 65, 60
4, 212832, Note_on_c, 2, 62, 60
4, 212926, Note_off_c, 2, 70, 0
4, 212926, Note_off_c, 2, 65, 0
4, 212926, Note_off_c, 2, 62, 0
4, 212928, Note_on_c, 2, 74, 60
4, 212928, Note_on_c, 2, 70, 60
4, 212928, Note_on_c, 2, 65, 60
4, 213022, Note_off_c, 2, 74, 0
4, 213022, Note_off_c, 2, 70, 0
4, 213022, Note_off_c, 2, 65, 0
4, 213024, Note_on_c, 2, 70, 60
4, 213024, Note_on_c, 2, 65, 60
4, 213024, Note_on_c, 2, 62, 60
4, 213118, Note_off_c, 2, 70, 0
4, 213118, Note_off_c, 2, 65, 0
4, 213118, Note_off_c, 2, 62, 0
4, 213120, Note_on_c, 2, 70, 60
4, 213120, Note_on_c, 2, 65, 60
4, 213120, Note_on_c, 2, 62, 60
4, 213214, Note_off_c, 2, 70, 0
4, 213214, Note_off_c, 2, 65, 0
4, 213214, Note_off_c, 2, 62, 0
4, 213312, Note_on_c, 2, 74, 60
4, 213312, Note_on_c, 2, 70, 60
4, 213312, Note_on_c, 2, 65, 60
4, 213406, Note_off_c, 2, 74, 0
4, 213406, Note_off_c, 2, 70, 0
4, 213406, Note_off_c, 2, 65, 0
4, 213408, Note_on_c, 2, 74, 60
4, 213408, Note_on_c, 2, 70, 60
4, 213408, Note_on_c, 2, 65, 60
4, 213502, Note_off_c, 2, 74, 0
4, 213502, Note_off_c, 2, 70, 0
4, 213502, Note_off_c, 2, 65, 0
4, 213504, Note_on_c, 2, 74, 60
4, 213504, Note_on_c, 2, 70, 60
4, 213504, Note_on_c, 2, 65, 60
4, 213598, Note_off_c, 2, 74, 0
4, 213598, Note_off_c, 2, 70, 0
4, 213598, Note_off_c, 2, 65, 0
4, 213600, Note_on_c, 2, 74, 60
4, 213600, Note_on_c, 2, 70, 60
4, 213600, Note_on_c, 2, 65, 60
4, 213694, Note_off_c, 2, 74, 0
4, 213694, Note_off_c, 2, 70, 0
4, 213694, Note_off_c, 2, 65, 0
4, 213696, Note_on_c, 2, 74, 60
4, 213696, Note_on_c, 2, 70, 60
4, 213696, Note_on_c, 2, 65, 60
4, 213790, Note_off_c, 2, 74, 0
4, 213790, Note_off_c, 2, 70, 0
4, 213790, Note_off_c, 2, 65, 0
4, 213792, Note_on_c, 2, 65, 60
4, 213792, Note_on_c, 2, 62, 60
4, 213792, Note_on_c, 2, 70, 60
4, 213886, Note_off_c, 2, 65, 0
4, 213886, Note_off_c, 2, 62, 0
4, 213886, Note_off_c, 2, 70, 0
4, 213888, Note_on_c, 2, 74, 60
4, 213888, Note_on_c, 2, 70, 60
4, 213888, Note_on_c, 2, 65, 60
4, 213982, Note_off_c, 2, 74, 0
4, 213982, Note_off_c, 2, 70, 0
4, 213982, Note_off_c, 2, 65, 0
4, 213984, Note_on_c, 2, 74, 60
4, 213984, Note_on_c, 2, 70, 60
4, 213984, Note_on_c, 2, 65, 60
4, 214078, Note_off_c, 2, 74, 0
4, 214078, Note_off_c, 2, 70, 0
4, 214078, Note_off_c, 2, 65, 0
4, 214080, Note_on_c, 2, 77, 60
4, 214080, Note_on_c, 2, 74, 60
4, 214080, Note_on_c, 2, 70, 60
4, 214174, Note_off_c, 2, 77, 0
4, 214174, Note_off_c, 2, 74, 0
4, 214174, Note_off_c, 2, 70, 0
4, 214176, Note_on_c, 2, 74, 60
4, 214176, Note_on_c, 2, 70, 60
4, 214176, Note_on_c, 2, 65, 60
4, 214270, Note_off_c, 2, 74, 0
4, 214270, Note_off_c, 2, 70, 0
4, 214270, Note_off_c, 2, 65, 0
4, 214272, Note_on_c, 2, 74, 60
4, 214272, Note_on_c, 2, 70, 60
4, 214272, Note_on_c, 2, 65, 60
4, 214366, Note_off_c, 2, 74, 0
4, 214366, Note_off_c, 2, 70, 0
4, 214366, Note_off_c, 2, 65, 0
4, 214464, Note_on_c, 2, 82, 60
4, 214464, Note_on_c, 2, 77, 60
4, 214464, Note_on_c, 2, 74, 60
4, 214558, Note_off_c, 2, 82, 0
4, 214558, Note_off_c, 2, 77, 0
4, 214558, Note_off_c, 2, 74, 0
4, 214560, Note_on_c, 2, 82, 60
4, 214560, Note_on_c, 2, 77, 60
4, 214560, Note_on_c, 2, 74, 60
4, 214654, Note_off_c, 2, 82, 0
4, 214654, Note_off_c, 2, 77, 0
4, 214654, Note_off_c, 2, 74, 0
4, 214656, Note_on_c, 2, 82, 60
4, 214656, Note_on_c, 2, 77, 60
4, 214656, Note_on_c, 2, 74, 60
4, 214750, Note_off_c, 2, 82, 0
4, 214750, Note_off_c, 2, 77, 0
4, 214750, Note_off_c, 2, 74, 0
4, 214752, Note_on_c, 2, 82, 60
4, 214752, Note_on_c, 2, 77, 60
4, 214752, Note_on_c, 2, 74, 60
4, 214846, Note_off_c, 2, 82, 0
4, 214846, Note_off_c, 2, 77, 0
4, 214846, Note_off_c, 2, 74, 0
4, 214848, Note_on_c, 2, 82, 60
4, 214848, Note_on_c, 2, 77, 60
4, 214848, Note_on_c, 2, 74, 60
4, 214942, Note_off_c, 2, 82, 0
4, 214942, Note_off_c, 2, 77, 0
4, 214942, Note_off_c, 2, 74, 0
4, 214944, Note_on_c, 2, 77, 60
4, 214944, Note_on_c, 2, 74, 60
4, 214944, Note_on_c, 2, 70, 60
4, 215038, Note_off_c, 2, 77, 0
4, 215038, Note_off_c, 2, 74, 0
4, 215038, Note_off_c, 2, 70, 0
4, 215040, Note_on_c, 2, 82, 60
4, 215040, Note_on_c, 2, 77, 60
4, 215040, Note_on_c, 2, 74, 60
4, 215134, Note_off_c, 2, 82, 0
4, 215134, Note_off_c, 2, 77, 0
4, 215134, Note_off_c, 2, 74, 0
4, 215136, Note_on_c, 2, 82, 60
4, 215136, Note_on_c, 2, 77, 60
4, 215136, Note_on_c, 2, 74, 60
4, 215230, Note_off_c, 2, 82, 0
4, 215230, Note_off_c, 2, 77, 0
4, 215230, Note_off_c, 2, 74, 0
4, 215232, Note_on_c, 2, 86, 60
4, 215232, Note_on_c, 2, 82, 60
4, 215232, Note_on_c, 2, 77, 60
4, 215326, Note_off_c, 2, 86, 0
4, 215326, Note_off_c, 2, 82, 0
4, 215326, Note_off_c, 2, 77, 0
4, 215328, Note_on_c, 2, 82, 60
4, 215328, Note_on_c, 2, 77, 60
4, 215328, Note_on_c, 2, 74, 60
4, 215422, Note_off_c, 2, 82, 0
4, 215422, Note_off_c, 2, 77, 0
4, 215422, Note_off_c, 2, 74, 0
4, 215424, Note_on_c, 2, 82, 60
4, 215424, Note_on_c, 2, 77, 60
4, 215424, Note_on_c, 2, 74, 60
4, 215518, Note_off_c, 2, 82, 0
4, 215518, Note_off_c, 2, 77, 0
4, 215518, Note_off_c, 2, 74, 0
4, 215520, Note_on_c, 2, 70, 60
4, 215614, Note_off_c, 2, 70, 0
4, 215616, Note_on_c, 2, 74, 60
4, 215710, Note_off_c, 2, 74, 0
4, 215712, Note_on_c, 2, 77, 60
4, 215806, Note_off_c, 2, 77, 0
4, 215808, Note_on_c, 2, 77, 60
4, 215902, Note_off_c, 2, 77, 0
4, 215904, Note_on_c, 2, 81, 60
4, 215904, Note_on_c, 2, 77, 60
4, 215904, Note_on_c, 2, 72, 60
4, 215998, Note_off_c, 2, 81, 0
4, 215998, Note_off_c, 2, 77, 0
4, 215998, Note_off_c, 2, 72, 0
4, 216000, Note_on_c, 2, 82, 60
4, 216000, Note_on_c, 2, 77, 60
4, 216000, Note_on_c, 2, 74, 60
4, 216094, Note_off_c, 2, 82, 0
4, 216094, Note_off_c, 2, 77, 0
4, 216094, Note_off_c, 2, 74, 0
4, 216096, Note_on_c, 2, 70, 60
4, 216190, Note_off_c, 2, 70, 0
4, 216192, Note_on_c, 2, 74, 60
4, 216286, Note_off_c, 2, 74, 0
4, 216288, Note_on_c, 2, 77, 60
4, 216382, Note_off_c, 2, 77, 0
4, 216384, Note_on_c, 2, 77, 60
4, 216478, Note_off_c, 2, 77, 0
4, 216480, Note_on_c, 2, 77, 60
4, 216480, Note_on_c, 2, 81, 60
4, 216480, Note_on_c, 2, 72, 60
4, 216574, Note_off_c, 2, 77, 0
4, 216574, Note_off_c, 2, 81, 0
4, 216574, Note_off_c, 2, 72, 0
4, 216576, Note_on_c, 2, 77, 55
4, 216576, Note_on_c, 2, 74, 55
4, 216576, Note_on_c, 2, 82, 55
4, 216766, Note_off_c, 2, 77, 0
4, 216766, Note_off_c, 2, 74, 0
4, 216766, Note_off_c, 2, 82, 0
4, 216864, Note_on_c, 2, 77, 55
4, 216864, Note_on_c, 2, 74, 55
4, 216864, Note_on_c, 2, 82, 55
4, 216864, Note_on_c, 2, 86, 55
4, 217054, Note_off_c, 2, 77, 0
4, 217054, Note_off_c, 2, 74, 0
4, 217054, Note_off_c, 2, 82, 0
4, 217054, Note_off_c, 2, 86, 0
4, 217152, Note_on_c, 2, 70, 55
4, 217152, Note_on_c, 2, 77, 55
4, 217152, Note_on_c, 2, 82, 55
4, 217152, Note_on_c, 2, 74, 55
4, 217342, Note_off_c, 2, 70, 0
4, 217342, Note_off_c, 2, 77, 0
4, 217342, Note_off_c, 2, 82, 0
4, 217342, Note_off_c, 2, 74, 0
4, 217342, End_track
5, 0, Start_track
5, 0, Title_t, "Midi by: "
5, 0, Control_c, 3, 0, 0
5, 0, Program_c, 3, 48
5, 0, Control_c, 3, 7, 127
5, 0, Control_c, 3, 10, 89
5, 0, Control_c, 3, 91, 63
5, 0, Control_c, 3, 93, 0
5, 0, Key_signature, -2, "minor"
5, 0, Control_c, 3, 121, 0
5, 48, Control_c, 3, 10, 73
5, 96, Control_c, 3, 91, 63
5, 144, Program_c, 3, 48
5, 576, Note_on_c, 3, 46, 60
5, 1150, Note_off_c, 3, 46, 0
5, 1152, Note_on_c, 3, 46, 60
5, 1726, Note_off_c, 3, 46, 0
5, 1728, Note_on_c, 3, 46, 60
5, 2302, Note_off_c, 3, 46, 0
5, 2304, Note_on_c, 3, 46, 60
5, 2878, Note_off_c, 3, 46, 0
5, 2880, Note_on_c, 3, 46, 60
5, 3454, Note_off_c, 3, 46, 0
5, 3456, Note_on_c, 3, 46, 60
5, 4030, Note_off_c, 3, 46, 0
5, 4032, Note_on_c, 3, 46, 60
5, 4126, Note_off_c, 3, 46, 0
5, 4608, Note_on_c, 3, 65, 60
5, 4702, Note_off_c, 3, 65, 0
5, 4704, Note_on_c, 3, 65, 60
5, 4798, Note_off_c, 3, 65, 0
5, 4800, Note_on_c, 3, 64, 60
5, 4894, Note_off_c, 3, 64, 0
5, 4896, Note_on_c, 3, 65, 60
5, 4990, Note_off_c, 3, 65, 0
5, 4992, Note_on_c, 3, 63, 60
5, 5086, Note_off_c, 3, 63, 0
5, 5088, Note_on_c, 3, 60, 77
5, 5182, Note_off_c, 3, 60, 0
5, 5184, Note_on_c, 3, 58, 77
5, 5184, Note_on_c, 3, 46, 77
5, 5278, Note_off_c, 3, 58, 0
5, 5278, Note_off_c, 3, 46, 0
5, 6336, Note_on_c, 3, 58, 77
5, 6336, Note_on_c, 3, 46, 77
5, 6430, Note_off_c, 3, 58, 0
5, 6430, Note_off_c, 3, 46, 0
5, 7488, Note_on_c, 3, 58, 77
5, 7488, Note_on_c, 3, 46, 77
5, 7582, Note_off_c, 3, 58, 0
5, 7582, Note_off_c, 3, 46, 0
5, 8928, Note_on_c, 3, 53, 77
5, 8928, Note_on_c, 3, 65, 77
5, 9214, Note_off_c, 3, 53, 0
5, 9214, Note_off_c, 3, 65, 0
5, 9216, Note_on_c, 3, 58, 77
5, 9216, Note_on_c, 3, 46, 77
5, 9358, Note_off_c, 3, 58, 0
5, 9358, Note_off_c, 3, 46, 0
5, 9408, Note_on_c, 3, 53, 77
5, 9408, Note_on_c, 3, 41, 77
5, 9502, Note_off_c, 3, 53, 0
5, 9502, Note_off_c, 3, 41, 0
5, 9504, Note_on_c, 3, 53, 77
5, 9504, Note_on_c, 3, 41, 77
5, 9598, Note_off_c, 3, 53, 0
5, 9598, Note_off_c, 3, 41, 0
5, 9600, Note_on_c, 3, 53, 77
5, 9600, Note_on_c, 3, 41, 77
5, 9694, Note_off_c, 3, 53, 0
5, 9694, Note_off_c, 3, 41, 0
5, 9696, Note_on_c, 3, 53, 77
5, 9696, Note_on_c, 3, 41, 77
5, 9790, Note_off_c, 3, 53, 0
5, 9790, Note_off_c, 3, 41, 0
5, 9792, Note_on_c, 3, 53, 77
5, 9792, Note_on_c, 3, 41, 77
5, 9886, Note_off_c, 3, 53, 0
5, 9886, Note_off_c, 3, 41, 0
5, 9888, Note_on_c, 3, 50, 77
5, 9888, Note_on_c, 3, 38, 77
5, 9982, Note_off_c, 3, 50, 0
5, 9982, Note_off_c, 3, 38, 0
5, 9984, Note_on_c, 3, 53, 77
5, 9984, Note_on_c, 3, 41, 77
5, 10078, Note_off_c, 3, 53, 0
5, 10078, Note_off_c, 3, 41, 0
5, 10080, Note_on_c, 3, 53, 77
5, 10080, Note_on_c, 3, 41, 77
5, 10174, Note_off_c, 3, 53, 0
5, 10174, Note_off_c, 3, 41, 0
5, 10176, Note_on_c, 3, 46, 77
5, 10270, Note_off_c, 3, 46, 0
5, 10272, Note_on_c, 3, 53, 77
5, 10272, Note_on_c, 3, 41, 77
5, 10366, Note_off_c, 3, 53, 0
5, 10366, Note_off_c, 3, 41, 0
5, 10368, Note_on_c, 3, 53, 77
5, 10368, Note_on_c, 3, 41, 77
5, 10558, Note_off_c, 3, 53, 0
5, 10558, Note_off_c, 3, 41, 0
5, 10656, Note_on_c, 3, 57, 60
5, 10656, Note_on_c, 3, 63, 60
5, 10942, Note_off_c, 3, 57, 0
5, 10942, Note_off_c, 3, 63, 0
5, 10944, Note_on_c, 3, 58, 60
5, 10944, Note_on_c, 3, 62, 60
5, 11038, Note_off_c, 3, 58, 0
5, 11038, Note_off_c, 3, 62, 0
5, 11232, Note_on_c, 3, 53, 60
5, 11232, Note_on_c, 3, 63, 60
5, 11326, Note_off_c, 3, 53, 0
5, 11518, Note_off_c, 3, 63, 0
5, 11520, Note_on_c, 3, 58, 60
5, 11520, Note_on_c, 3, 46, 60
5, 11614, Note_off_c, 3, 58, 0
5, 11614, Note_off_c, 3, 46, 0
5, 11712, Note_on_c, 3, 53, 77
5, 11712, Note_on_c, 3, 41, 77
5, 11806, Note_off_c, 3, 53, 0
5, 11806, Note_off_c, 3, 41, 0
5, 11808, Note_on_c, 3, 53, 77
5, 11808, Note_on_c, 3, 41, 77
5, 11902, Note_off_c, 3, 53, 0
5, 11902, Note_off_c, 3, 41, 0
5, 11904, Note_on_c, 3, 53, 77
5, 11904, Note_on_c, 3, 41, 77
5, 11998, Note_off_c, 3, 53, 0
5, 11998, Note_off_c, 3, 41, 0
5, 12000, Note_on_c, 3, 53, 77
5, 12000, Note_on_c, 3, 41, 77
5, 12094, Note_off_c, 3, 53, 0
5, 12094, Note_off_c, 3, 41, 0
5, 12096, Note_on_c, 3, 53, 77
5, 12096, Note_on_c, 3, 41, 77
5, 12190, Note_off_c, 3, 53, 0
5, 12190, Note_off_c, 3, 41, 0
5, 12192, Note_on_c, 3, 50, 77
5, 12192, Note_on_c, 3, 38, 77
5, 12286, Note_off_c, 3, 50, 0
5, 12286, Note_off_c, 3, 38, 0
5, 12288, Note_on_c, 3, 53, 77
5, 12288, Note_on_c, 3, 41, 77
5, 12382, Note_off_c, 3, 53, 0
5, 12382, Note_off_c, 3, 41, 0
5, 12384, Note_on_c, 3, 53, 77
5, 12384, Note_on_c, 3, 41, 77
5, 12478, Note_off_c, 3, 53, 0
5, 12478, Note_off_c, 3, 41, 0
5, 12480, Note_on_c, 3, 46, 77
5, 12574, Note_off_c, 3, 46, 0
5, 12576, Note_on_c, 3, 53, 77
5, 12576, Note_on_c, 3, 41, 77
5, 12670, Note_off_c, 3, 53, 0
5, 12670, Note_off_c, 3, 41, 0
5, 12672, Note_on_c, 3, 53, 77
5, 12672, Note_on_c, 3, 41, 77
5, 12958, Note_off_c, 3, 53, 0
5, 12958, Note_off_c, 3, 41, 0
5, 12960, Note_on_c, 3, 50, 77
5, 12960, Note_on_c, 3, 38, 77
5, 13150, Note_off_c, 3, 50, 0
5, 13150, Note_off_c, 3, 38, 0
5, 13152, Note_on_c, 3, 53, 77
5, 13152, Note_on_c, 3, 41, 77
5, 13246, Note_off_c, 3, 53, 0
5, 13246, Note_off_c, 3, 41, 0
5, 13248, Note_on_c, 3, 53, 77
5, 13248, Note_on_c, 3, 41, 77
5, 13534, Note_off_c, 3, 53, 0
5, 13534, Note_off_c, 3, 41, 0
5, 13536, Note_on_c, 3, 58, 77
5, 13536, Note_on_c, 3, 46, 77
5, 13726, Note_off_c, 3, 58, 0
5, 13726, Note_off_c, 3, 46, 0
5, 13728, Note_on_c, 3, 53, 77
5, 13728, Note_on_c, 3, 41, 77
5, 13822, Note_off_c, 3, 53, 0
5, 13822, Note_off_c, 3, 41, 0
5, 13824, Note_on_c, 3, 41, 77
5, 13824, Note_on_c, 3, 53, 77
5, 13918, Note_off_c, 3, 53, 0
5, 13920, Note_on_c, 3, 53, 77
5, 14014, Note_off_c, 3, 53, 0
5, 14016, Note_on_c, 3, 53, 77
5, 14110, Note_off_c, 3, 53, 0
5, 14112, Note_on_c, 3, 53, 77
5, 14206, Note_off_c, 3, 53, 0
5, 14208, Note_on_c, 3, 53, 77
5, 14302, Note_off_c, 3, 53, 0
5, 14304, Note_on_c, 3, 53, 77
5, 14398, Note_off_c, 3, 41, 0
5, 14398, Note_off_c, 3, 53, 0
5, 14400, Note_on_c, 3, 50, 77
5, 14400, Note_on_c, 3, 38, 77
5, 14590, Note_off_c, 3, 50, 0
5, 14590, Note_off_c, 3, 38, 0
5, 14976, Note_on_c, 3, 50, 77
5, 15072, Note_on_c, 3, 58, 77
5, 15072, Note_on_c, 3, 53, 77
5, 15118, Note_off_c, 3, 58, 0
5, 15118, Note_off_c, 3, 53, 0
5, 15120, Note_on_c, 3, 62, 77
5, 15166, Note_off_c, 3, 62, 0
5, 15168, Note_on_c, 3, 58, 77
5, 15168, Note_on_c, 3, 53, 77
5, 15214, Note_off_c, 3, 58, 0
5, 15214, Note_off_c, 3, 53, 0
5, 15216, Note_on_c, 3, 62, 77
5, 15262, Note_off_c, 3, 62, 0
5, 15264, Note_on_c, 3, 58, 77
5, 15264, Note_on_c, 3, 53, 77
5, 15310, Note_off_c, 3, 58, 0
5, 15310, Note_off_c, 3, 53, 0
5, 15312, Note_on_c, 3, 62, 77
5, 15358, Note_off_c, 3, 62, 0
5, 15360, Note_on_c, 3, 58, 77
5, 15360, Note_on_c, 3, 53, 77
5, 15406, Note_off_c, 3, 58, 0
5, 15406, Note_off_c, 3, 53, 0
5, 15408, Note_on_c, 3, 62, 77
5, 15454, Note_off_c, 3, 62, 0
5, 15456, Note_on_c, 3, 58, 77
5, 15456, Note_on_c, 3, 53, 77
5, 15502, Note_off_c, 3, 58, 0
5, 15502, Note_off_c, 3, 53, 0
5, 15504, Note_on_c, 3, 62, 77
5, 15550, Note_off_c, 3, 50, 0
5, 15550, Note_off_c, 3, 62, 0
5, 15552, Note_on_c, 3, 51, 77
5, 15648, Note_on_c, 3, 55, 77
5, 15648, Note_on_c, 3, 58, 77
5, 15694, Note_off_c, 3, 55, 0
5, 15694, Note_off_c, 3, 58, 0
5, 15696, Note_on_c, 3, 63, 77
5, 15742, Note_off_c, 3, 63, 0
5, 15744, Note_on_c, 3, 55, 77
5, 15744, Note_on_c, 3, 58, 77
5, 15790, Note_off_c, 3, 55, 0
5, 15790, Note_off_c, 3, 58, 0
5, 15792, Note_on_c, 3, 63, 77
5, 15838, Note_off_c, 3, 63, 0
5, 15840, Note_on_c, 3, 55, 77
5, 15840, Note_on_c, 3, 58, 77
5, 15886, Note_off_c, 3, 55, 0
5, 15886, Note_off_c, 3, 58, 0
5, 15888, Note_on_c, 3, 63, 77
5, 15934, Note_off_c, 3, 63, 0
5, 15936, Note_on_c, 3, 58, 77
5, 15936, Note_on_c, 3, 55, 77
5, 15982, Note_off_c, 3, 58, 0
5, 15982, Note_off_c, 3, 55, 0
5, 15984, Note_on_c, 3, 63, 77
5, 16030, Note_off_c, 3, 63, 0
5, 16032, Note_on_c, 3, 55, 77
5, 16032, Note_on_c, 3, 58, 77
5, 16078, Note_off_c, 3, 55, 0
5, 16078, Note_off_c, 3, 58, 0
5, 16080, Note_on_c, 3, 63, 66
5, 16126, Note_off_c, 3, 51, 0
5, 16126, Note_off_c, 3, 63, 0
5, 16128, Note_on_c, 3, 53, 77
5, 16224, Note_on_c, 3, 57, 77
5, 16224, Note_on_c, 3, 60, 77
5, 16270, Note_off_c, 3, 57, 0
5, 16270, Note_off_c, 3, 60, 0
5, 16272, Note_on_c, 3, 65, 77
5, 16318, Note_off_c, 3, 65, 0
5, 16320, Note_on_c, 3, 60, 77
5, 16320, Note_on_c, 3, 57, 77
5, 16366, Note_off_c, 3, 60, 0
5, 16366, Note_off_c, 3, 57, 0
5, 16368, Note_on_c, 3, 65, 77
5, 16414, Note_off_c, 3, 65, 0
5, 16416, Note_on_c, 3, 60, 77
5, 16416, Note_on_c, 3, 57, 77
5, 16462, Note_off_c, 3, 60, 0
5, 16462, Note_off_c, 3, 57, 0
5, 16464, Note_on_c, 3, 65, 77
5, 16510, Note_off_c, 3, 65, 0
5, 16512, Note_on_c, 3, 60, 77
5, 16512, Note_on_c, 3, 57, 77
5, 16558, Note_off_c, 3, 60, 0
5, 16558, Note_off_c, 3, 57, 0
5, 16560, Note_on_c, 3, 65, 77
5, 16606, Note_off_c, 3, 65, 0
5, 16608, Note_on_c, 3, 57, 77
5, 16608, Note_on_c, 3, 60, 77
5, 16654, Note_off_c, 3, 57, 0
5, 16654, Note_off_c, 3, 60, 0
5, 16656, Note_on_c, 3, 65, 77
5, 16702, Note_off_c, 3, 53, 0
5, 16702, Note_off_c, 3, 65, 0
5, 16704, Note_on_c, 3, 58, 77
5, 16800, Note_on_c, 3, 62, 77
5, 16846, Note_off_c, 3, 62, 0
5, 16848, Note_on_c, 3, 65, 77
5, 16894, Note_off_c, 3, 65, 0
5, 16896, Note_on_c, 3, 62, 77
5, 16942, Note_off_c, 3, 62, 0
5, 16944, Note_on_c, 3, 65, 77
5, 16990, Note_off_c, 3, 65, 0
5, 16992, Note_on_c, 3, 62, 77
5, 17038, Note_off_c, 3, 62, 0
5, 17040, Note_on_c, 3, 65, 77
5, 17086, Note_off_c, 3, 65, 0
5, 17088, Note_on_c, 3, 62, 77
5, 17134, Note_off_c, 3, 62, 0
5, 17136, Note_on_c, 3, 65, 77
5, 17182, Note_off_c, 3, 65, 0
5, 17184, Note_on_c, 3, 62, 77
5, 17230, Note_off_c, 3, 62, 0
5, 17232, Note_on_c, 3, 65, 66
5, 17278, Note_off_c, 3, 58, 0
5, 17278, Note_off_c, 3, 65, 0
5, 17280, Note_on_c, 3, 50, 77
5, 17376, Note_on_c, 3, 53, 77
5, 17376, Note_on_c, 3, 58, 77
5, 17422, Note_off_c, 3, 53, 0
5, 17422, Note_off_c, 3, 58, 0
5, 17424, Note_on_c, 3, 62, 77
5, 17470, Note_off_c, 3, 62, 0
5, 17472, Note_on_c, 3, 53, 77
5, 17472, Note_on_c, 3, 58, 77
5, 17518, Note_off_c, 3, 53, 0
5, 17518, Note_off_c, 3, 58, 0
5, 17520, Note_on_c, 3, 62, 77
5, 17566, Note_off_c, 3, 62, 0
5, 17568, Note_on_c, 3, 53, 77
5, 17568, Note_on_c, 3, 58, 77
5, 17614, Note_off_c, 3, 53, 0
5, 17614, Note_off_c, 3, 58, 0
5, 17616, Note_on_c, 3, 62, 77
5, 17662, Note_off_c, 3, 62, 0
5, 17664, Note_on_c, 3, 53, 77
5, 17664, Note_on_c, 3, 58, 77
5, 17710, Note_off_c, 3, 53, 0
5, 17710, Note_off_c, 3, 58, 0
5, 17712, Note_on_c, 3, 62, 77
5, 17758, Note_off_c, 3, 62, 0
5, 17760, Note_on_c, 3, 53, 77
5, 17760, Note_on_c, 3, 58, 77
5, 17806, Note_off_c, 3, 53, 0
5, 17806, Note_off_c, 3, 58, 0
5, 17808, Note_on_c, 3, 62, 77
5, 17854, Note_off_c, 3, 50, 0
5, 17854, Note_off_c, 3, 62, 0
5, 17856, Note_on_c, 3, 51, 77
5, 17952, Note_on_c, 3, 55, 77
5, 17952, Note_on_c, 3, 58, 77
5, 17998, Note_off_c, 3, 55, 0
5, 17998, Note_off_c, 3, 58, 0
5, 18000, Note_on_c, 3, 63, 77
5, 18046, Note_off_c, 3, 63, 0
5, 18048, Note_on_c, 3, 55, 77
5, 18048, Note_on_c, 3, 58, 77
5, 18094, Note_off_c, 3, 55, 0
5, 18094, Note_off_c, 3, 58, 0
5, 18096, Note_on_c, 3, 63, 77
5, 18142, Note_off_c, 3, 63, 0
5, 18144, Note_on_c, 3, 55, 77
5, 18144, Note_on_c, 3, 58, 77
5, 18190, Note_off_c, 3, 55, 0
5, 18190, Note_off_c, 3, 58, 0
5, 18192, Note_on_c, 3, 63, 77
5, 18238, Note_off_c, 3, 63, 0
5, 18240, Note_on_c, 3, 55, 77
5, 18240, Note_on_c, 3, 58, 77
5, 18286, Note_off_c, 3, 55, 0
5, 18286, Note_off_c, 3, 58, 0
5, 18288, Note_on_c, 3, 63, 77
5, 18334, Note_off_c, 3, 63, 0
5, 18336, Note_on_c, 3, 58, 77
5, 18336, Note_on_c, 3, 55, 77
5, 18382, Note_off_c, 3, 58, 0
5, 18382, Note_off_c, 3, 55, 0
5, 18384, Note_on_c, 3, 63, 66
5, 18430, Note_off_c, 3, 51, 0
5, 18430, Note_off_c, 3, 63, 0
5, 18432, Note_on_c, 3, 53, 77
5, 18528, Note_on_c, 3, 57, 77
5, 18528, Note_on_c, 3, 60, 77
5, 18574, Note_off_c, 3, 57, 0
5, 18574, Note_off_c, 3, 60, 0
5, 18576, Note_on_c, 3, 65, 77
5, 18622, Note_off_c, 3, 65, 0
5, 18624, Note_on_c, 3, 57, 77
5, 18624, Note_on_c, 3, 60, 77
5, 18670, Note_off_c, 3, 57, 0
5, 18670, Note_off_c, 3, 60, 0
5, 18672, Note_on_c, 3, 65, 77
5, 18718, Note_off_c, 3, 65, 0
5, 18720, Note_on_c, 3, 57, 77
5, 18720, Note_on_c, 3, 60, 77
5, 18766, Note_off_c, 3, 57, 0
5, 18766, Note_off_c, 3, 60, 0
5, 18768, Note_on_c, 3, 65, 77
5, 18814, Note_off_c, 3, 65, 0
5, 18816, Note_on_c, 3, 57, 77
5, 18816, Note_on_c, 3, 60, 77
5, 18862, Note_off_c, 3, 57, 0
5, 18862, Note_off_c, 3, 60, 0
5, 18864, Note_on_c, 3, 65, 77
5, 18910, Note_off_c, 3, 65, 0
5, 18912, Note_on_c, 3, 57, 77
5, 18912, Note_on_c, 3, 60, 77
5, 18958, Note_off_c, 3, 57, 0
5, 18958, Note_off_c, 3, 60, 0
5, 18960, Note_on_c, 3, 65, 77
5, 19006, Note_off_c, 3, 53, 0
5, 19006, Note_off_c, 3, 65, 0
5, 19008, Note_on_c, 3, 58, 77
5, 19008, Note_on_c, 3, 62, 77
5, 19198, Note_off_c, 3, 58, 0
5, 19198, Note_off_c, 3, 62, 0
5, 19292, Control_c, 3, 64, 127
5, 19296, Note_on_c, 3, 58, 99
5, 19296, Note_on_c, 3, 62, 99
5, 19296, Note_on_c, 3, 50, 99
5, 19582, Note_off_c, 3, 58, 0
5, 19582, Note_off_c, 3, 62, 0
5, 19582, Note_off_c, 3, 50, 0
5, 19582, Control_c, 3, 64, 0
5, 19584, Note_on_c, 3, 63, 77
5, 19584, Note_on_c, 3, 51, 77
5, 19774, Note_off_c, 3, 63, 0
5, 19774, Note_off_c, 3, 51, 0
5, 19776, Note_on_c, 3, 64, 77
5, 19776, Note_on_c, 3, 52, 77
5, 19870, Note_off_c, 3, 64, 0
5, 19870, Note_off_c, 3, 52, 0
5, 19872, Note_on_c, 3, 65, 77
5, 19872, Note_on_c, 3, 53, 77
5, 20062, Note_off_c, 3, 65, 0
5, 20062, Note_off_c, 3, 53, 0
5, 20064, Note_on_c, 3, 66, 77
5, 20064, Note_on_c, 3, 54, 77
5, 20158, Note_off_c, 3, 66, 0
5, 20158, Note_off_c, 3, 54, 0
5, 20160, Note_on_c, 3, 67, 77
5, 20160, Note_on_c, 3, 58, 77
5, 20160, Note_on_c, 3, 55, 77
5, 20254, Note_off_c, 3, 67, 0
5, 20254, Note_off_c, 3, 58, 0
5, 20254, Note_off_c, 3, 55, 0
5, 20256, Note_on_c, 3, 67, 77
5, 20256, Note_on_c, 3, 58, 77
5, 20256, Note_on_c, 3, 55, 77
5, 20350, Note_off_c, 3, 67, 0
5, 20350, Note_off_c, 3, 58, 0
5, 20350, Note_off_c, 3, 55, 0
5, 20352, Note_on_c, 3, 67, 77
5, 20352, Note_on_c, 3, 58, 77
5, 20352, Note_on_c, 3, 55, 77
5, 20446, Note_off_c, 3, 67, 0
5, 20446, Note_off_c, 3, 58, 0
5, 20446, Note_off_c, 3, 55, 0
5, 20448, Note_on_c, 3, 68, 77
5, 20448, Note_on_c, 3, 58, 77
5, 20448, Note_on_c, 3, 56, 77
5, 20542, Note_off_c, 3, 68, 0
5, 20542, Note_off_c, 3, 58, 0
5, 20542, Note_off_c, 3, 56, 0
5, 20544, Note_on_c, 3, 68, 77
5, 20544, Note_on_c, 3, 58, 77
5, 20544, Note_on_c, 3, 56, 77
5, 20638, Note_off_c, 3, 68, 0
5, 20638, Note_off_c, 3, 58, 0
5, 20638, Note_off_c, 3, 56, 0
5, 20640, Note_on_c, 3, 68, 77
5, 20640, Note_on_c, 3, 58, 77
5, 20640, Note_on_c, 3, 56, 77
5, 20734, Note_off_c, 3, 68, 0
5, 20734, Note_off_c, 3, 58, 0
5, 20734, Note_off_c, 3, 56, 0
5, 20736, Note_on_c, 3, 67, 77
5, 20736, Note_on_c, 3, 58, 77
5, 20736, Note_on_c, 3, 55, 77
5, 20830, Note_off_c, 3, 67, 0
5, 20830, Note_off_c, 3, 58, 0
5, 20830, Note_off_c, 3, 55, 0
5, 20832, Note_on_c, 3, 67, 77
5, 20832, Note_on_c, 3, 58, 77
5, 20832, Note_on_c, 3, 55, 77
5, 20926, Note_off_c, 3, 67, 0
5, 20926, Note_off_c, 3, 58, 0
5, 20926, Note_off_c, 3, 55, 0
5, 20928, Note_on_c, 3, 67, 77
5, 20928, Note_on_c, 3, 58, 77
5, 20928, Note_on_c, 3, 55, 77
5, 21022, Note_off_c, 3, 67, 0
5, 21022, Note_off_c, 3, 58, 0
5, 21022, Note_off_c, 3, 55, 0
5, 21024, Note_on_c, 3, 66, 77
5, 21024, Note_on_c, 3, 58, 77
5, 21024, Note_on_c, 3, 54, 77
5, 21118, Note_off_c, 3, 66, 0
5, 21118, Note_off_c, 3, 58, 0
5, 21118, Note_off_c, 3, 54, 0
5, 21120, Note_on_c, 3, 66, 77
5, 21120, Note_on_c, 3, 58, 77
5, 21120, Note_on_c, 3, 54, 77
5, 21214, Note_off_c, 3, 66, 0
5, 21214, Note_off_c, 3, 58, 0
5, 21214, Note_off_c, 3, 54, 0
5, 21216, Note_on_c, 3, 66, 77
5, 21216, Note_on_c, 3, 58, 77
5, 21216, Note_on_c, 3, 54, 77
5, 21310, Note_off_c, 3, 66, 0
5, 21310, Note_off_c, 3, 58, 0
5, 21310, Note_off_c, 3, 54, 0
5, 21312, Note_on_c, 3, 65, 77
5, 21312, Note_on_c, 3, 58, 77
5, 21312, Note_on_c, 3, 53, 77
5, 21406, Note_off_c, 3, 65, 0
5, 21406, Note_off_c, 3, 58, 0
5, 21406, Note_off_c, 3, 53, 0
5, 21408, Note_on_c, 3, 65, 77
5, 21408, Note_on_c, 3, 58, 77
5, 21408, Note_on_c, 3, 53, 77
5, 21502, Note_off_c, 3, 65, 0
5, 21502, Note_off_c, 3, 58, 0
5, 21502, Note_off_c, 3, 53, 0
5, 21504, Note_on_c, 3, 65, 77
5, 21504, Note_on_c, 3, 53, 77
5, 21504, Note_on_c, 3, 58, 77
5, 21598, Note_off_c, 3, 65, 0
5, 21598, Note_off_c, 3, 53, 0
5, 21598, Note_off_c, 3, 58, 0
5, 21600, Note_on_c, 3, 63, 77
5, 21600, Note_on_c, 3, 58, 77
5, 21600, Note_on_c, 3, 51, 77
5, 21694, Note_off_c, 3, 63, 0
5, 21694, Note_off_c, 3, 58, 0
5, 21694, Note_off_c, 3, 51, 0
5, 21696, Note_on_c, 3, 63, 77
5, 21696, Note_on_c, 3, 58, 77
5, 21696, Note_on_c, 3, 51, 77
5, 21790, Note_off_c, 3, 63, 0
5, 21790, Note_off_c, 3, 58, 0
5, 21790, Note_off_c, 3, 51, 0
5, 21792, Note_on_c, 3, 63, 77
5, 21792, Note_on_c, 3, 58, 77
5, 21792, Note_on_c, 3, 51, 77
5, 21886, Note_off_c, 3, 63, 0
5, 21886, Note_off_c, 3, 58, 0
5, 21886, Note_off_c, 3, 51, 0
5, 21888, Note_on_c, 3, 65, 77
5, 21888, Note_on_c, 3, 58, 77
5, 21888, Note_on_c, 3, 53, 77
5, 21982, Note_off_c, 3, 65, 0
5, 21982, Note_off_c, 3, 58, 0
5, 21982, Note_off_c, 3, 53, 0
5, 21984, Note_on_c, 3, 65, 77
5, 21984, Note_on_c, 3, 58, 77
5, 21984, Note_on_c, 3, 53, 77
5, 22078, Note_off_c, 3, 65, 0
5, 22078, Note_off_c, 3, 58, 0
5, 22078, Note_off_c, 3, 53, 0
5, 22080, Note_on_c, 3, 65, 77
5, 22080, Note_on_c, 3, 58, 77
5, 22080, Note_on_c, 3, 53, 77
5, 22174, Note_off_c, 3, 65, 0
5, 22174, Note_off_c, 3, 58, 0
5, 22174, Note_off_c, 3, 53, 0
5, 22176, Note_on_c, 3, 53, 77
5, 22176, Note_on_c, 3, 41, 77
5, 22270, Note_off_c, 3, 53, 0
5, 22270, Note_off_c, 3, 41, 0
5, 22272, Note_on_c, 3, 53, 77
5, 22272, Note_on_c, 3, 41, 77
5, 22366, Note_off_c, 3, 53, 0
5, 22366, Note_off_c, 3, 41, 0
5, 22368, Note_on_c, 3, 53, 77
5, 22368, Note_on_c, 3, 41, 77
5, 22462, Note_off_c, 3, 53, 0
5, 22462, Note_off_c, 3, 41, 0
5, 22464, Note_on_c, 3, 46, 77
5, 22464, Note_on_c, 3, 34, 77
5, 22558, Note_off_c, 3, 46, 0
5, 22558, Note_off_c, 3, 34, 0
5, 22560, Note_on_c, 3, 58, 77
5, 22654, Note_off_c, 3, 58, 0
5, 22656, Note_on_c, 3, 62, 77
5, 22750, Note_off_c, 3, 62, 0
5, 22752, Note_on_c, 3, 65, 77
5, 22846, Note_off_c, 3, 65, 0
5, 22848, Note_on_c, 3, 65, 77
5, 22942, Note_off_c, 3, 65, 0
5, 22944, Note_on_c, 3, 53, 77
5, 22944, Note_on_c, 3, 41, 77
5, 23038, Note_off_c, 3, 53, 0
5, 23038, Note_off_c, 3, 41, 0
5, 23040, Note_on_c, 3, 46, 77
5, 23040, Note_on_c, 3, 34, 77
5, 23134, Note_off_c, 3, 46, 0
5, 23134, Note_off_c, 3, 34, 0
5, 23136, Note_on_c, 3, 58, 77
5, 23230, Note_off_c, 3, 58, 0
5, 23232, Note_on_c, 3, 62, 77
5, 23326, Note_off_c, 3, 62, 0
5, 23328, Note_on_c, 3, 65, 77
5, 23422, Note_off_c, 3, 65, 0
5, 23424, Note_on_c, 3, 65, 77
5, 23518, Note_off_c, 3, 65, 0
5, 23520, Note_on_c, 3, 53, 77
5, 23520, Note_on_c, 3, 41, 77
5, 23614, Note_off_c, 3, 53, 0
5, 23614, Note_off_c, 3, 41, 0
5, 23616, Note_on_c, 3, 46, 77
5, 23616, Note_on_c, 3, 34, 77
5, 23806, Note_off_c, 3, 46, 0
5, 23806, Note_off_c, 3, 34, 0
5, 23904, Note_on_c, 3, 58, 77
5, 23904, Note_on_c, 3, 46, 77
5, 24094, Note_off_c, 3, 58, 0
5, 24094, Note_off_c, 3, 46, 0
5, 24192, Note_on_c, 3, 46, 77
5, 24192, Note_on_c, 3, 34, 77
5, 24382, Note_off_c, 3, 46, 0
5, 24382, Note_off_c, 3, 34, 0
5, 29374, Control_c, 3, 64, 127
5, 29376, Note_on_c, 3, 46, 60
5, 29376, Note_on_c, 3, 34, 60
5, 31678, Note_off_c, 3, 34, 0
5, 31678, Note_off_c, 3, 46, 0
5, 31678, Control_c, 3, 64, 0
5, 31968, Note_on_c, 3, 60, 60
5, 31968, Note_on_c, 3, 53, 60
5, 32062, Note_off_c, 3, 60, 0
5, 32064, Note_on_c, 3, 57, 60
5, 32158, Note_off_c, 3, 57, 0
5, 32160, Note_on_c, 3, 53, 60
5, 32254, Note_off_c, 3, 53, 0
5, 32254, Note_off_c, 3, 53, 0
5, 32544, Note_on_c, 3, 62, 60
5, 32544, Note_on_c, 3, 50, 60
5, 32638, Note_off_c, 3, 62, 0
5, 32640, Note_on_c, 3, 58, 60
5, 32734, Note_off_c, 3, 58, 0
5, 32736, Note_on_c, 3, 53, 60
5, 32830, Note_off_c, 3, 50, 0
5, 32830, Note_off_c, 3, 53, 0
5, 34560, Note_on_c, 3, 55, 60
5, 34560, Note_on_c, 3, 43, 60
5, 34846, Note_off_c, 3, 55, 0
5, 34846, Note_off_c, 3, 43, 0
5, 34848, Note_on_c, 3, 57, 60
5, 34848, Note_on_c, 3, 45, 60
5, 35134, Note_off_c, 3, 57, 0
5, 35134, Note_off_c, 3, 45, 0
5, 35136, Note_on_c, 3, 58, 60
5, 35136, Note_on_c, 3, 46, 60
5, 35230, Note_off_c, 3, 58, 0
5, 35230, Note_off_c, 3, 46, 0
5, 35232, Note_on_c, 3, 57, 60
5, 35232, Note_on_c, 3, 45, 60
5, 35326, Note_off_c, 3, 57, 0
5, 35326, Note_off_c, 3, 45, 0
5, 35328, Note_on_c, 3, 58, 60
5, 35328, Note_on_c, 3, 46, 60
5, 35422, Note_off_c, 3, 58, 0
5, 35422, Note_off_c, 3, 46, 0
5, 35424, Note_on_c, 3, 51, 60
5, 35424, Note_on_c, 3, 39, 60
5, 35518, Note_off_c, 3, 51, 0
5, 35518, Note_off_c, 3, 39, 0
5, 35520, Note_on_c, 3, 53, 60
5, 35520, Note_on_c, 3, 41, 60
5, 35614, Note_off_c, 3, 53, 0
5, 35614, Note_off_c, 3, 41, 0
5, 35616, Note_on_c, 3, 53, 60
5, 35616, Note_on_c, 3, 41, 60
5, 35710, Note_off_c, 3, 53, 0
5, 35710, Note_off_c, 3, 41, 0
5, 35712, Note_on_c, 3, 46, 60
5, 35712, Note_on_c, 3, 34, 60
5, 35806, Note_off_c, 3, 46, 0
5, 35806, Note_off_c, 3, 34, 0
5, 38016, Note_on_c, 3, 53, 60
5, 38016, Note_on_c, 3, 46, 60
5, 38206, Note_off_c, 3, 46, 0
5, 38496, Note_on_c, 3, 41, 60
5, 38590, Note_off_c, 3, 53, 0
5, 38590, Note_off_c, 3, 41, 0
5, 38592, Note_on_c, 3, 53, 60
5, 38592, Note_on_c, 3, 46, 60
5, 38782, Note_off_c, 3, 46, 0
5, 39072, Note_on_c, 3, 41, 60
5, 39166, Note_off_c, 3, 53, 0
5, 39166, Note_off_c, 3, 41, 0
5, 39168, Note_on_c, 3, 53, 60
5, 39168, Note_on_c, 3, 46, 60
5, 39358, Note_off_c, 3, 53, 0
5, 39358, Note_off_c, 3, 46, 0
5, 41472, Note_on_c, 3, 65, 77
5, 41472, Note_on_c, 3, 53, 77
5, 41566, Note_off_c, 3, 65, 0
5, 41566, Note_off_c, 3, 53, 0
5, 41568, Note_on_c, 3, 65, 77
5, 41568, Note_on_c, 3, 53, 77
5, 41662, Note_off_c, 3, 65, 0
5, 41662, Note_off_c, 3, 53, 0
5, 41664, Note_on_c, 3, 65, 77
5, 41664, Note_on_c, 3, 53, 77
5, 41758, Note_off_c, 3, 65, 0
5, 41758, Note_off_c, 3, 53, 0
5, 41760, Note_on_c, 3, 65, 77
5, 41760, Note_on_c, 3, 53, 77
5, 41854, Note_off_c, 3, 65, 0
5, 41854, Note_off_c, 3, 53, 0
5, 41856, Note_on_c, 3, 65, 77
5, 41856, Note_on_c, 3, 53, 77
5, 41950, Note_off_c, 3, 65, 0
5, 41950, Note_off_c, 3, 53, 0
5, 41952, Note_on_c, 3, 65, 77
5, 41952, Note_on_c, 3, 53, 77
5, 42046, Note_off_c, 3, 65, 0
5, 42046, Note_off_c, 3, 53, 0
5, 42048, Note_on_c, 3, 65, 77
5, 42048, Note_on_c, 3, 53, 77
5, 42142, Note_off_c, 3, 65, 0
5, 42142, Note_off_c, 3, 53, 0
5, 42144, Note_on_c, 3, 65, 77
5, 42144, Note_on_c, 3, 53, 77
5, 42238, Note_off_c, 3, 65, 0
5, 42238, Note_off_c, 3, 53, 0
5, 42240, Note_on_c, 3, 53, 77
5, 42240, Note_on_c, 3, 65, 77
5, 42334, Note_off_c, 3, 53, 0
5, 42334, Note_off_c, 3, 65, 0
5, 42336, Note_on_c, 3, 65, 77
5, 42336, Note_on_c, 3, 53, 77
5, 42430, Note_off_c, 3, 65, 0
5, 42430, Note_off_c, 3, 53, 0
5, 42432, Note_on_c, 3, 65, 77
5, 42432, Note_on_c, 3, 53, 77
5, 42526, Note_off_c, 3, 65, 0
5, 42526, Note_off_c, 3, 53, 0
5, 42528, Note_on_c, 3, 65, 77
5, 42528, Note_on_c, 3, 53, 77
5, 42622, Note_off_c, 3, 65, 0
5, 42622, Note_off_c, 3, 53, 0
5, 42624, Note_on_c, 3, 53, 77
5, 42624, Note_on_c, 3, 65, 77
5, 42718, Note_off_c, 3, 53, 0
5, 42718, Note_off_c, 3, 65, 0
5, 42816, Note_on_c, 3, 41, 77
5, 42862, Note_off_c, 3, 41, 0
5, 42864, Note_on_c, 3, 43, 77
5, 42910, Note_off_c, 3, 43, 0
5, 42912, Note_on_c, 3, 45, 77
5, 43006, Note_off_c, 3, 45, 0
5, 43104, Note_on_c, 3, 43, 77
5, 43150, Note_off_c, 3, 43, 0
5, 43152, Note_on_c, 3, 45, 77
5, 43198, Note_off_c, 3, 45, 0
5, 43200, Note_on_c, 3, 46, 77
5, 43294, Note_off_c, 3, 46, 0
5, 43392, Note_on_c, 3, 43, 77
5, 43438, Note_off_c, 3, 43, 0
5, 43440, Note_on_c, 3, 45, 77
5, 43486, Note_off_c, 3, 45, 0
5, 43488, Note_on_c, 3, 47, 77
5, 43582, Note_off_c, 3, 47, 0
5, 43680, Note_on_c, 3, 45, 77
5, 43726, Note_off_c, 3, 45, 0
5, 43728, Note_on_c, 3, 47, 77
5, 43774, Note_off_c, 3, 47, 0
5, 43776, Note_on_c, 3, 48, 77
5, 43966, Note_off_c, 3, 48, 0
5, 44640, Note_on_c, 3, 52, 66
5, 44640, Note_on_c, 3, 46, 66
5, 44734, Note_off_c, 3, 52, 0
5, 44736, Note_on_c, 3, 53, 66
5, 44830, Note_off_c, 3, 53, 0
5, 44832, Note_on_c, 3, 55, 66
5, 44926, Note_off_c, 3, 46, 0
5, 44926, Note_off_c, 3, 55, 0
5, 44928, Note_on_c, 3, 45, 66
5, 44928, Note_on_c, 3, 57, 66
5, 45022, Note_off_c, 3, 45, 0
5, 45022, Note_off_c, 3, 57, 0
5, 45024, Note_on_c, 3, 58, 66
5, 45118, Note_off_c, 3, 58, 0
5, 45120, Note_on_c, 3, 60, 66
5, 45214, Note_off_c, 3, 60, 0
5, 45792, Note_on_c, 3, 58, 66
5, 45792, Note_on_c, 3, 46, 66
5, 46078, Note_off_c, 3, 58, 0
5, 46078, Note_off_c, 3, 46, 0
5, 46080, Note_on_c, 3, 57, 66
5, 46080, Note_on_c, 3, 45, 66
5, 46174, Note_off_c, 3, 57, 0
5, 46174, Note_off_c, 3, 45, 0
5, 46944, Note_on_c, 3, 48, 66
5, 46944, Note_on_c, 3, 36, 66
5, 47038, Note_off_c, 3, 48, 0
5, 47038, Note_off_c, 3, 36, 0
5, 47040, Note_on_c, 3, 50, 66
5, 47040, Note_on_c, 3, 38, 66
5, 47134, Note_off_c, 3, 50, 0
5, 47134, Note_off_c, 3, 38, 0
5, 47136, Note_on_c, 3, 51, 66
5, 47136, Note_on_c, 3, 39, 66
5, 47230, Note_off_c, 3, 51, 0
5, 47230, Note_off_c, 3, 39, 0
5, 47232, Note_on_c, 3, 53, 66
5, 47232, Note_on_c, 3, 41, 66
5, 47326, Note_off_c, 3, 53, 0
5, 47326, Note_off_c, 3, 41, 0
5, 47520, Note_on_c, 3, 57, 66
5, 47520, Note_on_c, 3, 45, 66
5, 47614, Note_off_c, 3, 57, 0
5, 47614, Note_off_c, 3, 45, 0
5, 47616, Note_on_c, 3, 63, 66
5, 47616, Note_on_c, 3, 60, 66
5, 47710, Note_off_c, 3, 63, 0
5, 47710, Note_off_c, 3, 60, 0
5, 47712, Note_on_c, 3, 63, 66
5, 47712, Note_on_c, 3, 60, 66
5, 47806, Note_off_c, 3, 63, 0
5, 47806, Note_off_c, 3, 60, 0
5, 47808, Note_on_c, 3, 58, 66
5, 47808, Note_on_c, 3, 46, 66
5, 47902, Note_off_c, 3, 58, 0
5, 47902, Note_off_c, 3, 46, 0
5, 47904, Note_on_c, 3, 58, 66
5, 47904, Note_on_c, 3, 62, 66
5, 47998, Note_off_c, 3, 58, 0
5, 47998, Note_off_c, 3, 62, 0
5, 48000, Note_on_c, 3, 58, 66
5, 48000, Note_on_c, 3, 62, 66
5, 48094, Note_off_c, 3, 58, 0
5, 48094, Note_off_c, 3, 62, 0
5, 48096, Note_on_c, 3, 59, 66
5, 48096, Note_on_c, 3, 47, 66
5, 48190, Note_off_c, 3, 59, 0
5, 48190, Note_off_c, 3, 47, 0
5, 48192, Note_on_c, 3, 62, 66
5, 48192, Note_on_c, 3, 65, 66
5, 48286, Note_off_c, 3, 62, 0
5, 48286, Note_off_c, 3, 65, 0
5, 48288, Note_on_c, 3, 62, 66
5, 48288, Note_on_c, 3, 65, 66
5, 48382, Note_off_c, 3, 62, 0
5, 48382, Note_off_c, 3, 65, 0
5, 48384, Note_on_c, 3, 62, 66
5, 48384, Note_on_c, 3, 50, 66
5, 48478, Note_off_c, 3, 62, 0
5, 48478, Note_off_c, 3, 50, 0
5, 48480, Note_on_c, 3, 60, 66
5, 48480, Note_on_c, 3, 64, 66
5, 48574, Note_off_c, 3, 60, 0
5, 48574, Note_off_c, 3, 64, 0
5, 48576, Note_on_c, 3, 60, 66
5, 48576, Note_on_c, 3, 64, 66
5, 48670, Note_off_c, 3, 60, 0
5, 48670, Note_off_c, 3, 64, 0
5, 48672, Note_on_c, 3, 61, 66
5, 48672, Note_on_c, 3, 49, 66
5, 48766, Note_off_c, 3, 61, 0
5, 48766, Note_off_c, 3, 49, 0
5, 48768, Note_on_c, 3, 67, 66
5, 48768, Note_on_c, 3, 64, 66
5, 48862, Note_off_c, 3, 67, 0
5, 48862, Note_off_c, 3, 64, 0
5, 48864, Note_on_c, 3, 67, 66
5, 48864, Note_on_c, 3, 64, 66
5, 48958, Note_off_c, 3, 67, 0
5, 48958, Note_off_c, 3, 64, 0
5, 48960, Note_on_c, 3, 62, 66
5, 48960, Note_on_c, 3, 50, 66
5, 49054, Note_off_c, 3, 62, 0
5, 49054, Note_off_c, 3, 50, 0
5, 49056, Note_on_c, 3, 60, 66
5, 49056, Note_on_c, 3, 63, 66
5, 49150, Note_off_c, 3, 60, 0
5, 49150, Note_off_c, 3, 63, 0
5, 49152, Note_on_c, 3, 62, 66
5, 49152, Note_on_c, 3, 65, 66
5, 49246, Note_off_c, 3, 62, 0
5, 49246, Note_off_c, 3, 65, 0
5, 49248, Note_on_c, 3, 64, 66
5, 49248, Note_on_c, 3, 52, 66
5, 49342, Note_off_c, 3, 64, 0
5, 49342, Note_off_c, 3, 52, 0
5, 49344, Note_on_c, 3, 67, 66
5, 49344, Note_on_c, 3, 70, 66
5, 49438, Note_off_c, 3, 67, 0
5, 49438, Note_off_c, 3, 70, 0
5, 49440, Note_on_c, 3, 70, 66
5, 49440, Note_on_c, 3, 67, 66
5, 49534, Note_off_c, 3, 70, 0
5, 49534, Note_off_c, 3, 67, 0
5, 49536, Note_on_c, 3, 65, 66
5, 49536, Note_on_c, 3, 53, 66
5, 49630, Note_off_c, 3, 65, 0
5, 49630, Note_off_c, 3, 53, 0
5, 49632, Note_on_c, 3, 65, 66
5, 49632, Note_on_c, 3, 69, 66
5, 49726, Note_off_c, 3, 65, 0
5, 49726, Note_off_c, 3, 69, 0
5, 49728, Note_on_c, 3, 65, 66
5, 49728, Note_on_c, 3, 69, 66
5, 49822, Note_off_c, 3, 65, 0
5, 49822, Note_off_c, 3, 69, 0
5, 49824, Note_on_c, 3, 58, 66
5, 49918, Note_off_c, 3, 58, 0
5, 49920, Note_on_c, 3, 57, 66
5, 50014, Note_off_c, 3, 57, 0
5, 50016, Note_on_c, 3, 58, 66
5, 50110, Note_off_c, 3, 58, 0
5, 50112, Note_on_c, 3, 64, 66
5, 50112, Note_on_c, 3, 52, 66
5, 50206, Note_off_c, 3, 64, 0
5, 50206, Note_off_c, 3, 52, 0
5, 50400, Note_on_c, 3, 57, 66
5, 50446, Note_off_c, 3, 57, 0
5, 50496, Note_on_c, 3, 56, 66
5, 50542, Note_off_c, 3, 56, 0
5, 50592, Note_on_c, 3, 57, 66
5, 50638, Note_off_c, 3, 57, 0
5, 50688, Note_on_c, 3, 62, 66
5, 50688, Note_on_c, 3, 50, 66
5, 50782, Note_off_c, 3, 62, 0
5, 50782, Note_off_c, 3, 50, 0
5, 51552, Note_on_c, 3, 58, 66
5, 51552, Note_on_c, 3, 55, 66
5, 51552, Note_on_c, 3, 48, 66
5, 51838, Note_off_c, 3, 58, 0
5, 51838, Note_off_c, 3, 55, 0
5, 51838, Note_off_c, 3, 48, 0
5, 51840, Note_on_c, 3, 57, 66
5, 51840, Note_on_c, 3, 53, 66
5, 51840, Note_on_c, 3, 50, 66
5, 52030, Note_off_c, 3, 57, 0
5, 52030, Note_off_c, 3, 53, 0
5, 52030, Note_off_c, 3, 50, 0
5, 57600, Note_on_c, 3, 57, 77
5, 57600, Note_on_c, 3, 60, 77
5, 57600, Note_on_c, 3, 53, 77
5, 57790, Note_off_c, 3, 53, 0
5, 58176, Note_on_c, 3, 53, 66
5, 58366, Note_off_c, 3, 53, 0
5, 58750, Note_off_c, 3, 57, 0
5, 58750, Note_off_c, 3, 60, 0
5, 58752, Note_on_c, 3, 53, 77
5, 58752, Note_on_c, 3, 58, 77
5, 58752, Note_on_c, 3, 62, 77
5, 58942, Note_off_c, 3, 53, 0
5, 59326, Note_off_c, 3, 58, 0
5, 59326, Note_off_c, 3, 62, 0
5, 59328, Note_on_c, 3, 53, 77
5, 59328, Note_on_c, 3, 55, 77
5, 59328, Note_on_c, 3, 58, 77
5, 59328, Note_on_c, 3, 64, 77
5, 59518, Note_off_c, 3, 53, 0
5, 59710, Note_off_c, 3, 55, 0
5, 59710, Note_off_c, 3, 58, 0
5, 59710, Note_off_c, 3, 64, 0
5, 59904, Note_on_c, 3, 53, 77
5, 59904, Note_on_c, 3, 57, 77
5, 59904, Note_on_c, 3, 65, 77
5, 60094, Note_off_c, 3, 53, 0
5, 60478, Note_off_c, 3, 57, 0
5, 60478, Note_off_c, 3, 65, 0
5, 60480, Note_on_c, 3, 53, 77
5, 60480, Note_on_c, 3, 57, 77
5, 60480, Note_on_c, 3, 60, 77
5, 60670, Note_off_c, 3, 53, 0
5, 61054, Note_off_c, 3, 57, 0
5, 61054, Note_off_c, 3, 60, 0
5, 61056, Note_on_c, 3, 53, 77
5, 61056, Note_on_c, 3, 58, 77
5, 61056, Note_on_c, 3, 62, 77
5, 61246, Note_off_c, 3, 53, 0
5, 61630, Note_off_c, 3, 58, 0
5, 61630, Note_off_c, 3, 62, 0
5, 61632, Note_on_c, 3, 53, 77
5, 61632, Note_on_c, 3, 58, 77
5, 61632, Note_on_c, 3, 64, 77
5, 61632, Note_on_c, 3, 55, 77
5, 61822, Note_off_c, 3, 53, 0
5, 62206, Note_off_c, 3, 58, 0
5, 62206, Note_off_c, 3, 64, 0
5, 62206, Note_off_c, 3, 55, 0
5, 62208, Note_on_c, 3, 65, 67
5, 62208, Note_on_c, 3, 57, 67
5, 62208, Note_on_c, 3, 53, 67
5, 62208, Note_on_c, 3, 60, 67
5, 62398, Note_off_c, 3, 65, 0
5, 62398, Note_off_c, 3, 57, 0
5, 62398, Note_off_c, 3, 53, 0
5, 62398, Note_off_c, 3, 60, 0
5, 63358, Control_c, 3, 64, 127
5, 63360, Note_on_c, 3, 41, 73
5, 63360, Note_on_c, 3, 53, 73
5, 64702, Note_off_c, 3, 41, 0
5, 64702, Note_off_c, 3, 53, 0
5, 64702, Control_c, 3, 64, 0
5, 78912, Note_on_c, 3, 46, 60
5, 82462, Note_off_c, 3, 46, 0
5, 82944, Note_on_c, 3, 65, 66
5, 83038, Note_off_c, 3, 65, 0
5, 83040, Note_on_c, 3, 65, 66
5, 83134, Note_off_c, 3, 65, 0
5, 83136, Note_on_c, 3, 64, 66
5, 83230, Note_off_c, 3, 64, 0
5, 83232, Note_on_c, 3, 65, 66
5, 83326, Note_off_c, 3, 65, 0
5, 83328, Note_on_c, 3, 63, 66
5, 83422, Note_off_c, 3, 63, 0
5, 83424, Note_on_c, 3, 60, 66
5, 83518, Note_off_c, 3, 60, 0
5, 83520, Note_on_c, 3, 58, 66
5, 83710, Note_off_c, 3, 58, 0
5, 84000, Note_on_c, 3, 46, 66
5, 84000, Note_on_c, 3, 34, 66
5, 84094, Note_off_c, 3, 46, 0
5, 84094, Note_off_c, 3, 34, 0
5, 84096, Note_on_c, 3, 58, 66
5, 84096, Note_on_c, 3, 46, 66
5, 84286, Note_off_c, 3, 58, 0
5, 84286, Note_off_c, 3, 46, 0
5, 84288, Note_on_c, 3, 58, 66
5, 84288, Note_on_c, 3, 46, 66
5, 84382, Note_off_c, 3, 58, 0
5, 84382, Note_off_c, 3, 46, 0
5, 84384, Note_on_c, 3, 58, 66
5, 84384, Note_on_c, 3, 46, 66
5, 84478, Note_off_c, 3, 58, 0
5, 84478, Note_off_c, 3, 46, 0
5, 84480, Note_on_c, 3, 60, 66
5, 84480, Note_on_c, 3, 48, 66
5, 84574, Note_off_c, 3, 60, 0
5, 84574, Note_off_c, 3, 48, 0
5, 84576, Note_on_c, 3, 62, 66
5, 84576, Note_on_c, 3, 50, 66
5, 84670, Note_off_c, 3, 62, 0
5, 84670, Note_off_c, 3, 50, 0
5, 84672, Note_on_c, 3, 63, 66
5, 84672, Note_on_c, 3, 51, 66
5, 84766, Note_off_c, 3, 63, 0
5, 84766, Note_off_c, 3, 51, 0
5, 84768, Note_on_c, 3, 51, 66
5, 84768, Note_on_c, 3, 39, 66
5, 84862, Note_off_c, 3, 51, 0
5, 84862, Note_off_c, 3, 39, 0
5, 84864, Note_on_c, 3, 51, 66
5, 84864, Note_on_c, 3, 39, 66
5, 84958, Note_off_c, 3, 51, 0
5, 84958, Note_off_c, 3, 39, 0
5, 84960, Note_on_c, 3, 51, 66
5, 84960, Note_on_c, 3, 39, 66
5, 85150, Note_off_c, 3, 51, 0
5, 85150, Note_off_c, 3, 39, 0
5, 85152, Note_on_c, 3, 51, 66
5, 85152, Note_on_c, 3, 39, 66
5, 85246, Note_off_c, 3, 51, 0
5, 85246, Note_off_c, 3, 39, 0
5, 85248, Note_on_c, 3, 55, 66
5, 85248, Note_on_c, 3, 43, 66
5, 85438, Note_off_c, 3, 55, 0
5, 85438, Note_off_c, 3, 43, 0
5, 85440, Note_on_c, 3, 55, 66
5, 85440, Note_on_c, 3, 43, 66
5, 85534, Note_off_c, 3, 55, 0
5, 85534, Note_off_c, 3, 43, 0
5, 85536, Note_on_c, 3, 55, 66
5, 85536, Note_on_c, 3, 43, 66
5, 85630, Note_off_c, 3, 55, 0
5, 85630, Note_off_c, 3, 43, 0
5, 85632, Note_on_c, 3, 57, 66
5, 85632, Note_on_c, 3, 45, 66
5, 85726, Note_off_c, 3, 57, 0
5, 85726, Note_off_c, 3, 45, 0
5, 85728, Note_on_c, 3, 59, 66
5, 85728, Note_on_c, 3, 47, 66
5, 85822, Note_off_c, 3, 59, 0
5, 85822, Note_off_c, 3, 47, 0
5, 85824, Note_on_c, 3, 60, 66
5, 85824, Note_on_c, 3, 48, 66
5, 85918, Note_off_c, 3, 60, 0
5, 85918, Note_off_c, 3, 48, 0
5, 85920, Note_on_c, 3, 48, 66
5, 85920, Note_on_c, 3, 36, 66
5, 86014, Note_off_c, 3, 48, 0
5, 86014, Note_off_c, 3, 36, 0
5, 86016, Note_on_c, 3, 48, 66
5, 86016, Note_on_c, 3, 36, 66
5, 86110, Note_off_c, 3, 48, 0
5, 86110, Note_off_c, 3, 36, 0
5, 86112, Note_on_c, 3, 48, 66
5, 86112, Note_on_c, 3, 36, 66
5, 86302, Note_off_c, 3, 48, 0
5, 86302, Note_off_c, 3, 36, 0
5, 86304, Note_on_c, 3, 48, 66
5, 86304, Note_on_c, 3, 36, 66
5, 86398, Note_off_c, 3, 48, 0
5, 86398, Note_off_c, 3, 36, 0
5, 86400, Note_on_c, 3, 53, 66
5, 86400, Note_on_c, 3, 41, 66
5, 86590, Note_off_c, 3, 53, 0
5, 86590, Note_off_c, 3, 41, 0
5, 86592, Note_on_c, 3, 53, 66
5, 86592, Note_on_c, 3, 41, 66
5, 86686, Note_off_c, 3, 53, 0
5, 86686, Note_off_c, 3, 41, 0
5, 86688, Note_on_c, 3, 53, 66
5, 86688, Note_on_c, 3, 41, 66
5, 86782, Note_off_c, 3, 53, 0
5, 86782, Note_off_c, 3, 41, 0
5, 86784, Note_on_c, 3, 55, 66
5, 86784, Note_on_c, 3, 43, 66
5, 86878, Note_off_c, 3, 55, 0
5, 86878, Note_off_c, 3, 43, 0
5, 86880, Note_on_c, 3, 57, 66
5, 86880, Note_on_c, 3, 45, 66
5, 86974, Note_off_c, 3, 57, 0
5, 86974, Note_off_c, 3, 45, 0
5, 86976, Note_on_c, 3, 58, 66
5, 86976, Note_on_c, 3, 46, 66
5, 87070, Note_off_c, 3, 58, 0
5, 87070, Note_off_c, 3, 46, 0
5, 87072, Note_on_c, 3, 57, 66
5, 87072, Note_on_c, 3, 45, 66
5, 87166, Note_off_c, 3, 57, 0
5, 87166, Note_off_c, 3, 45, 0
5, 87168, Note_on_c, 3, 58, 66
5, 87168, Note_on_c, 3, 46, 66
5, 87262, Note_off_c, 3, 58, 0
5, 87262, Note_off_c, 3, 46, 0
5, 87264, Note_on_c, 3, 55, 66
5, 87264, Note_on_c, 3, 43, 66
5, 87358, Note_off_c, 3, 55, 0
5, 87358, Note_off_c, 3, 43, 0
5, 87360, Note_on_c, 3, 54, 66
5, 87360, Note_on_c, 3, 42, 66
5, 87454, Note_off_c, 3, 54, 0
5, 87454, Note_off_c, 3, 42, 0
5, 87456, Note_on_c, 3, 55, 66
5, 87456, Note_on_c, 3, 43, 66
5, 87550, Note_off_c, 3, 55, 0
5, 87550, Note_off_c, 3, 43, 0
5, 87552, Note_on_c, 3, 52, 66
5, 87552, Note_on_c, 3, 40, 66
5, 87646, Note_off_c, 3, 52, 0
5, 87646, Note_off_c, 3, 40, 0
5, 87648, Note_on_c, 3, 50, 66
5, 87648, Note_on_c, 3, 38, 66
5, 87742, Note_off_c, 3, 50, 0
5, 87742, Note_off_c, 3, 38, 0
5, 87744, Note_on_c, 3, 52, 66
5, 87744, Note_on_c, 3, 40, 66
5, 87838, Note_off_c, 3, 52, 0
5, 87838, Note_off_c, 3, 40, 0
5, 87840, Note_on_c, 3, 54, 66
5, 87840, Note_on_c, 3, 42, 66
5, 87934, Note_off_c, 3, 54, 0
5, 87934, Note_off_c, 3, 42, 0
5, 87936, Note_on_c, 3, 52, 66
5, 87936, Note_on_c, 3, 40, 66
5, 88030, Note_off_c, 3, 52, 0
5, 88030, Note_off_c, 3, 40, 0
5, 88032, Note_on_c, 3, 54, 66
5, 88032, Note_on_c, 3, 42, 66
5, 88126, Note_off_c, 3, 54, 0
5, 88126, Note_off_c, 3, 42, 0
5, 88128, Note_on_c, 3, 55, 66
5, 88128, Note_on_c, 3, 43, 66
5, 88222, Note_off_c, 3, 55, 0
5, 88222, Note_off_c, 3, 43, 0
5, 88224, Note_on_c, 3, 55, 66
5, 88224, Note_on_c, 3, 43, 66
5, 88318, Note_off_c, 3, 55, 0
5, 88318, Note_off_c, 3, 43, 0
5, 88320, Note_on_c, 3, 55, 66
5, 88320, Note_on_c, 3, 43, 66
5, 88414, Note_off_c, 3, 55, 0
5, 88414, Note_off_c, 3, 43, 0
5, 88416, Note_on_c, 3, 53, 66
5, 88416, Note_on_c, 3, 41, 66
5, 88510, Note_off_c, 3, 53, 0
5, 88510, Note_off_c, 3, 41, 0
5, 88512, Note_on_c, 3, 53, 66
5, 88512, Note_on_c, 3, 41, 66
5, 88606, Note_off_c, 3, 53, 0
5, 88606, Note_off_c, 3, 41, 0
5, 88608, Note_on_c, 3, 53, 66
5, 88608, Note_on_c, 3, 41, 66
5, 88702, Note_off_c, 3, 53, 0
5, 88702, Note_off_c, 3, 41, 0
5, 88704, Note_on_c, 3, 52, 66
5, 88704, Note_on_c, 3, 40, 66
5, 88798, Note_off_c, 3, 52, 0
5, 88798, Note_off_c, 3, 40, 0
5, 88800, Note_on_c, 3, 52, 66
5, 88800, Note_on_c, 3, 40, 66
5, 88894, Note_off_c, 3, 52, 0
5, 88894, Note_off_c, 3, 40, 0
5, 88896, Note_on_c, 3, 52, 66
5, 88896, Note_on_c, 3, 40, 66
5, 88990, Note_off_c, 3, 52, 0
5, 88990, Note_off_c, 3, 40, 0
5, 88992, Note_on_c, 3, 51, 66
5, 88992, Note_on_c, 3, 39, 66
5, 89086, Note_off_c, 3, 51, 0
5, 89086, Note_off_c, 3, 39, 0
5, 89088, Note_on_c, 3, 51, 66
5, 89088, Note_on_c, 3, 39, 66
5, 89182, Note_off_c, 3, 51, 0
5, 89182, Note_off_c, 3, 39, 0
5, 89184, Note_on_c, 3, 51, 66
5, 89184, Note_on_c, 3, 39, 66
5, 89278, Note_off_c, 3, 51, 0
5, 89278, Note_off_c, 3, 39, 0
5, 89280, Note_on_c, 3, 50, 66
5, 89280, Note_on_c, 3, 38, 66
5, 89374, Note_off_c, 3, 50, 0
5, 89374, Note_off_c, 3, 38, 0
5, 89376, Note_on_c, 3, 57, 66
5, 89376, Note_on_c, 3, 50, 66
5, 89422, Note_off_c, 3, 57, 0
5, 89422, Note_off_c, 3, 50, 0
5, 89424, Note_on_c, 3, 62, 66
5, 89470, Note_off_c, 3, 62, 0
5, 89472, Note_on_c, 3, 57, 66
5, 89472, Note_on_c, 3, 50, 66
5, 89518, Note_off_c, 3, 57, 0
5, 89518, Note_off_c, 3, 50, 0
5, 89520, Note_on_c, 3, 62, 66
5, 89566, Note_off_c, 3, 62, 0
5, 89568, Note_on_c, 3, 54, 66
5, 89568, Note_on_c, 3, 50, 66
5, 89614, Note_off_c, 3, 54, 0
5, 89614, Note_off_c, 3, 50, 0
5, 89616, Note_on_c, 3, 62, 66
5, 89662, Note_off_c, 3, 62, 0
5, 89664, Note_on_c, 3, 54, 66
5, 89664, Note_on_c, 3, 50, 66
5, 89710, Note_off_c, 3, 54, 0
5, 89710, Note_off_c, 3, 50, 0
5, 89712, Note_on_c, 3, 62, 66
5, 89758, Note_off_c, 3, 62, 0
5, 89760, Note_on_c, 3, 54, 66
5, 89760, Note_on_c, 3, 50, 66
5, 89806, Note_off_c, 3, 54, 0
5, 89806, Note_off_c, 3, 50, 0
5, 89808, Note_on_c, 3, 62, 66
5, 89854, Note_off_c, 3, 62, 0
5, 89856, Note_on_c, 3, 55, 66
5, 89856, Note_on_c, 3, 50, 66
5, 89902, Note_off_c, 3, 55, 0
5, 89902, Note_off_c, 3, 50, 0
5, 89904, Note_on_c, 3, 62, 66
5, 89950, Note_off_c, 3, 62, 0
5, 89952, Note_on_c, 3, 55, 66
5, 89952, Note_on_c, 3, 50, 66
5, 89998, Note_off_c, 3, 55, 0
5, 89998, Note_off_c, 3, 50, 0
5, 90000, Note_on_c, 3, 62, 66
5, 90046, Note_off_c, 3, 62, 0
5, 90048, Note_on_c, 3, 55, 66
5, 90048, Note_on_c, 3, 50, 66
5, 90094, Note_off_c, 3, 55, 0
5, 90094, Note_off_c, 3, 50, 0
5, 90096, Note_on_c, 3, 62, 66
5, 90142, Note_off_c, 3, 62, 0
5, 90144, Note_on_c, 3, 58, 66
5, 90144, Note_on_c, 3, 50, 66
5, 90190, Note_off_c, 3, 58, 0
5, 90190, Note_off_c, 3, 50, 0
5, 90192, Note_on_c, 3, 62, 66
5, 90238, Note_off_c, 3, 62, 0
5, 90240, Note_on_c, 3, 58, 66
5, 90240, Note_on_c, 3, 50, 66
5, 90286, Note_off_c, 3, 58, 0
5, 90286, Note_off_c, 3, 50, 0
5, 90288, Note_on_c, 3, 62, 66
5, 90334, Note_off_c, 3, 62, 0
5, 90336, Note_on_c, 3, 58, 66
5, 90336, Note_on_c, 3, 50, 66
5, 90382, Note_off_c, 3, 58, 0
5, 90382, Note_off_c, 3, 50, 0
5, 90384, Note_on_c, 3, 62, 66
5, 90430, Note_off_c, 3, 62, 0
5, 90432, Note_on_c, 3, 57, 66
5, 90432, Note_on_c, 3, 50, 66
5, 90478, Note_off_c, 3, 57, 0
5, 90478, Note_off_c, 3, 50, 0
5, 90480, Note_on_c, 3, 62, 66
5, 90526, Note_off_c, 3, 62, 0
5, 90528, Note_on_c, 3, 57, 66
5, 90528, Note_on_c, 3, 50, 66
5, 90574, Note_off_c, 3, 57, 0
5, 90574, Note_off_c, 3, 50, 0
5, 90576, Note_on_c, 3, 62, 66
5, 90622, Note_off_c, 3, 62, 0
5, 90624, Note_on_c, 3, 57, 66
5, 90624, Note_on_c, 3, 50, 66
5, 90670, Note_off_c, 3, 57, 0
5, 90670, Note_off_c, 3, 50, 0
5, 90672, Note_on_c, 3, 62, 66
5, 90718, Note_off_c, 3, 62, 0
5, 90720, Note_on_c, 3, 53, 66
5, 90720, Note_on_c, 3, 50, 66
5, 90766, Note_off_c, 3, 53, 0
5, 90766, Note_off_c, 3, 50, 0
5, 90768, Note_on_c, 3, 62, 66
5, 90814, Note_off_c, 3, 62, 0
5, 90816, Note_on_c, 3, 53, 66
5, 90816, Note_on_c, 3, 50, 66
5, 90862, Note_off_c, 3, 53, 0
5, 90862, Note_off_c, 3, 50, 0
5, 90864, Note_on_c, 3, 62, 66
5, 90910, Note_off_c, 3, 62, 0
5, 90912, Note_on_c, 3, 54, 66
5, 90912, Note_on_c, 3, 50, 66
5, 90958, Note_off_c, 3, 54, 0
5, 90958, Note_off_c, 3, 50, 0
5, 90960, Note_on_c, 3, 62, 66
5, 91006, Note_off_c, 3, 62, 0
5, 91008, Note_on_c, 3, 55, 66
5, 91008, Note_on_c, 3, 50, 66
5, 91054, Note_off_c, 3, 55, 0
5, 91054, Note_off_c, 3, 50, 0
5, 91056, Note_on_c, 3, 62, 66
5, 91102, Note_off_c, 3, 62, 0
5, 91104, Note_on_c, 3, 55, 66
5, 91104, Note_on_c, 3, 50, 66
5, 91150, Note_off_c, 3, 55, 0
5, 91150, Note_off_c, 3, 50, 0
5, 91152, Note_on_c, 3, 62, 66
5, 91198, Note_off_c, 3, 62, 0
5, 91200, Note_on_c, 3, 55, 66
5, 91200, Note_on_c, 3, 50, 66
5, 91246, Note_off_c, 3, 55, 0
5, 91246, Note_off_c, 3, 50, 0
5, 91248, Note_on_c, 3, 62, 66
5, 91294, Note_off_c, 3, 62, 0
5, 91296, Note_on_c, 3, 58, 66
5, 91296, Note_on_c, 3, 50, 66
5, 91342, Note_off_c, 3, 58, 0
5, 91342, Note_off_c, 3, 50, 0
5, 91344, Note_on_c, 3, 62, 66
5, 91390, Note_off_c, 3, 62, 0
5, 91392, Note_on_c, 3, 58, 66
5, 91392, Note_on_c, 3, 50, 66
5, 91438, Note_off_c, 3, 58, 0
5, 91438, Note_off_c, 3, 50, 0
5, 91440, Note_on_c, 3, 62, 66
5, 91486, Note_off_c, 3, 62, 0
5, 91488, Note_on_c, 3, 58, 66
5, 91488, Note_on_c, 3, 50, 66
5, 91534, Note_off_c, 3, 58, 0
5, 91534, Note_off_c, 3, 50, 0
5, 91536, Note_on_c, 3, 62, 66
5, 91582, Note_off_c, 3, 62, 0
5, 91584, Note_on_c, 3, 62, 66
5, 91584, Note_on_c, 3, 57, 66
5, 91584, Note_on_c, 3, 50, 66
5, 91678, Note_off_c, 3, 62, 0
5, 91678, Note_off_c, 3, 57, 0
5, 91678, Note_off_c, 3, 50, 0
5, 91776, Note_on_c, 3, 50, 66
5, 91776, Note_on_c, 3, 38, 66
5, 91822, Note_off_c, 3, 50, 0
5, 91822, Note_off_c, 3, 38, 0
5, 91824, Note_on_c, 3, 50, 66
5, 91824, Note_on_c, 3, 38, 66
5, 91870, Note_off_c, 3, 50, 0
5, 91870, Note_off_c, 3, 38, 0
5, 91872, Note_on_c, 3, 50, 66
5, 91872, Note_on_c, 3, 38, 66
5, 92062, Note_off_c, 3, 50, 0
5, 92062, Note_off_c, 3, 38, 0
5, 92064, Note_on_c, 3, 50, 66
5, 92064, Note_on_c, 3, 38, 66
5, 92110, Note_off_c, 3, 50, 0
5, 92110, Note_off_c, 3, 38, 0
5, 92112, Note_on_c, 3, 50, 66
5, 92112, Note_on_c, 3, 38, 66
5, 92158, Note_off_c, 3, 50, 0
5, 92158, Note_off_c, 3, 38, 0
5, 92160, Note_on_c, 3, 50, 66
5, 92160, Note_on_c, 3, 38, 66
5, 92254, Note_off_c, 3, 50, 0
5, 92254, Note_off_c, 3, 38, 0
5, 92256, Note_on_c, 3, 50, 66
5, 92256, Note_on_c, 3, 38, 66
5, 92350, Note_off_c, 3, 50, 0
5, 92350, Note_off_c, 3, 38, 0
5, 92352, Note_on_c, 3, 50, 66
5, 92352, Note_on_c, 3, 38, 66
5, 92446, Note_off_c, 3, 50, 0
5, 92446, Note_off_c, 3, 38, 0
5, 92448, Note_on_c, 3, 50, 66
5, 92448, Note_on_c, 3, 38, 66
5, 92542, Note_off_c, 3, 50, 0
5, 92542, Note_off_c, 3, 38, 0
5, 92544, Note_on_c, 3, 50, 66
5, 92544, Note_on_c, 3, 38, 66
5, 92638, Note_off_c, 3, 50, 0
5, 92638, Note_off_c, 3, 38, 0
5, 92640, Note_on_c, 3, 50, 66
5, 92640, Note_on_c, 3, 38, 66
5, 92734, Note_off_c, 3, 50, 0
5, 92734, Note_off_c, 3, 38, 0
5, 92736, Note_on_c, 3, 50, 66
5, 92736, Note_on_c, 3, 38, 66
5, 92830, Note_off_c, 3, 50, 0
5, 92830, Note_off_c, 3, 38, 0
5, 93024, Note_on_c, 3, 50, 66
5, 93024, Note_on_c, 3, 38, 66
5, 93118, Note_off_c, 3, 50, 0
5, 93118, Note_off_c, 3, 38, 0
5, 93312, Note_on_c, 3, 50, 66
5, 93312, Note_on_c, 3, 38, 66
5, 93406, Note_off_c, 3, 50, 0
5, 93406, Note_off_c, 3, 38, 0
5, 93600, Note_on_c, 3, 50, 66
5, 93694, Note_off_c, 3, 50, 0
5, 93888, Note_on_c, 3, 62, 66
5, 93888, Note_on_c, 3, 50, 66
5, 94174, Note_off_c, 3, 62, 0
5, 94174, Note_off_c, 3, 50, 0
5, 94176, Note_on_c, 3, 65, 66
5, 94176, Note_on_c, 3, 53, 66
5, 94462, Note_off_c, 3, 65, 0
5, 94462, Note_off_c, 3, 53, 0
5, 94464, Note_on_c, 3, 62, 66
5, 94464, Note_on_c, 3, 50, 66
5, 94750, Note_off_c, 3, 62, 0
5, 94750, Note_off_c, 3, 50, 0
5, 94752, Note_on_c, 3, 58, 66
5, 94752, Note_on_c, 3, 46, 66
5, 95038, Note_off_c, 3, 58, 0
5, 95038, Note_off_c, 3, 46, 0
5, 95040, Note_on_c, 3, 63, 66
5, 95040, Note_on_c, 3, 51, 66
5, 95230, Note_off_c, 3, 63, 0
5, 95230, Note_off_c, 3, 51, 0
5, 102240, Note_on_c, 3, 46, 77
5, 102334, Note_off_c, 3, 46, 0
5, 102336, Note_on_c, 3, 45, 77
5, 102430, Note_off_c, 3, 45, 0
5, 102432, Note_on_c, 3, 43, 77
5, 102526, Note_off_c, 3, 43, 0
5, 102528, Note_on_c, 3, 41, 77
5, 102718, Note_off_c, 3, 41, 0
5, 103392, Note_on_c, 3, 47, 77
5, 103486, Note_off_c, 3, 47, 0
5, 103488, Note_on_c, 3, 46, 77
5, 103582, Note_off_c, 3, 46, 0
5, 103584, Note_on_c, 3, 45, 77
5, 103678, Note_off_c, 3, 45, 0
5, 103680, Note_on_c, 3, 43, 77
5, 103870, Note_off_c, 3, 43, 0
5, 106272, Note_on_c, 3, 51, 77
5, 106366, Note_off_c, 3, 51, 0
5, 106368, Note_on_c, 3, 53, 77
5, 106462, Note_off_c, 3, 53, 0
5, 106464, Note_on_c, 3, 55, 77
5, 106558, Note_off_c, 3, 55, 0
5, 106560, Note_on_c, 3, 56, 77
5, 106654, Note_off_c, 3, 56, 0
5, 106656, Note_on_c, 3, 55, 77
5, 106750, Note_off_c, 3, 55, 0
5, 106752, Note_on_c, 3, 56, 77
5, 106846, Note_off_c, 3, 56, 0
5, 106848, Note_on_c, 3, 50, 77
5, 106942, Note_off_c, 3, 50, 0
5, 106944, Note_on_c, 3, 51, 77
5, 107038, Note_off_c, 3, 51, 0
5, 107040, Note_on_c, 3, 53, 77
5, 107134, Note_off_c, 3, 53, 0
5, 107136, Note_on_c, 3, 55, 71
5, 107230, Note_off_c, 3, 55, 0
5, 107232, Note_on_c, 3, 54, 71
5, 107326, Note_off_c, 3, 54, 0
5, 107328, Note_on_c, 3, 55, 71
5, 107422, Note_off_c, 3, 55, 0
5, 107424, Note_on_c, 3, 48, 71
5, 107518, Note_off_c, 3, 48, 0
5, 107520, Note_on_c, 3, 50, 71
5, 107614, Note_off_c, 3, 50, 0
5, 107616, Note_on_c, 3, 51, 71
5, 107710, Note_off_c, 3, 51, 0
5, 107712, Note_on_c, 3, 53, 71
5, 107806, Note_off_c, 3, 53, 0
5, 107808, Note_on_c, 3, 52, 71
5, 107902, Note_off_c, 3, 52, 0
5, 107904, Note_on_c, 3, 53, 71
5, 107998, Note_off_c, 3, 53, 0
5, 108000, Note_on_c, 3, 50, 71
5, 108000, Note_on_c, 3, 46, 71
5, 108094, Note_off_c, 3, 50, 0
5, 108094, Note_off_c, 3, 46, 0
5, 108096, Note_on_c, 3, 52, 71
5, 108096, Note_on_c, 3, 48, 71
5, 108190, Note_off_c, 3, 52, 0
5, 108190, Note_off_c, 3, 48, 0
5, 108192, Note_on_c, 3, 53, 71
5, 108192, Note_on_c, 3, 50, 71
5, 108286, Note_off_c, 3, 53, 0
5, 108286, Note_off_c, 3, 50, 0
5, 108288, Note_on_c, 3, 51, 71
5, 108478, Note_off_c, 3, 51, 0
5, 110592, Note_on_c, 3, 51, 71
5, 110592, Note_on_c, 3, 39, 71
5, 110624, Note_on_c, 3, 29, 71
5, 110688, Note_on_c, 3, 55, 71
5, 110688, Note_on_c, 3, 58, 71
5, 110688, Note_on_c, 3, 63, 71
5, 110782, Note_off_c, 3, 51, 0
5, 110782, Note_off_c, 3, 39, 0
5, 110782, Note_off_c, 3, 55, 0
5, 110782, Note_off_c, 3, 58, 0
5, 110782, Note_off_c, 3, 63, 0
5, 110784, Note_on_c, 3, 55, 71
5, 110784, Note_on_c, 3, 63, 71
5, 110784, Note_on_c, 3, 58, 71
5, 110812, Note_off_c, 3, 29, 64
5, 110878, Note_off_c, 3, 55, 0
5, 110878, Note_off_c, 3, 63, 0
5, 110878, Note_off_c, 3, 58, 0
5, 110880, Note_on_c, 3, 55, 71
5, 110880, Note_on_c, 3, 58, 71
5, 110880, Note_on_c, 3, 63, 71
5, 110974, Note_off_c, 3, 55, 0
5, 110974, Note_off_c, 3, 58, 0
5, 110974, Note_off_c, 3, 63, 0
5, 110976, Note_on_c, 3, 55, 71
5, 110976, Note_on_c, 3, 58, 71
5, 110976, Note_on_c, 3, 63, 71
5, 111070, Note_off_c, 3, 55, 0
5, 111070, Note_off_c, 3, 58, 0
5, 111070, Note_off_c, 3, 63, 0
5, 111072, Note_on_c, 3, 55, 71
5, 111072, Note_on_c, 3, 58, 71
5, 111072, Note_on_c, 3, 63, 71
5, 111166, Note_off_c, 3, 55, 0
5, 111166, Note_off_c, 3, 58, 0
5, 111166, Note_off_c, 3, 63, 0
5, 111168, Note_on_c, 3, 51, 71
5, 111168, Note_on_c, 3, 39, 71
5, 111264, Note_on_c, 3, 58, 71
5, 111264, Note_on_c, 3, 63, 71
5, 111264, Note_on_c, 3, 55, 71
5, 111358, Note_off_c, 3, 51, 0
5, 111358, Note_off_c, 3, 39, 0
5, 111358, Note_off_c, 3, 58, 0
5, 111358, Note_off_c, 3, 63, 0
5, 111358, Note_off_c, 3, 55, 0
5, 111360, Note_on_c, 3, 55, 71
5, 111360, Note_on_c, 3, 58, 71
5, 111360, Note_on_c, 3, 63, 71
5, 111454, Note_off_c, 3, 55, 0
5, 111454, Note_off_c, 3, 58, 0
5, 111454, Note_off_c, 3, 63, 0
5, 111456, Note_on_c, 3, 55, 71
5, 111456, Note_on_c, 3, 58, 71
5, 111456, Note_on_c, 3, 63, 71
5, 111550, Note_off_c, 3, 55, 0
5, 111550, Note_off_c, 3, 58, 0
5, 111550, Note_off_c, 3, 63, 0
5, 111552, Note_on_c, 3, 55, 71
5, 111552, Note_on_c, 3, 58, 71
5, 111552, Note_on_c, 3, 63, 71
5, 111646, Note_off_c, 3, 55, 0
5, 111646, Note_off_c, 3, 58, 0
5, 111646, Note_off_c, 3, 63, 0
5, 111648, Note_on_c, 3, 55, 71
5, 111648, Note_on_c, 3, 58, 71
5, 111648, Note_on_c, 3, 63, 71
5, 111742, Note_off_c, 3, 55, 0
5, 111742, Note_off_c, 3, 58, 0
5, 111742, Note_off_c, 3, 63, 0
5, 111744, Note_on_c, 3, 51, 71
5, 111744, Note_on_c, 3, 39, 71
5, 111840, Note_on_c, 3, 56, 71
5, 111840, Note_on_c, 3, 60, 71
5, 111840, Note_on_c, 3, 65, 71
5, 111934, Note_off_c, 3, 51, 0
5, 111934, Note_off_c, 3, 39, 0
5, 111934, Note_off_c, 3, 56, 0
5, 111934, Note_off_c, 3, 60, 0
5, 111934, Note_off_c, 3, 65, 0
5, 111936, Note_on_c, 3, 56, 71
5, 111936, Note_on_c, 3, 60, 71
5, 111936, Note_on_c, 3, 65, 71
5, 112030, Note_off_c, 3, 56, 0
5, 112030, Note_off_c, 3, 60, 0
5, 112030, Note_off_c, 3, 65, 0
5, 112032, Note_on_c, 3, 56, 71
5, 112032, Note_on_c, 3, 65, 71
5, 112032, Note_on_c, 3, 60, 71
5, 112126, Note_off_c, 3, 56, 0
5, 112126, Note_off_c, 3, 65, 0
5, 112126, Note_off_c, 3, 60, 0
5, 112128, Note_on_c, 3, 56, 71
5, 112128, Note_on_c, 3, 60, 71
5, 112128, Note_on_c, 3, 65, 71
5, 112222, Note_off_c, 3, 56, 0
5, 112222, Note_off_c, 3, 60, 0
5, 112222, Note_off_c, 3, 65, 0
5, 112224, Note_on_c, 3, 56, 71
5, 112224, Note_on_c, 3, 65, 71
5, 112224, Note_on_c, 3, 60, 71
5, 112318, Note_off_c, 3, 56, 0
5, 112318, Note_off_c, 3, 65, 0
5, 112318, Note_off_c, 3, 60, 0
5, 112320, Note_on_c, 3, 50, 71
5, 112320, Note_on_c, 3, 39, 71
5, 112416, Note_on_c, 3, 56, 71
5, 112416, Note_on_c, 3, 65, 71
5, 112416, Note_on_c, 3, 58, 71
5, 112510, Note_off_c, 3, 50, 0
5, 112510, Note_off_c, 3, 39, 0
5, 112510, Note_off_c, 3, 56, 0
5, 112510, Note_off_c, 3, 65, 0
5, 112510, Note_off_c, 3, 58, 0
5, 112512, Note_on_c, 3, 56, 71
5, 112512, Note_on_c, 3, 65, 71
5, 112512, Note_on_c, 3, 58, 71
5, 112606, Note_off_c, 3, 56, 0
5, 112606, Note_off_c, 3, 65, 0
5, 112606, Note_off_c, 3, 58, 0
5, 112608, Note_on_c, 3, 56, 71
5, 112608, Note_on_c, 3, 58, 71
5, 112608, Note_on_c, 3, 65, 71
5, 112702, Note_off_c, 3, 56, 0
5, 112702, Note_off_c, 3, 58, 0
5, 112702, Note_off_c, 3, 65, 0
5, 112704, Note_on_c, 3, 56, 71
5, 112704, Note_on_c, 3, 65, 71
5, 112704, Note_on_c, 3, 58, 71
5, 112798, Note_off_c, 3, 56, 0
5, 112798, Note_off_c, 3, 65, 0
5, 112798, Note_off_c, 3, 58, 0
5, 112800, Note_on_c, 3, 56, 71
5, 112800, Note_on_c, 3, 58, 71
5, 112800, Note_on_c, 3, 65, 71
5, 112894, Note_off_c, 3, 56, 0
5, 112894, Note_off_c, 3, 58, 0
5, 112894, Note_off_c, 3, 65, 0
5, 112896, Note_on_c, 3, 49, 71
5, 112896, Note_on_c, 3, 37, 71
5, 113086, Note_off_c, 3, 49, 0
5, 113086, Note_off_c, 3, 37, 0
5, 113472, Note_on_c, 3, 48, 71
5, 113472, Note_on_c, 3, 36, 71
5, 113662, Note_off_c, 3, 48, 0
5, 113662, Note_off_c, 3, 36, 0
5, 113952, Note_on_c, 3, 60, 71
5, 113952, Note_on_c, 3, 58, 71
5, 113952, Note_on_c, 3, 64, 71
5, 114046, Note_off_c, 3, 60, 0
5, 114046, Note_off_c, 3, 58, 0
5, 114046, Note_off_c, 3, 64, 0
5, 114048, Note_on_c, 3, 53, 71
5, 114048, Note_on_c, 3, 41, 71
5, 114144, Note_on_c, 3, 56, 71
5, 114144, Note_on_c, 3, 60, 71
5, 114144, Note_on_c, 3, 65, 71
5, 114238, Note_off_c, 3, 53, 0
5, 114238, Note_off_c, 3, 41, 0
5, 114238, Note_off_c, 3, 56, 0
5, 114238, Note_off_c, 3, 60, 0
5, 114238, Note_off_c, 3, 65, 0
5, 114240, Note_on_c, 3, 56, 71
5, 114240, Note_on_c, 3, 60, 71
5, 114240, Note_on_c, 3, 65, 71
5, 114334, Note_off_c, 3, 56, 0
5, 114334, Note_off_c, 3, 60, 0
5, 114334, Note_off_c, 3, 65, 0
5, 114336, Note_on_c, 3, 56, 71
5, 114336, Note_on_c, 3, 60, 71
5, 114336, Note_on_c, 3, 65, 71
5, 114430, Note_off_c, 3, 56, 0
5, 114430, Note_off_c, 3, 60, 0
5, 114430, Note_off_c, 3, 65, 0
5, 114432, Note_on_c, 3, 56, 71
5, 114432, Note_on_c, 3, 60, 71
5, 114432, Note_on_c, 3, 65, 71
5, 114526, Note_off_c, 3, 56, 0
5, 114526, Note_off_c, 3, 60, 0
5, 114526, Note_off_c, 3, 65, 0
5, 114528, Note_on_c, 3, 56, 71
5, 114528, Note_on_c, 3, 60, 71
5, 114528, Note_on_c, 3, 65, 71
5, 114622, Note_off_c, 3, 56, 0
5, 114622, Note_off_c, 3, 60, 0
5, 114622, Note_off_c, 3, 65, 0
5, 114624, Note_on_c, 3, 53, 71
5, 114624, Note_on_c, 3, 41, 71
5, 114720, Note_on_c, 3, 56, 71
5, 114720, Note_on_c, 3, 65, 71
5, 114720, Note_on_c, 3, 60, 71
5, 114814, Note_off_c, 3, 53, 0
5, 114814, Note_off_c, 3, 41, 0
5, 114814, Note_off_c, 3, 56, 0
5, 114814, Note_off_c, 3, 65, 0
5, 114814, Note_off_c, 3, 60, 0
5, 114816, Note_on_c, 3, 56, 71
5, 114816, Note_on_c, 3, 60, 71
5, 114816, Note_on_c, 3, 65, 71
5, 114910, Note_off_c, 3, 56, 0
5, 114910, Note_off_c, 3, 60, 0
5, 114910, Note_off_c, 3, 65, 0
5, 114912, Note_on_c, 3, 56, 71
5, 114912, Note_on_c, 3, 60, 71
5, 114912, Note_on_c, 3, 65, 71
5, 115006, Note_off_c, 3, 56, 0
5, 115006, Note_off_c, 3, 60, 0
5, 115006, Note_off_c, 3, 65, 0
5, 115008, Note_on_c, 3, 56, 71
5, 115008, Note_on_c, 3, 65, 71
5, 115008, Note_on_c, 3, 60, 71
5, 115102, Note_off_c, 3, 56, 0
5, 115102, Note_off_c, 3, 65, 0
5, 115102, Note_off_c, 3, 60, 0
5, 115104, Note_on_c, 3, 56, 71
5, 115104, Note_on_c, 3, 60, 71
5, 115104, Note_on_c, 3, 65, 71
5, 115198, Note_off_c, 3, 56, 0
5, 115198, Note_off_c, 3, 60, 0
5, 115198, Note_off_c, 3, 65, 0
5, 115200, Note_on_c, 3, 53, 71
5, 115200, Note_on_c, 3, 41, 71
5, 115296, Note_on_c, 3, 58, 71
5, 115296, Note_on_c, 3, 67, 71
5, 115296, Note_on_c, 3, 61, 71
5, 115390, Note_off_c, 3, 53, 0
5, 115390, Note_off_c, 3, 41, 0
5, 115390, Note_off_c, 3, 58, 0
5, 115390, Note_off_c, 3, 67, 0
5, 115390, Note_off_c, 3, 61, 0
5, 115392, Note_on_c, 3, 58, 71
5, 115392, Note_on_c, 3, 61, 71
5, 115392, Note_on_c, 3, 67, 71
5, 115486, Note_off_c, 3, 58, 0
5, 115486, Note_off_c, 3, 61, 0
5, 115486, Note_off_c, 3, 67, 0
5, 115488, Note_on_c, 3, 58, 71
5, 115488, Note_on_c, 3, 61, 71
5, 115488, Note_on_c, 3, 67, 71
5, 115582, Note_off_c, 3, 58, 0
5, 115582, Note_off_c, 3, 61, 0
5, 115582, Note_off_c, 3, 67, 0
5, 115584, Note_on_c, 3, 58, 71
5, 115584, Note_on_c, 3, 61, 71
5, 115584, Note_on_c, 3, 67, 71
5, 115678, Note_off_c, 3, 58, 0
5, 115678, Note_off_c, 3, 61, 0
5, 115678, Note_off_c, 3, 67, 0
5, 115680, Note_on_c, 3, 61, 71
5, 115680, Note_on_c, 3, 67, 71
5, 115680, Note_on_c, 3, 58, 71
5, 115774, Note_off_c, 3, 61, 0
5, 115774, Note_off_c, 3, 67, 0
5, 115774, Note_off_c, 3, 58, 0
5, 115776, Note_on_c, 3, 52, 71
5, 115776, Note_on_c, 3, 40, 71
5, 115872, Note_on_c, 3, 58, 71
5, 115872, Note_on_c, 3, 67, 71
5, 115872, Note_on_c, 3, 60, 71
5, 115966, Note_off_c, 3, 52, 0
5, 115966, Note_off_c, 3, 40, 0
5, 115966, Note_off_c, 3, 58, 0
5, 115966, Note_off_c, 3, 67, 0
5, 115966, Note_off_c, 3, 60, 0
5, 115968, Note_on_c, 3, 58, 71
5, 115968, Note_on_c, 3, 67, 71
5, 115968, Note_on_c, 3, 60, 71
5, 116062, Note_off_c, 3, 58, 0
5, 116062, Note_off_c, 3, 67, 0
5, 116062, Note_off_c, 3, 60, 0
5, 116064, Note_on_c, 3, 58, 71
5, 116064, Note_on_c, 3, 67, 71
5, 116064, Note_on_c, 3, 60, 71
5, 116158, Note_off_c, 3, 58, 0
5, 116158, Note_off_c, 3, 67, 0
5, 116158, Note_off_c, 3, 60, 0
5, 116160, Note_on_c, 3, 67, 71
5, 116160, Note_on_c, 3, 58, 71
5, 116160, Note_on_c, 3, 60, 71
5, 116254, Note_off_c, 3, 67, 0
5, 116254, Note_off_c, 3, 58, 0
5, 116254, Note_off_c, 3, 60, 0
5, 116256, Note_on_c, 3, 58, 71
5, 116256, Note_on_c, 3, 67, 71
5, 116256, Note_on_c, 3, 60, 71
5, 116350, Note_off_c, 3, 58, 0
5, 116350, Note_off_c, 3, 67, 0
5, 116350, Note_off_c, 3, 60, 0
5, 116352, Note_on_c, 3, 51, 71
5, 116352, Note_on_c, 3, 39, 71
5, 116542, Note_off_c, 3, 51, 0
5, 116542, Note_off_c, 3, 39, 0
5, 116928, Note_on_c, 3, 50, 71
5, 116928, Note_on_c, 3, 38, 71
5, 117118, Note_off_c, 3, 50, 0
5, 117118, Note_off_c, 3, 38, 0
5, 117312, Note_on_c, 3, 57, 71
5, 117406, Note_off_c, 3, 57, 0
5, 117408, Note_on_c, 3, 50, 71
5, 117502, Note_off_c, 3, 50, 0
5, 117504, Note_on_c, 3, 55, 71
5, 117694, Note_off_c, 3, 55, 0
5, 117696, Note_on_c, 3, 55, 71
5, 117790, Note_off_c, 3, 55, 0
5, 117792, Note_on_c, 3, 55, 71
5, 117886, Note_off_c, 3, 55, 0
5, 117888, Note_on_c, 3, 57, 71
5, 117982, Note_off_c, 3, 57, 0
5, 117984, Note_on_c, 3, 58, 71
5, 118078, Note_off_c, 3, 58, 0
5, 118080, Note_on_c, 3, 58, 71
5, 118174, Note_off_c, 3, 58, 0
5, 118176, Note_on_c, 3, 48, 71
5, 118270, Note_off_c, 3, 48, 0
5, 118272, Note_on_c, 3, 48, 71
5, 118366, Note_off_c, 3, 48, 0
5, 118368, Note_on_c, 3, 48, 71
5, 118558, Note_off_c, 3, 48, 0
5, 118560, Note_on_c, 3, 48, 71
5, 118654, Note_off_c, 3, 48, 0
5, 118656, Note_on_c, 3, 53, 71
5, 118846, Note_off_c, 3, 53, 0
5, 118848, Note_on_c, 3, 53, 71
5, 118942, Note_off_c, 3, 53, 0
5, 118944, Note_on_c, 3, 53, 71
5, 119038, Note_off_c, 3, 53, 0
5, 119040, Note_on_c, 3, 55, 71
5, 119134, Note_off_c, 3, 55, 0
5, 119136, Note_on_c, 3, 56, 71
5, 119230, Note_off_c, 3, 56, 0
5, 119232, Note_on_c, 3, 56, 71
5, 119326, Note_off_c, 3, 56, 0
5, 119328, Note_on_c, 3, 46, 71
5, 119422, Note_off_c, 3, 46, 0
5, 119424, Note_on_c, 3, 46, 71
5, 119518, Note_off_c, 3, 46, 0
5, 119520, Note_on_c, 3, 46, 71
5, 119710, Note_off_c, 3, 46, 0
5, 119712, Note_on_c, 3, 46, 71
5, 119806, Note_off_c, 3, 46, 0
5, 119808, Note_on_c, 3, 51, 71
5, 119902, Note_off_c, 3, 51, 0
5, 119904, Note_on_c, 3, 53, 71
5, 119998, Note_off_c, 3, 53, 0
5, 120000, Note_on_c, 3, 55, 71
5, 120094, Note_off_c, 3, 55, 0
5, 120096, Note_on_c, 3, 44, 71
5, 120286, Note_off_c, 3, 44, 0
5, 120288, Note_on_c, 3, 44, 71
5, 120382, Note_off_c, 3, 44, 0
5, 120384, Note_on_c, 3, 50, 71
5, 120478, Note_off_c, 3, 50, 0
5, 120480, Note_on_c, 3, 51, 71
5, 120574, Note_off_c, 3, 51, 0
5, 120576, Note_on_c, 3, 53, 71
5, 120670, Note_off_c, 3, 53, 0
5, 120672, Note_on_c, 3, 43, 71
5, 120862, Note_off_c, 3, 43, 0
5, 127872, Note_on_c, 3, 45, 71
5, 127966, Note_off_c, 3, 45, 0
5, 127968, Note_on_c, 3, 57, 71
5, 127968, Note_on_c, 3, 61, 71
5, 127968, Note_on_c, 3, 64, 71
5, 128062, Note_off_c, 3, 57, 0
5, 128062, Note_off_c, 3, 61, 0
5, 128062, Note_off_c, 3, 64, 0
5, 128064, Note_on_c, 3, 57, 71
5, 128064, Note_on_c, 3, 61, 71
5, 128064, Note_on_c, 3, 64, 71
5, 128158, Note_off_c, 3, 57, 0
5, 128158, Note_off_c, 3, 61, 0
5, 128158, Note_off_c, 3, 64, 0
5, 128160, Note_on_c, 3, 57, 71
5, 128160, Note_on_c, 3, 61, 71
5, 128160, Note_on_c, 3, 64, 71
5, 128254, Note_off_c, 3, 57, 0
5, 128254, Note_off_c, 3, 61, 0
5, 128254, Note_off_c, 3, 64, 0
5, 128256, Note_on_c, 3, 57, 71
5, 128256, Note_on_c, 3, 61, 71
5, 128256, Note_on_c, 3, 64, 71
5, 128350, Note_off_c, 3, 57, 0
5, 128350, Note_off_c, 3, 61, 0
5, 128350, Note_off_c, 3, 64, 0
5, 128352, Note_on_c, 3, 57, 71
5, 128352, Note_on_c, 3, 61, 71
5, 128352, Note_on_c, 3, 64, 71
5, 128446, Note_off_c, 3, 57, 0
5, 128446, Note_off_c, 3, 61, 0
5, 128446, Note_off_c, 3, 64, 0
5, 128448, Note_on_c, 3, 45, 71
5, 128542, Note_off_c, 3, 45, 0
5, 128544, Note_on_c, 3, 57, 71
5, 128544, Note_on_c, 3, 64, 71
5, 128544, Note_on_c, 3, 61, 71
5, 128638, Note_off_c, 3, 57, 0
5, 128638, Note_off_c, 3, 64, 0
5, 128638, Note_off_c, 3, 61, 0
5, 128640, Note_on_c, 3, 57, 71
5, 128640, Note_on_c, 3, 64, 71
5, 128640, Note_on_c, 3, 61, 71
5, 128734, Note_off_c, 3, 57, 0
5, 128734, Note_off_c, 3, 64, 0
5, 128734, Note_off_c, 3, 61, 0
5, 128736, Note_on_c, 3, 57, 71
5, 128736, Note_on_c, 3, 61, 71
5, 128736, Note_on_c, 3, 64, 71
5, 128830, Note_off_c, 3, 57, 0
5, 128830, Note_off_c, 3, 61, 0
5, 128830, Note_off_c, 3, 64, 0
5, 128832, Note_on_c, 3, 57, 71
5, 128832, Note_on_c, 3, 61, 71
5, 128832, Note_on_c, 3, 64, 71
5, 128926, Note_off_c, 3, 57, 0
5, 128926, Note_off_c, 3, 61, 0
5, 128926, Note_off_c, 3, 64, 0
5, 128928, Note_on_c, 3, 57, 71
5, 128928, Note_on_c, 3, 61, 71
5, 128928, Note_on_c, 3, 64, 71
5, 129022, Note_off_c, 3, 57, 0
5, 129022, Note_off_c, 3, 61, 0
5, 129022, Note_off_c, 3, 64, 0
5, 129024, Note_on_c, 3, 45, 71
5, 129118, Note_off_c, 3, 45, 0
5, 129120, Note_on_c, 3, 57, 71
5, 129120, Note_on_c, 3, 60, 71
5, 129120, Note_on_c, 3, 64, 71
5, 129214, Note_off_c, 3, 57, 0
5, 129214, Note_off_c, 3, 60, 0
5, 129214, Note_off_c, 3, 64, 0
5, 129216, Note_on_c, 3, 57, 71
5, 129216, Note_on_c, 3, 60, 71
5, 129216, Note_on_c, 3, 64, 71
5, 129310, Note_off_c, 3, 57, 0
5, 129310, Note_off_c, 3, 60, 0
5, 129310, Note_off_c, 3, 64, 0
5, 129312, Note_on_c, 3, 57, 71
5, 129312, Note_on_c, 3, 60, 71
5, 129312, Note_on_c, 3, 64, 71
5, 129406, Note_off_c, 3, 57, 0
5, 129406, Note_off_c, 3, 60, 0
5, 129406, Note_off_c, 3, 64, 0
5, 129408, Note_on_c, 3, 57, 71
5, 129408, Note_on_c, 3, 60, 71
5, 129408, Note_on_c, 3, 64, 71
5, 129502, Note_off_c, 3, 57, 0
5, 129502, Note_off_c, 3, 60, 0
5, 129502, Note_off_c, 3, 64, 0
5, 129504, Note_on_c, 3, 57, 71
5, 129504, Note_on_c, 3, 60, 71
5, 129504, Note_on_c, 3, 64, 71
5, 129598, Note_off_c, 3, 57, 0
5, 129598, Note_off_c, 3, 60, 0
5, 129598, Note_off_c, 3, 64, 0
5, 129600, Note_on_c, 3, 45, 71
5, 129694, Note_off_c, 3, 45, 0
5, 129696, Note_on_c, 3, 57, 71
5, 129696, Note_on_c, 3, 60, 71
5, 129696, Note_on_c, 3, 64, 71
5, 129790, Note_off_c, 3, 57, 0
5, 129790, Note_off_c, 3, 60, 0
5, 129790, Note_off_c, 3, 64, 0
5, 129792, Note_on_c, 3, 57, 71
5, 129792, Note_on_c, 3, 60, 71
5, 129792, Note_on_c, 3, 64, 71
5, 129886, Note_off_c, 3, 57, 0
5, 129886, Note_off_c, 3, 60, 0
5, 129886, Note_off_c, 3, 64, 0
5, 129888, Note_on_c, 3, 57, 71
5, 129888, Note_on_c, 3, 60, 71
5, 129888, Note_on_c, 3, 64, 71
5, 129982, Note_off_c, 3, 57, 0
5, 129982, Note_off_c, 3, 60, 0
5, 129982, Note_off_c, 3, 64, 0
5, 129984, Note_on_c, 3, 57, 71
5, 129984, Note_on_c, 3, 60, 71
5, 129984, Note_on_c, 3, 64, 71
5, 130078, Note_off_c, 3, 57, 0
5, 130078, Note_off_c, 3, 60, 0
5, 130078, Note_off_c, 3, 64, 0
5, 130080, Note_on_c, 3, 57, 71
5, 130080, Note_on_c, 3, 60, 71
5, 130080, Note_on_c, 3, 64, 71
5, 130174, Note_off_c, 3, 57, 0
5, 130174, Note_off_c, 3, 60, 0
5, 130174, Note_off_c, 3, 64, 0
5, 130176, Note_on_c, 3, 45, 71
5, 130270, Note_off_c, 3, 45, 0
5, 130272, Note_on_c, 3, 57, 71
5, 130272, Note_on_c, 3, 60, 71
5, 130272, Note_on_c, 3, 66, 71
5, 130272, Note_on_c, 3, 63, 71
5, 130366, Note_off_c, 3, 57, 0
5, 130366, Note_off_c, 3, 60, 0
5, 130366, Note_off_c, 3, 66, 0
5, 130366, Note_off_c, 3, 63, 0
5, 130368, Note_on_c, 3, 57, 71
5, 130368, Note_on_c, 3, 63, 71
5, 130368, Note_on_c, 3, 66, 71
5, 130368, Note_on_c, 3, 60, 71
5, 130462, Note_off_c, 3, 57, 0
5, 130462, Note_off_c, 3, 63, 0
5, 130462, Note_off_c, 3, 66, 0
5, 130462, Note_off_c, 3, 60, 0
5, 130464, Note_on_c, 3, 57, 71
5, 130464, Note_on_c, 3, 60, 71
5, 130464, Note_on_c, 3, 63, 71
5, 130464, Note_on_c, 3, 66, 71
5, 130558, Note_off_c, 3, 57, 0
5, 130558, Note_off_c, 3, 60, 0
5, 130558, Note_off_c, 3, 63, 0
5, 130558, Note_off_c, 3, 66, 0
5, 130560, Note_on_c, 3, 57, 71
5, 130560, Note_on_c, 3, 60, 71
5, 130560, Note_on_c, 3, 63, 71
5, 130560, Note_on_c, 3, 66, 71
5, 130654, Note_off_c, 3, 57, 0
5, 130654, Note_off_c, 3, 60, 0
5, 130654, Note_off_c, 3, 63, 0
5, 130654, Note_off_c, 3, 66, 0
5, 130656, Note_on_c, 3, 57, 71
5, 130656, Note_on_c, 3, 60, 71
5, 130656, Note_on_c, 3, 63, 71
5, 130656, Note_on_c, 3, 66, 71
5, 130750, Note_off_c, 3, 57, 0
5, 130750, Note_off_c, 3, 60, 0
5, 130750, Note_off_c, 3, 63, 0
5, 130750, Note_off_c, 3, 66, 0
5, 130752, Note_on_c, 3, 45, 71
5, 130846, Note_off_c, 3, 45, 0
5, 130848, Note_on_c, 3, 57, 71
5, 130848, Note_on_c, 3, 60, 71
5, 130848, Note_on_c, 3, 63, 71
5, 130848, Note_on_c, 3, 66, 71
5, 130942, Note_off_c, 3, 57, 0
5, 130942, Note_off_c, 3, 60, 0
5, 130942, Note_off_c, 3, 63, 0
5, 130942, Note_off_c, 3, 66, 0
5, 130944, Note_on_c, 3, 57, 71
5, 130944, Note_on_c, 3, 60, 71
5, 130944, Note_on_c, 3, 63, 71
5, 130944, Note_on_c, 3, 66, 71
5, 131038, Note_off_c, 3, 57, 0
5, 131038, Note_off_c, 3, 60, 0
5, 131038, Note_off_c, 3, 63, 0
5, 131038, Note_off_c, 3, 66, 0
5, 131040, Note_on_c, 3, 57, 71
5, 131040, Note_on_c, 3, 60, 71
5, 131040, Note_on_c, 3, 63, 71
5, 131040, Note_on_c, 3, 66, 71
5, 131134, Note_off_c, 3, 57, 0
5, 131134, Note_off_c, 3, 60, 0
5, 131134, Note_off_c, 3, 63, 0
5, 131134, Note_off_c, 3, 66, 0
5, 131136, Note_on_c, 3, 57, 71
5, 131136, Note_on_c, 3, 66, 71
5, 131136, Note_on_c, 3, 60, 71
5, 131136, Note_on_c, 3, 63, 71
5, 131230, Note_off_c, 3, 57, 0
5, 131230, Note_off_c, 3, 66, 0
5, 131230, Note_off_c, 3, 60, 0
5, 131230, Note_off_c, 3, 63, 0
5, 131232, Note_on_c, 3, 57, 71
5, 131232, Note_on_c, 3, 60, 71
5, 131232, Note_on_c, 3, 63, 71
5, 131232, Note_on_c, 3, 66, 71
5, 131326, Note_off_c, 3, 57, 0
5, 131326, Note_off_c, 3, 60, 0
5, 131326, Note_off_c, 3, 63, 0
5, 131326, Note_off_c, 3, 66, 0
5, 131328, Note_on_c, 3, 45, 71
5, 131422, Note_off_c, 3, 45, 0
5, 131424, Note_on_c, 3, 57, 71
5, 131424, Note_on_c, 3, 60, 71
5, 131424, Note_on_c, 3, 63, 71
5, 131424, Note_on_c, 3, 65, 71
5, 131518, Note_off_c, 3, 57, 0
5, 131518, Note_off_c, 3, 60, 0
5, 131518, Note_off_c, 3, 63, 0
5, 131518, Note_off_c, 3, 65, 0
5, 131520, Note_on_c, 3, 57, 71
5, 131520, Note_on_c, 3, 60, 71
5, 131520, Note_on_c, 3, 63, 71
5, 131520, Note_on_c, 3, 65, 71
5, 131614, Note_off_c, 3, 57, 0
5, 131614, Note_off_c, 3, 60, 0
5, 131614, Note_off_c, 3, 63, 0
5, 131614, Note_off_c, 3, 65, 0
5, 131616, Note_on_c, 3, 63, 71
5, 131616, Note_on_c, 3, 57, 71
5, 131616, Note_on_c, 3, 60, 71
5, 131616, Note_on_c, 3, 65, 71
5, 131710, Note_off_c, 3, 63, 0
5, 131710, Note_off_c, 3, 57, 0
5, 131710, Note_off_c, 3, 60, 0
5, 131710, Note_off_c, 3, 65, 0
5, 131712, Note_on_c, 3, 57, 71
5, 131712, Note_on_c, 3, 60, 71
5, 131712, Note_on_c, 3, 63, 71
5, 131712, Note_on_c, 3, 65, 71
5, 131806, Note_off_c, 3, 57, 0
5, 131806, Note_off_c, 3, 60, 0
5, 131806, Note_off_c, 3, 63, 0
5, 131806, Note_off_c, 3, 65, 0
5, 131808, Note_on_c, 3, 57, 71
5, 131808, Note_on_c, 3, 60, 71
5, 131808, Note_on_c, 3, 63, 71
5, 131808, Note_on_c, 3, 65, 71
5, 131902, Note_off_c, 3, 57, 0
5, 131902, Note_off_c, 3, 60, 0
5, 131902, Note_off_c, 3, 63, 0
5, 131902, Note_off_c, 3, 65, 0
5, 131904, Note_on_c, 3, 45, 71
5, 131998, Note_off_c, 3, 45, 0
5, 132000, Note_on_c, 3, 57, 71
5, 132000, Note_on_c, 3, 63, 71
5, 132000, Note_on_c, 3, 65, 71
5, 132000, Note_on_c, 3, 60, 71
5, 132094, Note_off_c, 3, 57, 0
5, 132094, Note_off_c, 3, 63, 0
5, 132094, Note_off_c, 3, 65, 0
5, 132094, Note_off_c, 3, 60, 0
5, 132096, Note_on_c, 3, 57, 71
5, 132096, Note_on_c, 3, 60, 71
5, 132096, Note_on_c, 3, 63, 71
5, 132096, Note_on_c, 3, 65, 71
5, 132190, Note_off_c, 3, 57, 0
5, 132190, Note_off_c, 3, 60, 0
5, 132190, Note_off_c, 3, 63, 0
5, 132190, Note_off_c, 3, 65, 0
5, 132192, Note_on_c, 3, 57, 71
5, 132192, Note_on_c, 3, 60, 71
5, 132192, Note_on_c, 3, 63, 71
5, 132192, Note_on_c, 3, 65, 71
5, 132286, Note_off_c, 3, 57, 0
5, 132286, Note_off_c, 3, 60, 0
5, 132286, Note_off_c, 3, 63, 0
5, 132286, Note_off_c, 3, 65, 0
5, 132288, Note_on_c, 3, 57, 71
5, 132288, Note_on_c, 3, 63, 71
5, 132288, Note_on_c, 3, 60, 71
5, 132288, Note_on_c, 3, 65, 71
5, 132382, Note_off_c, 3, 57, 0
5, 132382, Note_off_c, 3, 63, 0
5, 132382, Note_off_c, 3, 60, 0
5, 132382, Note_off_c, 3, 65, 0
5, 132384, Note_on_c, 3, 63, 71
5, 132384, Note_on_c, 3, 65, 71
5, 132384, Note_on_c, 3, 60, 71
5, 132384, Note_on_c, 3, 57, 71
5, 132478, Note_off_c, 3, 63, 0
5, 132478, Note_off_c, 3, 65, 0
5, 132478, Note_off_c, 3, 60, 0
5, 132478, Note_off_c, 3, 57, 0
5, 132480, Note_on_c, 3, 63, 71
5, 132480, Note_on_c, 3, 60, 71
5, 132480, Note_on_c, 3, 57, 71
5, 132480, Note_on_c, 3, 53, 71
5, 133054, Note_off_c, 3, 63, 0
5, 133054, Note_off_c, 3, 60, 0
5, 133054, Note_off_c, 3, 57, 0
5, 133054, Note_off_c, 3, 53, 0
5, 133056, Note_on_c, 3, 63, 71
5, 133056, Note_on_c, 3, 60, 71
5, 133056, Note_on_c, 3, 57, 71
5, 133056, Note_on_c, 3, 53, 71
5, 133630, Note_off_c, 3, 63, 0
5, 133630, Note_off_c, 3, 60, 0
5, 133630, Note_off_c, 3, 57, 0
5, 133630, Note_off_c, 3, 53, 0
5, 133632, Note_on_c, 3, 63, 71
5, 133632, Note_on_c, 3, 60, 71
5, 133632, Note_on_c, 3, 57, 71
5, 133632, Note_on_c, 3, 53, 71
5, 134206, Note_off_c, 3, 63, 0
5, 134206, Note_off_c, 3, 60, 0
5, 134206, Note_off_c, 3, 57, 0
5, 134206, Note_off_c, 3, 53, 0
5, 134208, Note_on_c, 3, 63, 71
5, 134208, Note_on_c, 3, 60, 71
5, 134208, Note_on_c, 3, 57, 71
5, 134208, Note_on_c, 3, 53, 71
5, 134782, Note_off_c, 3, 63, 0
5, 134782, Note_off_c, 3, 60, 0
5, 134782, Note_off_c, 3, 57, 0
5, 134784, Note_off_c, 3, 53, 0
5, 134784, Note_on_c, 3, 46, 71
5, 135358, Note_off_c, 3, 46, 0
5, 135360, Note_on_c, 3, 46, 71
5, 135934, Note_off_c, 3, 46, 0
5, 135936, Note_on_c, 3, 46, 71
5, 136510, Note_off_c, 3, 46, 0
5, 136512, Note_on_c, 3, 46, 71
5, 137086, Note_off_c, 3, 46, 0
5, 137088, Note_on_c, 3, 46, 71
5, 137662, Note_off_c, 3, 46, 0
5, 137664, Note_on_c, 3, 46, 71
5, 138238, Note_off_c, 3, 46, 0
5, 138240, Note_on_c, 3, 46, 71
5, 138430, Note_off_c, 3, 46, 0
5, 138816, Note_on_c, 3, 65, 77
5, 138910, Note_off_c, 3, 65, 0
5, 138912, Note_on_c, 3, 65, 77
5, 139006, Note_off_c, 3, 65, 0
5, 139008, Note_on_c, 3, 64, 77
5, 139102, Note_off_c, 3, 64, 0
5, 139104, Note_on_c, 3, 65, 77
5, 139198, Note_off_c, 3, 65, 0
5, 139200, Note_on_c, 3, 63, 77
5, 139294, Note_off_c, 3, 63, 0
5, 139296, Note_on_c, 3, 60, 77
5, 139390, Note_off_c, 3, 60, 0
5, 139392, Note_on_c, 3, 58, 77
5, 139392, Note_on_c, 3, 46, 77
5, 139582, Note_off_c, 3, 58, 0
5, 139582, Note_off_c, 3, 46, 0
5, 140544, Note_on_c, 3, 58, 77
5, 140544, Note_on_c, 3, 46, 77
5, 140638, Note_off_c, 3, 58, 0
5, 140638, Note_off_c, 3, 46, 0
5, 141696, Note_on_c, 3, 58, 77
5, 141696, Note_on_c, 3, 46, 77
5, 141790, Note_off_c, 3, 58, 0
5, 141790, Note_off_c, 3, 46, 0
5, 143136, Note_on_c, 3, 65, 77
5, 143136, Note_on_c, 3, 53, 77
5, 143326, Note_off_c, 3, 65, 0
5, 143326, Note_off_c, 3, 53, 0
5, 143424, Note_on_c, 3, 58, 77
5, 143424, Note_on_c, 3, 46, 77
5, 143518, Note_off_c, 3, 58, 0
5, 143518, Note_off_c, 3, 46, 0
5, 144576, Note_on_c, 3, 55, 60
5, 144576, Note_on_c, 3, 58, 60
5, 144670, Note_off_c, 3, 55, 0
5, 144670, Note_off_c, 3, 58, 0
5, 144672, Note_on_c, 3, 55, 60
5, 144766, Note_off_c, 3, 55, 0
5, 144768, Note_on_c, 3, 57, 60
5, 144862, Note_off_c, 3, 57, 0
5, 144864, Note_on_c, 3, 58, 60
5, 144958, Note_off_c, 3, 58, 0
5, 144960, Note_on_c, 3, 58, 60
5, 145054, Note_off_c, 3, 58, 0
5, 145056, Note_on_c, 3, 60, 60
5, 145150, Note_off_c, 3, 60, 0
5, 145152, Note_on_c, 3, 62, 60
5, 145726, Note_off_c, 3, 62, 0
5, 145728, Note_on_c, 3, 63, 60
5, 145728, Note_on_c, 3, 51, 60
5, 145822, Note_off_c, 3, 63, 0
5, 145822, Note_off_c, 3, 51, 0
5, 145824, Note_on_c, 3, 51, 60
5, 145918, Note_off_c, 3, 51, 0
5, 145920, Note_on_c, 3, 53, 60
5, 146014, Note_off_c, 3, 53, 0
5, 146016, Note_on_c, 3, 55, 60
5, 146110, Note_off_c, 3, 55, 0
5, 146112, Note_on_c, 3, 55, 60
5, 146206, Note_off_c, 3, 55, 0
5, 146208, Note_on_c, 3, 56, 60
5, 146302, Note_off_c, 3, 56, 0
5, 146304, Note_on_c, 3, 58, 60
5, 146304, Note_on_c, 3, 65, 60
5, 146878, Note_off_c, 3, 58, 0
5, 146878, Note_off_c, 3, 65, 0
5, 146880, Note_on_c, 3, 51, 60
5, 146880, Note_on_c, 3, 39, 60
5, 147166, Note_off_c, 3, 51, 0
5, 147166, Note_off_c, 3, 39, 0
5, 147168, Note_on_c, 3, 51, 60
5, 147168, Note_on_c, 3, 39, 60
5, 147262, Note_off_c, 3, 51, 0
5, 147262, Note_off_c, 3, 39, 0
5, 147264, Note_on_c, 3, 51, 60
5, 147264, Note_on_c, 3, 39, 60
5, 147358, Note_off_c, 3, 51, 0
5, 147358, Note_off_c, 3, 39, 0
5, 147360, Note_on_c, 3, 51, 60
5, 147360, Note_on_c, 3, 39, 60
5, 147454, Note_off_c, 3, 51, 0
5, 147454, Note_off_c, 3, 39, 0
5, 147456, Note_on_c, 3, 53, 60
5, 147456, Note_on_c, 3, 41, 60
5, 147742, Note_off_c, 3, 53, 0
5, 147742, Note_off_c, 3, 41, 0
5, 147744, Note_on_c, 3, 53, 60
5, 147744, Note_on_c, 3, 41, 60
5, 147838, Note_off_c, 3, 53, 0
5, 147838, Note_off_c, 3, 41, 0
5, 147840, Note_on_c, 3, 53, 60
5, 147840, Note_on_c, 3, 41, 60
5, 147934, Note_off_c, 3, 53, 0
5, 147934, Note_off_c, 3, 41, 0
5, 147936, Note_on_c, 3, 53, 60
5, 147936, Note_on_c, 3, 41, 60
5, 148030, Note_off_c, 3, 53, 0
5, 148030, Note_off_c, 3, 41, 0
5, 148032, Note_on_c, 3, 55, 60
5, 148032, Note_on_c, 3, 43, 60
5, 148318, Note_off_c, 3, 55, 0
5, 148318, Note_off_c, 3, 43, 0
5, 148320, Note_on_c, 3, 55, 60
5, 148320, Note_on_c, 3, 43, 60
5, 148414, Note_off_c, 3, 55, 0
5, 148414, Note_off_c, 3, 43, 0
5, 148416, Note_on_c, 3, 55, 60
5, 148416, Note_on_c, 3, 43, 60
5, 148510, Note_off_c, 3, 55, 0
5, 148510, Note_off_c, 3, 43, 0
5, 148512, Note_on_c, 3, 55, 60
5, 148512, Note_on_c, 3, 43, 60
5, 148606, Note_off_c, 3, 55, 0
5, 148606, Note_off_c, 3, 43, 0
5, 148608, Note_on_c, 3, 57, 60
5, 148608, Note_on_c, 3, 45, 60
5, 148894, Note_off_c, 3, 57, 0
5, 148894, Note_off_c, 3, 45, 0
5, 148896, Note_on_c, 3, 57, 60
5, 148896, Note_on_c, 3, 45, 60
5, 148990, Note_off_c, 3, 57, 0
5, 148990, Note_off_c, 3, 45, 0
5, 148992, Note_on_c, 3, 57, 60
5, 148992, Note_on_c, 3, 45, 60
5, 149086, Note_off_c, 3, 57, 0
5, 149086, Note_off_c, 3, 45, 0
5, 149088, Note_on_c, 3, 57, 60
5, 149088, Note_on_c, 3, 45, 60
5, 149182, Note_off_c, 3, 57, 0
5, 149182, Note_off_c, 3, 45, 0
5, 149184, Note_on_c, 3, 58, 60
5, 149184, Note_on_c, 3, 46, 60
5, 149278, Note_off_c, 3, 58, 0
5, 149278, Note_off_c, 3, 46, 0
5, 149376, Note_on_c, 3, 62, 60
5, 149376, Note_on_c, 3, 50, 60
5, 149470, Note_off_c, 3, 62, 0
5, 149470, Note_off_c, 3, 50, 0
5, 149472, Note_on_c, 3, 60, 60
5, 149472, Note_on_c, 3, 51, 60
5, 149566, Note_off_c, 3, 60, 0
5, 149566, Note_off_c, 3, 51, 0
5, 149664, Note_on_c, 3, 60, 60
5, 149664, Note_on_c, 3, 52, 60
5, 149758, Note_off_c, 3, 60, 0
5, 149758, Note_off_c, 3, 52, 0
5, 149760, Note_on_c, 3, 60, 60
5, 149760, Note_on_c, 3, 53, 60
5, 149854, Note_off_c, 3, 60, 0
5, 149854, Note_off_c, 3, 53, 0
5, 149856, Note_on_c, 3, 53, 60
5, 149856, Note_on_c, 3, 65, 60
5, 149950, Note_off_c, 3, 53, 0
5, 149950, Note_off_c, 3, 65, 0
5, 149952, Note_on_c, 3, 53, 60
5, 149952, Note_on_c, 3, 65, 60
5, 150046, Note_off_c, 3, 53, 0
5, 150046, Note_off_c, 3, 65, 0
5, 150048, Note_on_c, 3, 53, 60
5, 150048, Note_on_c, 3, 65, 60
5, 150142, Note_off_c, 3, 53, 0
5, 150142, Note_off_c, 3, 65, 0
5, 150144, Note_on_c, 3, 53, 60
5, 150144, Note_on_c, 3, 65, 60
5, 150238, Note_off_c, 3, 53, 0
5, 150238, Note_off_c, 3, 65, 0
5, 150240, Note_on_c, 3, 53, 60
5, 150240, Note_on_c, 3, 65, 60
5, 150334, Note_off_c, 3, 53, 0
5, 150334, Note_off_c, 3, 65, 0
5, 150336, Note_on_c, 3, 53, 60
5, 150336, Note_on_c, 3, 65, 60
5, 150430, Note_off_c, 3, 53, 0
5, 150430, Note_off_c, 3, 65, 0
5, 150432, Note_on_c, 3, 53, 60
5, 150432, Note_on_c, 3, 65, 60
5, 150526, Note_off_c, 3, 53, 0
5, 150526, Note_off_c, 3, 65, 0
5, 150528, Note_on_c, 3, 53, 60
5, 150528, Note_on_c, 3, 65, 60
5, 150622, Note_off_c, 3, 53, 0
5, 150622, Note_off_c, 3, 65, 0
5, 150624, Note_on_c, 3, 53, 60
5, 150624, Note_on_c, 3, 65, 60
5, 150718, Note_off_c, 3, 53, 0
5, 150718, Note_off_c, 3, 65, 0
5, 150720, Note_on_c, 3, 53, 60
5, 150720, Note_on_c, 3, 65, 60
5, 150814, Note_off_c, 3, 53, 0
5, 150814, Note_off_c, 3, 65, 0
5, 150816, Note_on_c, 3, 53, 60
5, 150816, Note_on_c, 3, 65, 60
5, 150910, Note_off_c, 3, 53, 0
5, 150910, Note_off_c, 3, 65, 0
5, 150912, Note_on_c, 3, 65, 60
5, 150912, Note_on_c, 3, 53, 60
5, 151006, Note_off_c, 3, 65, 0
5, 151006, Note_off_c, 3, 53, 0
5, 151104, Note_on_c, 3, 41, 60
5, 151150, Note_off_c, 3, 41, 0
5, 151152, Note_on_c, 3, 43, 60
5, 151198, Note_off_c, 3, 43, 0
5, 151200, Note_on_c, 3, 45, 60
5, 151294, Note_off_c, 3, 45, 64
5, 151392, Note_on_c, 3, 45, 60
5, 151438, Note_off_c, 3, 45, 0
5, 151440, Note_on_c, 3, 46, 60
5, 151488, Note_off_c, 3, 46, 0
5, 151488, Note_on_c, 3, 48, 60
5, 151582, Note_off_c, 3, 48, 0
5, 151680, Note_on_c, 3, 45, 60
5, 151726, Note_off_c, 3, 45, 0
5, 151728, Note_on_c, 3, 46, 60
5, 151774, Note_off_c, 3, 46, 0
5, 151776, Note_on_c, 3, 48, 60
5, 151870, Note_off_c, 3, 48, 0
5, 151968, Note_on_c, 3, 50, 60
5, 152014, Note_off_c, 3, 50, 0
5, 152016, Note_on_c, 3, 52, 60
5, 152064, Note_off_c, 3, 52, 0
5, 152064, Note_on_c, 3, 53, 60
5, 152254, Note_off_c, 3, 53, 0
5, 152928, Note_on_c, 3, 57, 60
5, 152928, Note_on_c, 3, 51, 60
5, 153022, Note_off_c, 3, 57, 0
5, 153024, Note_on_c, 3, 58, 60
5, 153118, Note_off_c, 3, 58, 0
5, 153120, Note_on_c, 3, 60, 60
5, 153214, Note_off_c, 3, 51, 0
5, 153214, Note_off_c, 3, 60, 0
5, 153216, Note_on_c, 3, 50, 60
5, 153216, Note_on_c, 3, 62, 60
5, 153310, Note_off_c, 3, 50, 0
5, 153310, Note_off_c, 3, 62, 0
5, 153312, Note_on_c, 3, 63, 60
5, 153406, Note_off_c, 3, 63, 0
5, 153408, Note_on_c, 3, 65, 60
5, 153502, Note_off_c, 3, 65, 0
5, 154080, Note_on_c, 3, 63, 60
5, 154080, Note_on_c, 3, 51, 60
5, 154366, Note_off_c, 3, 63, 0
5, 154366, Note_off_c, 3, 51, 0
5, 154368, Note_on_c, 3, 62, 60
5, 154368, Note_on_c, 3, 50, 60
5, 154510, Note_off_c, 3, 62, 0
5, 154510, Note_off_c, 3, 50, 0
5, 155232, Note_on_c, 3, 53, 66
5, 155232, Note_on_c, 3, 41, 66
5, 155326, Note_off_c, 3, 53, 0
5, 155326, Note_off_c, 3, 41, 0
5, 155328, Note_on_c, 3, 55, 66
5, 155328, Note_on_c, 3, 43, 66
5, 155422, Note_off_c, 3, 55, 0
5, 155422, Note_off_c, 3, 43, 0
5, 155424, Note_on_c, 3, 57, 66
5, 155424, Note_on_c, 3, 45, 66
5, 155518, Note_off_c, 3, 57, 0
5, 155518, Note_off_c, 3, 45, 0
5, 155520, Note_on_c, 3, 58, 66
5, 155520, Note_on_c, 3, 46, 66
5, 155614, Note_off_c, 3, 58, 0
5, 155614, Note_off_c, 3, 46, 0
5, 155808, Note_on_c, 3, 62, 66
5, 155808, Note_on_c, 3, 50, 66
5, 155902, Note_off_c, 3, 62, 0
5, 155902, Note_off_c, 3, 50, 0
5, 158112, Note_on_c, 3, 63, 66
5, 158112, Note_on_c, 3, 51, 66
5, 158206, Note_off_c, 3, 63, 0
5, 158206, Note_off_c, 3, 51, 0
5, 158208, Note_on_c, 3, 62, 66
5, 158208, Note_on_c, 3, 50, 66
5, 158302, Note_off_c, 3, 62, 0
5, 158302, Note_off_c, 3, 50, 0
5, 158304, Note_on_c, 3, 63, 66
5, 158304, Note_on_c, 3, 51, 66
5, 158398, Note_off_c, 3, 63, 0
5, 158398, Note_off_c, 3, 51, 0
5, 158400, Note_on_c, 3, 57, 66
5, 158400, Note_on_c, 3, 45, 66
5, 158494, Note_off_c, 3, 57, 0
5, 158494, Note_off_c, 3, 45, 0
5, 158688, Note_on_c, 3, 62, 66
5, 158688, Note_on_c, 3, 50, 66
5, 158782, Note_off_c, 3, 62, 0
5, 158782, Note_off_c, 3, 50, 0
5, 158784, Note_on_c, 3, 61, 66
5, 158784, Note_on_c, 3, 49, 66
5, 158878, Note_off_c, 3, 61, 0
5, 158878, Note_off_c, 3, 49, 0
5, 158880, Note_on_c, 3, 62, 66
5, 158880, Note_on_c, 3, 50, 66
5, 158974, Note_off_c, 3, 62, 0
5, 158974, Note_off_c, 3, 50, 0
5, 158976, Note_on_c, 3, 55, 66
5, 158976, Note_on_c, 3, 43, 66
5, 159070, Note_off_c, 3, 55, 0
5, 159070, Note_off_c, 3, 43, 0
5, 159552, Note_on_c, 3, 48, 66
5, 159552, Note_on_c, 3, 36, 66
5, 159838, Note_off_c, 3, 48, 0
5, 159838, Note_off_c, 3, 36, 0
5, 159840, Note_on_c, 3, 53, 66
5, 159840, Note_on_c, 3, 41, 66
5, 160126, Note_off_c, 3, 53, 0
5, 160128, Note_off_c, 3, 41, 0
5, 160128, Note_on_c, 3, 46, 66
5, 160128, Note_on_c, 3, 34, 66
5, 160222, Note_off_c, 3, 46, 0
5, 160222, Note_off_c, 3, 34, 0
5, 165888, Note_on_c, 3, 58, 66
5, 165888, Note_on_c, 3, 53, 66
5, 165888, Note_on_c, 3, 50, 66
5, 165888, Note_on_c, 3, 46, 66
5, 166462, Note_off_c, 3, 58, 0
5, 166462, Note_off_c, 3, 53, 0
5, 166462, Note_off_c, 3, 50, 0
5, 166462, Note_off_c, 3, 46, 0
5, 166464, Note_on_c, 3, 56, 66
5, 166464, Note_on_c, 3, 53, 66
5, 166464, Note_on_c, 3, 50, 66
5, 166464, Note_on_c, 3, 46, 66
5, 167038, Note_off_c, 3, 56, 0
5, 167038, Note_off_c, 3, 53, 0
5, 167038, Note_off_c, 3, 50, 0
5, 167038, Note_off_c, 3, 46, 0
5, 167040, Note_on_c, 3, 55, 66
5, 167040, Note_on_c, 3, 51, 66
5, 167040, Note_on_c, 3, 46, 66
5, 167614, Note_off_c, 3, 55, 0
5, 167614, Note_off_c, 3, 51, 0
5, 167614, Note_off_c, 3, 46, 0
5, 167616, Note_on_c, 3, 57, 66
5, 167616, Note_on_c, 3, 53, 66
5, 167616, Note_on_c, 3, 51, 66
5, 167616, Note_on_c, 3, 48, 66
5, 167616, Note_on_c, 3, 46, 66
5, 168190, Note_off_c, 3, 57, 0
5, 168190, Note_off_c, 3, 53, 0
5, 168190, Note_off_c, 3, 51, 0
5, 168190, Note_off_c, 3, 48, 0
5, 168190, Note_off_c, 3, 46, 0
5, 168192, Note_on_c, 3, 58, 66
5, 168192, Note_on_c, 3, 53, 66
5, 168192, Note_on_c, 3, 50, 66
5, 168192, Note_on_c, 3, 46, 66
5, 168766, Note_off_c, 3, 58, 0
5, 168766, Note_off_c, 3, 53, 0
5, 168766, Note_off_c, 3, 50, 0
5, 168766, Note_off_c, 3, 46, 0
5, 168768, Note_on_c, 3, 56, 66
5, 168768, Note_on_c, 3, 53, 66
5, 168768, Note_on_c, 3, 50, 66
5, 168768, Note_on_c, 3, 46, 66
5, 169342, Note_off_c, 3, 56, 0
5, 169342, Note_off_c, 3, 53, 0
5, 169342, Note_off_c, 3, 50, 0
5, 169342, Note_off_c, 3, 46, 0
5, 169344, Note_on_c, 3, 55, 66
5, 169344, Note_on_c, 3, 51, 66
5, 169344, Note_on_c, 3, 46, 66
5, 169534, Note_off_c, 3, 46, 0
5, 169632, Note_on_c, 3, 46, 66
5, 169822, Note_off_c, 3, 46, 0
5, 169918, Note_off_c, 3, 55, 0
5, 169918, Note_off_c, 3, 51, 0
5, 169920, Note_on_c, 3, 46, 66
5, 169920, Note_on_c, 3, 57, 66
5, 169920, Note_on_c, 3, 53, 66
5, 169920, Note_on_c, 3, 51, 66
5, 170110, Note_off_c, 3, 46, 0
5, 170208, Note_on_c, 3, 46, 66
5, 170398, Note_off_c, 3, 46, 0
5, 170494, Note_off_c, 3, 57, 0
5, 170494, Note_off_c, 3, 53, 0
5, 170494, Note_off_c, 3, 51, 0
5, 170496, Note_on_c, 3, 58, 66
5, 170496, Note_on_c, 3, 53, 66
5, 170496, Note_on_c, 3, 50, 66
5, 170496, Note_on_c, 3, 46, 66
5, 170686, Note_off_c, 3, 58, 0
5, 170686, Note_off_c, 3, 53, 0
5, 170686, Note_off_c, 3, 50, 0
5, 170686, Note_off_c, 3, 46, 0
5, 170784, Note_on_c, 3, 50, 66
5, 171070, Note_off_c, 3, 50, 0
5, 171072, Note_on_c, 3, 51, 66
5, 171262, Note_off_c, 3, 51, 0
5, 171264, Note_on_c, 3, 52, 66
5, 171358, Note_off_c, 3, 52, 0
5, 171360, Note_on_c, 3, 53, 66
5, 171550, Note_off_c, 3, 53, 0
5, 171552, Note_on_c, 3, 54, 66
5, 171646, Note_off_c, 3, 54, 0
5, 171648, Note_on_c, 3, 55, 66
5, 171934, Note_off_c, 3, 55, 0
5, 171936, Note_on_c, 3, 56, 66
5, 172222, Note_off_c, 3, 56, 0
5, 172224, Note_on_c, 3, 55, 66
5, 172510, Note_off_c, 3, 55, 0
5, 172512, Note_on_c, 3, 54, 66
5, 172798, Note_off_c, 3, 54, 0
5, 172800, Note_on_c, 3, 53, 66
5, 172894, Note_off_c, 3, 53, 0
5, 172896, Note_on_c, 3, 53, 66
5, 172990, Note_off_c, 3, 53, 0
5, 172992, Note_on_c, 3, 53, 66
5, 173086, Note_off_c, 3, 53, 0
5, 173088, Note_on_c, 3, 51, 66
5, 173182, Note_off_c, 3, 51, 0
5, 173184, Note_on_c, 3, 51, 66
5, 173278, Note_off_c, 3, 51, 0
5, 173280, Note_on_c, 3, 51, 66
5, 173376, Note_off_c, 3, 51, 0
5, 173376, Note_on_c, 3, 53, 66
5, 173470, Note_off_c, 3, 53, 0
5, 173472, Note_on_c, 3, 53, 66
5, 173566, Note_off_c, 3, 53, 0
5, 173568, Note_on_c, 3, 53, 66
5, 173662, Note_off_c, 3, 53, 0
5, 173664, Note_on_c, 3, 53, 66
5, 173758, Note_off_c, 3, 53, 0
5, 173760, Note_on_c, 3, 53, 66
5, 173854, Note_off_c, 3, 53, 0
5, 173856, Note_on_c, 3, 53, 66
5, 173950, Note_off_c, 3, 53, 0
5, 173952, Note_on_c, 3, 58, 77
5, 174238, Note_off_c, 3, 58, 0
5, 174240, Note_on_c, 3, 50, 82
5, 174240, Note_on_c, 3, 46, 82
5, 174240, Note_on_c, 3, 38, 82
5, 174526, Note_off_c, 3, 50, 0
5, 174526, Note_off_c, 3, 46, 0
5, 174526, Note_off_c, 3, 38, 0
5, 174528, Note_on_c, 3, 51, 77
5, 174528, Note_on_c, 3, 39, 77
5, 174718, Note_off_c, 3, 51, 0
5, 174718, Note_off_c, 3, 39, 0
5, 174720, Note_on_c, 3, 52, 77
5, 174720, Note_on_c, 3, 40, 77
5, 174814, Note_off_c, 3, 52, 0
5, 174814, Note_off_c, 3, 40, 0
5, 174816, Note_on_c, 3, 53, 77
5, 174816, Note_on_c, 3, 41, 77
5, 175006, Note_off_c, 3, 53, 0
5, 175006, Note_off_c, 3, 41, 0
5, 175008, Note_on_c, 3, 54, 77
5, 175008, Note_on_c, 3, 42, 77
5, 175102, Note_off_c, 3, 54, 0
5, 175102, Note_off_c, 3, 42, 0
5, 175104, Note_on_c, 3, 55, 77
5, 175104, Note_on_c, 3, 46, 77
5, 175104, Note_on_c, 3, 43, 77
5, 175198, Note_off_c, 3, 55, 0
5, 175198, Note_off_c, 3, 46, 0
5, 175198, Note_off_c, 3, 43, 0
5, 175200, Note_on_c, 3, 55, 77
5, 175200, Note_on_c, 3, 46, 77
5, 175200, Note_on_c, 3, 43, 77
5, 175294, Note_off_c, 3, 55, 0
5, 175294, Note_off_c, 3, 46, 0
5, 175294, Note_off_c, 3, 43, 0
5, 175296, Note_on_c, 3, 55, 77
5, 175296, Note_on_c, 3, 46, 77
5, 175296, Note_on_c, 3, 43, 77
5, 175390, Note_off_c, 3, 55, 0
5, 175390, Note_off_c, 3, 46, 0
5, 175390, Note_off_c, 3, 43, 0
5, 175392, Note_on_c, 3, 56, 77
5, 175392, Note_on_c, 3, 44, 77
5, 175392, Note_on_c, 3, 46, 77
5, 175486, Note_off_c, 3, 56, 0
5, 175486, Note_off_c, 3, 44, 0
5, 175486, Note_off_c, 3, 46, 0
5, 175488, Note_on_c, 3, 56, 77
5, 175488, Note_on_c, 3, 46, 77
5, 175488, Note_on_c, 3, 44, 77
5, 175582, Note_off_c, 3, 56, 0
5, 175582, Note_off_c, 3, 46, 0
5, 175582, Note_off_c, 3, 44, 0
5, 175584, Note_on_c, 3, 56, 77
5, 175584, Note_on_c, 3, 46, 77
5, 175584, Note_on_c, 3, 44, 77
5, 175678, Note_off_c, 3, 56, 0
5, 175678, Note_off_c, 3, 46, 0
5, 175678, Note_off_c, 3, 44, 0
5, 175680, Note_on_c, 3, 55, 77
5, 175680, Note_on_c, 3, 46, 77
5, 175680, Note_on_c, 3, 43, 77
5, 175774, Note_off_c, 3, 55, 0
5, 175774, Note_off_c, 3, 46, 0
5, 175774, Note_off_c, 3, 43, 0
5, 175776, Note_on_c, 3, 55, 77
5, 175776, Note_on_c, 3, 46, 77
5, 175776, Note_on_c, 3, 43, 77
5, 175870, Note_off_c, 3, 55, 0
5, 175870, Note_off_c, 3, 46, 0
5, 175870, Note_off_c, 3, 43, 0
5, 175872, Note_on_c, 3, 43, 77
5, 175872, Note_on_c, 3, 46, 77
5, 175872, Note_on_c, 3, 55, 77
5, 175966, Note_off_c, 3, 43, 0
5, 175966, Note_off_c, 3, 46, 0
5, 175966, Note_off_c, 3, 55, 0
5, 175968, Note_on_c, 3, 54, 77
5, 175968, Note_on_c, 3, 46, 77
5, 175968, Note_on_c, 3, 42, 77
5, 176062, Note_off_c, 3, 54, 0
5, 176062, Note_off_c, 3, 46, 0
5, 176062, Note_off_c, 3, 42, 0
5, 176064, Note_on_c, 3, 54, 77
5, 176064, Note_on_c, 3, 46, 77
5, 176064, Note_on_c, 3, 42, 77
5, 176158, Note_off_c, 3, 54, 0
5, 176158, Note_off_c, 3, 46, 0
5, 176158, Note_off_c, 3, 42, 0
5, 176160, Note_on_c, 3, 54, 77
5, 176160, Note_on_c, 3, 46, 77
5, 176160, Note_on_c, 3, 42, 77
5, 176254, Note_off_c, 3, 54, 0
5, 176254, Note_off_c, 3, 46, 0
5, 176254, Note_off_c, 3, 42, 0
5, 176256, Note_on_c, 3, 53, 77
5, 176256, Note_on_c, 3, 48, 77
5, 176256, Note_on_c, 3, 41, 77
5, 176350, Note_off_c, 3, 53, 0
5, 176350, Note_off_c, 3, 48, 0
5, 176350, Note_off_c, 3, 41, 0
5, 176352, Note_on_c, 3, 53, 77
5, 176352, Note_on_c, 3, 41, 77
5, 176352, Note_on_c, 3, 48, 77
5, 176446, Note_off_c, 3, 53, 0
5, 176446, Note_off_c, 3, 41, 0
5, 176446, Note_off_c, 3, 48, 0
5, 176448, Note_on_c, 3, 53, 77
5, 176448, Note_on_c, 3, 48, 77
5, 176448, Note_on_c, 3, 41, 77
5, 176542, Note_off_c, 3, 53, 0
5, 176542, Note_off_c, 3, 48, 0
5, 176542, Note_off_c, 3, 41, 0
5, 176544, Note_on_c, 3, 55, 77
5, 176544, Note_on_c, 3, 46, 77
5, 176544, Note_on_c, 3, 43, 77
5, 176638, Note_off_c, 3, 55, 0
5, 176638, Note_off_c, 3, 46, 0
5, 176638, Note_off_c, 3, 43, 0
5, 176640, Note_on_c, 3, 55, 77
5, 176640, Note_on_c, 3, 46, 77
5, 176640, Note_on_c, 3, 43, 77
5, 176734, Note_off_c, 3, 55, 0
5, 176734, Note_off_c, 3, 46, 0
5, 176734, Note_off_c, 3, 43, 0
5, 176736, Note_on_c, 3, 55, 77
5, 176736, Note_on_c, 3, 46, 77
5, 176736, Note_on_c, 3, 43, 77
5, 176830, Note_off_c, 3, 55, 0
5, 176830, Note_off_c, 3, 46, 0
5, 176830, Note_off_c, 3, 43, 0
5, 176832, Note_on_c, 3, 51, 77
5, 176832, Note_on_c, 3, 46, 77
5, 176832, Note_on_c, 3, 39, 77
5, 176926, Note_off_c, 3, 51, 0
5, 176926, Note_off_c, 3, 46, 0
5, 176926, Note_off_c, 3, 39, 0
5, 176928, Note_on_c, 3, 51, 77
5, 176928, Note_on_c, 3, 46, 77
5, 176928, Note_on_c, 3, 39, 77
5, 177022, Note_off_c, 3, 51, 0
5, 177022, Note_off_c, 3, 46, 0
5, 177022, Note_off_c, 3, 39, 0
5, 177024, Note_on_c, 3, 51, 77
5, 177024, Note_on_c, 3, 46, 77
5, 177024, Note_on_c, 3, 39, 77
5, 177118, Note_off_c, 3, 51, 0
5, 177118, Note_off_c, 3, 46, 0
5, 177118, Note_off_c, 3, 39, 0
5, 177120, Note_on_c, 3, 52, 77
5, 177120, Note_on_c, 3, 46, 77
5, 177120, Note_on_c, 3, 40, 77
5, 177214, Note_off_c, 3, 52, 0
5, 177214, Note_off_c, 3, 46, 0
5, 177214, Note_off_c, 3, 40, 0
5, 177216, Note_on_c, 3, 46, 77
5, 177216, Note_on_c, 3, 40, 77
5, 177216, Note_on_c, 3, 52, 77
5, 177310, Note_off_c, 3, 46, 0
5, 177310, Note_off_c, 3, 40, 0
5, 177310, Note_off_c, 3, 52, 0
5, 177312, Note_on_c, 3, 52, 77
5, 177312, Note_on_c, 3, 46, 77
5, 177312, Note_on_c, 3, 40, 77
5, 177406, Note_off_c, 3, 52, 0
5, 177406, Note_off_c, 3, 46, 0
5, 177406, Note_off_c, 3, 40, 0
5, 177408, Note_on_c, 3, 53, 77
5, 177408, Note_on_c, 3, 46, 77
5, 177408, Note_on_c, 3, 41, 77
5, 177598, Note_off_c, 3, 53, 0
5, 177598, Note_off_c, 3, 46, 0
5, 177598, Note_off_c, 3, 41, 0
5, 199296, Note_on_c, 3, 58, 60
5, 199296, Note_on_c, 3, 46, 60
5, 199390, Note_off_c, 3, 58, 0
5, 199390, Note_off_c, 3, 46, 0
5, 199872, Note_on_c, 3, 58, 60
5, 199872, Note_on_c, 3, 46, 60
5, 199966, Note_off_c, 3, 58, 0
5, 199966, Note_off_c, 3, 46, 0
5, 200448, Note_on_c, 3, 58, 60
5, 200448, Note_on_c, 3, 46, 60
5, 200542, Note_off_c, 3, 58, 0
5, 200542, Note_off_c, 3, 46, 0
5, 201024, Note_on_c, 3, 58, 60
5, 201024, Note_on_c, 3, 46, 60
5, 201118, Note_off_c, 3, 58, 0
5, 201118, Note_off_c, 3, 46, 0
5, 201600, Note_on_c, 3, 58, 60
5, 201600, Note_on_c, 3, 46, 60
5, 201694, Note_off_c, 3, 58, 0
5, 201694, Note_off_c, 3, 46, 0
5, 202176, Note_on_c, 3, 58, 60
5, 202176, Note_on_c, 3, 46, 60
5, 202270, Note_off_c, 3, 58, 0
5, 202270, Note_off_c, 3, 46, 0
5, 202752, Note_on_c, 3, 58, 60
5, 202752, Note_on_c, 3, 46, 60
5, 202846, Note_off_c, 3, 58, 0
5, 202846, Note_off_c, 3, 46, 0
5, 203040, Note_on_c, 3, 51, 60
5, 203040, Note_on_c, 3, 39, 60
5, 203134, Note_off_c, 3, 51, 0
5, 203134, Note_off_c, 3, 39, 0
5, 203328, Note_on_c, 3, 53, 60
5, 203328, Note_on_c, 3, 41, 60
5, 203422, Note_off_c, 3, 53, 0
5, 203422, Note_off_c, 3, 41, 0
5, 203616, Note_on_c, 3, 51, 60
5, 203616, Note_on_c, 3, 39, 60
5, 203710, Note_off_c, 3, 51, 0
5, 203710, Note_off_c, 3, 39, 0
5, 203904, Note_on_c, 3, 58, 60
5, 203904, Note_on_c, 3, 53, 60
5, 203904, Note_on_c, 3, 50, 60
5, 203998, Note_off_c, 3, 58, 0
5, 203998, Note_off_c, 3, 53, 0
5, 203998, Note_off_c, 3, 50, 0
5, 204192, Note_on_c, 3, 60, 60
5, 204192, Note_on_c, 3, 55, 60
5, 204192, Note_on_c, 3, 51, 60
5, 204286, Note_off_c, 3, 60, 0
5, 204286, Note_off_c, 3, 55, 0
5, 204286, Note_off_c, 3, 51, 0
5, 204480, Note_on_c, 3, 58, 60
5, 204480, Note_on_c, 3, 53, 60
5, 204574, Note_off_c, 3, 58, 0
5, 204574, Note_off_c, 3, 53, 0
5, 204768, Note_on_c, 3, 57, 60
5, 204768, Note_on_c, 3, 53, 60
5, 204862, Note_off_c, 3, 57, 0
5, 204862, Note_off_c, 3, 53, 0
5, 206496, Note_on_c, 3, 63, 60
5, 206496, Note_on_c, 3, 60, 60
5, 206496, Note_on_c, 3, 57, 60
5, 206782, Note_off_c, 3, 63, 0
5, 206782, Note_off_c, 3, 60, 0
5, 206782, Note_off_c, 3, 57, 0
5, 206784, Note_on_c, 3, 58, 60
5, 206784, Note_on_c, 3, 62, 60
5, 206878, Note_off_c, 3, 58, 0
5, 206878, Note_off_c, 3, 62, 0
5, 206880, Note_on_c, 3, 60, 60
5, 206974, Note_off_c, 3, 60, 0
5, 206976, Note_on_c, 3, 58, 60
5, 207070, Note_off_c, 3, 58, 0
5, 207072, Note_on_c, 3, 57, 60
5, 207072, Note_on_c, 3, 53, 60
5, 207092, Note_off_c, 3, 57, 0
5, 207096, Note_on_c, 3, 58, 60
5, 207116, Note_off_c, 3, 58, 0
5, 207120, Note_on_c, 3, 57, 60
5, 207140, Note_off_c, 3, 57, 0
5, 207144, Note_on_c, 3, 58, 60
5, 207164, Note_off_c, 3, 58, 0
5, 207168, Note_on_c, 3, 55, 60
5, 207188, Note_off_c, 3, 55, 0
5, 207192, Note_on_c, 3, 57, 60
5, 207212, Note_off_c, 3, 57, 0
5, 207214, Note_off_c, 3, 53, 0
5, 207216, Note_on_c, 3, 55, 60
5, 207262, Note_off_c, 3, 55, 0
5, 207264, Note_on_c, 3, 57, 60
5, 207358, Note_off_c, 3, 57, 0
5, 207360, Note_on_c, 3, 58, 60
5, 207360, Note_on_c, 3, 53, 60
5, 207360, Note_on_c, 3, 46, 60
5, 207550, Note_off_c, 3, 58, 0
5, 207550, Note_off_c, 3, 53, 0
5, 207550, Note_off_c, 3, 46, 0
5, 208800, Note_on_c, 3, 63, 60
5, 208800, Note_on_c, 3, 60, 60
5, 208800, Note_on_c, 3, 57, 60
5, 209086, Note_off_c, 3, 63, 0
5, 209086, Note_off_c, 3, 60, 0
5, 209086, Note_off_c, 3, 57, 0
5, 209088, Note_on_c, 3, 58, 60
5, 209088, Note_on_c, 3, 62, 60
5, 209182, Note_off_c, 3, 58, 0
5, 209182, Note_off_c, 3, 62, 0
5, 209184, Note_on_c, 3, 60, 60
5, 209278, Note_off_c, 3, 60, 0
5, 209280, Note_on_c, 3, 58, 60
5, 209374, Note_off_c, 3, 58, 0
5, 209376, Note_on_c, 3, 57, 60
5, 209376, Note_on_c, 3, 53, 60
5, 209396, Note_off_c, 3, 57, 0
5, 209400, Note_on_c, 3, 58, 60
5, 209420, Note_off_c, 3, 58, 0
5, 209424, Note_on_c, 3, 57, 60
5, 209444, Note_off_c, 3, 57, 0
5, 209448, Note_on_c, 3, 58, 60
5, 209468, Note_off_c, 3, 58, 0
5, 209472, Note_on_c, 3, 55, 60
5, 209492, Note_off_c, 3, 55, 0
5, 209496, Note_on_c, 3, 57, 60
5, 209516, Note_off_c, 3, 57, 0
5, 209518, Note_off_c, 3, 53, 0
5, 209520, Note_on_c, 3, 55, 60
5, 209564, Note_off_c, 3, 55, 0
5, 209568, Note_on_c, 3, 57, 60
5, 209662, Note_off_c, 3, 57, 0
5, 209664, Note_on_c, 3, 58, 71
5, 209664, Note_on_c, 3, 46, 71
5, 209758, Note_off_c, 3, 58, 0
5, 209758, Note_off_c, 3, 46, 0
5, 209856, Note_on_c, 3, 57, 71
5, 209950, Note_off_c, 3, 57, 0
5, 209952, Note_on_c, 3, 46, 71
5, 209952, Note_on_c, 3, 34, 71
5, 209952, Note_on_c, 3, 60, 77
5, 209960, Note_off_c, 3, 60, 0
5, 209964, Note_on_c, 3, 58, 77
5, 209972, Note_off_c, 3, 58, 0
5, 209976, Note_on_c, 3, 57, 77
5, 209984, Note_off_c, 3, 57, 0
5, 209990, Note_on_c, 3, 58, 71
5, 210046, Note_off_c, 3, 46, 0
5, 210046, Note_off_c, 3, 34, 0
5, 210046, Note_off_c, 3, 58, 0
5, 210048, Note_on_c, 3, 57, 71
5, 210142, Note_off_c, 3, 57, 0
5, 210144, Note_on_c, 3, 57, 71
5, 210238, Note_off_c, 3, 57, 0
5, 210240, Note_on_c, 3, 34, 71
5, 210240, Note_on_c, 3, 46, 71
5, 210240, Note_on_c, 3, 60, 77
5, 210248, Note_off_c, 3, 60, 0
5, 210252, Note_on_c, 3, 58, 77
5, 210260, Note_off_c, 3, 58, 0
5, 210264, Note_on_c, 3, 57, 77
5, 210272, Note_off_c, 3, 57, 0
5, 210276, Note_on_c, 3, 58, 71
5, 210334, Note_off_c, 3, 58, 0
5, 210336, Note_on_c, 3, 53, 71
5, 210430, Note_off_c, 3, 53, 0
5, 210432, Note_on_c, 3, 58, 71
5, 210526, Note_off_c, 3, 34, 0
5, 210526, Note_off_c, 3, 46, 0
5, 210526, Note_off_c, 3, 58, 0
5, 210528, Note_on_c, 3, 58, 71
5, 210528, Note_on_c, 3, 46, 71
5, 210528, Note_on_c, 3, 34, 71
5, 210622, Note_off_c, 3, 58, 0
5, 210624, Note_on_c, 3, 62, 71
5, 210718, Note_off_c, 3, 46, 0
5, 210718, Note_off_c, 3, 34, 0
5, 210718, Note_off_c, 3, 62, 0
5, 210720, Note_on_c, 3, 58, 71
5, 210766, Note_off_c, 3, 58, 0
5, 210768, Note_on_c, 3, 41, 71
5, 210814, Note_off_c, 3, 41, 0
5, 210816, Note_on_c, 3, 60, 77
5, 210824, Note_off_c, 3, 60, 0
5, 210828, Note_on_c, 3, 58, 77
5, 210836, Note_off_c, 3, 58, 0
5, 210840, Note_on_c, 3, 57, 77
5, 210848, Note_off_c, 3, 57, 0
5, 210852, Note_on_c, 3, 62, 71
5, 210910, Note_off_c, 3, 62, 0
5, 210912, Note_on_c, 3, 58, 71
5, 210912, Note_on_c, 3, 53, 71
5, 211004, Note_off_c, 3, 53, 64
5, 211006, Note_off_c, 3, 58, 0
5, 211008, Note_on_c, 3, 58, 71
5, 211008, Note_on_c, 3, 62, 71
5, 211008, Note_on_c, 3, 46, 71
5, 211102, Note_off_c, 3, 58, 0
5, 211102, Note_off_c, 3, 62, 0
5, 211102, Note_off_c, 3, 46, 64
5, 211104, Note_on_c, 3, 58, 71
5, 211104, Note_on_c, 3, 62, 71
5, 211104, Note_on_c, 3, 46, 71
5, 211198, Note_off_c, 3, 58, 0
5, 211198, Note_off_c, 3, 62, 0
5, 211198, Note_off_c, 3, 46, 0
5, 211200, Note_on_c, 3, 58, 71
5, 211200, Note_on_c, 3, 62, 71
5, 211294, Note_off_c, 3, 58, 0
5, 211294, Note_off_c, 3, 62, 0
5, 211296, Note_on_c, 3, 58, 71
5, 211296, Note_on_c, 3, 62, 71
5, 211390, Note_off_c, 3, 58, 0
5, 211390, Note_off_c, 3, 62, 0
5, 211392, Note_on_c, 3, 58, 71
5, 211392, Note_on_c, 3, 62, 71
5, 211392, Note_on_c, 3, 48, 77
5, 211400, Note_off_c, 3, 48, 0
5, 211404, Note_on_c, 3, 46, 77
5, 211412, Note_off_c, 3, 46, 0
5, 211416, Note_on_c, 3, 45, 77
5, 211424, Note_off_c, 3, 45, 0
5, 211428, Note_on_c, 3, 46, 71
5, 211486, Note_off_c, 3, 58, 0
5, 211486, Note_off_c, 3, 62, 0
5, 211486, Note_off_c, 3, 46, 0
5, 211488, Note_on_c, 3, 58, 71
5, 211488, Note_on_c, 3, 53, 71
5, 211582, Note_off_c, 3, 58, 0
5, 211582, Note_off_c, 3, 53, 0
5, 211584, Note_on_c, 3, 46, 71
5, 211584, Note_on_c, 3, 58, 71
5, 211584, Note_on_c, 3, 62, 71
5, 211678, Note_off_c, 3, 46, 0
5, 211678, Note_off_c, 3, 58, 0
5, 211678, Note_off_c, 3, 62, 0
5, 211680, Note_on_c, 3, 46, 71
5, 211680, Note_on_c, 3, 58, 71
5, 211680, Note_on_c, 3, 62, 71
5, 211774, Note_off_c, 3, 58, 0
5, 211774, Note_off_c, 3, 62, 0
5, 211776, Note_on_c, 3, 62, 71
5, 211776, Note_on_c, 3, 65, 71
5, 211870, Note_off_c, 3, 46, 0
5, 211870, Note_off_c, 3, 62, 0
5, 211870, Note_off_c, 3, 65, 0
5, 211872, Note_on_c, 3, 41, 71
5, 211872, Note_on_c, 3, 58, 71
5, 211872, Note_on_c, 3, 62, 71
5, 211918, Note_off_c, 3, 41, 0
5, 211920, Note_on_c, 3, 43, 71
5, 211940, Note_off_c, 3, 43, 0
5, 211944, Note_on_c, 3, 45, 71
5, 211964, Note_off_c, 3, 45, 0
5, 211966, Note_off_c, 3, 58, 0
5, 211966, Note_off_c, 3, 62, 0
5, 211968, Note_on_c, 3, 46, 71
5, 211968, Note_on_c, 3, 58, 71
5, 211968, Note_on_c, 3, 62, 71
5, 212062, Note_off_c, 3, 46, 0
5, 212062, Note_off_c, 3, 58, 0
5, 212062, Note_off_c, 3, 62, 0
5, 212160, Note_on_c, 3, 46, 71
5, 212254, Note_off_c, 3, 46, 0
5, 212256, Note_on_c, 3, 48, 77
5, 212264, Note_off_c, 3, 48, 0
5, 212268, Note_on_c, 3, 46, 77
5, 212276, Note_off_c, 3, 46, 0
5, 212280, Note_on_c, 3, 45, 77
5, 212288, Note_off_c, 3, 45, 0
5, 212292, Note_on_c, 3, 46, 71
5, 212350, Note_off_c, 3, 46, 0
5, 212448, Note_on_c, 3, 46, 71
5, 212542, Note_off_c, 3, 46, 0
5, 212544, Note_on_c, 3, 48, 77
5, 212552, Note_off_c, 3, 48, 0
5, 212556, Note_on_c, 3, 46, 77
5, 212564, Note_off_c, 3, 46, 0
5, 212568, Note_on_c, 3, 45, 77
5, 212576, Note_off_c, 3, 45, 0
5, 212580, Note_on_c, 3, 46, 71
5, 212638, Note_off_c, 3, 46, 0
5, 212736, Note_on_c, 3, 46, 71
5, 212830, Note_off_c, 3, 46, 0
5, 212832, Note_on_c, 3, 46, 71
5, 213022, Note_off_c, 3, 46, 0
5, 213024, Note_on_c, 3, 41, 71
5, 213070, Note_off_c, 3, 41, 0
5, 213072, Note_on_c, 3, 43, 71
5, 213092, Note_off_c, 3, 43, 0
5, 213096, Note_on_c, 3, 45, 71
5, 213116, Note_off_c, 3, 45, 0
5, 213120, Note_on_c, 3, 48, 77
5, 213128, Note_off_c, 3, 48, 0
5, 213132, Note_on_c, 3, 46, 77
5, 213140, Note_off_c, 3, 46, 0
5, 213144, Note_on_c, 3, 45, 77
5, 213152, Note_off_c, 3, 45, 0
5, 213156, Note_on_c, 3, 46, 71
5, 213214, Note_off_c, 3, 46, 0
5, 213312, Note_on_c, 3, 46, 71
5, 213406, Note_off_c, 3, 46, 0
5, 213408, Note_on_c, 3, 48, 77
5, 213416, Note_off_c, 3, 48, 0
5, 213420, Note_on_c, 3, 46, 77
5, 213428, Note_off_c, 3, 46, 0
5, 213432, Note_on_c, 3, 45, 77
5, 213440, Note_off_c, 3, 45, 0
5, 213444, Note_on_c, 3, 46, 71
5, 213502, Note_off_c, 3, 46, 0
5, 213600, Note_on_c, 3, 46, 71
5, 213694, Note_off_c, 3, 46, 0
5, 213696, Note_on_c, 3, 48, 77
5, 213704, Note_off_c, 3, 48, 0
5, 213708, Note_on_c, 3, 46, 77
5, 213716, Note_off_c, 3, 46, 0
5, 213720, Note_on_c, 3, 45, 77
5, 213728, Note_off_c, 3, 45, 0
5, 213732, Note_on_c, 3, 46, 71
5, 213790, Note_off_c, 3, 46, 0
5, 213888, Note_on_c, 3, 46, 71
5, 213982, Note_off_c, 3, 46, 0
5, 213984, Note_on_c, 3, 46, 71
5, 214174, Note_off_c, 3, 46, 0
5, 214176, Note_on_c, 3, 41, 71
5, 214222, Note_off_c, 3, 41, 0
5, 214224, Note_on_c, 3, 43, 71
5, 214244, Note_off_c, 3, 43, 0
5, 214248, Note_on_c, 3, 45, 71
5, 214268, Note_off_c, 3, 45, 0
5, 214272, Note_on_c, 3, 46, 71
5, 214462, Note_off_c, 3, 46, 0
5, 214464, Note_on_c, 3, 46, 71
5, 214558, Note_off_c, 3, 46, 0
5, 214560, Note_on_c, 3, 48, 77
5, 214568, Note_off_c, 3, 48, 0
5, 214572, Note_on_c, 3, 46, 77
5, 214580, Note_off_c, 3, 46, 0
5, 214584, Note_on_c, 3, 45, 77
5, 214592, Note_off_c, 3, 45, 0
5, 214596, Note_on_c, 3, 46, 71
5, 214654, Note_off_c, 3, 46, 0
5, 214752, Note_on_c, 3, 46, 71
5, 214846, Note_off_c, 3, 46, 0
5, 214848, Note_on_c, 3, 48, 77
5, 214856, Note_off_c, 3, 48, 0
5, 214860, Note_on_c, 3, 46, 77
5, 214868, Note_off_c, 3, 46, 0
5, 214872, Note_on_c, 3, 45, 77
5, 214880, Note_off_c, 3, 45, 0
5, 214884, Note_on_c, 3, 46, 71
5, 214942, Note_off_c, 3, 46, 0
5, 215040, Note_on_c, 3, 46, 71
5, 215134, Note_off_c, 3, 46, 0
5, 215136, Note_on_c, 3, 46, 71
5, 215326, Note_off_c, 3, 46, 0
5, 215328, Note_on_c, 3, 41, 71
5, 215374, Note_off_c, 3, 41, 0
5, 215376, Note_on_c, 3, 43, 71
5, 215396, Note_off_c, 3, 43, 0
5, 215400, Note_on_c, 3, 45, 71
5, 215420, Note_off_c, 3, 45, 0
5, 215424, Note_on_c, 3, 46, 71
5, 215518, Note_off_c, 3, 46, 0
5, 215520, Note_on_c, 3, 58, 71
5, 215614, Note_off_c, 3, 58, 0
5, 215616, Note_on_c, 3, 62, 71
5, 215710, Note_off_c, 3, 62, 0
5, 215712, Note_on_c, 3, 65, 71
5, 215806, Note_off_c, 3, 65, 0
5, 215808, Note_on_c, 3, 65, 71
5, 215902, Note_off_c, 3, 65, 0
5, 215904, Note_on_c, 3, 53, 71
5, 215904, Note_on_c, 3, 41, 71
5, 215998, Note_off_c, 3, 53, 0
5, 215998, Note_off_c, 3, 41, 0
5, 216000, Note_on_c, 3, 46, 71
5, 216000, Note_on_c, 3, 34, 71
5, 216094, Note_off_c, 3, 46, 0
5, 216094, Note_off_c, 3, 34, 0
5, 216096, Note_on_c, 3, 58, 71
5, 216190, Note_off_c, 3, 58, 0
5, 216192, Note_on_c, 3, 62, 71
5, 216286, Note_off_c, 3, 62, 0
5, 216288, Note_on_c, 3, 65, 71
5, 216382, Note_off_c, 3, 65, 0
5, 216384, Note_on_c, 3, 65, 71
5, 216478, Note_off_c, 3, 65, 0
5, 216480, Note_on_c, 3, 53, 71
5, 216480, Note_on_c, 3, 41, 71
5, 216574, Note_off_c, 3, 53, 0
5, 216574, Note_off_c, 3, 41, 0
5, 216576, Note_on_c, 3, 34, 77
5, 216576, Note_on_c, 3, 46, 77
5, 216766, Note_off_c, 3, 34, 0
5, 216766, Note_off_c, 3, 46, 0
5, 216864, Note_on_c, 3, 58, 77
5, 216864, Note_on_c, 3, 46, 77
5, 217054, Note_off_c, 3, 58, 0
5, 217054, Note_off_c, 3, 46, 0
5, 217152, Note_on_c, 3, 46, 77
5, 217152, Note_on_c, 3, 34, 77
5, 217342, Note_off_c, 3, 46, 0
5, 217342, Note_off_c, 3, 34, 0
5, 217342, End_track
6, 0, Start_track
6, 0, Title_t, "B.Fisher"
6, 0, Key_signature, -2, "minor"
6, 0, Control_c, 3, 7, 100
6, 0, End_track
0, 0, End_of_file
