0, 0, Header, 1, 21, 384
1, 0, Start_track
1, 0, Time_signature, 6, 3, 96, 8
1, 0, Sequencer_specific, 3, 0, 0, 65
1, 0, Tempo, 1000000
1, 125568, Tempo, 1071428
1, 167040, Tempo, 1000000
1, 208512, Tempo, 2000000
1, 249984, Time_signature, 4, 2, 96, 8
1, 249984, Tempo, 517241
1, 249984, End_track
2, 0, Start_track
2, 0, Title_t, "Mozart - Piano"
2, 0, Control_c, 0, 0, 0
2, 0, Program_c, 0, 0
2, 0, Control_c, 0, 7, 60
2, 0, Control_c, 0, 10, 79
2, 0, Control_c, 0, 91, 61
2, 0, Control_c, 0, 93, 60
2, 0, Key_signature, 3, "major"
2, 0, Control_c, 0, 121, 0
2, 48, Control_c, 0, 10, 71
2, 96, Control_c, 0, 91, 63
2, 120, Control_c, 0, 93, 40
2, 144, Program_c, 0, 0
2, 1152, Note_on_c, 0, 73, 67
2, 1152, Note_on_c, 0, 73, 67
2, 1436, Note_off_c, 0, 73, 0
2, 1436, Note_off_c, 0, 73, 0
2, 1440, Note_on_c, 0, 74, 67
2, 1532, Note_off_c, 0, 74, 0
2, 1536, Note_on_c, 0, 73, 67
2, 1724, Note_off_c, 0, 73, 0
2, 1728, Note_on_c, 0, 76, 67
2, 2108, Note_off_c, 0, 76, 0
2, 2112, Note_on_c, 0, 76, 67
2, 2300, Note_off_c, 0, 76, 0
2, 2304, Note_on_c, 0, 71, 67
2, 2588, Note_off_c, 0, 71, 0
2, 2592, Note_on_c, 0, 73, 67
2, 2684, Note_off_c, 0, 73, 0
2, 2688, Note_on_c, 0, 71, 67
2, 2876, Note_off_c, 0, 71, 0
2, 2880, Note_on_c, 0, 74, 67
2, 3260, Note_off_c, 0, 74, 0
2, 3264, Note_on_c, 0, 74, 67
2, 3452, Note_off_c, 0, 74, 0
2, 3456, Note_on_c, 0, 69, 67
2, 3836, Note_off_c, 0, 69, 0
2, 3840, Note_on_c, 0, 69, 67
2, 4028, Note_off_c, 0, 69, 0
2, 4032, Note_on_c, 0, 71, 67
2, 4412, Note_off_c, 0, 71, 0
2, 4416, Note_on_c, 0, 71, 67
2, 4604, Note_off_c, 0, 71, 0
2, 4608, Note_on_c, 0, 73, 67
2, 4988, Note_off_c, 0, 73, 0
2, 4992, Note_on_c, 0, 76, 67
2, 4992, Note_on_c, 0, 71, 67
2, 5084, Note_off_c, 0, 76, 0
2, 5088, Note_on_c, 0, 74, 67
2, 5180, Note_off_c, 0, 71, 0
2, 5180, Note_off_c, 0, 74, 0
2, 5184, Note_on_c, 0, 73, 67
2, 5184, Note_on_c, 0, 69, 67
2, 5564, Note_off_c, 0, 73, 0
2, 5564, Note_off_c, 0, 69, 0
2, 5568, Note_on_c, 0, 71, 67
2, 5568, Note_on_c, 0, 68, 67
2, 5756, Note_off_c, 0, 71, 0
2, 5756, Note_off_c, 0, 68, 0
2, 5760, Note_on_c, 0, 73, 67
2, 6044, Note_off_c, 0, 73, 0
2, 6048, Note_on_c, 0, 74, 67
2, 6140, Note_off_c, 0, 74, 0
2, 6144, Note_on_c, 0, 73, 67
2, 6332, Note_off_c, 0, 73, 0
2, 6336, Note_on_c, 0, 76, 67
2, 6716, Note_off_c, 0, 76, 0
2, 6720, Note_on_c, 0, 76, 67
2, 6908, Note_off_c, 0, 76, 0
2, 6912, Note_on_c, 0, 71, 67
2, 7196, Note_off_c, 0, 71, 0
2, 7200, Note_on_c, 0, 73, 67
2, 7292, Note_off_c, 0, 73, 0
2, 7296, Note_on_c, 0, 71, 67
2, 7484, Note_off_c, 0, 71, 0
2, 7488, Note_on_c, 0, 74, 67
2, 7868, Note_off_c, 0, 74, 0
2, 7872, Note_on_c, 0, 74, 67
2, 8060, Note_off_c, 0, 74, 0
2, 8064, Note_on_c, 0, 69, 67
2, 8444, Note_off_c, 0, 69, 0
2, 8448, Note_on_c, 0, 71, 67
2, 8636, Note_off_c, 0, 71, 0
2, 8640, Note_on_c, 0, 73, 67
2, 9020, Note_off_c, 0, 73, 0
2, 9024, Note_on_c, 0, 74, 90
2, 9024, Note_on_c, 0, 71, 90
2, 9024, Note_on_c, 0, 66, 90
2, 9212, Note_off_c, 0, 74, 0
2, 9212, Note_off_c, 0, 71, 0
2, 9212, Note_off_c, 0, 66, 0
2, 9216, Note_on_c, 0, 73, 67
2, 9216, Note_on_c, 0, 69, 67
2, 9216, Note_on_c, 0, 64, 67
2, 9596, Note_off_c, 0, 73, 0
2, 9596, Note_off_c, 0, 69, 0
2, 9596, Note_off_c, 0, 64, 0
2, 9600, Note_on_c, 0, 71, 67
2, 9600, Note_on_c, 0, 68, 67
2, 9600, Note_on_c, 0, 64, 67
2, 9600, Note_on_c, 0, 62, 67
2, 9788, Note_off_c, 0, 71, 0
2, 9788, Note_off_c, 0, 68, 0
2, 9788, Note_off_c, 0, 64, 0
2, 9788, Note_off_c, 0, 62, 0
2, 9792, Note_on_c, 0, 64, 67
2, 9792, Note_on_c, 0, 61, 67
2, 9792, Note_on_c, 0, 69, 67
2, 10172, Note_off_c, 0, 64, 0
2, 10172, Note_off_c, 0, 61, 0
2, 10172, Note_off_c, 0, 69, 0
2, 10368, Note_on_c, 0, 73, 67
2, 10368, Note_on_c, 0, 73, 67
2, 10652, Note_off_c, 0, 73, 0
2, 10652, Note_off_c, 0, 73, 0
2, 10656, Note_on_c, 0, 74, 67
2, 10748, Note_off_c, 0, 74, 0
2, 10752, Note_on_c, 0, 73, 67
2, 10940, Note_off_c, 0, 73, 0
2, 10944, Note_on_c, 0, 76, 67
2, 11324, Note_off_c, 0, 76, 0
2, 11328, Note_on_c, 0, 76, 67
2, 11516, Note_off_c, 0, 76, 0
2, 11520, Note_on_c, 0, 71, 67
2, 11804, Note_off_c, 0, 71, 0
2, 11808, Note_on_c, 0, 73, 67
2, 11900, Note_off_c, 0, 73, 0
2, 11904, Note_on_c, 0, 71, 67
2, 12092, Note_off_c, 0, 71, 0
2, 12096, Note_on_c, 0, 74, 67
2, 12476, Note_off_c, 0, 74, 0
2, 12480, Note_on_c, 0, 74, 67
2, 12668, Note_off_c, 0, 74, 0
2, 12672, Note_on_c, 0, 69, 67
2, 13052, Note_off_c, 0, 69, 0
2, 13056, Note_on_c, 0, 69, 67
2, 13244, Note_off_c, 0, 69, 0
2, 13248, Note_on_c, 0, 71, 67
2, 13628, Note_off_c, 0, 71, 0
2, 13632, Note_on_c, 0, 71, 67
2, 13820, Note_off_c, 0, 71, 0
2, 13824, Note_on_c, 0, 73, 67
2, 14204, Note_off_c, 0, 73, 0
2, 14208, Note_on_c, 0, 76, 67
2, 14208, Note_on_c, 0, 71, 67
2, 14300, Note_off_c, 0, 76, 0
2, 14304, Note_on_c, 0, 74, 67
2, 14396, Note_off_c, 0, 71, 0
2, 14396, Note_off_c, 0, 74, 0
2, 14400, Note_on_c, 0, 73, 67
2, 14400, Note_on_c, 0, 69, 67
2, 14780, Note_off_c, 0, 73, 0
2, 14780, Note_off_c, 0, 69, 0
2, 14784, Note_on_c, 0, 71, 67
2, 14784, Note_on_c, 0, 68, 67
2, 14972, Note_off_c, 0, 71, 0
2, 14972, Note_off_c, 0, 68, 0
2, 14976, Note_on_c, 0, 73, 67
2, 15260, Note_off_c, 0, 73, 0
2, 15264, Note_on_c, 0, 74, 67
2, 15356, Note_off_c, 0, 74, 0
2, 15360, Note_on_c, 0, 73, 67
2, 15548, Note_off_c, 0, 73, 0
2, 15552, Note_on_c, 0, 76, 67
2, 15932, Note_off_c, 0, 76, 0
2, 15936, Note_on_c, 0, 76, 67
2, 16124, Note_off_c, 0, 76, 0
2, 16128, Note_on_c, 0, 71, 67
2, 16412, Note_off_c, 0, 71, 0
2, 16416, Note_on_c, 0, 73, 67
2, 16508, Note_off_c, 0, 73, 0
2, 16512, Note_on_c, 0, 71, 67
2, 16700, Note_off_c, 0, 71, 0
2, 16704, Note_on_c, 0, 74, 67
2, 17084, Note_off_c, 0, 74, 0
2, 17088, Note_on_c, 0, 74, 67
2, 17276, Note_off_c, 0, 74, 0
2, 17280, Note_on_c, 0, 69, 67
2, 17660, Note_off_c, 0, 69, 0
2, 17664, Note_on_c, 0, 71, 67
2, 17852, Note_off_c, 0, 71, 0
2, 17856, Note_on_c, 0, 73, 67
2, 18236, Note_off_c, 0, 73, 0
2, 18240, Note_on_c, 0, 74, 90
2, 18240, Note_on_c, 0, 71, 90
2, 18240, Note_on_c, 0, 66, 90
2, 18428, Note_off_c, 0, 74, 0
2, 18428, Note_off_c, 0, 71, 0
2, 18428, Note_off_c, 0, 66, 0
2, 18432, Note_on_c, 0, 73, 67
2, 18432, Note_on_c, 0, 69, 67
2, 18432, Note_on_c, 0, 64, 67
2, 18812, Note_off_c, 0, 73, 0
2, 18812, Note_off_c, 0, 69, 0
2, 18812, Note_off_c, 0, 64, 0
2, 18816, Note_on_c, 0, 71, 67
2, 18816, Note_on_c, 0, 68, 67
2, 18816, Note_on_c, 0, 64, 67
2, 18816, Note_on_c, 0, 62, 67
2, 19004, Note_off_c, 0, 71, 0
2, 19004, Note_off_c, 0, 68, 0
2, 19004, Note_off_c, 0, 64, 0
2, 19004, Note_off_c, 0, 62, 0
2, 19008, Note_on_c, 0, 64, 67
2, 19008, Note_on_c, 0, 61, 67
2, 19008, Note_on_c, 0, 69, 67
2, 19388, Note_off_c, 0, 64, 0
2, 19388, Note_off_c, 0, 61, 0
2, 19388, Note_off_c, 0, 69, 0
2, 19584, Note_on_c, 0, 76, 67
2, 19868, Note_off_c, 0, 76, 0
2, 19872, Note_on_c, 0, 78, 67
2, 19964, Note_off_c, 0, 78, 0
2, 19968, Note_on_c, 0, 76, 67
2, 20156, Note_off_c, 0, 76, 0
2, 20160, Note_on_c, 0, 78, 67
2, 20540, Note_off_c, 0, 78, 0
2, 20544, Note_on_c, 0, 78, 67
2, 20732, Note_off_c, 0, 78, 0
2, 20736, Note_on_c, 0, 78, 67
2, 20780, Note_off_c, 0, 78, 0
2, 20784, Note_on_c, 0, 80, 67
2, 20828, Note_off_c, 0, 80, 0
2, 20832, Note_on_c, 0, 81, 67
2, 21024, Note_on_c, 0, 80, 67
2, 21116, Note_off_c, 0, 81, 0
2, 21116, Note_off_c, 0, 80, 0
2, 21120, Note_on_c, 0, 78, 67
2, 21308, Note_off_c, 0, 78, 0
2, 21312, Note_on_c, 0, 78, 67
2, 21500, Note_off_c, 0, 78, 0
2, 21504, Note_on_c, 0, 76, 67
2, 21692, Note_off_c, 0, 76, 0
2, 21696, Note_on_c, 0, 76, 67
2, 21884, Note_off_c, 0, 76, 0
2, 21888, Note_on_c, 0, 76, 90
2, 22076, Note_off_c, 0, 76, 0
2, 22080, Note_on_c, 0, 73, 67
2, 22268, Note_off_c, 0, 73, 0
2, 22272, Note_on_c, 0, 69, 67
2, 22460, Note_off_c, 0, 69, 0
2, 22464, Note_on_c, 0, 76, 90
2, 22652, Note_off_c, 0, 76, 0
2, 22656, Note_on_c, 0, 74, 67
2, 22844, Note_off_c, 0, 74, 0
2, 22848, Note_on_c, 0, 71, 67
2, 23036, Note_off_c, 0, 71, 0
2, 23040, Note_on_c, 0, 76, 90
2, 23228, Note_off_c, 0, 76, 0
2, 23232, Note_on_c, 0, 73, 67
2, 23420, Note_off_c, 0, 73, 0
2, 23424, Note_on_c, 0, 69, 67
2, 23612, Note_off_c, 0, 69, 0
2, 23616, Note_on_c, 0, 73, 67
2, 23616, Note_on_c, 0, 69, 67
2, 23996, Note_off_c, 0, 73, 0
2, 23996, Note_off_c, 0, 69, 0
2, 24000, Note_on_c, 0, 71, 67
2, 24000, Note_on_c, 0, 68, 67
2, 24188, Note_off_c, 0, 71, 0
2, 24188, Note_off_c, 0, 68, 0
2, 24192, Note_on_c, 0, 73, 67
2, 24476, Note_off_c, 0, 73, 0
2, 24480, Note_on_c, 0, 74, 67
2, 24572, Note_off_c, 0, 74, 0
2, 24576, Note_on_c, 0, 73, 67
2, 24764, Note_off_c, 0, 73, 0
2, 24768, Note_on_c, 0, 76, 67
2, 25148, Note_off_c, 0, 76, 0
2, 25152, Note_on_c, 0, 76, 67
2, 25340, Note_off_c, 0, 76, 0
2, 25344, Note_on_c, 0, 71, 67
2, 25628, Note_off_c, 0, 71, 0
2, 25632, Note_on_c, 0, 73, 67
2, 25724, Note_off_c, 0, 73, 0
2, 25728, Note_on_c, 0, 71, 67
2, 25916, Note_off_c, 0, 71, 0
2, 25920, Note_on_c, 0, 74, 67
2, 26300, Note_off_c, 0, 74, 0
2, 26304, Note_on_c, 0, 74, 67
2, 26492, Note_off_c, 0, 74, 0
2, 26496, Note_on_c, 0, 69, 67
2, 26876, Note_off_c, 0, 69, 0
2, 26880, Note_on_c, 0, 71, 67
2, 27068, Note_off_c, 0, 71, 0
2, 27072, Note_on_c, 0, 73, 67
2, 27452, Note_off_c, 0, 73, 0
2, 27456, Note_on_c, 0, 74, 90
2, 27456, Note_on_c, 0, 71, 90
2, 27456, Note_on_c, 0, 66, 90
2, 27644, Note_off_c, 0, 74, 0
2, 27644, Note_off_c, 0, 71, 0
2, 27644, Note_off_c, 0, 66, 0
2, 27648, Note_on_c, 0, 73, 67
2, 27648, Note_on_c, 0, 69, 67
2, 27648, Note_on_c, 0, 64, 67
2, 28028, Note_off_c, 0, 73, 0
2, 28028, Note_off_c, 0, 69, 0
2, 28028, Note_off_c, 0, 64, 0
2, 28032, Note_on_c, 0, 71, 67
2, 28032, Note_on_c, 0, 68, 67
2, 28032, Note_on_c, 0, 64, 67
2, 28220, Note_off_c, 0, 71, 0
2, 28220, Note_off_c, 0, 68, 0
2, 28220, Note_off_c, 0, 64, 0
2, 28224, Note_on_c, 0, 71, 67
2, 28224, Note_on_c, 0, 64, 67
2, 28224, Note_on_c, 0, 68, 67
2, 28604, Note_off_c, 0, 71, 0
2, 28604, Note_off_c, 0, 68, 0
2, 28608, Note_on_c, 0, 69, 67
2, 28608, Note_on_c, 0, 73, 67
2, 28796, Note_off_c, 0, 64, 0
2, 28796, Note_off_c, 0, 69, 0
2, 28796, Note_off_c, 0, 73, 0
2, 28800, Note_on_c, 0, 73, 90
2, 28800, Note_on_c, 0, 69, 90
2, 28800, Note_on_c, 0, 64, 90
2, 29180, Note_off_c, 0, 73, 0
2, 29180, Note_off_c, 0, 69, 0
2, 29180, Note_off_c, 0, 64, 0
2, 29184, Note_on_c, 0, 74, 90
2, 29184, Note_on_c, 0, 68, 90
2, 29184, Note_on_c, 0, 64, 90
2, 29372, Note_off_c, 0, 74, 0
2, 29372, Note_off_c, 0, 68, 0
2, 29372, Note_off_c, 0, 64, 0
2, 29376, Note_on_c, 0, 69, 90
2, 29376, Note_on_c, 0, 64, 90
2, 29376, Note_on_c, 0, 76, 90
2, 29756, Note_off_c, 0, 69, 0
2, 29756, Note_off_c, 0, 64, 0
2, 29756, Note_off_c, 0, 76, 0
2, 29760, Note_on_c, 0, 78, 90
2, 29852, Note_off_c, 0, 78, 0
2, 29856, Note_on_c, 0, 80, 90
2, 29900, Note_off_c, 0, 80, 0
2, 29904, Note_on_c, 0, 81, 90
2, 29948, Note_off_c, 0, 81, 0
2, 29952, Note_on_c, 0, 69, 90
2, 30332, Note_off_c, 0, 69, 0
2, 30336, Note_on_c, 0, 68, 90
2, 30336, Note_on_c, 0, 73, 90
2, 30428, Note_off_c, 0, 73, 0
2, 30432, Note_on_c, 0, 71, 90
2, 30524, Note_off_c, 0, 68, 0
2, 30524, Note_off_c, 0, 71, 0
2, 30528, Note_on_c, 0, 69, 90
2, 30908, Note_off_c, 0, 69, 0
2, 31104, Note_on_c, 0, 76, 67
2, 31388, Note_off_c, 0, 76, 0
2, 31392, Note_on_c, 0, 78, 67
2, 31484, Note_off_c, 0, 78, 0
2, 31488, Note_on_c, 0, 76, 67
2, 31676, Note_off_c, 0, 76, 0
2, 31680, Note_on_c, 0, 78, 67
2, 32060, Note_off_c, 0, 78, 0
2, 32064, Note_on_c, 0, 78, 67
2, 32252, Note_off_c, 0, 78, 0
2, 32256, Note_on_c, 0, 78, 67
2, 32300, Note_off_c, 0, 78, 0
2, 32304, Note_on_c, 0, 80, 67
2, 32348, Note_off_c, 0, 80, 0
2, 32352, Note_on_c, 0, 81, 67
2, 32544, Note_on_c, 0, 80, 67
2, 32636, Note_off_c, 0, 81, 0
2, 32636, Note_off_c, 0, 80, 0
2, 32640, Note_on_c, 0, 78, 67
2, 32828, Note_off_c, 0, 78, 0
2, 32832, Note_on_c, 0, 78, 67
2, 33020, Note_off_c, 0, 78, 0
2, 33024, Note_on_c, 0, 76, 67
2, 33212, Note_off_c, 0, 76, 0
2, 33216, Note_on_c, 0, 76, 67
2, 33404, Note_off_c, 0, 76, 0
2, 33408, Note_on_c, 0, 76, 90
2, 33596, Note_off_c, 0, 76, 0
2, 33600, Note_on_c, 0, 73, 67
2, 33788, Note_off_c, 0, 73, 0
2, 33792, Note_on_c, 0, 69, 67
2, 33980, Note_off_c, 0, 69, 0
2, 33984, Note_on_c, 0, 76, 90
2, 34172, Note_off_c, 0, 76, 0
2, 34176, Note_on_c, 0, 74, 67
2, 34364, Note_off_c, 0, 74, 0
2, 34368, Note_on_c, 0, 71, 67
2, 34556, Note_off_c, 0, 71, 0
2, 34560, Note_on_c, 0, 76, 90
2, 34748, Note_off_c, 0, 76, 0
2, 34752, Note_on_c, 0, 73, 67
2, 34940, Note_off_c, 0, 73, 0
2, 34944, Note_on_c, 0, 69, 67
2, 35132, Note_off_c, 0, 69, 0
2, 35136, Note_on_c, 0, 73, 67
2, 35136, Note_on_c, 0, 69, 67
2, 35516, Note_off_c, 0, 73, 0
2, 35516, Note_off_c, 0, 69, 0
2, 35520, Note_on_c, 0, 71, 67
2, 35520, Note_on_c, 0, 68, 67
2, 35708, Note_off_c, 0, 71, 0
2, 35708, Note_off_c, 0, 68, 0
2, 35712, Note_on_c, 0, 73, 67
2, 35996, Note_off_c, 0, 73, 0
2, 36000, Note_on_c, 0, 74, 67
2, 36092, Note_off_c, 0, 74, 0
2, 36096, Note_on_c, 0, 73, 67
2, 36284, Note_off_c, 0, 73, 0
2, 36288, Note_on_c, 0, 76, 67
2, 36668, Note_off_c, 0, 76, 0
2, 36672, Note_on_c, 0, 76, 67
2, 36860, Note_off_c, 0, 76, 0
2, 36864, Note_on_c, 0, 71, 67
2, 37148, Note_off_c, 0, 71, 0
2, 37152, Note_on_c, 0, 73, 67
2, 37244, Note_off_c, 0, 73, 0
2, 37248, Note_on_c, 0, 71, 67
2, 37436, Note_off_c, 0, 71, 0
2, 37440, Note_on_c, 0, 74, 67
2, 37820, Note_off_c, 0, 74, 0
2, 37824, Note_on_c, 0, 74, 67
2, 38012, Note_off_c, 0, 74, 0
2, 38016, Note_on_c, 0, 69, 67
2, 38396, Note_off_c, 0, 69, 0
2, 38400, Note_on_c, 0, 71, 67
2, 38588, Note_off_c, 0, 71, 0
2, 38592, Note_on_c, 0, 73, 67
2, 38972, Note_off_c, 0, 73, 0
2, 38976, Note_on_c, 0, 74, 90
2, 38976, Note_on_c, 0, 71, 90
2, 38976, Note_on_c, 0, 66, 90
2, 39164, Note_off_c, 0, 74, 0
2, 39164, Note_off_c, 0, 71, 0
2, 39164, Note_off_c, 0, 66, 0
2, 39168, Note_on_c, 0, 73, 67
2, 39168, Note_on_c, 0, 69, 67
2, 39168, Note_on_c, 0, 64, 67
2, 39548, Note_off_c, 0, 73, 0
2, 39548, Note_off_c, 0, 69, 0
2, 39548, Note_off_c, 0, 64, 0
2, 39552, Note_on_c, 0, 71, 67
2, 39552, Note_on_c, 0, 68, 67
2, 39552, Note_on_c, 0, 64, 67
2, 39740, Note_off_c, 0, 71, 0
2, 39740, Note_off_c, 0, 68, 0
2, 39740, Note_off_c, 0, 64, 0
2, 39744, Note_on_c, 0, 71, 67
2, 39744, Note_on_c, 0, 64, 67
2, 39744, Note_on_c, 0, 68, 67
2, 40124, Note_off_c, 0, 71, 0
2, 40124, Note_off_c, 0, 68, 0
2, 40128, Note_on_c, 0, 69, 67
2, 40128, Note_on_c, 0, 73, 67
2, 40316, Note_off_c, 0, 64, 0
2, 40316, Note_off_c, 0, 69, 0
2, 40316, Note_off_c, 0, 73, 0
2, 40320, Note_on_c, 0, 73, 90
2, 40320, Note_on_c, 0, 69, 90
2, 40320, Note_on_c, 0, 64, 90
2, 40700, Note_off_c, 0, 73, 0
2, 40700, Note_off_c, 0, 69, 0
2, 40700, Note_off_c, 0, 64, 0
2, 40704, Note_on_c, 0, 74, 90
2, 40704, Note_on_c, 0, 68, 90
2, 40704, Note_on_c, 0, 64, 90
2, 40892, Note_off_c, 0, 74, 0
2, 40892, Note_off_c, 0, 68, 0
2, 40892, Note_off_c, 0, 64, 0
2, 40896, Note_on_c, 0, 69, 90
2, 40896, Note_on_c, 0, 64, 90
2, 40896, Note_on_c, 0, 76, 90
2, 41276, Note_off_c, 0, 69, 0
2, 41276, Note_off_c, 0, 64, 0
2, 41276, Note_off_c, 0, 76, 0
2, 41280, Note_on_c, 0, 78, 90
2, 41372, Note_off_c, 0, 78, 0
2, 41376, Note_on_c, 0, 80, 90
2, 41420, Note_off_c, 0, 80, 0
2, 41424, Note_on_c, 0, 81, 90
2, 41468, Note_off_c, 0, 81, 0
2, 41472, Note_on_c, 0, 69, 90
2, 41852, Note_off_c, 0, 69, 0
2, 41856, Note_on_c, 0, 68, 90
2, 41856, Note_on_c, 0, 73, 90
2, 41948, Note_off_c, 0, 73, 0
2, 41952, Note_on_c, 0, 71, 90
2, 42044, Note_off_c, 0, 68, 0
2, 42044, Note_off_c, 0, 71, 0
2, 42048, Note_on_c, 0, 69, 90
2, 42428, Note_off_c, 0, 69, 0
2, 42624, Note_on_c, 0, 72, 67
2, 42716, Note_off_c, 0, 72, 0
2, 42720, Note_on_c, 0, 73, 67
2, 42812, Note_off_c, 0, 73, 0
2, 42912, Note_on_c, 0, 73, 67
2, 43004, Note_off_c, 0, 73, 0
2, 43008, Note_on_c, 0, 72, 67
2, 43100, Note_off_c, 0, 72, 0
2, 43104, Note_on_c, 0, 73, 67
2, 43196, Note_off_c, 0, 73, 0
2, 43200, Note_on_c, 0, 75, 67
2, 43292, Note_off_c, 0, 75, 0
2, 43296, Note_on_c, 0, 76, 67
2, 43388, Note_off_c, 0, 76, 0
2, 43488, Note_on_c, 0, 76, 67
2, 43580, Note_off_c, 0, 76, 0
2, 43584, Note_on_c, 0, 78, 67
2, 43676, Note_off_c, 0, 78, 0
2, 43680, Note_on_c, 0, 76, 67
2, 43772, Note_off_c, 0, 76, 0
2, 43776, Note_on_c, 0, 76, 67
2, 43868, Note_off_c, 0, 76, 0
2, 43872, Note_on_c, 0, 71, 67
2, 43964, Note_off_c, 0, 71, 0
2, 44064, Note_on_c, 0, 71, 67
2, 44156, Note_off_c, 0, 71, 0
2, 44160, Note_on_c, 0, 70, 67
2, 44252, Note_off_c, 0, 70, 0
2, 44256, Note_on_c, 0, 71, 67
2, 44348, Note_off_c, 0, 71, 0
2, 44352, Note_on_c, 0, 73, 67
2, 44444, Note_off_c, 0, 73, 0
2, 44448, Note_on_c, 0, 74, 67
2, 44540, Note_off_c, 0, 74, 0
2, 44640, Note_on_c, 0, 74, 67
2, 44732, Note_off_c, 0, 74, 0
2, 44736, Note_on_c, 0, 76, 67
2, 44828, Note_off_c, 0, 76, 0
2, 44832, Note_on_c, 0, 74, 67
2, 44924, Note_off_c, 0, 74, 0
2, 44928, Note_on_c, 0, 74, 67
2, 45020, Note_off_c, 0, 74, 0
2, 45024, Note_on_c, 0, 69, 67
2, 45116, Note_off_c, 0, 69, 0
2, 45216, Note_on_c, 0, 69, 67
2, 45308, Note_off_c, 0, 69, 0
2, 45312, Note_on_c, 0, 68, 67
2, 45404, Note_off_c, 0, 68, 0
2, 45408, Note_on_c, 0, 69, 67
2, 45500, Note_off_c, 0, 69, 0
2, 45504, Note_on_c, 0, 70, 67
2, 45596, Note_off_c, 0, 70, 0
2, 45600, Note_on_c, 0, 71, 67
2, 45692, Note_off_c, 0, 71, 0
2, 45792, Note_on_c, 0, 71, 67
2, 45884, Note_off_c, 0, 71, 0
2, 45888, Note_on_c, 0, 70, 67
2, 45980, Note_off_c, 0, 70, 0
2, 45984, Note_on_c, 0, 71, 67
2, 46076, Note_off_c, 0, 71, 0
2, 46080, Note_on_c, 0, 72, 67
2, 46172, Note_off_c, 0, 72, 0
2, 46176, Note_on_c, 0, 73, 67
2, 46268, Note_off_c, 0, 73, 0
2, 46272, Note_on_c, 0, 72, 67
2, 46364, Note_off_c, 0, 72, 0
2, 46368, Note_on_c, 0, 73, 67
2, 46460, Note_off_c, 0, 73, 0
2, 46464, Note_on_c, 0, 76, 67
2, 46556, Note_off_c, 0, 76, 0
2, 46560, Note_on_c, 0, 74, 67
2, 46652, Note_off_c, 0, 74, 0
2, 46656, Note_on_c, 0, 73, 67
2, 46748, Note_off_c, 0, 73, 0
2, 46752, Note_on_c, 0, 71, 67
2, 46844, Note_off_c, 0, 71, 0
2, 46848, Note_on_c, 0, 69, 67
2, 46940, Note_off_c, 0, 69, 0
2, 46944, Note_on_c, 0, 68, 67
2, 47036, Note_off_c, 0, 68, 0
2, 47040, Note_on_c, 0, 66, 67
2, 47132, Note_off_c, 0, 66, 0
2, 47136, Note_on_c, 0, 64, 67
2, 47228, Note_off_c, 0, 64, 0
2, 47232, Note_on_c, 0, 73, 90
2, 47232, Note_on_c, 0, 69, 90
2, 47232, Note_on_c, 0, 64, 90
2, 47612, Note_off_c, 0, 73, 0
2, 47612, Note_off_c, 0, 69, 0
2, 47612, Note_off_c, 0, 64, 0
2, 47616, Note_on_c, 0, 74, 90
2, 47616, Note_on_c, 0, 71, 90
2, 47804, Note_off_c, 0, 74, 0
2, 47804, Note_off_c, 0, 71, 0
2, 47808, Note_on_c, 0, 75, 90
2, 47808, Note_on_c, 0, 72, 90
2, 47996, Note_off_c, 0, 75, 0
2, 47996, Note_off_c, 0, 72, 0
2, 48000, Note_on_c, 0, 76, 90
2, 48000, Note_on_c, 0, 73, 90
2, 48188, Note_off_c, 0, 76, 0
2, 48188, Note_off_c, 0, 73, 0
2, 48288, Note_on_c, 0, 73, 90
2, 48288, Note_on_c, 0, 69, 90
2, 48380, Note_off_c, 0, 73, 0
2, 48380, Note_off_c, 0, 69, 0
2, 48384, Note_on_c, 0, 71, 90
2, 48384, Note_on_c, 0, 68, 90
2, 48384, Note_on_c, 0, 64, 90
2, 48572, Note_off_c, 0, 71, 0
2, 48572, Note_off_c, 0, 68, 0
2, 48572, Note_off_c, 0, 64, 0
2, 48576, Note_on_c, 0, 71, 90
2, 48576, Note_on_c, 0, 68, 90
2, 48576, Note_on_c, 0, 64, 90
2, 48764, Note_off_c, 0, 71, 0
2, 48764, Note_off_c, 0, 68, 0
2, 48764, Note_off_c, 0, 64, 0
2, 48768, Note_on_c, 0, 73, 90
2, 48768, Note_on_c, 0, 69, 90
2, 48768, Note_on_c, 0, 64, 90
2, 48956, Note_off_c, 0, 73, 0
2, 48956, Note_off_c, 0, 69, 0
2, 48956, Note_off_c, 0, 64, 0
2, 48960, Note_on_c, 0, 73, 90
2, 48960, Note_on_c, 0, 70, 90
2, 48960, Note_on_c, 0, 64, 90
2, 49148, Note_off_c, 0, 73, 0
2, 49148, Note_off_c, 0, 70, 0
2, 49152, Note_on_c, 0, 74, 90
2, 49152, Note_on_c, 0, 71, 90
2, 49340, Note_off_c, 0, 64, 0
2, 49340, Note_off_c, 0, 74, 0
2, 49340, Note_off_c, 0, 71, 0
2, 49440, Note_on_c, 0, 71, 90
2, 49440, Note_on_c, 0, 68, 90
2, 49532, Note_off_c, 0, 71, 0
2, 49532, Note_off_c, 0, 68, 0
2, 49536, Note_on_c, 0, 69, 90
2, 49724, Note_off_c, 0, 69, 0
2, 49728, Note_on_c, 0, 69, 90
2, 49916, Note_off_c, 0, 69, 0
2, 49920, Note_on_c, 0, 71, 90
2, 50012, Note_off_c, 0, 71, 0
2, 50016, Note_on_c, 0, 69, 90
2, 50060, Note_off_c, 0, 69, 0
2, 50064, Note_on_c, 0, 71, 90
2, 50108, Note_off_c, 0, 71, 0
2, 50112, Note_on_c, 0, 73, 90
2, 50300, Note_off_c, 0, 73, 0
2, 50304, Note_on_c, 0, 73, 90
2, 50492, Note_off_c, 0, 73, 0
2, 50496, Note_on_c, 0, 74, 90
2, 50496, Note_on_c, 0, 71, 90
2, 50496, Note_on_c, 0, 66, 90
2, 50684, Note_off_c, 0, 74, 0
2, 50684, Note_off_c, 0, 71, 0
2, 50684, Note_off_c, 0, 66, 0
2, 50688, Note_on_c, 0, 73, 90
2, 50688, Note_on_c, 0, 69, 90
2, 50688, Note_on_c, 0, 64, 90
2, 50876, Note_off_c, 0, 73, 0
2, 50876, Note_off_c, 0, 69, 0
2, 50876, Note_off_c, 0, 64, 0
2, 50880, Note_on_c, 0, 73, 90
2, 50880, Note_on_c, 0, 69, 90
2, 50880, Note_on_c, 0, 64, 90
2, 51068, Note_off_c, 0, 73, 0
2, 51068, Note_off_c, 0, 69, 0
2, 51068, Note_off_c, 0, 64, 0
2, 51072, Note_on_c, 0, 71, 90
2, 51072, Note_on_c, 0, 68, 90
2, 51072, Note_on_c, 0, 64, 90
2, 51072, Note_on_c, 0, 62, 90
2, 51260, Note_off_c, 0, 71, 0
2, 51260, Note_off_c, 0, 68, 0
2, 51260, Note_off_c, 0, 64, 0
2, 51260, Note_off_c, 0, 62, 0
2, 51264, Note_on_c, 0, 69, 90
2, 51264, Note_on_c, 0, 64, 90
2, 51264, Note_on_c, 0, 61, 90
2, 51452, Note_off_c, 0, 69, 0
2, 51452, Note_off_c, 0, 64, 0
2, 51452, Note_off_c, 0, 61, 0
2, 51840, Note_on_c, 0, 72, 67
2, 51932, Note_off_c, 0, 72, 0
2, 51936, Note_on_c, 0, 73, 67
2, 52028, Note_off_c, 0, 73, 0
2, 52128, Note_on_c, 0, 73, 67
2, 52220, Note_off_c, 0, 73, 0
2, 52224, Note_on_c, 0, 72, 67
2, 52316, Note_off_c, 0, 72, 0
2, 52320, Note_on_c, 0, 73, 67
2, 52412, Note_off_c, 0, 73, 0
2, 52416, Note_on_c, 0, 75, 67
2, 52508, Note_off_c, 0, 75, 0
2, 52512, Note_on_c, 0, 76, 67
2, 52604, Note_off_c, 0, 76, 0
2, 52704, Note_on_c, 0, 76, 67
2, 52796, Note_off_c, 0, 76, 0
2, 52800, Note_on_c, 0, 78, 67
2, 52892, Note_off_c, 0, 78, 0
2, 52896, Note_on_c, 0, 76, 67
2, 52988, Note_off_c, 0, 76, 0
2, 52992, Note_on_c, 0, 76, 67
2, 53084, Note_off_c, 0, 76, 0
2, 53088, Note_on_c, 0, 71, 67
2, 53180, Note_off_c, 0, 71, 0
2, 53280, Note_on_c, 0, 71, 67
2, 53372, Note_off_c, 0, 71, 0
2, 53376, Note_on_c, 0, 70, 67
2, 53468, Note_off_c, 0, 70, 0
2, 53472, Note_on_c, 0, 71, 67
2, 53564, Note_off_c, 0, 71, 0
2, 53568, Note_on_c, 0, 73, 67
2, 53660, Note_off_c, 0, 73, 0
2, 53664, Note_on_c, 0, 74, 67
2, 53756, Note_off_c, 0, 74, 0
2, 53856, Note_on_c, 0, 74, 67
2, 53948, Note_off_c, 0, 74, 0
2, 53952, Note_on_c, 0, 76, 67
2, 54044, Note_off_c, 0, 76, 0
2, 54048, Note_on_c, 0, 74, 67
2, 54140, Note_off_c, 0, 74, 0
2, 54144, Note_on_c, 0, 74, 67
2, 54236, Note_off_c, 0, 74, 0
2, 54240, Note_on_c, 0, 69, 67
2, 54332, Note_off_c, 0, 69, 0
2, 54432, Note_on_c, 0, 69, 67
2, 54524, Note_off_c, 0, 69, 0
2, 54528, Note_on_c, 0, 68, 67
2, 54620, Note_off_c, 0, 68, 0
2, 54624, Note_on_c, 0, 69, 67
2, 54716, Note_off_c, 0, 69, 0
2, 54720, Note_on_c, 0, 70, 67
2, 54812, Note_off_c, 0, 70, 0
2, 54816, Note_on_c, 0, 71, 67
2, 54908, Note_off_c, 0, 71, 0
2, 55008, Note_on_c, 0, 71, 67
2, 55100, Note_off_c, 0, 71, 0
2, 55104, Note_on_c, 0, 70, 67
2, 55196, Note_off_c, 0, 70, 0
2, 55200, Note_on_c, 0, 71, 67
2, 55292, Note_off_c, 0, 71, 0
2, 55296, Note_on_c, 0, 72, 67
2, 55388, Note_off_c, 0, 72, 0
2, 55392, Note_on_c, 0, 73, 67
2, 55484, Note_off_c, 0, 73, 0
2, 55488, Note_on_c, 0, 72, 67
2, 55580, Note_off_c, 0, 72, 0
2, 55584, Note_on_c, 0, 73, 67
2, 55676, Note_off_c, 0, 73, 0
2, 55680, Note_on_c, 0, 76, 67
2, 55772, Note_off_c, 0, 76, 0
2, 55776, Note_on_c, 0, 74, 67
2, 55868, Note_off_c, 0, 74, 0
2, 55872, Note_on_c, 0, 73, 67
2, 55964, Note_off_c, 0, 73, 0
2, 55968, Note_on_c, 0, 71, 67
2, 56060, Note_off_c, 0, 71, 0
2, 56064, Note_on_c, 0, 69, 67
2, 56156, Note_off_c, 0, 69, 0
2, 56160, Note_on_c, 0, 68, 67
2, 56252, Note_off_c, 0, 68, 0
2, 56256, Note_on_c, 0, 66, 67
2, 56348, Note_off_c, 0, 66, 0
2, 56352, Note_on_c, 0, 64, 67
2, 56444, Note_off_c, 0, 64, 0
2, 56448, Note_on_c, 0, 73, 90
2, 56448, Note_on_c, 0, 69, 90
2, 56448, Note_on_c, 0, 64, 90
2, 56828, Note_off_c, 0, 73, 0
2, 56828, Note_off_c, 0, 69, 0
2, 56828, Note_off_c, 0, 64, 0
2, 56832, Note_on_c, 0, 74, 90
2, 56832, Note_on_c, 0, 71, 90
2, 57020, Note_off_c, 0, 74, 0
2, 57020, Note_off_c, 0, 71, 0
2, 57024, Note_on_c, 0, 75, 90
2, 57024, Note_on_c, 0, 72, 90
2, 57212, Note_off_c, 0, 75, 0
2, 57212, Note_off_c, 0, 72, 0
2, 57216, Note_on_c, 0, 76, 90
2, 57216, Note_on_c, 0, 73, 90
2, 57404, Note_off_c, 0, 76, 0
2, 57404, Note_off_c, 0, 73, 0
2, 57504, Note_on_c, 0, 73, 90
2, 57504, Note_on_c, 0, 69, 90
2, 57596, Note_off_c, 0, 73, 0
2, 57596, Note_off_c, 0, 69, 0
2, 57600, Note_on_c, 0, 71, 90
2, 57600, Note_on_c, 0, 68, 90
2, 57600, Note_on_c, 0, 64, 90
2, 57788, Note_off_c, 0, 71, 0
2, 57788, Note_off_c, 0, 68, 0
2, 57788, Note_off_c, 0, 64, 0
2, 57792, Note_on_c, 0, 71, 90
2, 57792, Note_on_c, 0, 68, 90
2, 57792, Note_on_c, 0, 64, 90
2, 57980, Note_off_c, 0, 71, 0
2, 57980, Note_off_c, 0, 68, 0
2, 57980, Note_off_c, 0, 64, 0
2, 57984, Note_on_c, 0, 73, 90
2, 57984, Note_on_c, 0, 69, 90
2, 57984, Note_on_c, 0, 64, 90
2, 58172, Note_off_c, 0, 73, 0
2, 58172, Note_off_c, 0, 69, 0
2, 58172, Note_off_c, 0, 64, 0
2, 58176, Note_on_c, 0, 73, 90
2, 58176, Note_on_c, 0, 70, 90
2, 58176, Note_on_c, 0, 64, 90
2, 58364, Note_off_c, 0, 73, 0
2, 58364, Note_off_c, 0, 70, 0
2, 58368, Note_on_c, 0, 74, 90
2, 58368, Note_on_c, 0, 71, 90
2, 58556, Note_off_c, 0, 64, 0
2, 58556, Note_off_c, 0, 74, 0
2, 58556, Note_off_c, 0, 71, 0
2, 58656, Note_on_c, 0, 71, 90
2, 58656, Note_on_c, 0, 68, 90
2, 58748, Note_off_c, 0, 71, 0
2, 58748, Note_off_c, 0, 68, 0
2, 58752, Note_on_c, 0, 69, 90
2, 58940, Note_off_c, 0, 69, 0
2, 58944, Note_on_c, 0, 69, 90
2, 59132, Note_off_c, 0, 69, 0
2, 59136, Note_on_c, 0, 71, 90
2, 59228, Note_off_c, 0, 71, 0
2, 59232, Note_on_c, 0, 69, 90
2, 59276, Note_off_c, 0, 69, 0
2, 59280, Note_on_c, 0, 71, 90
2, 59324, Note_off_c, 0, 71, 0
2, 59328, Note_on_c, 0, 73, 90
2, 59516, Note_off_c, 0, 73, 0
2, 59520, Note_on_c, 0, 73, 90
2, 59708, Note_off_c, 0, 73, 0
2, 59712, Note_on_c, 0, 74, 90
2, 59712, Note_on_c, 0, 71, 90
2, 59712, Note_on_c, 0, 66, 90
2, 59900, Note_off_c, 0, 74, 0
2, 59900, Note_off_c, 0, 71, 0
2, 59900, Note_off_c, 0, 66, 0
2, 59904, Note_on_c, 0, 73, 90
2, 59904, Note_on_c, 0, 69, 90
2, 59904, Note_on_c, 0, 64, 90
2, 60092, Note_off_c, 0, 73, 0
2, 60092, Note_off_c, 0, 69, 0
2, 60092, Note_off_c, 0, 64, 0
2, 60096, Note_on_c, 0, 73, 90
2, 60096, Note_on_c, 0, 69, 90
2, 60096, Note_on_c, 0, 64, 90
2, 60284, Note_off_c, 0, 73, 0
2, 60284, Note_off_c, 0, 69, 0
2, 60284, Note_off_c, 0, 64, 0
2, 60288, Note_on_c, 0, 71, 90
2, 60288, Note_on_c, 0, 68, 90
2, 60288, Note_on_c, 0, 64, 90
2, 60288, Note_on_c, 0, 62, 90
2, 60476, Note_off_c, 0, 71, 0
2, 60476, Note_off_c, 0, 68, 0
2, 60476, Note_off_c, 0, 64, 0
2, 60476, Note_off_c, 0, 62, 0
2, 60480, Note_on_c, 0, 69, 90
2, 60480, Note_on_c, 0, 64, 90
2, 60480, Note_on_c, 0, 61, 90
2, 60668, Note_off_c, 0, 69, 0
2, 60668, Note_off_c, 0, 64, 0
2, 60668, Note_off_c, 0, 61, 0
2, 61056, Note_on_c, 0, 75, 67
2, 61148, Note_off_c, 0, 75, 0
2, 61152, Note_on_c, 0, 76, 67
2, 61244, Note_off_c, 0, 76, 0
2, 61344, Note_on_c, 0, 76, 67
2, 61436, Note_off_c, 0, 76, 0
2, 61440, Note_on_c, 0, 75, 67
2, 61532, Note_off_c, 0, 75, 0
2, 61536, Note_on_c, 0, 76, 67
2, 61628, Note_off_c, 0, 76, 0
2, 61632, Note_on_c, 0, 77, 67
2, 61724, Note_off_c, 0, 77, 0
2, 61728, Note_on_c, 0, 78, 67
2, 61820, Note_off_c, 0, 78, 0
2, 61920, Note_on_c, 0, 78, 67
2, 62012, Note_off_c, 0, 78, 0
2, 62016, Note_on_c, 0, 77, 67
2, 62108, Note_off_c, 0, 77, 0
2, 62112, Note_on_c, 0, 78, 67
2, 62204, Note_off_c, 0, 78, 0
2, 62208, Note_on_c, 0, 80, 67
2, 62300, Note_off_c, 0, 80, 0
2, 62304, Note_on_c, 0, 81, 67
2, 62396, Note_off_c, 0, 81, 0
2, 62400, Note_on_c, 0, 78, 67
2, 62492, Note_off_c, 0, 78, 0
2, 62496, Note_on_c, 0, 80, 67
2, 62588, Note_off_c, 0, 80, 0
2, 62592, Note_on_c, 0, 77, 67
2, 62684, Note_off_c, 0, 77, 0
2, 62688, Note_on_c, 0, 78, 67
2, 62780, Note_off_c, 0, 78, 0
2, 62784, Note_on_c, 0, 75, 67
2, 62876, Note_off_c, 0, 75, 0
2, 62880, Note_on_c, 0, 76, 67
2, 62972, Note_off_c, 0, 76, 0
2, 63072, Note_on_c, 0, 76, 67
2, 63164, Note_off_c, 0, 76, 0
2, 63168, Note_on_c, 0, 76, 67
2, 63260, Note_off_c, 0, 76, 0
2, 63264, Note_on_c, 0, 76, 67
2, 63356, Note_off_c, 0, 76, 0
2, 63360, Note_on_c, 0, 76, 90
2, 63452, Note_off_c, 0, 76, 0
2, 63456, Note_on_c, 0, 73, 83
2, 63548, Note_off_c, 0, 73, 0
2, 63552, Note_on_c, 0, 69, 75
2, 63644, Note_off_c, 0, 69, 0
2, 63648, Note_on_c, 0, 76, 67
2, 63740, Note_off_c, 0, 76, 0
2, 63744, Note_on_c, 0, 76, 67
2, 63836, Note_off_c, 0, 76, 0
2, 63840, Note_on_c, 0, 76, 67
2, 63932, Note_off_c, 0, 76, 0
2, 63936, Note_on_c, 0, 76, 90
2, 64028, Note_off_c, 0, 76, 0
2, 64032, Note_on_c, 0, 74, 83
2, 64124, Note_off_c, 0, 74, 0
2, 64128, Note_on_c, 0, 68, 75
2, 64220, Note_off_c, 0, 68, 0
2, 64224, Note_on_c, 0, 76, 67
2, 64316, Note_off_c, 0, 76, 0
2, 64320, Note_on_c, 0, 76, 67
2, 64412, Note_off_c, 0, 76, 0
2, 64416, Note_on_c, 0, 76, 67
2, 64508, Note_off_c, 0, 76, 0
2, 64512, Note_on_c, 0, 76, 90
2, 64604, Note_off_c, 0, 76, 0
2, 64608, Note_on_c, 0, 73, 83
2, 64700, Note_off_c, 0, 73, 0
2, 64704, Note_on_c, 0, 69, 75
2, 64796, Note_off_c, 0, 69, 0
2, 64800, Note_on_c, 0, 76, 67
2, 64892, Note_off_c, 0, 76, 0
2, 64896, Note_on_c, 0, 73, 67
2, 64988, Note_off_c, 0, 73, 0
2, 64992, Note_on_c, 0, 69, 67
2, 65084, Note_off_c, 0, 69, 0
2, 65088, Note_on_c, 0, 73, 67
2, 65088, Note_on_c, 0, 69, 67
2, 65468, Note_off_c, 0, 73, 0
2, 65468, Note_off_c, 0, 69, 0
2, 65472, Note_on_c, 0, 71, 67
2, 65472, Note_on_c, 0, 68, 67
2, 65660, Note_off_c, 0, 71, 0
2, 65660, Note_off_c, 0, 68, 0
2, 65664, Note_on_c, 0, 72, 67
2, 65756, Note_off_c, 0, 72, 0
2, 65760, Note_on_c, 0, 73, 67
2, 65852, Note_off_c, 0, 73, 0
2, 65952, Note_on_c, 0, 73, 67
2, 66044, Note_off_c, 0, 73, 0
2, 66048, Note_on_c, 0, 72, 67
2, 66140, Note_off_c, 0, 72, 0
2, 66144, Note_on_c, 0, 73, 67
2, 66236, Note_off_c, 0, 73, 0
2, 66240, Note_on_c, 0, 75, 67
2, 66332, Note_off_c, 0, 75, 0
2, 66336, Note_on_c, 0, 76, 67
2, 66428, Note_off_c, 0, 76, 0
2, 66528, Note_on_c, 0, 76, 67
2, 66620, Note_off_c, 0, 76, 0
2, 66624, Note_on_c, 0, 78, 67
2, 66716, Note_off_c, 0, 78, 0
2, 66720, Note_on_c, 0, 76, 67
2, 66812, Note_off_c, 0, 76, 0
2, 66816, Note_on_c, 0, 76, 67
2, 66908, Note_off_c, 0, 76, 0
2, 66912, Note_on_c, 0, 71, 67
2, 67004, Note_off_c, 0, 71, 0
2, 67104, Note_on_c, 0, 71, 67
2, 67196, Note_off_c, 0, 71, 0
2, 67200, Note_on_c, 0, 70, 67
2, 67292, Note_off_c, 0, 70, 0
2, 67296, Note_on_c, 0, 71, 67
2, 67388, Note_off_c, 0, 71, 0
2, 67392, Note_on_c, 0, 73, 67
2, 67484, Note_off_c, 0, 73, 0
2, 67488, Note_on_c, 0, 74, 67
2, 67580, Note_off_c, 0, 74, 0
2, 67680, Note_on_c, 0, 74, 67
2, 67772, Note_off_c, 0, 74, 0
2, 67776, Note_on_c, 0, 76, 67
2, 67868, Note_off_c, 0, 76, 0
2, 67872, Note_on_c, 0, 74, 67
2, 67964, Note_off_c, 0, 74, 0
2, 67968, Note_on_c, 0, 74, 67
2, 68060, Note_off_c, 0, 74, 0
2, 68064, Note_on_c, 0, 69, 67
2, 68156, Note_off_c, 0, 69, 0
2, 68256, Note_on_c, 0, 69, 70
2, 68348, Note_off_c, 0, 69, 0
2, 68352, Note_on_c, 0, 73, 71
2, 68444, Note_off_c, 0, 73, 0
2, 68448, Note_on_c, 0, 71, 72
2, 68540, Note_off_c, 0, 71, 0
2, 68544, Note_on_c, 0, 74, 74
2, 68636, Note_off_c, 0, 74, 0
2, 68640, Note_on_c, 0, 73, 75
2, 68732, Note_off_c, 0, 73, 0
2, 68832, Note_on_c, 0, 73, 79
2, 68924, Note_off_c, 0, 73, 0
2, 68928, Note_on_c, 0, 76, 80
2, 69020, Note_off_c, 0, 76, 0
2, 69024, Note_on_c, 0, 74, 81
2, 69116, Note_off_c, 0, 74, 0
2, 69120, Note_on_c, 0, 72, 83
2, 69212, Note_off_c, 0, 72, 0
2, 69216, Note_on_c, 0, 73, 81
2, 69308, Note_off_c, 0, 73, 0
2, 69408, Note_on_c, 0, 73, 80
2, 69500, Note_off_c, 0, 73, 0
2, 69504, Note_on_c, 0, 74, 79
2, 69596, Note_off_c, 0, 74, 0
2, 69600, Note_on_c, 0, 71, 77
2, 69692, Note_off_c, 0, 71, 0
2, 69696, Note_on_c, 0, 71, 75
2, 69696, Note_on_c, 0, 68, 75
2, 69980, Note_off_c, 0, 71, 0
2, 69984, Note_on_c, 0, 72, 71
2, 70076, Note_off_c, 0, 68, 0
2, 70076, Note_off_c, 0, 72, 0
2, 70080, Note_on_c, 0, 73, 70
2, 70080, Note_on_c, 0, 69, 67
2, 70268, Note_off_c, 0, 73, 0
2, 70268, Note_off_c, 0, 69, 0
2, 70272, Note_on_c, 0, 73, 90
2, 70272, Note_on_c, 0, 69, 90
2, 70272, Note_on_c, 0, 64, 90
2, 70460, Note_off_c, 0, 73, 0
2, 70460, Note_off_c, 0, 69, 0
2, 70460, Note_off_c, 0, 64, 0
2, 70464, Note_on_c, 0, 73, 90
2, 70464, Note_on_c, 0, 69, 90
2, 70464, Note_on_c, 0, 64, 90
2, 70652, Note_off_c, 0, 73, 0
2, 70652, Note_off_c, 0, 69, 0
2, 70652, Note_off_c, 0, 64, 0
2, 70656, Note_on_c, 0, 74, 90
2, 70656, Note_on_c, 0, 68, 90
2, 70656, Note_on_c, 0, 64, 90
2, 70844, Note_off_c, 0, 74, 0
2, 70844, Note_off_c, 0, 68, 0
2, 70844, Note_off_c, 0, 64, 0
2, 70848, Note_on_c, 0, 76, 90
2, 70848, Note_on_c, 0, 69, 90
2, 70848, Note_on_c, 0, 64, 90
2, 71036, Note_off_c, 0, 76, 0
2, 71036, Note_off_c, 0, 69, 0
2, 71036, Note_off_c, 0, 64, 0
2, 71040, Note_on_c, 0, 76, 90
2, 71040, Note_on_c, 0, 69, 90
2, 71228, Note_off_c, 0, 76, 0
2, 71228, Note_off_c, 0, 69, 0
2, 71232, Note_on_c, 0, 69, 90
2, 71232, Note_on_c, 0, 78, 90
2, 71324, Note_off_c, 0, 78, 0
2, 71328, Note_on_c, 0, 80, 90
2, 71372, Note_off_c, 0, 80, 0
2, 71376, Note_on_c, 0, 81, 90
2, 71420, Note_off_c, 0, 69, 0
2, 71420, Note_off_c, 0, 81, 0
2, 71424, Note_on_c, 0, 69, 90
2, 71424, Note_on_c, 0, 64, 90
2, 71424, Note_on_c, 0, 61, 90
2, 71612, Note_off_c, 0, 69, 0
2, 71612, Note_off_c, 0, 64, 0
2, 71612, Note_off_c, 0, 61, 0
2, 71616, Note_on_c, 0, 69, 90
2, 71616, Note_on_c, 0, 64, 90
2, 71616, Note_on_c, 0, 61, 90
2, 71804, Note_off_c, 0, 69, 0
2, 71804, Note_off_c, 0, 64, 0
2, 71804, Note_off_c, 0, 61, 0
2, 71808, Note_on_c, 0, 71, 90
2, 71808, Note_on_c, 0, 68, 90
2, 71808, Note_on_c, 0, 64, 90
2, 71808, Note_on_c, 0, 62, 90
2, 71996, Note_off_c, 0, 71, 0
2, 71996, Note_off_c, 0, 68, 0
2, 71996, Note_off_c, 0, 64, 0
2, 71996, Note_off_c, 0, 62, 0
2, 72000, Note_on_c, 0, 69, 90
2, 72000, Note_on_c, 0, 64, 90
2, 72000, Note_on_c, 0, 61, 90
2, 72188, Note_off_c, 0, 69, 0
2, 72188, Note_off_c, 0, 64, 0
2, 72188, Note_off_c, 0, 61, 0
2, 72576, Note_on_c, 0, 75, 67
2, 72668, Note_off_c, 0, 75, 0
2, 72672, Note_on_c, 0, 76, 67
2, 72764, Note_off_c, 0, 76, 0
2, 72864, Note_on_c, 0, 76, 67
2, 72956, Note_off_c, 0, 76, 0
2, 72960, Note_on_c, 0, 75, 67
2, 73052, Note_off_c, 0, 75, 0
2, 73056, Note_on_c, 0, 76, 67
2, 73148, Note_off_c, 0, 76, 0
2, 73152, Note_on_c, 0, 77, 67
2, 73244, Note_off_c, 0, 77, 0
2, 73248, Note_on_c, 0, 78, 67
2, 73340, Note_off_c, 0, 78, 0
2, 73440, Note_on_c, 0, 78, 67
2, 73532, Note_off_c, 0, 78, 0
2, 73536, Note_on_c, 0, 77, 67
2, 73628, Note_off_c, 0, 77, 0
2, 73632, Note_on_c, 0, 78, 67
2, 73724, Note_off_c, 0, 78, 0
2, 73728, Note_on_c, 0, 80, 67
2, 73820, Note_off_c, 0, 80, 0
2, 73824, Note_on_c, 0, 81, 67
2, 73916, Note_off_c, 0, 81, 0
2, 73920, Note_on_c, 0, 78, 67
2, 74012, Note_off_c, 0, 78, 0
2, 74016, Note_on_c, 0, 80, 67
2, 74108, Note_off_c, 0, 80, 0
2, 74112, Note_on_c, 0, 77, 67
2, 74204, Note_off_c, 0, 77, 0
2, 74208, Note_on_c, 0, 78, 67
2, 74300, Note_off_c, 0, 78, 0
2, 74304, Note_on_c, 0, 75, 67
2, 74396, Note_off_c, 0, 75, 0
2, 74400, Note_on_c, 0, 76, 67
2, 74492, Note_off_c, 0, 76, 0
2, 74592, Note_on_c, 0, 76, 67
2, 74684, Note_off_c, 0, 76, 0
2, 74688, Note_on_c, 0, 76, 67
2, 74780, Note_off_c, 0, 76, 0
2, 74784, Note_on_c, 0, 76, 67
2, 74876, Note_off_c, 0, 76, 0
2, 74880, Note_on_c, 0, 76, 90
2, 74972, Note_off_c, 0, 76, 0
2, 74976, Note_on_c, 0, 73, 83
2, 75068, Note_off_c, 0, 73, 0
2, 75072, Note_on_c, 0, 69, 75
2, 75164, Note_off_c, 0, 69, 0
2, 75168, Note_on_c, 0, 76, 67
2, 75260, Note_off_c, 0, 76, 0
2, 75264, Note_on_c, 0, 76, 67
2, 75356, Note_off_c, 0, 76, 0
2, 75360, Note_on_c, 0, 76, 67
2, 75452, Note_off_c, 0, 76, 0
2, 75456, Note_on_c, 0, 76, 67
2, 75548, Note_off_c, 0, 76, 0
2, 75552, Note_on_c, 0, 74, 90
2, 75644, Note_off_c, 0, 74, 0
2, 75648, Note_on_c, 0, 68, 83
2, 75740, Note_off_c, 0, 68, 0
2, 75744, Note_on_c, 0, 76, 75
2, 75836, Note_off_c, 0, 76, 0
2, 75840, Note_on_c, 0, 76, 67
2, 75932, Note_off_c, 0, 76, 0
2, 75936, Note_on_c, 0, 76, 67
2, 76028, Note_off_c, 0, 76, 0
2, 76032, Note_on_c, 0, 76, 90
2, 76124, Note_off_c, 0, 76, 0
2, 76128, Note_on_c, 0, 73, 83
2, 76220, Note_off_c, 0, 73, 0
2, 76224, Note_on_c, 0, 69, 75
2, 76316, Note_off_c, 0, 69, 0
2, 76320, Note_on_c, 0, 76, 67
2, 76412, Note_off_c, 0, 76, 0
2, 76416, Note_on_c, 0, 73, 67
2, 76508, Note_off_c, 0, 73, 0
2, 76512, Note_on_c, 0, 69, 67
2, 76604, Note_off_c, 0, 69, 0
2, 76608, Note_on_c, 0, 73, 67
2, 76608, Note_on_c, 0, 69, 67
2, 76988, Note_off_c, 0, 73, 0
2, 76988, Note_off_c, 0, 69, 0
2, 76992, Note_on_c, 0, 71, 67
2, 76992, Note_on_c, 0, 68, 67
2, 77180, Note_off_c, 0, 71, 0
2, 77180, Note_off_c, 0, 68, 0
2, 77184, Note_on_c, 0, 72, 67
2, 77276, Note_off_c, 0, 72, 0
2, 77280, Note_on_c, 0, 73, 67
2, 77372, Note_off_c, 0, 73, 0
2, 77472, Note_on_c, 0, 73, 67
2, 77564, Note_off_c, 0, 73, 0
2, 77568, Note_on_c, 0, 72, 67
2, 77660, Note_off_c, 0, 72, 0
2, 77664, Note_on_c, 0, 73, 67
2, 77756, Note_off_c, 0, 73, 0
2, 77760, Note_on_c, 0, 75, 67
2, 77852, Note_off_c, 0, 75, 0
2, 77856, Note_on_c, 0, 76, 67
2, 77948, Note_off_c, 0, 76, 0
2, 78048, Note_on_c, 0, 76, 67
2, 78140, Note_off_c, 0, 76, 0
2, 78144, Note_on_c, 0, 78, 67
2, 78236, Note_off_c, 0, 78, 0
2, 78240, Note_on_c, 0, 76, 67
2, 78332, Note_off_c, 0, 76, 0
2, 78336, Note_on_c, 0, 76, 67
2, 78428, Note_off_c, 0, 76, 0
2, 78432, Note_on_c, 0, 71, 67
2, 78524, Note_off_c, 0, 71, 0
2, 78624, Note_on_c, 0, 71, 67
2, 78716, Note_off_c, 0, 71, 0
2, 78720, Note_on_c, 0, 70, 67
2, 78812, Note_off_c, 0, 70, 0
2, 78816, Note_on_c, 0, 71, 67
2, 78908, Note_off_c, 0, 71, 0
2, 78912, Note_on_c, 0, 73, 67
2, 79004, Note_off_c, 0, 73, 0
2, 79008, Note_on_c, 0, 74, 67
2, 79100, Note_off_c, 0, 74, 0
2, 79200, Note_on_c, 0, 74, 67
2, 79292, Note_off_c, 0, 74, 0
2, 79296, Note_on_c, 0, 76, 67
2, 79388, Note_off_c, 0, 76, 0
2, 79392, Note_on_c, 0, 74, 67
2, 79484, Note_off_c, 0, 74, 0
2, 79488, Note_on_c, 0, 74, 67
2, 79580, Note_off_c, 0, 74, 0
2, 79584, Note_on_c, 0, 69, 67
2, 79676, Note_off_c, 0, 69, 0
2, 79776, Note_on_c, 0, 69, 70
2, 79868, Note_off_c, 0, 69, 0
2, 79872, Note_on_c, 0, 73, 71
2, 79964, Note_off_c, 0, 73, 0
2, 79968, Note_on_c, 0, 71, 72
2, 80060, Note_off_c, 0, 71, 0
2, 80064, Note_on_c, 0, 74, 74
2, 80156, Note_off_c, 0, 74, 0
2, 80160, Note_on_c, 0, 73, 75
2, 80252, Note_off_c, 0, 73, 0
2, 80352, Note_on_c, 0, 73, 79
2, 80444, Note_off_c, 0, 73, 0
2, 80448, Note_on_c, 0, 76, 80
2, 80540, Note_off_c, 0, 76, 0
2, 80544, Note_on_c, 0, 74, 81
2, 80636, Note_off_c, 0, 74, 0
2, 80640, Note_on_c, 0, 72, 83
2, 80732, Note_off_c, 0, 72, 0
2, 80736, Note_on_c, 0, 73, 83
2, 80828, Note_off_c, 0, 73, 0
2, 80928, Note_on_c, 0, 73, 80
2, 81020, Note_off_c, 0, 73, 0
2, 81024, Note_on_c, 0, 74, 79
2, 81116, Note_off_c, 0, 74, 0
2, 81120, Note_on_c, 0, 71, 77
2, 81212, Note_off_c, 0, 71, 0
2, 81216, Note_on_c, 0, 71, 75
2, 81216, Note_on_c, 0, 68, 75
2, 81500, Note_off_c, 0, 71, 0
2, 81504, Note_on_c, 0, 72, 71
2, 81596, Note_off_c, 0, 68, 0
2, 81596, Note_off_c, 0, 72, 0
2, 81600, Note_on_c, 0, 73, 70
2, 81600, Note_on_c, 0, 69, 70
2, 81788, Note_off_c, 0, 73, 0
2, 81788, Note_off_c, 0, 69, 0
2, 81792, Note_on_c, 0, 73, 90
2, 81792, Note_on_c, 0, 69, 90
2, 81792, Note_on_c, 0, 64, 90
2, 81980, Note_off_c, 0, 73, 0
2, 81980, Note_off_c, 0, 69, 0
2, 81980, Note_off_c, 0, 64, 0
2, 81984, Note_on_c, 0, 73, 90
2, 81984, Note_on_c, 0, 69, 90
2, 81984, Note_on_c, 0, 64, 90
2, 82172, Note_off_c, 0, 73, 0
2, 82172, Note_off_c, 0, 69, 0
2, 82172, Note_off_c, 0, 64, 0
2, 82176, Note_on_c, 0, 74, 90
2, 82176, Note_on_c, 0, 68, 90
2, 82176, Note_on_c, 0, 64, 90
2, 82364, Note_off_c, 0, 74, 0
2, 82364, Note_off_c, 0, 68, 0
2, 82364, Note_off_c, 0, 64, 0
2, 82368, Note_on_c, 0, 76, 90
2, 82368, Note_on_c, 0, 69, 90
2, 82368, Note_on_c, 0, 64, 90
2, 82556, Note_off_c, 0, 76, 0
2, 82556, Note_off_c, 0, 69, 0
2, 82556, Note_off_c, 0, 64, 0
2, 82560, Note_on_c, 0, 76, 90
2, 82560, Note_on_c, 0, 69, 90
2, 82748, Note_off_c, 0, 76, 0
2, 82748, Note_off_c, 0, 69, 0
2, 82752, Note_on_c, 0, 69, 90
2, 82752, Note_on_c, 0, 78, 90
2, 82844, Note_off_c, 0, 78, 0
2, 82848, Note_on_c, 0, 80, 90
2, 82892, Note_off_c, 0, 80, 0
2, 82896, Note_on_c, 0, 81, 90
2, 82940, Note_off_c, 0, 69, 0
2, 82940, Note_off_c, 0, 81, 0
2, 82944, Note_on_c, 0, 69, 90
2, 82944, Note_on_c, 0, 64, 90
2, 82944, Note_on_c, 0, 61, 90
2, 83132, Note_off_c, 0, 69, 0
2, 83132, Note_off_c, 0, 64, 0
2, 83132, Note_off_c, 0, 61, 0
2, 83136, Note_on_c, 0, 69, 90
2, 83136, Note_on_c, 0, 64, 90
2, 83136, Note_on_c, 0, 61, 90
2, 83324, Note_off_c, 0, 69, 0
2, 83324, Note_off_c, 0, 64, 0
2, 83324, Note_off_c, 0, 61, 0
2, 83328, Note_on_c, 0, 71, 90
2, 83328, Note_on_c, 0, 68, 90
2, 83328, Note_on_c, 0, 64, 90
2, 83328, Note_on_c, 0, 62, 90
2, 83516, Note_off_c, 0, 71, 0
2, 83516, Note_off_c, 0, 68, 0
2, 83516, Note_off_c, 0, 64, 0
2, 83516, Note_off_c, 0, 62, 0
2, 83520, Note_on_c, 0, 69, 90
2, 83520, Note_on_c, 0, 64, 90
2, 83520, Note_on_c, 0, 61, 90
2, 83708, Note_off_c, 0, 69, 0
2, 83708, Note_off_c, 0, 64, 0
2, 83708, Note_off_c, 0, 61, 0
2, 84096, Note_on_c, 0, 73, 67
2, 84284, Note_off_c, 0, 73, 0
2, 84288, Note_on_c, 0, 73, 67
2, 84476, Note_off_c, 0, 73, 0
2, 84480, Note_on_c, 0, 76, 67
2, 84508, Note_off_c, 0, 76, 0
2, 84512, Note_on_c, 0, 74, 67
2, 84540, Note_off_c, 0, 74, 0
2, 84544, Note_on_c, 0, 76, 67
2, 84572, Note_off_c, 0, 76, 0
2, 84576, Note_on_c, 0, 74, 67
2, 84604, Note_off_c, 0, 74, 0
2, 84608, Note_on_c, 0, 73, 67
2, 84636, Note_off_c, 0, 73, 0
2, 84640, Note_on_c, 0, 74, 67
2, 84668, Note_off_c, 0, 74, 0
2, 84672, Note_on_c, 0, 76, 67
2, 84860, Note_off_c, 0, 76, 0
2, 85056, Note_on_c, 0, 78, 67
2, 85100, Note_off_c, 0, 78, 0
2, 85104, Note_on_c, 0, 76, 67
2, 85148, Note_off_c, 0, 76, 0
2, 85152, Note_on_c, 0, 74, 67
2, 85196, Note_off_c, 0, 74, 0
2, 85200, Note_on_c, 0, 73, 67
2, 85244, Note_off_c, 0, 73, 0
2, 85248, Note_on_c, 0, 71, 67
2, 85436, Note_off_c, 0, 71, 0
2, 85440, Note_on_c, 0, 71, 67
2, 85628, Note_off_c, 0, 71, 0
2, 85632, Note_on_c, 0, 74, 67
2, 85660, Note_off_c, 0, 74, 0
2, 85664, Note_on_c, 0, 73, 67
2, 85692, Note_off_c, 0, 73, 0
2, 85696, Note_on_c, 0, 74, 67
2, 85724, Note_off_c, 0, 74, 0
2, 85728, Note_on_c, 0, 73, 67
2, 85756, Note_off_c, 0, 73, 0
2, 85760, Note_on_c, 0, 71, 67
2, 85788, Note_off_c, 0, 71, 0
2, 85792, Note_on_c, 0, 73, 67
2, 85820, Note_off_c, 0, 73, 0
2, 85824, Note_on_c, 0, 74, 67
2, 86012, Note_off_c, 0, 74, 0
2, 86208, Note_on_c, 0, 76, 67
2, 86252, Note_off_c, 0, 76, 0
2, 86256, Note_on_c, 0, 74, 67
2, 86300, Note_off_c, 0, 74, 0
2, 86304, Note_on_c, 0, 73, 67
2, 86348, Note_off_c, 0, 73, 0
2, 86352, Note_on_c, 0, 71, 67
2, 86396, Note_off_c, 0, 71, 0
2, 86400, Note_on_c, 0, 69, 67
2, 86588, Note_off_c, 0, 69, 0
2, 86592, Note_on_c, 0, 69, 67
2, 86780, Note_off_c, 0, 69, 0
2, 86784, Note_on_c, 0, 74, 67
2, 86812, Note_off_c, 0, 74, 0
2, 86816, Note_on_c, 0, 73, 67
2, 86844, Note_off_c, 0, 73, 0
2, 86848, Note_on_c, 0, 74, 67
2, 86876, Note_off_c, 0, 74, 0
2, 86880, Note_on_c, 0, 73, 67
2, 86908, Note_off_c, 0, 73, 0
2, 86912, Note_on_c, 0, 71, 67
2, 86940, Note_off_c, 0, 71, 0
2, 86944, Note_on_c, 0, 73, 67
2, 86972, Note_off_c, 0, 73, 0
2, 86976, Note_on_c, 0, 71, 67
2, 87164, Note_off_c, 0, 71, 0
2, 87168, Note_on_c, 0, 71, 67
2, 87356, Note_off_c, 0, 71, 0
2, 87360, Note_on_c, 0, 73, 67
2, 87388, Note_off_c, 0, 73, 0
2, 87392, Note_on_c, 0, 71, 67
2, 87420, Note_off_c, 0, 71, 0
2, 87424, Note_on_c, 0, 73, 67
2, 87452, Note_off_c, 0, 73, 0
2, 87456, Note_on_c, 0, 71, 67
2, 87484, Note_off_c, 0, 71, 0
2, 87488, Note_on_c, 0, 69, 67
2, 87516, Note_off_c, 0, 69, 0
2, 87520, Note_on_c, 0, 71, 67
2, 87548, Note_off_c, 0, 71, 0
2, 87552, Note_on_c, 0, 73, 67
2, 87740, Note_off_c, 0, 73, 0
2, 87744, Note_on_c, 0, 73, 67
2, 87932, Note_off_c, 0, 73, 0
2, 87936, Note_on_c, 0, 71, 67
2, 87936, Note_on_c, 0, 76, 67
2, 87980, Note_off_c, 0, 76, 0
2, 87984, Note_on_c, 0, 74, 67
2, 88124, Note_off_c, 0, 71, 0
2, 88124, Note_off_c, 0, 74, 0
2, 88128, Note_on_c, 0, 73, 67
2, 88128, Note_on_c, 0, 69, 67
2, 88508, Note_off_c, 0, 73, 0
2, 88508, Note_off_c, 0, 69, 0
2, 88512, Note_on_c, 0, 71, 67
2, 88512, Note_on_c, 0, 68, 67
2, 88700, Note_off_c, 0, 71, 0
2, 88700, Note_off_c, 0, 68, 0
2, 88704, Note_on_c, 0, 73, 90
2, 88764, Note_off_c, 0, 73, 0
2, 88768, Note_on_c, 0, 69, 90
2, 88828, Note_off_c, 0, 69, 0
2, 88832, Note_on_c, 0, 64, 90
2, 88892, Note_off_c, 0, 64, 0
2, 88896, Note_on_c, 0, 73, 90
2, 88956, Note_off_c, 0, 73, 0
2, 88960, Note_on_c, 0, 69, 90
2, 89020, Note_off_c, 0, 69, 0
2, 89024, Note_on_c, 0, 64, 90
2, 89084, Note_off_c, 0, 64, 0
2, 89088, Note_on_c, 0, 74, 90
2, 89148, Note_off_c, 0, 74, 0
2, 89152, Note_on_c, 0, 71, 90
2, 89212, Note_off_c, 0, 71, 0
2, 89216, Note_on_c, 0, 64, 90
2, 89276, Note_off_c, 0, 64, 0
2, 89280, Note_on_c, 0, 76, 90
2, 89340, Note_off_c, 0, 76, 0
2, 89344, Note_on_c, 0, 73, 90
2, 89404, Note_off_c, 0, 73, 0
2, 89408, Note_on_c, 0, 64, 90
2, 89468, Note_off_c, 0, 64, 0
2, 89472, Note_on_c, 0, 76, 90
2, 89532, Note_off_c, 0, 76, 0
2, 89536, Note_on_c, 0, 73, 90
2, 89596, Note_off_c, 0, 73, 0
2, 89600, Note_on_c, 0, 64, 90
2, 89660, Note_off_c, 0, 64, 0
2, 89664, Note_on_c, 0, 78, 90
2, 89708, Note_off_c, 0, 78, 0
2, 89712, Note_on_c, 0, 76, 90
2, 89756, Note_off_c, 0, 76, 0
2, 89760, Note_on_c, 0, 74, 90
2, 89804, Note_off_c, 0, 74, 0
2, 89808, Note_on_c, 0, 73, 90
2, 89852, Note_off_c, 0, 73, 0
2, 89856, Note_on_c, 0, 71, 90
2, 89916, Note_off_c, 0, 71, 0
2, 89920, Note_on_c, 0, 68, 90
2, 89980, Note_off_c, 0, 68, 0
2, 89984, Note_on_c, 0, 64, 90
2, 90044, Note_off_c, 0, 64, 0
2, 90048, Note_on_c, 0, 71, 90
2, 90108, Note_off_c, 0, 71, 0
2, 90112, Note_on_c, 0, 68, 90
2, 90172, Note_off_c, 0, 68, 0
2, 90176, Note_on_c, 0, 64, 90
2, 90236, Note_off_c, 0, 64, 0
2, 90240, Note_on_c, 0, 73, 90
2, 90300, Note_off_c, 0, 73, 0
2, 90304, Note_on_c, 0, 69, 90
2, 90364, Note_off_c, 0, 69, 0
2, 90368, Note_on_c, 0, 64, 90
2, 90428, Note_off_c, 0, 64, 0
2, 90432, Note_on_c, 0, 74, 90
2, 90492, Note_off_c, 0, 74, 0
2, 90496, Note_on_c, 0, 71, 90
2, 90556, Note_off_c, 0, 71, 0
2, 90560, Note_on_c, 0, 64, 90
2, 90620, Note_off_c, 0, 64, 0
2, 90624, Note_on_c, 0, 74, 90
2, 90684, Note_off_c, 0, 74, 0
2, 90688, Note_on_c, 0, 71, 90
2, 90748, Note_off_c, 0, 71, 0
2, 90752, Note_on_c, 0, 64, 90
2, 90812, Note_off_c, 0, 64, 0
2, 90816, Note_on_c, 0, 76, 90
2, 90860, Note_off_c, 0, 76, 0
2, 90864, Note_on_c, 0, 74, 90
2, 90908, Note_off_c, 0, 74, 0
2, 90912, Note_on_c, 0, 73, 90
2, 90956, Note_off_c, 0, 73, 0
2, 90960, Note_on_c, 0, 71, 90
2, 91004, Note_off_c, 0, 71, 0
2, 91008, Note_on_c, 0, 69, 90
2, 91068, Note_off_c, 0, 69, 0
2, 91072, Note_on_c, 0, 64, 90
2, 91132, Note_off_c, 0, 64, 0
2, 91136, Note_on_c, 0, 61, 90
2, 91196, Note_off_c, 0, 61, 0
2, 91200, Note_on_c, 0, 69, 90
2, 91260, Note_off_c, 0, 69, 0
2, 91264, Note_on_c, 0, 64, 90
2, 91324, Note_off_c, 0, 64, 0
2, 91328, Note_on_c, 0, 61, 90
2, 91388, Note_off_c, 0, 61, 0
2, 91392, Note_on_c, 0, 71, 90
2, 91452, Note_off_c, 0, 71, 0
2, 91456, Note_on_c, 0, 64, 90
2, 91516, Note_off_c, 0, 64, 0
2, 91520, Note_on_c, 0, 62, 90
2, 91580, Note_off_c, 0, 62, 0
2, 91584, Note_on_c, 0, 73, 90
2, 91644, Note_off_c, 0, 73, 0
2, 91648, Note_on_c, 0, 69, 90
2, 91708, Note_off_c, 0, 69, 0
2, 91712, Note_on_c, 0, 64, 90
2, 91772, Note_off_c, 0, 64, 0
2, 91776, Note_on_c, 0, 73, 90
2, 91836, Note_off_c, 0, 73, 0
2, 91840, Note_on_c, 0, 69, 90
2, 91900, Note_off_c, 0, 69, 0
2, 91904, Note_on_c, 0, 64, 90
2, 91964, Note_off_c, 0, 64, 0
2, 91968, Note_on_c, 0, 74, 90
2, 92028, Note_off_c, 0, 74, 0
2, 92032, Note_on_c, 0, 71, 90
2, 92092, Note_off_c, 0, 71, 0
2, 92096, Note_on_c, 0, 66, 90
2, 92156, Note_off_c, 0, 66, 0
2, 92160, Note_on_c, 0, 73, 90
2, 92220, Note_off_c, 0, 73, 0
2, 92224, Note_on_c, 0, 69, 90
2, 92284, Note_off_c, 0, 69, 0
2, 92288, Note_on_c, 0, 64, 90
2, 92348, Note_off_c, 0, 64, 0
2, 92352, Note_on_c, 0, 73, 90
2, 92412, Note_off_c, 0, 73, 0
2, 92416, Note_on_c, 0, 69, 90
2, 92476, Note_off_c, 0, 69, 0
2, 92480, Note_on_c, 0, 64, 90
2, 92540, Note_off_c, 0, 64, 0
2, 92544, Note_on_c, 0, 71, 90
2, 92604, Note_off_c, 0, 71, 0
2, 92608, Note_on_c, 0, 68, 90
2, 92668, Note_off_c, 0, 68, 0
2, 92672, Note_on_c, 0, 62, 90
2, 92732, Note_off_c, 0, 62, 0
2, 92736, Note_on_c, 0, 69, 90
2, 92796, Note_off_c, 0, 69, 0
2, 92800, Note_on_c, 0, 64, 90
2, 92860, Note_off_c, 0, 64, 0
2, 92864, Note_on_c, 0, 61, 90
2, 92924, Note_off_c, 0, 61, 0
2, 92928, Note_on_c, 0, 57, 90
2, 93116, Note_off_c, 0, 57, 0
2, 93312, Note_on_c, 0, 73, 67
2, 93500, Note_off_c, 0, 73, 0
2, 93504, Note_on_c, 0, 73, 67
2, 93692, Note_off_c, 0, 73, 0
2, 93696, Note_on_c, 0, 76, 67
2, 93724, Note_off_c, 0, 76, 0
2, 93728, Note_on_c, 0, 74, 67
2, 93756, Note_off_c, 0, 74, 0
2, 93760, Note_on_c, 0, 76, 67
2, 93788, Note_off_c, 0, 76, 0
2, 93792, Note_on_c, 0, 74, 67
2, 93820, Note_off_c, 0, 74, 0
2, 93824, Note_on_c, 0, 73, 67
2, 93852, Note_off_c, 0, 73, 0
2, 93856, Note_on_c, 0, 74, 67
2, 93884, Note_off_c, 0, 74, 0
2, 93888, Note_on_c, 0, 76, 67
2, 94076, Note_off_c, 0, 76, 0
2, 94272, Note_on_c, 0, 78, 67
2, 94316, Note_off_c, 0, 78, 0
2, 94320, Note_on_c, 0, 76, 67
2, 94364, Note_off_c, 0, 76, 0
2, 94368, Note_on_c, 0, 74, 67
2, 94412, Note_off_c, 0, 74, 0
2, 94416, Note_on_c, 0, 73, 67
2, 94460, Note_off_c, 0, 73, 0
2, 94464, Note_on_c, 0, 71, 67
2, 94652, Note_off_c, 0, 71, 0
2, 94656, Note_on_c, 0, 71, 67
2, 94844, Note_off_c, 0, 71, 0
2, 94848, Note_on_c, 0, 74, 67
2, 94876, Note_off_c, 0, 74, 0
2, 94880, Note_on_c, 0, 73, 67
2, 94908, Note_off_c, 0, 73, 0
2, 94912, Note_on_c, 0, 74, 67
2, 94940, Note_off_c, 0, 74, 0
2, 94944, Note_on_c, 0, 73, 67
2, 94972, Note_off_c, 0, 73, 0
2, 94976, Note_on_c, 0, 71, 67
2, 95004, Note_off_c, 0, 71, 0
2, 95008, Note_on_c, 0, 73, 67
2, 95036, Note_off_c, 0, 73, 0
2, 95040, Note_on_c, 0, 74, 67
2, 95228, Note_off_c, 0, 74, 0
2, 95424, Note_on_c, 0, 76, 67
2, 95468, Note_off_c, 0, 76, 0
2, 95472, Note_on_c, 0, 74, 67
2, 95516, Note_off_c, 0, 74, 0
2, 95520, Note_on_c, 0, 73, 67
2, 95564, Note_off_c, 0, 73, 0
2, 95568, Note_on_c, 0, 71, 67
2, 95612, Note_off_c, 0, 71, 0
2, 95616, Note_on_c, 0, 69, 67
2, 95804, Note_off_c, 0, 69, 0
2, 95808, Note_on_c, 0, 69, 67
2, 95996, Note_off_c, 0, 69, 0
2, 96000, Note_on_c, 0, 74, 67
2, 96028, Note_off_c, 0, 74, 0
2, 96032, Note_on_c, 0, 73, 67
2, 96060, Note_off_c, 0, 73, 0
2, 96064, Note_on_c, 0, 74, 67
2, 96092, Note_off_c, 0, 74, 0
2, 96096, Note_on_c, 0, 73, 67
2, 96124, Note_off_c, 0, 73, 0
2, 96128, Note_on_c, 0, 71, 67
2, 96156, Note_off_c, 0, 71, 0
2, 96160, Note_on_c, 0, 73, 67
2, 96188, Note_off_c, 0, 73, 0
2, 96192, Note_on_c, 0, 71, 67
2, 96380, Note_off_c, 0, 71, 0
2, 96384, Note_on_c, 0, 71, 67
2, 96572, Note_off_c, 0, 71, 0
2, 96576, Note_on_c, 0, 73, 67
2, 96604, Note_off_c, 0, 73, 0
2, 96608, Note_on_c, 0, 71, 67
2, 96636, Note_off_c, 0, 71, 0
2, 96640, Note_on_c, 0, 73, 67
2, 96668, Note_off_c, 0, 73, 0
2, 96672, Note_on_c, 0, 71, 67
2, 96700, Note_off_c, 0, 71, 0
2, 96704, Note_on_c, 0, 69, 67
2, 96732, Note_off_c, 0, 69, 0
2, 96736, Note_on_c, 0, 71, 67
2, 96764, Note_off_c, 0, 71, 0
2, 96768, Note_on_c, 0, 73, 67
2, 96956, Note_off_c, 0, 73, 0
2, 96960, Note_on_c, 0, 73, 67
2, 97148, Note_off_c, 0, 73, 0
2, 97152, Note_on_c, 0, 71, 67
2, 97152, Note_on_c, 0, 76, 67
2, 97196, Note_off_c, 0, 76, 0
2, 97200, Note_on_c, 0, 74, 67
2, 97340, Note_off_c, 0, 71, 0
2, 97340, Note_off_c, 0, 74, 0
2, 97344, Note_on_c, 0, 73, 67
2, 97344, Note_on_c, 0, 69, 67
2, 97724, Note_off_c, 0, 73, 0
2, 97724, Note_off_c, 0, 69, 0
2, 97728, Note_on_c, 0, 71, 67
2, 97728, Note_on_c, 0, 68, 67
2, 97916, Note_off_c, 0, 71, 0
2, 97916, Note_off_c, 0, 68, 0
2, 97920, Note_on_c, 0, 73, 90
2, 97980, Note_off_c, 0, 73, 0
2, 97984, Note_on_c, 0, 69, 90
2, 98044, Note_off_c, 0, 69, 0
2, 98048, Note_on_c, 0, 64, 90
2, 98108, Note_off_c, 0, 64, 0
2, 98112, Note_on_c, 0, 73, 90
2, 98172, Note_off_c, 0, 73, 0
2, 98176, Note_on_c, 0, 69, 90
2, 98236, Note_off_c, 0, 69, 0
2, 98240, Note_on_c, 0, 64, 90
2, 98300, Note_off_c, 0, 64, 0
2, 98304, Note_on_c, 0, 74, 90
2, 98364, Note_off_c, 0, 74, 0
2, 98368, Note_on_c, 0, 71, 90
2, 98428, Note_off_c, 0, 71, 0
2, 98432, Note_on_c, 0, 64, 90
2, 98492, Note_off_c, 0, 64, 0
2, 98496, Note_on_c, 0, 76, 90
2, 98556, Note_off_c, 0, 76, 0
2, 98560, Note_on_c, 0, 73, 90
2, 98620, Note_off_c, 0, 73, 0
2, 98624, Note_on_c, 0, 64, 90
2, 98684, Note_off_c, 0, 64, 0
2, 98688, Note_on_c, 0, 76, 90
2, 98748, Note_off_c, 0, 76, 0
2, 98752, Note_on_c, 0, 73, 90
2, 98812, Note_off_c, 0, 73, 0
2, 98816, Note_on_c, 0, 64, 90
2, 98876, Note_off_c, 0, 64, 0
2, 98880, Note_on_c, 0, 78, 90
2, 98924, Note_off_c, 0, 78, 0
2, 98928, Note_on_c, 0, 76, 90
2, 98972, Note_off_c, 0, 76, 0
2, 98976, Note_on_c, 0, 74, 90
2, 99020, Note_off_c, 0, 74, 0
2, 99024, Note_on_c, 0, 73, 90
2, 99068, Note_off_c, 0, 73, 0
2, 99072, Note_on_c, 0, 71, 90
2, 99132, Note_off_c, 0, 71, 0
2, 99136, Note_on_c, 0, 68, 90
2, 99196, Note_off_c, 0, 68, 0
2, 99200, Note_on_c, 0, 64, 90
2, 99260, Note_off_c, 0, 64, 0
2, 99264, Note_on_c, 0, 71, 90
2, 99324, Note_off_c, 0, 71, 0
2, 99328, Note_on_c, 0, 68, 90
2, 99388, Note_off_c, 0, 68, 0
2, 99392, Note_on_c, 0, 64, 90
2, 99452, Note_off_c, 0, 64, 0
2, 99456, Note_on_c, 0, 73, 90
2, 99516, Note_off_c, 0, 73, 0
2, 99520, Note_on_c, 0, 69, 90
2, 99580, Note_off_c, 0, 69, 0
2, 99584, Note_on_c, 0, 64, 90
2, 99644, Note_off_c, 0, 64, 0
2, 99648, Note_on_c, 0, 74, 90
2, 99708, Note_off_c, 0, 74, 0
2, 99712, Note_on_c, 0, 71, 90
2, 99772, Note_off_c, 0, 71, 0
2, 99776, Note_on_c, 0, 64, 90
2, 99836, Note_off_c, 0, 64, 0
2, 99840, Note_on_c, 0, 74, 90
2, 99900, Note_off_c, 0, 74, 0
2, 99904, Note_on_c, 0, 71, 90
2, 99964, Note_off_c, 0, 71, 0
2, 99968, Note_on_c, 0, 64, 90
2, 100028, Note_off_c, 0, 64, 0
2, 100032, Note_on_c, 0, 76, 90
2, 100076, Note_off_c, 0, 76, 0
2, 100080, Note_on_c, 0, 74, 90
2, 100124, Note_off_c, 0, 74, 0
2, 100128, Note_on_c, 0, 73, 90
2, 100172, Note_off_c, 0, 73, 0
2, 100176, Note_on_c, 0, 71, 90
2, 100220, Note_off_c, 0, 71, 0
2, 100224, Note_on_c, 0, 69, 90
2, 100284, Note_off_c, 0, 69, 0
2, 100288, Note_on_c, 0, 64, 90
2, 100348, Note_off_c, 0, 64, 0
2, 100352, Note_on_c, 0, 61, 90
2, 100412, Note_off_c, 0, 61, 0
2, 100416, Note_on_c, 0, 69, 90
2, 100476, Note_off_c, 0, 69, 0
2, 100480, Note_on_c, 0, 64, 90
2, 100540, Note_off_c, 0, 64, 0
2, 100544, Note_on_c, 0, 61, 90
2, 100604, Note_off_c, 0, 61, 0
2, 100608, Note_on_c, 0, 71, 90
2, 100668, Note_off_c, 0, 71, 0
2, 100672, Note_on_c, 0, 64, 90
2, 100732, Note_off_c, 0, 64, 0
2, 100736, Note_on_c, 0, 62, 90
2, 100796, Note_off_c, 0, 62, 0
2, 100800, Note_on_c, 0, 73, 90
2, 100860, Note_off_c, 0, 73, 0
2, 100864, Note_on_c, 0, 69, 90
2, 100924, Note_off_c, 0, 69, 0
2, 100928, Note_on_c, 0, 64, 90
2, 100988, Note_off_c, 0, 64, 0
2, 100992, Note_on_c, 0, 73, 90
2, 101052, Note_off_c, 0, 73, 0
2, 101056, Note_on_c, 0, 69, 90
2, 101116, Note_off_c, 0, 69, 0
2, 101120, Note_on_c, 0, 64, 90
2, 101180, Note_off_c, 0, 64, 0
2, 101184, Note_on_c, 0, 74, 90
2, 101244, Note_off_c, 0, 74, 0
2, 101248, Note_on_c, 0, 71, 90
2, 101308, Note_off_c, 0, 71, 0
2, 101312, Note_on_c, 0, 66, 90
2, 101372, Note_off_c, 0, 66, 0
2, 101376, Note_on_c, 0, 73, 90
2, 101436, Note_off_c, 0, 73, 0
2, 101440, Note_on_c, 0, 69, 90
2, 101500, Note_off_c, 0, 69, 0
2, 101504, Note_on_c, 0, 64, 90
2, 101564, Note_off_c, 0, 64, 0
2, 101568, Note_on_c, 0, 73, 90
2, 101628, Note_off_c, 0, 73, 0
2, 101632, Note_on_c, 0, 69, 90
2, 101692, Note_off_c, 0, 69, 0
2, 101696, Note_on_c, 0, 64, 90
2, 101756, Note_off_c, 0, 64, 0
2, 101760, Note_on_c, 0, 71, 90
2, 101820, Note_off_c, 0, 71, 0
2, 101824, Note_on_c, 0, 68, 90
2, 101884, Note_off_c, 0, 68, 0
2, 101888, Note_on_c, 0, 62, 90
2, 101948, Note_off_c, 0, 62, 0
2, 101952, Note_on_c, 0, 69, 90
2, 102012, Note_off_c, 0, 69, 0
2, 102016, Note_on_c, 0, 64, 90
2, 102076, Note_off_c, 0, 64, 0
2, 102080, Note_on_c, 0, 61, 90
2, 102140, Note_off_c, 0, 61, 0
2, 102144, Note_on_c, 0, 57, 90
2, 102332, Note_off_c, 0, 57, 0
2, 102528, Note_on_c, 0, 57, 79
2, 102528, Note_on_c, 0, 76, 79
2, 102588, Note_off_c, 0, 57, 0
2, 102592, Note_on_c, 0, 61, 79
2, 102652, Note_off_c, 0, 61, 0
2, 102656, Note_on_c, 0, 64, 79
2, 102716, Note_off_c, 0, 76, 0
2, 102716, Note_off_c, 0, 64, 0
2, 102720, Note_on_c, 0, 57, 79
2, 102720, Note_on_c, 0, 74, 79
2, 102780, Note_off_c, 0, 57, 0
2, 102784, Note_on_c, 0, 59, 79
2, 102844, Note_off_c, 0, 59, 0
2, 102848, Note_on_c, 0, 62, 79
2, 102908, Note_off_c, 0, 74, 0
2, 102908, Note_off_c, 0, 62, 0
2, 102912, Note_on_c, 0, 57, 79
2, 102912, Note_on_c, 0, 76, 79
2, 102972, Note_off_c, 0, 57, 0
2, 102976, Note_on_c, 0, 61, 79
2, 103036, Note_off_c, 0, 61, 0
2, 103040, Note_on_c, 0, 64, 79
2, 103100, Note_off_c, 0, 76, 0
2, 103100, Note_off_c, 0, 64, 0
2, 103104, Note_on_c, 0, 57, 79
2, 103104, Note_on_c, 0, 78, 79
2, 103164, Note_off_c, 0, 57, 0
2, 103168, Note_on_c, 0, 62, 79
2, 103228, Note_off_c, 0, 62, 0
2, 103232, Note_on_c, 0, 66, 79
2, 103292, Note_off_c, 0, 78, 0
2, 103292, Note_off_c, 0, 66, 0
2, 103296, Note_on_c, 0, 57, 79
2, 103356, Note_off_c, 0, 57, 0
2, 103360, Note_on_c, 0, 62, 79
2, 103420, Note_off_c, 0, 62, 0
2, 103424, Note_on_c, 0, 66, 79
2, 103484, Note_off_c, 0, 66, 0
2, 103488, Note_on_c, 0, 57, 79
2, 103488, Note_on_c, 0, 78, 79
2, 103516, Note_off_c, 0, 78, 0
2, 103520, Note_on_c, 0, 80, 79
2, 103548, Note_off_c, 0, 57, 0
2, 103548, Note_off_c, 0, 80, 0
2, 103552, Note_on_c, 0, 62, 79
2, 103552, Note_on_c, 0, 78, 79
2, 103580, Note_off_c, 0, 78, 0
2, 103584, Note_on_c, 0, 76, 79
2, 103612, Note_off_c, 0, 62, 0
2, 103612, Note_off_c, 0, 76, 0
2, 103616, Note_on_c, 0, 66, 79
2, 103616, Note_on_c, 0, 78, 79
2, 103644, Note_off_c, 0, 78, 0
2, 103648, Note_on_c, 0, 80, 79
2, 103676, Note_off_c, 0, 66, 0
2, 103676, Note_off_c, 0, 80, 0
2, 103680, Note_on_c, 0, 57, 79
2, 103680, Note_on_c, 0, 81, 79
2, 103740, Note_off_c, 0, 57, 0
2, 103744, Note_on_c, 0, 66, 79
2, 103804, Note_off_c, 0, 66, 0
2, 103808, Note_on_c, 0, 69, 79
2, 103868, Note_off_c, 0, 81, 0
2, 103868, Note_off_c, 0, 69, 0
2, 103872, Note_on_c, 0, 57, 79
2, 103872, Note_on_c, 0, 80, 79
2, 103932, Note_off_c, 0, 57, 0
2, 103936, Note_on_c, 0, 64, 79
2, 103996, Note_off_c, 0, 64, 0
2, 104000, Note_on_c, 0, 68, 79
2, 104060, Note_off_c, 0, 80, 0
2, 104060, Note_off_c, 0, 68, 0
2, 104064, Note_on_c, 0, 57, 79
2, 104064, Note_on_c, 0, 78, 79
2, 104124, Note_off_c, 0, 57, 0
2, 104128, Note_on_c, 0, 62, 79
2, 104188, Note_off_c, 0, 62, 0
2, 104192, Note_on_c, 0, 66, 79
2, 104252, Note_off_c, 0, 78, 0
2, 104252, Note_off_c, 0, 66, 0
2, 104256, Note_on_c, 0, 57, 79
2, 104256, Note_on_c, 0, 76, 79
2, 104316, Note_off_c, 0, 57, 0
2, 104320, Note_on_c, 0, 61, 79
2, 104380, Note_off_c, 0, 61, 0
2, 104384, Note_on_c, 0, 64, 79
2, 104444, Note_off_c, 0, 76, 0
2, 104444, Note_off_c, 0, 64, 0
2, 104448, Note_on_c, 0, 57, 67
2, 104508, Note_off_c, 0, 57, 0
2, 104512, Note_on_c, 0, 61, 67
2, 104572, Note_off_c, 0, 61, 0
2, 104576, Note_on_c, 0, 64, 67
2, 104636, Note_off_c, 0, 64, 0
2, 104640, Note_on_c, 0, 57, 67
2, 104640, Note_on_c, 0, 73, 67
2, 104668, Note_off_c, 0, 73, 0
2, 104672, Note_on_c, 0, 74, 67
2, 104700, Note_off_c, 0, 57, 0
2, 104700, Note_off_c, 0, 74, 0
2, 104704, Note_on_c, 0, 61, 67
2, 104704, Note_on_c, 0, 73, 67
2, 104732, Note_off_c, 0, 73, 0
2, 104736, Note_on_c, 0, 71, 67
2, 104764, Note_off_c, 0, 61, 0
2, 104764, Note_off_c, 0, 71, 0
2, 104768, Note_on_c, 0, 64, 67
2, 104768, Note_on_c, 0, 73, 67
2, 104796, Note_off_c, 0, 73, 0
2, 104800, Note_on_c, 0, 74, 67
2, 104828, Note_off_c, 0, 64, 0
2, 104828, Note_off_c, 0, 74, 0
2, 104832, Note_on_c, 0, 57, 67
2, 104832, Note_on_c, 0, 76, 67
2, 104892, Note_off_c, 0, 57, 0
2, 104896, Note_on_c, 0, 61, 67
2, 104956, Note_off_c, 0, 61, 0
2, 104960, Note_on_c, 0, 64, 67
2, 105020, Note_off_c, 0, 76, 0
2, 105020, Note_off_c, 0, 64, 0
2, 105024, Note_on_c, 0, 57, 67
2, 105024, Note_on_c, 0, 73, 67
2, 105084, Note_off_c, 0, 57, 0
2, 105088, Note_on_c, 0, 61, 67
2, 105148, Note_off_c, 0, 61, 0
2, 105152, Note_on_c, 0, 64, 67
2, 105212, Note_off_c, 0, 73, 0
2, 105212, Note_off_c, 0, 64, 0
2, 105216, Note_on_c, 0, 57, 70
2, 105276, Note_off_c, 0, 57, 0
2, 105280, Note_on_c, 0, 61, 71
2, 105340, Note_off_c, 0, 61, 0
2, 105344, Note_on_c, 0, 64, 72
2, 105360, Note_on_c, 0, 69, 72
2, 105404, Note_off_c, 0, 64, 0
2, 105404, Note_off_c, 0, 69, 0
2, 105408, Note_on_c, 0, 59, 74
2, 105408, Note_on_c, 0, 76, 74
2, 105468, Note_off_c, 0, 59, 0
2, 105472, Note_on_c, 0, 62, 75
2, 105532, Note_off_c, 0, 62, 0
2, 105536, Note_on_c, 0, 64, 77
2, 105596, Note_off_c, 0, 76, 0
2, 105596, Note_off_c, 0, 64, 0
2, 105600, Note_on_c, 0, 59, 80
2, 105600, Note_on_c, 0, 74, 80
2, 105660, Note_off_c, 0, 59, 0
2, 105664, Note_on_c, 0, 62, 81
2, 105724, Note_off_c, 0, 62, 0
2, 105728, Note_on_c, 0, 64, 83
2, 105788, Note_off_c, 0, 74, 0
2, 105788, Note_off_c, 0, 64, 0
2, 105792, Note_on_c, 0, 59, 85
2, 105852, Note_off_c, 0, 59, 0
2, 105856, Note_on_c, 0, 62, 86
2, 105916, Note_off_c, 0, 62, 0
2, 105920, Note_on_c, 0, 64, 88
2, 105936, Note_on_c, 0, 71, 89
2, 105980, Note_off_c, 0, 64, 0
2, 105980, Note_off_c, 0, 71, 0
2, 105984, Note_on_c, 0, 57, 90
2, 105984, Note_on_c, 0, 76, 90
2, 106044, Note_off_c, 0, 57, 0
2, 106048, Note_on_c, 0, 61, 90
2, 106108, Note_off_c, 0, 61, 0
2, 106112, Note_on_c, 0, 64, 90
2, 106172, Note_off_c, 0, 76, 0
2, 106172, Note_off_c, 0, 64, 0
2, 106176, Note_on_c, 0, 57, 90
2, 106176, Note_on_c, 0, 73, 90
2, 106236, Note_off_c, 0, 57, 0
2, 106240, Note_on_c, 0, 61, 90
2, 106300, Note_off_c, 0, 61, 0
2, 106304, Note_on_c, 0, 64, 90
2, 106364, Note_off_c, 0, 73, 0
2, 106364, Note_off_c, 0, 64, 0
2, 106368, Note_on_c, 0, 69, 90
2, 106556, Note_off_c, 0, 69, 0
2, 106560, Note_on_c, 0, 73, 98
2, 106560, Note_on_c, 0, 69, 98
2, 106940, Note_off_c, 0, 73, 0
2, 106940, Note_off_c, 0, 69, 0
2, 106944, Note_on_c, 0, 71, 90
2, 106944, Note_on_c, 0, 68, 90
2, 107132, Note_off_c, 0, 71, 0
2, 107132, Note_off_c, 0, 68, 0
2, 107136, Note_on_c, 0, 73, 67
2, 107324, Note_off_c, 0, 73, 0
2, 107328, Note_on_c, 0, 73, 67
2, 107516, Note_off_c, 0, 73, 0
2, 107520, Note_on_c, 0, 76, 67
2, 107548, Note_off_c, 0, 76, 0
2, 107552, Note_on_c, 0, 74, 67
2, 107580, Note_off_c, 0, 74, 0
2, 107584, Note_on_c, 0, 76, 67
2, 107612, Note_off_c, 0, 76, 0
2, 107616, Note_on_c, 0, 74, 67
2, 107644, Note_off_c, 0, 74, 0
2, 107648, Note_on_c, 0, 73, 67
2, 107676, Note_off_c, 0, 73, 0
2, 107680, Note_on_c, 0, 74, 67
2, 107708, Note_off_c, 0, 74, 0
2, 107712, Note_on_c, 0, 76, 67
2, 107900, Note_off_c, 0, 76, 0
2, 108096, Note_on_c, 0, 78, 67
2, 108140, Note_off_c, 0, 78, 0
2, 108144, Note_on_c, 0, 76, 67
2, 108188, Note_off_c, 0, 76, 0
2, 108192, Note_on_c, 0, 74, 67
2, 108236, Note_off_c, 0, 74, 0
2, 108240, Note_on_c, 0, 73, 67
2, 108284, Note_off_c, 0, 73, 0
2, 108288, Note_on_c, 0, 71, 67
2, 108476, Note_off_c, 0, 71, 0
2, 108480, Note_on_c, 0, 71, 67
2, 108668, Note_off_c, 0, 71, 0
2, 108672, Note_on_c, 0, 74, 67
2, 108700, Note_off_c, 0, 74, 0
2, 108704, Note_on_c, 0, 73, 67
2, 108732, Note_off_c, 0, 73, 0
2, 108736, Note_on_c, 0, 74, 67
2, 108764, Note_off_c, 0, 74, 0
2, 108768, Note_on_c, 0, 73, 67
2, 108796, Note_off_c, 0, 73, 0
2, 108800, Note_on_c, 0, 71, 67
2, 108828, Note_off_c, 0, 71, 0
2, 108832, Note_on_c, 0, 73, 67
2, 108860, Note_off_c, 0, 73, 0
2, 108864, Note_on_c, 0, 74, 67
2, 109052, Note_off_c, 0, 74, 0
2, 109248, Note_on_c, 0, 76, 67
2, 109292, Note_off_c, 0, 76, 0
2, 109296, Note_on_c, 0, 74, 67
2, 109340, Note_off_c, 0, 74, 0
2, 109344, Note_on_c, 0, 73, 67
2, 109388, Note_off_c, 0, 73, 0
2, 109392, Note_on_c, 0, 71, 67
2, 109436, Note_off_c, 0, 71, 0
2, 109440, Note_on_c, 0, 69, 70
2, 109628, Note_off_c, 0, 69, 0
2, 109632, Note_on_c, 0, 69, 71
2, 109820, Note_off_c, 0, 69, 0
2, 109824, Note_on_c, 0, 73, 72
2, 109852, Note_off_c, 0, 73, 0
2, 109856, Note_on_c, 0, 71, 72
2, 109884, Note_off_c, 0, 71, 0
2, 109888, Note_on_c, 0, 73, 72
2, 109916, Note_off_c, 0, 73, 0
2, 109920, Note_on_c, 0, 71, 72
2, 109948, Note_off_c, 0, 71, 0
2, 109952, Note_on_c, 0, 69, 74
2, 109980, Note_off_c, 0, 69, 0
2, 109984, Note_on_c, 0, 71, 74
2, 110012, Note_off_c, 0, 71, 0
2, 110016, Note_on_c, 0, 73, 74
2, 110204, Note_off_c, 0, 73, 0
2, 110208, Note_on_c, 0, 73, 75
2, 110396, Note_off_c, 0, 73, 0
2, 110400, Note_on_c, 0, 76, 77
2, 110428, Note_off_c, 0, 76, 0
2, 110432, Note_on_c, 0, 74, 79
2, 110460, Note_off_c, 0, 74, 0
2, 110464, Note_on_c, 0, 76, 79
2, 110492, Note_off_c, 0, 76, 0
2, 110496, Note_on_c, 0, 74, 79
2, 110524, Note_off_c, 0, 74, 0
2, 110528, Note_on_c, 0, 73, 79
2, 110556, Note_off_c, 0, 73, 0
2, 110560, Note_on_c, 0, 74, 79
2, 110588, Note_off_c, 0, 74, 0
2, 110592, Note_on_c, 0, 73, 80
2, 110780, Note_off_c, 0, 73, 0
2, 110784, Note_on_c, 0, 73, 81
2, 110972, Note_off_c, 0, 73, 0
2, 110976, Note_on_c, 0, 73, 83
2, 111004, Note_off_c, 0, 73, 0
2, 111008, Note_on_c, 0, 71, 83
2, 111036, Note_off_c, 0, 71, 0
2, 111040, Note_on_c, 0, 73, 83
2, 111068, Note_off_c, 0, 73, 0
2, 111072, Note_on_c, 0, 71, 83
2, 111100, Note_off_c, 0, 71, 0
2, 111104, Note_on_c, 0, 69, 85
2, 111132, Note_off_c, 0, 69, 0
2, 111136, Note_on_c, 0, 71, 85
2, 111164, Note_off_c, 0, 71, 0
2, 111168, Note_on_c, 0, 71, 85
2, 111168, Note_on_c, 0, 68, 85
2, 111356, Note_off_c, 0, 71, 0
2, 111360, Note_on_c, 0, 72, 86
2, 111548, Note_off_c, 0, 68, 0
2, 111548, Note_off_c, 0, 72, 0
2, 111552, Note_on_c, 0, 73, 88
2, 111552, Note_on_c, 0, 69, 88
2, 111740, Note_off_c, 0, 73, 0
2, 111740, Note_off_c, 0, 69, 0
2, 111744, Note_on_c, 0, 73, 90
2, 111804, Note_off_c, 0, 73, 0
2, 111808, Note_on_c, 0, 69, 90
2, 111868, Note_off_c, 0, 69, 0
2, 111872, Note_on_c, 0, 66, 90
2, 111932, Note_off_c, 0, 66, 0
2, 111936, Note_on_c, 0, 73, 90
2, 111996, Note_off_c, 0, 73, 0
2, 112000, Note_on_c, 0, 69, 90
2, 112060, Note_off_c, 0, 69, 0
2, 112064, Note_on_c, 0, 66, 90
2, 112124, Note_off_c, 0, 66, 0
2, 112128, Note_on_c, 0, 74, 90
2, 112188, Note_off_c, 0, 74, 0
2, 112192, Note_on_c, 0, 68, 90
2, 112252, Note_off_c, 0, 68, 0
2, 112256, Note_on_c, 0, 64, 90
2, 112316, Note_off_c, 0, 64, 0
2, 112320, Note_on_c, 0, 76, 90
2, 112380, Note_off_c, 0, 76, 0
2, 112384, Note_on_c, 0, 73, 90
2, 112444, Note_off_c, 0, 73, 0
2, 112448, Note_on_c, 0, 69, 90
2, 112508, Note_off_c, 0, 69, 0
2, 112512, Note_on_c, 0, 76, 90
2, 112572, Note_off_c, 0, 76, 0
2, 112576, Note_on_c, 0, 73, 90
2, 112636, Note_off_c, 0, 73, 0
2, 112640, Note_on_c, 0, 69, 90
2, 112700, Note_off_c, 0, 69, 0
2, 112704, Note_on_c, 0, 78, 90
2, 112764, Note_off_c, 0, 78, 0
2, 112768, Note_on_c, 0, 71, 90
2, 112828, Note_off_c, 0, 71, 0
2, 112832, Note_on_c, 0, 69, 90
2, 112892, Note_off_c, 0, 69, 0
2, 112896, Note_on_c, 0, 73, 90
2, 112956, Note_off_c, 0, 73, 0
2, 112960, Note_on_c, 0, 69, 90
2, 113020, Note_off_c, 0, 69, 0
2, 113024, Note_on_c, 0, 66, 90
2, 113084, Note_off_c, 0, 66, 0
2, 113088, Note_on_c, 0, 73, 90
2, 113148, Note_off_c, 0, 73, 0
2, 113152, Note_on_c, 0, 69, 90
2, 113212, Note_off_c, 0, 69, 0
2, 113216, Note_on_c, 0, 64, 90
2, 113276, Note_off_c, 0, 64, 0
2, 113280, Note_on_c, 0, 71, 90
2, 113340, Note_off_c, 0, 71, 0
2, 113344, Note_on_c, 0, 68, 90
2, 113404, Note_off_c, 0, 68, 0
2, 113408, Note_on_c, 0, 62, 90
2, 113468, Note_off_c, 0, 62, 0
2, 113472, Note_on_c, 0, 69, 90
2, 113532, Note_off_c, 0, 69, 0
2, 113536, Note_on_c, 0, 64, 90
2, 113596, Note_off_c, 0, 64, 0
2, 113600, Note_on_c, 0, 61, 90
2, 113660, Note_off_c, 0, 61, 0
2, 113664, Note_on_c, 0, 57, 90
2, 113852, Note_off_c, 0, 57, 0
2, 114048, Note_on_c, 0, 57, 79
2, 114048, Note_on_c, 0, 76, 79
2, 114108, Note_off_c, 0, 57, 0
2, 114112, Note_on_c, 0, 61, 79
2, 114172, Note_off_c, 0, 61, 0
2, 114176, Note_on_c, 0, 64, 79
2, 114236, Note_off_c, 0, 76, 0
2, 114236, Note_off_c, 0, 64, 0
2, 114240, Note_on_c, 0, 57, 79
2, 114240, Note_on_c, 0, 74, 79
2, 114300, Note_off_c, 0, 57, 0
2, 114304, Note_on_c, 0, 59, 79
2, 114364, Note_off_c, 0, 59, 0
2, 114368, Note_on_c, 0, 62, 79
2, 114428, Note_off_c, 0, 74, 0
2, 114428, Note_off_c, 0, 62, 0
2, 114432, Note_on_c, 0, 57, 79
2, 114432, Note_on_c, 0, 76, 79
2, 114492, Note_off_c, 0, 57, 0
2, 114496, Note_on_c, 0, 61, 79
2, 114556, Note_off_c, 0, 61, 0
2, 114560, Note_on_c, 0, 64, 79
2, 114620, Note_off_c, 0, 76, 0
2, 114620, Note_off_c, 0, 64, 0
2, 114624, Note_on_c, 0, 57, 79
2, 114624, Note_on_c, 0, 78, 79
2, 114684, Note_off_c, 0, 57, 0
2, 114688, Note_on_c, 0, 62, 79
2, 114748, Note_off_c, 0, 62, 0
2, 114752, Note_on_c, 0, 66, 79
2, 114812, Note_off_c, 0, 78, 0
2, 114812, Note_off_c, 0, 66, 0
2, 114816, Note_on_c, 0, 57, 79
2, 114876, Note_off_c, 0, 57, 0
2, 114880, Note_on_c, 0, 62, 79
2, 114940, Note_off_c, 0, 62, 0
2, 114944, Note_on_c, 0, 66, 79
2, 115004, Note_off_c, 0, 66, 0
2, 115008, Note_on_c, 0, 57, 79
2, 115008, Note_on_c, 0, 78, 79
2, 115036, Note_off_c, 0, 78, 0
2, 115040, Note_on_c, 0, 80, 79
2, 115068, Note_off_c, 0, 57, 0
2, 115068, Note_off_c, 0, 80, 0
2, 115072, Note_on_c, 0, 62, 79
2, 115072, Note_on_c, 0, 78, 79
2, 115100, Note_off_c, 0, 78, 0
2, 115104, Note_on_c, 0, 76, 79
2, 115132, Note_off_c, 0, 62, 0
2, 115132, Note_off_c, 0, 76, 0
2, 115136, Note_on_c, 0, 66, 79
2, 115136, Note_on_c, 0, 78, 79
2, 115164, Note_off_c, 0, 78, 0
2, 115168, Note_on_c, 0, 80, 79
2, 115196, Note_off_c, 0, 66, 0
2, 115196, Note_off_c, 0, 80, 0
2, 115200, Note_on_c, 0, 57, 79
2, 115200, Note_on_c, 0, 81, 79
2, 115260, Note_off_c, 0, 57, 0
2, 115264, Note_on_c, 0, 66, 79
2, 115324, Note_off_c, 0, 66, 0
2, 115328, Note_on_c, 0, 69, 79
2, 115388, Note_off_c, 0, 81, 0
2, 115388, Note_off_c, 0, 69, 0
2, 115392, Note_on_c, 0, 57, 79
2, 115392, Note_on_c, 0, 80, 79
2, 115452, Note_off_c, 0, 57, 0
2, 115456, Note_on_c, 0, 64, 79
2, 115516, Note_off_c, 0, 64, 0
2, 115520, Note_on_c, 0, 68, 79
2, 115580, Note_off_c, 0, 80, 0
2, 115580, Note_off_c, 0, 68, 0
2, 115584, Note_on_c, 0, 57, 79
2, 115584, Note_on_c, 0, 78, 79
2, 115644, Note_off_c, 0, 57, 0
2, 115648, Note_on_c, 0, 62, 79
2, 115708, Note_off_c, 0, 62, 0
2, 115712, Note_on_c, 0, 66, 79
2, 115772, Note_off_c, 0, 78, 0
2, 115772, Note_off_c, 0, 66, 0
2, 115776, Note_on_c, 0, 57, 79
2, 115776, Note_on_c, 0, 76, 79
2, 115836, Note_off_c, 0, 57, 0
2, 115840, Note_on_c, 0, 61, 79
2, 115900, Note_off_c, 0, 61, 0
2, 115904, Note_on_c, 0, 64, 79
2, 115964, Note_off_c, 0, 76, 0
2, 115964, Note_off_c, 0, 64, 0
2, 115968, Note_on_c, 0, 57, 67
2, 116028, Note_off_c, 0, 57, 0
2, 116032, Note_on_c, 0, 61, 67
2, 116092, Note_off_c, 0, 61, 0
2, 116096, Note_on_c, 0, 64, 67
2, 116156, Note_off_c, 0, 64, 0
2, 116160, Note_on_c, 0, 57, 67
2, 116160, Note_on_c, 0, 73, 67
2, 116188, Note_off_c, 0, 73, 0
2, 116192, Note_on_c, 0, 74, 67
2, 116220, Note_off_c, 0, 57, 0
2, 116220, Note_off_c, 0, 74, 0
2, 116224, Note_on_c, 0, 61, 67
2, 116224, Note_on_c, 0, 73, 67
2, 116252, Note_off_c, 0, 73, 0
2, 116256, Note_on_c, 0, 71, 67
2, 116284, Note_off_c, 0, 61, 0
2, 116284, Note_off_c, 0, 71, 0
2, 116288, Note_on_c, 0, 64, 67
2, 116288, Note_on_c, 0, 73, 67
2, 116316, Note_off_c, 0, 73, 0
2, 116320, Note_on_c, 0, 74, 67
2, 116348, Note_off_c, 0, 64, 0
2, 116348, Note_off_c, 0, 74, 0
2, 116352, Note_on_c, 0, 57, 67
2, 116352, Note_on_c, 0, 76, 67
2, 116412, Note_off_c, 0, 57, 0
2, 116416, Note_on_c, 0, 61, 67
2, 116476, Note_off_c, 0, 61, 0
2, 116480, Note_on_c, 0, 64, 67
2, 116540, Note_off_c, 0, 76, 0
2, 116540, Note_off_c, 0, 64, 0
2, 116544, Note_on_c, 0, 57, 67
2, 116544, Note_on_c, 0, 73, 67
2, 116604, Note_off_c, 0, 57, 0
2, 116608, Note_on_c, 0, 61, 67
2, 116668, Note_off_c, 0, 61, 0
2, 116672, Note_on_c, 0, 64, 67
2, 116732, Note_off_c, 0, 73, 0
2, 116732, Note_off_c, 0, 64, 0
2, 116736, Note_on_c, 0, 57, 70
2, 116796, Note_off_c, 0, 57, 0
2, 116800, Note_on_c, 0, 61, 71
2, 116860, Note_off_c, 0, 61, 0
2, 116864, Note_on_c, 0, 64, 72
2, 116880, Note_on_c, 0, 69, 72
2, 116924, Note_off_c, 0, 64, 0
2, 116924, Note_off_c, 0, 69, 0
2, 116928, Note_on_c, 0, 59, 74
2, 116928, Note_on_c, 0, 76, 74
2, 116988, Note_off_c, 0, 59, 0
2, 116992, Note_on_c, 0, 62, 75
2, 117052, Note_off_c, 0, 62, 0
2, 117056, Note_on_c, 0, 64, 77
2, 117116, Note_off_c, 0, 76, 0
2, 117116, Note_off_c, 0, 64, 0
2, 117120, Note_on_c, 0, 59, 80
2, 117120, Note_on_c, 0, 74, 80
2, 117180, Note_off_c, 0, 59, 0
2, 117184, Note_on_c, 0, 62, 81
2, 117244, Note_off_c, 0, 62, 0
2, 117248, Note_on_c, 0, 64, 83
2, 117308, Note_off_c, 0, 74, 0
2, 117308, Note_off_c, 0, 64, 0
2, 117312, Note_on_c, 0, 59, 85
2, 117372, Note_off_c, 0, 59, 0
2, 117376, Note_on_c, 0, 62, 86
2, 117436, Note_off_c, 0, 62, 0
2, 117440, Note_on_c, 0, 64, 88
2, 117456, Note_on_c, 0, 71, 89
2, 117500, Note_off_c, 0, 64, 0
2, 117500, Note_off_c, 0, 71, 0
2, 117504, Note_on_c, 0, 57, 90
2, 117504, Note_on_c, 0, 76, 90
2, 117564, Note_off_c, 0, 57, 0
2, 117568, Note_on_c, 0, 61, 90
2, 117628, Note_off_c, 0, 61, 0
2, 117632, Note_on_c, 0, 64, 90
2, 117692, Note_off_c, 0, 76, 0
2, 117692, Note_off_c, 0, 64, 0
2, 117696, Note_on_c, 0, 57, 90
2, 117696, Note_on_c, 0, 73, 90
2, 117756, Note_off_c, 0, 57, 0
2, 117760, Note_on_c, 0, 61, 90
2, 117820, Note_off_c, 0, 61, 0
2, 117824, Note_on_c, 0, 64, 90
2, 117884, Note_off_c, 0, 73, 0
2, 117884, Note_off_c, 0, 64, 0
2, 117888, Note_on_c, 0, 69, 90
2, 118076, Note_off_c, 0, 69, 0
2, 118080, Note_on_c, 0, 73, 98
2, 118080, Note_on_c, 0, 69, 98
2, 118460, Note_off_c, 0, 73, 0
2, 118460, Note_off_c, 0, 69, 0
2, 118464, Note_on_c, 0, 71, 90
2, 118464, Note_on_c, 0, 68, 90
2, 118652, Note_off_c, 0, 71, 0
2, 118652, Note_off_c, 0, 68, 0
2, 118656, Note_on_c, 0, 73, 67
2, 118844, Note_off_c, 0, 73, 0
2, 118848, Note_on_c, 0, 73, 67
2, 119036, Note_off_c, 0, 73, 0
2, 119040, Note_on_c, 0, 76, 67
2, 119068, Note_off_c, 0, 76, 0
2, 119072, Note_on_c, 0, 74, 67
2, 119100, Note_off_c, 0, 74, 0
2, 119104, Note_on_c, 0, 76, 67
2, 119132, Note_off_c, 0, 76, 0
2, 119136, Note_on_c, 0, 74, 67
2, 119164, Note_off_c, 0, 74, 0
2, 119168, Note_on_c, 0, 73, 67
2, 119196, Note_off_c, 0, 73, 0
2, 119200, Note_on_c, 0, 74, 67
2, 119228, Note_off_c, 0, 74, 0
2, 119232, Note_on_c, 0, 76, 67
2, 119420, Note_off_c, 0, 76, 0
2, 119616, Note_on_c, 0, 78, 67
2, 119660, Note_off_c, 0, 78, 0
2, 119664, Note_on_c, 0, 76, 67
2, 119708, Note_off_c, 0, 76, 0
2, 119712, Note_on_c, 0, 74, 67
2, 119756, Note_off_c, 0, 74, 0
2, 119760, Note_on_c, 0, 73, 67
2, 119804, Note_off_c, 0, 73, 0
2, 119808, Note_on_c, 0, 71, 67
2, 119996, Note_off_c, 0, 71, 0
2, 120000, Note_on_c, 0, 71, 67
2, 120188, Note_off_c, 0, 71, 0
2, 120192, Note_on_c, 0, 74, 67
2, 120220, Note_off_c, 0, 74, 0
2, 120224, Note_on_c, 0, 73, 67
2, 120252, Note_off_c, 0, 73, 0
2, 120256, Note_on_c, 0, 74, 67
2, 120284, Note_off_c, 0, 74, 0
2, 120288, Note_on_c, 0, 73, 67
2, 120316, Note_off_c, 0, 73, 0
2, 120320, Note_on_c, 0, 71, 67
2, 120348, Note_off_c, 0, 71, 0
2, 120352, Note_on_c, 0, 73, 67
2, 120380, Note_off_c, 0, 73, 0
2, 120384, Note_on_c, 0, 74, 67
2, 120572, Note_off_c, 0, 74, 0
2, 120768, Note_on_c, 0, 76, 67
2, 120812, Note_off_c, 0, 76, 0
2, 120816, Note_on_c, 0, 74, 67
2, 120860, Note_off_c, 0, 74, 0
2, 120864, Note_on_c, 0, 73, 67
2, 120908, Note_off_c, 0, 73, 0
2, 120912, Note_on_c, 0, 71, 67
2, 120956, Note_off_c, 0, 71, 0
2, 120960, Note_on_c, 0, 69, 70
2, 121148, Note_off_c, 0, 69, 0
2, 121152, Note_on_c, 0, 69, 71
2, 121340, Note_off_c, 0, 69, 0
2, 121344, Note_on_c, 0, 73, 72
2, 121372, Note_off_c, 0, 73, 0
2, 121376, Note_on_c, 0, 71, 72
2, 121404, Note_off_c, 0, 71, 0
2, 121408, Note_on_c, 0, 73, 72
2, 121436, Note_off_c, 0, 73, 0
2, 121440, Note_on_c, 0, 71, 72
2, 121468, Note_off_c, 0, 71, 0
2, 121472, Note_on_c, 0, 69, 74
2, 121500, Note_off_c, 0, 69, 0
2, 121504, Note_on_c, 0, 71, 74
2, 121532, Note_off_c, 0, 71, 0
2, 121536, Note_on_c, 0, 73, 74
2, 121724, Note_off_c, 0, 73, 0
2, 121728, Note_on_c, 0, 73, 75
2, 121916, Note_off_c, 0, 73, 0
2, 121920, Note_on_c, 0, 76, 77
2, 121948, Note_off_c, 0, 76, 0
2, 121952, Note_on_c, 0, 74, 79
2, 121980, Note_off_c, 0, 74, 0
2, 121984, Note_on_c, 0, 76, 79
2, 122012, Note_off_c, 0, 76, 0
2, 122016, Note_on_c, 0, 74, 79
2, 122044, Note_off_c, 0, 74, 0
2, 122048, Note_on_c, 0, 73, 79
2, 122076, Note_off_c, 0, 73, 0
2, 122080, Note_on_c, 0, 74, 79
2, 122108, Note_off_c, 0, 74, 0
2, 122112, Note_on_c, 0, 73, 80
2, 122300, Note_off_c, 0, 73, 0
2, 122304, Note_on_c, 0, 73, 81
2, 122492, Note_off_c, 0, 73, 0
2, 122496, Note_on_c, 0, 73, 83
2, 122524, Note_off_c, 0, 73, 0
2, 122528, Note_on_c, 0, 71, 83
2, 122556, Note_off_c, 0, 71, 0
2, 122560, Note_on_c, 0, 73, 83
2, 122588, Note_off_c, 0, 73, 0
2, 122592, Note_on_c, 0, 71, 83
2, 122620, Note_off_c, 0, 71, 0
2, 122624, Note_on_c, 0, 69, 85
2, 122652, Note_off_c, 0, 69, 0
2, 122656, Note_on_c, 0, 71, 85
2, 122684, Note_off_c, 0, 71, 0
2, 122688, Note_on_c, 0, 71, 85
2, 122688, Note_on_c, 0, 68, 85
2, 122876, Note_off_c, 0, 71, 0
2, 122880, Note_on_c, 0, 72, 86
2, 123068, Note_off_c, 0, 68, 0
2, 123068, Note_off_c, 0, 72, 0
2, 123072, Note_on_c, 0, 73, 88
2, 123072, Note_on_c, 0, 69, 88
2, 123260, Note_off_c, 0, 73, 0
2, 123260, Note_off_c, 0, 69, 0
2, 123264, Note_on_c, 0, 73, 90
2, 123324, Note_off_c, 0, 73, 0
2, 123328, Note_on_c, 0, 69, 90
2, 123388, Note_off_c, 0, 69, 0
2, 123392, Note_on_c, 0, 66, 90
2, 123452, Note_off_c, 0, 66, 0
2, 123456, Note_on_c, 0, 73, 90
2, 123516, Note_off_c, 0, 73, 0
2, 123520, Note_on_c, 0, 69, 90
2, 123580, Note_off_c, 0, 69, 0
2, 123584, Note_on_c, 0, 66, 90
2, 123644, Note_off_c, 0, 66, 0
2, 123648, Note_on_c, 0, 74, 90
2, 123708, Note_off_c, 0, 74, 0
2, 123712, Note_on_c, 0, 68, 90
2, 123772, Note_off_c, 0, 68, 0
2, 123776, Note_on_c, 0, 64, 90
2, 123836, Note_off_c, 0, 64, 0
2, 123840, Note_on_c, 0, 76, 90
2, 123900, Note_off_c, 0, 76, 0
2, 123904, Note_on_c, 0, 73, 90
2, 123964, Note_off_c, 0, 73, 0
2, 123968, Note_on_c, 0, 69, 90
2, 124028, Note_off_c, 0, 69, 0
2, 124032, Note_on_c, 0, 76, 90
2, 124092, Note_off_c, 0, 76, 0
2, 124096, Note_on_c, 0, 73, 90
2, 124156, Note_off_c, 0, 73, 0
2, 124160, Note_on_c, 0, 69, 90
2, 124220, Note_off_c, 0, 69, 0
2, 124224, Note_on_c, 0, 78, 90
2, 124284, Note_off_c, 0, 78, 0
2, 124288, Note_on_c, 0, 71, 90
2, 124348, Note_off_c, 0, 71, 0
2, 124352, Note_on_c, 0, 69, 90
2, 124412, Note_off_c, 0, 69, 0
2, 124416, Note_on_c, 0, 73, 90
2, 124476, Note_off_c, 0, 73, 0
2, 124480, Note_on_c, 0, 69, 90
2, 124540, Note_off_c, 0, 69, 0
2, 124544, Note_on_c, 0, 66, 90
2, 124604, Note_off_c, 0, 66, 0
2, 124608, Note_on_c, 0, 73, 90
2, 124668, Note_off_c, 0, 73, 0
2, 124672, Note_on_c, 0, 69, 90
2, 124732, Note_off_c, 0, 69, 0
2, 124736, Note_on_c, 0, 64, 90
2, 124796, Note_off_c, 0, 64, 0
2, 124800, Note_on_c, 0, 71, 90
2, 124860, Note_off_c, 0, 71, 0
2, 124864, Note_on_c, 0, 68, 90
2, 124924, Note_off_c, 0, 68, 0
2, 124928, Note_on_c, 0, 62, 90
2, 124988, Note_off_c, 0, 62, 0
2, 124992, Note_on_c, 0, 69, 90
2, 125052, Note_off_c, 0, 69, 0
2, 125056, Note_on_c, 0, 64, 90
2, 125116, Note_off_c, 0, 64, 0
2, 125120, Note_on_c, 0, 61, 90
2, 125180, Note_off_c, 0, 61, 0
2, 125184, Note_on_c, 0, 57, 90
2, 125372, Note_off_c, 0, 57, 0
2, 125568, Key_signature, 0, "major"
2, 125568, Note_on_c, 0, 72, 67
2, 125660, Note_off_c, 0, 72, 0
2, 125664, Note_on_c, 0, 71, 67
2, 125756, Note_off_c, 0, 71, 0
2, 125760, Note_on_c, 0, 69, 67
2, 125852, Note_off_c, 0, 69, 0
2, 125856, Note_on_c, 0, 71, 67
2, 125948, Note_off_c, 0, 71, 0
2, 125952, Note_on_c, 0, 72, 67
2, 126044, Note_off_c, 0, 72, 0
2, 126048, Note_on_c, 0, 74, 67
2, 126140, Note_off_c, 0, 74, 0
2, 126144, Note_on_c, 0, 76, 67
2, 126236, Note_off_c, 0, 76, 0
2, 126240, Note_on_c, 0, 75, 67
2, 126332, Note_off_c, 0, 75, 0
2, 126336, Note_on_c, 0, 77, 67
2, 126428, Note_off_c, 0, 77, 0
2, 126432, Note_on_c, 0, 76, 67
2, 126524, Note_off_c, 0, 76, 0
2, 126528, Note_on_c, 0, 74, 67
2, 126620, Note_off_c, 0, 74, 0
2, 126624, Note_on_c, 0, 72, 67
2, 126716, Note_off_c, 0, 72, 0
2, 126720, Note_on_c, 0, 71, 67
2, 126812, Note_off_c, 0, 71, 0
2, 126816, Note_on_c, 0, 69, 67
2, 126908, Note_off_c, 0, 69, 0
2, 126912, Note_on_c, 0, 68, 67
2, 127004, Note_off_c, 0, 68, 0
2, 127008, Note_on_c, 0, 69, 67
2, 127100, Note_off_c, 0, 69, 0
2, 127104, Note_on_c, 0, 71, 67
2, 127196, Note_off_c, 0, 71, 0
2, 127200, Note_on_c, 0, 72, 67
2, 127292, Note_off_c, 0, 72, 0
2, 127296, Note_on_c, 0, 74, 67
2, 127388, Note_off_c, 0, 74, 0
2, 127392, Note_on_c, 0, 73, 67
2, 127484, Note_off_c, 0, 73, 0
2, 127488, Note_on_c, 0, 76, 67
2, 127580, Note_off_c, 0, 76, 0
2, 127584, Note_on_c, 0, 74, 67
2, 127676, Note_off_c, 0, 74, 0
2, 127680, Note_on_c, 0, 72, 67
2, 127772, Note_off_c, 0, 72, 0
2, 127776, Note_on_c, 0, 71, 67
2, 127868, Note_off_c, 0, 71, 0
2, 127872, Note_on_c, 0, 69, 67
2, 127964, Note_off_c, 0, 69, 0
2, 127968, Note_on_c, 0, 76, 67
2, 128060, Note_off_c, 0, 76, 0
2, 128064, Note_on_c, 0, 75, 67
2, 128156, Note_off_c, 0, 75, 0
2, 128160, Note_on_c, 0, 76, 67
2, 128252, Note_off_c, 0, 76, 0
2, 128256, Note_on_c, 0, 72, 67
2, 128348, Note_off_c, 0, 72, 0
2, 128352, Note_on_c, 0, 69, 67
2, 128444, Note_off_c, 0, 69, 0
2, 128448, Note_on_c, 0, 68, 67
2, 128540, Note_off_c, 0, 68, 0
2, 128544, Note_on_c, 0, 76, 67
2, 128636, Note_off_c, 0, 76, 0
2, 128640, Note_on_c, 0, 77, 67
2, 128732, Note_off_c, 0, 77, 0
2, 128736, Note_on_c, 0, 76, 67
2, 128828, Note_off_c, 0, 76, 0
2, 128832, Note_on_c, 0, 74, 67
2, 128924, Note_off_c, 0, 74, 0
2, 128928, Note_on_c, 0, 71, 67
2, 129020, Note_off_c, 0, 71, 0
2, 129024, Note_on_c, 0, 71, 67
2, 129116, Note_off_c, 0, 71, 0
2, 129120, Note_on_c, 0, 69, 67
2, 129212, Note_off_c, 0, 69, 0
2, 129216, Note_on_c, 0, 68, 67
2, 129308, Note_off_c, 0, 68, 0
2, 129312, Note_on_c, 0, 69, 67
2, 129404, Note_off_c, 0, 69, 0
2, 129408, Note_on_c, 0, 71, 67
2, 129500, Note_off_c, 0, 71, 0
2, 129504, Note_on_c, 0, 72, 67
2, 129596, Note_off_c, 0, 72, 0
2, 129600, Note_on_c, 0, 72, 67
2, 129600, Note_on_c, 0, 69, 67
2, 129980, Note_off_c, 0, 72, 0
2, 129980, Note_off_c, 0, 69, 0
2, 129984, Note_on_c, 0, 71, 67
2, 129984, Note_on_c, 0, 68, 67
2, 130172, Note_off_c, 0, 71, 0
2, 130172, Note_off_c, 0, 68, 0
2, 130176, Note_on_c, 0, 84, 85
2, 130176, Note_on_c, 0, 72, 85
2, 130268, Note_off_c, 0, 84, 0
2, 130268, Note_off_c, 0, 72, 0
2, 130272, Note_on_c, 0, 83, 85
2, 130272, Note_on_c, 0, 71, 85
2, 130364, Note_off_c, 0, 83, 0
2, 130364, Note_off_c, 0, 71, 0
2, 130368, Note_on_c, 0, 81, 85
2, 130368, Note_on_c, 0, 69, 85
2, 130460, Note_off_c, 0, 81, 0
2, 130460, Note_off_c, 0, 69, 0
2, 130464, Note_on_c, 0, 83, 85
2, 130464, Note_on_c, 0, 71, 85
2, 130556, Note_off_c, 0, 83, 0
2, 130556, Note_off_c, 0, 71, 0
2, 130560, Note_on_c, 0, 84, 85
2, 130560, Note_on_c, 0, 72, 85
2, 130652, Note_off_c, 0, 84, 0
2, 130652, Note_off_c, 0, 72, 0
2, 130656, Note_on_c, 0, 86, 85
2, 130656, Note_on_c, 0, 74, 85
2, 130748, Note_off_c, 0, 86, 0
2, 130748, Note_off_c, 0, 74, 0
2, 130752, Note_on_c, 0, 88, 85
2, 130752, Note_on_c, 0, 76, 85
2, 130844, Note_off_c, 0, 88, 0
2, 130844, Note_off_c, 0, 76, 0
2, 130848, Note_on_c, 0, 87, 85
2, 130848, Note_on_c, 0, 75, 85
2, 130940, Note_off_c, 0, 87, 0
2, 130940, Note_off_c, 0, 75, 0
2, 130944, Note_on_c, 0, 89, 85
2, 130944, Note_on_c, 0, 77, 85
2, 131036, Note_off_c, 0, 89, 0
2, 131036, Note_off_c, 0, 77, 0
2, 131040, Note_on_c, 0, 88, 85
2, 131040, Note_on_c, 0, 76, 85
2, 131132, Note_off_c, 0, 88, 0
2, 131132, Note_off_c, 0, 76, 0
2, 131136, Note_on_c, 0, 86, 85
2, 131136, Note_on_c, 0, 74, 85
2, 131228, Note_off_c, 0, 86, 0
2, 131228, Note_off_c, 0, 74, 0
2, 131232, Note_on_c, 0, 84, 85
2, 131232, Note_on_c, 0, 72, 85
2, 131324, Note_off_c, 0, 84, 0
2, 131324, Note_off_c, 0, 72, 0
2, 131328, Note_on_c, 0, 83, 85
2, 131328, Note_on_c, 0, 71, 85
2, 131420, Note_off_c, 0, 83, 0
2, 131420, Note_off_c, 0, 71, 0
2, 131424, Note_on_c, 0, 81, 85
2, 131424, Note_on_c, 0, 69, 85
2, 131516, Note_off_c, 0, 81, 0
2, 131516, Note_off_c, 0, 69, 0
2, 131520, Note_on_c, 0, 80, 85
2, 131520, Note_on_c, 0, 68, 85
2, 131612, Note_off_c, 0, 80, 0
2, 131612, Note_off_c, 0, 68, 0
2, 131616, Note_on_c, 0, 81, 85
2, 131616, Note_on_c, 0, 69, 85
2, 131708, Note_off_c, 0, 81, 0
2, 131708, Note_off_c, 0, 69, 0
2, 131712, Note_on_c, 0, 83, 85
2, 131712, Note_on_c, 0, 71, 85
2, 131804, Note_off_c, 0, 83, 0
2, 131804, Note_off_c, 0, 71, 0
2, 131808, Note_on_c, 0, 84, 85
2, 131808, Note_on_c, 0, 72, 85
2, 131900, Note_off_c, 0, 84, 0
2, 131900, Note_off_c, 0, 72, 0
2, 131904, Note_on_c, 0, 86, 85
2, 131904, Note_on_c, 0, 74, 85
2, 131996, Note_off_c, 0, 86, 0
2, 131996, Note_off_c, 0, 74, 0
2, 132000, Note_on_c, 0, 85, 85
2, 132000, Note_on_c, 0, 73, 85
2, 132092, Note_off_c, 0, 85, 0
2, 132092, Note_off_c, 0, 73, 0
2, 132096, Note_on_c, 0, 88, 85
2, 132096, Note_on_c, 0, 76, 85
2, 132188, Note_off_c, 0, 88, 0
2, 132188, Note_off_c, 0, 76, 0
2, 132192, Note_on_c, 0, 86, 85
2, 132192, Note_on_c, 0, 74, 85
2, 132284, Note_off_c, 0, 86, 0
2, 132284, Note_off_c, 0, 74, 0
2, 132288, Note_on_c, 0, 84, 85
2, 132288, Note_on_c, 0, 72, 85
2, 132380, Note_off_c, 0, 84, 0
2, 132380, Note_off_c, 0, 72, 0
2, 132384, Note_on_c, 0, 83, 85
2, 132384, Note_on_c, 0, 71, 85
2, 132476, Note_off_c, 0, 83, 0
2, 132476, Note_off_c, 0, 71, 0
2, 132480, Note_on_c, 0, 81, 85
2, 132480, Note_on_c, 0, 69, 85
2, 132572, Note_off_c, 0, 81, 0
2, 132572, Note_off_c, 0, 69, 0
2, 132576, Note_on_c, 0, 80, 85
2, 132576, Note_on_c, 0, 68, 85
2, 132668, Note_off_c, 0, 80, 0
2, 132668, Note_off_c, 0, 68, 0
2, 132672, Note_on_c, 0, 81, 85
2, 132672, Note_on_c, 0, 69, 85
2, 132764, Note_off_c, 0, 81, 0
2, 132764, Note_off_c, 0, 69, 0
2, 132768, Note_on_c, 0, 84, 85
2, 132768, Note_on_c, 0, 72, 85
2, 132860, Note_off_c, 0, 84, 0
2, 132860, Note_off_c, 0, 72, 0
2, 132864, Note_on_c, 0, 83, 85
2, 132864, Note_on_c, 0, 71, 85
2, 132956, Note_off_c, 0, 83, 0
2, 132956, Note_off_c, 0, 71, 0
2, 132960, Note_on_c, 0, 86, 85
2, 132960, Note_on_c, 0, 74, 85
2, 133052, Note_off_c, 0, 86, 0
2, 133052, Note_off_c, 0, 74, 0
2, 133056, Note_on_c, 0, 84, 85
2, 133056, Note_on_c, 0, 72, 85
2, 133148, Note_off_c, 0, 84, 0
2, 133148, Note_off_c, 0, 72, 0
2, 133152, Note_on_c, 0, 83, 85
2, 133152, Note_on_c, 0, 71, 85
2, 133244, Note_off_c, 0, 83, 0
2, 133244, Note_off_c, 0, 71, 0
2, 133248, Note_on_c, 0, 84, 85
2, 133248, Note_on_c, 0, 72, 85
2, 133340, Note_off_c, 0, 84, 0
2, 133340, Note_off_c, 0, 72, 0
2, 133344, Note_on_c, 0, 88, 85
2, 133344, Note_on_c, 0, 76, 85
2, 133436, Note_off_c, 0, 88, 0
2, 133436, Note_off_c, 0, 76, 0
2, 133440, Note_on_c, 0, 86, 85
2, 133440, Note_on_c, 0, 74, 85
2, 133532, Note_off_c, 0, 86, 0
2, 133532, Note_off_c, 0, 74, 0
2, 133536, Note_on_c, 0, 89, 85
2, 133536, Note_on_c, 0, 77, 85
2, 133628, Note_off_c, 0, 89, 0
2, 133628, Note_off_c, 0, 77, 0
2, 133632, Note_on_c, 0, 88, 85
2, 133632, Note_on_c, 0, 76, 85
2, 133724, Note_off_c, 0, 88, 0
2, 133724, Note_off_c, 0, 76, 0
2, 133728, Note_on_c, 0, 87, 85
2, 133728, Note_on_c, 0, 75, 85
2, 133820, Note_off_c, 0, 87, 0
2, 133820, Note_off_c, 0, 75, 0
2, 133824, Note_on_c, 0, 88, 85
2, 133824, Note_on_c, 0, 76, 85
2, 133916, Note_off_c, 0, 88, 0
2, 133916, Note_off_c, 0, 76, 0
2, 133920, Note_on_c, 0, 76, 85
2, 133920, Note_on_c, 0, 64, 85
2, 134012, Note_off_c, 0, 76, 0
2, 134012, Note_off_c, 0, 64, 0
2, 134016, Note_on_c, 0, 78, 85
2, 134016, Note_on_c, 0, 66, 85
2, 134108, Note_off_c, 0, 78, 0
2, 134108, Note_off_c, 0, 66, 0
2, 134112, Note_on_c, 0, 80, 85
2, 134112, Note_on_c, 0, 68, 85
2, 134204, Note_off_c, 0, 80, 0
2, 134204, Note_off_c, 0, 68, 0
2, 134208, Note_on_c, 0, 81, 85
2, 134208, Note_on_c, 0, 69, 85
2, 134588, Note_off_c, 0, 81, 0
2, 134588, Note_off_c, 0, 69, 0
2, 134784, Note_on_c, 0, 72, 67
2, 134876, Note_off_c, 0, 72, 0
2, 134880, Note_on_c, 0, 71, 67
2, 134972, Note_off_c, 0, 71, 0
2, 134976, Note_on_c, 0, 69, 67
2, 135068, Note_off_c, 0, 69, 0
2, 135072, Note_on_c, 0, 71, 67
2, 135164, Note_off_c, 0, 71, 0
2, 135168, Note_on_c, 0, 72, 67
2, 135260, Note_off_c, 0, 72, 0
2, 135264, Note_on_c, 0, 74, 67
2, 135356, Note_off_c, 0, 74, 0
2, 135360, Note_on_c, 0, 76, 67
2, 135452, Note_off_c, 0, 76, 0
2, 135456, Note_on_c, 0, 75, 67
2, 135548, Note_off_c, 0, 75, 0
2, 135552, Note_on_c, 0, 77, 67
2, 135644, Note_off_c, 0, 77, 0
2, 135648, Note_on_c, 0, 76, 67
2, 135740, Note_off_c, 0, 76, 0
2, 135744, Note_on_c, 0, 74, 67
2, 135836, Note_off_c, 0, 74, 0
2, 135840, Note_on_c, 0, 72, 67
2, 135932, Note_off_c, 0, 72, 0
2, 135936, Note_on_c, 0, 71, 67
2, 136028, Note_off_c, 0, 71, 0
2, 136032, Note_on_c, 0, 69, 67
2, 136124, Note_off_c, 0, 69, 0
2, 136128, Note_on_c, 0, 68, 67
2, 136220, Note_off_c, 0, 68, 0
2, 136224, Note_on_c, 0, 69, 67
2, 136316, Note_off_c, 0, 69, 0
2, 136320, Note_on_c, 0, 71, 67
2, 136412, Note_off_c, 0, 71, 0
2, 136416, Note_on_c, 0, 72, 67
2, 136508, Note_off_c, 0, 72, 0
2, 136512, Note_on_c, 0, 74, 67
2, 136604, Note_off_c, 0, 74, 0
2, 136608, Note_on_c, 0, 73, 67
2, 136700, Note_off_c, 0, 73, 0
2, 136704, Note_on_c, 0, 76, 67
2, 136796, Note_off_c, 0, 76, 0
2, 136800, Note_on_c, 0, 74, 67
2, 136892, Note_off_c, 0, 74, 0
2, 136896, Note_on_c, 0, 72, 67
2, 136988, Note_off_c, 0, 72, 0
2, 136992, Note_on_c, 0, 71, 67
2, 137084, Note_off_c, 0, 71, 0
2, 137088, Note_on_c, 0, 69, 67
2, 137180, Note_off_c, 0, 69, 0
2, 137184, Note_on_c, 0, 76, 67
2, 137276, Note_off_c, 0, 76, 0
2, 137280, Note_on_c, 0, 75, 67
2, 137372, Note_off_c, 0, 75, 0
2, 137376, Note_on_c, 0, 76, 67
2, 137468, Note_off_c, 0, 76, 0
2, 137472, Note_on_c, 0, 72, 67
2, 137564, Note_off_c, 0, 72, 0
2, 137568, Note_on_c, 0, 69, 67
2, 137660, Note_off_c, 0, 69, 0
2, 137664, Note_on_c, 0, 68, 67
2, 137756, Note_off_c, 0, 68, 0
2, 137760, Note_on_c, 0, 76, 67
2, 137852, Note_off_c, 0, 76, 0
2, 137856, Note_on_c, 0, 77, 67
2, 137948, Note_off_c, 0, 77, 0
2, 137952, Note_on_c, 0, 76, 67
2, 138044, Note_off_c, 0, 76, 0
2, 138048, Note_on_c, 0, 74, 67
2, 138140, Note_off_c, 0, 74, 0
2, 138144, Note_on_c, 0, 71, 67
2, 138236, Note_off_c, 0, 71, 0
2, 138240, Note_on_c, 0, 71, 67
2, 138332, Note_off_c, 0, 71, 0
2, 138336, Note_on_c, 0, 69, 67
2, 138428, Note_off_c, 0, 69, 0
2, 138432, Note_on_c, 0, 68, 67
2, 138524, Note_off_c, 0, 68, 0
2, 138528, Note_on_c, 0, 69, 67
2, 138620, Note_off_c, 0, 69, 0
2, 138624, Note_on_c, 0, 71, 67
2, 138716, Note_off_c, 0, 71, 0
2, 138720, Note_on_c, 0, 72, 67
2, 138812, Note_off_c, 0, 72, 0
2, 138816, Note_on_c, 0, 72, 67
2, 138816, Note_on_c, 0, 69, 67
2, 139196, Note_off_c, 0, 72, 0
2, 139196, Note_off_c, 0, 69, 0
2, 139200, Note_on_c, 0, 71, 67
2, 139200, Note_on_c, 0, 68, 67
2, 139388, Note_off_c, 0, 71, 0
2, 139388, Note_off_c, 0, 68, 0
2, 139392, Note_on_c, 0, 84, 85
2, 139392, Note_on_c, 0, 72, 85
2, 139484, Note_off_c, 0, 84, 0
2, 139484, Note_off_c, 0, 72, 0
2, 139488, Note_on_c, 0, 83, 85
2, 139488, Note_on_c, 0, 71, 85
2, 139580, Note_off_c, 0, 83, 0
2, 139580, Note_off_c, 0, 71, 0
2, 139584, Note_on_c, 0, 81, 85
2, 139584, Note_on_c, 0, 69, 85
2, 139676, Note_off_c, 0, 81, 0
2, 139676, Note_off_c, 0, 69, 0
2, 139680, Note_on_c, 0, 83, 85
2, 139680, Note_on_c, 0, 71, 85
2, 139772, Note_off_c, 0, 83, 0
2, 139772, Note_off_c, 0, 71, 0
2, 139776, Note_on_c, 0, 84, 85
2, 139776, Note_on_c, 0, 72, 85
2, 139868, Note_off_c, 0, 84, 0
2, 139868, Note_off_c, 0, 72, 0
2, 139872, Note_on_c, 0, 86, 85
2, 139872, Note_on_c, 0, 74, 85
2, 139964, Note_off_c, 0, 86, 0
2, 139964, Note_off_c, 0, 74, 0
2, 139968, Note_on_c, 0, 88, 85
2, 139968, Note_on_c, 0, 76, 85
2, 140060, Note_off_c, 0, 88, 0
2, 140060, Note_off_c, 0, 76, 0
2, 140064, Note_on_c, 0, 87, 85
2, 140064, Note_on_c, 0, 75, 85
2, 140156, Note_off_c, 0, 87, 0
2, 140156, Note_off_c, 0, 75, 0
2, 140160, Note_on_c, 0, 89, 85
2, 140160, Note_on_c, 0, 77, 85
2, 140252, Note_off_c, 0, 89, 0
2, 140252, Note_off_c, 0, 77, 0
2, 140256, Note_on_c, 0, 88, 85
2, 140256, Note_on_c, 0, 76, 85
2, 140348, Note_off_c, 0, 88, 0
2, 140348, Note_off_c, 0, 76, 0
2, 140352, Note_on_c, 0, 86, 85
2, 140352, Note_on_c, 0, 74, 85
2, 140444, Note_off_c, 0, 86, 0
2, 140444, Note_off_c, 0, 74, 0
2, 140448, Note_on_c, 0, 84, 85
2, 140448, Note_on_c, 0, 72, 85
2, 140540, Note_off_c, 0, 84, 0
2, 140540, Note_off_c, 0, 72, 0
2, 140544, Note_on_c, 0, 83, 85
2, 140544, Note_on_c, 0, 71, 85
2, 140636, Note_off_c, 0, 83, 0
2, 140636, Note_off_c, 0, 71, 0
2, 140640, Note_on_c, 0, 81, 85
2, 140640, Note_on_c, 0, 69, 85
2, 140732, Note_off_c, 0, 81, 0
2, 140732, Note_off_c, 0, 69, 0
2, 140736, Note_on_c, 0, 80, 85
2, 140736, Note_on_c, 0, 68, 85
2, 140828, Note_off_c, 0, 80, 0
2, 140828, Note_off_c, 0, 68, 0
2, 140832, Note_on_c, 0, 81, 85
2, 140832, Note_on_c, 0, 69, 85
2, 140924, Note_off_c, 0, 81, 0
2, 140924, Note_off_c, 0, 69, 0
2, 140928, Note_on_c, 0, 83, 85
2, 140928, Note_on_c, 0, 71, 85
2, 141020, Note_off_c, 0, 83, 0
2, 141020, Note_off_c, 0, 71, 0
2, 141024, Note_on_c, 0, 84, 85
2, 141024, Note_on_c, 0, 72, 85
2, 141116, Note_off_c, 0, 84, 0
2, 141116, Note_off_c, 0, 72, 0
2, 141120, Note_on_c, 0, 86, 85
2, 141120, Note_on_c, 0, 74, 85
2, 141212, Note_off_c, 0, 86, 0
2, 141212, Note_off_c, 0, 74, 0
2, 141216, Note_on_c, 0, 85, 85
2, 141216, Note_on_c, 0, 73, 85
2, 141308, Note_off_c, 0, 85, 0
2, 141308, Note_off_c, 0, 73, 0
2, 141312, Note_on_c, 0, 88, 85
2, 141312, Note_on_c, 0, 76, 85
2, 141404, Note_off_c, 0, 88, 0
2, 141404, Note_off_c, 0, 76, 0
2, 141408, Note_on_c, 0, 86, 85
2, 141408, Note_on_c, 0, 74, 85
2, 141500, Note_off_c, 0, 86, 0
2, 141500, Note_off_c, 0, 74, 0
2, 141504, Note_on_c, 0, 84, 85
2, 141504, Note_on_c, 0, 72, 85
2, 141596, Note_off_c, 0, 84, 0
2, 141596, Note_off_c, 0, 72, 0
2, 141600, Note_on_c, 0, 83, 85
2, 141600, Note_on_c, 0, 71, 85
2, 141692, Note_off_c, 0, 83, 0
2, 141692, Note_off_c, 0, 71, 0
2, 141696, Note_on_c, 0, 81, 85
2, 141696, Note_on_c, 0, 69, 85
2, 141788, Note_off_c, 0, 81, 0
2, 141788, Note_off_c, 0, 69, 0
2, 141792, Note_on_c, 0, 80, 85
2, 141792, Note_on_c, 0, 68, 85
2, 141884, Note_off_c, 0, 80, 0
2, 141884, Note_off_c, 0, 68, 0
2, 141888, Note_on_c, 0, 81, 85
2, 141888, Note_on_c, 0, 69, 85
2, 141980, Note_off_c, 0, 81, 0
2, 141980, Note_off_c, 0, 69, 0
2, 141984, Note_on_c, 0, 84, 85
2, 141984, Note_on_c, 0, 72, 85
2, 142076, Note_off_c, 0, 84, 0
2, 142076, Note_off_c, 0, 72, 0
2, 142080, Note_on_c, 0, 83, 85
2, 142080, Note_on_c, 0, 71, 85
2, 142172, Note_off_c, 0, 83, 0
2, 142172, Note_off_c, 0, 71, 0
2, 142176, Note_on_c, 0, 86, 85
2, 142176, Note_on_c, 0, 74, 85
2, 142268, Note_off_c, 0, 86, 0
2, 142268, Note_off_c, 0, 74, 0
2, 142272, Note_on_c, 0, 84, 85
2, 142272, Note_on_c, 0, 72, 85
2, 142364, Note_off_c, 0, 84, 0
2, 142364, Note_off_c, 0, 72, 0
2, 142368, Note_on_c, 0, 83, 85
2, 142368, Note_on_c, 0, 71, 85
2, 142460, Note_off_c, 0, 83, 0
2, 142460, Note_off_c, 0, 71, 0
2, 142464, Note_on_c, 0, 84, 85
2, 142464, Note_on_c, 0, 72, 85
2, 142556, Note_off_c, 0, 84, 0
2, 142556, Note_off_c, 0, 72, 0
2, 142560, Note_on_c, 0, 88, 85
2, 142560, Note_on_c, 0, 76, 85
2, 142652, Note_off_c, 0, 88, 0
2, 142652, Note_off_c, 0, 76, 0
2, 142656, Note_on_c, 0, 86, 85
2, 142656, Note_on_c, 0, 74, 85
2, 142748, Note_off_c, 0, 86, 0
2, 142748, Note_off_c, 0, 74, 0
2, 142752, Note_on_c, 0, 89, 85
2, 142752, Note_on_c, 0, 77, 85
2, 142844, Note_off_c, 0, 89, 0
2, 142844, Note_off_c, 0, 77, 0
2, 142848, Note_on_c, 0, 88, 85
2, 142848, Note_on_c, 0, 76, 85
2, 142940, Note_off_c, 0, 88, 0
2, 142940, Note_off_c, 0, 76, 0
2, 142944, Note_on_c, 0, 87, 85
2, 142944, Note_on_c, 0, 75, 85
2, 143036, Note_off_c, 0, 87, 0
2, 143036, Note_off_c, 0, 75, 0
2, 143040, Note_on_c, 0, 88, 85
2, 143040, Note_on_c, 0, 76, 85
2, 143132, Note_off_c, 0, 88, 0
2, 143132, Note_off_c, 0, 76, 0
2, 143136, Note_on_c, 0, 76, 85
2, 143136, Note_on_c, 0, 64, 85
2, 143228, Note_off_c, 0, 76, 0
2, 143228, Note_off_c, 0, 64, 0
2, 143232, Note_on_c, 0, 78, 85
2, 143232, Note_on_c, 0, 66, 85
2, 143324, Note_off_c, 0, 78, 0
2, 143324, Note_off_c, 0, 66, 0
2, 143328, Note_on_c, 0, 80, 85
2, 143328, Note_on_c, 0, 68, 85
2, 143420, Note_off_c, 0, 80, 0
2, 143420, Note_off_c, 0, 68, 0
2, 143424, Note_on_c, 0, 81, 85
2, 143424, Note_on_c, 0, 69, 85
2, 143804, Note_off_c, 0, 81, 0
2, 143804, Note_off_c, 0, 69, 0
2, 144000, Note_on_c, 0, 69, 75
2, 144092, Note_off_c, 0, 69, 0
2, 144096, Note_on_c, 0, 68, 75
2, 144188, Note_off_c, 0, 68, 0
2, 144192, Note_on_c, 0, 69, 75
2, 144284, Note_off_c, 0, 69, 0
2, 144288, Note_on_c, 0, 81, 75
2, 144380, Note_off_c, 0, 81, 0
2, 144384, Note_on_c, 0, 80, 75
2, 144476, Note_off_c, 0, 80, 0
2, 144480, Note_on_c, 0, 79, 75
2, 144572, Note_off_c, 0, 79, 0
2, 144576, Note_on_c, 0, 79, 75
2, 144668, Note_off_c, 0, 79, 0
2, 144672, Note_on_c, 0, 77, 75
2, 144764, Note_off_c, 0, 77, 0
2, 144768, Note_on_c, 0, 76, 75
2, 144860, Note_off_c, 0, 76, 0
2, 144864, Note_on_c, 0, 77, 75
2, 144956, Note_off_c, 0, 77, 0
2, 144960, Note_on_c, 0, 76, 75
2, 145052, Note_off_c, 0, 76, 0
2, 145056, Note_on_c, 0, 77, 75
2, 145148, Note_off_c, 0, 77, 0
2, 145152, Note_on_c, 0, 81, 75
2, 145244, Note_off_c, 0, 81, 0
2, 145248, Note_on_c, 0, 80, 75
2, 145340, Note_off_c, 0, 80, 0
2, 145344, Note_on_c, 0, 81, 75
2, 145436, Note_off_c, 0, 81, 0
2, 145440, Note_on_c, 0, 80, 75
2, 145532, Note_off_c, 0, 80, 0
2, 145536, Note_on_c, 0, 81, 75
2, 145628, Note_off_c, 0, 81, 0
2, 145632, Note_on_c, 0, 77, 75
2, 145724, Note_off_c, 0, 77, 0
2, 145728, Note_on_c, 0, 77, 75
2, 145820, Note_off_c, 0, 77, 0
2, 145824, Note_on_c, 0, 76, 75
2, 145916, Note_off_c, 0, 76, 0
2, 145920, Note_on_c, 0, 75, 75
2, 146012, Note_off_c, 0, 75, 0
2, 146016, Note_on_c, 0, 76, 75
2, 146108, Note_off_c, 0, 76, 0
2, 146112, Note_on_c, 0, 75, 75
2, 146204, Note_off_c, 0, 75, 0
2, 146208, Note_on_c, 0, 76, 75
2, 146300, Note_off_c, 0, 76, 0
2, 146304, Note_on_c, 0, 76, 75
2, 146396, Note_off_c, 0, 76, 0
2, 146400, Note_on_c, 0, 74, 75
2, 146492, Note_off_c, 0, 74, 0
2, 146496, Note_on_c, 0, 72, 75
2, 146588, Note_off_c, 0, 72, 0
2, 146592, Note_on_c, 0, 71, 75
2, 146684, Note_off_c, 0, 71, 0
2, 146688, Note_on_c, 0, 69, 75
2, 146780, Note_off_c, 0, 69, 0
2, 146784, Note_on_c, 0, 76, 75
2, 146876, Note_off_c, 0, 76, 0
2, 146880, Note_on_c, 0, 77, 75
2, 146972, Note_off_c, 0, 77, 0
2, 146976, Note_on_c, 0, 74, 75
2, 147068, Note_off_c, 0, 74, 0
2, 147072, Note_on_c, 0, 71, 75
2, 147164, Note_off_c, 0, 71, 0
2, 147168, Note_on_c, 0, 69, 75
2, 147260, Note_off_c, 0, 69, 0
2, 147264, Note_on_c, 0, 68, 75
2, 147356, Note_off_c, 0, 68, 0
2, 147360, Note_on_c, 0, 71, 75
2, 147452, Note_off_c, 0, 71, 0
2, 147456, Note_on_c, 0, 71, 75
2, 147548, Note_off_c, 0, 71, 0
2, 147552, Note_on_c, 0, 69, 75
2, 147644, Note_off_c, 0, 69, 0
2, 147648, Note_on_c, 0, 72, 75
2, 147740, Note_off_c, 0, 72, 0
2, 147744, Note_on_c, 0, 71, 75
2, 147836, Note_off_c, 0, 71, 0
2, 147840, Note_on_c, 0, 74, 75
2, 147932, Note_off_c, 0, 74, 0
2, 147936, Note_on_c, 0, 72, 75
2, 148028, Note_off_c, 0, 72, 0
2, 148032, Note_on_c, 0, 71, 75
2, 148064, Note_off_c, 0, 71, 0
2, 148064, Note_on_c, 0, 72, 75
2, 148096, Note_off_c, 0, 72, 0
2, 148096, Note_on_c, 0, 74, 75
2, 148128, Note_off_c, 0, 74, 0
2, 148128, Note_on_c, 0, 72, 90
2, 148128, Note_on_c, 0, 69, 90
2, 148414, Note_off_c, 0, 72, 0
2, 148414, Note_off_c, 0, 69, 0
2, 148416, Note_on_c, 0, 71, 75
2, 148416, Note_on_c, 0, 68, 75
2, 148604, Note_off_c, 0, 71, 0
2, 148604, Note_off_c, 0, 68, 0
2, 148608, Note_on_c, 0, 72, 67
2, 148700, Note_off_c, 0, 72, 0
2, 148704, Note_on_c, 0, 71, 67
2, 148796, Note_off_c, 0, 71, 0
2, 148800, Note_on_c, 0, 69, 67
2, 148892, Note_off_c, 0, 69, 0
2, 148896, Note_on_c, 0, 71, 67
2, 148988, Note_off_c, 0, 71, 0
2, 148992, Note_on_c, 0, 72, 67
2, 149084, Note_off_c, 0, 72, 0
2, 149088, Note_on_c, 0, 74, 67
2, 149180, Note_off_c, 0, 74, 0
2, 149184, Note_on_c, 0, 76, 67
2, 149276, Note_off_c, 0, 76, 0
2, 149280, Note_on_c, 0, 75, 67
2, 149372, Note_off_c, 0, 75, 0
2, 149376, Note_on_c, 0, 77, 67
2, 149468, Note_off_c, 0, 77, 0
2, 149472, Note_on_c, 0, 76, 67
2, 149564, Note_off_c, 0, 76, 0
2, 149568, Note_on_c, 0, 74, 67
2, 149660, Note_off_c, 0, 74, 0
2, 149664, Note_on_c, 0, 72, 67
2, 149756, Note_off_c, 0, 72, 0
2, 149760, Note_on_c, 0, 71, 67
2, 149852, Note_off_c, 0, 71, 0
2, 149856, Note_on_c, 0, 69, 67
2, 149948, Note_off_c, 0, 69, 0
2, 149952, Note_on_c, 0, 68, 67
2, 150044, Note_off_c, 0, 68, 0
2, 150048, Note_on_c, 0, 69, 67
2, 150140, Note_off_c, 0, 69, 0
2, 150144, Note_on_c, 0, 71, 67
2, 150236, Note_off_c, 0, 71, 0
2, 150240, Note_on_c, 0, 72, 67
2, 150332, Note_off_c, 0, 72, 0
2, 150336, Note_on_c, 0, 74, 67
2, 150428, Note_off_c, 0, 74, 0
2, 150432, Note_on_c, 0, 73, 67
2, 150524, Note_off_c, 0, 73, 0
2, 150528, Note_on_c, 0, 76, 67
2, 150620, Note_off_c, 0, 76, 0
2, 150624, Note_on_c, 0, 74, 67
2, 150716, Note_off_c, 0, 74, 0
2, 150720, Note_on_c, 0, 72, 67
2, 150812, Note_off_c, 0, 72, 0
2, 150816, Note_on_c, 0, 71, 67
2, 150908, Note_off_c, 0, 71, 0
2, 150912, Note_on_c, 0, 69, 67
2, 151004, Note_off_c, 0, 69, 0
2, 151008, Note_on_c, 0, 68, 67
2, 151100, Note_off_c, 0, 68, 0
2, 151104, Note_on_c, 0, 69, 67
2, 151196, Note_off_c, 0, 69, 0
2, 151200, Note_on_c, 0, 72, 67
2, 151292, Note_off_c, 0, 72, 0
2, 151296, Note_on_c, 0, 71, 67
2, 151388, Note_off_c, 0, 71, 0
2, 151392, Note_on_c, 0, 74, 67
2, 151484, Note_off_c, 0, 74, 0
2, 151488, Note_on_c, 0, 72, 67
2, 151580, Note_off_c, 0, 72, 0
2, 151584, Note_on_c, 0, 71, 67
2, 151676, Note_off_c, 0, 71, 0
2, 151680, Note_on_c, 0, 72, 67
2, 151772, Note_off_c, 0, 72, 0
2, 151776, Note_on_c, 0, 76, 67
2, 151868, Note_off_c, 0, 76, 0
2, 151872, Note_on_c, 0, 74, 67
2, 151964, Note_off_c, 0, 74, 0
2, 151968, Note_on_c, 0, 77, 67
2, 152060, Note_off_c, 0, 77, 0
2, 152064, Note_on_c, 0, 76, 67
2, 152156, Note_off_c, 0, 76, 0
2, 152160, Note_on_c, 0, 75, 67
2, 152252, Note_off_c, 0, 75, 0
2, 152256, Note_on_c, 0, 76, 67
2, 152348, Note_off_c, 0, 76, 0
2, 152352, Note_on_c, 0, 64, 67
2, 152444, Note_off_c, 0, 64, 0
2, 152448, Note_on_c, 0, 66, 67
2, 152540, Note_off_c, 0, 66, 0
2, 152544, Note_on_c, 0, 68, 67
2, 152636, Note_off_c, 0, 68, 0
2, 152640, Note_on_c, 0, 69, 67
2, 152732, Note_off_c, 0, 69, 0
2, 152736, Note_on_c, 0, 68, 67
2, 152828, Note_off_c, 0, 68, 0
2, 152832, Note_on_c, 0, 69, 67
2, 152924, Note_off_c, 0, 69, 0
2, 152928, Note_on_c, 0, 64, 67
2, 153020, Note_off_c, 0, 64, 0
2, 153024, Note_on_c, 0, 60, 67
2, 153116, Note_off_c, 0, 60, 0
2, 153120, Note_on_c, 0, 64, 67
2, 153212, Note_off_c, 0, 64, 0
2, 153216, Note_on_c, 0, 81, 90
2, 153216, Note_on_c, 0, 69, 90
2, 153308, Note_off_c, 0, 81, 0
2, 153308, Note_off_c, 0, 69, 0
2, 153312, Note_on_c, 0, 80, 90
2, 153312, Note_on_c, 0, 68, 90
2, 153404, Note_off_c, 0, 80, 0
2, 153404, Note_off_c, 0, 68, 0
2, 153408, Note_on_c, 0, 81, 90
2, 153408, Note_on_c, 0, 69, 90
2, 153500, Note_off_c, 0, 81, 0
2, 153500, Note_off_c, 0, 69, 0
2, 153504, Note_on_c, 0, 84, 90
2, 153504, Note_on_c, 0, 72, 90
2, 153596, Note_off_c, 0, 84, 0
2, 153596, Note_off_c, 0, 72, 0
2, 153600, Note_on_c, 0, 83, 90
2, 153600, Note_on_c, 0, 71, 90
2, 153692, Note_off_c, 0, 83, 0
2, 153692, Note_off_c, 0, 71, 0
2, 153696, Note_on_c, 0, 86, 90
2, 153696, Note_on_c, 0, 74, 90
2, 153788, Note_off_c, 0, 86, 0
2, 153788, Note_off_c, 0, 74, 0
2, 153792, Note_on_c, 0, 84, 90
2, 153792, Note_on_c, 0, 72, 90
2, 153884, Note_off_c, 0, 84, 0
2, 153884, Note_off_c, 0, 72, 0
2, 153888, Note_on_c, 0, 83, 90
2, 153888, Note_on_c, 0, 71, 90
2, 153980, Note_off_c, 0, 83, 0
2, 153980, Note_off_c, 0, 71, 0
2, 153984, Note_on_c, 0, 84, 90
2, 153984, Note_on_c, 0, 72, 90
2, 154076, Note_off_c, 0, 84, 0
2, 154076, Note_off_c, 0, 72, 0
2, 154080, Note_on_c, 0, 88, 90
2, 154080, Note_on_c, 0, 76, 90
2, 154172, Note_off_c, 0, 88, 0
2, 154172, Note_off_c, 0, 76, 0
2, 154176, Note_on_c, 0, 86, 90
2, 154176, Note_on_c, 0, 74, 90
2, 154268, Note_off_c, 0, 86, 0
2, 154268, Note_off_c, 0, 74, 0
2, 154272, Note_on_c, 0, 89, 90
2, 154272, Note_on_c, 0, 77, 90
2, 154364, Note_off_c, 0, 89, 0
2, 154364, Note_off_c, 0, 77, 0
2, 154368, Note_on_c, 0, 88, 90
2, 154368, Note_on_c, 0, 76, 90
2, 154460, Note_off_c, 0, 88, 0
2, 154460, Note_off_c, 0, 76, 0
2, 154464, Note_on_c, 0, 87, 90
2, 154464, Note_on_c, 0, 75, 90
2, 154556, Note_off_c, 0, 87, 0
2, 154556, Note_off_c, 0, 75, 0
2, 154560, Note_on_c, 0, 76, 90
2, 154560, Note_on_c, 0, 88, 90
2, 154652, Note_off_c, 0, 76, 0
2, 154652, Note_off_c, 0, 88, 0
2, 154656, Note_on_c, 0, 76, 90
2, 154656, Note_on_c, 0, 64, 90
2, 154748, Note_off_c, 0, 76, 0
2, 154748, Note_off_c, 0, 64, 0
2, 154752, Note_on_c, 0, 78, 90
2, 154752, Note_on_c, 0, 66, 90
2, 154844, Note_off_c, 0, 78, 0
2, 154844, Note_off_c, 0, 66, 0
2, 154848, Note_on_c, 0, 80, 90
2, 154848, Note_on_c, 0, 68, 90
2, 154940, Note_off_c, 0, 80, 0
2, 154940, Note_off_c, 0, 68, 0
2, 154944, Note_on_c, 0, 81, 90
2, 154944, Note_on_c, 0, 69, 90
2, 155324, Note_off_c, 0, 81, 0
2, 155324, Note_off_c, 0, 69, 0
2, 155520, Note_on_c, 0, 69, 75
2, 155612, Note_off_c, 0, 69, 0
2, 155616, Note_on_c, 0, 68, 75
2, 155708, Note_off_c, 0, 68, 0
2, 155712, Note_on_c, 0, 69, 75
2, 155804, Note_off_c, 0, 69, 0
2, 155808, Note_on_c, 0, 81, 75
2, 155900, Note_off_c, 0, 81, 0
2, 155904, Note_on_c, 0, 80, 75
2, 155996, Note_off_c, 0, 80, 0
2, 156000, Note_on_c, 0, 79, 75
2, 156092, Note_off_c, 0, 79, 0
2, 156096, Note_on_c, 0, 79, 75
2, 156188, Note_off_c, 0, 79, 0
2, 156192, Note_on_c, 0, 77, 75
2, 156284, Note_off_c, 0, 77, 0
2, 156288, Note_on_c, 0, 76, 75
2, 156380, Note_off_c, 0, 76, 0
2, 156384, Note_on_c, 0, 77, 75
2, 156476, Note_off_c, 0, 77, 0
2, 156480, Note_on_c, 0, 76, 75
2, 156572, Note_off_c, 0, 76, 0
2, 156576, Note_on_c, 0, 77, 75
2, 156668, Note_off_c, 0, 77, 0
2, 156672, Note_on_c, 0, 81, 75
2, 156764, Note_off_c, 0, 81, 0
2, 156768, Note_on_c, 0, 80, 75
2, 156860, Note_off_c, 0, 80, 0
2, 156864, Note_on_c, 0, 81, 75
2, 156956, Note_off_c, 0, 81, 0
2, 156960, Note_on_c, 0, 80, 75
2, 157052, Note_off_c, 0, 80, 0
2, 157056, Note_on_c, 0, 81, 75
2, 157148, Note_off_c, 0, 81, 0
2, 157152, Note_on_c, 0, 77, 75
2, 157244, Note_off_c, 0, 77, 0
2, 157248, Note_on_c, 0, 77, 75
2, 157340, Note_off_c, 0, 77, 0
2, 157344, Note_on_c, 0, 76, 75
2, 157436, Note_off_c, 0, 76, 0
2, 157440, Note_on_c, 0, 75, 75
2, 157532, Note_off_c, 0, 75, 0
2, 157536, Note_on_c, 0, 76, 75
2, 157628, Note_off_c, 0, 76, 0
2, 157632, Note_on_c, 0, 75, 75
2, 157724, Note_off_c, 0, 75, 0
2, 157728, Note_on_c, 0, 76, 75
2, 157820, Note_off_c, 0, 76, 0
2, 157824, Note_on_c, 0, 76, 75
2, 157916, Note_off_c, 0, 76, 0
2, 157920, Note_on_c, 0, 74, 75
2, 158012, Note_off_c, 0, 74, 0
2, 158016, Note_on_c, 0, 72, 75
2, 158108, Note_off_c, 0, 72, 0
2, 158112, Note_on_c, 0, 71, 75
2, 158204, Note_off_c, 0, 71, 0
2, 158208, Note_on_c, 0, 69, 75
2, 158300, Note_off_c, 0, 69, 0
2, 158304, Note_on_c, 0, 76, 75
2, 158396, Note_off_c, 0, 76, 0
2, 158400, Note_on_c, 0, 77, 75
2, 158492, Note_off_c, 0, 77, 0
2, 158496, Note_on_c, 0, 74, 75
2, 158588, Note_off_c, 0, 74, 0
2, 158592, Note_on_c, 0, 71, 75
2, 158684, Note_off_c, 0, 71, 0
2, 158688, Note_on_c, 0, 69, 75
2, 158780, Note_off_c, 0, 69, 0
2, 158784, Note_on_c, 0, 68, 75
2, 158876, Note_off_c, 0, 68, 0
2, 158880, Note_on_c, 0, 71, 75
2, 158972, Note_off_c, 0, 71, 0
2, 158976, Note_on_c, 0, 71, 75
2, 159068, Note_off_c, 0, 71, 0
2, 159072, Note_on_c, 0, 69, 75
2, 159164, Note_off_c, 0, 69, 0
2, 159168, Note_on_c, 0, 72, 75
2, 159260, Note_off_c, 0, 72, 0
2, 159264, Note_on_c, 0, 71, 75
2, 159356, Note_off_c, 0, 71, 0
2, 159360, Note_on_c, 0, 74, 75
2, 159452, Note_off_c, 0, 74, 0
2, 159456, Note_on_c, 0, 72, 75
2, 159548, Note_off_c, 0, 72, 0
2, 159552, Note_on_c, 0, 71, 75
2, 159584, Note_off_c, 0, 71, 0
2, 159584, Note_on_c, 0, 72, 75
2, 159616, Note_off_c, 0, 72, 0
2, 159616, Note_on_c, 0, 74, 75
2, 159648, Note_off_c, 0, 74, 0
2, 159648, Note_on_c, 0, 72, 90
2, 159648, Note_on_c, 0, 69, 90
2, 159934, Note_off_c, 0, 72, 0
2, 159934, Note_off_c, 0, 69, 0
2, 159936, Note_on_c, 0, 71, 75
2, 159936, Note_on_c, 0, 68, 75
2, 160124, Note_off_c, 0, 71, 0
2, 160124, Note_off_c, 0, 68, 0
2, 160128, Note_on_c, 0, 72, 67
2, 160220, Note_off_c, 0, 72, 0
2, 160224, Note_on_c, 0, 71, 67
2, 160316, Note_off_c, 0, 71, 0
2, 160320, Note_on_c, 0, 69, 67
2, 160412, Note_off_c, 0, 69, 0
2, 160416, Note_on_c, 0, 71, 67
2, 160508, Note_off_c, 0, 71, 0
2, 160512, Note_on_c, 0, 72, 67
2, 160604, Note_off_c, 0, 72, 0
2, 160608, Note_on_c, 0, 74, 67
2, 160700, Note_off_c, 0, 74, 0
2, 160704, Note_on_c, 0, 76, 67
2, 160796, Note_off_c, 0, 76, 0
2, 160800, Note_on_c, 0, 75, 67
2, 160892, Note_off_c, 0, 75, 0
2, 160896, Note_on_c, 0, 77, 67
2, 160988, Note_off_c, 0, 77, 0
2, 160992, Note_on_c, 0, 76, 67
2, 161084, Note_off_c, 0, 76, 0
2, 161088, Note_on_c, 0, 74, 67
2, 161180, Note_off_c, 0, 74, 0
2, 161184, Note_on_c, 0, 72, 67
2, 161276, Note_off_c, 0, 72, 0
2, 161280, Note_on_c, 0, 71, 67
2, 161372, Note_off_c, 0, 71, 0
2, 161376, Note_on_c, 0, 69, 67
2, 161468, Note_off_c, 0, 69, 0
2, 161472, Note_on_c, 0, 68, 67
2, 161564, Note_off_c, 0, 68, 0
2, 161568, Note_on_c, 0, 69, 67
2, 161660, Note_off_c, 0, 69, 0
2, 161664, Note_on_c, 0, 71, 67
2, 161756, Note_off_c, 0, 71, 0
2, 161760, Note_on_c, 0, 72, 67
2, 161852, Note_off_c, 0, 72, 0
2, 161856, Note_on_c, 0, 74, 67
2, 161948, Note_off_c, 0, 74, 0
2, 161952, Note_on_c, 0, 73, 67
2, 162044, Note_off_c, 0, 73, 0
2, 162048, Note_on_c, 0, 76, 67
2, 162140, Note_off_c, 0, 76, 0
2, 162144, Note_on_c, 0, 74, 67
2, 162236, Note_off_c, 0, 74, 0
2, 162240, Note_on_c, 0, 72, 67
2, 162332, Note_off_c, 0, 72, 0
2, 162336, Note_on_c, 0, 71, 67
2, 162428, Note_off_c, 0, 71, 0
2, 162432, Note_on_c, 0, 69, 67
2, 162524, Note_off_c, 0, 69, 0
2, 162528, Note_on_c, 0, 68, 67
2, 162620, Note_off_c, 0, 68, 0
2, 162624, Note_on_c, 0, 69, 67
2, 162716, Note_off_c, 0, 69, 0
2, 162720, Note_on_c, 0, 72, 67
2, 162812, Note_off_c, 0, 72, 0
2, 162816, Note_on_c, 0, 71, 67
2, 162908, Note_off_c, 0, 71, 0
2, 162912, Note_on_c, 0, 74, 67
2, 163004, Note_off_c, 0, 74, 0
2, 163008, Note_on_c, 0, 72, 67
2, 163100, Note_off_c, 0, 72, 0
2, 163104, Note_on_c, 0, 71, 67
2, 163196, Note_off_c, 0, 71, 0
2, 163200, Note_on_c, 0, 72, 67
2, 163292, Note_off_c, 0, 72, 0
2, 163296, Note_on_c, 0, 76, 67
2, 163388, Note_off_c, 0, 76, 0
2, 163392, Note_on_c, 0, 74, 67
2, 163484, Note_off_c, 0, 74, 0
2, 163488, Note_on_c, 0, 77, 67
2, 163580, Note_off_c, 0, 77, 0
2, 163584, Note_on_c, 0, 76, 67
2, 163676, Note_off_c, 0, 76, 0
2, 163680, Note_on_c, 0, 75, 67
2, 163772, Note_off_c, 0, 75, 0
2, 163776, Note_on_c, 0, 76, 67
2, 163868, Note_off_c, 0, 76, 0
2, 163872, Note_on_c, 0, 64, 67
2, 163964, Note_off_c, 0, 64, 0
2, 163968, Note_on_c, 0, 66, 67
2, 164060, Note_off_c, 0, 66, 0
2, 164064, Note_on_c, 0, 68, 67
2, 164156, Note_off_c, 0, 68, 0
2, 164160, Note_on_c, 0, 69, 67
2, 164252, Note_off_c, 0, 69, 0
2, 164256, Note_on_c, 0, 68, 67
2, 164348, Note_off_c, 0, 68, 0
2, 164352, Note_on_c, 0, 69, 67
2, 164444, Note_off_c, 0, 69, 0
2, 164448, Note_on_c, 0, 64, 67
2, 164540, Note_off_c, 0, 64, 0
2, 164544, Note_on_c, 0, 60, 67
2, 164636, Note_off_c, 0, 60, 0
2, 164640, Note_on_c, 0, 64, 67
2, 164732, Note_off_c, 0, 64, 0
2, 164736, Note_on_c, 0, 81, 90
2, 164736, Note_on_c, 0, 69, 90
2, 164828, Note_off_c, 0, 81, 0
2, 164828, Note_off_c, 0, 69, 0
2, 164832, Note_on_c, 0, 80, 90
2, 164832, Note_on_c, 0, 68, 90
2, 164924, Note_off_c, 0, 80, 0
2, 164924, Note_off_c, 0, 68, 0
2, 164928, Note_on_c, 0, 81, 90
2, 164928, Note_on_c, 0, 69, 90
2, 165020, Note_off_c, 0, 81, 0
2, 165020, Note_off_c, 0, 69, 0
2, 165024, Note_on_c, 0, 84, 90
2, 165024, Note_on_c, 0, 72, 90
2, 165116, Note_off_c, 0, 84, 0
2, 165116, Note_off_c, 0, 72, 0
2, 165120, Note_on_c, 0, 83, 90
2, 165120, Note_on_c, 0, 71, 90
2, 165212, Note_off_c, 0, 83, 0
2, 165212, Note_off_c, 0, 71, 0
2, 165216, Note_on_c, 0, 86, 90
2, 165216, Note_on_c, 0, 74, 90
2, 165308, Note_off_c, 0, 86, 0
2, 165308, Note_off_c, 0, 74, 0
2, 165312, Note_on_c, 0, 84, 90
2, 165312, Note_on_c, 0, 72, 90
2, 165404, Note_off_c, 0, 84, 0
2, 165404, Note_off_c, 0, 72, 0
2, 165408, Note_on_c, 0, 83, 90
2, 165408, Note_on_c, 0, 71, 90
2, 165500, Note_off_c, 0, 83, 0
2, 165500, Note_off_c, 0, 71, 0
2, 165504, Note_on_c, 0, 84, 90
2, 165504, Note_on_c, 0, 72, 90
2, 165596, Note_off_c, 0, 84, 0
2, 165596, Note_off_c, 0, 72, 0
2, 165600, Note_on_c, 0, 88, 90
2, 165600, Note_on_c, 0, 76, 90
2, 165692, Note_off_c, 0, 88, 0
2, 165692, Note_off_c, 0, 76, 0
2, 165696, Note_on_c, 0, 86, 90
2, 165696, Note_on_c, 0, 74, 90
2, 165788, Note_off_c, 0, 86, 0
2, 165788, Note_off_c, 0, 74, 0
2, 165792, Note_on_c, 0, 89, 90
2, 165792, Note_on_c, 0, 77, 90
2, 165884, Note_off_c, 0, 89, 0
2, 165884, Note_off_c, 0, 77, 0
2, 165888, Note_on_c, 0, 88, 90
2, 165888, Note_on_c, 0, 76, 90
2, 165980, Note_off_c, 0, 88, 0
2, 165980, Note_off_c, 0, 76, 0
2, 165984, Note_on_c, 0, 87, 90
2, 165984, Note_on_c, 0, 75, 90
2, 166076, Note_off_c, 0, 87, 0
2, 166076, Note_off_c, 0, 75, 0
2, 166080, Note_on_c, 0, 76, 90
2, 166080, Note_on_c, 0, 88, 90
2, 166172, Note_off_c, 0, 76, 0
2, 166172, Note_off_c, 0, 88, 0
2, 166176, Note_on_c, 0, 76, 90
2, 166176, Note_on_c, 0, 64, 90
2, 166268, Note_off_c, 0, 76, 0
2, 166268, Note_off_c, 0, 64, 0
2, 166272, Note_on_c, 0, 78, 90
2, 166272, Note_on_c, 0, 66, 90
2, 166364, Note_off_c, 0, 78, 0
2, 166364, Note_off_c, 0, 66, 0
2, 166368, Note_on_c, 0, 80, 90
2, 166368, Note_on_c, 0, 68, 90
2, 166460, Note_off_c, 0, 80, 0
2, 166460, Note_off_c, 0, 68, 0
2, 166464, Note_on_c, 0, 81, 90
2, 166464, Note_on_c, 0, 69, 90
2, 166844, Note_off_c, 0, 81, 0
2, 166844, Note_off_c, 0, 69, 0
2, 167040, Key_signature, 3, "major"
2, 167040, Note_on_c, 0, 73, 67
2, 167040, Note_on_c, 0, 69, 67
2, 167132, Note_off_c, 0, 73, 0
2, 167132, Note_off_c, 0, 69, 0
2, 167136, Note_on_c, 0, 64, 67
2, 167228, Note_off_c, 0, 64, 0
2, 167232, Note_on_c, 0, 73, 67
2, 167232, Note_on_c, 0, 69, 67
2, 167232, Note_on_c, 0, 81, 67
2, 167232, Note_on_c, 0, 85, 67
2, 167324, Note_off_c, 0, 73, 0
2, 167324, Note_off_c, 0, 69, 0
2, 167328, Note_on_c, 0, 64, 67
2, 167420, Note_off_c, 0, 81, 0
2, 167420, Note_off_c, 0, 85, 0
2, 167420, Note_off_c, 0, 64, 0
2, 167424, Note_on_c, 0, 74, 67
2, 167424, Note_on_c, 0, 71, 67
2, 167424, Note_on_c, 0, 83, 67
2, 167424, Note_on_c, 0, 86, 67
2, 167516, Note_off_c, 0, 74, 0
2, 167516, Note_off_c, 0, 71, 0
2, 167520, Note_on_c, 0, 64, 67
2, 167612, Note_off_c, 0, 83, 0
2, 167612, Note_off_c, 0, 86, 0
2, 167612, Note_off_c, 0, 64, 0
2, 167616, Note_on_c, 0, 76, 67
2, 167616, Note_on_c, 0, 73, 67
2, 167616, Note_on_c, 0, 85, 67
2, 167616, Note_on_c, 0, 88, 67
2, 167708, Note_off_c, 0, 76, 0
2, 167708, Note_off_c, 0, 73, 0
2, 167712, Note_on_c, 0, 64, 67
2, 167804, Note_off_c, 0, 85, 0
2, 167804, Note_off_c, 0, 88, 0
2, 167804, Note_off_c, 0, 64, 0
2, 167808, Note_on_c, 0, 74, 67
2, 167808, Note_on_c, 0, 71, 67
2, 167808, Note_on_c, 0, 83, 67
2, 167808, Note_on_c, 0, 86, 67
2, 167900, Note_off_c, 0, 74, 0
2, 167900, Note_off_c, 0, 71, 0
2, 167904, Note_on_c, 0, 64, 67
2, 167996, Note_off_c, 0, 83, 0
2, 167996, Note_off_c, 0, 86, 0
2, 167996, Note_off_c, 0, 64, 0
2, 168000, Note_on_c, 0, 73, 67
2, 168000, Note_on_c, 0, 69, 67
2, 168000, Note_on_c, 0, 81, 67
2, 168000, Note_on_c, 0, 85, 67
2, 168092, Note_off_c, 0, 73, 0
2, 168092, Note_off_c, 0, 69, 0
2, 168096, Note_on_c, 0, 64, 67
2, 168188, Note_off_c, 0, 81, 0
2, 168188, Note_off_c, 0, 85, 0
2, 168188, Note_off_c, 0, 64, 0
2, 168192, Note_on_c, 0, 71, 67
2, 168192, Note_on_c, 0, 68, 67
2, 168284, Note_off_c, 0, 71, 0
2, 168284, Note_off_c, 0, 68, 0
2, 168288, Note_on_c, 0, 64, 67
2, 168380, Note_off_c, 0, 64, 0
2, 168384, Note_on_c, 0, 71, 67
2, 168384, Note_on_c, 0, 68, 67
2, 168384, Note_on_c, 0, 80, 67
2, 168384, Note_on_c, 0, 83, 67
2, 168476, Note_off_c, 0, 71, 0
2, 168476, Note_off_c, 0, 68, 0
2, 168480, Note_on_c, 0, 64, 67
2, 168572, Note_off_c, 0, 80, 0
2, 168572, Note_off_c, 0, 83, 0
2, 168572, Note_off_c, 0, 64, 0
2, 168576, Note_on_c, 0, 73, 67
2, 168576, Note_on_c, 0, 69, 67
2, 168576, Note_on_c, 0, 81, 67
2, 168576, Note_on_c, 0, 85, 67
2, 168668, Note_off_c, 0, 73, 0
2, 168668, Note_off_c, 0, 69, 0
2, 168672, Note_on_c, 0, 64, 67
2, 168764, Note_off_c, 0, 81, 0
2, 168764, Note_off_c, 0, 85, 0
2, 168764, Note_off_c, 0, 64, 0
2, 168768, Note_on_c, 0, 74, 67
2, 168768, Note_on_c, 0, 71, 67
2, 168768, Note_on_c, 0, 83, 67
2, 168768, Note_on_c, 0, 86, 67
2, 168860, Note_off_c, 0, 74, 0
2, 168860, Note_off_c, 0, 71, 0
2, 168864, Note_on_c, 0, 64, 67
2, 168956, Note_off_c, 0, 83, 0
2, 168956, Note_off_c, 0, 86, 0
2, 168956, Note_off_c, 0, 64, 0
2, 168960, Note_on_c, 0, 73, 67
2, 168960, Note_on_c, 0, 69, 67
2, 168960, Note_on_c, 0, 81, 67
2, 168960, Note_on_c, 0, 85, 67
2, 169052, Note_off_c, 0, 73, 0
2, 169052, Note_off_c, 0, 69, 0
2, 169056, Note_on_c, 0, 64, 67
2, 169148, Note_off_c, 0, 81, 0
2, 169148, Note_off_c, 0, 85, 0
2, 169148, Note_off_c, 0, 64, 0
2, 169152, Note_on_c, 0, 71, 67
2, 169152, Note_on_c, 0, 68, 67
2, 169152, Note_on_c, 0, 80, 67
2, 169152, Note_on_c, 0, 83, 67
2, 169244, Note_off_c, 0, 71, 0
2, 169244, Note_off_c, 0, 68, 0
2, 169248, Note_on_c, 0, 64, 67
2, 169340, Note_off_c, 0, 80, 0
2, 169340, Note_off_c, 0, 83, 0
2, 169340, Note_off_c, 0, 64, 0
2, 169344, Note_on_c, 0, 69, 67
2, 169344, Note_on_c, 0, 64, 67
2, 169436, Note_off_c, 0, 69, 0
2, 169436, Note_off_c, 0, 64, 0
2, 169440, Note_on_c, 0, 61, 67
2, 169532, Note_off_c, 0, 61, 0
2, 169536, Note_on_c, 0, 64, 67
2, 169536, Note_on_c, 0, 69, 67
2, 169536, Note_on_c, 0, 81, 67
2, 169628, Note_off_c, 0, 64, 0
2, 169628, Note_off_c, 0, 69, 0
2, 169632, Note_on_c, 0, 61, 67
2, 169724, Note_off_c, 0, 81, 0
2, 169724, Note_off_c, 0, 61, 0
2, 169728, Note_on_c, 0, 69, 67
2, 169728, Note_on_c, 0, 64, 67
2, 169820, Note_off_c, 0, 69, 0
2, 169820, Note_off_c, 0, 64, 0
2, 169824, Note_on_c, 0, 61, 67
2, 169916, Note_off_c, 0, 61, 0
2, 169920, Note_on_c, 0, 71, 67
2, 169920, Note_on_c, 0, 68, 67
2, 170012, Note_off_c, 0, 71, 0
2, 170012, Note_off_c, 0, 68, 0
2, 170016, Note_on_c, 0, 64, 67
2, 170108, Note_off_c, 0, 64, 0
2, 170112, Note_on_c, 0, 71, 67
2, 170112, Note_on_c, 0, 68, 67
2, 170112, Note_on_c, 0, 83, 67
2, 170204, Note_off_c, 0, 71, 0
2, 170204, Note_off_c, 0, 68, 0
2, 170208, Note_on_c, 0, 64, 67
2, 170300, Note_off_c, 0, 83, 0
2, 170300, Note_off_c, 0, 64, 0
2, 170304, Note_on_c, 0, 71, 67
2, 170304, Note_on_c, 0, 68, 67
2, 170396, Note_off_c, 0, 71, 0
2, 170396, Note_off_c, 0, 68, 0
2, 170400, Note_on_c, 0, 64, 67
2, 170492, Note_off_c, 0, 64, 0
2, 170496, Note_on_c, 0, 73, 67
2, 170496, Note_on_c, 0, 69, 67
2, 170496, Note_on_c, 0, 81, 67
2, 170496, Note_on_c, 0, 85, 67
2, 170588, Note_off_c, 0, 73, 0
2, 170588, Note_off_c, 0, 69, 0
2, 170592, Note_on_c, 0, 64, 67
2, 170684, Note_off_c, 0, 81, 0
2, 170684, Note_off_c, 0, 85, 0
2, 170684, Note_off_c, 0, 64, 0
2, 170688, Note_on_c, 0, 74, 67
2, 170688, Note_on_c, 0, 71, 67
2, 170688, Note_on_c, 0, 83, 67
2, 170688, Note_on_c, 0, 86, 67
2, 170780, Note_off_c, 0, 74, 0
2, 170780, Note_off_c, 0, 71, 0
2, 170784, Note_on_c, 0, 64, 67
2, 170876, Note_off_c, 0, 83, 0
2, 170876, Note_off_c, 0, 86, 0
2, 170876, Note_off_c, 0, 64, 0
2, 170880, Note_on_c, 0, 73, 67
2, 170880, Note_on_c, 0, 69, 67
2, 170880, Note_on_c, 0, 81, 67
2, 170880, Note_on_c, 0, 85, 67
2, 170972, Note_off_c, 0, 73, 0
2, 170972, Note_off_c, 0, 69, 0
2, 170976, Note_on_c, 0, 64, 67
2, 171068, Note_off_c, 0, 81, 0
2, 171068, Note_off_c, 0, 85, 0
2, 171068, Note_off_c, 0, 64, 0
2, 171072, Note_on_c, 0, 71, 67
2, 171072, Note_on_c, 0, 68, 67
2, 171072, Note_on_c, 0, 80, 67
2, 171072, Note_on_c, 0, 83, 67
2, 171164, Note_off_c, 0, 71, 0
2, 171164, Note_off_c, 0, 68, 0
2, 171168, Note_on_c, 0, 64, 67
2, 171260, Note_off_c, 0, 80, 0
2, 171260, Note_off_c, 0, 83, 0
2, 171260, Note_off_c, 0, 64, 0
2, 171264, Note_on_c, 0, 75, 67
2, 171356, Note_off_c, 0, 75, 0
2, 171360, Note_on_c, 0, 76, 67
2, 171452, Note_off_c, 0, 76, 0
2, 171456, Note_on_c, 0, 75, 67
2, 171548, Note_off_c, 0, 75, 0
2, 171552, Note_on_c, 0, 76, 67
2, 171644, Note_off_c, 0, 76, 0
2, 171648, Note_on_c, 0, 73, 90
2, 171648, Note_on_c, 0, 69, 90
2, 171740, Note_off_c, 0, 73, 0
2, 171740, Note_off_c, 0, 69, 0
2, 171744, Note_on_c, 0, 64, 90
2, 171836, Note_off_c, 0, 64, 0
2, 171840, Note_on_c, 0, 73, 90
2, 171840, Note_on_c, 0, 69, 90
2, 171840, Note_on_c, 0, 81, 90
2, 171840, Note_on_c, 0, 85, 90
2, 171932, Note_off_c, 0, 73, 0
2, 171932, Note_off_c, 0, 69, 0
2, 171936, Note_on_c, 0, 64, 90
2, 172028, Note_off_c, 0, 81, 0
2, 172028, Note_off_c, 0, 85, 0
2, 172028, Note_off_c, 0, 64, 0
2, 172032, Note_on_c, 0, 74, 90
2, 172032, Note_on_c, 0, 71, 90
2, 172032, Note_on_c, 0, 83, 90
2, 172032, Note_on_c, 0, 86, 90
2, 172124, Note_off_c, 0, 74, 0
2, 172124, Note_off_c, 0, 71, 0
2, 172128, Note_on_c, 0, 64, 90
2, 172220, Note_off_c, 0, 83, 0
2, 172220, Note_off_c, 0, 86, 0
2, 172220, Note_off_c, 0, 64, 0
2, 172224, Note_on_c, 0, 76, 90
2, 172224, Note_on_c, 0, 73, 90
2, 172224, Note_on_c, 0, 85, 90
2, 172224, Note_on_c, 0, 88, 90
2, 172316, Note_off_c, 0, 76, 0
2, 172316, Note_off_c, 0, 73, 0
2, 172320, Note_on_c, 0, 64, 90
2, 172412, Note_off_c, 0, 85, 0
2, 172412, Note_off_c, 0, 88, 0
2, 172412, Note_off_c, 0, 64, 0
2, 172416, Note_on_c, 0, 74, 90
2, 172416, Note_on_c, 0, 71, 90
2, 172416, Note_on_c, 0, 83, 90
2, 172416, Note_on_c, 0, 86, 90
2, 172508, Note_off_c, 0, 74, 0
2, 172508, Note_off_c, 0, 71, 0
2, 172512, Note_on_c, 0, 64, 90
2, 172604, Note_off_c, 0, 83, 0
2, 172604, Note_off_c, 0, 86, 0
2, 172604, Note_off_c, 0, 64, 0
2, 172608, Note_on_c, 0, 73, 90
2, 172608, Note_on_c, 0, 69, 90
2, 172608, Note_on_c, 0, 81, 90
2, 172608, Note_on_c, 0, 85, 90
2, 172700, Note_off_c, 0, 73, 0
2, 172700, Note_off_c, 0, 69, 0
2, 172704, Note_on_c, 0, 64, 90
2, 172796, Note_off_c, 0, 81, 0
2, 172796, Note_off_c, 0, 85, 0
2, 172796, Note_off_c, 0, 64, 0
2, 172800, Note_on_c, 0, 71, 90
2, 172800, Note_on_c, 0, 68, 90
2, 172892, Note_off_c, 0, 71, 0
2, 172892, Note_off_c, 0, 68, 0
2, 172896, Note_on_c, 0, 64, 90
2, 172988, Note_off_c, 0, 64, 0
2, 172992, Note_on_c, 0, 71, 90
2, 172992, Note_on_c, 0, 68, 90
2, 172992, Note_on_c, 0, 80, 90
2, 172992, Note_on_c, 0, 83, 90
2, 173084, Note_off_c, 0, 71, 0
2, 173084, Note_off_c, 0, 68, 0
2, 173088, Note_on_c, 0, 64, 90
2, 173180, Note_off_c, 0, 80, 0
2, 173180, Note_off_c, 0, 83, 0
2, 173180, Note_off_c, 0, 64, 0
2, 173184, Note_on_c, 0, 73, 90
2, 173184, Note_on_c, 0, 69, 90
2, 173184, Note_on_c, 0, 81, 90
2, 173184, Note_on_c, 0, 85, 90
2, 173276, Note_off_c, 0, 73, 0
2, 173276, Note_off_c, 0, 69, 0
2, 173280, Note_on_c, 0, 64, 90
2, 173372, Note_off_c, 0, 81, 0
2, 173372, Note_off_c, 0, 85, 0
2, 173372, Note_off_c, 0, 64, 0
2, 173376, Note_on_c, 0, 74, 90
2, 173376, Note_on_c, 0, 71, 90
2, 173376, Note_on_c, 0, 83, 90
2, 173376, Note_on_c, 0, 86, 90
2, 173468, Note_off_c, 0, 74, 0
2, 173468, Note_off_c, 0, 71, 0
2, 173472, Note_on_c, 0, 64, 90
2, 173564, Note_off_c, 0, 83, 0
2, 173564, Note_off_c, 0, 86, 0
2, 173564, Note_off_c, 0, 64, 0
2, 173568, Note_on_c, 0, 73, 90
2, 173568, Note_on_c, 0, 69, 90
2, 173568, Note_on_c, 0, 81, 90
2, 173568, Note_on_c, 0, 85, 90
2, 173660, Note_off_c, 0, 73, 0
2, 173660, Note_off_c, 0, 69, 0
2, 173664, Note_on_c, 0, 64, 90
2, 173756, Note_off_c, 0, 81, 0
2, 173756, Note_off_c, 0, 85, 0
2, 173756, Note_off_c, 0, 64, 0
2, 173760, Note_on_c, 0, 71, 90
2, 173760, Note_on_c, 0, 68, 90
2, 173760, Note_on_c, 0, 80, 90
2, 173760, Note_on_c, 0, 83, 90
2, 173852, Note_off_c, 0, 71, 0
2, 173852, Note_off_c, 0, 68, 0
2, 173856, Note_on_c, 0, 64, 90
2, 173948, Note_off_c, 0, 80, 0
2, 173948, Note_off_c, 0, 83, 0
2, 173948, Note_off_c, 0, 64, 0
2, 173952, Note_on_c, 0, 69, 90
2, 173952, Note_on_c, 0, 64, 90
2, 174044, Note_off_c, 0, 69, 0
2, 174044, Note_off_c, 0, 64, 0
2, 174048, Note_on_c, 0, 61, 90
2, 174140, Note_off_c, 0, 61, 0
2, 174144, Note_on_c, 0, 69, 90
2, 174144, Note_on_c, 0, 64, 90
2, 174144, Note_on_c, 0, 81, 90
2, 174144, Note_on_c, 0, 73, 90
2, 174236, Note_off_c, 0, 69, 0
2, 174236, Note_off_c, 0, 64, 0
2, 174240, Note_on_c, 0, 61, 90
2, 174332, Note_off_c, 0, 81, 0
2, 174332, Note_off_c, 0, 73, 0
2, 174332, Note_off_c, 0, 61, 0
2, 174336, Note_on_c, 0, 71, 90
2, 174336, Note_on_c, 0, 68, 90
2, 174336, Note_on_c, 0, 83, 90
2, 174336, Note_on_c, 0, 76, 90
2, 174428, Note_off_c, 0, 71, 0
2, 174428, Note_off_c, 0, 68, 0
2, 174432, Note_on_c, 0, 64, 90
2, 174524, Note_off_c, 0, 83, 0
2, 174524, Note_off_c, 0, 76, 0
2, 174524, Note_off_c, 0, 64, 0
2, 174528, Note_on_c, 0, 73, 90
2, 174528, Note_on_c, 0, 69, 90
2, 174528, Note_on_c, 0, 81, 90
2, 174528, Note_on_c, 0, 85, 90
2, 174620, Note_off_c, 0, 73, 0
2, 174620, Note_off_c, 0, 69, 0
2, 174624, Note_on_c, 0, 64, 90
2, 174716, Note_off_c, 0, 81, 0
2, 174716, Note_off_c, 0, 85, 0
2, 174716, Note_off_c, 0, 64, 0
2, 174720, Note_on_c, 0, 73, 90
2, 174720, Note_on_c, 0, 69, 90
2, 174812, Note_off_c, 0, 73, 0
2, 174812, Note_off_c, 0, 69, 0
2, 174816, Note_on_c, 0, 64, 90
2, 174908, Note_off_c, 0, 64, 0
2, 174912, Note_on_c, 0, 74, 90
2, 174912, Note_on_c, 0, 71, 90
2, 175004, Note_off_c, 0, 74, 0
2, 175004, Note_off_c, 0, 71, 0
2, 175008, Note_on_c, 0, 64, 90
2, 175100, Note_off_c, 0, 64, 0
2, 175104, Note_on_c, 0, 73, 90
2, 175104, Note_on_c, 0, 69, 90
2, 175196, Note_off_c, 0, 73, 0
2, 175196, Note_off_c, 0, 69, 0
2, 175200, Note_on_c, 0, 64, 90
2, 175292, Note_off_c, 0, 64, 0
2, 175296, Note_on_c, 0, 73, 90
2, 175296, Note_on_c, 0, 69, 90
2, 175296, Note_on_c, 0, 81, 90
2, 175296, Note_on_c, 0, 85, 90
2, 175388, Note_off_c, 0, 73, 0
2, 175388, Note_off_c, 0, 69, 0
2, 175392, Note_on_c, 0, 64, 90
2, 175484, Note_off_c, 0, 81, 0
2, 175484, Note_off_c, 0, 85, 0
2, 175484, Note_off_c, 0, 64, 0
2, 175488, Note_on_c, 0, 71, 90
2, 175488, Note_on_c, 0, 68, 90
2, 175488, Note_on_c, 0, 80, 90
2, 175488, Note_on_c, 0, 83, 90
2, 175580, Note_off_c, 0, 71, 0
2, 175580, Note_off_c, 0, 68, 0
2, 175584, Note_on_c, 0, 64, 90
2, 175676, Note_off_c, 0, 80, 0
2, 175676, Note_off_c, 0, 83, 0
2, 175676, Note_off_c, 0, 64, 0
2, 175680, Note_on_c, 0, 69, 90
2, 175680, Note_on_c, 0, 81, 90
2, 175772, Note_off_c, 0, 69, 0
2, 175776, Note_on_c, 0, 64, 90
2, 175868, Note_off_c, 0, 81, 0
2, 175868, Note_off_c, 0, 64, 0
2, 175872, Note_on_c, 0, 61, 90
2, 175964, Note_off_c, 0, 61, 0
2, 175968, Note_on_c, 0, 64, 90
2, 176060, Note_off_c, 0, 64, 0
2, 176064, Note_on_c, 0, 69, 90
2, 176252, Note_off_c, 0, 69, 0
2, 176256, Note_on_c, 0, 73, 67
2, 176256, Note_on_c, 0, 69, 67
2, 176348, Note_off_c, 0, 73, 0
2, 176348, Note_off_c, 0, 69, 0
2, 176352, Note_on_c, 0, 64, 67
2, 176444, Note_off_c, 0, 64, 0
2, 176448, Note_on_c, 0, 73, 67
2, 176448, Note_on_c, 0, 69, 67
2, 176448, Note_on_c, 0, 81, 67
2, 176448, Note_on_c, 0, 85, 67
2, 176540, Note_off_c, 0, 73, 0
2, 176540, Note_off_c, 0, 69, 0
2, 176544, Note_on_c, 0, 64, 67
2, 176636, Note_off_c, 0, 81, 0
2, 176636, Note_off_c, 0, 85, 0
2, 176636, Note_off_c, 0, 64, 0
2, 176640, Note_on_c, 0, 74, 67
2, 176640, Note_on_c, 0, 71, 67
2, 176640, Note_on_c, 0, 83, 67
2, 176640, Note_on_c, 0, 86, 67
2, 176732, Note_off_c, 0, 74, 0
2, 176732, Note_off_c, 0, 71, 0
2, 176736, Note_on_c, 0, 64, 67
2, 176828, Note_off_c, 0, 83, 0
2, 176828, Note_off_c, 0, 86, 0
2, 176828, Note_off_c, 0, 64, 0
2, 176832, Note_on_c, 0, 76, 67
2, 176832, Note_on_c, 0, 73, 67
2, 176832, Note_on_c, 0, 85, 67
2, 176832, Note_on_c, 0, 88, 67
2, 176924, Note_off_c, 0, 76, 0
2, 176924, Note_off_c, 0, 73, 0
2, 176928, Note_on_c, 0, 64, 67
2, 177020, Note_off_c, 0, 85, 0
2, 177020, Note_off_c, 0, 88, 0
2, 177020, Note_off_c, 0, 64, 0
2, 177024, Note_on_c, 0, 74, 67
2, 177024, Note_on_c, 0, 71, 67
2, 177024, Note_on_c, 0, 83, 67
2, 177024, Note_on_c, 0, 86, 67
2, 177116, Note_off_c, 0, 74, 0
2, 177116, Note_off_c, 0, 71, 0
2, 177120, Note_on_c, 0, 64, 67
2, 177212, Note_off_c, 0, 83, 0
2, 177212, Note_off_c, 0, 86, 0
2, 177212, Note_off_c, 0, 64, 0
2, 177216, Note_on_c, 0, 73, 67
2, 177216, Note_on_c, 0, 69, 67
2, 177216, Note_on_c, 0, 81, 67
2, 177216, Note_on_c, 0, 85, 67
2, 177308, Note_off_c, 0, 73, 0
2, 177308, Note_off_c, 0, 69, 0
2, 177312, Note_on_c, 0, 64, 67
2, 177404, Note_off_c, 0, 81, 0
2, 177404, Note_off_c, 0, 85, 0
2, 177404, Note_off_c, 0, 64, 0
2, 177408, Note_on_c, 0, 71, 67
2, 177408, Note_on_c, 0, 68, 67
2, 177500, Note_off_c, 0, 71, 0
2, 177500, Note_off_c, 0, 68, 0
2, 177504, Note_on_c, 0, 64, 67
2, 177596, Note_off_c, 0, 64, 0
2, 177600, Note_on_c, 0, 71, 67
2, 177600, Note_on_c, 0, 68, 67
2, 177600, Note_on_c, 0, 80, 67
2, 177600, Note_on_c, 0, 83, 67
2, 177692, Note_off_c, 0, 71, 0
2, 177692, Note_off_c, 0, 68, 0
2, 177696, Note_on_c, 0, 64, 67
2, 177788, Note_off_c, 0, 80, 0
2, 177788, Note_off_c, 0, 83, 0
2, 177788, Note_off_c, 0, 64, 0
2, 177792, Note_on_c, 0, 73, 67
2, 177792, Note_on_c, 0, 69, 67
2, 177792, Note_on_c, 0, 81, 67
2, 177792, Note_on_c, 0, 85, 67
2, 177884, Note_off_c, 0, 73, 0
2, 177884, Note_off_c, 0, 69, 0
2, 177888, Note_on_c, 0, 64, 67
2, 177980, Note_off_c, 0, 81, 0
2, 177980, Note_off_c, 0, 85, 0
2, 177980, Note_off_c, 0, 64, 0
2, 177984, Note_on_c, 0, 74, 67
2, 177984, Note_on_c, 0, 71, 67
2, 177984, Note_on_c, 0, 83, 67
2, 177984, Note_on_c, 0, 86, 67
2, 178076, Note_off_c, 0, 74, 0
2, 178076, Note_off_c, 0, 71, 0
2, 178080, Note_on_c, 0, 64, 67
2, 178172, Note_off_c, 0, 83, 0
2, 178172, Note_off_c, 0, 86, 0
2, 178172, Note_off_c, 0, 64, 0
2, 178176, Note_on_c, 0, 73, 67
2, 178176, Note_on_c, 0, 69, 67
2, 178176, Note_on_c, 0, 81, 67
2, 178176, Note_on_c, 0, 85, 67
2, 178268, Note_off_c, 0, 73, 0
2, 178268, Note_off_c, 0, 69, 0
2, 178272, Note_on_c, 0, 64, 67
2, 178364, Note_off_c, 0, 81, 0
2, 178364, Note_off_c, 0, 85, 0
2, 178364, Note_off_c, 0, 64, 0
2, 178368, Note_on_c, 0, 71, 67
2, 178368, Note_on_c, 0, 68, 67
2, 178368, Note_on_c, 0, 80, 67
2, 178368, Note_on_c, 0, 83, 67
2, 178460, Note_off_c, 0, 71, 0
2, 178460, Note_off_c, 0, 68, 0
2, 178464, Note_on_c, 0, 64, 67
2, 178556, Note_off_c, 0, 80, 0
2, 178556, Note_off_c, 0, 83, 0
2, 178556, Note_off_c, 0, 64, 0
2, 178560, Note_on_c, 0, 69, 67
2, 178560, Note_on_c, 0, 64, 67
2, 178652, Note_off_c, 0, 69, 0
2, 178652, Note_off_c, 0, 64, 0
2, 178656, Note_on_c, 0, 61, 67
2, 178748, Note_off_c, 0, 61, 0
2, 178752, Note_on_c, 0, 64, 67
2, 178752, Note_on_c, 0, 69, 67
2, 178752, Note_on_c, 0, 81, 67
2, 178844, Note_off_c, 0, 64, 0
2, 178844, Note_off_c, 0, 69, 0
2, 178848, Note_on_c, 0, 61, 67
2, 178940, Note_off_c, 0, 81, 0
2, 178940, Note_off_c, 0, 61, 0
2, 178944, Note_on_c, 0, 69, 67
2, 178944, Note_on_c, 0, 64, 67
2, 179036, Note_off_c, 0, 69, 0
2, 179036, Note_off_c, 0, 64, 0
2, 179040, Note_on_c, 0, 61, 67
2, 179132, Note_off_c, 0, 61, 0
2, 179136, Note_on_c, 0, 71, 67
2, 179136, Note_on_c, 0, 68, 67
2, 179228, Note_off_c, 0, 71, 0
2, 179228, Note_off_c, 0, 68, 0
2, 179232, Note_on_c, 0, 64, 67
2, 179324, Note_off_c, 0, 64, 0
2, 179328, Note_on_c, 0, 71, 67
2, 179328, Note_on_c, 0, 68, 67
2, 179328, Note_on_c, 0, 83, 67
2, 179420, Note_off_c, 0, 71, 0
2, 179420, Note_off_c, 0, 68, 0
2, 179424, Note_on_c, 0, 64, 67
2, 179516, Note_off_c, 0, 83, 0
2, 179516, Note_off_c, 0, 64, 0
2, 179520, Note_on_c, 0, 71, 67
2, 179520, Note_on_c, 0, 68, 67
2, 179612, Note_off_c, 0, 71, 0
2, 179612, Note_off_c, 0, 68, 0
2, 179616, Note_on_c, 0, 64, 67
2, 179708, Note_off_c, 0, 64, 0
2, 179712, Note_on_c, 0, 73, 67
2, 179712, Note_on_c, 0, 69, 67
2, 179712, Note_on_c, 0, 81, 67
2, 179712, Note_on_c, 0, 85, 67
2, 179804, Note_off_c, 0, 73, 0
2, 179804, Note_off_c, 0, 69, 0
2, 179808, Note_on_c, 0, 64, 67
2, 179900, Note_off_c, 0, 81, 0
2, 179900, Note_off_c, 0, 85, 0
2, 179900, Note_off_c, 0, 64, 0
2, 179904, Note_on_c, 0, 74, 67
2, 179904, Note_on_c, 0, 71, 67
2, 179904, Note_on_c, 0, 83, 67
2, 179904, Note_on_c, 0, 86, 67
2, 179996, Note_off_c, 0, 74, 0
2, 179996, Note_off_c, 0, 71, 0
2, 180000, Note_on_c, 0, 64, 67
2, 180092, Note_off_c, 0, 83, 0
2, 180092, Note_off_c, 0, 86, 0
2, 180092, Note_off_c, 0, 64, 0
2, 180096, Note_on_c, 0, 73, 67
2, 180096, Note_on_c, 0, 69, 67
2, 180096, Note_on_c, 0, 81, 67
2, 180096, Note_on_c, 0, 85, 67
2, 180188, Note_off_c, 0, 73, 0
2, 180188, Note_off_c, 0, 69, 0
2, 180192, Note_on_c, 0, 64, 67
2, 180284, Note_off_c, 0, 81, 0
2, 180284, Note_off_c, 0, 85, 0
2, 180284, Note_off_c, 0, 64, 0
2, 180288, Note_on_c, 0, 71, 67
2, 180288, Note_on_c, 0, 68, 67
2, 180288, Note_on_c, 0, 80, 67
2, 180288, Note_on_c, 0, 83, 67
2, 180380, Note_off_c, 0, 71, 0
2, 180380, Note_off_c, 0, 68, 0
2, 180384, Note_on_c, 0, 64, 67
2, 180476, Note_off_c, 0, 80, 0
2, 180476, Note_off_c, 0, 83, 0
2, 180476, Note_off_c, 0, 64, 0
2, 180480, Note_on_c, 0, 75, 67
2, 180572, Note_off_c, 0, 75, 0
2, 180576, Note_on_c, 0, 76, 67
2, 180668, Note_off_c, 0, 76, 0
2, 180672, Note_on_c, 0, 75, 67
2, 180764, Note_off_c, 0, 75, 0
2, 180768, Note_on_c, 0, 76, 67
2, 180860, Note_off_c, 0, 76, 0
2, 180864, Note_on_c, 0, 73, 90
2, 180864, Note_on_c, 0, 69, 90
2, 180956, Note_off_c, 0, 73, 0
2, 180956, Note_off_c, 0, 69, 0
2, 180960, Note_on_c, 0, 64, 90
2, 181052, Note_off_c, 0, 64, 0
2, 181056, Note_on_c, 0, 73, 90
2, 181056, Note_on_c, 0, 69, 90
2, 181056, Note_on_c, 0, 81, 90
2, 181056, Note_on_c, 0, 85, 90
2, 181148, Note_off_c, 0, 73, 0
2, 181148, Note_off_c, 0, 69, 0
2, 181152, Note_on_c, 0, 64, 90
2, 181244, Note_off_c, 0, 81, 0
2, 181244, Note_off_c, 0, 85, 0
2, 181244, Note_off_c, 0, 64, 0
2, 181248, Note_on_c, 0, 74, 90
2, 181248, Note_on_c, 0, 71, 90
2, 181248, Note_on_c, 0, 83, 90
2, 181248, Note_on_c, 0, 86, 90
2, 181340, Note_off_c, 0, 74, 0
2, 181340, Note_off_c, 0, 71, 0
2, 181344, Note_on_c, 0, 64, 90
2, 181436, Note_off_c, 0, 83, 0
2, 181436, Note_off_c, 0, 86, 0
2, 181436, Note_off_c, 0, 64, 0
2, 181440, Note_on_c, 0, 76, 90
2, 181440, Note_on_c, 0, 73, 90
2, 181440, Note_on_c, 0, 85, 90
2, 181440, Note_on_c, 0, 88, 90
2, 181532, Note_off_c, 0, 76, 0
2, 181532, Note_off_c, 0, 73, 0
2, 181536, Note_on_c, 0, 64, 90
2, 181628, Note_off_c, 0, 85, 0
2, 181628, Note_off_c, 0, 88, 0
2, 181628, Note_off_c, 0, 64, 0
2, 181632, Note_on_c, 0, 74, 90
2, 181632, Note_on_c, 0, 71, 90
2, 181632, Note_on_c, 0, 83, 90
2, 181632, Note_on_c, 0, 86, 90
2, 181724, Note_off_c, 0, 74, 0
2, 181724, Note_off_c, 0, 71, 0
2, 181728, Note_on_c, 0, 64, 90
2, 181820, Note_off_c, 0, 83, 0
2, 181820, Note_off_c, 0, 86, 0
2, 181820, Note_off_c, 0, 64, 0
2, 181824, Note_on_c, 0, 73, 90
2, 181824, Note_on_c, 0, 69, 90
2, 181824, Note_on_c, 0, 81, 90
2, 181824, Note_on_c, 0, 85, 90
2, 181916, Note_off_c, 0, 73, 0
2, 181916, Note_off_c, 0, 69, 0
2, 181920, Note_on_c, 0, 64, 90
2, 182012, Note_off_c, 0, 81, 0
2, 182012, Note_off_c, 0, 85, 0
2, 182012, Note_off_c, 0, 64, 0
2, 182016, Note_on_c, 0, 71, 90
2, 182016, Note_on_c, 0, 68, 90
2, 182108, Note_off_c, 0, 71, 0
2, 182108, Note_off_c, 0, 68, 0
2, 182112, Note_on_c, 0, 64, 90
2, 182204, Note_off_c, 0, 64, 0
2, 182208, Note_on_c, 0, 71, 90
2, 182208, Note_on_c, 0, 68, 90
2, 182208, Note_on_c, 0, 80, 90
2, 182208, Note_on_c, 0, 83, 90
2, 182300, Note_off_c, 0, 71, 0
2, 182300, Note_off_c, 0, 68, 0
2, 182304, Note_on_c, 0, 64, 90
2, 182396, Note_off_c, 0, 80, 0
2, 182396, Note_off_c, 0, 83, 0
2, 182396, Note_off_c, 0, 64, 0
2, 182400, Note_on_c, 0, 73, 90
2, 182400, Note_on_c, 0, 69, 90
2, 182400, Note_on_c, 0, 81, 90
2, 182400, Note_on_c, 0, 85, 90
2, 182492, Note_off_c, 0, 73, 0
2, 182492, Note_off_c, 0, 69, 0
2, 182496, Note_on_c, 0, 64, 90
2, 182588, Note_off_c, 0, 81, 0
2, 182588, Note_off_c, 0, 85, 0
2, 182588, Note_off_c, 0, 64, 0
2, 182592, Note_on_c, 0, 74, 90
2, 182592, Note_on_c, 0, 71, 90
2, 182592, Note_on_c, 0, 83, 90
2, 182592, Note_on_c, 0, 86, 90
2, 182684, Note_off_c, 0, 74, 0
2, 182684, Note_off_c, 0, 71, 0
2, 182688, Note_on_c, 0, 64, 90
2, 182780, Note_off_c, 0, 83, 0
2, 182780, Note_off_c, 0, 86, 0
2, 182780, Note_off_c, 0, 64, 0
2, 182784, Note_on_c, 0, 73, 90
2, 182784, Note_on_c, 0, 69, 90
2, 182784, Note_on_c, 0, 81, 90
2, 182784, Note_on_c, 0, 85, 90
2, 182876, Note_off_c, 0, 73, 0
2, 182876, Note_off_c, 0, 69, 0
2, 182880, Note_on_c, 0, 64, 90
2, 182972, Note_off_c, 0, 81, 0
2, 182972, Note_off_c, 0, 85, 0
2, 182972, Note_off_c, 0, 64, 0
2, 182976, Note_on_c, 0, 71, 90
2, 182976, Note_on_c, 0, 68, 90
2, 182976, Note_on_c, 0, 80, 90
2, 182976, Note_on_c, 0, 83, 90
2, 183068, Note_off_c, 0, 71, 0
2, 183068, Note_off_c, 0, 68, 0
2, 183072, Note_on_c, 0, 64, 90
2, 183164, Note_off_c, 0, 80, 0
2, 183164, Note_off_c, 0, 83, 0
2, 183164, Note_off_c, 0, 64, 0
2, 183168, Note_on_c, 0, 69, 90
2, 183168, Note_on_c, 0, 64, 90
2, 183260, Note_off_c, 0, 69, 0
2, 183260, Note_off_c, 0, 64, 0
2, 183264, Note_on_c, 0, 61, 90
2, 183356, Note_off_c, 0, 61, 0
2, 183360, Note_on_c, 0, 69, 90
2, 183360, Note_on_c, 0, 64, 90
2, 183360, Note_on_c, 0, 81, 90
2, 183360, Note_on_c, 0, 73, 90
2, 183452, Note_off_c, 0, 69, 0
2, 183452, Note_off_c, 0, 64, 0
2, 183456, Note_on_c, 0, 61, 90
2, 183548, Note_off_c, 0, 81, 0
2, 183548, Note_off_c, 0, 73, 0
2, 183548, Note_off_c, 0, 61, 0
2, 183552, Note_on_c, 0, 71, 90
2, 183552, Note_on_c, 0, 68, 90
2, 183552, Note_on_c, 0, 83, 90
2, 183552, Note_on_c, 0, 76, 90
2, 183644, Note_off_c, 0, 71, 0
2, 183644, Note_off_c, 0, 68, 0
2, 183648, Note_on_c, 0, 64, 90
2, 183740, Note_off_c, 0, 83, 0
2, 183740, Note_off_c, 0, 76, 0
2, 183740, Note_off_c, 0, 64, 0
2, 183744, Note_on_c, 0, 73, 90
2, 183744, Note_on_c, 0, 81, 90
2, 183744, Note_on_c, 0, 85, 90
2, 183744, Note_on_c, 0, 69, 90
2, 183744, Note_on_c, 0, 85, 90
2, 183744, Note_on_c, 0, 81, 90
2, 183744, Note_on_c, 0, 73, 90
2, 183836, Note_off_c, 0, 73, 0
2, 183836, Note_off_c, 0, 69, 0
2, 183836, Note_off_c, 0, 73, 0
2, 183840, Note_on_c, 0, 64, 90
2, 183932, Note_off_c, 0, 81, 0
2, 183932, Note_off_c, 0, 85, 0
2, 183932, Note_off_c, 0, 85, 0
2, 183932, Note_off_c, 0, 81, 0
2, 183932, Note_off_c, 0, 64, 0
2, 183936, Note_on_c, 0, 73, 90
2, 183936, Note_on_c, 0, 69, 90
2, 184028, Note_off_c, 0, 73, 0
2, 184028, Note_off_c, 0, 69, 0
2, 184032, Note_on_c, 0, 64, 90
2, 184124, Note_off_c, 0, 64, 0
2, 184128, Note_on_c, 0, 74, 90
2, 184128, Note_on_c, 0, 71, 90
2, 184220, Note_off_c, 0, 74, 0
2, 184220, Note_off_c, 0, 71, 0
2, 184224, Note_on_c, 0, 64, 90
2, 184316, Note_off_c, 0, 64, 0
2, 184320, Note_on_c, 0, 73, 90
2, 184320, Note_on_c, 0, 69, 90
2, 184412, Note_off_c, 0, 73, 0
2, 184412, Note_off_c, 0, 69, 0
2, 184416, Note_on_c, 0, 64, 90
2, 184508, Note_off_c, 0, 64, 0
2, 184512, Note_on_c, 0, 73, 90
2, 184512, Note_on_c, 0, 69, 90
2, 184512, Note_on_c, 0, 81, 90
2, 184512, Note_on_c, 0, 85, 90
2, 184604, Note_off_c, 0, 73, 0
2, 184604, Note_off_c, 0, 69, 0
2, 184608, Note_on_c, 0, 64, 90
2, 184700, Note_off_c, 0, 81, 0
2, 184700, Note_off_c, 0, 85, 0
2, 184700, Note_off_c, 0, 64, 0
2, 184704, Note_on_c, 0, 71, 90
2, 184704, Note_on_c, 0, 68, 90
2, 184704, Note_on_c, 0, 80, 90
2, 184704, Note_on_c, 0, 83, 90
2, 184796, Note_off_c, 0, 71, 0
2, 184796, Note_off_c, 0, 68, 0
2, 184800, Note_on_c, 0, 64, 90
2, 184892, Note_off_c, 0, 80, 0
2, 184892, Note_off_c, 0, 83, 0
2, 184892, Note_off_c, 0, 64, 0
2, 184896, Note_on_c, 0, 69, 90
2, 184896, Note_on_c, 0, 81, 90
2, 184988, Note_off_c, 0, 69, 0
2, 184992, Note_on_c, 0, 64, 90
2, 185084, Note_off_c, 0, 81, 0
2, 185084, Note_off_c, 0, 64, 0
2, 185088, Note_on_c, 0, 61, 90
2, 185180, Note_off_c, 0, 61, 0
2, 185184, Note_on_c, 0, 64, 90
2, 185276, Note_off_c, 0, 64, 0
2, 185280, Note_on_c, 0, 69, 90
2, 185468, Note_off_c, 0, 69, 0
2, 185472, Note_on_c, 0, 76, 75
2, 185756, Note_off_c, 0, 76, 0
2, 185760, Note_on_c, 0, 78, 75
2, 185804, Note_off_c, 0, 78, 0
2, 185808, Note_on_c, 0, 76, 75
2, 185852, Note_off_c, 0, 76, 0
2, 185856, Note_on_c, 0, 74, 75
2, 185900, Note_off_c, 0, 74, 0
2, 185904, Note_on_c, 0, 73, 75
2, 185948, Note_off_c, 0, 73, 0
2, 185952, Note_on_c, 0, 71, 75
2, 185996, Note_off_c, 0, 71, 0
2, 186000, Note_on_c, 0, 69, 75
2, 186044, Note_off_c, 0, 69, 0
2, 186048, Note_on_c, 0, 77, 75
2, 186140, Note_off_c, 0, 77, 0
2, 186144, Note_on_c, 0, 78, 75
2, 186236, Note_off_c, 0, 78, 0
2, 186240, Note_on_c, 0, 78, 75
2, 186428, Note_off_c, 0, 78, 0
2, 186624, Note_on_c, 0, 81, 85
2, 186716, Note_off_c, 0, 81, 0
2, 186720, Note_on_c, 0, 80, 85
2, 186812, Note_off_c, 0, 80, 0
2, 186816, Note_on_c, 0, 83, 85
2, 186908, Note_off_c, 0, 83, 0
2, 186912, Note_on_c, 0, 81, 85
2, 187004, Note_off_c, 0, 81, 0
2, 187008, Note_on_c, 0, 80, 85
2, 187100, Note_off_c, 0, 80, 0
2, 187104, Note_on_c, 0, 78, 85
2, 187196, Note_off_c, 0, 78, 0
2, 187200, Note_on_c, 0, 75, 85
2, 187292, Note_off_c, 0, 75, 0
2, 187296, Note_on_c, 0, 76, 85
2, 187388, Note_off_c, 0, 76, 0
2, 187392, Note_on_c, 0, 76, 85
2, 187580, Note_off_c, 0, 76, 0
2, 187776, Note_on_c, 0, 76, 85
2, 188060, Note_off_c, 0, 76, 0
2, 188064, Note_on_c, 0, 78, 85
2, 188108, Note_off_c, 0, 78, 0
2, 188112, Note_on_c, 0, 76, 85
2, 188156, Note_off_c, 0, 76, 0
2, 188160, Note_on_c, 0, 74, 85
2, 188204, Note_off_c, 0, 74, 0
2, 188208, Note_on_c, 0, 73, 85
2, 188252, Note_off_c, 0, 73, 0
2, 188256, Note_on_c, 0, 71, 85
2, 188300, Note_off_c, 0, 71, 0
2, 188304, Note_on_c, 0, 69, 85
2, 188348, Note_off_c, 0, 69, 0
2, 188352, Note_on_c, 0, 76, 85
2, 188444, Note_off_c, 0, 76, 0
2, 188448, Note_on_c, 0, 74, 85
2, 188636, Note_off_c, 0, 74, 0
2, 188640, Note_on_c, 0, 76, 85
2, 188684, Note_off_c, 0, 76, 0
2, 188688, Note_on_c, 0, 74, 85
2, 188732, Note_off_c, 0, 74, 0
2, 188736, Note_on_c, 0, 73, 85
2, 188780, Note_off_c, 0, 73, 0
2, 188784, Note_on_c, 0, 71, 85
2, 188828, Note_off_c, 0, 71, 0
2, 188832, Note_on_c, 0, 69, 85
2, 188876, Note_off_c, 0, 69, 0
2, 188880, Note_on_c, 0, 68, 85
2, 188924, Note_off_c, 0, 68, 0
2, 188928, Note_on_c, 0, 69, 85
2, 189116, Note_off_c, 0, 69, 0
2, 189120, Note_on_c, 0, 68, 85
2, 189308, Note_off_c, 0, 68, 0
2, 189312, Note_on_c, 0, 69, 85
2, 189500, Note_off_c, 0, 69, 0
2, 189504, Note_on_c, 0, 64, 93
2, 189504, Note_on_c, 0, 73, 93
2, 189504, Note_on_c, 0, 69, 93
2, 189884, Note_off_c, 0, 73, 0
2, 189884, Note_off_c, 0, 69, 0
2, 189888, Note_on_c, 0, 71, 85
2, 189888, Note_on_c, 0, 68, 85
2, 190076, Note_off_c, 0, 64, 0
2, 190076, Note_off_c, 0, 71, 0
2, 190076, Note_off_c, 0, 68, 0
2, 190080, Note_on_c, 0, 73, 67
2, 190080, Note_on_c, 0, 69, 67
2, 190172, Note_off_c, 0, 73, 0
2, 190172, Note_off_c, 0, 69, 0
2, 190176, Note_on_c, 0, 64, 67
2, 190268, Note_off_c, 0, 64, 0
2, 190272, Note_on_c, 0, 73, 67
2, 190272, Note_on_c, 0, 69, 67
2, 190272, Note_on_c, 0, 81, 67
2, 190272, Note_on_c, 0, 85, 67
2, 190364, Note_off_c, 0, 73, 0
2, 190364, Note_off_c, 0, 69, 0
2, 190368, Note_on_c, 0, 64, 67
2, 190460, Note_off_c, 0, 81, 0
2, 190460, Note_off_c, 0, 85, 0
2, 190460, Note_off_c, 0, 64, 0
2, 190464, Note_on_c, 0, 74, 67
2, 190464, Note_on_c, 0, 71, 67
2, 190464, Note_on_c, 0, 83, 67
2, 190464, Note_on_c, 0, 86, 67
2, 190556, Note_off_c, 0, 74, 0
2, 190556, Note_off_c, 0, 71, 0
2, 190560, Note_on_c, 0, 64, 67
2, 190652, Note_off_c, 0, 83, 0
2, 190652, Note_off_c, 0, 86, 0
2, 190652, Note_off_c, 0, 64, 0
2, 190656, Note_on_c, 0, 76, 67
2, 190656, Note_on_c, 0, 73, 67
2, 190656, Note_on_c, 0, 85, 67
2, 190656, Note_on_c, 0, 88, 67
2, 190748, Note_off_c, 0, 76, 0
2, 190748, Note_off_c, 0, 73, 0
2, 190752, Note_on_c, 0, 64, 67
2, 190844, Note_off_c, 0, 85, 0
2, 190844, Note_off_c, 0, 88, 0
2, 190844, Note_off_c, 0, 64, 0
2, 190848, Note_on_c, 0, 74, 67
2, 190848, Note_on_c, 0, 71, 67
2, 190848, Note_on_c, 0, 83, 67
2, 190848, Note_on_c, 0, 86, 67
2, 190940, Note_off_c, 0, 74, 0
2, 190940, Note_off_c, 0, 71, 0
2, 190944, Note_on_c, 0, 64, 67
2, 191036, Note_off_c, 0, 83, 0
2, 191036, Note_off_c, 0, 86, 0
2, 191036, Note_off_c, 0, 64, 0
2, 191040, Note_on_c, 0, 73, 67
2, 191040, Note_on_c, 0, 69, 67
2, 191040, Note_on_c, 0, 81, 67
2, 191040, Note_on_c, 0, 85, 67
2, 191132, Note_off_c, 0, 73, 0
2, 191132, Note_off_c, 0, 69, 0
2, 191136, Note_on_c, 0, 64, 67
2, 191228, Note_off_c, 0, 81, 0
2, 191228, Note_off_c, 0, 85, 0
2, 191228, Note_off_c, 0, 64, 0
2, 191232, Note_on_c, 0, 68, 67
2, 191232, Note_on_c, 0, 71, 67
2, 191324, Note_off_c, 0, 68, 0
2, 191324, Note_off_c, 0, 71, 0
2, 191328, Note_on_c, 0, 64, 67
2, 191420, Note_off_c, 0, 64, 0
2, 191424, Note_on_c, 0, 71, 67
2, 191424, Note_on_c, 0, 68, 67
2, 191424, Note_on_c, 0, 80, 67
2, 191424, Note_on_c, 0, 83, 67
2, 191516, Note_off_c, 0, 71, 0
2, 191516, Note_off_c, 0, 68, 0
2, 191520, Note_on_c, 0, 64, 67
2, 191612, Note_off_c, 0, 80, 0
2, 191612, Note_off_c, 0, 83, 0
2, 191612, Note_off_c, 0, 64, 0
2, 191616, Note_on_c, 0, 73, 67
2, 191616, Note_on_c, 0, 69, 67
2, 191616, Note_on_c, 0, 81, 67
2, 191616, Note_on_c, 0, 85, 67
2, 191708, Note_off_c, 0, 73, 0
2, 191708, Note_off_c, 0, 69, 0
2, 191712, Note_on_c, 0, 64, 67
2, 191804, Note_off_c, 0, 81, 0
2, 191804, Note_off_c, 0, 85, 0
2, 191804, Note_off_c, 0, 64, 0
2, 191808, Note_on_c, 0, 74, 67
2, 191808, Note_on_c, 0, 71, 67
2, 191808, Note_on_c, 0, 83, 67
2, 191808, Note_on_c, 0, 86, 67
2, 191900, Note_off_c, 0, 74, 0
2, 191900, Note_off_c, 0, 71, 0
2, 191904, Note_on_c, 0, 64, 67
2, 191996, Note_off_c, 0, 83, 0
2, 191996, Note_off_c, 0, 86, 0
2, 191996, Note_off_c, 0, 64, 0
2, 192000, Note_on_c, 0, 73, 67
2, 192000, Note_on_c, 0, 69, 67
2, 192000, Note_on_c, 0, 85, 67
2, 192000, Note_on_c, 0, 81, 67
2, 192092, Note_off_c, 0, 73, 0
2, 192092, Note_off_c, 0, 69, 0
2, 192096, Note_on_c, 0, 64, 67
2, 192188, Note_off_c, 0, 85, 0
2, 192188, Note_off_c, 0, 81, 0
2, 192188, Note_off_c, 0, 64, 0
2, 192192, Note_on_c, 0, 68, 67
2, 192192, Note_on_c, 0, 71, 67
2, 192192, Note_on_c, 0, 80, 67
2, 192192, Note_on_c, 0, 83, 67
2, 192284, Note_off_c, 0, 68, 0
2, 192284, Note_off_c, 0, 71, 0
2, 192288, Note_on_c, 0, 64, 67
2, 192380, Note_off_c, 0, 80, 0
2, 192380, Note_off_c, 0, 83, 0
2, 192380, Note_off_c, 0, 64, 0
2, 192384, Note_on_c, 0, 69, 67
2, 192384, Note_on_c, 0, 64, 67
2, 192476, Note_off_c, 0, 69, 0
2, 192476, Note_off_c, 0, 64, 0
2, 192480, Note_on_c, 0, 61, 67
2, 192572, Note_off_c, 0, 61, 0
2, 192576, Note_on_c, 0, 69, 67
2, 192576, Note_on_c, 0, 64, 67
2, 192576, Note_on_c, 0, 73, 67
2, 192576, Note_on_c, 0, 81, 67
2, 192668, Note_off_c, 0, 69, 0
2, 192668, Note_off_c, 0, 64, 0
2, 192672, Note_on_c, 0, 61, 67
2, 192764, Note_off_c, 0, 73, 0
2, 192764, Note_off_c, 0, 81, 0
2, 192764, Note_off_c, 0, 61, 0
2, 192768, Note_on_c, 0, 68, 67
2, 192768, Note_on_c, 0, 71, 67
2, 192768, Note_on_c, 0, 76, 67
2, 192768, Note_on_c, 0, 83, 67
2, 192860, Note_off_c, 0, 68, 0
2, 192860, Note_off_c, 0, 71, 0
2, 192864, Note_on_c, 0, 64, 67
2, 192956, Note_off_c, 0, 76, 0
2, 192956, Note_off_c, 0, 83, 0
2, 192956, Note_off_c, 0, 64, 0
2, 192960, Note_on_c, 0, 73, 67
2, 192960, Note_on_c, 0, 69, 67
2, 192960, Note_on_c, 0, 81, 67
2, 192960, Note_on_c, 0, 85, 67
2, 193052, Note_off_c, 0, 73, 0
2, 193052, Note_off_c, 0, 69, 0
2, 193056, Note_on_c, 0, 64, 67
2, 193148, Note_off_c, 0, 81, 0
2, 193148, Note_off_c, 0, 85, 0
2, 193148, Note_off_c, 0, 64, 0
2, 193152, Note_on_c, 0, 73, 67
2, 193152, Note_on_c, 0, 69, 67
2, 193244, Note_off_c, 0, 73, 0
2, 193244, Note_off_c, 0, 69, 0
2, 193248, Note_on_c, 0, 64, 67
2, 193340, Note_off_c, 0, 64, 0
2, 193344, Note_on_c, 0, 74, 67
2, 193344, Note_on_c, 0, 71, 67
2, 193436, Note_off_c, 0, 74, 0
2, 193436, Note_off_c, 0, 71, 0
2, 193440, Note_on_c, 0, 64, 67
2, 193532, Note_off_c, 0, 64, 0
2, 193536, Note_on_c, 0, 73, 67
2, 193536, Note_on_c, 0, 69, 67
2, 193628, Note_off_c, 0, 73, 0
2, 193628, Note_off_c, 0, 69, 0
2, 193632, Note_on_c, 0, 64, 67
2, 193724, Note_off_c, 0, 64, 0
2, 193728, Note_on_c, 0, 73, 67
2, 193728, Note_on_c, 0, 69, 67
2, 193728, Note_on_c, 0, 81, 67
2, 193728, Note_on_c, 0, 85, 67
2, 193820, Note_off_c, 0, 73, 0
2, 193820, Note_off_c, 0, 69, 0
2, 193824, Note_on_c, 0, 64, 67
2, 193916, Note_off_c, 0, 81, 0
2, 193916, Note_off_c, 0, 85, 0
2, 193916, Note_off_c, 0, 64, 0
2, 193920, Note_on_c, 0, 71, 67
2, 193920, Note_on_c, 0, 68, 67
2, 194012, Note_off_c, 0, 71, 0
2, 194012, Note_off_c, 0, 68, 0
2, 194016, Note_on_c, 0, 64, 67
2, 194108, Note_off_c, 0, 64, 0
2, 194112, Note_on_c, 0, 71, 67
2, 194112, Note_on_c, 0, 68, 67
2, 194112, Note_on_c, 0, 80, 67
2, 194112, Note_on_c, 0, 83, 67
2, 194204, Note_off_c, 0, 71, 0
2, 194204, Note_off_c, 0, 68, 0
2, 194208, Note_on_c, 0, 64, 67
2, 194300, Note_off_c, 0, 80, 0
2, 194300, Note_off_c, 0, 83, 0
2, 194300, Note_off_c, 0, 64, 0
2, 194304, Note_on_c, 0, 72, 67
2, 194304, Note_on_c, 0, 68, 67
2, 194304, Note_on_c, 0, 84, 67
2, 194396, Note_off_c, 0, 72, 0
2, 194396, Note_off_c, 0, 68, 0
2, 194400, Note_on_c, 0, 64, 67
2, 194492, Note_off_c, 0, 84, 0
2, 194492, Note_off_c, 0, 64, 0
2, 194496, Note_on_c, 0, 73, 67
2, 194496, Note_on_c, 0, 69, 67
2, 194496, Note_on_c, 0, 81, 67
2, 194496, Note_on_c, 0, 85, 67
2, 194588, Note_off_c, 0, 73, 0
2, 194588, Note_off_c, 0, 69, 0
2, 194592, Note_on_c, 0, 64, 67
2, 194684, Note_off_c, 0, 81, 0
2, 194684, Note_off_c, 0, 85, 0
2, 194684, Note_off_c, 0, 64, 0
2, 194688, Note_on_c, 0, 73, 90
2, 194688, Note_on_c, 0, 69, 90
2, 194780, Note_off_c, 0, 73, 0
2, 194780, Note_off_c, 0, 69, 0
2, 194784, Note_on_c, 0, 64, 90
2, 194876, Note_off_c, 0, 64, 0
2, 194880, Note_on_c, 0, 73, 90
2, 194880, Note_on_c, 0, 69, 90
2, 194880, Note_on_c, 0, 81, 90
2, 194880, Note_on_c, 0, 85, 90
2, 194972, Note_off_c, 0, 73, 0
2, 194972, Note_off_c, 0, 69, 0
2, 194976, Note_on_c, 0, 64, 90
2, 195068, Note_off_c, 0, 81, 0
2, 195068, Note_off_c, 0, 85, 0
2, 195068, Note_off_c, 0, 64, 0
2, 195072, Note_on_c, 0, 74, 90
2, 195072, Note_on_c, 0, 71, 90
2, 195072, Note_on_c, 0, 83, 90
2, 195072, Note_on_c, 0, 86, 90
2, 195164, Note_off_c, 0, 74, 0
2, 195164, Note_off_c, 0, 71, 0
2, 195168, Note_on_c, 0, 64, 90
2, 195260, Note_off_c, 0, 83, 0
2, 195260, Note_off_c, 0, 86, 0
2, 195260, Note_off_c, 0, 64, 0
2, 195264, Note_on_c, 0, 76, 90
2, 195264, Note_on_c, 0, 73, 90
2, 195264, Note_on_c, 0, 85, 90
2, 195264, Note_on_c, 0, 88, 90
2, 195356, Note_off_c, 0, 76, 0
2, 195356, Note_off_c, 0, 73, 0
2, 195360, Note_on_c, 0, 69, 90
2, 195452, Note_off_c, 0, 85, 0
2, 195452, Note_off_c, 0, 88, 0
2, 195452, Note_off_c, 0, 69, 0
2, 195456, Note_on_c, 0, 76, 90
2, 195456, Note_on_c, 0, 73, 90
2, 195548, Note_off_c, 0, 76, 0
2, 195548, Note_off_c, 0, 73, 0
2, 195552, Note_on_c, 0, 69, 90
2, 195644, Note_off_c, 0, 69, 0
2, 195648, Note_on_c, 0, 78, 90
2, 195648, Note_on_c, 0, 74, 90
2, 195740, Note_off_c, 0, 78, 0
2, 195740, Note_off_c, 0, 74, 0
2, 195744, Note_on_c, 0, 69, 90
2, 195836, Note_off_c, 0, 69, 0
2, 195840, Note_on_c, 0, 73, 90
2, 195840, Note_on_c, 0, 69, 90
2, 195932, Note_off_c, 0, 73, 0
2, 195932, Note_off_c, 0, 69, 0
2, 195936, Note_on_c, 0, 64, 90
2, 196028, Note_off_c, 0, 64, 0
2, 196032, Note_on_c, 0, 73, 90
2, 196032, Note_on_c, 0, 69, 90
2, 196032, Note_on_c, 0, 81, 90
2, 196032, Note_on_c, 0, 85, 90
2, 196124, Note_off_c, 0, 73, 0
2, 196124, Note_off_c, 0, 69, 0
2, 196128, Note_on_c, 0, 64, 90
2, 196220, Note_off_c, 0, 81, 0
2, 196220, Note_off_c, 0, 85, 0
2, 196220, Note_off_c, 0, 64, 0
2, 196224, Note_on_c, 0, 71, 90
2, 196224, Note_on_c, 0, 68, 90
2, 196224, Note_on_c, 0, 80, 90
2, 196224, Note_on_c, 0, 83, 90
2, 196316, Note_off_c, 0, 71, 0
2, 196316, Note_off_c, 0, 68, 0
2, 196320, Note_on_c, 0, 64, 90
2, 196412, Note_off_c, 0, 80, 0
2, 196412, Note_off_c, 0, 83, 0
2, 196412, Note_off_c, 0, 64, 0
2, 196416, Note_on_c, 0, 69, 90
2, 196416, Note_on_c, 0, 81, 90
2, 196508, Note_off_c, 0, 69, 0
2, 196512, Note_on_c, 0, 64, 90
2, 196604, Note_off_c, 0, 81, 0
2, 196604, Note_off_c, 0, 64, 0
2, 196608, Note_on_c, 0, 61, 90
2, 196700, Note_off_c, 0, 61, 0
2, 196704, Note_on_c, 0, 64, 90
2, 196796, Note_off_c, 0, 64, 0
2, 196800, Note_on_c, 0, 69, 90
2, 196988, Note_off_c, 0, 69, 0
2, 196992, Note_on_c, 0, 76, 75
2, 197276, Note_off_c, 0, 76, 0
2, 197280, Note_on_c, 0, 78, 75
2, 197324, Note_off_c, 0, 78, 0
2, 197328, Note_on_c, 0, 76, 75
2, 197372, Note_off_c, 0, 76, 0
2, 197376, Note_on_c, 0, 74, 75
2, 197420, Note_off_c, 0, 74, 0
2, 197424, Note_on_c, 0, 73, 75
2, 197468, Note_off_c, 0, 73, 0
2, 197472, Note_on_c, 0, 71, 75
2, 197516, Note_off_c, 0, 71, 0
2, 197520, Note_on_c, 0, 69, 75
2, 197564, Note_off_c, 0, 69, 0
2, 197568, Note_on_c, 0, 77, 75
2, 197660, Note_off_c, 0, 77, 0
2, 197664, Note_on_c, 0, 78, 75
2, 197756, Note_off_c, 0, 78, 0
2, 197760, Note_on_c, 0, 78, 75
2, 197948, Note_off_c, 0, 78, 0
2, 198144, Note_on_c, 0, 81, 85
2, 198236, Note_off_c, 0, 81, 0
2, 198240, Note_on_c, 0, 80, 85
2, 198332, Note_off_c, 0, 80, 0
2, 198336, Note_on_c, 0, 83, 85
2, 198428, Note_off_c, 0, 83, 0
2, 198432, Note_on_c, 0, 81, 85
2, 198524, Note_off_c, 0, 81, 0
2, 198528, Note_on_c, 0, 80, 85
2, 198620, Note_off_c, 0, 80, 0
2, 198624, Note_on_c, 0, 78, 85
2, 198716, Note_off_c, 0, 78, 0
2, 198720, Note_on_c, 0, 75, 85
2, 198812, Note_off_c, 0, 75, 0
2, 198816, Note_on_c, 0, 76, 85
2, 198908, Note_off_c, 0, 76, 0
2, 198912, Note_on_c, 0, 76, 85
2, 199100, Note_off_c, 0, 76, 0
2, 199296, Note_on_c, 0, 76, 85
2, 199580, Note_off_c, 0, 76, 0
2, 199584, Note_on_c, 0, 78, 85
2, 199628, Note_off_c, 0, 78, 0
2, 199632, Note_on_c, 0, 76, 85
2, 199676, Note_off_c, 0, 76, 0
2, 199680, Note_on_c, 0, 74, 85
2, 199724, Note_off_c, 0, 74, 0
2, 199728, Note_on_c, 0, 73, 85
2, 199772, Note_off_c, 0, 73, 0
2, 199776, Note_on_c, 0, 71, 85
2, 199820, Note_off_c, 0, 71, 0
2, 199824, Note_on_c, 0, 69, 85
2, 199868, Note_off_c, 0, 69, 0
2, 199872, Note_on_c, 0, 76, 85
2, 199964, Note_off_c, 0, 76, 0
2, 199968, Note_on_c, 0, 74, 85
2, 200156, Note_off_c, 0, 74, 0
2, 200160, Note_on_c, 0, 76, 85
2, 200204, Note_off_c, 0, 76, 0
2, 200208, Note_on_c, 0, 74, 85
2, 200252, Note_off_c, 0, 74, 0
2, 200256, Note_on_c, 0, 73, 85
2, 200300, Note_off_c, 0, 73, 0
2, 200304, Note_on_c, 0, 71, 85
2, 200348, Note_off_c, 0, 71, 0
2, 200352, Note_on_c, 0, 69, 85
2, 200396, Note_off_c, 0, 69, 0
2, 200400, Note_on_c, 0, 68, 85
2, 200444, Note_off_c, 0, 68, 0
2, 200448, Note_on_c, 0, 69, 85
2, 200636, Note_off_c, 0, 69, 0
2, 200640, Note_on_c, 0, 68, 85
2, 200828, Note_off_c, 0, 68, 0
2, 200832, Note_on_c, 0, 69, 85
2, 201020, Note_off_c, 0, 69, 0
2, 201024, Note_on_c, 0, 64, 93
2, 201024, Note_on_c, 0, 73, 93
2, 201024, Note_on_c, 0, 69, 93
2, 201404, Note_off_c, 0, 73, 0
2, 201404, Note_off_c, 0, 69, 0
2, 201408, Note_on_c, 0, 71, 85
2, 201408, Note_on_c, 0, 68, 85
2, 201596, Note_off_c, 0, 64, 0
2, 201596, Note_off_c, 0, 71, 0
2, 201596, Note_off_c, 0, 68, 0
2, 201600, Note_on_c, 0, 73, 67
2, 201600, Note_on_c, 0, 69, 67
2, 201692, Note_off_c, 0, 73, 0
2, 201692, Note_off_c, 0, 69, 0
2, 201696, Note_on_c, 0, 64, 67
2, 201788, Note_off_c, 0, 64, 0
2, 201792, Note_on_c, 0, 73, 67
2, 201792, Note_on_c, 0, 69, 67
2, 201792, Note_on_c, 0, 81, 67
2, 201792, Note_on_c, 0, 85, 67
2, 201884, Note_off_c, 0, 73, 0
2, 201884, Note_off_c, 0, 69, 0
2, 201888, Note_on_c, 0, 64, 67
2, 201980, Note_off_c, 0, 81, 0
2, 201980, Note_off_c, 0, 85, 0
2, 201980, Note_off_c, 0, 64, 0
2, 201984, Note_on_c, 0, 74, 67
2, 201984, Note_on_c, 0, 71, 67
2, 201984, Note_on_c, 0, 83, 67
2, 201984, Note_on_c, 0, 86, 67
2, 202076, Note_off_c, 0, 74, 0
2, 202076, Note_off_c, 0, 71, 0
2, 202080, Note_on_c, 0, 64, 67
2, 202172, Note_off_c, 0, 83, 0
2, 202172, Note_off_c, 0, 86, 0
2, 202172, Note_off_c, 0, 64, 0
2, 202176, Note_on_c, 0, 76, 67
2, 202176, Note_on_c, 0, 73, 67
2, 202176, Note_on_c, 0, 85, 67
2, 202176, Note_on_c, 0, 88, 67
2, 202268, Note_off_c, 0, 76, 0
2, 202268, Note_off_c, 0, 73, 0
2, 202272, Note_on_c, 0, 64, 67
2, 202364, Note_off_c, 0, 85, 0
2, 202364, Note_off_c, 0, 88, 0
2, 202364, Note_off_c, 0, 64, 0
2, 202368, Note_on_c, 0, 74, 67
2, 202368, Note_on_c, 0, 71, 67
2, 202368, Note_on_c, 0, 83, 67
2, 202368, Note_on_c, 0, 86, 67
2, 202460, Note_off_c, 0, 74, 0
2, 202460, Note_off_c, 0, 71, 0
2, 202464, Note_on_c, 0, 64, 67
2, 202556, Note_off_c, 0, 83, 0
2, 202556, Note_off_c, 0, 86, 0
2, 202556, Note_off_c, 0, 64, 0
2, 202560, Note_on_c, 0, 73, 67
2, 202560, Note_on_c, 0, 69, 67
2, 202560, Note_on_c, 0, 81, 67
2, 202560, Note_on_c, 0, 85, 67
2, 202652, Note_off_c, 0, 73, 0
2, 202652, Note_off_c, 0, 69, 0
2, 202656, Note_on_c, 0, 64, 67
2, 202748, Note_off_c, 0, 81, 0
2, 202748, Note_off_c, 0, 85, 0
2, 202748, Note_off_c, 0, 64, 0
2, 202752, Note_on_c, 0, 68, 67
2, 202752, Note_on_c, 0, 71, 67
2, 202844, Note_off_c, 0, 68, 0
2, 202844, Note_off_c, 0, 71, 0
2, 202848, Note_on_c, 0, 64, 67
2, 202940, Note_off_c, 0, 64, 0
2, 202944, Note_on_c, 0, 71, 67
2, 202944, Note_on_c, 0, 68, 67
2, 202944, Note_on_c, 0, 80, 67
2, 202944, Note_on_c, 0, 83, 67
2, 203036, Note_off_c, 0, 71, 0
2, 203036, Note_off_c, 0, 68, 0
2, 203040, Note_on_c, 0, 64, 67
2, 203132, Note_off_c, 0, 80, 0
2, 203132, Note_off_c, 0, 83, 0
2, 203132, Note_off_c, 0, 64, 0
2, 203136, Note_on_c, 0, 73, 67
2, 203136, Note_on_c, 0, 69, 67
2, 203136, Note_on_c, 0, 81, 67
2, 203136, Note_on_c, 0, 85, 67
2, 203228, Note_off_c, 0, 73, 0
2, 203228, Note_off_c, 0, 69, 0
2, 203232, Note_on_c, 0, 64, 67
2, 203324, Note_off_c, 0, 81, 0
2, 203324, Note_off_c, 0, 85, 0
2, 203324, Note_off_c, 0, 64, 0
2, 203328, Note_on_c, 0, 74, 67
2, 203328, Note_on_c, 0, 71, 67
2, 203328, Note_on_c, 0, 83, 67
2, 203328, Note_on_c, 0, 86, 67
2, 203420, Note_off_c, 0, 74, 0
2, 203420, Note_off_c, 0, 71, 0
2, 203424, Note_on_c, 0, 64, 67
2, 203516, Note_off_c, 0, 83, 0
2, 203516, Note_off_c, 0, 86, 0
2, 203516, Note_off_c, 0, 64, 0
2, 203520, Note_on_c, 0, 73, 67
2, 203520, Note_on_c, 0, 69, 67
2, 203520, Note_on_c, 0, 85, 67
2, 203520, Note_on_c, 0, 81, 67
2, 203612, Note_off_c, 0, 73, 0
2, 203612, Note_off_c, 0, 69, 0
2, 203616, Note_on_c, 0, 64, 67
2, 203708, Note_off_c, 0, 85, 0
2, 203708, Note_off_c, 0, 81, 0
2, 203708, Note_off_c, 0, 64, 0
2, 203712, Note_on_c, 0, 68, 67
2, 203712, Note_on_c, 0, 71, 67
2, 203712, Note_on_c, 0, 80, 67
2, 203712, Note_on_c, 0, 83, 67
2, 203804, Note_off_c, 0, 68, 0
2, 203804, Note_off_c, 0, 71, 0
2, 203808, Note_on_c, 0, 64, 67
2, 203900, Note_off_c, 0, 80, 0
2, 203900, Note_off_c, 0, 83, 0
2, 203900, Note_off_c, 0, 64, 0
2, 203904, Note_on_c, 0, 69, 67
2, 203904, Note_on_c, 0, 64, 67
2, 203996, Note_off_c, 0, 69, 0
2, 203996, Note_off_c, 0, 64, 0
2, 204000, Note_on_c, 0, 61, 67
2, 204092, Note_off_c, 0, 61, 0
2, 204096, Note_on_c, 0, 69, 67
2, 204096, Note_on_c, 0, 64, 67
2, 204096, Note_on_c, 0, 73, 67
2, 204096, Note_on_c, 0, 81, 67
2, 204188, Note_off_c, 0, 69, 0
2, 204188, Note_off_c, 0, 64, 0
2, 204192, Note_on_c, 0, 61, 67
2, 204284, Note_off_c, 0, 73, 0
2, 204284, Note_off_c, 0, 81, 0
2, 204284, Note_off_c, 0, 61, 0
2, 204288, Note_on_c, 0, 68, 67
2, 204288, Note_on_c, 0, 71, 67
2, 204288, Note_on_c, 0, 76, 67
2, 204288, Note_on_c, 0, 83, 67
2, 204380, Note_off_c, 0, 68, 0
2, 204380, Note_off_c, 0, 71, 0
2, 204384, Note_on_c, 0, 64, 67
2, 204476, Note_off_c, 0, 76, 0
2, 204476, Note_off_c, 0, 83, 0
2, 204476, Note_off_c, 0, 64, 0
2, 204480, Note_on_c, 0, 73, 67
2, 204480, Note_on_c, 0, 69, 67
2, 204480, Note_on_c, 0, 81, 67
2, 204480, Note_on_c, 0, 85, 67
2, 204572, Note_off_c, 0, 73, 0
2, 204572, Note_off_c, 0, 69, 0
2, 204576, Note_on_c, 0, 64, 67
2, 204668, Note_off_c, 0, 81, 0
2, 204668, Note_off_c, 0, 85, 0
2, 204668, Note_off_c, 0, 64, 0
2, 204672, Note_on_c, 0, 73, 67
2, 204672, Note_on_c, 0, 69, 67
2, 204764, Note_off_c, 0, 73, 0
2, 204764, Note_off_c, 0, 69, 0
2, 204768, Note_on_c, 0, 64, 67
2, 204860, Note_off_c, 0, 64, 0
2, 204864, Note_on_c, 0, 74, 67
2, 204864, Note_on_c, 0, 71, 67
2, 204956, Note_off_c, 0, 74, 0
2, 204956, Note_off_c, 0, 71, 0
2, 204960, Note_on_c, 0, 64, 67
2, 205052, Note_off_c, 0, 64, 0
2, 205056, Note_on_c, 0, 73, 67
2, 205056, Note_on_c, 0, 69, 67
2, 205148, Note_off_c, 0, 73, 0
2, 205148, Note_off_c, 0, 69, 0
2, 205152, Note_on_c, 0, 64, 67
2, 205244, Note_off_c, 0, 64, 0
2, 205248, Note_on_c, 0, 73, 67
2, 205248, Note_on_c, 0, 69, 67
2, 205248, Note_on_c, 0, 81, 67
2, 205248, Note_on_c, 0, 85, 67
2, 205340, Note_off_c, 0, 73, 0
2, 205340, Note_off_c, 0, 69, 0
2, 205344, Note_on_c, 0, 64, 67
2, 205436, Note_off_c, 0, 81, 0
2, 205436, Note_off_c, 0, 85, 0
2, 205436, Note_off_c, 0, 64, 0
2, 205440, Note_on_c, 0, 71, 67
2, 205440, Note_on_c, 0, 68, 67
2, 205532, Note_off_c, 0, 71, 0
2, 205532, Note_off_c, 0, 68, 0
2, 205536, Note_on_c, 0, 64, 67
2, 205628, Note_off_c, 0, 64, 0
2, 205632, Note_on_c, 0, 71, 67
2, 205632, Note_on_c, 0, 68, 67
2, 205632, Note_on_c, 0, 80, 67
2, 205648, Note_on_c, 0, 83, 67
2, 205724, Note_off_c, 0, 71, 0
2, 205724, Note_off_c, 0, 68, 0
2, 205728, Note_on_c, 0, 64, 67
2, 205820, Note_off_c, 0, 80, 0
2, 205820, Note_off_c, 0, 64, 0
2, 205824, Note_on_c, 0, 72, 67
2, 205824, Note_on_c, 0, 68, 67
2, 205824, Note_on_c, 0, 84, 67
2, 205836, Note_off_c, 0, 83, 0
2, 205916, Note_off_c, 0, 72, 0
2, 205916, Note_off_c, 0, 68, 0
2, 205920, Note_on_c, 0, 64, 67
2, 206012, Note_off_c, 0, 84, 0
2, 206012, Note_off_c, 0, 64, 0
2, 206016, Note_on_c, 0, 73, 67
2, 206016, Note_on_c, 0, 69, 67
2, 206016, Note_on_c, 0, 81, 67
2, 206016, Note_on_c, 0, 85, 67
2, 206108, Note_off_c, 0, 73, 0
2, 206108, Note_off_c, 0, 69, 0
2, 206112, Note_on_c, 0, 64, 67
2, 206204, Note_off_c, 0, 81, 0
2, 206204, Note_off_c, 0, 85, 0
2, 206204, Note_off_c, 0, 64, 0
2, 206208, Note_on_c, 0, 73, 90
2, 206208, Note_on_c, 0, 69, 90
2, 206300, Note_off_c, 0, 73, 0
2, 206300, Note_off_c, 0, 69, 0
2, 206304, Note_on_c, 0, 64, 90
2, 206396, Note_off_c, 0, 64, 0
2, 206400, Note_on_c, 0, 73, 90
2, 206400, Note_on_c, 0, 69, 90
2, 206400, Note_on_c, 0, 81, 90
2, 206400, Note_on_c, 0, 85, 90
2, 206492, Note_off_c, 0, 73, 0
2, 206492, Note_off_c, 0, 69, 0
2, 206496, Note_on_c, 0, 64, 90
2, 206588, Note_off_c, 0, 81, 0
2, 206588, Note_off_c, 0, 85, 0
2, 206588, Note_off_c, 0, 64, 0
2, 206592, Note_on_c, 0, 74, 90
2, 206592, Note_on_c, 0, 71, 90
2, 206592, Note_on_c, 0, 83, 90
2, 206592, Note_on_c, 0, 86, 90
2, 206684, Note_off_c, 0, 74, 0
2, 206684, Note_off_c, 0, 71, 0
2, 206688, Note_on_c, 0, 64, 90
2, 206780, Note_off_c, 0, 83, 0
2, 206780, Note_off_c, 0, 86, 0
2, 206780, Note_off_c, 0, 64, 0
2, 206784, Note_on_c, 0, 76, 90
2, 206784, Note_on_c, 0, 73, 90
2, 206784, Note_on_c, 0, 85, 90
2, 206784, Note_on_c, 0, 88, 90
2, 206876, Note_off_c, 0, 76, 0
2, 206876, Note_off_c, 0, 73, 0
2, 206880, Note_on_c, 0, 69, 90
2, 206972, Note_off_c, 0, 85, 0
2, 206972, Note_off_c, 0, 88, 0
2, 206972, Note_off_c, 0, 69, 0
2, 206976, Note_on_c, 0, 76, 90
2, 206976, Note_on_c, 0, 73, 90
2, 207068, Note_off_c, 0, 76, 0
2, 207068, Note_off_c, 0, 73, 0
2, 207072, Note_on_c, 0, 69, 90
2, 207164, Note_off_c, 0, 69, 0
2, 207168, Note_on_c, 0, 78, 90
2, 207168, Note_on_c, 0, 74, 90
2, 207260, Note_off_c, 0, 78, 0
2, 207260, Note_off_c, 0, 74, 0
2, 207264, Note_on_c, 0, 69, 90
2, 207356, Note_off_c, 0, 69, 0
2, 207360, Note_on_c, 0, 73, 90
2, 207360, Note_on_c, 0, 69, 90
2, 207452, Note_off_c, 0, 73, 0
2, 207452, Note_off_c, 0, 69, 0
2, 207456, Note_on_c, 0, 64, 90
2, 207548, Note_off_c, 0, 64, 0
2, 207552, Note_on_c, 0, 73, 90
2, 207552, Note_on_c, 0, 69, 90
2, 207552, Note_on_c, 0, 81, 90
2, 207552, Note_on_c, 0, 85, 90
2, 207644, Note_off_c, 0, 73, 0
2, 207644, Note_off_c, 0, 69, 0
2, 207648, Note_on_c, 0, 64, 90
2, 207740, Note_off_c, 0, 81, 0
2, 207740, Note_off_c, 0, 85, 0
2, 207740, Note_off_c, 0, 64, 0
2, 207744, Note_on_c, 0, 71, 90
2, 207744, Note_on_c, 0, 68, 90
2, 207744, Note_on_c, 0, 80, 90
2, 207744, Note_on_c, 0, 83, 90
2, 207836, Note_off_c, 0, 71, 0
2, 207836, Note_off_c, 0, 68, 0
2, 207840, Note_on_c, 0, 64, 90
2, 207932, Note_off_c, 0, 80, 0
2, 207932, Note_off_c, 0, 83, 0
2, 207932, Note_off_c, 0, 64, 0
2, 207936, Note_on_c, 0, 69, 90
2, 207936, Note_on_c, 0, 81, 90
2, 208028, Note_off_c, 0, 69, 0
2, 208032, Note_on_c, 0, 64, 90
2, 208124, Note_off_c, 0, 81, 0
2, 208124, Note_off_c, 0, 64, 0
2, 208128, Note_on_c, 0, 61, 90
2, 208220, Note_off_c, 0, 61, 0
2, 208224, Note_on_c, 0, 64, 90
2, 208316, Note_off_c, 0, 64, 0
2, 208320, Note_on_c, 0, 69, 90
2, 208508, Note_off_c, 0, 69, 0
2, 208512, Note_on_c, 0, 73, 67
2, 208700, Note_off_c, 0, 73, 0
2, 208704, Note_on_c, 0, 73, 67
2, 208988, Note_off_c, 0, 73, 0
2, 208992, Note_on_c, 0, 74, 67
2, 209084, Note_off_c, 0, 74, 0
2, 209088, Note_on_c, 0, 78, 67
2, 209180, Note_off_c, 0, 78, 0
2, 209184, Note_on_c, 0, 76, 67
2, 209276, Note_off_c, 0, 76, 0
2, 209376, Note_on_c, 0, 76, 67
2, 209468, Note_off_c, 0, 76, 0
2, 209472, Note_on_c, 0, 78, 67
2, 209516, Note_off_c, 0, 78, 0
2, 209520, Note_on_c, 0, 76, 67
2, 209564, Note_off_c, 0, 76, 0
2, 209568, Note_on_c, 0, 74, 67
2, 209612, Note_off_c, 0, 74, 0
2, 209616, Note_on_c, 0, 73, 67
2, 209660, Note_off_c, 0, 73, 0
2, 209664, Note_on_c, 0, 73, 67
2, 209756, Note_off_c, 0, 73, 0
2, 209760, Note_on_c, 0, 71, 67
2, 209852, Note_off_c, 0, 71, 0
2, 209856, Note_on_c, 0, 71, 67
2, 210140, Note_off_c, 0, 71, 0
2, 210144, Note_on_c, 0, 73, 67
2, 210236, Note_off_c, 0, 73, 0
2, 210240, Note_on_c, 0, 76, 67
2, 210428, Note_off_c, 0, 76, 0
2, 210432, Note_on_c, 0, 74, 67
2, 210524, Note_off_c, 0, 74, 0
2, 210576, Note_on_c, 0, 74, 67
2, 210620, Note_off_c, 0, 74, 0
2, 210624, Note_on_c, 0, 76, 67
2, 210668, Note_off_c, 0, 76, 0
2, 210672, Note_on_c, 0, 74, 67
2, 210716, Note_off_c, 0, 74, 0
2, 210720, Note_on_c, 0, 73, 67
2, 210764, Note_off_c, 0, 73, 0
2, 210768, Note_on_c, 0, 71, 67
2, 210812, Note_off_c, 0, 71, 0
2, 210816, Note_on_c, 0, 71, 67
2, 210908, Note_off_c, 0, 71, 0
2, 210912, Note_on_c, 0, 69, 67
2, 211004, Note_off_c, 0, 69, 0
2, 211056, Note_on_c, 0, 69, 67
2, 211100, Note_off_c, 0, 69, 0
2, 211104, Note_on_c, 0, 68, 67
2, 211148, Note_off_c, 0, 68, 0
2, 211152, Note_on_c, 0, 69, 67
2, 211196, Note_off_c, 0, 69, 0
2, 211200, Note_on_c, 0, 71, 67
2, 211244, Note_off_c, 0, 71, 0
2, 211248, Note_on_c, 0, 69, 67
2, 211292, Note_off_c, 0, 69, 0
2, 211296, Note_on_c, 0, 74, 67
2, 211340, Note_off_c, 0, 74, 0
2, 211344, Note_on_c, 0, 73, 67
2, 211388, Note_off_c, 0, 73, 0
2, 211392, Note_on_c, 0, 70, 67
2, 211484, Note_off_c, 0, 70, 0
2, 211488, Note_on_c, 0, 71, 67
2, 211580, Note_off_c, 0, 71, 0
2, 211632, Note_on_c, 0, 71, 70
2, 211676, Note_off_c, 0, 71, 0
2, 211680, Note_on_c, 0, 70, 71
2, 211724, Note_off_c, 0, 70, 0
2, 211728, Note_on_c, 0, 71, 71
2, 211772, Note_off_c, 0, 71, 0
2, 211776, Note_on_c, 0, 73, 72
2, 211820, Note_off_c, 0, 73, 0
2, 211824, Note_on_c, 0, 71, 74
2, 211868, Note_off_c, 0, 71, 0
2, 211872, Note_on_c, 0, 76, 74
2, 211916, Note_off_c, 0, 76, 0
2, 211920, Note_on_c, 0, 74, 75
2, 211964, Note_off_c, 0, 74, 0
2, 211968, Note_on_c, 0, 74, 77
2, 212012, Note_off_c, 0, 74, 0
2, 212016, Note_on_c, 0, 73, 77
2, 212060, Note_off_c, 0, 73, 0
2, 212064, Note_on_c, 0, 72, 79
2, 212108, Note_off_c, 0, 72, 0
2, 212112, Note_on_c, 0, 73, 79
2, 212156, Note_off_c, 0, 73, 0
2, 212160, Note_on_c, 0, 74, 80
2, 212204, Note_off_c, 0, 74, 0
2, 212208, Note_on_c, 0, 73, 81
2, 212252, Note_off_c, 0, 73, 0
2, 212256, Note_on_c, 0, 72, 81
2, 212300, Note_off_c, 0, 72, 0
2, 212304, Note_on_c, 0, 73, 83
2, 212348, Note_off_c, 0, 73, 0
2, 212352, Note_on_c, 0, 76, 67
2, 212396, Note_off_c, 0, 76, 0
2, 212400, Note_on_c, 0, 74, 67
2, 212444, Note_off_c, 0, 74, 0
2, 212448, Note_on_c, 0, 73, 67
2, 212492, Note_off_c, 0, 73, 0
2, 212496, Note_on_c, 0, 74, 67
2, 212540, Note_off_c, 0, 74, 0
2, 212544, Note_on_c, 0, 73, 85
2, 212588, Note_off_c, 0, 73, 0
2, 212592, Note_on_c, 0, 71, 85
2, 212636, Note_off_c, 0, 71, 0
2, 212640, Note_on_c, 0, 70, 83
2, 212684, Note_off_c, 0, 70, 0
2, 212688, Note_on_c, 0, 71, 81
2, 212732, Note_off_c, 0, 71, 0
2, 212736, Note_on_c, 0, 69, 80
2, 212780, Note_off_c, 0, 69, 0
2, 212784, Note_on_c, 0, 68, 79
2, 212828, Note_off_c, 0, 68, 0
2, 212832, Note_on_c, 0, 66, 77
2, 212876, Note_off_c, 0, 66, 0
2, 212880, Note_on_c, 0, 68, 75
2, 212924, Note_off_c, 0, 68, 0
2, 212928, Note_on_c, 0, 66, 74
2, 212972, Note_off_c, 0, 66, 0
2, 212976, Note_on_c, 0, 64, 72
2, 213020, Note_off_c, 0, 64, 0
2, 213024, Note_on_c, 0, 63, 71
2, 213068, Note_off_c, 0, 63, 0
2, 213072, Note_on_c, 0, 64, 70
2, 213116, Note_off_c, 0, 64, 0
2, 213120, Note_on_c, 0, 73, 90
2, 213120, Note_on_c, 0, 69, 90
2, 213212, Note_off_c, 0, 73, 0
2, 213212, Note_off_c, 0, 69, 0
2, 213216, Note_on_c, 0, 73, 90
2, 213216, Note_on_c, 0, 69, 90
2, 213404, Note_off_c, 0, 73, 0
2, 213404, Note_off_c, 0, 69, 0
2, 213408, Note_on_c, 0, 73, 67
2, 213408, Note_on_c, 0, 70, 67
2, 213500, Note_off_c, 0, 73, 0
2, 213500, Note_off_c, 0, 70, 0
2, 213504, Note_on_c, 0, 74, 67
2, 213504, Note_on_c, 0, 71, 67
2, 213596, Note_off_c, 0, 74, 0
2, 213596, Note_off_c, 0, 71, 0
2, 213600, Note_on_c, 0, 75, 67
2, 213600, Note_on_c, 0, 72, 67
2, 213692, Note_off_c, 0, 75, 0
2, 213692, Note_off_c, 0, 72, 0
2, 213696, Note_on_c, 0, 76, 67
2, 213696, Note_on_c, 0, 73, 67
2, 213740, Note_off_c, 0, 76, 0
2, 213740, Note_off_c, 0, 73, 0
2, 213744, Note_on_c, 0, 69, 67
2, 213788, Note_off_c, 0, 69, 0
2, 213792, Note_on_c, 0, 71, 67
2, 213836, Note_off_c, 0, 71, 0
2, 213840, Note_on_c, 0, 73, 67
2, 213884, Note_off_c, 0, 73, 0
2, 213888, Note_on_c, 0, 74, 67
2, 213932, Note_off_c, 0, 74, 0
2, 213936, Note_on_c, 0, 76, 67
2, 213980, Note_off_c, 0, 76, 0
2, 213984, Note_on_c, 0, 78, 67
2, 214028, Note_off_c, 0, 78, 0
2, 214032, Note_on_c, 0, 80, 67
2, 214076, Note_off_c, 0, 80, 0
2, 214080, Note_on_c, 0, 81, 67
2, 214124, Note_off_c, 0, 81, 0
2, 214128, Note_on_c, 0, 83, 67
2, 214172, Note_off_c, 0, 83, 0
2, 214176, Note_on_c, 0, 85, 67
2, 214220, Note_off_c, 0, 85, 0
2, 214272, Note_on_c, 0, 73, 90
2, 214272, Note_on_c, 0, 69, 90
2, 214316, Note_off_c, 0, 73, 0
2, 214316, Note_off_c, 0, 69, 0
2, 214320, Note_on_c, 0, 71, 90
2, 214320, Note_on_c, 0, 68, 90
2, 214364, Note_off_c, 0, 71, 0
2, 214364, Note_off_c, 0, 68, 0
2, 214368, Note_on_c, 0, 71, 90
2, 214368, Note_on_c, 0, 68, 90
2, 214556, Note_off_c, 0, 71, 0
2, 214556, Note_off_c, 0, 68, 0
2, 214560, Note_on_c, 0, 71, 67
2, 214560, Note_on_c, 0, 68, 67
2, 214652, Note_off_c, 0, 71, 0
2, 214652, Note_off_c, 0, 68, 0
2, 214656, Note_on_c, 0, 73, 67
2, 214656, Note_on_c, 0, 69, 67
2, 214748, Note_off_c, 0, 73, 0
2, 214748, Note_off_c, 0, 69, 0
2, 214752, Note_on_c, 0, 73, 67
2, 214752, Note_on_c, 0, 70, 67
2, 214844, Note_off_c, 0, 73, 0
2, 214844, Note_off_c, 0, 70, 0
2, 214848, Note_on_c, 0, 74, 67
2, 214848, Note_on_c, 0, 71, 67
2, 214892, Note_off_c, 0, 74, 0
2, 214892, Note_off_c, 0, 71, 0
2, 214896, Note_on_c, 0, 71, 67
2, 214940, Note_off_c, 0, 71, 0
2, 214944, Note_on_c, 0, 73, 67
2, 214988, Note_off_c, 0, 73, 0
2, 214992, Note_on_c, 0, 74, 67
2, 215036, Note_off_c, 0, 74, 0
2, 215040, Note_on_c, 0, 76, 67
2, 215084, Note_off_c, 0, 76, 0
2, 215088, Note_on_c, 0, 78, 67
2, 215132, Note_off_c, 0, 78, 0
2, 215136, Note_on_c, 0, 80, 67
2, 215180, Note_off_c, 0, 80, 0
2, 215184, Note_on_c, 0, 81, 67
2, 215228, Note_off_c, 0, 81, 0
2, 215232, Note_on_c, 0, 83, 67
2, 215276, Note_off_c, 0, 83, 0
2, 215280, Note_on_c, 0, 85, 67
2, 215324, Note_off_c, 0, 85, 0
2, 215328, Note_on_c, 0, 86, 67
2, 215372, Note_off_c, 0, 86, 0
2, 215424, Note_on_c, 0, 71, 67
2, 215468, Note_off_c, 0, 71, 0
2, 215472, Note_on_c, 0, 69, 67
2, 215516, Note_off_c, 0, 69, 0
2, 215520, Note_on_c, 0, 69, 67
2, 215612, Note_off_c, 0, 69, 0
2, 215616, Note_on_c, 0, 69, 70
2, 215660, Note_off_c, 0, 69, 0
2, 215664, Note_on_c, 0, 69, 70
2, 215708, Note_off_c, 0, 69, 0
2, 215712, Note_on_c, 0, 74, 71
2, 215756, Note_off_c, 0, 74, 0
2, 215760, Note_on_c, 0, 73, 71
2, 215804, Note_off_c, 0, 73, 0
2, 215808, Note_on_c, 0, 70, 72
2, 215852, Note_off_c, 0, 70, 0
2, 215856, Note_on_c, 0, 71, 74
2, 215900, Note_off_c, 0, 71, 0
2, 215904, Note_on_c, 0, 76, 74
2, 215948, Note_off_c, 0, 76, 0
2, 215952, Note_on_c, 0, 74, 75
2, 215996, Note_off_c, 0, 74, 0
2, 216000, Note_on_c, 0, 72, 77
2, 216044, Note_off_c, 0, 72, 0
2, 216048, Note_on_c, 0, 73, 77
2, 216092, Note_off_c, 0, 73, 0
2, 216096, Note_on_c, 0, 81, 79
2, 216140, Note_off_c, 0, 81, 0
2, 216144, Note_on_c, 0, 81, 79
2, 216188, Note_off_c, 0, 81, 0
2, 216192, Note_on_c, 0, 81, 80
2, 216236, Note_off_c, 0, 81, 0
2, 216240, Note_on_c, 0, 81, 81
2, 216284, Note_off_c, 0, 81, 0
2, 216288, Note_on_c, 0, 81, 81
2, 216332, Note_off_c, 0, 81, 0
2, 216336, Note_on_c, 0, 81, 83
2, 216380, Note_off_c, 0, 81, 0
2, 216384, Note_on_c, 0, 81, 81
2, 216428, Note_off_c, 0, 81, 0
2, 216432, Note_on_c, 0, 78, 77
2, 216476, Note_off_c, 0, 78, 0
2, 216480, Note_on_c, 0, 74, 72
2, 216524, Note_off_c, 0, 74, 0
2, 216528, Note_on_c, 0, 71, 67
2, 216572, Note_off_c, 0, 71, 0
2, 216576, Note_on_c, 0, 76, 67
2, 216620, Note_off_c, 0, 76, 0
2, 216624, Note_on_c, 0, 78, 67
2, 216636, Note_off_c, 0, 78, 0
2, 216640, Note_on_c, 0, 76, 67
2, 216652, Note_off_c, 0, 76, 0
2, 216656, Note_on_c, 0, 75, 67
2, 216668, Note_off_c, 0, 75, 0
2, 216672, Note_on_c, 0, 76, 67
2, 216716, Note_off_c, 0, 76, 0
2, 216720, Note_on_c, 0, 78, 67
2, 216764, Note_off_c, 0, 78, 0
2, 216768, Note_on_c, 0, 69, 67
2, 217052, Note_off_c, 0, 69, 0
2, 217056, Note_on_c, 0, 68, 67
2, 217056, Note_on_c, 0, 73, 67
2, 217100, Note_off_c, 0, 73, 0
2, 217104, Note_on_c, 0, 71, 67
2, 217148, Note_off_c, 0, 68, 0
2, 217148, Note_off_c, 0, 71, 0
2, 217152, Note_on_c, 0, 71, 67
2, 217152, Note_on_c, 0, 68, 67
2, 217152, Note_on_c, 0, 64, 67
2, 217248, Note_on_c, 0, 69, 67
2, 217248, Note_on_c, 0, 64, 67
2, 217296, Note_on_c, 0, 64, 67
2, 217340, Note_off_c, 0, 71, 0
2, 217340, Note_off_c, 0, 68, 0
2, 217340, Note_off_c, 0, 64, 0
2, 217340, Note_off_c, 0, 69, 0
2, 217340, Note_off_c, 0, 64, 0
2, 217340, Note_off_c, 0, 64, 0
2, 217344, Note_on_c, 0, 66, 67
2, 217388, Note_off_c, 0, 66, 0
2, 217392, Note_on_c, 0, 69, 67
2, 217436, Note_off_c, 0, 69, 0
2, 217440, Note_on_c, 0, 68, 67
2, 217484, Note_off_c, 0, 68, 0
2, 217488, Note_on_c, 0, 71, 67
2, 217532, Note_off_c, 0, 71, 0
2, 217536, Note_on_c, 0, 69, 67
2, 217580, Note_off_c, 0, 69, 0
2, 217584, Note_on_c, 0, 73, 67
2, 217628, Note_off_c, 0, 73, 0
2, 217632, Note_on_c, 0, 71, 67
2, 217676, Note_off_c, 0, 71, 0
2, 217680, Note_on_c, 0, 74, 67
2, 217724, Note_off_c, 0, 74, 0
2, 217728, Note_on_c, 0, 73, 67
2, 217916, Note_off_c, 0, 73, 0
2, 217920, Note_on_c, 0, 73, 67
2, 218204, Note_off_c, 0, 73, 0
2, 218208, Note_on_c, 0, 74, 67
2, 218300, Note_off_c, 0, 74, 0
2, 218304, Note_on_c, 0, 78, 67
2, 218396, Note_off_c, 0, 78, 0
2, 218400, Note_on_c, 0, 76, 67
2, 218492, Note_off_c, 0, 76, 0
2, 218592, Note_on_c, 0, 76, 67
2, 218684, Note_off_c, 0, 76, 0
2, 218688, Note_on_c, 0, 78, 67
2, 218732, Note_off_c, 0, 78, 0
2, 218736, Note_on_c, 0, 76, 67
2, 218780, Note_off_c, 0, 76, 0
2, 218784, Note_on_c, 0, 74, 67
2, 218828, Note_off_c, 0, 74, 0
2, 218832, Note_on_c, 0, 73, 67
2, 218876, Note_off_c, 0, 73, 0
2, 218880, Note_on_c, 0, 73, 67
2, 218972, Note_off_c, 0, 73, 0
2, 218976, Note_on_c, 0, 71, 67
2, 219068, Note_off_c, 0, 71, 0
2, 219072, Note_on_c, 0, 71, 67
2, 219356, Note_off_c, 0, 71, 0
2, 219360, Note_on_c, 0, 73, 67
2, 219452, Note_off_c, 0, 73, 0
2, 219456, Note_on_c, 0, 76, 67
2, 219644, Note_off_c, 0, 76, 0
2, 219648, Note_on_c, 0, 74, 67
2, 219740, Note_off_c, 0, 74, 0
2, 219792, Note_on_c, 0, 74, 67
2, 219836, Note_off_c, 0, 74, 0
2, 219840, Note_on_c, 0, 76, 67
2, 219884, Note_off_c, 0, 76, 0
2, 219888, Note_on_c, 0, 74, 67
2, 219932, Note_off_c, 0, 74, 0
2, 219936, Note_on_c, 0, 73, 67
2, 219980, Note_off_c, 0, 73, 0
2, 219984, Note_on_c, 0, 71, 67
2, 220028, Note_off_c, 0, 71, 0
2, 220032, Note_on_c, 0, 71, 67
2, 220124, Note_off_c, 0, 71, 0
2, 220128, Note_on_c, 0, 69, 67
2, 220220, Note_off_c, 0, 69, 0
2, 220272, Note_on_c, 0, 69, 67
2, 220316, Note_off_c, 0, 69, 0
2, 220320, Note_on_c, 0, 68, 67
2, 220364, Note_off_c, 0, 68, 0
2, 220368, Note_on_c, 0, 69, 67
2, 220412, Note_off_c, 0, 69, 0
2, 220416, Note_on_c, 0, 71, 67
2, 220460, Note_off_c, 0, 71, 0
2, 220464, Note_on_c, 0, 69, 67
2, 220508, Note_off_c, 0, 69, 0
2, 220512, Note_on_c, 0, 74, 67
2, 220556, Note_off_c, 0, 74, 0
2, 220560, Note_on_c, 0, 73, 67
2, 220604, Note_off_c, 0, 73, 0
2, 220608, Note_on_c, 0, 70, 67
2, 220700, Note_off_c, 0, 70, 0
2, 220704, Note_on_c, 0, 71, 67
2, 220796, Note_off_c, 0, 71, 0
2, 220848, Note_on_c, 0, 71, 70
2, 220892, Note_off_c, 0, 71, 0
2, 220896, Note_on_c, 0, 70, 71
2, 220940, Note_off_c, 0, 70, 0
2, 220944, Note_on_c, 0, 71, 71
2, 220988, Note_off_c, 0, 71, 0
2, 220992, Note_on_c, 0, 73, 72
2, 221036, Note_off_c, 0, 73, 0
2, 221040, Note_on_c, 0, 71, 74
2, 221084, Note_off_c, 0, 71, 0
2, 221088, Note_on_c, 0, 76, 74
2, 221132, Note_off_c, 0, 76, 0
2, 221136, Note_on_c, 0, 74, 75
2, 221180, Note_off_c, 0, 74, 0
2, 221184, Note_on_c, 0, 74, 77
2, 221228, Note_off_c, 0, 74, 0
2, 221232, Note_on_c, 0, 73, 77
2, 221276, Note_off_c, 0, 73, 0
2, 221280, Note_on_c, 0, 72, 79
2, 221324, Note_off_c, 0, 72, 0
2, 221328, Note_on_c, 0, 73, 79
2, 221372, Note_off_c, 0, 73, 0
2, 221376, Note_on_c, 0, 74, 80
2, 221420, Note_off_c, 0, 74, 0
2, 221424, Note_on_c, 0, 73, 81
2, 221468, Note_off_c, 0, 73, 0
2, 221472, Note_on_c, 0, 72, 81
2, 221516, Note_off_c, 0, 72, 0
2, 221520, Note_on_c, 0, 73, 83
2, 221564, Note_off_c, 0, 73, 0
2, 221568, Note_on_c, 0, 76, 67
2, 221612, Note_off_c, 0, 76, 0
2, 221616, Note_on_c, 0, 74, 67
2, 221660, Note_off_c, 0, 74, 0
2, 221664, Note_on_c, 0, 73, 67
2, 221708, Note_off_c, 0, 73, 0
2, 221712, Note_on_c, 0, 74, 67
2, 221756, Note_off_c, 0, 74, 0
2, 221760, Note_on_c, 0, 73, 85
2, 221804, Note_off_c, 0, 73, 0
2, 221808, Note_on_c, 0, 71, 85
2, 221852, Note_off_c, 0, 71, 0
2, 221856, Note_on_c, 0, 70, 83
2, 221900, Note_off_c, 0, 70, 0
2, 221904, Note_on_c, 0, 71, 81
2, 221948, Note_off_c, 0, 71, 0
2, 221952, Note_on_c, 0, 69, 80
2, 221996, Note_off_c, 0, 69, 0
2, 222000, Note_on_c, 0, 68, 79
2, 222044, Note_off_c, 0, 68, 0
2, 222048, Note_on_c, 0, 66, 77
2, 222092, Note_off_c, 0, 66, 0
2, 222096, Note_on_c, 0, 68, 75
2, 222140, Note_off_c, 0, 68, 0
2, 222144, Note_on_c, 0, 66, 74
2, 222188, Note_off_c, 0, 66, 0
2, 222192, Note_on_c, 0, 64, 72
2, 222236, Note_off_c, 0, 64, 0
2, 222240, Note_on_c, 0, 63, 71
2, 222284, Note_off_c, 0, 63, 0
2, 222288, Note_on_c, 0, 64, 70
2, 222332, Note_off_c, 0, 64, 0
2, 222336, Note_on_c, 0, 73, 90
2, 222336, Note_on_c, 0, 69, 90
2, 222428, Note_off_c, 0, 73, 0
2, 222428, Note_off_c, 0, 69, 0
2, 222432, Note_on_c, 0, 73, 90
2, 222432, Note_on_c, 0, 69, 90
2, 222620, Note_off_c, 0, 73, 0
2, 222620, Note_off_c, 0, 69, 0
2, 222624, Note_on_c, 0, 73, 67
2, 222624, Note_on_c, 0, 70, 67
2, 222716, Note_off_c, 0, 73, 0
2, 222716, Note_off_c, 0, 70, 0
2, 222720, Note_on_c, 0, 74, 67
2, 222720, Note_on_c, 0, 71, 67
2, 222812, Note_off_c, 0, 74, 0
2, 222812, Note_off_c, 0, 71, 0
2, 222816, Note_on_c, 0, 75, 67
2, 222816, Note_on_c, 0, 72, 67
2, 222908, Note_off_c, 0, 75, 0
2, 222908, Note_off_c, 0, 72, 0
2, 222912, Note_on_c, 0, 76, 67
2, 222912, Note_on_c, 0, 73, 67
2, 222956, Note_off_c, 0, 76, 0
2, 222956, Note_off_c, 0, 73, 0
2, 222960, Note_on_c, 0, 69, 67
2, 223004, Note_off_c, 0, 69, 0
2, 223008, Note_on_c, 0, 71, 67
2, 223052, Note_off_c, 0, 71, 0
2, 223056, Note_on_c, 0, 73, 67
2, 223100, Note_off_c, 0, 73, 0
2, 223104, Note_on_c, 0, 74, 67
2, 223148, Note_off_c, 0, 74, 0
2, 223152, Note_on_c, 0, 76, 67
2, 223196, Note_off_c, 0, 76, 0
2, 223200, Note_on_c, 0, 78, 67
2, 223244, Note_off_c, 0, 78, 0
2, 223248, Note_on_c, 0, 80, 67
2, 223292, Note_off_c, 0, 80, 0
2, 223296, Note_on_c, 0, 81, 67
2, 223340, Note_off_c, 0, 81, 0
2, 223344, Note_on_c, 0, 83, 67
2, 223388, Note_off_c, 0, 83, 0
2, 223392, Note_on_c, 0, 85, 67
2, 223436, Note_off_c, 0, 85, 0
2, 223488, Note_on_c, 0, 73, 90
2, 223488, Note_on_c, 0, 69, 90
2, 223532, Note_off_c, 0, 73, 0
2, 223532, Note_off_c, 0, 69, 0
2, 223536, Note_on_c, 0, 71, 90
2, 223536, Note_on_c, 0, 68, 90
2, 223580, Note_off_c, 0, 71, 0
2, 223580, Note_off_c, 0, 68, 0
2, 223584, Note_on_c, 0, 71, 90
2, 223584, Note_on_c, 0, 68, 90
2, 223772, Note_off_c, 0, 71, 0
2, 223772, Note_off_c, 0, 68, 0
2, 223776, Note_on_c, 0, 71, 67
2, 223776, Note_on_c, 0, 68, 67
2, 223868, Note_off_c, 0, 71, 0
2, 223868, Note_off_c, 0, 68, 0
2, 223872, Note_on_c, 0, 73, 67
2, 223872, Note_on_c, 0, 69, 67
2, 223964, Note_off_c, 0, 73, 0
2, 223964, Note_off_c, 0, 69, 0
2, 223968, Note_on_c, 0, 73, 67
2, 223968, Note_on_c, 0, 70, 67
2, 224060, Note_off_c, 0, 73, 0
2, 224060, Note_off_c, 0, 70, 0
2, 224064, Note_on_c, 0, 74, 67
2, 224064, Note_on_c, 0, 71, 67
2, 224108, Note_off_c, 0, 74, 0
2, 224108, Note_off_c, 0, 71, 0
2, 224112, Note_on_c, 0, 71, 67
2, 224156, Note_off_c, 0, 71, 0
2, 224160, Note_on_c, 0, 73, 67
2, 224204, Note_off_c, 0, 73, 0
2, 224208, Note_on_c, 0, 74, 67
2, 224252, Note_off_c, 0, 74, 0
2, 224256, Note_on_c, 0, 76, 67
2, 224300, Note_off_c, 0, 76, 0
2, 224304, Note_on_c, 0, 78, 67
2, 224348, Note_off_c, 0, 78, 0
2, 224352, Note_on_c, 0, 80, 67
2, 224396, Note_off_c, 0, 80, 0
2, 224400, Note_on_c, 0, 81, 67
2, 224444, Note_off_c, 0, 81, 0
2, 224448, Note_on_c, 0, 83, 67
2, 224492, Note_off_c, 0, 83, 0
2, 224496, Note_on_c, 0, 85, 67
2, 224540, Note_off_c, 0, 85, 0
2, 224544, Note_on_c, 0, 86, 67
2, 224588, Note_off_c, 0, 86, 0
2, 224640, Note_on_c, 0, 71, 67
2, 224684, Note_off_c, 0, 71, 0
2, 224688, Note_on_c, 0, 69, 67
2, 224732, Note_off_c, 0, 69, 0
2, 224736, Note_on_c, 0, 69, 67
2, 224828, Note_off_c, 0, 69, 0
2, 224832, Note_on_c, 0, 69, 70
2, 224876, Note_off_c, 0, 69, 0
2, 224880, Note_on_c, 0, 69, 70
2, 224924, Note_off_c, 0, 69, 0
2, 224928, Note_on_c, 0, 74, 71
2, 224972, Note_off_c, 0, 74, 0
2, 224976, Note_on_c, 0, 73, 71
2, 225020, Note_off_c, 0, 73, 0
2, 225024, Note_on_c, 0, 70, 72
2, 225068, Note_off_c, 0, 70, 0
2, 225072, Note_on_c, 0, 71, 74
2, 225116, Note_off_c, 0, 71, 0
2, 225120, Note_on_c, 0, 76, 74
2, 225164, Note_off_c, 0, 76, 0
2, 225168, Note_on_c, 0, 74, 75
2, 225212, Note_off_c, 0, 74, 0
2, 225216, Note_on_c, 0, 72, 77
2, 225260, Note_off_c, 0, 72, 0
2, 225264, Note_on_c, 0, 73, 77
2, 225308, Note_off_c, 0, 73, 0
2, 225312, Note_on_c, 0, 81, 79
2, 225356, Note_off_c, 0, 81, 0
2, 225360, Note_on_c, 0, 81, 79
2, 225404, Note_off_c, 0, 81, 0
2, 225408, Note_on_c, 0, 81, 80
2, 225452, Note_off_c, 0, 81, 0
2, 225456, Note_on_c, 0, 81, 81
2, 225500, Note_off_c, 0, 81, 0
2, 225504, Note_on_c, 0, 81, 81
2, 225548, Note_off_c, 0, 81, 0
2, 225552, Note_on_c, 0, 81, 83
2, 225596, Note_off_c, 0, 81, 0
2, 225600, Note_on_c, 0, 81, 81
2, 225644, Note_off_c, 0, 81, 0
2, 225648, Note_on_c, 0, 78, 77
2, 225692, Note_off_c, 0, 78, 0
2, 225696, Note_on_c, 0, 74, 72
2, 225740, Note_off_c, 0, 74, 0
2, 225744, Note_on_c, 0, 71, 67
2, 225788, Note_off_c, 0, 71, 0
2, 225792, Note_on_c, 0, 76, 67
2, 225836, Note_off_c, 0, 76, 0
2, 225840, Note_on_c, 0, 78, 67
2, 225852, Note_off_c, 0, 78, 0
2, 225856, Note_on_c, 0, 76, 67
2, 225868, Note_off_c, 0, 76, 0
2, 225872, Note_on_c, 0, 75, 67
2, 225884, Note_off_c, 0, 75, 0
2, 225888, Note_on_c, 0, 76, 67
2, 225932, Note_off_c, 0, 76, 0
2, 225936, Note_on_c, 0, 78, 67
2, 225980, Note_off_c, 0, 78, 0
2, 225984, Note_on_c, 0, 69, 67
2, 226268, Note_off_c, 0, 69, 0
2, 226272, Note_on_c, 0, 68, 67
2, 226272, Note_on_c, 0, 73, 67
2, 226316, Note_off_c, 0, 73, 0
2, 226320, Note_on_c, 0, 71, 67
2, 226364, Note_off_c, 0, 68, 0
2, 226364, Note_off_c, 0, 71, 0
2, 226368, Note_on_c, 0, 71, 67
2, 226368, Note_on_c, 0, 68, 67
2, 226368, Note_on_c, 0, 64, 67
2, 226556, Note_off_c, 0, 71, 0
2, 226556, Note_off_c, 0, 68, 0
2, 226556, Note_off_c, 0, 64, 0
2, 226560, Note_on_c, 0, 69, 67
2, 226608, Note_on_c, 0, 71, 67
2, 226628, Note_off_c, 0, 71, 0
2, 226632, Note_on_c, 0, 69, 67
2, 226652, Note_off_c, 0, 69, 0
2, 226652, Note_off_c, 0, 69, 0
2, 226656, Note_on_c, 0, 68, 67
2, 226676, Note_off_c, 0, 68, 0
2, 226680, Note_on_c, 0, 69, 67
2, 226700, Note_off_c, 0, 69, 0
2, 226704, Note_on_c, 0, 71, 67
2, 226748, Note_off_c, 0, 71, 0
2, 226752, Note_on_c, 0, 73, 67
2, 226800, Note_on_c, 0, 74, 67
2, 226820, Note_off_c, 0, 74, 0
2, 226824, Note_on_c, 0, 73, 67
2, 226844, Note_off_c, 0, 73, 0
2, 226844, Note_off_c, 0, 73, 0
2, 226848, Note_on_c, 0, 71, 67
2, 226868, Note_off_c, 0, 71, 0
2, 226872, Note_on_c, 0, 73, 67
2, 226892, Note_off_c, 0, 73, 0
2, 226896, Note_on_c, 0, 74, 67
2, 226940, Note_off_c, 0, 74, 0
2, 226944, Note_on_c, 0, 57, 67
2, 226944, Note_on_c, 0, 76, 67
2, 226988, Note_off_c, 0, 57, 0
2, 226992, Note_on_c, 0, 69, 67
2, 227036, Note_off_c, 0, 69, 0
2, 227040, Note_on_c, 0, 61, 67
2, 227084, Note_off_c, 0, 76, 0
2, 227084, Note_off_c, 0, 61, 0
2, 227088, Note_on_c, 0, 69, 67
2, 227088, Note_on_c, 0, 78, 67
2, 227108, Note_off_c, 0, 78, 0
2, 227112, Note_on_c, 0, 76, 67
2, 227132, Note_off_c, 0, 69, 0
2, 227132, Note_off_c, 0, 76, 0
2, 227136, Note_on_c, 0, 57, 67
2, 227136, Note_on_c, 0, 74, 67
2, 227180, Note_off_c, 0, 57, 0
2, 227184, Note_on_c, 0, 68, 67
2, 227228, Note_off_c, 0, 74, 0
2, 227228, Note_off_c, 0, 68, 0
2, 227232, Note_on_c, 0, 59, 67
2, 227232, Note_on_c, 0, 73, 67
2, 227276, Note_off_c, 0, 59, 0
2, 227280, Note_on_c, 0, 68, 67
2, 227324, Note_off_c, 0, 73, 0
2, 227324, Note_off_c, 0, 68, 0
2, 227328, Note_on_c, 0, 57, 67
2, 227328, Note_on_c, 0, 71, 67
2, 227372, Note_off_c, 0, 57, 0
2, 227376, Note_on_c, 0, 67, 67
2, 227420, Note_off_c, 0, 71, 0
2, 227420, Note_off_c, 0, 67, 0
2, 227424, Note_on_c, 0, 61, 67
2, 227424, Note_on_c, 0, 69, 67
2, 227468, Note_off_c, 0, 61, 0
2, 227472, Note_on_c, 0, 67, 67
2, 227516, Note_off_c, 0, 69, 0
2, 227516, Note_off_c, 0, 67, 0
2, 227520, Note_on_c, 0, 57, 67
2, 227520, Note_on_c, 0, 69, 67
2, 227564, Note_off_c, 0, 57, 0
2, 227568, Note_on_c, 0, 66, 67
2, 227612, Note_off_c, 0, 66, 0
2, 227616, Note_on_c, 0, 62, 67
2, 227660, Note_off_c, 0, 62, 0
2, 227664, Note_off_c, 0, 69, 0
2, 227664, Note_on_c, 0, 66, 67
2, 227664, Note_on_c, 0, 78, 67
2, 227708, Note_off_c, 0, 66, 0
2, 227708, Note_off_c, 0, 78, 0
2, 227712, Note_on_c, 0, 78, 67
2, 227900, Note_off_c, 0, 78, 0
2, 227904, Note_on_c, 0, 62, 90
2, 228092, Note_off_c, 0, 62, 0
2, 228096, Note_on_c, 0, 62, 90
2, 228116, Note_off_c, 0, 62, 0
2, 228120, Note_on_c, 0, 66, 90
2, 228140, Note_off_c, 0, 66, 0
2, 228144, Note_on_c, 0, 64, 90
2, 228164, Note_off_c, 0, 64, 0
2, 228168, Note_on_c, 0, 62, 90
2, 228188, Note_off_c, 0, 62, 0
2, 228192, Note_on_c, 0, 64, 90
2, 228212, Note_off_c, 0, 64, 0
2, 228216, Note_on_c, 0, 66, 90
2, 228236, Note_off_c, 0, 66, 0
2, 228240, Note_on_c, 0, 67, 90
2, 228260, Note_off_c, 0, 67, 0
2, 228264, Note_on_c, 0, 69, 90
2, 228284, Note_off_c, 0, 69, 0
2, 228288, Note_on_c, 0, 71, 90
2, 228308, Note_off_c, 0, 71, 0
2, 228312, Note_on_c, 0, 73, 90
2, 228332, Note_off_c, 0, 73, 0
2, 228336, Note_on_c, 0, 74, 90
2, 228356, Note_off_c, 0, 74, 0
2, 228360, Note_on_c, 0, 76, 90
2, 228380, Note_off_c, 0, 76, 0
2, 228384, Note_on_c, 0, 78, 90
2, 228416, Note_off_c, 0, 78, 0
2, 228416, Note_on_c, 0, 79, 90
2, 228448, Note_off_c, 0, 79, 0
2, 228448, Note_on_c, 0, 81, 90
2, 228480, Note_off_c, 0, 81, 0
2, 228480, Note_on_c, 0, 83, 90
2, 228512, Note_off_c, 0, 83, 0
2, 228528, Note_on_c, 0, 85, 90
2, 228560, Note_off_c, 0, 85, 0
2, 228576, Note_on_c, 0, 86, 90
2, 228624, Note_off_c, 0, 86, 0
2, 228640, Note_on_c, 0, 78, 90
2, 228660, Note_off_c, 0, 78, 0
2, 228672, Note_on_c, 0, 81, 90
2, 228812, Note_off_c, 0, 81, 0
2, 228816, Note_on_c, 0, 78, 90
2, 228860, Note_off_c, 0, 78, 0
2, 228864, Note_on_c, 0, 76, 90
2, 228956, Note_off_c, 0, 76, 0
2, 228960, Note_on_c, 0, 76, 90
2, 229052, Note_off_c, 0, 76, 0
2, 229056, Note_on_c, 0, 76, 90
2, 229148, Note_off_c, 0, 76, 0
2, 229152, Note_on_c, 0, 76, 90
2, 229244, Note_off_c, 0, 76, 0
2, 229248, Note_on_c, 0, 78, 90
2, 229292, Note_off_c, 0, 78, 0
2, 229296, Note_on_c, 0, 76, 67
2, 229340, Note_off_c, 0, 76, 0
2, 229344, Note_on_c, 0, 73, 67
2, 229388, Note_off_c, 0, 73, 0
2, 229392, Note_on_c, 0, 71, 67
2, 229436, Note_off_c, 0, 71, 0
2, 229440, Note_on_c, 0, 69, 67
2, 229532, Note_off_c, 0, 69, 0
2, 229536, Note_on_c, 0, 76, 67
2, 229628, Note_off_c, 0, 76, 0
2, 229632, Note_on_c, 0, 76, 90
2, 229724, Note_off_c, 0, 76, 0
2, 229728, Note_on_c, 0, 76, 67
2, 229820, Note_off_c, 0, 76, 0
2, 229824, Note_on_c, 0, 78, 67
2, 229868, Note_off_c, 0, 78, 0
2, 229872, Note_on_c, 0, 76, 67
2, 229916, Note_off_c, 0, 76, 0
2, 229920, Note_on_c, 0, 74, 67
2, 229964, Note_off_c, 0, 74, 0
2, 229968, Note_on_c, 0, 71, 67
2, 230012, Note_off_c, 0, 71, 0
2, 230016, Note_on_c, 0, 68, 67
2, 230108, Note_off_c, 0, 68, 0
2, 230112, Note_on_c, 0, 76, 67
2, 230204, Note_off_c, 0, 76, 0
2, 230208, Note_on_c, 0, 76, 67
2, 230300, Note_off_c, 0, 76, 0
2, 230304, Note_on_c, 0, 76, 67
2, 230396, Note_off_c, 0, 76, 0
2, 230400, Note_on_c, 0, 78, 90
2, 230444, Note_off_c, 0, 78, 0
2, 230448, Note_on_c, 0, 76, 90
2, 230492, Note_off_c, 0, 76, 0
2, 230496, Note_on_c, 0, 73, 90
2, 230540, Note_off_c, 0, 73, 0
2, 230544, Note_on_c, 0, 69, 90
2, 230588, Note_off_c, 0, 69, 0
2, 230592, Note_on_c, 0, 78, 67
2, 230636, Note_off_c, 0, 78, 0
2, 230640, Note_on_c, 0, 76, 67
2, 230684, Note_off_c, 0, 76, 0
2, 230688, Note_on_c, 0, 74, 67
2, 230732, Note_off_c, 0, 74, 0
2, 230736, Note_on_c, 0, 71, 67
2, 230780, Note_off_c, 0, 71, 0
2, 230784, Note_on_c, 0, 78, 67
2, 230828, Note_off_c, 0, 78, 0
2, 230832, Note_on_c, 0, 76, 67
2, 230876, Note_off_c, 0, 76, 0
2, 230880, Note_on_c, 0, 73, 67
2, 230924, Note_off_c, 0, 73, 0
2, 230928, Note_on_c, 0, 69, 67
2, 230972, Note_off_c, 0, 69, 0
2, 230976, Note_on_c, 0, 73, 67
2, 231164, Note_off_c, 0, 73, 0
2, 231168, Note_on_c, 0, 71, 67
2, 231212, Note_off_c, 0, 71, 0
2, 231216, Note_on_c, 0, 64, 67
2, 231260, Note_off_c, 0, 64, 0
2, 231264, Note_on_c, 0, 76, 67
2, 231308, Note_off_c, 0, 76, 0
2, 231312, Note_on_c, 0, 64, 67
2, 231356, Note_off_c, 0, 64, 0
2, 231360, Note_on_c, 0, 75, 67
2, 231404, Note_off_c, 0, 75, 0
2, 231408, Note_on_c, 0, 64, 67
2, 231452, Note_off_c, 0, 64, 0
2, 231456, Note_on_c, 0, 74, 67
2, 231500, Note_off_c, 0, 74, 0
2, 231504, Note_on_c, 0, 64, 67
2, 231548, Note_off_c, 0, 64, 0
2, 231552, Note_on_c, 0, 73, 67
2, 231740, Note_off_c, 0, 73, 0
2, 231744, Note_on_c, 0, 73, 67
2, 231984, Note_on_c, 0, 74, 67
2, 232004, Note_off_c, 0, 74, 0
2, 232008, Note_on_c, 0, 73, 67
2, 232028, Note_off_c, 0, 73, 0
2, 232028, Note_off_c, 0, 73, 0
2, 232032, Note_on_c, 0, 71, 67
2, 232052, Note_off_c, 0, 71, 0
2, 232056, Note_on_c, 0, 73, 67
2, 232076, Note_off_c, 0, 73, 0
2, 232080, Note_on_c, 0, 74, 67
2, 232124, Note_off_c, 0, 74, 0
2, 232128, Note_on_c, 0, 78, 67
2, 232220, Note_off_c, 0, 78, 0
2, 232224, Note_on_c, 0, 76, 67
2, 232268, Note_off_c, 0, 76, 0
2, 232320, Note_on_c, 0, 87, 67
2, 232412, Note_off_c, 0, 87, 0
2, 232416, Note_on_c, 0, 88, 67
2, 232460, Note_off_c, 0, 88, 0
2, 232464, Note_on_c, 0, 76, 67
2, 232508, Note_off_c, 0, 76, 0
2, 232512, Note_on_c, 0, 78, 67
2, 232556, Note_off_c, 0, 78, 0
2, 232560, Note_on_c, 0, 76, 67
2, 232604, Note_off_c, 0, 76, 0
2, 232608, Note_on_c, 0, 74, 67
2, 232652, Note_off_c, 0, 74, 0
2, 232656, Note_on_c, 0, 73, 67
2, 232700, Note_off_c, 0, 73, 0
2, 232704, Note_on_c, 0, 73, 67
2, 232796, Note_off_c, 0, 73, 0
2, 232800, Note_on_c, 0, 71, 67
2, 232988, Note_off_c, 0, 71, 0
2, 232992, Note_on_c, 0, 71, 67
2, 233088, Note_on_c, 0, 73, 67
2, 233108, Note_off_c, 0, 73, 0
2, 233112, Note_on_c, 0, 71, 67
2, 233132, Note_off_c, 0, 71, 0
2, 233136, Note_on_c, 0, 70, 67
2, 233156, Note_off_c, 0, 70, 0
2, 233180, Note_off_c, 0, 71, 0
2, 233184, Note_on_c, 0, 71, 67
2, 233228, Note_off_c, 0, 71, 0
2, 233232, Note_on_c, 0, 73, 67
2, 233276, Note_off_c, 0, 73, 0
2, 233280, Note_on_c, 0, 76, 67
2, 233372, Note_off_c, 0, 76, 0
2, 233376, Note_on_c, 0, 74, 67
2, 233420, Note_off_c, 0, 74, 0
2, 233472, Note_on_c, 0, 85, 67
2, 233564, Note_off_c, 0, 85, 0
2, 233568, Note_on_c, 0, 86, 67
2, 233612, Note_off_c, 0, 86, 0
2, 233616, Note_on_c, 0, 74, 67
2, 233660, Note_off_c, 0, 74, 0
2, 233664, Note_on_c, 0, 76, 67
2, 233708, Note_off_c, 0, 76, 0
2, 233712, Note_on_c, 0, 74, 67
2, 233756, Note_off_c, 0, 74, 0
2, 233760, Note_on_c, 0, 73, 67
2, 233804, Note_off_c, 0, 73, 0
2, 233808, Note_on_c, 0, 71, 67
2, 233852, Note_off_c, 0, 71, 0
2, 233856, Note_on_c, 0, 71, 67
2, 233948, Note_off_c, 0, 71, 0
2, 233952, Note_on_c, 0, 69, 67
2, 234044, Note_off_c, 0, 69, 0
2, 234048, Note_on_c, 0, 69, 67
2, 234092, Note_off_c, 0, 69, 0
2, 234096, Note_on_c, 0, 69, 67
2, 234140, Note_off_c, 0, 69, 0
2, 234144, Note_on_c, 0, 74, 67
2, 234188, Note_off_c, 0, 74, 0
2, 234192, Note_on_c, 0, 73, 67
2, 234236, Note_off_c, 0, 73, 0
2, 234240, Note_on_c, 0, 70, 67
2, 234284, Note_off_c, 0, 70, 0
2, 234288, Note_on_c, 0, 71, 67
2, 234332, Note_off_c, 0, 71, 0
2, 234336, Note_on_c, 0, 76, 67
2, 234380, Note_off_c, 0, 76, 0
2, 234384, Note_on_c, 0, 74, 67
2, 234428, Note_off_c, 0, 74, 0
2, 234432, Note_on_c, 0, 72, 67
2, 234476, Note_off_c, 0, 72, 0
2, 234480, Note_on_c, 0, 73, 67
2, 234524, Note_off_c, 0, 73, 0
2, 234528, Note_on_c, 0, 81, 70
2, 234572, Note_off_c, 0, 81, 0
2, 234576, Note_on_c, 0, 81, 71
2, 234620, Note_off_c, 0, 81, 0
2, 234624, Note_on_c, 0, 81, 72
2, 234668, Note_off_c, 0, 81, 0
2, 234672, Note_on_c, 0, 81, 75
2, 234716, Note_off_c, 0, 81, 0
2, 234720, Note_on_c, 0, 81, 77
2, 234764, Note_off_c, 0, 81, 0
2, 234768, Note_on_c, 0, 81, 80
2, 234812, Note_off_c, 0, 81, 0
2, 234816, Note_on_c, 0, 81, 81
2, 234860, Note_off_c, 0, 81, 0
2, 234864, Note_on_c, 0, 78, 83
2, 234908, Note_off_c, 0, 78, 0
2, 234912, Note_on_c, 0, 74, 86
2, 234956, Note_off_c, 0, 74, 0
2, 234960, Note_on_c, 0, 71, 88
2, 235004, Note_off_c, 0, 71, 0
2, 235008, Note_on_c, 0, 76, 90
2, 235056, Note_on_c, 0, 78, 90
2, 235076, Note_off_c, 0, 78, 0
2, 235080, Note_on_c, 0, 76, 90
2, 235100, Note_off_c, 0, 76, 0
2, 235102, Note_off_c, 0, 76, 0
2, 235104, Note_on_c, 0, 75, 90
2, 235124, Note_off_c, 0, 75, 0
2, 235128, Note_on_c, 0, 76, 90
2, 235148, Note_off_c, 0, 76, 0
2, 235152, Note_on_c, 0, 78, 90
2, 235196, Note_off_c, 0, 78, 0
2, 235200, Note_on_c, 0, 69, 90
2, 235484, Note_off_c, 0, 69, 0
2, 235488, Note_on_c, 0, 71, 67
2, 235488, Note_on_c, 0, 68, 67
2, 235580, Note_off_c, 0, 71, 0
2, 235580, Note_off_c, 0, 68, 0
2, 235584, Note_on_c, 0, 71, 67
2, 235584, Note_on_c, 0, 68, 67
2, 235868, Note_off_c, 0, 71, 0
2, 235868, Note_off_c, 0, 68, 0
2, 235872, Note_on_c, 0, 72, 67
2, 235964, Note_off_c, 0, 72, 0
2, 235968, Note_on_c, 0, 73, 67
2, 235968, Note_on_c, 0, 69, 67
2, 236156, Note_off_c, 0, 73, 0
2, 236156, Note_off_c, 0, 69, 0
2, 236160, Note_on_c, 0, 64, 90
2, 236204, Note_off_c, 0, 64, 0
2, 236208, Note_on_c, 0, 69, 90
2, 236252, Note_off_c, 0, 69, 0
2, 236256, Note_on_c, 0, 73, 90
2, 236352, Note_on_c, 0, 73, 90
2, 236380, Note_off_c, 0, 73, 0
2, 236384, Note_on_c, 0, 76, 90
2, 236412, Note_off_c, 0, 76, 0
2, 236416, Note_on_c, 0, 74, 90
2, 236444, Note_off_c, 0, 73, 0
2, 236444, Note_off_c, 0, 74, 0
2, 236448, Note_on_c, 0, 73, 90
2, 236476, Note_off_c, 0, 73, 0
2, 236480, Note_on_c, 0, 74, 90
2, 236508, Note_off_c, 0, 74, 0
2, 236512, Note_on_c, 0, 76, 90
2, 236540, Note_off_c, 0, 76, 0
2, 236544, Note_on_c, 0, 74, 90
2, 236572, Note_off_c, 0, 74, 0
2, 236576, Note_on_c, 0, 78, 90
2, 236604, Note_off_c, 0, 78, 0
2, 236608, Note_on_c, 0, 76, 90
2, 236636, Note_off_c, 0, 76, 0
2, 236640, Note_on_c, 0, 74, 90
2, 236668, Note_off_c, 0, 74, 0
2, 236672, Note_on_c, 0, 76, 90
2, 236700, Note_off_c, 0, 76, 0
2, 236704, Note_on_c, 0, 78, 90
2, 236732, Note_off_c, 0, 78, 0
2, 236736, Note_on_c, 0, 76, 90
2, 236756, Note_off_c, 0, 76, 0
2, 236760, Note_on_c, 0, 69, 90
2, 236780, Note_off_c, 0, 69, 0
2, 236784, Note_on_c, 0, 71, 90
2, 236804, Note_off_c, 0, 71, 0
2, 236808, Note_on_c, 0, 73, 90
2, 236828, Note_off_c, 0, 73, 0
2, 236832, Note_on_c, 0, 74, 90
2, 236852, Note_off_c, 0, 74, 0
2, 236856, Note_on_c, 0, 76, 90
2, 236876, Note_off_c, 0, 76, 0
2, 236880, Note_on_c, 0, 78, 90
2, 236900, Note_off_c, 0, 78, 0
2, 236904, Note_on_c, 0, 80, 90
2, 236924, Note_off_c, 0, 80, 0
2, 236928, Note_on_c, 0, 81, 90
2, 236948, Note_off_c, 0, 81, 0
2, 236952, Note_on_c, 0, 83, 90
2, 236972, Note_off_c, 0, 83, 0
2, 236976, Note_on_c, 0, 85, 90
2, 236996, Note_off_c, 0, 85, 0
2, 237000, Note_on_c, 0, 83, 90
2, 237020, Note_off_c, 0, 83, 0
2, 237024, Note_on_c, 0, 81, 89
2, 237044, Note_off_c, 0, 81, 0
2, 237048, Note_on_c, 0, 80, 88
2, 237068, Note_off_c, 0, 80, 0
2, 237072, Note_on_c, 0, 78, 86
2, 237092, Note_off_c, 0, 78, 0
2, 237096, Note_on_c, 0, 77, 85
2, 237116, Note_off_c, 0, 77, 0
2, 237120, Note_on_c, 0, 78, 83
2, 237140, Note_off_c, 0, 78, 0
2, 237144, Note_on_c, 0, 80, 81
2, 237164, Note_off_c, 0, 80, 0
2, 237168, Note_on_c, 0, 81, 79
2, 237188, Note_off_c, 0, 81, 0
2, 237192, Note_on_c, 0, 80, 77
2, 237212, Note_off_c, 0, 80, 0
2, 237216, Note_on_c, 0, 83, 75
2, 237236, Note_off_c, 0, 83, 0
2, 237240, Note_on_c, 0, 81, 74
2, 237260, Note_off_c, 0, 81, 0
2, 237264, Note_on_c, 0, 80, 72
2, 237284, Note_off_c, 0, 80, 0
2, 237288, Note_on_c, 0, 78, 71
2, 237312, Note_on_c, 0, 76, 67
2, 237314, Note_off_c, 0, 78, 0
2, 237356, Note_off_c, 0, 76, 0
2, 237360, Note_on_c, 0, 88, 67
2, 237404, Note_off_c, 0, 88, 0
2, 237408, Note_on_c, 0, 85, 67
2, 237452, Note_off_c, 0, 85, 0
2, 237456, Note_on_c, 0, 81, 67
2, 237500, Note_off_c, 0, 81, 0
2, 237504, Note_on_c, 0, 76, 67
2, 237548, Note_off_c, 0, 76, 0
2, 237552, Note_on_c, 0, 81, 67
2, 237596, Note_off_c, 0, 81, 0
2, 237600, Note_on_c, 0, 76, 67
2, 237644, Note_off_c, 0, 76, 0
2, 237648, Note_on_c, 0, 73, 67
2, 237692, Note_off_c, 0, 73, 0
2, 237696, Note_on_c, 0, 76, 67
2, 237740, Note_off_c, 0, 76, 0
2, 237744, Note_on_c, 0, 74, 67
2, 237788, Note_off_c, 0, 74, 0
2, 237792, Note_on_c, 0, 73, 67
2, 237836, Note_off_c, 0, 73, 0
2, 237840, Note_on_c, 0, 71, 67
2, 237884, Note_off_c, 0, 71, 0
2, 237888, Note_on_c, 0, 71, 67
2, 237888, Note_on_c, 0, 68, 67
2, 238076, Note_off_c, 0, 71, 0
2, 238076, Note_off_c, 0, 68, 0
2, 238080, Note_on_c, 0, 69, 67
2, 238108, Note_off_c, 0, 69, 0
2, 238112, Note_on_c, 0, 64, 67
2, 238140, Note_off_c, 0, 64, 0
2, 238144, Note_on_c, 0, 66, 67
2, 238172, Note_off_c, 0, 66, 0
2, 238176, Note_on_c, 0, 67, 67
2, 238204, Note_off_c, 0, 67, 0
2, 238208, Note_on_c, 0, 68, 67
2, 238236, Note_off_c, 0, 68, 0
2, 238240, Note_on_c, 0, 69, 67
2, 238268, Note_off_c, 0, 69, 0
2, 238272, Note_on_c, 0, 70, 67
2, 238300, Note_off_c, 0, 70, 0
2, 238304, Note_on_c, 0, 71, 67
2, 238332, Note_off_c, 0, 71, 0
2, 238336, Note_on_c, 0, 72, 67
2, 238364, Note_off_c, 0, 72, 0
2, 238368, Note_on_c, 0, 73, 67
2, 238396, Note_off_c, 0, 73, 0
2, 238400, Note_on_c, 0, 74, 67
2, 238428, Note_off_c, 0, 74, 0
2, 238432, Note_on_c, 0, 75, 67
2, 238460, Note_off_c, 0, 75, 0
2, 238464, Note_on_c, 0, 57, 67
2, 238464, Note_on_c, 0, 76, 67
2, 238508, Note_off_c, 0, 57, 0
2, 238512, Note_on_c, 0, 69, 67
2, 238556, Note_off_c, 0, 69, 0
2, 238560, Note_on_c, 0, 61, 67
2, 238604, Note_off_c, 0, 76, 0
2, 238604, Note_off_c, 0, 61, 0
2, 238608, Note_on_c, 0, 69, 67
2, 238608, Note_on_c, 0, 78, 67
2, 238628, Note_off_c, 0, 78, 0
2, 238632, Note_on_c, 0, 76, 67
2, 238652, Note_off_c, 0, 69, 0
2, 238652, Note_off_c, 0, 76, 0
2, 238656, Note_on_c, 0, 57, 67
2, 238656, Note_on_c, 0, 74, 67
2, 238700, Note_off_c, 0, 57, 0
2, 238704, Note_on_c, 0, 68, 67
2, 238748, Note_off_c, 0, 74, 0
2, 238748, Note_off_c, 0, 68, 0
2, 238752, Note_on_c, 0, 59, 67
2, 238752, Note_on_c, 0, 73, 67
2, 238796, Note_off_c, 0, 59, 0
2, 238800, Note_on_c, 0, 68, 67
2, 238844, Note_off_c, 0, 73, 0
2, 238844, Note_off_c, 0, 68, 0
2, 238848, Note_on_c, 0, 57, 67
2, 238848, Note_on_c, 0, 71, 67
2, 238892, Note_off_c, 0, 57, 0
2, 238896, Note_on_c, 0, 67, 67
2, 238940, Note_off_c, 0, 71, 0
2, 238940, Note_off_c, 0, 67, 0
2, 238944, Note_on_c, 0, 61, 67
2, 238944, Note_on_c, 0, 69, 67
2, 238988, Note_off_c, 0, 61, 0
2, 238992, Note_on_c, 0, 67, 67
2, 239036, Note_off_c, 0, 69, 0
2, 239036, Note_off_c, 0, 67, 0
2, 239040, Note_on_c, 0, 57, 67
2, 239040, Note_on_c, 0, 69, 67
2, 239084, Note_off_c, 0, 57, 0
2, 239088, Note_on_c, 0, 66, 67
2, 239132, Note_off_c, 0, 66, 0
2, 239136, Note_on_c, 0, 62, 67
2, 239180, Note_off_c, 0, 62, 0
2, 239184, Note_off_c, 0, 69, 0
2, 239184, Note_on_c, 0, 66, 67
2, 239184, Note_on_c, 0, 78, 67
2, 239228, Note_off_c, 0, 66, 0
2, 239228, Note_off_c, 0, 78, 0
2, 239232, Note_on_c, 0, 78, 67
2, 239420, Note_off_c, 0, 78, 0
2, 239424, Note_on_c, 0, 62, 90
2, 239612, Note_off_c, 0, 62, 0
2, 239616, Note_on_c, 0, 62, 90
2, 239636, Note_off_c, 0, 62, 0
2, 239640, Note_on_c, 0, 66, 90
2, 239660, Note_off_c, 0, 66, 0
2, 239664, Note_on_c, 0, 64, 90
2, 239684, Note_off_c, 0, 64, 0
2, 239688, Note_on_c, 0, 62, 90
2, 239708, Note_off_c, 0, 62, 0
2, 239712, Note_on_c, 0, 64, 90
2, 239732, Note_off_c, 0, 64, 0
2, 239736, Note_on_c, 0, 66, 90
2, 239756, Note_off_c, 0, 66, 0
2, 239760, Note_on_c, 0, 67, 90
2, 239780, Note_off_c, 0, 67, 0
2, 239784, Note_on_c, 0, 69, 90
2, 239804, Note_off_c, 0, 69, 0
2, 239808, Note_on_c, 0, 71, 90
2, 239828, Note_off_c, 0, 71, 0
2, 239832, Note_on_c, 0, 73, 90
2, 239852, Note_off_c, 0, 73, 0
2, 239856, Note_on_c, 0, 74, 90
2, 239876, Note_off_c, 0, 74, 0
2, 239880, Note_on_c, 0, 76, 90
2, 239900, Note_off_c, 0, 76, 0
2, 239904, Note_on_c, 0, 78, 90
2, 239936, Note_off_c, 0, 78, 0
2, 239936, Note_on_c, 0, 79, 90
2, 239968, Note_off_c, 0, 79, 0
2, 239968, Note_on_c, 0, 81, 90
2, 240000, Note_off_c, 0, 81, 0
2, 240000, Note_on_c, 0, 83, 90
2, 240032, Note_off_c, 0, 83, 0
2, 240048, Note_on_c, 0, 85, 90
2, 240080, Note_off_c, 0, 85, 0
2, 240096, Note_on_c, 0, 86, 90
2, 240144, Note_off_c, 0, 86, 0
2, 240160, Note_on_c, 0, 78, 90
2, 240180, Note_off_c, 0, 78, 0
2, 240192, Note_on_c, 0, 81, 90
2, 240332, Note_off_c, 0, 81, 0
2, 240336, Note_on_c, 0, 78, 90
2, 240380, Note_off_c, 0, 78, 0
2, 240384, Note_on_c, 0, 76, 90
2, 240476, Note_off_c, 0, 76, 0
2, 240480, Note_on_c, 0, 76, 90
2, 240572, Note_off_c, 0, 76, 0
2, 240576, Note_on_c, 0, 76, 90
2, 240668, Note_off_c, 0, 76, 0
2, 240672, Note_on_c, 0, 76, 90
2, 240764, Note_off_c, 0, 76, 0
2, 240768, Note_on_c, 0, 78, 90
2, 240812, Note_off_c, 0, 78, 0
2, 240816, Note_on_c, 0, 76, 67
2, 240860, Note_off_c, 0, 76, 0
2, 240864, Note_on_c, 0, 73, 67
2, 240908, Note_off_c, 0, 73, 0
2, 240912, Note_on_c, 0, 71, 67
2, 240956, Note_off_c, 0, 71, 0
2, 240960, Note_on_c, 0, 69, 67
2, 241052, Note_off_c, 0, 69, 0
2, 241056, Note_on_c, 0, 76, 67
2, 241148, Note_off_c, 0, 76, 0
2, 241152, Note_on_c, 0, 76, 90
2, 241244, Note_off_c, 0, 76, 0
2, 241248, Note_on_c, 0, 76, 67
2, 241340, Note_off_c, 0, 76, 0
2, 241344, Note_on_c, 0, 78, 67
2, 241388, Note_off_c, 0, 78, 0
2, 241392, Note_on_c, 0, 76, 67
2, 241436, Note_off_c, 0, 76, 0
2, 241440, Note_on_c, 0, 74, 67
2, 241484, Note_off_c, 0, 74, 0
2, 241488, Note_on_c, 0, 71, 67
2, 241532, Note_off_c, 0, 71, 0
2, 241536, Note_on_c, 0, 68, 67
2, 241628, Note_off_c, 0, 68, 0
2, 241632, Note_on_c, 0, 76, 67
2, 241724, Note_off_c, 0, 76, 0
2, 241728, Note_on_c, 0, 76, 67
2, 241820, Note_off_c, 0, 76, 0
2, 241824, Note_on_c, 0, 76, 67
2, 241916, Note_off_c, 0, 76, 0
2, 241920, Note_on_c, 0, 78, 90
2, 241964, Note_off_c, 0, 78, 0
2, 241968, Note_on_c, 0, 76, 90
2, 242012, Note_off_c, 0, 76, 0
2, 242016, Note_on_c, 0, 73, 90
2, 242060, Note_off_c, 0, 73, 0
2, 242064, Note_on_c, 0, 69, 90
2, 242108, Note_off_c, 0, 69, 0
2, 242112, Note_on_c, 0, 78, 67
2, 242156, Note_off_c, 0, 78, 0
2, 242160, Note_on_c, 0, 76, 67
2, 242204, Note_off_c, 0, 76, 0
2, 242208, Note_on_c, 0, 74, 67
2, 242252, Note_off_c, 0, 74, 0
2, 242256, Note_on_c, 0, 71, 67
2, 242300, Note_off_c, 0, 71, 0
2, 242304, Note_on_c, 0, 78, 67
2, 242348, Note_off_c, 0, 78, 0
2, 242352, Note_on_c, 0, 76, 67
2, 242396, Note_off_c, 0, 76, 0
2, 242400, Note_on_c, 0, 73, 67
2, 242444, Note_off_c, 0, 73, 0
2, 242448, Note_on_c, 0, 69, 67
2, 242492, Note_off_c, 0, 69, 0
2, 242496, Note_on_c, 0, 73, 67
2, 242684, Note_off_c, 0, 73, 0
2, 242688, Note_on_c, 0, 71, 67
2, 242732, Note_off_c, 0, 71, 0
2, 242736, Note_on_c, 0, 64, 67
2, 242780, Note_off_c, 0, 64, 0
2, 242784, Note_on_c, 0, 76, 67
2, 242828, Note_off_c, 0, 76, 0
2, 242832, Note_on_c, 0, 64, 67
2, 242876, Note_off_c, 0, 64, 0
2, 242880, Note_on_c, 0, 75, 67
2, 242924, Note_off_c, 0, 75, 0
2, 242928, Note_on_c, 0, 64, 67
2, 242972, Note_off_c, 0, 64, 0
2, 242976, Note_on_c, 0, 74, 67
2, 243020, Note_off_c, 0, 74, 0
2, 243024, Note_on_c, 0, 64, 67
2, 243068, Note_off_c, 0, 64, 0
2, 243072, Note_on_c, 0, 73, 67
2, 243260, Note_off_c, 0, 73, 0
2, 243264, Note_on_c, 0, 73, 67
2, 243504, Note_on_c, 0, 74, 67
2, 243524, Note_off_c, 0, 74, 0
2, 243528, Note_on_c, 0, 73, 67
2, 243548, Note_off_c, 0, 73, 0
2, 243548, Note_off_c, 0, 73, 0
2, 243552, Note_on_c, 0, 71, 67
2, 243572, Note_off_c, 0, 71, 0
2, 243576, Note_on_c, 0, 73, 67
2, 243596, Note_off_c, 0, 73, 0
2, 243600, Note_on_c, 0, 74, 67
2, 243644, Note_off_c, 0, 74, 0
2, 243648, Note_on_c, 0, 78, 67
2, 243740, Note_off_c, 0, 78, 0
2, 243744, Note_on_c, 0, 76, 67
2, 243788, Note_off_c, 0, 76, 0
2, 243840, Note_on_c, 0, 87, 67
2, 243932, Note_off_c, 0, 87, 0
2, 243936, Note_on_c, 0, 88, 67
2, 243980, Note_off_c, 0, 88, 0
2, 243984, Note_on_c, 0, 76, 67
2, 244028, Note_off_c, 0, 76, 0
2, 244032, Note_on_c, 0, 78, 67
2, 244076, Note_off_c, 0, 78, 0
2, 244080, Note_on_c, 0, 76, 67
2, 244124, Note_off_c, 0, 76, 0
2, 244128, Note_on_c, 0, 74, 67
2, 244172, Note_off_c, 0, 74, 0
2, 244176, Note_on_c, 0, 73, 67
2, 244220, Note_off_c, 0, 73, 0
2, 244224, Note_on_c, 0, 73, 67
2, 244316, Note_off_c, 0, 73, 0
2, 244320, Note_on_c, 0, 71, 67
2, 244508, Note_off_c, 0, 71, 0
2, 244512, Note_on_c, 0, 71, 67
2, 244608, Note_on_c, 0, 73, 67
2, 244628, Note_off_c, 0, 73, 0
2, 244632, Note_on_c, 0, 71, 67
2, 244652, Note_off_c, 0, 71, 0
2, 244656, Note_on_c, 0, 70, 67
2, 244676, Note_off_c, 0, 70, 0
2, 244700, Note_off_c, 0, 71, 0
2, 244704, Note_on_c, 0, 71, 67
2, 244748, Note_off_c, 0, 71, 0
2, 244752, Note_on_c, 0, 73, 67
2, 244796, Note_off_c, 0, 73, 0
2, 244800, Note_on_c, 0, 76, 67
2, 244892, Note_off_c, 0, 76, 0
2, 244896, Note_on_c, 0, 74, 67
2, 244940, Note_off_c, 0, 74, 0
2, 244992, Note_on_c, 0, 85, 67
2, 245084, Note_off_c, 0, 85, 0
2, 245088, Note_on_c, 0, 86, 67
2, 245132, Note_off_c, 0, 86, 0
2, 245136, Note_on_c, 0, 74, 67
2, 245180, Note_off_c, 0, 74, 0
2, 245184, Note_on_c, 0, 76, 67
2, 245228, Note_off_c, 0, 76, 0
2, 245232, Note_on_c, 0, 74, 67
2, 245276, Note_off_c, 0, 74, 0
2, 245280, Note_on_c, 0, 73, 67
2, 245324, Note_off_c, 0, 73, 0
2, 245328, Note_on_c, 0, 71, 67
2, 245372, Note_off_c, 0, 71, 0
2, 245376, Note_on_c, 0, 71, 67
2, 245468, Note_off_c, 0, 71, 0
2, 245472, Note_on_c, 0, 69, 67
2, 245564, Note_off_c, 0, 69, 0
2, 245568, Note_on_c, 0, 69, 67
2, 245612, Note_off_c, 0, 69, 0
2, 245616, Note_on_c, 0, 69, 67
2, 245660, Note_off_c, 0, 69, 0
2, 245664, Note_on_c, 0, 74, 67
2, 245708, Note_off_c, 0, 74, 0
2, 245712, Note_on_c, 0, 73, 67
2, 245756, Note_off_c, 0, 73, 0
2, 245760, Note_on_c, 0, 70, 67
2, 245804, Note_off_c, 0, 70, 0
2, 245808, Note_on_c, 0, 71, 67
2, 245852, Note_off_c, 0, 71, 0
2, 245856, Note_on_c, 0, 76, 67
2, 245900, Note_off_c, 0, 76, 0
2, 245904, Note_on_c, 0, 74, 67
2, 245948, Note_off_c, 0, 74, 0
2, 245952, Note_on_c, 0, 72, 67
2, 245996, Note_off_c, 0, 72, 0
2, 246000, Note_on_c, 0, 73, 67
2, 246044, Note_off_c, 0, 73, 0
2, 246048, Note_on_c, 0, 81, 70
2, 246092, Note_off_c, 0, 81, 0
2, 246096, Note_on_c, 0, 81, 71
2, 246140, Note_off_c, 0, 81, 0
2, 246144, Note_on_c, 0, 81, 72
2, 246188, Note_off_c, 0, 81, 0
2, 246192, Note_on_c, 0, 81, 75
2, 246236, Note_off_c, 0, 81, 0
2, 246240, Note_on_c, 0, 81, 77
2, 246284, Note_off_c, 0, 81, 0
2, 246288, Note_on_c, 0, 81, 80
2, 246332, Note_off_c, 0, 81, 0
2, 246336, Note_on_c, 0, 81, 81
2, 246380, Note_off_c, 0, 81, 0
2, 246384, Note_on_c, 0, 78, 83
2, 246428, Note_off_c, 0, 78, 0
2, 246432, Note_on_c, 0, 74, 86
2, 246476, Note_off_c, 0, 74, 0
2, 246480, Note_on_c, 0, 71, 88
2, 246524, Note_off_c, 0, 71, 0
2, 246528, Note_on_c, 0, 76, 90
2, 246576, Note_on_c, 0, 78, 90
2, 246596, Note_off_c, 0, 78, 0
2, 246600, Note_on_c, 0, 76, 90
2, 246620, Note_off_c, 0, 76, 0
2, 246622, Note_off_c, 0, 76, 0
2, 246624, Note_on_c, 0, 75, 90
2, 246644, Note_off_c, 0, 75, 0
2, 246648, Note_on_c, 0, 76, 90
2, 246668, Note_off_c, 0, 76, 0
2, 246672, Note_on_c, 0, 78, 90
2, 246716, Note_off_c, 0, 78, 0
2, 246720, Note_on_c, 0, 69, 90
2, 247004, Note_off_c, 0, 69, 0
2, 247008, Note_on_c, 0, 71, 67
2, 247008, Note_on_c, 0, 68, 67
2, 247100, Note_off_c, 0, 71, 0
2, 247100, Note_off_c, 0, 68, 0
2, 247104, Note_on_c, 0, 71, 67
2, 247104, Note_on_c, 0, 68, 67
2, 247388, Note_off_c, 0, 71, 0
2, 247388, Note_off_c, 0, 68, 0
2, 247392, Note_on_c, 0, 72, 67
2, 247484, Note_off_c, 0, 72, 0
2, 247488, Note_on_c, 0, 73, 67
2, 247488, Note_on_c, 0, 69, 67
2, 247676, Note_off_c, 0, 73, 0
2, 247676, Note_off_c, 0, 69, 0
2, 247680, Note_on_c, 0, 64, 90
2, 247724, Note_off_c, 0, 64, 0
2, 247728, Note_on_c, 0, 69, 90
2, 247772, Note_off_c, 0, 69, 0
2, 247776, Note_on_c, 0, 73, 90
2, 247872, Note_on_c, 0, 73, 90
2, 247900, Note_off_c, 0, 73, 0
2, 247904, Note_on_c, 0, 76, 90
2, 247932, Note_off_c, 0, 76, 0
2, 247936, Note_on_c, 0, 74, 90
2, 247964, Note_off_c, 0, 73, 0
2, 247964, Note_off_c, 0, 74, 0
2, 247968, Note_on_c, 0, 73, 90
2, 247996, Note_off_c, 0, 73, 0
2, 248000, Note_on_c, 0, 74, 90
2, 248028, Note_off_c, 0, 74, 0
2, 248032, Note_on_c, 0, 76, 90
2, 248060, Note_off_c, 0, 76, 0
2, 248064, Note_on_c, 0, 74, 90
2, 248092, Note_off_c, 0, 74, 0
2, 248096, Note_on_c, 0, 78, 90
2, 248124, Note_off_c, 0, 78, 0
2, 248128, Note_on_c, 0, 76, 90
2, 248156, Note_off_c, 0, 76, 0
2, 248160, Note_on_c, 0, 74, 90
2, 248188, Note_off_c, 0, 74, 0
2, 248192, Note_on_c, 0, 76, 90
2, 248220, Note_off_c, 0, 76, 0
2, 248224, Note_on_c, 0, 78, 90
2, 248252, Note_off_c, 0, 78, 0
2, 248256, Note_on_c, 0, 76, 90
2, 248276, Note_off_c, 0, 76, 0
2, 248280, Note_on_c, 0, 69, 90
2, 248300, Note_off_c, 0, 69, 0
2, 248304, Note_on_c, 0, 71, 90
2, 248324, Note_off_c, 0, 71, 0
2, 248328, Note_on_c, 0, 73, 90
2, 248348, Note_off_c, 0, 73, 0
2, 248352, Note_on_c, 0, 74, 90
2, 248372, Note_off_c, 0, 74, 0
2, 248376, Note_on_c, 0, 76, 90
2, 248396, Note_off_c, 0, 76, 0
2, 248400, Note_on_c, 0, 78, 90
2, 248420, Note_off_c, 0, 78, 0
2, 248424, Note_on_c, 0, 80, 90
2, 248444, Note_off_c, 0, 80, 0
2, 248448, Note_on_c, 0, 81, 90
2, 248468, Note_off_c, 0, 81, 0
2, 248472, Note_on_c, 0, 83, 90
2, 248492, Note_off_c, 0, 83, 0
2, 248496, Note_on_c, 0, 85, 90
2, 248516, Note_off_c, 0, 85, 0
2, 248520, Note_on_c, 0, 83, 90
2, 248540, Note_off_c, 0, 83, 0
2, 248544, Note_on_c, 0, 81, 89
2, 248564, Note_off_c, 0, 81, 0
2, 248568, Note_on_c, 0, 80, 88
2, 248588, Note_off_c, 0, 80, 0
2, 248592, Note_on_c, 0, 78, 86
2, 248612, Note_off_c, 0, 78, 0
2, 248616, Note_on_c, 0, 77, 85
2, 248636, Note_off_c, 0, 77, 0
2, 248640, Note_on_c, 0, 78, 83
2, 248660, Note_off_c, 0, 78, 0
2, 248664, Note_on_c, 0, 80, 81
2, 248684, Note_off_c, 0, 80, 0
2, 248688, Note_on_c, 0, 81, 79
2, 248708, Note_off_c, 0, 81, 0
2, 248712, Note_on_c, 0, 80, 77
2, 248732, Note_off_c, 0, 80, 0
2, 248736, Note_on_c, 0, 83, 75
2, 248756, Note_off_c, 0, 83, 0
2, 248760, Note_on_c, 0, 81, 74
2, 248780, Note_off_c, 0, 81, 0
2, 248784, Note_on_c, 0, 80, 72
2, 248804, Note_off_c, 0, 80, 0
2, 248808, Note_on_c, 0, 78, 71
2, 248832, Note_on_c, 0, 76, 67
2, 248834, Note_off_c, 0, 78, 0
2, 248876, Note_off_c, 0, 76, 0
2, 248880, Note_on_c, 0, 88, 67
2, 248924, Note_off_c, 0, 88, 0
2, 248928, Note_on_c, 0, 85, 67
2, 248972, Note_off_c, 0, 85, 0
2, 248976, Note_on_c, 0, 81, 67
2, 249020, Note_off_c, 0, 81, 0
2, 249024, Note_on_c, 0, 76, 67
2, 249068, Note_off_c, 0, 76, 0
2, 249072, Note_on_c, 0, 81, 67
2, 249116, Note_off_c, 0, 81, 0
2, 249120, Note_on_c, 0, 76, 67
2, 249164, Note_off_c, 0, 76, 0
2, 249168, Note_on_c, 0, 73, 67
2, 249212, Note_off_c, 0, 73, 0
2, 249216, Note_on_c, 0, 76, 67
2, 249260, Note_off_c, 0, 76, 0
2, 249264, Note_on_c, 0, 74, 67
2, 249308, Note_off_c, 0, 74, 0
2, 249312, Note_on_c, 0, 73, 67
2, 249356, Note_off_c, 0, 73, 0
2, 249360, Note_on_c, 0, 71, 67
2, 249404, Note_off_c, 0, 71, 0
2, 249408, Note_on_c, 0, 64, 67
2, 249408, Note_on_c, 0, 68, 67
2, 249408, Note_on_c, 0, 71, 67
2, 249788, Note_off_c, 0, 68, 0
2, 249788, Note_off_c, 0, 71, 0
2, 249792, Note_on_c, 0, 69, 67
2, 249980, Note_off_c, 0, 64, 0
2, 249980, Note_off_c, 0, 69, 0
2, 249984, Note_on_c, 0, 73, 67
2, 250172, Note_off_c, 0, 73, 0
2, 250176, Note_on_c, 0, 74, 67
2, 250268, Note_off_c, 0, 74, 0
2, 250272, Note_on_c, 0, 73, 67
2, 250364, Note_off_c, 0, 73, 0
2, 250368, Note_on_c, 0, 71, 67
2, 250460, Note_off_c, 0, 71, 0
2, 250464, Note_on_c, 0, 73, 67
2, 250560, Note_on_c, 0, 74, 67
2, 250652, Note_off_c, 0, 73, 0
2, 250748, Note_off_c, 0, 74, 0
2, 250752, Note_on_c, 0, 78, 67
2, 250940, Note_off_c, 0, 78, 0
2, 250944, Note_on_c, 0, 76, 67
2, 251132, Note_off_c, 0, 76, 0
2, 251136, Note_on_c, 0, 74, 67
2, 251324, Note_off_c, 0, 74, 0
2, 251328, Note_on_c, 0, 73, 67
2, 251516, Note_off_c, 0, 73, 0
2, 251520, Note_on_c, 0, 71, 67
2, 251708, Note_off_c, 0, 71, 0
2, 251712, Note_on_c, 0, 73, 67
2, 251804, Note_off_c, 0, 73, 0
2, 251808, Note_on_c, 0, 71, 67
2, 251900, Note_off_c, 0, 71, 0
2, 251904, Note_on_c, 0, 70, 67
2, 251996, Note_off_c, 0, 70, 0
2, 252000, Note_on_c, 0, 71, 67
2, 252096, Note_on_c, 0, 73, 67
2, 252188, Note_off_c, 0, 71, 0
2, 252284, Note_off_c, 0, 73, 0
2, 252288, Note_on_c, 0, 76, 67
2, 252476, Note_off_c, 0, 76, 0
2, 252480, Note_on_c, 0, 74, 67
2, 252668, Note_off_c, 0, 74, 0
2, 252672, Note_on_c, 0, 73, 67
2, 252860, Note_off_c, 0, 73, 0
2, 252864, Note_on_c, 0, 71, 67
2, 253052, Note_off_c, 0, 71, 0
2, 253056, Note_on_c, 0, 68, 67
2, 253244, Note_off_c, 0, 68, 0
2, 253248, Note_on_c, 0, 69, 67
2, 253436, Note_off_c, 0, 69, 0
2, 253632, Note_on_c, 0, 70, 67
2, 253820, Note_off_c, 0, 70, 0
2, 254016, Note_on_c, 0, 71, 67
2, 254204, Note_off_c, 0, 71, 0
2, 254400, Note_on_c, 0, 72, 67
2, 254588, Note_off_c, 0, 72, 0
2, 254592, Note_on_c, 0, 74, 67
2, 254624, Note_on_c, 0, 73, 67
2, 254636, Note_off_c, 0, 74, 0
2, 254784, Note_on_c, 0, 73, 67
2, 254812, Note_off_c, 0, 73, 0
2, 254972, Note_off_c, 0, 73, 0
2, 254976, Note_on_c, 0, 76, 67
2, 255008, Note_on_c, 0, 74, 67
2, 255020, Note_off_c, 0, 76, 0
2, 255168, Note_on_c, 0, 74, 67
2, 255196, Note_off_c, 0, 74, 0
2, 255356, Note_off_c, 0, 74, 0
2, 255360, Note_on_c, 0, 73, 67
2, 255740, Note_off_c, 0, 73, 0
2, 255744, Note_on_c, 0, 71, 67
2, 255932, Note_off_c, 0, 71, 0
2, 256128, Note_on_c, 0, 73, 90
2, 256220, Note_off_c, 0, 73, 0
2, 256224, Note_on_c, 0, 69, 90
2, 256316, Note_off_c, 0, 69, 0
2, 256320, Note_on_c, 0, 64, 90
2, 256412, Note_off_c, 0, 64, 0
2, 256416, Note_on_c, 0, 69, 90
2, 256508, Note_off_c, 0, 69, 0
2, 256512, Note_on_c, 0, 73, 90
2, 256604, Note_off_c, 0, 73, 0
2, 256608, Note_on_c, 0, 69, 90
2, 256700, Note_off_c, 0, 69, 0
2, 256704, Note_on_c, 0, 74, 90
2, 256796, Note_off_c, 0, 74, 0
2, 256800, Note_on_c, 0, 71, 90
2, 256892, Note_off_c, 0, 71, 0
2, 256896, Note_on_c, 0, 57, 90
2, 256896, Note_on_c, 0, 76, 90
2, 256908, Note_on_c, 0, 61, 90
2, 256924, Note_on_c, 0, 64, 90
2, 256940, Note_on_c, 0, 69, 90
2, 256988, Note_off_c, 0, 76, 0
2, 256992, Note_on_c, 0, 73, 90
2, 257084, Note_off_c, 0, 73, 0
2, 257088, Note_on_c, 0, 76, 90
2, 257180, Note_off_c, 0, 76, 0
2, 257184, Note_on_c, 0, 73, 90
2, 257276, Note_off_c, 0, 73, 0
2, 257280, Note_on_c, 0, 78, 90
2, 257372, Note_off_c, 0, 78, 0
2, 257376, Note_on_c, 0, 76, 90
2, 257468, Note_off_c, 0, 57, 0
2, 257468, Note_off_c, 0, 76, 0
2, 257472, Note_on_c, 0, 74, 90
2, 257480, Note_off_c, 0, 61, 0
2, 257496, Note_off_c, 0, 64, 0
2, 257512, Note_off_c, 0, 69, 0
2, 257564, Note_off_c, 0, 74, 0
2, 257568, Note_on_c, 0, 73, 90
2, 257660, Note_off_c, 0, 73, 0
2, 257664, Note_on_c, 0, 71, 90
2, 257756, Note_off_c, 0, 71, 0
2, 257760, Note_on_c, 0, 68, 90
2, 257852, Note_off_c, 0, 68, 0
2, 257856, Note_on_c, 0, 64, 90
2, 257948, Note_off_c, 0, 64, 0
2, 257952, Note_on_c, 0, 68, 90
2, 258044, Note_off_c, 0, 68, 0
2, 258048, Note_on_c, 0, 71, 90
2, 258140, Note_off_c, 0, 71, 0
2, 258144, Note_on_c, 0, 68, 90
2, 258236, Note_off_c, 0, 68, 0
2, 258240, Note_on_c, 0, 73, 90
2, 258332, Note_off_c, 0, 73, 0
2, 258336, Note_on_c, 0, 69, 90
2, 258428, Note_off_c, 0, 69, 0
2, 258432, Note_on_c, 0, 74, 90
2, 258524, Note_off_c, 0, 74, 0
2, 258528, Note_on_c, 0, 71, 90
2, 258620, Note_off_c, 0, 71, 0
2, 258624, Note_on_c, 0, 74, 90
2, 258716, Note_off_c, 0, 74, 0
2, 258720, Note_on_c, 0, 71, 90
2, 258812, Note_off_c, 0, 71, 0
2, 258816, Note_on_c, 0, 76, 90
2, 258908, Note_off_c, 0, 76, 0
2, 258912, Note_on_c, 0, 74, 90
2, 259004, Note_off_c, 0, 74, 0
2, 259008, Note_on_c, 0, 73, 90
2, 259100, Note_off_c, 0, 73, 0
2, 259104, Note_on_c, 0, 71, 90
2, 259196, Note_off_c, 0, 71, 0
2, 259200, Note_on_c, 0, 69, 90
2, 259292, Note_off_c, 0, 69, 0
2, 259296, Note_on_c, 0, 73, 90
2, 259388, Note_off_c, 0, 73, 0
2, 259392, Note_on_c, 0, 71, 90
2, 259484, Note_off_c, 0, 71, 0
2, 259488, Note_on_c, 0, 69, 90
2, 259580, Note_off_c, 0, 69, 0
2, 259584, Note_on_c, 0, 71, 90
2, 259676, Note_off_c, 0, 71, 0
2, 259680, Note_on_c, 0, 74, 90
2, 259772, Note_off_c, 0, 74, 0
2, 259776, Note_on_c, 0, 73, 90
2, 259868, Note_off_c, 0, 73, 0
2, 259872, Note_on_c, 0, 71, 90
2, 259964, Note_off_c, 0, 71, 0
2, 259968, Note_on_c, 0, 73, 90
2, 260060, Note_off_c, 0, 73, 0
2, 260064, Note_on_c, 0, 76, 90
2, 260156, Note_off_c, 0, 76, 0
2, 260160, Note_on_c, 0, 81, 90
2, 260252, Note_off_c, 0, 81, 0
2, 260256, Note_on_c, 0, 76, 90
2, 260348, Note_off_c, 0, 76, 0
2, 260352, Note_on_c, 0, 78, 90
2, 260444, Note_off_c, 0, 78, 0
2, 260448, Note_on_c, 0, 81, 90
2, 260540, Note_off_c, 0, 81, 0
2, 260544, Note_on_c, 0, 71, 90
2, 260636, Note_off_c, 0, 71, 0
2, 260640, Note_on_c, 0, 74, 90
2, 260732, Note_off_c, 0, 74, 0
2, 260736, Note_on_c, 0, 73, 90
2, 260828, Note_off_c, 0, 73, 0
2, 260832, Note_on_c, 0, 76, 90
2, 260924, Note_off_c, 0, 76, 0
2, 260928, Note_on_c, 0, 69, 90
2, 261020, Note_off_c, 0, 69, 0
2, 261024, Note_on_c, 0, 73, 90
2, 261116, Note_off_c, 0, 73, 0
2, 261120, Note_on_c, 0, 71, 90
2, 261212, Note_off_c, 0, 71, 0
2, 261216, Note_on_c, 0, 74, 90
2, 261308, Note_off_c, 0, 74, 0
2, 261312, Note_on_c, 0, 68, 90
2, 261404, Note_off_c, 0, 68, 0
2, 261408, Note_on_c, 0, 71, 90
2, 261500, Note_off_c, 0, 71, 0
2, 261504, Note_on_c, 0, 69, 90
2, 261596, Note_off_c, 0, 69, 0
2, 261600, Note_on_c, 0, 64, 90
2, 261692, Note_off_c, 0, 64, 0
2, 261696, Note_on_c, 0, 61, 90
2, 261788, Note_off_c, 0, 61, 0
2, 261792, Note_on_c, 0, 64, 90
2, 261884, Note_off_c, 0, 64, 0
2, 261888, Note_on_c, 0, 69, 90
2, 262268, Note_off_c, 0, 69, 0
2, 262272, Note_on_c, 0, 73, 67
2, 262460, Note_off_c, 0, 73, 0
2, 262464, Note_on_c, 0, 74, 67
2, 262556, Note_off_c, 0, 74, 0
2, 262560, Note_on_c, 0, 73, 67
2, 262652, Note_off_c, 0, 73, 0
2, 262656, Note_on_c, 0, 71, 67
2, 262748, Note_off_c, 0, 71, 0
2, 262752, Note_on_c, 0, 73, 67
2, 262848, Note_on_c, 0, 74, 67
2, 262940, Note_off_c, 0, 73, 0
2, 263036, Note_off_c, 0, 74, 0
2, 263040, Note_on_c, 0, 78, 67
2, 263228, Note_off_c, 0, 78, 0
2, 263232, Note_on_c, 0, 76, 67
2, 263420, Note_off_c, 0, 76, 0
2, 263424, Note_on_c, 0, 74, 67
2, 263612, Note_off_c, 0, 74, 0
2, 263616, Note_on_c, 0, 73, 67
2, 263804, Note_off_c, 0, 73, 0
2, 263808, Note_on_c, 0, 71, 67
2, 263996, Note_off_c, 0, 71, 0
2, 264000, Note_on_c, 0, 73, 67
2, 264092, Note_off_c, 0, 73, 0
2, 264096, Note_on_c, 0, 71, 67
2, 264188, Note_off_c, 0, 71, 0
2, 264192, Note_on_c, 0, 70, 67
2, 264284, Note_off_c, 0, 70, 0
2, 264288, Note_on_c, 0, 71, 67
2, 264384, Note_on_c, 0, 73, 67
2, 264476, Note_off_c, 0, 71, 0
2, 264572, Note_off_c, 0, 73, 0
2, 264576, Note_on_c, 0, 76, 67
2, 264764, Note_off_c, 0, 76, 0
2, 264768, Note_on_c, 0, 74, 67
2, 264956, Note_off_c, 0, 74, 0
2, 264960, Note_on_c, 0, 73, 67
2, 265148, Note_off_c, 0, 73, 0
2, 265152, Note_on_c, 0, 71, 67
2, 265340, Note_off_c, 0, 71, 0
2, 265344, Note_on_c, 0, 68, 67
2, 265532, Note_off_c, 0, 68, 0
2, 265536, Note_on_c, 0, 69, 67
2, 265724, Note_off_c, 0, 69, 0
2, 265920, Note_on_c, 0, 70, 67
2, 266108, Note_off_c, 0, 70, 0
2, 266304, Note_on_c, 0, 71, 67
2, 266492, Note_off_c, 0, 71, 0
2, 266688, Note_on_c, 0, 72, 67
2, 266876, Note_off_c, 0, 72, 0
2, 266880, Note_on_c, 0, 74, 67
2, 266912, Note_on_c, 0, 73, 67
2, 266924, Note_off_c, 0, 74, 0
2, 267072, Note_on_c, 0, 73, 67
2, 267100, Note_off_c, 0, 73, 0
2, 267260, Note_off_c, 0, 73, 0
2, 267264, Note_on_c, 0, 76, 67
2, 267296, Note_on_c, 0, 74, 67
2, 267308, Note_off_c, 0, 76, 0
2, 267456, Note_on_c, 0, 74, 67
2, 267484, Note_off_c, 0, 74, 0
2, 267644, Note_off_c, 0, 74, 0
2, 267648, Note_on_c, 0, 73, 67
2, 268028, Note_off_c, 0, 73, 0
2, 268032, Note_on_c, 0, 71, 67
2, 268220, Note_off_c, 0, 71, 0
2, 268416, Note_on_c, 0, 73, 90
2, 268508, Note_off_c, 0, 73, 0
2, 268512, Note_on_c, 0, 69, 90
2, 268604, Note_off_c, 0, 69, 0
2, 268608, Note_on_c, 0, 64, 90
2, 268700, Note_off_c, 0, 64, 0
2, 268704, Note_on_c, 0, 69, 90
2, 268796, Note_off_c, 0, 69, 0
2, 268800, Note_on_c, 0, 73, 90
2, 268892, Note_off_c, 0, 73, 0
2, 268896, Note_on_c, 0, 69, 90
2, 268988, Note_off_c, 0, 69, 0
2, 268992, Note_on_c, 0, 74, 90
2, 269084, Note_off_c, 0, 74, 0
2, 269088, Note_on_c, 0, 71, 90
2, 269180, Note_off_c, 0, 71, 0
2, 269184, Note_on_c, 0, 57, 90
2, 269184, Note_on_c, 0, 76, 90
2, 269196, Note_on_c, 0, 61, 90
2, 269212, Note_on_c, 0, 64, 90
2, 269228, Note_on_c, 0, 69, 90
2, 269276, Note_off_c, 0, 76, 0
2, 269280, Note_on_c, 0, 73, 90
2, 269372, Note_off_c, 0, 73, 0
2, 269376, Note_on_c, 0, 76, 90
2, 269468, Note_off_c, 0, 76, 0
2, 269472, Note_on_c, 0, 73, 90
2, 269564, Note_off_c, 0, 73, 0
2, 269568, Note_on_c, 0, 78, 90
2, 269660, Note_off_c, 0, 78, 0
2, 269664, Note_on_c, 0, 76, 90
2, 269756, Note_off_c, 0, 57, 0
2, 269756, Note_off_c, 0, 76, 0
2, 269760, Note_on_c, 0, 74, 90
2, 269768, Note_off_c, 0, 61, 0
2, 269784, Note_off_c, 0, 64, 0
2, 269800, Note_off_c, 0, 69, 0
2, 269852, Note_off_c, 0, 74, 0
2, 269856, Note_on_c, 0, 73, 90
2, 269948, Note_off_c, 0, 73, 0
2, 269952, Note_on_c, 0, 71, 90
2, 270044, Note_off_c, 0, 71, 0
2, 270048, Note_on_c, 0, 68, 90
2, 270140, Note_off_c, 0, 68, 0
2, 270144, Note_on_c, 0, 64, 90
2, 270236, Note_off_c, 0, 64, 0
2, 270240, Note_on_c, 0, 68, 90
2, 270332, Note_off_c, 0, 68, 0
2, 270336, Note_on_c, 0, 71, 90
2, 270428, Note_off_c, 0, 71, 0
2, 270432, Note_on_c, 0, 68, 90
2, 270524, Note_off_c, 0, 68, 0
2, 270528, Note_on_c, 0, 73, 90
2, 270620, Note_off_c, 0, 73, 0
2, 270624, Note_on_c, 0, 69, 90
2, 270716, Note_off_c, 0, 69, 0
2, 270720, Note_on_c, 0, 74, 90
2, 270812, Note_off_c, 0, 74, 0
2, 270816, Note_on_c, 0, 71, 90
2, 270908, Note_off_c, 0, 71, 0
2, 270912, Note_on_c, 0, 74, 90
2, 271004, Note_off_c, 0, 74, 0
2, 271008, Note_on_c, 0, 71, 90
2, 271100, Note_off_c, 0, 71, 0
2, 271104, Note_on_c, 0, 76, 90
2, 271196, Note_off_c, 0, 76, 0
2, 271200, Note_on_c, 0, 74, 90
2, 271292, Note_off_c, 0, 74, 0
2, 271296, Note_on_c, 0, 73, 90
2, 271388, Note_off_c, 0, 73, 0
2, 271392, Note_on_c, 0, 71, 90
2, 271484, Note_off_c, 0, 71, 0
2, 271488, Note_on_c, 0, 69, 90
2, 271580, Note_off_c, 0, 69, 0
2, 271584, Note_on_c, 0, 73, 90
2, 271676, Note_off_c, 0, 73, 0
2, 271680, Note_on_c, 0, 71, 90
2, 271772, Note_off_c, 0, 71, 0
2, 271776, Note_on_c, 0, 69, 90
2, 271868, Note_off_c, 0, 69, 0
2, 271872, Note_on_c, 0, 71, 90
2, 271964, Note_off_c, 0, 71, 0
2, 271968, Note_on_c, 0, 74, 90
2, 272060, Note_off_c, 0, 74, 0
2, 272064, Note_on_c, 0, 73, 90
2, 272156, Note_off_c, 0, 73, 0
2, 272160, Note_on_c, 0, 71, 90
2, 272252, Note_off_c, 0, 71, 0
2, 272256, Note_on_c, 0, 73, 90
2, 272348, Note_off_c, 0, 73, 0
2, 272352, Note_on_c, 0, 76, 90
2, 272444, Note_off_c, 0, 76, 0
2, 272448, Note_on_c, 0, 81, 90
2, 272540, Note_off_c, 0, 81, 0
2, 272544, Note_on_c, 0, 76, 90
2, 272636, Note_off_c, 0, 76, 0
2, 272640, Note_on_c, 0, 78, 90
2, 272732, Note_off_c, 0, 78, 0
2, 272736, Note_on_c, 0, 81, 90
2, 272828, Note_off_c, 0, 81, 0
2, 272832, Note_on_c, 0, 71, 90
2, 272924, Note_off_c, 0, 71, 0
2, 272928, Note_on_c, 0, 74, 90
2, 273020, Note_off_c, 0, 74, 0
2, 273024, Note_on_c, 0, 73, 90
2, 273116, Note_off_c, 0, 73, 0
2, 273120, Note_on_c, 0, 76, 90
2, 273212, Note_off_c, 0, 76, 0
2, 273216, Note_on_c, 0, 69, 90
2, 273308, Note_off_c, 0, 69, 0
2, 273312, Note_on_c, 0, 73, 90
2, 273404, Note_off_c, 0, 73, 0
2, 273408, Note_on_c, 0, 71, 90
2, 273500, Note_off_c, 0, 71, 0
2, 273504, Note_on_c, 0, 74, 90
2, 273596, Note_off_c, 0, 74, 0
2, 273600, Note_on_c, 0, 68, 90
2, 273692, Note_off_c, 0, 68, 0
2, 273696, Note_on_c, 0, 71, 90
2, 273788, Note_off_c, 0, 71, 0
2, 273792, Note_on_c, 0, 69, 90
2, 273884, Note_off_c, 0, 69, 0
2, 273888, Note_on_c, 0, 64, 90
2, 273980, Note_off_c, 0, 64, 0
2, 273984, Note_on_c, 0, 61, 90
2, 274076, Note_off_c, 0, 61, 0
2, 274080, Note_on_c, 0, 64, 90
2, 274172, Note_off_c, 0, 64, 0
2, 274176, Note_on_c, 0, 69, 90
2, 274556, Note_off_c, 0, 69, 0
2, 274560, Note_on_c, 0, 69, 67
2, 274652, Note_off_c, 0, 69, 0
2, 274656, Note_on_c, 0, 71, 67
2, 274748, Note_off_c, 0, 71, 0
2, 274752, Note_on_c, 0, 73, 67
2, 274844, Note_off_c, 0, 73, 0
2, 274848, Note_on_c, 0, 74, 67
2, 274940, Note_off_c, 0, 74, 0
2, 274944, Note_on_c, 0, 76, 67
2, 275036, Note_off_c, 0, 76, 0
2, 275040, Note_on_c, 0, 78, 67
2, 275132, Note_off_c, 0, 78, 0
2, 275136, Note_on_c, 0, 80, 67
2, 275228, Note_off_c, 0, 80, 0
2, 275232, Note_on_c, 0, 81, 67
2, 275324, Note_off_c, 0, 81, 0
2, 275328, Note_on_c, 0, 80, 67
2, 275420, Note_off_c, 0, 80, 0
2, 275424, Note_on_c, 0, 78, 67
2, 275516, Note_off_c, 0, 78, 0
2, 275520, Note_on_c, 0, 77, 67
2, 275612, Note_off_c, 0, 77, 0
2, 275616, Note_on_c, 0, 78, 67
2, 275708, Note_off_c, 0, 78, 0
2, 275712, Note_on_c, 0, 77, 67
2, 275804, Note_off_c, 0, 77, 0
2, 275808, Note_on_c, 0, 78, 67
2, 275900, Note_off_c, 0, 78, 0
2, 275904, Note_on_c, 0, 77, 67
2, 275996, Note_off_c, 0, 77, 0
2, 276000, Note_on_c, 0, 78, 67
2, 276092, Note_off_c, 0, 78, 0
2, 276096, Note_on_c, 0, 81, 75
2, 276188, Note_off_c, 0, 81, 0
2, 276192, Note_on_c, 0, 80, 75
2, 276284, Note_off_c, 0, 80, 0
2, 276288, Note_on_c, 0, 81, 75
2, 276380, Note_off_c, 0, 81, 0
2, 276384, Note_on_c, 0, 80, 75
2, 276476, Note_off_c, 0, 80, 0
2, 276480, Note_on_c, 0, 83, 75
2, 276572, Note_off_c, 0, 83, 0
2, 276576, Note_on_c, 0, 81, 75
2, 276668, Note_off_c, 0, 81, 0
2, 276672, Note_on_c, 0, 80, 75
2, 276764, Note_off_c, 0, 80, 0
2, 276768, Note_on_c, 0, 78, 75
2, 276860, Note_off_c, 0, 78, 0
2, 276864, Note_on_c, 0, 78, 67
2, 276956, Note_off_c, 0, 78, 0
2, 276960, Note_on_c, 0, 76, 67
2, 277052, Note_off_c, 0, 76, 0
2, 277056, Note_on_c, 0, 75, 67
2, 277148, Note_off_c, 0, 75, 0
2, 277152, Note_on_c, 0, 76, 67
2, 277244, Note_off_c, 0, 76, 0
2, 277248, Note_on_c, 0, 75, 67
2, 277340, Note_off_c, 0, 75, 0
2, 277344, Note_on_c, 0, 76, 67
2, 277436, Note_off_c, 0, 76, 0
2, 277440, Note_on_c, 0, 75, 67
2, 277532, Note_off_c, 0, 75, 0
2, 277536, Note_on_c, 0, 76, 67
2, 277628, Note_off_c, 0, 76, 0
2, 277632, Note_on_c, 0, 76, 90
2, 277724, Note_off_c, 0, 76, 0
2, 277728, Note_on_c, 0, 81, 90
2, 277820, Note_off_c, 0, 81, 0
2, 277824, Note_on_c, 0, 85, 90
2, 277916, Note_off_c, 0, 85, 0
2, 277920, Note_on_c, 0, 83, 90
2, 278012, Note_off_c, 0, 83, 0
2, 278016, Note_on_c, 0, 81, 90
2, 278108, Note_off_c, 0, 81, 0
2, 278112, Note_on_c, 0, 80, 90
2, 278204, Note_off_c, 0, 80, 0
2, 278208, Note_on_c, 0, 78, 90
2, 278300, Note_off_c, 0, 78, 0
2, 278304, Note_on_c, 0, 76, 90
2, 278396, Note_off_c, 0, 76, 0
2, 278400, Note_on_c, 0, 74, 90
2, 278492, Note_off_c, 0, 74, 0
2, 278496, Note_on_c, 0, 80, 90
2, 278588, Note_off_c, 0, 80, 0
2, 278592, Note_on_c, 0, 83, 90
2, 278684, Note_off_c, 0, 83, 0
2, 278688, Note_on_c, 0, 81, 90
2, 278780, Note_off_c, 0, 81, 0
2, 278784, Note_on_c, 0, 80, 90
2, 278876, Note_off_c, 0, 80, 0
2, 278880, Note_on_c, 0, 78, 90
2, 278972, Note_off_c, 0, 78, 0
2, 278976, Note_on_c, 0, 76, 90
2, 279068, Note_off_c, 0, 76, 0
2, 279072, Note_on_c, 0, 74, 90
2, 279164, Note_off_c, 0, 74, 0
2, 279168, Note_on_c, 0, 73, 90
2, 279260, Note_off_c, 0, 73, 0
2, 279264, Note_on_c, 0, 76, 90
2, 279356, Note_off_c, 0, 76, 0
2, 279360, Note_on_c, 0, 81, 90
2, 279452, Note_off_c, 0, 81, 0
2, 279456, Note_on_c, 0, 80, 90
2, 279548, Note_off_c, 0, 80, 0
2, 279552, Note_on_c, 0, 78, 90
2, 279644, Note_off_c, 0, 78, 0
2, 279648, Note_on_c, 0, 76, 90
2, 279740, Note_off_c, 0, 76, 0
2, 279744, Note_on_c, 0, 74, 90
2, 279836, Note_off_c, 0, 74, 0
2, 279840, Note_on_c, 0, 73, 90
2, 279932, Note_off_c, 0, 73, 0
2, 279936, Note_on_c, 0, 71, 90
2, 280028, Note_off_c, 0, 71, 0
2, 280032, Note_on_c, 0, 69, 90
2, 280124, Note_off_c, 0, 69, 0
2, 280128, Note_on_c, 0, 68, 90
2, 280220, Note_off_c, 0, 68, 0
2, 280224, Note_on_c, 0, 66, 90
2, 280316, Note_off_c, 0, 66, 0
2, 280320, Note_on_c, 0, 64, 90
2, 280412, Note_off_c, 0, 64, 0
2, 280416, Note_on_c, 0, 62, 90
2, 280508, Note_off_c, 0, 62, 0
2, 280512, Note_on_c, 0, 61, 90
2, 280604, Note_off_c, 0, 61, 0
2, 280608, Note_on_c, 0, 59, 90
2, 280700, Note_off_c, 0, 59, 0
2, 280704, Note_on_c, 0, 73, 67
2, 280892, Note_off_c, 0, 73, 0
2, 280896, Note_on_c, 0, 74, 67
2, 280988, Note_off_c, 0, 74, 0
2, 280992, Note_on_c, 0, 73, 67
2, 281084, Note_off_c, 0, 73, 0
2, 281088, Note_on_c, 0, 71, 67
2, 281180, Note_off_c, 0, 71, 0
2, 281184, Note_on_c, 0, 73, 67
2, 281280, Note_on_c, 0, 74, 67
2, 281372, Note_off_c, 0, 73, 0
2, 281468, Note_off_c, 0, 74, 0
2, 281472, Note_on_c, 0, 78, 67
2, 281660, Note_off_c, 0, 78, 0
2, 281664, Note_on_c, 0, 76, 67
2, 281852, Note_off_c, 0, 76, 0
2, 281856, Note_on_c, 0, 74, 67
2, 282044, Note_off_c, 0, 74, 0
2, 282048, Note_on_c, 0, 73, 67
2, 282236, Note_off_c, 0, 73, 0
2, 282240, Note_on_c, 0, 71, 67
2, 282416, Note_on_c, 0, 73, 67
2, 282428, Note_off_c, 0, 71, 0
2, 282508, Note_off_c, 0, 73, 0
2, 282528, Note_on_c, 0, 71, 67
2, 282620, Note_off_c, 0, 71, 0
2, 282624, Note_on_c, 0, 70, 67
2, 282716, Note_off_c, 0, 70, 0
2, 282736, Note_on_c, 0, 71, 67
2, 282816, Note_on_c, 0, 73, 67
2, 282924, Note_off_c, 0, 71, 0
2, 283004, Note_off_c, 0, 73, 0
2, 283008, Note_on_c, 0, 76, 67
2, 283196, Note_off_c, 0, 76, 0
2, 283200, Note_on_c, 0, 74, 67
2, 283388, Note_off_c, 0, 74, 0
2, 283392, Note_on_c, 0, 73, 67
2, 283580, Note_off_c, 0, 73, 0
2, 283584, Note_on_c, 0, 71, 67
2, 283772, Note_off_c, 0, 71, 0
2, 283776, Note_on_c, 0, 68, 67
2, 283964, Note_off_c, 0, 68, 0
2, 283968, Note_on_c, 0, 69, 67
2, 284156, Note_off_c, 0, 69, 0
2, 284352, Note_on_c, 0, 71, 67
2, 284540, Note_off_c, 0, 71, 0
2, 284736, Note_on_c, 0, 71, 67
2, 284780, Note_off_c, 0, 71, 0
2, 284784, Note_on_c, 0, 73, 67
2, 284956, Note_off_c, 0, 73, 0
2, 285120, Note_on_c, 0, 76, 67
2, 285164, Note_off_c, 0, 76, 0
2, 285168, Note_on_c, 0, 74, 67
2, 285340, Note_off_c, 0, 74, 0
2, 285504, Note_on_c, 0, 74, 67
2, 285548, Note_off_c, 0, 74, 0
2, 285552, Note_on_c, 0, 73, 67
2, 285724, Note_off_c, 0, 73, 0
2, 285888, Note_on_c, 0, 73, 67
2, 285932, Note_off_c, 0, 73, 0
2, 285936, Note_on_c, 0, 71, 67
2, 286080, Note_on_c, 0, 71, 67
2, 286080, Note_on_c, 0, 68, 67
2, 286108, Note_off_c, 0, 71, 0
2, 286268, Note_off_c, 0, 71, 0
2, 286272, Note_on_c, 0, 72, 67
2, 286460, Note_off_c, 0, 68, 0
2, 286460, Note_off_c, 0, 72, 0
2, 286464, Note_on_c, 0, 73, 67
2, 286464, Note_on_c, 0, 69, 67
2, 286652, Note_off_c, 0, 73, 0
2, 286652, Note_off_c, 0, 69, 0
2, 286848, Note_on_c, 0, 73, 90
2, 286940, Note_off_c, 0, 73, 0
2, 286944, Note_on_c, 0, 69, 90
2, 287036, Note_off_c, 0, 69, 0
2, 287040, Note_on_c, 0, 76, 90
2, 287132, Note_off_c, 0, 76, 0
2, 287136, Note_on_c, 0, 73, 90
2, 287228, Note_off_c, 0, 73, 0
2, 287232, Note_on_c, 0, 74, 90
2, 287324, Note_off_c, 0, 74, 0
2, 287328, Note_on_c, 0, 71, 90
2, 287420, Note_off_c, 0, 71, 0
2, 287424, Note_on_c, 0, 78, 90
2, 287516, Note_off_c, 0, 78, 0
2, 287520, Note_on_c, 0, 74, 90
2, 287612, Note_off_c, 0, 74, 0
2, 287616, Note_on_c, 0, 76, 90
2, 287708, Note_off_c, 0, 76, 0
2, 287712, Note_on_c, 0, 73, 90
2, 287804, Note_off_c, 0, 73, 0
2, 287808, Note_on_c, 0, 81, 90
2, 287900, Note_off_c, 0, 81, 0
2, 287904, Note_on_c, 0, 76, 90
2, 287996, Note_off_c, 0, 76, 0
2, 288000, Note_on_c, 0, 80, 90
2, 288092, Note_off_c, 0, 80, 0
2, 288096, Note_on_c, 0, 78, 90
2, 288188, Note_off_c, 0, 78, 0
2, 288192, Note_on_c, 0, 76, 90
2, 288284, Note_off_c, 0, 76, 0
2, 288288, Note_on_c, 0, 74, 90
2, 288380, Note_off_c, 0, 74, 0
2, 288384, Note_on_c, 0, 73, 90
2, 288476, Note_off_c, 0, 73, 0
2, 288480, Note_on_c, 0, 76, 90
2, 288572, Note_off_c, 0, 76, 0
2, 288576, Note_on_c, 0, 69, 90
2, 288668, Note_off_c, 0, 69, 0
2, 288672, Note_on_c, 0, 73, 90
2, 288764, Note_off_c, 0, 73, 0
2, 288768, Note_on_c, 0, 71, 90
2, 288860, Note_off_c, 0, 71, 0
2, 288864, Note_on_c, 0, 74, 90
2, 288956, Note_off_c, 0, 74, 0
2, 288960, Note_on_c, 0, 68, 90
2, 289052, Note_off_c, 0, 68, 0
2, 289056, Note_on_c, 0, 71, 90
2, 289148, Note_off_c, 0, 71, 0
2, 289152, Note_on_c, 0, 69, 90
2, 289244, Note_off_c, 0, 69, 0
2, 289248, Note_on_c, 0, 64, 90
2, 289340, Note_off_c, 0, 64, 0
2, 289344, Note_on_c, 0, 61, 90
2, 289436, Note_off_c, 0, 61, 0
2, 289440, Note_on_c, 0, 64, 90
2, 289532, Note_off_c, 0, 64, 0
2, 289536, Note_on_c, 0, 69, 90
2, 289916, Note_off_c, 0, 69, 0
2, 289920, Note_on_c, 0, 69, 67
2, 290012, Note_off_c, 0, 69, 0
2, 290016, Note_on_c, 0, 71, 67
2, 290108, Note_off_c, 0, 71, 0
2, 290112, Note_on_c, 0, 73, 67
2, 290204, Note_off_c, 0, 73, 0
2, 290208, Note_on_c, 0, 74, 67
2, 290300, Note_off_c, 0, 74, 0
2, 290304, Note_on_c, 0, 76, 67
2, 290396, Note_off_c, 0, 76, 0
2, 290400, Note_on_c, 0, 78, 67
2, 290492, Note_off_c, 0, 78, 0
2, 290496, Note_on_c, 0, 80, 67
2, 290588, Note_off_c, 0, 80, 0
2, 290592, Note_on_c, 0, 81, 67
2, 290684, Note_off_c, 0, 81, 0
2, 290688, Note_on_c, 0, 80, 67
2, 290780, Note_off_c, 0, 80, 0
2, 290784, Note_on_c, 0, 78, 67
2, 290876, Note_off_c, 0, 78, 0
2, 290880, Note_on_c, 0, 77, 67
2, 290972, Note_off_c, 0, 77, 0
2, 290976, Note_on_c, 0, 78, 67
2, 291068, Note_off_c, 0, 78, 0
2, 291072, Note_on_c, 0, 77, 67
2, 291164, Note_off_c, 0, 77, 0
2, 291168, Note_on_c, 0, 78, 67
2, 291260, Note_off_c, 0, 78, 0
2, 291264, Note_on_c, 0, 77, 67
2, 291356, Note_off_c, 0, 77, 0
2, 291360, Note_on_c, 0, 78, 67
2, 291452, Note_off_c, 0, 78, 0
2, 291456, Note_on_c, 0, 81, 75
2, 291548, Note_off_c, 0, 81, 0
2, 291552, Note_on_c, 0, 80, 75
2, 291644, Note_off_c, 0, 80, 0
2, 291648, Note_on_c, 0, 81, 75
2, 291740, Note_off_c, 0, 81, 0
2, 291744, Note_on_c, 0, 80, 75
2, 291836, Note_off_c, 0, 80, 0
2, 291840, Note_on_c, 0, 83, 75
2, 291932, Note_off_c, 0, 83, 0
2, 291936, Note_on_c, 0, 81, 75
2, 292028, Note_off_c, 0, 81, 0
2, 292032, Note_on_c, 0, 80, 75
2, 292124, Note_off_c, 0, 80, 0
2, 292128, Note_on_c, 0, 78, 75
2, 292220, Note_off_c, 0, 78, 0
2, 292224, Note_on_c, 0, 78, 67
2, 292316, Note_off_c, 0, 78, 0
2, 292320, Note_on_c, 0, 76, 67
2, 292412, Note_off_c, 0, 76, 0
2, 292416, Note_on_c, 0, 75, 67
2, 292508, Note_off_c, 0, 75, 0
2, 292512, Note_on_c, 0, 76, 67
2, 292604, Note_off_c, 0, 76, 0
2, 292608, Note_on_c, 0, 75, 67
2, 292700, Note_off_c, 0, 75, 0
2, 292704, Note_on_c, 0, 76, 67
2, 292796, Note_off_c, 0, 76, 0
2, 292800, Note_on_c, 0, 75, 67
2, 292892, Note_off_c, 0, 75, 0
2, 292896, Note_on_c, 0, 76, 67
2, 292988, Note_off_c, 0, 76, 0
2, 292992, Note_on_c, 0, 76, 90
2, 293084, Note_off_c, 0, 76, 0
2, 293088, Note_on_c, 0, 81, 90
2, 293180, Note_off_c, 0, 81, 0
2, 293184, Note_on_c, 0, 85, 90
2, 293276, Note_off_c, 0, 85, 0
2, 293280, Note_on_c, 0, 83, 90
2, 293372, Note_off_c, 0, 83, 0
2, 293376, Note_on_c, 0, 81, 90
2, 293468, Note_off_c, 0, 81, 0
2, 293472, Note_on_c, 0, 80, 90
2, 293564, Note_off_c, 0, 80, 0
2, 293568, Note_on_c, 0, 78, 90
2, 293660, Note_off_c, 0, 78, 0
2, 293664, Note_on_c, 0, 76, 90
2, 293756, Note_off_c, 0, 76, 0
2, 293760, Note_on_c, 0, 74, 90
2, 293852, Note_off_c, 0, 74, 0
2, 293856, Note_on_c, 0, 80, 90
2, 293948, Note_off_c, 0, 80, 0
2, 293952, Note_on_c, 0, 83, 90
2, 294044, Note_off_c, 0, 83, 0
2, 294048, Note_on_c, 0, 81, 90
2, 294140, Note_off_c, 0, 81, 0
2, 294144, Note_on_c, 0, 80, 90
2, 294236, Note_off_c, 0, 80, 0
2, 294240, Note_on_c, 0, 78, 90
2, 294332, Note_off_c, 0, 78, 0
2, 294336, Note_on_c, 0, 76, 90
2, 294428, Note_off_c, 0, 76, 0
2, 294432, Note_on_c, 0, 74, 90
2, 294524, Note_off_c, 0, 74, 0
2, 294528, Note_on_c, 0, 73, 90
2, 294620, Note_off_c, 0, 73, 0
2, 294624, Note_on_c, 0, 76, 90
2, 294716, Note_off_c, 0, 76, 0
2, 294720, Note_on_c, 0, 81, 90
2, 294812, Note_off_c, 0, 81, 0
2, 294816, Note_on_c, 0, 80, 90
2, 294908, Note_off_c, 0, 80, 0
2, 294912, Note_on_c, 0, 78, 90
2, 295004, Note_off_c, 0, 78, 0
2, 295008, Note_on_c, 0, 76, 90
2, 295100, Note_off_c, 0, 76, 0
2, 295104, Note_on_c, 0, 74, 90
2, 295196, Note_off_c, 0, 74, 0
2, 295200, Note_on_c, 0, 73, 90
2, 295292, Note_off_c, 0, 73, 0
2, 295296, Note_on_c, 0, 71, 90
2, 295388, Note_off_c, 0, 71, 0
2, 295392, Note_on_c, 0, 69, 90
2, 295484, Note_off_c, 0, 69, 0
2, 295488, Note_on_c, 0, 68, 90
2, 295580, Note_off_c, 0, 68, 0
2, 295584, Note_on_c, 0, 66, 90
2, 295676, Note_off_c, 0, 66, 0
2, 295680, Note_on_c, 0, 64, 90
2, 295772, Note_off_c, 0, 64, 0
2, 295776, Note_on_c, 0, 62, 90
2, 295868, Note_off_c, 0, 62, 0
2, 295872, Note_on_c, 0, 61, 90
2, 295964, Note_off_c, 0, 61, 0
2, 295968, Note_on_c, 0, 59, 90
2, 296060, Note_off_c, 0, 59, 0
2, 296064, Note_on_c, 0, 73, 67
2, 296252, Note_off_c, 0, 73, 0
2, 296256, Note_on_c, 0, 74, 67
2, 296348, Note_off_c, 0, 74, 0
2, 296352, Note_on_c, 0, 73, 67
2, 296444, Note_off_c, 0, 73, 0
2, 296448, Note_on_c, 0, 71, 67
2, 296540, Note_off_c, 0, 71, 0
2, 296544, Note_on_c, 0, 73, 67
2, 296640, Note_on_c, 0, 74, 67
2, 296732, Note_off_c, 0, 73, 0
2, 296828, Note_off_c, 0, 74, 0
2, 296832, Note_on_c, 0, 78, 67
2, 297020, Note_off_c, 0, 78, 0
2, 297024, Note_on_c, 0, 76, 67
2, 297212, Note_off_c, 0, 76, 0
2, 297216, Note_on_c, 0, 74, 67
2, 297404, Note_off_c, 0, 74, 0
2, 297408, Note_on_c, 0, 73, 67
2, 297596, Note_off_c, 0, 73, 0
2, 297600, Note_on_c, 0, 71, 67
2, 297776, Note_on_c, 0, 73, 67
2, 297788, Note_off_c, 0, 71, 0
2, 297868, Note_off_c, 0, 73, 0
2, 297888, Note_on_c, 0, 71, 67
2, 297980, Note_off_c, 0, 71, 0
2, 297984, Note_on_c, 0, 70, 67
2, 298076, Note_off_c, 0, 70, 0
2, 298096, Note_on_c, 0, 71, 67
2, 298176, Note_on_c, 0, 73, 67
2, 298284, Note_off_c, 0, 71, 0
2, 298364, Note_off_c, 0, 73, 0
2, 298368, Note_on_c, 0, 76, 67
2, 298556, Note_off_c, 0, 76, 0
2, 298560, Note_on_c, 0, 74, 67
2, 298748, Note_off_c, 0, 74, 0
2, 298752, Note_on_c, 0, 73, 67
2, 298940, Note_off_c, 0, 73, 0
2, 298944, Note_on_c, 0, 71, 67
2, 299132, Note_off_c, 0, 71, 0
2, 299136, Note_on_c, 0, 68, 67
2, 299324, Note_off_c, 0, 68, 0
2, 299328, Note_on_c, 0, 69, 67
2, 299516, Note_off_c, 0, 69, 0
2, 299712, Note_on_c, 0, 71, 67
2, 299900, Note_off_c, 0, 71, 0
2, 300096, Note_on_c, 0, 71, 67
2, 300140, Note_off_c, 0, 71, 0
2, 300144, Note_on_c, 0, 73, 67
2, 300316, Note_off_c, 0, 73, 0
2, 300480, Note_on_c, 0, 76, 67
2, 300524, Note_off_c, 0, 76, 0
2, 300528, Note_on_c, 0, 74, 67
2, 300700, Note_off_c, 0, 74, 0
2, 300864, Note_on_c, 0, 74, 67
2, 300908, Note_off_c, 0, 74, 0
2, 300912, Note_on_c, 0, 73, 67
2, 301084, Note_off_c, 0, 73, 0
2, 301248, Note_on_c, 0, 73, 67
2, 301292, Note_off_c, 0, 73, 0
2, 301296, Note_on_c, 0, 71, 67
2, 301440, Note_on_c, 0, 71, 67
2, 301440, Note_on_c, 0, 68, 67
2, 301468, Note_off_c, 0, 71, 0
2, 301628, Note_off_c, 0, 71, 0
2, 301632, Note_on_c, 0, 72, 67
2, 301820, Note_off_c, 0, 68, 0
2, 301820, Note_off_c, 0, 72, 0
2, 301824, Note_on_c, 0, 73, 67
2, 301824, Note_on_c, 0, 69, 67
2, 302012, Note_off_c, 0, 73, 0
2, 302012, Note_off_c, 0, 69, 0
2, 302208, Note_on_c, 0, 73, 90
2, 302300, Note_off_c, 0, 73, 0
2, 302304, Note_on_c, 0, 69, 90
2, 302396, Note_off_c, 0, 69, 0
2, 302400, Note_on_c, 0, 76, 90
2, 302492, Note_off_c, 0, 76, 0
2, 302496, Note_on_c, 0, 73, 90
2, 302588, Note_off_c, 0, 73, 0
2, 302592, Note_on_c, 0, 74, 90
2, 302684, Note_off_c, 0, 74, 0
2, 302688, Note_on_c, 0, 71, 90
2, 302780, Note_off_c, 0, 71, 0
2, 302784, Note_on_c, 0, 78, 90
2, 302876, Note_off_c, 0, 78, 0
2, 302880, Note_on_c, 0, 74, 90
2, 302972, Note_off_c, 0, 74, 0
2, 302976, Note_on_c, 0, 76, 90
2, 303068, Note_off_c, 0, 76, 0
2, 303072, Note_on_c, 0, 73, 90
2, 303164, Note_off_c, 0, 73, 0
2, 303168, Note_on_c, 0, 81, 90
2, 303260, Note_off_c, 0, 81, 0
2, 303264, Note_on_c, 0, 76, 90
2, 303356, Note_off_c, 0, 76, 0
2, 303360, Note_on_c, 0, 80, 90
2, 303452, Note_off_c, 0, 80, 0
2, 303456, Note_on_c, 0, 78, 90
2, 303548, Note_off_c, 0, 78, 0
2, 303552, Note_on_c, 0, 76, 90
2, 303644, Note_off_c, 0, 76, 0
2, 303648, Note_on_c, 0, 74, 90
2, 303740, Note_off_c, 0, 74, 0
2, 303744, Note_on_c, 0, 73, 90
2, 303836, Note_off_c, 0, 73, 0
2, 303840, Note_on_c, 0, 76, 90
2, 303932, Note_off_c, 0, 76, 0
2, 303936, Note_on_c, 0, 69, 90
2, 304028, Note_off_c, 0, 69, 0
2, 304032, Note_on_c, 0, 73, 90
2, 304124, Note_off_c, 0, 73, 0
2, 304128, Note_on_c, 0, 71, 90
2, 304220, Note_off_c, 0, 71, 0
2, 304224, Note_on_c, 0, 74, 90
2, 304316, Note_off_c, 0, 74, 0
2, 304320, Note_on_c, 0, 68, 90
2, 304412, Note_off_c, 0, 68, 0
2, 304416, Note_on_c, 0, 71, 90
2, 304508, Note_off_c, 0, 71, 0
2, 304512, Note_on_c, 0, 69, 90
2, 304604, Note_off_c, 0, 69, 0
2, 304608, Note_on_c, 0, 64, 90
2, 304700, Note_off_c, 0, 64, 0
2, 304704, Note_on_c, 0, 61, 90
2, 304796, Note_off_c, 0, 61, 0
2, 304800, Note_on_c, 0, 64, 90
2, 304892, Note_off_c, 0, 64, 0
2, 304896, Note_on_c, 0, 69, 90
2, 305276, Note_off_c, 0, 69, 0
2, 305280, Note_on_c, 0, 73, 90
2, 305372, Note_off_c, 0, 73, 0
2, 305376, Note_on_c, 0, 76, 90
2, 305468, Note_off_c, 0, 76, 0
2, 305472, Note_on_c, 0, 69, 90
2, 305564, Note_off_c, 0, 69, 0
2, 305568, Note_on_c, 0, 73, 90
2, 305660, Note_off_c, 0, 73, 0
2, 305664, Note_on_c, 0, 71, 90
2, 305756, Note_off_c, 0, 71, 0
2, 305760, Note_on_c, 0, 74, 90
2, 305852, Note_off_c, 0, 74, 0
2, 305856, Note_on_c, 0, 68, 90
2, 305936, Note_on_c, 0, 71, 90
2, 305948, Note_off_c, 0, 68, 0
2, 306028, Note_off_c, 0, 71, 0
2, 306048, Note_on_c, 0, 69, 86
2, 306140, Note_off_c, 0, 69, 0
2, 306144, Note_on_c, 0, 71, 81
2, 306236, Note_off_c, 0, 71, 0
2, 306240, Note_on_c, 0, 73, 77
2, 306332, Note_off_c, 0, 73, 0
2, 306336, Note_on_c, 0, 74, 72
2, 306428, Note_off_c, 0, 74, 0
2, 306432, Note_on_c, 0, 76, 67
2, 306524, Note_off_c, 0, 76, 0
2, 306528, Note_on_c, 0, 78, 67
2, 306620, Note_off_c, 0, 78, 0
2, 306624, Note_on_c, 0, 80, 67
2, 306716, Note_off_c, 0, 80, 0
2, 306720, Note_on_c, 0, 81, 67
2, 306812, Note_off_c, 0, 81, 0
2, 306816, Note_on_c, 0, 80, 75
2, 306908, Note_off_c, 0, 80, 0
2, 306912, Note_on_c, 0, 78, 75
2, 307004, Note_off_c, 0, 78, 0
2, 307008, Note_on_c, 0, 77, 75
2, 307100, Note_off_c, 0, 77, 0
2, 307104, Note_on_c, 0, 78, 75
2, 307196, Note_off_c, 0, 78, 0
2, 307200, Note_on_c, 0, 83, 72
2, 307292, Note_off_c, 0, 83, 0
2, 307296, Note_on_c, 0, 81, 71
2, 307388, Note_off_c, 0, 81, 0
2, 307392, Note_on_c, 0, 80, 70
2, 307484, Note_off_c, 0, 80, 0
2, 307488, Note_on_c, 0, 78, 67
2, 307580, Note_off_c, 0, 78, 0
2, 307584, Note_on_c, 0, 78, 67
2, 307676, Note_off_c, 0, 78, 0
2, 307680, Note_on_c, 0, 76, 67
2, 307772, Note_off_c, 0, 76, 0
2, 307776, Note_on_c, 0, 75, 67
2, 307868, Note_off_c, 0, 75, 0
2, 307872, Note_on_c, 0, 76, 67
2, 307964, Note_off_c, 0, 76, 0
2, 307968, Note_on_c, 0, 69, 67
2, 308060, Note_off_c, 0, 69, 0
2, 308064, Note_on_c, 0, 73, 67
2, 308156, Note_off_c, 0, 73, 0
2, 308160, Note_on_c, 0, 76, 67
2, 308252, Note_off_c, 0, 76, 0
2, 308256, Note_on_c, 0, 81, 67
2, 308348, Note_off_c, 0, 81, 0
2, 308352, Note_on_c, 0, 80, 75
2, 308444, Note_off_c, 0, 80, 0
2, 308448, Note_on_c, 0, 78, 75
2, 308540, Note_off_c, 0, 78, 0
2, 308544, Note_on_c, 0, 77, 75
2, 308636, Note_off_c, 0, 77, 0
2, 308640, Note_on_c, 0, 78, 75
2, 308732, Note_off_c, 0, 78, 0
2, 308736, Note_on_c, 0, 83, 72
2, 308828, Note_off_c, 0, 83, 0
2, 308832, Note_on_c, 0, 81, 71
2, 308924, Note_off_c, 0, 81, 0
2, 308928, Note_on_c, 0, 80, 70
2, 309020, Note_off_c, 0, 80, 0
2, 309024, Note_on_c, 0, 78, 67
2, 309116, Note_off_c, 0, 78, 0
2, 309120, Note_on_c, 0, 76, 67
2, 309404, Note_off_c, 0, 76, 0
2, 309408, Note_on_c, 0, 76, 67
2, 309500, Note_off_c, 0, 76, 0
2, 309504, Note_on_c, 0, 78, 67
2, 309544, Note_off_c, 0, 78, 0
2, 309544, Note_on_c, 0, 76, 67
2, 309584, Note_off_c, 0, 76, 0
2, 309588, Note_on_c, 0, 75, 67
2, 309628, Note_off_c, 0, 75, 0
2, 309632, Note_on_c, 0, 76, 67
2, 309912, Note_off_c, 0, 76, 0
2, 310176, Note_on_c, 0, 74, 67
2, 310268, Note_off_c, 0, 74, 0
2, 310272, Note_on_c, 0, 76, 67
2, 310312, Note_off_c, 0, 76, 0
2, 310312, Note_on_c, 0, 74, 67
2, 310352, Note_off_c, 0, 74, 0
2, 310356, Note_on_c, 0, 73, 67
2, 310396, Note_off_c, 0, 73, 0
2, 310400, Note_on_c, 0, 74, 67
2, 310680, Note_off_c, 0, 74, 0
2, 310944, Note_on_c, 0, 73, 67
2, 311036, Note_off_c, 0, 73, 0
2, 311040, Note_on_c, 0, 74, 67
2, 311080, Note_off_c, 0, 74, 0
2, 311080, Note_on_c, 0, 73, 67
2, 311120, Note_off_c, 0, 73, 0
2, 311124, Note_on_c, 0, 71, 67
2, 311164, Note_off_c, 0, 71, 0
2, 311168, Note_on_c, 0, 73, 67
2, 311448, Note_off_c, 0, 73, 0
2, 311712, Note_on_c, 0, 71, 67
2, 311804, Note_off_c, 0, 71, 0
2, 311808, Note_on_c, 0, 73, 67
2, 311848, Note_off_c, 0, 73, 0
2, 311848, Note_on_c, 0, 71, 67
2, 311888, Note_off_c, 0, 71, 0
2, 311892, Note_on_c, 0, 69, 67
2, 311932, Note_off_c, 0, 69, 0
2, 311936, Note_on_c, 0, 71, 67
2, 312216, Note_off_c, 0, 71, 0
2, 312288, Note_on_c, 0, 76, 90
2, 312380, Note_off_c, 0, 76, 0
2, 312384, Note_on_c, 0, 75, 90
2, 312476, Note_off_c, 0, 75, 0
2, 312480, Note_on_c, 0, 76, 90
2, 312572, Note_off_c, 0, 76, 0
2, 312592, Note_on_c, 0, 78, 90
2, 312672, Note_on_c, 0, 76, 90
2, 312684, Note_off_c, 0, 78, 0
2, 312764, Note_off_c, 0, 76, 0
2, 312768, Note_on_c, 0, 75, 90
2, 312860, Note_off_c, 0, 75, 0
2, 312864, Note_on_c, 0, 76, 90
2, 312956, Note_off_c, 0, 76, 0
2, 313056, Note_on_c, 0, 74, 90
2, 313148, Note_off_c, 0, 74, 0
2, 313152, Note_on_c, 0, 73, 90
2, 313244, Note_off_c, 0, 73, 0
2, 313248, Note_on_c, 0, 74, 90
2, 313340, Note_off_c, 0, 74, 0
2, 313344, Note_on_c, 0, 76, 90
2, 313436, Note_off_c, 0, 76, 0
2, 313440, Note_on_c, 0, 74, 90
2, 313532, Note_off_c, 0, 74, 0
2, 313536, Note_on_c, 0, 73, 90
2, 313628, Note_off_c, 0, 73, 0
2, 313632, Note_on_c, 0, 74, 90
2, 313724, Note_off_c, 0, 74, 0
2, 313824, Note_on_c, 0, 73, 90
2, 313916, Note_off_c, 0, 73, 0
2, 313920, Note_on_c, 0, 72, 90
2, 314012, Note_off_c, 0, 72, 0
2, 314016, Note_on_c, 0, 73, 90
2, 314108, Note_off_c, 0, 73, 0
2, 314112, Note_on_c, 0, 74, 90
2, 314204, Note_off_c, 0, 74, 0
2, 314208, Note_on_c, 0, 73, 90
2, 314300, Note_off_c, 0, 73, 0
2, 314304, Note_on_c, 0, 72, 90
2, 314396, Note_off_c, 0, 72, 0
2, 314400, Note_on_c, 0, 73, 90
2, 314492, Note_off_c, 0, 73, 0
2, 314592, Note_on_c, 0, 71, 90
2, 314684, Note_off_c, 0, 71, 0
2, 314688, Note_on_c, 0, 70, 90
2, 314780, Note_off_c, 0, 70, 0
2, 314784, Note_on_c, 0, 71, 90
2, 314876, Note_off_c, 0, 71, 0
2, 314880, Note_on_c, 0, 73, 90
2, 314972, Note_off_c, 0, 73, 0
2, 314976, Note_on_c, 0, 71, 90
2, 315068, Note_off_c, 0, 71, 0
2, 315072, Note_on_c, 0, 70, 90
2, 315164, Note_off_c, 0, 70, 0
2, 315168, Note_on_c, 0, 71, 90
2, 315260, Note_off_c, 0, 71, 0
2, 315264, Note_on_c, 0, 69, 90
2, 315452, Note_off_c, 0, 69, 0
2, 315456, Note_on_c, 0, 73, 90
2, 315548, Note_off_c, 0, 73, 0
2, 315552, Note_on_c, 0, 69, 90
2, 315644, Note_off_c, 0, 69, 0
2, 315648, Note_on_c, 0, 76, 90
2, 315740, Note_off_c, 0, 76, 0
2, 315744, Note_on_c, 0, 74, 90
2, 315836, Note_off_c, 0, 74, 0
2, 315840, Note_on_c, 0, 71, 90
2, 315932, Note_off_c, 0, 71, 0
2, 315936, Note_on_c, 0, 68, 90
2, 316028, Note_off_c, 0, 68, 0
2, 316032, Note_on_c, 0, 69, 90
2, 316412, Note_off_c, 0, 69, 0
2, 316416, Note_on_c, 0, 68, 90
2, 316428, Note_on_c, 0, 71, 90
2, 316444, Note_on_c, 0, 76, 90
2, 316796, Note_off_c, 0, 68, 0
2, 316800, Note_on_c, 0, 81, 90
2, 316808, Note_off_c, 0, 71, 0
2, 316812, Note_on_c, 0, 76, 90
2, 316824, Note_off_c, 0, 76, 0
2, 316828, Note_on_c, 0, 73, 90
2, 316844, Note_on_c, 0, 69, 90
2, 316988, Note_off_c, 0, 81, 0
2, 316992, Note_on_c, 0, 73, 67
2, 317000, Note_off_c, 0, 76, 0
2, 317016, Note_off_c, 0, 73, 0
2, 317032, Note_off_c, 0, 69, 0
2, 317084, Note_off_c, 0, 73, 0
2, 317088, Note_on_c, 0, 69, 67
2, 317180, Note_off_c, 0, 69, 0
2, 317184, Note_on_c, 0, 76, 67
2, 317276, Note_off_c, 0, 76, 0
2, 317280, Note_on_c, 0, 74, 67
2, 317372, Note_off_c, 0, 74, 0
2, 317376, Note_on_c, 0, 71, 67
2, 317468, Note_off_c, 0, 71, 0
2, 317472, Note_on_c, 0, 68, 67
2, 317564, Note_off_c, 0, 68, 0
2, 317568, Note_on_c, 0, 69, 67
2, 317948, Note_off_c, 0, 69, 0
2, 317952, Note_on_c, 0, 68, 95
2, 317964, Note_on_c, 0, 71, 95
2, 317980, Note_on_c, 0, 76, 95
2, 318332, Note_off_c, 0, 68, 0
2, 318336, Note_on_c, 0, 69, 98
2, 318344, Note_off_c, 0, 71, 0
2, 318348, Note_on_c, 0, 73, 98
2, 318360, Note_off_c, 0, 76, 0
2, 318364, Note_on_c, 0, 76, 98
2, 318380, Note_on_c, 0, 81, 98
2, 318716, Note_off_c, 0, 69, 0
2, 318728, Note_off_c, 0, 73, 0
2, 318744, Note_off_c, 0, 76, 0
2, 318760, Note_off_c, 0, 81, 0
2, 318760, End_track
3, 0, Start_track
3, 0, Title_t, "Sonata # 16"
3, 0, Control_c, 1, 0, 0
3, 0, Program_c, 1, 0
3, 0, Control_c, 1, 7, 60
3, 0, Control_c, 1, 10, 51
3, 0, Control_c, 1, 91, 92
3, 0, Control_c, 1, 93, 63
3, 0, Key_signature, 3, "major"
3, 0, Control_c, 1, 121, 0
3, 48, Control_c, 1, 10, 55
3, 96, Control_c, 1, 91, 68
3, 120, Control_c, 1, 93, 40
3, 144, Program_c, 1, 0
3, 1152, Note_on_c, 1, 64, 67
3, 1152, Note_on_c, 1, 57, 67
3, 1436, Note_off_c, 1, 57, 0
3, 1440, Note_on_c, 1, 59, 67
3, 1532, Note_off_c, 1, 64, 0
3, 1532, Note_off_c, 1, 59, 0
3, 1536, Note_on_c, 1, 57, 67
3, 1536, Note_on_c, 1, 64, 67
3, 1724, Note_off_c, 1, 57, 0
3, 1724, Note_off_c, 1, 64, 0
3, 1728, Note_on_c, 1, 64, 67
3, 1728, Note_on_c, 1, 61, 67
3, 2108, Note_off_c, 1, 64, 0
3, 2108, Note_off_c, 1, 61, 0
3, 2112, Note_on_c, 1, 64, 67
3, 2112, Note_on_c, 1, 61, 67
3, 2300, Note_off_c, 1, 64, 0
3, 2300, Note_off_c, 1, 61, 0
3, 2304, Note_on_c, 1, 64, 67
3, 2304, Note_on_c, 1, 56, 67
3, 2588, Note_off_c, 1, 56, 0
3, 2592, Note_on_c, 1, 57, 67
3, 2684, Note_off_c, 1, 64, 0
3, 2684, Note_off_c, 1, 57, 0
3, 2688, Note_on_c, 1, 56, 67
3, 2688, Note_on_c, 1, 64, 67
3, 2876, Note_off_c, 1, 56, 0
3, 2876, Note_off_c, 1, 64, 0
3, 2880, Note_on_c, 1, 64, 67
3, 2880, Note_on_c, 1, 59, 67
3, 3260, Note_off_c, 1, 64, 0
3, 3260, Note_off_c, 1, 59, 0
3, 3264, Note_on_c, 1, 59, 67
3, 3264, Note_on_c, 1, 64, 67
3, 3452, Note_off_c, 1, 59, 0
3, 3452, Note_off_c, 1, 64, 0
3, 3456, Note_on_c, 1, 64, 67
3, 3456, Note_on_c, 1, 54, 67
3, 3836, Note_off_c, 1, 64, 0
3, 3836, Note_off_c, 1, 54, 0
3, 3840, Note_on_c, 1, 64, 67
3, 3840, Note_on_c, 1, 54, 67
3, 4028, Note_off_c, 1, 64, 0
3, 4028, Note_off_c, 1, 54, 0
3, 4032, Note_on_c, 1, 64, 67
3, 4032, Note_on_c, 1, 56, 67
3, 4412, Note_off_c, 1, 64, 0
3, 4412, Note_off_c, 1, 56, 0
3, 4416, Note_on_c, 1, 56, 67
3, 4416, Note_on_c, 1, 64, 67
3, 4604, Note_off_c, 1, 56, 0
3, 4604, Note_off_c, 1, 64, 0
3, 4608, Note_on_c, 1, 64, 67
3, 4608, Note_on_c, 1, 57, 67
3, 4988, Note_off_c, 1, 64, 0
3, 4988, Note_off_c, 1, 57, 0
3, 4992, Note_on_c, 1, 50, 67
3, 5180, Note_off_c, 1, 50, 0
3, 5184, Note_on_c, 1, 52, 67
3, 5756, Note_off_c, 1, 52, 0
3, 5760, Note_on_c, 1, 57, 67
3, 5760, Note_on_c, 1, 64, 67
3, 6044, Note_off_c, 1, 57, 0
3, 6048, Note_on_c, 1, 59, 67
3, 6140, Note_off_c, 1, 64, 0
3, 6140, Note_off_c, 1, 59, 0
3, 6144, Note_on_c, 1, 57, 67
3, 6144, Note_on_c, 1, 64, 67
3, 6332, Note_off_c, 1, 57, 0
3, 6332, Note_off_c, 1, 64, 0
3, 6336, Note_on_c, 1, 64, 67
3, 6336, Note_on_c, 1, 61, 67
3, 6716, Note_off_c, 1, 64, 0
3, 6716, Note_off_c, 1, 61, 0
3, 6720, Note_on_c, 1, 61, 67
3, 6720, Note_on_c, 1, 64, 67
3, 6908, Note_off_c, 1, 61, 0
3, 6908, Note_off_c, 1, 64, 0
3, 6912, Note_on_c, 1, 56, 67
3, 6912, Note_on_c, 1, 64, 67
3, 7196, Note_off_c, 1, 56, 0
3, 7200, Note_on_c, 1, 57, 67
3, 7292, Note_off_c, 1, 64, 0
3, 7292, Note_off_c, 1, 57, 0
3, 7296, Note_on_c, 1, 56, 67
3, 7296, Note_on_c, 1, 64, 67
3, 7484, Note_off_c, 1, 56, 0
3, 7484, Note_off_c, 1, 64, 0
3, 7488, Note_on_c, 1, 64, 67
3, 7488, Note_on_c, 1, 59, 67
3, 7868, Note_off_c, 1, 64, 0
3, 7868, Note_off_c, 1, 59, 0
3, 7872, Note_on_c, 1, 64, 67
3, 7872, Note_on_c, 1, 59, 67
3, 8060, Note_off_c, 1, 64, 0
3, 8060, Note_off_c, 1, 59, 0
3, 8064, Note_on_c, 1, 64, 67
3, 8064, Note_on_c, 1, 54, 67
3, 8444, Note_off_c, 1, 64, 0
3, 8444, Note_off_c, 1, 54, 0
3, 8448, Note_on_c, 1, 64, 67
3, 8448, Note_on_c, 1, 56, 67
3, 8636, Note_off_c, 1, 64, 0
3, 8636, Note_off_c, 1, 56, 0
3, 8640, Note_on_c, 1, 64, 67
3, 8640, Note_on_c, 1, 57, 67
3, 9020, Note_off_c, 1, 64, 0
3, 9020, Note_off_c, 1, 57, 0
3, 9024, Note_on_c, 1, 50, 90
3, 9212, Note_off_c, 1, 50, 0
3, 9216, Note_on_c, 1, 52, 67
3, 9596, Note_off_c, 1, 52, 0
3, 9600, Note_on_c, 1, 40, 67
3, 9788, Note_off_c, 1, 40, 0
3, 9792, Note_on_c, 1, 45, 67
3, 10172, Note_off_c, 1, 45, 0
3, 10368, Note_on_c, 1, 64, 67
3, 10368, Note_on_c, 1, 57, 67
3, 10652, Note_off_c, 1, 57, 0
3, 10656, Note_on_c, 1, 59, 67
3, 10748, Note_off_c, 1, 64, 0
3, 10748, Note_off_c, 1, 59, 0
3, 10752, Note_on_c, 1, 57, 67
3, 10752, Note_on_c, 1, 64, 67
3, 10940, Note_off_c, 1, 57, 0
3, 10940, Note_off_c, 1, 64, 0
3, 10944, Note_on_c, 1, 64, 67
3, 10944, Note_on_c, 1, 61, 67
3, 11324, Note_off_c, 1, 64, 0
3, 11324, Note_off_c, 1, 61, 0
3, 11328, Note_on_c, 1, 64, 67
3, 11328, Note_on_c, 1, 61, 67
3, 11516, Note_off_c, 1, 64, 0
3, 11516, Note_off_c, 1, 61, 0
3, 11520, Note_on_c, 1, 64, 67
3, 11520, Note_on_c, 1, 56, 67
3, 11804, Note_off_c, 1, 56, 0
3, 11808, Note_on_c, 1, 57, 67
3, 11900, Note_off_c, 1, 64, 0
3, 11900, Note_off_c, 1, 57, 0
3, 11904, Note_on_c, 1, 56, 67
3, 11904, Note_on_c, 1, 64, 67
3, 12092, Note_off_c, 1, 56, 0
3, 12092, Note_off_c, 1, 64, 0
3, 12096, Note_on_c, 1, 64, 67
3, 12096, Note_on_c, 1, 59, 67
3, 12476, Note_off_c, 1, 64, 0
3, 12476, Note_off_c, 1, 59, 0
3, 12480, Note_on_c, 1, 59, 67
3, 12480, Note_on_c, 1, 64, 67
3, 12668, Note_off_c, 1, 59, 0
3, 12668, Note_off_c, 1, 64, 0
3, 12672, Note_on_c, 1, 64, 67
3, 12672, Note_on_c, 1, 54, 67
3, 13052, Note_off_c, 1, 64, 0
3, 13052, Note_off_c, 1, 54, 0
3, 13056, Note_on_c, 1, 64, 67
3, 13056, Note_on_c, 1, 54, 67
3, 13244, Note_off_c, 1, 64, 0
3, 13244, Note_off_c, 1, 54, 0
3, 13248, Note_on_c, 1, 64, 67
3, 13248, Note_on_c, 1, 56, 67
3, 13628, Note_off_c, 1, 64, 0
3, 13628, Note_off_c, 1, 56, 0
3, 13632, Note_on_c, 1, 56, 67
3, 13632, Note_on_c, 1, 64, 67
3, 13820, Note_off_c, 1, 56, 0
3, 13820, Note_off_c, 1, 64, 0
3, 13824, Note_on_c, 1, 64, 67
3, 13824, Note_on_c, 1, 57, 67
3, 14204, Note_off_c, 1, 64, 0
3, 14204, Note_off_c, 1, 57, 0
3, 14208, Note_on_c, 1, 50, 67
3, 14396, Note_off_c, 1, 50, 0
3, 14400, Note_on_c, 1, 52, 67
3, 14972, Note_off_c, 1, 52, 0
3, 14976, Note_on_c, 1, 57, 67
3, 14976, Note_on_c, 1, 64, 67
3, 15260, Note_off_c, 1, 57, 0
3, 15264, Note_on_c, 1, 59, 67
3, 15356, Note_off_c, 1, 64, 0
3, 15356, Note_off_c, 1, 59, 0
3, 15360, Note_on_c, 1, 57, 67
3, 15360, Note_on_c, 1, 64, 67
3, 15548, Note_off_c, 1, 57, 0
3, 15548, Note_off_c, 1, 64, 0
3, 15552, Note_on_c, 1, 64, 67
3, 15552, Note_on_c, 1, 61, 67
3, 15932, Note_off_c, 1, 64, 0
3, 15932, Note_off_c, 1, 61, 0
3, 15936, Note_on_c, 1, 61, 67
3, 15936, Note_on_c, 1, 64, 67
3, 16124, Note_off_c, 1, 61, 0
3, 16124, Note_off_c, 1, 64, 0
3, 16128, Note_on_c, 1, 56, 67
3, 16128, Note_on_c, 1, 64, 67
3, 16412, Note_off_c, 1, 56, 0
3, 16416, Note_on_c, 1, 57, 67
3, 16508, Note_off_c, 1, 64, 0
3, 16508, Note_off_c, 1, 57, 0
3, 16512, Note_on_c, 1, 56, 67
3, 16512, Note_on_c, 1, 64, 67
3, 16700, Note_off_c, 1, 56, 0
3, 16700, Note_off_c, 1, 64, 0
3, 16704, Note_on_c, 1, 64, 67
3, 16704, Note_on_c, 1, 59, 67
3, 17084, Note_off_c, 1, 64, 0
3, 17084, Note_off_c, 1, 59, 0
3, 17088, Note_on_c, 1, 64, 67
3, 17088, Note_on_c, 1, 59, 67
3, 17276, Note_off_c, 1, 64, 0
3, 17276, Note_off_c, 1, 59, 0
3, 17280, Note_on_c, 1, 64, 67
3, 17280, Note_on_c, 1, 54, 67
3, 17660, Note_off_c, 1, 64, 0
3, 17660, Note_off_c, 1, 54, 0
3, 17664, Note_on_c, 1, 64, 67
3, 17664, Note_on_c, 1, 56, 67
3, 17852, Note_off_c, 1, 64, 0
3, 17852, Note_off_c, 1, 56, 0
3, 17872, Note_on_c, 1, 64, 67
3, 17872, Note_on_c, 1, 57, 67
3, 18240, Note_on_c, 1, 50, 90
3, 18252, Note_off_c, 1, 64, 0
3, 18252, Note_off_c, 1, 57, 0
3, 18428, Note_off_c, 1, 50, 0
3, 18432, Note_on_c, 1, 52, 67
3, 18812, Note_off_c, 1, 52, 0
3, 18816, Note_on_c, 1, 40, 67
3, 19004, Note_off_c, 1, 40, 0
3, 19008, Note_on_c, 1, 45, 67
3, 19388, Note_off_c, 1, 45, 0
3, 19584, Note_on_c, 1, 57, 67
3, 19772, Note_off_c, 1, 57, 0
3, 19776, Note_on_c, 1, 61, 67
3, 19964, Note_off_c, 1, 61, 0
3, 19968, Note_on_c, 1, 64, 67
3, 20156, Note_off_c, 1, 64, 0
3, 20160, Note_on_c, 1, 57, 67
3, 20348, Note_off_c, 1, 57, 0
3, 20352, Note_on_c, 1, 62, 67
3, 20540, Note_off_c, 1, 62, 0
3, 20544, Note_on_c, 1, 66, 67
3, 20732, Note_off_c, 1, 66, 0
3, 20736, Note_on_c, 1, 57, 67
3, 20924, Note_off_c, 1, 57, 0
3, 20928, Note_on_c, 1, 62, 67
3, 21116, Note_off_c, 1, 62, 0
3, 21120, Note_on_c, 1, 66, 67
3, 21308, Note_off_c, 1, 66, 0
3, 21312, Note_on_c, 1, 57, 67
3, 21500, Note_off_c, 1, 57, 0
3, 21504, Note_on_c, 1, 61, 67
3, 21692, Note_off_c, 1, 61, 0
3, 21696, Note_on_c, 1, 64, 67
3, 21884, Note_off_c, 1, 64, 0
3, 21888, Note_on_c, 1, 57, 90
3, 21888, Note_on_c, 1, 61, 90
3, 22268, Note_off_c, 1, 57, 0
3, 22268, Note_off_c, 1, 61, 0
3, 22464, Note_on_c, 1, 62, 90
3, 22464, Note_on_c, 1, 56, 90
3, 22844, Note_off_c, 1, 62, 0
3, 22844, Note_off_c, 1, 56, 0
3, 23040, Note_on_c, 1, 57, 90
3, 23040, Note_on_c, 1, 61, 90
3, 23420, Note_off_c, 1, 57, 0
3, 23420, Note_off_c, 1, 61, 0
3, 23424, Note_on_c, 1, 54, 67
3, 23424, Note_on_c, 1, 63, 67
3, 23612, Note_off_c, 1, 54, 0
3, 23612, Note_off_c, 1, 63, 0
3, 23616, Note_on_c, 1, 64, 67
3, 23616, Note_on_c, 1, 52, 67
3, 24188, Note_off_c, 1, 64, 0
3, 24188, Note_off_c, 1, 52, 0
3, 24192, Note_on_c, 1, 57, 67
3, 24192, Note_on_c, 1, 64, 67
3, 24476, Note_off_c, 1, 57, 0
3, 24480, Note_on_c, 1, 59, 67
3, 24572, Note_off_c, 1, 64, 0
3, 24572, Note_off_c, 1, 59, 0
3, 24576, Note_on_c, 1, 57, 67
3, 24576, Note_on_c, 1, 64, 67
3, 24764, Note_off_c, 1, 57, 0
3, 24764, Note_off_c, 1, 64, 0
3, 24768, Note_on_c, 1, 61, 67
3, 24768, Note_on_c, 1, 64, 67
3, 25148, Note_off_c, 1, 61, 0
3, 25148, Note_off_c, 1, 64, 0
3, 25152, Note_on_c, 1, 61, 67
3, 25152, Note_on_c, 1, 64, 67
3, 25340, Note_off_c, 1, 61, 0
3, 25340, Note_off_c, 1, 64, 0
3, 25344, Note_on_c, 1, 56, 67
3, 25344, Note_on_c, 1, 64, 67
3, 25628, Note_off_c, 1, 56, 0
3, 25632, Note_on_c, 1, 57, 67
3, 25724, Note_off_c, 1, 64, 0
3, 25724, Note_off_c, 1, 57, 0
3, 25728, Note_on_c, 1, 56, 67
3, 25916, Note_off_c, 1, 56, 0
3, 25920, Note_on_c, 1, 64, 67
3, 25920, Note_on_c, 1, 59, 67
3, 26300, Note_off_c, 1, 64, 0
3, 26300, Note_off_c, 1, 59, 0
3, 26304, Note_on_c, 1, 64, 67
3, 26304, Note_on_c, 1, 59, 67
3, 26492, Note_off_c, 1, 64, 0
3, 26492, Note_off_c, 1, 59, 0
3, 26496, Note_on_c, 1, 64, 67
3, 26496, Note_on_c, 1, 54, 67
3, 26876, Note_off_c, 1, 64, 0
3, 26876, Note_off_c, 1, 54, 0
3, 26880, Note_on_c, 1, 64, 67
3, 26880, Note_on_c, 1, 56, 67
3, 27068, Note_off_c, 1, 64, 0
3, 27068, Note_off_c, 1, 56, 0
3, 27072, Note_on_c, 1, 57, 67
3, 27072, Note_on_c, 1, 64, 67
3, 27452, Note_off_c, 1, 57, 0
3, 27452, Note_off_c, 1, 64, 0
3, 27456, Note_on_c, 1, 50, 90
3, 27644, Note_off_c, 1, 50, 0
3, 27648, Note_on_c, 1, 52, 67
3, 28028, Note_off_c, 1, 52, 0
3, 28032, Note_on_c, 1, 40, 67
3, 28220, Note_off_c, 1, 40, 0
3, 28224, Note_on_c, 1, 45, 67
3, 28796, Note_off_c, 1, 45, 0
3, 28800, Note_on_c, 1, 57, 90
3, 28800, Note_on_c, 1, 45, 90
3, 29180, Note_off_c, 1, 57, 0
3, 29180, Note_off_c, 1, 45, 0
3, 29184, Note_on_c, 1, 59, 90
3, 29184, Note_on_c, 1, 47, 90
3, 29372, Note_off_c, 1, 59, 0
3, 29372, Note_off_c, 1, 47, 0
3, 29376, Note_on_c, 1, 49, 90
3, 29376, Note_on_c, 1, 61, 90
3, 29756, Note_off_c, 1, 49, 0
3, 29756, Note_off_c, 1, 61, 0
3, 29760, Note_on_c, 1, 62, 90
3, 29760, Note_on_c, 1, 50, 90
3, 29948, Note_off_c, 1, 62, 0
3, 29948, Note_off_c, 1, 50, 0
3, 29952, Note_on_c, 1, 61, 90
3, 29952, Note_on_c, 1, 52, 90
3, 30332, Note_off_c, 1, 61, 0
3, 30332, Note_off_c, 1, 52, 0
3, 30336, Note_on_c, 1, 62, 90
3, 30336, Note_on_c, 1, 52, 90
3, 30524, Note_off_c, 1, 62, 0
3, 30524, Note_off_c, 1, 52, 0
3, 30528, Note_on_c, 1, 57, 90
3, 30528, Note_on_c, 1, 61, 90
3, 30908, Note_off_c, 1, 57, 0
3, 30908, Note_off_c, 1, 61, 0
3, 31104, Note_on_c, 1, 57, 67
3, 31292, Note_off_c, 1, 57, 0
3, 31296, Note_on_c, 1, 61, 67
3, 31484, Note_off_c, 1, 61, 0
3, 31488, Note_on_c, 1, 64, 67
3, 31676, Note_off_c, 1, 64, 0
3, 31680, Note_on_c, 1, 57, 67
3, 31868, Note_off_c, 1, 57, 0
3, 31872, Note_on_c, 1, 62, 67
3, 32060, Note_off_c, 1, 62, 0
3, 32064, Note_on_c, 1, 66, 67
3, 32252, Note_off_c, 1, 66, 0
3, 32256, Note_on_c, 1, 57, 67
3, 32444, Note_off_c, 1, 57, 0
3, 32448, Note_on_c, 1, 62, 67
3, 32636, Note_off_c, 1, 62, 0
3, 32640, Note_on_c, 1, 66, 67
3, 32828, Note_off_c, 1, 66, 0
3, 32832, Note_on_c, 1, 57, 67
3, 33020, Note_off_c, 1, 57, 0
3, 33024, Note_on_c, 1, 61, 67
3, 33212, Note_off_c, 1, 61, 0
3, 33216, Note_on_c, 1, 64, 67
3, 33404, Note_off_c, 1, 64, 0
3, 33408, Note_on_c, 1, 57, 90
3, 33408, Note_on_c, 1, 61, 90
3, 33788, Note_off_c, 1, 57, 0
3, 33788, Note_off_c, 1, 61, 0
3, 33984, Note_on_c, 1, 62, 90
3, 33984, Note_on_c, 1, 56, 90
3, 34364, Note_off_c, 1, 62, 0
3, 34364, Note_off_c, 1, 56, 0
3, 34560, Note_on_c, 1, 57, 90
3, 34560, Note_on_c, 1, 61, 90
3, 34940, Note_off_c, 1, 57, 0
3, 34940, Note_off_c, 1, 61, 0
3, 34944, Note_on_c, 1, 54, 67
3, 34944, Note_on_c, 1, 63, 67
3, 35132, Note_off_c, 1, 54, 0
3, 35132, Note_off_c, 1, 63, 0
3, 35136, Note_on_c, 1, 64, 67
3, 35136, Note_on_c, 1, 52, 67
3, 35708, Note_off_c, 1, 64, 0
3, 35708, Note_off_c, 1, 52, 0
3, 35712, Note_on_c, 1, 57, 67
3, 35712, Note_on_c, 1, 64, 67
3, 35996, Note_off_c, 1, 57, 0
3, 36000, Note_on_c, 1, 59, 67
3, 36092, Note_off_c, 1, 64, 0
3, 36092, Note_off_c, 1, 59, 0
3, 36096, Note_on_c, 1, 57, 67
3, 36096, Note_on_c, 1, 64, 67
3, 36284, Note_off_c, 1, 57, 0
3, 36284, Note_off_c, 1, 64, 0
3, 36288, Note_on_c, 1, 61, 67
3, 36288, Note_on_c, 1, 64, 67
3, 36668, Note_off_c, 1, 61, 0
3, 36668, Note_off_c, 1, 64, 0
3, 36672, Note_on_c, 1, 61, 67
3, 36672, Note_on_c, 1, 64, 67
3, 36860, Note_off_c, 1, 61, 0
3, 36860, Note_off_c, 1, 64, 0
3, 36864, Note_on_c, 1, 56, 67
3, 36864, Note_on_c, 1, 64, 67
3, 37148, Note_off_c, 1, 56, 0
3, 37152, Note_on_c, 1, 57, 67
3, 37244, Note_off_c, 1, 64, 0
3, 37244, Note_off_c, 1, 57, 0
3, 37248, Note_on_c, 1, 56, 67
3, 37436, Note_off_c, 1, 56, 0
3, 37440, Note_on_c, 1, 64, 67
3, 37440, Note_on_c, 1, 59, 67
3, 37820, Note_off_c, 1, 64, 0
3, 37820, Note_off_c, 1, 59, 0
3, 37824, Note_on_c, 1, 64, 67
3, 37824, Note_on_c, 1, 59, 67
3, 38012, Note_off_c, 1, 64, 0
3, 38012, Note_off_c, 1, 59, 0
3, 38016, Note_on_c, 1, 64, 67
3, 38016, Note_on_c, 1, 54, 67
3, 38396, Note_off_c, 1, 64, 0
3, 38396, Note_off_c, 1, 54, 0
3, 38400, Note_on_c, 1, 64, 67
3, 38400, Note_on_c, 1, 56, 67
3, 38588, Note_off_c, 1, 64, 0
3, 38588, Note_off_c, 1, 56, 0
3, 38592, Note_on_c, 1, 57, 67
3, 38592, Note_on_c, 1, 64, 67
3, 38972, Note_off_c, 1, 57, 0
3, 38972, Note_off_c, 1, 64, 0
3, 38976, Note_on_c, 1, 50, 90
3, 39164, Note_off_c, 1, 50, 0
3, 39168, Note_on_c, 1, 52, 67
3, 39548, Note_off_c, 1, 52, 0
3, 39552, Note_on_c, 1, 40, 67
3, 39740, Note_off_c, 1, 40, 0
3, 39744, Note_on_c, 1, 45, 67
3, 40316, Note_off_c, 1, 45, 0
3, 40320, Note_on_c, 1, 57, 90
3, 40320, Note_on_c, 1, 45, 90
3, 40700, Note_off_c, 1, 57, 0
3, 40700, Note_off_c, 1, 45, 0
3, 40704, Note_on_c, 1, 59, 90
3, 40704, Note_on_c, 1, 47, 90
3, 40892, Note_off_c, 1, 59, 0
3, 40892, Note_off_c, 1, 47, 0
3, 40896, Note_on_c, 1, 49, 90
3, 40896, Note_on_c, 1, 61, 90
3, 41276, Note_off_c, 1, 49, 0
3, 41276, Note_off_c, 1, 61, 0
3, 41280, Note_on_c, 1, 62, 90
3, 41280, Note_on_c, 1, 50, 90
3, 41468, Note_off_c, 1, 62, 0
3, 41468, Note_off_c, 1, 50, 0
3, 41472, Note_on_c, 1, 61, 90
3, 41472, Note_on_c, 1, 52, 90
3, 41852, Note_off_c, 1, 61, 0
3, 41852, Note_off_c, 1, 52, 0
3, 41856, Note_on_c, 1, 62, 90
3, 41856, Note_on_c, 1, 52, 90
3, 42044, Note_off_c, 1, 62, 0
3, 42044, Note_off_c, 1, 52, 0
3, 42048, Note_on_c, 1, 57, 90
3, 42048, Note_on_c, 1, 61, 90
3, 42428, Note_off_c, 1, 57, 0
3, 42428, Note_off_c, 1, 61, 0
3, 42816, Note_on_c, 1, 57, 67
3, 42816, Note_on_c, 1, 64, 67
3, 43004, Note_off_c, 1, 57, 0
3, 43004, Note_off_c, 1, 64, 0
3, 43392, Note_on_c, 1, 61, 67
3, 43392, Note_on_c, 1, 64, 67
3, 43580, Note_off_c, 1, 61, 0
3, 43580, Note_off_c, 1, 64, 0
3, 43968, Note_on_c, 1, 56, 67
3, 43968, Note_on_c, 1, 64, 67
3, 44156, Note_off_c, 1, 56, 0
3, 44156, Note_off_c, 1, 64, 0
3, 44544, Note_on_c, 1, 59, 67
3, 44544, Note_on_c, 1, 64, 67
3, 44732, Note_off_c, 1, 59, 0
3, 44732, Note_off_c, 1, 64, 0
3, 45120, Note_on_c, 1, 54, 67
3, 45120, Note_on_c, 1, 64, 67
3, 45308, Note_off_c, 1, 54, 0
3, 45308, Note_off_c, 1, 64, 0
3, 45696, Note_on_c, 1, 56, 67
3, 45696, Note_on_c, 1, 64, 67
3, 45884, Note_off_c, 1, 56, 0
3, 45884, Note_off_c, 1, 64, 0
3, 46080, Note_on_c, 1, 64, 67
3, 46080, Note_on_c, 1, 57, 67
3, 46460, Note_off_c, 1, 64, 0
3, 46460, Note_off_c, 1, 57, 0
3, 46464, Note_on_c, 1, 54, 67
3, 46464, Note_on_c, 1, 50, 67
3, 46652, Note_off_c, 1, 54, 0
3, 46652, Note_off_c, 1, 50, 0
3, 46656, Note_on_c, 1, 56, 67
3, 46656, Note_on_c, 1, 52, 67
3, 47036, Note_off_c, 1, 56, 0
3, 47036, Note_off_c, 1, 52, 0
3, 47232, Note_on_c, 1, 45, 90
3, 47324, Note_off_c, 1, 45, 0
3, 47328, Note_on_c, 1, 57, 90
3, 47420, Note_off_c, 1, 57, 0
3, 47424, Note_on_c, 1, 57, 90
3, 47516, Note_off_c, 1, 57, 0
3, 47520, Note_on_c, 1, 57, 90
3, 47612, Note_off_c, 1, 57, 0
3, 47616, Note_on_c, 1, 57, 90
3, 47708, Note_off_c, 1, 57, 0
3, 47712, Note_on_c, 1, 57, 90
3, 47804, Note_off_c, 1, 57, 0
3, 47808, Note_on_c, 1, 45, 90
3, 47900, Note_off_c, 1, 45, 0
3, 47904, Note_on_c, 1, 57, 90
3, 47996, Note_off_c, 1, 57, 0
3, 48000, Note_on_c, 1, 57, 90
3, 48092, Note_off_c, 1, 57, 0
3, 48096, Note_on_c, 1, 57, 90
3, 48188, Note_off_c, 1, 57, 0
3, 48192, Note_on_c, 1, 57, 90
3, 48284, Note_off_c, 1, 57, 0
3, 48288, Note_on_c, 1, 57, 90
3, 48380, Note_off_c, 1, 57, 0
3, 48384, Note_on_c, 1, 40, 90
3, 48476, Note_off_c, 1, 40, 0
3, 48480, Note_on_c, 1, 52, 90
3, 48572, Note_off_c, 1, 52, 0
3, 48576, Note_on_c, 1, 52, 90
3, 48668, Note_off_c, 1, 52, 0
3, 48672, Note_on_c, 1, 52, 90
3, 48764, Note_off_c, 1, 52, 0
3, 48768, Note_on_c, 1, 52, 90
3, 48860, Note_off_c, 1, 52, 0
3, 48864, Note_on_c, 1, 52, 90
3, 48956, Note_off_c, 1, 52, 0
3, 48960, Note_on_c, 1, 40, 90
3, 49052, Note_off_c, 1, 40, 0
3, 49056, Note_on_c, 1, 52, 90
3, 49148, Note_off_c, 1, 52, 0
3, 49152, Note_on_c, 1, 52, 90
3, 49244, Note_off_c, 1, 52, 0
3, 49248, Note_on_c, 1, 52, 90
3, 49340, Note_off_c, 1, 52, 0
3, 49344, Note_on_c, 1, 52, 90
3, 49436, Note_off_c, 1, 52, 0
3, 49440, Note_on_c, 1, 52, 90
3, 49532, Note_off_c, 1, 52, 0
3, 49536, Note_on_c, 1, 42, 90
3, 49628, Note_off_c, 1, 42, 0
3, 49632, Note_on_c, 1, 54, 90
3, 49724, Note_off_c, 1, 54, 0
3, 49728, Note_on_c, 1, 54, 90
3, 49820, Note_off_c, 1, 54, 0
3, 49824, Note_on_c, 1, 54, 90
3, 49916, Note_off_c, 1, 54, 0
3, 49920, Note_on_c, 1, 44, 90
3, 50012, Note_off_c, 1, 44, 0
3, 50016, Note_on_c, 1, 56, 90
3, 50108, Note_off_c, 1, 56, 0
3, 50112, Note_on_c, 1, 45, 90
3, 50204, Note_off_c, 1, 45, 0
3, 50208, Note_on_c, 1, 57, 90
3, 50300, Note_off_c, 1, 57, 0
3, 50304, Note_on_c, 1, 57, 90
3, 50396, Note_off_c, 1, 57, 0
3, 50400, Note_on_c, 1, 57, 90
3, 50492, Note_off_c, 1, 57, 0
3, 50496, Note_on_c, 1, 38, 90
3, 50588, Note_off_c, 1, 38, 0
3, 50592, Note_on_c, 1, 50, 90
3, 50684, Note_off_c, 1, 50, 0
3, 50688, Note_on_c, 1, 40, 90
3, 50780, Note_off_c, 1, 40, 0
3, 50784, Note_on_c, 1, 52, 90
3, 50876, Note_off_c, 1, 52, 0
3, 50880, Note_on_c, 1, 52, 90
3, 50972, Note_off_c, 1, 52, 0
3, 50976, Note_on_c, 1, 52, 90
3, 51068, Note_off_c, 1, 52, 0
3, 51072, Note_on_c, 1, 40, 90
3, 51164, Note_off_c, 1, 40, 0
3, 51168, Note_on_c, 1, 52, 90
3, 51260, Note_off_c, 1, 52, 0
3, 51264, Note_on_c, 1, 33, 90
3, 51452, Note_off_c, 1, 33, 0
3, 51456, Note_on_c, 1, 45, 90
3, 51644, Note_off_c, 1, 45, 0
3, 52032, Note_on_c, 1, 57, 67
3, 52032, Note_on_c, 1, 64, 67
3, 52220, Note_off_c, 1, 57, 0
3, 52220, Note_off_c, 1, 64, 0
3, 52608, Note_on_c, 1, 61, 67
3, 52608, Note_on_c, 1, 64, 67
3, 52796, Note_off_c, 1, 61, 0
3, 52796, Note_off_c, 1, 64, 0
3, 53184, Note_on_c, 1, 56, 67
3, 53184, Note_on_c, 1, 64, 67
3, 53372, Note_off_c, 1, 56, 0
3, 53372, Note_off_c, 1, 64, 0
3, 53760, Note_on_c, 1, 59, 67
3, 53760, Note_on_c, 1, 64, 67
3, 53948, Note_off_c, 1, 59, 0
3, 53948, Note_off_c, 1, 64, 0
3, 54336, Note_on_c, 1, 54, 67
3, 54336, Note_on_c, 1, 64, 67
3, 54524, Note_off_c, 1, 54, 0
3, 54524, Note_off_c, 1, 64, 0
3, 54912, Note_on_c, 1, 56, 67
3, 54912, Note_on_c, 1, 64, 67
3, 55100, Note_off_c, 1, 56, 0
3, 55100, Note_off_c, 1, 64, 0
3, 55296, Note_on_c, 1, 64, 67
3, 55296, Note_on_c, 1, 57, 67
3, 55676, Note_off_c, 1, 64, 0
3, 55676, Note_off_c, 1, 57, 0
3, 55680, Note_on_c, 1, 54, 67
3, 55680, Note_on_c, 1, 50, 67
3, 55868, Note_off_c, 1, 54, 0
3, 55868, Note_off_c, 1, 50, 0
3, 55872, Note_on_c, 1, 56, 67
3, 55872, Note_on_c, 1, 52, 67
3, 56252, Note_off_c, 1, 56, 0
3, 56252, Note_off_c, 1, 52, 0
3, 56448, Note_on_c, 1, 45, 90
3, 56540, Note_off_c, 1, 45, 0
3, 56544, Note_on_c, 1, 57, 90
3, 56636, Note_off_c, 1, 57, 0
3, 56640, Note_on_c, 1, 57, 90
3, 56732, Note_off_c, 1, 57, 0
3, 56736, Note_on_c, 1, 57, 90
3, 56828, Note_off_c, 1, 57, 0
3, 56832, Note_on_c, 1, 57, 90
3, 56924, Note_off_c, 1, 57, 0
3, 56928, Note_on_c, 1, 57, 90
3, 57020, Note_off_c, 1, 57, 0
3, 57024, Note_on_c, 1, 45, 90
3, 57116, Note_off_c, 1, 45, 0
3, 57120, Note_on_c, 1, 57, 90
3, 57212, Note_off_c, 1, 57, 0
3, 57216, Note_on_c, 1, 57, 90
3, 57308, Note_off_c, 1, 57, 0
3, 57312, Note_on_c, 1, 57, 90
3, 57404, Note_off_c, 1, 57, 0
3, 57408, Note_on_c, 1, 57, 90
3, 57500, Note_off_c, 1, 57, 0
3, 57504, Note_on_c, 1, 57, 90
3, 57596, Note_off_c, 1, 57, 0
3, 57600, Note_on_c, 1, 40, 90
3, 57692, Note_off_c, 1, 40, 0
3, 57696, Note_on_c, 1, 52, 90
3, 57788, Note_off_c, 1, 52, 0
3, 57792, Note_on_c, 1, 52, 90
3, 57884, Note_off_c, 1, 52, 0
3, 57888, Note_on_c, 1, 52, 90
3, 57980, Note_off_c, 1, 52, 0
3, 57984, Note_on_c, 1, 52, 90
3, 58076, Note_off_c, 1, 52, 0
3, 58080, Note_on_c, 1, 52, 90
3, 58172, Note_off_c, 1, 52, 0
3, 58176, Note_on_c, 1, 40, 90
3, 58268, Note_off_c, 1, 40, 0
3, 58272, Note_on_c, 1, 52, 90
3, 58364, Note_off_c, 1, 52, 0
3, 58368, Note_on_c, 1, 52, 90
3, 58460, Note_off_c, 1, 52, 0
3, 58464, Note_on_c, 1, 52, 90
3, 58556, Note_off_c, 1, 52, 0
3, 58560, Note_on_c, 1, 52, 90
3, 58652, Note_off_c, 1, 52, 0
3, 58656, Note_on_c, 1, 52, 90
3, 58748, Note_off_c, 1, 52, 0
3, 58752, Note_on_c, 1, 42, 90
3, 58844, Note_off_c, 1, 42, 0
3, 58848, Note_on_c, 1, 54, 90
3, 58940, Note_off_c, 1, 54, 0
3, 58944, Note_on_c, 1, 54, 90
3, 59036, Note_off_c, 1, 54, 0
3, 59040, Note_on_c, 1, 54, 90
3, 59132, Note_off_c, 1, 54, 0
3, 59136, Note_on_c, 1, 44, 90
3, 59228, Note_off_c, 1, 44, 0
3, 59232, Note_on_c, 1, 56, 90
3, 59324, Note_off_c, 1, 56, 0
3, 59328, Note_on_c, 1, 45, 90
3, 59420, Note_off_c, 1, 45, 0
3, 59424, Note_on_c, 1, 57, 90
3, 59516, Note_off_c, 1, 57, 0
3, 59520, Note_on_c, 1, 57, 90
3, 59612, Note_off_c, 1, 57, 0
3, 59616, Note_on_c, 1, 57, 90
3, 59708, Note_off_c, 1, 57, 0
3, 59712, Note_on_c, 1, 38, 90
3, 59804, Note_off_c, 1, 38, 0
3, 59808, Note_on_c, 1, 50, 90
3, 59900, Note_off_c, 1, 50, 0
3, 59904, Note_on_c, 1, 40, 90
3, 59996, Note_off_c, 1, 40, 0
3, 60000, Note_on_c, 1, 52, 90
3, 60092, Note_off_c, 1, 52, 0
3, 60096, Note_on_c, 1, 52, 90
3, 60188, Note_off_c, 1, 52, 0
3, 60192, Note_on_c, 1, 52, 90
3, 60284, Note_off_c, 1, 52, 0
3, 60288, Note_on_c, 1, 40, 90
3, 60380, Note_off_c, 1, 40, 0
3, 60384, Note_on_c, 1, 52, 90
3, 60476, Note_off_c, 1, 52, 0
3, 60480, Note_on_c, 1, 33, 90
3, 60668, Note_off_c, 1, 33, 0
3, 60672, Note_on_c, 1, 45, 90
3, 60860, Note_off_c, 1, 45, 0
3, 61248, Note_on_c, 1, 57, 67
3, 61248, Note_on_c, 1, 61, 67
3, 61436, Note_off_c, 1, 57, 0
3, 61436, Note_off_c, 1, 61, 0
3, 61824, Note_on_c, 1, 57, 67
3, 61824, Note_on_c, 1, 62, 67
3, 62012, Note_off_c, 1, 57, 0
3, 62012, Note_off_c, 1, 62, 0
3, 62208, Note_on_c, 1, 66, 67
3, 62208, Note_on_c, 1, 57, 67
3, 62396, Note_off_c, 1, 66, 0
3, 62396, Note_off_c, 1, 57, 0
3, 62400, Note_on_c, 1, 57, 67
3, 62400, Note_on_c, 1, 64, 67
3, 62588, Note_off_c, 1, 57, 0
3, 62588, Note_off_c, 1, 64, 0
3, 62592, Note_on_c, 1, 57, 67
3, 62592, Note_on_c, 1, 62, 67
3, 62780, Note_off_c, 1, 57, 0
3, 62780, Note_off_c, 1, 62, 0
3, 62976, Note_on_c, 1, 57, 67
3, 62976, Note_on_c, 1, 61, 67
3, 63164, Note_off_c, 1, 57, 0
3, 63164, Note_off_c, 1, 61, 0
3, 63360, Note_on_c, 1, 57, 90
3, 63360, Note_on_c, 1, 61, 90
3, 63360, Note_on_c, 1, 64, 90
3, 63932, Note_off_c, 1, 57, 0
3, 63932, Note_off_c, 1, 61, 0
3, 63932, Note_off_c, 1, 64, 0
3, 63936, Note_on_c, 1, 59, 90
3, 63936, Note_on_c, 1, 62, 90
3, 63936, Note_on_c, 1, 64, 90
3, 64508, Note_off_c, 1, 59, 0
3, 64508, Note_off_c, 1, 62, 0
3, 64508, Note_off_c, 1, 64, 0
3, 64512, Note_on_c, 1, 61, 90
3, 64512, Note_on_c, 1, 64, 90
3, 64892, Note_off_c, 1, 61, 0
3, 64892, Note_off_c, 1, 64, 0
3, 64896, Note_on_c, 1, 57, 67
3, 64896, Note_on_c, 1, 54, 67
3, 64896, Note_on_c, 1, 63, 67
3, 65084, Note_off_c, 1, 57, 0
3, 65084, Note_off_c, 1, 54, 0
3, 65084, Note_off_c, 1, 63, 0
3, 65088, Note_on_c, 1, 64, 67
3, 65088, Note_on_c, 1, 52, 67
3, 65660, Note_off_c, 1, 64, 0
3, 65666, Note_off_c, 1, 52, 0
3, 65856, Note_on_c, 1, 57, 67
3, 65856, Note_on_c, 1, 64, 67
3, 66044, Note_off_c, 1, 57, 0
3, 66044, Note_off_c, 1, 64, 0
3, 66432, Note_on_c, 1, 61, 67
3, 66432, Note_on_c, 1, 64, 67
3, 66620, Note_off_c, 1, 61, 0
3, 66620, Note_off_c, 1, 64, 0
3, 67008, Note_on_c, 1, 56, 67
3, 67008, Note_on_c, 1, 64, 67
3, 67196, Note_off_c, 1, 56, 0
3, 67196, Note_off_c, 1, 64, 0
3, 67584, Note_on_c, 1, 59, 67
3, 67584, Note_on_c, 1, 64, 67
3, 67772, Note_off_c, 1, 59, 0
3, 67772, Note_off_c, 1, 64, 0
3, 68160, Note_on_c, 1, 54, 67
3, 68160, Note_on_c, 1, 64, 67
3, 68348, Note_off_c, 1, 54, 0
3, 68348, Note_off_c, 1, 64, 0
3, 68352, Note_on_c, 1, 56, 71
3, 68352, Note_on_c, 1, 64, 71
3, 68540, Note_off_c, 1, 56, 0
3, 68540, Note_off_c, 1, 64, 0
3, 68736, Note_on_c, 1, 57, 77
3, 68736, Note_on_c, 1, 64, 77
3, 68924, Note_off_c, 1, 57, 0
3, 68924, Note_off_c, 1, 64, 0
3, 68928, Note_on_c, 1, 59, 80
3, 68928, Note_on_c, 1, 50, 80
3, 69116, Note_off_c, 1, 59, 0
3, 69116, Note_off_c, 1, 50, 0
3, 69312, Note_on_c, 1, 57, 81
3, 69312, Note_on_c, 1, 52, 81
3, 69500, Note_off_c, 1, 57, 0
3, 69500, Note_off_c, 1, 52, 0
3, 69504, Note_on_c, 1, 56, 79
3, 69504, Note_on_c, 1, 52, 79
3, 69692, Note_off_c, 1, 56, 0
3, 69692, Note_off_c, 1, 52, 0
3, 69696, Note_on_c, 1, 57, 75
3, 69884, Note_off_c, 1, 57, 0
3, 69888, Note_on_c, 1, 52, 72
3, 70076, Note_off_c, 1, 52, 0
3, 70080, Note_on_c, 1, 45, 70
3, 70268, Note_off_c, 1, 45, 0
3, 70272, Note_on_c, 1, 33, 90
3, 70368, Note_on_c, 1, 45, 90
3, 70460, Note_off_c, 1, 45, 0
3, 70464, Note_on_c, 1, 45, 90
3, 70556, Note_off_c, 1, 45, 0
3, 70560, Note_on_c, 1, 45, 90
3, 70652, Note_off_c, 1, 33, 0
3, 70652, Note_off_c, 1, 45, 0
3, 70656, Note_on_c, 1, 35, 90
3, 70748, Note_off_c, 1, 35, 0
3, 70752, Note_on_c, 1, 47, 90
3, 70844, Note_off_c, 1, 47, 0
3, 70848, Note_on_c, 1, 37, 90
3, 70944, Note_on_c, 1, 49, 90
3, 71036, Note_off_c, 1, 49, 0
3, 71040, Note_on_c, 1, 49, 90
3, 71132, Note_off_c, 1, 49, 0
3, 71136, Note_on_c, 1, 49, 90
3, 71228, Note_off_c, 1, 37, 0
3, 71228, Note_off_c, 1, 49, 0
3, 71232, Note_on_c, 1, 38, 90
3, 71324, Note_off_c, 1, 38, 0
3, 71328, Note_on_c, 1, 50, 90
3, 71420, Note_off_c, 1, 50, 0
3, 71424, Note_on_c, 1, 40, 90
3, 71516, Note_off_c, 1, 40, 0
3, 71520, Note_on_c, 1, 52, 90
3, 71612, Note_off_c, 1, 52, 0
3, 71616, Note_on_c, 1, 52, 90
3, 71708, Note_off_c, 1, 52, 0
3, 71712, Note_on_c, 1, 52, 90
3, 71804, Note_off_c, 1, 52, 0
3, 71808, Note_on_c, 1, 40, 90
3, 71900, Note_off_c, 1, 40, 0
3, 71904, Note_on_c, 1, 52, 90
3, 71996, Note_off_c, 1, 52, 0
3, 72000, Note_on_c, 1, 33, 90
3, 72188, Note_off_c, 1, 33, 0
3, 72192, Note_on_c, 1, 45, 90
3, 72380, Note_off_c, 1, 45, 0
3, 72768, Note_on_c, 1, 57, 67
3, 72768, Note_on_c, 1, 61, 67
3, 72956, Note_off_c, 1, 57, 0
3, 72956, Note_off_c, 1, 61, 0
3, 73344, Note_on_c, 1, 57, 67
3, 73344, Note_on_c, 1, 62, 67
3, 73532, Note_off_c, 1, 57, 0
3, 73532, Note_off_c, 1, 62, 0
3, 73728, Note_on_c, 1, 66, 67
3, 73728, Note_on_c, 1, 57, 67
3, 73916, Note_off_c, 1, 66, 0
3, 73916, Note_off_c, 1, 57, 0
3, 73920, Note_on_c, 1, 57, 67
3, 73920, Note_on_c, 1, 64, 67
3, 74108, Note_off_c, 1, 57, 0
3, 74108, Note_off_c, 1, 64, 0
3, 74112, Note_on_c, 1, 57, 67
3, 74112, Note_on_c, 1, 62, 67
3, 74300, Note_off_c, 1, 57, 0
3, 74300, Note_off_c, 1, 62, 0
3, 74496, Note_on_c, 1, 57, 67
3, 74496, Note_on_c, 1, 61, 67
3, 74684, Note_off_c, 1, 57, 0
3, 74684, Note_off_c, 1, 61, 0
3, 74880, Note_on_c, 1, 57, 90
3, 74880, Note_on_c, 1, 61, 90
3, 74880, Note_on_c, 1, 64, 90
3, 75452, Note_off_c, 1, 57, 0
3, 75452, Note_off_c, 1, 61, 0
3, 75452, Note_off_c, 1, 64, 0
3, 75456, Note_on_c, 1, 59, 90
3, 75456, Note_on_c, 1, 62, 90
3, 75456, Note_on_c, 1, 64, 90
3, 76028, Note_off_c, 1, 59, 0
3, 76028, Note_off_c, 1, 62, 0
3, 76028, Note_off_c, 1, 64, 0
3, 76032, Note_on_c, 1, 61, 90
3, 76032, Note_on_c, 1, 64, 90
3, 76412, Note_off_c, 1, 61, 0
3, 76412, Note_off_c, 1, 64, 0
3, 76416, Note_on_c, 1, 57, 67
3, 76416, Note_on_c, 1, 54, 67
3, 76416, Note_on_c, 1, 63, 67
3, 76604, Note_off_c, 1, 57, 0
3, 76604, Note_off_c, 1, 54, 0
3, 76604, Note_off_c, 1, 63, 0
3, 76608, Note_on_c, 1, 64, 67
3, 76608, Note_on_c, 1, 52, 67
3, 77180, Note_off_c, 1, 64, 0
3, 77186, Note_off_c, 1, 52, 0
3, 77376, Note_on_c, 1, 57, 67
3, 77376, Note_on_c, 1, 64, 67
3, 77564, Note_off_c, 1, 57, 0
3, 77564, Note_off_c, 1, 64, 0
3, 77952, Note_on_c, 1, 61, 67
3, 77952, Note_on_c, 1, 64, 67
3, 78140, Note_off_c, 1, 61, 0
3, 78140, Note_off_c, 1, 64, 0
3, 78528, Note_on_c, 1, 56, 67
3, 78528, Note_on_c, 1, 64, 67
3, 78716, Note_off_c, 1, 56, 0
3, 78716, Note_off_c, 1, 64, 0
3, 79104, Note_on_c, 1, 59, 67
3, 79104, Note_on_c, 1, 64, 67
3, 79292, Note_off_c, 1, 59, 0
3, 79292, Note_off_c, 1, 64, 0
3, 79680, Note_on_c, 1, 54, 67
3, 79680, Note_on_c, 1, 64, 67
3, 79868, Note_off_c, 1, 54, 0
3, 79868, Note_off_c, 1, 64, 0
3, 79872, Note_on_c, 1, 56, 71
3, 79872, Note_on_c, 1, 64, 71
3, 80060, Note_off_c, 1, 56, 0
3, 80060, Note_off_c, 1, 64, 0
3, 80256, Note_on_c, 1, 57, 77
3, 80256, Note_on_c, 1, 64, 77
3, 80444, Note_off_c, 1, 57, 0
3, 80444, Note_off_c, 1, 64, 0
3, 80448, Note_on_c, 1, 59, 80
3, 80448, Note_on_c, 1, 50, 80
3, 80636, Note_off_c, 1, 59, 0
3, 80636, Note_off_c, 1, 50, 0
3, 80832, Note_on_c, 1, 57, 81
3, 80832, Note_on_c, 1, 52, 81
3, 81020, Note_off_c, 1, 57, 0
3, 81020, Note_off_c, 1, 52, 0
3, 81024, Note_on_c, 1, 56, 79
3, 81024, Note_on_c, 1, 52, 79
3, 81212, Note_off_c, 1, 56, 0
3, 81212, Note_off_c, 1, 52, 0
3, 81216, Note_on_c, 1, 57, 75
3, 81404, Note_off_c, 1, 57, 0
3, 81408, Note_on_c, 1, 52, 72
3, 81596, Note_off_c, 1, 52, 0
3, 81600, Note_on_c, 1, 45, 70
3, 81788, Note_off_c, 1, 45, 0
3, 81792, Note_on_c, 1, 33, 90
3, 81888, Note_on_c, 1, 45, 90
3, 81980, Note_off_c, 1, 45, 0
3, 81984, Note_on_c, 1, 45, 90
3, 82076, Note_off_c, 1, 45, 0
3, 82080, Note_on_c, 1, 45, 90
3, 82172, Note_off_c, 1, 33, 0
3, 82172, Note_off_c, 1, 45, 0
3, 82176, Note_on_c, 1, 35, 90
3, 82268, Note_off_c, 1, 35, 0
3, 82272, Note_on_c, 1, 47, 90
3, 82364, Note_off_c, 1, 47, 0
3, 82368, Note_on_c, 1, 37, 90
3, 82464, Note_on_c, 1, 49, 90
3, 82556, Note_off_c, 1, 49, 0
3, 82560, Note_on_c, 1, 49, 90
3, 82652, Note_off_c, 1, 49, 0
3, 82656, Note_on_c, 1, 49, 90
3, 82748, Note_off_c, 1, 37, 0
3, 82748, Note_off_c, 1, 49, 0
3, 82752, Note_on_c, 1, 38, 90
3, 82844, Note_off_c, 1, 38, 0
3, 82848, Note_on_c, 1, 50, 90
3, 82940, Note_off_c, 1, 50, 0
3, 82944, Note_on_c, 1, 40, 90
3, 83036, Note_off_c, 1, 40, 0
3, 83040, Note_on_c, 1, 52, 90
3, 83132, Note_off_c, 1, 52, 0
3, 83136, Note_on_c, 1, 52, 90
3, 83228, Note_off_c, 1, 52, 0
3, 83232, Note_on_c, 1, 52, 90
3, 83324, Note_off_c, 1, 52, 0
3, 83328, Note_on_c, 1, 40, 90
3, 83420, Note_off_c, 1, 40, 0
3, 83424, Note_on_c, 1, 52, 90
3, 83516, Note_off_c, 1, 52, 0
3, 83520, Note_on_c, 1, 33, 90
3, 83708, Note_off_c, 1, 33, 0
3, 83712, Note_on_c, 1, 45, 90
3, 83900, Note_off_c, 1, 45, 0
3, 84096, Note_on_c, 1, 57, 67
3, 84156, Note_off_c, 1, 57, 0
3, 84160, Note_on_c, 1, 63, 67
3, 84220, Note_off_c, 1, 63, 0
3, 84224, Note_on_c, 1, 64, 67
3, 84284, Note_off_c, 1, 64, 0
3, 84288, Note_on_c, 1, 57, 67
3, 84348, Note_off_c, 1, 57, 0
3, 84352, Note_on_c, 1, 63, 67
3, 84412, Note_off_c, 1, 63, 0
3, 84416, Note_on_c, 1, 64, 67
3, 84476, Note_off_c, 1, 64, 0
3, 84480, Note_on_c, 1, 59, 67
3, 84540, Note_off_c, 1, 59, 0
3, 84544, Note_on_c, 1, 63, 67
3, 84604, Note_off_c, 1, 63, 0
3, 84608, Note_on_c, 1, 64, 67
3, 84668, Note_off_c, 1, 64, 0
3, 84672, Note_on_c, 1, 61, 67
3, 84732, Note_off_c, 1, 61, 0
3, 84736, Note_on_c, 1, 63, 67
3, 84796, Note_off_c, 1, 63, 0
3, 84800, Note_on_c, 1, 64, 67
3, 84860, Note_off_c, 1, 64, 0
3, 84864, Note_on_c, 1, 61, 67
3, 84924, Note_off_c, 1, 61, 0
3, 84928, Note_on_c, 1, 63, 67
3, 84988, Note_off_c, 1, 63, 0
3, 84992, Note_on_c, 1, 64, 67
3, 85052, Note_off_c, 1, 64, 0
3, 85056, Note_on_c, 1, 61, 67
3, 85116, Note_off_c, 1, 61, 0
3, 85120, Note_on_c, 1, 63, 67
3, 85180, Note_off_c, 1, 63, 0
3, 85184, Note_on_c, 1, 64, 67
3, 85244, Note_off_c, 1, 64, 0
3, 85248, Note_on_c, 1, 56, 67
3, 85308, Note_off_c, 1, 56, 0
3, 85312, Note_on_c, 1, 63, 67
3, 85372, Note_off_c, 1, 63, 0
3, 85376, Note_on_c, 1, 64, 67
3, 85436, Note_off_c, 1, 64, 0
3, 85440, Note_on_c, 1, 56, 67
3, 85500, Note_off_c, 1, 56, 0
3, 85504, Note_on_c, 1, 63, 67
3, 85564, Note_off_c, 1, 63, 0
3, 85568, Note_on_c, 1, 64, 67
3, 85628, Note_off_c, 1, 64, 0
3, 85632, Note_on_c, 1, 57, 67
3, 85692, Note_off_c, 1, 57, 0
3, 85696, Note_on_c, 1, 63, 67
3, 85756, Note_off_c, 1, 63, 0
3, 85760, Note_on_c, 1, 64, 67
3, 85820, Note_off_c, 1, 64, 0
3, 85824, Note_on_c, 1, 59, 67
3, 85884, Note_off_c, 1, 59, 0
3, 85888, Note_on_c, 1, 63, 67
3, 85948, Note_off_c, 1, 63, 0
3, 85952, Note_on_c, 1, 64, 67
3, 86012, Note_off_c, 1, 64, 0
3, 86016, Note_on_c, 1, 59, 67
3, 86076, Note_off_c, 1, 59, 0
3, 86080, Note_on_c, 1, 63, 67
3, 86140, Note_off_c, 1, 63, 0
3, 86144, Note_on_c, 1, 64, 67
3, 86204, Note_off_c, 1, 64, 0
3, 86208, Note_on_c, 1, 56, 67
3, 86268, Note_off_c, 1, 56, 0
3, 86272, Note_on_c, 1, 63, 67
3, 86332, Note_off_c, 1, 63, 0
3, 86336, Note_on_c, 1, 64, 67
3, 86396, Note_off_c, 1, 64, 0
3, 86400, Note_on_c, 1, 54, 67
3, 86460, Note_off_c, 1, 54, 0
3, 86464, Note_on_c, 1, 63, 67
3, 86524, Note_off_c, 1, 63, 0
3, 86528, Note_on_c, 1, 64, 67
3, 86588, Note_off_c, 1, 64, 0
3, 86592, Note_on_c, 1, 54, 67
3, 86652, Note_off_c, 1, 54, 0
3, 86656, Note_on_c, 1, 63, 67
3, 86716, Note_off_c, 1, 63, 0
3, 86720, Note_on_c, 1, 64, 67
3, 86780, Note_off_c, 1, 64, 0
3, 86784, Note_on_c, 1, 54, 67
3, 86844, Note_off_c, 1, 54, 0
3, 86848, Note_on_c, 1, 63, 67
3, 86908, Note_off_c, 1, 63, 0
3, 86912, Note_on_c, 1, 64, 67
3, 86972, Note_off_c, 1, 64, 0
3, 86976, Note_on_c, 1, 56, 67
3, 87036, Note_off_c, 1, 56, 0
3, 87040, Note_on_c, 1, 63, 67
3, 87100, Note_off_c, 1, 63, 0
3, 87104, Note_on_c, 1, 64, 67
3, 87164, Note_off_c, 1, 64, 0
3, 87168, Note_on_c, 1, 56, 67
3, 87228, Note_off_c, 1, 56, 0
3, 87232, Note_on_c, 1, 63, 67
3, 87292, Note_off_c, 1, 63, 0
3, 87296, Note_on_c, 1, 64, 67
3, 87356, Note_off_c, 1, 64, 0
3, 87360, Note_on_c, 1, 56, 67
3, 87420, Note_off_c, 1, 56, 0
3, 87424, Note_on_c, 1, 63, 67
3, 87484, Note_off_c, 1, 63, 0
3, 87488, Note_on_c, 1, 64, 67
3, 87548, Note_off_c, 1, 64, 0
3, 87552, Note_on_c, 1, 57, 67
3, 87612, Note_off_c, 1, 57, 0
3, 87616, Note_on_c, 1, 61, 67
3, 87676, Note_off_c, 1, 61, 0
3, 87680, Note_on_c, 1, 64, 67
3, 87740, Note_off_c, 1, 64, 0
3, 87744, Note_on_c, 1, 57, 67
3, 87804, Note_off_c, 1, 57, 0
3, 87808, Note_on_c, 1, 61, 67
3, 87868, Note_off_c, 1, 61, 0
3, 87872, Note_on_c, 1, 64, 67
3, 87932, Note_off_c, 1, 64, 0
3, 87936, Note_on_c, 1, 50, 67
3, 87996, Note_off_c, 1, 50, 0
3, 88000, Note_on_c, 1, 54, 67
3, 88060, Note_off_c, 1, 54, 0
3, 88064, Note_on_c, 1, 59, 67
3, 88124, Note_off_c, 1, 59, 0
3, 88128, Note_on_c, 1, 52, 67
3, 88188, Note_off_c, 1, 52, 0
3, 88192, Note_on_c, 1, 57, 67
3, 88252, Note_off_c, 1, 57, 0
3, 88256, Note_on_c, 1, 61, 67
3, 88316, Note_off_c, 1, 61, 0
3, 88320, Note_on_c, 1, 52, 67
3, 88380, Note_off_c, 1, 52, 0
3, 88384, Note_on_c, 1, 57, 67
3, 88444, Note_off_c, 1, 57, 0
3, 88448, Note_on_c, 1, 61, 67
3, 88508, Note_off_c, 1, 61, 0
3, 88512, Note_on_c, 1, 52, 67
3, 88572, Note_off_c, 1, 52, 0
3, 88576, Note_on_c, 1, 56, 67
3, 88636, Note_off_c, 1, 56, 0
3, 88640, Note_on_c, 1, 59, 67
3, 88700, Note_off_c, 1, 59, 0
3, 88704, Note_on_c, 1, 45, 90
3, 88892, Note_off_c, 1, 45, 0
3, 88896, Note_on_c, 1, 56, 90
3, 88940, Note_off_c, 1, 56, 0
3, 88944, Note_on_c, 1, 57, 90
3, 89086, Note_off_c, 1, 57, 0
3, 89280, Note_on_c, 1, 45, 90
3, 89468, Note_off_c, 1, 45, 0
3, 89472, Note_on_c, 1, 56, 90
3, 89516, Note_off_c, 1, 56, 0
3, 89520, Note_on_c, 1, 57, 90
3, 89662, Note_off_c, 1, 57, 0
3, 89856, Note_on_c, 1, 40, 90
3, 90044, Note_off_c, 1, 40, 0
3, 90048, Note_on_c, 1, 51, 90
3, 90092, Note_off_c, 1, 51, 0
3, 90096, Note_on_c, 1, 52, 90
3, 90238, Note_off_c, 1, 52, 0
3, 90432, Note_on_c, 1, 40, 90
3, 90620, Note_off_c, 1, 40, 0
3, 90624, Note_on_c, 1, 51, 90
3, 90668, Note_off_c, 1, 51, 0
3, 90672, Note_on_c, 1, 52, 90
3, 90814, Note_off_c, 1, 52, 0
3, 91008, Note_on_c, 1, 42, 90
3, 91196, Note_off_c, 1, 42, 0
3, 91200, Note_on_c, 1, 53, 90
3, 91244, Note_off_c, 1, 53, 0
3, 91248, Note_on_c, 1, 54, 90
3, 91390, Note_off_c, 1, 54, 0
3, 91392, Note_on_c, 1, 54, 90
3, 91436, Note_off_c, 1, 54, 0
3, 91440, Note_on_c, 1, 56, 90
3, 91582, Note_off_c, 1, 56, 0
3, 91584, Note_on_c, 1, 45, 90
3, 91772, Note_off_c, 1, 45, 0
3, 91776, Note_on_c, 1, 56, 90
3, 91820, Note_off_c, 1, 56, 0
3, 91824, Note_on_c, 1, 57, 90
3, 91966, Note_off_c, 1, 57, 0
3, 91968, Note_on_c, 1, 49, 90
3, 92012, Note_off_c, 1, 49, 0
3, 92016, Note_on_c, 1, 50, 90
3, 92158, Note_off_c, 1, 50, 0
3, 92160, Note_on_c, 1, 40, 90
3, 92348, Note_off_c, 1, 40, 0
3, 92352, Note_on_c, 1, 51, 90
3, 92396, Note_off_c, 1, 51, 0
3, 92400, Note_on_c, 1, 52, 90
3, 92542, Note_off_c, 1, 52, 0
3, 92544, Note_on_c, 1, 51, 90
3, 92588, Note_off_c, 1, 51, 0
3, 92592, Note_on_c, 1, 52, 90
3, 92734, Note_off_c, 1, 52, 0
3, 92736, Note_on_c, 1, 33, 90
3, 92878, Note_off_c, 1, 33, 0
3, 92880, Note_on_c, 1, 44, 90
3, 92924, Note_off_c, 1, 44, 0
3, 92928, Note_on_c, 1, 45, 90
3, 93118, Note_off_c, 1, 45, 0
3, 93312, Note_on_c, 1, 57, 67
3, 93372, Note_off_c, 1, 57, 0
3, 93376, Note_on_c, 1, 63, 67
3, 93436, Note_off_c, 1, 63, 0
3, 93440, Note_on_c, 1, 64, 67
3, 93500, Note_off_c, 1, 64, 0
3, 93504, Note_on_c, 1, 57, 67
3, 93564, Note_off_c, 1, 57, 0
3, 93568, Note_on_c, 1, 63, 67
3, 93628, Note_off_c, 1, 63, 0
3, 93632, Note_on_c, 1, 64, 67
3, 93692, Note_off_c, 1, 64, 0
3, 93696, Note_on_c, 1, 59, 67
3, 93756, Note_off_c, 1, 59, 0
3, 93760, Note_on_c, 1, 63, 67
3, 93820, Note_off_c, 1, 63, 0
3, 93824, Note_on_c, 1, 64, 67
3, 93884, Note_off_c, 1, 64, 0
3, 93888, Note_on_c, 1, 61, 67
3, 93948, Note_off_c, 1, 61, 0
3, 93952, Note_on_c, 1, 63, 67
3, 94012, Note_off_c, 1, 63, 0
3, 94016, Note_on_c, 1, 64, 67
3, 94076, Note_off_c, 1, 64, 0
3, 94080, Note_on_c, 1, 61, 67
3, 94140, Note_off_c, 1, 61, 0
3, 94144, Note_on_c, 1, 63, 67
3, 94204, Note_off_c, 1, 63, 0
3, 94208, Note_on_c, 1, 64, 67
3, 94268, Note_off_c, 1, 64, 0
3, 94272, Note_on_c, 1, 61, 67
3, 94332, Note_off_c, 1, 61, 0
3, 94336, Note_on_c, 1, 63, 67
3, 94396, Note_off_c, 1, 63, 0
3, 94400, Note_on_c, 1, 64, 67
3, 94460, Note_off_c, 1, 64, 0
3, 94464, Note_on_c, 1, 56, 67
3, 94524, Note_off_c, 1, 56, 0
3, 94528, Note_on_c, 1, 63, 67
3, 94588, Note_off_c, 1, 63, 0
3, 94592, Note_on_c, 1, 64, 67
3, 94652, Note_off_c, 1, 64, 0
3, 94656, Note_on_c, 1, 56, 67
3, 94716, Note_off_c, 1, 56, 0
3, 94720, Note_on_c, 1, 63, 67
3, 94780, Note_off_c, 1, 63, 0
3, 94784, Note_on_c, 1, 64, 67
3, 94844, Note_off_c, 1, 64, 0
3, 94848, Note_on_c, 1, 57, 67
3, 94908, Note_off_c, 1, 57, 0
3, 94912, Note_on_c, 1, 63, 67
3, 94972, Note_off_c, 1, 63, 0
3, 94976, Note_on_c, 1, 64, 67
3, 95036, Note_off_c, 1, 64, 0
3, 95040, Note_on_c, 1, 59, 67
3, 95100, Note_off_c, 1, 59, 0
3, 95104, Note_on_c, 1, 63, 67
3, 95164, Note_off_c, 1, 63, 0
3, 95168, Note_on_c, 1, 64, 67
3, 95228, Note_off_c, 1, 64, 0
3, 95232, Note_on_c, 1, 59, 67
3, 95292, Note_off_c, 1, 59, 0
3, 95296, Note_on_c, 1, 63, 67
3, 95356, Note_off_c, 1, 63, 0
3, 95360, Note_on_c, 1, 64, 67
3, 95420, Note_off_c, 1, 64, 0
3, 95424, Note_on_c, 1, 56, 67
3, 95484, Note_off_c, 1, 56, 0
3, 95488, Note_on_c, 1, 63, 67
3, 95548, Note_off_c, 1, 63, 0
3, 95552, Note_on_c, 1, 64, 67
3, 95612, Note_off_c, 1, 64, 0
3, 95616, Note_on_c, 1, 54, 67
3, 95676, Note_off_c, 1, 54, 0
3, 95680, Note_on_c, 1, 63, 67
3, 95740, Note_off_c, 1, 63, 0
3, 95744, Note_on_c, 1, 64, 67
3, 95804, Note_off_c, 1, 64, 0
3, 95808, Note_on_c, 1, 54, 67
3, 95868, Note_off_c, 1, 54, 0
3, 95872, Note_on_c, 1, 63, 67
3, 95932, Note_off_c, 1, 63, 0
3, 95936, Note_on_c, 1, 64, 67
3, 95996, Note_off_c, 1, 64, 0
3, 96000, Note_on_c, 1, 54, 67
3, 96060, Note_off_c, 1, 54, 0
3, 96064, Note_on_c, 1, 63, 67
3, 96124, Note_off_c, 1, 63, 0
3, 96128, Note_on_c, 1, 64, 67
3, 96188, Note_off_c, 1, 64, 0
3, 96192, Note_on_c, 1, 56, 67
3, 96252, Note_off_c, 1, 56, 0
3, 96256, Note_on_c, 1, 63, 67
3, 96316, Note_off_c, 1, 63, 0
3, 96320, Note_on_c, 1, 64, 67
3, 96380, Note_off_c, 1, 64, 0
3, 96384, Note_on_c, 1, 56, 67
3, 96444, Note_off_c, 1, 56, 0
3, 96448, Note_on_c, 1, 63, 67
3, 96508, Note_off_c, 1, 63, 0
3, 96512, Note_on_c, 1, 64, 67
3, 96572, Note_off_c, 1, 64, 0
3, 96576, Note_on_c, 1, 56, 67
3, 96636, Note_off_c, 1, 56, 0
3, 96640, Note_on_c, 1, 63, 67
3, 96700, Note_off_c, 1, 63, 0
3, 96704, Note_on_c, 1, 64, 67
3, 96764, Note_off_c, 1, 64, 0
3, 96768, Note_on_c, 1, 57, 67
3, 96828, Note_off_c, 1, 57, 0
3, 96832, Note_on_c, 1, 61, 67
3, 96892, Note_off_c, 1, 61, 0
3, 96896, Note_on_c, 1, 64, 67
3, 96956, Note_off_c, 1, 64, 0
3, 96960, Note_on_c, 1, 57, 67
3, 97020, Note_off_c, 1, 57, 0
3, 97024, Note_on_c, 1, 61, 67
3, 97084, Note_off_c, 1, 61, 0
3, 97088, Note_on_c, 1, 64, 67
3, 97148, Note_off_c, 1, 64, 0
3, 97152, Note_on_c, 1, 50, 67
3, 97212, Note_off_c, 1, 50, 0
3, 97216, Note_on_c, 1, 54, 67
3, 97276, Note_off_c, 1, 54, 0
3, 97280, Note_on_c, 1, 59, 67
3, 97340, Note_off_c, 1, 59, 0
3, 97344, Note_on_c, 1, 52, 67
3, 97404, Note_off_c, 1, 52, 0
3, 97408, Note_on_c, 1, 57, 67
3, 97468, Note_off_c, 1, 57, 0
3, 97472, Note_on_c, 1, 61, 67
3, 97532, Note_off_c, 1, 61, 0
3, 97536, Note_on_c, 1, 52, 67
3, 97596, Note_off_c, 1, 52, 0
3, 97600, Note_on_c, 1, 57, 67
3, 97660, Note_off_c, 1, 57, 0
3, 97664, Note_on_c, 1, 61, 67
3, 97724, Note_off_c, 1, 61, 0
3, 97728, Note_on_c, 1, 52, 67
3, 97788, Note_off_c, 1, 52, 0
3, 97792, Note_on_c, 1, 56, 67
3, 97852, Note_off_c, 1, 56, 0
3, 97856, Note_on_c, 1, 59, 67
3, 97916, Note_off_c, 1, 59, 0
3, 97920, Note_on_c, 1, 45, 90
3, 98108, Note_off_c, 1, 45, 0
3, 98112, Note_on_c, 1, 56, 90
3, 98156, Note_off_c, 1, 56, 0
3, 98160, Note_on_c, 1, 57, 90
3, 98302, Note_off_c, 1, 57, 0
3, 98496, Note_on_c, 1, 45, 90
3, 98684, Note_off_c, 1, 45, 0
3, 98688, Note_on_c, 1, 56, 90
3, 98732, Note_off_c, 1, 56, 0
3, 98736, Note_on_c, 1, 57, 90
3, 98878, Note_off_c, 1, 57, 0
3, 99072, Note_on_c, 1, 40, 90
3, 99260, Note_off_c, 1, 40, 0
3, 99264, Note_on_c, 1, 51, 90
3, 99308, Note_off_c, 1, 51, 0
3, 99312, Note_on_c, 1, 52, 90
3, 99454, Note_off_c, 1, 52, 0
3, 99648, Note_on_c, 1, 40, 90
3, 99836, Note_off_c, 1, 40, 0
3, 99840, Note_on_c, 1, 51, 90
3, 99884, Note_off_c, 1, 51, 0
3, 99888, Note_on_c, 1, 52, 90
3, 100030, Note_off_c, 1, 52, 0
3, 100224, Note_on_c, 1, 42, 90
3, 100412, Note_off_c, 1, 42, 0
3, 100416, Note_on_c, 1, 53, 90
3, 100460, Note_off_c, 1, 53, 0
3, 100464, Note_on_c, 1, 54, 90
3, 100606, Note_off_c, 1, 54, 0
3, 100608, Note_on_c, 1, 54, 90
3, 100652, Note_off_c, 1, 54, 0
3, 100656, Note_on_c, 1, 56, 90
3, 100798, Note_off_c, 1, 56, 0
3, 100800, Note_on_c, 1, 45, 90
3, 100988, Note_off_c, 1, 45, 0
3, 100992, Note_on_c, 1, 56, 90
3, 101036, Note_off_c, 1, 56, 0
3, 101040, Note_on_c, 1, 57, 90
3, 101182, Note_off_c, 1, 57, 0
3, 101184, Note_on_c, 1, 49, 90
3, 101228, Note_off_c, 1, 49, 0
3, 101232, Note_on_c, 1, 50, 90
3, 101374, Note_off_c, 1, 50, 0
3, 101376, Note_on_c, 1, 40, 90
3, 101564, Note_off_c, 1, 40, 0
3, 101568, Note_on_c, 1, 51, 90
3, 101612, Note_off_c, 1, 51, 0
3, 101616, Note_on_c, 1, 52, 90
3, 101758, Note_off_c, 1, 52, 0
3, 101760, Note_on_c, 1, 51, 90
3, 101804, Note_off_c, 1, 51, 0
3, 101808, Note_on_c, 1, 52, 90
3, 101950, Note_off_c, 1, 52, 0
3, 101952, Note_on_c, 1, 33, 90
3, 102094, Note_off_c, 1, 33, 0
3, 102096, Note_on_c, 1, 44, 90
3, 102140, Note_off_c, 1, 44, 0
3, 102144, Note_on_c, 1, 45, 90
3, 102334, Note_off_c, 1, 45, 0
3, 106368, Note_on_c, 1, 54, 90
3, 106428, Note_off_c, 1, 54, 0
3, 106432, Note_on_c, 1, 57, 90
3, 106492, Note_off_c, 1, 57, 0
3, 106496, Note_on_c, 1, 63, 90
3, 106556, Note_off_c, 1, 63, 0
3, 106560, Note_on_c, 1, 64, 98
3, 106560, Note_on_c, 1, 52, 98
3, 107132, Note_off_c, 1, 64, 0
3, 107132, Note_off_c, 1, 52, 0
3, 107136, Note_on_c, 1, 57, 67
3, 107196, Note_off_c, 1, 57, 0
3, 107200, Note_on_c, 1, 63, 67
3, 107260, Note_off_c, 1, 63, 0
3, 107264, Note_on_c, 1, 64, 67
3, 107324, Note_off_c, 1, 64, 0
3, 107328, Note_on_c, 1, 57, 67
3, 107388, Note_off_c, 1, 57, 0
3, 107392, Note_on_c, 1, 63, 67
3, 107452, Note_off_c, 1, 63, 0
3, 107456, Note_on_c, 1, 64, 67
3, 107516, Note_off_c, 1, 64, 0
3, 107520, Note_on_c, 1, 59, 67
3, 107580, Note_off_c, 1, 59, 0
3, 107584, Note_on_c, 1, 63, 67
3, 107644, Note_off_c, 1, 63, 0
3, 107648, Note_on_c, 1, 64, 67
3, 107708, Note_off_c, 1, 64, 0
3, 107712, Note_on_c, 1, 61, 67
3, 107772, Note_off_c, 1, 61, 0
3, 107776, Note_on_c, 1, 63, 67
3, 107836, Note_off_c, 1, 63, 0
3, 107840, Note_on_c, 1, 64, 67
3, 107900, Note_off_c, 1, 64, 0
3, 107904, Note_on_c, 1, 61, 67
3, 107964, Note_off_c, 1, 61, 0
3, 107968, Note_on_c, 1, 63, 67
3, 108028, Note_off_c, 1, 63, 0
3, 108032, Note_on_c, 1, 64, 67
3, 108092, Note_off_c, 1, 64, 0
3, 108096, Note_on_c, 1, 57, 67
3, 108156, Note_off_c, 1, 57, 0
3, 108160, Note_on_c, 1, 63, 67
3, 108220, Note_off_c, 1, 63, 0
3, 108224, Note_on_c, 1, 64, 67
3, 108284, Note_off_c, 1, 64, 0
3, 108288, Note_on_c, 1, 56, 67
3, 108348, Note_off_c, 1, 56, 0
3, 108352, Note_on_c, 1, 63, 67
3, 108412, Note_off_c, 1, 63, 0
3, 108416, Note_on_c, 1, 64, 67
3, 108476, Note_off_c, 1, 64, 0
3, 108480, Note_on_c, 1, 56, 67
3, 108540, Note_off_c, 1, 56, 0
3, 108544, Note_on_c, 1, 63, 67
3, 108604, Note_off_c, 1, 63, 0
3, 108608, Note_on_c, 1, 64, 67
3, 108668, Note_off_c, 1, 64, 0
3, 108672, Note_on_c, 1, 57, 67
3, 108732, Note_off_c, 1, 57, 0
3, 108736, Note_on_c, 1, 63, 67
3, 108796, Note_off_c, 1, 63, 0
3, 108800, Note_on_c, 1, 64, 67
3, 108860, Note_off_c, 1, 64, 0
3, 108864, Note_on_c, 1, 59, 67
3, 108924, Note_off_c, 1, 59, 0
3, 108928, Note_on_c, 1, 63, 67
3, 108988, Note_off_c, 1, 63, 0
3, 108992, Note_on_c, 1, 64, 67
3, 109052, Note_off_c, 1, 64, 0
3, 109056, Note_on_c, 1, 59, 67
3, 109116, Note_off_c, 1, 59, 0
3, 109120, Note_on_c, 1, 63, 67
3, 109180, Note_off_c, 1, 63, 0
3, 109184, Note_on_c, 1, 64, 67
3, 109244, Note_off_c, 1, 64, 0
3, 109248, Note_on_c, 1, 56, 67
3, 109308, Note_off_c, 1, 56, 0
3, 109312, Note_on_c, 1, 63, 67
3, 109372, Note_off_c, 1, 63, 0
3, 109376, Note_on_c, 1, 64, 67
3, 109436, Note_off_c, 1, 64, 0
3, 109440, Note_on_c, 1, 54, 70
3, 109500, Note_off_c, 1, 54, 0
3, 109504, Note_on_c, 1, 63, 70
3, 109564, Note_off_c, 1, 63, 0
3, 109568, Note_on_c, 1, 64, 70
3, 109628, Note_off_c, 1, 64, 0
3, 109632, Note_on_c, 1, 54, 71
3, 109692, Note_off_c, 1, 54, 0
3, 109696, Note_on_c, 1, 63, 71
3, 109756, Note_off_c, 1, 63, 0
3, 109760, Note_on_c, 1, 64, 71
3, 109820, Note_off_c, 1, 64, 0
3, 109824, Note_on_c, 1, 56, 72
3, 109884, Note_off_c, 1, 56, 0
3, 109888, Note_on_c, 1, 62, 72
3, 109948, Note_off_c, 1, 62, 0
3, 109952, Note_on_c, 1, 64, 74
3, 110012, Note_off_c, 1, 64, 0
3, 110016, Note_on_c, 1, 57, 74
3, 110076, Note_off_c, 1, 57, 0
3, 110080, Note_on_c, 1, 61, 74
3, 110140, Note_off_c, 1, 61, 0
3, 110144, Note_on_c, 1, 64, 75
3, 110204, Note_off_c, 1, 64, 0
3, 110208, Note_on_c, 1, 57, 75
3, 110268, Note_off_c, 1, 57, 0
3, 110272, Note_on_c, 1, 61, 77
3, 110332, Note_off_c, 1, 61, 0
3, 110336, Note_on_c, 1, 64, 77
3, 110396, Note_off_c, 1, 64, 0
3, 110400, Note_on_c, 1, 50, 77
3, 110460, Note_off_c, 1, 50, 0
3, 110464, Note_on_c, 1, 54, 79
3, 110524, Note_off_c, 1, 54, 0
3, 110528, Note_on_c, 1, 59, 79
3, 110588, Note_off_c, 1, 59, 0
3, 110592, Note_on_c, 1, 52, 80
3, 110652, Note_off_c, 1, 52, 0
3, 110656, Note_on_c, 1, 57, 80
3, 110716, Note_off_c, 1, 57, 0
3, 110720, Note_on_c, 1, 61, 80
3, 110780, Note_off_c, 1, 61, 0
3, 110784, Note_on_c, 1, 52, 81
3, 110844, Note_off_c, 1, 52, 0
3, 110848, Note_on_c, 1, 57, 81
3, 110908, Note_off_c, 1, 57, 0
3, 110912, Note_on_c, 1, 61, 81
3, 110972, Note_off_c, 1, 61, 0
3, 110976, Note_on_c, 1, 52, 83
3, 111036, Note_off_c, 1, 52, 0
3, 111040, Note_on_c, 1, 56, 83
3, 111100, Note_off_c, 1, 56, 0
3, 111104, Note_on_c, 1, 62, 85
3, 111164, Note_off_c, 1, 62, 0
3, 111168, Note_on_c, 1, 64, 85
3, 111168, Note_on_c, 1, 57, 85
3, 111168, Note_on_c, 1, 62, 85
3, 111548, Note_off_c, 1, 62, 0
3, 111552, Note_on_c, 1, 61, 88
3, 111740, Note_off_c, 1, 64, 0
3, 111740, Note_off_c, 1, 57, 0
3, 111740, Note_off_c, 1, 61, 0
3, 111744, Note_on_c, 1, 45, 90
3, 111932, Note_off_c, 1, 45, 0
3, 111936, Note_on_c, 1, 56, 90
3, 111980, Note_off_c, 1, 56, 0
3, 111984, Note_on_c, 1, 57, 90
3, 112126, Note_off_c, 1, 57, 0
3, 112128, Note_on_c, 1, 58, 90
3, 112172, Note_off_c, 1, 58, 0
3, 112176, Note_on_c, 1, 59, 90
3, 112318, Note_off_c, 1, 59, 0
3, 112320, Note_on_c, 1, 49, 90
3, 112508, Note_off_c, 1, 49, 0
3, 112512, Note_on_c, 1, 60, 90
3, 112556, Note_off_c, 1, 60, 0
3, 112560, Note_on_c, 1, 61, 90
3, 112702, Note_off_c, 1, 61, 0
3, 112704, Note_on_c, 1, 61, 90
3, 112748, Note_off_c, 1, 61, 0
3, 112752, Note_on_c, 1, 62, 90
3, 112894, Note_off_c, 1, 62, 0
3, 112896, Note_on_c, 1, 40, 90
3, 113084, Note_off_c, 1, 40, 0
3, 113088, Note_on_c, 1, 51, 90
3, 113132, Note_off_c, 1, 51, 0
3, 113136, Note_on_c, 1, 52, 90
3, 113278, Note_off_c, 1, 52, 0
3, 113280, Note_on_c, 1, 51, 90
3, 113324, Note_off_c, 1, 51, 0
3, 113328, Note_on_c, 1, 52, 90
3, 113470, Note_off_c, 1, 52, 0
3, 113472, Note_on_c, 1, 33, 90
3, 113614, Note_off_c, 1, 33, 0
3, 113616, Note_on_c, 1, 44, 90
3, 113660, Note_off_c, 1, 44, 0
3, 113664, Note_on_c, 1, 45, 90
3, 113854, Note_off_c, 1, 45, 0
3, 117888, Note_on_c, 1, 54, 90
3, 117948, Note_off_c, 1, 54, 0
3, 117952, Note_on_c, 1, 57, 90
3, 118012, Note_off_c, 1, 57, 0
3, 118016, Note_on_c, 1, 63, 90
3, 118076, Note_off_c, 1, 63, 0
3, 118080, Note_on_c, 1, 64, 98
3, 118080, Note_on_c, 1, 52, 98
3, 118652, Note_off_c, 1, 64, 0
3, 118652, Note_off_c, 1, 52, 0
3, 118656, Note_on_c, 1, 57, 67
3, 118716, Note_off_c, 1, 57, 0
3, 118720, Note_on_c, 1, 63, 67
3, 118780, Note_off_c, 1, 63, 0
3, 118784, Note_on_c, 1, 64, 67
3, 118844, Note_off_c, 1, 64, 0
3, 118848, Note_on_c, 1, 57, 67
3, 118908, Note_off_c, 1, 57, 0
3, 118912, Note_on_c, 1, 63, 67
3, 118972, Note_off_c, 1, 63, 0
3, 118976, Note_on_c, 1, 64, 67
3, 119036, Note_off_c, 1, 64, 0
3, 119040, Note_on_c, 1, 59, 67
3, 119100, Note_off_c, 1, 59, 0
3, 119104, Note_on_c, 1, 63, 67
3, 119164, Note_off_c, 1, 63, 0
3, 119168, Note_on_c, 1, 64, 67
3, 119228, Note_off_c, 1, 64, 0
3, 119232, Note_on_c, 1, 61, 67
3, 119292, Note_off_c, 1, 61, 0
3, 119296, Note_on_c, 1, 63, 67
3, 119356, Note_off_c, 1, 63, 0
3, 119360, Note_on_c, 1, 64, 67
3, 119420, Note_off_c, 1, 64, 0
3, 119424, Note_on_c, 1, 61, 67
3, 119484, Note_off_c, 1, 61, 0
3, 119488, Note_on_c, 1, 63, 67
3, 119548, Note_off_c, 1, 63, 0
3, 119552, Note_on_c, 1, 64, 67
3, 119612, Note_off_c, 1, 64, 0
3, 119616, Note_on_c, 1, 57, 67
3, 119676, Note_off_c, 1, 57, 0
3, 119680, Note_on_c, 1, 63, 67
3, 119740, Note_off_c, 1, 63, 0
3, 119744, Note_on_c, 1, 64, 67
3, 119804, Note_off_c, 1, 64, 0
3, 119808, Note_on_c, 1, 56, 67
3, 119868, Note_off_c, 1, 56, 0
3, 119872, Note_on_c, 1, 63, 67
3, 119932, Note_off_c, 1, 63, 0
3, 119936, Note_on_c, 1, 64, 67
3, 119996, Note_off_c, 1, 64, 0
3, 120000, Note_on_c, 1, 56, 67
3, 120060, Note_off_c, 1, 56, 0
3, 120064, Note_on_c, 1, 63, 67
3, 120124, Note_off_c, 1, 63, 0
3, 120128, Note_on_c, 1, 64, 67
3, 120188, Note_off_c, 1, 64, 0
3, 120192, Note_on_c, 1, 57, 67
3, 120252, Note_off_c, 1, 57, 0
3, 120256, Note_on_c, 1, 63, 67
3, 120316, Note_off_c, 1, 63, 0
3, 120320, Note_on_c, 1, 64, 67
3, 120380, Note_off_c, 1, 64, 0
3, 120384, Note_on_c, 1, 59, 67
3, 120444, Note_off_c, 1, 59, 0
3, 120448, Note_on_c, 1, 63, 67
3, 120508, Note_off_c, 1, 63, 0
3, 120512, Note_on_c, 1, 64, 67
3, 120572, Note_off_c, 1, 64, 0
3, 120576, Note_on_c, 1, 59, 67
3, 120636, Note_off_c, 1, 59, 0
3, 120640, Note_on_c, 1, 63, 67
3, 120700, Note_off_c, 1, 63, 0
3, 120704, Note_on_c, 1, 64, 67
3, 120764, Note_off_c, 1, 64, 0
3, 120768, Note_on_c, 1, 56, 67
3, 120828, Note_off_c, 1, 56, 0
3, 120832, Note_on_c, 1, 63, 67
3, 120892, Note_off_c, 1, 63, 0
3, 120896, Note_on_c, 1, 64, 67
3, 120956, Note_off_c, 1, 64, 0
3, 120960, Note_on_c, 1, 54, 70
3, 121020, Note_off_c, 1, 54, 0
3, 121024, Note_on_c, 1, 63, 70
3, 121084, Note_off_c, 1, 63, 0
3, 121088, Note_on_c, 1, 64, 70
3, 121148, Note_off_c, 1, 64, 0
3, 121152, Note_on_c, 1, 54, 71
3, 121212, Note_off_c, 1, 54, 0
3, 121216, Note_on_c, 1, 63, 71
3, 121276, Note_off_c, 1, 63, 0
3, 121280, Note_on_c, 1, 64, 71
3, 121340, Note_off_c, 1, 64, 0
3, 121344, Note_on_c, 1, 56, 72
3, 121404, Note_off_c, 1, 56, 0
3, 121408, Note_on_c, 1, 62, 72
3, 121468, Note_off_c, 1, 62, 0
3, 121472, Note_on_c, 1, 64, 74
3, 121532, Note_off_c, 1, 64, 0
3, 121536, Note_on_c, 1, 57, 74
3, 121596, Note_off_c, 1, 57, 0
3, 121600, Note_on_c, 1, 61, 74
3, 121660, Note_off_c, 1, 61, 0
3, 121664, Note_on_c, 1, 64, 75
3, 121724, Note_off_c, 1, 64, 0
3, 121728, Note_on_c, 1, 57, 75
3, 121788, Note_off_c, 1, 57, 0
3, 121792, Note_on_c, 1, 61, 77
3, 121852, Note_off_c, 1, 61, 0
3, 121856, Note_on_c, 1, 64, 77
3, 121916, Note_off_c, 1, 64, 0
3, 121920, Note_on_c, 1, 50, 77
3, 121980, Note_off_c, 1, 50, 0
3, 121984, Note_on_c, 1, 54, 79
3, 122044, Note_off_c, 1, 54, 0
3, 122048, Note_on_c, 1, 59, 79
3, 122108, Note_off_c, 1, 59, 0
3, 122112, Note_on_c, 1, 52, 80
3, 122172, Note_off_c, 1, 52, 0
3, 122176, Note_on_c, 1, 57, 80
3, 122236, Note_off_c, 1, 57, 0
3, 122240, Note_on_c, 1, 61, 80
3, 122300, Note_off_c, 1, 61, 0
3, 122304, Note_on_c, 1, 52, 81
3, 122364, Note_off_c, 1, 52, 0
3, 122368, Note_on_c, 1, 57, 81
3, 122428, Note_off_c, 1, 57, 0
3, 122432, Note_on_c, 1, 61, 81
3, 122492, Note_off_c, 1, 61, 0
3, 122496, Note_on_c, 1, 52, 83
3, 122556, Note_off_c, 1, 52, 0
3, 122560, Note_on_c, 1, 56, 83
3, 122620, Note_off_c, 1, 56, 0
3, 122624, Note_on_c, 1, 62, 85
3, 122684, Note_off_c, 1, 62, 0
3, 122688, Note_on_c, 1, 64, 85
3, 122688, Note_on_c, 1, 57, 85
3, 122688, Note_on_c, 1, 62, 85
3, 123068, Note_off_c, 1, 62, 0
3, 123072, Note_on_c, 1, 61, 88
3, 123260, Note_off_c, 1, 64, 0
3, 123260, Note_off_c, 1, 57, 0
3, 123260, Note_off_c, 1, 61, 0
3, 123264, Note_on_c, 1, 45, 90
3, 123452, Note_off_c, 1, 45, 0
3, 123456, Note_on_c, 1, 56, 90
3, 123500, Note_off_c, 1, 56, 0
3, 123504, Note_on_c, 1, 57, 90
3, 123646, Note_off_c, 1, 57, 0
3, 123648, Note_on_c, 1, 58, 90
3, 123692, Note_off_c, 1, 58, 0
3, 123696, Note_on_c, 1, 59, 90
3, 123838, Note_off_c, 1, 59, 0
3, 123840, Note_on_c, 1, 49, 90
3, 124028, Note_off_c, 1, 49, 0
3, 124032, Note_on_c, 1, 60, 90
3, 124076, Note_off_c, 1, 60, 0
3, 124080, Note_on_c, 1, 61, 90
3, 124222, Note_off_c, 1, 61, 0
3, 124224, Note_on_c, 1, 61, 90
3, 124268, Note_off_c, 1, 61, 0
3, 124272, Note_on_c, 1, 62, 90
3, 124414, Note_off_c, 1, 62, 0
3, 124416, Note_on_c, 1, 40, 90
3, 124604, Note_off_c, 1, 40, 0
3, 124608, Note_on_c, 1, 51, 90
3, 124652, Note_off_c, 1, 51, 0
3, 124656, Note_on_c, 1, 52, 90
3, 124798, Note_off_c, 1, 52, 0
3, 124800, Note_on_c, 1, 51, 90
3, 124844, Note_off_c, 1, 51, 0
3, 124848, Note_on_c, 1, 52, 90
3, 124990, Note_off_c, 1, 52, 0
3, 124992, Note_on_c, 1, 33, 90
3, 125134, Note_off_c, 1, 33, 0
3, 125136, Note_on_c, 1, 44, 90
3, 125180, Note_off_c, 1, 44, 0
3, 125184, Note_on_c, 1, 45, 90
3, 125374, Note_off_c, 1, 45, 0
3, 125568, Key_signature, 0, "major"
3, 125568, Note_on_c, 1, 57, 67
3, 125660, Note_off_c, 1, 57, 0
3, 125664, Note_on_c, 1, 64, 67
3, 125756, Note_off_c, 1, 64, 0
3, 125760, Note_on_c, 1, 60, 67
3, 125852, Note_off_c, 1, 60, 0
3, 125856, Note_on_c, 1, 64, 67
3, 125948, Note_off_c, 1, 64, 0
3, 125952, Note_on_c, 1, 57, 67
3, 126044, Note_off_c, 1, 57, 0
3, 126048, Note_on_c, 1, 64, 67
3, 126140, Note_off_c, 1, 64, 0
3, 126144, Note_on_c, 1, 57, 67
3, 126236, Note_off_c, 1, 57, 0
3, 126240, Note_on_c, 1, 64, 67
3, 126332, Note_off_c, 1, 64, 0
3, 126336, Note_on_c, 1, 60, 67
3, 126428, Note_off_c, 1, 60, 0
3, 126432, Note_on_c, 1, 64, 67
3, 126524, Note_off_c, 1, 64, 0
3, 126528, Note_on_c, 1, 57, 67
3, 126620, Note_off_c, 1, 57, 0
3, 126624, Note_on_c, 1, 64, 67
3, 126716, Note_off_c, 1, 64, 0
3, 126720, Note_on_c, 1, 52, 67
3, 126812, Note_off_c, 1, 52, 0
3, 126816, Note_on_c, 1, 64, 67
3, 126908, Note_off_c, 1, 64, 0
3, 126912, Note_on_c, 1, 59, 67
3, 127004, Note_off_c, 1, 59, 0
3, 127008, Note_on_c, 1, 64, 67
3, 127100, Note_off_c, 1, 64, 0
3, 127104, Note_on_c, 1, 52, 67
3, 127196, Note_off_c, 1, 52, 0
3, 127200, Note_on_c, 1, 64, 67
3, 127292, Note_off_c, 1, 64, 0
3, 127296, Note_on_c, 1, 52, 67
3, 127388, Note_off_c, 1, 52, 0
3, 127392, Note_on_c, 1, 64, 67
3, 127484, Note_off_c, 1, 64, 0
3, 127488, Note_on_c, 1, 59, 67
3, 127580, Note_off_c, 1, 59, 0
3, 127584, Note_on_c, 1, 64, 67
3, 127676, Note_off_c, 1, 64, 0
3, 127680, Note_on_c, 1, 52, 67
3, 127772, Note_off_c, 1, 52, 0
3, 127776, Note_on_c, 1, 64, 67
3, 127868, Note_off_c, 1, 64, 0
3, 127872, Note_on_c, 1, 57, 67
3, 127964, Note_off_c, 1, 57, 0
3, 127968, Note_on_c, 1, 64, 67
3, 128060, Note_off_c, 1, 64, 0
3, 128064, Note_on_c, 1, 60, 67
3, 128156, Note_off_c, 1, 60, 0
3, 128160, Note_on_c, 1, 64, 67
3, 128252, Note_off_c, 1, 64, 0
3, 128256, Note_on_c, 1, 57, 67
3, 128348, Note_off_c, 1, 57, 0
3, 128352, Note_on_c, 1, 64, 67
3, 128444, Note_off_c, 1, 64, 0
3, 128448, Note_on_c, 1, 59, 67
3, 128540, Note_off_c, 1, 59, 0
3, 128544, Note_on_c, 1, 64, 67
3, 128636, Note_off_c, 1, 64, 0
3, 128640, Note_on_c, 1, 62, 67
3, 128732, Note_off_c, 1, 62, 0
3, 128736, Note_on_c, 1, 64, 67
3, 128828, Note_off_c, 1, 64, 0
3, 128832, Note_on_c, 1, 59, 67
3, 128924, Note_off_c, 1, 59, 0
3, 128928, Note_on_c, 1, 64, 67
3, 129020, Note_off_c, 1, 64, 0
3, 129024, Note_on_c, 1, 60, 67
3, 129116, Note_off_c, 1, 60, 0
3, 129120, Note_on_c, 1, 64, 67
3, 129212, Note_off_c, 1, 64, 0
3, 129216, Note_on_c, 1, 59, 67
3, 129308, Note_off_c, 1, 59, 0
3, 129312, Note_on_c, 1, 64, 67
3, 129404, Note_off_c, 1, 64, 0
3, 129408, Note_on_c, 1, 57, 67
3, 129500, Note_off_c, 1, 57, 0
3, 129504, Note_on_c, 1, 64, 67
3, 129596, Note_off_c, 1, 64, 0
3, 129600, Note_on_c, 1, 52, 67
3, 129692, Note_off_c, 1, 52, 0
3, 129696, Note_on_c, 1, 64, 67
3, 129788, Note_off_c, 1, 64, 0
3, 129792, Note_on_c, 1, 63, 67
3, 129884, Note_off_c, 1, 63, 0
3, 129888, Note_on_c, 1, 64, 67
3, 129980, Note_off_c, 1, 64, 0
3, 129984, Note_on_c, 1, 52, 67
3, 130076, Note_off_c, 1, 52, 0
3, 130080, Note_on_c, 1, 64, 67
3, 130172, Note_off_c, 1, 64, 0
3, 130176, Note_on_c, 1, 57, 85
3, 130268, Note_off_c, 1, 57, 0
3, 130272, Note_on_c, 1, 64, 85
3, 130364, Note_off_c, 1, 64, 0
3, 130368, Note_on_c, 1, 60, 85
3, 130460, Note_off_c, 1, 60, 0
3, 130464, Note_on_c, 1, 64, 85
3, 130556, Note_off_c, 1, 64, 0
3, 130560, Note_on_c, 1, 57, 85
3, 130652, Note_off_c, 1, 57, 0
3, 130656, Note_on_c, 1, 64, 85
3, 130748, Note_off_c, 1, 64, 0
3, 130752, Note_on_c, 1, 57, 85
3, 130844, Note_off_c, 1, 57, 0
3, 130848, Note_on_c, 1, 64, 85
3, 130940, Note_off_c, 1, 64, 0
3, 130944, Note_on_c, 1, 60, 85
3, 131036, Note_off_c, 1, 60, 0
3, 131040, Note_on_c, 1, 64, 85
3, 131132, Note_off_c, 1, 64, 0
3, 131136, Note_on_c, 1, 57, 85
3, 131228, Note_off_c, 1, 57, 0
3, 131232, Note_on_c, 1, 64, 85
3, 131324, Note_off_c, 1, 64, 0
3, 131328, Note_on_c, 1, 52, 85
3, 131420, Note_off_c, 1, 52, 0
3, 131424, Note_on_c, 1, 64, 85
3, 131516, Note_off_c, 1, 64, 0
3, 131520, Note_on_c, 1, 59, 85
3, 131612, Note_off_c, 1, 59, 0
3, 131616, Note_on_c, 1, 64, 85
3, 131708, Note_off_c, 1, 64, 0
3, 131712, Note_on_c, 1, 52, 85
3, 131804, Note_off_c, 1, 52, 0
3, 131808, Note_on_c, 1, 64, 85
3, 131900, Note_off_c, 1, 64, 0
3, 131904, Note_on_c, 1, 52, 85
3, 131996, Note_off_c, 1, 52, 0
3, 132000, Note_on_c, 1, 64, 85
3, 132092, Note_off_c, 1, 64, 0
3, 132096, Note_on_c, 1, 59, 85
3, 132188, Note_off_c, 1, 59, 0
3, 132192, Note_on_c, 1, 64, 85
3, 132284, Note_off_c, 1, 64, 0
3, 132288, Note_on_c, 1, 52, 85
3, 132380, Note_off_c, 1, 52, 0
3, 132384, Note_on_c, 1, 64, 85
3, 132476, Note_off_c, 1, 64, 0
3, 132480, Note_on_c, 1, 57, 85
3, 132572, Note_off_c, 1, 57, 0
3, 132576, Note_on_c, 1, 64, 85
3, 132668, Note_off_c, 1, 64, 0
3, 132672, Note_on_c, 1, 60, 85
3, 132764, Note_off_c, 1, 60, 0
3, 132768, Note_on_c, 1, 64, 85
3, 132860, Note_off_c, 1, 64, 0
3, 132864, Note_on_c, 1, 56, 85
3, 132956, Note_off_c, 1, 56, 0
3, 132960, Note_on_c, 1, 64, 85
3, 133052, Note_off_c, 1, 64, 0
3, 133056, Note_on_c, 1, 57, 85
3, 133148, Note_off_c, 1, 57, 0
3, 133152, Note_on_c, 1, 64, 85
3, 133244, Note_off_c, 1, 64, 0
3, 133248, Note_on_c, 1, 60, 85
3, 133340, Note_off_c, 1, 60, 0
3, 133344, Note_on_c, 1, 64, 85
3, 133436, Note_off_c, 1, 64, 0
3, 133440, Note_on_c, 1, 53, 85
3, 133532, Note_off_c, 1, 53, 0
3, 133536, Note_on_c, 1, 64, 85
3, 133628, Note_off_c, 1, 64, 0
3, 133632, Note_on_c, 1, 52, 85
3, 133724, Note_off_c, 1, 52, 0
3, 133728, Note_on_c, 1, 60, 85
3, 133820, Note_off_c, 1, 60, 0
3, 133824, Note_on_c, 1, 57, 85
3, 133916, Note_off_c, 1, 57, 0
3, 133920, Note_on_c, 1, 60, 85
3, 134012, Note_off_c, 1, 60, 0
3, 134016, Note_on_c, 1, 52, 85
3, 134108, Note_off_c, 1, 52, 0
3, 134112, Note_on_c, 1, 59, 85
3, 134204, Note_off_c, 1, 59, 0
3, 134208, Note_on_c, 1, 45, 85
3, 134300, Note_off_c, 1, 45, 0
3, 134304, Note_on_c, 1, 48, 85
3, 134396, Note_off_c, 1, 48, 0
3, 134400, Note_on_c, 1, 52, 85
3, 134492, Note_off_c, 1, 52, 0
3, 134496, Note_on_c, 1, 57, 85
3, 134588, Note_off_c, 1, 57, 0
3, 134592, Note_on_c, 1, 45, 85
3, 134780, Note_off_c, 1, 45, 0
3, 134784, Note_on_c, 1, 57, 67
3, 134876, Note_off_c, 1, 57, 0
3, 134880, Note_on_c, 1, 64, 67
3, 134972, Note_off_c, 1, 64, 0
3, 134976, Note_on_c, 1, 60, 67
3, 135068, Note_off_c, 1, 60, 0
3, 135072, Note_on_c, 1, 64, 67
3, 135164, Note_off_c, 1, 64, 0
3, 135168, Note_on_c, 1, 57, 67
3, 135260, Note_off_c, 1, 57, 0
3, 135264, Note_on_c, 1, 64, 67
3, 135356, Note_off_c, 1, 64, 0
3, 135360, Note_on_c, 1, 57, 67
3, 135452, Note_off_c, 1, 57, 0
3, 135456, Note_on_c, 1, 64, 67
3, 135548, Note_off_c, 1, 64, 0
3, 135552, Note_on_c, 1, 60, 67
3, 135644, Note_off_c, 1, 60, 0
3, 135648, Note_on_c, 1, 64, 67
3, 135740, Note_off_c, 1, 64, 0
3, 135744, Note_on_c, 1, 57, 67
3, 135836, Note_off_c, 1, 57, 0
3, 135840, Note_on_c, 1, 64, 67
3, 135932, Note_off_c, 1, 64, 0
3, 135936, Note_on_c, 1, 52, 67
3, 136028, Note_off_c, 1, 52, 0
3, 136032, Note_on_c, 1, 64, 67
3, 136124, Note_off_c, 1, 64, 0
3, 136128, Note_on_c, 1, 59, 67
3, 136220, Note_off_c, 1, 59, 0
3, 136224, Note_on_c, 1, 64, 67
3, 136316, Note_off_c, 1, 64, 0
3, 136320, Note_on_c, 1, 52, 67
3, 136412, Note_off_c, 1, 52, 0
3, 136416, Note_on_c, 1, 64, 67
3, 136508, Note_off_c, 1, 64, 0
3, 136512, Note_on_c, 1, 52, 67
3, 136604, Note_off_c, 1, 52, 0
3, 136608, Note_on_c, 1, 64, 67
3, 136700, Note_off_c, 1, 64, 0
3, 136704, Note_on_c, 1, 59, 67
3, 136796, Note_off_c, 1, 59, 0
3, 136800, Note_on_c, 1, 64, 67
3, 136892, Note_off_c, 1, 64, 0
3, 136896, Note_on_c, 1, 52, 67
3, 136988, Note_off_c, 1, 52, 0
3, 136992, Note_on_c, 1, 64, 67
3, 137084, Note_off_c, 1, 64, 0
3, 137088, Note_on_c, 1, 57, 67
3, 137180, Note_off_c, 1, 57, 0
3, 137184, Note_on_c, 1, 64, 67
3, 137276, Note_off_c, 1, 64, 0
3, 137280, Note_on_c, 1, 60, 67
3, 137372, Note_off_c, 1, 60, 0
3, 137376, Note_on_c, 1, 64, 67
3, 137468, Note_off_c, 1, 64, 0
3, 137472, Note_on_c, 1, 57, 67
3, 137564, Note_off_c, 1, 57, 0
3, 137568, Note_on_c, 1, 64, 67
3, 137660, Note_off_c, 1, 64, 0
3, 137664, Note_on_c, 1, 59, 67
3, 137756, Note_off_c, 1, 59, 0
3, 137760, Note_on_c, 1, 64, 67
3, 137852, Note_off_c, 1, 64, 0
3, 137856, Note_on_c, 1, 62, 67
3, 137948, Note_off_c, 1, 62, 0
3, 137952, Note_on_c, 1, 64, 67
3, 138044, Note_off_c, 1, 64, 0
3, 138048, Note_on_c, 1, 59, 67
3, 138140, Note_off_c, 1, 59, 0
3, 138144, Note_on_c, 1, 64, 67
3, 138236, Note_off_c, 1, 64, 0
3, 138240, Note_on_c, 1, 60, 67
3, 138332, Note_off_c, 1, 60, 0
3, 138336, Note_on_c, 1, 64, 67
3, 138428, Note_off_c, 1, 64, 0
3, 138432, Note_on_c, 1, 59, 67
3, 138524, Note_off_c, 1, 59, 0
3, 138528, Note_on_c, 1, 64, 67
3, 138620, Note_off_c, 1, 64, 0
3, 138624, Note_on_c, 1, 57, 67
3, 138716, Note_off_c, 1, 57, 0
3, 138720, Note_on_c, 1, 64, 67
3, 138812, Note_off_c, 1, 64, 0
3, 138816, Note_on_c, 1, 52, 67
3, 138908, Note_off_c, 1, 52, 0
3, 138912, Note_on_c, 1, 64, 67
3, 139004, Note_off_c, 1, 64, 0
3, 139008, Note_on_c, 1, 63, 67
3, 139100, Note_off_c, 1, 63, 0
3, 139104, Note_on_c, 1, 64, 67
3, 139196, Note_off_c, 1, 64, 0
3, 139200, Note_on_c, 1, 52, 67
3, 139292, Note_off_c, 1, 52, 0
3, 139296, Note_on_c, 1, 64, 67
3, 139388, Note_off_c, 1, 64, 0
3, 139392, Note_on_c, 1, 57, 85
3, 139484, Note_off_c, 1, 57, 0
3, 139488, Note_on_c, 1, 64, 85
3, 139580, Note_off_c, 1, 64, 0
3, 139584, Note_on_c, 1, 60, 85
3, 139676, Note_off_c, 1, 60, 0
3, 139680, Note_on_c, 1, 64, 85
3, 139772, Note_off_c, 1, 64, 0
3, 139776, Note_on_c, 1, 57, 85
3, 139868, Note_off_c, 1, 57, 0
3, 139872, Note_on_c, 1, 64, 85
3, 139964, Note_off_c, 1, 64, 0
3, 139968, Note_on_c, 1, 57, 85
3, 140060, Note_off_c, 1, 57, 0
3, 140064, Note_on_c, 1, 64, 85
3, 140156, Note_off_c, 1, 64, 0
3, 140160, Note_on_c, 1, 60, 85
3, 140252, Note_off_c, 1, 60, 0
3, 140256, Note_on_c, 1, 64, 85
3, 140348, Note_off_c, 1, 64, 0
3, 140352, Note_on_c, 1, 57, 85
3, 140444, Note_off_c, 1, 57, 0
3, 140448, Note_on_c, 1, 64, 85
3, 140540, Note_off_c, 1, 64, 0
3, 140544, Note_on_c, 1, 52, 85
3, 140636, Note_off_c, 1, 52, 0
3, 140640, Note_on_c, 1, 64, 85
3, 140732, Note_off_c, 1, 64, 0
3, 140736, Note_on_c, 1, 59, 85
3, 140828, Note_off_c, 1, 59, 0
3, 140832, Note_on_c, 1, 64, 85
3, 140924, Note_off_c, 1, 64, 0
3, 140928, Note_on_c, 1, 52, 85
3, 141020, Note_off_c, 1, 52, 0
3, 141024, Note_on_c, 1, 64, 85
3, 141116, Note_off_c, 1, 64, 0
3, 141120, Note_on_c, 1, 52, 85
3, 141212, Note_off_c, 1, 52, 0
3, 141216, Note_on_c, 1, 64, 85
3, 141308, Note_off_c, 1, 64, 0
3, 141312, Note_on_c, 1, 59, 85
3, 141404, Note_off_c, 1, 59, 0
3, 141408, Note_on_c, 1, 64, 85
3, 141500, Note_off_c, 1, 64, 0
3, 141504, Note_on_c, 1, 52, 85
3, 141596, Note_off_c, 1, 52, 0
3, 141600, Note_on_c, 1, 64, 85
3, 141692, Note_off_c, 1, 64, 0
3, 141696, Note_on_c, 1, 57, 85
3, 141788, Note_off_c, 1, 57, 0
3, 141792, Note_on_c, 1, 64, 85
3, 141884, Note_off_c, 1, 64, 0
3, 141888, Note_on_c, 1, 60, 85
3, 141980, Note_off_c, 1, 60, 0
3, 141984, Note_on_c, 1, 64, 85
3, 142076, Note_off_c, 1, 64, 0
3, 142080, Note_on_c, 1, 56, 85
3, 142172, Note_off_c, 1, 56, 0
3, 142176, Note_on_c, 1, 64, 85
3, 142268, Note_off_c, 1, 64, 0
3, 142272, Note_on_c, 1, 57, 85
3, 142364, Note_off_c, 1, 57, 0
3, 142368, Note_on_c, 1, 64, 85
3, 142460, Note_off_c, 1, 64, 0
3, 142464, Note_on_c, 1, 60, 85
3, 142556, Note_off_c, 1, 60, 0
3, 142560, Note_on_c, 1, 64, 85
3, 142652, Note_off_c, 1, 64, 0
3, 142656, Note_on_c, 1, 53, 85
3, 142748, Note_off_c, 1, 53, 0
3, 142752, Note_on_c, 1, 64, 85
3, 142844, Note_off_c, 1, 64, 0
3, 142848, Note_on_c, 1, 52, 85
3, 142940, Note_off_c, 1, 52, 0
3, 142944, Note_on_c, 1, 60, 85
3, 143036, Note_off_c, 1, 60, 0
3, 143040, Note_on_c, 1, 57, 85
3, 143132, Note_off_c, 1, 57, 0
3, 143136, Note_on_c, 1, 60, 85
3, 143228, Note_off_c, 1, 60, 0
3, 143232, Note_on_c, 1, 52, 85
3, 143324, Note_off_c, 1, 52, 0
3, 143328, Note_on_c, 1, 59, 85
3, 143420, Note_off_c, 1, 59, 0
3, 143424, Note_on_c, 1, 45, 85
3, 143516, Note_off_c, 1, 45, 0
3, 143520, Note_on_c, 1, 48, 85
3, 143612, Note_off_c, 1, 48, 0
3, 143616, Note_on_c, 1, 52, 85
3, 143708, Note_off_c, 1, 52, 0
3, 143712, Note_on_c, 1, 57, 85
3, 143804, Note_off_c, 1, 57, 0
3, 143808, Note_on_c, 1, 45, 85
3, 143996, Note_off_c, 1, 45, 0
3, 144000, Note_on_c, 1, 60, 75
3, 144000, Note_on_c, 1, 55, 75
3, 144380, Note_off_c, 1, 60, 0
3, 144384, Note_on_c, 1, 61, 75
3, 144572, Note_off_c, 1, 55, 0
3, 144572, Note_off_c, 1, 61, 0
3, 144576, Note_on_c, 1, 57, 75
3, 144576, Note_on_c, 1, 62, 75
3, 145148, Note_off_c, 1, 57, 0
3, 145148, Note_off_c, 1, 62, 0
3, 145152, Note_on_c, 1, 57, 75
3, 145152, Note_on_c, 1, 65, 75
3, 145244, Note_off_c, 1, 65, 0
3, 145248, Note_on_c, 1, 64, 75
3, 145340, Note_off_c, 1, 64, 0
3, 145344, Note_on_c, 1, 65, 75
3, 145436, Note_off_c, 1, 65, 0
3, 145440, Note_on_c, 1, 64, 75
3, 145532, Note_off_c, 1, 64, 0
3, 145536, Note_on_c, 1, 65, 75
3, 145628, Note_off_c, 1, 65, 0
3, 145632, Note_on_c, 1, 62, 75
3, 145724, Note_off_c, 1, 57, 0
3, 145724, Note_off_c, 1, 62, 0
3, 145728, Note_on_c, 1, 57, 75
3, 145728, Note_on_c, 1, 62, 75
3, 145820, Note_off_c, 1, 62, 0
3, 145824, Note_on_c, 1, 60, 75
3, 145916, Note_off_c, 1, 60, 0
3, 145920, Note_on_c, 1, 59, 75
3, 146012, Note_off_c, 1, 59, 0
3, 146016, Note_on_c, 1, 60, 75
3, 146108, Note_off_c, 1, 60, 0
3, 146112, Note_on_c, 1, 59, 75
3, 146204, Note_off_c, 1, 59, 0
3, 146208, Note_on_c, 1, 60, 75
3, 146300, Note_off_c, 1, 57, 0
3, 146300, Note_off_c, 1, 60, 0
3, 146304, Note_on_c, 1, 57, 75
3, 146304, Note_on_c, 1, 60, 75
3, 146396, Note_off_c, 1, 60, 0
3, 146400, Note_on_c, 1, 62, 75
3, 146492, Note_off_c, 1, 62, 0
3, 146496, Note_on_c, 1, 64, 75
3, 146588, Note_off_c, 1, 64, 0
3, 146592, Note_on_c, 1, 62, 75
3, 146684, Note_off_c, 1, 62, 0
3, 146688, Note_on_c, 1, 60, 75
3, 146876, Note_off_c, 1, 57, 0
3, 146876, Note_off_c, 1, 60, 0
3, 146880, Note_on_c, 1, 59, 75
3, 146880, Note_on_c, 1, 56, 75
3, 146972, Note_off_c, 1, 59, 0
3, 146972, Note_off_c, 1, 56, 0
3, 146976, Note_on_c, 1, 60, 75
3, 146976, Note_on_c, 1, 57, 75
3, 147068, Note_off_c, 1, 60, 0
3, 147068, Note_off_c, 1, 57, 0
3, 147072, Note_on_c, 1, 62, 75
3, 147072, Note_on_c, 1, 59, 75
3, 147164, Note_off_c, 1, 62, 0
3, 147164, Note_off_c, 1, 59, 0
3, 147168, Note_on_c, 1, 64, 75
3, 147168, Note_on_c, 1, 60, 75
3, 147260, Note_off_c, 1, 64, 0
3, 147260, Note_off_c, 1, 60, 0
3, 147264, Note_on_c, 1, 65, 75
3, 147264, Note_on_c, 1, 62, 75
3, 147452, Note_off_c, 1, 65, 0
3, 147452, Note_off_c, 1, 62, 0
3, 147456, Note_on_c, 1, 60, 75
3, 147456, Note_on_c, 1, 64, 75
3, 147644, Note_off_c, 1, 60, 0
3, 147644, Note_off_c, 1, 64, 0
3, 147648, Note_on_c, 1, 56, 75
3, 147648, Note_on_c, 1, 64, 75
3, 147836, Note_off_c, 1, 56, 0
3, 147836, Note_off_c, 1, 64, 0
3, 147840, Note_on_c, 1, 57, 75
3, 147840, Note_on_c, 1, 64, 75
3, 148028, Note_off_c, 1, 57, 0
3, 148028, Note_off_c, 1, 64, 0
3, 148144, Note_on_c, 1, 51, 90
3, 148416, Note_on_c, 1, 52, 75
3, 148524, Note_off_c, 1, 51, 0
3, 148604, Note_off_c, 1, 52, 0
3, 148608, Note_on_c, 1, 57, 67
3, 148700, Note_off_c, 1, 57, 0
3, 148704, Note_on_c, 1, 64, 67
3, 148796, Note_off_c, 1, 64, 0
3, 148800, Note_on_c, 1, 60, 67
3, 148892, Note_off_c, 1, 60, 0
3, 148896, Note_on_c, 1, 64, 67
3, 148988, Note_off_c, 1, 64, 0
3, 148992, Note_on_c, 1, 57, 67
3, 149084, Note_off_c, 1, 57, 0
3, 149088, Note_on_c, 1, 64, 67
3, 149180, Note_off_c, 1, 64, 0
3, 149184, Note_on_c, 1, 57, 67
3, 149276, Note_off_c, 1, 57, 0
3, 149280, Note_on_c, 1, 64, 67
3, 149372, Note_off_c, 1, 64, 0
3, 149376, Note_on_c, 1, 60, 67
3, 149468, Note_off_c, 1, 60, 0
3, 149472, Note_on_c, 1, 64, 67
3, 149564, Note_off_c, 1, 64, 0
3, 149568, Note_on_c, 1, 57, 67
3, 149660, Note_off_c, 1, 57, 0
3, 149664, Note_on_c, 1, 64, 67
3, 149756, Note_off_c, 1, 64, 0
3, 149760, Note_on_c, 1, 52, 67
3, 149852, Note_off_c, 1, 52, 0
3, 149856, Note_on_c, 1, 64, 67
3, 149948, Note_off_c, 1, 64, 0
3, 149952, Note_on_c, 1, 59, 67
3, 150044, Note_off_c, 1, 59, 0
3, 150048, Note_on_c, 1, 64, 67
3, 150140, Note_off_c, 1, 64, 0
3, 150144, Note_on_c, 1, 52, 67
3, 150236, Note_off_c, 1, 52, 0
3, 150240, Note_on_c, 1, 64, 67
3, 150332, Note_off_c, 1, 64, 0
3, 150336, Note_on_c, 1, 52, 67
3, 150428, Note_off_c, 1, 52, 0
3, 150432, Note_on_c, 1, 64, 67
3, 150524, Note_off_c, 1, 64, 0
3, 150528, Note_on_c, 1, 59, 67
3, 150620, Note_off_c, 1, 59, 0
3, 150624, Note_on_c, 1, 64, 67
3, 150716, Note_off_c, 1, 64, 0
3, 150720, Note_on_c, 1, 52, 67
3, 150812, Note_off_c, 1, 52, 0
3, 150816, Note_on_c, 1, 64, 67
3, 150908, Note_off_c, 1, 64, 0
3, 150912, Note_on_c, 1, 57, 67
3, 151004, Note_off_c, 1, 57, 0
3, 151008, Note_on_c, 1, 64, 67
3, 151100, Note_off_c, 1, 64, 0
3, 151104, Note_on_c, 1, 60, 67
3, 151196, Note_off_c, 1, 60, 0
3, 151200, Note_on_c, 1, 64, 67
3, 151292, Note_off_c, 1, 64, 0
3, 151296, Note_on_c, 1, 56, 67
3, 151388, Note_off_c, 1, 56, 0
3, 151392, Note_on_c, 1, 64, 67
3, 151484, Note_off_c, 1, 64, 0
3, 151488, Note_on_c, 1, 57, 67
3, 151580, Note_off_c, 1, 57, 0
3, 151584, Note_on_c, 1, 64, 67
3, 151676, Note_off_c, 1, 64, 0
3, 151680, Note_on_c, 1, 60, 67
3, 151772, Note_off_c, 1, 60, 0
3, 151776, Note_on_c, 1, 64, 67
3, 151868, Note_off_c, 1, 64, 0
3, 151872, Note_on_c, 1, 53, 67
3, 151964, Note_off_c, 1, 53, 0
3, 151968, Note_on_c, 1, 64, 67
3, 152060, Note_off_c, 1, 64, 0
3, 152064, Note_on_c, 1, 52, 67
3, 152156, Note_off_c, 1, 52, 0
3, 152160, Note_on_c, 1, 60, 67
3, 152252, Note_off_c, 1, 60, 0
3, 152256, Note_on_c, 1, 57, 67
3, 152348, Note_off_c, 1, 57, 0
3, 152352, Note_on_c, 1, 60, 67
3, 152444, Note_off_c, 1, 60, 0
3, 152448, Note_on_c, 1, 52, 67
3, 152540, Note_off_c, 1, 52, 0
3, 152544, Note_on_c, 1, 59, 67
3, 152636, Note_off_c, 1, 59, 0
3, 152640, Note_on_c, 1, 57, 67
3, 152640, Note_on_c, 1, 45, 67
3, 153020, Note_off_c, 1, 57, 0
3, 153020, Note_off_c, 1, 45, 0
3, 153216, Note_on_c, 1, 45, 90
3, 153308, Note_off_c, 1, 45, 0
3, 153312, Note_on_c, 1, 52, 90
3, 153404, Note_off_c, 1, 52, 0
3, 153408, Note_on_c, 1, 48, 90
3, 153500, Note_off_c, 1, 48, 0
3, 153504, Note_on_c, 1, 52, 90
3, 153596, Note_off_c, 1, 52, 0
3, 153600, Note_on_c, 1, 44, 90
3, 153692, Note_off_c, 1, 44, 0
3, 153696, Note_on_c, 1, 52, 90
3, 153788, Note_off_c, 1, 52, 0
3, 153792, Note_on_c, 1, 45, 90
3, 153884, Note_off_c, 1, 45, 0
3, 153888, Note_on_c, 1, 52, 90
3, 153980, Note_off_c, 1, 52, 0
3, 153984, Note_on_c, 1, 48, 90
3, 154076, Note_off_c, 1, 48, 0
3, 154080, Note_on_c, 1, 52, 90
3, 154172, Note_off_c, 1, 52, 0
3, 154176, Note_on_c, 1, 41, 90
3, 154268, Note_off_c, 1, 41, 0
3, 154272, Note_on_c, 1, 50, 90
3, 154364, Note_off_c, 1, 50, 0
3, 154368, Note_on_c, 1, 40, 90
3, 154460, Note_off_c, 1, 40, 0
3, 154464, Note_on_c, 1, 48, 90
3, 154556, Note_off_c, 1, 48, 0
3, 154560, Note_on_c, 1, 45, 90
3, 154652, Note_off_c, 1, 45, 0
3, 154656, Note_on_c, 1, 48, 90
3, 154748, Note_off_c, 1, 48, 0
3, 154752, Note_on_c, 1, 40, 90
3, 154844, Note_off_c, 1, 40, 0
3, 154848, Note_on_c, 1, 47, 90
3, 154940, Note_off_c, 1, 47, 0
3, 154944, Note_on_c, 1, 33, 90
3, 155036, Note_off_c, 1, 33, 0
3, 155040, Note_on_c, 1, 36, 90
3, 155132, Note_off_c, 1, 36, 0
3, 155136, Note_on_c, 1, 40, 90
3, 155228, Note_off_c, 1, 40, 0
3, 155232, Note_on_c, 1, 45, 90
3, 155324, Note_off_c, 1, 45, 0
3, 155328, Note_on_c, 1, 33, 90
3, 155516, Note_off_c, 1, 33, 0
3, 155520, Note_on_c, 1, 60, 75
3, 155520, Note_on_c, 1, 55, 75
3, 155900, Note_off_c, 1, 60, 0
3, 155904, Note_on_c, 1, 61, 75
3, 156092, Note_off_c, 1, 55, 0
3, 156092, Note_off_c, 1, 61, 0
3, 156096, Note_on_c, 1, 57, 75
3, 156096, Note_on_c, 1, 62, 75
3, 156668, Note_off_c, 1, 57, 0
3, 156668, Note_off_c, 1, 62, 0
3, 156672, Note_on_c, 1, 57, 75
3, 156672, Note_on_c, 1, 65, 75
3, 156764, Note_off_c, 1, 65, 0
3, 156768, Note_on_c, 1, 64, 75
3, 156860, Note_off_c, 1, 64, 0
3, 156864, Note_on_c, 1, 65, 75
3, 156956, Note_off_c, 1, 65, 0
3, 156960, Note_on_c, 1, 64, 75
3, 157052, Note_off_c, 1, 64, 0
3, 157056, Note_on_c, 1, 65, 75
3, 157148, Note_off_c, 1, 65, 0
3, 157152, Note_on_c, 1, 62, 75
3, 157244, Note_off_c, 1, 57, 0
3, 157244, Note_off_c, 1, 62, 0
3, 157248, Note_on_c, 1, 57, 75
3, 157248, Note_on_c, 1, 62, 75
3, 157340, Note_off_c, 1, 62, 0
3, 157344, Note_on_c, 1, 60, 75
3, 157436, Note_off_c, 1, 60, 0
3, 157440, Note_on_c, 1, 59, 75
3, 157532, Note_off_c, 1, 59, 0
3, 157536, Note_on_c, 1, 60, 75
3, 157628, Note_off_c, 1, 60, 0
3, 157632, Note_on_c, 1, 59, 75
3, 157724, Note_off_c, 1, 59, 0
3, 157728, Note_on_c, 1, 60, 75
3, 157820, Note_off_c, 1, 57, 0
3, 157820, Note_off_c, 1, 60, 0
3, 157824, Note_on_c, 1, 57, 75
3, 157824, Note_on_c, 1, 60, 75
3, 157916, Note_off_c, 1, 60, 0
3, 157920, Note_on_c, 1, 62, 75
3, 158012, Note_off_c, 1, 62, 0
3, 158016, Note_on_c, 1, 64, 75
3, 158108, Note_off_c, 1, 64, 0
3, 158112, Note_on_c, 1, 62, 75
3, 158204, Note_off_c, 1, 62, 0
3, 158208, Note_on_c, 1, 60, 75
3, 158396, Note_off_c, 1, 57, 0
3, 158396, Note_off_c, 1, 60, 0
3, 158400, Note_on_c, 1, 59, 75
3, 158400, Note_on_c, 1, 56, 75
3, 158492, Note_off_c, 1, 59, 0
3, 158492, Note_off_c, 1, 56, 0
3, 158496, Note_on_c, 1, 60, 75
3, 158496, Note_on_c, 1, 57, 75
3, 158588, Note_off_c, 1, 60, 0
3, 158588, Note_off_c, 1, 57, 0
3, 158592, Note_on_c, 1, 62, 75
3, 158592, Note_on_c, 1, 59, 75
3, 158684, Note_off_c, 1, 62, 0
3, 158684, Note_off_c, 1, 59, 0
3, 158688, Note_on_c, 1, 64, 75
3, 158688, Note_on_c, 1, 60, 75
3, 158780, Note_off_c, 1, 64, 0
3, 158780, Note_off_c, 1, 60, 0
3, 158784, Note_on_c, 1, 65, 75
3, 158784, Note_on_c, 1, 62, 75
3, 158972, Note_off_c, 1, 65, 0
3, 158972, Note_off_c, 1, 62, 0
3, 158976, Note_on_c, 1, 60, 75
3, 158976, Note_on_c, 1, 64, 75
3, 159164, Note_off_c, 1, 60, 0
3, 159164, Note_off_c, 1, 64, 0
3, 159168, Note_on_c, 1, 56, 75
3, 159168, Note_on_c, 1, 64, 75
3, 159356, Note_off_c, 1, 56, 0
3, 159356, Note_off_c, 1, 64, 0
3, 159360, Note_on_c, 1, 57, 75
3, 159360, Note_on_c, 1, 64, 75
3, 159548, Note_off_c, 1, 57, 0
3, 159548, Note_off_c, 1, 64, 0
3, 159664, Note_on_c, 1, 51, 90
3, 159936, Note_on_c, 1, 52, 75
3, 160044, Note_off_c, 1, 51, 0
3, 160124, Note_off_c, 1, 52, 0
3, 160128, Note_on_c, 1, 57, 67
3, 160220, Note_off_c, 1, 57, 0
3, 160224, Note_on_c, 1, 64, 67
3, 160316, Note_off_c, 1, 64, 0
3, 160320, Note_on_c, 1, 60, 67
3, 160412, Note_off_c, 1, 60, 0
3, 160416, Note_on_c, 1, 64, 67
3, 160508, Note_off_c, 1, 64, 0
3, 160512, Note_on_c, 1, 57, 67
3, 160604, Note_off_c, 1, 57, 0
3, 160608, Note_on_c, 1, 64, 67
3, 160700, Note_off_c, 1, 64, 0
3, 160704, Note_on_c, 1, 57, 67
3, 160796, Note_off_c, 1, 57, 0
3, 160800, Note_on_c, 1, 64, 67
3, 160892, Note_off_c, 1, 64, 0
3, 160896, Note_on_c, 1, 60, 67
3, 160988, Note_off_c, 1, 60, 0
3, 160992, Note_on_c, 1, 64, 67
3, 161084, Note_off_c, 1, 64, 0
3, 161088, Note_on_c, 1, 57, 67
3, 161180, Note_off_c, 1, 57, 0
3, 161184, Note_on_c, 1, 64, 67
3, 161276, Note_off_c, 1, 64, 0
3, 161280, Note_on_c, 1, 52, 67
3, 161372, Note_off_c, 1, 52, 0
3, 161376, Note_on_c, 1, 64, 67
3, 161468, Note_off_c, 1, 64, 0
3, 161472, Note_on_c, 1, 59, 67
3, 161564, Note_off_c, 1, 59, 0
3, 161568, Note_on_c, 1, 64, 67
3, 161660, Note_off_c, 1, 64, 0
3, 161664, Note_on_c, 1, 52, 67
3, 161756, Note_off_c, 1, 52, 0
3, 161760, Note_on_c, 1, 64, 67
3, 161852, Note_off_c, 1, 64, 0
3, 161856, Note_on_c, 1, 52, 67
3, 161948, Note_off_c, 1, 52, 0
3, 161952, Note_on_c, 1, 64, 67
3, 162044, Note_off_c, 1, 64, 0
3, 162048, Note_on_c, 1, 59, 67
3, 162140, Note_off_c, 1, 59, 0
3, 162144, Note_on_c, 1, 64, 67
3, 162236, Note_off_c, 1, 64, 0
3, 162240, Note_on_c, 1, 52, 67
3, 162332, Note_off_c, 1, 52, 0
3, 162336, Note_on_c, 1, 64, 67
3, 162428, Note_off_c, 1, 64, 0
3, 162432, Note_on_c, 1, 57, 67
3, 162524, Note_off_c, 1, 57, 0
3, 162528, Note_on_c, 1, 64, 67
3, 162620, Note_off_c, 1, 64, 0
3, 162624, Note_on_c, 1, 60, 67
3, 162716, Note_off_c, 1, 60, 0
3, 162720, Note_on_c, 1, 64, 67
3, 162812, Note_off_c, 1, 64, 0
3, 162816, Note_on_c, 1, 56, 67
3, 162908, Note_off_c, 1, 56, 0
3, 162912, Note_on_c, 1, 64, 67
3, 163004, Note_off_c, 1, 64, 0
3, 163008, Note_on_c, 1, 57, 67
3, 163100, Note_off_c, 1, 57, 0
3, 163104, Note_on_c, 1, 64, 67
3, 163196, Note_off_c, 1, 64, 0
3, 163200, Note_on_c, 1, 60, 67
3, 163292, Note_off_c, 1, 60, 0
3, 163296, Note_on_c, 1, 64, 67
3, 163388, Note_off_c, 1, 64, 0
3, 163392, Note_on_c, 1, 53, 67
3, 163484, Note_off_c, 1, 53, 0
3, 163488, Note_on_c, 1, 64, 67
3, 163580, Note_off_c, 1, 64, 0
3, 163584, Note_on_c, 1, 52, 67
3, 163676, Note_off_c, 1, 52, 0
3, 163680, Note_on_c, 1, 60, 67
3, 163772, Note_off_c, 1, 60, 0
3, 163776, Note_on_c, 1, 57, 67
3, 163868, Note_off_c, 1, 57, 0
3, 163872, Note_on_c, 1, 60, 67
3, 163964, Note_off_c, 1, 60, 0
3, 163968, Note_on_c, 1, 52, 67
3, 164060, Note_off_c, 1, 52, 0
3, 164064, Note_on_c, 1, 59, 67
3, 164156, Note_off_c, 1, 59, 0
3, 164160, Note_on_c, 1, 57, 67
3, 164160, Note_on_c, 1, 45, 67
3, 164540, Note_off_c, 1, 57, 0
3, 164540, Note_off_c, 1, 45, 0
3, 164736, Note_on_c, 1, 45, 90
3, 164828, Note_off_c, 1, 45, 0
3, 164832, Note_on_c, 1, 52, 90
3, 164924, Note_off_c, 1, 52, 0
3, 164928, Note_on_c, 1, 48, 90
3, 165020, Note_off_c, 1, 48, 0
3, 165024, Note_on_c, 1, 52, 90
3, 165116, Note_off_c, 1, 52, 0
3, 165120, Note_on_c, 1, 44, 90
3, 165212, Note_off_c, 1, 44, 0
3, 165216, Note_on_c, 1, 52, 90
3, 165308, Note_off_c, 1, 52, 0
3, 165312, Note_on_c, 1, 45, 90
3, 165404, Note_off_c, 1, 45, 0
3, 165408, Note_on_c, 1, 52, 90
3, 165500, Note_off_c, 1, 52, 0
3, 165504, Note_on_c, 1, 48, 90
3, 165596, Note_off_c, 1, 48, 0
3, 165600, Note_on_c, 1, 52, 90
3, 165692, Note_off_c, 1, 52, 0
3, 165696, Note_on_c, 1, 41, 90
3, 165788, Note_off_c, 1, 41, 0
3, 165792, Note_on_c, 1, 50, 90
3, 165884, Note_off_c, 1, 50, 0
3, 165888, Note_on_c, 1, 40, 90
3, 165980, Note_off_c, 1, 40, 0
3, 165984, Note_on_c, 1, 48, 90
3, 166076, Note_off_c, 1, 48, 0
3, 166080, Note_on_c, 1, 45, 90
3, 166172, Note_off_c, 1, 45, 0
3, 166176, Note_on_c, 1, 48, 90
3, 166268, Note_off_c, 1, 48, 0
3, 166272, Note_on_c, 1, 40, 90
3, 166364, Note_off_c, 1, 40, 0
3, 166368, Note_on_c, 1, 47, 90
3, 166460, Note_off_c, 1, 47, 0
3, 166464, Note_on_c, 1, 33, 90
3, 166556, Note_off_c, 1, 33, 0
3, 166560, Note_on_c, 1, 36, 90
3, 166652, Note_off_c, 1, 36, 0
3, 166656, Note_on_c, 1, 40, 90
3, 166748, Note_off_c, 1, 40, 0
3, 166752, Note_on_c, 1, 45, 90
3, 166844, Note_off_c, 1, 45, 0
3, 166848, Note_on_c, 1, 33, 90
3, 167036, Note_off_c, 1, 33, 0
3, 167040, Key_signature, 3, "major"
3, 167040, Note_on_c, 1, 57, 67
3, 167040, Note_on_c, 1, 45, 67
3, 167228, Note_off_c, 1, 57, 0
3, 167228, Note_off_c, 1, 45, 0
3, 168192, Note_on_c, 1, 52, 67
3, 168192, Note_on_c, 1, 40, 67
3, 168380, Note_off_c, 1, 52, 0
3, 168380, Note_off_c, 1, 40, 0
3, 169344, Note_on_c, 1, 57, 67
3, 169344, Note_on_c, 1, 45, 67
3, 169532, Note_off_c, 1, 57, 0
3, 169532, Note_off_c, 1, 45, 0
3, 169728, Note_on_c, 1, 57, 67
3, 169728, Note_on_c, 1, 45, 67
3, 169916, Note_off_c, 1, 57, 0
3, 169916, Note_off_c, 1, 45, 0
3, 169920, Note_on_c, 1, 52, 67
3, 169920, Note_on_c, 1, 40, 67
3, 170108, Note_off_c, 1, 52, 0
3, 170108, Note_off_c, 1, 40, 0
3, 170304, Note_on_c, 1, 52, 67
3, 170304, Note_on_c, 1, 40, 67
3, 170492, Note_off_c, 1, 52, 0
3, 170492, Note_off_c, 1, 40, 0
3, 171264, Note_on_c, 1, 64, 67
3, 171452, Note_off_c, 1, 64, 0
3, 171456, Note_on_c, 1, 52, 67
3, 171644, Note_off_c, 1, 52, 0
3, 171648, Note_on_c, 1, 57, 90
3, 171648, Note_on_c, 1, 45, 90
3, 171836, Note_off_c, 1, 57, 0
3, 171836, Note_off_c, 1, 45, 0
3, 172800, Note_on_c, 1, 52, 90
3, 172800, Note_on_c, 1, 40, 90
3, 172988, Note_off_c, 1, 52, 0
3, 172988, Note_off_c, 1, 40, 0
3, 173952, Note_on_c, 1, 57, 90
3, 173952, Note_on_c, 1, 45, 90
3, 174140, Note_off_c, 1, 57, 0
3, 174140, Note_off_c, 1, 45, 0
3, 174720, Note_on_c, 1, 54, 90
3, 174720, Note_on_c, 1, 42, 90
3, 174908, Note_off_c, 1, 54, 0
3, 174908, Note_off_c, 1, 42, 0
3, 174912, Note_on_c, 1, 50, 90
3, 174912, Note_on_c, 1, 38, 90
3, 175100, Note_off_c, 1, 50, 0
3, 175100, Note_off_c, 1, 38, 0
3, 175104, Note_on_c, 1, 52, 90
3, 175104, Note_on_c, 1, 40, 90
3, 175292, Note_off_c, 1, 52, 0
3, 175292, Note_off_c, 1, 40, 0
3, 175872, Note_on_c, 1, 57, 90
3, 176060, Note_off_c, 1, 57, 0
3, 176064, Note_on_c, 1, 45, 90
3, 176252, Note_off_c, 1, 45, 0
3, 176256, Note_on_c, 1, 57, 67
3, 176256, Note_on_c, 1, 45, 67
3, 176444, Note_off_c, 1, 57, 0
3, 176444, Note_off_c, 1, 45, 0
3, 177408, Note_on_c, 1, 52, 67
3, 177408, Note_on_c, 1, 40, 67
3, 177596, Note_off_c, 1, 52, 0
3, 177596, Note_off_c, 1, 40, 0
3, 178560, Note_on_c, 1, 57, 67
3, 178560, Note_on_c, 1, 45, 67
3, 178748, Note_off_c, 1, 57, 0
3, 178748, Note_off_c, 1, 45, 0
3, 178944, Note_on_c, 1, 57, 67
3, 178944, Note_on_c, 1, 45, 67
3, 179132, Note_off_c, 1, 57, 0
3, 179132, Note_off_c, 1, 45, 0
3, 179136, Note_on_c, 1, 52, 67
3, 179136, Note_on_c, 1, 40, 67
3, 179324, Note_off_c, 1, 52, 0
3, 179324, Note_off_c, 1, 40, 0
3, 179520, Note_on_c, 1, 52, 67
3, 179520, Note_on_c, 1, 40, 67
3, 179708, Note_off_c, 1, 52, 0
3, 179708, Note_off_c, 1, 40, 0
3, 180480, Note_on_c, 1, 64, 67
3, 180668, Note_off_c, 1, 64, 0
3, 180672, Note_on_c, 1, 52, 67
3, 180860, Note_off_c, 1, 52, 0
3, 180864, Note_on_c, 1, 57, 90
3, 180864, Note_on_c, 1, 45, 90
3, 181052, Note_off_c, 1, 57, 0
3, 181052, Note_off_c, 1, 45, 0
3, 182016, Note_on_c, 1, 52, 90
3, 182016, Note_on_c, 1, 40, 90
3, 182204, Note_off_c, 1, 52, 0
3, 182204, Note_off_c, 1, 40, 0
3, 183168, Note_on_c, 1, 57, 90
3, 183168, Note_on_c, 1, 45, 90
3, 183356, Note_off_c, 1, 57, 0
3, 183356, Note_off_c, 1, 45, 0
3, 183936, Note_on_c, 1, 54, 90
3, 183936, Note_on_c, 1, 42, 90
3, 184124, Note_off_c, 1, 54, 0
3, 184124, Note_off_c, 1, 42, 0
3, 184128, Note_on_c, 1, 50, 90
3, 184128, Note_on_c, 1, 38, 90
3, 184316, Note_off_c, 1, 50, 0
3, 184316, Note_off_c, 1, 38, 0
3, 184320, Note_on_c, 1, 52, 90
3, 184320, Note_on_c, 1, 40, 90
3, 184508, Note_off_c, 1, 52, 0
3, 184508, Note_off_c, 1, 40, 0
3, 185088, Note_on_c, 1, 57, 90
3, 185276, Note_off_c, 1, 57, 0
3, 185280, Note_on_c, 1, 45, 90
3, 185468, Note_off_c, 1, 45, 0
3, 185472, Note_on_c, 1, 57, 67
3, 185564, Note_off_c, 1, 57, 0
3, 185568, Note_on_c, 1, 61, 67
3, 185660, Note_off_c, 1, 61, 0
3, 185664, Note_on_c, 1, 64, 67
3, 185756, Note_off_c, 1, 64, 0
3, 185760, Note_on_c, 1, 61, 67
3, 185852, Note_off_c, 1, 61, 0
3, 185856, Note_on_c, 1, 64, 67
3, 185948, Note_off_c, 1, 64, 0
3, 185952, Note_on_c, 1, 61, 67
3, 186044, Note_off_c, 1, 61, 0
3, 186048, Note_on_c, 1, 57, 67
3, 186140, Note_off_c, 1, 57, 0
3, 186144, Note_on_c, 1, 62, 67
3, 186236, Note_off_c, 1, 62, 0
3, 186240, Note_on_c, 1, 66, 67
3, 186332, Note_off_c, 1, 66, 0
3, 186336, Note_on_c, 1, 62, 67
3, 186428, Note_off_c, 1, 62, 0
3, 186432, Note_on_c, 1, 66, 67
3, 186524, Note_off_c, 1, 66, 0
3, 186528, Note_on_c, 1, 62, 67
3, 186620, Note_off_c, 1, 62, 0
3, 186624, Note_on_c, 1, 57, 67
3, 186716, Note_off_c, 1, 57, 0
3, 186720, Note_on_c, 1, 62, 67
3, 186812, Note_off_c, 1, 62, 0
3, 186816, Note_on_c, 1, 66, 67
3, 186908, Note_off_c, 1, 66, 0
3, 186912, Note_on_c, 1, 62, 67
3, 187004, Note_off_c, 1, 62, 0
3, 187008, Note_on_c, 1, 66, 67
3, 187100, Note_off_c, 1, 66, 0
3, 187104, Note_on_c, 1, 62, 67
3, 187196, Note_off_c, 1, 62, 0
3, 187200, Note_on_c, 1, 57, 67
3, 187292, Note_off_c, 1, 57, 0
3, 187296, Note_on_c, 1, 61, 67
3, 187388, Note_off_c, 1, 61, 0
3, 187392, Note_on_c, 1, 64, 67
3, 187484, Note_off_c, 1, 64, 0
3, 187488, Note_on_c, 1, 61, 67
3, 187580, Note_off_c, 1, 61, 0
3, 187584, Note_on_c, 1, 64, 67
3, 187676, Note_off_c, 1, 64, 0
3, 187680, Note_on_c, 1, 61, 67
3, 187772, Note_off_c, 1, 61, 0
3, 187776, Note_on_c, 1, 49, 67
3, 187776, Note_on_c, 1, 45, 67
3, 187964, Note_off_c, 1, 49, 0
3, 187964, Note_off_c, 1, 45, 0
3, 187968, Note_on_c, 1, 57, 67
3, 187968, Note_on_c, 1, 61, 67
3, 188156, Note_off_c, 1, 57, 0
3, 188156, Note_off_c, 1, 61, 0
3, 188352, Note_on_c, 1, 50, 67
3, 188352, Note_on_c, 1, 47, 67
3, 188540, Note_off_c, 1, 50, 0
3, 188540, Note_off_c, 1, 47, 0
3, 188544, Note_on_c, 1, 59, 67
3, 188544, Note_on_c, 1, 62, 67
3, 188732, Note_off_c, 1, 59, 0
3, 188732, Note_off_c, 1, 62, 0
3, 188928, Note_on_c, 1, 61, 67
3, 188928, Note_on_c, 1, 64, 67
3, 189116, Note_off_c, 1, 61, 0
3, 189116, Note_off_c, 1, 64, 0
3, 189120, Note_on_c, 1, 59, 67
3, 189120, Note_on_c, 1, 62, 67
3, 189308, Note_off_c, 1, 59, 0
3, 189308, Note_off_c, 1, 62, 0
3, 189312, Note_on_c, 1, 57, 67
3, 189312, Note_on_c, 1, 61, 67
3, 189500, Note_off_c, 1, 57, 0
3, 189500, Note_off_c, 1, 61, 0
3, 189504, Note_on_c, 1, 57, 90
3, 189504, Note_on_c, 1, 61, 90
3, 189504, Note_on_c, 1, 52, 90
3, 189884, Note_off_c, 1, 57, 0
3, 189884, Note_off_c, 1, 61, 0
3, 189888, Note_on_c, 1, 56, 67
3, 189888, Note_on_c, 1, 59, 67
3, 190076, Note_off_c, 1, 52, 0
3, 190076, Note_off_c, 1, 56, 0
3, 190076, Note_off_c, 1, 59, 0
3, 190080, Note_on_c, 1, 57, 67
3, 190080, Note_on_c, 1, 45, 67
3, 190268, Note_off_c, 1, 57, 0
3, 190268, Note_off_c, 1, 45, 0
3, 191232, Note_on_c, 1, 52, 67
3, 191232, Note_on_c, 1, 40, 67
3, 191420, Note_off_c, 1, 52, 0
3, 191420, Note_off_c, 1, 40, 0
3, 192384, Note_on_c, 1, 57, 67
3, 192384, Note_on_c, 1, 45, 67
3, 192572, Note_off_c, 1, 57, 0
3, 192572, Note_off_c, 1, 45, 0
3, 193152, Note_on_c, 1, 54, 67
3, 193152, Note_on_c, 1, 42, 67
3, 193340, Note_off_c, 1, 54, 0
3, 193340, Note_off_c, 1, 42, 0
3, 193344, Note_on_c, 1, 50, 67
3, 193344, Note_on_c, 1, 38, 67
3, 193532, Note_off_c, 1, 50, 0
3, 193532, Note_off_c, 1, 38, 0
3, 193536, Note_on_c, 1, 52, 67
3, 193536, Note_on_c, 1, 40, 67
3, 193724, Note_off_c, 1, 52, 0
3, 193724, Note_off_c, 1, 40, 0
3, 194688, Note_on_c, 1, 57, 90
3, 194688, Note_on_c, 1, 45, 90
3, 194876, Note_off_c, 1, 57, 0
3, 194876, Note_off_c, 1, 45, 0
3, 195456, Note_on_c, 1, 57, 90
3, 195456, Note_on_c, 1, 45, 90
3, 195644, Note_off_c, 1, 57, 0
3, 195644, Note_off_c, 1, 45, 0
3, 195648, Note_on_c, 1, 50, 90
3, 195648, Note_on_c, 1, 38, 90
3, 195836, Note_off_c, 1, 50, 0
3, 195836, Note_off_c, 1, 38, 0
3, 195840, Note_on_c, 1, 52, 90
3, 195840, Note_on_c, 1, 40, 90
3, 196028, Note_off_c, 1, 52, 0
3, 196028, Note_off_c, 1, 40, 0
3, 196608, Note_on_c, 1, 57, 90
3, 196796, Note_off_c, 1, 57, 0
3, 196800, Note_on_c, 1, 45, 90
3, 196988, Note_off_c, 1, 45, 0
3, 196992, Note_on_c, 1, 57, 67
3, 197084, Note_off_c, 1, 57, 0
3, 197088, Note_on_c, 1, 61, 67
3, 197180, Note_off_c, 1, 61, 0
3, 197184, Note_on_c, 1, 64, 67
3, 197276, Note_off_c, 1, 64, 0
3, 197280, Note_on_c, 1, 61, 67
3, 197372, Note_off_c, 1, 61, 0
3, 197376, Note_on_c, 1, 64, 67
3, 197468, Note_off_c, 1, 64, 0
3, 197472, Note_on_c, 1, 61, 67
3, 197564, Note_off_c, 1, 61, 0
3, 197568, Note_on_c, 1, 57, 67
3, 197660, Note_off_c, 1, 57, 0
3, 197664, Note_on_c, 1, 62, 67
3, 197756, Note_off_c, 1, 62, 0
3, 197760, Note_on_c, 1, 66, 67
3, 197852, Note_off_c, 1, 66, 0
3, 197856, Note_on_c, 1, 62, 67
3, 197948, Note_off_c, 1, 62, 0
3, 197952, Note_on_c, 1, 66, 67
3, 198044, Note_off_c, 1, 66, 0
3, 198048, Note_on_c, 1, 62, 67
3, 198140, Note_off_c, 1, 62, 0
3, 198144, Note_on_c, 1, 57, 67
3, 198236, Note_off_c, 1, 57, 0
3, 198240, Note_on_c, 1, 62, 67
3, 198332, Note_off_c, 1, 62, 0
3, 198336, Note_on_c, 1, 66, 67
3, 198428, Note_off_c, 1, 66, 0
3, 198432, Note_on_c, 1, 62, 67
3, 198524, Note_off_c, 1, 62, 0
3, 198528, Note_on_c, 1, 66, 67
3, 198620, Note_off_c, 1, 66, 0
3, 198624, Note_on_c, 1, 62, 67
3, 198716, Note_off_c, 1, 62, 0
3, 198720, Note_on_c, 1, 57, 67
3, 198812, Note_off_c, 1, 57, 0
3, 198816, Note_on_c, 1, 61, 67
3, 198908, Note_off_c, 1, 61, 0
3, 198912, Note_on_c, 1, 64, 67
3, 199004, Note_off_c, 1, 64, 0
3, 199008, Note_on_c, 1, 61, 67
3, 199100, Note_off_c, 1, 61, 0
3, 199104, Note_on_c, 1, 64, 67
3, 199196, Note_off_c, 1, 64, 0
3, 199200, Note_on_c, 1, 61, 67
3, 199292, Note_off_c, 1, 61, 0
3, 199296, Note_on_c, 1, 49, 67
3, 199296, Note_on_c, 1, 45, 67
3, 199484, Note_off_c, 1, 49, 0
3, 199484, Note_off_c, 1, 45, 0
3, 199488, Note_on_c, 1, 57, 67
3, 199488, Note_on_c, 1, 61, 67
3, 199676, Note_off_c, 1, 57, 0
3, 199676, Note_off_c, 1, 61, 0
3, 199872, Note_on_c, 1, 50, 67
3, 199872, Note_on_c, 1, 47, 67
3, 200060, Note_off_c, 1, 50, 0
3, 200060, Note_off_c, 1, 47, 0
3, 200064, Note_on_c, 1, 59, 67
3, 200064, Note_on_c, 1, 62, 67
3, 200252, Note_off_c, 1, 59, 0
3, 200252, Note_off_c, 1, 62, 0
3, 200448, Note_on_c, 1, 61, 67
3, 200448, Note_on_c, 1, 64, 67
3, 200636, Note_off_c, 1, 61, 0
3, 200636, Note_off_c, 1, 64, 0
3, 200640, Note_on_c, 1, 59, 67
3, 200640, Note_on_c, 1, 62, 67
3, 200828, Note_off_c, 1, 59, 0
3, 200828, Note_off_c, 1, 62, 0
3, 200832, Note_on_c, 1, 57, 67
3, 200832, Note_on_c, 1, 61, 67
3, 201020, Note_off_c, 1, 57, 0
3, 201020, Note_off_c, 1, 61, 0
3, 201024, Note_on_c, 1, 57, 90
3, 201024, Note_on_c, 1, 61, 90
3, 201024, Note_on_c, 1, 52, 90
3, 201404, Note_off_c, 1, 57, 0
3, 201404, Note_off_c, 1, 61, 0
3, 201408, Note_on_c, 1, 56, 67
3, 201408, Note_on_c, 1, 59, 67
3, 201596, Note_off_c, 1, 52, 0
3, 201596, Note_off_c, 1, 56, 0
3, 201596, Note_off_c, 1, 59, 0
3, 201600, Note_on_c, 1, 57, 67
3, 201600, Note_on_c, 1, 45, 67
3, 201788, Note_off_c, 1, 57, 0
3, 201788, Note_off_c, 1, 45, 0
3, 202752, Note_on_c, 1, 52, 67
3, 202752, Note_on_c, 1, 40, 67
3, 202940, Note_off_c, 1, 52, 0
3, 202940, Note_off_c, 1, 40, 0
3, 203904, Note_on_c, 1, 57, 67
3, 203904, Note_on_c, 1, 45, 67
3, 204092, Note_off_c, 1, 57, 0
3, 204092, Note_off_c, 1, 45, 0
3, 204672, Note_on_c, 1, 54, 67
3, 204672, Note_on_c, 1, 42, 67
3, 204860, Note_off_c, 1, 54, 0
3, 204860, Note_off_c, 1, 42, 0
3, 204864, Note_on_c, 1, 50, 67
3, 204864, Note_on_c, 1, 38, 67
3, 205052, Note_off_c, 1, 50, 0
3, 205052, Note_off_c, 1, 38, 0
3, 205056, Note_on_c, 1, 52, 67
3, 205056, Note_on_c, 1, 40, 67
3, 205244, Note_off_c, 1, 52, 0
3, 205244, Note_off_c, 1, 40, 0
3, 206208, Note_on_c, 1, 57, 90
3, 206208, Note_on_c, 1, 45, 90
3, 206396, Note_off_c, 1, 57, 0
3, 206396, Note_off_c, 1, 45, 0
3, 206976, Note_on_c, 1, 57, 90
3, 206976, Note_on_c, 1, 45, 90
3, 207164, Note_off_c, 1, 57, 0
3, 207164, Note_off_c, 1, 45, 0
3, 207168, Note_on_c, 1, 50, 90
3, 207168, Note_on_c, 1, 38, 90
3, 207356, Note_off_c, 1, 50, 0
3, 207356, Note_off_c, 1, 38, 0
3, 207360, Note_on_c, 1, 52, 90
3, 207360, Note_on_c, 1, 40, 90
3, 207548, Note_off_c, 1, 52, 0
3, 207548, Note_off_c, 1, 40, 0
3, 208128, Note_on_c, 1, 57, 90
3, 208316, Note_off_c, 1, 57, 0
3, 208320, Note_on_c, 1, 45, 90
3, 208508, Note_off_c, 1, 45, 0
3, 208512, Note_on_c, 1, 57, 67
3, 208556, Note_off_c, 1, 57, 0
3, 208560, Note_on_c, 1, 64, 67
3, 208604, Note_off_c, 1, 64, 0
3, 208608, Note_on_c, 1, 61, 67
3, 208652, Note_off_c, 1, 61, 0
3, 208656, Note_on_c, 1, 64, 67
3, 208700, Note_off_c, 1, 64, 0
3, 208704, Note_on_c, 1, 57, 67
3, 208748, Note_off_c, 1, 57, 0
3, 208752, Note_on_c, 1, 64, 67
3, 208796, Note_off_c, 1, 64, 0
3, 208800, Note_on_c, 1, 61, 67
3, 208844, Note_off_c, 1, 61, 0
3, 208848, Note_on_c, 1, 64, 67
3, 208892, Note_off_c, 1, 64, 0
3, 208896, Note_on_c, 1, 57, 67
3, 208940, Note_off_c, 1, 57, 0
3, 208944, Note_on_c, 1, 64, 67
3, 208988, Note_off_c, 1, 64, 0
3, 208992, Note_on_c, 1, 59, 67
3, 209036, Note_off_c, 1, 59, 0
3, 209040, Note_on_c, 1, 64, 67
3, 209084, Note_off_c, 1, 64, 0
3, 209088, Note_on_c, 1, 61, 67
3, 209132, Note_off_c, 1, 61, 0
3, 209136, Note_on_c, 1, 64, 67
3, 209180, Note_off_c, 1, 64, 0
3, 209184, Note_on_c, 1, 57, 67
3, 209228, Note_off_c, 1, 57, 0
3, 209232, Note_on_c, 1, 64, 67
3, 209276, Note_off_c, 1, 64, 0
3, 209280, Note_on_c, 1, 61, 67
3, 209324, Note_off_c, 1, 61, 0
3, 209328, Note_on_c, 1, 64, 67
3, 209372, Note_off_c, 1, 64, 0
3, 209376, Note_on_c, 1, 57, 67
3, 209420, Note_off_c, 1, 57, 0
3, 209424, Note_on_c, 1, 64, 67
3, 209468, Note_off_c, 1, 64, 0
3, 209472, Note_on_c, 1, 61, 67
3, 209516, Note_off_c, 1, 61, 0
3, 209520, Note_on_c, 1, 64, 67
3, 209564, Note_off_c, 1, 64, 0
3, 209568, Note_on_c, 1, 57, 67
3, 209612, Note_off_c, 1, 57, 0
3, 209616, Note_on_c, 1, 64, 67
3, 209660, Note_off_c, 1, 64, 0
3, 209664, Note_on_c, 1, 56, 67
3, 209708, Note_off_c, 1, 56, 0
3, 209712, Note_on_c, 1, 64, 67
3, 209756, Note_off_c, 1, 64, 0
3, 209760, Note_on_c, 1, 63, 67
3, 209804, Note_off_c, 1, 63, 0
3, 209808, Note_on_c, 1, 64, 67
3, 209852, Note_off_c, 1, 64, 0
3, 209856, Note_on_c, 1, 56, 67
3, 209900, Note_off_c, 1, 56, 0
3, 209904, Note_on_c, 1, 64, 67
3, 209948, Note_off_c, 1, 64, 0
3, 209952, Note_on_c, 1, 63, 67
3, 209996, Note_off_c, 1, 63, 0
3, 210000, Note_on_c, 1, 64, 67
3, 210044, Note_off_c, 1, 64, 0
3, 210048, Note_on_c, 1, 56, 67
3, 210092, Note_off_c, 1, 56, 0
3, 210096, Note_on_c, 1, 64, 67
3, 210140, Note_off_c, 1, 64, 0
3, 210144, Note_on_c, 1, 57, 67
3, 210188, Note_off_c, 1, 57, 0
3, 210192, Note_on_c, 1, 64, 67
3, 210236, Note_off_c, 1, 64, 0
3, 210240, Note_on_c, 1, 58, 67
3, 210284, Note_off_c, 1, 58, 0
3, 210288, Note_on_c, 1, 64, 67
3, 210332, Note_off_c, 1, 64, 0
3, 210336, Note_on_c, 1, 63, 67
3, 210380, Note_off_c, 1, 63, 0
3, 210384, Note_on_c, 1, 64, 67
3, 210428, Note_off_c, 1, 64, 0
3, 210432, Note_on_c, 1, 59, 67
3, 210476, Note_off_c, 1, 59, 0
3, 210480, Note_on_c, 1, 64, 67
3, 210524, Note_off_c, 1, 64, 0
3, 210528, Note_on_c, 1, 63, 67
3, 210572, Note_off_c, 1, 63, 0
3, 210576, Note_on_c, 1, 64, 67
3, 210620, Note_off_c, 1, 64, 0
3, 210624, Note_on_c, 1, 56, 67
3, 210668, Note_off_c, 1, 56, 0
3, 210672, Note_on_c, 1, 64, 67
3, 210716, Note_off_c, 1, 64, 0
3, 210720, Note_on_c, 1, 52, 67
3, 210764, Note_off_c, 1, 52, 0
3, 210768, Note_on_c, 1, 64, 67
3, 210812, Note_off_c, 1, 64, 0
3, 210816, Note_on_c, 1, 54, 67
3, 210860, Note_off_c, 1, 54, 0
3, 210864, Note_on_c, 1, 64, 67
3, 210908, Note_off_c, 1, 64, 0
3, 210912, Note_on_c, 1, 63, 67
3, 210956, Note_off_c, 1, 63, 0
3, 210960, Note_on_c, 1, 64, 67
3, 211004, Note_off_c, 1, 64, 0
3, 211008, Note_on_c, 1, 54, 67
3, 211196, Note_off_c, 1, 54, 0
3, 211392, Note_on_c, 1, 56, 67
3, 211436, Note_off_c, 1, 56, 0
3, 211440, Note_on_c, 1, 64, 67
3, 211484, Note_off_c, 1, 64, 0
3, 211488, Note_on_c, 1, 63, 67
3, 211532, Note_off_c, 1, 63, 0
3, 211536, Note_on_c, 1, 64, 67
3, 211580, Note_off_c, 1, 64, 0
3, 211584, Note_on_c, 1, 56, 67
3, 211772, Note_off_c, 1, 56, 0
3, 211968, Note_on_c, 1, 64, 67
3, 211968, Note_on_c, 1, 57, 67
3, 212156, Note_off_c, 1, 64, 0
3, 212156, Note_off_c, 1, 57, 0
3, 212160, Note_on_c, 1, 57, 67
3, 212160, Note_on_c, 1, 54, 67
3, 212348, Note_off_c, 1, 57, 0
3, 212348, Note_off_c, 1, 54, 0
3, 212352, Note_on_c, 1, 59, 67
3, 212352, Note_on_c, 1, 50, 67
3, 212540, Note_off_c, 1, 59, 0
3, 212540, Note_off_c, 1, 50, 0
3, 212544, Note_on_c, 1, 56, 67
3, 212544, Note_on_c, 1, 52, 67
3, 212732, Note_off_c, 1, 56, 0
3, 212732, Note_off_c, 1, 52, 0
3, 213120, Note_on_c, 1, 45, 90
3, 213120, Note_on_c, 1, 45, 90
3, 213164, Note_off_c, 1, 45, 0
3, 213168, Note_on_c, 1, 57, 83
3, 213212, Note_off_c, 1, 57, 0
3, 213216, Note_on_c, 1, 57, 83
3, 213260, Note_off_c, 1, 57, 0
3, 213264, Note_on_c, 1, 57, 67
3, 213308, Note_off_c, 1, 57, 0
3, 213312, Note_on_c, 1, 57, 67
3, 213356, Note_off_c, 1, 57, 0
3, 213360, Note_on_c, 1, 57, 67
3, 213404, Note_off_c, 1, 57, 0
3, 213408, Note_on_c, 1, 57, 67
3, 213452, Note_off_c, 1, 57, 0
3, 213456, Note_on_c, 1, 57, 67
3, 213500, Note_off_c, 1, 45, 0
3, 213500, Note_off_c, 1, 57, 0
3, 213504, Note_on_c, 1, 57, 67
3, 213548, Note_off_c, 1, 57, 0
3, 213552, Note_on_c, 1, 57, 67
3, 213596, Note_off_c, 1, 57, 0
3, 213600, Note_on_c, 1, 57, 67
3, 213644, Note_off_c, 1, 57, 0
3, 213648, Note_on_c, 1, 57, 67
3, 213692, Note_off_c, 1, 57, 0
3, 213696, Note_on_c, 1, 57, 67
3, 213884, Note_off_c, 1, 57, 0
3, 214272, Note_on_c, 1, 40, 90
3, 214272, Note_on_c, 1, 40, 90
3, 214316, Note_off_c, 1, 40, 0
3, 214320, Note_on_c, 1, 52, 83
3, 214364, Note_off_c, 1, 52, 0
3, 214368, Note_on_c, 1, 52, 83
3, 214412, Note_off_c, 1, 52, 0
3, 214416, Note_on_c, 1, 52, 83
3, 214460, Note_off_c, 1, 52, 0
3, 214464, Note_on_c, 1, 52, 67
3, 214508, Note_off_c, 1, 52, 0
3, 214512, Note_on_c, 1, 52, 67
3, 214556, Note_off_c, 1, 52, 0
3, 214560, Note_on_c, 1, 52, 67
3, 214604, Note_off_c, 1, 52, 0
3, 214608, Note_on_c, 1, 52, 67
3, 214652, Note_off_c, 1, 40, 0
3, 214652, Note_off_c, 1, 52, 0
3, 214656, Note_on_c, 1, 52, 67
3, 214700, Note_off_c, 1, 52, 0
3, 214704, Note_on_c, 1, 52, 67
3, 214748, Note_off_c, 1, 52, 0
3, 214752, Note_on_c, 1, 52, 67
3, 214796, Note_off_c, 1, 52, 0
3, 214800, Note_on_c, 1, 52, 67
3, 214844, Note_off_c, 1, 52, 0
3, 214848, Note_on_c, 1, 52, 67
3, 215036, Note_off_c, 1, 52, 0
3, 215616, Note_on_c, 1, 64, 67
3, 215616, Note_on_c, 1, 54, 67
3, 215804, Note_off_c, 1, 64, 0
3, 215804, Note_off_c, 1, 54, 0
3, 215808, Note_on_c, 1, 64, 67
3, 215808, Note_on_c, 1, 56, 67
3, 215996, Note_off_c, 1, 64, 0
3, 215996, Note_off_c, 1, 56, 0
3, 216000, Note_on_c, 1, 64, 67
3, 216000, Note_on_c, 1, 57, 67
3, 216188, Note_off_c, 1, 64, 0
3, 216188, Note_off_c, 1, 57, 0
3, 216384, Note_on_c, 1, 59, 67
3, 216384, Note_on_c, 1, 54, 67
3, 216384, Note_on_c, 1, 50, 67
3, 216572, Note_off_c, 1, 59, 0
3, 216572, Note_off_c, 1, 54, 0
3, 216572, Note_off_c, 1, 50, 0
3, 216576, Note_on_c, 1, 61, 67
3, 216576, Note_on_c, 1, 57, 67
3, 216576, Note_on_c, 1, 52, 67
3, 216956, Note_off_c, 1, 61, 0
3, 216956, Note_off_c, 1, 57, 0
3, 216960, Note_on_c, 1, 59, 67
3, 216960, Note_on_c, 1, 62, 67
3, 217136, Note_on_c, 1, 57, 67
3, 217148, Note_off_c, 1, 52, 0
3, 217148, Note_off_c, 1, 59, 0
3, 217148, Note_off_c, 1, 62, 0
3, 217152, Note_on_c, 1, 62, 67
3, 217340, Note_off_c, 1, 62, 0
3, 217344, Note_on_c, 1, 61, 67
3, 217516, Note_off_c, 1, 57, 0
3, 217532, Note_off_c, 1, 61, 0
3, 217728, Note_on_c, 1, 57, 67
3, 217772, Note_off_c, 1, 57, 0
3, 217776, Note_on_c, 1, 64, 67
3, 217820, Note_off_c, 1, 64, 0
3, 217824, Note_on_c, 1, 61, 67
3, 217868, Note_off_c, 1, 61, 0
3, 217872, Note_on_c, 1, 64, 67
3, 217916, Note_off_c, 1, 64, 0
3, 217920, Note_on_c, 1, 57, 67
3, 217964, Note_off_c, 1, 57, 0
3, 217968, Note_on_c, 1, 64, 67
3, 218012, Note_off_c, 1, 64, 0
3, 218016, Note_on_c, 1, 61, 67
3, 218060, Note_off_c, 1, 61, 0
3, 218064, Note_on_c, 1, 64, 67
3, 218108, Note_off_c, 1, 64, 0
3, 218112, Note_on_c, 1, 57, 67
3, 218156, Note_off_c, 1, 57, 0
3, 218160, Note_on_c, 1, 64, 67
3, 218204, Note_off_c, 1, 64, 0
3, 218208, Note_on_c, 1, 59, 67
3, 218252, Note_off_c, 1, 59, 0
3, 218256, Note_on_c, 1, 64, 67
3, 218300, Note_off_c, 1, 64, 0
3, 218304, Note_on_c, 1, 61, 67
3, 218348, Note_off_c, 1, 61, 0
3, 218352, Note_on_c, 1, 64, 67
3, 218396, Note_off_c, 1, 64, 0
3, 218400, Note_on_c, 1, 57, 67
3, 218444, Note_off_c, 1, 57, 0
3, 218448, Note_on_c, 1, 64, 67
3, 218492, Note_off_c, 1, 64, 0
3, 218496, Note_on_c, 1, 61, 67
3, 218540, Note_off_c, 1, 61, 0
3, 218544, Note_on_c, 1, 64, 67
3, 218588, Note_off_c, 1, 64, 0
3, 218592, Note_on_c, 1, 57, 67
3, 218636, Note_off_c, 1, 57, 0
3, 218640, Note_on_c, 1, 64, 67
3, 218684, Note_off_c, 1, 64, 0
3, 218688, Note_on_c, 1, 61, 67
3, 218732, Note_off_c, 1, 61, 0
3, 218736, Note_on_c, 1, 64, 67
3, 218780, Note_off_c, 1, 64, 0
3, 218784, Note_on_c, 1, 57, 67
3, 218828, Note_off_c, 1, 57, 0
3, 218832, Note_on_c, 1, 64, 67
3, 218876, Note_off_c, 1, 64, 0
3, 218880, Note_on_c, 1, 56, 67
3, 218924, Note_off_c, 1, 56, 0
3, 218928, Note_on_c, 1, 64, 67
3, 218972, Note_off_c, 1, 64, 0
3, 218976, Note_on_c, 1, 63, 67
3, 219020, Note_off_c, 1, 63, 0
3, 219024, Note_on_c, 1, 64, 67
3, 219068, Note_off_c, 1, 64, 0
3, 219072, Note_on_c, 1, 56, 67
3, 219116, Note_off_c, 1, 56, 0
3, 219120, Note_on_c, 1, 64, 67
3, 219164, Note_off_c, 1, 64, 0
3, 219168, Note_on_c, 1, 63, 67
3, 219212, Note_off_c, 1, 63, 0
3, 219216, Note_on_c, 1, 64, 67
3, 219260, Note_off_c, 1, 64, 0
3, 219264, Note_on_c, 1, 56, 67
3, 219308, Note_off_c, 1, 56, 0
3, 219312, Note_on_c, 1, 64, 67
3, 219356, Note_off_c, 1, 64, 0
3, 219360, Note_on_c, 1, 57, 67
3, 219404, Note_off_c, 1, 57, 0
3, 219408, Note_on_c, 1, 64, 67
3, 219452, Note_off_c, 1, 64, 0
3, 219456, Note_on_c, 1, 58, 67
3, 219500, Note_off_c, 1, 58, 0
3, 219504, Note_on_c, 1, 64, 67
3, 219548, Note_off_c, 1, 64, 0
3, 219552, Note_on_c, 1, 63, 67
3, 219596, Note_off_c, 1, 63, 0
3, 219600, Note_on_c, 1, 64, 67
3, 219644, Note_off_c, 1, 64, 0
3, 219648, Note_on_c, 1, 59, 67
3, 219692, Note_off_c, 1, 59, 0
3, 219696, Note_on_c, 1, 64, 67
3, 219740, Note_off_c, 1, 64, 0
3, 219744, Note_on_c, 1, 63, 67
3, 219788, Note_off_c, 1, 63, 0
3, 219792, Note_on_c, 1, 64, 67
3, 219836, Note_off_c, 1, 64, 0
3, 219840, Note_on_c, 1, 56, 67
3, 219884, Note_off_c, 1, 56, 0
3, 219888, Note_on_c, 1, 64, 67
3, 219932, Note_off_c, 1, 64, 0
3, 219936, Note_on_c, 1, 52, 67
3, 219980, Note_off_c, 1, 52, 0
3, 219984, Note_on_c, 1, 64, 67
3, 220028, Note_off_c, 1, 64, 0
3, 220032, Note_on_c, 1, 54, 67
3, 220076, Note_off_c, 1, 54, 0
3, 220080, Note_on_c, 1, 64, 67
3, 220124, Note_off_c, 1, 64, 0
3, 220128, Note_on_c, 1, 63, 67
3, 220172, Note_off_c, 1, 63, 0
3, 220176, Note_on_c, 1, 64, 67
3, 220220, Note_off_c, 1, 64, 0
3, 220224, Note_on_c, 1, 54, 67
3, 220412, Note_off_c, 1, 54, 0
3, 220608, Note_on_c, 1, 56, 67
3, 220652, Note_off_c, 1, 56, 0
3, 220656, Note_on_c, 1, 64, 67
3, 220700, Note_off_c, 1, 64, 0
3, 220704, Note_on_c, 1, 63, 67
3, 220748, Note_off_c, 1, 63, 0
3, 220752, Note_on_c, 1, 64, 67
3, 220796, Note_off_c, 1, 64, 0
3, 220800, Note_on_c, 1, 56, 67
3, 220988, Note_off_c, 1, 56, 0
3, 221184, Note_on_c, 1, 64, 67
3, 221184, Note_on_c, 1, 57, 67
3, 221372, Note_off_c, 1, 64, 0
3, 221372, Note_off_c, 1, 57, 0
3, 221376, Note_on_c, 1, 57, 67
3, 221376, Note_on_c, 1, 54, 67
3, 221564, Note_off_c, 1, 57, 0
3, 221564, Note_off_c, 1, 54, 0
3, 221568, Note_on_c, 1, 59, 67
3, 221568, Note_on_c, 1, 50, 67
3, 221756, Note_off_c, 1, 59, 0
3, 221756, Note_off_c, 1, 50, 0
3, 221760, Note_on_c, 1, 56, 67
3, 221760, Note_on_c, 1, 52, 67
3, 221948, Note_off_c, 1, 56, 0
3, 221948, Note_off_c, 1, 52, 0
3, 222336, Note_on_c, 1, 45, 90
3, 222336, Note_on_c, 1, 45, 90
3, 222380, Note_off_c, 1, 45, 0
3, 222384, Note_on_c, 1, 57, 83
3, 222428, Note_off_c, 1, 57, 0
3, 222432, Note_on_c, 1, 57, 83
3, 222476, Note_off_c, 1, 57, 0
3, 222480, Note_on_c, 1, 57, 83
3, 222524, Note_off_c, 1, 57, 0
3, 222528, Note_on_c, 1, 57, 67
3, 222572, Note_off_c, 1, 57, 0
3, 222576, Note_on_c, 1, 57, 67
3, 222620, Note_off_c, 1, 57, 0
3, 222624, Note_on_c, 1, 57, 67
3, 222668, Note_off_c, 1, 57, 0
3, 222672, Note_on_c, 1, 57, 67
3, 222716, Note_off_c, 1, 45, 0
3, 222716, Note_off_c, 1, 57, 0
3, 222720, Note_on_c, 1, 57, 67
3, 222764, Note_off_c, 1, 57, 0
3, 222768, Note_on_c, 1, 57, 67
3, 222812, Note_off_c, 1, 57, 0
3, 222816, Note_on_c, 1, 57, 67
3, 222860, Note_off_c, 1, 57, 0
3, 222864, Note_on_c, 1, 57, 67
3, 222908, Note_off_c, 1, 57, 0
3, 222912, Note_on_c, 1, 57, 67
3, 223100, Note_off_c, 1, 57, 0
3, 223488, Note_on_c, 1, 40, 90
3, 223488, Note_on_c, 1, 40, 90
3, 223532, Note_off_c, 1, 40, 0
3, 223536, Note_on_c, 1, 52, 83
3, 223580, Note_off_c, 1, 52, 0
3, 223584, Note_on_c, 1, 52, 83
3, 223628, Note_off_c, 1, 52, 0
3, 223632, Note_on_c, 1, 52, 83
3, 223676, Note_off_c, 1, 52, 0
3, 223680, Note_on_c, 1, 52, 67
3, 223724, Note_off_c, 1, 52, 0
3, 223728, Note_on_c, 1, 52, 67
3, 223772, Note_off_c, 1, 52, 0
3, 223776, Note_on_c, 1, 52, 67
3, 223820, Note_off_c, 1, 52, 0
3, 223824, Note_on_c, 1, 52, 67
3, 223868, Note_off_c, 1, 40, 0
3, 223868, Note_off_c, 1, 52, 0
3, 223872, Note_on_c, 1, 52, 67
3, 223916, Note_off_c, 1, 52, 0
3, 223920, Note_on_c, 1, 52, 67
3, 223964, Note_off_c, 1, 52, 0
3, 223968, Note_on_c, 1, 52, 67
3, 224012, Note_off_c, 1, 52, 0
3, 224016, Note_on_c, 1, 52, 67
3, 224060, Note_off_c, 1, 52, 0
3, 224064, Note_on_c, 1, 52, 67
3, 224252, Note_off_c, 1, 52, 0
3, 224832, Note_on_c, 1, 64, 67
3, 224832, Note_on_c, 1, 54, 67
3, 225020, Note_off_c, 1, 64, 0
3, 225020, Note_off_c, 1, 54, 0
3, 225024, Note_on_c, 1, 64, 67
3, 225024, Note_on_c, 1, 56, 67
3, 225212, Note_off_c, 1, 64, 0
3, 225212, Note_off_c, 1, 56, 0
3, 225216, Note_on_c, 1, 64, 67
3, 225216, Note_on_c, 1, 57, 67
3, 225404, Note_off_c, 1, 64, 0
3, 225404, Note_off_c, 1, 57, 0
3, 225600, Note_on_c, 1, 59, 67
3, 225600, Note_on_c, 1, 54, 67
3, 225600, Note_on_c, 1, 50, 67
3, 225788, Note_off_c, 1, 59, 0
3, 225788, Note_off_c, 1, 54, 0
3, 225788, Note_off_c, 1, 50, 0
3, 225792, Note_on_c, 1, 61, 67
3, 225792, Note_on_c, 1, 57, 67
3, 225792, Note_on_c, 1, 52, 67
3, 226172, Note_off_c, 1, 61, 0
3, 226172, Note_off_c, 1, 57, 0
3, 226176, Note_on_c, 1, 59, 67
3, 226176, Note_on_c, 1, 62, 67
3, 226352, Note_on_c, 1, 57, 67
3, 226364, Note_off_c, 1, 52, 0
3, 226364, Note_off_c, 1, 59, 0
3, 226364, Note_off_c, 1, 62, 0
3, 226368, Note_on_c, 1, 62, 67
3, 226556, Note_off_c, 1, 62, 0
3, 226560, Note_on_c, 1, 61, 67
3, 226732, Note_off_c, 1, 57, 0
3, 226748, Note_off_c, 1, 61, 0
3, 227712, Note_on_c, 1, 54, 67
3, 227756, Note_off_c, 1, 54, 0
3, 227760, Note_on_c, 1, 62, 67
3, 227804, Note_off_c, 1, 62, 0
3, 227808, Note_on_c, 1, 57, 67
3, 227852, Note_off_c, 1, 57, 0
3, 227856, Note_on_c, 1, 62, 67
3, 227900, Note_off_c, 1, 62, 0
3, 227904, Note_on_c, 1, 50, 90
3, 227948, Note_off_c, 1, 50, 0
3, 227952, Note_on_c, 1, 57, 90
3, 227996, Note_off_c, 1, 57, 0
3, 228000, Note_on_c, 1, 54, 90
3, 228044, Note_off_c, 1, 54, 0
3, 228048, Note_on_c, 1, 57, 90
3, 228092, Note_off_c, 1, 57, 0
3, 228096, Note_on_c, 1, 45, 90
3, 228140, Note_off_c, 1, 45, 0
3, 228144, Note_on_c, 1, 54, 90
3, 228188, Note_off_c, 1, 54, 0
3, 228192, Note_on_c, 1, 50, 90
3, 228236, Note_off_c, 1, 50, 0
3, 228240, Note_on_c, 1, 54, 90
3, 228284, Note_off_c, 1, 54, 0
3, 228288, Note_on_c, 1, 45, 90
3, 228332, Note_off_c, 1, 45, 0
3, 228336, Note_on_c, 1, 54, 90
3, 228380, Note_off_c, 1, 54, 0
3, 228384, Note_on_c, 1, 50, 90
3, 228428, Note_off_c, 1, 50, 0
3, 228432, Note_on_c, 1, 54, 90
3, 228476, Note_off_c, 1, 54, 0
3, 228480, Note_on_c, 1, 45, 90
3, 228524, Note_off_c, 1, 45, 0
3, 228528, Note_on_c, 1, 54, 90
3, 228572, Note_off_c, 1, 54, 0
3, 228576, Note_on_c, 1, 50, 90
3, 228620, Note_off_c, 1, 50, 0
3, 228624, Note_on_c, 1, 54, 90
3, 228668, Note_off_c, 1, 54, 0
3, 228672, Note_on_c, 1, 45, 90
3, 228672, Note_on_c, 1, 50, 90
3, 228860, Note_off_c, 1, 45, 0
3, 228860, Note_off_c, 1, 50, 0
3, 228864, Note_on_c, 1, 45, 90
3, 228864, Note_on_c, 1, 49, 90
3, 229052, Note_off_c, 1, 45, 0
3, 229052, Note_off_c, 1, 49, 0
3, 229248, Note_on_c, 1, 64, 67
3, 229248, Note_on_c, 1, 61, 67
3, 229248, Note_on_c, 1, 57, 67
3, 229820, Note_off_c, 1, 64, 0
3, 229820, Note_off_c, 1, 61, 0
3, 229820, Note_off_c, 1, 57, 0
3, 229824, Note_on_c, 1, 64, 67
3, 229824, Note_on_c, 1, 62, 67
3, 229824, Note_on_c, 1, 59, 67
3, 230396, Note_off_c, 1, 64, 0
3, 230396, Note_off_c, 1, 62, 0
3, 230396, Note_off_c, 1, 59, 0
3, 230400, Note_on_c, 1, 64, 90
3, 230400, Note_on_c, 1, 61, 90
3, 230400, Note_on_c, 1, 57, 90
3, 230588, Note_off_c, 1, 64, 0
3, 230588, Note_off_c, 1, 61, 0
3, 230588, Note_off_c, 1, 57, 0
3, 230592, Note_on_c, 1, 59, 67
3, 230592, Note_on_c, 1, 56, 67
3, 230592, Note_on_c, 1, 64, 67
3, 230780, Note_off_c, 1, 59, 0
3, 230780, Note_off_c, 1, 56, 0
3, 230780, Note_off_c, 1, 64, 0
3, 230784, Note_on_c, 1, 57, 67
3, 230784, Note_on_c, 1, 61, 67
3, 230784, Note_on_c, 1, 64, 67
3, 230972, Note_off_c, 1, 57, 0
3, 230972, Note_off_c, 1, 61, 0
3, 230972, Note_off_c, 1, 64, 0
3, 230976, Note_on_c, 1, 57, 67
3, 230976, Note_on_c, 1, 61, 67
3, 230976, Note_on_c, 1, 52, 67
3, 231164, Note_off_c, 1, 57, 0
3, 231164, Note_off_c, 1, 61, 0
3, 231168, Note_on_c, 1, 59, 67
3, 231168, Note_on_c, 1, 56, 67
3, 231356, Note_off_c, 1, 52, 0
3, 231356, Note_off_c, 1, 59, 0
3, 231356, Note_off_c, 1, 56, 0
3, 231552, Note_on_c, 1, 57, 67
3, 231552, Note_on_c, 1, 57, 67
3, 231596, Note_off_c, 1, 57, 0
3, 231600, Note_on_c, 1, 64, 67
3, 231644, Note_off_c, 1, 64, 0
3, 231648, Note_on_c, 1, 61, 67
3, 231692, Note_off_c, 1, 61, 0
3, 231696, Note_on_c, 1, 64, 67
3, 231740, Note_off_c, 1, 64, 0
3, 231744, Note_on_c, 1, 57, 67
3, 231788, Note_off_c, 1, 57, 0
3, 231792, Note_on_c, 1, 64, 67
3, 231836, Note_off_c, 1, 64, 0
3, 231840, Note_on_c, 1, 61, 67
3, 231884, Note_off_c, 1, 61, 0
3, 231888, Note_on_c, 1, 64, 67
3, 231932, Note_off_c, 1, 64, 0
3, 231936, Note_on_c, 1, 57, 67
3, 231980, Note_off_c, 1, 57, 0
3, 231984, Note_on_c, 1, 64, 67
3, 232028, Note_off_c, 1, 64, 0
3, 232032, Note_on_c, 1, 59, 67
3, 232076, Note_off_c, 1, 59, 0
3, 232080, Note_on_c, 1, 64, 67
3, 232124, Note_off_c, 1, 57, 0
3, 232124, Note_off_c, 1, 64, 0
3, 232128, Note_on_c, 1, 61, 67
3, 232172, Note_off_c, 1, 61, 0
3, 232176, Note_on_c, 1, 64, 67
3, 232220, Note_off_c, 1, 64, 0
3, 232224, Note_on_c, 1, 57, 67
3, 232268, Note_off_c, 1, 57, 0
3, 232272, Note_on_c, 1, 64, 67
3, 232316, Note_off_c, 1, 64, 0
3, 232320, Note_on_c, 1, 61, 67
3, 232364, Note_off_c, 1, 61, 0
3, 232368, Note_on_c, 1, 64, 67
3, 232412, Note_off_c, 1, 64, 0
3, 232416, Note_on_c, 1, 57, 67
3, 232460, Note_off_c, 1, 57, 0
3, 232464, Note_on_c, 1, 64, 67
3, 232508, Note_off_c, 1, 64, 0
3, 232512, Note_on_c, 1, 61, 67
3, 232556, Note_off_c, 1, 61, 0
3, 232576, Note_on_c, 1, 64, 67
3, 232608, Note_on_c, 1, 57, 67
3, 232620, Note_off_c, 1, 64, 0
3, 232652, Note_off_c, 1, 57, 0
3, 232656, Note_on_c, 1, 64, 67
3, 232700, Note_off_c, 1, 64, 0
3, 232704, Note_on_c, 1, 56, 67
3, 232704, Note_on_c, 1, 56, 67
3, 232748, Note_off_c, 1, 56, 0
3, 232752, Note_on_c, 1, 64, 67
3, 232796, Note_off_c, 1, 64, 0
3, 232800, Note_on_c, 1, 62, 67
3, 232844, Note_off_c, 1, 62, 0
3, 232848, Note_on_c, 1, 64, 67
3, 232892, Note_off_c, 1, 64, 0
3, 232896, Note_on_c, 1, 56, 67
3, 232940, Note_off_c, 1, 56, 0
3, 232944, Note_on_c, 1, 64, 67
3, 232988, Note_off_c, 1, 64, 0
3, 232992, Note_on_c, 1, 62, 67
3, 233036, Note_off_c, 1, 62, 0
3, 233040, Note_on_c, 1, 64, 67
3, 233084, Note_off_c, 1, 64, 0
3, 233088, Note_on_c, 1, 56, 67
3, 233132, Note_off_c, 1, 56, 0
3, 233136, Note_on_c, 1, 64, 67
3, 233180, Note_off_c, 1, 64, 0
3, 233184, Note_on_c, 1, 57, 67
3, 233228, Note_off_c, 1, 57, 0
3, 233232, Note_on_c, 1, 64, 67
3, 233276, Note_off_c, 1, 56, 0
3, 233276, Note_off_c, 1, 64, 0
3, 233280, Note_on_c, 1, 59, 67
3, 233324, Note_off_c, 1, 59, 0
3, 233328, Note_on_c, 1, 64, 67
3, 233372, Note_off_c, 1, 64, 0
3, 233376, Note_on_c, 1, 63, 67
3, 233420, Note_off_c, 1, 63, 0
3, 233424, Note_on_c, 1, 64, 67
3, 233468, Note_off_c, 1, 64, 0
3, 233472, Note_on_c, 1, 56, 67
3, 233516, Note_off_c, 1, 56, 0
3, 233520, Note_on_c, 1, 64, 67
3, 233564, Note_off_c, 1, 64, 0
3, 233568, Note_on_c, 1, 59, 67
3, 233612, Note_off_c, 1, 59, 0
3, 233616, Note_on_c, 1, 64, 67
3, 233660, Note_off_c, 1, 64, 0
3, 233664, Note_on_c, 1, 52, 67
3, 233708, Note_off_c, 1, 52, 0
3, 233712, Note_on_c, 1, 64, 67
3, 233756, Note_off_c, 1, 64, 0
3, 233760, Note_on_c, 1, 56, 67
3, 233804, Note_off_c, 1, 56, 0
3, 233808, Note_on_c, 1, 64, 67
3, 233852, Note_off_c, 1, 64, 0
3, 233856, Note_on_c, 1, 54, 67
3, 233900, Note_off_c, 1, 54, 0
3, 233904, Note_on_c, 1, 64, 67
3, 233948, Note_off_c, 1, 64, 0
3, 233952, Note_on_c, 1, 63, 67
3, 233996, Note_off_c, 1, 63, 0
3, 234000, Note_on_c, 1, 64, 67
3, 234044, Note_off_c, 1, 64, 0
3, 234048, Note_on_c, 1, 54, 67
3, 234092, Note_off_c, 1, 54, 0
3, 234096, Note_on_c, 1, 64, 67
3, 234140, Note_off_c, 1, 64, 0
3, 234144, Note_on_c, 1, 63, 67
3, 234188, Note_off_c, 1, 63, 0
3, 234192, Note_on_c, 1, 64, 67
3, 234236, Note_off_c, 1, 64, 0
3, 234240, Note_on_c, 1, 56, 67
3, 234284, Note_off_c, 1, 56, 0
3, 234288, Note_on_c, 1, 64, 67
3, 234332, Note_off_c, 1, 64, 0
3, 234336, Note_on_c, 1, 63, 67
3, 234380, Note_off_c, 1, 63, 0
3, 234384, Note_on_c, 1, 64, 67
3, 234428, Note_off_c, 1, 64, 0
3, 234432, Note_on_c, 1, 57, 67
3, 234620, Note_off_c, 1, 57, 0
3, 234816, Note_on_c, 1, 59, 81
3, 234816, Note_on_c, 1, 54, 81
3, 234816, Note_on_c, 1, 50, 81
3, 235004, Note_off_c, 1, 59, 0
3, 235004, Note_off_c, 1, 54, 0
3, 235004, Note_off_c, 1, 50, 0
3, 235008, Note_on_c, 1, 62, 90
3, 235008, Note_on_c, 1, 59, 90
3, 235008, Note_on_c, 1, 52, 90
3, 235388, Note_off_c, 1, 62, 0
3, 235388, Note_off_c, 1, 59, 0
3, 235392, Note_on_c, 1, 59, 90
3, 235392, Note_on_c, 1, 62, 90
3, 235580, Note_off_c, 1, 52, 0
3, 235580, Note_off_c, 1, 59, 0
3, 235580, Note_off_c, 1, 62, 0
3, 235584, Note_on_c, 1, 61, 67
3, 235584, Note_on_c, 1, 64, 67
3, 235584, Note_on_c, 1, 57, 67
3, 235964, Note_off_c, 1, 61, 0
3, 235968, Note_on_c, 1, 61, 67
3, 236156, Note_off_c, 1, 64, 0
3, 236156, Note_off_c, 1, 57, 0
3, 236156, Note_off_c, 1, 61, 0
3, 236160, Note_on_c, 1, 45, 90
3, 236160, Note_on_c, 1, 45, 90
3, 236204, Note_off_c, 1, 45, 0
3, 236208, Note_on_c, 1, 49, 90
3, 236252, Note_off_c, 1, 49, 0
3, 236256, Note_on_c, 1, 52, 90
3, 236300, Note_off_c, 1, 52, 0
3, 236304, Note_on_c, 1, 57, 90
3, 236348, Note_off_c, 1, 57, 0
3, 236352, Note_on_c, 1, 45, 90
3, 236396, Note_off_c, 1, 45, 0
3, 236400, Note_on_c, 1, 49, 90
3, 236444, Note_off_c, 1, 49, 0
3, 236448, Note_on_c, 1, 52, 90
3, 236492, Note_off_c, 1, 52, 0
3, 236496, Note_on_c, 1, 57, 90
3, 236540, Note_off_c, 1, 57, 0
3, 236544, Note_on_c, 1, 47, 90
3, 236588, Note_off_c, 1, 47, 0
3, 236592, Note_on_c, 1, 50, 90
3, 236636, Note_off_c, 1, 50, 0
3, 236640, Note_on_c, 1, 56, 90
3, 236684, Note_off_c, 1, 56, 0
3, 236688, Note_on_c, 1, 59, 90
3, 236732, Note_off_c, 1, 45, 0
3, 236732, Note_off_c, 1, 59, 0
3, 236736, Note_on_c, 1, 57, 90
3, 236736, Note_on_c, 1, 49, 90
3, 237116, Note_off_c, 1, 57, 0
3, 237116, Note_off_c, 1, 49, 0
3, 237120, Note_on_c, 1, 57, 90
3, 237120, Note_on_c, 1, 50, 90
3, 237308, Note_off_c, 1, 57, 0
3, 237308, Note_off_c, 1, 50, 0
3, 237312, Note_on_c, 1, 61, 67
3, 237312, Note_on_c, 1, 52, 67
3, 237500, Note_off_c, 1, 61, 0
3, 237500, Note_off_c, 1, 52, 0
3, 237504, Note_on_c, 1, 61, 67
3, 237504, Note_on_c, 1, 52, 67
3, 237692, Note_off_c, 1, 61, 0
3, 237692, Note_off_c, 1, 52, 0
3, 237696, Note_on_c, 1, 62, 67
3, 237696, Note_on_c, 1, 56, 67
3, 237696, Note_on_c, 1, 52, 67
3, 237884, Note_off_c, 1, 62, 0
3, 237884, Note_off_c, 1, 56, 0
3, 237884, Note_off_c, 1, 52, 0
3, 237888, Note_on_c, 1, 57, 67
3, 237904, Note_on_c, 1, 62, 67
3, 238080, Note_on_c, 1, 61, 67
3, 238092, Note_off_c, 1, 62, 0
3, 238268, Note_off_c, 1, 57, 0
3, 238268, Note_off_c, 1, 61, 0
3, 239232, Note_on_c, 1, 54, 67
3, 239276, Note_off_c, 1, 54, 0
3, 239280, Note_on_c, 1, 62, 67
3, 239324, Note_off_c, 1, 62, 0
3, 239328, Note_on_c, 1, 57, 67
3, 239372, Note_off_c, 1, 57, 0
3, 239376, Note_on_c, 1, 62, 67
3, 239420, Note_off_c, 1, 62, 0
3, 239424, Note_on_c, 1, 50, 90
3, 239468, Note_off_c, 1, 50, 0
3, 239472, Note_on_c, 1, 57, 90
3, 239516, Note_off_c, 1, 57, 0
3, 239520, Note_on_c, 1, 54, 90
3, 239564, Note_off_c, 1, 54, 0
3, 239568, Note_on_c, 1, 57, 90
3, 239612, Note_off_c, 1, 57, 0
3, 239616, Note_on_c, 1, 45, 90
3, 239660, Note_off_c, 1, 45, 0
3, 239664, Note_on_c, 1, 54, 90
3, 239708, Note_off_c, 1, 54, 0
3, 239712, Note_on_c, 1, 50, 90
3, 239756, Note_off_c, 1, 50, 0
3, 239760, Note_on_c, 1, 54, 90
3, 239804, Note_off_c, 1, 54, 0
3, 239808, Note_on_c, 1, 45, 90
3, 239852, Note_off_c, 1, 45, 0
3, 239856, Note_on_c, 1, 54, 90
3, 239900, Note_off_c, 1, 54, 0
3, 239904, Note_on_c, 1, 50, 90
3, 239948, Note_off_c, 1, 50, 0
3, 239952, Note_on_c, 1, 54, 90
3, 239996, Note_off_c, 1, 54, 0
3, 240000, Note_on_c, 1, 45, 90
3, 240044, Note_off_c, 1, 45, 0
3, 240048, Note_on_c, 1, 54, 90
3, 240092, Note_off_c, 1, 54, 0
3, 240096, Note_on_c, 1, 50, 90
3, 240140, Note_off_c, 1, 50, 0
3, 240144, Note_on_c, 1, 54, 90
3, 240188, Note_off_c, 1, 54, 0
3, 240192, Note_on_c, 1, 45, 90
3, 240192, Note_on_c, 1, 50, 90
3, 240380, Note_off_c, 1, 45, 0
3, 240380, Note_off_c, 1, 50, 0
3, 240384, Note_on_c, 1, 45, 90
3, 240384, Note_on_c, 1, 49, 90
3, 240572, Note_off_c, 1, 45, 0
3, 240572, Note_off_c, 1, 49, 0
3, 240768, Note_on_c, 1, 64, 67
3, 240768, Note_on_c, 1, 61, 67
3, 240768, Note_on_c, 1, 57, 67
3, 241340, Note_off_c, 1, 64, 0
3, 241340, Note_off_c, 1, 61, 0
3, 241340, Note_off_c, 1, 57, 0
3, 241344, Note_on_c, 1, 64, 67
3, 241344, Note_on_c, 1, 62, 67
3, 241344, Note_on_c, 1, 59, 67
3, 241916, Note_off_c, 1, 64, 0
3, 241916, Note_off_c, 1, 62, 0
3, 241916, Note_off_c, 1, 59, 0
3, 241920, Note_on_c, 1, 64, 90
3, 241920, Note_on_c, 1, 61, 90
3, 241920, Note_on_c, 1, 57, 90
3, 242108, Note_off_c, 1, 64, 0
3, 242108, Note_off_c, 1, 61, 0
3, 242108, Note_off_c, 1, 57, 0
3, 242112, Note_on_c, 1, 59, 67
3, 242112, Note_on_c, 1, 56, 67
3, 242112, Note_on_c, 1, 64, 67
3, 242300, Note_off_c, 1, 59, 0
3, 242300, Note_off_c, 1, 56, 0
3, 242300, Note_off_c, 1, 64, 0
3, 242304, Note_on_c, 1, 57, 67
3, 242304, Note_on_c, 1, 61, 67
3, 242304, Note_on_c, 1, 64, 67
3, 242492, Note_off_c, 1, 57, 0
3, 242492, Note_off_c, 1, 61, 0
3, 242492, Note_off_c, 1, 64, 0
3, 242496, Note_on_c, 1, 57, 67
3, 242496, Note_on_c, 1, 61, 67
3, 242496, Note_on_c, 1, 52, 67
3, 242684, Note_off_c, 1, 57, 0
3, 242684, Note_off_c, 1, 61, 0
3, 242688, Note_on_c, 1, 59, 67
3, 242688, Note_on_c, 1, 56, 67
3, 242876, Note_off_c, 1, 52, 0
3, 242876, Note_off_c, 1, 59, 0
3, 242876, Note_off_c, 1, 56, 0
3, 243072, Note_on_c, 1, 57, 67
3, 243072, Note_on_c, 1, 57, 67
3, 243116, Note_off_c, 1, 57, 0
3, 243120, Note_on_c, 1, 64, 67
3, 243164, Note_off_c, 1, 64, 0
3, 243168, Note_on_c, 1, 61, 67
3, 243212, Note_off_c, 1, 61, 0
3, 243216, Note_on_c, 1, 64, 67
3, 243260, Note_off_c, 1, 64, 0
3, 243264, Note_on_c, 1, 57, 67
3, 243308, Note_off_c, 1, 57, 0
3, 243312, Note_on_c, 1, 64, 67
3, 243356, Note_off_c, 1, 64, 0
3, 243360, Note_on_c, 1, 61, 67
3, 243404, Note_off_c, 1, 61, 0
3, 243408, Note_on_c, 1, 64, 67
3, 243452, Note_off_c, 1, 64, 0
3, 243456, Note_on_c, 1, 57, 67
3, 243500, Note_off_c, 1, 57, 0
3, 243504, Note_on_c, 1, 64, 67
3, 243548, Note_off_c, 1, 64, 0
3, 243552, Note_on_c, 1, 59, 67
3, 243596, Note_off_c, 1, 59, 0
3, 243600, Note_on_c, 1, 64, 67
3, 243644, Note_off_c, 1, 57, 0
3, 243644, Note_off_c, 1, 64, 0
3, 243648, Note_on_c, 1, 61, 67
3, 243692, Note_off_c, 1, 61, 0
3, 243696, Note_on_c, 1, 64, 67
3, 243740, Note_off_c, 1, 64, 0
3, 243744, Note_on_c, 1, 57, 67
3, 243788, Note_off_c, 1, 57, 0
3, 243792, Note_on_c, 1, 64, 67
3, 243836, Note_off_c, 1, 64, 0
3, 243840, Note_on_c, 1, 61, 67
3, 243884, Note_off_c, 1, 61, 0
3, 243888, Note_on_c, 1, 64, 67
3, 243932, Note_off_c, 1, 64, 0
3, 243936, Note_on_c, 1, 57, 67
3, 243980, Note_off_c, 1, 57, 0
3, 243984, Note_on_c, 1, 64, 67
3, 244028, Note_off_c, 1, 64, 0
3, 244032, Note_on_c, 1, 61, 67
3, 244076, Note_off_c, 1, 61, 0
3, 244096, Note_on_c, 1, 64, 67
3, 244128, Note_on_c, 1, 57, 67
3, 244140, Note_off_c, 1, 64, 0
3, 244172, Note_off_c, 1, 57, 0
3, 244176, Note_on_c, 1, 64, 67
3, 244220, Note_off_c, 1, 64, 0
3, 244224, Note_on_c, 1, 56, 67
3, 244224, Note_on_c, 1, 56, 67
3, 244268, Note_off_c, 1, 56, 0
3, 244272, Note_on_c, 1, 64, 67
3, 244316, Note_off_c, 1, 64, 0
3, 244320, Note_on_c, 1, 62, 67
3, 244364, Note_off_c, 1, 62, 0
3, 244368, Note_on_c, 1, 64, 67
3, 244412, Note_off_c, 1, 64, 0
3, 244416, Note_on_c, 1, 56, 67
3, 244460, Note_off_c, 1, 56, 0
3, 244464, Note_on_c, 1, 64, 67
3, 244508, Note_off_c, 1, 64, 0
3, 244512, Note_on_c, 1, 62, 67
3, 244556, Note_off_c, 1, 62, 0
3, 244560, Note_on_c, 1, 64, 67
3, 244604, Note_off_c, 1, 64, 0
3, 244608, Note_on_c, 1, 56, 67
3, 244652, Note_off_c, 1, 56, 0
3, 244656, Note_on_c, 1, 64, 67
3, 244700, Note_off_c, 1, 64, 0
3, 244704, Note_on_c, 1, 57, 67
3, 244748, Note_off_c, 1, 57, 0
3, 244752, Note_on_c, 1, 64, 67
3, 244796, Note_off_c, 1, 56, 0
3, 244796, Note_off_c, 1, 64, 0
3, 244800, Note_on_c, 1, 59, 67
3, 244844, Note_off_c, 1, 59, 0
3, 244848, Note_on_c, 1, 64, 67
3, 244892, Note_off_c, 1, 64, 0
3, 244896, Note_on_c, 1, 63, 67
3, 244940, Note_off_c, 1, 63, 0
3, 244944, Note_on_c, 1, 64, 67
3, 244988, Note_off_c, 1, 64, 0
3, 244992, Note_on_c, 1, 56, 67
3, 245036, Note_off_c, 1, 56, 0
3, 245040, Note_on_c, 1, 64, 67
3, 245084, Note_off_c, 1, 64, 0
3, 245088, Note_on_c, 1, 59, 67
3, 245132, Note_off_c, 1, 59, 0
3, 245136, Note_on_c, 1, 64, 67
3, 245180, Note_off_c, 1, 64, 0
3, 245184, Note_on_c, 1, 52, 67
3, 245228, Note_off_c, 1, 52, 0
3, 245232, Note_on_c, 1, 64, 67
3, 245276, Note_off_c, 1, 64, 0
3, 245280, Note_on_c, 1, 56, 67
3, 245324, Note_off_c, 1, 56, 0
3, 245328, Note_on_c, 1, 64, 67
3, 245372, Note_off_c, 1, 64, 0
3, 245376, Note_on_c, 1, 54, 67
3, 245420, Note_off_c, 1, 54, 0
3, 245424, Note_on_c, 1, 64, 67
3, 245468, Note_off_c, 1, 64, 0
3, 245472, Note_on_c, 1, 63, 67
3, 245516, Note_off_c, 1, 63, 0
3, 245520, Note_on_c, 1, 64, 67
3, 245564, Note_off_c, 1, 64, 0
3, 245568, Note_on_c, 1, 54, 67
3, 245612, Note_off_c, 1, 54, 0
3, 245616, Note_on_c, 1, 64, 67
3, 245660, Note_off_c, 1, 64, 0
3, 245664, Note_on_c, 1, 63, 67
3, 245708, Note_off_c, 1, 63, 0
3, 245712, Note_on_c, 1, 64, 67
3, 245756, Note_off_c, 1, 64, 0
3, 245760, Note_on_c, 1, 56, 67
3, 245804, Note_off_c, 1, 56, 0
3, 245808, Note_on_c, 1, 64, 67
3, 245852, Note_off_c, 1, 64, 0
3, 245856, Note_on_c, 1, 63, 67
3, 245900, Note_off_c, 1, 63, 0
3, 245904, Note_on_c, 1, 64, 67
3, 245948, Note_off_c, 1, 64, 0
3, 245952, Note_on_c, 1, 57, 67
3, 246140, Note_off_c, 1, 57, 0
3, 246336, Note_on_c, 1, 59, 81
3, 246336, Note_on_c, 1, 54, 81
3, 246336, Note_on_c, 1, 50, 81
3, 246524, Note_off_c, 1, 59, 0
3, 246524, Note_off_c, 1, 54, 0
3, 246524, Note_off_c, 1, 50, 0
3, 246528, Note_on_c, 1, 62, 90
3, 246528, Note_on_c, 1, 59, 90
3, 246528, Note_on_c, 1, 52, 90
3, 246908, Note_off_c, 1, 62, 0
3, 246908, Note_off_c, 1, 59, 0
3, 246912, Note_on_c, 1, 59, 90
3, 246912, Note_on_c, 1, 62, 90
3, 247100, Note_off_c, 1, 52, 0
3, 247100, Note_off_c, 1, 59, 0
3, 247100, Note_off_c, 1, 62, 0
3, 247104, Note_on_c, 1, 61, 67
3, 247104, Note_on_c, 1, 64, 67
3, 247104, Note_on_c, 1, 57, 67
3, 247484, Note_off_c, 1, 61, 0
3, 247488, Note_on_c, 1, 61, 67
3, 247676, Note_off_c, 1, 64, 0
3, 247676, Note_off_c, 1, 57, 0
3, 247676, Note_off_c, 1, 61, 0
3, 247680, Note_on_c, 1, 45, 90
3, 247680, Note_on_c, 1, 45, 90
3, 247724, Note_off_c, 1, 45, 0
3, 247728, Note_on_c, 1, 49, 90
3, 247772, Note_off_c, 1, 49, 0
3, 247776, Note_on_c, 1, 52, 90
3, 247820, Note_off_c, 1, 52, 0
3, 247824, Note_on_c, 1, 57, 90
3, 247868, Note_off_c, 1, 57, 0
3, 247872, Note_on_c, 1, 45, 90
3, 247916, Note_off_c, 1, 45, 0
3, 247920, Note_on_c, 1, 49, 90
3, 247964, Note_off_c, 1, 49, 0
3, 247968, Note_on_c, 1, 52, 90
3, 248012, Note_off_c, 1, 52, 0
3, 248016, Note_on_c, 1, 57, 90
3, 248060, Note_off_c, 1, 57, 0
3, 248064, Note_on_c, 1, 47, 90
3, 248108, Note_off_c, 1, 47, 0
3, 248112, Note_on_c, 1, 50, 90
3, 248156, Note_off_c, 1, 50, 0
3, 248160, Note_on_c, 1, 56, 90
3, 248204, Note_off_c, 1, 56, 0
3, 248208, Note_on_c, 1, 59, 90
3, 248252, Note_off_c, 1, 45, 0
3, 248252, Note_off_c, 1, 59, 0
3, 248256, Note_on_c, 1, 57, 90
3, 248256, Note_on_c, 1, 49, 90
3, 248636, Note_off_c, 1, 57, 0
3, 248636, Note_off_c, 1, 49, 0
3, 248640, Note_on_c, 1, 57, 90
3, 248640, Note_on_c, 1, 50, 90
3, 248828, Note_off_c, 1, 57, 0
3, 248828, Note_off_c, 1, 50, 0
3, 248832, Note_on_c, 1, 61, 67
3, 248832, Note_on_c, 1, 52, 67
3, 249020, Note_off_c, 1, 61, 0
3, 249020, Note_off_c, 1, 52, 0
3, 249024, Note_on_c, 1, 61, 67
3, 249024, Note_on_c, 1, 52, 67
3, 249212, Note_off_c, 1, 61, 0
3, 249212, Note_off_c, 1, 52, 0
3, 249216, Note_on_c, 1, 62, 67
3, 249216, Note_on_c, 1, 56, 67
3, 249216, Note_on_c, 1, 52, 67
3, 249392, Note_on_c, 1, 57, 67
3, 249392, Note_on_c, 1, 57, 67
3, 249404, Note_off_c, 1, 62, 0
3, 249404, Note_off_c, 1, 56, 0
3, 249404, Note_off_c, 1, 52, 0
3, 249408, Note_on_c, 1, 62, 67
3, 249788, Note_off_c, 1, 62, 0
3, 249792, Note_on_c, 1, 61, 67
3, 249964, Note_off_c, 1, 57, 0
3, 249964, Note_off_c, 1, 57, 0
3, 249980, Note_off_c, 1, 61, 0
3, 249984, Note_on_c, 1, 57, 67
3, 250172, Note_off_c, 1, 57, 0
3, 250176, Note_on_c, 1, 64, 67
3, 250364, Note_off_c, 1, 64, 0
3, 250368, Note_on_c, 1, 59, 67
3, 250556, Note_off_c, 1, 59, 0
3, 250560, Note_on_c, 1, 64, 67
3, 250748, Note_off_c, 1, 64, 0
3, 250752, Note_on_c, 1, 61, 67
3, 250940, Note_off_c, 1, 61, 0
3, 250944, Note_on_c, 1, 64, 67
3, 251132, Note_off_c, 1, 64, 0
3, 251136, Note_on_c, 1, 57, 67
3, 251324, Note_off_c, 1, 57, 0
3, 251328, Note_on_c, 1, 64, 67
3, 251516, Note_off_c, 1, 64, 0
3, 251520, Note_on_c, 1, 56, 67
3, 251708, Note_off_c, 1, 56, 0
3, 251712, Note_on_c, 1, 64, 67
3, 251900, Note_off_c, 1, 64, 0
3, 251904, Note_on_c, 1, 57, 67
3, 252092, Note_off_c, 1, 57, 0
3, 252096, Note_on_c, 1, 64, 67
3, 252284, Note_off_c, 1, 64, 0
3, 252288, Note_on_c, 1, 59, 67
3, 252476, Note_off_c, 1, 59, 0
3, 252480, Note_on_c, 1, 64, 67
3, 252668, Note_off_c, 1, 64, 0
3, 252672, Note_on_c, 1, 62, 67
3, 252860, Note_off_c, 1, 62, 0
3, 252864, Note_on_c, 1, 64, 67
3, 253052, Note_off_c, 1, 64, 0
3, 253056, Note_on_c, 1, 61, 67
3, 253244, Note_off_c, 1, 61, 0
3, 253248, Note_on_c, 1, 64, 67
3, 253436, Note_off_c, 1, 64, 0
3, 253440, Note_on_c, 1, 61, 67
3, 253628, Note_off_c, 1, 61, 0
3, 253632, Note_on_c, 1, 64, 67
3, 253820, Note_off_c, 1, 64, 0
3, 253824, Note_on_c, 1, 56, 67
3, 254012, Note_off_c, 1, 56, 0
3, 254016, Note_on_c, 1, 64, 67
3, 254204, Note_off_c, 1, 64, 0
3, 254208, Note_on_c, 1, 56, 67
3, 254396, Note_off_c, 1, 56, 0
3, 254400, Note_on_c, 1, 64, 67
3, 254588, Note_off_c, 1, 64, 0
3, 254592, Note_on_c, 1, 57, 67
3, 254780, Note_off_c, 1, 57, 0
3, 254784, Note_on_c, 1, 64, 67
3, 254972, Note_off_c, 1, 64, 0
3, 254976, Note_on_c, 1, 50, 67
3, 255164, Note_off_c, 1, 50, 0
3, 255168, Note_on_c, 1, 59, 67
3, 255356, Note_off_c, 1, 59, 0
3, 255360, Note_on_c, 1, 57, 67
3, 255360, Note_on_c, 1, 52, 67
3, 255740, Note_off_c, 1, 57, 0
3, 255744, Note_on_c, 1, 56, 67
3, 255932, Note_off_c, 1, 52, 0
3, 255932, Note_off_c, 1, 56, 0
3, 256128, Note_on_c, 1, 33, 90
3, 256140, Note_on_c, 1, 37, 90
3, 256156, Note_on_c, 1, 40, 90
3, 256172, Note_on_c, 1, 45, 90
3, 256700, Note_off_c, 1, 33, 0
3, 256712, Note_off_c, 1, 37, 0
3, 256728, Note_off_c, 1, 40, 0
3, 256744, Note_off_c, 1, 45, 0
3, 257664, Note_on_c, 1, 40, 90
3, 257676, Note_on_c, 1, 44, 90
3, 257692, Note_on_c, 1, 47, 90
3, 257708, Note_on_c, 1, 52, 90
3, 258236, Note_off_c, 1, 40, 0
3, 258248, Note_off_c, 1, 44, 0
3, 258264, Note_off_c, 1, 47, 0
3, 258280, Note_off_c, 1, 52, 0
3, 258432, Note_on_c, 1, 52, 90
3, 258444, Note_on_c, 1, 56, 90
3, 258460, Note_on_c, 1, 59, 90
3, 258476, Note_on_c, 1, 64, 90
3, 259004, Note_off_c, 1, 52, 0
3, 259016, Note_off_c, 1, 56, 0
3, 259032, Note_off_c, 1, 59, 0
3, 259048, Note_off_c, 1, 64, 0
3, 259200, Note_on_c, 1, 42, 90
3, 259388, Note_off_c, 1, 42, 0
3, 259392, Note_on_c, 1, 54, 90
3, 259580, Note_off_c, 1, 54, 0
3, 259584, Note_on_c, 1, 44, 90
3, 259772, Note_off_c, 1, 44, 0
3, 259776, Note_on_c, 1, 56, 90
3, 259964, Note_off_c, 1, 56, 0
3, 259968, Note_on_c, 1, 57, 90
3, 260156, Note_off_c, 1, 57, 0
3, 260160, Note_on_c, 1, 61, 90
3, 260348, Note_off_c, 1, 61, 0
3, 260352, Note_on_c, 1, 62, 90
3, 260540, Note_off_c, 1, 62, 0
3, 260544, Note_on_c, 1, 56, 90
3, 260732, Note_off_c, 1, 56, 0
3, 260736, Note_on_c, 1, 57, 90
3, 260924, Note_off_c, 1, 57, 0
3, 260928, Note_on_c, 1, 54, 90
3, 261116, Note_off_c, 1, 54, 0
3, 261120, Note_on_c, 1, 50, 90
3, 261308, Note_off_c, 1, 50, 0
3, 261312, Note_on_c, 1, 52, 90
3, 261500, Note_off_c, 1, 52, 0
3, 261504, Note_on_c, 1, 45, 90
3, 262076, Note_off_c, 1, 45, 0
3, 262272, Note_on_c, 1, 57, 67
3, 262460, Note_off_c, 1, 57, 0
3, 262464, Note_on_c, 1, 64, 67
3, 262652, Note_off_c, 1, 64, 0
3, 262656, Note_on_c, 1, 59, 67
3, 262844, Note_off_c, 1, 59, 0
3, 262848, Note_on_c, 1, 64, 67
3, 263036, Note_off_c, 1, 64, 0
3, 263040, Note_on_c, 1, 61, 67
3, 263228, Note_off_c, 1, 61, 0
3, 263232, Note_on_c, 1, 64, 67
3, 263420, Note_off_c, 1, 64, 0
3, 263424, Note_on_c, 1, 57, 67
3, 263612, Note_off_c, 1, 57, 0
3, 263616, Note_on_c, 1, 64, 67
3, 263804, Note_off_c, 1, 64, 0
3, 263808, Note_on_c, 1, 56, 67
3, 263996, Note_off_c, 1, 56, 0
3, 264000, Note_on_c, 1, 64, 67
3, 264188, Note_off_c, 1, 64, 0
3, 264192, Note_on_c, 1, 57, 67
3, 264380, Note_off_c, 1, 57, 0
3, 264384, Note_on_c, 1, 64, 67
3, 264572, Note_off_c, 1, 64, 0
3, 264576, Note_on_c, 1, 59, 67
3, 264764, Note_off_c, 1, 59, 0
3, 264768, Note_on_c, 1, 64, 67
3, 264956, Note_off_c, 1, 64, 0
3, 264960, Note_on_c, 1, 62, 67
3, 265148, Note_off_c, 1, 62, 0
3, 265152, Note_on_c, 1, 64, 67
3, 265340, Note_off_c, 1, 64, 0
3, 265344, Note_on_c, 1, 61, 67
3, 265532, Note_off_c, 1, 61, 0
3, 265536, Note_on_c, 1, 64, 67
3, 265724, Note_off_c, 1, 64, 0
3, 265728, Note_on_c, 1, 61, 67
3, 265916, Note_off_c, 1, 61, 0
3, 265920, Note_on_c, 1, 64, 67
3, 266108, Note_off_c, 1, 64, 0
3, 266112, Note_on_c, 1, 56, 67
3, 266300, Note_off_c, 1, 56, 0
3, 266304, Note_on_c, 1, 64, 67
3, 266492, Note_off_c, 1, 64, 0
3, 266496, Note_on_c, 1, 56, 67
3, 266684, Note_off_c, 1, 56, 0
3, 266688, Note_on_c, 1, 64, 67
3, 266876, Note_off_c, 1, 64, 0
3, 266880, Note_on_c, 1, 57, 67
3, 267068, Note_off_c, 1, 57, 0
3, 267072, Note_on_c, 1, 64, 67
3, 267260, Note_off_c, 1, 64, 0
3, 267264, Note_on_c, 1, 50, 67
3, 267452, Note_off_c, 1, 50, 0
3, 267456, Note_on_c, 1, 59, 67
3, 267644, Note_off_c, 1, 59, 0
3, 267648, Note_on_c, 1, 57, 67
3, 267648, Note_on_c, 1, 52, 67
3, 268028, Note_off_c, 1, 57, 0
3, 268032, Note_on_c, 1, 56, 67
3, 268220, Note_off_c, 1, 52, 0
3, 268220, Note_off_c, 1, 56, 0
3, 268416, Note_on_c, 1, 33, 90
3, 268428, Note_on_c, 1, 37, 90
3, 268444, Note_on_c, 1, 40, 90
3, 268460, Note_on_c, 1, 45, 90
3, 268988, Note_off_c, 1, 33, 0
3, 269000, Note_off_c, 1, 37, 0
3, 269016, Note_off_c, 1, 40, 0
3, 269032, Note_off_c, 1, 45, 0
3, 269952, Note_on_c, 1, 40, 90
3, 269964, Note_on_c, 1, 44, 90
3, 269980, Note_on_c, 1, 47, 90
3, 269996, Note_on_c, 1, 52, 90
3, 270524, Note_off_c, 1, 40, 0
3, 270536, Note_off_c, 1, 44, 0
3, 270552, Note_off_c, 1, 47, 0
3, 270568, Note_off_c, 1, 52, 0
3, 270720, Note_on_c, 1, 52, 90
3, 270732, Note_on_c, 1, 56, 90
3, 270748, Note_on_c, 1, 59, 90
3, 270764, Note_on_c, 1, 64, 90
3, 271292, Note_off_c, 1, 52, 0
3, 271304, Note_off_c, 1, 56, 0
3, 271320, Note_off_c, 1, 59, 0
3, 271336, Note_off_c, 1, 64, 0
3, 271488, Note_on_c, 1, 42, 90
3, 271676, Note_off_c, 1, 42, 0
3, 271680, Note_on_c, 1, 54, 90
3, 271868, Note_off_c, 1, 54, 0
3, 271872, Note_on_c, 1, 44, 90
3, 272060, Note_off_c, 1, 44, 0
3, 272064, Note_on_c, 1, 56, 90
3, 272252, Note_off_c, 1, 56, 0
3, 272256, Note_on_c, 1, 57, 90
3, 272444, Note_off_c, 1, 57, 0
3, 272448, Note_on_c, 1, 61, 90
3, 272636, Note_off_c, 1, 61, 0
3, 272640, Note_on_c, 1, 62, 90
3, 272828, Note_off_c, 1, 62, 0
3, 272832, Note_on_c, 1, 56, 90
3, 273020, Note_off_c, 1, 56, 0
3, 273024, Note_on_c, 1, 57, 90
3, 273212, Note_off_c, 1, 57, 0
3, 273216, Note_on_c, 1, 54, 90
3, 273404, Note_off_c, 1, 54, 0
3, 273408, Note_on_c, 1, 50, 90
3, 273596, Note_off_c, 1, 50, 0
3, 273600, Note_on_c, 1, 52, 90
3, 273788, Note_off_c, 1, 52, 0
3, 273792, Note_on_c, 1, 45, 90
3, 274364, Note_off_c, 1, 45, 0
3, 274560, Note_on_c, 1, 57, 67
3, 274748, Note_off_c, 1, 57, 0
3, 274752, Note_on_c, 1, 64, 67
3, 274940, Note_off_c, 1, 64, 0
3, 274944, Note_on_c, 1, 61, 67
3, 275132, Note_off_c, 1, 61, 0
3, 275136, Note_on_c, 1, 64, 67
3, 275324, Note_off_c, 1, 64, 0
3, 275328, Note_on_c, 1, 57, 67
3, 275516, Note_off_c, 1, 57, 0
3, 275520, Note_on_c, 1, 66, 67
3, 275708, Note_off_c, 1, 66, 0
3, 275712, Note_on_c, 1, 62, 67
3, 275900, Note_off_c, 1, 62, 0
3, 275904, Note_on_c, 1, 66, 67
3, 276092, Note_off_c, 1, 66, 0
3, 276096, Note_on_c, 1, 57, 67
3, 276284, Note_off_c, 1, 57, 0
3, 276288, Note_on_c, 1, 66, 67
3, 276476, Note_off_c, 1, 66, 0
3, 276480, Note_on_c, 1, 62, 67
3, 276668, Note_off_c, 1, 62, 0
3, 276672, Note_on_c, 1, 66, 67
3, 276860, Note_off_c, 1, 66, 0
3, 276864, Note_on_c, 1, 57, 67
3, 277052, Note_off_c, 1, 57, 0
3, 277056, Note_on_c, 1, 64, 67
3, 277244, Note_off_c, 1, 64, 0
3, 277248, Note_on_c, 1, 61, 67
3, 277436, Note_off_c, 1, 61, 0
3, 277440, Note_on_c, 1, 64, 67
3, 277628, Note_off_c, 1, 64, 0
3, 277632, Note_on_c, 1, 45, 90
3, 277644, Note_on_c, 1, 49, 90
3, 277660, Note_on_c, 1, 52, 90
3, 277676, Note_on_c, 1, 57, 90
3, 278204, Note_off_c, 1, 45, 0
3, 278216, Note_off_c, 1, 49, 0
3, 278232, Note_off_c, 1, 52, 0
3, 278248, Note_off_c, 1, 57, 0
3, 278400, Note_on_c, 1, 47, 90
3, 278412, Note_on_c, 1, 50, 90
3, 278428, Note_on_c, 1, 56, 90
3, 278444, Note_on_c, 1, 59, 90
3, 278972, Note_off_c, 1, 47, 0
3, 278984, Note_off_c, 1, 50, 0
3, 279000, Note_off_c, 1, 56, 0
3, 279016, Note_off_c, 1, 59, 0
3, 279168, Note_on_c, 1, 49, 90
3, 279180, Note_on_c, 1, 52, 90
3, 279196, Note_on_c, 1, 57, 90
3, 279212, Note_on_c, 1, 61, 90
3, 279548, Note_off_c, 1, 49, 0
3, 279552, Note_on_c, 1, 50, 90
3, 279560, Note_off_c, 1, 52, 0
3, 279564, Note_on_c, 1, 54, 90
3, 279576, Note_off_c, 1, 57, 0
3, 279580, Note_on_c, 1, 59, 90
3, 279592, Note_off_c, 1, 61, 0
3, 279596, Note_on_c, 1, 62, 90
3, 279932, Note_off_c, 1, 50, 0
3, 279936, Note_on_c, 1, 52, 90
3, 279944, Note_off_c, 1, 54, 0
3, 279948, Note_on_c, 1, 59, 90
3, 279960, Note_off_c, 1, 59, 0
3, 279964, Note_on_c, 1, 56, 90
3, 279976, Note_off_c, 1, 62, 0
3, 279980, Note_on_c, 1, 64, 90
3, 280316, Note_off_c, 1, 52, 0
3, 280328, Note_off_c, 1, 59, 0
3, 280344, Note_off_c, 1, 56, 0
3, 280360, Note_off_c, 1, 64, 0
3, 280704, Note_on_c, 1, 57, 67
3, 280892, Note_off_c, 1, 57, 0
3, 280896, Note_on_c, 1, 64, 67
3, 281084, Note_off_c, 1, 64, 0
3, 281088, Note_on_c, 1, 59, 67
3, 281276, Note_off_c, 1, 59, 0
3, 281280, Note_on_c, 1, 64, 67
3, 281468, Note_off_c, 1, 64, 0
3, 281472, Note_on_c, 1, 61, 67
3, 281660, Note_off_c, 1, 61, 0
3, 281664, Note_on_c, 1, 64, 67
3, 281852, Note_off_c, 1, 64, 0
3, 281856, Note_on_c, 1, 57, 67
3, 282044, Note_off_c, 1, 57, 0
3, 282048, Note_on_c, 1, 64, 67
3, 282236, Note_off_c, 1, 64, 0
3, 282240, Note_on_c, 1, 56, 67
3, 282428, Note_off_c, 1, 56, 0
3, 282432, Note_on_c, 1, 64, 67
3, 282620, Note_off_c, 1, 64, 0
3, 282624, Note_on_c, 1, 57, 67
3, 282812, Note_off_c, 1, 57, 0
3, 282816, Note_on_c, 1, 64, 67
3, 283004, Note_off_c, 1, 64, 0
3, 283008, Note_on_c, 1, 59, 67
3, 283196, Note_off_c, 1, 59, 0
3, 283200, Note_on_c, 1, 64, 67
3, 283388, Note_off_c, 1, 64, 0
3, 283392, Note_on_c, 1, 56, 67
3, 283580, Note_off_c, 1, 56, 0
3, 283584, Note_on_c, 1, 64, 67
3, 283772, Note_off_c, 1, 64, 0
3, 283776, Note_on_c, 1, 54, 67
3, 283964, Note_off_c, 1, 54, 0
3, 283968, Note_on_c, 1, 64, 67
3, 284156, Note_off_c, 1, 64, 0
3, 284160, Note_on_c, 1, 56, 67
3, 284348, Note_off_c, 1, 56, 0
3, 284352, Note_on_c, 1, 64, 67
3, 284540, Note_off_c, 1, 64, 0
3, 284544, Note_on_c, 1, 57, 67
3, 284732, Note_off_c, 1, 57, 0
3, 284736, Note_on_c, 1, 64, 67
3, 284924, Note_off_c, 1, 64, 0
3, 284928, Note_on_c, 1, 50, 67
3, 285116, Note_off_c, 1, 50, 0
3, 285120, Note_on_c, 1, 59, 67
3, 285308, Note_off_c, 1, 59, 0
3, 285312, Note_on_c, 1, 52, 67
3, 285500, Note_off_c, 1, 52, 0
3, 285504, Note_on_c, 1, 57, 67
3, 285692, Note_off_c, 1, 57, 0
3, 285696, Note_on_c, 1, 52, 67
3, 285884, Note_off_c, 1, 52, 0
3, 285888, Note_on_c, 1, 56, 67
3, 286076, Note_off_c, 1, 56, 0
3, 286080, Note_on_c, 1, 57, 67
3, 286080, Note_on_c, 1, 62, 67
3, 286080, Note_on_c, 1, 64, 67
3, 286460, Note_off_c, 1, 57, 0
3, 286460, Note_off_c, 1, 62, 0
3, 286460, Note_off_c, 1, 64, 0
3, 286464, Note_on_c, 1, 57, 67
3, 286464, Note_on_c, 1, 61, 67
3, 286464, Note_on_c, 1, 64, 67
3, 286652, Note_off_c, 1, 57, 0
3, 286652, Note_off_c, 1, 61, 0
3, 286652, Note_off_c, 1, 64, 0
3, 286848, Note_on_c, 1, 45, 90
3, 286940, Note_off_c, 1, 45, 0
3, 286944, Note_on_c, 1, 49, 90
3, 287036, Note_off_c, 1, 49, 0
3, 287040, Note_on_c, 1, 52, 90
3, 287132, Note_off_c, 1, 52, 0
3, 287136, Note_on_c, 1, 57, 90
3, 287228, Note_off_c, 1, 57, 0
3, 287232, Note_on_c, 1, 47, 90
3, 287324, Note_off_c, 1, 47, 0
3, 287328, Note_on_c, 1, 50, 90
3, 287420, Note_off_c, 1, 50, 0
3, 287424, Note_on_c, 1, 56, 90
3, 287516, Note_off_c, 1, 56, 0
3, 287520, Note_on_c, 1, 59, 90
3, 287612, Note_off_c, 1, 59, 0
3, 287616, Note_on_c, 1, 49, 90
3, 287708, Note_off_c, 1, 49, 0
3, 287712, Note_on_c, 1, 52, 90
3, 287804, Note_off_c, 1, 52, 0
3, 287808, Note_on_c, 1, 57, 90
3, 287900, Note_off_c, 1, 57, 0
3, 287904, Note_on_c, 1, 61, 90
3, 287996, Note_off_c, 1, 61, 0
3, 288000, Note_on_c, 1, 50, 90
3, 288092, Note_off_c, 1, 50, 0
3, 288096, Note_on_c, 1, 54, 90
3, 288188, Note_off_c, 1, 54, 0
3, 288192, Note_on_c, 1, 59, 90
3, 288284, Note_off_c, 1, 59, 0
3, 288288, Note_on_c, 1, 62, 90
3, 288380, Note_off_c, 1, 62, 0
3, 288384, Note_on_c, 1, 52, 90
3, 288476, Note_off_c, 1, 52, 0
3, 288480, Note_on_c, 1, 57, 90
3, 288572, Note_off_c, 1, 57, 0
3, 288576, Note_on_c, 1, 61, 90
3, 288668, Note_off_c, 1, 61, 0
3, 288672, Note_on_c, 1, 64, 90
3, 288764, Note_off_c, 1, 64, 0
3, 288768, Note_on_c, 1, 40, 90
3, 288860, Note_off_c, 1, 40, 0
3, 288864, Note_on_c, 1, 44, 90
3, 288956, Note_off_c, 1, 44, 0
3, 288960, Note_on_c, 1, 47, 90
3, 289052, Note_off_c, 1, 47, 0
3, 289056, Note_on_c, 1, 52, 90
3, 289148, Note_off_c, 1, 52, 0
3, 289152, Note_on_c, 1, 45, 90
3, 289244, Note_off_c, 1, 45, 0
3, 289248, Note_on_c, 1, 49, 90
3, 289340, Note_off_c, 1, 49, 0
3, 289344, Note_on_c, 1, 52, 90
3, 289436, Note_off_c, 1, 52, 0
3, 289440, Note_on_c, 1, 57, 90
3, 289532, Note_off_c, 1, 57, 0
3, 289536, Note_on_c, 1, 45, 90
3, 289916, Note_off_c, 1, 45, 0
3, 289920, Note_on_c, 1, 57, 67
3, 290108, Note_off_c, 1, 57, 0
3, 290112, Note_on_c, 1, 64, 67
3, 290300, Note_off_c, 1, 64, 0
3, 290304, Note_on_c, 1, 61, 67
3, 290492, Note_off_c, 1, 61, 0
3, 290496, Note_on_c, 1, 64, 67
3, 290684, Note_off_c, 1, 64, 0
3, 290688, Note_on_c, 1, 57, 67
3, 290876, Note_off_c, 1, 57, 0
3, 290880, Note_on_c, 1, 66, 67
3, 291068, Note_off_c, 1, 66, 0
3, 291072, Note_on_c, 1, 62, 67
3, 291260, Note_off_c, 1, 62, 0
3, 291264, Note_on_c, 1, 66, 67
3, 291452, Note_off_c, 1, 66, 0
3, 291456, Note_on_c, 1, 57, 67
3, 291644, Note_off_c, 1, 57, 0
3, 291648, Note_on_c, 1, 66, 67
3, 291836, Note_off_c, 1, 66, 0
3, 291840, Note_on_c, 1, 62, 67
3, 292028, Note_off_c, 1, 62, 0
3, 292032, Note_on_c, 1, 66, 67
3, 292220, Note_off_c, 1, 66, 0
3, 292224, Note_on_c, 1, 57, 67
3, 292412, Note_off_c, 1, 57, 0
3, 292416, Note_on_c, 1, 64, 67
3, 292604, Note_off_c, 1, 64, 0
3, 292608, Note_on_c, 1, 61, 67
3, 292796, Note_off_c, 1, 61, 0
3, 292800, Note_on_c, 1, 64, 67
3, 292988, Note_off_c, 1, 64, 0
3, 292992, Note_on_c, 1, 45, 90
3, 293000, Note_on_c, 1, 49, 90
3, 293012, Note_on_c, 1, 52, 90
3, 293024, Note_on_c, 1, 57, 90
3, 293564, Note_off_c, 1, 45, 0
3, 293572, Note_off_c, 1, 49, 0
3, 293584, Note_off_c, 1, 52, 0
3, 293596, Note_off_c, 1, 57, 0
3, 293760, Note_on_c, 1, 47, 90
3, 293768, Note_on_c, 1, 50, 90
3, 293780, Note_on_c, 1, 56, 90
3, 293792, Note_on_c, 1, 59, 90
3, 294332, Note_off_c, 1, 47, 0
3, 294340, Note_off_c, 1, 50, 0
3, 294352, Note_off_c, 1, 56, 0
3, 294364, Note_off_c, 1, 59, 0
3, 294528, Note_on_c, 1, 49, 90
3, 294536, Note_on_c, 1, 52, 90
3, 294548, Note_on_c, 1, 57, 90
3, 294560, Note_on_c, 1, 61, 90
3, 294908, Note_off_c, 1, 49, 0
3, 294912, Note_on_c, 1, 50, 90
3, 294916, Note_off_c, 1, 52, 0
3, 294920, Note_on_c, 1, 54, 90
3, 294928, Note_off_c, 1, 57, 0
3, 294932, Note_on_c, 1, 59, 90
3, 294940, Note_off_c, 1, 61, 0
3, 294944, Note_on_c, 1, 62, 90
3, 295292, Note_off_c, 1, 50, 0
3, 295296, Note_on_c, 1, 52, 90
3, 295300, Note_off_c, 1, 54, 0
3, 295304, Note_on_c, 1, 56, 90
3, 295312, Note_off_c, 1, 59, 0
3, 295316, Note_on_c, 1, 59, 90
3, 295324, Note_off_c, 1, 62, 0
3, 295328, Note_on_c, 1, 64, 90
3, 295676, Note_off_c, 1, 52, 0
3, 295684, Note_off_c, 1, 56, 0
3, 295696, Note_off_c, 1, 59, 0
3, 295708, Note_off_c, 1, 64, 0
3, 296064, Note_on_c, 1, 57, 67
3, 296252, Note_off_c, 1, 57, 0
3, 296256, Note_on_c, 1, 64, 67
3, 296444, Note_off_c, 1, 64, 0
3, 296448, Note_on_c, 1, 59, 67
3, 296636, Note_off_c, 1, 59, 0
3, 296640, Note_on_c, 1, 64, 67
3, 296828, Note_off_c, 1, 64, 0
3, 296832, Note_on_c, 1, 61, 67
3, 297020, Note_off_c, 1, 61, 0
3, 297024, Note_on_c, 1, 64, 67
3, 297212, Note_off_c, 1, 64, 0
3, 297216, Note_on_c, 1, 57, 67
3, 297404, Note_off_c, 1, 57, 0
3, 297408, Note_on_c, 1, 64, 67
3, 297596, Note_off_c, 1, 64, 0
3, 297600, Note_on_c, 1, 56, 67
3, 297788, Note_off_c, 1, 56, 0
3, 297792, Note_on_c, 1, 64, 67
3, 297980, Note_off_c, 1, 64, 0
3, 297984, Note_on_c, 1, 57, 67
3, 298172, Note_off_c, 1, 57, 0
3, 298176, Note_on_c, 1, 64, 67
3, 298364, Note_off_c, 1, 64, 0
3, 298368, Note_on_c, 1, 59, 67
3, 298556, Note_off_c, 1, 59, 0
3, 298560, Note_on_c, 1, 64, 67
3, 298748, Note_off_c, 1, 64, 0
3, 298752, Note_on_c, 1, 56, 67
3, 298940, Note_off_c, 1, 56, 0
3, 298944, Note_on_c, 1, 64, 67
3, 299132, Note_off_c, 1, 64, 0
3, 299136, Note_on_c, 1, 54, 67
3, 299324, Note_off_c, 1, 54, 0
3, 299328, Note_on_c, 1, 64, 67
3, 299516, Note_off_c, 1, 64, 0
3, 299520, Note_on_c, 1, 56, 67
3, 299708, Note_off_c, 1, 56, 0
3, 299712, Note_on_c, 1, 64, 67
3, 299900, Note_off_c, 1, 64, 0
3, 299904, Note_on_c, 1, 57, 67
3, 300092, Note_off_c, 1, 57, 0
3, 300096, Note_on_c, 1, 64, 67
3, 300284, Note_off_c, 1, 64, 0
3, 300288, Note_on_c, 1, 50, 67
3, 300476, Note_off_c, 1, 50, 0
3, 300480, Note_on_c, 1, 59, 67
3, 300668, Note_off_c, 1, 59, 0
3, 300672, Note_on_c, 1, 52, 67
3, 300860, Note_off_c, 1, 52, 0
3, 300864, Note_on_c, 1, 57, 67
3, 301052, Note_off_c, 1, 57, 0
3, 301056, Note_on_c, 1, 52, 67
3, 301244, Note_off_c, 1, 52, 0
3, 301248, Note_on_c, 1, 56, 67
3, 301436, Note_off_c, 1, 56, 0
3, 301440, Note_on_c, 1, 57, 67
3, 301440, Note_on_c, 1, 62, 67
3, 301440, Note_on_c, 1, 64, 67
3, 301820, Note_off_c, 1, 57, 0
3, 301820, Note_off_c, 1, 62, 0
3, 301820, Note_off_c, 1, 64, 0
3, 301824, Note_on_c, 1, 57, 67
3, 301824, Note_on_c, 1, 61, 67
3, 301824, Note_on_c, 1, 64, 67
3, 302012, Note_off_c, 1, 57, 0
3, 302012, Note_off_c, 1, 61, 0
3, 302012, Note_off_c, 1, 64, 0
3, 302208, Note_on_c, 1, 45, 90
3, 302300, Note_off_c, 1, 45, 0
3, 302304, Note_on_c, 1, 49, 90
3, 302396, Note_off_c, 1, 49, 0
3, 302400, Note_on_c, 1, 52, 90
3, 302492, Note_off_c, 1, 52, 0
3, 302496, Note_on_c, 1, 57, 90
3, 302588, Note_off_c, 1, 57, 0
3, 302592, Note_on_c, 1, 47, 90
3, 302684, Note_off_c, 1, 47, 0
3, 302688, Note_on_c, 1, 50, 90
3, 302780, Note_off_c, 1, 50, 0
3, 302784, Note_on_c, 1, 56, 90
3, 302876, Note_off_c, 1, 56, 0
3, 302880, Note_on_c, 1, 59, 90
3, 302972, Note_off_c, 1, 59, 0
3, 302976, Note_on_c, 1, 49, 90
3, 303068, Note_off_c, 1, 49, 0
3, 303072, Note_on_c, 1, 52, 90
3, 303164, Note_off_c, 1, 52, 0
3, 303168, Note_on_c, 1, 57, 90
3, 303260, Note_off_c, 1, 57, 0
3, 303264, Note_on_c, 1, 61, 90
3, 303356, Note_off_c, 1, 61, 0
3, 303360, Note_on_c, 1, 50, 90
3, 303452, Note_off_c, 1, 50, 0
3, 303456, Note_on_c, 1, 54, 90
3, 303548, Note_off_c, 1, 54, 0
3, 303552, Note_on_c, 1, 59, 90
3, 303644, Note_off_c, 1, 59, 0
3, 303648, Note_on_c, 1, 62, 90
3, 303740, Note_off_c, 1, 62, 0
3, 303744, Note_on_c, 1, 52, 90
3, 303836, Note_off_c, 1, 52, 0
3, 303840, Note_on_c, 1, 57, 90
3, 303932, Note_off_c, 1, 57, 0
3, 303936, Note_on_c, 1, 61, 90
3, 304028, Note_off_c, 1, 61, 0
3, 304032, Note_on_c, 1, 64, 90
3, 304124, Note_off_c, 1, 64, 0
3, 304128, Note_on_c, 1, 40, 90
3, 304220, Note_off_c, 1, 40, 0
3, 304224, Note_on_c, 1, 44, 90
3, 304316, Note_off_c, 1, 44, 0
3, 304320, Note_on_c, 1, 47, 90
3, 304412, Note_off_c, 1, 47, 0
3, 304416, Note_on_c, 1, 52, 90
3, 304508, Note_off_c, 1, 52, 0
3, 304512, Note_on_c, 1, 45, 90
3, 304604, Note_off_c, 1, 45, 0
3, 304608, Note_on_c, 1, 49, 90
3, 304700, Note_off_c, 1, 49, 0
3, 304704, Note_on_c, 1, 52, 90
3, 304796, Note_off_c, 1, 52, 0
3, 304800, Note_on_c, 1, 57, 90
3, 304892, Note_off_c, 1, 57, 0
3, 304896, Note_on_c, 1, 45, 90
3, 305276, Note_off_c, 1, 45, 0
3, 305280, Note_on_c, 1, 52, 90
3, 305372, Note_off_c, 1, 52, 0
3, 305376, Note_on_c, 1, 57, 90
3, 305468, Note_off_c, 1, 57, 0
3, 305472, Note_on_c, 1, 61, 90
3, 305564, Note_off_c, 1, 61, 0
3, 305568, Note_on_c, 1, 64, 90
3, 305660, Note_off_c, 1, 64, 0
3, 305664, Note_on_c, 1, 52, 90
3, 305756, Note_off_c, 1, 52, 0
3, 305760, Note_on_c, 1, 56, 90
3, 305852, Note_off_c, 1, 56, 0
3, 305856, Note_on_c, 1, 59, 90
3, 305948, Note_off_c, 1, 59, 0
3, 305952, Note_on_c, 1, 62, 90
3, 306044, Note_off_c, 1, 62, 0
3, 306048, Note_on_c, 1, 57, 89
3, 306048, Note_on_c, 1, 61, 89
3, 306236, Note_off_c, 1, 57, 0
3, 306236, Note_off_c, 1, 61, 0
3, 306240, Note_on_c, 1, 61, 79
3, 306240, Note_on_c, 1, 64, 79
3, 306428, Note_off_c, 1, 61, 0
3, 306428, Note_off_c, 1, 64, 0
3, 306432, Note_on_c, 1, 61, 67
3, 306432, Note_on_c, 1, 64, 67
3, 306620, Note_off_c, 1, 61, 0
3, 306620, Note_off_c, 1, 64, 0
3, 306624, Note_on_c, 1, 61, 67
3, 306624, Note_on_c, 1, 64, 67
3, 306812, Note_off_c, 1, 61, 0
3, 306812, Note_off_c, 1, 64, 0
3, 306816, Note_on_c, 1, 57, 67
3, 307004, Note_off_c, 1, 57, 0
3, 307008, Note_on_c, 1, 62, 67
3, 307008, Note_on_c, 1, 66, 67
3, 307196, Note_off_c, 1, 62, 0
3, 307196, Note_off_c, 1, 66, 0
3, 307200, Note_on_c, 1, 62, 67
3, 307200, Note_on_c, 1, 66, 67
3, 307388, Note_off_c, 1, 62, 0
3, 307388, Note_off_c, 1, 66, 0
3, 307392, Note_on_c, 1, 62, 67
3, 307392, Note_on_c, 1, 66, 67
3, 307580, Note_off_c, 1, 62, 0
3, 307580, Note_off_c, 1, 66, 0
3, 307584, Note_on_c, 1, 57, 67
3, 307772, Note_off_c, 1, 57, 0
3, 307776, Note_on_c, 1, 61, 67
3, 307776, Note_on_c, 1, 64, 67
3, 307964, Note_off_c, 1, 61, 0
3, 307964, Note_off_c, 1, 64, 0
3, 307968, Note_on_c, 1, 61, 67
3, 307968, Note_on_c, 1, 64, 67
3, 308156, Note_off_c, 1, 61, 0
3, 308156, Note_off_c, 1, 64, 0
3, 308160, Note_on_c, 1, 61, 67
3, 308160, Note_on_c, 1, 64, 67
3, 308348, Note_off_c, 1, 61, 0
3, 308348, Note_off_c, 1, 64, 0
3, 308352, Note_on_c, 1, 57, 67
3, 308540, Note_off_c, 1, 57, 0
3, 308544, Note_on_c, 1, 62, 67
3, 308544, Note_on_c, 1, 66, 67
3, 308732, Note_off_c, 1, 62, 0
3, 308732, Note_off_c, 1, 66, 0
3, 308736, Note_on_c, 1, 62, 67
3, 308736, Note_on_c, 1, 66, 67
3, 308924, Note_off_c, 1, 62, 0
3, 308924, Note_off_c, 1, 66, 0
3, 308928, Note_on_c, 1, 62, 67
3, 308928, Note_on_c, 1, 66, 67
3, 309116, Note_off_c, 1, 62, 0
3, 309116, Note_off_c, 1, 66, 0
3, 309120, Note_on_c, 1, 64, 67
3, 309120, Note_on_c, 1, 57, 67
3, 309120, Note_on_c, 1, 61, 67
3, 309500, Note_off_c, 1, 64, 0
3, 309500, Note_off_c, 1, 57, 0
3, 309500, Note_off_c, 1, 61, 0
3, 309888, Note_on_c, 1, 59, 67
3, 309888, Note_on_c, 1, 50, 67
3, 310268, Note_off_c, 1, 59, 0
3, 310268, Note_off_c, 1, 50, 0
3, 310656, Note_on_c, 1, 57, 67
3, 310656, Note_on_c, 1, 52, 67
3, 311036, Note_off_c, 1, 57, 0
3, 311036, Note_off_c, 1, 52, 0
3, 311424, Note_on_c, 1, 56, 67
3, 311424, Note_on_c, 1, 50, 67
3, 311804, Note_off_c, 1, 56, 0
3, 311804, Note_off_c, 1, 50, 0
3, 312192, Note_on_c, 1, 57, 90
3, 312192, Note_on_c, 1, 49, 90
3, 312572, Note_off_c, 1, 57, 0
3, 312572, Note_off_c, 1, 49, 0
3, 312960, Note_on_c, 1, 59, 90
3, 312960, Note_on_c, 1, 50, 90
3, 313340, Note_off_c, 1, 59, 0
3, 313340, Note_off_c, 1, 50, 0
3, 313728, Note_on_c, 1, 57, 90
3, 313728, Note_on_c, 1, 52, 90
3, 314108, Note_off_c, 1, 57, 0
3, 314108, Note_off_c, 1, 52, 0
3, 314496, Note_on_c, 1, 56, 90
3, 314496, Note_on_c, 1, 52, 90
3, 314876, Note_off_c, 1, 56, 0
3, 314876, Note_off_c, 1, 52, 0
3, 315264, Note_on_c, 1, 57, 90
3, 315644, Note_off_c, 1, 57, 0
3, 316416, Note_on_c, 1, 52, 90
3, 316428, Note_on_c, 1, 59, 90
3, 316444, Note_on_c, 1, 56, 90
3, 316460, Note_on_c, 1, 64, 90
3, 316796, Note_off_c, 1, 52, 0
3, 316800, Note_on_c, 1, 45, 90
3, 316808, Note_off_c, 1, 59, 0
3, 316812, Note_on_c, 1, 49, 90
3, 316824, Note_off_c, 1, 56, 0
3, 316828, Note_on_c, 1, 52, 90
3, 316840, Note_off_c, 1, 64, 0
3, 316844, Note_on_c, 1, 57, 90
3, 316988, Note_off_c, 1, 45, 0
3, 317000, Note_off_c, 1, 49, 0
3, 317016, Note_off_c, 1, 52, 0
3, 317032, Note_off_c, 1, 57, 0
3, 317952, Note_on_c, 1, 52, 95
3, 317964, Note_on_c, 1, 59, 95
3, 317980, Note_on_c, 1, 56, 95
3, 317996, Note_on_c, 1, 64, 95
3, 318332, Note_off_c, 1, 52, 0
3, 318336, Note_on_c, 1, 45, 98
3, 318344, Note_off_c, 1, 59, 0
3, 318348, Note_on_c, 1, 49, 98
3, 318360, Note_off_c, 1, 56, 0
3, 318364, Note_on_c, 1, 52, 98
3, 318376, Note_off_c, 1, 64, 0
3, 318380, Note_on_c, 1, 57, 98
3, 318716, Note_off_c, 1, 45, 0
3, 318728, Note_off_c, 1, 49, 0
3, 318744, Note_off_c, 1, 52, 0
3, 318760, Note_off_c, 1, 57, 0
3, 318760, End_track
4, 0, Start_track
4, 0, Title_t, "K331-a-AndanteGrazioso"
4, 0, Key_signature, 3, "major"
4, 125568, Key_signature, 0, "major"
4, 167040, Key_signature, 3, "major"
4, 167040, End_track
5, 0, Start_track
5, 0, Title_t, "Midi by:"
5, 0, Key_signature, 3, "major"
5, 0, End_track
6, 0, Start_track
6, 0, Title_t, "B.Fisher"
6, 0, Key_signature, 3, "major"
6, 0, End_track
7, 0, Start_track
7, 0, Key_signature, 3, "major"
7, 0, End_track
8, 0, Start_track
8, 0, Key_signature, 3, "major"
8, 0, End_track
9, 0, Start_track
9, 0, Key_signature, 3, "major"
9, 0, End_track
10, 0, Start_track
10, 0, Key_signature, 3, "major"
10, 0, End_track
11, 0, Start_track
11, 0, Key_signature, 3, "major"
11, 0, End_track
12, 0, Start_track
12, 0, Key_signature, 3, "major"
12, 0, End_track
13, 0, Start_track
13, 0, Key_signature, 3, "major"
13, 0, End_track
14, 0, Start_track
14, 0, Key_signature, 3, "major"
14, 0, End_track
15, 0, Start_track
15, 0, Key_signature, 3, "major"
15, 0, End_track
16, 0, Start_track
16, 0, Key_signature, 3, "major"
16, 0, End_track
17, 0, Start_track
17, 0, Key_signature, 0, "major"
17, 0, End_track
18, 0, Start_track
18, 0, Key_signature, 0, "major"
18, 0, End_track
19, 0, Start_track
19, 0, Key_signature, 0, "major"
19, 0, End_track
20, 0, Start_track
20, 0, Key_signature, 0, "major"
20, 0, End_track
21, 0, Start_track
21, 0, Key_signature, 0, "major"
21, 0, End_track
0, 0, End_of_file
