0, 0, Header, 1, 17, 384
1, 0, Start_track
1, 0, Time_signature, 4, 2, 96, 8
1, 0, Sequencer_specific, 3, 0, 0, 65
1, 0, Tempo, 517241
1, 0, End_track
2, 0, Start_track
2, 0, Control_c, 0, 0, 0
2, 0, Program_c, 0, 0
2, 0, Control_c, 0, 7, 80
2, 0, Control_c, 0, 10, 87
2, 0, Control_c, 0, 91, 49
2, 0, Control_c, 0, 93, 46
2, 0, Key_signature, 0, "major"
2, 0, Control_c, 0, 121, 0
2, 96, Control_c, 0, 10, 73
2, 144, Control_c, 0, 91, 63
2, 192, Control_c, 0, 93, 40
2, 288, Program_c, 0, 0
2, 1536, Note_on_c, 0, 75, 90
2, 1580, Note_off_c, 0, 75, 0
2, 1584, Note_on_c, 0, 76, 90
2, 1912, Note_off_c, 0, 76, 0
2, 1920, Note_on_c, 0, 76, 90
2, 2204, Note_off_c, 0, 76, 0
2, 2208, Note_on_c, 0, 76, 90
2, 2300, Note_off_c, 0, 76, 0
2, 2304, Note_on_c, 0, 76, 90
2, 2684, Note_off_c, 0, 76, 0
2, 2688, Note_on_c, 0, 72, 90
2, 2972, Note_off_c, 0, 72, 0
2, 2976, Note_on_c, 0, 69, 90
2, 3068, Note_off_c, 0, 69, 0
2, 3072, Note_on_c, 0, 69, 82
2, 3260, Note_off_c, 0, 69, 0
2, 3264, Note_on_c, 0, 68, 82
2, 3452, Note_off_c, 0, 68, 0
2, 3456, Note_on_c, 0, 68, 82
2, 4220, Note_off_c, 0, 68, 0
2, 4224, Note_on_c, 0, 74, 82
2, 4508, Note_off_c, 0, 74, 0
2, 4512, Note_on_c, 0, 71, 82
2, 4604, Note_off_c, 0, 71, 0
2, 4608, Note_on_c, 0, 76, 75
2, 4988, Note_off_c, 0, 76, 0
2, 4992, Note_on_c, 0, 76, 75
2, 5276, Note_off_c, 0, 76, 0
2, 5280, Note_on_c, 0, 76, 75
2, 5372, Note_off_c, 0, 76, 0
2, 5376, Note_on_c, 0, 76, 75
2, 5564, Note_off_c, 0, 76, 0
2, 5568, Note_on_c, 0, 77, 75
2, 5660, Note_off_c, 0, 77, 0
2, 5664, Note_on_c, 0, 76, 75
2, 5756, Note_off_c, 0, 76, 0
2, 5760, Note_on_c, 0, 74, 75
2, 5852, Note_off_c, 0, 74, 0
2, 5856, Note_on_c, 0, 72, 75
2, 5948, Note_off_c, 0, 72, 0
2, 5952, Note_on_c, 0, 71, 75
2, 6044, Note_off_c, 0, 71, 0
2, 6048, Note_on_c, 0, 69, 75
2, 6140, Note_off_c, 0, 69, 0
2, 6144, Note_on_c, 0, 69, 75
2, 6332, Note_off_c, 0, 69, 0
2, 6336, Note_on_c, 0, 68, 75
2, 6524, Note_off_c, 0, 68, 0
2, 6528, Note_on_c, 0, 68, 75
2, 7292, Note_off_c, 0, 68, 0
2, 7296, Note_on_c, 0, 74, 75
2, 7580, Note_off_c, 0, 74, 0
2, 7584, Note_on_c, 0, 71, 75
2, 7676, Note_off_c, 0, 71, 0
2, 7680, Note_on_c, 0, 76, 75
2, 7680, Note_on_c, 0, 72, 75
2, 7964, Note_off_c, 0, 76, 0
2, 7964, Note_off_c, 0, 72, 0
2, 7968, Note_on_c, 0, 72, 75
2, 7968, Note_on_c, 0, 69, 75
2, 8060, Note_off_c, 0, 72, 0
2, 8060, Note_off_c, 0, 69, 0
2, 8064, Note_on_c, 0, 76, 75
2, 8064, Note_on_c, 0, 72, 75
2, 8444, Note_off_c, 0, 76, 0
2, 8444, Note_off_c, 0, 72, 0
2, 8640, Note_on_c, 0, 72, 60
2, 8640, Note_on_c, 0, 69, 60
2, 8828, Note_off_c, 0, 72, 0
2, 8828, Note_off_c, 0, 69, 0
2, 8832, Note_on_c, 0, 74, 60
2, 8832, Note_on_c, 0, 71, 60
2, 9020, Note_off_c, 0, 74, 0
2, 9020, Note_off_c, 0, 71, 0
2, 9024, Note_on_c, 0, 76, 60
2, 9024, Note_on_c, 0, 72, 60
2, 9212, Note_off_c, 0, 76, 0
2, 9212, Note_off_c, 0, 72, 0
2, 9216, Note_on_c, 0, 76, 90
2, 9216, Note_on_c, 0, 73, 90
2, 9596, Note_off_c, 0, 76, 0
2, 9596, Note_off_c, 0, 73, 0
2, 9600, Note_on_c, 0, 77, 90
2, 9600, Note_on_c, 0, 74, 90
2, 9788, Note_off_c, 0, 77, 0
2, 9788, Note_off_c, 0, 74, 0
2, 10176, Note_on_c, 0, 71, 60
2, 10176, Note_on_c, 0, 67, 60
2, 10364, Note_off_c, 0, 71, 0
2, 10364, Note_off_c, 0, 67, 0
2, 10368, Note_on_c, 0, 72, 60
2, 10368, Note_on_c, 0, 69, 60
2, 10556, Note_off_c, 0, 72, 0
2, 10556, Note_off_c, 0, 69, 0
2, 10560, Note_on_c, 0, 74, 60
2, 10560, Note_on_c, 0, 71, 60
2, 10748, Note_off_c, 0, 74, 0
2, 10748, Note_off_c, 0, 71, 0
2, 10752, Note_on_c, 0, 75, 90
2, 10752, Note_on_c, 0, 71, 90
2, 11132, Note_off_c, 0, 75, 0
2, 11132, Note_off_c, 0, 71, 0
2, 11136, Note_on_c, 0, 76, 90
2, 11136, Note_on_c, 0, 72, 90
2, 11324, Note_off_c, 0, 76, 0
2, 11324, Note_off_c, 0, 72, 0
2, 11712, Note_on_c, 0, 69, 60
2, 11712, Note_on_c, 0, 65, 60
2, 11900, Note_off_c, 0, 69, 0
2, 11900, Note_off_c, 0, 65, 0
2, 11904, Note_on_c, 0, 71, 60
2, 11904, Note_on_c, 0, 68, 60
2, 12092, Note_off_c, 0, 71, 0
2, 12092, Note_off_c, 0, 68, 0
2, 12096, Note_on_c, 0, 72, 60
2, 12096, Note_on_c, 0, 69, 60
2, 12284, Note_off_c, 0, 72, 0
2, 12284, Note_off_c, 0, 69, 0
2, 12288, Note_on_c, 0, 72, 75
2, 12572, Note_off_c, 0, 72, 0
2, 12576, Note_on_c, 0, 71, 75
2, 12668, Note_off_c, 0, 71, 0
2, 12672, Note_on_c, 0, 77, 75
2, 12956, Note_off_c, 0, 77, 0
2, 12960, Note_on_c, 0, 74, 75
2, 13052, Note_off_c, 0, 74, 0
2, 13056, Note_on_c, 0, 72, 75
2, 13340, Note_off_c, 0, 72, 0
2, 13344, Note_on_c, 0, 76, 75
2, 13436, Note_off_c, 0, 76, 0
2, 13440, Note_on_c, 0, 74, 75
2, 13724, Note_off_c, 0, 74, 0
2, 13728, Note_on_c, 0, 71, 75
2, 13820, Note_off_c, 0, 71, 0
2, 13824, Note_on_c, 0, 75, 90
2, 13868, Note_off_c, 0, 75, 0
2, 13872, Note_on_c, 0, 76, 90
2, 14208, Note_on_c, 0, 76, 90
2, 14252, Note_off_c, 0, 76, 0
2, 14492, Note_off_c, 0, 76, 0
2, 14496, Note_on_c, 0, 76, 90
2, 14588, Note_off_c, 0, 76, 0
2, 14592, Note_on_c, 0, 76, 90
2, 14780, Note_off_c, 0, 76, 0
2, 14784, Note_on_c, 0, 77, 90
2, 14876, Note_off_c, 0, 77, 0
2, 14880, Note_on_c, 0, 76, 90
2, 14972, Note_off_c, 0, 76, 0
2, 14976, Note_on_c, 0, 74, 90
2, 15068, Note_off_c, 0, 74, 0
2, 15072, Note_on_c, 0, 72, 90
2, 15164, Note_off_c, 0, 72, 0
2, 15168, Note_on_c, 0, 71, 90
2, 15260, Note_off_c, 0, 71, 0
2, 15264, Note_on_c, 0, 69, 90
2, 15356, Note_off_c, 0, 69, 0
2, 15360, Note_on_c, 0, 69, 82
2, 15548, Note_off_c, 0, 69, 0
2, 15552, Note_on_c, 0, 68, 82
2, 15740, Note_off_c, 0, 68, 0
2, 15744, Note_on_c, 0, 68, 82
2, 16124, Note_off_c, 0, 68, 0
2, 16128, Note_on_c, 0, 68, 82
2, 16412, Note_off_c, 0, 68, 0
2, 16416, Note_on_c, 0, 68, 82
2, 16508, Note_off_c, 0, 68, 0
2, 16512, Note_on_c, 0, 74, 82
2, 16796, Note_off_c, 0, 74, 0
2, 16800, Note_on_c, 0, 71, 82
2, 16892, Note_off_c, 0, 71, 0
2, 16896, Note_on_c, 0, 76, 75
2, 17276, Note_off_c, 0, 76, 0
2, 17280, Note_on_c, 0, 76, 75
2, 17564, Note_off_c, 0, 76, 0
2, 17568, Note_on_c, 0, 76, 75
2, 17660, Note_off_c, 0, 76, 0
2, 17664, Note_on_c, 0, 75, 75
2, 17756, Note_off_c, 0, 75, 0
2, 17760, Note_on_c, 0, 76, 75
2, 17852, Note_off_c, 0, 76, 0
2, 17856, Note_on_c, 0, 77, 75
2, 17948, Note_off_c, 0, 77, 0
2, 17952, Note_on_c, 0, 76, 75
2, 18044, Note_off_c, 0, 76, 0
2, 18048, Note_on_c, 0, 74, 75
2, 18140, Note_off_c, 0, 74, 0
2, 18144, Note_on_c, 0, 72, 75
2, 18236, Note_off_c, 0, 72, 0
2, 18240, Note_on_c, 0, 71, 75
2, 18332, Note_off_c, 0, 71, 0
2, 18336, Note_on_c, 0, 69, 75
2, 18428, Note_off_c, 0, 69, 0
2, 18432, Note_on_c, 0, 72, 75
2, 18620, Note_off_c, 0, 72, 0
2, 18624, Note_on_c, 0, 70, 75
2, 18812, Note_off_c, 0, 70, 0
2, 18816, Note_on_c, 0, 70, 75
2, 19196, Note_off_c, 0, 70, 0
2, 19200, Note_on_c, 0, 70, 75
2, 19484, Note_off_c, 0, 70, 0
2, 19488, Note_on_c, 0, 76, 75
2, 19580, Note_off_c, 0, 76, 0
2, 19584, Note_on_c, 0, 79, 79
2, 19868, Note_off_c, 0, 79, 0
2, 19872, Note_on_c, 0, 82, 82
2, 19964, Note_off_c, 0, 82, 0
2, 19968, Note_on_c, 0, 82, 82
2, 20156, Note_off_c, 0, 82, 0
2, 20160, Note_on_c, 0, 81, 79
2, 20348, Note_off_c, 0, 81, 0
2, 20352, Note_on_c, 0, 77, 75
2, 20540, Note_off_c, 0, 77, 0
2, 20544, Note_on_c, 0, 74, 75
2, 20732, Note_off_c, 0, 74, 0
2, 20736, Note_on_c, 0, 74, 75
2, 20924, Note_off_c, 0, 74, 0
2, 20928, Note_on_c, 0, 73, 75
2, 21116, Note_off_c, 0, 73, 0
2, 21120, Note_on_c, 0, 76, 75
2, 21308, Note_off_c, 0, 76, 0
2, 21312, Note_on_c, 0, 79, 75
2, 21500, Note_off_c, 0, 79, 0
2, 21504, Note_on_c, 0, 79, 75
2, 21692, Note_off_c, 0, 79, 0
2, 21696, Note_on_c, 0, 78, 75
2, 21884, Note_off_c, 0, 78, 0
2, 22080, Note_on_c, 0, 77, 75
2, 22268, Note_off_c, 0, 77, 0
2, 22464, Note_on_c, 0, 75, 75
2, 22652, Note_off_c, 0, 75, 0
2, 22848, Note_on_c, 0, 76, 75
2, 23036, Note_off_c, 0, 76, 0
2, 23040, Note_on_c, 0, 76, 60
2, 23228, Note_off_c, 0, 76, 0
2, 23232, Note_on_c, 0, 74, 60
2, 23420, Note_off_c, 0, 74, 0
2, 23424, Note_on_c, 0, 74, 60
2, 23996, Note_off_c, 0, 74, 0
2, 24000, Note_on_c, 0, 76, 60
2, 24092, Note_off_c, 0, 76, 0
2, 24096, Note_on_c, 0, 74, 60
2, 24188, Note_off_c, 0, 74, 0
2, 24192, Note_on_c, 0, 74, 60
2, 24284, Note_off_c, 0, 74, 0
2, 24288, Note_on_c, 0, 72, 60
2, 24380, Note_off_c, 0, 72, 0
2, 24384, Note_on_c, 0, 71, 60
2, 24476, Note_off_c, 0, 71, 0
2, 24480, Note_on_c, 0, 72, 60
2, 24572, Note_off_c, 0, 72, 0
2, 24576, Note_on_c, 0, 71, 60
2, 24956, Note_off_c, 0, 71, 0
2, 24960, Note_on_c, 0, 79, 90
2, 25244, Note_off_c, 0, 79, 0
2, 25248, Note_on_c, 0, 79, 90
2, 25340, Note_off_c, 0, 79, 0
2, 25344, Note_on_c, 0, 79, 90
2, 25724, Note_off_c, 0, 79, 0
2, 25728, Note_on_c, 0, 79, 90
2, 26108, Note_off_c, 0, 79, 0
2, 26112, Note_on_c, 0, 72, 75
2, 26112, Note_on_c, 0, 84, 75
2, 26684, Note_off_c, 0, 84, 0
2, 26688, Note_on_c, 0, 82, 75
2, 26780, Note_off_c, 0, 82, 0
2, 26784, Note_on_c, 0, 80, 75
2, 26876, Note_off_c, 0, 80, 0
2, 26880, Note_on_c, 0, 79, 75
2, 27260, Note_off_c, 0, 79, 0
2, 27264, Note_on_c, 0, 78, 75
2, 27644, Note_off_c, 0, 72, 0
2, 27644, Note_off_c, 0, 78, 0
2, 27648, Note_on_c, 0, 79, 75
2, 27648, Note_on_c, 0, 71, 75
2, 28028, Note_off_c, 0, 79, 0
2, 28028, Note_off_c, 0, 71, 0
2, 28032, Note_on_c, 0, 79, 60
2, 28316, Note_off_c, 0, 79, 0
2, 28320, Note_on_c, 0, 79, 60
2, 28412, Note_off_c, 0, 79, 0
2, 28416, Note_on_c, 0, 79, 60
2, 28796, Note_off_c, 0, 79, 0
2, 28800, Note_on_c, 0, 79, 60
2, 29180, Note_off_c, 0, 79, 0
2, 29184, Note_on_c, 0, 84, 75
2, 29756, Note_off_c, 0, 84, 0
2, 29760, Note_on_c, 0, 82, 75
2, 29852, Note_off_c, 0, 82, 0
2, 29856, Note_on_c, 0, 80, 75
2, 29948, Note_off_c, 0, 80, 0
2, 29952, Note_on_c, 0, 79, 75
2, 30332, Note_off_c, 0, 79, 0
2, 30336, Note_on_c, 0, 78, 75
2, 30716, Note_off_c, 0, 78, 0
2, 30720, Note_on_c, 0, 79, 82
2, 30812, Note_off_c, 0, 79, 0
2, 30816, Note_on_c, 0, 74, 82
2, 30908, Note_off_c, 0, 74, 0
2, 30912, Note_on_c, 0, 71, 82
2, 31004, Note_off_c, 0, 71, 0
2, 31008, Note_on_c, 0, 74, 82
2, 31100, Note_off_c, 0, 74, 0
2, 31104, Note_on_c, 0, 79, 82
2, 31196, Note_off_c, 0, 79, 0
2, 31200, Note_on_c, 0, 75, 82
2, 31292, Note_off_c, 0, 75, 0
2, 31296, Note_on_c, 0, 72, 82
2, 31388, Note_off_c, 0, 72, 0
2, 31392, Note_on_c, 0, 75, 82
2, 31484, Note_off_c, 0, 75, 0
2, 31488, Note_on_c, 0, 79, 82
2, 31580, Note_off_c, 0, 79, 0
2, 31584, Note_on_c, 0, 74, 82
2, 31676, Note_off_c, 0, 74, 0
2, 31680, Note_on_c, 0, 71, 82
2, 31772, Note_off_c, 0, 71, 0
2, 31776, Note_on_c, 0, 74, 82
2, 31868, Note_off_c, 0, 74, 0
2, 31872, Note_on_c, 0, 79, 82
2, 31964, Note_off_c, 0, 79, 0
2, 31968, Note_on_c, 0, 75, 82
2, 32060, Note_off_c, 0, 75, 0
2, 32064, Note_on_c, 0, 72, 82
2, 32156, Note_off_c, 0, 72, 0
2, 32160, Note_on_c, 0, 75, 82
2, 32252, Note_off_c, 0, 75, 0
2, 32256, Note_on_c, 0, 79, 82
2, 32348, Note_off_c, 0, 79, 0
2, 32352, Note_on_c, 0, 74, 82
2, 32444, Note_off_c, 0, 74, 0
2, 32448, Note_on_c, 0, 71, 82
2, 32540, Note_off_c, 0, 71, 0
2, 32544, Note_on_c, 0, 74, 82
2, 32636, Note_off_c, 0, 74, 0
2, 32640, Note_on_c, 0, 79, 82
2, 32732, Note_off_c, 0, 79, 0
2, 32736, Note_on_c, 0, 76, 82
2, 32828, Note_off_c, 0, 76, 0
2, 32832, Note_on_c, 0, 72, 82
2, 32924, Note_off_c, 0, 72, 0
2, 32928, Note_on_c, 0, 76, 82
2, 33020, Note_off_c, 0, 76, 0
2, 33024, Note_on_c, 0, 74, 82
2, 33024, Note_on_c, 0, 71, 82
2, 33116, Note_off_c, 0, 74, 0
2, 33120, Note_on_c, 0, 79, 82
2, 33212, Note_off_c, 0, 71, 0
2, 33212, Note_off_c, 0, 79, 0
2, 33216, Note_on_c, 0, 76, 82
2, 33216, Note_on_c, 0, 72, 82
2, 33308, Note_off_c, 0, 76, 0
2, 33312, Note_on_c, 0, 79, 82
2, 33404, Note_off_c, 0, 72, 0
2, 33404, Note_off_c, 0, 79, 0
2, 33408, Note_on_c, 0, 74, 82
2, 33408, Note_on_c, 0, 71, 82
2, 33500, Note_off_c, 0, 74, 0
2, 33504, Note_on_c, 0, 79, 82
2, 33596, Note_off_c, 0, 71, 0
2, 33596, Note_off_c, 0, 79, 0
2, 33600, Note_on_c, 0, 76, 82
2, 33600, Note_on_c, 0, 72, 82
2, 33692, Note_off_c, 0, 76, 0
2, 33696, Note_on_c, 0, 79, 82
2, 33788, Note_off_c, 0, 72, 0
2, 33788, Note_off_c, 0, 79, 0
2, 33792, Note_on_c, 0, 74, 82
2, 33792, Note_on_c, 0, 71, 82
2, 34172, Note_off_c, 0, 74, 0
2, 34172, Note_off_c, 0, 71, 0
2, 34176, Note_on_c, 0, 79, 82
2, 34176, Note_on_c, 0, 74, 82
2, 34176, Note_on_c, 0, 71, 82
2, 34176, Note_on_c, 0, 67, 82
2, 34556, Note_off_c, 0, 79, 0
2, 34556, Note_off_c, 0, 74, 0
2, 34556, Note_off_c, 0, 71, 0
2, 34556, Note_off_c, 0, 67, 0
2, 34752, Note_on_c, 0, 79, 60
2, 34940, Note_off_c, 0, 79, 0
2, 34944, Note_on_c, 0, 81, 60
2, 35132, Note_off_c, 0, 81, 0
2, 35136, Note_on_c, 0, 83, 60
2, 35324, Note_off_c, 0, 83, 0
2, 35328, Note_on_c, 0, 84, 75
2, 35328, Note_on_c, 0, 64, 75
2, 35328, Note_on_c, 0, 67, 75
2, 35420, Note_off_c, 0, 84, 0
2, 35424, Note_on_c, 0, 86, 75
2, 35516, Note_off_c, 0, 64, 0
2, 35516, Note_off_c, 0, 67, 0
2, 35516, Note_off_c, 0, 86, 0
2, 35520, Note_on_c, 0, 83, 75
2, 35520, Note_on_c, 0, 67, 75
2, 35520, Note_on_c, 0, 64, 75
2, 35612, Note_off_c, 0, 83, 0
2, 35616, Note_on_c, 0, 86, 75
2, 35708, Note_off_c, 0, 67, 0
2, 35708, Note_off_c, 0, 64, 0
2, 35708, Note_off_c, 0, 86, 0
2, 35712, Note_on_c, 0, 84, 75
2, 35712, Note_on_c, 0, 64, 75
2, 35712, Note_on_c, 0, 67, 75
2, 35804, Note_off_c, 0, 84, 0
2, 35808, Note_on_c, 0, 86, 75
2, 35900, Note_off_c, 0, 64, 0
2, 35900, Note_off_c, 0, 67, 0
2, 35900, Note_off_c, 0, 86, 0
2, 35904, Note_on_c, 0, 83, 75
2, 35904, Note_on_c, 0, 67, 75
2, 35904, Note_on_c, 0, 64, 75
2, 35996, Note_off_c, 0, 83, 0
2, 36000, Note_on_c, 0, 86, 75
2, 36092, Note_off_c, 0, 67, 0
2, 36092, Note_off_c, 0, 64, 0
2, 36092, Note_off_c, 0, 86, 0
2, 36096, Note_on_c, 0, 84, 75
2, 36096, Note_on_c, 0, 67, 75
2, 36096, Note_on_c, 0, 64, 75
2, 36188, Note_off_c, 0, 84, 0
2, 36192, Note_on_c, 0, 86, 75
2, 36284, Note_off_c, 0, 86, 0
2, 36288, Note_on_c, 0, 83, 75
2, 36380, Note_off_c, 0, 83, 0
2, 36384, Note_on_c, 0, 84, 75
2, 36476, Note_off_c, 0, 67, 0
2, 36476, Note_off_c, 0, 64, 0
2, 36476, Note_off_c, 0, 84, 0
2, 36480, Note_on_c, 0, 81, 75
2, 36572, Note_off_c, 0, 81, 0
2, 36576, Note_on_c, 0, 83, 75
2, 36668, Note_off_c, 0, 83, 0
2, 36672, Note_on_c, 0, 79, 75
2, 36764, Note_off_c, 0, 79, 0
2, 36768, Note_on_c, 0, 81, 75
2, 36860, Note_off_c, 0, 81, 0
2, 36864, Note_on_c, 0, 77, 75
2, 36864, Note_on_c, 0, 69, 75
2, 36864, Note_on_c, 0, 62, 75
2, 36956, Note_off_c, 0, 77, 0
2, 36960, Note_on_c, 0, 79, 75
2, 37052, Note_off_c, 0, 69, 0
2, 37052, Note_off_c, 0, 62, 0
2, 37052, Note_off_c, 0, 79, 0
2, 37056, Note_on_c, 0, 76, 75
2, 37056, Note_on_c, 0, 69, 75
2, 37056, Note_on_c, 0, 62, 75
2, 37148, Note_off_c, 0, 76, 0
2, 37152, Note_on_c, 0, 79, 75
2, 37244, Note_off_c, 0, 69, 0
2, 37244, Note_off_c, 0, 62, 0
2, 37244, Note_off_c, 0, 79, 0
2, 37248, Note_on_c, 0, 77, 75
2, 37248, Note_on_c, 0, 69, 75
2, 37248, Note_on_c, 0, 62, 75
2, 37340, Note_off_c, 0, 77, 0
2, 37344, Note_on_c, 0, 79, 75
2, 37436, Note_off_c, 0, 69, 0
2, 37436, Note_off_c, 0, 62, 0
2, 37436, Note_off_c, 0, 79, 0
2, 37440, Note_on_c, 0, 76, 75
2, 37440, Note_on_c, 0, 69, 75
2, 37440, Note_on_c, 0, 62, 75
2, 37532, Note_off_c, 0, 76, 0
2, 37536, Note_on_c, 0, 79, 75
2, 37628, Note_off_c, 0, 69, 0
2, 37628, Note_off_c, 0, 62, 0
2, 37628, Note_off_c, 0, 79, 0
2, 37632, Note_on_c, 0, 77, 75
2, 37632, Note_on_c, 0, 69, 75
2, 37632, Note_on_c, 0, 62, 75
2, 37724, Note_off_c, 0, 77, 0
2, 37728, Note_on_c, 0, 79, 75
2, 37820, Note_off_c, 0, 79, 0
2, 37824, Note_on_c, 0, 76, 75
2, 37916, Note_off_c, 0, 76, 0
2, 37920, Note_on_c, 0, 77, 75
2, 38012, Note_off_c, 0, 69, 0
2, 38012, Note_off_c, 0, 62, 0
2, 38012, Note_off_c, 0, 77, 0
2, 38016, Note_on_c, 0, 74, 75
2, 38108, Note_off_c, 0, 74, 0
2, 38112, Note_on_c, 0, 76, 75
2, 38204, Note_off_c, 0, 76, 0
2, 38208, Note_on_c, 0, 72, 75
2, 38300, Note_off_c, 0, 72, 0
2, 38304, Note_on_c, 0, 74, 75
2, 38396, Note_off_c, 0, 74, 0
2, 38400, Note_on_c, 0, 71, 75
2, 38492, Note_off_c, 0, 71, 0
2, 38496, Note_on_c, 0, 72, 75
2, 38588, Note_off_c, 0, 72, 0
2, 38592, Note_on_c, 0, 69, 75
2, 38684, Note_off_c, 0, 69, 0
2, 38688, Note_on_c, 0, 72, 75
2, 38780, Note_off_c, 0, 72, 0
2, 38784, Note_on_c, 0, 71, 75
2, 38876, Note_off_c, 0, 71, 0
2, 38880, Note_on_c, 0, 72, 75
2, 38972, Note_off_c, 0, 72, 0
2, 38976, Note_on_c, 0, 69, 75
2, 39068, Note_off_c, 0, 69, 0
2, 39072, Note_on_c, 0, 72, 75
2, 39164, Note_off_c, 0, 72, 0
2, 39168, Note_on_c, 0, 71, 75
2, 39260, Note_off_c, 0, 71, 0
2, 39264, Note_on_c, 0, 72, 75
2, 39356, Note_off_c, 0, 72, 0
2, 39360, Note_on_c, 0, 69, 75
2, 39452, Note_off_c, 0, 69, 0
2, 39456, Note_on_c, 0, 71, 75
2, 39548, Note_off_c, 0, 71, 0
2, 39552, Note_on_c, 0, 67, 75
2, 39644, Note_off_c, 0, 67, 0
2, 39648, Note_on_c, 0, 69, 75
2, 39740, Note_off_c, 0, 69, 0
2, 39744, Note_on_c, 0, 65, 75
2, 39836, Note_off_c, 0, 65, 0
2, 39840, Note_on_c, 0, 67, 75
2, 39932, Note_off_c, 0, 67, 0
2, 39936, Note_on_c, 0, 64, 75
2, 40028, Note_off_c, 0, 64, 0
2, 40032, Note_on_c, 0, 67, 75
2, 40124, Note_off_c, 0, 67, 0
2, 40128, Note_on_c, 0, 65, 75
2, 40220, Note_off_c, 0, 65, 0
2, 40224, Note_on_c, 0, 64, 75
2, 40316, Note_off_c, 0, 64, 0
2, 40320, Note_on_c, 0, 65, 75
2, 40412, Note_off_c, 0, 65, 0
2, 40416, Note_on_c, 0, 67, 75
2, 40508, Note_off_c, 0, 67, 0
2, 40512, Note_on_c, 0, 69, 75
2, 40604, Note_off_c, 0, 69, 0
2, 40608, Note_on_c, 0, 71, 75
2, 40700, Note_off_c, 0, 71, 0
2, 40704, Note_on_c, 0, 72, 75
2, 40796, Note_off_c, 0, 72, 0
2, 40800, Note_on_c, 0, 74, 75
2, 40892, Note_off_c, 0, 74, 0
2, 40896, Note_on_c, 0, 72, 75
2, 40988, Note_off_c, 0, 72, 0
2, 40992, Note_on_c, 0, 71, 75
2, 41084, Note_off_c, 0, 71, 0
2, 41088, Note_on_c, 0, 72, 75
2, 41180, Note_off_c, 0, 72, 0
2, 41184, Note_on_c, 0, 74, 75
2, 41276, Note_off_c, 0, 74, 0
2, 41280, Note_on_c, 0, 76, 75
2, 41372, Note_off_c, 0, 76, 0
2, 41376, Note_on_c, 0, 77, 75
2, 41468, Note_off_c, 0, 77, 0
2, 41472, Note_on_c, 0, 79, 60
2, 41564, Note_off_c, 0, 79, 0
2, 41568, Note_on_c, 0, 81, 60
2, 41660, Note_off_c, 0, 81, 0
2, 41664, Note_on_c, 0, 78, 60
2, 41756, Note_off_c, 0, 78, 0
2, 41760, Note_on_c, 0, 81, 60
2, 41852, Note_off_c, 0, 81, 0
2, 41856, Note_on_c, 0, 79, 60
2, 41948, Note_off_c, 0, 79, 0
2, 41952, Note_on_c, 0, 81, 60
2, 42044, Note_off_c, 0, 81, 0
2, 42048, Note_on_c, 0, 78, 60
2, 42140, Note_off_c, 0, 78, 0
2, 42144, Note_on_c, 0, 81, 60
2, 42236, Note_off_c, 0, 81, 0
2, 42240, Note_on_c, 0, 79, 60
2, 42332, Note_off_c, 0, 79, 0
2, 42336, Note_on_c, 0, 84, 60
2, 42428, Note_off_c, 0, 84, 0
2, 42432, Note_on_c, 0, 83, 60
2, 42524, Note_off_c, 0, 83, 0
2, 42528, Note_on_c, 0, 84, 60
2, 42620, Note_off_c, 0, 84, 0
2, 42624, Note_on_c, 0, 86, 60
2, 42716, Note_off_c, 0, 86, 0
2, 42720, Note_on_c, 0, 84, 60
2, 42812, Note_off_c, 0, 84, 0
2, 42816, Note_on_c, 0, 83, 60
2, 42908, Note_off_c, 0, 83, 0
2, 42912, Note_on_c, 0, 84, 60
2, 43004, Note_off_c, 0, 84, 0
2, 43008, Note_on_c, 0, 83, 75
2, 43100, Note_off_c, 0, 83, 0
2, 43104, Note_on_c, 0, 81, 75
2, 43196, Note_off_c, 0, 81, 0
2, 43200, Note_on_c, 0, 80, 75
2, 43292, Note_off_c, 0, 80, 0
2, 43296, Note_on_c, 0, 81, 75
2, 43388, Note_off_c, 0, 81, 0
2, 43392, Note_on_c, 0, 79, 75
2, 43484, Note_off_c, 0, 79, 0
2, 43488, Note_on_c, 0, 77, 75
2, 43580, Note_off_c, 0, 77, 0
2, 43584, Note_on_c, 0, 76, 75
2, 43676, Note_off_c, 0, 76, 0
2, 43680, Note_on_c, 0, 77, 75
2, 43772, Note_off_c, 0, 77, 0
2, 43776, Note_on_c, 0, 76, 75
2, 43868, Note_off_c, 0, 76, 0
2, 43872, Note_on_c, 0, 74, 75
2, 43964, Note_off_c, 0, 74, 0
2, 43968, Note_on_c, 0, 73, 75
2, 44060, Note_off_c, 0, 73, 0
2, 44064, Note_on_c, 0, 74, 75
2, 44156, Note_off_c, 0, 74, 0
2, 44160, Note_on_c, 0, 73, 75
2, 44252, Note_off_c, 0, 73, 0
2, 44256, Note_on_c, 0, 74, 75
2, 44348, Note_off_c, 0, 74, 0
2, 44352, Note_on_c, 0, 76, 75
2, 44444, Note_off_c, 0, 76, 0
2, 44448, Note_on_c, 0, 77, 75
2, 44540, Note_off_c, 0, 77, 0
2, 44544, Note_on_c, 0, 81, 75
2, 44636, Note_off_c, 0, 81, 0
2, 44640, Note_on_c, 0, 79, 75
2, 44732, Note_off_c, 0, 79, 0
2, 44736, Note_on_c, 0, 78, 75
2, 44828, Note_off_c, 0, 78, 0
2, 44832, Note_on_c, 0, 79, 75
2, 44924, Note_off_c, 0, 79, 0
2, 44928, Note_on_c, 0, 77, 75
2, 45020, Note_off_c, 0, 77, 0
2, 45024, Note_on_c, 0, 76, 75
2, 45116, Note_off_c, 0, 76, 0
2, 45120, Note_on_c, 0, 74, 75
2, 45212, Note_off_c, 0, 74, 0
2, 45216, Note_on_c, 0, 76, 75
2, 45308, Note_off_c, 0, 76, 0
2, 45312, Note_on_c, 0, 74, 75
2, 45404, Note_off_c, 0, 74, 0
2, 45408, Note_on_c, 0, 72, 75
2, 45500, Note_off_c, 0, 72, 0
2, 45504, Note_on_c, 0, 71, 75
2, 45596, Note_off_c, 0, 71, 0
2, 45600, Note_on_c, 0, 72, 75
2, 45692, Note_off_c, 0, 72, 0
2, 45696, Note_on_c, 0, 71, 75
2, 45788, Note_off_c, 0, 71, 0
2, 45792, Note_on_c, 0, 72, 75
2, 45884, Note_off_c, 0, 72, 0
2, 45888, Note_on_c, 0, 74, 75
2, 45980, Note_off_c, 0, 74, 0
2, 45984, Note_on_c, 0, 76, 75
2, 46076, Note_off_c, 0, 76, 0
2, 46080, Note_on_c, 0, 77, 75
2, 46172, Note_off_c, 0, 77, 0
2, 46176, Note_on_c, 0, 79, 75
2, 46268, Note_off_c, 0, 79, 0
2, 46272, Note_on_c, 0, 76, 75
2, 46364, Note_off_c, 0, 76, 0
2, 46368, Note_on_c, 0, 77, 75
2, 46460, Note_off_c, 0, 77, 0
2, 46464, Note_on_c, 0, 74, 75
2, 46556, Note_off_c, 0, 74, 0
2, 46560, Note_on_c, 0, 76, 75
2, 46652, Note_off_c, 0, 76, 0
2, 46656, Note_on_c, 0, 72, 75
2, 46748, Note_off_c, 0, 72, 0
2, 46752, Note_on_c, 0, 74, 75
2, 46844, Note_off_c, 0, 74, 0
2, 46848, Note_on_c, 0, 71, 75
2, 46940, Note_off_c, 0, 71, 0
2, 46944, Note_on_c, 0, 72, 75
2, 47036, Note_off_c, 0, 72, 0
2, 47040, Note_on_c, 0, 69, 75
2, 47132, Note_off_c, 0, 69, 0
2, 47136, Note_on_c, 0, 71, 75
2, 47228, Note_off_c, 0, 71, 0
2, 47232, Note_on_c, 0, 67, 75
2, 47324, Note_off_c, 0, 67, 0
2, 47328, Note_on_c, 0, 69, 75
2, 47420, Note_off_c, 0, 69, 0
2, 47424, Note_on_c, 0, 65, 75
2, 47516, Note_off_c, 0, 65, 0
2, 47520, Note_on_c, 0, 67, 75
2, 47612, Note_off_c, 0, 67, 0
2, 47616, Note_on_c, 0, 64, 75
2, 47708, Note_off_c, 0, 64, 0
2, 47712, Note_on_c, 0, 67, 75
2, 47804, Note_off_c, 0, 67, 0
2, 47808, Note_on_c, 0, 65, 75
2, 47900, Note_off_c, 0, 65, 0
2, 47904, Note_on_c, 0, 64, 75
2, 47996, Note_off_c, 0, 64, 0
2, 48000, Note_on_c, 0, 65, 75
2, 48092, Note_off_c, 0, 65, 0
2, 48096, Note_on_c, 0, 67, 75
2, 48188, Note_off_c, 0, 67, 0
2, 48192, Note_on_c, 0, 69, 75
2, 48284, Note_off_c, 0, 69, 0
2, 48288, Note_on_c, 0, 71, 75
2, 48380, Note_off_c, 0, 71, 0
2, 48384, Note_on_c, 0, 72, 75
2, 48476, Note_off_c, 0, 72, 0
2, 48480, Note_on_c, 0, 74, 75
2, 48572, Note_off_c, 0, 74, 0
2, 48576, Note_on_c, 0, 76, 75
2, 48668, Note_off_c, 0, 76, 0
2, 48672, Note_on_c, 0, 74, 75
2, 48764, Note_off_c, 0, 74, 0
2, 48768, Note_on_c, 0, 72, 75
2, 48860, Note_off_c, 0, 72, 0
2, 48864, Note_on_c, 0, 70, 75
2, 48956, Note_off_c, 0, 70, 0
2, 48960, Note_on_c, 0, 69, 75
2, 49052, Note_off_c, 0, 69, 0
2, 49056, Note_on_c, 0, 68, 75
2, 49148, Note_off_c, 0, 68, 0
2, 49152, Note_on_c, 0, 69, 76
2, 49244, Note_off_c, 0, 69, 0
2, 49248, Note_on_c, 0, 71, 78
2, 49340, Note_off_c, 0, 71, 0
2, 49344, Note_on_c, 0, 72, 78
2, 49436, Note_off_c, 0, 72, 0
2, 49440, Note_on_c, 0, 71, 79
2, 49532, Note_off_c, 0, 71, 0
2, 49536, Note_on_c, 0, 72, 79
2, 49628, Note_off_c, 0, 72, 0
2, 49632, Note_on_c, 0, 73, 81
2, 49724, Note_off_c, 0, 73, 0
2, 49728, Note_on_c, 0, 74, 81
2, 49820, Note_off_c, 0, 74, 0
2, 49824, Note_on_c, 0, 73, 82
2, 49916, Note_off_c, 0, 73, 0
2, 49920, Note_on_c, 0, 74, 82
2, 50012, Note_off_c, 0, 74, 0
2, 50016, Note_on_c, 0, 76, 84
2, 50108, Note_off_c, 0, 76, 0
2, 50112, Note_on_c, 0, 77, 84
2, 50204, Note_off_c, 0, 77, 0
2, 50208, Note_on_c, 0, 76, 85
2, 50300, Note_off_c, 0, 76, 0
2, 50304, Note_on_c, 0, 77, 85
2, 50396, Note_off_c, 0, 77, 0
2, 50400, Note_on_c, 0, 80, 87
2, 50492, Note_off_c, 0, 80, 0
2, 50496, Note_on_c, 0, 81, 87
2, 50588, Note_off_c, 0, 81, 0
2, 50592, Note_on_c, 0, 80, 88
2, 50684, Note_off_c, 0, 80, 0
2, 50688, Note_on_c, 0, 81, 90
2, 50780, Note_off_c, 0, 81, 0
2, 50784, Note_on_c, 0, 83, 90
2, 50876, Note_off_c, 0, 83, 0
2, 50880, Note_on_c, 0, 84, 90
2, 50972, Note_off_c, 0, 84, 0
2, 50976, Note_on_c, 0, 83, 90
2, 51068, Note_off_c, 0, 83, 0
2, 51072, Note_on_c, 0, 84, 90
2, 51164, Note_off_c, 0, 84, 0
2, 51168, Note_on_c, 0, 83, 90
2, 51260, Note_off_c, 0, 83, 0
2, 51264, Note_on_c, 0, 84, 90
2, 51356, Note_off_c, 0, 84, 0
2, 51360, Note_on_c, 0, 83, 90
2, 51452, Note_off_c, 0, 83, 0
2, 51456, Note_on_c, 0, 86, 90
2, 51548, Note_off_c, 0, 86, 0
2, 51552, Note_on_c, 0, 84, 90
2, 51644, Note_off_c, 0, 84, 0
2, 51648, Note_on_c, 0, 83, 90
2, 51740, Note_off_c, 0, 83, 0
2, 51744, Note_on_c, 0, 81, 90
2, 51836, Note_off_c, 0, 81, 0
2, 51840, Note_on_c, 0, 83, 90
2, 51932, Note_off_c, 0, 83, 0
2, 51936, Note_on_c, 0, 81, 90
2, 52028, Note_off_c, 0, 81, 0
2, 52032, Note_on_c, 0, 79, 90
2, 52124, Note_off_c, 0, 79, 0
2, 52128, Note_on_c, 0, 77, 90
2, 52220, Note_off_c, 0, 77, 0
2, 52224, Note_on_c, 0, 76, 82
2, 52316, Note_off_c, 0, 76, 0
2, 52320, Note_on_c, 0, 79, 82
2, 52412, Note_off_c, 0, 79, 0
2, 52416, Note_on_c, 0, 81, 82
2, 52508, Note_off_c, 0, 81, 0
2, 52512, Note_on_c, 0, 79, 82
2, 52604, Note_off_c, 0, 79, 0
2, 52608, Note_on_c, 0, 77, 75
2, 52700, Note_off_c, 0, 77, 0
2, 52704, Note_on_c, 0, 76, 75
2, 52796, Note_off_c, 0, 76, 0
2, 52800, Note_on_c, 0, 74, 75
2, 52892, Note_off_c, 0, 74, 0
2, 52896, Note_on_c, 0, 72, 75
2, 52988, Note_off_c, 0, 72, 0
2, 52992, Note_on_c, 0, 76, 75
2, 53036, Note_off_c, 0, 76, 0
2, 53040, Note_on_c, 0, 74, 75
2, 53084, Note_off_c, 0, 74, 0
2, 53088, Note_on_c, 0, 76, 75
2, 53132, Note_off_c, 0, 76, 0
2, 53136, Note_on_c, 0, 74, 75
2, 53180, Note_off_c, 0, 74, 0
2, 53184, Note_on_c, 0, 76, 75
2, 53228, Note_off_c, 0, 76, 0
2, 53232, Note_on_c, 0, 74, 75
2, 53276, Note_off_c, 0, 74, 0
2, 53280, Note_on_c, 0, 76, 75
2, 53324, Note_off_c, 0, 76, 0
2, 53328, Note_on_c, 0, 74, 75
2, 53372, Note_off_c, 0, 74, 0
2, 53376, Note_on_c, 0, 76, 75
2, 53420, Note_off_c, 0, 76, 0
2, 53424, Note_on_c, 0, 74, 75
2, 53468, Note_off_c, 0, 74, 0
2, 53472, Note_on_c, 0, 76, 75
2, 53516, Note_off_c, 0, 76, 0
2, 53520, Note_on_c, 0, 74, 75
2, 53564, Note_off_c, 0, 74, 0
2, 53568, Note_on_c, 0, 72, 75
2, 53660, Note_off_c, 0, 72, 0
2, 53664, Note_on_c, 0, 74, 75
2, 53756, Note_off_c, 0, 74, 0
2, 53856, Note_on_c, 0, 84, 60
2, 53948, Note_off_c, 0, 84, 0
2, 53952, Note_on_c, 0, 83, 60
2, 54044, Note_off_c, 0, 83, 0
2, 54048, Note_on_c, 0, 81, 60
2, 54140, Note_off_c, 0, 81, 0
2, 54144, Note_on_c, 0, 79, 60
2, 54236, Note_off_c, 0, 79, 0
2, 54240, Note_on_c, 0, 81, 60
2, 54332, Note_off_c, 0, 81, 0
2, 54336, Note_on_c, 0, 78, 60
2, 54428, Note_off_c, 0, 78, 0
2, 54432, Note_on_c, 0, 81, 60
2, 54524, Note_off_c, 0, 81, 0
2, 54528, Note_on_c, 0, 79, 60
2, 54620, Note_off_c, 0, 79, 0
2, 54624, Note_on_c, 0, 81, 60
2, 54716, Note_off_c, 0, 81, 0
2, 54720, Note_on_c, 0, 78, 60
2, 54812, Note_off_c, 0, 78, 0
2, 54816, Note_on_c, 0, 81, 60
2, 54908, Note_off_c, 0, 81, 0
2, 54912, Note_on_c, 0, 79, 60
2, 54912, Note_on_c, 0, 71, 75
2, 55004, Note_off_c, 0, 79, 0
2, 55008, Note_on_c, 0, 81, 60
2, 55100, Note_off_c, 0, 71, 0
2, 55100, Note_off_c, 0, 81, 0
2, 55104, Note_on_c, 0, 77, 60
2, 55104, Note_on_c, 0, 67, 75
2, 55196, Note_off_c, 0, 77, 0
2, 55200, Note_on_c, 0, 79, 60
2, 55292, Note_off_c, 0, 67, 0
2, 55292, Note_off_c, 0, 79, 0
2, 55296, Note_on_c, 0, 76, 75
2, 55296, Note_on_c, 0, 72, 82
2, 55388, Note_off_c, 0, 76, 0
2, 55392, Note_on_c, 0, 84, 75
2, 55484, Note_off_c, 0, 84, 0
2, 55488, Note_on_c, 0, 83, 75
2, 55580, Note_off_c, 0, 83, 0
2, 55584, Note_on_c, 0, 81, 75
2, 55676, Note_off_c, 0, 72, 0
2, 55676, Note_off_c, 0, 81, 0
2, 55680, Note_on_c, 0, 79, 75
2, 55772, Note_off_c, 0, 79, 0
2, 55776, Note_on_c, 0, 81, 75
2, 55868, Note_off_c, 0, 81, 0
2, 55872, Note_on_c, 0, 78, 75
2, 55964, Note_off_c, 0, 78, 0
2, 55968, Note_on_c, 0, 81, 75
2, 56060, Note_off_c, 0, 81, 0
2, 56064, Note_on_c, 0, 79, 75
2, 56156, Note_off_c, 0, 79, 0
2, 56160, Note_on_c, 0, 81, 75
2, 56252, Note_off_c, 0, 81, 0
2, 56256, Note_on_c, 0, 78, 75
2, 56348, Note_off_c, 0, 78, 0
2, 56352, Note_on_c, 0, 81, 75
2, 56444, Note_off_c, 0, 81, 0
2, 56448, Note_on_c, 0, 79, 75
2, 56448, Note_on_c, 0, 71, 82
2, 56540, Note_off_c, 0, 79, 0
2, 56544, Note_on_c, 0, 81, 75
2, 56636, Note_off_c, 0, 71, 0
2, 56636, Note_off_c, 0, 81, 0
2, 56640, Note_on_c, 0, 77, 75
2, 56640, Note_on_c, 0, 67, 82
2, 56732, Note_off_c, 0, 77, 0
2, 56736, Note_on_c, 0, 79, 75
2, 56828, Note_off_c, 0, 67, 0
2, 56828, Note_off_c, 0, 79, 0
2, 56832, Note_on_c, 0, 76, 75
2, 56832, Note_on_c, 0, 72, 82
2, 56924, Note_off_c, 0, 76, 0
2, 56928, Note_on_c, 0, 77, 75
2, 57020, Note_off_c, 0, 77, 0
2, 57024, Note_on_c, 0, 74, 75
2, 57116, Note_off_c, 0, 74, 0
2, 57120, Note_on_c, 0, 76, 75
2, 57212, Note_off_c, 0, 72, 0
2, 57212, Note_off_c, 0, 76, 0
2, 57216, Note_on_c, 0, 72, 75
2, 57308, Note_off_c, 0, 72, 0
2, 57312, Note_on_c, 0, 74, 75
2, 57404, Note_off_c, 0, 74, 0
2, 57408, Note_on_c, 0, 71, 75
2, 57500, Note_off_c, 0, 71, 0
2, 57504, Note_on_c, 0, 72, 75
2, 57596, Note_off_c, 0, 72, 0
2, 57600, Note_on_c, 0, 69, 75
2, 57692, Note_off_c, 0, 69, 0
2, 57696, Note_on_c, 0, 71, 75
2, 57788, Note_off_c, 0, 71, 0
2, 57792, Note_on_c, 0, 67, 75
2, 57884, Note_off_c, 0, 67, 0
2, 57888, Note_on_c, 0, 69, 75
2, 57980, Note_off_c, 0, 69, 0
2, 57984, Note_on_c, 0, 65, 75
2, 58076, Note_off_c, 0, 65, 0
2, 58080, Note_on_c, 0, 67, 75
2, 58172, Note_off_c, 0, 67, 0
2, 58176, Note_on_c, 0, 64, 75
2, 58268, Note_off_c, 0, 64, 0
2, 58272, Note_on_c, 0, 65, 75
2, 58364, Note_off_c, 0, 65, 0
2, 58368, Note_on_c, 0, 62, 75
2, 58556, Note_off_c, 0, 62, 0
2, 58560, Note_on_c, 0, 64, 75
2, 58652, Note_off_c, 0, 64, 0
2, 58656, Note_on_c, 0, 65, 75
2, 58748, Note_off_c, 0, 65, 0
2, 58752, Note_on_c, 0, 67, 75
2, 58844, Note_off_c, 0, 67, 0
2, 58848, Note_on_c, 0, 69, 75
2, 58940, Note_off_c, 0, 69, 0
2, 58944, Note_on_c, 0, 71, 75
2, 59036, Note_off_c, 0, 71, 0
2, 59040, Note_on_c, 0, 72, 75
2, 59132, Note_off_c, 0, 72, 0
2, 59136, Note_on_c, 0, 74, 75
2, 59228, Note_off_c, 0, 74, 0
2, 59232, Note_on_c, 0, 76, 75
2, 59324, Note_off_c, 0, 76, 0
2, 59328, Note_on_c, 0, 77, 75
2, 59420, Note_off_c, 0, 77, 0
2, 59424, Note_on_c, 0, 79, 75
2, 59516, Note_off_c, 0, 79, 0
2, 59520, Note_on_c, 0, 81, 82
2, 59612, Note_off_c, 0, 81, 0
2, 59616, Note_on_c, 0, 83, 82
2, 59708, Note_off_c, 0, 83, 0
2, 59712, Note_on_c, 0, 84, 82
2, 59804, Note_off_c, 0, 84, 0
2, 59808, Note_on_c, 0, 86, 82
2, 59900, Note_off_c, 0, 86, 0
2, 59904, Note_on_c, 0, 88, 90
2, 59996, Note_off_c, 0, 88, 0
2, 60000, Note_on_c, 0, 84, 90
2, 60092, Note_off_c, 0, 84, 0
2, 60096, Note_on_c, 0, 83, 90
2, 60188, Note_off_c, 0, 83, 0
2, 60192, Note_on_c, 0, 84, 90
2, 60284, Note_off_c, 0, 84, 0
2, 60288, Note_on_c, 0, 83, 90
2, 60380, Note_off_c, 0, 83, 0
2, 60384, Note_on_c, 0, 81, 90
2, 60476, Note_off_c, 0, 81, 0
2, 60480, Note_on_c, 0, 79, 90
2, 60572, Note_off_c, 0, 79, 0
2, 60576, Note_on_c, 0, 77, 90
2, 60668, Note_off_c, 0, 77, 0
2, 60672, Note_on_c, 0, 76, 90
2, 61052, Note_off_c, 0, 76, 0
2, 61056, Note_on_c, 0, 76, 90
2, 61100, Note_off_c, 0, 76, 0
2, 61104, Note_on_c, 0, 74, 90
2, 61148, Note_off_c, 0, 74, 0
2, 61152, Note_on_c, 0, 76, 90
2, 61196, Note_off_c, 0, 76, 0
2, 61200, Note_on_c, 0, 74, 90
2, 61244, Note_off_c, 0, 74, 0
2, 61248, Note_on_c, 0, 72, 90
2, 61340, Note_off_c, 0, 72, 0
2, 61344, Note_on_c, 0, 74, 90
2, 61436, Note_off_c, 0, 74, 0
2, 61440, Note_on_c, 0, 72, 90
2, 61532, Note_off_c, 0, 72, 0
2, 61536, Note_on_c, 0, 72, 60
2, 61628, Note_off_c, 0, 72, 0
2, 61632, Note_on_c, 0, 71, 60
2, 61724, Note_off_c, 0, 71, 0
2, 61728, Note_on_c, 0, 69, 60
2, 61820, Note_off_c, 0, 69, 0
2, 61824, Note_on_c, 0, 67, 60
2, 61916, Note_off_c, 0, 67, 0
2, 61920, Note_on_c, 0, 69, 60
2, 62012, Note_off_c, 0, 69, 0
2, 62016, Note_on_c, 0, 66, 60
2, 62108, Note_off_c, 0, 66, 0
2, 62112, Note_on_c, 0, 69, 60
2, 62204, Note_off_c, 0, 69, 0
2, 62208, Note_on_c, 0, 67, 60
2, 62300, Note_off_c, 0, 67, 0
2, 62304, Note_on_c, 0, 69, 60
2, 62396, Note_off_c, 0, 69, 0
2, 62400, Note_on_c, 0, 66, 60
2, 62492, Note_off_c, 0, 66, 0
2, 62496, Note_on_c, 0, 69, 60
2, 62588, Note_off_c, 0, 69, 0
2, 62592, Note_on_c, 0, 65, 60
2, 62592, Note_on_c, 0, 74, 75
2, 62592, Note_on_c, 0, 83, 75
2, 62684, Note_off_c, 0, 65, 0
2, 62688, Note_on_c, 0, 67, 60
2, 62780, Note_off_c, 0, 83, 0
2, 62780, Note_off_c, 0, 67, 0
2, 62784, Note_on_c, 0, 79, 75
2, 62972, Note_off_c, 0, 74, 0
2, 62972, Note_off_c, 0, 79, 0
2, 62976, Note_on_c, 0, 84, 82
2, 62976, Note_on_c, 0, 76, 82
2, 62976, Note_on_c, 0, 64, 75
2, 63068, Note_off_c, 0, 64, 0
2, 63072, Note_on_c, 0, 72, 75
2, 63164, Note_off_c, 0, 72, 0
2, 63168, Note_on_c, 0, 71, 75
2, 63260, Note_off_c, 0, 71, 0
2, 63264, Note_on_c, 0, 69, 75
2, 63356, Note_off_c, 0, 84, 0
2, 63356, Note_off_c, 0, 76, 0
2, 63356, Note_off_c, 0, 69, 0
2, 63360, Note_on_c, 0, 67, 75
2, 63452, Note_off_c, 0, 67, 0
2, 63456, Note_on_c, 0, 69, 75
2, 63548, Note_off_c, 0, 69, 0
2, 63552, Note_on_c, 0, 65, 75
2, 63644, Note_off_c, 0, 65, 0
2, 63648, Note_on_c, 0, 69, 75
2, 63740, Note_off_c, 0, 69, 0
2, 63744, Note_on_c, 0, 67, 75
2, 63836, Note_off_c, 0, 67, 0
2, 63840, Note_on_c, 0, 69, 75
2, 63932, Note_off_c, 0, 69, 0
2, 63936, Note_on_c, 0, 65, 75
2, 64028, Note_off_c, 0, 65, 0
2, 64032, Note_on_c, 0, 69, 75
2, 64124, Note_off_c, 0, 69, 0
2, 64128, Note_on_c, 0, 67, 75
2, 64128, Note_on_c, 0, 74, 82
2, 64128, Note_on_c, 0, 83, 82
2, 64220, Note_off_c, 0, 67, 0
2, 64224, Note_on_c, 0, 69, 75
2, 64316, Note_off_c, 0, 83, 0
2, 64316, Note_off_c, 0, 69, 0
2, 64320, Note_on_c, 0, 65, 75
2, 64320, Note_on_c, 0, 79, 82
2, 64412, Note_off_c, 0, 65, 0
2, 64416, Note_on_c, 0, 67, 75
2, 64508, Note_off_c, 0, 74, 0
2, 64508, Note_off_c, 0, 79, 0
2, 64508, Note_off_c, 0, 67, 0
2, 64512, Note_on_c, 0, 84, 82
2, 64512, Note_on_c, 0, 76, 82
2, 64892, Note_off_c, 0, 84, 0
2, 64892, Note_off_c, 0, 76, 0
2, 64896, Note_on_c, 0, 81, 75
2, 64940, Note_off_c, 0, 81, 0
2, 64944, Note_on_c, 0, 79, 75
2, 64988, Note_off_c, 0, 79, 0
2, 64992, Note_on_c, 0, 81, 75
2, 65036, Note_off_c, 0, 81, 0
2, 65040, Note_on_c, 0, 79, 75
2, 65084, Note_off_c, 0, 79, 0
2, 65088, Note_on_c, 0, 81, 75
2, 65132, Note_off_c, 0, 81, 0
2, 65136, Note_on_c, 0, 79, 75
2, 65180, Note_off_c, 0, 79, 0
2, 65184, Note_on_c, 0, 78, 75
2, 65228, Note_off_c, 0, 78, 0
2, 65232, Note_on_c, 0, 79, 75
2, 65276, Note_off_c, 0, 79, 0
2, 65280, Note_on_c, 0, 84, 82
2, 65664, Note_on_c, 0, 77, 75
2, 65708, Note_off_c, 0, 77, 0
2, 65712, Note_on_c, 0, 76, 75
2, 65756, Note_off_c, 0, 76, 0
2, 65760, Note_on_c, 0, 77, 75
2, 65792, Note_on_c, 0, 76, 75
2, 65804, Note_off_c, 0, 77, 0
2, 65836, Note_off_c, 0, 76, 0
2, 65856, Note_on_c, 0, 77, 75
2, 65900, Note_off_c, 0, 77, 0
2, 65904, Note_on_c, 0, 76, 75
2, 65948, Note_off_c, 0, 76, 0
2, 65952, Note_on_c, 0, 74, 75
2, 65996, Note_off_c, 0, 74, 0
2, 66000, Note_on_c, 0, 76, 75
2, 66044, Note_off_c, 0, 84, 0
2, 66044, Note_off_c, 0, 76, 0
2, 66048, Note_on_c, 0, 81, 81
2, 66048, Note_on_c, 0, 77, 81
2, 66428, Note_off_c, 0, 81, 0
2, 66432, Note_on_c, 0, 86, 84
2, 66716, Note_off_c, 0, 86, 0
2, 66720, Note_on_c, 0, 88, 85
2, 66812, Note_off_c, 0, 88, 0
2, 66816, Note_on_c, 0, 89, 87
2, 67196, Note_off_c, 0, 77, 0
2, 67196, Note_off_c, 0, 89, 0
2, 67200, Note_on_c, 0, 79, 75
2, 67200, Note_on_c, 0, 84, 75
2, 67244, Note_off_c, 0, 84, 0
2, 67248, Note_on_c, 0, 83, 75
2, 67292, Note_off_c, 0, 83, 0
2, 67296, Note_on_c, 0, 84, 75
2, 67340, Note_off_c, 0, 84, 0
2, 67344, Note_on_c, 0, 83, 75
2, 67388, Note_off_c, 0, 83, 0
2, 67392, Note_on_c, 0, 84, 75
2, 67436, Note_off_c, 0, 84, 0
2, 67440, Note_on_c, 0, 83, 75
2, 67484, Note_off_c, 0, 83, 0
2, 67488, Note_on_c, 0, 81, 75
2, 67532, Note_off_c, 0, 81, 0
2, 67536, Note_on_c, 0, 83, 75
2, 67580, Note_off_c, 0, 79, 0
2, 67580, Note_off_c, 0, 83, 0
2, 67584, Note_on_c, 0, 79, 90
2, 67584, Note_on_c, 0, 84, 82
2, 67676, Note_off_c, 0, 79, 0
2, 67676, Note_off_c, 0, 84, 0
2, 67680, Note_on_c, 0, 83, 82
2, 67772, Note_off_c, 0, 83, 0
2, 67776, Note_on_c, 0, 84, 82
2, 67868, Note_off_c, 0, 84, 0
2, 67872, Note_on_c, 0, 79, 82
2, 67964, Note_off_c, 0, 79, 0
2, 67968, Note_on_c, 0, 74, 90
2, 67968, Note_on_c, 0, 83, 82
2, 68060, Note_off_c, 0, 74, 0
2, 68060, Note_off_c, 0, 83, 0
2, 68064, Note_on_c, 0, 81, 82
2, 68156, Note_off_c, 0, 81, 0
2, 68160, Note_on_c, 0, 79, 82
2, 68252, Note_off_c, 0, 79, 0
2, 68256, Note_on_c, 0, 77, 82
2, 68348, Note_off_c, 0, 77, 0
2, 68352, Note_on_c, 0, 72, 90
2, 68352, Note_on_c, 0, 76, 82
2, 68444, Note_off_c, 0, 72, 0
2, 68444, Note_off_c, 0, 76, 0
2, 68448, Note_on_c, 0, 77, 82
2, 68540, Note_off_c, 0, 77, 0
2, 68544, Note_on_c, 0, 79, 82
2, 68636, Note_off_c, 0, 79, 0
2, 68640, Note_on_c, 0, 76, 82
2, 68732, Note_off_c, 0, 76, 0
2, 68736, Note_on_c, 0, 71, 90
2, 68736, Note_on_c, 0, 74, 82
2, 68828, Note_off_c, 0, 71, 0
2, 68828, Note_off_c, 0, 74, 0
2, 68832, Note_on_c, 0, 76, 82
2, 68924, Note_off_c, 0, 76, 0
2, 68928, Note_on_c, 0, 77, 82
2, 69020, Note_off_c, 0, 77, 0
2, 69024, Note_on_c, 0, 74, 82
2, 69116, Note_off_c, 0, 74, 0
2, 69120, Note_on_c, 0, 72, 60
2, 69500, Note_off_c, 0, 72, 0
2, 69504, Note_on_c, 0, 76, 60
2, 69504, Note_on_c, 0, 72, 60
2, 69788, Note_off_c, 0, 76, 0
2, 69788, Note_off_c, 0, 72, 0
2, 69792, Note_on_c, 0, 76, 60
2, 69792, Note_on_c, 0, 72, 60
2, 69884, Note_off_c, 0, 76, 0
2, 69884, Note_off_c, 0, 72, 0
2, 69888, Note_on_c, 0, 76, 67
2, 69888, Note_on_c, 0, 72, 67
2, 70268, Note_off_c, 0, 76, 0
2, 70268, Note_off_c, 0, 72, 0
2, 70272, Note_on_c, 0, 76, 70
2, 70272, Note_on_c, 0, 72, 70
2, 70556, Note_off_c, 0, 76, 0
2, 70556, Note_off_c, 0, 72, 0
2, 70560, Note_on_c, 0, 76, 73
2, 70560, Note_on_c, 0, 72, 73
2, 70652, Note_off_c, 0, 76, 0
2, 70652, Note_off_c, 0, 72, 0
2, 70656, Note_on_c, 0, 74, 75
2, 70656, Note_on_c, 0, 72, 75
2, 71036, Note_off_c, 0, 74, 0
2, 71036, Note_off_c, 0, 72, 0
2, 71040, Note_on_c, 0, 74, 75
2, 71040, Note_on_c, 0, 72, 75
2, 71324, Note_off_c, 0, 74, 0
2, 71324, Note_off_c, 0, 72, 0
2, 71328, Note_on_c, 0, 74, 75
2, 71328, Note_on_c, 0, 72, 75
2, 71420, Note_off_c, 0, 74, 0
2, 71420, Note_off_c, 0, 72, 0
2, 71424, Note_on_c, 0, 74, 75
2, 71424, Note_on_c, 0, 71, 75
2, 71804, Note_off_c, 0, 74, 0
2, 71804, Note_off_c, 0, 71, 0
2, 71808, Note_on_c, 0, 79, 75
2, 71808, Note_on_c, 0, 71, 75
2, 72092, Note_off_c, 0, 79, 0
2, 72092, Note_off_c, 0, 71, 0
2, 72096, Note_on_c, 0, 79, 75
2, 72096, Note_on_c, 0, 71, 75
2, 72188, Note_off_c, 0, 79, 0
2, 72188, Note_off_c, 0, 71, 0
2, 72192, Note_on_c, 0, 76, 90
2, 72192, Note_on_c, 0, 72, 90
2, 72572, Note_off_c, 0, 76, 0
2, 72572, Note_off_c, 0, 72, 0
2, 72576, Note_on_c, 0, 76, 90
2, 72576, Note_on_c, 0, 72, 90
2, 72576, Note_on_c, 0, 84, 90
2, 72860, Note_off_c, 0, 76, 0
2, 72860, Note_off_c, 0, 72, 0
2, 72860, Note_off_c, 0, 84, 0
2, 72864, Note_on_c, 0, 84, 90
2, 72864, Note_on_c, 0, 76, 90
2, 72864, Note_on_c, 0, 72, 90
2, 72956, Note_off_c, 0, 84, 0
2, 72956, Note_off_c, 0, 76, 0
2, 72956, Note_off_c, 0, 72, 0
2, 72960, Note_on_c, 0, 84, 90
2, 72960, Note_on_c, 0, 76, 90
2, 72960, Note_on_c, 0, 72, 90
2, 73340, Note_off_c, 0, 84, 0
2, 73340, Note_off_c, 0, 76, 0
2, 73340, Note_off_c, 0, 72, 0
2, 73344, Note_on_c, 0, 84, 90
2, 73344, Note_on_c, 0, 76, 90
2, 73344, Note_on_c, 0, 72, 90
2, 73628, Note_off_c, 0, 84, 0
2, 73628, Note_off_c, 0, 76, 0
2, 73628, Note_off_c, 0, 72, 0
2, 73632, Note_on_c, 0, 76, 90
2, 73632, Note_on_c, 0, 72, 90
2, 73632, Note_on_c, 0, 84, 90
2, 73724, Note_off_c, 0, 76, 0
2, 73724, Note_off_c, 0, 72, 0
2, 73724, Note_off_c, 0, 84, 0
2, 73728, Note_on_c, 0, 84, 90
2, 73728, Note_on_c, 0, 81, 90
2, 74108, Note_off_c, 0, 84, 0
2, 74108, Note_off_c, 0, 81, 0
2, 74112, Note_on_c, 0, 84, 91
2, 74112, Note_on_c, 0, 74, 91
2, 74112, Note_on_c, 0, 81, 91
2, 74396, Note_off_c, 0, 84, 0
2, 74396, Note_off_c, 0, 74, 0
2, 74396, Note_off_c, 0, 81, 0
2, 74400, Note_on_c, 0, 84, 94
2, 74400, Note_on_c, 0, 81, 94
2, 74400, Note_on_c, 0, 74, 94
2, 74492, Note_off_c, 0, 84, 0
2, 74492, Note_off_c, 0, 81, 0
2, 74492, Note_off_c, 0, 74, 0
2, 74496, Note_on_c, 0, 83, 97
2, 74496, Note_on_c, 0, 79, 97
2, 74496, Note_on_c, 0, 74, 97
2, 74876, Note_off_c, 0, 83, 0
2, 74876, Note_off_c, 0, 79, 0
2, 74876, Note_off_c, 0, 74, 0
2, 74880, Note_on_c, 0, 83, 100
2, 74880, Note_on_c, 0, 79, 100
2, 74880, Note_on_c, 0, 74, 100
2, 75164, Note_off_c, 0, 83, 0
2, 75164, Note_off_c, 0, 79, 0
2, 75164, Note_off_c, 0, 74, 0
2, 75168, Note_on_c, 0, 83, 103
2, 75168, Note_on_c, 0, 79, 103
2, 75168, Note_on_c, 0, 74, 103
2, 75260, Note_off_c, 0, 83, 0
2, 75260, Note_off_c, 0, 79, 0
2, 75260, Note_off_c, 0, 74, 0
2, 75264, Note_on_c, 0, 84, 105
2, 75264, Note_on_c, 0, 79, 105
2, 75264, Note_on_c, 0, 76, 105
2, 75644, Note_off_c, 0, 84, 0
2, 75644, Note_off_c, 0, 79, 0
2, 75644, Note_off_c, 0, 76, 0
2, 75648, Note_on_c, 0, 79, 105
2, 75648, Note_on_c, 0, 76, 105
2, 75648, Note_on_c, 0, 72, 105
2, 76028, Note_off_c, 0, 79, 0
2, 76028, Note_off_c, 0, 76, 0
2, 76028, Note_off_c, 0, 72, 0
2, 76032, Note_on_c, 0, 76, 105
2, 76032, Note_on_c, 0, 72, 105
2, 76032, Note_on_c, 0, 67, 105
2, 76412, Note_off_c, 0, 76, 0
2, 76412, Note_off_c, 0, 72, 0
2, 76412, Note_off_c, 0, 67, 0
2, 76800, Note_on_c, 0, 75, 90
2, 76844, Note_off_c, 0, 75, 0
2, 76848, Note_on_c, 0, 76, 90
2, 77176, Note_off_c, 0, 76, 0
2, 77184, Note_on_c, 0, 76, 90
2, 77468, Note_off_c, 0, 76, 0
2, 77472, Note_on_c, 0, 76, 90
2, 77564, Note_off_c, 0, 76, 0
2, 77568, Note_on_c, 0, 76, 90
2, 77948, Note_off_c, 0, 76, 0
2, 77952, Note_on_c, 0, 72, 90
2, 78236, Note_off_c, 0, 72, 0
2, 78240, Note_on_c, 0, 69, 90
2, 78332, Note_off_c, 0, 69, 0
2, 78336, Note_on_c, 0, 69, 82
2, 78524, Note_off_c, 0, 69, 0
2, 78528, Note_on_c, 0, 68, 82
2, 78716, Note_off_c, 0, 68, 0
2, 78720, Note_on_c, 0, 68, 82
2, 79484, Note_off_c, 0, 68, 0
2, 79488, Note_on_c, 0, 74, 82
2, 79772, Note_off_c, 0, 74, 0
2, 79776, Note_on_c, 0, 71, 82
2, 79868, Note_off_c, 0, 71, 0
2, 79872, Note_on_c, 0, 76, 75
2, 80252, Note_off_c, 0, 76, 0
2, 80256, Note_on_c, 0, 76, 75
2, 80540, Note_off_c, 0, 76, 0
2, 80544, Note_on_c, 0, 76, 75
2, 80636, Note_off_c, 0, 76, 0
2, 80640, Note_on_c, 0, 76, 75
2, 80828, Note_off_c, 0, 76, 0
2, 80832, Note_on_c, 0, 77, 75
2, 80924, Note_off_c, 0, 77, 0
2, 80928, Note_on_c, 0, 76, 75
2, 81020, Note_off_c, 0, 76, 0
2, 81024, Note_on_c, 0, 74, 75
2, 81116, Note_off_c, 0, 74, 0
2, 81120, Note_on_c, 0, 72, 75
2, 81212, Note_off_c, 0, 72, 0
2, 81216, Note_on_c, 0, 71, 75
2, 81308, Note_off_c, 0, 71, 0
2, 81312, Note_on_c, 0, 69, 75
2, 81404, Note_off_c, 0, 69, 0
2, 81408, Note_on_c, 0, 69, 75
2, 81596, Note_off_c, 0, 69, 0
2, 81600, Note_on_c, 0, 68, 75
2, 81788, Note_off_c, 0, 68, 0
2, 81792, Note_on_c, 0, 68, 75
2, 82556, Note_off_c, 0, 68, 0
2, 82560, Note_on_c, 0, 74, 75
2, 82844, Note_off_c, 0, 74, 0
2, 82848, Note_on_c, 0, 71, 75
2, 82940, Note_off_c, 0, 71, 0
2, 82944, Note_on_c, 0, 76, 75
2, 82944, Note_on_c, 0, 72, 75
2, 83228, Note_off_c, 0, 76, 0
2, 83228, Note_off_c, 0, 72, 0
2, 83232, Note_on_c, 0, 72, 75
2, 83232, Note_on_c, 0, 69, 75
2, 83324, Note_off_c, 0, 72, 0
2, 83324, Note_off_c, 0, 69, 0
2, 83328, Note_on_c, 0, 76, 75
2, 83328, Note_on_c, 0, 72, 75
2, 83708, Note_off_c, 0, 76, 0
2, 83708, Note_off_c, 0, 72, 0
2, 83904, Note_on_c, 0, 72, 60
2, 83904, Note_on_c, 0, 69, 60
2, 84092, Note_off_c, 0, 72, 0
2, 84092, Note_off_c, 0, 69, 0
2, 84096, Note_on_c, 0, 74, 60
2, 84096, Note_on_c, 0, 71, 60
2, 84284, Note_off_c, 0, 74, 0
2, 84284, Note_off_c, 0, 71, 0
2, 84288, Note_on_c, 0, 76, 60
2, 84288, Note_on_c, 0, 72, 60
2, 84476, Note_off_c, 0, 76, 0
2, 84476, Note_off_c, 0, 72, 0
2, 84480, Note_on_c, 0, 76, 90
2, 84480, Note_on_c, 0, 73, 90
2, 84860, Note_off_c, 0, 76, 0
2, 84860, Note_off_c, 0, 73, 0
2, 84864, Note_on_c, 0, 77, 90
2, 84864, Note_on_c, 0, 74, 90
2, 85052, Note_off_c, 0, 77, 0
2, 85052, Note_off_c, 0, 74, 0
2, 85440, Note_on_c, 0, 71, 60
2, 85440, Note_on_c, 0, 67, 60
2, 85628, Note_off_c, 0, 71, 0
2, 85628, Note_off_c, 0, 67, 0
2, 85632, Note_on_c, 0, 72, 60
2, 85632, Note_on_c, 0, 69, 60
2, 85820, Note_off_c, 0, 72, 0
2, 85820, Note_off_c, 0, 69, 0
2, 85824, Note_on_c, 0, 74, 60
2, 85824, Note_on_c, 0, 71, 60
2, 86012, Note_off_c, 0, 74, 0
2, 86012, Note_off_c, 0, 71, 0
2, 86016, Note_on_c, 0, 75, 90
2, 86016, Note_on_c, 0, 71, 90
2, 86396, Note_off_c, 0, 75, 0
2, 86396, Note_off_c, 0, 71, 0
2, 86400, Note_on_c, 0, 76, 90
2, 86400, Note_on_c, 0, 72, 90
2, 86588, Note_off_c, 0, 76, 0
2, 86588, Note_off_c, 0, 72, 0
2, 86976, Note_on_c, 0, 69, 60
2, 86976, Note_on_c, 0, 65, 60
2, 87164, Note_off_c, 0, 69, 0
2, 87164, Note_off_c, 0, 65, 0
2, 87168, Note_on_c, 0, 71, 60
2, 87168, Note_on_c, 0, 68, 60
2, 87356, Note_off_c, 0, 71, 0
2, 87356, Note_off_c, 0, 68, 0
2, 87360, Note_on_c, 0, 72, 60
2, 87360, Note_on_c, 0, 69, 60
2, 87548, Note_off_c, 0, 72, 0
2, 87548, Note_off_c, 0, 69, 0
2, 87552, Note_on_c, 0, 72, 75
2, 87836, Note_off_c, 0, 72, 0
2, 87840, Note_on_c, 0, 71, 75
2, 87932, Note_off_c, 0, 71, 0
2, 87936, Note_on_c, 0, 77, 75
2, 88220, Note_off_c, 0, 77, 0
2, 88224, Note_on_c, 0, 74, 75
2, 88316, Note_off_c, 0, 74, 0
2, 88320, Note_on_c, 0, 72, 75
2, 88604, Note_off_c, 0, 72, 0
2, 88608, Note_on_c, 0, 76, 75
2, 88700, Note_off_c, 0, 76, 0
2, 88704, Note_on_c, 0, 74, 75
2, 88988, Note_off_c, 0, 74, 0
2, 88992, Note_on_c, 0, 71, 75
2, 89084, Note_off_c, 0, 71, 0
2, 89088, Note_on_c, 0, 75, 90
2, 89132, Note_off_c, 0, 75, 0
2, 89136, Note_on_c, 0, 76, 90
2, 89472, Note_on_c, 0, 76, 90
2, 89516, Note_off_c, 0, 76, 0
2, 89756, Note_off_c, 0, 76, 0
2, 89760, Note_on_c, 0, 76, 90
2, 89852, Note_off_c, 0, 76, 0
2, 89856, Note_on_c, 0, 76, 90
2, 90044, Note_off_c, 0, 76, 0
2, 90048, Note_on_c, 0, 77, 90
2, 90140, Note_off_c, 0, 77, 0
2, 90144, Note_on_c, 0, 76, 90
2, 90236, Note_off_c, 0, 76, 0
2, 90240, Note_on_c, 0, 74, 90
2, 90332, Note_off_c, 0, 74, 0
2, 90336, Note_on_c, 0, 72, 90
2, 90428, Note_off_c, 0, 72, 0
2, 90432, Note_on_c, 0, 71, 90
2, 90524, Note_off_c, 0, 71, 0
2, 90528, Note_on_c, 0, 69, 90
2, 90620, Note_off_c, 0, 69, 0
2, 90624, Note_on_c, 0, 69, 82
2, 90812, Note_off_c, 0, 69, 0
2, 90816, Note_on_c, 0, 68, 82
2, 91004, Note_off_c, 0, 68, 0
2, 91008, Note_on_c, 0, 68, 82
2, 91388, Note_off_c, 0, 68, 0
2, 91392, Note_on_c, 0, 68, 82
2, 91676, Note_off_c, 0, 68, 0
2, 91680, Note_on_c, 0, 68, 82
2, 91772, Note_off_c, 0, 68, 0
2, 91776, Note_on_c, 0, 74, 82
2, 92060, Note_off_c, 0, 74, 0
2, 92064, Note_on_c, 0, 71, 82
2, 92156, Note_off_c, 0, 71, 0
2, 92160, Note_on_c, 0, 76, 75
2, 92540, Note_off_c, 0, 76, 0
2, 92544, Note_on_c, 0, 76, 75
2, 92828, Note_off_c, 0, 76, 0
2, 92832, Note_on_c, 0, 76, 75
2, 92924, Note_off_c, 0, 76, 0
2, 92928, Note_on_c, 0, 75, 75
2, 93020, Note_off_c, 0, 75, 0
2, 93024, Note_on_c, 0, 76, 75
2, 93116, Note_off_c, 0, 76, 0
2, 93120, Note_on_c, 0, 77, 75
2, 93212, Note_off_c, 0, 77, 0
2, 93216, Note_on_c, 0, 76, 75
2, 93308, Note_off_c, 0, 76, 0
2, 93312, Note_on_c, 0, 74, 75
2, 93404, Note_off_c, 0, 74, 0
2, 93408, Note_on_c, 0, 72, 75
2, 93500, Note_off_c, 0, 72, 0
2, 93504, Note_on_c, 0, 71, 75
2, 93596, Note_off_c, 0, 71, 0
2, 93600, Note_on_c, 0, 69, 75
2, 93692, Note_off_c, 0, 69, 0
2, 93696, Note_on_c, 0, 72, 75
2, 93884, Note_off_c, 0, 72, 0
2, 93888, Note_on_c, 0, 70, 75
2, 94076, Note_off_c, 0, 70, 0
2, 94080, Note_on_c, 0, 70, 75
2, 94460, Note_off_c, 0, 70, 0
2, 94464, Note_on_c, 0, 70, 75
2, 94748, Note_off_c, 0, 70, 0
2, 94752, Note_on_c, 0, 76, 75
2, 94844, Note_off_c, 0, 76, 0
2, 94848, Note_on_c, 0, 79, 79
2, 95132, Note_off_c, 0, 79, 0
2, 95136, Note_on_c, 0, 82, 82
2, 95228, Note_off_c, 0, 82, 0
2, 95232, Note_on_c, 0, 82, 82
2, 95420, Note_off_c, 0, 82, 0
2, 95424, Note_on_c, 0, 81, 79
2, 95612, Note_off_c, 0, 81, 0
2, 95616, Note_on_c, 0, 77, 75
2, 95804, Note_off_c, 0, 77, 0
2, 95808, Note_on_c, 0, 74, 75
2, 95996, Note_off_c, 0, 74, 0
2, 96000, Note_on_c, 0, 74, 75
2, 96188, Note_off_c, 0, 74, 0
2, 96192, Note_on_c, 0, 73, 75
2, 96380, Note_off_c, 0, 73, 0
2, 96384, Note_on_c, 0, 76, 75
2, 96572, Note_off_c, 0, 76, 0
2, 96576, Note_on_c, 0, 79, 75
2, 96764, Note_off_c, 0, 79, 0
2, 96768, Note_on_c, 0, 79, 75
2, 96956, Note_off_c, 0, 79, 0
2, 96960, Note_on_c, 0, 78, 75
2, 97148, Note_off_c, 0, 78, 0
2, 97344, Note_on_c, 0, 77, 75
2, 97532, Note_off_c, 0, 77, 0
2, 97728, Note_on_c, 0, 75, 75
2, 97916, Note_off_c, 0, 75, 0
2, 98112, Note_on_c, 0, 76, 75
2, 98300, Note_off_c, 0, 76, 0
2, 98304, Note_on_c, 0, 76, 60
2, 98492, Note_off_c, 0, 76, 0
2, 98496, Note_on_c, 0, 74, 60
2, 98684, Note_off_c, 0, 74, 0
2, 98688, Note_on_c, 0, 74, 60
2, 99260, Note_off_c, 0, 74, 0
2, 99264, Note_on_c, 0, 76, 60
2, 99356, Note_off_c, 0, 76, 0
2, 99360, Note_on_c, 0, 74, 60
2, 99452, Note_off_c, 0, 74, 0
2, 99456, Note_on_c, 0, 74, 60
2, 99548, Note_off_c, 0, 74, 0
2, 99552, Note_on_c, 0, 72, 60
2, 99644, Note_off_c, 0, 72, 0
2, 99648, Note_on_c, 0, 71, 60
2, 99740, Note_off_c, 0, 71, 0
2, 99744, Note_on_c, 0, 72, 60
2, 99836, Note_off_c, 0, 72, 0
2, 99840, Note_on_c, 0, 71, 60
2, 100220, Note_off_c, 0, 71, 0
2, 100224, Note_on_c, 0, 79, 90
2, 100508, Note_off_c, 0, 79, 0
2, 100512, Note_on_c, 0, 79, 90
2, 100604, Note_off_c, 0, 79, 0
2, 100608, Note_on_c, 0, 79, 90
2, 100988, Note_off_c, 0, 79, 0
2, 100992, Note_on_c, 0, 79, 90
2, 101372, Note_off_c, 0, 79, 0
2, 101376, Note_on_c, 0, 72, 75
2, 101376, Note_on_c, 0, 84, 75
2, 101948, Note_off_c, 0, 84, 0
2, 101952, Note_on_c, 0, 82, 75
2, 102044, Note_off_c, 0, 82, 0
2, 102048, Note_on_c, 0, 80, 75
2, 102140, Note_off_c, 0, 80, 0
2, 102144, Note_on_c, 0, 79, 75
2, 102524, Note_off_c, 0, 79, 0
2, 102528, Note_on_c, 0, 78, 75
2, 102908, Note_off_c, 0, 72, 0
2, 102908, Note_off_c, 0, 78, 0
2, 102912, Note_on_c, 0, 79, 75
2, 102912, Note_on_c, 0, 71, 75
2, 103292, Note_off_c, 0, 79, 0
2, 103292, Note_off_c, 0, 71, 0
2, 103296, Note_on_c, 0, 79, 60
2, 103580, Note_off_c, 0, 79, 0
2, 103584, Note_on_c, 0, 79, 60
2, 103676, Note_off_c, 0, 79, 0
2, 103680, Note_on_c, 0, 79, 60
2, 104060, Note_off_c, 0, 79, 0
2, 104064, Note_on_c, 0, 79, 60
2, 104444, Note_off_c, 0, 79, 0
2, 104448, Note_on_c, 0, 84, 75
2, 105020, Note_off_c, 0, 84, 0
2, 105024, Note_on_c, 0, 82, 75
2, 105116, Note_off_c, 0, 82, 0
2, 105120, Note_on_c, 0, 80, 75
2, 105212, Note_off_c, 0, 80, 0
2, 105216, Note_on_c, 0, 79, 75
2, 105596, Note_off_c, 0, 79, 0
2, 105600, Note_on_c, 0, 78, 75
2, 105980, Note_off_c, 0, 78, 0
2, 105984, Note_on_c, 0, 79, 82
2, 106076, Note_off_c, 0, 79, 0
2, 106080, Note_on_c, 0, 74, 82
2, 106172, Note_off_c, 0, 74, 0
2, 106176, Note_on_c, 0, 71, 82
2, 106268, Note_off_c, 0, 71, 0
2, 106272, Note_on_c, 0, 74, 82
2, 106364, Note_off_c, 0, 74, 0
2, 106368, Note_on_c, 0, 79, 82
2, 106460, Note_off_c, 0, 79, 0
2, 106464, Note_on_c, 0, 75, 82
2, 106556, Note_off_c, 0, 75, 0
2, 106560, Note_on_c, 0, 72, 82
2, 106652, Note_off_c, 0, 72, 0
2, 106656, Note_on_c, 0, 75, 82
2, 106748, Note_off_c, 0, 75, 0
2, 106752, Note_on_c, 0, 79, 82
2, 106844, Note_off_c, 0, 79, 0
2, 106848, Note_on_c, 0, 74, 82
2, 106940, Note_off_c, 0, 74, 0
2, 106944, Note_on_c, 0, 71, 82
2, 107036, Note_off_c, 0, 71, 0
2, 107040, Note_on_c, 0, 74, 82
2, 107132, Note_off_c, 0, 74, 0
2, 107136, Note_on_c, 0, 79, 82
2, 107228, Note_off_c, 0, 79, 0
2, 107232, Note_on_c, 0, 75, 82
2, 107324, Note_off_c, 0, 75, 0
2, 107328, Note_on_c, 0, 72, 82
2, 107420, Note_off_c, 0, 72, 0
2, 107424, Note_on_c, 0, 75, 82
2, 107516, Note_off_c, 0, 75, 0
2, 107520, Note_on_c, 0, 79, 82
2, 107612, Note_off_c, 0, 79, 0
2, 107616, Note_on_c, 0, 74, 82
2, 107708, Note_off_c, 0, 74, 0
2, 107712, Note_on_c, 0, 71, 82
2, 107804, Note_off_c, 0, 71, 0
2, 107808, Note_on_c, 0, 74, 82
2, 107900, Note_off_c, 0, 74, 0
2, 107904, Note_on_c, 0, 79, 82
2, 107996, Note_off_c, 0, 79, 0
2, 108000, Note_on_c, 0, 76, 82
2, 108092, Note_off_c, 0, 76, 0
2, 108096, Note_on_c, 0, 72, 82
2, 108188, Note_off_c, 0, 72, 0
2, 108192, Note_on_c, 0, 76, 82
2, 108284, Note_off_c, 0, 76, 0
2, 108288, Note_on_c, 0, 74, 82
2, 108288, Note_on_c, 0, 71, 82
2, 108380, Note_off_c, 0, 74, 0
2, 108384, Note_on_c, 0, 79, 82
2, 108476, Note_off_c, 0, 71, 0
2, 108476, Note_off_c, 0, 79, 0
2, 108480, Note_on_c, 0, 76, 82
2, 108480, Note_on_c, 0, 72, 82
2, 108572, Note_off_c, 0, 76, 0
2, 108576, Note_on_c, 0, 79, 82
2, 108668, Note_off_c, 0, 72, 0
2, 108668, Note_off_c, 0, 79, 0
2, 108672, Note_on_c, 0, 74, 82
2, 108672, Note_on_c, 0, 71, 82
2, 108764, Note_off_c, 0, 74, 0
2, 108768, Note_on_c, 0, 79, 82
2, 108860, Note_off_c, 0, 71, 0
2, 108860, Note_off_c, 0, 79, 0
2, 108864, Note_on_c, 0, 76, 82
2, 108864, Note_on_c, 0, 72, 82
2, 108956, Note_off_c, 0, 76, 0
2, 108960, Note_on_c, 0, 79, 82
2, 109052, Note_off_c, 0, 72, 0
2, 109052, Note_off_c, 0, 79, 0
2, 109056, Note_on_c, 0, 74, 82
2, 109056, Note_on_c, 0, 71, 82
2, 109436, Note_off_c, 0, 74, 0
2, 109436, Note_off_c, 0, 71, 0
2, 109440, Note_on_c, 0, 79, 82
2, 109440, Note_on_c, 0, 74, 82
2, 109440, Note_on_c, 0, 71, 82
2, 109440, Note_on_c, 0, 67, 82
2, 109820, Note_off_c, 0, 79, 0
2, 109820, Note_off_c, 0, 74, 0
2, 109820, Note_off_c, 0, 71, 0
2, 109820, Note_off_c, 0, 67, 0
2, 110016, Note_on_c, 0, 79, 60
2, 110204, Note_off_c, 0, 79, 0
2, 110208, Note_on_c, 0, 81, 60
2, 110396, Note_off_c, 0, 81, 0
2, 110400, Note_on_c, 0, 83, 60
2, 110588, Note_off_c, 0, 83, 0
2, 110592, Note_on_c, 0, 84, 75
2, 110592, Note_on_c, 0, 64, 75
2, 110592, Note_on_c, 0, 67, 75
2, 110684, Note_off_c, 0, 84, 0
2, 110688, Note_on_c, 0, 86, 75
2, 110780, Note_off_c, 0, 64, 0
2, 110780, Note_off_c, 0, 67, 0
2, 110780, Note_off_c, 0, 86, 0
2, 110784, Note_on_c, 0, 83, 75
2, 110784, Note_on_c, 0, 67, 75
2, 110784, Note_on_c, 0, 64, 75
2, 110876, Note_off_c, 0, 83, 0
2, 110880, Note_on_c, 0, 86, 75
2, 110972, Note_off_c, 0, 67, 0
2, 110972, Note_off_c, 0, 64, 0
2, 110972, Note_off_c, 0, 86, 0
2, 110976, Note_on_c, 0, 84, 75
2, 110976, Note_on_c, 0, 64, 75
2, 110976, Note_on_c, 0, 67, 75
2, 111068, Note_off_c, 0, 84, 0
2, 111072, Note_on_c, 0, 86, 75
2, 111164, Note_off_c, 0, 64, 0
2, 111164, Note_off_c, 0, 67, 0
2, 111164, Note_off_c, 0, 86, 0
2, 111168, Note_on_c, 0, 83, 75
2, 111168, Note_on_c, 0, 67, 75
2, 111168, Note_on_c, 0, 64, 75
2, 111260, Note_off_c, 0, 83, 0
2, 111264, Note_on_c, 0, 86, 75
2, 111356, Note_off_c, 0, 67, 0
2, 111356, Note_off_c, 0, 64, 0
2, 111356, Note_off_c, 0, 86, 0
2, 111360, Note_on_c, 0, 84, 75
2, 111360, Note_on_c, 0, 67, 75
2, 111360, Note_on_c, 0, 64, 75
2, 111452, Note_off_c, 0, 84, 0
2, 111456, Note_on_c, 0, 86, 75
2, 111548, Note_off_c, 0, 86, 0
2, 111552, Note_on_c, 0, 83, 75
2, 111644, Note_off_c, 0, 83, 0
2, 111648, Note_on_c, 0, 84, 75
2, 111740, Note_off_c, 0, 67, 0
2, 111740, Note_off_c, 0, 64, 0
2, 111740, Note_off_c, 0, 84, 0
2, 111744, Note_on_c, 0, 81, 75
2, 111836, Note_off_c, 0, 81, 0
2, 111840, Note_on_c, 0, 83, 75
2, 111932, Note_off_c, 0, 83, 0
2, 111936, Note_on_c, 0, 79, 75
2, 112028, Note_off_c, 0, 79, 0
2, 112032, Note_on_c, 0, 81, 75
2, 112124, Note_off_c, 0, 81, 0
2, 112128, Note_on_c, 0, 77, 75
2, 112128, Note_on_c, 0, 69, 75
2, 112128, Note_on_c, 0, 62, 75
2, 112220, Note_off_c, 0, 77, 0
2, 112224, Note_on_c, 0, 79, 75
2, 112316, Note_off_c, 0, 69, 0
2, 112316, Note_off_c, 0, 62, 0
2, 112316, Note_off_c, 0, 79, 0
2, 112320, Note_on_c, 0, 76, 75
2, 112320, Note_on_c, 0, 69, 75
2, 112320, Note_on_c, 0, 62, 75
2, 112412, Note_off_c, 0, 76, 0
2, 112416, Note_on_c, 0, 79, 75
2, 112508, Note_off_c, 0, 69, 0
2, 112508, Note_off_c, 0, 62, 0
2, 112508, Note_off_c, 0, 79, 0
2, 112512, Note_on_c, 0, 77, 75
2, 112512, Note_on_c, 0, 69, 75
2, 112512, Note_on_c, 0, 62, 75
2, 112604, Note_off_c, 0, 77, 0
2, 112608, Note_on_c, 0, 79, 75
2, 112700, Note_off_c, 0, 69, 0
2, 112700, Note_off_c, 0, 62, 0
2, 112700, Note_off_c, 0, 79, 0
2, 112704, Note_on_c, 0, 76, 75
2, 112704, Note_on_c, 0, 69, 75
2, 112704, Note_on_c, 0, 62, 75
2, 112796, Note_off_c, 0, 76, 0
2, 112800, Note_on_c, 0, 79, 75
2, 112892, Note_off_c, 0, 69, 0
2, 112892, Note_off_c, 0, 62, 0
2, 112892, Note_off_c, 0, 79, 0
2, 112896, Note_on_c, 0, 77, 75
2, 112896, Note_on_c, 0, 69, 75
2, 112896, Note_on_c, 0, 62, 75
2, 112988, Note_off_c, 0, 77, 0
2, 112992, Note_on_c, 0, 79, 75
2, 113084, Note_off_c, 0, 79, 0
2, 113088, Note_on_c, 0, 76, 75
2, 113180, Note_off_c, 0, 76, 0
2, 113184, Note_on_c, 0, 77, 75
2, 113276, Note_off_c, 0, 69, 0
2, 113276, Note_off_c, 0, 62, 0
2, 113276, Note_off_c, 0, 77, 0
2, 113280, Note_on_c, 0, 74, 75
2, 113372, Note_off_c, 0, 74, 0
2, 113376, Note_on_c, 0, 76, 75
2, 113468, Note_off_c, 0, 76, 0
2, 113472, Note_on_c, 0, 72, 75
2, 113564, Note_off_c, 0, 72, 0
2, 113568, Note_on_c, 0, 74, 75
2, 113660, Note_off_c, 0, 74, 0
2, 113664, Note_on_c, 0, 71, 75
2, 113756, Note_off_c, 0, 71, 0
2, 113760, Note_on_c, 0, 72, 75
2, 113852, Note_off_c, 0, 72, 0
2, 113856, Note_on_c, 0, 69, 75
2, 113948, Note_off_c, 0, 69, 0
2, 113952, Note_on_c, 0, 72, 75
2, 114044, Note_off_c, 0, 72, 0
2, 114048, Note_on_c, 0, 71, 75
2, 114140, Note_off_c, 0, 71, 0
2, 114144, Note_on_c, 0, 72, 75
2, 114236, Note_off_c, 0, 72, 0
2, 114240, Note_on_c, 0, 69, 75
2, 114332, Note_off_c, 0, 69, 0
2, 114336, Note_on_c, 0, 72, 75
2, 114428, Note_off_c, 0, 72, 0
2, 114432, Note_on_c, 0, 71, 75
2, 114524, Note_off_c, 0, 71, 0
2, 114528, Note_on_c, 0, 72, 75
2, 114620, Note_off_c, 0, 72, 0
2, 114624, Note_on_c, 0, 69, 75
2, 114716, Note_off_c, 0, 69, 0
2, 114720, Note_on_c, 0, 71, 75
2, 114812, Note_off_c, 0, 71, 0
2, 114816, Note_on_c, 0, 67, 75
2, 114908, Note_off_c, 0, 67, 0
2, 114912, Note_on_c, 0, 69, 75
2, 115004, Note_off_c, 0, 69, 0
2, 115008, Note_on_c, 0, 65, 75
2, 115100, Note_off_c, 0, 65, 0
2, 115104, Note_on_c, 0, 67, 75
2, 115196, Note_off_c, 0, 67, 0
2, 115200, Note_on_c, 0, 64, 75
2, 115292, Note_off_c, 0, 64, 0
2, 115296, Note_on_c, 0, 67, 75
2, 115388, Note_off_c, 0, 67, 0
2, 115392, Note_on_c, 0, 65, 75
2, 115484, Note_off_c, 0, 65, 0
2, 115488, Note_on_c, 0, 64, 75
2, 115580, Note_off_c, 0, 64, 0
2, 115584, Note_on_c, 0, 65, 75
2, 115676, Note_off_c, 0, 65, 0
2, 115680, Note_on_c, 0, 67, 75
2, 115772, Note_off_c, 0, 67, 0
2, 115776, Note_on_c, 0, 69, 75
2, 115868, Note_off_c, 0, 69, 0
2, 115872, Note_on_c, 0, 71, 75
2, 115964, Note_off_c, 0, 71, 0
2, 115968, Note_on_c, 0, 72, 75
2, 116060, Note_off_c, 0, 72, 0
2, 116064, Note_on_c, 0, 74, 75
2, 116156, Note_off_c, 0, 74, 0
2, 116160, Note_on_c, 0, 72, 75
2, 116252, Note_off_c, 0, 72, 0
2, 116256, Note_on_c, 0, 71, 75
2, 116348, Note_off_c, 0, 71, 0
2, 116352, Note_on_c, 0, 72, 75
2, 116444, Note_off_c, 0, 72, 0
2, 116448, Note_on_c, 0, 74, 75
2, 116540, Note_off_c, 0, 74, 0
2, 116544, Note_on_c, 0, 76, 75
2, 116636, Note_off_c, 0, 76, 0
2, 116640, Note_on_c, 0, 77, 75
2, 116732, Note_off_c, 0, 77, 0
2, 116736, Note_on_c, 0, 79, 60
2, 116828, Note_off_c, 0, 79, 0
2, 116832, Note_on_c, 0, 81, 60
2, 116924, Note_off_c, 0, 81, 0
2, 116928, Note_on_c, 0, 78, 60
2, 117020, Note_off_c, 0, 78, 0
2, 117024, Note_on_c, 0, 81, 60
2, 117116, Note_off_c, 0, 81, 0
2, 117120, Note_on_c, 0, 79, 60
2, 117212, Note_off_c, 0, 79, 0
2, 117216, Note_on_c, 0, 81, 60
2, 117308, Note_off_c, 0, 81, 0
2, 117312, Note_on_c, 0, 78, 60
2, 117404, Note_off_c, 0, 78, 0
2, 117408, Note_on_c, 0, 81, 60
2, 117500, Note_off_c, 0, 81, 0
2, 117504, Note_on_c, 0, 79, 60
2, 117596, Note_off_c, 0, 79, 0
2, 117600, Note_on_c, 0, 84, 60
2, 117692, Note_off_c, 0, 84, 0
2, 117696, Note_on_c, 0, 83, 60
2, 117788, Note_off_c, 0, 83, 0
2, 117792, Note_on_c, 0, 84, 60
2, 117884, Note_off_c, 0, 84, 0
2, 117888, Note_on_c, 0, 86, 60
2, 117980, Note_off_c, 0, 86, 0
2, 117984, Note_on_c, 0, 84, 60
2, 118076, Note_off_c, 0, 84, 0
2, 118080, Note_on_c, 0, 83, 60
2, 118172, Note_off_c, 0, 83, 0
2, 118176, Note_on_c, 0, 84, 60
2, 118268, Note_off_c, 0, 84, 0
2, 118272, Note_on_c, 0, 83, 75
2, 118364, Note_off_c, 0, 83, 0
2, 118368, Note_on_c, 0, 81, 75
2, 118460, Note_off_c, 0, 81, 0
2, 118464, Note_on_c, 0, 80, 75
2, 118556, Note_off_c, 0, 80, 0
2, 118560, Note_on_c, 0, 81, 75
2, 118652, Note_off_c, 0, 81, 0
2, 118656, Note_on_c, 0, 79, 75
2, 118748, Note_off_c, 0, 79, 0
2, 118752, Note_on_c, 0, 77, 75
2, 118844, Note_off_c, 0, 77, 0
2, 118848, Note_on_c, 0, 76, 75
2, 118940, Note_off_c, 0, 76, 0
2, 118944, Note_on_c, 0, 77, 75
2, 119036, Note_off_c, 0, 77, 0
2, 119040, Note_on_c, 0, 76, 75
2, 119132, Note_off_c, 0, 76, 0
2, 119136, Note_on_c, 0, 74, 75
2, 119228, Note_off_c, 0, 74, 0
2, 119232, Note_on_c, 0, 73, 75
2, 119324, Note_off_c, 0, 73, 0
2, 119328, Note_on_c, 0, 74, 75
2, 119420, Note_off_c, 0, 74, 0
2, 119424, Note_on_c, 0, 73, 75
2, 119516, Note_off_c, 0, 73, 0
2, 119520, Note_on_c, 0, 74, 75
2, 119612, Note_off_c, 0, 74, 0
2, 119616, Note_on_c, 0, 76, 75
2, 119708, Note_off_c, 0, 76, 0
2, 119712, Note_on_c, 0, 77, 75
2, 119804, Note_off_c, 0, 77, 0
2, 119808, Note_on_c, 0, 81, 75
2, 119900, Note_off_c, 0, 81, 0
2, 119904, Note_on_c, 0, 79, 75
2, 119996, Note_off_c, 0, 79, 0
2, 120000, Note_on_c, 0, 78, 75
2, 120092, Note_off_c, 0, 78, 0
2, 120096, Note_on_c, 0, 79, 75
2, 120188, Note_off_c, 0, 79, 0
2, 120192, Note_on_c, 0, 77, 75
2, 120284, Note_off_c, 0, 77, 0
2, 120288, Note_on_c, 0, 76, 75
2, 120380, Note_off_c, 0, 76, 0
2, 120384, Note_on_c, 0, 74, 75
2, 120476, Note_off_c, 0, 74, 0
2, 120480, Note_on_c, 0, 76, 75
2, 120572, Note_off_c, 0, 76, 0
2, 120576, Note_on_c, 0, 74, 75
2, 120668, Note_off_c, 0, 74, 0
2, 120672, Note_on_c, 0, 72, 75
2, 120764, Note_off_c, 0, 72, 0
2, 120768, Note_on_c, 0, 71, 75
2, 120860, Note_off_c, 0, 71, 0
2, 120864, Note_on_c, 0, 72, 75
2, 120956, Note_off_c, 0, 72, 0
2, 120960, Note_on_c, 0, 71, 75
2, 121052, Note_off_c, 0, 71, 0
2, 121056, Note_on_c, 0, 72, 75
2, 121148, Note_off_c, 0, 72, 0
2, 121152, Note_on_c, 0, 74, 75
2, 121244, Note_off_c, 0, 74, 0
2, 121248, Note_on_c, 0, 76, 75
2, 121340, Note_off_c, 0, 76, 0
2, 121344, Note_on_c, 0, 77, 75
2, 121436, Note_off_c, 0, 77, 0
2, 121440, Note_on_c, 0, 79, 75
2, 121532, Note_off_c, 0, 79, 0
2, 121536, Note_on_c, 0, 76, 75
2, 121628, Note_off_c, 0, 76, 0
2, 121632, Note_on_c, 0, 77, 75
2, 121724, Note_off_c, 0, 77, 0
2, 121728, Note_on_c, 0, 74, 75
2, 121820, Note_off_c, 0, 74, 0
2, 121824, Note_on_c, 0, 76, 75
2, 121916, Note_off_c, 0, 76, 0
2, 121920, Note_on_c, 0, 72, 75
2, 122012, Note_off_c, 0, 72, 0
2, 122016, Note_on_c, 0, 74, 75
2, 122108, Note_off_c, 0, 74, 0
2, 122112, Note_on_c, 0, 71, 75
2, 122204, Note_off_c, 0, 71, 0
2, 122208, Note_on_c, 0, 72, 75
2, 122300, Note_off_c, 0, 72, 0
2, 122304, Note_on_c, 0, 69, 75
2, 122396, Note_off_c, 0, 69, 0
2, 122400, Note_on_c, 0, 71, 75
2, 122492, Note_off_c, 0, 71, 0
2, 122496, Note_on_c, 0, 67, 75
2, 122588, Note_off_c, 0, 67, 0
2, 122592, Note_on_c, 0, 69, 75
2, 122684, Note_off_c, 0, 69, 0
2, 122688, Note_on_c, 0, 65, 75
2, 122780, Note_off_c, 0, 65, 0
2, 122784, Note_on_c, 0, 67, 75
2, 122876, Note_off_c, 0, 67, 0
2, 122880, Note_on_c, 0, 64, 75
2, 122972, Note_off_c, 0, 64, 0
2, 122976, Note_on_c, 0, 67, 75
2, 123068, Note_off_c, 0, 67, 0
2, 123072, Note_on_c, 0, 65, 75
2, 123164, Note_off_c, 0, 65, 0
2, 123168, Note_on_c, 0, 64, 75
2, 123260, Note_off_c, 0, 64, 0
2, 123264, Note_on_c, 0, 65, 75
2, 123356, Note_off_c, 0, 65, 0
2, 123360, Note_on_c, 0, 67, 75
2, 123452, Note_off_c, 0, 67, 0
2, 123456, Note_on_c, 0, 69, 75
2, 123548, Note_off_c, 0, 69, 0
2, 123552, Note_on_c, 0, 71, 75
2, 123644, Note_off_c, 0, 71, 0
2, 123648, Note_on_c, 0, 72, 75
2, 123740, Note_off_c, 0, 72, 0
2, 123744, Note_on_c, 0, 74, 75
2, 123836, Note_off_c, 0, 74, 0
2, 123840, Note_on_c, 0, 76, 75
2, 123932, Note_off_c, 0, 76, 0
2, 123936, Note_on_c, 0, 74, 75
2, 124028, Note_off_c, 0, 74, 0
2, 124032, Note_on_c, 0, 72, 75
2, 124124, Note_off_c, 0, 72, 0
2, 124128, Note_on_c, 0, 70, 75
2, 124220, Note_off_c, 0, 70, 0
2, 124224, Note_on_c, 0, 69, 75
2, 124316, Note_off_c, 0, 69, 0
2, 124320, Note_on_c, 0, 68, 75
2, 124412, Note_off_c, 0, 68, 0
2, 124416, Note_on_c, 0, 69, 76
2, 124508, Note_off_c, 0, 69, 0
2, 124512, Note_on_c, 0, 71, 78
2, 124604, Note_off_c, 0, 71, 0
2, 124608, Note_on_c, 0, 72, 78
2, 124700, Note_off_c, 0, 72, 0
2, 124704, Note_on_c, 0, 71, 79
2, 124796, Note_off_c, 0, 71, 0
2, 124800, Note_on_c, 0, 72, 79
2, 124892, Note_off_c, 0, 72, 0
2, 124896, Note_on_c, 0, 73, 81
2, 124988, Note_off_c, 0, 73, 0
2, 124992, Note_on_c, 0, 74, 81
2, 125084, Note_off_c, 0, 74, 0
2, 125088, Note_on_c, 0, 73, 82
2, 125180, Note_off_c, 0, 73, 0
2, 125184, Note_on_c, 0, 74, 82
2, 125276, Note_off_c, 0, 74, 0
2, 125280, Note_on_c, 0, 76, 84
2, 125372, Note_off_c, 0, 76, 0
2, 125376, Note_on_c, 0, 77, 84
2, 125468, Note_off_c, 0, 77, 0
2, 125472, Note_on_c, 0, 76, 85
2, 125564, Note_off_c, 0, 76, 0
2, 125568, Note_on_c, 0, 77, 85
2, 125660, Note_off_c, 0, 77, 0
2, 125664, Note_on_c, 0, 80, 87
2, 125756, Note_off_c, 0, 80, 0
2, 125760, Note_on_c, 0, 81, 87
2, 125852, Note_off_c, 0, 81, 0
2, 125856, Note_on_c, 0, 80, 88
2, 125948, Note_off_c, 0, 80, 0
2, 125952, Note_on_c, 0, 81, 90
2, 126044, Note_off_c, 0, 81, 0
2, 126048, Note_on_c, 0, 83, 90
2, 126140, Note_off_c, 0, 83, 0
2, 126144, Note_on_c, 0, 84, 90
2, 126236, Note_off_c, 0, 84, 0
2, 126240, Note_on_c, 0, 83, 90
2, 126332, Note_off_c, 0, 83, 0
2, 126336, Note_on_c, 0, 84, 90
2, 126428, Note_off_c, 0, 84, 0
2, 126432, Note_on_c, 0, 83, 90
2, 126524, Note_off_c, 0, 83, 0
2, 126528, Note_on_c, 0, 84, 90
2, 126620, Note_off_c, 0, 84, 0
2, 126624, Note_on_c, 0, 83, 90
2, 126716, Note_off_c, 0, 83, 0
2, 126720, Note_on_c, 0, 86, 90
2, 126812, Note_off_c, 0, 86, 0
2, 126816, Note_on_c, 0, 84, 90
2, 126908, Note_off_c, 0, 84, 0
2, 126912, Note_on_c, 0, 83, 90
2, 127004, Note_off_c, 0, 83, 0
2, 127008, Note_on_c, 0, 81, 90
2, 127100, Note_off_c, 0, 81, 0
2, 127104, Note_on_c, 0, 83, 90
2, 127196, Note_off_c, 0, 83, 0
2, 127200, Note_on_c, 0, 81, 90
2, 127292, Note_off_c, 0, 81, 0
2, 127296, Note_on_c, 0, 79, 90
2, 127388, Note_off_c, 0, 79, 0
2, 127392, Note_on_c, 0, 77, 90
2, 127484, Note_off_c, 0, 77, 0
2, 127488, Note_on_c, 0, 76, 82
2, 127580, Note_off_c, 0, 76, 0
2, 127584, Note_on_c, 0, 79, 82
2, 127676, Note_off_c, 0, 79, 0
2, 127680, Note_on_c, 0, 81, 82
2, 127772, Note_off_c, 0, 81, 0
2, 127776, Note_on_c, 0, 79, 82
2, 127868, Note_off_c, 0, 79, 0
2, 127872, Note_on_c, 0, 77, 75
2, 127964, Note_off_c, 0, 77, 0
2, 127968, Note_on_c, 0, 76, 75
2, 128060, Note_off_c, 0, 76, 0
2, 128064, Note_on_c, 0, 74, 75
2, 128156, Note_off_c, 0, 74, 0
2, 128160, Note_on_c, 0, 72, 75
2, 128252, Note_off_c, 0, 72, 0
2, 128256, Note_on_c, 0, 76, 75
2, 128300, Note_off_c, 0, 76, 0
2, 128304, Note_on_c, 0, 74, 75
2, 128348, Note_off_c, 0, 74, 0
2, 128352, Note_on_c, 0, 76, 75
2, 128396, Note_off_c, 0, 76, 0
2, 128400, Note_on_c, 0, 74, 75
2, 128444, Note_off_c, 0, 74, 0
2, 128448, Note_on_c, 0, 76, 75
2, 128492, Note_off_c, 0, 76, 0
2, 128496, Note_on_c, 0, 74, 75
2, 128540, Note_off_c, 0, 74, 0
2, 128544, Note_on_c, 0, 76, 75
2, 128588, Note_off_c, 0, 76, 0
2, 128592, Note_on_c, 0, 74, 75
2, 128636, Note_off_c, 0, 74, 0
2, 128640, Note_on_c, 0, 76, 75
2, 128684, Note_off_c, 0, 76, 0
2, 128688, Note_on_c, 0, 74, 75
2, 128732, Note_off_c, 0, 74, 0
2, 128736, Note_on_c, 0, 76, 75
2, 128780, Note_off_c, 0, 76, 0
2, 128784, Note_on_c, 0, 74, 75
2, 128828, Note_off_c, 0, 74, 0
2, 128832, Note_on_c, 0, 72, 75
2, 128924, Note_off_c, 0, 72, 0
2, 128928, Note_on_c, 0, 74, 75
2, 129020, Note_off_c, 0, 74, 0
2, 129120, Note_on_c, 0, 84, 60
2, 129212, Note_off_c, 0, 84, 0
2, 129216, Note_on_c, 0, 83, 60
2, 129308, Note_off_c, 0, 83, 0
2, 129312, Note_on_c, 0, 81, 60
2, 129404, Note_off_c, 0, 81, 0
2, 129408, Note_on_c, 0, 79, 60
2, 129500, Note_off_c, 0, 79, 0
2, 129504, Note_on_c, 0, 81, 60
2, 129596, Note_off_c, 0, 81, 0
2, 129600, Note_on_c, 0, 78, 60
2, 129692, Note_off_c, 0, 78, 0
2, 129696, Note_on_c, 0, 81, 60
2, 129788, Note_off_c, 0, 81, 0
2, 129792, Note_on_c, 0, 79, 60
2, 129884, Note_off_c, 0, 79, 0
2, 129888, Note_on_c, 0, 81, 60
2, 129980, Note_off_c, 0, 81, 0
2, 129984, Note_on_c, 0, 78, 60
2, 130076, Note_off_c, 0, 78, 0
2, 130080, Note_on_c, 0, 81, 60
2, 130172, Note_off_c, 0, 81, 0
2, 130176, Note_on_c, 0, 79, 60
2, 130176, Note_on_c, 0, 71, 75
2, 130268, Note_off_c, 0, 79, 0
2, 130272, Note_on_c, 0, 81, 60
2, 130364, Note_off_c, 0, 71, 0
2, 130364, Note_off_c, 0, 81, 0
2, 130368, Note_on_c, 0, 77, 60
2, 130368, Note_on_c, 0, 67, 75
2, 130460, Note_off_c, 0, 77, 0
2, 130464, Note_on_c, 0, 79, 60
2, 130556, Note_off_c, 0, 67, 0
2, 130556, Note_off_c, 0, 79, 0
2, 130560, Note_on_c, 0, 76, 75
2, 130560, Note_on_c, 0, 72, 82
2, 130652, Note_off_c, 0, 76, 0
2, 130656, Note_on_c, 0, 84, 75
2, 130748, Note_off_c, 0, 84, 0
2, 130752, Note_on_c, 0, 83, 75
2, 130844, Note_off_c, 0, 83, 0
2, 130848, Note_on_c, 0, 81, 75
2, 130940, Note_off_c, 0, 72, 0
2, 130940, Note_off_c, 0, 81, 0
2, 130944, Note_on_c, 0, 79, 75
2, 131036, Note_off_c, 0, 79, 0
2, 131040, Note_on_c, 0, 81, 75
2, 131132, Note_off_c, 0, 81, 0
2, 131136, Note_on_c, 0, 78, 75
2, 131228, Note_off_c, 0, 78, 0
2, 131232, Note_on_c, 0, 81, 75
2, 131324, Note_off_c, 0, 81, 0
2, 131328, Note_on_c, 0, 79, 75
2, 131420, Note_off_c, 0, 79, 0
2, 131424, Note_on_c, 0, 81, 75
2, 131516, Note_off_c, 0, 81, 0
2, 131520, Note_on_c, 0, 78, 75
2, 131612, Note_off_c, 0, 78, 0
2, 131616, Note_on_c, 0, 81, 75
2, 131708, Note_off_c, 0, 81, 0
2, 131712, Note_on_c, 0, 79, 75
2, 131712, Note_on_c, 0, 71, 82
2, 131804, Note_off_c, 0, 79, 0
2, 131808, Note_on_c, 0, 81, 75
2, 131900, Note_off_c, 0, 71, 0
2, 131900, Note_off_c, 0, 81, 0
2, 131904, Note_on_c, 0, 77, 75
2, 131904, Note_on_c, 0, 67, 82
2, 131996, Note_off_c, 0, 77, 0
2, 132000, Note_on_c, 0, 79, 75
2, 132092, Note_off_c, 0, 67, 0
2, 132092, Note_off_c, 0, 79, 0
2, 132096, Note_on_c, 0, 76, 75
2, 132096, Note_on_c, 0, 72, 82
2, 132188, Note_off_c, 0, 76, 0
2, 132192, Note_on_c, 0, 77, 75
2, 132284, Note_off_c, 0, 77, 0
2, 132288, Note_on_c, 0, 74, 75
2, 132380, Note_off_c, 0, 74, 0
2, 132384, Note_on_c, 0, 76, 75
2, 132476, Note_off_c, 0, 72, 0
2, 132476, Note_off_c, 0, 76, 0
2, 132480, Note_on_c, 0, 72, 75
2, 132572, Note_off_c, 0, 72, 0
2, 132576, Note_on_c, 0, 74, 75
2, 132668, Note_off_c, 0, 74, 0
2, 132672, Note_on_c, 0, 71, 75
2, 132764, Note_off_c, 0, 71, 0
2, 132768, Note_on_c, 0, 72, 75
2, 132860, Note_off_c, 0, 72, 0
2, 132864, Note_on_c, 0, 69, 75
2, 132956, Note_off_c, 0, 69, 0
2, 132960, Note_on_c, 0, 71, 75
2, 133052, Note_off_c, 0, 71, 0
2, 133056, Note_on_c, 0, 67, 75
2, 133148, Note_off_c, 0, 67, 0
2, 133152, Note_on_c, 0, 69, 75
2, 133244, Note_off_c, 0, 69, 0
2, 133248, Note_on_c, 0, 65, 75
2, 133340, Note_off_c, 0, 65, 0
2, 133344, Note_on_c, 0, 67, 75
2, 133436, Note_off_c, 0, 67, 0
2, 133440, Note_on_c, 0, 64, 75
2, 133532, Note_off_c, 0, 64, 0
2, 133536, Note_on_c, 0, 65, 75
2, 133628, Note_off_c, 0, 65, 0
2, 133632, Note_on_c, 0, 62, 75
2, 133820, Note_off_c, 0, 62, 0
2, 133824, Note_on_c, 0, 64, 75
2, 133916, Note_off_c, 0, 64, 0
2, 133920, Note_on_c, 0, 65, 75
2, 134012, Note_off_c, 0, 65, 0
2, 134016, Note_on_c, 0, 67, 75
2, 134108, Note_off_c, 0, 67, 0
2, 134112, Note_on_c, 0, 69, 75
2, 134204, Note_off_c, 0, 69, 0
2, 134208, Note_on_c, 0, 71, 75
2, 134300, Note_off_c, 0, 71, 0
2, 134304, Note_on_c, 0, 72, 75
2, 134396, Note_off_c, 0, 72, 0
2, 134400, Note_on_c, 0, 74, 75
2, 134492, Note_off_c, 0, 74, 0
2, 134496, Note_on_c, 0, 76, 75
2, 134588, Note_off_c, 0, 76, 0
2, 134592, Note_on_c, 0, 77, 75
2, 134684, Note_off_c, 0, 77, 0
2, 134688, Note_on_c, 0, 79, 75
2, 134780, Note_off_c, 0, 79, 0
2, 134784, Note_on_c, 0, 81, 82
2, 134876, Note_off_c, 0, 81, 0
2, 134880, Note_on_c, 0, 83, 82
2, 134972, Note_off_c, 0, 83, 0
2, 134976, Note_on_c, 0, 84, 82
2, 135068, Note_off_c, 0, 84, 0
2, 135072, Note_on_c, 0, 86, 82
2, 135164, Note_off_c, 0, 86, 0
2, 135168, Note_on_c, 0, 88, 90
2, 135260, Note_off_c, 0, 88, 0
2, 135264, Note_on_c, 0, 84, 90
2, 135356, Note_off_c, 0, 84, 0
2, 135360, Note_on_c, 0, 83, 90
2, 135452, Note_off_c, 0, 83, 0
2, 135456, Note_on_c, 0, 84, 90
2, 135548, Note_off_c, 0, 84, 0
2, 135552, Note_on_c, 0, 83, 90
2, 135644, Note_off_c, 0, 83, 0
2, 135648, Note_on_c, 0, 81, 90
2, 135740, Note_off_c, 0, 81, 0
2, 135744, Note_on_c, 0, 79, 90
2, 135836, Note_off_c, 0, 79, 0
2, 135840, Note_on_c, 0, 77, 90
2, 135932, Note_off_c, 0, 77, 0
2, 135936, Note_on_c, 0, 76, 90
2, 136316, Note_off_c, 0, 76, 0
2, 136320, Note_on_c, 0, 76, 90
2, 136364, Note_off_c, 0, 76, 0
2, 136368, Note_on_c, 0, 74, 90
2, 136412, Note_off_c, 0, 74, 0
2, 136416, Note_on_c, 0, 76, 90
2, 136460, Note_off_c, 0, 76, 0
2, 136464, Note_on_c, 0, 74, 90
2, 136508, Note_off_c, 0, 74, 0
2, 136512, Note_on_c, 0, 72, 90
2, 136604, Note_off_c, 0, 72, 0
2, 136608, Note_on_c, 0, 74, 90
2, 136700, Note_off_c, 0, 74, 0
2, 136704, Note_on_c, 0, 72, 90
2, 136796, Note_off_c, 0, 72, 0
2, 136800, Note_on_c, 0, 72, 60
2, 136892, Note_off_c, 0, 72, 0
2, 136896, Note_on_c, 0, 71, 60
2, 136988, Note_off_c, 0, 71, 0
2, 136992, Note_on_c, 0, 69, 60
2, 137084, Note_off_c, 0, 69, 0
2, 137088, Note_on_c, 0, 67, 60
2, 137180, Note_off_c, 0, 67, 0
2, 137184, Note_on_c, 0, 69, 60
2, 137276, Note_off_c, 0, 69, 0
2, 137280, Note_on_c, 0, 66, 60
2, 137372, Note_off_c, 0, 66, 0
2, 137376, Note_on_c, 0, 69, 60
2, 137468, Note_off_c, 0, 69, 0
2, 137472, Note_on_c, 0, 67, 60
2, 137564, Note_off_c, 0, 67, 0
2, 137568, Note_on_c, 0, 69, 60
2, 137660, Note_off_c, 0, 69, 0
2, 137664, Note_on_c, 0, 66, 60
2, 137756, Note_off_c, 0, 66, 0
2, 137760, Note_on_c, 0, 69, 60
2, 137852, Note_off_c, 0, 69, 0
2, 137856, Note_on_c, 0, 83, 75
2, 137856, Note_on_c, 0, 65, 60
2, 137856, Note_on_c, 0, 74, 75
2, 137948, Note_off_c, 0, 65, 0
2, 137952, Note_on_c, 0, 67, 60
2, 138044, Note_off_c, 0, 83, 0
2, 138044, Note_off_c, 0, 67, 0
2, 138048, Note_on_c, 0, 79, 75
2, 138236, Note_off_c, 0, 74, 0
2, 138236, Note_off_c, 0, 79, 0
2, 138240, Note_on_c, 0, 84, 82
2, 138240, Note_on_c, 0, 76, 82
2, 138240, Note_on_c, 0, 64, 75
2, 138332, Note_off_c, 0, 64, 0
2, 138336, Note_on_c, 0, 72, 75
2, 138428, Note_off_c, 0, 72, 0
2, 138432, Note_on_c, 0, 71, 75
2, 138524, Note_off_c, 0, 71, 0
2, 138528, Note_on_c, 0, 69, 75
2, 138620, Note_off_c, 0, 84, 0
2, 138620, Note_off_c, 0, 76, 0
2, 138620, Note_off_c, 0, 69, 0
2, 138624, Note_on_c, 0, 67, 75
2, 138716, Note_off_c, 0, 67, 0
2, 138720, Note_on_c, 0, 69, 75
2, 138812, Note_off_c, 0, 69, 0
2, 138816, Note_on_c, 0, 65, 75
2, 138908, Note_off_c, 0, 65, 0
2, 138912, Note_on_c, 0, 69, 75
2, 139004, Note_off_c, 0, 69, 0
2, 139008, Note_on_c, 0, 67, 75
2, 139100, Note_off_c, 0, 67, 0
2, 139104, Note_on_c, 0, 69, 75
2, 139196, Note_off_c, 0, 69, 0
2, 139200, Note_on_c, 0, 65, 75
2, 139292, Note_off_c, 0, 65, 0
2, 139296, Note_on_c, 0, 69, 75
2, 139388, Note_off_c, 0, 69, 0
2, 139392, Note_on_c, 0, 67, 75
2, 139392, Note_on_c, 0, 74, 82
2, 139392, Note_on_c, 0, 83, 82
2, 139484, Note_off_c, 0, 67, 0
2, 139488, Note_on_c, 0, 69, 75
2, 139580, Note_off_c, 0, 83, 0
2, 139580, Note_off_c, 0, 69, 0
2, 139584, Note_on_c, 0, 65, 75
2, 139584, Note_on_c, 0, 79, 82
2, 139676, Note_off_c, 0, 65, 0
2, 139680, Note_on_c, 0, 67, 75
2, 139772, Note_off_c, 0, 74, 0
2, 139772, Note_off_c, 0, 79, 0
2, 139772, Note_off_c, 0, 67, 0
2, 139776, Note_on_c, 0, 84, 82
2, 139776, Note_on_c, 0, 76, 82
2, 140156, Note_off_c, 0, 84, 0
2, 140156, Note_off_c, 0, 76, 0
2, 140160, Note_on_c, 0, 81, 75
2, 140204, Note_off_c, 0, 81, 0
2, 140208, Note_on_c, 0, 79, 75
2, 140252, Note_off_c, 0, 79, 0
2, 140256, Note_on_c, 0, 81, 75
2, 140300, Note_off_c, 0, 81, 0
2, 140304, Note_on_c, 0, 79, 75
2, 140348, Note_off_c, 0, 79, 0
2, 140352, Note_on_c, 0, 81, 75
2, 140396, Note_off_c, 0, 81, 0
2, 140400, Note_on_c, 0, 79, 75
2, 140444, Note_off_c, 0, 79, 0
2, 140448, Note_on_c, 0, 78, 75
2, 140492, Note_off_c, 0, 78, 0
2, 140496, Note_on_c, 0, 79, 75
2, 140540, Note_off_c, 0, 79, 0
2, 140544, Note_on_c, 0, 84, 82
2, 140928, Note_on_c, 0, 77, 75
2, 140972, Note_off_c, 0, 77, 0
2, 140976, Note_on_c, 0, 76, 75
2, 141020, Note_off_c, 0, 76, 0
2, 141024, Note_on_c, 0, 77, 75
2, 141056, Note_on_c, 0, 76, 75
2, 141068, Note_off_c, 0, 77, 0
2, 141100, Note_off_c, 0, 76, 0
2, 141120, Note_on_c, 0, 77, 75
2, 141164, Note_off_c, 0, 77, 0
2, 141168, Note_on_c, 0, 76, 75
2, 141212, Note_off_c, 0, 76, 0
2, 141216, Note_on_c, 0, 74, 75
2, 141260, Note_off_c, 0, 74, 0
2, 141264, Note_on_c, 0, 76, 75
2, 141308, Note_off_c, 0, 84, 0
2, 141308, Note_off_c, 0, 76, 0
2, 141312, Note_on_c, 0, 81, 81
2, 141312, Note_on_c, 0, 77, 81
2, 141692, Note_off_c, 0, 81, 0
2, 141696, Note_on_c, 0, 86, 84
2, 141980, Note_off_c, 0, 86, 0
2, 141984, Note_on_c, 0, 88, 85
2, 142076, Note_off_c, 0, 88, 0
2, 142080, Note_on_c, 0, 89, 87
2, 142460, Note_off_c, 0, 77, 0
2, 142460, Note_off_c, 0, 89, 0
2, 142464, Note_on_c, 0, 79, 75
2, 142464, Note_on_c, 0, 84, 75
2, 142508, Note_off_c, 0, 84, 0
2, 142512, Note_on_c, 0, 83, 75
2, 142556, Note_off_c, 0, 83, 0
2, 142560, Note_on_c, 0, 84, 75
2, 142604, Note_off_c, 0, 84, 0
2, 142608, Note_on_c, 0, 83, 75
2, 142652, Note_off_c, 0, 83, 0
2, 142656, Note_on_c, 0, 84, 75
2, 142700, Note_off_c, 0, 84, 0
2, 142704, Note_on_c, 0, 83, 75
2, 142748, Note_off_c, 0, 83, 0
2, 142752, Note_on_c, 0, 81, 75
2, 142796, Note_off_c, 0, 81, 0
2, 142800, Note_on_c, 0, 83, 75
2, 142844, Note_off_c, 0, 79, 0
2, 142844, Note_off_c, 0, 83, 0
2, 142848, Note_on_c, 0, 79, 90
2, 142848, Note_on_c, 0, 84, 82
2, 142940, Note_off_c, 0, 79, 0
2, 142940, Note_off_c, 0, 84, 0
2, 142944, Note_on_c, 0, 83, 82
2, 143036, Note_off_c, 0, 83, 0
2, 143040, Note_on_c, 0, 84, 82
2, 143132, Note_off_c, 0, 84, 0
2, 143136, Note_on_c, 0, 79, 82
2, 143228, Note_off_c, 0, 79, 0
2, 143232, Note_on_c, 0, 74, 90
2, 143232, Note_on_c, 0, 83, 82
2, 143324, Note_off_c, 0, 74, 0
2, 143324, Note_off_c, 0, 83, 0
2, 143328, Note_on_c, 0, 81, 82
2, 143420, Note_off_c, 0, 81, 0
2, 143424, Note_on_c, 0, 79, 82
2, 143516, Note_off_c, 0, 79, 0
2, 143520, Note_on_c, 0, 77, 82
2, 143612, Note_off_c, 0, 77, 0
2, 143616, Note_on_c, 0, 72, 90
2, 143616, Note_on_c, 0, 76, 82
2, 143708, Note_off_c, 0, 72, 0
2, 143708, Note_off_c, 0, 76, 0
2, 143712, Note_on_c, 0, 77, 82
2, 143804, Note_off_c, 0, 77, 0
2, 143808, Note_on_c, 0, 79, 82
2, 143900, Note_off_c, 0, 79, 0
2, 143904, Note_on_c, 0, 76, 82
2, 143996, Note_off_c, 0, 76, 0
2, 144000, Note_on_c, 0, 71, 90
2, 144000, Note_on_c, 0, 74, 82
2, 144092, Note_off_c, 0, 71, 0
2, 144092, Note_off_c, 0, 74, 0
2, 144096, Note_on_c, 0, 76, 82
2, 144188, Note_off_c, 0, 76, 0
2, 144192, Note_on_c, 0, 77, 82
2, 144284, Note_off_c, 0, 77, 0
2, 144288, Note_on_c, 0, 74, 82
2, 144380, Note_off_c, 0, 74, 0
2, 144384, Note_on_c, 0, 72, 60
2, 144764, Note_off_c, 0, 72, 0
2, 144768, Note_on_c, 0, 76, 60
2, 144768, Note_on_c, 0, 72, 60
2, 145052, Note_off_c, 0, 76, 0
2, 145052, Note_off_c, 0, 72, 0
2, 145056, Note_on_c, 0, 76, 60
2, 145056, Note_on_c, 0, 72, 60
2, 145148, Note_off_c, 0, 76, 0
2, 145148, Note_off_c, 0, 72, 0
2, 145152, Note_on_c, 0, 76, 67
2, 145152, Note_on_c, 0, 72, 67
2, 145532, Note_off_c, 0, 76, 0
2, 145532, Note_off_c, 0, 72, 0
2, 145536, Note_on_c, 0, 76, 70
2, 145536, Note_on_c, 0, 72, 70
2, 145820, Note_off_c, 0, 76, 0
2, 145820, Note_off_c, 0, 72, 0
2, 145824, Note_on_c, 0, 76, 73
2, 145824, Note_on_c, 0, 72, 73
2, 145916, Note_off_c, 0, 76, 0
2, 145916, Note_off_c, 0, 72, 0
2, 145920, Note_on_c, 0, 74, 75
2, 145920, Note_on_c, 0, 72, 75
2, 146300, Note_off_c, 0, 74, 0
2, 146300, Note_off_c, 0, 72, 0
2, 146304, Note_on_c, 0, 74, 75
2, 146304, Note_on_c, 0, 72, 75
2, 146588, Note_off_c, 0, 74, 0
2, 146588, Note_off_c, 0, 72, 0
2, 146592, Note_on_c, 0, 74, 75
2, 146592, Note_on_c, 0, 72, 75
2, 146684, Note_off_c, 0, 74, 0
2, 146684, Note_off_c, 0, 72, 0
2, 146688, Note_on_c, 0, 74, 75
2, 146688, Note_on_c, 0, 71, 75
2, 147068, Note_off_c, 0, 74, 0
2, 147068, Note_off_c, 0, 71, 0
2, 147072, Note_on_c, 0, 79, 75
2, 147072, Note_on_c, 0, 71, 75
2, 147356, Note_off_c, 0, 79, 0
2, 147356, Note_off_c, 0, 71, 0
2, 147360, Note_on_c, 0, 79, 75
2, 147360, Note_on_c, 0, 71, 75
2, 147452, Note_off_c, 0, 79, 0
2, 147452, Note_off_c, 0, 71, 0
2, 147456, Note_on_c, 0, 76, 90
2, 147456, Note_on_c, 0, 72, 90
2, 147836, Note_off_c, 0, 76, 0
2, 147836, Note_off_c, 0, 72, 0
2, 147840, Note_on_c, 0, 76, 90
2, 147840, Note_on_c, 0, 72, 90
2, 147840, Note_on_c, 0, 84, 90
2, 148124, Note_off_c, 0, 76, 0
2, 148124, Note_off_c, 0, 72, 0
2, 148124, Note_off_c, 0, 84, 0
2, 148128, Note_on_c, 0, 84, 90
2, 148128, Note_on_c, 0, 76, 90
2, 148128, Note_on_c, 0, 72, 90
2, 148220, Note_off_c, 0, 84, 0
2, 148220, Note_off_c, 0, 76, 0
2, 148220, Note_off_c, 0, 72, 0
2, 148224, Note_on_c, 0, 84, 90
2, 148224, Note_on_c, 0, 76, 90
2, 148224, Note_on_c, 0, 72, 90
2, 148604, Note_off_c, 0, 84, 0
2, 148604, Note_off_c, 0, 76, 0
2, 148604, Note_off_c, 0, 72, 0
2, 148608, Note_on_c, 0, 84, 90
2, 148608, Note_on_c, 0, 76, 90
2, 148608, Note_on_c, 0, 72, 90
2, 148892, Note_off_c, 0, 84, 0
2, 148892, Note_off_c, 0, 76, 0
2, 148892, Note_off_c, 0, 72, 0
2, 148896, Note_on_c, 0, 76, 90
2, 148896, Note_on_c, 0, 72, 90
2, 148896, Note_on_c, 0, 84, 90
2, 148988, Note_off_c, 0, 76, 0
2, 148988, Note_off_c, 0, 72, 0
2, 148988, Note_off_c, 0, 84, 0
2, 148992, Note_on_c, 0, 84, 90
2, 148992, Note_on_c, 0, 81, 90
2, 149372, Note_off_c, 0, 84, 0
2, 149372, Note_off_c, 0, 81, 0
2, 149376, Note_on_c, 0, 84, 91
2, 149376, Note_on_c, 0, 74, 91
2, 149376, Note_on_c, 0, 81, 91
2, 149660, Note_off_c, 0, 84, 0
2, 149660, Note_off_c, 0, 74, 0
2, 149660, Note_off_c, 0, 81, 0
2, 149664, Note_on_c, 0, 84, 94
2, 149664, Note_on_c, 0, 81, 94
2, 149664, Note_on_c, 0, 74, 94
2, 149756, Note_off_c, 0, 84, 0
2, 149756, Note_off_c, 0, 81, 0
2, 149756, Note_off_c, 0, 74, 0
2, 149760, Note_on_c, 0, 83, 97
2, 149760, Note_on_c, 0, 79, 97
2, 149760, Note_on_c, 0, 74, 97
2, 150140, Note_off_c, 0, 83, 0
2, 150140, Note_off_c, 0, 79, 0
2, 150140, Note_off_c, 0, 74, 0
2, 150144, Note_on_c, 0, 83, 100
2, 150144, Note_on_c, 0, 79, 100
2, 150144, Note_on_c, 0, 74, 100
2, 150428, Note_off_c, 0, 83, 0
2, 150428, Note_off_c, 0, 79, 0
2, 150428, Note_off_c, 0, 74, 0
2, 150432, Note_on_c, 0, 83, 103
2, 150432, Note_on_c, 0, 79, 103
2, 150432, Note_on_c, 0, 74, 103
2, 150524, Note_off_c, 0, 83, 0
2, 150524, Note_off_c, 0, 79, 0
2, 150524, Note_off_c, 0, 74, 0
2, 150528, Note_on_c, 0, 84, 105
2, 150528, Note_on_c, 0, 79, 105
2, 150528, Note_on_c, 0, 76, 105
2, 150908, Note_off_c, 0, 84, 0
2, 150908, Note_off_c, 0, 79, 0
2, 150908, Note_off_c, 0, 76, 0
2, 150912, Note_on_c, 0, 79, 105
2, 150912, Note_on_c, 0, 76, 105
2, 150912, Note_on_c, 0, 72, 105
2, 151292, Note_off_c, 0, 79, 0
2, 151292, Note_off_c, 0, 76, 0
2, 151292, Note_off_c, 0, 72, 0
2, 151296, Note_on_c, 0, 76, 105
2, 151296, Note_on_c, 0, 72, 105
2, 151296, Note_on_c, 0, 67, 105
2, 151676, Note_off_c, 0, 76, 0
2, 151676, Note_off_c, 0, 72, 0
2, 151676, Note_off_c, 0, 67, 0
2, 152064, Note_on_c, 0, 77, 67
2, 152064, Note_on_c, 0, 79, 67
2, 152108, Note_off_c, 0, 77, 0
2, 152444, Note_off_c, 0, 79, 0
2, 152448, Note_on_c, 0, 79, 67
2, 152732, Note_off_c, 0, 79, 0
2, 152736, Note_on_c, 0, 79, 67
2, 152828, Note_off_c, 0, 79, 0
2, 152832, Note_on_c, 0, 79, 67
2, 153212, Note_off_c, 0, 79, 0
2, 153216, Note_on_c, 0, 76, 67
2, 153500, Note_off_c, 0, 76, 0
2, 153504, Note_on_c, 0, 72, 67
2, 153596, Note_off_c, 0, 72, 0
2, 153600, Note_on_c, 0, 72, 67
2, 153788, Note_off_c, 0, 72, 0
2, 153792, Note_on_c, 0, 71, 67
2, 153980, Note_off_c, 0, 71, 0
2, 153984, Note_on_c, 0, 71, 67
2, 154748, Note_off_c, 0, 71, 0
2, 154752, Note_on_c, 0, 77, 67
2, 155036, Note_off_c, 0, 77, 0
2, 155040, Note_on_c, 0, 74, 67
2, 155132, Note_off_c, 0, 74, 0
2, 155136, Note_on_c, 0, 79, 75
2, 155516, Note_off_c, 0, 79, 0
2, 155520, Note_on_c, 0, 79, 75
2, 155804, Note_off_c, 0, 79, 0
2, 155808, Note_on_c, 0, 79, 75
2, 155900, Note_off_c, 0, 79, 0
2, 155904, Note_on_c, 0, 79, 75
2, 156092, Note_off_c, 0, 79, 0
2, 156096, Note_on_c, 0, 81, 75
2, 156188, Note_off_c, 0, 81, 0
2, 156192, Note_on_c, 0, 79, 75
2, 156284, Note_off_c, 0, 79, 0
2, 156288, Note_on_c, 0, 77, 75
2, 156380, Note_off_c, 0, 77, 0
2, 156384, Note_on_c, 0, 76, 75
2, 156476, Note_off_c, 0, 76, 0
2, 156480, Note_on_c, 0, 74, 75
2, 156572, Note_off_c, 0, 74, 0
2, 156576, Note_on_c, 0, 72, 75
2, 156668, Note_off_c, 0, 72, 0
2, 156672, Note_on_c, 0, 72, 75
2, 156860, Note_off_c, 0, 72, 0
2, 156864, Note_on_c, 0, 70, 75
2, 157052, Note_off_c, 0, 70, 0
2, 157056, Note_on_c, 0, 70, 75
2, 157628, Note_off_c, 0, 70, 0
2, 157632, Note_on_c, 0, 73, 75
2, 157820, Note_off_c, 0, 73, 0
2, 157824, Note_on_c, 0, 76, 75
2, 158012, Note_off_c, 0, 76, 0
2, 158016, Note_on_c, 0, 79, 75
2, 158204, Note_off_c, 0, 79, 0
2, 158208, Note_on_c, 0, 82, 90
2, 158396, Note_off_c, 0, 82, 0
2, 158400, Note_on_c, 0, 79, 60
2, 158588, Note_off_c, 0, 79, 0
2, 158592, Note_on_c, 0, 76, 60
2, 158780, Note_off_c, 0, 76, 0
2, 158784, Note_on_c, 0, 72, 60
2, 158972, Note_off_c, 0, 72, 0
2, 158976, Note_on_c, 0, 70, 60
2, 159164, Note_off_c, 0, 70, 0
2, 159168, Note_on_c, 0, 73, 67
2, 159356, Note_off_c, 0, 73, 0
2, 159360, Note_on_c, 0, 76, 75
2, 159548, Note_off_c, 0, 76, 0
2, 159552, Note_on_c, 0, 79, 82
2, 159740, Note_off_c, 0, 79, 0
2, 159744, Note_on_c, 0, 82, 90
2, 159932, Note_off_c, 0, 82, 0
2, 159936, Note_on_c, 0, 79, 60
2, 160124, Note_off_c, 0, 79, 0
2, 160128, Note_on_c, 0, 76, 60
2, 160316, Note_off_c, 0, 76, 0
2, 160320, Note_on_c, 0, 72, 60
2, 160508, Note_off_c, 0, 72, 0
2, 160512, Note_on_c, 0, 70, 60
2, 160700, Note_off_c, 0, 70, 0
2, 160704, Note_on_c, 0, 73, 67
2, 160892, Note_off_c, 0, 73, 0
2, 160896, Note_on_c, 0, 76, 75
2, 161084, Note_off_c, 0, 76, 0
2, 161088, Note_on_c, 0, 79, 82
2, 161276, Note_off_c, 0, 79, 0
2, 161280, Note_on_c, 0, 82, 90
2, 161372, Note_off_c, 0, 82, 0
2, 161376, Note_on_c, 0, 79, 90
2, 161468, Note_off_c, 0, 79, 0
2, 161472, Note_on_c, 0, 76, 90
2, 161564, Note_off_c, 0, 76, 0
2, 161568, Note_on_c, 0, 72, 90
2, 161660, Note_off_c, 0, 72, 0
2, 161664, Note_on_c, 0, 79, 90
2, 161756, Note_off_c, 0, 79, 0
2, 161760, Note_on_c, 0, 76, 90
2, 161852, Note_off_c, 0, 76, 0
2, 161856, Note_on_c, 0, 72, 90
2, 161948, Note_off_c, 0, 72, 0
2, 161952, Note_on_c, 0, 70, 90
2, 162044, Note_off_c, 0, 70, 0
2, 162048, Note_on_c, 0, 76, 90
2, 162140, Note_off_c, 0, 76, 0
2, 162144, Note_on_c, 0, 72, 90
2, 162236, Note_off_c, 0, 72, 0
2, 162240, Note_on_c, 0, 70, 90
2, 162332, Note_off_c, 0, 70, 0
2, 162336, Note_on_c, 0, 67, 90
2, 162428, Note_off_c, 0, 67, 0
2, 162432, Note_on_c, 0, 72, 90
2, 162524, Note_off_c, 0, 72, 0
2, 162528, Note_on_c, 0, 70, 90
2, 162620, Note_off_c, 0, 70, 0
2, 162624, Note_on_c, 0, 67, 90
2, 162716, Note_off_c, 0, 67, 0
2, 162720, Note_on_c, 0, 64, 90
2, 162812, Note_off_c, 0, 64, 0
2, 162816, Note_on_c, 0, 70, 90
2, 162908, Note_off_c, 0, 70, 0
2, 162912, Note_on_c, 0, 67, 90
2, 163004, Note_off_c, 0, 67, 0
2, 163008, Note_on_c, 0, 64, 90
2, 163100, Note_off_c, 0, 64, 0
2, 163104, Note_on_c, 0, 60, 90
2, 163196, Note_off_c, 0, 60, 0
2, 163200, Note_on_c, 0, 67, 90
2, 163292, Note_off_c, 0, 67, 0
2, 163296, Note_on_c, 0, 64, 90
2, 163388, Note_off_c, 0, 64, 0
2, 163392, Note_on_c, 0, 60, 90
2, 163484, Note_off_c, 0, 60, 0
2, 163488, Note_on_c, 0, 59, 90
2, 163580, Note_off_c, 0, 59, 0
2, 163584, Note_on_c, 0, 58, 90
2, 163676, Note_off_c, 0, 58, 0
2, 163680, Note_on_c, 0, 67, 90
2, 163772, Note_off_c, 0, 67, 0
2, 163776, Note_on_c, 0, 66, 90
2, 163868, Note_off_c, 0, 66, 0
2, 163872, Note_on_c, 0, 67, 90
2, 163964, Note_off_c, 0, 67, 0
2, 163968, Note_on_c, 0, 69, 90
2, 164060, Note_off_c, 0, 69, 0
2, 164064, Note_on_c, 0, 67, 90
2, 164156, Note_off_c, 0, 67, 0
2, 164160, Note_on_c, 0, 66, 90
2, 164252, Note_off_c, 0, 66, 0
2, 164256, Note_on_c, 0, 64, 90
2, 164348, Note_off_c, 0, 64, 0
2, 164352, Note_on_c, 0, 71, 105
2, 164352, Note_on_c, 0, 63, 105
2, 164732, Note_off_c, 0, 71, 0
2, 164732, Note_off_c, 0, 63, 0
2, 164736, Note_on_c, 0, 63, 105
2, 164736, Note_on_c, 0, 71, 105
2, 165020, Note_off_c, 0, 63, 0
2, 165020, Note_off_c, 0, 71, 0
2, 165024, Note_on_c, 0, 71, 105
2, 165024, Note_on_c, 0, 63, 105
2, 165116, Note_off_c, 0, 71, 0
2, 165116, Note_off_c, 0, 63, 0
2, 165120, Note_on_c, 0, 71, 105
2, 165120, Note_on_c, 0, 63, 105
2, 165500, Note_off_c, 0, 71, 0
2, 165500, Note_off_c, 0, 63, 0
2, 165504, Note_on_c, 0, 71, 105
2, 165504, Note_on_c, 0, 63, 105
2, 165884, Note_off_c, 0, 71, 0
2, 165884, Note_off_c, 0, 63, 0
2, 165888, Note_on_c, 0, 71, 90
2, 165888, Note_on_c, 0, 72, 90
2, 165888, Note_on_c, 0, 64, 90
2, 166172, Note_off_c, 0, 71, 0
2, 166176, Note_on_c, 0, 71, 90
2, 166268, Note_off_c, 0, 71, 0
2, 166272, Note_on_c, 0, 69, 90
2, 166556, Note_off_c, 0, 69, 0
2, 166560, Note_on_c, 0, 68, 90
2, 166652, Note_off_c, 0, 72, 0
2, 166652, Note_off_c, 0, 64, 0
2, 166652, Note_off_c, 0, 68, 0
2, 166656, Note_on_c, 0, 72, 90
2, 166656, Note_on_c, 0, 69, 90
2, 166656, Note_on_c, 0, 66, 90
2, 166940, Note_off_c, 0, 72, 0
2, 166944, Note_on_c, 0, 75, 90
2, 167036, Note_off_c, 0, 75, 0
2, 167040, Note_on_c, 0, 76, 90
2, 167324, Note_off_c, 0, 76, 0
2, 167328, Note_on_c, 0, 72, 90
2, 167420, Note_off_c, 0, 69, 0
2, 167420, Note_off_c, 0, 66, 0
2, 167420, Note_off_c, 0, 72, 0
2, 167424, Note_on_c, 0, 69, 75
2, 167424, Note_on_c, 0, 71, 75
2, 167424, Note_on_c, 0, 63, 75
2, 167708, Note_off_c, 0, 69, 0
2, 167712, Note_on_c, 0, 69, 75
2, 167804, Note_off_c, 0, 69, 0
2, 167808, Note_on_c, 0, 67, 75
2, 168092, Note_off_c, 0, 67, 0
2, 168096, Note_on_c, 0, 66, 75
2, 168188, Note_off_c, 0, 71, 0
2, 168188, Note_off_c, 0, 63, 0
2, 168188, Note_off_c, 0, 66, 0
2, 168192, Note_on_c, 0, 71, 75
2, 168192, Note_on_c, 0, 67, 75
2, 168192, Note_on_c, 0, 64, 75
2, 168476, Note_off_c, 0, 71, 0
2, 168480, Note_on_c, 0, 75, 75
2, 168572, Note_off_c, 0, 75, 0
2, 168576, Note_on_c, 0, 76, 75
2, 168860, Note_off_c, 0, 76, 0
2, 168864, Note_on_c, 0, 71, 75
2, 168956, Note_off_c, 0, 67, 0
2, 168956, Note_off_c, 0, 64, 0
2, 168956, Note_off_c, 0, 71, 0
2, 168960, Note_on_c, 0, 67, 75
2, 168960, Note_on_c, 0, 69, 75
2, 168960, Note_on_c, 0, 61, 75
2, 169244, Note_off_c, 0, 67, 0
2, 169248, Note_on_c, 0, 67, 75
2, 169340, Note_off_c, 0, 67, 0
2, 169344, Note_on_c, 0, 66, 75
2, 169628, Note_off_c, 0, 66, 0
2, 169632, Note_on_c, 0, 64, 75
2, 169724, Note_off_c, 0, 69, 0
2, 169724, Note_off_c, 0, 61, 0
2, 169724, Note_off_c, 0, 64, 0
2, 169728, Note_on_c, 0, 69, 75
2, 169728, Note_on_c, 0, 66, 75
2, 169728, Note_on_c, 0, 63, 75
2, 170012, Note_off_c, 0, 69, 0
2, 170016, Note_on_c, 0, 71, 75
2, 170108, Note_off_c, 0, 71, 0
2, 170112, Note_on_c, 0, 72, 75
2, 170396, Note_off_c, 0, 72, 0
2, 170400, Note_on_c, 0, 69, 75
2, 170492, Note_off_c, 0, 66, 0
2, 170492, Note_off_c, 0, 63, 0
2, 170492, Note_off_c, 0, 69, 0
2, 170496, Note_on_c, 0, 68, 45
2, 170496, Note_on_c, 0, 64, 45
2, 170876, Note_off_c, 0, 68, 0
2, 170876, Note_off_c, 0, 64, 0
2, 170880, Note_on_c, 0, 76, 45
2, 170880, Note_on_c, 0, 68, 45
2, 171164, Note_off_c, 0, 76, 0
2, 171164, Note_off_c, 0, 68, 0
2, 171168, Note_on_c, 0, 76, 45
2, 171168, Note_on_c, 0, 68, 45
2, 171260, Note_off_c, 0, 76, 0
2, 171260, Note_off_c, 0, 68, 0
2, 171264, Note_on_c, 0, 76, 45
2, 171264, Note_on_c, 0, 68, 45
2, 171644, Note_off_c, 0, 76, 0
2, 171644, Note_off_c, 0, 68, 0
2, 171648, Note_on_c, 0, 76, 45
2, 171648, Note_on_c, 0, 68, 45
2, 172028, Note_off_c, 0, 76, 0
2, 172028, Note_off_c, 0, 68, 0
2, 172032, Note_on_c, 0, 76, 60
2, 172032, Note_on_c, 0, 77, 60
2, 172032, Note_on_c, 0, 69, 60
2, 172316, Note_off_c, 0, 76, 0
2, 172320, Note_on_c, 0, 76, 60
2, 172412, Note_off_c, 0, 76, 0
2, 172416, Note_on_c, 0, 74, 60
2, 172700, Note_off_c, 0, 74, 0
2, 172704, Note_on_c, 0, 73, 60
2, 172796, Note_off_c, 0, 77, 0
2, 172796, Note_off_c, 0, 69, 0
2, 172796, Note_off_c, 0, 73, 0
2, 172800, Note_on_c, 0, 77, 60
2, 172800, Note_on_c, 0, 74, 60
2, 172800, Note_on_c, 0, 71, 60
2, 173084, Note_off_c, 0, 77, 0
2, 173088, Note_on_c, 0, 80, 60
2, 173180, Note_off_c, 0, 80, 0
2, 173184, Note_on_c, 0, 81, 60
2, 173468, Note_off_c, 0, 81, 0
2, 173472, Note_on_c, 0, 77, 60
2, 173564, Note_off_c, 0, 74, 0
2, 173564, Note_off_c, 0, 71, 0
2, 173564, Note_off_c, 0, 77, 0
2, 173568, Note_on_c, 0, 74, 75
2, 173568, Note_on_c, 0, 76, 75
2, 173568, Note_on_c, 0, 68, 75
2, 173852, Note_off_c, 0, 74, 0
2, 173856, Note_on_c, 0, 74, 75
2, 173948, Note_off_c, 0, 74, 0
2, 173952, Note_on_c, 0, 72, 75
2, 174236, Note_off_c, 0, 72, 0
2, 174240, Note_on_c, 0, 71, 75
2, 174332, Note_off_c, 0, 76, 0
2, 174332, Note_off_c, 0, 68, 0
2, 174332, Note_off_c, 0, 71, 0
2, 174336, Note_on_c, 0, 76, 75
2, 174336, Note_on_c, 0, 72, 75
2, 174336, Note_on_c, 0, 69, 75
2, 174620, Note_off_c, 0, 76, 0
2, 174624, Note_on_c, 0, 80, 75
2, 174716, Note_off_c, 0, 80, 0
2, 174720, Note_on_c, 0, 81, 75
2, 175004, Note_off_c, 0, 81, 0
2, 175008, Note_on_c, 0, 76, 75
2, 175100, Note_off_c, 0, 72, 0
2, 175100, Note_off_c, 0, 69, 0
2, 175100, Note_off_c, 0, 76, 0
2, 175104, Note_on_c, 0, 72, 75
2, 175104, Note_on_c, 0, 74, 75
2, 175104, Note_on_c, 0, 66, 75
2, 175388, Note_off_c, 0, 72, 0
2, 175392, Note_on_c, 0, 72, 75
2, 175484, Note_off_c, 0, 72, 0
2, 175488, Note_on_c, 0, 71, 75
2, 175772, Note_off_c, 0, 71, 0
2, 175776, Note_on_c, 0, 69, 75
2, 175868, Note_off_c, 0, 74, 0
2, 175868, Note_off_c, 0, 66, 0
2, 175868, Note_off_c, 0, 69, 0
2, 175872, Note_on_c, 0, 74, 75
2, 175872, Note_on_c, 0, 71, 75
2, 175872, Note_on_c, 0, 68, 75
2, 176156, Note_off_c, 0, 74, 0
2, 176160, Note_on_c, 0, 76, 75
2, 176252, Note_off_c, 0, 76, 0
2, 176256, Note_on_c, 0, 77, 75
2, 176540, Note_off_c, 0, 77, 0
2, 176544, Note_on_c, 0, 74, 75
2, 176636, Note_off_c, 0, 71, 0
2, 176636, Note_off_c, 0, 68, 0
2, 176636, Note_off_c, 0, 74, 0
2, 176640, Note_on_c, 0, 73, 105
2, 176640, Note_on_c, 0, 69, 105
2, 177020, Note_off_c, 0, 73, 0
2, 177020, Note_off_c, 0, 69, 0
2, 177024, Note_on_c, 0, 73, 105
2, 177024, Note_on_c, 0, 81, 105
2, 177308, Note_off_c, 0, 73, 0
2, 177308, Note_off_c, 0, 81, 0
2, 177312, Note_on_c, 0, 81, 105
2, 177312, Note_on_c, 0, 73, 105
2, 177404, Note_off_c, 0, 81, 0
2, 177404, Note_off_c, 0, 73, 0
2, 177408, Note_on_c, 0, 81, 105
2, 177408, Note_on_c, 0, 73, 105
2, 177788, Note_off_c, 0, 81, 0
2, 177788, Note_off_c, 0, 73, 0
2, 177792, Note_on_c, 0, 81, 105
2, 177792, Note_on_c, 0, 73, 105
2, 178172, Note_off_c, 0, 81, 0
2, 178172, Note_off_c, 0, 73, 0
2, 178176, Note_on_c, 0, 81, 90
2, 178176, Note_on_c, 0, 82, 90
2, 178176, Note_on_c, 0, 74, 90
2, 178460, Note_off_c, 0, 81, 0
2, 178464, Note_on_c, 0, 81, 90
2, 178556, Note_off_c, 0, 81, 0
2, 178560, Note_on_c, 0, 79, 90
2, 178844, Note_off_c, 0, 79, 0
2, 178848, Note_on_c, 0, 78, 90
2, 178940, Note_off_c, 0, 82, 0
2, 178940, Note_off_c, 0, 74, 0
2, 178940, Note_off_c, 0, 78, 0
2, 178944, Note_on_c, 0, 83, 90
2, 178944, Note_on_c, 0, 79, 90
2, 178944, Note_on_c, 0, 76, 90
2, 179228, Note_off_c, 0, 83, 0
2, 179232, Note_on_c, 0, 85, 90
2, 179324, Note_off_c, 0, 85, 0
2, 179328, Note_on_c, 0, 86, 90
2, 179612, Note_off_c, 0, 86, 0
2, 179616, Note_on_c, 0, 83, 90
2, 179708, Note_off_c, 0, 79, 0
2, 179708, Note_off_c, 0, 76, 0
2, 179708, Note_off_c, 0, 83, 0
2, 179712, Note_on_c, 0, 79, 75
2, 179712, Note_on_c, 0, 81, 75
2, 179712, Note_on_c, 0, 73, 75
2, 179996, Note_off_c, 0, 79, 0
2, 180000, Note_on_c, 0, 79, 75
2, 180092, Note_off_c, 0, 79, 0
2, 180096, Note_on_c, 0, 77, 75
2, 180380, Note_off_c, 0, 77, 0
2, 180384, Note_on_c, 0, 76, 75
2, 180476, Note_off_c, 0, 81, 0
2, 180476, Note_off_c, 0, 73, 0
2, 180476, Note_off_c, 0, 76, 0
2, 180480, Note_on_c, 0, 81, 75
2, 180480, Note_on_c, 0, 77, 75
2, 180480, Note_on_c, 0, 74, 75
2, 180764, Note_off_c, 0, 81, 0
2, 180768, Note_on_c, 0, 85, 75
2, 180860, Note_off_c, 0, 85, 0
2, 180864, Note_on_c, 0, 86, 75
2, 181148, Note_off_c, 0, 86, 0
2, 181152, Note_on_c, 0, 81, 75
2, 181244, Note_off_c, 0, 77, 0
2, 181244, Note_off_c, 0, 74, 0
2, 181244, Note_off_c, 0, 81, 0
2, 181248, Note_on_c, 0, 77, 75
2, 181248, Note_on_c, 0, 79, 75
2, 181248, Note_on_c, 0, 71, 75
2, 181532, Note_off_c, 0, 77, 0
2, 181536, Note_on_c, 0, 77, 75
2, 181628, Note_off_c, 0, 77, 0
2, 181632, Note_on_c, 0, 76, 75
2, 181916, Note_off_c, 0, 76, 0
2, 181920, Note_on_c, 0, 74, 75
2, 182012, Note_off_c, 0, 79, 0
2, 182012, Note_off_c, 0, 71, 0
2, 182012, Note_off_c, 0, 74, 0
2, 182016, Note_on_c, 0, 79, 75
2, 182016, Note_on_c, 0, 76, 75
2, 182016, Note_on_c, 0, 73, 75
2, 182300, Note_off_c, 0, 79, 0
2, 182304, Note_on_c, 0, 81, 75
2, 182396, Note_off_c, 0, 81, 0
2, 182400, Note_on_c, 0, 82, 75
2, 182684, Note_off_c, 0, 82, 0
2, 182688, Note_on_c, 0, 79, 75
2, 182780, Note_off_c, 0, 76, 0
2, 182780, Note_off_c, 0, 73, 0
2, 182780, Note_off_c, 0, 79, 0
2, 182784, Note_on_c, 0, 79, 90
2, 182784, Note_on_c, 0, 74, 90
2, 183164, Note_off_c, 0, 79, 0
2, 183164, Note_off_c, 0, 74, 0
2, 183456, Note_on_c, 0, 77, 90
2, 183456, Note_on_c, 0, 74, 90
2, 183548, Note_off_c, 0, 77, 0
2, 183548, Note_off_c, 0, 74, 0
2, 183552, Note_on_c, 0, 86, 90
2, 183552, Note_on_c, 0, 77, 90
2, 183932, Note_off_c, 0, 86, 0
2, 183932, Note_off_c, 0, 77, 0
2, 183936, Note_on_c, 0, 79, 90
2, 183936, Note_on_c, 0, 74, 90
2, 183980, Note_off_c, 0, 79, 0
2, 183984, Note_on_c, 0, 77, 90
2, 184028, Note_off_c, 0, 77, 0
2, 184032, Note_on_c, 0, 79, 90
2, 184076, Note_off_c, 0, 79, 0
2, 184080, Note_on_c, 0, 77, 90
2, 184124, Note_off_c, 0, 77, 0
2, 184128, Note_on_c, 0, 79, 90
2, 184172, Note_off_c, 0, 79, 0
2, 184176, Note_on_c, 0, 77, 90
2, 184220, Note_off_c, 0, 77, 0
2, 184224, Note_on_c, 0, 76, 90
2, 184268, Note_off_c, 0, 76, 0
2, 184272, Note_on_c, 0, 77, 90
2, 184316, Note_off_c, 0, 74, 0
2, 184316, Note_off_c, 0, 77, 0
2, 184320, Note_on_c, 0, 76, 75
2, 184320, Note_on_c, 0, 72, 75
2, 184700, Note_off_c, 0, 76, 0
2, 184700, Note_off_c, 0, 72, 0
2, 184992, Note_on_c, 0, 76, 75
2, 184992, Note_on_c, 0, 72, 75
2, 185084, Note_off_c, 0, 76, 0
2, 185084, Note_off_c, 0, 72, 0
2, 185088, Note_on_c, 0, 84, 75
2, 185088, Note_on_c, 0, 76, 75
2, 185468, Note_off_c, 0, 84, 0
2, 185468, Note_off_c, 0, 76, 0
2, 185472, Note_on_c, 0, 77, 75
2, 185472, Note_on_c, 0, 72, 75
2, 185516, Note_off_c, 0, 77, 0
2, 185520, Note_on_c, 0, 76, 75
2, 185564, Note_off_c, 0, 76, 0
2, 185568, Note_on_c, 0, 77, 75
2, 185612, Note_off_c, 0, 77, 0
2, 185616, Note_on_c, 0, 76, 75
2, 185660, Note_off_c, 0, 76, 0
2, 185664, Note_on_c, 0, 77, 75
2, 185708, Note_off_c, 0, 77, 0
2, 185712, Note_on_c, 0, 76, 75
2, 185756, Note_off_c, 0, 76, 0
2, 185760, Note_on_c, 0, 74, 75
2, 185804, Note_off_c, 0, 74, 0
2, 185808, Note_on_c, 0, 76, 75
2, 185852, Note_off_c, 0, 72, 0
2, 185852, Note_off_c, 0, 76, 0
2, 185856, Note_on_c, 0, 74, 75
2, 185856, Note_on_c, 0, 71, 75
2, 186236, Note_off_c, 0, 74, 0
2, 186236, Note_off_c, 0, 71, 0
2, 186528, Note_on_c, 0, 74, 75
2, 186528, Note_on_c, 0, 71, 75
2, 186620, Note_off_c, 0, 74, 0
2, 186620, Note_off_c, 0, 71, 0
2, 186624, Note_on_c, 0, 83, 75
2, 186624, Note_on_c, 0, 74, 75
2, 187004, Note_off_c, 0, 83, 0
2, 187004, Note_off_c, 0, 74, 0
2, 187008, Note_on_c, 0, 76, 75
2, 187008, Note_on_c, 0, 71, 75
2, 187052, Note_off_c, 0, 76, 0
2, 187056, Note_on_c, 0, 74, 75
2, 187100, Note_off_c, 0, 74, 0
2, 187104, Note_on_c, 0, 76, 75
2, 187148, Note_off_c, 0, 76, 0
2, 187152, Note_on_c, 0, 74, 75
2, 187196, Note_off_c, 0, 74, 0
2, 187200, Note_on_c, 0, 76, 75
2, 187244, Note_off_c, 0, 76, 0
2, 187248, Note_on_c, 0, 74, 75
2, 187292, Note_off_c, 0, 74, 0
2, 187296, Note_on_c, 0, 72, 75
2, 187340, Note_off_c, 0, 72, 0
2, 187344, Note_on_c, 0, 74, 75
2, 187388, Note_off_c, 0, 71, 0
2, 187388, Note_off_c, 0, 74, 0
2, 187392, Note_on_c, 0, 72, 75
2, 187484, Note_off_c, 0, 72, 0
2, 187488, Note_on_c, 0, 69, 75
2, 187580, Note_off_c, 0, 69, 0
2, 187584, Note_on_c, 0, 72, 75
2, 187676, Note_off_c, 0, 72, 0
2, 187680, Note_on_c, 0, 76, 75
2, 187772, Note_off_c, 0, 76, 0
2, 187776, Note_on_c, 0, 64, 75
2, 187868, Note_off_c, 0, 64, 0
2, 187872, Note_on_c, 0, 67, 75
2, 187964, Note_off_c, 0, 67, 0
2, 187968, Note_on_c, 0, 71, 75
2, 188060, Note_off_c, 0, 71, 0
2, 188064, Note_on_c, 0, 76, 75
2, 188156, Note_off_c, 0, 76, 0
2, 188160, Note_on_c, 0, 64, 75
2, 188252, Note_off_c, 0, 64, 0
2, 188256, Note_on_c, 0, 69, 75
2, 188348, Note_off_c, 0, 69, 0
2, 188352, Note_on_c, 0, 72, 75
2, 188444, Note_off_c, 0, 72, 0
2, 188448, Note_on_c, 0, 76, 75
2, 188540, Note_off_c, 0, 76, 0
2, 188544, Note_on_c, 0, 63, 75
2, 188636, Note_off_c, 0, 63, 0
2, 188640, Note_on_c, 0, 69, 75
2, 188732, Note_off_c, 0, 69, 0
2, 188736, Note_on_c, 0, 72, 75
2, 188828, Note_off_c, 0, 72, 0
2, 188832, Note_on_c, 0, 75, 75
2, 188924, Note_off_c, 0, 75, 0
2, 188928, Note_on_c, 0, 76, 75
2, 189020, Note_off_c, 0, 76, 0
2, 189024, Note_on_c, 0, 64, 75
2, 189116, Note_off_c, 0, 64, 0
2, 189120, Note_on_c, 0, 68, 75
2, 189212, Note_off_c, 0, 68, 0
2, 189216, Note_on_c, 0, 71, 75
2, 189308, Note_off_c, 0, 71, 0
2, 189312, Note_on_c, 0, 76, 75
2, 189404, Note_off_c, 0, 76, 0
2, 189408, Note_on_c, 0, 68, 75
2, 189500, Note_off_c, 0, 68, 0
2, 189504, Note_on_c, 0, 71, 75
2, 189596, Note_off_c, 0, 71, 0
2, 189600, Note_on_c, 0, 76, 75
2, 189692, Note_off_c, 0, 76, 0
2, 189696, Note_on_c, 0, 80, 75
2, 189788, Note_off_c, 0, 80, 0
2, 189792, Note_on_c, 0, 71, 75
2, 189884, Note_off_c, 0, 71, 0
2, 189888, Note_on_c, 0, 76, 75
2, 189980, Note_off_c, 0, 76, 0
2, 189984, Note_on_c, 0, 80, 75
2, 190076, Note_off_c, 0, 80, 0
2, 190080, Note_on_c, 0, 83, 75
2, 190172, Note_off_c, 0, 83, 0
2, 190176, Note_on_c, 0, 80, 75
2, 190268, Note_off_c, 0, 80, 0
2, 190272, Note_on_c, 0, 76, 75
2, 190364, Note_off_c, 0, 76, 0
2, 190368, Note_on_c, 0, 74, 75
2, 190460, Note_off_c, 0, 74, 0
2, 190464, Note_on_c, 0, 72, 75
2, 190556, Note_off_c, 0, 72, 0
2, 190560, Note_on_c, 0, 69, 75
2, 190652, Note_off_c, 0, 69, 0
2, 190656, Note_on_c, 0, 72, 75
2, 190748, Note_off_c, 0, 72, 0
2, 190752, Note_on_c, 0, 76, 75
2, 190844, Note_off_c, 0, 76, 0
2, 190848, Note_on_c, 0, 81, 75
2, 190940, Note_off_c, 0, 81, 0
2, 190944, Note_on_c, 0, 72, 75
2, 191036, Note_off_c, 0, 72, 0
2, 191040, Note_on_c, 0, 76, 75
2, 191132, Note_off_c, 0, 76, 0
2, 191136, Note_on_c, 0, 81, 75
2, 191228, Note_off_c, 0, 81, 0
2, 191232, Note_on_c, 0, 84, 75
2, 191324, Note_off_c, 0, 84, 0
2, 191328, Note_on_c, 0, 81, 75
2, 191420, Note_off_c, 0, 81, 0
2, 191424, Note_on_c, 0, 76, 75
2, 191516, Note_off_c, 0, 76, 0
2, 191520, Note_on_c, 0, 72, 75
2, 191612, Note_off_c, 0, 72, 0
2, 191616, Note_on_c, 0, 81, 75
2, 191708, Note_off_c, 0, 81, 0
2, 191712, Note_on_c, 0, 78, 75
2, 191804, Note_off_c, 0, 78, 0
2, 191808, Note_on_c, 0, 72, 75
2, 191900, Note_off_c, 0, 72, 0
2, 191904, Note_on_c, 0, 69, 75
2, 191996, Note_off_c, 0, 69, 0
2, 192000, Note_on_c, 0, 68, 75
2, 192092, Note_off_c, 0, 68, 0
2, 192096, Note_on_c, 0, 64, 75
2, 192188, Note_off_c, 0, 64, 0
2, 192192, Note_on_c, 0, 68, 75
2, 192284, Note_off_c, 0, 68, 0
2, 192288, Note_on_c, 0, 71, 75
2, 192380, Note_off_c, 0, 71, 0
2, 192384, Note_on_c, 0, 76, 75
2, 192476, Note_off_c, 0, 76, 0
2, 192480, Note_on_c, 0, 68, 75
2, 192572, Note_off_c, 0, 68, 0
2, 192576, Note_on_c, 0, 71, 75
2, 192668, Note_off_c, 0, 71, 0
2, 192672, Note_on_c, 0, 76, 75
2, 192764, Note_off_c, 0, 76, 0
2, 192768, Note_on_c, 0, 80, 75
2, 192860, Note_off_c, 0, 80, 0
2, 192864, Note_on_c, 0, 71, 75
2, 192956, Note_off_c, 0, 71, 0
2, 192960, Note_on_c, 0, 76, 75
2, 193052, Note_off_c, 0, 76, 0
2, 193056, Note_on_c, 0, 80, 75
2, 193148, Note_off_c, 0, 80, 0
2, 193152, Note_on_c, 0, 83, 75
2, 193244, Note_off_c, 0, 83, 0
2, 193248, Note_on_c, 0, 80, 75
2, 193340, Note_off_c, 0, 80, 0
2, 193344, Note_on_c, 0, 76, 75
2, 193436, Note_off_c, 0, 76, 0
2, 193440, Note_on_c, 0, 74, 75
2, 193532, Note_off_c, 0, 74, 0
2, 193536, Note_on_c, 0, 72, 75
2, 193628, Note_off_c, 0, 72, 0
2, 193632, Note_on_c, 0, 69, 75
2, 193724, Note_off_c, 0, 69, 0
2, 193728, Note_on_c, 0, 72, 75
2, 193820, Note_off_c, 0, 72, 0
2, 193824, Note_on_c, 0, 76, 75
2, 193916, Note_off_c, 0, 76, 0
2, 193920, Note_on_c, 0, 81, 75
2, 194012, Note_off_c, 0, 81, 0
2, 194016, Note_on_c, 0, 72, 75
2, 194108, Note_off_c, 0, 72, 0
2, 194112, Note_on_c, 0, 76, 75
2, 194204, Note_off_c, 0, 76, 0
2, 194208, Note_on_c, 0, 81, 75
2, 194300, Note_off_c, 0, 81, 0
2, 194304, Note_on_c, 0, 84, 75
2, 194396, Note_off_c, 0, 84, 0
2, 194400, Note_on_c, 0, 81, 75
2, 194492, Note_off_c, 0, 81, 0
2, 194496, Note_on_c, 0, 76, 75
2, 194588, Note_off_c, 0, 76, 0
2, 194592, Note_on_c, 0, 72, 75
2, 194684, Note_off_c, 0, 72, 0
2, 194688, Note_on_c, 0, 81, 75
2, 194780, Note_off_c, 0, 81, 0
2, 194784, Note_on_c, 0, 78, 75
2, 194876, Note_off_c, 0, 78, 0
2, 194880, Note_on_c, 0, 72, 75
2, 194972, Note_off_c, 0, 72, 0
2, 194976, Note_on_c, 0, 69, 75
2, 195068, Note_off_c, 0, 69, 0
2, 195072, Note_on_c, 0, 68, 75
2, 195164, Note_off_c, 0, 68, 0
2, 195168, Note_on_c, 0, 71, 75
2, 195260, Note_off_c, 0, 71, 0
2, 195264, Note_on_c, 0, 76, 75
2, 195356, Note_off_c, 0, 76, 0
2, 195360, Note_on_c, 0, 68, 75
2, 195452, Note_off_c, 0, 68, 0
2, 195456, Note_on_c, 0, 69, 75
2, 195548, Note_off_c, 0, 69, 0
2, 195552, Note_on_c, 0, 71, 75
2, 195644, Note_off_c, 0, 71, 0
2, 195648, Note_on_c, 0, 75, 75
2, 195740, Note_off_c, 0, 75, 0
2, 195744, Note_on_c, 0, 69, 75
2, 195836, Note_off_c, 0, 69, 0
2, 195840, Note_on_c, 0, 68, 75
2, 195932, Note_off_c, 0, 68, 0
2, 195936, Note_on_c, 0, 71, 75
2, 196028, Note_off_c, 0, 71, 0
2, 196032, Note_on_c, 0, 76, 75
2, 196124, Note_off_c, 0, 76, 0
2, 196128, Note_on_c, 0, 68, 75
2, 196220, Note_off_c, 0, 68, 0
2, 196224, Note_on_c, 0, 69, 75
2, 196316, Note_off_c, 0, 69, 0
2, 196320, Note_on_c, 0, 71, 75
2, 196412, Note_off_c, 0, 71, 0
2, 196416, Note_on_c, 0, 75, 75
2, 196508, Note_off_c, 0, 75, 0
2, 196512, Note_on_c, 0, 69, 75
2, 196604, Note_off_c, 0, 69, 0
2, 196608, Note_on_c, 0, 76, 75
2, 196608, Note_on_c, 0, 71, 75
2, 196608, Note_on_c, 0, 68, 75
2, 196796, Note_off_c, 0, 76, 0
2, 196796, Note_off_c, 0, 71, 0
2, 196796, Note_off_c, 0, 68, 0
2, 196800, Note_on_c, 0, 64, 60
2, 196892, Note_off_c, 0, 64, 0
2, 196896, Note_on_c, 0, 63, 60
2, 196988, Note_off_c, 0, 63, 0
2, 196992, Note_on_c, 0, 64, 60
2, 197084, Note_off_c, 0, 64, 0
2, 197088, Note_on_c, 0, 65, 60
2, 197180, Note_off_c, 0, 65, 0
2, 197184, Note_on_c, 0, 66, 60
2, 197276, Note_off_c, 0, 66, 0
2, 197280, Note_on_c, 0, 67, 60
2, 197372, Note_off_c, 0, 67, 0
2, 197376, Note_on_c, 0, 68, 60
2, 197468, Note_off_c, 0, 68, 0
2, 197472, Note_on_c, 0, 69, 60
2, 197564, Note_off_c, 0, 69, 0
2, 197568, Note_on_c, 0, 70, 60
2, 197660, Note_off_c, 0, 70, 0
2, 197664, Note_on_c, 0, 71, 60
2, 197756, Note_off_c, 0, 71, 0
2, 197760, Note_on_c, 0, 72, 60
2, 197852, Note_off_c, 0, 72, 0
2, 197856, Note_on_c, 0, 73, 60
2, 197948, Note_off_c, 0, 73, 0
2, 197952, Note_on_c, 0, 74, 60
2, 198044, Note_off_c, 0, 74, 0
2, 198048, Note_on_c, 0, 75, 60
2, 198140, Note_off_c, 0, 75, 0
2, 198144, Note_on_c, 0, 75, 90
2, 198188, Note_off_c, 0, 75, 0
2, 198192, Note_on_c, 0, 76, 94
2, 198528, Note_on_c, 0, 76, 90
2, 198572, Note_off_c, 0, 76, 0
2, 198812, Note_off_c, 0, 76, 0
2, 198816, Note_on_c, 0, 76, 90
2, 198908, Note_off_c, 0, 76, 0
2, 198912, Note_on_c, 0, 76, 90
2, 199292, Note_off_c, 0, 76, 0
2, 199296, Note_on_c, 0, 72, 90
2, 199580, Note_off_c, 0, 72, 0
2, 199584, Note_on_c, 0, 69, 90
2, 199676, Note_off_c, 0, 69, 0
2, 199680, Note_on_c, 0, 69, 82
2, 199868, Note_off_c, 0, 69, 0
2, 199872, Note_on_c, 0, 68, 82
2, 200060, Note_off_c, 0, 68, 0
2, 200064, Note_on_c, 0, 68, 82
2, 200828, Note_off_c, 0, 68, 0
2, 200832, Note_on_c, 0, 74, 82
2, 201116, Note_off_c, 0, 74, 0
2, 201120, Note_on_c, 0, 71, 82
2, 201212, Note_off_c, 0, 71, 0
2, 201216, Note_on_c, 0, 76, 75
2, 201596, Note_off_c, 0, 76, 0
2, 201600, Note_on_c, 0, 76, 75
2, 201884, Note_off_c, 0, 76, 0
2, 201888, Note_on_c, 0, 76, 75
2, 201980, Note_off_c, 0, 76, 0
2, 201984, Note_on_c, 0, 76, 75
2, 202172, Note_off_c, 0, 76, 0
2, 202176, Note_on_c, 0, 77, 75
2, 202268, Note_off_c, 0, 77, 0
2, 202272, Note_on_c, 0, 76, 75
2, 202364, Note_off_c, 0, 76, 0
2, 202368, Note_on_c, 0, 74, 75
2, 202460, Note_off_c, 0, 74, 0
2, 202464, Note_on_c, 0, 72, 75
2, 202556, Note_off_c, 0, 72, 0
2, 202560, Note_on_c, 0, 71, 75
2, 202652, Note_off_c, 0, 71, 0
2, 202656, Note_on_c, 0, 69, 75
2, 202748, Note_off_c, 0, 69, 0
2, 202752, Note_on_c, 0, 69, 75
2, 202940, Note_off_c, 0, 69, 0
2, 202944, Note_on_c, 0, 68, 75
2, 203132, Note_off_c, 0, 68, 0
2, 203136, Note_on_c, 0, 68, 75
2, 203900, Note_off_c, 0, 68, 0
2, 203904, Note_on_c, 0, 74, 75
2, 204188, Note_off_c, 0, 74, 0
2, 204192, Note_on_c, 0, 71, 75
2, 204284, Note_off_c, 0, 71, 0
2, 204288, Note_on_c, 0, 76, 82
2, 204288, Note_on_c, 0, 72, 82
2, 204572, Note_off_c, 0, 76, 0
2, 204572, Note_off_c, 0, 72, 0
2, 204576, Note_on_c, 0, 72, 82
2, 204576, Note_on_c, 0, 69, 82
2, 204668, Note_off_c, 0, 72, 0
2, 204668, Note_off_c, 0, 69, 0
2, 204672, Note_on_c, 0, 76, 82
2, 204672, Note_on_c, 0, 72, 82
2, 205052, Note_off_c, 0, 76, 0
2, 205052, Note_off_c, 0, 72, 0
2, 205248, Note_on_c, 0, 72, 60
2, 205248, Note_on_c, 0, 69, 60
2, 205436, Note_off_c, 0, 72, 0
2, 205436, Note_off_c, 0, 69, 0
2, 205440, Note_on_c, 0, 71, 60
2, 205440, Note_on_c, 0, 74, 60
2, 205628, Note_off_c, 0, 71, 0
2, 205628, Note_off_c, 0, 74, 0
2, 205632, Note_on_c, 0, 76, 60
2, 205632, Note_on_c, 0, 72, 60
2, 205820, Note_off_c, 0, 76, 0
2, 205820, Note_off_c, 0, 72, 0
2, 205824, Note_on_c, 0, 76, 90
2, 205824, Note_on_c, 0, 73, 90
2, 206204, Note_off_c, 0, 76, 0
2, 206204, Note_off_c, 0, 73, 0
2, 206208, Note_on_c, 0, 77, 90
2, 206208, Note_on_c, 0, 74, 90
2, 206396, Note_off_c, 0, 77, 0
2, 206396, Note_off_c, 0, 74, 0
2, 206784, Note_on_c, 0, 71, 60
2, 206784, Note_on_c, 0, 67, 60
2, 206972, Note_off_c, 0, 71, 0
2, 206972, Note_off_c, 0, 67, 0
2, 206976, Note_on_c, 0, 72, 60
2, 206976, Note_on_c, 0, 69, 60
2, 207164, Note_off_c, 0, 72, 0
2, 207164, Note_off_c, 0, 69, 0
2, 207168, Note_on_c, 0, 74, 60
2, 207168, Note_on_c, 0, 71, 60
2, 207356, Note_off_c, 0, 74, 0
2, 207356, Note_off_c, 0, 71, 0
2, 207360, Note_on_c, 0, 75, 90
2, 207360, Note_on_c, 0, 71, 90
2, 207740, Note_off_c, 0, 75, 0
2, 207740, Note_off_c, 0, 71, 0
2, 207744, Note_on_c, 0, 76, 90
2, 207744, Note_on_c, 0, 72, 90
2, 207932, Note_off_c, 0, 76, 0
2, 207932, Note_off_c, 0, 72, 0
2, 208320, Note_on_c, 0, 69, 60
2, 208320, Note_on_c, 0, 65, 60
2, 208508, Note_off_c, 0, 69, 0
2, 208508, Note_off_c, 0, 65, 0
2, 208512, Note_on_c, 0, 71, 60
2, 208512, Note_on_c, 0, 67, 60
2, 208700, Note_off_c, 0, 71, 0
2, 208700, Note_off_c, 0, 67, 0
2, 208704, Note_on_c, 0, 72, 60
2, 208704, Note_on_c, 0, 69, 60
2, 208892, Note_off_c, 0, 72, 0
2, 208892, Note_off_c, 0, 69, 0
2, 208896, Note_on_c, 0, 72, 90
2, 209180, Note_off_c, 0, 72, 0
2, 209184, Note_on_c, 0, 71, 90
2, 209276, Note_off_c, 0, 71, 0
2, 209280, Note_on_c, 0, 77, 90
2, 209564, Note_off_c, 0, 77, 0
2, 209568, Note_on_c, 0, 74, 90
2, 209660, Note_off_c, 0, 74, 0
2, 209664, Note_on_c, 0, 72, 90
2, 209948, Note_off_c, 0, 72, 0
2, 209952, Note_on_c, 0, 76, 90
2, 210032, Note_on_c, 0, 74, 90
2, 210044, Note_off_c, 0, 76, 0
2, 210316, Note_off_c, 0, 74, 0
2, 210336, Note_on_c, 0, 71, 90
2, 210428, Note_off_c, 0, 71, 0
2, 210432, Note_on_c, 0, 72, 90
2, 210524, Note_off_c, 0, 72, 0
2, 210528, Note_on_c, 0, 81, 90
2, 210620, Note_off_c, 0, 81, 0
2, 210624, Note_on_c, 0, 72, 90
2, 210716, Note_off_c, 0, 72, 0
2, 210720, Note_on_c, 0, 81, 90
2, 210812, Note_off_c, 0, 81, 0
2, 210816, Note_on_c, 0, 72, 90
2, 210908, Note_off_c, 0, 72, 0
2, 210912, Note_on_c, 0, 81, 90
2, 211004, Note_off_c, 0, 81, 0
2, 211008, Note_on_c, 0, 72, 90
2, 211100, Note_off_c, 0, 72, 0
2, 211104, Note_on_c, 0, 81, 90
2, 211196, Note_off_c, 0, 81, 0
2, 211200, Note_on_c, 0, 72, 90
2, 211292, Note_off_c, 0, 72, 0
2, 211296, Note_on_c, 0, 81, 90
2, 211388, Note_off_c, 0, 81, 0
2, 211408, Note_on_c, 0, 72, 90
2, 211488, Note_on_c, 0, 81, 90
2, 211500, Note_off_c, 0, 72, 0
2, 211580, Note_off_c, 0, 81, 0
2, 211584, Note_on_c, 0, 72, 90
2, 211676, Note_off_c, 0, 72, 0
2, 211680, Note_on_c, 0, 81, 90
2, 211772, Note_off_c, 0, 81, 0
2, 211776, Note_on_c, 0, 72, 90
2, 211868, Note_off_c, 0, 72, 0
2, 211872, Note_on_c, 0, 81, 90
2, 211964, Note_off_c, 0, 81, 0
2, 211968, Note_on_c, 0, 71, 75
2, 212060, Note_off_c, 0, 71, 0
2, 212064, Note_on_c, 0, 81, 75
2, 212156, Note_off_c, 0, 81, 0
2, 212160, Note_on_c, 0, 71, 75
2, 212252, Note_off_c, 0, 71, 0
2, 212256, Note_on_c, 0, 81, 75
2, 212256, Note_on_c, 0, 62, 75
2, 212348, Note_off_c, 0, 81, 0
2, 212348, Note_off_c, 0, 62, 0
2, 212352, Note_on_c, 0, 71, 75
2, 212444, Note_off_c, 0, 71, 0
2, 212448, Note_on_c, 0, 81, 75
2, 212540, Note_off_c, 0, 81, 0
2, 212544, Note_on_c, 0, 71, 75
2, 212636, Note_off_c, 0, 71, 0
2, 212640, Note_on_c, 0, 81, 75
2, 212732, Note_off_c, 0, 81, 0
2, 212736, Note_on_c, 0, 71, 75
2, 212816, Note_on_c, 0, 79, 75
2, 212828, Note_off_c, 0, 71, 0
2, 212908, Note_off_c, 0, 79, 0
2, 212928, Note_on_c, 0, 71, 75
2, 213020, Note_off_c, 0, 71, 0
2, 213024, Note_on_c, 0, 79, 75
2, 213116, Note_off_c, 0, 79, 0
2, 213136, Note_on_c, 0, 70, 75
2, 213216, Note_on_c, 0, 79, 75
2, 213228, Note_off_c, 0, 70, 0
2, 213308, Note_off_c, 0, 79, 0
2, 213312, Note_on_c, 0, 70, 75
2, 213404, Note_off_c, 0, 70, 0
2, 213408, Note_on_c, 0, 79, 75
2, 213500, Note_off_c, 0, 79, 0
2, 213504, Note_on_c, 0, 69, 75
2, 213596, Note_off_c, 0, 69, 0
2, 213600, Note_on_c, 0, 79, 75
2, 213692, Note_off_c, 0, 79, 0
2, 213696, Note_on_c, 0, 69, 75
2, 213788, Note_off_c, 0, 69, 0
2, 213792, Note_on_c, 0, 79, 75
2, 213884, Note_off_c, 0, 79, 0
2, 213888, Note_on_c, 0, 69, 75
2, 213980, Note_off_c, 0, 69, 0
2, 213984, Note_on_c, 0, 79, 75
2, 214076, Note_off_c, 0, 79, 0
2, 214080, Note_on_c, 0, 69, 75
2, 214172, Note_off_c, 0, 69, 0
2, 214176, Note_on_c, 0, 79, 75
2, 214268, Note_off_c, 0, 79, 0
2, 214272, Note_on_c, 0, 69, 75
2, 214364, Note_off_c, 0, 69, 0
2, 214368, Note_on_c, 0, 77, 75
2, 214460, Note_off_c, 0, 77, 0
2, 214464, Note_on_c, 0, 69, 75
2, 214556, Note_off_c, 0, 69, 0
2, 214560, Note_on_c, 0, 77, 75
2, 214652, Note_off_c, 0, 77, 0
2, 214656, Note_on_c, 0, 69, 75
2, 214748, Note_off_c, 0, 69, 0
2, 214752, Note_on_c, 0, 77, 75
2, 214844, Note_off_c, 0, 77, 0
2, 214848, Note_on_c, 0, 69, 75
2, 214940, Note_off_c, 0, 69, 0
2, 214944, Note_on_c, 0, 77, 75
2, 215036, Note_off_c, 0, 77, 0
2, 215040, Note_on_c, 0, 67, 75
2, 215132, Note_off_c, 0, 67, 0
2, 215136, Note_on_c, 0, 77, 75
2, 215228, Note_off_c, 0, 77, 0
2, 215232, Note_on_c, 0, 67, 75
2, 215324, Note_off_c, 0, 67, 0
2, 215328, Note_on_c, 0, 77, 75
2, 215420, Note_off_c, 0, 77, 0
2, 215424, Note_on_c, 0, 67, 75
2, 215516, Note_off_c, 0, 67, 0
2, 215520, Note_on_c, 0, 77, 75
2, 215612, Note_off_c, 0, 77, 0
2, 215616, Note_on_c, 0, 67, 75
2, 215708, Note_off_c, 0, 67, 0
2, 215712, Note_on_c, 0, 77, 75
2, 215804, Note_off_c, 0, 77, 0
2, 215808, Note_on_c, 0, 67, 75
2, 215900, Note_off_c, 0, 67, 0
2, 215904, Note_on_c, 0, 76, 75
2, 215996, Note_off_c, 0, 76, 0
2, 216000, Note_on_c, 0, 67, 75
2, 216092, Note_off_c, 0, 67, 0
2, 216096, Note_on_c, 0, 76, 75
2, 216188, Note_off_c, 0, 76, 0
2, 216192, Note_on_c, 0, 67, 75
2, 216284, Note_off_c, 0, 67, 0
2, 216288, Note_on_c, 0, 76, 75
2, 216380, Note_off_c, 0, 76, 0
2, 216384, Note_on_c, 0, 67, 75
2, 216476, Note_off_c, 0, 67, 0
2, 216480, Note_on_c, 0, 76, 75
2, 216572, Note_off_c, 0, 76, 0
2, 216576, Note_on_c, 0, 65, 75
2, 216668, Note_off_c, 0, 65, 0
2, 216688, Note_on_c, 0, 76, 75
2, 216752, Note_on_c, 0, 65, 75
2, 216780, Note_off_c, 0, 76, 0
2, 216844, Note_off_c, 0, 65, 0
2, 216864, Note_on_c, 0, 76, 75
2, 216956, Note_off_c, 0, 76, 0
2, 216960, Note_on_c, 0, 65, 75
2, 217052, Note_off_c, 0, 65, 0
2, 217056, Note_on_c, 0, 76, 75
2, 217148, Note_off_c, 0, 76, 0
2, 217152, Note_on_c, 0, 65, 75
2, 217244, Note_off_c, 0, 65, 0
2, 217248, Note_on_c, 0, 76, 75
2, 217340, Note_off_c, 0, 76, 0
2, 217344, Note_on_c, 0, 65, 75
2, 217436, Note_off_c, 0, 65, 0
2, 217440, Note_on_c, 0, 74, 75
2, 217532, Note_off_c, 0, 74, 0
2, 217536, Note_on_c, 0, 65, 75
2, 217628, Note_off_c, 0, 65, 0
2, 217632, Note_on_c, 0, 74, 75
2, 217724, Note_off_c, 0, 74, 0
2, 217728, Note_on_c, 0, 65, 75
2, 217820, Note_off_c, 0, 65, 0
2, 217824, Note_on_c, 0, 74, 75
2, 217916, Note_off_c, 0, 74, 0
2, 217920, Note_on_c, 0, 65, 75
2, 218012, Note_off_c, 0, 65, 0
2, 218016, Note_on_c, 0, 74, 75
2, 218108, Note_off_c, 0, 74, 0
2, 218112, Note_on_c, 0, 64, 75
2, 218204, Note_off_c, 0, 64, 0
2, 218208, Note_on_c, 0, 74, 75
2, 218300, Note_off_c, 0, 74, 0
2, 218304, Note_on_c, 0, 64, 75
2, 218396, Note_off_c, 0, 64, 0
2, 218400, Note_on_c, 0, 74, 75
2, 218492, Note_off_c, 0, 74, 0
2, 218496, Note_on_c, 0, 64, 75
2, 218588, Note_off_c, 0, 64, 0
2, 218592, Note_on_c, 0, 72, 75
2, 218684, Note_off_c, 0, 72, 0
2, 218688, Note_on_c, 0, 64, 75
2, 218780, Note_off_c, 0, 64, 0
2, 218784, Note_on_c, 0, 72, 75
2, 218876, Note_off_c, 0, 72, 0
2, 218880, Note_on_c, 0, 64, 75
2, 218972, Note_off_c, 0, 64, 0
2, 218976, Note_on_c, 0, 71, 75
2, 219068, Note_off_c, 0, 71, 0
2, 219072, Note_on_c, 0, 64, 75
2, 219164, Note_off_c, 0, 64, 0
2, 219168, Note_on_c, 0, 71, 75
2, 219260, Note_off_c, 0, 71, 0
2, 219264, Note_on_c, 0, 64, 75
2, 219264, Note_on_c, 0, 71, 75
2, 219356, Note_off_c, 0, 64, 0
2, 219356, Note_off_c, 0, 71, 0
2, 219360, Note_on_c, 0, 76, 75
2, 219452, Note_off_c, 0, 76, 0
2, 219456, Note_on_c, 0, 64, 75
2, 219456, Note_on_c, 0, 71, 75
2, 219548, Note_off_c, 0, 64, 0
2, 219548, Note_off_c, 0, 71, 0
2, 219552, Note_on_c, 0, 76, 75
2, 219644, Note_off_c, 0, 76, 0
2, 219648, Note_on_c, 0, 76, 75
2, 219648, Note_on_c, 0, 69, 75
2, 219836, Note_off_c, 0, 76, 0
2, 219840, Note_on_c, 0, 75, 75
2, 220028, Note_off_c, 0, 69, 0
2, 220028, Note_off_c, 0, 75, 0
2, 220224, Note_on_c, 0, 74, 75
2, 220224, Note_on_c, 0, 69, 75
2, 220412, Note_off_c, 0, 74, 0
2, 220412, Note_off_c, 0, 69, 0
2, 220416, Note_on_c, 0, 74, 75
2, 220416, Note_on_c, 0, 69, 75
2, 220604, Note_off_c, 0, 74, 0
2, 220608, Note_on_c, 0, 73, 75
2, 220796, Note_off_c, 0, 69, 0
2, 220796, Note_off_c, 0, 73, 0
2, 220992, Note_on_c, 0, 72, 75
2, 220992, Note_on_c, 0, 69, 75
2, 221180, Note_off_c, 0, 72, 0
2, 221180, Note_off_c, 0, 69, 0
2, 221184, Note_on_c, 0, 70, 60
2, 221184, Note_on_c, 0, 69, 60
2, 221372, Note_off_c, 0, 70, 0
2, 221376, Note_on_c, 0, 71, 60
2, 221564, Note_off_c, 0, 69, 0
2, 221564, Note_off_c, 0, 71, 0
2, 221760, Note_on_c, 0, 73, 60
2, 221760, Note_on_c, 0, 69, 60
2, 221948, Note_off_c, 0, 73, 0
2, 221948, Note_off_c, 0, 69, 0
2, 222144, Note_on_c, 0, 74, 67
2, 222144, Note_on_c, 0, 69, 67
2, 222332, Note_off_c, 0, 74, 0
2, 222332, Note_off_c, 0, 69, 0
2, 222528, Note_on_c, 0, 76, 75
2, 222528, Note_on_c, 0, 69, 75
2, 222716, Note_off_c, 0, 76, 0
2, 222716, Note_off_c, 0, 69, 0
2, 222720, Note_on_c, 0, 79, 75
2, 222720, Note_on_c, 0, 69, 75
2, 222908, Note_off_c, 0, 79, 0
2, 222912, Note_on_c, 0, 77, 69
2, 223292, Note_off_c, 0, 77, 0
2, 223296, Note_on_c, 0, 76, 69
2, 223484, Note_off_c, 0, 76, 0
2, 223488, Note_on_c, 0, 74, 66
2, 223676, Note_off_c, 0, 74, 0
2, 223680, Note_on_c, 0, 72, 66
2, 223868, Note_off_c, 0, 69, 0
2, 223868, Note_off_c, 0, 72, 0
2, 223872, Note_on_c, 0, 71, 63
2, 223872, Note_on_c, 0, 66, 63
2, 224060, Note_off_c, 0, 71, 0
2, 224064, Note_on_c, 0, 69, 60
2, 224252, Note_off_c, 0, 66, 0
2, 224252, Note_off_c, 0, 69, 0
2, 224256, Note_on_c, 0, 68, 90
2, 224268, Note_on_c, 0, 71, 90
2, 224284, Note_on_c, 0, 76, 90
2, 224636, Note_off_c, 0, 68, 0
2, 224640, Note_on_c, 0, 76, 90
2, 224648, Note_off_c, 0, 71, 0
2, 224664, Note_off_c, 0, 76, 0
2, 224924, Note_off_c, 0, 76, 0
2, 224928, Note_on_c, 0, 76, 90
2, 225020, Note_off_c, 0, 76, 0
2, 225024, Note_on_c, 0, 76, 90
2, 225404, Note_off_c, 0, 76, 0
2, 225408, Note_on_c, 0, 76, 90
2, 225788, Note_off_c, 0, 76, 0
2, 225792, Note_on_c, 0, 81, 75
2, 225792, Note_on_c, 0, 69, 75
2, 226364, Note_off_c, 0, 81, 0
2, 226368, Note_on_c, 0, 79, 75
2, 226460, Note_off_c, 0, 79, 0
2, 226464, Note_on_c, 0, 77, 75
2, 226556, Note_off_c, 0, 77, 0
2, 226560, Note_on_c, 0, 76, 75
2, 226940, Note_off_c, 0, 76, 0
2, 226944, Note_on_c, 0, 75, 75
2, 227324, Note_off_c, 0, 69, 0
2, 227324, Note_off_c, 0, 75, 0
2, 227328, Note_on_c, 0, 68, 67
2, 227340, Note_on_c, 0, 71, 67
2, 227356, Note_on_c, 0, 76, 67
2, 227708, Note_off_c, 0, 68, 0
2, 227712, Note_on_c, 0, 76, 60
2, 227720, Note_off_c, 0, 71, 0
2, 227736, Note_off_c, 0, 76, 0
2, 227996, Note_off_c, 0, 76, 0
2, 228000, Note_on_c, 0, 76, 60
2, 228092, Note_off_c, 0, 76, 0
2, 228096, Note_on_c, 0, 76, 60
2, 228476, Note_off_c, 0, 76, 0
2, 228480, Note_on_c, 0, 76, 60
2, 228860, Note_off_c, 0, 76, 0
2, 228864, Note_on_c, 0, 81, 75
2, 228864, Note_on_c, 0, 69, 75
2, 229436, Note_off_c, 0, 81, 0
2, 229440, Note_on_c, 0, 79, 75
2, 229532, Note_off_c, 0, 79, 0
2, 229536, Note_on_c, 0, 77, 75
2, 229628, Note_off_c, 0, 77, 0
2, 229632, Note_on_c, 0, 76, 75
2, 230012, Note_off_c, 0, 76, 0
2, 230016, Note_on_c, 0, 75, 75
2, 230396, Note_off_c, 0, 69, 0
2, 230396, Note_off_c, 0, 75, 0
2, 230400, Note_on_c, 0, 76, 90
2, 230492, Note_off_c, 0, 76, 0
2, 230496, Note_on_c, 0, 71, 90
2, 230588, Note_off_c, 0, 71, 0
2, 230592, Note_on_c, 0, 68, 90
2, 230684, Note_off_c, 0, 68, 0
2, 230688, Note_on_c, 0, 71, 90
2, 230780, Note_off_c, 0, 71, 0
2, 230784, Note_on_c, 0, 76, 90
2, 230876, Note_off_c, 0, 76, 0
2, 230880, Note_on_c, 0, 72, 90
2, 230972, Note_off_c, 0, 72, 0
2, 230976, Note_on_c, 0, 69, 90
2, 231068, Note_off_c, 0, 69, 0
2, 231072, Note_on_c, 0, 72, 90
2, 231164, Note_off_c, 0, 72, 0
2, 231168, Note_on_c, 0, 76, 90
2, 231260, Note_off_c, 0, 76, 0
2, 231264, Note_on_c, 0, 71, 90
2, 231356, Note_off_c, 0, 71, 0
2, 231360, Note_on_c, 0, 68, 90
2, 231452, Note_off_c, 0, 68, 0
2, 231456, Note_on_c, 0, 71, 90
2, 231548, Note_off_c, 0, 71, 0
2, 231552, Note_on_c, 0, 76, 90
2, 231644, Note_off_c, 0, 76, 0
2, 231648, Note_on_c, 0, 72, 90
2, 231740, Note_off_c, 0, 72, 0
2, 231744, Note_on_c, 0, 69, 90
2, 231836, Note_off_c, 0, 69, 0
2, 231840, Note_on_c, 0, 72, 90
2, 231932, Note_off_c, 0, 72, 0
2, 231936, Note_on_c, 0, 76, 82
2, 232028, Note_off_c, 0, 76, 0
2, 232032, Note_on_c, 0, 71, 82
2, 232124, Note_off_c, 0, 71, 0
2, 232128, Note_on_c, 0, 68, 82
2, 232220, Note_off_c, 0, 68, 0
2, 232224, Note_on_c, 0, 71, 82
2, 232316, Note_off_c, 0, 71, 0
2, 232320, Note_on_c, 0, 76, 82
2, 232412, Note_off_c, 0, 76, 0
2, 232416, Note_on_c, 0, 72, 82
2, 232508, Note_off_c, 0, 72, 0
2, 232512, Note_on_c, 0, 69, 82
2, 232604, Note_off_c, 0, 69, 0
2, 232608, Note_on_c, 0, 72, 82
2, 232700, Note_off_c, 0, 72, 0
2, 232704, Note_on_c, 0, 71, 82
2, 232704, Note_on_c, 0, 68, 82
2, 232796, Note_off_c, 0, 71, 0
2, 232800, Note_on_c, 0, 76, 82
2, 232892, Note_off_c, 0, 68, 0
2, 232892, Note_off_c, 0, 76, 0
2, 232896, Note_on_c, 0, 72, 82
2, 232896, Note_on_c, 0, 69, 82
2, 232988, Note_off_c, 0, 72, 0
2, 232992, Note_on_c, 0, 76, 82
2, 233084, Note_off_c, 0, 69, 0
2, 233084, Note_off_c, 0, 76, 0
2, 233088, Note_on_c, 0, 71, 82
2, 233088, Note_on_c, 0, 68, 82
2, 233180, Note_off_c, 0, 71, 0
2, 233184, Note_on_c, 0, 76, 82
2, 233276, Note_off_c, 0, 68, 0
2, 233276, Note_off_c, 0, 76, 0
2, 233280, Note_on_c, 0, 72, 82
2, 233280, Note_on_c, 0, 69, 82
2, 233372, Note_off_c, 0, 72, 0
2, 233376, Note_on_c, 0, 76, 82
2, 233468, Note_off_c, 0, 69, 0
2, 233468, Note_off_c, 0, 76, 0
2, 233472, Note_on_c, 0, 71, 82
2, 233472, Note_on_c, 0, 68, 82
2, 233852, Note_off_c, 0, 71, 0
2, 233852, Note_off_c, 0, 68, 0
2, 233856, Note_on_c, 0, 76, 82
2, 233856, Note_on_c, 0, 71, 82
2, 233856, Note_on_c, 0, 68, 82
2, 233856, Note_on_c, 0, 64, 82
2, 234236, Note_off_c, 0, 76, 0
2, 234236, Note_off_c, 0, 71, 0
2, 234236, Note_off_c, 0, 68, 0
2, 234236, Note_off_c, 0, 64, 0
2, 234432, Note_on_c, 0, 76, 60
2, 234620, Note_off_c, 0, 76, 0
2, 234624, Note_on_c, 0, 78, 60
2, 234812, Note_off_c, 0, 78, 0
2, 234816, Note_on_c, 0, 80, 60
2, 235004, Note_off_c, 0, 80, 0
2, 235008, Note_on_c, 0, 60, 75
2, 235008, Note_on_c, 0, 64, 75
2, 235008, Note_on_c, 0, 81, 75
2, 235100, Note_off_c, 0, 81, 0
2, 235104, Note_on_c, 0, 83, 75
2, 235196, Note_off_c, 0, 60, 0
2, 235196, Note_off_c, 0, 64, 0
2, 235196, Note_off_c, 0, 83, 0
2, 235200, Note_on_c, 0, 80, 75
2, 235200, Note_on_c, 0, 65, 75
2, 235200, Note_on_c, 0, 62, 75
2, 235292, Note_off_c, 0, 80, 0
2, 235296, Note_on_c, 0, 83, 75
2, 235388, Note_off_c, 0, 65, 0
2, 235388, Note_off_c, 0, 62, 0
2, 235388, Note_off_c, 0, 83, 0
2, 235392, Note_on_c, 0, 81, 75
2, 235392, Note_on_c, 0, 64, 75
2, 235392, Note_on_c, 0, 60, 75
2, 235484, Note_off_c, 0, 81, 0
2, 235488, Note_on_c, 0, 83, 75
2, 235580, Note_off_c, 0, 64, 0
2, 235580, Note_off_c, 0, 60, 0
2, 235580, Note_off_c, 0, 83, 0
2, 235584, Note_on_c, 0, 80, 75
2, 235584, Note_on_c, 0, 65, 75
2, 235584, Note_on_c, 0, 62, 75
2, 235676, Note_off_c, 0, 80, 0
2, 235680, Note_on_c, 0, 83, 75
2, 235772, Note_off_c, 0, 65, 0
2, 235772, Note_off_c, 0, 62, 0
2, 235772, Note_off_c, 0, 83, 0
2, 235776, Note_on_c, 0, 81, 75
2, 235776, Note_on_c, 0, 64, 75
2, 235776, Note_on_c, 0, 60, 75
2, 235868, Note_off_c, 0, 81, 0
2, 235872, Note_on_c, 0, 83, 75
2, 235964, Note_off_c, 0, 83, 0
2, 235968, Note_on_c, 0, 79, 75
2, 236060, Note_off_c, 0, 79, 0
2, 236064, Note_on_c, 0, 83, 75
2, 236156, Note_off_c, 0, 64, 0
2, 236156, Note_off_c, 0, 60, 0
2, 236156, Note_off_c, 0, 83, 0
2, 236160, Note_on_c, 0, 77, 75
2, 236252, Note_off_c, 0, 77, 0
2, 236256, Note_on_c, 0, 79, 75
2, 236348, Note_off_c, 0, 79, 0
2, 236352, Note_on_c, 0, 76, 75
2, 236444, Note_off_c, 0, 76, 0
2, 236448, Note_on_c, 0, 77, 75
2, 236540, Note_off_c, 0, 77, 0
2, 236544, Note_on_c, 0, 74, 75
2, 236544, Note_on_c, 0, 69, 75
2, 236544, Note_on_c, 0, 65, 75
2, 236636, Note_off_c, 0, 74, 0
2, 236640, Note_on_c, 0, 76, 75
2, 236732, Note_off_c, 0, 69, 0
2, 236732, Note_off_c, 0, 65, 0
2, 236732, Note_off_c, 0, 76, 0
2, 236736, Note_on_c, 0, 73, 75
2, 236736, Note_on_c, 0, 71, 75
2, 236736, Note_on_c, 0, 67, 75
2, 236828, Note_off_c, 0, 73, 0
2, 236832, Note_on_c, 0, 76, 75
2, 236924, Note_off_c, 0, 71, 0
2, 236924, Note_off_c, 0, 67, 0
2, 236924, Note_off_c, 0, 76, 0
2, 236928, Note_on_c, 0, 74, 75
2, 236928, Note_on_c, 0, 69, 75
2, 236928, Note_on_c, 0, 65, 75
2, 237020, Note_off_c, 0, 74, 0
2, 237024, Note_on_c, 0, 76, 75
2, 237116, Note_off_c, 0, 69, 0
2, 237116, Note_off_c, 0, 65, 0
2, 237116, Note_off_c, 0, 76, 0
2, 237120, Note_on_c, 0, 73, 75
2, 237120, Note_on_c, 0, 71, 75
2, 237120, Note_on_c, 0, 67, 75
2, 237212, Note_off_c, 0, 73, 0
2, 237216, Note_on_c, 0, 76, 75
2, 237308, Note_off_c, 0, 71, 0
2, 237308, Note_off_c, 0, 67, 0
2, 237308, Note_off_c, 0, 76, 0
2, 237312, Note_on_c, 0, 74, 75
2, 237312, Note_on_c, 0, 69, 75
2, 237312, Note_on_c, 0, 65, 75
2, 237404, Note_off_c, 0, 74, 0
2, 237408, Note_on_c, 0, 76, 75
2, 237500, Note_off_c, 0, 76, 0
2, 237504, Note_on_c, 0, 72, 75
2, 237596, Note_off_c, 0, 72, 0
2, 237600, Note_on_c, 0, 74, 75
2, 237692, Note_off_c, 0, 69, 0
2, 237692, Note_off_c, 0, 65, 0
2, 237692, Note_off_c, 0, 74, 0
2, 237696, Note_on_c, 0, 71, 75
2, 237788, Note_off_c, 0, 71, 0
2, 237792, Note_on_c, 0, 72, 75
2, 237884, Note_off_c, 0, 72, 0
2, 237888, Note_on_c, 0, 69, 75
2, 237980, Note_off_c, 0, 69, 0
2, 237984, Note_on_c, 0, 71, 75
2, 238076, Note_off_c, 0, 71, 0
2, 238080, Note_on_c, 0, 68, 75
2, 238172, Note_off_c, 0, 68, 0
2, 238176, Note_on_c, 0, 71, 75
2, 238268, Note_off_c, 0, 71, 0
2, 238272, Note_on_c, 0, 69, 75
2, 238364, Note_off_c, 0, 69, 0
2, 238368, Note_on_c, 0, 71, 75
2, 238460, Note_off_c, 0, 71, 0
2, 238464, Note_on_c, 0, 68, 75
2, 238556, Note_off_c, 0, 68, 0
2, 238560, Note_on_c, 0, 71, 75
2, 238652, Note_off_c, 0, 71, 0
2, 238656, Note_on_c, 0, 69, 75
2, 238748, Note_off_c, 0, 69, 0
2, 238752, Note_on_c, 0, 71, 75
2, 238844, Note_off_c, 0, 71, 0
2, 238848, Note_on_c, 0, 68, 75
2, 238940, Note_off_c, 0, 68, 0
2, 238944, Note_on_c, 0, 71, 75
2, 239036, Note_off_c, 0, 71, 0
2, 239040, Note_on_c, 0, 65, 75
2, 239132, Note_off_c, 0, 65, 0
2, 239136, Note_on_c, 0, 71, 75
2, 239228, Note_off_c, 0, 71, 0
2, 239232, Note_on_c, 0, 64, 75
2, 239324, Note_off_c, 0, 64, 0
2, 239328, Note_on_c, 0, 71, 75
2, 239420, Note_off_c, 0, 71, 0
2, 239424, Note_on_c, 0, 62, 75
2, 239516, Note_off_c, 0, 62, 0
2, 239520, Note_on_c, 0, 71, 75
2, 239612, Note_off_c, 0, 71, 0
2, 239616, Note_on_c, 0, 60, 75
2, 239708, Note_off_c, 0, 60, 0
2, 239712, Note_on_c, 0, 64, 75
2, 239804, Note_off_c, 0, 64, 0
2, 239808, Note_on_c, 0, 63, 75
2, 239900, Note_off_c, 0, 63, 0
2, 239904, Note_on_c, 0, 64, 75
2, 239996, Note_off_c, 0, 64, 0
2, 240000, Note_on_c, 0, 65, 75
2, 240092, Note_off_c, 0, 65, 0
2, 240096, Note_on_c, 0, 64, 75
2, 240188, Note_off_c, 0, 64, 0
2, 240192, Note_on_c, 0, 68, 75
2, 240284, Note_off_c, 0, 68, 0
2, 240288, Note_on_c, 0, 64, 75
2, 240380, Note_off_c, 0, 64, 0
2, 240384, Note_on_c, 0, 69, 75
2, 240476, Note_off_c, 0, 69, 0
2, 240480, Note_on_c, 0, 64, 75
2, 240572, Note_off_c, 0, 64, 0
2, 240576, Note_on_c, 0, 71, 75
2, 240668, Note_off_c, 0, 71, 0
2, 240672, Note_on_c, 0, 64, 75
2, 240764, Note_off_c, 0, 64, 0
2, 240768, Note_on_c, 0, 72, 75
2, 240860, Note_off_c, 0, 72, 0
2, 240864, Note_on_c, 0, 64, 75
2, 240956, Note_off_c, 0, 64, 0
2, 240960, Note_on_c, 0, 74, 75
2, 241052, Note_off_c, 0, 74, 0
2, 241056, Note_on_c, 0, 64, 75
2, 241148, Note_off_c, 0, 64, 0
2, 241152, Note_on_c, 0, 76, 60
2, 241244, Note_off_c, 0, 76, 0
2, 241248, Note_on_c, 0, 77, 60
2, 241340, Note_off_c, 0, 77, 0
2, 241344, Note_on_c, 0, 75, 60
2, 241436, Note_off_c, 0, 75, 0
2, 241440, Note_on_c, 0, 77, 60
2, 241532, Note_off_c, 0, 77, 0
2, 241536, Note_on_c, 0, 76, 60
2, 241628, Note_off_c, 0, 76, 0
2, 241632, Note_on_c, 0, 77, 60
2, 241724, Note_off_c, 0, 77, 0
2, 241728, Note_on_c, 0, 75, 60
2, 241820, Note_off_c, 0, 75, 0
2, 241824, Note_on_c, 0, 77, 60
2, 241916, Note_off_c, 0, 77, 0
2, 241920, Note_on_c, 0, 76, 60
2, 242012, Note_off_c, 0, 76, 0
2, 242016, Note_on_c, 0, 81, 60
2, 242108, Note_off_c, 0, 81, 0
2, 242112, Note_on_c, 0, 80, 60
2, 242204, Note_off_c, 0, 80, 0
2, 242208, Note_on_c, 0, 81, 60
2, 242300, Note_off_c, 0, 81, 0
2, 242304, Note_on_c, 0, 83, 60
2, 242396, Note_off_c, 0, 83, 0
2, 242400, Note_on_c, 0, 81, 60
2, 242492, Note_off_c, 0, 81, 0
2, 242496, Note_on_c, 0, 80, 60
2, 242588, Note_off_c, 0, 80, 0
2, 242592, Note_on_c, 0, 81, 60
2, 242684, Note_off_c, 0, 81, 0
2, 242688, Note_on_c, 0, 79, 75
2, 242780, Note_off_c, 0, 79, 0
2, 242784, Note_on_c, 0, 77, 75
2, 242876, Note_off_c, 0, 77, 0
2, 242880, Note_on_c, 0, 76, 75
2, 242972, Note_off_c, 0, 76, 0
2, 242976, Note_on_c, 0, 77, 75
2, 243068, Note_off_c, 0, 77, 0
2, 243072, Note_on_c, 0, 76, 75
2, 243164, Note_off_c, 0, 76, 0
2, 243168, Note_on_c, 0, 74, 75
2, 243260, Note_off_c, 0, 74, 0
2, 243264, Note_on_c, 0, 73, 75
2, 243356, Note_off_c, 0, 73, 0
2, 243360, Note_on_c, 0, 74, 75
2, 243452, Note_off_c, 0, 74, 0
2, 243456, Note_on_c, 0, 72, 75
2, 243548, Note_off_c, 0, 72, 0
2, 243552, Note_on_c, 0, 70, 75
2, 243644, Note_off_c, 0, 70, 0
2, 243648, Note_on_c, 0, 69, 75
2, 243740, Note_off_c, 0, 69, 0
2, 243744, Note_on_c, 0, 70, 75
2, 243836, Note_off_c, 0, 70, 0
2, 243840, Note_on_c, 0, 69, 75
2, 243932, Note_off_c, 0, 69, 0
2, 243936, Note_on_c, 0, 70, 75
2, 244028, Note_off_c, 0, 70, 0
2, 244032, Note_on_c, 0, 72, 75
2, 244124, Note_off_c, 0, 72, 0
2, 244128, Note_on_c, 0, 74, 75
2, 244220, Note_off_c, 0, 74, 0
2, 244224, Note_on_c, 0, 77, 75
2, 244316, Note_off_c, 0, 77, 0
2, 244320, Note_on_c, 0, 76, 75
2, 244412, Note_off_c, 0, 76, 0
2, 244416, Note_on_c, 0, 75, 75
2, 244508, Note_off_c, 0, 75, 0
2, 244512, Note_on_c, 0, 76, 75
2, 244604, Note_off_c, 0, 76, 0
2, 244608, Note_on_c, 0, 74, 75
2, 244700, Note_off_c, 0, 74, 0
2, 244704, Note_on_c, 0, 72, 75
2, 244796, Note_off_c, 0, 72, 0
2, 244800, Note_on_c, 0, 71, 75
2, 244892, Note_off_c, 0, 71, 0
2, 244896, Note_on_c, 0, 72, 75
2, 244988, Note_off_c, 0, 72, 0
2, 244992, Note_on_c, 0, 71, 75
2, 245084, Note_off_c, 0, 71, 0
2, 245088, Note_on_c, 0, 69, 75
2, 245180, Note_off_c, 0, 69, 0
2, 245184, Note_on_c, 0, 68, 75
2, 245276, Note_off_c, 0, 68, 0
2, 245280, Note_on_c, 0, 69, 75
2, 245372, Note_off_c, 0, 69, 0
2, 245376, Note_on_c, 0, 68, 75
2, 245468, Note_off_c, 0, 68, 0
2, 245472, Note_on_c, 0, 69, 75
2, 245564, Note_off_c, 0, 69, 0
2, 245568, Note_on_c, 0, 71, 75
2, 245660, Note_off_c, 0, 71, 0
2, 245664, Note_on_c, 0, 72, 75
2, 245756, Note_off_c, 0, 72, 0
2, 245760, Note_on_c, 0, 74, 75
2, 245852, Note_off_c, 0, 74, 0
2, 245856, Note_on_c, 0, 77, 75
2, 245948, Note_off_c, 0, 77, 0
2, 245952, Note_on_c, 0, 72, 75
2, 246044, Note_off_c, 0, 72, 0
2, 246048, Note_on_c, 0, 77, 75
2, 246140, Note_off_c, 0, 77, 0
2, 246144, Note_on_c, 0, 71, 75
2, 246236, Note_off_c, 0, 71, 0
2, 246240, Note_on_c, 0, 77, 75
2, 246332, Note_off_c, 0, 77, 0
2, 246336, Note_on_c, 0, 69, 75
2, 246428, Note_off_c, 0, 69, 0
2, 246432, Note_on_c, 0, 77, 75
2, 246524, Note_off_c, 0, 77, 0
2, 246528, Note_on_c, 0, 68, 75
2, 246620, Note_off_c, 0, 68, 0
2, 246624, Note_on_c, 0, 71, 75
2, 246716, Note_off_c, 0, 71, 0
2, 246720, Note_on_c, 0, 65, 75
2, 246812, Note_off_c, 0, 65, 0
2, 246832, Note_on_c, 0, 71, 75
2, 246912, Note_on_c, 0, 64, 75
2, 246924, Note_off_c, 0, 71, 0
2, 247004, Note_off_c, 0, 64, 0
2, 247008, Note_on_c, 0, 71, 75
2, 247100, Note_off_c, 0, 71, 0
2, 247104, Note_on_c, 0, 62, 75
2, 247196, Note_off_c, 0, 62, 0
2, 247200, Note_on_c, 0, 71, 75
2, 247292, Note_off_c, 0, 71, 0
2, 247296, Note_on_c, 0, 60, 78
2, 247388, Note_off_c, 0, 60, 0
2, 247392, Note_on_c, 0, 72, 78
2, 247484, Note_off_c, 0, 72, 0
2, 247488, Note_on_c, 0, 71, 78
2, 247580, Note_off_c, 0, 71, 0
2, 247584, Note_on_c, 0, 72, 78
2, 247676, Note_off_c, 0, 72, 0
2, 247680, Note_on_c, 0, 74, 79
2, 247772, Note_off_c, 0, 74, 0
2, 247776, Note_on_c, 0, 72, 79
2, 247868, Note_off_c, 0, 72, 0
2, 247872, Note_on_c, 0, 71, 79
2, 247964, Note_off_c, 0, 71, 0
2, 247968, Note_on_c, 0, 69, 79
2, 248060, Note_off_c, 0, 69, 0
2, 248064, Note_on_c, 0, 68, 81
2, 248156, Note_off_c, 0, 68, 0
2, 248160, Note_on_c, 0, 74, 81
2, 248252, Note_off_c, 0, 74, 0
2, 248256, Note_on_c, 0, 73, 81
2, 248348, Note_off_c, 0, 73, 0
2, 248352, Note_on_c, 0, 74, 81
2, 248444, Note_off_c, 0, 74, 0
2, 248448, Note_on_c, 0, 76, 82
2, 248540, Note_off_c, 0, 76, 0
2, 248544, Note_on_c, 0, 74, 82
2, 248636, Note_off_c, 0, 74, 0
2, 248640, Note_on_c, 0, 72, 82
2, 248732, Note_off_c, 0, 72, 0
2, 248736, Note_on_c, 0, 71, 82
2, 248828, Note_off_c, 0, 71, 0
2, 248832, Note_on_c, 0, 69, 84
2, 248924, Note_off_c, 0, 69, 0
2, 248928, Note_on_c, 0, 71, 84
2, 249020, Note_off_c, 0, 71, 0
2, 249024, Note_on_c, 0, 72, 84
2, 249116, Note_off_c, 0, 72, 0
2, 249120, Note_on_c, 0, 71, 84
2, 249212, Note_off_c, 0, 71, 0
2, 249216, Note_on_c, 0, 72, 85
2, 249308, Note_off_c, 0, 72, 0
2, 249312, Note_on_c, 0, 75, 85
2, 249404, Note_off_c, 0, 75, 0
2, 249408, Note_on_c, 0, 76, 85
2, 249500, Note_off_c, 0, 76, 0
2, 249504, Note_on_c, 0, 75, 85
2, 249596, Note_off_c, 0, 75, 0
2, 249600, Note_on_c, 0, 76, 87
2, 249692, Note_off_c, 0, 76, 0
2, 249696, Note_on_c, 0, 80, 87
2, 249788, Note_off_c, 0, 80, 0
2, 249792, Note_on_c, 0, 81, 87
2, 249884, Note_off_c, 0, 81, 0
2, 249888, Note_on_c, 0, 80, 87
2, 249980, Note_off_c, 0, 80, 0
2, 249984, Note_on_c, 0, 81, 88
2, 250076, Note_off_c, 0, 81, 0
2, 250080, Note_on_c, 0, 79, 88
2, 250172, Note_off_c, 0, 79, 0
2, 250176, Note_on_c, 0, 77, 88
2, 250268, Note_off_c, 0, 77, 0
2, 250272, Note_on_c, 0, 76, 88
2, 250364, Note_off_c, 0, 76, 0
2, 250368, Note_on_c, 0, 77, 90
2, 250460, Note_off_c, 0, 77, 0
2, 250464, Note_on_c, 0, 79, 90
2, 250556, Note_off_c, 0, 79, 0
2, 250560, Note_on_c, 0, 81, 90
2, 250652, Note_off_c, 0, 81, 0
2, 250656, Note_on_c, 0, 77, 90
2, 250748, Note_off_c, 0, 77, 0
2, 250752, Note_on_c, 0, 74, 90
2, 250844, Note_off_c, 0, 74, 0
2, 250848, Note_on_c, 0, 76, 90
2, 250940, Note_off_c, 0, 76, 0
2, 250944, Note_on_c, 0, 77, 90
2, 251036, Note_off_c, 0, 77, 0
2, 251040, Note_on_c, 0, 74, 90
2, 251132, Note_off_c, 0, 74, 0
2, 251136, Note_on_c, 0, 71, 90
2, 251228, Note_off_c, 0, 71, 0
2, 251232, Note_on_c, 0, 72, 90
2, 251324, Note_off_c, 0, 72, 0
2, 251328, Note_on_c, 0, 74, 90
2, 251420, Note_off_c, 0, 74, 0
2, 251424, Note_on_c, 0, 71, 90
2, 251516, Note_off_c, 0, 71, 0
2, 251520, Note_on_c, 0, 76, 90
2, 251612, Note_off_c, 0, 76, 0
2, 251616, Note_on_c, 0, 77, 90
2, 251708, Note_off_c, 0, 77, 0
2, 251712, Note_on_c, 0, 74, 90
2, 251804, Note_off_c, 0, 74, 0
2, 251808, Note_on_c, 0, 71, 90
2, 251900, Note_off_c, 0, 71, 0
2, 251904, Note_on_c, 0, 75, 75
2, 251996, Note_off_c, 0, 75, 0
2, 252000, Note_on_c, 0, 76, 75
2, 252092, Note_off_c, 0, 76, 0
2, 252096, Note_on_c, 0, 77, 75
2, 252188, Note_off_c, 0, 77, 0
2, 252192, Note_on_c, 0, 76, 75
2, 252284, Note_off_c, 0, 76, 0
2, 252288, Note_on_c, 0, 74, 75
2, 252380, Note_off_c, 0, 74, 0
2, 252384, Note_on_c, 0, 72, 75
2, 252476, Note_off_c, 0, 72, 0
2, 252480, Note_on_c, 0, 71, 75
2, 252572, Note_off_c, 0, 71, 0
2, 252576, Note_on_c, 0, 69, 75
2, 252668, Note_off_c, 0, 69, 0
2, 252672, Note_on_c, 0, 72, 75
2, 252716, Note_off_c, 0, 72, 0
2, 252720, Note_on_c, 0, 71, 75
2, 252764, Note_off_c, 0, 71, 0
2, 252768, Note_on_c, 0, 72, 75
2, 252812, Note_off_c, 0, 72, 0
2, 252816, Note_on_c, 0, 71, 75
2, 252860, Note_off_c, 0, 71, 0
2, 252864, Note_on_c, 0, 72, 75
2, 252908, Note_off_c, 0, 72, 0
2, 252912, Note_on_c, 0, 71, 75
2, 252956, Note_off_c, 0, 71, 0
2, 252960, Note_on_c, 0, 72, 75
2, 253004, Note_off_c, 0, 72, 0
2, 253008, Note_on_c, 0, 71, 75
2, 253052, Note_off_c, 0, 71, 0
2, 253056, Note_on_c, 0, 72, 75
2, 253100, Note_off_c, 0, 72, 0
2, 253104, Note_on_c, 0, 71, 75
2, 253148, Note_off_c, 0, 71, 0
2, 253152, Note_on_c, 0, 72, 75
2, 253196, Note_off_c, 0, 72, 0
2, 253200, Note_on_c, 0, 71, 75
2, 253244, Note_off_c, 0, 71, 0
2, 253248, Note_on_c, 0, 69, 75
2, 253340, Note_off_c, 0, 69, 0
2, 253344, Note_on_c, 0, 71, 75
2, 253436, Note_off_c, 0, 71, 0
2, 253536, Note_on_c, 0, 81, 60
2, 253628, Note_off_c, 0, 81, 0
2, 253632, Note_on_c, 0, 79, 60
2, 253724, Note_off_c, 0, 79, 0
2, 253728, Note_on_c, 0, 77, 60
2, 253820, Note_off_c, 0, 77, 0
2, 253824, Note_on_c, 0, 76, 60
2, 253916, Note_off_c, 0, 76, 0
2, 253920, Note_on_c, 0, 77, 60
2, 254012, Note_off_c, 0, 77, 0
2, 254016, Note_on_c, 0, 75, 60
2, 254108, Note_off_c, 0, 75, 0
2, 254112, Note_on_c, 0, 77, 60
2, 254204, Note_off_c, 0, 77, 0
2, 254208, Note_on_c, 0, 76, 60
2, 254300, Note_off_c, 0, 76, 0
2, 254304, Note_on_c, 0, 77, 60
2, 254396, Note_off_c, 0, 77, 0
2, 254400, Note_on_c, 0, 75, 60
2, 254492, Note_off_c, 0, 75, 0
2, 254496, Note_on_c, 0, 77, 60
2, 254588, Note_off_c, 0, 77, 0
2, 254592, Note_on_c, 0, 76, 60
2, 254592, Note_on_c, 0, 68, 60
2, 254684, Note_off_c, 0, 76, 0
2, 254688, Note_on_c, 0, 77, 60
2, 254780, Note_off_c, 0, 68, 0
2, 254780, Note_off_c, 0, 77, 0
2, 254784, Note_on_c, 0, 74, 60
2, 254784, Note_on_c, 0, 64, 60
2, 254876, Note_off_c, 0, 74, 0
2, 254880, Note_on_c, 0, 76, 60
2, 254972, Note_off_c, 0, 64, 0
2, 254972, Note_off_c, 0, 76, 0
2, 254976, Note_on_c, 0, 69, 75
2, 254976, Note_on_c, 0, 72, 75
2, 255068, Note_off_c, 0, 72, 0
2, 255072, Note_on_c, 0, 81, 75
2, 255164, Note_off_c, 0, 81, 0
2, 255168, Note_on_c, 0, 79, 75
2, 255260, Note_off_c, 0, 79, 0
2, 255264, Note_on_c, 0, 77, 75
2, 255356, Note_off_c, 0, 69, 0
2, 255356, Note_off_c, 0, 77, 0
2, 255360, Note_on_c, 0, 76, 75
2, 255452, Note_off_c, 0, 76, 0
2, 255456, Note_on_c, 0, 77, 75
2, 255548, Note_off_c, 0, 77, 0
2, 255552, Note_on_c, 0, 75, 75
2, 255644, Note_off_c, 0, 75, 0
2, 255648, Note_on_c, 0, 77, 75
2, 255740, Note_off_c, 0, 77, 0
2, 255744, Note_on_c, 0, 76, 75
2, 255836, Note_off_c, 0, 76, 0
2, 255840, Note_on_c, 0, 77, 75
2, 255932, Note_off_c, 0, 77, 0
2, 255936, Note_on_c, 0, 75, 75
2, 256028, Note_off_c, 0, 75, 0
2, 256032, Note_on_c, 0, 77, 75
2, 256124, Note_off_c, 0, 77, 0
2, 256128, Note_on_c, 0, 68, 75
2, 256144, Note_on_c, 0, 76, 75
2, 256224, Note_on_c, 0, 77, 75
2, 256236, Note_off_c, 0, 76, 0
2, 256316, Note_off_c, 0, 68, 0
2, 256316, Note_off_c, 0, 77, 0
2, 256320, Note_on_c, 0, 64, 75
2, 256320, Note_on_c, 0, 74, 75
2, 256412, Note_off_c, 0, 74, 0
2, 256416, Note_on_c, 0, 76, 75
2, 256508, Note_off_c, 0, 64, 0
2, 256508, Note_off_c, 0, 76, 0
2, 256512, Note_on_c, 0, 69, 75
2, 256512, Note_on_c, 0, 72, 75
2, 256604, Note_off_c, 0, 72, 0
2, 256608, Note_on_c, 0, 74, 75
2, 256700, Note_off_c, 0, 74, 0
2, 256704, Note_on_c, 0, 76, 75
2, 256796, Note_off_c, 0, 76, 0
2, 256800, Note_on_c, 0, 74, 75
2, 256892, Note_off_c, 0, 69, 0
2, 256892, Note_off_c, 0, 74, 0
2, 256896, Note_on_c, 0, 72, 75
2, 256988, Note_off_c, 0, 72, 0
2, 256992, Note_on_c, 0, 71, 75
2, 257084, Note_off_c, 0, 71, 0
2, 257088, Note_on_c, 0, 69, 76
2, 257180, Note_off_c, 0, 69, 0
2, 257184, Note_on_c, 0, 68, 76
2, 257276, Note_off_c, 0, 68, 0
2, 257280, Note_on_c, 0, 69, 78
2, 257372, Note_off_c, 0, 69, 0
2, 257376, Note_on_c, 0, 71, 78
2, 257468, Note_off_c, 0, 71, 0
2, 257472, Note_on_c, 0, 72, 79
2, 257564, Note_off_c, 0, 72, 0
2, 257568, Note_on_c, 0, 71, 79
2, 257660, Note_off_c, 0, 71, 0
2, 257664, Note_on_c, 0, 69, 81
2, 257756, Note_off_c, 0, 69, 0
2, 257760, Note_on_c, 0, 67, 81
2, 257852, Note_off_c, 0, 67, 0
2, 257856, Note_on_c, 0, 65, 82
2, 257948, Note_off_c, 0, 65, 0
2, 257952, Note_on_c, 0, 64, 82
2, 258044, Note_off_c, 0, 64, 0
2, 258048, Note_on_c, 0, 62, 84
2, 258140, Note_off_c, 0, 62, 0
2, 258144, Note_on_c, 0, 58, 84
2, 258236, Note_off_c, 0, 58, 0
2, 258240, Note_on_c, 0, 65, 85
2, 258332, Note_off_c, 0, 65, 0
2, 258336, Note_on_c, 0, 62, 85
2, 258428, Note_off_c, 0, 62, 0
2, 258432, Note_on_c, 0, 70, 87
2, 258524, Note_off_c, 0, 70, 0
2, 258528, Note_on_c, 0, 65, 87
2, 258620, Note_off_c, 0, 65, 0
2, 258624, Note_on_c, 0, 74, 88
2, 258716, Note_off_c, 0, 74, 0
2, 258720, Note_on_c, 0, 70, 88
2, 258812, Note_off_c, 0, 70, 0
2, 258816, Note_on_c, 0, 77, 90
2, 258908, Note_off_c, 0, 77, 0
2, 258912, Note_on_c, 0, 74, 90
2, 259004, Note_off_c, 0, 74, 0
2, 259008, Note_on_c, 0, 80, 90
2, 259100, Note_off_c, 0, 80, 0
2, 259104, Note_on_c, 0, 77, 90
2, 259196, Note_off_c, 0, 77, 0
2, 259200, Note_on_c, 0, 83, 90
2, 259292, Note_off_c, 0, 83, 0
2, 259296, Note_on_c, 0, 80, 90
2, 259388, Note_off_c, 0, 80, 0
2, 259392, Note_on_c, 0, 86, 90
2, 259484, Note_off_c, 0, 86, 0
2, 259488, Note_on_c, 0, 83, 90
2, 259580, Note_off_c, 0, 83, 0
2, 259584, Note_on_c, 0, 88, 90
2, 259676, Note_off_c, 0, 88, 0
2, 259680, Note_on_c, 0, 84, 90
2, 259772, Note_off_c, 0, 84, 0
2, 259776, Note_on_c, 0, 81, 90
2, 259868, Note_off_c, 0, 81, 0
2, 259872, Note_on_c, 0, 76, 90
2, 259964, Note_off_c, 0, 76, 0
2, 259968, Note_on_c, 0, 79, 90
2, 260060, Note_off_c, 0, 79, 0
2, 260064, Note_on_c, 0, 77, 90
2, 260156, Note_off_c, 0, 77, 0
2, 260160, Note_on_c, 0, 76, 90
2, 260252, Note_off_c, 0, 76, 0
2, 260256, Note_on_c, 0, 74, 90
2, 260348, Note_off_c, 0, 74, 0
2, 260352, Note_on_c, 0, 72, 90
2, 260732, Note_off_c, 0, 72, 0
2, 260736, Note_on_c, 0, 72, 90
2, 260780, Note_off_c, 0, 72, 0
2, 260784, Note_on_c, 0, 71, 90
2, 260828, Note_off_c, 0, 71, 0
2, 260832, Note_on_c, 0, 72, 90
2, 260876, Note_off_c, 0, 72, 0
2, 260880, Note_on_c, 0, 71, 90
2, 260924, Note_off_c, 0, 71, 0
2, 260928, Note_on_c, 0, 69, 90
2, 261020, Note_off_c, 0, 69, 0
2, 261024, Note_on_c, 0, 71, 90
2, 261116, Note_off_c, 0, 71, 0
2, 261120, Note_on_c, 0, 69, 67
2, 261212, Note_off_c, 0, 69, 0
2, 261216, Note_on_c, 0, 69, 60
2, 261308, Note_off_c, 0, 69, 0
2, 261312, Note_on_c, 0, 67, 60
2, 261404, Note_off_c, 0, 67, 0
2, 261408, Note_on_c, 0, 65, 60
2, 261500, Note_off_c, 0, 65, 0
2, 261504, Note_on_c, 0, 64, 60
2, 261596, Note_off_c, 0, 64, 0
2, 261600, Note_on_c, 0, 65, 60
2, 261692, Note_off_c, 0, 65, 0
2, 261696, Note_on_c, 0, 63, 60
2, 261788, Note_off_c, 0, 63, 0
2, 261792, Note_on_c, 0, 65, 60
2, 261884, Note_off_c, 0, 65, 0
2, 261888, Note_on_c, 0, 64, 60
2, 261980, Note_off_c, 0, 64, 0
2, 261984, Note_on_c, 0, 65, 60
2, 262076, Note_off_c, 0, 65, 0
2, 262080, Note_on_c, 0, 63, 60
2, 262172, Note_off_c, 0, 63, 0
2, 262176, Note_on_c, 0, 65, 60
2, 262268, Note_off_c, 0, 65, 0
2, 262272, Note_on_c, 0, 80, 67
2, 262272, Note_on_c, 0, 71, 67
2, 262272, Note_on_c, 0, 64, 60
2, 262364, Note_off_c, 0, 64, 0
2, 262368, Note_on_c, 0, 65, 60
2, 262460, Note_off_c, 0, 80, 0
2, 262460, Note_off_c, 0, 65, 0
2, 262464, Note_on_c, 0, 76, 67
2, 262464, Note_on_c, 0, 62, 60
2, 262556, Note_off_c, 0, 62, 0
2, 262560, Note_on_c, 0, 65, 60
2, 262652, Note_off_c, 0, 71, 0
2, 262652, Note_off_c, 0, 76, 0
2, 262652, Note_off_c, 0, 65, 0
2, 262656, Note_on_c, 0, 81, 82
2, 262656, Note_on_c, 0, 72, 82
2, 262656, Note_on_c, 0, 60, 75
2, 262748, Note_off_c, 0, 60, 0
2, 262752, Note_on_c, 0, 69, 75
2, 262844, Note_off_c, 0, 69, 0
2, 262848, Note_on_c, 0, 67, 75
2, 262940, Note_off_c, 0, 67, 0
2, 262944, Note_on_c, 0, 65, 75
2, 263036, Note_off_c, 0, 81, 0
2, 263036, Note_off_c, 0, 72, 0
2, 263036, Note_off_c, 0, 65, 0
2, 263040, Note_on_c, 0, 64, 75
2, 263132, Note_off_c, 0, 64, 0
2, 263136, Note_on_c, 0, 65, 75
2, 263228, Note_off_c, 0, 65, 0
2, 263232, Note_on_c, 0, 63, 75
2, 263324, Note_off_c, 0, 63, 0
2, 263328, Note_on_c, 0, 65, 75
2, 263420, Note_off_c, 0, 65, 0
2, 263424, Note_on_c, 0, 64, 75
2, 263516, Note_off_c, 0, 64, 0
2, 263520, Note_on_c, 0, 65, 75
2, 263612, Note_off_c, 0, 65, 0
2, 263616, Note_on_c, 0, 63, 75
2, 263708, Note_off_c, 0, 63, 0
2, 263712, Note_on_c, 0, 65, 75
2, 263804, Note_off_c, 0, 65, 0
2, 263808, Note_on_c, 0, 80, 82
2, 263808, Note_on_c, 0, 71, 82
2, 263808, Note_on_c, 0, 64, 75
2, 263900, Note_off_c, 0, 64, 0
2, 263904, Note_on_c, 0, 65, 75
2, 263996, Note_off_c, 0, 80, 0
2, 263996, Note_off_c, 0, 65, 0
2, 264000, Note_on_c, 0, 76, 82
2, 264000, Note_on_c, 0, 62, 75
2, 264092, Note_off_c, 0, 62, 0
2, 264096, Note_on_c, 0, 65, 75
2, 264188, Note_off_c, 0, 71, 0
2, 264188, Note_off_c, 0, 76, 0
2, 264188, Note_off_c, 0, 65, 0
2, 264192, Note_on_c, 0, 72, 75
2, 264192, Note_on_c, 0, 81, 75
2, 264572, Note_off_c, 0, 72, 0
2, 264572, Note_off_c, 0, 81, 0
2, 264576, Note_on_c, 0, 77, 75
2, 264620, Note_off_c, 0, 77, 0
2, 264624, Note_on_c, 0, 76, 75
2, 264668, Note_off_c, 0, 76, 0
2, 264672, Note_on_c, 0, 77, 75
2, 264716, Note_off_c, 0, 77, 0
2, 264720, Note_on_c, 0, 76, 75
2, 264764, Note_off_c, 0, 76, 0
2, 264768, Note_on_c, 0, 77, 75
2, 264812, Note_off_c, 0, 77, 0
2, 264816, Note_on_c, 0, 76, 75
2, 264860, Note_off_c, 0, 76, 0
2, 264864, Note_on_c, 0, 74, 75
2, 264908, Note_off_c, 0, 74, 0
2, 264912, Note_on_c, 0, 76, 75
2, 264956, Note_off_c, 0, 76, 0
2, 264976, Note_on_c, 0, 81, 75
2, 265344, Note_on_c, 0, 74, 78
2, 265388, Note_off_c, 0, 74, 0
2, 265392, Note_on_c, 0, 72, 78
2, 265436, Note_off_c, 0, 72, 0
2, 265440, Note_on_c, 0, 74, 79
2, 265484, Note_off_c, 0, 74, 0
2, 265488, Note_on_c, 0, 72, 79
2, 265532, Note_off_c, 0, 72, 0
2, 265536, Note_on_c, 0, 74, 81
2, 265580, Note_off_c, 0, 74, 0
2, 265584, Note_on_c, 0, 72, 81
2, 265628, Note_off_c, 0, 72, 0
2, 265632, Note_on_c, 0, 71, 82
2, 265676, Note_off_c, 0, 71, 0
2, 265680, Note_on_c, 0, 72, 82
2, 265724, Note_off_c, 0, 72, 0
2, 265728, Note_on_c, 0, 74, 84
2, 266112, Note_on_c, 0, 83, 85
2, 266124, Note_off_c, 0, 81, 0
2, 266396, Note_off_c, 0, 83, 0
2, 266400, Note_on_c, 0, 84, 85
2, 266492, Note_off_c, 0, 84, 0
2, 266496, Note_on_c, 0, 86, 85
2, 266876, Note_off_c, 0, 74, 0
2, 266876, Note_off_c, 0, 86, 0
2, 266880, Note_on_c, 0, 76, 87
2, 266880, Note_on_c, 0, 81, 87
2, 266924, Note_off_c, 0, 81, 0
2, 266928, Note_on_c, 0, 80, 87
2, 266972, Note_off_c, 0, 80, 0
2, 266976, Note_on_c, 0, 81, 87
2, 267020, Note_off_c, 0, 81, 0
2, 267024, Note_on_c, 0, 80, 87
2, 267068, Note_off_c, 0, 80, 0
2, 267072, Note_on_c, 0, 81, 88
2, 267116, Note_off_c, 0, 81, 0
2, 267120, Note_on_c, 0, 80, 88
2, 267164, Note_off_c, 0, 80, 0
2, 267168, Note_on_c, 0, 78, 90
2, 267212, Note_off_c, 0, 78, 0
2, 267216, Note_on_c, 0, 80, 90
2, 267260, Note_off_c, 0, 76, 0
2, 267260, Note_off_c, 0, 80, 0
2, 267264, Note_on_c, 0, 76, 94
2, 267264, Note_on_c, 0, 81, 90
2, 267356, Note_off_c, 0, 76, 0
2, 267356, Note_off_c, 0, 81, 0
2, 267360, Note_on_c, 0, 80, 90
2, 267452, Note_off_c, 0, 80, 0
2, 267456, Note_on_c, 0, 81, 90
2, 267548, Note_off_c, 0, 81, 0
2, 267552, Note_on_c, 0, 76, 90
2, 267644, Note_off_c, 0, 76, 0
2, 267648, Note_on_c, 0, 72, 94
2, 267648, Note_on_c, 0, 79, 90
2, 267740, Note_off_c, 0, 72, 0
2, 267740, Note_off_c, 0, 79, 0
2, 267744, Note_on_c, 0, 77, 90
2, 267836, Note_off_c, 0, 77, 0
2, 267840, Note_on_c, 0, 76, 90
2, 267932, Note_off_c, 0, 76, 0
2, 267936, Note_on_c, 0, 74, 90
2, 268028, Note_off_c, 0, 74, 0
2, 268032, Note_on_c, 0, 69, 94
2, 268032, Note_on_c, 0, 72, 90
2, 268124, Note_off_c, 0, 69, 0
2, 268124, Note_off_c, 0, 72, 0
2, 268128, Note_on_c, 0, 74, 90
2, 268220, Note_off_c, 0, 74, 0
2, 268224, Note_on_c, 0, 76, 90
2, 268316, Note_off_c, 0, 76, 0
2, 268320, Note_on_c, 0, 72, 90
2, 268412, Note_off_c, 0, 72, 0
2, 268416, Note_on_c, 0, 68, 94
2, 268416, Note_on_c, 0, 71, 90
2, 268508, Note_off_c, 0, 68, 0
2, 268508, Note_off_c, 0, 71, 0
2, 268512, Note_on_c, 0, 72, 90
2, 268604, Note_off_c, 0, 72, 0
2, 268608, Note_on_c, 0, 74, 90
2, 268700, Note_off_c, 0, 74, 0
2, 268704, Note_on_c, 0, 71, 90
2, 268796, Note_off_c, 0, 71, 0
2, 268800, Note_on_c, 0, 86, 105
2, 268892, Note_off_c, 0, 86, 0
2, 268896, Note_on_c, 0, 89, 105
2, 268988, Note_off_c, 0, 89, 0
2, 268992, Note_on_c, 0, 83, 105
2, 269084, Note_off_c, 0, 83, 0
2, 269088, Note_on_c, 0, 86, 105
2, 269180, Note_off_c, 0, 86, 0
2, 269184, Note_on_c, 0, 80, 105
2, 269276, Note_off_c, 0, 80, 0
2, 269280, Note_on_c, 0, 83, 105
2, 269372, Note_off_c, 0, 83, 0
2, 269376, Note_on_c, 0, 77, 105
2, 269468, Note_off_c, 0, 77, 0
2, 269472, Note_on_c, 0, 80, 105
2, 269564, Note_off_c, 0, 80, 0
2, 269568, Note_on_c, 0, 74, 105
2, 269660, Note_off_c, 0, 74, 0
2, 269664, Note_on_c, 0, 77, 105
2, 269756, Note_off_c, 0, 77, 0
2, 269760, Note_on_c, 0, 71, 105
2, 269852, Note_off_c, 0, 71, 0
2, 269856, Note_on_c, 0, 74, 105
2, 269948, Note_off_c, 0, 74, 0
2, 269952, Note_on_c, 0, 68, 105
2, 270044, Note_off_c, 0, 68, 0
2, 270048, Note_on_c, 0, 71, 105
2, 270140, Note_off_c, 0, 71, 0
2, 270144, Note_on_c, 0, 65, 105
2, 270236, Note_off_c, 0, 65, 0
2, 270240, Note_on_c, 0, 68, 105
2, 270332, Note_off_c, 0, 68, 0
2, 270336, Note_on_c, 0, 84, 90
2, 270336, Note_on_c, 0, 81, 90
2, 270336, Note_on_c, 0, 78, 90
2, 270336, Note_on_c, 0, 75, 90
2, 270336, Note_on_c, 0, 72, 90
2, 271868, Note_off_c, 0, 84, 0
2, 271868, Note_off_c, 0, 81, 0
2, 271868, Note_off_c, 0, 78, 0
2, 271868, Note_off_c, 0, 75, 0
2, 271868, Note_off_c, 0, 72, 0
2, 271968, Note_on_c, 0, 81, 90
2, 272060, Note_off_c, 0, 81, 0
2, 272064, Note_on_c, 0, 76, 90
2, 272156, Note_off_c, 0, 76, 0
2, 272160, Note_on_c, 0, 72, 90
2, 272252, Note_off_c, 0, 72, 0
2, 272256, Note_on_c, 0, 69, 90
2, 272348, Note_off_c, 0, 69, 0
2, 272352, Note_on_c, 0, 64, 90
2, 272444, Note_off_c, 0, 64, 0
2, 272448, Note_on_c, 0, 60, 90
2, 272540, Note_off_c, 0, 60, 0
2, 272544, Note_on_c, 0, 57, 90
2, 272636, Note_off_c, 0, 57, 0
2, 272640, Note_on_c, 0, 64, 90
2, 273020, Note_off_c, 0, 64, 0
2, 273024, Note_on_c, 0, 76, 90
2, 273024, Note_on_c, 0, 71, 90
2, 273024, Note_on_c, 0, 68, 90
2, 273024, Note_on_c, 0, 64, 90
2, 273404, Note_off_c, 0, 76, 0
2, 273404, Note_off_c, 0, 71, 0
2, 273404, Note_off_c, 0, 68, 0
2, 273404, Note_off_c, 0, 64, 0
2, 273408, Note_on_c, 0, 69, 60
2, 273788, Note_off_c, 0, 69, 0
2, 273792, Note_on_c, 0, 72, 60
2, 273792, Note_on_c, 0, 69, 60
2, 274076, Note_off_c, 0, 72, 0
2, 274076, Note_off_c, 0, 69, 0
2, 274080, Note_on_c, 0, 72, 60
2, 274080, Note_on_c, 0, 69, 60
2, 274172, Note_off_c, 0, 72, 0
2, 274172, Note_off_c, 0, 69, 0
2, 274176, Note_on_c, 0, 72, 60
2, 274176, Note_on_c, 0, 69, 60
2, 274556, Note_off_c, 0, 72, 0
2, 274556, Note_off_c, 0, 69, 0
2, 274560, Note_on_c, 0, 72, 60
2, 274560, Note_on_c, 0, 69, 60
2, 274844, Note_off_c, 0, 72, 0
2, 274844, Note_off_c, 0, 69, 0
2, 274848, Note_on_c, 0, 72, 60
2, 274848, Note_on_c, 0, 69, 60
2, 274940, Note_off_c, 0, 72, 0
2, 274940, Note_off_c, 0, 69, 0
2, 274944, Note_on_c, 0, 71, 75
2, 274944, Note_on_c, 0, 69, 75
2, 275324, Note_off_c, 0, 71, 0
2, 275324, Note_off_c, 0, 69, 0
2, 275328, Note_on_c, 0, 69, 75
2, 275344, Note_on_c, 0, 71, 75
2, 275612, Note_off_c, 0, 69, 0
2, 275616, Note_on_c, 0, 71, 75
2, 275616, Note_on_c, 0, 69, 75
2, 275628, Note_off_c, 0, 71, 0
2, 275708, Note_off_c, 0, 71, 0
2, 275708, Note_off_c, 0, 69, 0
2, 275712, Note_on_c, 0, 76, 75
2, 275712, Note_on_c, 0, 71, 75
2, 275712, Note_on_c, 0, 68, 75
2, 276092, Note_off_c, 0, 76, 0
2, 276092, Note_off_c, 0, 71, 0
2, 276092, Note_off_c, 0, 68, 0
2, 276096, Note_on_c, 0, 76, 75
2, 276096, Note_on_c, 0, 71, 75
2, 276096, Note_on_c, 0, 68, 75
2, 276380, Note_off_c, 0, 76, 0
2, 276380, Note_off_c, 0, 71, 0
2, 276380, Note_off_c, 0, 68, 0
2, 276384, Note_on_c, 0, 76, 75
2, 276384, Note_on_c, 0, 71, 75
2, 276384, Note_on_c, 0, 68, 75
2, 276476, Note_off_c, 0, 76, 0
2, 276476, Note_off_c, 0, 71, 0
2, 276476, Note_off_c, 0, 68, 0
2, 276480, Note_on_c, 0, 72, 90
2, 276480, Note_on_c, 0, 69, 90
2, 276860, Note_off_c, 0, 72, 0
2, 276860, Note_off_c, 0, 69, 0
2, 276864, Note_on_c, 0, 81, 90
2, 276864, Note_on_c, 0, 72, 90
2, 276864, Note_on_c, 0, 69, 90
2, 277148, Note_off_c, 0, 81, 0
2, 277148, Note_off_c, 0, 72, 0
2, 277148, Note_off_c, 0, 69, 0
2, 277152, Note_on_c, 0, 81, 90
2, 277152, Note_on_c, 0, 69, 90
2, 277152, Note_on_c, 0, 72, 90
2, 277244, Note_off_c, 0, 81, 0
2, 277244, Note_off_c, 0, 69, 0
2, 277244, Note_off_c, 0, 72, 0
2, 277248, Note_on_c, 0, 81, 90
2, 277248, Note_on_c, 0, 72, 90
2, 277248, Note_on_c, 0, 69, 90
2, 277628, Note_off_c, 0, 81, 0
2, 277628, Note_off_c, 0, 72, 0
2, 277628, Note_off_c, 0, 69, 0
2, 277632, Note_on_c, 0, 81, 90
2, 277632, Note_on_c, 0, 72, 90
2, 277632, Note_on_c, 0, 69, 90
2, 277916, Note_off_c, 0, 81, 0
2, 277916, Note_off_c, 0, 72, 0
2, 277916, Note_off_c, 0, 69, 0
2, 277920, Note_on_c, 0, 81, 90
2, 277920, Note_on_c, 0, 72, 90
2, 277920, Note_on_c, 0, 69, 90
2, 278012, Note_off_c, 0, 81, 0
2, 278012, Note_off_c, 0, 72, 0
2, 278012, Note_off_c, 0, 69, 0
2, 278016, Note_on_c, 0, 81, 90
2, 278016, Note_on_c, 0, 77, 90
2, 278016, Note_on_c, 0, 71, 90
2, 278396, Note_off_c, 0, 81, 0
2, 278396, Note_off_c, 0, 77, 0
2, 278396, Note_off_c, 0, 71, 0
2, 278400, Note_on_c, 0, 81, 91
2, 278400, Note_on_c, 0, 77, 91
2, 278400, Note_on_c, 0, 71, 91
2, 278684, Note_off_c, 0, 81, 0
2, 278684, Note_off_c, 0, 77, 0
2, 278684, Note_off_c, 0, 71, 0
2, 278704, Note_on_c, 0, 77, 93
2, 278704, Note_on_c, 0, 81, 93
2, 278704, Note_on_c, 0, 71, 93
2, 278784, Note_on_c, 0, 80, 96
2, 278784, Note_on_c, 0, 76, 96
2, 278784, Note_on_c, 0, 71, 96
2, 278796, Note_off_c, 0, 77, 0
2, 278796, Note_off_c, 0, 81, 0
2, 278796, Note_off_c, 0, 71, 0
2, 279164, Note_off_c, 0, 80, 0
2, 279164, Note_off_c, 0, 76, 0
2, 279164, Note_off_c, 0, 71, 0
2, 279168, Note_on_c, 0, 80, 99
2, 279168, Note_on_c, 0, 76, 99
2, 279168, Note_on_c, 0, 71, 99
2, 279452, Note_off_c, 0, 80, 0
2, 279452, Note_off_c, 0, 76, 0
2, 279452, Note_off_c, 0, 71, 0
2, 279456, Note_on_c, 0, 80, 102
2, 279456, Note_on_c, 0, 76, 102
2, 279456, Note_on_c, 0, 71, 102
2, 279548, Note_off_c, 0, 80, 0
2, 279548, Note_off_c, 0, 76, 0
2, 279548, Note_off_c, 0, 71, 0
2, 279552, Note_on_c, 0, 81, 105
2, 279552, Note_on_c, 0, 76, 105
2, 279552, Note_on_c, 0, 72, 105
2, 279932, Note_off_c, 0, 81, 0
2, 279932, Note_off_c, 0, 76, 0
2, 279932, Note_off_c, 0, 72, 0
2, 279936, Note_on_c, 0, 76, 105
2, 279936, Note_on_c, 0, 72, 105
2, 279936, Note_on_c, 0, 69, 105
2, 280316, Note_off_c, 0, 76, 0
2, 280316, Note_off_c, 0, 72, 0
2, 280316, Note_off_c, 0, 69, 0
2, 280320, Note_on_c, 0, 72, 105
2, 280320, Note_on_c, 0, 64, 105
2, 280320, Note_on_c, 0, 69, 105
2, 280700, Note_off_c, 0, 72, 0
2, 280700, Note_off_c, 0, 64, 0
2, 280700, Note_off_c, 0, 69, 0
2, 280700, End_track
3, 0, Start_track
3, 0, Control_c, 1, 0, 0
3, 0, Program_c, 1, 0
3, 0, Control_c, 1, 7, 80
3, 0, Control_c, 1, 10, 45
3, 0, Control_c, 1, 91, 70
3, 0, Control_c, 1, 93, 44
3, 0, Key_signature, 0, "major"
3, 0, Control_c, 1, 121, 0
3, 96, Control_c, 1, 10, 53
3, 144, Control_c, 1, 91, 63
3, 192, Control_c, 1, 93, 40
3, 288, Program_c, 1, 0
3, 1536, Note_on_c, 1, 64, 90
3, 1536, Note_on_c, 1, 60, 90
3, 1536, Note_on_c, 1, 57, 90
3, 1724, Note_off_c, 1, 64, 0
3, 1724, Note_off_c, 1, 60, 0
3, 1724, Note_off_c, 1, 57, 0
3, 1728, Note_on_c, 1, 64, 90
3, 1728, Note_on_c, 1, 60, 90
3, 1728, Note_on_c, 1, 57, 90
3, 1916, Note_off_c, 1, 64, 0
3, 1916, Note_off_c, 1, 60, 0
3, 1916, Note_off_c, 1, 57, 0
3, 1920, Note_on_c, 1, 64, 90
3, 1920, Note_on_c, 1, 60, 90
3, 1920, Note_on_c, 1, 57, 90
3, 2108, Note_off_c, 1, 64, 0
3, 2108, Note_off_c, 1, 60, 0
3, 2108, Note_off_c, 1, 57, 0
3, 2112, Note_on_c, 1, 64, 90
3, 2112, Note_on_c, 1, 60, 90
3, 2112, Note_on_c, 1, 57, 90
3, 2300, Note_off_c, 1, 64, 0
3, 2300, Note_off_c, 1, 60, 0
3, 2300, Note_off_c, 1, 57, 0
3, 2304, Note_on_c, 1, 64, 90
3, 2304, Note_on_c, 1, 60, 90
3, 2304, Note_on_c, 1, 57, 90
3, 2492, Note_off_c, 1, 64, 0
3, 2492, Note_off_c, 1, 60, 0
3, 2492, Note_off_c, 1, 57, 0
3, 2496, Note_on_c, 1, 64, 90
3, 2496, Note_on_c, 1, 60, 90
3, 2496, Note_on_c, 1, 57, 90
3, 2684, Note_off_c, 1, 64, 0
3, 2684, Note_off_c, 1, 60, 0
3, 2684, Note_off_c, 1, 57, 0
3, 2688, Note_on_c, 1, 64, 90
3, 2688, Note_on_c, 1, 57, 90
3, 2688, Note_on_c, 1, 60, 90
3, 2876, Note_off_c, 1, 64, 0
3, 2876, Note_off_c, 1, 57, 0
3, 2876, Note_off_c, 1, 60, 0
3, 2880, Note_on_c, 1, 64, 90
3, 2880, Note_on_c, 1, 60, 90
3, 2880, Note_on_c, 1, 57, 90
3, 3068, Note_off_c, 1, 64, 0
3, 3068, Note_off_c, 1, 60, 0
3, 3068, Note_off_c, 1, 57, 0
3, 3072, Note_on_c, 1, 64, 82
3, 3072, Note_on_c, 1, 62, 82
3, 3072, Note_on_c, 1, 59, 82
3, 3072, Note_on_c, 1, 57, 82
3, 3260, Note_off_c, 1, 64, 0
3, 3260, Note_off_c, 1, 62, 0
3, 3260, Note_off_c, 1, 59, 0
3, 3260, Note_off_c, 1, 57, 0
3, 3264, Note_on_c, 1, 62, 82
3, 3264, Note_on_c, 1, 59, 82
3, 3264, Note_on_c, 1, 57, 82
3, 3264, Note_on_c, 1, 64, 82
3, 3452, Note_off_c, 1, 62, 0
3, 3452, Note_off_c, 1, 59, 0
3, 3452, Note_off_c, 1, 57, 0
3, 3452, Note_off_c, 1, 64, 0
3, 3456, Note_on_c, 1, 64, 82
3, 3456, Note_on_c, 1, 62, 82
3, 3456, Note_on_c, 1, 59, 82
3, 3456, Note_on_c, 1, 57, 82
3, 3644, Note_off_c, 1, 64, 0
3, 3644, Note_off_c, 1, 62, 0
3, 3644, Note_off_c, 1, 59, 0
3, 3644, Note_off_c, 1, 57, 0
3, 3648, Note_on_c, 1, 64, 82
3, 3648, Note_on_c, 1, 62, 82
3, 3648, Note_on_c, 1, 59, 82
3, 3648, Note_on_c, 1, 57, 82
3, 3836, Note_off_c, 1, 64, 0
3, 3836, Note_off_c, 1, 62, 0
3, 3836, Note_off_c, 1, 59, 0
3, 3836, Note_off_c, 1, 57, 0
3, 3840, Note_on_c, 1, 64, 82
3, 3840, Note_on_c, 1, 62, 82
3, 3840, Note_on_c, 1, 59, 82
3, 3840, Note_on_c, 1, 57, 82
3, 4028, Note_off_c, 1, 64, 0
3, 4028, Note_off_c, 1, 62, 0
3, 4028, Note_off_c, 1, 59, 0
3, 4028, Note_off_c, 1, 57, 0
3, 4032, Note_on_c, 1, 64, 82
3, 4032, Note_on_c, 1, 62, 82
3, 4032, Note_on_c, 1, 59, 82
3, 4032, Note_on_c, 1, 57, 82
3, 4220, Note_off_c, 1, 64, 0
3, 4220, Note_off_c, 1, 62, 0
3, 4220, Note_off_c, 1, 59, 0
3, 4220, Note_off_c, 1, 57, 0
3, 4224, Note_on_c, 1, 64, 82
3, 4224, Note_on_c, 1, 62, 82
3, 4224, Note_on_c, 1, 59, 82
3, 4224, Note_on_c, 1, 57, 82
3, 4412, Note_off_c, 1, 64, 0
3, 4412, Note_off_c, 1, 62, 0
3, 4412, Note_off_c, 1, 59, 0
3, 4412, Note_off_c, 1, 57, 0
3, 4416, Note_on_c, 1, 62, 82
3, 4416, Note_on_c, 1, 59, 82
3, 4416, Note_on_c, 1, 57, 82
3, 4416, Note_on_c, 1, 64, 82
3, 4604, Note_off_c, 1, 62, 0
3, 4604, Note_off_c, 1, 59, 0
3, 4604, Note_off_c, 1, 57, 0
3, 4604, Note_off_c, 1, 64, 0
3, 4608, Note_on_c, 1, 64, 76
3, 4608, Note_on_c, 1, 60, 76
3, 4608, Note_on_c, 1, 57, 76
3, 4796, Note_off_c, 1, 64, 0
3, 4796, Note_off_c, 1, 60, 0
3, 4796, Note_off_c, 1, 57, 0
3, 4800, Note_on_c, 1, 64, 76
3, 4800, Note_on_c, 1, 57, 76
3, 4800, Note_on_c, 1, 60, 76
3, 4988, Note_off_c, 1, 64, 0
3, 4988, Note_off_c, 1, 57, 0
3, 4988, Note_off_c, 1, 60, 0
3, 4992, Note_on_c, 1, 64, 76
3, 4992, Note_on_c, 1, 60, 76
3, 4992, Note_on_c, 1, 57, 76
3, 5180, Note_off_c, 1, 64, 0
3, 5180, Note_off_c, 1, 60, 0
3, 5180, Note_off_c, 1, 57, 0
3, 5184, Note_on_c, 1, 64, 76
3, 5184, Note_on_c, 1, 60, 76
3, 5184, Note_on_c, 1, 57, 76
3, 5372, Note_off_c, 1, 64, 0
3, 5372, Note_off_c, 1, 60, 0
3, 5372, Note_off_c, 1, 57, 0
3, 5376, Note_on_c, 1, 64, 76
3, 5376, Note_on_c, 1, 57, 76
3, 5376, Note_on_c, 1, 60, 76
3, 5564, Note_off_c, 1, 64, 0
3, 5564, Note_off_c, 1, 57, 0
3, 5564, Note_off_c, 1, 60, 0
3, 5568, Note_on_c, 1, 64, 76
3, 5568, Note_on_c, 1, 60, 76
3, 5568, Note_on_c, 1, 57, 76
3, 5756, Note_off_c, 1, 64, 0
3, 5756, Note_off_c, 1, 60, 0
3, 5756, Note_off_c, 1, 57, 0
3, 5760, Note_on_c, 1, 64, 76
3, 5760, Note_on_c, 1, 57, 76
3, 5760, Note_on_c, 1, 60, 76
3, 5948, Note_off_c, 1, 64, 0
3, 5948, Note_off_c, 1, 57, 0
3, 5948, Note_off_c, 1, 60, 0
3, 5952, Note_on_c, 1, 64, 76
3, 5952, Note_on_c, 1, 60, 76
3, 5952, Note_on_c, 1, 57, 76
3, 6140, Note_off_c, 1, 64, 0
3, 6140, Note_off_c, 1, 60, 0
3, 6140, Note_off_c, 1, 57, 0
3, 6144, Note_on_c, 1, 64, 76
3, 6144, Note_on_c, 1, 62, 76
3, 6144, Note_on_c, 1, 59, 76
3, 6144, Note_on_c, 1, 57, 76
3, 6332, Note_off_c, 1, 64, 0
3, 6332, Note_off_c, 1, 62, 0
3, 6332, Note_off_c, 1, 59, 0
3, 6332, Note_off_c, 1, 57, 0
3, 6336, Note_on_c, 1, 64, 76
3, 6336, Note_on_c, 1, 59, 76
3, 6336, Note_on_c, 1, 57, 76
3, 6336, Note_on_c, 1, 62, 76
3, 6524, Note_off_c, 1, 64, 0
3, 6524, Note_off_c, 1, 59, 0
3, 6524, Note_off_c, 1, 57, 0
3, 6524, Note_off_c, 1, 62, 0
3, 6528, Note_on_c, 1, 64, 76
3, 6528, Note_on_c, 1, 59, 76
3, 6528, Note_on_c, 1, 57, 76
3, 6528, Note_on_c, 1, 62, 76
3, 6716, Note_off_c, 1, 64, 0
3, 6716, Note_off_c, 1, 59, 0
3, 6716, Note_off_c, 1, 57, 0
3, 6716, Note_off_c, 1, 62, 0
3, 6720, Note_on_c, 1, 64, 76
3, 6720, Note_on_c, 1, 62, 76
3, 6720, Note_on_c, 1, 59, 76
3, 6720, Note_on_c, 1, 57, 76
3, 6908, Note_off_c, 1, 64, 0
3, 6908, Note_off_c, 1, 62, 0
3, 6908, Note_off_c, 1, 59, 0
3, 6908, Note_off_c, 1, 57, 0
3, 6912, Note_on_c, 1, 64, 76
3, 6912, Note_on_c, 1, 62, 76
3, 6912, Note_on_c, 1, 59, 76
3, 6912, Note_on_c, 1, 57, 76
3, 7100, Note_off_c, 1, 64, 0
3, 7100, Note_off_c, 1, 62, 0
3, 7100, Note_off_c, 1, 59, 0
3, 7100, Note_off_c, 1, 57, 0
3, 7104, Note_on_c, 1, 64, 76
3, 7104, Note_on_c, 1, 62, 76
3, 7104, Note_on_c, 1, 59, 76
3, 7104, Note_on_c, 1, 57, 76
3, 7292, Note_off_c, 1, 64, 0
3, 7292, Note_off_c, 1, 62, 0
3, 7292, Note_off_c, 1, 59, 0
3, 7292, Note_off_c, 1, 57, 0
3, 7296, Note_on_c, 1, 62, 76
3, 7296, Note_on_c, 1, 59, 76
3, 7296, Note_on_c, 1, 57, 76
3, 7296, Note_on_c, 1, 64, 76
3, 7484, Note_off_c, 1, 62, 0
3, 7484, Note_off_c, 1, 59, 0
3, 7484, Note_off_c, 1, 57, 0
3, 7484, Note_off_c, 1, 64, 0
3, 7488, Note_on_c, 1, 64, 76
3, 7488, Note_on_c, 1, 62, 76
3, 7488, Note_on_c, 1, 59, 76
3, 7488, Note_on_c, 1, 57, 76
3, 7676, Note_off_c, 1, 64, 0
3, 7676, Note_off_c, 1, 62, 0
3, 7676, Note_off_c, 1, 59, 0
3, 7676, Note_off_c, 1, 57, 0
3, 7680, Note_on_c, 1, 64, 90
3, 7680, Note_on_c, 1, 60, 90
3, 7680, Note_on_c, 1, 57, 90
3, 7868, Note_off_c, 1, 64, 0
3, 7868, Note_off_c, 1, 60, 0
3, 7868, Note_off_c, 1, 57, 0
3, 7872, Note_on_c, 1, 57, 90
3, 8060, Note_off_c, 1, 57, 0
3, 8064, Note_on_c, 1, 52, 90
3, 8252, Note_off_c, 1, 52, 0
3, 8256, Note_on_c, 1, 48, 90
3, 8444, Note_off_c, 1, 48, 0
3, 8448, Note_on_c, 1, 45, 90
3, 8828, Note_off_c, 1, 45, 0
3, 9600, Note_on_c, 1, 62, 90
3, 9600, Note_on_c, 1, 60, 90
3, 9600, Note_on_c, 1, 53, 90
3, 9600, Note_on_c, 1, 57, 90
3, 9980, Note_off_c, 1, 62, 0
3, 9980, Note_off_c, 1, 60, 0
3, 9980, Note_off_c, 1, 53, 0
3, 9980, Note_off_c, 1, 57, 0
3, 9984, Note_on_c, 1, 62, 90
3, 9984, Note_on_c, 1, 59, 90
3, 9984, Note_on_c, 1, 55, 90
3, 10172, Note_off_c, 1, 62, 0
3, 10172, Note_off_c, 1, 59, 0
3, 10172, Note_off_c, 1, 55, 0
3, 11136, Note_on_c, 1, 60, 90
3, 11136, Note_on_c, 1, 59, 90
3, 11136, Note_on_c, 1, 55, 90
3, 11136, Note_on_c, 1, 52, 90
3, 11516, Note_off_c, 1, 60, 0
3, 11516, Note_off_c, 1, 59, 0
3, 11516, Note_off_c, 1, 55, 0
3, 11516, Note_off_c, 1, 52, 0
3, 11520, Note_on_c, 1, 60, 90
3, 11520, Note_on_c, 1, 57, 90
3, 11520, Note_on_c, 1, 53, 90
3, 11708, Note_off_c, 1, 60, 0
3, 11708, Note_off_c, 1, 57, 0
3, 11708, Note_off_c, 1, 53, 0
3, 12672, Note_on_c, 1, 59, 76
3, 12672, Note_on_c, 1, 53, 76
3, 12672, Note_on_c, 1, 50, 76
3, 13052, Note_off_c, 1, 59, 0
3, 13052, Note_off_c, 1, 53, 0
3, 13052, Note_off_c, 1, 50, 0
3, 13056, Note_on_c, 1, 60, 76
3, 13056, Note_on_c, 1, 57, 76
3, 13056, Note_on_c, 1, 52, 76
3, 13436, Note_off_c, 1, 60, 0
3, 13436, Note_off_c, 1, 57, 0
3, 13436, Note_off_c, 1, 52, 0
3, 13440, Note_on_c, 1, 64, 76
3, 13440, Note_on_c, 1, 56, 76
3, 13440, Note_on_c, 1, 52, 76
3, 13820, Note_off_c, 1, 64, 0
3, 13820, Note_off_c, 1, 56, 0
3, 13820, Note_off_c, 1, 52, 0
3, 13824, Note_on_c, 1, 64, 90
3, 13824, Note_on_c, 1, 60, 90
3, 13824, Note_on_c, 1, 57, 90
3, 14012, Note_off_c, 1, 64, 0
3, 14012, Note_off_c, 1, 60, 0
3, 14012, Note_off_c, 1, 57, 0
3, 14016, Note_on_c, 1, 64, 90
3, 14016, Note_on_c, 1, 60, 90
3, 14016, Note_on_c, 1, 57, 90
3, 14204, Note_off_c, 1, 64, 0
3, 14204, Note_off_c, 1, 60, 0
3, 14204, Note_off_c, 1, 57, 0
3, 14208, Note_on_c, 1, 64, 90
3, 14208, Note_on_c, 1, 60, 90
3, 14208, Note_on_c, 1, 57, 90
3, 14396, Note_off_c, 1, 64, 0
3, 14396, Note_off_c, 1, 60, 0
3, 14396, Note_off_c, 1, 57, 0
3, 14400, Note_on_c, 1, 64, 90
3, 14400, Note_on_c, 1, 60, 90
3, 14400, Note_on_c, 1, 57, 90
3, 14588, Note_off_c, 1, 64, 0
3, 14588, Note_off_c, 1, 60, 0
3, 14588, Note_off_c, 1, 57, 0
3, 14592, Note_on_c, 1, 64, 90
3, 14592, Note_on_c, 1, 60, 90
3, 14592, Note_on_c, 1, 57, 90
3, 14780, Note_off_c, 1, 64, 0
3, 14780, Note_off_c, 1, 60, 0
3, 14780, Note_off_c, 1, 57, 0
3, 14784, Note_on_c, 1, 64, 90
3, 14784, Note_on_c, 1, 60, 90
3, 14784, Note_on_c, 1, 57, 90
3, 14972, Note_off_c, 1, 64, 0
3, 14972, Note_off_c, 1, 60, 0
3, 14972, Note_off_c, 1, 57, 0
3, 14976, Note_on_c, 1, 64, 90
3, 14976, Note_on_c, 1, 60, 90
3, 14976, Note_on_c, 1, 57, 90
3, 15164, Note_off_c, 1, 64, 0
3, 15164, Note_off_c, 1, 60, 0
3, 15164, Note_off_c, 1, 57, 0
3, 15168, Note_on_c, 1, 64, 90
3, 15168, Note_on_c, 1, 60, 90
3, 15168, Note_on_c, 1, 57, 90
3, 15356, Note_off_c, 1, 64, 0
3, 15356, Note_off_c, 1, 60, 0
3, 15356, Note_off_c, 1, 57, 0
3, 15360, Note_on_c, 1, 59, 82
3, 15360, Note_on_c, 1, 57, 82
3, 15360, Note_on_c, 1, 64, 82
3, 15360, Note_on_c, 1, 62, 82
3, 15548, Note_off_c, 1, 59, 0
3, 15548, Note_off_c, 1, 57, 0
3, 15548, Note_off_c, 1, 64, 0
3, 15548, Note_off_c, 1, 62, 0
3, 15552, Note_on_c, 1, 59, 82
3, 15552, Note_on_c, 1, 57, 82
3, 15552, Note_on_c, 1, 62, 82
3, 15552, Note_on_c, 1, 64, 82
3, 15740, Note_off_c, 1, 59, 0
3, 15740, Note_off_c, 1, 57, 0
3, 15740, Note_off_c, 1, 62, 0
3, 15740, Note_off_c, 1, 64, 0
3, 15744, Note_on_c, 1, 57, 82
3, 15744, Note_on_c, 1, 64, 82
3, 15744, Note_on_c, 1, 62, 82
3, 15744, Note_on_c, 1, 59, 82
3, 15932, Note_off_c, 1, 57, 0
3, 15932, Note_off_c, 1, 64, 0
3, 15932, Note_off_c, 1, 62, 0
3, 15932, Note_off_c, 1, 59, 0
3, 15936, Note_on_c, 1, 57, 82
3, 15936, Note_on_c, 1, 64, 82
3, 15936, Note_on_c, 1, 62, 82
3, 15936, Note_on_c, 1, 59, 82
3, 16124, Note_off_c, 1, 57, 0
3, 16124, Note_off_c, 1, 64, 0
3, 16124, Note_off_c, 1, 62, 0
3, 16124, Note_off_c, 1, 59, 0
3, 16128, Note_on_c, 1, 59, 82
3, 16128, Note_on_c, 1, 64, 82
3, 16128, Note_on_c, 1, 62, 82
3, 16128, Note_on_c, 1, 57, 82
3, 16316, Note_off_c, 1, 59, 0
3, 16316, Note_off_c, 1, 64, 0
3, 16316, Note_off_c, 1, 62, 0
3, 16316, Note_off_c, 1, 57, 0
3, 16320, Note_on_c, 1, 59, 82
3, 16320, Note_on_c, 1, 57, 82
3, 16320, Note_on_c, 1, 64, 82
3, 16320, Note_on_c, 1, 62, 82
3, 16508, Note_off_c, 1, 59, 0
3, 16508, Note_off_c, 1, 57, 0
3, 16508, Note_off_c, 1, 64, 0
3, 16508, Note_off_c, 1, 62, 0
3, 16512, Note_on_c, 1, 64, 82
3, 16512, Note_on_c, 1, 62, 82
3, 16512, Note_on_c, 1, 59, 82
3, 16512, Note_on_c, 1, 57, 82
3, 16700, Note_off_c, 1, 64, 0
3, 16700, Note_off_c, 1, 62, 0
3, 16700, Note_off_c, 1, 59, 0
3, 16700, Note_off_c, 1, 57, 0
3, 16704, Note_on_c, 1, 57, 82
3, 16704, Note_on_c, 1, 64, 82
3, 16704, Note_on_c, 1, 62, 82
3, 16704, Note_on_c, 1, 59, 82
3, 16892, Note_off_c, 1, 57, 0
3, 16892, Note_off_c, 1, 64, 0
3, 16892, Note_off_c, 1, 62, 0
3, 16892, Note_off_c, 1, 59, 0
3, 16896, Note_on_c, 1, 64, 76
3, 16896, Note_on_c, 1, 60, 76
3, 16896, Note_on_c, 1, 57, 76
3, 17084, Note_off_c, 1, 64, 0
3, 17084, Note_off_c, 1, 60, 0
3, 17084, Note_off_c, 1, 57, 0
3, 17088, Note_on_c, 1, 64, 76
3, 17088, Note_on_c, 1, 60, 76
3, 17088, Note_on_c, 1, 57, 76
3, 17276, Note_off_c, 1, 64, 0
3, 17276, Note_off_c, 1, 60, 0
3, 17276, Note_off_c, 1, 57, 0
3, 17280, Note_on_c, 1, 64, 76
3, 17280, Note_on_c, 1, 60, 76
3, 17280, Note_on_c, 1, 57, 76
3, 17468, Note_off_c, 1, 64, 0
3, 17468, Note_off_c, 1, 60, 0
3, 17468, Note_off_c, 1, 57, 0
3, 17472, Note_on_c, 1, 64, 76
3, 17472, Note_on_c, 1, 60, 76
3, 17472, Note_on_c, 1, 57, 76
3, 17660, Note_off_c, 1, 64, 0
3, 17660, Note_off_c, 1, 60, 0
3, 17660, Note_off_c, 1, 57, 0
3, 17664, Note_on_c, 1, 64, 76
3, 17664, Note_on_c, 1, 60, 76
3, 17664, Note_on_c, 1, 57, 76
3, 17852, Note_off_c, 1, 64, 0
3, 17852, Note_off_c, 1, 60, 0
3, 17852, Note_off_c, 1, 57, 0
3, 17856, Note_on_c, 1, 64, 76
3, 17856, Note_on_c, 1, 60, 76
3, 17856, Note_on_c, 1, 57, 76
3, 18044, Note_off_c, 1, 64, 0
3, 18044, Note_off_c, 1, 60, 0
3, 18044, Note_off_c, 1, 57, 0
3, 18048, Note_on_c, 1, 64, 76
3, 18048, Note_on_c, 1, 60, 76
3, 18048, Note_on_c, 1, 57, 76
3, 18236, Note_off_c, 1, 64, 0
3, 18236, Note_off_c, 1, 60, 0
3, 18236, Note_off_c, 1, 57, 0
3, 18240, Note_on_c, 1, 64, 76
3, 18240, Note_on_c, 1, 60, 76
3, 18240, Note_on_c, 1, 57, 76
3, 18428, Note_off_c, 1, 64, 0
3, 18428, Note_off_c, 1, 60, 0
3, 18428, Note_off_c, 1, 57, 0
3, 18432, Note_on_c, 1, 64, 76
3, 18432, Note_on_c, 1, 60, 76
3, 18432, Note_on_c, 1, 58, 76
3, 18432, Note_on_c, 1, 55, 76
3, 18620, Note_off_c, 1, 64, 0
3, 18620, Note_off_c, 1, 60, 0
3, 18620, Note_off_c, 1, 58, 0
3, 18620, Note_off_c, 1, 55, 0
3, 18624, Note_on_c, 1, 64, 76
3, 18624, Note_on_c, 1, 60, 76
3, 18624, Note_on_c, 1, 58, 76
3, 18624, Note_on_c, 1, 55, 76
3, 18812, Note_off_c, 1, 64, 0
3, 18812, Note_off_c, 1, 60, 0
3, 18812, Note_off_c, 1, 58, 0
3, 18812, Note_off_c, 1, 55, 0
3, 18816, Note_on_c, 1, 60, 76
3, 18816, Note_on_c, 1, 58, 76
3, 18816, Note_on_c, 1, 55, 76
3, 18816, Note_on_c, 1, 64, 76
3, 19004, Note_off_c, 1, 60, 0
3, 19004, Note_off_c, 1, 58, 0
3, 19004, Note_off_c, 1, 55, 0
3, 19004, Note_off_c, 1, 64, 0
3, 19008, Note_on_c, 1, 60, 76
3, 19008, Note_on_c, 1, 58, 76
3, 19008, Note_on_c, 1, 55, 76
3, 19008, Note_on_c, 1, 64, 76
3, 19196, Note_off_c, 1, 60, 0
3, 19196, Note_off_c, 1, 58, 0
3, 19196, Note_off_c, 1, 55, 0
3, 19196, Note_off_c, 1, 64, 0
3, 19200, Note_on_c, 1, 64, 76
3, 19200, Note_on_c, 1, 60, 76
3, 19200, Note_on_c, 1, 58, 76
3, 19200, Note_on_c, 1, 55, 76
3, 19388, Note_off_c, 1, 64, 0
3, 19388, Note_off_c, 1, 60, 0
3, 19388, Note_off_c, 1, 58, 0
3, 19388, Note_off_c, 1, 55, 0
3, 19392, Note_on_c, 1, 64, 76
3, 19392, Note_on_c, 1, 58, 76
3, 19392, Note_on_c, 1, 55, 76
3, 19392, Note_on_c, 1, 60, 76
3, 19580, Note_off_c, 1, 64, 0
3, 19580, Note_off_c, 1, 58, 0
3, 19580, Note_off_c, 1, 55, 0
3, 19580, Note_off_c, 1, 60, 0
3, 19584, Note_on_c, 1, 64, 76
3, 19584, Note_on_c, 1, 60, 76
3, 19584, Note_on_c, 1, 58, 76
3, 19584, Note_on_c, 1, 55, 76
3, 19772, Note_off_c, 1, 64, 0
3, 19772, Note_off_c, 1, 60, 0
3, 19772, Note_off_c, 1, 58, 0
3, 19772, Note_off_c, 1, 55, 0
3, 19776, Note_on_c, 1, 64, 76
3, 19776, Note_on_c, 1, 60, 76
3, 19776, Note_on_c, 1, 58, 76
3, 19776, Note_on_c, 1, 55, 76
3, 19964, Note_off_c, 1, 64, 0
3, 19964, Note_off_c, 1, 60, 0
3, 19964, Note_off_c, 1, 58, 0
3, 19964, Note_off_c, 1, 55, 0
3, 19968, Note_on_c, 1, 65, 76
3, 19968, Note_on_c, 1, 60, 76
3, 19968, Note_on_c, 1, 53, 76
3, 20156, Note_off_c, 1, 65, 0
3, 20156, Note_off_c, 1, 60, 0
3, 20156, Note_off_c, 1, 53, 0
3, 20160, Note_on_c, 1, 65, 76
3, 20160, Note_on_c, 1, 60, 76
3, 20160, Note_on_c, 1, 53, 76
3, 20348, Note_off_c, 1, 65, 0
3, 20348, Note_off_c, 1, 60, 0
3, 20348, Note_off_c, 1, 53, 0
3, 20352, Note_on_c, 1, 62, 76
3, 20352, Note_on_c, 1, 57, 76
3, 20352, Note_on_c, 1, 53, 76
3, 20540, Note_off_c, 1, 62, 0
3, 20540, Note_off_c, 1, 57, 0
3, 20540, Note_off_c, 1, 53, 0
3, 20544, Note_on_c, 1, 62, 76
3, 20544, Note_on_c, 1, 57, 76
3, 20544, Note_on_c, 1, 53, 76
3, 20732, Note_off_c, 1, 62, 0
3, 20732, Note_off_c, 1, 57, 0
3, 20732, Note_off_c, 1, 53, 0
3, 20736, Note_on_c, 1, 57, 76
3, 20736, Note_on_c, 1, 55, 76
3, 20736, Note_on_c, 1, 52, 76
3, 20924, Note_off_c, 1, 57, 0
3, 20924, Note_off_c, 1, 55, 0
3, 20924, Note_off_c, 1, 52, 0
3, 20928, Note_on_c, 1, 57, 76
3, 20928, Note_on_c, 1, 55, 76
3, 20928, Note_on_c, 1, 52, 76
3, 21116, Note_off_c, 1, 57, 0
3, 21116, Note_off_c, 1, 55, 0
3, 21116, Note_off_c, 1, 52, 0
3, 21120, Note_on_c, 1, 60, 76
3, 21120, Note_on_c, 1, 57, 76
3, 21120, Note_on_c, 1, 52, 76
3, 21308, Note_off_c, 1, 60, 0
3, 21308, Note_off_c, 1, 57, 0
3, 21308, Note_off_c, 1, 52, 0
3, 21312, Note_on_c, 1, 60, 76
3, 21312, Note_on_c, 1, 57, 76
3, 21312, Note_on_c, 1, 52, 76
3, 21500, Note_off_c, 1, 60, 0
3, 21500, Note_off_c, 1, 57, 0
3, 21500, Note_off_c, 1, 52, 0
3, 21504, Note_on_c, 1, 62, 76
3, 21504, Note_on_c, 1, 57, 76
3, 21504, Note_on_c, 1, 50, 76
3, 21884, Note_off_c, 1, 62, 0
3, 21884, Note_off_c, 1, 57, 0
3, 21884, Note_off_c, 1, 50, 0
3, 21888, Note_on_c, 1, 55, 76
3, 21888, Note_on_c, 1, 50, 76
3, 21888, Note_on_c, 1, 47, 76
3, 22268, Note_off_c, 1, 55, 0
3, 22268, Note_off_c, 1, 50, 0
3, 22268, Note_off_c, 1, 47, 0
3, 22272, Note_on_c, 1, 55, 76
3, 22272, Note_on_c, 1, 48, 76
3, 22652, Note_off_c, 1, 55, 0
3, 22652, Note_off_c, 1, 48, 0
3, 22656, Note_on_c, 1, 60, 76
3, 22656, Note_on_c, 1, 57, 76
3, 23036, Note_off_c, 1, 60, 0
3, 23036, Note_off_c, 1, 57, 0
3, 23040, Note_on_c, 1, 53, 57
3, 23228, Note_off_c, 1, 53, 0
3, 23232, Note_on_c, 1, 57, 57
3, 23420, Note_off_c, 1, 57, 0
3, 23424, Note_on_c, 1, 53, 57
3, 23612, Note_off_c, 1, 53, 0
3, 23616, Note_on_c, 1, 57, 57
3, 23804, Note_off_c, 1, 57, 0
3, 23808, Note_on_c, 1, 53, 57
3, 23996, Note_off_c, 1, 53, 0
3, 24000, Note_on_c, 1, 57, 57
3, 24188, Note_off_c, 1, 57, 0
3, 24192, Note_on_c, 1, 54, 57
3, 24380, Note_off_c, 1, 54, 0
3, 24384, Note_on_c, 1, 57, 57
3, 24572, Note_off_c, 1, 57, 0
3, 24576, Note_on_c, 1, 55, 90
3, 24668, Note_off_c, 1, 55, 0
3, 24672, Note_on_c, 1, 62, 90
3, 24764, Note_off_c, 1, 62, 0
3, 24768, Note_on_c, 1, 59, 90
3, 24860, Note_off_c, 1, 59, 0
3, 24864, Note_on_c, 1, 62, 90
3, 24956, Note_off_c, 1, 62, 0
3, 24960, Note_on_c, 1, 55, 90
3, 25052, Note_off_c, 1, 55, 0
3, 25056, Note_on_c, 1, 62, 90
3, 25148, Note_off_c, 1, 62, 0
3, 25152, Note_on_c, 1, 59, 90
3, 25244, Note_off_c, 1, 59, 0
3, 25248, Note_on_c, 1, 62, 90
3, 25340, Note_off_c, 1, 62, 0
3, 25344, Note_on_c, 1, 55, 90
3, 25436, Note_off_c, 1, 55, 0
3, 25440, Note_on_c, 1, 63, 90
3, 25532, Note_off_c, 1, 63, 0
3, 25536, Note_on_c, 1, 60, 90
3, 25628, Note_off_c, 1, 60, 0
3, 25632, Note_on_c, 1, 63, 90
3, 25724, Note_off_c, 1, 63, 0
3, 25728, Note_on_c, 1, 55, 90
3, 25820, Note_off_c, 1, 55, 0
3, 25824, Note_on_c, 1, 65, 90
3, 25916, Note_off_c, 1, 65, 0
3, 25920, Note_on_c, 1, 62, 90
3, 26012, Note_off_c, 1, 62, 0
3, 26016, Note_on_c, 1, 65, 90
3, 26108, Note_off_c, 1, 65, 0
3, 26112, Note_on_c, 1, 55, 76
3, 26204, Note_off_c, 1, 55, 0
3, 26208, Note_on_c, 1, 63, 76
3, 26300, Note_off_c, 1, 63, 0
3, 26304, Note_on_c, 1, 60, 76
3, 26396, Note_off_c, 1, 60, 0
3, 26400, Note_on_c, 1, 63, 76
3, 26492, Note_off_c, 1, 63, 0
3, 26496, Note_on_c, 1, 55, 76
3, 26588, Note_off_c, 1, 55, 0
3, 26592, Note_on_c, 1, 63, 76
3, 26684, Note_off_c, 1, 63, 0
3, 26688, Note_on_c, 1, 60, 76
3, 26780, Note_off_c, 1, 60, 0
3, 26784, Note_on_c, 1, 63, 76
3, 26876, Note_off_c, 1, 63, 0
3, 26880, Note_on_c, 1, 55, 76
3, 26972, Note_off_c, 1, 55, 0
3, 26976, Note_on_c, 1, 63, 76
3, 27068, Note_off_c, 1, 63, 0
3, 27072, Note_on_c, 1, 60, 76
3, 27164, Note_off_c, 1, 60, 0
3, 27168, Note_on_c, 1, 63, 76
3, 27260, Note_off_c, 1, 63, 0
3, 27264, Note_on_c, 1, 55, 76
3, 27356, Note_off_c, 1, 55, 0
3, 27360, Note_on_c, 1, 63, 76
3, 27452, Note_off_c, 1, 63, 0
3, 27456, Note_on_c, 1, 60, 76
3, 27548, Note_off_c, 1, 60, 0
3, 27552, Note_on_c, 1, 63, 76
3, 27644, Note_off_c, 1, 63, 0
3, 27648, Note_on_c, 1, 55, 76
3, 27740, Note_off_c, 1, 55, 0
3, 27744, Note_on_c, 1, 62, 76
3, 27836, Note_off_c, 1, 62, 0
3, 27840, Note_on_c, 1, 59, 76
3, 27932, Note_off_c, 1, 59, 0
3, 27936, Note_on_c, 1, 62, 76
3, 28028, Note_off_c, 1, 62, 0
3, 28032, Note_on_c, 1, 55, 76
3, 28124, Note_off_c, 1, 55, 0
3, 28128, Note_on_c, 1, 62, 76
3, 28220, Note_off_c, 1, 62, 0
3, 28224, Note_on_c, 1, 59, 76
3, 28316, Note_off_c, 1, 59, 0
3, 28320, Note_on_c, 1, 62, 76
3, 28412, Note_off_c, 1, 62, 0
3, 28416, Note_on_c, 1, 55, 76
3, 28508, Note_off_c, 1, 55, 0
3, 28512, Note_on_c, 1, 63, 76
3, 28604, Note_off_c, 1, 63, 0
3, 28608, Note_on_c, 1, 60, 76
3, 28700, Note_off_c, 1, 60, 0
3, 28704, Note_on_c, 1, 63, 76
3, 28796, Note_off_c, 1, 63, 0
3, 28800, Note_on_c, 1, 55, 76
3, 28892, Note_off_c, 1, 55, 0
3, 28896, Note_on_c, 1, 65, 76
3, 28988, Note_off_c, 1, 65, 0
3, 28992, Note_on_c, 1, 62, 76
3, 29084, Note_off_c, 1, 62, 0
3, 29088, Note_on_c, 1, 65, 76
3, 29180, Note_off_c, 1, 65, 0
3, 29184, Note_on_c, 1, 55, 76
3, 29276, Note_off_c, 1, 55, 0
3, 29280, Note_on_c, 1, 63, 76
3, 29372, Note_off_c, 1, 63, 0
3, 29376, Note_on_c, 1, 60, 76
3, 29468, Note_off_c, 1, 60, 0
3, 29472, Note_on_c, 1, 63, 76
3, 29564, Note_off_c, 1, 63, 0
3, 29568, Note_on_c, 1, 55, 76
3, 29660, Note_off_c, 1, 55, 0
3, 29664, Note_on_c, 1, 63, 76
3, 29756, Note_off_c, 1, 63, 0
3, 29760, Note_on_c, 1, 60, 76
3, 29852, Note_off_c, 1, 60, 0
3, 29856, Note_on_c, 1, 63, 76
3, 29948, Note_off_c, 1, 63, 0
3, 29952, Note_on_c, 1, 55, 76
3, 30044, Note_off_c, 1, 55, 0
3, 30048, Note_on_c, 1, 63, 76
3, 30140, Note_off_c, 1, 63, 0
3, 30144, Note_on_c, 1, 60, 76
3, 30236, Note_off_c, 1, 60, 0
3, 30240, Note_on_c, 1, 63, 76
3, 30332, Note_off_c, 1, 63, 0
3, 30336, Note_on_c, 1, 55, 76
3, 30428, Note_off_c, 1, 55, 0
3, 30432, Note_on_c, 1, 63, 76
3, 30524, Note_off_c, 1, 63, 0
3, 30528, Note_on_c, 1, 60, 76
3, 30620, Note_off_c, 1, 60, 0
3, 30624, Note_on_c, 1, 63, 76
3, 30716, Note_off_c, 1, 63, 0
3, 30720, Note_on_c, 1, 62, 90
3, 30720, Note_on_c, 1, 59, 90
3, 30720, Note_on_c, 1, 55, 90
3, 31100, Note_off_c, 1, 62, 0
3, 31100, Note_off_c, 1, 59, 0
3, 31100, Note_off_c, 1, 55, 0
3, 31296, Note_on_c, 1, 48, 90
3, 31296, Note_on_c, 1, 60, 90
3, 31484, Note_off_c, 1, 48, 0
3, 31484, Note_off_c, 1, 60, 0
3, 31488, Note_on_c, 1, 55, 90
3, 31488, Note_on_c, 1, 43, 90
3, 31868, Note_off_c, 1, 55, 0
3, 31868, Note_off_c, 1, 43, 0
3, 32064, Note_on_c, 1, 60, 90
3, 32064, Note_on_c, 1, 48, 90
3, 32252, Note_off_c, 1, 60, 0
3, 32252, Note_off_c, 1, 48, 0
3, 32256, Note_on_c, 1, 55, 90
3, 32256, Note_on_c, 1, 43, 90
3, 32636, Note_off_c, 1, 55, 0
3, 32636, Note_off_c, 1, 43, 0
3, 32832, Note_on_c, 1, 60, 90
3, 32832, Note_on_c, 1, 48, 90
3, 33020, Note_off_c, 1, 60, 0
3, 33020, Note_off_c, 1, 48, 0
3, 33024, Note_on_c, 1, 55, 90
3, 33024, Note_on_c, 1, 43, 90
3, 33212, Note_off_c, 1, 55, 0
3, 33212, Note_off_c, 1, 43, 0
3, 33216, Note_on_c, 1, 60, 90
3, 33216, Note_on_c, 1, 48, 90
3, 33404, Note_off_c, 1, 60, 0
3, 33404, Note_off_c, 1, 48, 0
3, 33408, Note_on_c, 1, 55, 90
3, 33408, Note_on_c, 1, 43, 90
3, 33596, Note_off_c, 1, 55, 0
3, 33596, Note_off_c, 1, 43, 0
3, 33600, Note_on_c, 1, 60, 90
3, 33600, Note_on_c, 1, 48, 90
3, 33788, Note_off_c, 1, 60, 0
3, 33788, Note_off_c, 1, 48, 0
3, 33792, Note_on_c, 1, 55, 90
3, 33792, Note_on_c, 1, 43, 90
3, 34172, Note_off_c, 1, 55, 0
3, 34172, Note_off_c, 1, 43, 0
3, 34176, Note_on_c, 1, 31, 90
3, 34176, Note_on_c, 1, 43, 90
3, 34556, Note_off_c, 1, 31, 0
3, 34556, Note_off_c, 1, 43, 0
3, 34560, Note_on_c, 1, 43, 90
3, 34560, Note_on_c, 1, 31, 90
3, 34940, Note_off_c, 1, 43, 0
3, 34940, Note_off_c, 1, 31, 0
3, 38400, Note_on_c, 1, 65, 76
3, 38400, Note_on_c, 1, 62, 76
3, 38400, Note_on_c, 1, 55, 76
3, 38588, Note_off_c, 1, 65, 0
3, 38588, Note_off_c, 1, 62, 0
3, 38588, Note_off_c, 1, 55, 0
3, 38592, Note_on_c, 1, 65, 76
3, 38592, Note_on_c, 1, 62, 76
3, 38592, Note_on_c, 1, 55, 76
3, 38780, Note_off_c, 1, 65, 0
3, 38780, Note_off_c, 1, 62, 0
3, 38780, Note_off_c, 1, 55, 0
3, 38784, Note_on_c, 1, 65, 76
3, 38784, Note_on_c, 1, 62, 76
3, 38784, Note_on_c, 1, 55, 76
3, 38972, Note_off_c, 1, 65, 0
3, 38972, Note_off_c, 1, 62, 0
3, 38972, Note_off_c, 1, 55, 0
3, 38976, Note_on_c, 1, 65, 76
3, 38976, Note_on_c, 1, 62, 76
3, 38976, Note_on_c, 1, 55, 76
3, 39164, Note_off_c, 1, 65, 0
3, 39164, Note_off_c, 1, 62, 0
3, 39164, Note_off_c, 1, 55, 0
3, 39168, Note_on_c, 1, 65, 76
3, 39168, Note_on_c, 1, 62, 76
3, 39168, Note_on_c, 1, 55, 76
3, 39548, Note_off_c, 1, 65, 0
3, 39548, Note_off_c, 1, 62, 0
3, 39548, Note_off_c, 1, 55, 0
3, 39936, Note_on_c, 1, 60, 76
3, 40316, Note_off_c, 1, 60, 0
3, 41472, Note_on_c, 1, 60, 57
3, 41472, Note_on_c, 1, 52, 57
3, 41660, Note_off_c, 1, 60, 0
3, 41660, Note_off_c, 1, 52, 0
3, 41664, Note_on_c, 1, 60, 57
3, 41664, Note_on_c, 1, 52, 57
3, 41852, Note_off_c, 1, 60, 0
3, 41852, Note_off_c, 1, 52, 0
3, 41856, Note_on_c, 1, 60, 57
3, 41856, Note_on_c, 1, 52, 57
3, 42044, Note_off_c, 1, 60, 0
3, 42044, Note_off_c, 1, 52, 0
3, 42048, Note_on_c, 1, 60, 57
3, 42048, Note_on_c, 1, 52, 57
3, 42236, Note_off_c, 1, 60, 0
3, 42236, Note_off_c, 1, 52, 0
3, 42240, Note_on_c, 1, 60, 57
3, 42240, Note_on_c, 1, 52, 57
3, 42620, Note_off_c, 1, 60, 0
3, 42620, Note_off_c, 1, 52, 0
3, 43008, Note_on_c, 1, 53, 76
3, 43392, Note_on_c, 1, 57, 76
3, 43772, Note_off_c, 1, 57, 0
3, 43776, Note_on_c, 1, 62, 76
3, 44156, Note_off_c, 1, 53, 0
3, 44160, Note_on_c, 1, 53, 76
3, 44540, Note_off_c, 1, 62, 0
3, 44540, Note_off_c, 1, 53, 0
3, 44544, Note_on_c, 1, 62, 76
3, 44544, Note_on_c, 1, 52, 76
3, 44924, Note_off_c, 1, 62, 0
3, 44928, Note_on_c, 1, 55, 76
3, 45308, Note_off_c, 1, 55, 0
3, 45312, Note_on_c, 1, 60, 76
3, 45692, Note_off_c, 1, 52, 0
3, 45696, Note_on_c, 1, 52, 76
3, 46076, Note_off_c, 1, 60, 0
3, 46076, Note_off_c, 1, 52, 0
3, 46080, Note_on_c, 1, 60, 76
3, 46080, Note_on_c, 1, 50, 76
3, 46460, Note_off_c, 1, 60, 0
3, 46460, Note_off_c, 1, 50, 0
3, 46464, Note_on_c, 1, 57, 76
3, 46464, Note_on_c, 1, 53, 76
3, 46844, Note_off_c, 1, 57, 0
3, 46844, Note_off_c, 1, 53, 0
3, 46848, Note_on_c, 1, 55, 76
3, 46848, Note_on_c, 1, 55, 76
3, 47228, Note_off_c, 1, 55, 0
3, 47232, Note_on_c, 1, 47, 76
3, 47612, Note_off_c, 1, 47, 0
3, 47616, Note_on_c, 1, 48, 76
3, 47996, Note_off_c, 1, 55, 0
3, 47996, Note_off_c, 1, 48, 0
3, 48000, Note_on_c, 1, 55, 76
3, 48000, Note_on_c, 1, 50, 76
3, 48380, Note_off_c, 1, 50, 0
3, 48384, Note_on_c, 1, 52, 76
3, 48764, Note_off_c, 1, 55, 0
3, 48768, Note_on_c, 1, 60, 76
3, 49148, Note_off_c, 1, 52, 0
3, 49148, Note_off_c, 1, 60, 0
3, 49152, Note_on_c, 1, 60, 76
3, 49152, Note_on_c, 1, 53, 76
3, 49532, Note_off_c, 1, 60, 0
3, 49532, Note_off_c, 1, 53, 0
3, 50688, Note_on_c, 1, 53, 90
3, 50780, Note_off_c, 1, 53, 0
3, 50784, Note_on_c, 1, 62, 90
3, 50876, Note_off_c, 1, 62, 0
3, 50880, Note_on_c, 1, 57, 90
3, 50972, Note_off_c, 1, 57, 0
3, 50976, Note_on_c, 1, 62, 90
3, 51068, Note_off_c, 1, 62, 0
3, 51072, Note_on_c, 1, 53, 90
3, 51164, Note_off_c, 1, 53, 0
3, 51168, Note_on_c, 1, 62, 90
3, 51260, Note_off_c, 1, 62, 0
3, 51264, Note_on_c, 1, 57, 90
3, 51356, Note_off_c, 1, 57, 0
3, 51360, Note_on_c, 1, 62, 90
3, 51452, Note_off_c, 1, 62, 0
3, 51456, Note_on_c, 1, 53, 90
3, 51548, Note_off_c, 1, 53, 0
3, 51552, Note_on_c, 1, 62, 90
3, 51644, Note_off_c, 1, 62, 0
3, 51648, Note_on_c, 1, 57, 90
3, 51740, Note_off_c, 1, 57, 0
3, 51744, Note_on_c, 1, 62, 90
3, 51836, Note_off_c, 1, 62, 0
3, 51840, Note_on_c, 1, 53, 90
3, 51932, Note_off_c, 1, 53, 0
3, 51936, Note_on_c, 1, 62, 90
3, 52028, Note_off_c, 1, 62, 0
3, 52032, Note_on_c, 1, 57, 90
3, 52124, Note_off_c, 1, 57, 0
3, 52128, Note_on_c, 1, 62, 90
3, 52220, Note_off_c, 1, 62, 0
3, 52224, Note_on_c, 1, 55, 76
3, 52316, Note_off_c, 1, 55, 0
3, 52320, Note_on_c, 1, 64, 76
3, 52412, Note_off_c, 1, 64, 0
3, 52416, Note_on_c, 1, 60, 76
3, 52508, Note_off_c, 1, 60, 0
3, 52512, Note_on_c, 1, 64, 76
3, 52604, Note_off_c, 1, 64, 0
3, 52608, Note_on_c, 1, 55, 76
3, 52700, Note_off_c, 1, 55, 0
3, 52704, Note_on_c, 1, 64, 76
3, 52796, Note_off_c, 1, 64, 0
3, 52800, Note_on_c, 1, 60, 76
3, 52892, Note_off_c, 1, 60, 0
3, 52896, Note_on_c, 1, 64, 76
3, 52988, Note_off_c, 1, 64, 0
3, 52992, Note_on_c, 1, 55, 76
3, 53084, Note_off_c, 1, 55, 0
3, 53088, Note_on_c, 1, 65, 76
3, 53180, Note_off_c, 1, 65, 0
3, 53184, Note_on_c, 1, 59, 76
3, 53276, Note_off_c, 1, 59, 0
3, 53280, Note_on_c, 1, 65, 76
3, 53372, Note_off_c, 1, 65, 0
3, 53376, Note_on_c, 1, 55, 76
3, 53468, Note_off_c, 1, 55, 0
3, 53472, Note_on_c, 1, 65, 76
3, 53564, Note_off_c, 1, 65, 0
3, 53568, Note_on_c, 1, 59, 76
3, 53660, Note_off_c, 1, 59, 0
3, 53664, Note_on_c, 1, 65, 76
3, 53756, Note_off_c, 1, 65, 0
3, 53760, Note_on_c, 1, 64, 57
3, 53760, Note_on_c, 1, 60, 57
3, 54140, Note_off_c, 1, 64, 0
3, 54140, Note_off_c, 1, 60, 0
3, 57600, Note_on_c, 1, 52, 82
3, 57600, Note_on_c, 1, 60, 82
3, 57980, Note_off_c, 1, 60, 0
3, 57984, Note_on_c, 1, 55, 82
3, 58364, Note_off_c, 1, 52, 0
3, 58364, Note_off_c, 1, 55, 0
3, 58368, Note_on_c, 1, 57, 76
3, 58368, Note_on_c, 1, 53, 76
3, 59132, Note_off_c, 1, 57, 0
3, 59132, Note_off_c, 1, 53, 0
3, 59136, Note_on_c, 1, 59, 82
3, 59136, Note_on_c, 1, 55, 82
3, 59136, Note_on_c, 1, 53, 82
3, 59900, Note_off_c, 1, 59, 0
3, 59900, Note_off_c, 1, 55, 0
3, 59900, Note_off_c, 1, 53, 0
3, 59904, Note_on_c, 1, 60, 90
3, 59904, Note_on_c, 1, 55, 90
3, 59904, Note_on_c, 1, 52, 90
3, 60284, Note_off_c, 1, 60, 0
3, 60284, Note_off_c, 1, 55, 0
3, 60284, Note_off_c, 1, 52, 0
3, 60288, Note_on_c, 1, 53, 90
3, 60288, Note_on_c, 1, 60, 90
3, 60668, Note_off_c, 1, 53, 0
3, 60672, Note_on_c, 1, 55, 90
3, 61052, Note_off_c, 1, 60, 0
3, 61052, Note_off_c, 1, 55, 0
3, 61056, Note_on_c, 1, 59, 90
3, 61056, Note_on_c, 1, 55, 90
3, 61436, Note_off_c, 1, 59, 0
3, 61436, Note_off_c, 1, 55, 0
3, 64512, Note_on_c, 1, 64, 76
3, 64604, Note_off_c, 1, 64, 0
3, 64608, Note_on_c, 1, 65, 76
3, 64700, Note_off_c, 1, 65, 0
3, 64704, Note_on_c, 1, 62, 76
3, 64796, Note_off_c, 1, 62, 0
3, 64800, Note_on_c, 1, 64, 76
3, 64892, Note_off_c, 1, 64, 0
3, 64896, Note_on_c, 1, 60, 76
3, 64988, Note_off_c, 1, 60, 0
3, 64992, Note_on_c, 1, 62, 76
3, 65084, Note_off_c, 1, 62, 0
3, 65088, Note_on_c, 1, 59, 76
3, 65180, Note_off_c, 1, 59, 0
3, 65184, Note_on_c, 1, 60, 76
3, 65276, Note_off_c, 1, 60, 0
3, 65280, Note_on_c, 1, 57, 76
3, 65372, Note_off_c, 1, 57, 0
3, 65376, Note_on_c, 1, 59, 76
3, 65468, Note_off_c, 1, 59, 0
3, 65472, Note_on_c, 1, 55, 76
3, 65564, Note_off_c, 1, 55, 0
3, 65568, Note_on_c, 1, 57, 76
3, 65660, Note_off_c, 1, 57, 0
3, 65664, Note_on_c, 1, 53, 76
3, 65756, Note_off_c, 1, 53, 0
3, 65760, Note_on_c, 1, 55, 76
3, 65852, Note_off_c, 1, 55, 0
3, 65856, Note_on_c, 1, 52, 76
3, 65948, Note_off_c, 1, 52, 0
3, 65952, Note_on_c, 1, 53, 76
3, 66044, Note_off_c, 1, 53, 0
3, 66048, Note_on_c, 1, 50, 76
3, 66140, Note_off_c, 1, 50, 0
3, 66144, Note_on_c, 1, 52, 76
3, 66236, Note_off_c, 1, 52, 0
3, 66240, Note_on_c, 1, 48, 76
3, 66332, Note_off_c, 1, 48, 0
3, 66336, Note_on_c, 1, 50, 76
3, 66428, Note_off_c, 1, 50, 0
3, 66432, Note_on_c, 1, 47, 76
3, 66524, Note_off_c, 1, 47, 0
3, 66528, Note_on_c, 1, 48, 76
3, 66620, Note_off_c, 1, 48, 0
3, 66624, Note_on_c, 1, 45, 76
3, 66716, Note_off_c, 1, 45, 0
3, 66720, Note_on_c, 1, 47, 76
3, 66812, Note_off_c, 1, 47, 0
3, 66816, Note_on_c, 1, 43, 76
3, 66908, Note_off_c, 1, 43, 0
3, 66912, Note_on_c, 1, 45, 76
3, 67004, Note_off_c, 1, 45, 0
3, 67008, Note_on_c, 1, 41, 76
3, 67100, Note_off_c, 1, 41, 0
3, 67104, Note_on_c, 1, 43, 76
3, 67196, Note_off_c, 1, 43, 0
3, 67200, Note_on_c, 1, 40, 76
3, 67292, Note_off_c, 1, 40, 0
3, 67296, Note_on_c, 1, 41, 76
3, 67388, Note_off_c, 1, 41, 0
3, 67392, Note_on_c, 1, 38, 76
3, 67484, Note_off_c, 1, 38, 0
3, 67488, Note_on_c, 1, 41, 76
3, 67580, Note_off_c, 1, 41, 0
3, 67584, Note_on_c, 1, 40, 97
3, 67676, Note_off_c, 1, 40, 0
3, 67968, Note_on_c, 1, 41, 97
3, 68060, Note_off_c, 1, 41, 0
3, 68352, Note_on_c, 1, 43, 97
3, 68444, Note_off_c, 1, 43, 0
3, 68736, Note_on_c, 1, 31, 97
3, 68828, Note_off_c, 1, 31, 0
3, 69120, Note_on_c, 1, 60, 57
3, 69212, Note_off_c, 1, 60, 0
3, 69216, Note_on_c, 1, 62, 57
3, 69308, Note_off_c, 1, 62, 0
3, 69312, Note_on_c, 1, 64, 57
3, 69404, Note_off_c, 1, 64, 0
3, 69408, Note_on_c, 1, 62, 57
3, 69500, Note_off_c, 1, 62, 0
3, 69504, Note_on_c, 1, 60, 57
3, 69596, Note_off_c, 1, 60, 0
3, 69600, Note_on_c, 1, 59, 57
3, 69692, Note_off_c, 1, 59, 0
3, 69696, Note_on_c, 1, 57, 57
3, 69788, Note_off_c, 1, 57, 0
3, 69792, Note_on_c, 1, 55, 57
3, 69884, Note_off_c, 1, 55, 0
3, 69888, Note_on_c, 1, 57, 57
3, 69980, Note_off_c, 1, 57, 0
3, 69984, Note_on_c, 1, 59, 57
3, 70076, Note_off_c, 1, 59, 0
3, 70080, Note_on_c, 1, 60, 57
3, 70172, Note_off_c, 1, 60, 0
3, 70176, Note_on_c, 1, 59, 57
3, 70268, Note_off_c, 1, 59, 0
3, 70272, Note_on_c, 1, 57, 57
3, 70364, Note_off_c, 1, 57, 0
3, 70368, Note_on_c, 1, 55, 57
3, 70460, Note_off_c, 1, 55, 0
3, 70464, Note_on_c, 1, 53, 57
3, 70556, Note_off_c, 1, 53, 0
3, 70560, Note_on_c, 1, 52, 57
3, 70652, Note_off_c, 1, 52, 0
3, 70656, Note_on_c, 1, 53, 76
3, 70748, Note_off_c, 1, 53, 0
3, 70752, Note_on_c, 1, 55, 76
3, 70844, Note_off_c, 1, 55, 0
3, 70848, Note_on_c, 1, 57, 76
3, 70940, Note_off_c, 1, 57, 0
3, 70944, Note_on_c, 1, 55, 76
3, 71036, Note_off_c, 1, 55, 0
3, 71040, Note_on_c, 1, 53, 76
3, 71132, Note_off_c, 1, 53, 0
3, 71136, Note_on_c, 1, 50, 76
3, 71228, Note_off_c, 1, 50, 0
3, 71232, Note_on_c, 1, 52, 76
3, 71324, Note_off_c, 1, 52, 0
3, 71328, Note_on_c, 1, 53, 76
3, 71420, Note_off_c, 1, 53, 0
3, 71424, Note_on_c, 1, 55, 76
3, 71516, Note_off_c, 1, 55, 0
3, 71520, Note_on_c, 1, 54, 76
3, 71612, Note_off_c, 1, 54, 0
3, 71616, Note_on_c, 1, 55, 76
3, 71708, Note_off_c, 1, 55, 0
3, 71712, Note_on_c, 1, 54, 76
3, 71804, Note_off_c, 1, 54, 0
3, 71808, Note_on_c, 1, 55, 76
3, 71900, Note_off_c, 1, 55, 0
3, 71904, Note_on_c, 1, 53, 76
3, 71996, Note_off_c, 1, 53, 0
3, 72000, Note_on_c, 1, 52, 76
3, 72092, Note_off_c, 1, 52, 0
3, 72096, Note_on_c, 1, 50, 76
3, 72188, Note_off_c, 1, 50, 0
3, 72192, Note_on_c, 1, 48, 90
3, 72284, Note_off_c, 1, 48, 0
3, 72288, Note_on_c, 1, 50, 90
3, 72380, Note_off_c, 1, 50, 0
3, 72384, Note_on_c, 1, 52, 90
3, 72476, Note_off_c, 1, 52, 0
3, 72480, Note_on_c, 1, 50, 90
3, 72572, Note_off_c, 1, 50, 0
3, 72576, Note_on_c, 1, 48, 90
3, 72668, Note_off_c, 1, 48, 0
3, 72672, Note_on_c, 1, 47, 90
3, 72764, Note_off_c, 1, 47, 0
3, 72768, Note_on_c, 1, 45, 90
3, 72860, Note_off_c, 1, 45, 0
3, 72864, Note_on_c, 1, 44, 90
3, 72956, Note_off_c, 1, 44, 0
3, 72960, Note_on_c, 1, 45, 90
3, 73052, Note_off_c, 1, 45, 0
3, 73056, Note_on_c, 1, 47, 90
3, 73148, Note_off_c, 1, 47, 0
3, 73152, Note_on_c, 1, 48, 90
3, 73244, Note_off_c, 1, 48, 0
3, 73248, Note_on_c, 1, 47, 90
3, 73340, Note_off_c, 1, 47, 0
3, 73344, Note_on_c, 1, 45, 90
3, 73436, Note_off_c, 1, 45, 0
3, 73440, Note_on_c, 1, 43, 90
3, 73532, Note_off_c, 1, 43, 0
3, 73536, Note_on_c, 1, 41, 90
3, 73628, Note_off_c, 1, 41, 0
3, 73632, Note_on_c, 1, 40, 90
3, 73724, Note_off_c, 1, 40, 0
3, 73728, Note_on_c, 1, 41, 90
3, 73820, Note_off_c, 1, 41, 0
3, 73824, Note_on_c, 1, 43, 94
3, 73916, Note_off_c, 1, 43, 0
3, 73920, Note_on_c, 1, 45, 94
3, 74012, Note_off_c, 1, 45, 0
3, 74016, Note_on_c, 1, 43, 96
3, 74108, Note_off_c, 1, 43, 0
3, 74112, Note_on_c, 1, 41, 96
3, 74204, Note_off_c, 1, 41, 0
3, 74208, Note_on_c, 1, 38, 96
3, 74300, Note_off_c, 1, 38, 0
3, 74304, Note_on_c, 1, 40, 96
3, 74396, Note_off_c, 1, 40, 0
3, 74400, Note_on_c, 1, 41, 97
3, 74492, Note_off_c, 1, 41, 0
3, 74496, Note_on_c, 1, 43, 97
3, 74588, Note_off_c, 1, 43, 0
3, 74592, Note_on_c, 1, 42, 99
3, 74684, Note_off_c, 1, 42, 0
3, 74688, Note_on_c, 1, 43, 99
3, 74780, Note_off_c, 1, 43, 0
3, 74784, Note_on_c, 1, 42, 102
3, 74876, Note_off_c, 1, 42, 0
3, 74880, Note_on_c, 1, 43, 102
3, 74972, Note_off_c, 1, 43, 0
3, 74976, Note_on_c, 1, 41, 103
3, 75068, Note_off_c, 1, 41, 0
3, 75072, Note_on_c, 1, 40, 103
3, 75164, Note_off_c, 1, 40, 0
3, 75168, Note_on_c, 1, 38, 105
3, 75260, Note_off_c, 1, 38, 0
3, 75264, Note_on_c, 1, 36, 106
3, 75644, Note_off_c, 1, 36, 0
3, 75648, Note_on_c, 1, 48, 106
3, 75648, Note_on_c, 1, 36, 106
3, 76028, Note_off_c, 1, 48, 0
3, 76028, Note_off_c, 1, 36, 0
3, 76032, Note_on_c, 1, 48, 106
3, 76032, Note_on_c, 1, 36, 106
3, 76412, Note_off_c, 1, 48, 0
3, 76412, Note_off_c, 1, 36, 0
3, 76800, Note_on_c, 1, 64, 90
3, 76800, Note_on_c, 1, 60, 90
3, 76800, Note_on_c, 1, 57, 90
3, 76988, Note_off_c, 1, 64, 0
3, 76988, Note_off_c, 1, 60, 0
3, 76988, Note_off_c, 1, 57, 0
3, 76992, Note_on_c, 1, 64, 90
3, 76992, Note_on_c, 1, 60, 90
3, 76992, Note_on_c, 1, 57, 90
3, 77180, Note_off_c, 1, 64, 0
3, 77180, Note_off_c, 1, 60, 0
3, 77180, Note_off_c, 1, 57, 0
3, 77184, Note_on_c, 1, 64, 90
3, 77184, Note_on_c, 1, 60, 90
3, 77184, Note_on_c, 1, 57, 90
3, 77372, Note_off_c, 1, 64, 0
3, 77372, Note_off_c, 1, 60, 0
3, 77372, Note_off_c, 1, 57, 0
3, 77376, Note_on_c, 1, 64, 90
3, 77376, Note_on_c, 1, 60, 90
3, 77376, Note_on_c, 1, 57, 90
3, 77564, Note_off_c, 1, 64, 0
3, 77564, Note_off_c, 1, 60, 0
3, 77564, Note_off_c, 1, 57, 0
3, 77568, Note_on_c, 1, 64, 90
3, 77568, Note_on_c, 1, 60, 90
3, 77568, Note_on_c, 1, 57, 90
3, 77756, Note_off_c, 1, 64, 0
3, 77756, Note_off_c, 1, 60, 0
3, 77756, Note_off_c, 1, 57, 0
3, 77760, Note_on_c, 1, 64, 90
3, 77760, Note_on_c, 1, 60, 90
3, 77760, Note_on_c, 1, 57, 90
3, 77948, Note_off_c, 1, 64, 0
3, 77948, Note_off_c, 1, 60, 0
3, 77948, Note_off_c, 1, 57, 0
3, 77952, Note_on_c, 1, 64, 90
3, 77952, Note_on_c, 1, 57, 90
3, 77952, Note_on_c, 1, 60, 90
3, 78140, Note_off_c, 1, 64, 0
3, 78140, Note_off_c, 1, 57, 0
3, 78140, Note_off_c, 1, 60, 0
3, 78144, Note_on_c, 1, 64, 90
3, 78144, Note_on_c, 1, 60, 90
3, 78144, Note_on_c, 1, 57, 90
3, 78332, Note_off_c, 1, 64, 0
3, 78332, Note_off_c, 1, 60, 0
3, 78332, Note_off_c, 1, 57, 0
3, 78336, Note_on_c, 1, 64, 82
3, 78336, Note_on_c, 1, 62, 82
3, 78336, Note_on_c, 1, 59, 82
3, 78336, Note_on_c, 1, 57, 82
3, 78524, Note_off_c, 1, 64, 0
3, 78524, Note_off_c, 1, 62, 0
3, 78524, Note_off_c, 1, 59, 0
3, 78524, Note_off_c, 1, 57, 0
3, 78528, Note_on_c, 1, 62, 82
3, 78528, Note_on_c, 1, 59, 82
3, 78528, Note_on_c, 1, 57, 82
3, 78528, Note_on_c, 1, 64, 82
3, 78716, Note_off_c, 1, 62, 0
3, 78716, Note_off_c, 1, 59, 0
3, 78716, Note_off_c, 1, 57, 0
3, 78716, Note_off_c, 1, 64, 0
3, 78720, Note_on_c, 1, 64, 82
3, 78720, Note_on_c, 1, 62, 82
3, 78720, Note_on_c, 1, 59, 82
3, 78720, Note_on_c, 1, 57, 82
3, 78908, Note_off_c, 1, 64, 0
3, 78908, Note_off_c, 1, 62, 0
3, 78908, Note_off_c, 1, 59, 0
3, 78908, Note_off_c, 1, 57, 0
3, 78912, Note_on_c, 1, 64, 82
3, 78912, Note_on_c, 1, 62, 82
3, 78912, Note_on_c, 1, 59, 82
3, 78912, Note_on_c, 1, 57, 82
3, 79100, Note_off_c, 1, 64, 0
3, 79100, Note_off_c, 1, 62, 0
3, 79100, Note_off_c, 1, 59, 0
3, 79100, Note_off_c, 1, 57, 0
3, 79104, Note_on_c, 1, 64, 82
3, 79104, Note_on_c, 1, 62, 82
3, 79104, Note_on_c, 1, 59, 82
3, 79104, Note_on_c, 1, 57, 82
3, 79292, Note_off_c, 1, 64, 0
3, 79292, Note_off_c, 1, 62, 0
3, 79292, Note_off_c, 1, 59, 0
3, 79292, Note_off_c, 1, 57, 0
3, 79296, Note_on_c, 1, 64, 82
3, 79296, Note_on_c, 1, 62, 82
3, 79296, Note_on_c, 1, 59, 82
3, 79296, Note_on_c, 1, 57, 82
3, 79484, Note_off_c, 1, 64, 0
3, 79484, Note_off_c, 1, 62, 0
3, 79484, Note_off_c, 1, 59, 0
3, 79484, Note_off_c, 1, 57, 0
3, 79488, Note_on_c, 1, 64, 82
3, 79488, Note_on_c, 1, 62, 82
3, 79488, Note_on_c, 1, 59, 82
3, 79488, Note_on_c, 1, 57, 82
3, 79676, Note_off_c, 1, 64, 0
3, 79676, Note_off_c, 1, 62, 0
3, 79676, Note_off_c, 1, 59, 0
3, 79676, Note_off_c, 1, 57, 0
3, 79680, Note_on_c, 1, 62, 82
3, 79680, Note_on_c, 1, 59, 82
3, 79680, Note_on_c, 1, 57, 82
3, 79680, Note_on_c, 1, 64, 82
3, 79868, Note_off_c, 1, 62, 0
3, 79868, Note_off_c, 1, 59, 0
3, 79868, Note_off_c, 1, 57, 0
3, 79868, Note_off_c, 1, 64, 0
3, 79872, Note_on_c, 1, 64, 76
3, 79872, Note_on_c, 1, 60, 76
3, 79872, Note_on_c, 1, 57, 76
3, 80060, Note_off_c, 1, 64, 0
3, 80060, Note_off_c, 1, 60, 0
3, 80060, Note_off_c, 1, 57, 0
3, 80064, Note_on_c, 1, 64, 76
3, 80064, Note_on_c, 1, 57, 76
3, 80064, Note_on_c, 1, 60, 76
3, 80252, Note_off_c, 1, 64, 0
3, 80252, Note_off_c, 1, 57, 0
3, 80252, Note_off_c, 1, 60, 0
3, 80256, Note_on_c, 1, 64, 76
3, 80256, Note_on_c, 1, 60, 76
3, 80256, Note_on_c, 1, 57, 76
3, 80444, Note_off_c, 1, 64, 0
3, 80444, Note_off_c, 1, 60, 0
3, 80444, Note_off_c, 1, 57, 0
3, 80448, Note_on_c, 1, 64, 76
3, 80448, Note_on_c, 1, 60, 76
3, 80448, Note_on_c, 1, 57, 76
3, 80636, Note_off_c, 1, 64, 0
3, 80636, Note_off_c, 1, 60, 0
3, 80636, Note_off_c, 1, 57, 0
3, 80640, Note_on_c, 1, 64, 76
3, 80640, Note_on_c, 1, 57, 76
3, 80640, Note_on_c, 1, 60, 76
3, 80828, Note_off_c, 1, 64, 0
3, 80828, Note_off_c, 1, 57, 0
3, 80828, Note_off_c, 1, 60, 0
3, 80832, Note_on_c, 1, 64, 76
3, 80832, Note_on_c, 1, 60, 76
3, 80832, Note_on_c, 1, 57, 76
3, 81020, Note_off_c, 1, 64, 0
3, 81020, Note_off_c, 1, 60, 0
3, 81020, Note_off_c, 1, 57, 0
3, 81024, Note_on_c, 1, 64, 76
3, 81024, Note_on_c, 1, 57, 76
3, 81024, Note_on_c, 1, 60, 76
3, 81212, Note_off_c, 1, 64, 0
3, 81212, Note_off_c, 1, 57, 0
3, 81212, Note_off_c, 1, 60, 0
3, 81216, Note_on_c, 1, 64, 76
3, 81216, Note_on_c, 1, 60, 76
3, 81216, Note_on_c, 1, 57, 76
3, 81404, Note_off_c, 1, 64, 0
3, 81404, Note_off_c, 1, 60, 0
3, 81404, Note_off_c, 1, 57, 0
3, 81408, Note_on_c, 1, 64, 76
3, 81408, Note_on_c, 1, 62, 76
3, 81408, Note_on_c, 1, 59, 76
3, 81408, Note_on_c, 1, 57, 76
3, 81596, Note_off_c, 1, 64, 0
3, 81596, Note_off_c, 1, 62, 0
3, 81596, Note_off_c, 1, 59, 0
3, 81596, Note_off_c, 1, 57, 0
3, 81600, Note_on_c, 1, 64, 76
3, 81600, Note_on_c, 1, 59, 76
3, 81600, Note_on_c, 1, 57, 76
3, 81600, Note_on_c, 1, 62, 76
3, 81788, Note_off_c, 1, 64, 0
3, 81788, Note_off_c, 1, 59, 0
3, 81788, Note_off_c, 1, 57, 0
3, 81788, Note_off_c, 1, 62, 0
3, 81792, Note_on_c, 1, 64, 76
3, 81792, Note_on_c, 1, 59, 76
3, 81792, Note_on_c, 1, 57, 76
3, 81792, Note_on_c, 1, 62, 76
3, 81980, Note_off_c, 1, 64, 0
3, 81980, Note_off_c, 1, 59, 0
3, 81980, Note_off_c, 1, 57, 0
3, 81980, Note_off_c, 1, 62, 0
3, 81984, Note_on_c, 1, 64, 76
3, 81984, Note_on_c, 1, 62, 76
3, 81984, Note_on_c, 1, 59, 76
3, 81984, Note_on_c, 1, 57, 76
3, 82172, Note_off_c, 1, 64, 0
3, 82172, Note_off_c, 1, 62, 0
3, 82172, Note_off_c, 1, 59, 0
3, 82172, Note_off_c, 1, 57, 0
3, 82176, Note_on_c, 1, 64, 76
3, 82176, Note_on_c, 1, 62, 76
3, 82176, Note_on_c, 1, 59, 76
3, 82176, Note_on_c, 1, 57, 76
3, 82364, Note_off_c, 1, 64, 0
3, 82364, Note_off_c, 1, 62, 0
3, 82364, Note_off_c, 1, 59, 0
3, 82364, Note_off_c, 1, 57, 0
3, 82368, Note_on_c, 1, 64, 76
3, 82368, Note_on_c, 1, 62, 76
3, 82368, Note_on_c, 1, 59, 76
3, 82368, Note_on_c, 1, 57, 76
3, 82556, Note_off_c, 1, 64, 0
3, 82556, Note_off_c, 1, 62, 0
3, 82556, Note_off_c, 1, 59, 0
3, 82556, Note_off_c, 1, 57, 0
3, 82560, Note_on_c, 1, 62, 76
3, 82560, Note_on_c, 1, 59, 76
3, 82560, Note_on_c, 1, 57, 76
3, 82560, Note_on_c, 1, 64, 76
3, 82748, Note_off_c, 1, 62, 0
3, 82748, Note_off_c, 1, 59, 0
3, 82748, Note_off_c, 1, 57, 0
3, 82748, Note_off_c, 1, 64, 0
3, 82752, Note_on_c, 1, 64, 76
3, 82752, Note_on_c, 1, 62, 76
3, 82752, Note_on_c, 1, 59, 76
3, 82752, Note_on_c, 1, 57, 76
3, 82940, Note_off_c, 1, 64, 0
3, 82940, Note_off_c, 1, 62, 0
3, 82940, Note_off_c, 1, 59, 0
3, 82940, Note_off_c, 1, 57, 0
3, 82944, Note_on_c, 1, 64, 90
3, 82944, Note_on_c, 1, 60, 90
3, 82944, Note_on_c, 1, 57, 90
3, 83132, Note_off_c, 1, 64, 0
3, 83132, Note_off_c, 1, 60, 0
3, 83132, Note_off_c, 1, 57, 0
3, 83136, Note_on_c, 1, 57, 90
3, 83324, Note_off_c, 1, 57, 0
3, 83328, Note_on_c, 1, 52, 90
3, 83516, Note_off_c, 1, 52, 0
3, 83520, Note_on_c, 1, 48, 90
3, 83708, Note_off_c, 1, 48, 0
3, 83712, Note_on_c, 1, 45, 90
3, 84092, Note_off_c, 1, 45, 0
3, 84864, Note_on_c, 1, 62, 90
3, 84864, Note_on_c, 1, 60, 90
3, 84864, Note_on_c, 1, 53, 90
3, 84864, Note_on_c, 1, 57, 90
3, 85244, Note_off_c, 1, 62, 0
3, 85244, Note_off_c, 1, 60, 0
3, 85244, Note_off_c, 1, 53, 0
3, 85244, Note_off_c, 1, 57, 0
3, 85248, Note_on_c, 1, 62, 90
3, 85248, Note_on_c, 1, 59, 90
3, 85248, Note_on_c, 1, 55, 90
3, 85436, Note_off_c, 1, 62, 0
3, 85436, Note_off_c, 1, 59, 0
3, 85436, Note_off_c, 1, 55, 0
3, 86400, Note_on_c, 1, 60, 90
3, 86400, Note_on_c, 1, 59, 90
3, 86400, Note_on_c, 1, 55, 90
3, 86400, Note_on_c, 1, 52, 90
3, 86780, Note_off_c, 1, 60, 0
3, 86780, Note_off_c, 1, 59, 0
3, 86780, Note_off_c, 1, 55, 0
3, 86780, Note_off_c, 1, 52, 0
3, 86784, Note_on_c, 1, 60, 90
3, 86784, Note_on_c, 1, 57, 90
3, 86784, Note_on_c, 1, 53, 90
3, 86972, Note_off_c, 1, 60, 0
3, 86972, Note_off_c, 1, 57, 0
3, 86972, Note_off_c, 1, 53, 0
3, 87936, Note_on_c, 1, 59, 76
3, 87936, Note_on_c, 1, 53, 76
3, 87936, Note_on_c, 1, 50, 76
3, 88316, Note_off_c, 1, 59, 0
3, 88316, Note_off_c, 1, 53, 0
3, 88316, Note_off_c, 1, 50, 0
3, 88320, Note_on_c, 1, 60, 76
3, 88320, Note_on_c, 1, 57, 76
3, 88320, Note_on_c, 1, 52, 76
3, 88700, Note_off_c, 1, 60, 0
3, 88700, Note_off_c, 1, 57, 0
3, 88700, Note_off_c, 1, 52, 0
3, 88704, Note_on_c, 1, 64, 76
3, 88704, Note_on_c, 1, 56, 76
3, 88704, Note_on_c, 1, 52, 76
3, 89084, Note_off_c, 1, 64, 0
3, 89084, Note_off_c, 1, 56, 0
3, 89084, Note_off_c, 1, 52, 0
3, 89088, Note_on_c, 1, 64, 90
3, 89088, Note_on_c, 1, 60, 90
3, 89088, Note_on_c, 1, 57, 90
3, 89276, Note_off_c, 1, 64, 0
3, 89276, Note_off_c, 1, 60, 0
3, 89276, Note_off_c, 1, 57, 0
3, 89280, Note_on_c, 1, 64, 90
3, 89280, Note_on_c, 1, 60, 90
3, 89280, Note_on_c, 1, 57, 90
3, 89468, Note_off_c, 1, 64, 0
3, 89468, Note_off_c, 1, 60, 0
3, 89468, Note_off_c, 1, 57, 0
3, 89472, Note_on_c, 1, 64, 90
3, 89472, Note_on_c, 1, 60, 90
3, 89472, Note_on_c, 1, 57, 90
3, 89660, Note_off_c, 1, 64, 0
3, 89660, Note_off_c, 1, 60, 0
3, 89660, Note_off_c, 1, 57, 0
3, 89664, Note_on_c, 1, 64, 90
3, 89664, Note_on_c, 1, 60, 90
3, 89664, Note_on_c, 1, 57, 90
3, 89852, Note_off_c, 1, 64, 0
3, 89852, Note_off_c, 1, 60, 0
3, 89852, Note_off_c, 1, 57, 0
3, 89856, Note_on_c, 1, 64, 90
3, 89856, Note_on_c, 1, 60, 90
3, 89856, Note_on_c, 1, 57, 90
3, 90044, Note_off_c, 1, 64, 0
3, 90044, Note_off_c, 1, 60, 0
3, 90044, Note_off_c, 1, 57, 0
3, 90048, Note_on_c, 1, 64, 90
3, 90048, Note_on_c, 1, 60, 90
3, 90048, Note_on_c, 1, 57, 90
3, 90236, Note_off_c, 1, 64, 0
3, 90236, Note_off_c, 1, 60, 0
3, 90236, Note_off_c, 1, 57, 0
3, 90240, Note_on_c, 1, 64, 90
3, 90240, Note_on_c, 1, 60, 90
3, 90240, Note_on_c, 1, 57, 90
3, 90428, Note_off_c, 1, 64, 0
3, 90428, Note_off_c, 1, 60, 0
3, 90428, Note_off_c, 1, 57, 0
3, 90432, Note_on_c, 1, 64, 90
3, 90432, Note_on_c, 1, 60, 90
3, 90432, Note_on_c, 1, 57, 90
3, 90620, Note_off_c, 1, 64, 0
3, 90620, Note_off_c, 1, 60, 0
3, 90620, Note_off_c, 1, 57, 0
3, 90624, Note_on_c, 1, 59, 82
3, 90624, Note_on_c, 1, 57, 82
3, 90624, Note_on_c, 1, 64, 82
3, 90624, Note_on_c, 1, 62, 82
3, 90812, Note_off_c, 1, 59, 0
3, 90812, Note_off_c, 1, 57, 0
3, 90812, Note_off_c, 1, 64, 0
3, 90812, Note_off_c, 1, 62, 0
3, 90816, Note_on_c, 1, 59, 82
3, 90816, Note_on_c, 1, 57, 82
3, 90816, Note_on_c, 1, 62, 82
3, 90816, Note_on_c, 1, 64, 82
3, 91004, Note_off_c, 1, 59, 0
3, 91004, Note_off_c, 1, 57, 0
3, 91004, Note_off_c, 1, 62, 0
3, 91004, Note_off_c, 1, 64, 0
3, 91008, Note_on_c, 1, 57, 82
3, 91008, Note_on_c, 1, 64, 82
3, 91008, Note_on_c, 1, 62, 82
3, 91008, Note_on_c, 1, 59, 82
3, 91196, Note_off_c, 1, 57, 0
3, 91196, Note_off_c, 1, 64, 0
3, 91196, Note_off_c, 1, 62, 0
3, 91196, Note_off_c, 1, 59, 0
3, 91200, Note_on_c, 1, 57, 82
3, 91200, Note_on_c, 1, 64, 82
3, 91200, Note_on_c, 1, 62, 82
3, 91200, Note_on_c, 1, 59, 82
3, 91388, Note_off_c, 1, 57, 0
3, 91388, Note_off_c, 1, 64, 0
3, 91388, Note_off_c, 1, 62, 0
3, 91388, Note_off_c, 1, 59, 0
3, 91392, Note_on_c, 1, 59, 82
3, 91392, Note_on_c, 1, 64, 82
3, 91392, Note_on_c, 1, 62, 82
3, 91392, Note_on_c, 1, 57, 82
3, 91580, Note_off_c, 1, 59, 0
3, 91580, Note_off_c, 1, 64, 0
3, 91580, Note_off_c, 1, 62, 0
3, 91580, Note_off_c, 1, 57, 0
3, 91584, Note_on_c, 1, 59, 82
3, 91584, Note_on_c, 1, 57, 82
3, 91584, Note_on_c, 1, 64, 82
3, 91584, Note_on_c, 1, 62, 82
3, 91772, Note_off_c, 1, 59, 0
3, 91772, Note_off_c, 1, 57, 0
3, 91772, Note_off_c, 1, 64, 0
3, 91772, Note_off_c, 1, 62, 0
3, 91776, Note_on_c, 1, 64, 82
3, 91776, Note_on_c, 1, 62, 82
3, 91776, Note_on_c, 1, 59, 82
3, 91776, Note_on_c, 1, 57, 82
3, 91964, Note_off_c, 1, 64, 0
3, 91964, Note_off_c, 1, 62, 0
3, 91964, Note_off_c, 1, 59, 0
3, 91964, Note_off_c, 1, 57, 0
3, 91968, Note_on_c, 1, 57, 82
3, 91968, Note_on_c, 1, 64, 82
3, 91968, Note_on_c, 1, 62, 82
3, 91968, Note_on_c, 1, 59, 82
3, 92156, Note_off_c, 1, 57, 0
3, 92156, Note_off_c, 1, 64, 0
3, 92156, Note_off_c, 1, 62, 0
3, 92156, Note_off_c, 1, 59, 0
3, 92160, Note_on_c, 1, 64, 76
3, 92160, Note_on_c, 1, 60, 76
3, 92160, Note_on_c, 1, 57, 76
3, 92348, Note_off_c, 1, 64, 0
3, 92348, Note_off_c, 1, 60, 0
3, 92348, Note_off_c, 1, 57, 0
3, 92352, Note_on_c, 1, 64, 76
3, 92352, Note_on_c, 1, 60, 76
3, 92352, Note_on_c, 1, 57, 76
3, 92540, Note_off_c, 1, 64, 0
3, 92540, Note_off_c, 1, 60, 0
3, 92540, Note_off_c, 1, 57, 0
3, 92544, Note_on_c, 1, 64, 76
3, 92544, Note_on_c, 1, 60, 76
3, 92544, Note_on_c, 1, 57, 76
3, 92732, Note_off_c, 1, 64, 0
3, 92732, Note_off_c, 1, 60, 0
3, 92732, Note_off_c, 1, 57, 0
3, 92736, Note_on_c, 1, 64, 76
3, 92736, Note_on_c, 1, 60, 76
3, 92736, Note_on_c, 1, 57, 76
3, 92924, Note_off_c, 1, 64, 0
3, 92924, Note_off_c, 1, 60, 0
3, 92924, Note_off_c, 1, 57, 0
3, 92928, Note_on_c, 1, 64, 76
3, 92928, Note_on_c, 1, 60, 76
3, 92928, Note_on_c, 1, 57, 76
3, 93116, Note_off_c, 1, 64, 0
3, 93116, Note_off_c, 1, 60, 0
3, 93116, Note_off_c, 1, 57, 0
3, 93120, Note_on_c, 1, 64, 76
3, 93120, Note_on_c, 1, 60, 76
3, 93120, Note_on_c, 1, 57, 76
3, 93308, Note_off_c, 1, 64, 0
3, 93308, Note_off_c, 1, 60, 0
3, 93308, Note_off_c, 1, 57, 0
3, 93312, Note_on_c, 1, 64, 76
3, 93312, Note_on_c, 1, 60, 76
3, 93312, Note_on_c, 1, 57, 76
3, 93500, Note_off_c, 1, 64, 0
3, 93500, Note_off_c, 1, 60, 0
3, 93500, Note_off_c, 1, 57, 0
3, 93504, Note_on_c, 1, 64, 76
3, 93504, Note_on_c, 1, 60, 76
3, 93504, Note_on_c, 1, 57, 76
3, 93692, Note_off_c, 1, 64, 0
3, 93692, Note_off_c, 1, 60, 0
3, 93692, Note_off_c, 1, 57, 0
3, 93696, Note_on_c, 1, 64, 76
3, 93696, Note_on_c, 1, 60, 76
3, 93696, Note_on_c, 1, 58, 76
3, 93696, Note_on_c, 1, 55, 76
3, 93884, Note_off_c, 1, 64, 0
3, 93884, Note_off_c, 1, 60, 0
3, 93884, Note_off_c, 1, 58, 0
3, 93884, Note_off_c, 1, 55, 0
3, 93888, Note_on_c, 1, 64, 76
3, 93888, Note_on_c, 1, 60, 76
3, 93888, Note_on_c, 1, 58, 76
3, 93888, Note_on_c, 1, 55, 76
3, 94076, Note_off_c, 1, 64, 0
3, 94076, Note_off_c, 1, 60, 0
3, 94076, Note_off_c, 1, 58, 0
3, 94076, Note_off_c, 1, 55, 0
3, 94080, Note_on_c, 1, 60, 76
3, 94080, Note_on_c, 1, 58, 76
3, 94080, Note_on_c, 1, 55, 76
3, 94080, Note_on_c, 1, 64, 76
3, 94268, Note_off_c, 1, 60, 0
3, 94268, Note_off_c, 1, 58, 0
3, 94268, Note_off_c, 1, 55, 0
3, 94268, Note_off_c, 1, 64, 0
3, 94272, Note_on_c, 1, 60, 76
3, 94272, Note_on_c, 1, 58, 76
3, 94272, Note_on_c, 1, 55, 76
3, 94272, Note_on_c, 1, 64, 76
3, 94460, Note_off_c, 1, 60, 0
3, 94460, Note_off_c, 1, 58, 0
3, 94460, Note_off_c, 1, 55, 0
3, 94460, Note_off_c, 1, 64, 0
3, 94464, Note_on_c, 1, 64, 76
3, 94464, Note_on_c, 1, 60, 76
3, 94464, Note_on_c, 1, 58, 76
3, 94464, Note_on_c, 1, 55, 76
3, 94652, Note_off_c, 1, 64, 0
3, 94652, Note_off_c, 1, 60, 0
3, 94652, Note_off_c, 1, 58, 0
3, 94652, Note_off_c, 1, 55, 0
3, 94656, Note_on_c, 1, 64, 76
3, 94656, Note_on_c, 1, 58, 76
3, 94656, Note_on_c, 1, 55, 76
3, 94656, Note_on_c, 1, 60, 76
3, 94844, Note_off_c, 1, 64, 0
3, 94844, Note_off_c, 1, 58, 0
3, 94844, Note_off_c, 1, 55, 0
3, 94844, Note_off_c, 1, 60, 0
3, 94848, Note_on_c, 1, 64, 76
3, 94848, Note_on_c, 1, 60, 76
3, 94848, Note_on_c, 1, 58, 76
3, 94848, Note_on_c, 1, 55, 76
3, 95036, Note_off_c, 1, 64, 0
3, 95036, Note_off_c, 1, 60, 0
3, 95036, Note_off_c, 1, 58, 0
3, 95036, Note_off_c, 1, 55, 0
3, 95040, Note_on_c, 1, 64, 76
3, 95040, Note_on_c, 1, 60, 76
3, 95040, Note_on_c, 1, 58, 76
3, 95040, Note_on_c, 1, 55, 76
3, 95228, Note_off_c, 1, 64, 0
3, 95228, Note_off_c, 1, 60, 0
3, 95228, Note_off_c, 1, 58, 0
3, 95228, Note_off_c, 1, 55, 0
3, 95232, Note_on_c, 1, 65, 76
3, 95232, Note_on_c, 1, 60, 76
3, 95232, Note_on_c, 1, 53, 76
3, 95420, Note_off_c, 1, 65, 0
3, 95420, Note_off_c, 1, 60, 0
3, 95420, Note_off_c, 1, 53, 0
3, 95424, Note_on_c, 1, 65, 76
3, 95424, Note_on_c, 1, 60, 76
3, 95424, Note_on_c, 1, 53, 76
3, 95612, Note_off_c, 1, 65, 0
3, 95612, Note_off_c, 1, 60, 0
3, 95612, Note_off_c, 1, 53, 0
3, 95616, Note_on_c, 1, 62, 76
3, 95616, Note_on_c, 1, 57, 76
3, 95616, Note_on_c, 1, 53, 76
3, 95804, Note_off_c, 1, 62, 0
3, 95804, Note_off_c, 1, 57, 0
3, 95804, Note_off_c, 1, 53, 0
3, 95808, Note_on_c, 1, 62, 76
3, 95808, Note_on_c, 1, 57, 76
3, 95808, Note_on_c, 1, 53, 76
3, 95996, Note_off_c, 1, 62, 0
3, 95996, Note_off_c, 1, 57, 0
3, 95996, Note_off_c, 1, 53, 0
3, 96000, Note_on_c, 1, 57, 76
3, 96000, Note_on_c, 1, 55, 76
3, 96000, Note_on_c, 1, 52, 76
3, 96188, Note_off_c, 1, 57, 0
3, 96188, Note_off_c, 1, 55, 0
3, 96188, Note_off_c, 1, 52, 0
3, 96192, Note_on_c, 1, 57, 76
3, 96192, Note_on_c, 1, 55, 76
3, 96192, Note_on_c, 1, 52, 76
3, 96380, Note_off_c, 1, 57, 0
3, 96380, Note_off_c, 1, 55, 0
3, 96380, Note_off_c, 1, 52, 0
3, 96384, Note_on_c, 1, 60, 76
3, 96384, Note_on_c, 1, 57, 76
3, 96384, Note_on_c, 1, 52, 76
3, 96572, Note_off_c, 1, 60, 0
3, 96572, Note_off_c, 1, 57, 0
3, 96572, Note_off_c, 1, 52, 0
3, 96576, Note_on_c, 1, 60, 76
3, 96576, Note_on_c, 1, 57, 76
3, 96576, Note_on_c, 1, 52, 76
3, 96764, Note_off_c, 1, 60, 0
3, 96764, Note_off_c, 1, 57, 0
3, 96764, Note_off_c, 1, 52, 0
3, 96768, Note_on_c, 1, 62, 76
3, 96768, Note_on_c, 1, 57, 76
3, 96768, Note_on_c, 1, 50, 76
3, 97148, Note_off_c, 1, 62, 0
3, 97148, Note_off_c, 1, 57, 0
3, 97148, Note_off_c, 1, 50, 0
3, 97152, Note_on_c, 1, 55, 76
3, 97152, Note_on_c, 1, 50, 76
3, 97152, Note_on_c, 1, 47, 76
3, 97532, Note_off_c, 1, 55, 0
3, 97532, Note_off_c, 1, 50, 0
3, 97532, Note_off_c, 1, 47, 0
3, 97536, Note_on_c, 1, 55, 76
3, 97536, Note_on_c, 1, 48, 76
3, 97916, Note_off_c, 1, 55, 0
3, 97916, Note_off_c, 1, 48, 0
3, 97920, Note_on_c, 1, 60, 76
3, 97920, Note_on_c, 1, 57, 76
3, 98300, Note_off_c, 1, 60, 0
3, 98300, Note_off_c, 1, 57, 0
3, 98304, Note_on_c, 1, 53, 57
3, 98492, Note_off_c, 1, 53, 0
3, 98496, Note_on_c, 1, 57, 57
3, 98684, Note_off_c, 1, 57, 0
3, 98688, Note_on_c, 1, 53, 57
3, 98876, Note_off_c, 1, 53, 0
3, 98880, Note_on_c, 1, 57, 57
3, 99068, Note_off_c, 1, 57, 0
3, 99072, Note_on_c, 1, 53, 57
3, 99260, Note_off_c, 1, 53, 0
3, 99264, Note_on_c, 1, 57, 57
3, 99452, Note_off_c, 1, 57, 0
3, 99456, Note_on_c, 1, 54, 57
3, 99644, Note_off_c, 1, 54, 0
3, 99648, Note_on_c, 1, 57, 57
3, 99836, Note_off_c, 1, 57, 0
3, 99840, Note_on_c, 1, 55, 90
3, 99932, Note_off_c, 1, 55, 0
3, 99936, Note_on_c, 1, 62, 90
3, 100028, Note_off_c, 1, 62, 0
3, 100032, Note_on_c, 1, 59, 90
3, 100124, Note_off_c, 1, 59, 0
3, 100128, Note_on_c, 1, 62, 90
3, 100220, Note_off_c, 1, 62, 0
3, 100224, Note_on_c, 1, 55, 90
3, 100316, Note_off_c, 1, 55, 0
3, 100320, Note_on_c, 1, 62, 90
3, 100412, Note_off_c, 1, 62, 0
3, 100416, Note_on_c, 1, 59, 90
3, 100508, Note_off_c, 1, 59, 0
3, 100512, Note_on_c, 1, 62, 90
3, 100604, Note_off_c, 1, 62, 0
3, 100608, Note_on_c, 1, 55, 90
3, 100700, Note_off_c, 1, 55, 0
3, 100704, Note_on_c, 1, 63, 90
3, 100796, Note_off_c, 1, 63, 0
3, 100800, Note_on_c, 1, 60, 90
3, 100892, Note_off_c, 1, 60, 0
3, 100896, Note_on_c, 1, 63, 90
3, 100988, Note_off_c, 1, 63, 0
3, 100992, Note_on_c, 1, 55, 90
3, 101084, Note_off_c, 1, 55, 0
3, 101088, Note_on_c, 1, 65, 90
3, 101180, Note_off_c, 1, 65, 0
3, 101184, Note_on_c, 1, 62, 90
3, 101276, Note_off_c, 1, 62, 0
3, 101280, Note_on_c, 1, 65, 90
3, 101372, Note_off_c, 1, 65, 0
3, 101376, Note_on_c, 1, 55, 76
3, 101468, Note_off_c, 1, 55, 0
3, 101472, Note_on_c, 1, 63, 76
3, 101564, Note_off_c, 1, 63, 0
3, 101568, Note_on_c, 1, 60, 76
3, 101660, Note_off_c, 1, 60, 0
3, 101664, Note_on_c, 1, 63, 76
3, 101756, Note_off_c, 1, 63, 0
3, 101760, Note_on_c, 1, 55, 76
3, 101852, Note_off_c, 1, 55, 0
3, 101856, Note_on_c, 1, 63, 76
3, 101948, Note_off_c, 1, 63, 0
3, 101952, Note_on_c, 1, 60, 76
3, 102044, Note_off_c, 1, 60, 0
3, 102048, Note_on_c, 1, 63, 76
3, 102140, Note_off_c, 1, 63, 0
3, 102144, Note_on_c, 1, 55, 76
3, 102236, Note_off_c, 1, 55, 0
3, 102240, Note_on_c, 1, 63, 76
3, 102332, Note_off_c, 1, 63, 0
3, 102336, Note_on_c, 1, 60, 76
3, 102428, Note_off_c, 1, 60, 0
3, 102432, Note_on_c, 1, 63, 76
3, 102524, Note_off_c, 1, 63, 0
3, 102528, Note_on_c, 1, 55, 76
3, 102620, Note_off_c, 1, 55, 0
3, 102624, Note_on_c, 1, 63, 76
3, 102716, Note_off_c, 1, 63, 0
3, 102720, Note_on_c, 1, 60, 76
3, 102812, Note_off_c, 1, 60, 0
3, 102816, Note_on_c, 1, 63, 76
3, 102908, Note_off_c, 1, 63, 0
3, 102912, Note_on_c, 1, 55, 76
3, 103004, Note_off_c, 1, 55, 0
3, 103008, Note_on_c, 1, 62, 76
3, 103100, Note_off_c, 1, 62, 0
3, 103104, Note_on_c, 1, 59, 76
3, 103196, Note_off_c, 1, 59, 0
3, 103200, Note_on_c, 1, 62, 76
3, 103292, Note_off_c, 1, 62, 0
3, 103296, Note_on_c, 1, 55, 76
3, 103388, Note_off_c, 1, 55, 0
3, 103392, Note_on_c, 1, 62, 76
3, 103484, Note_off_c, 1, 62, 0
3, 103488, Note_on_c, 1, 59, 76
3, 103580, Note_off_c, 1, 59, 0
3, 103584, Note_on_c, 1, 62, 76
3, 103676, Note_off_c, 1, 62, 0
3, 103680, Note_on_c, 1, 55, 76
3, 103772, Note_off_c, 1, 55, 0
3, 103776, Note_on_c, 1, 63, 76
3, 103868, Note_off_c, 1, 63, 0
3, 103872, Note_on_c, 1, 60, 76
3, 103964, Note_off_c, 1, 60, 0
3, 103968, Note_on_c, 1, 63, 76
3, 104060, Note_off_c, 1, 63, 0
3, 104064, Note_on_c, 1, 55, 76
3, 104156, Note_off_c, 1, 55, 0
3, 104160, Note_on_c, 1, 65, 76
3, 104252, Note_off_c, 1, 65, 0
3, 104256, Note_on_c, 1, 62, 76
3, 104348, Note_off_c, 1, 62, 0
3, 104352, Note_on_c, 1, 65, 76
3, 104444, Note_off_c, 1, 65, 0
3, 104448, Note_on_c, 1, 55, 76
3, 104540, Note_off_c, 1, 55, 0
3, 104544, Note_on_c, 1, 63, 76
3, 104636, Note_off_c, 1, 63, 0
3, 104640, Note_on_c, 1, 60, 76
3, 104732, Note_off_c, 1, 60, 0
3, 104736, Note_on_c, 1, 63, 76
3, 104828, Note_off_c, 1, 63, 0
3, 104832, Note_on_c, 1, 55, 76
3, 104924, Note_off_c, 1, 55, 0
3, 104928, Note_on_c, 1, 63, 76
3, 105020, Note_off_c, 1, 63, 0
3, 105024, Note_on_c, 1, 60, 76
3, 105116, Note_off_c, 1, 60, 0
3, 105120, Note_on_c, 1, 63, 76
3, 105212, Note_off_c, 1, 63, 0
3, 105216, Note_on_c, 1, 55, 76
3, 105308, Note_off_c, 1, 55, 0
3, 105312, Note_on_c, 1, 63, 76
3, 105404, Note_off_c, 1, 63, 0
3, 105408, Note_on_c, 1, 60, 76
3, 105500, Note_off_c, 1, 60, 0
3, 105504, Note_on_c, 1, 63, 76
3, 105596, Note_off_c, 1, 63, 0
3, 105600, Note_on_c, 1, 55, 76
3, 105692, Note_off_c, 1, 55, 0
3, 105696, Note_on_c, 1, 63, 76
3, 105788, Note_off_c, 1, 63, 0
3, 105792, Note_on_c, 1, 60, 76
3, 105884, Note_off_c, 1, 60, 0
3, 105888, Note_on_c, 1, 63, 76
3, 105980, Note_off_c, 1, 63, 0
3, 105984, Note_on_c, 1, 62, 90
3, 105984, Note_on_c, 1, 59, 90
3, 105984, Note_on_c, 1, 55, 90
3, 106364, Note_off_c, 1, 62, 0
3, 106364, Note_off_c, 1, 59, 0
3, 106364, Note_off_c, 1, 55, 0
3, 106560, Note_on_c, 1, 48, 90
3, 106560, Note_on_c, 1, 60, 90
3, 106748, Note_off_c, 1, 48, 0
3, 106748, Note_off_c, 1, 60, 0
3, 106752, Note_on_c, 1, 55, 90
3, 106752, Note_on_c, 1, 43, 90
3, 107132, Note_off_c, 1, 55, 0
3, 107132, Note_off_c, 1, 43, 0
3, 107328, Note_on_c, 1, 60, 90
3, 107328, Note_on_c, 1, 48, 90
3, 107516, Note_off_c, 1, 60, 0
3, 107516, Note_off_c, 1, 48, 0
3, 107520, Note_on_c, 1, 55, 90
3, 107520, Note_on_c, 1, 43, 90
3, 107900, Note_off_c, 1, 55, 0
3, 107900, Note_off_c, 1, 43, 0
3, 108096, Note_on_c, 1, 60, 90
3, 108096, Note_on_c, 1, 48, 90
3, 108284, Note_off_c, 1, 60, 0
3, 108284, Note_off_c, 1, 48, 0
3, 108288, Note_on_c, 1, 55, 90
3, 108288, Note_on_c, 1, 43, 90
3, 108476, Note_off_c, 1, 55, 0
3, 108476, Note_off_c, 1, 43, 0
3, 108480, Note_on_c, 1, 60, 90
3, 108480, Note_on_c, 1, 48, 90
3, 108668, Note_off_c, 1, 60, 0
3, 108668, Note_off_c, 1, 48, 0
3, 108672, Note_on_c, 1, 55, 90
3, 108672, Note_on_c, 1, 43, 90
3, 108860, Note_off_c, 1, 55, 0
3, 108860, Note_off_c, 1, 43, 0
3, 108864, Note_on_c, 1, 60, 90
3, 108864, Note_on_c, 1, 48, 90
3, 109052, Note_off_c, 1, 60, 0
3, 109052, Note_off_c, 1, 48, 0
3, 109056, Note_on_c, 1, 55, 90
3, 109056, Note_on_c, 1, 43, 90
3, 109436, Note_off_c, 1, 55, 0
3, 109436, Note_off_c, 1, 43, 0
3, 109440, Note_on_c, 1, 31, 90
3, 109440, Note_on_c, 1, 43, 90
3, 109820, Note_off_c, 1, 31, 0
3, 109820, Note_off_c, 1, 43, 0
3, 109824, Note_on_c, 1, 43, 90
3, 109824, Note_on_c, 1, 31, 90
3, 110204, Note_off_c, 1, 43, 0
3, 110204, Note_off_c, 1, 31, 0
3, 113664, Note_on_c, 1, 65, 76
3, 113664, Note_on_c, 1, 62, 76
3, 113664, Note_on_c, 1, 55, 76
3, 113852, Note_off_c, 1, 65, 0
3, 113852, Note_off_c, 1, 62, 0
3, 113852, Note_off_c, 1, 55, 0
3, 113856, Note_on_c, 1, 65, 76
3, 113856, Note_on_c, 1, 62, 76
3, 113856, Note_on_c, 1, 55, 76
3, 114044, Note_off_c, 1, 65, 0
3, 114044, Note_off_c, 1, 62, 0
3, 114044, Note_off_c, 1, 55, 0
3, 114048, Note_on_c, 1, 65, 76
3, 114048, Note_on_c, 1, 62, 76
3, 114048, Note_on_c, 1, 55, 76
3, 114236, Note_off_c, 1, 65, 0
3, 114236, Note_off_c, 1, 62, 0
3, 114236, Note_off_c, 1, 55, 0
3, 114240, Note_on_c, 1, 65, 76
3, 114240, Note_on_c, 1, 62, 76
3, 114240, Note_on_c, 1, 55, 76
3, 114428, Note_off_c, 1, 65, 0
3, 114428, Note_off_c, 1, 62, 0
3, 114428, Note_off_c, 1, 55, 0
3, 114432, Note_on_c, 1, 65, 76
3, 114432, Note_on_c, 1, 62, 76
3, 114432, Note_on_c, 1, 55, 76
3, 114812, Note_off_c, 1, 65, 0
3, 114812, Note_off_c, 1, 62, 0
3, 114812, Note_off_c, 1, 55, 0
3, 115200, Note_on_c, 1, 60, 76
3, 115580, Note_off_c, 1, 60, 0
3, 116736, Note_on_c, 1, 60, 57
3, 116736, Note_on_c, 1, 52, 57
3, 116924, Note_off_c, 1, 60, 0
3, 116924, Note_off_c, 1, 52, 0
3, 116928, Note_on_c, 1, 60, 57
3, 116928, Note_on_c, 1, 52, 57
3, 117116, Note_off_c, 1, 60, 0
3, 117116, Note_off_c, 1, 52, 0
3, 117120, Note_on_c, 1, 60, 57
3, 117120, Note_on_c, 1, 52, 57
3, 117308, Note_off_c, 1, 60, 0
3, 117308, Note_off_c, 1, 52, 0
3, 117312, Note_on_c, 1, 60, 57
3, 117312, Note_on_c, 1, 52, 57
3, 117500, Note_off_c, 1, 60, 0
3, 117500, Note_off_c, 1, 52, 0
3, 117504, Note_on_c, 1, 60, 57
3, 117504, Note_on_c, 1, 52, 57
3, 117884, Note_off_c, 1, 60, 0
3, 117884, Note_off_c, 1, 52, 0
3, 118272, Note_on_c, 1, 53, 76
3, 118656, Note_on_c, 1, 57, 76
3, 119036, Note_off_c, 1, 57, 0
3, 119040, Note_on_c, 1, 62, 76
3, 119420, Note_off_c, 1, 53, 0
3, 119424, Note_on_c, 1, 53, 76
3, 119804, Note_off_c, 1, 62, 0
3, 119804, Note_off_c, 1, 53, 0
3, 119808, Note_on_c, 1, 62, 76
3, 119808, Note_on_c, 1, 52, 76
3, 120188, Note_off_c, 1, 62, 0
3, 120192, Note_on_c, 1, 55, 76
3, 120572, Note_off_c, 1, 55, 0
3, 120576, Note_on_c, 1, 60, 76
3, 120956, Note_off_c, 1, 52, 0
3, 120960, Note_on_c, 1, 52, 76
3, 121340, Note_off_c, 1, 60, 0
3, 121340, Note_off_c, 1, 52, 0
3, 121344, Note_on_c, 1, 60, 76
3, 121344, Note_on_c, 1, 50, 76
3, 121724, Note_off_c, 1, 60, 0
3, 121724, Note_off_c, 1, 50, 0
3, 121728, Note_on_c, 1, 57, 76
3, 121728, Note_on_c, 1, 53, 76
3, 122108, Note_off_c, 1, 57, 0
3, 122108, Note_off_c, 1, 53, 0
3, 122112, Note_on_c, 1, 55, 76
3, 122112, Note_on_c, 1, 55, 76
3, 122492, Note_off_c, 1, 55, 0
3, 122496, Note_on_c, 1, 47, 76
3, 122876, Note_off_c, 1, 47, 0
3, 122880, Note_on_c, 1, 48, 76
3, 123260, Note_off_c, 1, 55, 0
3, 123260, Note_off_c, 1, 48, 0
3, 123264, Note_on_c, 1, 55, 76
3, 123264, Note_on_c, 1, 50, 76
3, 123644, Note_off_c, 1, 50, 0
3, 123648, Note_on_c, 1, 52, 76
3, 124028, Note_off_c, 1, 55, 0
3, 124032, Note_on_c, 1, 60, 76
3, 124412, Note_off_c, 1, 52, 0
3, 124412, Note_off_c, 1, 60, 0
3, 124416, Note_on_c, 1, 60, 76
3, 124416, Note_on_c, 1, 53, 76
3, 124796, Note_off_c, 1, 60, 0
3, 124796, Note_off_c, 1, 53, 0
3, 125952, Note_on_c, 1, 53, 90
3, 126044, Note_off_c, 1, 53, 0
3, 126048, Note_on_c, 1, 62, 90
3, 126140, Note_off_c, 1, 62, 0
3, 126144, Note_on_c, 1, 57, 90
3, 126236, Note_off_c, 1, 57, 0
3, 126240, Note_on_c, 1, 62, 90
3, 126332, Note_off_c, 1, 62, 0
3, 126336, Note_on_c, 1, 53, 90
3, 126428, Note_off_c, 1, 53, 0
3, 126432, Note_on_c, 1, 62, 90
3, 126524, Note_off_c, 1, 62, 0
3, 126528, Note_on_c, 1, 57, 90
3, 126620, Note_off_c, 1, 57, 0
3, 126624, Note_on_c, 1, 62, 90
3, 126716, Note_off_c, 1, 62, 0
3, 126720, Note_on_c, 1, 53, 90
3, 126812, Note_off_c, 1, 53, 0
3, 126816, Note_on_c, 1, 62, 90
3, 126908, Note_off_c, 1, 62, 0
3, 126912, Note_on_c, 1, 57, 90
3, 127004, Note_off_c, 1, 57, 0
3, 127008, Note_on_c, 1, 62, 90
3, 127100, Note_off_c, 1, 62, 0
3, 127104, Note_on_c, 1, 53, 90
3, 127196, Note_off_c, 1, 53, 0
3, 127200, Note_on_c, 1, 62, 90
3, 127292, Note_off_c, 1, 62, 0
3, 127296, Note_on_c, 1, 57, 90
3, 127388, Note_off_c, 1, 57, 0
3, 127392, Note_on_c, 1, 62, 90
3, 127484, Note_off_c, 1, 62, 0
3, 127488, Note_on_c, 1, 55, 76
3, 127580, Note_off_c, 1, 55, 0
3, 127584, Note_on_c, 1, 64, 76
3, 127676, Note_off_c, 1, 64, 0
3, 127680, Note_on_c, 1, 60, 76
3, 127772, Note_off_c, 1, 60, 0
3, 127776, Note_on_c, 1, 64, 76
3, 127868, Note_off_c, 1, 64, 0
3, 127872, Note_on_c, 1, 55, 76
3, 127964, Note_off_c, 1, 55, 0
3, 127968, Note_on_c, 1, 64, 76
3, 128060, Note_off_c, 1, 64, 0
3, 128064, Note_on_c, 1, 60, 76
3, 128156, Note_off_c, 1, 60, 0
3, 128160, Note_on_c, 1, 64, 76
3, 128252, Note_off_c, 1, 64, 0
3, 128256, Note_on_c, 1, 55, 76
3, 128348, Note_off_c, 1, 55, 0
3, 128352, Note_on_c, 1, 65, 76
3, 128444, Note_off_c, 1, 65, 0
3, 128448, Note_on_c, 1, 59, 76
3, 128540, Note_off_c, 1, 59, 0
3, 128544, Note_on_c, 1, 65, 76
3, 128636, Note_off_c, 1, 65, 0
3, 128640, Note_on_c, 1, 55, 76
3, 128732, Note_off_c, 1, 55, 0
3, 128736, Note_on_c, 1, 65, 76
3, 128828, Note_off_c, 1, 65, 0
3, 128832, Note_on_c, 1, 59, 76
3, 128924, Note_off_c, 1, 59, 0
3, 128928, Note_on_c, 1, 65, 76
3, 129020, Note_off_c, 1, 65, 0
3, 129024, Note_on_c, 1, 64, 57
3, 129024, Note_on_c, 1, 60, 57
3, 129404, Note_off_c, 1, 64, 0
3, 129404, Note_off_c, 1, 60, 0
3, 132864, Note_on_c, 1, 52, 82
3, 132864, Note_on_c, 1, 60, 82
3, 133244, Note_off_c, 1, 60, 0
3, 133248, Note_on_c, 1, 55, 82
3, 133628, Note_off_c, 1, 52, 0
3, 133628, Note_off_c, 1, 55, 0
3, 133632, Note_on_c, 1, 57, 76
3, 133632, Note_on_c, 1, 53, 76
3, 134396, Note_off_c, 1, 57, 0
3, 134396, Note_off_c, 1, 53, 0
3, 134400, Note_on_c, 1, 59, 82
3, 134400, Note_on_c, 1, 55, 82
3, 134400, Note_on_c, 1, 53, 82
3, 135164, Note_off_c, 1, 59, 0
3, 135164, Note_off_c, 1, 55, 0
3, 135164, Note_off_c, 1, 53, 0
3, 135168, Note_on_c, 1, 60, 90
3, 135168, Note_on_c, 1, 55, 90
3, 135168, Note_on_c, 1, 52, 90
3, 135548, Note_off_c, 1, 60, 0
3, 135548, Note_off_c, 1, 55, 0
3, 135548, Note_off_c, 1, 52, 0
3, 135552, Note_on_c, 1, 53, 90
3, 135552, Note_on_c, 1, 60, 90
3, 135932, Note_off_c, 1, 53, 0
3, 135936, Note_on_c, 1, 55, 90
3, 136316, Note_off_c, 1, 60, 0
3, 136316, Note_off_c, 1, 55, 0
3, 136320, Note_on_c, 1, 59, 90
3, 136320, Note_on_c, 1, 55, 90
3, 136700, Note_off_c, 1, 59, 0
3, 136700, Note_off_c, 1, 55, 0
3, 139776, Note_on_c, 1, 64, 76
3, 139868, Note_off_c, 1, 64, 0
3, 139872, Note_on_c, 1, 65, 76
3, 139964, Note_off_c, 1, 65, 0
3, 139968, Note_on_c, 1, 62, 76
3, 140060, Note_off_c, 1, 62, 0
3, 140064, Note_on_c, 1, 64, 76
3, 140156, Note_off_c, 1, 64, 0
3, 140160, Note_on_c, 1, 60, 76
3, 140252, Note_off_c, 1, 60, 0
3, 140256, Note_on_c, 1, 62, 76
3, 140348, Note_off_c, 1, 62, 0
3, 140352, Note_on_c, 1, 59, 76
3, 140444, Note_off_c, 1, 59, 0
3, 140448, Note_on_c, 1, 60, 76
3, 140540, Note_off_c, 1, 60, 0
3, 140544, Note_on_c, 1, 57, 76
3, 140636, Note_off_c, 1, 57, 0
3, 140640, Note_on_c, 1, 59, 76
3, 140732, Note_off_c, 1, 59, 0
3, 140736, Note_on_c, 1, 55, 76
3, 140828, Note_off_c, 1, 55, 0
3, 140832, Note_on_c, 1, 57, 76
3, 140924, Note_off_c, 1, 57, 0
3, 140928, Note_on_c, 1, 53, 76
3, 141020, Note_off_c, 1, 53, 0
3, 141024, Note_on_c, 1, 55, 76
3, 141116, Note_off_c, 1, 55, 0
3, 141120, Note_on_c, 1, 52, 76
3, 141212, Note_off_c, 1, 52, 0
3, 141216, Note_on_c, 1, 53, 76
3, 141308, Note_off_c, 1, 53, 0
3, 141312, Note_on_c, 1, 50, 76
3, 141404, Note_off_c, 1, 50, 0
3, 141408, Note_on_c, 1, 52, 76
3, 141500, Note_off_c, 1, 52, 0
3, 141504, Note_on_c, 1, 48, 76
3, 141596, Note_off_c, 1, 48, 0
3, 141600, Note_on_c, 1, 50, 76
3, 141692, Note_off_c, 1, 50, 0
3, 141696, Note_on_c, 1, 47, 76
3, 141788, Note_off_c, 1, 47, 0
3, 141792, Note_on_c, 1, 48, 76
3, 141884, Note_off_c, 1, 48, 0
3, 141888, Note_on_c, 1, 45, 76
3, 141980, Note_off_c, 1, 45, 0
3, 141984, Note_on_c, 1, 47, 76
3, 142076, Note_off_c, 1, 47, 0
3, 142080, Note_on_c, 1, 43, 76
3, 142172, Note_off_c, 1, 43, 0
3, 142176, Note_on_c, 1, 45, 76
3, 142268, Note_off_c, 1, 45, 0
3, 142272, Note_on_c, 1, 41, 76
3, 142364, Note_off_c, 1, 41, 0
3, 142368, Note_on_c, 1, 43, 76
3, 142460, Note_off_c, 1, 43, 0
3, 142464, Note_on_c, 1, 40, 76
3, 142556, Note_off_c, 1, 40, 0
3, 142560, Note_on_c, 1, 41, 76
3, 142652, Note_off_c, 1, 41, 0
3, 142656, Note_on_c, 1, 38, 76
3, 142748, Note_off_c, 1, 38, 0
3, 142752, Note_on_c, 1, 41, 76
3, 142844, Note_off_c, 1, 41, 0
3, 142848, Note_on_c, 1, 40, 97
3, 142940, Note_off_c, 1, 40, 0
3, 143232, Note_on_c, 1, 41, 97
3, 143324, Note_off_c, 1, 41, 0
3, 143616, Note_on_c, 1, 43, 97
3, 143708, Note_off_c, 1, 43, 0
3, 144000, Note_on_c, 1, 31, 97
3, 144092, Note_off_c, 1, 31, 0
3, 144384, Note_on_c, 1, 60, 57
3, 144476, Note_off_c, 1, 60, 0
3, 144480, Note_on_c, 1, 62, 57
3, 144572, Note_off_c, 1, 62, 0
3, 144576, Note_on_c, 1, 64, 57
3, 144668, Note_off_c, 1, 64, 0
3, 144672, Note_on_c, 1, 62, 57
3, 144764, Note_off_c, 1, 62, 0
3, 144768, Note_on_c, 1, 60, 57
3, 144860, Note_off_c, 1, 60, 0
3, 144864, Note_on_c, 1, 59, 57
3, 144956, Note_off_c, 1, 59, 0
3, 144960, Note_on_c, 1, 57, 57
3, 145052, Note_off_c, 1, 57, 0
3, 145056, Note_on_c, 1, 55, 57
3, 145148, Note_off_c, 1, 55, 0
3, 145152, Note_on_c, 1, 57, 57
3, 145244, Note_off_c, 1, 57, 0
3, 145248, Note_on_c, 1, 59, 57
3, 145340, Note_off_c, 1, 59, 0
3, 145344, Note_on_c, 1, 60, 57
3, 145436, Note_off_c, 1, 60, 0
3, 145440, Note_on_c, 1, 59, 57
3, 145532, Note_off_c, 1, 59, 0
3, 145536, Note_on_c, 1, 57, 57
3, 145628, Note_off_c, 1, 57, 0
3, 145632, Note_on_c, 1, 55, 57
3, 145724, Note_off_c, 1, 55, 0
3, 145728, Note_on_c, 1, 53, 57
3, 145820, Note_off_c, 1, 53, 0
3, 145824, Note_on_c, 1, 52, 57
3, 145916, Note_off_c, 1, 52, 0
3, 145920, Note_on_c, 1, 53, 76
3, 146012, Note_off_c, 1, 53, 0
3, 146016, Note_on_c, 1, 55, 76
3, 146108, Note_off_c, 1, 55, 0
3, 146112, Note_on_c, 1, 57, 76
3, 146204, Note_off_c, 1, 57, 0
3, 146208, Note_on_c, 1, 55, 76
3, 146300, Note_off_c, 1, 55, 0
3, 146304, Note_on_c, 1, 53, 76
3, 146396, Note_off_c, 1, 53, 0
3, 146400, Note_on_c, 1, 50, 76
3, 146492, Note_off_c, 1, 50, 0
3, 146496, Note_on_c, 1, 52, 76
3, 146588, Note_off_c, 1, 52, 0
3, 146592, Note_on_c, 1, 53, 76
3, 146684, Note_off_c, 1, 53, 0
3, 146688, Note_on_c, 1, 55, 76
3, 146780, Note_off_c, 1, 55, 0
3, 146784, Note_on_c, 1, 54, 76
3, 146876, Note_off_c, 1, 54, 0
3, 146880, Note_on_c, 1, 55, 76
3, 146972, Note_off_c, 1, 55, 0
3, 146976, Note_on_c, 1, 54, 76
3, 147068, Note_off_c, 1, 54, 0
3, 147072, Note_on_c, 1, 55, 76
3, 147164, Note_off_c, 1, 55, 0
3, 147168, Note_on_c, 1, 53, 76
3, 147260, Note_off_c, 1, 53, 0
3, 147264, Note_on_c, 1, 52, 76
3, 147356, Note_off_c, 1, 52, 0
3, 147360, Note_on_c, 1, 50, 76
3, 147452, Note_off_c, 1, 50, 0
3, 147456, Note_on_c, 1, 48, 90
3, 147548, Note_off_c, 1, 48, 0
3, 147552, Note_on_c, 1, 50, 90
3, 147644, Note_off_c, 1, 50, 0
3, 147648, Note_on_c, 1, 52, 90
3, 147740, Note_off_c, 1, 52, 0
3, 147744, Note_on_c, 1, 50, 90
3, 147836, Note_off_c, 1, 50, 0
3, 147840, Note_on_c, 1, 48, 90
3, 147932, Note_off_c, 1, 48, 0
3, 147936, Note_on_c, 1, 47, 90
3, 148028, Note_off_c, 1, 47, 0
3, 148032, Note_on_c, 1, 45, 90
3, 148124, Note_off_c, 1, 45, 0
3, 148128, Note_on_c, 1, 44, 90
3, 148220, Note_off_c, 1, 44, 0
3, 148224, Note_on_c, 1, 45, 90
3, 148316, Note_off_c, 1, 45, 0
3, 148320, Note_on_c, 1, 47, 90
3, 148412, Note_off_c, 1, 47, 0
3, 148416, Note_on_c, 1, 48, 90
3, 148508, Note_off_c, 1, 48, 0
3, 148512, Note_on_c, 1, 47, 90
3, 148604, Note_off_c, 1, 47, 0
3, 148608, Note_on_c, 1, 45, 90
3, 148700, Note_off_c, 1, 45, 0
3, 148704, Note_on_c, 1, 43, 90
3, 148796, Note_off_c, 1, 43, 0
3, 148800, Note_on_c, 1, 41, 90
3, 148892, Note_off_c, 1, 41, 0
3, 148896, Note_on_c, 1, 40, 90
3, 148988, Note_off_c, 1, 40, 0
3, 148992, Note_on_c, 1, 41, 90
3, 149084, Note_off_c, 1, 41, 0
3, 149088, Note_on_c, 1, 43, 94
3, 149180, Note_off_c, 1, 43, 0
3, 149184, Note_on_c, 1, 45, 94
3, 149276, Note_off_c, 1, 45, 0
3, 149280, Note_on_c, 1, 43, 96
3, 149372, Note_off_c, 1, 43, 0
3, 149376, Note_on_c, 1, 41, 96
3, 149468, Note_off_c, 1, 41, 0
3, 149472, Note_on_c, 1, 38, 96
3, 149564, Note_off_c, 1, 38, 0
3, 149568, Note_on_c, 1, 40, 96
3, 149660, Note_off_c, 1, 40, 0
3, 149664, Note_on_c, 1, 41, 97
3, 149756, Note_off_c, 1, 41, 0
3, 149760, Note_on_c, 1, 43, 97
3, 149852, Note_off_c, 1, 43, 0
3, 149856, Note_on_c, 1, 42, 99
3, 149948, Note_off_c, 1, 42, 0
3, 149952, Note_on_c, 1, 43, 99
3, 150044, Note_off_c, 1, 43, 0
3, 150048, Note_on_c, 1, 42, 102
3, 150140, Note_off_c, 1, 42, 0
3, 150144, Note_on_c, 1, 43, 102
3, 150236, Note_off_c, 1, 43, 0
3, 150240, Note_on_c, 1, 41, 103
3, 150332, Note_off_c, 1, 41, 0
3, 150336, Note_on_c, 1, 40, 103
3, 150428, Note_off_c, 1, 40, 0
3, 150432, Note_on_c, 1, 38, 105
3, 150524, Note_off_c, 1, 38, 0
3, 150528, Note_on_c, 1, 36, 106
3, 150908, Note_off_c, 1, 36, 0
3, 150912, Note_on_c, 1, 48, 106
3, 150912, Note_on_c, 1, 36, 106
3, 151292, Note_off_c, 1, 48, 0
3, 151292, Note_off_c, 1, 36, 0
3, 151296, Note_on_c, 1, 48, 106
3, 151296, Note_on_c, 1, 36, 106
3, 151676, Note_off_c, 1, 48, 0
3, 151676, Note_off_c, 1, 36, 0
3, 152064, Note_on_c, 1, 55, 57
3, 152064, Note_on_c, 1, 52, 57
3, 152064, Note_on_c, 1, 48, 57
3, 152252, Note_off_c, 1, 55, 0
3, 152252, Note_off_c, 1, 52, 0
3, 152252, Note_off_c, 1, 48, 0
3, 152256, Note_on_c, 1, 55, 57
3, 152256, Note_on_c, 1, 52, 57
3, 152256, Note_on_c, 1, 48, 57
3, 152444, Note_off_c, 1, 55, 0
3, 152444, Note_off_c, 1, 52, 0
3, 152444, Note_off_c, 1, 48, 0
3, 152448, Note_on_c, 1, 55, 57
3, 152448, Note_on_c, 1, 52, 57
3, 152448, Note_on_c, 1, 48, 57
3, 152636, Note_off_c, 1, 55, 0
3, 152636, Note_off_c, 1, 52, 0
3, 152636, Note_off_c, 1, 48, 0
3, 152640, Note_on_c, 1, 55, 57
3, 152640, Note_on_c, 1, 52, 57
3, 152640, Note_on_c, 1, 48, 57
3, 152828, Note_off_c, 1, 55, 0
3, 152828, Note_off_c, 1, 52, 0
3, 152828, Note_off_c, 1, 48, 0
3, 152832, Note_on_c, 1, 55, 57
3, 152832, Note_on_c, 1, 52, 57
3, 152832, Note_on_c, 1, 48, 57
3, 153020, Note_off_c, 1, 55, 0
3, 153020, Note_off_c, 1, 52, 0
3, 153020, Note_off_c, 1, 48, 0
3, 153024, Note_on_c, 1, 55, 57
3, 153024, Note_on_c, 1, 52, 57
3, 153024, Note_on_c, 1, 48, 57
3, 153212, Note_off_c, 1, 55, 0
3, 153212, Note_off_c, 1, 52, 0
3, 153212, Note_off_c, 1, 48, 0
3, 153216, Note_on_c, 1, 55, 57
3, 153216, Note_on_c, 1, 52, 57
3, 153216, Note_on_c, 1, 48, 57
3, 153404, Note_off_c, 1, 55, 0
3, 153404, Note_off_c, 1, 52, 0
3, 153404, Note_off_c, 1, 48, 0
3, 153408, Note_on_c, 1, 55, 57
3, 153408, Note_on_c, 1, 52, 57
3, 153408, Note_on_c, 1, 48, 57
3, 153596, Note_off_c, 1, 55, 0
3, 153596, Note_off_c, 1, 52, 0
3, 153596, Note_off_c, 1, 48, 0
3, 153600, Note_on_c, 1, 55, 66
3, 153600, Note_on_c, 1, 53, 66
3, 153600, Note_on_c, 1, 50, 66
3, 153600, Note_on_c, 1, 48, 66
3, 153788, Note_off_c, 1, 55, 0
3, 153788, Note_off_c, 1, 53, 0
3, 153788, Note_off_c, 1, 50, 0
3, 153788, Note_off_c, 1, 48, 0
3, 153792, Note_on_c, 1, 55, 66
3, 153792, Note_on_c, 1, 50, 66
3, 153792, Note_on_c, 1, 48, 66
3, 153792, Note_on_c, 1, 53, 66
3, 153980, Note_off_c, 1, 55, 0
3, 153980, Note_off_c, 1, 50, 0
3, 153980, Note_off_c, 1, 48, 0
3, 153980, Note_off_c, 1, 53, 0
3, 153984, Note_on_c, 1, 55, 66
3, 153984, Note_on_c, 1, 53, 66
3, 153984, Note_on_c, 1, 50, 66
3, 153984, Note_on_c, 1, 48, 66
3, 154172, Note_off_c, 1, 55, 0
3, 154172, Note_off_c, 1, 53, 0
3, 154172, Note_off_c, 1, 50, 0
3, 154172, Note_off_c, 1, 48, 0
3, 154176, Note_on_c, 1, 55, 66
3, 154176, Note_on_c, 1, 53, 66
3, 154176, Note_on_c, 1, 50, 66
3, 154176, Note_on_c, 1, 48, 66
3, 154364, Note_off_c, 1, 55, 0
3, 154364, Note_off_c, 1, 53, 0
3, 154364, Note_off_c, 1, 50, 0
3, 154364, Note_off_c, 1, 48, 0
3, 154368, Note_on_c, 1, 55, 66
3, 154368, Note_on_c, 1, 53, 66
3, 154368, Note_on_c, 1, 50, 66
3, 154368, Note_on_c, 1, 48, 66
3, 154556, Note_off_c, 1, 55, 0
3, 154556, Note_off_c, 1, 53, 0
3, 154556, Note_off_c, 1, 50, 0
3, 154556, Note_off_c, 1, 48, 0
3, 154560, Note_on_c, 1, 55, 66
3, 154560, Note_on_c, 1, 53, 66
3, 154560, Note_on_c, 1, 50, 66
3, 154560, Note_on_c, 1, 48, 66
3, 154748, Note_off_c, 1, 55, 0
3, 154748, Note_off_c, 1, 53, 0
3, 154748, Note_off_c, 1, 50, 0
3, 154748, Note_off_c, 1, 48, 0
3, 154752, Note_on_c, 1, 55, 66
3, 154752, Note_on_c, 1, 48, 66
3, 154752, Note_on_c, 1, 50, 66
3, 154752, Note_on_c, 1, 53, 66
3, 154940, Note_off_c, 1, 55, 0
3, 154940, Note_off_c, 1, 48, 0
3, 154940, Note_off_c, 1, 50, 0
3, 154940, Note_off_c, 1, 53, 0
3, 154944, Note_on_c, 1, 55, 66
3, 154944, Note_on_c, 1, 53, 66
3, 154944, Note_on_c, 1, 50, 66
3, 154944, Note_on_c, 1, 48, 66
3, 155132, Note_off_c, 1, 55, 0
3, 155132, Note_off_c, 1, 53, 0
3, 155132, Note_off_c, 1, 50, 0
3, 155132, Note_off_c, 1, 48, 0
3, 155136, Note_on_c, 1, 55, 76
3, 155136, Note_on_c, 1, 52, 76
3, 155136, Note_on_c, 1, 48, 76
3, 155324, Note_off_c, 1, 55, 0
3, 155324, Note_off_c, 1, 52, 0
3, 155324, Note_off_c, 1, 48, 0
3, 155328, Note_on_c, 1, 55, 76
3, 155328, Note_on_c, 1, 52, 76
3, 155328, Note_on_c, 1, 48, 76
3, 155516, Note_off_c, 1, 55, 0
3, 155516, Note_off_c, 1, 52, 0
3, 155516, Note_off_c, 1, 48, 0
3, 155520, Note_on_c, 1, 55, 76
3, 155520, Note_on_c, 1, 52, 76
3, 155520, Note_on_c, 1, 48, 76
3, 155708, Note_off_c, 1, 55, 0
3, 155708, Note_off_c, 1, 52, 0
3, 155708, Note_off_c, 1, 48, 0
3, 155712, Note_on_c, 1, 55, 76
3, 155712, Note_on_c, 1, 52, 76
3, 155712, Note_on_c, 1, 48, 76
3, 155900, Note_off_c, 1, 55, 0
3, 155900, Note_off_c, 1, 52, 0
3, 155900, Note_off_c, 1, 48, 0
3, 155904, Note_on_c, 1, 55, 76
3, 155904, Note_on_c, 1, 52, 76
3, 155904, Note_on_c, 1, 48, 76
3, 156092, Note_off_c, 1, 55, 0
3, 156092, Note_off_c, 1, 52, 0
3, 156092, Note_off_c, 1, 48, 0
3, 156096, Note_on_c, 1, 55, 76
3, 156096, Note_on_c, 1, 52, 76
3, 156096, Note_on_c, 1, 48, 76
3, 156284, Note_off_c, 1, 55, 0
3, 156284, Note_off_c, 1, 52, 0
3, 156284, Note_off_c, 1, 48, 0
3, 156288, Note_on_c, 1, 55, 76
3, 156288, Note_on_c, 1, 52, 76
3, 156288, Note_on_c, 1, 48, 76
3, 156476, Note_off_c, 1, 55, 0
3, 156476, Note_off_c, 1, 52, 0
3, 156476, Note_off_c, 1, 48, 0
3, 156480, Note_on_c, 1, 55, 76
3, 156480, Note_on_c, 1, 52, 76
3, 156480, Note_on_c, 1, 48, 76
3, 156668, Note_off_c, 1, 55, 0
3, 156668, Note_off_c, 1, 52, 0
3, 156668, Note_off_c, 1, 48, 0
3, 156672, Note_on_c, 1, 55, 76
3, 156672, Note_on_c, 1, 52, 76
3, 156672, Note_on_c, 1, 49, 76
3, 156860, Note_off_c, 1, 55, 0
3, 156860, Note_off_c, 1, 52, 0
3, 156860, Note_off_c, 1, 49, 0
3, 156864, Note_on_c, 1, 55, 76
3, 156864, Note_on_c, 1, 52, 76
3, 156864, Note_on_c, 1, 49, 76
3, 157052, Note_off_c, 1, 55, 0
3, 157052, Note_off_c, 1, 52, 0
3, 157052, Note_off_c, 1, 49, 0
3, 157056, Note_on_c, 1, 55, 76
3, 157056, Note_on_c, 1, 52, 76
3, 157056, Note_on_c, 1, 49, 76
3, 157244, Note_off_c, 1, 55, 0
3, 157244, Note_off_c, 1, 52, 0
3, 157244, Note_off_c, 1, 49, 0
3, 157248, Note_on_c, 1, 55, 76
3, 157248, Note_on_c, 1, 52, 76
3, 157248, Note_on_c, 1, 49, 76
3, 157436, Note_off_c, 1, 55, 0
3, 157436, Note_off_c, 1, 52, 0
3, 157436, Note_off_c, 1, 49, 0
3, 157440, Note_on_c, 1, 55, 76
3, 157440, Note_on_c, 1, 52, 76
3, 157440, Note_on_c, 1, 49, 76
3, 157628, Note_off_c, 1, 55, 0
3, 157628, Note_off_c, 1, 52, 0
3, 157628, Note_off_c, 1, 49, 0
3, 157632, Note_on_c, 1, 55, 76
3, 157632, Note_on_c, 1, 52, 76
3, 157632, Note_on_c, 1, 49, 76
3, 157820, Note_off_c, 1, 55, 0
3, 157820, Note_off_c, 1, 52, 0
3, 157820, Note_off_c, 1, 49, 0
3, 157824, Note_on_c, 1, 55, 76
3, 157824, Note_on_c, 1, 52, 76
3, 157824, Note_on_c, 1, 49, 76
3, 158012, Note_off_c, 1, 55, 0
3, 158012, Note_off_c, 1, 52, 0
3, 158012, Note_off_c, 1, 49, 0
3, 158016, Note_on_c, 1, 55, 76
3, 158016, Note_on_c, 1, 52, 76
3, 158016, Note_on_c, 1, 49, 76
3, 158204, Note_off_c, 1, 55, 0
3, 158204, Note_off_c, 1, 52, 0
3, 158204, Note_off_c, 1, 49, 0
3, 158208, Note_on_c, 1, 55, 90
3, 158208, Note_on_c, 1, 52, 90
3, 158208, Note_on_c, 1, 48, 90
3, 158396, Note_off_c, 1, 55, 0
3, 158396, Note_off_c, 1, 52, 0
3, 158396, Note_off_c, 1, 48, 0
3, 158400, Note_on_c, 1, 55, 57
3, 158400, Note_on_c, 1, 52, 57
3, 158400, Note_on_c, 1, 48, 57
3, 158588, Note_off_c, 1, 55, 0
3, 158588, Note_off_c, 1, 52, 0
3, 158588, Note_off_c, 1, 48, 0
3, 158592, Note_on_c, 1, 55, 57
3, 158592, Note_on_c, 1, 52, 57
3, 158592, Note_on_c, 1, 48, 57
3, 158780, Note_off_c, 1, 55, 0
3, 158780, Note_off_c, 1, 52, 0
3, 158780, Note_off_c, 1, 48, 0
3, 158784, Note_on_c, 1, 55, 57
3, 158784, Note_on_c, 1, 52, 57
3, 158784, Note_on_c, 1, 48, 57
3, 158972, Note_off_c, 1, 55, 0
3, 158972, Note_off_c, 1, 52, 0
3, 158972, Note_off_c, 1, 48, 0
3, 158976, Note_on_c, 1, 55, 57
3, 158976, Note_on_c, 1, 52, 57
3, 158976, Note_on_c, 1, 49, 57
3, 159164, Note_off_c, 1, 55, 0
3, 159164, Note_off_c, 1, 52, 0
3, 159164, Note_off_c, 1, 49, 0
3, 159168, Note_on_c, 1, 55, 57
3, 159168, Note_on_c, 1, 52, 57
3, 159168, Note_on_c, 1, 49, 57
3, 159356, Note_off_c, 1, 55, 0
3, 159356, Note_off_c, 1, 52, 0
3, 159356, Note_off_c, 1, 49, 0
3, 159360, Note_on_c, 1, 55, 57
3, 159360, Note_on_c, 1, 52, 57
3, 159360, Note_on_c, 1, 49, 57
3, 159548, Note_off_c, 1, 55, 0
3, 159548, Note_off_c, 1, 52, 0
3, 159548, Note_off_c, 1, 49, 0
3, 159552, Note_on_c, 1, 55, 57
3, 159552, Note_on_c, 1, 52, 57
3, 159552, Note_on_c, 1, 49, 57
3, 159740, Note_off_c, 1, 55, 0
3, 159740, Note_off_c, 1, 52, 0
3, 159740, Note_off_c, 1, 49, 0
3, 159744, Note_on_c, 1, 55, 90
3, 159744, Note_on_c, 1, 52, 90
3, 159744, Note_on_c, 1, 48, 90
3, 159932, Note_off_c, 1, 55, 0
3, 159932, Note_off_c, 1, 52, 0
3, 159932, Note_off_c, 1, 48, 0
3, 159936, Note_on_c, 1, 55, 57
3, 159936, Note_on_c, 1, 52, 57
3, 159936, Note_on_c, 1, 48, 57
3, 160124, Note_off_c, 1, 55, 0
3, 160124, Note_off_c, 1, 52, 0
3, 160124, Note_off_c, 1, 48, 0
3, 160128, Note_on_c, 1, 55, 57
3, 160128, Note_on_c, 1, 52, 57
3, 160128, Note_on_c, 1, 48, 57
3, 160316, Note_off_c, 1, 55, 0
3, 160316, Note_off_c, 1, 52, 0
3, 160316, Note_off_c, 1, 48, 0
3, 160320, Note_on_c, 1, 55, 57
3, 160320, Note_on_c, 1, 52, 57
3, 160320, Note_on_c, 1, 48, 57
3, 160508, Note_off_c, 1, 55, 0
3, 160508, Note_off_c, 1, 52, 0
3, 160508, Note_off_c, 1, 48, 0
3, 160512, Note_on_c, 1, 55, 57
3, 160512, Note_on_c, 1, 52, 57
3, 160512, Note_on_c, 1, 49, 57
3, 160700, Note_off_c, 1, 55, 0
3, 160700, Note_off_c, 1, 52, 0
3, 160700, Note_off_c, 1, 49, 0
3, 160704, Note_on_c, 1, 55, 57
3, 160704, Note_on_c, 1, 52, 57
3, 160704, Note_on_c, 1, 49, 57
3, 160892, Note_off_c, 1, 55, 0
3, 160892, Note_off_c, 1, 52, 0
3, 160892, Note_off_c, 1, 49, 0
3, 160896, Note_on_c, 1, 55, 57
3, 160896, Note_on_c, 1, 52, 57
3, 160896, Note_on_c, 1, 49, 57
3, 161084, Note_off_c, 1, 55, 0
3, 161084, Note_off_c, 1, 52, 0
3, 161084, Note_off_c, 1, 49, 0
3, 161088, Note_on_c, 1, 55, 57
3, 161088, Note_on_c, 1, 52, 57
3, 161088, Note_on_c, 1, 49, 57
3, 161276, Note_off_c, 1, 55, 0
3, 161276, Note_off_c, 1, 52, 0
3, 161276, Note_off_c, 1, 49, 0
3, 161280, Note_on_c, 1, 55, 90
3, 161280, Note_on_c, 1, 52, 90
3, 161280, Note_on_c, 1, 48, 90
3, 161660, Note_off_c, 1, 55, 0
3, 161660, Note_off_c, 1, 52, 0
3, 161660, Note_off_c, 1, 48, 0
3, 162816, Note_on_c, 1, 46, 90
3, 162816, Note_on_c, 1, 43, 90
3, 162816, Note_on_c, 1, 40, 90
3, 162816, Note_on_c, 1, 36, 90
3, 164348, Note_off_c, 1, 46, 0
3, 164348, Note_off_c, 1, 43, 0
3, 164348, Note_off_c, 1, 40, 0
3, 164348, Note_off_c, 1, 36, 0
3, 164352, Note_on_c, 1, 35, 106
3, 164444, Note_off_c, 1, 35, 0
3, 164448, Note_on_c, 1, 47, 106
3, 164540, Note_off_c, 1, 47, 0
3, 164544, Note_on_c, 1, 46, 106
3, 164636, Note_off_c, 1, 46, 0
3, 164640, Note_on_c, 1, 47, 106
3, 164732, Note_off_c, 1, 47, 0
3, 164736, Note_on_c, 1, 46, 106
3, 164828, Note_off_c, 1, 46, 0
3, 164832, Note_on_c, 1, 47, 106
3, 164924, Note_off_c, 1, 47, 0
3, 164928, Note_on_c, 1, 46, 106
3, 165020, Note_off_c, 1, 46, 0
3, 165024, Note_on_c, 1, 47, 106
3, 165116, Note_off_c, 1, 47, 0
3, 165120, Note_on_c, 1, 35, 106
3, 165212, Note_off_c, 1, 35, 0
3, 165216, Note_on_c, 1, 47, 106
3, 165308, Note_off_c, 1, 47, 0
3, 165312, Note_on_c, 1, 46, 106
3, 165404, Note_off_c, 1, 46, 0
3, 165408, Note_on_c, 1, 47, 106
3, 165500, Note_off_c, 1, 47, 0
3, 165504, Note_on_c, 1, 46, 106
3, 165596, Note_off_c, 1, 46, 0
3, 165600, Note_on_c, 1, 47, 106
3, 165692, Note_off_c, 1, 47, 0
3, 165696, Note_on_c, 1, 46, 106
3, 165788, Note_off_c, 1, 46, 0
3, 165792, Note_on_c, 1, 47, 106
3, 165884, Note_off_c, 1, 47, 0
3, 165888, Note_on_c, 1, 35, 90
3, 165980, Note_off_c, 1, 35, 0
3, 165984, Note_on_c, 1, 47, 90
3, 166076, Note_off_c, 1, 47, 0
3, 166080, Note_on_c, 1, 46, 90
3, 166172, Note_off_c, 1, 46, 0
3, 166176, Note_on_c, 1, 47, 90
3, 166268, Note_off_c, 1, 47, 0
3, 166272, Note_on_c, 1, 46, 90
3, 166364, Note_off_c, 1, 46, 0
3, 166368, Note_on_c, 1, 47, 90
3, 166460, Note_off_c, 1, 47, 0
3, 166464, Note_on_c, 1, 46, 90
3, 166556, Note_off_c, 1, 46, 0
3, 166560, Note_on_c, 1, 47, 90
3, 166652, Note_off_c, 1, 47, 0
3, 166656, Note_on_c, 1, 35, 90
3, 166748, Note_off_c, 1, 35, 0
3, 166752, Note_on_c, 1, 47, 90
3, 166844, Note_off_c, 1, 47, 0
3, 166848, Note_on_c, 1, 46, 90
3, 166940, Note_off_c, 1, 46, 0
3, 166944, Note_on_c, 1, 47, 90
3, 167036, Note_off_c, 1, 47, 0
3, 167040, Note_on_c, 1, 46, 90
3, 167132, Note_off_c, 1, 46, 0
3, 167136, Note_on_c, 1, 47, 90
3, 167228, Note_off_c, 1, 47, 0
3, 167232, Note_on_c, 1, 46, 90
3, 167324, Note_off_c, 1, 46, 0
3, 167328, Note_on_c, 1, 47, 90
3, 167420, Note_off_c, 1, 47, 0
3, 167424, Note_on_c, 1, 35, 76
3, 167516, Note_off_c, 1, 35, 0
3, 167520, Note_on_c, 1, 47, 76
3, 167612, Note_off_c, 1, 47, 0
3, 167616, Note_on_c, 1, 46, 76
3, 167708, Note_off_c, 1, 46, 0
3, 167712, Note_on_c, 1, 47, 76
3, 167804, Note_off_c, 1, 47, 0
3, 167808, Note_on_c, 1, 46, 76
3, 167900, Note_off_c, 1, 46, 0
3, 167904, Note_on_c, 1, 47, 76
3, 167996, Note_off_c, 1, 47, 0
3, 168000, Note_on_c, 1, 46, 76
3, 168092, Note_off_c, 1, 46, 0
3, 168096, Note_on_c, 1, 47, 76
3, 168188, Note_off_c, 1, 47, 0
3, 168192, Note_on_c, 1, 35, 76
3, 168284, Note_off_c, 1, 35, 0
3, 168288, Note_on_c, 1, 47, 76
3, 168380, Note_off_c, 1, 47, 0
3, 168384, Note_on_c, 1, 46, 76
3, 168476, Note_off_c, 1, 46, 0
3, 168480, Note_on_c, 1, 47, 76
3, 168572, Note_off_c, 1, 47, 0
3, 168576, Note_on_c, 1, 46, 76
3, 168668, Note_off_c, 1, 46, 0
3, 168672, Note_on_c, 1, 47, 76
3, 168764, Note_off_c, 1, 47, 0
3, 168768, Note_on_c, 1, 46, 76
3, 168860, Note_off_c, 1, 46, 0
3, 168864, Note_on_c, 1, 47, 76
3, 168956, Note_off_c, 1, 47, 0
3, 168960, Note_on_c, 1, 35, 76
3, 169052, Note_off_c, 1, 35, 0
3, 169056, Note_on_c, 1, 47, 76
3, 169148, Note_off_c, 1, 47, 0
3, 169152, Note_on_c, 1, 46, 76
3, 169244, Note_off_c, 1, 46, 0
3, 169248, Note_on_c, 1, 47, 76
3, 169340, Note_off_c, 1, 47, 0
3, 169344, Note_on_c, 1, 46, 76
3, 169436, Note_off_c, 1, 46, 0
3, 169440, Note_on_c, 1, 47, 76
3, 169532, Note_off_c, 1, 47, 0
3, 169536, Note_on_c, 1, 46, 76
3, 169628, Note_off_c, 1, 46, 0
3, 169632, Note_on_c, 1, 47, 76
3, 169724, Note_off_c, 1, 47, 0
3, 169728, Note_on_c, 1, 35, 76
3, 169820, Note_off_c, 1, 35, 0
3, 169824, Note_on_c, 1, 47, 76
3, 169916, Note_off_c, 1, 47, 0
3, 169920, Note_on_c, 1, 46, 76
3, 170012, Note_off_c, 1, 46, 0
3, 170016, Note_on_c, 1, 47, 76
3, 170108, Note_off_c, 1, 47, 0
3, 170112, Note_on_c, 1, 46, 76
3, 170204, Note_off_c, 1, 46, 0
3, 170208, Note_on_c, 1, 47, 76
3, 170300, Note_off_c, 1, 47, 0
3, 170304, Note_on_c, 1, 46, 76
3, 170396, Note_off_c, 1, 46, 0
3, 170400, Note_on_c, 1, 47, 76
3, 170492, Note_off_c, 1, 47, 0
3, 170496, Note_on_c, 1, 40, 42
3, 170588, Note_off_c, 1, 40, 0
3, 170592, Note_on_c, 1, 52, 42
3, 170684, Note_off_c, 1, 52, 0
3, 170688, Note_on_c, 1, 51, 42
3, 170780, Note_off_c, 1, 51, 0
3, 170784, Note_on_c, 1, 52, 42
3, 170876, Note_off_c, 1, 52, 0
3, 170880, Note_on_c, 1, 51, 42
3, 170972, Note_off_c, 1, 51, 0
3, 170976, Note_on_c, 1, 52, 42
3, 171068, Note_off_c, 1, 52, 0
3, 171072, Note_on_c, 1, 51, 42
3, 171164, Note_off_c, 1, 51, 0
3, 171168, Note_on_c, 1, 52, 42
3, 171260, Note_off_c, 1, 52, 0
3, 171264, Note_on_c, 1, 40, 42
3, 171356, Note_off_c, 1, 40, 0
3, 171360, Note_on_c, 1, 52, 42
3, 171452, Note_off_c, 1, 52, 0
3, 171456, Note_on_c, 1, 51, 42
3, 171548, Note_off_c, 1, 51, 0
3, 171552, Note_on_c, 1, 52, 42
3, 171644, Note_off_c, 1, 52, 0
3, 171648, Note_on_c, 1, 51, 42
3, 171740, Note_off_c, 1, 51, 0
3, 171744, Note_on_c, 1, 52, 42
3, 171836, Note_off_c, 1, 52, 0
3, 171840, Note_on_c, 1, 51, 42
3, 171932, Note_off_c, 1, 51, 0
3, 171936, Note_on_c, 1, 52, 42
3, 172028, Note_off_c, 1, 52, 0
3, 172032, Note_on_c, 1, 40, 57
3, 172124, Note_off_c, 1, 40, 0
3, 172128, Note_on_c, 1, 52, 57
3, 172220, Note_off_c, 1, 52, 0
3, 172224, Note_on_c, 1, 51, 57
3, 172316, Note_off_c, 1, 51, 0
3, 172320, Note_on_c, 1, 52, 57
3, 172412, Note_off_c, 1, 52, 0
3, 172416, Note_on_c, 1, 51, 57
3, 172508, Note_off_c, 1, 51, 0
3, 172512, Note_on_c, 1, 52, 57
3, 172604, Note_off_c, 1, 52, 0
3, 172608, Note_on_c, 1, 51, 57
3, 172700, Note_off_c, 1, 51, 0
3, 172704, Note_on_c, 1, 52, 57
3, 172796, Note_off_c, 1, 52, 0
3, 172800, Note_on_c, 1, 40, 57
3, 172892, Note_off_c, 1, 40, 0
3, 172896, Note_on_c, 1, 52, 57
3, 172988, Note_off_c, 1, 52, 0
3, 172992, Note_on_c, 1, 51, 57
3, 173084, Note_off_c, 1, 51, 0
3, 173088, Note_on_c, 1, 52, 57
3, 173180, Note_off_c, 1, 52, 0
3, 173184, Note_on_c, 1, 51, 57
3, 173276, Note_off_c, 1, 51, 0
3, 173280, Note_on_c, 1, 52, 57
3, 173372, Note_off_c, 1, 52, 0
3, 173376, Note_on_c, 1, 51, 57
3, 173468, Note_off_c, 1, 51, 0
3, 173472, Note_on_c, 1, 52, 57
3, 173564, Note_off_c, 1, 52, 0
3, 173568, Note_on_c, 1, 40, 76
3, 173660, Note_off_c, 1, 40, 0
3, 173664, Note_on_c, 1, 52, 76
3, 173756, Note_off_c, 1, 52, 0
3, 173760, Note_on_c, 1, 51, 76
3, 173852, Note_off_c, 1, 51, 0
3, 173856, Note_on_c, 1, 52, 76
3, 173948, Note_off_c, 1, 52, 0
3, 173952, Note_on_c, 1, 51, 76
3, 174044, Note_off_c, 1, 51, 0
3, 174048, Note_on_c, 1, 52, 76
3, 174140, Note_off_c, 1, 52, 0
3, 174144, Note_on_c, 1, 51, 76
3, 174236, Note_off_c, 1, 51, 0
3, 174240, Note_on_c, 1, 52, 76
3, 174332, Note_off_c, 1, 52, 0
3, 174336, Note_on_c, 1, 40, 76
3, 174428, Note_off_c, 1, 40, 0
3, 174432, Note_on_c, 1, 52, 76
3, 174524, Note_off_c, 1, 52, 0
3, 174528, Note_on_c, 1, 51, 76
3, 174620, Note_off_c, 1, 51, 0
3, 174624, Note_on_c, 1, 52, 76
3, 174716, Note_off_c, 1, 52, 0
3, 174720, Note_on_c, 1, 51, 76
3, 174812, Note_off_c, 1, 51, 0
3, 174816, Note_on_c, 1, 52, 76
3, 174908, Note_off_c, 1, 52, 0
3, 174912, Note_on_c, 1, 51, 76
3, 175004, Note_off_c, 1, 51, 0
3, 175008, Note_on_c, 1, 52, 76
3, 175100, Note_off_c, 1, 52, 0
3, 175104, Note_on_c, 1, 40, 76
3, 175196, Note_off_c, 1, 40, 0
3, 175200, Note_on_c, 1, 52, 76
3, 175292, Note_off_c, 1, 52, 0
3, 175296, Note_on_c, 1, 51, 76
3, 175388, Note_off_c, 1, 51, 0
3, 175392, Note_on_c, 1, 52, 76
3, 175484, Note_off_c, 1, 52, 0
3, 175488, Note_on_c, 1, 51, 76
3, 175580, Note_off_c, 1, 51, 0
3, 175584, Note_on_c, 1, 52, 76
3, 175676, Note_off_c, 1, 52, 0
3, 175680, Note_on_c, 1, 51, 76
3, 175772, Note_off_c, 1, 51, 0
3, 175776, Note_on_c, 1, 52, 76
3, 175868, Note_off_c, 1, 52, 0
3, 175872, Note_on_c, 1, 40, 76
3, 175964, Note_off_c, 1, 40, 0
3, 175968, Note_on_c, 1, 52, 76
3, 176060, Note_off_c, 1, 52, 0
3, 176064, Note_on_c, 1, 51, 76
3, 176156, Note_off_c, 1, 51, 0
3, 176160, Note_on_c, 1, 52, 76
3, 176252, Note_off_c, 1, 52, 0
3, 176256, Note_on_c, 1, 51, 76
3, 176348, Note_off_c, 1, 51, 0
3, 176352, Note_on_c, 1, 52, 76
3, 176444, Note_off_c, 1, 52, 0
3, 176448, Note_on_c, 1, 51, 76
3, 176540, Note_off_c, 1, 51, 0
3, 176544, Note_on_c, 1, 52, 76
3, 176636, Note_off_c, 1, 52, 0
3, 176640, Note_on_c, 1, 45, 106
3, 176732, Note_off_c, 1, 45, 0
3, 176736, Note_on_c, 1, 57, 106
3, 176828, Note_off_c, 1, 57, 0
3, 176832, Note_on_c, 1, 56, 106
3, 176924, Note_off_c, 1, 56, 0
3, 176928, Note_on_c, 1, 57, 106
3, 177020, Note_off_c, 1, 57, 0
3, 177024, Note_on_c, 1, 56, 106
3, 177116, Note_off_c, 1, 56, 0
3, 177120, Note_on_c, 1, 57, 106
3, 177212, Note_off_c, 1, 57, 0
3, 177216, Note_on_c, 1, 56, 106
3, 177308, Note_off_c, 1, 56, 0
3, 177312, Note_on_c, 1, 57, 106
3, 177404, Note_off_c, 1, 57, 0
3, 177408, Note_on_c, 1, 45, 106
3, 177500, Note_off_c, 1, 45, 0
3, 177504, Note_on_c, 1, 57, 106
3, 177596, Note_off_c, 1, 57, 0
3, 177600, Note_on_c, 1, 56, 106
3, 177692, Note_off_c, 1, 56, 0
3, 177696, Note_on_c, 1, 57, 106
3, 177788, Note_off_c, 1, 57, 0
3, 177792, Note_on_c, 1, 56, 106
3, 177884, Note_off_c, 1, 56, 0
3, 177888, Note_on_c, 1, 57, 106
3, 177980, Note_off_c, 1, 57, 0
3, 177984, Note_on_c, 1, 56, 106
3, 178076, Note_off_c, 1, 56, 0
3, 178080, Note_on_c, 1, 57, 106
3, 178172, Note_off_c, 1, 57, 0
3, 178176, Note_on_c, 1, 45, 90
3, 178268, Note_off_c, 1, 45, 0
3, 178272, Note_on_c, 1, 57, 90
3, 178364, Note_off_c, 1, 57, 0
3, 178368, Note_on_c, 1, 56, 90
3, 178460, Note_off_c, 1, 56, 0
3, 178464, Note_on_c, 1, 57, 90
3, 178556, Note_off_c, 1, 57, 0
3, 178560, Note_on_c, 1, 56, 90
3, 178652, Note_off_c, 1, 56, 0
3, 178656, Note_on_c, 1, 57, 90
3, 178748, Note_off_c, 1, 57, 0
3, 178752, Note_on_c, 1, 56, 90
3, 178844, Note_off_c, 1, 56, 0
3, 178848, Note_on_c, 1, 57, 90
3, 178940, Note_off_c, 1, 57, 0
3, 178944, Note_on_c, 1, 45, 90
3, 179036, Note_off_c, 1, 45, 0
3, 179040, Note_on_c, 1, 57, 90
3, 179132, Note_off_c, 1, 57, 0
3, 179136, Note_on_c, 1, 56, 90
3, 179228, Note_off_c, 1, 56, 0
3, 179232, Note_on_c, 1, 57, 90
3, 179324, Note_off_c, 1, 57, 0
3, 179328, Note_on_c, 1, 56, 90
3, 179420, Note_off_c, 1, 56, 0
3, 179424, Note_on_c, 1, 57, 90
3, 179516, Note_off_c, 1, 57, 0
3, 179520, Note_on_c, 1, 56, 90
3, 179612, Note_off_c, 1, 56, 0
3, 179616, Note_on_c, 1, 57, 90
3, 179708, Note_off_c, 1, 57, 0
3, 179712, Note_on_c, 1, 45, 76
3, 179804, Note_off_c, 1, 45, 0
3, 179808, Note_on_c, 1, 57, 76
3, 179900, Note_off_c, 1, 57, 0
3, 179904, Note_on_c, 1, 56, 76
3, 179996, Note_off_c, 1, 56, 0
3, 180000, Note_on_c, 1, 57, 76
3, 180092, Note_off_c, 1, 57, 0
3, 180096, Note_on_c, 1, 56, 76
3, 180188, Note_off_c, 1, 56, 0
3, 180192, Note_on_c, 1, 57, 76
3, 180284, Note_off_c, 1, 57, 0
3, 180288, Note_on_c, 1, 56, 76
3, 180380, Note_off_c, 1, 56, 0
3, 180384, Note_on_c, 1, 57, 76
3, 180476, Note_off_c, 1, 57, 0
3, 180480, Note_on_c, 1, 45, 76
3, 180572, Note_off_c, 1, 45, 0
3, 180576, Note_on_c, 1, 57, 76
3, 180668, Note_off_c, 1, 57, 0
3, 180672, Note_on_c, 1, 56, 76
3, 180764, Note_off_c, 1, 56, 0
3, 180768, Note_on_c, 1, 57, 76
3, 180860, Note_off_c, 1, 57, 0
3, 180864, Note_on_c, 1, 56, 76
3, 180956, Note_off_c, 1, 56, 0
3, 180960, Note_on_c, 1, 57, 76
3, 181052, Note_off_c, 1, 57, 0
3, 181056, Note_on_c, 1, 56, 76
3, 181148, Note_off_c, 1, 56, 0
3, 181152, Note_on_c, 1, 57, 76
3, 181244, Note_off_c, 1, 57, 0
3, 181248, Note_on_c, 1, 45, 76
3, 181340, Note_off_c, 1, 45, 0
3, 181344, Note_on_c, 1, 57, 76
3, 181436, Note_off_c, 1, 57, 0
3, 181440, Note_on_c, 1, 56, 76
3, 181532, Note_off_c, 1, 56, 0
3, 181536, Note_on_c, 1, 57, 76
3, 181628, Note_off_c, 1, 57, 0
3, 181632, Note_on_c, 1, 56, 76
3, 181724, Note_off_c, 1, 56, 0
3, 181728, Note_on_c, 1, 57, 76
3, 181820, Note_off_c, 1, 57, 0
3, 181824, Note_on_c, 1, 56, 76
3, 181916, Note_off_c, 1, 56, 0
3, 181920, Note_on_c, 1, 57, 76
3, 182012, Note_off_c, 1, 57, 0
3, 182016, Note_on_c, 1, 45, 76
3, 182108, Note_off_c, 1, 45, 0
3, 182112, Note_on_c, 1, 57, 76
3, 182204, Note_off_c, 1, 57, 0
3, 182208, Note_on_c, 1, 56, 76
3, 182300, Note_off_c, 1, 56, 0
3, 182304, Note_on_c, 1, 57, 76
3, 182396, Note_off_c, 1, 57, 0
3, 182400, Note_on_c, 1, 56, 76
3, 182492, Note_off_c, 1, 56, 0
3, 182496, Note_on_c, 1, 57, 76
3, 182588, Note_off_c, 1, 57, 0
3, 182592, Note_on_c, 1, 56, 76
3, 182684, Note_off_c, 1, 56, 0
3, 182688, Note_on_c, 1, 57, 76
3, 182780, Note_off_c, 1, 57, 0
3, 182784, Note_on_c, 1, 50, 90
3, 182876, Note_off_c, 1, 50, 0
3, 182880, Note_on_c, 1, 53, 90
3, 182972, Note_off_c, 1, 53, 0
3, 182976, Note_on_c, 1, 57, 90
3, 183068, Note_off_c, 1, 57, 0
3, 183072, Note_on_c, 1, 62, 90
3, 183164, Note_off_c, 1, 62, 0
3, 183168, Note_on_c, 1, 65, 90
3, 183260, Note_off_c, 1, 65, 0
3, 183264, Note_on_c, 1, 64, 90
3, 183356, Note_off_c, 1, 64, 0
3, 183360, Note_on_c, 1, 62, 90
3, 183452, Note_off_c, 1, 62, 0
3, 183456, Note_on_c, 1, 60, 90
3, 183548, Note_off_c, 1, 60, 0
3, 183552, Note_on_c, 1, 59, 90
3, 183644, Note_off_c, 1, 59, 0
3, 183648, Note_on_c, 1, 60, 90
3, 183740, Note_off_c, 1, 60, 0
3, 183744, Note_on_c, 1, 62, 90
3, 183836, Note_off_c, 1, 62, 0
3, 183840, Note_on_c, 1, 60, 90
3, 183932, Note_off_c, 1, 60, 0
3, 183936, Note_on_c, 1, 59, 90
3, 184028, Note_off_c, 1, 59, 0
3, 184032, Note_on_c, 1, 55, 90
3, 184124, Note_off_c, 1, 55, 0
3, 184128, Note_on_c, 1, 57, 90
3, 184220, Note_off_c, 1, 57, 0
3, 184224, Note_on_c, 1, 59, 90
3, 184316, Note_off_c, 1, 59, 0
3, 184320, Note_on_c, 1, 60, 76
3, 184412, Note_off_c, 1, 60, 0
3, 184416, Note_on_c, 1, 59, 76
3, 184508, Note_off_c, 1, 59, 0
3, 184512, Note_on_c, 1, 60, 76
3, 184604, Note_off_c, 1, 60, 0
3, 184608, Note_on_c, 1, 62, 76
3, 184700, Note_off_c, 1, 62, 0
3, 184704, Note_on_c, 1, 64, 76
3, 184796, Note_off_c, 1, 64, 0
3, 184800, Note_on_c, 1, 62, 76
3, 184892, Note_off_c, 1, 62, 0
3, 184896, Note_on_c, 1, 60, 76
3, 184988, Note_off_c, 1, 60, 0
3, 184992, Note_on_c, 1, 59, 76
3, 185084, Note_off_c, 1, 59, 0
3, 185088, Note_on_c, 1, 57, 76
3, 185180, Note_off_c, 1, 57, 0
3, 185184, Note_on_c, 1, 59, 76
3, 185276, Note_off_c, 1, 59, 0
3, 185280, Note_on_c, 1, 60, 76
3, 185372, Note_off_c, 1, 60, 0
3, 185376, Note_on_c, 1, 59, 76
3, 185468, Note_off_c, 1, 59, 0
3, 185472, Note_on_c, 1, 57, 76
3, 185564, Note_off_c, 1, 57, 0
3, 185568, Note_on_c, 1, 53, 76
3, 185660, Note_off_c, 1, 53, 0
3, 185664, Note_on_c, 1, 55, 76
3, 185756, Note_off_c, 1, 55, 0
3, 185760, Note_on_c, 1, 57, 76
3, 185852, Note_off_c, 1, 57, 0
3, 185856, Note_on_c, 1, 59, 76
3, 185948, Note_off_c, 1, 59, 0
3, 185952, Note_on_c, 1, 57, 76
3, 186044, Note_off_c, 1, 57, 0
3, 186048, Note_on_c, 1, 59, 76
3, 186140, Note_off_c, 1, 59, 0
3, 186144, Note_on_c, 1, 60, 76
3, 186236, Note_off_c, 1, 60, 0
3, 186240, Note_on_c, 1, 62, 76
3, 186332, Note_off_c, 1, 62, 0
3, 186336, Note_on_c, 1, 60, 76
3, 186428, Note_off_c, 1, 60, 0
3, 186432, Note_on_c, 1, 59, 76
3, 186524, Note_off_c, 1, 59, 0
3, 186528, Note_on_c, 1, 57, 76
3, 186620, Note_off_c, 1, 57, 0
3, 186624, Note_on_c, 1, 56, 76
3, 186716, Note_off_c, 1, 56, 0
3, 186720, Note_on_c, 1, 57, 76
3, 186812, Note_off_c, 1, 57, 0
3, 186816, Note_on_c, 1, 59, 76
3, 186908, Note_off_c, 1, 59, 0
3, 186912, Note_on_c, 1, 57, 76
3, 187004, Note_off_c, 1, 57, 0
3, 187008, Note_on_c, 1, 56, 76
3, 187100, Note_off_c, 1, 56, 0
3, 187104, Note_on_c, 1, 52, 76
3, 187196, Note_off_c, 1, 52, 0
3, 187200, Note_on_c, 1, 54, 76
3, 187292, Note_off_c, 1, 54, 0
3, 187296, Note_on_c, 1, 56, 76
3, 187388, Note_off_c, 1, 56, 0
3, 187392, Note_on_c, 1, 57, 90
3, 187772, Note_off_c, 1, 57, 0
3, 187776, Note_on_c, 1, 55, 90
3, 187776, Note_on_c, 1, 43, 90
3, 188156, Note_off_c, 1, 55, 0
3, 188156, Note_off_c, 1, 43, 0
3, 188160, Note_on_c, 1, 54, 90
3, 188160, Note_on_c, 1, 42, 90
3, 188540, Note_off_c, 1, 54, 0
3, 188540, Note_off_c, 1, 42, 0
3, 188544, Note_on_c, 1, 53, 90
3, 188544, Note_on_c, 1, 41, 90
3, 188924, Note_off_c, 1, 53, 0
3, 188924, Note_off_c, 1, 41, 0
3, 188928, Note_on_c, 1, 52, 90
3, 188928, Note_on_c, 1, 40, 90
3, 189308, Note_off_c, 1, 52, 0
3, 189308, Note_off_c, 1, 40, 0
3, 189600, Note_on_c, 1, 52, 76
3, 189692, Note_off_c, 1, 52, 0
3, 189696, Note_on_c, 1, 64, 76
3, 190076, Note_off_c, 1, 64, 0
3, 190080, Note_on_c, 1, 57, 76
3, 190124, Note_off_c, 1, 57, 0
3, 190128, Note_on_c, 1, 56, 76
3, 190172, Note_off_c, 1, 56, 0
3, 190176, Note_on_c, 1, 57, 76
3, 190220, Note_off_c, 1, 57, 0
3, 190224, Note_on_c, 1, 56, 76
3, 190268, Note_off_c, 1, 56, 0
3, 190272, Note_on_c, 1, 57, 76
3, 190316, Note_off_c, 1, 57, 0
3, 190320, Note_on_c, 1, 56, 76
3, 190364, Note_off_c, 1, 56, 0
3, 190368, Note_on_c, 1, 54, 76
3, 190400, Note_on_c, 1, 56, 76
3, 190412, Note_off_c, 1, 54, 0
3, 190444, Note_off_c, 1, 56, 0
3, 190464, Note_on_c, 1, 57, 76
3, 190844, Note_off_c, 1, 57, 0
3, 191136, Note_on_c, 1, 45, 76
3, 191228, Note_off_c, 1, 45, 0
3, 191232, Note_on_c, 1, 57, 76
3, 191612, Note_off_c, 1, 57, 0
3, 191616, Note_on_c, 1, 52, 76
3, 191660, Note_off_c, 1, 52, 0
3, 191664, Note_on_c, 1, 51, 76
3, 191708, Note_off_c, 1, 51, 0
3, 191712, Note_on_c, 1, 52, 76
3, 191756, Note_off_c, 1, 52, 0
3, 191760, Note_on_c, 1, 51, 76
3, 191804, Note_off_c, 1, 51, 0
3, 191808, Note_on_c, 1, 52, 76
3, 191852, Note_off_c, 1, 52, 0
3, 191856, Note_on_c, 1, 51, 76
3, 191900, Note_off_c, 1, 51, 0
3, 191904, Note_on_c, 1, 49, 76
3, 191948, Note_off_c, 1, 49, 0
3, 191952, Note_on_c, 1, 51, 76
3, 191996, Note_off_c, 1, 51, 0
3, 192000, Note_on_c, 1, 52, 76
3, 192380, Note_off_c, 1, 52, 0
3, 192672, Note_on_c, 1, 52, 76
3, 192764, Note_off_c, 1, 52, 0
3, 192768, Note_on_c, 1, 64, 76
3, 193148, Note_off_c, 1, 64, 0
3, 193152, Note_on_c, 1, 57, 76
3, 193196, Note_off_c, 1, 57, 0
3, 193200, Note_on_c, 1, 56, 76
3, 193244, Note_off_c, 1, 56, 0
3, 193248, Note_on_c, 1, 57, 76
3, 193292, Note_off_c, 1, 57, 0
3, 193296, Note_on_c, 1, 56, 76
3, 193340, Note_off_c, 1, 56, 0
3, 193344, Note_on_c, 1, 57, 76
3, 193388, Note_off_c, 1, 57, 0
3, 193392, Note_on_c, 1, 56, 76
3, 193436, Note_off_c, 1, 56, 0
3, 193440, Note_on_c, 1, 54, 76
3, 193484, Note_off_c, 1, 54, 0
3, 193488, Note_on_c, 1, 56, 76
3, 193532, Note_off_c, 1, 56, 0
3, 193536, Note_on_c, 1, 57, 82
3, 193916, Note_off_c, 1, 57, 0
3, 194208, Note_on_c, 1, 45, 82
3, 194300, Note_off_c, 1, 45, 0
3, 194304, Note_on_c, 1, 57, 82
3, 194684, Note_off_c, 1, 57, 0
3, 194688, Note_on_c, 1, 52, 82
3, 194732, Note_off_c, 1, 52, 0
3, 194736, Note_on_c, 1, 51, 82
3, 194780, Note_off_c, 1, 51, 0
3, 194784, Note_on_c, 1, 52, 82
3, 194828, Note_off_c, 1, 52, 0
3, 194832, Note_on_c, 1, 51, 82
3, 194876, Note_off_c, 1, 51, 0
3, 194880, Note_on_c, 1, 52, 82
3, 194924, Note_off_c, 1, 52, 0
3, 194928, Note_on_c, 1, 51, 82
3, 194972, Note_off_c, 1, 51, 0
3, 194976, Note_on_c, 1, 49, 82
3, 195020, Note_off_c, 1, 49, 0
3, 195024, Note_on_c, 1, 51, 82
3, 195068, Note_off_c, 1, 51, 0
3, 195072, Note_on_c, 1, 52, 82
3, 195452, Note_off_c, 1, 52, 0
3, 195456, Note_on_c, 1, 53, 82
3, 195456, Note_on_c, 1, 41, 82
3, 195836, Note_off_c, 1, 53, 0
3, 195836, Note_off_c, 1, 41, 0
3, 195840, Note_on_c, 1, 52, 82
3, 195840, Note_on_c, 1, 40, 82
3, 196220, Note_off_c, 1, 52, 0
3, 196220, Note_off_c, 1, 40, 0
3, 196224, Note_on_c, 1, 53, 82
3, 196224, Note_on_c, 1, 41, 82
3, 196604, Note_off_c, 1, 53, 0
3, 196604, Note_off_c, 1, 41, 0
3, 196608, Note_on_c, 1, 52, 82
3, 196608, Note_on_c, 1, 40, 82
3, 196988, Note_off_c, 1, 52, 0
3, 196988, Note_off_c, 1, 40, 0
3, 198144, Note_on_c, 1, 64, 82
3, 198144, Note_on_c, 1, 57, 82
3, 198144, Note_on_c, 1, 60, 82
3, 198332, Note_off_c, 1, 64, 0
3, 198332, Note_off_c, 1, 57, 0
3, 198332, Note_off_c, 1, 60, 0
3, 198336, Note_on_c, 1, 64, 82
3, 198336, Note_on_c, 1, 60, 82
3, 198336, Note_on_c, 1, 57, 82
3, 198524, Note_off_c, 1, 64, 0
3, 198524, Note_off_c, 1, 60, 0
3, 198524, Note_off_c, 1, 57, 0
3, 198528, Note_on_c, 1, 64, 82
3, 198528, Note_on_c, 1, 60, 82
3, 198528, Note_on_c, 1, 57, 82
3, 198716, Note_off_c, 1, 64, 0
3, 198716, Note_off_c, 1, 60, 0
3, 198716, Note_off_c, 1, 57, 0
3, 198720, Note_on_c, 1, 64, 82
3, 198720, Note_on_c, 1, 60, 82
3, 198720, Note_on_c, 1, 57, 82
3, 198908, Note_off_c, 1, 64, 0
3, 198908, Note_off_c, 1, 60, 0
3, 198908, Note_off_c, 1, 57, 0
3, 198912, Note_on_c, 1, 64, 82
3, 198912, Note_on_c, 1, 60, 82
3, 198912, Note_on_c, 1, 57, 82
3, 199100, Note_off_c, 1, 64, 0
3, 199100, Note_off_c, 1, 60, 0
3, 199100, Note_off_c, 1, 57, 0
3, 199104, Note_on_c, 1, 64, 82
3, 199104, Note_on_c, 1, 60, 82
3, 199104, Note_on_c, 1, 57, 82
3, 199292, Note_off_c, 1, 64, 0
3, 199292, Note_off_c, 1, 60, 0
3, 199292, Note_off_c, 1, 57, 0
3, 199296, Note_on_c, 1, 64, 82
3, 199296, Note_on_c, 1, 60, 82
3, 199296, Note_on_c, 1, 57, 82
3, 199484, Note_off_c, 1, 64, 0
3, 199484, Note_off_c, 1, 60, 0
3, 199484, Note_off_c, 1, 57, 0
3, 199488, Note_on_c, 1, 64, 82
3, 199488, Note_on_c, 1, 60, 82
3, 199488, Note_on_c, 1, 57, 82
3, 199676, Note_off_c, 1, 64, 0
3, 199676, Note_off_c, 1, 60, 0
3, 199676, Note_off_c, 1, 57, 0
3, 199680, Note_on_c, 1, 64, 81
3, 199680, Note_on_c, 1, 62, 81
3, 199680, Note_on_c, 1, 59, 81
3, 199680, Note_on_c, 1, 57, 81
3, 199856, Note_on_c, 1, 62, 81
3, 199868, Note_off_c, 1, 64, 0
3, 199868, Note_off_c, 1, 62, 0
3, 199868, Note_off_c, 1, 59, 0
3, 199868, Note_off_c, 1, 57, 0
3, 199872, Note_on_c, 1, 64, 81
3, 199872, Note_on_c, 1, 59, 81
3, 199872, Note_on_c, 1, 57, 81
3, 200044, Note_off_c, 1, 62, 0
3, 200060, Note_off_c, 1, 64, 0
3, 200060, Note_off_c, 1, 59, 0
3, 200060, Note_off_c, 1, 57, 0
3, 200064, Note_on_c, 1, 64, 81
3, 200064, Note_on_c, 1, 62, 81
3, 200064, Note_on_c, 1, 59, 81
3, 200064, Note_on_c, 1, 57, 81
3, 200252, Note_off_c, 1, 64, 0
3, 200252, Note_off_c, 1, 62, 0
3, 200252, Note_off_c, 1, 59, 0
3, 200252, Note_off_c, 1, 57, 0
3, 200256, Note_on_c, 1, 64, 81
3, 200256, Note_on_c, 1, 62, 81
3, 200256, Note_on_c, 1, 59, 81
3, 200256, Note_on_c, 1, 57, 81
3, 200444, Note_off_c, 1, 64, 0
3, 200444, Note_off_c, 1, 62, 0
3, 200444, Note_off_c, 1, 59, 0
3, 200444, Note_off_c, 1, 57, 0
3, 200448, Note_on_c, 1, 64, 81
3, 200448, Note_on_c, 1, 62, 81
3, 200448, Note_on_c, 1, 59, 81
3, 200448, Note_on_c, 1, 57, 81
3, 200636, Note_off_c, 1, 64, 0
3, 200636, Note_off_c, 1, 62, 0
3, 200636, Note_off_c, 1, 59, 0
3, 200636, Note_off_c, 1, 57, 0
3, 200640, Note_on_c, 1, 64, 81
3, 200640, Note_on_c, 1, 62, 81
3, 200640, Note_on_c, 1, 59, 81
3, 200640, Note_on_c, 1, 57, 81
3, 200828, Note_off_c, 1, 64, 0
3, 200828, Note_off_c, 1, 62, 0
3, 200828, Note_off_c, 1, 59, 0
3, 200828, Note_off_c, 1, 57, 0
3, 200832, Note_on_c, 1, 64, 81
3, 200832, Note_on_c, 1, 62, 81
3, 200848, Note_on_c, 1, 59, 81
3, 200848, Note_on_c, 1, 57, 81
3, 201020, Note_off_c, 1, 64, 0
3, 201020, Note_off_c, 1, 62, 0
3, 201024, Note_on_c, 1, 64, 81
3, 201024, Note_on_c, 1, 62, 81
3, 201024, Note_on_c, 1, 59, 81
3, 201024, Note_on_c, 1, 57, 81
3, 201036, Note_off_c, 1, 59, 0
3, 201036, Note_off_c, 1, 57, 0
3, 201212, Note_off_c, 1, 64, 0
3, 201212, Note_off_c, 1, 62, 0
3, 201212, Note_off_c, 1, 59, 0
3, 201212, Note_off_c, 1, 57, 0
3, 201216, Note_on_c, 1, 64, 76
3, 201216, Note_on_c, 1, 60, 76
3, 201216, Note_on_c, 1, 57, 76
3, 201404, Note_off_c, 1, 64, 0
3, 201404, Note_off_c, 1, 60, 0
3, 201404, Note_off_c, 1, 57, 0
3, 201408, Note_on_c, 1, 64, 76
3, 201408, Note_on_c, 1, 60, 76
3, 201408, Note_on_c, 1, 57, 76
3, 201596, Note_off_c, 1, 64, 0
3, 201596, Note_off_c, 1, 60, 0
3, 201596, Note_off_c, 1, 57, 0
3, 201600, Note_on_c, 1, 64, 76
3, 201600, Note_on_c, 1, 60, 76
3, 201600, Note_on_c, 1, 57, 76
3, 201788, Note_off_c, 1, 64, 0
3, 201788, Note_off_c, 1, 60, 0
3, 201788, Note_off_c, 1, 57, 0
3, 201792, Note_on_c, 1, 64, 76
3, 201792, Note_on_c, 1, 60, 76
3, 201792, Note_on_c, 1, 57, 76
3, 201980, Note_off_c, 1, 64, 0
3, 201980, Note_off_c, 1, 60, 0
3, 201980, Note_off_c, 1, 57, 0
3, 201984, Note_on_c, 1, 64, 76
3, 201984, Note_on_c, 1, 60, 76
3, 201984, Note_on_c, 1, 57, 76
3, 202172, Note_off_c, 1, 64, 0
3, 202172, Note_off_c, 1, 60, 0
3, 202172, Note_off_c, 1, 57, 0
3, 202176, Note_on_c, 1, 64, 76
3, 202176, Note_on_c, 1, 60, 76
3, 202176, Note_on_c, 1, 57, 76
3, 202364, Note_off_c, 1, 64, 0
3, 202364, Note_off_c, 1, 60, 0
3, 202364, Note_off_c, 1, 57, 0
3, 202368, Note_on_c, 1, 64, 76
3, 202368, Note_on_c, 1, 60, 76
3, 202368, Note_on_c, 1, 57, 76
3, 202556, Note_off_c, 1, 64, 0
3, 202556, Note_off_c, 1, 60, 0
3, 202556, Note_off_c, 1, 57, 0
3, 202560, Note_on_c, 1, 64, 76
3, 202560, Note_on_c, 1, 60, 76
3, 202560, Note_on_c, 1, 57, 76
3, 202748, Note_off_c, 1, 64, 0
3, 202748, Note_off_c, 1, 60, 0
3, 202748, Note_off_c, 1, 57, 0
3, 202752, Note_on_c, 1, 64, 76
3, 202752, Note_on_c, 1, 62, 76
3, 202752, Note_on_c, 1, 59, 76
3, 202752, Note_on_c, 1, 57, 76
3, 202940, Note_off_c, 1, 64, 0
3, 202940, Note_off_c, 1, 62, 0
3, 202940, Note_off_c, 1, 59, 0
3, 202940, Note_off_c, 1, 57, 0
3, 202944, Note_on_c, 1, 64, 76
3, 202944, Note_on_c, 1, 59, 76
3, 202944, Note_on_c, 1, 57, 76
3, 202944, Note_on_c, 1, 62, 76
3, 203132, Note_off_c, 1, 64, 0
3, 203132, Note_off_c, 1, 59, 0
3, 203132, Note_off_c, 1, 57, 0
3, 203132, Note_off_c, 1, 62, 0
3, 203136, Note_on_c, 1, 64, 76
3, 203136, Note_on_c, 1, 62, 76
3, 203136, Note_on_c, 1, 59, 76
3, 203136, Note_on_c, 1, 57, 76
3, 203324, Note_off_c, 1, 64, 0
3, 203324, Note_off_c, 1, 62, 0
3, 203324, Note_off_c, 1, 59, 0
3, 203324, Note_off_c, 1, 57, 0
3, 203328, Note_on_c, 1, 64, 76
3, 203328, Note_on_c, 1, 62, 76
3, 203328, Note_on_c, 1, 59, 76
3, 203328, Note_on_c, 1, 57, 76
3, 203516, Note_off_c, 1, 64, 0
3, 203516, Note_off_c, 1, 62, 0
3, 203516, Note_off_c, 1, 59, 0
3, 203516, Note_off_c, 1, 57, 0
3, 203520, Note_on_c, 1, 64, 76
3, 203520, Note_on_c, 1, 62, 76
3, 203520, Note_on_c, 1, 59, 76
3, 203520, Note_on_c, 1, 57, 76
3, 203708, Note_off_c, 1, 64, 0
3, 203708, Note_off_c, 1, 62, 0
3, 203708, Note_off_c, 1, 59, 0
3, 203708, Note_off_c, 1, 57, 0
3, 203712, Note_on_c, 1, 64, 76
3, 203712, Note_on_c, 1, 62, 76
3, 203712, Note_on_c, 1, 59, 76
3, 203712, Note_on_c, 1, 57, 76
3, 203900, Note_off_c, 1, 64, 0
3, 203900, Note_off_c, 1, 62, 0
3, 203900, Note_off_c, 1, 59, 0
3, 203900, Note_off_c, 1, 57, 0
3, 203904, Note_on_c, 1, 64, 76
3, 203904, Note_on_c, 1, 62, 76
3, 203904, Note_on_c, 1, 59, 76
3, 203904, Note_on_c, 1, 57, 76
3, 204092, Note_off_c, 1, 64, 0
3, 204092, Note_off_c, 1, 62, 0
3, 204092, Note_off_c, 1, 59, 0
3, 204092, Note_off_c, 1, 57, 0
3, 204096, Note_on_c, 1, 64, 76
3, 204096, Note_on_c, 1, 62, 76
3, 204096, Note_on_c, 1, 59, 76
3, 204096, Note_on_c, 1, 57, 76
3, 204284, Note_off_c, 1, 64, 0
3, 204284, Note_off_c, 1, 62, 0
3, 204284, Note_off_c, 1, 59, 0
3, 204284, Note_off_c, 1, 57, 0
3, 204288, Note_on_c, 1, 64, 90
3, 204288, Note_on_c, 1, 60, 90
3, 204288, Note_on_c, 1, 57, 90
3, 204476, Note_off_c, 1, 64, 0
3, 204476, Note_off_c, 1, 60, 0
3, 204476, Note_off_c, 1, 57, 0
3, 204480, Note_on_c, 1, 57, 90
3, 204668, Note_off_c, 1, 57, 0
3, 204672, Note_on_c, 1, 52, 90
3, 204860, Note_off_c, 1, 52, 0
3, 204864, Note_on_c, 1, 48, 90
3, 205052, Note_off_c, 1, 48, 0
3, 205056, Note_on_c, 1, 45, 90
3, 205244, Note_off_c, 1, 45, 0
3, 206208, Note_on_c, 1, 62, 90
3, 206208, Note_on_c, 1, 57, 90
3, 206208, Note_on_c, 1, 53, 90
3, 206208, Note_on_c, 1, 60, 90
3, 206588, Note_off_c, 1, 62, 0
3, 206588, Note_off_c, 1, 57, 0
3, 206588, Note_off_c, 1, 53, 0
3, 206588, Note_off_c, 1, 60, 0
3, 206592, Note_on_c, 1, 62, 90
3, 206592, Note_on_c, 1, 59, 90
3, 206592, Note_on_c, 1, 55, 90
3, 206780, Note_off_c, 1, 62, 0
3, 206780, Note_off_c, 1, 59, 0
3, 206780, Note_off_c, 1, 55, 0
3, 207744, Note_on_c, 1, 60, 90
3, 207744, Note_on_c, 1, 59, 90
3, 207744, Note_on_c, 1, 55, 90
3, 207744, Note_on_c, 1, 52, 90
3, 208124, Note_off_c, 1, 60, 0
3, 208124, Note_off_c, 1, 59, 0
3, 208124, Note_off_c, 1, 55, 0
3, 208124, Note_off_c, 1, 52, 0
3, 208128, Note_on_c, 1, 60, 90
3, 208128, Note_on_c, 1, 57, 90
3, 208128, Note_on_c, 1, 53, 90
3, 208316, Note_off_c, 1, 60, 0
3, 208316, Note_off_c, 1, 57, 0
3, 208316, Note_off_c, 1, 53, 0
3, 209280, Note_on_c, 1, 59, 75
3, 209280, Note_on_c, 1, 53, 75
3, 209280, Note_on_c, 1, 50, 75
3, 209660, Note_off_c, 1, 59, 0
3, 209660, Note_off_c, 1, 53, 0
3, 209660, Note_off_c, 1, 50, 0
3, 209664, Note_on_c, 1, 60, 90
3, 209664, Note_on_c, 1, 57, 90
3, 209664, Note_on_c, 1, 52, 90
3, 210044, Note_off_c, 1, 60, 0
3, 210044, Note_off_c, 1, 57, 0
3, 210044, Note_off_c, 1, 52, 0
3, 210048, Note_on_c, 1, 59, 90
3, 210048, Note_on_c, 1, 56, 90
3, 210048, Note_on_c, 1, 52, 90
3, 210428, Note_off_c, 1, 59, 0
3, 210428, Note_off_c, 1, 56, 0
3, 210428, Note_off_c, 1, 52, 0
3, 210432, Note_on_c, 1, 57, 90
3, 210432, Note_on_c, 1, 45, 90
3, 210812, Note_off_c, 1, 57, 0
3, 210812, Note_off_c, 1, 45, 0
3, 210816, Note_on_c, 1, 57, 90
3, 211100, Note_off_c, 1, 57, 0
3, 211104, Note_on_c, 1, 57, 90
3, 211196, Note_off_c, 1, 57, 0
3, 211200, Note_on_c, 1, 57, 90
3, 211580, Note_off_c, 1, 57, 0
3, 211584, Note_on_c, 1, 53, 90
3, 211868, Note_off_c, 1, 53, 0
3, 211872, Note_on_c, 1, 51, 90
3, 211964, Note_off_c, 1, 51, 0
3, 211968, Note_on_c, 1, 53, 75
3, 212156, Note_off_c, 1, 53, 0
3, 212160, Note_on_c, 1, 52, 75
3, 212348, Note_off_c, 1, 52, 0
3, 212352, Note_on_c, 1, 52, 75
3, 213116, Note_off_c, 1, 52, 0
3, 213120, Note_on_c, 1, 55, 75
3, 213404, Note_off_c, 1, 55, 0
3, 213408, Note_on_c, 1, 52, 75
3, 213500, Note_off_c, 1, 52, 0
3, 213504, Note_on_c, 1, 53, 75
3, 213884, Note_off_c, 1, 53, 0
3, 213888, Note_on_c, 1, 53, 75
3, 214172, Note_off_c, 1, 53, 0
3, 214176, Note_on_c, 1, 53, 75
3, 214268, Note_off_c, 1, 53, 0
3, 214272, Note_on_c, 1, 53, 75
3, 214460, Note_off_c, 1, 53, 0
3, 214464, Note_on_c, 1, 55, 75
3, 214556, Note_off_c, 1, 55, 0
3, 214560, Note_on_c, 1, 53, 75
3, 214652, Note_off_c, 1, 53, 0
3, 214656, Note_on_c, 1, 52, 75
3, 214748, Note_off_c, 1, 52, 0
3, 214752, Note_on_c, 1, 50, 75
3, 214844, Note_off_c, 1, 50, 0
3, 214848, Note_on_c, 1, 48, 75
3, 214940, Note_off_c, 1, 48, 0
3, 214944, Note_on_c, 1, 47, 75
3, 215036, Note_off_c, 1, 47, 0
3, 215040, Note_on_c, 1, 50, 75
3, 215228, Note_off_c, 1, 50, 0
3, 215232, Note_on_c, 1, 48, 75
3, 215420, Note_off_c, 1, 48, 0
3, 215424, Note_on_c, 1, 48, 75
3, 215792, Note_on_c, 1, 48, 75
3, 215804, Note_off_c, 1, 48, 0
3, 216076, Note_off_c, 1, 48, 0
3, 216096, Note_on_c, 1, 55, 75
3, 216188, Note_off_c, 1, 55, 0
3, 216192, Note_on_c, 1, 52, 75
3, 216476, Note_off_c, 1, 52, 0
3, 216480, Note_on_c, 1, 49, 75
3, 216572, Note_off_c, 1, 49, 0
3, 216576, Note_on_c, 1, 52, 75
3, 216764, Note_off_c, 1, 52, 0
3, 216768, Note_on_c, 1, 50, 75
3, 216956, Note_off_c, 1, 50, 0
3, 216960, Note_on_c, 1, 50, 75
3, 217148, Note_off_c, 1, 50, 0
3, 217152, Note_on_c, 1, 50, 75
3, 217340, Note_off_c, 1, 50, 0
3, 217344, Note_on_c, 1, 50, 75
3, 217532, Note_off_c, 1, 50, 0
3, 217536, Note_on_c, 1, 52, 75
3, 217628, Note_off_c, 1, 52, 0
3, 217632, Note_on_c, 1, 50, 75
3, 217724, Note_off_c, 1, 50, 0
3, 217744, Note_on_c, 1, 48, 75
3, 217824, Note_on_c, 1, 47, 75
3, 217836, Note_off_c, 1, 48, 0
3, 217916, Note_off_c, 1, 47, 0
3, 217920, Note_on_c, 1, 45, 75
3, 218012, Note_off_c, 1, 45, 0
3, 218016, Note_on_c, 1, 44, 75
3, 218108, Note_off_c, 1, 44, 0
3, 218112, Note_on_c, 1, 48, 75
3, 218300, Note_off_c, 1, 48, 0
3, 218304, Note_on_c, 1, 45, 75
3, 218492, Note_off_c, 1, 45, 0
3, 218496, Note_on_c, 1, 45, 75
3, 218684, Note_off_c, 1, 45, 0
3, 218688, Note_on_c, 1, 45, 75
3, 218876, Note_off_c, 1, 45, 0
3, 218880, Note_on_c, 1, 45, 75
3, 219068, Note_off_c, 1, 45, 0
3, 219072, Note_on_c, 1, 43, 75
3, 219260, Note_off_c, 1, 43, 0
3, 219264, Note_on_c, 1, 43, 75
3, 219452, Note_off_c, 1, 43, 0
3, 219456, Note_on_c, 1, 55, 75
3, 219644, Note_off_c, 1, 55, 0
3, 219648, Note_on_c, 1, 54, 75
3, 220028, Note_off_c, 1, 54, 0
3, 220032, Note_on_c, 1, 53, 75
3, 220412, Note_off_c, 1, 53, 0
3, 220416, Note_on_c, 1, 52, 75
3, 220796, Note_off_c, 1, 52, 0
3, 220800, Note_on_c, 1, 52, 75
3, 221180, Note_off_c, 1, 52, 0
3, 221184, Note_on_c, 1, 50, 60
3, 221564, Note_off_c, 1, 50, 0
3, 221568, Note_on_c, 1, 52, 60
3, 221948, Note_off_c, 1, 52, 0
3, 221952, Note_on_c, 1, 53, 60
3, 222332, Note_off_c, 1, 53, 0
3, 222336, Note_on_c, 1, 49, 60
3, 222716, Note_off_c, 1, 49, 0
3, 222720, Note_on_c, 1, 50, 75
3, 223100, Note_off_c, 1, 50, 0
3, 223104, Note_on_c, 1, 52, 75
3, 223484, Note_off_c, 1, 52, 0
3, 223488, Note_on_c, 1, 53, 75
3, 223868, Note_off_c, 1, 53, 0
3, 223872, Note_on_c, 1, 51, 75
3, 224252, Note_off_c, 1, 51, 0
3, 224256, Note_on_c, 1, 52, 90
3, 224348, Note_off_c, 1, 52, 0
3, 224352, Note_on_c, 1, 59, 90
3, 224444, Note_off_c, 1, 59, 0
3, 224448, Note_on_c, 1, 56, 90
3, 224540, Note_off_c, 1, 56, 0
3, 224544, Note_on_c, 1, 59, 90
3, 224636, Note_off_c, 1, 59, 0
3, 224640, Note_on_c, 1, 52, 90
3, 224732, Note_off_c, 1, 52, 0
3, 224736, Note_on_c, 1, 59, 90
3, 224828, Note_off_c, 1, 59, 0
3, 224832, Note_on_c, 1, 56, 90
3, 224924, Note_off_c, 1, 56, 0
3, 224928, Note_on_c, 1, 59, 90
3, 225020, Note_off_c, 1, 59, 0
3, 225024, Note_on_c, 1, 52, 90
3, 225116, Note_off_c, 1, 52, 0
3, 225120, Note_on_c, 1, 60, 90
3, 225212, Note_off_c, 1, 60, 0
3, 225216, Note_on_c, 1, 57, 90
3, 225308, Note_off_c, 1, 57, 0
3, 225312, Note_on_c, 1, 60, 90
3, 225404, Note_off_c, 1, 60, 0
3, 225408, Note_on_c, 1, 52, 90
3, 225500, Note_off_c, 1, 52, 0
3, 225504, Note_on_c, 1, 62, 90
3, 225596, Note_off_c, 1, 62, 0
3, 225600, Note_on_c, 1, 59, 90
3, 225692, Note_off_c, 1, 59, 0
3, 225696, Note_on_c, 1, 62, 90
3, 225788, Note_off_c, 1, 62, 0
3, 225792, Note_on_c, 1, 52, 75
3, 225872, Note_on_c, 1, 60, 75
3, 225884, Note_off_c, 1, 52, 0
3, 225964, Note_off_c, 1, 60, 0
3, 225984, Note_on_c, 1, 57, 75
3, 226076, Note_off_c, 1, 57, 0
3, 226080, Note_on_c, 1, 60, 75
3, 226172, Note_off_c, 1, 60, 0
3, 226176, Note_on_c, 1, 52, 75
3, 226268, Note_off_c, 1, 52, 0
3, 226272, Note_on_c, 1, 60, 75
3, 226364, Note_off_c, 1, 60, 0
3, 226368, Note_on_c, 1, 57, 75
3, 226460, Note_off_c, 1, 57, 0
3, 226464, Note_on_c, 1, 60, 75
3, 226556, Note_off_c, 1, 60, 0
3, 226560, Note_on_c, 1, 52, 75
3, 226652, Note_off_c, 1, 52, 0
3, 226656, Note_on_c, 1, 60, 75
3, 226748, Note_off_c, 1, 60, 0
3, 226752, Note_on_c, 1, 57, 75
3, 226844, Note_off_c, 1, 57, 0
3, 226848, Note_on_c, 1, 60, 75
3, 226940, Note_off_c, 1, 60, 0
3, 226944, Note_on_c, 1, 52, 75
3, 227036, Note_off_c, 1, 52, 0
3, 227040, Note_on_c, 1, 60, 75
3, 227132, Note_off_c, 1, 60, 0
3, 227136, Note_on_c, 1, 57, 75
3, 227228, Note_off_c, 1, 57, 0
3, 227232, Note_on_c, 1, 60, 75
3, 227324, Note_off_c, 1, 60, 0
3, 227328, Note_on_c, 1, 52, 60
3, 227420, Note_off_c, 1, 52, 0
3, 227424, Note_on_c, 1, 59, 60
3, 227516, Note_off_c, 1, 59, 0
3, 227520, Note_on_c, 1, 56, 60
3, 227612, Note_off_c, 1, 56, 0
3, 227616, Note_on_c, 1, 59, 60
3, 227708, Note_off_c, 1, 59, 0
3, 227712, Note_on_c, 1, 52, 60
3, 227804, Note_off_c, 1, 52, 0
3, 227808, Note_on_c, 1, 59, 60
3, 227900, Note_off_c, 1, 59, 0
3, 227904, Note_on_c, 1, 56, 60
3, 227996, Note_off_c, 1, 56, 0
3, 228000, Note_on_c, 1, 59, 60
3, 228092, Note_off_c, 1, 59, 0
3, 228096, Note_on_c, 1, 52, 60
3, 228188, Note_off_c, 1, 52, 0
3, 228192, Note_on_c, 1, 60, 60
3, 228284, Note_off_c, 1, 60, 0
3, 228288, Note_on_c, 1, 57, 60
3, 228380, Note_off_c, 1, 57, 0
3, 228384, Note_on_c, 1, 60, 60
3, 228476, Note_off_c, 1, 60, 0
3, 228480, Note_on_c, 1, 52, 60
3, 228572, Note_off_c, 1, 52, 0
3, 228576, Note_on_c, 1, 62, 60
3, 228668, Note_off_c, 1, 62, 0
3, 228672, Note_on_c, 1, 59, 60
3, 228764, Note_off_c, 1, 59, 0
3, 228768, Note_on_c, 1, 62, 60
3, 228860, Note_off_c, 1, 62, 0
3, 228864, Note_on_c, 1, 52, 75
3, 228956, Note_off_c, 1, 52, 0
3, 228960, Note_on_c, 1, 60, 75
3, 229052, Note_off_c, 1, 60, 0
3, 229056, Note_on_c, 1, 57, 75
3, 229148, Note_off_c, 1, 57, 0
3, 229152, Note_on_c, 1, 60, 75
3, 229244, Note_off_c, 1, 60, 0
3, 229248, Note_on_c, 1, 52, 75
3, 229340, Note_off_c, 1, 52, 0
3, 229344, Note_on_c, 1, 60, 75
3, 229436, Note_off_c, 1, 60, 0
3, 229440, Note_on_c, 1, 57, 75
3, 229532, Note_off_c, 1, 57, 0
3, 229536, Note_on_c, 1, 60, 75
3, 229628, Note_off_c, 1, 60, 0
3, 229632, Note_on_c, 1, 52, 75
3, 229724, Note_off_c, 1, 52, 0
3, 229728, Note_on_c, 1, 60, 75
3, 229820, Note_off_c, 1, 60, 0
3, 229824, Note_on_c, 1, 57, 75
3, 229916, Note_off_c, 1, 57, 0
3, 229920, Note_on_c, 1, 60, 75
3, 230012, Note_off_c, 1, 60, 0
3, 230016, Note_on_c, 1, 52, 75
3, 230108, Note_off_c, 1, 52, 0
3, 230112, Note_on_c, 1, 60, 75
3, 230204, Note_off_c, 1, 60, 0
3, 230208, Note_on_c, 1, 57, 75
3, 230300, Note_off_c, 1, 57, 0
3, 230304, Note_on_c, 1, 60, 75
3, 230396, Note_off_c, 1, 60, 0
3, 230400, Note_on_c, 1, 59, 90
3, 230400, Note_on_c, 1, 56, 90
3, 230400, Note_on_c, 1, 52, 90
3, 230780, Note_off_c, 1, 59, 0
3, 230780, Note_off_c, 1, 56, 0
3, 230780, Note_off_c, 1, 52, 0
3, 230976, Note_on_c, 1, 57, 90
3, 230976, Note_on_c, 1, 45, 90
3, 231164, Note_off_c, 1, 57, 0
3, 231164, Note_off_c, 1, 45, 0
3, 231168, Note_on_c, 1, 52, 90
3, 231168, Note_on_c, 1, 40, 90
3, 231548, Note_off_c, 1, 52, 0
3, 231548, Note_off_c, 1, 40, 0
3, 231744, Note_on_c, 1, 57, 90
3, 231744, Note_on_c, 1, 45, 90
3, 231932, Note_off_c, 1, 57, 0
3, 231932, Note_off_c, 1, 45, 0
3, 231936, Note_on_c, 1, 52, 90
3, 231936, Note_on_c, 1, 40, 90
3, 232316, Note_off_c, 1, 52, 0
3, 232316, Note_off_c, 1, 40, 0
3, 232512, Note_on_c, 1, 57, 90
3, 232512, Note_on_c, 1, 45, 90
3, 232700, Note_off_c, 1, 57, 0
3, 232700, Note_off_c, 1, 45, 0
3, 232704, Note_on_c, 1, 52, 90
3, 232704, Note_on_c, 1, 40, 90
3, 232892, Note_off_c, 1, 52, 0
3, 232892, Note_off_c, 1, 40, 0
3, 232896, Note_on_c, 1, 57, 90
3, 232896, Note_on_c, 1, 45, 90
3, 233084, Note_off_c, 1, 57, 0
3, 233084, Note_off_c, 1, 45, 0
3, 233088, Note_on_c, 1, 52, 90
3, 233088, Note_on_c, 1, 40, 90
3, 233276, Note_off_c, 1, 52, 0
3, 233276, Note_off_c, 1, 40, 0
3, 233280, Note_on_c, 1, 57, 90
3, 233280, Note_on_c, 1, 45, 90
3, 233468, Note_off_c, 1, 57, 0
3, 233468, Note_off_c, 1, 45, 0
3, 233472, Note_on_c, 1, 52, 90
3, 233472, Note_on_c, 1, 40, 90
3, 233852, Note_off_c, 1, 52, 0
3, 233852, Note_off_c, 1, 40, 0
3, 233856, Note_on_c, 1, 52, 90
3, 233856, Note_on_c, 1, 40, 90
3, 234236, Note_off_c, 1, 52, 0
3, 234236, Note_off_c, 1, 40, 0
3, 234240, Note_on_c, 1, 52, 90
3, 234240, Note_on_c, 1, 40, 90
3, 234620, Note_off_c, 1, 52, 0
3, 234620, Note_off_c, 1, 40, 0
3, 238080, Note_on_c, 1, 52, 75
3, 238080, Note_on_c, 1, 59, 75
3, 238080, Note_on_c, 1, 62, 75
3, 238268, Note_off_c, 1, 52, 0
3, 238272, Note_on_c, 1, 53, 75
3, 238460, Note_off_c, 1, 53, 0
3, 238464, Note_on_c, 1, 52, 75
3, 238652, Note_off_c, 1, 52, 0
3, 238656, Note_on_c, 1, 53, 75
3, 238844, Note_off_c, 1, 53, 0
3, 238848, Note_on_c, 1, 52, 75
3, 238848, Note_on_c, 1, 59, 75
3, 238848, Note_on_c, 1, 62, 75
3, 239228, Note_off_c, 1, 59, 0
3, 239228, Note_off_c, 1, 62, 0
3, 239228, Note_off_c, 1, 52, 0
3, 239228, Note_off_c, 1, 59, 0
3, 239228, Note_off_c, 1, 62, 0
3, 239616, Note_on_c, 1, 59, 75
3, 239616, Note_on_c, 1, 45, 75
3, 239996, Note_off_c, 1, 59, 0
3, 239996, Note_off_c, 1, 45, 0
3, 241152, Note_on_c, 1, 57, 60
3, 241152, Note_on_c, 1, 48, 60
3, 241340, Note_off_c, 1, 57, 0
3, 241340, Note_off_c, 1, 48, 0
3, 241344, Note_on_c, 1, 57, 60
3, 241344, Note_on_c, 1, 48, 60
3, 241532, Note_off_c, 1, 57, 0
3, 241532, Note_off_c, 1, 48, 0
3, 241536, Note_on_c, 1, 57, 60
3, 241536, Note_on_c, 1, 48, 60
3, 241724, Note_off_c, 1, 57, 0
3, 241724, Note_off_c, 1, 48, 0
3, 241728, Note_on_c, 1, 57, 60
3, 241728, Note_on_c, 1, 48, 60
3, 241916, Note_off_c, 1, 57, 0
3, 241916, Note_off_c, 1, 48, 0
3, 241920, Note_on_c, 1, 57, 60
3, 241920, Note_on_c, 1, 48, 60
3, 242300, Note_off_c, 1, 57, 0
3, 242300, Note_off_c, 1, 48, 0
3, 242688, Note_on_c, 1, 50, 75
3, 243072, Note_on_c, 1, 53, 75
3, 243452, Note_off_c, 1, 53, 0
3, 243456, Note_on_c, 1, 58, 75
3, 243836, Note_off_c, 1, 50, 0
3, 243840, Note_on_c, 1, 50, 75
3, 244220, Note_off_c, 1, 50, 0
3, 244224, Note_on_c, 1, 48, 75
3, 244604, Note_off_c, 1, 58, 0
3, 244608, Note_on_c, 1, 56, 75
3, 244988, Note_off_c, 1, 56, 0
3, 244992, Note_on_c, 1, 57, 75
3, 245372, Note_off_c, 1, 48, 0
3, 245376, Note_on_c, 1, 48, 75
3, 245756, Note_off_c, 1, 57, 0
3, 245756, Note_off_c, 1, 48, 0
3, 245760, Note_on_c, 1, 57, 75
3, 245760, Note_on_c, 1, 47, 75
3, 246140, Note_off_c, 1, 57, 0
3, 246140, Note_off_c, 1, 47, 0
3, 246144, Note_on_c, 1, 53, 75
3, 246144, Note_on_c, 1, 62, 75
3, 246524, Note_off_c, 1, 53, 0
3, 246528, Note_on_c, 1, 52, 75
3, 246908, Note_off_c, 1, 62, 0
3, 246908, Note_off_c, 1, 52, 0
3, 246912, Note_on_c, 1, 56, 75
3, 246912, Note_on_c, 1, 59, 75
3, 247292, Note_off_c, 1, 56, 0
3, 247292, Note_off_c, 1, 59, 0
3, 247296, Note_on_c, 1, 57, 75
3, 247296, Note_on_c, 1, 57, 75
3, 247296, Note_on_c, 1, 57, 75
3, 247676, Note_off_c, 1, 57, 0
3, 247676, Note_off_c, 1, 57, 0
3, 247676, Note_off_c, 1, 57, 0
3, 247680, Note_on_c, 1, 45, 76
3, 247680, Note_on_c, 1, 52, 76
3, 248060, Note_off_c, 1, 45, 0
3, 248064, Note_on_c, 1, 47, 78
3, 248444, Note_off_c, 1, 52, 0
3, 248444, Note_off_c, 1, 47, 0
3, 248448, Note_on_c, 1, 56, 79
3, 248448, Note_on_c, 1, 52, 79
3, 248448, Note_on_c, 1, 50, 79
3, 248828, Note_off_c, 1, 56, 0
3, 248828, Note_off_c, 1, 52, 0
3, 248828, Note_off_c, 1, 50, 0
3, 248832, Note_on_c, 1, 57, 82
3, 248832, Note_on_c, 1, 52, 82
3, 248832, Note_on_c, 1, 48, 82
3, 249212, Note_off_c, 1, 57, 0
3, 249212, Note_off_c, 1, 52, 0
3, 249212, Note_off_c, 1, 48, 0
3, 249984, Note_on_c, 1, 57, 85
3, 249984, Note_on_c, 1, 52, 85
3, 249984, Note_on_c, 1, 49, 85
3, 250364, Note_off_c, 1, 57, 0
3, 250364, Note_off_c, 1, 52, 0
3, 250364, Note_off_c, 1, 49, 0
3, 250368, Note_on_c, 1, 50, 90
3, 250460, Note_off_c, 1, 50, 0
3, 250464, Note_on_c, 1, 57, 90
3, 250556, Note_off_c, 1, 57, 0
3, 250560, Note_on_c, 1, 53, 90
3, 250652, Note_off_c, 1, 53, 0
3, 250656, Note_on_c, 1, 57, 90
3, 250748, Note_off_c, 1, 57, 0
3, 250752, Note_on_c, 1, 50, 90
3, 250844, Note_off_c, 1, 50, 0
3, 250848, Note_on_c, 1, 57, 90
3, 250940, Note_off_c, 1, 57, 0
3, 250944, Note_on_c, 1, 53, 90
3, 251036, Note_off_c, 1, 53, 0
3, 251040, Note_on_c, 1, 57, 90
3, 251132, Note_off_c, 1, 57, 0
3, 251136, Note_on_c, 1, 50, 90
3, 251228, Note_off_c, 1, 50, 0
3, 251232, Note_on_c, 1, 59, 90
3, 251324, Note_off_c, 1, 59, 0
3, 251328, Note_on_c, 1, 53, 90
3, 251420, Note_off_c, 1, 53, 0
3, 251424, Note_on_c, 1, 59, 90
3, 251516, Note_off_c, 1, 59, 0
3, 251520, Note_on_c, 1, 50, 90
3, 251612, Note_off_c, 1, 50, 0
3, 251616, Note_on_c, 1, 59, 90
3, 251708, Note_off_c, 1, 59, 0
3, 251712, Note_on_c, 1, 53, 90
3, 251804, Note_off_c, 1, 53, 0
3, 251808, Note_on_c, 1, 59, 90
3, 251900, Note_off_c, 1, 59, 0
3, 251904, Note_on_c, 1, 52, 75
3, 251996, Note_off_c, 1, 52, 0
3, 252000, Note_on_c, 1, 60, 75
3, 252092, Note_off_c, 1, 60, 0
3, 252096, Note_on_c, 1, 57, 75
3, 252188, Note_off_c, 1, 57, 0
3, 252192, Note_on_c, 1, 60, 75
3, 252284, Note_off_c, 1, 60, 0
3, 252288, Note_on_c, 1, 52, 75
3, 252380, Note_off_c, 1, 52, 0
3, 252384, Note_on_c, 1, 60, 75
3, 252476, Note_off_c, 1, 60, 0
3, 252480, Note_on_c, 1, 57, 75
3, 252572, Note_off_c, 1, 57, 0
3, 252576, Note_on_c, 1, 60, 75
3, 252668, Note_off_c, 1, 60, 0
3, 252672, Note_on_c, 1, 52, 75
3, 252764, Note_off_c, 1, 52, 0
3, 252768, Note_on_c, 1, 62, 75
3, 252860, Note_off_c, 1, 62, 0
3, 252864, Note_on_c, 1, 56, 75
3, 252956, Note_off_c, 1, 56, 0
3, 252960, Note_on_c, 1, 62, 75
3, 253052, Note_off_c, 1, 62, 0
3, 253056, Note_on_c, 1, 52, 75
3, 253148, Note_off_c, 1, 52, 0
3, 253152, Note_on_c, 1, 62, 75
3, 253244, Note_off_c, 1, 62, 0
3, 253248, Note_on_c, 1, 56, 75
3, 253340, Note_off_c, 1, 56, 0
3, 253344, Note_on_c, 1, 62, 75
3, 253436, Note_off_c, 1, 62, 0
3, 253440, Note_on_c, 1, 60, 60
3, 253440, Note_on_c, 1, 57, 60
3, 253820, Note_off_c, 1, 60, 0
3, 253820, Note_off_c, 1, 57, 0
3, 257280, Note_on_c, 1, 57, 75
3, 257280, Note_on_c, 1, 52, 75
3, 257280, Note_on_c, 1, 48, 75
3, 258044, Note_off_c, 1, 57, 0
3, 258044, Note_off_c, 1, 52, 0
3, 258044, Note_off_c, 1, 48, 0
3, 258048, Note_on_c, 1, 53, 75
3, 258048, Note_on_c, 1, 50, 75
3, 258812, Note_off_c, 1, 53, 0
3, 258812, Note_off_c, 1, 50, 0
3, 258816, Note_on_c, 1, 59, 90
3, 258816, Note_on_c, 1, 56, 90
3, 258816, Note_on_c, 1, 53, 90
3, 258816, Note_on_c, 1, 50, 90
3, 259580, Note_off_c, 1, 59, 0
3, 259580, Note_off_c, 1, 56, 0
3, 259580, Note_off_c, 1, 53, 0
3, 259580, Note_off_c, 1, 50, 0
3, 259584, Note_on_c, 1, 59, 90
3, 259584, Note_on_c, 1, 52, 90
3, 259584, Note_on_c, 1, 48, 90
3, 259964, Note_off_c, 1, 59, 0
3, 259964, Note_off_c, 1, 52, 0
3, 259964, Note_off_c, 1, 48, 0
3, 259968, Note_on_c, 1, 50, 90
3, 259968, Note_on_c, 1, 57, 90
3, 260348, Note_off_c, 1, 50, 0
3, 260352, Note_on_c, 1, 52, 90
3, 260732, Note_off_c, 1, 57, 0
3, 260732, Note_off_c, 1, 52, 0
3, 260736, Note_on_c, 1, 56, 90
3, 260736, Note_on_c, 1, 52, 90
3, 261116, Note_off_c, 1, 56, 0
3, 261116, Note_off_c, 1, 52, 0
3, 264192, Note_on_c, 1, 60, 75
3, 264284, Note_off_c, 1, 60, 0
3, 264288, Note_on_c, 1, 62, 75
3, 264380, Note_off_c, 1, 62, 0
3, 264384, Note_on_c, 1, 59, 75
3, 264476, Note_off_c, 1, 59, 0
3, 264480, Note_on_c, 1, 60, 75
3, 264572, Note_off_c, 1, 60, 0
3, 264576, Note_on_c, 1, 57, 75
3, 264668, Note_off_c, 1, 57, 0
3, 264672, Note_on_c, 1, 59, 75
3, 264764, Note_off_c, 1, 59, 0
3, 264768, Note_on_c, 1, 55, 75
3, 264860, Note_off_c, 1, 55, 0
3, 264864, Note_on_c, 1, 57, 75
3, 264956, Note_off_c, 1, 57, 0
3, 264960, Note_on_c, 1, 53, 75
3, 265052, Note_off_c, 1, 53, 0
3, 265056, Note_on_c, 1, 55, 75
3, 265148, Note_off_c, 1, 55, 0
3, 265152, Note_on_c, 1, 52, 75
3, 265244, Note_off_c, 1, 52, 0
3, 265248, Note_on_c, 1, 53, 75
3, 265340, Note_off_c, 1, 53, 0
3, 265344, Note_on_c, 1, 50, 76
3, 265436, Note_off_c, 1, 50, 0
3, 265440, Note_on_c, 1, 52, 76
3, 265532, Note_off_c, 1, 52, 0
3, 265536, Note_on_c, 1, 48, 76
3, 265628, Note_off_c, 1, 48, 0
3, 265632, Note_on_c, 1, 50, 76
3, 265724, Note_off_c, 1, 50, 0
3, 265728, Note_on_c, 1, 47, 78
3, 265820, Note_off_c, 1, 47, 0
3, 265824, Note_on_c, 1, 48, 78
3, 265916, Note_off_c, 1, 48, 0
3, 265920, Note_on_c, 1, 45, 79
3, 266012, Note_off_c, 1, 45, 0
3, 266016, Note_on_c, 1, 47, 79
3, 266108, Note_off_c, 1, 47, 0
3, 266112, Note_on_c, 1, 44, 81
3, 266204, Note_off_c, 1, 44, 0
3, 266208, Note_on_c, 1, 45, 81
3, 266300, Note_off_c, 1, 45, 0
3, 266304, Note_on_c, 1, 42, 82
3, 266396, Note_off_c, 1, 42, 0
3, 266400, Note_on_c, 1, 44, 82
3, 266492, Note_off_c, 1, 44, 0
3, 266496, Note_on_c, 1, 40, 84
3, 266588, Note_off_c, 1, 40, 0
3, 266592, Note_on_c, 1, 41, 84
3, 266684, Note_off_c, 1, 41, 0
3, 266688, Note_on_c, 1, 38, 85
3, 266780, Note_off_c, 1, 38, 0
3, 266784, Note_on_c, 1, 40, 85
3, 266876, Note_off_c, 1, 40, 0
3, 266880, Note_on_c, 1, 36, 87
3, 266972, Note_off_c, 1, 36, 0
3, 266976, Note_on_c, 1, 38, 87
3, 267068, Note_off_c, 1, 38, 0
3, 267072, Note_on_c, 1, 35, 88
3, 267164, Note_off_c, 1, 35, 0
3, 267168, Note_on_c, 1, 38, 88
3, 267260, Note_off_c, 1, 38, 0
3, 267264, Note_on_c, 1, 36, 90
3, 267452, Note_off_c, 1, 36, 0
3, 267648, Note_on_c, 1, 38, 90
3, 267836, Note_off_c, 1, 38, 0
3, 268032, Note_on_c, 1, 40, 90
3, 268220, Note_off_c, 1, 40, 0
3, 268416, Note_on_c, 1, 40, 90
3, 268604, Note_off_c, 1, 40, 0
3, 268800, Note_on_c, 1, 59, 90
3, 268800, Note_on_c, 1, 56, 90
3, 268800, Note_on_c, 1, 50, 90
3, 268800, Note_on_c, 1, 53, 90
3, 270332, Note_off_c, 1, 59, 0
3, 270332, Note_off_c, 1, 56, 0
3, 270332, Note_off_c, 1, 50, 0
3, 270332, Note_off_c, 1, 53, 0
3, 270336, Note_on_c, 1, 60, 105
3, 270428, Note_off_c, 1, 60, 0
3, 270432, Note_on_c, 1, 63, 105
3, 270524, Note_off_c, 1, 63, 0
3, 270528, Note_on_c, 1, 57, 105
3, 270620, Note_off_c, 1, 57, 0
3, 270624, Note_on_c, 1, 60, 105
3, 270716, Note_off_c, 1, 60, 0
3, 270720, Note_on_c, 1, 54, 105
3, 270812, Note_off_c, 1, 54, 0
3, 270816, Note_on_c, 1, 57, 105
3, 270908, Note_off_c, 1, 57, 0
3, 270912, Note_on_c, 1, 51, 105
3, 271004, Note_off_c, 1, 51, 0
3, 271008, Note_on_c, 1, 54, 105
3, 271100, Note_off_c, 1, 54, 0
3, 271104, Note_on_c, 1, 48, 105
3, 271196, Note_off_c, 1, 48, 0
3, 271200, Note_on_c, 1, 51, 105
3, 271292, Note_off_c, 1, 51, 0
3, 271296, Note_on_c, 1, 45, 105
3, 271388, Note_off_c, 1, 45, 0
3, 271392, Note_on_c, 1, 48, 105
3, 271484, Note_off_c, 1, 48, 0
3, 271488, Note_on_c, 1, 42, 105
3, 271580, Note_off_c, 1, 42, 0
3, 271584, Note_on_c, 1, 45, 105
3, 271676, Note_off_c, 1, 45, 0
3, 271680, Note_on_c, 1, 39, 105
3, 271772, Note_off_c, 1, 39, 0
3, 271776, Note_on_c, 1, 42, 105
3, 271868, Note_off_c, 1, 42, 0
3, 271872, Note_on_c, 1, 40, 105
3, 272252, Note_off_c, 1, 40, 0
3, 272352, Note_on_c, 1, 52, 90
3, 272444, Note_off_c, 1, 52, 0
3, 272448, Note_on_c, 1, 48, 90
3, 272540, Note_off_c, 1, 48, 0
3, 272544, Note_on_c, 1, 45, 90
3, 272636, Note_off_c, 1, 45, 0
3, 272640, Note_on_c, 1, 40, 90
3, 273020, Note_off_c, 1, 40, 0
3, 273024, Note_on_c, 1, 52, 90
3, 273404, Note_off_c, 1, 52, 0
3, 273408, Note_on_c, 1, 57, 60
3, 273500, Note_off_c, 1, 57, 0
3, 273504, Note_on_c, 1, 59, 60
3, 273596, Note_off_c, 1, 59, 0
3, 273600, Note_on_c, 1, 60, 60
3, 273692, Note_off_c, 1, 60, 0
3, 273696, Note_on_c, 1, 59, 60
3, 273788, Note_off_c, 1, 59, 0
3, 273792, Note_on_c, 1, 57, 60
3, 273884, Note_off_c, 1, 57, 0
3, 273888, Note_on_c, 1, 55, 60
3, 273980, Note_off_c, 1, 55, 0
3, 273984, Note_on_c, 1, 53, 60
3, 274076, Note_off_c, 1, 53, 0
3, 274080, Note_on_c, 1, 52, 60
3, 274172, Note_off_c, 1, 52, 0
3, 274176, Note_on_c, 1, 53, 60
3, 274268, Note_off_c, 1, 53, 0
3, 274272, Note_on_c, 1, 55, 60
3, 274364, Note_off_c, 1, 55, 0
3, 274368, Note_on_c, 1, 57, 60
3, 274460, Note_off_c, 1, 57, 0
3, 274464, Note_on_c, 1, 55, 60
3, 274556, Note_off_c, 1, 55, 0
3, 274560, Note_on_c, 1, 53, 60
3, 274652, Note_off_c, 1, 53, 0
3, 274656, Note_on_c, 1, 52, 60
3, 274748, Note_off_c, 1, 52, 0
3, 274752, Note_on_c, 1, 50, 60
3, 274844, Note_off_c, 1, 50, 0
3, 274848, Note_on_c, 1, 48, 60
3, 274940, Note_off_c, 1, 48, 0
3, 274944, Note_on_c, 1, 50, 75
3, 275036, Note_off_c, 1, 50, 0
3, 275040, Note_on_c, 1, 52, 75
3, 275132, Note_off_c, 1, 52, 0
3, 275136, Note_on_c, 1, 53, 75
3, 275228, Note_off_c, 1, 53, 0
3, 275232, Note_on_c, 1, 52, 75
3, 275324, Note_off_c, 1, 52, 0
3, 275328, Note_on_c, 1, 50, 75
3, 275420, Note_off_c, 1, 50, 0
3, 275424, Note_on_c, 1, 47, 75
3, 275516, Note_off_c, 1, 47, 0
3, 275520, Note_on_c, 1, 48, 75
3, 275612, Note_off_c, 1, 48, 0
3, 275616, Note_on_c, 1, 50, 75
3, 275708, Note_off_c, 1, 50, 0
3, 275712, Note_on_c, 1, 52, 75
3, 275804, Note_off_c, 1, 52, 0
3, 275808, Note_on_c, 1, 51, 75
3, 275900, Note_off_c, 1, 51, 0
3, 275904, Note_on_c, 1, 52, 75
3, 275996, Note_off_c, 1, 52, 0
3, 276000, Note_on_c, 1, 51, 75
3, 276092, Note_off_c, 1, 51, 0
3, 276096, Note_on_c, 1, 52, 75
3, 276188, Note_off_c, 1, 52, 0
3, 276192, Note_on_c, 1, 50, 75
3, 276284, Note_off_c, 1, 50, 0
3, 276288, Note_on_c, 1, 48, 75
3, 276380, Note_off_c, 1, 48, 0
3, 276384, Note_on_c, 1, 47, 75
3, 276476, Note_off_c, 1, 47, 0
3, 276480, Note_on_c, 1, 45, 90
3, 276572, Note_off_c, 1, 45, 0
3, 276576, Note_on_c, 1, 47, 90
3, 276668, Note_off_c, 1, 47, 0
3, 276672, Note_on_c, 1, 48, 90
3, 276764, Note_off_c, 1, 48, 0
3, 276768, Note_on_c, 1, 47, 90
3, 276860, Note_off_c, 1, 47, 0
3, 276864, Note_on_c, 1, 45, 90
3, 276956, Note_off_c, 1, 45, 0
3, 276960, Note_on_c, 1, 43, 90
3, 277052, Note_off_c, 1, 43, 0
3, 277056, Note_on_c, 1, 41, 90
3, 277148, Note_off_c, 1, 41, 0
3, 277152, Note_on_c, 1, 40, 90
3, 277244, Note_off_c, 1, 40, 0
3, 277248, Note_on_c, 1, 41, 90
3, 277340, Note_off_c, 1, 41, 0
3, 277344, Note_on_c, 1, 43, 90
3, 277436, Note_off_c, 1, 43, 0
3, 277440, Note_on_c, 1, 45, 90
3, 277532, Note_off_c, 1, 45, 0
3, 277536, Note_on_c, 1, 43, 90
3, 277628, Note_off_c, 1, 43, 0
3, 277632, Note_on_c, 1, 41, 90
3, 277724, Note_off_c, 1, 41, 0
3, 277728, Note_on_c, 1, 40, 90
3, 277820, Note_off_c, 1, 40, 0
3, 277824, Note_on_c, 1, 38, 90
3, 277916, Note_off_c, 1, 38, 0
3, 277920, Note_on_c, 1, 36, 90
3, 278012, Note_off_c, 1, 36, 0
3, 278016, Note_on_c, 1, 38, 93
3, 278108, Note_off_c, 1, 38, 0
3, 278112, Note_on_c, 1, 40, 93
3, 278204, Note_off_c, 1, 40, 0
3, 278208, Note_on_c, 1, 41, 94
3, 278300, Note_off_c, 1, 41, 0
3, 278304, Note_on_c, 1, 40, 94
3, 278396, Note_off_c, 1, 40, 0
3, 278400, Note_on_c, 1, 38, 96
3, 278492, Note_off_c, 1, 38, 0
3, 278496, Note_on_c, 1, 35, 96
3, 278588, Note_off_c, 1, 35, 0
3, 278592, Note_on_c, 1, 36, 97
3, 278684, Note_off_c, 1, 36, 0
3, 278688, Note_on_c, 1, 38, 97
3, 278780, Note_off_c, 1, 38, 0
3, 278784, Note_on_c, 1, 40, 99
3, 278876, Note_off_c, 1, 40, 0
3, 278880, Note_on_c, 1, 39, 99
3, 278972, Note_off_c, 1, 39, 0
3, 278976, Note_on_c, 1, 40, 100
3, 279068, Note_off_c, 1, 40, 0
3, 279072, Note_on_c, 1, 39, 100
3, 279164, Note_off_c, 1, 39, 0
3, 279168, Note_on_c, 1, 40, 102
3, 279260, Note_off_c, 1, 40, 0
3, 279264, Note_on_c, 1, 38, 102
3, 279356, Note_off_c, 1, 38, 0
3, 279360, Note_on_c, 1, 36, 103
3, 279452, Note_off_c, 1, 36, 0
3, 279456, Note_on_c, 1, 35, 103
3, 279548, Note_off_c, 1, 35, 0
3, 279552, Note_on_c, 1, 33, 105
3, 279932, Note_off_c, 1, 33, 0
3, 279936, Note_on_c, 1, 45, 105
3, 279936, Note_on_c, 1, 33, 105
3, 280316, Note_off_c, 1, 45, 0
3, 280316, Note_off_c, 1, 33, 0
3, 280320, Note_on_c, 1, 45, 105
3, 280320, Note_on_c, 1, 33, 105
3, 280700, Note_off_c, 1, 45, 0
3, 280700, Note_off_c, 1, 33, 0
3, 280700, End_track
4, 0, Start_track
4, 0, Key_signature, 0, "major"
4, 0, End_track
5, 0, Start_track
5, 0, Key_signature, 0, "major"
5, 0, End_track
6, 0, Start_track
6, 0, Key_signature, 0, "major"
6, 0, End_track
7, 0, Start_track
7, 0, Key_signature, 0, "major"
7, 0, End_track
8, 0, Start_track
8, 0, Key_signature, 0, "major"
8, 0, End_track
9, 0, Start_track
9, 0, Key_signature, 0, "major"
9, 0, End_track
10, 0, Start_track
10, 0, Key_signature, 0, "major"
10, 0, End_track
11, 0, Start_track
11, 0, Key_signature, 0, "major"
11, 0, End_track
12, 0, Start_track
12, 0, Key_signature, 0, "major"
12, 0, End_track
13, 0, Start_track
13, 0, Key_signature, 0, "major"
13, 0, End_track
14, 0, Start_track
14, 0, Key_signature, 0, "major"
14, 0, End_track
15, 0, Start_track
15, 0, Key_signature, 0, "major"
15, 0, End_track
16, 0, Start_track
16, 0, Key_signature, 0, "major"
16, 0, End_track
17, 0, Start_track
17, 0, Key_signature, 0, "major"
17, 0, End_track
0, 0, End_of_file
